0, 0, Header, 1, 8, 480
1, 0, Start_track
1, 0, Time_signature, 4, 2, 24, 8
1, 0, Key_signature, 0, "major"
1, 0, Tempo, 600000
1, 0, Control_c, 9, 121, 0
1, 0, Program_c, 9, 0
1, 0, Control_c, 9, 7, 90
1, 0, Control_c, 9, 10, 64
1, 0, Control_c, 9, 91, 0
1, 0, Control_c, 9, 93, 0
1, 0, MIDI_port, 0
1, 0, Note_on_c, 9, 35, 110
1, 479, Note_on_c, 9, 35, 0
1, 960, Note_on_c, 9, 35, 109
1, 1199, Note_on_c, 9, 35, 0
1, 1200, Note_on_c, 9, 35, 91
1, 1439, Note_on_c, 9, 35, 0
1, 1920, Note_on_c, 9, 35, 110
1, 2399, Note_on_c, 9, 35, 0
1, 2880, Note_on_c, 9, 35, 111
1, 3359, Note_on_c, 9, 35, 0
1, 3840, Note_on_c, 9, 35, 111
1, 4079, Note_on_c, 9, 35, 0
1, 4080, Note_on_c, 9, 35, 89
1, 4319, Note_on_c, 9, 35, 0
1, 4800, Note_on_c, 9, 35, 111
1, 5039, Note_on_c, 9, 35, 0
1, 5040, Note_on_c, 9, 35, 89
1, 5279, Note_on_c, 9, 35, 0
1, 5760, Note_on_c, 9, 35, 109
1, 6239, Note_on_c, 9, 35, 0
1, 6720, Note_on_c, 9, 35, 108
1, 7199, Note_on_c, 9, 35, 0
1, 7440, Note_on_c, 9, 35, 91
1, 7679, Note_on_c, 9, 35, 0
1, 7680, Note_on_c, 9, 35, 108
1, 8159, Note_on_c, 9, 35, 0
1, 8400, Note_on_c, 9, 35, 90
1, 8639, Note_on_c, 9, 35, 0
1, 8640, Note_on_c, 9, 35, 110
1, 9119, Note_on_c, 9, 35, 0
1, 9360, Note_on_c, 9, 35, 90
1, 9599, Note_on_c, 9, 35, 0
1, 9600, Note_on_c, 9, 35, 110
1, 10079, Note_on_c, 9, 35, 0
1, 10560, Note_on_c, 9, 35, 108
1, 10799, Note_on_c, 9, 35, 0
1, 10800, Note_on_c, 9, 35, 88
1, 11039, Note_on_c, 9, 35, 0
1, 11520, Note_on_c, 9, 35, 109
1, 11999, Note_on_c, 9, 35, 0
1, 12480, Note_on_c, 9, 35, 110
1, 12959, Note_on_c, 9, 35, 0
1, 13440, Note_on_c, 9, 35, 110
1, 13919, Note_on_c, 9, 35, 0
1, 14160, Note_on_c, 9, 35, 89
1, 14399, Note_on_c, 9, 35, 0
1, 14400, Note_on_c, 9, 35, 111
1, 14879, Note_on_c, 9, 35, 0
1, 15120, Note_on_c, 9, 35, 91
1, 15359, Note_on_c, 9, 35, 0
1, 15360, Note_on_c, 9, 35, 109
1, 15839, Note_on_c, 9, 35, 0
1, 16320, Note_on_c, 9, 35, 110
1, 16799, Note_on_c, 9, 35, 0
1, 17280, Note_on_c, 9, 35, 109
1, 17759, Note_on_c, 9, 35, 0
1, 18000, Note_on_c, 9, 35, 89
1, 18239, Note_on_c, 9, 35, 0
1, 18240, Note_on_c, 9, 35, 111
1, 18479, Note_on_c, 9, 35, 0
1, 18480, Note_on_c, 9, 35, 91
1, 18719, Note_on_c, 9, 35, 0
1, 19200, Note_on_c, 9, 35, 109
1, 19679, Note_on_c, 9, 35, 0
1, 20160, Note_on_c, 9, 35, 109
1, 20639, Note_on_c, 9, 35, 0
1, 21120, Note_on_c, 9, 35, 110
1, 21599, Note_on_c, 9, 35, 0
1, 22080, Note_on_c, 9, 35, 108
1, 22319, Note_on_c, 9, 35, 0
1, 22320, Note_on_c, 9, 35, 91
1, 22559, Note_on_c, 9, 35, 0
1, 22800, Note_on_c, 9, 35, 91
1, 23039, Note_on_c, 9, 35, 0
1, 23040, Note_on_c, 9, 35, 110
1, 23519, Note_on_c, 9, 35, 0
1, 24000, Note_on_c, 9, 35, 108
1, 24479, Note_on_c, 9, 35, 0
1, 24960, Note_on_c, 9, 35, 91
1, 25439, Note_on_c, 9, 35, 0
1, 26160, Note_on_c, 9, 35, 110
1, 26399, Note_on_c, 9, 35, 0
1, 26880, Note_on_c, 9, 35, 111
1, 27359, Note_on_c, 9, 35, 0
1, 27840, Note_on_c, 9, 35, 109
1, 28319, Note_on_c, 9, 35, 0
1, 28800, Note_on_c, 9, 35, 110
1, 29279, Note_on_c, 9, 35, 0
1, 29520, Note_on_c, 9, 35, 91
1, 29759, Note_on_c, 9, 35, 0
1, 29760, Note_on_c, 9, 35, 108
1, 29999, Note_on_c, 9, 35, 0
1, 30000, Note_on_c, 9, 35, 90
1, 30239, Note_on_c, 9, 35, 0
1, 30480, Note_on_c, 9, 35, 91
1, 30719, Note_on_c, 9, 35, 0
1, 30720, Note_on_c, 9, 35, 111
1, 31199, Note_on_c, 9, 35, 0
1, 31680, Note_on_c, 9, 35, 110
1, 32159, Note_on_c, 9, 35, 0
1, 32400, Note_on_c, 9, 35, 88
1, 32639, Note_on_c, 9, 35, 0
1, 32640, Note_on_c, 9, 35, 111
1, 33119, Note_on_c, 9, 35, 0
1, 33600, Note_on_c, 9, 35, 109
1, 34079, Note_on_c, 9, 35, 0
1, 34560, Note_on_c, 9, 35, 111
1, 35039, Note_on_c, 9, 35, 0
1, 35280, Note_on_c, 9, 35, 88
1, 35519, Note_on_c, 9, 35, 0
1, 35520, Note_on_c, 9, 35, 111
1, 35999, Note_on_c, 9, 35, 0
1, 36240, Note_on_c, 9, 35, 91
1, 36479, Note_on_c, 9, 35, 0
1, 36480, Note_on_c, 9, 35, 111
1, 36959, Note_on_c, 9, 35, 0
1, 37440, Note_on_c, 9, 35, 108
1, 37679, Note_on_c, 9, 35, 0
1, 37680, Note_on_c, 9, 35, 91
1, 37919, Note_on_c, 9, 35, 0
1, 38400, Note_on_c, 9, 35, 111
1, 38879, Note_on_c, 9, 35, 0
1, 39360, Note_on_c, 9, 35, 108
1, 39839, Note_on_c, 9, 35, 0
1, 40320, Note_on_c, 9, 35, 90
1, 40799, Note_on_c, 9, 35, 0
1, 42240, Note_on_c, 9, 35, 108
1, 42479, Note_on_c, 9, 35, 0
1, 42480, Note_on_c, 9, 35, 91
1, 42719, Note_on_c, 9, 35, 0
1, 43200, Note_on_c, 9, 35, 109
1, 43679, Note_on_c, 9, 35, 0
1, 44160, Note_on_c, 9, 35, 108
1, 44639, Note_on_c, 9, 35, 0
1, 45120, Note_on_c, 9, 35, 111
1, 45599, Note_on_c, 9, 35, 0
1, 46080, Note_on_c, 9, 35, 108
1, 46559, Note_on_c, 9, 35, 0
1, 47040, Note_on_c, 9, 35, 109
1, 47519, Note_on_c, 9, 35, 0
1, 48000, Note_on_c, 9, 35, 109
1, 48479, Note_on_c, 9, 35, 0
1, 48960, Note_on_c, 9, 35, 108
1, 49439, Note_on_c, 9, 35, 0
1, 49920, Note_on_c, 9, 35, 109
1, 50399, Note_on_c, 9, 35, 0
1, 50880, Note_on_c, 9, 35, 108
1, 51359, Note_on_c, 9, 35, 0
1, 51840, Note_on_c, 9, 35, 108
1, 52319, Note_on_c, 9, 35, 0
1, 52560, Note_on_c, 9, 35, 89
1, 52799, Note_on_c, 9, 35, 0
1, 52800, Note_on_c, 9, 35, 110
1, 53279, Note_on_c, 9, 35, 0
1, 53520, Note_on_c, 9, 35, 88
1, 53759, Note_on_c, 9, 35, 0
1, 53760, Note_on_c, 9, 35, 109
1, 53999, Note_on_c, 9, 35, 0
1, 54000, Note_on_c, 9, 35, 91
1, 54239, Note_on_c, 9, 35, 0
1, 54720, Note_on_c, 9, 35, 109
1, 55199, Note_on_c, 9, 35, 0
1, 55680, Note_on_c, 9, 35, 91
1, 56159, Note_on_c, 9, 35, 0
1, 56880, Note_on_c, 9, 35, 88
1, 57119, Note_on_c, 9, 35, 0
1, 57600, Note_on_c, 9, 35, 109
1, 57839, Note_on_c, 9, 35, 0
1, 57840, Note_on_c, 9, 35, 89
1, 58079, Note_on_c, 9, 35, 0
1, 58560, Note_on_c, 9, 35, 108
1, 58799, Note_on_c, 9, 35, 0
1, 58800, Note_on_c, 9, 35, 89
1, 59039, Note_on_c, 9, 35, 0
1, 59520, Note_on_c, 9, 35, 108
1, 59999, Note_on_c, 9, 35, 0
1, 60480, Note_on_c, 9, 35, 109
1, 60959, Note_on_c, 9, 35, 0
1, 61440, Note_on_c, 9, 35, 109
1, 61919, Note_on_c, 9, 35, 0
1, 62400, Note_on_c, 9, 35, 108
1, 62879, Note_on_c, 9, 35, 0
1, 63360, Note_on_c, 9, 35, 111
1, 63839, Note_on_c, 9, 35, 0
1, 64320, Note_on_c, 9, 35, 110
1, 64799, Note_on_c, 9, 35, 0
1, 65280, Note_on_c, 9, 35, 111
1, 65519, Note_on_c, 9, 35, 0
1, 65520, Note_on_c, 9, 35, 89
1, 65759, Note_on_c, 9, 35, 0
1, 66240, Note_on_c, 9, 35, 110
1, 66479, Note_on_c, 9, 35, 0
1, 66480, Note_on_c, 9, 35, 90
1, 66719, Note_on_c, 9, 35, 0
1, 67200, Note_on_c, 9, 35, 108
1, 67679, Note_on_c, 9, 35, 0
1, 68160, Note_on_c, 9, 35, 108
1, 68639, Note_on_c, 9, 35, 0
1, 69120, Note_on_c, 9, 35, 111
1, 69599, Note_on_c, 9, 35, 0
1, 70080, Note_on_c, 9, 35, 111
1, 70559, Note_on_c, 9, 35, 0
1, 71040, Note_on_c, 9, 35, 109
1, 71519, Note_on_c, 9, 35, 0
1, 72000, Note_on_c, 9, 35, 111
1, 72479, Note_on_c, 9, 35, 0
1, 72960, Note_on_c, 9, 35, 108
1, 73439, Note_on_c, 9, 35, 0
1, 73920, Note_on_c, 9, 35, 108
1, 74159, Note_on_c, 9, 35, 0
1, 74160, Note_on_c, 9, 35, 88
1, 74399, Note_on_c, 9, 35, 0
1, 74880, Note_on_c, 9, 35, 109
1, 75119, Note_on_c, 9, 35, 0
1, 75120, Note_on_c, 9, 35, 90
1, 75359, Note_on_c, 9, 35, 0
1, 75840, Note_on_c, 9, 35, 110
1, 76319, Note_on_c, 9, 35, 0
1, 76800, Note_on_c, 9, 35, 110
1, 77279, Note_on_c, 9, 35, 0
1, 77760, Note_on_c, 9, 35, 110
1, 78239, Note_on_c, 9, 35, 0
1, 78480, Note_on_c, 9, 35, 89
1, 78719, Note_on_c, 9, 35, 0
1, 78720, Note_on_c, 9, 35, 108
1, 79199, Note_on_c, 9, 35, 0
1, 79680, Note_on_c, 9, 35, 110
1, 80159, Note_on_c, 9, 35, 0
1, 80640, Note_on_c, 9, 35, 108
1, 80879, Note_on_c, 9, 35, 0
1, 80880, Note_on_c, 9, 35, 89
1, 81119, Note_on_c, 9, 35, 0
1, 81600, Note_on_c, 9, 35, 109
1, 81839, Note_on_c, 9, 35, 0
1, 81840, Note_on_c, 9, 35, 90
1, 82079, Note_on_c, 9, 35, 0
1, 82560, Note_on_c, 9, 35, 111
1, 83039, Note_on_c, 9, 35, 0
1, 83280, Note_on_c, 9, 35, 88
1, 83519, Note_on_c, 9, 35, 0
1, 83520, Note_on_c, 9, 35, 111
1, 83999, Note_on_c, 9, 35, 0
1, 84480, Note_on_c, 9, 35, 110
1, 84959, Note_on_c, 9, 35, 0
1, 85200, Note_on_c, 9, 35, 91
1, 85439, Note_on_c, 9, 35, 0
1, 85440, Note_on_c, 9, 35, 111
1, 85919, Note_on_c, 9, 35, 0
1, 86400, Note_on_c, 9, 35, 110
1, 86639, Note_on_c, 9, 35, 0
1, 86640, Note_on_c, 9, 35, 90
1, 86879, Note_on_c, 9, 35, 0
1, 87360, Note_on_c, 9, 35, 111
1, 87839, Note_on_c, 9, 35, 0
1, 88320, Note_on_c, 9, 35, 110
1, 88799, Note_on_c, 9, 35, 0
1, 89280, Note_on_c, 9, 35, 108
1, 89759, Note_on_c, 9, 35, 0
1, 90000, Note_on_c, 9, 35, 90
1, 90239, Note_on_c, 9, 35, 0
1, 90240, Note_on_c, 9, 35, 109
1, 90719, Note_on_c, 9, 35, 0
1, 90960, Note_on_c, 9, 35, 88
1, 91199, Note_on_c, 9, 35, 0
1, 91200, Note_on_c, 9, 35, 109
1, 91679, Note_on_c, 9, 35, 0
1, 92160, Note_on_c, 9, 35, 109
1, 92639, Note_on_c, 9, 35, 0
1, 93120, Note_on_c, 9, 35, 110
1, 93599, Note_on_c, 9, 35, 0
1, 93840, Note_on_c, 9, 35, 90
1, 94079, Note_on_c, 9, 35, 0
1, 94080, Note_on_c, 9, 35, 110
1, 94559, Note_on_c, 9, 35, 0
1, 94800, Note_on_c, 9, 35, 91
1, 95039, Note_on_c, 9, 35, 0
1, 95040, Note_on_c, 9, 35, 108
1, 95519, Note_on_c, 9, 35, 0
1, 95760, Note_on_c, 9, 35, 88
1, 95999, Note_on_c, 9, 35, 0
1, 96000, Note_on_c, 9, 35, 109
1, 96239, Note_on_c, 9, 35, 0
1, 96240, Note_on_c, 9, 35, 89
1, 96479, Note_on_c, 9, 35, 0
1, 96960, Note_on_c, 9, 35, 109
1, 97439, Note_on_c, 9, 35, 0
1, 97680, Note_on_c, 9, 35, 88
1, 97919, Note_on_c, 9, 35, 0
1, 97920, Note_on_c, 9, 35, 110
1, 98399, Note_on_c, 9, 35, 0
1, 98880, Note_on_c, 9, 35, 108
1, 99359, Note_on_c, 9, 35, 0
1, 99600, Note_on_c, 9, 35, 90
1, 99839, Note_on_c, 9, 35, 0
1, 99840, Note_on_c, 9, 35, 109
1, 100319, Note_on_c, 9, 35, 0
1, 100800, Note_on_c, 9, 35, 109
1, 101279, Note_on_c, 9, 35, 0
1, 101520, Note_on_c, 9, 35, 88
1, 101759, Note_on_c, 9, 35, 0
1, 101760, Note_on_c, 9, 35, 108
1, 102239, Note_on_c, 9, 35, 0
1, 102720, Note_on_c, 9, 35, 108
1, 103199, Note_on_c, 9, 35, 0
1, 103680, Note_on_c, 9, 35, 110
1, 104159, Note_on_c, 9, 35, 0
1, 104640, Note_on_c, 9, 35, 91
1, 105119, Note_on_c, 9, 35, 0
1, 105600, Note_on_c, 9, 35, 108
1, 106079, Note_on_c, 9, 35, 0
1, 106320, Note_on_c, 9, 35, 88
1, 106559, Note_on_c, 9, 35, 0
1, 106560, Note_on_c, 9, 35, 111
1, 107039, Note_on_c, 9, 35, 0
1, 107520, Note_on_c, 9, 35, 110
1, 107999, Note_on_c, 9, 35, 0
1, 108480, Note_on_c, 9, 35, 108
1, 108719, Note_on_c, 9, 35, 0
1, 108720, Note_on_c, 9, 35, 90
1, 108959, Note_on_c, 9, 35, 0
1, 109440, Note_on_c, 9, 35, 110
1, 109919, Note_on_c, 9, 35, 0
1, 110400, Note_on_c, 9, 35, 109
1, 110879, Note_on_c, 9, 35, 0
1, 111600, Note_on_c, 9, 35, 90
1, 111839, Note_on_c, 9, 35, 0
1, 111840, Note_on_c, 9, 35, 90
1, 112319, Note_on_c, 9, 35, 0
1, 112320, Note_on_c, 9, 35, 88
1, 112559, Note_on_c, 9, 35, 0
1, 112560, Note_on_c, 9, 35, 91
1, 112799, Note_on_c, 9, 35, 0
1, 113280, Note_on_c, 9, 35, 108
1, 113519, Note_on_c, 9, 35, 0
1, 113520, Note_on_c, 9, 35, 91
1, 113759, Note_on_c, 9, 35, 0
1, 114240, Note_on_c, 9, 35, 111
1, 114719, Note_on_c, 9, 35, 0
1, 115200, Note_on_c, 9, 35, 109
1, 115679, Note_on_c, 9, 35, 0
1, 115920, Note_on_c, 9, 35, 88
1, 116159, Note_on_c, 9, 35, 0
1, 116160, Note_on_c, 9, 35, 108
1, 116639, Note_on_c, 9, 35, 0
1, 117120, Note_on_c, 9, 35, 110
1, 117599, Note_on_c, 9, 35, 0
1, 117840, Note_on_c, 9, 35, 88
1, 118079, Note_on_c, 9, 35, 0
1, 118080, Note_on_c, 9, 35, 110
1, 118559, Note_on_c, 9, 35, 0
1, 119040, Note_on_c, 9, 35, 111
1, 119519, Note_on_c, 9, 35, 0
1, 120000, Note_on_c, 9, 35, 110
1, 120479, Note_on_c, 9, 35, 0
1, 120720, Note_on_c, 9, 35, 89
1, 120959, Note_on_c, 9, 35, 0
1, 120960, Note_on_c, 9, 35, 108
1, 121439, Note_on_c, 9, 35, 0
1, 121920, Note_on_c, 9, 35, 111
1, 122399, Note_on_c, 9, 35, 0
1, 122880, Note_on_c, 9, 35, 111
1, 123359, Note_on_c, 9, 35, 0
1, 123840, Note_on_c, 9, 35, 111
1, 124319, Note_on_c, 9, 35, 0
1, 124800, Note_on_c, 9, 35, 108
1, 125279, Note_on_c, 9, 35, 0
1, 125520, Note_on_c, 9, 35, 91
1, 125759, Note_on_c, 9, 35, 0
1, 125760, Note_on_c, 9, 35, 109
1, 126239, Note_on_c, 9, 35, 0
1, 126720, Note_on_c, 9, 35, 110
1, 126959, Note_on_c, 9, 35, 0
1, 126960, Note_on_c, 9, 35, 90
1, 127199, Note_on_c, 9, 35, 0
1, 127680, Note_on_c, 9, 35, 109
1, 128159, Note_on_c, 9, 35, 0
1, 128640, Note_on_c, 9, 35, 110
1, 129119, Note_on_c, 9, 35, 0
1, 129600, Note_on_c, 9, 35, 108
1, 130079, Note_on_c, 9, 35, 0
1, 130560, Note_on_c, 9, 35, 109
1, 131039, Note_on_c, 9, 35, 0
1, 131520, Note_on_c, 9, 35, 109
1, 131999, Note_on_c, 9, 35, 0
1, 132480, Note_on_c, 9, 35, 108
1, 132959, Note_on_c, 9, 35, 0
1, 133440, Note_on_c, 9, 35, 111
1, 133919, Note_on_c, 9, 35, 0
1, 134400, Note_on_c, 9, 35, 108
1, 134879, Note_on_c, 9, 35, 0
1, 135600, Note_on_c, 9, 35, 108
1, 135839, Note_on_c, 9, 35, 0
1, 136080, Note_on_c, 9, 35, 91
1, 136319, Note_on_c, 9, 35, 0
1, 136320, Note_on_c, 9, 35, 109
1, 136799, Note_on_c, 9, 35, 0
1, 137280, Note_on_c, 9, 35, 110
1, 137759, Note_on_c, 9, 35, 0
1, 138240, Note_on_c, 9, 35, 111
1, 138479, Note_on_c, 9, 35, 0
1, 138480, Note_on_c, 9, 35, 89
1, 138719, Note_on_c, 9, 35, 0
1, 139200, Note_on_c, 9, 35, 111
1, 139679, Note_on_c, 9, 35, 0
1, 140160, Note_on_c, 9, 35, 109
1, 140639, Note_on_c, 9, 35, 0
1, 140880, Note_on_c, 9, 35, 91
1, 141119, Note_on_c, 9, 35, 0
1, 141120, Note_on_c, 9, 35, 109
1, 141599, Note_on_c, 9, 35, 0
1, 142320, Note_on_c, 9, 35, 90
1, 142559, Note_on_c, 9, 35, 0
1, 142560, Note_on_c, 9, 35, 88
1, 143039, Note_on_c, 9, 35, 0
1, 143040, Note_on_c, 9, 35, 90
1, 143279, Note_on_c, 9, 35, 0
1, 143280, Note_on_c, 9, 35, 89
1, 143519, Note_on_c, 9, 35, 0
1, 144000, Note_on_c, 9, 35, 108
1, 144479, Note_on_c, 9, 35, 0
1, 144960, Note_on_c, 9, 35, 109
1, 145439, Note_on_c, 9, 35, 0
1, 145920, Note_on_c, 9, 35, 109
1, 146159, Note_on_c, 9, 35, 0
1, 146160, Note_on_c, 9, 35, 88
1, 146399, Note_on_c, 9, 35, 0
1, 146880, Note_on_c, 9, 35, 108
1, 147359, Note_on_c, 9, 35, 0
1, 147840, Note_on_c, 9, 35, 110
1, 148319, Note_on_c, 9, 35, 0
1, 148800, Note_on_c, 9, 35, 108
1, 149279, Note_on_c, 9, 35, 0
1, 149760, Note_on_c, 9, 35, 108
1, 150239, Note_on_c, 9, 35, 0
1, 150720, Note_on_c, 9, 35, 109
1, 151199, Note_on_c, 9, 35, 0
1, 151680, Note_on_c, 9, 35, 110
1, 151919, Note_on_c, 9, 35, 0
1, 151920, Note_on_c, 9, 35, 90
1, 152159, Note_on_c, 9, 35, 0
1, 152640, Note_on_c, 9, 35, 111
1, 152879, Note_on_c, 9, 35, 0
1, 152880, Note_on_c, 9, 35, 89
1, 153119, Note_on_c, 9, 35, 0
1, 153600, Note_on_c, 9, 35, 109
1, 153839, Note_on_c, 9, 35, 0
1, 153840, Note_on_c, 9, 35, 89
1, 154079, Note_on_c, 9, 35, 0
1, 154560, Note_on_c, 9, 35, 111
1, 155039, Note_on_c, 9, 35, 0
1, 155280, Note_on_c, 9, 35, 90
1, 155519, Note_on_c, 9, 35, 0
1, 155520, Note_on_c, 9, 35, 108
1, 155759, Note_on_c, 9, 35, 0
1, 155760, Note_on_c, 9, 35, 91
1, 155999, Note_on_c, 9, 35, 0
1, 156480, Note_on_c, 9, 35, 110
1, 156959, Note_on_c, 9, 35, 0
1, 157680, Note_on_c, 9, 35, 88
1, 157919, Note_on_c, 9, 35, 0
1, 157920, Note_on_c, 9, 35, 91
1, 158399, Note_on_c, 9, 35, 0
1, 158400, Note_on_c, 9, 35, 90
1, 158639, Note_on_c, 9, 35, 0
1, 158640, Note_on_c, 9, 35, 91
1, 158879, Note_on_c, 9, 35, 0
1, 159360, Note_on_c, 9, 35, 109
1, 159839, Note_on_c, 9, 35, 0
1, 160080, Note_on_c, 9, 35, 88
1, 160319, Note_on_c, 9, 35, 0
1, 160320, Note_on_c, 9, 35, 109
1, 160799, Note_on_c, 9, 35, 0
1, 161040, Note_on_c, 9, 35, 90
1, 161279, Note_on_c, 9, 35, 0
1, 161280, Note_on_c, 9, 35, 111
1, 161759, Note_on_c, 9, 35, 0
1, 162240, Note_on_c, 9, 35, 109
1, 162479, Note_on_c, 9, 35, 0
1, 162480, Note_on_c, 9, 35, 91
1, 162719, Note_on_c, 9, 35, 0
1, 162960, Note_on_c, 9, 35, 90
1, 163199, Note_on_c, 9, 35, 0
1, 163200, Note_on_c, 9, 35, 110
1, 163679, Note_on_c, 9, 35, 0
1, 164160, Note_on_c, 9, 35, 108
1, 164639, Note_on_c, 9, 35, 0
1, 165120, Note_on_c, 9, 35, 109
1, 165599, Note_on_c, 9, 35, 0
1, 166080, Note_on_c, 9, 35, 109
1, 166559, Note_on_c, 9, 35, 0
1, 167040, Note_on_c, 9, 35, 109
1, 167519, Note_on_c, 9, 35, 0
1, 168000, Note_on_c, 9, 35, 110
1, 168479, Note_on_c, 9, 35, 0
1, 168960, Note_on_c, 9, 35, 111
1, 169439, Note_on_c, 9, 35, 0
1, 169920, Note_on_c, 9, 35, 108
1, 170399, Note_on_c, 9, 35, 0
1, 170640, Note_on_c, 9, 35, 89
1, 170879, Note_on_c, 9, 35, 0
1, 170880, Note_on_c, 9, 35, 109
1, 171359, Note_on_c, 9, 35, 0
1, 171840, Note_on_c, 9, 35, 110
1, 172079, Note_on_c, 9, 35, 0
1, 172080, Note_on_c, 9, 35, 88
1, 172319, Note_on_c, 9, 35, 0
1, 172800, Note_on_c, 9, 35, 110
1, 173279, Note_on_c, 9, 35, 0
1, 173760, Note_on_c, 9, 35, 111
1, 174239, Note_on_c, 9, 35, 0
1, 174720, Note_on_c, 9, 35, 109
1, 174959, Note_on_c, 9, 35, 0
1, 174960, Note_on_c, 9, 35, 90
1, 175199, Note_on_c, 9, 35, 0
1, 175680, Note_on_c, 9, 35, 108
1, 176159, Note_on_c, 9, 35, 0
1, 176400, Note_on_c, 9, 35, 91
1, 176639, Note_on_c, 9, 35, 0
1, 176640, Note_on_c, 9, 35, 108
1, 176879, Note_on_c, 9, 35, 0
1, 176880, Note_on_c, 9, 35, 88
1, 177119, Note_on_c, 9, 35, 0
1, 177600, Note_on_c, 9, 35, 109
1, 178079, Note_on_c, 9, 35, 0
1, 178560, Note_on_c, 9, 35, 109
1, 179039, Note_on_c, 9, 35, 0
1, 179280, Note_on_c, 9, 35, 88
1, 179519, Note_on_c, 9, 35, 0
1, 179520, Note_on_c, 9, 35, 110
1, 179999, Note_on_c, 9, 35, 0
1, 180480, Note_on_c, 9, 35, 110
1, 180959, Note_on_c, 9, 35, 0
1, 181440, Note_on_c, 9, 35, 109
1, 181919, Note_on_c, 9, 35, 0
1, 182400, Note_on_c, 9, 35, 110
1, 182879, Note_on_c, 9, 35, 0
1, 183120, Note_on_c, 9, 35, 90
1, 183359, Note_on_c, 9, 35, 0
1, 183360, Note_on_c, 9, 35, 110
1, 183839, Note_on_c, 9, 35, 0
1, 184080, Note_on_c, 9, 35, 89
1, 184319, Note_on_c, 9, 35, 0
1, 184320, Note_on_c, 9, 35, 109
1, 184799, Note_on_c, 9, 35, 0
1, 185280, Note_on_c, 9, 35, 110
1, 185759, Note_on_c, 9, 35, 0
1, 186240, Note_on_c, 9, 35, 110
1, 186719, Note_on_c, 9, 35, 0
1, 186960, Note_on_c, 9, 35, 88
1, 187199, Note_on_c, 9, 35, 0
1, 187200, Note_on_c, 9, 35, 110
1, 187679, Note_on_c, 9, 35, 0
1, 187920, Note_on_c, 9, 35, 91
1, 188159, Note_on_c, 9, 35, 0
1, 188400, Note_on_c, 9, 35, 88
1, 188639, Note_on_c, 9, 35, 0
1, 188640, Note_on_c, 9, 35, 88
1, 189119, Note_on_c, 9, 35, 0
1, 189120, Note_on_c, 9, 35, 89
1, 189359, Note_on_c, 9, 35, 0
1, 189360, Note_on_c, 9, 35, 88
1, 189599, Note_on_c, 9, 35, 0
1, 189840, Note_on_c, 9, 35, 89
1, 190079, Note_on_c, 9, 35, 0
1, 190080, Note_on_c, 9, 35, 110
1, 190559, Note_on_c, 9, 35, 0
1, 190800, Note_on_c, 9, 35, 88
1, 191039, Note_on_c, 9, 35, 0
1, 191040, Note_on_c, 9, 35, 108
1, 191279, Note_on_c, 9, 35, 0
1, 191280, Note_on_c, 9, 35, 91
1, 191519, Note_on_c, 9, 35, 0
1, 192000, Note_on_c, 9, 35, 108
1, 192479, Note_on_c, 9, 35, 0
1, 192960, Note_on_c, 9, 35, 109
1, 193439, Note_on_c, 9, 35, 0
1, 193920, Note_on_c, 9, 35, 110
1, 194399, Note_on_c, 9, 35, 0
1, 194880, Note_on_c, 9, 35, 111
1, 195359, Note_on_c, 9, 35, 0
1, 195600, Note_on_c, 9, 35, 88
1, 195839, Note_on_c, 9, 35, 0
1, 195840, Note_on_c, 9, 35, 109
1, 196079, Note_on_c, 9, 35, 0
1, 196080, Note_on_c, 9, 35, 88
1, 196319, Note_on_c, 9, 35, 0
1, 196800, Note_on_c, 9, 35, 110
1, 197279, Note_on_c, 9, 35, 0
1, 197520, Note_on_c, 9, 35, 89
1, 197759, Note_on_c, 9, 35, 0
1, 197760, Note_on_c, 9, 35, 110
1, 198239, Note_on_c, 9, 35, 0
1, 198720, Note_on_c, 9, 35, 108
1, 199199, Note_on_c, 9, 35, 0
1, 199680, Note_on_c, 9, 35, 108
1, 200159, Note_on_c, 9, 35, 0
1, 200640, Note_on_c, 9, 35, 108
1, 201119, Note_on_c, 9, 35, 0
1, 201600, Note_on_c, 9, 35, 108
1, 201839, Note_on_c, 9, 35, 0
1, 201840, Note_on_c, 9, 35, 88
1, 202079, Note_on_c, 9, 35, 0
1, 202320, Note_on_c, 9, 35, 90
1, 202559, Note_on_c, 9, 35, 0
1, 202560, Note_on_c, 9, 35, 111
1, 203039, Note_on_c, 9, 35, 0
1, 203520, Note_on_c, 9, 35, 89
1, 203999, Note_on_c, 9, 35, 0
1, 204720, Note_on_c, 9, 35, 90
1, 204959, Note_on_c, 9, 35, 0
1, 205440, Note_on_c, 9, 35, 110
1, 205919, Note_on_c, 9, 35, 0
1, 206400, Note_on_c, 9, 35, 110
1, 206639, Note_on_c, 9, 35, 0
1, 206640, Note_on_c, 9, 35, 89
1, 206879, Note_on_c, 9, 35, 0
1, 212400, Note_on_c, 9, 35, 99
1, 212639, Note_on_c, 9, 35, 0
1, 212640, End_track
0, 0, End_of_file
