0, 0, Header, 1, 1, 480
1, 0, Start_track
1, 0, Key_signature, 0, "major"
1, 0, Control_c, 9, 121, 0
1, 0, Program_c, 9, 0
1, 0, Control_c, 9, 7, 100
1, 0, Control_c, 9, 10, 64
1, 0, Control_c, 9, 91, 0
1, 0, Control_c, 9, 93, 0
1, 0, MIDI_port, 0
1, 77280, Note_on_c, 9, 35, 127
1, 77759, Note_on_c, 9, 35, 0
1, 78000, Note_on_c, 9, 35, 127
1, 78239, Note_on_c, 9, 35, 0
1, 78240, Note_on_c, 9, 35, 127
1, 78719, Note_on_c, 9, 35, 0
1, 79200, Note_on_c, 9, 35, 127
1, 79679, Note_on_c, 9, 35, 0
1, 79920, Note_on_c, 9, 35, 127
1, 80159, Note_on_c, 9, 35, 0
1, 80160, Note_on_c, 9, 35, 127
1, 80639, Note_on_c, 9, 35, 0
1, 81120, Note_on_c, 9, 35, 127
1, 81599, Note_on_c, 9, 35, 0
1, 81840, Note_on_c, 9, 35, 127
1, 82079, Note_on_c, 9, 35, 0
1, 82080, Note_on_c, 9, 35, 127
1, 82559, Note_on_c, 9, 35, 0
1, 83100, Note_on_c, 9, 35, 127
1, 83279, Note_on_c, 9, 35, 0
1, 83760, Note_on_c, 9, 35, 127
1, 83999, Note_on_c, 9, 35, 0
1, 84060, Note_on_c, 9, 35, 127
1, 84239, Note_on_c, 9, 35, 0
1, 84960, Note_on_c, 9, 35, 127
1, 85439, Note_on_c, 9, 35, 0
1, 85680, Note_on_c, 9, 35, 127
1, 85919, Note_on_c, 9, 35, 0
1, 85920, Note_on_c, 9, 35, 127
1, 86399, Note_on_c, 9, 35, 0
1, 86940, Note_on_c, 9, 35, 127
1, 87119, Note_on_c, 9, 35, 0
1, 87600, Note_on_c, 9, 35, 127
1, 87839, Note_on_c, 9, 35, 0
1, 87840, Note_on_c, 9, 35, 127
1, 88319, Note_on_c, 9, 35, 0
1, 88800, Note_on_c, 9, 35, 127
1, 89279, Note_on_c, 9, 35, 0
1, 89520, Note_on_c, 9, 35, 127
1, 89759, Note_on_c, 9, 35, 0
1, 89760, Note_on_c, 9, 35, 127
1, 90239, Note_on_c, 9, 35, 0
1, 90720, Note_on_c, 9, 35, 127
1, 91199, Note_on_c, 9, 35, 0
1, 91440, Note_on_c, 9, 35, 127
1, 91679, Note_on_c, 9, 35, 0
1, 91680, Note_on_c, 9, 35, 127
1, 92159, Note_on_c, 9, 35, 0
1, 92700, Note_on_c, 9, 35, 127
1, 92879, Note_on_c, 9, 35, 0
1, 93360, Note_on_c, 9, 35, 127
1, 93599, Note_on_c, 9, 35, 0
1, 93600, Note_on_c, 9, 35, 127
1, 94079, Note_on_c, 9, 35, 0
1, 94560, Note_on_c, 9, 35, 127
1, 95039, Note_on_c, 9, 35, 0
1, 95280, Note_on_c, 9, 35, 127
1, 95519, Note_on_c, 9, 35, 0
1, 95520, Note_on_c, 9, 35, 127
1, 95999, Note_on_c, 9, 35, 0
1, 96480, Note_on_c, 9, 35, 127
1, 96959, Note_on_c, 9, 35, 0
1, 97200, Note_on_c, 9, 35, 127
1, 97439, Note_on_c, 9, 35, 0
1, 97440, Note_on_c, 9, 35, 127
1, 97919, Note_on_c, 9, 35, 0
1, 98400, Note_on_c, 9, 35, 127
1, 98879, Note_on_c, 9, 35, 0
1, 99120, Note_on_c, 9, 35, 127
1, 99359, Note_on_c, 9, 35, 0
1, 99360, Note_on_c, 9, 35, 127
1, 99839, Note_on_c, 9, 35, 0
1, 100320, Note_on_c, 9, 35, 127
1, 100799, Note_on_c, 9, 35, 0
1, 101040, Note_on_c, 9, 35, 127
1, 101279, Note_on_c, 9, 35, 0
1, 101280, Note_on_c, 9, 35, 127
1, 101759, Note_on_c, 9, 35, 0
1, 102240, Note_on_c, 9, 35, 127
1, 102719, Note_on_c, 9, 35, 0
1, 102960, Note_on_c, 9, 35, 127
1, 103199, Note_on_c, 9, 35, 0
1, 103200, Note_on_c, 9, 35, 127
1, 103679, Note_on_c, 9, 35, 0
1, 104160, Note_on_c, 9, 35, 127
1, 104639, Note_on_c, 9, 35, 0
1, 104880, Note_on_c, 9, 35, 127
1, 105119, Note_on_c, 9, 35, 0
1, 105120, Note_on_c, 9, 35, 127
1, 105599, Note_on_c, 9, 35, 0
1, 106080, Note_on_c, 9, 35, 127
1, 106559, Note_on_c, 9, 35, 0
1, 106800, Note_on_c, 9, 35, 127
1, 107039, Note_on_c, 9, 35, 0
1, 107040, Note_on_c, 9, 35, 127
1, 107519, Note_on_c, 9, 35, 0
1, 108120, Note_on_c, 9, 35, 127
1, 108479, Note_on_c, 9, 35, 0
1, 108720, Note_on_c, 9, 35, 127
1, 108959, Note_on_c, 9, 35, 0
1, 108960, Note_on_c, 9, 35, 127
1, 109439, Note_on_c, 9, 35, 0
1, 109920, Note_on_c, 9, 35, 127
1, 110399, Note_on_c, 9, 35, 0
1, 110640, Note_on_c, 9, 35, 127
1, 110879, Note_on_c, 9, 35, 0
1, 110880, Note_on_c, 9, 35, 127
1, 111359, Note_on_c, 9, 35, 0
1, 111840, Note_on_c, 9, 35, 127
1, 112319, Note_on_c, 9, 35, 0
1, 112560, Note_on_c, 9, 35, 127
1, 112799, Note_on_c, 9, 35, 0
1, 112860, Note_on_c, 9, 35, 127
1, 113039, Note_on_c, 9, 35, 0
1, 113760, Note_on_c, 9, 35, 127
1, 114239, Note_on_c, 9, 35, 0
1, 114480, Note_on_c, 9, 35, 127
1, 114719, Note_on_c, 9, 35, 0
1, 114720, Note_on_c, 9, 35, 127
1, 115199, Note_on_c, 9, 35, 0
1, 115680, Note_on_c, 9, 35, 127
1, 116159, Note_on_c, 9, 35, 0
1, 116400, Note_on_c, 9, 35, 127
1, 116639, Note_on_c, 9, 35, 0
1, 116640, Note_on_c, 9, 35, 127
1, 117119, Note_on_c, 9, 35, 0
1, 117600, Note_on_c, 9, 35, 127
1, 118079, Note_on_c, 9, 35, 0
1, 118320, Note_on_c, 9, 35, 127
1, 118559, Note_on_c, 9, 35, 0
1, 118560, Note_on_c, 9, 35, 127
1, 119039, Note_on_c, 9, 35, 0
1, 119520, Note_on_c, 9, 35, 127
1, 119999, Note_on_c, 9, 35, 0
1, 120240, Note_on_c, 9, 35, 127
1, 120479, Note_on_c, 9, 35, 0
1, 120480, Note_on_c, 9, 35, 127
1, 120959, Note_on_c, 9, 35, 0
1, 121440, Note_on_c, 9, 35, 127
1, 121919, Note_on_c, 9, 35, 0
1, 122160, Note_on_c, 9, 35, 127
1, 122399, Note_on_c, 9, 35, 0
1, 122400, Note_on_c, 9, 35, 127
1, 122879, Note_on_c, 9, 35, 0
1, 123360, Note_on_c, 9, 35, 127
1, 123839, Note_on_c, 9, 35, 0
1, 124080, Note_on_c, 9, 35, 127
1, 124319, Note_on_c, 9, 35, 0
1, 124320, Note_on_c, 9, 35, 127
1, 124799, Note_on_c, 9, 35, 0
1, 125280, Note_on_c, 9, 35, 127
1, 125759, Note_on_c, 9, 35, 0
1, 126000, Note_on_c, 9, 35, 127
1, 126239, Note_on_c, 9, 35, 0
1, 126240, Note_on_c, 9, 35, 127
1, 126719, Note_on_c, 9, 35, 0
1, 127260, Note_on_c, 9, 35, 127
1, 127439, Note_on_c, 9, 35, 0
1, 127920, Note_on_c, 9, 35, 127
1, 128159, Note_on_c, 9, 35, 0
1, 128160, Note_on_c, 9, 35, 127
1, 128639, Note_on_c, 9, 35, 0
1, 129120, Note_on_c, 9, 35, 127
1, 129599, Note_on_c, 9, 35, 0
1, 129840, Note_on_c, 9, 35, 127
1, 130079, Note_on_c, 9, 35, 0
1, 130080, Note_on_c, 9, 35, 127
1, 130559, Note_on_c, 9, 35, 0
1, 131100, Note_on_c, 9, 35, 127
1, 131279, Note_on_c, 9, 35, 0
1, 131760, Note_on_c, 9, 35, 127
1, 131999, Note_on_c, 9, 35, 0
1, 132000, Note_on_c, 9, 35, 127
1, 132479, Note_on_c, 9, 35, 0
1, 132960, Note_on_c, 9, 35, 127
1, 133439, Note_on_c, 9, 35, 0
1, 133680, Note_on_c, 9, 35, 127
1, 133919, Note_on_c, 9, 35, 0
1, 133920, Note_on_c, 9, 35, 127
1, 134399, Note_on_c, 9, 35, 0
1, 134880, Note_on_c, 9, 35, 127
1, 135359, Note_on_c, 9, 35, 0
1, 135600, Note_on_c, 9, 35, 127
1, 135839, Note_on_c, 9, 35, 0
1, 135840, Note_on_c, 9, 35, 127
1, 136319, Note_on_c, 9, 35, 0
1, 136800, Note_on_c, 9, 35, 127
1, 137279, Note_on_c, 9, 35, 0
1, 137520, Note_on_c, 9, 35, 127
1, 137759, Note_on_c, 9, 35, 0
1, 137760, Note_on_c, 9, 35, 127
1, 138239, Note_on_c, 9, 35, 0
1, 138720, Note_on_c, 9, 35, 127
1, 139199, Note_on_c, 9, 35, 0
1, 139440, Note_on_c, 9, 35, 127
1, 139679, Note_on_c, 9, 35, 0
1, 139680, Note_on_c, 9, 35, 127
1, 140159, Note_on_c, 9, 35, 0
1, 140640, Note_on_c, 9, 35, 127
1, 141119, Note_on_c, 9, 35, 0
1, 141360, Note_on_c, 9, 35, 127
1, 141599, Note_on_c, 9, 35, 0
1, 141600, Note_on_c, 9, 35, 127
1, 142079, Note_on_c, 9, 35, 0
1, 142560, Note_on_c, 9, 35, 127
1, 143039, Note_on_c, 9, 35, 0
1, 143280, Note_on_c, 9, 35, 127
1, 143519, Note_on_c, 9, 35, 0
1, 143520, Note_on_c, 9, 35, 127
1, 143999, Note_on_c, 9, 35, 0
1, 144480, Note_on_c, 9, 35, 127
1, 144959, Note_on_c, 9, 35, 0
1, 145200, Note_on_c, 9, 35, 127
1, 145439, Note_on_c, 9, 35, 0
1, 145500, Note_on_c, 9, 35, 127
1, 145679, Note_on_c, 9, 35, 0
1, 146400, Note_on_c, 9, 35, 127
1, 146879, Note_on_c, 9, 35, 0
1, 147120, Note_on_c, 9, 35, 127
1, 147359, Note_on_c, 9, 35, 0
1, 147360, Note_on_c, 9, 35, 127
1, 147839, Note_on_c, 9, 35, 0
1, 148320, Note_on_c, 9, 35, 127
1, 148799, Note_on_c, 9, 35, 0
1, 149040, Note_on_c, 9, 35, 127
1, 149279, Note_on_c, 9, 35, 0
1, 149280, Note_on_c, 9, 35, 127
1, 149759, Note_on_c, 9, 35, 0
1, 150240, Note_on_c, 9, 35, 127
1, 150719, Note_on_c, 9, 35, 0
1, 150960, Note_on_c, 9, 35, 127
1, 151199, Note_on_c, 9, 35, 0
1, 151200, Note_on_c, 9, 35, 127
1, 151679, Note_on_c, 9, 35, 0
1, 152160, Note_on_c, 9, 35, 127
1, 152639, Note_on_c, 9, 35, 0
1, 152880, Note_on_c, 9, 35, 127
1, 153119, Note_on_c, 9, 35, 0
1, 153120, Note_on_c, 9, 35, 127
1, 153599, Note_on_c, 9, 35, 0
1, 154080, Note_on_c, 9, 35, 127
1, 154559, Note_on_c, 9, 35, 0
1, 154800, Note_on_c, 9, 35, 127
1, 155039, Note_on_c, 9, 35, 0
1, 155040, Note_on_c, 9, 35, 127
1, 155519, Note_on_c, 9, 35, 0
1, 156000, Note_on_c, 9, 35, 127
1, 156479, Note_on_c, 9, 35, 0
1, 156720, Note_on_c, 9, 35, 127
1, 156959, Note_on_c, 9, 35, 0
1, 156960, Note_on_c, 9, 35, 127
1, 157439, Note_on_c, 9, 35, 0
1, 157920, Note_on_c, 9, 35, 127
1, 158399, Note_on_c, 9, 35, 0
1, 158640, Note_on_c, 9, 35, 127
1, 158879, Note_on_c, 9, 35, 0
1, 158880, Note_on_c, 9, 35, 127
1, 159359, Note_on_c, 9, 35, 0
1, 159900, Note_on_c, 9, 35, 127
1, 160079, Note_on_c, 9, 35, 0
1, 160560, Note_on_c, 9, 35, 127
1, 160799, Note_on_c, 9, 35, 0
1, 160800, Note_on_c, 9, 35, 127
1, 161279, Note_on_c, 9, 35, 0
1, 161760, Note_on_c, 9, 35, 127
1, 162239, Note_on_c, 9, 35, 0
1, 162480, Note_on_c, 9, 35, 127
1, 162719, Note_on_c, 9, 35, 0
1, 162720, Note_on_c, 9, 35, 127
1, 163199, Note_on_c, 9, 35, 0
1, 163740, Note_on_c, 9, 35, 127
1, 163919, Note_on_c, 9, 35, 0
1, 164400, Note_on_c, 9, 35, 127
1, 164639, Note_on_c, 9, 35, 0
1, 164640, Note_on_c, 9, 35, 127
1, 165119, Note_on_c, 9, 35, 0
1, 165600, Note_on_c, 9, 35, 127
1, 166079, Note_on_c, 9, 35, 0
1, 166320, Note_on_c, 9, 35, 127
1, 166559, Note_on_c, 9, 35, 0
1, 166560, Note_on_c, 9, 35, 127
1, 167039, Note_on_c, 9, 35, 0
1, 167520, Note_on_c, 9, 35, 127
1, 167999, Note_on_c, 9, 35, 0
1, 168240, Note_on_c, 9, 35, 127
1, 168479, Note_on_c, 9, 35, 0
1, 168480, Note_on_c, 9, 35, 127
1, 168959, Note_on_c, 9, 35, 0
1, 168960, End_track
0, 0, End_of_file
