0, 0, Header, 1, 1, 480
1, 0, Start_track
1, 0, Time_signature, 4, 2, 24, 8
1, 0, Key_signature, 0, "major"
1, 0, Tempo, 666667
1, 0, Control_c, 9, 121, 0
1, 0, Program_c, 9, 0
1, 0, Control_c, 9, 7, 100
1, 0, Control_c, 9, 10, 64
1, 0, Control_c, 9, 91, 0
1, 0, Control_c, 9, 93, 0
1, 0, MIDI_port, 0
1, 3840, Note_on_c, 9, 36, 39
1, 4319, Note_on_c, 9, 36, 0
1, 4320, Note_on_c, 9, 36, 46
1, 4799, Note_on_c, 9, 36, 0
1, 4800, Note_on_c, 9, 36, 40
1, 5279, Note_on_c, 9, 36, 0
1, 5280, Note_on_c, 9, 36, 44
1, 5759, Note_on_c, 9, 36, 0
1, 5760, Note_on_c, 9, 36, 39
1, 6239, Note_on_c, 9, 36, 0
1, 6240, Note_on_c, 9, 36, 46
1, 6719, Note_on_c, 9, 36, 0
1, 6720, Note_on_c, 9, 36, 40
1, 7199, Note_on_c, 9, 36, 0
1, 7200, Note_on_c, 9, 36, 44
1, 7679, Note_on_c, 9, 36, 0
1, 7680, Note_on_c, 9, 36, 39
1, 8159, Note_on_c, 9, 36, 0
1, 8160, Note_on_c, 9, 36, 46
1, 8639, Note_on_c, 9, 36, 0
1, 8640, Note_on_c, 9, 36, 40
1, 9119, Note_on_c, 9, 36, 0
1, 9120, Note_on_c, 9, 36, 44
1, 9599, Note_on_c, 9, 36, 0
1, 9600, Note_on_c, 9, 36, 39
1, 10079, Note_on_c, 9, 36, 0
1, 10080, Note_on_c, 9, 36, 46
1, 10559, Note_on_c, 9, 36, 0
1, 10560, Note_on_c, 9, 36, 40
1, 11039, Note_on_c, 9, 36, 0
1, 11040, Note_on_c, 9, 36, 44
1, 11519, Note_on_c, 9, 36, 0
1, 11520, Note_on_c, 9, 36, 39
1, 11999, Note_on_c, 9, 36, 0
1, 12000, Note_on_c, 9, 36, 46
1, 12479, Note_on_c, 9, 36, 0
1, 12480, Note_on_c, 9, 36, 40
1, 12959, Note_on_c, 9, 36, 0
1, 12960, Note_on_c, 9, 36, 44
1, 13439, Note_on_c, 9, 36, 0
1, 13440, Note_on_c, 9, 36, 39
1, 13919, Note_on_c, 9, 36, 0
1, 13920, Note_on_c, 9, 36, 46
1, 14399, Note_on_c, 9, 36, 0
1, 14400, Note_on_c, 9, 36, 40
1, 14879, Note_on_c, 9, 36, 0
1, 14880, Note_on_c, 9, 36, 44
1, 15359, Note_on_c, 9, 36, 0
1, 15360, Note_on_c, 9, 36, 39
1, 15839, Note_on_c, 9, 36, 0
1, 15840, Note_on_c, 9, 36, 46
1, 16319, Note_on_c, 9, 36, 0
1, 16320, Note_on_c, 9, 36, 40
1, 16799, Note_on_c, 9, 36, 0
1, 16800, Note_on_c, 9, 36, 44
1, 17279, Note_on_c, 9, 36, 0
1, 17280, Note_on_c, 9, 36, 39
1, 17759, Note_on_c, 9, 36, 0
1, 17760, Note_on_c, 9, 36, 46
1, 18239, Note_on_c, 9, 36, 0
1, 18240, Note_on_c, 9, 36, 40
1, 18719, Note_on_c, 9, 36, 0
1, 18720, Note_on_c, 9, 36, 44
1, 19199, Note_on_c, 9, 36, 0
1, 19200, Note_on_c, 9, 36, 39
1, 19679, Note_on_c, 9, 36, 0
1, 19680, Note_on_c, 9, 36, 46
1, 20159, Note_on_c, 9, 36, 0
1, 20160, Note_on_c, 9, 36, 40
1, 20639, Note_on_c, 9, 36, 0
1, 20640, Note_on_c, 9, 36, 44
1, 21119, Note_on_c, 9, 36, 0
1, 21120, Note_on_c, 9, 36, 39
1, 21599, Note_on_c, 9, 36, 0
1, 21600, Note_on_c, 9, 36, 46
1, 22079, Note_on_c, 9, 36, 0
1, 22080, Note_on_c, 9, 36, 40
1, 22559, Note_on_c, 9, 36, 0
1, 22560, Note_on_c, 9, 36, 44
1, 23039, Note_on_c, 9, 36, 0
1, 26880, Note_on_c, 9, 36, 58
1, 27359, Note_on_c, 9, 36, 0
1, 27360, Note_on_c, 9, 36, 40
1, 27839, Note_on_c, 9, 36, 0
1, 27840, Note_on_c, 9, 36, 62
1, 28319, Note_on_c, 9, 36, 0
1, 28320, Note_on_c, 9, 36, 44
1, 28799, Note_on_c, 9, 36, 0
1, 28800, Note_on_c, 9, 36, 58
1, 29279, Note_on_c, 9, 36, 0
1, 29280, Note_on_c, 9, 36, 40
1, 29759, Note_on_c, 9, 36, 0
1, 29760, Note_on_c, 9, 36, 58
1, 30239, Note_on_c, 9, 36, 0
1, 30240, Note_on_c, 9, 36, 43
1, 30719, Note_on_c, 9, 36, 0
1, 30720, Note_on_c, 9, 36, 62
1, 31199, Note_on_c, 9, 36, 0
1, 31200, Note_on_c, 9, 36, 43
1, 31679, Note_on_c, 9, 36, 0
1, 31680, Note_on_c, 9, 36, 58
1, 32159, Note_on_c, 9, 36, 0
1, 32160, Note_on_c, 9, 36, 43
1, 32639, Note_on_c, 9, 36, 0
1, 32640, Note_on_c, 9, 36, 61
1, 33119, Note_on_c, 9, 36, 0
1, 33120, Note_on_c, 9, 36, 42
1, 33599, Note_on_c, 9, 36, 0
1, 33600, Note_on_c, 9, 36, 65
1, 34079, Note_on_c, 9, 36, 0
1, 34080, Note_on_c, 9, 36, 42
1, 34559, Note_on_c, 9, 36, 0
1, 34560, Note_on_c, 9, 36, 62
1, 35039, Note_on_c, 9, 36, 0
1, 35040, Note_on_c, 9, 36, 42
1, 35519, Note_on_c, 9, 36, 0
1, 35520, Note_on_c, 9, 36, 60
1, 35999, Note_on_c, 9, 36, 0
1, 36000, Note_on_c, 9, 36, 43
1, 36479, Note_on_c, 9, 36, 0
1, 36480, Note_on_c, 9, 36, 56
1, 36959, Note_on_c, 9, 36, 0
1, 36960, Note_on_c, 9, 36, 44
1, 37439, Note_on_c, 9, 36, 0
1, 37440, Note_on_c, 9, 36, 62
1, 37919, Note_on_c, 9, 36, 0
1, 37920, Note_on_c, 9, 36, 46
1, 38399, Note_on_c, 9, 36, 0
1, 38400, Note_on_c, 9, 36, 58
1, 38639, Note_on_c, 9, 36, 0
1, 38640, Note_on_c, 9, 36, 56
1, 38879, Note_on_c, 9, 36, 0
1, 39120, Note_on_c, 9, 36, 55
1, 39359, Note_on_c, 9, 36, 0
1, 39600, Note_on_c, 9, 36, 65
1, 39839, Note_on_c, 9, 36, 0
1, 40560, Note_on_c, 9, 36, 63
1, 40799, Note_on_c, 9, 36, 0
1, 41040, Note_on_c, 9, 36, 77
1, 41279, Note_on_c, 9, 36, 0
1, 41520, Note_on_c, 9, 36, 63
1, 41759, Note_on_c, 9, 36, 0
1, 42000, Note_on_c, 9, 36, 58
1, 42119, Note_on_c, 9, 36, 0
1, 42120, Note_on_c, 9, 36, 73
1, 42239, Note_on_c, 9, 36, 0
1, 42240, Note_on_c, 9, 36, 72
1, 42719, Note_on_c, 9, 36, 0
1, 43200, Note_on_c, 9, 36, 72
1, 43679, Note_on_c, 9, 36, 0
1, 44160, Note_on_c, 9, 36, 78
1, 44639, Note_on_c, 9, 36, 0
1, 44880, Note_on_c, 9, 36, 86
1, 45119, Note_on_c, 9, 36, 0
1, 45120, Note_on_c, 9, 36, 76
1, 45599, Note_on_c, 9, 36, 0
1, 46080, Note_on_c, 9, 36, 78
1, 46559, Note_on_c, 9, 36, 0
1, 47040, Note_on_c, 9, 36, 76
1, 47519, Note_on_c, 9, 36, 0
1, 48000, Note_on_c, 9, 36, 76
1, 48479, Note_on_c, 9, 36, 0
1, 48720, Note_on_c, 9, 36, 81
1, 48959, Note_on_c, 9, 36, 0
1, 48960, Note_on_c, 9, 36, 63
1, 49439, Note_on_c, 9, 36, 0
1, 49440, Note_on_c, 9, 36, 76
1, 49919, Note_on_c, 9, 36, 0
1, 49920, Note_on_c, 9, 36, 76
1, 50399, Note_on_c, 9, 36, 0
1, 50640, Note_on_c, 9, 36, 72
1, 50879, Note_on_c, 9, 36, 0
1, 51840, Tempo, 681818
1, 51840, Note_on_c, 9, 36, 76
1, 52319, Note_on_c, 9, 36, 0
1, 52560, Note_on_c, 9, 36, 72
1, 52799, Note_on_c, 9, 36, 0
1, 53740, Tempo, 705882
1, 53760, Note_on_c, 9, 36, 64
1, 54239, Note_on_c, 9, 36, 0
1, 54256, Tempo, 722892
1, 54736, Tempo, 750000
1, 55680, Tempo, 759494
1, 56848, Tempo, 731707
1, 57252, Tempo, 705882
1, 57540, Tempo, 666667
1, 57600, Note_on_c, 9, 36, 39
1, 58079, Note_on_c, 9, 36, 0
1, 58080, Note_on_c, 9, 36, 46
1, 58559, Note_on_c, 9, 36, 0
1, 58560, Note_on_c, 9, 36, 40
1, 59039, Note_on_c, 9, 36, 0
1, 59040, Note_on_c, 9, 36, 44
1, 59519, Note_on_c, 9, 36, 0
1, 59520, Note_on_c, 9, 36, 39
1, 59999, Note_on_c, 9, 36, 0
1, 60000, Note_on_c, 9, 36, 46
1, 60479, Note_on_c, 9, 36, 0
1, 60480, Note_on_c, 9, 36, 40
1, 60959, Note_on_c, 9, 36, 0
1, 60960, Note_on_c, 9, 36, 44
1, 61439, Note_on_c, 9, 36, 0
1, 61440, Note_on_c, 9, 36, 39
1, 61919, Note_on_c, 9, 36, 0
1, 61920, Note_on_c, 9, 36, 46
1, 62399, Note_on_c, 9, 36, 0
1, 62400, Note_on_c, 9, 36, 40
1, 62879, Note_on_c, 9, 36, 0
1, 62880, Note_on_c, 9, 36, 44
1, 63359, Note_on_c, 9, 36, 0
1, 63360, Note_on_c, 9, 36, 39
1, 63839, Note_on_c, 9, 36, 0
1, 63840, Note_on_c, 9, 36, 46
1, 64319, Note_on_c, 9, 36, 0
1, 64320, Note_on_c, 9, 36, 40
1, 64799, Note_on_c, 9, 36, 0
1, 64800, Note_on_c, 9, 36, 44
1, 65279, Note_on_c, 9, 36, 0
1, 65280, Note_on_c, 9, 36, 39
1, 65759, Note_on_c, 9, 36, 0
1, 65760, Note_on_c, 9, 36, 46
1, 66239, Note_on_c, 9, 36, 0
1, 66240, Note_on_c, 9, 36, 40
1, 66719, Note_on_c, 9, 36, 0
1, 66720, Note_on_c, 9, 36, 44
1, 67199, Note_on_c, 9, 36, 0
1, 67200, Note_on_c, 9, 36, 39
1, 67679, Note_on_c, 9, 36, 0
1, 67680, Note_on_c, 9, 36, 46
1, 68159, Note_on_c, 9, 36, 0
1, 68160, Note_on_c, 9, 36, 40
1, 68639, Note_on_c, 9, 36, 0
1, 68640, Note_on_c, 9, 36, 44
1, 69119, Note_on_c, 9, 36, 0
1, 69120, Note_on_c, 9, 36, 39
1, 69599, Note_on_c, 9, 36, 0
1, 69600, Note_on_c, 9, 36, 46
1, 70079, Note_on_c, 9, 36, 0
1, 70080, Note_on_c, 9, 36, 40
1, 70559, Note_on_c, 9, 36, 0
1, 70560, Note_on_c, 9, 36, 44
1, 71039, Note_on_c, 9, 36, 0
1, 71040, Note_on_c, 9, 36, 39
1, 71519, Note_on_c, 9, 36, 0
1, 71520, Note_on_c, 9, 36, 46
1, 71999, Note_on_c, 9, 36, 0
1, 72000, Note_on_c, 9, 36, 40
1, 72479, Note_on_c, 9, 36, 0
1, 72480, Note_on_c, 9, 36, 44
1, 72959, Note_on_c, 9, 36, 0
1, 72960, Note_on_c, 9, 36, 39
1, 73439, Note_on_c, 9, 36, 0
1, 73440, Note_on_c, 9, 36, 46
1, 73919, Note_on_c, 9, 36, 0
1, 73920, Note_on_c, 9, 36, 40
1, 74399, Note_on_c, 9, 36, 0
1, 74400, Note_on_c, 9, 36, 44
1, 74879, Note_on_c, 9, 36, 0
1, 74880, Note_on_c, 9, 36, 39
1, 75359, Note_on_c, 9, 36, 0
1, 75360, Note_on_c, 9, 36, 46
1, 75839, Note_on_c, 9, 36, 0
1, 75840, Note_on_c, 9, 36, 40
1, 76319, Note_on_c, 9, 36, 0
1, 76320, Note_on_c, 9, 36, 44
1, 76799, Note_on_c, 9, 36, 0
1, 80640, Note_on_c, 9, 36, 58
1, 81119, Note_on_c, 9, 36, 0
1, 81120, Note_on_c, 9, 36, 40
1, 81599, Note_on_c, 9, 36, 0
1, 81600, Note_on_c, 9, 36, 62
1, 82079, Note_on_c, 9, 36, 0
1, 82080, Note_on_c, 9, 36, 44
1, 82559, Note_on_c, 9, 36, 0
1, 82560, Note_on_c, 9, 36, 58
1, 83039, Note_on_c, 9, 36, 0
1, 83040, Note_on_c, 9, 36, 40
1, 83519, Note_on_c, 9, 36, 0
1, 83520, Note_on_c, 9, 36, 58
1, 83999, Note_on_c, 9, 36, 0
1, 84000, Note_on_c, 9, 36, 43
1, 84479, Note_on_c, 9, 36, 0
1, 84480, Note_on_c, 9, 36, 62
1, 84959, Note_on_c, 9, 36, 0
1, 84960, Note_on_c, 9, 36, 43
1, 85439, Note_on_c, 9, 36, 0
1, 85440, Note_on_c, 9, 36, 58
1, 85919, Note_on_c, 9, 36, 0
1, 85920, Note_on_c, 9, 36, 43
1, 86399, Note_on_c, 9, 36, 0
1, 86400, Note_on_c, 9, 36, 61
1, 86879, Note_on_c, 9, 36, 0
1, 86880, Note_on_c, 9, 36, 42
1, 87359, Note_on_c, 9, 36, 0
1, 87360, Note_on_c, 9, 36, 65
1, 87839, Note_on_c, 9, 36, 0
1, 87840, Note_on_c, 9, 36, 42
1, 88319, Note_on_c, 9, 36, 0
1, 88320, Note_on_c, 9, 36, 62
1, 88799, Note_on_c, 9, 36, 0
1, 88800, Note_on_c, 9, 36, 42
1, 89279, Note_on_c, 9, 36, 0
1, 89280, Note_on_c, 9, 36, 60
1, 89759, Note_on_c, 9, 36, 0
1, 89760, Note_on_c, 9, 36, 43
1, 90239, Note_on_c, 9, 36, 0
1, 90240, Note_on_c, 9, 36, 56
1, 90719, Note_on_c, 9, 36, 0
1, 90720, Note_on_c, 9, 36, 44
1, 91199, Note_on_c, 9, 36, 0
1, 91200, Note_on_c, 9, 36, 62
1, 91679, Note_on_c, 9, 36, 0
1, 91680, Note_on_c, 9, 36, 46
1, 92159, Note_on_c, 9, 36, 0
1, 92160, Note_on_c, 9, 36, 58
1, 92399, Note_on_c, 9, 36, 0
1, 92400, Note_on_c, 9, 36, 56
1, 92639, Note_on_c, 9, 36, 0
1, 92880, Note_on_c, 9, 36, 55
1, 93119, Note_on_c, 9, 36, 0
1, 93360, Note_on_c, 9, 36, 65
1, 93599, Note_on_c, 9, 36, 0
1, 94320, Note_on_c, 9, 36, 63
1, 94559, Note_on_c, 9, 36, 0
1, 94800, Note_on_c, 9, 36, 77
1, 95039, Note_on_c, 9, 36, 0
1, 95280, Note_on_c, 9, 36, 63
1, 95519, Note_on_c, 9, 36, 0
1, 95760, Note_on_c, 9, 36, 58
1, 95879, Note_on_c, 9, 36, 0
1, 95880, Note_on_c, 9, 36, 73
1, 95999, Note_on_c, 9, 36, 0
1, 96000, Note_on_c, 9, 36, 72
1, 96479, Note_on_c, 9, 36, 0
1, 96960, Note_on_c, 9, 36, 72
1, 97439, Note_on_c, 9, 36, 0
1, 97920, Note_on_c, 9, 36, 78
1, 98399, Note_on_c, 9, 36, 0
1, 98640, Note_on_c, 9, 36, 86
1, 98879, Note_on_c, 9, 36, 0
1, 98880, Note_on_c, 9, 36, 76
1, 99359, Note_on_c, 9, 36, 0
1, 99840, Note_on_c, 9, 36, 78
1, 100319, Note_on_c, 9, 36, 0
1, 100800, Note_on_c, 9, 36, 76
1, 101279, Note_on_c, 9, 36, 0
1, 101760, Note_on_c, 9, 36, 76
1, 102239, Note_on_c, 9, 36, 0
1, 102480, Note_on_c, 9, 36, 81
1, 102719, Note_on_c, 9, 36, 0
1, 102720, Note_on_c, 9, 36, 63
1, 103199, Note_on_c, 9, 36, 0
1, 103200, Note_on_c, 9, 36, 76
1, 103679, Note_on_c, 9, 36, 0
1, 103680, Note_on_c, 9, 36, 76
1, 104159, Note_on_c, 9, 36, 0
1, 104400, Note_on_c, 9, 36, 72
1, 104639, Note_on_c, 9, 36, 0
1, 105600, Tempo, 681818
1, 105600, Note_on_c, 9, 36, 76
1, 106079, Note_on_c, 9, 36, 0
1, 106320, Note_on_c, 9, 36, 72
1, 106559, Note_on_c, 9, 36, 0
1, 107500, Tempo, 705882
1, 107520, Note_on_c, 9, 36, 64
1, 107999, Note_on_c, 9, 36, 0
1, 108016, Tempo, 722892
1, 108496, Tempo, 750000
1, 109440, Tempo, 937500
1, 109976, Tempo, 666667
1, 110400, Note_on_c, 9, 36, 78
1, 110639, Note_on_c, 9, 36, 0
1, 110640, Note_on_c, 9, 36, 65
1, 110879, Note_on_c, 9, 36, 0
1, 110880, Note_on_c, 9, 36, 53
1, 110999, Note_on_c, 9, 36, 0
1, 111000, Note_on_c, 9, 36, 99
1, 111359, Note_on_c, 9, 36, 0
1, 111360, Note_on_c, 9, 36, 72
1, 111839, Note_on_c, 9, 36, 0
1, 112320, Note_on_c, 9, 36, 72
1, 112799, Note_on_c, 9, 36, 0
1, 113280, Note_on_c, 9, 36, 78
1, 113759, Note_on_c, 9, 36, 0
1, 114000, Note_on_c, 9, 36, 86
1, 114239, Note_on_c, 9, 36, 0
1, 114240, Note_on_c, 9, 36, 76
1, 114719, Note_on_c, 9, 36, 0
1, 115200, Note_on_c, 9, 36, 78
1, 115679, Note_on_c, 9, 36, 0
1, 116160, Note_on_c, 9, 36, 76
1, 116639, Note_on_c, 9, 36, 0
1, 117120, Note_on_c, 9, 36, 76
1, 117599, Note_on_c, 9, 36, 0
1, 117840, Note_on_c, 9, 36, 81
1, 118079, Note_on_c, 9, 36, 0
1, 118080, Note_on_c, 9, 36, 63
1, 118559, Note_on_c, 9, 36, 0
1, 118560, Note_on_c, 9, 36, 76
1, 119039, Note_on_c, 9, 36, 0
1, 119040, Note_on_c, 9, 36, 76
1, 119519, Note_on_c, 9, 36, 0
1, 119760, Note_on_c, 9, 36, 72
1, 119999, Note_on_c, 9, 36, 0
1, 120960, Tempo, 681818
1, 120960, Note_on_c, 9, 36, 76
1, 121439, Note_on_c, 9, 36, 0
1, 121680, Note_on_c, 9, 36, 72
1, 121919, Note_on_c, 9, 36, 0
1, 122860, Tempo, 705882
1, 122880, Note_on_c, 9, 36, 64
1, 123359, Note_on_c, 9, 36, 0
1, 123376, Tempo, 722892
1, 123856, Tempo, 750000
1, 123857, End_track
0, 0, End_of_file
