0, 0, Header, 1, 15, 480
1, 0, Start_track
1, 0, Time_signature, 4, 2, 24, 8
1, 0, Key_signature, 0, "major"
1, 0, Tempo, 500000
1, 0, Control_c, 9, 121, 0
1, 0, Program_c, 9, 0
1, 0, Control_c, 9, 7, 100
1, 0, Control_c, 9, 10, 64
1, 0, Control_c, 9, 91, 0
1, 0, Control_c, 9, 93, 0
1, 0, MIDI_port, 0
1, 8, Tempo, 909091
1, 36480, Time_signature, 2, 2, 24, 8
1, 36488, Tempo, 1132075
1, 37440, Time_signature, 4, 2, 24, 8
1, 37448, Tempo, 895522
1, 38880, Note_on_c, 9, 36, 75
1, 39359, Note_on_c, 9, 36, 0
1, 39360, Note_on_c, 9, 36, 59
1, 39839, Note_on_c, 9, 36, 0
1, 40080, Note_on_c, 9, 36, 52
1, 40319, Note_on_c, 9, 36, 0
1, 40320, Note_on_c, 9, 36, 56
1, 40799, Note_on_c, 9, 36, 0
1, 41040, Note_on_c, 9, 36, 63
1, 41279, Note_on_c, 9, 36, 0
1, 41280, Note_on_c, 9, 36, 59
1, 41759, Note_on_c, 9, 36, 0
1, 42000, Note_on_c, 9, 36, 61
1, 42239, Note_on_c, 9, 36, 0
1, 42240, Note_on_c, 9, 36, 67
1, 42719, Note_on_c, 9, 36, 0
1, 42960, Note_on_c, 9, 36, 58
1, 43199, Note_on_c, 9, 36, 0
1, 43200, Note_on_c, 9, 36, 56
1, 43679, Note_on_c, 9, 36, 0
1, 43920, Note_on_c, 9, 36, 52
1, 44159, Note_on_c, 9, 36, 0
1, 44160, Note_on_c, 9, 36, 65
1, 44639, Note_on_c, 9, 36, 0
1, 44880, Note_on_c, 9, 36, 55
1, 45119, Note_on_c, 9, 36, 0
1, 45120, Note_on_c, 9, 36, 56
1, 45599, Note_on_c, 9, 36, 0
1, 45840, Note_on_c, 9, 36, 61
1, 46079, Note_on_c, 9, 36, 0
1, 46080, Note_on_c, 9, 36, 58
1, 46559, Note_on_c, 9, 36, 0
1, 46800, Note_on_c, 9, 36, 63
1, 47039, Note_on_c, 9, 36, 0
1, 47040, Note_on_c, 9, 36, 52
1, 47519, Note_on_c, 9, 36, 0
1, 47760, Note_on_c, 9, 36, 50
1, 47999, Note_on_c, 9, 36, 0
1, 48000, Note_on_c, 9, 36, 61
1, 48479, Note_on_c, 9, 36, 0
1, 48720, Note_on_c, 9, 36, 56
1, 48959, Note_on_c, 9, 36, 0
1, 48960, Note_on_c, 9, 36, 68
1, 49439, Note_on_c, 9, 36, 0
1, 49680, Note_on_c, 9, 36, 55
1, 49919, Note_on_c, 9, 36, 0
1, 49920, Note_on_c, 9, 36, 64
1, 50399, Note_on_c, 9, 36, 0
1, 50640, Note_on_c, 9, 36, 40
1, 50879, Note_on_c, 9, 36, 0
1, 50880, Note_on_c, 9, 36, 60
1, 51359, Note_on_c, 9, 36, 0
1, 51600, Note_on_c, 9, 36, 43
1, 51839, Note_on_c, 9, 36, 0
1, 51840, Note_on_c, 9, 36, 63
1, 52319, Note_on_c, 9, 36, 0
1, 52560, Note_on_c, 9, 36, 57
1, 52799, Note_on_c, 9, 36, 0
1, 52800, Note_on_c, 9, 36, 59
1, 53279, Note_on_c, 9, 36, 0
1, 53520, Note_on_c, 9, 36, 51
1, 53759, Note_on_c, 9, 36, 0
1, 53760, Note_on_c, 9, 36, 68
1, 54239, Note_on_c, 9, 36, 0
1, 54480, Note_on_c, 9, 36, 56
1, 54599, Note_on_c, 9, 36, 0
1, 54600, Note_on_c, 9, 36, 37
1, 54719, Note_on_c, 9, 36, 0
1, 54720, Note_on_c, 9, 36, 69
1, 55199, Note_on_c, 9, 36, 0
1, 55440, Note_on_c, 9, 36, 70
1, 55679, Note_on_c, 9, 36, 0
1, 55680, Note_on_c, 9, 36, 59
1, 56159, Note_on_c, 9, 36, 0
1, 56400, Note_on_c, 9, 36, 56
1, 56639, Note_on_c, 9, 36, 0
1, 56640, Note_on_c, 9, 36, 64
1, 57119, Note_on_c, 9, 36, 0
1, 57360, Note_on_c, 9, 36, 58
1, 57599, Note_on_c, 9, 36, 0
1, 57600, Note_on_c, 9, 36, 64
1, 58079, Note_on_c, 9, 36, 0
1, 58560, Note_on_c, 9, 36, 74
1, 59039, Note_on_c, 9, 36, 0
1, 59040, Note_on_c, 9, 36, 69
1, 59519, Note_on_c, 9, 36, 0
1, 59520, Note_on_c, 9, 36, 66
1, 59999, Note_on_c, 9, 36, 0
1, 60000, Note_on_c, 9, 36, 73
1, 60479, Note_on_c, 9, 36, 0
1, 60480, Note_on_c, 9, 36, 70
1, 60959, Note_on_c, 9, 36, 0
1, 60960, Note_on_c, 9, 36, 69
1, 61439, Note_on_c, 9, 36, 0
1, 61440, Note_on_c, 9, 36, 63
1, 61919, Note_on_c, 9, 36, 0
1, 61920, Note_on_c, 9, 36, 67
1, 62399, Note_on_c, 9, 36, 0
1, 62400, Note_on_c, 9, 36, 65
1, 62879, Note_on_c, 9, 36, 0
1, 62880, Note_on_c, 9, 36, 60
1, 63359, Note_on_c, 9, 36, 0
1, 63360, Note_on_c, 9, 36, 60
1, 63839, Note_on_c, 9, 36, 0
1, 63840, Note_on_c, 9, 36, 67
1, 64319, Note_on_c, 9, 36, 0
1, 64320, Note_on_c, 9, 36, 63
1, 64799, Note_on_c, 9, 36, 0
1, 64800, Note_on_c, 9, 36, 59
1, 65279, Note_on_c, 9, 36, 0
1, 65280, Note_on_c, 9, 36, 67
1, 65759, Note_on_c, 9, 36, 0
1, 65760, Note_on_c, 9, 36, 69
1, 66239, Note_on_c, 9, 36, 0
1, 66240, Time_signature, 3, 2, 24, 8
1, 66240, Note_on_c, 9, 36, 71
1, 66719, Note_on_c, 9, 36, 0
1, 66720, Note_on_c, 9, 36, 82
1, 66959, Note_on_c, 9, 36, 0
1, 66960, Note_on_c, 9, 36, 63
1, 67199, Note_on_c, 9, 36, 0
1, 67680, Note_on_c, 9, 36, 82
1, 68159, Note_on_c, 9, 36, 0
1, 68160, Note_on_c, 9, 36, 73
1, 68399, Note_on_c, 9, 36, 0
1, 68400, Note_on_c, 9, 36, 69
1, 68639, Note_on_c, 9, 36, 0
1, 69120, Time_signature, 4, 2, 24, 8
1, 69120, Note_on_c, 9, 36, 78
1, 69599, Note_on_c, 9, 36, 0
1, 69600, Note_on_c, 9, 36, 66
1, 70079, Note_on_c, 9, 36, 0
1, 70080, Note_on_c, 9, 36, 75
1, 70559, Note_on_c, 9, 36, 0
1, 70560, Note_on_c, 9, 36, 71
1, 71039, Note_on_c, 9, 36, 0
1, 71040, Note_on_c, 9, 36, 70
1, 71519, Note_on_c, 9, 36, 0
1, 71520, Note_on_c, 9, 36, 69
1, 71999, Note_on_c, 9, 36, 0
1, 72000, Note_on_c, 9, 36, 63
1, 72479, Note_on_c, 9, 36, 0
1, 72480, Note_on_c, 9, 36, 67
1, 72959, Note_on_c, 9, 36, 0
1, 72960, Note_on_c, 9, 36, 65
1, 73439, Note_on_c, 9, 36, 0
1, 73440, Note_on_c, 9, 36, 60
1, 73919, Note_on_c, 9, 36, 0
1, 73920, Note_on_c, 9, 36, 60
1, 74399, Note_on_c, 9, 36, 0
1, 74400, Note_on_c, 9, 36, 67
1, 74879, Note_on_c, 9, 36, 0
1, 74880, Note_on_c, 9, 36, 63
1, 75359, Note_on_c, 9, 36, 0
1, 75360, Note_on_c, 9, 36, 59
1, 75839, Note_on_c, 9, 36, 0
1, 75840, Note_on_c, 9, 36, 67
1, 76319, Note_on_c, 9, 36, 0
1, 76320, Note_on_c, 9, 36, 69
1, 76799, Note_on_c, 9, 36, 0
1, 76800, Time_signature, 3, 2, 24, 8
1, 76800, Note_on_c, 9, 36, 71
1, 77279, Note_on_c, 9, 36, 0
1, 77280, Note_on_c, 9, 36, 82
1, 77519, Note_on_c, 9, 36, 0
1, 77520, Note_on_c, 9, 36, 63
1, 77759, Note_on_c, 9, 36, 0
1, 78240, Note_on_c, 9, 36, 82
1, 78719, Note_on_c, 9, 36, 0
1, 78720, Note_on_c, 9, 36, 73
1, 78959, Note_on_c, 9, 36, 0
1, 78960, Note_on_c, 9, 36, 69
1, 79199, Note_on_c, 9, 36, 0
1, 79680, Time_signature, 4, 2, 24, 8
1, 79680, Note_on_c, 9, 36, 78
1, 80159, Note_on_c, 9, 36, 0
1, 80160, Note_on_c, 9, 36, 66
1, 80639, Note_on_c, 9, 36, 0
1, 80640, Note_on_c, 9, 36, 75
1, 81119, Note_on_c, 9, 36, 0
1, 81120, Note_on_c, 9, 36, 71
1, 81599, Note_on_c, 9, 36, 0
1, 81600, Note_on_c, 9, 36, 64
1, 82079, Note_on_c, 9, 36, 0
1, 82080, Note_on_c, 9, 36, 69
1, 82559, Note_on_c, 9, 36, 0
1, 82560, Note_on_c, 9, 36, 63
1, 83039, Note_on_c, 9, 36, 0
1, 83040, Note_on_c, 9, 36, 67
1, 83519, Note_on_c, 9, 36, 0
1, 83520, Note_on_c, 9, 36, 65
1, 83999, Note_on_c, 9, 36, 0
1, 84000, Note_on_c, 9, 36, 60
1, 84479, Note_on_c, 9, 36, 0
1, 84480, Note_on_c, 9, 36, 60
1, 84959, Note_on_c, 9, 36, 0
1, 84960, Note_on_c, 9, 36, 67
1, 85439, Note_on_c, 9, 36, 0
1, 85440, Note_on_c, 9, 36, 63
1, 85919, Note_on_c, 9, 36, 0
1, 85920, Note_on_c, 9, 36, 59
1, 86399, Note_on_c, 9, 36, 0
1, 86400, Note_on_c, 9, 36, 67
1, 86879, Note_on_c, 9, 36, 0
1, 86880, Note_on_c, 9, 36, 69
1, 87359, Note_on_c, 9, 36, 0
1, 87360, Time_signature, 3, 2, 24, 8
1, 87360, Note_on_c, 9, 36, 71
1, 87839, Note_on_c, 9, 36, 0
1, 87840, Note_on_c, 9, 36, 82
1, 88079, Note_on_c, 9, 36, 0
1, 88080, Note_on_c, 9, 36, 63
1, 88319, Note_on_c, 9, 36, 0
1, 88800, Note_on_c, 9, 36, 82
1, 89279, Note_on_c, 9, 36, 0
1, 89280, Note_on_c, 9, 36, 73
1, 89519, Note_on_c, 9, 36, 0
1, 89520, Note_on_c, 9, 36, 69
1, 89759, Note_on_c, 9, 36, 0
1, 90240, Time_signature, 4, 2, 24, 8
1, 90240, Note_on_c, 9, 36, 78
1, 90719, Note_on_c, 9, 36, 0
1, 90720, Note_on_c, 9, 36, 66
1, 91199, Note_on_c, 9, 36, 0
1, 91200, Note_on_c, 9, 36, 75
1, 91679, Note_on_c, 9, 36, 0
1, 91680, Note_on_c, 9, 36, 71
1, 92039, Note_on_c, 9, 36, 0
1, 92100, Note_on_c, 9, 36, 70
1, 92159, Note_on_c, 9, 36, 0
1, 92640, Note_on_c, 9, 36, 69
1, 93119, Note_on_c, 9, 36, 0
1, 93120, Note_on_c, 9, 36, 63
1, 93599, Note_on_c, 9, 36, 0
1, 93600, Note_on_c, 9, 36, 67
1, 94079, Note_on_c, 9, 36, 0
1, 94080, Note_on_c, 9, 36, 65
1, 94559, Note_on_c, 9, 36, 0
1, 94560, Note_on_c, 9, 36, 60
1, 95039, Note_on_c, 9, 36, 0
1, 95040, Note_on_c, 9, 36, 60
1, 95519, Note_on_c, 9, 36, 0
1, 95520, Note_on_c, 9, 36, 67
1, 95999, Note_on_c, 9, 36, 0
1, 96000, Note_on_c, 9, 36, 63
1, 96479, Note_on_c, 9, 36, 0
1, 96480, Note_on_c, 9, 36, 59
1, 96959, Note_on_c, 9, 36, 0
1, 96960, Note_on_c, 9, 36, 67
1, 97439, Note_on_c, 9, 36, 0
1, 97440, Note_on_c, 9, 36, 69
1, 97919, Note_on_c, 9, 36, 0
1, 97920, Time_signature, 3, 2, 24, 8
1, 97920, Note_on_c, 9, 36, 71
1, 98399, Note_on_c, 9, 36, 0
1, 98400, Note_on_c, 9, 36, 82
1, 98639, Note_on_c, 9, 36, 0
1, 98640, Note_on_c, 9, 36, 63
1, 98879, Note_on_c, 9, 36, 0
1, 99360, Note_on_c, 9, 36, 82
1, 99809, Note_on_c, 9, 36, 0
1, 99825, Note_on_c, 9, 36, 73
1, 100079, Note_on_c, 9, 36, 0
1, 100080, Note_on_c, 9, 36, 69
1, 100319, Note_on_c, 9, 36, 0
1, 100800, Time_signature, 4, 2, 24, 8
1, 100800, Note_on_c, 9, 36, 78
1, 101279, Note_on_c, 9, 36, 0
1, 101280, Note_on_c, 9, 36, 66
1, 101759, Note_on_c, 9, 36, 0
1, 101760, Note_on_c, 9, 36, 75
1, 102239, Note_on_c, 9, 36, 0
1, 102240, End_track
0, 0, End_of_file
