0, 0, Header, 1, 1, 480
1, 0, Start_track
1, 0, Time_signature, 4, 2, 24, 8
1, 0, Key_signature, 0, "major"
1, 0, Tempo, 500000
1, 0, Control_c, 9, 121, 0
1, 0, Program_c, 9, 0
1, 0, Control_c, 9, 7, 100
1, 0, Control_c, 9, 10, 64
1, 0, Control_c, 9, 91, 0
1, 0, Control_c, 9, 93, 0
1, 0, MIDI_port, 0
1, 8, Tempo, 461538
1, 22800, Note_on_c, 9, 36, 55
1, 23039, Note_on_c, 9, 36, 0
1, 23040, Note_on_c, 9, 36, 70
1, 23519, Note_on_c, 9, 36, 0
1, 28560, Note_on_c, 9, 36, 57
1, 28799, Note_on_c, 9, 36, 0
1, 28800, Note_on_c, 9, 36, 76
1, 29279, Note_on_c, 9, 36, 0
1, 36240, Note_on_c, 9, 36, 74
1, 36479, Note_on_c, 9, 36, 0
1, 36480, Note_on_c, 9, 36, 85
1, 36959, Note_on_c, 9, 36, 0
1, 43920, Note_on_c, 9, 36, 82
1, 44159, Note_on_c, 9, 36, 0
1, 44160, Note_on_c, 9, 36, 82
1, 44639, Note_on_c, 9, 36, 0
1, 47760, Note_on_c, 9, 36, 70
1, 47999, Note_on_c, 9, 36, 0
1, 48000, Note_on_c, 9, 36, 76
1, 48479, Note_on_c, 9, 36, 0
1, 51360, Note_on_c, 9, 36, 90
1, 51839, Note_on_c, 9, 36, 0
1, 51840, Note_on_c, 9, 36, 72
1, 52319, Note_on_c, 9, 36, 0
1, 53520, Note_on_c, 9, 36, 63
1, 53759, Note_on_c, 9, 36, 0
1, 53760, Note_on_c, 9, 36, 69
1, 54239, Note_on_c, 9, 36, 0
1, 55440, Note_on_c, 9, 36, 70
1, 55679, Note_on_c, 9, 36, 0
1, 55680, Note_on_c, 9, 36, 68
1, 56159, Note_on_c, 9, 36, 0
1, 57360, Note_on_c, 9, 36, 71
1, 57599, Note_on_c, 9, 36, 0
1, 57630, Note_on_c, 9, 36, 75
1, 57689, Note_on_c, 9, 36, 0
1, 59280, Note_on_c, 9, 36, 74
1, 59519, Note_on_c, 9, 36, 0
1, 59520, Note_on_c, 9, 36, 60
1, 59999, Note_on_c, 9, 36, 0
1, 61200, Note_on_c, 9, 36, 67
1, 61439, Note_on_c, 9, 36, 0
1, 61440, Note_on_c, 9, 36, 67
1, 61919, Note_on_c, 9, 36, 0
1, 63120, Note_on_c, 9, 36, 70
1, 63359, Note_on_c, 9, 36, 0
1, 63360, Note_on_c, 9, 36, 57
1, 63839, Note_on_c, 9, 36, 0
1, 65040, Note_on_c, 9, 36, 68
1, 65279, Note_on_c, 9, 36, 0
1, 65280, Note_on_c, 9, 36, 66
1, 65759, Note_on_c, 9, 36, 0
1, 66960, Note_on_c, 9, 36, 65
1, 67199, Note_on_c, 9, 36, 0
1, 67200, Note_on_c, 9, 36, 62
1, 67679, Note_on_c, 9, 36, 0
1, 68880, Note_on_c, 9, 36, 60
1, 69119, Note_on_c, 9, 36, 0
1, 69120, Note_on_c, 9, 36, 71
1, 69599, Note_on_c, 9, 36, 0
1, 70800, Note_on_c, 9, 36, 76
1, 71039, Note_on_c, 9, 36, 0
1, 71040, Note_on_c, 9, 36, 69
1, 71519, Note_on_c, 9, 36, 0
1, 72960, Note_on_c, 9, 36, 81
1, 73439, Note_on_c, 9, 36, 0
1, 78720, Note_on_c, 9, 36, 74
1, 79199, Note_on_c, 9, 36, 0
1, 79680, Note_on_c, 9, 36, 71
1, 80159, Note_on_c, 9, 36, 0
1, 80640, Note_on_c, 9, 36, 74
1, 81119, Note_on_c, 9, 36, 0
1, 81600, Note_on_c, 9, 36, 79
1, 82079, Note_on_c, 9, 36, 0
1, 82560, Note_on_c, 9, 36, 74
1, 83039, Note_on_c, 9, 36, 0
1, 83520, Note_on_c, 9, 36, 77
1, 83999, Note_on_c, 9, 36, 0
1, 84480, Note_on_c, 9, 36, 74
1, 84959, Note_on_c, 9, 36, 0
1, 85440, Note_on_c, 9, 36, 79
1, 85919, Note_on_c, 9, 36, 0
1, 86400, Note_on_c, 9, 36, 77
1, 86879, Note_on_c, 9, 36, 0
1, 87360, Note_on_c, 9, 36, 78
1, 87839, Note_on_c, 9, 36, 0
1, 88320, Note_on_c, 9, 36, 70
1, 88799, Note_on_c, 9, 36, 0
1, 89280, Note_on_c, 9, 36, 78
1, 89759, Note_on_c, 9, 36, 0
1, 90240, Note_on_c, 9, 36, 75
1, 90719, Note_on_c, 9, 36, 0
1, 91200, Note_on_c, 9, 36, 74
1, 91679, Note_on_c, 9, 36, 0
1, 92160, Note_on_c, 9, 36, 76
1, 92639, Note_on_c, 9, 36, 0
1, 93120, Note_on_c, 9, 36, 78
1, 93599, Note_on_c, 9, 36, 0
1, 94080, Note_on_c, 9, 36, 73
1, 94559, Note_on_c, 9, 36, 0
1, 95040, Note_on_c, 9, 36, 71
1, 95519, Note_on_c, 9, 36, 0
1, 96000, Note_on_c, 9, 36, 41
1, 96239, Note_on_c, 9, 36, 0
1, 96240, Note_on_c, 9, 36, 42
1, 96479, Note_on_c, 9, 36, 0
1, 96480, Note_on_c, 9, 36, 37
1, 96719, Note_on_c, 9, 36, 0
1, 96720, Note_on_c, 9, 36, 41
1, 96959, Note_on_c, 9, 36, 0
1, 96960, Note_on_c, 9, 36, 48
1, 97199, Note_on_c, 9, 36, 0
1, 97200, Note_on_c, 9, 36, 40
1, 97439, Note_on_c, 9, 36, 0
1, 97440, Note_on_c, 9, 36, 40
1, 97679, Note_on_c, 9, 36, 0
1, 97680, Note_on_c, 9, 36, 40
1, 97919, Note_on_c, 9, 36, 0
1, 97920, Note_on_c, 9, 36, 45
1, 98159, Note_on_c, 9, 36, 0
1, 98160, Note_on_c, 9, 36, 43
1, 98399, Note_on_c, 9, 36, 0
1, 98400, Note_on_c, 9, 36, 55
1, 98639, Note_on_c, 9, 36, 0
1, 98640, Note_on_c, 9, 36, 46
1, 98879, Note_on_c, 9, 36, 0
1, 98880, Note_on_c, 9, 36, 59
1, 99119, Note_on_c, 9, 36, 0
1, 99120, Note_on_c, 9, 36, 70
1, 99359, Note_on_c, 9, 36, 0
1, 99360, Note_on_c, 9, 36, 75
1, 99599, Note_on_c, 9, 36, 0
1, 99600, Note_on_c, 9, 36, 86
1, 99839, Note_on_c, 9, 36, 0
1, 99840, Note_on_c, 9, 36, 65
1, 100319, Note_on_c, 9, 36, 0
1, 101760, Note_on_c, 9, 36, 74
1, 102239, Note_on_c, 9, 36, 0
1, 103680, Note_on_c, 9, 36, 59
1, 104159, Note_on_c, 9, 36, 0
1, 105600, Note_on_c, 9, 36, 67
1, 106079, Note_on_c, 9, 36, 0
1, 107520, Note_on_c, 9, 36, 65
1, 107999, Note_on_c, 9, 36, 0
1, 109440, Note_on_c, 9, 36, 66
1, 109919, Note_on_c, 9, 36, 0
1, 111360, Note_on_c, 9, 36, 69
1, 111839, Note_on_c, 9, 36, 0
1, 113040, Note_on_c, 9, 36, 55
1, 113279, Note_on_c, 9, 36, 0
1, 113280, Note_on_c, 9, 36, 70
1, 113759, Note_on_c, 9, 36, 0
1, 118800, Note_on_c, 9, 36, 57
1, 119039, Note_on_c, 9, 36, 0
1, 119040, Note_on_c, 9, 36, 76
1, 119519, Note_on_c, 9, 36, 0
1, 126480, Note_on_c, 9, 36, 74
1, 126719, Note_on_c, 9, 36, 0
1, 126720, Note_on_c, 9, 36, 85
1, 127199, Note_on_c, 9, 36, 0
1, 134160, Note_on_c, 9, 36, 82
1, 134399, Note_on_c, 9, 36, 0
1, 134400, Note_on_c, 9, 36, 82
1, 134879, Note_on_c, 9, 36, 0
1, 138000, Note_on_c, 9, 36, 70
1, 138239, Note_on_c, 9, 36, 0
1, 138240, Note_on_c, 9, 36, 76
1, 138719, Note_on_c, 9, 36, 0
1, 141600, Note_on_c, 9, 36, 90
1, 142079, Note_on_c, 9, 36, 0
1, 142080, Note_on_c, 9, 36, 72
1, 142559, Note_on_c, 9, 36, 0
1, 143760, Note_on_c, 9, 36, 63
1, 143999, Note_on_c, 9, 36, 0
1, 144000, Note_on_c, 9, 36, 69
1, 144479, Note_on_c, 9, 36, 0
1, 145680, Note_on_c, 9, 36, 70
1, 145919, Note_on_c, 9, 36, 0
1, 145920, Note_on_c, 9, 36, 68
1, 146399, Note_on_c, 9, 36, 0
1, 147600, Note_on_c, 9, 36, 71
1, 147839, Note_on_c, 9, 36, 0
1, 147870, Note_on_c, 9, 36, 75
1, 147929, Note_on_c, 9, 36, 0
1, 149520, Note_on_c, 9, 36, 74
1, 149759, Note_on_c, 9, 36, 0
1, 149760, Note_on_c, 9, 36, 60
1, 150239, Note_on_c, 9, 36, 0
1, 151440, Note_on_c, 9, 36, 67
1, 151679, Note_on_c, 9, 36, 0
1, 151680, Note_on_c, 9, 36, 67
1, 152159, Note_on_c, 9, 36, 0
1, 153360, Note_on_c, 9, 36, 70
1, 153599, Note_on_c, 9, 36, 0
1, 153600, Note_on_c, 9, 36, 57
1, 154079, Note_on_c, 9, 36, 0
1, 155280, Note_on_c, 9, 36, 68
1, 155519, Note_on_c, 9, 36, 0
1, 155520, Note_on_c, 9, 36, 66
1, 155999, Note_on_c, 9, 36, 0
1, 157200, Note_on_c, 9, 36, 65
1, 157439, Note_on_c, 9, 36, 0
1, 157440, Note_on_c, 9, 36, 62
1, 157919, Note_on_c, 9, 36, 0
1, 159120, Note_on_c, 9, 36, 60
1, 159359, Note_on_c, 9, 36, 0
1, 159360, Note_on_c, 9, 36, 71
1, 159839, Note_on_c, 9, 36, 0
1, 161040, Note_on_c, 9, 36, 76
1, 161279, Note_on_c, 9, 36, 0
1, 161280, Note_on_c, 9, 36, 69
1, 161759, Note_on_c, 9, 36, 0
1, 163200, Note_on_c, 9, 36, 81
1, 163679, Note_on_c, 9, 36, 0
1, 168960, Note_on_c, 9, 36, 74
1, 169439, Note_on_c, 9, 36, 0
1, 169920, Note_on_c, 9, 36, 71
1, 170399, Note_on_c, 9, 36, 0
1, 170880, Note_on_c, 9, 36, 74
1, 171359, Note_on_c, 9, 36, 0
1, 171840, Note_on_c, 9, 36, 79
1, 172319, Note_on_c, 9, 36, 0
1, 172800, Note_on_c, 9, 36, 74
1, 173279, Note_on_c, 9, 36, 0
1, 173760, Note_on_c, 9, 36, 77
1, 174239, Note_on_c, 9, 36, 0
1, 174720, Note_on_c, 9, 36, 74
1, 175199, Note_on_c, 9, 36, 0
1, 175680, Note_on_c, 9, 36, 79
1, 176159, Note_on_c, 9, 36, 0
1, 176640, Note_on_c, 9, 36, 77
1, 177119, Note_on_c, 9, 36, 0
1, 177600, Note_on_c, 9, 36, 78
1, 178079, Note_on_c, 9, 36, 0
1, 178560, Note_on_c, 9, 36, 70
1, 179039, Note_on_c, 9, 36, 0
1, 179520, Note_on_c, 9, 36, 78
1, 179999, Note_on_c, 9, 36, 0
1, 180480, Note_on_c, 9, 36, 75
1, 180959, Note_on_c, 9, 36, 0
1, 181440, Note_on_c, 9, 36, 74
1, 181919, Note_on_c, 9, 36, 0
1, 182400, Note_on_c, 9, 36, 76
1, 182879, Note_on_c, 9, 36, 0
1, 183360, Note_on_c, 9, 36, 78
1, 183839, Note_on_c, 9, 36, 0
1, 184320, Note_on_c, 9, 36, 73
1, 184799, Note_on_c, 9, 36, 0
1, 185280, Note_on_c, 9, 36, 71
1, 185759, Note_on_c, 9, 36, 0
1, 186240, Note_on_c, 9, 36, 41
1, 186479, Note_on_c, 9, 36, 0
1, 186480, Note_on_c, 9, 36, 42
1, 186719, Note_on_c, 9, 36, 0
1, 186720, Note_on_c, 9, 36, 37
1, 186959, Note_on_c, 9, 36, 0
1, 186960, Note_on_c, 9, 36, 41
1, 187199, Note_on_c, 9, 36, 0
1, 187200, Note_on_c, 9, 36, 48
1, 187439, Note_on_c, 9, 36, 0
1, 187440, Note_on_c, 9, 36, 40
1, 187679, Note_on_c, 9, 36, 0
1, 187680, Note_on_c, 9, 36, 40
1, 187919, Note_on_c, 9, 36, 0
1, 187920, Note_on_c, 9, 36, 40
1, 188159, Note_on_c, 9, 36, 0
1, 188160, Note_on_c, 9, 36, 45
1, 188399, Note_on_c, 9, 36, 0
1, 188400, Note_on_c, 9, 36, 43
1, 188639, Note_on_c, 9, 36, 0
1, 188640, Note_on_c, 9, 36, 55
1, 188879, Note_on_c, 9, 36, 0
1, 188880, Note_on_c, 9, 36, 46
1, 189119, Note_on_c, 9, 36, 0
1, 189120, Note_on_c, 9, 36, 59
1, 189359, Note_on_c, 9, 36, 0
1, 189360, Note_on_c, 9, 36, 70
1, 189599, Note_on_c, 9, 36, 0
1, 189600, Note_on_c, 9, 36, 75
1, 189839, Note_on_c, 9, 36, 0
1, 189840, Note_on_c, 9, 36, 86
1, 190079, Note_on_c, 9, 36, 0
1, 190080, Note_on_c, 9, 36, 65
1, 190559, Note_on_c, 9, 36, 0
1, 192000, Note_on_c, 9, 36, 74
1, 192479, Note_on_c, 9, 36, 0
1, 193920, Note_on_c, 9, 36, 59
1, 194399, Note_on_c, 9, 36, 0
1, 195840, Note_on_c, 9, 36, 67
1, 196319, Note_on_c, 9, 36, 0
1, 197760, Note_on_c, 9, 36, 65
1, 198239, Note_on_c, 9, 36, 0
1, 199680, Note_on_c, 9, 36, 66
1, 200159, Note_on_c, 9, 36, 0
1, 201600, Note_on_c, 9, 36, 59
1, 202079, Note_on_c, 9, 36, 0
1, 203520, Note_on_c, 9, 36, 67
1, 203999, Note_on_c, 9, 36, 0
1, 205440, Note_on_c, 9, 36, 65
1, 205919, Note_on_c, 9, 36, 0
1, 207360, Note_on_c, 9, 36, 66
1, 207839, Note_on_c, 9, 36, 0
1, 209280, Note_on_c, 9, 36, 59
1, 209759, Note_on_c, 9, 36, 0
1, 211200, Note_on_c, 9, 36, 67
1, 211679, Note_on_c, 9, 36, 0
1, 213120, Note_on_c, 9, 36, 65
1, 213599, Note_on_c, 9, 36, 0
1, 215040, Note_on_c, 9, 36, 66
1, 215519, Note_on_c, 9, 36, 0
1, 216960, Note_on_c, 9, 36, 59
1, 217439, Note_on_c, 9, 36, 0
1, 217440, End_track
0, 0, End_of_file
