0, 0, Header, 1, 10, 480
1, 0, Start_track
1, 0, Time_signature, 4, 2, 24, 8
1, 0, Key_signature, 0, "major"
1, 0, Tempo, 483871
1, 0, Control_c, 9, 121, 0
1, 0, Program_c, 9, 0
1, 0, Control_c, 9, 7, 127
1, 0, Control_c, 9, 10, 64
1, 0, Control_c, 9, 91, 0
1, 0, Control_c, 9, 93, 0
1, 0, MIDI_port, 0
1, 3120, Note_on_c, 9, 46, 90
1, 3359, Note_on_c, 9, 46, 0
1, 3840, Note_on_c, 9, 46, 90
1, 4319, Note_on_c, 9, 46, 0
1, 9120, Note_on_c, 9, 46, 114
1, 9599, Note_on_c, 9, 46, 0
1, 18000, Note_on_c, 9, 46, 100
1, 18239, Note_on_c, 9, 46, 0
1, 19920, Note_on_c, 9, 46, 100
1, 20159, Note_on_c, 9, 46, 0
1, 21840, Note_on_c, 9, 46, 100
1, 22079, Note_on_c, 9, 46, 0
1, 24240, Note_on_c, 9, 46, 100
1, 24479, Note_on_c, 9, 46, 0
1, 26640, Note_on_c, 9, 46, 100
1, 26879, Note_on_c, 9, 46, 0
1, 27600, Note_on_c, 9, 46, 100
1, 27839, Note_on_c, 9, 46, 0
1, 29520, Note_on_c, 9, 46, 100
1, 29759, Note_on_c, 9, 46, 0
1, 32400, Note_on_c, 9, 46, 100
1, 32639, Note_on_c, 9, 46, 0
1, 38400, Note_on_c, 9, 46, 90
1, 38879, Note_on_c, 9, 46, 0
1, 38880, Note_on_c, 9, 46, 90
1, 39359, Note_on_c, 9, 46, 0
1, 42240, Note_on_c, 9, 46, 100
1, 42719, Note_on_c, 9, 46, 0
1, 42960, Note_on_c, 9, 46, 100
1, 43199, Note_on_c, 9, 46, 0
1, 44160, Note_on_c, 9, 46, 100
1, 44639, Note_on_c, 9, 46, 0
1, 44880, Note_on_c, 9, 46, 100
1, 45119, Note_on_c, 9, 46, 0
1, 46080, Note_on_c, 9, 46, 100
1, 46559, Note_on_c, 9, 46, 0
1, 49920, Note_on_c, 9, 46, 115
1, 50399, Note_on_c, 9, 46, 0
1, 53040, Note_on_c, 9, 46, 115
1, 53279, Note_on_c, 9, 46, 0
1, 53760, Note_on_c, 9, 46, 114
1, 54239, Note_on_c, 9, 46, 0
1, 57120, Note_on_c, 9, 46, 114
1, 57599, Note_on_c, 9, 46, 0
1, 67920, Note_on_c, 9, 46, 100
1, 68159, Note_on_c, 9, 46, 0
1, 69840, Note_on_c, 9, 46, 100
1, 70079, Note_on_c, 9, 46, 0
1, 71760, Note_on_c, 9, 46, 100
1, 71999, Note_on_c, 9, 46, 0
1, 74160, Note_on_c, 9, 46, 100
1, 74399, Note_on_c, 9, 46, 0
1, 76560, Note_on_c, 9, 46, 100
1, 76799, Note_on_c, 9, 46, 0
1, 77520, Note_on_c, 9, 46, 100
1, 77759, Note_on_c, 9, 46, 0
1, 79440, Note_on_c, 9, 46, 100
1, 79679, Note_on_c, 9, 46, 0
1, 82320, Note_on_c, 9, 46, 100
1, 82559, Note_on_c, 9, 46, 0
1, 88320, Note_on_c, 9, 46, 90
1, 88799, Note_on_c, 9, 46, 0
1, 88800, Note_on_c, 9, 46, 90
1, 89279, Note_on_c, 9, 46, 0
1, 100080, Note_on_c, 9, 46, 115
1, 100319, Note_on_c, 9, 46, 0
1, 103440, Note_on_c, 9, 46, 114
1, 103679, Note_on_c, 9, 46, 0
1, 107040, Note_on_c, 9, 46, 114
1, 107519, Note_on_c, 9, 46, 0
1, 130560, Note_on_c, 9, 46, 90
1, 131039, Note_on_c, 9, 46, 0
1, 131040, Note_on_c, 9, 46, 90
1, 131519, Note_on_c, 9, 46, 0
1, 145920, Note_on_c, 9, 46, 90
1, 146399, Note_on_c, 9, 46, 0
1, 146400, Note_on_c, 9, 46, 90
1, 146879, Note_on_c, 9, 46, 0
1, 179280, Note_on_c, 9, 46, 100
1, 179519, Note_on_c, 9, 46, 0
1, 181200, Note_on_c, 9, 46, 100
1, 181439, Note_on_c, 9, 46, 0
1, 183120, Note_on_c, 9, 46, 100
1, 183359, Note_on_c, 9, 46, 0
1, 185520, Note_on_c, 9, 46, 100
1, 185759, Note_on_c, 9, 46, 0
1, 187920, Note_on_c, 9, 46, 100
1, 188159, Note_on_c, 9, 46, 0
1, 188880, Note_on_c, 9, 46, 100
1, 189119, Note_on_c, 9, 46, 0
1, 190800, Note_on_c, 9, 46, 100
1, 191039, Note_on_c, 9, 46, 0
1, 193680, Note_on_c, 9, 46, 100
1, 193919, Note_on_c, 9, 46, 0
1, 199680, Note_on_c, 9, 46, 90
1, 200159, Note_on_c, 9, 46, 0
1, 200160, Note_on_c, 9, 46, 90
1, 200639, Note_on_c, 9, 46, 0
1, 211440, Note_on_c, 9, 46, 115
1, 211679, Note_on_c, 9, 46, 0
1, 214800, Note_on_c, 9, 46, 114
1, 215039, Note_on_c, 9, 46, 0
1, 218400, Note_on_c, 9, 46, 114
1, 218879, Note_on_c, 9, 46, 0
1, 226800, Note_on_c, 9, 46, 115
1, 227039, Note_on_c, 9, 46, 0
1, 230160, Note_on_c, 9, 46, 114
1, 230399, Note_on_c, 9, 46, 0
1, 233760, Note_on_c, 9, 46, 114
1, 234239, Note_on_c, 9, 46, 0
1, 234240, End_track
0, 0, End_of_file
