0, 0, Header, 1, 5, 480
1, 0, Start_track
1, 0, Time_signature, 4, 2, 24, 8
1, 0, Key_signature, 0, "major"
1, 0, Tempo, 521739
1, 0, Control_c, 9, 121, 0
1, 0, Program_c, 9, 0
1, 0, Control_c, 9, 7, 100
1, 0, Control_c, 9, 10, 64
1, 0, Control_c, 9, 91, 0
1, 0, Control_c, 9, 93, 0
1, 0, MIDI_port, 0
1, 4320, Note_on_c, 9, 38, 110
1, 4799, Note_on_c, 9, 38, 0
1, 5280, Note_on_c, 9, 38, 110
1, 5759, Note_on_c, 9, 38, 0
1, 6240, Note_on_c, 9, 38, 110
1, 6719, Note_on_c, 9, 38, 0
1, 7200, Note_on_c, 9, 38, 110
1, 7679, Note_on_c, 9, 38, 0
1, 8160, Note_on_c, 9, 38, 110
1, 8639, Note_on_c, 9, 38, 0
1, 9120, Note_on_c, 9, 38, 110
1, 9599, Note_on_c, 9, 38, 0
1, 10080, Note_on_c, 9, 38, 110
1, 10559, Note_on_c, 9, 38, 0
1, 11040, Note_on_c, 9, 38, 110
1, 11519, Note_on_c, 9, 38, 0
1, 12000, Note_on_c, 9, 38, 110
1, 12479, Note_on_c, 9, 38, 0
1, 12960, Note_on_c, 9, 38, 110
1, 13439, Note_on_c, 9, 38, 0
1, 13920, Note_on_c, 9, 38, 110
1, 14399, Note_on_c, 9, 38, 0
1, 14880, Note_on_c, 9, 38, 110
1, 15359, Note_on_c, 9, 38, 0
1, 15840, Note_on_c, 9, 38, 110
1, 16319, Note_on_c, 9, 38, 0
1, 16800, Note_on_c, 9, 38, 110
1, 17279, Note_on_c, 9, 38, 0
1, 17760, Note_on_c, 9, 38, 110
1, 18239, Note_on_c, 9, 38, 0
1, 18720, Note_on_c, 9, 38, 110
1, 19199, Note_on_c, 9, 38, 0
1, 19680, Note_on_c, 9, 38, 110
1, 20159, Note_on_c, 9, 38, 0
1, 20640, Note_on_c, 9, 38, 110
1, 21119, Note_on_c, 9, 38, 0
1, 21600, Note_on_c, 9, 38, 110
1, 22079, Note_on_c, 9, 38, 0
1, 22560, Note_on_c, 9, 38, 110
1, 23039, Note_on_c, 9, 38, 0
1, 23040, Tempo, 526316
1, 23520, Note_on_c, 9, 38, 110
1, 23999, Note_on_c, 9, 38, 0
1, 24480, Note_on_c, 9, 38, 110
1, 24959, Note_on_c, 9, 38, 0
1, 25440, Note_on_c, 9, 38, 110
1, 25919, Note_on_c, 9, 38, 0
1, 26400, Note_on_c, 9, 38, 110
1, 26879, Note_on_c, 9, 38, 0
1, 27360, Note_on_c, 9, 38, 110
1, 27839, Note_on_c, 9, 38, 0
1, 28320, Note_on_c, 9, 38, 110
1, 28799, Note_on_c, 9, 38, 0
1, 29280, Note_on_c, 9, 38, 110
1, 29759, Note_on_c, 9, 38, 0
1, 30240, Note_on_c, 9, 38, 110
1, 30719, Note_on_c, 9, 38, 0
1, 31200, Note_on_c, 9, 38, 110
1, 31679, Note_on_c, 9, 38, 0
1, 32160, Note_on_c, 9, 38, 110
1, 32639, Note_on_c, 9, 38, 0
1, 33120, Note_on_c, 9, 38, 110
1, 33599, Note_on_c, 9, 38, 0
1, 34080, Note_on_c, 9, 38, 110
1, 34559, Note_on_c, 9, 38, 0
1, 35040, Note_on_c, 9, 38, 110
1, 35519, Note_on_c, 9, 38, 0
1, 36000, Note_on_c, 9, 38, 110
1, 36479, Note_on_c, 9, 38, 0
1, 36960, Note_on_c, 9, 38, 110
1, 37439, Note_on_c, 9, 38, 0
1, 37920, Note_on_c, 9, 38, 110
1, 38399, Note_on_c, 9, 38, 0
1, 38880, Note_on_c, 9, 38, 110
1, 39359, Note_on_c, 9, 38, 0
1, 39840, Note_on_c, 9, 38, 110
1, 40319, Note_on_c, 9, 38, 0
1, 40800, Note_on_c, 9, 38, 110
1, 41279, Note_on_c, 9, 38, 0
1, 41760, Note_on_c, 9, 38, 110
1, 42239, Note_on_c, 9, 38, 0
1, 42720, Note_on_c, 9, 38, 110
1, 43199, Note_on_c, 9, 38, 0
1, 43680, Note_on_c, 9, 38, 110
1, 44159, Note_on_c, 9, 38, 0
1, 44640, Note_on_c, 9, 38, 110
1, 45119, Note_on_c, 9, 38, 0
1, 45600, Note_on_c, 9, 38, 110
1, 46079, Note_on_c, 9, 38, 0
1, 46560, Note_on_c, 9, 38, 110
1, 47039, Note_on_c, 9, 38, 0
1, 47520, Note_on_c, 9, 38, 110
1, 47999, Note_on_c, 9, 38, 0
1, 48480, Note_on_c, 9, 38, 110
1, 48959, Note_on_c, 9, 38, 0
1, 49440, Note_on_c, 9, 38, 110
1, 49919, Note_on_c, 9, 38, 0
1, 50400, Note_on_c, 9, 38, 110
1, 50879, Note_on_c, 9, 38, 0
1, 51360, Note_on_c, 9, 38, 110
1, 51839, Note_on_c, 9, 38, 0
1, 52320, Note_on_c, 9, 38, 110
1, 52799, Note_on_c, 9, 38, 0
1, 53280, Note_on_c, 9, 38, 110
1, 53759, Note_on_c, 9, 38, 0
1, 54240, Note_on_c, 9, 38, 110
1, 54719, Note_on_c, 9, 38, 0
1, 55200, Note_on_c, 9, 38, 110
1, 55679, Note_on_c, 9, 38, 0
1, 56160, Note_on_c, 9, 38, 110
1, 56639, Note_on_c, 9, 38, 0
1, 57120, Note_on_c, 9, 38, 110
1, 57599, Note_on_c, 9, 38, 0
1, 58080, Note_on_c, 9, 38, 110
1, 58559, Note_on_c, 9, 38, 0
1, 59040, Note_on_c, 9, 38, 110
1, 59519, Note_on_c, 9, 38, 0
1, 60000, Note_on_c, 9, 38, 110
1, 60479, Note_on_c, 9, 38, 0
1, 60960, Note_on_c, 9, 38, 110
1, 61439, Note_on_c, 9, 38, 0
1, 61920, Note_on_c, 9, 38, 110
1, 62399, Note_on_c, 9, 38, 0
1, 62880, Note_on_c, 9, 38, 110
1, 63359, Note_on_c, 9, 38, 0
1, 63840, Note_on_c, 9, 38, 110
1, 64319, Note_on_c, 9, 38, 0
1, 64800, Note_on_c, 9, 38, 110
1, 65279, Note_on_c, 9, 38, 0
1, 65760, Note_on_c, 9, 38, 110
1, 66239, Note_on_c, 9, 38, 0
1, 66720, Note_on_c, 9, 38, 110
1, 67199, Note_on_c, 9, 38, 0
1, 67680, Note_on_c, 9, 38, 110
1, 68159, Note_on_c, 9, 38, 0
1, 68640, Note_on_c, 9, 38, 110
1, 69119, Note_on_c, 9, 38, 0
1, 69600, Note_on_c, 9, 38, 110
1, 70079, Note_on_c, 9, 38, 0
1, 70560, Note_on_c, 9, 38, 110
1, 71039, Note_on_c, 9, 38, 0
1, 71520, Note_on_c, 9, 38, 110
1, 71999, Note_on_c, 9, 38, 0
1, 72480, Note_on_c, 9, 38, 110
1, 72959, Note_on_c, 9, 38, 0
1, 73440, Note_on_c, 9, 38, 110
1, 73919, Note_on_c, 9, 38, 0
1, 74400, Note_on_c, 9, 38, 110
1, 74879, Note_on_c, 9, 38, 0
1, 75360, Note_on_c, 9, 38, 110
1, 75839, Note_on_c, 9, 38, 0
1, 76320, Note_on_c, 9, 38, 110
1, 76799, Note_on_c, 9, 38, 0
1, 77280, Note_on_c, 9, 38, 110
1, 77759, Note_on_c, 9, 38, 0
1, 78240, Note_on_c, 9, 38, 110
1, 78719, Note_on_c, 9, 38, 0
1, 79200, Note_on_c, 9, 38, 110
1, 79679, Note_on_c, 9, 38, 0
1, 80160, Note_on_c, 9, 38, 110
1, 80639, Note_on_c, 9, 38, 0
1, 81120, Note_on_c, 9, 38, 110
1, 81599, Note_on_c, 9, 38, 0
1, 82080, Note_on_c, 9, 38, 110
1, 82559, Note_on_c, 9, 38, 0
1, 83040, Note_on_c, 9, 38, 110
1, 83519, Note_on_c, 9, 38, 0
1, 84000, Note_on_c, 9, 38, 110
1, 84479, Note_on_c, 9, 38, 0
1, 84960, Note_on_c, 9, 38, 110
1, 85439, Note_on_c, 9, 38, 0
1, 85920, Note_on_c, 9, 38, 110
1, 86399, Note_on_c, 9, 38, 0
1, 86880, Note_on_c, 9, 38, 110
1, 87359, Note_on_c, 9, 38, 0
1, 87840, Note_on_c, 9, 38, 110
1, 88319, Note_on_c, 9, 38, 0
1, 88800, Note_on_c, 9, 38, 110
1, 89279, Note_on_c, 9, 38, 0
1, 89760, Note_on_c, 9, 38, 110
1, 90239, Note_on_c, 9, 38, 0
1, 90720, Note_on_c, 9, 38, 110
1, 91199, Note_on_c, 9, 38, 0
1, 91680, Note_on_c, 9, 38, 110
1, 92159, Note_on_c, 9, 38, 0
1, 92640, Note_on_c, 9, 38, 110
1, 93119, Note_on_c, 9, 38, 0
1, 93600, Note_on_c, 9, 38, 110
1, 94079, Note_on_c, 9, 38, 0
1, 94560, Note_on_c, 9, 38, 110
1, 95039, Note_on_c, 9, 38, 0
1, 95520, Note_on_c, 9, 38, 110
1, 95999, Note_on_c, 9, 38, 0
1, 96480, Note_on_c, 9, 38, 110
1, 96959, Note_on_c, 9, 38, 0
1, 97440, Note_on_c, 9, 38, 110
1, 97919, Note_on_c, 9, 38, 0
1, 98400, Note_on_c, 9, 38, 110
1, 98879, Note_on_c, 9, 38, 0
1, 99360, Note_on_c, 9, 38, 110
1, 99839, Note_on_c, 9, 38, 0
1, 100320, Note_on_c, 9, 38, 110
1, 100799, Note_on_c, 9, 38, 0
1, 101280, Note_on_c, 9, 38, 110
1, 101759, Note_on_c, 9, 38, 0
1, 102240, Note_on_c, 9, 38, 110
1, 102719, Note_on_c, 9, 38, 0
1, 103200, Note_on_c, 9, 38, 110
1, 103679, Note_on_c, 9, 38, 0
1, 104160, Note_on_c, 9, 38, 110
1, 104639, Note_on_c, 9, 38, 0
1, 105120, Note_on_c, 9, 38, 110
1, 105599, Note_on_c, 9, 38, 0
1, 106080, Note_on_c, 9, 38, 110
1, 106559, Note_on_c, 9, 38, 0
1, 107040, Note_on_c, 9, 38, 110
1, 107519, Note_on_c, 9, 38, 0
1, 108000, Note_on_c, 9, 38, 110
1, 108479, Note_on_c, 9, 38, 0
1, 108960, Note_on_c, 9, 38, 110
1, 109439, Note_on_c, 9, 38, 0
1, 109920, Note_on_c, 9, 38, 110
1, 110399, Note_on_c, 9, 38, 0
1, 110880, Note_on_c, 9, 38, 110
1, 111359, Note_on_c, 9, 38, 0
1, 111840, Note_on_c, 9, 38, 110
1, 112319, Note_on_c, 9, 38, 0
1, 112800, Note_on_c, 9, 38, 110
1, 113279, Note_on_c, 9, 38, 0
1, 113760, Note_on_c, 9, 38, 110
1, 114239, Note_on_c, 9, 38, 0
1, 114720, Note_on_c, 9, 38, 110
1, 115199, Note_on_c, 9, 38, 0
1, 115680, Note_on_c, 9, 38, 110
1, 116159, Note_on_c, 9, 38, 0
1, 116640, Note_on_c, 9, 38, 110
1, 117119, Note_on_c, 9, 38, 0
1, 117120, Tempo, 521739
1, 117600, Note_on_c, 9, 38, 110
1, 118079, Note_on_c, 9, 38, 0
1, 118560, Note_on_c, 9, 38, 110
1, 119039, Note_on_c, 9, 38, 0
1, 119520, Note_on_c, 9, 38, 110
1, 119999, Note_on_c, 9, 38, 0
1, 120480, Note_on_c, 9, 38, 110
1, 120959, Note_on_c, 9, 38, 0
1, 121440, Note_on_c, 9, 38, 110
1, 121919, Note_on_c, 9, 38, 0
1, 122400, Note_on_c, 9, 38, 110
1, 122879, Note_on_c, 9, 38, 0
1, 123360, Note_on_c, 9, 38, 110
1, 123839, Note_on_c, 9, 38, 0
1, 124320, Note_on_c, 9, 38, 110
1, 124799, Note_on_c, 9, 38, 0
1, 125280, Note_on_c, 9, 38, 110
1, 125759, Note_on_c, 9, 38, 0
1, 126240, Note_on_c, 9, 38, 110
1, 126719, Note_on_c, 9, 38, 0
1, 127200, Note_on_c, 9, 38, 110
1, 127679, Note_on_c, 9, 38, 0
1, 128160, Note_on_c, 9, 38, 110
1, 128639, Note_on_c, 9, 38, 0
1, 129120, Note_on_c, 9, 38, 110
1, 129599, Note_on_c, 9, 38, 0
1, 130080, Note_on_c, 9, 38, 110
1, 130559, Note_on_c, 9, 38, 0
1, 131040, Note_on_c, 9, 38, 110
1, 131519, Note_on_c, 9, 38, 0
1, 132000, Note_on_c, 9, 38, 110
1, 132479, Note_on_c, 9, 38, 0
1, 132480, Tempo, 526316
1, 132960, Note_on_c, 9, 38, 110
1, 133439, Note_on_c, 9, 38, 0
1, 133920, Note_on_c, 9, 38, 110
1, 134399, Note_on_c, 9, 38, 0
1, 134880, Note_on_c, 9, 38, 110
1, 135359, Note_on_c, 9, 38, 0
1, 135840, Note_on_c, 9, 38, 110
1, 136319, Note_on_c, 9, 38, 0
1, 136800, Note_on_c, 9, 38, 110
1, 137279, Note_on_c, 9, 38, 0
1, 137760, Note_on_c, 9, 38, 110
1, 138239, Note_on_c, 9, 38, 0
1, 138720, Note_on_c, 9, 38, 110
1, 139199, Note_on_c, 9, 38, 0
1, 139680, Note_on_c, 9, 38, 110
1, 140159, Note_on_c, 9, 38, 0
1, 140640, Note_on_c, 9, 38, 110
1, 141119, Note_on_c, 9, 38, 0
1, 141600, Note_on_c, 9, 38, 110
1, 142079, Note_on_c, 9, 38, 0
1, 142560, Note_on_c, 9, 38, 110
1, 143039, Note_on_c, 9, 38, 0
1, 143520, Note_on_c, 9, 38, 110
1, 143999, Note_on_c, 9, 38, 0
1, 144480, Note_on_c, 9, 38, 110
1, 144959, Note_on_c, 9, 38, 0
1, 145440, Note_on_c, 9, 38, 110
1, 145919, Note_on_c, 9, 38, 0
1, 146400, Note_on_c, 9, 38, 110
1, 146879, Note_on_c, 9, 38, 0
1, 147360, Note_on_c, 9, 38, 110
1, 147839, Note_on_c, 9, 38, 0
1, 148320, Note_on_c, 9, 38, 110
1, 148799, Note_on_c, 9, 38, 0
1, 149280, Note_on_c, 9, 38, 110
1, 149759, Note_on_c, 9, 38, 0
1, 150240, Note_on_c, 9, 38, 110
1, 150719, Note_on_c, 9, 38, 0
1, 151200, Note_on_c, 9, 38, 110
1, 151679, Note_on_c, 9, 38, 0
1, 152160, Note_on_c, 9, 38, 110
1, 152639, Note_on_c, 9, 38, 0
1, 153120, Note_on_c, 9, 38, 110
1, 153599, Note_on_c, 9, 38, 0
1, 154080, Note_on_c, 9, 38, 110
1, 154559, Note_on_c, 9, 38, 0
1, 155040, Note_on_c, 9, 38, 110
1, 155519, Note_on_c, 9, 38, 0
1, 156000, Note_on_c, 9, 38, 110
1, 156479, Note_on_c, 9, 38, 0
1, 156960, Note_on_c, 9, 38, 110
1, 157439, Note_on_c, 9, 38, 0
1, 157920, Note_on_c, 9, 38, 110
1, 158399, Note_on_c, 9, 38, 0
1, 158880, Note_on_c, 9, 38, 110
1, 159359, Note_on_c, 9, 38, 0
1, 159840, Note_on_c, 9, 38, 110
1, 160319, Note_on_c, 9, 38, 0
1, 160800, Note_on_c, 9, 38, 110
1, 161279, Note_on_c, 9, 38, 0
1, 161760, Note_on_c, 9, 38, 110
1, 162239, Note_on_c, 9, 38, 0
1, 162720, Note_on_c, 9, 38, 110
1, 163199, Note_on_c, 9, 38, 0
1, 163680, Note_on_c, 9, 38, 110
1, 164159, Note_on_c, 9, 38, 0
1, 164640, Note_on_c, 9, 38, 110
1, 165119, Note_on_c, 9, 38, 0
1, 165600, Note_on_c, 9, 38, 110
1, 166079, Note_on_c, 9, 38, 0
1, 166560, Note_on_c, 9, 38, 110
1, 167039, Note_on_c, 9, 38, 0
1, 167520, Note_on_c, 9, 38, 110
1, 167999, Note_on_c, 9, 38, 0
1, 168480, Note_on_c, 9, 38, 110
1, 168959, Note_on_c, 9, 38, 0
1, 169440, Note_on_c, 9, 38, 110
1, 169919, Note_on_c, 9, 38, 0
1, 170400, Note_on_c, 9, 38, 110
1, 170879, Note_on_c, 9, 38, 0
1, 171360, Note_on_c, 9, 38, 110
1, 171839, Note_on_c, 9, 38, 0
1, 172320, Note_on_c, 9, 38, 110
1, 172799, Note_on_c, 9, 38, 0
1, 173280, Note_on_c, 9, 38, 110
1, 173759, Note_on_c, 9, 38, 0
1, 174240, Note_on_c, 9, 38, 110
1, 174719, Note_on_c, 9, 38, 0
1, 175200, Note_on_c, 9, 38, 110
1, 175679, Note_on_c, 9, 38, 0
1, 176160, Note_on_c, 9, 38, 110
1, 176639, Note_on_c, 9, 38, 0
1, 177120, Note_on_c, 9, 38, 110
1, 177599, Note_on_c, 9, 38, 0
1, 178080, Note_on_c, 9, 38, 110
1, 178559, Note_on_c, 9, 38, 0
1, 179040, Note_on_c, 9, 38, 110
1, 179519, Note_on_c, 9, 38, 0
1, 180000, Note_on_c, 9, 38, 110
1, 180479, Note_on_c, 9, 38, 0
1, 180960, Note_on_c, 9, 38, 110
1, 181439, Note_on_c, 9, 38, 0
1, 181920, Note_on_c, 9, 38, 110
1, 182399, Note_on_c, 9, 38, 0
1, 182880, Note_on_c, 9, 38, 110
1, 183359, Note_on_c, 9, 38, 0
1, 183840, Note_on_c, 9, 38, 110
1, 184319, Note_on_c, 9, 38, 0
1, 184800, Note_on_c, 9, 38, 110
1, 185279, Note_on_c, 9, 38, 0
1, 185760, Note_on_c, 9, 38, 110
1, 186239, Note_on_c, 9, 38, 0
1, 186720, Note_on_c, 9, 38, 110
1, 187199, Note_on_c, 9, 38, 0
1, 187680, Note_on_c, 9, 38, 110
1, 188159, Note_on_c, 9, 38, 0
1, 188640, Note_on_c, 9, 38, 110
1, 189119, Note_on_c, 9, 38, 0
1, 189600, Note_on_c, 9, 38, 110
1, 190079, Note_on_c, 9, 38, 0
1, 190560, Note_on_c, 9, 38, 110
1, 191039, Note_on_c, 9, 38, 0
1, 191520, Note_on_c, 9, 38, 110
1, 191999, Note_on_c, 9, 38, 0
1, 192480, Note_on_c, 9, 38, 110
1, 192959, Note_on_c, 9, 38, 0
1, 193440, Note_on_c, 9, 38, 110
1, 193919, Note_on_c, 9, 38, 0
1, 194400, Note_on_c, 9, 38, 110
1, 194879, Note_on_c, 9, 38, 0
1, 195360, Note_on_c, 9, 38, 110
1, 195839, Note_on_c, 9, 38, 0
1, 196320, Note_on_c, 9, 38, 110
1, 196799, Note_on_c, 9, 38, 0
1, 197280, Note_on_c, 9, 38, 110
1, 197759, Note_on_c, 9, 38, 0
1, 198240, Note_on_c, 9, 38, 110
1, 198719, Note_on_c, 9, 38, 0
1, 199200, Note_on_c, 9, 38, 110
1, 199679, Note_on_c, 9, 38, 0
1, 200160, Note_on_c, 9, 38, 110
1, 200639, Note_on_c, 9, 38, 0
1, 201120, Note_on_c, 9, 38, 110
1, 201599, Note_on_c, 9, 38, 0
1, 202080, Note_on_c, 9, 38, 110
1, 202559, Note_on_c, 9, 38, 0
1, 203040, Note_on_c, 9, 38, 110
1, 203519, Note_on_c, 9, 38, 0
1, 204000, Note_on_c, 9, 38, 110
1, 204479, Note_on_c, 9, 38, 0
1, 204960, Note_on_c, 9, 38, 110
1, 205439, Note_on_c, 9, 38, 0
1, 205920, Note_on_c, 9, 38, 110
1, 206399, Note_on_c, 9, 38, 0
1, 206880, Note_on_c, 9, 38, 110
1, 207359, Note_on_c, 9, 38, 0
1, 207840, Note_on_c, 9, 38, 110
1, 208319, Note_on_c, 9, 38, 0
1, 208800, Note_on_c, 9, 38, 110
1, 209279, Note_on_c, 9, 38, 0
1, 209760, Note_on_c, 9, 38, 110
1, 210239, Note_on_c, 9, 38, 0
1, 210720, Note_on_c, 9, 38, 110
1, 211199, Note_on_c, 9, 38, 0
1, 211680, Note_on_c, 9, 38, 110
1, 212159, Note_on_c, 9, 38, 0
1, 212640, Note_on_c, 9, 38, 110
1, 213119, Note_on_c, 9, 38, 0
1, 213600, Note_on_c, 9, 38, 110
1, 214079, Note_on_c, 9, 38, 0
1, 214560, Note_on_c, 9, 38, 110
1, 215039, Note_on_c, 9, 38, 0
1, 215520, Note_on_c, 9, 38, 110
1, 215999, Note_on_c, 9, 38, 0
1, 216480, Note_on_c, 9, 38, 110
1, 216959, Note_on_c, 9, 38, 0
1, 217440, Note_on_c, 9, 38, 110
1, 217919, Note_on_c, 9, 38, 0
1, 218400, Note_on_c, 9, 38, 110
1, 218879, Note_on_c, 9, 38, 0
1, 218880, End_track
0, 0, End_of_file
