0, 0, Header, 1, 1, 480
1, 0, Start_track
1, 0, Time_signature, 4, 2, 24, 8
1, 0, Key_signature, 0, "major"
1, 0, Tempo, 555556
1, 0, Control_c, 9, 121, 0
1, 0, Program_c, 9, 48
1, 0, Control_c, 9, 7, 120
1, 0, Control_c, 9, 10, 64
1, 0, Control_c, 9, 91, 0
1, 0, Control_c, 9, 93, 0
1, 0, MIDI_port, 0
1, 1440, Note_on_c, 9, 63, 110
1, 1919, Note_on_c, 9, 63, 0
1, 3360, Note_on_c, 9, 63, 110
1, 3839, Note_on_c, 9, 63, 0
1, 5280, Note_on_c, 9, 63, 110
1, 5759, Note_on_c, 9, 63, 0
1, 7200, Note_on_c, 9, 63, 110
1, 7679, Note_on_c, 9, 63, 0
1, 9120, Note_on_c, 9, 63, 110
1, 9599, Note_on_c, 9, 63, 0
1, 11040, Note_on_c, 9, 63, 110
1, 11519, Note_on_c, 9, 63, 0
1, 12960, Note_on_c, 9, 63, 110
1, 13439, Note_on_c, 9, 63, 0
1, 14880, Note_on_c, 9, 63, 110
1, 15359, Note_on_c, 9, 63, 0
1, 16800, Note_on_c, 9, 63, 110
1, 17279, Note_on_c, 9, 63, 0
1, 18720, Note_on_c, 9, 63, 110
1, 19199, Note_on_c, 9, 63, 0
1, 20640, Note_on_c, 9, 63, 110
1, 21119, Note_on_c, 9, 63, 0
1, 22560, Note_on_c, 9, 63, 110
1, 23039, Note_on_c, 9, 63, 0
1, 24480, Note_on_c, 9, 63, 110
1, 24959, Note_on_c, 9, 63, 0
1, 26400, Note_on_c, 9, 63, 110
1, 26879, Note_on_c, 9, 63, 0
1, 28320, Note_on_c, 9, 63, 110
1, 28799, Note_on_c, 9, 63, 0
1, 30240, Note_on_c, 9, 63, 110
1, 30719, Note_on_c, 9, 63, 0
1, 32160, Note_on_c, 9, 63, 110
1, 32639, Note_on_c, 9, 63, 0
1, 34080, Note_on_c, 9, 63, 110
1, 34559, Note_on_c, 9, 63, 0
1, 36000, Note_on_c, 9, 63, 110
1, 36479, Note_on_c, 9, 63, 0
1, 37920, Note_on_c, 9, 63, 110
1, 38399, Note_on_c, 9, 63, 0
1, 39840, Note_on_c, 9, 63, 110
1, 40319, Note_on_c, 9, 63, 0
1, 41760, Note_on_c, 9, 63, 110
1, 42239, Note_on_c, 9, 63, 0
1, 43680, Note_on_c, 9, 63, 110
1, 44159, Note_on_c, 9, 63, 0
1, 45600, Note_on_c, 9, 63, 110
1, 46079, Note_on_c, 9, 63, 0
1, 47520, Note_on_c, 9, 63, 110
1, 47999, Note_on_c, 9, 63, 0
1, 49440, Note_on_c, 9, 63, 110
1, 49919, Note_on_c, 9, 63, 0
1, 51360, Note_on_c, 9, 63, 110
1, 51839, Note_on_c, 9, 63, 0
1, 53280, Note_on_c, 9, 63, 110
1, 53759, Note_on_c, 9, 63, 0
1, 55200, Note_on_c, 9, 63, 110
1, 55679, Note_on_c, 9, 63, 0
1, 57120, Note_on_c, 9, 63, 110
1, 57599, Note_on_c, 9, 63, 0
1, 59040, Note_on_c, 9, 63, 110
1, 59519, Note_on_c, 9, 63, 0
1, 60960, Note_on_c, 9, 63, 110
1, 61439, Note_on_c, 9, 63, 0
1, 62880, Note_on_c, 9, 63, 110
1, 63359, Note_on_c, 9, 63, 0
1, 64800, Note_on_c, 9, 63, 110
1, 65279, Note_on_c, 9, 63, 0
1, 66720, Note_on_c, 9, 63, 110
1, 67199, Note_on_c, 9, 63, 0
1, 68640, Note_on_c, 9, 63, 110
1, 69119, Note_on_c, 9, 63, 0
1, 70560, Note_on_c, 9, 63, 110
1, 71039, Note_on_c, 9, 63, 0
1, 72480, Note_on_c, 9, 63, 110
1, 72959, Note_on_c, 9, 63, 0
1, 74400, Note_on_c, 9, 63, 110
1, 74879, Note_on_c, 9, 63, 0
1, 76320, Note_on_c, 9, 63, 110
1, 76799, Note_on_c, 9, 63, 0
1, 78240, Note_on_c, 9, 63, 110
1, 78719, Note_on_c, 9, 63, 0
1, 80160, Note_on_c, 9, 63, 110
1, 80639, Note_on_c, 9, 63, 0
1, 82080, Note_on_c, 9, 63, 110
1, 82559, Note_on_c, 9, 63, 0
1, 84000, Note_on_c, 9, 63, 110
1, 84479, Note_on_c, 9, 63, 0
1, 85920, Note_on_c, 9, 63, 110
1, 86399, Note_on_c, 9, 63, 0
1, 87840, Note_on_c, 9, 63, 110
1, 88319, Note_on_c, 9, 63, 0
1, 89760, Note_on_c, 9, 63, 110
1, 90239, Note_on_c, 9, 63, 0
1, 91680, Note_on_c, 9, 63, 110
1, 92159, Note_on_c, 9, 63, 0
1, 93600, Note_on_c, 9, 63, 110
1, 94079, Note_on_c, 9, 63, 0
1, 95520, Note_on_c, 9, 63, 110
1, 95999, Note_on_c, 9, 63, 0
1, 97440, Note_on_c, 9, 63, 110
1, 97919, Note_on_c, 9, 63, 0
1, 99360, Note_on_c, 9, 63, 110
1, 99839, Note_on_c, 9, 63, 0
1, 101280, Note_on_c, 9, 63, 110
1, 101759, Note_on_c, 9, 63, 0
1, 103200, Note_on_c, 9, 63, 110
1, 103679, Note_on_c, 9, 63, 0
1, 105120, Note_on_c, 9, 63, 110
1, 105599, Note_on_c, 9, 63, 0
1, 107040, Note_on_c, 9, 63, 110
1, 107519, Note_on_c, 9, 63, 0
1, 108960, Note_on_c, 9, 63, 110
1, 109439, Note_on_c, 9, 63, 0
1, 110880, Note_on_c, 9, 63, 110
1, 111359, Note_on_c, 9, 63, 0
1, 112800, Note_on_c, 9, 63, 110
1, 113279, Note_on_c, 9, 63, 0
1, 114720, Note_on_c, 9, 63, 110
1, 115199, Note_on_c, 9, 63, 0
1, 116640, Note_on_c, 9, 63, 110
1, 117119, Note_on_c, 9, 63, 0
1, 118560, Note_on_c, 9, 63, 110
1, 119039, Note_on_c, 9, 63, 0
1, 120480, Note_on_c, 9, 63, 110
1, 120959, Note_on_c, 9, 63, 0
1, 122400, Note_on_c, 9, 63, 110
1, 122879, Note_on_c, 9, 63, 0
1, 124320, Note_on_c, 9, 63, 110
1, 124799, Note_on_c, 9, 63, 0
1, 126240, Note_on_c, 9, 63, 110
1, 126719, Note_on_c, 9, 63, 0
1, 128160, Note_on_c, 9, 63, 110
1, 128639, Note_on_c, 9, 63, 0
1, 130080, Note_on_c, 9, 63, 110
1, 130559, Note_on_c, 9, 63, 0
1, 132000, Note_on_c, 9, 63, 110
1, 132479, Note_on_c, 9, 63, 0
1, 133920, Note_on_c, 9, 63, 110
1, 134399, Note_on_c, 9, 63, 0
1, 135840, Note_on_c, 9, 63, 110
1, 136319, Note_on_c, 9, 63, 0
1, 137760, Note_on_c, 9, 63, 110
1, 138239, Note_on_c, 9, 63, 0
1, 139680, Note_on_c, 9, 63, 110
1, 140159, Note_on_c, 9, 63, 0
1, 141600, Note_on_c, 9, 63, 110
1, 142079, Note_on_c, 9, 63, 0
1, 143520, Note_on_c, 9, 63, 110
1, 143999, Note_on_c, 9, 63, 0
1, 145440, Note_on_c, 9, 63, 110
1, 145919, Note_on_c, 9, 63, 0
1, 147360, Note_on_c, 9, 63, 110
1, 147839, Note_on_c, 9, 63, 0
1, 149280, Note_on_c, 9, 63, 110
1, 149759, Note_on_c, 9, 63, 0
1, 151200, Note_on_c, 9, 63, 110
1, 151679, Note_on_c, 9, 63, 0
1, 153120, Note_on_c, 9, 63, 110
1, 153599, Note_on_c, 9, 63, 0
1, 155040, Note_on_c, 9, 63, 110
1, 155519, Note_on_c, 9, 63, 0
1, 156960, Note_on_c, 9, 63, 110
1, 157439, Note_on_c, 9, 63, 0
1, 158880, Note_on_c, 9, 63, 110
1, 159359, Note_on_c, 9, 63, 0
1, 160800, Note_on_c, 9, 63, 110
1, 161279, Note_on_c, 9, 63, 0
1, 162720, Note_on_c, 9, 63, 110
1, 163199, Note_on_c, 9, 63, 0
1, 164640, Note_on_c, 9, 63, 110
1, 165119, Note_on_c, 9, 63, 0
1, 166560, Note_on_c, 9, 63, 110
1, 167039, Note_on_c, 9, 63, 0
1, 168480, Note_on_c, 9, 63, 110
1, 168959, Note_on_c, 9, 63, 0
1, 170400, Note_on_c, 9, 63, 110
1, 170879, Note_on_c, 9, 63, 0
1, 172320, Note_on_c, 9, 63, 110
1, 172799, Note_on_c, 9, 63, 0
1, 174240, Note_on_c, 9, 63, 110
1, 174719, Note_on_c, 9, 63, 0
1, 176160, Note_on_c, 9, 63, 110
1, 176639, Note_on_c, 9, 63, 0
1, 178080, Note_on_c, 9, 63, 110
1, 178559, Note_on_c, 9, 63, 0
1, 180000, Note_on_c, 9, 63, 110
1, 180479, Note_on_c, 9, 63, 0
1, 181920, Note_on_c, 9, 63, 110
1, 182399, Note_on_c, 9, 63, 0
1, 183840, Note_on_c, 9, 63, 110
1, 184319, Note_on_c, 9, 63, 0
1, 185760, Note_on_c, 9, 63, 110
1, 186239, Note_on_c, 9, 63, 0
1, 187680, Note_on_c, 9, 63, 110
1, 188159, Note_on_c, 9, 63, 0
1, 189600, Note_on_c, 9, 63, 110
1, 190079, Note_on_c, 9, 63, 0
1, 191520, Note_on_c, 9, 63, 110
1, 191999, Note_on_c, 9, 63, 0
1, 193440, Note_on_c, 9, 63, 110
1, 193919, Note_on_c, 9, 63, 0
1, 195360, Note_on_c, 9, 63, 110
1, 195839, Note_on_c, 9, 63, 0
1, 195840, End_track
0, 0, End_of_file
