0, 0, Header, 1, 1, 480
1, 0, Start_track
1, 0, Time_signature, 4, 2, 24, 8
1, 0, Key_signature, 0, "major"
1, 0, Tempo, 500000
1, 0, Control_c, 9, 121, 0
1, 0, Program_c, 9, 48
1, 0, Control_c, 9, 7, 100
1, 0, Control_c, 9, 10, 64
1, 0, Control_c, 9, 91, 0
1, 0, Control_c, 9, 93, 0
1, 0, MIDI_port, 1
1, 19520, Note_on_c, 9, 40, 92
1, 19559, Note_on_c, 9, 40, 0
1, 19880, Note_on_c, 9, 40, 92
1, 19919, Note_on_c, 9, 40, 0
1, 23360, Note_on_c, 9, 40, 92
1, 23399, Note_on_c, 9, 40, 0
1, 23480, Note_on_c, 9, 40, 92
1, 23519, Note_on_c, 9, 40, 0
1, 23600, Note_on_c, 9, 40, 92
1, 23639, Note_on_c, 9, 40, 0
1, 24320, Note_on_c, 9, 40, 92
1, 24359, Note_on_c, 9, 40, 0
1, 24560, Note_on_c, 9, 40, 92
1, 24599, Note_on_c, 9, 40, 0
1, 24800, Note_on_c, 9, 40, 92
1, 24839, Note_on_c, 9, 40, 0
1, 25520, Note_on_c, 9, 40, 92
1, 25559, Note_on_c, 9, 40, 0
1, 26480, Note_on_c, 9, 40, 92
1, 26519, Note_on_c, 9, 40, 0
1, 27440, Note_on_c, 9, 40, 92
1, 27479, Note_on_c, 9, 40, 0
1, 28400, Note_on_c, 9, 40, 92
1, 28439, Note_on_c, 9, 40, 0
1, 29360, Note_on_c, 9, 40, 92
1, 29399, Note_on_c, 9, 40, 0
1, 30320, Note_on_c, 9, 40, 92
1, 30359, Note_on_c, 9, 40, 0
1, 31280, Note_on_c, 9, 40, 92
1, 31319, Note_on_c, 9, 40, 0
1, 32000, Note_on_c, 9, 40, 92
1, 32039, Note_on_c, 9, 40, 0
1, 32240, Note_on_c, 9, 40, 92
1, 32279, Note_on_c, 9, 40, 0
1, 32480, Note_on_c, 9, 40, 92
1, 32519, Note_on_c, 9, 40, 0
1, 33200, Note_on_c, 9, 40, 92
1, 33239, Note_on_c, 9, 40, 0
1, 34160, Note_on_c, 9, 40, 92
1, 34199, Note_on_c, 9, 40, 0
1, 35120, Note_on_c, 9, 40, 92
1, 35159, Note_on_c, 9, 40, 0
1, 36080, Note_on_c, 9, 40, 92
1, 36119, Note_on_c, 9, 40, 0
1, 37040, Note_on_c, 9, 40, 92
1, 37079, Note_on_c, 9, 40, 0
1, 38000, Note_on_c, 9, 40, 92
1, 38039, Note_on_c, 9, 40, 0
1, 38960, Note_on_c, 9, 40, 92
1, 38999, Note_on_c, 9, 40, 0
1, 39920, Note_on_c, 9, 40, 92
1, 39959, Note_on_c, 9, 40, 0
1, 40880, Note_on_c, 9, 40, 92
1, 40919, Note_on_c, 9, 40, 0
1, 41840, Note_on_c, 9, 40, 92
1, 41879, Note_on_c, 9, 40, 0
1, 42800, Note_on_c, 9, 40, 92
1, 42839, Note_on_c, 9, 40, 0
1, 43760, Note_on_c, 9, 40, 92
1, 43799, Note_on_c, 9, 40, 0
1, 44720, Note_on_c, 9, 40, 92
1, 44759, Note_on_c, 9, 40, 0
1, 45680, Note_on_c, 9, 40, 92
1, 45719, Note_on_c, 9, 40, 0
1, 46640, Note_on_c, 9, 40, 92
1, 46679, Note_on_c, 9, 40, 0
1, 47360, Note_on_c, 9, 40, 92
1, 47399, Note_on_c, 9, 40, 0
1, 47600, Note_on_c, 9, 40, 92
1, 47639, Note_on_c, 9, 40, 0
1, 47840, Note_on_c, 9, 40, 92
1, 47879, Note_on_c, 9, 40, 0
1, 48560, Note_on_c, 9, 40, 92
1, 48599, Note_on_c, 9, 40, 0
1, 49520, Note_on_c, 9, 40, 92
1, 49559, Note_on_c, 9, 40, 0
1, 50480, Note_on_c, 9, 40, 92
1, 50519, Note_on_c, 9, 40, 0
1, 51440, Note_on_c, 9, 40, 92
1, 51479, Note_on_c, 9, 40, 0
1, 52400, Note_on_c, 9, 40, 92
1, 52439, Note_on_c, 9, 40, 0
1, 53360, Note_on_c, 9, 40, 92
1, 53399, Note_on_c, 9, 40, 0
1, 54320, Note_on_c, 9, 40, 92
1, 54359, Note_on_c, 9, 40, 0
1, 55280, Note_on_c, 9, 40, 92
1, 55319, Note_on_c, 9, 40, 0
1, 56240, Note_on_c, 9, 40, 92
1, 56279, Note_on_c, 9, 40, 0
1, 57200, Note_on_c, 9, 40, 92
1, 57239, Note_on_c, 9, 40, 0
1, 58160, Note_on_c, 9, 40, 92
1, 58199, Note_on_c, 9, 40, 0
1, 59120, Note_on_c, 9, 40, 92
1, 59159, Note_on_c, 9, 40, 0
1, 60080, Note_on_c, 9, 40, 92
1, 60119, Note_on_c, 9, 40, 0
1, 61040, Note_on_c, 9, 40, 92
1, 61079, Note_on_c, 9, 40, 0
1, 62000, Note_on_c, 9, 40, 92
1, 62039, Note_on_c, 9, 40, 0
1, 62720, Note_on_c, 9, 40, 92
1, 62759, Note_on_c, 9, 40, 0
1, 63200, Note_on_c, 9, 40, 92
1, 63239, Note_on_c, 9, 40, 0
1, 63440, Note_on_c, 9, 40, 92
1, 63479, Note_on_c, 9, 40, 0
1, 63920, Note_on_c, 9, 40, 92
1, 63959, Note_on_c, 9, 40, 0
1, 65840, Note_on_c, 9, 40, 92
1, 65879, Note_on_c, 9, 40, 0
1, 66800, Note_on_c, 9, 40, 92
1, 66839, Note_on_c, 9, 40, 0
1, 67760, Note_on_c, 9, 40, 92
1, 67799, Note_on_c, 9, 40, 0
1, 68720, Note_on_c, 9, 40, 92
1, 68759, Note_on_c, 9, 40, 0
1, 69680, Note_on_c, 9, 40, 92
1, 69719, Note_on_c, 9, 40, 0
1, 70640, Note_on_c, 9, 40, 92
1, 70679, Note_on_c, 9, 40, 0
1, 71600, Note_on_c, 9, 40, 92
1, 71639, Note_on_c, 9, 40, 0
1, 72560, Note_on_c, 9, 40, 92
1, 72599, Note_on_c, 9, 40, 0
1, 73520, Note_on_c, 9, 40, 92
1, 73559, Note_on_c, 9, 40, 0
1, 74480, Note_on_c, 9, 40, 92
1, 74519, Note_on_c, 9, 40, 0
1, 75440, Note_on_c, 9, 40, 92
1, 75479, Note_on_c, 9, 40, 0
1, 76400, Note_on_c, 9, 40, 92
1, 76439, Note_on_c, 9, 40, 0
1, 77360, Note_on_c, 9, 40, 92
1, 77399, Note_on_c, 9, 40, 0
1, 78320, Note_on_c, 9, 40, 92
1, 78359, Note_on_c, 9, 40, 0
1, 79280, Note_on_c, 9, 40, 92
1, 79319, Note_on_c, 9, 40, 0
1, 80240, Note_on_c, 9, 40, 92
1, 80279, Note_on_c, 9, 40, 0
1, 81200, Note_on_c, 9, 40, 92
1, 81239, Note_on_c, 9, 40, 0
1, 82160, Note_on_c, 9, 40, 92
1, 82199, Note_on_c, 9, 40, 0
1, 83120, Note_on_c, 9, 40, 92
1, 83159, Note_on_c, 9, 40, 0
1, 84080, Note_on_c, 9, 40, 92
1, 84119, Note_on_c, 9, 40, 0
1, 85040, Note_on_c, 9, 40, 92
1, 85079, Note_on_c, 9, 40, 0
1, 86000, Note_on_c, 9, 40, 92
1, 86039, Note_on_c, 9, 40, 0
1, 86960, Note_on_c, 9, 40, 92
1, 86999, Note_on_c, 9, 40, 0
1, 87920, Note_on_c, 9, 40, 92
1, 87959, Note_on_c, 9, 40, 0
1, 88880, Note_on_c, 9, 40, 92
1, 88919, Note_on_c, 9, 40, 0
1, 89840, Note_on_c, 9, 40, 92
1, 89879, Note_on_c, 9, 40, 0
1, 90800, Note_on_c, 9, 40, 92
1, 90839, Note_on_c, 9, 40, 0
1, 91520, Note_on_c, 9, 40, 92
1, 91559, Note_on_c, 9, 40, 0
1, 91760, Note_on_c, 9, 40, 92
1, 91799, Note_on_c, 9, 40, 0
1, 92000, Note_on_c, 9, 40, 92
1, 92039, Note_on_c, 9, 40, 0
1, 92720, Note_on_c, 9, 40, 92
1, 92759, Note_on_c, 9, 40, 0
1, 93680, Note_on_c, 9, 40, 92
1, 93719, Note_on_c, 9, 40, 0
1, 94640, Note_on_c, 9, 40, 92
1, 94679, Note_on_c, 9, 40, 0
1, 95600, Note_on_c, 9, 40, 92
1, 95639, Note_on_c, 9, 40, 0
1, 96560, Note_on_c, 9, 40, 92
1, 96599, Note_on_c, 9, 40, 0
1, 97520, Note_on_c, 9, 40, 92
1, 97559, Note_on_c, 9, 40, 0
1, 98240, Note_on_c, 9, 40, 92
1, 98279, Note_on_c, 9, 40, 0
1, 98360, Note_on_c, 9, 40, 92
1, 98399, Note_on_c, 9, 40, 0
1, 98480, Note_on_c, 9, 40, 92
1, 98519, Note_on_c, 9, 40, 0
1, 99200, Note_on_c, 9, 40, 92
1, 99239, Note_on_c, 9, 40, 0
1, 99440, Note_on_c, 9, 40, 92
1, 99479, Note_on_c, 9, 40, 0
1, 99680, Note_on_c, 9, 40, 92
1, 99719, Note_on_c, 9, 40, 0
1, 100400, Note_on_c, 9, 40, 92
1, 100439, Note_on_c, 9, 40, 0
1, 101360, Note_on_c, 9, 40, 92
1, 101399, Note_on_c, 9, 40, 0
1, 102320, Note_on_c, 9, 40, 92
1, 102359, Note_on_c, 9, 40, 0
1, 103280, Note_on_c, 9, 40, 92
1, 103319, Note_on_c, 9, 40, 0
1, 104240, Note_on_c, 9, 40, 92
1, 104279, Note_on_c, 9, 40, 0
1, 105200, Note_on_c, 9, 40, 92
1, 105239, Note_on_c, 9, 40, 0
1, 106160, Note_on_c, 9, 40, 92
1, 106199, Note_on_c, 9, 40, 0
1, 107120, Note_on_c, 9, 40, 92
1, 107159, Note_on_c, 9, 40, 0
1, 108080, Note_on_c, 9, 40, 92
1, 108119, Note_on_c, 9, 40, 0
1, 109040, Note_on_c, 9, 40, 92
1, 109079, Note_on_c, 9, 40, 0
1, 110000, Note_on_c, 9, 40, 92
1, 110039, Note_on_c, 9, 40, 0
1, 110960, Note_on_c, 9, 40, 92
1, 110999, Note_on_c, 9, 40, 0
1, 111920, Note_on_c, 9, 40, 92
1, 111959, Note_on_c, 9, 40, 0
1, 112880, Note_on_c, 9, 40, 92
1, 112919, Note_on_c, 9, 40, 0
1, 113840, Note_on_c, 9, 40, 92
1, 113879, Note_on_c, 9, 40, 0
1, 114560, Note_on_c, 9, 40, 92
1, 114599, Note_on_c, 9, 40, 0
1, 114800, Note_on_c, 9, 40, 92
1, 114839, Note_on_c, 9, 40, 0
1, 115040, Note_on_c, 9, 40, 92
1, 115079, Note_on_c, 9, 40, 0
1, 115760, Note_on_c, 9, 40, 92
1, 115799, Note_on_c, 9, 40, 0
1, 116720, Note_on_c, 9, 40, 92
1, 116759, Note_on_c, 9, 40, 0
1, 117680, Note_on_c, 9, 40, 92
1, 117719, Note_on_c, 9, 40, 0
1, 118640, Note_on_c, 9, 40, 92
1, 118679, Note_on_c, 9, 40, 0
1, 119600, Note_on_c, 9, 40, 92
1, 119639, Note_on_c, 9, 40, 0
1, 120560, Note_on_c, 9, 40, 92
1, 120599, Note_on_c, 9, 40, 0
1, 121520, Note_on_c, 9, 40, 92
1, 121559, Note_on_c, 9, 40, 0
1, 122480, Note_on_c, 9, 40, 92
1, 122519, Note_on_c, 9, 40, 0
1, 123440, Note_on_c, 9, 40, 92
1, 123479, Note_on_c, 9, 40, 0
1, 124400, Note_on_c, 9, 40, 92
1, 124439, Note_on_c, 9, 40, 0
1, 125360, Note_on_c, 9, 40, 92
1, 125399, Note_on_c, 9, 40, 0
1, 126320, Note_on_c, 9, 40, 92
1, 126359, Note_on_c, 9, 40, 0
1, 127280, Note_on_c, 9, 40, 92
1, 127319, Note_on_c, 9, 40, 0
1, 128240, Note_on_c, 9, 40, 92
1, 128279, Note_on_c, 9, 40, 0
1, 129200, Note_on_c, 9, 40, 92
1, 129239, Note_on_c, 9, 40, 0
1, 129920, Note_on_c, 9, 40, 92
1, 129959, Note_on_c, 9, 40, 0
1, 130400, Note_on_c, 9, 40, 92
1, 130439, Note_on_c, 9, 40, 0
1, 130640, Note_on_c, 9, 40, 92
1, 130679, Note_on_c, 9, 40, 0
1, 131120, Note_on_c, 9, 40, 92
1, 131159, Note_on_c, 9, 40, 0
1, 133040, Note_on_c, 9, 40, 92
1, 133079, Note_on_c, 9, 40, 0
1, 134000, Note_on_c, 9, 40, 92
1, 134039, Note_on_c, 9, 40, 0
1, 134960, Note_on_c, 9, 40, 92
1, 134999, Note_on_c, 9, 40, 0
1, 135920, Note_on_c, 9, 40, 92
1, 135959, Note_on_c, 9, 40, 0
1, 136880, Note_on_c, 9, 40, 92
1, 136919, Note_on_c, 9, 40, 0
1, 137840, Note_on_c, 9, 40, 92
1, 137879, Note_on_c, 9, 40, 0
1, 138800, Note_on_c, 9, 40, 92
1, 138839, Note_on_c, 9, 40, 0
1, 139760, Note_on_c, 9, 40, 92
1, 139799, Note_on_c, 9, 40, 0
1, 140720, Note_on_c, 9, 40, 92
1, 140759, Note_on_c, 9, 40, 0
1, 141680, Note_on_c, 9, 40, 92
1, 141719, Note_on_c, 9, 40, 0
1, 142640, Note_on_c, 9, 40, 92
1, 142679, Note_on_c, 9, 40, 0
1, 143600, Note_on_c, 9, 40, 92
1, 143639, Note_on_c, 9, 40, 0
1, 144560, Note_on_c, 9, 40, 92
1, 144599, Note_on_c, 9, 40, 0
1, 145520, Note_on_c, 9, 40, 92
1, 145559, Note_on_c, 9, 40, 0
1, 146480, Note_on_c, 9, 40, 92
1, 146519, Note_on_c, 9, 40, 0
1, 147440, Note_on_c, 9, 40, 92
1, 147479, Note_on_c, 9, 40, 0
1, 148400, Note_on_c, 9, 40, 92
1, 148439, Note_on_c, 9, 40, 0
1, 149360, Note_on_c, 9, 40, 92
1, 149399, Note_on_c, 9, 40, 0
1, 150320, Note_on_c, 9, 40, 92
1, 150359, Note_on_c, 9, 40, 0
1, 151280, Note_on_c, 9, 40, 92
1, 151319, Note_on_c, 9, 40, 0
1, 152240, Note_on_c, 9, 40, 92
1, 152279, Note_on_c, 9, 40, 0
1, 153200, Note_on_c, 9, 40, 92
1, 153239, Note_on_c, 9, 40, 0
1, 154160, Note_on_c, 9, 40, 92
1, 154199, Note_on_c, 9, 40, 0
1, 155120, Note_on_c, 9, 40, 92
1, 155159, Note_on_c, 9, 40, 0
1, 156080, Note_on_c, 9, 40, 92
1, 156119, Note_on_c, 9, 40, 0
1, 157040, Note_on_c, 9, 40, 92
1, 157079, Note_on_c, 9, 40, 0
1, 158000, Note_on_c, 9, 40, 92
1, 158039, Note_on_c, 9, 40, 0
1, 158960, Note_on_c, 9, 40, 92
1, 158999, Note_on_c, 9, 40, 0
1, 175280, Note_on_c, 9, 40, 92
1, 175319, Note_on_c, 9, 40, 0
1, 176240, Note_on_c, 9, 40, 92
1, 176279, Note_on_c, 9, 40, 0
1, 177200, Note_on_c, 9, 40, 92
1, 177239, Note_on_c, 9, 40, 0
1, 178160, Note_on_c, 9, 40, 92
1, 178199, Note_on_c, 9, 40, 0
1, 179120, Note_on_c, 9, 40, 92
1, 179159, Note_on_c, 9, 40, 0
1, 180080, Note_on_c, 9, 40, 92
1, 180119, Note_on_c, 9, 40, 0
1, 181040, Note_on_c, 9, 40, 92
1, 181079, Note_on_c, 9, 40, 0
1, 182000, Note_on_c, 9, 40, 92
1, 182039, Note_on_c, 9, 40, 0
1, 182240, Note_on_c, 9, 40, 92
1, 182279, Note_on_c, 9, 40, 0
1, 182360, Note_on_c, 9, 40, 92
1, 182399, Note_on_c, 9, 40, 0
1, 182960, Note_on_c, 9, 40, 92
1, 182999, Note_on_c, 9, 40, 0
1, 183920, Note_on_c, 9, 40, 92
1, 183959, Note_on_c, 9, 40, 0
1, 184880, Note_on_c, 9, 40, 92
1, 184919, Note_on_c, 9, 40, 0
1, 185840, Note_on_c, 9, 40, 92
1, 185879, Note_on_c, 9, 40, 0
1, 186800, Note_on_c, 9, 40, 92
1, 186839, Note_on_c, 9, 40, 0
1, 187760, Note_on_c, 9, 40, 92
1, 187799, Note_on_c, 9, 40, 0
1, 188480, Note_on_c, 9, 40, 92
1, 188519, Note_on_c, 9, 40, 0
1, 188600, Note_on_c, 9, 40, 92
1, 188639, Note_on_c, 9, 40, 0
1, 188720, Note_on_c, 9, 40, 92
1, 188759, Note_on_c, 9, 40, 0
1, 189440, Note_on_c, 9, 40, 92
1, 189479, Note_on_c, 9, 40, 0
1, 189680, Note_on_c, 9, 40, 92
1, 189719, Note_on_c, 9, 40, 0
1, 189920, Note_on_c, 9, 40, 92
1, 189959, Note_on_c, 9, 40, 0
1, 190640, Note_on_c, 9, 40, 92
1, 190679, Note_on_c, 9, 40, 0
1, 191600, Note_on_c, 9, 40, 92
1, 191639, Note_on_c, 9, 40, 0
1, 192560, Note_on_c, 9, 40, 92
1, 192599, Note_on_c, 9, 40, 0
1, 193520, Note_on_c, 9, 40, 92
1, 193559, Note_on_c, 9, 40, 0
1, 194480, Note_on_c, 9, 40, 92
1, 194519, Note_on_c, 9, 40, 0
1, 195440, Note_on_c, 9, 40, 92
1, 195479, Note_on_c, 9, 40, 0
1, 196400, Note_on_c, 9, 40, 92
1, 196439, Note_on_c, 9, 40, 0
1, 197360, Note_on_c, 9, 40, 92
1, 197399, Note_on_c, 9, 40, 0
1, 198320, Note_on_c, 9, 40, 92
1, 198359, Note_on_c, 9, 40, 0
1, 199280, Note_on_c, 9, 40, 92
1, 199319, Note_on_c, 9, 40, 0
1, 200240, Note_on_c, 9, 40, 92
1, 200279, Note_on_c, 9, 40, 0
1, 201200, Note_on_c, 9, 40, 92
1, 201239, Note_on_c, 9, 40, 0
1, 202160, Note_on_c, 9, 40, 92
1, 202199, Note_on_c, 9, 40, 0
1, 203120, Note_on_c, 9, 40, 92
1, 203159, Note_on_c, 9, 40, 0
1, 204080, Note_on_c, 9, 40, 92
1, 204119, Note_on_c, 9, 40, 0
1, 204800, Note_on_c, 9, 40, 92
1, 204839, Note_on_c, 9, 40, 0
1, 205280, Note_on_c, 9, 40, 92
1, 205319, Note_on_c, 9, 40, 0
1, 205520, Note_on_c, 9, 40, 92
1, 205559, Note_on_c, 9, 40, 0
1, 206000, Note_on_c, 9, 40, 92
1, 206039, Note_on_c, 9, 40, 0
1, 209360, Note_on_c, 9, 40, 92
1, 209399, Note_on_c, 9, 40, 0
1, 209840, Note_on_c, 9, 40, 92
1, 209879, Note_on_c, 9, 40, 0
1, 211760, Note_on_c, 9, 40, 92
1, 211799, Note_on_c, 9, 40, 0
1, 212720, Note_on_c, 9, 40, 92
1, 212759, Note_on_c, 9, 40, 0
1, 213680, Note_on_c, 9, 40, 92
1, 213719, Note_on_c, 9, 40, 0
1, 214640, Note_on_c, 9, 40, 92
1, 214679, Note_on_c, 9, 40, 0
1, 215600, Note_on_c, 9, 40, 92
1, 215639, Note_on_c, 9, 40, 0
1, 216560, Note_on_c, 9, 40, 92
1, 216599, Note_on_c, 9, 40, 0
1, 217520, Note_on_c, 9, 40, 92
1, 217559, Note_on_c, 9, 40, 0
1, 218480, Note_on_c, 9, 40, 92
1, 218519, Note_on_c, 9, 40, 0
1, 219440, Note_on_c, 9, 40, 92
1, 219479, Note_on_c, 9, 40, 0
1, 220400, Note_on_c, 9, 40, 92
1, 220439, Note_on_c, 9, 40, 0
1, 221360, Note_on_c, 9, 40, 92
1, 221399, Note_on_c, 9, 40, 0
1, 222320, Note_on_c, 9, 40, 92
1, 222359, Note_on_c, 9, 40, 0
1, 223280, Note_on_c, 9, 40, 92
1, 223319, Note_on_c, 9, 40, 0
1, 224240, Note_on_c, 9, 40, 92
1, 224279, Note_on_c, 9, 40, 0
1, 225200, Note_on_c, 9, 40, 92
1, 225239, Note_on_c, 9, 40, 0
1, 226160, Note_on_c, 9, 40, 92
1, 226199, Note_on_c, 9, 40, 0
1, 227120, Note_on_c, 9, 40, 92
1, 227159, Note_on_c, 9, 40, 0
1, 228080, Note_on_c, 9, 40, 92
1, 228119, Note_on_c, 9, 40, 0
1, 229040, Note_on_c, 9, 40, 92
1, 229079, Note_on_c, 9, 40, 0
1, 230000, Note_on_c, 9, 40, 92
1, 230039, Note_on_c, 9, 40, 0
1, 230960, Note_on_c, 9, 40, 92
1, 230999, Note_on_c, 9, 40, 0
1, 231920, Note_on_c, 9, 40, 92
1, 231959, Note_on_c, 9, 40, 0
1, 232880, Note_on_c, 9, 40, 92
1, 232919, Note_on_c, 9, 40, 0
1, 233840, Note_on_c, 9, 40, 92
1, 233879, Note_on_c, 9, 40, 0
1, 234800, Note_on_c, 9, 40, 92
1, 234839, Note_on_c, 9, 40, 0
1, 235760, Note_on_c, 9, 40, 92
1, 235799, Note_on_c, 9, 40, 0
1, 236720, Note_on_c, 9, 40, 92
1, 236759, Note_on_c, 9, 40, 0
1, 237440, Note_on_c, 9, 40, 92
1, 237479, Note_on_c, 9, 40, 0
1, 237680, Note_on_c, 9, 40, 92
1, 237719, Note_on_c, 9, 40, 0
1, 238640, Note_on_c, 9, 40, 92
1, 238679, Note_on_c, 9, 40, 0
1, 239600, Note_on_c, 9, 40, 92
1, 239639, Note_on_c, 9, 40, 0
1, 240560, Note_on_c, 9, 40, 92
1, 240599, Note_on_c, 9, 40, 0
1, 241280, Note_on_c, 9, 40, 92
1, 241319, Note_on_c, 9, 40, 0
1, 241520, Note_on_c, 9, 40, 92
1, 241559, Note_on_c, 9, 40, 0
1, 242480, Note_on_c, 9, 40, 92
1, 242519, Note_on_c, 9, 40, 0
1, 243440, Note_on_c, 9, 40, 92
1, 243479, Note_on_c, 9, 40, 0
1, 243920, Note_on_c, 9, 40, 92
1, 243959, Note_on_c, 9, 40, 0
1, 244400, Note_on_c, 9, 40, 92
1, 244439, Note_on_c, 9, 40, 0
1, 245240, Note_on_c, 9, 40, 92
1, 245279, Note_on_c, 9, 40, 0
1, 245360, Note_on_c, 9, 40, 92
1, 245399, Note_on_c, 9, 40, 0
1, 245600, Note_on_c, 9, 40, 92
1, 245639, Note_on_c, 9, 40, 0
1, 246320, Note_on_c, 9, 40, 92
1, 246359, Note_on_c, 9, 40, 0
1, 247280, Note_on_c, 9, 40, 92
1, 247319, Note_on_c, 9, 40, 0
1, 248240, Note_on_c, 9, 40, 92
1, 248279, Note_on_c, 9, 40, 0
1, 249200, Note_on_c, 9, 40, 92
1, 249239, Note_on_c, 9, 40, 0
1, 250160, Note_on_c, 9, 40, 92
1, 250199, Note_on_c, 9, 40, 0
1, 251120, Note_on_c, 9, 40, 92
1, 251159, Note_on_c, 9, 40, 0
1, 252080, Note_on_c, 9, 40, 92
1, 252119, Note_on_c, 9, 40, 0
1, 253040, Note_on_c, 9, 40, 92
1, 253079, Note_on_c, 9, 40, 0
1, 254000, Note_on_c, 9, 40, 92
1, 254039, Note_on_c, 9, 40, 0
1, 254960, Note_on_c, 9, 40, 92
1, 254999, Note_on_c, 9, 40, 0
1, 255920, Note_on_c, 9, 40, 92
1, 255959, Note_on_c, 9, 40, 0
1, 256880, Note_on_c, 9, 40, 92
1, 256919, Note_on_c, 9, 40, 0
1, 257840, Note_on_c, 9, 40, 92
1, 257879, Note_on_c, 9, 40, 0
1, 258800, Note_on_c, 9, 40, 92
1, 258839, Note_on_c, 9, 40, 0
1, 259760, Note_on_c, 9, 40, 92
1, 259799, Note_on_c, 9, 40, 0
1, 260720, Note_on_c, 9, 40, 92
1, 260759, Note_on_c, 9, 40, 0
1, 261680, Note_on_c, 9, 40, 92
1, 261719, Note_on_c, 9, 40, 0
1, 262640, Note_on_c, 9, 40, 92
1, 262679, Note_on_c, 9, 40, 0
1, 263600, Note_on_c, 9, 40, 92
1, 263639, Note_on_c, 9, 40, 0
1, 264560, Note_on_c, 9, 40, 92
1, 264599, Note_on_c, 9, 40, 0
1, 265520, Note_on_c, 9, 40, 92
1, 265559, Note_on_c, 9, 40, 0
1, 266480, Note_on_c, 9, 40, 92
1, 266519, Note_on_c, 9, 40, 0
1, 267440, Note_on_c, 9, 40, 92
1, 267479, Note_on_c, 9, 40, 0
1, 268400, Note_on_c, 9, 40, 92
1, 268439, Note_on_c, 9, 40, 0
1, 269360, Note_on_c, 9, 40, 92
1, 269399, Note_on_c, 9, 40, 0
1, 270320, Note_on_c, 9, 40, 92
1, 270359, Note_on_c, 9, 40, 0
1, 271280, Note_on_c, 9, 40, 92
1, 271319, Note_on_c, 9, 40, 0
1, 272240, Note_on_c, 9, 40, 92
1, 272279, Note_on_c, 9, 40, 0
1, 273200, Note_on_c, 9, 40, 92
1, 273239, Note_on_c, 9, 40, 0
1, 274160, Note_on_c, 9, 40, 92
1, 274199, Note_on_c, 9, 40, 0
1, 275120, Note_on_c, 9, 40, 92
1, 275159, Note_on_c, 9, 40, 0
1, 276080, Note_on_c, 9, 40, 92
1, 276119, Note_on_c, 9, 40, 0
1, 277040, Note_on_c, 9, 40, 92
1, 277079, Note_on_c, 9, 40, 0
1, 278000, Note_on_c, 9, 40, 92
1, 278039, Note_on_c, 9, 40, 0
1, 278480, Note_on_c, 9, 40, 92
1, 278519, Note_on_c, 9, 40, 0
1, 278960, Note_on_c, 9, 40, 92_
1, 278999, Note_on_c, 9, 40, 0
1, 279800, Note_on_c, 9, 40, 92
1, 279839, Note_on_c, 9, 40, 0
1, 279920, Note_on_c, 9, 40, 92
1, 279959, Note_on_c, 9, 40, 0
1, 280160, Note_on_c, 9, 40, 92
1, 280199, Note_on_c, 9, 40, 0
1, 280400, Note_on_c, 9, 40, 85
1, 280439, Note_on_c, 9, 40, 0
1, 280640, Note_on_c, 9, 40, 103
1, 280679, Note_on_c, 9, 40, 0
1, 280680, End_track
0, 0, End_of_file
