0, 0, Header, 1, 1, 480
1, 0, Start_track
1, 0, Time_signature, 4, 2, 24, 8
1, 0, Key_signature, 0, "major"
1, 0, Tempo, 483871
1, 0, Control_c, 9, 121, 0
1, 0, Program_c, 9, 0
1, 0, Control_c, 9, 7, 100
1, 0, Control_c, 9, 10, 64
1, 0, Control_c, 9, 91, 0
1, 0, Control_c, 9, 93, 0
1, 0, MIDI_port, 0
1, 17280, Note_on_c, 9, 36, 127
1, 17519, Note_on_c, 9, 36, 0
1, 17520, Note_on_c, 9, 36, 127
1, 17759, Note_on_c, 9, 36, 0
1, 18240, Note_on_c, 9, 36, 123
1, 18479, Note_on_c, 9, 36, 0
1, 18480, Note_on_c, 9, 36, 123
1, 18719, Note_on_c, 9, 36, 0
1, 19200, Note_on_c, 9, 36, 127
1, 19439, Note_on_c, 9, 36, 0
1, 19440, Note_on_c, 9, 36, 117
1, 19679, Note_on_c, 9, 36, 0
1, 19920, Note_on_c, 9, 36, 127
1, 20159, Note_on_c, 9, 36, 0
1, 20400, Note_on_c, 9, 36, 127
1, 20639, Note_on_c, 9, 36, 0
1, 20880, Note_on_c, 9, 36, 117
1, 21119, Note_on_c, 9, 36, 0
1, 21120, Note_on_c, 9, 36, 127
1, 21359, Note_on_c, 9, 36, 0
1, 21360, Note_on_c, 9, 36, 127
1, 21599, Note_on_c, 9, 36, 0
1, 22080, Note_on_c, 9, 36, 127
1, 22319, Note_on_c, 9, 36, 0
1, 22320, Note_on_c, 9, 36, 123
1, 22559, Note_on_c, 9, 36, 0
1, 23040, Note_on_c, 9, 36, 127
1, 23279, Note_on_c, 9, 36, 0
1, 23280, Note_on_c, 9, 36, 123
1, 23519, Note_on_c, 9, 36, 0
1, 23760, Note_on_c, 9, 36, 127
1, 23999, Note_on_c, 9, 36, 0
1, 24240, Note_on_c, 9, 36, 127
1, 24479, Note_on_c, 9, 36, 0
1, 24720, Note_on_c, 9, 36, 123
1, 24959, Note_on_c, 9, 36, 0
1, 24960, Note_on_c, 9, 36, 127
1, 25199, Note_on_c, 9, 36, 0
1, 25200, Note_on_c, 9, 36, 127
1, 25439, Note_on_c, 9, 36, 0
1, 25920, Note_on_c, 9, 36, 123
1, 26159, Note_on_c, 9, 36, 0
1, 26160, Note_on_c, 9, 36, 123
1, 26399, Note_on_c, 9, 36, 0
1, 26880, Note_on_c, 9, 36, 127
1, 27119, Note_on_c, 9, 36, 0
1, 27120, Note_on_c, 9, 36, 117
1, 27359, Note_on_c, 9, 36, 0
1, 27600, Note_on_c, 9, 36, 127
1, 27839, Note_on_c, 9, 36, 0
1, 28080, Note_on_c, 9, 36, 127
1, 28319, Note_on_c, 9, 36, 0
1, 28560, Note_on_c, 9, 36, 117
1, 28799, Note_on_c, 9, 36, 0
1, 28800, Note_on_c, 9, 36, 127
1, 29039, Note_on_c, 9, 36, 0
1, 29040, Note_on_c, 9, 36, 127
1, 29279, Note_on_c, 9, 36, 0
1, 29760, Note_on_c, 9, 36, 127
1, 29999, Note_on_c, 9, 36, 0
1, 30000, Note_on_c, 9, 36, 123
1, 30239, Note_on_c, 9, 36, 0
1, 30720, Note_on_c, 9, 36, 127
1, 30959, Note_on_c, 9, 36, 0
1, 30960, Note_on_c, 9, 36, 123
1, 31199, Note_on_c, 9, 36, 0
1, 31440, Note_on_c, 9, 36, 127
1, 31679, Note_on_c, 9, 36, 0
1, 31680, Note_on_c, 9, 36, 99
1, 31919, Note_on_c, 9, 36, 0
1, 31920, Note_on_c, 9, 36, 127
1, 32159, Note_on_c, 9, 36, 0
1, 32400, Note_on_c, 9, 36, 123
1, 32639, Note_on_c, 9, 36, 0
1, 32640, Note_on_c, 9, 36, 127
1, 32879, Note_on_c, 9, 36, 0
1, 32880, Note_on_c, 9, 36, 127
1, 33119, Note_on_c, 9, 36, 0
1, 33600, Note_on_c, 9, 36, 123
1, 33839, Note_on_c, 9, 36, 0
1, 33840, Note_on_c, 9, 36, 123
1, 34079, Note_on_c, 9, 36, 0
1, 34560, Note_on_c, 9, 36, 127
1, 34799, Note_on_c, 9, 36, 0
1, 34800, Note_on_c, 9, 36, 117
1, 35039, Note_on_c, 9, 36, 0
1, 35280, Note_on_c, 9, 36, 127
1, 35519, Note_on_c, 9, 36, 0
1, 35760, Note_on_c, 9, 36, 127
1, 35999, Note_on_c, 9, 36, 0
1, 36240, Note_on_c, 9, 36, 117
1, 36479, Note_on_c, 9, 36, 0
1, 36480, Note_on_c, 9, 36, 127
1, 36719, Note_on_c, 9, 36, 0
1, 36720, Note_on_c, 9, 36, 127
1, 36959, Note_on_c, 9, 36, 0
1, 37440, Note_on_c, 9, 36, 127
1, 37679, Note_on_c, 9, 36, 0
1, 37680, Note_on_c, 9, 36, 123
1, 37919, Note_on_c, 9, 36, 0
1, 38400, Note_on_c, 9, 36, 127
1, 38639, Note_on_c, 9, 36, 0
1, 38640, Note_on_c, 9, 36, 123
1, 38879, Note_on_c, 9, 36, 0
1, 39120, Note_on_c, 9, 36, 127
1, 39359, Note_on_c, 9, 36, 0
1, 39600, Note_on_c, 9, 36, 127
1, 39839, Note_on_c, 9, 36, 0
1, 40080, Note_on_c, 9, 36, 123
1, 40319, Note_on_c, 9, 36, 0
1, 40320, Note_on_c, 9, 36, 127
1, 40559, Note_on_c, 9, 36, 0
1, 40560, Note_on_c, 9, 36, 127
1, 40799, Note_on_c, 9, 36, 0
1, 41280, Note_on_c, 9, 36, 123
1, 41519, Note_on_c, 9, 36, 0
1, 41520, Note_on_c, 9, 36, 123
1, 41759, Note_on_c, 9, 36, 0
1, 42240, Note_on_c, 9, 36, 127
1, 42479, Note_on_c, 9, 36, 0
1, 42480, Note_on_c, 9, 36, 117
1, 42719, Note_on_c, 9, 36, 0
1, 42960, Note_on_c, 9, 36, 127
1, 43199, Note_on_c, 9, 36, 0
1, 43440, Note_on_c, 9, 36, 127
1, 43679, Note_on_c, 9, 36, 0
1, 43920, Note_on_c, 9, 36, 117
1, 44159, Note_on_c, 9, 36, 0
1, 44160, Note_on_c, 9, 36, 127
1, 44399, Note_on_c, 9, 36, 0
1, 44400, Note_on_c, 9, 36, 127
1, 44639, Note_on_c, 9, 36, 0
1, 45120, Note_on_c, 9, 36, 127
1, 45359, Note_on_c, 9, 36, 0
1, 45360, Note_on_c, 9, 36, 123
1, 45599, Note_on_c, 9, 36, 0
1, 46080, Note_on_c, 9, 36, 127
1, 46319, Note_on_c, 9, 36, 0
1, 46320, Note_on_c, 9, 36, 123
1, 46559, Note_on_c, 9, 36, 0
1, 46800, Note_on_c, 9, 36, 127
1, 47039, Note_on_c, 9, 36, 0
1, 47280, Note_on_c, 9, 36, 127
1, 47519, Note_on_c, 9, 36, 0
1, 47760, Note_on_c, 9, 36, 123
1, 47999, Note_on_c, 9, 36, 0
1, 48000, Note_on_c, 9, 36, 127
1, 48239, Note_on_c, 9, 36, 0
1, 48240, Note_on_c, 9, 36, 127
1, 48479, Note_on_c, 9, 36, 0
1, 48960, Note_on_c, 9, 36, 123
1, 49199, Note_on_c, 9, 36, 0
1, 49200, Note_on_c, 9, 36, 123
1, 49439, Note_on_c, 9, 36, 0
1, 49920, Note_on_c, 9, 36, 127
1, 50159, Note_on_c, 9, 36, 0
1, 50160, Note_on_c, 9, 36, 117
1, 50399, Note_on_c, 9, 36, 0
1, 50640, Note_on_c, 9, 36, 127
1, 50879, Note_on_c, 9, 36, 0
1, 51120, Note_on_c, 9, 36, 127
1, 51359, Note_on_c, 9, 36, 0
1, 51600, Note_on_c, 9, 36, 117
1, 51839, Note_on_c, 9, 36, 0
1, 51840, Note_on_c, 9, 36, 127
1, 52079, Note_on_c, 9, 36, 0
1, 52080, Note_on_c, 9, 36, 127
1, 52319, Note_on_c, 9, 36, 0
1, 52800, Note_on_c, 9, 36, 127
1, 53039, Note_on_c, 9, 36, 0
1, 53040, Note_on_c, 9, 36, 123
1, 53279, Note_on_c, 9, 36, 0
1, 53760, Note_on_c, 9, 36, 127
1, 53999, Note_on_c, 9, 36, 0
1, 54000, Note_on_c, 9, 36, 123
1, 54239, Note_on_c, 9, 36, 0
1, 54480, Note_on_c, 9, 36, 127
1, 54719, Note_on_c, 9, 36, 0
1, 54960, Note_on_c, 9, 36, 127
1, 55199, Note_on_c, 9, 36, 0
1, 55440, Note_on_c, 9, 36, 123
1, 55679, Note_on_c, 9, 36, 0
1, 55680, Note_on_c, 9, 36, 127
1, 55919, Note_on_c, 9, 36, 0
1, 55920, Note_on_c, 9, 36, 127
1, 56159, Note_on_c, 9, 36, 0
1, 56640, Note_on_c, 9, 36, 123
1, 56879, Note_on_c, 9, 36, 0
1, 56880, Note_on_c, 9, 36, 123
1, 57119, Note_on_c, 9, 36, 0
1, 57600, Note_on_c, 9, 36, 127
1, 57839, Note_on_c, 9, 36, 0
1, 57840, Note_on_c, 9, 36, 117
1, 58079, Note_on_c, 9, 36, 0
1, 58320, Note_on_c, 9, 36, 127
1, 58559, Note_on_c, 9, 36, 0
1, 58800, Note_on_c, 9, 36, 127
1, 59039, Note_on_c, 9, 36, 0
1, 59280, Note_on_c, 9, 36, 117
1, 59519, Note_on_c, 9, 36, 0
1, 59520, Note_on_c, 9, 36, 127
1, 59759, Note_on_c, 9, 36, 0
1, 59760, Note_on_c, 9, 36, 127
1, 59999, Note_on_c, 9, 36, 0
1, 60480, Note_on_c, 9, 36, 127
1, 60719, Note_on_c, 9, 36, 0
1, 60720, Note_on_c, 9, 36, 123
1, 60959, Note_on_c, 9, 36, 0
1, 61440, Note_on_c, 9, 36, 127
1, 61679, Note_on_c, 9, 36, 0
1, 61680, Note_on_c, 9, 36, 123
1, 61919, Note_on_c, 9, 36, 0
1, 62160, Note_on_c, 9, 36, 127
1, 62399, Note_on_c, 9, 36, 0
1, 62640, Note_on_c, 9, 36, 127
1, 62879, Note_on_c, 9, 36, 0
1, 63120, Note_on_c, 9, 36, 123
1, 63359, Note_on_c, 9, 36, 0
1, 63360, Note_on_c, 9, 36, 127
1, 63599, Note_on_c, 9, 36, 0
1, 63600, Note_on_c, 9, 36, 127
1, 63839, Note_on_c, 9, 36, 0
1, 64320, Note_on_c, 9, 36, 123
1, 64559, Note_on_c, 9, 36, 0
1, 64560, Note_on_c, 9, 36, 123
1, 64799, Note_on_c, 9, 36, 0
1, 65280, Note_on_c, 9, 36, 127
1, 65519, Note_on_c, 9, 36, 0
1, 65520, Note_on_c, 9, 36, 117
1, 65759, Note_on_c, 9, 36, 0
1, 66000, Note_on_c, 9, 36, 127
1, 66239, Note_on_c, 9, 36, 0
1, 66480, Note_on_c, 9, 36, 127
1, 66719, Note_on_c, 9, 36, 0
1, 66960, Note_on_c, 9, 36, 117
1, 67199, Note_on_c, 9, 36, 0
1, 67200, Note_on_c, 9, 36, 127
1, 67439, Note_on_c, 9, 36, 0
1, 67440, Note_on_c, 9, 36, 127
1, 67679, Note_on_c, 9, 36, 0
1, 68160, Note_on_c, 9, 36, 127
1, 68399, Note_on_c, 9, 36, 0
1, 68400, Note_on_c, 9, 36, 123
1, 68639, Note_on_c, 9, 36, 0
1, 69120, Note_on_c, 9, 36, 127
1, 69359, Note_on_c, 9, 36, 0
1, 69360, Note_on_c, 9, 36, 123
1, 69599, Note_on_c, 9, 36, 0
1, 69840, Note_on_c, 9, 36, 127
1, 70079, Note_on_c, 9, 36, 0
1, 70320, Note_on_c, 9, 36, 127
1, 70559, Note_on_c, 9, 36, 0
1, 70800, Note_on_c, 9, 36, 123
1, 71039, Note_on_c, 9, 36, 0
1, 71040, Note_on_c, 9, 36, 127
1, 71279, Note_on_c, 9, 36, 0
1, 71280, Note_on_c, 9, 36, 127
1, 71519, Note_on_c, 9, 36, 0
1, 72000, Note_on_c, 9, 36, 123
1, 72239, Note_on_c, 9, 36, 0
1, 72240, Note_on_c, 9, 36, 123
1, 72479, Note_on_c, 9, 36, 0
1, 72960, Note_on_c, 9, 36, 127
1, 73199, Note_on_c, 9, 36, 0
1, 73200, Note_on_c, 9, 36, 117
1, 73439, Note_on_c, 9, 36, 0
1, 73680, Note_on_c, 9, 36, 127
1, 73919, Note_on_c, 9, 36, 0
1, 74160, Note_on_c, 9, 36, 127
1, 74399, Note_on_c, 9, 36, 0
1, 74640, Note_on_c, 9, 36, 117
1, 74879, Note_on_c, 9, 36, 0
1, 74880, Note_on_c, 9, 36, 127
1, 75119, Note_on_c, 9, 36, 0
1, 75120, Note_on_c, 9, 36, 127
1, 75359, Note_on_c, 9, 36, 0
1, 75840, Note_on_c, 9, 36, 127
1, 76079, Note_on_c, 9, 36, 0
1, 76080, Note_on_c, 9, 36, 123
1, 76319, Note_on_c, 9, 36, 0
1, 76800, Note_on_c, 9, 36, 127
1, 77039, Note_on_c, 9, 36, 0
1, 77040, Note_on_c, 9, 36, 123
1, 77279, Note_on_c, 9, 36, 0
1, 77520, Note_on_c, 9, 36, 127
1, 77759, Note_on_c, 9, 36, 0
1, 78000, Note_on_c, 9, 36, 127
1, 78239, Note_on_c, 9, 36, 0
1, 78480, Note_on_c, 9, 36, 123
1, 78719, Note_on_c, 9, 36, 0
1, 78720, Note_on_c, 9, 36, 127
1, 78959, Note_on_c, 9, 36, 0
1, 78960, Note_on_c, 9, 36, 127
1, 79199, Note_on_c, 9, 36, 0
1, 79680, Note_on_c, 9, 36, 123
1, 79919, Note_on_c, 9, 36, 0
1, 79920, Note_on_c, 9, 36, 123
1, 80159, Note_on_c, 9, 36, 0
1, 80640, Note_on_c, 9, 36, 127
1, 80879, Note_on_c, 9, 36, 0
1, 80880, Note_on_c, 9, 36, 117
1, 81119, Note_on_c, 9, 36, 0
1, 81360, Note_on_c, 9, 36, 127
1, 81599, Note_on_c, 9, 36, 0
1, 81840, Note_on_c, 9, 36, 127
1, 82079, Note_on_c, 9, 36, 0
1, 82320, Note_on_c, 9, 36, 117
1, 82559, Note_on_c, 9, 36, 0
1, 82560, Note_on_c, 9, 36, 127
1, 82799, Note_on_c, 9, 36, 0
1, 82800, Note_on_c, 9, 36, 127
1, 83039, Note_on_c, 9, 36, 0
1, 83520, Note_on_c, 9, 36, 127
1, 83759, Note_on_c, 9, 36, 0
1, 83760, Note_on_c, 9, 36, 123
1, 83999, Note_on_c, 9, 36, 0
1, 84480, Note_on_c, 9, 36, 127
1, 84719, Note_on_c, 9, 36, 0
1, 84720, Note_on_c, 9, 36, 123
1, 84959, Note_on_c, 9, 36, 0
1, 85200, Note_on_c, 9, 36, 127
1, 85439, Note_on_c, 9, 36, 0
1, 85680, Note_on_c, 9, 36, 127
1, 85919, Note_on_c, 9, 36, 0
1, 86160, Note_on_c, 9, 36, 123
1, 86399, Note_on_c, 9, 36, 0
1, 86400, Note_on_c, 9, 36, 127
1, 86639, Note_on_c, 9, 36, 0
1, 86640, Note_on_c, 9, 36, 127
1, 86879, Note_on_c, 9, 36, 0
1, 87360, Note_on_c, 9, 36, 123
1, 87599, Note_on_c, 9, 36, 0
1, 87600, Note_on_c, 9, 36, 123
1, 87839, Note_on_c, 9, 36, 0
1, 88320, Note_on_c, 9, 36, 127
1, 88559, Note_on_c, 9, 36, 0
1, 88560, Note_on_c, 9, 36, 117
1, 88799, Note_on_c, 9, 36, 0
1, 89040, Note_on_c, 9, 36, 127
1, 89279, Note_on_c, 9, 36, 0
1, 89520, Note_on_c, 9, 36, 127
1, 89759, Note_on_c, 9, 36, 0
1, 90000, Note_on_c, 9, 36, 117
1, 90239, Note_on_c, 9, 36, 0
1, 90240, Note_on_c, 9, 36, 127
1, 90479, Note_on_c, 9, 36, 0
1, 90480, Note_on_c, 9, 36, 127
1, 90719, Note_on_c, 9, 36, 0
1, 91200, Note_on_c, 9, 36, 127
1, 91439, Note_on_c, 9, 36, 0
1, 91440, Note_on_c, 9, 36, 123
1, 91679, Note_on_c, 9, 36, 0
1, 92160, Note_on_c, 9, 36, 127
1, 92399, Note_on_c, 9, 36, 0
1, 92400, Note_on_c, 9, 36, 123
1, 92639, Note_on_c, 9, 36, 0
1, 92880, Note_on_c, 9, 36, 127
1, 93119, Note_on_c, 9, 36, 0
1, 93120, Note_on_c, 9, 36, 99
1, 93359, Note_on_c, 9, 36, 0
1, 93360, Note_on_c, 9, 36, 127
1, 93599, Note_on_c, 9, 36, 0
1, 93840, Note_on_c, 9, 36, 123
1, 94079, Note_on_c, 9, 36, 0
1, 94080, Note_on_c, 9, 36, 127
1, 94319, Note_on_c, 9, 36, 0
1, 94320, Note_on_c, 9, 36, 127
1, 94559, Note_on_c, 9, 36, 0
1, 95040, Note_on_c, 9, 36, 123
1, 95279, Note_on_c, 9, 36, 0
1, 95280, Note_on_c, 9, 36, 123
1, 95519, Note_on_c, 9, 36, 0
1, 96000, Note_on_c, 9, 36, 127
1, 96239, Note_on_c, 9, 36, 0
1, 96240, Note_on_c, 9, 36, 117
1, 96479, Note_on_c, 9, 36, 0
1, 96720, Note_on_c, 9, 36, 127
1, 96959, Note_on_c, 9, 36, 0
1, 97200, Note_on_c, 9, 36, 127
1, 97439, Note_on_c, 9, 36, 0
1, 97680, Note_on_c, 9, 36, 117
1, 97919, Note_on_c, 9, 36, 0
1, 97920, Note_on_c, 9, 36, 127
1, 98159, Note_on_c, 9, 36, 0
1, 98160, Note_on_c, 9, 36, 127
1, 98399, Note_on_c, 9, 36, 0
1, 98880, Note_on_c, 9, 36, 127
1, 99119, Note_on_c, 9, 36, 0
1, 99120, Note_on_c, 9, 36, 123
1, 99359, Note_on_c, 9, 36, 0
1, 99840, Note_on_c, 9, 36, 127
1, 100079, Note_on_c, 9, 36, 0
1, 100080, Note_on_c, 9, 36, 123
1, 100319, Note_on_c, 9, 36, 0
1, 100560, Note_on_c, 9, 36, 127
1, 100799, Note_on_c, 9, 36, 0
1, 101040, Note_on_c, 9, 36, 127
1, 101279, Note_on_c, 9, 36, 0
1, 101520, Note_on_c, 9, 36, 123
1, 101759, Note_on_c, 9, 36, 0
1, 101760, Note_on_c, 9, 36, 127
1, 101999, Note_on_c, 9, 36, 0
1, 102000, Note_on_c, 9, 36, 127
1, 102239, Note_on_c, 9, 36, 0
1, 102720, Note_on_c, 9, 36, 123
1, 102959, Note_on_c, 9, 36, 0
1, 102960, Note_on_c, 9, 36, 123
1, 103199, Note_on_c, 9, 36, 0
1, 103680, Note_on_c, 9, 36, 127
1, 103919, Note_on_c, 9, 36, 0
1, 103920, Note_on_c, 9, 36, 117
1, 104159, Note_on_c, 9, 36, 0
1, 104400, Note_on_c, 9, 36, 127
1, 104639, Note_on_c, 9, 36, 0
1, 104880, Note_on_c, 9, 36, 127
1, 105119, Note_on_c, 9, 36, 0
1, 105360, Note_on_c, 9, 36, 117
1, 105599, Note_on_c, 9, 36, 0
1, 105600, Note_on_c, 9, 36, 127
1, 105839, Note_on_c, 9, 36, 0
1, 105840, Note_on_c, 9, 36, 127
1, 106079, Note_on_c, 9, 36, 0
1, 106560, Note_on_c, 9, 36, 127
1, 106799, Note_on_c, 9, 36, 0
1, 106800, Note_on_c, 9, 36, 123
1, 107039, Note_on_c, 9, 36, 0
1, 108240, Note_on_c, 9, 36, 127
1, 108479, Note_on_c, 9, 36, 0
1, 108720, Note_on_c, 9, 36, 127
1, 108959, Note_on_c, 9, 36, 0
1, 108960, Note_on_c, 9, 36, 127
1, 109439, Note_on_c, 9, 36, 0
1, 109440, Time_signature, 2, 2, 24, 8
1, 110400, Time_signature, 4, 2, 24, 8
1, 110400, Note_on_c, 9, 36, 127
1, 110639, Note_on_c, 9, 36, 0
1, 110640, Note_on_c, 9, 36, 127
1, 110879, Note_on_c, 9, 36, 0
1, 111360, Note_on_c, 9, 36, 123
1, 111599, Note_on_c, 9, 36, 0
1, 111600, Note_on_c, 9, 36, 123
1, 111839, Note_on_c, 9, 36, 0
1, 112320, Note_on_c, 9, 36, 127
1, 112559, Note_on_c, 9, 36, 0
1, 112560, Note_on_c, 9, 36, 117
1, 112799, Note_on_c, 9, 36, 0
1, 113040, Note_on_c, 9, 36, 127
1, 113279, Note_on_c, 9, 36, 0
1, 113520, Note_on_c, 9, 36, 127
1, 113759, Note_on_c, 9, 36, 0
1, 114000, Note_on_c, 9, 36, 117
1, 114239, Note_on_c, 9, 36, 0
1, 114240, Note_on_c, 9, 36, 127
1, 114479, Note_on_c, 9, 36, 0
1, 114480, Note_on_c, 9, 36, 127
1, 114719, Note_on_c, 9, 36, 0
1, 115200, Note_on_c, 9, 36, 127
1, 115439, Note_on_c, 9, 36, 0
1, 115440, Note_on_c, 9, 36, 123
1, 115679, Note_on_c, 9, 36, 0
1, 116160, Note_on_c, 9, 36, 127
1, 116399, Note_on_c, 9, 36, 0
1, 116400, Note_on_c, 9, 36, 123
1, 116639, Note_on_c, 9, 36, 0
1, 116880, Note_on_c, 9, 36, 127
1, 117119, Note_on_c, 9, 36, 0
1, 117360, Note_on_c, 9, 36, 127
1, 117599, Note_on_c, 9, 36, 0
1, 117840, Note_on_c, 9, 36, 123
1, 118079, Note_on_c, 9, 36, 0
1, 118080, Note_on_c, 9, 36, 127
1, 118319, Note_on_c, 9, 36, 0
1, 118320, Note_on_c, 9, 36, 127
1, 118559, Note_on_c, 9, 36, 0
1, 119040, Note_on_c, 9, 36, 123
1, 119279, Note_on_c, 9, 36, 0
1, 119280, Note_on_c, 9, 36, 123
1, 119519, Note_on_c, 9, 36, 0
1, 120000, Note_on_c, 9, 36, 127
1, 120239, Note_on_c, 9, 36, 0
1, 120240, Note_on_c, 9, 36, 117
1, 120479, Note_on_c, 9, 36, 0
1, 120720, Note_on_c, 9, 36, 127
1, 120959, Note_on_c, 9, 36, 0
1, 121200, Note_on_c, 9, 36, 127
1, 121439, Note_on_c, 9, 36, 0
1, 121680, Note_on_c, 9, 36, 117
1, 121919, Note_on_c, 9, 36, 0
1, 121920, Note_on_c, 9, 36, 127
1, 122159, Note_on_c, 9, 36, 0
1, 122160, Note_on_c, 9, 36, 127
1, 122399, Note_on_c, 9, 36, 0
1, 122880, Note_on_c, 9, 36, 127
1, 123119, Note_on_c, 9, 36, 0
1, 123120, Note_on_c, 9, 36, 123
1, 123359, Note_on_c, 9, 36, 0
1, 123840, Note_on_c, 9, 36, 127
1, 124079, Note_on_c, 9, 36, 0
1, 124080, Note_on_c, 9, 36, 123
1, 124319, Note_on_c, 9, 36, 0
1, 124560, Note_on_c, 9, 36, 127
1, 124799, Note_on_c, 9, 36, 0
1, 124800, Note_on_c, 9, 36, 99
1, 125039, Note_on_c, 9, 36, 0
1, 125040, Note_on_c, 9, 36, 127
1, 125279, Note_on_c, 9, 36, 0
1, 125520, Note_on_c, 9, 36, 123
1, 125759, Note_on_c, 9, 36, 0
1, 125760, Note_on_c, 9, 36, 127
1, 125999, Note_on_c, 9, 36, 0
1, 126000, Note_on_c, 9, 36, 127
1, 126239, Note_on_c, 9, 36, 0
1, 126720, Note_on_c, 9, 36, 123
1, 126959, Note_on_c, 9, 36, 0
1, 126960, Note_on_c, 9, 36, 123
1, 127199, Note_on_c, 9, 36, 0
1, 127680, Note_on_c, 9, 36, 127
1, 127919, Note_on_c, 9, 36, 0
1, 127920, Note_on_c, 9, 36, 117
1, 128159, Note_on_c, 9, 36, 0
1, 128400, Note_on_c, 9, 36, 127
1, 128639, Note_on_c, 9, 36, 0
1, 128880, Note_on_c, 9, 36, 127
1, 129119, Note_on_c, 9, 36, 0
1, 129360, Note_on_c, 9, 36, 117
1, 129599, Note_on_c, 9, 36, 0
1, 129600, Note_on_c, 9, 36, 127
1, 129839, Note_on_c, 9, 36, 0
1, 129840, Note_on_c, 9, 36, 127
1, 130079, Note_on_c, 9, 36, 0
1, 130560, Note_on_c, 9, 36, 127
1, 130799, Note_on_c, 9, 36, 0
1, 130800, Note_on_c, 9, 36, 123
1, 131039, Note_on_c, 9, 36, 0
1, 131520, Note_on_c, 9, 36, 127
1, 131759, Note_on_c, 9, 36, 0
1, 131760, Note_on_c, 9, 36, 123
1, 131999, Note_on_c, 9, 36, 0
1, 132240, Note_on_c, 9, 36, 127
1, 132479, Note_on_c, 9, 36, 0
1, 132720, Note_on_c, 9, 36, 127
1, 132959, Note_on_c, 9, 36, 0
1, 133200, Note_on_c, 9, 36, 123
1, 133439, Note_on_c, 9, 36, 0
1, 133440, Note_on_c, 9, 36, 127
1, 133679, Note_on_c, 9, 36, 0
1, 133680, Note_on_c, 9, 36, 127
1, 133919, Note_on_c, 9, 36, 0
1, 134400, Note_on_c, 9, 36, 123
1, 134639, Note_on_c, 9, 36, 0
1, 134640, Note_on_c, 9, 36, 123
1, 134879, Note_on_c, 9, 36, 0
1, 135360, Note_on_c, 9, 36, 127
1, 135599, Note_on_c, 9, 36, 0
1, 135600, Note_on_c, 9, 36, 117
1, 135839, Note_on_c, 9, 36, 0
1, 136080, Note_on_c, 9, 36, 127
1, 136319, Note_on_c, 9, 36, 0
1, 136560, Note_on_c, 9, 36, 127
1, 136799, Note_on_c, 9, 36, 0
1, 137040, Note_on_c, 9, 36, 117
1, 137279, Note_on_c, 9, 36, 0
1, 137280, Note_on_c, 9, 36, 127
1, 137519, Note_on_c, 9, 36, 0
1, 137520, Note_on_c, 9, 36, 127
1, 137759, Note_on_c, 9, 36, 0
1, 138240, Note_on_c, 9, 36, 127
1, 138479, Note_on_c, 9, 36, 0
1, 138480, Note_on_c, 9, 36, 123
1, 138719, Note_on_c, 9, 36, 0
1, 139200, Note_on_c, 9, 36, 127
1, 139439, Note_on_c, 9, 36, 0
1, 139440, Note_on_c, 9, 36, 123
1, 139679, Note_on_c, 9, 36, 0
1, 139920, Note_on_c, 9, 36, 127
1, 140159, Note_on_c, 9, 36, 0
1, 140400, Note_on_c, 9, 36, 127
1, 140639, Note_on_c, 9, 36, 0
1, 140880, Note_on_c, 9, 36, 123
1, 141119, Note_on_c, 9, 36, 0
1, 141120, Note_on_c, 9, 36, 127
1, 141359, Note_on_c, 9, 36, 0
1, 141360, Note_on_c, 9, 36, 127
1, 141599, Note_on_c, 9, 36, 0
1, 142080, Note_on_c, 9, 36, 123
1, 142319, Note_on_c, 9, 36, 0
1, 142320, Note_on_c, 9, 36, 123
1, 142559, Note_on_c, 9, 36, 0
1, 143040, Note_on_c, 9, 36, 127
1, 143279, Note_on_c, 9, 36, 0
1, 143280, Note_on_c, 9, 36, 117
1, 143519, Note_on_c, 9, 36, 0
1, 143760, Note_on_c, 9, 36, 127
1, 143999, Note_on_c, 9, 36, 0
1, 144240, Note_on_c, 9, 36, 127
1, 144479, Note_on_c, 9, 36, 0
1, 144720, Note_on_c, 9, 36, 117
1, 144959, Note_on_c, 9, 36, 0
1, 144960, Note_on_c, 9, 36, 127
1, 145199, Note_on_c, 9, 36, 0
1, 145200, Note_on_c, 9, 36, 127
1, 145439, Note_on_c, 9, 36, 0
1, 145920, Note_on_c, 9, 36, 127
1, 146159, Note_on_c, 9, 36, 0
1, 146160, Note_on_c, 9, 36, 123
1, 146399, Note_on_c, 9, 36, 0
1, 146880, Note_on_c, 9, 36, 127
1, 147119, Note_on_c, 9, 36, 0
1, 147120, Note_on_c, 9, 36, 123
1, 147359, Note_on_c, 9, 36, 0
1, 147600, Note_on_c, 9, 36, 127
1, 147839, Note_on_c, 9, 36, 0
1, 148080, Note_on_c, 9, 36, 127
1, 148319, Note_on_c, 9, 36, 0
1, 148560, Note_on_c, 9, 36, 123
1, 148799, Note_on_c, 9, 36, 0
1, 148800, Note_on_c, 9, 36, 127
1, 149039, Note_on_c, 9, 36, 0
1, 149040, Note_on_c, 9, 36, 127
1, 149279, Note_on_c, 9, 36, 0
1, 149760, Note_on_c, 9, 36, 123
1, 149999, Note_on_c, 9, 36, 0
1, 150000, Note_on_c, 9, 36, 123
1, 150239, Note_on_c, 9, 36, 0
1, 150720, Note_on_c, 9, 36, 127
1, 150959, Note_on_c, 9, 36, 0
1, 150960, Note_on_c, 9, 36, 117
1, 151199, Note_on_c, 9, 36, 0
1, 151440, Note_on_c, 9, 36, 127
1, 151679, Note_on_c, 9, 36, 0
1, 151920, Note_on_c, 9, 36, 127
1, 152159, Note_on_c, 9, 36, 0
1, 152400, Note_on_c, 9, 36, 117
1, 152639, Note_on_c, 9, 36, 0
1, 152640, Note_on_c, 9, 36, 127
1, 152879, Note_on_c, 9, 36, 0
1, 152880, Note_on_c, 9, 36, 127
1, 153119, Note_on_c, 9, 36, 0
1, 153600, Note_on_c, 9, 36, 127
1, 153839, Note_on_c, 9, 36, 0
1, 153840, Note_on_c, 9, 36, 123
1, 154079, Note_on_c, 9, 36, 0
1, 154560, Note_on_c, 9, 36, 127
1, 154799, Note_on_c, 9, 36, 0
1, 154800, Note_on_c, 9, 36, 123
1, 155039, Note_on_c, 9, 36, 0
1, 155280, Note_on_c, 9, 36, 127
1, 155519, Note_on_c, 9, 36, 0
1, 155760, Note_on_c, 9, 36, 127
1, 155999, Note_on_c, 9, 36, 0
1, 156240, Note_on_c, 9, 36, 123
1, 156479, Note_on_c, 9, 36, 0
1, 156480, Note_on_c, 9, 36, 127
1, 156719, Note_on_c, 9, 36, 0
1, 156720, Note_on_c, 9, 36, 127
1, 156959, Note_on_c, 9, 36, 0
1, 157440, Note_on_c, 9, 36, 123
1, 157679, Note_on_c, 9, 36, 0
1, 157680, Note_on_c, 9, 36, 123
1, 157919, Note_on_c, 9, 36, 0
1, 158400, Note_on_c, 9, 36, 127
1, 158639, Note_on_c, 9, 36, 0
1, 158640, Note_on_c, 9, 36, 117
1, 158879, Note_on_c, 9, 36, 0
1, 159120, Note_on_c, 9, 36, 127
1, 159359, Note_on_c, 9, 36, 0
1, 159600, Note_on_c, 9, 36, 127
1, 159839, Note_on_c, 9, 36, 0
1, 160080, Note_on_c, 9, 36, 117
1, 160319, Note_on_c, 9, 36, 0
1, 160320, Note_on_c, 9, 36, 127
1, 160559, Note_on_c, 9, 36, 0
1, 160560, Note_on_c, 9, 36, 127
1, 160799, Note_on_c, 9, 36, 0
1, 161280, Note_on_c, 9, 36, 127
1, 161519, Note_on_c, 9, 36, 0
1, 161520, Note_on_c, 9, 36, 123
1, 161759, Note_on_c, 9, 36, 0
1, 162240, Note_on_c, 9, 36, 127
1, 162479, Note_on_c, 9, 36, 0
1, 162480, Note_on_c, 9, 36, 123
1, 162719, Note_on_c, 9, 36, 0
1, 162960, Note_on_c, 9, 36, 127
1, 163199, Note_on_c, 9, 36, 0
1, 163440, Note_on_c, 9, 36, 127
1, 163679, Note_on_c, 9, 36, 0
1, 163920, Note_on_c, 9, 36, 123
1, 164159, Note_on_c, 9, 36, 0
1, 164160, Note_on_c, 9, 36, 127
1, 164399, Note_on_c, 9, 36, 0
1, 164400, Note_on_c, 9, 36, 127
1, 164639, Note_on_c, 9, 36, 0
1, 165120, Note_on_c, 9, 36, 123
1, 165359, Note_on_c, 9, 36, 0
1, 165360, Note_on_c, 9, 36, 123
1, 165599, Note_on_c, 9, 36, 0
1, 166080, Note_on_c, 9, 36, 127
1, 166319, Note_on_c, 9, 36, 0
1, 166320, Note_on_c, 9, 36, 117
1, 166559, Note_on_c, 9, 36, 0
1, 166800, Note_on_c, 9, 36, 127
1, 167039, Note_on_c, 9, 36, 0
1, 167280, Note_on_c, 9, 36, 127
1, 167519, Note_on_c, 9, 36, 0
1, 167760, Note_on_c, 9, 36, 117
1, 167999, Note_on_c, 9, 36, 0
1, 168000, Note_on_c, 9, 36, 127
1, 168239, Note_on_c, 9, 36, 0
1, 168240, Note_on_c, 9, 36, 127
1, 168479, Note_on_c, 9, 36, 0
1, 168960, Note_on_c, 9, 36, 127
1, 169199, Note_on_c, 9, 36, 0
1, 169200, Note_on_c, 9, 36, 123
1, 169439, Note_on_c, 9, 36, 0
1, 169920, Note_on_c, 9, 36, 127
1, 170159, Note_on_c, 9, 36, 0
1, 170160, Note_on_c, 9, 36, 123
1, 170399, Note_on_c, 9, 36, 0
1, 170640, Note_on_c, 9, 36, 127
1, 170879, Note_on_c, 9, 36, 0
1, 170880, Note_on_c, 9, 36, 99
1, 171119, Note_on_c, 9, 36, 0
1, 171120, Note_on_c, 9, 36, 127
1, 171359, Note_on_c, 9, 36, 0
1, 171600, Note_on_c, 9, 36, 123
1, 171839, Note_on_c, 9, 36, 0
1, 171840, Note_on_c, 9, 36, 127
1, 172079, Note_on_c, 9, 36, 0
1, 172080, Note_on_c, 9, 36, 127
1, 172319, Note_on_c, 9, 36, 0
1, 172800, Note_on_c, 9, 36, 123
1, 173039, Note_on_c, 9, 36, 0
1, 173040, Note_on_c, 9, 36, 123
1, 173279, Note_on_c, 9, 36, 0
1, 173760, Note_on_c, 9, 36, 127
1, 173999, Note_on_c, 9, 36, 0
1, 174000, Note_on_c, 9, 36, 117
1, 174239, Note_on_c, 9, 36, 0
1, 174480, Note_on_c, 9, 36, 127
1, 174719, Note_on_c, 9, 36, 0
1, 174960, Note_on_c, 9, 36, 127
1, 175199, Note_on_c, 9, 36, 0
1, 175440, Note_on_c, 9, 36, 117
1, 175679, Note_on_c, 9, 36, 0
1, 175680, Note_on_c, 9, 36, 127
1, 175919, Note_on_c, 9, 36, 0
1, 175920, Note_on_c, 9, 36, 127
1, 176159, Note_on_c, 9, 36, 0
1, 176640, Note_on_c, 9, 36, 127
1, 176879, Note_on_c, 9, 36, 0
1, 176880, Note_on_c, 9, 36, 123
1, 177119, Note_on_c, 9, 36, 0
1, 177600, Note_on_c, 9, 36, 127
1, 177839, Note_on_c, 9, 36, 0
1, 177840, Note_on_c, 9, 36, 123
1, 178079, Note_on_c, 9, 36, 0
1, 178320, Note_on_c, 9, 36, 127
1, 178559, Note_on_c, 9, 36, 0
1, 178800, Note_on_c, 9, 36, 127
1, 179039, Note_on_c, 9, 36, 0
1, 179280, Note_on_c, 9, 36, 123
1, 179519, Note_on_c, 9, 36, 0
1, 179520, Note_on_c, 9, 36, 127
1, 179759, Note_on_c, 9, 36, 0
1, 179760, Note_on_c, 9, 36, 127
1, 179999, Note_on_c, 9, 36, 0
1, 180480, Note_on_c, 9, 36, 123
1, 180719, Note_on_c, 9, 36, 0
1, 180720, Note_on_c, 9, 36, 123
1, 180959, Note_on_c, 9, 36, 0
1, 181440, Note_on_c, 9, 36, 127
1, 181679, Note_on_c, 9, 36, 0
1, 181680, Note_on_c, 9, 36, 117
1, 181919, Note_on_c, 9, 36, 0
1, 182160, Note_on_c, 9, 36, 127
1, 182399, Note_on_c, 9, 36, 0
1, 182640, Note_on_c, 9, 36, 127
1, 182879, Note_on_c, 9, 36, 0
1, 183120, Note_on_c, 9, 36, 117
1, 183359, Note_on_c, 9, 36, 0
1, 183360, Note_on_c, 9, 36, 127
1, 183599, Note_on_c, 9, 36, 0
1, 183600, Note_on_c, 9, 36, 127
1, 183839, Note_on_c, 9, 36, 0
1, 184320, Note_on_c, 9, 36, 127
1, 184559, Note_on_c, 9, 36, 0
1, 184560, Note_on_c, 9, 36, 123
1, 184799, Note_on_c, 9, 36, 0
1, 185280, Note_on_c, 9, 36, 127
1, 185519, Note_on_c, 9, 36, 0
1, 185520, Note_on_c, 9, 36, 123
1, 185759, Note_on_c, 9, 36, 0
1, 186000, Note_on_c, 9, 36, 127
1, 186239, Note_on_c, 9, 36, 0
1, 186240, Note_on_c, 9, 36, 99
1, 186479, Note_on_c, 9, 36, 0
1, 186480, Note_on_c, 9, 36, 127
1, 186719, Note_on_c, 9, 36, 0
1, 186960, Note_on_c, 9, 36, 123
1, 187199, Note_on_c, 9, 36, 0
1, 187200, Note_on_c, 9, 36, 127
1, 187439, Note_on_c, 9, 36, 0
1, 187440, Note_on_c, 9, 36, 127
1, 187679, Note_on_c, 9, 36, 0
1, 188160, Note_on_c, 9, 36, 123
1, 188399, Note_on_c, 9, 36, 0
1, 188400, Note_on_c, 9, 36, 123
1, 188639, Note_on_c, 9, 36, 0
1, 189120, Note_on_c, 9, 36, 127
1, 189359, Note_on_c, 9, 36, 0
1, 189360, Note_on_c, 9, 36, 117
1, 189599, Note_on_c, 9, 36, 0
1, 189840, Note_on_c, 9, 36, 127
1, 190079, Note_on_c, 9, 36, 0
1, 190320, Note_on_c, 9, 36, 127
1, 190559, Note_on_c, 9, 36, 0
1, 190800, Note_on_c, 9, 36, 117
1, 191039, Note_on_c, 9, 36, 0
1, 191040, Note_on_c, 9, 36, 127
1, 191279, Note_on_c, 9, 36, 0
1, 191280, Note_on_c, 9, 36, 127
1, 191519, Note_on_c, 9, 36, 0
1, 192000, Note_on_c, 9, 36, 127
1, 192239, Note_on_c, 9, 36, 0
1, 192240, Note_on_c, 9, 36, 123
1, 192479, Note_on_c, 9, 36, 0
1, 192960, Note_on_c, 9, 36, 127
1, 193199, Note_on_c, 9, 36, 0
1, 193200, Note_on_c, 9, 36, 123
1, 193439, Note_on_c, 9, 36, 0
1, 193680, Note_on_c, 9, 36, 127
1, 193919, Note_on_c, 9, 36, 0
1, 194160, Note_on_c, 9, 36, 127
1, 194399, Note_on_c, 9, 36, 0
1, 194640, Note_on_c, 9, 36, 123
1, 194879, Note_on_c, 9, 36, 0
1, 194880, Note_on_c, 9, 36, 127
1, 195119, Note_on_c, 9, 36, 0
1, 195120, Note_on_c, 9, 36, 127
1, 195359, Note_on_c, 9, 36, 0
1, 195840, Note_on_c, 9, 36, 123
1, 196079, Note_on_c, 9, 36, 0
1, 196080, Note_on_c, 9, 36, 123
1, 196319, Note_on_c, 9, 36, 0
1, 196800, Note_on_c, 9, 36, 127
1, 197039, Note_on_c, 9, 36, 0
1, 197040, Note_on_c, 9, 36, 117
1, 197279, Note_on_c, 9, 36, 0
1, 197520, Note_on_c, 9, 36, 127
1, 197759, Note_on_c, 9, 36, 0
1, 198000, Note_on_c, 9, 36, 127
1, 198239, Note_on_c, 9, 36, 0
1, 198480, Note_on_c, 9, 36, 117
1, 198719, Note_on_c, 9, 36, 0
1, 198720, Note_on_c, 9, 36, 127
1, 198959, Note_on_c, 9, 36, 0
1, 198960, Note_on_c, 9, 36, 127
1, 199199, Note_on_c, 9, 36, 0
1, 199680, Note_on_c, 9, 36, 127
1, 199919, Note_on_c, 9, 36, 0
1, 199920, Note_on_c, 9, 36, 123
1, 200159, Note_on_c, 9, 36, 0
1, 201360, Note_on_c, 9, 36, 127
1, 201599, Note_on_c, 9, 36, 0
1, 201840, Note_on_c, 9, 36, 127
1, 202079, Note_on_c, 9, 36, 0
1, 202080, Note_on_c, 9, 36, 127
1, 202559, Note_on_c, 9, 36, 0
1, 203520, Note_on_c, 9, 36, 127
1, 203999, Note_on_c, 9, 36, 0
1, 204000, End_track
0, 0, End_of_file
