0, 0, Header, 1, 5, 480
1, 0, Start_track
1, 0, Time_signature, 4, 2, 24, 8
1, 0, Key_signature, 0, "major"
1, 0, Tempo, 454545
1, 0, Control_c, 9, 121, 0
1, 0, Program_c, 9, 0
1, 0, Control_c, 9, 7, 100
1, 0, Control_c, 9, 10, 64
1, 0, Control_c, 9, 91, 0
1, 0, Control_c, 9, 93, 0
1, 0, MIDI_port, 0
1, 23520, Note_on_c, 9, 54, 100
1, 23759, Note_on_c, 9, 54, 0
1, 23760, Note_on_c, 9, 54, 100
1, 23999, Note_on_c, 9, 54, 0
1, 24480, Note_on_c, 9, 54, 100
1, 24959, Note_on_c, 9, 54, 0
1, 25440, Note_on_c, 9, 54, 100
1, 25679, Note_on_c, 9, 54, 0
1, 25680, Note_on_c, 9, 54, 100
1, 25919, Note_on_c, 9, 54, 0
1, 26400, Note_on_c, 9, 54, 100
1, 26879, Note_on_c, 9, 54, 0
1, 27360, Note_on_c, 9, 54, 100
1, 27599, Note_on_c, 9, 54, 0
1, 27600, Note_on_c, 9, 54, 100
1, 27839, Note_on_c, 9, 54, 0
1, 28320, Note_on_c, 9, 54, 100
1, 28799, Note_on_c, 9, 54, 0
1, 29280, Note_on_c, 9, 54, 100
1, 29519, Note_on_c, 9, 54, 0
1, 29520, Note_on_c, 9, 54, 100
1, 29759, Note_on_c, 9, 54, 0
1, 44160, Tempo, 461538
1, 54240, Note_on_c, 9, 54, 100
1, 54479, Note_on_c, 9, 54, 0
1, 54480, Note_on_c, 9, 54, 100
1, 54719, Note_on_c, 9, 54, 0
1, 55200, Note_on_c, 9, 54, 100
1, 55679, Note_on_c, 9, 54, 0
1, 56160, Note_on_c, 9, 54, 100
1, 56399, Note_on_c, 9, 54, 0
1, 56400, Note_on_c, 9, 54, 100
1, 56639, Note_on_c, 9, 54, 0
1, 57120, Note_on_c, 9, 54, 100
1, 57599, Note_on_c, 9, 54, 0
1, 58080, Note_on_c, 9, 54, 100
1, 58319, Note_on_c, 9, 54, 0
1, 58320, Note_on_c, 9, 54, 100
1, 58559, Note_on_c, 9, 54, 0
1, 59040, Note_on_c, 9, 54, 100
1, 59519, Note_on_c, 9, 54, 0
1, 60000, Note_on_c, 9, 54, 100
1, 60239, Note_on_c, 9, 54, 0
1, 60240, Note_on_c, 9, 54, 100
1, 60479, Note_on_c, 9, 54, 0
1, 100320, Note_on_c, 9, 54, 100
1, 100559, Note_on_c, 9, 54, 0
1, 100560, Note_on_c, 9, 54, 100
1, 100799, Note_on_c, 9, 54, 0
1, 101280, Note_on_c, 9, 54, 100
1, 101759, Note_on_c, 9, 54, 0
1, 102240, Note_on_c, 9, 54, 100
1, 102479, Note_on_c, 9, 54, 0
1, 102480, Note_on_c, 9, 54, 100
1, 102719, Note_on_c, 9, 54, 0
1, 103200, Note_on_c, 9, 54, 100
1, 103679, Note_on_c, 9, 54, 0
1, 104160, Note_on_c, 9, 54, 100
1, 104399, Note_on_c, 9, 54, 0
1, 104400, Note_on_c, 9, 54, 100
1, 104639, Note_on_c, 9, 54, 0
1, 105120, Note_on_c, 9, 54, 100
1, 105599, Note_on_c, 9, 54, 0
1, 106080, Note_on_c, 9, 54, 100
1, 106319, Note_on_c, 9, 54, 0
1, 106320, Note_on_c, 9, 54, 100
1, 106559, Note_on_c, 9, 54, 0
1, 131040, Note_on_c, 9, 54, 100
1, 131279, Note_on_c, 9, 54, 0
1, 131280, Note_on_c, 9, 54, 100
1, 131519, Note_on_c, 9, 54, 0
1, 132000, Note_on_c, 9, 54, 100
1, 132479, Note_on_c, 9, 54, 0
1, 132960, Note_on_c, 9, 54, 100
1, 133199, Note_on_c, 9, 54, 0
1, 133200, Note_on_c, 9, 54, 100
1, 133439, Note_on_c, 9, 54, 0
1, 133920, Note_on_c, 9, 54, 100
1, 134399, Note_on_c, 9, 54, 0
1, 134880, Note_on_c, 9, 54, 100
1, 135119, Note_on_c, 9, 54, 0
1, 135120, Note_on_c, 9, 54, 100
1, 135359, Note_on_c, 9, 54, 0
1, 135840, Note_on_c, 9, 54, 100
1, 136319, Note_on_c, 9, 54, 0
1, 136800, Note_on_c, 9, 54, 100
1, 137039, Note_on_c, 9, 54, 0
1, 137040, Note_on_c, 9, 54, 100
1, 137279, Note_on_c, 9, 54, 0
1, 137280, End_track
0, 0, End_of_file
