0, 0, Header, 1, 3, 480
1, 0, Start_track
1, 0, Time_signature, 4, 2, 24, 8
1, 0, Key_signature, -1, "major"
1, 0, Tempo, 434783
1, 0, Control_c, 9, 121, 0
1, 0, Program_c, 9, 0
1, 0, Control_c, 9, 7, 100
1, 0, Control_c, 9, 10, 64
1, 0, Control_c, 9, 91, 0
1, 0, Control_c, 9, 93, 0
1, 0, MIDI_port, 0
1, 1680, Note_on_c, 9, 35, 68
1, 1919, Note_on_c, 9, 35, 0
1, 1920, Note_on_c, 9, 35, 68
1, 2279, Note_on_c, 9, 35, 0
1, 2280, Note_on_c, 9, 35, 84
1, 2399, Note_on_c, 9, 35, 0
1, 2760, Note_on_c, 9, 35, 84
1, 2879, Note_on_c, 9, 35, 0
1, 2880, Note_on_c, 9, 35, 68
1, 3239, Note_on_c, 9, 35, 0
1, 3240, Note_on_c, 9, 35, 84
1, 3359, Note_on_c, 9, 35, 0
1, 3600, Note_on_c, 9, 35, 84
1, 3719, Note_on_c, 9, 35, 0
1, 3720, Note_on_c, 9, 35, 84
1, 3839, Note_on_c, 9, 35, 0
1, 3840, Note_on_c, 9, 35, 68
1, 4199, Note_on_c, 9, 35, 0
1, 4200, Note_on_c, 9, 35, 84
1, 4319, Note_on_c, 9, 35, 0
1, 4680, Note_on_c, 9, 35, 84
1, 4799, Note_on_c, 9, 35, 0
1, 4800, Note_on_c, 9, 35, 68
1, 5159, Note_on_c, 9, 35, 0
1, 5160, Note_on_c, 9, 35, 84
1, 5279, Note_on_c, 9, 35, 0
1, 5520, Note_on_c, 9, 35, 84
1, 5639, Note_on_c, 9, 35, 0
1, 5640, Note_on_c, 9, 35, 84
1, 5759, Note_on_c, 9, 35, 0
1, 5760, Note_on_c, 9, 35, 68
1, 6119, Note_on_c, 9, 35, 0
1, 6120, Note_on_c, 9, 35, 84
1, 6239, Note_on_c, 9, 35, 0
1, 6600, Note_on_c, 9, 35, 84
1, 6719, Note_on_c, 9, 35, 0
1, 6720, Note_on_c, 9, 35, 68
1, 7079, Note_on_c, 9, 35, 0
1, 7080, Note_on_c, 9, 35, 84
1, 7199, Note_on_c, 9, 35, 0
1, 7440, Note_on_c, 9, 35, 84
1, 7559, Note_on_c, 9, 35, 0
1, 7560, Note_on_c, 9, 35, 84
1, 7679, Note_on_c, 9, 35, 0
1, 7680, Note_on_c, 9, 35, 68
1, 8039, Note_on_c, 9, 35, 0
1, 8040, Note_on_c, 9, 35, 84
1, 8159, Note_on_c, 9, 35, 0
1, 8520, Note_on_c, 9, 35, 84
1, 8639, Note_on_c, 9, 35, 0
1, 8640, Note_on_c, 9, 35, 68
1, 8999, Note_on_c, 9, 35, 0
1, 9000, Note_on_c, 9, 35, 84
1, 9119, Note_on_c, 9, 35, 0
1, 9360, Note_on_c, 9, 35, 84
1, 9479, Note_on_c, 9, 35, 0
1, 9480, Note_on_c, 9, 35, 84
1, 9599, Note_on_c, 9, 35, 0
1, 9600, Note_on_c, 9, 35, 68
1, 9959, Note_on_c, 9, 35, 0
1, 9960, Note_on_c, 9, 35, 84
1, 10079, Note_on_c, 9, 35, 0
1, 10440, Note_on_c, 9, 35, 84
1, 10559, Note_on_c, 9, 35, 0
1, 10560, Note_on_c, 9, 35, 68
1, 10919, Note_on_c, 9, 35, 0
1, 10920, Note_on_c, 9, 35, 84
1, 11039, Note_on_c, 9, 35, 0
1, 11280, Note_on_c, 9, 35, 84
1, 11399, Note_on_c, 9, 35, 0
1, 11400, Note_on_c, 9, 35, 84
1, 11519, Note_on_c, 9, 35, 0
1, 11520, Note_on_c, 9, 35, 68
1, 11879, Note_on_c, 9, 35, 0
1, 11880, Note_on_c, 9, 35, 84
1, 11999, Note_on_c, 9, 35, 0
1, 12360, Note_on_c, 9, 35, 84
1, 12479, Note_on_c, 9, 35, 0
1, 12480, Note_on_c, 9, 35, 68
1, 12839, Note_on_c, 9, 35, 0
1, 12840, Note_on_c, 9, 35, 84
1, 12959, Note_on_c, 9, 35, 0
1, 13200, Note_on_c, 9, 35, 84
1, 13319, Note_on_c, 9, 35, 0
1, 13320, Note_on_c, 9, 35, 84
1, 13439, Note_on_c, 9, 35, 0
1, 13440, Note_on_c, 9, 35, 68
1, 13799, Note_on_c, 9, 35, 0
1, 13800, Note_on_c, 9, 35, 84
1, 13919, Note_on_c, 9, 35, 0
1, 14280, Note_on_c, 9, 35, 84
1, 14399, Note_on_c, 9, 35, 0
1, 14400, Note_on_c, 9, 35, 68
1, 14759, Note_on_c, 9, 35, 0
1, 14760, Note_on_c, 9, 35, 84
1, 14879, Note_on_c, 9, 35, 0
1, 15120, Note_on_c, 9, 35, 84
1, 15239, Note_on_c, 9, 35, 0
1, 15240, Note_on_c, 9, 35, 84
1, 15359, Note_on_c, 9, 35, 0
1, 15360, Note_on_c, 9, 35, 68
1, 15719, Note_on_c, 9, 35, 0
1, 15720, Note_on_c, 9, 35, 84
1, 15839, Note_on_c, 9, 35, 0
1, 16200, Note_on_c, 9, 35, 84
1, 16319, Note_on_c, 9, 35, 0
1, 16320, Note_on_c, 9, 35, 68
1, 16679, Note_on_c, 9, 35, 0
1, 16680, Note_on_c, 9, 35, 84
1, 16799, Note_on_c, 9, 35, 0
1, 17040, Note_on_c, 9, 35, 84
1, 17159, Note_on_c, 9, 35, 0
1, 17160, Note_on_c, 9, 35, 84
1, 17279, Note_on_c, 9, 35, 0
1, 17280, Note_on_c, 9, 35, 68
1, 17759, Note_on_c, 9, 35, 0
1, 18960, Note_on_c, 9, 35, 68
1, 19199, Note_on_c, 9, 35, 0
1, 19200, Note_on_c, 9, 35, 68
1, 19559, Note_on_c, 9, 35, 0
1, 19560, Note_on_c, 9, 35, 84
1, 19679, Note_on_c, 9, 35, 0
1, 20520, Note_on_c, 9, 35, 84
1, 20639, Note_on_c, 9, 35, 0
1, 21000, Note_on_c, 9, 35, 84
1, 21119, Note_on_c, 9, 35, 0
1, 21120, Note_on_c, 9, 35, 68
1, 21479, Note_on_c, 9, 35, 0
1, 21480, Note_on_c, 9, 35, 84
1, 21599, Note_on_c, 9, 35, 0
1, 22440, Note_on_c, 9, 35, 84
1, 22559, Note_on_c, 9, 35, 0
1, 22920, Note_on_c, 9, 35, 84
1, 23039, Note_on_c, 9, 35, 0
1, 23040, Note_on_c, 9, 35, 68
1, 23399, Note_on_c, 9, 35, 0
1, 23400, Note_on_c, 9, 35, 84
1, 23519, Note_on_c, 9, 35, 0
1, 24360, Note_on_c, 9, 35, 84
1, 24479, Note_on_c, 9, 35, 0
1, 24840, Note_on_c, 9, 35, 84
1, 24959, Note_on_c, 9, 35, 0
1, 24960, Note_on_c, 9, 35, 68
1, 25319, Note_on_c, 9, 35, 0
1, 25320, Note_on_c, 9, 35, 84
1, 25439, Note_on_c, 9, 35, 0
1, 26280, Note_on_c, 9, 35, 84
1, 26399, Note_on_c, 9, 35, 0
1, 26760, Note_on_c, 9, 35, 84
1, 26879, Note_on_c, 9, 35, 0
1, 26880, Note_on_c, 9, 35, 68
1, 27239, Note_on_c, 9, 35, 0
1, 27240, Note_on_c, 9, 35, 84
1, 27359, Note_on_c, 9, 35, 0
1, 28200, Note_on_c, 9, 35, 84
1, 28319, Note_on_c, 9, 35, 0
1, 28680, Note_on_c, 9, 35, 84
1, 28799, Note_on_c, 9, 35, 0
1, 28800, Note_on_c, 9, 35, 68
1, 29159, Note_on_c, 9, 35, 0
1, 29160, Note_on_c, 9, 35, 84
1, 29279, Note_on_c, 9, 35, 0
1, 30120, Note_on_c, 9, 35, 84
1, 30239, Note_on_c, 9, 35, 0
1, 30600, Note_on_c, 9, 35, 84
1, 30719, Note_on_c, 9, 35, 0
1, 30720, Note_on_c, 9, 35, 68
1, 31079, Note_on_c, 9, 35, 0
1, 31080, Note_on_c, 9, 35, 84
1, 31199, Note_on_c, 9, 35, 0
1, 32040, Note_on_c, 9, 35, 84
1, 32159, Note_on_c, 9, 35, 0
1, 32520, Note_on_c, 9, 35, 84
1, 32639, Note_on_c, 9, 35, 0
1, 34560, Note_on_c, 9, 35, 68
1, 34919, Note_on_c, 9, 35, 0
1, 34920, Note_on_c, 9, 35, 84
1, 35039, Note_on_c, 9, 35, 0
1, 35400, Note_on_c, 9, 35, 84
1, 35519, Note_on_c, 9, 35, 0
1, 35520, Note_on_c, 9, 35, 68
1, 35999, Note_on_c, 9, 35, 0
1, 36480, Note_on_c, 9, 35, 68
1, 36839, Note_on_c, 9, 35, 0
1, 36840, Note_on_c, 9, 35, 84
1, 36959, Note_on_c, 9, 35, 0
1, 37320, Note_on_c, 9, 35, 84
1, 37439, Note_on_c, 9, 35, 0
1, 37440, Note_on_c, 9, 35, 68
1, 37919, Note_on_c, 9, 35, 0
1, 38400, Note_on_c, 9, 35, 68
1, 38759, Note_on_c, 9, 35, 0
1, 38760, Note_on_c, 9, 35, 84
1, 38879, Note_on_c, 9, 35, 0
1, 39240, Note_on_c, 9, 35, 84
1, 39359, Note_on_c, 9, 35, 0
1, 39360, Note_on_c, 9, 35, 68
1, 39839, Note_on_c, 9, 35, 0
1, 40320, Note_on_c, 9, 35, 68
1, 40679, Note_on_c, 9, 35, 0
1, 40680, Note_on_c, 9, 35, 84
1, 40799, Note_on_c, 9, 35, 0
1, 41160, Note_on_c, 9, 35, 84
1, 41279, Note_on_c, 9, 35, 0
1, 41280, Note_on_c, 9, 35, 68
1, 41759, Note_on_c, 9, 35, 0
1, 42240, Note_on_c, 9, 35, 68
1, 42599, Note_on_c, 9, 35, 0
1, 42600, Note_on_c, 9, 35, 84
1, 42719, Note_on_c, 9, 35, 0
1, 43080, Note_on_c, 9, 35, 84
1, 43199, Note_on_c, 9, 35, 0
1, 43200, Note_on_c, 9, 35, 68
1, 43679, Note_on_c, 9, 35, 0
1, 44160, Note_on_c, 9, 35, 68
1, 44639, Note_on_c, 9, 35, 0
1, 45120, Note_on_c, 9, 35, 68
1, 45599, Note_on_c, 9, 35, 0
1, 46080, Note_on_c, 9, 35, 68
1, 46439, Note_on_c, 9, 35, 0
1, 46440, Note_on_c, 9, 35, 84
1, 46559, Note_on_c, 9, 35, 0
1, 46920, Note_on_c, 9, 35, 84
1, 47039, Note_on_c, 9, 35, 0
1, 47040, Note_on_c, 9, 35, 68
1, 47519, Note_on_c, 9, 35, 0
1, 48000, Note_on_c, 9, 35, 68
1, 48359, Note_on_c, 9, 35, 0
1, 48360, Note_on_c, 9, 35, 84
1, 48479, Note_on_c, 9, 35, 0
1, 48840, Note_on_c, 9, 35, 84
1, 48959, Note_on_c, 9, 35, 0
1, 48960, Note_on_c, 9, 35, 68
1, 49439, Note_on_c, 9, 35, 0
1, 49920, Note_on_c, 9, 35, 67
1, 50399, Note_on_c, 9, 35, 0
1, 51240, Note_on_c, 9, 35, 67
1, 51359, Note_on_c, 9, 35, 0
1, 51720, Note_on_c, 9, 35, 67
1, 51839, Note_on_c, 9, 35, 0
1, 51840, Note_on_c, 9, 35, 67
1, 52319, Note_on_c, 9, 35, 0
1, 53160, Note_on_c, 9, 35, 67
1, 53279, Note_on_c, 9, 35, 0
1, 53520, Note_on_c, 9, 35, 68
1, 53759, Note_on_c, 9, 35, 0
1, 53760, Note_on_c, 9, 35, 68
1, 54119, Note_on_c, 9, 35, 0
1, 54120, Note_on_c, 9, 35, 84
1, 54239, Note_on_c, 9, 35, 0
1, 55080, Note_on_c, 9, 35, 84
1, 55199, Note_on_c, 9, 35, 0
1, 55560, Note_on_c, 9, 35, 84
1, 55679, Note_on_c, 9, 35, 0
1, 55680, Note_on_c, 9, 35, 68
1, 56039, Note_on_c, 9, 35, 0
1, 56040, Note_on_c, 9, 35, 84
1, 56159, Note_on_c, 9, 35, 0
1, 57000, Note_on_c, 9, 35, 84
1, 57119, Note_on_c, 9, 35, 0
1, 57480, Note_on_c, 9, 35, 84
1, 57599, Note_on_c, 9, 35, 0
1, 57600, Note_on_c, 9, 35, 68
1, 57959, Note_on_c, 9, 35, 0
1, 57960, Note_on_c, 9, 35, 84
1, 58079, Note_on_c, 9, 35, 0
1, 58920, Note_on_c, 9, 35, 84
1, 59039, Note_on_c, 9, 35, 0
1, 59400, Note_on_c, 9, 35, 84
1, 59519, Note_on_c, 9, 35, 0
1, 59520, Note_on_c, 9, 35, 68
1, 59879, Note_on_c, 9, 35, 0
1, 59880, Note_on_c, 9, 35, 84
1, 59999, Note_on_c, 9, 35, 0
1, 60840, Note_on_c, 9, 35, 84
1, 60959, Note_on_c, 9, 35, 0
1, 61320, Note_on_c, 9, 35, 84
1, 61439, Note_on_c, 9, 35, 0
1, 61440, Note_on_c, 9, 35, 68
1, 61799, Note_on_c, 9, 35, 0
1, 61800, Note_on_c, 9, 35, 84
1, 61919, Note_on_c, 9, 35, 0
1, 62760, Note_on_c, 9, 35, 84
1, 62879, Note_on_c, 9, 35, 0
1, 63240, Note_on_c, 9, 35, 84
1, 63359, Note_on_c, 9, 35, 0
1, 63360, Note_on_c, 9, 35, 68
1, 63719, Note_on_c, 9, 35, 0
1, 63720, Note_on_c, 9, 35, 84
1, 63839, Note_on_c, 9, 35, 0
1, 64680, Note_on_c, 9, 35, 84
1, 64799, Note_on_c, 9, 35, 0
1, 65160, Note_on_c, 9, 35, 84
1, 65279, Note_on_c, 9, 35, 0
1, 65280, Note_on_c, 9, 35, 68
1, 65639, Note_on_c, 9, 35, 0
1, 65640, Note_on_c, 9, 35, 84
1, 65759, Note_on_c, 9, 35, 0
1, 66600, Note_on_c, 9, 35, 84
1, 66719, Note_on_c, 9, 35, 0
1, 67080, Note_on_c, 9, 35, 84
1, 67199, Note_on_c, 9, 35, 0
1, 69120, Note_on_c, 9, 35, 68
1, 69479, Note_on_c, 9, 35, 0
1, 69480, Note_on_c, 9, 35, 84
1, 69599, Note_on_c, 9, 35, 0
1, 69960, Note_on_c, 9, 35, 84
1, 70079, Note_on_c, 9, 35, 0
1, 70080, Note_on_c, 9, 35, 68
1, 70559, Note_on_c, 9, 35, 0
1, 71040, Note_on_c, 9, 35, 68
1, 71399, Note_on_c, 9, 35, 0
1, 71400, Note_on_c, 9, 35, 84
1, 71519, Note_on_c, 9, 35, 0
1, 71880, Note_on_c, 9, 35, 84
1, 71999, Note_on_c, 9, 35, 0
1, 72000, Note_on_c, 9, 35, 68
1, 72479, Note_on_c, 9, 35, 0
1, 72960, Note_on_c, 9, 35, 68
1, 73319, Note_on_c, 9, 35, 0
1, 73320, Note_on_c, 9, 35, 84
1, 73439, Note_on_c, 9, 35, 0
1, 73800, Note_on_c, 9, 35, 84
1, 73919, Note_on_c, 9, 35, 0
1, 73920, Note_on_c, 9, 35, 68
1, 74399, Note_on_c, 9, 35, 0
1, 74880, Note_on_c, 9, 35, 68
1, 75239, Note_on_c, 9, 35, 0
1, 75240, Note_on_c, 9, 35, 84
1, 75359, Note_on_c, 9, 35, 0
1, 75720, Note_on_c, 9, 35, 84
1, 75839, Note_on_c, 9, 35, 0
1, 75840, Note_on_c, 9, 35, 68
1, 76319, Note_on_c, 9, 35, 0
1, 76800, Note_on_c, 9, 35, 68
1, 77159, Note_on_c, 9, 35, 0
1, 77160, Note_on_c, 9, 35, 84
1, 77279, Note_on_c, 9, 35, 0
1, 77640, Note_on_c, 9, 35, 84
1, 77759, Note_on_c, 9, 35, 0
1, 77760, Note_on_c, 9, 35, 68
1, 78239, Note_on_c, 9, 35, 0
1, 78720, Note_on_c, 9, 35, 68
1, 79199, Note_on_c, 9, 35, 0
1, 79680, Note_on_c, 9, 35, 68
1, 80159, Note_on_c, 9, 35, 0
1, 80640, Note_on_c, 9, 35, 68
1, 80999, Note_on_c, 9, 35, 0
1, 81000, Note_on_c, 9, 35, 84
1, 81119, Note_on_c, 9, 35, 0
1, 81480, Note_on_c, 9, 35, 84
1, 81599, Note_on_c, 9, 35, 0
1, 81600, Note_on_c, 9, 35, 68
1, 82079, Note_on_c, 9, 35, 0
1, 82560, Note_on_c, 9, 35, 68
1, 82919, Note_on_c, 9, 35, 0
1, 82920, Note_on_c, 9, 35, 84
1, 83039, Note_on_c, 9, 35, 0
1, 83400, Note_on_c, 9, 35, 84
1, 83519, Note_on_c, 9, 35, 0
1, 83520, Note_on_c, 9, 35, 68
1, 83999, Note_on_c, 9, 35, 0
1, 84480, Note_on_c, 9, 35, 67
1, 84959, Note_on_c, 9, 35, 0
1, 85800, Note_on_c, 9, 35, 67
1, 85919, Note_on_c, 9, 35, 0
1, 86280, Note_on_c, 9, 35, 67
1, 86399, Note_on_c, 9, 35, 0
1, 88320, Note_on_c, 9, 35, 68
1, 88679, Note_on_c, 9, 35, 0
1, 88680, Note_on_c, 9, 35, 84
1, 88799, Note_on_c, 9, 35, 0
1, 89280, Note_on_c, 9, 35, 68
1, 89639, Note_on_c, 9, 35, 0
1, 89640, Note_on_c, 9, 35, 84
1, 89759, Note_on_c, 9, 35, 0
1, 90120, Note_on_c, 9, 35, 67
1, 90239, Note_on_c, 9, 35, 0
1, 90240, Note_on_c, 9, 35, 68
1, 90599, Note_on_c, 9, 35, 0
1, 90600, Note_on_c, 9, 35, 84
1, 90719, Note_on_c, 9, 35, 0
1, 91080, Note_on_c, 9, 35, 67
1, 91199, Note_on_c, 9, 35, 0
1, 91200, Note_on_c, 9, 35, 68
1, 91559, Note_on_c, 9, 35, 0
1, 91560, Note_on_c, 9, 35, 84
1, 91679, Note_on_c, 9, 35, 0
1, 92160, Note_on_c, 9, 35, 68
1, 92519, Note_on_c, 9, 35, 0
1, 92520, Note_on_c, 9, 35, 84
1, 92639, Note_on_c, 9, 35, 0
1, 93120, Note_on_c, 9, 35, 68
1, 93479, Note_on_c, 9, 35, 0
1, 93480, Note_on_c, 9, 35, 84
1, 93599, Note_on_c, 9, 35, 0
1, 93960, Note_on_c, 9, 35, 67
1, 94079, Note_on_c, 9, 35, 0
1, 94080, Note_on_c, 9, 35, 68
1, 94439, Note_on_c, 9, 35, 0
1, 94440, Note_on_c, 9, 35, 84
1, 94559, Note_on_c, 9, 35, 0
1, 94920, Note_on_c, 9, 35, 67
1, 95039, Note_on_c, 9, 35, 0
1, 95040, Note_on_c, 9, 35, 68
1, 95399, Note_on_c, 9, 35, 0
1, 95400, Note_on_c, 9, 35, 84
1, 95519, Note_on_c, 9, 35, 0
1, 96000, Note_on_c, 9, 35, 68
1, 96359, Note_on_c, 9, 35, 0
1, 96360, Note_on_c, 9, 35, 84
1, 96479, Note_on_c, 9, 35, 0
1, 96960, Note_on_c, 9, 35, 68
1, 97319, Note_on_c, 9, 35, 0
1, 97320, Note_on_c, 9, 35, 84
1, 97439, Note_on_c, 9, 35, 0
1, 97800, Note_on_c, 9, 35, 67
1, 97919, Note_on_c, 9, 35, 0
1, 97920, Note_on_c, 9, 35, 68
1, 98279, Note_on_c, 9, 35, 0
1, 98280, Note_on_c, 9, 35, 84
1, 98399, Note_on_c, 9, 35, 0
1, 98760, Note_on_c, 9, 35, 67
1, 98879, Note_on_c, 9, 35, 0
1, 98880, Note_on_c, 9, 35, 68
1, 99239, Note_on_c, 9, 35, 0
1, 99240, Note_on_c, 9, 35, 84
1, 99359, Note_on_c, 9, 35, 0
1, 99840, Note_on_c, 9, 35, 68
1, 100199, Note_on_c, 9, 35, 0
1, 100200, Note_on_c, 9, 35, 84
1, 100319, Note_on_c, 9, 35, 0
1, 100800, Note_on_c, 9, 35, 68
1, 101159, Note_on_c, 9, 35, 0
1, 101160, Note_on_c, 9, 35, 84
1, 101279, Note_on_c, 9, 35, 0
1, 101760, Note_on_c, 9, 35, 68
1, 102119, Note_on_c, 9, 35, 0
1, 102120, Note_on_c, 9, 35, 84
1, 102239, Note_on_c, 9, 35, 0
1, 102360, Note_on_c, 9, 35, 67
1, 102719, Note_on_c, 9, 35, 0
1, 102720, Note_on_c, 9, 35, 68
1, 103079, Note_on_c, 9, 35, 0
1, 103080, Note_on_c, 9, 35, 84
1, 103199, Note_on_c, 9, 35, 0
1, 103320, Note_on_c, 9, 35, 67
1, 103679, Note_on_c, 9, 35, 0
1, 103680, Note_on_c, 9, 35, 68
1, 104039, Note_on_c, 9, 35, 0
1, 104040, Note_on_c, 9, 35, 84
1, 104159, Note_on_c, 9, 35, 0
1, 104640, Note_on_c, 9, 35, 68
1, 104999, Note_on_c, 9, 35, 0
1, 105000, Note_on_c, 9, 35, 84
1, 105119, Note_on_c, 9, 35, 0
1, 105480, Note_on_c, 9, 35, 67
1, 105599, Note_on_c, 9, 35, 0
1, 105600, Note_on_c, 9, 35, 68
1, 105959, Note_on_c, 9, 35, 0
1, 105960, Note_on_c, 9, 35, 84
1, 106079, Note_on_c, 9, 35, 0
1, 106440, Note_on_c, 9, 35, 67
1, 106559, Note_on_c, 9, 35, 0
1, 106560, Note_on_c, 9, 35, 68
1, 106919, Note_on_c, 9, 35, 0
1, 106920, Note_on_c, 9, 35, 84
1, 107039, Note_on_c, 9, 35, 0
1, 107520, Note_on_c, 9, 35, 68
1, 107879, Note_on_c, 9, 35, 0
1, 107880, Note_on_c, 9, 35, 84
1, 107999, Note_on_c, 9, 35, 0
1, 108480, Note_on_c, 9, 35, 68
1, 108839, Note_on_c, 9, 35, 0
1, 108840, Note_on_c, 9, 35, 84
1, 108959, Note_on_c, 9, 35, 0
1, 109320, Note_on_c, 9, 35, 67
1, 109439, Note_on_c, 9, 35, 0
1, 109440, Note_on_c, 9, 35, 68
1, 109799, Note_on_c, 9, 35, 0
1, 109800, Note_on_c, 9, 35, 84
1, 109919, Note_on_c, 9, 35, 0
1, 110280, Note_on_c, 9, 35, 67
1, 110399, Note_on_c, 9, 35, 0
1, 110400, Note_on_c, 9, 35, 68
1, 110759, Note_on_c, 9, 35, 0
1, 110760, Note_on_c, 9, 35, 84
1, 110879, Note_on_c, 9, 35, 0
1, 111360, Note_on_c, 9, 35, 68
1, 111719, Note_on_c, 9, 35, 0
1, 111720, Note_on_c, 9, 35, 84
1, 111839, Note_on_c, 9, 35, 0
1, 112320, Note_on_c, 9, 35, 68
1, 112679, Note_on_c, 9, 35, 0
1, 112680, Note_on_c, 9, 35, 84
1, 112799, Note_on_c, 9, 35, 0
1, 113160, Note_on_c, 9, 35, 67
1, 113279, Note_on_c, 9, 35, 0
1, 113280, Note_on_c, 9, 35, 68
1, 113639, Note_on_c, 9, 35, 0
1, 113640, Note_on_c, 9, 35, 84
1, 113759, Note_on_c, 9, 35, 0
1, 114120, Note_on_c, 9, 35, 67
1, 114239, Note_on_c, 9, 35, 0
1, 114240, Note_on_c, 9, 35, 68
1, 114599, Note_on_c, 9, 35, 0
1, 114600, Note_on_c, 9, 35, 84
1, 114719, Note_on_c, 9, 35, 0
1, 115200, Note_on_c, 9, 35, 68
1, 115559, Note_on_c, 9, 35, 0
1, 115560, Note_on_c, 9, 35, 84
1, 115679, Note_on_c, 9, 35, 0
1, 116160, Note_on_c, 9, 35, 68
1, 116519, Note_on_c, 9, 35, 0
1, 116520, Note_on_c, 9, 35, 84
1, 116639, Note_on_c, 9, 35, 0
1, 117000, Note_on_c, 9, 35, 67
1, 117119, Note_on_c, 9, 35, 0
1, 117120, Note_on_c, 9, 35, 68
1, 117479, Note_on_c, 9, 35, 0
1, 117480, Note_on_c, 9, 35, 84
1, 117599, Note_on_c, 9, 35, 0
1, 117600, Note_on_c, 9, 35, 67
1, 117719, Note_on_c, 9, 35, 0
1, 117720, Note_on_c, 9, 35, 67
1, 118079, Note_on_c, 9, 35, 0
1, 118080, Note_on_c, 9, 35, 68
1, 118439, Note_on_c, 9, 35, 0
1, 118440, Note_on_c, 9, 35, 84
1, 118559, Note_on_c, 9, 35, 0
1, 118560, Note_on_c, 9, 35, 67
1, 118679, Note_on_c, 9, 35, 0
1, 118680, Note_on_c, 9, 35, 67
1, 119039, Note_on_c, 9, 35, 0
1, 119040, Note_on_c, 9, 35, 68
1, 119399, Note_on_c, 9, 35, 0
1, 119400, Note_on_c, 9, 35, 84
1, 119519, Note_on_c, 9, 35, 0
1, 120000, Note_on_c, 9, 35, 68
1, 120359, Note_on_c, 9, 35, 0
1, 120360, Note_on_c, 9, 35, 84
1, 120479, Note_on_c, 9, 35, 0
1, 120840, Note_on_c, 9, 35, 67
1, 120959, Note_on_c, 9, 35, 0
1, 120960, Note_on_c, 9, 35, 68
1, 121319, Note_on_c, 9, 35, 0
1, 121320, Note_on_c, 9, 35, 84
1, 121439, Note_on_c, 9, 35, 0
1, 121800, Note_on_c, 9, 35, 67
1, 121919, Note_on_c, 9, 35, 0
1, 121920, Note_on_c, 9, 35, 68
1, 122279, Note_on_c, 9, 35, 0
1, 122280, Note_on_c, 9, 35, 84
1, 122399, Note_on_c, 9, 35, 0
1, 122880, Note_on_c, 9, 35, 68
1, 123239, Note_on_c, 9, 35, 0
1, 123240, Note_on_c, 9, 35, 84
1, 123359, Note_on_c, 9, 35, 0
1, 123840, Note_on_c, 9, 35, 68
1, 124199, Note_on_c, 9, 35, 0
1, 124200, Note_on_c, 9, 35, 84
1, 124319, Note_on_c, 9, 35, 0
1, 124680, Note_on_c, 9, 35, 67
1, 124799, Note_on_c, 9, 35, 0
1, 124800, Note_on_c, 9, 35, 68
1, 125159, Note_on_c, 9, 35, 0
1, 125160, Note_on_c, 9, 35, 84
1, 125279, Note_on_c, 9, 35, 0
1, 125640, Note_on_c, 9, 35, 67
1, 125759, Note_on_c, 9, 35, 0
1, 125760, Note_on_c, 9, 35, 68
1, 126119, Note_on_c, 9, 35, 0
1, 126120, Note_on_c, 9, 35, 84
1, 126239, Note_on_c, 9, 35, 0
1, 126720, Note_on_c, 9, 35, 68
1, 127079, Note_on_c, 9, 35, 0
1, 127080, Note_on_c, 9, 35, 84
1, 127199, Note_on_c, 9, 35, 0
1, 127680, Note_on_c, 9, 35, 68
1, 128039, Note_on_c, 9, 35, 0
1, 128040, Note_on_c, 9, 35, 84
1, 128159, Note_on_c, 9, 35, 0
1, 128520, Note_on_c, 9, 35, 67
1, 128639, Note_on_c, 9, 35, 0
1, 128640, Note_on_c, 9, 35, 68
1, 128999, Note_on_c, 9, 35, 0
1, 129000, Note_on_c, 9, 35, 84
1, 129119, Note_on_c, 9, 35, 0
1, 129480, Note_on_c, 9, 35, 67
1, 129599, Note_on_c, 9, 35, 0
1, 129600, Note_on_c, 9, 35, 68
1, 129959, Note_on_c, 9, 35, 0
1, 129960, Note_on_c, 9, 35, 84
1, 130079, Note_on_c, 9, 35, 0
1, 130560, Note_on_c, 9, 35, 68
1, 130919, Note_on_c, 9, 35, 0
1, 130920, Note_on_c, 9, 35, 84
1, 131039, Note_on_c, 9, 35, 0
1, 131520, Note_on_c, 9, 35, 68
1, 131879, Note_on_c, 9, 35, 0
1, 131880, Note_on_c, 9, 35, 84
1, 131999, Note_on_c, 9, 35, 0
1, 132360, Note_on_c, 9, 35, 67
1, 132479, Note_on_c, 9, 35, 0
1, 132480, Note_on_c, 9, 35, 67
1, 132959, Note_on_c, 9, 35, 0
1, 134160, Note_on_c, 9, 34, 68
1, 134399, Note_on_c, 9, 34, 0
1, 134400, Note_on_c, 9, 35, 68
1, 134759, Note_on_c, 9, 35, 0
1, 134760, Note_on_c, 9, 35, 84
1, 134879, Note_on_c, 9, 35, 0
1, 135720, Note_on_c, 9, 35, 84
1, 135839, Note_on_c, 9, 35, 0
1, 136200, Note_on_c, 9, 35, 84
1, 136319, Note_on_c, 9, 35, 0
1, 136320, Note_on_c, 9, 35, 68
1, 136679, Note_on_c, 9, 35, 0
1, 136680, Note_on_c, 9, 35, 84
1, 136799, Note_on_c, 9, 35, 0
1, 137640, Note_on_c, 9, 35, 84
1, 137759, Note_on_c, 9, 35, 0
1, 138120, Note_on_c, 9, 35, 84
1, 138239, Note_on_c, 9, 35, 0
1, 138240, Note_on_c, 9, 35, 68
1, 138599, Note_on_c, 9, 35, 0
1, 138600, Note_on_c, 9, 35, 84
1, 138719, Note_on_c, 9, 35, 0
1, 139560, Note_on_c, 9, 35, 84
1, 139679, Note_on_c, 9, 35, 0
1, 140040, Note_on_c, 9, 35, 84
1, 140159, Note_on_c, 9, 35, 0
1, 140160, Note_on_c, 9, 35, 68
1, 140519, Note_on_c, 9, 35, 0
1, 140520, Note_on_c, 9, 35, 84
1, 140639, Note_on_c, 9, 35, 0
1, 141480, Note_on_c, 9, 35, 84
1, 141599, Note_on_c, 9, 35, 0
1, 141960, Note_on_c, 9, 35, 84
1, 142079, Note_on_c, 9, 35, 0
1, 142080, Note_on_c, 9, 35, 68
1, 142439, Note_on_c, 9, 35, 0
1, 142440, Note_on_c, 9, 35, 84
1, 142559, Note_on_c, 9, 35, 0
1, 143400, Note_on_c, 9, 35, 84
1, 143519, Note_on_c, 9, 35, 0
1, 143880, Note_on_c, 9, 35, 84
1, 143999, Note_on_c, 9, 35, 0
1, 144000, Note_on_c, 9, 35, 68
1, 144359, Note_on_c, 9, 35, 0
1, 144360, Note_on_c, 9, 35, 84
1, 144479, Note_on_c, 9, 35, 0
1, 145320, Note_on_c, 9, 35, 84
1, 145439, Note_on_c, 9, 35, 0
1, 145800, Note_on_c, 9, 35, 84
1, 145919, Note_on_c, 9, 35, 0
1, 145920, Note_on_c, 9, 35, 68
1, 146279, Note_on_c, 9, 35, 0
1, 146280, Note_on_c, 9, 35, 84
1, 146399, Note_on_c, 9, 35, 0
1, 147240, Note_on_c, 9, 35, 84
1, 147359, Note_on_c, 9, 35, 0
1, 147720, Note_on_c, 9, 35, 84
1, 147839, Note_on_c, 9, 35, 0
1, 149760, Note_on_c, 9, 35, 68
1, 150119, Note_on_c, 9, 35, 0
1, 150120, Note_on_c, 9, 35, 84
1, 150239, Note_on_c, 9, 35, 0
1, 150600, Note_on_c, 9, 35, 84
1, 150719, Note_on_c, 9, 35, 0
1, 150720, Note_on_c, 9, 35, 68
1, 151199, Note_on_c, 9, 35, 0
1, 151680, Note_on_c, 9, 35, 68
1, 152039, Note_on_c, 9, 35, 0
1, 152040, Note_on_c, 9, 35, 84
1, 152159, Note_on_c, 9, 35, 0
1, 152520, Note_on_c, 9, 35, 84
1, 152639, Note_on_c, 9, 35, 0
1, 152640, Note_on_c, 9, 35, 68
1, 153119, Note_on_c, 9, 35, 0
1, 153600, Note_on_c, 9, 35, 68
1, 153959, Note_on_c, 9, 35, 0
1, 153960, Note_on_c, 9, 35, 84
1, 154079, Note_on_c, 9, 35, 0
1, 154440, Note_on_c, 9, 35, 84
1, 154559, Note_on_c, 9, 35, 0
1, 154560, Note_on_c, 9, 35, 68
1, 155039, Note_on_c, 9, 35, 0
1, 155520, Note_on_c, 9, 35, 68
1, 155879, Note_on_c, 9, 35, 0
1, 155880, Note_on_c, 9, 35, 84
1, 155999, Note_on_c, 9, 35, 0
1, 156360, Note_on_c, 9, 35, 84
1, 156479, Note_on_c, 9, 35, 0
1, 156480, Note_on_c, 9, 35, 68
1, 156959, Note_on_c, 9, 35, 0
1, 157440, Note_on_c, 9, 35, 68
1, 157799, Note_on_c, 9, 35, 0
1, 157800, Note_on_c, 9, 35, 84
1, 157919, Note_on_c, 9, 35, 0
1, 158280, Note_on_c, 9, 35, 84
1, 158399, Note_on_c, 9, 35, 0
1, 158400, Note_on_c, 9, 35, 68
1, 158879, Note_on_c, 9, 35, 0
1, 159360, Note_on_c, 9, 35, 68
1, 159839, Note_on_c, 9, 35, 0
1, 160320, Note_on_c, 9, 35, 68
1, 160799, Note_on_c, 9, 35, 0
1, 161280, Note_on_c, 9, 35, 68
1, 161639, Note_on_c, 9, 35, 0
1, 161640, Note_on_c, 9, 35, 84
1, 161759, Note_on_c, 9, 35, 0
1, 162120, Note_on_c, 9, 35, 84
1, 162239, Note_on_c, 9, 35, 0
1, 162240, Note_on_c, 9, 35, 68
1, 162719, Note_on_c, 9, 35, 0
1, 163200, Note_on_c, 9, 35, 68
1, 163559, Note_on_c, 9, 35, 0
1, 163560, Note_on_c, 9, 35, 84
1, 163679, Note_on_c, 9, 35, 0
1, 164040, Note_on_c, 9, 35, 84
1, 164159, Note_on_c, 9, 35, 0
1, 164160, Note_on_c, 9, 35, 68
1, 164639, Note_on_c, 9, 35, 0
1, 165120, Note_on_c, 9, 35, 67
1, 165599, Note_on_c, 9, 35, 0
1, 166440, Note_on_c, 9, 35, 67
1, 166559, Note_on_c, 9, 35, 0
1, 166920, Note_on_c, 9, 35, 67
1, 167039, Note_on_c, 9, 35, 0
1, 167040, Note_on_c, 9, 35, 67
1, 167519, Note_on_c, 9, 35, 0
1, 168960, Note_on_c, 9, 35, 68
1, 169319, Note_on_c, 9, 35, 0
1, 169320, Note_on_c, 9, 35, 84
1, 169439, Note_on_c, 9, 35, 0
1, 169440, Note_on_c, 9, 39, 67
1, 169799, Note_on_c, 9, 39, 0
1, 169800, Note_on_c, 9, 39, 67
1, 169919, Note_on_c, 9, 39, 0
1, 169920, Note_on_c, 9, 35, 68
1, 170279, Note_on_c, 9, 35, 0
1, 170280, Note_on_c, 9, 35, 84
1, 170399, Note_on_c, 9, 35, 0
1, 170400, Note_on_c, 9, 39, 67
1, 170640, Note_on_c, 9, 35, 84
1, 170759, Note_on_c, 9, 35, 0
1, 170760, Note_on_c, 9, 35, 84
1, 170879, Note_on_c, 9, 39, 0
1, 170879, Note_on_c, 9, 35, 0
1, 170880, Note_on_c, 9, 35, 68
1, 171239, Note_on_c, 9, 35, 0
1, 171240, Note_on_c, 9, 35, 84
1, 171359, Note_on_c, 9, 35, 0
1, 171360, Note_on_c, 9, 39, 67
1, 171839, Note_on_c, 9, 39, 0
1, 171840, Note_on_c, 9, 35, 68
1, 172199, Note_on_c, 9, 35, 0
1, 172200, Note_on_c, 9, 35, 84
1, 172319, Note_on_c, 9, 35, 0
1, 172320, Note_on_c, 9, 39, 67
1, 172560, Note_on_c, 9, 35, 84
1, 172679, Note_on_c, 9, 35, 0
1, 172680, Note_on_c, 9, 35, 84
1, 172799, Note_on_c, 9, 39, 0
1, 172799, Note_on_c, 9, 35, 0
1, 172800, Note_on_c, 9, 35, 68
1, 173159, Note_on_c, 9, 35, 0
1, 173160, Note_on_c, 9, 35, 84
1, 173279, Note_on_c, 9, 35, 0
1, 173280, Note_on_c, 9, 39, 67
1, 173639, Note_on_c, 9, 39, 0
1, 173640, Note_on_c, 9, 39, 67
1, 173759, Note_on_c, 9, 39, 0
1, 173760, Note_on_c, 9, 35, 68
1, 174119, Note_on_c, 9, 35, 0
1, 174120, Note_on_c, 9, 35, 84
1, 174239, Note_on_c, 9, 35, 0
1, 174240, Note_on_c, 9, 39, 67
1, 174480, Note_on_c, 9, 35, 84
1, 174599, Note_on_c, 9, 35, 0
1, 174600, Note_on_c, 9, 35, 84
1, 174719, Note_on_c, 9, 39, 0
1, 174719, Note_on_c, 9, 35, 0
1, 174720, Note_on_c, 9, 35, 68
1, 175079, Note_on_c, 9, 35, 0
1, 175080, Note_on_c, 9, 35, 84
1, 175199, Note_on_c, 9, 35, 0
1, 175200, Note_on_c, 9, 39, 67
1, 175679, Note_on_c, 9, 39, 0
1, 175680, Note_on_c, 9, 35, 68
1, 176039, Note_on_c, 9, 35, 0
1, 176040, Note_on_c, 9, 35, 84
1, 176159, Note_on_c, 9, 35, 0
1, 176160, Note_on_c, 9, 39, 67
1, 176400, Note_on_c, 9, 35, 84
1, 176519, Note_on_c, 9, 35, 0
1, 176520, Note_on_c, 9, 35, 84
1, 176639, Note_on_c, 9, 39, 0
1, 176639, Note_on_c, 9, 35, 0
1, 176640, Note_on_c, 9, 35, 68
1, 176999, Note_on_c, 9, 35, 0
1, 177000, Note_on_c, 9, 35, 84
1, 177119, Note_on_c, 9, 35, 0
1, 177120, Note_on_c, 9, 39, 67
1, 177479, Note_on_c, 9, 39, 0
1, 177480, Note_on_c, 9, 39, 67
1, 177599, Note_on_c, 9, 39, 0
1, 177600, Note_on_c, 9, 35, 68
1, 177959, Note_on_c, 9, 35, 0
1, 177960, Note_on_c, 9, 35, 84
1, 178079, Note_on_c, 9, 35, 0
1, 178080, Note_on_c, 9, 39, 67
1, 178320, Note_on_c, 9, 35, 84
1, 178439, Note_on_c, 9, 35, 0
1, 178440, Note_on_c, 9, 35, 84
1, 178559, Note_on_c, 9, 39, 0
1, 178559, Note_on_c, 9, 35, 0
1, 178560, Note_on_c, 9, 35, 68
1, 178919, Note_on_c, 9, 35, 0
1, 178920, Note_on_c, 9, 35, 84
1, 179039, Note_on_c, 9, 35, 0
1, 179040, Note_on_c, 9, 39, 67
1, 179519, Note_on_c, 9, 39, 0
1, 179520, Note_on_c, 9, 35, 68
1, 179879, Note_on_c, 9, 35, 0
1, 179880, Note_on_c, 9, 35, 84
1, 179999, Note_on_c, 9, 35, 0
1, 180000, Note_on_c, 9, 39, 67
1, 180240, Note_on_c, 9, 35, 84
1, 180359, Note_on_c, 9, 35, 0
1, 180360, Note_on_c, 9, 35, 84
1, 180479, Note_on_c, 9, 39, 0
1, 180479, Note_on_c, 9, 35, 0
1, 180480, Note_on_c, 9, 35, 68
1, 180839, Note_on_c, 9, 35, 0
1, 180840, Note_on_c, 9, 35, 84
1, 180959, Note_on_c, 9, 35, 0
1, 180960, Note_on_c, 9, 39, 67
1, 181319, Note_on_c, 9, 39, 0
1, 181320, Note_on_c, 9, 39, 67
1, 181439, Note_on_c, 9, 39, 0
1, 181440, Note_on_c, 9, 35, 68
1, 181799, Note_on_c, 9, 35, 0
1, 181800, Note_on_c, 9, 35, 84
1, 181919, Note_on_c, 9, 35, 0
1, 181920, Note_on_c, 9, 39, 67
1, 182160, Note_on_c, 9, 35, 84
1, 182279, Note_on_c, 9, 35, 0
1, 182280, Note_on_c, 9, 35, 84
1, 182399, Note_on_c, 9, 39, 0
1, 182399, Note_on_c, 9, 35, 0
1, 184320, Note_on_c, 9, 35, 68
1, 184679, Note_on_c, 9, 35, 0
1, 184680, Note_on_c, 9, 35, 84
1, 184799, Note_on_c, 9, 35, 0
1, 185160, Note_on_c, 9, 35, 84
1, 185279, Note_on_c, 9, 35, 0
1, 185280, Note_on_c, 9, 35, 68
1, 185759, Note_on_c, 9, 35, 0
1, 186240, Note_on_c, 9, 35, 68
1, 186719, Note_on_c, 9, 35, 0
1, 187200, Note_on_c, 9, 35, 68
1, 187679, Note_on_c, 9, 35, 0
1, 188160, Note_on_c, 9, 35, 68
1, 188519, Note_on_c, 9, 35, 0
1, 188520, Note_on_c, 9, 35, 84
1, 188639, Note_on_c, 9, 35, 0
1, 189000, Note_on_c, 9, 35, 84
1, 189119, Note_on_c, 9, 35, 0
1, 189120, Note_on_c, 9, 35, 68
1, 189599, Note_on_c, 9, 35, 0
1, 190080, Note_on_c, 9, 35, 68
1, 190439, Note_on_c, 9, 35, 0
1, 190440, Note_on_c, 9, 35, 84
1, 190559, Note_on_c, 9, 35, 0
1, 190920, Note_on_c, 9, 35, 84
1, 191039, Note_on_c, 9, 35, 0
1, 191040, Note_on_c, 9, 35, 68
1, 191519, Note_on_c, 9, 35, 0
1, 192000, Note_on_c, 9, 35, 67
1, 192479, Note_on_c, 9, 35, 0
1, 193320, Note_on_c, 9, 35, 67
1, 193439, Note_on_c, 9, 35, 0
1, 193800, Note_on_c, 9, 35, 67
1, 193919, Note_on_c, 9, 35, 0
1, 193920, Note_on_c, 9, 35, 67
1, 194399, Note_on_c, 9, 35, 0
1, 194880, Note_on_c, 9, 35, 67
1, 195239, Note_on_c, 9, 35, 0
1, 195240, Note_on_c, 9, 35, 67
1, 195359, Note_on_c, 9, 35, 0
1, 195720, Note_on_c, 9, 35, 67
1, 195839, Note_on_c, 9, 35, 0
1, 195840, Note_on_c, 9, 35, 68
1, 196199, Note_on_c, 9, 35, 0
1, 196200, Note_on_c, 9, 35, 84
1, 196319, Note_on_c, 9, 35, 0
1, 196680, Note_on_c, 9, 35, 84
1, 196799, Note_on_c, 9, 35, 0
1, 196800, Note_on_c, 9, 35, 68
1, 197279, Note_on_c, 9, 35, 0
1, 197760, Note_on_c, 9, 35, 68
1, 198119, Note_on_c, 9, 35, 0
1, 198120, Note_on_c, 9, 35, 84
1, 198239, Note_on_c, 9, 35, 0
1, 198600, Note_on_c, 9, 35, 84
1, 198719, Note_on_c, 9, 35, 0
1, 198720, Note_on_c, 9, 35, 68
1, 199199, Note_on_c, 9, 35, 0
1, 199680, Note_on_c, 9, 35, 68
1, 200039, Note_on_c, 9, 35, 0
1, 200040, Note_on_c, 9, 35, 84
1, 200159, Note_on_c, 9, 35, 0
1, 200520, Note_on_c, 9, 35, 84
1, 200639, Note_on_c, 9, 35, 0
1, 200640, Note_on_c, 9, 35, 68
1, 201119, Note_on_c, 9, 35, 0
1, 201600, Note_on_c, 9, 35, 68
1, 201959, Note_on_c, 9, 35, 0
1, 201960, Note_on_c, 9, 35, 84
1, 202079, Note_on_c, 9, 35, 0
1, 202440, Note_on_c, 9, 35, 84
1, 202559, Note_on_c, 9, 35, 0
1, 202560, Note_on_c, 9, 35, 68
1, 203039, Note_on_c, 9, 35, 0
1, 203520, Note_on_c, 9, 35, 68
1, 203879, Note_on_c, 9, 35, 0
1, 203880, Note_on_c, 9, 35, 84
1, 203999, Note_on_c, 9, 35, 0
1, 204360, Note_on_c, 9, 35, 84
1, 204479, Note_on_c, 9, 35, 0
1, 204480, Note_on_c, 9, 35, 68
1, 204959, Note_on_c, 9, 35, 0
1, 205440, Note_on_c, 9, 35, 68
1, 205919, Note_on_c, 9, 35, 0
1, 206400, Note_on_c, 9, 35, 68
1, 206879, Note_on_c, 9, 35, 0
1, 207360, Note_on_c, 9, 35, 68
1, 207719, Note_on_c, 9, 35, 0
1, 207720, Note_on_c, 9, 35, 84
1, 207839, Note_on_c, 9, 35, 0
1, 208200, Note_on_c, 9, 35, 84
1, 208319, Note_on_c, 9, 35, 0
1, 208320, Note_on_c, 9, 35, 68
1, 208799, Note_on_c, 9, 35, 0
1, 209280, Tempo, 500000
1, 209280, Note_on_c, 9, 35, 68
1, 209325, Tempo, 504202
1, 209370, Tempo, 508475
1, 209415, Tempo, 512821
1, 209460, Tempo, 517241
1, 209505, Tempo, 521739
1, 209550, Tempo, 526316
1, 209595, Tempo, 530973
1, 209640, Tempo, 535714
1, 209685, Tempo, 540541
1, 209730, Tempo, 545455
1, 209759, Note_on_c, 9, 35, 0
1, 209775, Tempo, 550459
1, 209820, Tempo, 555556
1, 209865, Tempo, 560748
1, 209910, Tempo, 566038
1, 209955, Tempo, 571429
1, 210000, Tempo, 576923
1, 210045, Tempo, 582524
1, 210090, Tempo, 588235
1, 210135, Tempo, 594059
1, 210180, Tempo, 600000
1, 210225, Tempo, 606061
1, 210270, Tempo, 612245
1, 210315, Tempo, 618557
1, 210360, Tempo, 625000
1, 210405, Tempo, 631579
1, 210450, Tempo, 638298
1, 210495, Tempo, 645161
1, 210540, Tempo, 652174
1, 210560, Note_on_c, 9, 35, 61
1, 210585, Tempo, 659341
1, 210630, Tempo, 666667
1, 210675, Tempo, 674157
1, 210719, Note_on_c, 9, 35, 0
1, 210720, Tempo, 681818
1, 210765, Tempo, 689655
1, 210810, Tempo, 697674
1, 210855, Tempo, 705882
1, 210900, Tempo, 714286
1, 210945, Tempo, 722892
1, 210960, Note_on_c, 9, 35, 67
1, 210990, Tempo, 731707
1, 211035, Tempo, 740741
1, 211080, Tempo, 750000
1, 211199, Note_on_c, 9, 35, 0
1, 211200, Tempo, 1000000
1, 211200, Note_on_c, 9, 35, 67
1, 211679, Note_on_c, 9, 35, 0
1, 212520, Note_on_c, 9, 35, 67
1, 212639, Note_on_c, 9, 35, 0
1, 213120, Tempo, 750000
1, 216840, Note_on_c, 9, 35, 67
1, 216959, Note_on_c, 9, 35, 0
1, 216960, Note_on_c, 9, 35, 67
1, 217439, Note_on_c, 9, 35, 0
1, 217440, Note_on_c, 9, 35, 127
1, 217919, Note_on_c, 9, 35, 0
1, 217920, End_track
0, 0, End_of_file
