0, 0, Header, 1, 1, 480
1, 0, Start_track
1, 0, Time_signature, 4, 2, 24, 8
1, 0, Key_signature, 0, "major"
1, 0, Tempo, 480000
1, 0, Control_c, 9, 121, 0
1, 0, Program_c, 9, 0
1, 0, Control_c, 9, 7, 100
1, 0, Control_c, 9, 10, 64
1, 0, Control_c, 9, 91, 0
1, 0, Control_c, 9, 93, 0
1, 0, MIDI_port, 0
1, 1920, Note_on_c, 9, 36, 127
1, 2399, Note_on_c, 9, 36, 0
1, 4800, Note_on_c, 9, 36, 127
1, 5279, Note_on_c, 9, 36, 0
1, 5280, Note_on_c, 9, 36, 127
1, 5759, Note_on_c, 9, 36, 0
1, 5760, Note_on_c, 9, 36, 127
1, 6239, Note_on_c, 9, 36, 0
1, 8640, Note_on_c, 9, 36, 127
1, 9119, Note_on_c, 9, 36, 0
1, 9120, Note_on_c, 9, 36, 127
1, 9599, Note_on_c, 9, 36, 0
1, 9600, Note_on_c, 9, 36, 127
1, 10079, Note_on_c, 9, 36, 0
1, 10320, Note_on_c, 9, 36, 127
1, 10559, Note_on_c, 9, 36, 0
1, 12480, Note_on_c, 9, 36, 127
1, 12959, Note_on_c, 9, 36, 0
1, 12960, Note_on_c, 9, 36, 127
1, 13439, Note_on_c, 9, 36, 0
1, 13440, Note_on_c, 9, 36, 127
1, 13919, Note_on_c, 9, 36, 0
1, 14160, Note_on_c, 9, 36, 127
1, 14399, Note_on_c, 9, 36, 0
1, 16320, Note_on_c, 9, 36, 127
1, 16799, Note_on_c, 9, 36, 0
1, 16800, Note_on_c, 9, 36, 127
1, 17279, Note_on_c, 9, 36, 0
1, 17280, Note_on_c, 9, 36, 127
1, 17519, Note_on_c, 9, 36, 0
1, 17520, Note_on_c, 9, 36, 127
1, 17759, Note_on_c, 9, 36, 0
1, 18000, Note_on_c, 9, 36, 127
1, 18239, Note_on_c, 9, 36, 0
1, 18240, Note_on_c, 9, 36, 127
1, 18719, Note_on_c, 9, 36, 0
1, 19200, Note_on_c, 9, 36, 127
1, 19439, Note_on_c, 9, 36, 0
1, 19440, Note_on_c, 9, 36, 127
1, 19679, Note_on_c, 9, 36, 0
1, 19920, Note_on_c, 9, 36, 127
1, 20159, Note_on_c, 9, 36, 0
1, 20160, Note_on_c, 9, 36, 127
1, 20639, Note_on_c, 9, 36, 0
1, 20880, Note_on_c, 9, 36, 127
1, 21119, Note_on_c, 9, 36, 0
1, 21120, Note_on_c, 9, 36, 127
1, 21359, Note_on_c, 9, 36, 0
1, 21360, Note_on_c, 9, 36, 127
1, 21599, Note_on_c, 9, 36, 0
1, 21840, Note_on_c, 9, 36, 127
1, 22079, Note_on_c, 9, 36, 0
1, 22080, Note_on_c, 9, 36, 127
1, 22559, Note_on_c, 9, 36, 0
1, 23040, Note_on_c, 9, 36, 127
1, 23279, Note_on_c, 9, 36, 0
1, 23280, Note_on_c, 9, 36, 127
1, 23519, Note_on_c, 9, 36, 0
1, 23760, Note_on_c, 9, 36, 127
1, 23999, Note_on_c, 9, 36, 0
1, 24000, Note_on_c, 9, 36, 127
1, 24479, Note_on_c, 9, 36, 0
1, 24720, Note_on_c, 9, 36, 127
1, 24959, Note_on_c, 9, 36, 0
1, 24960, Note_on_c, 9, 36, 127
1, 25199, Note_on_c, 9, 36, 0
1, 25200, Note_on_c, 9, 36, 127
1, 25439, Note_on_c, 9, 36, 0
1, 25680, Note_on_c, 9, 36, 127
1, 25919, Note_on_c, 9, 36, 0
1, 25920, Note_on_c, 9, 36, 127
1, 26399, Note_on_c, 9, 36, 0
1, 26880, Note_on_c, 9, 36, 127
1, 27119, Note_on_c, 9, 36, 0
1, 27120, Note_on_c, 9, 36, 127
1, 27359, Note_on_c, 9, 36, 0
1, 27600, Note_on_c, 9, 36, 127
1, 27839, Note_on_c, 9, 36, 0
1, 27840, Note_on_c, 9, 36, 127
1, 28319, Note_on_c, 9, 36, 0
1, 28560, Note_on_c, 9, 36, 127
1, 28799, Note_on_c, 9, 36, 0
1, 28800, Note_on_c, 9, 36, 127
1, 29039, Note_on_c, 9, 36, 0
1, 29040, Note_on_c, 9, 36, 127
1, 29279, Note_on_c, 9, 36, 0
1, 29520, Note_on_c, 9, 36, 127
1, 29759, Note_on_c, 9, 36, 0
1, 29760, Note_on_c, 9, 36, 127
1, 30239, Note_on_c, 9, 36, 0
1, 30720, Note_on_c, 9, 36, 127
1, 30959, Note_on_c, 9, 36, 0
1, 30960, Note_on_c, 9, 36, 127
1, 31199, Note_on_c, 9, 36, 0
1, 31440, Note_on_c, 9, 36, 127
1, 31679, Note_on_c, 9, 36, 0
1, 31680, Note_on_c, 9, 36, 127
1, 32159, Note_on_c, 9, 36, 0
1, 32640, Note_on_c, 9, 36, 127
1, 32879, Note_on_c, 9, 36, 0
1, 32880, Note_on_c, 9, 36, 127
1, 33119, Note_on_c, 9, 36, 0
1, 33360, Note_on_c, 9, 36, 127
1, 33599, Note_on_c, 9, 36, 0
1, 33600, Note_on_c, 9, 36, 127
1, 34079, Note_on_c, 9, 36, 0
1, 34320, Note_on_c, 9, 36, 127
1, 34559, Note_on_c, 9, 36, 0
1, 34560, Note_on_c, 9, 36, 127
1, 34799, Note_on_c, 9, 36, 0
1, 34800, Note_on_c, 9, 36, 127
1, 35039, Note_on_c, 9, 36, 0
1, 35280, Note_on_c, 9, 36, 127
1, 35519, Note_on_c, 9, 36, 0
1, 35520, Note_on_c, 9, 36, 127
1, 35999, Note_on_c, 9, 36, 0
1, 36480, Note_on_c, 9, 36, 127
1, 36719, Note_on_c, 9, 36, 0
1, 36720, Note_on_c, 9, 36, 127
1, 36959, Note_on_c, 9, 36, 0
1, 37200, Note_on_c, 9, 36, 127
1, 37439, Note_on_c, 9, 36, 0
1, 37440, Note_on_c, 9, 36, 127
1, 37919, Note_on_c, 9, 36, 0
1, 38160, Note_on_c, 9, 36, 127
1, 38399, Note_on_c, 9, 36, 0
1, 38400, Note_on_c, 9, 36, 127
1, 38639, Note_on_c, 9, 36, 0
1, 38640, Note_on_c, 9, 36, 127
1, 38879, Note_on_c, 9, 36, 0
1, 39120, Note_on_c, 9, 36, 127
1, 39359, Note_on_c, 9, 36, 0
1, 39360, Note_on_c, 9, 36, 127
1, 39839, Note_on_c, 9, 36, 0
1, 40320, Note_on_c, 9, 36, 127
1, 40559, Note_on_c, 9, 36, 0
1, 40560, Note_on_c, 9, 36, 127
1, 40799, Note_on_c, 9, 36, 0
1, 41040, Note_on_c, 9, 36, 127
1, 41279, Note_on_c, 9, 36, 0
1, 41280, Note_on_c, 9, 36, 127
1, 41759, Note_on_c, 9, 36, 0
1, 42000, Note_on_c, 9, 36, 127
1, 42239, Note_on_c, 9, 36, 0
1, 42240, Note_on_c, 9, 36, 127
1, 42479, Note_on_c, 9, 36, 0
1, 42480, Note_on_c, 9, 36, 127
1, 42719, Note_on_c, 9, 36, 0
1, 42960, Note_on_c, 9, 36, 127
1, 43199, Note_on_c, 9, 36, 0
1, 43200, Note_on_c, 9, 36, 127
1, 43679, Note_on_c, 9, 36, 0
1, 44160, Note_on_c, 9, 36, 127
1, 44399, Note_on_c, 9, 36, 0
1, 44400, Note_on_c, 9, 36, 127
1, 44639, Note_on_c, 9, 36, 0
1, 44880, Note_on_c, 9, 36, 127
1, 45119, Note_on_c, 9, 36, 0
1, 45120, Note_on_c, 9, 36, 127
1, 45599, Note_on_c, 9, 36, 0
1, 45840, Note_on_c, 9, 36, 127
1, 46079, Note_on_c, 9, 36, 0
1, 46080, Note_on_c, 9, 36, 127
1, 46319, Note_on_c, 9, 36, 0
1, 46320, Note_on_c, 9, 36, 127
1, 46559, Note_on_c, 9, 36, 0
1, 46800, Note_on_c, 9, 36, 127
1, 47039, Note_on_c, 9, 36, 0
1, 47040, Note_on_c, 9, 36, 127
1, 47519, Note_on_c, 9, 36, 0
1, 48000, Note_on_c, 9, 36, 127
1, 48239, Note_on_c, 9, 36, 0
1, 48240, Note_on_c, 9, 36, 127
1, 48479, Note_on_c, 9, 36, 0
1, 48720, Note_on_c, 9, 36, 127
1, 48959, Note_on_c, 9, 36, 0
1, 48960, Note_on_c, 9, 36, 127
1, 49439, Note_on_c, 9, 36, 0
1, 49680, Note_on_c, 9, 36, 127
1, 49919, Note_on_c, 9, 36, 0
1, 49920, Note_on_c, 9, 36, 127
1, 50159, Note_on_c, 9, 36, 0
1, 50160, Note_on_c, 9, 36, 127
1, 50399, Note_on_c, 9, 36, 0
1, 50640, Note_on_c, 9, 36, 127
1, 50879, Note_on_c, 9, 36, 0
1, 50880, Note_on_c, 9, 36, 127
1, 51359, Note_on_c, 9, 36, 0
1, 51840, Note_on_c, 9, 36, 127
1, 52319, Note_on_c, 9, 36, 0
1, 53760, Note_on_c, 9, 36, 127
1, 53999, Note_on_c, 9, 36, 0
1, 54000, Note_on_c, 9, 36, 127
1, 54239, Note_on_c, 9, 36, 0
1, 54480, Note_on_c, 9, 36, 127
1, 54719, Note_on_c, 9, 36, 0
1, 54720, Note_on_c, 9, 36, 127
1, 55199, Note_on_c, 9, 36, 0
1, 55680, Note_on_c, 9, 36, 127
1, 55919, Note_on_c, 9, 36, 0
1, 55920, Note_on_c, 9, 36, 127
1, 56159, Note_on_c, 9, 36, 0
1, 56400, Note_on_c, 9, 36, 127
1, 56639, Note_on_c, 9, 36, 0
1, 56640, Note_on_c, 9, 36, 127
1, 57119, Note_on_c, 9, 36, 0
1, 57360, Note_on_c, 9, 36, 127
1, 57599, Note_on_c, 9, 36, 0
1, 57600, Note_on_c, 9, 36, 127
1, 57839, Note_on_c, 9, 36, 0
1, 57840, Note_on_c, 9, 36, 127
1, 58079, Note_on_c, 9, 36, 0
1, 58320, Note_on_c, 9, 36, 127
1, 58559, Note_on_c, 9, 36, 0
1, 58560, Note_on_c, 9, 36, 127
1, 59039, Note_on_c, 9, 36, 0
1, 59520, Note_on_c, 9, 36, 127
1, 59759, Note_on_c, 9, 36, 0
1, 59760, Note_on_c, 9, 36, 127
1, 59999, Note_on_c, 9, 36, 0
1, 60240, Note_on_c, 9, 36, 127
1, 60479, Note_on_c, 9, 36, 0
1, 60480, Note_on_c, 9, 36, 127
1, 60959, Note_on_c, 9, 36, 0
1, 61200, Note_on_c, 9, 36, 127
1, 61439, Note_on_c, 9, 36, 0
1, 61440, Note_on_c, 9, 36, 127
1, 61679, Note_on_c, 9, 36, 0
1, 61680, Note_on_c, 9, 36, 127
1, 61919, Note_on_c, 9, 36, 0
1, 62160, Note_on_c, 9, 36, 127
1, 62399, Note_on_c, 9, 36, 0
1, 62400, Note_on_c, 9, 36, 127
1, 62879, Note_on_c, 9, 36, 0
1, 63360, Note_on_c, 9, 36, 127
1, 63599, Note_on_c, 9, 36, 0
1, 63600, Note_on_c, 9, 36, 127
1, 63839, Note_on_c, 9, 36, 0
1, 64080, Note_on_c, 9, 36, 127
1, 64319, Note_on_c, 9, 36, 0
1, 64320, Note_on_c, 9, 36, 127
1, 64799, Note_on_c, 9, 36, 0
1, 65040, Note_on_c, 9, 36, 127
1, 65279, Note_on_c, 9, 36, 0
1, 65280, Note_on_c, 9, 36, 127
1, 65519, Note_on_c, 9, 36, 0
1, 65520, Note_on_c, 9, 36, 127
1, 65759, Note_on_c, 9, 36, 0
1, 66000, Note_on_c, 9, 36, 127
1, 66239, Note_on_c, 9, 36, 0
1, 66240, Note_on_c, 9, 36, 127
1, 66719, Note_on_c, 9, 36, 0
1, 67200, Note_on_c, 9, 36, 127
1, 67439, Note_on_c, 9, 36, 0
1, 67440, Note_on_c, 9, 36, 127
1, 67679, Note_on_c, 9, 36, 0
1, 67920, Note_on_c, 9, 36, 127
1, 68159, Note_on_c, 9, 36, 0
1, 68160, Note_on_c, 9, 36, 127
1, 68639, Note_on_c, 9, 36, 0
1, 69120, Note_on_c, 9, 36, 127
1, 69359, Note_on_c, 9, 36, 0
1, 69360, Note_on_c, 9, 36, 127
1, 69599, Note_on_c, 9, 36, 0
1, 69840, Note_on_c, 9, 36, 127
1, 70079, Note_on_c, 9, 36, 0
1, 70080, Note_on_c, 9, 36, 127
1, 70559, Note_on_c, 9, 36, 0
1, 70800, Note_on_c, 9, 36, 127
1, 71039, Note_on_c, 9, 36, 0
1, 71040, Note_on_c, 9, 36, 127
1, 71279, Note_on_c, 9, 36, 0
1, 71280, Note_on_c, 9, 36, 127
1, 71519, Note_on_c, 9, 36, 0
1, 71760, Note_on_c, 9, 36, 127
1, 71999, Note_on_c, 9, 36, 0
1, 72000, Note_on_c, 9, 36, 127
1, 72479, Note_on_c, 9, 36, 0
1, 72960, Note_on_c, 9, 36, 127
1, 73199, Note_on_c, 9, 36, 0
1, 73200, Note_on_c, 9, 36, 127
1, 73439, Note_on_c, 9, 36, 0
1, 73680, Note_on_c, 9, 36, 127
1, 73919, Note_on_c, 9, 36, 0
1, 73920, Note_on_c, 9, 36, 127
1, 74399, Note_on_c, 9, 36, 0
1, 74640, Note_on_c, 9, 36, 127
1, 74879, Note_on_c, 9, 36, 0
1, 74880, Note_on_c, 9, 36, 127
1, 75119, Note_on_c, 9, 36, 0
1, 75120, Note_on_c, 9, 36, 127
1, 75359, Note_on_c, 9, 36, 0
1, 75600, Note_on_c, 9, 36, 127
1, 75839, Note_on_c, 9, 36, 0
1, 75840, Note_on_c, 9, 36, 127
1, 76319, Note_on_c, 9, 36, 0
1, 76800, Note_on_c, 9, 36, 127
1, 77039, Note_on_c, 9, 36, 0
1, 77040, Note_on_c, 9, 36, 127
1, 77279, Note_on_c, 9, 36, 0
1, 77520, Note_on_c, 9, 36, 127
1, 77759, Note_on_c, 9, 36, 0
1, 77760, Note_on_c, 9, 36, 127
1, 78239, Note_on_c, 9, 36, 0
1, 78480, Note_on_c, 9, 36, 127
1, 78719, Note_on_c, 9, 36, 0
1, 78720, Note_on_c, 9, 36, 127
1, 78959, Note_on_c, 9, 36, 0
1, 78960, Note_on_c, 9, 36, 127
1, 79199, Note_on_c, 9, 36, 0
1, 79440, Note_on_c, 9, 36, 127
1, 79679, Note_on_c, 9, 36, 0
1, 79680, Note_on_c, 9, 36, 127
1, 80159, Note_on_c, 9, 36, 0
1, 80640, Note_on_c, 9, 36, 127
1, 80879, Note_on_c, 9, 36, 0
1, 80880, Note_on_c, 9, 36, 127
1, 81119, Note_on_c, 9, 36, 0
1, 81360, Note_on_c, 9, 36, 127
1, 81599, Note_on_c, 9, 36, 0
1, 81600, Note_on_c, 9, 36, 127
1, 82079, Note_on_c, 9, 36, 0
1, 82320, Note_on_c, 9, 36, 127
1, 82559, Note_on_c, 9, 36, 0
1, 82560, Note_on_c, 9, 36, 127
1, 82799, Note_on_c, 9, 36, 0
1, 82800, Note_on_c, 9, 36, 127
1, 83039, Note_on_c, 9, 36, 0
1, 83280, Note_on_c, 9, 36, 127
1, 83519, Note_on_c, 9, 36, 0
1, 83520, Note_on_c, 9, 36, 127
1, 83999, Note_on_c, 9, 36, 0
1, 84480, Note_on_c, 9, 36, 127
1, 84719, Note_on_c, 9, 36, 0
1, 84720, Note_on_c, 9, 36, 127
1, 84959, Note_on_c, 9, 36, 0
1, 85200, Note_on_c, 9, 36, 127
1, 85439, Note_on_c, 9, 36, 0
1, 85440, Note_on_c, 9, 36, 127
1, 85919, Note_on_c, 9, 36, 0
1, 86160, Note_on_c, 9, 36, 127
1, 86399, Note_on_c, 9, 36, 0
1, 86400, Note_on_c, 9, 36, 127
1, 86639, Note_on_c, 9, 36, 0
1, 86640, Note_on_c, 9, 36, 127
1, 86879, Note_on_c, 9, 36, 0
1, 87120, Note_on_c, 9, 36, 127
1, 87359, Note_on_c, 9, 36, 0
1, 87360, Note_on_c, 9, 36, 127
1, 87839, Note_on_c, 9, 36, 0
1, 88320, Note_on_c, 9, 36, 127
1, 88799, Note_on_c, 9, 36, 0
1, 90240, Note_on_c, 9, 36, 127
1, 90479, Note_on_c, 9, 36, 0
1, 90480, Note_on_c, 9, 36, 127
1, 90719, Note_on_c, 9, 36, 0
1, 90960, Note_on_c, 9, 36, 127
1, 91199, Note_on_c, 9, 36, 0
1, 91200, Note_on_c, 9, 36, 127
1, 91679, Note_on_c, 9, 36, 0
1, 92160, Note_on_c, 9, 36, 127
1, 92399, Note_on_c, 9, 36, 0
1, 92400, Note_on_c, 9, 36, 127
1, 92639, Note_on_c, 9, 36, 0
1, 92880, Note_on_c, 9, 36, 127
1, 93119, Note_on_c, 9, 36, 0
1, 93120, Note_on_c, 9, 36, 127
1, 93599, Note_on_c, 9, 36, 0
1, 93840, Note_on_c, 9, 36, 127
1, 94079, Note_on_c, 9, 36, 0
1, 94080, Note_on_c, 9, 36, 127
1, 94319, Note_on_c, 9, 36, 0
1, 94320, Note_on_c, 9, 36, 127
1, 94559, Note_on_c, 9, 36, 0
1, 94800, Note_on_c, 9, 36, 127
1, 95039, Note_on_c, 9, 36, 0
1, 95040, Note_on_c, 9, 36, 127
1, 95519, Note_on_c, 9, 36, 0
1, 96000, Note_on_c, 9, 36, 127
1, 96239, Note_on_c, 9, 36, 0
1, 96240, Note_on_c, 9, 36, 127
1, 96479, Note_on_c, 9, 36, 0
1, 96720, Note_on_c, 9, 36, 127
1, 96959, Note_on_c, 9, 36, 0
1, 96960, Note_on_c, 9, 36, 127
1, 97439, Note_on_c, 9, 36, 0
1, 97680, Note_on_c, 9, 36, 127
1, 97919, Note_on_c, 9, 36, 0
1, 97920, Note_on_c, 9, 36, 127
1, 98159, Note_on_c, 9, 36, 0
1, 98160, Note_on_c, 9, 36, 127
1, 98399, Note_on_c, 9, 36, 0
1, 98640, Note_on_c, 9, 36, 127
1, 98879, Note_on_c, 9, 36, 0
1, 98880, Note_on_c, 9, 36, 127
1, 99359, Note_on_c, 9, 36, 0
1, 99840, Note_on_c, 9, 36, 127
1, 100079, Note_on_c, 9, 36, 0
1, 100080, Note_on_c, 9, 36, 127
1, 100319, Note_on_c, 9, 36, 0
1, 100560, Note_on_c, 9, 36, 127
1, 100799, Note_on_c, 9, 36, 0
1, 100800, Note_on_c, 9, 36, 127
1, 101279, Note_on_c, 9, 36, 0
1, 101520, Note_on_c, 9, 36, 127
1, 101759, Note_on_c, 9, 36, 0
1, 101760, Note_on_c, 9, 36, 127
1, 101999, Note_on_c, 9, 36, 0
1, 102000, Note_on_c, 9, 36, 127
1, 102239, Note_on_c, 9, 36, 0
1, 102480, Note_on_c, 9, 36, 127
1, 102719, Note_on_c, 9, 36, 0
1, 102720, Note_on_c, 9, 36, 127
1, 103199, Note_on_c, 9, 36, 0
1, 103680, Note_on_c, 9, 36, 127
1, 103919, Note_on_c, 9, 36, 0
1, 103920, Note_on_c, 9, 36, 127
1, 104159, Note_on_c, 9, 36, 0
1, 104400, Note_on_c, 9, 36, 127
1, 104639, Note_on_c, 9, 36, 0
1, 104640, Note_on_c, 9, 36, 127
1, 105119, Note_on_c, 9, 36, 0
1, 105600, Note_on_c, 9, 36, 127
1, 105839, Note_on_c, 9, 36, 0
1, 105840, Note_on_c, 9, 36, 127
1, 106079, Note_on_c, 9, 36, 0
1, 106320, Note_on_c, 9, 36, 127
1, 106559, Note_on_c, 9, 36, 0
1, 106560, Note_on_c, 9, 36, 127
1, 107039, Note_on_c, 9, 36, 0
1, 107280, Note_on_c, 9, 36, 127
1, 107519, Note_on_c, 9, 36, 0
1, 107520, Note_on_c, 9, 36, 127
1, 107759, Note_on_c, 9, 36, 0
1, 107760, Note_on_c, 9, 36, 127
1, 107999, Note_on_c, 9, 36, 0
1, 108240, Note_on_c, 9, 36, 127
1, 108479, Note_on_c, 9, 36, 0
1, 108480, Note_on_c, 9, 36, 127
1, 108959, Note_on_c, 9, 36, 0
1, 109440, Note_on_c, 9, 36, 127
1, 109679, Note_on_c, 9, 36, 0
1, 109680, Note_on_c, 9, 36, 127
1, 109919, Note_on_c, 9, 36, 0
1, 110160, Note_on_c, 9, 36, 127
1, 110399, Note_on_c, 9, 36, 0
1, 110400, Note_on_c, 9, 36, 127
1, 110879, Note_on_c, 9, 36, 0
1, 111120, Note_on_c, 9, 36, 127
1, 111359, Note_on_c, 9, 36, 0
1, 111360, Note_on_c, 9, 36, 127
1, 111599, Note_on_c, 9, 36, 0
1, 111600, Note_on_c, 9, 36, 127
1, 111839, Note_on_c, 9, 36, 0
1, 112080, Note_on_c, 9, 36, 127
1, 112319, Note_on_c, 9, 36, 0
1, 112320, Note_on_c, 9, 36, 127
1, 112799, Note_on_c, 9, 36, 0
1, 113280, Note_on_c, 9, 36, 127
1, 113519, Note_on_c, 9, 36, 0
1, 113520, Note_on_c, 9, 36, 127
1, 113759, Note_on_c, 9, 36, 0
1, 114000, Note_on_c, 9, 36, 127
1, 114239, Note_on_c, 9, 36, 0
1, 114240, Note_on_c, 9, 36, 127
1, 114719, Note_on_c, 9, 36, 0
1, 114960, Note_on_c, 9, 36, 127
1, 115199, Note_on_c, 9, 36, 0
1, 115200, Note_on_c, 9, 36, 127
1, 115439, Note_on_c, 9, 36, 0
1, 115440, Note_on_c, 9, 36, 127
1, 115679, Note_on_c, 9, 36, 0
1, 115920, Note_on_c, 9, 36, 127
1, 116159, Note_on_c, 9, 36, 0
1, 116160, Note_on_c, 9, 36, 127
1, 116639, Note_on_c, 9, 36, 0
1, 117120, Note_on_c, 9, 36, 127
1, 117359, Note_on_c, 9, 36, 0
1, 117360, Note_on_c, 9, 36, 127
1, 117599, Note_on_c, 9, 36, 0
1, 117840, Note_on_c, 9, 36, 127
1, 118079, Note_on_c, 9, 36, 0
1, 118080, Note_on_c, 9, 36, 127
1, 118559, Note_on_c, 9, 36, 0
1, 118800, Note_on_c, 9, 36, 127
1, 119039, Note_on_c, 9, 36, 0
1, 119040, Note_on_c, 9, 36, 127
1, 119279, Note_on_c, 9, 36, 0
1, 119280, Note_on_c, 9, 36, 127
1, 119519, Note_on_c, 9, 36, 0
1, 119760, Note_on_c, 9, 36, 127
1, 119999, Note_on_c, 9, 36, 0
1, 120000, Note_on_c, 9, 36, 127
1, 120479, Note_on_c, 9, 36, 0
1, 120960, Note_on_c, 9, 36, 127
1, 121199, Note_on_c, 9, 36, 0
1, 121200, Note_on_c, 9, 36, 127
1, 121439, Note_on_c, 9, 36, 0
1, 121680, Note_on_c, 9, 36, 127
1, 121919, Note_on_c, 9, 36, 0
1, 121920, Note_on_c, 9, 36, 127
1, 122399, Note_on_c, 9, 36, 0
1, 122640, Note_on_c, 9, 36, 127
1, 122879, Note_on_c, 9, 36, 0
1, 122880, Note_on_c, 9, 36, 127
1, 123119, Note_on_c, 9, 36, 0
1, 123120, Note_on_c, 9, 36, 127
1, 123359, Note_on_c, 9, 36, 0
1, 123600, Note_on_c, 9, 36, 127
1, 123839, Note_on_c, 9, 36, 0
1, 123840, Note_on_c, 9, 36, 127
1, 124319, Note_on_c, 9, 36, 0
1, 124800, Note_on_c, 9, 36, 127
1, 125279, Note_on_c, 9, 36, 0
1, 126720, Note_on_c, 9, 36, 127
1, 126959, Note_on_c, 9, 36, 0
1, 126960, Note_on_c, 9, 36, 127
1, 127199, Note_on_c, 9, 36, 0
1, 127440, Note_on_c, 9, 36, 127
1, 127679, Note_on_c, 9, 36, 0
1, 127680, Note_on_c, 9, 36, 127
1, 128159, Note_on_c, 9, 36, 0
1, 128640, Note_on_c, 9, 36, 127
1, 128879, Note_on_c, 9, 36, 0
1, 128880, Note_on_c, 9, 36, 127
1, 129119, Note_on_c, 9, 36, 0
1, 129360, Note_on_c, 9, 36, 127
1, 129599, Note_on_c, 9, 36, 0
1, 129600, Note_on_c, 9, 36, 127
1, 130079, Note_on_c, 9, 36, 0
1, 130320, Note_on_c, 9, 36, 127
1, 130559, Note_on_c, 9, 36, 0
1, 130560, Note_on_c, 9, 36, 127
1, 130799, Note_on_c, 9, 36, 0
1, 130800, Note_on_c, 9, 36, 127
1, 131039, Note_on_c, 9, 36, 0
1, 131280, Note_on_c, 9, 36, 127
1, 131519, Note_on_c, 9, 36, 0
1, 131520, Note_on_c, 9, 36, 127
1, 131999, Note_on_c, 9, 36, 0
1, 132480, Note_on_c, 9, 36, 127
1, 132719, Note_on_c, 9, 36, 0
1, 132720, Note_on_c, 9, 36, 127
1, 132959, Note_on_c, 9, 36, 0
1, 133200, Note_on_c, 9, 36, 127
1, 133439, Note_on_c, 9, 36, 0
1, 133440, Note_on_c, 9, 36, 127
1, 133919, Note_on_c, 9, 36, 0
1, 134160, Note_on_c, 9, 36, 127
1, 134399, Note_on_c, 9, 36, 0
1, 134400, Note_on_c, 9, 36, 127
1, 134639, Note_on_c, 9, 36, 0
1, 134640, Note_on_c, 9, 36, 127
1, 134879, Note_on_c, 9, 36, 0
1, 135120, Note_on_c, 9, 36, 127
1, 135359, Note_on_c, 9, 36, 0
1, 135360, Note_on_c, 9, 36, 127
1, 135839, Note_on_c, 9, 36, 0
1, 136320, Note_on_c, 9, 36, 127
1, 136559, Note_on_c, 9, 36, 0
1, 136560, Note_on_c, 9, 36, 127
1, 136799, Note_on_c, 9, 36, 0
1, 137040, Note_on_c, 9, 36, 127
1, 137279, Note_on_c, 9, 36, 0
1, 137280, Note_on_c, 9, 36, 127
1, 137759, Note_on_c, 9, 36, 0
1, 138000, Note_on_c, 9, 36, 127
1, 138239, Note_on_c, 9, 36, 0
1, 138240, Note_on_c, 9, 36, 127
1, 138479, Note_on_c, 9, 36, 0
1, 138480, Note_on_c, 9, 36, 127
1, 138719, Note_on_c, 9, 36, 0
1, 138960, Note_on_c, 9, 36, 127
1, 139199, Note_on_c, 9, 36, 0
1, 139200, Note_on_c, 9, 36, 127
1, 139679, Note_on_c, 9, 36, 0
1, 140160, Note_on_c, 9, 36, 127
1, 140399, Note_on_c, 9, 36, 0
1, 140400, Note_on_c, 9, 36, 127
1, 140639, Note_on_c, 9, 36, 0
1, 140880, Note_on_c, 9, 36, 127
1, 141119, Note_on_c, 9, 36, 0
1, 141120, Note_on_c, 9, 36, 127
1, 141599, Note_on_c, 9, 36, 0
1, 142080, Note_on_c, 9, 36, 127
1, 142319, Note_on_c, 9, 36, 0
1, 142320, Note_on_c, 9, 36, 127
1, 142559, Note_on_c, 9, 36, 0
1, 142800, Note_on_c, 9, 36, 127
1, 143039, Note_on_c, 9, 36, 0
1, 143040, Note_on_c, 9, 36, 127
1, 143519, Note_on_c, 9, 36, 0
1, 143760, Note_on_c, 9, 36, 127
1, 143999, Note_on_c, 9, 36, 0
1, 144000, Note_on_c, 9, 36, 127
1, 144239, Note_on_c, 9, 36, 0
1, 144240, Note_on_c, 9, 36, 127
1, 144479, Note_on_c, 9, 36, 0
1, 144720, Note_on_c, 9, 36, 127
1, 144959, Note_on_c, 9, 36, 0
1, 144960, Note_on_c, 9, 36, 127
1, 145439, Note_on_c, 9, 36, 0
1, 145920, Note_on_c, 9, 36, 127
1, 146159, Note_on_c, 9, 36, 0
1, 146160, Note_on_c, 9, 36, 127
1, 146399, Note_on_c, 9, 36, 0
1, 146640, Note_on_c, 9, 36, 127
1, 146879, Note_on_c, 9, 36, 0
1, 146880, Note_on_c, 9, 36, 127
1, 147359, Note_on_c, 9, 36, 0
1, 147600, Note_on_c, 9, 36, 127
1, 147839, Note_on_c, 9, 36, 0
1, 147840, Note_on_c, 9, 36, 127
1, 148079, Note_on_c, 9, 36, 0
1, 148080, Note_on_c, 9, 36, 127
1, 148319, Note_on_c, 9, 36, 0
1, 148560, Note_on_c, 9, 36, 127
1, 148799, Note_on_c, 9, 36, 0
1, 148800, Note_on_c, 9, 36, 127
1, 149279, Note_on_c, 9, 36, 0
1, 149760, Note_on_c, 9, 36, 127
1, 149999, Note_on_c, 9, 36, 0
1, 150000, Note_on_c, 9, 36, 127
1, 150239, Note_on_c, 9, 36, 0
1, 150480, Note_on_c, 9, 36, 127
1, 150719, Note_on_c, 9, 36, 0
1, 150720, Note_on_c, 9, 36, 127
1, 151199, Note_on_c, 9, 36, 0
1, 151440, Note_on_c, 9, 36, 127
1, 151679, Note_on_c, 9, 36, 0
1, 151680, Note_on_c, 9, 36, 127
1, 151919, Note_on_c, 9, 36, 0
1, 151920, Note_on_c, 9, 36, 127
1, 152159, Note_on_c, 9, 36, 0
1, 152400, Note_on_c, 9, 36, 127
1, 152639, Note_on_c, 9, 36, 0
1, 152640, Note_on_c, 9, 36, 127
1, 153119, Note_on_c, 9, 36, 0
1, 153600, Note_on_c, 9, 36, 127
1, 153839, Note_on_c, 9, 36, 0
1, 153840, Note_on_c, 9, 36, 127
1, 154079, Note_on_c, 9, 36, 0
1, 154320, Note_on_c, 9, 36, 127
1, 154559, Note_on_c, 9, 36, 0
1, 154560, Note_on_c, 9, 36, 127
1, 155039, Note_on_c, 9, 36, 0
1, 155280, Note_on_c, 9, 36, 127
1, 155519, Note_on_c, 9, 36, 0
1, 155520, Note_on_c, 9, 36, 127
1, 155759, Note_on_c, 9, 36, 0
1, 155760, Note_on_c, 9, 36, 127
1, 155999, Note_on_c, 9, 36, 0
1, 156240, Note_on_c, 9, 36, 127
1, 156479, Note_on_c, 9, 36, 0
1, 156480, Note_on_c, 9, 36, 127
1, 156959, Note_on_c, 9, 36, 0
1, 157440, Note_on_c, 9, 36, 127
1, 157679, Note_on_c, 9, 36, 0
1, 157680, Note_on_c, 9, 36, 127
1, 157919, Note_on_c, 9, 36, 0
1, 158160, Note_on_c, 9, 36, 127
1, 158399, Note_on_c, 9, 36, 0
1, 158400, Note_on_c, 9, 36, 127
1, 158879, Note_on_c, 9, 36, 0
1, 159120, Note_on_c, 9, 36, 127
1, 159359, Note_on_c, 9, 36, 0
1, 159360, Note_on_c, 9, 36, 127
1, 159599, Note_on_c, 9, 36, 0
1, 159600, Note_on_c, 9, 36, 127
1, 159839, Note_on_c, 9, 36, 0
1, 160080, Note_on_c, 9, 36, 127
1, 160319, Note_on_c, 9, 36, 0
1, 160320, Note_on_c, 9, 36, 127
1, 160799, Note_on_c, 9, 36, 0
1, 161280, Note_on_c, 9, 36, 127
1, 161759, Note_on_c, 9, 36, 0
1, 163200, Note_on_c, 9, 36, 127
1, 163439, Note_on_c, 9, 36, 0
1, 163440, Note_on_c, 9, 36, 127
1, 163679, Note_on_c, 9, 36, 0
1, 163920, Note_on_c, 9, 36, 127
1, 164159, Note_on_c, 9, 36, 0
1, 164160, Note_on_c, 9, 36, 127
1, 164639, Note_on_c, 9, 36, 0
1, 165120, Note_on_c, 9, 36, 127
1, 165359, Note_on_c, 9, 36, 0
1, 165360, Note_on_c, 9, 36, 127
1, 165599, Note_on_c, 9, 36, 0
1, 165840, Note_on_c, 9, 36, 127
1, 166079, Note_on_c, 9, 36, 0
1, 166080, Note_on_c, 9, 36, 127
1, 166559, Note_on_c, 9, 36, 0
1, 166800, Note_on_c, 9, 36, 127
1, 167039, Note_on_c, 9, 36, 0
1, 167040, Note_on_c, 9, 36, 127
1, 167279, Note_on_c, 9, 36, 0
1, 167280, Note_on_c, 9, 36, 127
1, 167519, Note_on_c, 9, 36, 0
1, 167760, Note_on_c, 9, 36, 127
1, 167999, Note_on_c, 9, 36, 0
1, 168000, Note_on_c, 9, 36, 127
1, 168479, Note_on_c, 9, 36, 0
1, 168960, Note_on_c, 9, 36, 127
1, 169199, Note_on_c, 9, 36, 0
1, 169200, Note_on_c, 9, 36, 127
1, 169439, Note_on_c, 9, 36, 0
1, 169680, Note_on_c, 9, 36, 127
1, 169919, Note_on_c, 9, 36, 0
1, 169920, Note_on_c, 9, 36, 127
1, 170399, Note_on_c, 9, 36, 0
1, 170640, Note_on_c, 9, 36, 127
1, 170879, Note_on_c, 9, 36, 0
1, 170880, Note_on_c, 9, 36, 127
1, 171119, Note_on_c, 9, 36, 0
1, 171120, Note_on_c, 9, 36, 127
1, 171359, Note_on_c, 9, 36, 0
1, 171600, Note_on_c, 9, 36, 127
1, 171839, Note_on_c, 9, 36, 0
1, 171840, Note_on_c, 9, 36, 127
1, 172319, Note_on_c, 9, 36, 0
1, 172800, Note_on_c, 9, 36, 127
1, 173039, Note_on_c, 9, 36, 0
1, 173040, Note_on_c, 9, 36, 127
1, 173279, Note_on_c, 9, 36, 0
1, 173520, Note_on_c, 9, 36, 127
1, 173759, Note_on_c, 9, 36, 0
1, 173760, Note_on_c, 9, 36, 127
1, 174239, Note_on_c, 9, 36, 0
1, 174480, Note_on_c, 9, 36, 127
1, 174719, Note_on_c, 9, 36, 0
1, 174720, Note_on_c, 9, 36, 127
1, 174959, Note_on_c, 9, 36, 0
1, 174960, Note_on_c, 9, 36, 127
1, 175199, Note_on_c, 9, 36, 0
1, 175440, Note_on_c, 9, 36, 127
1, 175679, Note_on_c, 9, 36, 0
1, 175680, Note_on_c, 9, 36, 127
1, 176159, Note_on_c, 9, 36, 0
1, 176640, Note_on_c, 9, 36, 127
1, 176879, Note_on_c, 9, 36, 0
1, 176880, Note_on_c, 9, 36, 127
1, 177119, Note_on_c, 9, 36, 0
1, 177360, Note_on_c, 9, 36, 127
1, 177599, Note_on_c, 9, 36, 0
1, 177600, Note_on_c, 9, 36, 127
1, 178079, Note_on_c, 9, 36, 0
1, 178560, Note_on_c, 9, 36, 127
1, 178799, Note_on_c, 9, 36, 0
1, 178800, Note_on_c, 9, 36, 127
1, 179039, Note_on_c, 9, 36, 0
1, 179280, Note_on_c, 9, 36, 127
1, 179519, Note_on_c, 9, 36, 0
1, 179520, Note_on_c, 9, 36, 127
1, 179999, Note_on_c, 9, 36, 0
1, 180240, Note_on_c, 9, 36, 127
1, 180479, Note_on_c, 9, 36, 0
1, 180480, Note_on_c, 9, 36, 127
1, 180719, Note_on_c, 9, 36, 0
1, 180720, Note_on_c, 9, 36, 127
1, 180959, Note_on_c, 9, 36, 0
1, 181200, Note_on_c, 9, 36, 127
1, 181439, Note_on_c, 9, 36, 0
1, 181440, Note_on_c, 9, 36, 127
1, 181919, Note_on_c, 9, 36, 0
1, 182400, Note_on_c, 9, 36, 127
1, 182639, Note_on_c, 9, 36, 0
1, 182640, Note_on_c, 9, 36, 127
1, 182879, Note_on_c, 9, 36, 0
1, 183120, Note_on_c, 9, 36, 127
1, 183359, Note_on_c, 9, 36, 0
1, 183360, Note_on_c, 9, 36, 127
1, 183839, Note_on_c, 9, 36, 0
1, 184080, Note_on_c, 9, 36, 127
1, 184319, Note_on_c, 9, 36, 0
1, 184320, Note_on_c, 9, 36, 127
1, 184559, Note_on_c, 9, 36, 0
1, 184560, Note_on_c, 9, 36, 127
1, 184799, Note_on_c, 9, 36, 0
1, 185040, Note_on_c, 9, 36, 127
1, 185279, Note_on_c, 9, 36, 0
1, 185280, Note_on_c, 9, 36, 127
1, 185759, Note_on_c, 9, 36, 0
1, 186240, Note_on_c, 9, 36, 127
1, 186479, Note_on_c, 9, 36, 0
1, 186480, Note_on_c, 9, 36, 127
1, 186719, Note_on_c, 9, 36, 0
1, 186960, Note_on_c, 9, 36, 127
1, 187199, Note_on_c, 9, 36, 0
1, 187200, Note_on_c, 9, 36, 127
1, 187679, Note_on_c, 9, 36, 0
1, 187920, Note_on_c, 9, 36, 127
1, 188159, Note_on_c, 9, 36, 0
1, 188160, Note_on_c, 9, 36, 127
1, 188399, Note_on_c, 9, 36, 0
1, 188400, Note_on_c, 9, 36, 127
1, 188639, Note_on_c, 9, 36, 0
1, 188880, Note_on_c, 9, 36, 127
1, 189119, Note_on_c, 9, 36, 0
1, 189120, Note_on_c, 9, 36, 127
1, 189599, Note_on_c, 9, 36, 0
1, 190080, Note_on_c, 9, 36, 127
1, 190319, Note_on_c, 9, 36, 0
1, 190320, Note_on_c, 9, 36, 127
1, 190559, Note_on_c, 9, 36, 0
1, 190800, Note_on_c, 9, 36, 127
1, 191039, Note_on_c, 9, 36, 0
1, 191040, Note_on_c, 9, 36, 127
1, 191519, Note_on_c, 9, 36, 0
1, 191760, Note_on_c, 9, 36, 127
1, 191999, Note_on_c, 9, 36, 0
1, 192000, Note_on_c, 9, 36, 127
1, 192239, Note_on_c, 9, 36, 0
1, 192240, Note_on_c, 9, 36, 127
1, 192479, Note_on_c, 9, 36, 0
1, 192720, Note_on_c, 9, 36, 127
1, 192959, Note_on_c, 9, 36, 0
1, 192960, Note_on_c, 9, 36, 127
1, 193439, Note_on_c, 9, 36, 0
1, 193920, Note_on_c, 9, 36, 127
1, 194159, Note_on_c, 9, 36, 0
1, 194160, Note_on_c, 9, 36, 127
1, 194399, Note_on_c, 9, 36, 0
1, 194640, Note_on_c, 9, 36, 127
1, 194879, Note_on_c, 9, 36, 0
1, 194880, Note_on_c, 9, 36, 127
1, 195359, Note_on_c, 9, 36, 0
1, 195600, Note_on_c, 9, 36, 127
1, 195839, Note_on_c, 9, 36, 0
1, 195840, Note_on_c, 9, 36, 127
1, 196079, Note_on_c, 9, 36, 0
1, 196080, Note_on_c, 9, 36, 127
1, 196319, Note_on_c, 9, 36, 0
1, 196560, Note_on_c, 9, 36, 127
1, 196799, Note_on_c, 9, 36, 0
1, 196800, Note_on_c, 9, 36, 127
1, 197279, Note_on_c, 9, 36, 0
1, 197760, Note_on_c, 9, 36, 127
1, 198239, Note_on_c, 9, 36, 0
1, 199680, Note_on_c, 9, 36, 127
1, 199919, Note_on_c, 9, 36, 0
1, 199920, Note_on_c, 9, 36, 127
1, 200159, Note_on_c, 9, 36, 0
1, 200400, Note_on_c, 9, 36, 127
1, 200639, Note_on_c, 9, 36, 0
1, 200880, Note_on_c, 9, 36, 127
1, 201119, Note_on_c, 9, 36, 0
1, 201120, Note_on_c, 9, 36, 127
1, 201599, Note_on_c, 9, 36, 0
1, 201600, Note_on_c, 9, 36, 127
1, 201839, Note_on_c, 9, 36, 0
1, 201840, Note_on_c, 9, 36, 127
1, 202079, Note_on_c, 9, 36, 0
1, 202320, Note_on_c, 9, 36, 127
1, 202559, Note_on_c, 9, 36, 0
1, 202560, Note_on_c, 9, 36, 127
1, 202799, Note_on_c, 9, 36, 0
1, 202800, Note_on_c, 9, 36, 127
1, 203039, Note_on_c, 9, 36, 0
1, 203040, Note_on_c, 9, 36, 127
1, 203279, Note_on_c, 9, 36, 0
1, 203280, Note_on_c, 9, 36, 127
1, 203519, Note_on_c, 9, 36, 0
1, 203520, Note_on_c, 9, 36, 127
1, 203759, Note_on_c, 9, 36, 0
1, 203760, Note_on_c, 9, 36, 127
1, 203999, Note_on_c, 9, 36, 0
1, 204240, Note_on_c, 9, 36, 127
1, 204479, Note_on_c, 9, 36, 0
1, 204720, Note_on_c, 9, 36, 127
1, 204959, Note_on_c, 9, 36, 0
1, 204960, Note_on_c, 9, 36, 127
1, 205439, Note_on_c, 9, 36, 0
1, 205440, Note_on_c, 9, 36, 127
1, 205679, Note_on_c, 9, 36, 0
1, 205680, Note_on_c, 9, 36, 127
1, 205919, Note_on_c, 9, 36, 0
1, 206160, Note_on_c, 9, 36, 127
1, 206399, Note_on_c, 9, 36, 0
1, 206400, Note_on_c, 9, 36, 127
1, 206639, Note_on_c, 9, 36, 0
1, 206640, Note_on_c, 9, 36, 127
1, 206879, Note_on_c, 9, 36, 0
1, 206880, Note_on_c, 9, 36, 127
1, 207119, Note_on_c, 9, 36, 0
1, 207120, Note_on_c, 9, 36, 127
1, 207359, Note_on_c, 9, 36, 0
1, 207360, Note_on_c, 9, 36, 127
1, 207599, Note_on_c, 9, 36, 0
1, 207600, Note_on_c, 9, 36, 127
1, 207839, Note_on_c, 9, 36, 0
1, 208080, Note_on_c, 9, 36, 127
1, 208319, Note_on_c, 9, 36, 0
1, 208560, Note_on_c, 9, 36, 127
1, 208799, Note_on_c, 9, 36, 0
1, 209040, Note_on_c, 9, 36, 127
1, 209279, Note_on_c, 9, 36, 0
1, 209520, Note_on_c, 9, 36, 127
1, 209759, Note_on_c, 9, 36, 0
1, 210000, Note_on_c, 9, 36, 127
1, 210239, Note_on_c, 9, 36, 0
1, 210480, Note_on_c, 9, 36, 127
1, 210719, Note_on_c, 9, 36, 0
1, 210960, Note_on_c, 9, 36, 127
1, 211199, Note_on_c, 9, 36, 0
1, 211200, Note_on_c, 9, 36, 127
1, 211439, Note_on_c, 9, 36, 0
1, 211440, Note_on_c, 9, 36, 127
1, 211679, Note_on_c, 9, 36, 0
1, 211920, Note_on_c, 9, 36, 127
1, 212159, Note_on_c, 9, 36, 0
1, 212400, Note_on_c, 9, 36, 127
1, 212639, Note_on_c, 9, 36, 0
1, 212640, Note_on_c, 9, 36, 127
1, 213119, Note_on_c, 9, 36, 0
1, 213120, Note_on_c, 9, 36, 127
1, 213359, Note_on_c, 9, 36, 0
1, 213360, Note_on_c, 9, 36, 127
1, 213599, Note_on_c, 9, 36, 0
1, 213840, Note_on_c, 9, 36, 127
1, 214079, Note_on_c, 9, 36, 0
1, 214080, Note_on_c, 9, 36, 127
1, 214319, Note_on_c, 9, 36, 0
1, 214320, Note_on_c, 9, 36, 127
1, 214559, Note_on_c, 9, 36, 0
1, 214560, Note_on_c, 9, 36, 127
1, 214799, Note_on_c, 9, 36, 0
1, 214800, Note_on_c, 9, 36, 127
1, 215039, Note_on_c, 9, 36, 0
1, 215040, Note_on_c, 9, 36, 127
1, 215519, Note_on_c, 9, 36, 0
1, 215520, End_track
0, 0, End_of_file
