0, 0, Header, 1, 1, 480
1, 0, Start_track
1, 0, Time_signature, 4, 2, 24, 8
1, 0, Key_signature, 0, "major"
1, 0, Tempo, 500000
1, 0, Control_c, 9, 121, 0
1, 0, Program_c, 9, 0
1, 0, Control_c, 9, 7, 100
1, 0, Control_c, 9, 10, 64
1, 0, Control_c, 9, 91, 0
1, 0, Control_c, 9, 93, 0
1, 0, MIDI_port, 0
1, 1920, Note_on_c, 9, 35, 35
1, 2399, Note_on_c, 9, 35, 0
1, 2400, Note_on_c, 9, 35, 45
1, 2879, Note_on_c, 9, 35, 0
1, 2880, Note_on_c, 9, 35, 55
1, 3359, Note_on_c, 9, 35, 0
1, 3360, Note_on_c, 9, 35, 65
1, 3839, Note_on_c, 9, 35, 0
1, 3840, Note_on_c, 9, 35, 65
1, 4199, Note_on_c, 9, 35, 0
1, 4200, Note_on_c, 9, 35, 66
1, 4319, Note_on_c, 9, 35, 0
1, 4320, Note_on_c, 9, 35, 75
1, 4799, Note_on_c, 9, 35, 0
1, 4800, Note_on_c, 9, 35, 75
1, 5159, Note_on_c, 9, 35, 0
1, 5160, Note_on_c, 9, 35, 75
1, 5279, Note_on_c, 9, 35, 0
1, 5280, Note_on_c, 9, 35, 75
1, 5759, Note_on_c, 9, 35, 0
1, 5760, Note_on_c, 9, 35, 80
1, 6119, Note_on_c, 9, 35, 0
1, 6120, Note_on_c, 9, 35, 80
1, 6239, Note_on_c, 9, 35, 0
1, 6240, Note_on_c, 9, 35, 80
1, 6719, Note_on_c, 9, 35, 0
1, 6720, Note_on_c, 9, 35, 80
1, 7079, Note_on_c, 9, 35, 0
1, 7080, Note_on_c, 9, 35, 80
1, 7199, Note_on_c, 9, 35, 0
1, 7200, Note_on_c, 9, 35, 80
1, 7679, Note_on_c, 9, 35, 0
1, 7680, Note_on_c, 9, 35, 88
1, 8039, Note_on_c, 9, 35, 0
1, 8040, Note_on_c, 9, 35, 66
1, 8159, Note_on_c, 9, 35, 0
1, 8160, Note_on_c, 9, 35, 85
1, 8639, Note_on_c, 9, 35, 0
1, 8640, Note_on_c, 9, 35, 88
1, 8999, Note_on_c, 9, 35, 0
1, 9000, Note_on_c, 9, 35, 73
1, 9119, Note_on_c, 9, 35, 0
1, 9120, Note_on_c, 9, 35, 90
1, 9599, Note_on_c, 9, 35, 0
1, 9600, Note_on_c, 9, 35, 88
1, 9959, Note_on_c, 9, 35, 0
1, 9960, Note_on_c, 9, 35, 66
1, 10079, Note_on_c, 9, 35, 0
1, 10080, Note_on_c, 9, 35, 85
1, 10559, Note_on_c, 9, 35, 0
1, 10560, Note_on_c, 9, 35, 88
1, 10919, Note_on_c, 9, 35, 0
1, 10920, Note_on_c, 9, 35, 73
1, 11039, Note_on_c, 9, 35, 0
1, 11040, Note_on_c, 9, 35, 90
1, 11519, Note_on_c, 9, 35, 0
1, 11520, Note_on_c, 9, 35, 88
1, 11879, Note_on_c, 9, 35, 0
1, 11880, Note_on_c, 9, 35, 66
1, 11999, Note_on_c, 9, 35, 0
1, 12000, Note_on_c, 9, 35, 85
1, 12479, Note_on_c, 9, 35, 0
1, 12480, Note_on_c, 9, 35, 88
1, 12839, Note_on_c, 9, 35, 0
1, 12840, Note_on_c, 9, 35, 73
1, 12959, Note_on_c, 9, 35, 0
1, 12960, Note_on_c, 9, 35, 90
1, 13439, Note_on_c, 9, 35, 0
1, 13440, Note_on_c, 9, 35, 88
1, 13799, Note_on_c, 9, 35, 0
1, 13800, Note_on_c, 9, 35, 66
1, 13919, Note_on_c, 9, 35, 0
1, 13920, Note_on_c, 9, 35, 85
1, 14399, Note_on_c, 9, 35, 0
1, 14400, Note_on_c, 9, 35, 88
1, 14759, Note_on_c, 9, 35, 0
1, 14760, Note_on_c, 9, 35, 73
1, 14879, Note_on_c, 9, 35, 0
1, 14880, Note_on_c, 9, 35, 90
1, 15359, Note_on_c, 9, 35, 0
1, 15360, Note_on_c, 9, 35, 88
1, 15719, Note_on_c, 9, 35, 0
1, 15720, Note_on_c, 9, 35, 66
1, 15839, Note_on_c, 9, 35, 0
1, 15840, Note_on_c, 9, 35, 85
1, 16319, Note_on_c, 9, 35, 0
1, 16320, Note_on_c, 9, 35, 88
1, 16679, Note_on_c, 9, 35, 0
1, 16680, Note_on_c, 9, 35, 73
1, 16799, Note_on_c, 9, 35, 0
1, 16800, Note_on_c, 9, 35, 90
1, 17279, Note_on_c, 9, 35, 0
1, 17280, Note_on_c, 9, 35, 88
1, 17639, Note_on_c, 9, 35, 0
1, 17640, Note_on_c, 9, 35, 67
1, 17759, Note_on_c, 9, 35, 0
1, 17760, Note_on_c, 9, 35, 85
1, 18239, Note_on_c, 9, 35, 0
1, 18240, Note_on_c, 9, 35, 92
1, 18599, Note_on_c, 9, 35, 0
1, 18600, Note_on_c, 9, 35, 53
1, 18719, Note_on_c, 9, 35, 0
1, 18720, Note_on_c, 9, 35, 84
1, 18839, Note_on_c, 9, 35, 0
1, 18840, Note_on_c, 9, 35, 66
1, 18959, Note_on_c, 9, 35, 0
1, 18960, Note_on_c, 9, 35, 92
1, 19199, Note_on_c, 9, 35, 0
1, 19200, Note_on_c, 9, 35, 88
1, 19559, Note_on_c, 9, 35, 0
1, 19560, Note_on_c, 9, 35, 66
1, 19679, Note_on_c, 9, 35, 0
1, 19680, Note_on_c, 9, 35, 85
1, 20159, Note_on_c, 9, 35, 0
1, 20160, Note_on_c, 9, 35, 88
1, 20519, Note_on_c, 9, 35, 0
1, 20520, Note_on_c, 9, 35, 73
1, 20639, Note_on_c, 9, 35, 0
1, 20640, Note_on_c, 9, 35, 90
1, 21119, Note_on_c, 9, 35, 0
1, 21120, Note_on_c, 9, 35, 88
1, 21479, Note_on_c, 9, 35, 0
1, 21480, Note_on_c, 9, 35, 66
1, 21599, Note_on_c, 9, 35, 0
1, 21600, Note_on_c, 9, 35, 85
1, 22079, Note_on_c, 9, 35, 0
1, 22080, Note_on_c, 9, 35, 88
1, 22439, Note_on_c, 9, 35, 0
1, 22440, Note_on_c, 9, 35, 73
1, 22559, Note_on_c, 9, 35, 0
1, 22560, Note_on_c, 9, 35, 90
1, 23039, Note_on_c, 9, 35, 0
1, 23040, Note_on_c, 9, 35, 88
1, 23399, Note_on_c, 9, 35, 0
1, 23400, Note_on_c, 9, 35, 66
1, 23519, Note_on_c, 9, 35, 0
1, 23520, Note_on_c, 9, 35, 85
1, 23999, Note_on_c, 9, 35, 0
1, 24000, Note_on_c, 9, 35, 88
1, 24359, Note_on_c, 9, 35, 0
1, 24360, Note_on_c, 9, 35, 73
1, 24479, Note_on_c, 9, 35, 0
1, 24480, Note_on_c, 9, 35, 90
1, 24959, Note_on_c, 9, 35, 0
1, 24960, Note_on_c, 9, 35, 88
1, 25319, Note_on_c, 9, 35, 0
1, 25320, Note_on_c, 9, 35, 66
1, 25439, Note_on_c, 9, 35, 0
1, 25440, Note_on_c, 9, 35, 85
1, 25919, Note_on_c, 9, 35, 0
1, 25920, Note_on_c, 9, 35, 88
1, 26279, Note_on_c, 9, 35, 0
1, 26280, Note_on_c, 9, 35, 73
1, 26399, Note_on_c, 9, 35, 0
1, 26400, Note_on_c, 9, 35, 90
1, 26879, Note_on_c, 9, 35, 0
1, 26880, Note_on_c, 9, 35, 88
1, 27239, Note_on_c, 9, 35, 0
1, 27240, Note_on_c, 9, 35, 66
1, 27359, Note_on_c, 9, 35, 0
1, 27360, Note_on_c, 9, 35, 85
1, 27839, Note_on_c, 9, 35, 0
1, 27840, Note_on_c, 9, 35, 88
1, 28199, Note_on_c, 9, 35, 0
1, 28200, Note_on_c, 9, 35, 73
1, 28319, Note_on_c, 9, 35, 0
1, 28320, Note_on_c, 9, 35, 90
1, 28799, Note_on_c, 9, 35, 0
1, 28800, Note_on_c, 9, 35, 88
1, 29159, Note_on_c, 9, 35, 0
1, 29160, Note_on_c, 9, 35, 66
1, 29279, Note_on_c, 9, 35, 0
1, 29280, Note_on_c, 9, 35, 85
1, 29759, Note_on_c, 9, 35, 0
1, 29760, Note_on_c, 9, 35, 88
1, 30119, Note_on_c, 9, 35, 0
1, 30120, Note_on_c, 9, 35, 73
1, 30239, Note_on_c, 9, 35, 0
1, 30240, Note_on_c, 9, 35, 90
1, 30719, Note_on_c, 9, 35, 0
1, 30720, Note_on_c, 9, 35, 88
1, 31079, Note_on_c, 9, 35, 0
1, 31080, Note_on_c, 9, 35, 66
1, 31199, Note_on_c, 9, 35, 0
1, 31200, Note_on_c, 9, 35, 85
1, 31679, Note_on_c, 9, 35, 0
1, 31680, Note_on_c, 9, 35, 88
1, 32039, Note_on_c, 9, 35, 0
1, 32040, Note_on_c, 9, 35, 73
1, 32159, Note_on_c, 9, 35, 0
1, 32160, Note_on_c, 9, 35, 90
1, 32639, Note_on_c, 9, 35, 0
1, 32640, Note_on_c, 9, 35, 88
1, 32999, Note_on_c, 9, 35, 0
1, 33000, Note_on_c, 9, 35, 66
1, 33119, Note_on_c, 9, 35, 0
1, 33120, Note_on_c, 9, 35, 85
1, 33599, Note_on_c, 9, 35, 0
1, 33600, Note_on_c, 9, 35, 88
1, 33959, Note_on_c, 9, 35, 0
1, 33960, Note_on_c, 9, 35, 73
1, 34079, Note_on_c, 9, 35, 0
1, 34080, Note_on_c, 9, 35, 90
1, 34559, Note_on_c, 9, 35, 0
1, 34560, Note_on_c, 9, 35, 88
1, 34919, Note_on_c, 9, 35, 0
1, 34920, Note_on_c, 9, 35, 66
1, 35039, Note_on_c, 9, 35, 0
1, 35040, Note_on_c, 9, 35, 85
1, 35519, Note_on_c, 9, 35, 0
1, 35520, Note_on_c, 9, 35, 88
1, 35879, Note_on_c, 9, 35, 0
1, 35880, Note_on_c, 9, 35, 73
1, 35999, Note_on_c, 9, 35, 0
1, 36000, Note_on_c, 9, 35, 90
1, 36479, Note_on_c, 9, 35, 0
1, 36480, Note_on_c, 9, 35, 88
1, 36839, Note_on_c, 9, 35, 0
1, 36840, Note_on_c, 9, 35, 66
1, 36959, Note_on_c, 9, 35, 0
1, 36960, Note_on_c, 9, 35, 85
1, 37439, Note_on_c, 9, 35, 0
1, 37440, Note_on_c, 9, 35, 88
1, 37799, Note_on_c, 9, 35, 0
1, 37800, Note_on_c, 9, 35, 73
1, 37919, Note_on_c, 9, 35, 0
1, 37920, Note_on_c, 9, 35, 90
1, 38399, Note_on_c, 9, 35, 0
1, 38400, Note_on_c, 9, 35, 90
1, 38759, Note_on_c, 9, 35, 0
1, 38760, Note_on_c, 9, 35, 70
1, 38879, Note_on_c, 9, 35, 0
1, 38880, Note_on_c, 9, 35, 77
1, 39119, Note_on_c, 9, 35, 0
1, 39120, Note_on_c, 9, 35, 96
1, 39359, Note_on_c, 9, 35, 0
1, 39480, Note_on_c, 9, 35, 71
1, 39599, Note_on_c, 9, 35, 0
1, 39600, Note_on_c, 9, 35, 80
1, 39839, Note_on_c, 9, 35, 0
1, 39840, Note_on_c, 9, 35, 88
1, 39959, Note_on_c, 9, 35, 0
1, 39960, Note_on_c, 9, 35, 81
1, 40199, Note_on_c, 9, 35, 0
1, 40200, Note_on_c, 9, 35, 85
1, 40319, Note_on_c, 9, 35, 0
1, 40320, Note_on_c, 9, 35, 87
1, 40679, Note_on_c, 9, 35, 0
1, 40680, Note_on_c, 9, 35, 71
1, 40799, Note_on_c, 9, 35, 0
1, 40800, Note_on_c, 9, 35, 78
1, 41039, Note_on_c, 9, 35, 0
1, 41040, Note_on_c, 9, 35, 98
1, 41279, Note_on_c, 9, 35, 0
1, 41520, Note_on_c, 9, 35, 62
1, 41639, Note_on_c, 9, 35, 0
1, 41640, Note_on_c, 9, 35, 87
1, 41759, Note_on_c, 9, 35, 0
1, 41880, Note_on_c, 9, 35, 61
1, 41999, Note_on_c, 9, 35, 0
1, 42000, Note_on_c, 9, 35, 100
1, 42239, Note_on_c, 9, 35, 0
1, 42240, Note_on_c, 9, 35, 88
1, 42599, Note_on_c, 9, 35, 0
1, 42600, Note_on_c, 9, 35, 66
1, 42719, Note_on_c, 9, 35, 0
1, 42720, Note_on_c, 9, 35, 85
1, 43199, Note_on_c, 9, 35, 0
1, 43200, Note_on_c, 9, 35, 88
1, 43559, Note_on_c, 9, 35, 0
1, 43560, Note_on_c, 9, 35, 73
1, 43679, Note_on_c, 9, 35, 0
1, 43680, Note_on_c, 9, 35, 90
1, 44159, Note_on_c, 9, 35, 0
1, 44160, Note_on_c, 9, 35, 88
1, 44519, Note_on_c, 9, 35, 0
1, 44520, Note_on_c, 9, 35, 66
1, 44639, Note_on_c, 9, 35, 0
1, 44640, Note_on_c, 9, 35, 85
1, 45119, Note_on_c, 9, 35, 0
1, 45120, Note_on_c, 9, 35, 88
1, 45479, Note_on_c, 9, 35, 0
1, 45480, Note_on_c, 9, 35, 73
1, 45599, Note_on_c, 9, 35, 0
1, 45600, Note_on_c, 9, 35, 90
1, 46079, Note_on_c, 9, 35, 0
1, 46080, Note_on_c, 9, 35, 88
1, 46439, Note_on_c, 9, 35, 0
1, 46440, Note_on_c, 9, 35, 66
1, 46559, Note_on_c, 9, 35, 0
1, 46560, Note_on_c, 9, 35, 85
1, 47039, Note_on_c, 9, 35, 0
1, 47040, Note_on_c, 9, 35, 88
1, 47399, Note_on_c, 9, 35, 0
1, 47400, Note_on_c, 9, 35, 73
1, 47519, Note_on_c, 9, 35, 0
1, 47520, Note_on_c, 9, 35, 90
1, 47999, Note_on_c, 9, 35, 0
1, 48000, Note_on_c, 9, 35, 88
1, 48359, Note_on_c, 9, 35, 0
1, 48360, Note_on_c, 9, 35, 66
1, 48479, Note_on_c, 9, 35, 0
1, 48480, Note_on_c, 9, 35, 85
1, 48959, Note_on_c, 9, 35, 0
1, 48960, Note_on_c, 9, 35, 88
1, 49319, Note_on_c, 9, 35, 0
1, 49320, Note_on_c, 9, 35, 73
1, 49439, Note_on_c, 9, 35, 0
1, 49440, Note_on_c, 9, 35, 90
1, 49919, Note_on_c, 9, 35, 0
1, 49920, Note_on_c, 9, 35, 88
1, 50279, Note_on_c, 9, 35, 0
1, 50280, Note_on_c, 9, 35, 66
1, 50399, Note_on_c, 9, 35, 0
1, 50400, Note_on_c, 9, 35, 85
1, 50879, Note_on_c, 9, 35, 0
1, 50880, Note_on_c, 9, 35, 88
1, 51239, Note_on_c, 9, 35, 0
1, 51240, Note_on_c, 9, 35, 73
1, 51359, Note_on_c, 9, 35, 0
1, 51360, Note_on_c, 9, 35, 90
1, 51839, Note_on_c, 9, 35, 0
1, 51840, Note_on_c, 9, 35, 88
1, 52199, Note_on_c, 9, 35, 0
1, 52200, Note_on_c, 9, 35, 66
1, 52319, Note_on_c, 9, 35, 0
1, 52320, Note_on_c, 9, 35, 85
1, 52799, Note_on_c, 9, 35, 0
1, 52800, Note_on_c, 9, 35, 88
1, 53159, Note_on_c, 9, 35, 0
1, 53160, Note_on_c, 9, 35, 73
1, 53279, Note_on_c, 9, 35, 0
1, 53280, Note_on_c, 9, 35, 90
1, 53759, Note_on_c, 9, 35, 0
1, 53760, Note_on_c, 9, 35, 88
1, 54119, Note_on_c, 9, 35, 0
1, 54120, Note_on_c, 9, 35, 66
1, 54239, Note_on_c, 9, 35, 0
1, 54240, Note_on_c, 9, 35, 85
1, 54719, Note_on_c, 9, 35, 0
1, 54720, Note_on_c, 9, 35, 88
1, 55079, Note_on_c, 9, 35, 0
1, 55080, Note_on_c, 9, 35, 73
1, 55199, Note_on_c, 9, 35, 0
1, 55200, Note_on_c, 9, 35, 90
1, 55679, Note_on_c, 9, 35, 0
1, 55680, Note_on_c, 9, 35, 88
1, 56039, Note_on_c, 9, 35, 0
1, 56040, Note_on_c, 9, 35, 66
1, 56159, Note_on_c, 9, 35, 0
1, 56160, Note_on_c, 9, 35, 85
1, 56639, Note_on_c, 9, 35, 0
1, 56640, Note_on_c, 9, 35, 88
1, 56999, Note_on_c, 9, 35, 0
1, 57000, Note_on_c, 9, 35, 73
1, 57119, Note_on_c, 9, 35, 0
1, 57120, Note_on_c, 9, 35, 90
1, 57599, Note_on_c, 9, 35, 0
1, 57600, Note_on_c, 9, 35, 88
1, 57959, Note_on_c, 9, 35, 0
1, 57960, Note_on_c, 9, 35, 66
1, 58079, Note_on_c, 9, 35, 0
1, 58080, Note_on_c, 9, 35, 85
1, 58559, Note_on_c, 9, 35, 0
1, 58560, Note_on_c, 9, 35, 88
1, 58919, Note_on_c, 9, 35, 0
1, 58920, Note_on_c, 9, 35, 73
1, 59039, Note_on_c, 9, 35, 0
1, 59040, Note_on_c, 9, 35, 90
1, 59519, Note_on_c, 9, 35, 0
1, 59520, Note_on_c, 9, 35, 88
1, 59879, Note_on_c, 9, 35, 0
1, 59880, Note_on_c, 9, 35, 66
1, 59999, Note_on_c, 9, 35, 0
1, 60000, Note_on_c, 9, 35, 85
1, 60479, Note_on_c, 9, 35, 0
1, 60480, Note_on_c, 9, 35, 88
1, 60839, Note_on_c, 9, 35, 0
1, 60840, Note_on_c, 9, 35, 73
1, 60959, Note_on_c, 9, 35, 0
1, 60960, Note_on_c, 9, 35, 90
1, 61439, Note_on_c, 9, 35, 0
1, 61440, Note_on_c, 9, 35, 90
1, 61799, Note_on_c, 9, 35, 0
1, 61800, Note_on_c, 9, 35, 70
1, 61919, Note_on_c, 9, 35, 0
1, 61920, Note_on_c, 9, 35, 77
1, 62159, Note_on_c, 9, 35, 0
1, 62160, Note_on_c, 9, 35, 96
1, 62399, Note_on_c, 9, 35, 0
1, 62520, Note_on_c, 9, 35, 71
1, 62639, Note_on_c, 9, 35, 0
1, 62640, Note_on_c, 9, 35, 80
1, 62879, Note_on_c, 9, 35, 0
1, 62880, Note_on_c, 9, 35, 88
1, 62999, Note_on_c, 9, 35, 0
1, 63000, Note_on_c, 9, 35, 81
1, 63239, Note_on_c, 9, 35, 0
1, 63240, Note_on_c, 9, 35, 85
1, 63359, Note_on_c, 9, 35, 0
1, 63360, Note_on_c, 9, 35, 87
1, 63719, Note_on_c, 9, 35, 0
1, 63720, Note_on_c, 9, 35, 71
1, 63839, Note_on_c, 9, 35, 0
1, 63840, Note_on_c, 9, 35, 78
1, 64079, Note_on_c, 9, 35, 0
1, 64080, Note_on_c, 9, 35, 98
1, 64319, Note_on_c, 9, 35, 0
1, 64560, Note_on_c, 9, 35, 62
1, 64679, Note_on_c, 9, 35, 0
1, 64680, Note_on_c, 9, 35, 87
1, 64799, Note_on_c, 9, 35, 0
1, 64920, Note_on_c, 9, 35, 61
1, 65039, Note_on_c, 9, 35, 0
1, 65040, Note_on_c, 9, 35, 100
1, 65279, Note_on_c, 9, 35, 0
1, 76800, Note_on_c, 9, 35, 88
1, 77159, Note_on_c, 9, 35, 0
1, 77160, Note_on_c, 9, 35, 66
1, 77279, Note_on_c, 9, 35, 0
1, 77280, Note_on_c, 9, 35, 85
1, 77759, Note_on_c, 9, 35, 0
1, 77760, Note_on_c, 9, 35, 88
1, 78119, Note_on_c, 9, 35, 0
1, 78120, Note_on_c, 9, 35, 73
1, 78239, Note_on_c, 9, 35, 0
1, 78240, Note_on_c, 9, 35, 90
1, 78719, Note_on_c, 9, 35, 0
1, 78720, Note_on_c, 9, 35, 88
1, 79079, Note_on_c, 9, 35, 0
1, 79080, Note_on_c, 9, 35, 66
1, 79199, Note_on_c, 9, 35, 0
1, 79200, Note_on_c, 9, 35, 85
1, 79679, Note_on_c, 9, 35, 0
1, 79680, Note_on_c, 9, 35, 88
1, 80039, Note_on_c, 9, 35, 0
1, 80040, Note_on_c, 9, 35, 73
1, 80159, Note_on_c, 9, 35, 0
1, 80160, Note_on_c, 9, 35, 90
1, 80639, Note_on_c, 9, 35, 0
1, 80640, Note_on_c, 9, 35, 88
1, 80999, Note_on_c, 9, 35, 0
1, 81000, Note_on_c, 9, 35, 66
1, 81119, Note_on_c, 9, 35, 0
1, 81120, Note_on_c, 9, 35, 85
1, 81599, Note_on_c, 9, 35, 0
1, 81600, Note_on_c, 9, 35, 88
1, 81959, Note_on_c, 9, 35, 0
1, 81960, Note_on_c, 9, 35, 73
1, 82079, Note_on_c, 9, 35, 0
1, 82080, Note_on_c, 9, 35, 90
1, 82559, Note_on_c, 9, 35, 0
1, 82560, Note_on_c, 9, 35, 88
1, 82919, Note_on_c, 9, 35, 0
1, 82920, Note_on_c, 9, 35, 66
1, 83039, Note_on_c, 9, 35, 0
1, 83040, Note_on_c, 9, 35, 85
1, 83519, Note_on_c, 9, 35, 0
1, 83520, Note_on_c, 9, 35, 88
1, 83879, Note_on_c, 9, 35, 0
1, 83880, Note_on_c, 9, 35, 73
1, 83999, Note_on_c, 9, 35, 0
1, 84000, Note_on_c, 9, 35, 90
1, 84479, Note_on_c, 9, 35, 0
1, 84480, Note_on_c, 9, 35, 88
1, 84839, Note_on_c, 9, 35, 0
1, 84840, Note_on_c, 9, 35, 66
1, 84959, Note_on_c, 9, 35, 0
1, 84960, Note_on_c, 9, 35, 85
1, 85439, Note_on_c, 9, 35, 0
1, 85440, Note_on_c, 9, 35, 88
1, 85799, Note_on_c, 9, 35, 0
1, 85800, Note_on_c, 9, 35, 73
1, 85919, Note_on_c, 9, 35, 0
1, 85920, Note_on_c, 9, 35, 90
1, 86399, Note_on_c, 9, 35, 0
1, 86400, Note_on_c, 9, 35, 88
1, 86759, Note_on_c, 9, 35, 0
1, 86760, Note_on_c, 9, 35, 66
1, 86879, Note_on_c, 9, 35, 0
1, 86880, Note_on_c, 9, 35, 85
1, 87359, Note_on_c, 9, 35, 0
1, 87360, Note_on_c, 9, 35, 88
1, 87719, Note_on_c, 9, 35, 0
1, 87720, Note_on_c, 9, 35, 73
1, 87839, Note_on_c, 9, 35, 0
1, 87840, Note_on_c, 9, 35, 90
1, 88319, Note_on_c, 9, 35, 0
1, 88320, Note_on_c, 9, 35, 88
1, 88679, Note_on_c, 9, 35, 0
1, 88680, Note_on_c, 9, 35, 66
1, 88799, Note_on_c, 9, 35, 0
1, 88800, Note_on_c, 9, 35, 85
1, 89279, Note_on_c, 9, 35, 0
1, 89280, Note_on_c, 9, 35, 88
1, 89639, Note_on_c, 9, 35, 0
1, 89640, Note_on_c, 9, 35, 73
1, 89759, Note_on_c, 9, 35, 0
1, 89760, Note_on_c, 9, 35, 90
1, 90239, Note_on_c, 9, 35, 0
1, 90240, Note_on_c, 9, 35, 88
1, 90599, Note_on_c, 9, 35, 0
1, 90600, Note_on_c, 9, 35, 66
1, 90719, Note_on_c, 9, 35, 0
1, 90720, Note_on_c, 9, 35, 85
1, 91199, Note_on_c, 9, 35, 0
1, 91200, Note_on_c, 9, 35, 88
1, 91559, Note_on_c, 9, 35, 0
1, 91560, Note_on_c, 9, 35, 73
1, 91679, Note_on_c, 9, 35, 0
1, 91680, Note_on_c, 9, 35, 90
1, 92159, Note_on_c, 9, 35, 0
1, 92160, Note_on_c, 9, 35, 88
1, 92519, Note_on_c, 9, 35, 0
1, 92520, Note_on_c, 9, 35, 66
1, 92639, Note_on_c, 9, 35, 0
1, 92640, Note_on_c, 9, 35, 85
1, 93119, Note_on_c, 9, 35, 0
1, 93120, Note_on_c, 9, 35, 88
1, 93479, Note_on_c, 9, 35, 0
1, 93480, Note_on_c, 9, 35, 73
1, 93599, Note_on_c, 9, 35, 0
1, 93600, Note_on_c, 9, 35, 90
1, 94079, Note_on_c, 9, 35, 0
1, 94080, Note_on_c, 9, 35, 88
1, 94439, Note_on_c, 9, 35, 0
1, 94440, Note_on_c, 9, 35, 66
1, 94559, Note_on_c, 9, 35, 0
1, 94560, Note_on_c, 9, 35, 85
1, 95039, Note_on_c, 9, 35, 0
1, 95040, Note_on_c, 9, 35, 88
1, 95399, Note_on_c, 9, 35, 0
1, 95400, Note_on_c, 9, 35, 73
1, 95519, Note_on_c, 9, 35, 0
1, 95520, Note_on_c, 9, 35, 90
1, 95999, Note_on_c, 9, 35, 0
1, 96000, Note_on_c, 9, 35, 88
1, 96359, Note_on_c, 9, 35, 0
1, 96360, Note_on_c, 9, 35, 66
1, 96479, Note_on_c, 9, 35, 0
1, 96480, Note_on_c, 9, 35, 85
1, 96959, Note_on_c, 9, 35, 0
1, 96960, Note_on_c, 9, 35, 88
1, 97319, Note_on_c, 9, 35, 0
1, 97320, Note_on_c, 9, 35, 73
1, 97439, Note_on_c, 9, 35, 0
1, 97440, Note_on_c, 9, 35, 90
1, 97919, Note_on_c, 9, 35, 0
1, 97920, Note_on_c, 9, 35, 88
1, 98279, Note_on_c, 9, 35, 0
1, 98280, Note_on_c, 9, 35, 66
1, 98399, Note_on_c, 9, 35, 0
1, 98400, Note_on_c, 9, 35, 88
1, 98759, Note_on_c, 9, 35, 0
1, 98760, Note_on_c, 9, 35, 73
1, 98879, Note_on_c, 9, 35, 0
1, 98880, Note_on_c, 9, 35, 88
1, 99239, Note_on_c, 9, 35, 0
1, 99240, Note_on_c, 9, 35, 66
1, 99359, Note_on_c, 9, 35, 0
1, 99360, Note_on_c, 9, 35, 88
1, 99719, Note_on_c, 9, 35, 0
1, 99720, Note_on_c, 9, 35, 73
1, 99839, Note_on_c, 9, 35, 0
1, 99840, Note_on_c, 9, 35, 88
1, 100199, Note_on_c, 9, 35, 0
1, 100200, Note_on_c, 9, 35, 66
1, 100319, Note_on_c, 9, 35, 0
1, 100320, Note_on_c, 9, 35, 88
1, 100679, Note_on_c, 9, 35, 0
1, 100680, Note_on_c, 9, 35, 73
1, 100799, Note_on_c, 9, 35, 0
1, 100800, Note_on_c, 9, 35, 88
1, 101159, Note_on_c, 9, 35, 0
1, 101160, Note_on_c, 9, 35, 66
1, 101279, Note_on_c, 9, 35, 0
1, 101280, Note_on_c, 9, 35, 88
1, 101639, Note_on_c, 9, 35, 0
1, 101640, Note_on_c, 9, 35, 73
1, 101759, Note_on_c, 9, 35, 0
1, 101760, Note_on_c, 9, 35, 88
1, 102119, Note_on_c, 9, 35, 0
1, 102120, Note_on_c, 9, 35, 66
1, 102239, Note_on_c, 9, 35, 0
1, 102240, Note_on_c, 9, 35, 88
1, 102599, Note_on_c, 9, 35, 0
1, 102600, Note_on_c, 9, 35, 73
1, 102719, Note_on_c, 9, 35, 0
1, 102720, Note_on_c, 9, 35, 88
1, 103079, Note_on_c, 9, 35, 0
1, 103080, Note_on_c, 9, 35, 66
1, 103199, Note_on_c, 9, 35, 0
1, 103200, Note_on_c, 9, 35, 88
1, 103559, Note_on_c, 9, 35, 0
1, 103560, Note_on_c, 9, 35, 73
1, 103679, Note_on_c, 9, 35, 0
1, 103680, Note_on_c, 9, 35, 88
1, 104159, Note_on_c, 9, 35, 0
1, 104520, Note_on_c, 9, 35, 73
1, 104639, Note_on_c, 9, 35, 0
1, 104640, Note_on_c, 9, 35, 88
1, 105119, Note_on_c, 9, 35, 0
1, 105480, Note_on_c, 9, 35, 73
1, 105599, Note_on_c, 9, 35, 0
1, 105600, Note_on_c, 9, 35, 88
1, 105959, Note_on_c, 9, 35, 0
1, 105960, Note_on_c, 9, 35, 66
1, 106079, Note_on_c, 9, 35, 0
1, 106080, Note_on_c, 9, 35, 88
1, 106439, Note_on_c, 9, 35, 0
1, 106440, Note_on_c, 9, 35, 73
1, 106559, Note_on_c, 9, 35, 0
1, 106560, Note_on_c, 9, 35, 88
1, 106919, Note_on_c, 9, 35, 0
1, 106920, Note_on_c, 9, 35, 66
1, 107039, Note_on_c, 9, 35, 0
1, 107040, Note_on_c, 9, 35, 88
1, 107399, Note_on_c, 9, 35, 0
1, 107400, Note_on_c, 9, 35, 73
1, 107519, Note_on_c, 9, 35, 0
1, 107520, Note_on_c, 9, 35, 88
1, 107879, Note_on_c, 9, 35, 0
1, 107880, Note_on_c, 9, 35, 66
1, 107999, Note_on_c, 9, 35, 0
1, 108000, Note_on_c, 9, 35, 88
1, 108359, Note_on_c, 9, 35, 0
1, 108360, Note_on_c, 9, 35, 73
1, 108479, Note_on_c, 9, 35, 0
1, 108480, Note_on_c, 9, 35, 88
1, 108839, Note_on_c, 9, 35, 0
1, 108840, Note_on_c, 9, 35, 66
1, 108959, Note_on_c, 9, 35, 0
1, 108960, Note_on_c, 9, 35, 88
1, 109319, Note_on_c, 9, 35, 0
1, 109320, Note_on_c, 9, 35, 73
1, 109439, Note_on_c, 9, 35, 0
1, 109440, Note_on_c, 9, 35, 88
1, 109799, Note_on_c, 9, 35, 0
1, 109800, Note_on_c, 9, 35, 66
1, 109919, Note_on_c, 9, 35, 0
1, 109920, Note_on_c, 9, 35, 88
1, 110279, Note_on_c, 9, 35, 0
1, 110280, Note_on_c, 9, 35, 73
1, 110399, Note_on_c, 9, 35, 0
1, 110400, Note_on_c, 9, 35, 88
1, 110759, Note_on_c, 9, 35, 0
1, 110760, Note_on_c, 9, 35, 66
1, 110879, Note_on_c, 9, 35, 0
1, 110880, Note_on_c, 9, 35, 88
1, 111239, Note_on_c, 9, 35, 0
1, 111240, Note_on_c, 9, 35, 73
1, 111359, Note_on_c, 9, 35, 0
1, 111360, Note_on_c, 9, 35, 88
1, 111839, Note_on_c, 9, 35, 0
1, 112200, Note_on_c, 9, 35, 73
1, 112319, Note_on_c, 9, 35, 0
1, 112320, Note_on_c, 9, 35, 88
1, 112799, Note_on_c, 9, 35, 0
1, 113160, Note_on_c, 9, 35, 73
1, 113279, Note_on_c, 9, 35, 0
1, 113280, Note_on_c, 9, 35, 88
1, 113639, Note_on_c, 9, 35, 0
1, 113640, Note_on_c, 9, 35, 66
1, 113759, Note_on_c, 9, 35, 0
1, 113760, Note_on_c, 9, 35, 85
1, 114239, Note_on_c, 9, 35, 0
1, 114240, Note_on_c, 9, 35, 88
1, 114599, Note_on_c, 9, 35, 0
1, 114600, Note_on_c, 9, 35, 73
1, 114719, Note_on_c, 9, 35, 0
1, 114720, Note_on_c, 9, 35, 90
1, 115199, Note_on_c, 9, 35, 0
1, 115200, Note_on_c, 9, 35, 88
1, 115559, Note_on_c, 9, 35, 0
1, 115560, Note_on_c, 9, 35, 66
1, 115679, Note_on_c, 9, 35, 0
1, 115680, Note_on_c, 9, 35, 85
1, 116159, Note_on_c, 9, 35, 0
1, 116160, Note_on_c, 9, 35, 88
1, 116519, Note_on_c, 9, 35, 0
1, 116520, Note_on_c, 9, 35, 73
1, 116639, Note_on_c, 9, 35, 0
1, 116640, Note_on_c, 9, 35, 90
1, 117119, Note_on_c, 9, 35, 0
1, 117120, Note_on_c, 9, 35, 88
1, 117479, Note_on_c, 9, 35, 0
1, 117480, Note_on_c, 9, 35, 66
1, 117599, Note_on_c, 9, 35, 0
1, 117600, Note_on_c, 9, 35, 85
1, 118079, Note_on_c, 9, 35, 0
1, 118080, Note_on_c, 9, 35, 88
1, 118439, Note_on_c, 9, 35, 0
1, 118440, Note_on_c, 9, 35, 73
1, 118559, Note_on_c, 9, 35, 0
1, 118560, Note_on_c, 9, 35, 90
1, 119039, Note_on_c, 9, 35, 0
1, 119040, Note_on_c, 9, 35, 88
1, 119399, Note_on_c, 9, 35, 0
1, 119400, Note_on_c, 9, 35, 66
1, 119519, Note_on_c, 9, 35, 0
1, 119520, Note_on_c, 9, 35, 85
1, 119999, Note_on_c, 9, 35, 0
1, 120000, Note_on_c, 9, 35, 88
1, 120359, Note_on_c, 9, 35, 0
1, 120360, Note_on_c, 9, 35, 73
1, 120479, Note_on_c, 9, 35, 0
1, 120480, Note_on_c, 9, 35, 90
1, 120959, Note_on_c, 9, 35, 0
1, 120960, Note_on_c, 9, 35, 88
1, 121319, Note_on_c, 9, 35, 0
1, 121320, Note_on_c, 9, 35, 66
1, 121439, Note_on_c, 9, 35, 0
1, 121440, Note_on_c, 9, 35, 85
1, 121919, Note_on_c, 9, 35, 0
1, 121920, Note_on_c, 9, 35, 88
1, 122279, Note_on_c, 9, 35, 0
1, 122280, Note_on_c, 9, 35, 73
1, 122399, Note_on_c, 9, 35, 0
1, 122400, Note_on_c, 9, 35, 90
1, 122879, Note_on_c, 9, 35, 0
1, 122880, Note_on_c, 9, 35, 88
1, 123239, Note_on_c, 9, 35, 0
1, 123240, Note_on_c, 9, 35, 66
1, 123359, Note_on_c, 9, 35, 0
1, 123360, Note_on_c, 9, 35, 85
1, 123839, Note_on_c, 9, 35, 0
1, 123840, Note_on_c, 9, 35, 88
1, 124199, Note_on_c, 9, 35, 0
1, 124200, Note_on_c, 9, 35, 73
1, 124319, Note_on_c, 9, 35, 0
1, 124320, Note_on_c, 9, 35, 90
1, 124799, Note_on_c, 9, 35, 0
1, 124800, Note_on_c, 9, 35, 88
1, 125159, Note_on_c, 9, 35, 0
1, 125160, Note_on_c, 9, 35, 66
1, 125279, Note_on_c, 9, 35, 0
1, 125280, Note_on_c, 9, 35, 85
1, 125759, Note_on_c, 9, 35, 0
1, 125760, Note_on_c, 9, 35, 88
1, 126119, Note_on_c, 9, 35, 0
1, 126120, Note_on_c, 9, 35, 73
1, 126239, Note_on_c, 9, 35, 0
1, 126240, Note_on_c, 9, 35, 90
1, 126719, Note_on_c, 9, 35, 0
1, 126720, Note_on_c, 9, 35, 88
1, 127079, Note_on_c, 9, 35, 0
1, 127080, Note_on_c, 9, 35, 78
1, 127199, Note_on_c, 9, 35, 0
1, 127320, Note_on_c, 9, 35, 60
1, 127439, Note_on_c, 9, 35, 0
1, 127440, Note_on_c, 9, 35, 84
1, 127679, Note_on_c, 9, 35, 0
1, 127680, Note_on_c, 9, 35, 75
1, 127799, Note_on_c, 9, 35, 0
1, 127800, Note_on_c, 9, 35, 88
1, 128039, Note_on_c, 9, 35, 0
1, 128040, Note_on_c, 9, 35, 66
1, 128159, Note_on_c, 9, 35, 0
1, 128160, Note_on_c, 9, 35, 82
1, 128399, Note_on_c, 9, 35, 0
1, 128400, Note_on_c, 9, 35, 61
1, 128519, Note_on_c, 9, 35, 0
1, 128520, Note_on_c, 9, 35, 49
1, 128639, Note_on_c, 9, 35, 0
1, 128640, Note_on_c, 9, 35, 88
1, 128999, Note_on_c, 9, 35, 0
1, 129000, Note_on_c, 9, 35, 64
1, 129119, Note_on_c, 9, 35, 0
1, 129120, Note_on_c, 9, 35, 84
1, 129599, Note_on_c, 9, 35, 0
1, 129600, Note_on_c, 9, 35, 88
1, 129959, Note_on_c, 9, 35, 0
1, 129960, Note_on_c, 9, 35, 54
1, 130079, Note_on_c, 9, 35, 0
1, 130080, Note_on_c, 9, 35, 76
1, 130559, Note_on_c, 9, 35, 0
1, 130560, Note_on_c, 9, 35, 85
1, 130919, Note_on_c, 9, 35, 0
1, 130920, Note_on_c, 9, 35, 62
1, 131039, Note_on_c, 9, 35, 0
1, 131040, Note_on_c, 9, 35, 65
1, 131519, Note_on_c, 9, 35, 0
1, 131520, Note_on_c, 9, 35, 88
1, 131879, Note_on_c, 9, 35, 0
1, 131880, Note_on_c, 9, 35, 35
1, 131999, Note_on_c, 9, 35, 0
1, 132000, Note_on_c, 9, 35, 75
1, 132119, Note_on_c, 9, 35, 0
1, 132120, Note_on_c, 9, 35, 58
1, 132239, Note_on_c, 9, 35, 0
1, 132240, Note_on_c, 9, 35, 50
1, 132359, Note_on_c, 9, 35, 0
1, 132360, Note_on_c, 9, 35, 57
1, 132479, Note_on_c, 9, 35, 0
1, 132480, Note_on_c, 9, 35, 88
1, 132839, Note_on_c, 9, 35, 0
1, 132840, Note_on_c, 9, 35, 52
1, 132959, Note_on_c, 9, 35, 0
1, 132960, Note_on_c, 9, 35, 87
1, 133439, Note_on_c, 9, 35, 0
1, 133440, Note_on_c, 9, 35, 84
1, 133799, Note_on_c, 9, 35, 0
1, 133800, Note_on_c, 9, 35, 60
1, 133919, Note_on_c, 9, 35, 0
1, 133920, Note_on_c, 9, 35, 82
1, 134399, Note_on_c, 9, 35, 0
1, 134400, Note_on_c, 9, 35, 84
1, 134759, Note_on_c, 9, 35, 0
1, 134760, Note_on_c, 9, 35, 61
1, 134879, Note_on_c, 9, 35, 0
1, 134880, Note_on_c, 9, 35, 85
1, 135359, Note_on_c, 9, 35, 0
1, 135360, Note_on_c, 9, 35, 81
1, 135719, Note_on_c, 9, 35, 0
1, 135720, Note_on_c, 9, 35, 59
1, 135839, Note_on_c, 9, 35, 0
1, 135840, Note_on_c, 9, 35, 78
1, 136319, Note_on_c, 9, 35, 0
1, 136320, Note_on_c, 9, 35, 88
1, 136679, Note_on_c, 9, 35, 0
1, 136680, Note_on_c, 9, 35, 68
1, 136799, Note_on_c, 9, 35, 0
1, 136800, Note_on_c, 9, 35, 82
1, 137279, Note_on_c, 9, 35, 0
1, 137280, Note_on_c, 9, 35, 85
1, 137639, Note_on_c, 9, 35, 0
1, 137640, Note_on_c, 9, 35, 64
1, 137759, Note_on_c, 9, 35, 0
1, 137760, Note_on_c, 9, 35, 82
1, 138239, Note_on_c, 9, 35, 0
1, 138240, Note_on_c, 9, 35, 84
1, 138599, Note_on_c, 9, 35, 0
1, 138600, Note_on_c, 9, 35, 57
1, 138719, Note_on_c, 9, 35, 0
1, 138720, Note_on_c, 9, 35, 85
1, 139199, Note_on_c, 9, 35, 0
1, 139200, Note_on_c, 9, 35, 85
1, 139559, Note_on_c, 9, 35, 0
1, 139560, Note_on_c, 9, 35, 88
1, 139679, Note_on_c, 9, 35, 0
1, 139800, Note_on_c, 9, 35, 61
1, 139919, Note_on_c, 9, 35, 0
1, 139920, Note_on_c, 9, 35, 80
1, 140159, Note_on_c, 9, 35, 0
1, 140160, Note_on_c, 9, 35, 88
1, 140519, Note_on_c, 9, 35, 0
1, 140520, Note_on_c, 9, 35, 61
1, 140639, Note_on_c, 9, 35, 0
1, 140640, Note_on_c, 9, 35, 85
1, 141119, Note_on_c, 9, 35, 0
1, 141120, Note_on_c, 9, 35, 84
1, 141479, Note_on_c, 9, 35, 0
1, 141480, Note_on_c, 9, 35, 65
1, 141599, Note_on_c, 9, 35, 0
1, 141600, Note_on_c, 9, 35, 82
1, 142079, Note_on_c, 9, 35, 0
1, 142080, Note_on_c, 9, 35, 82
1, 142439, Note_on_c, 9, 35, 0
1, 142440, Note_on_c, 9, 35, 49
1, 142559, Note_on_c, 9, 35, 0
1, 142560, Note_on_c, 9, 35, 85
1, 143039, Note_on_c, 9, 35, 0
1, 143040, Note_on_c, 9, 35, 57
1, 143159, Note_on_c, 9, 35, 0
1, 143160, Note_on_c, 9, 35, 81
1, 143399, Note_on_c, 9, 35, 0
1, 143400, Note_on_c, 9, 35, 90
1, 143519, Note_on_c, 9, 35, 0
1, 143640, Note_on_c, 9, 35, 55
1, 143759, Note_on_c, 9, 35, 0
1, 143760, Note_on_c, 9, 35, 58
1, 143879, Note_on_c, 9, 35, 0
1, 143880, Note_on_c, 9, 35, 80
1, 143999, Note_on_c, 9, 35, 0
1, 144000, Note_on_c, 9, 35, 88
1, 144359, Note_on_c, 9, 35, 0
1, 144360, Note_on_c, 9, 35, 68
1, 144479, Note_on_c, 9, 35, 0
1, 144480, Note_on_c, 9, 35, 82
1, 144959, Note_on_c, 9, 35, 0
1, 144960, Note_on_c, 9, 35, 85
1, 145319, Note_on_c, 9, 35, 0
1, 145320, Note_on_c, 9, 35, 64
1, 145439, Note_on_c, 9, 35, 0
1, 145440, Note_on_c, 9, 35, 82
1, 145919, Note_on_c, 9, 35, 0
1, 145920, Note_on_c, 9, 35, 84
1, 146279, Note_on_c, 9, 35, 0
1, 146280, Note_on_c, 9, 35, 57
1, 146399, Note_on_c, 9, 35, 0
1, 146400, Note_on_c, 9, 35, 85
1, 146879, Note_on_c, 9, 35, 0
1, 146880, Note_on_c, 9, 35, 85
1, 147239, Note_on_c, 9, 35, 0
1, 147240, Note_on_c, 9, 35, 88
1, 147359, Note_on_c, 9, 35, 0
1, 147480, Note_on_c, 9, 35, 61
1, 147599, Note_on_c, 9, 35, 0
1, 147600, Note_on_c, 9, 35, 80
1, 147839, Note_on_c, 9, 35, 0
1, 147840, Note_on_c, 9, 35, 88
1, 148199, Note_on_c, 9, 35, 0
1, 148200, Note_on_c, 9, 35, 61
1, 148319, Note_on_c, 9, 35, 0
1, 148320, Note_on_c, 9, 35, 85
1, 148799, Note_on_c, 9, 35, 0
1, 148800, Note_on_c, 9, 35, 84
1, 149159, Note_on_c, 9, 35, 0
1, 149160, Note_on_c, 9, 35, 65
1, 149279, Note_on_c, 9, 35, 0
1, 149280, Note_on_c, 9, 35, 82
1, 149759, Note_on_c, 9, 35, 0
1, 149760, Note_on_c, 9, 35, 82
1, 150119, Note_on_c, 9, 35, 0
1, 150120, Note_on_c, 9, 35, 49
1, 150239, Note_on_c, 9, 35, 0
1, 150240, Note_on_c, 9, 35, 85
1, 150719, Note_on_c, 9, 35, 0
1, 150720, Note_on_c, 9, 35, 57
1, 150839, Note_on_c, 9, 35, 0
1, 150840, Note_on_c, 9, 35, 81
1, 151079, Note_on_c, 9, 35, 0
1, 151080, Note_on_c, 9, 35, 90
1, 151199, Note_on_c, 9, 35, 0
1, 151320, Note_on_c, 9, 35, 55
1, 151439, Note_on_c, 9, 35, 0
1, 151440, Note_on_c, 9, 35, 58
1, 151559, Note_on_c, 9, 35, 0
1, 151560, Note_on_c, 9, 35, 80
1, 151679, Note_on_c, 9, 35, 0
1, 151680, Note_on_c, 9, 35, 88
1, 152039, Note_on_c, 9, 35, 0
1, 152040, Note_on_c, 9, 35, 68
1, 152159, Note_on_c, 9, 35, 0
1, 152160, Note_on_c, 9, 35, 82
1, 152639, Note_on_c, 9, 35, 0
1, 152640, Note_on_c, 9, 35, 85
1, 152999, Note_on_c, 9, 35, 0
1, 153000, Note_on_c, 9, 35, 64
1, 153119, Note_on_c, 9, 35, 0
1, 153120, Note_on_c, 9, 35, 82
1, 153599, Note_on_c, 9, 35, 0
1, 153600, Note_on_c, 9, 35, 84
1, 153959, Note_on_c, 9, 35, 0
1, 153960, Note_on_c, 9, 35, 57
1, 154079, Note_on_c, 9, 35, 0
1, 154080, Note_on_c, 9, 35, 85
1, 154559, Note_on_c, 9, 35, 0
1, 154560, Note_on_c, 9, 35, 85
1, 154919, Note_on_c, 9, 35, 0
1, 154920, Note_on_c, 9, 35, 88
1, 155039, Note_on_c, 9, 35, 0
1, 155160, Note_on_c, 9, 35, 61
1, 155279, Note_on_c, 9, 35, 0
1, 155280, Note_on_c, 9, 35, 80
1, 155519, Note_on_c, 9, 35, 0
1, 155520, Note_on_c, 9, 35, 88
1, 155879, Note_on_c, 9, 35, 0
1, 155880, Note_on_c, 9, 35, 61
1, 155999, Note_on_c, 9, 35, 0
1, 156000, Note_on_c, 9, 35, 85
1, 156479, Note_on_c, 9, 35, 0
1, 156480, Note_on_c, 9, 35, 84
1, 156839, Note_on_c, 9, 35, 0
1, 156840, Note_on_c, 9, 35, 65
1, 156959, Note_on_c, 9, 35, 0
1, 156960, Note_on_c, 9, 35, 82
1, 157439, Note_on_c, 9, 35, 0
1, 157440, Note_on_c, 9, 35, 82
1, 157799, Note_on_c, 9, 35, 0
1, 157800, Note_on_c, 9, 35, 49
1, 157919, Note_on_c, 9, 35, 0
1, 157920, Note_on_c, 9, 35, 85
1, 158399, Note_on_c, 9, 35, 0
1, 158400, Note_on_c, 9, 35, 57
1, 158519, Note_on_c, 9, 35, 0
1, 158520, Note_on_c, 9, 35, 81
1, 158759, Note_on_c, 9, 35, 0
1, 158760, Note_on_c, 9, 35, 90
1, 158879, Note_on_c, 9, 35, 0
1, 159000, Note_on_c, 9, 35, 55
1, 159119, Note_on_c, 9, 35, 0
1, 159120, Note_on_c, 9, 35, 58
1, 159239, Note_on_c, 9, 35, 0
1, 159240, Note_on_c, 9, 35, 80
1, 159359, Note_on_c, 9, 35, 0
1, 159360, End_track
0, 0, End_of_file
