0, 0, Header, 1, 2, 480
1, 0, Start_track
1, 0, Time_signature, 4, 2, 24, 8
1, 0, Key_signature, 0, "major"
1, 0, Tempo, 465116
1, 0, Control_c, 9, 121, 0
1, 0, Program_c, 9, 0
1, 0, Control_c, 9, 7, 100
1, 0, Control_c, 9, 10, 64
1, 0, Control_c, 9, 91, 0
1, 0, Control_c, 9, 93, 0
1, 0, MIDI_port, 0
1, 10080, Note_on_c, 9, 40, 120
1, 10559, Note_on_c, 9, 40, 0
1, 11040, Note_on_c, 9, 40, 120
1, 11519, Note_on_c, 9, 40, 0
1, 12000, Note_on_c, 9, 40, 120
1, 12479, Note_on_c, 9, 40, 0
1, 12960, Note_on_c, 9, 40, 120
1, 13439, Note_on_c, 9, 40, 0
1, 13920, Note_on_c, 9, 40, 120
1, 14399, Note_on_c, 9, 40, 0
1, 14880, Note_on_c, 9, 40, 120
1, 15359, Note_on_c, 9, 40, 0
1, 15840, Note_on_c, 9, 40, 120
1, 16319, Note_on_c, 9, 40, 0
1, 16800, Note_on_c, 9, 40, 120
1, 17279, Note_on_c, 9, 40, 0
1, 17760, Note_on_c, 9, 40, 120
1, 18239, Note_on_c, 9, 40, 0
1, 18720, Note_on_c, 9, 40, 120
1, 19199, Note_on_c, 9, 40, 0
1, 19680, Note_on_c, 9, 40, 120
1, 20159, Note_on_c, 9, 40, 0
1, 20640, Note_on_c, 9, 40, 120
1, 21119, Note_on_c, 9, 40, 0
1, 21600, Note_on_c, 9, 40, 120
1, 22079, Note_on_c, 9, 40, 0
1, 22560, Note_on_c, 9, 40, 120
1, 23039, Note_on_c, 9, 40, 0
1, 23520, Note_on_c, 9, 40, 120
1, 23999, Note_on_c, 9, 40, 0
1, 24480, Note_on_c, 9, 40, 120
1, 24959, Note_on_c, 9, 40, 0
1, 25440, Note_on_c, 9, 40, 120
1, 25919, Note_on_c, 9, 40, 0
1, 26400, Note_on_c, 9, 40, 120
1, 26879, Note_on_c, 9, 40, 0
1, 27360, Note_on_c, 9, 40, 120
1, 27839, Note_on_c, 9, 40, 0
1, 28320, Note_on_c, 9, 40, 120
1, 28799, Note_on_c, 9, 40, 0
1, 29280, Note_on_c, 9, 40, 120
1, 29759, Note_on_c, 9, 40, 0
1, 30240, Note_on_c, 9, 40, 120
1, 30719, Note_on_c, 9, 40, 0
1, 31200, Note_on_c, 9, 40, 120
1, 31679, Note_on_c, 9, 40, 0
1, 32160, Note_on_c, 9, 40, 120
1, 32639, Note_on_c, 9, 40, 0
1, 33120, Note_on_c, 9, 40, 120
1, 33599, Note_on_c, 9, 40, 0
1, 34080, Note_on_c, 9, 40, 120
1, 34559, Note_on_c, 9, 40, 0
1, 35040, Note_on_c, 9, 40, 120
1, 35519, Note_on_c, 9, 40, 0
1, 36000, Note_on_c, 9, 40, 120
1, 36479, Note_on_c, 9, 40, 0
1, 36960, Note_on_c, 9, 40, 120
1, 37439, Note_on_c, 9, 40, 0
1, 37920, Note_on_c, 9, 40, 120
1, 38399, Note_on_c, 9, 40, 0
1, 38880, Note_on_c, 9, 40, 120
1, 39359, Note_on_c, 9, 40, 0
1, 39840, Note_on_c, 9, 40, 120
1, 40319, Note_on_c, 9, 40, 0
1, 40800, Note_on_c, 9, 40, 120
1, 41279, Note_on_c, 9, 40, 0
1, 41760, Note_on_c, 9, 40, 120
1, 42239, Note_on_c, 9, 40, 0
1, 42720, Note_on_c, 9, 40, 120
1, 43199, Note_on_c, 9, 40, 0
1, 43680, Note_on_c, 9, 40, 120
1, 44159, Note_on_c, 9, 40, 0
1, 44640, Note_on_c, 9, 40, 120
1, 45119, Note_on_c, 9, 40, 0
1, 45600, Note_on_c, 9, 40, 120
1, 46079, Note_on_c, 9, 40, 0
1, 46560, Note_on_c, 9, 40, 120
1, 47039, Note_on_c, 9, 40, 0
1, 47520, Note_on_c, 9, 40, 120
1, 47999, Note_on_c, 9, 40, 0
1, 48480, Note_on_c, 9, 40, 120
1, 48959, Note_on_c, 9, 40, 0
1, 49440, Note_on_c, 9, 40, 120
1, 49919, Note_on_c, 9, 40, 0
1, 50400, Note_on_c, 9, 40, 120
1, 50879, Note_on_c, 9, 40, 0
1, 51360, Note_on_c, 9, 40, 120
1, 51839, Note_on_c, 9, 40, 0
1, 52320, Note_on_c, 9, 40, 120
1, 52799, Note_on_c, 9, 40, 0
1, 53280, Note_on_c, 9, 40, 120
1, 53759, Note_on_c, 9, 40, 0
1, 54240, Note_on_c, 9, 40, 120
1, 54719, Note_on_c, 9, 40, 0
1, 55200, Note_on_c, 9, 40, 120
1, 55679, Note_on_c, 9, 40, 0
1, 56160, Note_on_c, 9, 40, 120
1, 56639, Note_on_c, 9, 40, 0
1, 57120, Note_on_c, 9, 40, 120
1, 57599, Note_on_c, 9, 40, 0
1, 58080, Note_on_c, 9, 40, 120
1, 58559, Note_on_c, 9, 40, 0
1, 59040, Note_on_c, 9, 40, 120
1, 59519, Note_on_c, 9, 40, 0
1, 60000, Note_on_c, 9, 40, 120
1, 60479, Note_on_c, 9, 40, 0
1, 60960, Note_on_c, 9, 40, 120
1, 61439, Note_on_c, 9, 40, 0
1, 61920, Note_on_c, 9, 40, 120
1, 62399, Note_on_c, 9, 40, 0
1, 62880, Note_on_c, 9, 40, 120
1, 63359, Note_on_c, 9, 40, 0
1, 63840, Note_on_c, 9, 40, 120
1, 64319, Note_on_c, 9, 40, 0
1, 64800, Note_on_c, 9, 40, 120
1, 65279, Note_on_c, 9, 40, 0
1, 66000, Note_on_c, 9, 40, 120
1, 66239, Note_on_c, 9, 40, 0
1, 66960, Note_on_c, 9, 40, 120
1, 67199, Note_on_c, 9, 40, 0
1, 67920, Note_on_c, 9, 40, 120
1, 68159, Note_on_c, 9, 40, 0
1, 68880, Note_on_c, 9, 40, 120
1, 69119, Note_on_c, 9, 40, 0
1, 69840, Note_on_c, 9, 40, 120
1, 70079, Note_on_c, 9, 40, 0
1, 70800, Note_on_c, 9, 40, 120
1, 71039, Note_on_c, 9, 40, 0
1, 71760, Note_on_c, 9, 40, 120
1, 71999, Note_on_c, 9, 40, 0
1, 72720, Note_on_c, 9, 40, 120
1, 72959, Note_on_c, 9, 40, 0
1, 73680, Note_on_c, 9, 40, 120
1, 73919, Note_on_c, 9, 40, 0
1, 74640, Note_on_c, 9, 40, 120
1, 74879, Note_on_c, 9, 40, 0
1, 75600, Note_on_c, 9, 40, 120
1, 75839, Note_on_c, 9, 40, 0
1, 76560, Note_on_c, 9, 40, 120
1, 76799, Note_on_c, 9, 40, 0
1, 77520, Note_on_c, 9, 40, 120
1, 77759, Note_on_c, 9, 40, 0
1, 78480, Note_on_c, 9, 40, 120
1, 78719, Note_on_c, 9, 40, 0
1, 79680, Note_on_c, 9, 40, 120
1, 80159, Note_on_c, 9, 40, 0
1, 80640, Note_on_c, 9, 40, 120
1, 81119, Note_on_c, 9, 40, 0
1, 81600, Note_on_c, 9, 40, 120
1, 82079, Note_on_c, 9, 40, 0
1, 82560, Note_on_c, 9, 40, 120
1, 83039, Note_on_c, 9, 40, 0
1, 83520, Note_on_c, 9, 40, 120
1, 83999, Note_on_c, 9, 40, 0
1, 84720, Note_on_c, 9, 40, 120
1, 84959, Note_on_c, 9, 40, 0
1, 85680, Note_on_c, 9, 40, 120
1, 85919, Note_on_c, 9, 40, 0
1, 86880, Note_on_c, 9, 40, 120
1, 87359, Note_on_c, 9, 40, 0
1, 87840, Note_on_c, 9, 40, 120
1, 88319, Note_on_c, 9, 40, 0
1, 88800, Note_on_c, 9, 40, 120
1, 89279, Note_on_c, 9, 40, 0
1, 89760, Note_on_c, 9, 40, 120
1, 90239, Note_on_c, 9, 40, 0
1, 90720, Note_on_c, 9, 40, 120
1, 91199, Note_on_c, 9, 40, 0
1, 91680, Note_on_c, 9, 40, 120
1, 92159, Note_on_c, 9, 40, 0
1, 92640, Note_on_c, 9, 40, 120
1, 93119, Note_on_c, 9, 40, 0
1, 93600, Note_on_c, 9, 40, 120
1, 94079, Note_on_c, 9, 40, 0
1, 94560, Note_on_c, 9, 40, 120
1, 95039, Note_on_c, 9, 40, 0
1, 95520, Note_on_c, 9, 40, 120
1, 95999, Note_on_c, 9, 40, 0
1, 96480, Note_on_c, 9, 40, 120
1, 96959, Note_on_c, 9, 40, 0
1, 97440, Note_on_c, 9, 40, 120
1, 97919, Note_on_c, 9, 40, 0
1, 98400, Note_on_c, 9, 40, 120
1, 98879, Note_on_c, 9, 40, 0
1, 99360, Note_on_c, 9, 40, 120
1, 99839, Note_on_c, 9, 40, 0
1, 100320, Note_on_c, 9, 40, 120
1, 100799, Note_on_c, 9, 40, 0
1, 101280, Note_on_c, 9, 40, 120
1, 101759, Note_on_c, 9, 40, 0
1, 102240, Note_on_c, 9, 40, 120
1, 102719, Note_on_c, 9, 40, 0
1, 103200, Note_on_c, 9, 40, 120
1, 103679, Note_on_c, 9, 40, 0
1, 104160, Note_on_c, 9, 40, 120
1, 104639, Note_on_c, 9, 40, 0
1, 105120, Note_on_c, 9, 40, 120
1, 105599, Note_on_c, 9, 40, 0
1, 106080, Note_on_c, 9, 40, 120
1, 106559, Note_on_c, 9, 40, 0
1, 107040, Note_on_c, 9, 40, 120
1, 107519, Note_on_c, 9, 40, 0
1, 108000, Note_on_c, 9, 40, 120
1, 108479, Note_on_c, 9, 40, 0
1, 108960, Note_on_c, 9, 40, 120
1, 109439, Note_on_c, 9, 40, 0
1, 109920, Note_on_c, 9, 40, 120
1, 110399, Note_on_c, 9, 40, 0
1, 110880, Note_on_c, 9, 40, 120
1, 111359, Note_on_c, 9, 40, 0
1, 111840, Note_on_c, 9, 40, 120
1, 112319, Note_on_c, 9, 40, 0
1, 112800, Note_on_c, 9, 40, 120
1, 113279, Note_on_c, 9, 40, 0
1, 113760, Note_on_c, 9, 40, 120
1, 114239, Note_on_c, 9, 40, 0
1, 114720, Note_on_c, 9, 40, 120
1, 115199, Note_on_c, 9, 40, 0
1, 115680, Note_on_c, 9, 40, 120
1, 116159, Note_on_c, 9, 40, 0
1, 116640, Note_on_c, 9, 40, 120
1, 117119, Note_on_c, 9, 40, 0
1, 117600, Note_on_c, 9, 40, 120
1, 118079, Note_on_c, 9, 40, 0
1, 118560, Note_on_c, 9, 40, 120
1, 119039, Note_on_c, 9, 40, 0
1, 119520, Note_on_c, 9, 40, 120
1, 119999, Note_on_c, 9, 40, 0
1, 120600, Note_on_c, 9, 40, 120
1, 120959, Note_on_c, 9, 40, 0
1, 121680, Note_on_c, 9, 40, 120
1, 121919, Note_on_c, 9, 40, 0
1, 122640, Note_on_c, 9, 40, 120
1, 122879, Note_on_c, 9, 40, 0
1, 123600, Note_on_c, 9, 40, 120
1, 123839, Note_on_c, 9, 40, 0
1, 124560, Note_on_c, 9, 40, 120
1, 124799, Note_on_c, 9, 40, 0
1, 125520, Note_on_c, 9, 40, 120
1, 125759, Note_on_c, 9, 40, 0
1, 126480, Note_on_c, 9, 40, 120
1, 126719, Note_on_c, 9, 40, 0
1, 127440, Note_on_c, 9, 40, 120
1, 127679, Note_on_c, 9, 40, 0
1, 128400, Note_on_c, 9, 40, 120
1, 128639, Note_on_c, 9, 40, 0
1, 129360, Note_on_c, 9, 40, 120
1, 129599, Note_on_c, 9, 40, 0
1, 130320, Note_on_c, 9, 40, 120
1, 130559, Note_on_c, 9, 40, 0
1, 131280, Note_on_c, 9, 40, 120
1, 131519, Note_on_c, 9, 40, 0
1, 132240, Note_on_c, 9, 40, 120
1, 132479, Note_on_c, 9, 40, 0
1, 133200, Note_on_c, 9, 40, 120
1, 133439, Note_on_c, 9, 40, 0
1, 134160, Note_on_c, 9, 40, 120
1, 134399, Note_on_c, 9, 40, 0
1, 135360, Note_on_c, 9, 40, 120
1, 135839, Note_on_c, 9, 40, 0
1, 136560, Note_on_c, 9, 40, 120
1, 136799, Note_on_c, 9, 40, 0
1, 137520, Note_on_c, 9, 40, 120
1, 137759, Note_on_c, 9, 40, 0
1, 138480, Note_on_c, 9, 40, 120
1, 138719, Note_on_c, 9, 40, 0
1, 139440, Note_on_c, 9, 40, 120
1, 139679, Note_on_c, 9, 40, 0
1, 140400, Note_on_c, 9, 40, 120
1, 140639, Note_on_c, 9, 40, 0
1, 141360, Note_on_c, 9, 40, 120
1, 141599, Note_on_c, 9, 40, 0
1, 142320, Note_on_c, 9, 40, 120
1, 142559, Note_on_c, 9, 40, 0
1, 143520, Note_on_c, 9, 40, 120
1, 143999, Note_on_c, 9, 40, 0
1, 144480, Note_on_c, 9, 40, 120
1, 144959, Note_on_c, 9, 40, 0
1, 145680, Note_on_c, 9, 40, 120
1, 145919, Note_on_c, 9, 40, 0
1, 146880, Note_on_c, 9, 40, 120
1, 147359, Note_on_c, 9, 40, 0
1, 147840, Note_on_c, 9, 40, 120
1, 148319, Note_on_c, 9, 40, 0
1, 148800, Note_on_c, 9, 40, 120
1, 149279, Note_on_c, 9, 40, 0
1, 149760, Note_on_c, 9, 40, 120
1, 150239, Note_on_c, 9, 40, 0
1, 150720, Note_on_c, 9, 40, 120
1, 151199, Note_on_c, 9, 40, 0
1, 151680, Note_on_c, 9, 40, 120
1, 152159, Note_on_c, 9, 40, 0
1, 152640, Note_on_c, 9, 40, 120
1, 153119, Note_on_c, 9, 40, 0
1, 153600, Note_on_c, 9, 40, 120
1, 154079, Note_on_c, 9, 40, 0
1, 154560, Note_on_c, 9, 40, 120
1, 155039, Note_on_c, 9, 40, 0
1, 155520, Note_on_c, 9, 40, 120
1, 155999, Note_on_c, 9, 40, 0
1, 156480, Note_on_c, 9, 40, 120
1, 156959, Note_on_c, 9, 40, 0
1, 157440, Note_on_c, 9, 40, 120
1, 157919, Note_on_c, 9, 40, 0
1, 158400, Note_on_c, 9, 40, 120
1, 158879, Note_on_c, 9, 40, 0
1, 159360, Note_on_c, 9, 40, 120
1, 159839, Note_on_c, 9, 40, 0
1, 160320, Note_on_c, 9, 40, 120
1, 160799, Note_on_c, 9, 40, 0
1, 161280, Note_on_c, 9, 40, 120
1, 161759, Note_on_c, 9, 40, 0
1, 162240, Note_on_c, 9, 40, 120
1, 162719, Note_on_c, 9, 40, 0
1, 163200, Note_on_c, 9, 40, 120
1, 163679, Note_on_c, 9, 40, 0
1, 164160, Note_on_c, 9, 40, 120
1, 164639, Note_on_c, 9, 40, 0
1, 165120, Note_on_c, 9, 40, 120
1, 165599, Note_on_c, 9, 40, 0
1, 166080, Note_on_c, 9, 40, 120
1, 166559, Note_on_c, 9, 40, 0
1, 167040, Note_on_c, 9, 40, 120
1, 167519, Note_on_c, 9, 40, 0
1, 168000, Note_on_c, 9, 40, 120
1, 168479, Note_on_c, 9, 40, 0
1, 168960, Note_on_c, 9, 40, 120
1, 169439, Note_on_c, 9, 40, 0
1, 169920, Note_on_c, 9, 40, 120
1, 170399, Note_on_c, 9, 40, 0
1, 170880, Note_on_c, 9, 40, 120
1, 171359, Note_on_c, 9, 40, 0
1, 171840, Note_on_c, 9, 40, 120
1, 172319, Note_on_c, 9, 40, 0
1, 172800, Note_on_c, 9, 40, 120
1, 173279, Note_on_c, 9, 40, 0
1, 173760, Note_on_c, 9, 40, 120
1, 174239, Note_on_c, 9, 40, 0
1, 175200, Note_on_c, 9, 40, 120
1, 175679, Note_on_c, 9, 40, 0
1, 176160, Note_on_c, 9, 40, 120
1, 176639, Note_on_c, 9, 40, 0
1, 177240, Note_on_c, 9, 40, 120
1, 177599, Note_on_c, 9, 40, 0
1, 178080, Note_on_c, 9, 40, 120
1, 178559, Note_on_c, 9, 40, 0
1, 179040, Note_on_c, 9, 40, 120
1, 179519, Note_on_c, 9, 40, 0
1, 180120, Note_on_c, 9, 40, 120
1, 180479, Note_on_c, 9, 40, 0
1, 180960, Note_on_c, 9, 40, 120
1, 181439, Note_on_c, 9, 40, 0
1, 189600, Note_on_c, 9, 40, 120
1, 190079, Note_on_c, 9, 40, 0
1, 190560, Note_on_c, 9, 40, 120
1, 191039, Note_on_c, 9, 40, 0
1, 191520, Note_on_c, 9, 40, 120
1, 191999, Note_on_c, 9, 40, 0
1, 192480, Note_on_c, 9, 40, 120
1, 192959, Note_on_c, 9, 40, 0
1, 193440, Note_on_c, 9, 40, 120
1, 193919, Note_on_c, 9, 40, 0
1, 194400, Note_on_c, 9, 40, 120
1, 194879, Note_on_c, 9, 40, 0
1, 195360, Note_on_c, 9, 40, 120
1, 195839, Note_on_c, 9, 40, 0
1, 196320, Note_on_c, 9, 40, 120
1, 196799, Note_on_c, 9, 40, 0
1, 197280, Note_on_c, 9, 40, 120
1, 197759, Note_on_c, 9, 40, 0
1, 198240, Note_on_c, 9, 40, 120
1, 198719, Note_on_c, 9, 40, 0
1, 199200, Note_on_c, 9, 40, 120
1, 199679, Note_on_c, 9, 40, 0
1, 200160, Note_on_c, 9, 40, 120
1, 200639, Note_on_c, 9, 40, 0
1, 201240, Note_on_c, 9, 40, 120
1, 201599, Note_on_c, 9, 40, 0
1, 202080, Note_on_c, 9, 40, 120
1, 202559, Note_on_c, 9, 40, 0
1, 203040, Note_on_c, 9, 40, 120
1, 203519, Note_on_c, 9, 40, 0
1, 204000, Note_on_c, 9, 40, 120
1, 204479, Note_on_c, 9, 40, 0
1, 204960, Note_on_c, 9, 40, 120
1, 205439, Note_on_c, 9, 40, 0
1, 206160, Note_on_c, 9, 40, 120
1, 206399, Note_on_c, 9, 40, 0
1, 207120, Note_on_c, 9, 40, 120
1, 207359, Note_on_c, 9, 40, 0
1, 208320, Note_on_c, 9, 40, 120
1, 208799, Note_on_c, 9, 40, 0
1, 209280, Note_on_c, 9, 40, 120
1, 209759, Note_on_c, 9, 40, 0
1, 210480, Note_on_c, 9, 40, 120
1, 210719, Note_on_c, 9, 40, 0
1, 211680, Note_on_c, 9, 40, 120
1, 212159, Note_on_c, 9, 40, 0
1, 212640, Note_on_c, 9, 40, 120
1, 213119, Note_on_c, 9, 40, 0
1, 213600, Note_on_c, 9, 40, 120
1, 214079, Note_on_c, 9, 40, 0
1, 214800, Note_on_c, 9, 40, 120
1, 215039, Note_on_c, 9, 40, 0
1, 216000, Note_on_c, 9, 40, 120
1, 216479, Note_on_c, 9, 40, 0
1, 216960, Note_on_c, 9, 40, 120
1, 217439, Note_on_c, 9, 40, 0
1, 217920, Note_on_c, 9, 40, 120
1, 218399, Note_on_c, 9, 40, 0
1, 219120, Note_on_c, 9, 40, 120
1, 219359, Note_on_c, 9, 40, 0
1, 220320, Note_on_c, 9, 40, 120
1, 220799, Note_on_c, 9, 40, 0
1, 221280, Note_on_c, 9, 40, 120
1, 221759, Note_on_c, 9, 40, 0
1, 222480, Note_on_c, 9, 40, 120
1, 222719, Note_on_c, 9, 40, 0
1, 223680, Note_on_c, 9, 40, 120
1, 224159, Note_on_c, 9, 40, 0
1, 224880, Note_on_c, 9, 40, 120
1, 225119, Note_on_c, 9, 40, 0
1, 226080, Note_on_c, 9, 40, 120
1, 226559, Note_on_c, 9, 40, 0
1, 227280, Note_on_c, 9, 40, 120
1, 227519, Note_on_c, 9, 40, 0
1, 228480, Note_on_c, 9, 40, 120
1, 228959, Note_on_c, 9, 40, 0
1, 229680, Note_on_c, 9, 40, 120
1, 229919, Note_on_c, 9, 40, 0
1, 230880, Note_on_c, 9, 40, 120
1, 231359, Note_on_c, 9, 40, 0
1, 232080, Note_on_c, 9, 40, 120
1, 232319, Note_on_c, 9, 40, 0
1, 233280, Note_on_c, 9, 40, 120
1, 233759, Note_on_c, 9, 40, 0
1, 234480, Note_on_c, 9, 40, 120
1, 234719, Note_on_c, 9, 40, 0
1, 235680, Note_on_c, 9, 40, 120
1, 236159, Note_on_c, 9, 40, 0
1, 236880, Note_on_c, 9, 40, 120
1, 237119, Note_on_c, 9, 40, 0
1, 238080, Note_on_c, 9, 40, 120
1, 238559, Note_on_c, 9, 40, 0
1, 239280, Note_on_c, 9, 40, 120
1, 239519, Note_on_c, 9, 40, 0
1, 240480, Note_on_c, 9, 40, 120
1, 240959, Note_on_c, 9, 40, 0
1, 241920, Note_on_c, 9, 40, 120
1, 242239, Note_on_c, 9, 40, 0
1, 243200, Note_on_c, 9, 40, 120
1, 243839, Note_on_c, 9, 40, 0
1, 244560, Note_on_c, 9, 40, 120
1, 244799, Note_on_c, 9, 40, 0
1, 245760, Note_on_c, 9, 40, 120
1, 246079, Note_on_c, 9, 40, 0
1, 247040, Note_on_c, 9, 40, 120
1, 247679, Note_on_c, 9, 40, 0
1, 248160, Note_on_c, 9, 40, 120
1, 248639, Note_on_c, 9, 40, 0
1, 249600, Note_on_c, 9, 40, 120
1, 250079, Note_on_c, 9, 40, 0
1, 250800, Note_on_c, 9, 40, 120
1, 251039, Note_on_c, 9, 40, 0
1, 252240, Note_on_c, 9, 40, 120
1, 252479, Note_on_c, 9, 40, 0
1, 253440, Note_on_c, 9, 40, 120
1, 253759, Note_on_c, 9, 40, 0
1, 254720, Note_on_c, 9, 40, 120
1, 255359, Note_on_c, 9, 40, 0
1, 255840, Note_on_c, 9, 40, 120
1, 256319, Note_on_c, 9, 40, 0
1, 257280, Note_on_c, 9, 40, 120
1, 257759, Note_on_c, 9, 40, 0
1, 258720, Note_on_c, 9, 40, 120
1, 259199, Note_on_c, 9, 40, 0
1, 259920, Note_on_c, 9, 40, 120
1, 260159, Note_on_c, 9, 40, 0
1, 261120, Note_on_c, 9, 40, 120
1, 261599, Note_on_c, 9, 40, 0
1, 262320, Note_on_c, 9, 40, 120
1, 262559, Note_on_c, 9, 40, 0
1, 263520, Note_on_c, 9, 40, 120
1, 263999, Note_on_c, 9, 40, 0
1, 264960, Note_on_c, 9, 40, 120
1, 265439, Note_on_c, 9, 40, 0
1, 266160, Note_on_c, 9, 40, 120
1, 266879, Note_on_c, 9, 40, 0
1, 266880, End_track
2, 0, Start_track
2, 0, Key_signature, 0, "major"
2, 0, Control_c, 9, 121, 0
2, 0, Program_c, 9, 0
2, 0, Control_c, 9, 7, 100
2, 0, Control_c, 9, 10, 64
2, 0, Control_c, 9, 91, 0
2, 0, Control_c, 9, 93, 0
2, 0, MIDI_port, 0
2, 8520, Note_on_c, 9, 40, 55
2, 8579, Note_on_c, 9, 40, 0
2, 8580, Note_on_c, 9, 40, 44
2, 8624, Note_on_c, 9, 40, 0
2, 8625, Note_on_c, 9, 40, 38
2, 8639, Note_on_c, 9, 40, 0
2, 8670, Note_on_c, 9, 40, 51
2, 8729, Note_on_c, 9, 40, 0
2, 8745, Note_on_c, 9, 40, 91
2, 8759, Note_on_c, 9, 40, 0
2, 8880, Note_on_c, 9, 40, 109
2, 9119, Note_on_c, 9, 40, 0
2, 9120, Note_on_c, 9, 40, 82
2, 9239, Note_on_c, 9, 40, 0
2, 9240, Note_on_c, 9, 40, 109
2, 9479, Note_on_c, 9, 40, 0
2, 9480, Note_on_c, 9, 40, 105
2, 9599, Note_on_c, 9, 40, 0
2, 9600, Note_on_c, 9, 40, 73
2, 9719, Note_on_c, 9, 40, 0
2, 9720, Note_on_c, 9, 51, 88
2, 9720, Note_on_c, 9, 35, 100
2, 9959, Note_on_c, 9, 51, 0
2, 9960, Note_on_c, 9, 42, 96
2, 10079, Note_on_c, 9, 35, 0
2, 10079, Note_on_c, 9, 42, 0
2, 10110, Note_on_c, 9, 42, 73
2, 10199, Note_on_c, 9, 42, 0
2, 10200, Note_on_c, 9, 37, 109
2, 10319, Note_on_c, 9, 37, 0
2, 10365, Note_on_c, 9, 42, 109
2, 10559, Note_on_c, 9, 42, 0
2, 10800, Note_on_c, 9, 42, 96
2, 10959, Note_on_c, 9, 42, 0
2, 10960, Note_on_c, 9, 42, 76
2, 11039, Note_on_c, 9, 42, 0
2, 11040, Note_on_c, 9, 37, 109
2, 11279, Note_on_c, 9, 37, 0
2, 11280, Note_on_c, 9, 42, 96
2, 11439, Note_on_c, 9, 42, 0
2, 11440, Note_on_c, 9, 42, 76
2, 11519, Note_on_c, 9, 42, 0
2, 11520, Note_on_c, 9, 35, 100
2, 11760, Note_on_c, 9, 42, 96
2, 11919, Note_on_c, 9, 42, 0
2, 11920, Note_on_c, 9, 42, 76
2, 11999, Note_on_c, 9, 35, 0
2, 11999, Note_on_c, 9, 42, 0
2, 12000, Note_on_c, 9, 37, 109
2, 12239, Note_on_c, 9, 37, 0
2, 12240, Note_on_c, 9, 42, 102
2, 12479, Note_on_c, 9, 42, 0
2, 12600, Note_on_c, 9, 37, 100
2, 12719, Note_on_c, 9, 37, 0
2, 12720, Note_on_c, 9, 42, 108
2, 12959, Note_on_c, 9, 42, 0
2, 12960, Note_on_c, 9, 37, 118
2, 13199, Note_on_c, 9, 37, 0
2, 13200, Note_on_c, 9, 42, 90
2, 13379, Note_on_c, 9, 42, 0
2, 13380, Note_on_c, 9, 42, 76
2, 13439, Note_on_c, 9, 42, 0
2, 13440, Note_on_c, 9, 35, 100
2, 13680, Note_on_c, 9, 69, 118
2, 13680, Note_on_c, 9, 42, 96
2, 13839, Note_on_c, 9, 69, 0
2, 13839, Note_on_c, 9, 42, 0
2, 13840, Note_on_c, 9, 42, 73
2, 13919, Note_on_c, 9, 35, 0
2, 13919, Note_on_c, 9, 42, 0
2, 13920, Note_on_c, 9, 37, 109
2, 14159, Note_on_c, 9, 37, 0
2, 14160, Note_on_c, 9, 42, 109
2, 14399, Note_on_c, 9, 42, 0
2, 14640, Note_on_c, 9, 42, 96
2, 14799, Note_on_c, 9, 42, 0
2, 14800, Note_on_c, 9, 42, 76
2, 14879, Note_on_c, 9, 42, 0
2, 14880, Note_on_c, 9, 37, 109
2, 15119, Note_on_c, 9, 37, 0
2, 15120, Note_on_c, 9, 42, 96
2, 15120, Note_on_c, 9, 35, 100
2, 15279, Note_on_c, 9, 42, 0
2, 15280, Note_on_c, 9, 42, 76
2, 15359, Note_on_c, 9, 35, 0
2, 15359, Note_on_c, 9, 42, 0
2, 15600, Note_on_c, 9, 42, 96
2, 15759, Note_on_c, 9, 42, 0
2, 15760, Note_on_c, 9, 42, 76
2, 15839, Note_on_c, 9, 42, 0
2, 15840, Note_on_c, 9, 37, 109
2, 16079, Note_on_c, 9, 37, 0
2, 16080, Note_on_c, 9, 42, 102
2, 16319, Note_on_c, 9, 42, 0
2, 16560, Note_on_c, 9, 42, 108
2, 16739, Note_on_c, 9, 42, 0
2, 16740, Note_on_c, 9, 42, 76
2, 16799, Note_on_c, 9, 42, 0
2, 16800, Note_on_c, 9, 37, 118
2, 17039, Note_on_c, 9, 37, 0
2, 17080, Note_on_c, 9, 37, 116
2, 17080, Note_on_c, 9, 42, 90
2, 17199, Note_on_c, 9, 37, 0
2, 17199, Note_on_c, 9, 42, 0
2, 17200, Note_on_c, 9, 37, 105
2, 17279, Note_on_c, 9, 37, 0
2, 17280, Note_on_c, 9, 35, 100
2, 17535, Note_on_c, 9, 42, 96
2, 17699, Note_on_c, 9, 42, 0
2, 17700, Note_on_c, 9, 42, 73
2, 17759, Note_on_c, 9, 35, 0
2, 17759, Note_on_c, 9, 42, 0
2, 17760, Note_on_c, 9, 37, 109
2, 17999, Note_on_c, 9, 37, 0
2, 18000, Note_on_c, 9, 42, 109
2, 18239, Note_on_c, 9, 42, 0
2, 18480, Note_on_c, 9, 69, 118
2, 18480, Note_on_c, 9, 42, 96
2, 18639, Note_on_c, 9, 69, 0
2, 18639, Note_on_c, 9, 42, 0
2, 18640, Note_on_c, 9, 42, 76
2, 18719, Note_on_c, 9, 42, 0
2, 18720, Note_on_c, 9, 37, 109
2, 18959, Note_on_c, 9, 37, 0
2, 18960, Note_on_c, 9, 42, 96
2, 19119, Note_on_c, 9, 42, 0
2, 19120, Note_on_c, 9, 42, 76
2, 19199, Note_on_c, 9, 42, 0
2, 19200, Note_on_c, 9, 35, 100
2, 19440, Note_on_c, 9, 42, 96
2, 19599, Note_on_c, 9, 42, 0
2, 19600, Note_on_c, 9, 42, 76
2, 19679, Note_on_c, 9, 35, 0
2, 19679, Note_on_c, 9, 42, 0
2, 19680, Note_on_c, 9, 37, 109
2, 19919, Note_on_c, 9, 37, 0
2, 19920, Note_on_c, 9, 42, 102
2, 20159, Note_on_c, 9, 42, 0
2, 20400, Note_on_c, 9, 42, 108
2, 20579, Note_on_c, 9, 42, 0
2, 20580, Note_on_c, 9, 42, 76
2, 20639, Note_on_c, 9, 42, 0
2, 20640, Note_on_c, 9, 37, 118
2, 20879, Note_on_c, 9, 37, 0
2, 20880, Note_on_c, 9, 42, 90
2, 21059, Note_on_c, 9, 42, 0
2, 21060, Note_on_c, 9, 42, 76
2, 21119, Note_on_c, 9, 42, 0
2, 21120, Note_on_c, 9, 35, 100
2, 21375, Note_on_c, 9, 42, 96
2, 21539, Note_on_c, 9, 42, 0
2, 21540, Note_on_c, 9, 42, 73
2, 21599, Note_on_c, 9, 35, 0
2, 21599, Note_on_c, 9, 42, 0
2, 21600, Note_on_c, 9, 37, 109
2, 21839, Note_on_c, 9, 37, 0
2, 21840, Note_on_c, 9, 42, 109
2, 22079, Note_on_c, 9, 42, 0
2, 22320, Note_on_c, 9, 69, 118
2, 22320, Note_on_c, 9, 42, 96
2, 22479, Note_on_c, 9, 69, 0
2, 22479, Note_on_c, 9, 42, 0
2, 22480, Note_on_c, 9, 42, 76
2, 22559, Note_on_c, 9, 42, 0
2, 22560, Note_on_c, 9, 37, 109
2, 22799, Note_on_c, 9, 37, 0
2, 22800, Note_on_c, 9, 42, 96
2, 22800, Note_on_c, 9, 35, 100
2, 22959, Note_on_c, 9, 42, 0
2, 22960, Note_on_c, 9, 42, 76
2, 23039, Note_on_c, 9, 35, 0
2, 23039, Note_on_c, 9, 42, 0
2, 23280, Note_on_c, 9, 42, 96
2, 23439, Note_on_c, 9, 42, 0
2, 23440, Note_on_c, 9, 42, 76
2, 23519, Note_on_c, 9, 42, 0
2, 23520, Note_on_c, 9, 37, 109
2, 23759, Note_on_c, 9, 37, 0
2, 23760, Note_on_c, 9, 42, 102
2, 23999, Note_on_c, 9, 42, 0
2, 24000, Note_on_c, 9, 40, 91
2, 24119, Note_on_c, 9, 40, 0
2, 24120, Note_on_c, 9, 40, 109
2, 24359, Note_on_c, 9, 40, 0
2, 24360, Note_on_c, 9, 40, 82
2, 24479, Note_on_c, 9, 40, 0
2, 24480, Note_on_c, 9, 65, 100
2, 24480, Note_on_c, 9, 49, 100
2, 24599, Note_on_c, 9, 65, 0
2, 24599, Note_on_c, 9, 49, 0
2, 24600, Note_on_c, 9, 40, 91
2, 24719, Note_on_c, 9, 40, 0
2, 24720, Note_on_c, 9, 40, 105
2, 24839, Note_on_c, 9, 40, 0
2, 24840, Note_on_c, 9, 40, 90
2, 24959, Note_on_c, 9, 40, 0
2, 24960, Note_on_c, 9, 42, 99
2, 24960, Note_on_c, 9, 35, 100
2, 25199, Note_on_c, 9, 42, 0
2, 25200, Note_on_c, 9, 42, 96
2, 25359, Note_on_c, 9, 42, 0
2, 25360, Note_on_c, 9, 42, 73
2, 25439, Note_on_c, 9, 35, 0
2, 25439, Note_on_c, 9, 42, 0
2, 25440, Note_on_c, 9, 37, 109
2, 25679, Note_on_c, 9, 37, 0
2, 25680, Note_on_c, 9, 42, 109
2, 25919, Note_on_c, 9, 42, 0
2, 26160, Note_on_c, 9, 42, 96
2, 26319, Note_on_c, 9, 42, 0
2, 26320, Note_on_c, 9, 42, 76
2, 26399, Note_on_c, 9, 42, 0
2, 26400, Note_on_c, 9, 37, 109
2, 26639, Note_on_c, 9, 37, 0
2, 26640, Note_on_c, 9, 42, 96
2, 26799, Note_on_c, 9, 42, 0
2, 26800, Note_on_c, 9, 42, 76
2, 26879, Note_on_c, 9, 42, 0
2, 26880, Note_on_c, 9, 35, 100
2, 27120, Note_on_c, 9, 42, 96
2, 27279, Note_on_c, 9, 42, 0
2, 27280, Note_on_c, 9, 42, 76
2, 27359, Note_on_c, 9, 35, 0
2, 27359, Note_on_c, 9, 42, 0
2, 27360, Note_on_c, 9, 37, 109
2, 27479, Note_on_c, 9, 37, 0
2, 27480, Note_on_c, 9, 69, 66
2, 27599, Note_on_c, 9, 69, 0
2, 27600, Note_on_c, 9, 82, 70
2, 27600, Note_on_c, 9, 42, 102
2, 27839, Note_on_c, 9, 82, 0
2, 27839, Note_on_c, 9, 42, 0
2, 28080, Note_on_c, 9, 42, 108
2, 28239, Note_on_c, 9, 42, 0
2, 28240, Note_on_c, 9, 42, 76
2, 28319, Note_on_c, 9, 42, 0
2, 28320, Note_on_c, 9, 37, 118
2, 28559, Note_on_c, 9, 37, 0
2, 28560, Note_on_c, 9, 42, 90
2, 28719, Note_on_c, 9, 42, 0
2, 28720, Note_on_c, 9, 42, 76
2, 28799, Note_on_c, 9, 42, 0
2, 28800, Note_on_c, 9, 35, 100
2, 29040, Note_on_c, 9, 42, 96
2, 29199, Note_on_c, 9, 42, 0
2, 29200, Note_on_c, 9, 42, 73
2, 29279, Note_on_c, 9, 35, 0
2, 29279, Note_on_c, 9, 42, 0
2, 29280, Note_on_c, 9, 37, 109
2, 29519, Note_on_c, 9, 37, 0
2, 29520, Note_on_c, 9, 42, 109
2, 29759, Note_on_c, 9, 42, 0
2, 30000, Note_on_c, 9, 42, 96
2, 30159, Note_on_c, 9, 42, 0
2, 30160, Note_on_c, 9, 42, 76
2, 30239, Note_on_c, 9, 42, 0
2, 30240, Note_on_c, 9, 37, 109
2, 30479, Note_on_c, 9, 37, 0
2, 30480, Note_on_c, 9, 42, 96
2, 30639, Note_on_c, 9, 42, 0
2, 30640, Note_on_c, 9, 42, 76
2, 30719, Note_on_c, 9, 42, 0
2, 30720, Note_on_c, 9, 35, 100
2, 30960, Note_on_c, 9, 42, 96
2, 31119, Note_on_c, 9, 42, 0
2, 31120, Note_on_c, 9, 42, 76
2, 31199, Note_on_c, 9, 35, 0
2, 31199, Note_on_c, 9, 42, 0
2, 31200, Note_on_c, 9, 37, 109
2, 31200, Note_on_c, 9, 35, 100
2, 31439, Note_on_c, 9, 37, 0
2, 31440, Note_on_c, 9, 42, 102
2, 31679, Note_on_c, 9, 35, 0
2, 31679, Note_on_c, 9, 42, 0
2, 31800, Note_on_c, 9, 37, 100
2, 31919, Note_on_c, 9, 37, 0
2, 31920, Note_on_c, 9, 42, 108
2, 32159, Note_on_c, 9, 42, 0
2, 32160, Note_on_c, 9, 37, 118
2, 32399, Note_on_c, 9, 37, 0
2, 32400, Note_on_c, 9, 42, 90
2, 32559, Note_on_c, 9, 42, 0
2, 32560, Note_on_c, 9, 42, 76
2, 32639, Note_on_c, 9, 42, 0
2, 32640, Note_on_c, 9, 35, 100
2, 32880, Note_on_c, 9, 42, 96
2, 33039, Note_on_c, 9, 42, 0
2, 33040, Note_on_c, 9, 42, 73
2, 33119, Note_on_c, 9, 35, 0
2, 33119, Note_on_c, 9, 42, 0
2, 33120, Note_on_c, 9, 37, 109
2, 33359, Note_on_c, 9, 37, 0
2, 33360, Note_on_c, 9, 42, 109
2, 33599, Note_on_c, 9, 42, 0
2, 33600, Note_on_c, 9, 35, 100
2, 33840, Note_on_c, 9, 42, 96
2, 33999, Note_on_c, 9, 42, 0
2, 34000, Note_on_c, 9, 42, 76
2, 34079, Note_on_c, 9, 35, 0
2, 34079, Note_on_c, 9, 42, 0
2, 34080, Note_on_c, 9, 37, 109
2, 34319, Note_on_c, 9, 37, 0
2, 34320, Note_on_c, 9, 42, 96
2, 34479, Note_on_c, 9, 42, 0
2, 34480, Note_on_c, 9, 42, 76
2, 34559, Note_on_c, 9, 42, 0
2, 34560, Note_on_c, 9, 35, 100
2, 34800, Note_on_c, 9, 42, 96
2, 34959, Note_on_c, 9, 42, 0
2, 34960, Note_on_c, 9, 42, 76
2, 35039, Note_on_c, 9, 35, 0
2, 35039, Note_on_c, 9, 42, 0
2, 35040, Note_on_c, 9, 37, 109
2, 35279, Note_on_c, 9, 37, 0
2, 35280, Note_on_c, 9, 42, 102
2, 35519, Note_on_c, 9, 42, 0
2, 35760, Note_on_c, 9, 42, 108
2, 35919, Note_on_c, 9, 42, 0
2, 35920, Note_on_c, 9, 42, 76
2, 35999, Note_on_c, 9, 42, 0
2, 36000, Note_on_c, 9, 37, 118
2, 36239, Note_on_c, 9, 37, 0
2, 36240, Note_on_c, 9, 42, 90
2, 36399, Note_on_c, 9, 42, 0
2, 36400, Note_on_c, 9, 42, 76
2, 36479, Note_on_c, 9, 42, 0
2, 36480, Note_on_c, 9, 35, 100
2, 36720, Note_on_c, 9, 42, 96
2, 36879, Note_on_c, 9, 42, 0
2, 36880, Note_on_c, 9, 42, 73
2, 36959, Note_on_c, 9, 35, 0
2, 36959, Note_on_c, 9, 42, 0
2, 36960, Note_on_c, 9, 37, 109
2, 37199, Note_on_c, 9, 37, 0
2, 37200, Note_on_c, 9, 42, 109
2, 37439, Note_on_c, 9, 42, 0
2, 37680, Note_on_c, 9, 42, 96
2, 37839, Note_on_c, 9, 42, 0
2, 37840, Note_on_c, 9, 42, 76
2, 37919, Note_on_c, 9, 42, 0
2, 37920, Note_on_c, 9, 37, 109
2, 38159, Note_on_c, 9, 37, 0
2, 38160, Note_on_c, 9, 42, 96
2, 38160, Note_on_c, 9, 35, 100
2, 38319, Note_on_c, 9, 42, 0
2, 38320, Note_on_c, 9, 42, 76
2, 38399, Note_on_c, 9, 35, 0
2, 38399, Note_on_c, 9, 42, 0
2, 38640, Note_on_c, 9, 42, 96
2, 38799, Note_on_c, 9, 42, 0
2, 38800, Note_on_c, 9, 42, 76
2, 38879, Note_on_c, 9, 42, 0
2, 38880, Note_on_c, 9, 37, 109
2, 39119, Note_on_c, 9, 37, 0
2, 39120, Note_on_c, 9, 42, 102
2, 39359, Note_on_c, 9, 42, 0
2, 39360, Note_on_c, 9, 38, 100
2, 39599, Note_on_c, 9, 38, 0
2, 39600, Note_on_c, 9, 42, 108
2, 39719, Note_on_c, 9, 42, 0
2, 39720, Note_on_c, 9, 42, 76
2, 39839, Note_on_c, 9, 42, 0
2, 39840, Note_on_c, 9, 37, 118
2, 39840, Note_on_c, 9, 40, 100
2, 39840, Note_on_c, 9, 49, 100
2, 40079, Note_on_c, 9, 37, 0
2, 40079, Note_on_c, 9, 40, 0
2, 40079, Note_on_c, 9, 49, 0
2, 40080, Note_on_c, 9, 42, 90
2, 40239, Note_on_c, 9, 42, 0
2, 40240, Note_on_c, 9, 42, 76
2, 40319, Note_on_c, 9, 42, 0
2, 40320, Note_on_c, 9, 42, 109
2, 40320, Note_on_c, 9, 35, 100
2, 40559, Note_on_c, 9, 42, 0
2, 40560, Note_on_c, 9, 42, 96
2, 40719, Note_on_c, 9, 42, 0
2, 40720, Note_on_c, 9, 42, 73
2, 40799, Note_on_c, 9, 35, 0
2, 40799, Note_on_c, 9, 42, 0
2, 40800, Note_on_c, 9, 37, 109
2, 41039, Note_on_c, 9, 37, 0
2, 41040, Note_on_c, 9, 42, 109
2, 41279, Note_on_c, 9, 42, 0
2, 41280, Note_on_c, 9, 35, 100
2, 41520, Note_on_c, 9, 42, 96
2, 41679, Note_on_c, 9, 42, 0
2, 41680, Note_on_c, 9, 42, 76
2, 41759, Note_on_c, 9, 35, 0
2, 41759, Note_on_c, 9, 42, 0
2, 41760, Note_on_c, 9, 37, 109
2, 41999, Note_on_c, 9, 37, 0
2, 42000, Note_on_c, 9, 42, 96
2, 42000, Note_on_c, 9, 35, 100
2, 42159, Note_on_c, 9, 42, 0
2, 42160, Note_on_c, 9, 42, 76
2, 42239, Note_on_c, 9, 35, 0
2, 42239, Note_on_c, 9, 42, 0
2, 42240, Note_on_c, 9, 35, 100
2, 42480, Note_on_c, 9, 42, 96
2, 42639, Note_on_c, 9, 42, 0
2, 42640, Note_on_c, 9, 42, 76
2, 42719, Note_on_c, 9, 35, 0
2, 42719, Note_on_c, 9, 42, 0
2, 42720, Note_on_c, 9, 37, 109
2, 42959, Note_on_c, 9, 37, 0
2, 42960, Note_on_c, 9, 42, 102
2, 43199, Note_on_c, 9, 42, 0
2, 43320, Note_on_c, 9, 37, 100
2, 43439, Note_on_c, 9, 37, 0
2, 43440, Note_on_c, 9, 42, 108
2, 43679, Note_on_c, 9, 42, 0
2, 43680, Note_on_c, 9, 37, 118
2, 43680, Note_on_c, 9, 42, 76
2, 43919, Note_on_c, 9, 37, 0
2, 43919, Note_on_c, 9, 42, 0
2, 43920, Note_on_c, 9, 42, 90
2, 44079, Note_on_c, 9, 42, 0
2, 44080, Note_on_c, 9, 42, 76
2, 44159, Note_on_c, 9, 42, 0
2, 44160, Note_on_c, 9, 35, 100
2, 44400, Note_on_c, 9, 42, 96
2, 44559, Note_on_c, 9, 42, 0
2, 44560, Note_on_c, 9, 42, 73
2, 44639, Note_on_c, 9, 35, 0
2, 44639, Note_on_c, 9, 42, 0
2, 44640, Note_on_c, 9, 37, 109
2, 44879, Note_on_c, 9, 37, 0
2, 44880, Note_on_c, 9, 42, 109
2, 45119, Note_on_c, 9, 42, 0
2, 45360, Note_on_c, 9, 42, 96
2, 45519, Note_on_c, 9, 42, 0
2, 45520, Note_on_c, 9, 42, 76
2, 45599, Note_on_c, 9, 42, 0
2, 45600, Note_on_c, 9, 37, 109
2, 45600, Note_on_c, 9, 46, 100
2, 45839, Note_on_c, 9, 37, 0
2, 45839, Note_on_c, 9, 46, 0
2, 45840, Note_on_c, 9, 42, 96
2, 45999, Note_on_c, 9, 42, 0
2, 46000, Note_on_c, 9, 42, 76
2, 46079, Note_on_c, 9, 42, 0
2, 46080, Note_on_c, 9, 35, 100
2, 46335, Note_on_c, 9, 42, 96
2, 46499, Note_on_c, 9, 42, 0
2, 46500, Note_on_c, 9, 42, 76
2, 46559, Note_on_c, 9, 35, 0
2, 46559, Note_on_c, 9, 42, 0
2, 46560, Note_on_c, 9, 37, 109
2, 46799, Note_on_c, 9, 37, 0
2, 46800, Note_on_c, 9, 42, 102
2, 47039, Note_on_c, 9, 42, 0
2, 47040, Note_on_c, 9, 37, 109
2, 47040, Note_on_c, 9, 82, 66
2, 47279, Note_on_c, 9, 37, 0
2, 47279, Note_on_c, 9, 82, 0
2, 47280, Note_on_c, 9, 42, 108
2, 47399, Note_on_c, 9, 42, 0
2, 47400, Note_on_c, 9, 37, 100
2, 47519, Note_on_c, 9, 37, 0
2, 47520, Note_on_c, 9, 82, 62
2, 47520, Note_on_c, 9, 42, 104
2, 47520, Note_on_c, 9, 35, 100
2, 47679, Note_on_c, 9, 82, 0
2, 47679, Note_on_c, 9, 42, 0
2, 47680, Note_on_c, 9, 42, 62
2, 47759, Note_on_c, 9, 42, 0
2, 47760, Note_on_c, 9, 37, 118
2, 47760, Note_on_c, 9, 46, 100
2, 47999, Note_on_c, 9, 35, 0
2, 47999, Note_on_c, 9, 37, 0
2, 47999, Note_on_c, 9, 46, 0
2, 48000, Note_on_c, 9, 42, 109
2, 48000, Note_on_c, 9, 35, 100
2, 48239, Note_on_c, 9, 42, 0
2, 48240, Note_on_c, 9, 42, 96
2, 48399, Note_on_c, 9, 42, 0
2, 48400, Note_on_c, 9, 42, 73
2, 48479, Note_on_c, 9, 35, 0
2, 48479, Note_on_c, 9, 42, 0
2, 48480, Note_on_c, 9, 37, 109
2, 48719, Note_on_c, 9, 37, 0
2, 48720, Note_on_c, 9, 42, 109
2, 48959, Note_on_c, 9, 42, 0
2, 49230, Note_on_c, 9, 42, 96
2, 49319, Note_on_c, 9, 42, 0
2, 49380, Note_on_c, 9, 42, 76
2, 49439, Note_on_c, 9, 42, 0
2, 49440, Note_on_c, 9, 37, 109
2, 49679, Note_on_c, 9, 37, 0
2, 49720, Note_on_c, 9, 42, 96
2, 49839, Note_on_c, 9, 42, 0
2, 49840, Note_on_c, 9, 42, 76
2, 49919, Note_on_c, 9, 42, 0
2, 49920, Note_on_c, 9, 35, 100
2, 50200, Note_on_c, 9, 42, 96
2, 50319, Note_on_c, 9, 42, 0
2, 50320, Note_on_c, 9, 42, 76
2, 50399, Note_on_c, 9, 35, 0
2, 50399, Note_on_c, 9, 42, 0
2, 50400, Note_on_c, 9, 37, 109
2, 50639, Note_on_c, 9, 37, 0
2, 50640, Note_on_c, 9, 42, 102
2, 50879, Note_on_c, 9, 42, 0
2, 51160, Note_on_c, 9, 42, 108
2, 51279, Note_on_c, 9, 42, 0
2, 51280, Note_on_c, 9, 42, 62
2, 51359, Note_on_c, 9, 42, 0
2, 51360, Note_on_c, 9, 37, 118
2, 51599, Note_on_c, 9, 37, 0
2, 51640, Note_on_c, 9, 42, 90
2, 51759, Note_on_c, 9, 42, 0
2, 51760, Note_on_c, 9, 42, 62
2, 51839, Note_on_c, 9, 42, 0
2, 51840, Note_on_c, 9, 42, 67
2, 51840, Note_on_c, 9, 35, 100
2, 52079, Note_on_c, 9, 42, 0
2, 52095, Note_on_c, 9, 42, 96
2, 52259, Note_on_c, 9, 42, 0
2, 52260, Note_on_c, 9, 42, 73
2, 52319, Note_on_c, 9, 35, 0
2, 52319, Note_on_c, 9, 42, 0
2, 52320, Note_on_c, 9, 37, 109
2, 52559, Note_on_c, 9, 37, 0
2, 52560, Note_on_c, 9, 42, 109
2, 52799, Note_on_c, 9, 42, 0
2, 53070, Note_on_c, 9, 42, 96
2, 53159, Note_on_c, 9, 42, 0
2, 53280, Note_on_c, 9, 42, 76
2, 53339, Note_on_c, 9, 42, 0
2, 53340, Note_on_c, 9, 37, 109
2, 53519, Note_on_c, 9, 37, 0
2, 53520, Note_on_c, 9, 42, 96
2, 53520, Note_on_c, 9, 35, 100
2, 53699, Note_on_c, 9, 42, 0
2, 53700, Note_on_c, 9, 42, 76
2, 53759, Note_on_c, 9, 35, 0
2, 53759, Note_on_c, 9, 42, 0
2, 54000, Note_on_c, 9, 40, 82
2, 54119, Note_on_c, 9, 40, 0
2, 54120, Note_on_c, 9, 40, 100
2, 54239, Note_on_c, 9, 40, 0
2, 54420, Note_on_c, 9, 40, 82
2, 54479, Note_on_c, 9, 40, 0
2, 54480, Note_on_c, 9, 40, 118
2, 54719, Note_on_c, 9, 40, 0
2, 54735, Note_on_c, 9, 40, 81
2, 54749, Note_on_c, 9, 40, 0
2, 54750, Note_on_c, 9, 40, 127
2, 54750, Note_on_c, 9, 82, 91
2, 54809, Note_on_c, 9, 82, 0
2, 55199, Note_on_c, 9, 40, 0
2, 55200, Note_on_c, 9, 47, 66
2, 55200, Note_on_c, 9, 44, 100
2, 55679, Note_on_c, 9, 47, 0
2, 55679, Note_on_c, 9, 44, 0
2, 55680, Note_on_c, 9, 49, 91
2, 55680, Note_on_c, 9, 35, 100
2, 55799, Note_on_c, 9, 49, 0
2, 55800, Note_on_c, 9, 69, 42
2, 55919, Note_on_c, 9, 69, 0
2, 55920, Note_on_c, 9, 56, 76
2, 55920, Note_on_c, 9, 70, 38
2, 55920, Note_on_c, 9, 42, 96
2, 56039, Note_on_c, 9, 56, 0
2, 56039, Note_on_c, 9, 70, 0
2, 56039, Note_on_c, 9, 42, 0
2, 56040, Note_on_c, 9, 56, 67
2, 56040, Note_on_c, 9, 69, 42
2, 56159, Note_on_c, 9, 35, 0
2, 56159, Note_on_c, 9, 56, 0
2, 56159, Note_on_c, 9, 69, 0
2, 56160, Note_on_c, 9, 37, 109
2, 56160, Note_on_c, 9, 70, 38
2, 56279, Note_on_c, 9, 37, 0
2, 56279, Note_on_c, 9, 70, 0
2, 56280, Note_on_c, 9, 69, 38
2, 56399, Note_on_c, 9, 69, 0
2, 56400, Note_on_c, 9, 56, 68
2, 56400, Note_on_c, 9, 70, 34
2, 56400, Note_on_c, 9, 42, 109
2, 56519, Note_on_c, 9, 56, 0
2, 56519, Note_on_c, 9, 70, 0
2, 56519, Note_on_c, 9, 42, 0
2, 56520, Note_on_c, 9, 56, 68
2, 56520, Note_on_c, 9, 69, 42
2, 56639, Note_on_c, 9, 56, 0
2, 56639, Note_on_c, 9, 69, 0
2, 56640, Note_on_c, 9, 70, 30
2, 56640, Note_on_c, 9, 35, 100
2, 56759, Note_on_c, 9, 70, 0
2, 56760, Note_on_c, 9, 69, 42
2, 56879, Note_on_c, 9, 69, 0
2, 56895, Note_on_c, 9, 56, 71
2, 56895, Note_on_c, 9, 70, 38
2, 56895, Note_on_c, 9, 42, 96
2, 56939, Note_on_c, 9, 42, 0
2, 56954, Note_on_c, 9, 56, 0
2, 56954, Note_on_c, 9, 70, 0
2, 57000, Note_on_c, 9, 56, 71
2, 57000, Note_on_c, 9, 69, 38
2, 57000, Note_on_c, 9, 42, 76
2, 57119, Note_on_c, 9, 35, 0
2, 57119, Note_on_c, 9, 56, 0
2, 57119, Note_on_c, 9, 69, 0
2, 57119, Note_on_c, 9, 42, 0
2, 57120, Note_on_c, 9, 37, 109
2, 57120, Note_on_c, 9, 70, 34
2, 57239, Note_on_c, 9, 37, 0
2, 57239, Note_on_c, 9, 70, 0
2, 57240, Note_on_c, 9, 69, 38
2, 57359, Note_on_c, 9, 69, 0
2, 57360, Note_on_c, 9, 56, 77
2, 57360, Note_on_c, 9, 70, 34
2, 57360, Note_on_c, 9, 42, 96
2, 57479, Note_on_c, 9, 56, 0
2, 57479, Note_on_c, 9, 70, 0
2, 57479, Note_on_c, 9, 42, 0
2, 57480, Note_on_c, 9, 56, 77
2, 57480, Note_on_c, 9, 69, 42
2, 57539, Note_on_c, 9, 56, 0
2, 57539, Note_on_c, 9, 69, 0
2, 57540, Note_on_c, 9, 42, 76
2, 57599, Note_on_c, 9, 42, 0
2, 57600, Note_on_c, 9, 70, 34
2, 57600, Note_on_c, 9, 35, 100
2, 57719, Note_on_c, 9, 70, 0
2, 57720, Note_on_c, 9, 69, 42
2, 57839, Note_on_c, 9, 69, 0
2, 57855, Note_on_c, 9, 56, 76
2, 57855, Note_on_c, 9, 70, 38
2, 57855, Note_on_c, 9, 42, 96
2, 57899, Note_on_c, 9, 42, 0
2, 57914, Note_on_c, 9, 56, 0
2, 57914, Note_on_c, 9, 70, 0
2, 57960, Note_on_c, 9, 56, 67
2, 57960, Note_on_c, 9, 69, 42
2, 57960, Note_on_c, 9, 42, 76
2, 58079, Note_on_c, 9, 35, 0
2, 58079, Note_on_c, 9, 56, 0
2, 58079, Note_on_c, 9, 69, 0
2, 58079, Note_on_c, 9, 42, 0
2, 58080, Note_on_c, 9, 37, 109
2, 58080, Note_on_c, 9, 70, 38
2, 58199, Note_on_c, 9, 37, 0
2, 58199, Note_on_c, 9, 70, 0
2, 58200, Note_on_c, 9, 69, 38
2, 58319, Note_on_c, 9, 69, 0
2, 58320, Note_on_c, 9, 56, 68
2, 58320, Note_on_c, 9, 70, 34
2, 58320, Note_on_c, 9, 42, 102
2, 58439, Note_on_c, 9, 56, 0
2, 58439, Note_on_c, 9, 70, 0
2, 58439, Note_on_c, 9, 42, 0
2, 58470, Note_on_c, 9, 56, 68
2, 58470, Note_on_c, 9, 65, 45
2, 58470, Note_on_c, 9, 69, 42
2, 58499, Note_on_c, 9, 65, 0
2, 58515, Note_on_c, 9, 65, 48
2, 58529, Note_on_c, 9, 56, 0
2, 58529, Note_on_c, 9, 69, 0
2, 58559, Note_on_c, 9, 65, 0
2, 58560, Note_on_c, 9, 65, 57
2, 58560, Note_on_c, 9, 35, 100
2, 58599, Note_on_c, 9, 65, 0
2, 58600, Note_on_c, 9, 65, 96
2, 58600, Note_on_c, 9, 70, 30
2, 58679, Note_on_c, 9, 70, 0
2, 58719, Note_on_c, 9, 65, 0
2, 58720, Note_on_c, 9, 65, 81
2, 58720, Note_on_c, 9, 69, 42
2, 58799, Note_on_c, 9, 65, 0
2, 58799, Note_on_c, 9, 69, 0
2, 58800, Note_on_c, 9, 56, 77
2, 58800, Note_on_c, 9, 70, 38
2, 58800, Note_on_c, 9, 42, 108
2, 58919, Note_on_c, 9, 56, 0
2, 58919, Note_on_c, 9, 70, 0
2, 58919, Note_on_c, 9, 42, 0
2, 58920, Note_on_c, 9, 56, 77
2, 58920, Note_on_c, 9, 65, 65
2, 58920, Note_on_c, 9, 69, 38
2, 58920, Note_on_c, 9, 42, 62
2, 59039, Note_on_c, 9, 35, 0
2, 59039, Note_on_c, 9, 56, 0
2, 59039, Note_on_c, 9, 65, 0
2, 59039, Note_on_c, 9, 69, 0
2, 59039, Note_on_c, 9, 42, 0
2, 59055, Note_on_c, 9, 37, 118
2, 59055, Note_on_c, 9, 65, 100
2, 59055, Note_on_c, 9, 70, 34
2, 59099, Note_on_c, 9, 65, 0
2, 59114, Note_on_c, 9, 37, 0
2, 59114, Note_on_c, 9, 70, 0
2, 59160, Note_on_c, 9, 69, 38
2, 59279, Note_on_c, 9, 69, 0
2, 59280, Note_on_c, 9, 56, 77
2, 59280, Note_on_c, 9, 70, 34
2, 59280, Note_on_c, 9, 42, 90
2, 59399, Note_on_c, 9, 56, 0
2, 59399, Note_on_c, 9, 70, 0
2, 59399, Note_on_c, 9, 42, 0
2, 59400, Note_on_c, 9, 56, 77
2, 59400, Note_on_c, 9, 69, 42
2, 59459, Note_on_c, 9, 56, 0
2, 59459, Note_on_c, 9, 69, 0
2, 59460, Note_on_c, 9, 42, 62
2, 59519, Note_on_c, 9, 42, 0
2, 59520, Note_on_c, 9, 70, 34
2, 59520, Note_on_c, 9, 35, 100
2, 59639, Note_on_c, 9, 70, 0
2, 59640, Note_on_c, 9, 69, 42
2, 59759, Note_on_c, 9, 69, 0
2, 59760, Note_on_c, 9, 56, 76
2, 59760, Note_on_c, 9, 70, 38
2, 59760, Note_on_c, 9, 42, 96
2, 59879, Note_on_c, 9, 56, 0
2, 59879, Note_on_c, 9, 70, 0
2, 59879, Note_on_c, 9, 42, 0
2, 59880, Note_on_c, 9, 56, 67
2, 59880, Note_on_c, 9, 69, 42
2, 59880, Note_on_c, 9, 42, 76
2, 59999, Note_on_c, 9, 35, 0
2, 59999, Note_on_c, 9, 56, 0
2, 59999, Note_on_c, 9, 69, 0
2, 59999, Note_on_c, 9, 42, 0
2, 60000, Note_on_c, 9, 37, 109
2, 60000, Note_on_c, 9, 70, 38
2, 60119, Note_on_c, 9, 37, 0
2, 60119, Note_on_c, 9, 70, 0
2, 60120, Note_on_c, 9, 69, 38
2, 60239, Note_on_c, 9, 69, 0
2, 60240, Note_on_c, 9, 56, 68
2, 60240, Note_on_c, 9, 70, 34
2, 60240, Note_on_c, 9, 42, 109
2, 60359, Note_on_c, 9, 56, 0
2, 60359, Note_on_c, 9, 70, 0
2, 60359, Note_on_c, 9, 42, 0
2, 60360, Note_on_c, 9, 56, 68
2, 60360, Note_on_c, 9, 69, 42
2, 60479, Note_on_c, 9, 56, 0
2, 60479, Note_on_c, 9, 69, 0
2, 60480, Note_on_c, 9, 70, 30
2, 60480, Note_on_c, 9, 35, 100
2, 60599, Note_on_c, 9, 70, 0
2, 60600, Note_on_c, 9, 37, 100
2, 60600, Note_on_c, 9, 69, 42
2, 60719, Note_on_c, 9, 37, 0
2, 60719, Note_on_c, 9, 69, 0
2, 60720, Note_on_c, 9, 56, 74
2, 60720, Note_on_c, 9, 70, 38
2, 60720, Note_on_c, 9, 42, 109
2, 60839, Note_on_c, 9, 56, 0
2, 60839, Note_on_c, 9, 70, 0
2, 60839, Note_on_c, 9, 42, 0
2, 60840, Note_on_c, 9, 56, 74
2, 60840, Note_on_c, 9, 69, 38
2, 60959, Note_on_c, 9, 35, 0
2, 60959, Note_on_c, 9, 56, 0
2, 60959, Note_on_c, 9, 69, 0
2, 60960, Note_on_c, 9, 37, 118
2, 60960, Note_on_c, 9, 70, 34
2, 61079, Note_on_c, 9, 37, 0
2, 61079, Note_on_c, 9, 70, 0
2, 61080, Note_on_c, 9, 69, 38
2, 61199, Note_on_c, 9, 69, 0
2, 61200, Note_on_c, 9, 56, 77
2, 61200, Note_on_c, 9, 70, 34
2, 61200, Note_on_c, 9, 42, 96
2, 61200, Note_on_c, 9, 35, 100
2, 61319, Note_on_c, 9, 56, 0
2, 61319, Note_on_c, 9, 70, 0
2, 61319, Note_on_c, 9, 42, 0
2, 61320, Note_on_c, 9, 56, 77
2, 61320, Note_on_c, 9, 69, 42
2, 61379, Note_on_c, 9, 56, 0
2, 61379, Note_on_c, 9, 69, 0
2, 61380, Note_on_c, 9, 42, 76
2, 61439, Note_on_c, 9, 35, 0
2, 61439, Note_on_c, 9, 42, 0
2, 61440, Note_on_c, 9, 70, 34
2, 61559, Note_on_c, 9, 70, 0
2, 61560, Note_on_c, 9, 69, 42
2, 61679, Note_on_c, 9, 69, 0
2, 61680, Note_on_c, 9, 56, 76
2, 61680, Note_on_c, 9, 70, 38
2, 61680, Note_on_c, 9, 42, 96
2, 61799, Note_on_c, 9, 56, 0
2, 61799, Note_on_c, 9, 70, 0
2, 61799, Note_on_c, 9, 42, 0
2, 61800, Note_on_c, 9, 56, 67
2, 61800, Note_on_c, 9, 69, 42
2, 61800, Note_on_c, 9, 42, 76
2, 61919, Note_on_c, 9, 56, 0
2, 61919, Note_on_c, 9, 69, 0
2, 61919, Note_on_c, 9, 42, 0
2, 61920, Note_on_c, 9, 37, 109
2, 61920, Note_on_c, 9, 70, 38
2, 62039, Note_on_c, 9, 37, 0
2, 62039, Note_on_c, 9, 70, 0
2, 62040, Note_on_c, 9, 69, 38
2, 62159, Note_on_c, 9, 69, 0
2, 62160, Note_on_c, 9, 56, 68
2, 62160, Note_on_c, 9, 66, 91
2, 62160, Note_on_c, 9, 70, 34
2, 62160, Note_on_c, 9, 42, 102
2, 62279, Note_on_c, 9, 56, 0
2, 62279, Note_on_c, 9, 66, 0
2, 62279, Note_on_c, 9, 70, 0
2, 62279, Note_on_c, 9, 42, 0
2, 62295, Note_on_c, 9, 56, 68
2, 62295, Note_on_c, 9, 66, 83
2, 62295, Note_on_c, 9, 69, 42
2, 62339, Note_on_c, 9, 66, 0
2, 62354, Note_on_c, 9, 56, 0
2, 62354, Note_on_c, 9, 69, 0
2, 62400, Note_on_c, 9, 70, 30
2, 62400, Note_on_c, 9, 35, 100
2, 62519, Note_on_c, 9, 70, 0
2, 62520, Note_on_c, 9, 69, 42
2, 62639, Note_on_c, 9, 69, 0
2, 62640, Note_on_c, 9, 56, 77
2, 62640, Note_on_c, 9, 66, 91
2, 62640, Note_on_c, 9, 70, 38
2, 62640, Note_on_c, 9, 42, 108
2, 62759, Note_on_c, 9, 56, 0
2, 62759, Note_on_c, 9, 66, 0
2, 62759, Note_on_c, 9, 70, 0
2, 62759, Note_on_c, 9, 42, 0
2, 62760, Note_on_c, 9, 66, 91
2, 62779, Note_on_c, 9, 66, 0
2, 62780, Note_on_c, 9, 56, 77
2, 62780, Note_on_c, 9, 69, 38
2, 62780, Note_on_c, 9, 42, 62
2, 62819, Note_on_c, 9, 56, 0
2, 62819, Note_on_c, 9, 69, 0
2, 62819, Note_on_c, 9, 42, 0
2, 62879, Note_on_c, 9, 35, 0
2, 62880, Note_on_c, 9, 37, 109
2, 62880, Note_on_c, 9, 70, 34
2, 62999, Note_on_c, 9, 37, 0
2, 62999, Note_on_c, 9, 70, 0
2, 63000, Note_on_c, 9, 69, 38
2, 63119, Note_on_c, 9, 69, 0
2, 63120, Note_on_c, 9, 46, 100
2, 63120, Note_on_c, 9, 56, 77
2, 63120, Note_on_c, 9, 66, 91
2, 63120, Note_on_c, 9, 70, 34
2, 63239, Note_on_c, 9, 46, 0
2, 63239, Note_on_c, 9, 56, 0
2, 63239, Note_on_c, 9, 66, 0
2, 63239, Note_on_c, 9, 70, 0
2, 63240, Note_on_c, 9, 56, 77
2, 63240, Note_on_c, 9, 66, 61
2, 63240, Note_on_c, 9, 69, 42
2, 63359, Note_on_c, 9, 56, 0
2, 63359, Note_on_c, 9, 66, 0
2, 63359, Note_on_c, 9, 69, 0
2, 63360, Note_on_c, 9, 70, 34
2, 63360, Note_on_c, 9, 42, 90
2, 63360, Note_on_c, 9, 35, 100
2, 63479, Note_on_c, 9, 70, 0
2, 63479, Note_on_c, 9, 42, 0
2, 63480, Note_on_c, 9, 69, 42
2, 63599, Note_on_c, 9, 69, 0
2, 63600, Note_on_c, 9, 56, 76
2, 63600, Note_on_c, 9, 70, 38
2, 63600, Note_on_c, 9, 42, 96
2, 63719, Note_on_c, 9, 56, 0
2, 63719, Note_on_c, 9, 70, 0
2, 63719, Note_on_c, 9, 42, 0
2, 63720, Note_on_c, 9, 56, 67
2, 63720, Note_on_c, 9, 69, 42
2, 63839, Note_on_c, 9, 35, 0
2, 63839, Note_on_c, 9, 56, 0
2, 63839, Note_on_c, 9, 69, 0
2, 63840, Note_on_c, 9, 37, 109
2, 63840, Note_on_c, 9, 70, 38
2, 63959, Note_on_c, 9, 37, 0
2, 63959, Note_on_c, 9, 70, 0
2, 63960, Note_on_c, 9, 69, 38
2, 64079, Note_on_c, 9, 69, 0
2, 64080, Note_on_c, 9, 56, 68
2, 64080, Note_on_c, 9, 70, 34
2, 64080, Note_on_c, 9, 42, 109
2, 64199, Note_on_c, 9, 56, 0
2, 64199, Note_on_c, 9, 70, 0
2, 64199, Note_on_c, 9, 42, 0
2, 64200, Note_on_c, 9, 56, 68
2, 64200, Note_on_c, 9, 69, 42
2, 64319, Note_on_c, 9, 56, 0
2, 64319, Note_on_c, 9, 69, 0
2, 64320, Note_on_c, 9, 70, 30
2, 64320, Note_on_c, 9, 35, 90
2, 64559, Note_on_c, 9, 70, 0
2, 64560, Note_on_c, 9, 69, 42
2, 64619, Note_on_c, 9, 69, 0
2, 64635, Note_on_c, 9, 56, 71
2, 64635, Note_on_c, 9, 70, 38
2, 64635, Note_on_c, 9, 42, 96
2, 64754, Note_on_c, 9, 56, 0
2, 64754, Note_on_c, 9, 70, 0
2, 64769, Note_on_c, 9, 42, 0
2, 64770, Note_on_c, 9, 56, 71
2, 64770, Note_on_c, 9, 69, 38
2, 64770, Note_on_c, 9, 42, 76
2, 64799, Note_on_c, 9, 35, 0
2, 64889, Note_on_c, 9, 56, 0
2, 64889, Note_on_c, 9, 69, 0
2, 64889, Note_on_c, 9, 42, 0
2, 64920, Note_on_c, 9, 37, 109
2, 64920, Note_on_c, 9, 65, 82
2, 64920, Note_on_c, 9, 70, 34
2, 64979, Note_on_c, 9, 37, 0
2, 64979, Note_on_c, 9, 65, 0
2, 64979, Note_on_c, 9, 70, 0
2, 65025, Note_on_c, 9, 65, 82
2, 65025, Note_on_c, 9, 69, 38
2, 65039, Note_on_c, 9, 65, 0
2, 65084, Note_on_c, 9, 69, 0
2, 65160, Note_on_c, 9, 56, 74
2, 65160, Note_on_c, 9, 70, 34
2, 65160, Note_on_c, 9, 42, 96
2, 65279, Note_on_c, 9, 56, 0
2, 65279, Note_on_c, 9, 70, 0
2, 65279, Note_on_c, 9, 42, 0
2, 65280, Note_on_c, 9, 56, 74
2, 65280, Note_on_c, 9, 69, 42
2, 65280, Note_on_c, 9, 35, 100
2, 65339, Note_on_c, 9, 56, 0
2, 65339, Note_on_c, 9, 69, 0
2, 65340, Note_on_c, 9, 42, 76
2, 65399, Note_on_c, 9, 42, 0
2, 65400, Note_on_c, 9, 70, 34
2, 65519, Note_on_c, 9, 70, 0
2, 65520, Note_on_c, 9, 69, 42
2, 65639, Note_on_c, 9, 69, 0
2, 65640, Note_on_c, 9, 56, 76
2, 65640, Note_on_c, 9, 70, 38
2, 65640, Note_on_c, 9, 42, 96
2, 65759, Note_on_c, 9, 35, 0
2, 65759, Note_on_c, 9, 56, 0
2, 65759, Note_on_c, 9, 70, 0
2, 65759, Note_on_c, 9, 42, 0
2, 65790, Note_on_c, 9, 56, 67
2, 65790, Note_on_c, 9, 65, 47
2, 65790, Note_on_c, 9, 69, 42
2, 65790, Note_on_c, 9, 42, 76
2, 65849, Note_on_c, 9, 56, 0
2, 65849, Note_on_c, 9, 65, 0
2, 65849, Note_on_c, 9, 69, 0
2, 65849, Note_on_c, 9, 42, 0
2, 65880, Note_on_c, 9, 65, 55
2, 65999, Note_on_c, 9, 65, 0
2, 66000, Note_on_c, 9, 37, 109
2, 66000, Note_on_c, 9, 66, 90
2, 66000, Note_on_c, 9, 70, 38
2, 66119, Note_on_c, 9, 37, 0
2, 66119, Note_on_c, 9, 66, 0
2, 66119, Note_on_c, 9, 70, 0
2, 66120, Note_on_c, 9, 65, 70
2, 66120, Note_on_c, 9, 69, 38
2, 66239, Note_on_c, 9, 65, 0
2, 66239, Note_on_c, 9, 69, 0
2, 66240, Note_on_c, 9, 56, 68
2, 66240, Note_on_c, 9, 70, 34
2, 66240, Note_on_c, 9, 42, 102
2, 66359, Note_on_c, 9, 56, 0
2, 66359, Note_on_c, 9, 70, 0
2, 66359, Note_on_c, 9, 42, 0
2, 66360, Note_on_c, 9, 56, 68
2, 66360, Note_on_c, 9, 65, 58
2, 66360, Note_on_c, 9, 69, 42
2, 66479, Note_on_c, 9, 56, 0
2, 66479, Note_on_c, 9, 65, 0
2, 66479, Note_on_c, 9, 69, 0
2, 66480, Note_on_c, 9, 66, 93
2, 66480, Note_on_c, 9, 70, 30
2, 66480, Note_on_c, 9, 35, 90
2, 66599, Note_on_c, 9, 66, 0
2, 66599, Note_on_c, 9, 70, 0
2, 66600, Note_on_c, 9, 69, 42
2, 66719, Note_on_c, 9, 35, 0
2, 66719, Note_on_c, 9, 69, 0
2, 66720, Note_on_c, 9, 56, 77
2, 66720, Note_on_c, 9, 70, 38
2, 66720, Note_on_c, 9, 42, 108
2, 66839, Note_on_c, 9, 56, 0
2, 66839, Note_on_c, 9, 70, 0
2, 66839, Note_on_c, 9, 42, 0
2, 66840, Note_on_c, 9, 56, 77
2, 66840, Note_on_c, 9, 69, 38
2, 66840, Note_on_c, 9, 42, 62
2, 66959, Note_on_c, 9, 56, 0
2, 66959, Note_on_c, 9, 69, 0
2, 66959, Note_on_c, 9, 42, 0
2, 66960, Note_on_c, 9, 37, 118
2, 66960, Note_on_c, 9, 70, 34
2, 67079, Note_on_c, 9, 37, 0
2, 67079, Note_on_c, 9, 70, 0
2, 67080, Note_on_c, 9, 69, 38
2, 67199, Note_on_c, 9, 69, 0
2, 67200, Note_on_c, 9, 56, 77
2, 67200, Note_on_c, 9, 70, 34
2, 67200, Note_on_c, 9, 42, 90
2, 67319, Note_on_c, 9, 56, 0
2, 67319, Note_on_c, 9, 70, 0
2, 67319, Note_on_c, 9, 42, 0
2, 67320, Note_on_c, 9, 56, 77
2, 67320, Note_on_c, 9, 69, 42
2, 67439, Note_on_c, 9, 56, 0
2, 67439, Note_on_c, 9, 69, 0
2, 67440, Note_on_c, 9, 70, 34
2, 67440, Note_on_c, 9, 35, 100
2, 67559, Note_on_c, 9, 70, 0
2, 67560, Note_on_c, 9, 69, 42
2, 67679, Note_on_c, 9, 35, 0
2, 67679, Note_on_c, 9, 69, 0
2, 67680, Note_on_c, 9, 56, 76
2, 67680, Note_on_c, 9, 70, 38
2, 67680, Note_on_c, 9, 42, 96
2, 67799, Note_on_c, 9, 56, 0
2, 67799, Note_on_c, 9, 70, 0
2, 67799, Note_on_c, 9, 42, 0
2, 67800, Note_on_c, 9, 56, 67
2, 67800, Note_on_c, 9, 69, 42
2, 67919, Note_on_c, 9, 56, 0
2, 67919, Note_on_c, 9, 69, 0
2, 67920, Note_on_c, 9, 37, 109
2, 67920, Note_on_c, 9, 70, 38
2, 68039, Note_on_c, 9, 37, 0
2, 68039, Note_on_c, 9, 70, 0
2, 68040, Note_on_c, 9, 69, 38
2, 68159, Note_on_c, 9, 69, 0
2, 68160, Note_on_c, 9, 56, 68
2, 68160, Note_on_c, 9, 70, 34
2, 68160, Note_on_c, 9, 42, 109
2, 68279, Note_on_c, 9, 56, 0
2, 68279, Note_on_c, 9, 70, 0
2, 68279, Note_on_c, 9, 42, 0
2, 68280, Note_on_c, 9, 56, 68
2, 68280, Note_on_c, 9, 69, 42
2, 68399, Note_on_c, 9, 56, 0
2, 68399, Note_on_c, 9, 69, 0
2, 68400, Note_on_c, 9, 70, 30
2, 68519, Note_on_c, 9, 70, 0
2, 68520, Note_on_c, 9, 69, 42
2, 68639, Note_on_c, 9, 69, 0
2, 68640, Note_on_c, 9, 56, 77
2, 68640, Note_on_c, 9, 70, 38
2, 68640, Note_on_c, 9, 42, 109
2, 68759, Note_on_c, 9, 56, 0
2, 68759, Note_on_c, 9, 70, 0
2, 68759, Note_on_c, 9, 42, 0
2, 68760, Note_on_c, 9, 56, 77
2, 68760, Note_on_c, 9, 69, 38
2, 68760, Note_on_c, 9, 42, 76
2, 68879, Note_on_c, 9, 56, 0
2, 68879, Note_on_c, 9, 69, 0
2, 68879, Note_on_c, 9, 42, 0
2, 68880, Note_on_c, 9, 37, 109
2, 68880, Note_on_c, 9, 70, 34
2, 68999, Note_on_c, 9, 37, 0
2, 68999, Note_on_c, 9, 70, 0
2, 69000, Note_on_c, 9, 69, 38
2, 69119, Note_on_c, 9, 69, 0
2, 69120, Note_on_c, 9, 56, 77
2, 69120, Note_on_c, 9, 70, 34
2, 69120, Note_on_c, 9, 42, 96
2, 69120, Note_on_c, 9, 35, 100
2, 69239, Note_on_c, 9, 56, 0
2, 69239, Note_on_c, 9, 70, 0
2, 69239, Note_on_c, 9, 42, 0
2, 69240, Note_on_c, 9, 56, 77
2, 69240, Note_on_c, 9, 69, 42
2, 69299, Note_on_c, 9, 56, 0
2, 69299, Note_on_c, 9, 69, 0
2, 69300, Note_on_c, 9, 42, 76
2, 69359, Note_on_c, 9, 42, 0
2, 69360, Note_on_c, 9, 70, 34
2, 69479, Note_on_c, 9, 70, 0
2, 69480, Note_on_c, 9, 69, 42
2, 69599, Note_on_c, 9, 35, 0
2, 69599, Note_on_c, 9, 69, 0
2, 69600, Note_on_c, 9, 56, 76
2, 69600, Note_on_c, 9, 66, 84
2, 69600, Note_on_c, 9, 70, 38
2, 69600, Note_on_c, 9, 42, 96
2, 69719, Note_on_c, 9, 56, 0
2, 69719, Note_on_c, 9, 66, 0
2, 69719, Note_on_c, 9, 70, 0
2, 69719, Note_on_c, 9, 42, 0
2, 69720, Note_on_c, 9, 56, 67
2, 69720, Note_on_c, 9, 69, 42
2, 69720, Note_on_c, 9, 42, 76
2, 69839, Note_on_c, 9, 56, 0
2, 69839, Note_on_c, 9, 69, 0
2, 69839, Note_on_c, 9, 42, 0
2, 69840, Note_on_c, 9, 37, 109
2, 69840, Note_on_c, 9, 66, 84
2, 69840, Note_on_c, 9, 70, 38
2, 69959, Note_on_c, 9, 37, 0
2, 69959, Note_on_c, 9, 66, 0
2, 69959, Note_on_c, 9, 70, 0
2, 69960, Note_on_c, 9, 69, 38
2, 70079, Note_on_c, 9, 69, 0
2, 70095, Note_on_c, 9, 56, 68
2, 70095, Note_on_c, 9, 66, 87
2, 70095, Note_on_c, 9, 70, 34
2, 70095, Note_on_c, 9, 42, 102
2, 70139, Note_on_c, 9, 42, 0
2, 70154, Note_on_c, 9, 56, 0
2, 70154, Note_on_c, 9, 66, 0
2, 70154, Note_on_c, 9, 70, 0
2, 70200, Note_on_c, 9, 66, 82
2, 70219, Note_on_c, 9, 66, 0
2, 70220, Note_on_c, 9, 56, 68
2, 70220, Note_on_c, 9, 69, 42
2, 70259, Note_on_c, 9, 56, 0
2, 70259, Note_on_c, 9, 69, 0
2, 70320, Note_on_c, 9, 37, 109
2, 70320, Note_on_c, 9, 70, 30
2, 70320, Note_on_c, 9, 35, 90
2, 70439, Note_on_c, 9, 37, 0
2, 70439, Note_on_c, 9, 70, 0
2, 70440, Note_on_c, 9, 66, 82
2, 70440, Note_on_c, 9, 69, 42
2, 70559, Note_on_c, 9, 35, 0
2, 70559, Note_on_c, 9, 66, 0
2, 70559, Note_on_c, 9, 69, 0
2, 70560, Note_on_c, 9, 56, 77
2, 70560, Note_on_c, 9, 70, 38
2, 70560, Note_on_c, 9, 42, 108
2, 70679, Note_on_c, 9, 56, 0
2, 70679, Note_on_c, 9, 70, 0
2, 70679, Note_on_c, 9, 42, 0
2, 70680, Note_on_c, 9, 37, 100
2, 70680, Note_on_c, 9, 56, 77
2, 70680, Note_on_c, 9, 65, 58
2, 70680, Note_on_c, 9, 69, 38
2, 70680, Note_on_c, 9, 42, 62
2, 70739, Note_on_c, 9, 37, 0
2, 70739, Note_on_c, 9, 56, 0
2, 70739, Note_on_c, 9, 65, 0
2, 70739, Note_on_c, 9, 69, 0
2, 70739, Note_on_c, 9, 42, 0
2, 70740, Note_on_c, 9, 65, 46
2, 70799, Note_on_c, 9, 65, 0
2, 70800, Note_on_c, 9, 66, 87
2, 70800, Note_on_c, 9, 70, 34
2, 70800, Note_on_c, 9, 35, 100
2, 70919, Note_on_c, 9, 66, 0
2, 70919, Note_on_c, 9, 70, 0
2, 70920, Note_on_c, 9, 65, 73
2, 70920, Note_on_c, 9, 69, 38
2, 70920, Note_on_c, 9, 42, 62
2, 71039, Note_on_c, 9, 35, 0
2, 71039, Note_on_c, 9, 65, 0
2, 71039, Note_on_c, 9, 69, 0
2, 71039, Note_on_c, 9, 42, 0
2, 71040, Note_on_c, 9, 37, 118
2, 71040, Note_on_c, 9, 56, 77
2, 71040, Note_on_c, 9, 70, 34
2, 71040, Note_on_c, 9, 42, 90
2, 71159, Note_on_c, 9, 37, 0
2, 71159, Note_on_c, 9, 56, 0
2, 71159, Note_on_c, 9, 70, 0
2, 71159, Note_on_c, 9, 42, 0
2, 71160, Note_on_c, 9, 56, 77
2, 71160, Note_on_c, 9, 65, 64
2, 71160, Note_on_c, 9, 69, 42
2, 71279, Note_on_c, 9, 56, 0
2, 71279, Note_on_c, 9, 65, 0
2, 71279, Note_on_c, 9, 69, 0
2, 71280, Note_on_c, 9, 35, 100
2, 71295, Note_on_c, 9, 65, 84
2, 71295, Note_on_c, 9, 70, 34
2, 71295, Note_on_c, 9, 42, 109
2, 71354, Note_on_c, 9, 65, 0
2, 71354, Note_on_c, 9, 70, 0
2, 71519, Note_on_c, 9, 35, 0
2, 71519, Note_on_c, 9, 42, 0
2, 71520, Note_on_c, 9, 42, 96
2, 71679, Note_on_c, 9, 42, 0
2, 71680, Note_on_c, 9, 37, 100
2, 71759, Note_on_c, 9, 37, 0
2, 71760, Note_on_c, 9, 42, 109
2, 71999, Note_on_c, 9, 42, 0
2, 72000, Note_on_c, 9, 42, 109
2, 72239, Note_on_c, 9, 42, 0
2, 72270, Note_on_c, 9, 42, 109
2, 72359, Note_on_c, 9, 42, 0
2, 72480, Note_on_c, 9, 69, 100
2, 72480, Note_on_c, 9, 42, 96
2, 72659, Note_on_c, 9, 69, 0
2, 72659, Note_on_c, 9, 42, 0
2, 72660, Note_on_c, 9, 42, 76
2, 72719, Note_on_c, 9, 42, 0
2, 72720, Note_on_c, 9, 37, 109
2, 72959, Note_on_c, 9, 37, 0
2, 72960, Note_on_c, 9, 69, 91
2, 72960, Note_on_c, 9, 42, 96
2, 73139, Note_on_c, 9, 69, 0
2, 73139, Note_on_c, 9, 42, 0
2, 73140, Note_on_c, 9, 42, 76
2, 73199, Note_on_c, 9, 42, 0
2, 73200, Note_on_c, 9, 35, 100
2, 73439, Note_on_c, 9, 35, 0
2, 73480, Note_on_c, 9, 42, 96
2, 73599, Note_on_c, 9, 42, 0
2, 73600, Note_on_c, 9, 37, 100
2, 73600, Note_on_c, 9, 42, 76
2, 73679, Note_on_c, 9, 37, 0
2, 73679, Note_on_c, 9, 42, 0
2, 73960, Note_on_c, 9, 42, 102
2, 74079, Note_on_c, 9, 42, 0
2, 74080, Note_on_c, 9, 42, 76
2, 74159, Note_on_c, 9, 42, 0
2, 74160, Note_on_c, 9, 35, 100
2, 74399, Note_on_c, 9, 35, 0
2, 74400, Note_on_c, 9, 69, 91
2, 74400, Note_on_c, 9, 42, 108
2, 74559, Note_on_c, 9, 69, 0
2, 74559, Note_on_c, 9, 42, 0
2, 74560, Note_on_c, 9, 42, 62
2, 74639, Note_on_c, 9, 42, 0
2, 74640, Note_on_c, 9, 37, 109
2, 74879, Note_on_c, 9, 37, 0
2, 74920, Note_on_c, 9, 69, 91
2, 74920, Note_on_c, 9, 42, 90
2, 74999, Note_on_c, 9, 69, 0
2, 75039, Note_on_c, 9, 42, 0
2, 75040, Note_on_c, 9, 42, 62
2, 75119, Note_on_c, 9, 42, 0
2, 75120, Note_on_c, 9, 42, 109
2, 75120, Note_on_c, 9, 35, 100
2, 75359, Note_on_c, 9, 42, 0
2, 75359, Note_on_c, 9, 35, 0
2, 75360, Note_on_c, 9, 42, 96
2, 75479, Note_on_c, 9, 42, 0
2, 75480, Note_on_c, 9, 37, 100
2, 75600, Note_on_c, 9, 35, 90
2, 75839, Note_on_c, 9, 37, 0
2, 75839, Note_on_c, 9, 35, 0
2, 75840, Note_on_c, 9, 42, 109
2, 76079, Note_on_c, 9, 42, 0
2, 76080, Note_on_c, 9, 42, 109
2, 76319, Note_on_c, 9, 42, 0
2, 76320, Note_on_c, 9, 69, 82
2, 76320, Note_on_c, 9, 42, 96
2, 76479, Note_on_c, 9, 69, 0
2, 76479, Note_on_c, 9, 42, 0
2, 76480, Note_on_c, 9, 42, 76
2, 76559, Note_on_c, 9, 42, 0
2, 76560, Note_on_c, 9, 37, 109
2, 76799, Note_on_c, 9, 37, 0
2, 76800, Note_on_c, 9, 69, 91
2, 76800, Note_on_c, 9, 42, 96
2, 77040, Note_on_c, 9, 35, 100
2, 77279, Note_on_c, 9, 69, 0
2, 77279, Note_on_c, 9, 42, 0
2, 77279, Note_on_c, 9, 35, 0
2, 77280, Note_on_c, 9, 42, 96
2, 77399, Note_on_c, 9, 42, 0
2, 77400, Note_on_c, 9, 37, 100
2, 77519, Note_on_c, 9, 37, 0
2, 77520, Note_on_c, 9, 42, 109
2, 77759, Note_on_c, 9, 42, 0
2, 77760, Note_on_c, 9, 42, 102
2, 77999, Note_on_c, 9, 42, 0
2, 78000, Note_on_c, 9, 49, 90
2, 78000, Note_on_c, 9, 35, 100
2, 78239, Note_on_c, 9, 49, 0
2, 78239, Note_on_c, 9, 35, 0
2, 78240, Note_on_c, 9, 69, 82
2, 78240, Note_on_c, 9, 44, 90
2, 78479, Note_on_c, 9, 69, 0
2, 78479, Note_on_c, 9, 44, 0
2, 78480, Note_on_c, 9, 57, 90
2, 78480, Note_on_c, 9, 35, 100
2, 78719, Note_on_c, 9, 57, 0
2, 78719, Note_on_c, 9, 35, 0
2, 78720, Note_on_c, 9, 69, 91
2, 78720, Note_on_c, 9, 44, 90
2, 78959, Note_on_c, 9, 69, 0
2, 78959, Note_on_c, 9, 44, 0
2, 78960, Note_on_c, 9, 42, 109
2, 78960, Note_on_c, 9, 35, 100
2, 79199, Note_on_c, 9, 42, 0
2, 79199, Note_on_c, 9, 35, 0
2, 79200, Note_on_c, 9, 42, 96
2, 79379, Note_on_c, 9, 42, 0
2, 79380, Note_on_c, 9, 42, 73
2, 79439, Note_on_c, 9, 42, 0
2, 79440, Note_on_c, 9, 37, 109
2, 79679, Note_on_c, 9, 37, 0
2, 79800, Note_on_c, 9, 42, 109
2, 80159, Note_on_c, 9, 42, 0
2, 80280, Note_on_c, 9, 42, 96
2, 80399, Note_on_c, 9, 42, 0
2, 80400, Note_on_c, 9, 42, 76
2, 80519, Note_on_c, 9, 42, 0
2, 80520, Note_on_c, 9, 37, 109
2, 80639, Note_on_c, 9, 37, 0
2, 80760, Note_on_c, 9, 42, 96
2, 80879, Note_on_c, 9, 42, 0
2, 80940, Note_on_c, 9, 42, 76
2, 81119, Note_on_c, 9, 42, 0
2, 81120, Note_on_c, 9, 35, 100
2, 81360, Note_on_c, 9, 42, 96
2, 81479, Note_on_c, 9, 42, 0
2, 81480, Note_on_c, 9, 42, 76
2, 81599, Note_on_c, 9, 35, 0
2, 81599, Note_on_c, 9, 42, 0
2, 81600, Note_on_c, 9, 37, 109
2, 81839, Note_on_c, 9, 37, 0
2, 81840, Note_on_c, 9, 42, 102
2, 82079, Note_on_c, 9, 42, 0
2, 82080, Note_on_c, 9, 35, 100
2, 82320, Note_on_c, 9, 42, 108
2, 82559, Note_on_c, 9, 35, 0
2, 82559, Note_on_c, 9, 42, 0
2, 82640, Note_on_c, 9, 37, 118
2, 82879, Note_on_c, 9, 37, 0
2, 82880, Note_on_c, 9, 42, 90
2, 83039, Note_on_c, 9, 42, 0
2, 83040, Note_on_c, 9, 42, 76
2, 83040, Note_on_c, 9, 35, 100
2, 83399, Note_on_c, 9, 42, 0
2, 83400, Note_on_c, 9, 42, 96
2, 83519, Note_on_c, 9, 35, 0
2, 83519, Note_on_c, 9, 42, 0
2, 83520, Note_on_c, 9, 42, 73
2, 83639, Note_on_c, 9, 42, 0
2, 83640, Note_on_c, 9, 37, 109
2, 83879, Note_on_c, 9, 37, 0
2, 83880, Note_on_c, 9, 42, 109
2, 83999, Note_on_c, 9, 42, 0
2, 84240, Note_on_c, 9, 35, 100
2, 84280, Note_on_c, 9, 65, 70
2, 84319, Note_on_c, 9, 65, 0
2, 84320, Note_on_c, 9, 65, 82
2, 84359, Note_on_c, 9, 65, 0
2, 84420, Note_on_c, 9, 42, 96
2, 84479, Note_on_c, 9, 35, 0
2, 84479, Note_on_c, 9, 42, 0
2, 84480, Note_on_c, 9, 65, 90
2, 84539, Note_on_c, 9, 65, 0
2, 84540, Note_on_c, 9, 42, 76
2, 84599, Note_on_c, 9, 42, 0
2, 84600, Note_on_c, 9, 65, 82
2, 84719, Note_on_c, 9, 65, 0
2, 84720, Note_on_c, 9, 37, 109
2, 84720, Note_on_c, 9, 35, 90
2, 84839, Note_on_c, 9, 37, 0
2, 84840, Note_on_c, 9, 66, 73
2, 84959, Note_on_c, 9, 35, 0
2, 84959, Note_on_c, 9, 66, 0
2, 84960, Note_on_c, 9, 66, 67
2, 84960, Note_on_c, 9, 42, 96
2, 85119, Note_on_c, 9, 66, 0
2, 85119, Note_on_c, 9, 42, 0
2, 85120, Note_on_c, 9, 42, 76
2, 85199, Note_on_c, 9, 42, 0
2, 85200, Note_on_c, 9, 66, 64
2, 85200, Note_on_c, 9, 35, 100
2, 85439, Note_on_c, 9, 66, 0
2, 85439, Note_on_c, 9, 35, 0
2, 85440, Note_on_c, 9, 42, 96
2, 85679, Note_on_c, 9, 42, 0
2, 85720, Note_on_c, 9, 42, 76
2, 85759, Note_on_c, 9, 42, 0
2, 85760, Note_on_c, 9, 37, 109
2, 85919, Note_on_c, 9, 37, 0
2, 85920, Note_on_c, 9, 35, 100
2, 86040, Note_on_c, 9, 42, 102
2, 86159, Note_on_c, 9, 42, 0
2, 86220, Note_on_c, 9, 65, 52
2, 86279, Note_on_c, 9, 65, 0
2, 86280, Note_on_c, 9, 66, 78
2, 86310, Note_on_c, 9, 37, 105
2, 86310, Note_on_c, 9, 65, 105
2, 86369, Note_on_c, 9, 37, 0
2, 86399, Note_on_c, 9, 35, 0
2, 86399, Note_on_c, 9, 66, 0
2, 86399, Note_on_c, 9, 65, 0
2, 86400, Note_on_c, 9, 40, 87
2, 86400, Note_on_c, 9, 65, 87
2, 86640, Note_on_c, 9, 35, 100
2, 86759, Note_on_c, 9, 40, 0
2, 86759, Note_on_c, 9, 65, 0
2, 86760, Note_on_c, 9, 40, 102
2, 86760, Note_on_c, 9, 65, 96
2, 86879, Note_on_c, 9, 35, 0
2, 86879, Note_on_c, 9, 40, 0
2, 86879, Note_on_c, 9, 65, 0
2, 87000, Note_on_c, 9, 40, 91
2, 87000, Note_on_c, 9, 65, 82
2, 87119, Note_on_c, 9, 40, 0
2, 87119, Note_on_c, 9, 65, 0
2, 87120, Note_on_c, 9, 40, 105
2, 87120, Note_on_c, 9, 65, 102
2, 87239, Note_on_c, 9, 40, 0
2, 87239, Note_on_c, 9, 65, 0
2, 87240, Note_on_c, 9, 40, 90
2, 87240, Note_on_c, 9, 65, 79
2, 87359, Note_on_c, 9, 40, 0
2, 87359, Note_on_c, 9, 65, 0
2, 87360, Note_on_c, 9, 35, 100
2, 87600, Note_on_c, 9, 42, 96
2, 87759, Note_on_c, 9, 42, 0
2, 87760, Note_on_c, 9, 42, 73
2, 87839, Note_on_c, 9, 35, 0
2, 87839, Note_on_c, 9, 42, 0
2, 87840, Note_on_c, 9, 37, 109
2, 88079, Note_on_c, 9, 37, 0
2, 88080, Note_on_c, 9, 42, 109
2, 88319, Note_on_c, 9, 42, 0
2, 88560, Note_on_c, 9, 42, 96
2, 88719, Note_on_c, 9, 42, 0
2, 88720, Note_on_c, 9, 42, 76
2, 88799, Note_on_c, 9, 42, 0
2, 88800, Note_on_c, 9, 37, 109
2, 89039, Note_on_c, 9, 37, 0
2, 89040, Note_on_c, 9, 46, 96
2, 89199, Note_on_c, 9, 46, 0
2, 89200, Note_on_c, 9, 42, 76
2, 89279, Note_on_c, 9, 42, 0
2, 89280, Note_on_c, 9, 35, 100
2, 89520, Note_on_c, 9, 42, 96
2, 89679, Note_on_c, 9, 42, 0
2, 89680, Note_on_c, 9, 42, 76
2, 89759, Note_on_c, 9, 35, 0
2, 89759, Note_on_c, 9, 42, 0
2, 89760, Note_on_c, 9, 37, 109
2, 89999, Note_on_c, 9, 37, 0
2, 90000, Note_on_c, 9, 42, 102
2, 90239, Note_on_c, 9, 42, 0
2, 90480, Note_on_c, 9, 42, 108
2, 90719, Note_on_c, 9, 42, 0
2, 90720, Note_on_c, 9, 37, 118
2, 90959, Note_on_c, 9, 37, 0
2, 90960, Note_on_c, 9, 42, 90
2, 91119, Note_on_c, 9, 42, 0
2, 91120, Note_on_c, 9, 42, 76
2, 91199, Note_on_c, 9, 42, 0
2, 91200, Note_on_c, 9, 35, 100
2, 91440, Note_on_c, 9, 42, 96
2, 91599, Note_on_c, 9, 42, 0
2, 91600, Note_on_c, 9, 42, 73
2, 91679, Note_on_c, 9, 35, 0
2, 91679, Note_on_c, 9, 42, 0
2, 91680, Note_on_c, 9, 37, 109
2, 91919, Note_on_c, 9, 37, 0
2, 91920, Note_on_c, 9, 42, 109
2, 92159, Note_on_c, 9, 42, 0
2, 92400, Note_on_c, 9, 42, 96
2, 92559, Note_on_c, 9, 42, 0
2, 92560, Note_on_c, 9, 42, 76
2, 92639, Note_on_c, 9, 42, 0
2, 92640, Note_on_c, 9, 37, 109
2, 92879, Note_on_c, 9, 37, 0
2, 92880, Note_on_c, 9, 46, 96
2, 93039, Note_on_c, 9, 46, 0
2, 93040, Note_on_c, 9, 42, 76
2, 93119, Note_on_c, 9, 42, 0
2, 93120, Note_on_c, 9, 35, 100
2, 93360, Note_on_c, 9, 42, 96
2, 93519, Note_on_c, 9, 42, 0
2, 93520, Note_on_c, 9, 42, 76
2, 93599, Note_on_c, 9, 35, 0
2, 93599, Note_on_c, 9, 42, 0
2, 93600, Note_on_c, 9, 37, 109
2, 93839, Note_on_c, 9, 37, 0
2, 93840, Note_on_c, 9, 42, 102
2, 94079, Note_on_c, 9, 42, 0
2, 94320, Note_on_c, 9, 42, 108
2, 94559, Note_on_c, 9, 42, 0
2, 94560, Note_on_c, 9, 37, 118
2, 94799, Note_on_c, 9, 37, 0
2, 94800, Note_on_c, 9, 46, 90
2, 94959, Note_on_c, 9, 46, 0
2, 94960, Note_on_c, 9, 42, 76
2, 95039, Note_on_c, 9, 42, 0
2, 95040, Note_on_c, 9, 35, 100
2, 95320, Note_on_c, 9, 42, 96
2, 95439, Note_on_c, 9, 42, 0
2, 95440, Note_on_c, 9, 42, 73
2, 95519, Note_on_c, 9, 35, 0
2, 95519, Note_on_c, 9, 42, 0
2, 95520, Note_on_c, 9, 37, 109
2, 95759, Note_on_c, 9, 37, 0
2, 95800, Note_on_c, 9, 46, 109
2, 95919, Note_on_c, 9, 46, 0
2, 95920, Note_on_c, 9, 42, 73
2, 95999, Note_on_c, 9, 42, 0
2, 96000, Note_on_c, 9, 35, 102
2, 96240, Note_on_c, 9, 42, 96
2, 96399, Note_on_c, 9, 42, 0
2, 96400, Note_on_c, 9, 42, 57
2, 96479, Note_on_c, 9, 35, 0
2, 96479, Note_on_c, 9, 42, 0
2, 96480, Note_on_c, 9, 37, 109
2, 96719, Note_on_c, 9, 37, 0
2, 96720, Note_on_c, 9, 46, 96
2, 96879, Note_on_c, 9, 46, 0
2, 96880, Note_on_c, 9, 42, 76
2, 96959, Note_on_c, 9, 42, 0
2, 96960, Note_on_c, 9, 35, 100
2, 97200, Note_on_c, 9, 42, 96
2, 97359, Note_on_c, 9, 42, 0
2, 97360, Note_on_c, 9, 42, 76
2, 97439, Note_on_c, 9, 35, 0
2, 97439, Note_on_c, 9, 42, 0
2, 97440, Note_on_c, 9, 37, 109
2, 97679, Note_on_c, 9, 37, 0
2, 97680, Note_on_c, 9, 46, 102
2, 97680, Note_on_c, 9, 35, 109
2, 97799, Note_on_c, 9, 46, 0
2, 97800, Note_on_c, 9, 42, 107
2, 97919, Note_on_c, 9, 35, 0
2, 97919, Note_on_c, 9, 42, 0
2, 98040, Note_on_c, 9, 37, 100
2, 98159, Note_on_c, 9, 37, 0
2, 98200, Note_on_c, 9, 42, 108
2, 98319, Note_on_c, 9, 42, 0
2, 98320, Note_on_c, 9, 42, 76
2, 98399, Note_on_c, 9, 42, 0
2, 98400, Note_on_c, 9, 37, 118
2, 98639, Note_on_c, 9, 37, 0
2, 98640, Note_on_c, 9, 42, 90
2, 98799, Note_on_c, 9, 42, 0
2, 98800, Note_on_c, 9, 42, 76
2, 98879, Note_on_c, 9, 42, 0
2, 98880, Note_on_c, 9, 35, 100
2, 99120, Note_on_c, 9, 42, 96
2, 99279, Note_on_c, 9, 42, 0
2, 99280, Note_on_c, 9, 42, 73
2, 99359, Note_on_c, 9, 35, 0
2, 99359, Note_on_c, 9, 42, 0
2, 99360, Note_on_c, 9, 37, 109
2, 99599, Note_on_c, 9, 37, 0
2, 99600, Note_on_c, 9, 42, 109
2, 99839, Note_on_c, 9, 42, 0
2, 100080, Note_on_c, 9, 42, 96
2, 100239, Note_on_c, 9, 42, 0
2, 100240, Note_on_c, 9, 42, 76
2, 100319, Note_on_c, 9, 42, 0
2, 100320, Note_on_c, 9, 37, 109
2, 100320, Note_on_c, 9, 35, 102
2, 100559, Note_on_c, 9, 37, 0
2, 100560, Note_on_c, 9, 42, 96
2, 100719, Note_on_c, 9, 42, 0
2, 100720, Note_on_c, 9, 42, 76
2, 100799, Note_on_c, 9, 35, 0
2, 100799, Note_on_c, 9, 42, 0
2, 100800, Note_on_c, 9, 35, 100
2, 101040, Note_on_c, 9, 42, 96
2, 101199, Note_on_c, 9, 42, 0
2, 101200, Note_on_c, 9, 42, 76
2, 101279, Note_on_c, 9, 35, 0
2, 101279, Note_on_c, 9, 42, 0
2, 101280, Note_on_c, 9, 37, 109
2, 101519, Note_on_c, 9, 37, 0
2, 101520, Note_on_c, 9, 42, 102
2, 101759, Note_on_c, 9, 42, 0
2, 101760, Note_on_c, 9, 37, 109
2, 101760, Note_on_c, 9, 46, 102
2, 101999, Note_on_c, 9, 37, 0
2, 101999, Note_on_c, 9, 46, 0
2, 102000, Note_on_c, 9, 42, 81
2, 102119, Note_on_c, 9, 42, 0
2, 102120, Note_on_c, 9, 37, 100
2, 102239, Note_on_c, 9, 37, 0
2, 102240, Note_on_c, 9, 42, 76
2, 102240, Note_on_c, 9, 35, 100
2, 102359, Note_on_c, 9, 42, 0
2, 102360, Note_on_c, 9, 42, 76
2, 102479, Note_on_c, 9, 42, 0
2, 102480, Note_on_c, 9, 37, 118
2, 102480, Note_on_c, 9, 42, 90
2, 102719, Note_on_c, 9, 35, 0
2, 102719, Note_on_c, 9, 37, 0
2, 102719, Note_on_c, 9, 42, 0
2, 102720, Note_on_c, 9, 42, 109
2, 102720, Note_on_c, 9, 35, 100
2, 102959, Note_on_c, 9, 42, 0
2, 102960, Note_on_c, 9, 42, 96
2, 103119, Note_on_c, 9, 42, 0
2, 103120, Note_on_c, 9, 42, 73
2, 103199, Note_on_c, 9, 35, 0
2, 103199, Note_on_c, 9, 42, 0
2, 103200, Note_on_c, 9, 37, 109
2, 103439, Note_on_c, 9, 37, 0
2, 103440, Note_on_c, 9, 42, 109
2, 103679, Note_on_c, 9, 42, 0
2, 103920, Note_on_c, 9, 42, 96
2, 104079, Note_on_c, 9, 42, 0
2, 104080, Note_on_c, 9, 42, 76
2, 104159, Note_on_c, 9, 42, 0
2, 104160, Note_on_c, 9, 37, 109
2, 104399, Note_on_c, 9, 37, 0
2, 104400, Note_on_c, 9, 42, 96
2, 104559, Note_on_c, 9, 42, 0
2, 104560, Note_on_c, 9, 42, 76
2, 104639, Note_on_c, 9, 42, 0
2, 104640, Note_on_c, 9, 35, 100
2, 104880, Note_on_c, 9, 42, 96
2, 105039, Note_on_c, 9, 42, 0
2, 105040, Note_on_c, 9, 42, 76
2, 105119, Note_on_c, 9, 35, 0
2, 105119, Note_on_c, 9, 42, 0
2, 105120, Note_on_c, 9, 37, 109
2, 105359, Note_on_c, 9, 37, 0
2, 105360, Note_on_c, 9, 42, 102
2, 105599, Note_on_c, 9, 42, 0
2, 105720, Note_on_c, 9, 37, 100
2, 105839, Note_on_c, 9, 37, 0
2, 105840, Note_on_c, 9, 42, 108
2, 106079, Note_on_c, 9, 42, 0
2, 106080, Note_on_c, 9, 37, 118
2, 106080, Note_on_c, 9, 46, 116
2, 106319, Note_on_c, 9, 37, 0
2, 106319, Note_on_c, 9, 46, 0
2, 106320, Note_on_c, 9, 42, 90
2, 106559, Note_on_c, 9, 42, 0
2, 106560, Note_on_c, 9, 35, 100
2, 106800, Note_on_c, 9, 42, 96
2, 106959, Note_on_c, 9, 42, 0
2, 106960, Note_on_c, 9, 42, 73
2, 107039, Note_on_c, 9, 35, 0
2, 107039, Note_on_c, 9, 42, 0
2, 107040, Note_on_c, 9, 37, 109
2, 107279, Note_on_c, 9, 37, 0
2, 107280, Note_on_c, 9, 46, 109
2, 107519, Note_on_c, 9, 46, 0
2, 107520, Note_on_c, 9, 35, 109
2, 107800, Note_on_c, 9, 42, 96
2, 107919, Note_on_c, 9, 42, 0
2, 107920, Note_on_c, 9, 42, 76
2, 107999, Note_on_c, 9, 35, 0
2, 107999, Note_on_c, 9, 42, 0
2, 108000, Note_on_c, 9, 37, 109
2, 108239, Note_on_c, 9, 37, 0
2, 108240, Note_on_c, 9, 42, 96
2, 108399, Note_on_c, 9, 42, 0
2, 108400, Note_on_c, 9, 42, 76
2, 108479, Note_on_c, 9, 42, 0
2, 108480, Note_on_c, 9, 35, 100
2, 108720, Note_on_c, 9, 42, 96
2, 108879, Note_on_c, 9, 42, 0
2, 108880, Note_on_c, 9, 42, 76
2, 108959, Note_on_c, 9, 35, 0
2, 108959, Note_on_c, 9, 42, 0
2, 108960, Note_on_c, 9, 37, 109
2, 109199, Note_on_c, 9, 37, 0
2, 109200, Note_on_c, 9, 42, 102
2, 109439, Note_on_c, 9, 42, 0
2, 109440, Note_on_c, 9, 42, 102
2, 109679, Note_on_c, 9, 42, 0
2, 109720, Note_on_c, 9, 42, 108
2, 109839, Note_on_c, 9, 42, 0
2, 109840, Note_on_c, 9, 42, 75
2, 109919, Note_on_c, 9, 42, 0
2, 109935, Note_on_c, 9, 37, 109
2, 109935, Note_on_c, 9, 46, 109
2, 109935, Note_on_c, 9, 35, 109
2, 109994, Note_on_c, 9, 37, 0
2, 110159, Note_on_c, 9, 46, 0
2, 110159, Note_on_c, 9, 35, 0
2, 110160, Note_on_c, 9, 42, 90
2, 110319, Note_on_c, 9, 42, 0
2, 110320, Note_on_c, 9, 42, 62
2, 110399, Note_on_c, 9, 42, 0
2, 110400, Note_on_c, 9, 42, 109
2, 110400, Note_on_c, 9, 35, 100
2, 110639, Note_on_c, 9, 42, 0
2, 110640, Note_on_c, 9, 42, 96
2, 110799, Note_on_c, 9, 42, 0
2, 110800, Note_on_c, 9, 42, 73
2, 110879, Note_on_c, 9, 35, 0
2, 110879, Note_on_c, 9, 42, 0
2, 110880, Note_on_c, 9, 37, 109
2, 111119, Note_on_c, 9, 37, 0
2, 111120, Note_on_c, 9, 42, 109
2, 111359, Note_on_c, 9, 42, 0
2, 111360, Note_on_c, 9, 35, 109
2, 111630, Note_on_c, 9, 42, 96
2, 111719, Note_on_c, 9, 42, 0
2, 111780, Note_on_c, 9, 42, 76
2, 111839, Note_on_c, 9, 35, 0
2, 111839, Note_on_c, 9, 42, 0
2, 111840, Note_on_c, 9, 37, 109
2, 112079, Note_on_c, 9, 37, 0
2, 112120, Note_on_c, 9, 42, 96
2, 112239, Note_on_c, 9, 42, 0
2, 112240, Note_on_c, 9, 42, 76
2, 112319, Note_on_c, 9, 42, 0
2, 112320, Note_on_c, 9, 35, 100
2, 112600, Note_on_c, 9, 42, 96
2, 112719, Note_on_c, 9, 42, 0
2, 112720, Note_on_c, 9, 42, 76
2, 112799, Note_on_c, 9, 35, 0
2, 112799, Note_on_c, 9, 42, 0
2, 112800, Note_on_c, 9, 37, 109
2, 113039, Note_on_c, 9, 37, 0
2, 113040, Note_on_c, 9, 42, 102
2, 113279, Note_on_c, 9, 42, 0
2, 113560, Note_on_c, 9, 42, 108
2, 113679, Note_on_c, 9, 42, 0
2, 113680, Note_on_c, 9, 42, 62
2, 113759, Note_on_c, 9, 42, 0
2, 113760, Note_on_c, 9, 37, 118
2, 113999, Note_on_c, 9, 37, 0
2, 114040, Note_on_c, 9, 42, 90
2, 114159, Note_on_c, 9, 42, 0
2, 114160, Note_on_c, 9, 42, 62
2, 114239, Note_on_c, 9, 42, 0
2, 114240, Note_on_c, 9, 35, 100
2, 114520, Note_on_c, 9, 42, 96
2, 114639, Note_on_c, 9, 42, 0
2, 114640, Note_on_c, 9, 42, 73
2, 114719, Note_on_c, 9, 35, 0
2, 114719, Note_on_c, 9, 42, 0
2, 114720, Note_on_c, 9, 37, 109
2, 114959, Note_on_c, 9, 37, 0
2, 114960, Note_on_c, 9, 42, 109
2, 115199, Note_on_c, 9, 42, 0
2, 115470, Note_on_c, 9, 42, 96
2, 115559, Note_on_c, 9, 42, 0
2, 115620, Note_on_c, 9, 42, 76
2, 115679, Note_on_c, 9, 42, 0
2, 115680, Note_on_c, 9, 37, 109
2, 115919, Note_on_c, 9, 37, 0
2, 115920, Note_on_c, 9, 35, 100
2, 115960, Note_on_c, 9, 42, 96
2, 116079, Note_on_c, 9, 42, 0
2, 116080, Note_on_c, 9, 42, 76
2, 116159, Note_on_c, 9, 35, 0
2, 116159, Note_on_c, 9, 42, 0
2, 116160, Note_on_c, 9, 42, 86
2, 116399, Note_on_c, 9, 42, 0
2, 116400, Note_on_c, 9, 40, 82
2, 116519, Note_on_c, 9, 40, 0
2, 116520, Note_on_c, 9, 40, 100
2, 116639, Note_on_c, 9, 40, 0
2, 116820, Note_on_c, 9, 40, 82
2, 116879, Note_on_c, 9, 40, 0
2, 116880, Note_on_c, 9, 40, 118
2, 117119, Note_on_c, 9, 40, 0
2, 117135, Note_on_c, 9, 40, 81
2, 117164, Note_on_c, 9, 40, 0
2, 117165, Note_on_c, 9, 40, 127
2, 117359, Note_on_c, 9, 40, 0
2, 117600, Note_on_c, 9, 47, 66
2, 117600, Note_on_c, 9, 65, 78
2, 117600, Note_on_c, 9, 66, 109
2, 118079, Note_on_c, 9, 47, 0
2, 118079, Note_on_c, 9, 65, 0
2, 118079, Note_on_c, 9, 66, 0
2, 118080, Note_on_c, 9, 35, 100
2, 118095, Note_on_c, 9, 49, 91
2, 118139, Note_on_c, 9, 49, 0
2, 118200, Note_on_c, 9, 69, 42
2, 118319, Note_on_c, 9, 69, 0
2, 118320, Note_on_c, 9, 56, 76
2, 118320, Note_on_c, 9, 70, 38
2, 118320, Note_on_c, 9, 77, 102
2, 118320, Note_on_c, 9, 42, 96
2, 118439, Note_on_c, 9, 56, 0
2, 118439, Note_on_c, 9, 70, 0
2, 118439, Note_on_c, 9, 77, 0
2, 118439, Note_on_c, 9, 42, 0
2, 118440, Note_on_c, 9, 56, 67
2, 118440, Note_on_c, 9, 69, 42
2, 118559, Note_on_c, 9, 35, 0
2, 118559, Note_on_c, 9, 56, 0
2, 118559, Note_on_c, 9, 69, 0
2, 118560, Note_on_c, 9, 37, 109
2, 118560, Note_on_c, 9, 70, 38
2, 118679, Note_on_c, 9, 37, 0
2, 118679, Note_on_c, 9, 70, 0
2, 118680, Note_on_c, 9, 69, 38
2, 118799, Note_on_c, 9, 69, 0
2, 118800, Note_on_c, 9, 56, 68
2, 118800, Note_on_c, 9, 70, 34
2, 118800, Note_on_c, 9, 42, 109
2, 118919, Note_on_c, 9, 56, 0
2, 118919, Note_on_c, 9, 70, 0
2, 118919, Note_on_c, 9, 42, 0
2, 118920, Note_on_c, 9, 56, 68
2, 118920, Note_on_c, 9, 69, 42
2, 119039, Note_on_c, 9, 56, 0
2, 119039, Note_on_c, 9, 69, 0
2, 119040, Note_on_c, 9, 70, 30
2, 119040, Note_on_c, 9, 35, 109
2, 119279, Note_on_c, 9, 70, 0
2, 119280, Note_on_c, 9, 69, 42
2, 119339, Note_on_c, 9, 69, 0
2, 119355, Note_on_c, 9, 56, 71
2, 119355, Note_on_c, 9, 70, 38
2, 119355, Note_on_c, 9, 42, 96
2, 119399, Note_on_c, 9, 42, 0
2, 119414, Note_on_c, 9, 56, 0
2, 119414, Note_on_c, 9, 70, 0
2, 119460, Note_on_c, 9, 56, 71
2, 119460, Note_on_c, 9, 69, 38
2, 119519, Note_on_c, 9, 35, 0
2, 119519, Note_on_c, 9, 56, 0
2, 119519, Note_on_c, 9, 69, 0
2, 119520, Note_on_c, 9, 42, 76
2, 119639, Note_on_c, 9, 42, 0
2, 119640, Note_on_c, 9, 37, 109
2, 119640, Note_on_c, 9, 70, 34
2, 119759, Note_on_c, 9, 37, 0
2, 119759, Note_on_c, 9, 70, 0
2, 119760, Note_on_c, 9, 69, 38
2, 119879, Note_on_c, 9, 69, 0
2, 119880, Note_on_c, 9, 56, 77
2, 119880, Note_on_c, 9, 70, 34
2, 119880, Note_on_c, 9, 42, 96
2, 119999, Note_on_c, 9, 56, 0
2, 119999, Note_on_c, 9, 70, 0
2, 119999, Note_on_c, 9, 42, 0
2, 120000, Note_on_c, 9, 56, 77
2, 120000, Note_on_c, 9, 69, 42
2, 120000, Note_on_c, 9, 35, 100
2, 120059, Note_on_c, 9, 56, 0
2, 120059, Note_on_c, 9, 69, 0
2, 120060, Note_on_c, 9, 42, 76
2, 120119, Note_on_c, 9, 42, 0
2, 120120, Note_on_c, 9, 70, 34
2, 120239, Note_on_c, 9, 70, 0
2, 120240, Note_on_c, 9, 69, 42
2, 120359, Note_on_c, 9, 69, 0
2, 120360, Note_on_c, 9, 56, 76
2, 120360, Note_on_c, 9, 70, 38
2, 120360, Note_on_c, 9, 42, 96
2, 120479, Note_on_c, 9, 35, 0
2, 120479, Note_on_c, 9, 56, 0
2, 120479, Note_on_c, 9, 70, 0
2, 120479, Note_on_c, 9, 42, 0
2, 120480, Note_on_c, 9, 56, 67
2, 120480, Note_on_c, 9, 69, 42
2, 120539, Note_on_c, 9, 56, 0
2, 120539, Note_on_c, 9, 69, 0
2, 120540, Note_on_c, 9, 42, 76
2, 120599, Note_on_c, 9, 42, 0
2, 120600, Note_on_c, 9, 37, 109
2, 120600, Note_on_c, 9, 70, 38
2, 120719, Note_on_c, 9, 37, 0
2, 120719, Note_on_c, 9, 70, 0
2, 120720, Note_on_c, 9, 69, 38
2, 120839, Note_on_c, 9, 69, 0
2, 120840, Note_on_c, 9, 56, 68
2, 120840, Note_on_c, 9, 70, 34
2, 120840, Note_on_c, 9, 42, 102
2, 120959, Note_on_c, 9, 56, 0
2, 120959, Note_on_c, 9, 70, 0
2, 120959, Note_on_c, 9, 42, 0
2, 120960, Note_on_c, 9, 56, 68
2, 120960, Note_on_c, 9, 65, 74
2, 120960, Note_on_c, 9, 69, 42
2, 121079, Note_on_c, 9, 56, 0
2, 121079, Note_on_c, 9, 65, 0
2, 121079, Note_on_c, 9, 69, 0
2, 121080, Note_on_c, 9, 65, 99
2, 121139, Note_on_c, 9, 65, 0
2, 121140, Note_on_c, 9, 65, 84
2, 121140, Note_on_c, 9, 70, 30
2, 121140, Note_on_c, 9, 35, 109
2, 121199, Note_on_c, 9, 65, 0
2, 121199, Note_on_c, 9, 70, 0
2, 121199, Note_on_c, 9, 35, 0
2, 121260, Note_on_c, 9, 65, 82
2, 121319, Note_on_c, 9, 65, 0
2, 121320, Note_on_c, 9, 69, 42
2, 121439, Note_on_c, 9, 69, 0
2, 121440, Note_on_c, 9, 56, 77
2, 121440, Note_on_c, 9, 65, 91
2, 121440, Note_on_c, 9, 70, 38
2, 121440, Note_on_c, 9, 42, 108
2, 121499, Note_on_c, 9, 56, 0
2, 121499, Note_on_c, 9, 65, 0
2, 121499, Note_on_c, 9, 70, 0
2, 121499, Note_on_c, 9, 42, 0
2, 121500, Note_on_c, 9, 65, 82
2, 121530, Note_on_c, 9, 56, 77
2, 121530, Note_on_c, 9, 69, 38
2, 121559, Note_on_c, 9, 65, 0
2, 121560, Note_on_c, 9, 42, 62
2, 121649, Note_on_c, 9, 56, 0
2, 121649, Note_on_c, 9, 69, 0
2, 121679, Note_on_c, 9, 42, 0
2, 121680, Note_on_c, 9, 37, 118
2, 121680, Note_on_c, 9, 65, 111
2, 121680, Note_on_c, 9, 70, 34
2, 121799, Note_on_c, 9, 37, 0
2, 121799, Note_on_c, 9, 65, 0
2, 121799, Note_on_c, 9, 70, 0
2, 121800, Note_on_c, 9, 69, 38
2, 121919, Note_on_c, 9, 69, 0
2, 121920, Note_on_c, 9, 56, 77
2, 121920, Note_on_c, 9, 70, 34
2, 121920, Note_on_c, 9, 42, 90
2, 122039, Note_on_c, 9, 56, 0
2, 122039, Note_on_c, 9, 70, 0
2, 122039, Note_on_c, 9, 42, 0
2, 122040, Note_on_c, 9, 56, 77
2, 122040, Note_on_c, 9, 69, 42
2, 122099, Note_on_c, 9, 56, 0
2, 122099, Note_on_c, 9, 69, 0
2, 122100, Note_on_c, 9, 42, 62
2, 122159, Note_on_c, 9, 42, 0
2, 122160, Note_on_c, 9, 70, 34
2, 122160, Note_on_c, 9, 35, 100
2, 122279, Note_on_c, 9, 70, 0
2, 122280, Note_on_c, 9, 69, 42
2, 122399, Note_on_c, 9, 35, 0
2, 122399, Note_on_c, 9, 69, 0
2, 122400, Note_on_c, 9, 56, 76
2, 122400, Note_on_c, 9, 70, 38
2, 122400, Note_on_c, 9, 42, 96
2, 122519, Note_on_c, 9, 56, 0
2, 122519, Note_on_c, 9, 70, 0
2, 122519, Note_on_c, 9, 42, 0
2, 122520, Note_on_c, 9, 56, 67
2, 122520, Note_on_c, 9, 69, 42
2, 122579, Note_on_c, 9, 56, 0
2, 122579, Note_on_c, 9, 69, 0
2, 122580, Note_on_c, 9, 42, 76
2, 122639, Note_on_c, 9, 42, 0
2, 122640, Note_on_c, 9, 37, 109
2, 122640, Note_on_c, 9, 70, 38
2, 122640, Note_on_c, 9, 35, 100
2, 122759, Note_on_c, 9, 37, 0
2, 122759, Note_on_c, 9, 70, 0
2, 122760, Note_on_c, 9, 69, 38
2, 122879, Note_on_c, 9, 35, 0
2, 122879, Note_on_c, 9, 69, 0
2, 122880, Note_on_c, 9, 56, 68
2, 122880, Note_on_c, 9, 70, 34
2, 122880, Note_on_c, 9, 42, 109
2, 122999, Note_on_c, 9, 56, 0
2, 122999, Note_on_c, 9, 70, 0
2, 122999, Note_on_c, 9, 42, 0
2, 123000, Note_on_c, 9, 56, 68
2, 123000, Note_on_c, 9, 69, 42
2, 123119, Note_on_c, 9, 56, 0
2, 123119, Note_on_c, 9, 69, 0
2, 123120, Note_on_c, 9, 70, 30
2, 123239, Note_on_c, 9, 70, 0
2, 123240, Note_on_c, 9, 69, 42
2, 123359, Note_on_c, 9, 69, 0
2, 123360, Note_on_c, 9, 56, 74
2, 123360, Note_on_c, 9, 70, 38
2, 123360, Note_on_c, 9, 42, 109
2, 123479, Note_on_c, 9, 56, 0
2, 123479, Note_on_c, 9, 70, 0
2, 123479, Note_on_c, 9, 42, 0
2, 123480, Note_on_c, 9, 56, 74
2, 123480, Note_on_c, 9, 69, 38
2, 123539, Note_on_c, 9, 56, 0
2, 123539, Note_on_c, 9, 69, 0
2, 123540, Note_on_c, 9, 42, 76
2, 123599, Note_on_c, 9, 42, 0
2, 123600, Note_on_c, 9, 37, 109
2, 123600, Note_on_c, 9, 70, 34
2, 123719, Note_on_c, 9, 37, 0
2, 123719, Note_on_c, 9, 70, 0
2, 123720, Note_on_c, 9, 69, 38
2, 123839, Note_on_c, 9, 69, 0
2, 123840, Note_on_c, 9, 46, 96
2, 123840, Note_on_c, 9, 56, 77
2, 123840, Note_on_c, 9, 70, 34
2, 123840, Note_on_c, 9, 57, 96
2, 123840, Note_on_c, 9, 35, 100
2, 123959, Note_on_c, 9, 46, 0
2, 123959, Note_on_c, 9, 56, 0
2, 123959, Note_on_c, 9, 70, 0
2, 123959, Note_on_c, 9, 57, 0
2, 123960, Note_on_c, 9, 56, 77
2, 124319, Note_on_c, 9, 35, 0
2, 124319, Note_on_c, 9, 56, 0
2, 124680, Note_on_c, 9, 66, 91
2, 124799, Note_on_c, 9, 66, 0
2, 124920, Note_on_c, 9, 66, 100
2, 125159, Note_on_c, 9, 66, 0
2, 125160, Note_on_c, 9, 66, 100
2, 125279, Note_on_c, 9, 66, 0
2, 125280, Note_on_c, 9, 56, 77
2, 125399, Note_on_c, 9, 56, 0
2, 125400, Note_on_c, 9, 56, 77
2, 125400, Note_on_c, 9, 66, 116
2, 125639, Note_on_c, 9, 56, 0
2, 125639, Note_on_c, 9, 66, 0
2, 125640, Note_on_c, 9, 66, 99
2, 125759, Note_on_c, 9, 66, 0
2, 125760, Note_on_c, 9, 46, 90
2, 125760, Note_on_c, 9, 56, 77
2, 125879, Note_on_c, 9, 46, 0
2, 125879, Note_on_c, 9, 56, 0
2, 125880, Note_on_c, 9, 56, 77
2, 125999, Note_on_c, 9, 56, 0
2, 126000, Note_on_c, 9, 70, 34
2, 126000, Note_on_c, 9, 49, 100
2, 126000, Note_on_c, 9, 44, 90
2, 126000, Note_on_c, 9, 35, 100
2, 126119, Note_on_c, 9, 70, 0
2, 126119, Note_on_c, 9, 49, 0
2, 126120, Note_on_c, 9, 69, 42
2, 126239, Note_on_c, 9, 44, 0
2, 126239, Note_on_c, 9, 35, 0
2, 126239, Note_on_c, 9, 69, 0
2, 126240, Note_on_c, 9, 56, 76
2, 126240, Note_on_c, 9, 70, 38
2, 126240, Note_on_c, 9, 42, 96
2, 126359, Note_on_c, 9, 56, 0
2, 126359, Note_on_c, 9, 70, 0
2, 126359, Note_on_c, 9, 42, 0
2, 126360, Note_on_c, 9, 56, 67
2, 126360, Note_on_c, 9, 69, 42
2, 126419, Note_on_c, 9, 56, 0
2, 126419, Note_on_c, 9, 69, 0
2, 126420, Note_on_c, 9, 42, 64
2, 126479, Note_on_c, 9, 42, 0
2, 126480, Note_on_c, 9, 37, 109
2, 126480, Note_on_c, 9, 70, 38
2, 126599, Note_on_c, 9, 37, 0
2, 126599, Note_on_c, 9, 70, 0
2, 126600, Note_on_c, 9, 69, 38
2, 126719, Note_on_c, 9, 69, 0
2, 126750, Note_on_c, 9, 56, 68
2, 126750, Note_on_c, 9, 70, 34
2, 126750, Note_on_c, 9, 42, 109
2, 126809, Note_on_c, 9, 56, 0
2, 126809, Note_on_c, 9, 70, 0
2, 126839, Note_on_c, 9, 42, 0
2, 126840, Note_on_c, 9, 56, 68
2, 126840, Note_on_c, 9, 69, 42
2, 126959, Note_on_c, 9, 56, 0
2, 126959, Note_on_c, 9, 69, 0
2, 126960, Note_on_c, 9, 70, 30
2, 126960, Note_on_c, 9, 35, 96
2, 127079, Note_on_c, 9, 70, 0
2, 127080, Note_on_c, 9, 69, 42
2, 127199, Note_on_c, 9, 35, 0
2, 127199, Note_on_c, 9, 69, 0
2, 127215, Note_on_c, 9, 46, 96
2, 127215, Note_on_c, 9, 56, 71
2, 127215, Note_on_c, 9, 70, 38
2, 127259, Note_on_c, 9, 46, 0
2, 127274, Note_on_c, 9, 56, 0
2, 127274, Note_on_c, 9, 70, 0
2, 127320, Note_on_c, 9, 56, 71
2, 127320, Note_on_c, 9, 69, 38
2, 127359, Note_on_c, 9, 56, 0
2, 127359, Note_on_c, 9, 69, 0
2, 127360, Note_on_c, 9, 42, 76
2, 127439, Note_on_c, 9, 42, 0
2, 127440, Note_on_c, 9, 37, 109
2, 127440, Note_on_c, 9, 70, 34
2, 127559, Note_on_c, 9, 37, 0
2, 127559, Note_on_c, 9, 70, 0
2, 127560, Note_on_c, 9, 69, 38
2, 127679, Note_on_c, 9, 69, 0
2, 127680, Note_on_c, 9, 56, 74
2, 127680, Note_on_c, 9, 70, 34
2, 127680, Note_on_c, 9, 42, 96
2, 127799, Note_on_c, 9, 56, 0
2, 127799, Note_on_c, 9, 70, 0
2, 127799, Note_on_c, 9, 42, 0
2, 127800, Note_on_c, 9, 56, 74
2, 127800, Note_on_c, 9, 69, 42
2, 127800, Note_on_c, 9, 77, 46
2, 127859, Note_on_c, 9, 56, 0
2, 127859, Note_on_c, 9, 69, 0
2, 127859, Note_on_c, 9, 77, 0
2, 127860, Note_on_c, 9, 42, 76
2, 127919, Note_on_c, 9, 42, 0
2, 127920, Note_on_c, 9, 70, 34
2, 127920, Note_on_c, 9, 35, 100
2, 128039, Note_on_c, 9, 70, 0
2, 128040, Note_on_c, 9, 69, 42
2, 128159, Note_on_c, 9, 35, 0
2, 128159, Note_on_c, 9, 69, 0
2, 128160, Note_on_c, 9, 46, 96
2, 128160, Note_on_c, 9, 56, 76
2, 128160, Note_on_c, 9, 70, 38
2, 128279, Note_on_c, 9, 46, 0
2, 128279, Note_on_c, 9, 56, 0
2, 128279, Note_on_c, 9, 70, 0
2, 128280, Note_on_c, 9, 56, 67
2, 128280, Note_on_c, 9, 69, 42
2, 128339, Note_on_c, 9, 56, 0
2, 128339, Note_on_c, 9, 69, 0
2, 128340, Note_on_c, 9, 42, 76
2, 128399, Note_on_c, 9, 42, 0
2, 128400, Note_on_c, 9, 37, 109
2, 128400, Note_on_c, 9, 70, 38
2, 128519, Note_on_c, 9, 37, 0
2, 128519, Note_on_c, 9, 70, 0
2, 128520, Note_on_c, 9, 69, 38
2, 128639, Note_on_c, 9, 69, 0
2, 128640, Note_on_c, 9, 56, 68
2, 128640, Note_on_c, 9, 65, 74
2, 128640, Note_on_c, 9, 70, 34
2, 128640, Note_on_c, 9, 77, 86
2, 128640, Note_on_c, 9, 42, 102
2, 128759, Note_on_c, 9, 56, 0
2, 128759, Note_on_c, 9, 65, 0
2, 128759, Note_on_c, 9, 70, 0
2, 128759, Note_on_c, 9, 77, 0
2, 128759, Note_on_c, 9, 42, 0
2, 128760, Note_on_c, 9, 56, 68
2, 128760, Note_on_c, 9, 65, 118
2, 128760, Note_on_c, 9, 69, 42
2, 128760, Note_on_c, 9, 77, 106
2, 128879, Note_on_c, 9, 56, 0
2, 128879, Note_on_c, 9, 65, 0
2, 128879, Note_on_c, 9, 69, 0
2, 128879, Note_on_c, 9, 77, 0
2, 128880, Note_on_c, 9, 70, 30
2, 128880, Note_on_c, 9, 77, 50
2, 128880, Note_on_c, 9, 35, 96
2, 128999, Note_on_c, 9, 70, 0
2, 128999, Note_on_c, 9, 77, 0
2, 129000, Note_on_c, 9, 37, 100
2, 129000, Note_on_c, 9, 69, 42
2, 129119, Note_on_c, 9, 35, 0
2, 129119, Note_on_c, 9, 37, 0
2, 129119, Note_on_c, 9, 69, 0
2, 129120, Note_on_c, 9, 46, 105
2, 129120, Note_on_c, 9, 56, 77
2, 129120, Note_on_c, 9, 65, 100
2, 129120, Note_on_c, 9, 70, 38
2, 129120, Note_on_c, 9, 77, 118
2, 129239, Note_on_c, 9, 46, 0
2, 129239, Note_on_c, 9, 56, 0
2, 129239, Note_on_c, 9, 65, 0
2, 129239, Note_on_c, 9, 70, 0
2, 129239, Note_on_c, 9, 77, 0
2, 129240, Note_on_c, 9, 56, 77
2, 129240, Note_on_c, 9, 69, 38
2, 129359, Note_on_c, 9, 56, 0
2, 129359, Note_on_c, 9, 69, 0
2, 129360, Note_on_c, 9, 37, 118
2, 129360, Note_on_c, 9, 65, 100
2, 129360, Note_on_c, 9, 70, 34
2, 129360, Note_on_c, 9, 44, 19
2, 129479, Note_on_c, 9, 37, 0
2, 129479, Note_on_c, 9, 65, 0
2, 129479, Note_on_c, 9, 70, 0
2, 129480, Note_on_c, 9, 66, 82
2, 129480, Note_on_c, 9, 69, 38
2, 129599, Note_on_c, 9, 44, 0
2, 129599, Note_on_c, 9, 66, 0
2, 129599, Note_on_c, 9, 69, 0
2, 129600, Note_on_c, 9, 46, 107
2, 129600, Note_on_c, 9, 56, 77
2, 129600, Note_on_c, 9, 70, 34
2, 129719, Note_on_c, 9, 46, 0
2, 129719, Note_on_c, 9, 56, 0
2, 129719, Note_on_c, 9, 70, 0
2, 129720, Note_on_c, 9, 56, 77
2, 129720, Note_on_c, 9, 69, 42
2, 129839, Note_on_c, 9, 56, 0
2, 129839, Note_on_c, 9, 69, 0
2, 129840, Note_on_c, 9, 70, 34
2, 129840, Note_on_c, 9, 44, 19
2, 129840, Note_on_c, 9, 35, 100
2, 129959, Note_on_c, 9, 70, 0
2, 129960, Note_on_c, 9, 69, 42
2, 130079, Note_on_c, 9, 44, 0
2, 130079, Note_on_c, 9, 35, 0
2, 130079, Note_on_c, 9, 69, 0
2, 130080, Note_on_c, 9, 56, 76
2, 130080, Note_on_c, 9, 70, 38
2, 130080, Note_on_c, 9, 42, 96
2, 130199, Note_on_c, 9, 56, 0
2, 130199, Note_on_c, 9, 70, 0
2, 130199, Note_on_c, 9, 42, 0
2, 130200, Note_on_c, 9, 56, 67
2, 130200, Note_on_c, 9, 69, 42
2, 130259, Note_on_c, 9, 56, 0
2, 130259, Note_on_c, 9, 69, 0
2, 130260, Note_on_c, 9, 42, 62
2, 130319, Note_on_c, 9, 42, 0
2, 130320, Note_on_c, 9, 37, 109
2, 130320, Note_on_c, 9, 70, 38
2, 130439, Note_on_c, 9, 37, 0
2, 130439, Note_on_c, 9, 70, 0
2, 130440, Note_on_c, 9, 69, 38
2, 130559, Note_on_c, 9, 69, 0
2, 130560, Note_on_c, 9, 56, 68
2, 130560, Note_on_c, 9, 70, 34
2, 130560, Note_on_c, 9, 42, 109
2, 130679, Note_on_c, 9, 56, 0
2, 130679, Note_on_c, 9, 70, 0
2, 130679, Note_on_c, 9, 42, 0
2, 130680, Note_on_c, 9, 56, 68
2, 130680, Note_on_c, 9, 69, 42
2, 130799, Note_on_c, 9, 56, 0
2, 130799, Note_on_c, 9, 69, 0
2, 130800, Note_on_c, 9, 70, 30
2, 130800, Note_on_c, 9, 35, 96
2, 130919, Note_on_c, 9, 70, 0
2, 130920, Note_on_c, 9, 69, 42
2, 131039, Note_on_c, 9, 35, 0
2, 131039, Note_on_c, 9, 69, 0
2, 131040, Note_on_c, 9, 56, 77
2, 131040, Note_on_c, 9, 70, 38
2, 131040, Note_on_c, 9, 42, 109
2, 131159, Note_on_c, 9, 56, 0
2, 131159, Note_on_c, 9, 70, 0
2, 131159, Note_on_c, 9, 42, 0
2, 131160, Note_on_c, 9, 56, 77
2, 131160, Note_on_c, 9, 69, 38
2, 131219, Note_on_c, 9, 56, 0
2, 131219, Note_on_c, 9, 69, 0
2, 131220, Note_on_c, 9, 42, 76
2, 131279, Note_on_c, 9, 42, 0
2, 131280, Note_on_c, 9, 37, 109
2, 131280, Note_on_c, 9, 70, 34
2, 131399, Note_on_c, 9, 37, 0
2, 131399, Note_on_c, 9, 70, 0
2, 131400, Note_on_c, 9, 69, 38
2, 131519, Note_on_c, 9, 69, 0
2, 131520, Note_on_c, 9, 56, 77
2, 131520, Note_on_c, 9, 70, 34
2, 131520, Note_on_c, 9, 42, 96
2, 131520, Note_on_c, 9, 49, 96
2, 131520, Note_on_c, 9, 35, 100
2, 131639, Note_on_c, 9, 56, 0
2, 131639, Note_on_c, 9, 70, 0
2, 131639, Note_on_c, 9, 42, 0
2, 131639, Note_on_c, 9, 49, 0
2, 131640, Note_on_c, 9, 56, 77
2, 131640, Note_on_c, 9, 69, 42
2, 131699, Note_on_c, 9, 56, 0
2, 131699, Note_on_c, 9, 69, 0
2, 131700, Note_on_c, 9, 42, 76
2, 131759, Note_on_c, 9, 42, 0
2, 131760, Note_on_c, 9, 65, 91
2, 131760, Note_on_c, 9, 70, 34
2, 131879, Note_on_c, 9, 65, 0
2, 131879, Note_on_c, 9, 70, 0
2, 131880, Note_on_c, 9, 69, 42
2, 131999, Note_on_c, 9, 35, 0
2, 131999, Note_on_c, 9, 69, 0
2, 132000, Note_on_c, 9, 56, 76
2, 132000, Note_on_c, 9, 70, 38
2, 132000, Note_on_c, 9, 42, 96
2, 132119, Note_on_c, 9, 56, 0
2, 132119, Note_on_c, 9, 70, 0
2, 132119, Note_on_c, 9, 42, 0
2, 132120, Note_on_c, 9, 56, 67
2, 132120, Note_on_c, 9, 65, 91
2, 132120, Note_on_c, 9, 69, 42
2, 132179, Note_on_c, 9, 56, 0
2, 132179, Note_on_c, 9, 65, 0
2, 132179, Note_on_c, 9, 69, 0
2, 132180, Note_on_c, 9, 42, 76
2, 132239, Note_on_c, 9, 42, 0
2, 132240, Note_on_c, 9, 37, 109
2, 132240, Note_on_c, 9, 70, 38
2, 132359, Note_on_c, 9, 37, 0
2, 132359, Note_on_c, 9, 70, 0
2, 132360, Note_on_c, 9, 69, 38
2, 132479, Note_on_c, 9, 69, 0
2, 132480, Note_on_c, 9, 56, 68
2, 132480, Note_on_c, 9, 65, 100
2, 132480, Note_on_c, 9, 70, 34
2, 132480, Note_on_c, 9, 77, 98
2, 132480, Note_on_c, 9, 42, 102
2, 132599, Note_on_c, 9, 56, 0
2, 132599, Note_on_c, 9, 65, 0
2, 132599, Note_on_c, 9, 70, 0
2, 132599, Note_on_c, 9, 77, 0
2, 132599, Note_on_c, 9, 42, 0
2, 132615, Note_on_c, 9, 56, 68
2, 132615, Note_on_c, 9, 48, 96
2, 132615, Note_on_c, 9, 69, 42
2, 132659, Note_on_c, 9, 48, 0
2, 132734, Note_on_c, 9, 56, 0
2, 132734, Note_on_c, 9, 69, 0
2, 132735, Note_on_c, 9, 37, 109
2, 132735, Note_on_c, 9, 47, 96
2, 132735, Note_on_c, 9, 70, 30
2, 132735, Note_on_c, 9, 42, 102
2, 132779, Note_on_c, 9, 47, 0
2, 132779, Note_on_c, 9, 42, 0
2, 132794, Note_on_c, 9, 37, 0
2, 132794, Note_on_c, 9, 70, 0
2, 132840, Note_on_c, 9, 69, 42
2, 132959, Note_on_c, 9, 69, 0
2, 132960, Note_on_c, 9, 56, 77
2, 132960, Note_on_c, 9, 70, 38
2, 132960, Note_on_c, 9, 42, 108
2, 133079, Note_on_c, 9, 56, 0
2, 133079, Note_on_c, 9, 70, 0
2, 133079, Note_on_c, 9, 42, 0
2, 133080, Note_on_c, 9, 37, 100
2, 133080, Note_on_c, 9, 56, 77
2, 133080, Note_on_c, 9, 69, 38
2, 133139, Note_on_c, 9, 37, 0
2, 133139, Note_on_c, 9, 56, 0
2, 133139, Note_on_c, 9, 69, 0
2, 133140, Note_on_c, 9, 42, 62
2, 133199, Note_on_c, 9, 42, 0
2, 133200, Note_on_c, 9, 65, 61
2, 133200, Note_on_c, 9, 70, 34
2, 133200, Note_on_c, 9, 35, 100
2, 133319, Note_on_c, 9, 65, 0
2, 133319, Note_on_c, 9, 70, 0
2, 133335, Note_on_c, 9, 65, 73
2, 133335, Note_on_c, 9, 69, 38
2, 133379, Note_on_c, 9, 65, 0
2, 133380, Note_on_c, 9, 42, 62
2, 133394, Note_on_c, 9, 69, 0
2, 133439, Note_on_c, 9, 35, 0
2, 133439, Note_on_c, 9, 42, 0
2, 133455, Note_on_c, 9, 37, 118
2, 133455, Note_on_c, 9, 56, 77
2, 133455, Note_on_c, 9, 65, 100
2, 133455, Note_on_c, 9, 70, 34
2, 133455, Note_on_c, 9, 42, 90
2, 133499, Note_on_c, 9, 65, 0
2, 133499, Note_on_c, 9, 42, 0
2, 133514, Note_on_c, 9, 37, 0
2, 133514, Note_on_c, 9, 56, 0
2, 133514, Note_on_c, 9, 70, 0
2, 133560, Note_on_c, 9, 56, 77
2, 133560, Note_on_c, 9, 69, 42
2, 133679, Note_on_c, 9, 56, 0
2, 133679, Note_on_c, 9, 69, 0
2, 133680, Note_on_c, 9, 35, 100
2, 133695, Note_on_c, 9, 70, 34
2, 133695, Note_on_c, 9, 42, 109
2, 133754, Note_on_c, 9, 70, 0
2, 133919, Note_on_c, 9, 35, 0
2, 133919, Note_on_c, 9, 42, 0
2, 133920, Note_on_c, 9, 42, 96
2, 133999, Note_on_c, 9, 42, 0
2, 134080, Note_on_c, 9, 37, 100
2, 134239, Note_on_c, 9, 37, 0
2, 134240, Note_on_c, 9, 42, 109
2, 134319, Note_on_c, 9, 42, 0
2, 134400, Note_on_c, 9, 42, 109
2, 134759, Note_on_c, 9, 42, 0
2, 134760, Note_on_c, 9, 42, 109
2, 134879, Note_on_c, 9, 42, 0
2, 135060, Note_on_c, 9, 69, 100
2, 135060, Note_on_c, 9, 42, 96
2, 135299, Note_on_c, 9, 69, 0
2, 135299, Note_on_c, 9, 42, 0
2, 135300, Note_on_c, 9, 42, 92
2, 135359, Note_on_c, 9, 42, 0
2, 135360, Note_on_c, 9, 37, 109
2, 135719, Note_on_c, 9, 37, 0
2, 135720, Note_on_c, 9, 69, 91
2, 135720, Note_on_c, 9, 42, 96
2, 135839, Note_on_c, 9, 69, 0
2, 135839, Note_on_c, 9, 42, 0
2, 136080, Note_on_c, 9, 35, 100
2, 136319, Note_on_c, 9, 35, 0
2, 136320, Note_on_c, 9, 42, 96
2, 136479, Note_on_c, 9, 42, 0
2, 136480, Note_on_c, 9, 42, 76
2, 136559, Note_on_c, 9, 42, 0
2, 136560, Note_on_c, 9, 37, 100
2, 136799, Note_on_c, 9, 37, 0
2, 136800, Note_on_c, 9, 42, 102
2, 137279, Note_on_c, 9, 42, 0
2, 137280, Note_on_c, 9, 69, 91
2, 137280, Note_on_c, 9, 42, 108
2, 137439, Note_on_c, 9, 69, 0
2, 137439, Note_on_c, 9, 42, 0
2, 137440, Note_on_c, 9, 42, 62
2, 137519, Note_on_c, 9, 42, 0
2, 137520, Note_on_c, 9, 37, 109
2, 137759, Note_on_c, 9, 37, 0
2, 137800, Note_on_c, 9, 69, 91
2, 137800, Note_on_c, 9, 42, 90
2, 137879, Note_on_c, 9, 69, 0
2, 137919, Note_on_c, 9, 42, 0
2, 137920, Note_on_c, 9, 42, 62
2, 137999, Note_on_c, 9, 42, 0
2, 138000, Note_on_c, 9, 42, 109
2, 138000, Note_on_c, 9, 35, 100
2, 138239, Note_on_c, 9, 42, 0
2, 138239, Note_on_c, 9, 35, 0
2, 138240, Note_on_c, 9, 42, 96
2, 138359, Note_on_c, 9, 42, 0
2, 138360, Note_on_c, 9, 37, 100
2, 138719, Note_on_c, 9, 37, 0
2, 138720, Note_on_c, 9, 42, 109
2, 138959, Note_on_c, 9, 42, 0
2, 138960, Note_on_c, 9, 42, 109
2, 138960, Note_on_c, 9, 35, 100
2, 139199, Note_on_c, 9, 42, 0
2, 139199, Note_on_c, 9, 35, 0
2, 139200, Note_on_c, 9, 69, 82
2, 139200, Note_on_c, 9, 42, 96
2, 139359, Note_on_c, 9, 69, 0
2, 139359, Note_on_c, 9, 42, 0
2, 139360, Note_on_c, 9, 42, 76
2, 139439, Note_on_c, 9, 42, 0
2, 139440, Note_on_c, 9, 37, 109
2, 139679, Note_on_c, 9, 37, 0
2, 139680, Note_on_c, 9, 46, 96
2, 139680, Note_on_c, 9, 69, 91
2, 139680, Note_on_c, 9, 35, 100
2, 140159, Note_on_c, 9, 46, 0
2, 140159, Note_on_c, 9, 69, 0
2, 140159, Note_on_c, 9, 35, 0
2, 140160, Note_on_c, 9, 42, 96
2, 140279, Note_on_c, 9, 42, 0
2, 140280, Note_on_c, 9, 37, 100
2, 140639, Note_on_c, 9, 37, 0
2, 140640, Note_on_c, 9, 42, 102
2, 140879, Note_on_c, 9, 42, 0
2, 140880, Note_on_c, 9, 49, 90
2, 140880, Note_on_c, 9, 35, 100
2, 141119, Note_on_c, 9, 49, 0
2, 141119, Note_on_c, 9, 35, 0
2, 141120, Note_on_c, 9, 69, 82
2, 141120, Note_on_c, 9, 44, 88
2, 141359, Note_on_c, 9, 69, 0
2, 141359, Note_on_c, 9, 44, 0
2, 141360, Note_on_c, 9, 57, 90
2, 141360, Note_on_c, 9, 35, 100
2, 141599, Note_on_c, 9, 57, 0
2, 141599, Note_on_c, 9, 35, 0
2, 141600, Note_on_c, 9, 69, 91
2, 141600, Note_on_c, 9, 44, 88
2, 141839, Note_on_c, 9, 69, 0
2, 141839, Note_on_c, 9, 44, 0
2, 141840, Note_on_c, 9, 42, 109
2, 141840, Note_on_c, 9, 35, 100
2, 142079, Note_on_c, 9, 42, 0
2, 142079, Note_on_c, 9, 35, 0
2, 142080, Note_on_c, 9, 42, 96
2, 142259, Note_on_c, 9, 42, 0
2, 142260, Note_on_c, 9, 42, 73
2, 142319, Note_on_c, 9, 42, 0
2, 142320, Note_on_c, 9, 37, 109
2, 142559, Note_on_c, 9, 37, 0
2, 142680, Note_on_c, 9, 42, 109
2, 143009, Note_on_c, 9, 42, 0
2, 143010, Note_on_c, 9, 65, 91
2, 143039, Note_on_c, 9, 65, 0
2, 143040, Note_on_c, 9, 65, 78
2, 143159, Note_on_c, 9, 65, 0
2, 143175, Note_on_c, 9, 42, 96
2, 143219, Note_on_c, 9, 42, 0
2, 143250, Note_on_c, 9, 65, 100
2, 143279, Note_on_c, 9, 65, 0
2, 143280, Note_on_c, 9, 65, 82
2, 143339, Note_on_c, 9, 65, 0
2, 143340, Note_on_c, 9, 42, 76
2, 143399, Note_on_c, 9, 42, 0
2, 143430, Note_on_c, 9, 65, 110
2, 143519, Note_on_c, 9, 65, 0
2, 143520, Note_on_c, 9, 37, 109
2, 143520, Note_on_c, 9, 65, 92
2, 143579, Note_on_c, 9, 37, 0
2, 143579, Note_on_c, 9, 65, 0
2, 143625, Note_on_c, 9, 65, 101
2, 143639, Note_on_c, 9, 65, 0
2, 143640, Note_on_c, 9, 65, 92
2, 143699, Note_on_c, 9, 65, 0
2, 143700, Note_on_c, 9, 42, 96
2, 143759, Note_on_c, 9, 42, 0
2, 143760, Note_on_c, 9, 65, 101
2, 143879, Note_on_c, 9, 65, 0
2, 143880, Note_on_c, 9, 42, 76
2, 143939, Note_on_c, 9, 42, 0
2, 143985, Note_on_c, 9, 65, 119
2, 143999, Note_on_c, 9, 65, 0
2, 144000, Note_on_c, 9, 65, 110
2, 144000, Note_on_c, 9, 35, 100
2, 144239, Note_on_c, 9, 65, 0
2, 144240, Note_on_c, 9, 42, 96
2, 144419, Note_on_c, 9, 42, 0
2, 144420, Note_on_c, 9, 42, 76
2, 144479, Note_on_c, 9, 35, 0
2, 144479, Note_on_c, 9, 42, 0
2, 144480, Note_on_c, 9, 37, 109
2, 144839, Note_on_c, 9, 37, 0
2, 144840, Note_on_c, 9, 42, 102
2, 144959, Note_on_c, 9, 42, 0
2, 145200, Note_on_c, 9, 37, 100
2, 145379, Note_on_c, 9, 37, 0
2, 145380, Note_on_c, 9, 42, 108
2, 145439, Note_on_c, 9, 42, 0
2, 145680, Note_on_c, 9, 37, 118
2, 145919, Note_on_c, 9, 37, 0
2, 145920, Note_on_c, 9, 42, 90
2, 145920, Note_on_c, 9, 35, 100
2, 146079, Note_on_c, 9, 42, 0
2, 146080, Note_on_c, 9, 42, 76
2, 146159, Note_on_c, 9, 35, 0
2, 146159, Note_on_c, 9, 42, 0
2, 146160, Note_on_c, 9, 35, 100
2, 146399, Note_on_c, 9, 35, 0
2, 146400, Note_on_c, 9, 42, 96
2, 146579, Note_on_c, 9, 42, 0
2, 146580, Note_on_c, 9, 42, 73
2, 146639, Note_on_c, 9, 42, 0
2, 146640, Note_on_c, 9, 37, 109
2, 146879, Note_on_c, 9, 37, 0
2, 147000, Note_on_c, 9, 42, 109
2, 147359, Note_on_c, 9, 42, 0
2, 147360, Note_on_c, 9, 66, 91
2, 147360, Note_on_c, 9, 35, 100
2, 147379, Note_on_c, 9, 66, 0
2, 147380, Note_on_c, 9, 66, 78
2, 147419, Note_on_c, 9, 66, 0
2, 147480, Note_on_c, 9, 42, 96
2, 147539, Note_on_c, 9, 42, 0
2, 147540, Note_on_c, 9, 66, 100
2, 147599, Note_on_c, 9, 66, 0
2, 147600, Note_on_c, 9, 66, 82
2, 147659, Note_on_c, 9, 66, 0
2, 147660, Note_on_c, 9, 42, 76
2, 147704, Note_on_c, 9, 42, 0
2, 147705, Note_on_c, 9, 66, 110
2, 147719, Note_on_c, 9, 66, 0
2, 147720, Note_on_c, 9, 37, 109
2, 147720, Note_on_c, 9, 66, 92
2, 147839, Note_on_c, 9, 35, 0
2, 147839, Note_on_c, 9, 37, 0
2, 147839, Note_on_c, 9, 66, 0
2, 147840, Note_on_c, 9, 35, 100
2, 147885, Note_on_c, 9, 66, 101
2, 147899, Note_on_c, 9, 66, 0
2, 147960, Note_on_c, 9, 66, 92
2, 148019, Note_on_c, 9, 66, 0
2, 148020, Note_on_c, 9, 42, 96
2, 148064, Note_on_c, 9, 42, 0
2, 148065, Note_on_c, 9, 66, 101
2, 148079, Note_on_c, 9, 35, 0
2, 148079, Note_on_c, 9, 66, 0
2, 148080, Note_on_c, 9, 66, 101
2, 148080, Note_on_c, 9, 35, 100
2, 148159, Note_on_c, 9, 66, 0
2, 148160, Note_on_c, 9, 42, 76
2, 148199, Note_on_c, 9, 42, 0
2, 148260, Note_on_c, 9, 66, 119
2, 148279, Note_on_c, 9, 66, 0
2, 148280, Note_on_c, 9, 66, 110
2, 148319, Note_on_c, 9, 35, 0
2, 148319, Note_on_c, 9, 66, 0
2, 148560, Note_on_c, 9, 42, 96
2, 148679, Note_on_c, 9, 42, 0
2, 148680, Note_on_c, 9, 42, 76
2, 148799, Note_on_c, 9, 42, 0
2, 148920, Note_on_c, 9, 37, 100
2, 149039, Note_on_c, 9, 37, 0
2, 149040, Note_on_c, 9, 42, 102
2, 149279, Note_on_c, 9, 42, 0
2, 149280, Note_on_c, 9, 35, 96
2, 149310, Note_on_c, 9, 37, 118
2, 149310, Note_on_c, 9, 38, 96
2, 149310, Note_on_c, 9, 42, 113
2, 149310, Note_on_c, 9, 52, 100
2, 149369, Note_on_c, 9, 37, 0
2, 149369, Note_on_c, 9, 38, 0
2, 149369, Note_on_c, 9, 52, 0
2, 149759, Note_on_c, 9, 35, 0
2, 149759, Note_on_c, 9, 42, 0
2, 149760, Note_on_c, 9, 47, 66
2, 150239, Note_on_c, 9, 47, 0
2, 150240, Note_on_c, 9, 57, 95
2, 150240, Note_on_c, 9, 35, 100
2, 150479, Note_on_c, 9, 57, 0
2, 150495, Note_on_c, 9, 42, 96
2, 150719, Note_on_c, 9, 35, 0
2, 150719, Note_on_c, 9, 42, 0
2, 150720, Note_on_c, 9, 37, 109
2, 150959, Note_on_c, 9, 37, 0
2, 150960, Note_on_c, 9, 42, 109
2, 151199, Note_on_c, 9, 42, 0
2, 151200, Note_on_c, 9, 35, 100
2, 151440, Note_on_c, 9, 42, 96
2, 151559, Note_on_c, 9, 42, 0
2, 151560, Note_on_c, 9, 42, 76
2, 151679, Note_on_c, 9, 35, 0
2, 151679, Note_on_c, 9, 42, 0
2, 151680, Note_on_c, 9, 37, 109
2, 151919, Note_on_c, 9, 37, 0
2, 151920, Note_on_c, 9, 42, 96
2, 152039, Note_on_c, 9, 42, 0
2, 152040, Note_on_c, 9, 42, 76
2, 152159, Note_on_c, 9, 42, 0
2, 152160, Note_on_c, 9, 35, 100
2, 152400, Note_on_c, 9, 42, 96
2, 152519, Note_on_c, 9, 42, 0
2, 152520, Note_on_c, 9, 42, 76
2, 152639, Note_on_c, 9, 35, 0
2, 152639, Note_on_c, 9, 42, 0
2, 152640, Note_on_c, 9, 37, 109
2, 152879, Note_on_c, 9, 37, 0
2, 152880, Note_on_c, 9, 42, 102
2, 153119, Note_on_c, 9, 42, 0
2, 153240, Note_on_c, 9, 37, 100
2, 153359, Note_on_c, 9, 37, 0
2, 153360, Note_on_c, 9, 42, 108
2, 153599, Note_on_c, 9, 42, 0
2, 153600, Note_on_c, 9, 37, 118
2, 153839, Note_on_c, 9, 37, 0
2, 153880, Note_on_c, 9, 42, 90
2, 153999, Note_on_c, 9, 42, 0
2, 154000, Note_on_c, 9, 42, 76
2, 154079, Note_on_c, 9, 42, 0
2, 154080, Note_on_c, 9, 35, 100
2, 154360, Note_on_c, 9, 42, 96
2, 154479, Note_on_c, 9, 42, 0
2, 154480, Note_on_c, 9, 42, 73
2, 154559, Note_on_c, 9, 35, 0
2, 154559, Note_on_c, 9, 42, 0
2, 154560, Note_on_c, 9, 37, 109
2, 154560, Note_on_c, 9, 35, 100
2, 154799, Note_on_c, 9, 37, 0
2, 154815, Note_on_c, 9, 42, 109
2, 155039, Note_on_c, 9, 35, 0
2, 155039, Note_on_c, 9, 42, 0
2, 155280, Note_on_c, 9, 42, 96
2, 155439, Note_on_c, 9, 42, 0
2, 155440, Note_on_c, 9, 42, 76
2, 155519, Note_on_c, 9, 42, 0
2, 155520, Note_on_c, 9, 37, 109
2, 155759, Note_on_c, 9, 37, 0
2, 155760, Note_on_c, 9, 42, 96
2, 155760, Note_on_c, 9, 35, 100
2, 155879, Note_on_c, 9, 42, 0
2, 155880, Note_on_c, 9, 42, 76
2, 155999, Note_on_c, 9, 35, 0
2, 155999, Note_on_c, 9, 42, 0
2, 156240, Note_on_c, 9, 42, 96
2, 156359, Note_on_c, 9, 42, 0
2, 156360, Note_on_c, 9, 42, 76
2, 156479, Note_on_c, 9, 42, 0
2, 156480, Note_on_c, 9, 37, 109
2, 156719, Note_on_c, 9, 37, 0
2, 156720, Note_on_c, 9, 42, 102
2, 156839, Note_on_c, 9, 42, 0
2, 156840, Note_on_c, 9, 42, 58
2, 156959, Note_on_c, 9, 42, 0
2, 156960, Note_on_c, 9, 35, 100
2, 157080, Note_on_c, 9, 37, 100
2, 157199, Note_on_c, 9, 35, 0
2, 157199, Note_on_c, 9, 37, 0
2, 157200, Note_on_c, 9, 42, 108
2, 157200, Note_on_c, 9, 35, 100
2, 157439, Note_on_c, 9, 42, 0
2, 157439, Note_on_c, 9, 35, 0
2, 157440, Note_on_c, 9, 37, 118
2, 157679, Note_on_c, 9, 37, 0
2, 157680, Note_on_c, 9, 35, 100
2, 157720, Note_on_c, 9, 37, 116
2, 157720, Note_on_c, 9, 42, 90
2, 157839, Note_on_c, 9, 37, 0
2, 157839, Note_on_c, 9, 42, 0
2, 157840, Note_on_c, 9, 37, 105
2, 157919, Note_on_c, 9, 35, 0
2, 157919, Note_on_c, 9, 37, 0
2, 157920, Note_on_c, 9, 35, 100
2, 158175, Note_on_c, 9, 42, 96
2, 158219, Note_on_c, 9, 42, 0
2, 158280, Note_on_c, 9, 42, 73
2, 158399, Note_on_c, 9, 35, 0
2, 158399, Note_on_c, 9, 42, 0
2, 158400, Note_on_c, 9, 37, 109
2, 158639, Note_on_c, 9, 37, 0
2, 158640, Note_on_c, 9, 42, 109
2, 158879, Note_on_c, 9, 42, 0
2, 159120, Note_on_c, 9, 42, 96
2, 159279, Note_on_c, 9, 42, 0
2, 159280, Note_on_c, 9, 42, 57
2, 159359, Note_on_c, 9, 42, 0
2, 159360, Note_on_c, 9, 37, 109
2, 159599, Note_on_c, 9, 37, 0
2, 159600, Note_on_c, 9, 42, 96
2, 159719, Note_on_c, 9, 42, 0
2, 159720, Note_on_c, 9, 42, 76
2, 159839, Note_on_c, 9, 42, 0
2, 159840, Note_on_c, 9, 35, 100
2, 160080, Note_on_c, 9, 42, 96
2, 160199, Note_on_c, 9, 42, 0
2, 160200, Note_on_c, 9, 42, 76
2, 160319, Note_on_c, 9, 35, 0
2, 160319, Note_on_c, 9, 42, 0
2, 160320, Note_on_c, 9, 37, 109
2, 160559, Note_on_c, 9, 37, 0
2, 160560, Note_on_c, 9, 42, 102
2, 160799, Note_on_c, 9, 42, 0
2, 160920, Note_on_c, 9, 37, 100
2, 161039, Note_on_c, 9, 37, 0
2, 161080, Note_on_c, 9, 42, 108
2, 161199, Note_on_c, 9, 42, 0
2, 161200, Note_on_c, 9, 42, 76
2, 161279, Note_on_c, 9, 42, 0
2, 161280, Note_on_c, 9, 37, 118
2, 161519, Note_on_c, 9, 37, 0
2, 161560, Note_on_c, 9, 42, 90
2, 161679, Note_on_c, 9, 42, 0
2, 161680, Note_on_c, 9, 42, 76
2, 161759, Note_on_c, 9, 42, 0
2, 161760, Note_on_c, 9, 35, 100
2, 162015, Note_on_c, 9, 42, 96
2, 162059, Note_on_c, 9, 42, 0
2, 162120, Note_on_c, 9, 42, 73
2, 162239, Note_on_c, 9, 35, 0
2, 162239, Note_on_c, 9, 42, 0
2, 162240, Note_on_c, 9, 37, 109
2, 162479, Note_on_c, 9, 37, 0
2, 162480, Note_on_c, 9, 42, 109
2, 162719, Note_on_c, 9, 42, 0
2, 162960, Note_on_c, 9, 42, 96
2, 163119, Note_on_c, 9, 42, 0
2, 163120, Note_on_c, 9, 42, 76
2, 163199, Note_on_c, 9, 42, 0
2, 163200, Note_on_c, 9, 37, 109
2, 163439, Note_on_c, 9, 37, 0
2, 163440, Note_on_c, 9, 46, 96
2, 163440, Note_on_c, 9, 35, 100
2, 163679, Note_on_c, 9, 46, 0
2, 163679, Note_on_c, 9, 35, 0
2, 163680, Note_on_c, 9, 42, 76
2, 163799, Note_on_c, 9, 42, 0
2, 163800, Note_on_c, 9, 56, 65
2, 163919, Note_on_c, 9, 56, 0
2, 163920, Note_on_c, 9, 56, 70
2, 163920, Note_on_c, 9, 42, 96
2, 163979, Note_on_c, 9, 42, 0
2, 164009, Note_on_c, 9, 56, 0
2, 164025, Note_on_c, 9, 56, 93
2, 164040, Note_on_c, 9, 42, 76
2, 164159, Note_on_c, 9, 56, 0
2, 164159, Note_on_c, 9, 42, 0
2, 164160, Note_on_c, 9, 37, 109
2, 164279, Note_on_c, 9, 37, 0
2, 164280, Note_on_c, 9, 56, 54
2, 164399, Note_on_c, 9, 56, 0
2, 164400, Note_on_c, 9, 56, 67
2, 164400, Note_on_c, 9, 42, 102
2, 164519, Note_on_c, 9, 56, 0
2, 164519, Note_on_c, 9, 42, 0
2, 164520, Note_on_c, 9, 56, 93
2, 164639, Note_on_c, 9, 56, 0
2, 164640, Note_on_c, 9, 37, 109
2, 164759, Note_on_c, 9, 37, 0
2, 164760, Note_on_c, 9, 56, 74
2, 164760, Note_on_c, 9, 42, 81
2, 164999, Note_on_c, 9, 56, 0
2, 164999, Note_on_c, 9, 42, 0
2, 165000, Note_on_c, 9, 37, 100
2, 165000, Note_on_c, 9, 56, 93
2, 165119, Note_on_c, 9, 37, 0
2, 165119, Note_on_c, 9, 56, 0
2, 165120, Note_on_c, 9, 42, 76
2, 165120, Note_on_c, 9, 35, 100
2, 165279, Note_on_c, 9, 42, 0
2, 165280, Note_on_c, 9, 56, 78
2, 165280, Note_on_c, 9, 42, 76
2, 165359, Note_on_c, 9, 56, 0
2, 165359, Note_on_c, 9, 42, 0
2, 165360, Note_on_c, 9, 37, 116
2, 165360, Note_on_c, 9, 56, 79
2, 165360, Note_on_c, 9, 42, 77
2, 165479, Note_on_c, 9, 37, 0
2, 165479, Note_on_c, 9, 56, 0
2, 165479, Note_on_c, 9, 42, 0
2, 165495, Note_on_c, 9, 37, 107
2, 165495, Note_on_c, 9, 56, 99
2, 165539, Note_on_c, 9, 56, 0
2, 165554, Note_on_c, 9, 37, 0
2, 165599, Note_on_c, 9, 35, 0
2, 165600, Note_on_c, 9, 42, 109
2, 165600, Note_on_c, 9, 35, 100
2, 165839, Note_on_c, 9, 42, 0
2, 165855, Note_on_c, 9, 42, 96
2, 165899, Note_on_c, 9, 42, 0
2, 165960, Note_on_c, 9, 42, 73
2, 166079, Note_on_c, 9, 35, 0
2, 166079, Note_on_c, 9, 42, 0
2, 166080, Note_on_c, 9, 37, 109
2, 166319, Note_on_c, 9, 37, 0
2, 166320, Note_on_c, 9, 42, 109
2, 166559, Note_on_c, 9, 42, 0
2, 166800, Note_on_c, 9, 42, 96
2, 166959, Note_on_c, 9, 42, 0
2, 166960, Note_on_c, 9, 42, 76
2, 167039, Note_on_c, 9, 42, 0
2, 167040, Note_on_c, 9, 37, 109
2, 167279, Note_on_c, 9, 37, 0
2, 167280, Note_on_c, 9, 42, 96
2, 167399, Note_on_c, 9, 42, 0
2, 167400, Note_on_c, 9, 42, 76
2, 167519, Note_on_c, 9, 42, 0
2, 167520, Note_on_c, 9, 35, 100
2, 167760, Note_on_c, 9, 42, 96
2, 167879, Note_on_c, 9, 42, 0
2, 167880, Note_on_c, 9, 42, 76
2, 167999, Note_on_c, 9, 35, 0
2, 167999, Note_on_c, 9, 42, 0
2, 168000, Note_on_c, 9, 37, 109
2, 168239, Note_on_c, 9, 37, 0
2, 168240, Note_on_c, 9, 42, 102
2, 168479, Note_on_c, 9, 42, 0
2, 168480, Note_on_c, 9, 35, 96
2, 168600, Note_on_c, 9, 37, 100
2, 168719, Note_on_c, 9, 37, 0
2, 168720, Note_on_c, 9, 42, 108
2, 168959, Note_on_c, 9, 35, 0
2, 168959, Note_on_c, 9, 42, 0
2, 168960, Note_on_c, 9, 37, 118
2, 168960, Note_on_c, 9, 42, 116
2, 168960, Note_on_c, 9, 35, 100
2, 169199, Note_on_c, 9, 37, 0
2, 169199, Note_on_c, 9, 42, 0
2, 169240, Note_on_c, 9, 37, 116
2, 169240, Note_on_c, 9, 42, 90
2, 169359, Note_on_c, 9, 37, 0
2, 169359, Note_on_c, 9, 42, 0
2, 169360, Note_on_c, 9, 37, 99
2, 169360, Note_on_c, 9, 42, 58
2, 169439, Note_on_c, 9, 35, 0
2, 169439, Note_on_c, 9, 37, 0
2, 169439, Note_on_c, 9, 42, 0
2, 169440, Note_on_c, 9, 42, 70
2, 169440, Note_on_c, 9, 35, 100
2, 169679, Note_on_c, 9, 42, 0
2, 169720, Note_on_c, 9, 42, 96
2, 169839, Note_on_c, 9, 42, 0
2, 169840, Note_on_c, 9, 42, 73
2, 169919, Note_on_c, 9, 35, 0
2, 169919, Note_on_c, 9, 42, 0
2, 169920, Note_on_c, 9, 37, 109
2, 170159, Note_on_c, 9, 37, 0
2, 170160, Note_on_c, 9, 42, 109
2, 170399, Note_on_c, 9, 42, 0
2, 170400, Note_on_c, 9, 35, 96
2, 170680, Note_on_c, 9, 42, 96
2, 170799, Note_on_c, 9, 42, 0
2, 170800, Note_on_c, 9, 42, 76
2, 170879, Note_on_c, 9, 35, 0
2, 170879, Note_on_c, 9, 42, 0
2, 170880, Note_on_c, 9, 37, 109
2, 171119, Note_on_c, 9, 37, 0
2, 171160, Note_on_c, 9, 42, 96
2, 171279, Note_on_c, 9, 42, 0
2, 171280, Note_on_c, 9, 42, 76
2, 171359, Note_on_c, 9, 42, 0
2, 171360, Note_on_c, 9, 35, 100
2, 171600, Note_on_c, 9, 42, 96
2, 171759, Note_on_c, 9, 42, 0
2, 171760, Note_on_c, 9, 42, 76
2, 171839, Note_on_c, 9, 35, 0
2, 171839, Note_on_c, 9, 42, 0
2, 171840, Note_on_c, 9, 37, 109
2, 172079, Note_on_c, 9, 37, 0
2, 172080, Note_on_c, 9, 42, 102
2, 172319, Note_on_c, 9, 42, 0
2, 172320, Note_on_c, 9, 42, 102
2, 172320, Note_on_c, 9, 35, 100
2, 172559, Note_on_c, 9, 42, 0
2, 172600, Note_on_c, 9, 42, 108
2, 172719, Note_on_c, 9, 42, 0
2, 172720, Note_on_c, 9, 42, 75
2, 172799, Note_on_c, 9, 35, 0
2, 172799, Note_on_c, 9, 42, 0
2, 172800, Note_on_c, 9, 37, 109
2, 172800, Note_on_c, 9, 35, 100
2, 173039, Note_on_c, 9, 37, 0
2, 173039, Note_on_c, 9, 35, 0
2, 173040, Note_on_c, 9, 35, 100
2, 173080, Note_on_c, 9, 42, 90
2, 173199, Note_on_c, 9, 42, 0
2, 173200, Note_on_c, 9, 42, 62
2, 173279, Note_on_c, 9, 35, 0
2, 173279, Note_on_c, 9, 42, 0
2, 173280, Note_on_c, 9, 42, 109
2, 173519, Note_on_c, 9, 42, 0
2, 173580, Note_on_c, 9, 42, 96
2, 173759, Note_on_c, 9, 42, 0
2, 173760, Note_on_c, 9, 42, 73
2, 173879, Note_on_c, 9, 42, 0
2, 173880, Note_on_c, 9, 37, 109
2, 174119, Note_on_c, 9, 37, 0
2, 174120, Note_on_c, 9, 42, 109
2, 174239, Note_on_c, 9, 42, 0
2, 174840, Note_on_c, 9, 42, 96
2, 175079, Note_on_c, 9, 42, 0
2, 175080, Note_on_c, 9, 42, 76
2, 175199, Note_on_c, 9, 42, 0
2, 175200, Note_on_c, 9, 37, 109
2, 175439, Note_on_c, 9, 37, 0
2, 175480, Note_on_c, 9, 42, 96
2, 175599, Note_on_c, 9, 42, 0
2, 175600, Note_on_c, 9, 42, 76
2, 175679, Note_on_c, 9, 42, 0
2, 175680, Note_on_c, 9, 35, 100
2, 175980, Note_on_c, 9, 42, 96
2, 176159, Note_on_c, 9, 35, 0
2, 176159, Note_on_c, 9, 42, 0
2, 176160, Note_on_c, 9, 42, 76
2, 176279, Note_on_c, 9, 42, 0
2, 176280, Note_on_c, 9, 37, 109
2, 176519, Note_on_c, 9, 37, 0
2, 176520, Note_on_c, 9, 42, 102
2, 176639, Note_on_c, 9, 42, 0
2, 176640, Note_on_c, 9, 42, 76
2, 176800, Note_on_c, 9, 35, 100
2, 176879, Note_on_c, 9, 42, 0
2, 176880, Note_on_c, 9, 37, 100
2, 176959, Note_on_c, 9, 35, 0
2, 176999, Note_on_c, 9, 37, 0
2, 177015, Note_on_c, 9, 42, 108
2, 177040, Note_on_c, 9, 35, 100
2, 177059, Note_on_c, 9, 42, 0
2, 177119, Note_on_c, 9, 35, 0
2, 177120, Note_on_c, 9, 42, 62
2, 177239, Note_on_c, 9, 42, 0
2, 177240, Note_on_c, 9, 37, 118
2, 177479, Note_on_c, 9, 37, 0
2, 177480, Note_on_c, 9, 42, 90
2, 177599, Note_on_c, 9, 42, 0
2, 177600, Note_on_c, 9, 42, 62
2, 177600, Note_on_c, 9, 35, 100
2, 177959, Note_on_c, 9, 42, 0
2, 177960, Note_on_c, 9, 42, 96
2, 178079, Note_on_c, 9, 35, 0
2, 178079, Note_on_c, 9, 42, 0
2, 178080, Note_on_c, 9, 42, 73
2, 178199, Note_on_c, 9, 42, 0
2, 178200, Note_on_c, 9, 37, 109
2, 178439, Note_on_c, 9, 37, 0
2, 178440, Note_on_c, 9, 42, 109
2, 178559, Note_on_c, 9, 42, 0
2, 178905, Note_on_c, 9, 42, 96
2, 179039, Note_on_c, 9, 42, 0
2, 179040, Note_on_c, 9, 42, 76
2, 179119, Note_on_c, 9, 42, 0
2, 179120, Note_on_c, 9, 37, 109
2, 179279, Note_on_c, 9, 37, 0
2, 179400, Note_on_c, 9, 42, 96
2, 179519, Note_on_c, 9, 42, 0
2, 179520, Note_on_c, 9, 42, 76
2, 179520, Note_on_c, 9, 35, 100
2, 179639, Note_on_c, 9, 42, 0
2, 179640, Note_on_c, 9, 42, 86
2, 179879, Note_on_c, 9, 42, 0
2, 179880, Note_on_c, 9, 40, 82
2, 179999, Note_on_c, 9, 35, 0
2, 179999, Note_on_c, 9, 40, 0
2, 180000, Note_on_c, 9, 40, 100
2, 180239, Note_on_c, 9, 40, 0
2, 180240, Note_on_c, 9, 40, 82
2, 180359, Note_on_c, 9, 40, 0
2, 180360, Note_on_c, 9, 40, 118
2, 180479, Note_on_c, 9, 40, 0
2, 180560, Note_on_c, 9, 40, 81
2, 180579, Note_on_c, 9, 40, 0
2, 180580, Note_on_c, 9, 40, 127
2, 180599, Note_on_c, 9, 40, 0
2, 180900, Note_on_c, 9, 66, 62
2, 180959, Note_on_c, 9, 66, 0
2, 180960, Note_on_c, 9, 66, 109
2, 181439, Note_on_c, 9, 66, 0
2, 181440, Note_on_c, 9, 49, 91
2, 181559, Note_on_c, 9, 49, 0
2, 181560, Note_on_c, 9, 69, 42
2, 181679, Note_on_c, 9, 69, 0
2, 181680, Note_on_c, 9, 56, 76
2, 181680, Note_on_c, 9, 70, 38
2, 181680, Note_on_c, 9, 42, 96
2, 181799, Note_on_c, 9, 56, 0
2, 181799, Note_on_c, 9, 70, 0
2, 181799, Note_on_c, 9, 42, 0
2, 181800, Note_on_c, 9, 56, 67
2, 181800, Note_on_c, 9, 69, 42
2, 181800, Note_on_c, 9, 42, 76
2, 181919, Note_on_c, 9, 56, 0
2, 181919, Note_on_c, 9, 69, 0
2, 181919, Note_on_c, 9, 42, 0
2, 181920, Note_on_c, 9, 37, 109
2, 181920, Note_on_c, 9, 70, 38
2, 181920, Note_on_c, 9, 35, 100
2, 182039, Note_on_c, 9, 37, 0
2, 182039, Note_on_c, 9, 70, 0
2, 182040, Note_on_c, 9, 69, 38
2, 182159, Note_on_c, 9, 69, 0
2, 182160, Note_on_c, 9, 56, 68
2, 182160, Note_on_c, 9, 70, 34
2, 182160, Note_on_c, 9, 42, 109
2, 182279, Note_on_c, 9, 56, 0
2, 182279, Note_on_c, 9, 70, 0
2, 182279, Note_on_c, 9, 42, 0
2, 182280, Note_on_c, 9, 56, 68
2, 182280, Note_on_c, 9, 69, 42
2, 182399, Note_on_c, 9, 35, 0
2, 182399, Note_on_c, 9, 56, 0
2, 182399, Note_on_c, 9, 69, 0
2, 182400, Note_on_c, 9, 70, 30
2, 182519, Note_on_c, 9, 70, 0
2, 182520, Note_on_c, 9, 69, 42
2, 182639, Note_on_c, 9, 69, 0
2, 182655, Note_on_c, 9, 56, 71
2, 182655, Note_on_c, 9, 70, 38
2, 182655, Note_on_c, 9, 42, 96
2, 182699, Note_on_c, 9, 42, 0
2, 182714, Note_on_c, 9, 56, 0
2, 182714, Note_on_c, 9, 70, 0
2, 182760, Note_on_c, 9, 56, 71
2, 182760, Note_on_c, 9, 69, 38
2, 182760, Note_on_c, 9, 42, 76
2, 182879, Note_on_c, 9, 56, 0
2, 182879, Note_on_c, 9, 69, 0
2, 182879, Note_on_c, 9, 42, 0
2, 182880, Note_on_c, 9, 37, 109
2, 182880, Note_on_c, 9, 70, 34
2, 182880, Note_on_c, 9, 35, 100
2, 182999, Note_on_c, 9, 37, 0
2, 182999, Note_on_c, 9, 70, 0
2, 183000, Note_on_c, 9, 69, 38
2, 183119, Note_on_c, 9, 69, 0
2, 183120, Note_on_c, 9, 56, 77
2, 183120, Note_on_c, 9, 70, 34
2, 183120, Note_on_c, 9, 42, 96
2, 183239, Note_on_c, 9, 56, 0
2, 183239, Note_on_c, 9, 70, 0
2, 183239, Note_on_c, 9, 42, 0
2, 183240, Note_on_c, 9, 56, 77
2, 183240, Note_on_c, 9, 69, 42
2, 183240, Note_on_c, 9, 42, 76
2, 183359, Note_on_c, 9, 35, 0
2, 183359, Note_on_c, 9, 56, 0
2, 183359, Note_on_c, 9, 69, 0
2, 183359, Note_on_c, 9, 42, 0
2, 183360, Note_on_c, 9, 70, 34
2, 183479, Note_on_c, 9, 70, 0
2, 183480, Note_on_c, 9, 69, 42
2, 183599, Note_on_c, 9, 69, 0
2, 183600, Note_on_c, 9, 56, 76
2, 183600, Note_on_c, 9, 65, 93
2, 183600, Note_on_c, 9, 70, 38
2, 183600, Note_on_c, 9, 42, 96
2, 183719, Note_on_c, 9, 56, 0
2, 183719, Note_on_c, 9, 65, 0
2, 183719, Note_on_c, 9, 70, 0
2, 183719, Note_on_c, 9, 42, 0
2, 183720, Note_on_c, 9, 56, 67
2, 183720, Note_on_c, 9, 69, 42
2, 183720, Note_on_c, 9, 42, 76
2, 183839, Note_on_c, 9, 56, 0
2, 183839, Note_on_c, 9, 69, 0
2, 183839, Note_on_c, 9, 42, 0
2, 183840, Note_on_c, 9, 37, 109
2, 183840, Note_on_c, 9, 70, 38
2, 183840, Note_on_c, 9, 35, 100
2, 183959, Note_on_c, 9, 37, 0
2, 183959, Note_on_c, 9, 70, 0
2, 183960, Note_on_c, 9, 66, 44
2, 183960, Note_on_c, 9, 69, 38
2, 184079, Note_on_c, 9, 66, 0
2, 184079, Note_on_c, 9, 69, 0
2, 184080, Note_on_c, 9, 65, 73
2, 184110, Note_on_c, 9, 66, 91
2, 184139, Note_on_c, 9, 65, 0
2, 184139, Note_on_c, 9, 66, 0
2, 184140, Note_on_c, 9, 56, 68
2, 184140, Note_on_c, 9, 70, 34
2, 184140, Note_on_c, 9, 42, 102
2, 184199, Note_on_c, 9, 56, 0
2, 184199, Note_on_c, 9, 70, 0
2, 184199, Note_on_c, 9, 42, 0
2, 184200, Note_on_c, 9, 56, 68
2, 184200, Note_on_c, 9, 65, 93
2, 184200, Note_on_c, 9, 69, 42
2, 184319, Note_on_c, 9, 35, 0
2, 184319, Note_on_c, 9, 56, 0
2, 184319, Note_on_c, 9, 65, 0
2, 184319, Note_on_c, 9, 69, 0
2, 184320, Note_on_c, 9, 70, 30
2, 184439, Note_on_c, 9, 70, 0
2, 184440, Note_on_c, 9, 37, 100
2, 184440, Note_on_c, 9, 65, 91
2, 184440, Note_on_c, 9, 69, 42
2, 184559, Note_on_c, 9, 37, 0
2, 184559, Note_on_c, 9, 65, 0
2, 184559, Note_on_c, 9, 69, 0
2, 184560, Note_on_c, 9, 56, 77
2, 184560, Note_on_c, 9, 70, 38
2, 184560, Note_on_c, 9, 77, 88
2, 184560, Note_on_c, 9, 42, 108
2, 184679, Note_on_c, 9, 56, 0
2, 184679, Note_on_c, 9, 70, 0
2, 184679, Note_on_c, 9, 77, 0
2, 184679, Note_on_c, 9, 42, 0
2, 184680, Note_on_c, 9, 56, 77
2, 184680, Note_on_c, 9, 65, 74
2, 184680, Note_on_c, 9, 69, 38
2, 184799, Note_on_c, 9, 56, 0
2, 184799, Note_on_c, 9, 65, 0
2, 184799, Note_on_c, 9, 69, 0
2, 184800, Note_on_c, 9, 35, 100
2, 184815, Note_on_c, 9, 37, 118
2, 184815, Note_on_c, 9, 65, 109
2, 184815, Note_on_c, 9, 70, 34
2, 184859, Note_on_c, 9, 65, 0
2, 184874, Note_on_c, 9, 37, 0
2, 184874, Note_on_c, 9, 70, 0
2, 184920, Note_on_c, 9, 69, 38
2, 185039, Note_on_c, 9, 69, 0
2, 185040, Note_on_c, 9, 56, 77
2, 185040, Note_on_c, 9, 70, 34
2, 185040, Note_on_c, 9, 42, 90
2, 185159, Note_on_c, 9, 56, 0
2, 185159, Note_on_c, 9, 70, 0
2, 185159, Note_on_c, 9, 42, 0
2, 185160, Note_on_c, 9, 56, 77
2, 185160, Note_on_c, 9, 69, 42
2, 185160, Note_on_c, 9, 42, 62
2, 185279, Note_on_c, 9, 35, 0
2, 185279, Note_on_c, 9, 56, 0
2, 185279, Note_on_c, 9, 69, 0
2, 185279, Note_on_c, 9, 42, 0
2, 185280, Note_on_c, 9, 70, 34
2, 185280, Note_on_c, 9, 35, 100
2, 185399, Note_on_c, 9, 70, 0
2, 185400, Note_on_c, 9, 69, 42
2, 185519, Note_on_c, 9, 69, 0
2, 185535, Note_on_c, 9, 56, 76
2, 185535, Note_on_c, 9, 70, 38
2, 185535, Note_on_c, 9, 42, 96
2, 185579, Note_on_c, 9, 42, 0
2, 185594, Note_on_c, 9, 56, 0
2, 185594, Note_on_c, 9, 70, 0
2, 185640, Note_on_c, 9, 56, 67
2, 185640, Note_on_c, 9, 69, 42
2, 185640, Note_on_c, 9, 42, 76
2, 185759, Note_on_c, 9, 35, 0
2, 185759, Note_on_c, 9, 56, 0
2, 185759, Note_on_c, 9, 69, 0
2, 185759, Note_on_c, 9, 42, 0
2, 185760, Note_on_c, 9, 37, 109
2, 185760, Note_on_c, 9, 70, 38
2, 185760, Note_on_c, 9, 35, 100
2, 185879, Note_on_c, 9, 37, 0
2, 185879, Note_on_c, 9, 70, 0
2, 185880, Note_on_c, 9, 69, 38
2, 185999, Note_on_c, 9, 69, 0
2, 186000, Note_on_c, 9, 56, 68
2, 186000, Note_on_c, 9, 70, 34
2, 186000, Note_on_c, 9, 42, 109
2, 186119, Note_on_c, 9, 56, 0
2, 186119, Note_on_c, 9, 70, 0
2, 186119, Note_on_c, 9, 42, 0
2, 186120, Note_on_c, 9, 56, 68
2, 186120, Note_on_c, 9, 69, 42
2, 186239, Note_on_c, 9, 35, 0
2, 186239, Note_on_c, 9, 56, 0
2, 186239, Note_on_c, 9, 69, 0
2, 186240, Note_on_c, 9, 70, 30
2, 186359, Note_on_c, 9, 70, 0
2, 186360, Note_on_c, 9, 69, 42
2, 186479, Note_on_c, 9, 69, 0
2, 186480, Note_on_c, 9, 56, 74
2, 186480, Note_on_c, 9, 70, 38
2, 186480, Note_on_c, 9, 42, 109
2, 186599, Note_on_c, 9, 56, 0
2, 186599, Note_on_c, 9, 70, 0
2, 186599, Note_on_c, 9, 42, 0
2, 186600, Note_on_c, 9, 56, 74
2, 186600, Note_on_c, 9, 69, 38
2, 186600, Note_on_c, 9, 42, 76
2, 186719, Note_on_c, 9, 56, 0
2, 186719, Note_on_c, 9, 69, 0
2, 186719, Note_on_c, 9, 42, 0
2, 186720, Note_on_c, 9, 37, 109
2, 186720, Note_on_c, 9, 70, 34
2, 186720, Note_on_c, 9, 35, 100
2, 186839, Note_on_c, 9, 37, 0
2, 186839, Note_on_c, 9, 70, 0
2, 186840, Note_on_c, 9, 69, 38
2, 186959, Note_on_c, 9, 35, 0
2, 186959, Note_on_c, 9, 69, 0
2, 186960, Note_on_c, 9, 46, 96
2, 186960, Note_on_c, 9, 56, 77
2, 186960, Note_on_c, 9, 70, 34
2, 186960, Note_on_c, 9, 35, 100
2, 187079, Note_on_c, 9, 46, 0
2, 187079, Note_on_c, 9, 56, 0
2, 187079, Note_on_c, 9, 70, 0
2, 187080, Note_on_c, 9, 56, 77
2, 187080, Note_on_c, 9, 69, 42
2, 187199, Note_on_c, 9, 35, 0
2, 187199, Note_on_c, 9, 56, 0
2, 187199, Note_on_c, 9, 69, 0
2, 187200, Note_on_c, 9, 70, 34
2, 187200, Note_on_c, 9, 42, 76
2, 187319, Note_on_c, 9, 70, 0
2, 187319, Note_on_c, 9, 42, 0
2, 187320, Note_on_c, 9, 66, 73
2, 187320, Note_on_c, 9, 69, 42
2, 187439, Note_on_c, 9, 66, 0
2, 187439, Note_on_c, 9, 69, 0
2, 187440, Note_on_c, 9, 56, 76
2, 187440, Note_on_c, 9, 70, 38
2, 187440, Note_on_c, 9, 42, 96
2, 187559, Note_on_c, 9, 56, 0
2, 187559, Note_on_c, 9, 70, 0
2, 187559, Note_on_c, 9, 42, 0
2, 187560, Note_on_c, 9, 56, 67
2, 187560, Note_on_c, 9, 66, 90
2, 187560, Note_on_c, 9, 69, 42
2, 187560, Note_on_c, 9, 42, 76
2, 187679, Note_on_c, 9, 56, 0
2, 187679, Note_on_c, 9, 66, 0
2, 187679, Note_on_c, 9, 69, 0
2, 187679, Note_on_c, 9, 42, 0
2, 187680, Note_on_c, 9, 37, 109
2, 187680, Note_on_c, 9, 70, 38
2, 187799, Note_on_c, 9, 37, 0
2, 187799, Note_on_c, 9, 70, 0
2, 187800, Note_on_c, 9, 65, 79
2, 187800, Note_on_c, 9, 69, 38
2, 187919, Note_on_c, 9, 65, 0
2, 187919, Note_on_c, 9, 69, 0
2, 187920, Note_on_c, 9, 56, 68
2, 187920, Note_on_c, 9, 70, 34
2, 187920, Note_on_c, 9, 42, 102
2, 188039, Note_on_c, 9, 56, 0
2, 188039, Note_on_c, 9, 70, 0
2, 188039, Note_on_c, 9, 42, 0
2, 188040, Note_on_c, 9, 56, 68
2, 188040, Note_on_c, 9, 65, 91
2, 188040, Note_on_c, 9, 69, 42
2, 188159, Note_on_c, 9, 56, 0
2, 188159, Note_on_c, 9, 65, 0
2, 188159, Note_on_c, 9, 69, 0
2, 188160, Note_on_c, 9, 37, 109
2, 188160, Note_on_c, 9, 70, 30
2, 188279, Note_on_c, 9, 37, 0
2, 188279, Note_on_c, 9, 70, 0
2, 188280, Note_on_c, 9, 65, 82
2, 188280, Note_on_c, 9, 69, 42
2, 188280, Note_on_c, 9, 42, 77
2, 188399, Note_on_c, 9, 65, 0
2, 188399, Note_on_c, 9, 69, 0
2, 188399, Note_on_c, 9, 42, 0
2, 188400, Note_on_c, 9, 56, 77
2, 188400, Note_on_c, 9, 70, 38
2, 188519, Note_on_c, 9, 56, 0
2, 188519, Note_on_c, 9, 70, 0
2, 188520, Note_on_c, 9, 37, 100
2, 188520, Note_on_c, 9, 56, 77
2, 188520, Note_on_c, 9, 65, 82
2, 188520, Note_on_c, 9, 69, 38
2, 188579, Note_on_c, 9, 37, 0
2, 188579, Note_on_c, 9, 56, 0
2, 188579, Note_on_c, 9, 65, 0
2, 188579, Note_on_c, 9, 69, 0
2, 188580, Note_on_c, 9, 42, 62
2, 188639, Note_on_c, 9, 42, 0
2, 188640, Note_on_c, 9, 70, 34
2, 188640, Note_on_c, 9, 35, 100
2, 188759, Note_on_c, 9, 70, 0
2, 188760, Note_on_c, 9, 65, 87
2, 188760, Note_on_c, 9, 69, 38
2, 188760, Note_on_c, 9, 42, 62
2, 188879, Note_on_c, 9, 65, 0
2, 188879, Note_on_c, 9, 69, 0
2, 188879, Note_on_c, 9, 42, 0
2, 188880, Note_on_c, 9, 37, 118
2, 188880, Note_on_c, 9, 56, 77
2, 188880, Note_on_c, 9, 70, 34
2, 188880, Note_on_c, 9, 42, 90
2, 188999, Note_on_c, 9, 37, 0
2, 188999, Note_on_c, 9, 56, 0
2, 188999, Note_on_c, 9, 70, 0
2, 188999, Note_on_c, 9, 42, 0
2, 189000, Note_on_c, 9, 56, 77
2, 189000, Note_on_c, 9, 65, 84
2, 189000, Note_on_c, 9, 69, 42
2, 189119, Note_on_c, 9, 35, 0
2, 189119, Note_on_c, 9, 56, 0
2, 189119, Note_on_c, 9, 65, 0
2, 189119, Note_on_c, 9, 69, 0
2, 189120, Note_on_c, 9, 70, 34
2, 189120, Note_on_c, 9, 35, 100
2, 189239, Note_on_c, 9, 70, 0
2, 189240, Note_on_c, 9, 69, 42
2, 189359, Note_on_c, 9, 69, 0
2, 189360, Note_on_c, 9, 56, 76
2, 189360, Note_on_c, 9, 70, 38
2, 189360, Note_on_c, 9, 42, 96
2, 189479, Note_on_c, 9, 56, 0
2, 189479, Note_on_c, 9, 70, 0
2, 189479, Note_on_c, 9, 42, 0
2, 189480, Note_on_c, 9, 56, 67
2, 189480, Note_on_c, 9, 69, 42
2, 189599, Note_on_c, 9, 35, 0
2, 189599, Note_on_c, 9, 56, 0
2, 189599, Note_on_c, 9, 69, 0
2, 189600, Note_on_c, 9, 37, 109
2, 189600, Note_on_c, 9, 70, 38
2, 189719, Note_on_c, 9, 37, 0
2, 189719, Note_on_c, 9, 70, 0
2, 189720, Note_on_c, 9, 69, 38
2, 189839, Note_on_c, 9, 69, 0
2, 189840, Note_on_c, 9, 56, 68
2, 189840, Note_on_c, 9, 70, 34
2, 189840, Note_on_c, 9, 42, 109
2, 189959, Note_on_c, 9, 56, 0
2, 189959, Note_on_c, 9, 70, 0
2, 189959, Note_on_c, 9, 42, 0
2, 189960, Note_on_c, 9, 56, 68
2, 189960, Note_on_c, 9, 69, 42
2, 190079, Note_on_c, 9, 56, 0
2, 190079, Note_on_c, 9, 69, 0
2, 190080, Note_on_c, 9, 70, 30
2, 190080, Note_on_c, 9, 35, 100
2, 190199, Note_on_c, 9, 70, 0
2, 190200, Note_on_c, 9, 69, 42
2, 190319, Note_on_c, 9, 69, 0
2, 190335, Note_on_c, 9, 56, 71
2, 190335, Note_on_c, 9, 70, 38
2, 190335, Note_on_c, 9, 42, 96
2, 190379, Note_on_c, 9, 42, 0
2, 190394, Note_on_c, 9, 56, 0
2, 190394, Note_on_c, 9, 70, 0
2, 190440, Note_on_c, 9, 56, 71
2, 190440, Note_on_c, 9, 69, 38
2, 190440, Note_on_c, 9, 42, 76
2, 190559, Note_on_c, 9, 35, 0
2, 190559, Note_on_c, 9, 56, 0
2, 190559, Note_on_c, 9, 69, 0
2, 190559, Note_on_c, 9, 42, 0
2, 190560, Note_on_c, 9, 37, 109
2, 190560, Note_on_c, 9, 70, 34
2, 190679, Note_on_c, 9, 37, 0
2, 190679, Note_on_c, 9, 70, 0
2, 190680, Note_on_c, 9, 69, 38
2, 190799, Note_on_c, 9, 69, 0
2, 190800, Note_on_c, 9, 56, 74
2, 190800, Note_on_c, 9, 70, 34
2, 190800, Note_on_c, 9, 42, 96
2, 190919, Note_on_c, 9, 56, 0
2, 190919, Note_on_c, 9, 70, 0
2, 190919, Note_on_c, 9, 42, 0
2, 190920, Note_on_c, 9, 56, 74
2, 190920, Note_on_c, 9, 69, 42
2, 190920, Note_on_c, 9, 42, 76
2, 191039, Note_on_c, 9, 56, 0
2, 191039, Note_on_c, 9, 69, 0
2, 191039, Note_on_c, 9, 42, 0
2, 191040, Note_on_c, 9, 70, 34
2, 191040, Note_on_c, 9, 35, 100
2, 191159, Note_on_c, 9, 70, 0
2, 191160, Note_on_c, 9, 69, 42
2, 191279, Note_on_c, 9, 69, 0
2, 191295, Note_on_c, 9, 56, 76
2, 191295, Note_on_c, 9, 65, 64
2, 191295, Note_on_c, 9, 70, 38
2, 191295, Note_on_c, 9, 77, 88
2, 191295, Note_on_c, 9, 42, 96
2, 191339, Note_on_c, 9, 42, 0
2, 191354, Note_on_c, 9, 56, 0
2, 191354, Note_on_c, 9, 65, 0
2, 191354, Note_on_c, 9, 70, 0
2, 191354, Note_on_c, 9, 77, 0
2, 191400, Note_on_c, 9, 56, 67
2, 191400, Note_on_c, 9, 66, 82
2, 191400, Note_on_c, 9, 69, 42
2, 191400, Note_on_c, 9, 42, 76
2, 191519, Note_on_c, 9, 35, 0
2, 191519, Note_on_c, 9, 56, 0
2, 191519, Note_on_c, 9, 66, 0
2, 191519, Note_on_c, 9, 69, 0
2, 191519, Note_on_c, 9, 42, 0
2, 191520, Note_on_c, 9, 37, 109
2, 191520, Note_on_c, 9, 70, 38
2, 191639, Note_on_c, 9, 37, 0
2, 191639, Note_on_c, 9, 70, 0
2, 191640, Note_on_c, 9, 65, 73
2, 191640, Note_on_c, 9, 69, 38
2, 191759, Note_on_c, 9, 65, 0
2, 191759, Note_on_c, 9, 69, 0
2, 191775, Note_on_c, 9, 56, 68
2, 191775, Note_on_c, 9, 70, 34
2, 191775, Note_on_c, 9, 42, 102
2, 191819, Note_on_c, 9, 42, 0
2, 191834, Note_on_c, 9, 56, 0
2, 191834, Note_on_c, 9, 70, 0
2, 191880, Note_on_c, 9, 56, 68
2, 191880, Note_on_c, 9, 69, 42
2, 191999, Note_on_c, 9, 56, 0
2, 191999, Note_on_c, 9, 69, 0
2, 192000, Note_on_c, 9, 65, 91
2, 192000, Note_on_c, 9, 70, 30
2, 192119, Note_on_c, 9, 65, 0
2, 192119, Note_on_c, 9, 70, 0
2, 192120, Note_on_c, 9, 66, 71
2, 192120, Note_on_c, 9, 69, 42
2, 192239, Note_on_c, 9, 66, 0
2, 192239, Note_on_c, 9, 69, 0
2, 192240, Note_on_c, 9, 56, 77
2, 192240, Note_on_c, 9, 70, 38
2, 192240, Note_on_c, 9, 42, 105
2, 192359, Note_on_c, 9, 56, 0
2, 192359, Note_on_c, 9, 70, 0
2, 192359, Note_on_c, 9, 42, 0
2, 192360, Note_on_c, 9, 56, 77
2, 192360, Note_on_c, 9, 65, 82
2, 192360, Note_on_c, 9, 69, 38
2, 192360, Note_on_c, 9, 42, 58
2, 192479, Note_on_c, 9, 56, 0
2, 192479, Note_on_c, 9, 65, 0
2, 192479, Note_on_c, 9, 69, 0
2, 192479, Note_on_c, 9, 42, 0
2, 192480, Note_on_c, 9, 37, 118
2, 192480, Note_on_c, 9, 66, 73
2, 192480, Note_on_c, 9, 70, 34
2, 192480, Note_on_c, 9, 35, 100
2, 192599, Note_on_c, 9, 37, 0
2, 192599, Note_on_c, 9, 66, 0
2, 192599, Note_on_c, 9, 70, 0
2, 192600, Note_on_c, 9, 69, 38
2, 192719, Note_on_c, 9, 35, 0
2, 192719, Note_on_c, 9, 69, 0
2, 192720, Note_on_c, 9, 46, 107
2, 192720, Note_on_c, 9, 56, 77
2, 192720, Note_on_c, 9, 66, 91
2, 192720, Note_on_c, 9, 70, 34
2, 192720, Note_on_c, 9, 35, 100
2, 192839, Note_on_c, 9, 46, 0
2, 192839, Note_on_c, 9, 56, 0
2, 192839, Note_on_c, 9, 66, 0
2, 192839, Note_on_c, 9, 70, 0
2, 192840, Note_on_c, 9, 56, 77
2, 192840, Note_on_c, 9, 69, 42
2, 192959, Note_on_c, 9, 35, 0
2, 192959, Note_on_c, 9, 56, 0
2, 192959, Note_on_c, 9, 69, 0
2, 192960, Note_on_c, 9, 70, 34
2, 193079, Note_on_c, 9, 70, 0
2, 193080, Note_on_c, 9, 69, 42
2, 193199, Note_on_c, 9, 69, 0
2, 193200, Note_on_c, 9, 56, 76
2, 193200, Note_on_c, 9, 70, 38
2, 193200, Note_on_c, 9, 42, 96
2, 193319, Note_on_c, 9, 56, 0
2, 193319, Note_on_c, 9, 70, 0
2, 193319, Note_on_c, 9, 42, 0
2, 193320, Note_on_c, 9, 56, 67
2, 193320, Note_on_c, 9, 69, 42
2, 193439, Note_on_c, 9, 56, 0
2, 193439, Note_on_c, 9, 69, 0
2, 193440, Note_on_c, 9, 37, 109
2, 193440, Note_on_c, 9, 70, 38
2, 193440, Note_on_c, 9, 35, 100
2, 193559, Note_on_c, 9, 37, 0
2, 193559, Note_on_c, 9, 70, 0
2, 193560, Note_on_c, 9, 69, 38
2, 193679, Note_on_c, 9, 69, 0
2, 193680, Note_on_c, 9, 56, 68
2, 193680, Note_on_c, 9, 70, 34
2, 193680, Note_on_c, 9, 42, 109
2, 193799, Note_on_c, 9, 56, 0
2, 193799, Note_on_c, 9, 70, 0
2, 193799, Note_on_c, 9, 42, 0
2, 193800, Note_on_c, 9, 56, 68
2, 193800, Note_on_c, 9, 69, 42
2, 193919, Note_on_c, 9, 35, 0
2, 193919, Note_on_c, 9, 56, 0
2, 193919, Note_on_c, 9, 69, 0
2, 193920, Note_on_c, 9, 70, 30
2, 193920, Note_on_c, 9, 35, 100
2, 194039, Note_on_c, 9, 70, 0
2, 194040, Note_on_c, 9, 69, 42
2, 194159, Note_on_c, 9, 69, 0
2, 194160, Note_on_c, 9, 56, 77
2, 194160, Note_on_c, 9, 70, 38
2, 194160, Note_on_c, 9, 42, 109
2, 194279, Note_on_c, 9, 56, 0
2, 194279, Note_on_c, 9, 70, 0
2, 194279, Note_on_c, 9, 42, 0
2, 194280, Note_on_c, 9, 56, 77
2, 194280, Note_on_c, 9, 69, 38
2, 194280, Note_on_c, 9, 42, 76
2, 194399, Note_on_c, 9, 35, 0
2, 194399, Note_on_c, 9, 56, 0
2, 194399, Note_on_c, 9, 69, 0
2, 194399, Note_on_c, 9, 42, 0
2, 194400, Note_on_c, 9, 37, 109
2, 194400, Note_on_c, 9, 70, 34
2, 194519, Note_on_c, 9, 37, 0
2, 194519, Note_on_c, 9, 70, 0
2, 194520, Note_on_c, 9, 69, 38
2, 194639, Note_on_c, 9, 69, 0
2, 194640, Note_on_c, 9, 56, 77
2, 194640, Note_on_c, 9, 70, 34
2, 194640, Note_on_c, 9, 42, 96
2, 194640, Note_on_c, 9, 35, 100
2, 194759, Note_on_c, 9, 56, 0
2, 194759, Note_on_c, 9, 70, 0
2, 194759, Note_on_c, 9, 42, 0
2, 194790, Note_on_c, 9, 56, 77
2, 194790, Note_on_c, 9, 65, 63
2, 194790, Note_on_c, 9, 69, 42
2, 194790, Note_on_c, 9, 42, 76
2, 194849, Note_on_c, 9, 56, 0
2, 194849, Note_on_c, 9, 65, 0
2, 194849, Note_on_c, 9, 69, 0
2, 194849, Note_on_c, 9, 42, 0
2, 194879, Note_on_c, 9, 35, 0
2, 194880, Note_on_c, 9, 65, 89
2, 194909, Note_on_c, 9, 65, 0
2, 194910, Note_on_c, 9, 65, 98
2, 194910, Note_on_c, 9, 70, 34
2, 194969, Note_on_c, 9, 70, 0
2, 194999, Note_on_c, 9, 65, 0
2, 195000, Note_on_c, 9, 65, 98
2, 195000, Note_on_c, 9, 69, 42
2, 195119, Note_on_c, 9, 65, 0
2, 195119, Note_on_c, 9, 69, 0
2, 195150, Note_on_c, 9, 56, 76
2, 195150, Note_on_c, 9, 65, 107
2, 195150, Note_on_c, 9, 70, 38
2, 195150, Note_on_c, 9, 42, 96
2, 195209, Note_on_c, 9, 56, 0
2, 195209, Note_on_c, 9, 70, 0
2, 195239, Note_on_c, 9, 65, 0
2, 195239, Note_on_c, 9, 42, 0
2, 195255, Note_on_c, 9, 56, 67
2, 195255, Note_on_c, 9, 65, 98
2, 195255, Note_on_c, 9, 69, 42
2, 195255, Note_on_c, 9, 42, 76
2, 195299, Note_on_c, 9, 65, 0
2, 195314, Note_on_c, 9, 56, 0
2, 195314, Note_on_c, 9, 69, 0
2, 195314, Note_on_c, 9, 42, 0
2, 195360, Note_on_c, 9, 37, 109
2, 195360, Note_on_c, 9, 65, 116
2, 195360, Note_on_c, 9, 70, 38
2, 195479, Note_on_c, 9, 37, 0
2, 195479, Note_on_c, 9, 65, 0
2, 195479, Note_on_c, 9, 70, 0
2, 195480, Note_on_c, 9, 69, 38
2, 195599, Note_on_c, 9, 69, 0
2, 195600, Note_on_c, 9, 56, 68
2, 195600, Note_on_c, 9, 70, 34
2, 195600, Note_on_c, 9, 42, 102
2, 195719, Note_on_c, 9, 56, 0
2, 195719, Note_on_c, 9, 70, 0
2, 195719, Note_on_c, 9, 42, 0
2, 195720, Note_on_c, 9, 56, 68
2, 195720, Note_on_c, 9, 69, 42
2, 195839, Note_on_c, 9, 56, 0
2, 195839, Note_on_c, 9, 69, 0
2, 195840, Note_on_c, 9, 37, 109
2, 195840, Note_on_c, 9, 70, 30
2, 195840, Note_on_c, 9, 42, 102
2, 195959, Note_on_c, 9, 37, 0
2, 195959, Note_on_c, 9, 70, 0
2, 195959, Note_on_c, 9, 42, 0
2, 195960, Note_on_c, 9, 65, 99
2, 195960, Note_on_c, 9, 66, 66
2, 195960, Note_on_c, 9, 69, 42
2, 196079, Note_on_c, 9, 65, 0
2, 196079, Note_on_c, 9, 66, 0
2, 196079, Note_on_c, 9, 69, 0
2, 196095, Note_on_c, 9, 56, 77
2, 196095, Note_on_c, 9, 65, 64
2, 196095, Note_on_c, 9, 70, 38
2, 196139, Note_on_c, 9, 65, 0
2, 196154, Note_on_c, 9, 56, 0
2, 196154, Note_on_c, 9, 70, 0
2, 196220, Note_on_c, 9, 37, 100
2, 196220, Note_on_c, 9, 56, 77
2, 196220, Note_on_c, 9, 65, 83
2, 196220, Note_on_c, 9, 69, 38
2, 196239, Note_on_c, 9, 37, 0
2, 196239, Note_on_c, 9, 56, 0
2, 196239, Note_on_c, 9, 65, 0
2, 196239, Note_on_c, 9, 69, 0
2, 196240, Note_on_c, 9, 42, 62
2, 196259, Note_on_c, 9, 42, 0
2, 196320, Note_on_c, 9, 65, 82
2, 196320, Note_on_c, 9, 70, 34
2, 196320, Note_on_c, 9, 55, 107
2, 196320, Note_on_c, 9, 35, 100
2, 196439, Note_on_c, 9, 65, 0
2, 196439, Note_on_c, 9, 70, 0
2, 196439, Note_on_c, 9, 55, 0
2, 196440, Note_on_c, 9, 69, 38
2, 196499, Note_on_c, 9, 69, 0
2, 196500, Note_on_c, 9, 42, 62
2, 196559, Note_on_c, 9, 42, 0
2, 196560, Note_on_c, 9, 37, 118
2, 196560, Note_on_c, 9, 56, 77
2, 196560, Note_on_c, 9, 65, 100
2, 196560, Note_on_c, 9, 70, 34
2, 196560, Note_on_c, 9, 42, 90
2, 196679, Note_on_c, 9, 37, 0
2, 196679, Note_on_c, 9, 56, 0
2, 196679, Note_on_c, 9, 65, 0
2, 196679, Note_on_c, 9, 70, 0
2, 196679, Note_on_c, 9, 42, 0
2, 196680, Note_on_c, 9, 56, 77
2, 196680, Note_on_c, 9, 69, 42
2, 196799, Note_on_c, 9, 35, 0
2, 196799, Note_on_c, 9, 56, 0
2, 196799, Note_on_c, 9, 69, 0
2, 196800, Note_on_c, 9, 70, 34
2, 196800, Note_on_c, 9, 42, 109
2, 196800, Note_on_c, 9, 35, 100
2, 197039, Note_on_c, 9, 70, 0
2, 197039, Note_on_c, 9, 42, 0
2, 197040, Note_on_c, 9, 42, 96
2, 197159, Note_on_c, 9, 42, 0
2, 197160, Note_on_c, 9, 37, 100
2, 197279, Note_on_c, 9, 35, 0
2, 197279, Note_on_c, 9, 37, 0
2, 197280, Note_on_c, 9, 42, 109
2, 197519, Note_on_c, 9, 42, 0
2, 197520, Note_on_c, 9, 42, 109
2, 197759, Note_on_c, 9, 42, 0
2, 197760, Note_on_c, 9, 42, 109
2, 197999, Note_on_c, 9, 42, 0
2, 198000, Note_on_c, 9, 69, 100
2, 198000, Note_on_c, 9, 42, 96
2, 198239, Note_on_c, 9, 69, 0
2, 198239, Note_on_c, 9, 42, 0
2, 198240, Note_on_c, 9, 42, 92
2, 198240, Note_on_c, 9, 35, 100
2, 198319, Note_on_c, 9, 42, 0
2, 198320, Note_on_c, 9, 37, 109
2, 198359, Note_on_c, 9, 37, 0
2, 198480, Note_on_c, 9, 69, 91
2, 198480, Note_on_c, 9, 42, 96
2, 198719, Note_on_c, 9, 35, 0
2, 198719, Note_on_c, 9, 69, 0
2, 198719, Note_on_c, 9, 42, 0
2, 198720, Note_on_c, 9, 42, 83
2, 198720, Note_on_c, 9, 35, 100
2, 198959, Note_on_c, 9, 42, 0
2, 199000, Note_on_c, 9, 42, 96
2, 199119, Note_on_c, 9, 42, 0
2, 199120, Note_on_c, 9, 37, 100
2, 199199, Note_on_c, 9, 35, 0
2, 199199, Note_on_c, 9, 37, 0
2, 199200, Note_on_c, 9, 42, 83
2, 199439, Note_on_c, 9, 42, 0
2, 199440, Note_on_c, 9, 42, 102
2, 199679, Note_on_c, 9, 42, 0
2, 199680, Note_on_c, 9, 42, 102
2, 199919, Note_on_c, 9, 42, 0
2, 199920, Note_on_c, 9, 69, 91
2, 199920, Note_on_c, 9, 42, 108
2, 200099, Note_on_c, 9, 69, 0
2, 200099, Note_on_c, 9, 42, 0
2, 200100, Note_on_c, 9, 42, 62
2, 200159, Note_on_c, 9, 42, 0
2, 200160, Note_on_c, 9, 37, 109
2, 200160, Note_on_c, 9, 35, 100
2, 200399, Note_on_c, 9, 37, 0
2, 200460, Note_on_c, 9, 69, 91
2, 200460, Note_on_c, 9, 42, 90
2, 200639, Note_on_c, 9, 35, 0
2, 200639, Note_on_c, 9, 69, 0
2, 200639, Note_on_c, 9, 42, 0
2, 200640, Note_on_c, 9, 42, 62
2, 200640, Note_on_c, 9, 35, 100
2, 200999, Note_on_c, 9, 42, 0
2, 201000, Note_on_c, 9, 42, 96
2, 201119, Note_on_c, 9, 35, 0
2, 201119, Note_on_c, 9, 42, 0
2, 201120, Note_on_c, 9, 37, 100
2, 201359, Note_on_c, 9, 37, 0
2, 201405, Note_on_c, 9, 42, 109
2, 201599, Note_on_c, 9, 42, 0
2, 201600, Note_on_c, 9, 42, 109
2, 201839, Note_on_c, 9, 42, 0
2, 201840, Note_on_c, 9, 69, 82
2, 201840, Note_on_c, 9, 42, 96
2, 201999, Note_on_c, 9, 69, 0
2, 201999, Note_on_c, 9, 42, 0
2, 202000, Note_on_c, 9, 42, 76
2, 202079, Note_on_c, 9, 42, 0
2, 202080, Note_on_c, 9, 37, 109
2, 202319, Note_on_c, 9, 37, 0
2, 202320, Note_on_c, 9, 69, 91
2, 202320, Note_on_c, 9, 42, 96
2, 202559, Note_on_c, 9, 69, 0
2, 202559, Note_on_c, 9, 42, 0
2, 202560, Note_on_c, 9, 42, 76
2, 202560, Note_on_c, 9, 35, 100
2, 202799, Note_on_c, 9, 42, 0
2, 202800, Note_on_c, 9, 42, 96
2, 202919, Note_on_c, 9, 42, 0
2, 202920, Note_on_c, 9, 37, 100
2, 203039, Note_on_c, 9, 35, 0
2, 203039, Note_on_c, 9, 37, 0
2, 203295, Note_on_c, 9, 42, 102
2, 203519, Note_on_c, 9, 42, 0
2, 203520, Note_on_c, 9, 49, 90
2, 203520, Note_on_c, 9, 35, 100
2, 203759, Note_on_c, 9, 49, 0
2, 203759, Note_on_c, 9, 35, 0
2, 203760, Note_on_c, 9, 69, 82
2, 203760, Note_on_c, 9, 44, 88
2, 203999, Note_on_c, 9, 69, 0
2, 203999, Note_on_c, 9, 44, 0
2, 204000, Note_on_c, 9, 57, 90
2, 204000, Note_on_c, 9, 35, 100
2, 204239, Note_on_c, 9, 57, 0
2, 204239, Note_on_c, 9, 35, 0
2, 204240, Note_on_c, 9, 69, 91
2, 204240, Note_on_c, 9, 44, 88
2, 204479, Note_on_c, 9, 69, 0
2, 204479, Note_on_c, 9, 44, 0
2, 204480, Note_on_c, 9, 35, 100
2, 204840, Note_on_c, 9, 42, 96
2, 204959, Note_on_c, 9, 35, 0
2, 204959, Note_on_c, 9, 42, 0
2, 204960, Note_on_c, 9, 42, 76
2, 205079, Note_on_c, 9, 42, 0
2, 205080, Note_on_c, 9, 37, 109
2, 205319, Note_on_c, 9, 37, 0
2, 205320, Note_on_c, 9, 42, 109
2, 205439, Note_on_c, 9, 42, 0
2, 205860, Note_on_c, 9, 42, 96
2, 205919, Note_on_c, 9, 42, 0
2, 206160, Note_on_c, 9, 37, 109
2, 206399, Note_on_c, 9, 37, 0
2, 206400, Note_on_c, 9, 42, 96
2, 206640, Note_on_c, 9, 35, 100
2, 206879, Note_on_c, 9, 42, 0
2, 206879, Note_on_c, 9, 35, 0
2, 206880, Note_on_c, 9, 42, 96
2, 207059, Note_on_c, 9, 42, 0
2, 207060, Note_on_c, 9, 42, 76
2, 207119, Note_on_c, 9, 42, 0
2, 207120, Note_on_c, 9, 37, 109
2, 207359, Note_on_c, 9, 37, 0
2, 207480, Note_on_c, 9, 42, 102
2, 207839, Note_on_c, 9, 42, 0
2, 207840, Note_on_c, 9, 37, 100
2, 207959, Note_on_c, 9, 37, 0
2, 207960, Note_on_c, 9, 42, 108
2, 208319, Note_on_c, 9, 42, 0
2, 208320, Note_on_c, 9, 37, 118
2, 208320, Note_on_c, 9, 50, 82
2, 208320, Note_on_c, 9, 35, 100
2, 208559, Note_on_c, 9, 37, 0
2, 208559, Note_on_c, 9, 50, 0
2, 208559, Note_on_c, 9, 35, 0
2, 208560, Note_on_c, 9, 42, 90
2, 208560, Note_on_c, 9, 55, 107
2, 208560, Note_on_c, 9, 35, 100
2, 208679, Note_on_c, 9, 42, 0
2, 208679, Note_on_c, 9, 55, 0
2, 208680, Note_on_c, 9, 42, 62
2, 208799, Note_on_c, 9, 35, 0
2, 208799, Note_on_c, 9, 42, 0
2, 209040, Note_on_c, 9, 42, 96
2, 209219, Note_on_c, 9, 42, 0
2, 209220, Note_on_c, 9, 42, 76
2, 209279, Note_on_c, 9, 42, 0
2, 209360, Note_on_c, 9, 37, 109
2, 209599, Note_on_c, 9, 37, 0
2, 209600, Note_on_c, 9, 42, 109
2, 209759, Note_on_c, 9, 42, 0
2, 210180, Note_on_c, 9, 42, 109
2, 210239, Note_on_c, 9, 42, 0
2, 210240, Note_on_c, 9, 42, 76
2, 210479, Note_on_c, 9, 42, 0
2, 210480, Note_on_c, 9, 37, 109
2, 210719, Note_on_c, 9, 37, 0
2, 210720, Note_on_c, 9, 42, 96
2, 210879, Note_on_c, 9, 42, 0
2, 210880, Note_on_c, 9, 42, 76
2, 210959, Note_on_c, 9, 42, 0
2, 210960, Note_on_c, 9, 65, 91
2, 210960, Note_on_c, 9, 66, 82
2, 210960, Note_on_c, 9, 35, 100
2, 211199, Note_on_c, 9, 65, 0
2, 211199, Note_on_c, 9, 66, 0
2, 211199, Note_on_c, 9, 35, 0
2, 211200, Note_on_c, 9, 42, 96
2, 211439, Note_on_c, 9, 42, 0
2, 211440, Note_on_c, 9, 65, 91
2, 211440, Note_on_c, 9, 66, 91
2, 211440, Note_on_c, 9, 42, 76
2, 211559, Note_on_c, 9, 65, 0
2, 211559, Note_on_c, 9, 66, 0
2, 211559, Note_on_c, 9, 42, 0
2, 211560, Note_on_c, 9, 37, 109
2, 211679, Note_on_c, 9, 37, 0
2, 211800, Note_on_c, 9, 65, 100
2, 211800, Note_on_c, 9, 66, 91
2, 211800, Note_on_c, 9, 42, 102
2, 212159, Note_on_c, 9, 65, 0
2, 212159, Note_on_c, 9, 66, 0
2, 212159, Note_on_c, 9, 42, 0
2, 212160, Note_on_c, 9, 37, 109
2, 212219, Note_on_c, 9, 37, 0
2, 212220, Note_on_c, 9, 66, 62
2, 212220, Note_on_c, 9, 42, 102
2, 212399, Note_on_c, 9, 66, 0
2, 212399, Note_on_c, 9, 42, 0
2, 212400, Note_on_c, 9, 66, 48
2, 212459, Note_on_c, 9, 66, 0
2, 212460, Note_on_c, 9, 37, 100
2, 212460, Note_on_c, 9, 66, 98
2, 212460, Note_on_c, 9, 42, 62
2, 212639, Note_on_c, 9, 37, 0
2, 212639, Note_on_c, 9, 66, 0
2, 212639, Note_on_c, 9, 42, 0
2, 212640, Note_on_c, 9, 65, 87
2, 212640, Note_on_c, 9, 66, 96
2, 212640, Note_on_c, 9, 35, 100
2, 212759, Note_on_c, 9, 65, 0
2, 212759, Note_on_c, 9, 66, 0
2, 212760, Note_on_c, 9, 42, 62
2, 212879, Note_on_c, 9, 42, 0
2, 212880, Note_on_c, 9, 37, 118
2, 212880, Note_on_c, 9, 65, 69
2, 212880, Note_on_c, 9, 66, 87
2, 212880, Note_on_c, 9, 42, 90
2, 213119, Note_on_c, 9, 35, 0
2, 213119, Note_on_c, 9, 37, 0
2, 213119, Note_on_c, 9, 65, 0
2, 213119, Note_on_c, 9, 66, 0
2, 213119, Note_on_c, 9, 42, 0
2, 213120, Note_on_c, 9, 49, 107
2, 213120, Note_on_c, 9, 35, 100
2, 213359, Note_on_c, 9, 49, 0
2, 213420, Note_on_c, 9, 42, 96
2, 213599, Note_on_c, 9, 35, 0
2, 213599, Note_on_c, 9, 42, 0
2, 213640, Note_on_c, 9, 42, 76
2, 213679, Note_on_c, 9, 42, 0
2, 213680, Note_on_c, 9, 37, 109
2, 213839, Note_on_c, 9, 37, 0
2, 213960, Note_on_c, 9, 42, 109
2, 214079, Note_on_c, 9, 42, 0
2, 214080, Note_on_c, 9, 35, 100
2, 214500, Note_on_c, 9, 42, 96
2, 214559, Note_on_c, 9, 35, 0
2, 214559, Note_on_c, 9, 42, 0
2, 214680, Note_on_c, 9, 42, 62
2, 214799, Note_on_c, 9, 42, 0
2, 214800, Note_on_c, 9, 37, 109
2, 215039, Note_on_c, 9, 37, 0
2, 215040, Note_on_c, 9, 42, 96
2, 215040, Note_on_c, 9, 55, 107
2, 215040, Note_on_c, 9, 35, 100
2, 215199, Note_on_c, 9, 42, 0
2, 215199, Note_on_c, 9, 55, 0
2, 215200, Note_on_c, 9, 42, 62
2, 215279, Note_on_c, 9, 42, 0
2, 215519, Note_on_c, 9, 35, 0
2, 215640, Note_on_c, 9, 42, 96
2, 215759, Note_on_c, 9, 42, 0
2, 215760, Note_on_c, 9, 42, 76
2, 215879, Note_on_c, 9, 42, 0
2, 215880, Note_on_c, 9, 37, 109
2, 215999, Note_on_c, 9, 37, 0
2, 216120, Note_on_c, 9, 42, 102
2, 216359, Note_on_c, 9, 42, 0
2, 216360, Note_on_c, 9, 66, 56
2, 216479, Note_on_c, 9, 66, 0
2, 216510, Note_on_c, 9, 66, 82
2, 216599, Note_on_c, 9, 66, 0
2, 216660, Note_on_c, 9, 42, 108
2, 216719, Note_on_c, 9, 42, 0
2, 216760, Note_on_c, 9, 66, 55
2, 216760, Note_on_c, 9, 42, 76
2, 216839, Note_on_c, 9, 66, 0
2, 216879, Note_on_c, 9, 42, 0
2, 216880, Note_on_c, 9, 37, 118
2, 216880, Note_on_c, 9, 66, 82
2, 216959, Note_on_c, 9, 37, 0
2, 216959, Note_on_c, 9, 66, 0
2, 217140, Note_on_c, 9, 37, 116
2, 217140, Note_on_c, 9, 66, 91
2, 217140, Note_on_c, 9, 42, 90
2, 217199, Note_on_c, 9, 37, 0
2, 217199, Note_on_c, 9, 66, 0
2, 217199, Note_on_c, 9, 42, 0
2, 217320, Note_on_c, 9, 37, 105
2, 217320, Note_on_c, 9, 42, 62
2, 217439, Note_on_c, 9, 37, 0
2, 217439, Note_on_c, 9, 42, 0
2, 217440, Note_on_c, 9, 35, 100
2, 217680, Note_on_c, 9, 42, 96
2, 217859, Note_on_c, 9, 42, 0
2, 217860, Note_on_c, 9, 42, 76
2, 217919, Note_on_c, 9, 35, 0
2, 217919, Note_on_c, 9, 42, 0
2, 218000, Note_on_c, 9, 37, 109
2, 218239, Note_on_c, 9, 37, 0
2, 218240, Note_on_c, 9, 42, 109
2, 218399, Note_on_c, 9, 42, 0
2, 218820, Note_on_c, 9, 42, 109
2, 218879, Note_on_c, 9, 42, 0
2, 218880, Note_on_c, 9, 42, 76
2, 219119, Note_on_c, 9, 42, 0
2, 219120, Note_on_c, 9, 37, 109
2, 219359, Note_on_c, 9, 37, 0
2, 219360, Note_on_c, 9, 42, 96
2, 219519, Note_on_c, 9, 42, 0
2, 219520, Note_on_c, 9, 42, 76
2, 219599, Note_on_c, 9, 42, 0
2, 219600, Note_on_c, 9, 35, 100
2, 219839, Note_on_c, 9, 35, 0
2, 219960, Note_on_c, 9, 42, 96
2, 220079, Note_on_c, 9, 42, 0
2, 220080, Note_on_c, 9, 42, 76
2, 220199, Note_on_c, 9, 42, 0
2, 220200, Note_on_c, 9, 37, 109
2, 220200, Note_on_c, 9, 50, 107
2, 220319, Note_on_c, 9, 37, 0
2, 220319, Note_on_c, 9, 50, 0
2, 220500, Note_on_c, 9, 42, 102
2, 220559, Note_on_c, 9, 42, 0
2, 220800, Note_on_c, 9, 37, 109
2, 220800, Note_on_c, 9, 47, 100
2, 220919, Note_on_c, 9, 37, 0
2, 220919, Note_on_c, 9, 47, 0
2, 220920, Note_on_c, 9, 42, 102
2, 221039, Note_on_c, 9, 42, 0
2, 221040, Note_on_c, 9, 55, 100
2, 221279, Note_on_c, 9, 55, 0
2, 221280, Note_on_c, 9, 37, 100
2, 221280, Note_on_c, 9, 42, 77
2, 221280, Note_on_c, 9, 35, 100
2, 221519, Note_on_c, 9, 37, 0
2, 221519, Note_on_c, 9, 42, 0
2, 221520, Note_on_c, 9, 42, 62
2, 221639, Note_on_c, 9, 42, 0
2, 221640, Note_on_c, 9, 37, 118
2, 221640, Note_on_c, 9, 42, 90
2, 221759, Note_on_c, 9, 35, 0
2, 221759, Note_on_c, 9, 37, 0
2, 221759, Note_on_c, 9, 42, 0
2, 221760, Note_on_c, 9, 35, 100
2, 221920, Note_on_c, 9, 54, 52
2, 222079, Note_on_c, 9, 54, 0
2, 222080, Note_on_c, 9, 54, 63
2, 222080, Note_on_c, 9, 82, 55
2, 222239, Note_on_c, 9, 35, 0
2, 222239, Note_on_c, 9, 54, 0
2, 222239, Note_on_c, 9, 82, 0
2, 222240, Note_on_c, 9, 54, 78
2, 222240, Note_on_c, 9, 69, 63
2, 222240, Note_on_c, 9, 42, 96
2, 222359, Note_on_c, 9, 54, 0
2, 222359, Note_on_c, 9, 69, 0
2, 222359, Note_on_c, 9, 42, 0
2, 222375, Note_on_c, 9, 54, 35
2, 222389, Note_on_c, 9, 54, 0
2, 222390, Note_on_c, 9, 82, 55
2, 222390, Note_on_c, 9, 42, 51
2, 222449, Note_on_c, 9, 82, 0
2, 222449, Note_on_c, 9, 42, 0
2, 222480, Note_on_c, 9, 37, 109
2, 222480, Note_on_c, 9, 54, 61
2, 222480, Note_on_c, 9, 70, 51
2, 222719, Note_on_c, 9, 37, 0
2, 222719, Note_on_c, 9, 54, 0
2, 222719, Note_on_c, 9, 70, 0
2, 222720, Note_on_c, 9, 54, 66
2, 222720, Note_on_c, 9, 82, 59
2, 222779, Note_on_c, 9, 54, 0
2, 222779, Note_on_c, 9, 82, 0
2, 222810, Note_on_c, 9, 54, 76
2, 222810, Note_on_c, 9, 69, 63
2, 222810, Note_on_c, 9, 42, 91
2, 222839, Note_on_c, 9, 54, 0
2, 222929, Note_on_c, 9, 69, 0
2, 222929, Note_on_c, 9, 42, 0
2, 222960, Note_on_c, 9, 54, 44
2, 222960, Note_on_c, 9, 82, 55
2, 222960, Note_on_c, 9, 42, 44
2, 223079, Note_on_c, 9, 54, 0
2, 223079, Note_on_c, 9, 82, 0
2, 223079, Note_on_c, 9, 42, 0
2, 223080, Note_on_c, 9, 54, 54
2, 223080, Note_on_c, 9, 70, 59
2, 223199, Note_on_c, 9, 54, 0
2, 223199, Note_on_c, 9, 70, 0
2, 223200, Note_on_c, 9, 35, 100
2, 223240, Note_on_c, 9, 54, 68
2, 223240, Note_on_c, 9, 82, 55
2, 223319, Note_on_c, 9, 54, 0
2, 223319, Note_on_c, 9, 82, 0
2, 223360, Note_on_c, 9, 54, 80
2, 223360, Note_on_c, 9, 69, 63
2, 223360, Note_on_c, 9, 42, 96
2, 223439, Note_on_c, 9, 54, 0
2, 223439, Note_on_c, 9, 69, 0
2, 223439, Note_on_c, 9, 42, 0
2, 223560, Note_on_c, 9, 54, 31
2, 223560, Note_on_c, 9, 82, 55
2, 223560, Note_on_c, 9, 42, 48
2, 223679, Note_on_c, 9, 35, 0
2, 223679, Note_on_c, 9, 54, 0
2, 223679, Note_on_c, 9, 82, 0
2, 223679, Note_on_c, 9, 42, 0
2, 223680, Note_on_c, 9, 37, 109
2, 223680, Note_on_c, 9, 54, 49
2, 223680, Note_on_c, 9, 70, 59
2, 223919, Note_on_c, 9, 37, 0
2, 223919, Note_on_c, 9, 54, 0
2, 223919, Note_on_c, 9, 70, 0
2, 223920, Note_on_c, 9, 54, 62
2, 223920, Note_on_c, 9, 82, 55
2, 223964, Note_on_c, 9, 54, 0
2, 223964, Note_on_c, 9, 82, 0
2, 223965, Note_on_c, 9, 54, 80
2, 223965, Note_on_c, 9, 69, 63
2, 223965, Note_on_c, 9, 42, 96
2, 224024, Note_on_c, 9, 69, 0
2, 224024, Note_on_c, 9, 42, 0
2, 224099, Note_on_c, 9, 54, 0
2, 224130, Note_on_c, 9, 54, 49
2, 224159, Note_on_c, 9, 54, 0
2, 224160, Note_on_c, 9, 82, 55
2, 224160, Note_on_c, 9, 42, 50
2, 224160, Note_on_c, 9, 35, 100
2, 224279, Note_on_c, 9, 82, 0
2, 224279, Note_on_c, 9, 42, 0
2, 224280, Note_on_c, 9, 54, 52
2, 224280, Note_on_c, 9, 70, 55
2, 224399, Note_on_c, 9, 54, 0
2, 224399, Note_on_c, 9, 70, 0
2, 224400, Note_on_c, 9, 54, 57
2, 224400, Note_on_c, 9, 82, 55
2, 224579, Note_on_c, 9, 54, 0
2, 224579, Note_on_c, 9, 82, 0
2, 224580, Note_on_c, 9, 54, 78
2, 224580, Note_on_c, 9, 69, 63
2, 224580, Note_on_c, 9, 42, 96
2, 224639, Note_on_c, 9, 35, 0
2, 224639, Note_on_c, 9, 54, 0
2, 224639, Note_on_c, 9, 69, 0
2, 224639, Note_on_c, 9, 42, 0
2, 224745, Note_on_c, 9, 54, 35
2, 224759, Note_on_c, 9, 54, 0
2, 224760, Note_on_c, 9, 82, 55
2, 224760, Note_on_c, 9, 42, 51
2, 224879, Note_on_c, 9, 82, 0
2, 224879, Note_on_c, 9, 42, 0
2, 224880, Note_on_c, 9, 37, 109
2, 224880, Note_on_c, 9, 54, 61
2, 224880, Note_on_c, 9, 70, 51
2, 225119, Note_on_c, 9, 37, 0
2, 225119, Note_on_c, 9, 54, 0
2, 225119, Note_on_c, 9, 70, 0
2, 225120, Note_on_c, 9, 54, 66
2, 225120, Note_on_c, 9, 82, 59
2, 225179, Note_on_c, 9, 54, 0
2, 225179, Note_on_c, 9, 82, 0
2, 225195, Note_on_c, 9, 54, 76
2, 225195, Note_on_c, 9, 69, 63
2, 225195, Note_on_c, 9, 42, 91
2, 225314, Note_on_c, 9, 69, 0
2, 225314, Note_on_c, 9, 42, 0
2, 225329, Note_on_c, 9, 54, 0
2, 225345, Note_on_c, 9, 54, 37
2, 225359, Note_on_c, 9, 54, 0
2, 225360, Note_on_c, 9, 82, 55
2, 225360, Note_on_c, 9, 42, 44
2, 225479, Note_on_c, 9, 82, 0
2, 225479, Note_on_c, 9, 42, 0
2, 225480, Note_on_c, 9, 54, 54
2, 225480, Note_on_c, 9, 70, 59
2, 225599, Note_on_c, 9, 54, 0
2, 225599, Note_on_c, 9, 70, 0
2, 225600, Note_on_c, 9, 35, 100
2, 225640, Note_on_c, 9, 37, 100
2, 225640, Note_on_c, 9, 54, 68
2, 225640, Note_on_c, 9, 82, 55
2, 225719, Note_on_c, 9, 37, 0
2, 225719, Note_on_c, 9, 54, 0
2, 225719, Note_on_c, 9, 82, 0
2, 225760, Note_on_c, 9, 54, 80
2, 225760, Note_on_c, 9, 69, 63
2, 225760, Note_on_c, 9, 42, 96
2, 225839, Note_on_c, 9, 54, 0
2, 225839, Note_on_c, 9, 69, 0
2, 225839, Note_on_c, 9, 42, 0
2, 225960, Note_on_c, 9, 54, 31
2, 225960, Note_on_c, 9, 82, 55
2, 225960, Note_on_c, 9, 42, 48
2, 226079, Note_on_c, 9, 35, 0
2, 226079, Note_on_c, 9, 54, 0
2, 226079, Note_on_c, 9, 82, 0
2, 226079, Note_on_c, 9, 42, 0
2, 226080, Note_on_c, 9, 37, 118
2, 226080, Note_on_c, 9, 54, 49
2, 226080, Note_on_c, 9, 70, 59
2, 226319, Note_on_c, 9, 37, 0
2, 226319, Note_on_c, 9, 54, 0
2, 226319, Note_on_c, 9, 70, 0
2, 226320, Note_on_c, 9, 54, 62
2, 226320, Note_on_c, 9, 82, 55
2, 226364, Note_on_c, 9, 54, 0
2, 226365, Note_on_c, 9, 54, 80
2, 226365, Note_on_c, 9, 69, 63
2, 226365, Note_on_c, 9, 42, 96
2, 226424, Note_on_c, 9, 69, 0
2, 226424, Note_on_c, 9, 42, 0
2, 226559, Note_on_c, 9, 82, 0
2, 226559, Note_on_c, 9, 54, 0
2, 226560, Note_on_c, 9, 54, 39
2, 226560, Note_on_c, 9, 82, 55
2, 226560, Note_on_c, 9, 42, 50
2, 226560, Note_on_c, 9, 35, 100
2, 226679, Note_on_c, 9, 54, 0
2, 226679, Note_on_c, 9, 82, 0
2, 226679, Note_on_c, 9, 42, 0
2, 226680, Note_on_c, 9, 54, 52
2, 226680, Note_on_c, 9, 70, 55
2, 226799, Note_on_c, 9, 54, 0
2, 226799, Note_on_c, 9, 70, 0
2, 226800, Note_on_c, 9, 54, 57
2, 226800, Note_on_c, 9, 82, 55
2, 226979, Note_on_c, 9, 54, 0
2, 226979, Note_on_c, 9, 82, 0
2, 226980, Note_on_c, 9, 54, 78
2, 226980, Note_on_c, 9, 69, 63
2, 226980, Note_on_c, 9, 42, 96
2, 227039, Note_on_c, 9, 35, 0
2, 227039, Note_on_c, 9, 54, 0
2, 227039, Note_on_c, 9, 69, 0
2, 227039, Note_on_c, 9, 42, 0
2, 227145, Note_on_c, 9, 54, 35
2, 227159, Note_on_c, 9, 54, 0
2, 227160, Note_on_c, 9, 82, 55
2, 227160, Note_on_c, 9, 42, 51
2, 227279, Note_on_c, 9, 82, 0
2, 227279, Note_on_c, 9, 42, 0
2, 227280, Note_on_c, 9, 37, 109
2, 227280, Note_on_c, 9, 54, 61
2, 227280, Note_on_c, 9, 70, 51
2, 227280, Note_on_c, 9, 35, 100
2, 227519, Note_on_c, 9, 37, 0
2, 227519, Note_on_c, 9, 54, 0
2, 227519, Note_on_c, 9, 70, 0
2, 227519, Note_on_c, 9, 35, 0
2, 227520, Note_on_c, 9, 54, 66
2, 227520, Note_on_c, 9, 82, 59
2, 227579, Note_on_c, 9, 54, 0
2, 227579, Note_on_c, 9, 82, 0
2, 227595, Note_on_c, 9, 54, 76
2, 227595, Note_on_c, 9, 69, 63
2, 227595, Note_on_c, 9, 42, 91
2, 227714, Note_on_c, 9, 69, 0
2, 227714, Note_on_c, 9, 42, 0
2, 227729, Note_on_c, 9, 54, 0
2, 227745, Note_on_c, 9, 54, 37
2, 227759, Note_on_c, 9, 54, 0
2, 227760, Note_on_c, 9, 82, 55
2, 227760, Note_on_c, 9, 42, 44
2, 227879, Note_on_c, 9, 82, 0
2, 227879, Note_on_c, 9, 42, 0
2, 227880, Note_on_c, 9, 54, 54
2, 227880, Note_on_c, 9, 70, 59
2, 227999, Note_on_c, 9, 54, 0
2, 227999, Note_on_c, 9, 70, 0
2, 228000, Note_on_c, 9, 54, 68
2, 228000, Note_on_c, 9, 82, 55
2, 228000, Note_on_c, 9, 35, 100
2, 228179, Note_on_c, 9, 54, 0
2, 228179, Note_on_c, 9, 82, 0
2, 228180, Note_on_c, 9, 54, 80
2, 228180, Note_on_c, 9, 69, 63
2, 228180, Note_on_c, 9, 42, 96
2, 228239, Note_on_c, 9, 54, 0
2, 228239, Note_on_c, 9, 69, 0
2, 228239, Note_on_c, 9, 42, 0
2, 228360, Note_on_c, 9, 54, 31
2, 228360, Note_on_c, 9, 82, 55
2, 228360, Note_on_c, 9, 42, 48
2, 228479, Note_on_c, 9, 35, 0
2, 228479, Note_on_c, 9, 54, 0
2, 228479, Note_on_c, 9, 82, 0
2, 228479, Note_on_c, 9, 42, 0
2, 228480, Note_on_c, 9, 37, 109
2, 228480, Note_on_c, 9, 54, 49
2, 228480, Note_on_c, 9, 70, 59
2, 228719, Note_on_c, 9, 37, 0
2, 228719, Note_on_c, 9, 54, 0
2, 228719, Note_on_c, 9, 70, 0
2, 228720, Note_on_c, 9, 54, 62
2, 228720, Note_on_c, 9, 82, 55
2, 228779, Note_on_c, 9, 54, 0
2, 228779, Note_on_c, 9, 82, 0
2, 228780, Note_on_c, 9, 54, 80
2, 228780, Note_on_c, 9, 69, 63
2, 228780, Note_on_c, 9, 42, 96
2, 228899, Note_on_c, 9, 54, 0
2, 228899, Note_on_c, 9, 69, 0
2, 228899, Note_on_c, 9, 42, 0
2, 228930, Note_on_c, 9, 54, 49
2, 228959, Note_on_c, 9, 54, 0
2, 228960, Note_on_c, 9, 82, 55
2, 228960, Note_on_c, 9, 42, 50
2, 228960, Note_on_c, 9, 35, 100
2, 229079, Note_on_c, 9, 82, 0
2, 229079, Note_on_c, 9, 42, 0
2, 229080, Note_on_c, 9, 54, 52
2, 229080, Note_on_c, 9, 70, 55
2, 229199, Note_on_c, 9, 54, 0
2, 229199, Note_on_c, 9, 70, 0
2, 229200, Note_on_c, 9, 54, 57
2, 229200, Note_on_c, 9, 82, 55
2, 229379, Note_on_c, 9, 54, 0
2, 229379, Note_on_c, 9, 82, 0
2, 229410, Note_on_c, 9, 54, 78
2, 229410, Note_on_c, 9, 69, 63
2, 229410, Note_on_c, 9, 42, 96
2, 229439, Note_on_c, 9, 35, 0
2, 229439, Note_on_c, 9, 54, 0
2, 229529, Note_on_c, 9, 69, 0
2, 229529, Note_on_c, 9, 42, 0
2, 229560, Note_on_c, 9, 54, 35
2, 229589, Note_on_c, 9, 54, 0
2, 229590, Note_on_c, 9, 82, 55
2, 229590, Note_on_c, 9, 42, 51
2, 229649, Note_on_c, 9, 82, 0
2, 229649, Note_on_c, 9, 42, 0
2, 229680, Note_on_c, 9, 37, 109
2, 229680, Note_on_c, 9, 54, 61
2, 229680, Note_on_c, 9, 70, 51
2, 229919, Note_on_c, 9, 37, 0
2, 229919, Note_on_c, 9, 54, 0
2, 229919, Note_on_c, 9, 70, 0
2, 229920, Note_on_c, 9, 54, 66
2, 229920, Note_on_c, 9, 82, 59
2, 230039, Note_on_c, 9, 54, 0
2, 230039, Note_on_c, 9, 82, 0
2, 230040, Note_on_c, 9, 54, 76
2, 230040, Note_on_c, 9, 69, 63
2, 230040, Note_on_c, 9, 42, 91
2, 230159, Note_on_c, 9, 54, 0
2, 230159, Note_on_c, 9, 69, 0
2, 230159, Note_on_c, 9, 42, 0
2, 230160, Note_on_c, 9, 54, 37
2, 230179, Note_on_c, 9, 54, 0
2, 230180, Note_on_c, 9, 82, 55
2, 230180, Note_on_c, 9, 42, 44
2, 230219, Note_on_c, 9, 82, 0
2, 230219, Note_on_c, 9, 42, 0
2, 230280, Note_on_c, 9, 37, 109
2, 230280, Note_on_c, 9, 54, 54
2, 230280, Note_on_c, 9, 70, 59
2, 230399, Note_on_c, 9, 37, 0
2, 230399, Note_on_c, 9, 54, 0
2, 230399, Note_on_c, 9, 70, 0
2, 230400, Note_on_c, 9, 54, 68
2, 230400, Note_on_c, 9, 82, 55
2, 230400, Note_on_c, 9, 35, 100
2, 230579, Note_on_c, 9, 54, 0
2, 230579, Note_on_c, 9, 82, 0
2, 230580, Note_on_c, 9, 54, 80
2, 230580, Note_on_c, 9, 69, 63
2, 230580, Note_on_c, 9, 42, 96
2, 230639, Note_on_c, 9, 35, 0
2, 230639, Note_on_c, 9, 54, 0
2, 230639, Note_on_c, 9, 69, 0
2, 230639, Note_on_c, 9, 42, 0
2, 230640, Note_on_c, 9, 35, 100
2, 230760, Note_on_c, 9, 37, 100
2, 230760, Note_on_c, 9, 54, 31
2, 230760, Note_on_c, 9, 82, 55
2, 230760, Note_on_c, 9, 42, 48
2, 230879, Note_on_c, 9, 35, 0
2, 230879, Note_on_c, 9, 37, 0
2, 230879, Note_on_c, 9, 54, 0
2, 230879, Note_on_c, 9, 82, 0
2, 230879, Note_on_c, 9, 42, 0
2, 230880, Note_on_c, 9, 45, 100
2, 230880, Note_on_c, 9, 54, 49
2, 230880, Note_on_c, 9, 70, 59
2, 230880, Note_on_c, 9, 35, 100
2, 231119, Note_on_c, 9, 45, 0
2, 231119, Note_on_c, 9, 54, 0
2, 231119, Note_on_c, 9, 70, 0
2, 231119, Note_on_c, 9, 35, 0
2, 231120, Note_on_c, 9, 54, 62
2, 231120, Note_on_c, 9, 82, 55
2, 231120, Note_on_c, 9, 35, 100
2, 231179, Note_on_c, 9, 54, 0
2, 231179, Note_on_c, 9, 82, 0
2, 231180, Note_on_c, 9, 37, 118
2, 231180, Note_on_c, 9, 54, 80
2, 231180, Note_on_c, 9, 69, 63
2, 231180, Note_on_c, 9, 42, 96
2, 231180, Note_on_c, 9, 55, 100
2, 231359, Note_on_c, 9, 35, 0
2, 231359, Note_on_c, 9, 37, 0
2, 231359, Note_on_c, 9, 54, 0
2, 231359, Note_on_c, 9, 69, 0
2, 231359, Note_on_c, 9, 42, 0
2, 231359, Note_on_c, 9, 55, 0
2, 231360, Note_on_c, 9, 54, 39
2, 231360, Note_on_c, 9, 82, 55
2, 231360, Note_on_c, 9, 42, 50
2, 231479, Note_on_c, 9, 54, 0
2, 231479, Note_on_c, 9, 82, 0
2, 231479, Note_on_c, 9, 42, 0
2, 231480, Note_on_c, 9, 54, 52
2, 231480, Note_on_c, 9, 70, 55
2, 231599, Note_on_c, 9, 54, 0
2, 231599, Note_on_c, 9, 70, 0
2, 231600, Note_on_c, 9, 54, 57
2, 231600, Note_on_c, 9, 82, 55
2, 231779, Note_on_c, 9, 54, 0
2, 231779, Note_on_c, 9, 82, 0
2, 231780, Note_on_c, 9, 54, 78
2, 231780, Note_on_c, 9, 66, 79
2, 231780, Note_on_c, 9, 69, 63
2, 231780, Note_on_c, 9, 42, 96
2, 231839, Note_on_c, 9, 54, 0
2, 231839, Note_on_c, 9, 66, 0
2, 231839, Note_on_c, 9, 69, 0
2, 231839, Note_on_c, 9, 42, 0
2, 231945, Note_on_c, 9, 54, 35
2, 231959, Note_on_c, 9, 54, 0
2, 231960, Note_on_c, 9, 82, 55
2, 231960, Note_on_c, 9, 42, 51
2, 232079, Note_on_c, 9, 82, 0
2, 232079, Note_on_c, 9, 42, 0
2, 232080, Note_on_c, 9, 35, 100
2, 232120, Note_on_c, 9, 54, 61
2, 232120, Note_on_c, 9, 70, 51
2, 232279, Note_on_c, 9, 54, 0
2, 232279, Note_on_c, 9, 70, 0
2, 232280, Note_on_c, 9, 54, 66
2, 232280, Note_on_c, 9, 66, 79
2, 232319, Note_on_c, 9, 35, 0
2, 232319, Note_on_c, 9, 54, 0
2, 232319, Note_on_c, 9, 66, 0
2, 232320, Note_on_c, 9, 82, 59
2, 232379, Note_on_c, 9, 82, 0
2, 232410, Note_on_c, 9, 54, 76
2, 232410, Note_on_c, 9, 69, 63
2, 232410, Note_on_c, 9, 42, 91
2, 232529, Note_on_c, 9, 54, 0
2, 232529, Note_on_c, 9, 69, 0
2, 232529, Note_on_c, 9, 42, 0
2, 232530, Note_on_c, 9, 54, 37
2, 232560, Note_on_c, 9, 82, 55
2, 232560, Note_on_c, 9, 42, 44
2, 232679, Note_on_c, 9, 54, 0
2, 232679, Note_on_c, 9, 82, 0
2, 232679, Note_on_c, 9, 42, 0
2, 232680, Note_on_c, 9, 54, 54
2, 232680, Note_on_c, 9, 66, 76
2, 232680, Note_on_c, 9, 70, 59
2, 232799, Note_on_c, 9, 54, 0
2, 232799, Note_on_c, 9, 66, 0
2, 232799, Note_on_c, 9, 70, 0
2, 232860, Note_on_c, 9, 54, 68
2, 232860, Note_on_c, 9, 82, 55
2, 232979, Note_on_c, 9, 54, 0
2, 232979, Note_on_c, 9, 82, 0
2, 232980, Note_on_c, 9, 54, 80
2, 232980, Note_on_c, 9, 46, 96
2, 232980, Note_on_c, 9, 69, 63
2, 233039, Note_on_c, 9, 54, 0
2, 233039, Note_on_c, 9, 46, 0
2, 233039, Note_on_c, 9, 69, 0
2, 233160, Note_on_c, 9, 54, 31
2, 233160, Note_on_c, 9, 82, 55
2, 233160, Note_on_c, 9, 42, 48
2, 233279, Note_on_c, 9, 54, 0
2, 233279, Note_on_c, 9, 82, 0
2, 233279, Note_on_c, 9, 42, 0
2, 233280, Note_on_c, 9, 37, 109
2, 233280, Note_on_c, 9, 54, 49
2, 233280, Note_on_c, 9, 70, 59
2, 233519, Note_on_c, 9, 37, 0
2, 233519, Note_on_c, 9, 54, 0
2, 233519, Note_on_c, 9, 70, 0
2, 233520, Note_on_c, 9, 54, 62
2, 233520, Note_on_c, 9, 82, 55
2, 233579, Note_on_c, 9, 54, 0
2, 233579, Note_on_c, 9, 82, 0
2, 233580, Note_on_c, 9, 54, 80
2, 233580, Note_on_c, 9, 69, 63
2, 233580, Note_on_c, 9, 42, 96
2, 233699, Note_on_c, 9, 54, 0
2, 233699, Note_on_c, 9, 69, 0
2, 233699, Note_on_c, 9, 42, 0
2, 233730, Note_on_c, 9, 54, 49
2, 233759, Note_on_c, 9, 54, 0
2, 233760, Note_on_c, 9, 82, 55
2, 233760, Note_on_c, 9, 42, 50
2, 233760, Note_on_c, 9, 35, 100
2, 233879, Note_on_c, 9, 82, 0
2, 233879, Note_on_c, 9, 42, 0
2, 233880, Note_on_c, 9, 54, 52
2, 233880, Note_on_c, 9, 70, 55
2, 233999, Note_on_c, 9, 54, 0
2, 233999, Note_on_c, 9, 70, 0
2, 234000, Note_on_c, 9, 54, 57
2, 234000, Note_on_c, 9, 82, 55
2, 234179, Note_on_c, 9, 54, 0
2, 234179, Note_on_c, 9, 82, 0
2, 234210, Note_on_c, 9, 54, 78
2, 234210, Note_on_c, 9, 69, 63
2, 234210, Note_on_c, 9, 42, 96
2, 234239, Note_on_c, 9, 35, 0
2, 234239, Note_on_c, 9, 54, 0
2, 234329, Note_on_c, 9, 69, 0
2, 234329, Note_on_c, 9, 42, 0
2, 234360, Note_on_c, 9, 54, 35
2, 234389, Note_on_c, 9, 54, 0
2, 234390, Note_on_c, 9, 82, 55
2, 234390, Note_on_c, 9, 42, 51
2, 234449, Note_on_c, 9, 82, 0
2, 234449, Note_on_c, 9, 42, 0
2, 234480, Note_on_c, 9, 37, 109
2, 234480, Note_on_c, 9, 54, 61
2, 234480, Note_on_c, 9, 70, 51
2, 234719, Note_on_c, 9, 37, 0
2, 234719, Note_on_c, 9, 54, 0
2, 234719, Note_on_c, 9, 70, 0
2, 234720, Note_on_c, 9, 54, 66
2, 234720, Note_on_c, 9, 82, 59
2, 234839, Note_on_c, 9, 54, 0
2, 234839, Note_on_c, 9, 82, 0
2, 234840, Note_on_c, 9, 54, 76
2, 234840, Note_on_c, 9, 69, 63
2, 234840, Note_on_c, 9, 42, 91
2, 234959, Note_on_c, 9, 54, 0
2, 234959, Note_on_c, 9, 69, 0
2, 234959, Note_on_c, 9, 42, 0
2, 234960, Note_on_c, 9, 54, 37
2, 234979, Note_on_c, 9, 54, 0
2, 234980, Note_on_c, 9, 82, 55
2, 234980, Note_on_c, 9, 42, 44
2, 235019, Note_on_c, 9, 82, 0
2, 235019, Note_on_c, 9, 42, 0
2, 235080, Note_on_c, 9, 54, 54
2, 235080, Note_on_c, 9, 65, 64
2, 235080, Note_on_c, 9, 70, 59
2, 235199, Note_on_c, 9, 54, 0
2, 235199, Note_on_c, 9, 65, 0
2, 235199, Note_on_c, 9, 70, 0
2, 235260, Note_on_c, 9, 37, 100
2, 235260, Note_on_c, 9, 54, 68
2, 235260, Note_on_c, 9, 65, 78
2, 235260, Note_on_c, 9, 82, 55
2, 235379, Note_on_c, 9, 37, 0
2, 235379, Note_on_c, 9, 54, 0
2, 235379, Note_on_c, 9, 65, 0
2, 235379, Note_on_c, 9, 82, 0
2, 235380, Note_on_c, 9, 54, 80
2, 235380, Note_on_c, 9, 65, 78
2, 235380, Note_on_c, 9, 69, 63
2, 235380, Note_on_c, 9, 42, 96
2, 235439, Note_on_c, 9, 69, 0
2, 235439, Note_on_c, 9, 42, 0
2, 235529, Note_on_c, 9, 54, 0
2, 235529, Note_on_c, 9, 65, 0
2, 235530, Note_on_c, 9, 65, 82
2, 235559, Note_on_c, 9, 65, 0
2, 235560, Note_on_c, 9, 54, 31
2, 235560, Note_on_c, 9, 82, 55
2, 235560, Note_on_c, 9, 42, 48
2, 235679, Note_on_c, 9, 54, 0
2, 235679, Note_on_c, 9, 82, 0
2, 235679, Note_on_c, 9, 42, 0
2, 235680, Note_on_c, 9, 37, 118
2, 235680, Note_on_c, 9, 54, 49
2, 235680, Note_on_c, 9, 65, 109
2, 235680, Note_on_c, 9, 70, 59
2, 235919, Note_on_c, 9, 37, 0
2, 235919, Note_on_c, 9, 54, 0
2, 235919, Note_on_c, 9, 65, 0
2, 235919, Note_on_c, 9, 70, 0
2, 235920, Note_on_c, 9, 54, 62
2, 235920, Note_on_c, 9, 82, 55
2, 235964, Note_on_c, 9, 54, 0
2, 235965, Note_on_c, 9, 54, 80
2, 235965, Note_on_c, 9, 65, 109
2, 235965, Note_on_c, 9, 69, 63
2, 235965, Note_on_c, 9, 42, 96
2, 236024, Note_on_c, 9, 65, 0
2, 236024, Note_on_c, 9, 69, 0
2, 236024, Note_on_c, 9, 42, 0
2, 236159, Note_on_c, 9, 82, 0
2, 236159, Note_on_c, 9, 54, 0
2, 236160, Note_on_c, 9, 54, 39
2, 236160, Note_on_c, 9, 82, 55
2, 236160, Note_on_c, 9, 42, 50
2, 236160, Note_on_c, 9, 35, 100
2, 236279, Note_on_c, 9, 54, 0
2, 236279, Note_on_c, 9, 82, 0
2, 236279, Note_on_c, 9, 42, 0
2, 236280, Note_on_c, 9, 54, 52
2, 236280, Note_on_c, 9, 70, 55
2, 236399, Note_on_c, 9, 54, 0
2, 236399, Note_on_c, 9, 70, 0
2, 236400, Note_on_c, 9, 54, 57
2, 236400, Note_on_c, 9, 82, 55
2, 236519, Note_on_c, 9, 54, 0
2, 236519, Note_on_c, 9, 82, 0
2, 236550, Note_on_c, 9, 54, 78
2, 236550, Note_on_c, 9, 69, 63
2, 236550, Note_on_c, 9, 42, 96
2, 236609, Note_on_c, 9, 69, 0
2, 236609, Note_on_c, 9, 42, 0
2, 236639, Note_on_c, 9, 35, 0
2, 236639, Note_on_c, 9, 54, 0
2, 236700, Note_on_c, 9, 54, 35
2, 236719, Note_on_c, 9, 54, 0
2, 236720, Note_on_c, 9, 82, 55
2, 236720, Note_on_c, 9, 42, 51
2, 236759, Note_on_c, 9, 82, 0
2, 236759, Note_on_c, 9, 42, 0
2, 236880, Note_on_c, 9, 37, 109
2, 236880, Note_on_c, 9, 54, 61
2, 236880, Note_on_c, 9, 70, 51
2, 236880, Note_on_c, 9, 35, 100
2, 237059, Note_on_c, 9, 37, 0
2, 237059, Note_on_c, 9, 54, 0
2, 237059, Note_on_c, 9, 70, 0
2, 237060, Note_on_c, 9, 54, 66
2, 237060, Note_on_c, 9, 82, 59
2, 237119, Note_on_c, 9, 35, 0
2, 237119, Note_on_c, 9, 54, 0
2, 237119, Note_on_c, 9, 82, 0
2, 237150, Note_on_c, 9, 54, 76
2, 237150, Note_on_c, 9, 69, 63
2, 237150, Note_on_c, 9, 42, 91
2, 237209, Note_on_c, 9, 69, 0
2, 237209, Note_on_c, 9, 42, 0
2, 237239, Note_on_c, 9, 54, 0
2, 237240, Note_on_c, 9, 54, 37
2, 237299, Note_on_c, 9, 54, 0
2, 237300, Note_on_c, 9, 82, 55
2, 237300, Note_on_c, 9, 42, 44
2, 237359, Note_on_c, 9, 82, 0
2, 237359, Note_on_c, 9, 42, 0
2, 237360, Note_on_c, 9, 54, 54
2, 237360, Note_on_c, 9, 70, 59
2, 237599, Note_on_c, 9, 54, 0
2, 237599, Note_on_c, 9, 70, 0
2, 237600, Note_on_c, 9, 37, 100
2, 237600, Note_on_c, 9, 54, 68
2, 237600, Note_on_c, 9, 82, 55
2, 237719, Note_on_c, 9, 37, 0
2, 237719, Note_on_c, 9, 54, 0
2, 237719, Note_on_c, 9, 82, 0
2, 237735, Note_on_c, 9, 54, 80
2, 237735, Note_on_c, 9, 69, 63
2, 237735, Note_on_c, 9, 42, 96
2, 237779, Note_on_c, 9, 54, 0
2, 237794, Note_on_c, 9, 69, 0
2, 237794, Note_on_c, 9, 42, 0
2, 237900, Note_on_c, 9, 54, 31
2, 237900, Note_on_c, 9, 82, 55
2, 237900, Note_on_c, 9, 42, 48
2, 238079, Note_on_c, 9, 54, 0
2, 238079, Note_on_c, 9, 82, 0
2, 238079, Note_on_c, 9, 42, 0
2, 238080, Note_on_c, 9, 37, 118
2, 238080, Note_on_c, 9, 54, 49
2, 238080, Note_on_c, 9, 70, 59
2, 238319, Note_on_c, 9, 37, 0
2, 238319, Note_on_c, 9, 54, 0
2, 238319, Note_on_c, 9, 70, 0
2, 238320, Note_on_c, 9, 54, 62
2, 238320, Note_on_c, 9, 82, 55
2, 238320, Note_on_c, 9, 35, 100
2, 238364, Note_on_c, 9, 54, 0
2, 238365, Note_on_c, 9, 54, 80
2, 238365, Note_on_c, 9, 69, 63
2, 238365, Note_on_c, 9, 42, 96
2, 238424, Note_on_c, 9, 69, 0
2, 238424, Note_on_c, 9, 42, 0
2, 238499, Note_on_c, 9, 82, 0
2, 238499, Note_on_c, 9, 54, 0
2, 238530, Note_on_c, 9, 54, 49
2, 238559, Note_on_c, 9, 35, 0
2, 238559, Note_on_c, 9, 54, 0
2, 238560, Note_on_c, 9, 82, 55
2, 238560, Note_on_c, 9, 42, 50
2, 238679, Note_on_c, 9, 82, 0
2, 238679, Note_on_c, 9, 42, 0
2, 238680, Note_on_c, 9, 54, 52
2, 238680, Note_on_c, 9, 70, 55
2, 238919, Note_on_c, 9, 54, 0
2, 238919, Note_on_c, 9, 70, 0
2, 238920, Note_on_c, 9, 54, 57
2, 238920, Note_on_c, 9, 82, 55
2, 238979, Note_on_c, 9, 54, 0
2, 238979, Note_on_c, 9, 82, 0
2, 239025, Note_on_c, 9, 54, 78
2, 239025, Note_on_c, 9, 69, 63
2, 239025, Note_on_c, 9, 42, 96
2, 239084, Note_on_c, 9, 69, 0
2, 239084, Note_on_c, 9, 42, 0
2, 239159, Note_on_c, 9, 54, 0
2, 239190, Note_on_c, 9, 54, 35
2, 239219, Note_on_c, 9, 54, 0
2, 239220, Note_on_c, 9, 82, 55
2, 239220, Note_on_c, 9, 42, 51
2, 239279, Note_on_c, 9, 82, 0
2, 239279, Note_on_c, 9, 42, 0
2, 239280, Note_on_c, 9, 37, 109
2, 239280, Note_on_c, 9, 54, 61
2, 239280, Note_on_c, 9, 70, 51
2, 239519, Note_on_c, 9, 37, 0
2, 239519, Note_on_c, 9, 54, 0
2, 239519, Note_on_c, 9, 70, 0
2, 239520, Note_on_c, 9, 54, 66
2, 239520, Note_on_c, 9, 82, 59
2, 239639, Note_on_c, 9, 54, 0
2, 239639, Note_on_c, 9, 82, 0
2, 239655, Note_on_c, 9, 54, 76
2, 239655, Note_on_c, 9, 69, 63
2, 239655, Note_on_c, 9, 42, 91
2, 239699, Note_on_c, 9, 54, 0
2, 239714, Note_on_c, 9, 69, 0
2, 239714, Note_on_c, 9, 42, 0
2, 239820, Note_on_c, 9, 54, 37
2, 239849, Note_on_c, 9, 54, 0
2, 239850, Note_on_c, 9, 82, 55
2, 239850, Note_on_c, 9, 42, 44
2, 239969, Note_on_c, 9, 82, 0
2, 239969, Note_on_c, 9, 42, 0
2, 240000, Note_on_c, 9, 37, 109
2, 240000, Note_on_c, 9, 54, 54
2, 240000, Note_on_c, 9, 70, 59
2, 240239, Note_on_c, 9, 37, 0
2, 240239, Note_on_c, 9, 54, 0
2, 240239, Note_on_c, 9, 70, 0
2, 240240, Note_on_c, 9, 54, 68
2, 240240, Note_on_c, 9, 82, 55
2, 240299, Note_on_c, 9, 54, 0
2, 240299, Note_on_c, 9, 82, 0
2, 240300, Note_on_c, 9, 54, 80
2, 240300, Note_on_c, 9, 69, 63
2, 240300, Note_on_c, 9, 42, 96
2, 240479, Note_on_c, 9, 54, 0
2, 240479, Note_on_c, 9, 69, 0
2, 240479, Note_on_c, 9, 42, 0
2, 240480, Note_on_c, 9, 37, 100
2, 240480, Note_on_c, 9, 54, 31
2, 240480, Note_on_c, 9, 82, 55
2, 240480, Note_on_c, 9, 42, 48
2, 240639, Note_on_c, 9, 37, 0
2, 240639, Note_on_c, 9, 54, 0
2, 240639, Note_on_c, 9, 82, 0
2, 240639, Note_on_c, 9, 42, 0
2, 240640, Note_on_c, 9, 38, 96
2, 240640, Note_on_c, 9, 54, 49
2, 240640, Note_on_c, 9, 48, 62
2, 240640, Note_on_c, 9, 70, 59
2, 240640, Note_on_c, 9, 35, 100
2, 240799, Note_on_c, 9, 38, 0
2, 240799, Note_on_c, 9, 54, 0
2, 240799, Note_on_c, 9, 48, 0
2, 240799, Note_on_c, 9, 70, 0
2, 240800, Note_on_c, 9, 54, 62
2, 240800, Note_on_c, 9, 82, 55
2, 240959, Note_on_c, 9, 35, 0
2, 240959, Note_on_c, 9, 54, 0
2, 240959, Note_on_c, 9, 82, 0
2, 240960, Note_on_c, 9, 37, 118
2, 240960, Note_on_c, 9, 54, 80
2, 240960, Note_on_c, 9, 69, 63
2, 240960, Note_on_c, 9, 42, 96
2, 241039, Note_on_c, 9, 37, 0
2, 241039, Note_on_c, 9, 54, 0
2, 241039, Note_on_c, 9, 69, 0
2, 241039, Note_on_c, 9, 42, 0
2, 241120, Note_on_c, 9, 54, 39
2, 241120, Note_on_c, 9, 82, 55
2, 241120, Note_on_c, 9, 42, 50
2, 241279, Note_on_c, 9, 54, 0
2, 241279, Note_on_c, 9, 82, 0
2, 241279, Note_on_c, 9, 42, 0
2, 241280, Note_on_c, 9, 54, 52
2, 241280, Note_on_c, 9, 70, 55
2, 241280, Note_on_c, 9, 35, 100
2, 241439, Note_on_c, 9, 54, 0
2, 241439, Note_on_c, 9, 70, 0
2, 241440, Note_on_c, 9, 54, 57
2, 241440, Note_on_c, 9, 82, 55
2, 241559, Note_on_c, 9, 54, 0
2, 241559, Note_on_c, 9, 82, 0
2, 241590, Note_on_c, 9, 54, 78
2, 241590, Note_on_c, 9, 69, 63
2, 241590, Note_on_c, 9, 42, 96
2, 241649, Note_on_c, 9, 69, 0
2, 241649, Note_on_c, 9, 42, 0
2, 241679, Note_on_c, 9, 54, 0
2, 241755, Note_on_c, 9, 54, 35
2, 241799, Note_on_c, 9, 54, 0
2, 241800, Note_on_c, 9, 82, 55
2, 241800, Note_on_c, 9, 42, 51
2, 241919, Note_on_c, 9, 35, 0
2, 241919, Note_on_c, 9, 82, 0
2, 241919, Note_on_c, 9, 42, 0
2, 241920, Note_on_c, 9, 37, 109
2, 241920, Note_on_c, 9, 54, 61
2, 241920, Note_on_c, 9, 70, 51
2, 242099, Note_on_c, 9, 37, 0
2, 242099, Note_on_c, 9, 54, 0
2, 242099, Note_on_c, 9, 70, 0
2, 242100, Note_on_c, 9, 54, 66
2, 242100, Note_on_c, 9, 82, 59
2, 242159, Note_on_c, 9, 54, 0
2, 242159, Note_on_c, 9, 82, 0
2, 242220, Note_on_c, 9, 54, 76
2, 242220, Note_on_c, 9, 69, 63
2, 242220, Note_on_c, 9, 42, 91
2, 242339, Note_on_c, 9, 54, 0
2, 242339, Note_on_c, 9, 69, 0
2, 242339, Note_on_c, 9, 42, 0
2, 242370, Note_on_c, 9, 54, 37
2, 242399, Note_on_c, 9, 54, 0
2, 242400, Note_on_c, 9, 82, 55
2, 242400, Note_on_c, 9, 42, 44
2, 242400, Note_on_c, 9, 35, 100
2, 242519, Note_on_c, 9, 82, 0
2, 242519, Note_on_c, 9, 42, 0
2, 242520, Note_on_c, 9, 54, 54
2, 242520, Note_on_c, 9, 70, 59
2, 242759, Note_on_c, 9, 54, 0
2, 242759, Note_on_c, 9, 70, 0
2, 242760, Note_on_c, 9, 54, 68
2, 242760, Note_on_c, 9, 82, 55
2, 242819, Note_on_c, 9, 54, 0
2, 242819, Note_on_c, 9, 82, 0
2, 242865, Note_on_c, 9, 54, 80
2, 242865, Note_on_c, 9, 69, 63
2, 242865, Note_on_c, 9, 42, 96
2, 242879, Note_on_c, 9, 35, 0
2, 242880, Note_on_c, 9, 35, 100
2, 243044, Note_on_c, 9, 69, 0
2, 243044, Note_on_c, 9, 42, 0
2, 243059, Note_on_c, 9, 54, 0
2, 243060, Note_on_c, 9, 54, 31
2, 243060, Note_on_c, 9, 82, 55
2, 243060, Note_on_c, 9, 42, 48
2, 243119, Note_on_c, 9, 54, 0
2, 243119, Note_on_c, 9, 82, 0
2, 243119, Note_on_c, 9, 42, 0
2, 243210, Note_on_c, 9, 37, 109
2, 243210, Note_on_c, 9, 54, 49
2, 243210, Note_on_c, 9, 70, 59
2, 243239, Note_on_c, 9, 54, 0
2, 243329, Note_on_c, 9, 37, 0
2, 243329, Note_on_c, 9, 70, 0
2, 243359, Note_on_c, 9, 35, 0
2, 243360, Note_on_c, 9, 54, 62
2, 243360, Note_on_c, 9, 82, 55
2, 243479, Note_on_c, 9, 54, 0
2, 243479, Note_on_c, 9, 82, 0
2, 243525, Note_on_c, 9, 54, 80
2, 243525, Note_on_c, 9, 69, 63
2, 243525, Note_on_c, 9, 42, 96
2, 243584, Note_on_c, 9, 69, 0
2, 243584, Note_on_c, 9, 42, 0
2, 243599, Note_on_c, 9, 54, 0
2, 243660, Note_on_c, 9, 54, 49
2, 243719, Note_on_c, 9, 54, 0
2, 243720, Note_on_c, 9, 82, 55
2, 243720, Note_on_c, 9, 42, 50
2, 243839, Note_on_c, 9, 82, 0
2, 243839, Note_on_c, 9, 42, 0
2, 243840, Note_on_c, 9, 54, 52
2, 243840, Note_on_c, 9, 70, 55
2, 243840, Note_on_c, 9, 35, 100
2, 244079, Note_on_c, 9, 54, 0
2, 244079, Note_on_c, 9, 70, 0
2, 244080, Note_on_c, 9, 54, 57
2, 244080, Note_on_c, 9, 82, 55
2, 244139, Note_on_c, 9, 54, 0
2, 244139, Note_on_c, 9, 82, 0
2, 244185, Note_on_c, 9, 54, 78
2, 244185, Note_on_c, 9, 69, 63
2, 244185, Note_on_c, 9, 42, 96
2, 244244, Note_on_c, 9, 69, 0
2, 244244, Note_on_c, 9, 42, 0
2, 244319, Note_on_c, 9, 35, 0
2, 244319, Note_on_c, 9, 54, 0
2, 244350, Note_on_c, 9, 54, 35
2, 244379, Note_on_c, 9, 54, 0
2, 244380, Note_on_c, 9, 82, 55
2, 244380, Note_on_c, 9, 42, 51
2, 244559, Note_on_c, 9, 82, 0
2, 244559, Note_on_c, 9, 42, 0
2, 244560, Note_on_c, 9, 37, 109
2, 244560, Note_on_c, 9, 54, 61
2, 244560, Note_on_c, 9, 70, 51
2, 244679, Note_on_c, 9, 37, 0
2, 244679, Note_on_c, 9, 54, 0
2, 244679, Note_on_c, 9, 70, 0
2, 244680, Note_on_c, 9, 54, 66
2, 244680, Note_on_c, 9, 82, 59
2, 244799, Note_on_c, 9, 54, 0
2, 244799, Note_on_c, 9, 82, 0
2, 244800, Note_on_c, 9, 54, 76
2, 244800, Note_on_c, 9, 69, 63
2, 244800, Note_on_c, 9, 42, 91
2, 244919, Note_on_c, 9, 69, 0
2, 244919, Note_on_c, 9, 42, 0
2, 244964, Note_on_c, 9, 54, 0
2, 244965, Note_on_c, 9, 54, 37
2, 244979, Note_on_c, 9, 54, 0
2, 244980, Note_on_c, 9, 82, 55
2, 244980, Note_on_c, 9, 42, 44
2, 245039, Note_on_c, 9, 82, 0
2, 245039, Note_on_c, 9, 42, 0
2, 245040, Note_on_c, 9, 54, 54
2, 245040, Note_on_c, 9, 70, 59
2, 245279, Note_on_c, 9, 54, 0
2, 245279, Note_on_c, 9, 70, 0
2, 245280, Note_on_c, 9, 37, 100
2, 245280, Note_on_c, 9, 54, 68
2, 245280, Note_on_c, 9, 66, 58
2, 245280, Note_on_c, 9, 82, 55
2, 245399, Note_on_c, 9, 37, 0
2, 245399, Note_on_c, 9, 54, 0
2, 245399, Note_on_c, 9, 66, 0
2, 245399, Note_on_c, 9, 82, 0
2, 245430, Note_on_c, 9, 54, 80
2, 245430, Note_on_c, 9, 66, 61
2, 245430, Note_on_c, 9, 69, 63
2, 245430, Note_on_c, 9, 42, 96
2, 245489, Note_on_c, 9, 69, 0
2, 245489, Note_on_c, 9, 42, 0
2, 245519, Note_on_c, 9, 54, 0
2, 245519, Note_on_c, 9, 66, 0
2, 245580, Note_on_c, 9, 66, 79
2, 245639, Note_on_c, 9, 66, 0
2, 245640, Note_on_c, 9, 54, 31
2, 245640, Note_on_c, 9, 82, 55
2, 245640, Note_on_c, 9, 42, 48
2, 245759, Note_on_c, 9, 54, 0
2, 245759, Note_on_c, 9, 82, 0
2, 245759, Note_on_c, 9, 42, 0
2, 245760, Note_on_c, 9, 37, 118
2, 245760, Note_on_c, 9, 54, 49
2, 245760, Note_on_c, 9, 66, 96
2, 245760, Note_on_c, 9, 70, 59
2, 245999, Note_on_c, 9, 37, 0
2, 245999, Note_on_c, 9, 54, 0
2, 245999, Note_on_c, 9, 66, 0
2, 245999, Note_on_c, 9, 70, 0
2, 246000, Note_on_c, 9, 54, 62
2, 246000, Note_on_c, 9, 82, 55
2, 246059, Note_on_c, 9, 54, 0
2, 246059, Note_on_c, 9, 82, 0
2, 246060, Note_on_c, 9, 54, 80
2, 246060, Note_on_c, 9, 66, 84
2, 246060, Note_on_c, 9, 69, 63
2, 246060, Note_on_c, 9, 42, 96
2, 246239, Note_on_c, 9, 54, 0
2, 246239, Note_on_c, 9, 66, 0
2, 246239, Note_on_c, 9, 69, 0
2, 246239, Note_on_c, 9, 42, 0
2, 246240, Note_on_c, 9, 54, 39
2, 246240, Note_on_c, 9, 82, 55
2, 246240, Note_on_c, 9, 42, 50
2, 246240, Note_on_c, 9, 35, 100
2, 246359, Note_on_c, 9, 54, 0
2, 246359, Note_on_c, 9, 82, 0
2, 246359, Note_on_c, 9, 42, 0
2, 246360, Note_on_c, 9, 54, 52
2, 246360, Note_on_c, 9, 70, 55
2, 246599, Note_on_c, 9, 54, 0
2, 246599, Note_on_c, 9, 70, 0
2, 246600, Note_on_c, 9, 54, 57
2, 246600, Note_on_c, 9, 82, 55
2, 246659, Note_on_c, 9, 54, 0
2, 246659, Note_on_c, 9, 82, 0
2, 246705, Note_on_c, 9, 54, 78
2, 246705, Note_on_c, 9, 69, 63
2, 246705, Note_on_c, 9, 42, 96
2, 246719, Note_on_c, 9, 35, 0
2, 246764, Note_on_c, 9, 69, 0
2, 246764, Note_on_c, 9, 42, 0
2, 246839, Note_on_c, 9, 54, 0
2, 246870, Note_on_c, 9, 54, 35
2, 246899, Note_on_c, 9, 54, 0
2, 246900, Note_on_c, 9, 82, 55
2, 246900, Note_on_c, 9, 42, 51
2, 246959, Note_on_c, 9, 82, 0
2, 246959, Note_on_c, 9, 42, 0
2, 246960, Note_on_c, 9, 37, 109
2, 246960, Note_on_c, 9, 54, 61
2, 246960, Note_on_c, 9, 70, 51
2, 247199, Note_on_c, 9, 37, 0
2, 247199, Note_on_c, 9, 54, 0
2, 247199, Note_on_c, 9, 70, 0
2, 247200, Note_on_c, 9, 54, 66
2, 247200, Note_on_c, 9, 82, 59
2, 247319, Note_on_c, 9, 54, 0
2, 247319, Note_on_c, 9, 82, 0
2, 247350, Note_on_c, 9, 54, 76
2, 247350, Note_on_c, 9, 69, 63
2, 247350, Note_on_c, 9, 42, 91
2, 247409, Note_on_c, 9, 69, 0
2, 247409, Note_on_c, 9, 42, 0
2, 247439, Note_on_c, 9, 54, 0
2, 247520, Note_on_c, 9, 54, 37
2, 247539, Note_on_c, 9, 54, 0
2, 247540, Note_on_c, 9, 82, 55
2, 247540, Note_on_c, 9, 42, 44
2, 247559, Note_on_c, 9, 82, 0
2, 247559, Note_on_c, 9, 42, 0
2, 247680, Note_on_c, 9, 54, 54
2, 247680, Note_on_c, 9, 70, 59
2, 247680, Note_on_c, 9, 35, 100
2, 247839, Note_on_c, 9, 54, 0
2, 247839, Note_on_c, 9, 70, 0
2, 247840, Note_on_c, 9, 54, 68
2, 247840, Note_on_c, 9, 82, 55
2, 247999, Note_on_c, 9, 35, 0
2, 247999, Note_on_c, 9, 54, 0
2, 247999, Note_on_c, 9, 82, 0
2, 248000, Note_on_c, 9, 54, 80
2, 248000, Note_on_c, 9, 69, 63
2, 248000, Note_on_c, 9, 42, 96
2, 248159, Note_on_c, 9, 54, 0
2, 248159, Note_on_c, 9, 69, 0
2, 248159, Note_on_c, 9, 42, 0
2, 248160, Note_on_c, 9, 54, 31
2, 248160, Note_on_c, 9, 82, 55
2, 248160, Note_on_c, 9, 42, 48
2, 248279, Note_on_c, 9, 54, 0
2, 248279, Note_on_c, 9, 82, 0
2, 248279, Note_on_c, 9, 42, 0
2, 248295, Note_on_c, 9, 37, 109
2, 248295, Note_on_c, 9, 54, 49
2, 248295, Note_on_c, 9, 70, 59
2, 248339, Note_on_c, 9, 54, 0
2, 248354, Note_on_c, 9, 37, 0
2, 248354, Note_on_c, 9, 70, 0
2, 248520, Note_on_c, 9, 54, 62
2, 248520, Note_on_c, 9, 82, 55
2, 248579, Note_on_c, 9, 54, 0
2, 248579, Note_on_c, 9, 82, 0
2, 248625, Note_on_c, 9, 54, 80
2, 248625, Note_on_c, 9, 69, 63
2, 248625, Note_on_c, 9, 42, 96
2, 248684, Note_on_c, 9, 69, 0
2, 248684, Note_on_c, 9, 42, 0
2, 248759, Note_on_c, 9, 54, 0
2, 248790, Note_on_c, 9, 54, 49
2, 248819, Note_on_c, 9, 54, 0
2, 248820, Note_on_c, 9, 82, 55
2, 248820, Note_on_c, 9, 42, 50
2, 248879, Note_on_c, 9, 82, 0
2, 248879, Note_on_c, 9, 42, 0
2, 248880, Note_on_c, 9, 54, 52
2, 248880, Note_on_c, 9, 70, 55
2, 248960, Note_on_c, 9, 35, 100
2, 249119, Note_on_c, 9, 54, 0
2, 249119, Note_on_c, 9, 70, 0
2, 249120, Note_on_c, 9, 54, 57
2, 249120, Note_on_c, 9, 82, 55
2, 249239, Note_on_c, 9, 54, 0
2, 249239, Note_on_c, 9, 82, 0
2, 249255, Note_on_c, 9, 54, 78
2, 249255, Note_on_c, 9, 69, 63
2, 249255, Note_on_c, 9, 42, 96
2, 249299, Note_on_c, 9, 54, 0
2, 249434, Note_on_c, 9, 69, 0
2, 249434, Note_on_c, 9, 42, 0
2, 249435, Note_on_c, 9, 54, 35
2, 249449, Note_on_c, 9, 54, 0
2, 249450, Note_on_c, 9, 82, 55
2, 249450, Note_on_c, 9, 42, 51
2, 249509, Note_on_c, 9, 82, 0
2, 249509, Note_on_c, 9, 42, 0
2, 249525, Note_on_c, 9, 65, 58
2, 249539, Note_on_c, 9, 65, 0
2, 249540, Note_on_c, 9, 65, 58
2, 249599, Note_on_c, 9, 35, 0
2, 249599, Note_on_c, 9, 65, 0
2, 249600, Note_on_c, 9, 37, 109
2, 249600, Note_on_c, 9, 54, 61
2, 249600, Note_on_c, 9, 65, 78
2, 249600, Note_on_c, 9, 70, 51
2, 249695, Note_on_c, 9, 37, 0
2, 249695, Note_on_c, 9, 54, 0
2, 249695, Note_on_c, 9, 70, 0
2, 249743, Note_on_c, 9, 65, 0
2, 249744, Note_on_c, 9, 65, 101
2, 249791, Note_on_c, 9, 65, 0
2, 249792, Note_on_c, 9, 54, 66
2, 249792, Note_on_c, 9, 82, 59
2, 249840, Note_on_c, 9, 35, 100
2, 249887, Note_on_c, 9, 54, 0
2, 249887, Note_on_c, 9, 82, 0
2, 249936, Note_on_c, 9, 54, 76
2, 249936, Note_on_c, 9, 69, 63
2, 249936, Note_on_c, 9, 42, 91
2, 250031, Note_on_c, 9, 69, 0
2, 250079, Note_on_c, 9, 35, 0
2, 250079, Note_on_c, 9, 54, 0
2, 250079, Note_on_c, 9, 42, 0
2, 250080, Note_on_c, 9, 54, 37
2, 250080, Note_on_c, 9, 65, 83
2, 250080, Note_on_c, 9, 82, 55
2, 250080, Note_on_c, 9, 42, 44
2, 250199, Note_on_c, 9, 54, 0
2, 250199, Note_on_c, 9, 65, 0
2, 250199, Note_on_c, 9, 82, 0
2, 250199, Note_on_c, 9, 42, 0
2, 250200, Note_on_c, 9, 54, 54
2, 250200, Note_on_c, 9, 70, 59
2, 250439, Note_on_c, 9, 54, 0
2, 250439, Note_on_c, 9, 70, 0
2, 250440, Note_on_c, 9, 37, 100
2, 250440, Note_on_c, 9, 54, 68
2, 250440, Note_on_c, 9, 65, 83
2, 250440, Note_on_c, 9, 82, 55
2, 250499, Note_on_c, 9, 37, 0
2, 250499, Note_on_c, 9, 54, 0
2, 250499, Note_on_c, 9, 65, 0
2, 250499, Note_on_c, 9, 82, 0
2, 250545, Note_on_c, 9, 54, 80
2, 250545, Note_on_c, 9, 69, 63
2, 250545, Note_on_c, 9, 42, 96
2, 250724, Note_on_c, 9, 69, 0
2, 250724, Note_on_c, 9, 42, 0
2, 250739, Note_on_c, 9, 54, 0
2, 250740, Note_on_c, 9, 54, 31
2, 250740, Note_on_c, 9, 65, 92
2, 250740, Note_on_c, 9, 82, 55
2, 250740, Note_on_c, 9, 42, 48
2, 250799, Note_on_c, 9, 54, 0
2, 250799, Note_on_c, 9, 65, 0
2, 250799, Note_on_c, 9, 82, 0
2, 250799, Note_on_c, 9, 42, 0
2, 250860, Note_on_c, 9, 54, 49
2, 250860, Note_on_c, 9, 48, 87
2, 250860, Note_on_c, 9, 70, 59
2, 251039, Note_on_c, 9, 54, 0
2, 251039, Note_on_c, 9, 48, 0
2, 251039, Note_on_c, 9, 70, 0
2, 251040, Note_on_c, 9, 54, 62
2, 251040, Note_on_c, 9, 65, 101
2, 251040, Note_on_c, 9, 82, 55
2, 251159, Note_on_c, 9, 54, 0
2, 251159, Note_on_c, 9, 65, 0
2, 251159, Note_on_c, 9, 82, 0
2, 251175, Note_on_c, 9, 54, 80
2, 251175, Note_on_c, 9, 69, 63
2, 251175, Note_on_c, 9, 42, 96
2, 251219, Note_on_c, 9, 54, 0
2, 251234, Note_on_c, 9, 69, 0
2, 251234, Note_on_c, 9, 42, 0
2, 251400, Note_on_c, 9, 54, 39
2, 251400, Note_on_c, 9, 65, 101
2, 251400, Note_on_c, 9, 82, 55
2, 251400, Note_on_c, 9, 42, 50
2, 251519, Note_on_c, 9, 54, 0
2, 251519, Note_on_c, 9, 65, 0
2, 251519, Note_on_c, 9, 82, 0
2, 251519, Note_on_c, 9, 42, 0
2, 251520, Note_on_c, 9, 54, 52
2, 251520, Note_on_c, 9, 66, 82
2, 251520, Note_on_c, 9, 70, 55
2, 251520, Note_on_c, 9, 35, 100
2, 251759, Note_on_c, 9, 54, 0
2, 251759, Note_on_c, 9, 66, 0
2, 251759, Note_on_c, 9, 70, 0
2, 251760, Note_on_c, 9, 54, 57
2, 251760, Note_on_c, 9, 82, 55
2, 251819, Note_on_c, 9, 54, 0
2, 251819, Note_on_c, 9, 82, 0
2, 251820, Note_on_c, 9, 54, 78
2, 251820, Note_on_c, 9, 66, 82
2, 251820, Note_on_c, 9, 69, 63
2, 251820, Note_on_c, 9, 42, 96
2, 251839, Note_on_c, 9, 35, 0
2, 251939, Note_on_c, 9, 66, 0
2, 251939, Note_on_c, 9, 69, 0
2, 251939, Note_on_c, 9, 42, 0
2, 251984, Note_on_c, 9, 54, 0
2, 251985, Note_on_c, 9, 54, 35
2, 251999, Note_on_c, 9, 54, 0
2, 252000, Note_on_c, 9, 82, 55
2, 252000, Note_on_c, 9, 42, 51
2, 252159, Note_on_c, 9, 82, 0
2, 252159, Note_on_c, 9, 42, 0
2, 252160, Note_on_c, 9, 37, 109
2, 252160, Note_on_c, 9, 54, 61
2, 252160, Note_on_c, 9, 70, 51
2, 252319, Note_on_c, 9, 37, 0
2, 252319, Note_on_c, 9, 54, 0
2, 252319, Note_on_c, 9, 70, 0
2, 252320, Note_on_c, 9, 54, 66
2, 252320, Note_on_c, 9, 82, 59
2, 252479, Note_on_c, 9, 54, 0
2, 252479, Note_on_c, 9, 82, 0
2, 252480, Note_on_c, 9, 54, 76
2, 252480, Note_on_c, 9, 69, 63
2, 252480, Note_on_c, 9, 42, 91
2, 252599, Note_on_c, 9, 54, 0
2, 252599, Note_on_c, 9, 69, 0
2, 252599, Note_on_c, 9, 42, 0
2, 252600, Note_on_c, 9, 54, 37
2, 252659, Note_on_c, 9, 54, 0
2, 252660, Note_on_c, 9, 82, 55
2, 252660, Note_on_c, 9, 42, 44
2, 252719, Note_on_c, 9, 82, 0
2, 252719, Note_on_c, 9, 42, 0
2, 252720, Note_on_c, 9, 54, 54
2, 252720, Note_on_c, 9, 70, 59
2, 252800, Note_on_c, 9, 35, 100
2, 252959, Note_on_c, 9, 54, 0
2, 252959, Note_on_c, 9, 70, 0
2, 252960, Note_on_c, 9, 54, 68
2, 252960, Note_on_c, 9, 82, 55
2, 253079, Note_on_c, 9, 54, 0
2, 253079, Note_on_c, 9, 82, 0
2, 253095, Note_on_c, 9, 54, 80
2, 253095, Note_on_c, 9, 69, 63
2, 253095, Note_on_c, 9, 42, 96
2, 253274, Note_on_c, 9, 69, 0
2, 253274, Note_on_c, 9, 42, 0
2, 253289, Note_on_c, 9, 54, 0
2, 253290, Note_on_c, 9, 54, 31
2, 253290, Note_on_c, 9, 82, 55
2, 253290, Note_on_c, 9, 42, 48
2, 253409, Note_on_c, 9, 54, 0
2, 253409, Note_on_c, 9, 82, 0
2, 253409, Note_on_c, 9, 42, 0
2, 253439, Note_on_c, 9, 35, 0
2, 253440, Note_on_c, 9, 37, 109
2, 253440, Note_on_c, 9, 54, 49
2, 253440, Note_on_c, 9, 70, 59
2, 253679, Note_on_c, 9, 37, 0
2, 253679, Note_on_c, 9, 54, 0
2, 253679, Note_on_c, 9, 70, 0
2, 253680, Note_on_c, 9, 54, 62
2, 253680, Note_on_c, 9, 82, 55
2, 253739, Note_on_c, 9, 54, 0
2, 253739, Note_on_c, 9, 82, 0
2, 253755, Note_on_c, 9, 54, 80
2, 253755, Note_on_c, 9, 69, 63
2, 253755, Note_on_c, 9, 42, 96
2, 253799, Note_on_c, 9, 54, 0
2, 253814, Note_on_c, 9, 69, 0
2, 253814, Note_on_c, 9, 42, 0
2, 253920, Note_on_c, 9, 54, 49
2, 253979, Note_on_c, 9, 54, 0
2, 253980, Note_on_c, 9, 82, 55
2, 253980, Note_on_c, 9, 42, 50
2, 254080, Note_on_c, 9, 35, 100
2, 254159, Note_on_c, 9, 82, 0
2, 254159, Note_on_c, 9, 42, 0
2, 254160, Note_on_c, 9, 54, 52
2, 254160, Note_on_c, 9, 70, 55
2, 254279, Note_on_c, 9, 54, 0
2, 254279, Note_on_c, 9, 70, 0
2, 254280, Note_on_c, 9, 54, 57
2, 254280, Note_on_c, 9, 82, 55
2, 254339, Note_on_c, 9, 54, 0
2, 254339, Note_on_c, 9, 82, 0
2, 254385, Note_on_c, 9, 54, 78
2, 254385, Note_on_c, 9, 69, 63
2, 254385, Note_on_c, 9, 42, 96
2, 254399, Note_on_c, 9, 35, 0
2, 254444, Note_on_c, 9, 69, 0
2, 254444, Note_on_c, 9, 42, 0
2, 254519, Note_on_c, 9, 54, 0
2, 254550, Note_on_c, 9, 54, 35
2, 254579, Note_on_c, 9, 54, 0
2, 254580, Note_on_c, 9, 82, 55
2, 254580, Note_on_c, 9, 42, 51
2, 254639, Note_on_c, 9, 82, 0
2, 254639, Note_on_c, 9, 42, 0
2, 254640, Note_on_c, 9, 37, 109
2, 254640, Note_on_c, 9, 54, 61
2, 254640, Note_on_c, 9, 70, 51
2, 254720, Note_on_c, 9, 35, 100
2, 254879, Note_on_c, 9, 37, 0
2, 254879, Note_on_c, 9, 54, 0
2, 254879, Note_on_c, 9, 70, 0
2, 254880, Note_on_c, 9, 54, 66
2, 254880, Note_on_c, 9, 82, 59
2, 254999, Note_on_c, 9, 54, 0
2, 254999, Note_on_c, 9, 82, 0
2, 255015, Note_on_c, 9, 54, 76
2, 255015, Note_on_c, 9, 69, 63
2, 255015, Note_on_c, 9, 42, 91
2, 255059, Note_on_c, 9, 54, 0
2, 255074, Note_on_c, 9, 69, 0
2, 255074, Note_on_c, 9, 42, 0
2, 255180, Note_on_c, 9, 54, 37
2, 255209, Note_on_c, 9, 54, 0
2, 255210, Note_on_c, 9, 82, 55
2, 255210, Note_on_c, 9, 42, 44
2, 255329, Note_on_c, 9, 82, 0
2, 255329, Note_on_c, 9, 42, 0
2, 255359, Note_on_c, 9, 35, 0
2, 255360, Note_on_c, 9, 54, 54
2, 255360, Note_on_c, 9, 70, 59
2, 255599, Note_on_c, 9, 54, 0
2, 255599, Note_on_c, 9, 70, 0
2, 255600, Note_on_c, 9, 37, 100
2, 255600, Note_on_c, 9, 54, 68
2, 255600, Note_on_c, 9, 82, 55
2, 255659, Note_on_c, 9, 37, 0
2, 255659, Note_on_c, 9, 54, 0
2, 255659, Note_on_c, 9, 82, 0
2, 255660, Note_on_c, 9, 54, 80
2, 255660, Note_on_c, 9, 69, 63
2, 255660, Note_on_c, 9, 42, 96
2, 255839, Note_on_c, 9, 54, 0
2, 255839, Note_on_c, 9, 69, 0
2, 255839, Note_on_c, 9, 42, 0
2, 255840, Note_on_c, 9, 54, 31
2, 255840, Note_on_c, 9, 82, 55
2, 255840, Note_on_c, 9, 42, 48
2, 255999, Note_on_c, 9, 54, 0
2, 255999, Note_on_c, 9, 82, 0
2, 255999, Note_on_c, 9, 42, 0
2, 256000, Note_on_c, 9, 37, 118
2, 256000, Note_on_c, 9, 54, 49
2, 256000, Note_on_c, 9, 70, 59
2, 256000, Note_on_c, 9, 35, 100
2, 256159, Note_on_c, 9, 37, 0
2, 256159, Note_on_c, 9, 54, 0
2, 256159, Note_on_c, 9, 70, 0
2, 256160, Note_on_c, 9, 54, 62
2, 256160, Note_on_c, 9, 82, 55
2, 256319, Note_on_c, 9, 35, 0
2, 256319, Note_on_c, 9, 54, 0
2, 256319, Note_on_c, 9, 82, 0
2, 256320, Note_on_c, 9, 54, 80
2, 256320, Note_on_c, 9, 69, 63
2, 256320, Note_on_c, 9, 42, 96
2, 256399, Note_on_c, 9, 54, 0
2, 256399, Note_on_c, 9, 69, 0
2, 256399, Note_on_c, 9, 42, 0
2, 256480, Note_on_c, 9, 54, 39
2, 256480, Note_on_c, 9, 82, 55
2, 256480, Note_on_c, 9, 42, 50
2, 256639, Note_on_c, 9, 54, 0
2, 256639, Note_on_c, 9, 82, 0
2, 256639, Note_on_c, 9, 42, 0
2, 256640, Note_on_c, 9, 54, 52
2, 256640, Note_on_c, 9, 70, 55
2, 256640, Note_on_c, 9, 35, 100
2, 256799, Note_on_c, 9, 54, 0
2, 256799, Note_on_c, 9, 70, 0
2, 256800, Note_on_c, 9, 54, 57
2, 256800, Note_on_c, 9, 82, 55
2, 256919, Note_on_c, 9, 54, 0
2, 256919, Note_on_c, 9, 82, 0
2, 256950, Note_on_c, 9, 54, 78
2, 256950, Note_on_c, 9, 69, 63
2, 256950, Note_on_c, 9, 42, 96
2, 257009, Note_on_c, 9, 69, 0
2, 257009, Note_on_c, 9, 42, 0
2, 257039, Note_on_c, 9, 54, 0
2, 257115, Note_on_c, 9, 54, 35
2, 257159, Note_on_c, 9, 54, 0
2, 257160, Note_on_c, 9, 82, 55
2, 257160, Note_on_c, 9, 42, 51
2, 257279, Note_on_c, 9, 35, 0
2, 257279, Note_on_c, 9, 82, 0
2, 257279, Note_on_c, 9, 42, 0
2, 257280, Note_on_c, 9, 37, 109
2, 257280, Note_on_c, 9, 54, 61
2, 257280, Note_on_c, 9, 70, 51
2, 257280, Note_on_c, 9, 35, 100
2, 257459, Note_on_c, 9, 37, 0
2, 257459, Note_on_c, 9, 54, 0
2, 257459, Note_on_c, 9, 70, 0
2, 257460, Note_on_c, 9, 54, 66
2, 257460, Note_on_c, 9, 82, 59
2, 257519, Note_on_c, 9, 54, 0
2, 257519, Note_on_c, 9, 82, 0
2, 257580, Note_on_c, 9, 54, 76
2, 257580, Note_on_c, 9, 69, 63
2, 257580, Note_on_c, 9, 42, 91
2, 257699, Note_on_c, 9, 54, 0
2, 257699, Note_on_c, 9, 69, 0
2, 257699, Note_on_c, 9, 42, 0
2, 257730, Note_on_c, 9, 54, 37
2, 257759, Note_on_c, 9, 35, 0
2, 257759, Note_on_c, 9, 54, 0
2, 257760, Note_on_c, 9, 82, 55
2, 257760, Note_on_c, 9, 42, 44
2, 257879, Note_on_c, 9, 82, 0
2, 257879, Note_on_c, 9, 42, 0
2, 257880, Note_on_c, 9, 54, 54
2, 257880, Note_on_c, 9, 70, 59
2, 258119, Note_on_c, 9, 54, 0
2, 258119, Note_on_c, 9, 70, 0
2, 258120, Note_on_c, 9, 54, 68
2, 258120, Note_on_c, 9, 82, 55
2, 258179, Note_on_c, 9, 54, 0
2, 258179, Note_on_c, 9, 82, 0
2, 258225, Note_on_c, 9, 54, 80
2, 258225, Note_on_c, 9, 69, 63
2, 258225, Note_on_c, 9, 42, 96
2, 258404, Note_on_c, 9, 69, 0
2, 258404, Note_on_c, 9, 42, 0
2, 258419, Note_on_c, 9, 54, 0
2, 258420, Note_on_c, 9, 54, 31
2, 258420, Note_on_c, 9, 82, 55
2, 258420, Note_on_c, 9, 42, 48
2, 258479, Note_on_c, 9, 54, 0
2, 258479, Note_on_c, 9, 82, 0
2, 258479, Note_on_c, 9, 42, 0
2, 258570, Note_on_c, 9, 37, 118
2, 258570, Note_on_c, 9, 54, 49
2, 258570, Note_on_c, 9, 70, 59
2, 258599, Note_on_c, 9, 54, 0
2, 258689, Note_on_c, 9, 37, 0
2, 258689, Note_on_c, 9, 70, 0
2, 258720, Note_on_c, 9, 54, 62
2, 258720, Note_on_c, 9, 82, 55
2, 258839, Note_on_c, 9, 54, 0
2, 258839, Note_on_c, 9, 82, 0
2, 258885, Note_on_c, 9, 54, 80
2, 258885, Note_on_c, 9, 69, 63
2, 258885, Note_on_c, 9, 42, 96
2, 258944, Note_on_c, 9, 69, 0
2, 258944, Note_on_c, 9, 42, 0
2, 258959, Note_on_c, 9, 54, 0
2, 258960, Note_on_c, 9, 35, 100
2, 259020, Note_on_c, 9, 54, 49
2, 259079, Note_on_c, 9, 54, 0
2, 259080, Note_on_c, 9, 82, 55
2, 259080, Note_on_c, 9, 42, 50
2, 259199, Note_on_c, 9, 35, 0
2, 259199, Note_on_c, 9, 82, 0
2, 259199, Note_on_c, 9, 42, 0
2, 259200, Note_on_c, 9, 54, 52
2, 259200, Note_on_c, 9, 70, 55
2, 259200, Note_on_c, 9, 35, 100
2, 259439, Note_on_c, 9, 54, 0
2, 259439, Note_on_c, 9, 70, 0
2, 259440, Note_on_c, 9, 54, 57
2, 259440, Note_on_c, 9, 82, 55
2, 259499, Note_on_c, 9, 54, 0
2, 259499, Note_on_c, 9, 82, 0
2, 259545, Note_on_c, 9, 54, 78
2, 259545, Note_on_c, 9, 69, 63
2, 259545, Note_on_c, 9, 42, 96
2, 259604, Note_on_c, 9, 69, 0
2, 259604, Note_on_c, 9, 42, 0
2, 259679, Note_on_c, 9, 35, 0
2, 259679, Note_on_c, 9, 54, 0
2, 259710, Note_on_c, 9, 54, 35
2, 259739, Note_on_c, 9, 54, 0
2, 259740, Note_on_c, 9, 82, 55
2, 259740, Note_on_c, 9, 42, 51
2, 259919, Note_on_c, 9, 82, 0
2, 259919, Note_on_c, 9, 42, 0
2, 259920, Note_on_c, 9, 37, 109
2, 259920, Note_on_c, 9, 54, 61
2, 259920, Note_on_c, 9, 70, 51
2, 260039, Note_on_c, 9, 37, 0
2, 260039, Note_on_c, 9, 54, 0
2, 260039, Note_on_c, 9, 70, 0
2, 260040, Note_on_c, 9, 54, 66
2, 260040, Note_on_c, 9, 82, 59
2, 260159, Note_on_c, 9, 54, 0
2, 260159, Note_on_c, 9, 82, 0
2, 260160, Note_on_c, 9, 54, 76
2, 260160, Note_on_c, 9, 66, 54
2, 260160, Note_on_c, 9, 69, 63
2, 260160, Note_on_c, 9, 42, 91
2, 260279, Note_on_c, 9, 54, 0
2, 260279, Note_on_c, 9, 66, 0
2, 260279, Note_on_c, 9, 69, 0
2, 260279, Note_on_c, 9, 42, 0
2, 260310, Note_on_c, 9, 54, 37
2, 260310, Note_on_c, 9, 66, 79
2, 260339, Note_on_c, 9, 54, 0
2, 260339, Note_on_c, 9, 66, 0
2, 260340, Note_on_c, 9, 82, 55
2, 260340, Note_on_c, 9, 42, 44
2, 260399, Note_on_c, 9, 82, 0
2, 260399, Note_on_c, 9, 42, 0
2, 260400, Note_on_c, 9, 37, 109
2, 260400, Note_on_c, 9, 54, 54
2, 260400, Note_on_c, 9, 70, 59
2, 260639, Note_on_c, 9, 37, 0
2, 260639, Note_on_c, 9, 54, 0
2, 260639, Note_on_c, 9, 70, 0
2, 260640, Note_on_c, 9, 54, 68
2, 260640, Note_on_c, 9, 66, 50
2, 260640, Note_on_c, 9, 82, 55
2, 260759, Note_on_c, 9, 54, 0
2, 260759, Note_on_c, 9, 66, 0
2, 260759, Note_on_c, 9, 82, 0
2, 260775, Note_on_c, 9, 54, 80
2, 260775, Note_on_c, 9, 66, 78
2, 260775, Note_on_c, 9, 69, 63
2, 260775, Note_on_c, 9, 42, 96
2, 260819, Note_on_c, 9, 54, 0
2, 260819, Note_on_c, 9, 66, 0
2, 260834, Note_on_c, 9, 69, 0
2, 260834, Note_on_c, 9, 42, 0
2, 260940, Note_on_c, 9, 37, 100
2, 260940, Note_on_c, 9, 54, 31
2, 260940, Note_on_c, 9, 82, 55
2, 260940, Note_on_c, 9, 42, 48
2, 261119, Note_on_c, 9, 37, 0
2, 261119, Note_on_c, 9, 54, 0
2, 261119, Note_on_c, 9, 82, 0
2, 261119, Note_on_c, 9, 42, 0
2, 261120, Note_on_c, 9, 54, 49
2, 261120, Note_on_c, 9, 48, 87
2, 261120, Note_on_c, 9, 66, 70
2, 261120, Note_on_c, 9, 70, 59
2, 261120, Note_on_c, 9, 35, 100
2, 261239, Note_on_c, 9, 54, 0
2, 261239, Note_on_c, 9, 48, 0
2, 261239, Note_on_c, 9, 66, 0
2, 261239, Note_on_c, 9, 70, 0
2, 261240, Note_on_c, 9, 66, 62
2, 261359, Note_on_c, 9, 66, 0
2, 261360, Note_on_c, 9, 54, 62
2, 261360, Note_on_c, 9, 82, 55
2, 261419, Note_on_c, 9, 54, 0
2, 261419, Note_on_c, 9, 82, 0
2, 261420, Note_on_c, 9, 37, 118
2, 261420, Note_on_c, 9, 54, 80
2, 261420, Note_on_c, 9, 66, 58
2, 261420, Note_on_c, 9, 69, 63
2, 261420, Note_on_c, 9, 42, 96
2, 261599, Note_on_c, 9, 35, 0
2, 261599, Note_on_c, 9, 37, 0
2, 261599, Note_on_c, 9, 54, 0
2, 261599, Note_on_c, 9, 66, 0
2, 261599, Note_on_c, 9, 69, 0
2, 261599, Note_on_c, 9, 42, 0
2, 261600, Note_on_c, 9, 54, 39
2, 261600, Note_on_c, 9, 66, 73
2, 261600, Note_on_c, 9, 82, 55
2, 261600, Note_on_c, 9, 42, 50
2, 261719, Note_on_c, 9, 54, 0
2, 261719, Note_on_c, 9, 66, 0
2, 261719, Note_on_c, 9, 82, 0
2, 261719, Note_on_c, 9, 42, 0
2, 261720, Note_on_c, 9, 54, 52
2, 261720, Note_on_c, 9, 70, 55
2, 261760, Note_on_c, 9, 35, 100
2, 261959, Note_on_c, 9, 54, 0
2, 261959, Note_on_c, 9, 70, 0
2, 261960, Note_on_c, 9, 54, 57
2, 261960, Note_on_c, 9, 82, 55
2, 262019, Note_on_c, 9, 54, 0
2, 262019, Note_on_c, 9, 82, 0
2, 262065, Note_on_c, 9, 54, 78
2, 262065, Note_on_c, 9, 69, 63
2, 262065, Note_on_c, 9, 42, 96
2, 262079, Note_on_c, 9, 35, 0
2, 262124, Note_on_c, 9, 69, 0
2, 262124, Note_on_c, 9, 42, 0
2, 262199, Note_on_c, 9, 54, 0
2, 262230, Note_on_c, 9, 54, 35
2, 262259, Note_on_c, 9, 54, 0
2, 262260, Note_on_c, 9, 82, 55
2, 262260, Note_on_c, 9, 42, 51
2, 262319, Note_on_c, 9, 82, 0
2, 262319, Note_on_c, 9, 42, 0
2, 262320, Note_on_c, 9, 37, 109
2, 262320, Note_on_c, 9, 54, 61
2, 262320, Note_on_c, 9, 70, 51
2, 262559, Note_on_c, 9, 37, 0
2, 262559, Note_on_c, 9, 54, 0
2, 262559, Note_on_c, 9, 70, 0
2, 262560, Note_on_c, 9, 54, 66
2, 262560, Note_on_c, 9, 82, 59
2, 262679, Note_on_c, 9, 54, 0
2, 262679, Note_on_c, 9, 82, 0
2, 262695, Note_on_c, 9, 54, 76
2, 262695, Note_on_c, 9, 69, 63
2, 262695, Note_on_c, 9, 42, 91
2, 262739, Note_on_c, 9, 54, 0
2, 262754, Note_on_c, 9, 69, 0
2, 262754, Note_on_c, 9, 42, 0
2, 262860, Note_on_c, 9, 54, 37
2, 262889, Note_on_c, 9, 54, 0
2, 262890, Note_on_c, 9, 82, 55
2, 262890, Note_on_c, 9, 42, 44
2, 263009, Note_on_c, 9, 82, 0
2, 263009, Note_on_c, 9, 42, 0
2, 263040, Note_on_c, 9, 54, 54
2, 263040, Note_on_c, 9, 70, 59
2, 263199, Note_on_c, 9, 54, 0
2, 263199, Note_on_c, 9, 70, 0
2, 263200, Note_on_c, 9, 54, 68
2, 263200, Note_on_c, 9, 82, 55
2, 263359, Note_on_c, 9, 54, 0
2, 263359, Note_on_c, 9, 82, 0
2, 263360, Note_on_c, 9, 54, 80
2, 263360, Note_on_c, 9, 69, 63
2, 263360, Note_on_c, 9, 42, 96
2, 263519, Note_on_c, 9, 54, 0
2, 263519, Note_on_c, 9, 69, 0
2, 263519, Note_on_c, 9, 42, 0
2, 263520, Note_on_c, 9, 54, 31
2, 263520, Note_on_c, 9, 82, 55
2, 263520, Note_on_c, 9, 42, 48
2, 263639, Note_on_c, 9, 54, 0
2, 263639, Note_on_c, 9, 82, 0
2, 263639, Note_on_c, 9, 42, 0
2, 263655, Note_on_c, 9, 37, 109
2, 263655, Note_on_c, 9, 54, 49
2, 263655, Note_on_c, 9, 70, 59
2, 263699, Note_on_c, 9, 54, 0
2, 263714, Note_on_c, 9, 37, 0
2, 263714, Note_on_c, 9, 70, 0
2, 263880, Note_on_c, 9, 54, 62
2, 263880, Note_on_c, 9, 82, 55
2, 263939, Note_on_c, 9, 54, 0
2, 263939, Note_on_c, 9, 82, 0
2, 263985, Note_on_c, 9, 54, 80
2, 263985, Note_on_c, 9, 69, 63
2, 263985, Note_on_c, 9, 42, 96
2, 264044, Note_on_c, 9, 69, 0
2, 264044, Note_on_c, 9, 42, 0
2, 264119, Note_on_c, 9, 54, 0
2, 264150, Note_on_c, 9, 54, 49
2, 264179, Note_on_c, 9, 54, 0
2, 264180, Note_on_c, 9, 82, 55
2, 264180, Note_on_c, 9, 42, 50
2, 264239, Note_on_c, 9, 82, 0
2, 264239, Note_on_c, 9, 42, 0
2, 264240, Note_on_c, 9, 54, 52
2, 264240, Note_on_c, 9, 70, 55
2, 264240, Note_on_c, 9, 35, 100
2, 264479, Note_on_c, 9, 54, 0
2, 264479, Note_on_c, 9, 70, 0
2, 264479, Note_on_c, 9, 35, 0
2, 264480, Note_on_c, 9, 54, 57
2, 264480, Note_on_c, 9, 82, 55
2, 264599, Note_on_c, 9, 54, 0
2, 264599, Note_on_c, 9, 82, 0
2, 264615, Note_on_c, 9, 54, 78
2, 264615, Note_on_c, 9, 69, 63
2, 264615, Note_on_c, 9, 42, 96
2, 264659, Note_on_c, 9, 54, 0
2, 264674, Note_on_c, 9, 69, 0
2, 264674, Note_on_c, 9, 42, 0
2, 264780, Note_on_c, 9, 54, 35
2, 264799, Note_on_c, 9, 54, 0
2, 264800, Note_on_c, 9, 82, 55
2, 264800, Note_on_c, 9, 42, 51
2, 264839, Note_on_c, 9, 82, 0
2, 264839, Note_on_c, 9, 42, 0
2, 264960, Note_on_c, 9, 37, 109
2, 264960, Note_on_c, 9, 54, 61
2, 264960, Note_on_c, 9, 70, 51
2, 265199, Note_on_c, 9, 37, 0
2, 265199, Note_on_c, 9, 54, 0
2, 265199, Note_on_c, 9, 70, 0
2, 265200, Note_on_c, 9, 54, 66
2, 265200, Note_on_c, 9, 82, 59
2, 265259, Note_on_c, 9, 54, 0
2, 265259, Note_on_c, 9, 82, 0
2, 265260, Note_on_c, 9, 54, 76
2, 265260, Note_on_c, 9, 69, 63
2, 265260, Note_on_c, 9, 42, 91
2, 265379, Note_on_c, 9, 54, 0
2, 265379, Note_on_c, 9, 69, 0
2, 265379, Note_on_c, 9, 42, 0
2, 265410, Note_on_c, 9, 54, 37
2, 265439, Note_on_c, 9, 54, 0
2, 265440, Note_on_c, 9, 82, 55
2, 265440, Note_on_c, 9, 42, 44
2, 265559, Note_on_c, 9, 82, 0
2, 265559, Note_on_c, 9, 42, 0
2, 265560, Note_on_c, 9, 54, 54
2, 265560, Note_on_c, 9, 70, 59
2, 265799, Note_on_c, 9, 54, 0
2, 265799, Note_on_c, 9, 70, 0
2, 265800, Note_on_c, 9, 37, 100
2, 265800, Note_on_c, 9, 54, 68
2, 265800, Note_on_c, 9, 82, 55
2, 265859, Note_on_c, 9, 37, 0
2, 265859, Note_on_c, 9, 54, 0
2, 265859, Note_on_c, 9, 82, 0
2, 265905, Note_on_c, 9, 54, 80
2, 265905, Note_on_c, 9, 50, 100
2, 265905, Note_on_c, 9, 69, 63
2, 265905, Note_on_c, 9, 42, 96
2, 266084, Note_on_c, 9, 50, 0
2, 266084, Note_on_c, 9, 69, 0
2, 266084, Note_on_c, 9, 42, 0
2, 266099, Note_on_c, 9, 54, 0
2, 266100, Note_on_c, 9, 54, 31
2, 266100, Note_on_c, 9, 82, 55
2, 266100, Note_on_c, 9, 42, 48
2, 266159, Note_on_c, 9, 54, 0
2, 266159, Note_on_c, 9, 82, 0
2, 266159, Note_on_c, 9, 42, 0
2, 266220, Note_on_c, 9, 54, 49
2, 266220, Note_on_c, 9, 48, 99
2, 266220, Note_on_c, 9, 70, 59
2, 266309, Note_on_c, 9, 54, 0
2, 266309, Note_on_c, 9, 48, 0
2, 266309, Note_on_c, 9, 70, 0
2, 266400, Note_on_c, 9, 54, 62
2, 266400, Note_on_c, 9, 82, 55
2, 266519, Note_on_c, 9, 54, 0
2, 266519, Note_on_c, 9, 82, 0
2, 266535, Note_on_c, 9, 45, 100
2, 266535, Note_on_c, 9, 54, 80
2, 266535, Note_on_c, 9, 69, 63
2, 266535, Note_on_c, 9, 42, 96
2, 266579, Note_on_c, 9, 54, 0
2, 266594, Note_on_c, 9, 45, 0
2, 266594, Note_on_c, 9, 69, 0
2, 266594, Note_on_c, 9, 42, 0
2, 266760, Note_on_c, 9, 54, 39
2, 266760, Note_on_c, 9, 82, 55
2, 266760, Note_on_c, 9, 42, 50
2, 266879, Note_on_c, 9, 54, 0
2, 266879, Note_on_c, 9, 82, 0
2, 266879, Note_on_c, 9, 42, 0
2, 266880, Note_on_c, 9, 58, 100
2, 266880, Note_on_c, 9, 70, 55
2, 266880, Note_on_c, 9, 49, 100
2, 266880, Note_on_c, 9, 52, 100
2, 266880, Note_on_c, 9, 57, 100
2, 266880, Note_on_c, 9, 35, 100
2, 267359, Note_on_c, 9, 58, 0
2, 267359, Note_on_c, 9, 70, 0
2, 267359, Note_on_c, 9, 49, 0
2, 267359, Note_on_c, 9, 52, 0
2, 267359, Note_on_c, 9, 57, 0
2, 267359, Note_on_c, 9, 35, 0
2, 267360, End_track
0, 0, End_of_file
