0, 0, Header, 1, 1, 480
1, 0, Start_track
1, 0, Time_signature, 4, 2, 24, 8
1, 0, Key_signature, 0, "major"
1, 0, Tempo, 540541
1, 0, Control_c, 9, 121, 0
1, 0, Program_c, 9, 0
1, 0, Control_c, 9, 7, 100
1, 0, Control_c, 9, 10, 64
1, 0, Control_c, 9, 91, 0
1, 0, Control_c, 9, 93, 0
1, 0, MIDI_port, 0
1, 1920, Note_on_c, 9, 42, 90
1, 2399, Note_on_c, 9, 42, 0
1, 2400, Note_on_c, 9, 42, 65
1, 2879, Note_on_c, 9, 42, 0
1, 2880, Note_on_c, 9, 42, 65
1, 3359, Note_on_c, 9, 42, 0
1, 3360, Note_on_c, 9, 42, 65
1, 3839, Note_on_c, 9, 42, 0
1, 3840, Note_on_c, 9, 49, 110
1, 3840, Note_on_c, 9, 35, 116
1, 4319, Note_on_c, 9, 49, 0
1, 4319, Note_on_c, 9, 35, 0
1, 4320, Note_on_c, 9, 53, 127
1, 4799, Note_on_c, 9, 53, 0
1, 4800, Note_on_c, 9, 38, 127
1, 4800, Note_on_c, 9, 49, 110
1, 4814, Note_on_c, 9, 38, 0
1, 4814, Note_on_c, 9, 49, 0
1, 4815, Note_on_c, 9, 54, 127
1, 5039, Note_on_c, 9, 54, 0
1, 5280, Note_on_c, 9, 53, 127
1, 5600, Note_on_c, 9, 35, 116
1, 5639, Note_on_c, 9, 35, 0
1, 5759, Note_on_c, 9, 53, 0
1, 5760, Note_on_c, 9, 53, 127
1, 5760, Note_on_c, 9, 35, 116
1, 6239, Note_on_c, 9, 53, 0
1, 6239, Note_on_c, 9, 35, 0
1, 6240, Note_on_c, 9, 53, 127
1, 6719, Note_on_c, 9, 53, 0
1, 6720, Note_on_c, 9, 38, 127
1, 6720, Note_on_c, 9, 49, 110
1, 6734, Note_on_c, 9, 38, 0
1, 6734, Note_on_c, 9, 49, 0
1, 6735, Note_on_c, 9, 54, 127
1, 6959, Note_on_c, 9, 54, 0
1, 7040, Note_on_c, 9, 45, 127
1, 7079, Note_on_c, 9, 45, 0
1, 7200, Note_on_c, 9, 53, 127
1, 7319, Note_on_c, 9, 53, 0
1, 7360, Note_on_c, 9, 41, 127
1, 7379, Note_on_c, 9, 41, 0
1, 7520, Note_on_c, 9, 35, 116
1, 7559, Note_on_c, 9, 35, 0
1, 7680, Note_on_c, 9, 49, 110
1, 7680, Note_on_c, 9, 35, 116
1, 8159, Note_on_c, 9, 49, 0
1, 8159, Note_on_c, 9, 35, 0
1, 8160, Note_on_c, 9, 53, 127
1, 8639, Note_on_c, 9, 53, 0
1, 8640, Note_on_c, 9, 38, 127
1, 8640, Note_on_c, 9, 49, 110
1, 8654, Note_on_c, 9, 38, 0
1, 8654, Note_on_c, 9, 49, 0
1, 8655, Note_on_c, 9, 54, 127
1, 8879, Note_on_c, 9, 54, 0
1, 9120, Note_on_c, 9, 53, 127
1, 9440, Note_on_c, 9, 35, 116
1, 9479, Note_on_c, 9, 35, 0
1, 9599, Note_on_c, 9, 53, 0
1, 9600, Note_on_c, 9, 53, 127
1, 9600, Note_on_c, 9, 35, 116
1, 10079, Note_on_c, 9, 53, 0
1, 10079, Note_on_c, 9, 35, 0
1, 10080, Note_on_c, 9, 53, 127
1, 10559, Note_on_c, 9, 53, 0
1, 10560, Note_on_c, 9, 38, 127
1, 10560, Note_on_c, 9, 49, 110
1, 10574, Note_on_c, 9, 38, 0
1, 10574, Note_on_c, 9, 49, 0
1, 10575, Note_on_c, 9, 54, 127
1, 10799, Note_on_c, 9, 54, 0
1, 10880, Note_on_c, 9, 45, 127
1, 10919, Note_on_c, 9, 45, 0
1, 11040, Note_on_c, 9, 53, 127
1, 11159, Note_on_c, 9, 53, 0
1, 11200, Note_on_c, 9, 41, 127
1, 11219, Note_on_c, 9, 41, 0
1, 11360, Note_on_c, 9, 35, 116
1, 11399, Note_on_c, 9, 35, 0
1, 11520, Note_on_c, 9, 49, 110
1, 11520, Note_on_c, 9, 35, 116
1, 11999, Note_on_c, 9, 49, 0
1, 11999, Note_on_c, 9, 35, 0
1, 12000, Note_on_c, 9, 53, 127
1, 12479, Note_on_c, 9, 53, 0
1, 12480, Note_on_c, 9, 38, 127
1, 12480, Note_on_c, 9, 49, 110
1, 12494, Note_on_c, 9, 38, 0
1, 12494, Note_on_c, 9, 49, 0
1, 12495, Note_on_c, 9, 54, 127
1, 12719, Note_on_c, 9, 54, 0
1, 12960, Note_on_c, 9, 53, 127
1, 13280, Note_on_c, 9, 35, 116
1, 13319, Note_on_c, 9, 35, 0
1, 13439, Note_on_c, 9, 53, 0
1, 13440, Note_on_c, 9, 53, 127
1, 13440, Note_on_c, 9, 35, 116
1, 13919, Note_on_c, 9, 53, 0
1, 13919, Note_on_c, 9, 35, 0
1, 13920, Note_on_c, 9, 53, 127
1, 14399, Note_on_c, 9, 53, 0
1, 14400, Note_on_c, 9, 38, 127
1, 14400, Note_on_c, 9, 49, 110
1, 14414, Note_on_c, 9, 38, 0
1, 14414, Note_on_c, 9, 49, 0
1, 14415, Note_on_c, 9, 54, 127
1, 14639, Note_on_c, 9, 54, 0
1, 14720, Note_on_c, 9, 45, 127
1, 14759, Note_on_c, 9, 45, 0
1, 14880, Note_on_c, 9, 53, 127
1, 14999, Note_on_c, 9, 53, 0
1, 15040, Note_on_c, 9, 41, 127
1, 15059, Note_on_c, 9, 41, 0
1, 15200, Note_on_c, 9, 35, 116
1, 15239, Note_on_c, 9, 35, 0
1, 15360, Note_on_c, 9, 49, 110
1, 15360, Note_on_c, 9, 35, 116
1, 15839, Note_on_c, 9, 49, 0
1, 15839, Note_on_c, 9, 35, 0
1, 15840, Note_on_c, 9, 53, 127
1, 16160, Note_on_c, 9, 35, 116
1, 16199, Note_on_c, 9, 35, 0
1, 16319, Note_on_c, 9, 53, 0
1, 16320, Note_on_c, 9, 53, 127
1, 16640, Note_on_c, 9, 35, 116
1, 16679, Note_on_c, 9, 35, 0
1, 16799, Note_on_c, 9, 53, 0
1, 16800, Note_on_c, 9, 38, 127
1, 16800, Note_on_c, 9, 49, 110
1, 16814, Note_on_c, 9, 38, 0
1, 16814, Note_on_c, 9, 49, 0
1, 16815, Note_on_c, 9, 54, 127
1, 17039, Note_on_c, 9, 54, 0
1, 17280, Note_on_c, 9, 38, 47
1, 17280, Note_on_c, 9, 35, 116
1, 17399, Note_on_c, 9, 38, 0
1, 17440, Note_on_c, 9, 38, 47
1, 17459, Note_on_c, 9, 38, 0
1, 17600, Note_on_c, 9, 38, 47
1, 17639, Note_on_c, 9, 38, 0
1, 17759, Note_on_c, 9, 35, 0
1, 17760, Note_on_c, 9, 38, 47
1, 17879, Note_on_c, 9, 38, 0
1, 17920, Note_on_c, 9, 38, 47
1, 17939, Note_on_c, 9, 38, 0
1, 18080, Note_on_c, 9, 38, 47
1, 18119, Note_on_c, 9, 38, 0
1, 18240, Note_on_c, 9, 38, 63
1, 18359, Note_on_c, 9, 38, 0
1, 18400, Note_on_c, 9, 38, 79
1, 18419, Note_on_c, 9, 38, 0
1, 18560, Note_on_c, 9, 38, 95
1, 18599, Note_on_c, 9, 38, 0
1, 18720, Note_on_c, 9, 38, 111
1, 18839, Note_on_c, 9, 38, 0
1, 18880, Note_on_c, 9, 38, 127
1, 18899, Note_on_c, 9, 38, 0
1, 19040, Note_on_c, 9, 38, 127
1, 19079, Note_on_c, 9, 38, 0
1, 19200, Note_on_c, 9, 49, 110
1, 19200, Note_on_c, 9, 35, 116
1, 19679, Note_on_c, 9, 49, 0
1, 19679, Note_on_c, 9, 35, 0
1, 19680, Note_on_c, 9, 38, 127
1, 19680, Note_on_c, 9, 42, 107
1, 20159, Note_on_c, 9, 38, 0
1, 20159, Note_on_c, 9, 42, 0
1, 20160, Note_on_c, 9, 42, 107
1, 20160, Note_on_c, 9, 35, 116
1, 20399, Note_on_c, 9, 35, 0
1, 20480, Note_on_c, 9, 35, 116
1, 20519, Note_on_c, 9, 35, 0
1, 20639, Note_on_c, 9, 42, 0
1, 20640, Note_on_c, 9, 38, 127
1, 20640, Note_on_c, 9, 42, 107
1, 21119, Note_on_c, 9, 38, 0
1, 21119, Note_on_c, 9, 42, 0
1, 21120, Note_on_c, 9, 42, 107
1, 21120, Note_on_c, 9, 35, 116
1, 21599, Note_on_c, 9, 42, 0
1, 21599, Note_on_c, 9, 35, 0
1, 21600, Note_on_c, 9, 38, 127
1, 21600, Note_on_c, 9, 42, 107
1, 22079, Note_on_c, 9, 38, 0
1, 22079, Note_on_c, 9, 42, 0
1, 22080, Note_on_c, 9, 42, 107
1, 22080, Note_on_c, 9, 35, 116
1, 22319, Note_on_c, 9, 35, 0
1, 22400, Note_on_c, 9, 35, 116
1, 22439, Note_on_c, 9, 35, 0
1, 22559, Note_on_c, 9, 42, 0
1, 22560, Note_on_c, 9, 38, 127
1, 22560, Note_on_c, 9, 42, 107
1, 23039, Note_on_c, 9, 38, 0
1, 23039, Note_on_c, 9, 42, 0
1, 23040, Note_on_c, 9, 42, 107
1, 23040, Note_on_c, 9, 35, 116
1, 23519, Note_on_c, 9, 42, 0
1, 23519, Note_on_c, 9, 35, 0
1, 23520, Note_on_c, 9, 38, 127
1, 23520, Note_on_c, 9, 42, 107
1, 23999, Note_on_c, 9, 38, 0
1, 23999, Note_on_c, 9, 42, 0
1, 24000, Note_on_c, 9, 42, 107
1, 24000, Note_on_c, 9, 35, 116
1, 24239, Note_on_c, 9, 35, 0
1, 24320, Note_on_c, 9, 35, 116
1, 24359, Note_on_c, 9, 35, 0
1, 24479, Note_on_c, 9, 42, 0
1, 24480, Note_on_c, 9, 38, 127
1, 24480, Note_on_c, 9, 42, 107
1, 24959, Note_on_c, 9, 38, 0
1, 24959, Note_on_c, 9, 42, 0
1, 24960, Note_on_c, 9, 42, 107
1, 24960, Note_on_c, 9, 35, 116
1, 25439, Note_on_c, 9, 42, 0
1, 25439, Note_on_c, 9, 35, 0
1, 25440, Note_on_c, 9, 38, 127
1, 25440, Note_on_c, 9, 42, 107
1, 25919, Note_on_c, 9, 38, 0
1, 25919, Note_on_c, 9, 42, 0
1, 25920, Note_on_c, 9, 42, 107
1, 25920, Note_on_c, 9, 35, 116
1, 26159, Note_on_c, 9, 35, 0
1, 26240, Note_on_c, 9, 35, 116
1, 26279, Note_on_c, 9, 35, 0
1, 26399, Note_on_c, 9, 42, 0
1, 26400, Note_on_c, 9, 38, 127
1, 26400, Note_on_c, 9, 42, 107
1, 26879, Note_on_c, 9, 38, 0
1, 26879, Note_on_c, 9, 42, 0
1, 26880, Note_on_c, 9, 42, 107
1, 26880, Note_on_c, 9, 35, 116
1, 27359, Note_on_c, 9, 42, 0
1, 27359, Note_on_c, 9, 35, 0
1, 27360, Note_on_c, 9, 38, 127
1, 27360, Note_on_c, 9, 42, 107
1, 27839, Note_on_c, 9, 38, 0
1, 27839, Note_on_c, 9, 42, 0
1, 27840, Note_on_c, 9, 42, 107
1, 27840, Note_on_c, 9, 35, 116
1, 28079, Note_on_c, 9, 35, 0
1, 28160, Note_on_c, 9, 35, 116
1, 28199, Note_on_c, 9, 35, 0
1, 28319, Note_on_c, 9, 42, 0
1, 28320, Note_on_c, 9, 38, 127
1, 28320, Note_on_c, 9, 42, 107
1, 28799, Note_on_c, 9, 38, 0
1, 28799, Note_on_c, 9, 42, 0
1, 28800, Note_on_c, 9, 42, 107
1, 28800, Note_on_c, 9, 35, 116
1, 29279, Note_on_c, 9, 42, 0
1, 29279, Note_on_c, 9, 35, 0
1, 29280, Note_on_c, 9, 38, 127
1, 29280, Note_on_c, 9, 42, 107
1, 29759, Note_on_c, 9, 38, 0
1, 29759, Note_on_c, 9, 42, 0
1, 29760, Note_on_c, 9, 42, 107
1, 29760, Note_on_c, 9, 35, 116
1, 29999, Note_on_c, 9, 35, 0
1, 30080, Note_on_c, 9, 35, 116
1, 30119, Note_on_c, 9, 35, 0
1, 30239, Note_on_c, 9, 42, 0
1, 30240, Note_on_c, 9, 38, 127
1, 30240, Note_on_c, 9, 42, 107
1, 30719, Note_on_c, 9, 38, 0
1, 30719, Note_on_c, 9, 42, 0
1, 30720, Note_on_c, 9, 42, 107
1, 30720, Note_on_c, 9, 35, 116
1, 31199, Note_on_c, 9, 42, 0
1, 31199, Note_on_c, 9, 35, 0
1, 31200, Note_on_c, 9, 38, 127
1, 31200, Note_on_c, 9, 42, 107
1, 31679, Note_on_c, 9, 38, 0
1, 31679, Note_on_c, 9, 42, 0
1, 31680, Note_on_c, 9, 42, 107
1, 31680, Note_on_c, 9, 35, 116
1, 31919, Note_on_c, 9, 42, 0
1, 31919, Note_on_c, 9, 35, 0
1, 32000, Note_on_c, 9, 38, 63
1, 32000, Note_on_c, 9, 35, 116
1, 32039, Note_on_c, 9, 38, 0
1, 32039, Note_on_c, 9, 35, 0
1, 32160, Note_on_c, 9, 38, 127
1, 32160, Note_on_c, 9, 42, 107
1, 32279, Note_on_c, 9, 38, 0
1, 32279, Note_on_c, 9, 42, 0
1, 32320, Note_on_c, 9, 38, 63
1, 32320, Note_on_c, 9, 45, 127
1, 32339, Note_on_c, 9, 38, 0
1, 32339, Note_on_c, 9, 45, 0
1, 32480, Note_on_c, 9, 41, 127
1, 32480, Note_on_c, 9, 38, 47
1, 32519, Note_on_c, 9, 41, 0
1, 32519, Note_on_c, 9, 38, 0
1, 32640, Note_on_c, 9, 38, 127
1, 32640, Note_on_c, 9, 35, 116
1, 33119, Note_on_c, 9, 38, 0
1, 33119, Note_on_c, 9, 35, 0
1, 34400, Note_on_c, 9, 45, 127
1, 34439, Note_on_c, 9, 45, 0
1, 34560, Note_on_c, 9, 49, 110
1, 34560, Note_on_c, 9, 35, 116
1, 35039, Note_on_c, 9, 49, 0
1, 35039, Note_on_c, 9, 35, 0
1, 35040, Note_on_c, 9, 38, 127
1, 35040, Note_on_c, 9, 42, 107
1, 35519, Note_on_c, 9, 38, 0
1, 35519, Note_on_c, 9, 42, 0
1, 35520, Note_on_c, 9, 42, 107
1, 35520, Note_on_c, 9, 35, 116
1, 35759, Note_on_c, 9, 35, 0
1, 35840, Note_on_c, 9, 35, 116
1, 35879, Note_on_c, 9, 35, 0
1, 35999, Note_on_c, 9, 42, 0
1, 36000, Note_on_c, 9, 38, 127
1, 36000, Note_on_c, 9, 42, 107
1, 36479, Note_on_c, 9, 38, 0
1, 36479, Note_on_c, 9, 42, 0
1, 36480, Note_on_c, 9, 42, 107
1, 36480, Note_on_c, 9, 35, 116
1, 36959, Note_on_c, 9, 42, 0
1, 36959, Note_on_c, 9, 35, 0
1, 36960, Note_on_c, 9, 38, 127
1, 36960, Note_on_c, 9, 42, 107
1, 37439, Note_on_c, 9, 38, 0
1, 37439, Note_on_c, 9, 42, 0
1, 37440, Note_on_c, 9, 42, 107
1, 37440, Note_on_c, 9, 35, 116
1, 37679, Note_on_c, 9, 35, 0
1, 37760, Note_on_c, 9, 35, 116
1, 37799, Note_on_c, 9, 35, 0
1, 37919, Note_on_c, 9, 42, 0
1, 37920, Note_on_c, 9, 38, 127
1, 37920, Note_on_c, 9, 42, 107
1, 38399, Note_on_c, 9, 38, 0
1, 38399, Note_on_c, 9, 42, 0
1, 38400, Note_on_c, 9, 42, 107
1, 38400, Note_on_c, 9, 35, 116
1, 38879, Note_on_c, 9, 42, 0
1, 38879, Note_on_c, 9, 35, 0
1, 38880, Note_on_c, 9, 38, 127
1, 38880, Note_on_c, 9, 42, 107
1, 39359, Note_on_c, 9, 38, 0
1, 39359, Note_on_c, 9, 42, 0
1, 39360, Note_on_c, 9, 42, 107
1, 39360, Note_on_c, 9, 35, 116
1, 39599, Note_on_c, 9, 35, 0
1, 39680, Note_on_c, 9, 35, 116
1, 39719, Note_on_c, 9, 35, 0
1, 39839, Note_on_c, 9, 42, 0
1, 39840, Note_on_c, 9, 38, 127
1, 39840, Note_on_c, 9, 42, 107
1, 40319, Note_on_c, 9, 38, 0
1, 40319, Note_on_c, 9, 42, 0
1, 40320, Note_on_c, 9, 42, 107
1, 40320, Note_on_c, 9, 35, 116
1, 40799, Note_on_c, 9, 42, 0
1, 40799, Note_on_c, 9, 35, 0
1, 40800, Note_on_c, 9, 38, 127
1, 40800, Note_on_c, 9, 42, 107
1, 41279, Note_on_c, 9, 38, 0
1, 41279, Note_on_c, 9, 42, 0
1, 41280, Note_on_c, 9, 42, 107
1, 41280, Note_on_c, 9, 35, 116
1, 41519, Note_on_c, 9, 35, 0
1, 41600, Note_on_c, 9, 35, 116
1, 41639, Note_on_c, 9, 35, 0
1, 41759, Note_on_c, 9, 42, 0
1, 41760, Note_on_c, 9, 38, 127
1, 41760, Note_on_c, 9, 42, 107
1, 42239, Note_on_c, 9, 38, 0
1, 42239, Note_on_c, 9, 42, 0
1, 42240, Note_on_c, 9, 42, 107
1, 42240, Note_on_c, 9, 35, 116
1, 42719, Note_on_c, 9, 42, 0
1, 42719, Note_on_c, 9, 35, 0
1, 42720, Note_on_c, 9, 38, 127
1, 42720, Note_on_c, 9, 42, 107
1, 43199, Note_on_c, 9, 38, 0
1, 43199, Note_on_c, 9, 42, 0
1, 43200, Note_on_c, 9, 42, 107
1, 43200, Note_on_c, 9, 35, 116
1, 43439, Note_on_c, 9, 35, 0
1, 43520, Note_on_c, 9, 35, 116
1, 43559, Note_on_c, 9, 35, 0
1, 43679, Note_on_c, 9, 42, 0
1, 43680, Note_on_c, 9, 38, 127
1, 43680, Note_on_c, 9, 42, 107
1, 44159, Note_on_c, 9, 38, 0
1, 44159, Note_on_c, 9, 42, 0
1, 44160, Note_on_c, 9, 42, 107
1, 44160, Note_on_c, 9, 35, 116
1, 44639, Note_on_c, 9, 42, 0
1, 44639, Note_on_c, 9, 35, 0
1, 44640, Note_on_c, 9, 38, 127
1, 44654, Note_on_c, 9, 38, 0
1, 44655, Note_on_c, 9, 42, 107
1, 44879, Note_on_c, 9, 42, 0
1, 45120, Note_on_c, 9, 42, 107
1, 45120, Note_on_c, 9, 35, 116
1, 45599, Note_on_c, 9, 42, 0
1, 45599, Note_on_c, 9, 35, 0
1, 45600, Note_on_c, 9, 38, 127
1, 45614, Note_on_c, 9, 38, 0
1, 45615, Note_on_c, 9, 42, 107
1, 45839, Note_on_c, 9, 42, 0
1, 46080, Note_on_c, 9, 42, 107
1, 46080, Note_on_c, 9, 35, 116
1, 46559, Note_on_c, 9, 42, 0
1, 46559, Note_on_c, 9, 35, 0
1, 46560, Note_on_c, 9, 38, 127
1, 46560, Note_on_c, 9, 42, 107
1, 47039, Note_on_c, 9, 38, 0
1, 47039, Note_on_c, 9, 42, 0
1, 47040, Note_on_c, 9, 42, 107
1, 47040, Note_on_c, 9, 35, 116
1, 47279, Note_on_c, 9, 42, 0
1, 47279, Note_on_c, 9, 35, 0
1, 47360, Note_on_c, 9, 38, 63
1, 47360, Note_on_c, 9, 35, 116
1, 47399, Note_on_c, 9, 38, 0
1, 47399, Note_on_c, 9, 35, 0
1, 47520, Note_on_c, 9, 38, 127
1, 47520, Note_on_c, 9, 42, 107
1, 47639, Note_on_c, 9, 38, 0
1, 47639, Note_on_c, 9, 42, 0
1, 47680, Note_on_c, 9, 38, 63
1, 47680, Note_on_c, 9, 45, 127
1, 47699, Note_on_c, 9, 38, 0
1, 47699, Note_on_c, 9, 45, 0
1, 47840, Note_on_c, 9, 41, 127
1, 47840, Note_on_c, 9, 38, 47
1, 47879, Note_on_c, 9, 41, 0
1, 47879, Note_on_c, 9, 38, 0
1, 48000, Note_on_c, 9, 35, 116
1, 48015, Note_on_c, 9, 38, 127
1, 48239, Note_on_c, 9, 38, 0
1, 48479, Note_on_c, 9, 35, 0
1, 49280, Note_on_c, 9, 45, 127
1, 49319, Note_on_c, 9, 45, 0
1, 49440, Note_on_c, 9, 41, 127
1, 49919, Note_on_c, 9, 41, 0
1, 49920, Note_on_c, 9, 49, 110
1, 49920, Note_on_c, 9, 35, 116
1, 50399, Note_on_c, 9, 49, 0
1, 50399, Note_on_c, 9, 35, 0
1, 50400, Note_on_c, 9, 38, 127
1, 50400, Note_on_c, 9, 51, 127
1, 50720, Note_on_c, 9, 35, 116
1, 50759, Note_on_c, 9, 35, 0
1, 50879, Note_on_c, 9, 38, 0
1, 50879, Note_on_c, 9, 51, 0
1, 50880, Note_on_c, 9, 51, 127
1, 51200, Note_on_c, 9, 35, 116
1, 51239, Note_on_c, 9, 35, 0
1, 51359, Note_on_c, 9, 51, 0
1, 51360, Note_on_c, 9, 38, 127
1, 51360, Note_on_c, 9, 51, 127
1, 51839, Note_on_c, 9, 38, 0
1, 51839, Note_on_c, 9, 51, 0
1, 51840, Note_on_c, 9, 51, 127
1, 51840, Note_on_c, 9, 35, 116
1, 52319, Note_on_c, 9, 51, 0
1, 52319, Note_on_c, 9, 35, 0
1, 52320, Note_on_c, 9, 38, 127
1, 52320, Note_on_c, 9, 51, 127
1, 52640, Note_on_c, 9, 35, 116
1, 52679, Note_on_c, 9, 35, 0
1, 52799, Note_on_c, 9, 38, 0
1, 52799, Note_on_c, 9, 51, 0
1, 52800, Note_on_c, 9, 51, 127
1, 53120, Note_on_c, 9, 35, 116
1, 53159, Note_on_c, 9, 35, 0
1, 53279, Note_on_c, 9, 51, 0
1, 53280, Note_on_c, 9, 38, 127
1, 53280, Note_on_c, 9, 51, 127
1, 53759, Note_on_c, 9, 38, 0
1, 53759, Note_on_c, 9, 51, 0
1, 53760, Note_on_c, 9, 51, 127
1, 53760, Note_on_c, 9, 35, 116
1, 54239, Note_on_c, 9, 51, 0
1, 54239, Note_on_c, 9, 35, 0
1, 54240, Note_on_c, 9, 38, 127
1, 54240, Note_on_c, 9, 51, 127
1, 54560, Note_on_c, 9, 35, 116
1, 54599, Note_on_c, 9, 35, 0
1, 54719, Note_on_c, 9, 38, 0
1, 54719, Note_on_c, 9, 51, 0
1, 54720, Note_on_c, 9, 51, 127
1, 55040, Note_on_c, 9, 35, 116
1, 55079, Note_on_c, 9, 35, 0
1, 55199, Note_on_c, 9, 51, 0
1, 55200, Note_on_c, 9, 38, 127
1, 55200, Note_on_c, 9, 51, 127
1, 55679, Note_on_c, 9, 38, 0
1, 55679, Note_on_c, 9, 51, 0
1, 55680, Note_on_c, 9, 51, 127
1, 55680, Note_on_c, 9, 35, 116
1, 56159, Note_on_c, 9, 51, 0
1, 56159, Note_on_c, 9, 35, 0
1, 56160, Note_on_c, 9, 38, 127
1, 56160, Note_on_c, 9, 51, 127
1, 56480, Note_on_c, 9, 35, 116
1, 56519, Note_on_c, 9, 35, 0
1, 56639, Note_on_c, 9, 38, 0
1, 56639, Note_on_c, 9, 51, 0
1, 56640, Note_on_c, 9, 51, 127
1, 56960, Note_on_c, 9, 35, 116
1, 56999, Note_on_c, 9, 35, 0
1, 57119, Note_on_c, 9, 51, 0
1, 57120, Note_on_c, 9, 38, 127
1, 57120, Note_on_c, 9, 51, 127
1, 57599, Note_on_c, 9, 38, 0
1, 57599, Note_on_c, 9, 51, 0
1, 57600, Note_on_c, 9, 51, 127
1, 57600, Note_on_c, 9, 35, 116
1, 58079, Note_on_c, 9, 51, 0
1, 58079, Note_on_c, 9, 35, 0
1, 58080, Note_on_c, 9, 38, 127
1, 58080, Note_on_c, 9, 51, 127
1, 58400, Note_on_c, 9, 35, 116
1, 58439, Note_on_c, 9, 35, 0
1, 58559, Note_on_c, 9, 38, 0
1, 58559, Note_on_c, 9, 51, 0
1, 58560, Note_on_c, 9, 51, 127
1, 58880, Note_on_c, 9, 35, 116
1, 58919, Note_on_c, 9, 35, 0
1, 59039, Note_on_c, 9, 51, 0
1, 59040, Note_on_c, 9, 38, 127
1, 59040, Note_on_c, 9, 51, 127
1, 59519, Note_on_c, 9, 38, 0
1, 59519, Note_on_c, 9, 51, 0
1, 59520, Note_on_c, 9, 51, 127
1, 59520, Note_on_c, 9, 35, 116
1, 59999, Note_on_c, 9, 51, 0
1, 59999, Note_on_c, 9, 35, 0
1, 60000, Note_on_c, 9, 38, 127
1, 60000, Note_on_c, 9, 51, 127
1, 60320, Note_on_c, 9, 35, 116
1, 60359, Note_on_c, 9, 35, 0
1, 60479, Note_on_c, 9, 38, 0
1, 60479, Note_on_c, 9, 51, 0
1, 60480, Note_on_c, 9, 51, 127
1, 60800, Note_on_c, 9, 35, 116
1, 60839, Note_on_c, 9, 35, 0
1, 60959, Note_on_c, 9, 51, 0
1, 60960, Note_on_c, 9, 38, 127
1, 60960, Note_on_c, 9, 51, 127
1, 61439, Note_on_c, 9, 38, 0
1, 61439, Note_on_c, 9, 51, 0
1, 61440, Note_on_c, 9, 51, 127
1, 61440, Note_on_c, 9, 35, 116
1, 61919, Note_on_c, 9, 51, 0
1, 61919, Note_on_c, 9, 35, 0
1, 61920, Note_on_c, 9, 38, 127
1, 61920, Note_on_c, 9, 51, 127
1, 62399, Note_on_c, 9, 38, 0
1, 62399, Note_on_c, 9, 51, 0
1, 62400, Note_on_c, 9, 51, 127
1, 62400, Note_on_c, 9, 35, 116
1, 62879, Note_on_c, 9, 51, 0
1, 62879, Note_on_c, 9, 35, 0
1, 62880, Note_on_c, 9, 38, 127
1, 62880, Note_on_c, 9, 51, 127
1, 63359, Note_on_c, 9, 38, 0
1, 63359, Note_on_c, 9, 51, 0
1, 63360, Note_on_c, 9, 51, 127
1, 63360, Note_on_c, 9, 35, 116
1, 63839, Note_on_c, 9, 51, 0
1, 63839, Note_on_c, 9, 35, 0
1, 63840, Note_on_c, 9, 38, 127
1, 63854, Note_on_c, 9, 38, 0
1, 63855, Note_on_c, 9, 51, 127
1, 64079, Note_on_c, 9, 51, 0
1, 64320, Note_on_c, 9, 49, 110
1, 64320, Note_on_c, 9, 35, 116
1, 64799, Note_on_c, 9, 49, 0
1, 64799, Note_on_c, 9, 35, 0
1, 65265, Note_on_c, 9, 38, 127
1, 65279, Note_on_c, 9, 38, 0
1, 65300, Note_on_c, 9, 38, 127
1, 65339, Note_on_c, 9, 38, 0
1, 65600, Note_on_c, 9, 45, 127
1, 65639, Note_on_c, 9, 45, 0
1, 65920, Note_on_c, 9, 45, 127
1, 65939, Note_on_c, 9, 45, 0
1, 66080, Note_on_c, 9, 41, 127
1, 66119, Note_on_c, 9, 41, 0
1, 66240, Note_on_c, 9, 49, 110
1, 66240, Note_on_c, 9, 35, 116
1, 66719, Note_on_c, 9, 49, 0
1, 66719, Note_on_c, 9, 35, 0
1, 66720, Note_on_c, 9, 53, 127
1, 67199, Note_on_c, 9, 53, 0
1, 67200, Note_on_c, 9, 38, 127
1, 67200, Note_on_c, 9, 49, 110
1, 67214, Note_on_c, 9, 38, 0
1, 67214, Note_on_c, 9, 49, 0
1, 67215, Note_on_c, 9, 54, 127
1, 67439, Note_on_c, 9, 54, 0
1, 67680, Note_on_c, 9, 53, 127
1, 68000, Note_on_c, 9, 35, 116
1, 68039, Note_on_c, 9, 35, 0
1, 68159, Note_on_c, 9, 53, 0
1, 68160, Note_on_c, 9, 53, 127
1, 68160, Note_on_c, 9, 35, 116
1, 68639, Note_on_c, 9, 53, 0
1, 68639, Note_on_c, 9, 35, 0
1, 68640, Note_on_c, 9, 53, 127
1, 69119, Note_on_c, 9, 53, 0
1, 69120, Note_on_c, 9, 38, 127
1, 69120, Note_on_c, 9, 49, 110
1, 69134, Note_on_c, 9, 38, 0
1, 69134, Note_on_c, 9, 49, 0
1, 69135, Note_on_c, 9, 54, 127
1, 69359, Note_on_c, 9, 54, 0
1, 69440, Note_on_c, 9, 45, 127
1, 69479, Note_on_c, 9, 45, 0
1, 69600, Note_on_c, 9, 53, 127
1, 69719, Note_on_c, 9, 53, 0
1, 69760, Note_on_c, 9, 41, 127
1, 69779, Note_on_c, 9, 41, 0
1, 69920, Note_on_c, 9, 35, 116
1, 69959, Note_on_c, 9, 35, 0
1, 70080, Note_on_c, 9, 49, 110
1, 70080, Note_on_c, 9, 35, 116
1, 70559, Note_on_c, 9, 49, 0
1, 70559, Note_on_c, 9, 35, 0
1, 70560, Note_on_c, 9, 53, 127
1, 71039, Note_on_c, 9, 53, 0
1, 71040, Note_on_c, 9, 38, 127
1, 71040, Note_on_c, 9, 49, 110
1, 71054, Note_on_c, 9, 38, 0
1, 71054, Note_on_c, 9, 49, 0
1, 71055, Note_on_c, 9, 54, 127
1, 71279, Note_on_c, 9, 54, 0
1, 71520, Note_on_c, 9, 53, 127
1, 71840, Note_on_c, 9, 35, 116
1, 71879, Note_on_c, 9, 35, 0
1, 71999, Note_on_c, 9, 53, 0
1, 72000, Note_on_c, 9, 53, 127
1, 72000, Note_on_c, 9, 35, 116
1, 72479, Note_on_c, 9, 53, 0
1, 72479, Note_on_c, 9, 35, 0
1, 72480, Note_on_c, 9, 53, 127
1, 72959, Note_on_c, 9, 53, 0
1, 72960, Note_on_c, 9, 38, 127
1, 72960, Note_on_c, 9, 49, 110
1, 72974, Note_on_c, 9, 38, 0
1, 72974, Note_on_c, 9, 49, 0
1, 72975, Note_on_c, 9, 54, 127
1, 73199, Note_on_c, 9, 54, 0
1, 73280, Note_on_c, 9, 45, 127
1, 73319, Note_on_c, 9, 45, 0
1, 73440, Note_on_c, 9, 53, 127
1, 73559, Note_on_c, 9, 53, 0
1, 73600, Note_on_c, 9, 41, 127
1, 73619, Note_on_c, 9, 41, 0
1, 73760, Note_on_c, 9, 35, 116
1, 73799, Note_on_c, 9, 35, 0
1, 73920, Note_on_c, 9, 49, 110
1, 73920, Note_on_c, 9, 35, 116
1, 74399, Note_on_c, 9, 49, 0
1, 74399, Note_on_c, 9, 35, 0
1, 74400, Note_on_c, 9, 53, 127
1, 74879, Note_on_c, 9, 53, 0
1, 74880, Note_on_c, 9, 38, 127
1, 74880, Note_on_c, 9, 49, 110
1, 74894, Note_on_c, 9, 38, 0
1, 74894, Note_on_c, 9, 49, 0
1, 74895, Note_on_c, 9, 54, 127
1, 75119, Note_on_c, 9, 54, 0
1, 75360, Note_on_c, 9, 53, 127
1, 75680, Note_on_c, 9, 35, 116
1, 75719, Note_on_c, 9, 35, 0
1, 75839, Note_on_c, 9, 53, 0
1, 75840, Note_on_c, 9, 53, 127
1, 75840, Note_on_c, 9, 35, 116
1, 76319, Note_on_c, 9, 53, 0
1, 76319, Note_on_c, 9, 35, 0
1, 76320, Note_on_c, 9, 53, 127
1, 76799, Note_on_c, 9, 53, 0
1, 76800, Note_on_c, 9, 38, 127
1, 76800, Note_on_c, 9, 49, 110
1, 76814, Note_on_c, 9, 38, 0
1, 76814, Note_on_c, 9, 49, 0
1, 76815, Note_on_c, 9, 54, 127
1, 77039, Note_on_c, 9, 54, 0
1, 77120, Note_on_c, 9, 45, 127
1, 77159, Note_on_c, 9, 45, 0
1, 77280, Note_on_c, 9, 53, 127
1, 77399, Note_on_c, 9, 53, 0
1, 77440, Note_on_c, 9, 41, 127
1, 77459, Note_on_c, 9, 41, 0
1, 77600, Note_on_c, 9, 35, 116
1, 77639, Note_on_c, 9, 35, 0
1, 77760, Note_on_c, 9, 49, 110
1, 77760, Note_on_c, 9, 35, 116
1, 78239, Note_on_c, 9, 49, 0
1, 78239, Note_on_c, 9, 35, 0
1, 78240, Note_on_c, 9, 53, 127
1, 78560, Note_on_c, 9, 35, 116
1, 78599, Note_on_c, 9, 35, 0
1, 78719, Note_on_c, 9, 53, 0
1, 78720, Note_on_c, 9, 53, 127
1, 79040, Note_on_c, 9, 35, 116
1, 79079, Note_on_c, 9, 35, 0
1, 79199, Note_on_c, 9, 53, 0
1, 79200, Note_on_c, 9, 38, 127
1, 79200, Note_on_c, 9, 49, 110
1, 79214, Note_on_c, 9, 38, 0
1, 79214, Note_on_c, 9, 49, 0
1, 79215, Note_on_c, 9, 54, 127
1, 79439, Note_on_c, 9, 54, 0
1, 79680, Note_on_c, 9, 53, 127
1, 79680, Note_on_c, 9, 35, 116
1, 80159, Note_on_c, 9, 53, 0
1, 80159, Note_on_c, 9, 35, 0
1, 80160, Note_on_c, 9, 53, 127
1, 80480, Note_on_c, 9, 35, 116
1, 80519, Note_on_c, 9, 35, 0
1, 80639, Note_on_c, 9, 53, 0
1, 80640, Note_on_c, 9, 53, 127
1, 80960, Note_on_c, 9, 35, 116
1, 80999, Note_on_c, 9, 35, 0
1, 81119, Note_on_c, 9, 53, 0
1, 81120, Note_on_c, 9, 38, 127
1, 81134, Note_on_c, 9, 38, 0
1, 81135, Note_on_c, 9, 53, 127
1, 81135, Note_on_c, 9, 49, 110
1, 81359, Note_on_c, 9, 53, 0
1, 81359, Note_on_c, 9, 49, 0
1, 81600, Note_on_c, 9, 49, 110
1, 81600, Note_on_c, 9, 35, 116
1, 82079, Note_on_c, 9, 49, 0
1, 82079, Note_on_c, 9, 35, 0
1, 82080, Note_on_c, 9, 53, 127
1, 82400, Note_on_c, 9, 35, 116
1, 82439, Note_on_c, 9, 35, 0
1, 82559, Note_on_c, 9, 53, 0
1, 82560, Note_on_c, 9, 53, 127
1, 82880, Note_on_c, 9, 35, 116
1, 82919, Note_on_c, 9, 35, 0
1, 83039, Note_on_c, 9, 53, 0
1, 83040, Note_on_c, 9, 38, 127
1, 83040, Note_on_c, 9, 49, 110
1, 83054, Note_on_c, 9, 38, 0
1, 83054, Note_on_c, 9, 49, 0
1, 83055, Note_on_c, 9, 54, 127
1, 83279, Note_on_c, 9, 54, 0
1, 83520, Note_on_c, 9, 38, 47
1, 83520, Note_on_c, 9, 35, 116
1, 83639, Note_on_c, 9, 38, 0
1, 83680, Note_on_c, 9, 38, 47
1, 83699, Note_on_c, 9, 38, 0
1, 83840, Note_on_c, 9, 38, 47
1, 83879, Note_on_c, 9, 38, 0
1, 83999, Note_on_c, 9, 35, 0
1, 84000, Note_on_c, 9, 38, 47
1, 84119, Note_on_c, 9, 38, 0
1, 84160, Note_on_c, 9, 38, 47
1, 84179, Note_on_c, 9, 38, 0
1, 84320, Note_on_c, 9, 38, 47
1, 84359, Note_on_c, 9, 38, 0
1, 84480, Note_on_c, 9, 38, 63
1, 84599, Note_on_c, 9, 38, 0
1, 84640, Note_on_c, 9, 38, 79
1, 84659, Note_on_c, 9, 38, 0
1, 84800, Note_on_c, 9, 38, 95
1, 84839, Note_on_c, 9, 38, 0
1, 84960, Note_on_c, 9, 38, 111
1, 85079, Note_on_c, 9, 38, 0
1, 85120, Note_on_c, 9, 38, 127
1, 85139, Note_on_c, 9, 38, 0
1, 85280, Note_on_c, 9, 38, 127
1, 85319, Note_on_c, 9, 38, 0
1, 85440, Note_on_c, 9, 49, 110
1, 85440, Note_on_c, 9, 35, 116
1, 85919, Note_on_c, 9, 49, 0
1, 85919, Note_on_c, 9, 35, 0
1, 85920, Note_on_c, 9, 38, 127
1, 85920, Note_on_c, 9, 51, 127
1, 86240, Note_on_c, 9, 35, 116
1, 86279, Note_on_c, 9, 35, 0
1, 86399, Note_on_c, 9, 38, 0
1, 86399, Note_on_c, 9, 51, 0
1, 86400, Note_on_c, 9, 51, 127
1, 86720, Note_on_c, 9, 35, 116
1, 86759, Note_on_c, 9, 35, 0
1, 86879, Note_on_c, 9, 51, 0
1, 86880, Note_on_c, 9, 38, 127
1, 86880, Note_on_c, 9, 51, 127
1, 87359, Note_on_c, 9, 38, 0
1, 87359, Note_on_c, 9, 51, 0
1, 87360, Note_on_c, 9, 51, 127
1, 87360, Note_on_c, 9, 35, 116
1, 87839, Note_on_c, 9, 51, 0
1, 87839, Note_on_c, 9, 35, 0
1, 87840, Note_on_c, 9, 38, 127
1, 87840, Note_on_c, 9, 51, 127
1, 88160, Note_on_c, 9, 35, 116
1, 88199, Note_on_c, 9, 35, 0
1, 88319, Note_on_c, 9, 38, 0
1, 88319, Note_on_c, 9, 51, 0
1, 88320, Note_on_c, 9, 51, 127
1, 88640, Note_on_c, 9, 35, 116
1, 88679, Note_on_c, 9, 35, 0
1, 88799, Note_on_c, 9, 51, 0
1, 88800, Note_on_c, 9, 38, 127
1, 88800, Note_on_c, 9, 51, 127
1, 89279, Note_on_c, 9, 38, 0
1, 89279, Note_on_c, 9, 51, 0
1, 89280, Note_on_c, 9, 51, 127
1, 89280, Note_on_c, 9, 35, 116
1, 89759, Note_on_c, 9, 51, 0
1, 89759, Note_on_c, 9, 35, 0
1, 89760, Note_on_c, 9, 38, 127
1, 89760, Note_on_c, 9, 51, 127
1, 90080, Note_on_c, 9, 35, 116
1, 90119, Note_on_c, 9, 35, 0
1, 90239, Note_on_c, 9, 38, 0
1, 90239, Note_on_c, 9, 51, 0
1, 90240, Note_on_c, 9, 51, 127
1, 90560, Note_on_c, 9, 35, 116
1, 90599, Note_on_c, 9, 35, 0
1, 90719, Note_on_c, 9, 51, 0
1, 90720, Note_on_c, 9, 38, 127
1, 90720, Note_on_c, 9, 51, 127
1, 91199, Note_on_c, 9, 38, 0
1, 91199, Note_on_c, 9, 51, 0
1, 91200, Note_on_c, 9, 51, 127
1, 91200, Note_on_c, 9, 35, 116
1, 91679, Note_on_c, 9, 51, 0
1, 91679, Note_on_c, 9, 35, 0
1, 91680, Note_on_c, 9, 38, 127
1, 91680, Note_on_c, 9, 51, 127
1, 92000, Note_on_c, 9, 35, 116
1, 92039, Note_on_c, 9, 35, 0
1, 92159, Note_on_c, 9, 38, 0
1, 92159, Note_on_c, 9, 51, 0
1, 92160, Note_on_c, 9, 51, 127
1, 92480, Note_on_c, 9, 35, 116
1, 92519, Note_on_c, 9, 35, 0
1, 92639, Note_on_c, 9, 51, 0
1, 92640, Note_on_c, 9, 38, 127
1, 92640, Note_on_c, 9, 51, 127
1, 93119, Note_on_c, 9, 38, 0
1, 93119, Note_on_c, 9, 51, 0
1, 93120, Note_on_c, 9, 51, 127
1, 93120, Note_on_c, 9, 35, 116
1, 93599, Note_on_c, 9, 51, 0
1, 93599, Note_on_c, 9, 35, 0
1, 93600, Note_on_c, 9, 38, 127
1, 93600, Note_on_c, 9, 51, 127
1, 93920, Note_on_c, 9, 35, 116
1, 93959, Note_on_c, 9, 35, 0
1, 94079, Note_on_c, 9, 38, 0
1, 94079, Note_on_c, 9, 51, 0
1, 94080, Note_on_c, 9, 51, 127
1, 94400, Note_on_c, 9, 35, 116
1, 94439, Note_on_c, 9, 35, 0
1, 94559, Note_on_c, 9, 51, 0
1, 94560, Note_on_c, 9, 38, 127
1, 94560, Note_on_c, 9, 51, 127
1, 95039, Note_on_c, 9, 38, 0
1, 95039, Note_on_c, 9, 51, 0
1, 95040, Note_on_c, 9, 51, 127
1, 95040, Note_on_c, 9, 35, 116
1, 95519, Note_on_c, 9, 51, 0
1, 95519, Note_on_c, 9, 35, 0
1, 95520, Note_on_c, 9, 38, 127
1, 95520, Note_on_c, 9, 51, 127
1, 95999, Note_on_c, 9, 38, 0
1, 95999, Note_on_c, 9, 51, 0
1, 96000, Note_on_c, 9, 51, 127
1, 96000, Note_on_c, 9, 35, 116
1, 96479, Note_on_c, 9, 51, 0
1, 96479, Note_on_c, 9, 35, 0
1, 96480, Note_on_c, 9, 38, 127
1, 96480, Note_on_c, 9, 51, 127
1, 96959, Note_on_c, 9, 38, 0
1, 96959, Note_on_c, 9, 51, 0
1, 96960, Note_on_c, 9, 49, 110
1, 96960, Note_on_c, 9, 35, 116
1, 97439, Note_on_c, 9, 49, 0
1, 97439, Note_on_c, 9, 35, 0
1, 97440, Note_on_c, 9, 38, 127
1, 97440, Note_on_c, 9, 51, 127
1, 97760, Note_on_c, 9, 35, 116
1, 97799, Note_on_c, 9, 35, 0
1, 97919, Note_on_c, 9, 38, 0
1, 97919, Note_on_c, 9, 51, 0
1, 97920, Note_on_c, 9, 51, 127
1, 98240, Note_on_c, 9, 35, 116
1, 98279, Note_on_c, 9, 35, 0
1, 98399, Note_on_c, 9, 51, 0
1, 98400, Note_on_c, 9, 38, 127
1, 98400, Note_on_c, 9, 51, 127
1, 98879, Note_on_c, 9, 38, 0
1, 98879, Note_on_c, 9, 51, 0
1, 98880, Note_on_c, 9, 38, 127
1, 98880, Note_on_c, 9, 35, 116
1, 99359, Note_on_c, 9, 38, 0
1, 99359, Note_on_c, 9, 35, 0
1, 100160, Note_on_c, 9, 45, 127
1, 100199, Note_on_c, 9, 45, 0
1, 100320, Note_on_c, 9, 41, 127
1, 100799, Note_on_c, 9, 41, 0
1, 100800, Note_on_c, 9, 49, 110
1, 100800, Note_on_c, 9, 35, 116
1, 101279, Note_on_c, 9, 49, 0
1, 101279, Note_on_c, 9, 35, 0
1, 101280, Note_on_c, 9, 38, 127
1, 101280, Note_on_c, 9, 51, 127
1, 101600, Note_on_c, 9, 35, 116
1, 101639, Note_on_c, 9, 35, 0
1, 101759, Note_on_c, 9, 38, 0
1, 101759, Note_on_c, 9, 51, 0
1, 101760, Note_on_c, 9, 51, 127
1, 102080, Note_on_c, 9, 35, 116
1, 102119, Note_on_c, 9, 35, 0
1, 102239, Note_on_c, 9, 51, 0
1, 102240, Note_on_c, 9, 38, 127
1, 102240, Note_on_c, 9, 51, 127
1, 102719, Note_on_c, 9, 38, 0
1, 102719, Note_on_c, 9, 51, 0
1, 102720, Note_on_c, 9, 51, 127
1, 102720, Note_on_c, 9, 35, 116
1, 103199, Note_on_c, 9, 51, 0
1, 103199, Note_on_c, 9, 35, 0
1, 103200, Note_on_c, 9, 38, 127
1, 103200, Note_on_c, 9, 51, 127
1, 103520, Note_on_c, 9, 35, 116
1, 103559, Note_on_c, 9, 35, 0
1, 103679, Note_on_c, 9, 38, 0
1, 103679, Note_on_c, 9, 51, 0
1, 103680, Note_on_c, 9, 51, 127
1, 104000, Note_on_c, 9, 35, 116
1, 104039, Note_on_c, 9, 35, 0
1, 104159, Note_on_c, 9, 51, 0
1, 104160, Note_on_c, 9, 38, 127
1, 104160, Note_on_c, 9, 51, 127
1, 104639, Note_on_c, 9, 38, 0
1, 104639, Note_on_c, 9, 51, 0
1, 104640, Note_on_c, 9, 51, 127
1, 104640, Note_on_c, 9, 35, 116
1, 105119, Note_on_c, 9, 51, 0
1, 105119, Note_on_c, 9, 35, 0
1, 105120, Note_on_c, 9, 38, 127
1, 105120, Note_on_c, 9, 51, 127
1, 105440, Note_on_c, 9, 35, 116
1, 105479, Note_on_c, 9, 35, 0
1, 105599, Note_on_c, 9, 38, 0
1, 105599, Note_on_c, 9, 51, 0
1, 105600, Note_on_c, 9, 51, 127
1, 105920, Note_on_c, 9, 35, 116
1, 105959, Note_on_c, 9, 35, 0
1, 106079, Note_on_c, 9, 51, 0
1, 106080, Note_on_c, 9, 38, 127
1, 106080, Note_on_c, 9, 51, 127
1, 106559, Note_on_c, 9, 38, 0
1, 106559, Note_on_c, 9, 51, 0
1, 106560, Note_on_c, 9, 51, 127
1, 106560, Note_on_c, 9, 35, 116
1, 107039, Note_on_c, 9, 51, 0
1, 107039, Note_on_c, 9, 35, 0
1, 107040, Note_on_c, 9, 38, 127
1, 107040, Note_on_c, 9, 51, 127
1, 107360, Note_on_c, 9, 35, 116
1, 107399, Note_on_c, 9, 35, 0
1, 107519, Note_on_c, 9, 38, 0
1, 107519, Note_on_c, 9, 51, 0
1, 107520, Note_on_c, 9, 51, 127
1, 107840, Note_on_c, 9, 35, 116
1, 107879, Note_on_c, 9, 35, 0
1, 107999, Note_on_c, 9, 51, 0
1, 108000, Note_on_c, 9, 38, 127
1, 108000, Note_on_c, 9, 51, 127
1, 108479, Note_on_c, 9, 38, 0
1, 108479, Note_on_c, 9, 51, 0
1, 108480, Note_on_c, 9, 51, 127
1, 108480, Note_on_c, 9, 35, 116
1, 108959, Note_on_c, 9, 51, 0
1, 108959, Note_on_c, 9, 35, 0
1, 108960, Note_on_c, 9, 38, 127
1, 108960, Note_on_c, 9, 51, 127
1, 109280, Note_on_c, 9, 35, 116
1, 109319, Note_on_c, 9, 35, 0
1, 109439, Note_on_c, 9, 38, 0
1, 109439, Note_on_c, 9, 51, 0
1, 109440, Note_on_c, 9, 51, 127
1, 109760, Note_on_c, 9, 35, 116
1, 109799, Note_on_c, 9, 35, 0
1, 109919, Note_on_c, 9, 51, 0
1, 109920, Note_on_c, 9, 38, 127
1, 109920, Note_on_c, 9, 51, 127
1, 110399, Note_on_c, 9, 38, 0
1, 110399, Note_on_c, 9, 51, 0
1, 110400, Note_on_c, 9, 51, 127
1, 110400, Note_on_c, 9, 35, 116
1, 110879, Note_on_c, 9, 51, 0
1, 110879, Note_on_c, 9, 35, 0
1, 110880, Note_on_c, 9, 38, 127
1, 110880, Note_on_c, 9, 51, 127
1, 111200, Note_on_c, 9, 35, 116
1, 111239, Note_on_c, 9, 35, 0
1, 111359, Note_on_c, 9, 38, 0
1, 111359, Note_on_c, 9, 51, 0
1, 111360, Note_on_c, 9, 51, 127
1, 111680, Note_on_c, 9, 35, 116
1, 111719, Note_on_c, 9, 35, 0
1, 111839, Note_on_c, 9, 51, 0
1, 111840, Note_on_c, 9, 38, 127
1, 111840, Note_on_c, 9, 51, 127
1, 112319, Note_on_c, 9, 38, 0
1, 112319, Note_on_c, 9, 51, 0
1, 112320, Note_on_c, 9, 51, 127
1, 112320, Note_on_c, 9, 35, 116
1, 112799, Note_on_c, 9, 51, 0
1, 112799, Note_on_c, 9, 35, 0
1, 112800, Note_on_c, 9, 38, 127
1, 112800, Note_on_c, 9, 51, 127
1, 113279, Note_on_c, 9, 38, 0
1, 113279, Note_on_c, 9, 51, 0
1, 113280, Note_on_c, 9, 51, 127
1, 113280, Note_on_c, 9, 35, 116
1, 113759, Note_on_c, 9, 51, 0
1, 113759, Note_on_c, 9, 35, 0
1, 113760, Note_on_c, 9, 38, 127
1, 113760, Note_on_c, 9, 51, 127
1, 114239, Note_on_c, 9, 38, 0
1, 114239, Note_on_c, 9, 51, 0
1, 114240, Note_on_c, 9, 51, 127
1, 114240, Note_on_c, 9, 35, 116
1, 114719, Note_on_c, 9, 51, 0
1, 114719, Note_on_c, 9, 35, 0
1, 114720, Note_on_c, 9, 38, 127
1, 114734, Note_on_c, 9, 38, 0
1, 114735, Note_on_c, 9, 51, 127
1, 114959, Note_on_c, 9, 51, 0
1, 115200, Note_on_c, 9, 49, 110
1, 115200, Note_on_c, 9, 35, 116
1, 115679, Note_on_c, 9, 49, 0
1, 115679, Note_on_c, 9, 35, 0
1, 116145, Note_on_c, 9, 38, 127
1, 116159, Note_on_c, 9, 38, 0
1, 116175, Note_on_c, 9, 38, 127
1, 116399, Note_on_c, 9, 38, 0
1, 116480, Note_on_c, 9, 45, 127
1, 116519, Note_on_c, 9, 45, 0
1, 116800, Note_on_c, 9, 45, 127
1, 116819, Note_on_c, 9, 45, 0
1, 116960, Note_on_c, 9, 41, 127
1, 116999, Note_on_c, 9, 41, 0
1, 117120, Note_on_c, 9, 49, 110
1, 117120, Note_on_c, 9, 35, 116
1, 117599, Note_on_c, 9, 49, 0
1, 117599, Note_on_c, 9, 35, 0
1, 117600, Note_on_c, 9, 53, 127
1, 118079, Note_on_c, 9, 53, 0
1, 118080, Note_on_c, 9, 38, 127
1, 118080, Note_on_c, 9, 49, 110
1, 118094, Note_on_c, 9, 38, 0
1, 118094, Note_on_c, 9, 49, 0
1, 118095, Note_on_c, 9, 54, 127
1, 118319, Note_on_c, 9, 54, 0
1, 118560, Note_on_c, 9, 53, 127
1, 118880, Note_on_c, 9, 35, 116
1, 118919, Note_on_c, 9, 35, 0
1, 119039, Note_on_c, 9, 53, 0
1, 119040, Note_on_c, 9, 53, 127
1, 119040, Note_on_c, 9, 35, 116
1, 119519, Note_on_c, 9, 53, 0
1, 119519, Note_on_c, 9, 35, 0
1, 119520, Note_on_c, 9, 53, 127
1, 119999, Note_on_c, 9, 53, 0
1, 120000, Note_on_c, 9, 38, 127
1, 120000, Note_on_c, 9, 49, 110
1, 120014, Note_on_c, 9, 38, 0
1, 120014, Note_on_c, 9, 49, 0
1, 120015, Note_on_c, 9, 54, 127
1, 120239, Note_on_c, 9, 54, 0
1, 120320, Note_on_c, 9, 45, 127
1, 120359, Note_on_c, 9, 45, 0
1, 120480, Note_on_c, 9, 53, 127
1, 120599, Note_on_c, 9, 53, 0
1, 120640, Note_on_c, 9, 41, 127
1, 120659, Note_on_c, 9, 41, 0
1, 120800, Note_on_c, 9, 35, 116
1, 120839, Note_on_c, 9, 35, 0
1, 120960, Note_on_c, 9, 49, 110
1, 120960, Note_on_c, 9, 35, 116
1, 121439, Note_on_c, 9, 49, 0
1, 121439, Note_on_c, 9, 35, 0
1, 121440, Note_on_c, 9, 53, 127
1, 121919, Note_on_c, 9, 53, 0
1, 121920, Note_on_c, 9, 38, 127
1, 121920, Note_on_c, 9, 49, 110
1, 121934, Note_on_c, 9, 38, 0
1, 121934, Note_on_c, 9, 49, 0
1, 121935, Note_on_c, 9, 54, 127
1, 122159, Note_on_c, 9, 54, 0
1, 122400, Note_on_c, 9, 53, 127
1, 122720, Note_on_c, 9, 35, 116
1, 122759, Note_on_c, 9, 35, 0
1, 122879, Note_on_c, 9, 53, 0
1, 122880, Note_on_c, 9, 53, 127
1, 122880, Note_on_c, 9, 35, 116
1, 123359, Note_on_c, 9, 53, 0
1, 123359, Note_on_c, 9, 35, 0
1, 123360, Note_on_c, 9, 53, 127
1, 123839, Note_on_c, 9, 53, 0
1, 123840, Note_on_c, 9, 38, 127
1, 123840, Note_on_c, 9, 49, 110
1, 123854, Note_on_c, 9, 38, 0
1, 123854, Note_on_c, 9, 49, 0
1, 123855, Note_on_c, 9, 54, 127
1, 124079, Note_on_c, 9, 54, 0
1, 124160, Note_on_c, 9, 45, 127
1, 124199, Note_on_c, 9, 45, 0
1, 124320, Note_on_c, 9, 53, 127
1, 124439, Note_on_c, 9, 53, 0
1, 124480, Note_on_c, 9, 41, 127
1, 124499, Note_on_c, 9, 41, 0
1, 124640, Note_on_c, 9, 35, 116
1, 124679, Note_on_c, 9, 35, 0
1, 124800, Note_on_c, 9, 49, 110
1, 124800, Note_on_c, 9, 35, 116
1, 125279, Note_on_c, 9, 49, 0
1, 125279, Note_on_c, 9, 35, 0
1, 125280, Note_on_c, 9, 53, 127
1, 125759, Note_on_c, 9, 53, 0
1, 125760, Note_on_c, 9, 38, 127
1, 125760, Note_on_c, 9, 49, 110
1, 125774, Note_on_c, 9, 38, 0
1, 125774, Note_on_c, 9, 49, 0
1, 125775, Note_on_c, 9, 54, 127
1, 125999, Note_on_c, 9, 54, 0
1, 126240, Note_on_c, 9, 53, 127
1, 126560, Note_on_c, 9, 35, 116
1, 126599, Note_on_c, 9, 35, 0
1, 126719, Note_on_c, 9, 53, 0
1, 126720, Note_on_c, 9, 53, 127
1, 126720, Note_on_c, 9, 35, 116
1, 127199, Note_on_c, 9, 53, 0
1, 127199, Note_on_c, 9, 35, 0
1, 127200, Note_on_c, 9, 53, 127
1, 127679, Note_on_c, 9, 53, 0
1, 127680, Note_on_c, 9, 38, 127
1, 127680, Note_on_c, 9, 49, 110
1, 127694, Note_on_c, 9, 38, 0
1, 127694, Note_on_c, 9, 49, 0
1, 127695, Note_on_c, 9, 54, 127
1, 127919, Note_on_c, 9, 54, 0
1, 128000, Note_on_c, 9, 45, 127
1, 128039, Note_on_c, 9, 45, 0
1, 128160, Note_on_c, 9, 53, 127
1, 128279, Note_on_c, 9, 53, 0
1, 128320, Note_on_c, 9, 41, 127
1, 128339, Note_on_c, 9, 41, 0
1, 128480, Note_on_c, 9, 35, 116
1, 128519, Note_on_c, 9, 35, 0
1, 128640, Note_on_c, 9, 49, 110
1, 128640, Note_on_c, 9, 35, 116
1, 129119, Note_on_c, 9, 49, 0
1, 129119, Note_on_c, 9, 35, 0
1, 129120, Note_on_c, 9, 53, 127
1, 129440, Note_on_c, 9, 35, 116
1, 129479, Note_on_c, 9, 35, 0
1, 129599, Note_on_c, 9, 53, 0
1, 129600, Note_on_c, 9, 53, 127
1, 129920, Note_on_c, 9, 35, 116
1, 129959, Note_on_c, 9, 35, 0
1, 130079, Note_on_c, 9, 53, 0
1, 130080, Note_on_c, 9, 38, 127
1, 130080, Note_on_c, 9, 49, 110
1, 130094, Note_on_c, 9, 38, 0
1, 130094, Note_on_c, 9, 49, 0
1, 130095, Note_on_c, 9, 54, 127
1, 130319, Note_on_c, 9, 54, 0
1, 130560, Note_on_c, 9, 38, 47
1, 130560, Note_on_c, 9, 35, 116
1, 130679, Note_on_c, 9, 38, 0
1, 130720, Note_on_c, 9, 38, 47
1, 130739, Note_on_c, 9, 38, 0
1, 130880, Note_on_c, 9, 38, 47
1, 130919, Note_on_c, 9, 38, 0
1, 131039, Note_on_c, 9, 35, 0
1, 131040, Note_on_c, 9, 38, 47
1, 131159, Note_on_c, 9, 38, 0
1, 131200, Note_on_c, 9, 38, 47
1, 131219, Note_on_c, 9, 38, 0
1, 131360, Note_on_c, 9, 38, 47
1, 131399, Note_on_c, 9, 38, 0
1, 131520, Note_on_c, 9, 38, 63
1, 131639, Note_on_c, 9, 38, 0
1, 131680, Note_on_c, 9, 38, 79
1, 131699, Note_on_c, 9, 38, 0
1, 131840, Note_on_c, 9, 38, 95
1, 131879, Note_on_c, 9, 38, 0
1, 132000, Note_on_c, 9, 38, 111
1, 132119, Note_on_c, 9, 38, 0
1, 132160, Note_on_c, 9, 38, 127
1, 132179, Note_on_c, 9, 38, 0
1, 132320, Note_on_c, 9, 38, 127
1, 132359, Note_on_c, 9, 38, 0
1, 132480, Note_on_c, 9, 49, 110
1, 132480, Note_on_c, 9, 35, 116
1, 132959, Note_on_c, 9, 49, 0
1, 132959, Note_on_c, 9, 35, 0
1, 132960, Note_on_c, 9, 38, 127
1, 132960, Note_on_c, 9, 51, 127
1, 133280, Note_on_c, 9, 35, 116
1, 133319, Note_on_c, 9, 35, 0
1, 133439, Note_on_c, 9, 38, 0
1, 133439, Note_on_c, 9, 51, 0
1, 133440, Note_on_c, 9, 51, 127
1, 133760, Note_on_c, 9, 35, 116
1, 133799, Note_on_c, 9, 35, 0
1, 133919, Note_on_c, 9, 51, 0
1, 133920, Note_on_c, 9, 38, 127
1, 133920, Note_on_c, 9, 51, 127
1, 134399, Note_on_c, 9, 38, 0
1, 134399, Note_on_c, 9, 51, 0
1, 134400, Note_on_c, 9, 51, 127
1, 134400, Note_on_c, 9, 35, 116
1, 134879, Note_on_c, 9, 51, 0
1, 134879, Note_on_c, 9, 35, 0
1, 134880, Note_on_c, 9, 38, 127
1, 134880, Note_on_c, 9, 51, 127
1, 135200, Note_on_c, 9, 35, 116
1, 135239, Note_on_c, 9, 35, 0
1, 135359, Note_on_c, 9, 38, 0
1, 135359, Note_on_c, 9, 51, 0
1, 135360, Note_on_c, 9, 51, 127
1, 135680, Note_on_c, 9, 35, 116
1, 135719, Note_on_c, 9, 35, 0
1, 135839, Note_on_c, 9, 51, 0
1, 135840, Note_on_c, 9, 38, 127
1, 135840, Note_on_c, 9, 51, 127
1, 136319, Note_on_c, 9, 38, 0
1, 136319, Note_on_c, 9, 51, 0
1, 136320, Note_on_c, 9, 51, 127
1, 136320, Note_on_c, 9, 35, 116
1, 136799, Note_on_c, 9, 51, 0
1, 136799, Note_on_c, 9, 35, 0
1, 136800, Note_on_c, 9, 38, 127
1, 136800, Note_on_c, 9, 51, 127
1, 137120, Note_on_c, 9, 35, 116
1, 137159, Note_on_c, 9, 35, 0
1, 137279, Note_on_c, 9, 38, 0
1, 137279, Note_on_c, 9, 51, 0
1, 137280, Note_on_c, 9, 51, 127
1, 137600, Note_on_c, 9, 35, 116
1, 137639, Note_on_c, 9, 35, 0
1, 137759, Note_on_c, 9, 51, 0
1, 137760, Note_on_c, 9, 38, 127
1, 137760, Note_on_c, 9, 51, 127
1, 138239, Note_on_c, 9, 38, 0
1, 138239, Note_on_c, 9, 51, 0
1, 138240, Note_on_c, 9, 51, 127
1, 138240, Note_on_c, 9, 35, 116
1, 138719, Note_on_c, 9, 51, 0
1, 138719, Note_on_c, 9, 35, 0
1, 138720, Note_on_c, 9, 38, 127
1, 138720, Note_on_c, 9, 51, 127
1, 139040, Note_on_c, 9, 35, 116
1, 139079, Note_on_c, 9, 35, 0
1, 139199, Note_on_c, 9, 38, 0
1, 139199, Note_on_c, 9, 51, 0
1, 139200, Note_on_c, 9, 51, 127
1, 139520, Note_on_c, 9, 35, 116
1, 139559, Note_on_c, 9, 35, 0
1, 139679, Note_on_c, 9, 51, 0
1, 139680, Note_on_c, 9, 38, 127
1, 139680, Note_on_c, 9, 51, 127
1, 140159, Note_on_c, 9, 38, 0
1, 140159, Note_on_c, 9, 51, 0
1, 140160, Note_on_c, 9, 51, 127
1, 140160, Note_on_c, 9, 35, 116
1, 140639, Note_on_c, 9, 51, 0
1, 140639, Note_on_c, 9, 35, 0
1, 140640, Note_on_c, 9, 38, 127
1, 140640, Note_on_c, 9, 51, 127
1, 140960, Note_on_c, 9, 35, 116
1, 140999, Note_on_c, 9, 35, 0
1, 141119, Note_on_c, 9, 38, 0
1, 141119, Note_on_c, 9, 51, 0
1, 141120, Note_on_c, 9, 51, 127
1, 141440, Note_on_c, 9, 35, 116
1, 141479, Note_on_c, 9, 35, 0
1, 141599, Note_on_c, 9, 51, 0
1, 141600, Note_on_c, 9, 38, 127
1, 141600, Note_on_c, 9, 51, 127
1, 142079, Note_on_c, 9, 38, 0
1, 142079, Note_on_c, 9, 51, 0
1, 142080, Note_on_c, 9, 51, 127
1, 142080, Note_on_c, 9, 35, 116
1, 142559, Note_on_c, 9, 51, 0
1, 142559, Note_on_c, 9, 35, 0
1, 142560, Note_on_c, 9, 38, 127
1, 142560, Note_on_c, 9, 51, 127
1, 143039, Note_on_c, 9, 38, 0
1, 143039, Note_on_c, 9, 51, 0
1, 143040, Note_on_c, 9, 51, 127
1, 143040, Note_on_c, 9, 35, 116
1, 143519, Note_on_c, 9, 51, 0
1, 143519, Note_on_c, 9, 35, 0
1, 143520, Note_on_c, 9, 38, 127
1, 143520, Note_on_c, 9, 51, 127
1, 143999, Note_on_c, 9, 38, 0
1, 143999, Note_on_c, 9, 51, 0
1, 144000, Note_on_c, 9, 51, 127
1, 144000, Note_on_c, 9, 35, 116
1, 144239, Note_on_c, 9, 51, 0
1, 144320, Note_on_c, 9, 39, 107
1, 144359, Note_on_c, 9, 39, 0
1, 144479, Note_on_c, 9, 35, 0
1, 144480, Note_on_c, 9, 38, 127
1, 144494, Note_on_c, 9, 38, 0
1, 144495, Note_on_c, 9, 39, 107
1, 144495, Note_on_c, 9, 51, 127
1, 144719, Note_on_c, 9, 39, 0
1, 144719, Note_on_c, 9, 51, 0
1, 144960, Note_on_c, 9, 51, 127
1, 144960, Note_on_c, 9, 35, 116
1, 145439, Note_on_c, 9, 51, 0
1, 145439, Note_on_c, 9, 35, 0
1, 145440, Note_on_c, 9, 38, 127
1, 145454, Note_on_c, 9, 38, 0
1, 145455, Note_on_c, 9, 51, 127
1, 145679, Note_on_c, 9, 51, 0
1, 145760, Note_on_c, 9, 38, 127
1, 145799, Note_on_c, 9, 38, 0
1, 145920, Note_on_c, 9, 51, 127
1, 145920, Note_on_c, 9, 35, 116
1, 146159, Note_on_c, 9, 51, 0
1, 146240, Note_on_c, 9, 39, 107
1, 146279, Note_on_c, 9, 39, 0
1, 146399, Note_on_c, 9, 35, 0
1, 146400, Note_on_c, 9, 38, 127
1, 146414, Note_on_c, 9, 38, 0
1, 146415, Note_on_c, 9, 39, 107
1, 146415, Note_on_c, 9, 51, 127
1, 146639, Note_on_c, 9, 39, 0
1, 146639, Note_on_c, 9, 51, 0
1, 146880, Note_on_c, 9, 51, 127
1, 146880, Note_on_c, 9, 35, 116
1, 147359, Note_on_c, 9, 51, 0
1, 147359, Note_on_c, 9, 35, 0
1, 147360, Note_on_c, 9, 38, 127
1, 147374, Note_on_c, 9, 38, 0
1, 147375, Note_on_c, 9, 51, 127
1, 147599, Note_on_c, 9, 51, 0
1, 147680, Note_on_c, 9, 38, 127
1, 147719, Note_on_c, 9, 38, 0
1, 147840, Note_on_c, 9, 51, 127
1, 147840, Note_on_c, 9, 35, 116
1, 148079, Note_on_c, 9, 51, 0
1, 148160, Note_on_c, 9, 39, 107
1, 148199, Note_on_c, 9, 39, 0
1, 148319, Note_on_c, 9, 35, 0
1, 148320, Note_on_c, 9, 38, 127
1, 148334, Note_on_c, 9, 38, 0
1, 148335, Note_on_c, 9, 39, 107
1, 148335, Note_on_c, 9, 51, 127
1, 148559, Note_on_c, 9, 39, 0
1, 148559, Note_on_c, 9, 51, 0
1, 148800, Note_on_c, 9, 51, 127
1, 148800, Note_on_c, 9, 35, 116
1, 149279, Note_on_c, 9, 51, 0
1, 149279, Note_on_c, 9, 35, 0
1, 149280, Note_on_c, 9, 38, 127
1, 149294, Note_on_c, 9, 38, 0
1, 149295, Note_on_c, 9, 51, 127
1, 149519, Note_on_c, 9, 51, 0
1, 149600, Note_on_c, 9, 38, 127
1, 149639, Note_on_c, 9, 38, 0
1, 149760, Note_on_c, 9, 51, 127
1, 149760, Note_on_c, 9, 35, 116
1, 149999, Note_on_c, 9, 51, 0
1, 150080, Note_on_c, 9, 39, 107
1, 150119, Note_on_c, 9, 39, 0
1, 150239, Note_on_c, 9, 35, 0
1, 150240, Note_on_c, 9, 38, 127
1, 150254, Note_on_c, 9, 38, 0
1, 150255, Note_on_c, 9, 39, 107
1, 150255, Note_on_c, 9, 51, 127
1, 150479, Note_on_c, 9, 39, 0
1, 150479, Note_on_c, 9, 51, 0
1, 150720, Note_on_c, 9, 51, 127
1, 150720, Note_on_c, 9, 35, 116
1, 151199, Note_on_c, 9, 51, 0
1, 151199, Note_on_c, 9, 35, 0
1, 151200, Note_on_c, 9, 38, 127
1, 151214, Note_on_c, 9, 38, 0
1, 151215, Note_on_c, 9, 51, 127
1, 151439, Note_on_c, 9, 51, 0
1, 151520, Note_on_c, 9, 38, 127
1, 151559, Note_on_c, 9, 38, 0
1, 151680, Note_on_c, 9, 51, 127
1, 151680, Note_on_c, 9, 35, 116
1, 151919, Note_on_c, 9, 51, 0
1, 152000, Note_on_c, 9, 39, 107
1, 152039, Note_on_c, 9, 39, 0
1, 152159, Note_on_c, 9, 35, 0
1, 152160, Note_on_c, 9, 38, 127
1, 152174, Note_on_c, 9, 38, 0
1, 152175, Note_on_c, 9, 39, 107
1, 152175, Note_on_c, 9, 51, 127
1, 152399, Note_on_c, 9, 39, 0
1, 152399, Note_on_c, 9, 51, 0
1, 152640, Note_on_c, 9, 51, 127
1, 152640, Note_on_c, 9, 35, 116
1, 153119, Note_on_c, 9, 51, 0
1, 153119, Note_on_c, 9, 35, 0
1, 153120, Note_on_c, 9, 38, 127
1, 153134, Note_on_c, 9, 38, 0
1, 153135, Note_on_c, 9, 51, 127
1, 153359, Note_on_c, 9, 51, 0
1, 153440, Note_on_c, 9, 38, 127
1, 153479, Note_on_c, 9, 38, 0
1, 153600, Note_on_c, 9, 51, 127
1, 153600, Note_on_c, 9, 35, 116
1, 153839, Note_on_c, 9, 51, 0
1, 153920, Note_on_c, 9, 39, 107
1, 153959, Note_on_c, 9, 39, 0
1, 154079, Note_on_c, 9, 35, 0
1, 154080, Note_on_c, 9, 38, 127
1, 154094, Note_on_c, 9, 38, 0
1, 154095, Note_on_c, 9, 39, 107
1, 154095, Note_on_c, 9, 51, 127
1, 154319, Note_on_c, 9, 39, 0
1, 154319, Note_on_c, 9, 51, 0
1, 154560, Note_on_c, 9, 51, 127
1, 154560, Note_on_c, 9, 35, 116
1, 155039, Note_on_c, 9, 51, 0
1, 155039, Note_on_c, 9, 35, 0
1, 155040, Note_on_c, 9, 38, 127
1, 155054, Note_on_c, 9, 38, 0
1, 155055, Note_on_c, 9, 51, 127
1, 155279, Note_on_c, 9, 51, 0
1, 155360, Note_on_c, 9, 38, 127
1, 155399, Note_on_c, 9, 38, 0
1, 155520, Note_on_c, 9, 51, 127
1, 155520, Note_on_c, 9, 35, 116
1, 155759, Note_on_c, 9, 51, 0
1, 155840, Note_on_c, 9, 39, 107
1, 155879, Note_on_c, 9, 39, 0
1, 155999, Note_on_c, 9, 35, 0
1, 156000, Note_on_c, 9, 38, 127
1, 156014, Note_on_c, 9, 38, 0
1, 156015, Note_on_c, 9, 39, 107
1, 156015, Note_on_c, 9, 51, 127
1, 156239, Note_on_c, 9, 39, 0
1, 156239, Note_on_c, 9, 51, 0
1, 156480, Note_on_c, 9, 51, 127
1, 156480, Note_on_c, 9, 35, 116
1, 156959, Note_on_c, 9, 51, 0
1, 156959, Note_on_c, 9, 35, 0
1, 156960, Note_on_c, 9, 38, 127
1, 156974, Note_on_c, 9, 38, 0
1, 156975, Note_on_c, 9, 51, 127
1, 157199, Note_on_c, 9, 51, 0
1, 157280, Note_on_c, 9, 38, 127
1, 157319, Note_on_c, 9, 38, 0
1, 157440, Note_on_c, 9, 51, 127
1, 157440, Note_on_c, 9, 35, 116
1, 157679, Note_on_c, 9, 51, 0
1, 157760, Note_on_c, 9, 39, 107
1, 157799, Note_on_c, 9, 39, 0
1, 157919, Note_on_c, 9, 35, 0
1, 157920, Note_on_c, 9, 38, 127
1, 157934, Note_on_c, 9, 38, 0
1, 157935, Note_on_c, 9, 39, 107
1, 157935, Note_on_c, 9, 51, 127
1, 158159, Note_on_c, 9, 39, 0
1, 158159, Note_on_c, 9, 51, 0
1, 158400, Note_on_c, 9, 51, 127
1, 158400, Note_on_c, 9, 35, 116
1, 158879, Note_on_c, 9, 51, 0
1, 158879, Note_on_c, 9, 35, 0
1, 158880, Note_on_c, 9, 38, 127
1, 158894, Note_on_c, 9, 38, 0
1, 158895, Note_on_c, 9, 51, 127
1, 159119, Note_on_c, 9, 51, 0
1, 159200, Note_on_c, 9, 38, 127
1, 159239, Note_on_c, 9, 38, 0
1, 159360, Note_on_c, 9, 51, 127
1, 159360, Note_on_c, 9, 35, 116
1, 159599, Note_on_c, 9, 51, 0
1, 159680, Note_on_c, 9, 39, 107
1, 159719, Note_on_c, 9, 39, 0
1, 159839, Note_on_c, 9, 35, 0
1, 159840, Note_on_c, 9, 38, 127
1, 159840, Note_on_c, 9, 51, 127
1, 159854, Note_on_c, 9, 38, 0
1, 159854, Note_on_c, 9, 51, 0
1, 159855, Note_on_c, 9, 39, 107
1, 160079, Note_on_c, 9, 39, 0
1, 160320, Note_on_c, 9, 51, 127
1, 160320, Note_on_c, 9, 35, 116
1, 160799, Note_on_c, 9, 51, 0
1, 160799, Note_on_c, 9, 35, 0
1, 160800, Note_on_c, 9, 38, 127
1, 160814, Note_on_c, 9, 38, 0
1, 160815, Note_on_c, 9, 51, 127
1, 161039, Note_on_c, 9, 51, 0
1, 161120, Note_on_c, 9, 38, 127
1, 161159, Note_on_c, 9, 38, 0
1, 161280, Note_on_c, 9, 51, 127
1, 161280, Note_on_c, 9, 35, 116
1, 161519, Note_on_c, 9, 51, 0
1, 161600, Note_on_c, 9, 39, 107
1, 161639, Note_on_c, 9, 39, 0
1, 161759, Note_on_c, 9, 35, 0
1, 161760, Note_on_c, 9, 38, 127
1, 161774, Note_on_c, 9, 38, 0
1, 161775, Note_on_c, 9, 39, 107
1, 161775, Note_on_c, 9, 51, 127
1, 161999, Note_on_c, 9, 39, 0
1, 161999, Note_on_c, 9, 51, 0
1, 162240, Note_on_c, 9, 51, 127
1, 162240, Note_on_c, 9, 35, 116
1, 162719, Note_on_c, 9, 51, 0
1, 162719, Note_on_c, 9, 35, 0
1, 162720, Note_on_c, 9, 38, 127
1, 162734, Note_on_c, 9, 38, 0
1, 162735, Note_on_c, 9, 51, 127
1, 162959, Note_on_c, 9, 51, 0
1, 163040, Note_on_c, 9, 38, 127
1, 163079, Note_on_c, 9, 38, 0
1, 163200, Note_on_c, 9, 51, 127
1, 163200, Note_on_c, 9, 35, 116
1, 163439, Note_on_c, 9, 51, 0
1, 163520, Note_on_c, 9, 39, 107
1, 163559, Note_on_c, 9, 39, 0
1, 163679, Note_on_c, 9, 35, 0
1, 163680, Note_on_c, 9, 38, 127
1, 163694, Note_on_c, 9, 38, 0
1, 163695, Note_on_c, 9, 39, 107
1, 163695, Note_on_c, 9, 51, 127
1, 163919, Note_on_c, 9, 39, 0
1, 163919, Note_on_c, 9, 51, 0
1, 164160, Note_on_c, 9, 51, 127
1, 164160, Note_on_c, 9, 35, 116
1, 164639, Note_on_c, 9, 51, 0
1, 164639, Note_on_c, 9, 35, 0
1, 164640, Note_on_c, 9, 38, 127
1, 164654, Note_on_c, 9, 38, 0
1, 164655, Note_on_c, 9, 51, 127
1, 164879, Note_on_c, 9, 51, 0
1, 164960, Note_on_c, 9, 38, 127
1, 164999, Note_on_c, 9, 38, 0
1, 165120, Note_on_c, 9, 51, 127
1, 165120, Note_on_c, 9, 35, 116
1, 165359, Note_on_c, 9, 51, 0
1, 165440, Note_on_c, 9, 39, 107
1, 165479, Note_on_c, 9, 39, 0
1, 165599, Note_on_c, 9, 35, 0
1, 165600, Note_on_c, 9, 38, 127
1, 165614, Note_on_c, 9, 38, 0
1, 165615, Note_on_c, 9, 39, 107
1, 165615, Note_on_c, 9, 51, 127
1, 165839, Note_on_c, 9, 39, 0
1, 165839, Note_on_c, 9, 51, 0
1, 166080, Note_on_c, 9, 51, 127
1, 166080, Note_on_c, 9, 35, 116
1, 166559, Note_on_c, 9, 51, 0
1, 166559, Note_on_c, 9, 35, 0
1, 166560, Note_on_c, 9, 38, 127
1, 166574, Note_on_c, 9, 38, 0
1, 166575, Note_on_c, 9, 51, 127
1, 166799, Note_on_c, 9, 51, 0
1, 166880, Note_on_c, 9, 38, 127
1, 166919, Note_on_c, 9, 38, 0
1, 167040, Note_on_c, 9, 51, 127
1, 167040, Note_on_c, 9, 35, 116
1, 167279, Note_on_c, 9, 51, 0
1, 167360, Note_on_c, 9, 39, 107
1, 167399, Note_on_c, 9, 39, 0
1, 167519, Note_on_c, 9, 35, 0
1, 167520, Note_on_c, 9, 38, 127
1, 167534, Note_on_c, 9, 38, 0
1, 167535, Note_on_c, 9, 39, 107
1, 167535, Note_on_c, 9, 51, 127
1, 167759, Note_on_c, 9, 39, 0
1, 167759, Note_on_c, 9, 51, 0
1, 168000, Note_on_c, 9, 51, 127
1, 168000, Note_on_c, 9, 35, 116
1, 168479, Note_on_c, 9, 51, 0
1, 168479, Note_on_c, 9, 35, 0
1, 168480, Note_on_c, 9, 38, 127
1, 168494, Note_on_c, 9, 38, 0
1, 168495, Note_on_c, 9, 51, 127
1, 168719, Note_on_c, 9, 51, 0
1, 168800, Note_on_c, 9, 38, 127
1, 168839, Note_on_c, 9, 38, 0
1, 168960, Note_on_c, 9, 51, 127
1, 168960, Note_on_c, 9, 35, 116
1, 169199, Note_on_c, 9, 51, 0
1, 169280, Note_on_c, 9, 39, 107
1, 169319, Note_on_c, 9, 39, 0
1, 169439, Note_on_c, 9, 35, 0
1, 169440, Note_on_c, 9, 38, 127
1, 169454, Note_on_c, 9, 38, 0
1, 169455, Note_on_c, 9, 39, 107
1, 169455, Note_on_c, 9, 51, 127
1, 169679, Note_on_c, 9, 39, 0
1, 169679, Note_on_c, 9, 51, 0
1, 169920, Note_on_c, 9, 51, 127
1, 169920, Note_on_c, 9, 35, 116
1, 170399, Note_on_c, 9, 51, 0
1, 170399, Note_on_c, 9, 35, 0
1, 170400, Note_on_c, 9, 38, 127
1, 170414, Note_on_c, 9, 38, 0
1, 170415, Note_on_c, 9, 51, 127
1, 170639, Note_on_c, 9, 51, 0
1, 170720, Note_on_c, 9, 38, 127
1, 170759, Note_on_c, 9, 38, 0
1, 170880, Note_on_c, 9, 51, 127
1, 170880, Note_on_c, 9, 35, 116
1, 171119, Note_on_c, 9, 51, 0
1, 171200, Note_on_c, 9, 39, 107
1, 171239, Note_on_c, 9, 39, 0
1, 171359, Note_on_c, 9, 35, 0
1, 171360, Note_on_c, 9, 38, 127
1, 171374, Note_on_c, 9, 38, 0
1, 171375, Note_on_c, 9, 39, 107
1, 171375, Note_on_c, 9, 51, 127
1, 171599, Note_on_c, 9, 39, 0
1, 171599, Note_on_c, 9, 51, 0
1, 171840, Note_on_c, 9, 51, 127
1, 171840, Note_on_c, 9, 35, 116
1, 172319, Note_on_c, 9, 51, 0
1, 172319, Note_on_c, 9, 35, 0
1, 172320, Note_on_c, 9, 38, 127
1, 172334, Note_on_c, 9, 38, 0
1, 172335, Note_on_c, 9, 51, 127
1, 172559, Note_on_c, 9, 51, 0
1, 172640, Note_on_c, 9, 38, 127
1, 172679, Note_on_c, 9, 38, 0
1, 172800, Note_on_c, 9, 38, 127
1, 172800, Note_on_c, 9, 39, 107
1, 172800, Note_on_c, 9, 35, 116
1, 173279, Note_on_c, 9, 38, 0
1, 173279, Note_on_c, 9, 39, 0
1, 173279, Note_on_c, 9, 35, 0
1, 173280, End_track
0, 0, End_of_file
