0, 0, Header, 1, 1, 480
1, 0, Start_track
1, 0, Time_signature, 4, 2, 24, 8
1, 0, Key_signature, 0, "major"
1, 0, Tempo, 731707
1, 0, Control_c, 9, 121, 0
1, 0, Program_c, 9, 0
1, 0, Control_c, 9, 7, 90
1, 0, Control_c, 9, 10, 64
1, 0, Control_c, 9, 91, 0
1, 0, Control_c, 9, 93, 0
1, 0, MIDI_port, 0
1, 960, Note_on_c, 9, 81, 100
1, 1199, Note_on_c, 9, 81, 0
1, 1200, Note_on_c, 9, 81, 100
1, 1319, Note_on_c, 9, 81, 0
1, 1320, Note_on_c, 9, 50, 100
1, 1439, Note_on_c, 9, 50, 0
1, 1440, Note_on_c, 9, 47, 100
1, 1440, Note_on_c, 9, 81, 100
1, 1679, Note_on_c, 9, 47, 0
1, 1679, Note_on_c, 9, 81, 0
1, 1680, Note_on_c, 9, 45, 100
1, 1680, Note_on_c, 9, 81, 100
1, 1919, Note_on_c, 9, 45, 0
1, 1919, Note_on_c, 9, 81, 0
1, 1920, Note_on_c, 9, 33, 100
1, 1920, Note_on_c, 9, 44, 100
1, 2159, Note_on_c, 9, 44, 0
1, 2160, Note_on_c, 9, 44, 100
1, 2279, Note_on_c, 9, 44, 0
1, 2280, Note_on_c, 9, 44, 100
1, 2399, Note_on_c, 9, 33, 0
1, 2399, Note_on_c, 9, 44, 0
1, 2400, Note_on_c, 9, 40, 100
1, 2400, Note_on_c, 9, 44, 100
1, 2639, Note_on_c, 9, 40, 0
1, 2639, Note_on_c, 9, 44, 0
1, 2640, Note_on_c, 9, 33, 100
1, 2640, Note_on_c, 9, 44, 100
1, 2759, Note_on_c, 9, 44, 0
1, 2760, Note_on_c, 9, 44, 100
1, 2879, Note_on_c, 9, 33, 0
1, 2879, Note_on_c, 9, 44, 0
1, 2880, Note_on_c, 9, 33, 100
1, 2880, Note_on_c, 9, 44, 100
1, 3119, Note_on_c, 9, 44, 0
1, 3120, Note_on_c, 9, 44, 100
1, 3239, Note_on_c, 9, 44, 0
1, 3240, Note_on_c, 9, 44, 100
1, 3359, Note_on_c, 9, 33, 0
1, 3359, Note_on_c, 9, 44, 0
1, 3360, Note_on_c, 9, 40, 100
1, 3360, Note_on_c, 9, 81, 100
1, 3360, Note_on_c, 9, 44, 100
1, 3599, Note_on_c, 9, 44, 0
1, 3600, Note_on_c, 9, 44, 100
1, 3719, Note_on_c, 9, 44, 0
1, 3720, Note_on_c, 9, 44, 100
1, 3839, Note_on_c, 9, 40, 0
1, 3839, Note_on_c, 9, 81, 0
1, 3839, Note_on_c, 9, 44, 0
1, 3840, Note_on_c, 9, 33, 100
1, 3840, Note_on_c, 9, 44, 100
1, 4079, Note_on_c, 9, 44, 0
1, 4080, Note_on_c, 9, 44, 100
1, 4199, Note_on_c, 9, 44, 0
1, 4200, Note_on_c, 9, 44, 100
1, 4319, Note_on_c, 9, 33, 0
1, 4319, Note_on_c, 9, 44, 0
1, 4320, Note_on_c, 9, 40, 100
1, 4320, Note_on_c, 9, 44, 100
1, 4559, Note_on_c, 9, 40, 0
1, 4559, Note_on_c, 9, 44, 0
1, 4560, Note_on_c, 9, 33, 100
1, 4560, Note_on_c, 9, 44, 100
1, 4679, Note_on_c, 9, 44, 0
1, 4680, Note_on_c, 9, 44, 100
1, 4799, Note_on_c, 9, 33, 0
1, 4799, Note_on_c, 9, 44, 0
1, 4800, Note_on_c, 9, 33, 100
1, 4800, Note_on_c, 9, 44, 100
1, 5039, Note_on_c, 9, 44, 0
1, 5040, Note_on_c, 9, 44, 100
1, 5159, Note_on_c, 9, 44, 0
1, 5160, Note_on_c, 9, 44, 100
1, 5279, Note_on_c, 9, 33, 0
1, 5279, Note_on_c, 9, 44, 0
1, 5280, Note_on_c, 9, 40, 100
1, 5280, Note_on_c, 9, 81, 100
1, 5280, Note_on_c, 9, 44, 100
1, 5519, Note_on_c, 9, 44, 0
1, 5520, Note_on_c, 9, 44, 100
1, 5639, Note_on_c, 9, 44, 0
1, 5640, Note_on_c, 9, 44, 100
1, 5759, Note_on_c, 9, 40, 0
1, 5759, Note_on_c, 9, 81, 0
1, 5759, Note_on_c, 9, 44, 0
1, 5760, Note_on_c, 9, 33, 100
1, 5760, Note_on_c, 9, 44, 100
1, 5999, Note_on_c, 9, 44, 0
1, 6000, Note_on_c, 9, 44, 100
1, 6119, Note_on_c, 9, 44, 0
1, 6120, Note_on_c, 9, 44, 100
1, 6239, Note_on_c, 9, 33, 0
1, 6239, Note_on_c, 9, 44, 0
1, 6240, Note_on_c, 9, 40, 100
1, 6240, Note_on_c, 9, 44, 100
1, 6479, Note_on_c, 9, 40, 0
1, 6479, Note_on_c, 9, 44, 0
1, 6480, Note_on_c, 9, 33, 100
1, 6480, Note_on_c, 9, 44, 100
1, 6599, Note_on_c, 9, 44, 0
1, 6600, Note_on_c, 9, 44, 100
1, 6719, Note_on_c, 9, 33, 0
1, 6719, Note_on_c, 9, 44, 0
1, 6720, Note_on_c, 9, 33, 100
1, 6720, Note_on_c, 9, 44, 100
1, 6959, Note_on_c, 9, 44, 0
1, 6960, Note_on_c, 9, 44, 100
1, 7079, Note_on_c, 9, 44, 0
1, 7080, Note_on_c, 9, 44, 100
1, 7199, Note_on_c, 9, 33, 0
1, 7199, Note_on_c, 9, 44, 0
1, 7200, Note_on_c, 9, 40, 100
1, 7200, Note_on_c, 9, 81, 100
1, 7200, Note_on_c, 9, 44, 100
1, 7439, Note_on_c, 9, 44, 0
1, 7440, Note_on_c, 9, 44, 100
1, 7559, Note_on_c, 9, 44, 0
1, 7560, Note_on_c, 9, 44, 100
1, 7679, Note_on_c, 9, 40, 0
1, 7679, Note_on_c, 9, 81, 0
1, 7679, Note_on_c, 9, 44, 0
1, 7680, Note_on_c, 9, 33, 100
1, 7680, Note_on_c, 9, 44, 100
1, 7919, Note_on_c, 9, 44, 0
1, 7920, Note_on_c, 9, 44, 100
1, 8039, Note_on_c, 9, 44, 0
1, 8040, Note_on_c, 9, 44, 100
1, 8159, Note_on_c, 9, 33, 0
1, 8159, Note_on_c, 9, 44, 0
1, 8160, Note_on_c, 9, 40, 100
1, 8160, Note_on_c, 9, 44, 100
1, 8399, Note_on_c, 9, 40, 0
1, 8399, Note_on_c, 9, 44, 0
1, 8400, Note_on_c, 9, 33, 100
1, 8400, Note_on_c, 9, 44, 100
1, 8519, Note_on_c, 9, 44, 0
1, 8520, Note_on_c, 9, 44, 100
1, 8639, Note_on_c, 9, 33, 0
1, 8639, Note_on_c, 9, 44, 0
1, 8640, Note_on_c, 9, 33, 100
1, 8640, Note_on_c, 9, 44, 100
1, 8879, Note_on_c, 9, 33, 0
1, 8879, Note_on_c, 9, 44, 0
1, 8880, Note_on_c, 9, 50, 100
1, 8880, Note_on_c, 9, 44, 100
1, 8999, Note_on_c, 9, 44, 0
1, 9000, Note_on_c, 9, 44, 100
1, 9119, Note_on_c, 9, 50, 0
1, 9119, Note_on_c, 9, 44, 0
1, 9120, Note_on_c, 9, 40, 100
1, 9120, Note_on_c, 9, 47, 100
1, 9120, Note_on_c, 9, 81, 100
1, 9120, Note_on_c, 9, 44, 100
1, 9359, Note_on_c, 9, 40, 0
1, 9359, Note_on_c, 9, 47, 0
1, 9359, Note_on_c, 9, 81, 0
1, 9359, Note_on_c, 9, 44, 0
1, 9360, Note_on_c, 9, 45, 100
1, 9360, Note_on_c, 9, 44, 100
1, 9479, Note_on_c, 9, 44, 0
1, 9480, Note_on_c, 9, 44, 100
1, 9599, Note_on_c, 9, 45, 0
1, 9599, Note_on_c, 9, 44, 0
1, 9600, Note_on_c, 9, 33, 100
1, 9600, Note_on_c, 9, 44, 100
1, 9839, Note_on_c, 9, 44, 0
1, 9840, Note_on_c, 9, 44, 100
1, 9959, Note_on_c, 9, 44, 0
1, 9960, Note_on_c, 9, 44, 100
1, 10079, Note_on_c, 9, 33, 0
1, 10079, Note_on_c, 9, 44, 0
1, 10080, Note_on_c, 9, 40, 100
1, 10080, Note_on_c, 9, 44, 100
1, 10319, Note_on_c, 9, 40, 0
1, 10319, Note_on_c, 9, 44, 0
1, 10320, Note_on_c, 9, 33, 100
1, 10320, Note_on_c, 9, 44, 100
1, 10439, Note_on_c, 9, 44, 0
1, 10440, Note_on_c, 9, 44, 100
1, 10559, Note_on_c, 9, 33, 0
1, 10559, Note_on_c, 9, 44, 0
1, 10560, Note_on_c, 9, 33, 100
1, 10560, Note_on_c, 9, 44, 100
1, 10799, Note_on_c, 9, 44, 0
1, 10800, Note_on_c, 9, 44, 100
1, 10919, Note_on_c, 9, 44, 0
1, 10920, Note_on_c, 9, 44, 100
1, 11039, Note_on_c, 9, 33, 0
1, 11039, Note_on_c, 9, 44, 0
1, 11040, Note_on_c, 9, 40, 100
1, 11040, Note_on_c, 9, 81, 100
1, 11040, Note_on_c, 9, 44, 100
1, 11279, Note_on_c, 9, 44, 0
1, 11280, Note_on_c, 9, 44, 100
1, 11399, Note_on_c, 9, 44, 0
1, 11400, Note_on_c, 9, 44, 100
1, 11519, Note_on_c, 9, 40, 0
1, 11519, Note_on_c, 9, 81, 0
1, 11519, Note_on_c, 9, 44, 0
1, 11520, Note_on_c, 9, 33, 100
1, 11520, Note_on_c, 9, 44, 100
1, 11759, Note_on_c, 9, 44, 0
1, 11760, Note_on_c, 9, 44, 100
1, 11879, Note_on_c, 9, 44, 0
1, 11880, Note_on_c, 9, 44, 100
1, 11999, Note_on_c, 9, 33, 0
1, 11999, Note_on_c, 9, 44, 0
1, 12000, Note_on_c, 9, 40, 100
1, 12000, Note_on_c, 9, 44, 100
1, 12239, Note_on_c, 9, 40, 0
1, 12239, Note_on_c, 9, 44, 0
1, 12240, Note_on_c, 9, 33, 100
1, 12240, Note_on_c, 9, 44, 100
1, 12359, Note_on_c, 9, 44, 0
1, 12360, Note_on_c, 9, 44, 100
1, 12479, Note_on_c, 9, 33, 0
1, 12479, Note_on_c, 9, 44, 0
1, 12480, Note_on_c, 9, 33, 100
1, 12480, Note_on_c, 9, 44, 100
1, 12719, Note_on_c, 9, 44, 0
1, 12720, Note_on_c, 9, 44, 100
1, 12839, Note_on_c, 9, 44, 0
1, 12840, Note_on_c, 9, 44, 100
1, 12959, Note_on_c, 9, 33, 0
1, 12959, Note_on_c, 9, 44, 0
1, 12960, Note_on_c, 9, 40, 100
1, 12960, Note_on_c, 9, 81, 100
1, 12960, Note_on_c, 9, 44, 100
1, 13199, Note_on_c, 9, 44, 0
1, 13200, Note_on_c, 9, 44, 100
1, 13319, Note_on_c, 9, 44, 0
1, 13320, Note_on_c, 9, 44, 100
1, 13439, Note_on_c, 9, 40, 0
1, 13439, Note_on_c, 9, 81, 0
1, 13439, Note_on_c, 9, 44, 0
1, 13440, Note_on_c, 9, 33, 100
1, 13440, Note_on_c, 9, 44, 100
1, 13679, Note_on_c, 9, 44, 0
1, 13680, Note_on_c, 9, 44, 100
1, 13799, Note_on_c, 9, 44, 0
1, 13800, Note_on_c, 9, 44, 100
1, 13919, Note_on_c, 9, 33, 0
1, 13919, Note_on_c, 9, 44, 0
1, 13920, Note_on_c, 9, 40, 100
1, 13920, Note_on_c, 9, 44, 100
1, 14159, Note_on_c, 9, 40, 0
1, 14159, Note_on_c, 9, 44, 0
1, 14160, Note_on_c, 9, 33, 100
1, 14160, Note_on_c, 9, 44, 100
1, 14279, Note_on_c, 9, 44, 0
1, 14280, Note_on_c, 9, 44, 100
1, 14399, Note_on_c, 9, 33, 0
1, 14399, Note_on_c, 9, 44, 0
1, 14400, Note_on_c, 9, 33, 100
1, 14400, Note_on_c, 9, 44, 100
1, 14639, Note_on_c, 9, 44, 0
1, 14640, Note_on_c, 9, 44, 100
1, 14759, Note_on_c, 9, 44, 0
1, 14760, Note_on_c, 9, 44, 100
1, 14879, Note_on_c, 9, 33, 0
1, 14879, Note_on_c, 9, 44, 0
1, 14880, Note_on_c, 9, 40, 100
1, 14880, Note_on_c, 9, 81, 100
1, 14880, Note_on_c, 9, 44, 100
1, 15119, Note_on_c, 9, 44, 0
1, 15120, Note_on_c, 9, 44, 100
1, 15239, Note_on_c, 9, 44, 0
1, 15240, Note_on_c, 9, 44, 100
1, 15359, Note_on_c, 9, 40, 0
1, 15359, Note_on_c, 9, 81, 0
1, 15359, Note_on_c, 9, 44, 0
1, 15360, Note_on_c, 9, 33, 100
1, 15360, Note_on_c, 9, 44, 100
1, 15599, Note_on_c, 9, 44, 0
1, 15600, Note_on_c, 9, 44, 100
1, 15719, Note_on_c, 9, 44, 0
1, 15720, Note_on_c, 9, 44, 100
1, 15839, Note_on_c, 9, 33, 0
1, 15839, Note_on_c, 9, 44, 0
1, 15840, Note_on_c, 9, 40, 100
1, 15840, Note_on_c, 9, 44, 100
1, 16079, Note_on_c, 9, 40, 0
1, 16079, Note_on_c, 9, 44, 0
1, 16080, Note_on_c, 9, 33, 100
1, 16080, Note_on_c, 9, 44, 100
1, 16199, Note_on_c, 9, 44, 0
1, 16200, Note_on_c, 9, 44, 100
1, 16319, Note_on_c, 9, 33, 0
1, 16319, Note_on_c, 9, 44, 0
1, 16320, Note_on_c, 9, 33, 100
1, 16320, Note_on_c, 9, 44, 100
1, 16559, Note_on_c, 9, 33, 0
1, 16559, Note_on_c, 9, 44, 0
1, 16560, Note_on_c, 9, 50, 100
1, 16560, Note_on_c, 9, 44, 100
1, 16679, Note_on_c, 9, 44, 0
1, 16680, Note_on_c, 9, 44, 100
1, 16799, Note_on_c, 9, 50, 0
1, 16799, Note_on_c, 9, 44, 0
1, 16800, Note_on_c, 9, 40, 100
1, 16800, Note_on_c, 9, 47, 100
1, 16800, Note_on_c, 9, 16, 100
1, 16800, Note_on_c, 9, 81, 100
1, 16800, Note_on_c, 9, 44, 100
1, 17039, Note_on_c, 9, 40, 0
1, 17039, Note_on_c, 9, 47, 0
1, 17039, Note_on_c, 9, 16, 0
1, 17039, Note_on_c, 9, 81, 0
1, 17039, Note_on_c, 9, 44, 0
1, 17040, Note_on_c, 9, 45, 100
1, 17040, Note_on_c, 9, 44, 100
1, 17159, Note_on_c, 9, 44, 0
1, 17160, Note_on_c, 9, 44, 100
1, 17279, Note_on_c, 9, 45, 0
1, 17279, Note_on_c, 9, 44, 0
1, 17280, Note_on_c, 9, 33, 100
1, 17280, Note_on_c, 9, 44, 100
1, 17519, Note_on_c, 9, 44, 0
1, 17520, Note_on_c, 9, 44, 100
1, 17639, Note_on_c, 9, 44, 0
1, 17640, Note_on_c, 9, 44, 100
1, 17759, Note_on_c, 9, 33, 0
1, 17759, Note_on_c, 9, 44, 0
1, 17760, Note_on_c, 9, 40, 100
1, 17760, Note_on_c, 9, 44, 100
1, 17999, Note_on_c, 9, 40, 0
1, 17999, Note_on_c, 9, 44, 0
1, 18000, Note_on_c, 9, 33, 100
1, 18000, Note_on_c, 9, 44, 100
1, 18119, Note_on_c, 9, 44, 0
1, 18120, Note_on_c, 9, 44, 100
1, 18239, Note_on_c, 9, 33, 0
1, 18239, Note_on_c, 9, 44, 0
1, 18240, Note_on_c, 9, 33, 100
1, 18240, Note_on_c, 9, 44, 100
1, 18479, Note_on_c, 9, 44, 0
1, 18480, Note_on_c, 9, 44, 100
1, 18599, Note_on_c, 9, 44, 0
1, 18600, Note_on_c, 9, 44, 100
1, 18719, Note_on_c, 9, 33, 0
1, 18719, Note_on_c, 9, 44, 0
1, 18720, Note_on_c, 9, 40, 100
1, 18720, Note_on_c, 9, 81, 100
1, 18720, Note_on_c, 9, 44, 100
1, 18959, Note_on_c, 9, 44, 0
1, 18960, Note_on_c, 9, 44, 100
1, 19079, Note_on_c, 9, 44, 0
1, 19080, Note_on_c, 9, 44, 100
1, 19199, Note_on_c, 9, 40, 0
1, 19199, Note_on_c, 9, 81, 0
1, 19199, Note_on_c, 9, 44, 0
1, 19200, Note_on_c, 9, 33, 100
1, 19200, Note_on_c, 9, 44, 100
1, 19439, Note_on_c, 9, 44, 0
1, 19440, Note_on_c, 9, 44, 100
1, 19559, Note_on_c, 9, 44, 0
1, 19560, Note_on_c, 9, 44, 100
1, 19679, Note_on_c, 9, 33, 0
1, 19679, Note_on_c, 9, 44, 0
1, 19680, Note_on_c, 9, 40, 100
1, 19680, Note_on_c, 9, 44, 100
1, 19919, Note_on_c, 9, 40, 0
1, 19919, Note_on_c, 9, 44, 0
1, 19920, Note_on_c, 9, 33, 100
1, 19920, Note_on_c, 9, 44, 100
1, 20039, Note_on_c, 9, 44, 0
1, 20040, Note_on_c, 9, 44, 100
1, 20159, Note_on_c, 9, 33, 0
1, 20159, Note_on_c, 9, 44, 0
1, 20160, Note_on_c, 9, 33, 100
1, 20160, Note_on_c, 9, 44, 100
1, 20399, Note_on_c, 9, 44, 0
1, 20400, Note_on_c, 9, 44, 100
1, 20519, Note_on_c, 9, 44, 0
1, 20520, Note_on_c, 9, 44, 100
1, 20639, Note_on_c, 9, 33, 0
1, 20639, Note_on_c, 9, 44, 0
1, 20640, Note_on_c, 9, 40, 100
1, 20640, Note_on_c, 9, 81, 100
1, 20640, Note_on_c, 9, 44, 100
1, 20879, Note_on_c, 9, 44, 0
1, 20880, Note_on_c, 9, 44, 100
1, 20999, Note_on_c, 9, 44, 0
1, 21000, Note_on_c, 9, 44, 100
1, 21119, Note_on_c, 9, 40, 0
1, 21119, Note_on_c, 9, 81, 0
1, 21119, Note_on_c, 9, 44, 0
1, 21120, Note_on_c, 9, 33, 100
1, 21120, Note_on_c, 9, 44, 100
1, 21359, Note_on_c, 9, 44, 0
1, 21360, Note_on_c, 9, 44, 100
1, 21479, Note_on_c, 9, 44, 0
1, 21480, Note_on_c, 9, 44, 100
1, 21599, Note_on_c, 9, 33, 0
1, 21599, Note_on_c, 9, 44, 0
1, 21600, Note_on_c, 9, 40, 100
1, 21600, Note_on_c, 9, 44, 100
1, 21839, Note_on_c, 9, 40, 0
1, 21839, Note_on_c, 9, 44, 0
1, 21840, Note_on_c, 9, 33, 100
1, 21840, Note_on_c, 9, 44, 100
1, 21959, Note_on_c, 9, 44, 0
1, 21960, Note_on_c, 9, 44, 100
1, 22079, Note_on_c, 9, 33, 0
1, 22079, Note_on_c, 9, 44, 0
1, 22080, Note_on_c, 9, 33, 100
1, 22080, Note_on_c, 9, 44, 100
1, 22319, Note_on_c, 9, 44, 0
1, 22320, Note_on_c, 9, 44, 100
1, 22439, Note_on_c, 9, 44, 0
1, 22440, Note_on_c, 9, 44, 100
1, 22559, Note_on_c, 9, 33, 0
1, 22559, Note_on_c, 9, 44, 0
1, 22560, Note_on_c, 9, 40, 100
1, 22560, Note_on_c, 9, 81, 100
1, 22560, Note_on_c, 9, 44, 100
1, 22799, Note_on_c, 9, 44, 0
1, 22800, Note_on_c, 9, 44, 100
1, 22919, Note_on_c, 9, 44, 0
1, 22920, Note_on_c, 9, 44, 100
1, 23039, Note_on_c, 9, 40, 0
1, 23039, Note_on_c, 9, 81, 0
1, 23039, Note_on_c, 9, 44, 0
1, 23040, Note_on_c, 9, 33, 100
1, 23040, Note_on_c, 9, 44, 100
1, 23279, Note_on_c, 9, 44, 0
1, 23280, Note_on_c, 9, 44, 100
1, 23399, Note_on_c, 9, 44, 0
1, 23400, Note_on_c, 9, 44, 100
1, 23519, Note_on_c, 9, 33, 0
1, 23519, Note_on_c, 9, 44, 0
1, 23520, Note_on_c, 9, 40, 100
1, 23520, Note_on_c, 9, 44, 100
1, 23759, Note_on_c, 9, 40, 0
1, 23759, Note_on_c, 9, 44, 0
1, 23760, Note_on_c, 9, 33, 100
1, 23760, Note_on_c, 9, 44, 100
1, 23879, Note_on_c, 9, 44, 0
1, 23880, Note_on_c, 9, 44, 100
1, 23999, Note_on_c, 9, 33, 0
1, 23999, Note_on_c, 9, 44, 0
1, 24000, Note_on_c, 9, 33, 100
1, 24000, Note_on_c, 9, 44, 100
1, 24239, Note_on_c, 9, 33, 0
1, 24239, Note_on_c, 9, 44, 0
1, 24240, Note_on_c, 9, 82, 100
1, 24240, Note_on_c, 9, 44, 100
1, 24359, Note_on_c, 9, 44, 0
1, 24360, Note_on_c, 9, 44, 100
1, 24479, Note_on_c, 9, 82, 0
1, 24479, Note_on_c, 9, 44, 0
1, 24480, Note_on_c, 9, 40, 100
1, 24480, Note_on_c, 9, 70, 100
1, 24480, Note_on_c, 9, 81, 100
1, 24480, Note_on_c, 9, 44, 100
1, 24719, Note_on_c, 9, 40, 0
1, 24719, Note_on_c, 9, 70, 0
1, 24719, Note_on_c, 9, 81, 0
1, 24719, Note_on_c, 9, 44, 0
1, 24720, Note_on_c, 9, 32, 100
1, 24720, Note_on_c, 9, 44, 100
1, 24839, Note_on_c, 9, 44, 0
1, 24840, Note_on_c, 9, 44, 100
1, 24959, Note_on_c, 9, 32, 0
1, 24959, Note_on_c, 9, 44, 0
1, 24960, Note_on_c, 9, 33, 100
1, 24960, Note_on_c, 9, 44, 100
1, 25199, Note_on_c, 9, 44, 0
1, 25200, Note_on_c, 9, 44, 100
1, 25319, Note_on_c, 9, 44, 0
1, 25320, Note_on_c, 9, 44, 100
1, 25439, Note_on_c, 9, 33, 0
1, 25439, Note_on_c, 9, 44, 0
1, 25440, Note_on_c, 9, 40, 100
1, 25440, Note_on_c, 9, 44, 100
1, 25679, Note_on_c, 9, 40, 0
1, 25679, Note_on_c, 9, 44, 0
1, 25680, Note_on_c, 9, 33, 100
1, 25680, Note_on_c, 9, 44, 100
1, 25799, Note_on_c, 9, 44, 0
1, 25800, Note_on_c, 9, 44, 100
1, 25919, Note_on_c, 9, 33, 0
1, 25919, Note_on_c, 9, 44, 0
1, 25920, Note_on_c, 9, 33, 100
1, 25920, Note_on_c, 9, 44, 100
1, 26159, Note_on_c, 9, 44, 0
1, 26160, Note_on_c, 9, 44, 100
1, 26279, Note_on_c, 9, 44, 0
1, 26280, Note_on_c, 9, 44, 100
1, 26399, Note_on_c, 9, 33, 0
1, 26399, Note_on_c, 9, 44, 0
1, 26400, Note_on_c, 9, 40, 100
1, 26400, Note_on_c, 9, 81, 100
1, 26400, Note_on_c, 9, 44, 100
1, 26639, Note_on_c, 9, 44, 0
1, 26640, Note_on_c, 9, 44, 100
1, 26759, Note_on_c, 9, 44, 0
1, 26760, Note_on_c, 9, 44, 100
1, 26879, Note_on_c, 9, 40, 0
1, 26879, Note_on_c, 9, 81, 0
1, 26879, Note_on_c, 9, 44, 0
1, 26880, Note_on_c, 9, 33, 100
1, 26880, Note_on_c, 9, 44, 100
1, 27119, Note_on_c, 9, 44, 0
1, 27120, Note_on_c, 9, 44, 100
1, 27239, Note_on_c, 9, 44, 0
1, 27240, Note_on_c, 9, 44, 100
1, 27359, Note_on_c, 9, 33, 0
1, 27359, Note_on_c, 9, 44, 0
1, 27360, Note_on_c, 9, 40, 100
1, 27360, Note_on_c, 9, 44, 100
1, 27599, Note_on_c, 9, 40, 0
1, 27599, Note_on_c, 9, 44, 0
1, 27600, Note_on_c, 9, 33, 100
1, 27600, Note_on_c, 9, 44, 100
1, 27719, Note_on_c, 9, 44, 0
1, 27720, Note_on_c, 9, 44, 100
1, 27839, Note_on_c, 9, 33, 0
1, 27839, Note_on_c, 9, 44, 0
1, 27840, Note_on_c, 9, 33, 100
1, 27840, Note_on_c, 9, 44, 100
1, 28079, Note_on_c, 9, 44, 0
1, 28080, Note_on_c, 9, 44, 100
1, 28199, Note_on_c, 9, 44, 0
1, 28200, Note_on_c, 9, 44, 100
1, 28319, Note_on_c, 9, 33, 0
1, 28319, Note_on_c, 9, 44, 0
1, 28320, Note_on_c, 9, 40, 100
1, 28320, Note_on_c, 9, 81, 100
1, 28320, Note_on_c, 9, 44, 100
1, 28559, Note_on_c, 9, 44, 0
1, 28560, Note_on_c, 9, 44, 100
1, 28679, Note_on_c, 9, 44, 0
1, 28680, Note_on_c, 9, 44, 100
1, 28799, Note_on_c, 9, 40, 0
1, 28799, Note_on_c, 9, 81, 0
1, 28799, Note_on_c, 9, 44, 0
1, 28800, Note_on_c, 9, 33, 100
1, 28800, Note_on_c, 9, 44, 100
1, 29039, Note_on_c, 9, 44, 0
1, 29040, Note_on_c, 9, 44, 100
1, 29159, Note_on_c, 9, 44, 0
1, 29160, Note_on_c, 9, 44, 100
1, 29279, Note_on_c, 9, 33, 0
1, 29279, Note_on_c, 9, 44, 0
1, 29280, Note_on_c, 9, 40, 100
1, 29280, Note_on_c, 9, 44, 100
1, 29519, Note_on_c, 9, 40, 0
1, 29519, Note_on_c, 9, 44, 0
1, 29520, Note_on_c, 9, 33, 100
1, 29520, Note_on_c, 9, 44, 100
1, 29639, Note_on_c, 9, 44, 0
1, 29640, Note_on_c, 9, 44, 100
1, 29759, Note_on_c, 9, 33, 0
1, 29759, Note_on_c, 9, 44, 0
1, 29760, Note_on_c, 9, 33, 100
1, 29760, Note_on_c, 9, 44, 100
1, 29999, Note_on_c, 9, 44, 0
1, 30000, Note_on_c, 9, 44, 100
1, 30119, Note_on_c, 9, 44, 0
1, 30120, Note_on_c, 9, 44, 100
1, 30239, Note_on_c, 9, 33, 0
1, 30239, Note_on_c, 9, 44, 0
1, 30240, Note_on_c, 9, 40, 100
1, 30240, Note_on_c, 9, 81, 100
1, 30240, Note_on_c, 9, 44, 100
1, 30479, Note_on_c, 9, 44, 0
1, 30480, Note_on_c, 9, 44, 100
1, 30599, Note_on_c, 9, 44, 0
1, 30600, Note_on_c, 9, 44, 100
1, 30719, Note_on_c, 9, 40, 0
1, 30719, Note_on_c, 9, 81, 0
1, 30719, Note_on_c, 9, 44, 0
1, 30720, Note_on_c, 9, 33, 100
1, 30720, Note_on_c, 9, 44, 100
1, 30959, Note_on_c, 9, 44, 0
1, 30960, Note_on_c, 9, 44, 100
1, 31079, Note_on_c, 9, 44, 0
1, 31080, Note_on_c, 9, 44, 100
1, 31199, Note_on_c, 9, 33, 0
1, 31199, Note_on_c, 9, 44, 0
1, 31200, Note_on_c, 9, 40, 100
1, 31200, Note_on_c, 9, 44, 100
1, 31439, Note_on_c, 9, 40, 0
1, 31439, Note_on_c, 9, 44, 0
1, 31440, Note_on_c, 9, 33, 100
1, 31440, Note_on_c, 9, 44, 100
1, 31559, Note_on_c, 9, 44, 0
1, 31560, Note_on_c, 9, 44, 100
1, 31679, Note_on_c, 9, 33, 0
1, 31679, Note_on_c, 9, 44, 0
1, 31680, Note_on_c, 9, 33, 100
1, 31680, Note_on_c, 9, 44, 100
1, 31919, Note_on_c, 9, 33, 0
1, 31919, Note_on_c, 9, 44, 0
1, 31920, Note_on_c, 9, 50, 100
1, 31920, Note_on_c, 9, 44, 100
1, 32039, Note_on_c, 9, 50, 0
1, 32039, Note_on_c, 9, 44, 0
1, 32040, Note_on_c, 9, 50, 100
1, 32040, Note_on_c, 9, 76, 100
1, 32040, Note_on_c, 9, 44, 100
1, 32159, Note_on_c, 9, 50, 0
1, 32159, Note_on_c, 9, 76, 0
1, 32159, Note_on_c, 9, 44, 0
1, 32160, Note_on_c, 9, 40, 100
1, 32160, Note_on_c, 9, 47, 100
1, 32160, Note_on_c, 9, 25, 100
1, 32160, Note_on_c, 9, 81, 100
1, 32160, Note_on_c, 9, 44, 100
1, 32279, Note_on_c, 9, 40, 0
1, 32279, Note_on_c, 9, 47, 0
1, 32279, Note_on_c, 9, 25, 0
1, 32279, Note_on_c, 9, 81, 0
1, 32280, Note_on_c, 9, 30, 100
1, 32399, Note_on_c, 9, 44, 0
1, 32399, Note_on_c, 9, 30, 0
1, 32400, Note_on_c, 9, 45, 100
1, 32400, Note_on_c, 9, 28, 100
1, 32400, Note_on_c, 9, 44, 100
1, 32519, Note_on_c, 9, 45, 0
1, 32519, Note_on_c, 9, 28, 0
1, 32519, Note_on_c, 9, 44, 0
1, 32520, Note_on_c, 9, 16, 100
1, 32520, Note_on_c, 9, 23, 100
1, 32520, Note_on_c, 9, 44, 100
1, 32639, Note_on_c, 9, 16, 0
1, 32639, Note_on_c, 9, 23, 0
1, 32639, Note_on_c, 9, 44, 0
1, 32640, Note_on_c, 9, 59, 100
1, 32640, Note_on_c, 9, 33, 100
1, 32640, Note_on_c, 9, 44, 100
1, 32879, Note_on_c, 9, 44, 0
1, 32880, Note_on_c, 9, 44, 100
1, 32999, Note_on_c, 9, 44, 0
1, 33000, Note_on_c, 9, 44, 100
1, 33119, Note_on_c, 9, 59, 0
1, 33119, Note_on_c, 9, 33, 0
1, 33119, Note_on_c, 9, 44, 0
1, 33120, Note_on_c, 9, 40, 100
1, 33120, Note_on_c, 9, 44, 100
1, 33359, Note_on_c, 9, 40, 0
1, 33359, Note_on_c, 9, 44, 0
1, 33360, Note_on_c, 9, 33, 100
1, 33360, Note_on_c, 9, 44, 100
1, 33479, Note_on_c, 9, 44, 0
1, 33480, Note_on_c, 9, 44, 100
1, 33599, Note_on_c, 9, 33, 0
1, 33599, Note_on_c, 9, 44, 0
1, 33600, Note_on_c, 9, 33, 100
1, 33600, Note_on_c, 9, 44, 100
1, 33839, Note_on_c, 9, 44, 0
1, 33840, Note_on_c, 9, 44, 100
1, 33959, Note_on_c, 9, 44, 0
1, 33960, Note_on_c, 9, 44, 100
1, 34079, Note_on_c, 9, 33, 0
1, 34079, Note_on_c, 9, 44, 0
1, 34080, Note_on_c, 9, 40, 100
1, 34080, Note_on_c, 9, 81, 100
1, 34080, Note_on_c, 9, 44, 100
1, 34319, Note_on_c, 9, 44, 0
1, 34320, Note_on_c, 9, 44, 100
1, 34439, Note_on_c, 9, 44, 0
1, 34440, Note_on_c, 9, 44, 100
1, 34559, Note_on_c, 9, 40, 0
1, 34559, Note_on_c, 9, 81, 0
1, 34559, Note_on_c, 9, 44, 0
1, 34560, Note_on_c, 9, 33, 100
1, 34560, Note_on_c, 9, 44, 100
1, 34799, Note_on_c, 9, 44, 0
1, 34800, Note_on_c, 9, 44, 100
1, 34919, Note_on_c, 9, 44, 0
1, 34920, Note_on_c, 9, 44, 100
1, 35039, Note_on_c, 9, 33, 0
1, 35039, Note_on_c, 9, 44, 0
1, 35040, Note_on_c, 9, 40, 100
1, 35040, Note_on_c, 9, 44, 100
1, 35279, Note_on_c, 9, 40, 0
1, 35279, Note_on_c, 9, 44, 0
1, 35280, Note_on_c, 9, 33, 100
1, 35280, Note_on_c, 9, 44, 100
1, 35399, Note_on_c, 9, 44, 0
1, 35400, Note_on_c, 9, 44, 100
1, 35519, Note_on_c, 9, 33, 0
1, 35519, Note_on_c, 9, 44, 0
1, 35520, Note_on_c, 9, 33, 100
1, 35520, Note_on_c, 9, 44, 100
1, 35759, Note_on_c, 9, 44, 0
1, 35760, Note_on_c, 9, 44, 100
1, 35879, Note_on_c, 9, 44, 0
1, 35880, Note_on_c, 9, 44, 100
1, 35999, Note_on_c, 9, 33, 0
1, 35999, Note_on_c, 9, 44, 0
1, 36000, Note_on_c, 9, 40, 100
1, 36000, Note_on_c, 9, 81, 100
1, 36000, Note_on_c, 9, 44, 100
1, 36239, Note_on_c, 9, 44, 0
1, 36240, Note_on_c, 9, 44, 100
1, 36359, Note_on_c, 9, 44, 0
1, 36360, Note_on_c, 9, 44, 100
1, 36479, Note_on_c, 9, 40, 0
1, 36479, Note_on_c, 9, 81, 0
1, 36479, Note_on_c, 9, 44, 0
1, 36480, Note_on_c, 9, 33, 100
1, 36480, Note_on_c, 9, 44, 100
1, 36719, Note_on_c, 9, 44, 0
1, 36720, Note_on_c, 9, 44, 100
1, 36839, Note_on_c, 9, 44, 0
1, 36840, Note_on_c, 9, 44, 100
1, 36959, Note_on_c, 9, 33, 0
1, 36959, Note_on_c, 9, 44, 0
1, 36960, Note_on_c, 9, 40, 100
1, 36960, Note_on_c, 9, 44, 100
1, 37199, Note_on_c, 9, 40, 0
1, 37199, Note_on_c, 9, 44, 0
1, 37200, Note_on_c, 9, 33, 100
1, 37200, Note_on_c, 9, 44, 100
1, 37319, Note_on_c, 9, 44, 0
1, 37320, Note_on_c, 9, 44, 100
1, 37439, Note_on_c, 9, 33, 0
1, 37439, Note_on_c, 9, 44, 0
1, 37440, Note_on_c, 9, 33, 100
1, 37440, Note_on_c, 9, 44, 100
1, 37679, Note_on_c, 9, 44, 0
1, 37680, Note_on_c, 9, 44, 100
1, 37799, Note_on_c, 9, 44, 0
1, 37800, Note_on_c, 9, 44, 100
1, 37919, Note_on_c, 9, 33, 0
1, 37919, Note_on_c, 9, 44, 0
1, 37920, Note_on_c, 9, 40, 100
1, 37920, Note_on_c, 9, 81, 100
1, 37920, Note_on_c, 9, 44, 100
1, 38159, Note_on_c, 9, 44, 0
1, 38160, Note_on_c, 9, 44, 100
1, 38279, Note_on_c, 9, 44, 0
1, 38280, Note_on_c, 9, 44, 100
1, 38399, Note_on_c, 9, 40, 0
1, 38399, Note_on_c, 9, 81, 0
1, 38399, Note_on_c, 9, 44, 0
1, 38400, Note_on_c, 9, 33, 100
1, 38400, Note_on_c, 9, 44, 100
1, 38639, Note_on_c, 9, 44, 0
1, 38640, Note_on_c, 9, 44, 100
1, 38759, Note_on_c, 9, 44, 0
1, 38760, Note_on_c, 9, 44, 100
1, 38879, Note_on_c, 9, 33, 0
1, 38879, Note_on_c, 9, 44, 0
1, 38880, Note_on_c, 9, 40, 100
1, 38880, Note_on_c, 9, 44, 100
1, 39119, Note_on_c, 9, 40, 0
1, 39119, Note_on_c, 9, 44, 0
1, 39120, Note_on_c, 9, 33, 100
1, 39120, Note_on_c, 9, 44, 100
1, 39239, Note_on_c, 9, 44, 0
1, 39240, Note_on_c, 9, 44, 100
1, 39359, Note_on_c, 9, 33, 0
1, 39359, Note_on_c, 9, 44, 0
1, 39360, Note_on_c, 9, 33, 100
1, 39360, Note_on_c, 9, 44, 100
1, 39599, Note_on_c, 9, 33, 0
1, 39599, Note_on_c, 9, 44, 0
1, 39600, Note_on_c, 9, 50, 100
1, 39600, Note_on_c, 9, 44, 100
1, 39719, Note_on_c, 9, 44, 0
1, 39720, Note_on_c, 9, 44, 100
1, 39839, Note_on_c, 9, 50, 0
1, 39839, Note_on_c, 9, 44, 0
1, 39840, Note_on_c, 9, 40, 100
1, 39840, Note_on_c, 9, 47, 100
1, 39840, Note_on_c, 9, 81, 100
1, 39840, Note_on_c, 9, 44, 100
1, 40079, Note_on_c, 9, 40, 0
1, 40079, Note_on_c, 9, 47, 0
1, 40079, Note_on_c, 9, 81, 0
1, 40079, Note_on_c, 9, 44, 0
1, 40080, Note_on_c, 9, 45, 100
1, 40080, Note_on_c, 9, 44, 100
1, 40199, Note_on_c, 9, 44, 0
1, 40200, Note_on_c, 9, 44, 100
1, 40319, Note_on_c, 9, 45, 0
1, 40319, Note_on_c, 9, 44, 0
1, 40320, Note_on_c, 9, 33, 100
1, 40320, Note_on_c, 9, 44, 100
1, 40559, Note_on_c, 9, 44, 0
1, 40560, Note_on_c, 9, 44, 100
1, 40679, Note_on_c, 9, 44, 0
1, 40680, Note_on_c, 9, 44, 100
1, 40799, Note_on_c, 9, 33, 0
1, 40799, Note_on_c, 9, 44, 0
1, 40800, Note_on_c, 9, 40, 100
1, 40800, Note_on_c, 9, 44, 100
1, 41039, Note_on_c, 9, 40, 0
1, 41039, Note_on_c, 9, 44, 0
1, 41040, Note_on_c, 9, 33, 100
1, 41040, Note_on_c, 9, 44, 100
1, 41159, Note_on_c, 9, 44, 0
1, 41160, Note_on_c, 9, 44, 100
1, 41279, Note_on_c, 9, 33, 0
1, 41279, Note_on_c, 9, 44, 0
1, 41280, Note_on_c, 9, 33, 100
1, 41280, Note_on_c, 9, 44, 100
1, 41519, Note_on_c, 9, 44, 0
1, 41520, Note_on_c, 9, 44, 100
1, 41639, Note_on_c, 9, 44, 0
1, 41640, Note_on_c, 9, 44, 100
1, 41759, Note_on_c, 9, 33, 0
1, 41759, Note_on_c, 9, 44, 0
1, 41760, Note_on_c, 9, 40, 100
1, 41760, Note_on_c, 9, 81, 100
1, 41760, Note_on_c, 9, 44, 100
1, 41999, Note_on_c, 9, 44, 0
1, 42000, Note_on_c, 9, 44, 100
1, 42119, Note_on_c, 9, 44, 0
1, 42120, Note_on_c, 9, 44, 100
1, 42239, Note_on_c, 9, 40, 0
1, 42239, Note_on_c, 9, 81, 0
1, 42239, Note_on_c, 9, 44, 0
1, 42240, Note_on_c, 9, 33, 100
1, 42240, Note_on_c, 9, 44, 100
1, 42479, Note_on_c, 9, 44, 0
1, 42480, Note_on_c, 9, 44, 100
1, 42599, Note_on_c, 9, 44, 0
1, 42600, Note_on_c, 9, 44, 100
1, 42719, Note_on_c, 9, 33, 0
1, 42719, Note_on_c, 9, 44, 0
1, 42720, Note_on_c, 9, 40, 100
1, 42720, Note_on_c, 9, 44, 100
1, 42959, Note_on_c, 9, 40, 0
1, 42959, Note_on_c, 9, 44, 0
1, 42960, Note_on_c, 9, 33, 100
1, 42960, Note_on_c, 9, 44, 100
1, 43079, Note_on_c, 9, 44, 0
1, 43080, Note_on_c, 9, 44, 100
1, 43199, Note_on_c, 9, 33, 0
1, 43199, Note_on_c, 9, 44, 0
1, 43200, Note_on_c, 9, 33, 100
1, 43200, Note_on_c, 9, 44, 100
1, 43439, Note_on_c, 9, 44, 0
1, 43440, Note_on_c, 9, 44, 100
1, 43559, Note_on_c, 9, 44, 0
1, 43560, Note_on_c, 9, 44, 100
1, 43679, Note_on_c, 9, 33, 0
1, 43679, Note_on_c, 9, 44, 0
1, 43680, Note_on_c, 9, 40, 100
1, 43680, Note_on_c, 9, 81, 100
1, 43680, Note_on_c, 9, 44, 100
1, 43919, Note_on_c, 9, 44, 0
1, 43920, Note_on_c, 9, 44, 100
1, 44039, Note_on_c, 9, 44, 0
1, 44040, Note_on_c, 9, 44, 100
1, 44159, Note_on_c, 9, 40, 0
1, 44159, Note_on_c, 9, 81, 0
1, 44159, Note_on_c, 9, 44, 0
1, 44160, Note_on_c, 9, 33, 100
1, 44160, Note_on_c, 9, 44, 100
1, 44399, Note_on_c, 9, 44, 0
1, 44400, Note_on_c, 9, 44, 100
1, 44519, Note_on_c, 9, 44, 0
1, 44520, Note_on_c, 9, 44, 100
1, 44639, Note_on_c, 9, 33, 0
1, 44639, Note_on_c, 9, 44, 0
1, 44640, Note_on_c, 9, 40, 100
1, 44640, Note_on_c, 9, 44, 100
1, 44879, Note_on_c, 9, 40, 0
1, 44879, Note_on_c, 9, 44, 0
1, 44880, Note_on_c, 9, 33, 100
1, 44880, Note_on_c, 9, 44, 100
1, 44999, Note_on_c, 9, 44, 0
1, 45000, Note_on_c, 9, 44, 100
1, 45119, Note_on_c, 9, 33, 0
1, 45119, Note_on_c, 9, 44, 0
1, 45120, Note_on_c, 9, 33, 100
1, 45120, Note_on_c, 9, 44, 100
1, 45359, Note_on_c, 9, 44, 0
1, 45360, Note_on_c, 9, 44, 100
1, 45479, Note_on_c, 9, 44, 0
1, 45480, Note_on_c, 9, 44, 100
1, 45599, Note_on_c, 9, 33, 0
1, 45599, Note_on_c, 9, 44, 0
1, 45600, Note_on_c, 9, 40, 100
1, 45600, Note_on_c, 9, 81, 100
1, 45600, Note_on_c, 9, 44, 100
1, 45839, Note_on_c, 9, 44, 0
1, 45840, Note_on_c, 9, 44, 100
1, 45959, Note_on_c, 9, 44, 0
1, 45960, Note_on_c, 9, 44, 100
1, 46079, Note_on_c, 9, 40, 0
1, 46079, Note_on_c, 9, 81, 0
1, 46079, Note_on_c, 9, 44, 0
1, 46080, Note_on_c, 9, 33, 100
1, 46080, Note_on_c, 9, 44, 100
1, 46319, Note_on_c, 9, 44, 0
1, 46320, Note_on_c, 9, 44, 100
1, 46439, Note_on_c, 9, 44, 0
1, 46440, Note_on_c, 9, 44, 100
1, 46559, Note_on_c, 9, 33, 0
1, 46559, Note_on_c, 9, 44, 0
1, 46560, Note_on_c, 9, 40, 100
1, 46560, Note_on_c, 9, 44, 100
1, 46799, Note_on_c, 9, 40, 0
1, 46799, Note_on_c, 9, 44, 0
1, 46800, Note_on_c, 9, 33, 100
1, 46800, Note_on_c, 9, 44, 100
1, 46919, Note_on_c, 9, 44, 0
1, 46920, Note_on_c, 9, 44, 100
1, 47039, Note_on_c, 9, 33, 0
1, 47039, Note_on_c, 9, 44, 0
1, 47040, Note_on_c, 9, 33, 100
1, 47040, Note_on_c, 9, 44, 100
1, 47279, Note_on_c, 9, 44, 0
1, 47280, Note_on_c, 9, 44, 100
1, 47399, Note_on_c, 9, 44, 0
1, 47400, Note_on_c, 9, 44, 100
1, 47519, Note_on_c, 9, 33, 0
1, 47519, Note_on_c, 9, 44, 0
1, 47520, Note_on_c, 9, 40, 100
1, 47520, Note_on_c, 9, 81, 100
1, 47520, Note_on_c, 9, 44, 100
1, 47759, Note_on_c, 9, 44, 0
1, 47760, Note_on_c, 9, 44, 100
1, 47879, Note_on_c, 9, 44, 0
1, 47880, Note_on_c, 9, 44, 100
1, 47999, Note_on_c, 9, 40, 0
1, 47999, Note_on_c, 9, 81, 0
1, 47999, Note_on_c, 9, 44, 0
1, 48000, Note_on_c, 9, 33, 100
1, 48000, Note_on_c, 9, 44, 100
1, 48239, Note_on_c, 9, 44, 0
1, 48240, Note_on_c, 9, 44, 100
1, 48359, Note_on_c, 9, 44, 0
1, 48360, Note_on_c, 9, 44, 100
1, 48479, Note_on_c, 9, 33, 0
1, 48479, Note_on_c, 9, 44, 0
1, 48480, Note_on_c, 9, 40, 100
1, 48480, Note_on_c, 9, 44, 100
1, 48719, Note_on_c, 9, 40, 0
1, 48719, Note_on_c, 9, 44, 0
1, 48720, Note_on_c, 9, 33, 100
1, 48720, Note_on_c, 9, 44, 100
1, 48839, Note_on_c, 9, 44, 0
1, 48840, Note_on_c, 9, 44, 100
1, 48959, Note_on_c, 9, 33, 0
1, 48959, Note_on_c, 9, 44, 0
1, 48960, Note_on_c, 9, 33, 100
1, 48960, Note_on_c, 9, 44, 100
1, 49199, Note_on_c, 9, 44, 0
1, 49200, Note_on_c, 9, 44, 100
1, 49319, Note_on_c, 9, 44, 0
1, 49320, Note_on_c, 9, 44, 100
1, 49439, Note_on_c, 9, 33, 0
1, 49439, Note_on_c, 9, 44, 0
1, 49440, Note_on_c, 9, 40, 100
1, 49440, Note_on_c, 9, 81, 100
1, 49440, Note_on_c, 9, 44, 100
1, 49679, Note_on_c, 9, 44, 0
1, 49680, Note_on_c, 9, 44, 100
1, 49799, Note_on_c, 9, 44, 0
1, 49800, Note_on_c, 9, 44, 100
1, 49919, Note_on_c, 9, 40, 0
1, 49919, Note_on_c, 9, 81, 0
1, 49919, Note_on_c, 9, 44, 0
1, 49920, Note_on_c, 9, 33, 100
1, 49920, Note_on_c, 9, 44, 100
1, 50159, Note_on_c, 9, 44, 0
1, 50160, Note_on_c, 9, 44, 100
1, 50279, Note_on_c, 9, 44, 0
1, 50280, Note_on_c, 9, 44, 100
1, 50399, Note_on_c, 9, 33, 0
1, 50399, Note_on_c, 9, 44, 0
1, 50400, Note_on_c, 9, 40, 100
1, 50400, Note_on_c, 9, 44, 100
1, 50639, Note_on_c, 9, 40, 0
1, 50639, Note_on_c, 9, 44, 0
1, 50640, Note_on_c, 9, 33, 100
1, 50640, Note_on_c, 9, 44, 100
1, 50759, Note_on_c, 9, 44, 0
1, 50760, Note_on_c, 9, 44, 100
1, 50879, Note_on_c, 9, 33, 0
1, 50879, Note_on_c, 9, 44, 0
1, 50880, Note_on_c, 9, 33, 100
1, 50880, Note_on_c, 9, 44, 100
1, 51119, Note_on_c, 9, 44, 0
1, 51120, Note_on_c, 9, 44, 100
1, 51239, Note_on_c, 9, 44, 0
1, 51240, Note_on_c, 9, 44, 100
1, 51359, Note_on_c, 9, 33, 0
1, 51359, Note_on_c, 9, 44, 0
1, 51360, Note_on_c, 9, 40, 100
1, 51360, Note_on_c, 9, 81, 100
1, 51360, Note_on_c, 9, 44, 100
1, 51599, Note_on_c, 9, 44, 0
1, 51600, Note_on_c, 9, 44, 100
1, 51719, Note_on_c, 9, 44, 0
1, 51720, Note_on_c, 9, 44, 100
1, 51839, Note_on_c, 9, 40, 0
1, 51839, Note_on_c, 9, 81, 0
1, 51839, Note_on_c, 9, 44, 0
1, 51840, Note_on_c, 9, 33, 100
1, 51840, Note_on_c, 9, 44, 100
1, 52079, Note_on_c, 9, 44, 0
1, 52080, Note_on_c, 9, 44, 100
1, 52199, Note_on_c, 9, 44, 0
1, 52200, Note_on_c, 9, 44, 100
1, 52319, Note_on_c, 9, 33, 0
1, 52319, Note_on_c, 9, 44, 0
1, 52320, Note_on_c, 9, 40, 100
1, 52320, Note_on_c, 9, 44, 100
1, 52559, Note_on_c, 9, 40, 0
1, 52559, Note_on_c, 9, 44, 0
1, 52560, Note_on_c, 9, 33, 100
1, 52560, Note_on_c, 9, 44, 100
1, 52679, Note_on_c, 9, 44, 0
1, 52680, Note_on_c, 9, 44, 100
1, 52799, Note_on_c, 9, 33, 0
1, 52799, Note_on_c, 9, 44, 0
1, 52800, Note_on_c, 9, 33, 100
1, 52800, Note_on_c, 9, 44, 100
1, 53039, Note_on_c, 9, 44, 0
1, 53040, Note_on_c, 9, 44, 100
1, 53159, Note_on_c, 9, 44, 0
1, 53160, Note_on_c, 9, 44, 100
1, 53279, Note_on_c, 9, 33, 0
1, 53279, Note_on_c, 9, 44, 0
1, 53280, Note_on_c, 9, 40, 100
1, 53280, Note_on_c, 9, 81, 100
1, 53280, Note_on_c, 9, 44, 100
1, 53519, Note_on_c, 9, 44, 0
1, 53520, Note_on_c, 9, 44, 100
1, 53639, Note_on_c, 9, 44, 0
1, 53640, Note_on_c, 9, 44, 100
1, 53759, Note_on_c, 9, 40, 0
1, 53759, Note_on_c, 9, 81, 0
1, 53759, Note_on_c, 9, 44, 0
1, 53760, Note_on_c, 9, 33, 100
1, 53760, Note_on_c, 9, 44, 100
1, 53999, Note_on_c, 9, 44, 0
1, 54000, Note_on_c, 9, 44, 100
1, 54119, Note_on_c, 9, 44, 0
1, 54120, Note_on_c, 9, 44, 100
1, 54239, Note_on_c, 9, 33, 0
1, 54239, Note_on_c, 9, 44, 0
1, 54240, Note_on_c, 9, 40, 100
1, 54240, Note_on_c, 9, 44, 100
1, 54479, Note_on_c, 9, 40, 0
1, 54479, Note_on_c, 9, 44, 0
1, 54480, Note_on_c, 9, 33, 100
1, 54480, Note_on_c, 9, 44, 100
1, 54599, Note_on_c, 9, 44, 0
1, 54600, Note_on_c, 9, 44, 100
1, 54719, Note_on_c, 9, 33, 0
1, 54719, Note_on_c, 9, 44, 0
1, 54720, Note_on_c, 9, 33, 100
1, 54720, Note_on_c, 9, 44, 100
1, 54959, Note_on_c, 9, 44, 0
1, 54960, Note_on_c, 9, 44, 100
1, 55079, Note_on_c, 9, 44, 0
1, 55080, Note_on_c, 9, 44, 100
1, 55199, Note_on_c, 9, 33, 0
1, 55199, Note_on_c, 9, 44, 0
1, 55200, Note_on_c, 9, 40, 100
1, 55200, Note_on_c, 9, 81, 100
1, 55200, Note_on_c, 9, 44, 100
1, 55439, Note_on_c, 9, 44, 0
1, 55440, Note_on_c, 9, 44, 100
1, 55559, Note_on_c, 9, 44, 0
1, 55560, Note_on_c, 9, 44, 100
1, 55679, Note_on_c, 9, 40, 0
1, 55679, Note_on_c, 9, 81, 0
1, 55679, Note_on_c, 9, 44, 0
1, 55680, Note_on_c, 9, 33, 100
1, 55680, Note_on_c, 9, 44, 100
1, 55919, Note_on_c, 9, 44, 0
1, 55920, Note_on_c, 9, 44, 100
1, 56039, Note_on_c, 9, 44, 0
1, 56040, Note_on_c, 9, 44, 100
1, 56159, Note_on_c, 9, 33, 0
1, 56159, Note_on_c, 9, 44, 0
1, 56160, Note_on_c, 9, 40, 100
1, 56160, Note_on_c, 9, 44, 100
1, 56399, Note_on_c, 9, 40, 0
1, 56399, Note_on_c, 9, 44, 0
1, 56400, Note_on_c, 9, 33, 100
1, 56400, Note_on_c, 9, 44, 100
1, 56519, Note_on_c, 9, 44, 0
1, 56520, Note_on_c, 9, 44, 100
1, 56639, Note_on_c, 9, 33, 0
1, 56639, Note_on_c, 9, 44, 0
1, 56640, Note_on_c, 9, 33, 100
1, 56640, Note_on_c, 9, 44, 100
1, 56879, Note_on_c, 9, 33, 0
1, 56879, Note_on_c, 9, 44, 0
1, 56880, Note_on_c, 9, 50, 100
1, 56880, Note_on_c, 9, 44, 100
1, 56999, Note_on_c, 9, 44, 0
1, 57000, Note_on_c, 9, 44, 100
1, 57119, Note_on_c, 9, 50, 0
1, 57119, Note_on_c, 9, 44, 0
1, 57120, Note_on_c, 9, 40, 100
1, 57120, Note_on_c, 9, 47, 100
1, 57120, Note_on_c, 9, 81, 100
1, 57120, Note_on_c, 9, 44, 100
1, 57359, Note_on_c, 9, 40, 0
1, 57359, Note_on_c, 9, 47, 0
1, 57359, Note_on_c, 9, 81, 0
1, 57359, Note_on_c, 9, 44, 0
1, 57360, Note_on_c, 9, 45, 100
1, 57360, Note_on_c, 9, 44, 100
1, 57479, Note_on_c, 9, 44, 0
1, 57480, Note_on_c, 9, 44, 100
1, 57599, Note_on_c, 9, 45, 0
1, 57599, Note_on_c, 9, 44, 0
1, 57600, Note_on_c, 9, 33, 100
1, 57600, Note_on_c, 9, 44, 100
1, 57839, Note_on_c, 9, 44, 0
1, 57840, Note_on_c, 9, 44, 100
1, 57959, Note_on_c, 9, 44, 0
1, 57960, Note_on_c, 9, 44, 100
1, 58079, Note_on_c, 9, 33, 0
1, 58079, Note_on_c, 9, 44, 0
1, 58080, Note_on_c, 9, 40, 100
1, 58080, Note_on_c, 9, 44, 100
1, 58319, Note_on_c, 9, 40, 0
1, 58319, Note_on_c, 9, 44, 0
1, 58320, Note_on_c, 9, 33, 100
1, 58320, Note_on_c, 9, 44, 100
1, 58439, Note_on_c, 9, 44, 0
1, 58440, Note_on_c, 9, 44, 100
1, 58559, Note_on_c, 9, 33, 0
1, 58559, Note_on_c, 9, 44, 0
1, 58560, Note_on_c, 9, 33, 100
1, 58560, Note_on_c, 9, 44, 100
1, 58799, Note_on_c, 9, 44, 0
1, 58800, Note_on_c, 9, 44, 100
1, 58919, Note_on_c, 9, 44, 0
1, 58920, Note_on_c, 9, 44, 100
1, 59039, Note_on_c, 9, 33, 0
1, 59039, Note_on_c, 9, 44, 0
1, 59040, Note_on_c, 9, 40, 100
1, 59040, Note_on_c, 9, 81, 100
1, 59040, Note_on_c, 9, 44, 100
1, 59279, Note_on_c, 9, 44, 0
1, 59280, Note_on_c, 9, 44, 100
1, 59399, Note_on_c, 9, 44, 0
1, 59400, Note_on_c, 9, 44, 100
1, 59519, Note_on_c, 9, 40, 0
1, 59519, Note_on_c, 9, 81, 0
1, 59519, Note_on_c, 9, 44, 0
1, 59520, Note_on_c, 9, 33, 100
1, 59520, Note_on_c, 9, 44, 100
1, 59759, Note_on_c, 9, 44, 0
1, 59760, Note_on_c, 9, 44, 100
1, 59879, Note_on_c, 9, 44, 0
1, 59880, Note_on_c, 9, 44, 100
1, 59999, Note_on_c, 9, 33, 0
1, 59999, Note_on_c, 9, 44, 0
1, 60000, Note_on_c, 9, 40, 100
1, 60000, Note_on_c, 9, 44, 100
1, 60239, Note_on_c, 9, 40, 0
1, 60239, Note_on_c, 9, 44, 0
1, 60240, Note_on_c, 9, 33, 100
1, 60240, Note_on_c, 9, 44, 100
1, 60359, Note_on_c, 9, 44, 0
1, 60360, Note_on_c, 9, 44, 100
1, 60479, Note_on_c, 9, 33, 0
1, 60479, Note_on_c, 9, 44, 0
1, 60480, Note_on_c, 9, 33, 100
1, 60480, Note_on_c, 9, 44, 100
1, 60719, Note_on_c, 9, 44, 0
1, 60720, Note_on_c, 9, 44, 100
1, 60839, Note_on_c, 9, 44, 0
1, 60840, Note_on_c, 9, 44, 100
1, 60959, Note_on_c, 9, 33, 0
1, 60959, Note_on_c, 9, 44, 0
1, 60960, Note_on_c, 9, 40, 100
1, 60960, Note_on_c, 9, 81, 100
1, 60960, Note_on_c, 9, 44, 100
1, 61199, Note_on_c, 9, 44, 0
1, 61200, Note_on_c, 9, 44, 100
1, 61319, Note_on_c, 9, 44, 0
1, 61320, Note_on_c, 9, 44, 100
1, 61439, Note_on_c, 9, 40, 0
1, 61439, Note_on_c, 9, 81, 0
1, 61439, Note_on_c, 9, 44, 0
1, 61440, Note_on_c, 9, 33, 100
1, 61440, Note_on_c, 9, 44, 100
1, 61679, Note_on_c, 9, 44, 0
1, 61680, Note_on_c, 9, 44, 100
1, 61799, Note_on_c, 9, 44, 0
1, 61800, Note_on_c, 9, 44, 100
1, 61919, Note_on_c, 9, 33, 0
1, 61919, Note_on_c, 9, 44, 0
1, 61920, Note_on_c, 9, 40, 100
1, 61920, Note_on_c, 9, 44, 100
1, 62159, Note_on_c, 9, 40, 0
1, 62159, Note_on_c, 9, 44, 0
1, 62160, Note_on_c, 9, 33, 100
1, 62160, Note_on_c, 9, 44, 100
1, 62279, Note_on_c, 9, 44, 0
1, 62280, Note_on_c, 9, 44, 100
1, 62399, Note_on_c, 9, 33, 0
1, 62399, Note_on_c, 9, 44, 0
1, 62400, Note_on_c, 9, 33, 100
1, 62400, Note_on_c, 9, 44, 100
1, 62639, Note_on_c, 9, 44, 0
1, 62640, Note_on_c, 9, 44, 100
1, 62759, Note_on_c, 9, 44, 0
1, 62760, Note_on_c, 9, 44, 100
1, 62879, Note_on_c, 9, 33, 0
1, 62879, Note_on_c, 9, 44, 0
1, 62880, Note_on_c, 9, 40, 100
1, 62880, Note_on_c, 9, 81, 100
1, 62880, Note_on_c, 9, 44, 100
1, 63119, Note_on_c, 9, 44, 0
1, 63120, Note_on_c, 9, 44, 100
1, 63239, Note_on_c, 9, 44, 0
1, 63240, Note_on_c, 9, 44, 100
1, 63359, Note_on_c, 9, 40, 0
1, 63359, Note_on_c, 9, 81, 0
1, 63359, Note_on_c, 9, 44, 0
1, 63360, Note_on_c, 9, 33, 100
1, 63360, Note_on_c, 9, 44, 100
1, 63599, Note_on_c, 9, 44, 0
1, 63600, Note_on_c, 9, 44, 100
1, 63719, Note_on_c, 9, 44, 0
1, 63720, Note_on_c, 9, 44, 100
1, 63839, Note_on_c, 9, 33, 0
1, 63839, Note_on_c, 9, 44, 0
1, 63840, Note_on_c, 9, 40, 100
1, 63840, Note_on_c, 9, 44, 100
1, 64079, Note_on_c, 9, 40, 0
1, 64079, Note_on_c, 9, 44, 0
1, 64080, Note_on_c, 9, 33, 100
1, 64080, Note_on_c, 9, 44, 100
1, 64199, Note_on_c, 9, 44, 0
1, 64200, Note_on_c, 9, 44, 100
1, 64319, Note_on_c, 9, 33, 0
1, 64319, Note_on_c, 9, 44, 0
1, 64320, Note_on_c, 9, 33, 100
1, 64320, Note_on_c, 9, 44, 100
1, 64559, Note_on_c, 9, 33, 0
1, 64559, Note_on_c, 9, 44, 0
1, 64560, Note_on_c, 9, 50, 100
1, 64560, Note_on_c, 9, 44, 100
1, 64679, Note_on_c, 9, 44, 0
1, 64680, Note_on_c, 9, 44, 100
1, 64799, Note_on_c, 9, 50, 0
1, 64799, Note_on_c, 9, 44, 0
1, 64800, Note_on_c, 9, 40, 100
1, 64800, Note_on_c, 9, 45, 100
1, 64800, Note_on_c, 9, 81, 100
1, 64800, Note_on_c, 9, 44, 100
1, 65039, Note_on_c, 9, 44, 0
1, 65040, Note_on_c, 9, 44, 100
1, 65040, Note_on_c, 9, 43, 100
1, 65159, Note_on_c, 9, 44, 0
1, 65159, Note_on_c, 9, 43, 0
1, 65160, Note_on_c, 9, 44, 100
1, 65279, Note_on_c, 9, 40, 0
1, 65279, Note_on_c, 9, 45, 0
1, 65279, Note_on_c, 9, 81, 0
1, 65279, Note_on_c, 9, 44, 0
1, 65280, Note_on_c, 9, 33, 100
1, 65280, Note_on_c, 9, 44, 100
1, 65519, Note_on_c, 9, 44, 0
1, 65520, Note_on_c, 9, 44, 100
1, 65639, Note_on_c, 9, 44, 0
1, 65640, Note_on_c, 9, 44, 100
1, 65759, Note_on_c, 9, 33, 0
1, 65759, Note_on_c, 9, 44, 0
1, 65760, Note_on_c, 9, 40, 100
1, 65760, Note_on_c, 9, 44, 100
1, 65999, Note_on_c, 9, 40, 0
1, 65999, Note_on_c, 9, 44, 0
1, 66000, Note_on_c, 9, 33, 100
1, 66000, Note_on_c, 9, 44, 100
1, 66119, Note_on_c, 9, 44, 0
1, 66120, Note_on_c, 9, 44, 100
1, 66239, Note_on_c, 9, 33, 0
1, 66239, Note_on_c, 9, 44, 0
1, 66240, Note_on_c, 9, 33, 100
1, 66240, Note_on_c, 9, 44, 100
1, 66479, Note_on_c, 9, 44, 0
1, 66480, Note_on_c, 9, 44, 100
1, 66599, Note_on_c, 9, 44, 0
1, 66600, Note_on_c, 9, 44, 100
1, 66719, Note_on_c, 9, 33, 0
1, 66719, Note_on_c, 9, 44, 0
1, 66720, Note_on_c, 9, 40, 100
1, 66720, Note_on_c, 9, 81, 100
1, 66720, Note_on_c, 9, 44, 100
1, 66959, Note_on_c, 9, 44, 0
1, 66960, Note_on_c, 9, 44, 100
1, 67079, Note_on_c, 9, 44, 0
1, 67080, Note_on_c, 9, 44, 100
1, 67199, Note_on_c, 9, 40, 0
1, 67199, Note_on_c, 9, 81, 0
1, 67199, Note_on_c, 9, 44, 0
1, 67200, Note_on_c, 9, 33, 100
1, 67200, Note_on_c, 9, 44, 100
1, 67439, Note_on_c, 9, 44, 0
1, 67440, Note_on_c, 9, 44, 100
1, 67559, Note_on_c, 9, 44, 0
1, 67560, Note_on_c, 9, 44, 100
1, 67679, Note_on_c, 9, 33, 0
1, 67679, Note_on_c, 9, 44, 0
1, 67680, Note_on_c, 9, 40, 100
1, 67680, Note_on_c, 9, 44, 100
1, 67919, Note_on_c, 9, 40, 0
1, 67919, Note_on_c, 9, 44, 0
1, 67920, Note_on_c, 9, 33, 100
1, 67920, Note_on_c, 9, 44, 100
1, 68039, Note_on_c, 9, 44, 0
1, 68040, Note_on_c, 9, 44, 100
1, 68159, Note_on_c, 9, 33, 0
1, 68159, Note_on_c, 9, 44, 0
1, 68160, Note_on_c, 9, 33, 100
1, 68160, Note_on_c, 9, 44, 100
1, 68399, Note_on_c, 9, 44, 0
1, 68400, Note_on_c, 9, 44, 100
1, 68519, Note_on_c, 9, 44, 0
1, 68520, Note_on_c, 9, 44, 100
1, 68639, Note_on_c, 9, 33, 0
1, 68639, Note_on_c, 9, 44, 0
1, 68640, Note_on_c, 9, 40, 100
1, 68640, Note_on_c, 9, 81, 100
1, 68640, Note_on_c, 9, 44, 100
1, 68879, Note_on_c, 9, 44, 0
1, 68880, Note_on_c, 9, 44, 100
1, 68999, Note_on_c, 9, 44, 0
1, 69000, Note_on_c, 9, 44, 100
1, 69119, Note_on_c, 9, 40, 0
1, 69119, Note_on_c, 9, 81, 0
1, 69119, Note_on_c, 9, 44, 0
1, 69120, Note_on_c, 9, 33, 100
1, 69120, Note_on_c, 9, 44, 100
1, 69359, Note_on_c, 9, 44, 0
1, 69360, Note_on_c, 9, 44, 100
1, 69479, Note_on_c, 9, 44, 0
1, 69480, Note_on_c, 9, 44, 100
1, 69599, Note_on_c, 9, 33, 0
1, 69599, Note_on_c, 9, 44, 0
1, 69600, Note_on_c, 9, 40, 100
1, 69600, Note_on_c, 9, 44, 100
1, 69839, Note_on_c, 9, 40, 0
1, 69839, Note_on_c, 9, 44, 0
1, 69840, Note_on_c, 9, 33, 100
1, 69840, Note_on_c, 9, 44, 100
1, 69959, Note_on_c, 9, 44, 0
1, 69960, Note_on_c, 9, 44, 100
1, 70079, Note_on_c, 9, 33, 0
1, 70079, Note_on_c, 9, 44, 0
1, 70080, Note_on_c, 9, 33, 100
1, 70080, Note_on_c, 9, 44, 100
1, 70319, Note_on_c, 9, 44, 0
1, 70320, Note_on_c, 9, 44, 100
1, 70439, Note_on_c, 9, 44, 0
1, 70440, Note_on_c, 9, 44, 100
1, 70559, Note_on_c, 9, 33, 0
1, 70559, Note_on_c, 9, 44, 0
1, 70560, Note_on_c, 9, 40, 100
1, 70560, Note_on_c, 9, 81, 100
1, 70560, Note_on_c, 9, 44, 100
1, 70799, Note_on_c, 9, 44, 0
1, 70800, Note_on_c, 9, 44, 100
1, 70919, Note_on_c, 9, 44, 0
1, 70920, Note_on_c, 9, 44, 100
1, 71039, Note_on_c, 9, 40, 0
1, 71039, Note_on_c, 9, 81, 0
1, 71039, Note_on_c, 9, 44, 0
1, 71040, Note_on_c, 9, 33, 100
1, 71040, Note_on_c, 9, 44, 100
1, 71279, Note_on_c, 9, 44, 0
1, 71280, Note_on_c, 9, 44, 100
1, 71399, Note_on_c, 9, 44, 0
1, 71400, Note_on_c, 9, 44, 100
1, 71519, Note_on_c, 9, 33, 0
1, 71519, Note_on_c, 9, 44, 0
1, 71520, Note_on_c, 9, 40, 100
1, 71520, Note_on_c, 9, 44, 100
1, 71759, Note_on_c, 9, 40, 0
1, 71759, Note_on_c, 9, 44, 0
1, 71760, Note_on_c, 9, 33, 100
1, 71760, Note_on_c, 9, 44, 100
1, 71879, Note_on_c, 9, 44, 0
1, 71880, Note_on_c, 9, 44, 100
1, 71999, Note_on_c, 9, 33, 0
1, 71999, Note_on_c, 9, 44, 0
1, 72000, Note_on_c, 9, 33, 100
1, 72000, Note_on_c, 9, 44, 100
1, 72239, Note_on_c, 9, 44, 0
1, 72240, Note_on_c, 9, 44, 100
1, 72359, Note_on_c, 9, 44, 0
1, 72360, Note_on_c, 9, 44, 100
1, 72479, Note_on_c, 9, 33, 0
1, 72479, Note_on_c, 9, 44, 0
1, 72480, Note_on_c, 9, 40, 100
1, 72480, Note_on_c, 9, 81, 100
1, 72480, Note_on_c, 9, 44, 100
1, 72719, Note_on_c, 9, 44, 0
1, 72720, Note_on_c, 9, 44, 100
1, 72839, Note_on_c, 9, 44, 0
1, 72840, Note_on_c, 9, 44, 100
1, 72959, Note_on_c, 9, 40, 0
1, 72959, Note_on_c, 9, 81, 0
1, 72959, Note_on_c, 9, 44, 0
1, 72960, Note_on_c, 9, 33, 100
1, 72960, Note_on_c, 9, 44, 100
1, 73199, Note_on_c, 9, 44, 0
1, 73200, Note_on_c, 9, 44, 100
1, 73319, Note_on_c, 9, 44, 0
1, 73320, Note_on_c, 9, 44, 100
1, 73439, Note_on_c, 9, 33, 0
1, 73439, Note_on_c, 9, 44, 0
1, 73440, Note_on_c, 9, 40, 100
1, 73440, Note_on_c, 9, 44, 100
1, 73679, Note_on_c, 9, 40, 0
1, 73679, Note_on_c, 9, 44, 0
1, 73680, Note_on_c, 9, 33, 100
1, 73680, Note_on_c, 9, 44, 100
1, 73799, Note_on_c, 9, 44, 0
1, 73800, Note_on_c, 9, 44, 100
1, 73919, Note_on_c, 9, 33, 0
1, 73919, Note_on_c, 9, 44, 0
1, 73920, Note_on_c, 9, 33, 100
1, 73920, Note_on_c, 9, 44, 100
1, 74159, Note_on_c, 9, 44, 0
1, 74160, Note_on_c, 9, 44, 100
1, 74279, Note_on_c, 9, 44, 0
1, 74280, Note_on_c, 9, 44, 100
1, 74399, Note_on_c, 9, 33, 0
1, 74399, Note_on_c, 9, 44, 0
1, 74400, Note_on_c, 9, 40, 100
1, 74400, Note_on_c, 9, 81, 100
1, 74400, Note_on_c, 9, 44, 100
1, 74639, Note_on_c, 9, 44, 0
1, 74640, Note_on_c, 9, 44, 100
1, 74759, Note_on_c, 9, 44, 0
1, 74760, Note_on_c, 9, 44, 100
1, 74879, Note_on_c, 9, 40, 0
1, 74879, Note_on_c, 9, 81, 0
1, 74879, Note_on_c, 9, 44, 0
1, 74880, Note_on_c, 9, 33, 100
1, 74880, Note_on_c, 9, 44, 100
1, 75119, Note_on_c, 9, 44, 0
1, 75120, Note_on_c, 9, 44, 100
1, 75239, Note_on_c, 9, 44, 0
1, 75240, Note_on_c, 9, 44, 100
1, 75359, Note_on_c, 9, 33, 0
1, 75359, Note_on_c, 9, 44, 0
1, 75360, Note_on_c, 9, 40, 100
1, 75360, Note_on_c, 9, 44, 100
1, 75599, Note_on_c, 9, 40, 0
1, 75599, Note_on_c, 9, 44, 0
1, 75600, Note_on_c, 9, 33, 100
1, 75600, Note_on_c, 9, 44, 100
1, 75719, Note_on_c, 9, 44, 0
1, 75720, Note_on_c, 9, 44, 100
1, 75839, Note_on_c, 9, 33, 0
1, 75839, Note_on_c, 9, 44, 0
1, 75840, Note_on_c, 9, 33, 100
1, 75840, Note_on_c, 9, 44, 100
1, 76079, Note_on_c, 9, 33, 0
1, 76079, Note_on_c, 9, 44, 0
1, 76080, Note_on_c, 9, 82, 100
1, 76080, Note_on_c, 9, 44, 100
1, 76199, Note_on_c, 9, 44, 0
1, 76200, Note_on_c, 9, 44, 100
1, 76319, Note_on_c, 9, 82, 0
1, 76319, Note_on_c, 9, 44, 0
1, 76320, Note_on_c, 9, 40, 100
1, 76320, Note_on_c, 9, 70, 100
1, 76320, Note_on_c, 9, 81, 100
1, 76320, Note_on_c, 9, 44, 100
1, 76559, Note_on_c, 9, 40, 0
1, 76559, Note_on_c, 9, 70, 0
1, 76559, Note_on_c, 9, 81, 0
1, 76559, Note_on_c, 9, 44, 0
1, 76560, Note_on_c, 9, 32, 100
1, 76560, Note_on_c, 9, 44, 100
1, 76679, Note_on_c, 9, 44, 0
1, 76680, Note_on_c, 9, 44, 100
1, 76799, Note_on_c, 9, 32, 0
1, 76799, Note_on_c, 9, 44, 0
1, 76800, Note_on_c, 9, 33, 100
1, 76800, Note_on_c, 9, 44, 100
1, 77039, Note_on_c, 9, 44, 0
1, 77040, Note_on_c, 9, 44, 100
1, 77159, Note_on_c, 9, 44, 0
1, 77160, Note_on_c, 9, 44, 100
1, 77279, Note_on_c, 9, 33, 0
1, 77279, Note_on_c, 9, 44, 0
1, 77280, Note_on_c, 9, 40, 100
1, 77280, Note_on_c, 9, 44, 100
1, 77519, Note_on_c, 9, 40, 0
1, 77519, Note_on_c, 9, 44, 0
1, 77520, Note_on_c, 9, 33, 100
1, 77520, Note_on_c, 9, 44, 100
1, 77639, Note_on_c, 9, 44, 0
1, 77640, Note_on_c, 9, 44, 100
1, 77759, Note_on_c, 9, 33, 0
1, 77759, Note_on_c, 9, 44, 0
1, 77760, Note_on_c, 9, 33, 100
1, 77760, Note_on_c, 9, 44, 100
1, 77999, Note_on_c, 9, 44, 0
1, 78000, Note_on_c, 9, 44, 100
1, 78119, Note_on_c, 9, 44, 0
1, 78120, Note_on_c, 9, 44, 100
1, 78239, Note_on_c, 9, 33, 0
1, 78239, Note_on_c, 9, 44, 0
1, 78240, Note_on_c, 9, 40, 100
1, 78240, Note_on_c, 9, 81, 100
1, 78240, Note_on_c, 9, 44, 100
1, 78479, Note_on_c, 9, 44, 0
1, 78480, Note_on_c, 9, 44, 100
1, 78599, Note_on_c, 9, 44, 0
1, 78600, Note_on_c, 9, 44, 100
1, 78719, Note_on_c, 9, 40, 0
1, 78719, Note_on_c, 9, 81, 0
1, 78719, Note_on_c, 9, 44, 0
1, 78720, Note_on_c, 9, 33, 100
1, 78720, Note_on_c, 9, 44, 100
1, 78959, Note_on_c, 9, 44, 0
1, 78960, Note_on_c, 9, 44, 100
1, 79079, Note_on_c, 9, 44, 0
1, 79080, Note_on_c, 9, 44, 100
1, 79199, Note_on_c, 9, 33, 0
1, 79199, Note_on_c, 9, 44, 0
1, 79200, Note_on_c, 9, 40, 100
1, 79200, Note_on_c, 9, 44, 100
1, 79439, Note_on_c, 9, 40, 0
1, 79439, Note_on_c, 9, 44, 0
1, 79440, Note_on_c, 9, 33, 100
1, 79440, Note_on_c, 9, 44, 100
1, 79559, Note_on_c, 9, 44, 0
1, 79560, Note_on_c, 9, 44, 100
1, 79679, Note_on_c, 9, 33, 0
1, 79679, Note_on_c, 9, 44, 0
1, 79680, Note_on_c, 9, 33, 100
1, 79680, Note_on_c, 9, 44, 100
1, 79919, Note_on_c, 9, 44, 0
1, 79920, Note_on_c, 9, 44, 100
1, 80039, Note_on_c, 9, 44, 0
1, 80040, Note_on_c, 9, 44, 100
1, 80159, Note_on_c, 9, 33, 0
1, 80159, Note_on_c, 9, 44, 0
1, 80160, Note_on_c, 9, 40, 100
1, 80160, Note_on_c, 9, 81, 100
1, 80160, Note_on_c, 9, 44, 100
1, 80399, Note_on_c, 9, 44, 0
1, 80400, Note_on_c, 9, 44, 100
1, 80519, Note_on_c, 9, 44, 0
1, 80520, Note_on_c, 9, 44, 100
1, 80639, Note_on_c, 9, 40, 0
1, 80639, Note_on_c, 9, 81, 0
1, 80639, Note_on_c, 9, 44, 0
1, 80640, Note_on_c, 9, 33, 100
1, 80640, Note_on_c, 9, 44, 100
1, 80879, Note_on_c, 9, 44, 0
1, 80880, Note_on_c, 9, 44, 100
1, 80999, Note_on_c, 9, 44, 0
1, 81000, Note_on_c, 9, 44, 100
1, 81119, Note_on_c, 9, 33, 0
1, 81119, Note_on_c, 9, 44, 0
1, 81120, Note_on_c, 9, 40, 100
1, 81120, Note_on_c, 9, 44, 100
1, 81359, Note_on_c, 9, 40, 0
1, 81359, Note_on_c, 9, 44, 0
1, 81360, Note_on_c, 9, 33, 100
1, 81360, Note_on_c, 9, 44, 100
1, 81479, Note_on_c, 9, 44, 0
1, 81480, Note_on_c, 9, 44, 100
1, 81599, Note_on_c, 9, 33, 0
1, 81599, Note_on_c, 9, 44, 0
1, 81600, Note_on_c, 9, 33, 100
1, 81600, Note_on_c, 9, 44, 100
1, 81839, Note_on_c, 9, 44, 0
1, 81840, Note_on_c, 9, 44, 100
1, 81959, Note_on_c, 9, 44, 0
1, 81960, Note_on_c, 9, 44, 100
1, 82079, Note_on_c, 9, 33, 0
1, 82079, Note_on_c, 9, 44, 0
1, 82080, Note_on_c, 9, 40, 100
1, 82080, Note_on_c, 9, 81, 100
1, 82080, Note_on_c, 9, 44, 100
1, 82319, Note_on_c, 9, 44, 0
1, 82320, Note_on_c, 9, 44, 100
1, 82439, Note_on_c, 9, 44, 0
1, 82440, Note_on_c, 9, 44, 100
1, 82559, Note_on_c, 9, 40, 0
1, 82559, Note_on_c, 9, 81, 0
1, 82559, Note_on_c, 9, 44, 0
1, 82560, Note_on_c, 9, 33, 100
1, 82560, Note_on_c, 9, 44, 100
1, 82799, Note_on_c, 9, 44, 0
1, 82800, Note_on_c, 9, 44, 100
1, 82919, Note_on_c, 9, 44, 0
1, 82920, Note_on_c, 9, 44, 100
1, 83039, Note_on_c, 9, 33, 0
1, 83039, Note_on_c, 9, 44, 0
1, 83040, Note_on_c, 9, 40, 100
1, 83040, Note_on_c, 9, 44, 100
1, 83279, Note_on_c, 9, 40, 0
1, 83279, Note_on_c, 9, 44, 0
1, 83280, Note_on_c, 9, 33, 100
1, 83280, Note_on_c, 9, 44, 100
1, 83399, Note_on_c, 9, 44, 0
1, 83400, Note_on_c, 9, 44, 100
1, 83519, Note_on_c, 9, 33, 0
1, 83519, Note_on_c, 9, 44, 0
1, 83520, Note_on_c, 9, 33, 100
1, 83520, Note_on_c, 9, 44, 100
1, 83759, Note_on_c, 9, 33, 0
1, 83759, Note_on_c, 9, 44, 0
1, 83760, Note_on_c, 9, 50, 100
1, 83760, Note_on_c, 9, 44, 100
1, 83879, Note_on_c, 9, 50, 0
1, 83879, Note_on_c, 9, 44, 0
1, 83880, Note_on_c, 9, 50, 100
1, 83880, Note_on_c, 9, 76, 100
1, 83880, Note_on_c, 9, 44, 100
1, 83999, Note_on_c, 9, 50, 0
1, 83999, Note_on_c, 9, 76, 0
1, 83999, Note_on_c, 9, 44, 0
1, 84000, Note_on_c, 9, 40, 100
1, 84000, Note_on_c, 9, 47, 100
1, 84000, Note_on_c, 9, 25, 100
1, 84000, Note_on_c, 9, 81, 100
1, 84000, Note_on_c, 9, 44, 100
1, 84119, Note_on_c, 9, 40, 0
1, 84119, Note_on_c, 9, 47, 0
1, 84119, Note_on_c, 9, 25, 0
1, 84119, Note_on_c, 9, 81, 0
1, 84120, Note_on_c, 9, 30, 100
1, 84239, Note_on_c, 9, 44, 0
1, 84239, Note_on_c, 9, 30, 0
1, 84240, Note_on_c, 9, 45, 100
1, 84240, Note_on_c, 9, 28, 100
1, 84240, Note_on_c, 9, 44, 100
1, 84359, Note_on_c, 9, 45, 0
1, 84359, Note_on_c, 9, 28, 0
1, 84359, Note_on_c, 9, 44, 0
1, 84360, Note_on_c, 9, 16, 100
1, 84360, Note_on_c, 9, 23, 100
1, 84360, Note_on_c, 9, 44, 100
1, 84479, Note_on_c, 9, 16, 0
1, 84479, Note_on_c, 9, 23, 0
1, 84479, Note_on_c, 9, 44, 0
1, 84480, Note_on_c, 9, 59, 100
1, 84480, Note_on_c, 9, 33, 100
1, 84480, Note_on_c, 9, 44, 100
1, 84719, Note_on_c, 9, 44, 0
1, 84720, Note_on_c, 9, 44, 100
1, 84839, Note_on_c, 9, 44, 0
1, 84840, Note_on_c, 9, 44, 100
1, 84959, Note_on_c, 9, 59, 0
1, 84959, Note_on_c, 9, 33, 0
1, 84959, Note_on_c, 9, 44, 0
1, 84960, Note_on_c, 9, 40, 100
1, 84960, Note_on_c, 9, 44, 100
1, 85199, Note_on_c, 9, 40, 0
1, 85199, Note_on_c, 9, 44, 0
1, 85200, Note_on_c, 9, 33, 100
1, 85200, Note_on_c, 9, 44, 100
1, 85319, Note_on_c, 9, 44, 0
1, 85320, Note_on_c, 9, 44, 100
1, 85439, Note_on_c, 9, 33, 0
1, 85439, Note_on_c, 9, 44, 0
1, 85440, Note_on_c, 9, 33, 100
1, 85440, Note_on_c, 9, 44, 100
1, 85679, Note_on_c, 9, 44, 0
1, 85680, Note_on_c, 9, 44, 100
1, 85799, Note_on_c, 9, 44, 0
1, 85800, Note_on_c, 9, 44, 100
1, 85919, Note_on_c, 9, 33, 0
1, 85919, Note_on_c, 9, 44, 0
1, 85920, Note_on_c, 9, 40, 100
1, 85920, Note_on_c, 9, 81, 100
1, 85920, Note_on_c, 9, 44, 100
1, 86159, Note_on_c, 9, 44, 0
1, 86160, Note_on_c, 9, 44, 100
1, 86279, Note_on_c, 9, 44, 0
1, 86280, Note_on_c, 9, 44, 100
1, 86399, Note_on_c, 9, 40, 0
1, 86399, Note_on_c, 9, 81, 0
1, 86399, Note_on_c, 9, 44, 0
1, 86400, Note_on_c, 9, 33, 100
1, 86400, Note_on_c, 9, 44, 100
1, 86639, Note_on_c, 9, 44, 0
1, 86640, Note_on_c, 9, 44, 100
1, 86759, Note_on_c, 9, 44, 0
1, 86760, Note_on_c, 9, 44, 100
1, 86879, Note_on_c, 9, 33, 0
1, 86879, Note_on_c, 9, 44, 0
1, 86880, Note_on_c, 9, 40, 100
1, 86880, Note_on_c, 9, 44, 100
1, 87119, Note_on_c, 9, 40, 0
1, 87119, Note_on_c, 9, 44, 0
1, 87120, Note_on_c, 9, 33, 100
1, 87120, Note_on_c, 9, 44, 100
1, 87239, Note_on_c, 9, 44, 0
1, 87240, Note_on_c, 9, 44, 100
1, 87359, Note_on_c, 9, 33, 0
1, 87359, Note_on_c, 9, 44, 0
1, 87360, Note_on_c, 9, 33, 100
1, 87360, Note_on_c, 9, 44, 100
1, 87599, Note_on_c, 9, 44, 0
1, 87600, Note_on_c, 9, 44, 100
1, 87719, Note_on_c, 9, 44, 0
1, 87720, Note_on_c, 9, 44, 100
1, 87839, Note_on_c, 9, 33, 0
1, 87839, Note_on_c, 9, 44, 0
1, 87840, Note_on_c, 9, 40, 100
1, 87840, Note_on_c, 9, 81, 100
1, 87840, Note_on_c, 9, 44, 100
1, 88079, Note_on_c, 9, 44, 0
1, 88080, Note_on_c, 9, 44, 100
1, 88199, Note_on_c, 9, 44, 0
1, 88200, Note_on_c, 9, 44, 100
1, 88319, Note_on_c, 9, 40, 0
1, 88319, Note_on_c, 9, 81, 0
1, 88319, Note_on_c, 9, 44, 0
1, 88320, Note_on_c, 9, 33, 100
1, 88320, Note_on_c, 9, 44, 100
1, 88559, Note_on_c, 9, 44, 0
1, 88560, Note_on_c, 9, 44, 100
1, 88679, Note_on_c, 9, 44, 0
1, 88680, Note_on_c, 9, 44, 100
1, 88799, Note_on_c, 9, 33, 0
1, 88799, Note_on_c, 9, 44, 0
1, 88800, Note_on_c, 9, 40, 100
1, 88800, Note_on_c, 9, 44, 100
1, 89039, Note_on_c, 9, 40, 0
1, 89039, Note_on_c, 9, 44, 0
1, 89040, Note_on_c, 9, 33, 100
1, 89040, Note_on_c, 9, 44, 100
1, 89159, Note_on_c, 9, 44, 0
1, 89160, Note_on_c, 9, 44, 100
1, 89279, Note_on_c, 9, 33, 0
1, 89279, Note_on_c, 9, 44, 0
1, 89280, Note_on_c, 9, 33, 100
1, 89280, Note_on_c, 9, 44, 100
1, 89519, Note_on_c, 9, 44, 0
1, 89520, Note_on_c, 9, 44, 100
1, 89639, Note_on_c, 9, 44, 0
1, 89640, Note_on_c, 9, 44, 100
1, 89759, Note_on_c, 9, 33, 0
1, 89759, Note_on_c, 9, 44, 0
1, 89760, Note_on_c, 9, 40, 100
1, 89760, Note_on_c, 9, 81, 100
1, 89760, Note_on_c, 9, 44, 100
1, 89999, Note_on_c, 9, 44, 0
1, 90000, Note_on_c, 9, 44, 100
1, 90119, Note_on_c, 9, 44, 0
1, 90120, Note_on_c, 9, 44, 100
1, 90239, Note_on_c, 9, 40, 0
1, 90239, Note_on_c, 9, 81, 0
1, 90239, Note_on_c, 9, 44, 0
1, 90240, Note_on_c, 9, 33, 100
1, 90240, Note_on_c, 9, 44, 100
1, 90479, Note_on_c, 9, 44, 0
1, 90480, Note_on_c, 9, 44, 100
1, 90599, Note_on_c, 9, 44, 0
1, 90600, Note_on_c, 9, 44, 100
1, 90719, Note_on_c, 9, 33, 0
1, 90719, Note_on_c, 9, 44, 0
1, 90720, Note_on_c, 9, 40, 100
1, 90720, Note_on_c, 9, 44, 100
1, 90959, Note_on_c, 9, 40, 0
1, 90959, Note_on_c, 9, 44, 0
1, 90960, Note_on_c, 9, 33, 100
1, 90960, Note_on_c, 9, 44, 100
1, 91079, Note_on_c, 9, 44, 0
1, 91080, Note_on_c, 9, 44, 100
1, 91199, Note_on_c, 9, 33, 0
1, 91199, Note_on_c, 9, 44, 0
1, 91200, Note_on_c, 9, 33, 100
1, 91200, Note_on_c, 9, 44, 100
1, 91439, Note_on_c, 9, 33, 0
1, 91439, Note_on_c, 9, 44, 0
1, 91440, Note_on_c, 9, 50, 100
1, 91440, Note_on_c, 9, 44, 100
1, 91559, Note_on_c, 9, 44, 0
1, 91560, Note_on_c, 9, 44, 100
1, 91679, Note_on_c, 9, 50, 0
1, 91679, Note_on_c, 9, 44, 0
1, 91680, Note_on_c, 9, 40, 100
1, 91680, Note_on_c, 9, 47, 100
1, 91680, Note_on_c, 9, 81, 100
1, 91680, Note_on_c, 9, 44, 100
1, 91919, Note_on_c, 9, 40, 0
1, 91919, Note_on_c, 9, 47, 0
1, 91919, Note_on_c, 9, 81, 0
1, 91919, Note_on_c, 9, 44, 0
1, 91920, Note_on_c, 9, 45, 100
1, 91920, Note_on_c, 9, 44, 100
1, 92039, Note_on_c, 9, 44, 0
1, 92040, Note_on_c, 9, 44, 100
1, 92159, Note_on_c, 9, 45, 0
1, 92159, Note_on_c, 9, 44, 0
1, 92160, Note_on_c, 9, 33, 100
1, 92160, Note_on_c, 9, 44, 100
1, 92399, Note_on_c, 9, 44, 0
1, 92400, Note_on_c, 9, 44, 100
1, 92519, Note_on_c, 9, 44, 0
1, 92520, Note_on_c, 9, 44, 100
1, 92639, Note_on_c, 9, 33, 0
1, 92639, Note_on_c, 9, 44, 0
1, 92640, Note_on_c, 9, 40, 100
1, 92640, Note_on_c, 9, 44, 100
1, 92879, Note_on_c, 9, 40, 0
1, 92879, Note_on_c, 9, 44, 0
1, 92880, Note_on_c, 9, 33, 100
1, 92880, Note_on_c, 9, 44, 100
1, 92999, Note_on_c, 9, 44, 0
1, 93000, Note_on_c, 9, 44, 100
1, 93119, Note_on_c, 9, 33, 0
1, 93119, Note_on_c, 9, 44, 0
1, 93120, Note_on_c, 9, 33, 100
1, 93120, Note_on_c, 9, 44, 100
1, 93359, Note_on_c, 9, 44, 0
1, 93360, Note_on_c, 9, 44, 100
1, 93479, Note_on_c, 9, 44, 0
1, 93480, Note_on_c, 9, 44, 100
1, 93599, Note_on_c, 9, 33, 0
1, 93599, Note_on_c, 9, 44, 0
1, 93600, Note_on_c, 9, 40, 100
1, 93600, Note_on_c, 9, 81, 100
1, 93600, Note_on_c, 9, 44, 100
1, 93839, Note_on_c, 9, 44, 0
1, 93840, Note_on_c, 9, 44, 100
1, 93959, Note_on_c, 9, 44, 0
1, 93960, Note_on_c, 9, 44, 100
1, 94079, Note_on_c, 9, 40, 0
1, 94079, Note_on_c, 9, 81, 0
1, 94079, Note_on_c, 9, 44, 0
1, 94080, Note_on_c, 9, 33, 100
1, 94080, Note_on_c, 9, 44, 100
1, 94319, Note_on_c, 9, 44, 0
1, 94320, Note_on_c, 9, 44, 100
1, 94439, Note_on_c, 9, 44, 0
1, 94440, Note_on_c, 9, 44, 100
1, 94559, Note_on_c, 9, 33, 0
1, 94559, Note_on_c, 9, 44, 0
1, 94560, Note_on_c, 9, 40, 100
1, 94560, Note_on_c, 9, 44, 100
1, 94799, Note_on_c, 9, 40, 0
1, 94799, Note_on_c, 9, 44, 0
1, 94800, Note_on_c, 9, 33, 100
1, 94800, Note_on_c, 9, 44, 100
1, 94919, Note_on_c, 9, 44, 0
1, 94920, Note_on_c, 9, 44, 100
1, 95039, Note_on_c, 9, 33, 0
1, 95039, Note_on_c, 9, 44, 0
1, 95040, Note_on_c, 9, 33, 100
1, 95040, Note_on_c, 9, 44, 100
1, 95279, Note_on_c, 9, 44, 0
1, 95280, Note_on_c, 9, 44, 100
1, 95399, Note_on_c, 9, 44, 0
1, 95400, Note_on_c, 9, 44, 100
1, 95519, Note_on_c, 9, 33, 0
1, 95519, Note_on_c, 9, 44, 0
1, 95520, Note_on_c, 9, 40, 100
1, 95520, Note_on_c, 9, 81, 100
1, 95520, Note_on_c, 9, 44, 100
1, 95759, Note_on_c, 9, 44, 0
1, 95760, Note_on_c, 9, 44, 100
1, 95879, Note_on_c, 9, 44, 0
1, 95880, Note_on_c, 9, 44, 100
1, 95999, Note_on_c, 9, 40, 0
1, 95999, Note_on_c, 9, 81, 0
1, 95999, Note_on_c, 9, 44, 0
1, 96000, Note_on_c, 9, 33, 100
1, 96000, Note_on_c, 9, 44, 100
1, 96239, Note_on_c, 9, 44, 0
1, 96240, Note_on_c, 9, 44, 100
1, 96359, Note_on_c, 9, 44, 0
1, 96360, Note_on_c, 9, 44, 100
1, 96479, Note_on_c, 9, 33, 0
1, 96479, Note_on_c, 9, 44, 0
1, 96480, Note_on_c, 9, 40, 100
1, 96480, Note_on_c, 9, 44, 100
1, 96719, Note_on_c, 9, 40, 0
1, 96719, Note_on_c, 9, 44, 0
1, 96720, Note_on_c, 9, 33, 100
1, 96720, Note_on_c, 9, 44, 100
1, 96839, Note_on_c, 9, 44, 0
1, 96840, Note_on_c, 9, 44, 100
1, 96959, Note_on_c, 9, 33, 0
1, 96959, Note_on_c, 9, 44, 0
1, 96960, Note_on_c, 9, 33, 100
1, 96960, Note_on_c, 9, 44, 100
1, 97199, Note_on_c, 9, 44, 0
1, 97200, Note_on_c, 9, 44, 100
1, 97319, Note_on_c, 9, 44, 0
1, 97320, Note_on_c, 9, 44, 100
1, 97439, Note_on_c, 9, 33, 0
1, 97439, Note_on_c, 9, 44, 0
1, 97440, Note_on_c, 9, 40, 100
1, 97440, Note_on_c, 9, 81, 100
1, 97440, Note_on_c, 9, 44, 100
1, 97679, Note_on_c, 9, 44, 0
1, 97680, Note_on_c, 9, 44, 100
1, 97799, Note_on_c, 9, 44, 0
1, 97800, Note_on_c, 9, 44, 100
1, 97919, Note_on_c, 9, 40, 0
1, 97919, Note_on_c, 9, 81, 0
1, 97919, Note_on_c, 9, 44, 0
1, 97920, Note_on_c, 9, 33, 100
1, 97920, Note_on_c, 9, 44, 100
1, 98159, Note_on_c, 9, 44, 0
1, 98160, Note_on_c, 9, 44, 100
1, 98279, Note_on_c, 9, 44, 0
1, 98280, Note_on_c, 9, 44, 100
1, 98399, Note_on_c, 9, 33, 0
1, 98399, Note_on_c, 9, 44, 0
1, 98400, Note_on_c, 9, 40, 100
1, 98400, Note_on_c, 9, 44, 100
1, 98639, Note_on_c, 9, 40, 0
1, 98639, Note_on_c, 9, 44, 0
1, 98640, Note_on_c, 9, 33, 100
1, 98640, Note_on_c, 9, 44, 100
1, 98759, Note_on_c, 9, 44, 0
1, 98760, Note_on_c, 9, 44, 100
1, 98879, Note_on_c, 9, 33, 0
1, 98879, Note_on_c, 9, 44, 0
1, 98880, Note_on_c, 9, 33, 100
1, 98880, Note_on_c, 9, 44, 100
1, 99119, Note_on_c, 9, 44, 0
1, 99120, Note_on_c, 9, 44, 100
1, 99239, Note_on_c, 9, 44, 0
1, 99240, Note_on_c, 9, 44, 100
1, 99359, Note_on_c, 9, 33, 0
1, 99359, Note_on_c, 9, 44, 0
1, 99360, Note_on_c, 9, 40, 100
1, 99360, Note_on_c, 9, 81, 100
1, 99360, Note_on_c, 9, 44, 100
1, 99647, Note_on_c, 9, 44, 0
1, 99648, Note_on_c, 9, 44, 100
1, 99743, Note_on_c, 9, 44, 0
1, 99744, Note_on_c, 9, 44, 100
1, 99839, Note_on_c, 9, 40, 0
1, 99839, Note_on_c, 9, 81, 0
1, 99839, Note_on_c, 9, 44, 0
1, 99840, Note_on_c, 9, 33, 100
1, 99840, Note_on_c, 9, 44, 100
1, 100079, Note_on_c, 9, 44, 0
1, 100080, Note_on_c, 9, 44, 100
1, 100199, Note_on_c, 9, 44, 0
1, 100200, Note_on_c, 9, 44, 100
1, 100319, Note_on_c, 9, 33, 0
1, 100319, Note_on_c, 9, 44, 0
1, 100320, Note_on_c, 9, 40, 100
1, 100320, Note_on_c, 9, 44, 100
1, 100559, Note_on_c, 9, 40, 0
1, 100559, Note_on_c, 9, 44, 0
1, 100560, Note_on_c, 9, 33, 100
1, 100560, Note_on_c, 9, 44, 100
1, 100679, Note_on_c, 9, 44, 0
1, 100680, Note_on_c, 9, 44, 100
1, 100799, Note_on_c, 9, 33, 0
1, 100799, Note_on_c, 9, 44, 0
1, 100800, Note_on_c, 9, 33, 100
1, 100800, Note_on_c, 9, 44, 100
1, 101039, Note_on_c, 9, 44, 0
1, 101040, Note_on_c, 9, 44, 100
1, 101159, Note_on_c, 9, 44, 0
1, 101160, Note_on_c, 9, 44, 100
1, 101279, Note_on_c, 9, 33, 0
1, 101279, Note_on_c, 9, 44, 0
1, 101280, Note_on_c, 9, 40, 100
1, 101280, Note_on_c, 9, 81, 100
1, 101280, Note_on_c, 9, 44, 100
1, 101519, Note_on_c, 9, 44, 0
1, 101520, Note_on_c, 9, 44, 100
1, 101639, Note_on_c, 9, 44, 0
1, 101640, Note_on_c, 9, 44, 100
1, 101759, Note_on_c, 9, 40, 0
1, 101759, Note_on_c, 9, 81, 0
1, 101759, Note_on_c, 9, 44, 0
1, 101760, Note_on_c, 9, 33, 100
1, 101760, Note_on_c, 9, 44, 100
1, 101999, Note_on_c, 9, 44, 0
1, 102000, Note_on_c, 9, 44, 100
1, 102119, Note_on_c, 9, 44, 0
1, 102120, Note_on_c, 9, 44, 100
1, 102239, Note_on_c, 9, 33, 0
1, 102239, Note_on_c, 9, 44, 0
1, 102240, Note_on_c, 9, 40, 100
1, 102240, Note_on_c, 9, 44, 100
1, 102479, Note_on_c, 9, 40, 0
1, 102479, Note_on_c, 9, 44, 0
1, 102480, Note_on_c, 9, 33, 100
1, 102480, Note_on_c, 9, 44, 100
1, 102599, Note_on_c, 9, 44, 0
1, 102600, Note_on_c, 9, 44, 100
1, 102719, Note_on_c, 9, 33, 0
1, 102719, Note_on_c, 9, 44, 0
1, 102720, Note_on_c, 9, 33, 100
1, 102720, Note_on_c, 9, 44, 100
1, 102959, Note_on_c, 9, 44, 0
1, 102960, Note_on_c, 9, 44, 100
1, 103079, Note_on_c, 9, 44, 0
1, 103080, Note_on_c, 9, 44, 100
1, 103199, Note_on_c, 9, 33, 0
1, 103199, Note_on_c, 9, 44, 0
1, 103200, Note_on_c, 9, 40, 100
1, 103200, Note_on_c, 9, 81, 100
1, 103200, Note_on_c, 9, 44, 100
1, 103439, Note_on_c, 9, 44, 0
1, 103440, Note_on_c, 9, 44, 100
1, 103559, Note_on_c, 9, 44, 0
1, 103560, Note_on_c, 9, 44, 100
1, 103679, Note_on_c, 9, 40, 0
1, 103679, Note_on_c, 9, 81, 0
1, 103679, Note_on_c, 9, 44, 0
1, 103680, Note_on_c, 9, 33, 100
1, 103680, Note_on_c, 9, 44, 100
1, 103919, Note_on_c, 9, 44, 0
1, 103920, Note_on_c, 9, 44, 100
1, 104039, Note_on_c, 9, 44, 0
1, 104040, Note_on_c, 9, 44, 100
1, 104159, Note_on_c, 9, 33, 0
1, 104159, Note_on_c, 9, 44, 0
1, 104160, Note_on_c, 9, 40, 100
1, 104160, Note_on_c, 9, 44, 100
1, 104399, Note_on_c, 9, 40, 0
1, 104399, Note_on_c, 9, 44, 0
1, 104400, Note_on_c, 9, 33, 100
1, 104400, Note_on_c, 9, 44, 100
1, 104519, Note_on_c, 9, 44, 0
1, 104520, Note_on_c, 9, 44, 100
1, 104639, Note_on_c, 9, 33, 0
1, 104639, Note_on_c, 9, 44, 0
1, 104640, Note_on_c, 9, 33, 100
1, 104640, Note_on_c, 9, 44, 100
1, 104879, Note_on_c, 9, 44, 0
1, 104880, Note_on_c, 9, 44, 100
1, 104999, Note_on_c, 9, 44, 0
1, 105000, Note_on_c, 9, 44, 100
1, 105119, Note_on_c, 9, 33, 0
1, 105119, Note_on_c, 9, 44, 0
1, 105120, Note_on_c, 9, 40, 100
1, 105120, Note_on_c, 9, 81, 100
1, 105120, Note_on_c, 9, 44, 100
1, 105359, Note_on_c, 9, 44, 0
1, 105360, Note_on_c, 9, 44, 100
1, 105479, Note_on_c, 9, 44, 0
1, 105480, Note_on_c, 9, 44, 100
1, 105599, Note_on_c, 9, 40, 0
1, 105599, Note_on_c, 9, 81, 0
1, 105599, Note_on_c, 9, 44, 0
1, 105600, Note_on_c, 9, 33, 100
1, 105600, Note_on_c, 9, 44, 100
1, 105839, Note_on_c, 9, 44, 0
1, 105840, Note_on_c, 9, 44, 100
1, 105959, Note_on_c, 9, 44, 0
1, 105960, Note_on_c, 9, 44, 100
1, 106079, Note_on_c, 9, 33, 0
1, 106079, Note_on_c, 9, 44, 0
1, 106080, Note_on_c, 9, 40, 100
1, 106080, Note_on_c, 9, 44, 100
1, 106319, Note_on_c, 9, 40, 0
1, 106319, Note_on_c, 9, 44, 0
1, 106320, Note_on_c, 9, 33, 100
1, 106320, Note_on_c, 9, 44, 100
1, 106439, Note_on_c, 9, 44, 0
1, 106440, Note_on_c, 9, 44, 100
1, 106559, Note_on_c, 9, 33, 0
1, 106559, Note_on_c, 9, 44, 0
1, 106560, Note_on_c, 9, 33, 100
1, 106560, Note_on_c, 9, 44, 100
1, 106799, Note_on_c, 9, 44, 0
1, 106800, Note_on_c, 9, 44, 100
1, 106919, Note_on_c, 9, 44, 0
1, 106920, Note_on_c, 9, 44, 100
1, 107039, Note_on_c, 9, 33, 0
1, 107039, Note_on_c, 9, 44, 0
1, 107040, Note_on_c, 9, 40, 100
1, 107040, Note_on_c, 9, 81, 100
1, 107040, Note_on_c, 9, 44, 100
1, 107279, Note_on_c, 9, 44, 0
1, 107280, Note_on_c, 9, 44, 100
1, 107399, Note_on_c, 9, 44, 0
1, 107400, Note_on_c, 9, 44, 100
1, 107519, Note_on_c, 9, 40, 0
1, 107519, Note_on_c, 9, 81, 0
1, 107519, Note_on_c, 9, 44, 0
1, 107520, Note_on_c, 9, 33, 100
1, 107520, Note_on_c, 9, 44, 100
1, 107759, Note_on_c, 9, 44, 0
1, 107760, Note_on_c, 9, 44, 100
1, 107879, Note_on_c, 9, 44, 0
1, 107880, Note_on_c, 9, 44, 100
1, 107999, Note_on_c, 9, 33, 0
1, 107999, Note_on_c, 9, 44, 0
1, 108000, Note_on_c, 9, 40, 100
1, 108000, Note_on_c, 9, 44, 100
1, 108239, Note_on_c, 9, 40, 0
1, 108239, Note_on_c, 9, 44, 0
1, 108240, Note_on_c, 9, 33, 100
1, 108240, Note_on_c, 9, 44, 100
1, 108359, Note_on_c, 9, 44, 0
1, 108360, Note_on_c, 9, 44, 100
1, 108479, Note_on_c, 9, 33, 0
1, 108479, Note_on_c, 9, 44, 0
1, 108480, Note_on_c, 9, 33, 100
1, 108480, Note_on_c, 9, 44, 100
1, 108719, Note_on_c, 9, 33, 0
1, 108719, Note_on_c, 9, 44, 0
1, 108720, Note_on_c, 9, 50, 100
1, 108720, Note_on_c, 9, 44, 100
1, 108839, Note_on_c, 9, 44, 0
1, 108840, Note_on_c, 9, 44, 100
1, 108959, Note_on_c, 9, 50, 0
1, 108959, Note_on_c, 9, 44, 0
1, 108960, Note_on_c, 9, 40, 100
1, 108960, Note_on_c, 9, 47, 100
1, 108960, Note_on_c, 9, 81, 100
1, 108960, Note_on_c, 9, 44, 100
1, 109199, Note_on_c, 9, 40, 0
1, 109199, Note_on_c, 9, 47, 0
1, 109199, Note_on_c, 9, 81, 0
1, 109199, Note_on_c, 9, 44, 0
1, 109200, Note_on_c, 9, 45, 100
1, 109200, Note_on_c, 9, 44, 100
1, 109319, Note_on_c, 9, 44, 0
1, 109320, Note_on_c, 9, 44, 100
1, 109439, Note_on_c, 9, 45, 0
1, 109439, Note_on_c, 9, 44, 0
1, 109440, Note_on_c, 9, 33, 100
1, 109440, Note_on_c, 9, 44, 100
1, 109679, Note_on_c, 9, 44, 0
1, 109680, Note_on_c, 9, 44, 100
1, 109799, Note_on_c, 9, 44, 0
1, 109800, Note_on_c, 9, 44, 100
1, 109919, Note_on_c, 9, 33, 0
1, 109919, Note_on_c, 9, 44, 0
1, 109920, Note_on_c, 9, 40, 100
1, 109920, Note_on_c, 9, 44, 100
1, 110159, Note_on_c, 9, 40, 0
1, 110159, Note_on_c, 9, 44, 0
1, 110160, Note_on_c, 9, 33, 100
1, 110160, Note_on_c, 9, 44, 100
1, 110279, Note_on_c, 9, 44, 0
1, 110280, Note_on_c, 9, 44, 100
1, 110399, Note_on_c, 9, 33, 0
1, 110399, Note_on_c, 9, 44, 0
1, 110400, Note_on_c, 9, 33, 100
1, 110400, Note_on_c, 9, 44, 100
1, 110639, Note_on_c, 9, 44, 0
1, 110640, Note_on_c, 9, 44, 100
1, 110759, Note_on_c, 9, 44, 0
1, 110760, Note_on_c, 9, 44, 100
1, 110879, Note_on_c, 9, 33, 0
1, 110879, Note_on_c, 9, 44, 0
1, 110880, Note_on_c, 9, 40, 100
1, 110880, Note_on_c, 9, 81, 100
1, 110880, Note_on_c, 9, 44, 100
1, 111119, Note_on_c, 9, 44, 0
1, 111120, Note_on_c, 9, 44, 100
1, 111239, Note_on_c, 9, 44, 0
1, 111240, Note_on_c, 9, 44, 100
1, 111359, Note_on_c, 9, 40, 0
1, 111359, Note_on_c, 9, 81, 0
1, 111359, Note_on_c, 9, 44, 0
1, 111360, Note_on_c, 9, 33, 100
1, 111360, Note_on_c, 9, 44, 100
1, 111599, Note_on_c, 9, 44, 0
1, 111600, Note_on_c, 9, 44, 100
1, 111719, Note_on_c, 9, 44, 0
1, 111720, Note_on_c, 9, 44, 100
1, 111839, Note_on_c, 9, 33, 0
1, 111839, Note_on_c, 9, 44, 0
1, 111840, Note_on_c, 9, 40, 100
1, 111840, Note_on_c, 9, 44, 100
1, 112079, Note_on_c, 9, 40, 0
1, 112079, Note_on_c, 9, 44, 0
1, 112080, Note_on_c, 9, 33, 100
1, 112080, Note_on_c, 9, 44, 100
1, 112199, Note_on_c, 9, 44, 0
1, 112200, Note_on_c, 9, 44, 100
1, 112319, Note_on_c, 9, 33, 0
1, 112319, Note_on_c, 9, 44, 0
1, 112320, Note_on_c, 9, 33, 100
1, 112320, Note_on_c, 9, 44, 100
1, 112559, Note_on_c, 9, 44, 0
1, 112560, Note_on_c, 9, 44, 100
1, 112679, Note_on_c, 9, 44, 0
1, 112680, Note_on_c, 9, 44, 100
1, 112799, Note_on_c, 9, 33, 0
1, 112799, Note_on_c, 9, 44, 0
1, 112800, Note_on_c, 9, 40, 100
1, 112800, Note_on_c, 9, 81, 100
1, 112800, Note_on_c, 9, 44, 100
1, 113039, Note_on_c, 9, 44, 0
1, 113040, Note_on_c, 9, 44, 100
1, 113159, Note_on_c, 9, 44, 0
1, 113160, Note_on_c, 9, 44, 100
1, 113279, Note_on_c, 9, 40, 0
1, 113279, Note_on_c, 9, 81, 0
1, 113279, Note_on_c, 9, 44, 0
1, 113280, Note_on_c, 9, 33, 100
1, 113280, Note_on_c, 9, 44, 100
1, 113519, Note_on_c, 9, 44, 0
1, 113520, Note_on_c, 9, 44, 100
1, 113639, Note_on_c, 9, 44, 0
1, 113640, Note_on_c, 9, 44, 100
1, 113759, Note_on_c, 9, 33, 0
1, 113759, Note_on_c, 9, 44, 0
1, 113760, Note_on_c, 9, 40, 100
1, 113760, Note_on_c, 9, 44, 100
1, 113999, Note_on_c, 9, 40, 0
1, 113999, Note_on_c, 9, 44, 0
1, 114000, Note_on_c, 9, 33, 100
1, 114000, Note_on_c, 9, 44, 100
1, 114119, Note_on_c, 9, 44, 0
1, 114120, Note_on_c, 9, 44, 100
1, 114239, Note_on_c, 9, 33, 0
1, 114239, Note_on_c, 9, 44, 0
1, 114240, Note_on_c, 9, 33, 100
1, 114240, Note_on_c, 9, 44, 100
1, 114479, Note_on_c, 9, 44, 0
1, 114480, Note_on_c, 9, 44, 100
1, 114599, Note_on_c, 9, 44, 0
1, 114600, Note_on_c, 9, 44, 100
1, 114719, Note_on_c, 9, 33, 0
1, 114719, Note_on_c, 9, 44, 0
1, 114720, Note_on_c, 9, 40, 100
1, 114720, Note_on_c, 9, 81, 100
1, 114720, Note_on_c, 9, 44, 100
1, 114959, Note_on_c, 9, 44, 0
1, 114960, Note_on_c, 9, 44, 100
1, 115079, Note_on_c, 9, 44, 0
1, 115080, Note_on_c, 9, 44, 100
1, 115199, Note_on_c, 9, 40, 0
1, 115199, Note_on_c, 9, 81, 0
1, 115199, Note_on_c, 9, 44, 0
1, 115200, Note_on_c, 9, 33, 100
1, 115200, Note_on_c, 9, 44, 100
1, 115439, Note_on_c, 9, 44, 0
1, 115440, Note_on_c, 9, 44, 100
1, 115559, Note_on_c, 9, 44, 0
1, 115560, Note_on_c, 9, 44, 100
1, 115679, Note_on_c, 9, 33, 0
1, 115679, Note_on_c, 9, 44, 0
1, 115680, Note_on_c, 9, 40, 100
1, 115680, Note_on_c, 9, 44, 100
1, 115919, Note_on_c, 9, 40, 0
1, 115919, Note_on_c, 9, 44, 0
1, 115920, Note_on_c, 9, 33, 100
1, 115920, Note_on_c, 9, 44, 100
1, 116039, Note_on_c, 9, 44, 0
1, 116040, Note_on_c, 9, 44, 100
1, 116159, Note_on_c, 9, 33, 0
1, 116159, Note_on_c, 9, 44, 0
1, 116160, Note_on_c, 9, 33, 100
1, 116160, Note_on_c, 9, 44, 100
1, 116399, Note_on_c, 9, 33, 0
1, 116399, Note_on_c, 9, 44, 0
1, 116400, Note_on_c, 9, 50, 100
1, 116400, Note_on_c, 9, 44, 100
1, 116519, Note_on_c, 9, 44, 0
1, 116520, Note_on_c, 9, 44, 100
1, 116639, Note_on_c, 9, 50, 0
1, 116639, Note_on_c, 9, 44, 0
1, 116640, Note_on_c, 9, 40, 100
1, 116640, Note_on_c, 9, 45, 100
1, 116640, Note_on_c, 9, 81, 100
1, 116640, Note_on_c, 9, 44, 100
1, 116879, Note_on_c, 9, 44, 0
1, 116880, Note_on_c, 9, 44, 100
1, 116880, Note_on_c, 9, 43, 100
1, 116999, Note_on_c, 9, 44, 0
1, 116999, Note_on_c, 9, 43, 0
1, 117000, Note_on_c, 9, 44, 100
1, 117119, Note_on_c, 9, 40, 0
1, 117119, Note_on_c, 9, 45, 0
1, 117119, Note_on_c, 9, 81, 0
1, 117119, Note_on_c, 9, 44, 0
1, 117120, Note_on_c, 9, 33, 100
1, 117120, Note_on_c, 9, 44, 100
1, 117359, Note_on_c, 9, 44, 0
1, 117360, Note_on_c, 9, 44, 100
1, 117479, Note_on_c, 9, 44, 0
1, 117480, Note_on_c, 9, 44, 100
1, 117599, Note_on_c, 9, 33, 0
1, 117599, Note_on_c, 9, 44, 0
1, 117600, Note_on_c, 9, 40, 100
1, 117600, Note_on_c, 9, 44, 100
1, 117839, Note_on_c, 9, 40, 0
1, 117839, Note_on_c, 9, 44, 0
1, 117840, Note_on_c, 9, 33, 100
1, 117840, Note_on_c, 9, 44, 100
1, 117959, Note_on_c, 9, 44, 0
1, 117960, Note_on_c, 9, 44, 100
1, 118079, Note_on_c, 9, 33, 0
1, 118079, Note_on_c, 9, 44, 0
1, 118080, Note_on_c, 9, 33, 100
1, 118080, Note_on_c, 9, 44, 100
1, 118319, Note_on_c, 9, 44, 0
1, 118320, Note_on_c, 9, 44, 100
1, 118439, Note_on_c, 9, 44, 0
1, 118440, Note_on_c, 9, 44, 100
1, 118559, Note_on_c, 9, 33, 0
1, 118559, Note_on_c, 9, 44, 0
1, 118560, Note_on_c, 9, 40, 100
1, 118560, Note_on_c, 9, 81, 100
1, 118560, Note_on_c, 9, 44, 100
1, 118799, Note_on_c, 9, 44, 0
1, 118800, Note_on_c, 9, 44, 100
1, 118919, Note_on_c, 9, 44, 0
1, 118920, Note_on_c, 9, 44, 100
1, 119039, Note_on_c, 9, 40, 0
1, 119039, Note_on_c, 9, 81, 0
1, 119039, Note_on_c, 9, 44, 0
1, 119040, Note_on_c, 9, 33, 100
1, 119040, Note_on_c, 9, 44, 100
1, 119279, Note_on_c, 9, 44, 0
1, 119280, Note_on_c, 9, 44, 100
1, 119399, Note_on_c, 9, 44, 0
1, 119400, Note_on_c, 9, 44, 100
1, 119519, Note_on_c, 9, 33, 0
1, 119519, Note_on_c, 9, 44, 0
1, 119520, Note_on_c, 9, 40, 100
1, 119520, Note_on_c, 9, 44, 100
1, 119759, Note_on_c, 9, 40, 0
1, 119759, Note_on_c, 9, 44, 0
1, 119760, Note_on_c, 9, 33, 100
1, 119760, Note_on_c, 9, 44, 100
1, 119879, Note_on_c, 9, 44, 0
1, 119880, Note_on_c, 9, 44, 100
1, 119999, Note_on_c, 9, 33, 0
1, 119999, Note_on_c, 9, 44, 0
1, 120000, Note_on_c, 9, 33, 100
1, 120000, Note_on_c, 9, 44, 100
1, 120239, Note_on_c, 9, 44, 0
1, 120240, Note_on_c, 9, 44, 100
1, 120359, Note_on_c, 9, 44, 0
1, 120360, Note_on_c, 9, 44, 100
1, 120479, Note_on_c, 9, 33, 0
1, 120479, Note_on_c, 9, 44, 0
1, 120480, Note_on_c, 9, 40, 100
1, 120480, Note_on_c, 9, 81, 100
1, 120480, Note_on_c, 9, 44, 100
1, 120719, Note_on_c, 9, 44, 0
1, 120720, Note_on_c, 9, 44, 100
1, 120839, Note_on_c, 9, 44, 0
1, 120840, Note_on_c, 9, 44, 100
1, 120959, Note_on_c, 9, 40, 0
1, 120959, Note_on_c, 9, 81, 0
1, 120959, Note_on_c, 9, 44, 0
1, 120960, Note_on_c, 9, 33, 100
1, 120960, Note_on_c, 9, 44, 100
1, 121199, Note_on_c, 9, 44, 0
1, 121200, Note_on_c, 9, 44, 100
1, 121319, Note_on_c, 9, 44, 0
1, 121320, Note_on_c, 9, 44, 100
1, 121439, Note_on_c, 9, 33, 0
1, 121439, Note_on_c, 9, 44, 0
1, 121440, Note_on_c, 9, 40, 100
1, 121440, Note_on_c, 9, 44, 100
1, 121679, Note_on_c, 9, 40, 0
1, 121679, Note_on_c, 9, 44, 0
1, 121680, Note_on_c, 9, 33, 100
1, 121680, Note_on_c, 9, 44, 100
1, 121799, Note_on_c, 9, 44, 0
1, 121800, Note_on_c, 9, 44, 100
1, 121919, Note_on_c, 9, 33, 0
1, 121919, Note_on_c, 9, 44, 0
1, 121920, Note_on_c, 9, 33, 100
1, 121920, Note_on_c, 9, 44, 100
1, 122159, Note_on_c, 9, 44, 0
1, 122160, Note_on_c, 9, 44, 100
1, 122279, Note_on_c, 9, 44, 0
1, 122280, Note_on_c, 9, 44, 100
1, 122399, Note_on_c, 9, 33, 0
1, 122399, Note_on_c, 9, 44, 0
1, 122400, Note_on_c, 9, 40, 100
1, 122400, Note_on_c, 9, 81, 100
1, 122400, Note_on_c, 9, 44, 100
1, 122639, Note_on_c, 9, 44, 0
1, 122640, Note_on_c, 9, 44, 100
1, 122759, Note_on_c, 9, 44, 0
1, 122760, Note_on_c, 9, 44, 100
1, 122879, Note_on_c, 9, 40, 0
1, 122879, Note_on_c, 9, 81, 0
1, 122879, Note_on_c, 9, 44, 0
1, 122880, Note_on_c, 9, 33, 100
1, 122880, Note_on_c, 9, 44, 100
1, 123119, Note_on_c, 9, 44, 0
1, 123120, Note_on_c, 9, 44, 100
1, 123239, Note_on_c, 9, 44, 0
1, 123240, Note_on_c, 9, 44, 100
1, 123359, Note_on_c, 9, 33, 0
1, 123359, Note_on_c, 9, 44, 0
1, 123360, Note_on_c, 9, 40, 100
1, 123360, Note_on_c, 9, 44, 100
1, 123599, Note_on_c, 9, 40, 0
1, 123599, Note_on_c, 9, 44, 0
1, 123600, Note_on_c, 9, 33, 100
1, 123600, Note_on_c, 9, 44, 100
1, 123719, Note_on_c, 9, 44, 0
1, 123720, Note_on_c, 9, 44, 100
1, 123839, Note_on_c, 9, 33, 0
1, 123839, Note_on_c, 9, 44, 0
1, 123840, Note_on_c, 9, 33, 100
1, 123840, Note_on_c, 9, 44, 100
1, 124079, Note_on_c, 9, 44, 0
1, 124080, Note_on_c, 9, 44, 100
1, 124199, Note_on_c, 9, 44, 0
1, 124200, Note_on_c, 9, 44, 100
1, 124319, Note_on_c, 9, 33, 0
1, 124319, Note_on_c, 9, 44, 0
1, 124320, Note_on_c, 9, 40, 100
1, 124320, Note_on_c, 9, 81, 100
1, 124320, Note_on_c, 9, 44, 100
1, 124559, Note_on_c, 9, 44, 0
1, 124560, Note_on_c, 9, 44, 100
1, 124679, Note_on_c, 9, 44, 0
1, 124680, Note_on_c, 9, 44, 100
1, 124799, Note_on_c, 9, 40, 0
1, 124799, Note_on_c, 9, 81, 0
1, 124799, Note_on_c, 9, 44, 0
1, 124800, Note_on_c, 9, 33, 100
1, 124800, Note_on_c, 9, 44, 100
1, 125039, Note_on_c, 9, 44, 0
1, 125040, Note_on_c, 9, 44, 100
1, 125159, Note_on_c, 9, 44, 0
1, 125160, Note_on_c, 9, 44, 100
1, 125279, Note_on_c, 9, 33, 0
1, 125279, Note_on_c, 9, 44, 0
1, 125280, Note_on_c, 9, 40, 100
1, 125280, Note_on_c, 9, 44, 100
1, 125519, Note_on_c, 9, 40, 0
1, 125519, Note_on_c, 9, 44, 0
1, 125520, Note_on_c, 9, 33, 100
1, 125520, Note_on_c, 9, 44, 100
1, 125639, Note_on_c, 9, 44, 0
1, 125640, Note_on_c, 9, 44, 100
1, 125759, Note_on_c, 9, 33, 0
1, 125759, Note_on_c, 9, 44, 0
1, 125760, Note_on_c, 9, 33, 100
1, 125760, Note_on_c, 9, 44, 100
1, 125999, Note_on_c, 9, 44, 0
1, 126000, Note_on_c, 9, 44, 100
1, 126119, Note_on_c, 9, 44, 0
1, 126120, Note_on_c, 9, 44, 100
1, 126239, Note_on_c, 9, 33, 0
1, 126239, Note_on_c, 9, 44, 0
1, 126240, Note_on_c, 9, 40, 100
1, 126240, Note_on_c, 9, 81, 100
1, 126240, Note_on_c, 9, 44, 100
1, 126479, Note_on_c, 9, 44, 0
1, 126480, Note_on_c, 9, 44, 100
1, 126599, Note_on_c, 9, 44, 0
1, 126600, Note_on_c, 9, 44, 100
1, 126719, Note_on_c, 9, 40, 0
1, 126719, Note_on_c, 9, 81, 0
1, 126719, Note_on_c, 9, 44, 0
1, 126720, Note_on_c, 9, 33, 100
1, 126720, Note_on_c, 9, 44, 100
1, 126959, Note_on_c, 9, 44, 0
1, 126960, Note_on_c, 9, 44, 100
1, 127079, Note_on_c, 9, 44, 0
1, 127080, Note_on_c, 9, 44, 100
1, 127199, Note_on_c, 9, 33, 0
1, 127199, Note_on_c, 9, 44, 0
1, 127200, Note_on_c, 9, 40, 100
1, 127200, Note_on_c, 9, 44, 100
1, 127439, Note_on_c, 9, 40, 0
1, 127439, Note_on_c, 9, 44, 0
1, 127440, Note_on_c, 9, 33, 100
1, 127440, Note_on_c, 9, 44, 100
1, 127559, Note_on_c, 9, 44, 0
1, 127560, Note_on_c, 9, 44, 100
1, 127679, Note_on_c, 9, 33, 0
1, 127679, Note_on_c, 9, 44, 0
1, 127680, Note_on_c, 9, 33, 100
1, 127680, Note_on_c, 9, 44, 100
1, 127919, Note_on_c, 9, 44, 0
1, 127920, Note_on_c, 9, 44, 100
1, 128039, Note_on_c, 9, 44, 0
1, 128040, Note_on_c, 9, 44, 100
1, 128159, Note_on_c, 9, 33, 0
1, 128159, Note_on_c, 9, 44, 0
1, 128160, Note_on_c, 9, 40, 100
1, 128160, Note_on_c, 9, 81, 100
1, 128160, Note_on_c, 9, 44, 100
1, 128399, Note_on_c, 9, 44, 0
1, 128400, Note_on_c, 9, 44, 100
1, 128519, Note_on_c, 9, 44, 0
1, 128520, Note_on_c, 9, 44, 100
1, 128639, Note_on_c, 9, 40, 0
1, 128639, Note_on_c, 9, 81, 0
1, 128639, Note_on_c, 9, 44, 0
1, 128640, Note_on_c, 9, 33, 100
1, 128640, Note_on_c, 9, 44, 100
1, 128879, Note_on_c, 9, 44, 0
1, 128880, Note_on_c, 9, 44, 100
1, 128999, Note_on_c, 9, 44, 0
1, 129000, Note_on_c, 9, 44, 100
1, 129119, Note_on_c, 9, 33, 0
1, 129119, Note_on_c, 9, 44, 0
1, 129120, Note_on_c, 9, 40, 100
1, 129120, Note_on_c, 9, 44, 100
1, 129359, Note_on_c, 9, 40, 0
1, 129359, Note_on_c, 9, 44, 0
1, 129360, Note_on_c, 9, 33, 100
1, 129360, Note_on_c, 9, 44, 100
1, 129479, Note_on_c, 9, 44, 0
1, 129480, Note_on_c, 9, 44, 100
1, 129599, Note_on_c, 9, 33, 0
1, 129599, Note_on_c, 9, 44, 0
1, 129600, Note_on_c, 9, 33, 100
1, 129600, Note_on_c, 9, 44, 100
1, 129839, Note_on_c, 9, 44, 0
1, 129840, Note_on_c, 9, 44, 100
1, 129959, Note_on_c, 9, 44, 0
1, 129960, Note_on_c, 9, 44, 100
1, 130079, Note_on_c, 9, 33, 0
1, 130079, Note_on_c, 9, 44, 0
1, 130080, Note_on_c, 9, 40, 100
1, 130080, Note_on_c, 9, 81, 100
1, 130080, Note_on_c, 9, 44, 100
1, 130319, Note_on_c, 9, 44, 0
1, 130320, Note_on_c, 9, 44, 100
1, 130439, Note_on_c, 9, 44, 0
1, 130440, Note_on_c, 9, 44, 100
1, 130559, Note_on_c, 9, 40, 0
1, 130559, Note_on_c, 9, 81, 0
1, 130559, Note_on_c, 9, 44, 0
1, 130560, Note_on_c, 9, 33, 100
1, 130560, Note_on_c, 9, 44, 100
1, 130799, Note_on_c, 9, 44, 0
1, 130800, Note_on_c, 9, 44, 100
1, 130919, Note_on_c, 9, 44, 0
1, 130920, Note_on_c, 9, 44, 100
1, 131039, Note_on_c, 9, 33, 0
1, 131039, Note_on_c, 9, 44, 0
1, 131040, Note_on_c, 9, 40, 100
1, 131040, Note_on_c, 9, 44, 100
1, 131279, Note_on_c, 9, 40, 0
1, 131279, Note_on_c, 9, 44, 0
1, 131280, Note_on_c, 9, 33, 100
1, 131280, Note_on_c, 9, 44, 100
1, 131399, Note_on_c, 9, 44, 0
1, 131400, Note_on_c, 9, 44, 100
1, 131519, Note_on_c, 9, 33, 0
1, 131519, Note_on_c, 9, 44, 0
1, 131520, Note_on_c, 9, 33, 100
1, 131520, Note_on_c, 9, 44, 100
1, 131759, Note_on_c, 9, 44, 0
1, 131760, Note_on_c, 9, 44, 100
1, 131879, Note_on_c, 9, 44, 0
1, 131880, Note_on_c, 9, 44, 100
1, 131999, Note_on_c, 9, 33, 0
1, 131999, Note_on_c, 9, 44, 0
1, 132000, Note_on_c, 9, 40, 100
1, 132000, Note_on_c, 9, 81, 100
1, 132000, Note_on_c, 9, 44, 100
1, 132239, Note_on_c, 9, 44, 0
1, 132240, Note_on_c, 9, 44, 100
1, 132359, Note_on_c, 9, 44, 0
1, 132360, Note_on_c, 9, 44, 100
1, 132479, Note_on_c, 9, 40, 0
1, 132479, Note_on_c, 9, 81, 0
1, 132479, Note_on_c, 9, 44, 0
1, 132480, Note_on_c, 9, 33, 100
1, 132480, Note_on_c, 9, 44, 100
1, 132719, Note_on_c, 9, 44, 0
1, 132720, Note_on_c, 9, 44, 100
1, 132839, Note_on_c, 9, 44, 0
1, 132840, Note_on_c, 9, 44, 100
1, 132959, Note_on_c, 9, 33, 0
1, 132959, Note_on_c, 9, 44, 0
1, 132960, Note_on_c, 9, 40, 100
1, 132960, Note_on_c, 9, 44, 100
1, 133199, Note_on_c, 9, 40, 0
1, 133199, Note_on_c, 9, 44, 0
1, 133200, Note_on_c, 9, 33, 100
1, 133200, Note_on_c, 9, 44, 100
1, 133319, Note_on_c, 9, 44, 0
1, 133320, Note_on_c, 9, 44, 100
1, 133439, Note_on_c, 9, 33, 0
1, 133439, Note_on_c, 9, 44, 0
1, 133440, Note_on_c, 9, 33, 100
1, 133440, Note_on_c, 9, 44, 100
1, 133679, Note_on_c, 9, 44, 0
1, 133680, Note_on_c, 9, 44, 100
1, 133799, Note_on_c, 9, 44, 0
1, 133800, Note_on_c, 9, 44, 100
1, 133919, Note_on_c, 9, 33, 0
1, 133919, Note_on_c, 9, 44, 0
1, 133920, Note_on_c, 9, 40, 100
1, 133920, Note_on_c, 9, 81, 100
1, 133920, Note_on_c, 9, 44, 100
1, 134159, Note_on_c, 9, 44, 0
1, 134160, Note_on_c, 9, 44, 100
1, 134279, Note_on_c, 9, 44, 0
1, 134280, Note_on_c, 9, 44, 100
1, 134399, Note_on_c, 9, 40, 0
1, 134399, Note_on_c, 9, 81, 0
1, 134399, Note_on_c, 9, 44, 0
1, 134400, Note_on_c, 9, 33, 100
1, 134400, Note_on_c, 9, 44, 100
1, 134639, Note_on_c, 9, 44, 0
1, 134640, Note_on_c, 9, 44, 100
1, 134759, Note_on_c, 9, 44, 0
1, 134760, Note_on_c, 9, 44, 100
1, 134879, Note_on_c, 9, 33, 0
1, 134879, Note_on_c, 9, 44, 0
1, 134880, Note_on_c, 9, 40, 100
1, 134880, Note_on_c, 9, 44, 100
1, 135119, Note_on_c, 9, 40, 0
1, 135119, Note_on_c, 9, 44, 0
1, 135120, Note_on_c, 9, 33, 100
1, 135120, Note_on_c, 9, 44, 100
1, 135239, Note_on_c, 9, 44, 0
1, 135240, Note_on_c, 9, 44, 100
1, 135359, Note_on_c, 9, 33, 0
1, 135359, Note_on_c, 9, 44, 0
1, 135360, Note_on_c, 9, 33, 100
1, 135360, Note_on_c, 9, 44, 100
1, 135599, Note_on_c, 9, 44, 0
1, 135600, Note_on_c, 9, 44, 100
1, 135719, Note_on_c, 9, 44, 0
1, 135720, Note_on_c, 9, 44, 100
1, 135839, Note_on_c, 9, 33, 0
1, 135839, Note_on_c, 9, 44, 0
1, 135840, Note_on_c, 9, 40, 100
1, 135840, Note_on_c, 9, 81, 100
1, 135840, Note_on_c, 9, 44, 100
1, 136079, Note_on_c, 9, 44, 0
1, 136080, Note_on_c, 9, 44, 100
1, 136199, Note_on_c, 9, 44, 0
1, 136200, Note_on_c, 9, 44, 100
1, 136319, Note_on_c, 9, 40, 0
1, 136319, Note_on_c, 9, 81, 0
1, 136319, Note_on_c, 9, 44, 0
1, 136320, Note_on_c, 9, 33, 100
1, 136320, Note_on_c, 9, 44, 100
1, 136559, Note_on_c, 9, 44, 0
1, 136560, Note_on_c, 9, 44, 100
1, 136679, Note_on_c, 9, 44, 0
1, 136680, Note_on_c, 9, 44, 100
1, 136799, Note_on_c, 9, 33, 0
1, 136799, Note_on_c, 9, 44, 0
1, 136800, Note_on_c, 9, 40, 100
1, 136800, Note_on_c, 9, 44, 100
1, 137039, Note_on_c, 9, 40, 0
1, 137039, Note_on_c, 9, 44, 0
1, 137040, Note_on_c, 9, 33, 100
1, 137040, Note_on_c, 9, 44, 100
1, 137159, Note_on_c, 9, 44, 0
1, 137160, Note_on_c, 9, 44, 100
1, 137279, Note_on_c, 9, 33, 0
1, 137279, Note_on_c, 9, 44, 0
1, 137280, Note_on_c, 9, 33, 100
1, 137280, Note_on_c, 9, 44, 100
1, 137519, Note_on_c, 9, 44, 0
1, 137520, Note_on_c, 9, 44, 100
1, 137639, Note_on_c, 9, 44, 0
1, 137640, Note_on_c, 9, 44, 100
1, 137759, Note_on_c, 9, 33, 0
1, 137759, Note_on_c, 9, 44, 0
1, 137760, Note_on_c, 9, 40, 100
1, 137760, Note_on_c, 9, 81, 100
1, 137760, Note_on_c, 9, 44, 100
1, 137999, Note_on_c, 9, 44, 0
1, 138000, Note_on_c, 9, 44, 100
1, 138119, Note_on_c, 9, 44, 0
1, 138120, Note_on_c, 9, 44, 100
1, 138239, Note_on_c, 9, 40, 0
1, 138239, Note_on_c, 9, 81, 0
1, 138239, Note_on_c, 9, 44, 0
1, 138240, Note_on_c, 9, 33, 100
1, 138240, Note_on_c, 9, 44, 100
1, 138479, Note_on_c, 9, 44, 0
1, 138480, Note_on_c, 9, 44, 100
1, 138599, Note_on_c, 9, 44, 0
1, 138600, Note_on_c, 9, 44, 100
1, 138719, Note_on_c, 9, 33, 0
1, 138719, Note_on_c, 9, 44, 0
1, 138720, Note_on_c, 9, 40, 100
1, 138720, Note_on_c, 9, 44, 100
1, 138959, Note_on_c, 9, 40, 0
1, 138959, Note_on_c, 9, 44, 0
1, 138960, Note_on_c, 9, 33, 100
1, 138960, Note_on_c, 9, 44, 100
1, 139079, Note_on_c, 9, 44, 0
1, 139080, Note_on_c, 9, 44, 100
1, 139199, Note_on_c, 9, 33, 0
1, 139199, Note_on_c, 9, 44, 0
1, 139200, Note_on_c, 9, 33, 100
1, 139200, Note_on_c, 9, 44, 100
1, 139439, Note_on_c, 9, 44, 0
1, 139440, Note_on_c, 9, 44, 100
1, 139559, Note_on_c, 9, 44, 0
1, 139560, Note_on_c, 9, 44, 100
1, 139679, Note_on_c, 9, 33, 0
1, 139679, Note_on_c, 9, 44, 0
1, 139680, Note_on_c, 9, 40, 100
1, 139680, Note_on_c, 9, 81, 100
1, 139680, Note_on_c, 9, 44, 100
1, 139919, Note_on_c, 9, 44, 0
1, 139920, Note_on_c, 9, 44, 100
1, 140039, Note_on_c, 9, 44, 0
1, 140040, Note_on_c, 9, 44, 100
1, 140159, Note_on_c, 9, 40, 0
1, 140159, Note_on_c, 9, 81, 0
1, 140159, Note_on_c, 9, 44, 0
1, 140160, Note_on_c, 9, 33, 100
1, 140160, Note_on_c, 9, 44, 100
1, 140399, Note_on_c, 9, 44, 0
1, 140400, Note_on_c, 9, 44, 100
1, 140519, Note_on_c, 9, 44, 0
1, 140520, Note_on_c, 9, 44, 100
1, 140639, Note_on_c, 9, 33, 0
1, 140639, Note_on_c, 9, 44, 0
1, 140640, Note_on_c, 9, 40, 100
1, 140640, Note_on_c, 9, 44, 100
1, 140879, Note_on_c, 9, 40, 0
1, 140879, Note_on_c, 9, 44, 0
1, 140880, Note_on_c, 9, 33, 100
1, 140880, Note_on_c, 9, 44, 100
1, 140999, Note_on_c, 9, 44, 0
1, 141000, Note_on_c, 9, 44, 100
1, 141119, Note_on_c, 9, 33, 0
1, 141119, Note_on_c, 9, 44, 0
1, 141120, Note_on_c, 9, 33, 100
1, 141120, Note_on_c, 9, 44, 100
1, 141359, Note_on_c, 9, 44, 0
1, 141360, Note_on_c, 9, 44, 100
1, 141479, Note_on_c, 9, 44, 0
1, 141480, Note_on_c, 9, 44, 100
1, 141599, Note_on_c, 9, 33, 0
1, 141599, Note_on_c, 9, 44, 0
1, 141600, Note_on_c, 9, 40, 100
1, 141600, Note_on_c, 9, 81, 100
1, 141600, Note_on_c, 9, 44, 100
1, 141839, Note_on_c, 9, 44, 0
1, 141840, Note_on_c, 9, 44, 100
1, 141959, Note_on_c, 9, 44, 0
1, 141960, Note_on_c, 9, 44, 100
1, 142079, Note_on_c, 9, 40, 0
1, 142079, Note_on_c, 9, 81, 0
1, 142079, Note_on_c, 9, 44, 0
1, 142080, Note_on_c, 9, 33, 100
1, 142080, Note_on_c, 9, 44, 100
1, 142319, Note_on_c, 9, 44, 0
1, 142320, Note_on_c, 9, 44, 100
1, 142439, Note_on_c, 9, 44, 0
1, 142440, Note_on_c, 9, 44, 100
1, 142559, Note_on_c, 9, 33, 0
1, 142559, Note_on_c, 9, 44, 0
1, 142560, Note_on_c, 9, 40, 100
1, 142560, Note_on_c, 9, 44, 100
1, 142799, Note_on_c, 9, 40, 0
1, 142799, Note_on_c, 9, 44, 0
1, 142800, Note_on_c, 9, 33, 100
1, 142800, Note_on_c, 9, 44, 100
1, 142919, Note_on_c, 9, 44, 0
1, 142920, Note_on_c, 9, 44, 100
1, 143039, Note_on_c, 9, 33, 0
1, 143039, Note_on_c, 9, 44, 0
1, 143040, Note_on_c, 9, 33, 100
1, 143040, Note_on_c, 9, 44, 100
1, 143279, Note_on_c, 9, 44, 0
1, 143280, Note_on_c, 9, 44, 100
1, 143399, Note_on_c, 9, 44, 0
1, 143400, Note_on_c, 9, 44, 100
1, 143519, Note_on_c, 9, 33, 0
1, 143519, Note_on_c, 9, 44, 0
1, 143520, Note_on_c, 9, 40, 100
1, 143520, Note_on_c, 9, 81, 100
1, 143520, Note_on_c, 9, 44, 100
1, 143759, Note_on_c, 9, 44, 0
1, 143760, Note_on_c, 9, 44, 100
1, 143879, Note_on_c, 9, 44, 0
1, 143880, Note_on_c, 9, 44, 100
1, 143999, Note_on_c, 9, 40, 0
1, 143999, Note_on_c, 9, 81, 0
1, 143999, Note_on_c, 9, 44, 0
1, 144000, Note_on_c, 9, 42, 100
1, 144479, Note_on_c, 9, 42, 0
1, 144480, Note_on_c, 9, 42, 100
1, 144959, Note_on_c, 9, 42, 0
1, 144960, Note_on_c, 9, 42, 100
1, 145439, Note_on_c, 9, 42, 0
1, 145440, Note_on_c, 9, 42, 100
1, 145919, Note_on_c, 9, 42, 0
1, 145920, Note_on_c, 9, 42, 100
1, 145920, Note_on_c, 9, 52, 100
1, 145920, Note_on_c, 9, 57, 100
1, 146399, Note_on_c, 9, 42, 0
1, 146399, Note_on_c, 9, 52, 0
1, 146399, Note_on_c, 9, 57, 0
1, 146400, Note_on_c, 9, 42, 100
1, 146879, Note_on_c, 9, 42, 0
1, 146880, Note_on_c, 9, 42, 100
1, 147359, Note_on_c, 9, 42, 0
1, 147360, Note_on_c, 9, 42, 100
1, 147839, Note_on_c, 9, 42, 0
1, 147840, Note_on_c, 9, 42, 100
1, 148319, Note_on_c, 9, 42, 0
1, 148320, Note_on_c, 9, 42, 100
1, 148799, Note_on_c, 9, 42, 0
1, 148800, Note_on_c, 9, 42, 100
1, 149279, Note_on_c, 9, 42, 0
1, 149280, Note_on_c, 9, 42, 100
1, 149759, Note_on_c, 9, 42, 0
1, 149760, Note_on_c, 9, 42, 100
1, 150239, Note_on_c, 9, 42, 0
1, 150240, Note_on_c, 9, 42, 100
1, 150719, Note_on_c, 9, 42, 0
1, 150720, Note_on_c, 9, 51, 100
1, 150720, Note_on_c, 9, 42, 100
1, 150959, Note_on_c, 9, 51, 0
1, 150959, Note_on_c, 9, 42, 0
1, 150960, Note_on_c, 9, 51, 100
1, 151199, Note_on_c, 9, 51, 0
1, 151200, Note_on_c, 9, 51, 100
1, 151200, Note_on_c, 9, 42, 100
1, 151439, Note_on_c, 9, 51, 0
1, 151439, Note_on_c, 9, 42, 0
1, 151440, Note_on_c, 9, 51, 100
1, 151679, Note_on_c, 9, 51, 0
1, 151680, Note_on_c, 9, 59, 90
1, 151680, Note_on_c, 9, 60, 90
1, 151680, Note_on_c, 9, 61, 90
1, 151739, Note_on_c, 9, 59, 0
1, 151739, Note_on_c, 9, 60, 0
1, 151739, Note_on_c, 9, 61, 0
1, 151740, Note_on_c, 9, 59, 90
1, 151799, Note_on_c, 9, 59, 0
1, 151800, Note_on_c, 9, 59, 90
1, 151859, Note_on_c, 9, 59, 0
1, 151860, Note_on_c, 9, 59, 90
1, 151919, Note_on_c, 9, 59, 0
1, 151920, Note_on_c, 9, 59, 90
1, 151979, Note_on_c, 9, 59, 0
1, 151980, Note_on_c, 9, 59, 90
1, 152039, Note_on_c, 9, 59, 0
1, 152040, Note_on_c, 9, 59, 90
1, 152099, Note_on_c, 9, 59, 0
1, 152100, Note_on_c, 9, 59, 90
1, 152159, Note_on_c, 9, 59, 0
1, 152160, Note_on_c, 9, 59, 90
1, 152219, Note_on_c, 9, 59, 0
1, 152220, Note_on_c, 9, 59, 90
1, 152279, Note_on_c, 9, 59, 0
1, 152280, Note_on_c, 9, 59, 90
1, 152339, Note_on_c, 9, 59, 0
1, 152340, Note_on_c, 9, 59, 90
1, 152399, Note_on_c, 9, 59, 0
1, 152400, Note_on_c, 9, 59, 90
1, 152459, Note_on_c, 9, 59, 0
1, 152460, Note_on_c, 9, 59, 90
1, 152519, Note_on_c, 9, 59, 0
1, 152520, Note_on_c, 9, 59, 90
1, 152579, Note_on_c, 9, 59, 0
1, 152580, Note_on_c, 9, 59, 90
1, 152639, Note_on_c, 9, 59, 0
1, 152640, Note_on_c, 9, 59, 90
1, 152699, Note_on_c, 9, 59, 0
1, 152700, Note_on_c, 9, 59, 90
1, 152759, Note_on_c, 9, 59, 0
1, 152760, Note_on_c, 9, 59, 90
1, 152819, Note_on_c, 9, 59, 0
1, 152820, Note_on_c, 9, 59, 90
1, 152879, Note_on_c, 9, 59, 0
1, 152880, Note_on_c, 9, 59, 90
1, 152939, Note_on_c, 9, 59, 0
1, 152940, Note_on_c, 9, 59, 90
1, 152999, Note_on_c, 9, 59, 0
1, 153000, Note_on_c, 9, 59, 90
1, 153059, Note_on_c, 9, 59, 0
1, 153060, Note_on_c, 9, 59, 90
1, 153119, Note_on_c, 9, 59, 0
1, 153120, Note_on_c, 9, 59, 90
1, 153179, Note_on_c, 9, 59, 0
1, 153180, Note_on_c, 9, 59, 90
1, 153239, Note_on_c, 9, 59, 0
1, 153240, Note_on_c, 9, 59, 90
1, 153299, Note_on_c, 9, 59, 0
1, 153300, Note_on_c, 9, 59, 90
1, 153359, Note_on_c, 9, 59, 0
1, 153360, Note_on_c, 9, 59, 90
1, 153599, Note_on_c, 9, 59, 0
1, 153600, End_track
0, 0, End_of_file
