0, 0, Header, 1, 8, 480
1, 0, Start_track
1, 0, Time_signature, 4, 2, 24, 8
1, 0, Key_signature, 0, "major"
1, 0, Tempo, 600000
1, 0, Control_c, 9, 121, 0
1, 0, Program_c, 9, 0
1, 0, Control_c, 9, 7, 90
1, 0, Control_c, 9, 10, 64
1, 0, Control_c, 9, 91, 0
1, 0, Control_c, 9, 93, 0
1, 0, MIDI_port, 0
1, 0, Note_on_c, 9, 35, 110
1, 479, Note_on_c, 9, 35, 0
1, 960, Note_on_c, 9, 35, 109
1, 1199, Note_on_c, 9, 35, 0
1, 1200, Note_on_c, 9, 35, 91
1, 1439, Note_on_c, 9, 35, 0
1, 1920, Note_on_c, 9, 35, 110
1, 2399, Note_on_c, 9, 35, 0
1, 2880, Note_on_c, 9, 35, 111
1, 3359, Note_on_c, 9, 35, 0
1, 3840, Note_on_c, 9, 35, 111
1, 4079, Note_on_c, 9, 35, 0
1, 4080, Note_on_c, 9, 35, 89
1, 4319, Note_on_c, 9, 35, 0
1, 4800, Note_on_c, 9, 35, 111
1, 5039, Note_on_c, 9, 35, 0
1, 5040, Note_on_c, 9, 35, 89
1, 5279, Note_on_c, 9, 35, 0
1, 5760, Note_on_c, 9, 35, 109
1, 6239, Note_on_c, 9, 35, 0
1, 6720, Note_on_c, 9, 35, 108
1, 7199, Note_on_c, 9, 35, 0
1, 7440, Note_on_c, 9, 35, 91
1, 7679, Note_on_c, 9, 35, 0
1, 7680, Note_on_c, 9, 35, 108
1, 8159, Note_on_c, 9, 35, 0
1, 8400, Note_on_c, 9, 35, 90
1, 8639, Note_on_c, 9, 35, 0
1, 8640, Note_on_c, 9, 35, 110
1, 9119, Note_on_c, 9, 35, 0
1, 9360, Note_on_c, 9, 35, 90
1, 9599, Note_on_c, 9, 35, 0
1, 9600, Note_on_c, 9, 35, 110
1, 10079, Note_on_c, 9, 35, 0
1, 10560, Note_on_c, 9, 35, 108
1, 10799, Note_on_c, 9, 35, 0
1, 10800, Note_on_c, 9, 35, 88
1, 11039, Note_on_c, 9, 35, 0
1, 11520, Note_on_c, 9, 35, 109
1, 11999, Note_on_c, 9, 35, 0
1, 12480, Note_on_c, 9, 35, 110
1, 12959, Note_on_c, 9, 35, 0
1, 13440, Note_on_c, 9, 35, 110
1, 13919, Note_on_c, 9, 35, 0
1, 14160, Note_on_c, 9, 35, 89
1, 14399, Note_on_c, 9, 35, 0
1, 14400, Note_on_c, 9, 35, 111
1, 14879, Note_on_c, 9, 35, 0
1, 15120, Note_on_c, 9, 35, 91
1, 15359, Note_on_c, 9, 35, 0
1, 15360, Note_on_c, 9, 35, 109
1, 15839, Note_on_c, 9, 35, 0
1, 16320, Note_on_c, 9, 35, 110
1, 16799, Note_on_c, 9, 35, 0
1, 17280, Note_on_c, 9, 35, 109
1, 17759, Note_on_c, 9, 35, 0
1, 18000, Note_on_c, 9, 35, 89
1, 18239, Note_on_c, 9, 35, 0
1, 18240, Note_on_c, 9, 35, 111
1, 18479, Note_on_c, 9, 35, 0
1, 18480, Note_on_c, 9, 35, 91
1, 18719, Note_on_c, 9, 35, 0
1, 19200, Note_on_c, 9, 35, 109
1, 19679, Note_on_c, 9, 35, 0
1, 20160, Note_on_c, 9, 35, 109
1, 20639, Note_on_c, 9, 35, 0
1, 21120, Note_on_c, 9, 35, 110
1, 21599, Note_on_c, 9, 35, 0
1, 22080, Note_on_c, 9, 35, 108
1, 22319, Note_on_c, 9, 35, 0
1, 22320, Note_on_c, 9, 35, 91
1, 22559, Note_on_c, 9, 35, 0
1, 22800, Note_on_c, 9, 35, 91
1, 23039, Note_on_c, 9, 35, 0
1, 23040, Note_on_c, 9, 35, 110
1, 23519, Note_on_c, 9, 35, 0
1, 24000, Note_on_c, 9, 35, 108
1, 24479, Note_on_c, 9, 35, 0
1, 24960, Note_on_c, 9, 35, 91
1, 25439, Note_on_c, 9, 35, 0
1, 26160, Note_on_c, 9, 35, 110
1, 26399, Note_on_c, 9, 35, 0
1, 26880, Note_on_c, 9, 35, 111
1, 27359, Note_on_c, 9, 35, 0
1, 27840, Note_on_c, 9, 35, 109
1, 28319, Note_on_c, 9, 35, 0
1, 28800, Note_on_c, 9, 35, 110
1, 29279, Note_on_c, 9, 35, 0
1, 29520, Note_on_c, 9, 35, 91
1, 29759, Note_on_c, 9, 35, 0
1, 29760, Note_on_c, 9, 35, 108
1, 29999, Note_on_c, 9, 35, 0
1, 30000, Note_on_c, 9, 35, 90
1, 30239, Note_on_c, 9, 35, 0
1, 30480, Note_on_c, 9, 35, 91
1, 30719, Note_on_c, 9, 35, 0
1, 30720, Note_on_c, 9, 35, 111
1, 31199, Note_on_c, 9, 35, 0
1, 31680, Note_on_c, 9, 35, 110
1, 32159, Note_on_c, 9, 35, 0
1, 32400, Note_on_c, 9, 35, 88
1, 32639, Note_on_c, 9, 35, 0
1, 32640, Note_on_c, 9, 35, 111
1, 33119, Note_on_c, 9, 35, 0
1, 33600, Note_on_c, 9, 35, 109
1, 34079, Note_on_c, 9, 35, 0
1, 34560, Note_on_c, 9, 35, 111
1, 35039, Note_on_c, 9, 35, 0
1, 35280, Note_on_c, 9, 35, 88
1, 35519, Note_on_c, 9, 35, 0
1, 35520, Note_on_c, 9, 35, 111
1, 35999, Note_on_c, 9, 35, 0
1, 36240, Note_on_c, 9, 35, 91
1, 36479, Note_on_c, 9, 35, 0
1, 36480, Note_on_c, 9, 35, 111
1, 36959, Note_on_c, 9, 35, 0
1, 37440, Note_on_c, 9, 35, 108
1, 37679, Note_on_c, 9, 35, 0
1, 37680, Note_on_c, 9, 35, 91
1, 37919, Note_on_c, 9, 35, 0
1, 38400, Note_on_c, 9, 35, 111
1, 38879, Note_on_c, 9, 35, 0
1, 39360, Note_on_c, 9, 35, 108
1, 39839, Note_on_c, 9, 35, 0
1, 40320, Note_on_c, 9, 35, 90
1, 40799, Note_on_c, 9, 35, 0
1, 42240, Note_on_c, 9, 35, 108
1, 42479, Note_on_c, 9, 35, 0
1, 42480, Note_on_c, 9, 35, 91
1, 42719, Note_on_c, 9, 35, 0
1, 43200, Note_on_c, 9, 35, 109
1, 43679, Note_on_c, 9, 35, 0
1, 44160, Note_on_c, 9, 35, 108
1, 44639, Note_on_c, 9, 35, 0
1, 45120, Note_on_c, 9, 35, 111
1, 45599, Note_on_c, 9, 35, 0
1, 46080, Note_on_c, 9, 35, 108
1, 46559, Note_on_c, 9, 35, 0
1, 47040, Note_on_c, 9, 35, 109
1, 47519, Note_on_c, 9, 35, 0
1, 48000, Note_on_c, 9, 35, 109
1, 48479, Note_on_c, 9, 35, 0
1, 48960, Note_on_c, 9, 35, 108
1, 49439, Note_on_c, 9, 35, 0
1, 49920, Note_on_c, 9, 35, 109
1, 50399, Note_on_c, 9, 35, 0
1, 50880, Note_on_c, 9, 35, 108
1, 51359, Note_on_c, 9, 35, 0
1, 51840, Note_on_c, 9, 35, 108
1, 52319, Note_on_c, 9, 35, 0
1, 52560, Note_on_c, 9, 35, 89
1, 52799, Note_on_c, 9, 35, 0
1, 52800, Note_on_c, 9, 35, 110
1, 53279, Note_on_c, 9, 35, 0
1, 53520, Note_on_c, 9, 35, 88
1, 53759, Note_on_c, 9, 35, 0
1, 53760, Note_on_c, 9, 35, 109
1, 53999, Note_on_c, 9, 35, 0
1, 54000, Note_on_c, 9, 35, 91
1, 54239, Note_on_c, 9, 35, 0
1, 54720, Note_on_c, 9, 35, 109
1, 55199, Note_on_c, 9, 35, 0
1, 55680, Note_on_c, 9, 35, 91
1, 56159, Note_on_c, 9, 35, 0
1, 56880, Note_on_c, 9, 35, 88
1, 57119, Note_on_c, 9, 35, 0
1, 57600, Note_on_c, 9, 35, 109
1, 57839, Note_on_c, 9, 35, 0
1, 57840, Note_on_c, 9, 35, 89
1, 58079, Note_on_c, 9, 35, 0
1, 58560, Note_on_c, 9, 35, 108
1, 58799, Note_on_c, 9, 35, 0
1, 58800, Note_on_c, 9, 35, 89
1, 59039, Note_on_c, 9, 35, 0
1, 59520, Note_on_c, 9, 35, 108
1, 59999, Note_on_c, 9, 35, 0
1, 60480, Note_on_c, 9, 35, 109
1, 60959, Note_on_c, 9, 35, 0
1, 61440, Note_on_c, 9, 35, 109
1, 61919, Note_on_c, 9, 35, 0
1, 62400, Note_on_c, 9, 35, 108
1, 62879, Note_on_c, 9, 35, 0
1, 63360, Note_on_c, 9, 35, 111
1, 63839, Note_on_c, 9, 35, 0
1, 64320, Note_on_c, 9, 35, 110
1, 64799, Note_on_c, 9, 35, 0
1, 65280, Note_on_c, 9, 35, 111
1, 65519, Note_on_c, 9, 35, 0
1, 65520, Note_on_c, 9, 35, 89
1, 65759, Note_on_c, 9, 35, 0
1, 66240, Note_on_c, 9, 35, 110
1, 66479, Note_on_c, 9, 35, 0
1, 66480, Note_on_c, 9, 35, 90
1, 66719, Note_on_c, 9, 35, 0
1, 67200, Note_on_c, 9, 35, 108
1, 67679, Note_on_c, 9, 35, 0
1, 68160, Note_on_c, 9, 35, 108
1, 68639, Note_on_c, 9, 35, 0
1, 69120, Note_on_c, 9, 35, 111
1, 69599, Note_on_c, 9, 35, 0
1, 70080, Note_on_c, 9, 35, 111
1, 70559, Note_on_c, 9, 35, 0
1, 71040, Note_on_c, 9, 35, 109
1, 71519, Note_on_c, 9, 35, 0
1, 72000, Note_on_c, 9, 35, 111
1, 72479, Note_on_c, 9, 35, 0
1, 72960, Note_on_c, 9, 35, 108
1, 73439, Note_on_c, 9, 35, 0
1, 73920, Note_on_c, 9, 35, 108
1, 74159, Note_on_c, 9, 35, 0
1, 74160, Note_on_c, 9, 35, 88
1, 74399, Note_on_c, 9, 35, 0
1, 74880, Note_on_c, 9, 35, 109
1, 75119, Note_on_c, 9, 35, 0
1, 75120, Note_on_c, 9, 35, 90
1, 75359, Note_on_c, 9, 35, 0
1, 75840, Note_on_c, 9, 35, 110
1, 76319, Note_on_c, 9, 35, 0
1, 76800, Note_on_c, 9, 35, 110
1, 77279, Note_on_c, 9, 35, 0
1, 77760, Note_on_c, 9, 35, 110
1, 78239, Note_on_c, 9, 35, 0
1, 78480, Note_on_c, 9, 35, 89
1, 78719, Note_on_c, 9, 35, 0
1, 78720, Note_on_c, 9, 35, 108
1, 79199, Note_on_c, 9, 35, 0
1, 79680, Note_on_c, 9, 35, 110
1, 80159, Note_on_c, 9, 35, 0
1, 80640, Note_on_c, 9, 35, 108
1, 80879, Note_on_c, 9, 35, 0
1, 80880, Note_on_c, 9, 35, 89
1, 81119, Note_on_c, 9, 35, 0
1, 81600, Note_on_c, 9, 35, 109
1, 81839, Note_on_c, 9, 35, 0
1, 81840, Note_on_c, 9, 35, 90
1, 82079, Note_on_c, 9, 35, 0
1, 82560, Note_on_c, 9, 35, 111
1, 83039, Note_on_c, 9, 35, 0
1, 83280, Note_on_c, 9, 35, 88
1, 83519, Note_on_c, 9, 35, 0
1, 83520, Note_on_c, 9, 35, 111
1, 83999, Note_on_c, 9, 35, 0
1, 84480, Note_on_c, 9, 35, 110
1, 84959, Note_on_c, 9, 35, 0
1, 85200, Note_on_c, 9, 35, 91
1, 85439, Note_on_c, 9, 35, 0
1, 85440, Note_on_c, 9, 35, 111
1, 85919, Note_on_c, 9, 35, 0
1, 86400, Note_on_c, 9, 35, 110
1, 86639, Note_on_c, 9, 35, 0
1, 86640, Note_on_c, 9, 35, 90
1, 86879, Note_on_c, 9, 35, 0
1, 87360, Note_on_c, 9, 35, 111
1, 87839, Note_on_c, 9, 35, 0
1, 88320, Note_on_c, 9, 35, 110
1, 88799, Note_on_c, 9, 35, 0
1, 89280, Note_on_c, 9, 35, 108
1, 89759, Note_on_c, 9, 35, 0
1, 90000, Note_on_c, 9, 35, 90
1, 90239, Note_on_c, 9, 35, 0
1, 90240, Note_on_c, 9, 35, 109
1, 90719, Note_on_c, 9, 35, 0
1, 90960, Note_on_c, 9, 35, 88
1, 91199, Note_on_c, 9, 35, 0
1, 91200, Note_on_c, 9, 35, 109
1, 91679, Note_on_c, 9, 35, 0
1, 92160, Note_on_c, 9, 35, 109
1, 92639, Note_on_c, 9, 35, 0
1, 93120, Note_on_c, 9, 35, 110
1, 93599, Note_on_c, 9, 35, 0
1, 93840, Note_on_c, 9, 35, 90
1, 94079, Note_on_c, 9, 35, 0
1, 94080, Note_on_c, 9, 35, 110
1, 94559, Note_on_c, 9, 35, 0
1, 94800, Note_on_c, 9, 35, 91
1, 95039, Note_on_c, 9, 35, 0
1, 95040, Note_on_c, 9, 35, 108
1, 95519, Note_on_c, 9, 35, 0
1, 95760, Note_on_c, 9, 35, 88
1, 95999, Note_on_c, 9, 35, 0
1, 96000, Note_on_c, 9, 35, 109
1, 96239, Note_on_c, 9, 35, 0
1, 96240, Note_on_c, 9, 35, 89
1, 96479, Note_on_c, 9, 35, 0
1, 96960, Note_on_c, 9, 35, 109
1, 97439, Note_on_c, 9, 35, 0
1, 97680, Note_on_c, 9, 35, 88
1, 97919, Note_on_c, 9, 35, 0
1, 97920, Note_on_c, 9, 35, 110
1, 98399, Note_on_c, 9, 35, 0
1, 98880, Note_on_c, 9, 35, 108
1, 99359, Note_on_c, 9, 35, 0
1, 99600, Note_on_c, 9, 35, 90
1, 99839, Note_on_c, 9, 35, 0
1, 99840, Note_on_c, 9, 35, 109
1, 100319, Note_on_c, 9, 35, 0
1, 100800, Note_on_c, 9, 35, 109
1, 101279, Note_on_c, 9, 35, 0
1, 101520, Note_on_c, 9, 35, 88
1, 101759, Note_on_c, 9, 35, 0
1, 101760, Note_on_c, 9, 35, 108
1, 102239, Note_on_c, 9, 35, 0
1, 102720, Note_on_c, 9, 35, 108
1, 103199, Note_on_c, 9, 35, 0
1, 103680, Note_on_c, 9, 35, 110
1, 104159, Note_on_c, 9, 35, 0
1, 104640, Note_on_c, 9, 35, 91
1, 105119, Note_on_c, 9, 35, 0
1, 105600, Note_on_c, 9, 35, 108
1, 106079, Note_on_c, 9, 35, 0
1, 106320, Note_on_c, 9, 35, 88
1, 106559, Note_on_c, 9, 35, 0
1, 106560, Note_on_c, 9, 35, 111
1, 107039, Note_on_c, 9, 35, 0
1, 107520, Note_on_c, 9, 35, 110
1, 107999, Note_on_c, 9, 35, 0
1, 108480, Note_on_c, 9, 35, 108
1, 108719, Note_on_c, 9, 35, 0
1, 108720, Note_on_c, 9, 35, 90
1, 108959, Note_on_c, 9, 35, 0
1, 109440, Note_on_c, 9, 35, 110
1, 109919, Note_on_c, 9, 35, 0
1, 110400, Note_on_c, 9, 35, 109
1, 110879, Note_on_c, 9, 35, 0
1, 111600, Note_on_c, 9, 35, 90
1, 111839, Note_on_c, 9, 35, 0
1, 111840, Note_on_c, 9, 35, 90
1, 112319, Note_on_c, 9, 35, 0
1, 112320, Note_on_c, 9, 35, 88
1, 112559, Note_on_c, 9, 35, 0
1, 112560, Note_on_c, 9, 35, 91
1, 112799, Note_on_c, 9, 35, 0
1, 113280, Note_on_c, 9, 35, 108
1, 113519, Note_on_c, 9, 35, 0
1, 113520, Note_on_c, 9, 35, 91
1, 113759, Note_on_c, 9, 35, 0
1, 114240, Note_on_c, 9, 35, 111
1, 114719, Note_on_c, 9, 35, 0
1, 115200, Note_on_c, 9, 35, 109
1, 115679, Note_on_c, 9, 35, 0
1, 115920, Note_on_c, 9, 35, 88
1, 116159, Note_on_c, 9, 35, 0
1, 116160, Note_on_c, 9, 35, 108
1, 116639, Note_on_c, 9, 35, 0
1, 117120, Note_on_c, 9, 35, 110
1, 117599, Note_on_c, 9, 35, 0
1, 117840, Note_on_c, 9, 35, 88
1, 118079, Note_on_c, 9, 35, 0
1, 118080, Note_on_c, 9, 35, 110
1, 118559, Note_on_c, 9, 35, 0
1, 119040, Note_on_c, 9, 35, 111
1, 119519, Note_on_c, 9, 35, 0
1, 120000, Note_on_c, 9, 35, 110
1, 120479, Note_on_c, 9, 35, 0
1, 120720, Note_on_c, 9, 35, 89
1, 120959, Note_on_c, 9, 35, 0
1, 120960, Note_on_c, 9, 35, 108
1, 121439, Note_on_c, 9, 35, 0
1, 121920, Note_on_c, 9, 35, 111
1, 122399, Note_on_c, 9, 35, 0
1, 122880, Note_on_c, 9, 35, 111
1, 123359, Note_on_c, 9, 35, 0
1, 123840, Note_on_c, 9, 35, 111
1, 124319, Note_on_c, 9, 35, 0
1, 124800, Note_on_c, 9, 35, 108
1, 125279, Note_on_c, 9, 35, 0
1, 125520, Note_on_c, 9, 35, 91
1, 125759, Note_on_c, 9, 35, 0
1, 125760, Note_on_c, 9, 35, 109
1, 126239, Note_on_c, 9, 35, 0
1, 126720, Note_on_c, 9, 35, 110
1, 126959, Note_on_c, 9, 35, 0
1, 126960, Note_on_c, 9, 35, 90
1, 127199, Note_on_c, 9, 35, 0
1, 127680, Note_on_c, 9, 35, 109
1, 128159, Note_on_c, 9, 35, 0
1, 128640, Note_on_c, 9, 35, 110
1, 129119, Note_on_c, 9, 35, 0
1, 129600, Note_on_c, 9, 35, 108
1, 130079, Note_on_c, 9, 35, 0
1, 130560, Note_on_c, 9, 35, 109
1, 131039, Note_on_c, 9, 35, 0
1, 131520, Note_on_c, 9, 35, 109
1, 131999, Note_on_c, 9, 35, 0
1, 132480, Note_on_c, 9, 35, 108
1, 132959, Note_on_c, 9, 35, 0
1, 133440, Note_on_c, 9, 35, 111
1, 133919, Note_on_c, 9, 35, 0
1, 134400, Note_on_c, 9, 35, 108
1, 134879, Note_on_c, 9, 35, 0
1, 135600, Note_on_c, 9, 35, 108
1, 135839, Note_on_c, 9, 35, 0
1, 136080, Note_on_c, 9, 35, 91
1, 136319, Note_on_c, 9, 35, 0
1, 136320, Note_on_c, 9, 35, 109
1, 136799, Note_on_c, 9, 35, 0
1, 137280, Note_on_c, 9, 35, 110
1, 137759, Note_on_c, 9, 35, 0
1, 138240, Note_on_c, 9, 35, 111
1, 138479, Note_on_c, 9, 35, 0
1, 138480, Note_on_c, 9, 35, 89
1, 138719, Note_on_c, 9, 35, 0
1, 139200, Note_on_c, 9, 35, 111
1, 139679, Note_on_c, 9, 35, 0
1, 140160, Note_on_c, 9, 35, 109
1, 140639, Note_on_c, 9, 35, 0
1, 140880, Note_on_c, 9, 35, 91
1, 141119, Note_on_c, 9, 35, 0
1, 141120, Note_on_c, 9, 35, 109
1, 141599, Note_on_c, 9, 35, 0
1, 142320, Note_on_c, 9, 35, 90
1, 142559, Note_on_c, 9, 35, 0
1, 142560, Note_on_c, 9, 35, 88
1, 143039, Note_on_c, 9, 35, 0
1, 143040, Note_on_c, 9, 35, 90
1, 143279, Note_on_c, 9, 35, 0
1, 143280, Note_on_c, 9, 35, 89
1, 143519, Note_on_c, 9, 35, 0
1, 144000, Note_on_c, 9, 35, 108
1, 144479, Note_on_c, 9, 35, 0
1, 144960, Note_on_c, 9, 35, 109
1, 145439, Note_on_c, 9, 35, 0
1, 145920, Note_on_c, 9, 35, 109
1, 146159, Note_on_c, 9, 35, 0
1, 146160, Note_on_c, 9, 35, 88
1, 146399, Note_on_c, 9, 35, 0
1, 146880, Note_on_c, 9, 35, 108
1, 147359, Note_on_c, 9, 35, 0
1, 147840, Note_on_c, 9, 35, 110
1, 148319, Note_on_c, 9, 35, 0
1, 148800, Note_on_c, 9, 35, 108
1, 149279, Note_on_c, 9, 35, 0
1, 149760, Note_on_c, 9, 35, 108
1, 150239, Note_on_c, 9, 35, 0
1, 150720, Note_on_c, 9, 35, 109
1, 151199, Note_on_c, 9, 35, 0
1, 151680, Note_on_c, 9, 35, 110
1, 151919, Note_on_c, 9, 35, 0
1, 151920, Note_on_c, 9, 35, 90
1, 152159, Note_on_c, 9, 35, 0
1, 152640, Note_on_c, 9, 35, 111
1, 152879, Note_on_c, 9, 35, 0
1, 152880, Note_on_c, 9, 35, 89
1, 153119, Note_on_c, 9, 35, 0
1, 153600, Note_on_c, 9, 35, 109
1, 153839, Note_on_c, 9, 35, 0
1, 153840, Note_on_c, 9, 35, 89
1, 154079, Note_on_c, 9, 35, 0
1, 154560, Note_on_c, 9, 35, 111
1, 155039, Note_on_c, 9, 35, 0
1, 155280, Note_on_c, 9, 35, 90
1, 155519, Note_on_c, 9, 35, 0
1, 155520, Note_on_c, 9, 35, 108
1, 155759, Note_on_c, 9, 35, 0
1, 155760, Note_on_c, 9, 35, 91
1, 155999, Note_on_c, 9, 35, 0
1, 156480, Note_on_c, 9, 35, 110
1, 156959, Note_on_c, 9, 35, 0
1, 157680, Note_on_c, 9, 35, 88
1, 157919, Note_on_c, 9, 35, 0
1, 157920, Note_on_c, 9, 35, 91
1, 158399, Note_on_c, 9, 35, 0
1, 158400, Note_on_c, 9, 35, 90
1, 158639, Note_on_c, 9, 35, 0
1, 158640, Note_on_c, 9, 35, 91
1, 158879, Note_on_c, 9, 35, 0
1, 159360, Note_on_c, 9, 35, 109
1, 159839, Note_on_c, 9, 35, 0
1, 160080, Note_on_c, 9, 35, 88
1, 160319, Note_on_c, 9, 35, 0
1, 160320, Note_on_c, 9, 35, 109
1, 160799, Note_on_c, 9, 35, 0
1, 161040, Note_on_c, 9, 35, 90
1, 161279, Note_on_c, 9, 35, 0
1, 161280, Note_on_c, 9, 35, 111
1, 161759, Note_on_c, 9, 35, 0
1, 162240, Note_on_c, 9, 35, 109
1, 162479, Note_on_c, 9, 35, 0
1, 162480, Note_on_c, 9, 35, 91
1, 162719, Note_on_c, 9, 35, 0
1, 162960, Note_on_c, 9, 35, 90
1, 163199, Note_on_c, 9, 35, 0
1, 163200, Note_on_c, 9, 35, 110
1, 163679, Note_on_c, 9, 35, 0
1, 164160, Note_on_c, 9, 35, 108
1, 164639, Note_on_c, 9, 35, 0
1, 165120, Note_on_c, 9, 35, 109
1, 165599, Note_on_c, 9, 35, 0
1, 166080, Note_on_c, 9, 35, 109
1, 166559, Note_on_c, 9, 35, 0
1, 167040, Note_on_c, 9, 35, 109
1, 167519, Note_on_c, 9, 35, 0
1, 168000, Note_on_c, 9, 35, 110
1, 168479, Note_on_c, 9, 35, 0
1, 168960, Note_on_c, 9, 35, 111
1, 169439, Note_on_c, 9, 35, 0
1, 169920, Note_on_c, 9, 35, 108
1, 170399, Note_on_c, 9, 35, 0
1, 170640, Note_on_c, 9, 35, 89
1, 170879, Note_on_c, 9, 35, 0
1, 170880, Note_on_c, 9, 35, 109
1, 171359, Note_on_c, 9, 35, 0
1, 171840, Note_on_c, 9, 35, 110
1, 172079, Note_on_c, 9, 35, 0
1, 172080, Note_on_c, 9, 35, 88
1, 172319, Note_on_c, 9, 35, 0
1, 172800, Note_on_c, 9, 35, 110
1, 173279, Note_on_c, 9, 35, 0
1, 173760, Note_on_c, 9, 35, 111
1, 174239, Note_on_c, 9, 35, 0
1, 174720, Note_on_c, 9, 35, 109
1, 174959, Note_on_c, 9, 35, 0
1, 174960, Note_on_c, 9, 35, 90
1, 175199, Note_on_c, 9, 35, 0
1, 175680, Note_on_c, 9, 35, 108
1, 176159, Note_on_c, 9, 35, 0
1, 176400, Note_on_c, 9, 35, 91
1, 176639, Note_on_c, 9, 35, 0
1, 176640, Note_on_c, 9, 35, 108
1, 176879, Note_on_c, 9, 35, 0
1, 176880, Note_on_c, 9, 35, 88
1, 177119, Note_on_c, 9, 35, 0
1, 177600, Note_on_c, 9, 35, 109
1, 178079, Note_on_c, 9, 35, 0
1, 178560, Note_on_c, 9, 35, 109
1, 179039, Note_on_c, 9, 35, 0
1, 179280, Note_on_c, 9, 35, 88
1, 179519, Note_on_c, 9, 35, 0
1, 179520, Note_on_c, 9, 35, 110
1, 179999, Note_on_c, 9, 35, 0
1, 180480, Note_on_c, 9, 35, 110
1, 180959, Note_on_c, 9, 35, 0
1, 181440, Note_on_c, 9, 35, 109
1, 181919, Note_on_c, 9, 35, 0
1, 182400, Note_on_c, 9, 35, 110
1, 182879, Note_on_c, 9, 35, 0
1, 183120, Note_on_c, 9, 35, 90
1, 183359, Note_on_c, 9, 35, 0
1, 183360, Note_on_c, 9, 35, 110
1, 183839, Note_on_c, 9, 35, 0
1, 184080, Note_on_c, 9, 35, 89
1, 184319, Note_on_c, 9, 35, 0
1, 184320, Note_on_c, 9, 35, 109
1, 184799, Note_on_c, 9, 35, 0
1, 185280, Note_on_c, 9, 35, 110
1, 185759, Note_on_c, 9, 35, 0
1, 186240, Note_on_c, 9, 35, 110
1, 186719, Note_on_c, 9, 35, 0
1, 186960, Note_on_c, 9, 35, 88
1, 187199, Note_on_c, 9, 35, 0
1, 187200, Note_on_c, 9, 35, 110
1, 187679, Note_on_c, 9, 35, 0
1, 187920, Note_on_c, 9, 35, 91
1, 188159, Note_on_c, 9, 35, 0
1, 188400, Note_on_c, 9, 35, 88
1, 188639, Note_on_c, 9, 35, 0
1, 188640, Note_on_c, 9, 35, 88
1, 189119, Note_on_c, 9, 35, 0
1, 189120, Note_on_c, 9, 35, 89
1, 189359, Note_on_c, 9, 35, 0
1, 189360, Note_on_c, 9, 35, 88
1, 189599, Note_on_c, 9, 35, 0
1, 189840, Note_on_c, 9, 35, 89
1, 190079, Note_on_c, 9, 35, 0
1, 190080, Note_on_c, 9, 35, 110
1, 190559, Note_on_c, 9, 35, 0
1, 190800, Note_on_c, 9, 35, 88
1, 191039, Note_on_c, 9, 35, 0
1, 191040, Note_on_c, 9, 35, 108
1, 191279, Note_on_c, 9, 35, 0
1, 191280, Note_on_c, 9, 35, 91
1, 191519, Note_on_c, 9, 35, 0
1, 192000, Note_on_c, 9, 35, 108
1, 192479, Note_on_c, 9, 35, 0
1, 192960, Note_on_c, 9, 35, 109
1, 193439, Note_on_c, 9, 35, 0
1, 193920, Note_on_c, 9, 35, 110
1, 194399, Note_on_c, 9, 35, 0
1, 194880, Note_on_c, 9, 35, 111
1, 195359, Note_on_c, 9, 35, 0
1, 195600, Note_on_c, 9, 35, 88
1, 195839, Note_on_c, 9, 35, 0
1, 195840, Note_on_c, 9, 35, 109
1, 196079, Note_on_c, 9, 35, 0
1, 196080, Note_on_c, 9, 35, 88
1, 196319, Note_on_c, 9, 35, 0
1, 196800, Note_on_c, 9, 35, 110
1, 197279, Note_on_c, 9, 35, 0
1, 197520, Note_on_c, 9, 35, 89
1, 197759, Note_on_c, 9, 35, 0
1, 197760, Note_on_c, 9, 35, 110
1, 198239, Note_on_c, 9, 35, 0
1, 198720, Note_on_c, 9, 35, 108
1, 199199, Note_on_c, 9, 35, 0
1, 199680, Note_on_c, 9, 35, 108
1, 200159, Note_on_c, 9, 35, 0
1, 200640, Note_on_c, 9, 35, 108
1, 201119, Note_on_c, 9, 35, 0
1, 201600, Note_on_c, 9, 35, 108
1, 201839, Note_on_c, 9, 35, 0
1, 201840, Note_on_c, 9, 35, 88
1, 202079, Note_on_c, 9, 35, 0
1, 202320, Note_on_c, 9, 35, 90
1, 202559, Note_on_c, 9, 35, 0
1, 202560, Note_on_c, 9, 35, 111
1, 203039, Note_on_c, 9, 35, 0
1, 203520, Note_on_c, 9, 35, 89
1, 203999, Note_on_c, 9, 35, 0
1, 204720, Note_on_c, 9, 35, 90
1, 204959, Note_on_c, 9, 35, 0
1, 205440, Note_on_c, 9, 35, 110
1, 205919, Note_on_c, 9, 35, 0
1, 206400, Note_on_c, 9, 35, 110
1, 206639, Note_on_c, 9, 35, 0
1, 206640, Note_on_c, 9, 35, 89
1, 206879, Note_on_c, 9, 35, 0
1, 212400, Note_on_c, 9, 35, 99
1, 212639, Note_on_c, 9, 35, 0
1, 212640, End_track
2, 0, Start_track
2, 0, Key_signature, 0, "major"
2, 0, Control_c, 9, 121, 0
2, 0, Program_c, 9, 0
2, 0, Control_c, 9, 7, 100
2, 0, Control_c, 9, 10, 64
2, 0, Control_c, 9, 91, 0
2, 0, Control_c, 9, 93, 0
2, 0, MIDI_port, 0
2, 480, Note_on_c, 9, 40, 109
2, 959, Note_on_c, 9, 40, 0
2, 1440, Note_on_c, 9, 40, 110
2, 1919, Note_on_c, 9, 40, 0
2, 2400, Note_on_c, 9, 40, 108
2, 2879, Note_on_c, 9, 40, 0
2, 3000, Note_on_c, 9, 40, 37
2, 3239, Note_on_c, 9, 40, 0
2, 3240, Note_on_c, 9, 40, 33
2, 3359, Note_on_c, 9, 40, 0
2, 3360, Note_on_c, 9, 40, 108
2, 3839, Note_on_c, 9, 40, 0
2, 4320, Note_on_c, 9, 40, 108
2, 4799, Note_on_c, 9, 40, 0
2, 5280, Note_on_c, 9, 40, 110
2, 5759, Note_on_c, 9, 40, 0
2, 6240, Note_on_c, 9, 40, 109
2, 6719, Note_on_c, 9, 40, 0
2, 7080, Note_on_c, 9, 40, 69
2, 7199, Note_on_c, 9, 40, 0
2, 7200, Note_on_c, 9, 40, 109
2, 7679, Note_on_c, 9, 40, 0
2, 8160, Note_on_c, 9, 40, 110
2, 8639, Note_on_c, 9, 40, 0
2, 9120, Note_on_c, 9, 40, 110
2, 9599, Note_on_c, 9, 40, 0
2, 10080, Note_on_c, 9, 40, 108
2, 10559, Note_on_c, 9, 40, 0
2, 10560, Note_on_c, 9, 40, 34
2, 10679, Note_on_c, 9, 40, 0
2, 10680, Note_on_c, 9, 40, 34
2, 10799, Note_on_c, 9, 40, 0
2, 10800, Note_on_c, 9, 40, 110
2, 11039, Note_on_c, 9, 40, 0
2, 12000, Note_on_c, 9, 40, 111
2, 12479, Note_on_c, 9, 40, 0
2, 12960, Note_on_c, 9, 40, 109
2, 13439, Note_on_c, 9, 40, 0
2, 13920, Note_on_c, 9, 40, 110
2, 14399, Note_on_c, 9, 40, 0
2, 14880, Note_on_c, 9, 40, 110
2, 15359, Note_on_c, 9, 40, 0
2, 15840, Note_on_c, 9, 40, 109
2, 16319, Note_on_c, 9, 40, 0
2, 16800, Note_on_c, 9, 40, 111
2, 17279, Note_on_c, 9, 40, 0
2, 17760, Note_on_c, 9, 40, 109
2, 18239, Note_on_c, 9, 40, 0
2, 18480, Note_on_c, 9, 40, 109
2, 18719, Note_on_c, 9, 40, 0
2, 18720, Note_on_c, 9, 40, 37
2, 18839, Note_on_c, 9, 40, 0
2, 18840, Note_on_c, 9, 40, 32
2, 18959, Note_on_c, 9, 40, 0
2, 18960, Note_on_c, 9, 40, 111
2, 19199, Note_on_c, 9, 40, 0
2, 19680, Note_on_c, 9, 40, 109
2, 20159, Note_on_c, 9, 40, 0
2, 20640, Note_on_c, 9, 40, 111
2, 21119, Note_on_c, 9, 40, 0
2, 21600, Note_on_c, 9, 40, 109
2, 22079, Note_on_c, 9, 40, 0
2, 22560, Note_on_c, 9, 40, 108
2, 23039, Note_on_c, 9, 40, 0
2, 23520, Note_on_c, 9, 40, 111
2, 23999, Note_on_c, 9, 40, 0
2, 24480, Note_on_c, 9, 40, 111
2, 24959, Note_on_c, 9, 40, 0
2, 25320, Note_on_c, 9, 40, 68
2, 25439, Note_on_c, 9, 40, 0
2, 25680, Note_on_c, 9, 40, 108
2, 25919, Note_on_c, 9, 40, 0
2, 25920, Note_on_c, 9, 40, 34
2, 26039, Note_on_c, 9, 40, 0
2, 26040, Note_on_c, 9, 40, 70
2, 26399, Note_on_c, 9, 40, 0
2, 26400, Note_on_c, 9, 40, 109
2, 26439, Note_on_c, 9, 40, 0
2, 26440, Note_on_c, 9, 40, 88
2, 26519, Note_on_c, 9, 40, 0
2, 27360, Note_on_c, 9, 40, 111
2, 27839, Note_on_c, 9, 40, 0
2, 28320, Note_on_c, 9, 40, 111
2, 28799, Note_on_c, 9, 40, 0
2, 29280, Note_on_c, 9, 40, 108
2, 29759, Note_on_c, 9, 40, 0
2, 30120, Note_on_c, 9, 40, 72
2, 30239, Note_on_c, 9, 40, 0
2, 30240, Note_on_c, 9, 40, 110
2, 30719, Note_on_c, 9, 40, 0
2, 31200, Note_on_c, 9, 40, 108
2, 31679, Note_on_c, 9, 40, 0
2, 32160, Note_on_c, 9, 40, 110
2, 32639, Note_on_c, 9, 40, 0
2, 33120, Note_on_c, 9, 40, 111
2, 33599, Note_on_c, 9, 40, 0
2, 33680, Note_on_c, 9, 40, 37
2, 33759, Note_on_c, 9, 40, 0
2, 33760, Note_on_c, 9, 40, 37
2, 33839, Note_on_c, 9, 40, 0
2, 33840, Note_on_c, 9, 40, 111
2, 34079, Note_on_c, 9, 40, 0
2, 34920, Note_on_c, 9, 40, 34
2, 35039, Note_on_c, 9, 40, 0
2, 35040, Note_on_c, 9, 40, 108
2, 35519, Note_on_c, 9, 40, 0
2, 36000, Note_on_c, 9, 40, 111
2, 36479, Note_on_c, 9, 40, 0
2, 36960, Note_on_c, 9, 40, 110
2, 37439, Note_on_c, 9, 40, 0
2, 37920, Note_on_c, 9, 40, 109
2, 38399, Note_on_c, 9, 40, 0
2, 38880, Note_on_c, 9, 40, 110
2, 39359, Note_on_c, 9, 40, 0
2, 39840, Note_on_c, 9, 40, 111
2, 40319, Note_on_c, 9, 40, 0
2, 40560, Note_on_c, 9, 40, 108
2, 40799, Note_on_c, 9, 40, 0
2, 41040, Note_on_c, 9, 40, 110
2, 41279, Note_on_c, 9, 40, 0
2, 41520, Note_on_c, 9, 40, 69
2, 41759, Note_on_c, 9, 40, 0
2, 42000, Note_on_c, 9, 40, 110
2, 42239, Note_on_c, 9, 40, 0
2, 42720, Note_on_c, 9, 40, 108
2, 43199, Note_on_c, 9, 40, 0
2, 43680, Note_on_c, 9, 40, 110
2, 44159, Note_on_c, 9, 40, 0
2, 44640, Note_on_c, 9, 40, 108
2, 45119, Note_on_c, 9, 40, 0
2, 45600, Note_on_c, 9, 40, 111
2, 46079, Note_on_c, 9, 40, 0
2, 46560, Note_on_c, 9, 40, 109
2, 47039, Note_on_c, 9, 40, 0
2, 47520, Note_on_c, 9, 40, 109
2, 47999, Note_on_c, 9, 40, 0
2, 48480, Note_on_c, 9, 40, 108
2, 48959, Note_on_c, 9, 40, 0
2, 49200, Note_on_c, 9, 40, 91
2, 49439, Note_on_c, 9, 40, 0
2, 49680, Note_on_c, 9, 40, 110
2, 49919, Note_on_c, 9, 40, 0
2, 50400, Note_on_c, 9, 40, 109
2, 50879, Note_on_c, 9, 40, 0
2, 51360, Note_on_c, 9, 40, 111
2, 51839, Note_on_c, 9, 40, 0
2, 52320, Note_on_c, 9, 40, 108
2, 52799, Note_on_c, 9, 40, 0
2, 53280, Note_on_c, 9, 40, 111
2, 53759, Note_on_c, 9, 40, 0
2, 54240, Note_on_c, 9, 40, 108
2, 54719, Note_on_c, 9, 40, 0
2, 55200, Note_on_c, 9, 40, 109
2, 55679, Note_on_c, 9, 40, 0
2, 56280, Note_on_c, 9, 40, 68
2, 56399, Note_on_c, 9, 40, 0
2, 56400, Note_on_c, 9, 40, 109
2, 56639, Note_on_c, 9, 40, 0
2, 57120, Note_on_c, 9, 40, 108
2, 57599, Note_on_c, 9, 40, 0
2, 58080, Note_on_c, 9, 40, 108
2, 58559, Note_on_c, 9, 40, 0
2, 59040, Note_on_c, 9, 40, 109
2, 59519, Note_on_c, 9, 40, 0
2, 60000, Note_on_c, 9, 40, 110
2, 60479, Note_on_c, 9, 40, 0
2, 60960, Note_on_c, 9, 40, 108
2, 61439, Note_on_c, 9, 40, 0
2, 61920, Note_on_c, 9, 40, 109
2, 62399, Note_on_c, 9, 40, 0
2, 62880, Note_on_c, 9, 40, 109
2, 63359, Note_on_c, 9, 40, 0
2, 63840, Note_on_c, 9, 40, 110
2, 64319, Note_on_c, 9, 40, 0
2, 64800, Note_on_c, 9, 40, 109
2, 65279, Note_on_c, 9, 40, 0
2, 65760, Note_on_c, 9, 40, 110
2, 66239, Note_on_c, 9, 40, 0
2, 66720, Note_on_c, 9, 40, 108
2, 67199, Note_on_c, 9, 40, 0
2, 67680, Note_on_c, 9, 40, 108
2, 68159, Note_on_c, 9, 40, 0
2, 68640, Note_on_c, 9, 40, 109
2, 69119, Note_on_c, 9, 40, 0
2, 69600, Note_on_c, 9, 40, 109
2, 70079, Note_on_c, 9, 40, 0
2, 70560, Note_on_c, 9, 40, 109
2, 71039, Note_on_c, 9, 40, 0
2, 71520, Note_on_c, 9, 40, 109
2, 71999, Note_on_c, 9, 40, 0
2, 72480, Note_on_c, 9, 40, 111
2, 72959, Note_on_c, 9, 40, 0
2, 73440, Note_on_c, 9, 40, 109
2, 73919, Note_on_c, 9, 40, 0
2, 74400, Note_on_c, 9, 40, 110
2, 74439, Note_on_c, 9, 40, 0
2, 74440, Note_on_c, 9, 40, 89
2, 74519, Note_on_c, 9, 40, 0
2, 75360, Note_on_c, 9, 40, 111
2, 75839, Note_on_c, 9, 40, 0
2, 76320, Note_on_c, 9, 40, 110
2, 76799, Note_on_c, 9, 40, 0
2, 77280, Note_on_c, 9, 40, 110
2, 77759, Note_on_c, 9, 40, 0
2, 78240, Note_on_c, 9, 40, 108
2, 78719, Note_on_c, 9, 40, 0
2, 79200, Note_on_c, 9, 40, 111
2, 79679, Note_on_c, 9, 40, 0
2, 80160, Note_on_c, 9, 40, 110
2, 80639, Note_on_c, 9, 40, 0
2, 80640, Note_on_c, 9, 40, 33
2, 80759, Note_on_c, 9, 40, 0
2, 80760, Note_on_c, 9, 40, 37
2, 80879, Note_on_c, 9, 40, 0
2, 80880, Note_on_c, 9, 40, 110
2, 81119, Note_on_c, 9, 40, 0
2, 81120, Note_on_c, 9, 40, 109
2, 81239, Note_on_c, 9, 40, 0
2, 81240, Note_on_c, 9, 40, 91
2, 81359, Note_on_c, 9, 40, 0
2, 81360, Note_on_c, 9, 40, 73
2, 81599, Note_on_c, 9, 40, 0
2, 81600, Note_on_c, 9, 40, 33
2, 81719, Note_on_c, 9, 40, 0
2, 81720, Note_on_c, 9, 40, 38
2, 81839, Note_on_c, 9, 40, 0
2, 81840, Note_on_c, 9, 40, 108
2, 82079, Note_on_c, 9, 40, 0
2, 82080, Note_on_c, 9, 40, 109
2, 82319, Note_on_c, 9, 40, 0
2, 82320, Note_on_c, 9, 40, 91
2, 82559, Note_on_c, 9, 40, 0
2, 83040, Note_on_c, 9, 40, 111
2, 83519, Note_on_c, 9, 40, 0
2, 84000, Note_on_c, 9, 40, 108
2, 84479, Note_on_c, 9, 40, 0
2, 84960, Note_on_c, 9, 40, 109
2, 85439, Note_on_c, 9, 40, 0
2, 85920, Note_on_c, 9, 40, 110
2, 86399, Note_on_c, 9, 40, 0
2, 86880, Note_on_c, 9, 40, 109
2, 87359, Note_on_c, 9, 40, 0
2, 87840, Note_on_c, 9, 40, 111
2, 88319, Note_on_c, 9, 40, 0
2, 88800, Note_on_c, 9, 40, 109
2, 89279, Note_on_c, 9, 40, 0
2, 89280, Note_on_c, 9, 40, 109
2, 89759, Note_on_c, 9, 40, 0
2, 90720, Note_on_c, 9, 40, 109
2, 91199, Note_on_c, 9, 40, 0
2, 91680, Note_on_c, 9, 40, 111
2, 92159, Note_on_c, 9, 40, 0
2, 92640, Note_on_c, 9, 40, 111
2, 93119, Note_on_c, 9, 40, 0
2, 93600, Note_on_c, 9, 40, 109
2, 94079, Note_on_c, 9, 40, 0
2, 94560, Note_on_c, 9, 40, 108
2, 95039, Note_on_c, 9, 40, 0
2, 95520, Note_on_c, 9, 40, 111
2, 95999, Note_on_c, 9, 40, 0
2, 96000, Note_on_c, 9, 40, 34
2, 96119, Note_on_c, 9, 40, 0
2, 96120, Note_on_c, 9, 40, 34
2, 96239, Note_on_c, 9, 40, 0
2, 96240, Note_on_c, 9, 40, 109
2, 96479, Note_on_c, 9, 40, 0
2, 96480, Note_on_c, 9, 40, 110
2, 96599, Note_on_c, 9, 40, 0
2, 96600, Note_on_c, 9, 40, 91
2, 96719, Note_on_c, 9, 40, 0
2, 96720, Note_on_c, 9, 40, 68
2, 96959, Note_on_c, 9, 40, 0
2, 96960, Note_on_c, 9, 40, 38
2, 97079, Note_on_c, 9, 40, 0
2, 97080, Note_on_c, 9, 40, 37
2, 97199, Note_on_c, 9, 40, 0
2, 97200, Note_on_c, 9, 40, 111
2, 97319, Note_on_c, 9, 40, 0
2, 97320, Note_on_c, 9, 40, 91
2, 97439, Note_on_c, 9, 40, 0
2, 97440, Note_on_c, 9, 40, 108
2, 97679, Note_on_c, 9, 40, 0
2, 97680, Note_on_c, 9, 40, 91
2, 97919, Note_on_c, 9, 40, 0
2, 98400, Note_on_c, 9, 40, 110
2, 98879, Note_on_c, 9, 40, 0
2, 99360, Note_on_c, 9, 40, 110
2, 99839, Note_on_c, 9, 40, 0
2, 100320, Note_on_c, 9, 40, 110
2, 100799, Note_on_c, 9, 40, 0
2, 101280, Note_on_c, 9, 40, 110
2, 101759, Note_on_c, 9, 40, 0
2, 102240, Note_on_c, 9, 40, 110
2, 102719, Note_on_c, 9, 40, 0
2, 103200, Note_on_c, 9, 40, 109
2, 103679, Note_on_c, 9, 40, 0
2, 104160, Note_on_c, 9, 40, 111
2, 104639, Note_on_c, 9, 40, 0
2, 105000, Note_on_c, 9, 40, 71
2, 105119, Note_on_c, 9, 40, 0
2, 105360, Note_on_c, 9, 40, 109
2, 105599, Note_on_c, 9, 40, 0
2, 106080, Note_on_c, 9, 40, 108
2, 106559, Note_on_c, 9, 40, 0
2, 107040, Note_on_c, 9, 40, 111
2, 107519, Note_on_c, 9, 40, 0
2, 108000, Note_on_c, 9, 40, 111
2, 108479, Note_on_c, 9, 40, 0
2, 108960, Note_on_c, 9, 40, 111
2, 109439, Note_on_c, 9, 40, 0
2, 109920, Note_on_c, 9, 40, 110
2, 110399, Note_on_c, 9, 40, 0
2, 110880, Note_on_c, 9, 40, 109
2, 111359, Note_on_c, 9, 40, 0
2, 111360, Note_on_c, 9, 40, 110
2, 111399, Note_on_c, 9, 40, 0
2, 111400, Note_on_c, 9, 40, 89
2, 111479, Note_on_c, 9, 40, 0
2, 112800, Note_on_c, 9, 40, 110
2, 112839, Note_on_c, 9, 40, 0
2, 112840, Note_on_c, 9, 40, 89
2, 112919, Note_on_c, 9, 40, 0
2, 113040, Note_on_c, 9, 40, 88
2, 113159, Note_on_c, 9, 40, 0
2, 113160, Note_on_c, 9, 40, 90
2, 113279, Note_on_c, 9, 40, 0
2, 113760, Note_on_c, 9, 40, 110
2, 114239, Note_on_c, 9, 40, 0
2, 114720, Note_on_c, 9, 40, 109
2, 115199, Note_on_c, 9, 40, 0
2, 115680, Note_on_c, 9, 40, 111
2, 116159, Note_on_c, 9, 40, 0
2, 116640, Note_on_c, 9, 40, 108
2, 117119, Note_on_c, 9, 40, 0
2, 117600, Note_on_c, 9, 40, 111
2, 118079, Note_on_c, 9, 40, 0
2, 118560, Note_on_c, 9, 40, 110
2, 119039, Note_on_c, 9, 40, 0
2, 119520, Note_on_c, 9, 40, 111
2, 119999, Note_on_c, 9, 40, 0
2, 120240, Note_on_c, 9, 40, 110
2, 120479, Note_on_c, 9, 40, 0
2, 120720, Note_on_c, 9, 40, 71
2, 120959, Note_on_c, 9, 40, 0
2, 121440, Note_on_c, 9, 40, 110
2, 121919, Note_on_c, 9, 40, 0
2, 122400, Note_on_c, 9, 40, 109
2, 122879, Note_on_c, 9, 40, 0
2, 123360, Note_on_c, 9, 40, 109
2, 123839, Note_on_c, 9, 40, 0
2, 124320, Note_on_c, 9, 40, 108
2, 124799, Note_on_c, 9, 40, 0
2, 125280, Note_on_c, 9, 40, 108
2, 125759, Note_on_c, 9, 40, 0
2, 126240, Note_on_c, 9, 40, 109
2, 126719, Note_on_c, 9, 40, 0
2, 127200, Note_on_c, 9, 40, 109
2, 127319, Note_on_c, 9, 40, 0
2, 127320, Note_on_c, 9, 40, 89
2, 127679, Note_on_c, 9, 40, 0
2, 129120, Note_on_c, 9, 40, 109
2, 129599, Note_on_c, 9, 40, 0
2, 130080, Note_on_c, 9, 40, 110
2, 130559, Note_on_c, 9, 40, 0
2, 131040, Note_on_c, 9, 40, 108
2, 131519, Note_on_c, 9, 40, 0
2, 132000, Note_on_c, 9, 40, 108
2, 132479, Note_on_c, 9, 40, 0
2, 132960, Note_on_c, 9, 40, 111
2, 133439, Note_on_c, 9, 40, 0
2, 133920, Note_on_c, 9, 40, 111
2, 134399, Note_on_c, 9, 40, 0
2, 134880, Note_on_c, 9, 40, 110
2, 135359, Note_on_c, 9, 40, 0
2, 135360, Note_on_c, 9, 40, 34
2, 135479, Note_on_c, 9, 40, 0
2, 135480, Note_on_c, 9, 40, 68
2, 135839, Note_on_c, 9, 40, 0
2, 135840, Note_on_c, 9, 40, 108
2, 136319, Note_on_c, 9, 40, 0
2, 136800, Note_on_c, 9, 40, 111
2, 137279, Note_on_c, 9, 40, 0
2, 137760, Note_on_c, 9, 40, 110
2, 138239, Note_on_c, 9, 40, 0
2, 138720, Note_on_c, 9, 40, 111
2, 139199, Note_on_c, 9, 40, 0
2, 139680, Note_on_c, 9, 40, 109
2, 140159, Note_on_c, 9, 40, 0
2, 140640, Note_on_c, 9, 40, 111
2, 141119, Note_on_c, 9, 40, 0
2, 141600, Note_on_c, 9, 40, 109
2, 142079, Note_on_c, 9, 40, 0
2, 142080, Note_on_c, 9, 40, 109
2, 142559, Note_on_c, 9, 40, 0
2, 143520, Note_on_c, 9, 40, 108
2, 143559, Note_on_c, 9, 40, 0
2, 143560, Note_on_c, 9, 40, 90
2, 143639, Note_on_c, 9, 40, 0
2, 143760, Note_on_c, 9, 40, 89
2, 143879, Note_on_c, 9, 40, 0
2, 143880, Note_on_c, 9, 40, 91
2, 143999, Note_on_c, 9, 40, 0
2, 144480, Note_on_c, 9, 40, 109
2, 144959, Note_on_c, 9, 40, 0
2, 145440, Note_on_c, 9, 40, 111
2, 145919, Note_on_c, 9, 40, 0
2, 146400, Note_on_c, 9, 40, 108
2, 146879, Note_on_c, 9, 40, 0
2, 147360, Note_on_c, 9, 40, 109
2, 147839, Note_on_c, 9, 40, 0
2, 148320, Note_on_c, 9, 40, 108
2, 148799, Note_on_c, 9, 40, 0
2, 149280, Note_on_c, 9, 40, 111
2, 149759, Note_on_c, 9, 40, 0
2, 150240, Note_on_c, 9, 40, 109
2, 150719, Note_on_c, 9, 40, 0
2, 150840, Note_on_c, 9, 40, 37
2, 150959, Note_on_c, 9, 40, 0
2, 150960, Note_on_c, 9, 40, 109
2, 151079, Note_on_c, 9, 40, 0
2, 151080, Note_on_c, 9, 40, 90
2, 151199, Note_on_c, 9, 40, 0
2, 151200, Note_on_c, 9, 40, 110
2, 151439, Note_on_c, 9, 40, 0
2, 151440, Note_on_c, 9, 40, 91
2, 151679, Note_on_c, 9, 40, 0
2, 152160, Note_on_c, 9, 40, 109
2, 152639, Note_on_c, 9, 40, 0
2, 153120, Note_on_c, 9, 40, 108
2, 153599, Note_on_c, 9, 40, 0
2, 154080, Note_on_c, 9, 40, 110
2, 154559, Note_on_c, 9, 40, 0
2, 155040, Note_on_c, 9, 40, 108
2, 155519, Note_on_c, 9, 40, 0
2, 156000, Note_on_c, 9, 40, 108
2, 156479, Note_on_c, 9, 40, 0
2, 156960, Note_on_c, 9, 40, 108
2, 157439, Note_on_c, 9, 40, 0
2, 157440, Note_on_c, 9, 40, 111
2, 157479, Note_on_c, 9, 40, 0
2, 157480, Note_on_c, 9, 40, 91
2, 157559, Note_on_c, 9, 40, 0
2, 158160, Note_on_c, 9, 40, 111
2, 158199, Note_on_c, 9, 40, 0
2, 158200, Note_on_c, 9, 40, 88
2, 158279, Note_on_c, 9, 40, 0
2, 158880, Note_on_c, 9, 40, 108
2, 158919, Note_on_c, 9, 40, 0
2, 158920, Note_on_c, 9, 40, 89
2, 158999, Note_on_c, 9, 40, 0
2, 159120, Note_on_c, 9, 40, 88
2, 159239, Note_on_c, 9, 40, 0
2, 159240, Note_on_c, 9, 40, 89
2, 159359, Note_on_c, 9, 40, 0
2, 159840, Note_on_c, 9, 40, 111
2, 160319, Note_on_c, 9, 40, 0
2, 160800, Note_on_c, 9, 40, 110
2, 161279, Note_on_c, 9, 40, 0
2, 161760, Note_on_c, 9, 40, 108
2, 162239, Note_on_c, 9, 40, 0
2, 162720, Note_on_c, 9, 40, 108
2, 163199, Note_on_c, 9, 40, 0
2, 163680, Note_on_c, 9, 40, 110
2, 164159, Note_on_c, 9, 40, 0
2, 164640, Note_on_c, 9, 40, 111
2, 165119, Note_on_c, 9, 40, 0
2, 165600, Note_on_c, 9, 40, 110
2, 166079, Note_on_c, 9, 40, 0
2, 166320, Note_on_c, 9, 40, 108
2, 166559, Note_on_c, 9, 40, 0
2, 166800, Note_on_c, 9, 40, 70
2, 167039, Note_on_c, 9, 40, 0
2, 167520, Note_on_c, 9, 40, 108
2, 167999, Note_on_c, 9, 40, 0
2, 168480, Note_on_c, 9, 40, 108
2, 168959, Note_on_c, 9, 40, 0
2, 169440, Note_on_c, 9, 40, 108
2, 169919, Note_on_c, 9, 40, 0
2, 170400, Note_on_c, 9, 40, 111
2, 170879, Note_on_c, 9, 40, 0
2, 171360, Note_on_c, 9, 40, 109
2, 171839, Note_on_c, 9, 40, 0
2, 172320, Note_on_c, 9, 40, 110
2, 172799, Note_on_c, 9, 40, 0
2, 172800, Note_on_c, 9, 40, 33
2, 172879, Note_on_c, 9, 40, 0
2, 172880, Note_on_c, 9, 40, 34
2, 172959, Note_on_c, 9, 40, 0
2, 172960, Note_on_c, 9, 40, 38
2, 173039, Note_on_c, 9, 40, 0
2, 173040, Note_on_c, 9, 40, 108
2, 173279, Note_on_c, 9, 40, 0
2, 173280, Note_on_c, 9, 40, 37
2, 173759, Note_on_c, 9, 40, 0
2, 173760, Note_on_c, 9, 40, 36
2, 174239, Note_on_c, 9, 40, 0
2, 175200, Note_on_c, 9, 40, 109
2, 175679, Note_on_c, 9, 40, 0
2, 176160, Note_on_c, 9, 40, 108
2, 176639, Note_on_c, 9, 40, 0
2, 177120, Note_on_c, 9, 40, 110
2, 177599, Note_on_c, 9, 40, 0
2, 178080, Note_on_c, 9, 40, 111
2, 178559, Note_on_c, 9, 40, 0
2, 179040, Note_on_c, 9, 40, 108
2, 179519, Note_on_c, 9, 40, 0
2, 180000, Note_on_c, 9, 40, 108
2, 180479, Note_on_c, 9, 40, 0
2, 180960, Note_on_c, 9, 40, 108
2, 181439, Note_on_c, 9, 40, 0
2, 181520, Note_on_c, 9, 40, 36
2, 181599, Note_on_c, 9, 40, 0
2, 181600, Note_on_c, 9, 40, 34
2, 181679, Note_on_c, 9, 40, 0
2, 181680, Note_on_c, 9, 40, 110
2, 181919, Note_on_c, 9, 40, 0
2, 181920, Note_on_c, 9, 40, 111
2, 182039, Note_on_c, 9, 40, 0
2, 182040, Note_on_c, 9, 40, 91
2, 182159, Note_on_c, 9, 40, 0
2, 182160, Note_on_c, 9, 40, 91
2, 182399, Note_on_c, 9, 40, 0
2, 182880, Note_on_c, 9, 40, 110
2, 183359, Note_on_c, 9, 40, 0
2, 183840, Note_on_c, 9, 40, 109
2, 184319, Note_on_c, 9, 40, 0
2, 184800, Note_on_c, 9, 40, 111
2, 185279, Note_on_c, 9, 40, 0
2, 185760, Note_on_c, 9, 40, 111
2, 186239, Note_on_c, 9, 40, 0
2, 186720, Note_on_c, 9, 40, 109
2, 187199, Note_on_c, 9, 40, 0
2, 187680, Note_on_c, 9, 40, 109
2, 188159, Note_on_c, 9, 40, 0
2, 188160, Note_on_c, 9, 40, 111
2, 188639, Note_on_c, 9, 40, 0
2, 190560, Note_on_c, 9, 40, 109
2, 191039, Note_on_c, 9, 40, 0
2, 191520, Note_on_c, 9, 40, 111
2, 191999, Note_on_c, 9, 40, 0
2, 192480, Note_on_c, 9, 40, 109
2, 192959, Note_on_c, 9, 40, 0
2, 193440, Note_on_c, 9, 40, 110
2, 193919, Note_on_c, 9, 40, 0
2, 194400, Note_on_c, 9, 40, 108
2, 194879, Note_on_c, 9, 40, 0
2, 195360, Note_on_c, 9, 40, 111
2, 195839, Note_on_c, 9, 40, 0
2, 196320, Note_on_c, 9, 40, 109
2, 196799, Note_on_c, 9, 40, 0
2, 196800, Note_on_c, 9, 40, 35
2, 196919, Note_on_c, 9, 40, 0
2, 196920, Note_on_c, 9, 40, 37
2, 197039, Note_on_c, 9, 40, 0
2, 197040, Note_on_c, 9, 40, 111
2, 197279, Note_on_c, 9, 40, 0
2, 197280, Note_on_c, 9, 40, 111
2, 197519, Note_on_c, 9, 40, 0
2, 197520, Note_on_c, 9, 40, 91
2, 197759, Note_on_c, 9, 40, 0
2, 198240, Note_on_c, 9, 40, 111
2, 198719, Note_on_c, 9, 40, 0
2, 199200, Note_on_c, 9, 40, 108
2, 199679, Note_on_c, 9, 40, 0
2, 200160, Note_on_c, 9, 40, 110
2, 200639, Note_on_c, 9, 40, 0
2, 201120, Note_on_c, 9, 40, 111
2, 201599, Note_on_c, 9, 40, 0
2, 202080, Note_on_c, 9, 40, 111
2, 202559, Note_on_c, 9, 40, 0
2, 203040, Note_on_c, 9, 40, 108
2, 203519, Note_on_c, 9, 40, 0
2, 204120, Note_on_c, 9, 40, 71
2, 204239, Note_on_c, 9, 40, 0
2, 204240, Note_on_c, 9, 40, 111
2, 204479, Note_on_c, 9, 40, 0
2, 204960, Note_on_c, 9, 40, 109
2, 205439, Note_on_c, 9, 40, 0
2, 205920, Note_on_c, 9, 40, 109
2, 206399, Note_on_c, 9, 40, 0
2, 206880, Note_on_c, 9, 40, 109
2, 207359, Note_on_c, 9, 40, 0
2, 212280, Note_on_c, 9, 40, 70
2, 212639, Note_on_c, 9, 40, 0
2, 212640, Note_on_c, 9, 40, 89
2, 212679, Note_on_c, 9, 40, 0
2, 212680, Note_on_c, 9, 40, 80
2, 212759, Note_on_c, 9, 40, 0
2, 212760, End_track
3, 0, Start_track
3, 0, Key_signature, 0, "major"
3, 0, Control_c, 9, 121, 0
3, 0, Program_c, 9, 0
3, 0, Control_c, 9, 7, 100
3, 0, Control_c, 9, 10, 64
3, 0, Control_c, 9, 91, 0
3, 0, Control_c, 9, 93, 0
3, 0, MIDI_port, 0
3, 480, Note_on_c, 9, 42, 69
3, 959, Note_on_c, 9, 42, 0
3, 960, Note_on_c, 9, 42, 69
3, 1439, Note_on_c, 9, 42, 0
3, 1440, Note_on_c, 9, 42, 71
3, 1919, Note_on_c, 9, 42, 0
3, 1920, Note_on_c, 9, 42, 89
3, 2399, Note_on_c, 9, 42, 0
3, 2400, Note_on_c, 9, 42, 71
3, 2879, Note_on_c, 9, 42, 0
3, 2880, Note_on_c, 9, 42, 68
3, 3359, Note_on_c, 9, 42, 0
3, 3360, Note_on_c, 9, 42, 71
3, 3839, Note_on_c, 9, 42, 0
3, 3840, Note_on_c, 9, 42, 91
3, 4319, Note_on_c, 9, 42, 0
3, 4320, Note_on_c, 9, 42, 68
3, 4799, Note_on_c, 9, 42, 0
3, 4800, Note_on_c, 9, 42, 70
3, 5279, Note_on_c, 9, 42, 0
3, 5280, Note_on_c, 9, 42, 70
3, 5759, Note_on_c, 9, 42, 0
3, 5760, Note_on_c, 9, 42, 91
3, 6239, Note_on_c, 9, 42, 0
3, 6240, Note_on_c, 9, 42, 69
3, 6719, Note_on_c, 9, 42, 0
3, 7200, Note_on_c, 9, 42, 69
3, 7679, Note_on_c, 9, 42, 0
3, 7680, Note_on_c, 9, 42, 88
3, 8159, Note_on_c, 9, 42, 0
3, 8160, Note_on_c, 9, 42, 68
3, 8639, Note_on_c, 9, 42, 0
3, 8640, Note_on_c, 9, 42, 70
3, 9119, Note_on_c, 9, 42, 0
3, 9120, Note_on_c, 9, 42, 69
3, 9599, Note_on_c, 9, 42, 0
3, 9600, Note_on_c, 9, 42, 89
3, 10079, Note_on_c, 9, 42, 0
3, 10080, Note_on_c, 9, 42, 70
3, 10559, Note_on_c, 9, 42, 0
3, 12000, Note_on_c, 9, 42, 70
3, 12479, Note_on_c, 9, 42, 0
3, 12480, Note_on_c, 9, 42, 71
3, 12959, Note_on_c, 9, 42, 0
3, 12960, Note_on_c, 9, 42, 68
3, 13439, Note_on_c, 9, 42, 0
3, 13440, Note_on_c, 9, 42, 89
3, 13919, Note_on_c, 9, 42, 0
3, 13920, Note_on_c, 9, 42, 68
3, 14399, Note_on_c, 9, 42, 0
3, 14880, Note_on_c, 9, 42, 71
3, 15359, Note_on_c, 9, 42, 0
3, 15840, Note_on_c, 9, 42, 70
3, 16319, Note_on_c, 9, 42, 0
3, 16320, Note_on_c, 9, 42, 71
3, 16799, Note_on_c, 9, 42, 0
3, 16800, Note_on_c, 9, 42, 68
3, 17279, Note_on_c, 9, 42, 0
3, 17280, Note_on_c, 9, 42, 89
3, 17759, Note_on_c, 9, 42, 0
3, 17760, Note_on_c, 9, 42, 68
3, 18239, Note_on_c, 9, 42, 0
3, 19200, Note_on_c, 9, 42, 90
3, 19679, Note_on_c, 9, 42, 0
3, 19680, Note_on_c, 9, 42, 69
3, 20159, Note_on_c, 9, 42, 0
3, 20160, Note_on_c, 9, 42, 70
3, 20639, Note_on_c, 9, 42, 0
3, 20640, Note_on_c, 9, 42, 69
3, 21119, Note_on_c, 9, 42, 0
3, 21120, Note_on_c, 9, 42, 90
3, 21599, Note_on_c, 9, 42, 0
3, 21600, Note_on_c, 9, 42, 71
3, 22079, Note_on_c, 9, 42, 0
3, 22560, Note_on_c, 9, 42, 71
3, 23039, Note_on_c, 9, 42, 0
3, 23040, Note_on_c, 9, 42, 90
3, 23519, Note_on_c, 9, 42, 0
3, 23520, Note_on_c, 9, 42, 69
3, 23999, Note_on_c, 9, 42, 0
3, 24000, Note_on_c, 9, 42, 70
3, 24479, Note_on_c, 9, 42, 0
3, 24480, Note_on_c, 9, 42, 69
3, 24959, Note_on_c, 9, 42, 0
3, 26880, Note_on_c, 9, 42, 88
3, 27359, Note_on_c, 9, 42, 0
3, 27360, Note_on_c, 9, 42, 68
3, 27839, Note_on_c, 9, 42, 0
3, 27840, Note_on_c, 9, 42, 71
3, 28319, Note_on_c, 9, 42, 0
3, 28320, Note_on_c, 9, 42, 70
3, 28799, Note_on_c, 9, 42, 0
3, 28800, Note_on_c, 9, 42, 88
3, 29279, Note_on_c, 9, 42, 0
3, 29280, Note_on_c, 9, 42, 70
3, 29759, Note_on_c, 9, 42, 0
3, 29760, Note_on_c, 9, 42, 70
3, 30239, Note_on_c, 9, 42, 0
3, 30240, Note_on_c, 9, 42, 69
3, 30719, Note_on_c, 9, 42, 0
3, 30720, Note_on_c, 9, 42, 91
3, 31199, Note_on_c, 9, 42, 0
3, 31200, Note_on_c, 9, 42, 70
3, 31679, Note_on_c, 9, 42, 0
3, 31680, Note_on_c, 9, 42, 70
3, 32159, Note_on_c, 9, 42, 0
3, 32160, Note_on_c, 9, 42, 71
3, 32639, Note_on_c, 9, 42, 0
3, 32640, Note_on_c, 9, 42, 88
3, 33119, Note_on_c, 9, 42, 0
3, 33120, Note_on_c, 9, 42, 70
3, 33599, Note_on_c, 9, 42, 0
3, 34560, Note_on_c, 9, 42, 91
3, 35039, Note_on_c, 9, 42, 0
3, 35040, Note_on_c, 9, 42, 70
3, 35519, Note_on_c, 9, 42, 0
3, 35520, Note_on_c, 9, 42, 70
3, 35999, Note_on_c, 9, 42, 0
3, 36000, Note_on_c, 9, 42, 71
3, 36479, Note_on_c, 9, 42, 0
3, 36480, Note_on_c, 9, 42, 88
3, 36959, Note_on_c, 9, 42, 0
3, 36960, Note_on_c, 9, 42, 70
3, 37439, Note_on_c, 9, 42, 0
3, 37440, Note_on_c, 9, 42, 70
3, 37919, Note_on_c, 9, 42, 0
3, 38400, Note_on_c, 9, 42, 89
3, 38879, Note_on_c, 9, 42, 0
3, 38880, Note_on_c, 9, 42, 69
3, 39359, Note_on_c, 9, 42, 0
3, 39360, Note_on_c, 9, 42, 71
3, 39839, Note_on_c, 9, 42, 0
3, 39840, Note_on_c, 9, 42, 68
3, 40319, Note_on_c, 9, 42, 0
3, 42240, Note_on_c, 9, 42, 89
3, 42719, Note_on_c, 9, 42, 0
3, 42720, Note_on_c, 9, 42, 71
3, 43199, Note_on_c, 9, 42, 0
3, 43200, Note_on_c, 9, 42, 69
3, 43679, Note_on_c, 9, 42, 0
3, 43680, Note_on_c, 9, 42, 71
3, 44159, Note_on_c, 9, 42, 0
3, 44160, Note_on_c, 9, 42, 91
3, 44639, Note_on_c, 9, 42, 0
3, 44640, Note_on_c, 9, 42, 68
3, 45119, Note_on_c, 9, 42, 0
3, 45120, Note_on_c, 9, 42, 68
3, 45599, Note_on_c, 9, 42, 0
3, 45600, Note_on_c, 9, 42, 70
3, 46079, Note_on_c, 9, 42, 0
3, 46080, Note_on_c, 9, 42, 89
3, 46559, Note_on_c, 9, 42, 0
3, 46560, Note_on_c, 9, 42, 71
3, 47039, Note_on_c, 9, 42, 0
3, 47040, Note_on_c, 9, 42, 69
3, 47519, Note_on_c, 9, 42, 0
3, 47520, Note_on_c, 9, 42, 71
3, 47999, Note_on_c, 9, 42, 0
3, 48000, Note_on_c, 9, 42, 91
3, 48479, Note_on_c, 9, 42, 0
3, 48480, Note_on_c, 9, 42, 68
3, 48959, Note_on_c, 9, 42, 0
3, 48960, Note_on_c, 9, 42, 68
3, 49439, Note_on_c, 9, 42, 0
3, 49920, Note_on_c, 9, 42, 89
3, 50399, Note_on_c, 9, 42, 0
3, 50400, Note_on_c, 9, 42, 68
3, 50879, Note_on_c, 9, 42, 0
3, 50880, Note_on_c, 9, 42, 70
3, 51359, Note_on_c, 9, 42, 0
3, 51840, Note_on_c, 9, 42, 91
3, 52319, Note_on_c, 9, 42, 0
3, 52320, Note_on_c, 9, 42, 71
3, 52799, Note_on_c, 9, 42, 0
3, 52800, Note_on_c, 9, 42, 70
3, 53279, Note_on_c, 9, 42, 0
3, 53280, Note_on_c, 9, 42, 69
3, 53759, Note_on_c, 9, 42, 0
3, 53760, Note_on_c, 9, 42, 89
3, 54239, Note_on_c, 9, 42, 0
3, 54240, Note_on_c, 9, 42, 68
3, 54719, Note_on_c, 9, 42, 0
3, 54720, Note_on_c, 9, 42, 70
3, 55199, Note_on_c, 9, 42, 0
3, 57600, Note_on_c, 9, 42, 91
3, 58079, Note_on_c, 9, 42, 0
3, 58080, Note_on_c, 9, 42, 70
3, 58559, Note_on_c, 9, 42, 0
3, 58560, Note_on_c, 9, 42, 71
3, 59039, Note_on_c, 9, 42, 0
3, 59040, Note_on_c, 9, 42, 69
3, 59519, Note_on_c, 9, 42, 0
3, 59520, Note_on_c, 9, 42, 88
3, 59999, Note_on_c, 9, 42, 0
3, 60000, Note_on_c, 9, 42, 70
3, 60479, Note_on_c, 9, 42, 0
3, 60480, Note_on_c, 9, 42, 68
3, 60959, Note_on_c, 9, 42, 0
3, 60960, Note_on_c, 9, 42, 68
3, 61439, Note_on_c, 9, 42, 0
3, 61440, Note_on_c, 9, 42, 91
3, 61919, Note_on_c, 9, 42, 0
3, 61920, Note_on_c, 9, 42, 70
3, 62399, Note_on_c, 9, 42, 0
3, 62400, Note_on_c, 9, 42, 71
3, 62879, Note_on_c, 9, 42, 0
3, 62880, Note_on_c, 9, 42, 69
3, 63359, Note_on_c, 9, 42, 0
3, 63360, Note_on_c, 9, 42, 88
3, 63839, Note_on_c, 9, 42, 0
3, 63840, Note_on_c, 9, 42, 70
3, 64319, Note_on_c, 9, 42, 0
3, 64320, Note_on_c, 9, 42, 68
3, 64799, Note_on_c, 9, 42, 0
3, 64800, Note_on_c, 9, 42, 68
3, 65279, Note_on_c, 9, 42, 0
3, 65280, Note_on_c, 9, 42, 91
3, 65759, Note_on_c, 9, 42, 0
3, 65760, Note_on_c, 9, 42, 71
3, 66239, Note_on_c, 9, 42, 0
3, 66240, Note_on_c, 9, 42, 70
3, 66719, Note_on_c, 9, 42, 0
3, 67200, Note_on_c, 9, 42, 90
3, 67679, Note_on_c, 9, 42, 0
3, 67680, Note_on_c, 9, 42, 71
3, 68159, Note_on_c, 9, 42, 0
3, 68160, Note_on_c, 9, 42, 70
3, 68639, Note_on_c, 9, 42, 0
3, 68640, Note_on_c, 9, 42, 69
3, 69119, Note_on_c, 9, 42, 0
3, 69120, Note_on_c, 9, 42, 91
3, 69599, Note_on_c, 9, 42, 0
3, 69600, Note_on_c, 9, 42, 71
3, 70079, Note_on_c, 9, 42, 0
3, 70080, Note_on_c, 9, 42, 70
3, 70559, Note_on_c, 9, 42, 0
3, 70560, Note_on_c, 9, 42, 68
3, 71039, Note_on_c, 9, 42, 0
3, 71040, Note_on_c, 9, 42, 90
3, 71519, Note_on_c, 9, 42, 0
3, 71520, Note_on_c, 9, 42, 71
3, 71999, Note_on_c, 9, 42, 0
3, 72000, Note_on_c, 9, 42, 70
3, 72479, Note_on_c, 9, 42, 0
3, 72480, Note_on_c, 9, 42, 69
3, 72959, Note_on_c, 9, 42, 0
3, 72960, Note_on_c, 9, 42, 91
3, 73439, Note_on_c, 9, 42, 0
3, 73440, Note_on_c, 9, 42, 71
3, 73919, Note_on_c, 9, 42, 0
3, 74880, Note_on_c, 9, 42, 90
3, 75359, Note_on_c, 9, 42, 0
3, 75360, Note_on_c, 9, 42, 71
3, 75839, Note_on_c, 9, 42, 0
3, 75840, Note_on_c, 9, 42, 70
3, 76319, Note_on_c, 9, 42, 0
3, 76320, Note_on_c, 9, 42, 69
3, 76799, Note_on_c, 9, 42, 0
3, 76800, Note_on_c, 9, 42, 91
3, 77279, Note_on_c, 9, 42, 0
3, 77280, Note_on_c, 9, 42, 71
3, 77759, Note_on_c, 9, 42, 0
3, 77760, Note_on_c, 9, 42, 70
3, 78239, Note_on_c, 9, 42, 0
3, 78240, Note_on_c, 9, 42, 68
3, 78719, Note_on_c, 9, 42, 0
3, 78720, Note_on_c, 9, 42, 90
3, 79199, Note_on_c, 9, 42, 0
3, 79200, Note_on_c, 9, 42, 71
3, 79679, Note_on_c, 9, 42, 0
3, 79680, Note_on_c, 9, 42, 70
3, 80159, Note_on_c, 9, 42, 0
3, 80160, Note_on_c, 9, 42, 69
3, 80639, Note_on_c, 9, 42, 0
3, 82560, Note_on_c, 9, 42, 90
3, 83039, Note_on_c, 9, 42, 0
3, 83040, Note_on_c, 9, 42, 71
3, 83519, Note_on_c, 9, 42, 0
3, 83520, Note_on_c, 9, 42, 70
3, 83999, Note_on_c, 9, 42, 0
3, 84000, Note_on_c, 9, 42, 69
3, 84479, Note_on_c, 9, 42, 0
3, 84480, Note_on_c, 9, 42, 88
3, 84959, Note_on_c, 9, 42, 0
3, 84960, Note_on_c, 9, 42, 69
3, 85439, Note_on_c, 9, 42, 0
3, 85440, Note_on_c, 9, 42, 68
3, 85919, Note_on_c, 9, 42, 0
3, 85920, Note_on_c, 9, 42, 71
3, 86399, Note_on_c, 9, 42, 0
3, 86400, Note_on_c, 9, 42, 91
3, 86879, Note_on_c, 9, 42, 0
3, 86880, Note_on_c, 9, 42, 70
3, 87359, Note_on_c, 9, 42, 0
3, 87360, Note_on_c, 9, 42, 68
3, 87839, Note_on_c, 9, 42, 0
3, 87840, Note_on_c, 9, 42, 71
3, 88319, Note_on_c, 9, 42, 0
3, 88320, Note_on_c, 9, 42, 91
3, 88799, Note_on_c, 9, 42, 0
3, 88800, Note_on_c, 9, 42, 70
3, 89279, Note_on_c, 9, 42, 0
3, 90240, Note_on_c, 9, 42, 88
3, 90719, Note_on_c, 9, 42, 0
3, 90720, Note_on_c, 9, 42, 71
3, 91199, Note_on_c, 9, 42, 0
3, 91200, Note_on_c, 9, 42, 68
3, 91679, Note_on_c, 9, 42, 0
3, 91680, Note_on_c, 9, 42, 69
3, 92159, Note_on_c, 9, 42, 0
3, 92160, Note_on_c, 9, 42, 89
3, 92639, Note_on_c, 9, 42, 0
3, 92640, Note_on_c, 9, 42, 70
3, 93119, Note_on_c, 9, 42, 0
3, 93120, Note_on_c, 9, 42, 71
3, 93599, Note_on_c, 9, 42, 0
3, 93600, Note_on_c, 9, 42, 68
3, 94079, Note_on_c, 9, 42, 0
3, 94080, Note_on_c, 9, 42, 88
3, 94559, Note_on_c, 9, 42, 0
3, 94560, Note_on_c, 9, 42, 71
3, 95039, Note_on_c, 9, 42, 0
3, 95040, Note_on_c, 9, 42, 71
3, 95519, Note_on_c, 9, 42, 0
3, 95520, Note_on_c, 9, 42, 69
3, 95999, Note_on_c, 9, 42, 0
3, 97920, Note_on_c, 9, 42, 91
3, 98399, Note_on_c, 9, 42, 0
3, 98400, Note_on_c, 9, 42, 68
3, 98879, Note_on_c, 9, 42, 0
3, 98880, Note_on_c, 9, 42, 71
3, 99359, Note_on_c, 9, 42, 0
3, 99360, Note_on_c, 9, 42, 70
3, 99839, Note_on_c, 9, 42, 0
3, 100320, Note_on_c, 9, 42, 70
3, 100799, Note_on_c, 9, 42, 0
3, 100800, Note_on_c, 9, 42, 71
3, 101279, Note_on_c, 9, 42, 0
3, 101280, Note_on_c, 9, 42, 70
3, 101759, Note_on_c, 9, 42, 0
3, 101760, Note_on_c, 9, 42, 91
3, 102239, Note_on_c, 9, 42, 0
3, 102240, Note_on_c, 9, 42, 68
3, 102719, Note_on_c, 9, 42, 0
3, 102720, Note_on_c, 9, 42, 71
3, 103199, Note_on_c, 9, 42, 0
3, 103200, Note_on_c, 9, 42, 70
3, 103679, Note_on_c, 9, 42, 0
3, 104160, Note_on_c, 9, 42, 70
3, 104639, Note_on_c, 9, 42, 0
3, 105600, Note_on_c, 9, 42, 91
3, 106079, Note_on_c, 9, 42, 0
3, 106080, Note_on_c, 9, 42, 68
3, 106559, Note_on_c, 9, 42, 0
3, 106560, Note_on_c, 9, 42, 71
3, 107039, Note_on_c, 9, 42, 0
3, 107040, Note_on_c, 9, 42, 70
3, 107519, Note_on_c, 9, 42, 0
3, 108000, Note_on_c, 9, 42, 70
3, 108479, Note_on_c, 9, 42, 0
3, 108480, Note_on_c, 9, 42, 71
3, 108959, Note_on_c, 9, 42, 0
3, 108960, Note_on_c, 9, 42, 70
3, 109439, Note_on_c, 9, 42, 0
3, 109440, Note_on_c, 9, 42, 91
3, 109919, Note_on_c, 9, 42, 0
3, 109920, Note_on_c, 9, 42, 68
3, 110399, Note_on_c, 9, 42, 0
3, 110400, Note_on_c, 9, 42, 71
3, 110879, Note_on_c, 9, 42, 0
3, 110880, Note_on_c, 9, 42, 70
3, 111359, Note_on_c, 9, 42, 0
3, 113280, Note_on_c, 9, 42, 88
3, 113759, Note_on_c, 9, 42, 0
3, 113760, Note_on_c, 9, 42, 69
3, 114239, Note_on_c, 9, 42, 0
3, 114240, Note_on_c, 9, 42, 68
3, 114719, Note_on_c, 9, 42, 0
3, 114720, Note_on_c, 9, 42, 69
3, 115199, Note_on_c, 9, 42, 0
3, 115200, Note_on_c, 9, 42, 91
3, 115679, Note_on_c, 9, 42, 0
3, 115680, Note_on_c, 9, 42, 71
3, 116159, Note_on_c, 9, 42, 0
3, 116160, Note_on_c, 9, 42, 70
3, 116639, Note_on_c, 9, 42, 0
3, 116640, Note_on_c, 9, 42, 69
3, 117119, Note_on_c, 9, 42, 0
3, 117120, Note_on_c, 9, 42, 88
3, 117599, Note_on_c, 9, 42, 0
3, 117600, Note_on_c, 9, 42, 69
3, 118079, Note_on_c, 9, 42, 0
3, 118080, Note_on_c, 9, 42, 68
3, 118559, Note_on_c, 9, 42, 0
3, 118560, Note_on_c, 9, 42, 69
3, 119039, Note_on_c, 9, 42, 0
3, 119040, Note_on_c, 9, 42, 91
3, 119519, Note_on_c, 9, 42, 0
3, 119520, Note_on_c, 9, 42, 71
3, 119999, Note_on_c, 9, 42, 0
3, 120000, Note_on_c, 9, 42, 70
3, 120479, Note_on_c, 9, 42, 0
3, 120960, Note_on_c, 9, 42, 88
3, 121439, Note_on_c, 9, 42, 0
3, 121440, Note_on_c, 9, 42, 69
3, 121919, Note_on_c, 9, 42, 0
3, 121920, Note_on_c, 9, 42, 68
3, 122399, Note_on_c, 9, 42, 0
3, 122400, Note_on_c, 9, 42, 69
3, 122879, Note_on_c, 9, 42, 0
3, 123360, Note_on_c, 9, 42, 68
3, 123839, Note_on_c, 9, 42, 0
3, 123840, Note_on_c, 9, 42, 71
3, 124319, Note_on_c, 9, 42, 0
3, 124800, Note_on_c, 9, 42, 91
3, 125279, Note_on_c, 9, 42, 0
3, 125280, Note_on_c, 9, 42, 68
3, 125759, Note_on_c, 9, 42, 0
3, 125760, Note_on_c, 9, 42, 71
3, 126239, Note_on_c, 9, 42, 0
3, 126240, Note_on_c, 9, 42, 69
3, 126719, Note_on_c, 9, 42, 0
3, 128640, Note_on_c, 9, 42, 89
3, 129119, Note_on_c, 9, 42, 0
3, 129120, Note_on_c, 9, 42, 69
3, 129599, Note_on_c, 9, 42, 0
3, 129600, Note_on_c, 9, 42, 69
3, 130079, Note_on_c, 9, 42, 0
3, 130080, Note_on_c, 9, 42, 71
3, 130559, Note_on_c, 9, 42, 0
3, 130560, Note_on_c, 9, 42, 91
3, 131039, Note_on_c, 9, 42, 0
3, 131040, Note_on_c, 9, 42, 71
3, 131519, Note_on_c, 9, 42, 0
3, 131520, Note_on_c, 9, 42, 70
3, 131999, Note_on_c, 9, 42, 0
3, 132000, Note_on_c, 9, 42, 69
3, 132479, Note_on_c, 9, 42, 0
3, 132480, Note_on_c, 9, 42, 91
3, 132959, Note_on_c, 9, 42, 0
3, 132960, Note_on_c, 9, 42, 69
3, 133439, Note_on_c, 9, 42, 0
3, 133440, Note_on_c, 9, 42, 71
3, 133919, Note_on_c, 9, 42, 0
3, 133920, Note_on_c, 9, 42, 69
3, 134399, Note_on_c, 9, 42, 0
3, 134400, Note_on_c, 9, 42, 90
3, 134879, Note_on_c, 9, 42, 0
3, 134880, Note_on_c, 9, 42, 68
3, 135359, Note_on_c, 9, 42, 0
3, 136320, Note_on_c, 9, 42, 91
3, 136799, Note_on_c, 9, 42, 0
3, 136800, Note_on_c, 9, 42, 70
3, 137279, Note_on_c, 9, 42, 0
3, 137280, Note_on_c, 9, 42, 71
3, 137759, Note_on_c, 9, 42, 0
3, 137760, Note_on_c, 9, 42, 71
3, 138239, Note_on_c, 9, 42, 0
3, 138240, Note_on_c, 9, 42, 90
3, 138719, Note_on_c, 9, 42, 0
3, 138720, Note_on_c, 9, 42, 70
3, 139199, Note_on_c, 9, 42, 0
3, 139200, Note_on_c, 9, 42, 68
3, 139679, Note_on_c, 9, 42, 0
3, 139680, Note_on_c, 9, 42, 68
3, 140159, Note_on_c, 9, 42, 0
3, 140160, Note_on_c, 9, 42, 88
3, 140639, Note_on_c, 9, 42, 0
3, 140640, Note_on_c, 9, 42, 71
3, 141119, Note_on_c, 9, 42, 0
3, 141120, Note_on_c, 9, 42, 69
3, 141599, Note_on_c, 9, 42, 0
3, 141600, Note_on_c, 9, 42, 70
3, 142079, Note_on_c, 9, 42, 0
3, 144000, Note_on_c, 9, 42, 88
3, 144479, Note_on_c, 9, 42, 0
3, 144480, Note_on_c, 9, 42, 71
3, 144959, Note_on_c, 9, 42, 0
3, 144960, Note_on_c, 9, 42, 69
3, 145439, Note_on_c, 9, 42, 0
3, 145440, Note_on_c, 9, 42, 70
3, 145919, Note_on_c, 9, 42, 0
3, 145920, Note_on_c, 9, 42, 90
3, 146399, Note_on_c, 9, 42, 0
3, 146400, Note_on_c, 9, 42, 70
3, 146879, Note_on_c, 9, 42, 0
3, 146880, Note_on_c, 9, 42, 68
3, 147359, Note_on_c, 9, 42, 0
3, 147360, Note_on_c, 9, 42, 68
3, 147839, Note_on_c, 9, 42, 0
3, 147840, Note_on_c, 9, 42, 88
3, 148319, Note_on_c, 9, 42, 0
3, 148320, Note_on_c, 9, 42, 71
3, 148799, Note_on_c, 9, 42, 0
3, 148800, Note_on_c, 9, 42, 69
3, 149279, Note_on_c, 9, 42, 0
3, 149280, Note_on_c, 9, 42, 70
3, 149759, Note_on_c, 9, 42, 0
3, 149760, Note_on_c, 9, 42, 90
3, 150239, Note_on_c, 9, 42, 0
3, 150240, Note_on_c, 9, 42, 70
3, 150719, Note_on_c, 9, 42, 0
3, 150720, Note_on_c, 9, 42, 68
3, 151199, Note_on_c, 9, 42, 0
3, 152640, Note_on_c, 9, 42, 70
3, 153119, Note_on_c, 9, 42, 0
3, 153120, Note_on_c, 9, 42, 71
3, 153599, Note_on_c, 9, 42, 0
3, 153600, Note_on_c, 9, 42, 90
3, 154079, Note_on_c, 9, 42, 0
3, 154080, Note_on_c, 9, 42, 70
3, 154559, Note_on_c, 9, 42, 0
3, 154560, Note_on_c, 9, 42, 68
3, 155039, Note_on_c, 9, 42, 0
3, 155040, Note_on_c, 9, 42, 68
3, 155519, Note_on_c, 9, 42, 0
3, 156480, Note_on_c, 9, 42, 70
3, 156959, Note_on_c, 9, 42, 0
3, 156960, Note_on_c, 9, 42, 71
3, 157439, Note_on_c, 9, 42, 0
3, 159360, Note_on_c, 9, 42, 90
3, 159839, Note_on_c, 9, 42, 0
3, 159840, Note_on_c, 9, 42, 70
3, 160319, Note_on_c, 9, 42, 0
3, 160320, Note_on_c, 9, 42, 70
3, 160799, Note_on_c, 9, 42, 0
3, 160800, Note_on_c, 9, 42, 71
3, 161279, Note_on_c, 9, 42, 0
3, 161280, Note_on_c, 9, 42, 88
3, 161759, Note_on_c, 9, 42, 0
3, 161760, Note_on_c, 9, 42, 68
3, 162239, Note_on_c, 9, 42, 0
3, 162240, Note_on_c, 9, 42, 68
3, 162719, Note_on_c, 9, 42, 0
3, 162720, Note_on_c, 9, 42, 70
3, 163199, Note_on_c, 9, 42, 0
3, 163200, Note_on_c, 9, 42, 90
3, 163679, Note_on_c, 9, 42, 0
3, 163680, Note_on_c, 9, 42, 70
3, 164159, Note_on_c, 9, 42, 0
3, 164160, Note_on_c, 9, 42, 70
3, 164639, Note_on_c, 9, 42, 0
3, 164640, Note_on_c, 9, 42, 71
3, 165119, Note_on_c, 9, 42, 0
3, 165120, Note_on_c, 9, 42, 91
3, 165599, Note_on_c, 9, 42, 0
3, 165600, Note_on_c, 9, 42, 68
3, 166079, Note_on_c, 9, 42, 0
3, 166080, Note_on_c, 9, 42, 69
3, 166559, Note_on_c, 9, 42, 0
3, 167040, Note_on_c, 9, 42, 90
3, 167519, Note_on_c, 9, 42, 0
3, 167520, Note_on_c, 9, 42, 68
3, 167999, Note_on_c, 9, 42, 0
3, 168000, Note_on_c, 9, 42, 69
3, 168479, Note_on_c, 9, 42, 0
3, 168480, Note_on_c, 9, 42, 71
3, 168959, Note_on_c, 9, 42, 0
3, 168960, Note_on_c, 9, 42, 91
3, 169439, Note_on_c, 9, 42, 0
3, 169440, Note_on_c, 9, 42, 68
3, 169919, Note_on_c, 9, 42, 0
3, 169920, Note_on_c, 9, 42, 69
3, 170399, Note_on_c, 9, 42, 0
3, 170400, Note_on_c, 9, 42, 68
3, 170879, Note_on_c, 9, 42, 0
3, 170880, Note_on_c, 9, 42, 90
3, 171359, Note_on_c, 9, 42, 0
3, 171360, Note_on_c, 9, 42, 68
3, 171839, Note_on_c, 9, 42, 0
3, 171840, Note_on_c, 9, 42, 69
3, 172319, Note_on_c, 9, 42, 0
3, 172320, Note_on_c, 9, 42, 71
3, 172799, Note_on_c, 9, 42, 0
3, 174720, Note_on_c, 9, 42, 90
3, 175199, Note_on_c, 9, 42, 0
3, 175200, Note_on_c, 9, 42, 68
3, 175679, Note_on_c, 9, 42, 0
3, 175680, Note_on_c, 9, 42, 69
3, 176159, Note_on_c, 9, 42, 0
3, 176160, Note_on_c, 9, 42, 71
3, 176639, Note_on_c, 9, 42, 0
3, 176640, Note_on_c, 9, 42, 88
3, 177119, Note_on_c, 9, 42, 0
3, 177120, Note_on_c, 9, 42, 68
3, 177599, Note_on_c, 9, 42, 0
3, 177600, Note_on_c, 9, 42, 68
3, 178079, Note_on_c, 9, 42, 0
3, 178080, Note_on_c, 9, 42, 70
3, 178559, Note_on_c, 9, 42, 0
3, 178560, Note_on_c, 9, 42, 88
3, 179039, Note_on_c, 9, 42, 0
3, 179040, Note_on_c, 9, 42, 68
3, 179519, Note_on_c, 9, 42, 0
3, 179520, Note_on_c, 9, 42, 69
3, 179999, Note_on_c, 9, 42, 0
3, 180000, Note_on_c, 9, 42, 68
3, 180479, Note_on_c, 9, 42, 0
3, 180480, Note_on_c, 9, 42, 89
3, 180959, Note_on_c, 9, 42, 0
3, 180960, Note_on_c, 9, 42, 69
3, 181439, Note_on_c, 9, 42, 0
3, 182400, Note_on_c, 9, 42, 91
3, 182879, Note_on_c, 9, 42, 0
3, 182880, Note_on_c, 9, 42, 69
3, 183359, Note_on_c, 9, 42, 0
3, 183360, Note_on_c, 9, 42, 68
3, 183839, Note_on_c, 9, 42, 0
3, 183840, Note_on_c, 9, 42, 70
3, 184319, Note_on_c, 9, 42, 0
3, 184320, Note_on_c, 9, 42, 88
3, 184799, Note_on_c, 9, 42, 0
3, 184800, Note_on_c, 9, 42, 69
3, 185279, Note_on_c, 9, 42, 0
3, 185280, Note_on_c, 9, 42, 70
3, 185759, Note_on_c, 9, 42, 0
3, 185760, Note_on_c, 9, 42, 71
3, 186239, Note_on_c, 9, 42, 0
3, 186240, Note_on_c, 9, 42, 89
3, 186719, Note_on_c, 9, 42, 0
3, 186720, Note_on_c, 9, 42, 71
3, 187199, Note_on_c, 9, 42, 0
3, 187200, Note_on_c, 9, 42, 70
3, 187679, Note_on_c, 9, 42, 0
3, 187680, Note_on_c, 9, 42, 71
3, 188159, Note_on_c, 9, 42, 0
3, 190080, Note_on_c, 9, 42, 89
3, 190559, Note_on_c, 9, 42, 0
3, 190560, Note_on_c, 9, 42, 71
3, 191039, Note_on_c, 9, 42, 0
3, 191040, Note_on_c, 9, 42, 70
3, 191519, Note_on_c, 9, 42, 0
3, 191520, Note_on_c, 9, 42, 71
3, 191999, Note_on_c, 9, 42, 0
3, 192000, Note_on_c, 9, 42, 91
3, 192479, Note_on_c, 9, 42, 0
3, 192480, Note_on_c, 9, 42, 68
3, 192959, Note_on_c, 9, 42, 0
3, 192960, Note_on_c, 9, 42, 71
3, 193439, Note_on_c, 9, 42, 0
3, 193440, Note_on_c, 9, 42, 71
3, 193919, Note_on_c, 9, 42, 0
3, 193920, Note_on_c, 9, 42, 90
3, 194399, Note_on_c, 9, 42, 0
3, 194400, Note_on_c, 9, 42, 71
3, 194879, Note_on_c, 9, 42, 0
3, 194880, Note_on_c, 9, 42, 69
3, 195359, Note_on_c, 9, 42, 0
3, 195360, Note_on_c, 9, 42, 68
3, 195839, Note_on_c, 9, 42, 0
3, 195840, Note_on_c, 9, 42, 91
3, 196319, Note_on_c, 9, 42, 0
3, 196320, Note_on_c, 9, 42, 68
3, 196799, Note_on_c, 9, 42, 0
3, 197760, Note_on_c, 9, 42, 90
3, 198239, Note_on_c, 9, 42, 0
3, 198240, Note_on_c, 9, 42, 71
3, 198719, Note_on_c, 9, 42, 0
3, 198720, Note_on_c, 9, 42, 69
3, 199199, Note_on_c, 9, 42, 0
3, 199200, Note_on_c, 9, 42, 68
3, 199679, Note_on_c, 9, 42, 0
3, 199680, Note_on_c, 9, 42, 91
3, 200159, Note_on_c, 9, 42, 0
3, 200160, Note_on_c, 9, 42, 68
3, 200639, Note_on_c, 9, 42, 0
3, 200640, Note_on_c, 9, 42, 71
3, 201119, Note_on_c, 9, 42, 0
3, 201120, Note_on_c, 9, 42, 71
3, 201599, Note_on_c, 9, 42, 0
3, 201600, Note_on_c, 9, 42, 90
3, 202079, Note_on_c, 9, 42, 0
3, 202080, Note_on_c, 9, 42, 71
3, 202559, Note_on_c, 9, 42, 0
3, 202560, Note_on_c, 9, 42, 69
3, 203039, Note_on_c, 9, 42, 0
3, 203040, Note_on_c, 9, 42, 68
3, 203519, Note_on_c, 9, 42, 0
3, 205440, Note_on_c, 9, 42, 90
3, 205919, Note_on_c, 9, 42, 0
3, 205920, Note_on_c, 9, 42, 71
3, 206399, Note_on_c, 9, 42, 0
3, 206400, Note_on_c, 9, 42, 69
3, 206879, Note_on_c, 9, 42, 0
3, 206880, Note_on_c, 9, 42, 68
3, 207359, Note_on_c, 9, 42, 0
3, 207360, End_track
4, 0, Start_track
4, 0, Key_signature, 0, "major"
4, 0, Control_c, 9, 121, 0
4, 0, Program_c, 9, 0
4, 0, Control_c, 9, 7, 100
4, 0, Control_c, 9, 10, 64
4, 0, Control_c, 9, 91, 0
4, 0, Control_c, 9, 93, 0
4, 0, MIDI_port, 0
4, 0, Note_on_c, 9, 46, 91
4, 479, Note_on_c, 9, 46, 0
4, 6720, Note_on_c, 9, 46, 68
4, 7199, Note_on_c, 9, 46, 0
4, 11520, Note_on_c, 9, 46, 89
4, 11999, Note_on_c, 9, 46, 0
4, 14400, Note_on_c, 9, 46, 71
4, 14879, Note_on_c, 9, 46, 0
4, 15360, Note_on_c, 9, 46, 89
4, 15839, Note_on_c, 9, 46, 0
4, 18240, Note_on_c, 9, 46, 71
4, 18719, Note_on_c, 9, 46, 0
4, 22080, Note_on_c, 9, 46, 68
4, 22559, Note_on_c, 9, 46, 0
4, 37920, Note_on_c, 9, 46, 69
4, 38399, Note_on_c, 9, 46, 0
4, 51360, Note_on_c, 9, 46, 70
4, 51839, Note_on_c, 9, 46, 0
4, 55200, Note_on_c, 9, 46, 70
4, 55679, Note_on_c, 9, 46, 0
4, 99840, Note_on_c, 9, 46, 90
4, 100319, Note_on_c, 9, 46, 0
4, 103680, Note_on_c, 9, 46, 90
4, 104159, Note_on_c, 9, 46, 0
4, 107520, Note_on_c, 9, 46, 90
4, 107999, Note_on_c, 9, 46, 0
4, 122880, Note_on_c, 9, 46, 89
4, 123359, Note_on_c, 9, 46, 0
4, 124320, Note_on_c, 9, 46, 70
4, 124799, Note_on_c, 9, 46, 0
4, 151680, Note_on_c, 9, 46, 90
4, 152159, Note_on_c, 9, 46, 0
4, 152160, Note_on_c, 9, 46, 68
4, 152639, Note_on_c, 9, 46, 0
4, 155520, Note_on_c, 9, 46, 90
4, 155999, Note_on_c, 9, 46, 0
4, 156000, Note_on_c, 9, 46, 68
4, 156479, Note_on_c, 9, 46, 0
4, 156480, End_track
5, 0, Start_track
5, 0, Key_signature, 0, "major"
5, 0, Control_c, 9, 121, 0
5, 0, Program_c, 9, 0
5, 0, Control_c, 9, 7, 100
5, 0, Control_c, 9, 10, 64
5, 0, Control_c, 9, 91, 0
5, 0, Control_c, 9, 93, 0
5, 0, MIDI_port, 0
5, 10920, Note_on_c, 9, 47, 90
5, 11039, Note_on_c, 9, 47, 0
5, 11040, Note_on_c, 9, 47, 108
5, 11519, Note_on_c, 9, 47, 0
5, 34080, Note_on_c, 9, 47, 108
5, 34199, Note_on_c, 9, 47, 0
5, 34200, Note_on_c, 9, 47, 88
5, 34319, Note_on_c, 9, 47, 0
5, 34320, Note_on_c, 9, 47, 89
5, 34559, Note_on_c, 9, 47, 0
5, 89400, Note_on_c, 9, 47, 89
5, 89759, Note_on_c, 9, 47, 0
5, 112080, Note_on_c, 9, 47, 108
5, 112319, Note_on_c, 9, 47, 0
5, 127440, Note_on_c, 9, 47, 88
5, 127679, Note_on_c, 9, 47, 0
5, 127920, Note_on_c, 9, 47, 110
5, 128159, Note_on_c, 9, 47, 0
5, 142120, Note_on_c, 9, 47, 90
5, 142199, Note_on_c, 9, 47, 0
5, 142800, Note_on_c, 9, 47, 111
5, 142839, Note_on_c, 9, 47, 0
5, 142840, Note_on_c, 9, 47, 91
5, 142919, Note_on_c, 9, 47, 0
5, 173400, Note_on_c, 9, 47, 73
5, 173519, Note_on_c, 9, 47, 0
5, 173520, Note_on_c, 9, 47, 109
5, 173759, Note_on_c, 9, 47, 0
5, 173880, Note_on_c, 9, 47, 68
5, 174239, Note_on_c, 9, 47, 0
5, 188200, Note_on_c, 9, 47, 91
5, 188279, Note_on_c, 9, 47, 0
5, 188880, Note_on_c, 9, 47, 111
5, 189119, Note_on_c, 9, 47, 0
5, 189120, End_track
6, 0, Start_track
6, 0, Key_signature, 0, "major"
6, 0, Control_c, 9, 121, 0
6, 0, Program_c, 9, 0
6, 0, Control_c, 9, 7, 100
6, 0, Control_c, 9, 10, 64
6, 0, Control_c, 9, 91, 0
6, 0, Control_c, 9, 93, 0
6, 0, MIDI_port, 0
6, 11280, Note_on_c, 9, 45, 90
6, 11519, Note_on_c, 9, 45, 0
6, 89520, Note_on_c, 9, 45, 90
6, 89759, Note_on_c, 9, 45, 0
6, 89760, Note_on_c, 9, 45, 111
6, 90239, Note_on_c, 9, 45, 0
6, 112120, Note_on_c, 9, 45, 91
6, 112199, Note_on_c, 9, 45, 0
6, 128040, Note_on_c, 9, 45, 90
6, 128159, Note_on_c, 9, 45, 0
6, 128160, Note_on_c, 9, 45, 88
6, 128399, Note_on_c, 9, 45, 0
6, 128400, Note_on_c, 9, 45, 91
6, 128519, Note_on_c, 9, 45, 0
6, 128520, Note_on_c, 9, 45, 91
6, 128639, Note_on_c, 9, 45, 0
6, 174000, Note_on_c, 9, 45, 108
6, 174239, Note_on_c, 9, 45, 0
6, 174240, Note_on_c, 9, 45, 109
6, 174359, Note_on_c, 9, 45, 0
6, 174360, Note_on_c, 9, 45, 89
6, 174479, Note_on_c, 9, 45, 0
6, 174480, Note_on_c, 9, 45, 108
6, 174719, Note_on_c, 9, 45, 0
6, 188920, Note_on_c, 9, 45, 88
6, 188999, Note_on_c, 9, 45, 0
6, 189600, Note_on_c, 9, 45, 109
6, 190079, Note_on_c, 9, 45, 0
6, 190080, End_track
7, 0, Start_track
7, 0, Key_signature, 0, "major"
7, 0, Control_c, 9, 121, 0
7, 0, Program_c, 9, 0
7, 0, Control_c, 9, 7, 100
7, 0, Control_c, 9, 10, 64
7, 0, Control_c, 9, 91, 0
7, 0, Control_c, 9, 93, 0
7, 0, MIDI_port, 0
7, 89880, Note_on_c, 9, 41, 91
7, 89999, Note_on_c, 9, 41, 0
7, 90000, Note_on_c, 9, 41, 88
7, 90239, Note_on_c, 9, 41, 0
7, 189640, Note_on_c, 9, 41, 91
7, 189719, Note_on_c, 9, 41, 0
7, 189720, End_track
8, 0, Start_track
8, 0, Key_signature, 0, "major"
8, 0, Control_c, 9, 121, 0
8, 0, Program_c, 9, 0
8, 0, Control_c, 9, 7, 100
8, 0, Control_c, 9, 10, 64
8, 0, Control_c, 9, 91, 0
8, 0, Control_c, 9, 93, 0
8, 0, MIDI_port, 0
8, 11505, Note_on_c, 9, 57, 100
8, 11519, Note_on_c, 9, 57, 0
8, 19185, Note_on_c, 9, 57, 101
8, 19199, Note_on_c, 9, 57, 0
8, 26865, Note_on_c, 9, 57, 98
8, 26879, Note_on_c, 9, 57, 0
8, 34545, Note_on_c, 9, 57, 99
8, 34559, Note_on_c, 9, 57, 0
8, 40320, Note_on_c, 9, 57, 99
8, 40559, Note_on_c, 9, 57, 0
8, 40560, Note_on_c, 9, 57, 100
8, 40799, Note_on_c, 9, 57, 0
8, 41040, Note_on_c, 9, 57, 101
8, 41279, Note_on_c, 9, 57, 0
8, 42225, Note_on_c, 9, 57, 98
8, 42239, Note_on_c, 9, 57, 0
8, 49905, Note_on_c, 9, 57, 100
8, 49919, Note_on_c, 9, 57, 0
8, 55680, Note_on_c, 9, 57, 101
8, 56159, Note_on_c, 9, 57, 0
8, 57120, Note_on_c, 9, 57, 100
8, 57569, Note_on_c, 9, 57, 0
8, 57585, Note_on_c, 9, 57, 100
8, 57599, Note_on_c, 9, 57, 0
8, 66720, Note_on_c, 9, 57, 98
8, 67169, Note_on_c, 9, 57, 0
8, 67185, Note_on_c, 9, 57, 101
8, 67199, Note_on_c, 9, 57, 0
8, 74865, Note_on_c, 9, 57, 98
8, 74879, Note_on_c, 9, 57, 0
8, 82545, Note_on_c, 9, 57, 99
8, 82559, Note_on_c, 9, 57, 0
8, 90225, Note_on_c, 9, 57, 101
8, 90239, Note_on_c, 9, 57, 0
8, 97905, Note_on_c, 9, 57, 98
8, 97919, Note_on_c, 9, 57, 0
8, 105585, Note_on_c, 9, 57, 98
8, 105599, Note_on_c, 9, 57, 0
8, 113265, Note_on_c, 9, 57, 99
8, 113279, Note_on_c, 9, 57, 0
8, 120240, Note_on_c, 9, 57, 101
8, 120479, Note_on_c, 9, 57, 0
8, 120945, Note_on_c, 9, 57, 100
8, 120959, Note_on_c, 9, 57, 0
8, 128625, Note_on_c, 9, 57, 98
8, 128639, Note_on_c, 9, 57, 0
8, 136305, Note_on_c, 9, 57, 99
8, 136319, Note_on_c, 9, 57, 0
8, 143985, Note_on_c, 9, 57, 100
8, 143999, Note_on_c, 9, 57, 0
8, 151665, Note_on_c, 9, 57, 98
8, 151679, Note_on_c, 9, 57, 0
8, 159345, Note_on_c, 9, 57, 101
8, 159359, Note_on_c, 9, 57, 0
8, 167025, Note_on_c, 9, 57, 101
8, 167039, Note_on_c, 9, 57, 0
8, 174705, Note_on_c, 9, 57, 101
8, 174719, Note_on_c, 9, 57, 0
8, 182385, Note_on_c, 9, 57, 99
8, 182399, Note_on_c, 9, 57, 0
8, 190065, Note_on_c, 9, 57, 100
8, 190079, Note_on_c, 9, 57, 0
8, 197745, Note_on_c, 9, 57, 99
8, 197759, Note_on_c, 9, 57, 0
8, 197760, End_track
0, 0, End_of_file
