0, 0, Header, 1, 1, 480
1, 0, Start_track
1, 0, Time_signature, 4, 2, 24, 8
1, 0, Key_signature, 0, "major"
1, 0, Tempo, 500000
1, 0, Control_c, 9, 121, 0
1, 0, Program_c, 9, 0
1, 0, Control_c, 9, 7, 127
1, 0, Control_c, 9, 10, 64
1, 0, Control_c, 9, 91, 0
1, 0, Control_c, 9, 93, 0
1, 0, MIDI_port, 0
1, 64680, Note_on_c, 9, 36, 127
1, 64799, Note_on_c, 9, 36, 0
1, 64800, Note_on_c, 9, 38, 127
1, 64919, Note_on_c, 9, 38, 0
1, 64920, Note_on_c, 9, 38, 127
1, 65039, Note_on_c, 9, 38, 0
1, 65040, Note_on_c, 9, 38, 127
1, 65159, Note_on_c, 9, 38, 0
1, 65160, Note_on_c, 9, 38, 127
1, 65279, Note_on_c, 9, 38, 0
1, 65280, Note_on_c, 9, 49, 127
1, 65280, Note_on_c, 9, 36, 127
1, 65399, Note_on_c, 9, 49, 0
1, 65400, Note_on_c, 9, 42, 127
1, 65519, Note_on_c, 9, 42, 0
1, 65520, Note_on_c, 9, 42, 127
1, 65639, Note_on_c, 9, 42, 0
1, 65640, Note_on_c, 9, 42, 127
1, 65759, Note_on_c, 9, 36, 0
1, 65759, Note_on_c, 9, 42, 0
1, 65760, Note_on_c, 9, 38, 127
1, 65760, Note_on_c, 9, 42, 127
1, 65760, Note_on_c, 9, 36, 127
1, 65879, Note_on_c, 9, 38, 0
1, 65879, Note_on_c, 9, 42, 0
1, 65880, Note_on_c, 9, 42, 127
1, 65999, Note_on_c, 9, 42, 0
1, 66000, Note_on_c, 9, 42, 127
1, 66119, Note_on_c, 9, 42, 0
1, 66120, Note_on_c, 9, 42, 127
1, 66239, Note_on_c, 9, 36, 0
1, 66239, Note_on_c, 9, 42, 0
1, 66240, Note_on_c, 9, 42, 127
1, 66240, Note_on_c, 9, 36, 127
1, 66479, Note_on_c, 9, 42, 0
1, 66480, Note_on_c, 9, 42, 127
1, 66719, Note_on_c, 9, 36, 0
1, 66719, Note_on_c, 9, 42, 0
1, 66720, Note_on_c, 9, 38, 127
1, 66720, Note_on_c, 9, 42, 127
1, 66720, Note_on_c, 9, 36, 127
1, 66839, Note_on_c, 9, 38, 0
1, 66839, Note_on_c, 9, 42, 0
1, 66840, Note_on_c, 9, 42, 127
1, 66959, Note_on_c, 9, 42, 0
1, 66960, Note_on_c, 9, 42, 127
1, 67079, Note_on_c, 9, 42, 0
1, 67080, Note_on_c, 9, 42, 127
1, 67199, Note_on_c, 9, 36, 0
1, 67199, Note_on_c, 9, 42, 0
1, 67200, Note_on_c, 9, 54, 78
1, 67200, Note_on_c, 9, 42, 127
1, 67200, Note_on_c, 9, 36, 127
1, 67319, Note_on_c, 9, 54, 0
1, 67319, Note_on_c, 9, 42, 0
1, 67320, Note_on_c, 9, 54, 78
1, 67320, Note_on_c, 9, 42, 127
1, 67439, Note_on_c, 9, 54, 0
1, 67439, Note_on_c, 9, 42, 0
1, 67440, Note_on_c, 9, 54, 78
1, 67440, Note_on_c, 9, 42, 127
1, 67559, Note_on_c, 9, 54, 0
1, 67559, Note_on_c, 9, 42, 0
1, 67560, Note_on_c, 9, 54, 78
1, 67560, Note_on_c, 9, 42, 127
1, 67679, Note_on_c, 9, 36, 0
1, 67679, Note_on_c, 9, 54, 0
1, 67679, Note_on_c, 9, 42, 0
1, 67680, Note_on_c, 9, 38, 127
1, 67680, Note_on_c, 9, 42, 127
1, 67680, Note_on_c, 9, 36, 127
1, 67799, Note_on_c, 9, 38, 0
1, 67799, Note_on_c, 9, 42, 0
1, 67800, Note_on_c, 9, 42, 127
1, 67919, Note_on_c, 9, 42, 0
1, 67920, Note_on_c, 9, 42, 127
1, 68039, Note_on_c, 9, 42, 0
1, 68040, Note_on_c, 9, 42, 127
1, 68159, Note_on_c, 9, 36, 0
1, 68159, Note_on_c, 9, 42, 0
1, 68160, Note_on_c, 9, 42, 127
1, 68160, Note_on_c, 9, 36, 127
1, 68399, Note_on_c, 9, 42, 0
1, 68400, Note_on_c, 9, 42, 127
1, 68639, Note_on_c, 9, 36, 0
1, 68639, Note_on_c, 9, 42, 0
1, 68640, Note_on_c, 9, 38, 127
1, 68640, Note_on_c, 9, 42, 127
1, 68640, Note_on_c, 9, 36, 127
1, 68759, Note_on_c, 9, 38, 0
1, 68759, Note_on_c, 9, 42, 0
1, 68760, Note_on_c, 9, 42, 127
1, 68879, Note_on_c, 9, 42, 0
1, 68880, Note_on_c, 9, 42, 127
1, 68999, Note_on_c, 9, 42, 0
1, 69000, Note_on_c, 9, 42, 127
1, 69119, Note_on_c, 9, 36, 0
1, 69119, Note_on_c, 9, 42, 0
1, 69120, Note_on_c, 9, 54, 78
1, 69120, Note_on_c, 9, 42, 127
1, 69120, Note_on_c, 9, 36, 127
1, 69239, Note_on_c, 9, 54, 0
1, 69239, Note_on_c, 9, 42, 0
1, 69240, Note_on_c, 9, 54, 78
1, 69240, Note_on_c, 9, 42, 127
1, 69359, Note_on_c, 9, 54, 0
1, 69359, Note_on_c, 9, 42, 0
1, 69360, Note_on_c, 9, 54, 78
1, 69360, Note_on_c, 9, 42, 127
1, 69479, Note_on_c, 9, 54, 0
1, 69479, Note_on_c, 9, 42, 0
1, 69480, Note_on_c, 9, 54, 78
1, 69480, Note_on_c, 9, 42, 127
1, 69599, Note_on_c, 9, 36, 0
1, 69599, Note_on_c, 9, 54, 0
1, 69599, Note_on_c, 9, 42, 0
1, 69600, Note_on_c, 9, 38, 127
1, 69600, Note_on_c, 9, 42, 127
1, 69600, Note_on_c, 9, 36, 127
1, 69719, Note_on_c, 9, 38, 0
1, 69719, Note_on_c, 9, 42, 0
1, 69720, Note_on_c, 9, 42, 127
1, 69839, Note_on_c, 9, 42, 0
1, 69840, Note_on_c, 9, 42, 127
1, 69959, Note_on_c, 9, 42, 0
1, 69960, Note_on_c, 9, 42, 127
1, 70079, Note_on_c, 9, 36, 0
1, 70079, Note_on_c, 9, 42, 0
1, 70080, Note_on_c, 9, 42, 127
1, 70080, Note_on_c, 9, 36, 127
1, 70319, Note_on_c, 9, 42, 0
1, 70320, Note_on_c, 9, 42, 127
1, 70559, Note_on_c, 9, 36, 0
1, 70559, Note_on_c, 9, 42, 0
1, 70560, Note_on_c, 9, 38, 127
1, 70560, Note_on_c, 9, 42, 127
1, 70560, Note_on_c, 9, 36, 127
1, 70679, Note_on_c, 9, 38, 0
1, 70679, Note_on_c, 9, 42, 0
1, 70680, Note_on_c, 9, 42, 127
1, 70799, Note_on_c, 9, 42, 0
1, 70800, Note_on_c, 9, 42, 127
1, 70919, Note_on_c, 9, 42, 0
1, 70920, Note_on_c, 9, 42, 127
1, 71039, Note_on_c, 9, 36, 0
1, 71039, Note_on_c, 9, 42, 0
1, 71040, Note_on_c, 9, 54, 78
1, 71040, Note_on_c, 9, 42, 127
1, 71040, Note_on_c, 9, 36, 127
1, 71159, Note_on_c, 9, 54, 0
1, 71159, Note_on_c, 9, 42, 0
1, 71160, Note_on_c, 9, 54, 78
1, 71160, Note_on_c, 9, 42, 127
1, 71279, Note_on_c, 9, 54, 0
1, 71279, Note_on_c, 9, 42, 0
1, 71280, Note_on_c, 9, 54, 78
1, 71280, Note_on_c, 9, 42, 127
1, 71399, Note_on_c, 9, 54, 0
1, 71399, Note_on_c, 9, 42, 0
1, 71400, Note_on_c, 9, 54, 78
1, 71400, Note_on_c, 9, 42, 127
1, 71519, Note_on_c, 9, 36, 0
1, 71519, Note_on_c, 9, 54, 0
1, 71519, Note_on_c, 9, 42, 0
1, 71520, Note_on_c, 9, 38, 127
1, 71520, Note_on_c, 9, 42, 127
1, 71520, Note_on_c, 9, 36, 127
1, 71639, Note_on_c, 9, 38, 0
1, 71639, Note_on_c, 9, 42, 0
1, 71640, Note_on_c, 9, 42, 127
1, 71759, Note_on_c, 9, 42, 0
1, 71760, Note_on_c, 9, 42, 127
1, 71879, Note_on_c, 9, 42, 0
1, 71880, Note_on_c, 9, 42, 127
1, 71999, Note_on_c, 9, 36, 0
1, 71999, Note_on_c, 9, 42, 0
1, 72000, Note_on_c, 9, 42, 127
1, 72000, Note_on_c, 9, 36, 127
1, 72239, Note_on_c, 9, 42, 0
1, 72240, Note_on_c, 9, 42, 127
1, 72479, Note_on_c, 9, 36, 0
1, 72479, Note_on_c, 9, 42, 0
1, 72480, Note_on_c, 9, 38, 127
1, 72480, Note_on_c, 9, 46, 120
1, 72480, Note_on_c, 9, 36, 127
1, 72599, Note_on_c, 9, 38, 0
1, 72599, Note_on_c, 9, 46, 0
1, 72600, Note_on_c, 9, 42, 127
1, 72719, Note_on_c, 9, 42, 0
1, 72720, Note_on_c, 9, 42, 127
1, 72839, Note_on_c, 9, 42, 0
1, 72840, Note_on_c, 9, 42, 127
1, 72959, Note_on_c, 9, 36, 0
1, 72959, Note_on_c, 9, 42, 0
1, 72960, Note_on_c, 9, 54, 78
1, 72960, Note_on_c, 9, 42, 127
1, 72960, Note_on_c, 9, 36, 127
1, 73079, Note_on_c, 9, 54, 0
1, 73079, Note_on_c, 9, 42, 0
1, 73080, Note_on_c, 9, 54, 78
1, 73080, Note_on_c, 9, 42, 127
1, 73199, Note_on_c, 9, 54, 0
1, 73199, Note_on_c, 9, 42, 0
1, 73200, Note_on_c, 9, 54, 78
1, 73200, Note_on_c, 9, 42, 127
1, 73319, Note_on_c, 9, 54, 0
1, 73319, Note_on_c, 9, 42, 0
1, 73320, Note_on_c, 9, 54, 78
1, 73320, Note_on_c, 9, 42, 127
1, 73439, Note_on_c, 9, 36, 0
1, 73439, Note_on_c, 9, 54, 0
1, 73439, Note_on_c, 9, 42, 0
1, 73440, Note_on_c, 9, 38, 127
1, 73440, Note_on_c, 9, 42, 127
1, 73440, Note_on_c, 9, 36, 127
1, 73559, Note_on_c, 9, 38, 0
1, 73559, Note_on_c, 9, 42, 0
1, 73560, Note_on_c, 9, 42, 127
1, 73679, Note_on_c, 9, 42, 0
1, 73680, Note_on_c, 9, 42, 127
1, 73799, Note_on_c, 9, 42, 0
1, 73800, Note_on_c, 9, 42, 127
1, 73919, Note_on_c, 9, 36, 0
1, 73919, Note_on_c, 9, 42, 0
1, 73920, Note_on_c, 9, 42, 127
1, 73920, Note_on_c, 9, 36, 127
1, 74159, Note_on_c, 9, 42, 0
1, 74160, Note_on_c, 9, 42, 127
1, 74399, Note_on_c, 9, 36, 0
1, 74399, Note_on_c, 9, 42, 0
1, 74400, Note_on_c, 9, 38, 127
1, 74400, Note_on_c, 9, 42, 127
1, 74400, Note_on_c, 9, 36, 127
1, 74519, Note_on_c, 9, 38, 0
1, 74519, Note_on_c, 9, 42, 0
1, 74520, Note_on_c, 9, 42, 127
1, 74639, Note_on_c, 9, 42, 0
1, 74640, Note_on_c, 9, 42, 127
1, 74759, Note_on_c, 9, 42, 0
1, 74760, Note_on_c, 9, 42, 127
1, 74879, Note_on_c, 9, 36, 0
1, 74879, Note_on_c, 9, 42, 0
1, 74880, Note_on_c, 9, 54, 78
1, 74880, Note_on_c, 9, 42, 127
1, 74880, Note_on_c, 9, 36, 127
1, 74999, Note_on_c, 9, 54, 0
1, 74999, Note_on_c, 9, 42, 0
1, 75000, Note_on_c, 9, 54, 78
1, 75000, Note_on_c, 9, 42, 127
1, 75119, Note_on_c, 9, 54, 0
1, 75119, Note_on_c, 9, 42, 0
1, 75120, Note_on_c, 9, 54, 78
1, 75120, Note_on_c, 9, 42, 127
1, 75239, Note_on_c, 9, 54, 0
1, 75239, Note_on_c, 9, 42, 0
1, 75240, Note_on_c, 9, 54, 78
1, 75240, Note_on_c, 9, 42, 127
1, 75359, Note_on_c, 9, 36, 0
1, 75359, Note_on_c, 9, 54, 0
1, 75359, Note_on_c, 9, 42, 0
1, 75360, Note_on_c, 9, 38, 127
1, 75360, Note_on_c, 9, 42, 127
1, 75360, Note_on_c, 9, 36, 127
1, 75479, Note_on_c, 9, 38, 0
1, 75479, Note_on_c, 9, 42, 0
1, 75480, Note_on_c, 9, 42, 127
1, 75599, Note_on_c, 9, 42, 0
1, 75600, Note_on_c, 9, 42, 127
1, 75719, Note_on_c, 9, 42, 0
1, 75720, Note_on_c, 9, 42, 127
1, 75839, Note_on_c, 9, 36, 0
1, 75839, Note_on_c, 9, 42, 0
1, 75840, Note_on_c, 9, 42, 127
1, 75840, Note_on_c, 9, 36, 127
1, 76079, Note_on_c, 9, 42, 0
1, 76080, Note_on_c, 9, 42, 127
1, 76319, Note_on_c, 9, 36, 0
1, 76319, Note_on_c, 9, 42, 0
1, 76320, Note_on_c, 9, 38, 127
1, 76320, Note_on_c, 9, 42, 127
1, 76320, Note_on_c, 9, 36, 127
1, 76439, Note_on_c, 9, 38, 0
1, 76439, Note_on_c, 9, 42, 0
1, 76440, Note_on_c, 9, 42, 127
1, 76559, Note_on_c, 9, 42, 0
1, 76560, Note_on_c, 9, 42, 127
1, 76679, Note_on_c, 9, 42, 0
1, 76680, Note_on_c, 9, 42, 127
1, 76799, Note_on_c, 9, 36, 0
1, 76799, Note_on_c, 9, 42, 0
1, 76800, Note_on_c, 9, 54, 78
1, 76800, Note_on_c, 9, 42, 127
1, 76800, Note_on_c, 9, 36, 127
1, 76919, Note_on_c, 9, 54, 0
1, 76919, Note_on_c, 9, 42, 0
1, 76920, Note_on_c, 9, 54, 78
1, 76920, Note_on_c, 9, 42, 127
1, 77039, Note_on_c, 9, 54, 0
1, 77039, Note_on_c, 9, 42, 0
1, 77040, Note_on_c, 9, 54, 78
1, 77040, Note_on_c, 9, 42, 127
1, 77159, Note_on_c, 9, 54, 0
1, 77159, Note_on_c, 9, 42, 0
1, 77160, Note_on_c, 9, 54, 78
1, 77160, Note_on_c, 9, 42, 127
1, 77279, Note_on_c, 9, 36, 0
1, 77279, Note_on_c, 9, 54, 0
1, 77279, Note_on_c, 9, 42, 0
1, 77280, Note_on_c, 9, 38, 127
1, 77280, Note_on_c, 9, 42, 127
1, 77280, Note_on_c, 9, 36, 127
1, 77399, Note_on_c, 9, 38, 0
1, 77399, Note_on_c, 9, 42, 0
1, 77400, Note_on_c, 9, 42, 127
1, 77519, Note_on_c, 9, 42, 0
1, 77520, Note_on_c, 9, 42, 127
1, 77639, Note_on_c, 9, 42, 0
1, 77640, Note_on_c, 9, 42, 127
1, 77759, Note_on_c, 9, 36, 0
1, 77759, Note_on_c, 9, 42, 0
1, 77760, Note_on_c, 9, 42, 127
1, 77760, Note_on_c, 9, 36, 127
1, 77999, Note_on_c, 9, 42, 0
1, 78000, Note_on_c, 9, 42, 127
1, 78239, Note_on_c, 9, 36, 0
1, 78239, Note_on_c, 9, 42, 0
1, 78240, Note_on_c, 9, 38, 127
1, 78240, Note_on_c, 9, 42, 127
1, 78240, Note_on_c, 9, 36, 127
1, 78359, Note_on_c, 9, 38, 0
1, 78359, Note_on_c, 9, 42, 0
1, 78360, Note_on_c, 9, 42, 127
1, 78479, Note_on_c, 9, 42, 0
1, 78480, Note_on_c, 9, 42, 127
1, 78599, Note_on_c, 9, 42, 0
1, 78600, Note_on_c, 9, 42, 127
1, 78719, Note_on_c, 9, 36, 0
1, 78719, Note_on_c, 9, 42, 0
1, 78720, Note_on_c, 9, 54, 78
1, 78720, Note_on_c, 9, 42, 127
1, 78720, Note_on_c, 9, 36, 127
1, 78839, Note_on_c, 9, 54, 0
1, 78839, Note_on_c, 9, 42, 0
1, 78840, Note_on_c, 9, 54, 78
1, 78840, Note_on_c, 9, 42, 127
1, 78959, Note_on_c, 9, 54, 0
1, 78959, Note_on_c, 9, 42, 0
1, 78960, Note_on_c, 9, 54, 78
1, 78960, Note_on_c, 9, 42, 127
1, 79079, Note_on_c, 9, 54, 0
1, 79079, Note_on_c, 9, 42, 0
1, 79080, Note_on_c, 9, 54, 78
1, 79080, Note_on_c, 9, 42, 127
1, 79199, Note_on_c, 9, 36, 0
1, 79199, Note_on_c, 9, 54, 0
1, 79199, Note_on_c, 9, 42, 0
1, 79200, Note_on_c, 9, 38, 127
1, 79200, Note_on_c, 9, 42, 127
1, 79200, Note_on_c, 9, 36, 127
1, 79319, Note_on_c, 9, 38, 0
1, 79319, Note_on_c, 9, 42, 0
1, 79320, Note_on_c, 9, 42, 127
1, 79439, Note_on_c, 9, 42, 0
1, 79440, Note_on_c, 9, 42, 127
1, 79559, Note_on_c, 9, 42, 0
1, 79560, Note_on_c, 9, 42, 127
1, 79679, Note_on_c, 9, 36, 0
1, 79679, Note_on_c, 9, 42, 0
1, 79680, Note_on_c, 9, 42, 127
1, 79680, Note_on_c, 9, 36, 127
1, 79919, Note_on_c, 9, 42, 0
1, 79920, Note_on_c, 9, 42, 127
1, 80159, Note_on_c, 9, 36, 0
1, 80159, Note_on_c, 9, 42, 0
1, 80160, Note_on_c, 9, 38, 127
1, 80160, Note_on_c, 9, 46, 120
1, 80160, Note_on_c, 9, 36, 127
1, 80279, Note_on_c, 9, 38, 0
1, 80279, Note_on_c, 9, 46, 0
1, 80280, Note_on_c, 9, 42, 127
1, 80399, Note_on_c, 9, 42, 0
1, 80400, Note_on_c, 9, 42, 127
1, 80519, Note_on_c, 9, 42, 0
1, 80520, Note_on_c, 9, 42, 127
1, 80639, Note_on_c, 9, 36, 0
1, 80639, Note_on_c, 9, 42, 0
1, 80640, Note_on_c, 9, 54, 78
1, 80640, Note_on_c, 9, 42, 127
1, 80640, Note_on_c, 9, 36, 127
1, 80759, Note_on_c, 9, 54, 0
1, 80759, Note_on_c, 9, 42, 0
1, 80760, Note_on_c, 9, 54, 78
1, 80760, Note_on_c, 9, 42, 127
1, 80879, Note_on_c, 9, 54, 0
1, 80879, Note_on_c, 9, 42, 0
1, 80880, Note_on_c, 9, 54, 78
1, 80880, Note_on_c, 9, 42, 127
1, 80999, Note_on_c, 9, 54, 0
1, 80999, Note_on_c, 9, 42, 0
1, 81000, Note_on_c, 9, 54, 78
1, 81000, Note_on_c, 9, 42, 127
1, 81119, Note_on_c, 9, 36, 0
1, 81119, Note_on_c, 9, 54, 0
1, 81119, Note_on_c, 9, 42, 0
1, 81120, Note_on_c, 9, 38, 127
1, 81120, Note_on_c, 9, 42, 127
1, 81120, Note_on_c, 9, 36, 127
1, 81239, Note_on_c, 9, 38, 0
1, 81239, Note_on_c, 9, 42, 0
1, 81240, Note_on_c, 9, 42, 127
1, 81359, Note_on_c, 9, 42, 0
1, 81360, Note_on_c, 9, 42, 127
1, 81479, Note_on_c, 9, 42, 0
1, 81480, Note_on_c, 9, 42, 127
1, 81599, Note_on_c, 9, 36, 0
1, 81599, Note_on_c, 9, 42, 0
1, 81600, Note_on_c, 9, 42, 127
1, 81600, Note_on_c, 9, 36, 127
1, 81839, Note_on_c, 9, 42, 0
1, 81840, Note_on_c, 9, 42, 127
1, 82079, Note_on_c, 9, 36, 0
1, 82079, Note_on_c, 9, 42, 0
1, 82080, Note_on_c, 9, 38, 127
1, 82080, Note_on_c, 9, 42, 127
1, 82080, Note_on_c, 9, 36, 127
1, 82199, Note_on_c, 9, 38, 0
1, 82199, Note_on_c, 9, 42, 0
1, 82200, Note_on_c, 9, 42, 127
1, 82319, Note_on_c, 9, 42, 0
1, 82320, Note_on_c, 9, 42, 127
1, 82439, Note_on_c, 9, 42, 0
1, 82440, Note_on_c, 9, 42, 127
1, 82559, Note_on_c, 9, 36, 0
1, 82559, Note_on_c, 9, 42, 0
1, 82560, Note_on_c, 9, 54, 78
1, 82560, Note_on_c, 9, 42, 127
1, 82560, Note_on_c, 9, 36, 127
1, 82679, Note_on_c, 9, 54, 0
1, 82679, Note_on_c, 9, 42, 0
1, 82680, Note_on_c, 9, 54, 78
1, 82680, Note_on_c, 9, 42, 127
1, 82799, Note_on_c, 9, 54, 0
1, 82799, Note_on_c, 9, 42, 0
1, 82800, Note_on_c, 9, 54, 78
1, 82800, Note_on_c, 9, 42, 127
1, 82919, Note_on_c, 9, 54, 0
1, 82919, Note_on_c, 9, 42, 0
1, 82920, Note_on_c, 9, 54, 78
1, 82920, Note_on_c, 9, 42, 127
1, 83039, Note_on_c, 9, 36, 0
1, 83039, Note_on_c, 9, 54, 0
1, 83039, Note_on_c, 9, 42, 0
1, 83040, Note_on_c, 9, 38, 127
1, 83040, Note_on_c, 9, 42, 127
1, 83040, Note_on_c, 9, 36, 127
1, 83159, Note_on_c, 9, 38, 0
1, 83159, Note_on_c, 9, 42, 0
1, 83160, Note_on_c, 9, 42, 127
1, 83279, Note_on_c, 9, 42, 0
1, 83280, Note_on_c, 9, 42, 127
1, 83399, Note_on_c, 9, 42, 0
1, 83400, Note_on_c, 9, 42, 127
1, 83519, Note_on_c, 9, 36, 0
1, 83519, Note_on_c, 9, 42, 0
1, 83520, Note_on_c, 9, 42, 127
1, 83520, Note_on_c, 9, 36, 127
1, 83759, Note_on_c, 9, 42, 0
1, 83760, Note_on_c, 9, 42, 127
1, 83999, Note_on_c, 9, 36, 0
1, 83999, Note_on_c, 9, 42, 0
1, 84000, Note_on_c, 9, 38, 127
1, 84000, Note_on_c, 9, 42, 127
1, 84000, Note_on_c, 9, 36, 127
1, 84119, Note_on_c, 9, 38, 0
1, 84119, Note_on_c, 9, 42, 0
1, 84120, Note_on_c, 9, 42, 127
1, 84239, Note_on_c, 9, 42, 0
1, 84240, Note_on_c, 9, 42, 127
1, 84359, Note_on_c, 9, 42, 0
1, 84360, Note_on_c, 9, 42, 127
1, 84479, Note_on_c, 9, 36, 0
1, 84479, Note_on_c, 9, 42, 0
1, 84480, Note_on_c, 9, 54, 78
1, 84480, Note_on_c, 9, 42, 127
1, 84480, Note_on_c, 9, 36, 127
1, 84599, Note_on_c, 9, 54, 0
1, 84599, Note_on_c, 9, 42, 0
1, 84600, Note_on_c, 9, 54, 78
1, 84600, Note_on_c, 9, 42, 127
1, 84719, Note_on_c, 9, 54, 0
1, 84719, Note_on_c, 9, 42, 0
1, 84720, Note_on_c, 9, 54, 78
1, 84720, Note_on_c, 9, 42, 127
1, 84839, Note_on_c, 9, 54, 0
1, 84839, Note_on_c, 9, 42, 0
1, 84840, Note_on_c, 9, 54, 78
1, 84840, Note_on_c, 9, 42, 127
1, 84959, Note_on_c, 9, 36, 0
1, 84959, Note_on_c, 9, 54, 0
1, 84959, Note_on_c, 9, 42, 0
1, 84960, Note_on_c, 9, 38, 127
1, 84960, Note_on_c, 9, 42, 127
1, 84960, Note_on_c, 9, 36, 127
1, 85079, Note_on_c, 9, 38, 0
1, 85079, Note_on_c, 9, 42, 0
1, 85080, Note_on_c, 9, 42, 127
1, 85199, Note_on_c, 9, 42, 0
1, 85200, Note_on_c, 9, 42, 127
1, 85319, Note_on_c, 9, 42, 0
1, 85320, Note_on_c, 9, 42, 127
1, 85439, Note_on_c, 9, 36, 0
1, 85439, Note_on_c, 9, 42, 0
1, 85440, Note_on_c, 9, 42, 127
1, 85440, Note_on_c, 9, 36, 127
1, 85679, Note_on_c, 9, 42, 0
1, 85680, Note_on_c, 9, 42, 127
1, 85919, Note_on_c, 9, 36, 0
1, 85919, Note_on_c, 9, 42, 0
1, 85920, Note_on_c, 9, 38, 127
1, 85920, Note_on_c, 9, 42, 127
1, 85920, Note_on_c, 9, 36, 127
1, 86039, Note_on_c, 9, 38, 0
1, 86039, Note_on_c, 9, 42, 0
1, 86040, Note_on_c, 9, 42, 127
1, 86159, Note_on_c, 9, 42, 0
1, 86160, Note_on_c, 9, 42, 127
1, 86279, Note_on_c, 9, 42, 0
1, 86280, Note_on_c, 9, 42, 127
1, 86399, Note_on_c, 9, 36, 0
1, 86399, Note_on_c, 9, 42, 0
1, 86400, Note_on_c, 9, 54, 78
1, 86400, Note_on_c, 9, 42, 127
1, 86400, Note_on_c, 9, 36, 127
1, 86519, Note_on_c, 9, 54, 0
1, 86519, Note_on_c, 9, 42, 0
1, 86520, Note_on_c, 9, 54, 78
1, 86520, Note_on_c, 9, 42, 127
1, 86639, Note_on_c, 9, 54, 0
1, 86639, Note_on_c, 9, 42, 0
1, 86640, Note_on_c, 9, 54, 78
1, 86640, Note_on_c, 9, 42, 127
1, 86759, Note_on_c, 9, 54, 0
1, 86759, Note_on_c, 9, 42, 0
1, 86760, Note_on_c, 9, 54, 78
1, 86760, Note_on_c, 9, 42, 127
1, 86879, Note_on_c, 9, 36, 0
1, 86879, Note_on_c, 9, 54, 0
1, 86879, Note_on_c, 9, 42, 0
1, 86880, Note_on_c, 9, 38, 127
1, 86880, Note_on_c, 9, 42, 127
1, 86880, Note_on_c, 9, 36, 127
1, 86999, Note_on_c, 9, 38, 0
1, 86999, Note_on_c, 9, 42, 0
1, 87000, Note_on_c, 9, 42, 127
1, 87119, Note_on_c, 9, 42, 0
1, 87120, Note_on_c, 9, 42, 127
1, 87239, Note_on_c, 9, 42, 0
1, 87240, Note_on_c, 9, 42, 127
1, 87359, Note_on_c, 9, 36, 0
1, 87359, Note_on_c, 9, 42, 0
1, 87360, Note_on_c, 9, 42, 127
1, 87360, Note_on_c, 9, 36, 127
1, 87599, Note_on_c, 9, 42, 0
1, 87600, Note_on_c, 9, 42, 127
1, 87839, Note_on_c, 9, 36, 0
1, 87839, Note_on_c, 9, 42, 0
1, 87840, Note_on_c, 9, 38, 127
1, 87840, Note_on_c, 9, 42, 127
1, 87840, Note_on_c, 9, 36, 127
1, 87959, Note_on_c, 9, 38, 0
1, 87959, Note_on_c, 9, 42, 0
1, 87960, Note_on_c, 9, 42, 127
1, 88079, Note_on_c, 9, 42, 0
1, 88080, Note_on_c, 9, 42, 127
1, 88199, Note_on_c, 9, 42, 0
1, 88200, Note_on_c, 9, 42, 127
1, 88319, Note_on_c, 9, 36, 0
1, 88319, Note_on_c, 9, 42, 0
1, 88320, Note_on_c, 9, 54, 78
1, 88320, Note_on_c, 9, 42, 127
1, 88320, Note_on_c, 9, 36, 127
1, 88439, Note_on_c, 9, 54, 0
1, 88439, Note_on_c, 9, 42, 0
1, 88440, Note_on_c, 9, 54, 78
1, 88440, Note_on_c, 9, 42, 127
1, 88559, Note_on_c, 9, 54, 0
1, 88559, Note_on_c, 9, 42, 0
1, 88560, Note_on_c, 9, 54, 78
1, 88560, Note_on_c, 9, 42, 127
1, 88679, Note_on_c, 9, 54, 0
1, 88679, Note_on_c, 9, 42, 0
1, 88680, Note_on_c, 9, 54, 78
1, 88680, Note_on_c, 9, 42, 127
1, 88799, Note_on_c, 9, 36, 0
1, 88799, Note_on_c, 9, 54, 0
1, 88799, Note_on_c, 9, 42, 0
1, 88800, Note_on_c, 9, 38, 127
1, 88800, Note_on_c, 9, 42, 127
1, 88800, Note_on_c, 9, 36, 127
1, 88919, Note_on_c, 9, 38, 0
1, 88919, Note_on_c, 9, 42, 0
1, 88920, Note_on_c, 9, 42, 127
1, 89039, Note_on_c, 9, 42, 0
1, 89040, Note_on_c, 9, 42, 127
1, 89159, Note_on_c, 9, 42, 0
1, 89160, Note_on_c, 9, 42, 127
1, 89279, Note_on_c, 9, 36, 0
1, 89279, Note_on_c, 9, 42, 0
1, 89280, Note_on_c, 9, 42, 127
1, 89280, Note_on_c, 9, 36, 127
1, 89519, Note_on_c, 9, 42, 0
1, 89520, Note_on_c, 9, 42, 127
1, 89759, Note_on_c, 9, 36, 0
1, 89759, Note_on_c, 9, 42, 0
1, 89760, Note_on_c, 9, 38, 127
1, 89760, Note_on_c, 9, 42, 127
1, 89760, Note_on_c, 9, 36, 127
1, 89879, Note_on_c, 9, 38, 0
1, 89879, Note_on_c, 9, 42, 0
1, 89880, Note_on_c, 9, 42, 127
1, 89999, Note_on_c, 9, 42, 0
1, 90000, Note_on_c, 9, 42, 127
1, 90119, Note_on_c, 9, 42, 0
1, 90120, Note_on_c, 9, 42, 127
1, 90239, Note_on_c, 9, 36, 0
1, 90239, Note_on_c, 9, 42, 0
1, 90240, Note_on_c, 9, 54, 78
1, 90240, Note_on_c, 9, 42, 127
1, 90240, Note_on_c, 9, 36, 127
1, 90359, Note_on_c, 9, 54, 0
1, 90359, Note_on_c, 9, 42, 0
1, 90360, Note_on_c, 9, 54, 78
1, 90360, Note_on_c, 9, 42, 127
1, 90479, Note_on_c, 9, 54, 0
1, 90479, Note_on_c, 9, 42, 0
1, 90480, Note_on_c, 9, 54, 78
1, 90480, Note_on_c, 9, 42, 127
1, 90599, Note_on_c, 9, 54, 0
1, 90599, Note_on_c, 9, 42, 0
1, 90600, Note_on_c, 9, 54, 78
1, 90600, Note_on_c, 9, 42, 127
1, 90719, Note_on_c, 9, 36, 0
1, 90719, Note_on_c, 9, 54, 0
1, 90719, Note_on_c, 9, 42, 0
1, 90720, Note_on_c, 9, 38, 127
1, 90720, Note_on_c, 9, 42, 127
1, 90720, Note_on_c, 9, 36, 127
1, 90839, Note_on_c, 9, 38, 0
1, 90839, Note_on_c, 9, 42, 0
1, 90840, Note_on_c, 9, 42, 127
1, 90959, Note_on_c, 9, 42, 0
1, 90960, Note_on_c, 9, 42, 127
1, 91079, Note_on_c, 9, 42, 0
1, 91080, Note_on_c, 9, 42, 127
1, 91199, Note_on_c, 9, 36, 0
1, 91199, Note_on_c, 9, 42, 0
1, 91200, Note_on_c, 9, 42, 127
1, 91200, Note_on_c, 9, 36, 127
1, 91439, Note_on_c, 9, 42, 0
1, 91440, Note_on_c, 9, 42, 127
1, 91679, Note_on_c, 9, 36, 0
1, 91679, Note_on_c, 9, 42, 0
1, 91680, Note_on_c, 9, 38, 127
1, 91680, Note_on_c, 9, 42, 127
1, 91680, Note_on_c, 9, 36, 127
1, 91799, Note_on_c, 9, 38, 0
1, 91799, Note_on_c, 9, 42, 0
1, 91800, Note_on_c, 9, 42, 127
1, 91919, Note_on_c, 9, 42, 0
1, 91920, Note_on_c, 9, 42, 127
1, 92039, Note_on_c, 9, 42, 0
1, 92040, Note_on_c, 9, 42, 127
1, 92159, Note_on_c, 9, 36, 0
1, 92159, Note_on_c, 9, 42, 0
1, 92160, Note_on_c, 9, 54, 78
1, 92160, Note_on_c, 9, 42, 127
1, 92160, Note_on_c, 9, 36, 127
1, 92279, Note_on_c, 9, 54, 0
1, 92279, Note_on_c, 9, 42, 0
1, 92280, Note_on_c, 9, 54, 78
1, 92280, Note_on_c, 9, 42, 127
1, 92399, Note_on_c, 9, 54, 0
1, 92399, Note_on_c, 9, 42, 0
1, 92400, Note_on_c, 9, 54, 78
1, 92400, Note_on_c, 9, 42, 127
1, 92519, Note_on_c, 9, 54, 0
1, 92519, Note_on_c, 9, 42, 0
1, 92520, Note_on_c, 9, 54, 78
1, 92520, Note_on_c, 9, 42, 127
1, 92639, Note_on_c, 9, 36, 0
1, 92639, Note_on_c, 9, 54, 0
1, 92639, Note_on_c, 9, 42, 0
1, 92640, Note_on_c, 9, 38, 127
1, 92640, Note_on_c, 9, 42, 127
1, 92640, Note_on_c, 9, 36, 127
1, 92759, Note_on_c, 9, 38, 0
1, 92759, Note_on_c, 9, 42, 0
1, 92760, Note_on_c, 9, 42, 127
1, 92879, Note_on_c, 9, 42, 0
1, 92880, Note_on_c, 9, 42, 127
1, 92999, Note_on_c, 9, 42, 0
1, 93000, Note_on_c, 9, 42, 127
1, 93119, Note_on_c, 9, 36, 0
1, 93119, Note_on_c, 9, 42, 0
1, 93120, Note_on_c, 9, 42, 127
1, 93120, Note_on_c, 9, 36, 127
1, 93359, Note_on_c, 9, 42, 0
1, 93360, Note_on_c, 9, 42, 127
1, 93599, Note_on_c, 9, 36, 0
1, 93599, Note_on_c, 9, 42, 0
1, 93600, Note_on_c, 9, 38, 127
1, 93600, Note_on_c, 9, 42, 127
1, 93600, Note_on_c, 9, 36, 127
1, 93719, Note_on_c, 9, 38, 0
1, 93719, Note_on_c, 9, 42, 0
1, 93720, Note_on_c, 9, 42, 127
1, 93839, Note_on_c, 9, 42, 0
1, 93840, Note_on_c, 9, 42, 127
1, 93959, Note_on_c, 9, 42, 0
1, 93960, Note_on_c, 9, 42, 127
1, 94079, Note_on_c, 9, 36, 0
1, 94079, Note_on_c, 9, 42, 0
1, 94080, Note_on_c, 9, 54, 78
1, 94080, Note_on_c, 9, 42, 127
1, 94080, Note_on_c, 9, 36, 127
1, 94199, Note_on_c, 9, 54, 0
1, 94199, Note_on_c, 9, 42, 0
1, 94200, Note_on_c, 9, 54, 78
1, 94200, Note_on_c, 9, 42, 127
1, 94319, Note_on_c, 9, 54, 0
1, 94319, Note_on_c, 9, 42, 0
1, 94320, Note_on_c, 9, 54, 78
1, 94320, Note_on_c, 9, 42, 127
1, 94439, Note_on_c, 9, 54, 0
1, 94439, Note_on_c, 9, 42, 0
1, 94440, Note_on_c, 9, 54, 78
1, 94440, Note_on_c, 9, 42, 127
1, 94559, Note_on_c, 9, 36, 0
1, 94559, Note_on_c, 9, 54, 0
1, 94559, Note_on_c, 9, 42, 0
1, 94560, Note_on_c, 9, 38, 127
1, 94560, Note_on_c, 9, 42, 127
1, 94560, Note_on_c, 9, 36, 127
1, 94679, Note_on_c, 9, 38, 0
1, 94679, Note_on_c, 9, 42, 0
1, 94680, Note_on_c, 9, 42, 127
1, 94799, Note_on_c, 9, 42, 0
1, 94800, Note_on_c, 9, 42, 127
1, 94919, Note_on_c, 9, 42, 0
1, 94920, Note_on_c, 9, 42, 127
1, 95039, Note_on_c, 9, 36, 0
1, 95039, Note_on_c, 9, 42, 0
1, 95040, Note_on_c, 9, 42, 127
1, 95040, Note_on_c, 9, 36, 127
1, 95279, Note_on_c, 9, 42, 0
1, 95280, Note_on_c, 9, 42, 127
1, 95399, Note_on_c, 9, 36, 0
1, 95400, Note_on_c, 9, 36, 120
1, 95519, Note_on_c, 9, 42, 0
1, 95519, Note_on_c, 9, 36, 0
1, 95520, Note_on_c, 9, 38, 127
1, 95520, Note_on_c, 9, 42, 127
1, 95639, Note_on_c, 9, 38, 0
1, 95639, Note_on_c, 9, 42, 0
1, 95640, Note_on_c, 9, 42, 127
1, 95759, Note_on_c, 9, 42, 0
1, 95760, Note_on_c, 9, 38, 120
1, 95760, Note_on_c, 9, 42, 127
1, 95879, Note_on_c, 9, 38, 0
1, 95879, Note_on_c, 9, 42, 0
1, 95880, Note_on_c, 9, 42, 127
1, 95999, Note_on_c, 9, 42, 0
1, 96000, Note_on_c, 9, 54, 78
1, 96000, Note_on_c, 9, 49, 127
1, 96000, Note_on_c, 9, 36, 127
1, 96119, Note_on_c, 9, 54, 0
1, 96119, Note_on_c, 9, 49, 0
1, 96120, Note_on_c, 9, 54, 78
1, 96239, Note_on_c, 9, 54, 0
1, 96240, Note_on_c, 9, 54, 78
1, 96359, Note_on_c, 9, 54, 0
1, 96360, Note_on_c, 9, 54, 78
1, 96479, Note_on_c, 9, 36, 0
1, 96479, Note_on_c, 9, 54, 0
1, 96480, Note_on_c, 9, 38, 127
1, 96480, Note_on_c, 9, 42, 127
1, 96480, Note_on_c, 9, 36, 127
1, 96599, Note_on_c, 9, 38, 0
1, 96599, Note_on_c, 9, 42, 0
1, 96600, Note_on_c, 9, 42, 127
1, 96719, Note_on_c, 9, 42, 0
1, 96720, Note_on_c, 9, 42, 127
1, 96839, Note_on_c, 9, 42, 0
1, 96840, Note_on_c, 9, 42, 127
1, 96959, Note_on_c, 9, 36, 0
1, 96959, Note_on_c, 9, 42, 0
1, 96960, Note_on_c, 9, 42, 127
1, 96960, Note_on_c, 9, 36, 127
1, 97199, Note_on_c, 9, 42, 0
1, 97200, Note_on_c, 9, 42, 127
1, 97439, Note_on_c, 9, 36, 0
1, 97439, Note_on_c, 9, 42, 0
1, 97440, Note_on_c, 9, 38, 127
1, 97440, Note_on_c, 9, 42, 127
1, 97440, Note_on_c, 9, 36, 120
1, 97559, Note_on_c, 9, 38, 0
1, 97559, Note_on_c, 9, 42, 0
1, 97560, Note_on_c, 9, 42, 127
1, 97679, Note_on_c, 9, 42, 0
1, 97680, Note_on_c, 9, 42, 127
1, 97799, Note_on_c, 9, 42, 0
1, 97800, Note_on_c, 9, 42, 127
1, 97919, Note_on_c, 9, 36, 0
1, 97919, Note_on_c, 9, 42, 0
1, 97920, Note_on_c, 9, 54, 78
1, 97920, Note_on_c, 9, 46, 127
1, 97920, Note_on_c, 9, 36, 127
1, 98039, Note_on_c, 9, 54, 0
1, 98039, Note_on_c, 9, 46, 0
1, 98040, Note_on_c, 9, 54, 78
1, 98040, Note_on_c, 9, 42, 127
1, 98159, Note_on_c, 9, 54, 0
1, 98159, Note_on_c, 9, 42, 0
1, 98160, Note_on_c, 9, 54, 78
1, 98160, Note_on_c, 9, 42, 127
1, 98279, Note_on_c, 9, 54, 0
1, 98279, Note_on_c, 9, 42, 0
1, 98280, Note_on_c, 9, 54, 78
1, 98280, Note_on_c, 9, 42, 127
1, 98399, Note_on_c, 9, 36, 0
1, 98399, Note_on_c, 9, 54, 0
1, 98399, Note_on_c, 9, 42, 0
1, 98400, Note_on_c, 9, 38, 127
1, 98400, Note_on_c, 9, 42, 127
1, 98400, Note_on_c, 9, 36, 127
1, 98519, Note_on_c, 9, 38, 0
1, 98519, Note_on_c, 9, 42, 0
1, 98520, Note_on_c, 9, 42, 127
1, 98639, Note_on_c, 9, 42, 0
1, 98640, Note_on_c, 9, 42, 127
1, 98759, Note_on_c, 9, 42, 0
1, 98760, Note_on_c, 9, 42, 127
1, 98879, Note_on_c, 9, 36, 0
1, 98879, Note_on_c, 9, 42, 0
1, 98880, Note_on_c, 9, 42, 127
1, 98880, Note_on_c, 9, 36, 127
1, 99119, Note_on_c, 9, 42, 0
1, 99120, Note_on_c, 9, 42, 127
1, 99359, Note_on_c, 9, 36, 0
1, 99359, Note_on_c, 9, 42, 0
1, 99360, Note_on_c, 9, 38, 120
1, 99360, Note_on_c, 9, 42, 127
1, 99360, Note_on_c, 9, 36, 120
1, 99479, Note_on_c, 9, 38, 0
1, 99479, Note_on_c, 9, 42, 0
1, 99480, Note_on_c, 9, 42, 127
1, 99599, Note_on_c, 9, 42, 0
1, 99600, Note_on_c, 9, 42, 127
1, 99719, Note_on_c, 9, 42, 0
1, 99720, Note_on_c, 9, 42, 127
1, 99839, Note_on_c, 9, 36, 0
1, 99839, Note_on_c, 9, 42, 0
1, 99840, Note_on_c, 9, 54, 78
1, 99840, Note_on_c, 9, 42, 127
1, 99840, Note_on_c, 9, 36, 127
1, 99959, Note_on_c, 9, 54, 0
1, 99959, Note_on_c, 9, 42, 0
1, 99960, Note_on_c, 9, 54, 78
1, 99960, Note_on_c, 9, 42, 127
1, 100079, Note_on_c, 9, 54, 0
1, 100079, Note_on_c, 9, 42, 0
1, 100080, Note_on_c, 9, 54, 78
1, 100080, Note_on_c, 9, 42, 127
1, 100199, Note_on_c, 9, 54, 0
1, 100199, Note_on_c, 9, 42, 0
1, 100200, Note_on_c, 9, 54, 78
1, 100200, Note_on_c, 9, 42, 127
1, 100319, Note_on_c, 9, 36, 0
1, 100319, Note_on_c, 9, 54, 0
1, 100319, Note_on_c, 9, 42, 0
1, 100320, Note_on_c, 9, 38, 127
1, 100320, Note_on_c, 9, 42, 127
1, 100320, Note_on_c, 9, 36, 127
1, 100439, Note_on_c, 9, 38, 0
1, 100439, Note_on_c, 9, 42, 0
1, 100440, Note_on_c, 9, 42, 127
1, 100559, Note_on_c, 9, 42, 0
1, 100560, Note_on_c, 9, 42, 127
1, 100679, Note_on_c, 9, 42, 0
1, 100680, Note_on_c, 9, 42, 127
1, 100799, Note_on_c, 9, 36, 0
1, 100799, Note_on_c, 9, 42, 0
1, 100800, Note_on_c, 9, 42, 127
1, 100800, Note_on_c, 9, 36, 127
1, 101039, Note_on_c, 9, 42, 0
1, 101040, Note_on_c, 9, 42, 127
1, 101279, Note_on_c, 9, 36, 0
1, 101279, Note_on_c, 9, 42, 0
1, 101280, Note_on_c, 9, 38, 127
1, 101280, Note_on_c, 9, 42, 127
1, 101280, Note_on_c, 9, 36, 127
1, 101399, Note_on_c, 9, 38, 0
1, 101399, Note_on_c, 9, 42, 0
1, 101400, Note_on_c, 9, 42, 127
1, 101519, Note_on_c, 9, 42, 0
1, 101520, Note_on_c, 9, 42, 127
1, 101639, Note_on_c, 9, 42, 0
1, 101640, Note_on_c, 9, 42, 127
1, 101759, Note_on_c, 9, 36, 0
1, 101759, Note_on_c, 9, 42, 0
1, 101760, Note_on_c, 9, 54, 78
1, 101760, Note_on_c, 9, 42, 127
1, 101760, Note_on_c, 9, 36, 127
1, 101879, Note_on_c, 9, 54, 0
1, 101879, Note_on_c, 9, 42, 0
1, 101880, Note_on_c, 9, 54, 78
1, 101880, Note_on_c, 9, 42, 127
1, 101999, Note_on_c, 9, 54, 0
1, 101999, Note_on_c, 9, 42, 0
1, 102000, Note_on_c, 9, 54, 78
1, 102000, Note_on_c, 9, 42, 127
1, 102119, Note_on_c, 9, 54, 0
1, 102119, Note_on_c, 9, 42, 0
1, 102120, Note_on_c, 9, 54, 78
1, 102120, Note_on_c, 9, 42, 127
1, 102239, Note_on_c, 9, 36, 0
1, 102239, Note_on_c, 9, 54, 0
1, 102239, Note_on_c, 9, 42, 0
1, 102240, Note_on_c, 9, 38, 127
1, 102240, Note_on_c, 9, 42, 127
1, 102240, Note_on_c, 9, 36, 127
1, 102359, Note_on_c, 9, 38, 0
1, 102359, Note_on_c, 9, 42, 0
1, 102360, Note_on_c, 9, 42, 127
1, 102479, Note_on_c, 9, 42, 0
1, 102480, Note_on_c, 9, 42, 127
1, 102599, Note_on_c, 9, 42, 0
1, 102600, Note_on_c, 9, 42, 127
1, 102719, Note_on_c, 9, 36, 0
1, 102719, Note_on_c, 9, 42, 0
1, 102720, Note_on_c, 9, 42, 127
1, 102720, Note_on_c, 9, 36, 127
1, 102959, Note_on_c, 9, 42, 0
1, 102960, Note_on_c, 9, 42, 127
1, 103079, Note_on_c, 9, 36, 0
1, 103080, Note_on_c, 9, 36, 127
1, 103199, Note_on_c, 9, 42, 0
1, 103199, Note_on_c, 9, 36, 0
1, 103200, Note_on_c, 9, 38, 127
1, 103319, Note_on_c, 9, 38, 0
1, 103320, Note_on_c, 9, 38, 127
1, 103439, Note_on_c, 9, 38, 0
1, 103440, Note_on_c, 9, 38, 127
1, 103559, Note_on_c, 9, 38, 0
1, 103560, Note_on_c, 9, 38, 127
1, 103679, Note_on_c, 9, 38, 0
1, 103680, Note_on_c, 9, 54, 78
1, 103680, Note_on_c, 9, 42, 127
1, 103680, Note_on_c, 9, 49, 127
1, 103680, Note_on_c, 9, 36, 127
1, 103799, Note_on_c, 9, 54, 0
1, 103799, Note_on_c, 9, 42, 0
1, 103799, Note_on_c, 9, 49, 0
1, 103800, Note_on_c, 9, 54, 78
1, 103800, Note_on_c, 9, 42, 127
1, 103919, Note_on_c, 9, 54, 0
1, 103919, Note_on_c, 9, 42, 0
1, 103920, Note_on_c, 9, 54, 78
1, 103920, Note_on_c, 9, 42, 127
1, 104039, Note_on_c, 9, 54, 0
1, 104039, Note_on_c, 9, 42, 0
1, 104040, Note_on_c, 9, 54, 78
1, 104040, Note_on_c, 9, 42, 127
1, 104159, Note_on_c, 9, 36, 0
1, 104159, Note_on_c, 9, 54, 0
1, 104159, Note_on_c, 9, 42, 0
1, 104160, Note_on_c, 9, 38, 127
1, 104160, Note_on_c, 9, 42, 127
1, 104279, Note_on_c, 9, 38, 0
1, 104279, Note_on_c, 9, 42, 0
1, 104280, Note_on_c, 9, 42, 127
1, 104399, Note_on_c, 9, 42, 0
1, 104400, Note_on_c, 9, 42, 127
1, 104519, Note_on_c, 9, 42, 0
1, 104520, Note_on_c, 9, 42, 127
1, 104639, Note_on_c, 9, 42, 0
1, 104640, Note_on_c, 9, 42, 127
1, 104640, Note_on_c, 9, 36, 127
1, 104879, Note_on_c, 9, 42, 0
1, 104880, Note_on_c, 9, 42, 127
1, 105119, Note_on_c, 9, 36, 0
1, 105119, Note_on_c, 9, 42, 0
1, 105120, Note_on_c, 9, 38, 127
1, 105120, Note_on_c, 9, 42, 127
1, 105239, Note_on_c, 9, 38, 0
1, 105239, Note_on_c, 9, 42, 0
1, 105240, Note_on_c, 9, 42, 127
1, 105359, Note_on_c, 9, 42, 0
1, 105360, Note_on_c, 9, 42, 127
1, 105360, Note_on_c, 9, 36, 127
1, 105479, Note_on_c, 9, 42, 0
1, 105480, Note_on_c, 9, 42, 127
1, 105599, Note_on_c, 9, 36, 0
1, 105599, Note_on_c, 9, 42, 0
1, 105600, Note_on_c, 9, 54, 78
1, 105600, Note_on_c, 9, 42, 127
1, 105600, Note_on_c, 9, 36, 127
1, 105719, Note_on_c, 9, 54, 0
1, 105719, Note_on_c, 9, 42, 0
1, 105720, Note_on_c, 9, 54, 78
1, 105720, Note_on_c, 9, 42, 127
1, 105839, Note_on_c, 9, 54, 0
1, 105839, Note_on_c, 9, 42, 0
1, 105840, Note_on_c, 9, 54, 78
1, 105840, Note_on_c, 9, 42, 127
1, 105959, Note_on_c, 9, 54, 0
1, 105959, Note_on_c, 9, 42, 0
1, 105960, Note_on_c, 9, 54, 78
1, 105960, Note_on_c, 9, 42, 127
1, 106079, Note_on_c, 9, 36, 0
1, 106079, Note_on_c, 9, 54, 0
1, 106079, Note_on_c, 9, 42, 0
1, 106080, Note_on_c, 9, 38, 127
1, 106080, Note_on_c, 9, 42, 127
1, 106199, Note_on_c, 9, 38, 0
1, 106199, Note_on_c, 9, 42, 0
1, 106200, Note_on_c, 9, 42, 127
1, 106319, Note_on_c, 9, 42, 0
1, 106320, Note_on_c, 9, 42, 127
1, 106439, Note_on_c, 9, 42, 0
1, 106440, Note_on_c, 9, 42, 127
1, 106559, Note_on_c, 9, 42, 0
1, 106560, Note_on_c, 9, 42, 127
1, 106560, Note_on_c, 9, 36, 127
1, 106799, Note_on_c, 9, 42, 0
1, 106800, Note_on_c, 9, 42, 127
1, 107039, Note_on_c, 9, 36, 0
1, 107039, Note_on_c, 9, 42, 0
1, 107040, Note_on_c, 9, 38, 127
1, 107040, Note_on_c, 9, 42, 127
1, 107159, Note_on_c, 9, 38, 0
1, 107159, Note_on_c, 9, 42, 0
1, 107160, Note_on_c, 9, 42, 127
1, 107279, Note_on_c, 9, 42, 0
1, 107280, Note_on_c, 9, 42, 127
1, 107399, Note_on_c, 9, 42, 0
1, 107400, Note_on_c, 9, 42, 127
1, 107519, Note_on_c, 9, 42, 0
1, 107520, Note_on_c, 9, 54, 78
1, 107520, Note_on_c, 9, 42, 127
1, 107520, Note_on_c, 9, 36, 127
1, 107639, Note_on_c, 9, 54, 0
1, 107639, Note_on_c, 9, 42, 0
1, 107640, Note_on_c, 9, 54, 78
1, 107640, Note_on_c, 9, 42, 127
1, 107759, Note_on_c, 9, 54, 0
1, 107759, Note_on_c, 9, 42, 0
1, 107760, Note_on_c, 9, 54, 78
1, 107760, Note_on_c, 9, 42, 127
1, 107879, Note_on_c, 9, 54, 0
1, 107879, Note_on_c, 9, 42, 0
1, 107880, Note_on_c, 9, 54, 78
1, 107880, Note_on_c, 9, 42, 127
1, 107999, Note_on_c, 9, 36, 0
1, 107999, Note_on_c, 9, 54, 0
1, 107999, Note_on_c, 9, 42, 0
1, 108000, Note_on_c, 9, 38, 127
1, 108000, Note_on_c, 9, 42, 127
1, 108119, Note_on_c, 9, 38, 0
1, 108119, Note_on_c, 9, 42, 0
1, 108120, Note_on_c, 9, 42, 127
1, 108239, Note_on_c, 9, 42, 0
1, 108240, Note_on_c, 9, 42, 127
1, 108359, Note_on_c, 9, 42, 0
1, 108360, Note_on_c, 9, 42, 127
1, 108479, Note_on_c, 9, 42, 0
1, 108480, Note_on_c, 9, 42, 127
1, 108480, Note_on_c, 9, 36, 127
1, 108719, Note_on_c, 9, 42, 0
1, 108720, Note_on_c, 9, 42, 127
1, 108959, Note_on_c, 9, 36, 0
1, 108959, Note_on_c, 9, 42, 0
1, 108960, Note_on_c, 9, 38, 127
1, 108960, Note_on_c, 9, 42, 127
1, 109079, Note_on_c, 9, 38, 0
1, 109079, Note_on_c, 9, 42, 0
1, 109080, Note_on_c, 9, 42, 127
1, 109199, Note_on_c, 9, 42, 0
1, 109200, Note_on_c, 9, 42, 127
1, 109200, Note_on_c, 9, 36, 127
1, 109319, Note_on_c, 9, 42, 0
1, 109320, Note_on_c, 9, 42, 127
1, 109439, Note_on_c, 9, 36, 0
1, 109439, Note_on_c, 9, 42, 0
1, 109440, Note_on_c, 9, 54, 78
1, 109440, Note_on_c, 9, 42, 127
1, 109440, Note_on_c, 9, 36, 127
1, 109559, Note_on_c, 9, 54, 0
1, 109559, Note_on_c, 9, 42, 0
1, 109560, Note_on_c, 9, 54, 78
1, 109560, Note_on_c, 9, 42, 127
1, 109679, Note_on_c, 9, 54, 0
1, 109679, Note_on_c, 9, 42, 0
1, 109680, Note_on_c, 9, 54, 78
1, 109680, Note_on_c, 9, 42, 127
1, 109799, Note_on_c, 9, 54, 0
1, 109799, Note_on_c, 9, 42, 0
1, 109800, Note_on_c, 9, 54, 78
1, 109800, Note_on_c, 9, 42, 127
1, 109919, Note_on_c, 9, 36, 0
1, 109919, Note_on_c, 9, 54, 0
1, 109919, Note_on_c, 9, 42, 0
1, 109920, Note_on_c, 9, 38, 127
1, 109920, Note_on_c, 9, 42, 127
1, 110039, Note_on_c, 9, 38, 0
1, 110039, Note_on_c, 9, 42, 0
1, 110040, Note_on_c, 9, 42, 127
1, 110159, Note_on_c, 9, 42, 0
1, 110160, Note_on_c, 9, 42, 127
1, 110279, Note_on_c, 9, 42, 0
1, 110280, Note_on_c, 9, 42, 127
1, 110399, Note_on_c, 9, 42, 0
1, 110400, Note_on_c, 9, 42, 127
1, 110400, Note_on_c, 9, 36, 127
1, 110639, Note_on_c, 9, 42, 0
1, 110640, Note_on_c, 9, 42, 127
1, 110879, Note_on_c, 9, 36, 0
1, 110879, Note_on_c, 9, 42, 0
1, 110880, Note_on_c, 9, 38, 127
1, 110880, Note_on_c, 9, 42, 127
1, 110999, Note_on_c, 9, 38, 0
1, 110999, Note_on_c, 9, 42, 0
1, 111000, Note_on_c, 9, 42, 127
1, 111119, Note_on_c, 9, 42, 0
1, 111120, Note_on_c, 9, 42, 127
1, 111239, Note_on_c, 9, 42, 0
1, 111240, Note_on_c, 9, 42, 127
1, 111359, Note_on_c, 9, 42, 0
1, 111360, Note_on_c, 9, 54, 78
1, 111360, Note_on_c, 9, 42, 127
1, 111360, Note_on_c, 9, 36, 127
1, 111479, Note_on_c, 9, 54, 0
1, 111479, Note_on_c, 9, 42, 0
1, 111480, Note_on_c, 9, 54, 78
1, 111480, Note_on_c, 9, 42, 127
1, 111599, Note_on_c, 9, 54, 0
1, 111599, Note_on_c, 9, 42, 0
1, 111600, Note_on_c, 9, 54, 78
1, 111600, Note_on_c, 9, 42, 127
1, 111719, Note_on_c, 9, 54, 0
1, 111719, Note_on_c, 9, 42, 0
1, 111720, Note_on_c, 9, 54, 78
1, 111720, Note_on_c, 9, 42, 127
1, 111839, Note_on_c, 9, 36, 0
1, 111839, Note_on_c, 9, 54, 0
1, 111839, Note_on_c, 9, 42, 0
1, 111840, Note_on_c, 9, 38, 127
1, 111840, Note_on_c, 9, 42, 127
1, 111959, Note_on_c, 9, 38, 0
1, 111959, Note_on_c, 9, 42, 0
1, 111960, Note_on_c, 9, 42, 127
1, 112079, Note_on_c, 9, 42, 0
1, 112080, Note_on_c, 9, 42, 127
1, 112199, Note_on_c, 9, 42, 0
1, 112200, Note_on_c, 9, 42, 127
1, 112319, Note_on_c, 9, 42, 0
1, 112320, Note_on_c, 9, 42, 127
1, 112320, Note_on_c, 9, 36, 127
1, 112559, Note_on_c, 9, 42, 0
1, 112560, Note_on_c, 9, 42, 127
1, 112799, Note_on_c, 9, 36, 0
1, 112799, Note_on_c, 9, 42, 0
1, 112800, Note_on_c, 9, 38, 127
1, 112800, Note_on_c, 9, 42, 127
1, 112919, Note_on_c, 9, 38, 0
1, 112919, Note_on_c, 9, 42, 0
1, 112920, Note_on_c, 9, 42, 127
1, 113039, Note_on_c, 9, 42, 0
1, 113040, Note_on_c, 9, 42, 127
1, 113040, Note_on_c, 9, 36, 127
1, 113159, Note_on_c, 9, 42, 0
1, 113160, Note_on_c, 9, 42, 127
1, 113279, Note_on_c, 9, 36, 0
1, 113279, Note_on_c, 9, 42, 0
1, 113280, Note_on_c, 9, 54, 78
1, 113280, Note_on_c, 9, 42, 127
1, 113280, Note_on_c, 9, 36, 127
1, 113399, Note_on_c, 9, 54, 0
1, 113399, Note_on_c, 9, 42, 0
1, 113400, Note_on_c, 9, 54, 78
1, 113400, Note_on_c, 9, 42, 127
1, 113519, Note_on_c, 9, 54, 0
1, 113519, Note_on_c, 9, 42, 0
1, 113520, Note_on_c, 9, 54, 78
1, 113520, Note_on_c, 9, 42, 127
1, 113639, Note_on_c, 9, 54, 0
1, 113639, Note_on_c, 9, 42, 0
1, 113640, Note_on_c, 9, 54, 78
1, 113640, Note_on_c, 9, 42, 127
1, 113759, Note_on_c, 9, 36, 0
1, 113759, Note_on_c, 9, 54, 0
1, 113759, Note_on_c, 9, 42, 0
1, 113760, Note_on_c, 9, 38, 127
1, 113760, Note_on_c, 9, 42, 127
1, 113879, Note_on_c, 9, 38, 0
1, 113879, Note_on_c, 9, 42, 0
1, 113880, Note_on_c, 9, 42, 127
1, 113999, Note_on_c, 9, 42, 0
1, 114000, Note_on_c, 9, 42, 127
1, 114119, Note_on_c, 9, 42, 0
1, 114120, Note_on_c, 9, 42, 127
1, 114239, Note_on_c, 9, 42, 0
1, 114240, Note_on_c, 9, 42, 127
1, 114240, Note_on_c, 9, 36, 127
1, 114479, Note_on_c, 9, 42, 0
1, 114480, Note_on_c, 9, 42, 127
1, 114719, Note_on_c, 9, 36, 0
1, 114719, Note_on_c, 9, 42, 0
1, 114720, Note_on_c, 9, 38, 127
1, 114720, Note_on_c, 9, 42, 127
1, 114839, Note_on_c, 9, 38, 0
1, 114839, Note_on_c, 9, 42, 0
1, 114840, Note_on_c, 9, 42, 127
1, 114959, Note_on_c, 9, 42, 0
1, 114960, Note_on_c, 9, 42, 127
1, 115079, Note_on_c, 9, 42, 0
1, 115080, Note_on_c, 9, 42, 127
1, 115199, Note_on_c, 9, 42, 0
1, 115200, Note_on_c, 9, 54, 78
1, 115200, Note_on_c, 9, 42, 127
1, 115200, Note_on_c, 9, 36, 127
1, 115319, Note_on_c, 9, 54, 0
1, 115319, Note_on_c, 9, 42, 0
1, 115320, Note_on_c, 9, 54, 78
1, 115320, Note_on_c, 9, 42, 127
1, 115439, Note_on_c, 9, 54, 0
1, 115439, Note_on_c, 9, 42, 0
1, 115440, Note_on_c, 9, 54, 78
1, 115440, Note_on_c, 9, 42, 127
1, 115559, Note_on_c, 9, 54, 0
1, 115559, Note_on_c, 9, 42, 0
1, 115560, Note_on_c, 9, 54, 78
1, 115560, Note_on_c, 9, 42, 127
1, 115679, Note_on_c, 9, 36, 0
1, 115679, Note_on_c, 9, 54, 0
1, 115679, Note_on_c, 9, 42, 0
1, 115680, Note_on_c, 9, 38, 127
1, 115680, Note_on_c, 9, 42, 127
1, 115799, Note_on_c, 9, 38, 0
1, 115799, Note_on_c, 9, 42, 0
1, 115800, Note_on_c, 9, 42, 127
1, 115919, Note_on_c, 9, 42, 0
1, 115920, Note_on_c, 9, 42, 127
1, 116039, Note_on_c, 9, 42, 0
1, 116040, Note_on_c, 9, 42, 127
1, 116159, Note_on_c, 9, 42, 0
1, 116160, Note_on_c, 9, 42, 127
1, 116160, Note_on_c, 9, 36, 127
1, 116399, Note_on_c, 9, 42, 0
1, 116400, Note_on_c, 9, 42, 127
1, 116639, Note_on_c, 9, 36, 0
1, 116639, Note_on_c, 9, 42, 0
1, 116640, Note_on_c, 9, 38, 127
1, 116640, Note_on_c, 9, 42, 127
1, 116759, Note_on_c, 9, 38, 0
1, 116759, Note_on_c, 9, 42, 0
1, 116760, Note_on_c, 9, 42, 127
1, 116879, Note_on_c, 9, 42, 0
1, 116880, Note_on_c, 9, 42, 127
1, 116999, Note_on_c, 9, 42, 0
1, 117000, Note_on_c, 9, 42, 127
1, 117119, Note_on_c, 9, 42, 0
1, 117120, Note_on_c, 9, 54, 78
1, 117120, Note_on_c, 9, 42, 127
1, 117120, Note_on_c, 9, 36, 127
1, 117239, Note_on_c, 9, 54, 0
1, 117239, Note_on_c, 9, 42, 0
1, 117240, Note_on_c, 9, 54, 78
1, 117240, Note_on_c, 9, 42, 127
1, 117359, Note_on_c, 9, 54, 0
1, 117359, Note_on_c, 9, 42, 0
1, 117360, Note_on_c, 9, 54, 78
1, 117360, Note_on_c, 9, 42, 127
1, 117479, Note_on_c, 9, 54, 0
1, 117479, Note_on_c, 9, 42, 0
1, 117480, Note_on_c, 9, 54, 78
1, 117480, Note_on_c, 9, 42, 127
1, 117599, Note_on_c, 9, 36, 0
1, 117599, Note_on_c, 9, 54, 0
1, 117599, Note_on_c, 9, 42, 0
1, 117600, Note_on_c, 9, 38, 127
1, 117600, Note_on_c, 9, 42, 127
1, 117719, Note_on_c, 9, 38, 0
1, 117719, Note_on_c, 9, 42, 0
1, 117720, Note_on_c, 9, 42, 127
1, 117839, Note_on_c, 9, 42, 0
1, 117840, Note_on_c, 9, 42, 127
1, 117959, Note_on_c, 9, 42, 0
1, 117960, Note_on_c, 9, 42, 127
1, 118079, Note_on_c, 9, 42, 0
1, 118080, Note_on_c, 9, 42, 127
1, 118080, Note_on_c, 9, 36, 127
1, 118319, Note_on_c, 9, 42, 0
1, 118320, Note_on_c, 9, 42, 127
1, 118559, Note_on_c, 9, 36, 0
1, 118559, Note_on_c, 9, 42, 0
1, 118560, Note_on_c, 9, 38, 127
1, 118560, Note_on_c, 9, 42, 127
1, 118679, Note_on_c, 9, 38, 0
1, 118679, Note_on_c, 9, 42, 0
1, 118680, Note_on_c, 9, 42, 127
1, 118799, Note_on_c, 9, 42, 0
1, 118800, Note_on_c, 9, 42, 127
1, 118919, Note_on_c, 9, 42, 0
1, 118920, Note_on_c, 9, 42, 127
1, 119039, Note_on_c, 9, 42, 0
1, 119040, Note_on_c, 9, 54, 78
1, 119040, Note_on_c, 9, 42, 127
1, 119040, Note_on_c, 9, 49, 127
1, 119040, Note_on_c, 9, 36, 127
1, 119159, Note_on_c, 9, 54, 0
1, 119159, Note_on_c, 9, 42, 0
1, 119159, Note_on_c, 9, 49, 0
1, 119160, Note_on_c, 9, 54, 78
1, 119160, Note_on_c, 9, 42, 127
1, 119279, Note_on_c, 9, 54, 0
1, 119279, Note_on_c, 9, 42, 0
1, 119280, Note_on_c, 9, 54, 78
1, 119280, Note_on_c, 9, 42, 127
1, 119399, Note_on_c, 9, 54, 0
1, 119399, Note_on_c, 9, 42, 0
1, 119400, Note_on_c, 9, 54, 78
1, 119400, Note_on_c, 9, 42, 127
1, 119519, Note_on_c, 9, 36, 0
1, 119519, Note_on_c, 9, 54, 0
1, 119519, Note_on_c, 9, 42, 0
1, 119520, Note_on_c, 9, 38, 127
1, 119520, Note_on_c, 9, 42, 127
1, 119639, Note_on_c, 9, 38, 0
1, 119639, Note_on_c, 9, 42, 0
1, 119640, Note_on_c, 9, 42, 127
1, 119759, Note_on_c, 9, 42, 0
1, 119760, Note_on_c, 9, 42, 127
1, 119879, Note_on_c, 9, 42, 0
1, 119880, Note_on_c, 9, 42, 127
1, 119999, Note_on_c, 9, 42, 0
1, 120000, Note_on_c, 9, 42, 127
1, 120000, Note_on_c, 9, 36, 127
1, 120239, Note_on_c, 9, 42, 0
1, 120240, Note_on_c, 9, 42, 127
1, 120479, Note_on_c, 9, 36, 0
1, 120479, Note_on_c, 9, 42, 0
1, 120480, Note_on_c, 9, 38, 127
1, 120480, Note_on_c, 9, 42, 127
1, 120599, Note_on_c, 9, 38, 0
1, 120599, Note_on_c, 9, 42, 0
1, 120600, Note_on_c, 9, 42, 127
1, 120719, Note_on_c, 9, 42, 0
1, 120720, Note_on_c, 9, 42, 127
1, 120720, Note_on_c, 9, 36, 127
1, 120839, Note_on_c, 9, 42, 0
1, 120840, Note_on_c, 9, 42, 127
1, 120959, Note_on_c, 9, 36, 0
1, 120959, Note_on_c, 9, 42, 0
1, 120960, Note_on_c, 9, 54, 78
1, 120960, Note_on_c, 9, 42, 127
1, 120960, Note_on_c, 9, 36, 127
1, 121079, Note_on_c, 9, 54, 0
1, 121079, Note_on_c, 9, 42, 0
1, 121080, Note_on_c, 9, 54, 78
1, 121080, Note_on_c, 9, 42, 127
1, 121199, Note_on_c, 9, 54, 0
1, 121199, Note_on_c, 9, 42, 0
1, 121200, Note_on_c, 9, 54, 78
1, 121200, Note_on_c, 9, 42, 127
1, 121319, Note_on_c, 9, 54, 0
1, 121319, Note_on_c, 9, 42, 0
1, 121320, Note_on_c, 9, 54, 78
1, 121320, Note_on_c, 9, 42, 127
1, 121439, Note_on_c, 9, 36, 0
1, 121439, Note_on_c, 9, 54, 0
1, 121439, Note_on_c, 9, 42, 0
1, 121440, Note_on_c, 9, 38, 127
1, 121440, Note_on_c, 9, 42, 127
1, 121559, Note_on_c, 9, 38, 0
1, 121559, Note_on_c, 9, 42, 0
1, 121560, Note_on_c, 9, 42, 127
1, 121679, Note_on_c, 9, 42, 0
1, 121680, Note_on_c, 9, 42, 127
1, 121799, Note_on_c, 9, 42, 0
1, 121800, Note_on_c, 9, 42, 127
1, 121919, Note_on_c, 9, 42, 0
1, 121920, Note_on_c, 9, 42, 127
1, 121920, Note_on_c, 9, 36, 127
1, 122159, Note_on_c, 9, 42, 0
1, 122160, Note_on_c, 9, 42, 127
1, 122399, Note_on_c, 9, 36, 0
1, 122399, Note_on_c, 9, 42, 0
1, 122400, Note_on_c, 9, 38, 127
1, 122400, Note_on_c, 9, 42, 127
1, 122519, Note_on_c, 9, 38, 0
1, 122519, Note_on_c, 9, 42, 0
1, 122520, Note_on_c, 9, 42, 127
1, 122639, Note_on_c, 9, 42, 0
1, 122640, Note_on_c, 9, 42, 127
1, 122759, Note_on_c, 9, 42, 0
1, 122760, Note_on_c, 9, 42, 127
1, 122879, Note_on_c, 9, 42, 0
1, 122880, Note_on_c, 9, 54, 78
1, 122880, Note_on_c, 9, 42, 127
1, 122880, Note_on_c, 9, 36, 127
1, 122999, Note_on_c, 9, 54, 0
1, 122999, Note_on_c, 9, 42, 0
1, 123000, Note_on_c, 9, 54, 78
1, 123000, Note_on_c, 9, 42, 127
1, 123119, Note_on_c, 9, 54, 0
1, 123119, Note_on_c, 9, 42, 0
1, 123120, Note_on_c, 9, 54, 78
1, 123120, Note_on_c, 9, 42, 127
1, 123239, Note_on_c, 9, 54, 0
1, 123239, Note_on_c, 9, 42, 0
1, 123240, Note_on_c, 9, 54, 78
1, 123240, Note_on_c, 9, 42, 127
1, 123359, Note_on_c, 9, 36, 0
1, 123359, Note_on_c, 9, 54, 0
1, 123359, Note_on_c, 9, 42, 0
1, 123360, Note_on_c, 9, 38, 127
1, 123360, Note_on_c, 9, 42, 127
1, 123479, Note_on_c, 9, 38, 0
1, 123479, Note_on_c, 9, 42, 0
1, 123480, Note_on_c, 9, 42, 127
1, 123599, Note_on_c, 9, 42, 0
1, 123600, Note_on_c, 9, 42, 127
1, 123719, Note_on_c, 9, 42, 0
1, 123720, Note_on_c, 9, 42, 127
1, 123839, Note_on_c, 9, 42, 0
1, 123840, Note_on_c, 9, 42, 127
1, 123840, Note_on_c, 9, 36, 127
1, 124079, Note_on_c, 9, 42, 0
1, 124080, Note_on_c, 9, 42, 127
1, 124319, Note_on_c, 9, 36, 0
1, 124319, Note_on_c, 9, 42, 0
1, 124320, Note_on_c, 9, 38, 127
1, 124320, Note_on_c, 9, 42, 127
1, 124439, Note_on_c, 9, 38, 0
1, 124439, Note_on_c, 9, 42, 0
1, 124440, Note_on_c, 9, 42, 127
1, 124559, Note_on_c, 9, 42, 0
1, 124560, Note_on_c, 9, 42, 127
1, 124560, Note_on_c, 9, 36, 127
1, 124679, Note_on_c, 9, 42, 0
1, 124680, Note_on_c, 9, 42, 127
1, 124799, Note_on_c, 9, 36, 0
1, 124799, Note_on_c, 9, 42, 0
1, 124800, Note_on_c, 9, 54, 78
1, 124800, Note_on_c, 9, 42, 127
1, 124800, Note_on_c, 9, 36, 127
1, 124919, Note_on_c, 9, 54, 0
1, 124919, Note_on_c, 9, 42, 0
1, 124920, Note_on_c, 9, 54, 78
1, 124920, Note_on_c, 9, 42, 127
1, 125039, Note_on_c, 9, 54, 0
1, 125039, Note_on_c, 9, 42, 0
1, 125040, Note_on_c, 9, 54, 78
1, 125040, Note_on_c, 9, 42, 127
1, 125159, Note_on_c, 9, 54, 0
1, 125159, Note_on_c, 9, 42, 0
1, 125160, Note_on_c, 9, 54, 78
1, 125160, Note_on_c, 9, 42, 127
1, 125279, Note_on_c, 9, 36, 0
1, 125279, Note_on_c, 9, 54, 0
1, 125279, Note_on_c, 9, 42, 0
1, 125280, Note_on_c, 9, 38, 127
1, 125280, Note_on_c, 9, 42, 127
1, 125399, Note_on_c, 9, 38, 0
1, 125399, Note_on_c, 9, 42, 0
1, 125400, Note_on_c, 9, 42, 127
1, 125519, Note_on_c, 9, 42, 0
1, 125520, Note_on_c, 9, 42, 127
1, 125639, Note_on_c, 9, 42, 0
1, 125640, Note_on_c, 9, 42, 127
1, 125759, Note_on_c, 9, 42, 0
1, 125760, Note_on_c, 9, 42, 127
1, 125760, Note_on_c, 9, 36, 127
1, 125999, Note_on_c, 9, 42, 0
1, 126000, Note_on_c, 9, 42, 127
1, 126239, Note_on_c, 9, 36, 0
1, 126239, Note_on_c, 9, 42, 0
1, 126240, Note_on_c, 9, 38, 127
1, 126240, Note_on_c, 9, 42, 127
1, 126359, Note_on_c, 9, 38, 0
1, 126359, Note_on_c, 9, 42, 0
1, 126360, Note_on_c, 9, 42, 127
1, 126479, Note_on_c, 9, 42, 0
1, 126480, Note_on_c, 9, 42, 127
1, 126599, Note_on_c, 9, 42, 0
1, 126600, Note_on_c, 9, 42, 127
1, 126719, Note_on_c, 9, 42, 0
1, 126720, Note_on_c, 9, 54, 78
1, 126720, Note_on_c, 9, 42, 127
1, 126720, Note_on_c, 9, 36, 127
1, 126839, Note_on_c, 9, 54, 0
1, 126839, Note_on_c, 9, 42, 0
1, 126840, Note_on_c, 9, 54, 78
1, 126840, Note_on_c, 9, 42, 127
1, 126959, Note_on_c, 9, 54, 0
1, 126959, Note_on_c, 9, 42, 0
1, 126960, Note_on_c, 9, 54, 78
1, 126960, Note_on_c, 9, 42, 127
1, 127079, Note_on_c, 9, 54, 0
1, 127079, Note_on_c, 9, 42, 0
1, 127080, Note_on_c, 9, 54, 78
1, 127080, Note_on_c, 9, 42, 127
1, 127199, Note_on_c, 9, 36, 0
1, 127199, Note_on_c, 9, 54, 0
1, 127199, Note_on_c, 9, 42, 0
1, 127200, Note_on_c, 9, 38, 127
1, 127200, Note_on_c, 9, 42, 127
1, 127319, Note_on_c, 9, 38, 0
1, 127319, Note_on_c, 9, 42, 0
1, 127320, Note_on_c, 9, 42, 127
1, 127439, Note_on_c, 9, 42, 0
1, 127440, Note_on_c, 9, 42, 127
1, 127559, Note_on_c, 9, 42, 0
1, 127560, Note_on_c, 9, 42, 127
1, 127679, Note_on_c, 9, 42, 0
1, 127680, Note_on_c, 9, 42, 127
1, 127680, Note_on_c, 9, 36, 127
1, 127919, Note_on_c, 9, 42, 0
1, 127920, Note_on_c, 9, 42, 127
1, 128159, Note_on_c, 9, 36, 0
1, 128159, Note_on_c, 9, 42, 0
1, 128160, Note_on_c, 9, 38, 127
1, 128160, Note_on_c, 9, 42, 127
1, 128279, Note_on_c, 9, 38, 0
1, 128279, Note_on_c, 9, 42, 0
1, 128280, Note_on_c, 9, 42, 127
1, 128399, Note_on_c, 9, 42, 0
1, 128400, Note_on_c, 9, 42, 127
1, 128400, Note_on_c, 9, 36, 127
1, 128519, Note_on_c, 9, 42, 0
1, 128520, Note_on_c, 9, 42, 127
1, 128639, Note_on_c, 9, 36, 0
1, 128639, Note_on_c, 9, 42, 0
1, 128640, Note_on_c, 9, 54, 78
1, 128640, Note_on_c, 9, 42, 127
1, 128640, Note_on_c, 9, 36, 127
1, 128759, Note_on_c, 9, 54, 0
1, 128759, Note_on_c, 9, 42, 0
1, 128760, Note_on_c, 9, 54, 78
1, 128760, Note_on_c, 9, 42, 127
1, 128879, Note_on_c, 9, 54, 0
1, 128879, Note_on_c, 9, 42, 0
1, 128880, Note_on_c, 9, 54, 78
1, 128880, Note_on_c, 9, 42, 127
1, 128999, Note_on_c, 9, 54, 0
1, 128999, Note_on_c, 9, 42, 0
1, 129000, Note_on_c, 9, 54, 78
1, 129000, Note_on_c, 9, 42, 127
1, 129119, Note_on_c, 9, 36, 0
1, 129119, Note_on_c, 9, 54, 0
1, 129119, Note_on_c, 9, 42, 0
1, 129120, Note_on_c, 9, 38, 127
1, 129120, Note_on_c, 9, 42, 127
1, 129239, Note_on_c, 9, 38, 0
1, 129239, Note_on_c, 9, 42, 0
1, 129240, Note_on_c, 9, 42, 127
1, 129359, Note_on_c, 9, 42, 0
1, 129360, Note_on_c, 9, 42, 127
1, 129479, Note_on_c, 9, 42, 0
1, 129480, Note_on_c, 9, 42, 127
1, 129599, Note_on_c, 9, 42, 0
1, 129600, Note_on_c, 9, 42, 127
1, 129600, Note_on_c, 9, 36, 127
1, 129839, Note_on_c, 9, 42, 0
1, 129840, Note_on_c, 9, 42, 127
1, 130079, Note_on_c, 9, 36, 0
1, 130079, Note_on_c, 9, 42, 0
1, 130080, Note_on_c, 9, 38, 127
1, 130080, Note_on_c, 9, 42, 127
1, 130199, Note_on_c, 9, 38, 0
1, 130199, Note_on_c, 9, 42, 0
1, 130200, Note_on_c, 9, 42, 127
1, 130319, Note_on_c, 9, 42, 0
1, 130320, Note_on_c, 9, 42, 127
1, 130439, Note_on_c, 9, 42, 0
1, 130440, Note_on_c, 9, 42, 127
1, 130559, Note_on_c, 9, 42, 0
1, 130560, Note_on_c, 9, 54, 78
1, 130560, Note_on_c, 9, 42, 127
1, 130560, Note_on_c, 9, 36, 127
1, 130679, Note_on_c, 9, 54, 0
1, 130679, Note_on_c, 9, 42, 0
1, 130680, Note_on_c, 9, 54, 78
1, 130680, Note_on_c, 9, 42, 127
1, 130799, Note_on_c, 9, 54, 0
1, 130799, Note_on_c, 9, 42, 0
1, 130800, Note_on_c, 9, 54, 78
1, 130800, Note_on_c, 9, 42, 127
1, 130919, Note_on_c, 9, 54, 0
1, 130919, Note_on_c, 9, 42, 0
1, 130920, Note_on_c, 9, 54, 78
1, 130920, Note_on_c, 9, 42, 127
1, 131039, Note_on_c, 9, 36, 0
1, 131039, Note_on_c, 9, 54, 0
1, 131039, Note_on_c, 9, 42, 0
1, 131040, Note_on_c, 9, 38, 127
1, 131040, Note_on_c, 9, 42, 127
1, 131159, Note_on_c, 9, 38, 0
1, 131159, Note_on_c, 9, 42, 0
1, 131160, Note_on_c, 9, 42, 127
1, 131279, Note_on_c, 9, 42, 0
1, 131280, Note_on_c, 9, 42, 127
1, 131399, Note_on_c, 9, 42, 0
1, 131400, Note_on_c, 9, 42, 127
1, 131519, Note_on_c, 9, 42, 0
1, 131520, Note_on_c, 9, 42, 127
1, 131520, Note_on_c, 9, 36, 127
1, 131759, Note_on_c, 9, 42, 0
1, 131760, Note_on_c, 9, 42, 127
1, 131999, Note_on_c, 9, 36, 0
1, 131999, Note_on_c, 9, 42, 0
1, 132000, Note_on_c, 9, 38, 127
1, 132000, Note_on_c, 9, 42, 127
1, 132119, Note_on_c, 9, 38, 0
1, 132119, Note_on_c, 9, 42, 0
1, 132120, Note_on_c, 9, 42, 127
1, 132239, Note_on_c, 9, 42, 0
1, 132240, Note_on_c, 9, 42, 127
1, 132359, Note_on_c, 9, 42, 0
1, 132360, Note_on_c, 9, 42, 127
1, 132479, Note_on_c, 9, 42, 0
1, 132480, Note_on_c, 9, 54, 78
1, 132480, Note_on_c, 9, 42, 127
1, 132480, Note_on_c, 9, 36, 127
1, 132599, Note_on_c, 9, 54, 0
1, 132599, Note_on_c, 9, 42, 0
1, 132600, Note_on_c, 9, 54, 78
1, 132600, Note_on_c, 9, 42, 127
1, 132719, Note_on_c, 9, 54, 0
1, 132719, Note_on_c, 9, 42, 0
1, 132720, Note_on_c, 9, 54, 78
1, 132720, Note_on_c, 9, 42, 127
1, 132839, Note_on_c, 9, 54, 0
1, 132839, Note_on_c, 9, 42, 0
1, 132840, Note_on_c, 9, 54, 78
1, 132840, Note_on_c, 9, 42, 127
1, 132959, Note_on_c, 9, 36, 0
1, 132959, Note_on_c, 9, 54, 0
1, 132959, Note_on_c, 9, 42, 0
1, 132960, Note_on_c, 9, 38, 127
1, 132960, Note_on_c, 9, 42, 127
1, 133079, Note_on_c, 9, 38, 0
1, 133079, Note_on_c, 9, 42, 0
1, 133080, Note_on_c, 9, 42, 127
1, 133199, Note_on_c, 9, 42, 0
1, 133200, Note_on_c, 9, 42, 127
1, 133319, Note_on_c, 9, 42, 0
1, 133320, Note_on_c, 9, 42, 127
1, 133320, Note_on_c, 9, 36, 127
1, 133439, Note_on_c, 9, 42, 0
1, 133439, Note_on_c, 9, 36, 0
1, 133440, Note_on_c, 9, 48, 127
1, 133440, Note_on_c, 9, 42, 127
1, 133679, Note_on_c, 9, 48, 0
1, 133679, Note_on_c, 9, 42, 0
1, 133680, Note_on_c, 9, 45, 127
1, 133680, Note_on_c, 9, 42, 127
1, 133919, Note_on_c, 9, 45, 0
1, 133919, Note_on_c, 9, 42, 0
1, 133920, Note_on_c, 9, 45, 127
1, 133920, Note_on_c, 9, 42, 127
1, 134039, Note_on_c, 9, 45, 0
1, 134039, Note_on_c, 9, 42, 0
1, 134040, Note_on_c, 9, 42, 127
1, 134159, Note_on_c, 9, 42, 0
1, 134160, Note_on_c, 9, 41, 127
1, 134160, Note_on_c, 9, 42, 127
1, 134279, Note_on_c, 9, 41, 0
1, 134279, Note_on_c, 9, 42, 0
1, 134280, Note_on_c, 9, 42, 127
1, 134399, Note_on_c, 9, 42, 0
1, 134400, Note_on_c, 9, 42, 127
1, 134400, Note_on_c, 9, 36, 127
1, 134519, Note_on_c, 9, 42, 0
1, 134520, Note_on_c, 9, 42, 127
1, 134639, Note_on_c, 9, 42, 0
1, 134640, Note_on_c, 9, 42, 127
1, 134759, Note_on_c, 9, 42, 0
1, 134760, Note_on_c, 9, 42, 127
1, 134879, Note_on_c, 9, 36, 0
1, 134879, Note_on_c, 9, 42, 0
1, 134880, Note_on_c, 9, 38, 127
1, 134880, Note_on_c, 9, 42, 127
1, 134999, Note_on_c, 9, 38, 0
1, 134999, Note_on_c, 9, 42, 0
1, 135000, Note_on_c, 9, 42, 127
1, 135119, Note_on_c, 9, 42, 0
1, 135120, Note_on_c, 9, 42, 127
1, 135239, Note_on_c, 9, 42, 0
1, 135240, Note_on_c, 9, 42, 127
1, 135359, Note_on_c, 9, 42, 0
1, 135360, Note_on_c, 9, 42, 127
1, 135360, Note_on_c, 9, 36, 127
1, 135479, Note_on_c, 9, 42, 0
1, 135480, Note_on_c, 9, 42, 127
1, 135599, Note_on_c, 9, 42, 0
1, 135600, Note_on_c, 9, 42, 127
1, 135719, Note_on_c, 9, 42, 0
1, 135720, Note_on_c, 9, 42, 127
1, 135839, Note_on_c, 9, 36, 0
1, 135839, Note_on_c, 9, 42, 0
1, 135840, Note_on_c, 9, 38, 127
1, 135840, Note_on_c, 9, 42, 127
1, 135959, Note_on_c, 9, 38, 0
1, 135959, Note_on_c, 9, 42, 0
1, 135960, Note_on_c, 9, 42, 127
1, 136079, Note_on_c, 9, 42, 0
1, 136080, Note_on_c, 9, 42, 127
1, 136199, Note_on_c, 9, 42, 0
1, 136200, Note_on_c, 9, 42, 127
1, 136319, Note_on_c, 9, 42, 0
1, 136320, Note_on_c, 9, 42, 127
1, 136320, Note_on_c, 9, 36, 127
1, 136439, Note_on_c, 9, 42, 0
1, 136440, Note_on_c, 9, 42, 127
1, 136559, Note_on_c, 9, 42, 0
1, 136560, Note_on_c, 9, 42, 127
1, 136679, Note_on_c, 9, 42, 0
1, 136680, Note_on_c, 9, 42, 127
1, 136799, Note_on_c, 9, 36, 0
1, 136799, Note_on_c, 9, 42, 0
1, 136800, Note_on_c, 9, 38, 127
1, 136800, Note_on_c, 9, 42, 127
1, 136919, Note_on_c, 9, 38, 0
1, 136919, Note_on_c, 9, 42, 0
1, 136920, Note_on_c, 9, 42, 127
1, 137039, Note_on_c, 9, 42, 0
1, 137040, Note_on_c, 9, 42, 127
1, 137159, Note_on_c, 9, 42, 0
1, 137160, Note_on_c, 9, 42, 127
1, 137279, Note_on_c, 9, 42, 0
1, 137280, Note_on_c, 9, 42, 127
1, 137280, Note_on_c, 9, 36, 127
1, 137399, Note_on_c, 9, 42, 0
1, 137400, Note_on_c, 9, 42, 127
1, 137519, Note_on_c, 9, 42, 0
1, 137520, Note_on_c, 9, 42, 127
1, 137639, Note_on_c, 9, 42, 0
1, 137640, Note_on_c, 9, 42, 127
1, 137759, Note_on_c, 9, 36, 0
1, 137759, Note_on_c, 9, 42, 0
1, 137760, Note_on_c, 9, 38, 127
1, 137760, Note_on_c, 9, 42, 127
1, 137879, Note_on_c, 9, 38, 0
1, 137879, Note_on_c, 9, 42, 0
1, 137880, Note_on_c, 9, 42, 127
1, 137999, Note_on_c, 9, 42, 0
1, 138000, Note_on_c, 9, 42, 127
1, 138119, Note_on_c, 9, 42, 0
1, 138120, Note_on_c, 9, 42, 127
1, 138239, Note_on_c, 9, 42, 0
1, 138240, Note_on_c, 9, 42, 127
1, 138240, Note_on_c, 9, 36, 127
1, 138359, Note_on_c, 9, 42, 0
1, 138360, Note_on_c, 9, 42, 127
1, 138479, Note_on_c, 9, 42, 0
1, 138480, Note_on_c, 9, 42, 127
1, 138599, Note_on_c, 9, 42, 0
1, 138600, Note_on_c, 9, 42, 127
1, 138719, Note_on_c, 9, 36, 0
1, 138719, Note_on_c, 9, 42, 0
1, 138720, Note_on_c, 9, 38, 127
1, 138720, Note_on_c, 9, 42, 127
1, 138839, Note_on_c, 9, 38, 0
1, 138839, Note_on_c, 9, 42, 0
1, 138840, Note_on_c, 9, 42, 127
1, 138959, Note_on_c, 9, 42, 0
1, 138960, Note_on_c, 9, 42, 127
1, 139079, Note_on_c, 9, 42, 0
1, 139080, Note_on_c, 9, 42, 127
1, 139199, Note_on_c, 9, 42, 0
1, 139200, Note_on_c, 9, 42, 127
1, 139200, Note_on_c, 9, 36, 127
1, 139319, Note_on_c, 9, 42, 0
1, 139320, Note_on_c, 9, 42, 127
1, 139439, Note_on_c, 9, 42, 0
1, 139440, Note_on_c, 9, 42, 127
1, 139559, Note_on_c, 9, 42, 0
1, 139560, Note_on_c, 9, 42, 127
1, 139679, Note_on_c, 9, 36, 0
1, 139679, Note_on_c, 9, 42, 0
1, 139680, Note_on_c, 9, 38, 127
1, 139680, Note_on_c, 9, 42, 127
1, 139799, Note_on_c, 9, 38, 0
1, 139799, Note_on_c, 9, 42, 0
1, 139800, Note_on_c, 9, 42, 127
1, 139919, Note_on_c, 9, 42, 0
1, 139920, Note_on_c, 9, 42, 127
1, 140039, Note_on_c, 9, 42, 0
1, 140040, Note_on_c, 9, 42, 127
1, 140159, Note_on_c, 9, 42, 0
1, 140160, Note_on_c, 9, 42, 127
1, 140160, Note_on_c, 9, 36, 127
1, 140279, Note_on_c, 9, 42, 0
1, 140280, Note_on_c, 9, 42, 127
1, 140399, Note_on_c, 9, 42, 0
1, 140400, Note_on_c, 9, 42, 127
1, 140519, Note_on_c, 9, 42, 0
1, 140520, Note_on_c, 9, 42, 127
1, 140639, Note_on_c, 9, 36, 0
1, 140639, Note_on_c, 9, 42, 0
1, 140640, Note_on_c, 9, 38, 127
1, 140640, Note_on_c, 9, 42, 127
1, 140759, Note_on_c, 9, 38, 0
1, 140759, Note_on_c, 9, 42, 0
1, 140760, Note_on_c, 9, 42, 127
1, 140879, Note_on_c, 9, 42, 0
1, 140880, Note_on_c, 9, 42, 127
1, 140999, Note_on_c, 9, 42, 0
1, 141000, Note_on_c, 9, 42, 127
1, 141119, Note_on_c, 9, 42, 0
1, 141120, Note_on_c, 9, 42, 127
1, 141120, Note_on_c, 9, 36, 127
1, 141239, Note_on_c, 9, 42, 0
1, 141240, Note_on_c, 9, 42, 127
1, 141359, Note_on_c, 9, 42, 0
1, 141360, Note_on_c, 9, 42, 127
1, 141479, Note_on_c, 9, 36, 0
1, 141479, Note_on_c, 9, 42, 0
1, 141480, Note_on_c, 9, 42, 127
1, 141480, Note_on_c, 9, 36, 127
1, 141599, Note_on_c, 9, 42, 0
1, 141599, Note_on_c, 9, 36, 0
1, 141600, Note_on_c, 9, 38, 127
1, 141839, Note_on_c, 9, 38, 0
1, 141840, Note_on_c, 9, 38, 127
1, 141840, Note_on_c, 9, 49, 127
1, 142079, Note_on_c, 9, 38, 0
1, 142079, Note_on_c, 9, 49, 0
1, 142080, Note_on_c, 9, 42, 127
1, 142080, Note_on_c, 9, 36, 127
1, 142199, Note_on_c, 9, 42, 0
1, 142200, Note_on_c, 9, 42, 127
1, 142319, Note_on_c, 9, 42, 0
1, 142320, Note_on_c, 9, 42, 127
1, 142439, Note_on_c, 9, 42, 0
1, 142440, Note_on_c, 9, 42, 127
1, 142559, Note_on_c, 9, 36, 0
1, 142559, Note_on_c, 9, 42, 0
1, 142560, Note_on_c, 9, 38, 127
1, 142560, Note_on_c, 9, 42, 127
1, 142679, Note_on_c, 9, 38, 0
1, 142679, Note_on_c, 9, 42, 0
1, 142680, Note_on_c, 9, 42, 127
1, 142799, Note_on_c, 9, 42, 0
1, 142800, Note_on_c, 9, 42, 127
1, 142919, Note_on_c, 9, 42, 0
1, 142920, Note_on_c, 9, 42, 127
1, 143039, Note_on_c, 9, 42, 0
1, 143040, Note_on_c, 9, 42, 127
1, 143040, Note_on_c, 9, 36, 127
1, 143159, Note_on_c, 9, 42, 0
1, 143160, Note_on_c, 9, 42, 127
1, 143279, Note_on_c, 9, 42, 0
1, 143280, Note_on_c, 9, 42, 127
1, 143399, Note_on_c, 9, 42, 0
1, 143400, Note_on_c, 9, 42, 127
1, 143519, Note_on_c, 9, 36, 0
1, 143519, Note_on_c, 9, 42, 0
1, 143520, Note_on_c, 9, 38, 127
1, 143520, Note_on_c, 9, 42, 127
1, 143639, Note_on_c, 9, 38, 0
1, 143639, Note_on_c, 9, 42, 0
1, 143640, Note_on_c, 9, 42, 127
1, 143759, Note_on_c, 9, 42, 0
1, 143760, Note_on_c, 9, 42, 127
1, 143879, Note_on_c, 9, 42, 0
1, 143880, Note_on_c, 9, 42, 127
1, 143999, Note_on_c, 9, 42, 0
1, 144000, Note_on_c, 9, 42, 127
1, 144000, Note_on_c, 9, 36, 127
1, 144119, Note_on_c, 9, 42, 0
1, 144120, Note_on_c, 9, 42, 127
1, 144239, Note_on_c, 9, 42, 0
1, 144240, Note_on_c, 9, 42, 127
1, 144359, Note_on_c, 9, 42, 0
1, 144360, Note_on_c, 9, 42, 127
1, 144479, Note_on_c, 9, 36, 0
1, 144479, Note_on_c, 9, 42, 0
1, 144480, Note_on_c, 9, 38, 127
1, 144480, Note_on_c, 9, 42, 127
1, 144599, Note_on_c, 9, 38, 0
1, 144599, Note_on_c, 9, 42, 0
1, 144600, Note_on_c, 9, 42, 127
1, 144719, Note_on_c, 9, 42, 0
1, 144720, Note_on_c, 9, 42, 127
1, 144839, Note_on_c, 9, 42, 0
1, 144840, Note_on_c, 9, 42, 127
1, 144959, Note_on_c, 9, 42, 0
1, 144960, Note_on_c, 9, 42, 127
1, 144960, Note_on_c, 9, 36, 127
1, 145079, Note_on_c, 9, 42, 0
1, 145080, Note_on_c, 9, 42, 127
1, 145199, Note_on_c, 9, 42, 0
1, 145200, Note_on_c, 9, 42, 127
1, 145319, Note_on_c, 9, 42, 0
1, 145320, Note_on_c, 9, 42, 127
1, 145439, Note_on_c, 9, 36, 0
1, 145439, Note_on_c, 9, 42, 0
1, 145440, Note_on_c, 9, 38, 127
1, 145440, Note_on_c, 9, 42, 127
1, 145559, Note_on_c, 9, 38, 0
1, 145559, Note_on_c, 9, 42, 0
1, 145560, Note_on_c, 9, 42, 127
1, 145679, Note_on_c, 9, 42, 0
1, 145680, Note_on_c, 9, 42, 127
1, 145799, Note_on_c, 9, 42, 0
1, 145800, Note_on_c, 9, 42, 127
1, 145919, Note_on_c, 9, 42, 0
1, 145920, Note_on_c, 9, 42, 127
1, 145920, Note_on_c, 9, 36, 127
1, 146039, Note_on_c, 9, 42, 0
1, 146040, Note_on_c, 9, 42, 127
1, 146159, Note_on_c, 9, 42, 0
1, 146160, Note_on_c, 9, 42, 127
1, 146279, Note_on_c, 9, 42, 0
1, 146280, Note_on_c, 9, 42, 127
1, 146399, Note_on_c, 9, 36, 0
1, 146399, Note_on_c, 9, 42, 0
1, 146400, Note_on_c, 9, 38, 127
1, 146400, Note_on_c, 9, 42, 127
1, 146519, Note_on_c, 9, 38, 0
1, 146519, Note_on_c, 9, 42, 0
1, 146520, Note_on_c, 9, 42, 127
1, 146639, Note_on_c, 9, 42, 0
1, 146640, Note_on_c, 9, 42, 127
1, 146759, Note_on_c, 9, 42, 0
1, 146760, Note_on_c, 9, 42, 127
1, 146879, Note_on_c, 9, 42, 0
1, 146880, Note_on_c, 9, 42, 127
1, 146880, Note_on_c, 9, 36, 127
1, 146999, Note_on_c, 9, 42, 0
1, 147000, Note_on_c, 9, 42, 127
1, 147119, Note_on_c, 9, 42, 0
1, 147120, Note_on_c, 9, 42, 127
1, 147239, Note_on_c, 9, 42, 0
1, 147240, Note_on_c, 9, 42, 127
1, 147359, Note_on_c, 9, 36, 0
1, 147359, Note_on_c, 9, 42, 0
1, 147360, Note_on_c, 9, 38, 127
1, 147360, Note_on_c, 9, 42, 127
1, 147479, Note_on_c, 9, 38, 0
1, 147479, Note_on_c, 9, 42, 0
1, 147480, Note_on_c, 9, 42, 127
1, 147599, Note_on_c, 9, 42, 0
1, 147600, Note_on_c, 9, 42, 127
1, 147719, Note_on_c, 9, 42, 0
1, 147720, Note_on_c, 9, 42, 127
1, 147839, Note_on_c, 9, 42, 0
1, 147840, Note_on_c, 9, 42, 127
1, 147840, Note_on_c, 9, 36, 127
1, 147959, Note_on_c, 9, 42, 0
1, 147960, Note_on_c, 9, 42, 127
1, 148079, Note_on_c, 9, 42, 0
1, 148080, Note_on_c, 9, 42, 127
1, 148199, Note_on_c, 9, 42, 0
1, 148200, Note_on_c, 9, 42, 127
1, 148319, Note_on_c, 9, 36, 0
1, 148319, Note_on_c, 9, 42, 0
1, 148320, Note_on_c, 9, 38, 127
1, 148320, Note_on_c, 9, 42, 127
1, 148439, Note_on_c, 9, 38, 0
1, 148439, Note_on_c, 9, 42, 0
1, 148440, Note_on_c, 9, 42, 127
1, 148559, Note_on_c, 9, 42, 0
1, 148560, Note_on_c, 9, 42, 127
1, 148560, Note_on_c, 9, 36, 127
1, 148679, Note_on_c, 9, 42, 0
1, 148680, Note_on_c, 9, 42, 127
1, 148799, Note_on_c, 9, 36, 0
1, 148799, Note_on_c, 9, 42, 0
1, 148800, Note_on_c, 9, 38, 127
1, 148919, Note_on_c, 9, 38, 0
1, 148920, Note_on_c, 9, 38, 127
1, 149159, Note_on_c, 9, 38, 0
1, 149160, Note_on_c, 9, 49, 127
1, 149160, Note_on_c, 9, 36, 127
1, 149279, Note_on_c, 9, 49, 0
1, 149279, Note_on_c, 9, 36, 0
1, 149520, Note_on_c, 9, 49, 127
1, 149520, Note_on_c, 9, 36, 127
1, 149759, Note_on_c, 9, 49, 0
1, 149759, Note_on_c, 9, 36, 0
1, 149760, Note_on_c, 9, 42, 127
1, 149760, Note_on_c, 9, 36, 127
1, 149879, Note_on_c, 9, 42, 0
1, 149880, Note_on_c, 9, 42, 127
1, 149999, Note_on_c, 9, 42, 0
1, 150000, Note_on_c, 9, 42, 127
1, 150119, Note_on_c, 9, 42, 0
1, 150120, Note_on_c, 9, 42, 127
1, 150239, Note_on_c, 9, 36, 0
1, 150239, Note_on_c, 9, 42, 0
1, 150240, Note_on_c, 9, 38, 127
1, 150240, Note_on_c, 9, 42, 127
1, 150359, Note_on_c, 9, 38, 0
1, 150359, Note_on_c, 9, 42, 0
1, 150360, Note_on_c, 9, 42, 127
1, 150479, Note_on_c, 9, 42, 0
1, 150480, Note_on_c, 9, 42, 127
1, 150599, Note_on_c, 9, 42, 0
1, 150600, Note_on_c, 9, 42, 127
1, 150719, Note_on_c, 9, 42, 0
1, 150720, Note_on_c, 9, 42, 127
1, 150720, Note_on_c, 9, 36, 127
1, 150839, Note_on_c, 9, 42, 0
1, 150840, Note_on_c, 9, 42, 127
1, 150959, Note_on_c, 9, 42, 0
1, 150960, Note_on_c, 9, 42, 127
1, 151079, Note_on_c, 9, 42, 0
1, 151080, Note_on_c, 9, 42, 127
1, 151199, Note_on_c, 9, 36, 0
1, 151199, Note_on_c, 9, 42, 0
1, 151200, Note_on_c, 9, 38, 127
1, 151200, Note_on_c, 9, 42, 127
1, 151319, Note_on_c, 9, 38, 0
1, 151319, Note_on_c, 9, 42, 0
1, 151320, Note_on_c, 9, 42, 127
1, 151439, Note_on_c, 9, 42, 0
1, 151440, Note_on_c, 9, 42, 127
1, 151559, Note_on_c, 9, 42, 0
1, 151560, Note_on_c, 9, 42, 127
1, 151679, Note_on_c, 9, 42, 0
1, 151680, Note_on_c, 9, 42, 127
1, 151680, Note_on_c, 9, 36, 127
1, 151799, Note_on_c, 9, 42, 0
1, 151800, Note_on_c, 9, 42, 127
1, 151919, Note_on_c, 9, 42, 0
1, 151920, Note_on_c, 9, 42, 127
1, 152039, Note_on_c, 9, 42, 0
1, 152040, Note_on_c, 9, 42, 127
1, 152159, Note_on_c, 9, 36, 0
1, 152159, Note_on_c, 9, 42, 0
1, 152160, Note_on_c, 9, 38, 127
1, 152160, Note_on_c, 9, 42, 127
1, 152279, Note_on_c, 9, 38, 0
1, 152279, Note_on_c, 9, 42, 0
1, 152280, Note_on_c, 9, 42, 127
1, 152399, Note_on_c, 9, 42, 0
1, 152400, Note_on_c, 9, 42, 127
1, 152519, Note_on_c, 9, 42, 0
1, 152520, Note_on_c, 9, 42, 127
1, 152639, Note_on_c, 9, 42, 0
1, 152640, Note_on_c, 9, 42, 127
1, 152640, Note_on_c, 9, 36, 127
1, 152759, Note_on_c, 9, 42, 0
1, 152760, Note_on_c, 9, 42, 127
1, 152879, Note_on_c, 9, 42, 0
1, 152880, Note_on_c, 9, 42, 127
1, 152999, Note_on_c, 9, 42, 0
1, 153000, Note_on_c, 9, 42, 127
1, 153119, Note_on_c, 9, 36, 0
1, 153119, Note_on_c, 9, 42, 0
1, 153120, Note_on_c, 9, 38, 127
1, 153120, Note_on_c, 9, 42, 127
1, 153239, Note_on_c, 9, 38, 0
1, 153239, Note_on_c, 9, 42, 0
1, 153240, Note_on_c, 9, 42, 127
1, 153359, Note_on_c, 9, 42, 0
1, 153360, Note_on_c, 9, 42, 127
1, 153479, Note_on_c, 9, 42, 0
1, 153480, Note_on_c, 9, 42, 127
1, 153599, Note_on_c, 9, 42, 0
1, 153600, Note_on_c, 9, 42, 127
1, 153600, Note_on_c, 9, 36, 127
1, 153719, Note_on_c, 9, 42, 0
1, 153720, Note_on_c, 9, 42, 127
1, 153839, Note_on_c, 9, 42, 0
1, 153840, Note_on_c, 9, 42, 127
1, 153959, Note_on_c, 9, 42, 0
1, 153960, Note_on_c, 9, 42, 127
1, 154079, Note_on_c, 9, 36, 0
1, 154079, Note_on_c, 9, 42, 0
1, 154080, Note_on_c, 9, 38, 127
1, 154080, Note_on_c, 9, 42, 127
1, 154199, Note_on_c, 9, 38, 0
1, 154199, Note_on_c, 9, 42, 0
1, 154200, Note_on_c, 9, 42, 127
1, 154319, Note_on_c, 9, 42, 0
1, 154320, Note_on_c, 9, 42, 127
1, 154439, Note_on_c, 9, 42, 0
1, 154440, Note_on_c, 9, 42, 127
1, 154559, Note_on_c, 9, 42, 0
1, 154560, Note_on_c, 9, 42, 127
1, 154560, Note_on_c, 9, 36, 127
1, 154679, Note_on_c, 9, 42, 0
1, 154680, Note_on_c, 9, 42, 127
1, 154799, Note_on_c, 9, 42, 0
1, 154800, Note_on_c, 9, 42, 127
1, 154919, Note_on_c, 9, 42, 0
1, 154920, Note_on_c, 9, 42, 127
1, 155039, Note_on_c, 9, 36, 0
1, 155039, Note_on_c, 9, 42, 0
1, 155040, Note_on_c, 9, 38, 127
1, 155040, Note_on_c, 9, 42, 127
1, 155159, Note_on_c, 9, 38, 0
1, 155159, Note_on_c, 9, 42, 0
1, 155160, Note_on_c, 9, 42, 127
1, 155279, Note_on_c, 9, 42, 0
1, 155280, Note_on_c, 9, 42, 127
1, 155399, Note_on_c, 9, 42, 0
1, 155400, Note_on_c, 9, 42, 127
1, 155519, Note_on_c, 9, 42, 0
1, 155520, Note_on_c, 9, 42, 127
1, 155520, Note_on_c, 9, 36, 127
1, 155639, Note_on_c, 9, 42, 0
1, 155640, Note_on_c, 9, 42, 127
1, 155759, Note_on_c, 9, 42, 0
1, 155760, Note_on_c, 9, 42, 127
1, 155879, Note_on_c, 9, 42, 0
1, 155880, Note_on_c, 9, 42, 127
1, 155999, Note_on_c, 9, 36, 0
1, 155999, Note_on_c, 9, 42, 0
1, 156000, Note_on_c, 9, 38, 127
1, 156000, Note_on_c, 9, 42, 127
1, 156119, Note_on_c, 9, 38, 0
1, 156119, Note_on_c, 9, 42, 0
1, 156120, Note_on_c, 9, 42, 127
1, 156239, Note_on_c, 9, 42, 0
1, 156240, Note_on_c, 9, 42, 127
1, 156359, Note_on_c, 9, 42, 0
1, 156360, Note_on_c, 9, 42, 127
1, 156479, Note_on_c, 9, 42, 0
1, 156480, Note_on_c, 9, 42, 127
1, 156480, Note_on_c, 9, 36, 127
1, 156599, Note_on_c, 9, 42, 0
1, 156600, Note_on_c, 9, 42, 127
1, 156719, Note_on_c, 9, 42, 0
1, 156720, Note_on_c, 9, 42, 127
1, 156839, Note_on_c, 9, 42, 0
1, 156840, Note_on_c, 9, 42, 127
1, 156959, Note_on_c, 9, 36, 0
1, 156959, Note_on_c, 9, 42, 0
1, 156960, Note_on_c, 9, 38, 127
1, 156960, Note_on_c, 9, 42, 127
1, 157079, Note_on_c, 9, 38, 0
1, 157079, Note_on_c, 9, 42, 0
1, 157080, Note_on_c, 9, 42, 127
1, 157199, Note_on_c, 9, 42, 0
1, 157200, Note_on_c, 9, 42, 127
1, 157319, Note_on_c, 9, 42, 0
1, 157320, Note_on_c, 9, 42, 127
1, 157439, Note_on_c, 9, 42, 0
1, 157440, Note_on_c, 9, 42, 127
1, 157440, Note_on_c, 9, 36, 127
1, 157559, Note_on_c, 9, 42, 0
1, 157560, Note_on_c, 9, 42, 127
1, 157679, Note_on_c, 9, 42, 0
1, 157680, Note_on_c, 9, 42, 127
1, 157799, Note_on_c, 9, 42, 0
1, 157800, Note_on_c, 9, 42, 127
1, 157919, Note_on_c, 9, 36, 0
1, 157919, Note_on_c, 9, 42, 0
1, 157920, Note_on_c, 9, 38, 127
1, 157920, Note_on_c, 9, 42, 127
1, 158039, Note_on_c, 9, 38, 0
1, 158039, Note_on_c, 9, 42, 0
1, 158040, Note_on_c, 9, 42, 127
1, 158159, Note_on_c, 9, 42, 0
1, 158160, Note_on_c, 9, 42, 127
1, 158279, Note_on_c, 9, 42, 0
1, 158280, Note_on_c, 9, 42, 127
1, 158399, Note_on_c, 9, 42, 0
1, 158400, Note_on_c, 9, 42, 127
1, 158400, Note_on_c, 9, 36, 127
1, 158519, Note_on_c, 9, 42, 0
1, 158520, Note_on_c, 9, 42, 127
1, 158639, Note_on_c, 9, 42, 0
1, 158640, Note_on_c, 9, 42, 127
1, 158759, Note_on_c, 9, 42, 0
1, 158760, Note_on_c, 9, 42, 127
1, 158879, Note_on_c, 9, 36, 0
1, 158879, Note_on_c, 9, 42, 0
1, 158880, Note_on_c, 9, 38, 127
1, 158880, Note_on_c, 9, 42, 127
1, 158999, Note_on_c, 9, 38, 0
1, 158999, Note_on_c, 9, 42, 0
1, 159000, Note_on_c, 9, 42, 127
1, 159119, Note_on_c, 9, 42, 0
1, 159120, Note_on_c, 9, 42, 127
1, 159239, Note_on_c, 9, 42, 0
1, 159240, Note_on_c, 9, 42, 127
1, 159359, Note_on_c, 9, 42, 0
1, 159360, Note_on_c, 9, 42, 127
1, 159360, Note_on_c, 9, 36, 127
1, 159479, Note_on_c, 9, 42, 0
1, 159480, Note_on_c, 9, 42, 127
1, 159599, Note_on_c, 9, 42, 0
1, 159600, Note_on_c, 9, 42, 127
1, 159719, Note_on_c, 9, 42, 0
1, 159720, Note_on_c, 9, 42, 127
1, 159839, Note_on_c, 9, 36, 0
1, 159839, Note_on_c, 9, 42, 0
1, 159840, Note_on_c, 9, 38, 127
1, 159840, Note_on_c, 9, 42, 127
1, 159959, Note_on_c, 9, 38, 0
1, 159959, Note_on_c, 9, 42, 0
1, 159960, Note_on_c, 9, 42, 127
1, 160079, Note_on_c, 9, 42, 0
1, 160080, Note_on_c, 9, 42, 127
1, 160199, Note_on_c, 9, 42, 0
1, 160200, Note_on_c, 9, 42, 127
1, 160319, Note_on_c, 9, 42, 0
1, 160320, Note_on_c, 9, 42, 127
1, 160320, Note_on_c, 9, 36, 127
1, 160439, Note_on_c, 9, 42, 0
1, 160440, Note_on_c, 9, 42, 127
1, 160559, Note_on_c, 9, 42, 0
1, 160560, Note_on_c, 9, 42, 127
1, 160679, Note_on_c, 9, 36, 0
1, 160679, Note_on_c, 9, 42, 0
1, 160680, Note_on_c, 9, 42, 127
1, 160680, Note_on_c, 9, 36, 127
1, 160799, Note_on_c, 9, 42, 0
1, 160799, Note_on_c, 9, 36, 0
1, 160800, Note_on_c, 9, 38, 127
1, 161039, Note_on_c, 9, 38, 0
1, 161040, Note_on_c, 9, 38, 127
1, 161279, Note_on_c, 9, 38, 0
1, 161280, Note_on_c, 9, 49, 127
1, 161280, Note_on_c, 9, 36, 127
1, 161759, Note_on_c, 9, 49, 0
1, 161759, Note_on_c, 9, 36, 0
1, 161760, Note_on_c, 9, 38, 127
1, 161760, Note_on_c, 9, 42, 127
1, 161879, Note_on_c, 9, 38, 0
1, 161879, Note_on_c, 9, 42, 0
1, 161880, Note_on_c, 9, 42, 127
1, 161999, Note_on_c, 9, 42, 0
1, 162000, Note_on_c, 9, 42, 127
1, 162119, Note_on_c, 9, 42, 0
1, 162120, Note_on_c, 9, 42, 127
1, 162239, Note_on_c, 9, 42, 0
1, 162240, Note_on_c, 9, 42, 127
1, 162240, Note_on_c, 9, 36, 127
1, 162359, Note_on_c, 9, 42, 0
1, 162360, Note_on_c, 9, 42, 127
1, 162479, Note_on_c, 9, 42, 0
1, 162480, Note_on_c, 9, 42, 127
1, 162599, Note_on_c, 9, 42, 0
1, 162600, Note_on_c, 9, 42, 127
1, 162719, Note_on_c, 9, 36, 0
1, 162719, Note_on_c, 9, 42, 0
1, 162720, Note_on_c, 9, 38, 127
1, 162720, Note_on_c, 9, 42, 127
1, 162839, Note_on_c, 9, 38, 0
1, 162839, Note_on_c, 9, 42, 0
1, 162840, Note_on_c, 9, 42, 127
1, 162959, Note_on_c, 9, 42, 0
1, 162960, Note_on_c, 9, 42, 127
1, 163079, Note_on_c, 9, 42, 0
1, 163080, Note_on_c, 9, 42, 127
1, 163199, Note_on_c, 9, 42, 0
1, 163200, Note_on_c, 9, 42, 127
1, 163200, Note_on_c, 9, 36, 127
1, 163319, Note_on_c, 9, 42, 0
1, 163320, Note_on_c, 9, 42, 127
1, 163439, Note_on_c, 9, 42, 0
1, 163440, Note_on_c, 9, 42, 127
1, 163559, Note_on_c, 9, 42, 0
1, 163560, Note_on_c, 9, 42, 127
1, 163679, Note_on_c, 9, 36, 0
1, 163679, Note_on_c, 9, 42, 0
1, 163680, Note_on_c, 9, 38, 127
1, 163680, Note_on_c, 9, 42, 127
1, 163799, Note_on_c, 9, 38, 0
1, 163799, Note_on_c, 9, 42, 0
1, 163800, Note_on_c, 9, 42, 127
1, 163919, Note_on_c, 9, 42, 0
1, 163920, Note_on_c, 9, 42, 127
1, 164039, Note_on_c, 9, 42, 0
1, 164040, Note_on_c, 9, 42, 127
1, 164159, Note_on_c, 9, 42, 0
1, 164160, Note_on_c, 9, 42, 127
1, 164160, Note_on_c, 9, 36, 127
1, 164279, Note_on_c, 9, 42, 0
1, 164280, Note_on_c, 9, 42, 127
1, 164399, Note_on_c, 9, 42, 0
1, 164400, Note_on_c, 9, 42, 127
1, 164519, Note_on_c, 9, 42, 0
1, 164520, Note_on_c, 9, 42, 127
1, 164639, Note_on_c, 9, 36, 0
1, 164639, Note_on_c, 9, 42, 0
1, 164640, Note_on_c, 9, 38, 127
1, 164640, Note_on_c, 9, 42, 127
1, 164759, Note_on_c, 9, 38, 0
1, 164759, Note_on_c, 9, 42, 0
1, 164760, Note_on_c, 9, 42, 127
1, 164879, Note_on_c, 9, 42, 0
1, 164880, Note_on_c, 9, 42, 127
1, 164999, Note_on_c, 9, 42, 0
1, 165000, Note_on_c, 9, 42, 127
1, 165119, Note_on_c, 9, 42, 0
1, 165120, Note_on_c, 9, 49, 127
1, 165120, Note_on_c, 9, 36, 127
1, 165239, Note_on_c, 9, 49, 0
1, 165240, Note_on_c, 9, 42, 127
1, 165359, Note_on_c, 9, 42, 0
1, 165360, Note_on_c, 9, 42, 127
1, 165479, Note_on_c, 9, 42, 0
1, 165480, Note_on_c, 9, 42, 127
1, 165599, Note_on_c, 9, 36, 0
1, 165599, Note_on_c, 9, 42, 0
1, 165600, Note_on_c, 9, 38, 127
1, 165600, Note_on_c, 9, 42, 127
1, 165600, Note_on_c, 9, 36, 127
1, 165719, Note_on_c, 9, 38, 0
1, 165719, Note_on_c, 9, 42, 0
1, 165720, Note_on_c, 9, 42, 127
1, 165839, Note_on_c, 9, 42, 0
1, 165840, Note_on_c, 9, 42, 127
1, 165959, Note_on_c, 9, 42, 0
1, 165960, Note_on_c, 9, 42, 127
1, 166079, Note_on_c, 9, 36, 0
1, 166079, Note_on_c, 9, 42, 0
1, 166080, Note_on_c, 9, 42, 127
1, 166080, Note_on_c, 9, 36, 127
1, 166319, Note_on_c, 9, 42, 0
1, 166320, Note_on_c, 9, 42, 127
1, 166559, Note_on_c, 9, 36, 0
1, 166559, Note_on_c, 9, 42, 0
1, 166560, Note_on_c, 9, 38, 127
1, 166560, Note_on_c, 9, 42, 127
1, 166560, Note_on_c, 9, 36, 127
1, 166679, Note_on_c, 9, 38, 0
1, 166679, Note_on_c, 9, 42, 0
1, 166680, Note_on_c, 9, 42, 127
1, 166799, Note_on_c, 9, 42, 0
1, 166800, Note_on_c, 9, 42, 127
1, 166919, Note_on_c, 9, 42, 0
1, 166920, Note_on_c, 9, 42, 127
1, 167039, Note_on_c, 9, 36, 0
1, 167039, Note_on_c, 9, 42, 0
1, 167040, Note_on_c, 9, 54, 78
1, 167040, Note_on_c, 9, 42, 127
1, 167040, Note_on_c, 9, 36, 127
1, 167159, Note_on_c, 9, 54, 0
1, 167159, Note_on_c, 9, 42, 0
1, 167160, Note_on_c, 9, 54, 78
1, 167160, Note_on_c, 9, 42, 127
1, 167279, Note_on_c, 9, 54, 0
1, 167279, Note_on_c, 9, 42, 0
1, 167280, Note_on_c, 9, 54, 78
1, 167280, Note_on_c, 9, 42, 127
1, 167399, Note_on_c, 9, 54, 0
1, 167399, Note_on_c, 9, 42, 0
1, 167400, Note_on_c, 9, 54, 78
1, 167400, Note_on_c, 9, 42, 127
1, 167519, Note_on_c, 9, 36, 0
1, 167519, Note_on_c, 9, 54, 0
1, 167519, Note_on_c, 9, 42, 0
1, 167520, Note_on_c, 9, 38, 127
1, 167520, Note_on_c, 9, 42, 127
1, 167520, Note_on_c, 9, 36, 127
1, 167639, Note_on_c, 9, 38, 0
1, 167639, Note_on_c, 9, 42, 0
1, 167640, Note_on_c, 9, 42, 127
1, 167759, Note_on_c, 9, 42, 0
1, 167760, Note_on_c, 9, 42, 127
1, 167879, Note_on_c, 9, 42, 0
1, 167880, Note_on_c, 9, 42, 127
1, 167999, Note_on_c, 9, 36, 0
1, 167999, Note_on_c, 9, 42, 0
1, 168000, Note_on_c, 9, 42, 127
1, 168000, Note_on_c, 9, 36, 127
1, 168239, Note_on_c, 9, 42, 0
1, 168240, Note_on_c, 9, 42, 127
1, 168479, Note_on_c, 9, 36, 0
1, 168479, Note_on_c, 9, 42, 0
1, 168480, Note_on_c, 9, 38, 127
1, 168480, Note_on_c, 9, 42, 127
1, 168480, Note_on_c, 9, 36, 127
1, 168599, Note_on_c, 9, 38, 0
1, 168599, Note_on_c, 9, 42, 0
1, 168600, Note_on_c, 9, 42, 127
1, 168719, Note_on_c, 9, 42, 0
1, 168720, Note_on_c, 9, 42, 127
1, 168839, Note_on_c, 9, 42, 0
1, 168840, Note_on_c, 9, 42, 127
1, 168959, Note_on_c, 9, 36, 0
1, 168959, Note_on_c, 9, 42, 0
1, 168960, Note_on_c, 9, 54, 78
1, 168960, Note_on_c, 9, 42, 127
1, 168960, Note_on_c, 9, 36, 127
1, 169079, Note_on_c, 9, 54, 0
1, 169079, Note_on_c, 9, 42, 0
1, 169080, Note_on_c, 9, 54, 78
1, 169080, Note_on_c, 9, 42, 127
1, 169199, Note_on_c, 9, 54, 0
1, 169199, Note_on_c, 9, 42, 0
1, 169200, Note_on_c, 9, 54, 78
1, 169200, Note_on_c, 9, 42, 127
1, 169319, Note_on_c, 9, 54, 0
1, 169319, Note_on_c, 9, 42, 0
1, 169320, Note_on_c, 9, 54, 78
1, 169320, Note_on_c, 9, 42, 127
1, 169439, Note_on_c, 9, 36, 0
1, 169439, Note_on_c, 9, 54, 0
1, 169439, Note_on_c, 9, 42, 0
1, 169440, Note_on_c, 9, 38, 127
1, 169440, Note_on_c, 9, 42, 127
1, 169440, Note_on_c, 9, 36, 127
1, 169559, Note_on_c, 9, 38, 0
1, 169559, Note_on_c, 9, 42, 0
1, 169560, Note_on_c, 9, 42, 127
1, 169679, Note_on_c, 9, 42, 0
1, 169680, Note_on_c, 9, 42, 127
1, 169799, Note_on_c, 9, 42, 0
1, 169800, Note_on_c, 9, 42, 127
1, 169919, Note_on_c, 9, 36, 0
1, 169919, Note_on_c, 9, 42, 0
1, 169920, Note_on_c, 9, 42, 127
1, 169920, Note_on_c, 9, 36, 127
1, 170159, Note_on_c, 9, 42, 0
1, 170160, Note_on_c, 9, 42, 127
1, 170399, Note_on_c, 9, 36, 0
1, 170399, Note_on_c, 9, 42, 0
1, 170400, Note_on_c, 9, 38, 127
1, 170400, Note_on_c, 9, 42, 127
1, 170400, Note_on_c, 9, 36, 127
1, 170519, Note_on_c, 9, 38, 0
1, 170519, Note_on_c, 9, 42, 0
1, 170520, Note_on_c, 9, 42, 127
1, 170639, Note_on_c, 9, 42, 0
1, 170640, Note_on_c, 9, 42, 127
1, 170759, Note_on_c, 9, 42, 0
1, 170760, Note_on_c, 9, 42, 127
1, 170879, Note_on_c, 9, 36, 0
1, 170879, Note_on_c, 9, 42, 0
1, 170880, Note_on_c, 9, 54, 78
1, 170880, Note_on_c, 9, 42, 127
1, 170880, Note_on_c, 9, 36, 127
1, 170999, Note_on_c, 9, 54, 0
1, 170999, Note_on_c, 9, 42, 0
1, 171000, Note_on_c, 9, 54, 78
1, 171000, Note_on_c, 9, 42, 127
1, 171119, Note_on_c, 9, 54, 0
1, 171119, Note_on_c, 9, 42, 0
1, 171120, Note_on_c, 9, 54, 78
1, 171120, Note_on_c, 9, 42, 127
1, 171239, Note_on_c, 9, 54, 0
1, 171239, Note_on_c, 9, 42, 0
1, 171240, Note_on_c, 9, 54, 78
1, 171240, Note_on_c, 9, 42, 127
1, 171359, Note_on_c, 9, 36, 0
1, 171359, Note_on_c, 9, 54, 0
1, 171359, Note_on_c, 9, 42, 0
1, 171360, Note_on_c, 9, 38, 127
1, 171360, Note_on_c, 9, 42, 127
1, 171360, Note_on_c, 9, 36, 127
1, 171479, Note_on_c, 9, 38, 0
1, 171479, Note_on_c, 9, 42, 0
1, 171480, Note_on_c, 9, 42, 127
1, 171599, Note_on_c, 9, 42, 0
1, 171600, Note_on_c, 9, 42, 127
1, 171719, Note_on_c, 9, 42, 0
1, 171720, Note_on_c, 9, 42, 127
1, 171839, Note_on_c, 9, 36, 0
1, 171839, Note_on_c, 9, 42, 0
1, 171840, Note_on_c, 9, 42, 127
1, 171840, Note_on_c, 9, 36, 127
1, 172079, Note_on_c, 9, 42, 0
1, 172080, Note_on_c, 9, 42, 127
1, 172199, Note_on_c, 9, 36, 0
1, 172200, Note_on_c, 9, 36, 120
1, 172319, Note_on_c, 9, 42, 0
1, 172319, Note_on_c, 9, 36, 0
1, 172320, Note_on_c, 9, 38, 127
1, 172320, Note_on_c, 9, 49, 92
1, 172559, Note_on_c, 9, 38, 0
1, 172559, Note_on_c, 9, 49, 0
1, 172560, Note_on_c, 9, 38, 120
1, 172799, Note_on_c, 9, 38, 0
1, 172800, Note_on_c, 9, 54, 78
1, 172800, Note_on_c, 9, 42, 127
1, 172800, Note_on_c, 9, 49, 127
1, 172800, Note_on_c, 9, 36, 127
1, 172919, Note_on_c, 9, 54, 0
1, 172919, Note_on_c, 9, 42, 0
1, 172919, Note_on_c, 9, 49, 0
1, 172920, Note_on_c, 9, 54, 78
1, 172920, Note_on_c, 9, 42, 127
1, 173039, Note_on_c, 9, 54, 0
1, 173039, Note_on_c, 9, 42, 0
1, 173040, Note_on_c, 9, 54, 78
1, 173040, Note_on_c, 9, 42, 127
1, 173159, Note_on_c, 9, 54, 0
1, 173159, Note_on_c, 9, 42, 0
1, 173160, Note_on_c, 9, 54, 78
1, 173160, Note_on_c, 9, 42, 127
1, 173279, Note_on_c, 9, 36, 0
1, 173279, Note_on_c, 9, 54, 0
1, 173279, Note_on_c, 9, 42, 0
1, 173280, Note_on_c, 9, 38, 127
1, 173280, Note_on_c, 9, 42, 127
1, 173399, Note_on_c, 9, 38, 0
1, 173399, Note_on_c, 9, 42, 0
1, 173400, Note_on_c, 9, 42, 127
1, 173519, Note_on_c, 9, 42, 0
1, 173520, Note_on_c, 9, 42, 127
1, 173639, Note_on_c, 9, 42, 0
1, 173640, Note_on_c, 9, 42, 127
1, 173759, Note_on_c, 9, 42, 0
1, 173760, Note_on_c, 9, 42, 127
1, 173760, Note_on_c, 9, 36, 127
1, 173999, Note_on_c, 9, 42, 0
1, 174000, Note_on_c, 9, 42, 127
1, 174239, Note_on_c, 9, 36, 0
1, 174239, Note_on_c, 9, 42, 0
1, 174240, Note_on_c, 9, 38, 127
1, 174240, Note_on_c, 9, 42, 127
1, 174359, Note_on_c, 9, 38, 0
1, 174359, Note_on_c, 9, 42, 0
1, 174360, Note_on_c, 9, 42, 127
1, 174479, Note_on_c, 9, 42, 0
1, 174480, Note_on_c, 9, 42, 127
1, 174480, Note_on_c, 9, 36, 127
1, 174599, Note_on_c, 9, 42, 0
1, 174600, Note_on_c, 9, 42, 127
1, 174719, Note_on_c, 9, 36, 0
1, 174719, Note_on_c, 9, 42, 0
1, 174720, Note_on_c, 9, 54, 78
1, 174720, Note_on_c, 9, 42, 127
1, 174720, Note_on_c, 9, 36, 127
1, 174839, Note_on_c, 9, 54, 0
1, 174839, Note_on_c, 9, 42, 0
1, 174840, Note_on_c, 9, 54, 78
1, 174840, Note_on_c, 9, 42, 127
1, 174959, Note_on_c, 9, 54, 0
1, 174959, Note_on_c, 9, 42, 0
1, 174960, Note_on_c, 9, 54, 78
1, 174960, Note_on_c, 9, 42, 127
1, 175079, Note_on_c, 9, 54, 0
1, 175079, Note_on_c, 9, 42, 0
1, 175080, Note_on_c, 9, 54, 78
1, 175080, Note_on_c, 9, 42, 127
1, 175199, Note_on_c, 9, 36, 0
1, 175199, Note_on_c, 9, 54, 0
1, 175199, Note_on_c, 9, 42, 0
1, 175200, Note_on_c, 9, 38, 127
1, 175200, Note_on_c, 9, 42, 127
1, 175319, Note_on_c, 9, 38, 0
1, 175319, Note_on_c, 9, 42, 0
1, 175320, Note_on_c, 9, 42, 127
1, 175439, Note_on_c, 9, 42, 0
1, 175440, Note_on_c, 9, 42, 127
1, 175559, Note_on_c, 9, 42, 0
1, 175560, Note_on_c, 9, 42, 127
1, 175679, Note_on_c, 9, 42, 0
1, 175680, Note_on_c, 9, 42, 127
1, 175680, Note_on_c, 9, 36, 127
1, 175919, Note_on_c, 9, 42, 0
1, 175920, Note_on_c, 9, 42, 127
1, 176159, Note_on_c, 9, 36, 0
1, 176159, Note_on_c, 9, 42, 0
1, 176160, Note_on_c, 9, 38, 127
1, 176160, Note_on_c, 9, 42, 127
1, 176279, Note_on_c, 9, 38, 0
1, 176279, Note_on_c, 9, 42, 0
1, 176280, Note_on_c, 9, 42, 127
1, 176399, Note_on_c, 9, 42, 0
1, 176400, Note_on_c, 9, 42, 127
1, 176519, Note_on_c, 9, 42, 0
1, 176520, Note_on_c, 9, 42, 127
1, 176639, Note_on_c, 9, 42, 0
1, 176640, Note_on_c, 9, 54, 78
1, 176640, Note_on_c, 9, 42, 127
1, 176640, Note_on_c, 9, 36, 127
1, 176759, Note_on_c, 9, 54, 0
1, 176759, Note_on_c, 9, 42, 0
1, 176760, Note_on_c, 9, 54, 78
1, 176760, Note_on_c, 9, 42, 127
1, 176879, Note_on_c, 9, 54, 0
1, 176879, Note_on_c, 9, 42, 0
1, 176880, Note_on_c, 9, 54, 78
1, 176880, Note_on_c, 9, 42, 127
1, 176999, Note_on_c, 9, 54, 0
1, 176999, Note_on_c, 9, 42, 0
1, 177000, Note_on_c, 9, 54, 78
1, 177000, Note_on_c, 9, 42, 127
1, 177119, Note_on_c, 9, 36, 0
1, 177119, Note_on_c, 9, 54, 0
1, 177119, Note_on_c, 9, 42, 0
1, 177120, Note_on_c, 9, 38, 127
1, 177120, Note_on_c, 9, 42, 127
1, 177239, Note_on_c, 9, 38, 0
1, 177239, Note_on_c, 9, 42, 0
1, 177240, Note_on_c, 9, 42, 127
1, 177359, Note_on_c, 9, 42, 0
1, 177360, Note_on_c, 9, 42, 127
1, 177479, Note_on_c, 9, 42, 0
1, 177480, Note_on_c, 9, 42, 127
1, 177599, Note_on_c, 9, 42, 0
1, 177600, Note_on_c, 9, 42, 127
1, 177600, Note_on_c, 9, 36, 127
1, 177839, Note_on_c, 9, 42, 0
1, 177840, Note_on_c, 9, 42, 127
1, 178079, Note_on_c, 9, 36, 0
1, 178079, Note_on_c, 9, 42, 0
1, 178080, Note_on_c, 9, 38, 127
1, 178080, Note_on_c, 9, 42, 127
1, 178199, Note_on_c, 9, 38, 0
1, 178199, Note_on_c, 9, 42, 0
1, 178200, Note_on_c, 9, 42, 127
1, 178319, Note_on_c, 9, 42, 0
1, 178320, Note_on_c, 9, 42, 127
1, 178320, Note_on_c, 9, 36, 127
1, 178439, Note_on_c, 9, 42, 0
1, 178440, Note_on_c, 9, 42, 127
1, 178559, Note_on_c, 9, 36, 0
1, 178559, Note_on_c, 9, 42, 0
1, 178560, Note_on_c, 9, 54, 78
1, 178560, Note_on_c, 9, 42, 127
1, 178560, Note_on_c, 9, 36, 127
1, 178679, Note_on_c, 9, 54, 0
1, 178679, Note_on_c, 9, 42, 0
1, 178680, Note_on_c, 9, 54, 78
1, 178680, Note_on_c, 9, 42, 127
1, 178799, Note_on_c, 9, 54, 0
1, 178799, Note_on_c, 9, 42, 0
1, 178800, Note_on_c, 9, 54, 78
1, 178800, Note_on_c, 9, 42, 127
1, 178919, Note_on_c, 9, 54, 0
1, 178919, Note_on_c, 9, 42, 0
1, 178920, Note_on_c, 9, 54, 78
1, 178920, Note_on_c, 9, 42, 127
1, 179039, Note_on_c, 9, 36, 0
1, 179039, Note_on_c, 9, 54, 0
1, 179039, Note_on_c, 9, 42, 0
1, 179040, Note_on_c, 9, 38, 127
1, 179040, Note_on_c, 9, 42, 127
1, 179159, Note_on_c, 9, 38, 0
1, 179159, Note_on_c, 9, 42, 0
1, 179160, Note_on_c, 9, 42, 127
1, 179279, Note_on_c, 9, 42, 0
1, 179280, Note_on_c, 9, 42, 127
1, 179399, Note_on_c, 9, 42, 0
1, 179400, Note_on_c, 9, 42, 127
1, 179519, Note_on_c, 9, 42, 0
1, 179520, Note_on_c, 9, 42, 127
1, 179520, Note_on_c, 9, 36, 127
1, 179759, Note_on_c, 9, 42, 0
1, 179760, Note_on_c, 9, 42, 127
1, 179999, Note_on_c, 9, 36, 0
1, 179999, Note_on_c, 9, 42, 0
1, 180000, Note_on_c, 9, 38, 127
1, 180000, Note_on_c, 9, 42, 127
1, 180119, Note_on_c, 9, 38, 0
1, 180119, Note_on_c, 9, 42, 0
1, 180120, Note_on_c, 9, 42, 127
1, 180239, Note_on_c, 9, 42, 0
1, 180240, Note_on_c, 9, 42, 127
1, 180359, Note_on_c, 9, 42, 0
1, 180360, Note_on_c, 9, 42, 127
1, 180479, Note_on_c, 9, 42, 0
1, 180480, Note_on_c, 9, 54, 78
1, 180480, Note_on_c, 9, 42, 127
1, 180480, Note_on_c, 9, 36, 127
1, 180599, Note_on_c, 9, 54, 0
1, 180599, Note_on_c, 9, 42, 0
1, 180600, Note_on_c, 9, 54, 78
1, 180600, Note_on_c, 9, 42, 127
1, 180719, Note_on_c, 9, 54, 0
1, 180719, Note_on_c, 9, 42, 0
1, 180720, Note_on_c, 9, 54, 78
1, 180720, Note_on_c, 9, 42, 127
1, 180839, Note_on_c, 9, 54, 0
1, 180839, Note_on_c, 9, 42, 0
1, 180840, Note_on_c, 9, 54, 78
1, 180840, Note_on_c, 9, 42, 127
1, 180959, Note_on_c, 9, 36, 0
1, 180959, Note_on_c, 9, 54, 0
1, 180959, Note_on_c, 9, 42, 0
1, 180960, Note_on_c, 9, 38, 127
1, 180960, Note_on_c, 9, 42, 127
1, 181079, Note_on_c, 9, 38, 0
1, 181079, Note_on_c, 9, 42, 0
1, 181080, Note_on_c, 9, 42, 127
1, 181199, Note_on_c, 9, 42, 0
1, 181200, Note_on_c, 9, 42, 127
1, 181319, Note_on_c, 9, 42, 0
1, 181320, Note_on_c, 9, 42, 127
1, 181439, Note_on_c, 9, 42, 0
1, 181440, Note_on_c, 9, 42, 127
1, 181440, Note_on_c, 9, 36, 127
1, 181679, Note_on_c, 9, 42, 0
1, 181680, Note_on_c, 9, 42, 127
1, 181919, Note_on_c, 9, 36, 0
1, 181919, Note_on_c, 9, 42, 0
1, 181920, Note_on_c, 9, 38, 127
1, 181920, Note_on_c, 9, 42, 127
1, 182039, Note_on_c, 9, 38, 0
1, 182039, Note_on_c, 9, 42, 0
1, 182040, Note_on_c, 9, 42, 127
1, 182159, Note_on_c, 9, 42, 0
1, 182160, Note_on_c, 9, 42, 127
1, 182160, Note_on_c, 9, 36, 127
1, 182279, Note_on_c, 9, 42, 0
1, 182280, Note_on_c, 9, 42, 127
1, 182399, Note_on_c, 9, 36, 0
1, 182399, Note_on_c, 9, 42, 0
1, 182400, Note_on_c, 9, 54, 78
1, 182400, Note_on_c, 9, 42, 127
1, 182400, Note_on_c, 9, 36, 127
1, 182519, Note_on_c, 9, 54, 0
1, 182519, Note_on_c, 9, 42, 0
1, 182520, Note_on_c, 9, 54, 78
1, 182520, Note_on_c, 9, 42, 127
1, 182639, Note_on_c, 9, 54, 0
1, 182639, Note_on_c, 9, 42, 0
1, 182640, Note_on_c, 9, 54, 78
1, 182640, Note_on_c, 9, 42, 127
1, 182759, Note_on_c, 9, 54, 0
1, 182759, Note_on_c, 9, 42, 0
1, 182760, Note_on_c, 9, 54, 78
1, 182760, Note_on_c, 9, 42, 127
1, 182879, Note_on_c, 9, 36, 0
1, 182879, Note_on_c, 9, 54, 0
1, 182879, Note_on_c, 9, 42, 0
1, 182880, Note_on_c, 9, 38, 127
1, 182880, Note_on_c, 9, 42, 127
1, 182999, Note_on_c, 9, 38, 0
1, 182999, Note_on_c, 9, 42, 0
1, 183000, Note_on_c, 9, 42, 127
1, 183119, Note_on_c, 9, 42, 0
1, 183120, Note_on_c, 9, 42, 127
1, 183239, Note_on_c, 9, 42, 0
1, 183240, Note_on_c, 9, 42, 127
1, 183359, Note_on_c, 9, 42, 0
1, 183360, Note_on_c, 9, 42, 127
1, 183360, Note_on_c, 9, 36, 127
1, 183599, Note_on_c, 9, 42, 0
1, 183600, Note_on_c, 9, 42, 127
1, 183839, Note_on_c, 9, 36, 0
1, 183839, Note_on_c, 9, 42, 0
1, 183840, Note_on_c, 9, 38, 127
1, 183840, Note_on_c, 9, 42, 127
1, 183959, Note_on_c, 9, 38, 0
1, 183959, Note_on_c, 9, 42, 0
1, 183960, Note_on_c, 9, 42, 127
1, 184079, Note_on_c, 9, 42, 0
1, 184080, Note_on_c, 9, 42, 127
1, 184199, Note_on_c, 9, 42, 0
1, 184200, Note_on_c, 9, 42, 127
1, 184319, Note_on_c, 9, 42, 0
1, 184320, Note_on_c, 9, 54, 78
1, 184320, Note_on_c, 9, 42, 127
1, 184320, Note_on_c, 9, 36, 127
1, 184439, Note_on_c, 9, 54, 0
1, 184439, Note_on_c, 9, 42, 0
1, 184440, Note_on_c, 9, 54, 78
1, 184440, Note_on_c, 9, 42, 127
1, 184559, Note_on_c, 9, 54, 0
1, 184559, Note_on_c, 9, 42, 0
1, 184560, Note_on_c, 9, 54, 78
1, 184560, Note_on_c, 9, 42, 127
1, 184679, Note_on_c, 9, 54, 0
1, 184679, Note_on_c, 9, 42, 0
1, 184680, Note_on_c, 9, 54, 78
1, 184680, Note_on_c, 9, 42, 127
1, 184799, Note_on_c, 9, 36, 0
1, 184799, Note_on_c, 9, 54, 0
1, 184799, Note_on_c, 9, 42, 0
1, 184800, Note_on_c, 9, 38, 127
1, 184800, Note_on_c, 9, 42, 127
1, 184919, Note_on_c, 9, 38, 0
1, 184919, Note_on_c, 9, 42, 0
1, 184920, Note_on_c, 9, 42, 127
1, 185039, Note_on_c, 9, 42, 0
1, 185040, Note_on_c, 9, 42, 127
1, 185159, Note_on_c, 9, 42, 0
1, 185160, Note_on_c, 9, 42, 127
1, 185279, Note_on_c, 9, 42, 0
1, 185280, Note_on_c, 9, 42, 127
1, 185280, Note_on_c, 9, 36, 127
1, 185519, Note_on_c, 9, 42, 0
1, 185520, Note_on_c, 9, 42, 127
1, 185759, Note_on_c, 9, 36, 0
1, 185759, Note_on_c, 9, 42, 0
1, 185760, Note_on_c, 9, 38, 127
1, 185760, Note_on_c, 9, 42, 127
1, 185879, Note_on_c, 9, 38, 0
1, 185879, Note_on_c, 9, 42, 0
1, 185880, Note_on_c, 9, 42, 127
1, 185999, Note_on_c, 9, 42, 0
1, 186000, Note_on_c, 9, 42, 127
1, 186119, Note_on_c, 9, 42, 0
1, 186120, Note_on_c, 9, 42, 127
1, 186239, Note_on_c, 9, 42, 0
1, 186240, Note_on_c, 9, 54, 78
1, 186240, Note_on_c, 9, 42, 127
1, 186240, Note_on_c, 9, 36, 127
1, 186359, Note_on_c, 9, 54, 0
1, 186359, Note_on_c, 9, 42, 0
1, 186360, Note_on_c, 9, 54, 78
1, 186360, Note_on_c, 9, 42, 127
1, 186479, Note_on_c, 9, 54, 0
1, 186479, Note_on_c, 9, 42, 0
1, 186480, Note_on_c, 9, 54, 78
1, 186480, Note_on_c, 9, 42, 127
1, 186599, Note_on_c, 9, 54, 0
1, 186599, Note_on_c, 9, 42, 0
1, 186600, Note_on_c, 9, 54, 78
1, 186600, Note_on_c, 9, 42, 127
1, 186719, Note_on_c, 9, 36, 0
1, 186719, Note_on_c, 9, 54, 0
1, 186719, Note_on_c, 9, 42, 0
1, 186720, Note_on_c, 9, 38, 127
1, 186720, Note_on_c, 9, 42, 127
1, 186839, Note_on_c, 9, 38, 0
1, 186839, Note_on_c, 9, 42, 0
1, 186840, Note_on_c, 9, 42, 127
1, 186959, Note_on_c, 9, 42, 0
1, 186960, Note_on_c, 9, 42, 127
1, 187079, Note_on_c, 9, 42, 0
1, 187080, Note_on_c, 9, 42, 127
1, 187199, Note_on_c, 9, 42, 0
1, 187200, Note_on_c, 9, 42, 127
1, 187200, Note_on_c, 9, 36, 127
1, 187439, Note_on_c, 9, 42, 0
1, 187440, Note_on_c, 9, 42, 127
1, 187679, Note_on_c, 9, 36, 0
1, 187679, Note_on_c, 9, 42, 0
1, 187680, Note_on_c, 9, 38, 127
1, 187680, Note_on_c, 9, 42, 127
1, 187799, Note_on_c, 9, 38, 0
1, 187799, Note_on_c, 9, 42, 0
1, 187800, Note_on_c, 9, 42, 127
1, 187919, Note_on_c, 9, 42, 0
1, 187920, Note_on_c, 9, 42, 127
1, 188039, Note_on_c, 9, 42, 0
1, 188040, Note_on_c, 9, 42, 127
1, 188159, Note_on_c, 9, 42, 0
1, 188160, Note_on_c, 9, 42, 50
1, 188160, Note_on_c, 9, 36, 127
1, 188279, Note_on_c, 9, 42, 0
1, 188280, Note_on_c, 9, 54, 78
1, 188280, Note_on_c, 9, 42, 64
1, 188399, Note_on_c, 9, 54, 0
1, 188399, Note_on_c, 9, 42, 0
1, 188400, Note_on_c, 9, 54, 78
1, 188400, Note_on_c, 9, 42, 50
1, 188519, Note_on_c, 9, 54, 0
1, 188519, Note_on_c, 9, 42, 0
1, 188520, Note_on_c, 9, 54, 78
1, 188520, Note_on_c, 9, 42, 64
1, 188639, Note_on_c, 9, 36, 0
1, 188639, Note_on_c, 9, 54, 0
1, 188639, Note_on_c, 9, 42, 0
1, 188640, Note_on_c, 9, 42, 50
1, 188759, Note_on_c, 9, 42, 0
1, 188760, Note_on_c, 9, 54, 78
1, 188760, Note_on_c, 9, 42, 64
1, 188879, Note_on_c, 9, 54, 0
1, 188879, Note_on_c, 9, 42, 0
1, 188880, Note_on_c, 9, 42, 50
1, 188999, Note_on_c, 9, 42, 0
1, 189000, Note_on_c, 9, 42, 64
1, 189119, Note_on_c, 9, 42, 0
1, 189120, Note_on_c, 9, 42, 50
1, 189120, Note_on_c, 9, 36, 127
1, 189359, Note_on_c, 9, 42, 0
1, 189359, Note_on_c, 9, 36, 0
1, 189360, Note_on_c, 9, 42, 64
1, 189360, Note_on_c, 9, 36, 120
1, 189599, Note_on_c, 9, 42, 0
1, 189599, Note_on_c, 9, 36, 0
1, 189600, Note_on_c, 9, 42, 50
1, 189719, Note_on_c, 9, 42, 0
1, 189720, Note_on_c, 9, 42, 64
1, 189839, Note_on_c, 9, 42, 0
1, 189840, Note_on_c, 9, 42, 50
1, 189959, Note_on_c, 9, 42, 0
1, 189960, Note_on_c, 9, 42, 64
1, 190079, Note_on_c, 9, 42, 0
1, 190080, Note_on_c, 9, 42, 50
1, 190080, Note_on_c, 9, 36, 120
1, 190199, Note_on_c, 9, 42, 0
1, 190200, Note_on_c, 9, 42, 64
1, 190319, Note_on_c, 9, 36, 0
1, 190319, Note_on_c, 9, 42, 0
1, 190320, Note_on_c, 9, 42, 50
1, 190320, Note_on_c, 9, 36, 120
1, 190439, Note_on_c, 9, 42, 0
1, 190440, Note_on_c, 9, 42, 64
1, 190559, Note_on_c, 9, 36, 0
1, 190559, Note_on_c, 9, 42, 0
1, 190560, Note_on_c, 9, 42, 50
1, 190679, Note_on_c, 9, 42, 0
1, 190680, Note_on_c, 9, 42, 64
1, 190799, Note_on_c, 9, 42, 0
1, 190800, Note_on_c, 9, 42, 50
1, 190919, Note_on_c, 9, 42, 0
1, 190920, Note_on_c, 9, 42, 64
1, 191039, Note_on_c, 9, 42, 0
1, 191040, Note_on_c, 9, 42, 50
1, 191279, Note_on_c, 9, 42, 0
1, 191280, Note_on_c, 9, 42, 64
1, 191519, Note_on_c, 9, 42, 0
1, 191520, Note_on_c, 9, 38, 120
1, 191520, Note_on_c, 9, 42, 50
1, 191639, Note_on_c, 9, 38, 0
1, 191639, Note_on_c, 9, 42, 0
1, 191640, Note_on_c, 9, 42, 64
1, 191759, Note_on_c, 9, 42, 0
1, 191760, Note_on_c, 9, 42, 50
1, 191760, Note_on_c, 9, 36, 120
1, 191879, Note_on_c, 9, 42, 0
1, 191880, Note_on_c, 9, 42, 64
1, 191999, Note_on_c, 9, 36, 0
1, 191999, Note_on_c, 9, 42, 0
1, 192000, Note_on_c, 9, 42, 50
1, 192000, Note_on_c, 9, 36, 127
1, 192119, Note_on_c, 9, 42, 0
1, 192120, Note_on_c, 9, 54, 78
1, 192120, Note_on_c, 9, 42, 64
1, 192239, Note_on_c, 9, 54, 0
1, 192239, Note_on_c, 9, 42, 0
1, 192240, Note_on_c, 9, 54, 78
1, 192240, Note_on_c, 9, 42, 50
1, 192359, Note_on_c, 9, 54, 0
1, 192359, Note_on_c, 9, 42, 0
1, 192360, Note_on_c, 9, 54, 78
1, 192360, Note_on_c, 9, 42, 64
1, 192479, Note_on_c, 9, 36, 0
1, 192479, Note_on_c, 9, 54, 0
1, 192479, Note_on_c, 9, 42, 0
1, 192480, Note_on_c, 9, 42, 50
1, 192599, Note_on_c, 9, 42, 0
1, 192600, Note_on_c, 9, 54, 78
1, 192600, Note_on_c, 9, 42, 64
1, 192719, Note_on_c, 9, 54, 0
1, 192719, Note_on_c, 9, 42, 0
1, 192720, Note_on_c, 9, 42, 50
1, 192839, Note_on_c, 9, 42, 0
1, 192840, Note_on_c, 9, 42, 64
1, 192959, Note_on_c, 9, 42, 0
1, 192960, Note_on_c, 9, 42, 50
1, 192960, Note_on_c, 9, 36, 127
1, 193199, Note_on_c, 9, 42, 0
1, 193199, Note_on_c, 9, 36, 0
1, 193200, Note_on_c, 9, 42, 64
1, 193200, Note_on_c, 9, 36, 120
1, 193439, Note_on_c, 9, 42, 0
1, 193439, Note_on_c, 9, 36, 0
1, 193440, Note_on_c, 9, 42, 50
1, 193559, Note_on_c, 9, 42, 0
1, 193560, Note_on_c, 9, 42, 64
1, 193679, Note_on_c, 9, 42, 0
1, 193680, Note_on_c, 9, 42, 50
1, 193799, Note_on_c, 9, 42, 0
1, 193800, Note_on_c, 9, 42, 64
1, 193919, Note_on_c, 9, 42, 0
1, 193920, Note_on_c, 9, 42, 50
1, 193920, Note_on_c, 9, 36, 120
1, 194039, Note_on_c, 9, 42, 0
1, 194040, Note_on_c, 9, 42, 64
1, 194159, Note_on_c, 9, 36, 0
1, 194159, Note_on_c, 9, 42, 0
1, 194160, Note_on_c, 9, 42, 50
1, 194160, Note_on_c, 9, 36, 120
1, 194279, Note_on_c, 9, 42, 0
1, 194280, Note_on_c, 9, 42, 64
1, 194399, Note_on_c, 9, 36, 0
1, 194399, Note_on_c, 9, 42, 0
1, 194400, Note_on_c, 9, 42, 50
1, 194519, Note_on_c, 9, 42, 0
1, 194520, Note_on_c, 9, 42, 64
1, 194639, Note_on_c, 9, 42, 0
1, 194640, Note_on_c, 9, 42, 50
1, 194759, Note_on_c, 9, 42, 0
1, 194760, Note_on_c, 9, 42, 64
1, 194879, Note_on_c, 9, 42, 0
1, 194880, Note_on_c, 9, 42, 50
1, 195119, Note_on_c, 9, 42, 0
1, 195120, Note_on_c, 9, 42, 64
1, 195359, Note_on_c, 9, 42, 0
1, 195360, Note_on_c, 9, 38, 120
1, 195360, Note_on_c, 9, 42, 50
1, 195479, Note_on_c, 9, 38, 0
1, 195479, Note_on_c, 9, 42, 0
1, 195480, Note_on_c, 9, 42, 64
1, 195599, Note_on_c, 9, 42, 0
1, 195600, Note_on_c, 9, 42, 50
1, 195600, Note_on_c, 9, 36, 120
1, 195719, Note_on_c, 9, 42, 0
1, 195720, Note_on_c, 9, 42, 64
1, 195839, Note_on_c, 9, 36, 0
1, 195839, Note_on_c, 9, 42, 0
1, 195840, Note_on_c, 9, 42, 50
1, 195840, Note_on_c, 9, 36, 127
1, 195959, Note_on_c, 9, 42, 0
1, 195960, Note_on_c, 9, 54, 78
1, 195960, Note_on_c, 9, 42, 64
1, 196079, Note_on_c, 9, 54, 0
1, 196079, Note_on_c, 9, 42, 0
1, 196080, Note_on_c, 9, 54, 78
1, 196080, Note_on_c, 9, 42, 50
1, 196199, Note_on_c, 9, 54, 0
1, 196199, Note_on_c, 9, 42, 0
1, 196200, Note_on_c, 9, 54, 78
1, 196200, Note_on_c, 9, 42, 64
1, 196319, Note_on_c, 9, 36, 0
1, 196319, Note_on_c, 9, 54, 0
1, 196319, Note_on_c, 9, 42, 0
1, 196320, Note_on_c, 9, 42, 50
1, 196439, Note_on_c, 9, 42, 0
1, 196440, Note_on_c, 9, 54, 78
1, 196440, Note_on_c, 9, 42, 64
1, 196559, Note_on_c, 9, 54, 0
1, 196559, Note_on_c, 9, 42, 0
1, 196560, Note_on_c, 9, 42, 50
1, 196679, Note_on_c, 9, 42, 0
1, 196680, Note_on_c, 9, 42, 64
1, 196799, Note_on_c, 9, 42, 0
1, 196800, Note_on_c, 9, 42, 50
1, 196800, Note_on_c, 9, 36, 127
1, 197039, Note_on_c, 9, 42, 0
1, 197039, Note_on_c, 9, 36, 0
1, 197040, Note_on_c, 9, 42, 64
1, 197040, Note_on_c, 9, 36, 120
1, 197279, Note_on_c, 9, 42, 0
1, 197279, Note_on_c, 9, 36, 0
1, 197280, Note_on_c, 9, 42, 50
1, 197399, Note_on_c, 9, 42, 0
1, 197400, Note_on_c, 9, 42, 64
1, 197519, Note_on_c, 9, 42, 0
1, 197520, Note_on_c, 9, 42, 50
1, 197639, Note_on_c, 9, 42, 0
1, 197640, Note_on_c, 9, 42, 64
1, 197759, Note_on_c, 9, 42, 0
1, 197760, Note_on_c, 9, 42, 50
1, 197760, Note_on_c, 9, 36, 120
1, 197879, Note_on_c, 9, 42, 0
1, 197880, Note_on_c, 9, 42, 64
1, 197999, Note_on_c, 9, 36, 0
1, 197999, Note_on_c, 9, 42, 0
1, 198000, Note_on_c, 9, 42, 50
1, 198000, Note_on_c, 9, 36, 120
1, 198119, Note_on_c, 9, 42, 0
1, 198120, Note_on_c, 9, 42, 64
1, 198239, Note_on_c, 9, 36, 0
1, 198239, Note_on_c, 9, 42, 0
1, 198240, Note_on_c, 9, 42, 50
1, 198359, Note_on_c, 9, 42, 0
1, 198360, Note_on_c, 9, 42, 64
1, 198479, Note_on_c, 9, 42, 0
1, 198480, Note_on_c, 9, 42, 50
1, 198599, Note_on_c, 9, 42, 0
1, 198600, Note_on_c, 9, 42, 64
1, 198719, Note_on_c, 9, 42, 0
1, 198720, Note_on_c, 9, 42, 50
1, 198959, Note_on_c, 9, 42, 0
1, 198960, Note_on_c, 9, 42, 64
1, 199199, Note_on_c, 9, 42, 0
1, 199200, Note_on_c, 9, 38, 120
1, 199200, Note_on_c, 9, 42, 50
1, 199319, Note_on_c, 9, 38, 0
1, 199319, Note_on_c, 9, 42, 0
1, 199320, Note_on_c, 9, 42, 64
1, 199439, Note_on_c, 9, 42, 0
1, 199440, Note_on_c, 9, 42, 50
1, 199440, Note_on_c, 9, 36, 120
1, 199559, Note_on_c, 9, 42, 0
1, 199560, Note_on_c, 9, 42, 64
1, 199679, Note_on_c, 9, 36, 0
1, 199679, Note_on_c, 9, 42, 0
1, 199680, Note_on_c, 9, 42, 50
1, 199680, Note_on_c, 9, 36, 127
1, 199799, Note_on_c, 9, 42, 0
1, 199800, Note_on_c, 9, 54, 78
1, 199800, Note_on_c, 9, 42, 64
1, 199919, Note_on_c, 9, 54, 0
1, 199919, Note_on_c, 9, 42, 0
1, 199920, Note_on_c, 9, 54, 78
1, 199920, Note_on_c, 9, 42, 50
1, 200039, Note_on_c, 9, 54, 0
1, 200039, Note_on_c, 9, 42, 0
1, 200040, Note_on_c, 9, 54, 78
1, 200040, Note_on_c, 9, 42, 64
1, 200159, Note_on_c, 9, 36, 0
1, 200159, Note_on_c, 9, 54, 0
1, 200159, Note_on_c, 9, 42, 0
1, 200160, Note_on_c, 9, 42, 50
1, 200279, Note_on_c, 9, 42, 0
1, 200280, Note_on_c, 9, 54, 78
1, 200280, Note_on_c, 9, 42, 64
1, 200399, Note_on_c, 9, 54, 0
1, 200399, Note_on_c, 9, 42, 0
1, 200400, Note_on_c, 9, 42, 50
1, 200519, Note_on_c, 9, 42, 0
1, 200520, Note_on_c, 9, 42, 64
1, 200639, Note_on_c, 9, 42, 0
1, 200640, Note_on_c, 9, 42, 50
1, 200640, Note_on_c, 9, 36, 127
1, 200879, Note_on_c, 9, 42, 0
1, 200879, Note_on_c, 9, 36, 0
1, 200880, Note_on_c, 9, 42, 64
1, 200880, Note_on_c, 9, 36, 120
1, 201119, Note_on_c, 9, 42, 0
1, 201119, Note_on_c, 9, 36, 0
1, 201120, Note_on_c, 9, 38, 120
1, 201120, Note_on_c, 9, 42, 50
1, 201239, Note_on_c, 9, 38, 0
1, 201239, Note_on_c, 9, 42, 0
1, 201240, Note_on_c, 9, 42, 64
1, 201359, Note_on_c, 9, 42, 0
1, 201360, Note_on_c, 9, 42, 50
1, 201360, Note_on_c, 9, 36, 120
1, 201479, Note_on_c, 9, 42, 0
1, 201480, Note_on_c, 9, 42, 64
1, 201599, Note_on_c, 9, 36, 0
1, 201599, Note_on_c, 9, 42, 0
1, 201600, Note_on_c, 9, 42, 50
1, 201600, Note_on_c, 9, 49, 92
1, 201600, Note_on_c, 9, 36, 120
1, 201719, Note_on_c, 9, 42, 0
1, 201719, Note_on_c, 9, 49, 0
1, 201720, Note_on_c, 9, 42, 64
1, 201839, Note_on_c, 9, 42, 0
1, 201840, Note_on_c, 9, 42, 50
1, 201959, Note_on_c, 9, 42, 0
1, 201960, Note_on_c, 9, 42, 64
1, 202079, Note_on_c, 9, 36, 0
1, 202079, Note_on_c, 9, 42, 0
1, 202080, Note_on_c, 9, 42, 50
1, 202199, Note_on_c, 9, 42, 0
1, 202200, Note_on_c, 9, 42, 64
1, 202319, Note_on_c, 9, 42, 0
1, 202320, Note_on_c, 9, 42, 50
1, 202439, Note_on_c, 9, 42, 0
1, 202440, Note_on_c, 9, 42, 64
1, 202559, Note_on_c, 9, 42, 0
1, 202560, Note_on_c, 9, 46, 64
1, 202799, Note_on_c, 9, 46, 0
1, 202800, Note_on_c, 9, 42, 64
1, 203039, Note_on_c, 9, 42, 0
1, 203040, Note_on_c, 9, 38, 120
1, 203040, Note_on_c, 9, 42, 50
1, 203159, Note_on_c, 9, 38, 0
1, 203159, Note_on_c, 9, 42, 0
1, 203160, Note_on_c, 9, 42, 64
1, 203279, Note_on_c, 9, 42, 0
1, 203280, Note_on_c, 9, 38, 120
1, 203280, Note_on_c, 9, 42, 50
1, 203399, Note_on_c, 9, 38, 0
1, 203399, Note_on_c, 9, 42, 0
1, 203400, Note_on_c, 9, 42, 64
1, 203519, Note_on_c, 9, 42, 0
1, 203520, Note_on_c, 9, 42, 127
1, 203520, Note_on_c, 9, 36, 127
1, 203639, Note_on_c, 9, 42, 0
1, 203640, Note_on_c, 9, 42, 127
1, 203759, Note_on_c, 9, 42, 0
1, 203760, Note_on_c, 9, 42, 127
1, 203879, Note_on_c, 9, 42, 0
1, 203880, Note_on_c, 9, 42, 127
1, 203999, Note_on_c, 9, 36, 0
1, 203999, Note_on_c, 9, 42, 0
1, 204000, Note_on_c, 9, 38, 127
1, 204000, Note_on_c, 9, 42, 127
1, 204119, Note_on_c, 9, 38, 0
1, 204119, Note_on_c, 9, 42, 0
1, 204120, Note_on_c, 9, 42, 127
1, 204239, Note_on_c, 9, 42, 0
1, 204240, Note_on_c, 9, 42, 127
1, 204359, Note_on_c, 9, 42, 0
1, 204360, Note_on_c, 9, 42, 127
1, 204479, Note_on_c, 9, 42, 0
1, 204480, Note_on_c, 9, 42, 127
1, 204480, Note_on_c, 9, 36, 127
1, 204599, Note_on_c, 9, 42, 0
1, 204600, Note_on_c, 9, 42, 127
1, 204719, Note_on_c, 9, 42, 0
1, 204720, Note_on_c, 9, 42, 127
1, 204839, Note_on_c, 9, 42, 0
1, 204840, Note_on_c, 9, 42, 127
1, 204959, Note_on_c, 9, 36, 0
1, 204959, Note_on_c, 9, 42, 0
1, 204960, Note_on_c, 9, 38, 127
1, 204960, Note_on_c, 9, 42, 127
1, 205079, Note_on_c, 9, 38, 0
1, 205079, Note_on_c, 9, 42, 0
1, 205080, Note_on_c, 9, 42, 127
1, 205199, Note_on_c, 9, 42, 0
1, 205200, Note_on_c, 9, 42, 127
1, 205319, Note_on_c, 9, 42, 0
1, 205320, Note_on_c, 9, 42, 127
1, 205439, Note_on_c, 9, 42, 0
1, 205440, Note_on_c, 9, 42, 127
1, 205440, Note_on_c, 9, 36, 127
1, 205559, Note_on_c, 9, 42, 0
1, 205560, Note_on_c, 9, 42, 127
1, 205679, Note_on_c, 9, 42, 0
1, 205680, Note_on_c, 9, 42, 127
1, 205799, Note_on_c, 9, 42, 0
1, 205800, Note_on_c, 9, 42, 127
1, 205919, Note_on_c, 9, 36, 0
1, 205919, Note_on_c, 9, 42, 0
1, 205920, Note_on_c, 9, 38, 127
1, 205920, Note_on_c, 9, 42, 127
1, 206039, Note_on_c, 9, 38, 0
1, 206039, Note_on_c, 9, 42, 0
1, 206040, Note_on_c, 9, 42, 127
1, 206159, Note_on_c, 9, 42, 0
1, 206160, Note_on_c, 9, 42, 127
1, 206279, Note_on_c, 9, 42, 0
1, 206280, Note_on_c, 9, 42, 127
1, 206399, Note_on_c, 9, 42, 0
1, 206400, Note_on_c, 9, 42, 127
1, 206400, Note_on_c, 9, 36, 127
1, 206519, Note_on_c, 9, 42, 0
1, 206520, Note_on_c, 9, 42, 127
1, 206639, Note_on_c, 9, 42, 0
1, 206640, Note_on_c, 9, 42, 127
1, 206759, Note_on_c, 9, 42, 0
1, 206760, Note_on_c, 9, 42, 127
1, 206879, Note_on_c, 9, 36, 0
1, 206879, Note_on_c, 9, 42, 0
1, 206880, Note_on_c, 9, 38, 127
1, 206880, Note_on_c, 9, 42, 127
1, 206999, Note_on_c, 9, 38, 0
1, 206999, Note_on_c, 9, 42, 0
1, 207000, Note_on_c, 9, 42, 127
1, 207119, Note_on_c, 9, 42, 0
1, 207120, Note_on_c, 9, 42, 127
1, 207239, Note_on_c, 9, 42, 0
1, 207240, Note_on_c, 9, 42, 127
1, 207359, Note_on_c, 9, 42, 0
1, 207360, Note_on_c, 9, 42, 127
1, 207360, Note_on_c, 9, 36, 127
1, 207479, Note_on_c, 9, 42, 0
1, 207480, Note_on_c, 9, 42, 127
1, 207599, Note_on_c, 9, 42, 0
1, 207600, Note_on_c, 9, 42, 127
1, 207719, Note_on_c, 9, 42, 0
1, 207720, Note_on_c, 9, 42, 127
1, 207839, Note_on_c, 9, 36, 0
1, 207839, Note_on_c, 9, 42, 0
1, 207840, Note_on_c, 9, 38, 127
1, 207840, Note_on_c, 9, 42, 127
1, 207959, Note_on_c, 9, 38, 0
1, 207959, Note_on_c, 9, 42, 0
1, 207960, Note_on_c, 9, 42, 127
1, 208079, Note_on_c, 9, 42, 0
1, 208080, Note_on_c, 9, 42, 127
1, 208199, Note_on_c, 9, 42, 0
1, 208200, Note_on_c, 9, 42, 127
1, 208319, Note_on_c, 9, 42, 0
1, 208320, Note_on_c, 9, 42, 127
1, 208320, Note_on_c, 9, 36, 127
1, 208439, Note_on_c, 9, 42, 0
1, 208440, Note_on_c, 9, 42, 127
1, 208559, Note_on_c, 9, 42, 0
1, 208560, Note_on_c, 9, 42, 127
1, 208679, Note_on_c, 9, 42, 0
1, 208680, Note_on_c, 9, 42, 127
1, 208799, Note_on_c, 9, 36, 0
1, 208799, Note_on_c, 9, 42, 0
1, 208800, Note_on_c, 9, 38, 127
1, 208800, Note_on_c, 9, 42, 127
1, 208919, Note_on_c, 9, 38, 0
1, 208919, Note_on_c, 9, 42, 0
1, 208920, Note_on_c, 9, 42, 127
1, 209039, Note_on_c, 9, 42, 0
1, 209040, Note_on_c, 9, 42, 127
1, 209159, Note_on_c, 9, 42, 0
1, 209160, Note_on_c, 9, 42, 127
1, 209279, Note_on_c, 9, 42, 0
1, 209280, Note_on_c, 9, 42, 127
1, 209280, Note_on_c, 9, 36, 127
1, 209399, Note_on_c, 9, 42, 0
1, 209400, Note_on_c, 9, 42, 127
1, 209519, Note_on_c, 9, 42, 0
1, 209520, Note_on_c, 9, 42, 127
1, 209639, Note_on_c, 9, 42, 0
1, 209640, Note_on_c, 9, 42, 127
1, 209759, Note_on_c, 9, 36, 0
1, 209759, Note_on_c, 9, 42, 0
1, 209760, Note_on_c, 9, 38, 127
1, 209760, Note_on_c, 9, 42, 127
1, 209879, Note_on_c, 9, 38, 0
1, 209879, Note_on_c, 9, 42, 0
1, 209880, Note_on_c, 9, 42, 127
1, 209999, Note_on_c, 9, 42, 0
1, 210000, Note_on_c, 9, 42, 127
1, 210119, Note_on_c, 9, 42, 0
1, 210120, Note_on_c, 9, 42, 127
1, 210239, Note_on_c, 9, 42, 0
1, 210240, Note_on_c, 9, 42, 127
1, 210240, Note_on_c, 9, 36, 127
1, 210359, Note_on_c, 9, 42, 0
1, 210360, Note_on_c, 9, 42, 127
1, 210479, Note_on_c, 9, 42, 0
1, 210480, Note_on_c, 9, 42, 127
1, 210599, Note_on_c, 9, 36, 0
1, 210599, Note_on_c, 9, 42, 0
1, 210600, Note_on_c, 9, 42, 127
1, 210600, Note_on_c, 9, 36, 127
1, 210719, Note_on_c, 9, 42, 0
1, 210719, Note_on_c, 9, 36, 0
1, 210720, Note_on_c, 9, 38, 127
1, 210959, Note_on_c, 9, 38, 0
1, 210960, Note_on_c, 9, 38, 127
1, 210960, Note_on_c, 9, 49, 127
1, 211199, Note_on_c, 9, 38, 0
1, 211199, Note_on_c, 9, 49, 0
1, 211200, Note_on_c, 9, 42, 127
1, 211200, Note_on_c, 9, 36, 127
1, 211319, Note_on_c, 9, 42, 0
1, 211320, Note_on_c, 9, 42, 127
1, 211439, Note_on_c, 9, 42, 0
1, 211440, Note_on_c, 9, 42, 127
1, 211559, Note_on_c, 9, 42, 0
1, 211560, Note_on_c, 9, 42, 127
1, 211679, Note_on_c, 9, 36, 0
1, 211679, Note_on_c, 9, 42, 0
1, 211680, Note_on_c, 9, 38, 127
1, 211680, Note_on_c, 9, 42, 127
1, 211799, Note_on_c, 9, 38, 0
1, 211799, Note_on_c, 9, 42, 0
1, 211800, Note_on_c, 9, 42, 127
1, 211919, Note_on_c, 9, 42, 0
1, 211920, Note_on_c, 9, 42, 127
1, 212039, Note_on_c, 9, 42, 0
1, 212040, Note_on_c, 9, 42, 127
1, 212159, Note_on_c, 9, 42, 0
1, 212160, Note_on_c, 9, 42, 127
1, 212160, Note_on_c, 9, 36, 127
1, 212279, Note_on_c, 9, 42, 0
1, 212280, Note_on_c, 9, 42, 127
1, 212399, Note_on_c, 9, 42, 0
1, 212400, Note_on_c, 9, 42, 127
1, 212519, Note_on_c, 9, 42, 0
1, 212520, Note_on_c, 9, 42, 127
1, 212639, Note_on_c, 9, 36, 0
1, 212639, Note_on_c, 9, 42, 0
1, 212640, Note_on_c, 9, 38, 127
1, 212640, Note_on_c, 9, 42, 127
1, 212759, Note_on_c, 9, 38, 0
1, 212759, Note_on_c, 9, 42, 0
1, 212760, Note_on_c, 9, 42, 127
1, 212879, Note_on_c, 9, 42, 0
1, 212880, Note_on_c, 9, 42, 127
1, 212999, Note_on_c, 9, 42, 0
1, 213000, Note_on_c, 9, 42, 127
1, 213119, Note_on_c, 9, 42, 0
1, 213120, Note_on_c, 9, 42, 127
1, 213120, Note_on_c, 9, 36, 127
1, 213239, Note_on_c, 9, 42, 0
1, 213240, Note_on_c, 9, 42, 127
1, 213359, Note_on_c, 9, 42, 0
1, 213360, Note_on_c, 9, 42, 127
1, 213479, Note_on_c, 9, 42, 0
1, 213480, Note_on_c, 9, 42, 127
1, 213599, Note_on_c, 9, 36, 0
1, 213599, Note_on_c, 9, 42, 0
1, 213600, Note_on_c, 9, 38, 127
1, 213600, Note_on_c, 9, 42, 127
1, 213719, Note_on_c, 9, 38, 0
1, 213719, Note_on_c, 9, 42, 0
1, 213720, Note_on_c, 9, 42, 127
1, 213839, Note_on_c, 9, 42, 0
1, 213840, Note_on_c, 9, 42, 127
1, 213959, Note_on_c, 9, 42, 0
1, 213960, Note_on_c, 9, 42, 127
1, 214079, Note_on_c, 9, 42, 0
1, 214080, Note_on_c, 9, 42, 127
1, 214080, Note_on_c, 9, 36, 127
1, 214199, Note_on_c, 9, 42, 0
1, 214200, Note_on_c, 9, 42, 127
1, 214319, Note_on_c, 9, 42, 0
1, 214320, Note_on_c, 9, 42, 127
1, 214439, Note_on_c, 9, 42, 0
1, 214440, Note_on_c, 9, 42, 127
1, 214559, Note_on_c, 9, 36, 0
1, 214559, Note_on_c, 9, 42, 0
1, 214560, Note_on_c, 9, 38, 127
1, 214560, Note_on_c, 9, 42, 127
1, 214679, Note_on_c, 9, 38, 0
1, 214679, Note_on_c, 9, 42, 0
1, 214680, Note_on_c, 9, 42, 127
1, 214799, Note_on_c, 9, 42, 0
1, 214800, Note_on_c, 9, 42, 127
1, 214919, Note_on_c, 9, 42, 0
1, 214920, Note_on_c, 9, 42, 127
1, 215039, Note_on_c, 9, 42, 0
1, 215040, Note_on_c, 9, 42, 127
1, 215040, Note_on_c, 9, 36, 127
1, 215159, Note_on_c, 9, 42, 0
1, 215160, Note_on_c, 9, 42, 127
1, 215279, Note_on_c, 9, 42, 0
1, 215280, Note_on_c, 9, 42, 127
1, 215399, Note_on_c, 9, 42, 0
1, 215400, Note_on_c, 9, 42, 127
1, 215519, Note_on_c, 9, 36, 0
1, 215519, Note_on_c, 9, 42, 0
1, 215520, Note_on_c, 9, 38, 127
1, 215520, Note_on_c, 9, 42, 127
1, 215639, Note_on_c, 9, 38, 0
1, 215639, Note_on_c, 9, 42, 0
1, 215640, Note_on_c, 9, 42, 127
1, 215759, Note_on_c, 9, 42, 0
1, 215760, Note_on_c, 9, 42, 127
1, 215879, Note_on_c, 9, 42, 0
1, 215880, Note_on_c, 9, 42, 127
1, 215999, Note_on_c, 9, 42, 0
1, 216000, Note_on_c, 9, 42, 127
1, 216000, Note_on_c, 9, 36, 127
1, 216119, Note_on_c, 9, 42, 0
1, 216120, Note_on_c, 9, 42, 127
1, 216239, Note_on_c, 9, 42, 0
1, 216240, Note_on_c, 9, 42, 127
1, 216359, Note_on_c, 9, 42, 0
1, 216360, Note_on_c, 9, 42, 127
1, 216479, Note_on_c, 9, 36, 0
1, 216479, Note_on_c, 9, 42, 0
1, 216480, Note_on_c, 9, 38, 127
1, 216480, Note_on_c, 9, 42, 127
1, 216599, Note_on_c, 9, 38, 0
1, 216599, Note_on_c, 9, 42, 0
1, 216600, Note_on_c, 9, 42, 127
1, 216719, Note_on_c, 9, 42, 0
1, 216720, Note_on_c, 9, 42, 127
1, 216839, Note_on_c, 9, 42, 0
1, 216840, Note_on_c, 9, 42, 127
1, 216959, Note_on_c, 9, 42, 0
1, 216960, Note_on_c, 9, 42, 127
1, 216960, Note_on_c, 9, 36, 127
1, 217079, Note_on_c, 9, 42, 0
1, 217080, Note_on_c, 9, 42, 127
1, 217199, Note_on_c, 9, 42, 0
1, 217200, Note_on_c, 9, 42, 127
1, 217319, Note_on_c, 9, 42, 0
1, 217320, Note_on_c, 9, 42, 127
1, 217439, Note_on_c, 9, 36, 0
1, 217439, Note_on_c, 9, 42, 0
1, 217440, Note_on_c, 9, 38, 127
1, 217440, Note_on_c, 9, 42, 127
1, 217559, Note_on_c, 9, 38, 0
1, 217559, Note_on_c, 9, 42, 0
1, 217560, Note_on_c, 9, 42, 127
1, 217679, Note_on_c, 9, 42, 0
1, 217680, Note_on_c, 9, 42, 127
1, 217680, Note_on_c, 9, 36, 127
1, 217799, Note_on_c, 9, 42, 0
1, 217800, Note_on_c, 9, 42, 127
1, 217919, Note_on_c, 9, 36, 0
1, 217919, Note_on_c, 9, 42, 0
1, 217920, Note_on_c, 9, 38, 127
1, 218039, Note_on_c, 9, 38, 0
1, 218040, Note_on_c, 9, 38, 127
1, 218279, Note_on_c, 9, 38, 0
1, 218280, Note_on_c, 9, 49, 127
1, 218280, Note_on_c, 9, 36, 127
1, 218399, Note_on_c, 9, 49, 0
1, 218399, Note_on_c, 9, 36, 0
1, 218640, Note_on_c, 9, 49, 127
1, 218640, Note_on_c, 9, 36, 127
1, 218879, Note_on_c, 9, 49, 0
1, 218879, Note_on_c, 9, 36, 0
1, 218880, Note_on_c, 9, 42, 127
1, 218880, Note_on_c, 9, 36, 127
1, 218999, Note_on_c, 9, 42, 0
1, 219000, Note_on_c, 9, 42, 127
1, 219119, Note_on_c, 9, 42, 0
1, 219120, Note_on_c, 9, 42, 127
1, 219239, Note_on_c, 9, 42, 0
1, 219240, Note_on_c, 9, 42, 127
1, 219359, Note_on_c, 9, 36, 0
1, 219359, Note_on_c, 9, 42, 0
1, 219360, Note_on_c, 9, 38, 127
1, 219360, Note_on_c, 9, 42, 127
1, 219479, Note_on_c, 9, 38, 0
1, 219479, Note_on_c, 9, 42, 0
1, 219480, Note_on_c, 9, 42, 127
1, 219599, Note_on_c, 9, 42, 0
1, 219600, Note_on_c, 9, 42, 127
1, 219719, Note_on_c, 9, 42, 0
1, 219720, Note_on_c, 9, 42, 127
1, 219839, Note_on_c, 9, 42, 0
1, 219840, Note_on_c, 9, 42, 127
1, 219840, Note_on_c, 9, 36, 127
1, 219959, Note_on_c, 9, 42, 0
1, 219960, Note_on_c, 9, 42, 127
1, 220079, Note_on_c, 9, 42, 0
1, 220080, Note_on_c, 9, 42, 127
1, 220199, Note_on_c, 9, 42, 0
1, 220200, Note_on_c, 9, 42, 127
1, 220319, Note_on_c, 9, 36, 0
1, 220319, Note_on_c, 9, 42, 0
1, 220320, Note_on_c, 9, 38, 127
1, 220320, Note_on_c, 9, 42, 127
1, 220439, Note_on_c, 9, 38, 0
1, 220439, Note_on_c, 9, 42, 0
1, 220440, Note_on_c, 9, 42, 127
1, 220559, Note_on_c, 9, 42, 0
1, 220560, Note_on_c, 9, 42, 127
1, 220679, Note_on_c, 9, 42, 0
1, 220680, Note_on_c, 9, 42, 127
1, 220799, Note_on_c, 9, 42, 0
1, 220800, Note_on_c, 9, 42, 127
1, 220800, Note_on_c, 9, 36, 127
1, 220919, Note_on_c, 9, 42, 0
1, 220920, Note_on_c, 9, 42, 127
1, 221039, Note_on_c, 9, 42, 0
1, 221040, Note_on_c, 9, 42, 127
1, 221159, Note_on_c, 9, 42, 0
1, 221160, Note_on_c, 9, 42, 127
1, 221279, Note_on_c, 9, 36, 0
1, 221279, Note_on_c, 9, 42, 0
1, 221280, Note_on_c, 9, 38, 127
1, 221280, Note_on_c, 9, 42, 127
1, 221399, Note_on_c, 9, 38, 0
1, 221399, Note_on_c, 9, 42, 0
1, 221400, Note_on_c, 9, 42, 127
1, 221519, Note_on_c, 9, 42, 0
1, 221520, Note_on_c, 9, 42, 127
1, 221639, Note_on_c, 9, 42, 0
1, 221640, Note_on_c, 9, 42, 127
1, 221759, Note_on_c, 9, 42, 0
1, 221760, Note_on_c, 9, 42, 127
1, 221760, Note_on_c, 9, 36, 127
1, 221879, Note_on_c, 9, 42, 0
1, 221880, Note_on_c, 9, 42, 127
1, 221999, Note_on_c, 9, 42, 0
1, 222000, Note_on_c, 9, 42, 127
1, 222119, Note_on_c, 9, 42, 0
1, 222120, Note_on_c, 9, 42, 127
1, 222239, Note_on_c, 9, 36, 0
1, 222239, Note_on_c, 9, 42, 0
1, 222240, Note_on_c, 9, 38, 127
1, 222240, Note_on_c, 9, 42, 127
1, 222359, Note_on_c, 9, 38, 0
1, 222359, Note_on_c, 9, 42, 0
1, 222360, Note_on_c, 9, 42, 127
1, 222479, Note_on_c, 9, 42, 0
1, 222480, Note_on_c, 9, 42, 127
1, 222599, Note_on_c, 9, 42, 0
1, 222600, Note_on_c, 9, 42, 127
1, 222719, Note_on_c, 9, 42, 0
1, 222720, Note_on_c, 9, 42, 127
1, 222720, Note_on_c, 9, 36, 127
1, 222839, Note_on_c, 9, 42, 0
1, 222840, Note_on_c, 9, 42, 127
1, 222959, Note_on_c, 9, 42, 0
1, 222960, Note_on_c, 9, 42, 127
1, 223079, Note_on_c, 9, 42, 0
1, 223080, Note_on_c, 9, 42, 127
1, 223199, Note_on_c, 9, 36, 0
1, 223199, Note_on_c, 9, 42, 0
1, 223200, Note_on_c, 9, 38, 127
1, 223200, Note_on_c, 9, 42, 127
1, 223319, Note_on_c, 9, 38, 0
1, 223319, Note_on_c, 9, 42, 0
1, 223320, Note_on_c, 9, 42, 127
1, 223439, Note_on_c, 9, 42, 0
1, 223440, Note_on_c, 9, 42, 127
1, 223559, Note_on_c, 9, 42, 0
1, 223560, Note_on_c, 9, 42, 127
1, 223679, Note_on_c, 9, 42, 0
1, 223680, Note_on_c, 9, 42, 127
1, 223680, Note_on_c, 9, 36, 127
1, 223799, Note_on_c, 9, 42, 0
1, 223800, Note_on_c, 9, 42, 127
1, 223919, Note_on_c, 9, 42, 0
1, 223920, Note_on_c, 9, 42, 127
1, 224039, Note_on_c, 9, 42, 0
1, 224040, Note_on_c, 9, 42, 127
1, 224159, Note_on_c, 9, 36, 0
1, 224159, Note_on_c, 9, 42, 0
1, 224160, Note_on_c, 9, 38, 127
1, 224160, Note_on_c, 9, 42, 127
1, 224279, Note_on_c, 9, 38, 0
1, 224279, Note_on_c, 9, 42, 0
1, 224280, Note_on_c, 9, 42, 127
1, 224399, Note_on_c, 9, 42, 0
1, 224400, Note_on_c, 9, 42, 127
1, 224519, Note_on_c, 9, 42, 0
1, 224520, Note_on_c, 9, 42, 127
1, 224639, Note_on_c, 9, 42, 0
1, 224640, Note_on_c, 9, 42, 127
1, 224640, Note_on_c, 9, 36, 127
1, 224759, Note_on_c, 9, 42, 0
1, 224760, Note_on_c, 9, 42, 127
1, 224879, Note_on_c, 9, 42, 0
1, 224880, Note_on_c, 9, 42, 127
1, 224999, Note_on_c, 9, 42, 0
1, 225000, Note_on_c, 9, 42, 127
1, 225119, Note_on_c, 9, 36, 0
1, 225119, Note_on_c, 9, 42, 0
1, 225120, Note_on_c, 9, 38, 127
1, 225120, Note_on_c, 9, 42, 127
1, 225239, Note_on_c, 9, 38, 0
1, 225239, Note_on_c, 9, 42, 0
1, 225240, Note_on_c, 9, 42, 127
1, 225359, Note_on_c, 9, 42, 0
1, 225360, Note_on_c, 9, 42, 127
1, 225479, Note_on_c, 9, 42, 0
1, 225480, Note_on_c, 9, 42, 127
1, 225599, Note_on_c, 9, 42, 0
1, 225600, Note_on_c, 9, 42, 127
1, 225600, Note_on_c, 9, 36, 127
1, 225719, Note_on_c, 9, 42, 0
1, 225720, Note_on_c, 9, 42, 127
1, 225839, Note_on_c, 9, 42, 0
1, 225840, Note_on_c, 9, 42, 127
1, 225959, Note_on_c, 9, 42, 0
1, 225960, Note_on_c, 9, 42, 127
1, 226079, Note_on_c, 9, 36, 0
1, 226079, Note_on_c, 9, 42, 0
1, 226080, Note_on_c, 9, 38, 127
1, 226080, Note_on_c, 9, 42, 127
1, 226199, Note_on_c, 9, 38, 0
1, 226199, Note_on_c, 9, 42, 0
1, 226200, Note_on_c, 9, 42, 127
1, 226319, Note_on_c, 9, 42, 0
1, 226320, Note_on_c, 9, 42, 127
1, 226439, Note_on_c, 9, 42, 0
1, 226440, Note_on_c, 9, 42, 127
1, 226559, Note_on_c, 9, 42, 0
1, 226560, Note_on_c, 9, 42, 127
1, 226560, Note_on_c, 9, 36, 127
1, 226679, Note_on_c, 9, 42, 0
1, 226680, Note_on_c, 9, 42, 127
1, 226799, Note_on_c, 9, 42, 0
1, 226800, Note_on_c, 9, 42, 127
1, 226919, Note_on_c, 9, 42, 0
1, 226920, Note_on_c, 9, 42, 127
1, 227039, Note_on_c, 9, 36, 0
1, 227039, Note_on_c, 9, 42, 0
1, 227040, Note_on_c, 9, 38, 127
1, 227040, Note_on_c, 9, 42, 127
1, 227159, Note_on_c, 9, 38, 0
1, 227159, Note_on_c, 9, 42, 0
1, 227160, Note_on_c, 9, 42, 127
1, 227279, Note_on_c, 9, 42, 0
1, 227280, Note_on_c, 9, 42, 127
1, 227399, Note_on_c, 9, 42, 0
1, 227400, Note_on_c, 9, 42, 127
1, 227519, Note_on_c, 9, 42, 0
1, 227520, Note_on_c, 9, 42, 127
1, 227520, Note_on_c, 9, 36, 127
1, 227639, Note_on_c, 9, 42, 0
1, 227640, Note_on_c, 9, 42, 127
1, 227759, Note_on_c, 9, 42, 0
1, 227760, Note_on_c, 9, 42, 127
1, 227879, Note_on_c, 9, 42, 0
1, 227880, Note_on_c, 9, 42, 127
1, 227999, Note_on_c, 9, 36, 0
1, 227999, Note_on_c, 9, 42, 0
1, 228000, Note_on_c, 9, 38, 127
1, 228000, Note_on_c, 9, 42, 127
1, 228119, Note_on_c, 9, 38, 0
1, 228119, Note_on_c, 9, 42, 0
1, 228120, Note_on_c, 9, 42, 127
1, 228239, Note_on_c, 9, 42, 0
1, 228240, Note_on_c, 9, 42, 127
1, 228359, Note_on_c, 9, 42, 0
1, 228360, Note_on_c, 9, 42, 127
1, 228479, Note_on_c, 9, 42, 0
1, 228480, Note_on_c, 9, 42, 127
1, 228480, Note_on_c, 9, 36, 127
1, 228599, Note_on_c, 9, 42, 0
1, 228600, Note_on_c, 9, 42, 127
1, 228719, Note_on_c, 9, 42, 0
1, 228720, Note_on_c, 9, 42, 127
1, 228839, Note_on_c, 9, 42, 0
1, 228840, Note_on_c, 9, 42, 127
1, 228959, Note_on_c, 9, 36, 0
1, 228959, Note_on_c, 9, 42, 0
1, 228960, Note_on_c, 9, 38, 127
1, 228960, Note_on_c, 9, 42, 127
1, 229079, Note_on_c, 9, 38, 0
1, 229079, Note_on_c, 9, 42, 0
1, 229080, Note_on_c, 9, 42, 127
1, 229199, Note_on_c, 9, 42, 0
1, 229200, Note_on_c, 9, 42, 127
1, 229319, Note_on_c, 9, 42, 0
1, 229320, Note_on_c, 9, 42, 127
1, 229439, Note_on_c, 9, 42, 0
1, 229440, Note_on_c, 9, 42, 127
1, 229440, Note_on_c, 9, 36, 127
1, 229559, Note_on_c, 9, 42, 0
1, 229560, Note_on_c, 9, 42, 127
1, 229679, Note_on_c, 9, 42, 0
1, 229680, Note_on_c, 9, 42, 127
1, 229799, Note_on_c, 9, 36, 0
1, 229799, Note_on_c, 9, 42, 0
1, 229800, Note_on_c, 9, 42, 127
1, 229800, Note_on_c, 9, 36, 127
1, 229919, Note_on_c, 9, 42, 0
1, 229919, Note_on_c, 9, 36, 0
1, 229920, Note_on_c, 9, 38, 127
1, 230159, Note_on_c, 9, 38, 0
1, 230160, Note_on_c, 9, 38, 127
1, 230399, Note_on_c, 9, 38, 0
1, 230400, Note_on_c, 9, 49, 127
1, 230400, Note_on_c, 9, 36, 127
1, 230879, Note_on_c, 9, 49, 0
1, 230879, Note_on_c, 9, 36, 0
1, 230880, Note_on_c, 9, 38, 127
1, 230880, Note_on_c, 9, 42, 127
1, 230999, Note_on_c, 9, 38, 0
1, 230999, Note_on_c, 9, 42, 0
1, 231000, Note_on_c, 9, 42, 127
1, 231119, Note_on_c, 9, 42, 0
1, 231120, Note_on_c, 9, 42, 127
1, 231239, Note_on_c, 9, 42, 0
1, 231240, Note_on_c, 9, 42, 127
1, 231359, Note_on_c, 9, 42, 0
1, 231360, Note_on_c, 9, 42, 127
1, 231360, Note_on_c, 9, 36, 127
1, 231479, Note_on_c, 9, 42, 0
1, 231480, Note_on_c, 9, 42, 127
1, 231599, Note_on_c, 9, 42, 0
1, 231600, Note_on_c, 9, 42, 127
1, 231719, Note_on_c, 9, 42, 0
1, 231720, Note_on_c, 9, 42, 127
1, 231839, Note_on_c, 9, 36, 0
1, 231839, Note_on_c, 9, 42, 0
1, 231840, Note_on_c, 9, 38, 127
1, 231840, Note_on_c, 9, 42, 127
1, 231959, Note_on_c, 9, 38, 0
1, 231959, Note_on_c, 9, 42, 0
1, 231960, Note_on_c, 9, 42, 127
1, 232079, Note_on_c, 9, 42, 0
1, 232080, Note_on_c, 9, 42, 127
1, 232199, Note_on_c, 9, 42, 0
1, 232200, Note_on_c, 9, 42, 127
1, 232319, Note_on_c, 9, 42, 0
1, 232320, Note_on_c, 9, 42, 127
1, 232320, Note_on_c, 9, 36, 127
1, 232439, Note_on_c, 9, 42, 0
1, 232440, Note_on_c, 9, 42, 127
1, 232559, Note_on_c, 9, 42, 0
1, 232560, Note_on_c, 9, 42, 127
1, 232679, Note_on_c, 9, 42, 0
1, 232680, Note_on_c, 9, 42, 127
1, 232799, Note_on_c, 9, 36, 0
1, 232799, Note_on_c, 9, 42, 0
1, 232800, Note_on_c, 9, 38, 127
1, 232800, Note_on_c, 9, 42, 127
1, 232919, Note_on_c, 9, 38, 0
1, 232919, Note_on_c, 9, 42, 0
1, 232920, Note_on_c, 9, 42, 127
1, 233039, Note_on_c, 9, 42, 0
1, 233040, Note_on_c, 9, 42, 127
1, 233159, Note_on_c, 9, 42, 0
1, 233160, Note_on_c, 9, 42, 127
1, 233279, Note_on_c, 9, 42, 0
1, 233280, Note_on_c, 9, 42, 127
1, 233280, Note_on_c, 9, 36, 127
1, 233399, Note_on_c, 9, 42, 0
1, 233400, Note_on_c, 9, 42, 127
1, 233519, Note_on_c, 9, 42, 0
1, 233520, Note_on_c, 9, 42, 127
1, 233639, Note_on_c, 9, 42, 0
1, 233640, Note_on_c, 9, 42, 127
1, 233759, Note_on_c, 9, 36, 0
1, 233759, Note_on_c, 9, 42, 0
1, 233760, Note_on_c, 9, 38, 127
1, 233760, Note_on_c, 9, 42, 127
1, 233879, Note_on_c, 9, 38, 0
1, 233879, Note_on_c, 9, 42, 0
1, 233880, Note_on_c, 9, 42, 127
1, 233999, Note_on_c, 9, 42, 0
1, 234000, Note_on_c, 9, 42, 127
1, 234119, Note_on_c, 9, 42, 0
1, 234120, Note_on_c, 9, 42, 127
1, 234239, Note_on_c, 9, 42, 0
1, 234240, Note_on_c, 9, 42, 120
1, 234240, Note_on_c, 9, 36, 127
1, 234359, Note_on_c, 9, 42, 0
1, 234360, Note_on_c, 9, 54, 78
1, 234479, Note_on_c, 9, 54, 0
1, 234480, Note_on_c, 9, 54, 78
1, 234599, Note_on_c, 9, 54, 0
1, 234600, Note_on_c, 9, 54, 78
1, 234719, Note_on_c, 9, 36, 0
1, 234719, Note_on_c, 9, 54, 0
1, 234720, Note_on_c, 9, 54, 78
1, 234720, Note_on_c, 9, 42, 120
1, 234839, Note_on_c, 9, 54, 0
1, 234839, Note_on_c, 9, 42, 0
1, 234840, Note_on_c, 9, 54, 78
1, 235199, Note_on_c, 9, 54, 0
1, 235200, Note_on_c, 9, 42, 120
1, 235200, Note_on_c, 9, 36, 127
1, 235439, Note_on_c, 9, 36, 0
1, 235440, Note_on_c, 9, 36, 120
1, 235679, Note_on_c, 9, 42, 0
1, 235679, Note_on_c, 9, 36, 0
1, 235680, Note_on_c, 9, 42, 120
1, 236159, Note_on_c, 9, 42, 0
1, 236160, Note_on_c, 9, 42, 120
1, 236160, Note_on_c, 9, 36, 120
1, 236399, Note_on_c, 9, 36, 0
1, 236400, Note_on_c, 9, 36, 120
1, 236639, Note_on_c, 9, 42, 0
1, 236639, Note_on_c, 9, 36, 0
1, 236640, Note_on_c, 9, 42, 120
1, 237119, Note_on_c, 9, 42, 0
1, 237120, Note_on_c, 9, 42, 120
1, 237599, Note_on_c, 9, 42, 0
1, 237600, Note_on_c, 9, 38, 120
1, 237600, Note_on_c, 9, 42, 120
1, 237839, Note_on_c, 9, 38, 0
1, 237839, Note_on_c, 9, 42, 0
1, 237840, Note_on_c, 9, 42, 120
1, 237840, Note_on_c, 9, 36, 120
1, 238079, Note_on_c, 9, 42, 0
1, 238079, Note_on_c, 9, 36, 0
1, 238080, Note_on_c, 9, 42, 120
1, 238080, Note_on_c, 9, 36, 127
1, 238199, Note_on_c, 9, 42, 0
1, 238200, Note_on_c, 9, 54, 78
1, 238319, Note_on_c, 9, 54, 0
1, 238320, Note_on_c, 9, 54, 78
1, 238439, Note_on_c, 9, 54, 0
1, 238440, Note_on_c, 9, 54, 78
1, 238559, Note_on_c, 9, 36, 0
1, 238559, Note_on_c, 9, 54, 0
1, 238560, Note_on_c, 9, 54, 78
1, 238560, Note_on_c, 9, 42, 120
1, 238679, Note_on_c, 9, 54, 0
1, 238679, Note_on_c, 9, 42, 0
1, 238680, Note_on_c, 9, 54, 78
1, 239039, Note_on_c, 9, 54, 0
1, 239040, Note_on_c, 9, 42, 120
1, 239040, Note_on_c, 9, 36, 127
1, 239279, Note_on_c, 9, 36, 0
1, 239280, Note_on_c, 9, 36, 120
1, 239519, Note_on_c, 9, 42, 0
1, 239519, Note_on_c, 9, 36, 0
1, 239520, Note_on_c, 9, 42, 120
1, 239999, Note_on_c, 9, 42, 0
1, 240000, Note_on_c, 9, 42, 120
1, 240000, Note_on_c, 9, 36, 120
1, 240239, Note_on_c, 9, 36, 0
1, 240240, Note_on_c, 9, 36, 120
1, 240479, Note_on_c, 9, 42, 0
1, 240479, Note_on_c, 9, 36, 0
1, 240480, Note_on_c, 9, 42, 120
1, 240959, Note_on_c, 9, 42, 0
1, 240960, Note_on_c, 9, 42, 120
1, 241439, Note_on_c, 9, 42, 0
1, 241440, Note_on_c, 9, 38, 120
1, 241440, Note_on_c, 9, 42, 120
1, 241679, Note_on_c, 9, 38, 0
1, 241679, Note_on_c, 9, 42, 0
1, 241680, Note_on_c, 9, 42, 120
1, 241680, Note_on_c, 9, 36, 120
1, 241919, Note_on_c, 9, 42, 0
1, 241919, Note_on_c, 9, 36, 0
1, 241920, Note_on_c, 9, 42, 120
1, 241920, Note_on_c, 9, 36, 127
1, 242039, Note_on_c, 9, 42, 0
1, 242040, Note_on_c, 9, 54, 78
1, 242159, Note_on_c, 9, 54, 0
1, 242160, Note_on_c, 9, 54, 78
1, 242279, Note_on_c, 9, 54, 0
1, 242280, Note_on_c, 9, 54, 78
1, 242399, Note_on_c, 9, 36, 0
1, 242399, Note_on_c, 9, 54, 0
1, 242400, Note_on_c, 9, 54, 78
1, 242400, Note_on_c, 9, 42, 120
1, 242519, Note_on_c, 9, 54, 0
1, 242519, Note_on_c, 9, 42, 0
1, 242520, Note_on_c, 9, 54, 78
1, 242879, Note_on_c, 9, 54, 0
1, 242880, Note_on_c, 9, 42, 120
1, 242880, Note_on_c, 9, 36, 127
1, 243119, Note_on_c, 9, 36, 0
1, 243120, Note_on_c, 9, 36, 120
1, 243359, Note_on_c, 9, 42, 0
1, 243359, Note_on_c, 9, 36, 0
1, 243360, Note_on_c, 9, 42, 120
1, 243839, Note_on_c, 9, 42, 0
1, 243840, Note_on_c, 9, 42, 120
1, 243840, Note_on_c, 9, 36, 120
1, 244079, Note_on_c, 9, 36, 0
1, 244080, Note_on_c, 9, 36, 120
1, 244319, Note_on_c, 9, 42, 0
1, 244319, Note_on_c, 9, 36, 0
1, 244320, Note_on_c, 9, 42, 120
1, 244799, Note_on_c, 9, 42, 0
1, 244800, Note_on_c, 9, 42, 120
1, 245279, Note_on_c, 9, 42, 0
1, 245280, Note_on_c, 9, 38, 120
1, 245280, Note_on_c, 9, 42, 120
1, 245519, Note_on_c, 9, 38, 0
1, 245519, Note_on_c, 9, 42, 0
1, 245520, Note_on_c, 9, 42, 120
1, 245520, Note_on_c, 9, 36, 120
1, 245759, Note_on_c, 9, 42, 0
1, 245759, Note_on_c, 9, 36, 0
1, 245760, Note_on_c, 9, 42, 120
1, 245760, Note_on_c, 9, 36, 127
1, 245879, Note_on_c, 9, 42, 0
1, 245880, Note_on_c, 9, 54, 78
1, 245999, Note_on_c, 9, 54, 0
1, 246000, Note_on_c, 9, 54, 78
1, 246119, Note_on_c, 9, 54, 0
1, 246120, Note_on_c, 9, 54, 78
1, 246239, Note_on_c, 9, 36, 0
1, 246239, Note_on_c, 9, 54, 0
1, 246240, Note_on_c, 9, 54, 78
1, 246240, Note_on_c, 9, 42, 120
1, 246359, Note_on_c, 9, 54, 0
1, 246359, Note_on_c, 9, 42, 0
1, 246360, Note_on_c, 9, 54, 78
1, 246719, Note_on_c, 9, 54, 0
1, 246720, Note_on_c, 9, 42, 120
1, 246720, Note_on_c, 9, 36, 127
1, 246959, Note_on_c, 9, 36, 0
1, 246960, Note_on_c, 9, 36, 120
1, 247199, Note_on_c, 9, 42, 0
1, 247199, Note_on_c, 9, 36, 0
1, 247200, Note_on_c, 9, 42, 120
1, 247679, Note_on_c, 9, 42, 0
1, 247680, Note_on_c, 9, 38, 120
1, 247799, Note_on_c, 9, 38, 0
1, 247800, Note_on_c, 9, 38, 120
1, 248159, Note_on_c, 9, 38, 0
1, 249600, Note_on_c, 9, 42, 127
1, 249600, Note_on_c, 9, 36, 127
1, 249719, Note_on_c, 9, 42, 0
1, 249720, Note_on_c, 9, 42, 127
1, 249839, Note_on_c, 9, 42, 0
1, 249840, Note_on_c, 9, 42, 127
1, 249959, Note_on_c, 9, 42, 0
1, 249960, Note_on_c, 9, 42, 127
1, 250079, Note_on_c, 9, 36, 0
1, 250079, Note_on_c, 9, 42, 0
1, 250080, Note_on_c, 9, 38, 127
1, 250080, Note_on_c, 9, 42, 127
1, 250199, Note_on_c, 9, 38, 0
1, 250199, Note_on_c, 9, 42, 0
1, 250200, Note_on_c, 9, 42, 127
1, 250319, Note_on_c, 9, 42, 0
1, 250320, Note_on_c, 9, 42, 127
1, 250439, Note_on_c, 9, 42, 0
1, 250440, Note_on_c, 9, 42, 127
1, 250559, Note_on_c, 9, 42, 0
1, 250560, Note_on_c, 9, 42, 127
1, 250560, Note_on_c, 9, 36, 127
1, 250679, Note_on_c, 9, 42, 0
1, 250680, Note_on_c, 9, 42, 127
1, 250799, Note_on_c, 9, 42, 0
1, 250800, Note_on_c, 9, 42, 127
1, 250919, Note_on_c, 9, 42, 0
1, 250920, Note_on_c, 9, 42, 127
1, 251039, Note_on_c, 9, 36, 0
1, 251039, Note_on_c, 9, 42, 0
1, 251040, Note_on_c, 9, 38, 127
1, 251040, Note_on_c, 9, 42, 127
1, 251159, Note_on_c, 9, 38, 0
1, 251159, Note_on_c, 9, 42, 0
1, 251160, Note_on_c, 9, 42, 127
1, 251279, Note_on_c, 9, 42, 0
1, 251280, Note_on_c, 9, 42, 127
1, 251399, Note_on_c, 9, 42, 0
1, 251400, Note_on_c, 9, 42, 127
1, 251519, Note_on_c, 9, 42, 0
1, 251520, Note_on_c, 9, 42, 127
1, 251520, Note_on_c, 9, 36, 127
1, 251639, Note_on_c, 9, 42, 0
1, 251640, Note_on_c, 9, 42, 127
1, 251759, Note_on_c, 9, 42, 0
1, 251760, Note_on_c, 9, 42, 127
1, 251879, Note_on_c, 9, 42, 0
1, 251880, Note_on_c, 9, 42, 127
1, 251999, Note_on_c, 9, 36, 0
1, 251999, Note_on_c, 9, 42, 0
1, 252000, Note_on_c, 9, 38, 127
1, 252000, Note_on_c, 9, 42, 127
1, 252119, Note_on_c, 9, 38, 0
1, 252119, Note_on_c, 9, 42, 0
1, 252120, Note_on_c, 9, 42, 127
1, 252239, Note_on_c, 9, 42, 0
1, 252240, Note_on_c, 9, 42, 127
1, 252359, Note_on_c, 9, 42, 0
1, 252360, Note_on_c, 9, 42, 127
1, 252479, Note_on_c, 9, 42, 0
1, 252480, Note_on_c, 9, 42, 127
1, 252480, Note_on_c, 9, 36, 127
1, 252599, Note_on_c, 9, 42, 0
1, 252600, Note_on_c, 9, 42, 127
1, 252719, Note_on_c, 9, 42, 0
1, 252720, Note_on_c, 9, 42, 127
1, 252839, Note_on_c, 9, 42, 0
1, 252840, Note_on_c, 9, 42, 127
1, 252959, Note_on_c, 9, 36, 0
1, 252959, Note_on_c, 9, 42, 0
1, 252960, Note_on_c, 9, 38, 127
1, 252960, Note_on_c, 9, 42, 127
1, 253079, Note_on_c, 9, 38, 0
1, 253079, Note_on_c, 9, 42, 0
1, 253080, Note_on_c, 9, 42, 127
1, 253199, Note_on_c, 9, 42, 0
1, 253200, Note_on_c, 9, 42, 127
1, 253319, Note_on_c, 9, 42, 0
1, 253320, Note_on_c, 9, 42, 127
1, 253439, Note_on_c, 9, 42, 0
1, 253440, Note_on_c, 9, 42, 127
1, 253440, Note_on_c, 9, 36, 127
1, 253559, Note_on_c, 9, 42, 0
1, 253560, Note_on_c, 9, 42, 127
1, 253679, Note_on_c, 9, 42, 0
1, 253680, Note_on_c, 9, 42, 127
1, 253799, Note_on_c, 9, 42, 0
1, 253800, Note_on_c, 9, 42, 127
1, 253919, Note_on_c, 9, 36, 0
1, 253919, Note_on_c, 9, 42, 0
1, 253920, Note_on_c, 9, 38, 127
1, 253920, Note_on_c, 9, 42, 127
1, 254039, Note_on_c, 9, 38, 0
1, 254039, Note_on_c, 9, 42, 0
1, 254040, Note_on_c, 9, 42, 127
1, 254159, Note_on_c, 9, 42, 0
1, 254160, Note_on_c, 9, 42, 127
1, 254279, Note_on_c, 9, 42, 0
1, 254280, Note_on_c, 9, 42, 127
1, 254399, Note_on_c, 9, 42, 0
1, 254400, Note_on_c, 9, 42, 127
1, 254400, Note_on_c, 9, 36, 127
1, 254519, Note_on_c, 9, 42, 0
1, 254520, Note_on_c, 9, 42, 127
1, 254639, Note_on_c, 9, 42, 0
1, 254640, Note_on_c, 9, 42, 127
1, 254759, Note_on_c, 9, 42, 0
1, 254760, Note_on_c, 9, 42, 127
1, 254879, Note_on_c, 9, 36, 0
1, 254879, Note_on_c, 9, 42, 0
1, 254880, Note_on_c, 9, 38, 127
1, 254880, Note_on_c, 9, 42, 127
1, 254999, Note_on_c, 9, 38, 0
1, 254999, Note_on_c, 9, 42, 0
1, 255000, Note_on_c, 9, 42, 127
1, 255119, Note_on_c, 9, 42, 0
1, 255120, Note_on_c, 9, 42, 127
1, 255239, Note_on_c, 9, 42, 0
1, 255240, Note_on_c, 9, 42, 127
1, 255359, Note_on_c, 9, 42, 0
1, 255360, Note_on_c, 9, 42, 127
1, 255360, Note_on_c, 9, 36, 127
1, 255479, Note_on_c, 9, 42, 0
1, 255480, Note_on_c, 9, 42, 127
1, 255599, Note_on_c, 9, 42, 0
1, 255600, Note_on_c, 9, 42, 127
1, 255719, Note_on_c, 9, 42, 0
1, 255720, Note_on_c, 9, 42, 127
1, 255839, Note_on_c, 9, 36, 0
1, 255839, Note_on_c, 9, 42, 0
1, 255840, Note_on_c, 9, 38, 127
1, 255840, Note_on_c, 9, 42, 127
1, 255959, Note_on_c, 9, 38, 0
1, 255959, Note_on_c, 9, 42, 0
1, 255960, Note_on_c, 9, 42, 127
1, 256079, Note_on_c, 9, 42, 0
1, 256080, Note_on_c, 9, 42, 127
1, 256199, Note_on_c, 9, 42, 0
1, 256200, Note_on_c, 9, 42, 127
1, 256319, Note_on_c, 9, 42, 0
1, 256320, Note_on_c, 9, 42, 127
1, 256320, Note_on_c, 9, 36, 127
1, 256439, Note_on_c, 9, 42, 0
1, 256440, Note_on_c, 9, 42, 127
1, 256559, Note_on_c, 9, 42, 0
1, 256560, Note_on_c, 9, 42, 127
1, 256679, Note_on_c, 9, 36, 0
1, 256679, Note_on_c, 9, 42, 0
1, 256680, Note_on_c, 9, 42, 127
1, 256680, Note_on_c, 9, 36, 127
1, 256799, Note_on_c, 9, 42, 0
1, 256799, Note_on_c, 9, 36, 0
1, 256800, Note_on_c, 9, 38, 127
1, 257039, Note_on_c, 9, 38, 0
1, 257040, Note_on_c, 9, 38, 127
1, 257040, Note_on_c, 9, 49, 127
1, 257279, Note_on_c, 9, 38, 0
1, 257279, Note_on_c, 9, 49, 0
1, 257280, Note_on_c, 9, 46, 120
1, 257280, Note_on_c, 9, 36, 127
1, 257519, Note_on_c, 9, 46, 0
1, 257520, Note_on_c, 9, 42, 127
1, 257639, Note_on_c, 9, 42, 0
1, 257640, Note_on_c, 9, 42, 127
1, 257759, Note_on_c, 9, 36, 0
1, 257759, Note_on_c, 9, 42, 0
1, 257760, Note_on_c, 9, 38, 127
1, 257760, Note_on_c, 9, 42, 127
1, 257879, Note_on_c, 9, 38, 0
1, 257879, Note_on_c, 9, 42, 0
1, 257880, Note_on_c, 9, 42, 127
1, 257999, Note_on_c, 9, 42, 0
1, 258000, Note_on_c, 9, 42, 127
1, 258119, Note_on_c, 9, 42, 0
1, 258120, Note_on_c, 9, 42, 127
1, 258239, Note_on_c, 9, 42, 0
1, 258240, Note_on_c, 9, 42, 127
1, 258240, Note_on_c, 9, 36, 127
1, 258359, Note_on_c, 9, 42, 0
1, 258360, Note_on_c, 9, 42, 127
1, 258479, Note_on_c, 9, 42, 0
1, 258480, Note_on_c, 9, 42, 127
1, 258599, Note_on_c, 9, 42, 0
1, 258600, Note_on_c, 9, 42, 127
1, 258719, Note_on_c, 9, 36, 0
1, 258719, Note_on_c, 9, 42, 0
1, 258720, Note_on_c, 9, 38, 127
1, 258720, Note_on_c, 9, 42, 127
1, 258839, Note_on_c, 9, 38, 0
1, 258839, Note_on_c, 9, 42, 0
1, 258840, Note_on_c, 9, 42, 127
1, 258959, Note_on_c, 9, 42, 0
1, 258960, Note_on_c, 9, 42, 127
1, 259079, Note_on_c, 9, 42, 0
1, 259080, Note_on_c, 9, 42, 127
1, 259199, Note_on_c, 9, 42, 0
1, 259200, Note_on_c, 9, 42, 127
1, 259200, Note_on_c, 9, 36, 127
1, 259319, Note_on_c, 9, 42, 0
1, 259320, Note_on_c, 9, 42, 127
1, 259439, Note_on_c, 9, 42, 0
1, 259440, Note_on_c, 9, 42, 127
1, 259559, Note_on_c, 9, 42, 0
1, 259560, Note_on_c, 9, 42, 127
1, 259679, Note_on_c, 9, 36, 0
1, 259679, Note_on_c, 9, 42, 0
1, 259680, Note_on_c, 9, 38, 127
1, 259680, Note_on_c, 9, 42, 127
1, 259799, Note_on_c, 9, 38, 0
1, 259799, Note_on_c, 9, 42, 0
1, 259800, Note_on_c, 9, 42, 127
1, 259919, Note_on_c, 9, 42, 0
1, 259920, Note_on_c, 9, 42, 127
1, 260039, Note_on_c, 9, 42, 0
1, 260040, Note_on_c, 9, 42, 127
1, 260159, Note_on_c, 9, 42, 0
1, 260160, Note_on_c, 9, 42, 127
1, 260160, Note_on_c, 9, 36, 127
1, 260279, Note_on_c, 9, 42, 0
1, 260280, Note_on_c, 9, 42, 127
1, 260399, Note_on_c, 9, 42, 0
1, 260400, Note_on_c, 9, 42, 127
1, 260519, Note_on_c, 9, 42, 0
1, 260520, Note_on_c, 9, 42, 127
1, 260639, Note_on_c, 9, 36, 0
1, 260639, Note_on_c, 9, 42, 0
1, 260640, Note_on_c, 9, 38, 127
1, 260640, Note_on_c, 9, 42, 127
1, 260759, Note_on_c, 9, 38, 0
1, 260759, Note_on_c, 9, 42, 0
1, 260760, Note_on_c, 9, 42, 127
1, 260879, Note_on_c, 9, 42, 0
1, 260880, Note_on_c, 9, 42, 127
1, 260999, Note_on_c, 9, 42, 0
1, 261000, Note_on_c, 9, 42, 127
1, 261119, Note_on_c, 9, 42, 0
1, 261120, Note_on_c, 9, 42, 127
1, 261120, Note_on_c, 9, 36, 127
1, 261239, Note_on_c, 9, 42, 0
1, 261240, Note_on_c, 9, 42, 127
1, 261359, Note_on_c, 9, 42, 0
1, 261360, Note_on_c, 9, 42, 127
1, 261479, Note_on_c, 9, 42, 0
1, 261480, Note_on_c, 9, 42, 127
1, 261599, Note_on_c, 9, 36, 0
1, 261599, Note_on_c, 9, 42, 0
1, 261600, Note_on_c, 9, 38, 127
1, 261600, Note_on_c, 9, 42, 127
1, 261719, Note_on_c, 9, 38, 0
1, 261719, Note_on_c, 9, 42, 0
1, 261720, Note_on_c, 9, 42, 127
1, 261839, Note_on_c, 9, 42, 0
1, 261840, Note_on_c, 9, 42, 127
1, 261959, Note_on_c, 9, 42, 0
1, 261960, Note_on_c, 9, 42, 127
1, 262079, Note_on_c, 9, 42, 0
1, 262080, Note_on_c, 9, 42, 127
1, 262080, Note_on_c, 9, 36, 127
1, 262199, Note_on_c, 9, 42, 0
1, 262200, Note_on_c, 9, 42, 127
1, 262319, Note_on_c, 9, 42, 0
1, 262320, Note_on_c, 9, 42, 127
1, 262439, Note_on_c, 9, 42, 0
1, 262440, Note_on_c, 9, 42, 127
1, 262559, Note_on_c, 9, 36, 0
1, 262559, Note_on_c, 9, 42, 0
1, 262560, Note_on_c, 9, 38, 127
1, 262560, Note_on_c, 9, 42, 127
1, 262679, Note_on_c, 9, 38, 0
1, 262679, Note_on_c, 9, 42, 0
1, 262680, Note_on_c, 9, 42, 127
1, 262799, Note_on_c, 9, 42, 0
1, 262800, Note_on_c, 9, 42, 127
1, 262919, Note_on_c, 9, 42, 0
1, 262920, Note_on_c, 9, 42, 127
1, 263039, Note_on_c, 9, 42, 0
1, 263040, Note_on_c, 9, 42, 127
1, 263040, Note_on_c, 9, 36, 127
1, 263159, Note_on_c, 9, 42, 0
1, 263160, Note_on_c, 9, 42, 127
1, 263279, Note_on_c, 9, 42, 0
1, 263280, Note_on_c, 9, 42, 127
1, 263399, Note_on_c, 9, 42, 0
1, 263400, Note_on_c, 9, 42, 127
1, 263519, Note_on_c, 9, 36, 0
1, 263519, Note_on_c, 9, 42, 0
1, 263520, Note_on_c, 9, 38, 127
1, 263520, Note_on_c, 9, 42, 127
1, 263639, Note_on_c, 9, 38, 0
1, 263639, Note_on_c, 9, 42, 0
1, 263640, Note_on_c, 9, 42, 127
1, 263759, Note_on_c, 9, 42, 0
1, 263760, Note_on_c, 9, 42, 127
1, 263760, Note_on_c, 9, 36, 127
1, 263879, Note_on_c, 9, 42, 0
1, 263880, Note_on_c, 9, 42, 127
1, 263999, Note_on_c, 9, 36, 0
1, 263999, Note_on_c, 9, 42, 0
1, 264000, Note_on_c, 9, 38, 127
1, 264119, Note_on_c, 9, 38, 0
1, 264120, Note_on_c, 9, 38, 127
1, 264359, Note_on_c, 9, 38, 0
1, 264360, Note_on_c, 9, 49, 127
1, 264360, Note_on_c, 9, 36, 127
1, 264479, Note_on_c, 9, 49, 0
1, 264479, Note_on_c, 9, 36, 0
1, 264720, Note_on_c, 9, 49, 127
1, 264720, Note_on_c, 9, 36, 127
1, 264959, Note_on_c, 9, 49, 0
1, 264959, Note_on_c, 9, 36, 0
1, 264960, Note_on_c, 9, 42, 127
1, 264960, Note_on_c, 9, 36, 127
1, 265079, Note_on_c, 9, 42, 0
1, 265080, Note_on_c, 9, 42, 127
1, 265199, Note_on_c, 9, 42, 0
1, 265200, Note_on_c, 9, 42, 127
1, 265319, Note_on_c, 9, 42, 0
1, 265320, Note_on_c, 9, 42, 127
1, 265439, Note_on_c, 9, 36, 0
1, 265439, Note_on_c, 9, 42, 0
1, 265440, Note_on_c, 9, 38, 127
1, 265440, Note_on_c, 9, 42, 127
1, 265559, Note_on_c, 9, 38, 0
1, 265559, Note_on_c, 9, 42, 0
1, 265560, Note_on_c, 9, 42, 127
1, 265679, Note_on_c, 9, 42, 0
1, 265680, Note_on_c, 9, 42, 127
1, 265799, Note_on_c, 9, 42, 0
1, 265800, Note_on_c, 9, 42, 127
1, 265919, Note_on_c, 9, 42, 0
1, 265920, Note_on_c, 9, 42, 127
1, 265920, Note_on_c, 9, 36, 127
1, 266039, Note_on_c, 9, 42, 0
1, 266040, Note_on_c, 9, 42, 127
1, 266159, Note_on_c, 9, 42, 0
1, 266160, Note_on_c, 9, 42, 127
1, 266279, Note_on_c, 9, 42, 0
1, 266280, Note_on_c, 9, 42, 127
1, 266399, Note_on_c, 9, 36, 0
1, 266399, Note_on_c, 9, 42, 0
1, 266400, Note_on_c, 9, 38, 127
1, 266400, Note_on_c, 9, 42, 127
1, 266519, Note_on_c, 9, 38, 0
1, 266519, Note_on_c, 9, 42, 0
1, 266520, Note_on_c, 9, 42, 127
1, 266639, Note_on_c, 9, 42, 0
1, 266640, Note_on_c, 9, 42, 127
1, 266759, Note_on_c, 9, 42, 0
1, 266760, Note_on_c, 9, 42, 127
1, 266879, Note_on_c, 9, 42, 0
1, 266880, Note_on_c, 9, 42, 127
1, 266880, Note_on_c, 9, 36, 127
1, 266999, Note_on_c, 9, 42, 0
1, 267000, Note_on_c, 9, 42, 127
1, 267119, Note_on_c, 9, 42, 0
1, 267120, Note_on_c, 9, 42, 127
1, 267239, Note_on_c, 9, 42, 0
1, 267240, Note_on_c, 9, 42, 127
1, 267359, Note_on_c, 9, 36, 0
1, 267359, Note_on_c, 9, 42, 0
1, 267360, Note_on_c, 9, 38, 127
1, 267360, Note_on_c, 9, 42, 127
1, 267479, Note_on_c, 9, 38, 0
1, 267479, Note_on_c, 9, 42, 0
1, 267480, Note_on_c, 9, 42, 127
1, 267599, Note_on_c, 9, 42, 0
1, 267600, Note_on_c, 9, 42, 127
1, 267719, Note_on_c, 9, 42, 0
1, 267720, Note_on_c, 9, 42, 127
1, 267839, Note_on_c, 9, 42, 0
1, 267840, Note_on_c, 9, 42, 127
1, 267840, Note_on_c, 9, 36, 127
1, 267959, Note_on_c, 9, 42, 0
1, 267960, Note_on_c, 9, 42, 127
1, 268079, Note_on_c, 9, 42, 0
1, 268080, Note_on_c, 9, 42, 127
1, 268199, Note_on_c, 9, 42, 0
1, 268200, Note_on_c, 9, 42, 127
1, 268319, Note_on_c, 9, 36, 0
1, 268319, Note_on_c, 9, 42, 0
1, 268320, Note_on_c, 9, 38, 127
1, 268320, Note_on_c, 9, 42, 127
1, 268439, Note_on_c, 9, 38, 0
1, 268439, Note_on_c, 9, 42, 0
1, 268440, Note_on_c, 9, 42, 127
1, 268559, Note_on_c, 9, 42, 0
1, 268560, Note_on_c, 9, 42, 127
1, 268679, Note_on_c, 9, 42, 0
1, 268680, Note_on_c, 9, 42, 127
1, 268799, Note_on_c, 9, 42, 0
1, 268800, Note_on_c, 9, 42, 127
1, 268800, Note_on_c, 9, 36, 127
1, 268919, Note_on_c, 9, 42, 0
1, 268920, Note_on_c, 9, 42, 127
1, 269039, Note_on_c, 9, 42, 0
1, 269040, Note_on_c, 9, 42, 127
1, 269159, Note_on_c, 9, 42, 0
1, 269160, Note_on_c, 9, 42, 127
1, 269279, Note_on_c, 9, 36, 0
1, 269279, Note_on_c, 9, 42, 0
1, 269280, Note_on_c, 9, 38, 127
1, 269280, Note_on_c, 9, 42, 127
1, 269399, Note_on_c, 9, 38, 0
1, 269399, Note_on_c, 9, 42, 0
1, 269400, Note_on_c, 9, 42, 127
1, 269519, Note_on_c, 9, 42, 0
1, 269520, Note_on_c, 9, 42, 127
1, 269639, Note_on_c, 9, 42, 0
1, 269640, Note_on_c, 9, 42, 127
1, 269759, Note_on_c, 9, 42, 0
1, 269760, Note_on_c, 9, 42, 127
1, 269760, Note_on_c, 9, 36, 127
1, 269879, Note_on_c, 9, 42, 0
1, 269880, Note_on_c, 9, 42, 127
1, 269999, Note_on_c, 9, 42, 0
1, 270000, Note_on_c, 9, 42, 127
1, 270119, Note_on_c, 9, 42, 0
1, 270120, Note_on_c, 9, 42, 127
1, 270239, Note_on_c, 9, 36, 0
1, 270239, Note_on_c, 9, 42, 0
1, 270240, Note_on_c, 9, 38, 127
1, 270240, Note_on_c, 9, 42, 127
1, 270359, Note_on_c, 9, 38, 0
1, 270359, Note_on_c, 9, 42, 0
1, 270360, Note_on_c, 9, 42, 127
1, 270479, Note_on_c, 9, 42, 0
1, 270480, Note_on_c, 9, 42, 127
1, 270599, Note_on_c, 9, 42, 0
1, 270600, Note_on_c, 9, 42, 127
1, 270719, Note_on_c, 9, 42, 0
1, 270720, Note_on_c, 9, 42, 127
1, 270720, Note_on_c, 9, 36, 127
1, 270839, Note_on_c, 9, 42, 0
1, 270840, Note_on_c, 9, 42, 127
1, 270959, Note_on_c, 9, 42, 0
1, 270960, Note_on_c, 9, 42, 127
1, 271079, Note_on_c, 9, 42, 0
1, 271080, Note_on_c, 9, 42, 127
1, 271199, Note_on_c, 9, 36, 0
1, 271199, Note_on_c, 9, 42, 0
1, 271200, Note_on_c, 9, 38, 127
1, 271200, Note_on_c, 9, 42, 127
1, 271319, Note_on_c, 9, 38, 0
1, 271319, Note_on_c, 9, 42, 0
1, 271320, Note_on_c, 9, 42, 127
1, 271439, Note_on_c, 9, 42, 0
1, 271440, Note_on_c, 9, 42, 127
1, 271559, Note_on_c, 9, 42, 0
1, 271560, Note_on_c, 9, 42, 127
1, 271679, Note_on_c, 9, 42, 0
1, 271680, Note_on_c, 9, 42, 127
1, 271680, Note_on_c, 9, 36, 127
1, 271799, Note_on_c, 9, 42, 0
1, 271800, Note_on_c, 9, 42, 127
1, 271919, Note_on_c, 9, 42, 0
1, 271920, Note_on_c, 9, 42, 127
1, 272039, Note_on_c, 9, 42, 0
1, 272040, Note_on_c, 9, 42, 127
1, 272159, Note_on_c, 9, 36, 0
1, 272159, Note_on_c, 9, 42, 0
1, 272160, Note_on_c, 9, 38, 127
1, 272160, Note_on_c, 9, 42, 120
1, 272279, Note_on_c, 9, 38, 0
1, 272279, Note_on_c, 9, 42, 0
1, 272280, Note_on_c, 9, 42, 120
1, 272399, Note_on_c, 9, 42, 0
1, 272400, Note_on_c, 9, 42, 120
1, 272519, Note_on_c, 9, 42, 0
1, 272520, Note_on_c, 9, 42, 120
1, 272639, Note_on_c, 9, 42, 0
1, 272640, Note_on_c, 9, 42, 127
1, 272640, Note_on_c, 9, 36, 127
1, 272759, Note_on_c, 9, 42, 0
1, 272760, Note_on_c, 9, 42, 127
1, 272879, Note_on_c, 9, 42, 0
1, 272880, Note_on_c, 9, 42, 127
1, 272999, Note_on_c, 9, 42, 0
1, 273000, Note_on_c, 9, 42, 127
1, 273119, Note_on_c, 9, 36, 0
1, 273119, Note_on_c, 9, 42, 0
1, 273120, Note_on_c, 9, 38, 127
1, 273120, Note_on_c, 9, 42, 127
1, 273239, Note_on_c, 9, 38, 0
1, 273239, Note_on_c, 9, 42, 0
1, 273240, Note_on_c, 9, 42, 127
1, 273359, Note_on_c, 9, 42, 0
1, 273360, Note_on_c, 9, 42, 127
1, 273479, Note_on_c, 9, 42, 0
1, 273480, Note_on_c, 9, 42, 127
1, 273599, Note_on_c, 9, 42, 0
1, 273600, Note_on_c, 9, 42, 127
1, 273600, Note_on_c, 9, 36, 127
1, 273719, Note_on_c, 9, 42, 0
1, 273720, Note_on_c, 9, 42, 127
1, 273839, Note_on_c, 9, 42, 0
1, 273840, Note_on_c, 9, 42, 127
1, 273959, Note_on_c, 9, 42, 0
1, 273960, Note_on_c, 9, 42, 127
1, 274079, Note_on_c, 9, 36, 0
1, 274079, Note_on_c, 9, 42, 0
1, 274080, Note_on_c, 9, 38, 127
1, 274080, Note_on_c, 9, 42, 127
1, 274199, Note_on_c, 9, 38, 0
1, 274199, Note_on_c, 9, 42, 0
1, 274200, Note_on_c, 9, 42, 127
1, 274319, Note_on_c, 9, 42, 0
1, 274320, Note_on_c, 9, 42, 127
1, 274439, Note_on_c, 9, 42, 0
1, 274440, Note_on_c, 9, 42, 127
1, 274559, Note_on_c, 9, 42, 0
1, 274560, Note_on_c, 9, 42, 127
1, 274560, Note_on_c, 9, 36, 127
1, 274679, Note_on_c, 9, 42, 0
1, 274680, Note_on_c, 9, 42, 127
1, 274799, Note_on_c, 9, 42, 0
1, 274800, Note_on_c, 9, 42, 127
1, 274919, Note_on_c, 9, 42, 0
1, 274920, Note_on_c, 9, 42, 127
1, 275039, Note_on_c, 9, 36, 0
1, 275039, Note_on_c, 9, 42, 0
1, 275040, Note_on_c, 9, 38, 127
1, 275040, Note_on_c, 9, 42, 127
1, 275159, Note_on_c, 9, 38, 0
1, 275159, Note_on_c, 9, 42, 0
1, 275160, Note_on_c, 9, 42, 127
1, 275279, Note_on_c, 9, 42, 0
1, 275280, Note_on_c, 9, 42, 127
1, 275399, Note_on_c, 9, 42, 0
1, 275400, Note_on_c, 9, 42, 127
1, 275519, Note_on_c, 9, 42, 0
1, 275520, Note_on_c, 9, 42, 127
1, 275520, Note_on_c, 9, 36, 127
1, 275639, Note_on_c, 9, 42, 0
1, 275640, Note_on_c, 9, 42, 127
1, 275759, Note_on_c, 9, 42, 0
1, 275760, Note_on_c, 9, 42, 127
1, 275879, Note_on_c, 9, 36, 0
1, 275879, Note_on_c, 9, 42, 0
1, 275880, Note_on_c, 9, 42, 127
1, 275880, Note_on_c, 9, 36, 120
1, 275999, Note_on_c, 9, 42, 0
1, 275999, Note_on_c, 9, 36, 0
1, 276000, Note_on_c, 9, 38, 127
1, 276000, Note_on_c, 9, 42, 127
1, 276239, Note_on_c, 9, 38, 0
1, 276239, Note_on_c, 9, 42, 0
1, 276240, Note_on_c, 9, 38, 120
1, 276240, Note_on_c, 9, 42, 127
1, 276479, Note_on_c, 9, 38, 0
1, 276479, Note_on_c, 9, 42, 0
1, 276480, Note_on_c, 9, 42, 127
1, 276480, Note_on_c, 9, 49, 120
1, 276480, Note_on_c, 9, 36, 127
1, 276599, Note_on_c, 9, 42, 0
1, 276599, Note_on_c, 9, 49, 0
1, 276600, Note_on_c, 9, 42, 127
1, 276719, Note_on_c, 9, 42, 0
1, 276720, Note_on_c, 9, 42, 127
1, 276839, Note_on_c, 9, 42, 0
1, 276840, Note_on_c, 9, 42, 127
1, 276959, Note_on_c, 9, 36, 0
1, 276959, Note_on_c, 9, 42, 0
1, 276960, Note_on_c, 9, 38, 127
1, 276960, Note_on_c, 9, 42, 127
1, 277079, Note_on_c, 9, 38, 0
1, 277079, Note_on_c, 9, 42, 0
1, 277080, Note_on_c, 9, 42, 127
1, 277199, Note_on_c, 9, 42, 0
1, 277200, Note_on_c, 9, 42, 127
1, 277319, Note_on_c, 9, 42, 0
1, 277320, Note_on_c, 9, 42, 127
1, 277439, Note_on_c, 9, 42, 0
1, 277440, Note_on_c, 9, 42, 127
1, 277440, Note_on_c, 9, 36, 127
1, 277559, Note_on_c, 9, 42, 0
1, 277560, Note_on_c, 9, 42, 127
1, 277679, Note_on_c, 9, 42, 0
1, 277680, Note_on_c, 9, 42, 127
1, 277799, Note_on_c, 9, 42, 0
1, 277800, Note_on_c, 9, 42, 127
1, 277919, Note_on_c, 9, 36, 0
1, 277919, Note_on_c, 9, 42, 0
1, 277920, Note_on_c, 9, 38, 127
1, 277920, Note_on_c, 9, 42, 127
1, 278039, Note_on_c, 9, 38, 0
1, 278039, Note_on_c, 9, 42, 0
1, 278040, Note_on_c, 9, 42, 127
1, 278159, Note_on_c, 9, 42, 0
1, 278160, Note_on_c, 9, 42, 127
1, 278279, Note_on_c, 9, 42, 0
1, 278280, Note_on_c, 9, 42, 127
1, 278399, Note_on_c, 9, 42, 0
1, 278400, Note_on_c, 9, 42, 127
1, 278400, Note_on_c, 9, 36, 127
1, 278519, Note_on_c, 9, 42, 0
1, 278520, Note_on_c, 9, 42, 127
1, 278639, Note_on_c, 9, 42, 0
1, 278640, Note_on_c, 9, 42, 127
1, 278759, Note_on_c, 9, 42, 0
1, 278760, Note_on_c, 9, 42, 127
1, 278879, Note_on_c, 9, 36, 0
1, 278879, Note_on_c, 9, 42, 0
1, 278880, Note_on_c, 9, 38, 127
1, 278880, Note_on_c, 9, 42, 127
1, 278999, Note_on_c, 9, 38, 0
1, 278999, Note_on_c, 9, 42, 0
1, 279000, Note_on_c, 9, 42, 127
1, 279119, Note_on_c, 9, 42, 0
1, 279120, Note_on_c, 9, 42, 127
1, 279239, Note_on_c, 9, 42, 0
1, 279240, Note_on_c, 9, 42, 127
1, 279359, Note_on_c, 9, 42, 0
1, 279360, Note_on_c, 9, 42, 127
1, 279360, Note_on_c, 9, 36, 127
1, 279479, Note_on_c, 9, 42, 0
1, 279480, Note_on_c, 9, 42, 127
1, 279599, Note_on_c, 9, 42, 0
1, 279600, Note_on_c, 9, 42, 127
1, 279719, Note_on_c, 9, 36, 0
1, 279719, Note_on_c, 9, 42, 0
1, 279720, Note_on_c, 9, 42, 127
1, 279720, Note_on_c, 9, 36, 127
1, 279839, Note_on_c, 9, 42, 0
1, 279839, Note_on_c, 9, 36, 0
1, 279840, Note_on_c, 9, 38, 127
1, 280079, Note_on_c, 9, 38, 0
1, 280080, Note_on_c, 9, 38, 127
1, 280080, Note_on_c, 9, 49, 127
1, 280319, Note_on_c, 9, 38, 0
1, 280319, Note_on_c, 9, 49, 0
1, 280320, Note_on_c, 9, 42, 127
1, 280320, Note_on_c, 9, 36, 127
1, 280439, Note_on_c, 9, 42, 0
1, 280440, Note_on_c, 9, 42, 127
1, 280559, Note_on_c, 9, 42, 0
1, 280560, Note_on_c, 9, 42, 127
1, 280679, Note_on_c, 9, 42, 0
1, 280680, Note_on_c, 9, 42, 127
1, 280799, Note_on_c, 9, 36, 0
1, 280799, Note_on_c, 9, 42, 0
1, 280800, Note_on_c, 9, 38, 127
1, 280800, Note_on_c, 9, 42, 127
1, 280919, Note_on_c, 9, 38, 0
1, 280919, Note_on_c, 9, 42, 0
1, 280920, Note_on_c, 9, 42, 127
1, 281039, Note_on_c, 9, 42, 0
1, 281040, Note_on_c, 9, 42, 127
1, 281159, Note_on_c, 9, 42, 0
1, 281160, Note_on_c, 9, 42, 127
1, 281279, Note_on_c, 9, 42, 0
1, 281280, Note_on_c, 9, 42, 127
1, 281280, Note_on_c, 9, 36, 127
1, 281399, Note_on_c, 9, 42, 0
1, 281400, Note_on_c, 9, 42, 127
1, 281519, Note_on_c, 9, 42, 0
1, 281520, Note_on_c, 9, 42, 127
1, 281639, Note_on_c, 9, 42, 0
1, 281640, Note_on_c, 9, 42, 127
1, 281759, Note_on_c, 9, 36, 0
1, 281759, Note_on_c, 9, 42, 0
1, 281760, Note_on_c, 9, 38, 127
1, 281760, Note_on_c, 9, 42, 127
1, 281879, Note_on_c, 9, 38, 0
1, 281879, Note_on_c, 9, 42, 0
1, 281880, Note_on_c, 9, 42, 127
1, 281999, Note_on_c, 9, 42, 0
1, 282000, Note_on_c, 9, 42, 127
1, 282119, Note_on_c, 9, 42, 0
1, 282120, Note_on_c, 9, 42, 127
1, 282239, Note_on_c, 9, 42, 0
1, 282240, Note_on_c, 9, 42, 127
1, 282240, Note_on_c, 9, 36, 127
1, 282359, Note_on_c, 9, 42, 0
1, 282360, Note_on_c, 9, 42, 127
1, 282479, Note_on_c, 9, 42, 0
1, 282480, Note_on_c, 9, 42, 127
1, 282599, Note_on_c, 9, 42, 0
1, 282600, Note_on_c, 9, 42, 127
1, 282719, Note_on_c, 9, 36, 0
1, 282719, Note_on_c, 9, 42, 0
1, 282720, Note_on_c, 9, 38, 127
1, 282720, Note_on_c, 9, 42, 127
1, 282839, Note_on_c, 9, 38, 0
1, 282839, Note_on_c, 9, 42, 0
1, 282840, Note_on_c, 9, 42, 127
1, 282959, Note_on_c, 9, 42, 0
1, 282960, Note_on_c, 9, 42, 127
1, 283079, Note_on_c, 9, 42, 0
1, 283080, Note_on_c, 9, 42, 127
1, 283199, Note_on_c, 9, 42, 0
1, 283200, Note_on_c, 9, 42, 127
1, 283200, Note_on_c, 9, 36, 127
1, 283319, Note_on_c, 9, 42, 0
1, 283320, Note_on_c, 9, 42, 127
1, 283439, Note_on_c, 9, 42, 0
1, 283440, Note_on_c, 9, 42, 127
1, 283559, Note_on_c, 9, 36, 0
1, 283559, Note_on_c, 9, 42, 0
1, 283560, Note_on_c, 9, 42, 127
1, 283560, Note_on_c, 9, 36, 120
1, 283679, Note_on_c, 9, 42, 0
1, 283679, Note_on_c, 9, 36, 0
1, 283680, Note_on_c, 9, 38, 127
1, 283680, Note_on_c, 9, 42, 127
1, 283919, Note_on_c, 9, 38, 0
1, 283919, Note_on_c, 9, 42, 0
1, 283920, Note_on_c, 9, 38, 120
1, 283920, Note_on_c, 9, 42, 127
1, 284159, Note_on_c, 9, 38, 0
1, 284159, Note_on_c, 9, 42, 0
1, 284160, Note_on_c, 9, 42, 127
1, 284160, Note_on_c, 9, 36, 127
1, 284279, Note_on_c, 9, 42, 0
1, 284280, Note_on_c, 9, 42, 127
1, 284399, Note_on_c, 9, 42, 0
1, 284400, Note_on_c, 9, 42, 127
1, 284519, Note_on_c, 9, 42, 0
1, 284520, Note_on_c, 9, 42, 127
1, 284639, Note_on_c, 9, 36, 0
1, 284639, Note_on_c, 9, 42, 0
1, 284640, Note_on_c, 9, 38, 127
1, 284640, Note_on_c, 9, 42, 127
1, 284759, Note_on_c, 9, 38, 0
1, 284759, Note_on_c, 9, 42, 0
1, 284760, Note_on_c, 9, 42, 127
1, 284879, Note_on_c, 9, 42, 0
1, 284880, Note_on_c, 9, 42, 127
1, 284999, Note_on_c, 9, 42, 0
1, 285000, Note_on_c, 9, 42, 127
1, 285119, Note_on_c, 9, 42, 0
1, 285120, Note_on_c, 9, 46, 120
1, 285120, Note_on_c, 9, 36, 127
1, 285359, Note_on_c, 9, 46, 0
1, 285360, Note_on_c, 9, 42, 120
1, 285599, Note_on_c, 9, 36, 0
1, 285599, Note_on_c, 9, 42, 0
1, 285600, Note_on_c, 9, 38, 127
1, 285600, Note_on_c, 9, 42, 127
1, 285719, Note_on_c, 9, 38, 0
1, 285719, Note_on_c, 9, 42, 0
1, 285720, Note_on_c, 9, 42, 127
1, 285839, Note_on_c, 9, 42, 0
1, 285840, Note_on_c, 9, 42, 127
1, 285959, Note_on_c, 9, 42, 0
1, 285960, Note_on_c, 9, 42, 127
1, 286079, Note_on_c, 9, 42, 0
1, 286080, Note_on_c, 9, 54, 78
1, 286080, Note_on_c, 9, 42, 127
1, 286080, Note_on_c, 9, 36, 127
1, 286199, Note_on_c, 9, 54, 0
1, 286199, Note_on_c, 9, 42, 0
1, 286200, Note_on_c, 9, 54, 78
1, 286200, Note_on_c, 9, 42, 127
1, 286319, Note_on_c, 9, 54, 0
1, 286319, Note_on_c, 9, 42, 0
1, 286320, Note_on_c, 9, 54, 78
1, 286320, Note_on_c, 9, 42, 127
1, 286439, Note_on_c, 9, 54, 0
1, 286439, Note_on_c, 9, 42, 0
1, 286440, Note_on_c, 9, 54, 78
1, 286440, Note_on_c, 9, 42, 127
1, 286559, Note_on_c, 9, 36, 0
1, 286559, Note_on_c, 9, 54, 0
1, 286559, Note_on_c, 9, 42, 0
1, 286560, Note_on_c, 9, 38, 127
1, 286560, Note_on_c, 9, 42, 127
1, 286679, Note_on_c, 9, 38, 0
1, 286679, Note_on_c, 9, 42, 0
1, 286680, Note_on_c, 9, 42, 127
1, 286799, Note_on_c, 9, 42, 0
1, 286800, Note_on_c, 9, 42, 127
1, 286919, Note_on_c, 9, 42, 0
1, 286920, Note_on_c, 9, 42, 127
1, 287039, Note_on_c, 9, 42, 0
1, 287040, Note_on_c, 9, 42, 127
1, 287040, Note_on_c, 9, 36, 127
1, 287159, Note_on_c, 9, 42, 0
1, 287160, Note_on_c, 9, 42, 127
1, 287279, Note_on_c, 9, 42, 0
1, 287280, Note_on_c, 9, 42, 127
1, 287399, Note_on_c, 9, 42, 0
1, 287400, Note_on_c, 9, 42, 127
1, 287519, Note_on_c, 9, 36, 0
1, 287519, Note_on_c, 9, 42, 0
1, 287520, Note_on_c, 9, 38, 127
1, 287520, Note_on_c, 9, 42, 127
1, 287639, Note_on_c, 9, 38, 0
1, 287639, Note_on_c, 9, 42, 0
1, 287640, Note_on_c, 9, 42, 127
1, 287759, Note_on_c, 9, 42, 0
1, 287760, Note_on_c, 9, 42, 127
1, 287879, Note_on_c, 9, 42, 0
1, 287880, Note_on_c, 9, 42, 127
1, 287999, Note_on_c, 9, 42, 0
1, 288000, Note_on_c, 9, 54, 78
1, 288000, Note_on_c, 9, 42, 127
1, 288000, Note_on_c, 9, 36, 127
1, 288119, Note_on_c, 9, 54, 0
1, 288119, Note_on_c, 9, 42, 0
1, 288120, Note_on_c, 9, 54, 78
1, 288120, Note_on_c, 9, 42, 127
1, 288239, Note_on_c, 9, 54, 0
1, 288239, Note_on_c, 9, 42, 0
1, 288240, Note_on_c, 9, 54, 78
1, 288240, Note_on_c, 9, 42, 127
1, 288359, Note_on_c, 9, 54, 0
1, 288359, Note_on_c, 9, 42, 0
1, 288360, Note_on_c, 9, 54, 78
1, 288360, Note_on_c, 9, 42, 127
1, 288479, Note_on_c, 9, 36, 0
1, 288479, Note_on_c, 9, 54, 0
1, 288479, Note_on_c, 9, 42, 0
1, 288480, Note_on_c, 9, 38, 127
1, 288480, Note_on_c, 9, 42, 127
1, 288599, Note_on_c, 9, 38, 0
1, 288599, Note_on_c, 9, 42, 0
1, 288600, Note_on_c, 9, 42, 127
1, 288719, Note_on_c, 9, 42, 0
1, 288720, Note_on_c, 9, 42, 127
1, 288839, Note_on_c, 9, 42, 0
1, 288840, Note_on_c, 9, 42, 127
1, 288959, Note_on_c, 9, 42, 0
1, 288960, Note_on_c, 9, 42, 127
1, 288960, Note_on_c, 9, 36, 127
1, 289079, Note_on_c, 9, 42, 0
1, 289080, Note_on_c, 9, 42, 127
1, 289199, Note_on_c, 9, 42, 0
1, 289200, Note_on_c, 9, 42, 127
1, 289319, Note_on_c, 9, 42, 0
1, 289320, Note_on_c, 9, 42, 127
1, 289439, Note_on_c, 9, 36, 0
1, 289439, Note_on_c, 9, 42, 0
1, 289440, Note_on_c, 9, 38, 127
1, 289440, Note_on_c, 9, 42, 127
1, 289559, Note_on_c, 9, 38, 0
1, 289559, Note_on_c, 9, 42, 0
1, 289560, Note_on_c, 9, 42, 127
1, 289679, Note_on_c, 9, 42, 0
1, 289680, Note_on_c, 9, 42, 127
1, 289799, Note_on_c, 9, 42, 0
1, 289800, Note_on_c, 9, 42, 127
1, 289919, Note_on_c, 9, 42, 0
1, 289920, Note_on_c, 9, 54, 78
1, 289920, Note_on_c, 9, 42, 127
1, 289920, Note_on_c, 9, 36, 127
1, 290039, Note_on_c, 9, 54, 0
1, 290039, Note_on_c, 9, 42, 0
1, 290040, Note_on_c, 9, 54, 78
1, 290040, Note_on_c, 9, 42, 127
1, 290159, Note_on_c, 9, 54, 0
1, 290159, Note_on_c, 9, 42, 0
1, 290160, Note_on_c, 9, 54, 78
1, 290160, Note_on_c, 9, 42, 127
1, 290279, Note_on_c, 9, 54, 0
1, 290279, Note_on_c, 9, 42, 0
1, 290280, Note_on_c, 9, 54, 78
1, 290280, Note_on_c, 9, 42, 127
1, 290399, Note_on_c, 9, 36, 0
1, 290399, Note_on_c, 9, 54, 0
1, 290399, Note_on_c, 9, 42, 0
1, 290400, Note_on_c, 9, 38, 127
1, 290400, Note_on_c, 9, 42, 127
1, 290519, Note_on_c, 9, 38, 0
1, 290519, Note_on_c, 9, 42, 0
1, 290520, Note_on_c, 9, 42, 127
1, 290639, Note_on_c, 9, 42, 0
1, 290640, Note_on_c, 9, 42, 127
1, 290759, Note_on_c, 9, 42, 0
1, 290760, Note_on_c, 9, 42, 127
1, 290879, Note_on_c, 9, 42, 0
1, 290880, Note_on_c, 9, 42, 127
1, 290880, Note_on_c, 9, 36, 127
1, 290999, Note_on_c, 9, 42, 0
1, 291000, Note_on_c, 9, 42, 127
1, 291119, Note_on_c, 9, 42, 0
1, 291120, Note_on_c, 9, 42, 127
1, 291239, Note_on_c, 9, 42, 0
1, 291240, Note_on_c, 9, 42, 127
1, 291359, Note_on_c, 9, 36, 0
1, 291359, Note_on_c, 9, 42, 0
1, 291360, Note_on_c, 9, 38, 127
1, 291360, Note_on_c, 9, 49, 120
1, 291839, Note_on_c, 9, 38, 0
1, 291839, Note_on_c, 9, 49, 0
1, 291840, Note_on_c, 9, 54, 78
1, 291840, Note_on_c, 9, 42, 127
1, 291840, Note_on_c, 9, 36, 127
1, 291959, Note_on_c, 9, 54, 0
1, 291959, Note_on_c, 9, 42, 0
1, 291960, Note_on_c, 9, 54, 78
1, 291960, Note_on_c, 9, 42, 127
1, 292079, Note_on_c, 9, 54, 0
1, 292079, Note_on_c, 9, 42, 0
1, 292080, Note_on_c, 9, 54, 78
1, 292080, Note_on_c, 9, 42, 127
1, 292199, Note_on_c, 9, 54, 0
1, 292199, Note_on_c, 9, 42, 0
1, 292200, Note_on_c, 9, 54, 78
1, 292200, Note_on_c, 9, 42, 127
1, 292319, Note_on_c, 9, 36, 0
1, 292319, Note_on_c, 9, 54, 0
1, 292319, Note_on_c, 9, 42, 0
1, 292320, Note_on_c, 9, 38, 127
1, 292320, Note_on_c, 9, 42, 127
1, 292439, Note_on_c, 9, 38, 0
1, 292439, Note_on_c, 9, 42, 0
1, 292440, Note_on_c, 9, 42, 127
1, 292559, Note_on_c, 9, 42, 0
1, 292560, Note_on_c, 9, 42, 127
1, 292679, Note_on_c, 9, 42, 0
1, 292680, Note_on_c, 9, 42, 127
1, 292799, Note_on_c, 9, 42, 0
1, 292800, Note_on_c, 9, 42, 127
1, 292800, Note_on_c, 9, 36, 127
1, 292919, Note_on_c, 9, 42, 0
1, 292920, Note_on_c, 9, 42, 127
1, 293039, Note_on_c, 9, 42, 0
1, 293040, Note_on_c, 9, 42, 127
1, 293159, Note_on_c, 9, 42, 0
1, 293160, Note_on_c, 9, 42, 127
1, 293279, Note_on_c, 9, 36, 0
1, 293279, Note_on_c, 9, 42, 0
1, 293280, Note_on_c, 9, 38, 127
1, 293280, Note_on_c, 9, 42, 127
1, 293399, Note_on_c, 9, 38, 0
1, 293399, Note_on_c, 9, 42, 0
1, 293400, Note_on_c, 9, 42, 127
1, 293519, Note_on_c, 9, 42, 0
1, 293520, Note_on_c, 9, 42, 127
1, 293639, Note_on_c, 9, 42, 0
1, 293640, Note_on_c, 9, 42, 127
1, 293759, Note_on_c, 9, 42, 0
1, 293760, Note_on_c, 9, 54, 78
1, 293760, Note_on_c, 9, 42, 127
1, 293760, Note_on_c, 9, 36, 127
1, 293879, Note_on_c, 9, 54, 0
1, 293879, Note_on_c, 9, 42, 0
1, 293880, Note_on_c, 9, 54, 78
1, 293880, Note_on_c, 9, 42, 127
1, 293999, Note_on_c, 9, 54, 0
1, 293999, Note_on_c, 9, 42, 0
1, 294000, Note_on_c, 9, 54, 78
1, 294000, Note_on_c, 9, 42, 127
1, 294119, Note_on_c, 9, 54, 0
1, 294119, Note_on_c, 9, 42, 0
1, 294120, Note_on_c, 9, 54, 78
1, 294120, Note_on_c, 9, 42, 127
1, 294239, Note_on_c, 9, 36, 0
1, 294239, Note_on_c, 9, 54, 0
1, 294239, Note_on_c, 9, 42, 0
1, 294240, Note_on_c, 9, 38, 127
1, 294240, Note_on_c, 9, 42, 127
1, 294359, Note_on_c, 9, 38, 0
1, 294359, Note_on_c, 9, 42, 0
1, 294360, Note_on_c, 9, 42, 127
1, 294479, Note_on_c, 9, 42, 0
1, 294480, Note_on_c, 9, 42, 127
1, 294599, Note_on_c, 9, 42, 0
1, 294600, Note_on_c, 9, 42, 127
1, 294719, Note_on_c, 9, 42, 0
1, 294720, Note_on_c, 9, 42, 127
1, 294720, Note_on_c, 9, 36, 127
1, 294839, Note_on_c, 9, 42, 0
1, 294840, Note_on_c, 9, 42, 127
1, 294959, Note_on_c, 9, 42, 0
1, 294960, Note_on_c, 9, 42, 127
1, 295079, Note_on_c, 9, 42, 0
1, 295080, Note_on_c, 9, 42, 127
1, 295199, Note_on_c, 9, 36, 0
1, 295199, Note_on_c, 9, 42, 0
1, 295200, Note_on_c, 9, 38, 127
1, 295200, Note_on_c, 9, 42, 127
1, 295319, Note_on_c, 9, 38, 0
1, 295319, Note_on_c, 9, 42, 0
1, 295320, Note_on_c, 9, 45, 120
1, 295320, Note_on_c, 9, 48, 120
1, 295320, Note_on_c, 9, 42, 127
1, 295439, Note_on_c, 9, 45, 0
1, 295439, Note_on_c, 9, 48, 0
1, 295439, Note_on_c, 9, 42, 0
1, 295440, Note_on_c, 9, 41, 120
1, 295440, Note_on_c, 9, 45, 120
1, 295440, Note_on_c, 9, 42, 127
1, 295559, Note_on_c, 9, 41, 0
1, 295559, Note_on_c, 9, 45, 0
1, 295559, Note_on_c, 9, 42, 0
1, 295560, Note_on_c, 9, 41, 120
1, 295560, Note_on_c, 9, 42, 127
1, 295679, Note_on_c, 9, 41, 0
1, 295679, Note_on_c, 9, 42, 0
1, 295680, Note_on_c, 9, 46, 120
1, 295680, Note_on_c, 9, 49, 120
1, 295680, Note_on_c, 9, 36, 120
1, 296159, Note_on_c, 9, 46, 0
1, 296159, Note_on_c, 9, 49, 0
1, 296159, Note_on_c, 9, 36, 0
1, 296160, End_track
0, 0, End_of_file
