0, 0, Header, 1, 1, 480
1, 0, Start_track
1, 0, Time_signature, 4, 2, 24, 8
1, 0, Key_signature, 0, "major"
1, 0, Tempo, 495868
1, 0, Control_c, 9, 121, 0
1, 0, Program_c, 9, 0
1, 0, Control_c, 9, 7, 100
1, 0, Control_c, 9, 10, 64
1, 0, Control_c, 9, 91, 0
1, 0, Control_c, 9, 93, 0
1, 0, MIDI_port, 0
1, 0, Note_on_c, 9, 42, 127
1, 479, Note_on_c, 9, 42, 0
1, 480, Note_on_c, 9, 42, 60
1, 959, Note_on_c, 9, 42, 0
1, 960, Note_on_c, 9, 42, 108
1, 1439, Note_on_c, 9, 42, 0
1, 1440, Note_on_c, 9, 42, 45
1, 1919, Note_on_c, 9, 42, 0
1, 1920, Note_on_c, 9, 53, 88
1, 1920, Note_on_c, 9, 81, 81
1, 1920, Note_on_c, 9, 35, 74
1, 2399, Note_on_c, 9, 53, 0
1, 2399, Note_on_c, 9, 81, 0
1, 2399, Note_on_c, 9, 35, 0
1, 2400, Note_on_c, 9, 40, 52
1, 2400, Note_on_c, 9, 53, 42
1, 2414, Note_on_c, 9, 40, 0
1, 2414, Note_on_c, 9, 53, 0
1, 2415, Note_on_c, 9, 37, 88
1, 2639, Note_on_c, 9, 37, 0
1, 2880, Note_on_c, 9, 53, 78
1, 2880, Note_on_c, 9, 35, 76
1, 3329, Note_on_c, 9, 53, 0
1, 3330, Note_on_c, 9, 53, 53
1, 3359, Note_on_c, 9, 35, 0
1, 3359, Note_on_c, 9, 53, 0
1, 3360, Note_on_c, 9, 37, 88
1, 3360, Note_on_c, 9, 40, 52
1, 3839, Note_on_c, 9, 37, 0
1, 3839, Note_on_c, 9, 40, 0
1, 3840, Note_on_c, 9, 53, 92
1, 3855, Note_on_c, 9, 35, 80
1, 4079, Note_on_c, 9, 35, 0
1, 4319, Note_on_c, 9, 53, 0
1, 4320, Note_on_c, 9, 37, 97
1, 4320, Note_on_c, 9, 40, 62
1, 4320, Note_on_c, 9, 53, 61
1, 4769, Note_on_c, 9, 37, 0
1, 4769, Note_on_c, 9, 40, 0
1, 4769, Note_on_c, 9, 53, 0
1, 4785, Note_on_c, 9, 53, 81
1, 4799, Note_on_c, 9, 53, 0
1, 4800, Note_on_c, 9, 35, 78
1, 5040, Note_on_c, 9, 47, 101
1, 5279, Note_on_c, 9, 35, 0
1, 5279, Note_on_c, 9, 47, 0
1, 5535, Note_on_c, 9, 38, 110
1, 5759, Note_on_c, 9, 38, 0
1, 5760, Note_on_c, 9, 53, 86
1, 5760, Note_on_c, 9, 81, 81
1, 5760, Note_on_c, 9, 35, 102
1, 5999, Note_on_c, 9, 35, 0
1, 6000, Note_on_c, 9, 35, 78
1, 6239, Note_on_c, 9, 53, 0
1, 6239, Note_on_c, 9, 81, 0
1, 6239, Note_on_c, 9, 35, 0
1, 6240, Note_on_c, 9, 37, 96
1, 6240, Note_on_c, 9, 40, 61
1, 6240, Note_on_c, 9, 53, 57
1, 6719, Note_on_c, 9, 37, 0
1, 6719, Note_on_c, 9, 40, 0
1, 6719, Note_on_c, 9, 53, 0
1, 6720, Note_on_c, 9, 53, 86
1, 6750, Note_on_c, 9, 35, 71
1, 7199, Note_on_c, 9, 53, 0
1, 7199, Note_on_c, 9, 35, 0
1, 7215, Note_on_c, 9, 37, 99
1, 7215, Note_on_c, 9, 40, 64
1, 7215, Note_on_c, 9, 53, 59
1, 7439, Note_on_c, 9, 37, 0
1, 7439, Note_on_c, 9, 40, 0
1, 7439, Note_on_c, 9, 53, 0
1, 7680, Note_on_c, 9, 53, 92
1, 7680, Note_on_c, 9, 35, 68
1, 8159, Note_on_c, 9, 53, 0
1, 8159, Note_on_c, 9, 35, 0
1, 8160, Note_on_c, 9, 40, 64
1, 8160, Note_on_c, 9, 35, 52
1, 8190, Note_on_c, 9, 37, 99
1, 8190, Note_on_c, 9, 53, 56
1, 8639, Note_on_c, 9, 40, 0
1, 8639, Note_on_c, 9, 35, 0
1, 8639, Note_on_c, 9, 37, 0
1, 8639, Note_on_c, 9, 53, 0
1, 8640, Note_on_c, 9, 53, 83
1, 8640, Note_on_c, 9, 35, 70
1, 8864, Note_on_c, 9, 53, 0
1, 8865, Note_on_c, 9, 45, 87
1, 8879, Note_on_c, 9, 45, 0
1, 9119, Note_on_c, 9, 35, 0
1, 9345, Note_on_c, 9, 38, 89
1, 9539, Note_on_c, 9, 38, 0
1, 9570, Note_on_c, 9, 63, 73
1, 9570, Note_on_c, 9, 42, 55
1, 9570, Note_on_c, 9, 35, 79
1, 9599, Note_on_c, 9, 63, 0
1, 9599, Note_on_c, 9, 42, 0
1, 9599, Note_on_c, 9, 35, 0
1, 9825, Note_on_c, 9, 64, 48
1, 9825, Note_on_c, 9, 62, 57
1, 9929, Note_on_c, 9, 64, 0
1, 9929, Note_on_c, 9, 62, 0
1, 9945, Note_on_c, 9, 62, 50
1, 9959, Note_on_c, 9, 62, 0
1, 10080, Note_on_c, 9, 38, 91
1, 10080, Note_on_c, 9, 62, 96
1, 10080, Note_on_c, 9, 44, 83
1, 10319, Note_on_c, 9, 38, 0
1, 10319, Note_on_c, 9, 62, 0
1, 10320, Note_on_c, 9, 64, 48
1, 10320, Note_on_c, 9, 63, 49
1, 10320, Note_on_c, 9, 42, 62
1, 10439, Note_on_c, 9, 64, 0
1, 10439, Note_on_c, 9, 63, 0
1, 10439, Note_on_c, 9, 42, 0
1, 10440, Note_on_c, 9, 63, 30
1, 10440, Note_on_c, 9, 42, 17
1, 10559, Note_on_c, 9, 44, 0
1, 10559, Note_on_c, 9, 63, 0
1, 10559, Note_on_c, 9, 42, 0
1, 10560, Note_on_c, 9, 63, 73
1, 10560, Note_on_c, 9, 42, 80
1, 10560, Note_on_c, 9, 35, 84
1, 10799, Note_on_c, 9, 63, 0
1, 10799, Note_on_c, 9, 42, 0
1, 10799, Note_on_c, 9, 35, 0
1, 10800, Note_on_c, 9, 64, 48
1, 10800, Note_on_c, 9, 62, 57
1, 10800, Note_on_c, 9, 42, 61
1, 10800, Note_on_c, 9, 35, 53
1, 10919, Note_on_c, 9, 64, 0
1, 10919, Note_on_c, 9, 62, 0
1, 10919, Note_on_c, 9, 42, 0
1, 10920, Note_on_c, 9, 62, 50
1, 10920, Note_on_c, 9, 42, 26
1, 11039, Note_on_c, 9, 35, 0
1, 11039, Note_on_c, 9, 62, 0
1, 11039, Note_on_c, 9, 42, 0
1, 11040, Note_on_c, 9, 38, 88
1, 11040, Note_on_c, 9, 62, 96
1, 11040, Note_on_c, 9, 42, 85
1, 11279, Note_on_c, 9, 38, 0
1, 11279, Note_on_c, 9, 62, 0
1, 11279, Note_on_c, 9, 42, 0
1, 11280, Note_on_c, 9, 64, 46
1, 11280, Note_on_c, 9, 63, 57
1, 11280, Note_on_c, 9, 42, 68
1, 11399, Note_on_c, 9, 64, 0
1, 11399, Note_on_c, 9, 63, 0
1, 11399, Note_on_c, 9, 42, 0
1, 11400, Note_on_c, 9, 63, 52
1, 11400, Note_on_c, 9, 42, 34
1, 11519, Note_on_c, 9, 63, 0
1, 11519, Note_on_c, 9, 42, 0
1, 11520, Note_on_c, 9, 63, 77
1, 11520, Note_on_c, 9, 42, 83
1, 11520, Note_on_c, 9, 35, 78
1, 11759, Note_on_c, 9, 63, 0
1, 11759, Note_on_c, 9, 42, 0
1, 11760, Note_on_c, 9, 64, 46
1, 11760, Note_on_c, 9, 62, 55
1, 11774, Note_on_c, 9, 64, 0
1, 11774, Note_on_c, 9, 62, 0
1, 11775, Note_on_c, 9, 42, 60
1, 11819, Note_on_c, 9, 42, 0
1, 11880, Note_on_c, 9, 62, 34
1, 11880, Note_on_c, 9, 42, 16
1, 11999, Note_on_c, 9, 35, 0
1, 11999, Note_on_c, 9, 62, 0
1, 11999, Note_on_c, 9, 42, 0
1, 12000, Note_on_c, 9, 38, 93
1, 12000, Note_on_c, 9, 62, 86
1, 12000, Note_on_c, 9, 42, 79
1, 12239, Note_on_c, 9, 38, 0
1, 12239, Note_on_c, 9, 62, 0
1, 12239, Note_on_c, 9, 42, 0
1, 12240, Note_on_c, 9, 64, 53
1, 12240, Note_on_c, 9, 63, 52
1, 12240, Note_on_c, 9, 42, 64
1, 12359, Note_on_c, 9, 64, 0
1, 12359, Note_on_c, 9, 63, 0
1, 12359, Note_on_c, 9, 42, 0
1, 12360, Note_on_c, 9, 63, 31
1, 12360, Note_on_c, 9, 42, 18
1, 12479, Note_on_c, 9, 63, 0
1, 12479, Note_on_c, 9, 42, 0
1, 12480, Note_on_c, 9, 63, 81
1, 12480, Note_on_c, 9, 42, 86
1, 12480, Note_on_c, 9, 35, 78
1, 12719, Note_on_c, 9, 63, 0
1, 12719, Note_on_c, 9, 42, 0
1, 12719, Note_on_c, 9, 35, 0
1, 12720, Note_on_c, 9, 64, 53
1, 12720, Note_on_c, 9, 62, 63
1, 12720, Note_on_c, 9, 42, 66
1, 12720, Note_on_c, 9, 35, 62
1, 12839, Note_on_c, 9, 64, 0
1, 12839, Note_on_c, 9, 62, 0
1, 12839, Note_on_c, 9, 42, 0
1, 12840, Note_on_c, 9, 62, 46
1, 12840, Note_on_c, 9, 42, 24
1, 12959, Note_on_c, 9, 35, 0
1, 12959, Note_on_c, 9, 62, 0
1, 12959, Note_on_c, 9, 42, 0
1, 12960, Note_on_c, 9, 38, 85
1, 12960, Note_on_c, 9, 62, 90
1, 12960, Note_on_c, 9, 42, 82
1, 13199, Note_on_c, 9, 38, 0
1, 13199, Note_on_c, 9, 62, 0
1, 13199, Note_on_c, 9, 42, 0
1, 13200, Note_on_c, 9, 64, 53
1, 13200, Note_on_c, 9, 63, 50
1, 13200, Note_on_c, 9, 42, 63
1, 13319, Note_on_c, 9, 64, 0
1, 13319, Note_on_c, 9, 63, 0
1, 13319, Note_on_c, 9, 42, 0
1, 13335, Note_on_c, 9, 63, 19
1, 13335, Note_on_c, 9, 44, 40
1, 13379, Note_on_c, 9, 63, 0
1, 13379, Note_on_c, 9, 44, 0
1, 13440, Note_on_c, 9, 63, 67
1, 13440, Note_on_c, 9, 42, 75
1, 13440, Note_on_c, 9, 35, 88
1, 13679, Note_on_c, 9, 63, 0
1, 13679, Note_on_c, 9, 42, 0
1, 13680, Note_on_c, 9, 64, 53
1, 13680, Note_on_c, 9, 62, 63
1, 13680, Note_on_c, 9, 42, 66
1, 13799, Note_on_c, 9, 64, 0
1, 13799, Note_on_c, 9, 62, 0
1, 13799, Note_on_c, 9, 42, 0
1, 13800, Note_on_c, 9, 62, 58
1, 13800, Note_on_c, 9, 42, 31
1, 13919, Note_on_c, 9, 35, 0
1, 13919, Note_on_c, 9, 62, 0
1, 13919, Note_on_c, 9, 42, 0
1, 13920, Note_on_c, 9, 38, 89
1, 13920, Note_on_c, 9, 62, 96
1, 13920, Note_on_c, 9, 42, 85
1, 14159, Note_on_c, 9, 38, 0
1, 14159, Note_on_c, 9, 62, 0
1, 14159, Note_on_c, 9, 42, 0
1, 14160, Note_on_c, 9, 64, 55
1, 14160, Note_on_c, 9, 63, 33
1, 14160, Note_on_c, 9, 42, 50
1, 14279, Note_on_c, 9, 64, 0
1, 14279, Note_on_c, 9, 63, 0
1, 14279, Note_on_c, 9, 42, 0
1, 14280, Note_on_c, 9, 63, 17
1, 14280, Note_on_c, 9, 42, 14
1, 14399, Note_on_c, 9, 63, 0
1, 14399, Note_on_c, 9, 42, 0
1, 14400, Note_on_c, 9, 63, 53
1, 14400, Note_on_c, 9, 42, 89
1, 14400, Note_on_c, 9, 35, 67
1, 14639, Note_on_c, 9, 63, 0
1, 14639, Note_on_c, 9, 42, 0
1, 14639, Note_on_c, 9, 35, 0
1, 14640, Note_on_c, 9, 64, 55
1, 14640, Note_on_c, 9, 62, 66
1, 14640, Note_on_c, 9, 42, 67
1, 14640, Note_on_c, 9, 35, 68
1, 14759, Note_on_c, 9, 64, 0
1, 14759, Note_on_c, 9, 62, 0
1, 14759, Note_on_c, 9, 42, 0
1, 14760, Note_on_c, 9, 62, 48
1, 14760, Note_on_c, 9, 42, 25
1, 14879, Note_on_c, 9, 35, 0
1, 14879, Note_on_c, 9, 62, 0
1, 14879, Note_on_c, 9, 42, 0
1, 14880, Note_on_c, 9, 38, 89
1, 14880, Note_on_c, 9, 62, 92
1, 14880, Note_on_c, 9, 42, 83
1, 15119, Note_on_c, 9, 38, 0
1, 15119, Note_on_c, 9, 62, 0
1, 15119, Note_on_c, 9, 42, 0
1, 15120, Note_on_c, 9, 64, 57
1, 15120, Note_on_c, 9, 63, 60
1, 15120, Note_on_c, 9, 42, 70
1, 15239, Note_on_c, 9, 64, 0
1, 15239, Note_on_c, 9, 63, 0
1, 15239, Note_on_c, 9, 42, 0
1, 15255, Note_on_c, 9, 63, 36
1, 15255, Note_on_c, 9, 42, 22
1, 15299, Note_on_c, 9, 63, 0
1, 15299, Note_on_c, 9, 42, 0
1, 15360, Note_on_c, 9, 63, 88
1, 15360, Note_on_c, 9, 42, 91
1, 15360, Note_on_c, 9, 35, 88
1, 15599, Note_on_c, 9, 63, 0
1, 15599, Note_on_c, 9, 42, 0
1, 15600, Note_on_c, 9, 64, 57
1, 15600, Note_on_c, 9, 62, 68
1, 15600, Note_on_c, 9, 42, 68
1, 15719, Note_on_c, 9, 64, 0
1, 15719, Note_on_c, 9, 62, 0
1, 15719, Note_on_c, 9, 42, 0
1, 15720, Note_on_c, 9, 62, 66
1, 15720, Note_on_c, 9, 42, 36
1, 15839, Note_on_c, 9, 35, 0
1, 15839, Note_on_c, 9, 62, 0
1, 15839, Note_on_c, 9, 42, 0
1, 15840, Note_on_c, 9, 38, 77
1, 15840, Note_on_c, 9, 62, 90
1, 15840, Note_on_c, 9, 42, 82
1, 16079, Note_on_c, 9, 38, 0
1, 16079, Note_on_c, 9, 62, 0
1, 16079, Note_on_c, 9, 42, 0
1, 16080, Note_on_c, 9, 64, 63
1, 16080, Note_on_c, 9, 63, 58
1, 16080, Note_on_c, 9, 42, 69
1, 16199, Note_on_c, 9, 64, 0
1, 16199, Note_on_c, 9, 63, 0
1, 16199, Note_on_c, 9, 42, 0
1, 16200, Note_on_c, 9, 63, 50
1, 16200, Note_on_c, 9, 42, 33
1, 16319, Note_on_c, 9, 63, 0
1, 16319, Note_on_c, 9, 42, 0
1, 16320, Note_on_c, 9, 63, 66
1, 16320, Note_on_c, 9, 42, 74
1, 16320, Note_on_c, 9, 35, 70
1, 16559, Note_on_c, 9, 63, 0
1, 16559, Note_on_c, 9, 42, 0
1, 16559, Note_on_c, 9, 35, 0
1, 16575, Note_on_c, 9, 64, 63
1, 16575, Note_on_c, 9, 62, 75
1, 16575, Note_on_c, 9, 42, 73
1, 16575, Note_on_c, 9, 35, 53
1, 16619, Note_on_c, 9, 64, 0
1, 16619, Note_on_c, 9, 62, 0
1, 16619, Note_on_c, 9, 42, 0
1, 16695, Note_on_c, 9, 62, 52
1, 16709, Note_on_c, 9, 62, 0
1, 16710, Note_on_c, 9, 42, 27
1, 16799, Note_on_c, 9, 35, 0
1, 16799, Note_on_c, 9, 42, 0
1, 16815, Note_on_c, 9, 62, 66
1, 16829, Note_on_c, 9, 62, 0
1, 16830, Note_on_c, 9, 38, 77
1, 16830, Note_on_c, 9, 42, 67
1, 16919, Note_on_c, 9, 38, 0
1, 16919, Note_on_c, 9, 42, 0
1, 17040, Note_on_c, 9, 64, 55
1, 17040, Note_on_c, 9, 63, 53
1, 17040, Note_on_c, 9, 42, 66
1, 17159, Note_on_c, 9, 64, 0
1, 17159, Note_on_c, 9, 63, 0
1, 17159, Note_on_c, 9, 42, 0
1, 17160, Note_on_c, 9, 63, 66
1, 17160, Note_on_c, 9, 42, 44
1, 17279, Note_on_c, 9, 63, 0
1, 17279, Note_on_c, 9, 42, 0
1, 17280, Note_on_c, 9, 63, 66
1, 17280, Note_on_c, 9, 42, 74
1, 17280, Note_on_c, 9, 35, 78
1, 17519, Note_on_c, 9, 63, 0
1, 17519, Note_on_c, 9, 42, 0
1, 17520, Note_on_c, 9, 64, 55
1, 17520, Note_on_c, 9, 62, 66
1, 17534, Note_on_c, 9, 64, 0
1, 17534, Note_on_c, 9, 62, 0
1, 17535, Note_on_c, 9, 42, 67
1, 17579, Note_on_c, 9, 42, 0
1, 17640, Note_on_c, 9, 62, 66
1, 17654, Note_on_c, 9, 62, 0
1, 17655, Note_on_c, 9, 42, 36
1, 17699, Note_on_c, 9, 42, 0
1, 17759, Note_on_c, 9, 35, 0
1, 17760, Note_on_c, 9, 62, 101
1, 17774, Note_on_c, 9, 62, 0
1, 17775, Note_on_c, 9, 38, 90
1, 17775, Note_on_c, 9, 42, 89
1, 17999, Note_on_c, 9, 38, 0
1, 17999, Note_on_c, 9, 42, 0
1, 18000, Note_on_c, 9, 64, 29
1, 18000, Note_on_c, 9, 63, 49
1, 18000, Note_on_c, 9, 42, 62
1, 18119, Note_on_c, 9, 64, 0
1, 18119, Note_on_c, 9, 63, 0
1, 18119, Note_on_c, 9, 42, 0
1, 18120, Note_on_c, 9, 63, 52
1, 18120, Note_on_c, 9, 42, 34
1, 18239, Note_on_c, 9, 63, 0
1, 18239, Note_on_c, 9, 42, 0
1, 18240, Note_on_c, 9, 63, 77
1, 18240, Note_on_c, 9, 42, 83
1, 18240, Note_on_c, 9, 35, 77
1, 18479, Note_on_c, 9, 63, 0
1, 18479, Note_on_c, 9, 42, 0
1, 18479, Note_on_c, 9, 35, 0
1, 18480, Note_on_c, 9, 64, 29
1, 18480, Note_on_c, 9, 62, 34
1, 18480, Note_on_c, 9, 35, 60
1, 18494, Note_on_c, 9, 64, 0
1, 18494, Note_on_c, 9, 62, 0
1, 18495, Note_on_c, 9, 42, 47
1, 18539, Note_on_c, 9, 42, 0
1, 18600, Note_on_c, 9, 62, 69
1, 18614, Note_on_c, 9, 62, 0
1, 18615, Note_on_c, 9, 42, 38
1, 18659, Note_on_c, 9, 42, 0
1, 18719, Note_on_c, 9, 35, 0
1, 18720, Note_on_c, 9, 62, 108
1, 18734, Note_on_c, 9, 62, 0
1, 18735, Note_on_c, 9, 38, 91
1, 18735, Note_on_c, 9, 42, 93
1, 18959, Note_on_c, 9, 38, 0
1, 18959, Note_on_c, 9, 42, 0
1, 18960, Note_on_c, 9, 64, 48
1, 18960, Note_on_c, 9, 63, 30
1, 18960, Note_on_c, 9, 42, 48
1, 19079, Note_on_c, 9, 64, 0
1, 19079, Note_on_c, 9, 63, 0
1, 19079, Note_on_c, 9, 42, 0
1, 19080, Note_on_c, 9, 63, 49
1, 19080, Note_on_c, 9, 42, 31
1, 19199, Note_on_c, 9, 63, 0
1, 19199, Note_on_c, 9, 42, 0
1, 19200, Note_on_c, 9, 63, 73
1, 19200, Note_on_c, 9, 42, 80
1, 19200, Note_on_c, 9, 35, 81
1, 19439, Note_on_c, 9, 63, 0
1, 19439, Note_on_c, 9, 42, 0
1, 19440, Note_on_c, 9, 64, 48
1, 19440, Note_on_c, 9, 62, 57
1, 19454, Note_on_c, 9, 64, 0
1, 19454, Note_on_c, 9, 62, 0
1, 19455, Note_on_c, 9, 42, 61
1, 19499, Note_on_c, 9, 42, 0
1, 19560, Note_on_c, 9, 62, 62
1, 19574, Note_on_c, 9, 62, 0
1, 19575, Note_on_c, 9, 42, 34
1, 19619, Note_on_c, 9, 42, 0
1, 19679, Note_on_c, 9, 35, 0
1, 19680, Note_on_c, 9, 62, 105
1, 19694, Note_on_c, 9, 62, 0
1, 19695, Note_on_c, 9, 38, 89
1, 19695, Note_on_c, 9, 42, 91
1, 19919, Note_on_c, 9, 38, 0
1, 19919, Note_on_c, 9, 42, 0
1, 19920, Note_on_c, 9, 64, 62
1, 19920, Note_on_c, 9, 63, 46
1, 19920, Note_on_c, 9, 42, 60
1, 20039, Note_on_c, 9, 64, 0
1, 20039, Note_on_c, 9, 63, 0
1, 20039, Note_on_c, 9, 42, 0
1, 20040, Note_on_c, 9, 63, 50
1, 20040, Note_on_c, 9, 42, 33
1, 20159, Note_on_c, 9, 63, 0
1, 20159, Note_on_c, 9, 42, 0
1, 20160, Note_on_c, 9, 63, 77
1, 20160, Note_on_c, 9, 42, 83
1, 20160, Note_on_c, 9, 35, 67
1, 20399, Note_on_c, 9, 63, 0
1, 20399, Note_on_c, 9, 42, 0
1, 20399, Note_on_c, 9, 35, 0
1, 20400, Note_on_c, 9, 64, 62
1, 20400, Note_on_c, 9, 62, 74
1, 20400, Note_on_c, 9, 42, 72
1, 20400, Note_on_c, 9, 35, 64
1, 20519, Note_on_c, 9, 64, 0
1, 20519, Note_on_c, 9, 62, 0
1, 20519, Note_on_c, 9, 42, 0
1, 20520, Note_on_c, 9, 62, 58
1, 20520, Note_on_c, 9, 42, 31
1, 20639, Note_on_c, 9, 35, 0
1, 20639, Note_on_c, 9, 62, 0
1, 20639, Note_on_c, 9, 42, 0
1, 20640, Note_on_c, 9, 38, 94
1, 20640, Note_on_c, 9, 62, 72
1, 20640, Note_on_c, 9, 42, 70
1, 20879, Note_on_c, 9, 38, 0
1, 20879, Note_on_c, 9, 62, 0
1, 20879, Note_on_c, 9, 42, 0
1, 20880, Note_on_c, 9, 64, 49
1, 20880, Note_on_c, 9, 63, 55
1, 20880, Note_on_c, 9, 42, 67
1, 20999, Note_on_c, 9, 64, 0
1, 20999, Note_on_c, 9, 63, 0
1, 20999, Note_on_c, 9, 42, 0
1, 21015, Note_on_c, 9, 63, 33
1, 21015, Note_on_c, 9, 44, 50
1, 21059, Note_on_c, 9, 63, 0
1, 21059, Note_on_c, 9, 44, 0
1, 21120, Note_on_c, 9, 63, 58
1, 21120, Note_on_c, 9, 42, 69
1, 21120, Note_on_c, 9, 35, 82
1, 21359, Note_on_c, 9, 63, 0
1, 21359, Note_on_c, 9, 42, 0
1, 21360, Note_on_c, 9, 64, 49
1, 21360, Note_on_c, 9, 62, 58
1, 21374, Note_on_c, 9, 64, 0
1, 21374, Note_on_c, 9, 62, 0
1, 21375, Note_on_c, 9, 42, 62
1, 21419, Note_on_c, 9, 42, 0
1, 21480, Note_on_c, 9, 62, 42
1, 21494, Note_on_c, 9, 62, 0
1, 21495, Note_on_c, 9, 42, 22
1, 21539, Note_on_c, 9, 42, 0
1, 21599, Note_on_c, 9, 35, 0
1, 21600, Note_on_c, 9, 62, 74
1, 21614, Note_on_c, 9, 62, 0
1, 21615, Note_on_c, 9, 38, 89
1, 21615, Note_on_c, 9, 42, 72
1, 21839, Note_on_c, 9, 38, 0
1, 21839, Note_on_c, 9, 42, 0
1, 21840, Note_on_c, 9, 64, 57
1, 21840, Note_on_c, 9, 63, 49
1, 21840, Note_on_c, 9, 42, 62
1, 21959, Note_on_c, 9, 64, 0
1, 21959, Note_on_c, 9, 63, 0
1, 21959, Note_on_c, 9, 42, 0
1, 21960, Note_on_c, 9, 63, 29
1, 21960, Note_on_c, 9, 42, 16
1, 22079, Note_on_c, 9, 63, 0
1, 22079, Note_on_c, 9, 42, 0
1, 22080, Note_on_c, 9, 63, 80
1, 22080, Note_on_c, 9, 42, 85
1, 22080, Note_on_c, 9, 35, 70
1, 22319, Note_on_c, 9, 63, 0
1, 22319, Note_on_c, 9, 42, 0
1, 22319, Note_on_c, 9, 35, 0
1, 22320, Note_on_c, 9, 64, 57
1, 22320, Note_on_c, 9, 62, 68
1, 22320, Note_on_c, 9, 35, 62
1, 22334, Note_on_c, 9, 64, 0
1, 22334, Note_on_c, 9, 62, 0
1, 22335, Note_on_c, 9, 42, 68
1, 22379, Note_on_c, 9, 42, 0
1, 22440, Note_on_c, 9, 62, 18
1, 22454, Note_on_c, 9, 62, 0
1, 22455, Note_on_c, 9, 42, 23
1, 22499, Note_on_c, 9, 42, 0
1, 22559, Note_on_c, 9, 35, 0
1, 22560, Note_on_c, 9, 62, 92
1, 22574, Note_on_c, 9, 62, 0
1, 22575, Note_on_c, 9, 38, 106
1, 22575, Note_on_c, 9, 42, 83
1, 22799, Note_on_c, 9, 38, 0
1, 22799, Note_on_c, 9, 42, 0
1, 22800, Note_on_c, 9, 64, 48
1, 22800, Note_on_c, 9, 63, 60
1, 22800, Note_on_c, 9, 42, 70
1, 22919, Note_on_c, 9, 64, 0
1, 22919, Note_on_c, 9, 63, 0
1, 22919, Note_on_c, 9, 42, 0
1, 22935, Note_on_c, 9, 63, 46
1, 22935, Note_on_c, 9, 42, 29
1, 22979, Note_on_c, 9, 63, 0
1, 22979, Note_on_c, 9, 42, 0
1, 23040, Note_on_c, 9, 63, 80
1, 23040, Note_on_c, 9, 42, 85
1, 23040, Note_on_c, 9, 35, 81
1, 23279, Note_on_c, 9, 63, 0
1, 23279, Note_on_c, 9, 42, 0
1, 23280, Note_on_c, 9, 64, 48
1, 23280, Note_on_c, 9, 62, 57
1, 23294, Note_on_c, 9, 64, 0
1, 23294, Note_on_c, 9, 62, 0
1, 23295, Note_on_c, 9, 42, 61
1, 23339, Note_on_c, 9, 42, 0
1, 23400, Note_on_c, 9, 62, 22
1, 23414, Note_on_c, 9, 62, 0
1, 23415, Note_on_c, 9, 42, 9
1, 23459, Note_on_c, 9, 42, 0
1, 23519, Note_on_c, 9, 35, 0
1, 23520, Note_on_c, 9, 62, 88
1, 23534, Note_on_c, 9, 62, 0
1, 23535, Note_on_c, 9, 38, 93
1, 23535, Note_on_c, 9, 42, 80
1, 23759, Note_on_c, 9, 38, 0
1, 23759, Note_on_c, 9, 42, 0
1, 23760, Note_on_c, 9, 64, 58
1, 23760, Note_on_c, 9, 63, 62
1, 23760, Note_on_c, 9, 42, 72
1, 23879, Note_on_c, 9, 64, 0
1, 23879, Note_on_c, 9, 63, 0
1, 23879, Note_on_c, 9, 42, 0
1, 23880, Note_on_c, 9, 63, 39
1, 23880, Note_on_c, 9, 42, 24
1, 23999, Note_on_c, 9, 63, 0
1, 23999, Note_on_c, 9, 42, 0
1, 24000, Note_on_c, 9, 63, 63
1, 24000, Note_on_c, 9, 42, 73
1, 24000, Note_on_c, 9, 35, 72
1, 24239, Note_on_c, 9, 63, 0
1, 24239, Note_on_c, 9, 42, 0
1, 24239, Note_on_c, 9, 35, 0
1, 24240, Note_on_c, 9, 64, 58
1, 24240, Note_on_c, 9, 62, 69
1, 24240, Note_on_c, 9, 42, 69
1, 24240, Note_on_c, 9, 35, 67
1, 24359, Note_on_c, 9, 64, 0
1, 24359, Note_on_c, 9, 62, 0
1, 24359, Note_on_c, 9, 42, 0
1, 24360, Note_on_c, 9, 62, 46
1, 24360, Note_on_c, 9, 42, 24
1, 24479, Note_on_c, 9, 35, 0
1, 24479, Note_on_c, 9, 62, 0
1, 24479, Note_on_c, 9, 42, 0
1, 24480, Note_on_c, 9, 62, 80
1, 24494, Note_on_c, 9, 62, 0
1, 24495, Note_on_c, 9, 38, 95
1, 24495, Note_on_c, 9, 42, 75
1, 24719, Note_on_c, 9, 38, 0
1, 24719, Note_on_c, 9, 42, 0
1, 24720, Note_on_c, 9, 46, 75
1, 24839, Note_on_c, 9, 46, 0
1, 24870, Note_on_c, 9, 46, 47
1, 24959, Note_on_c, 9, 46, 0
1, 24975, Note_on_c, 9, 63, 73
1, 24975, Note_on_c, 9, 38, 67
1, 24975, Note_on_c, 9, 44, 38
1, 24975, Note_on_c, 9, 35, 78
1, 25199, Note_on_c, 9, 63, 0
1, 25199, Note_on_c, 9, 38, 0
1, 25199, Note_on_c, 9, 44, 0
1, 25199, Note_on_c, 9, 35, 0
1, 25215, Note_on_c, 9, 63, 48
1, 25215, Note_on_c, 9, 42, 62
1, 25215, Note_on_c, 9, 35, 68
1, 25259, Note_on_c, 9, 63, 0
1, 25259, Note_on_c, 9, 42, 0
1, 25320, Note_on_c, 9, 63, 42
1, 25320, Note_on_c, 9, 42, 48
1, 25439, Note_on_c, 9, 35, 0
1, 25439, Note_on_c, 9, 63, 0
1, 25439, Note_on_c, 9, 42, 0
1, 25455, Note_on_c, 9, 63, 80
1, 25455, Note_on_c, 9, 38, 59
1, 25455, Note_on_c, 9, 44, 83
1, 25679, Note_on_c, 9, 63, 0
1, 25679, Note_on_c, 9, 38, 0
1, 25679, Note_on_c, 9, 44, 0
1, 25680, Note_on_c, 9, 63, 49
1, 25680, Note_on_c, 9, 42, 62
1, 25799, Note_on_c, 9, 63, 0
1, 25799, Note_on_c, 9, 42, 0
1, 25800, Note_on_c, 9, 63, 30
1, 25800, Note_on_c, 9, 42, 48
1, 25919, Note_on_c, 9, 63, 0
1, 25919, Note_on_c, 9, 42, 0
1, 25920, Note_on_c, 9, 63, 73
1, 25920, Note_on_c, 9, 38, 68
1, 25920, Note_on_c, 9, 42, 80
1, 25920, Note_on_c, 9, 35, 67
1, 26159, Note_on_c, 9, 63, 0
1, 26159, Note_on_c, 9, 38, 0
1, 26159, Note_on_c, 9, 42, 0
1, 26159, Note_on_c, 9, 35, 0
1, 26160, Note_on_c, 9, 35, 56
1, 26175, Note_on_c, 9, 63, 48
1, 26175, Note_on_c, 9, 42, 61
1, 26219, Note_on_c, 9, 63, 0
1, 26219, Note_on_c, 9, 42, 0
1, 26295, Note_on_c, 9, 63, 42
1, 26295, Note_on_c, 9, 42, 57
1, 26339, Note_on_c, 9, 63, 0
1, 26339, Note_on_c, 9, 42, 0
1, 26399, Note_on_c, 9, 35, 0
1, 26415, Note_on_c, 9, 63, 80
1, 26415, Note_on_c, 9, 38, 60
1, 26415, Note_on_c, 9, 42, 85
1, 26639, Note_on_c, 9, 63, 0
1, 26639, Note_on_c, 9, 38, 0
1, 26639, Note_on_c, 9, 42, 0
1, 26640, Note_on_c, 9, 63, 57
1, 26640, Note_on_c, 9, 42, 68
1, 26759, Note_on_c, 9, 63, 0
1, 26759, Note_on_c, 9, 42, 0
1, 26760, Note_on_c, 9, 63, 52
1, 26760, Note_on_c, 9, 42, 64
1, 26879, Note_on_c, 9, 63, 0
1, 26879, Note_on_c, 9, 42, 0
1, 26880, Note_on_c, 9, 63, 77
1, 26880, Note_on_c, 9, 38, 73
1, 26880, Note_on_c, 9, 42, 83
1, 26880, Note_on_c, 9, 35, 70
1, 27119, Note_on_c, 9, 63, 0
1, 27119, Note_on_c, 9, 38, 0
1, 27119, Note_on_c, 9, 42, 0
1, 27119, Note_on_c, 9, 35, 0
1, 27120, Note_on_c, 9, 35, 50
1, 27135, Note_on_c, 9, 63, 46
1, 27135, Note_on_c, 9, 42, 60
1, 27179, Note_on_c, 9, 63, 0
1, 27179, Note_on_c, 9, 42, 0
1, 27240, Note_on_c, 9, 63, 29
1, 27240, Note_on_c, 9, 42, 47
1, 27359, Note_on_c, 9, 35, 0
1, 27359, Note_on_c, 9, 63, 0
1, 27359, Note_on_c, 9, 42, 0
1, 27360, Note_on_c, 9, 63, 72
1, 27360, Note_on_c, 9, 38, 62
1, 27360, Note_on_c, 9, 42, 79
1, 27599, Note_on_c, 9, 63, 0
1, 27599, Note_on_c, 9, 38, 0
1, 27599, Note_on_c, 9, 42, 0
1, 27600, Note_on_c, 9, 63, 52
1, 27600, Note_on_c, 9, 42, 64
1, 27719, Note_on_c, 9, 63, 0
1, 27719, Note_on_c, 9, 42, 0
1, 27720, Note_on_c, 9, 63, 31
1, 27720, Note_on_c, 9, 42, 49
1, 27839, Note_on_c, 9, 63, 0
1, 27839, Note_on_c, 9, 42, 0
1, 27840, Note_on_c, 9, 63, 81
1, 27840, Note_on_c, 9, 38, 73
1, 27840, Note_on_c, 9, 42, 86
1, 27840, Note_on_c, 9, 35, 72
1, 28079, Note_on_c, 9, 63, 0
1, 28079, Note_on_c, 9, 38, 0
1, 28079, Note_on_c, 9, 42, 0
1, 28079, Note_on_c, 9, 35, 0
1, 28110, Note_on_c, 9, 63, 53
1, 28110, Note_on_c, 9, 42, 66
1, 28110, Note_on_c, 9, 35, 48
1, 28199, Note_on_c, 9, 63, 0
1, 28199, Note_on_c, 9, 42, 0
1, 28199, Note_on_c, 9, 35, 0
1, 28260, Note_on_c, 9, 63, 39
1, 28260, Note_on_c, 9, 42, 55
1, 28319, Note_on_c, 9, 63, 0
1, 28319, Note_on_c, 9, 42, 0
1, 28380, Note_on_c, 9, 63, 75
1, 28380, Note_on_c, 9, 38, 63
1, 28380, Note_on_c, 9, 42, 82
1, 28559, Note_on_c, 9, 63, 0
1, 28559, Note_on_c, 9, 38, 0
1, 28559, Note_on_c, 9, 42, 0
1, 28560, Note_on_c, 9, 63, 50
1, 28560, Note_on_c, 9, 42, 63
1, 28679, Note_on_c, 9, 63, 0
1, 28679, Note_on_c, 9, 42, 0
1, 28680, Note_on_c, 9, 63, 19
1, 28680, Note_on_c, 9, 44, 40
1, 28799, Note_on_c, 9, 63, 0
1, 28799, Note_on_c, 9, 44, 0
1, 28800, Note_on_c, 9, 63, 67
1, 28800, Note_on_c, 9, 38, 72
1, 28800, Note_on_c, 9, 42, 75
1, 28800, Note_on_c, 9, 35, 75
1, 29039, Note_on_c, 9, 63, 0
1, 29039, Note_on_c, 9, 38, 0
1, 29039, Note_on_c, 9, 42, 0
1, 29039, Note_on_c, 9, 35, 0
1, 29040, Note_on_c, 9, 63, 53
1, 29040, Note_on_c, 9, 42, 66
1, 29040, Note_on_c, 9, 35, 60
1, 29159, Note_on_c, 9, 63, 0
1, 29159, Note_on_c, 9, 42, 0
1, 29160, Note_on_c, 9, 63, 49
1, 29160, Note_on_c, 9, 42, 62
1, 29279, Note_on_c, 9, 35, 0
1, 29279, Note_on_c, 9, 63, 0
1, 29279, Note_on_c, 9, 42, 0
1, 29280, Note_on_c, 9, 63, 80
1, 29280, Note_on_c, 9, 38, 63
1, 29280, Note_on_c, 9, 42, 85
1, 29519, Note_on_c, 9, 63, 0
1, 29519, Note_on_c, 9, 38, 0
1, 29519, Note_on_c, 9, 42, 0
1, 29520, Note_on_c, 9, 63, 33
1, 29520, Note_on_c, 9, 42, 50
1, 29639, Note_on_c, 9, 63, 0
1, 29639, Note_on_c, 9, 42, 0
1, 29640, Note_on_c, 9, 63, 17
1, 29640, Note_on_c, 9, 42, 30
1, 29759, Note_on_c, 9, 63, 0
1, 29759, Note_on_c, 9, 42, 0
1, 29760, Note_on_c, 9, 63, 53
1, 29760, Note_on_c, 9, 38, 80
1, 29760, Note_on_c, 9, 42, 89
1, 29760, Note_on_c, 9, 35, 72
1, 29999, Note_on_c, 9, 63, 0
1, 29999, Note_on_c, 9, 38, 0
1, 29999, Note_on_c, 9, 42, 0
1, 29999, Note_on_c, 9, 35, 0
1, 30000, Note_on_c, 9, 35, 61
1, 30015, Note_on_c, 9, 63, 55
1, 30015, Note_on_c, 9, 42, 67
1, 30059, Note_on_c, 9, 63, 0
1, 30059, Note_on_c, 9, 42, 0
1, 30135, Note_on_c, 9, 63, 40
1, 30135, Note_on_c, 9, 42, 56
1, 30179, Note_on_c, 9, 63, 0
1, 30179, Note_on_c, 9, 42, 0
1, 30239, Note_on_c, 9, 35, 0
1, 30255, Note_on_c, 9, 63, 77
1, 30255, Note_on_c, 9, 38, 58
1, 30255, Note_on_c, 9, 42, 83
1, 30479, Note_on_c, 9, 63, 0
1, 30479, Note_on_c, 9, 38, 0
1, 30479, Note_on_c, 9, 42, 0
1, 30495, Note_on_c, 9, 63, 60
1, 30495, Note_on_c, 9, 42, 70
1, 30539, Note_on_c, 9, 63, 0
1, 30539, Note_on_c, 9, 42, 0
1, 30600, Note_on_c, 9, 63, 36
1, 30600, Note_on_c, 9, 42, 52
1, 30719, Note_on_c, 9, 63, 0
1, 30719, Note_on_c, 9, 42, 0
1, 30735, Note_on_c, 9, 63, 88
1, 30735, Note_on_c, 9, 38, 77
1, 30735, Note_on_c, 9, 42, 91
1, 30735, Note_on_c, 9, 35, 72
1, 30959, Note_on_c, 9, 63, 0
1, 30959, Note_on_c, 9, 38, 0
1, 30959, Note_on_c, 9, 42, 0
1, 30959, Note_on_c, 9, 35, 0
1, 30960, Note_on_c, 9, 35, 67
1, 30975, Note_on_c, 9, 63, 57
1, 30975, Note_on_c, 9, 42, 68
1, 31019, Note_on_c, 9, 63, 0
1, 31019, Note_on_c, 9, 42, 0
1, 31080, Note_on_c, 9, 63, 55
1, 31080, Note_on_c, 9, 42, 67
1, 31199, Note_on_c, 9, 35, 0
1, 31199, Note_on_c, 9, 63, 0
1, 31199, Note_on_c, 9, 42, 0
1, 31200, Note_on_c, 9, 63, 75
1, 31200, Note_on_c, 9, 38, 57
1, 31200, Note_on_c, 9, 42, 82
1, 31439, Note_on_c, 9, 63, 0
1, 31439, Note_on_c, 9, 38, 0
1, 31439, Note_on_c, 9, 42, 0
1, 31440, Note_on_c, 9, 63, 58
1, 31440, Note_on_c, 9, 42, 69
1, 31559, Note_on_c, 9, 63, 0
1, 31559, Note_on_c, 9, 42, 0
1, 31560, Note_on_c, 9, 63, 50
1, 31560, Note_on_c, 9, 42, 63
1, 31679, Note_on_c, 9, 63, 0
1, 31679, Note_on_c, 9, 42, 0
1, 31680, Note_on_c, 9, 63, 66
1, 31680, Note_on_c, 9, 38, 75
1, 31680, Note_on_c, 9, 42, 74
1, 31680, Note_on_c, 9, 35, 70
1, 31919, Note_on_c, 9, 63, 0
1, 31919, Note_on_c, 9, 38, 0
1, 31919, Note_on_c, 9, 42, 0
1, 31919, Note_on_c, 9, 35, 0
1, 31920, Note_on_c, 9, 63, 63
1, 31920, Note_on_c, 9, 42, 73
1, 31920, Note_on_c, 9, 35, 62
1, 32039, Note_on_c, 9, 63, 0
1, 32039, Note_on_c, 9, 42, 0
1, 32040, Note_on_c, 9, 63, 44
1, 32040, Note_on_c, 9, 42, 58
1, 32159, Note_on_c, 9, 35, 0
1, 32159, Note_on_c, 9, 63, 0
1, 32159, Note_on_c, 9, 42, 0
1, 32160, Note_on_c, 9, 63, 55
1, 32160, Note_on_c, 9, 38, 62
1, 32160, Note_on_c, 9, 42, 67
1, 32399, Note_on_c, 9, 63, 0
1, 32399, Note_on_c, 9, 38, 0
1, 32399, Note_on_c, 9, 42, 0
1, 32400, Note_on_c, 9, 63, 53
1, 32400, Note_on_c, 9, 46, 62
1, 32519, Note_on_c, 9, 63, 0
1, 32519, Note_on_c, 9, 46, 0
1, 32520, Note_on_c, 9, 63, 66
1, 32520, Note_on_c, 9, 46, 77
1, 32639, Note_on_c, 9, 63, 0
1, 32639, Note_on_c, 9, 46, 0
1, 32640, Note_on_c, 9, 63, 66
1, 32640, Note_on_c, 9, 38, 79
1, 32640, Note_on_c, 9, 44, 74
1, 32640, Note_on_c, 9, 35, 78
1, 32879, Note_on_c, 9, 63, 0
1, 32879, Note_on_c, 9, 38, 0
1, 32879, Note_on_c, 9, 44, 0
1, 32879, Note_on_c, 9, 35, 0
1, 32880, Note_on_c, 9, 35, 52
1, 32895, Note_on_c, 9, 63, 55
1, 32895, Note_on_c, 9, 42, 67
1, 32939, Note_on_c, 9, 63, 0
1, 32939, Note_on_c, 9, 42, 0
1, 32999, Note_on_c, 9, 35, 0
1, 33000, Note_on_c, 9, 35, 31
1, 33015, Note_on_c, 9, 63, 55
1, 33015, Note_on_c, 9, 42, 67
1, 33059, Note_on_c, 9, 63, 0
1, 33059, Note_on_c, 9, 42, 0
1, 33119, Note_on_c, 9, 35, 0
1, 33135, Note_on_c, 9, 63, 84
1, 33135, Note_on_c, 9, 38, 60
1, 33135, Note_on_c, 9, 42, 89
1, 33359, Note_on_c, 9, 63, 0
1, 33359, Note_on_c, 9, 38, 0
1, 33359, Note_on_c, 9, 42, 0
1, 33375, Note_on_c, 9, 63, 49
1, 33375, Note_on_c, 9, 42, 62
1, 33419, Note_on_c, 9, 63, 0
1, 33419, Note_on_c, 9, 42, 0
1, 33495, Note_on_c, 9, 63, 52
1, 33495, Note_on_c, 9, 42, 64
1, 33539, Note_on_c, 9, 63, 0
1, 33539, Note_on_c, 9, 42, 0
1, 33615, Note_on_c, 9, 63, 77
1, 33615, Note_on_c, 9, 38, 78
1, 33615, Note_on_c, 9, 42, 83
1, 33615, Note_on_c, 9, 35, 67
1, 33839, Note_on_c, 9, 63, 0
1, 33839, Note_on_c, 9, 38, 0
1, 33839, Note_on_c, 9, 42, 0
1, 33839, Note_on_c, 9, 35, 0
1, 33840, Note_on_c, 9, 35, 50
1, 33855, Note_on_c, 9, 63, 29
1, 33855, Note_on_c, 9, 42, 47
1, 33899, Note_on_c, 9, 63, 0
1, 33899, Note_on_c, 9, 42, 0
1, 33975, Note_on_c, 9, 63, 58
1, 33975, Note_on_c, 9, 42, 69
1, 34019, Note_on_c, 9, 63, 0
1, 34019, Note_on_c, 9, 42, 0
1, 34079, Note_on_c, 9, 35, 0
1, 34095, Note_on_c, 9, 63, 90
1, 34095, Note_on_c, 9, 38, 58
1, 34095, Note_on_c, 9, 42, 93
1, 34319, Note_on_c, 9, 63, 0
1, 34319, Note_on_c, 9, 38, 0
1, 34319, Note_on_c, 9, 42, 0
1, 34335, Note_on_c, 9, 63, 30
1, 34335, Note_on_c, 9, 42, 48
1, 34379, Note_on_c, 9, 63, 0
1, 34379, Note_on_c, 9, 42, 0
1, 34470, Note_on_c, 9, 63, 49
1, 34470, Note_on_c, 9, 42, 62
1, 34559, Note_on_c, 9, 63, 0
1, 34559, Note_on_c, 9, 42, 0
1, 34575, Note_on_c, 9, 63, 73
1, 34575, Note_on_c, 9, 38, 85
1, 34575, Note_on_c, 9, 42, 80
1, 34575, Note_on_c, 9, 35, 70
1, 34799, Note_on_c, 9, 63, 0
1, 34799, Note_on_c, 9, 38, 0
1, 34799, Note_on_c, 9, 42, 0
1, 34799, Note_on_c, 9, 35, 0
1, 34800, Note_on_c, 9, 35, 50
1, 34815, Note_on_c, 9, 63, 48
1, 34815, Note_on_c, 9, 42, 61
1, 34859, Note_on_c, 9, 63, 0
1, 34859, Note_on_c, 9, 42, 0
1, 34935, Note_on_c, 9, 63, 52
1, 34935, Note_on_c, 9, 42, 64
1, 34979, Note_on_c, 9, 63, 0
1, 34979, Note_on_c, 9, 42, 0
1, 35039, Note_on_c, 9, 35, 0
1, 35055, Note_on_c, 9, 63, 88
1, 35055, Note_on_c, 9, 38, 58
1, 35055, Note_on_c, 9, 42, 91
1, 35279, Note_on_c, 9, 63, 0
1, 35279, Note_on_c, 9, 38, 0
1, 35279, Note_on_c, 9, 42, 0
1, 35295, Note_on_c, 9, 63, 46
1, 35295, Note_on_c, 9, 42, 60
1, 35339, Note_on_c, 9, 63, 0
1, 35339, Note_on_c, 9, 42, 0
1, 35400, Note_on_c, 9, 63, 50
1, 35400, Note_on_c, 9, 42, 63
1, 35519, Note_on_c, 9, 63, 0
1, 35519, Note_on_c, 9, 42, 0
1, 35550, Note_on_c, 9, 63, 77
1, 35550, Note_on_c, 9, 38, 78
1, 35550, Note_on_c, 9, 42, 83
1, 35550, Note_on_c, 9, 35, 72
1, 35639, Note_on_c, 9, 63, 0
1, 35639, Note_on_c, 9, 38, 0
1, 35639, Note_on_c, 9, 42, 0
1, 35639, Note_on_c, 9, 35, 0
1, 35775, Note_on_c, 9, 35, 48
1, 35790, Note_on_c, 9, 63, 62
1, 35790, Note_on_c, 9, 42, 72
1, 35879, Note_on_c, 9, 63, 0
1, 35879, Note_on_c, 9, 42, 0
1, 35880, Note_on_c, 9, 63, 49
1, 35880, Note_on_c, 9, 42, 62
1, 35999, Note_on_c, 9, 35, 0
1, 35999, Note_on_c, 9, 63, 0
1, 35999, Note_on_c, 9, 42, 0
1, 36015, Note_on_c, 9, 63, 60
1, 36015, Note_on_c, 9, 38, 51
1, 36015, Note_on_c, 9, 42, 70
1, 36239, Note_on_c, 9, 63, 0
1, 36239, Note_on_c, 9, 38, 0
1, 36239, Note_on_c, 9, 42, 0
1, 36255, Note_on_c, 9, 63, 55
1, 36255, Note_on_c, 9, 42, 67
1, 36299, Note_on_c, 9, 63, 0
1, 36299, Note_on_c, 9, 42, 0
1, 36390, Note_on_c, 9, 63, 33
1, 36390, Note_on_c, 9, 44, 50
1, 36479, Note_on_c, 9, 63, 0
1, 36479, Note_on_c, 9, 44, 0
1, 36480, Note_on_c, 9, 63, 58
1, 36480, Note_on_c, 9, 38, 82
1, 36480, Note_on_c, 9, 42, 69
1, 36480, Note_on_c, 9, 35, 75
1, 36719, Note_on_c, 9, 63, 0
1, 36719, Note_on_c, 9, 38, 0
1, 36719, Note_on_c, 9, 42, 0
1, 36719, Note_on_c, 9, 35, 0
1, 36720, Note_on_c, 9, 35, 84
1, 36735, Note_on_c, 9, 63, 49
1, 36735, Note_on_c, 9, 42, 62
1, 36779, Note_on_c, 9, 63, 0
1, 36779, Note_on_c, 9, 42, 0
1, 36840, Note_on_c, 9, 63, 36
1, 36840, Note_on_c, 9, 42, 52
1, 36959, Note_on_c, 9, 35, 0
1, 36959, Note_on_c, 9, 63, 0
1, 36959, Note_on_c, 9, 42, 0
1, 36960, Note_on_c, 9, 63, 62
1, 36960, Note_on_c, 9, 38, 56
1, 36960, Note_on_c, 9, 42, 72
1, 37199, Note_on_c, 9, 63, 0
1, 37199, Note_on_c, 9, 38, 0
1, 37199, Note_on_c, 9, 42, 0
1, 37200, Note_on_c, 9, 63, 49
1, 37200, Note_on_c, 9, 42, 62
1, 37319, Note_on_c, 9, 63, 0
1, 37319, Note_on_c, 9, 42, 0
1, 37320, Note_on_c, 9, 63, 29
1, 37320, Note_on_c, 9, 42, 47
1, 37439, Note_on_c, 9, 63, 0
1, 37439, Note_on_c, 9, 42, 0
1, 37440, Note_on_c, 9, 63, 80
1, 37440, Note_on_c, 9, 38, 73
1, 37440, Note_on_c, 9, 42, 85
1, 37440, Note_on_c, 9, 35, 72
1, 37679, Note_on_c, 9, 63, 0
1, 37679, Note_on_c, 9, 38, 0
1, 37679, Note_on_c, 9, 42, 0
1, 37679, Note_on_c, 9, 35, 0
1, 37680, Note_on_c, 9, 35, 77
1, 37695, Note_on_c, 9, 63, 57
1, 37695, Note_on_c, 9, 42, 68
1, 37739, Note_on_c, 9, 63, 0
1, 37739, Note_on_c, 9, 42, 0
1, 37815, Note_on_c, 9, 63, 16
1, 37815, Note_on_c, 9, 42, 37
1, 37859, Note_on_c, 9, 63, 0
1, 37859, Note_on_c, 9, 42, 0
1, 37919, Note_on_c, 9, 35, 0
1, 37935, Note_on_c, 9, 63, 77
1, 37935, Note_on_c, 9, 38, 52
1, 37935, Note_on_c, 9, 42, 83
1, 38159, Note_on_c, 9, 63, 0
1, 38159, Note_on_c, 9, 38, 0
1, 38159, Note_on_c, 9, 42, 0
1, 38160, Note_on_c, 9, 63, 60
1, 38160, Note_on_c, 9, 42, 70
1, 38279, Note_on_c, 9, 63, 0
1, 38279, Note_on_c, 9, 42, 0
1, 38295, Note_on_c, 9, 63, 46
1, 38295, Note_on_c, 9, 42, 60
1, 38339, Note_on_c, 9, 63, 0
1, 38339, Note_on_c, 9, 42, 0
1, 38400, Note_on_c, 9, 63, 80
1, 38400, Note_on_c, 9, 38, 78
1, 38400, Note_on_c, 9, 42, 85
1, 38400, Note_on_c, 9, 35, 72
1, 38639, Note_on_c, 9, 63, 0
1, 38639, Note_on_c, 9, 38, 0
1, 38639, Note_on_c, 9, 42, 0
1, 38639, Note_on_c, 9, 35, 0
1, 38640, Note_on_c, 9, 63, 48
1, 38640, Note_on_c, 9, 42, 61
1, 38640, Note_on_c, 9, 35, 77
1, 38759, Note_on_c, 9, 63, 0
1, 38759, Note_on_c, 9, 42, 0
1, 38760, Note_on_c, 9, 63, 19
1, 38760, Note_on_c, 9, 42, 40
1, 38879, Note_on_c, 9, 35, 0
1, 38879, Note_on_c, 9, 63, 0
1, 38879, Note_on_c, 9, 42, 0
1, 38880, Note_on_c, 9, 63, 73
1, 38880, Note_on_c, 9, 38, 48
1, 38880, Note_on_c, 9, 42, 80
1, 39119, Note_on_c, 9, 63, 0
1, 39119, Note_on_c, 9, 38, 0
1, 39119, Note_on_c, 9, 42, 0
1, 39120, Note_on_c, 9, 63, 62
1, 39120, Note_on_c, 9, 42, 72
1, 39239, Note_on_c, 9, 63, 0
1, 39239, Note_on_c, 9, 42, 0
1, 39240, Note_on_c, 9, 63, 39
1, 39240, Note_on_c, 9, 42, 55
1, 39359, Note_on_c, 9, 63, 0
1, 39359, Note_on_c, 9, 42, 0
1, 39360, Note_on_c, 9, 63, 63
1, 39360, Note_on_c, 9, 38, 83
1, 39360, Note_on_c, 9, 42, 73
1, 39360, Note_on_c, 9, 35, 78
1, 39599, Note_on_c, 9, 63, 0
1, 39599, Note_on_c, 9, 38, 0
1, 39599, Note_on_c, 9, 42, 0
1, 39599, Note_on_c, 9, 35, 0
1, 39615, Note_on_c, 9, 63, 58
1, 39615, Note_on_c, 9, 42, 69
1, 39615, Note_on_c, 9, 35, 86
1, 39659, Note_on_c, 9, 63, 0
1, 39659, Note_on_c, 9, 42, 0
1, 39750, Note_on_c, 9, 63, 39
1, 39750, Note_on_c, 9, 42, 55
1, 39839, Note_on_c, 9, 35, 0
1, 39839, Note_on_c, 9, 63, 0
1, 39839, Note_on_c, 9, 42, 0
1, 39870, Note_on_c, 9, 63, 67
1, 39870, Note_on_c, 9, 38, 61
1, 39870, Note_on_c, 9, 42, 75
1, 39959, Note_on_c, 9, 63, 0
1, 39959, Note_on_c, 9, 38, 0
1, 39959, Note_on_c, 9, 42, 0
1, 40110, Note_on_c, 9, 46, 75
1, 40199, Note_on_c, 9, 46, 0
1, 40230, Note_on_c, 9, 46, 47
1, 40319, Note_on_c, 9, 46, 0
1, 40335, Note_on_c, 9, 63, 73
1, 40335, Note_on_c, 9, 44, 55
1, 40335, Note_on_c, 9, 35, 79
1, 40379, Note_on_c, 9, 44, 0
1, 40379, Note_on_c, 9, 35, 0
1, 40440, Note_on_c, 9, 44, 26
1, 40559, Note_on_c, 9, 63, 0
1, 40575, Note_on_c, 9, 64, 48
1, 40575, Note_on_c, 9, 62, 57
1, 40575, Note_on_c, 9, 42, 62
1, 40619, Note_on_c, 9, 64, 0
1, 40619, Note_on_c, 9, 62, 0
1, 40619, Note_on_c, 9, 42, 0
1, 40695, Note_on_c, 9, 62, 50
1, 40695, Note_on_c, 9, 42, 48
1, 40739, Note_on_c, 9, 62, 0
1, 40739, Note_on_c, 9, 42, 0
1, 40799, Note_on_c, 9, 44, 0
1, 40800, Note_on_c, 9, 44, 83
1, 40815, Note_on_c, 9, 38, 91
1, 40815, Note_on_c, 9, 62, 96
1, 41039, Note_on_c, 9, 38, 0
1, 41039, Note_on_c, 9, 62, 0
1, 41040, Note_on_c, 9, 64, 48
1, 41040, Note_on_c, 9, 63, 49
1, 41040, Note_on_c, 9, 42, 62
1, 41159, Note_on_c, 9, 64, 0
1, 41159, Note_on_c, 9, 63, 0
1, 41159, Note_on_c, 9, 42, 0
1, 41160, Note_on_c, 9, 63, 30
1, 41160, Note_on_c, 9, 42, 48
1, 41279, Note_on_c, 9, 44, 0
1, 41279, Note_on_c, 9, 63, 0
1, 41279, Note_on_c, 9, 42, 0
1, 41280, Note_on_c, 9, 63, 73
1, 41280, Note_on_c, 9, 42, 80
1, 41280, Note_on_c, 9, 35, 84
1, 41519, Note_on_c, 9, 63, 0
1, 41519, Note_on_c, 9, 42, 0
1, 41519, Note_on_c, 9, 35, 0
1, 41520, Note_on_c, 9, 64, 48
1, 41520, Note_on_c, 9, 62, 57
1, 41520, Note_on_c, 9, 35, 53
1, 41534, Note_on_c, 9, 64, 0
1, 41534, Note_on_c, 9, 62, 0
1, 41535, Note_on_c, 9, 42, 61
1, 41579, Note_on_c, 9, 42, 0
1, 41640, Note_on_c, 9, 62, 50
1, 41654, Note_on_c, 9, 62, 0
1, 41655, Note_on_c, 9, 42, 57
1, 41699, Note_on_c, 9, 42, 0
1, 41759, Note_on_c, 9, 35, 0
1, 41760, Note_on_c, 9, 62, 96
1, 41774, Note_on_c, 9, 62, 0
1, 41775, Note_on_c, 9, 38, 88
1, 41775, Note_on_c, 9, 42, 85
1, 41999, Note_on_c, 9, 38, 0
1, 41999, Note_on_c, 9, 42, 0
1, 42000, Note_on_c, 9, 64, 46
1, 42000, Note_on_c, 9, 63, 57
1, 42000, Note_on_c, 9, 42, 68
1, 42119, Note_on_c, 9, 64, 0
1, 42119, Note_on_c, 9, 63, 0
1, 42119, Note_on_c, 9, 42, 0
1, 42120, Note_on_c, 9, 63, 52
1, 42120, Note_on_c, 9, 42, 64
1, 42239, Note_on_c, 9, 63, 0
1, 42239, Note_on_c, 9, 42, 0
1, 42240, Note_on_c, 9, 63, 77
1, 42240, Note_on_c, 9, 42, 83
1, 42240, Note_on_c, 9, 35, 78
1, 42479, Note_on_c, 9, 63, 0
1, 42479, Note_on_c, 9, 42, 0
1, 42495, Note_on_c, 9, 64, 46
1, 42495, Note_on_c, 9, 62, 55
1, 42495, Note_on_c, 9, 42, 60
1, 42539, Note_on_c, 9, 64, 0
1, 42539, Note_on_c, 9, 62, 0
1, 42539, Note_on_c, 9, 42, 0
1, 42615, Note_on_c, 9, 62, 34
1, 42629, Note_on_c, 9, 62, 0
1, 42630, Note_on_c, 9, 42, 47
1, 42719, Note_on_c, 9, 35, 0
1, 42719, Note_on_c, 9, 42, 0
1, 42735, Note_on_c, 9, 62, 86
1, 42749, Note_on_c, 9, 62, 0
1, 42750, Note_on_c, 9, 38, 93
1, 42750, Note_on_c, 9, 42, 79
1, 42839, Note_on_c, 9, 38, 0
1, 42839, Note_on_c, 9, 42, 0
1, 42975, Note_on_c, 9, 64, 53
1, 42975, Note_on_c, 9, 63, 52
1, 42975, Note_on_c, 9, 42, 64
1, 43019, Note_on_c, 9, 64, 0
1, 43019, Note_on_c, 9, 63, 0
1, 43019, Note_on_c, 9, 42, 0
1, 43080, Note_on_c, 9, 63, 31
1, 43080, Note_on_c, 9, 42, 49
1, 43199, Note_on_c, 9, 63, 0
1, 43199, Note_on_c, 9, 42, 0
1, 43200, Note_on_c, 9, 63, 81
1, 43200, Note_on_c, 9, 42, 86
1, 43200, Note_on_c, 9, 35, 78
1, 43439, Note_on_c, 9, 63, 0
1, 43439, Note_on_c, 9, 42, 0
1, 43439, Note_on_c, 9, 35, 0
1, 43455, Note_on_c, 9, 64, 53
1, 43455, Note_on_c, 9, 62, 63
1, 43455, Note_on_c, 9, 42, 66
1, 43455, Note_on_c, 9, 35, 62
1, 43499, Note_on_c, 9, 64, 0
1, 43499, Note_on_c, 9, 62, 0
1, 43499, Note_on_c, 9, 42, 0
1, 43575, Note_on_c, 9, 62, 46
1, 43575, Note_on_c, 9, 42, 55
1, 43619, Note_on_c, 9, 62, 0
1, 43619, Note_on_c, 9, 42, 0
1, 43679, Note_on_c, 9, 35, 0
1, 43695, Note_on_c, 9, 38, 85
1, 43695, Note_on_c, 9, 62, 90
1, 43695, Note_on_c, 9, 42, 82
1, 43919, Note_on_c, 9, 38, 0
1, 43919, Note_on_c, 9, 62, 0
1, 43919, Note_on_c, 9, 42, 0
1, 43920, Note_on_c, 9, 64, 53
1, 43920, Note_on_c, 9, 63, 50
1, 43920, Note_on_c, 9, 42, 63
1, 44039, Note_on_c, 9, 64, 0
1, 44039, Note_on_c, 9, 63, 0
1, 44039, Note_on_c, 9, 42, 0
1, 44070, Note_on_c, 9, 63, 19
1, 44070, Note_on_c, 9, 44, 40
1, 44159, Note_on_c, 9, 63, 0
1, 44159, Note_on_c, 9, 44, 0
1, 44190, Note_on_c, 9, 63, 67
1, 44190, Note_on_c, 9, 42, 75
1, 44190, Note_on_c, 9, 35, 88
1, 44279, Note_on_c, 9, 63, 0
1, 44279, Note_on_c, 9, 42, 0
1, 44430, Note_on_c, 9, 64, 53
1, 44430, Note_on_c, 9, 62, 63
1, 44444, Note_on_c, 9, 64, 0
1, 44444, Note_on_c, 9, 62, 0
1, 44445, Note_on_c, 9, 42, 66
1, 44459, Note_on_c, 9, 42, 0
1, 44550, Note_on_c, 9, 62, 58
1, 44550, Note_on_c, 9, 42, 62
1, 44639, Note_on_c, 9, 35, 0
1, 44639, Note_on_c, 9, 62, 0
1, 44639, Note_on_c, 9, 42, 0
1, 44670, Note_on_c, 9, 62, 96
1, 44684, Note_on_c, 9, 62, 0
1, 44685, Note_on_c, 9, 38, 89
1, 44685, Note_on_c, 9, 42, 85
1, 44879, Note_on_c, 9, 38, 0
1, 44879, Note_on_c, 9, 42, 0
1, 44895, Note_on_c, 9, 64, 55
1, 44895, Note_on_c, 9, 63, 33
1, 44895, Note_on_c, 9, 42, 50
1, 44939, Note_on_c, 9, 64, 0
1, 44939, Note_on_c, 9, 63, 0
1, 44939, Note_on_c, 9, 42, 0
1, 45015, Note_on_c, 9, 63, 17
1, 45015, Note_on_c, 9, 42, 30
1, 45059, Note_on_c, 9, 63, 0
1, 45059, Note_on_c, 9, 42, 0
1, 45120, Note_on_c, 9, 63, 53
1, 45120, Note_on_c, 9, 42, 89
1, 45120, Note_on_c, 9, 35, 67
1, 45359, Note_on_c, 9, 63, 0
1, 45359, Note_on_c, 9, 42, 0
1, 45359, Note_on_c, 9, 35, 0
1, 45360, Note_on_c, 9, 64, 55
1, 45360, Note_on_c, 9, 62, 66
1, 45360, Note_on_c, 9, 35, 68
1, 45375, Note_on_c, 9, 42, 67
1, 45419, Note_on_c, 9, 42, 0
1, 45479, Note_on_c, 9, 64, 0
1, 45479, Note_on_c, 9, 62, 0
1, 45480, Note_on_c, 9, 62, 48
1, 45480, Note_on_c, 9, 42, 56
1, 45599, Note_on_c, 9, 35, 0
1, 45599, Note_on_c, 9, 62, 0
1, 45599, Note_on_c, 9, 42, 0
1, 45600, Note_on_c, 9, 38, 89
1, 45600, Note_on_c, 9, 62, 92
1, 45600, Note_on_c, 9, 42, 83
1, 45839, Note_on_c, 9, 38, 0
1, 45839, Note_on_c, 9, 62, 0
1, 45839, Note_on_c, 9, 42, 0
1, 45840, Note_on_c, 9, 64, 57
1, 45840, Note_on_c, 9, 63, 60
1, 45840, Note_on_c, 9, 42, 70
1, 45959, Note_on_c, 9, 64, 0
1, 45959, Note_on_c, 9, 63, 0
1, 45959, Note_on_c, 9, 42, 0
1, 45975, Note_on_c, 9, 63, 36
1, 45975, Note_on_c, 9, 42, 52
1, 46019, Note_on_c, 9, 63, 0
1, 46019, Note_on_c, 9, 42, 0
1, 46080, Note_on_c, 9, 63, 88
1, 46080, Note_on_c, 9, 42, 91
1, 46080, Note_on_c, 9, 35, 88
1, 46319, Note_on_c, 9, 63, 0
1, 46319, Note_on_c, 9, 42, 0
1, 46335, Note_on_c, 9, 64, 57
1, 46335, Note_on_c, 9, 62, 68
1, 46335, Note_on_c, 9, 42, 68
1, 46379, Note_on_c, 9, 64, 0
1, 46379, Note_on_c, 9, 62, 0
1, 46379, Note_on_c, 9, 42, 0
1, 46455, Note_on_c, 9, 62, 66
1, 46469, Note_on_c, 9, 62, 0
1, 46470, Note_on_c, 9, 42, 67
1, 46559, Note_on_c, 9, 35, 0
1, 46559, Note_on_c, 9, 42, 0
1, 46560, Note_on_c, 9, 38, 77
1, 46560, Note_on_c, 9, 62, 90
1, 46560, Note_on_c, 9, 42, 82
1, 46799, Note_on_c, 9, 38, 0
1, 46799, Note_on_c, 9, 62, 0
1, 46799, Note_on_c, 9, 42, 0
1, 46815, Note_on_c, 9, 64, 63
1, 46815, Note_on_c, 9, 63, 58
1, 46815, Note_on_c, 9, 42, 69
1, 46859, Note_on_c, 9, 64, 0
1, 46859, Note_on_c, 9, 63, 0
1, 46859, Note_on_c, 9, 42, 0
1, 46920, Note_on_c, 9, 63, 50
1, 46920, Note_on_c, 9, 42, 63
1, 47039, Note_on_c, 9, 63, 0
1, 47039, Note_on_c, 9, 42, 0
1, 47040, Note_on_c, 9, 63, 66
1, 47040, Note_on_c, 9, 42, 74
1, 47040, Note_on_c, 9, 35, 70
1, 47279, Note_on_c, 9, 63, 0
1, 47279, Note_on_c, 9, 42, 0
1, 47279, Note_on_c, 9, 35, 0
1, 47295, Note_on_c, 9, 64, 63
1, 47295, Note_on_c, 9, 62, 75
1, 47295, Note_on_c, 9, 42, 73
1, 47295, Note_on_c, 9, 35, 53
1, 47339, Note_on_c, 9, 64, 0
1, 47339, Note_on_c, 9, 62, 0
1, 47339, Note_on_c, 9, 42, 0
1, 47415, Note_on_c, 9, 62, 52
1, 47415, Note_on_c, 9, 42, 58
1, 47459, Note_on_c, 9, 62, 0
1, 47459, Note_on_c, 9, 42, 0
1, 47519, Note_on_c, 9, 35, 0
1, 47535, Note_on_c, 9, 62, 66
1, 47549, Note_on_c, 9, 62, 0
1, 47550, Note_on_c, 9, 38, 77
1, 47550, Note_on_c, 9, 42, 67
1, 47639, Note_on_c, 9, 38, 0
1, 47639, Note_on_c, 9, 42, 0
1, 47760, Note_on_c, 9, 64, 55
1, 47760, Note_on_c, 9, 63, 53
1, 47760, Note_on_c, 9, 42, 66
1, 47879, Note_on_c, 9, 64, 0
1, 47879, Note_on_c, 9, 63, 0
1, 47879, Note_on_c, 9, 42, 0
1, 47880, Note_on_c, 9, 63, 66
1, 47880, Note_on_c, 9, 42, 74
1, 47999, Note_on_c, 9, 63, 0
1, 47999, Note_on_c, 9, 42, 0
1, 48000, Note_on_c, 9, 63, 66
1, 48000, Note_on_c, 9, 42, 74
1, 48000, Note_on_c, 9, 35, 78
1, 48239, Note_on_c, 9, 63, 0
1, 48239, Note_on_c, 9, 42, 0
1, 48255, Note_on_c, 9, 64, 55
1, 48255, Note_on_c, 9, 62, 66
1, 48255, Note_on_c, 9, 42, 67
1, 48299, Note_on_c, 9, 64, 0
1, 48299, Note_on_c, 9, 62, 0
1, 48299, Note_on_c, 9, 42, 0
1, 48375, Note_on_c, 9, 62, 66
1, 48375, Note_on_c, 9, 42, 67
1, 48419, Note_on_c, 9, 62, 0
1, 48419, Note_on_c, 9, 42, 0
1, 48479, Note_on_c, 9, 35, 0
1, 48495, Note_on_c, 9, 62, 101
1, 48509, Note_on_c, 9, 62, 0
1, 48510, Note_on_c, 9, 38, 90
1, 48510, Note_on_c, 9, 42, 89
1, 48599, Note_on_c, 9, 38, 0
1, 48599, Note_on_c, 9, 42, 0
1, 48720, Note_on_c, 9, 64, 29
1, 48720, Note_on_c, 9, 63, 49
1, 48720, Note_on_c, 9, 42, 62
1, 48839, Note_on_c, 9, 64, 0
1, 48839, Note_on_c, 9, 63, 0
1, 48839, Note_on_c, 9, 42, 0
1, 48840, Note_on_c, 9, 63, 52
1, 48840, Note_on_c, 9, 42, 64
1, 48959, Note_on_c, 9, 63, 0
1, 48959, Note_on_c, 9, 42, 0
1, 48960, Note_on_c, 9, 63, 77
1, 48960, Note_on_c, 9, 42, 83
1, 48960, Note_on_c, 9, 35, 77
1, 49199, Note_on_c, 9, 63, 0
1, 49199, Note_on_c, 9, 42, 0
1, 49199, Note_on_c, 9, 35, 0
1, 49215, Note_on_c, 9, 64, 29
1, 49215, Note_on_c, 9, 62, 34
1, 49215, Note_on_c, 9, 42, 47
1, 49215, Note_on_c, 9, 35, 60
1, 49259, Note_on_c, 9, 64, 0
1, 49259, Note_on_c, 9, 62, 0
1, 49259, Note_on_c, 9, 42, 0
1, 49335, Note_on_c, 9, 62, 69
1, 49349, Note_on_c, 9, 62, 0
1, 49350, Note_on_c, 9, 42, 69
1, 49439, Note_on_c, 9, 35, 0
1, 49439, Note_on_c, 9, 42, 0
1, 49440, Note_on_c, 9, 38, 91
1, 49440, Note_on_c, 9, 62, 108
1, 49440, Note_on_c, 9, 42, 93
1, 49679, Note_on_c, 9, 38, 0
1, 49679, Note_on_c, 9, 62, 0
1, 49679, Note_on_c, 9, 42, 0
1, 49695, Note_on_c, 9, 64, 48
1, 49695, Note_on_c, 9, 63, 30
1, 49695, Note_on_c, 9, 42, 48
1, 49739, Note_on_c, 9, 64, 0
1, 49739, Note_on_c, 9, 63, 0
1, 49739, Note_on_c, 9, 42, 0
1, 49830, Note_on_c, 9, 63, 49
1, 49830, Note_on_c, 9, 42, 62
1, 49919, Note_on_c, 9, 63, 0
1, 49919, Note_on_c, 9, 42, 0
1, 49920, Note_on_c, 9, 63, 73
1, 49920, Note_on_c, 9, 42, 80
1, 49920, Note_on_c, 9, 35, 81
1, 50159, Note_on_c, 9, 63, 0
1, 50159, Note_on_c, 9, 42, 0
1, 50160, Note_on_c, 9, 64, 48
1, 50160, Note_on_c, 9, 62, 57
1, 50174, Note_on_c, 9, 64, 0
1, 50174, Note_on_c, 9, 62, 0
1, 50175, Note_on_c, 9, 42, 61
1, 50219, Note_on_c, 9, 42, 0
1, 50280, Note_on_c, 9, 62, 62
1, 50294, Note_on_c, 9, 62, 0
1, 50295, Note_on_c, 9, 42, 64
1, 50339, Note_on_c, 9, 42, 0
1, 50399, Note_on_c, 9, 35, 0
1, 50400, Note_on_c, 9, 62, 105
1, 50414, Note_on_c, 9, 62, 0
1, 50415, Note_on_c, 9, 38, 89
1, 50415, Note_on_c, 9, 42, 91
1, 50639, Note_on_c, 9, 38, 0
1, 50639, Note_on_c, 9, 42, 0
1, 50640, Note_on_c, 9, 64, 62
1, 50640, Note_on_c, 9, 63, 46
1, 50640, Note_on_c, 9, 42, 60
1, 50759, Note_on_c, 9, 64, 0
1, 50759, Note_on_c, 9, 63, 0
1, 50759, Note_on_c, 9, 42, 0
1, 50760, Note_on_c, 9, 63, 50
1, 50760, Note_on_c, 9, 42, 63
1, 50879, Note_on_c, 9, 63, 0
1, 50879, Note_on_c, 9, 42, 0
1, 50880, Note_on_c, 9, 63, 77
1, 50880, Note_on_c, 9, 42, 83
1, 50880, Note_on_c, 9, 35, 67
1, 51119, Note_on_c, 9, 63, 0
1, 51119, Note_on_c, 9, 42, 0
1, 51119, Note_on_c, 9, 35, 0
1, 51135, Note_on_c, 9, 64, 62
1, 51135, Note_on_c, 9, 62, 74
1, 51135, Note_on_c, 9, 35, 64
1, 51149, Note_on_c, 9, 64, 0
1, 51149, Note_on_c, 9, 62, 0
1, 51150, Note_on_c, 9, 42, 72
1, 51239, Note_on_c, 9, 42, 0
1, 51240, Note_on_c, 9, 62, 58
1, 51240, Note_on_c, 9, 42, 62
1, 51359, Note_on_c, 9, 35, 0
1, 51359, Note_on_c, 9, 62, 0
1, 51359, Note_on_c, 9, 42, 0
1, 51390, Note_on_c, 9, 62, 72
1, 51404, Note_on_c, 9, 62, 0
1, 51405, Note_on_c, 9, 38, 94
1, 51405, Note_on_c, 9, 42, 70
1, 51599, Note_on_c, 9, 38, 0
1, 51599, Note_on_c, 9, 42, 0
1, 51660, Note_on_c, 9, 64, 49
1, 51660, Note_on_c, 9, 63, 55
1, 51660, Note_on_c, 9, 42, 67
1, 51779, Note_on_c, 9, 64, 0
1, 51779, Note_on_c, 9, 63, 0
1, 51779, Note_on_c, 9, 42, 0
1, 51780, Note_on_c, 9, 63, 33
1, 51780, Note_on_c, 9, 44, 50
1, 51839, Note_on_c, 9, 63, 0
1, 51839, Note_on_c, 9, 44, 0
1, 51900, Note_on_c, 9, 63, 58
1, 51900, Note_on_c, 9, 42, 69
1, 51900, Note_on_c, 9, 35, 82
1, 52079, Note_on_c, 9, 63, 0
1, 52079, Note_on_c, 9, 42, 0
1, 52079, Note_on_c, 9, 35, 0
1, 52140, Note_on_c, 9, 64, 49
1, 52140, Note_on_c, 9, 62, 58
1, 52140, Note_on_c, 9, 42, 62
1, 52259, Note_on_c, 9, 64, 0
1, 52259, Note_on_c, 9, 62, 0
1, 52259, Note_on_c, 9, 42, 0
1, 52260, Note_on_c, 9, 62, 42
1, 52260, Note_on_c, 9, 42, 52
1, 52319, Note_on_c, 9, 62, 0
1, 52319, Note_on_c, 9, 42, 0
1, 52365, Note_on_c, 9, 38, 89
1, 52365, Note_on_c, 9, 62, 74
1, 52365, Note_on_c, 9, 42, 72
1, 52559, Note_on_c, 9, 38, 0
1, 52559, Note_on_c, 9, 62, 0
1, 52559, Note_on_c, 9, 42, 0
1, 52560, Note_on_c, 9, 64, 57
1, 52560, Note_on_c, 9, 63, 49
1, 52560, Note_on_c, 9, 42, 62
1, 52679, Note_on_c, 9, 64, 0
1, 52679, Note_on_c, 9, 63, 0
1, 52679, Note_on_c, 9, 42, 0
1, 52695, Note_on_c, 9, 63, 29
1, 52695, Note_on_c, 9, 42, 47
1, 52739, Note_on_c, 9, 63, 0
1, 52739, Note_on_c, 9, 42, 0
1, 52800, Note_on_c, 9, 63, 80
1, 52800, Note_on_c, 9, 42, 85
1, 52800, Note_on_c, 9, 35, 70
1, 53039, Note_on_c, 9, 63, 0
1, 53039, Note_on_c, 9, 42, 0
1, 53039, Note_on_c, 9, 35, 0
1, 53040, Note_on_c, 9, 64, 57
1, 53040, Note_on_c, 9, 62, 68
1, 53040, Note_on_c, 9, 35, 62
1, 53055, Note_on_c, 9, 42, 68
1, 53099, Note_on_c, 9, 42, 0
1, 53159, Note_on_c, 9, 64, 0
1, 53159, Note_on_c, 9, 62, 0
1, 53160, Note_on_c, 9, 62, 18
1, 53160, Note_on_c, 9, 42, 37
1, 53279, Note_on_c, 9, 35, 0
1, 53279, Note_on_c, 9, 62, 0
1, 53279, Note_on_c, 9, 42, 0
1, 53280, Note_on_c, 9, 38, 106
1, 53280, Note_on_c, 9, 62, 92
1, 53280, Note_on_c, 9, 42, 83
1, 53519, Note_on_c, 9, 38, 0
1, 53519, Note_on_c, 9, 62, 0
1, 53519, Note_on_c, 9, 42, 0
1, 53520, Note_on_c, 9, 64, 48
1, 53520, Note_on_c, 9, 63, 60
1, 53520, Note_on_c, 9, 42, 70
1, 53639, Note_on_c, 9, 64, 0
1, 53639, Note_on_c, 9, 63, 0
1, 53639, Note_on_c, 9, 42, 0
1, 53655, Note_on_c, 9, 63, 46
1, 53655, Note_on_c, 9, 42, 60
1, 53699, Note_on_c, 9, 63, 0
1, 53699, Note_on_c, 9, 42, 0
1, 53760, Note_on_c, 9, 63, 80
1, 53760, Note_on_c, 9, 42, 85
1, 53760, Note_on_c, 9, 35, 81
1, 53999, Note_on_c, 9, 63, 0
1, 53999, Note_on_c, 9, 42, 0
1, 54000, Note_on_c, 9, 64, 48
1, 54000, Note_on_c, 9, 62, 57
1, 54014, Note_on_c, 9, 64, 0
1, 54014, Note_on_c, 9, 62, 0
1, 54015, Note_on_c, 9, 42, 61
1, 54059, Note_on_c, 9, 42, 0
1, 54120, Note_on_c, 9, 62, 22
1, 54134, Note_on_c, 9, 62, 0
1, 54135, Note_on_c, 9, 42, 40
1, 54179, Note_on_c, 9, 42, 0
1, 54239, Note_on_c, 9, 35, 0
1, 54240, Note_on_c, 9, 62, 88
1, 54254, Note_on_c, 9, 62, 0
1, 54255, Note_on_c, 9, 38, 93
1, 54255, Note_on_c, 9, 42, 80
1, 54479, Note_on_c, 9, 38, 0
1, 54479, Note_on_c, 9, 42, 0
1, 54480, Note_on_c, 9, 64, 58
1, 54480, Note_on_c, 9, 63, 62
1, 54480, Note_on_c, 9, 42, 72
1, 54599, Note_on_c, 9, 64, 0
1, 54599, Note_on_c, 9, 63, 0
1, 54599, Note_on_c, 9, 42, 0
1, 54600, Note_on_c, 9, 63, 39
1, 54600, Note_on_c, 9, 42, 55
1, 54719, Note_on_c, 9, 63, 0
1, 54719, Note_on_c, 9, 42, 0
1, 54720, Note_on_c, 9, 63, 63
1, 54720, Note_on_c, 9, 42, 73
1, 54720, Note_on_c, 9, 35, 72
1, 54959, Note_on_c, 9, 63, 0
1, 54959, Note_on_c, 9, 42, 0
1, 54959, Note_on_c, 9, 35, 0
1, 54960, Note_on_c, 9, 64, 58
1, 54960, Note_on_c, 9, 62, 69
1, 54960, Note_on_c, 9, 42, 69
1, 54960, Note_on_c, 9, 35, 67
1, 55079, Note_on_c, 9, 64, 0
1, 55079, Note_on_c, 9, 62, 0
1, 55079, Note_on_c, 9, 42, 0
1, 55095, Note_on_c, 9, 62, 46
1, 55109, Note_on_c, 9, 62, 0
1, 55110, Note_on_c, 9, 42, 55
1, 55199, Note_on_c, 9, 35, 0
1, 55199, Note_on_c, 9, 42, 0
1, 55215, Note_on_c, 9, 62, 80
1, 55229, Note_on_c, 9, 62, 0
1, 55230, Note_on_c, 9, 38, 95
1, 55230, Note_on_c, 9, 42, 75
1, 55319, Note_on_c, 9, 38, 0
1, 55319, Note_on_c, 9, 42, 0
1, 55470, Note_on_c, 9, 46, 75
1, 55559, Note_on_c, 9, 46, 0
1, 55620, Note_on_c, 9, 46, 47
1, 55679, Note_on_c, 9, 46, 0
1, 55710, Note_on_c, 9, 63, 73
1, 55710, Note_on_c, 9, 38, 67
1, 55710, Note_on_c, 9, 44, 38
1, 55710, Note_on_c, 9, 35, 78
1, 55799, Note_on_c, 9, 63, 0
1, 55799, Note_on_c, 9, 38, 0
1, 55799, Note_on_c, 9, 44, 0
1, 55799, Note_on_c, 9, 35, 0
1, 55935, Note_on_c, 9, 42, 62
1, 55935, Note_on_c, 9, 35, 78
1, 55949, Note_on_c, 9, 42, 0
1, 55950, Note_on_c, 9, 63, 48
1, 55979, Note_on_c, 9, 35, 0
1, 56039, Note_on_c, 9, 63, 0
1, 56055, Note_on_c, 9, 63, 42
1, 56055, Note_on_c, 9, 42, 48
1, 56055, Note_on_c, 9, 35, 52
1, 56099, Note_on_c, 9, 63, 0
1, 56099, Note_on_c, 9, 42, 0
1, 56099, Note_on_c, 9, 35, 0
1, 56160, Note_on_c, 9, 38, 59
1, 56174, Note_on_c, 9, 38, 0
1, 56175, Note_on_c, 9, 63, 80
1, 56175, Note_on_c, 9, 44, 83
1, 56399, Note_on_c, 9, 63, 0
1, 56399, Note_on_c, 9, 44, 0
1, 56415, Note_on_c, 9, 63, 49
1, 56415, Note_on_c, 9, 42, 62
1, 56459, Note_on_c, 9, 63, 0
1, 56459, Note_on_c, 9, 42, 0
1, 56520, Note_on_c, 9, 63, 30
1, 56520, Note_on_c, 9, 42, 48
1, 56639, Note_on_c, 9, 63, 0
1, 56639, Note_on_c, 9, 42, 0
1, 56640, Note_on_c, 9, 63, 73
1, 56640, Note_on_c, 9, 38, 68
1, 56640, Note_on_c, 9, 42, 80
1, 56879, Note_on_c, 9, 63, 0
1, 56879, Note_on_c, 9, 38, 0
1, 56879, Note_on_c, 9, 42, 0
1, 56880, Note_on_c, 9, 63, 48
1, 56880, Note_on_c, 9, 42, 61
1, 56895, Note_on_c, 9, 35, 67
1, 56939, Note_on_c, 9, 35, 0
1, 56999, Note_on_c, 9, 63, 0
1, 56999, Note_on_c, 9, 42, 0
1, 57000, Note_on_c, 9, 35, 48
1, 57015, Note_on_c, 9, 63, 42
1, 57015, Note_on_c, 9, 42, 57
1, 57059, Note_on_c, 9, 63, 0
1, 57059, Note_on_c, 9, 42, 0
1, 57119, Note_on_c, 9, 35, 0
1, 57120, Note_on_c, 9, 63, 80
1, 57120, Note_on_c, 9, 38, 60
1, 57120, Note_on_c, 9, 42, 85
1, 57359, Note_on_c, 9, 63, 0
1, 57359, Note_on_c, 9, 38, 0
1, 57359, Note_on_c, 9, 42, 0
1, 57375, Note_on_c, 9, 63, 57
1, 57375, Note_on_c, 9, 42, 68
1, 57419, Note_on_c, 9, 63, 0
1, 57419, Note_on_c, 9, 42, 0
1, 57480, Note_on_c, 9, 63, 52
1, 57480, Note_on_c, 9, 42, 64
1, 57599, Note_on_c, 9, 63, 0
1, 57599, Note_on_c, 9, 42, 0
1, 57615, Note_on_c, 9, 63, 77
1, 57615, Note_on_c, 9, 38, 73
1, 57615, Note_on_c, 9, 42, 83
1, 57839, Note_on_c, 9, 63, 0
1, 57839, Note_on_c, 9, 38, 0
1, 57839, Note_on_c, 9, 42, 0
1, 57840, Note_on_c, 9, 35, 70
1, 57855, Note_on_c, 9, 63, 46
1, 57855, Note_on_c, 9, 42, 60
1, 57899, Note_on_c, 9, 63, 0
1, 57899, Note_on_c, 9, 42, 0
1, 57959, Note_on_c, 9, 35, 0
1, 57960, Note_on_c, 9, 35, 50
1, 57975, Note_on_c, 9, 63, 29
1, 57975, Note_on_c, 9, 42, 47
1, 58019, Note_on_c, 9, 63, 0
1, 58019, Note_on_c, 9, 42, 0
1, 58079, Note_on_c, 9, 35, 0
1, 58080, Note_on_c, 9, 38, 62
1, 58094, Note_on_c, 9, 38, 0
1, 58095, Note_on_c, 9, 63, 72
1, 58095, Note_on_c, 9, 42, 79
1, 58319, Note_on_c, 9, 63, 0
1, 58319, Note_on_c, 9, 42, 0
1, 58335, Note_on_c, 9, 63, 52
1, 58335, Note_on_c, 9, 42, 64
1, 58379, Note_on_c, 9, 63, 0
1, 58379, Note_on_c, 9, 42, 0
1, 58470, Note_on_c, 9, 63, 31
1, 58470, Note_on_c, 9, 42, 49
1, 58559, Note_on_c, 9, 63, 0
1, 58559, Note_on_c, 9, 42, 0
1, 58590, Note_on_c, 9, 63, 81
1, 58590, Note_on_c, 9, 38, 73
1, 58590, Note_on_c, 9, 42, 86
1, 58679, Note_on_c, 9, 63, 0
1, 58679, Note_on_c, 9, 38, 0
1, 58679, Note_on_c, 9, 42, 0
1, 58845, Note_on_c, 9, 35, 72
1, 58860, Note_on_c, 9, 63, 53
1, 58860, Note_on_c, 9, 42, 66
1, 58979, Note_on_c, 9, 35, 0
1, 58979, Note_on_c, 9, 63, 0
1, 58979, Note_on_c, 9, 42, 0
1, 58980, Note_on_c, 9, 63, 39
1, 58980, Note_on_c, 9, 42, 55
1, 58980, Note_on_c, 9, 35, 48
1, 59039, Note_on_c, 9, 63, 0
1, 59039, Note_on_c, 9, 42, 0
1, 59039, Note_on_c, 9, 35, 0
1, 59100, Note_on_c, 9, 63, 75
1, 59100, Note_on_c, 9, 38, 63
1, 59100, Note_on_c, 9, 42, 82
1, 59279, Note_on_c, 9, 63, 0
1, 59279, Note_on_c, 9, 38, 0
1, 59279, Note_on_c, 9, 42, 0
1, 59310, Note_on_c, 9, 63, 50
1, 59310, Note_on_c, 9, 42, 63
1, 59399, Note_on_c, 9, 63, 0
1, 59399, Note_on_c, 9, 42, 0
1, 59400, Note_on_c, 9, 63, 19
1, 59400, Note_on_c, 9, 44, 40
1, 59519, Note_on_c, 9, 63, 0
1, 59519, Note_on_c, 9, 44, 0
1, 59520, Note_on_c, 9, 63, 67
1, 59520, Note_on_c, 9, 42, 75
1, 59520, Note_on_c, 9, 35, 75
1, 59534, Note_on_c, 9, 63, 0
1, 59534, Note_on_c, 9, 42, 0
1, 59535, Note_on_c, 9, 38, 72
1, 59759, Note_on_c, 9, 35, 0
1, 59759, Note_on_c, 9, 38, 0
1, 59760, Note_on_c, 9, 35, 74
1, 59775, Note_on_c, 9, 63, 53
1, 59775, Note_on_c, 9, 42, 66
1, 59819, Note_on_c, 9, 63, 0
1, 59819, Note_on_c, 9, 42, 0
1, 59895, Note_on_c, 9, 63, 49
1, 59895, Note_on_c, 9, 42, 62
1, 59939, Note_on_c, 9, 63, 0
1, 59939, Note_on_c, 9, 42, 0
1, 59999, Note_on_c, 9, 35, 0
1, 60000, Note_on_c, 9, 38, 63
1, 60014, Note_on_c, 9, 38, 0
1, 60015, Note_on_c, 9, 63, 80
1, 60015, Note_on_c, 9, 42, 85
1, 60239, Note_on_c, 9, 63, 0
1, 60239, Note_on_c, 9, 42, 0
1, 60240, Note_on_c, 9, 63, 33
1, 60240, Note_on_c, 9, 42, 50
1, 60359, Note_on_c, 9, 63, 0
1, 60359, Note_on_c, 9, 42, 0
1, 60360, Note_on_c, 9, 63, 17
1, 60360, Note_on_c, 9, 42, 30
1, 60479, Note_on_c, 9, 63, 0
1, 60479, Note_on_c, 9, 42, 0
1, 60480, Note_on_c, 9, 63, 53
1, 60480, Note_on_c, 9, 38, 80
1, 60480, Note_on_c, 9, 42, 89
1, 60480, Note_on_c, 9, 35, 72
1, 60719, Note_on_c, 9, 63, 0
1, 60719, Note_on_c, 9, 38, 0
1, 60719, Note_on_c, 9, 42, 0
1, 60719, Note_on_c, 9, 35, 0
1, 60720, Note_on_c, 9, 35, 74
1, 60735, Note_on_c, 9, 63, 55
1, 60735, Note_on_c, 9, 42, 67
1, 60779, Note_on_c, 9, 63, 0
1, 60779, Note_on_c, 9, 42, 0
1, 60840, Note_on_c, 9, 63, 40
1, 60840, Note_on_c, 9, 42, 56
1, 60959, Note_on_c, 9, 35, 0
1, 60959, Note_on_c, 9, 63, 0
1, 60959, Note_on_c, 9, 42, 0
1, 60960, Note_on_c, 9, 38, 58
1, 60979, Note_on_c, 9, 38, 0
1, 60980, Note_on_c, 9, 63, 77
1, 60980, Note_on_c, 9, 42, 83
1, 61019, Note_on_c, 9, 63, 0
1, 61019, Note_on_c, 9, 42, 0
1, 61215, Note_on_c, 9, 63, 60
1, 61215, Note_on_c, 9, 42, 70
1, 61259, Note_on_c, 9, 63, 0
1, 61259, Note_on_c, 9, 42, 0
1, 61320, Note_on_c, 9, 63, 36
1, 61320, Note_on_c, 9, 42, 52
1, 61439, Note_on_c, 9, 63, 0
1, 61439, Note_on_c, 9, 42, 0
1, 61455, Note_on_c, 9, 63, 88
1, 61455, Note_on_c, 9, 38, 77
1, 61455, Note_on_c, 9, 42, 91
1, 61455, Note_on_c, 9, 35, 72
1, 61679, Note_on_c, 9, 63, 0
1, 61679, Note_on_c, 9, 38, 0
1, 61679, Note_on_c, 9, 42, 0
1, 61679, Note_on_c, 9, 35, 0
1, 61680, Note_on_c, 9, 35, 56
1, 61695, Note_on_c, 9, 63, 57
1, 61695, Note_on_c, 9, 42, 68
1, 61739, Note_on_c, 9, 63, 0
1, 61739, Note_on_c, 9, 42, 0
1, 61815, Note_on_c, 9, 63, 55
1, 61815, Note_on_c, 9, 42, 67
1, 61859, Note_on_c, 9, 63, 0
1, 61859, Note_on_c, 9, 42, 0
1, 61919, Note_on_c, 9, 35, 0
1, 61920, Note_on_c, 9, 38, 57
1, 61934, Note_on_c, 9, 38, 0
1, 61935, Note_on_c, 9, 63, 75
1, 61935, Note_on_c, 9, 42, 82
1, 62159, Note_on_c, 9, 63, 0
1, 62159, Note_on_c, 9, 42, 0
1, 62160, Note_on_c, 9, 63, 58
1, 62160, Note_on_c, 9, 42, 69
1, 62279, Note_on_c, 9, 63, 0
1, 62279, Note_on_c, 9, 42, 0
1, 62295, Note_on_c, 9, 63, 50
1, 62295, Note_on_c, 9, 42, 63
1, 62339, Note_on_c, 9, 63, 0
1, 62339, Note_on_c, 9, 42, 0
1, 62415, Note_on_c, 9, 63, 66
1, 62415, Note_on_c, 9, 38, 75
1, 62415, Note_on_c, 9, 42, 74
1, 62415, Note_on_c, 9, 35, 70
1, 62639, Note_on_c, 9, 63, 0
1, 62639, Note_on_c, 9, 38, 0
1, 62639, Note_on_c, 9, 42, 0
1, 62639, Note_on_c, 9, 35, 0
1, 62655, Note_on_c, 9, 35, 68
1, 62670, Note_on_c, 9, 63, 63
1, 62670, Note_on_c, 9, 42, 73
1, 62759, Note_on_c, 9, 63, 0
1, 62759, Note_on_c, 9, 42, 0
1, 62790, Note_on_c, 9, 63, 44
1, 62790, Note_on_c, 9, 42, 58
1, 62879, Note_on_c, 9, 35, 0
1, 62879, Note_on_c, 9, 63, 0
1, 62879, Note_on_c, 9, 42, 0
1, 62880, Note_on_c, 9, 63, 55
1, 62880, Note_on_c, 9, 38, 62
1, 62880, Note_on_c, 9, 42, 67
1, 63119, Note_on_c, 9, 63, 0
1, 63119, Note_on_c, 9, 38, 0
1, 63119, Note_on_c, 9, 42, 0
1, 63150, Note_on_c, 9, 63, 53
1, 63150, Note_on_c, 9, 46, 62
1, 63239, Note_on_c, 9, 63, 0
1, 63239, Note_on_c, 9, 46, 0
1, 63270, Note_on_c, 9, 63, 66
1, 63270, Note_on_c, 9, 46, 77
1, 63359, Note_on_c, 9, 63, 0
1, 63359, Note_on_c, 9, 46, 0
1, 63360, Note_on_c, 9, 44, 74
1, 63360, Note_on_c, 9, 35, 78
1, 63390, Note_on_c, 9, 63, 66
1, 63390, Note_on_c, 9, 38, 79
1, 63599, Note_on_c, 9, 44, 0
1, 63599, Note_on_c, 9, 35, 0
1, 63689, Note_on_c, 9, 63, 0
1, 63689, Note_on_c, 9, 38, 0
1, 63690, Note_on_c, 9, 35, 78
1, 63705, Note_on_c, 9, 63, 55
1, 63705, Note_on_c, 9, 42, 67
1, 63719, Note_on_c, 9, 35, 0
1, 63719, Note_on_c, 9, 63, 0
1, 63719, Note_on_c, 9, 42, 0
1, 63840, Note_on_c, 9, 63, 55
1, 63840, Note_on_c, 9, 42, 67
1, 63840, Note_on_c, 9, 35, 52
1, 63929, Note_on_c, 9, 63, 0
1, 63929, Note_on_c, 9, 42, 0
1, 63930, Note_on_c, 9, 38, 60
1, 63959, Note_on_c, 9, 38, 0
1, 63960, Note_on_c, 9, 63, 84
1, 63960, Note_on_c, 9, 42, 89
1, 64199, Note_on_c, 9, 63, 0
1, 64199, Note_on_c, 9, 42, 0
1, 64200, Note_on_c, 9, 63, 49
1, 64200, Note_on_c, 9, 42, 62
1, 64319, Note_on_c, 9, 35, 0
1, 64319, Note_on_c, 9, 63, 0
1, 64319, Note_on_c, 9, 42, 0
1, 64320, Note_on_c, 9, 63, 52
1, 64320, Note_on_c, 9, 42, 64
1, 64439, Note_on_c, 9, 63, 0
1, 64439, Note_on_c, 9, 42, 0
1, 64455, Note_on_c, 9, 63, 77
1, 64455, Note_on_c, 9, 38, 78
1, 64455, Note_on_c, 9, 42, 83
1, 64499, Note_on_c, 9, 38, 0
1, 64710, Note_on_c, 9, 35, 67
1, 64724, Note_on_c, 9, 63, 0
1, 64724, Note_on_c, 9, 42, 0
1, 64725, Note_on_c, 9, 63, 29
1, 64725, Note_on_c, 9, 42, 47
1, 64739, Note_on_c, 9, 63, 0
1, 64739, Note_on_c, 9, 42, 0
1, 64799, Note_on_c, 9, 35, 0
1, 64830, Note_on_c, 9, 63, 58
1, 64830, Note_on_c, 9, 42, 69
1, 64830, Note_on_c, 9, 35, 48
1, 64919, Note_on_c, 9, 63, 0
1, 64919, Note_on_c, 9, 42, 0
1, 64920, Note_on_c, 9, 63, 90
1, 64920, Note_on_c, 9, 38, 58
1, 64920, Note_on_c, 9, 42, 93
1, 65039, Note_on_c, 9, 63, 0
1, 65039, Note_on_c, 9, 38, 0
1, 65039, Note_on_c, 9, 42, 0
1, 65100, Note_on_c, 9, 63, 30
1, 65100, Note_on_c, 9, 42, 48
1, 65204, Note_on_c, 9, 63, 0
1, 65204, Note_on_c, 9, 42, 0
1, 65205, Note_on_c, 9, 63, 49
1, 65205, Note_on_c, 9, 42, 62
1, 65219, Note_on_c, 9, 63, 0
1, 65219, Note_on_c, 9, 42, 0
1, 65279, Note_on_c, 9, 35, 0
1, 65280, Note_on_c, 9, 63, 73
1, 65280, Note_on_c, 9, 38, 85
1, 65280, Note_on_c, 9, 42, 80
1, 65519, Note_on_c, 9, 63, 0
1, 65519, Note_on_c, 9, 38, 0
1, 65519, Note_on_c, 9, 42, 0
1, 65520, Note_on_c, 9, 35, 70
1, 65535, Note_on_c, 9, 63, 48
1, 65535, Note_on_c, 9, 42, 61
1, 65579, Note_on_c, 9, 63, 0
1, 65579, Note_on_c, 9, 42, 0
1, 65639, Note_on_c, 9, 35, 0
1, 65640, Note_on_c, 9, 35, 50
1, 65655, Note_on_c, 9, 63, 52
1, 65655, Note_on_c, 9, 42, 64
1, 65699, Note_on_c, 9, 63, 0
1, 65699, Note_on_c, 9, 42, 0
1, 65759, Note_on_c, 9, 35, 0
1, 65760, Note_on_c, 9, 63, 88
1, 65760, Note_on_c, 9, 38, 58
1, 65760, Note_on_c, 9, 42, 91
1, 65999, Note_on_c, 9, 63, 0
1, 65999, Note_on_c, 9, 38, 0
1, 65999, Note_on_c, 9, 42, 0
1, 66015, Note_on_c, 9, 63, 46
1, 66015, Note_on_c, 9, 42, 60
1, 66059, Note_on_c, 9, 63, 0
1, 66059, Note_on_c, 9, 42, 0
1, 66120, Note_on_c, 9, 63, 50
1, 66120, Note_on_c, 9, 42, 63
1, 66239, Note_on_c, 9, 63, 0
1, 66239, Note_on_c, 9, 42, 0
1, 66255, Note_on_c, 9, 38, 78
1, 66269, Note_on_c, 9, 38, 0
1, 66270, Note_on_c, 9, 63, 77
1, 66270, Note_on_c, 9, 42, 83
1, 66359, Note_on_c, 9, 63, 0
1, 66359, Note_on_c, 9, 42, 0
1, 66480, Note_on_c, 9, 35, 72
1, 66510, Note_on_c, 9, 63, 62
1, 66510, Note_on_c, 9, 42, 72
1, 66599, Note_on_c, 9, 35, 0
1, 66599, Note_on_c, 9, 63, 0
1, 66599, Note_on_c, 9, 42, 0
1, 66615, Note_on_c, 9, 35, 48
1, 66630, Note_on_c, 9, 63, 49
1, 66630, Note_on_c, 9, 42, 62
1, 66659, Note_on_c, 9, 35, 0
1, 66719, Note_on_c, 9, 63, 0
1, 66719, Note_on_c, 9, 42, 0
1, 66720, Note_on_c, 9, 38, 51
1, 66749, Note_on_c, 9, 38, 0
1, 66750, Note_on_c, 9, 63, 60
1, 66750, Note_on_c, 9, 42, 70
1, 66839, Note_on_c, 9, 63, 0
1, 66839, Note_on_c, 9, 42, 0
1, 66960, Note_on_c, 9, 63, 55
1, 66960, Note_on_c, 9, 42, 67
1, 67079, Note_on_c, 9, 63, 0
1, 67079, Note_on_c, 9, 42, 0
1, 67110, Note_on_c, 9, 63, 33
1, 67110, Note_on_c, 9, 44, 50
1, 67199, Note_on_c, 9, 63, 0
1, 67199, Note_on_c, 9, 44, 0
1, 67200, Note_on_c, 9, 63, 58
1, 67200, Note_on_c, 9, 38, 82
1, 67200, Note_on_c, 9, 42, 69
1, 67200, Note_on_c, 9, 35, 75
1, 67439, Note_on_c, 9, 63, 0
1, 67439, Note_on_c, 9, 38, 0
1, 67439, Note_on_c, 9, 42, 0
1, 67439, Note_on_c, 9, 35, 0
1, 67440, Note_on_c, 9, 63, 49
1, 67440, Note_on_c, 9, 42, 62
1, 67455, Note_on_c, 9, 35, 74
1, 67559, Note_on_c, 9, 63, 0
1, 67559, Note_on_c, 9, 42, 0
1, 67575, Note_on_c, 9, 63, 36
1, 67575, Note_on_c, 9, 42, 52
1, 67619, Note_on_c, 9, 63, 0
1, 67619, Note_on_c, 9, 42, 0
1, 67679, Note_on_c, 9, 35, 0
1, 67680, Note_on_c, 9, 38, 56
1, 67694, Note_on_c, 9, 38, 0
1, 67695, Note_on_c, 9, 63, 62
1, 67695, Note_on_c, 9, 42, 72
1, 67919, Note_on_c, 9, 63, 0
1, 67919, Note_on_c, 9, 42, 0
1, 67920, Note_on_c, 9, 63, 49
1, 67920, Note_on_c, 9, 42, 62
1, 68039, Note_on_c, 9, 63, 0
1, 68039, Note_on_c, 9, 42, 0
1, 68040, Note_on_c, 9, 63, 29
1, 68040, Note_on_c, 9, 42, 47
1, 68159, Note_on_c, 9, 63, 0
1, 68159, Note_on_c, 9, 42, 0
1, 68160, Note_on_c, 9, 63, 80
1, 68160, Note_on_c, 9, 38, 73
1, 68160, Note_on_c, 9, 42, 85
1, 68160, Note_on_c, 9, 35, 72
1, 68399, Note_on_c, 9, 63, 0
1, 68399, Note_on_c, 9, 38, 0
1, 68399, Note_on_c, 9, 42, 0
1, 68399, Note_on_c, 9, 35, 0
1, 68400, Note_on_c, 9, 63, 57
1, 68400, Note_on_c, 9, 42, 68
1, 68415, Note_on_c, 9, 35, 74
1, 68519, Note_on_c, 9, 63, 0
1, 68519, Note_on_c, 9, 42, 0
1, 68550, Note_on_c, 9, 63, 16
1, 68550, Note_on_c, 9, 42, 37
1, 68639, Note_on_c, 9, 35, 0
1, 68639, Note_on_c, 9, 63, 0
1, 68639, Note_on_c, 9, 42, 0
1, 68640, Note_on_c, 9, 63, 77
1, 68640, Note_on_c, 9, 38, 52
1, 68640, Note_on_c, 9, 42, 83
1, 68879, Note_on_c, 9, 63, 0
1, 68879, Note_on_c, 9, 38, 0
1, 68879, Note_on_c, 9, 42, 0
1, 68910, Note_on_c, 9, 63, 60
1, 68910, Note_on_c, 9, 42, 70
1, 69044, Note_on_c, 9, 63, 0
1, 69044, Note_on_c, 9, 42, 0
1, 69045, Note_on_c, 9, 63, 46
1, 69045, Note_on_c, 9, 42, 60
1, 69059, Note_on_c, 9, 63, 0
1, 69059, Note_on_c, 9, 42, 0
1, 69150, Note_on_c, 9, 63, 80
1, 69150, Note_on_c, 9, 38, 78
1, 69150, Note_on_c, 9, 42, 85
1, 69150, Note_on_c, 9, 35, 72
1, 69239, Note_on_c, 9, 63, 0
1, 69239, Note_on_c, 9, 38, 0
1, 69239, Note_on_c, 9, 42, 0
1, 69239, Note_on_c, 9, 35, 0
1, 69360, Note_on_c, 9, 63, 48
1, 69360, Note_on_c, 9, 42, 61
1, 69375, Note_on_c, 9, 35, 56
1, 69479, Note_on_c, 9, 63, 0
1, 69479, Note_on_c, 9, 42, 0
1, 69495, Note_on_c, 9, 63, 19
1, 69495, Note_on_c, 9, 42, 40
1, 69539, Note_on_c, 9, 63, 0
1, 69539, Note_on_c, 9, 42, 0
1, 69599, Note_on_c, 9, 35, 0
1, 69600, Note_on_c, 9, 38, 48
1, 69614, Note_on_c, 9, 38, 0
1, 69615, Note_on_c, 9, 63, 73
1, 69615, Note_on_c, 9, 42, 80
1, 69839, Note_on_c, 9, 63, 0
1, 69839, Note_on_c, 9, 42, 0
1, 69840, Note_on_c, 9, 63, 62
1, 69840, Note_on_c, 9, 42, 72
1, 69959, Note_on_c, 9, 63, 0
1, 69959, Note_on_c, 9, 42, 0
1, 69975, Note_on_c, 9, 63, 39
1, 69975, Note_on_c, 9, 42, 55
1, 70019, Note_on_c, 9, 63, 0
1, 70019, Note_on_c, 9, 42, 0
1, 70095, Note_on_c, 9, 63, 63
1, 70095, Note_on_c, 9, 38, 83
1, 70095, Note_on_c, 9, 42, 73
1, 70095, Note_on_c, 9, 35, 70
1, 70319, Note_on_c, 9, 63, 0
1, 70319, Note_on_c, 9, 38, 0
1, 70319, Note_on_c, 9, 42, 0
1, 70319, Note_on_c, 9, 35, 0
1, 70320, Note_on_c, 9, 63, 58
1, 70320, Note_on_c, 9, 42, 69
1, 70335, Note_on_c, 9, 35, 68
1, 70439, Note_on_c, 9, 63, 0
1, 70439, Note_on_c, 9, 42, 0
1, 70470, Note_on_c, 9, 63, 39
1, 70470, Note_on_c, 9, 42, 55
1, 70559, Note_on_c, 9, 35, 0
1, 70559, Note_on_c, 9, 63, 0
1, 70559, Note_on_c, 9, 42, 0
1, 70560, Note_on_c, 9, 63, 67
1, 70560, Note_on_c, 9, 38, 61
1, 70560, Note_on_c, 9, 42, 75
1, 70799, Note_on_c, 9, 63, 0
1, 70799, Note_on_c, 9, 38, 0
1, 70799, Note_on_c, 9, 42, 0
1, 70830, Note_on_c, 9, 46, 75
1, 70919, Note_on_c, 9, 46, 0
1, 70980, Note_on_c, 9, 46, 47
1, 71039, Note_on_c, 9, 46, 0
1, 71070, Note_on_c, 9, 63, 73
1, 71070, Note_on_c, 9, 38, 67
1, 71070, Note_on_c, 9, 44, 38
1, 71070, Note_on_c, 9, 35, 96
1, 71159, Note_on_c, 9, 63, 0
1, 71159, Note_on_c, 9, 38, 0
1, 71280, Note_on_c, 9, 64, 48
1, 71280, Note_on_c, 9, 62, 57
1, 71280, Note_on_c, 9, 42, 62
1, 71399, Note_on_c, 9, 64, 0
1, 71399, Note_on_c, 9, 62, 0
1, 71399, Note_on_c, 9, 42, 0
1, 71415, Note_on_c, 9, 62, 50
1, 71415, Note_on_c, 9, 42, 48
1, 71459, Note_on_c, 9, 62, 0
1, 71459, Note_on_c, 9, 42, 0
1, 71519, Note_on_c, 9, 44, 0
1, 71519, Note_on_c, 9, 35, 0
1, 71520, Note_on_c, 9, 38, 59
1, 71520, Note_on_c, 9, 62, 96
1, 71520, Note_on_c, 9, 44, 83
1, 71759, Note_on_c, 9, 38, 0
1, 71759, Note_on_c, 9, 62, 0
1, 71775, Note_on_c, 9, 64, 48
1, 71775, Note_on_c, 9, 63, 49
1, 71775, Note_on_c, 9, 42, 62
1, 71819, Note_on_c, 9, 64, 0
1, 71819, Note_on_c, 9, 63, 0
1, 71819, Note_on_c, 9, 42, 0
1, 71879, Note_on_c, 9, 44, 0
1, 71895, Note_on_c, 9, 63, 30
1, 71895, Note_on_c, 9, 42, 48
1, 71895, Note_on_c, 9, 35, 44
1, 71939, Note_on_c, 9, 63, 0
1, 71939, Note_on_c, 9, 42, 0
1, 71939, Note_on_c, 9, 35, 0
1, 72000, Note_on_c, 9, 38, 68
1, 72014, Note_on_c, 9, 38, 0
1, 72015, Note_on_c, 9, 63, 73
1, 72015, Note_on_c, 9, 42, 80
1, 72015, Note_on_c, 9, 35, 81
1, 72239, Note_on_c, 9, 63, 0
1, 72239, Note_on_c, 9, 42, 0
1, 72239, Note_on_c, 9, 35, 0
1, 72240, Note_on_c, 9, 64, 48
1, 72240, Note_on_c, 9, 62, 57
1, 72240, Note_on_c, 9, 35, 84
1, 72255, Note_on_c, 9, 42, 61
1, 72299, Note_on_c, 9, 42, 0
1, 72359, Note_on_c, 9, 64, 0
1, 72359, Note_on_c, 9, 62, 0
1, 72360, Note_on_c, 9, 62, 50
1, 72360, Note_on_c, 9, 42, 57
1, 72479, Note_on_c, 9, 35, 0
1, 72479, Note_on_c, 9, 62, 0
1, 72479, Note_on_c, 9, 42, 0
1, 72480, Note_on_c, 9, 38, 60
1, 72480, Note_on_c, 9, 62, 96
1, 72480, Note_on_c, 9, 42, 85
1, 72719, Note_on_c, 9, 38, 0
1, 72719, Note_on_c, 9, 62, 0
1, 72719, Note_on_c, 9, 42, 0
1, 72735, Note_on_c, 9, 64, 46
1, 72735, Note_on_c, 9, 63, 57
1, 72735, Note_on_c, 9, 42, 68
1, 72779, Note_on_c, 9, 64, 0
1, 72779, Note_on_c, 9, 63, 0
1, 72779, Note_on_c, 9, 42, 0
1, 72840, Note_on_c, 9, 63, 52
1, 72840, Note_on_c, 9, 42, 64
1, 72959, Note_on_c, 9, 63, 0
1, 72959, Note_on_c, 9, 42, 0
1, 72960, Note_on_c, 9, 63, 77
1, 72960, Note_on_c, 9, 38, 73
1, 72960, Note_on_c, 9, 42, 83
1, 72960, Note_on_c, 9, 35, 88
1, 73199, Note_on_c, 9, 63, 0
1, 73199, Note_on_c, 9, 38, 0
1, 73199, Note_on_c, 9, 42, 0
1, 73215, Note_on_c, 9, 64, 46
1, 73215, Note_on_c, 9, 62, 55
1, 73215, Note_on_c, 9, 42, 60
1, 73259, Note_on_c, 9, 64, 0
1, 73259, Note_on_c, 9, 62, 0
1, 73259, Note_on_c, 9, 42, 0
1, 73320, Note_on_c, 9, 62, 34
1, 73320, Note_on_c, 9, 42, 47
1, 73439, Note_on_c, 9, 35, 0
1, 73439, Note_on_c, 9, 62, 0
1, 73439, Note_on_c, 9, 42, 0
1, 73440, Note_on_c, 9, 38, 62
1, 73440, Note_on_c, 9, 62, 86
1, 73454, Note_on_c, 9, 38, 0
1, 73454, Note_on_c, 9, 62, 0
1, 73455, Note_on_c, 9, 42, 79
1, 73679, Note_on_c, 9, 42, 0
1, 73680, Note_on_c, 9, 64, 53
1, 73680, Note_on_c, 9, 63, 52
1, 73680, Note_on_c, 9, 42, 64
1, 73799, Note_on_c, 9, 64, 0
1, 73799, Note_on_c, 9, 63, 0
1, 73799, Note_on_c, 9, 42, 0
1, 73800, Note_on_c, 9, 63, 31
1, 73800, Note_on_c, 9, 42, 49
1, 73800, Note_on_c, 9, 35, 24
1, 73919, Note_on_c, 9, 63, 0
1, 73919, Note_on_c, 9, 42, 0
1, 73919, Note_on_c, 9, 35, 0
1, 73920, Note_on_c, 9, 63, 81
1, 73920, Note_on_c, 9, 38, 73
1, 73920, Note_on_c, 9, 42, 86
1, 73920, Note_on_c, 9, 35, 78
1, 74159, Note_on_c, 9, 63, 0
1, 74159, Note_on_c, 9, 38, 0
1, 74159, Note_on_c, 9, 42, 0
1, 74159, Note_on_c, 9, 35, 0
1, 74175, Note_on_c, 9, 64, 53
1, 74175, Note_on_c, 9, 62, 63
1, 74175, Note_on_c, 9, 42, 66
1, 74175, Note_on_c, 9, 35, 82
1, 74219, Note_on_c, 9, 64, 0
1, 74219, Note_on_c, 9, 62, 0
1, 74219, Note_on_c, 9, 42, 0
1, 74295, Note_on_c, 9, 62, 46
1, 74295, Note_on_c, 9, 42, 55
1, 74339, Note_on_c, 9, 62, 0
1, 74339, Note_on_c, 9, 42, 0
1, 74399, Note_on_c, 9, 35, 0
1, 74415, Note_on_c, 9, 38, 63
1, 74415, Note_on_c, 9, 62, 90
1, 74415, Note_on_c, 9, 42, 82
1, 74639, Note_on_c, 9, 38, 0
1, 74639, Note_on_c, 9, 42, 0
1, 74684, Note_on_c, 9, 62, 0
1, 74685, Note_on_c, 9, 64, 53
1, 74685, Note_on_c, 9, 63, 50
1, 74685, Note_on_c, 9, 42, 63
1, 74819, Note_on_c, 9, 64, 0
1, 74819, Note_on_c, 9, 63, 0
1, 74819, Note_on_c, 9, 42, 0
1, 74820, Note_on_c, 9, 63, 19
1, 74820, Note_on_c, 9, 44, 40
1, 74879, Note_on_c, 9, 63, 0
1, 74879, Note_on_c, 9, 44, 0
1, 74940, Note_on_c, 9, 63, 67
1, 74940, Note_on_c, 9, 38, 72
1, 74940, Note_on_c, 9, 42, 75
1, 74940, Note_on_c, 9, 35, 89
1, 75119, Note_on_c, 9, 63, 0
1, 75119, Note_on_c, 9, 38, 0
1, 75119, Note_on_c, 9, 42, 0
1, 75119, Note_on_c, 9, 35, 0
1, 75150, Note_on_c, 9, 64, 53
1, 75150, Note_on_c, 9, 62, 63
1, 75164, Note_on_c, 9, 64, 0
1, 75164, Note_on_c, 9, 62, 0
1, 75165, Note_on_c, 9, 42, 66
1, 75179, Note_on_c, 9, 42, 0
1, 75255, Note_on_c, 9, 62, 58
1, 75269, Note_on_c, 9, 62, 0
1, 75270, Note_on_c, 9, 42, 62
1, 75359, Note_on_c, 9, 42, 0
1, 75360, Note_on_c, 9, 38, 63
1, 75360, Note_on_c, 9, 62, 96
1, 75360, Note_on_c, 9, 42, 85
1, 75599, Note_on_c, 9, 38, 0
1, 75599, Note_on_c, 9, 62, 0
1, 75599, Note_on_c, 9, 42, 0
1, 75615, Note_on_c, 9, 64, 55
1, 75615, Note_on_c, 9, 63, 33
1, 75615, Note_on_c, 9, 42, 50
1, 75659, Note_on_c, 9, 64, 0
1, 75659, Note_on_c, 9, 63, 0
1, 75659, Note_on_c, 9, 42, 0
1, 75735, Note_on_c, 9, 63, 17
1, 75735, Note_on_c, 9, 42, 30
1, 75735, Note_on_c, 9, 35, 34
1, 75779, Note_on_c, 9, 63, 0
1, 75779, Note_on_c, 9, 42, 0
1, 75779, Note_on_c, 9, 35, 0
1, 75855, Note_on_c, 9, 63, 53
1, 75855, Note_on_c, 9, 38, 80
1, 75855, Note_on_c, 9, 42, 89
1, 75855, Note_on_c, 9, 35, 77
1, 76079, Note_on_c, 9, 63, 0
1, 76079, Note_on_c, 9, 38, 0
1, 76079, Note_on_c, 9, 42, 0
1, 76079, Note_on_c, 9, 35, 0
1, 76095, Note_on_c, 9, 64, 55
1, 76095, Note_on_c, 9, 62, 66
1, 76095, Note_on_c, 9, 42, 67
1, 76095, Note_on_c, 9, 35, 86
1, 76139, Note_on_c, 9, 64, 0
1, 76139, Note_on_c, 9, 62, 0
1, 76139, Note_on_c, 9, 42, 0
1, 76215, Note_on_c, 9, 62, 48
1, 76215, Note_on_c, 9, 42, 56
1, 76259, Note_on_c, 9, 62, 0
1, 76259, Note_on_c, 9, 42, 0
1, 76319, Note_on_c, 9, 35, 0
1, 76320, Note_on_c, 9, 38, 58
1, 76334, Note_on_c, 9, 38, 0
1, 76335, Note_on_c, 9, 62, 92
1, 76335, Note_on_c, 9, 42, 83
1, 76559, Note_on_c, 9, 42, 0
1, 76604, Note_on_c, 9, 62, 0
1, 76605, Note_on_c, 9, 64, 57
1, 76605, Note_on_c, 9, 63, 60
1, 76605, Note_on_c, 9, 42, 70
1, 76739, Note_on_c, 9, 64, 0
1, 76739, Note_on_c, 9, 63, 0
1, 76739, Note_on_c, 9, 42, 0
1, 76740, Note_on_c, 9, 63, 36
1, 76740, Note_on_c, 9, 42, 52
1, 76799, Note_on_c, 9, 63, 0
1, 76799, Note_on_c, 9, 42, 0
1, 76860, Note_on_c, 9, 63, 88
1, 76860, Note_on_c, 9, 38, 77
1, 76860, Note_on_c, 9, 42, 91
1, 76860, Note_on_c, 9, 35, 84
1, 77039, Note_on_c, 9, 35, 0
1, 77129, Note_on_c, 9, 63, 0
1, 77129, Note_on_c, 9, 38, 0
1, 77129, Note_on_c, 9, 42, 0
1, 77130, Note_on_c, 9, 64, 57
1, 77130, Note_on_c, 9, 62, 68
1, 77130, Note_on_c, 9, 42, 68
1, 77159, Note_on_c, 9, 64, 0
1, 77159, Note_on_c, 9, 62, 0
1, 77279, Note_on_c, 9, 42, 0
1, 77280, Note_on_c, 9, 62, 66
1, 77280, Note_on_c, 9, 42, 67
1, 77399, Note_on_c, 9, 62, 0
1, 77399, Note_on_c, 9, 42, 0
1, 77400, Note_on_c, 9, 38, 57
1, 77400, Note_on_c, 9, 62, 90
1, 77400, Note_on_c, 9, 42, 82
1, 77639, Note_on_c, 9, 38, 0
1, 77639, Note_on_c, 9, 62, 0
1, 77639, Note_on_c, 9, 42, 0
1, 77640, Note_on_c, 9, 64, 63
1, 77640, Note_on_c, 9, 63, 58
1, 77640, Note_on_c, 9, 42, 69
1, 77759, Note_on_c, 9, 64, 0
1, 77759, Note_on_c, 9, 63, 0
1, 77759, Note_on_c, 9, 42, 0
1, 77760, Note_on_c, 9, 63, 50
1, 77760, Note_on_c, 9, 42, 63
1, 77760, Note_on_c, 9, 35, 29
1, 77879, Note_on_c, 9, 63, 0
1, 77879, Note_on_c, 9, 42, 0
1, 77879, Note_on_c, 9, 35, 0
1, 77880, Note_on_c, 9, 63, 66
1, 77880, Note_on_c, 9, 38, 75
1, 77880, Note_on_c, 9, 42, 74
1, 77880, Note_on_c, 9, 35, 73
1, 78119, Note_on_c, 9, 63, 0
1, 78119, Note_on_c, 9, 38, 0
1, 78119, Note_on_c, 9, 42, 0
1, 78119, Note_on_c, 9, 35, 0
1, 78135, Note_on_c, 9, 64, 63
1, 78135, Note_on_c, 9, 62, 75
1, 78135, Note_on_c, 9, 35, 82
1, 78149, Note_on_c, 9, 64, 0
1, 78149, Note_on_c, 9, 62, 0
1, 78150, Note_on_c, 9, 42, 73
1, 78179, Note_on_c, 9, 35, 0
1, 78239, Note_on_c, 9, 42, 0
1, 78240, Note_on_c, 9, 62, 52
1, 78240, Note_on_c, 9, 42, 58
1, 78359, Note_on_c, 9, 62, 0
1, 78359, Note_on_c, 9, 42, 0
1, 78390, Note_on_c, 9, 38, 62
1, 78390, Note_on_c, 9, 62, 66
1, 78404, Note_on_c, 9, 38, 0
1, 78404, Note_on_c, 9, 62, 0
1, 78405, Note_on_c, 9, 42, 67
1, 78644, Note_on_c, 9, 42, 0
1, 78645, Note_on_c, 9, 64, 55
1, 78645, Note_on_c, 9, 63, 53
1, 78645, Note_on_c, 9, 42, 62
1, 78659, Note_on_c, 9, 64, 0
1, 78659, Note_on_c, 9, 63, 0
1, 78719, Note_on_c, 9, 42, 0
1, 78760, Note_on_c, 9, 63, 66
1, 78799, Note_on_c, 9, 63, 0
1, 78800, Note_on_c, 9, 42, 41
1, 78839, Note_on_c, 9, 42, 0
1, 78900, Note_on_c, 9, 38, 79
1, 78900, Note_on_c, 9, 44, 74
1, 78900, Note_on_c, 9, 35, 91
1, 78919, Note_on_c, 9, 38, 0
1, 78920, Note_on_c, 9, 63, 66
1, 78959, Note_on_c, 9, 44, 0
1, 78959, Note_on_c, 9, 35, 0
1, 78959, Note_on_c, 9, 63, 0
1, 79200, Note_on_c, 9, 64, 55
1, 79200, Note_on_c, 9, 62, 66
1, 79214, Note_on_c, 9, 64, 0
1, 79214, Note_on_c, 9, 62, 0
1, 79215, Note_on_c, 9, 42, 67
1, 79259, Note_on_c, 9, 42, 0
1, 79320, Note_on_c, 9, 62, 66
1, 79334, Note_on_c, 9, 62, 0
1, 79335, Note_on_c, 9, 42, 67
1, 79424, Note_on_c, 9, 42, 0
1, 79425, Note_on_c, 9, 38, 60
1, 79439, Note_on_c, 9, 38, 0
1, 79440, Note_on_c, 9, 62, 101
1, 79454, Note_on_c, 9, 62, 0
1, 79455, Note_on_c, 9, 42, 89
1, 79679, Note_on_c, 9, 42, 0
1, 79680, Note_on_c, 9, 64, 29
1, 79680, Note_on_c, 9, 63, 49
1, 79680, Note_on_c, 9, 42, 62
1, 79799, Note_on_c, 9, 64, 0
1, 79799, Note_on_c, 9, 63, 0
1, 79799, Note_on_c, 9, 42, 0
1, 79800, Note_on_c, 9, 63, 52
1, 79800, Note_on_c, 9, 42, 64
1, 79800, Note_on_c, 9, 35, 19
1, 79919, Note_on_c, 9, 63, 0
1, 79919, Note_on_c, 9, 42, 0
1, 79919, Note_on_c, 9, 35, 0
1, 79920, Note_on_c, 9, 63, 77
1, 79920, Note_on_c, 9, 42, 83
1, 79920, Note_on_c, 9, 35, 78
1, 79935, Note_on_c, 9, 38, 78
1, 80159, Note_on_c, 9, 63, 0
1, 80159, Note_on_c, 9, 42, 0
1, 80159, Note_on_c, 9, 35, 0
1, 80159, Note_on_c, 9, 38, 0
1, 80175, Note_on_c, 9, 64, 29
1, 80175, Note_on_c, 9, 62, 34
1, 80175, Note_on_c, 9, 42, 47
1, 80175, Note_on_c, 9, 35, 84
1, 80219, Note_on_c, 9, 64, 0
1, 80219, Note_on_c, 9, 62, 0
1, 80219, Note_on_c, 9, 42, 0
1, 80280, Note_on_c, 9, 62, 69
1, 80280, Note_on_c, 9, 42, 69
1, 80399, Note_on_c, 9, 35, 0
1, 80399, Note_on_c, 9, 62, 0
1, 80399, Note_on_c, 9, 42, 0
1, 80400, Note_on_c, 9, 38, 58
1, 80400, Note_on_c, 9, 62, 108
1, 80400, Note_on_c, 9, 42, 93
1, 80639, Note_on_c, 9, 38, 0
1, 80639, Note_on_c, 9, 62, 0
1, 80639, Note_on_c, 9, 42, 0
1, 80640, Note_on_c, 9, 64, 48
1, 80640, Note_on_c, 9, 63, 30
1, 80640, Note_on_c, 9, 42, 48
1, 80759, Note_on_c, 9, 64, 0
1, 80759, Note_on_c, 9, 63, 0
1, 80759, Note_on_c, 9, 42, 0
1, 80775, Note_on_c, 9, 63, 49
1, 80775, Note_on_c, 9, 42, 62
1, 80819, Note_on_c, 9, 63, 0
1, 80819, Note_on_c, 9, 42, 0
1, 80880, Note_on_c, 9, 63, 73
1, 80880, Note_on_c, 9, 38, 85
1, 80880, Note_on_c, 9, 42, 80
1, 80880, Note_on_c, 9, 35, 82
1, 81119, Note_on_c, 9, 63, 0
1, 81119, Note_on_c, 9, 38, 0
1, 81119, Note_on_c, 9, 42, 0
1, 81119, Note_on_c, 9, 35, 0
1, 81120, Note_on_c, 9, 64, 48
1, 81120, Note_on_c, 9, 62, 57
1, 81134, Note_on_c, 9, 64, 0
1, 81134, Note_on_c, 9, 62, 0
1, 81135, Note_on_c, 9, 42, 61
1, 81179, Note_on_c, 9, 42, 0
1, 81240, Note_on_c, 9, 62, 62
1, 81254, Note_on_c, 9, 62, 0
1, 81255, Note_on_c, 9, 42, 64
1, 81299, Note_on_c, 9, 42, 0
1, 81360, Note_on_c, 9, 38, 58
1, 81360, Note_on_c, 9, 62, 105
1, 81360, Note_on_c, 9, 42, 91
1, 81599, Note_on_c, 9, 38, 0
1, 81599, Note_on_c, 9, 62, 0
1, 81599, Note_on_c, 9, 42, 0
1, 81600, Note_on_c, 9, 64, 62
1, 81600, Note_on_c, 9, 63, 46
1, 81600, Note_on_c, 9, 42, 60
1, 81719, Note_on_c, 9, 64, 0
1, 81719, Note_on_c, 9, 63, 0
1, 81719, Note_on_c, 9, 42, 0
1, 81720, Note_on_c, 9, 63, 50
1, 81720, Note_on_c, 9, 42, 63
1, 81720, Note_on_c, 9, 35, 37
1, 81839, Note_on_c, 9, 63, 0
1, 81839, Note_on_c, 9, 42, 0
1, 81839, Note_on_c, 9, 35, 0
1, 81840, Note_on_c, 9, 63, 77
1, 81840, Note_on_c, 9, 38, 78
1, 81840, Note_on_c, 9, 42, 83
1, 81840, Note_on_c, 9, 35, 78
1, 82079, Note_on_c, 9, 63, 0
1, 82079, Note_on_c, 9, 38, 0
1, 82079, Note_on_c, 9, 42, 0
1, 82079, Note_on_c, 9, 35, 0
1, 82080, Note_on_c, 9, 64, 62
1, 82080, Note_on_c, 9, 62, 74
1, 82080, Note_on_c, 9, 35, 78
1, 82094, Note_on_c, 9, 64, 0
1, 82094, Note_on_c, 9, 62, 0
1, 82095, Note_on_c, 9, 42, 72
1, 82139, Note_on_c, 9, 42, 0
1, 82200, Note_on_c, 9, 62, 58
1, 82200, Note_on_c, 9, 42, 62
1, 82319, Note_on_c, 9, 62, 0
1, 82319, Note_on_c, 9, 42, 0
1, 82320, Note_on_c, 9, 38, 51
1, 82320, Note_on_c, 9, 62, 72
1, 82334, Note_on_c, 9, 38, 0
1, 82335, Note_on_c, 9, 42, 70
1, 82559, Note_on_c, 9, 35, 0
1, 82559, Note_on_c, 9, 62, 0
1, 82559, Note_on_c, 9, 42, 0
1, 82575, Note_on_c, 9, 64, 49
1, 82575, Note_on_c, 9, 63, 55
1, 82575, Note_on_c, 9, 46, 47
1, 82619, Note_on_c, 9, 64, 0
1, 82619, Note_on_c, 9, 63, 0
1, 82619, Note_on_c, 9, 46, 0
1, 82680, Note_on_c, 9, 63, 33
1, 82680, Note_on_c, 9, 46, 71
1, 82799, Note_on_c, 9, 63, 0
1, 82799, Note_on_c, 9, 46, 0
1, 82800, Note_on_c, 9, 63, 58
1, 82800, Note_on_c, 9, 38, 62
1, 82800, Note_on_c, 9, 44, 69
1, 82800, Note_on_c, 9, 35, 84
1, 83039, Note_on_c, 9, 63, 0
1, 83039, Note_on_c, 9, 38, 0
1, 83039, Note_on_c, 9, 44, 0
1, 83039, Note_on_c, 9, 35, 0
1, 83040, Note_on_c, 9, 64, 49
1, 83040, Note_on_c, 9, 62, 58
1, 83054, Note_on_c, 9, 64, 0
1, 83054, Note_on_c, 9, 62, 0
1, 83055, Note_on_c, 9, 42, 62
1, 83099, Note_on_c, 9, 42, 0
1, 83160, Note_on_c, 9, 62, 42
1, 83160, Note_on_c, 9, 42, 52
1, 83279, Note_on_c, 9, 62, 0
1, 83279, Note_on_c, 9, 42, 0
1, 83295, Note_on_c, 9, 38, 56
1, 83295, Note_on_c, 9, 62, 74
1, 83295, Note_on_c, 9, 42, 72
1, 83519, Note_on_c, 9, 38, 0
1, 83519, Note_on_c, 9, 62, 0
1, 83519, Note_on_c, 9, 42, 0
1, 83535, Note_on_c, 9, 64, 57
1, 83535, Note_on_c, 9, 63, 49
1, 83535, Note_on_c, 9, 42, 62
1, 83579, Note_on_c, 9, 64, 0
1, 83579, Note_on_c, 9, 63, 0
1, 83579, Note_on_c, 9, 42, 0
1, 83655, Note_on_c, 9, 63, 29
1, 83655, Note_on_c, 9, 42, 47
1, 83655, Note_on_c, 9, 35, 31
1, 83699, Note_on_c, 9, 63, 0
1, 83699, Note_on_c, 9, 42, 0
1, 83699, Note_on_c, 9, 35, 0
1, 83760, Note_on_c, 9, 63, 80
1, 83760, Note_on_c, 9, 38, 47
1, 83760, Note_on_c, 9, 42, 85
1, 83760, Note_on_c, 9, 35, 75
1, 83999, Note_on_c, 9, 63, 0
1, 83999, Note_on_c, 9, 38, 0
1, 83999, Note_on_c, 9, 42, 0
1, 83999, Note_on_c, 9, 35, 0
1, 84000, Note_on_c, 9, 64, 57
1, 84000, Note_on_c, 9, 62, 68
1, 84000, Note_on_c, 9, 35, 78
1, 84014, Note_on_c, 9, 64, 0
1, 84014, Note_on_c, 9, 62, 0
1, 84015, Note_on_c, 9, 42, 68
1, 84059, Note_on_c, 9, 42, 0
1, 84120, Note_on_c, 9, 62, 18
1, 84134, Note_on_c, 9, 62, 0
1, 84135, Note_on_c, 9, 42, 37
1, 84179, Note_on_c, 9, 42, 0
1, 84240, Note_on_c, 9, 38, 52
1, 84240, Note_on_c, 9, 62, 92
1, 84254, Note_on_c, 9, 38, 0
1, 84254, Note_on_c, 9, 62, 0
1, 84255, Note_on_c, 9, 42, 83
1, 84479, Note_on_c, 9, 35, 0
1, 84479, Note_on_c, 9, 42, 0
1, 84480, Note_on_c, 9, 64, 48
1, 84480, Note_on_c, 9, 63, 60
1, 84480, Note_on_c, 9, 42, 70
1, 84599, Note_on_c, 9, 64, 0
1, 84599, Note_on_c, 9, 63, 0
1, 84599, Note_on_c, 9, 42, 0
1, 84600, Note_on_c, 9, 35, 44
1, 84615, Note_on_c, 9, 63, 46
1, 84615, Note_on_c, 9, 42, 60
1, 84659, Note_on_c, 9, 63, 0
1, 84659, Note_on_c, 9, 42, 0
1, 84719, Note_on_c, 9, 35, 0
1, 84720, Note_on_c, 9, 63, 80
1, 84720, Note_on_c, 9, 38, 47
1, 84720, Note_on_c, 9, 42, 85
1, 84720, Note_on_c, 9, 35, 68
1, 84959, Note_on_c, 9, 63, 0
1, 84959, Note_on_c, 9, 38, 0
1, 84959, Note_on_c, 9, 42, 0
1, 84959, Note_on_c, 9, 35, 0
1, 84960, Note_on_c, 9, 64, 48
1, 84960, Note_on_c, 9, 62, 57
1, 84960, Note_on_c, 9, 35, 68
1, 84974, Note_on_c, 9, 64, 0
1, 84974, Note_on_c, 9, 62, 0
1, 84975, Note_on_c, 9, 42, 61
1, 85019, Note_on_c, 9, 42, 0
1, 85080, Note_on_c, 9, 62, 22
1, 85094, Note_on_c, 9, 62, 0
1, 85095, Note_on_c, 9, 42, 40
1, 85139, Note_on_c, 9, 42, 0
1, 85200, Note_on_c, 9, 38, 64
1, 85200, Note_on_c, 9, 62, 88
1, 85200, Note_on_c, 9, 42, 80
1, 85439, Note_on_c, 9, 35, 0
1, 85439, Note_on_c, 9, 38, 0
1, 85439, Note_on_c, 9, 62, 0
1, 85439, Note_on_c, 9, 42, 0
1, 85440, Note_on_c, 9, 64, 58
1, 85440, Note_on_c, 9, 63, 62
1, 85440, Note_on_c, 9, 42, 72
1, 85559, Note_on_c, 9, 64, 0
1, 85559, Note_on_c, 9, 63, 0
1, 85559, Note_on_c, 9, 42, 0
1, 85560, Note_on_c, 9, 63, 39
1, 85560, Note_on_c, 9, 42, 55
1, 85560, Note_on_c, 9, 35, 60
1, 85679, Note_on_c, 9, 63, 0
1, 85679, Note_on_c, 9, 42, 0
1, 85679, Note_on_c, 9, 35, 0
1, 85680, Note_on_c, 9, 63, 63
1, 85680, Note_on_c, 9, 38, 50
1, 85680, Note_on_c, 9, 42, 73
1, 85680, Note_on_c, 9, 35, 79
1, 85919, Note_on_c, 9, 63, 0
1, 85919, Note_on_c, 9, 38, 0
1, 85919, Note_on_c, 9, 42, 0
1, 85919, Note_on_c, 9, 35, 0
1, 85920, Note_on_c, 9, 64, 58
1, 85920, Note_on_c, 9, 62, 69
1, 85920, Note_on_c, 9, 42, 69
1, 85920, Note_on_c, 9, 35, 70
1, 86039, Note_on_c, 9, 64, 0
1, 86039, Note_on_c, 9, 62, 0
1, 86039, Note_on_c, 9, 42, 0
1, 86055, Note_on_c, 9, 62, 46
1, 86099, Note_on_c, 9, 62, 0
1, 86160, Note_on_c, 9, 38, 61
1, 86160, Note_on_c, 9, 62, 80
1, 86160, Note_on_c, 9, 42, 75
1, 86399, Note_on_c, 9, 35, 0
1, 86399, Note_on_c, 9, 38, 0
1, 86399, Note_on_c, 9, 62, 0
1, 86399, Note_on_c, 9, 42, 0
1, 86400, Note_on_c, 9, 43, 58
1, 86429, Note_on_c, 9, 43, 0
1, 86430, Note_on_c, 9, 44, 75
1, 86519, Note_on_c, 9, 44, 0
1, 86520, Note_on_c, 9, 41, 21
1, 86520, Note_on_c, 9, 42, 17
1, 86639, Note_on_c, 9, 41, 0
1, 86639, Note_on_c, 9, 42, 0
1, 86640, Note_on_c, 9, 35, 67
1, 86655, Note_on_c, 9, 63, 73
1, 86655, Note_on_c, 9, 42, 62
1, 86759, Note_on_c, 9, 35, 0
1, 86790, Note_on_c, 9, 44, 20
1, 86879, Note_on_c, 9, 63, 0
1, 86879, Note_on_c, 9, 42, 0
1, 86879, Note_on_c, 9, 44, 0
1, 86895, Note_on_c, 9, 42, 62
1, 86909, Note_on_c, 9, 42, 0
1, 86910, Note_on_c, 9, 63, 48
1, 86999, Note_on_c, 9, 63, 0
1, 87015, Note_on_c, 9, 63, 42
1, 87015, Note_on_c, 9, 42, 48
1, 87059, Note_on_c, 9, 63, 0
1, 87059, Note_on_c, 9, 42, 0
1, 87135, Note_on_c, 9, 63, 80
1, 87135, Note_on_c, 9, 38, 79
1, 87135, Note_on_c, 9, 44, 83
1, 87194, Note_on_c, 9, 38, 0
1, 87359, Note_on_c, 9, 63, 0
1, 87359, Note_on_c, 9, 44, 0
1, 87360, Note_on_c, 9, 63, 49
1, 87360, Note_on_c, 9, 42, 62
1, 87479, Note_on_c, 9, 63, 0
1, 87479, Note_on_c, 9, 42, 0
1, 87480, Note_on_c, 9, 63, 30
1, 87480, Note_on_c, 9, 42, 48
1, 87480, Note_on_c, 9, 35, 27
1, 87599, Note_on_c, 9, 63, 0
1, 87599, Note_on_c, 9, 42, 0
1, 87599, Note_on_c, 9, 35, 0
1, 87600, Note_on_c, 9, 63, 73
1, 87600, Note_on_c, 9, 42, 80
1, 87600, Note_on_c, 9, 35, 70
1, 87719, Note_on_c, 9, 35, 0
1, 87720, Note_on_c, 9, 44, 20
1, 87839, Note_on_c, 9, 63, 0
1, 87839, Note_on_c, 9, 42, 0
1, 87839, Note_on_c, 9, 44, 0
1, 87840, Note_on_c, 9, 63, 48
1, 87840, Note_on_c, 9, 42, 61
1, 87840, Note_on_c, 9, 35, 62
1, 87959, Note_on_c, 9, 63, 0
1, 87959, Note_on_c, 9, 42, 0
1, 87975, Note_on_c, 9, 63, 42
1, 87975, Note_on_c, 9, 42, 57
1, 88019, Note_on_c, 9, 63, 0
1, 88019, Note_on_c, 9, 42, 0
1, 88095, Note_on_c, 9, 63, 80
1, 88095, Note_on_c, 9, 38, 79
1, 88095, Note_on_c, 9, 42, 85
1, 88154, Note_on_c, 9, 38, 0
1, 88319, Note_on_c, 9, 35, 0
1, 88319, Note_on_c, 9, 63, 0
1, 88319, Note_on_c, 9, 42, 0
1, 88335, Note_on_c, 9, 63, 57
1, 88335, Note_on_c, 9, 42, 68
1, 88379, Note_on_c, 9, 63, 0
1, 88379, Note_on_c, 9, 42, 0
1, 88440, Note_on_c, 9, 63, 52
1, 88459, Note_on_c, 9, 63, 0
1, 88460, Note_on_c, 9, 40, 25
1, 88499, Note_on_c, 9, 40, 0
1, 88560, Note_on_c, 9, 35, 67
1, 88575, Note_on_c, 9, 63, 77
1, 88575, Note_on_c, 9, 42, 83
1, 88679, Note_on_c, 9, 35, 0
1, 88680, Note_on_c, 9, 44, 23
1, 88799, Note_on_c, 9, 63, 0
1, 88799, Note_on_c, 9, 42, 0
1, 88799, Note_on_c, 9, 44, 0
1, 88830, Note_on_c, 9, 63, 46
1, 88830, Note_on_c, 9, 42, 60
1, 88919, Note_on_c, 9, 63, 0
1, 88919, Note_on_c, 9, 42, 0
1, 88950, Note_on_c, 9, 63, 29
1, 88950, Note_on_c, 9, 42, 47
1, 89039, Note_on_c, 9, 63, 0
1, 89039, Note_on_c, 9, 42, 0
1, 89040, Note_on_c, 9, 63, 72
1, 89040, Note_on_c, 9, 38, 75
1, 89040, Note_on_c, 9, 42, 79
1, 89279, Note_on_c, 9, 63, 0
1, 89279, Note_on_c, 9, 38, 0
1, 89279, Note_on_c, 9, 42, 0
1, 89280, Note_on_c, 9, 63, 52
1, 89280, Note_on_c, 9, 42, 64
1, 89399, Note_on_c, 9, 63, 0
1, 89399, Note_on_c, 9, 42, 0
1, 89400, Note_on_c, 9, 63, 31
1, 89400, Note_on_c, 9, 42, 49
1, 89400, Note_on_c, 9, 35, 24
1, 89519, Note_on_c, 9, 63, 0
1, 89519, Note_on_c, 9, 42, 0
1, 89519, Note_on_c, 9, 35, 0
1, 89520, Note_on_c, 9, 63, 81
1, 89520, Note_on_c, 9, 42, 86
1, 89520, Note_on_c, 9, 35, 66
1, 89639, Note_on_c, 9, 35, 0
1, 89640, Note_on_c, 9, 44, 20
1, 89759, Note_on_c, 9, 63, 0
1, 89759, Note_on_c, 9, 42, 0
1, 89759, Note_on_c, 9, 44, 0
1, 89760, Note_on_c, 9, 63, 53
1, 89760, Note_on_c, 9, 42, 66
1, 89760, Note_on_c, 9, 35, 66
1, 89879, Note_on_c, 9, 63, 0
1, 89879, Note_on_c, 9, 42, 0
1, 89895, Note_on_c, 9, 63, 39
1, 89895, Note_on_c, 9, 42, 55
1, 89939, Note_on_c, 9, 63, 0
1, 89939, Note_on_c, 9, 42, 0
1, 90015, Note_on_c, 9, 63, 75
1, 90015, Note_on_c, 9, 38, 75
1, 90015, Note_on_c, 9, 42, 82
1, 90074, Note_on_c, 9, 38, 0
1, 90239, Note_on_c, 9, 35, 0
1, 90239, Note_on_c, 9, 63, 0
1, 90239, Note_on_c, 9, 42, 0
1, 90240, Note_on_c, 9, 63, 50
1, 90240, Note_on_c, 9, 42, 63
1, 90359, Note_on_c, 9, 63, 0
1, 90359, Note_on_c, 9, 42, 0
1, 90360, Note_on_c, 9, 63, 19
1, 90360, Note_on_c, 9, 44, 40
1, 90360, Note_on_c, 9, 35, 17
1, 90479, Note_on_c, 9, 63, 0
1, 90479, Note_on_c, 9, 44, 0
1, 90479, Note_on_c, 9, 35, 0
1, 90480, Note_on_c, 9, 35, 75
1, 90495, Note_on_c, 9, 63, 67
1, 90495, Note_on_c, 9, 42, 75
1, 90599, Note_on_c, 9, 35, 0
1, 90600, Note_on_c, 9, 44, 20
1, 90719, Note_on_c, 9, 63, 0
1, 90719, Note_on_c, 9, 42, 0
1, 90719, Note_on_c, 9, 44, 0
1, 90750, Note_on_c, 9, 63, 53
1, 90750, Note_on_c, 9, 42, 66
1, 90839, Note_on_c, 9, 63, 0
1, 90839, Note_on_c, 9, 42, 0
1, 90840, Note_on_c, 9, 63, 49
1, 90840, Note_on_c, 9, 42, 62
1, 90959, Note_on_c, 9, 63, 0
1, 90959, Note_on_c, 9, 42, 0
1, 90975, Note_on_c, 9, 63, 80
1, 90975, Note_on_c, 9, 38, 70
1, 90975, Note_on_c, 9, 42, 85
1, 91034, Note_on_c, 9, 38, 0
1, 91199, Note_on_c, 9, 63, 0
1, 91199, Note_on_c, 9, 42, 0
1, 91200, Note_on_c, 9, 63, 33
1, 91200, Note_on_c, 9, 42, 50
1, 91319, Note_on_c, 9, 63, 0
1, 91319, Note_on_c, 9, 42, 0
1, 91320, Note_on_c, 9, 63, 17
1, 91320, Note_on_c, 9, 42, 30
1, 91320, Note_on_c, 9, 35, 22
1, 91439, Note_on_c, 9, 63, 0
1, 91439, Note_on_c, 9, 42, 0
1, 91439, Note_on_c, 9, 35, 0
1, 91440, Note_on_c, 9, 63, 53
1, 91440, Note_on_c, 9, 42, 89
1, 91440, Note_on_c, 9, 35, 72
1, 91559, Note_on_c, 9, 35, 0
1, 91560, Note_on_c, 9, 44, 35
1, 91679, Note_on_c, 9, 63, 0
1, 91679, Note_on_c, 9, 42, 0
1, 91679, Note_on_c, 9, 44, 0
1, 91680, Note_on_c, 9, 63, 55
1, 91680, Note_on_c, 9, 42, 67
1, 91680, Note_on_c, 9, 35, 66
1, 91799, Note_on_c, 9, 63, 0
1, 91799, Note_on_c, 9, 42, 0
1, 91830, Note_on_c, 9, 63, 40
1, 91830, Note_on_c, 9, 42, 56
1, 91919, Note_on_c, 9, 63, 0
1, 91919, Note_on_c, 9, 42, 0
1, 91950, Note_on_c, 9, 63, 77
1, 91950, Note_on_c, 9, 38, 69
1, 91950, Note_on_c, 9, 42, 83
1, 92009, Note_on_c, 9, 38, 0
1, 92039, Note_on_c, 9, 63, 0
1, 92039, Note_on_c, 9, 42, 0
1, 92159, Note_on_c, 9, 35, 0
1, 92190, Note_on_c, 9, 63, 60
1, 92190, Note_on_c, 9, 42, 70
1, 92279, Note_on_c, 9, 63, 0
1, 92279, Note_on_c, 9, 42, 0
1, 92355, Note_on_c, 9, 63, 36
1, 92355, Note_on_c, 9, 40, 19
1, 92489, Note_on_c, 9, 63, 0
1, 92489, Note_on_c, 9, 40, 0
1, 92490, Note_on_c, 9, 63, 88
1, 92490, Note_on_c, 9, 42, 91
1, 92519, Note_on_c, 9, 63, 0
1, 92519, Note_on_c, 9, 42, 0
1, 92520, Note_on_c, 9, 35, 68
1, 92639, Note_on_c, 9, 35, 0
1, 92640, Note_on_c, 9, 44, 20
1, 92790, Note_on_c, 9, 63, 57
1, 92790, Note_on_c, 9, 42, 68
1, 92879, Note_on_c, 9, 63, 0
1, 92879, Note_on_c, 9, 42, 0
1, 92940, Note_on_c, 9, 63, 55
1, 92940, Note_on_c, 9, 42, 67
1, 93059, Note_on_c, 9, 63, 0
1, 93059, Note_on_c, 9, 42, 0
1, 93060, Note_on_c, 9, 63, 75
1, 93060, Note_on_c, 9, 38, 66
1, 93060, Note_on_c, 9, 42, 82
1, 93119, Note_on_c, 9, 44, 0
1, 93119, Note_on_c, 9, 63, 0
1, 93119, Note_on_c, 9, 38, 0
1, 93119, Note_on_c, 9, 42, 0
1, 93330, Note_on_c, 9, 63, 58
1, 93330, Note_on_c, 9, 42, 69
1, 93359, Note_on_c, 9, 63, 0
1, 93359, Note_on_c, 9, 42, 0
1, 93480, Note_on_c, 9, 63, 50
1, 93480, Note_on_c, 9, 42, 63
1, 93480, Note_on_c, 9, 35, 58
1, 93599, Note_on_c, 9, 63, 0
1, 93599, Note_on_c, 9, 42, 0
1, 93599, Note_on_c, 9, 35, 0
1, 93600, Note_on_c, 9, 63, 66
1, 93600, Note_on_c, 9, 42, 74
1, 93600, Note_on_c, 9, 35, 68
1, 93719, Note_on_c, 9, 35, 0
1, 93735, Note_on_c, 9, 44, 20
1, 93779, Note_on_c, 9, 44, 0
1, 93839, Note_on_c, 9, 63, 0
1, 93839, Note_on_c, 9, 42, 0
1, 93840, Note_on_c, 9, 63, 63
1, 93840, Note_on_c, 9, 42, 73
1, 93840, Note_on_c, 9, 35, 64
1, 93959, Note_on_c, 9, 63, 0
1, 93959, Note_on_c, 9, 42, 0
1, 93960, Note_on_c, 9, 63, 44
1, 93960, Note_on_c, 9, 42, 58
1, 94079, Note_on_c, 9, 35, 0
1, 94079, Note_on_c, 9, 63, 0
1, 94079, Note_on_c, 9, 42, 0
1, 94080, Note_on_c, 9, 63, 55
1, 94080, Note_on_c, 9, 38, 67
1, 94080, Note_on_c, 9, 42, 67
1, 94199, Note_on_c, 9, 63, 0
1, 94199, Note_on_c, 9, 38, 0
1, 94199, Note_on_c, 9, 42, 0
1, 94215, Note_on_c, 9, 42, 29
1, 94259, Note_on_c, 9, 42, 0
1, 94320, Note_on_c, 9, 63, 53
1, 94320, Note_on_c, 9, 47, 70
1, 94350, Note_on_c, 9, 44, 38
1, 94439, Note_on_c, 9, 63, 0
1, 94439, Note_on_c, 9, 47, 0
1, 94439, Note_on_c, 9, 44, 0
1, 94470, Note_on_c, 9, 63, 66
1, 94470, Note_on_c, 9, 47, 27
1, 94470, Note_on_c, 9, 35, 15
1, 94559, Note_on_c, 9, 63, 0
1, 94559, Note_on_c, 9, 47, 0
1, 94559, Note_on_c, 9, 35, 0
1, 94560, Note_on_c, 9, 35, 67
1, 94605, Note_on_c, 9, 63, 66
1, 94605, Note_on_c, 9, 42, 74
1, 94679, Note_on_c, 9, 35, 0
1, 94710, Note_on_c, 9, 44, 20
1, 94799, Note_on_c, 9, 44, 0
1, 94844, Note_on_c, 9, 63, 0
1, 94844, Note_on_c, 9, 42, 0
1, 94845, Note_on_c, 9, 63, 55
1, 94845, Note_on_c, 9, 42, 67
1, 94859, Note_on_c, 9, 63, 0
1, 94859, Note_on_c, 9, 42, 0
1, 94950, Note_on_c, 9, 63, 55
1, 94950, Note_on_c, 9, 42, 67
1, 95039, Note_on_c, 9, 63, 0
1, 95039, Note_on_c, 9, 42, 0
1, 95070, Note_on_c, 9, 63, 84
1, 95070, Note_on_c, 9, 38, 79
1, 95070, Note_on_c, 9, 42, 89
1, 95159, Note_on_c, 9, 63, 0
1, 95159, Note_on_c, 9, 42, 0
1, 95309, Note_on_c, 9, 38, 0
1, 95310, Note_on_c, 9, 63, 49
1, 95310, Note_on_c, 9, 42, 62
1, 95399, Note_on_c, 9, 63, 0
1, 95399, Note_on_c, 9, 42, 0
1, 95400, Note_on_c, 9, 35, 27
1, 95430, Note_on_c, 9, 63, 52
1, 95430, Note_on_c, 9, 42, 64
1, 95519, Note_on_c, 9, 35, 0
1, 95519, Note_on_c, 9, 63, 0
1, 95519, Note_on_c, 9, 42, 0
1, 95520, Note_on_c, 9, 35, 70
1, 95550, Note_on_c, 9, 63, 77
1, 95550, Note_on_c, 9, 42, 83
1, 95639, Note_on_c, 9, 35, 0
1, 95639, Note_on_c, 9, 63, 0
1, 95639, Note_on_c, 9, 42, 0
1, 95670, Note_on_c, 9, 44, 20
1, 95759, Note_on_c, 9, 44, 0
1, 95760, Note_on_c, 9, 63, 29
1, 95760, Note_on_c, 9, 42, 47
1, 95760, Note_on_c, 9, 35, 62
1, 95879, Note_on_c, 9, 63, 0
1, 95879, Note_on_c, 9, 42, 0
1, 95880, Note_on_c, 9, 63, 58
1, 95880, Note_on_c, 9, 42, 69
1, 95999, Note_on_c, 9, 35, 0
1, 95999, Note_on_c, 9, 63, 0
1, 95999, Note_on_c, 9, 42, 0
1, 96000, Note_on_c, 9, 63, 90
1, 96000, Note_on_c, 9, 38, 79
1, 96000, Note_on_c, 9, 42, 93
1, 96120, Note_on_c, 9, 44, 26
1, 96239, Note_on_c, 9, 63, 0
1, 96239, Note_on_c, 9, 38, 0
1, 96239, Note_on_c, 9, 42, 0
1, 96270, Note_on_c, 9, 63, 30
1, 96270, Note_on_c, 9, 42, 48
1, 96359, Note_on_c, 9, 63, 0
1, 96359, Note_on_c, 9, 42, 0
1, 96420, Note_on_c, 9, 63, 49
1, 96420, Note_on_c, 9, 40, 25
1, 96479, Note_on_c, 9, 44, 0
1, 96479, Note_on_c, 9, 63, 0
1, 96479, Note_on_c, 9, 40, 0
1, 96480, Note_on_c, 9, 35, 67
1, 96510, Note_on_c, 9, 63, 73
1, 96510, Note_on_c, 9, 42, 62
1, 96599, Note_on_c, 9, 35, 0
1, 96599, Note_on_c, 9, 63, 0
1, 96599, Note_on_c, 9, 42, 0
1, 96630, Note_on_c, 9, 44, 20
1, 96719, Note_on_c, 9, 44, 0
1, 96735, Note_on_c, 9, 42, 62
1, 96749, Note_on_c, 9, 42, 0
1, 96750, Note_on_c, 9, 63, 48
1, 96839, Note_on_c, 9, 63, 0
1, 96840, Note_on_c, 9, 42, 48
1, 96854, Note_on_c, 9, 42, 0
1, 96855, Note_on_c, 9, 63, 52
1, 96899, Note_on_c, 9, 63, 0
1, 96960, Note_on_c, 9, 63, 88
1, 96960, Note_on_c, 9, 38, 75
1, 96960, Note_on_c, 9, 44, 83
1, 97199, Note_on_c, 9, 63, 0
1, 97199, Note_on_c, 9, 38, 0
1, 97200, Note_on_c, 9, 63, 46
1, 97200, Note_on_c, 9, 42, 62
1, 97319, Note_on_c, 9, 44, 0
1, 97319, Note_on_c, 9, 63, 0
1, 97319, Note_on_c, 9, 42, 0
1, 97320, Note_on_c, 9, 35, 24
1, 97335, Note_on_c, 9, 63, 50
1, 97335, Note_on_c, 9, 42, 48
1, 97379, Note_on_c, 9, 63, 0
1, 97379, Note_on_c, 9, 42, 0
1, 97439, Note_on_c, 9, 35, 0
1, 97440, Note_on_c, 9, 63, 77
1, 97440, Note_on_c, 9, 42, 80
1, 97440, Note_on_c, 9, 35, 66
1, 97559, Note_on_c, 9, 35, 0
1, 97590, Note_on_c, 9, 44, 20
1, 97679, Note_on_c, 9, 63, 0
1, 97679, Note_on_c, 9, 42, 0
1, 97679, Note_on_c, 9, 44, 0
1, 97710, Note_on_c, 9, 63, 62
1, 97710, Note_on_c, 9, 42, 61
1, 97710, Note_on_c, 9, 35, 66
1, 97769, Note_on_c, 9, 35, 0
1, 97799, Note_on_c, 9, 63, 0
1, 97799, Note_on_c, 9, 42, 0
1, 97845, Note_on_c, 9, 63, 49
1, 97845, Note_on_c, 9, 42, 57
1, 97859, Note_on_c, 9, 63, 0
1, 97859, Note_on_c, 9, 42, 0
1, 97965, Note_on_c, 9, 63, 60
1, 97965, Note_on_c, 9, 38, 75
1, 97965, Note_on_c, 9, 42, 85
1, 98024, Note_on_c, 9, 38, 0
1, 98159, Note_on_c, 9, 63, 0
1, 98159, Note_on_c, 9, 42, 0
1, 98190, Note_on_c, 9, 63, 55
1, 98190, Note_on_c, 9, 42, 68
1, 98279, Note_on_c, 9, 63, 0
1, 98279, Note_on_c, 9, 42, 0
1, 98280, Note_on_c, 9, 44, 26
1, 98280, Note_on_c, 9, 35, 17
1, 98310, Note_on_c, 9, 63, 33
1, 98399, Note_on_c, 9, 44, 0
1, 98399, Note_on_c, 9, 35, 0
1, 98399, Note_on_c, 9, 63, 0
1, 98430, Note_on_c, 9, 63, 58
1, 98430, Note_on_c, 9, 38, 62
1, 98430, Note_on_c, 9, 44, 69
1, 98430, Note_on_c, 9, 35, 84
1, 98459, Note_on_c, 9, 63, 0
1, 98459, Note_on_c, 9, 38, 0
1, 98460, Note_on_c, 9, 55, 73
1, 98639, Note_on_c, 9, 55, 0
1, 98670, Note_on_c, 9, 63, 49
1, 98670, Note_on_c, 9, 42, 62
1, 98759, Note_on_c, 9, 63, 0
1, 98759, Note_on_c, 9, 42, 0
1, 98790, Note_on_c, 9, 63, 36
1, 98790, Note_on_c, 9, 42, 52
1, 98879, Note_on_c, 9, 44, 0
1, 98879, Note_on_c, 9, 35, 0
1, 98879, Note_on_c, 9, 63, 0
1, 98879, Note_on_c, 9, 42, 0
1, 98880, Note_on_c, 9, 63, 62
1, 98880, Note_on_c, 9, 38, 56
1, 98880, Note_on_c, 9, 42, 72
1, 99119, Note_on_c, 9, 63, 0
1, 99119, Note_on_c, 9, 38, 0
1, 99119, Note_on_c, 9, 42, 0
1, 99150, Note_on_c, 9, 63, 49
1, 99150, Note_on_c, 9, 42, 62
1, 99239, Note_on_c, 9, 63, 0
1, 99239, Note_on_c, 9, 42, 0
1, 99285, Note_on_c, 9, 63, 29
1, 99285, Note_on_c, 9, 42, 47
1, 99285, Note_on_c, 9, 35, 31
1, 99299, Note_on_c, 9, 63, 0
1, 99299, Note_on_c, 9, 42, 0
1, 99299, Note_on_c, 9, 35, 0
1, 99405, Note_on_c, 9, 63, 80
1, 99405, Note_on_c, 9, 38, 47
1, 99405, Note_on_c, 9, 42, 85
1, 99405, Note_on_c, 9, 35, 75
1, 99599, Note_on_c, 9, 63, 0
1, 99599, Note_on_c, 9, 38, 0
1, 99599, Note_on_c, 9, 42, 0
1, 99599, Note_on_c, 9, 35, 0
1, 99615, Note_on_c, 9, 35, 78
1, 99630, Note_on_c, 9, 63, 57
1, 99630, Note_on_c, 9, 42, 68
1, 99719, Note_on_c, 9, 63, 0
1, 99719, Note_on_c, 9, 42, 0
1, 99735, Note_on_c, 9, 63, 16
1, 99735, Note_on_c, 9, 42, 37
1, 99779, Note_on_c, 9, 63, 0
1, 99779, Note_on_c, 9, 42, 0
1, 99839, Note_on_c, 9, 35, 0
1, 99840, Note_on_c, 9, 63, 77
1, 99840, Note_on_c, 9, 38, 52
1, 99840, Note_on_c, 9, 42, 83
1, 100079, Note_on_c, 9, 63, 0
1, 100079, Note_on_c, 9, 38, 0
1, 100079, Note_on_c, 9, 42, 0
1, 100080, Note_on_c, 9, 63, 60
1, 100080, Note_on_c, 9, 42, 70
1, 100199, Note_on_c, 9, 63, 0
1, 100199, Note_on_c, 9, 42, 0
1, 100200, Note_on_c, 9, 35, 44
1, 100215, Note_on_c, 9, 63, 46
1, 100215, Note_on_c, 9, 42, 60
1, 100259, Note_on_c, 9, 63, 0
1, 100259, Note_on_c, 9, 42, 0
1, 100319, Note_on_c, 9, 35, 0
1, 100320, Note_on_c, 9, 63, 80
1, 100320, Note_on_c, 9, 38, 47
1, 100320, Note_on_c, 9, 42, 85
1, 100320, Note_on_c, 9, 35, 68
1, 100559, Note_on_c, 9, 63, 0
1, 100559, Note_on_c, 9, 38, 0
1, 100559, Note_on_c, 9, 42, 0
1, 100559, Note_on_c, 9, 35, 0
1, 100560, Note_on_c, 9, 35, 68
1, 100575, Note_on_c, 9, 63, 48
1, 100575, Note_on_c, 9, 42, 61
1, 100619, Note_on_c, 9, 63, 0
1, 100619, Note_on_c, 9, 42, 0
1, 100695, Note_on_c, 9, 63, 19
1, 100695, Note_on_c, 9, 42, 40
1, 100739, Note_on_c, 9, 63, 0
1, 100739, Note_on_c, 9, 42, 0
1, 100799, Note_on_c, 9, 35, 0
1, 100800, Note_on_c, 9, 38, 64
1, 100814, Note_on_c, 9, 38, 0
1, 100815, Note_on_c, 9, 63, 73
1, 100815, Note_on_c, 9, 42, 80
1, 101039, Note_on_c, 9, 63, 0
1, 101039, Note_on_c, 9, 42, 0
1, 101055, Note_on_c, 9, 63, 62
1, 101055, Note_on_c, 9, 42, 72
1, 101099, Note_on_c, 9, 63, 0
1, 101099, Note_on_c, 9, 42, 0
1, 101175, Note_on_c, 9, 63, 39
1, 101175, Note_on_c, 9, 42, 55
1, 101175, Note_on_c, 9, 35, 60
1, 101219, Note_on_c, 9, 63, 0
1, 101219, Note_on_c, 9, 42, 0
1, 101219, Note_on_c, 9, 35, 0
1, 101280, Note_on_c, 9, 63, 63
1, 101280, Note_on_c, 9, 38, 50
1, 101280, Note_on_c, 9, 42, 73
1, 101280, Note_on_c, 9, 35, 79
1, 101519, Note_on_c, 9, 63, 0
1, 101519, Note_on_c, 9, 38, 0
1, 101519, Note_on_c, 9, 42, 0
1, 101519, Note_on_c, 9, 35, 0
1, 101535, Note_on_c, 9, 63, 58
1, 101535, Note_on_c, 9, 42, 69
1, 101535, Note_on_c, 9, 35, 70
1, 101579, Note_on_c, 9, 63, 0
1, 101579, Note_on_c, 9, 42, 0
1, 101655, Note_on_c, 9, 63, 39
1, 101699, Note_on_c, 9, 63, 0
1, 101759, Note_on_c, 9, 35, 0
1, 101760, Note_on_c, 9, 63, 67
1, 101760, Note_on_c, 9, 38, 61
1, 101760, Note_on_c, 9, 42, 75
1, 101999, Note_on_c, 9, 63, 0
1, 101999, Note_on_c, 9, 38, 0
1, 101999, Note_on_c, 9, 42, 0
1, 102015, Note_on_c, 9, 46, 44
1, 102059, Note_on_c, 9, 46, 0
1, 102120, Note_on_c, 9, 46, 70
1, 102239, Note_on_c, 9, 46, 0
1, 102240, Note_on_c, 9, 63, 73
1, 102240, Note_on_c, 9, 44, 55
1, 102240, Note_on_c, 9, 35, 79
1, 102479, Note_on_c, 9, 63, 0
1, 102480, Note_on_c, 9, 64, 48
1, 102480, Note_on_c, 9, 62, 57
1, 102480, Note_on_c, 9, 42, 62
1, 102599, Note_on_c, 9, 64, 0
1, 102599, Note_on_c, 9, 62, 0
1, 102599, Note_on_c, 9, 42, 0
1, 102615, Note_on_c, 9, 62, 50
1, 102615, Note_on_c, 9, 42, 48
1, 102659, Note_on_c, 9, 62, 0
1, 102659, Note_on_c, 9, 42, 0
1, 102719, Note_on_c, 9, 44, 0
1, 102719, Note_on_c, 9, 35, 0
1, 102720, Note_on_c, 9, 44, 83
1, 102735, Note_on_c, 9, 38, 91
1, 102735, Note_on_c, 9, 62, 96
1, 102959, Note_on_c, 9, 38, 0
1, 102959, Note_on_c, 9, 62, 0
1, 102960, Note_on_c, 9, 64, 48
1, 102960, Note_on_c, 9, 63, 49
1, 102960, Note_on_c, 9, 42, 62
1, 103079, Note_on_c, 9, 64, 0
1, 103079, Note_on_c, 9, 63, 0
1, 103079, Note_on_c, 9, 42, 0
1, 103080, Note_on_c, 9, 63, 30
1, 103080, Note_on_c, 9, 42, 48
1, 103199, Note_on_c, 9, 44, 0
1, 103199, Note_on_c, 9, 63, 0
1, 103199, Note_on_c, 9, 42, 0
1, 103200, Note_on_c, 9, 63, 73
1, 103200, Note_on_c, 9, 42, 80
1, 103200, Note_on_c, 9, 35, 84
1, 103439, Note_on_c, 9, 63, 0
1, 103439, Note_on_c, 9, 42, 0
1, 103439, Note_on_c, 9, 35, 0
1, 103455, Note_on_c, 9, 64, 48
1, 103455, Note_on_c, 9, 62, 57
1, 103455, Note_on_c, 9, 42, 61
1, 103455, Note_on_c, 9, 35, 53
1, 103499, Note_on_c, 9, 64, 0
1, 103499, Note_on_c, 9, 62, 0
1, 103499, Note_on_c, 9, 42, 0
1, 103575, Note_on_c, 9, 62, 50
1, 103575, Note_on_c, 9, 42, 57
1, 103619, Note_on_c, 9, 62, 0
1, 103619, Note_on_c, 9, 42, 0
1, 103679, Note_on_c, 9, 35, 0
1, 103695, Note_on_c, 9, 62, 96
1, 103709, Note_on_c, 9, 62, 0
1, 103710, Note_on_c, 9, 38, 88
1, 103710, Note_on_c, 9, 42, 85
1, 103799, Note_on_c, 9, 38, 0
1, 103799, Note_on_c, 9, 42, 0
1, 103935, Note_on_c, 9, 64, 46
1, 103935, Note_on_c, 9, 63, 57
1, 103935, Note_on_c, 9, 42, 68
1, 103979, Note_on_c, 9, 64, 0
1, 103979, Note_on_c, 9, 63, 0
1, 103979, Note_on_c, 9, 42, 0
1, 104040, Note_on_c, 9, 63, 52
1, 104040, Note_on_c, 9, 42, 64
1, 104159, Note_on_c, 9, 63, 0
1, 104159, Note_on_c, 9, 42, 0
1, 104160, Note_on_c, 9, 63, 77
1, 104160, Note_on_c, 9, 42, 83
1, 104160, Note_on_c, 9, 35, 78
1, 104399, Note_on_c, 9, 63, 0
1, 104399, Note_on_c, 9, 42, 0
1, 104400, Note_on_c, 9, 64, 46
1, 104400, Note_on_c, 9, 62, 55
1, 104400, Note_on_c, 9, 42, 60
1, 104519, Note_on_c, 9, 64, 0
1, 104519, Note_on_c, 9, 62, 0
1, 104519, Note_on_c, 9, 42, 0
1, 104520, Note_on_c, 9, 62, 34
1, 104534, Note_on_c, 9, 62, 0
1, 104535, Note_on_c, 9, 42, 47
1, 104579, Note_on_c, 9, 42, 0
1, 104639, Note_on_c, 9, 35, 0
1, 104640, Note_on_c, 9, 62, 86
1, 104654, Note_on_c, 9, 62, 0
1, 104655, Note_on_c, 9, 38, 93
1, 104655, Note_on_c, 9, 42, 79
1, 104879, Note_on_c, 9, 38, 0
1, 104879, Note_on_c, 9, 42, 0
1, 104880, Note_on_c, 9, 64, 53
1, 104880, Note_on_c, 9, 63, 52
1, 104880, Note_on_c, 9, 42, 64
1, 104999, Note_on_c, 9, 64, 0
1, 104999, Note_on_c, 9, 63, 0
1, 104999, Note_on_c, 9, 42, 0
1, 105015, Note_on_c, 9, 63, 31
1, 105015, Note_on_c, 9, 42, 49
1, 105059, Note_on_c, 9, 63, 0
1, 105059, Note_on_c, 9, 42, 0
1, 105135, Note_on_c, 9, 63, 81
1, 105135, Note_on_c, 9, 42, 86
1, 105135, Note_on_c, 9, 35, 78
1, 105359, Note_on_c, 9, 63, 0
1, 105359, Note_on_c, 9, 42, 0
1, 105359, Note_on_c, 9, 35, 0
1, 105375, Note_on_c, 9, 64, 53
1, 105375, Note_on_c, 9, 62, 63
1, 105375, Note_on_c, 9, 42, 66
1, 105375, Note_on_c, 9, 35, 62
1, 105419, Note_on_c, 9, 64, 0
1, 105419, Note_on_c, 9, 62, 0
1, 105419, Note_on_c, 9, 42, 0
1, 105480, Note_on_c, 9, 62, 46
1, 105480, Note_on_c, 9, 42, 55
1, 105599, Note_on_c, 9, 35, 0
1, 105599, Note_on_c, 9, 62, 0
1, 105599, Note_on_c, 9, 42, 0
1, 105600, Note_on_c, 9, 38, 85
1, 105600, Note_on_c, 9, 62, 90
1, 105600, Note_on_c, 9, 42, 82
1, 105839, Note_on_c, 9, 38, 0
1, 105839, Note_on_c, 9, 62, 0
1, 105839, Note_on_c, 9, 42, 0
1, 105855, Note_on_c, 9, 64, 53
1, 105855, Note_on_c, 9, 63, 50
1, 105855, Note_on_c, 9, 42, 63
1, 105899, Note_on_c, 9, 64, 0
1, 105899, Note_on_c, 9, 63, 0
1, 105899, Note_on_c, 9, 42, 0
1, 105990, Note_on_c, 9, 63, 19
1, 105990, Note_on_c, 9, 44, 40
1, 106079, Note_on_c, 9, 63, 0
1, 106079, Note_on_c, 9, 44, 0
1, 106080, Note_on_c, 9, 63, 67
1, 106080, Note_on_c, 9, 42, 75
1, 106080, Note_on_c, 9, 35, 88
1, 106319, Note_on_c, 9, 63, 0
1, 106319, Note_on_c, 9, 42, 0
1, 106335, Note_on_c, 9, 64, 53
1, 106335, Note_on_c, 9, 62, 63
1, 106335, Note_on_c, 9, 42, 66
1, 106379, Note_on_c, 9, 64, 0
1, 106379, Note_on_c, 9, 62, 0
1, 106379, Note_on_c, 9, 42, 0
1, 106455, Note_on_c, 9, 62, 58
1, 106455, Note_on_c, 9, 42, 62
1, 106499, Note_on_c, 9, 62, 0
1, 106499, Note_on_c, 9, 42, 0
1, 106559, Note_on_c, 9, 35, 0
1, 106560, Note_on_c, 9, 38, 89
1, 106560, Note_on_c, 9, 62, 96
1, 106560, Note_on_c, 9, 42, 85
1, 106799, Note_on_c, 9, 38, 0
1, 106799, Note_on_c, 9, 62, 0
1, 106799, Note_on_c, 9, 42, 0
1, 106800, Note_on_c, 9, 64, 55
1, 106800, Note_on_c, 9, 63, 33
1, 106800, Note_on_c, 9, 42, 50
1, 106919, Note_on_c, 9, 64, 0
1, 106919, Note_on_c, 9, 63, 0
1, 106919, Note_on_c, 9, 42, 0
1, 106920, Note_on_c, 9, 63, 17
1, 106920, Note_on_c, 9, 42, 30
1, 107039, Note_on_c, 9, 63, 0
1, 107039, Note_on_c, 9, 42, 0
1, 107040, Note_on_c, 9, 63, 53
1, 107040, Note_on_c, 9, 42, 89
1, 107040, Note_on_c, 9, 35, 67
1, 107279, Note_on_c, 9, 63, 0
1, 107279, Note_on_c, 9, 42, 0
1, 107279, Note_on_c, 9, 35, 0
1, 107280, Note_on_c, 9, 64, 55
1, 107280, Note_on_c, 9, 62, 66
1, 107280, Note_on_c, 9, 35, 68
1, 107295, Note_on_c, 9, 42, 67
1, 107339, Note_on_c, 9, 42, 0
1, 107399, Note_on_c, 9, 64, 0
1, 107399, Note_on_c, 9, 62, 0
1, 107400, Note_on_c, 9, 62, 48
1, 107400, Note_on_c, 9, 42, 56
1, 107519, Note_on_c, 9, 35, 0
1, 107519, Note_on_c, 9, 62, 0
1, 107519, Note_on_c, 9, 42, 0
1, 107520, Note_on_c, 9, 38, 89
1, 107520, Note_on_c, 9, 62, 92
1, 107520, Note_on_c, 9, 42, 83
1, 107759, Note_on_c, 9, 38, 0
1, 107759, Note_on_c, 9, 62, 0
1, 107759, Note_on_c, 9, 42, 0
1, 107760, Note_on_c, 9, 64, 57
1, 107760, Note_on_c, 9, 63, 60
1, 107760, Note_on_c, 9, 42, 70
1, 107879, Note_on_c, 9, 64, 0
1, 107879, Note_on_c, 9, 63, 0
1, 107879, Note_on_c, 9, 42, 0
1, 107895, Note_on_c, 9, 63, 36
1, 107895, Note_on_c, 9, 42, 52
1, 107939, Note_on_c, 9, 63, 0
1, 107939, Note_on_c, 9, 42, 0
1, 108000, Note_on_c, 9, 63, 88
1, 108000, Note_on_c, 9, 42, 91
1, 108000, Note_on_c, 9, 35, 88
1, 108239, Note_on_c, 9, 63, 0
1, 108239, Note_on_c, 9, 42, 0
1, 108240, Note_on_c, 9, 64, 57
1, 108240, Note_on_c, 9, 62, 68
1, 108240, Note_on_c, 9, 42, 68
1, 108359, Note_on_c, 9, 64, 0
1, 108359, Note_on_c, 9, 62, 0
1, 108359, Note_on_c, 9, 42, 0
1, 108360, Note_on_c, 9, 62, 66
1, 108360, Note_on_c, 9, 42, 67
1, 108479, Note_on_c, 9, 35, 0
1, 108479, Note_on_c, 9, 62, 0
1, 108479, Note_on_c, 9, 42, 0
1, 108480, Note_on_c, 9, 38, 77
1, 108480, Note_on_c, 9, 62, 90
1, 108480, Note_on_c, 9, 42, 82
1, 108719, Note_on_c, 9, 38, 0
1, 108719, Note_on_c, 9, 62, 0
1, 108719, Note_on_c, 9, 42, 0
1, 108735, Note_on_c, 9, 64, 63
1, 108735, Note_on_c, 9, 63, 58
1, 108735, Note_on_c, 9, 42, 69
1, 108779, Note_on_c, 9, 64, 0
1, 108779, Note_on_c, 9, 63, 0
1, 108779, Note_on_c, 9, 42, 0
1, 108855, Note_on_c, 9, 63, 50
1, 108855, Note_on_c, 9, 42, 63
1, 108899, Note_on_c, 9, 63, 0
1, 108899, Note_on_c, 9, 42, 0
1, 108975, Note_on_c, 9, 63, 66
1, 108975, Note_on_c, 9, 42, 74
1, 108975, Note_on_c, 9, 35, 70
1, 109199, Note_on_c, 9, 63, 0
1, 109199, Note_on_c, 9, 42, 0
1, 109199, Note_on_c, 9, 35, 0
1, 109215, Note_on_c, 9, 64, 63
1, 109215, Note_on_c, 9, 62, 75
1, 109215, Note_on_c, 9, 35, 53
1, 109229, Note_on_c, 9, 64, 0
1, 109229, Note_on_c, 9, 62, 0
1, 109230, Note_on_c, 9, 42, 73
1, 109319, Note_on_c, 9, 42, 0
1, 109335, Note_on_c, 9, 62, 52
1, 109349, Note_on_c, 9, 62, 0
1, 109350, Note_on_c, 9, 42, 58
1, 109439, Note_on_c, 9, 35, 0
1, 109439, Note_on_c, 9, 42, 0
1, 109455, Note_on_c, 9, 62, 66
1, 109469, Note_on_c, 9, 62, 0
1, 109470, Note_on_c, 9, 38, 77
1, 109470, Note_on_c, 9, 42, 67
1, 109559, Note_on_c, 9, 38, 0
1, 109559, Note_on_c, 9, 42, 0
1, 109695, Note_on_c, 9, 64, 55
1, 109695, Note_on_c, 9, 63, 53
1, 109695, Note_on_c, 9, 42, 66
1, 109739, Note_on_c, 9, 64, 0
1, 109739, Note_on_c, 9, 63, 0
1, 109739, Note_on_c, 9, 42, 0
1, 109800, Note_on_c, 9, 63, 66
1, 109800, Note_on_c, 9, 42, 74
1, 109919, Note_on_c, 9, 63, 0
1, 109919, Note_on_c, 9, 42, 0
1, 109920, Note_on_c, 9, 63, 66
1, 109920, Note_on_c, 9, 42, 74
1, 109920, Note_on_c, 9, 35, 78
1, 110159, Note_on_c, 9, 63, 0
1, 110159, Note_on_c, 9, 42, 0
1, 110175, Note_on_c, 9, 64, 55
1, 110175, Note_on_c, 9, 62, 66
1, 110175, Note_on_c, 9, 42, 67
1, 110219, Note_on_c, 9, 64, 0
1, 110219, Note_on_c, 9, 62, 0
1, 110219, Note_on_c, 9, 42, 0
1, 110295, Note_on_c, 9, 62, 66
1, 110309, Note_on_c, 9, 62, 0
1, 110310, Note_on_c, 9, 42, 67
1, 110399, Note_on_c, 9, 35, 0
1, 110399, Note_on_c, 9, 42, 0
1, 110400, Note_on_c, 9, 38, 90
1, 110400, Note_on_c, 9, 62, 101
1, 110400, Note_on_c, 9, 42, 89
1, 110639, Note_on_c, 9, 38, 0
1, 110639, Note_on_c, 9, 62, 0
1, 110639, Note_on_c, 9, 42, 0
1, 110670, Note_on_c, 9, 64, 29
1, 110670, Note_on_c, 9, 63, 49
1, 110670, Note_on_c, 9, 42, 62
1, 110759, Note_on_c, 9, 64, 0
1, 110759, Note_on_c, 9, 63, 0
1, 110759, Note_on_c, 9, 42, 0
1, 110790, Note_on_c, 9, 63, 52
1, 110790, Note_on_c, 9, 42, 64
1, 110879, Note_on_c, 9, 63, 0
1, 110879, Note_on_c, 9, 42, 0
1, 110910, Note_on_c, 9, 63, 77
1, 110910, Note_on_c, 9, 42, 83
1, 110910, Note_on_c, 9, 35, 77
1, 110999, Note_on_c, 9, 63, 0
1, 110999, Note_on_c, 9, 42, 0
1, 110999, Note_on_c, 9, 35, 0
1, 111135, Note_on_c, 9, 64, 29
1, 111135, Note_on_c, 9, 62, 34
1, 111135, Note_on_c, 9, 42, 47
1, 111135, Note_on_c, 9, 35, 60
1, 111179, Note_on_c, 9, 64, 0
1, 111179, Note_on_c, 9, 62, 0
1, 111179, Note_on_c, 9, 42, 0
1, 111240, Note_on_c, 9, 62, 69
1, 111254, Note_on_c, 9, 62, 0
1, 111255, Note_on_c, 9, 42, 69
1, 111299, Note_on_c, 9, 42, 0
1, 111359, Note_on_c, 9, 35, 0
1, 111360, Note_on_c, 9, 38, 91
1, 111360, Note_on_c, 9, 62, 108
1, 111360, Note_on_c, 9, 42, 93
1, 111599, Note_on_c, 9, 38, 0
1, 111599, Note_on_c, 9, 62, 0
1, 111599, Note_on_c, 9, 42, 0
1, 111600, Note_on_c, 9, 64, 48
1, 111600, Note_on_c, 9, 63, 30
1, 111600, Note_on_c, 9, 42, 48
1, 111719, Note_on_c, 9, 64, 0
1, 111719, Note_on_c, 9, 63, 0
1, 111719, Note_on_c, 9, 42, 0
1, 111735, Note_on_c, 9, 63, 49
1, 111735, Note_on_c, 9, 42, 62
1, 111779, Note_on_c, 9, 63, 0
1, 111779, Note_on_c, 9, 42, 0
1, 111840, Note_on_c, 9, 63, 73
1, 111840, Note_on_c, 9, 42, 80
1, 111840, Note_on_c, 9, 35, 81
1, 112079, Note_on_c, 9, 63, 0
1, 112079, Note_on_c, 9, 42, 0
1, 112080, Note_on_c, 9, 64, 48
1, 112080, Note_on_c, 9, 62, 57
1, 112094, Note_on_c, 9, 64, 0
1, 112094, Note_on_c, 9, 62, 0
1, 112095, Note_on_c, 9, 42, 61
1, 112139, Note_on_c, 9, 42, 0
1, 112200, Note_on_c, 9, 62, 62
1, 112214, Note_on_c, 9, 62, 0
1, 112215, Note_on_c, 9, 42, 64
1, 112259, Note_on_c, 9, 42, 0
1, 112319, Note_on_c, 9, 35, 0
1, 112320, Note_on_c, 9, 62, 105
1, 112334, Note_on_c, 9, 62, 0
1, 112335, Note_on_c, 9, 38, 89
1, 112335, Note_on_c, 9, 42, 91
1, 112559, Note_on_c, 9, 38, 0
1, 112559, Note_on_c, 9, 42, 0
1, 112575, Note_on_c, 9, 64, 62
1, 112575, Note_on_c, 9, 63, 46
1, 112575, Note_on_c, 9, 42, 60
1, 112619, Note_on_c, 9, 64, 0
1, 112619, Note_on_c, 9, 63, 0
1, 112619, Note_on_c, 9, 42, 0
1, 112695, Note_on_c, 9, 63, 50
1, 112695, Note_on_c, 9, 42, 63
1, 112739, Note_on_c, 9, 63, 0
1, 112739, Note_on_c, 9, 42, 0
1, 112800, Note_on_c, 9, 63, 77
1, 112800, Note_on_c, 9, 42, 83
1, 112800, Note_on_c, 9, 35, 67
1, 113039, Note_on_c, 9, 63, 0
1, 113039, Note_on_c, 9, 42, 0
1, 113039, Note_on_c, 9, 35, 0
1, 113055, Note_on_c, 9, 64, 62
1, 113055, Note_on_c, 9, 62, 74
1, 113055, Note_on_c, 9, 42, 72
1, 113055, Note_on_c, 9, 35, 64
1, 113099, Note_on_c, 9, 64, 0
1, 113099, Note_on_c, 9, 62, 0
1, 113099, Note_on_c, 9, 42, 0
1, 113160, Note_on_c, 9, 62, 58
1, 113160, Note_on_c, 9, 42, 62
1, 113279, Note_on_c, 9, 35, 0
1, 113279, Note_on_c, 9, 62, 0
1, 113279, Note_on_c, 9, 42, 0
1, 113280, Note_on_c, 9, 62, 72
1, 113294, Note_on_c, 9, 62, 0
1, 113295, Note_on_c, 9, 38, 94
1, 113295, Note_on_c, 9, 42, 70
1, 113519, Note_on_c, 9, 38, 0
1, 113519, Note_on_c, 9, 42, 0
1, 113520, Note_on_c, 9, 64, 49
1, 113520, Note_on_c, 9, 63, 55
1, 113520, Note_on_c, 9, 42, 67
1, 113639, Note_on_c, 9, 64, 0
1, 113639, Note_on_c, 9, 63, 0
1, 113639, Note_on_c, 9, 42, 0
1, 113655, Note_on_c, 9, 63, 33
1, 113655, Note_on_c, 9, 44, 50
1, 113699, Note_on_c, 9, 63, 0
1, 113699, Note_on_c, 9, 44, 0
1, 113760, Note_on_c, 9, 63, 58
1, 113760, Note_on_c, 9, 42, 69
1, 113760, Note_on_c, 9, 35, 82
1, 113999, Note_on_c, 9, 63, 0
1, 113999, Note_on_c, 9, 42, 0
1, 114000, Note_on_c, 9, 64, 49
1, 114000, Note_on_c, 9, 62, 58
1, 114014, Note_on_c, 9, 64, 0
1, 114014, Note_on_c, 9, 62, 0
1, 114015, Note_on_c, 9, 42, 62
1, 114059, Note_on_c, 9, 42, 0
1, 114120, Note_on_c, 9, 62, 42
1, 114134, Note_on_c, 9, 62, 0
1, 114135, Note_on_c, 9, 42, 52
1, 114179, Note_on_c, 9, 42, 0
1, 114239, Note_on_c, 9, 35, 0
1, 114240, Note_on_c, 9, 62, 74
1, 114254, Note_on_c, 9, 62, 0
1, 114255, Note_on_c, 9, 38, 89
1, 114255, Note_on_c, 9, 42, 72
1, 114479, Note_on_c, 9, 38, 0
1, 114479, Note_on_c, 9, 42, 0
1, 114480, Note_on_c, 9, 64, 57
1, 114480, Note_on_c, 9, 63, 49
1, 114480, Note_on_c, 9, 42, 62
1, 114599, Note_on_c, 9, 64, 0
1, 114599, Note_on_c, 9, 63, 0
1, 114599, Note_on_c, 9, 42, 0
1, 114600, Note_on_c, 9, 63, 29
1, 114600, Note_on_c, 9, 42, 47
1, 114719, Note_on_c, 9, 63, 0
1, 114719, Note_on_c, 9, 42, 0
1, 114720, Note_on_c, 9, 63, 80
1, 114720, Note_on_c, 9, 42, 85
1, 114720, Note_on_c, 9, 35, 70
1, 114959, Note_on_c, 9, 63, 0
1, 114959, Note_on_c, 9, 42, 0
1, 114959, Note_on_c, 9, 35, 0
1, 114960, Note_on_c, 9, 64, 57
1, 114960, Note_on_c, 9, 62, 68
1, 114960, Note_on_c, 9, 35, 62
1, 114975, Note_on_c, 9, 42, 68
1, 115019, Note_on_c, 9, 42, 0
1, 115079, Note_on_c, 9, 64, 0
1, 115079, Note_on_c, 9, 62, 0
1, 115080, Note_on_c, 9, 62, 18
1, 115080, Note_on_c, 9, 42, 37
1, 115199, Note_on_c, 9, 35, 0
1, 115199, Note_on_c, 9, 62, 0
1, 115199, Note_on_c, 9, 42, 0
1, 115200, Note_on_c, 9, 38, 106
1, 115200, Note_on_c, 9, 62, 92
1, 115200, Note_on_c, 9, 42, 83
1, 115439, Note_on_c, 9, 38, 0
1, 115439, Note_on_c, 9, 62, 0
1, 115439, Note_on_c, 9, 42, 0
1, 115440, Note_on_c, 9, 64, 48
1, 115440, Note_on_c, 9, 63, 60
1, 115440, Note_on_c, 9, 42, 70
1, 115559, Note_on_c, 9, 64, 0
1, 115559, Note_on_c, 9, 63, 0
1, 115559, Note_on_c, 9, 42, 0
1, 115575, Note_on_c, 9, 63, 46
1, 115575, Note_on_c, 9, 42, 60
1, 115619, Note_on_c, 9, 63, 0
1, 115619, Note_on_c, 9, 42, 0
1, 115680, Note_on_c, 9, 63, 80
1, 115680, Note_on_c, 9, 42, 85
1, 115680, Note_on_c, 9, 35, 81
1, 115919, Note_on_c, 9, 63, 0
1, 115919, Note_on_c, 9, 42, 0
1, 115920, Note_on_c, 9, 64, 48
1, 115920, Note_on_c, 9, 62, 57
1, 115934, Note_on_c, 9, 64, 0
1, 115934, Note_on_c, 9, 62, 0
1, 115935, Note_on_c, 9, 42, 61
1, 115979, Note_on_c, 9, 42, 0
1, 116040, Note_on_c, 9, 62, 22
1, 116054, Note_on_c, 9, 62, 0
1, 116055, Note_on_c, 9, 42, 40
1, 116099, Note_on_c, 9, 42, 0
1, 116159, Note_on_c, 9, 35, 0
1, 116160, Note_on_c, 9, 62, 88
1, 116174, Note_on_c, 9, 62, 0
1, 116175, Note_on_c, 9, 38, 93
1, 116175, Note_on_c, 9, 42, 80
1, 116399, Note_on_c, 9, 38, 0
1, 116399, Note_on_c, 9, 42, 0
1, 116400, Note_on_c, 9, 64, 58
1, 116400, Note_on_c, 9, 63, 62
1, 116400, Note_on_c, 9, 42, 72
1, 116519, Note_on_c, 9, 64, 0
1, 116519, Note_on_c, 9, 63, 0
1, 116519, Note_on_c, 9, 42, 0
1, 116520, Note_on_c, 9, 63, 39
1, 116520, Note_on_c, 9, 42, 55
1, 116639, Note_on_c, 9, 63, 0
1, 116639, Note_on_c, 9, 42, 0
1, 116640, Note_on_c, 9, 63, 63
1, 116640, Note_on_c, 9, 42, 73
1, 116640, Note_on_c, 9, 35, 72
1, 116879, Note_on_c, 9, 63, 0
1, 116879, Note_on_c, 9, 42, 0
1, 116879, Note_on_c, 9, 35, 0
1, 116895, Note_on_c, 9, 64, 58
1, 116895, Note_on_c, 9, 62, 69
1, 116895, Note_on_c, 9, 42, 69
1, 116895, Note_on_c, 9, 35, 67
1, 116939, Note_on_c, 9, 64, 0
1, 116939, Note_on_c, 9, 62, 0
1, 116939, Note_on_c, 9, 42, 0
1, 117015, Note_on_c, 9, 62, 46
1, 117029, Note_on_c, 9, 62, 0
1, 117030, Note_on_c, 9, 42, 55
1, 117119, Note_on_c, 9, 35, 0
1, 117119, Note_on_c, 9, 42, 0
1, 117135, Note_on_c, 9, 62, 80
1, 117149, Note_on_c, 9, 62, 0
1, 117150, Note_on_c, 9, 38, 95
1, 117150, Note_on_c, 9, 42, 75
1, 117239, Note_on_c, 9, 38, 0
1, 117239, Note_on_c, 9, 42, 0
1, 117420, Note_on_c, 9, 46, 75
1, 117539, Note_on_c, 9, 46, 0
1, 117540, Note_on_c, 9, 46, 47
1, 117599, Note_on_c, 9, 46, 0
1, 117645, Note_on_c, 9, 63, 73
1, 117645, Note_on_c, 9, 38, 67
1, 117645, Note_on_c, 9, 44, 38
1, 117645, Note_on_c, 9, 35, 78
1, 117839, Note_on_c, 9, 63, 0
1, 117839, Note_on_c, 9, 38, 0
1, 117839, Note_on_c, 9, 44, 0
1, 117839, Note_on_c, 9, 35, 0
1, 117855, Note_on_c, 9, 42, 62
1, 117855, Note_on_c, 9, 35, 78
1, 117869, Note_on_c, 9, 42, 0
1, 117870, Note_on_c, 9, 63, 48
1, 117899, Note_on_c, 9, 35, 0
1, 117959, Note_on_c, 9, 63, 0
1, 117960, Note_on_c, 9, 42, 48
1, 117960, Note_on_c, 9, 35, 52
1, 117974, Note_on_c, 9, 42, 0
1, 117975, Note_on_c, 9, 63, 42
1, 118064, Note_on_c, 9, 63, 0
1, 118065, Note_on_c, 9, 38, 59
1, 118079, Note_on_c, 9, 35, 0
1, 118079, Note_on_c, 9, 38, 0
1, 118080, Note_on_c, 9, 63, 80
1, 118080, Note_on_c, 9, 44, 83
1, 118319, Note_on_c, 9, 63, 0
1, 118320, Note_on_c, 9, 63, 49
1, 118320, Note_on_c, 9, 42, 62
1, 118439, Note_on_c, 9, 63, 0
1, 118439, Note_on_c, 9, 42, 0
1, 118455, Note_on_c, 9, 63, 30
1, 118455, Note_on_c, 9, 42, 48
1, 118499, Note_on_c, 9, 63, 0
1, 118499, Note_on_c, 9, 42, 0
1, 118559, Note_on_c, 9, 44, 0
1, 118560, Note_on_c, 9, 38, 68
1, 118574, Note_on_c, 9, 38, 0
1, 118575, Note_on_c, 9, 63, 73
1, 118575, Note_on_c, 9, 42, 80
1, 118799, Note_on_c, 9, 63, 0
1, 118799, Note_on_c, 9, 42, 0
1, 118815, Note_on_c, 9, 63, 48
1, 118815, Note_on_c, 9, 42, 61
1, 118815, Note_on_c, 9, 35, 67
1, 118859, Note_on_c, 9, 63, 0
1, 118859, Note_on_c, 9, 42, 0
1, 118859, Note_on_c, 9, 35, 0
1, 118920, Note_on_c, 9, 35, 48
1, 118935, Note_on_c, 9, 63, 42
1, 118935, Note_on_c, 9, 42, 57
1, 118979, Note_on_c, 9, 63, 0
1, 118979, Note_on_c, 9, 42, 0
1, 119039, Note_on_c, 9, 35, 0
1, 119040, Note_on_c, 9, 63, 80
1, 119040, Note_on_c, 9, 38, 60
1, 119040, Note_on_c, 9, 42, 85
1, 119279, Note_on_c, 9, 63, 0
1, 119279, Note_on_c, 9, 38, 0
1, 119279, Note_on_c, 9, 42, 0
1, 119295, Note_on_c, 9, 63, 57
1, 119295, Note_on_c, 9, 42, 68
1, 119339, Note_on_c, 9, 63, 0
1, 119339, Note_on_c, 9, 42, 0
1, 119400, Note_on_c, 9, 63, 52
1, 119400, Note_on_c, 9, 42, 64
1, 119519, Note_on_c, 9, 63, 0
1, 119519, Note_on_c, 9, 42, 0
1, 119535, Note_on_c, 9, 63, 77
1, 119535, Note_on_c, 9, 38, 73
1, 119535, Note_on_c, 9, 42, 83
1, 119759, Note_on_c, 9, 63, 0
1, 119759, Note_on_c, 9, 38, 0
1, 119759, Note_on_c, 9, 42, 0
1, 119760, Note_on_c, 9, 35, 70
1, 119775, Note_on_c, 9, 63, 46
1, 119775, Note_on_c, 9, 42, 60
1, 119819, Note_on_c, 9, 63, 0
1, 119819, Note_on_c, 9, 42, 0
1, 119879, Note_on_c, 9, 35, 0
1, 119880, Note_on_c, 9, 35, 50
1, 119895, Note_on_c, 9, 63, 29
1, 119895, Note_on_c, 9, 42, 47
1, 119939, Note_on_c, 9, 63, 0
1, 119939, Note_on_c, 9, 42, 0
1, 119999, Note_on_c, 9, 35, 0
1, 120000, Note_on_c, 9, 38, 62
1, 120014, Note_on_c, 9, 38, 0
1, 120015, Note_on_c, 9, 63, 72
1, 120015, Note_on_c, 9, 42, 79
1, 120239, Note_on_c, 9, 63, 0
1, 120239, Note_on_c, 9, 42, 0
1, 120240, Note_on_c, 9, 63, 52
1, 120240, Note_on_c, 9, 42, 64
1, 120359, Note_on_c, 9, 63, 0
1, 120359, Note_on_c, 9, 42, 0
1, 120390, Note_on_c, 9, 63, 31
1, 120390, Note_on_c, 9, 42, 49
1, 120479, Note_on_c, 9, 63, 0
1, 120479, Note_on_c, 9, 42, 0
1, 120510, Note_on_c, 9, 63, 81
1, 120510, Note_on_c, 9, 38, 73
1, 120510, Note_on_c, 9, 42, 86
1, 120599, Note_on_c, 9, 63, 0
1, 120599, Note_on_c, 9, 38, 0
1, 120599, Note_on_c, 9, 42, 0
1, 120735, Note_on_c, 9, 35, 72
1, 120750, Note_on_c, 9, 63, 53
1, 120750, Note_on_c, 9, 42, 66
1, 120779, Note_on_c, 9, 35, 0
1, 120839, Note_on_c, 9, 63, 0
1, 120839, Note_on_c, 9, 42, 0
1, 120840, Note_on_c, 9, 35, 48
1, 120855, Note_on_c, 9, 63, 39
1, 120855, Note_on_c, 9, 42, 55
1, 120899, Note_on_c, 9, 63, 0
1, 120899, Note_on_c, 9, 42, 0
1, 120959, Note_on_c, 9, 35, 0
1, 120960, Note_on_c, 9, 63, 75
1, 120960, Note_on_c, 9, 38, 63
1, 120960, Note_on_c, 9, 42, 82
1, 121199, Note_on_c, 9, 63, 0
1, 121199, Note_on_c, 9, 38, 0
1, 121199, Note_on_c, 9, 42, 0
1, 121200, Note_on_c, 9, 63, 50
1, 121200, Note_on_c, 9, 42, 63
1, 121319, Note_on_c, 9, 63, 0
1, 121319, Note_on_c, 9, 42, 0
1, 121335, Note_on_c, 9, 63, 19
1, 121335, Note_on_c, 9, 44, 40
1, 121379, Note_on_c, 9, 63, 0
1, 121379, Note_on_c, 9, 44, 0
1, 121440, Note_on_c, 9, 63, 67
1, 121440, Note_on_c, 9, 42, 75
1, 121440, Note_on_c, 9, 35, 75
1, 121454, Note_on_c, 9, 63, 0
1, 121454, Note_on_c, 9, 42, 0
1, 121455, Note_on_c, 9, 38, 72
1, 121679, Note_on_c, 9, 35, 0
1, 121679, Note_on_c, 9, 38, 0
1, 121680, Note_on_c, 9, 35, 74
1, 121695, Note_on_c, 9, 63, 53
1, 121695, Note_on_c, 9, 42, 66
1, 121739, Note_on_c, 9, 63, 0
1, 121739, Note_on_c, 9, 42, 0
1, 121815, Note_on_c, 9, 63, 49
1, 121815, Note_on_c, 9, 42, 62
1, 121859, Note_on_c, 9, 63, 0
1, 121859, Note_on_c, 9, 42, 0
1, 121919, Note_on_c, 9, 35, 0
1, 121920, Note_on_c, 9, 38, 63
1, 121934, Note_on_c, 9, 38, 0
1, 121935, Note_on_c, 9, 63, 80
1, 121935, Note_on_c, 9, 42, 85
1, 122159, Note_on_c, 9, 63, 0
1, 122159, Note_on_c, 9, 42, 0
1, 122175, Note_on_c, 9, 63, 33
1, 122175, Note_on_c, 9, 42, 50
1, 122219, Note_on_c, 9, 63, 0
1, 122219, Note_on_c, 9, 42, 0
1, 122295, Note_on_c, 9, 63, 17
1, 122295, Note_on_c, 9, 42, 30
1, 122339, Note_on_c, 9, 63, 0
1, 122339, Note_on_c, 9, 42, 0
1, 122400, Note_on_c, 9, 63, 53
1, 122400, Note_on_c, 9, 38, 80
1, 122400, Note_on_c, 9, 42, 89
1, 122400, Note_on_c, 9, 35, 72
1, 122639, Note_on_c, 9, 63, 0
1, 122639, Note_on_c, 9, 38, 0
1, 122639, Note_on_c, 9, 42, 0
1, 122639, Note_on_c, 9, 35, 0
1, 122655, Note_on_c, 9, 35, 74
1, 122670, Note_on_c, 9, 63, 55
1, 122670, Note_on_c, 9, 42, 67
1, 122759, Note_on_c, 9, 63, 0
1, 122759, Note_on_c, 9, 42, 0
1, 122760, Note_on_c, 9, 63, 40
1, 122760, Note_on_c, 9, 42, 56
1, 122879, Note_on_c, 9, 35, 0
1, 122879, Note_on_c, 9, 63, 0
1, 122879, Note_on_c, 9, 42, 0
1, 122880, Note_on_c, 9, 38, 58
1, 122899, Note_on_c, 9, 38, 0
1, 122900, Note_on_c, 9, 63, 77
1, 122900, Note_on_c, 9, 42, 83
1, 122939, Note_on_c, 9, 63, 0
1, 122939, Note_on_c, 9, 42, 0
1, 123135, Note_on_c, 9, 63, 60
1, 123135, Note_on_c, 9, 42, 70
1, 123179, Note_on_c, 9, 63, 0
1, 123179, Note_on_c, 9, 42, 0
1, 123240, Note_on_c, 9, 63, 36
1, 123240, Note_on_c, 9, 42, 52
1, 123359, Note_on_c, 9, 63, 0
1, 123359, Note_on_c, 9, 42, 0
1, 123375, Note_on_c, 9, 63, 88
1, 123375, Note_on_c, 9, 38, 77
1, 123375, Note_on_c, 9, 42, 91
1, 123375, Note_on_c, 9, 35, 72
1, 123599, Note_on_c, 9, 63, 0
1, 123599, Note_on_c, 9, 38, 0
1, 123599, Note_on_c, 9, 42, 0
1, 123599, Note_on_c, 9, 35, 0
1, 123600, Note_on_c, 9, 63, 57
1, 123600, Note_on_c, 9, 42, 68
1, 123615, Note_on_c, 9, 35, 56
1, 123719, Note_on_c, 9, 63, 0
1, 123719, Note_on_c, 9, 42, 0
1, 123720, Note_on_c, 9, 63, 55
1, 123720, Note_on_c, 9, 42, 67
1, 123839, Note_on_c, 9, 35, 0
1, 123839, Note_on_c, 9, 63, 0
1, 123839, Note_on_c, 9, 42, 0
1, 123855, Note_on_c, 9, 63, 75
1, 123855, Note_on_c, 9, 38, 57
1, 123855, Note_on_c, 9, 42, 82
1, 124079, Note_on_c, 9, 63, 0
1, 124079, Note_on_c, 9, 38, 0
1, 124079, Note_on_c, 9, 42, 0
1, 124095, Note_on_c, 9, 63, 58
1, 124095, Note_on_c, 9, 42, 69
1, 124139, Note_on_c, 9, 63, 0
1, 124139, Note_on_c, 9, 42, 0
1, 124215, Note_on_c, 9, 63, 50
1, 124215, Note_on_c, 9, 42, 63
1, 124259, Note_on_c, 9, 63, 0
1, 124259, Note_on_c, 9, 42, 0
1, 124335, Note_on_c, 9, 63, 66
1, 124335, Note_on_c, 9, 38, 75
1, 124335, Note_on_c, 9, 42, 74
1, 124335, Note_on_c, 9, 35, 70
1, 124559, Note_on_c, 9, 63, 0
1, 124559, Note_on_c, 9, 38, 0
1, 124559, Note_on_c, 9, 42, 0
1, 124559, Note_on_c, 9, 35, 0
1, 124575, Note_on_c, 9, 35, 68
1, 124590, Note_on_c, 9, 63, 63
1, 124590, Note_on_c, 9, 42, 73
1, 124679, Note_on_c, 9, 63, 0
1, 124679, Note_on_c, 9, 42, 0
1, 124680, Note_on_c, 9, 63, 44
1, 124680, Note_on_c, 9, 42, 58
1, 124799, Note_on_c, 9, 35, 0
1, 124799, Note_on_c, 9, 63, 0
1, 124799, Note_on_c, 9, 42, 0
1, 124815, Note_on_c, 9, 63, 55
1, 124815, Note_on_c, 9, 38, 62
1, 124815, Note_on_c, 9, 42, 67
1, 125039, Note_on_c, 9, 63, 0
1, 125039, Note_on_c, 9, 38, 0
1, 125039, Note_on_c, 9, 42, 0
1, 125070, Note_on_c, 9, 63, 53
1, 125070, Note_on_c, 9, 46, 62
1, 125159, Note_on_c, 9, 63, 0
1, 125159, Note_on_c, 9, 46, 0
1, 125190, Note_on_c, 9, 63, 66
1, 125190, Note_on_c, 9, 46, 77
1, 125279, Note_on_c, 9, 63, 0
1, 125279, Note_on_c, 9, 46, 0
1, 125310, Note_on_c, 9, 38, 79
1, 125324, Note_on_c, 9, 38, 0
1, 125325, Note_on_c, 9, 63, 66
1, 125325, Note_on_c, 9, 44, 74
1, 125325, Note_on_c, 9, 35, 78
1, 125519, Note_on_c, 9, 63, 0
1, 125519, Note_on_c, 9, 44, 0
1, 125519, Note_on_c, 9, 35, 0
1, 125550, Note_on_c, 9, 63, 55
1, 125550, Note_on_c, 9, 42, 67
1, 125550, Note_on_c, 9, 35, 78
1, 125639, Note_on_c, 9, 63, 0
1, 125639, Note_on_c, 9, 42, 0
1, 125639, Note_on_c, 9, 35, 0
1, 125640, Note_on_c, 9, 35, 52
1, 125670, Note_on_c, 9, 63, 55
1, 125670, Note_on_c, 9, 42, 67
1, 125759, Note_on_c, 9, 35, 0
1, 125759, Note_on_c, 9, 63, 0
1, 125759, Note_on_c, 9, 42, 0
1, 125760, Note_on_c, 9, 38, 60
1, 125789, Note_on_c, 9, 38, 0
1, 125790, Note_on_c, 9, 63, 84
1, 125790, Note_on_c, 9, 42, 89
1, 125879, Note_on_c, 9, 63, 0
1, 125879, Note_on_c, 9, 42, 0
1, 126030, Note_on_c, 9, 63, 49
1, 126030, Note_on_c, 9, 42, 62
1, 126119, Note_on_c, 9, 63, 0
1, 126119, Note_on_c, 9, 42, 0
1, 126150, Note_on_c, 9, 63, 52
1, 126150, Note_on_c, 9, 42, 64
1, 126239, Note_on_c, 9, 63, 0
1, 126239, Note_on_c, 9, 42, 0
1, 126270, Note_on_c, 9, 63, 77
1, 126270, Note_on_c, 9, 38, 78
1, 126270, Note_on_c, 9, 42, 83
1, 126359, Note_on_c, 9, 63, 0
1, 126359, Note_on_c, 9, 38, 0
1, 126359, Note_on_c, 9, 42, 0
1, 126495, Note_on_c, 9, 35, 67
1, 126510, Note_on_c, 9, 63, 29
1, 126510, Note_on_c, 9, 42, 47
1, 126539, Note_on_c, 9, 35, 0
1, 126599, Note_on_c, 9, 63, 0
1, 126599, Note_on_c, 9, 42, 0
1, 126600, Note_on_c, 9, 35, 48
1, 126615, Note_on_c, 9, 63, 58
1, 126615, Note_on_c, 9, 42, 69
1, 126659, Note_on_c, 9, 63, 0
1, 126659, Note_on_c, 9, 42, 0
1, 126719, Note_on_c, 9, 35, 0
1, 126720, Note_on_c, 9, 63, 90
1, 126720, Note_on_c, 9, 38, 58
1, 126720, Note_on_c, 9, 42, 93
1, 126959, Note_on_c, 9, 63, 0
1, 126959, Note_on_c, 9, 38, 0
1, 126959, Note_on_c, 9, 42, 0
1, 126960, Note_on_c, 9, 63, 30
1, 126960, Note_on_c, 9, 42, 48
1, 127079, Note_on_c, 9, 63, 0
1, 127079, Note_on_c, 9, 42, 0
1, 127110, Note_on_c, 9, 63, 49
1, 127110, Note_on_c, 9, 42, 62
1, 127199, Note_on_c, 9, 63, 0
1, 127199, Note_on_c, 9, 42, 0
1, 127215, Note_on_c, 9, 63, 73
1, 127215, Note_on_c, 9, 38, 85
1, 127215, Note_on_c, 9, 42, 80
1, 127439, Note_on_c, 9, 63, 0
1, 127439, Note_on_c, 9, 38, 0
1, 127439, Note_on_c, 9, 42, 0
1, 127440, Note_on_c, 9, 63, 48
1, 127440, Note_on_c, 9, 42, 61
1, 127455, Note_on_c, 9, 35, 70
1, 127499, Note_on_c, 9, 35, 0
1, 127559, Note_on_c, 9, 63, 0
1, 127559, Note_on_c, 9, 42, 0
1, 127560, Note_on_c, 9, 63, 52
1, 127560, Note_on_c, 9, 42, 64
1, 127575, Note_on_c, 9, 35, 50
1, 127619, Note_on_c, 9, 35, 0
1, 127679, Note_on_c, 9, 63, 0
1, 127679, Note_on_c, 9, 42, 0
1, 127680, Note_on_c, 9, 63, 88
1, 127680, Note_on_c, 9, 38, 58
1, 127680, Note_on_c, 9, 42, 91
1, 127919, Note_on_c, 9, 63, 0
1, 127919, Note_on_c, 9, 38, 0
1, 127919, Note_on_c, 9, 42, 0
1, 127950, Note_on_c, 9, 63, 46
1, 127950, Note_on_c, 9, 42, 60
1, 128039, Note_on_c, 9, 63, 0
1, 128039, Note_on_c, 9, 42, 0
1, 128100, Note_on_c, 9, 63, 50
1, 128100, Note_on_c, 9, 42, 63
1, 128159, Note_on_c, 9, 63, 0
1, 128159, Note_on_c, 9, 42, 0
1, 128205, Note_on_c, 9, 63, 77
1, 128205, Note_on_c, 9, 38, 78
1, 128205, Note_on_c, 9, 42, 83
1, 128399, Note_on_c, 9, 63, 0
1, 128399, Note_on_c, 9, 38, 0
1, 128399, Note_on_c, 9, 42, 0
1, 128445, Note_on_c, 9, 35, 72
1, 128459, Note_on_c, 9, 35, 0
1, 128460, Note_on_c, 9, 63, 62
1, 128460, Note_on_c, 9, 42, 72
1, 128550, Note_on_c, 9, 35, 48
1, 128564, Note_on_c, 9, 63, 0
1, 128564, Note_on_c, 9, 42, 0
1, 128565, Note_on_c, 9, 63, 49
1, 128565, Note_on_c, 9, 42, 62
1, 128579, Note_on_c, 9, 63, 0
1, 128579, Note_on_c, 9, 42, 0
1, 128639, Note_on_c, 9, 35, 0
1, 128655, Note_on_c, 9, 38, 51
1, 128669, Note_on_c, 9, 38, 0
1, 128670, Note_on_c, 9, 63, 60
1, 128670, Note_on_c, 9, 42, 70
1, 128759, Note_on_c, 9, 63, 0
1, 128759, Note_on_c, 9, 42, 0
1, 128895, Note_on_c, 9, 63, 55
1, 128895, Note_on_c, 9, 42, 67
1, 128939, Note_on_c, 9, 63, 0
1, 128939, Note_on_c, 9, 42, 0
1, 129000, Note_on_c, 9, 63, 33
1, 129000, Note_on_c, 9, 44, 50
1, 129119, Note_on_c, 9, 63, 0
1, 129119, Note_on_c, 9, 44, 0
1, 129120, Note_on_c, 9, 63, 58
1, 129120, Note_on_c, 9, 38, 82
1, 129120, Note_on_c, 9, 42, 69
1, 129120, Note_on_c, 9, 35, 75
1, 129359, Note_on_c, 9, 63, 0
1, 129359, Note_on_c, 9, 38, 0
1, 129359, Note_on_c, 9, 42, 0
1, 129359, Note_on_c, 9, 35, 0
1, 129360, Note_on_c, 9, 35, 74
1, 129375, Note_on_c, 9, 63, 49
1, 129375, Note_on_c, 9, 42, 62
1, 129419, Note_on_c, 9, 63, 0
1, 129419, Note_on_c, 9, 42, 0
1, 129495, Note_on_c, 9, 63, 36
1, 129495, Note_on_c, 9, 42, 52
1, 129539, Note_on_c, 9, 63, 0
1, 129539, Note_on_c, 9, 42, 0
1, 129599, Note_on_c, 9, 35, 0
1, 129600, Note_on_c, 9, 38, 56
1, 129614, Note_on_c, 9, 38, 0
1, 129615, Note_on_c, 9, 63, 62
1, 129615, Note_on_c, 9, 42, 72
1, 129839, Note_on_c, 9, 63, 0
1, 129839, Note_on_c, 9, 42, 0
1, 129840, Note_on_c, 9, 63, 49
1, 129840, Note_on_c, 9, 42, 62
1, 129959, Note_on_c, 9, 63, 0
1, 129959, Note_on_c, 9, 42, 0
1, 129960, Note_on_c, 9, 63, 29
1, 129960, Note_on_c, 9, 42, 47
1, 130079, Note_on_c, 9, 63, 0
1, 130079, Note_on_c, 9, 42, 0
1, 130080, Note_on_c, 9, 63, 80
1, 130080, Note_on_c, 9, 38, 73
1, 130080, Note_on_c, 9, 42, 85
1, 130080, Note_on_c, 9, 35, 72
1, 130319, Note_on_c, 9, 63, 0
1, 130319, Note_on_c, 9, 38, 0
1, 130319, Note_on_c, 9, 42, 0
1, 130319, Note_on_c, 9, 35, 0
1, 130320, Note_on_c, 9, 35, 74
1, 130335, Note_on_c, 9, 63, 57
1, 130335, Note_on_c, 9, 42, 68
1, 130379, Note_on_c, 9, 63, 0
1, 130379, Note_on_c, 9, 42, 0
1, 130455, Note_on_c, 9, 63, 16
1, 130455, Note_on_c, 9, 42, 37
1, 130499, Note_on_c, 9, 63, 0
1, 130499, Note_on_c, 9, 42, 0
1, 130559, Note_on_c, 9, 35, 0
1, 130560, Note_on_c, 9, 38, 52
1, 130574, Note_on_c, 9, 38, 0
1, 130575, Note_on_c, 9, 63, 77
1, 130575, Note_on_c, 9, 42, 83
1, 130799, Note_on_c, 9, 63, 0
1, 130799, Note_on_c, 9, 42, 0
1, 130815, Note_on_c, 9, 63, 60
1, 130815, Note_on_c, 9, 42, 70
1, 130859, Note_on_c, 9, 63, 0
1, 130859, Note_on_c, 9, 42, 0
1, 130950, Note_on_c, 9, 63, 46
1, 130950, Note_on_c, 9, 42, 60
1, 131039, Note_on_c, 9, 63, 0
1, 131039, Note_on_c, 9, 42, 0
1, 131070, Note_on_c, 9, 63, 80
1, 131070, Note_on_c, 9, 38, 78
1, 131070, Note_on_c, 9, 42, 85
1, 131070, Note_on_c, 9, 35, 72
1, 131159, Note_on_c, 9, 63, 0
1, 131159, Note_on_c, 9, 38, 0
1, 131159, Note_on_c, 9, 42, 0
1, 131159, Note_on_c, 9, 35, 0
1, 131280, Note_on_c, 9, 63, 48
1, 131280, Note_on_c, 9, 42, 61
1, 131295, Note_on_c, 9, 35, 56
1, 131399, Note_on_c, 9, 63, 0
1, 131399, Note_on_c, 9, 42, 0
1, 131415, Note_on_c, 9, 63, 19
1, 131415, Note_on_c, 9, 42, 40
1, 131459, Note_on_c, 9, 63, 0
1, 131459, Note_on_c, 9, 42, 0
1, 131519, Note_on_c, 9, 35, 0
1, 131520, Note_on_c, 9, 38, 48
1, 131534, Note_on_c, 9, 38, 0
1, 131535, Note_on_c, 9, 63, 73
1, 131535, Note_on_c, 9, 42, 80
1, 131759, Note_on_c, 9, 63, 0
1, 131759, Note_on_c, 9, 42, 0
1, 131760, Note_on_c, 9, 63, 62
1, 131760, Note_on_c, 9, 42, 72
1, 131879, Note_on_c, 9, 63, 0
1, 131879, Note_on_c, 9, 42, 0
1, 131895, Note_on_c, 9, 63, 39
1, 131895, Note_on_c, 9, 42, 55
1, 131939, Note_on_c, 9, 63, 0
1, 131939, Note_on_c, 9, 42, 0
1, 132015, Note_on_c, 9, 63, 63
1, 132015, Note_on_c, 9, 38, 83
1, 132015, Note_on_c, 9, 42, 73
1, 132015, Note_on_c, 9, 35, 70
1, 132239, Note_on_c, 9, 63, 0
1, 132239, Note_on_c, 9, 38, 0
1, 132239, Note_on_c, 9, 42, 0
1, 132239, Note_on_c, 9, 35, 0
1, 132240, Note_on_c, 9, 63, 58
1, 132240, Note_on_c, 9, 42, 69
1, 132255, Note_on_c, 9, 35, 68
1, 132359, Note_on_c, 9, 63, 0
1, 132359, Note_on_c, 9, 42, 0
1, 132390, Note_on_c, 9, 63, 39
1, 132390, Note_on_c, 9, 42, 55
1, 132479, Note_on_c, 9, 35, 0
1, 132479, Note_on_c, 9, 63, 0
1, 132479, Note_on_c, 9, 42, 0
1, 132480, Note_on_c, 9, 63, 67
1, 132480, Note_on_c, 9, 38, 61
1, 132480, Note_on_c, 9, 42, 75
1, 132764, Note_on_c, 9, 63, 0
1, 132764, Note_on_c, 9, 38, 0
1, 132764, Note_on_c, 9, 42, 0
1, 132765, Note_on_c, 9, 46, 75
1, 132899, Note_on_c, 9, 46, 0
1, 132900, Note_on_c, 9, 46, 47
1, 132959, Note_on_c, 9, 46, 0
1, 132960, Note_on_c, 9, 35, 67
1, 133005, Note_on_c, 9, 63, 73
1, 133005, Note_on_c, 9, 42, 62
1, 133079, Note_on_c, 9, 35, 0
1, 133125, Note_on_c, 9, 44, 20
1, 133199, Note_on_c, 9, 63, 0
1, 133199, Note_on_c, 9, 42, 0
1, 133199, Note_on_c, 9, 44, 0
1, 133230, Note_on_c, 9, 64, 48
1, 133230, Note_on_c, 9, 62, 57
1, 133230, Note_on_c, 9, 42, 62
1, 133319, Note_on_c, 9, 64, 0
1, 133319, Note_on_c, 9, 62, 0
1, 133319, Note_on_c, 9, 42, 0
1, 133335, Note_on_c, 9, 62, 50
1, 133335, Note_on_c, 9, 42, 48
1, 133379, Note_on_c, 9, 62, 0
1, 133379, Note_on_c, 9, 42, 0
1, 133440, Note_on_c, 9, 44, 83
1, 133455, Note_on_c, 9, 38, 79
1, 133455, Note_on_c, 9, 62, 96
1, 133514, Note_on_c, 9, 38, 0
1, 133679, Note_on_c, 9, 62, 0
1, 133680, Note_on_c, 9, 64, 48
1, 133680, Note_on_c, 9, 63, 49
1, 133680, Note_on_c, 9, 42, 62
1, 133799, Note_on_c, 9, 44, 0
1, 133799, Note_on_c, 9, 64, 0
1, 133799, Note_on_c, 9, 63, 0
1, 133799, Note_on_c, 9, 42, 0
1, 133800, Note_on_c, 9, 63, 30
1, 133800, Note_on_c, 9, 42, 48
1, 133800, Note_on_c, 9, 35, 27
1, 133919, Note_on_c, 9, 63, 0
1, 133919, Note_on_c, 9, 42, 0
1, 133919, Note_on_c, 9, 35, 0
1, 133920, Note_on_c, 9, 63, 73
1, 133920, Note_on_c, 9, 42, 80
1, 133920, Note_on_c, 9, 35, 70
1, 134039, Note_on_c, 9, 35, 0
1, 134040, Note_on_c, 9, 44, 20
1, 134159, Note_on_c, 9, 63, 0
1, 134159, Note_on_c, 9, 42, 0
1, 134159, Note_on_c, 9, 44, 0
1, 134160, Note_on_c, 9, 64, 48
1, 134160, Note_on_c, 9, 62, 57
1, 134160, Note_on_c, 9, 42, 61
1, 134160, Note_on_c, 9, 35, 62
1, 134279, Note_on_c, 9, 64, 0
1, 134279, Note_on_c, 9, 62, 0
1, 134279, Note_on_c, 9, 42, 0
1, 134280, Note_on_c, 9, 62, 50
1, 134294, Note_on_c, 9, 62, 0
1, 134295, Note_on_c, 9, 42, 57
1, 134339, Note_on_c, 9, 42, 0
1, 134399, Note_on_c, 9, 35, 0
1, 134400, Note_on_c, 9, 62, 96
1, 134414, Note_on_c, 9, 62, 0
1, 134415, Note_on_c, 9, 38, 79
1, 134415, Note_on_c, 9, 42, 85
1, 134639, Note_on_c, 9, 42, 0
1, 134654, Note_on_c, 9, 38, 0
1, 134655, Note_on_c, 9, 64, 46
1, 134655, Note_on_c, 9, 63, 57
1, 134655, Note_on_c, 9, 42, 68
1, 134699, Note_on_c, 9, 64, 0
1, 134699, Note_on_c, 9, 63, 0
1, 134699, Note_on_c, 9, 42, 0
1, 134760, Note_on_c, 9, 63, 52
1, 134779, Note_on_c, 9, 63, 0
1, 134780, Note_on_c, 9, 40, 25
1, 134819, Note_on_c, 9, 40, 0
1, 134880, Note_on_c, 9, 63, 77
1, 134880, Note_on_c, 9, 42, 83
1, 134880, Note_on_c, 9, 35, 67
1, 134999, Note_on_c, 9, 35, 0
1, 135015, Note_on_c, 9, 44, 23
1, 135059, Note_on_c, 9, 44, 0
1, 135119, Note_on_c, 9, 63, 0
1, 135119, Note_on_c, 9, 42, 0
1, 135135, Note_on_c, 9, 64, 46
1, 135135, Note_on_c, 9, 62, 55
1, 135135, Note_on_c, 9, 42, 60
1, 135179, Note_on_c, 9, 64, 0
1, 135179, Note_on_c, 9, 62, 0
1, 135179, Note_on_c, 9, 42, 0
1, 135240, Note_on_c, 9, 62, 34
1, 135240, Note_on_c, 9, 42, 47
1, 135359, Note_on_c, 9, 62, 0
1, 135359, Note_on_c, 9, 42, 0
1, 135360, Note_on_c, 9, 62, 86
1, 135374, Note_on_c, 9, 62, 0
1, 135375, Note_on_c, 9, 38, 75
1, 135375, Note_on_c, 9, 42, 79
1, 135434, Note_on_c, 9, 38, 0
1, 135599, Note_on_c, 9, 42, 0
1, 135600, Note_on_c, 9, 64, 53
1, 135600, Note_on_c, 9, 63, 52
1, 135600, Note_on_c, 9, 42, 64
1, 135719, Note_on_c, 9, 64, 0
1, 135719, Note_on_c, 9, 63, 0
1, 135719, Note_on_c, 9, 42, 0
1, 135720, Note_on_c, 9, 63, 31
1, 135720, Note_on_c, 9, 42, 49
1, 135720, Note_on_c, 9, 35, 24
1, 135839, Note_on_c, 9, 63, 0
1, 135839, Note_on_c, 9, 42, 0
1, 135839, Note_on_c, 9, 35, 0
1, 135840, Note_on_c, 9, 63, 81
1, 135840, Note_on_c, 9, 42, 86
1, 135840, Note_on_c, 9, 35, 66
1, 135959, Note_on_c, 9, 35, 0
1, 135975, Note_on_c, 9, 44, 20
1, 136019, Note_on_c, 9, 44, 0
1, 136079, Note_on_c, 9, 63, 0
1, 136079, Note_on_c, 9, 42, 0
1, 136080, Note_on_c, 9, 64, 53
1, 136080, Note_on_c, 9, 62, 63
1, 136080, Note_on_c, 9, 42, 66
1, 136080, Note_on_c, 9, 35, 66
1, 136199, Note_on_c, 9, 64, 0
1, 136199, Note_on_c, 9, 62, 0
1, 136199, Note_on_c, 9, 42, 0
1, 136215, Note_on_c, 9, 62, 46
1, 136215, Note_on_c, 9, 42, 55
1, 136259, Note_on_c, 9, 62, 0
1, 136259, Note_on_c, 9, 42, 0
1, 136319, Note_on_c, 9, 35, 0
1, 136335, Note_on_c, 9, 38, 75
1, 136335, Note_on_c, 9, 62, 90
1, 136335, Note_on_c, 9, 42, 82
1, 136394, Note_on_c, 9, 38, 0
1, 136559, Note_on_c, 9, 62, 0
1, 136559, Note_on_c, 9, 42, 0
1, 136560, Note_on_c, 9, 64, 53
1, 136560, Note_on_c, 9, 63, 50
1, 136560, Note_on_c, 9, 42, 63
1, 136679, Note_on_c, 9, 64, 0
1, 136679, Note_on_c, 9, 63, 0
1, 136679, Note_on_c, 9, 42, 0
1, 136710, Note_on_c, 9, 63, 19
1, 136710, Note_on_c, 9, 44, 40
1, 136710, Note_on_c, 9, 35, 17
1, 136769, Note_on_c, 9, 35, 0
1, 136799, Note_on_c, 9, 63, 0
1, 136799, Note_on_c, 9, 44, 0
1, 136800, Note_on_c, 9, 35, 75
1, 136830, Note_on_c, 9, 63, 67
1, 136830, Note_on_c, 9, 42, 75
1, 136919, Note_on_c, 9, 35, 0
1, 136919, Note_on_c, 9, 63, 0
1, 136919, Note_on_c, 9, 42, 0
1, 136950, Note_on_c, 9, 44, 20
1, 137039, Note_on_c, 9, 44, 0
1, 137040, Note_on_c, 9, 64, 53
1, 137040, Note_on_c, 9, 62, 63
1, 137040, Note_on_c, 9, 42, 66
1, 137159, Note_on_c, 9, 64, 0
1, 137159, Note_on_c, 9, 62, 0
1, 137159, Note_on_c, 9, 42, 0
1, 137175, Note_on_c, 9, 62, 58
1, 137189, Note_on_c, 9, 62, 0
1, 137190, Note_on_c, 9, 42, 62
1, 137279, Note_on_c, 9, 42, 0
1, 137295, Note_on_c, 9, 38, 70
1, 137295, Note_on_c, 9, 62, 96
1, 137295, Note_on_c, 9, 42, 85
1, 137354, Note_on_c, 9, 38, 0
1, 137519, Note_on_c, 9, 62, 0
1, 137519, Note_on_c, 9, 42, 0
1, 137520, Note_on_c, 9, 64, 55
1, 137520, Note_on_c, 9, 63, 33
1, 137520, Note_on_c, 9, 42, 50
1, 137639, Note_on_c, 9, 64, 0
1, 137639, Note_on_c, 9, 63, 0
1, 137639, Note_on_c, 9, 42, 0
1, 137640, Note_on_c, 9, 63, 17
1, 137640, Note_on_c, 9, 42, 30
1, 137640, Note_on_c, 9, 35, 22
1, 137759, Note_on_c, 9, 63, 0
1, 137759, Note_on_c, 9, 42, 0
1, 137759, Note_on_c, 9, 35, 0
1, 137760, Note_on_c, 9, 35, 72
1, 137790, Note_on_c, 9, 63, 53
1, 137790, Note_on_c, 9, 42, 89
1, 137879, Note_on_c, 9, 35, 0
1, 137879, Note_on_c, 9, 63, 0
1, 137879, Note_on_c, 9, 42, 0
1, 137910, Note_on_c, 9, 44, 35
1, 137999, Note_on_c, 9, 44, 0
1, 138000, Note_on_c, 9, 35, 66
1, 138015, Note_on_c, 9, 64, 55
1, 138015, Note_on_c, 9, 62, 66
1, 138015, Note_on_c, 9, 42, 67
1, 138059, Note_on_c, 9, 64, 0
1, 138059, Note_on_c, 9, 62, 0
1, 138059, Note_on_c, 9, 42, 0
1, 138120, Note_on_c, 9, 62, 48
1, 138120, Note_on_c, 9, 42, 56
1, 138239, Note_on_c, 9, 35, 0
1, 138239, Note_on_c, 9, 62, 0
1, 138239, Note_on_c, 9, 42, 0
1, 138240, Note_on_c, 9, 38, 69
1, 138240, Note_on_c, 9, 62, 92
1, 138240, Note_on_c, 9, 42, 83
1, 138479, Note_on_c, 9, 38, 0
1, 138479, Note_on_c, 9, 62, 0
1, 138479, Note_on_c, 9, 42, 0
1, 138510, Note_on_c, 9, 64, 57
1, 138510, Note_on_c, 9, 63, 60
1, 138510, Note_on_c, 9, 42, 70
1, 138599, Note_on_c, 9, 64, 0
1, 138599, Note_on_c, 9, 63, 0
1, 138599, Note_on_c, 9, 42, 0
1, 138660, Note_on_c, 9, 63, 36
1, 138660, Note_on_c, 9, 40, 19
1, 138719, Note_on_c, 9, 63, 0
1, 138719, Note_on_c, 9, 40, 0
1, 138720, Note_on_c, 9, 35, 68
1, 138780, Note_on_c, 9, 63, 88
1, 138780, Note_on_c, 9, 42, 91
1, 138839, Note_on_c, 9, 35, 0
1, 138885, Note_on_c, 9, 44, 20
1, 138959, Note_on_c, 9, 63, 0
1, 138959, Note_on_c, 9, 42, 0
1, 138959, Note_on_c, 9, 44, 0
1, 138960, Note_on_c, 9, 64, 57
1, 138960, Note_on_c, 9, 62, 68
1, 138960, Note_on_c, 9, 42, 68
1, 139079, Note_on_c, 9, 64, 0
1, 139079, Note_on_c, 9, 62, 0
1, 139079, Note_on_c, 9, 42, 0
1, 139080, Note_on_c, 9, 62, 66
1, 139080, Note_on_c, 9, 42, 67
1, 139199, Note_on_c, 9, 62, 0
1, 139199, Note_on_c, 9, 42, 0
1, 139200, Note_on_c, 9, 38, 66
1, 139200, Note_on_c, 9, 62, 90
1, 139200, Note_on_c, 9, 42, 82
1, 139439, Note_on_c, 9, 38, 0
1, 139439, Note_on_c, 9, 62, 0
1, 139439, Note_on_c, 9, 42, 0
1, 139440, Note_on_c, 9, 64, 63
1, 139440, Note_on_c, 9, 63, 58
1, 139440, Note_on_c, 9, 42, 69
1, 139559, Note_on_c, 9, 64, 0
1, 139559, Note_on_c, 9, 63, 0
1, 139559, Note_on_c, 9, 42, 0
1, 139560, Note_on_c, 9, 63, 50
1, 139560, Note_on_c, 9, 42, 63
1, 139560, Note_on_c, 9, 35, 58
1, 139679, Note_on_c, 9, 63, 0
1, 139679, Note_on_c, 9, 42, 0
1, 139679, Note_on_c, 9, 35, 0
1, 139680, Note_on_c, 9, 35, 68
1, 139695, Note_on_c, 9, 63, 66
1, 139695, Note_on_c, 9, 42, 74
1, 139799, Note_on_c, 9, 35, 0
1, 139800, Note_on_c, 9, 44, 20
1, 139919, Note_on_c, 9, 63, 0
1, 139919, Note_on_c, 9, 42, 0
1, 139919, Note_on_c, 9, 44, 0
1, 139920, Note_on_c, 9, 35, 64
1, 139935, Note_on_c, 9, 64, 63
1, 139935, Note_on_c, 9, 62, 75
1, 139935, Note_on_c, 9, 42, 73
1, 139979, Note_on_c, 9, 64, 0
1, 139979, Note_on_c, 9, 62, 0
1, 139979, Note_on_c, 9, 42, 0
1, 140055, Note_on_c, 9, 62, 52
1, 140069, Note_on_c, 9, 62, 0
1, 140070, Note_on_c, 9, 42, 58
1, 140159, Note_on_c, 9, 35, 0
1, 140159, Note_on_c, 9, 42, 0
1, 140175, Note_on_c, 9, 62, 66
1, 140189, Note_on_c, 9, 62, 0
1, 140190, Note_on_c, 9, 38, 67
1, 140190, Note_on_c, 9, 42, 67
1, 140279, Note_on_c, 9, 42, 0
1, 140309, Note_on_c, 9, 38, 0
1, 140310, Note_on_c, 9, 42, 29
1, 140399, Note_on_c, 9, 42, 0
1, 140430, Note_on_c, 9, 64, 55
1, 140430, Note_on_c, 9, 63, 53
1, 140430, Note_on_c, 9, 44, 38
1, 140519, Note_on_c, 9, 64, 0
1, 140519, Note_on_c, 9, 63, 0
1, 140519, Note_on_c, 9, 44, 0
1, 140520, Note_on_c, 9, 63, 66
1, 140535, Note_on_c, 9, 35, 15
1, 140579, Note_on_c, 9, 35, 0
1, 140639, Note_on_c, 9, 63, 0
1, 140640, Note_on_c, 9, 35, 67
1, 140670, Note_on_c, 9, 63, 66
1, 140670, Note_on_c, 9, 42, 74
1, 140759, Note_on_c, 9, 35, 0
1, 140759, Note_on_c, 9, 63, 0
1, 140759, Note_on_c, 9, 42, 0
1, 140760, Note_on_c, 9, 44, 20
1, 140895, Note_on_c, 9, 64, 55
1, 140895, Note_on_c, 9, 62, 66
1, 140909, Note_on_c, 9, 64, 0
1, 140909, Note_on_c, 9, 62, 0
1, 140910, Note_on_c, 9, 42, 67
1, 140999, Note_on_c, 9, 42, 0
1, 141000, Note_on_c, 9, 62, 66
1, 141000, Note_on_c, 9, 42, 67
1, 141119, Note_on_c, 9, 44, 0
1, 141119, Note_on_c, 9, 62, 0
1, 141119, Note_on_c, 9, 42, 0
1, 141120, Note_on_c, 9, 62, 101
1, 141134, Note_on_c, 9, 62, 0
1, 141135, Note_on_c, 9, 38, 79
1, 141135, Note_on_c, 9, 42, 89
1, 141194, Note_on_c, 9, 38, 0
1, 141359, Note_on_c, 9, 42, 0
1, 141360, Note_on_c, 9, 64, 29
1, 141360, Note_on_c, 9, 63, 49
1, 141360, Note_on_c, 9, 42, 62
1, 141479, Note_on_c, 9, 64, 0
1, 141479, Note_on_c, 9, 63, 0
1, 141479, Note_on_c, 9, 42, 0
1, 141480, Note_on_c, 9, 63, 52
1, 141480, Note_on_c, 9, 42, 64
1, 141480, Note_on_c, 9, 35, 27
1, 141599, Note_on_c, 9, 63, 0
1, 141599, Note_on_c, 9, 42, 0
1, 141599, Note_on_c, 9, 35, 0
1, 141600, Note_on_c, 9, 63, 77
1, 141600, Note_on_c, 9, 42, 83
1, 141600, Note_on_c, 9, 35, 70
1, 141719, Note_on_c, 9, 35, 0
1, 141720, Note_on_c, 9, 44, 20
1, 141839, Note_on_c, 9, 63, 0
1, 141839, Note_on_c, 9, 42, 0
1, 141839, Note_on_c, 9, 44, 0
1, 141840, Note_on_c, 9, 64, 29
1, 141840, Note_on_c, 9, 62, 34
1, 141840, Note_on_c, 9, 42, 47
1, 141840, Note_on_c, 9, 35, 62
1, 141959, Note_on_c, 9, 64, 0
1, 141959, Note_on_c, 9, 62, 0
1, 141959, Note_on_c, 9, 42, 0
1, 141960, Note_on_c, 9, 62, 69
1, 141974, Note_on_c, 9, 62, 0
1, 141975, Note_on_c, 9, 42, 69
1, 142019, Note_on_c, 9, 42, 0
1, 142079, Note_on_c, 9, 35, 0
1, 142080, Note_on_c, 9, 62, 108
1, 142094, Note_on_c, 9, 62, 0
1, 142095, Note_on_c, 9, 38, 79
1, 142095, Note_on_c, 9, 42, 93
1, 142200, Note_on_c, 9, 44, 26
1, 142319, Note_on_c, 9, 42, 0
1, 142334, Note_on_c, 9, 38, 0
1, 142335, Note_on_c, 9, 64, 48
1, 142335, Note_on_c, 9, 63, 30
1, 142335, Note_on_c, 9, 42, 48
1, 142379, Note_on_c, 9, 64, 0
1, 142379, Note_on_c, 9, 63, 0
1, 142379, Note_on_c, 9, 42, 0
1, 142470, Note_on_c, 9, 63, 49
1, 142470, Note_on_c, 9, 40, 25
1, 142529, Note_on_c, 9, 40, 0
1, 142559, Note_on_c, 9, 44, 0
1, 142559, Note_on_c, 9, 63, 0
1, 142560, Note_on_c, 9, 63, 73
1, 142560, Note_on_c, 9, 42, 62
1, 142560, Note_on_c, 9, 35, 67
1, 142679, Note_on_c, 9, 35, 0
1, 142710, Note_on_c, 9, 44, 20
1, 142799, Note_on_c, 9, 63, 0
1, 142799, Note_on_c, 9, 42, 0
1, 142799, Note_on_c, 9, 44, 0
1, 142800, Note_on_c, 9, 64, 48
1, 142800, Note_on_c, 9, 62, 57
1, 142800, Note_on_c, 9, 42, 62
1, 142919, Note_on_c, 9, 64, 0
1, 142919, Note_on_c, 9, 62, 0
1, 142919, Note_on_c, 9, 42, 0
1, 142920, Note_on_c, 9, 62, 62
1, 142920, Note_on_c, 9, 42, 48
1, 143039, Note_on_c, 9, 62, 0
1, 143039, Note_on_c, 9, 42, 0
1, 143040, Note_on_c, 9, 38, 75
1, 143040, Note_on_c, 9, 62, 105
1, 143070, Note_on_c, 9, 44, 83
1, 143279, Note_on_c, 9, 38, 0
1, 143279, Note_on_c, 9, 62, 0
1, 143295, Note_on_c, 9, 64, 62
1, 143295, Note_on_c, 9, 63, 46
1, 143295, Note_on_c, 9, 42, 62
1, 143339, Note_on_c, 9, 64, 0
1, 143339, Note_on_c, 9, 63, 0
1, 143339, Note_on_c, 9, 42, 0
1, 143399, Note_on_c, 9, 44, 0
1, 143400, Note_on_c, 9, 35, 24
1, 143415, Note_on_c, 9, 63, 50
1, 143415, Note_on_c, 9, 42, 48
1, 143459, Note_on_c, 9, 63, 0
1, 143459, Note_on_c, 9, 42, 0
1, 143519, Note_on_c, 9, 35, 0
1, 143520, Note_on_c, 9, 35, 66
1, 143535, Note_on_c, 9, 63, 77
1, 143535, Note_on_c, 9, 42, 80
1, 143639, Note_on_c, 9, 35, 0
1, 143640, Note_on_c, 9, 44, 20
1, 143759, Note_on_c, 9, 63, 0
1, 143759, Note_on_c, 9, 42, 0
1, 143759, Note_on_c, 9, 44, 0
1, 143760, Note_on_c, 9, 64, 62
1, 143760, Note_on_c, 9, 62, 74
1, 143760, Note_on_c, 9, 42, 61
1, 143760, Note_on_c, 9, 35, 66
1, 143879, Note_on_c, 9, 64, 0
1, 143879, Note_on_c, 9, 62, 0
1, 143879, Note_on_c, 9, 42, 0
1, 143880, Note_on_c, 9, 62, 58
1, 143880, Note_on_c, 9, 42, 57
1, 143999, Note_on_c, 9, 35, 0
1, 143999, Note_on_c, 9, 62, 0
1, 143999, Note_on_c, 9, 42, 0
1, 144000, Note_on_c, 9, 38, 75
1, 144000, Note_on_c, 9, 62, 72
1, 144000, Note_on_c, 9, 42, 85
1, 144239, Note_on_c, 9, 38, 0
1, 144239, Note_on_c, 9, 62, 0
1, 144239, Note_on_c, 9, 42, 0
1, 144270, Note_on_c, 9, 64, 49
1, 144270, Note_on_c, 9, 63, 55
1, 144270, Note_on_c, 9, 42, 68
1, 144359, Note_on_c, 9, 64, 0
1, 144359, Note_on_c, 9, 63, 0
1, 144359, Note_on_c, 9, 42, 0
1, 144360, Note_on_c, 9, 44, 26
1, 144360, Note_on_c, 9, 35, 17
1, 144390, Note_on_c, 9, 63, 33
1, 144479, Note_on_c, 9, 44, 0
1, 144479, Note_on_c, 9, 35, 0
1, 144479, Note_on_c, 9, 63, 0
1, 144510, Note_on_c, 9, 63, 58
1, 144510, Note_on_c, 9, 38, 62
1, 144510, Note_on_c, 9, 44, 69
1, 144510, Note_on_c, 9, 35, 84
1, 144599, Note_on_c, 9, 63, 0
1, 144599, Note_on_c, 9, 38, 0
1, 144735, Note_on_c, 9, 64, 49
1, 144735, Note_on_c, 9, 62, 58
1, 144749, Note_on_c, 9, 64, 0
1, 144749, Note_on_c, 9, 62, 0
1, 144750, Note_on_c, 9, 42, 62
1, 144839, Note_on_c, 9, 42, 0
1, 144840, Note_on_c, 9, 62, 42
1, 144854, Note_on_c, 9, 62, 0
1, 144855, Note_on_c, 9, 42, 52
1, 144899, Note_on_c, 9, 42, 0
1, 144959, Note_on_c, 9, 44, 0
1, 144959, Note_on_c, 9, 35, 0
1, 144960, Note_on_c, 9, 38, 56
1, 144960, Note_on_c, 9, 62, 74
1, 144960, Note_on_c, 9, 42, 72
1, 145199, Note_on_c, 9, 38, 0
1, 145199, Note_on_c, 9, 62, 0
1, 145199, Note_on_c, 9, 42, 0
1, 145200, Note_on_c, 9, 64, 57
1, 145200, Note_on_c, 9, 63, 49
1, 145200, Note_on_c, 9, 42, 62
1, 145319, Note_on_c, 9, 64, 0
1, 145319, Note_on_c, 9, 63, 0
1, 145319, Note_on_c, 9, 42, 0
1, 145320, Note_on_c, 9, 63, 29
1, 145320, Note_on_c, 9, 42, 47
1, 145320, Note_on_c, 9, 35, 31
1, 145439, Note_on_c, 9, 63, 0
1, 145439, Note_on_c, 9, 42, 0
1, 145439, Note_on_c, 9, 35, 0
1, 145455, Note_on_c, 9, 63, 80
1, 145455, Note_on_c, 9, 38, 47
1, 145455, Note_on_c, 9, 42, 85
1, 145455, Note_on_c, 9, 35, 75
1, 145679, Note_on_c, 9, 63, 0
1, 145679, Note_on_c, 9, 38, 0
1, 145679, Note_on_c, 9, 42, 0
1, 145679, Note_on_c, 9, 35, 0
1, 145680, Note_on_c, 9, 64, 57
1, 145680, Note_on_c, 9, 62, 68
1, 145680, Note_on_c, 9, 35, 78
1, 145695, Note_on_c, 9, 42, 68
1, 145739, Note_on_c, 9, 42, 0
1, 145799, Note_on_c, 9, 64, 0
1, 145799, Note_on_c, 9, 62, 0
1, 145800, Note_on_c, 9, 62, 18
1, 145814, Note_on_c, 9, 62, 0
1, 145815, Note_on_c, 9, 42, 37
1, 145859, Note_on_c, 9, 42, 0
1, 145919, Note_on_c, 9, 35, 0
1, 145920, Note_on_c, 9, 38, 52
1, 145920, Note_on_c, 9, 62, 92
1, 145934, Note_on_c, 9, 38, 0
1, 145934, Note_on_c, 9, 62, 0
1, 145935, Note_on_c, 9, 42, 83
1, 146159, Note_on_c, 9, 42, 0
1, 146160, Note_on_c, 9, 64, 48
1, 146160, Note_on_c, 9, 63, 60
1, 146160, Note_on_c, 9, 42, 70
1, 146279, Note_on_c, 9, 64, 0
1, 146279, Note_on_c, 9, 63, 0
1, 146279, Note_on_c, 9, 42, 0
1, 146280, Note_on_c, 9, 63, 46
1, 146280, Note_on_c, 9, 42, 60
1, 146280, Note_on_c, 9, 35, 44
1, 146399, Note_on_c, 9, 63, 0
1, 146399, Note_on_c, 9, 42, 0
1, 146399, Note_on_c, 9, 35, 0
1, 146400, Note_on_c, 9, 63, 80
1, 146400, Note_on_c, 9, 38, 47
1, 146400, Note_on_c, 9, 42, 85
1, 146400, Note_on_c, 9, 35, 68
1, 146639, Note_on_c, 9, 63, 0
1, 146639, Note_on_c, 9, 38, 0
1, 146639, Note_on_c, 9, 42, 0
1, 146639, Note_on_c, 9, 35, 0
1, 146655, Note_on_c, 9, 64, 48
1, 146655, Note_on_c, 9, 62, 57
1, 146655, Note_on_c, 9, 42, 61
1, 146655, Note_on_c, 9, 35, 68
1, 146699, Note_on_c, 9, 64, 0
1, 146699, Note_on_c, 9, 62, 0
1, 146699, Note_on_c, 9, 42, 0
1, 146775, Note_on_c, 9, 62, 22
1, 146789, Note_on_c, 9, 62, 0
1, 146790, Note_on_c, 9, 42, 40
1, 146879, Note_on_c, 9, 35, 0
1, 146879, Note_on_c, 9, 42, 0
1, 146880, Note_on_c, 9, 38, 64
1, 146880, Note_on_c, 9, 62, 88
1, 146880, Note_on_c, 9, 42, 80
1, 147164, Note_on_c, 9, 38, 0
1, 147164, Note_on_c, 9, 62, 0
1, 147164, Note_on_c, 9, 42, 0
1, 147165, Note_on_c, 9, 64, 58
1, 147165, Note_on_c, 9, 63, 62
1, 147165, Note_on_c, 9, 42, 72
1, 147299, Note_on_c, 9, 64, 0
1, 147299, Note_on_c, 9, 63, 0
1, 147299, Note_on_c, 9, 42, 0
1, 147300, Note_on_c, 9, 63, 39
1, 147300, Note_on_c, 9, 42, 55
1, 147300, Note_on_c, 9, 35, 60
1, 147359, Note_on_c, 9, 63, 0
1, 147359, Note_on_c, 9, 42, 0
1, 147359, Note_on_c, 9, 35, 0
1, 147420, Note_on_c, 9, 63, 63
1, 147420, Note_on_c, 9, 38, 50
1, 147420, Note_on_c, 9, 42, 73
1, 147420, Note_on_c, 9, 35, 79
1, 147599, Note_on_c, 9, 63, 0
1, 147599, Note_on_c, 9, 38, 0
1, 147599, Note_on_c, 9, 42, 0
1, 147599, Note_on_c, 9, 35, 0
1, 147630, Note_on_c, 9, 64, 58
1, 147630, Note_on_c, 9, 62, 69
1, 147630, Note_on_c, 9, 42, 69
1, 147630, Note_on_c, 9, 35, 70
1, 147719, Note_on_c, 9, 64, 0
1, 147719, Note_on_c, 9, 62, 0
1, 147719, Note_on_c, 9, 42, 0
1, 147719, Note_on_c, 9, 35, 0
1, 147735, Note_on_c, 9, 62, 46
1, 147779, Note_on_c, 9, 62, 0
1, 147840, Note_on_c, 9, 38, 61
1, 147840, Note_on_c, 9, 62, 80
1, 147840, Note_on_c, 9, 42, 75
1, 148065, Note_on_c, 9, 43, 58
1, 148079, Note_on_c, 9, 43, 0
1, 148095, Note_on_c, 9, 44, 75
1, 148199, Note_on_c, 9, 38, 0
1, 148199, Note_on_c, 9, 62, 0
1, 148199, Note_on_c, 9, 42, 0
1, 148215, Note_on_c, 9, 41, 21
1, 148229, Note_on_c, 9, 41, 0
1, 148230, Note_on_c, 9, 42, 17
1, 148319, Note_on_c, 9, 44, 0
1, 148319, Note_on_c, 9, 42, 0
1, 148320, Note_on_c, 9, 63, 73
1, 148320, Note_on_c, 9, 42, 62
1, 148320, Note_on_c, 9, 35, 67
1, 148439, Note_on_c, 9, 35, 0
1, 148455, Note_on_c, 9, 44, 20
1, 148499, Note_on_c, 9, 44, 0
1, 148559, Note_on_c, 9, 63, 0
1, 148559, Note_on_c, 9, 42, 0
1, 148575, Note_on_c, 9, 63, 48
1, 148575, Note_on_c, 9, 42, 62
1, 148619, Note_on_c, 9, 63, 0
1, 148619, Note_on_c, 9, 42, 0
1, 148695, Note_on_c, 9, 63, 42
1, 148695, Note_on_c, 9, 42, 48
1, 148739, Note_on_c, 9, 63, 0
1, 148739, Note_on_c, 9, 42, 0
1, 148800, Note_on_c, 9, 63, 80
1, 148800, Note_on_c, 9, 38, 79
1, 148800, Note_on_c, 9, 44, 83
1, 149039, Note_on_c, 9, 63, 0
1, 149039, Note_on_c, 9, 38, 0
1, 149040, Note_on_c, 9, 63, 49
1, 149040, Note_on_c, 9, 42, 62
1, 149159, Note_on_c, 9, 44, 0
1, 149159, Note_on_c, 9, 63, 0
1, 149159, Note_on_c, 9, 42, 0
1, 149160, Note_on_c, 9, 63, 30
1, 149160, Note_on_c, 9, 42, 48
1, 149160, Note_on_c, 9, 35, 27
1, 149279, Note_on_c, 9, 63, 0
1, 149279, Note_on_c, 9, 42, 0
1, 149279, Note_on_c, 9, 35, 0
1, 149280, Note_on_c, 9, 63, 73
1, 149280, Note_on_c, 9, 42, 80
1, 149280, Note_on_c, 9, 35, 70
1, 149399, Note_on_c, 9, 35, 0
1, 149400, Note_on_c, 9, 44, 20
1, 149519, Note_on_c, 9, 63, 0
1, 149519, Note_on_c, 9, 42, 0
1, 149519, Note_on_c, 9, 44, 0
1, 149520, Note_on_c, 9, 63, 48
1, 149520, Note_on_c, 9, 42, 61
1, 149520, Note_on_c, 9, 35, 62
1, 149639, Note_on_c, 9, 63, 0
1, 149639, Note_on_c, 9, 42, 0
1, 149640, Note_on_c, 9, 63, 42
1, 149640, Note_on_c, 9, 42, 57
1, 149759, Note_on_c, 9, 35, 0
1, 149759, Note_on_c, 9, 63, 0
1, 149759, Note_on_c, 9, 42, 0
1, 149760, Note_on_c, 9, 63, 80
1, 149760, Note_on_c, 9, 38, 79
1, 149760, Note_on_c, 9, 42, 85
1, 149999, Note_on_c, 9, 63, 0
1, 149999, Note_on_c, 9, 38, 0
1, 149999, Note_on_c, 9, 42, 0
1, 150000, Note_on_c, 9, 63, 57
1, 150000, Note_on_c, 9, 42, 68
1, 150089, Note_on_c, 9, 63, 0
1, 150089, Note_on_c, 9, 42, 0
1, 150090, Note_on_c, 9, 63, 52
1, 150120, Note_on_c, 9, 40, 25
1, 150239, Note_on_c, 9, 63, 0
1, 150239, Note_on_c, 9, 40, 0
1, 150240, Note_on_c, 9, 63, 77
1, 150240, Note_on_c, 9, 42, 83
1, 150240, Note_on_c, 9, 35, 67
1, 150359, Note_on_c, 9, 35, 0
1, 150375, Note_on_c, 9, 44, 23
1, 150419, Note_on_c, 9, 44, 0
1, 150479, Note_on_c, 9, 63, 0
1, 150479, Note_on_c, 9, 42, 0
1, 150480, Note_on_c, 9, 63, 46
1, 150480, Note_on_c, 9, 42, 60
1, 150599, Note_on_c, 9, 63, 0
1, 150599, Note_on_c, 9, 42, 0
1, 150630, Note_on_c, 9, 63, 29
1, 150630, Note_on_c, 9, 42, 47
1, 150719, Note_on_c, 9, 63, 0
1, 150719, Note_on_c, 9, 42, 0
1, 150750, Note_on_c, 9, 63, 72
1, 150750, Note_on_c, 9, 38, 75
1, 150750, Note_on_c, 9, 42, 79
1, 150809, Note_on_c, 9, 38, 0
1, 150839, Note_on_c, 9, 63, 0
1, 150839, Note_on_c, 9, 42, 0
1, 150960, Note_on_c, 9, 63, 52
1, 150960, Note_on_c, 9, 42, 64
1, 151079, Note_on_c, 9, 63, 0
1, 151079, Note_on_c, 9, 42, 0
1, 151080, Note_on_c, 9, 63, 31
1, 151080, Note_on_c, 9, 42, 49
1, 151080, Note_on_c, 9, 35, 24
1, 151199, Note_on_c, 9, 63, 0
1, 151199, Note_on_c, 9, 42, 0
1, 151199, Note_on_c, 9, 35, 0
1, 151200, Note_on_c, 9, 63, 81
1, 151200, Note_on_c, 9, 42, 86
1, 151200, Note_on_c, 9, 35, 66
1, 151319, Note_on_c, 9, 35, 0
1, 151335, Note_on_c, 9, 44, 20
1, 151379, Note_on_c, 9, 44, 0
1, 151439, Note_on_c, 9, 63, 0
1, 151439, Note_on_c, 9, 42, 0
1, 151440, Note_on_c, 9, 63, 53
1, 151440, Note_on_c, 9, 42, 66
1, 151440, Note_on_c, 9, 35, 66
1, 151559, Note_on_c, 9, 63, 0
1, 151559, Note_on_c, 9, 42, 0
1, 151560, Note_on_c, 9, 63, 39
1, 151560, Note_on_c, 9, 42, 55
1, 151679, Note_on_c, 9, 35, 0
1, 151679, Note_on_c, 9, 63, 0
1, 151679, Note_on_c, 9, 42, 0
1, 151680, Note_on_c, 9, 63, 75
1, 151680, Note_on_c, 9, 38, 75
1, 151680, Note_on_c, 9, 42, 82
1, 151919, Note_on_c, 9, 63, 0
1, 151919, Note_on_c, 9, 38, 0
1, 151919, Note_on_c, 9, 42, 0
1, 151920, Note_on_c, 9, 63, 50
1, 151920, Note_on_c, 9, 42, 63
1, 152039, Note_on_c, 9, 63, 0
1, 152039, Note_on_c, 9, 42, 0
1, 152070, Note_on_c, 9, 63, 19
1, 152070, Note_on_c, 9, 44, 40
1, 152070, Note_on_c, 9, 35, 17
1, 152129, Note_on_c, 9, 35, 0
1, 152159, Note_on_c, 9, 63, 0
1, 152159, Note_on_c, 9, 44, 0
1, 152190, Note_on_c, 9, 63, 67
1, 152190, Note_on_c, 9, 42, 75
1, 152200, Note_on_c, 9, 35, 75
1, 152279, Note_on_c, 9, 63, 0
1, 152279, Note_on_c, 9, 42, 0
1, 152279, Note_on_c, 9, 35, 0
1, 152320, Note_on_c, 9, 44, 20
1, 152399, Note_on_c, 9, 44, 0
1, 152430, Note_on_c, 9, 63, 53
1, 152430, Note_on_c, 9, 42, 66
1, 152519, Note_on_c, 9, 63, 0
1, 152519, Note_on_c, 9, 42, 0
1, 152550, Note_on_c, 9, 63, 49
1, 152550, Note_on_c, 9, 42, 62
1, 152639, Note_on_c, 9, 63, 0
1, 152639, Note_on_c, 9, 42, 0
1, 152670, Note_on_c, 9, 63, 80
1, 152670, Note_on_c, 9, 38, 70
1, 152670, Note_on_c, 9, 42, 85
1, 152729, Note_on_c, 9, 38, 0
1, 152759, Note_on_c, 9, 63, 0
1, 152759, Note_on_c, 9, 42, 0
1, 152880, Note_on_c, 9, 63, 33
1, 152880, Note_on_c, 9, 42, 50
1, 152999, Note_on_c, 9, 63, 0
1, 152999, Note_on_c, 9, 42, 0
1, 153000, Note_on_c, 9, 63, 17
1, 153000, Note_on_c, 9, 42, 30
1, 153000, Note_on_c, 9, 35, 22
1, 153119, Note_on_c, 9, 63, 0
1, 153119, Note_on_c, 9, 42, 0
1, 153119, Note_on_c, 9, 35, 0
1, 153120, Note_on_c, 9, 63, 53
1, 153120, Note_on_c, 9, 42, 89
1, 153160, Note_on_c, 9, 35, 72
1, 153239, Note_on_c, 9, 35, 0
1, 153280, Note_on_c, 9, 44, 35
1, 153359, Note_on_c, 9, 63, 0
1, 153359, Note_on_c, 9, 42, 0
1, 153359, Note_on_c, 9, 44, 0
1, 153360, Note_on_c, 9, 35, 66
1, 153390, Note_on_c, 9, 63, 55
1, 153390, Note_on_c, 9, 42, 67
1, 153479, Note_on_c, 9, 63, 0
1, 153479, Note_on_c, 9, 42, 0
1, 153525, Note_on_c, 9, 63, 40
1, 153525, Note_on_c, 9, 42, 56
1, 153539, Note_on_c, 9, 63, 0
1, 153539, Note_on_c, 9, 42, 0
1, 153599, Note_on_c, 9, 35, 0
1, 153645, Note_on_c, 9, 63, 77
1, 153645, Note_on_c, 9, 38, 69
1, 153645, Note_on_c, 9, 42, 83
1, 153839, Note_on_c, 9, 63, 0
1, 153839, Note_on_c, 9, 42, 0
1, 153884, Note_on_c, 9, 38, 0
1, 153900, Note_on_c, 9, 63, 60
1, 153900, Note_on_c, 9, 42, 70
1, 154019, Note_on_c, 9, 63, 0
1, 154019, Note_on_c, 9, 42, 0
1, 154020, Note_on_c, 9, 63, 36
1, 154020, Note_on_c, 9, 40, 19
1, 154079, Note_on_c, 9, 63, 0
1, 154079, Note_on_c, 9, 40, 0
1, 154120, Note_on_c, 9, 35, 68
1, 154140, Note_on_c, 9, 63, 88
1, 154140, Note_on_c, 9, 42, 91
1, 154199, Note_on_c, 9, 35, 0
1, 154240, Note_on_c, 9, 44, 20
1, 154319, Note_on_c, 9, 63, 0
1, 154319, Note_on_c, 9, 42, 0
1, 154319, Note_on_c, 9, 44, 0
1, 154380, Note_on_c, 9, 63, 57
1, 154380, Note_on_c, 9, 42, 68
1, 154499, Note_on_c, 9, 63, 0
1, 154499, Note_on_c, 9, 42, 0
1, 154500, Note_on_c, 9, 63, 55
1, 154500, Note_on_c, 9, 42, 67
1, 154559, Note_on_c, 9, 63, 0
1, 154559, Note_on_c, 9, 42, 0
1, 154605, Note_on_c, 9, 63, 75
1, 154605, Note_on_c, 9, 38, 66
1, 154605, Note_on_c, 9, 42, 82
1, 154664, Note_on_c, 9, 38, 0
1, 154799, Note_on_c, 9, 63, 0
1, 154799, Note_on_c, 9, 42, 0
1, 154830, Note_on_c, 9, 63, 58
1, 154830, Note_on_c, 9, 42, 69
1, 154919, Note_on_c, 9, 63, 0
1, 154919, Note_on_c, 9, 42, 0
1, 154920, Note_on_c, 9, 63, 50
1, 154920, Note_on_c, 9, 42, 63
1, 154920, Note_on_c, 9, 35, 58
1, 155039, Note_on_c, 9, 63, 0
1, 155039, Note_on_c, 9, 42, 0
1, 155039, Note_on_c, 9, 35, 0
1, 155040, Note_on_c, 9, 35, 68
1, 155055, Note_on_c, 9, 63, 66
1, 155055, Note_on_c, 9, 42, 74
1, 155159, Note_on_c, 9, 35, 0
1, 155175, Note_on_c, 9, 44, 20
1, 155219, Note_on_c, 9, 44, 0
1, 155279, Note_on_c, 9, 63, 0
1, 155279, Note_on_c, 9, 42, 0
1, 155280, Note_on_c, 9, 63, 63
1, 155280, Note_on_c, 9, 42, 73
1, 155280, Note_on_c, 9, 35, 64
1, 155399, Note_on_c, 9, 63, 0
1, 155399, Note_on_c, 9, 42, 0
1, 155400, Note_on_c, 9, 63, 44
1, 155400, Note_on_c, 9, 42, 58
1, 155519, Note_on_c, 9, 35, 0
1, 155519, Note_on_c, 9, 63, 0
1, 155519, Note_on_c, 9, 42, 0
1, 155520, Note_on_c, 9, 63, 55
1, 155520, Note_on_c, 9, 38, 67
1, 155520, Note_on_c, 9, 42, 67
1, 155639, Note_on_c, 9, 63, 0
1, 155639, Note_on_c, 9, 38, 0
1, 155639, Note_on_c, 9, 42, 0
1, 155640, Note_on_c, 9, 42, 29
1, 155759, Note_on_c, 9, 42, 0
1, 155760, Note_on_c, 9, 63, 53
1, 155760, Note_on_c, 9, 44, 38
1, 155849, Note_on_c, 9, 44, 0
1, 155865, Note_on_c, 9, 35, 15
1, 155879, Note_on_c, 9, 63, 0
1, 155880, Note_on_c, 9, 63, 66
1, 155999, Note_on_c, 9, 35, 0
1, 155999, Note_on_c, 9, 63, 0
1, 156000, Note_on_c, 9, 63, 66
1, 156000, Note_on_c, 9, 42, 74
1, 156000, Note_on_c, 9, 35, 67
1, 156119, Note_on_c, 9, 35, 0
1, 156120, Note_on_c, 9, 44, 20
1, 156239, Note_on_c, 9, 63, 0
1, 156239, Note_on_c, 9, 42, 0
1, 156240, Note_on_c, 9, 63, 55
1, 156240, Note_on_c, 9, 42, 67
1, 156359, Note_on_c, 9, 63, 0
1, 156359, Note_on_c, 9, 42, 0
1, 156360, Note_on_c, 9, 63, 55
1, 156360, Note_on_c, 9, 42, 67
1, 156479, Note_on_c, 9, 44, 0
1, 156479, Note_on_c, 9, 63, 0
1, 156479, Note_on_c, 9, 42, 0
1, 156480, Note_on_c, 9, 63, 84
1, 156480, Note_on_c, 9, 38, 79
1, 156480, Note_on_c, 9, 42, 89
1, 156719, Note_on_c, 9, 63, 0
1, 156719, Note_on_c, 9, 38, 0
1, 156719, Note_on_c, 9, 42, 0
1, 156720, Note_on_c, 9, 63, 49
1, 156720, Note_on_c, 9, 42, 62
1, 156839, Note_on_c, 9, 63, 0
1, 156839, Note_on_c, 9, 42, 0
1, 156840, Note_on_c, 9, 63, 52
1, 156840, Note_on_c, 9, 42, 64
1, 156840, Note_on_c, 9, 35, 27
1, 156959, Note_on_c, 9, 63, 0
1, 156959, Note_on_c, 9, 42, 0
1, 156959, Note_on_c, 9, 35, 0
1, 156960, Note_on_c, 9, 63, 77
1, 156960, Note_on_c, 9, 42, 83
1, 156960, Note_on_c, 9, 35, 70
1, 157079, Note_on_c, 9, 35, 0
1, 157080, Note_on_c, 9, 44, 20
1, 157199, Note_on_c, 9, 63, 0
1, 157199, Note_on_c, 9, 42, 0
1, 157199, Note_on_c, 9, 44, 0
1, 157200, Note_on_c, 9, 63, 29
1, 157200, Note_on_c, 9, 42, 47
1, 157200, Note_on_c, 9, 35, 62
1, 157319, Note_on_c, 9, 63, 0
1, 157319, Note_on_c, 9, 42, 0
1, 157335, Note_on_c, 9, 63, 58
1, 157335, Note_on_c, 9, 42, 69
1, 157379, Note_on_c, 9, 63, 0
1, 157379, Note_on_c, 9, 42, 0
1, 157439, Note_on_c, 9, 35, 0
1, 157455, Note_on_c, 9, 63, 90
1, 157455, Note_on_c, 9, 38, 79
1, 157455, Note_on_c, 9, 42, 93
1, 157560, Note_on_c, 9, 44, 26
1, 157679, Note_on_c, 9, 63, 0
1, 157679, Note_on_c, 9, 42, 0
1, 157694, Note_on_c, 9, 38, 0
1, 157695, Note_on_c, 9, 63, 30
1, 157695, Note_on_c, 9, 42, 48
1, 157739, Note_on_c, 9, 63, 0
1, 157739, Note_on_c, 9, 42, 0
1, 157830, Note_on_c, 9, 63, 49
1, 157830, Note_on_c, 9, 40, 25
1, 157889, Note_on_c, 9, 40, 0
1, 157919, Note_on_c, 9, 44, 0
1, 157919, Note_on_c, 9, 63, 0
1, 157920, Note_on_c, 9, 63, 73
1, 157920, Note_on_c, 9, 42, 62
1, 157920, Note_on_c, 9, 35, 67
1, 158039, Note_on_c, 9, 35, 0
1, 158070, Note_on_c, 9, 44, 20
1, 158159, Note_on_c, 9, 63, 0
1, 158159, Note_on_c, 9, 42, 0
1, 158159, Note_on_c, 9, 44, 0
1, 158190, Note_on_c, 9, 63, 48
1, 158190, Note_on_c, 9, 42, 62
1, 158279, Note_on_c, 9, 63, 0
1, 158279, Note_on_c, 9, 42, 0
1, 158310, Note_on_c, 9, 63, 52
1, 158310, Note_on_c, 9, 42, 48
1, 158399, Note_on_c, 9, 63, 0
1, 158399, Note_on_c, 9, 42, 0
1, 158430, Note_on_c, 9, 63, 88
1, 158430, Note_on_c, 9, 38, 75
1, 158430, Note_on_c, 9, 44, 83
1, 158489, Note_on_c, 9, 38, 0
1, 158519, Note_on_c, 9, 63, 0
1, 158655, Note_on_c, 9, 63, 46
1, 158655, Note_on_c, 9, 42, 62
1, 158699, Note_on_c, 9, 63, 0
1, 158699, Note_on_c, 9, 42, 0
1, 158759, Note_on_c, 9, 44, 0
1, 158760, Note_on_c, 9, 63, 50
1, 158760, Note_on_c, 9, 42, 48
1, 158760, Note_on_c, 9, 35, 24
1, 158879, Note_on_c, 9, 63, 0
1, 158879, Note_on_c, 9, 42, 0
1, 158879, Note_on_c, 9, 35, 0
1, 158880, Note_on_c, 9, 63, 77
1, 158880, Note_on_c, 9, 42, 80
1, 158880, Note_on_c, 9, 35, 66
1, 158999, Note_on_c, 9, 35, 0
1, 159000, Note_on_c, 9, 44, 20
1, 159119, Note_on_c, 9, 63, 0
1, 159119, Note_on_c, 9, 42, 0
1, 159119, Note_on_c, 9, 44, 0
1, 159120, Note_on_c, 9, 63, 62
1, 159120, Note_on_c, 9, 42, 61
1, 159120, Note_on_c, 9, 35, 66
1, 159239, Note_on_c, 9, 63, 0
1, 159239, Note_on_c, 9, 42, 0
1, 159255, Note_on_c, 9, 63, 49
1, 159255, Note_on_c, 9, 42, 57
1, 159299, Note_on_c, 9, 63, 0
1, 159299, Note_on_c, 9, 42, 0
1, 159359, Note_on_c, 9, 35, 0
1, 159375, Note_on_c, 9, 63, 60
1, 159375, Note_on_c, 9, 38, 75
1, 159375, Note_on_c, 9, 42, 85
1, 159599, Note_on_c, 9, 63, 0
1, 159599, Note_on_c, 9, 42, 0
1, 159614, Note_on_c, 9, 38, 0
1, 159615, Note_on_c, 9, 63, 55
1, 159615, Note_on_c, 9, 42, 68
1, 159659, Note_on_c, 9, 63, 0
1, 159659, Note_on_c, 9, 42, 0
1, 159720, Note_on_c, 9, 63, 33
1, 159720, Note_on_c, 9, 44, 26
1, 159720, Note_on_c, 9, 35, 17
1, 159839, Note_on_c, 9, 63, 0
1, 159839, Note_on_c, 9, 44, 0
1, 159839, Note_on_c, 9, 35, 0
1, 159840, Note_on_c, 9, 63, 58
1, 159840, Note_on_c, 9, 38, 62
1, 159840, Note_on_c, 9, 44, 69
1, 159840, Note_on_c, 9, 35, 84
1, 160079, Note_on_c, 9, 63, 0
1, 160079, Note_on_c, 9, 38, 0
1, 160110, Note_on_c, 9, 63, 49
1, 160110, Note_on_c, 9, 42, 62
1, 160199, Note_on_c, 9, 63, 0
1, 160199, Note_on_c, 9, 42, 0
1, 160200, Note_on_c, 9, 63, 36
1, 160200, Note_on_c, 9, 42, 52
1, 160319, Note_on_c, 9, 44, 0
1, 160319, Note_on_c, 9, 35, 0
1, 160319, Note_on_c, 9, 63, 0
1, 160319, Note_on_c, 9, 42, 0
1, 160335, Note_on_c, 9, 63, 62
1, 160335, Note_on_c, 9, 38, 56
1, 160335, Note_on_c, 9, 42, 72
1, 160559, Note_on_c, 9, 63, 0
1, 160559, Note_on_c, 9, 38, 0
1, 160559, Note_on_c, 9, 42, 0
1, 160590, Note_on_c, 9, 63, 49
1, 160590, Note_on_c, 9, 42, 62
1, 160724, Note_on_c, 9, 63, 0
1, 160724, Note_on_c, 9, 42, 0
1, 160725, Note_on_c, 9, 63, 29
1, 160725, Note_on_c, 9, 42, 47
1, 160725, Note_on_c, 9, 35, 31
1, 160739, Note_on_c, 9, 63, 0
1, 160739, Note_on_c, 9, 42, 0
1, 160739, Note_on_c, 9, 35, 0
1, 160845, Note_on_c, 9, 63, 80
1, 160845, Note_on_c, 9, 38, 47
1, 160845, Note_on_c, 9, 42, 85
1, 160845, Note_on_c, 9, 35, 75
1, 161039, Note_on_c, 9, 63, 0
1, 161039, Note_on_c, 9, 38, 0
1, 161039, Note_on_c, 9, 42, 0
1, 161039, Note_on_c, 9, 35, 0
1, 161055, Note_on_c, 9, 35, 78
1, 161070, Note_on_c, 9, 63, 57
1, 161070, Note_on_c, 9, 42, 68
1, 161159, Note_on_c, 9, 63, 0
1, 161159, Note_on_c, 9, 42, 0
1, 161175, Note_on_c, 9, 63, 16
1, 161175, Note_on_c, 9, 42, 37
1, 161219, Note_on_c, 9, 63, 0
1, 161219, Note_on_c, 9, 42, 0
1, 161279, Note_on_c, 9, 35, 0
1, 161280, Note_on_c, 9, 63, 77
1, 161280, Note_on_c, 9, 38, 52
1, 161280, Note_on_c, 9, 42, 83
1, 161519, Note_on_c, 9, 63, 0
1, 161519, Note_on_c, 9, 38, 0
1, 161519, Note_on_c, 9, 42, 0
1, 161520, Note_on_c, 9, 63, 60
1, 161520, Note_on_c, 9, 42, 70
1, 161639, Note_on_c, 9, 63, 0
1, 161639, Note_on_c, 9, 42, 0
1, 161640, Note_on_c, 9, 35, 44
1, 161655, Note_on_c, 9, 63, 46
1, 161655, Note_on_c, 9, 42, 60
1, 161699, Note_on_c, 9, 63, 0
1, 161699, Note_on_c, 9, 42, 0
1, 161759, Note_on_c, 9, 35, 0
1, 161760, Note_on_c, 9, 63, 80
1, 161760, Note_on_c, 9, 38, 47
1, 161760, Note_on_c, 9, 42, 85
1, 161760, Note_on_c, 9, 35, 68
1, 161999, Note_on_c, 9, 63, 0
1, 161999, Note_on_c, 9, 38, 0
1, 161999, Note_on_c, 9, 42, 0
1, 161999, Note_on_c, 9, 35, 0
1, 162000, Note_on_c, 9, 35, 68
1, 162015, Note_on_c, 9, 63, 48
1, 162015, Note_on_c, 9, 42, 61
1, 162059, Note_on_c, 9, 63, 0
1, 162059, Note_on_c, 9, 42, 0
1, 162135, Note_on_c, 9, 63, 19
1, 162135, Note_on_c, 9, 42, 40
1, 162179, Note_on_c, 9, 63, 0
1, 162179, Note_on_c, 9, 42, 0
1, 162239, Note_on_c, 9, 35, 0
1, 162240, Note_on_c, 9, 38, 64
1, 162254, Note_on_c, 9, 38, 0
1, 162255, Note_on_c, 9, 63, 73
1, 162255, Note_on_c, 9, 42, 80
1, 162479, Note_on_c, 9, 63, 0
1, 162479, Note_on_c, 9, 42, 0
1, 162495, Note_on_c, 9, 63, 62
1, 162495, Note_on_c, 9, 42, 72
1, 162539, Note_on_c, 9, 63, 0
1, 162539, Note_on_c, 9, 42, 0
1, 162615, Note_on_c, 9, 63, 39
1, 162615, Note_on_c, 9, 42, 55
1, 162615, Note_on_c, 9, 35, 60
1, 162659, Note_on_c, 9, 63, 0
1, 162659, Note_on_c, 9, 42, 0
1, 162659, Note_on_c, 9, 35, 0
1, 162720, Note_on_c, 9, 63, 63
1, 162720, Note_on_c, 9, 38, 50
1, 162720, Note_on_c, 9, 42, 73
1, 162720, Note_on_c, 9, 35, 79
1, 162959, Note_on_c, 9, 63, 0
1, 162959, Note_on_c, 9, 38, 0
1, 162959, Note_on_c, 9, 42, 0
1, 162959, Note_on_c, 9, 35, 0
1, 162975, Note_on_c, 9, 63, 58
1, 162975, Note_on_c, 9, 42, 69
1, 162975, Note_on_c, 9, 35, 70
1, 163019, Note_on_c, 9, 63, 0
1, 163019, Note_on_c, 9, 42, 0
1, 163095, Note_on_c, 9, 63, 39
1, 163139, Note_on_c, 9, 63, 0
1, 163199, Note_on_c, 9, 35, 0
1, 163200, Note_on_c, 9, 63, 67
1, 163200, Note_on_c, 9, 38, 61
1, 163200, Note_on_c, 9, 42, 75
1, 163439, Note_on_c, 9, 63, 0
1, 163439, Note_on_c, 9, 38, 0
1, 163439, Note_on_c, 9, 42, 0
1, 163455, Note_on_c, 9, 46, 56
1, 163499, Note_on_c, 9, 46, 0
1, 163560, Note_on_c, 9, 46, 70
1, 163679, Note_on_c, 9, 46, 0
1, 163680, Note_on_c, 9, 63, 58
1, 163680, Note_on_c, 9, 38, 62
1, 163680, Note_on_c, 9, 44, 69
1, 163680, Note_on_c, 9, 35, 84
1, 163919, Note_on_c, 9, 63, 0
1, 163919, Note_on_c, 9, 38, 0
1, 163935, Note_on_c, 9, 63, 49
1, 163935, Note_on_c, 9, 42, 62
1, 163979, Note_on_c, 9, 63, 0
1, 163979, Note_on_c, 9, 42, 0
1, 164055, Note_on_c, 9, 63, 36
1, 164055, Note_on_c, 9, 42, 52
1, 164099, Note_on_c, 9, 63, 0
1, 164099, Note_on_c, 9, 42, 0
1, 164159, Note_on_c, 9, 44, 0
1, 164159, Note_on_c, 9, 35, 0
1, 164160, Note_on_c, 9, 38, 56
1, 164174, Note_on_c, 9, 38, 0
1, 164175, Note_on_c, 9, 63, 62
1, 164175, Note_on_c, 9, 42, 72
1, 164399, Note_on_c, 9, 63, 0
1, 164399, Note_on_c, 9, 42, 0
1, 164430, Note_on_c, 9, 63, 49
1, 164430, Note_on_c, 9, 42, 62
1, 164519, Note_on_c, 9, 63, 0
1, 164519, Note_on_c, 9, 42, 0
1, 164550, Note_on_c, 9, 63, 29
1, 164550, Note_on_c, 9, 42, 47
1, 164550, Note_on_c, 9, 35, 31
1, 164639, Note_on_c, 9, 63, 0
1, 164639, Note_on_c, 9, 42, 0
1, 164639, Note_on_c, 9, 35, 0
1, 164685, Note_on_c, 9, 63, 80
1, 164685, Note_on_c, 9, 38, 47
1, 164685, Note_on_c, 9, 42, 85
1, 164685, Note_on_c, 9, 35, 75
1, 164879, Note_on_c, 9, 63, 0
1, 164879, Note_on_c, 9, 38, 0
1, 164879, Note_on_c, 9, 42, 0
1, 164879, Note_on_c, 9, 35, 0
1, 164880, Note_on_c, 9, 35, 78
1, 164910, Note_on_c, 9, 63, 57
1, 164910, Note_on_c, 9, 42, 68
1, 164999, Note_on_c, 9, 63, 0
1, 164999, Note_on_c, 9, 42, 0
1, 165000, Note_on_c, 9, 63, 16
1, 165000, Note_on_c, 9, 42, 37
1, 165119, Note_on_c, 9, 35, 0
1, 165119, Note_on_c, 9, 63, 0
1, 165119, Note_on_c, 9, 42, 0
1, 165120, Note_on_c, 9, 38, 52
1, 165134, Note_on_c, 9, 38, 0
1, 165135, Note_on_c, 9, 63, 77
1, 165135, Note_on_c, 9, 42, 83
1, 165359, Note_on_c, 9, 63, 0
1, 165359, Note_on_c, 9, 42, 0
1, 165360, Note_on_c, 9, 63, 60
1, 165360, Note_on_c, 9, 42, 70
1, 165479, Note_on_c, 9, 63, 0
1, 165479, Note_on_c, 9, 42, 0
1, 165480, Note_on_c, 9, 63, 46
1, 165480, Note_on_c, 9, 42, 60
1, 165480, Note_on_c, 9, 35, 44
1, 165599, Note_on_c, 9, 63, 0
1, 165599, Note_on_c, 9, 42, 0
1, 165599, Note_on_c, 9, 35, 0
1, 165600, Note_on_c, 9, 63, 80
1, 165600, Note_on_c, 9, 38, 47
1, 165600, Note_on_c, 9, 42, 85
1, 165600, Note_on_c, 9, 35, 68
1, 165839, Note_on_c, 9, 63, 0
1, 165839, Note_on_c, 9, 38, 0
1, 165839, Note_on_c, 9, 42, 0
1, 165839, Note_on_c, 9, 35, 0
1, 165840, Note_on_c, 9, 63, 48
1, 165840, Note_on_c, 9, 42, 61
1, 165855, Note_on_c, 9, 35, 68
1, 165959, Note_on_c, 9, 63, 0
1, 165959, Note_on_c, 9, 42, 0
1, 165960, Note_on_c, 9, 63, 19
1, 165960, Note_on_c, 9, 42, 40
1, 166079, Note_on_c, 9, 35, 0
1, 166079, Note_on_c, 9, 63, 0
1, 166079, Note_on_c, 9, 42, 0
1, 166095, Note_on_c, 9, 63, 73
1, 166095, Note_on_c, 9, 38, 64
1, 166095, Note_on_c, 9, 42, 80
1, 166319, Note_on_c, 9, 63, 0
1, 166319, Note_on_c, 9, 38, 0
1, 166319, Note_on_c, 9, 42, 0
1, 166350, Note_on_c, 9, 63, 62
1, 166350, Note_on_c, 9, 42, 72
1, 166439, Note_on_c, 9, 63, 0
1, 166439, Note_on_c, 9, 42, 0
1, 166485, Note_on_c, 9, 63, 39
1, 166485, Note_on_c, 9, 42, 55
1, 166485, Note_on_c, 9, 35, 60
1, 166499, Note_on_c, 9, 63, 0
1, 166499, Note_on_c, 9, 42, 0
1, 166499, Note_on_c, 9, 35, 0
1, 166605, Note_on_c, 9, 63, 63
1, 166605, Note_on_c, 9, 38, 50
1, 166605, Note_on_c, 9, 42, 73
1, 166605, Note_on_c, 9, 35, 79
1, 166799, Note_on_c, 9, 63, 0
1, 166799, Note_on_c, 9, 38, 0
1, 166799, Note_on_c, 9, 42, 0
1, 166799, Note_on_c, 9, 35, 0
1, 166830, Note_on_c, 9, 63, 58
1, 166830, Note_on_c, 9, 42, 69
1, 166830, Note_on_c, 9, 35, 70
1, 166919, Note_on_c, 9, 63, 0
1, 166919, Note_on_c, 9, 42, 0
1, 166919, Note_on_c, 9, 35, 0
1, 166920, Note_on_c, 9, 63, 39
1, 167039, Note_on_c, 9, 63, 0
1, 167040, Note_on_c, 9, 63, 67
1, 167040, Note_on_c, 9, 38, 61
1, 167040, Note_on_c, 9, 42, 75
1, 167280, Note_on_c, 9, 43, 58
1, 167309, Note_on_c, 9, 43, 0
1, 167310, Note_on_c, 9, 44, 75
1, 167399, Note_on_c, 9, 63, 0
1, 167399, Note_on_c, 9, 38, 0
1, 167399, Note_on_c, 9, 42, 0
1, 167399, Note_on_c, 9, 44, 0
1, 167430, Note_on_c, 9, 41, 21
1, 167444, Note_on_c, 9, 41, 0
1, 167445, Note_on_c, 9, 42, 17
1, 167459, Note_on_c, 9, 42, 0
1, 167520, Note_on_c, 9, 35, 67
1, 167550, Note_on_c, 9, 63, 73
1, 167550, Note_on_c, 9, 42, 62
1, 167639, Note_on_c, 9, 35, 0
1, 167639, Note_on_c, 9, 63, 0
1, 167639, Note_on_c, 9, 42, 0
1, 167670, Note_on_c, 9, 44, 20
1, 167759, Note_on_c, 9, 44, 0
1, 167775, Note_on_c, 9, 64, 48
1, 167775, Note_on_c, 9, 62, 57
1, 167775, Note_on_c, 9, 42, 62
1, 167819, Note_on_c, 9, 64, 0
1, 167819, Note_on_c, 9, 62, 0
1, 167819, Note_on_c, 9, 42, 0
1, 167895, Note_on_c, 9, 62, 50
1, 167895, Note_on_c, 9, 42, 48
1, 167939, Note_on_c, 9, 62, 0
1, 167939, Note_on_c, 9, 42, 0
1, 168000, Note_on_c, 9, 44, 83
1, 168015, Note_on_c, 9, 38, 79
1, 168015, Note_on_c, 9, 62, 96
1, 168074, Note_on_c, 9, 38, 0
1, 168239, Note_on_c, 9, 62, 0
1, 168240, Note_on_c, 9, 64, 48
1, 168240, Note_on_c, 9, 63, 49
1, 168240, Note_on_c, 9, 42, 62
1, 168359, Note_on_c, 9, 44, 0
1, 168359, Note_on_c, 9, 64, 0
1, 168359, Note_on_c, 9, 63, 0
1, 168359, Note_on_c, 9, 42, 0
1, 168360, Note_on_c, 9, 63, 30
1, 168360, Note_on_c, 9, 42, 48
1, 168360, Note_on_c, 9, 35, 27
1, 168479, Note_on_c, 9, 63, 0
1, 168479, Note_on_c, 9, 42, 0
1, 168479, Note_on_c, 9, 35, 0
1, 168480, Note_on_c, 9, 63, 73
1, 168480, Note_on_c, 9, 42, 80
1, 168480, Note_on_c, 9, 35, 70
1, 168599, Note_on_c, 9, 35, 0
1, 168600, Note_on_c, 9, 44, 20
1, 168719, Note_on_c, 9, 63, 0
1, 168719, Note_on_c, 9, 42, 0
1, 168719, Note_on_c, 9, 44, 0
1, 168720, Note_on_c, 9, 64, 48
1, 168720, Note_on_c, 9, 62, 57
1, 168720, Note_on_c, 9, 42, 61
1, 168720, Note_on_c, 9, 35, 62
1, 168839, Note_on_c, 9, 64, 0
1, 168839, Note_on_c, 9, 62, 0
1, 168839, Note_on_c, 9, 42, 0
1, 168840, Note_on_c, 9, 62, 50
1, 168854, Note_on_c, 9, 62, 0
1, 168855, Note_on_c, 9, 42, 57
1, 168899, Note_on_c, 9, 42, 0
1, 168959, Note_on_c, 9, 35, 0
1, 168960, Note_on_c, 9, 62, 96
1, 168974, Note_on_c, 9, 62, 0
1, 168975, Note_on_c, 9, 38, 79
1, 168975, Note_on_c, 9, 42, 85
1, 169034, Note_on_c, 9, 38, 0
1, 169199, Note_on_c, 9, 42, 0
1, 169200, Note_on_c, 9, 64, 46
1, 169200, Note_on_c, 9, 63, 57
1, 169200, Note_on_c, 9, 42, 68
1, 169319, Note_on_c, 9, 64, 0
1, 169319, Note_on_c, 9, 63, 0
1, 169319, Note_on_c, 9, 42, 0
1, 169320, Note_on_c, 9, 63, 52
1, 169339, Note_on_c, 9, 63, 0
1, 169340, Note_on_c, 9, 40, 25
1, 169379, Note_on_c, 9, 40, 0
1, 169440, Note_on_c, 9, 63, 77
1, 169440, Note_on_c, 9, 42, 83
1, 169440, Note_on_c, 9, 35, 67
1, 169559, Note_on_c, 9, 35, 0
1, 169575, Note_on_c, 9, 44, 23
1, 169619, Note_on_c, 9, 44, 0
1, 169679, Note_on_c, 9, 63, 0
1, 169679, Note_on_c, 9, 42, 0
1, 169695, Note_on_c, 9, 64, 46
1, 169695, Note_on_c, 9, 62, 55
1, 169695, Note_on_c, 9, 42, 60
1, 169739, Note_on_c, 9, 64, 0
1, 169739, Note_on_c, 9, 62, 0
1, 169739, Note_on_c, 9, 42, 0
1, 169815, Note_on_c, 9, 62, 34
1, 169829, Note_on_c, 9, 62, 0
1, 169830, Note_on_c, 9, 42, 47
1, 169919, Note_on_c, 9, 42, 0
1, 169935, Note_on_c, 9, 62, 86
1, 169949, Note_on_c, 9, 62, 0
1, 169950, Note_on_c, 9, 38, 75
1, 169950, Note_on_c, 9, 42, 79
1, 170009, Note_on_c, 9, 38, 0
1, 170039, Note_on_c, 9, 42, 0
1, 170175, Note_on_c, 9, 64, 53
1, 170175, Note_on_c, 9, 63, 52
1, 170175, Note_on_c, 9, 42, 64
1, 170219, Note_on_c, 9, 64, 0
1, 170219, Note_on_c, 9, 63, 0
1, 170219, Note_on_c, 9, 42, 0
1, 170280, Note_on_c, 9, 63, 31
1, 170280, Note_on_c, 9, 42, 49
1, 170280, Note_on_c, 9, 35, 24
1, 170399, Note_on_c, 9, 63, 0
1, 170399, Note_on_c, 9, 42, 0
1, 170399, Note_on_c, 9, 35, 0
1, 170400, Note_on_c, 9, 63, 81
1, 170400, Note_on_c, 9, 42, 86
1, 170400, Note_on_c, 9, 35, 66
1, 170519, Note_on_c, 9, 35, 0
1, 170535, Note_on_c, 9, 44, 20
1, 170579, Note_on_c, 9, 44, 0
1, 170639, Note_on_c, 9, 63, 0
1, 170639, Note_on_c, 9, 42, 0
1, 170640, Note_on_c, 9, 35, 66
1, 170655, Note_on_c, 9, 64, 53
1, 170655, Note_on_c, 9, 62, 63
1, 170655, Note_on_c, 9, 42, 66
1, 170699, Note_on_c, 9, 64, 0
1, 170699, Note_on_c, 9, 62, 0
1, 170699, Note_on_c, 9, 42, 0
1, 170775, Note_on_c, 9, 62, 46
1, 170775, Note_on_c, 9, 42, 55
1, 170819, Note_on_c, 9, 62, 0
1, 170819, Note_on_c, 9, 42, 0
1, 170879, Note_on_c, 9, 35, 0
1, 170895, Note_on_c, 9, 38, 75
1, 170895, Note_on_c, 9, 62, 90
1, 170895, Note_on_c, 9, 42, 82
1, 170954, Note_on_c, 9, 38, 0
1, 171119, Note_on_c, 9, 62, 0
1, 171119, Note_on_c, 9, 42, 0
1, 171120, Note_on_c, 9, 64, 53
1, 171120, Note_on_c, 9, 63, 50
1, 171120, Note_on_c, 9, 42, 63
1, 171239, Note_on_c, 9, 64, 0
1, 171239, Note_on_c, 9, 63, 0
1, 171239, Note_on_c, 9, 42, 0
1, 171270, Note_on_c, 9, 63, 19
1, 171270, Note_on_c, 9, 44, 40
1, 171270, Note_on_c, 9, 35, 17
1, 171329, Note_on_c, 9, 35, 0
1, 171359, Note_on_c, 9, 63, 0
1, 171359, Note_on_c, 9, 44, 0
1, 171390, Note_on_c, 9, 63, 67
1, 171390, Note_on_c, 9, 42, 75
1, 171400, Note_on_c, 9, 35, 75
1, 171479, Note_on_c, 9, 63, 0
1, 171479, Note_on_c, 9, 42, 0
1, 171479, Note_on_c, 9, 35, 0
1, 171520, Note_on_c, 9, 44, 20
1, 171599, Note_on_c, 9, 44, 0
1, 171600, Note_on_c, 9, 64, 53
1, 171600, Note_on_c, 9, 62, 63
1, 171600, Note_on_c, 9, 42, 66
1, 171719, Note_on_c, 9, 64, 0
1, 171719, Note_on_c, 9, 62, 0
1, 171719, Note_on_c, 9, 42, 0
1, 171720, Note_on_c, 9, 62, 58
1, 171720, Note_on_c, 9, 42, 62
1, 171839, Note_on_c, 9, 62, 0
1, 171839, Note_on_c, 9, 42, 0
1, 171855, Note_on_c, 9, 62, 96
1, 171869, Note_on_c, 9, 62, 0
1, 171870, Note_on_c, 9, 38, 70
1, 171870, Note_on_c, 9, 42, 85
1, 171929, Note_on_c, 9, 38, 0
1, 171959, Note_on_c, 9, 42, 0
1, 172080, Note_on_c, 9, 64, 55
1, 172080, Note_on_c, 9, 63, 33
1, 172080, Note_on_c, 9, 42, 50
1, 172199, Note_on_c, 9, 64, 0
1, 172199, Note_on_c, 9, 63, 0
1, 172199, Note_on_c, 9, 42, 0
1, 172200, Note_on_c, 9, 63, 17
1, 172200, Note_on_c, 9, 42, 30
1, 172200, Note_on_c, 9, 35, 22
1, 172319, Note_on_c, 9, 63, 0
1, 172319, Note_on_c, 9, 42, 0
1, 172319, Note_on_c, 9, 35, 0
1, 172320, Note_on_c, 9, 63, 53
1, 172320, Note_on_c, 9, 42, 89
1, 172360, Note_on_c, 9, 35, 72
1, 172439, Note_on_c, 9, 35, 0
1, 172480, Note_on_c, 9, 44, 35
1, 172559, Note_on_c, 9, 63, 0
1, 172559, Note_on_c, 9, 42, 0
1, 172559, Note_on_c, 9, 44, 0
1, 172560, Note_on_c, 9, 35, 66
1, 172590, Note_on_c, 9, 64, 55
1, 172590, Note_on_c, 9, 62, 66
1, 172590, Note_on_c, 9, 42, 67
1, 172679, Note_on_c, 9, 64, 0
1, 172679, Note_on_c, 9, 62, 0
1, 172679, Note_on_c, 9, 42, 0
1, 172710, Note_on_c, 9, 62, 48
1, 172724, Note_on_c, 9, 62, 0
1, 172725, Note_on_c, 9, 42, 56
1, 172739, Note_on_c, 9, 42, 0
1, 172799, Note_on_c, 9, 35, 0
1, 172830, Note_on_c, 9, 38, 69
1, 172830, Note_on_c, 9, 62, 92
1, 172830, Note_on_c, 9, 42, 83
1, 172889, Note_on_c, 9, 38, 0
1, 172919, Note_on_c, 9, 62, 0
1, 172919, Note_on_c, 9, 42, 0
1, 173100, Note_on_c, 9, 64, 57
1, 173100, Note_on_c, 9, 63, 60
1, 173100, Note_on_c, 9, 42, 70
1, 173219, Note_on_c, 9, 64, 0
1, 173219, Note_on_c, 9, 63, 0
1, 173219, Note_on_c, 9, 42, 0
1, 173220, Note_on_c, 9, 63, 36
1, 173220, Note_on_c, 9, 40, 19
1, 173279, Note_on_c, 9, 63, 0
1, 173279, Note_on_c, 9, 40, 0
1, 173340, Note_on_c, 9, 63, 88
1, 173340, Note_on_c, 9, 42, 91
1, 173340, Note_on_c, 9, 35, 68
1, 173399, Note_on_c, 9, 35, 0
1, 173445, Note_on_c, 9, 44, 20
1, 173519, Note_on_c, 9, 63, 0
1, 173519, Note_on_c, 9, 42, 0
1, 173519, Note_on_c, 9, 44, 0
1, 173550, Note_on_c, 9, 64, 57
1, 173550, Note_on_c, 9, 62, 68
1, 173550, Note_on_c, 9, 42, 68
1, 173639, Note_on_c, 9, 64, 0
1, 173639, Note_on_c, 9, 62, 0
1, 173639, Note_on_c, 9, 42, 0
1, 173655, Note_on_c, 9, 62, 66
1, 173655, Note_on_c, 9, 42, 67
1, 173699, Note_on_c, 9, 62, 0
1, 173699, Note_on_c, 9, 42, 0
1, 173760, Note_on_c, 9, 62, 90
1, 173774, Note_on_c, 9, 62, 0
1, 173775, Note_on_c, 9, 38, 66
1, 173775, Note_on_c, 9, 42, 82
1, 173999, Note_on_c, 9, 42, 0
1, 174014, Note_on_c, 9, 38, 0
1, 174015, Note_on_c, 9, 64, 63
1, 174015, Note_on_c, 9, 63, 58
1, 174015, Note_on_c, 9, 42, 69
1, 174059, Note_on_c, 9, 64, 0
1, 174059, Note_on_c, 9, 63, 0
1, 174059, Note_on_c, 9, 42, 0
1, 174120, Note_on_c, 9, 63, 50
1, 174120, Note_on_c, 9, 42, 63
1, 174120, Note_on_c, 9, 35, 58
1, 174239, Note_on_c, 9, 63, 0
1, 174239, Note_on_c, 9, 42, 0
1, 174239, Note_on_c, 9, 35, 0
1, 174240, Note_on_c, 9, 35, 68
1, 174270, Note_on_c, 9, 63, 66
1, 174270, Note_on_c, 9, 42, 74
1, 174359, Note_on_c, 9, 35, 0
1, 174359, Note_on_c, 9, 63, 0
1, 174359, Note_on_c, 9, 42, 0
1, 174390, Note_on_c, 9, 44, 20
1, 174479, Note_on_c, 9, 44, 0
1, 174480, Note_on_c, 9, 64, 63
1, 174480, Note_on_c, 9, 62, 75
1, 174480, Note_on_c, 9, 42, 73
1, 174480, Note_on_c, 9, 35, 64
1, 174599, Note_on_c, 9, 64, 0
1, 174599, Note_on_c, 9, 62, 0
1, 174599, Note_on_c, 9, 42, 0
1, 174615, Note_on_c, 9, 62, 52
1, 174629, Note_on_c, 9, 62, 0
1, 174630, Note_on_c, 9, 42, 58
1, 174719, Note_on_c, 9, 35, 0
1, 174719, Note_on_c, 9, 42, 0
1, 174735, Note_on_c, 9, 62, 66
1, 174749, Note_on_c, 9, 62, 0
1, 174750, Note_on_c, 9, 38, 67
1, 174750, Note_on_c, 9, 42, 67
1, 174839, Note_on_c, 9, 42, 0
1, 174869, Note_on_c, 9, 38, 0
1, 174870, Note_on_c, 9, 42, 29
1, 174959, Note_on_c, 9, 42, 0
1, 174990, Note_on_c, 9, 64, 55
1, 174990, Note_on_c, 9, 63, 53
1, 174990, Note_on_c, 9, 44, 38
1, 175079, Note_on_c, 9, 64, 0
1, 175079, Note_on_c, 9, 63, 0
1, 175079, Note_on_c, 9, 44, 0
1, 175080, Note_on_c, 9, 63, 66
1, 175095, Note_on_c, 9, 35, 15
1, 175139, Note_on_c, 9, 35, 0
1, 175199, Note_on_c, 9, 63, 0
1, 175200, Note_on_c, 9, 35, 67
1, 175230, Note_on_c, 9, 63, 66
1, 175230, Note_on_c, 9, 42, 74
1, 175319, Note_on_c, 9, 35, 0
1, 175319, Note_on_c, 9, 63, 0
1, 175319, Note_on_c, 9, 42, 0
1, 175350, Note_on_c, 9, 44, 20
1, 175439, Note_on_c, 9, 44, 0
1, 175470, Note_on_c, 9, 64, 55
1, 175470, Note_on_c, 9, 62, 66
1, 175470, Note_on_c, 9, 42, 67
1, 175559, Note_on_c, 9, 64, 0
1, 175559, Note_on_c, 9, 62, 0
1, 175559, Note_on_c, 9, 42, 0
1, 175560, Note_on_c, 9, 62, 66
1, 175560, Note_on_c, 9, 42, 67
1, 175679, Note_on_c, 9, 62, 0
1, 175679, Note_on_c, 9, 42, 0
1, 175680, Note_on_c, 9, 38, 79
1, 175680, Note_on_c, 9, 62, 101
1, 175680, Note_on_c, 9, 42, 89
1, 175919, Note_on_c, 9, 38, 0
1, 175919, Note_on_c, 9, 62, 0
1, 175919, Note_on_c, 9, 42, 0
1, 175935, Note_on_c, 9, 64, 29
1, 175935, Note_on_c, 9, 63, 49
1, 175935, Note_on_c, 9, 42, 62
1, 175979, Note_on_c, 9, 64, 0
1, 175979, Note_on_c, 9, 63, 0
1, 175979, Note_on_c, 9, 42, 0
1, 176040, Note_on_c, 9, 63, 52
1, 176040, Note_on_c, 9, 42, 64
1, 176040, Note_on_c, 9, 35, 27
1, 176159, Note_on_c, 9, 63, 0
1, 176159, Note_on_c, 9, 42, 0
1, 176159, Note_on_c, 9, 35, 0
1, 176160, Note_on_c, 9, 63, 77
1, 176160, Note_on_c, 9, 42, 83
1, 176160, Note_on_c, 9, 35, 70
1, 176279, Note_on_c, 9, 35, 0
1, 176280, Note_on_c, 9, 44, 20
1, 176399, Note_on_c, 9, 63, 0
1, 176399, Note_on_c, 9, 42, 0
1, 176399, Note_on_c, 9, 44, 0
1, 176400, Note_on_c, 9, 64, 29
1, 176400, Note_on_c, 9, 62, 34
1, 176400, Note_on_c, 9, 42, 47
1, 176400, Note_on_c, 9, 35, 62
1, 176519, Note_on_c, 9, 64, 0
1, 176519, Note_on_c, 9, 62, 0
1, 176519, Note_on_c, 9, 42, 0
1, 176520, Note_on_c, 9, 62, 69
1, 176534, Note_on_c, 9, 62, 0
1, 176535, Note_on_c, 9, 42, 69
1, 176579, Note_on_c, 9, 42, 0
1, 176639, Note_on_c, 9, 35, 0
1, 176640, Note_on_c, 9, 62, 108
1, 176654, Note_on_c, 9, 62, 0
1, 176655, Note_on_c, 9, 38, 79
1, 176655, Note_on_c, 9, 42, 93
1, 176760, Note_on_c, 9, 44, 26
1, 176879, Note_on_c, 9, 42, 0
1, 176894, Note_on_c, 9, 38, 0
1, 176895, Note_on_c, 9, 64, 48
1, 176895, Note_on_c, 9, 63, 30
1, 176895, Note_on_c, 9, 42, 48
1, 176939, Note_on_c, 9, 64, 0
1, 176939, Note_on_c, 9, 63, 0
1, 176939, Note_on_c, 9, 42, 0
1, 177030, Note_on_c, 9, 63, 49
1, 177030, Note_on_c, 9, 40, 25
1, 177089, Note_on_c, 9, 40, 0
1, 177119, Note_on_c, 9, 44, 0
1, 177119, Note_on_c, 9, 63, 0
1, 177120, Note_on_c, 9, 63, 73
1, 177120, Note_on_c, 9, 42, 62
1, 177120, Note_on_c, 9, 35, 67
1, 177239, Note_on_c, 9, 35, 0
1, 177270, Note_on_c, 9, 44, 20
1, 177359, Note_on_c, 9, 63, 0
1, 177359, Note_on_c, 9, 42, 0
1, 177359, Note_on_c, 9, 44, 0
1, 177375, Note_on_c, 9, 64, 48
1, 177375, Note_on_c, 9, 62, 57
1, 177375, Note_on_c, 9, 42, 62
1, 177419, Note_on_c, 9, 64, 0
1, 177419, Note_on_c, 9, 62, 0
1, 177419, Note_on_c, 9, 42, 0
1, 177495, Note_on_c, 9, 62, 62
1, 177495, Note_on_c, 9, 42, 48
1, 177539, Note_on_c, 9, 62, 0
1, 177539, Note_on_c, 9, 42, 0
1, 177620, Note_on_c, 9, 62, 105
1, 177630, Note_on_c, 9, 44, 83
1, 177639, Note_on_c, 9, 62, 0
1, 177640, Note_on_c, 9, 38, 75
1, 177719, Note_on_c, 9, 38, 0
1, 177840, Note_on_c, 9, 64, 62
1, 177840, Note_on_c, 9, 63, 46
1, 177840, Note_on_c, 9, 42, 62
1, 177959, Note_on_c, 9, 44, 0
1, 177959, Note_on_c, 9, 64, 0
1, 177959, Note_on_c, 9, 63, 0
1, 177959, Note_on_c, 9, 42, 0
1, 177960, Note_on_c, 9, 63, 50
1, 177960, Note_on_c, 9, 42, 48
1, 177960, Note_on_c, 9, 35, 24
1, 178079, Note_on_c, 9, 63, 0
1, 178079, Note_on_c, 9, 42, 0
1, 178079, Note_on_c, 9, 35, 0
1, 178080, Note_on_c, 9, 63, 77
1, 178080, Note_on_c, 9, 42, 80
1, 178080, Note_on_c, 9, 35, 66
1, 178199, Note_on_c, 9, 35, 0
1, 178200, Note_on_c, 9, 44, 20
1, 178319, Note_on_c, 9, 63, 0
1, 178319, Note_on_c, 9, 42, 0
1, 178319, Note_on_c, 9, 44, 0
1, 178320, Note_on_c, 9, 64, 62
1, 178320, Note_on_c, 9, 62, 74
1, 178320, Note_on_c, 9, 42, 61
1, 178320, Note_on_c, 9, 35, 66
1, 178439, Note_on_c, 9, 64, 0
1, 178439, Note_on_c, 9, 62, 0
1, 178439, Note_on_c, 9, 42, 0
1, 178440, Note_on_c, 9, 62, 58
1, 178454, Note_on_c, 9, 62, 0
1, 178455, Note_on_c, 9, 42, 57
1, 178499, Note_on_c, 9, 42, 0
1, 178559, Note_on_c, 9, 35, 0
1, 178560, Note_on_c, 9, 62, 72
1, 178574, Note_on_c, 9, 62, 0
1, 178575, Note_on_c, 9, 38, 75
1, 178575, Note_on_c, 9, 42, 85
1, 178799, Note_on_c, 9, 42, 0
1, 178814, Note_on_c, 9, 38, 0
1, 178815, Note_on_c, 9, 64, 49
1, 178815, Note_on_c, 9, 63, 55
1, 178815, Note_on_c, 9, 42, 68
1, 178859, Note_on_c, 9, 64, 0
1, 178859, Note_on_c, 9, 63, 0
1, 178859, Note_on_c, 9, 42, 0
1, 178920, Note_on_c, 9, 63, 33
1, 178920, Note_on_c, 9, 44, 26
1, 178920, Note_on_c, 9, 35, 17
1, 179039, Note_on_c, 9, 63, 0
1, 179039, Note_on_c, 9, 44, 0
1, 179039, Note_on_c, 9, 35, 0
1, 179040, Note_on_c, 9, 63, 58
1, 179040, Note_on_c, 9, 38, 62
1, 179040, Note_on_c, 9, 44, 69
1, 179040, Note_on_c, 9, 35, 84
1, 179279, Note_on_c, 9, 63, 0
1, 179279, Note_on_c, 9, 38, 0
1, 179295, Note_on_c, 9, 64, 49
1, 179295, Note_on_c, 9, 62, 58
1, 179295, Note_on_c, 9, 42, 62
1, 179339, Note_on_c, 9, 64, 0
1, 179339, Note_on_c, 9, 62, 0
1, 179339, Note_on_c, 9, 42, 0
1, 179400, Note_on_c, 9, 62, 42
1, 179400, Note_on_c, 9, 42, 52
1, 179519, Note_on_c, 9, 44, 0
1, 179519, Note_on_c, 9, 35, 0
1, 179519, Note_on_c, 9, 62, 0
1, 179519, Note_on_c, 9, 42, 0
1, 179520, Note_on_c, 9, 38, 56
1, 179520, Note_on_c, 9, 62, 74
1, 179534, Note_on_c, 9, 38, 0
1, 179534, Note_on_c, 9, 62, 0
1, 179535, Note_on_c, 9, 42, 72
1, 179759, Note_on_c, 9, 42, 0
1, 179790, Note_on_c, 9, 64, 57
1, 179790, Note_on_c, 9, 63, 49
1, 179790, Note_on_c, 9, 42, 62
1, 179879, Note_on_c, 9, 64, 0
1, 179879, Note_on_c, 9, 63, 0
1, 179879, Note_on_c, 9, 42, 0
1, 179910, Note_on_c, 9, 63, 29
1, 179910, Note_on_c, 9, 42, 47
1, 179910, Note_on_c, 9, 35, 31
1, 179999, Note_on_c, 9, 63, 0
1, 179999, Note_on_c, 9, 42, 0
1, 179999, Note_on_c, 9, 35, 0
1, 180045, Note_on_c, 9, 63, 80
1, 180045, Note_on_c, 9, 38, 47
1, 180045, Note_on_c, 9, 42, 85
1, 180045, Note_on_c, 9, 35, 75
1, 180239, Note_on_c, 9, 63, 0
1, 180239, Note_on_c, 9, 38, 0
1, 180239, Note_on_c, 9, 42, 0
1, 180239, Note_on_c, 9, 35, 0
1, 180270, Note_on_c, 9, 64, 57
1, 180270, Note_on_c, 9, 62, 68
1, 180270, Note_on_c, 9, 35, 78
1, 180284, Note_on_c, 9, 64, 0
1, 180284, Note_on_c, 9, 62, 0
1, 180285, Note_on_c, 9, 42, 68
1, 180299, Note_on_c, 9, 42, 0
1, 180359, Note_on_c, 9, 35, 0
1, 180390, Note_on_c, 9, 62, 18
1, 180390, Note_on_c, 9, 42, 37
1, 180479, Note_on_c, 9, 62, 0
1, 180479, Note_on_c, 9, 42, 0
1, 180480, Note_on_c, 9, 38, 52
1, 180480, Note_on_c, 9, 62, 92
1, 180480, Note_on_c, 9, 42, 83
1, 180719, Note_on_c, 9, 38, 0
1, 180719, Note_on_c, 9, 62, 0
1, 180719, Note_on_c, 9, 42, 0
1, 180750, Note_on_c, 9, 64, 48
1, 180750, Note_on_c, 9, 63, 60
1, 180750, Note_on_c, 9, 42, 70
1, 180839, Note_on_c, 9, 64, 0
1, 180839, Note_on_c, 9, 63, 0
1, 180839, Note_on_c, 9, 42, 0
1, 180885, Note_on_c, 9, 35, 44
1, 180899, Note_on_c, 9, 35, 0
1, 180900, Note_on_c, 9, 63, 46
1, 180900, Note_on_c, 9, 42, 60
1, 180959, Note_on_c, 9, 63, 0
1, 180959, Note_on_c, 9, 42, 0
1, 181005, Note_on_c, 9, 63, 80
1, 181005, Note_on_c, 9, 38, 47
1, 181005, Note_on_c, 9, 42, 85
1, 181005, Note_on_c, 9, 35, 68
1, 181199, Note_on_c, 9, 63, 0
1, 181199, Note_on_c, 9, 38, 0
1, 181199, Note_on_c, 9, 42, 0
1, 181199, Note_on_c, 9, 35, 0
1, 181230, Note_on_c, 9, 64, 48
1, 181230, Note_on_c, 9, 62, 57
1, 181230, Note_on_c, 9, 35, 68
1, 181244, Note_on_c, 9, 64, 0
1, 181244, Note_on_c, 9, 62, 0
1, 181245, Note_on_c, 9, 42, 61
1, 181259, Note_on_c, 9, 42, 0
1, 181319, Note_on_c, 9, 35, 0
1, 181320, Note_on_c, 9, 62, 22
1, 181320, Note_on_c, 9, 42, 40
1, 181439, Note_on_c, 9, 62, 0
1, 181439, Note_on_c, 9, 42, 0
1, 181440, Note_on_c, 9, 38, 64
1, 181440, Note_on_c, 9, 62, 88
1, 181440, Note_on_c, 9, 42, 80
1, 181679, Note_on_c, 9, 38, 0
1, 181679, Note_on_c, 9, 62, 0
1, 181679, Note_on_c, 9, 42, 0
1, 181710, Note_on_c, 9, 64, 58
1, 181710, Note_on_c, 9, 63, 62
1, 181710, Note_on_c, 9, 42, 72
1, 181799, Note_on_c, 9, 63, 0
1, 181799, Note_on_c, 9, 42, 0
1, 181844, Note_on_c, 9, 64, 0
1, 181845, Note_on_c, 9, 63, 39
1, 181845, Note_on_c, 9, 42, 55
1, 181845, Note_on_c, 9, 35, 60
1, 181859, Note_on_c, 9, 63, 0
1, 181859, Note_on_c, 9, 42, 0
1, 181859, Note_on_c, 9, 35, 0
1, 181965, Note_on_c, 9, 63, 63
1, 181965, Note_on_c, 9, 38, 50
1, 181965, Note_on_c, 9, 42, 73
1, 181965, Note_on_c, 9, 35, 79
1, 182159, Note_on_c, 9, 63, 0
1, 182159, Note_on_c, 9, 38, 0
1, 182159, Note_on_c, 9, 42, 0
1, 182159, Note_on_c, 9, 35, 0
1, 182160, Note_on_c, 9, 35, 70
1, 182175, Note_on_c, 9, 64, 58
1, 182175, Note_on_c, 9, 62, 69
1, 182175, Note_on_c, 9, 42, 69
1, 182219, Note_on_c, 9, 64, 0
1, 182219, Note_on_c, 9, 62, 0
1, 182219, Note_on_c, 9, 42, 0
1, 182295, Note_on_c, 9, 62, 46
1, 182339, Note_on_c, 9, 62, 0
1, 182399, Note_on_c, 9, 35, 0
1, 182400, Note_on_c, 9, 38, 61
1, 182400, Note_on_c, 9, 62, 80
1, 182400, Note_on_c, 9, 42, 75
1, 182639, Note_on_c, 9, 38, 0
1, 182639, Note_on_c, 9, 62, 0
1, 182639, Note_on_c, 9, 42, 0
1, 182655, Note_on_c, 9, 46, 56
1, 182699, Note_on_c, 9, 46, 0
1, 182790, Note_on_c, 9, 46, 70
1, 182879, Note_on_c, 9, 46, 0
1, 182880, Note_on_c, 9, 63, 73
1, 182880, Note_on_c, 9, 38, 62
1, 182880, Note_on_c, 9, 44, 69
1, 182880, Note_on_c, 9, 35, 84
1, 183119, Note_on_c, 9, 63, 0
1, 183119, Note_on_c, 9, 38, 0
1, 183135, Note_on_c, 9, 64, 48
1, 183135, Note_on_c, 9, 62, 57
1, 183135, Note_on_c, 9, 42, 62
1, 183179, Note_on_c, 9, 64, 0
1, 183179, Note_on_c, 9, 62, 0
1, 183179, Note_on_c, 9, 42, 0
1, 183255, Note_on_c, 9, 62, 50
1, 183255, Note_on_c, 9, 42, 52
1, 183299, Note_on_c, 9, 62, 0
1, 183299, Note_on_c, 9, 42, 0
1, 183359, Note_on_c, 9, 44, 0
1, 183359, Note_on_c, 9, 35, 0
1, 183375, Note_on_c, 9, 38, 56
1, 183375, Note_on_c, 9, 62, 96
1, 183375, Note_on_c, 9, 42, 72
1, 183599, Note_on_c, 9, 38, 0
1, 183599, Note_on_c, 9, 62, 0
1, 183599, Note_on_c, 9, 42, 0
1, 183630, Note_on_c, 9, 64, 48
1, 183630, Note_on_c, 9, 63, 49
1, 183630, Note_on_c, 9, 42, 62
1, 183764, Note_on_c, 9, 64, 0
1, 183764, Note_on_c, 9, 63, 0
1, 183764, Note_on_c, 9, 42, 0
1, 183765, Note_on_c, 9, 63, 30
1, 183765, Note_on_c, 9, 42, 47
1, 183765, Note_on_c, 9, 35, 31
1, 183779, Note_on_c, 9, 63, 0
1, 183779, Note_on_c, 9, 42, 0
1, 183779, Note_on_c, 9, 35, 0
1, 183885, Note_on_c, 9, 63, 73
1, 183885, Note_on_c, 9, 38, 47
1, 183885, Note_on_c, 9, 42, 85
1, 183885, Note_on_c, 9, 35, 75
1, 184079, Note_on_c, 9, 63, 0
1, 184079, Note_on_c, 9, 38, 0
1, 184079, Note_on_c, 9, 42, 0
1, 184079, Note_on_c, 9, 35, 0
1, 184080, Note_on_c, 9, 64, 48
1, 184080, Note_on_c, 9, 62, 57
1, 184080, Note_on_c, 9, 35, 78
1, 184110, Note_on_c, 9, 42, 68
1, 184199, Note_on_c, 9, 64, 0
1, 184199, Note_on_c, 9, 62, 0
1, 184199, Note_on_c, 9, 42, 0
1, 184215, Note_on_c, 9, 62, 50
1, 184215, Note_on_c, 9, 42, 37
1, 184259, Note_on_c, 9, 62, 0
1, 184259, Note_on_c, 9, 42, 0
1, 184319, Note_on_c, 9, 35, 0
1, 184320, Note_on_c, 9, 38, 52
1, 184320, Note_on_c, 9, 62, 96
1, 184334, Note_on_c, 9, 38, 0
1, 184334, Note_on_c, 9, 62, 0
1, 184335, Note_on_c, 9, 42, 83
1, 184559, Note_on_c, 9, 42, 0
1, 184560, Note_on_c, 9, 64, 46
1, 184560, Note_on_c, 9, 63, 57
1, 184560, Note_on_c, 9, 42, 70
1, 184679, Note_on_c, 9, 64, 0
1, 184679, Note_on_c, 9, 63, 0
1, 184679, Note_on_c, 9, 42, 0
1, 184680, Note_on_c, 9, 63, 52
1, 184680, Note_on_c, 9, 35, 44
1, 184699, Note_on_c, 9, 63, 0
1, 184700, Note_on_c, 9, 42, 60
1, 184739, Note_on_c, 9, 42, 0
1, 184799, Note_on_c, 9, 35, 0
1, 184800, Note_on_c, 9, 63, 77
1, 184800, Note_on_c, 9, 38, 47
1, 184800, Note_on_c, 9, 42, 85
1, 184800, Note_on_c, 9, 35, 68
1, 185039, Note_on_c, 9, 63, 0
1, 185039, Note_on_c, 9, 38, 0
1, 185039, Note_on_c, 9, 42, 0
1, 185039, Note_on_c, 9, 35, 0
1, 185040, Note_on_c, 9, 64, 46
1, 185040, Note_on_c, 9, 62, 55
1, 185040, Note_on_c, 9, 35, 68
1, 185054, Note_on_c, 9, 64, 0
1, 185054, Note_on_c, 9, 62, 0
1, 185055, Note_on_c, 9, 42, 61
1, 185099, Note_on_c, 9, 42, 0
1, 185160, Note_on_c, 9, 62, 34
1, 185174, Note_on_c, 9, 62, 0
1, 185175, Note_on_c, 9, 42, 40
1, 185219, Note_on_c, 9, 42, 0
1, 185279, Note_on_c, 9, 35, 0
1, 185280, Note_on_c, 9, 38, 64
1, 185280, Note_on_c, 9, 62, 86
1, 185294, Note_on_c, 9, 38, 0
1, 185294, Note_on_c, 9, 62, 0
1, 185295, Note_on_c, 9, 42, 80
1, 185519, Note_on_c, 9, 42, 0
1, 185535, Note_on_c, 9, 64, 53
1, 185535, Note_on_c, 9, 63, 52
1, 185535, Note_on_c, 9, 42, 72
1, 185579, Note_on_c, 9, 64, 0
1, 185579, Note_on_c, 9, 63, 0
1, 185579, Note_on_c, 9, 42, 0
1, 185640, Note_on_c, 9, 63, 31
1, 185640, Note_on_c, 9, 42, 55
1, 185640, Note_on_c, 9, 35, 60
1, 185759, Note_on_c, 9, 63, 0
1, 185759, Note_on_c, 9, 42, 0
1, 185759, Note_on_c, 9, 35, 0
1, 185790, Note_on_c, 9, 63, 81
1, 185790, Note_on_c, 9, 38, 50
1, 185790, Note_on_c, 9, 42, 73
1, 185790, Note_on_c, 9, 35, 79
1, 185879, Note_on_c, 9, 63, 0
1, 185879, Note_on_c, 9, 38, 0
1, 185879, Note_on_c, 9, 42, 0
1, 185879, Note_on_c, 9, 35, 0
1, 186015, Note_on_c, 9, 64, 53
1, 186015, Note_on_c, 9, 62, 63
1, 186015, Note_on_c, 9, 42, 69
1, 186015, Note_on_c, 9, 35, 70
1, 186059, Note_on_c, 9, 64, 0
1, 186059, Note_on_c, 9, 62, 0
1, 186059, Note_on_c, 9, 42, 0
1, 186120, Note_on_c, 9, 62, 46
1, 186239, Note_on_c, 9, 35, 0
1, 186239, Note_on_c, 9, 62, 0
1, 186240, Note_on_c, 9, 38, 61
1, 186240, Note_on_c, 9, 62, 90
1, 186240, Note_on_c, 9, 42, 75
1, 186450, Note_on_c, 9, 43, 58
1, 186479, Note_on_c, 9, 38, 0
1, 186479, Note_on_c, 9, 62, 0
1, 186479, Note_on_c, 9, 42, 0
1, 186480, Note_on_c, 9, 44, 75
1, 186495, Note_on_c, 9, 64, 53
1, 186495, Note_on_c, 9, 63, 50
1, 186539, Note_on_c, 9, 64, 0
1, 186539, Note_on_c, 9, 63, 0
1, 186615, Note_on_c, 9, 41, 21
1, 186615, Note_on_c, 9, 63, 19
1, 186615, Note_on_c, 9, 42, 17
1, 186659, Note_on_c, 9, 41, 0
1, 186659, Note_on_c, 9, 63, 0
1, 186659, Note_on_c, 9, 42, 0
1, 186719, Note_on_c, 9, 43, 0
1, 186719, Note_on_c, 9, 44, 0
1, 186720, Note_on_c, 9, 35, 67
1, 186735, Note_on_c, 9, 63, 73
1, 186735, Note_on_c, 9, 42, 62
1, 186839, Note_on_c, 9, 35, 0
1, 186870, Note_on_c, 9, 44, 20
1, 186959, Note_on_c, 9, 63, 0
1, 186959, Note_on_c, 9, 42, 0
1, 186959, Note_on_c, 9, 44, 0
1, 186975, Note_on_c, 9, 63, 48
1, 186975, Note_on_c, 9, 42, 62
1, 187019, Note_on_c, 9, 63, 0
1, 187019, Note_on_c, 9, 42, 0
1, 187095, Note_on_c, 9, 63, 42
1, 187095, Note_on_c, 9, 42, 48
1, 187139, Note_on_c, 9, 63, 0
1, 187139, Note_on_c, 9, 42, 0
1, 187200, Note_on_c, 9, 63, 80
1, 187200, Note_on_c, 9, 38, 79
1, 187200, Note_on_c, 9, 44, 83
1, 187439, Note_on_c, 9, 63, 0
1, 187439, Note_on_c, 9, 38, 0
1, 187440, Note_on_c, 9, 63, 49
1, 187440, Note_on_c, 9, 42, 62
1, 187559, Note_on_c, 9, 44, 0
1, 187559, Note_on_c, 9, 63, 0
1, 187559, Note_on_c, 9, 42, 0
1, 187560, Note_on_c, 9, 63, 30
1, 187560, Note_on_c, 9, 42, 48
1, 187560, Note_on_c, 9, 35, 27
1, 187679, Note_on_c, 9, 63, 0
1, 187679, Note_on_c, 9, 42, 0
1, 187679, Note_on_c, 9, 35, 0
1, 187680, Note_on_c, 9, 63, 73
1, 187680, Note_on_c, 9, 42, 80
1, 187680, Note_on_c, 9, 35, 70
1, 187799, Note_on_c, 9, 35, 0
1, 187800, Note_on_c, 9, 44, 20
1, 187919, Note_on_c, 9, 63, 0
1, 187919, Note_on_c, 9, 42, 0
1, 187919, Note_on_c, 9, 44, 0
1, 187920, Note_on_c, 9, 63, 48
1, 187920, Note_on_c, 9, 42, 61
1, 187920, Note_on_c, 9, 35, 62
1, 188039, Note_on_c, 9, 63, 0
1, 188039, Note_on_c, 9, 42, 0
1, 188040, Note_on_c, 9, 63, 42
1, 188040, Note_on_c, 9, 42, 57
1, 188159, Note_on_c, 9, 35, 0
1, 188159, Note_on_c, 9, 63, 0
1, 188159, Note_on_c, 9, 42, 0
1, 188160, Note_on_c, 9, 63, 80
1, 188160, Note_on_c, 9, 38, 79
1, 188160, Note_on_c, 9, 42, 85
1, 188399, Note_on_c, 9, 63, 0
1, 188399, Note_on_c, 9, 38, 0
1, 188399, Note_on_c, 9, 42, 0
1, 188400, Note_on_c, 9, 63, 57
1, 188400, Note_on_c, 9, 42, 68
1, 188489, Note_on_c, 9, 63, 0
1, 188489, Note_on_c, 9, 42, 0
1, 188490, Note_on_c, 9, 63, 52
1, 188520, Note_on_c, 9, 40, 25
1, 188639, Note_on_c, 9, 63, 0
1, 188639, Note_on_c, 9, 40, 0
1, 188640, Note_on_c, 9, 63, 77
1, 188640, Note_on_c, 9, 42, 83
1, 188640, Note_on_c, 9, 35, 67
1, 188759, Note_on_c, 9, 35, 0
1, 188775, Note_on_c, 9, 44, 23
1, 188819, Note_on_c, 9, 44, 0
1, 188879, Note_on_c, 9, 63, 0
1, 188879, Note_on_c, 9, 42, 0
1, 188880, Note_on_c, 9, 63, 46
1, 188880, Note_on_c, 9, 42, 60
1, 188999, Note_on_c, 9, 63, 0
1, 188999, Note_on_c, 9, 42, 0
1, 189030, Note_on_c, 9, 63, 29
1, 189030, Note_on_c, 9, 42, 47
1, 189119, Note_on_c, 9, 63, 0
1, 189119, Note_on_c, 9, 42, 0
1, 189150, Note_on_c, 9, 63, 72
1, 189150, Note_on_c, 9, 38, 75
1, 189150, Note_on_c, 9, 42, 79
1, 189209, Note_on_c, 9, 38, 0
1, 189239, Note_on_c, 9, 63, 0
1, 189239, Note_on_c, 9, 42, 0
1, 189360, Note_on_c, 9, 63, 52
1, 189360, Note_on_c, 9, 42, 64
1, 189479, Note_on_c, 9, 63, 0
1, 189479, Note_on_c, 9, 42, 0
1, 189480, Note_on_c, 9, 63, 31
1, 189480, Note_on_c, 9, 42, 49
1, 189480, Note_on_c, 9, 35, 24
1, 189599, Note_on_c, 9, 63, 0
1, 189599, Note_on_c, 9, 42, 0
1, 189599, Note_on_c, 9, 35, 0
1, 189600, Note_on_c, 9, 63, 81
1, 189600, Note_on_c, 9, 42, 86
1, 189600, Note_on_c, 9, 35, 66
1, 189719, Note_on_c, 9, 35, 0
1, 189735, Note_on_c, 9, 44, 20
1, 189779, Note_on_c, 9, 44, 0
1, 189839, Note_on_c, 9, 63, 0
1, 189839, Note_on_c, 9, 42, 0
1, 189840, Note_on_c, 9, 63, 53
1, 189840, Note_on_c, 9, 42, 66
1, 189840, Note_on_c, 9, 35, 66
1, 189959, Note_on_c, 9, 63, 0
1, 189959, Note_on_c, 9, 42, 0
1, 189960, Note_on_c, 9, 63, 39
1, 189960, Note_on_c, 9, 42, 55
1, 190079, Note_on_c, 9, 35, 0
1, 190079, Note_on_c, 9, 63, 0
1, 190079, Note_on_c, 9, 42, 0
1, 190080, Note_on_c, 9, 63, 75
1, 190080, Note_on_c, 9, 38, 75
1, 190080, Note_on_c, 9, 42, 82
1, 190319, Note_on_c, 9, 63, 0
1, 190319, Note_on_c, 9, 38, 0
1, 190319, Note_on_c, 9, 42, 0
1, 190320, Note_on_c, 9, 63, 50
1, 190320, Note_on_c, 9, 42, 63
1, 190439, Note_on_c, 9, 63, 0
1, 190439, Note_on_c, 9, 42, 0
1, 190470, Note_on_c, 9, 63, 19
1, 190470, Note_on_c, 9, 44, 40
1, 190470, Note_on_c, 9, 35, 17
1, 190529, Note_on_c, 9, 35, 0
1, 190559, Note_on_c, 9, 63, 0
1, 190559, Note_on_c, 9, 44, 0
1, 190590, Note_on_c, 9, 63, 67
1, 190590, Note_on_c, 9, 42, 75
1, 190600, Note_on_c, 9, 35, 75
1, 190679, Note_on_c, 9, 63, 0
1, 190679, Note_on_c, 9, 42, 0
1, 190679, Note_on_c, 9, 35, 0
1, 190720, Note_on_c, 9, 44, 20
1, 190799, Note_on_c, 9, 44, 0
1, 190830, Note_on_c, 9, 63, 53
1, 190830, Note_on_c, 9, 42, 66
1, 190919, Note_on_c, 9, 63, 0
1, 190919, Note_on_c, 9, 42, 0
1, 190950, Note_on_c, 9, 63, 49
1, 190950, Note_on_c, 9, 42, 62
1, 191039, Note_on_c, 9, 63, 0
1, 191039, Note_on_c, 9, 42, 0
1, 191070, Note_on_c, 9, 63, 80
1, 191070, Note_on_c, 9, 38, 70
1, 191070, Note_on_c, 9, 42, 85
1, 191129, Note_on_c, 9, 38, 0
1, 191159, Note_on_c, 9, 63, 0
1, 191159, Note_on_c, 9, 42, 0
1, 191280, Note_on_c, 9, 63, 33
1, 191280, Note_on_c, 9, 42, 50
1, 191399, Note_on_c, 9, 63, 0
1, 191399, Note_on_c, 9, 42, 0
1, 191400, Note_on_c, 9, 63, 17
1, 191400, Note_on_c, 9, 42, 30
1, 191400, Note_on_c, 9, 35, 22
1, 191519, Note_on_c, 9, 63, 0
1, 191519, Note_on_c, 9, 42, 0
1, 191519, Note_on_c, 9, 35, 0
1, 191520, Note_on_c, 9, 63, 53
1, 191520, Note_on_c, 9, 42, 89
1, 191560, Note_on_c, 9, 35, 72
1, 191639, Note_on_c, 9, 35, 0
1, 191680, Note_on_c, 9, 44, 35
1, 191759, Note_on_c, 9, 63, 0
1, 191759, Note_on_c, 9, 42, 0
1, 191759, Note_on_c, 9, 44, 0
1, 191760, Note_on_c, 9, 35, 66
1, 191790, Note_on_c, 9, 63, 55
1, 191790, Note_on_c, 9, 42, 67
1, 191879, Note_on_c, 9, 63, 0
1, 191879, Note_on_c, 9, 42, 0
1, 191925, Note_on_c, 9, 63, 40
1, 191925, Note_on_c, 9, 42, 56
1, 191939, Note_on_c, 9, 63, 0
1, 191939, Note_on_c, 9, 42, 0
1, 191999, Note_on_c, 9, 35, 0
1, 192000, Note_on_c, 9, 63, 77
1, 192000, Note_on_c, 9, 38, 69
1, 192000, Note_on_c, 9, 42, 83
1, 192239, Note_on_c, 9, 63, 0
1, 192239, Note_on_c, 9, 38, 0
1, 192239, Note_on_c, 9, 42, 0
1, 192330, Note_on_c, 9, 63, 60
1, 192330, Note_on_c, 9, 42, 70
1, 192359, Note_on_c, 9, 63, 0
1, 192359, Note_on_c, 9, 42, 0
1, 192480, Note_on_c, 9, 63, 36
1, 192480, Note_on_c, 9, 40, 19
1, 192599, Note_on_c, 9, 63, 0
1, 192599, Note_on_c, 9, 40, 0
1, 192600, Note_on_c, 9, 63, 88
1, 192600, Note_on_c, 9, 42, 91
1, 192600, Note_on_c, 9, 35, 68
1, 192719, Note_on_c, 9, 35, 0
1, 192720, Note_on_c, 9, 44, 20
1, 192839, Note_on_c, 9, 63, 0
1, 192839, Note_on_c, 9, 42, 0
1, 192840, Note_on_c, 9, 63, 57
1, 192840, Note_on_c, 9, 42, 68
1, 192959, Note_on_c, 9, 44, 0
1, 192959, Note_on_c, 9, 63, 0
1, 192959, Note_on_c, 9, 42, 0
1, 192960, Note_on_c, 9, 63, 55
1, 192960, Note_on_c, 9, 42, 67
1, 193079, Note_on_c, 9, 63, 0
1, 193079, Note_on_c, 9, 42, 0
1, 193110, Note_on_c, 9, 63, 75
1, 193110, Note_on_c, 9, 38, 66
1, 193110, Note_on_c, 9, 42, 82
1, 193169, Note_on_c, 9, 38, 0
1, 193379, Note_on_c, 9, 63, 0
1, 193379, Note_on_c, 9, 42, 0
1, 193380, Note_on_c, 9, 63, 58
1, 193380, Note_on_c, 9, 42, 69
1, 193439, Note_on_c, 9, 63, 0
1, 193439, Note_on_c, 9, 42, 0
1, 193500, Note_on_c, 9, 63, 50
1, 193500, Note_on_c, 9, 42, 63
1, 193500, Note_on_c, 9, 35, 58
1, 193619, Note_on_c, 9, 63, 0
1, 193619, Note_on_c, 9, 42, 0
1, 193650, Note_on_c, 9, 63, 66
1, 193650, Note_on_c, 9, 42, 74
1, 193679, Note_on_c, 9, 35, 0
1, 193679, Note_on_c, 9, 63, 0
1, 193679, Note_on_c, 9, 42, 0
1, 193680, Note_on_c, 9, 35, 68
1, 193799, Note_on_c, 9, 35, 0
1, 193800, Note_on_c, 9, 44, 20
1, 193919, Note_on_c, 9, 44, 0
1, 193920, Note_on_c, 9, 63, 63
1, 193920, Note_on_c, 9, 42, 73
1, 193920, Note_on_c, 9, 35, 64
1, 194039, Note_on_c, 9, 63, 0
1, 194039, Note_on_c, 9, 42, 0
1, 194055, Note_on_c, 9, 63, 44
1, 194055, Note_on_c, 9, 42, 58
1, 194099, Note_on_c, 9, 63, 0
1, 194099, Note_on_c, 9, 42, 0
1, 194175, Note_on_c, 9, 63, 55
1, 194175, Note_on_c, 9, 38, 67
1, 194175, Note_on_c, 9, 42, 67
1, 194219, Note_on_c, 9, 63, 0
1, 194219, Note_on_c, 9, 38, 0
1, 194219, Note_on_c, 9, 42, 0
1, 194295, Note_on_c, 9, 42, 29
1, 194339, Note_on_c, 9, 42, 0
1, 194399, Note_on_c, 9, 35, 0
1, 194400, Note_on_c, 9, 63, 53
1, 194415, Note_on_c, 9, 44, 38
1, 194459, Note_on_c, 9, 44, 0
1, 194519, Note_on_c, 9, 63, 0
1, 194520, Note_on_c, 9, 63, 66
1, 194520, Note_on_c, 9, 35, 15
1, 194639, Note_on_c, 9, 63, 0
1, 194639, Note_on_c, 9, 35, 0
1, 194640, Note_on_c, 9, 63, 66
1, 194640, Note_on_c, 9, 42, 74
1, 194640, Note_on_c, 9, 35, 67
1, 194759, Note_on_c, 9, 35, 0
1, 194760, Note_on_c, 9, 44, 20
1, 194879, Note_on_c, 9, 63, 0
1, 194879, Note_on_c, 9, 42, 0
1, 194879, Note_on_c, 9, 44, 0
1, 194880, Note_on_c, 9, 63, 55
1, 194880, Note_on_c, 9, 42, 67
1, 194999, Note_on_c, 9, 63, 0
1, 194999, Note_on_c, 9, 42, 0
1, 195000, Note_on_c, 9, 63, 55
1, 195000, Note_on_c, 9, 42, 67
1, 195119, Note_on_c, 9, 63, 0
1, 195119, Note_on_c, 9, 42, 0
1, 195120, Note_on_c, 9, 63, 84
1, 195120, Note_on_c, 9, 38, 79
1, 195120, Note_on_c, 9, 42, 89
1, 195359, Note_on_c, 9, 63, 0
1, 195359, Note_on_c, 9, 38, 0
1, 195359, Note_on_c, 9, 42, 0
1, 195360, Note_on_c, 9, 63, 49
1, 195360, Note_on_c, 9, 42, 62
1, 195479, Note_on_c, 9, 63, 0
1, 195479, Note_on_c, 9, 42, 0
1, 195480, Note_on_c, 9, 63, 52
1, 195480, Note_on_c, 9, 42, 64
1, 195480, Note_on_c, 9, 35, 27
1, 195599, Note_on_c, 9, 63, 0
1, 195599, Note_on_c, 9, 42, 0
1, 195599, Note_on_c, 9, 35, 0
1, 195600, Note_on_c, 9, 63, 77
1, 195600, Note_on_c, 9, 42, 83
1, 195600, Note_on_c, 9, 35, 70
1, 195719, Note_on_c, 9, 35, 0
1, 195735, Note_on_c, 9, 44, 20
1, 195779, Note_on_c, 9, 44, 0
1, 195839, Note_on_c, 9, 63, 0
1, 195839, Note_on_c, 9, 42, 0
1, 195840, Note_on_c, 9, 63, 29
1, 195840, Note_on_c, 9, 42, 47
1, 195840, Note_on_c, 9, 35, 62
1, 195959, Note_on_c, 9, 63, 0
1, 195959, Note_on_c, 9, 42, 0
1, 195975, Note_on_c, 9, 63, 58
1, 195975, Note_on_c, 9, 42, 69
1, 196019, Note_on_c, 9, 63, 0
1, 196019, Note_on_c, 9, 42, 0
1, 196095, Note_on_c, 9, 63, 90
1, 196095, Note_on_c, 9, 38, 79
1, 196095, Note_on_c, 9, 42, 93
1, 196154, Note_on_c, 9, 38, 0
1, 196199, Note_on_c, 9, 35, 0
1, 196200, Note_on_c, 9, 44, 26
1, 196319, Note_on_c, 9, 63, 0
1, 196319, Note_on_c, 9, 42, 0
1, 196319, Note_on_c, 9, 44, 0
1, 196320, Note_on_c, 9, 63, 30
1, 196320, Note_on_c, 9, 42, 48
1, 196439, Note_on_c, 9, 63, 0
1, 196439, Note_on_c, 9, 42, 0
1, 196440, Note_on_c, 9, 63, 49
1, 196440, Note_on_c, 9, 40, 25
1, 196559, Note_on_c, 9, 63, 0
1, 196559, Note_on_c, 9, 40, 0
1, 196560, Note_on_c, 9, 35, 67
1, 196575, Note_on_c, 9, 63, 73
1, 196575, Note_on_c, 9, 42, 62
1, 196679, Note_on_c, 9, 35, 0
1, 196710, Note_on_c, 9, 44, 20
1, 196799, Note_on_c, 9, 63, 0
1, 196799, Note_on_c, 9, 42, 0
1, 196799, Note_on_c, 9, 44, 0
1, 196800, Note_on_c, 9, 63, 48
1, 196800, Note_on_c, 9, 42, 62
1, 196919, Note_on_c, 9, 63, 0
1, 196919, Note_on_c, 9, 42, 0
1, 196935, Note_on_c, 9, 42, 48
1, 196949, Note_on_c, 9, 42, 0
1, 196950, Note_on_c, 9, 63, 52
1, 197039, Note_on_c, 9, 63, 0
1, 197040, Note_on_c, 9, 63, 88
1, 197040, Note_on_c, 9, 38, 75
1, 197040, Note_on_c, 9, 44, 83
1, 197279, Note_on_c, 9, 63, 0
1, 197279, Note_on_c, 9, 38, 0
1, 197279, Note_on_c, 9, 44, 0
1, 197280, Note_on_c, 9, 63, 46
1, 197280, Note_on_c, 9, 42, 62
1, 197399, Note_on_c, 9, 63, 0
1, 197399, Note_on_c, 9, 42, 0
1, 197400, Note_on_c, 9, 63, 50
1, 197400, Note_on_c, 9, 42, 48
1, 197400, Note_on_c, 9, 35, 24
1, 197519, Note_on_c, 9, 63, 0
1, 197519, Note_on_c, 9, 42, 0
1, 197519, Note_on_c, 9, 35, 0
1, 197520, Note_on_c, 9, 63, 77
1, 197520, Note_on_c, 9, 42, 80
1, 197520, Note_on_c, 9, 35, 66
1, 197639, Note_on_c, 9, 35, 0
1, 197640, Note_on_c, 9, 44, 20
1, 197759, Note_on_c, 9, 63, 0
1, 197759, Note_on_c, 9, 42, 0
1, 197759, Note_on_c, 9, 44, 0
1, 197760, Note_on_c, 9, 63, 62
1, 197760, Note_on_c, 9, 42, 61
1, 197760, Note_on_c, 9, 35, 66
1, 197879, Note_on_c, 9, 63, 0
1, 197879, Note_on_c, 9, 42, 0
1, 197880, Note_on_c, 9, 63, 49
1, 197880, Note_on_c, 9, 42, 57
1, 197999, Note_on_c, 9, 63, 0
1, 197999, Note_on_c, 9, 42, 0
1, 198030, Note_on_c, 9, 63, 60
1, 198030, Note_on_c, 9, 38, 75
1, 198030, Note_on_c, 9, 42, 85
1, 198089, Note_on_c, 9, 38, 0
1, 198119, Note_on_c, 9, 63, 0
1, 198119, Note_on_c, 9, 42, 0
1, 198239, Note_on_c, 9, 35, 0
1, 198270, Note_on_c, 9, 63, 55
1, 198270, Note_on_c, 9, 42, 68
1, 198359, Note_on_c, 9, 63, 0
1, 198359, Note_on_c, 9, 42, 0
1, 198360, Note_on_c, 9, 63, 33
1, 198375, Note_on_c, 9, 44, 26
1, 198375, Note_on_c, 9, 35, 17
1, 198419, Note_on_c, 9, 44, 0
1, 198434, Note_on_c, 9, 35, 0
1, 198479, Note_on_c, 9, 63, 0
1, 198480, Note_on_c, 9, 63, 58
1, 198480, Note_on_c, 9, 38, 62
1, 198480, Note_on_c, 9, 44, 69
1, 198480, Note_on_c, 9, 35, 84
1, 198719, Note_on_c, 9, 63, 0
1, 198719, Note_on_c, 9, 38, 0
1, 198719, Note_on_c, 9, 44, 0
1, 198719, Note_on_c, 9, 35, 0
1, 198720, Note_on_c, 9, 63, 48
1, 198720, Note_on_c, 9, 42, 62
1, 198839, Note_on_c, 9, 63, 0
1, 198839, Note_on_c, 9, 42, 0
1, 198840, Note_on_c, 9, 63, 48
1, 198840, Note_on_c, 9, 42, 52
1, 198959, Note_on_c, 9, 63, 0
1, 198959, Note_on_c, 9, 42, 0
1, 198960, Note_on_c, 9, 63, 46
1, 198960, Note_on_c, 9, 38, 42
1, 198960, Note_on_c, 9, 42, 64
1, 199199, Note_on_c, 9, 63, 0
1, 199199, Note_on_c, 9, 38, 0
1, 199199, Note_on_c, 9, 42, 0
1, 199200, Note_on_c, 9, 63, 45
1, 199200, Note_on_c, 9, 42, 63
1, 199319, Note_on_c, 9, 63, 0
1, 199319, Note_on_c, 9, 42, 0
1, 199320, Note_on_c, 9, 63, 45
1, 199320, Note_on_c, 9, 42, 62
1, 199320, Note_on_c, 9, 35, 31
1, 199439, Note_on_c, 9, 63, 0
1, 199439, Note_on_c, 9, 42, 0
1, 199439, Note_on_c, 9, 35, 0
1, 199440, Note_on_c, 9, 63, 45
1, 199440, Note_on_c, 9, 38, 40
1, 199440, Note_on_c, 9, 42, 61
1, 199440, Note_on_c, 9, 35, 75
1, 199679, Note_on_c, 9, 63, 0
1, 199679, Note_on_c, 9, 38, 0
1, 199679, Note_on_c, 9, 42, 0
1, 199679, Note_on_c, 9, 35, 0
1, 199680, Note_on_c, 9, 35, 68
1, 199695, Note_on_c, 9, 63, 44
1, 199695, Note_on_c, 9, 42, 59
1, 199739, Note_on_c, 9, 63, 0
1, 199739, Note_on_c, 9, 42, 0
1, 199815, Note_on_c, 9, 63, 42
1, 199815, Note_on_c, 9, 42, 59
1, 199859, Note_on_c, 9, 63, 0
1, 199859, Note_on_c, 9, 42, 0
1, 199920, Note_on_c, 9, 38, 38
1, 199934, Note_on_c, 9, 38, 0
1, 199935, Note_on_c, 9, 63, 42
1, 199935, Note_on_c, 9, 42, 58
1, 200159, Note_on_c, 9, 35, 0
1, 200159, Note_on_c, 9, 63, 0
1, 200159, Note_on_c, 9, 42, 0
1, 200160, Note_on_c, 9, 63, 40
1, 200160, Note_on_c, 9, 42, 56
1, 200279, Note_on_c, 9, 63, 0
1, 200279, Note_on_c, 9, 42, 0
1, 200280, Note_on_c, 9, 63, 39
1, 200280, Note_on_c, 9, 42, 56
1, 200280, Note_on_c, 9, 35, 62
1, 200399, Note_on_c, 9, 63, 0
1, 200399, Note_on_c, 9, 42, 0
1, 200399, Note_on_c, 9, 35, 0
1, 200415, Note_on_c, 9, 63, 39
1, 200415, Note_on_c, 9, 38, 36
1, 200415, Note_on_c, 9, 42, 55
1, 200415, Note_on_c, 9, 35, 62
1, 200639, Note_on_c, 9, 63, 0
1, 200639, Note_on_c, 9, 38, 0
1, 200639, Note_on_c, 9, 42, 0
1, 200639, Note_on_c, 9, 35, 0
1, 200640, Note_on_c, 9, 35, 60
1, 200670, Note_on_c, 9, 63, 37
1, 200670, Note_on_c, 9, 42, 52
1, 200759, Note_on_c, 9, 63, 0
1, 200759, Note_on_c, 9, 42, 0
1, 200820, Note_on_c, 9, 63, 37
1, 200820, Note_on_c, 9, 42, 51
1, 200879, Note_on_c, 9, 63, 0
1, 200879, Note_on_c, 9, 42, 0
1, 200940, Note_on_c, 9, 63, 36
1, 200940, Note_on_c, 9, 38, 34
1, 200940, Note_on_c, 9, 42, 51
1, 201119, Note_on_c, 9, 35, 0
1, 201119, Note_on_c, 9, 63, 0
1, 201119, Note_on_c, 9, 38, 0
1, 201119, Note_on_c, 9, 42, 0
1, 201180, Note_on_c, 9, 63, 34
1, 201180, Note_on_c, 9, 42, 49
1, 201239, Note_on_c, 9, 63, 0
1, 201239, Note_on_c, 9, 42, 0
1, 201270, Note_on_c, 9, 63, 34
1, 201270, Note_on_c, 9, 42, 48
1, 201270, Note_on_c, 9, 35, 31
1, 201359, Note_on_c, 9, 63, 0
1, 201359, Note_on_c, 9, 42, 0
1, 201359, Note_on_c, 9, 35, 0
1, 201375, Note_on_c, 9, 63, 34
1, 201375, Note_on_c, 9, 38, 30
1, 201375, Note_on_c, 9, 42, 48
1, 201375, Note_on_c, 9, 35, 53
1, 201539, Note_on_c, 9, 63, 0
1, 201539, Note_on_c, 9, 38, 0
1, 201539, Note_on_c, 9, 42, 0
1, 201539, Note_on_c, 9, 35, 0
1, 201570, Note_on_c, 9, 63, 33
1, 201570, Note_on_c, 9, 42, 46
1, 201570, Note_on_c, 9, 35, 50
1, 201599, Note_on_c, 9, 63, 0
1, 201599, Note_on_c, 9, 42, 0
1, 201599, Note_on_c, 9, 35, 0
1, 201690, Note_on_c, 9, 63, 31
1, 201809, Note_on_c, 9, 63, 0
1, 201810, Note_on_c, 9, 63, 31
1, 201810, Note_on_c, 9, 38, 28
1, 201810, Note_on_c, 9, 42, 44
1, 201839, Note_on_c, 9, 63, 0
1, 201839, Note_on_c, 9, 38, 0
1, 201839, Note_on_c, 9, 42, 0
1, 202080, Note_on_c, 9, 46, 42
1, 202199, Note_on_c, 9, 46, 0
1, 202215, Note_on_c, 9, 46, 41
1, 202259, Note_on_c, 9, 46, 0
1, 202320, Note_on_c, 9, 63, 29
1, 202320, Note_on_c, 9, 38, 26
1, 202320, Note_on_c, 9, 44, 40
1, 202320, Note_on_c, 9, 35, 44
1, 202559, Note_on_c, 9, 63, 0
1, 202559, Note_on_c, 9, 38, 0
1, 202559, Note_on_c, 9, 44, 0
1, 202559, Note_on_c, 9, 35, 0
1, 202560, Note_on_c, 9, 63, 28
1, 202560, Note_on_c, 9, 42, 39
1, 202679, Note_on_c, 9, 63, 0
1, 202679, Note_on_c, 9, 42, 0
1, 202680, Note_on_c, 9, 63, 28
1, 202680, Note_on_c, 9, 42, 38
1, 202799, Note_on_c, 9, 63, 0
1, 202799, Note_on_c, 9, 42, 0
1, 202800, Note_on_c, 9, 63, 26
1, 202800, Note_on_c, 9, 38, 24
1, 202800, Note_on_c, 9, 42, 37
1, 203039, Note_on_c, 9, 63, 0
1, 203039, Note_on_c, 9, 38, 0
1, 203039, Note_on_c, 9, 42, 0
1, 203040, Note_on_c, 9, 63, 24
1, 203040, Note_on_c, 9, 42, 35
1, 203159, Note_on_c, 9, 63, 0
1, 203159, Note_on_c, 9, 42, 0
1, 203160, Note_on_c, 9, 63, 24
1, 203160, Note_on_c, 9, 42, 35
1, 203160, Note_on_c, 9, 35, 19
1, 203279, Note_on_c, 9, 63, 0
1, 203279, Note_on_c, 9, 42, 0
1, 203279, Note_on_c, 9, 35, 0
1, 203280, Note_on_c, 9, 63, 22
1, 203280, Note_on_c, 9, 38, 22
1, 203280, Note_on_c, 9, 42, 34
1, 203280, Note_on_c, 9, 35, 36
1, 203519, Note_on_c, 9, 63, 0
1, 203519, Note_on_c, 9, 38, 0
1, 203519, Note_on_c, 9, 42, 0
1, 203519, Note_on_c, 9, 35, 0
1, 203520, Note_on_c, 9, 35, 33
1, 203535, Note_on_c, 9, 63, 22
1, 203535, Note_on_c, 9, 42, 31
1, 203579, Note_on_c, 9, 63, 0
1, 203579, Note_on_c, 9, 42, 0
1, 203655, Note_on_c, 9, 63, 20
1, 203655, Note_on_c, 9, 42, 30
1, 203699, Note_on_c, 9, 63, 0
1, 203699, Note_on_c, 9, 42, 0
1, 203760, Note_on_c, 9, 38, 18
1, 203774, Note_on_c, 9, 38, 0
1, 203775, Note_on_c, 9, 63, 20
1, 203775, Note_on_c, 9, 42, 30
1, 203999, Note_on_c, 9, 35, 0
1, 203999, Note_on_c, 9, 63, 0
1, 203999, Note_on_c, 9, 42, 0
1, 204000, Note_on_c, 9, 63, 19
1, 204000, Note_on_c, 9, 42, 28
1, 204119, Note_on_c, 9, 63, 0
1, 204119, Note_on_c, 9, 42, 0
1, 204150, Note_on_c, 9, 35, 28
1, 204165, Note_on_c, 9, 63, 18
1, 204165, Note_on_c, 9, 42, 27
1, 204179, Note_on_c, 9, 63, 0
1, 204179, Note_on_c, 9, 42, 0
1, 204239, Note_on_c, 9, 35, 0
1, 204300, Note_on_c, 9, 63, 18
1, 204300, Note_on_c, 9, 42, 27
1, 204300, Note_on_c, 9, 35, 27
1, 204479, Note_on_c, 9, 63, 0
1, 204479, Note_on_c, 9, 42, 0
1, 204479, Note_on_c, 9, 35, 0
1, 204570, Note_on_c, 9, 35, 25
1, 204585, Note_on_c, 9, 63, 17
1, 204585, Note_on_c, 9, 42, 25
1, 204599, Note_on_c, 9, 63, 0
1, 204599, Note_on_c, 9, 42, 0
1, 204720, Note_on_c, 9, 63, 17
1, 204720, Note_on_c, 9, 42, 24
1, 204839, Note_on_c, 9, 63, 0
1, 204839, Note_on_c, 9, 42, 0
1, 204840, Note_on_c, 9, 63, 16
1, 204840, Note_on_c, 9, 38, 25
1, 204840, Note_on_c, 9, 42, 23
1, 204959, Note_on_c, 9, 35, 0
1, 204959, Note_on_c, 9, 63, 0
1, 204959, Note_on_c, 9, 38, 0
1, 204959, Note_on_c, 9, 42, 0
1, 205080, Note_on_c, 9, 63, 15
1, 205080, Note_on_c, 9, 42, 22
1, 205199, Note_on_c, 9, 63, 0
1, 205199, Note_on_c, 9, 42, 0
1, 205215, Note_on_c, 9, 63, 15
1, 205215, Note_on_c, 9, 42, 20
1, 205215, Note_on_c, 9, 35, 19
1, 205259, Note_on_c, 9, 63, 0
1, 205259, Note_on_c, 9, 42, 0
1, 205259, Note_on_c, 9, 35, 0
1, 205335, Note_on_c, 9, 63, 14
1, 205335, Note_on_c, 9, 42, 19
1, 205335, Note_on_c, 9, 35, 18
1, 205379, Note_on_c, 9, 63, 0
1, 205379, Note_on_c, 9, 42, 0
1, 205379, Note_on_c, 9, 35, 0
1, 205470, Note_on_c, 9, 40, 18
1, 205559, Note_on_c, 9, 40, 0
1, 205560, Note_on_c, 9, 63, 14
1, 205560, Note_on_c, 9, 42, 18
1, 205560, Note_on_c, 9, 35, 16
1, 205679, Note_on_c, 9, 63, 0
1, 205679, Note_on_c, 9, 42, 0
1, 205710, Note_on_c, 9, 63, 9
1, 205799, Note_on_c, 9, 63, 0
1, 205830, Note_on_c, 9, 63, 9
1, 205830, Note_on_c, 9, 42, 16
1, 205859, Note_on_c, 9, 63, 0
1, 205859, Note_on_c, 9, 42, 0
1, 205860, Note_on_c, 9, 40, 15
1, 205919, Note_on_c, 9, 35, 0
1, 205919, Note_on_c, 9, 40, 0
1, 205920, Note_on_c, 9, 40, 14
1, 206070, Note_on_c, 9, 43, 29
1, 206099, Note_on_c, 9, 43, 0
1, 206100, Note_on_c, 9, 44, 14
1, 206159, Note_on_c, 9, 40, 0
1, 206159, Note_on_c, 9, 44, 0
1, 206220, Note_on_c, 9, 41, 13
1, 206220, Note_on_c, 9, 42, 14
1, 206339, Note_on_c, 9, 41, 0
1, 206339, Note_on_c, 9, 42, 0
1, 206355, Note_on_c, 9, 63, 7
1, 206355, Note_on_c, 9, 42, 13
1, 206399, Note_on_c, 9, 63, 0
1, 206399, Note_on_c, 9, 42, 0
1, 206400, Note_on_c, 9, 35, 9
1, 206519, Note_on_c, 9, 35, 0
1, 206520, Note_on_c, 9, 44, 12
1, 206610, Note_on_c, 9, 42, 11
1, 206624, Note_on_c, 9, 42, 0
1, 206625, Note_on_c, 9, 63, 6
1, 206729, Note_on_c, 9, 63, 0
1, 206745, Note_on_c, 9, 63, 6
1, 206745, Note_on_c, 9, 42, 11
1, 206759, Note_on_c, 9, 42, 0
1, 206879, Note_on_c, 9, 44, 0
1, 206879, Note_on_c, 9, 63, 0
1, 206880, Note_on_c, 9, 63, 5
1, 206880, Note_on_c, 9, 44, 9
1, 207119, Note_on_c, 9, 63, 0
1, 207120, Note_on_c, 9, 63, 4
1, 207120, Note_on_c, 9, 42, 7
1, 207239, Note_on_c, 9, 44, 0
1, 207239, Note_on_c, 9, 63, 0
1, 207239, Note_on_c, 9, 42, 0
1, 207240, Note_on_c, 9, 63, 4
1, 207240, Note_on_c, 9, 42, 6
1, 207240, Note_on_c, 9, 35, 2
1, 207359, Note_on_c, 9, 63, 0
1, 207359, Note_on_c, 9, 42, 0
1, 207359, Note_on_c, 9, 35, 0
1, 207360, Note_on_c, 9, 63, 3
1, 207360, Note_on_c, 9, 42, 6
1, 207360, Note_on_c, 9, 35, 64
1, 207479, Note_on_c, 9, 35, 0
1, 207480, Note_on_c, 9, 44, 5
1, 207599, Note_on_c, 9, 63, 0
1, 207599, Note_on_c, 9, 42, 0
1, 207599, Note_on_c, 9, 44, 0
1, 207600, Note_on_c, 9, 63, 3
1, 207600, Note_on_c, 9, 42, 4
1, 207600, Note_on_c, 9, 35, 64
1, 207719, Note_on_c, 9, 63, 0
1, 207719, Note_on_c, 9, 42, 0
1, 207720, Note_on_c, 9, 63, 2
1, 207720, Note_on_c, 9, 42, 3
1, 207839, Note_on_c, 9, 35, 0
1, 207839, Note_on_c, 9, 63, 0
1, 207839, Note_on_c, 9, 42, 0
1, 207840, Note_on_c, 9, 63, 2
1, 207840, Note_on_c, 9, 42, 2
1, 208064, Note_on_c, 9, 63, 0
1, 208064, Note_on_c, 9, 42, 0
1, 208065, Note_on_c, 9, 63, 1
1, 208065, Note_on_c, 9, 42, 1
1, 208169, Note_on_c, 9, 63, 0
1, 208169, Note_on_c, 9, 42, 0
1, 208170, Note_on_c, 9, 63, 64
1, 208199, Note_on_c, 9, 63, 0
1, 208200, End_track
0, 0, End_of_file
