0, 0, Header, 1, 1, 480
1, 0, Start_track
1, 0, Time_signature, 4, 2, 24, 8
1, 0, Key_signature, 0, "major"
1, 0, Tempo, 530973
1, 0, Control_c, 9, 121, 0
1, 0, Program_c, 9, 0
1, 0, Control_c, 9, 7, 105
1, 0, Control_c, 9, 10, 64
1, 0, Control_c, 9, 91, 0
1, 0, Control_c, 9, 93, 0
1, 0, MIDI_port, 0
1, 34560, Note_on_c, 9, 57, 68
1, 34560, Note_on_c, 9, 35, 94
1, 34799, Note_on_c, 9, 57, 0
1, 34800, Note_on_c, 9, 42, 50
1, 35039, Note_on_c, 9, 35, 0
1, 35039, Note_on_c, 9, 42, 0
1, 35040, Note_on_c, 9, 40, 81
1, 35040, Note_on_c, 9, 42, 66
1, 35279, Note_on_c, 9, 40, 0
1, 35279, Note_on_c, 9, 42, 0
1, 35280, Note_on_c, 9, 42, 53
1, 35280, Note_on_c, 9, 35, 93
1, 35519, Note_on_c, 9, 42, 0
1, 35519, Note_on_c, 9, 35, 0
1, 35520, Note_on_c, 9, 42, 71
1, 35520, Note_on_c, 9, 35, 96
1, 35759, Note_on_c, 9, 42, 0
1, 35760, Note_on_c, 9, 42, 52
1, 35999, Note_on_c, 9, 35, 0
1, 35999, Note_on_c, 9, 42, 0
1, 36000, Note_on_c, 9, 40, 105
1, 36000, Note_on_c, 9, 42, 75
1, 36239, Note_on_c, 9, 40, 0
1, 36239, Note_on_c, 9, 42, 0
1, 36240, Note_on_c, 9, 42, 47
1, 36240, Note_on_c, 9, 35, 87
1, 36479, Note_on_c, 9, 42, 0
1, 36479, Note_on_c, 9, 35, 0
1, 36480, Note_on_c, 9, 42, 69
1, 36480, Note_on_c, 9, 35, 95
1, 36719, Note_on_c, 9, 42, 0
1, 36720, Note_on_c, 9, 42, 39
1, 36959, Note_on_c, 9, 35, 0
1, 36959, Note_on_c, 9, 42, 0
1, 36960, Note_on_c, 9, 40, 103
1, 36960, Note_on_c, 9, 42, 71
1, 37199, Note_on_c, 9, 40, 0
1, 37199, Note_on_c, 9, 42, 0
1, 37200, Note_on_c, 9, 42, 47
1, 37200, Note_on_c, 9, 35, 90
1, 37439, Note_on_c, 9, 42, 0
1, 37439, Note_on_c, 9, 35, 0
1, 37440, Note_on_c, 9, 42, 69
1, 37440, Note_on_c, 9, 35, 96
1, 37679, Note_on_c, 9, 42, 0
1, 37680, Note_on_c, 9, 42, 45
1, 37919, Note_on_c, 9, 35, 0
1, 37919, Note_on_c, 9, 42, 0
1, 37920, Note_on_c, 9, 40, 97
1, 37920, Note_on_c, 9, 42, 75
1, 38159, Note_on_c, 9, 40, 0
1, 38159, Note_on_c, 9, 42, 0
1, 38160, Note_on_c, 9, 42, 49
1, 38160, Note_on_c, 9, 35, 92
1, 38399, Note_on_c, 9, 42, 0
1, 38399, Note_on_c, 9, 35, 0
1, 38400, Note_on_c, 9, 42, 66
1, 38400, Note_on_c, 9, 35, 97
1, 38639, Note_on_c, 9, 42, 0
1, 38640, Note_on_c, 9, 42, 43
1, 38879, Note_on_c, 9, 35, 0
1, 38879, Note_on_c, 9, 42, 0
1, 38880, Note_on_c, 9, 40, 91
1, 38880, Note_on_c, 9, 42, 66
1, 39119, Note_on_c, 9, 40, 0
1, 39119, Note_on_c, 9, 42, 0
1, 39120, Note_on_c, 9, 42, 43
1, 39120, Note_on_c, 9, 35, 90
1, 39359, Note_on_c, 9, 42, 0
1, 39359, Note_on_c, 9, 35, 0
1, 39360, Note_on_c, 9, 42, 64
1, 39360, Note_on_c, 9, 35, 97
1, 39599, Note_on_c, 9, 42, 0
1, 39600, Note_on_c, 9, 42, 46
1, 39839, Note_on_c, 9, 35, 0
1, 39839, Note_on_c, 9, 42, 0
1, 39840, Note_on_c, 9, 40, 95
1, 39840, Note_on_c, 9, 42, 67
1, 40079, Note_on_c, 9, 40, 0
1, 40079, Note_on_c, 9, 42, 0
1, 40080, Note_on_c, 9, 42, 49
1, 40080, Note_on_c, 9, 35, 91
1, 40319, Note_on_c, 9, 42, 0
1, 40319, Note_on_c, 9, 35, 0
1, 40320, Note_on_c, 9, 42, 63
1, 40320, Note_on_c, 9, 35, 100
1, 40559, Note_on_c, 9, 42, 0
1, 40560, Note_on_c, 9, 42, 47
1, 40799, Note_on_c, 9, 35, 0
1, 40799, Note_on_c, 9, 42, 0
1, 40800, Note_on_c, 9, 40, 94
1, 40800, Note_on_c, 9, 42, 64
1, 41039, Note_on_c, 9, 40, 0
1, 41039, Note_on_c, 9, 42, 0
1, 41040, Note_on_c, 9, 42, 48
1, 41040, Note_on_c, 9, 35, 93
1, 41279, Note_on_c, 9, 42, 0
1, 41279, Note_on_c, 9, 35, 0
1, 41280, Note_on_c, 9, 42, 60
1, 41280, Note_on_c, 9, 35, 99
1, 41519, Note_on_c, 9, 42, 0
1, 41520, Note_on_c, 9, 42, 52
1, 41759, Note_on_c, 9, 35, 0
1, 41759, Note_on_c, 9, 42, 0
1, 41760, Note_on_c, 9, 40, 85
1, 41760, Note_on_c, 9, 42, 77
1, 41999, Note_on_c, 9, 40, 0
1, 41999, Note_on_c, 9, 42, 0
1, 42000, Note_on_c, 9, 42, 46
1, 42000, Note_on_c, 9, 35, 92
1, 42239, Note_on_c, 9, 42, 0
1, 42239, Note_on_c, 9, 35, 0
1, 42240, Note_on_c, 9, 42, 67
1, 42240, Note_on_c, 9, 35, 98
1, 42479, Note_on_c, 9, 42, 0
1, 42480, Note_on_c, 9, 42, 45
1, 42719, Note_on_c, 9, 35, 0
1, 42719, Note_on_c, 9, 42, 0
1, 42720, Note_on_c, 9, 40, 94
1, 42720, Note_on_c, 9, 42, 81
1, 42959, Note_on_c, 9, 40, 0
1, 42959, Note_on_c, 9, 42, 0
1, 42960, Note_on_c, 9, 42, 44
1, 42960, Note_on_c, 9, 35, 94
1, 43199, Note_on_c, 9, 42, 0
1, 43199, Note_on_c, 9, 35, 0
1, 43200, Note_on_c, 9, 42, 67
1, 43200, Note_on_c, 9, 35, 98
1, 43439, Note_on_c, 9, 42, 0
1, 43440, Note_on_c, 9, 42, 43
1, 43679, Note_on_c, 9, 35, 0
1, 43679, Note_on_c, 9, 42, 0
1, 43680, Note_on_c, 9, 40, 94
1, 43680, Note_on_c, 9, 42, 73
1, 43919, Note_on_c, 9, 40, 0
1, 43919, Note_on_c, 9, 42, 0
1, 43920, Note_on_c, 9, 42, 46
1, 43920, Note_on_c, 9, 35, 92
1, 44159, Note_on_c, 9, 42, 0
1, 44159, Note_on_c, 9, 35, 0
1, 44160, Note_on_c, 9, 42, 57
1, 44160, Note_on_c, 9, 35, 100
1, 44399, Note_on_c, 9, 42, 0
1, 44400, Note_on_c, 9, 42, 45
1, 44639, Note_on_c, 9, 35, 0
1, 44639, Note_on_c, 9, 42, 0
1, 44640, Note_on_c, 9, 40, 99
1, 44640, Note_on_c, 9, 42, 71
1, 44879, Note_on_c, 9, 40, 0
1, 44879, Note_on_c, 9, 42, 0
1, 44880, Note_on_c, 9, 42, 49
1, 44880, Note_on_c, 9, 35, 92
1, 45119, Note_on_c, 9, 42, 0
1, 45119, Note_on_c, 9, 35, 0
1, 45120, Note_on_c, 9, 42, 66
1, 45120, Note_on_c, 9, 35, 96
1, 45359, Note_on_c, 9, 42, 0
1, 45360, Note_on_c, 9, 42, 50
1, 45599, Note_on_c, 9, 35, 0
1, 45599, Note_on_c, 9, 42, 0
1, 45600, Note_on_c, 9, 40, 92
1, 45600, Note_on_c, 9, 42, 71
1, 45839, Note_on_c, 9, 40, 0
1, 45839, Note_on_c, 9, 42, 0
1, 45840, Note_on_c, 9, 42, 38
1, 45840, Note_on_c, 9, 35, 92
1, 46079, Note_on_c, 9, 42, 0
1, 46079, Note_on_c, 9, 35, 0
1, 46080, Note_on_c, 9, 42, 64
1, 46080, Note_on_c, 9, 35, 100
1, 46319, Note_on_c, 9, 42, 0
1, 46320, Note_on_c, 9, 42, 50
1, 46559, Note_on_c, 9, 35, 0
1, 46559, Note_on_c, 9, 42, 0
1, 46560, Note_on_c, 9, 40, 92
1, 46560, Note_on_c, 9, 42, 63
1, 46799, Note_on_c, 9, 40, 0
1, 46799, Note_on_c, 9, 42, 0
1, 46800, Note_on_c, 9, 42, 43
1, 46800, Note_on_c, 9, 35, 92
1, 47039, Note_on_c, 9, 42, 0
1, 47039, Note_on_c, 9, 35, 0
1, 47040, Note_on_c, 9, 42, 57
1, 47040, Note_on_c, 9, 35, 99
1, 47279, Note_on_c, 9, 42, 0
1, 47280, Note_on_c, 9, 42, 49
1, 47519, Note_on_c, 9, 35, 0
1, 47519, Note_on_c, 9, 42, 0
1, 47520, Note_on_c, 9, 40, 92
1, 47520, Note_on_c, 9, 42, 67
1, 47759, Note_on_c, 9, 40, 0
1, 47759, Note_on_c, 9, 42, 0
1, 47760, Note_on_c, 9, 42, 53
1, 47760, Note_on_c, 9, 35, 94
1, 47999, Note_on_c, 9, 42, 0
1, 47999, Note_on_c, 9, 35, 0
1, 48000, Note_on_c, 9, 42, 60
1, 48000, Note_on_c, 9, 35, 98
1, 48239, Note_on_c, 9, 42, 0
1, 48240, Note_on_c, 9, 42, 53
1, 48479, Note_on_c, 9, 35, 0
1, 48479, Note_on_c, 9, 42, 0
1, 48480, Note_on_c, 9, 40, 97
1, 48480, Note_on_c, 9, 42, 69
1, 48719, Note_on_c, 9, 40, 0
1, 48719, Note_on_c, 9, 42, 0
1, 48720, Note_on_c, 9, 42, 42
1, 48720, Note_on_c, 9, 35, 95
1, 48959, Note_on_c, 9, 42, 0
1, 48959, Note_on_c, 9, 35, 0
1, 48960, Note_on_c, 9, 42, 69
1, 48960, Note_on_c, 9, 35, 97
1, 49199, Note_on_c, 9, 42, 0
1, 49200, Note_on_c, 9, 40, 78
1, 49200, Note_on_c, 9, 42, 45
1, 49439, Note_on_c, 9, 35, 0
1, 49439, Note_on_c, 9, 40, 0
1, 49439, Note_on_c, 9, 42, 0
1, 49440, Note_on_c, 9, 40, 103
1, 49440, Note_on_c, 9, 42, 63
1, 49679, Note_on_c, 9, 40, 0
1, 49679, Note_on_c, 9, 42, 0
1, 49680, Note_on_c, 9, 42, 66
1, 49680, Note_on_c, 9, 35, 93
1, 49919, Note_on_c, 9, 42, 0
1, 49919, Note_on_c, 9, 35, 0
1, 49920, Note_on_c, 9, 57, 53
1, 49920, Note_on_c, 9, 35, 102
1, 50159, Note_on_c, 9, 57, 0
1, 50160, Note_on_c, 9, 42, 54
1, 50399, Note_on_c, 9, 35, 0
1, 50399, Note_on_c, 9, 42, 0
1, 50400, Note_on_c, 9, 40, 94
1, 50400, Note_on_c, 9, 42, 83
1, 50639, Note_on_c, 9, 40, 0
1, 50639, Note_on_c, 9, 42, 0
1, 50640, Note_on_c, 9, 42, 66
1, 50640, Note_on_c, 9, 35, 93
1, 50879, Note_on_c, 9, 42, 0
1, 50879, Note_on_c, 9, 35, 0
1, 50880, Note_on_c, 9, 42, 75
1, 50880, Note_on_c, 9, 35, 100
1, 51119, Note_on_c, 9, 42, 0
1, 51120, Note_on_c, 9, 42, 46
1, 51359, Note_on_c, 9, 35, 0
1, 51359, Note_on_c, 9, 42, 0
1, 51360, Note_on_c, 9, 40, 99
1, 51360, Note_on_c, 9, 42, 77
1, 51599, Note_on_c, 9, 40, 0
1, 51599, Note_on_c, 9, 42, 0
1, 51600, Note_on_c, 9, 42, 49
1, 51600, Note_on_c, 9, 35, 94
1, 51839, Note_on_c, 9, 42, 0
1, 51839, Note_on_c, 9, 35, 0
1, 51840, Note_on_c, 9, 42, 63
1, 51840, Note_on_c, 9, 35, 99
1, 52079, Note_on_c, 9, 42, 0
1, 52080, Note_on_c, 9, 42, 47
1, 52319, Note_on_c, 9, 35, 0
1, 52319, Note_on_c, 9, 42, 0
1, 52320, Note_on_c, 9, 40, 95
1, 52320, Note_on_c, 9, 42, 73
1, 52559, Note_on_c, 9, 40, 0
1, 52559, Note_on_c, 9, 42, 0
1, 52560, Note_on_c, 9, 42, 56
1, 52560, Note_on_c, 9, 35, 94
1, 52799, Note_on_c, 9, 42, 0
1, 52799, Note_on_c, 9, 35, 0
1, 52800, Note_on_c, 9, 42, 71
1, 52800, Note_on_c, 9, 35, 101
1, 53039, Note_on_c, 9, 42, 0
1, 53040, Note_on_c, 9, 42, 54
1, 53279, Note_on_c, 9, 35, 0
1, 53279, Note_on_c, 9, 42, 0
1, 53280, Note_on_c, 9, 40, 97
1, 53280, Note_on_c, 9, 42, 69
1, 53519, Note_on_c, 9, 40, 0
1, 53519, Note_on_c, 9, 42, 0
1, 53520, Note_on_c, 9, 42, 49
1, 53520, Note_on_c, 9, 35, 96
1, 53759, Note_on_c, 9, 42, 0
1, 53759, Note_on_c, 9, 35, 0
1, 53760, Note_on_c, 9, 42, 73
1, 53760, Note_on_c, 9, 35, 97
1, 53999, Note_on_c, 9, 42, 0
1, 54000, Note_on_c, 9, 42, 53
1, 54239, Note_on_c, 9, 35, 0
1, 54239, Note_on_c, 9, 42, 0
1, 54240, Note_on_c, 9, 40, 97
1, 54240, Note_on_c, 9, 42, 69
1, 54479, Note_on_c, 9, 40, 0
1, 54479, Note_on_c, 9, 42, 0
1, 54480, Note_on_c, 9, 42, 54
1, 54480, Note_on_c, 9, 35, 91
1, 54719, Note_on_c, 9, 42, 0
1, 54719, Note_on_c, 9, 35, 0
1, 54720, Note_on_c, 9, 42, 61
1, 54720, Note_on_c, 9, 35, 97
1, 54959, Note_on_c, 9, 42, 0
1, 54960, Note_on_c, 9, 42, 47
1, 55199, Note_on_c, 9, 35, 0
1, 55199, Note_on_c, 9, 42, 0
1, 55200, Note_on_c, 9, 40, 99
1, 55200, Note_on_c, 9, 42, 59
1, 55439, Note_on_c, 9, 40, 0
1, 55439, Note_on_c, 9, 42, 0
1, 55440, Note_on_c, 9, 42, 40
1, 55440, Note_on_c, 9, 35, 82
1, 55679, Note_on_c, 9, 42, 0
1, 55679, Note_on_c, 9, 35, 0
1, 55680, Note_on_c, 9, 42, 64
1, 55680, Note_on_c, 9, 35, 100
1, 55919, Note_on_c, 9, 42, 0
1, 55920, Note_on_c, 9, 42, 66
1, 56159, Note_on_c, 9, 35, 0
1, 56159, Note_on_c, 9, 42, 0
1, 56160, Note_on_c, 9, 40, 99
1, 56160, Note_on_c, 9, 42, 69
1, 56399, Note_on_c, 9, 40, 0
1, 56399, Note_on_c, 9, 42, 0
1, 56400, Note_on_c, 9, 42, 43
1, 56400, Note_on_c, 9, 35, 88
1, 56639, Note_on_c, 9, 42, 0
1, 56639, Note_on_c, 9, 35, 0
1, 56640, Note_on_c, 9, 42, 54
1, 56640, Note_on_c, 9, 35, 102
1, 56879, Note_on_c, 9, 42, 0
1, 56880, Note_on_c, 9, 42, 43
1, 57119, Note_on_c, 9, 35, 0
1, 57119, Note_on_c, 9, 42, 0
1, 57120, Note_on_c, 9, 40, 95
1, 57120, Note_on_c, 9, 42, 69
1, 57359, Note_on_c, 9, 40, 0
1, 57359, Note_on_c, 9, 42, 0
1, 57360, Note_on_c, 9, 42, 56
1, 57360, Note_on_c, 9, 35, 95
1, 57599, Note_on_c, 9, 42, 0
1, 57599, Note_on_c, 9, 35, 0
1, 57600, Note_on_c, 9, 42, 64
1, 57600, Note_on_c, 9, 35, 100
1, 57839, Note_on_c, 9, 42, 0
1, 57840, Note_on_c, 9, 42, 41
1, 58079, Note_on_c, 9, 35, 0
1, 58079, Note_on_c, 9, 42, 0
1, 58080, Note_on_c, 9, 40, 97
1, 58080, Note_on_c, 9, 42, 67
1, 58319, Note_on_c, 9, 40, 0
1, 58319, Note_on_c, 9, 42, 0
1, 58320, Note_on_c, 9, 42, 54
1, 58320, Note_on_c, 9, 35, 94
1, 58559, Note_on_c, 9, 42, 0
1, 58559, Note_on_c, 9, 35, 0
1, 58560, Note_on_c, 9, 42, 73
1, 58560, Note_on_c, 9, 35, 97
1, 58799, Note_on_c, 9, 42, 0
1, 58800, Note_on_c, 9, 42, 63
1, 59039, Note_on_c, 9, 35, 0
1, 59039, Note_on_c, 9, 42, 0
1, 59040, Note_on_c, 9, 40, 94
1, 59040, Note_on_c, 9, 42, 71
1, 59279, Note_on_c, 9, 40, 0
1, 59279, Note_on_c, 9, 42, 0
1, 59280, Note_on_c, 9, 42, 40
1, 59280, Note_on_c, 9, 35, 94
1, 59519, Note_on_c, 9, 42, 0
1, 59519, Note_on_c, 9, 35, 0
1, 59520, Note_on_c, 9, 42, 64
1, 59520, Note_on_c, 9, 35, 102
1, 59759, Note_on_c, 9, 42, 0
1, 59760, Note_on_c, 9, 42, 54
1, 59999, Note_on_c, 9, 35, 0
1, 59999, Note_on_c, 9, 42, 0
1, 60000, Note_on_c, 9, 40, 95
1, 60000, Note_on_c, 9, 42, 66
1, 60239, Note_on_c, 9, 40, 0
1, 60239, Note_on_c, 9, 42, 0
1, 60240, Note_on_c, 9, 42, 59
1, 60240, Note_on_c, 9, 35, 94
1, 60479, Note_on_c, 9, 42, 0
1, 60479, Note_on_c, 9, 35, 0
1, 60480, Note_on_c, 9, 42, 79
1, 60480, Note_on_c, 9, 35, 100
1, 60719, Note_on_c, 9, 42, 0
1, 60720, Note_on_c, 9, 42, 43
1, 60959, Note_on_c, 9, 35, 0
1, 60959, Note_on_c, 9, 42, 0
1, 60960, Note_on_c, 9, 40, 97
1, 60960, Note_on_c, 9, 42, 77
1, 61199, Note_on_c, 9, 40, 0
1, 61199, Note_on_c, 9, 42, 0
1, 61200, Note_on_c, 9, 42, 49
1, 61200, Note_on_c, 9, 35, 92
1, 61439, Note_on_c, 9, 42, 0
1, 61439, Note_on_c, 9, 35, 0
1, 61440, Note_on_c, 9, 42, 89
1, 61440, Note_on_c, 9, 35, 101
1, 61679, Note_on_c, 9, 42, 0
1, 61680, Note_on_c, 9, 42, 56
1, 61919, Note_on_c, 9, 35, 0
1, 61919, Note_on_c, 9, 42, 0
1, 61920, Note_on_c, 9, 40, 97
1, 61920, Note_on_c, 9, 42, 89
1, 62159, Note_on_c, 9, 40, 0
1, 62159, Note_on_c, 9, 42, 0
1, 62160, Note_on_c, 9, 42, 64
1, 62160, Note_on_c, 9, 35, 93
1, 62399, Note_on_c, 9, 42, 0
1, 62399, Note_on_c, 9, 35, 0
1, 62400, Note_on_c, 9, 42, 98
1, 62400, Note_on_c, 9, 35, 98
1, 62639, Note_on_c, 9, 42, 0
1, 62640, Note_on_c, 9, 42, 95
1, 62879, Note_on_c, 9, 35, 0
1, 62879, Note_on_c, 9, 42, 0
1, 62880, Note_on_c, 9, 40, 99
1, 62880, Note_on_c, 9, 42, 92
1, 63119, Note_on_c, 9, 40, 0
1, 63119, Note_on_c, 9, 42, 0
1, 63120, Note_on_c, 9, 49, 81
1, 63120, Note_on_c, 9, 35, 96
1, 63359, Note_on_c, 9, 49, 0
1, 63359, Note_on_c, 9, 35, 0
1, 63360, Note_on_c, 9, 42, 83
1, 63600, Note_on_c, 9, 35, 101
1, 63839, Note_on_c, 9, 42, 0
1, 63839, Note_on_c, 9, 35, 0
1, 63840, Note_on_c, 9, 40, 107
1, 64199, Note_on_c, 9, 40, 0
1, 64200, Note_on_c, 9, 40, 42
1, 64259, Note_on_c, 9, 40, 0
1, 64260, Note_on_c, 9, 40, 57
1, 64319, Note_on_c, 9, 40, 0
1, 64320, Note_on_c, 9, 40, 76
1, 64439, Note_on_c, 9, 40, 0
1, 64440, Note_on_c, 9, 40, 89
1, 64559, Note_on_c, 9, 40, 0
1, 64560, Note_on_c, 9, 40, 105
1, 64679, Note_on_c, 9, 40, 0
1, 64680, Note_on_c, 9, 40, 114
1, 64799, Note_on_c, 9, 40, 0
1, 64800, Note_on_c, 9, 40, 119
1, 65040, Note_on_c, 9, 35, 106
1, 65279, Note_on_c, 9, 40, 0
1, 65279, Note_on_c, 9, 35, 0
1, 65280, Note_on_c, 9, 57, 48
1, 65280, Note_on_c, 9, 35, 94
1, 65519, Note_on_c, 9, 57, 0
1, 65520, Note_on_c, 9, 42, 50
1, 65759, Note_on_c, 9, 35, 0
1, 65759, Note_on_c, 9, 42, 0
1, 65760, Note_on_c, 9, 40, 81
1, 65760, Note_on_c, 9, 42, 66
1, 65999, Note_on_c, 9, 40, 0
1, 65999, Note_on_c, 9, 42, 0
1, 66000, Note_on_c, 9, 42, 53
1, 66000, Note_on_c, 9, 35, 93
1, 66239, Note_on_c, 9, 42, 0
1, 66239, Note_on_c, 9, 35, 0
1, 66240, Note_on_c, 9, 42, 71
1, 66240, Note_on_c, 9, 35, 96
1, 66479, Note_on_c, 9, 42, 0
1, 66480, Note_on_c, 9, 42, 52
1, 66719, Note_on_c, 9, 35, 0
1, 66719, Note_on_c, 9, 42, 0
1, 66720, Note_on_c, 9, 40, 105
1, 66720, Note_on_c, 9, 42, 75
1, 66959, Note_on_c, 9, 40, 0
1, 66959, Note_on_c, 9, 42, 0
1, 66960, Note_on_c, 9, 42, 47
1, 66960, Note_on_c, 9, 35, 87
1, 67199, Note_on_c, 9, 42, 0
1, 67199, Note_on_c, 9, 35, 0
1, 67200, Note_on_c, 9, 42, 69
1, 67200, Note_on_c, 9, 35, 95
1, 67439, Note_on_c, 9, 42, 0
1, 67440, Note_on_c, 9, 42, 39
1, 67679, Note_on_c, 9, 35, 0
1, 67679, Note_on_c, 9, 42, 0
1, 67680, Note_on_c, 9, 40, 103
1, 67680, Note_on_c, 9, 42, 71
1, 67919, Note_on_c, 9, 40, 0
1, 67919, Note_on_c, 9, 42, 0
1, 67920, Note_on_c, 9, 42, 47
1, 67920, Note_on_c, 9, 35, 90
1, 68159, Note_on_c, 9, 42, 0
1, 68159, Note_on_c, 9, 35, 0
1, 68160, Note_on_c, 9, 42, 69
1, 68160, Note_on_c, 9, 35, 96
1, 68399, Note_on_c, 9, 42, 0
1, 68400, Note_on_c, 9, 42, 45
1, 68639, Note_on_c, 9, 35, 0
1, 68639, Note_on_c, 9, 42, 0
1, 68640, Note_on_c, 9, 40, 97
1, 68640, Note_on_c, 9, 42, 75
1, 68879, Note_on_c, 9, 40, 0
1, 68879, Note_on_c, 9, 42, 0
1, 68880, Note_on_c, 9, 42, 49
1, 68880, Note_on_c, 9, 35, 92
1, 69119, Note_on_c, 9, 42, 0
1, 69119, Note_on_c, 9, 35, 0
1, 69120, Note_on_c, 9, 42, 66
1, 69120, Note_on_c, 9, 35, 97
1, 69359, Note_on_c, 9, 42, 0
1, 69360, Note_on_c, 9, 42, 43
1, 69599, Note_on_c, 9, 35, 0
1, 69599, Note_on_c, 9, 42, 0
1, 69600, Note_on_c, 9, 40, 91
1, 69600, Note_on_c, 9, 42, 66
1, 69839, Note_on_c, 9, 40, 0
1, 69839, Note_on_c, 9, 42, 0
1, 69840, Note_on_c, 9, 42, 43
1, 69840, Note_on_c, 9, 35, 90
1, 70079, Note_on_c, 9, 42, 0
1, 70079, Note_on_c, 9, 35, 0
1, 70080, Note_on_c, 9, 42, 64
1, 70080, Note_on_c, 9, 35, 97
1, 70319, Note_on_c, 9, 42, 0
1, 70320, Note_on_c, 9, 42, 46
1, 70559, Note_on_c, 9, 35, 0
1, 70559, Note_on_c, 9, 42, 0
1, 70560, Note_on_c, 9, 40, 95
1, 70560, Note_on_c, 9, 42, 67
1, 70799, Note_on_c, 9, 40, 0
1, 70799, Note_on_c, 9, 42, 0
1, 70800, Note_on_c, 9, 42, 49
1, 70800, Note_on_c, 9, 35, 91
1, 71039, Note_on_c, 9, 42, 0
1, 71039, Note_on_c, 9, 35, 0
1, 71040, Note_on_c, 9, 42, 63
1, 71040, Note_on_c, 9, 35, 100
1, 71279, Note_on_c, 9, 42, 0
1, 71280, Note_on_c, 9, 42, 47
1, 71519, Note_on_c, 9, 35, 0
1, 71519, Note_on_c, 9, 42, 0
1, 71520, Note_on_c, 9, 40, 94
1, 71520, Note_on_c, 9, 42, 64
1, 71759, Note_on_c, 9, 40, 0
1, 71759, Note_on_c, 9, 42, 0
1, 71760, Note_on_c, 9, 42, 48
1, 71760, Note_on_c, 9, 35, 93
1, 71999, Note_on_c, 9, 42, 0
1, 71999, Note_on_c, 9, 35, 0
1, 72000, Note_on_c, 9, 42, 60
1, 72000, Note_on_c, 9, 35, 99
1, 72239, Note_on_c, 9, 42, 0
1, 72240, Note_on_c, 9, 42, 52
1, 72479, Note_on_c, 9, 35, 0
1, 72479, Note_on_c, 9, 42, 0
1, 72480, Note_on_c, 9, 40, 85
1, 72480, Note_on_c, 9, 42, 77
1, 72719, Note_on_c, 9, 40, 0
1, 72719, Note_on_c, 9, 42, 0
1, 72720, Note_on_c, 9, 42, 46
1, 72720, Note_on_c, 9, 35, 92
1, 72959, Note_on_c, 9, 42, 0
1, 72959, Note_on_c, 9, 35, 0
1, 72960, Note_on_c, 9, 42, 63
1, 72960, Note_on_c, 9, 35, 94
1, 73199, Note_on_c, 9, 42, 0
1, 73200, Note_on_c, 9, 42, 50
1, 73439, Note_on_c, 9, 35, 0
1, 73439, Note_on_c, 9, 42, 0
1, 73440, Note_on_c, 9, 40, 81
1, 73440, Note_on_c, 9, 42, 66
1, 73679, Note_on_c, 9, 40, 0
1, 73679, Note_on_c, 9, 42, 0
1, 73680, Note_on_c, 9, 42, 53
1, 73680, Note_on_c, 9, 35, 93
1, 73919, Note_on_c, 9, 42, 0
1, 73919, Note_on_c, 9, 35, 0
1, 73920, Note_on_c, 9, 42, 71
1, 73920, Note_on_c, 9, 35, 96
1, 74159, Note_on_c, 9, 42, 0
1, 74160, Note_on_c, 9, 42, 52
1, 74399, Note_on_c, 9, 35, 0
1, 74399, Note_on_c, 9, 42, 0
1, 74400, Note_on_c, 9, 40, 105
1, 74400, Note_on_c, 9, 42, 75
1, 74639, Note_on_c, 9, 40, 0
1, 74639, Note_on_c, 9, 42, 0
1, 74640, Note_on_c, 9, 42, 47
1, 74640, Note_on_c, 9, 35, 87
1, 74879, Note_on_c, 9, 42, 0
1, 74879, Note_on_c, 9, 35, 0
1, 74880, Note_on_c, 9, 42, 69
1, 74880, Note_on_c, 9, 35, 95
1, 75119, Note_on_c, 9, 42, 0
1, 75120, Note_on_c, 9, 42, 39
1, 75359, Note_on_c, 9, 35, 0
1, 75359, Note_on_c, 9, 42, 0
1, 75360, Note_on_c, 9, 40, 103
1, 75360, Note_on_c, 9, 42, 71
1, 75599, Note_on_c, 9, 40, 0
1, 75599, Note_on_c, 9, 42, 0
1, 75600, Note_on_c, 9, 42, 47
1, 75600, Note_on_c, 9, 35, 90
1, 75839, Note_on_c, 9, 42, 0
1, 75839, Note_on_c, 9, 35, 0
1, 75840, Note_on_c, 9, 42, 69
1, 75840, Note_on_c, 9, 35, 96
1, 76079, Note_on_c, 9, 42, 0
1, 76080, Note_on_c, 9, 42, 45
1, 76319, Note_on_c, 9, 35, 0
1, 76319, Note_on_c, 9, 42, 0
1, 76320, Note_on_c, 9, 40, 97
1, 76320, Note_on_c, 9, 42, 75
1, 76559, Note_on_c, 9, 40, 0
1, 76559, Note_on_c, 9, 42, 0
1, 76560, Note_on_c, 9, 42, 49
1, 76560, Note_on_c, 9, 35, 92
1, 76799, Note_on_c, 9, 42, 0
1, 76799, Note_on_c, 9, 35, 0
1, 76800, Note_on_c, 9, 42, 66
1, 76800, Note_on_c, 9, 35, 97
1, 77039, Note_on_c, 9, 42, 0
1, 77040, Note_on_c, 9, 42, 43
1, 77279, Note_on_c, 9, 35, 0
1, 77279, Note_on_c, 9, 42, 0
1, 77280, Note_on_c, 9, 40, 91
1, 77280, Note_on_c, 9, 42, 66
1, 77519, Note_on_c, 9, 40, 0
1, 77519, Note_on_c, 9, 42, 0
1, 77520, Note_on_c, 9, 42, 43
1, 77520, Note_on_c, 9, 35, 90
1, 77759, Note_on_c, 9, 42, 0
1, 77759, Note_on_c, 9, 35, 0
1, 77760, Note_on_c, 9, 42, 64
1, 77760, Note_on_c, 9, 35, 97
1, 77999, Note_on_c, 9, 42, 0
1, 78000, Note_on_c, 9, 42, 46
1, 78239, Note_on_c, 9, 35, 0
1, 78239, Note_on_c, 9, 42, 0
1, 78240, Note_on_c, 9, 40, 95
1, 78240, Note_on_c, 9, 42, 67
1, 78479, Note_on_c, 9, 40, 0
1, 78479, Note_on_c, 9, 42, 0
1, 78480, Note_on_c, 9, 42, 49
1, 78480, Note_on_c, 9, 35, 91
1, 78719, Note_on_c, 9, 42, 0
1, 78719, Note_on_c, 9, 35, 0
1, 78720, Note_on_c, 9, 42, 63
1, 78720, Note_on_c, 9, 35, 100
1, 78959, Note_on_c, 9, 42, 0
1, 78960, Note_on_c, 9, 42, 47
1, 79199, Note_on_c, 9, 35, 0
1, 79199, Note_on_c, 9, 42, 0
1, 79200, Note_on_c, 9, 40, 94
1, 79200, Note_on_c, 9, 42, 64
1, 79439, Note_on_c, 9, 40, 0
1, 79439, Note_on_c, 9, 42, 0
1, 79440, Note_on_c, 9, 42, 48
1, 79440, Note_on_c, 9, 35, 93
1, 79679, Note_on_c, 9, 42, 0
1, 79679, Note_on_c, 9, 35, 0
1, 79680, Note_on_c, 9, 42, 60
1, 79680, Note_on_c, 9, 35, 99
1, 79919, Note_on_c, 9, 42, 0
1, 79920, Note_on_c, 9, 42, 52
1, 80159, Note_on_c, 9, 35, 0
1, 80159, Note_on_c, 9, 42, 0
1, 80160, Note_on_c, 9, 40, 85
1, 80160, Note_on_c, 9, 42, 77
1, 80399, Note_on_c, 9, 40, 0
1, 80399, Note_on_c, 9, 42, 0
1, 80400, Note_on_c, 9, 42, 46
1, 80400, Note_on_c, 9, 35, 92
1, 80639, Note_on_c, 9, 42, 0
1, 80639, Note_on_c, 9, 35, 0
1, 80640, Note_on_c, 9, 57, 48
1, 80640, Note_on_c, 9, 35, 94
1, 80879, Note_on_c, 9, 57, 0
1, 80880, Note_on_c, 9, 42, 50
1, 81119, Note_on_c, 9, 35, 0
1, 81119, Note_on_c, 9, 42, 0
1, 81120, Note_on_c, 9, 40, 81
1, 81120, Note_on_c, 9, 42, 66
1, 81359, Note_on_c, 9, 40, 0
1, 81359, Note_on_c, 9, 42, 0
1, 81360, Note_on_c, 9, 42, 53
1, 81360, Note_on_c, 9, 35, 93
1, 81599, Note_on_c, 9, 42, 0
1, 81599, Note_on_c, 9, 35, 0
1, 81600, Note_on_c, 9, 42, 71
1, 81600, Note_on_c, 9, 35, 96
1, 81839, Note_on_c, 9, 42, 0
1, 81840, Note_on_c, 9, 42, 52
1, 82079, Note_on_c, 9, 35, 0
1, 82079, Note_on_c, 9, 42, 0
1, 82080, Note_on_c, 9, 40, 105
1, 82080, Note_on_c, 9, 42, 75
1, 82319, Note_on_c, 9, 40, 0
1, 82319, Note_on_c, 9, 42, 0
1, 82320, Note_on_c, 9, 42, 47
1, 82320, Note_on_c, 9, 35, 87
1, 82559, Note_on_c, 9, 42, 0
1, 82559, Note_on_c, 9, 35, 0
1, 82560, Note_on_c, 9, 42, 69
1, 82560, Note_on_c, 9, 35, 95
1, 82799, Note_on_c, 9, 42, 0
1, 82800, Note_on_c, 9, 42, 39
1, 83039, Note_on_c, 9, 35, 0
1, 83039, Note_on_c, 9, 42, 0
1, 83040, Note_on_c, 9, 40, 103
1, 83040, Note_on_c, 9, 42, 71
1, 83279, Note_on_c, 9, 40, 0
1, 83279, Note_on_c, 9, 42, 0
1, 83280, Note_on_c, 9, 42, 47
1, 83280, Note_on_c, 9, 35, 90
1, 83519, Note_on_c, 9, 42, 0
1, 83519, Note_on_c, 9, 35, 0
1, 83520, Note_on_c, 9, 42, 69
1, 83520, Note_on_c, 9, 35, 96
1, 83759, Note_on_c, 9, 42, 0
1, 83760, Note_on_c, 9, 42, 45
1, 83999, Note_on_c, 9, 35, 0
1, 83999, Note_on_c, 9, 42, 0
1, 84000, Note_on_c, 9, 40, 97
1, 84000, Note_on_c, 9, 42, 75
1, 84239, Note_on_c, 9, 40, 0
1, 84239, Note_on_c, 9, 42, 0
1, 84240, Note_on_c, 9, 42, 49
1, 84240, Note_on_c, 9, 35, 92
1, 84479, Note_on_c, 9, 42, 0
1, 84479, Note_on_c, 9, 35, 0
1, 84480, Note_on_c, 9, 46, 66
1, 84480, Note_on_c, 9, 35, 97
1, 84959, Note_on_c, 9, 46, 0
1, 84959, Note_on_c, 9, 35, 0
1, 84960, Note_on_c, 9, 40, 91
1, 84960, Note_on_c, 9, 42, 66
1, 85199, Note_on_c, 9, 40, 0
1, 85199, Note_on_c, 9, 42, 0
1, 85200, Note_on_c, 9, 42, 43
1, 85200, Note_on_c, 9, 35, 90
1, 85439, Note_on_c, 9, 42, 0
1, 85439, Note_on_c, 9, 35, 0
1, 85440, Note_on_c, 9, 42, 64
1, 85440, Note_on_c, 9, 35, 97
1, 85679, Note_on_c, 9, 42, 0
1, 85680, Note_on_c, 9, 42, 46
1, 85919, Note_on_c, 9, 35, 0
1, 85919, Note_on_c, 9, 42, 0
1, 85920, Note_on_c, 9, 40, 95
1, 85920, Note_on_c, 9, 42, 67
1, 86159, Note_on_c, 9, 40, 0
1, 86159, Note_on_c, 9, 42, 0
1, 86160, Note_on_c, 9, 42, 49
1, 86160, Note_on_c, 9, 35, 91
1, 86399, Note_on_c, 9, 42, 0
1, 86399, Note_on_c, 9, 35, 0
1, 86400, Note_on_c, 9, 42, 63
1, 86400, Note_on_c, 9, 35, 100
1, 86639, Note_on_c, 9, 42, 0
1, 86640, Note_on_c, 9, 42, 47
1, 86879, Note_on_c, 9, 35, 0
1, 86879, Note_on_c, 9, 42, 0
1, 86880, Note_on_c, 9, 40, 94
1, 86880, Note_on_c, 9, 42, 64
1, 87119, Note_on_c, 9, 40, 0
1, 87119, Note_on_c, 9, 42, 0
1, 87120, Note_on_c, 9, 42, 48
1, 87120, Note_on_c, 9, 35, 93
1, 87359, Note_on_c, 9, 42, 0
1, 87359, Note_on_c, 9, 35, 0
1, 87360, Note_on_c, 9, 42, 60
1, 87360, Note_on_c, 9, 35, 99
1, 87599, Note_on_c, 9, 42, 0
1, 87600, Note_on_c, 9, 42, 52
1, 87839, Note_on_c, 9, 35, 0
1, 87839, Note_on_c, 9, 42, 0
1, 87840, Note_on_c, 9, 40, 85
1, 87840, Note_on_c, 9, 42, 77
1, 88079, Note_on_c, 9, 40, 0
1, 88079, Note_on_c, 9, 42, 0
1, 88080, Note_on_c, 9, 42, 46
1, 88080, Note_on_c, 9, 35, 92
1, 88319, Note_on_c, 9, 42, 0
1, 88319, Note_on_c, 9, 35, 0
1, 88320, Note_on_c, 9, 57, 48
1, 88320, Note_on_c, 9, 35, 94
1, 88559, Note_on_c, 9, 57, 0
1, 88560, Note_on_c, 9, 42, 50
1, 88799, Note_on_c, 9, 35, 0
1, 88799, Note_on_c, 9, 42, 0
1, 88800, Note_on_c, 9, 40, 81
1, 88800, Note_on_c, 9, 42, 66
1, 89039, Note_on_c, 9, 40, 0
1, 89039, Note_on_c, 9, 42, 0
1, 89040, Note_on_c, 9, 42, 53
1, 89040, Note_on_c, 9, 35, 93
1, 89279, Note_on_c, 9, 42, 0
1, 89279, Note_on_c, 9, 35, 0
1, 89280, Note_on_c, 9, 57, 56
1, 89280, Note_on_c, 9, 35, 96
1, 89519, Note_on_c, 9, 57, 0
1, 89520, Note_on_c, 9, 42, 52
1, 89759, Note_on_c, 9, 35, 0
1, 89759, Note_on_c, 9, 42, 0
1, 89760, Note_on_c, 9, 40, 105
1, 89760, Note_on_c, 9, 42, 75
1, 89999, Note_on_c, 9, 40, 0
1, 89999, Note_on_c, 9, 42, 0
1, 90000, Note_on_c, 9, 42, 47
1, 90000, Note_on_c, 9, 35, 87
1, 90239, Note_on_c, 9, 42, 0
1, 90239, Note_on_c, 9, 35, 0
1, 90240, Note_on_c, 9, 57, 54
1, 90240, Note_on_c, 9, 35, 95
1, 90479, Note_on_c, 9, 57, 0
1, 90480, Note_on_c, 9, 42, 39
1, 90719, Note_on_c, 9, 35, 0
1, 90719, Note_on_c, 9, 42, 0
1, 90720, Note_on_c, 9, 40, 103
1, 90720, Note_on_c, 9, 42, 71
1, 90959, Note_on_c, 9, 40, 0
1, 90959, Note_on_c, 9, 42, 0
1, 90960, Note_on_c, 9, 42, 47
1, 90960, Note_on_c, 9, 35, 90
1, 91199, Note_on_c, 9, 42, 0
1, 91199, Note_on_c, 9, 35, 0
1, 91200, Note_on_c, 9, 42, 69
1, 91200, Note_on_c, 9, 35, 96
1, 91439, Note_on_c, 9, 42, 0
1, 91440, Note_on_c, 9, 42, 45
1, 91679, Note_on_c, 9, 35, 0
1, 91679, Note_on_c, 9, 42, 0
1, 91680, Note_on_c, 9, 40, 97
1, 91680, Note_on_c, 9, 42, 75
1, 91919, Note_on_c, 9, 40, 0
1, 91919, Note_on_c, 9, 42, 0
1, 91920, Note_on_c, 9, 42, 49
1, 91920, Note_on_c, 9, 35, 92
1, 92159, Note_on_c, 9, 42, 0
1, 92159, Note_on_c, 9, 35, 0
1, 92160, Note_on_c, 9, 42, 66
1, 92160, Note_on_c, 9, 35, 97
1, 92399, Note_on_c, 9, 42, 0
1, 92400, Note_on_c, 9, 42, 43
1, 92639, Note_on_c, 9, 35, 0
1, 92639, Note_on_c, 9, 42, 0
1, 92640, Note_on_c, 9, 40, 91
1, 92640, Note_on_c, 9, 42, 66
1, 92879, Note_on_c, 9, 40, 0
1, 92879, Note_on_c, 9, 42, 0
1, 92880, Note_on_c, 9, 42, 43
1, 92880, Note_on_c, 9, 35, 90
1, 93119, Note_on_c, 9, 42, 0
1, 93119, Note_on_c, 9, 35, 0
1, 93120, Note_on_c, 9, 42, 64
1, 93120, Note_on_c, 9, 35, 97
1, 93359, Note_on_c, 9, 42, 0
1, 93360, Note_on_c, 9, 42, 46
1, 93599, Note_on_c, 9, 35, 0
1, 93599, Note_on_c, 9, 42, 0
1, 93600, Note_on_c, 9, 40, 95
1, 93600, Note_on_c, 9, 42, 67
1, 93839, Note_on_c, 9, 40, 0
1, 93839, Note_on_c, 9, 42, 0
1, 93840, Note_on_c, 9, 42, 49
1, 93840, Note_on_c, 9, 35, 91
1, 94079, Note_on_c, 9, 42, 0
1, 94079, Note_on_c, 9, 35, 0
1, 94080, Note_on_c, 9, 42, 63
1, 94080, Note_on_c, 9, 35, 100
1, 94319, Note_on_c, 9, 42, 0
1, 94320, Note_on_c, 9, 42, 47
1, 94559, Note_on_c, 9, 35, 0
1, 94559, Note_on_c, 9, 42, 0
1, 94560, Note_on_c, 9, 40, 94
1, 94560, Note_on_c, 9, 42, 64
1, 94799, Note_on_c, 9, 40, 0
1, 94799, Note_on_c, 9, 42, 0
1, 94800, Note_on_c, 9, 42, 48
1, 94800, Note_on_c, 9, 35, 93
1, 95039, Note_on_c, 9, 42, 0
1, 95039, Note_on_c, 9, 35, 0
1, 95040, Note_on_c, 9, 42, 60
1, 95040, Note_on_c, 9, 35, 99
1, 95279, Note_on_c, 9, 42, 0
1, 95280, Note_on_c, 9, 46, 52
1, 95519, Note_on_c, 9, 35, 0
1, 95519, Note_on_c, 9, 46, 0
1, 95520, Note_on_c, 9, 40, 85
1, 95520, Note_on_c, 9, 42, 77
1, 95759, Note_on_c, 9, 40, 0
1, 95759, Note_on_c, 9, 42, 0
1, 95760, Note_on_c, 9, 42, 46
1, 95760, Note_on_c, 9, 35, 92
1, 95999, Note_on_c, 9, 42, 0
1, 95999, Note_on_c, 9, 35, 0
1, 96000, Note_on_c, 9, 57, 48
1, 96000, Note_on_c, 9, 35, 94
1, 96239, Note_on_c, 9, 57, 0
1, 96240, Note_on_c, 9, 42, 50
1, 96479, Note_on_c, 9, 35, 0
1, 96479, Note_on_c, 9, 42, 0
1, 96480, Note_on_c, 9, 40, 81
1, 96480, Note_on_c, 9, 42, 66
1, 96719, Note_on_c, 9, 40, 0
1, 96719, Note_on_c, 9, 42, 0
1, 96720, Note_on_c, 9, 42, 53
1, 96720, Note_on_c, 9, 35, 93
1, 96959, Note_on_c, 9, 42, 0
1, 96959, Note_on_c, 9, 35, 0
1, 96960, Note_on_c, 9, 42, 71
1, 96960, Note_on_c, 9, 35, 96
1, 97199, Note_on_c, 9, 42, 0
1, 97200, Note_on_c, 9, 42, 52
1, 97439, Note_on_c, 9, 35, 0
1, 97439, Note_on_c, 9, 42, 0
1, 97440, Note_on_c, 9, 40, 105
1, 97440, Note_on_c, 9, 42, 75
1, 97679, Note_on_c, 9, 40, 0
1, 97679, Note_on_c, 9, 42, 0
1, 97680, Note_on_c, 9, 42, 47
1, 97680, Note_on_c, 9, 35, 87
1, 97919, Note_on_c, 9, 42, 0
1, 97919, Note_on_c, 9, 35, 0
1, 97920, Note_on_c, 9, 42, 69
1, 97920, Note_on_c, 9, 35, 95
1, 98159, Note_on_c, 9, 42, 0
1, 98160, Note_on_c, 9, 42, 39
1, 98399, Note_on_c, 9, 35, 0
1, 98399, Note_on_c, 9, 42, 0
1, 98400, Note_on_c, 9, 40, 103
1, 98400, Note_on_c, 9, 42, 71
1, 98639, Note_on_c, 9, 40, 0
1, 98639, Note_on_c, 9, 42, 0
1, 98640, Note_on_c, 9, 42, 47
1, 98640, Note_on_c, 9, 35, 90
1, 98879, Note_on_c, 9, 42, 0
1, 98879, Note_on_c, 9, 35, 0
1, 98880, Note_on_c, 9, 42, 69
1, 98880, Note_on_c, 9, 35, 96
1, 99119, Note_on_c, 9, 42, 0
1, 99120, Note_on_c, 9, 42, 45
1, 99359, Note_on_c, 9, 35, 0
1, 99359, Note_on_c, 9, 42, 0
1, 99360, Note_on_c, 9, 40, 97
1, 99360, Note_on_c, 9, 42, 75
1, 99599, Note_on_c, 9, 40, 0
1, 99599, Note_on_c, 9, 42, 0
1, 99600, Note_on_c, 9, 42, 49
1, 99600, Note_on_c, 9, 35, 92
1, 99839, Note_on_c, 9, 42, 0
1, 99839, Note_on_c, 9, 35, 0
1, 99840, Note_on_c, 9, 46, 66
1, 99840, Note_on_c, 9, 35, 97
1, 100319, Note_on_c, 9, 46, 0
1, 100319, Note_on_c, 9, 35, 0
1, 100320, Note_on_c, 9, 40, 91
1, 100320, Note_on_c, 9, 42, 66
1, 100559, Note_on_c, 9, 40, 0
1, 100559, Note_on_c, 9, 42, 0
1, 100560, Note_on_c, 9, 42, 43
1, 100560, Note_on_c, 9, 35, 90
1, 100799, Note_on_c, 9, 42, 0
1, 100799, Note_on_c, 9, 35, 0
1, 100800, Note_on_c, 9, 42, 64
1, 100800, Note_on_c, 9, 35, 97
1, 101039, Note_on_c, 9, 42, 0
1, 101040, Note_on_c, 9, 42, 46
1, 101279, Note_on_c, 9, 35, 0
1, 101279, Note_on_c, 9, 42, 0
1, 101280, Note_on_c, 9, 40, 95
1, 101280, Note_on_c, 9, 42, 67
1, 101519, Note_on_c, 9, 40, 0
1, 101519, Note_on_c, 9, 42, 0
1, 101520, Note_on_c, 9, 42, 49
1, 101520, Note_on_c, 9, 35, 91
1, 101759, Note_on_c, 9, 42, 0
1, 101759, Note_on_c, 9, 35, 0
1, 101760, Note_on_c, 9, 42, 63
1, 101760, Note_on_c, 9, 35, 100
1, 101999, Note_on_c, 9, 42, 0
1, 102000, Note_on_c, 9, 42, 47
1, 102239, Note_on_c, 9, 35, 0
1, 102239, Note_on_c, 9, 42, 0
1, 102240, Note_on_c, 9, 40, 94
1, 102240, Note_on_c, 9, 42, 64
1, 102479, Note_on_c, 9, 40, 0
1, 102479, Note_on_c, 9, 42, 0
1, 102480, Note_on_c, 9, 42, 48
1, 102480, Note_on_c, 9, 35, 93
1, 102719, Note_on_c, 9, 42, 0
1, 102719, Note_on_c, 9, 35, 0
1, 102720, Note_on_c, 9, 42, 60
1, 102720, Note_on_c, 9, 35, 99
1, 102959, Note_on_c, 9, 42, 0
1, 102960, Note_on_c, 9, 42, 52
1, 103199, Note_on_c, 9, 35, 0
1, 103199, Note_on_c, 9, 42, 0
1, 103200, Note_on_c, 9, 40, 85
1, 103200, Note_on_c, 9, 42, 77
1, 103439, Note_on_c, 9, 40, 0
1, 103439, Note_on_c, 9, 42, 0
1, 103440, Note_on_c, 9, 42, 46
1, 103440, Note_on_c, 9, 35, 92
1, 103679, Note_on_c, 9, 42, 0
1, 103679, Note_on_c, 9, 35, 0
1, 103680, Note_on_c, 9, 57, 48
1, 103680, Note_on_c, 9, 35, 94
1, 103919, Note_on_c, 9, 57, 0
1, 103920, Note_on_c, 9, 42, 50
1, 104159, Note_on_c, 9, 35, 0
1, 104159, Note_on_c, 9, 42, 0
1, 104160, Note_on_c, 9, 40, 81
1, 104160, Note_on_c, 9, 42, 66
1, 104399, Note_on_c, 9, 40, 0
1, 104399, Note_on_c, 9, 42, 0
1, 104400, Note_on_c, 9, 42, 53
1, 104400, Note_on_c, 9, 35, 93
1, 104639, Note_on_c, 9, 42, 0
1, 104639, Note_on_c, 9, 35, 0
1, 104640, Note_on_c, 9, 57, 56
1, 104640, Note_on_c, 9, 35, 96
1, 104879, Note_on_c, 9, 57, 0
1, 104880, Note_on_c, 9, 42, 52
1, 105119, Note_on_c, 9, 35, 0
1, 105119, Note_on_c, 9, 42, 0
1, 105120, Note_on_c, 9, 40, 105
1, 105120, Note_on_c, 9, 42, 75
1, 105359, Note_on_c, 9, 40, 0
1, 105359, Note_on_c, 9, 42, 0
1, 105360, Note_on_c, 9, 42, 47
1, 105360, Note_on_c, 9, 35, 87
1, 105599, Note_on_c, 9, 42, 0
1, 105599, Note_on_c, 9, 35, 0
1, 105600, Note_on_c, 9, 57, 54
1, 105600, Note_on_c, 9, 35, 95
1, 105839, Note_on_c, 9, 57, 0
1, 105840, Note_on_c, 9, 42, 39
1, 106079, Note_on_c, 9, 35, 0
1, 106079, Note_on_c, 9, 42, 0
1, 106080, Note_on_c, 9, 40, 103
1, 106080, Note_on_c, 9, 42, 71
1, 106319, Note_on_c, 9, 40, 0
1, 106319, Note_on_c, 9, 42, 0
1, 106320, Note_on_c, 9, 42, 47
1, 106320, Note_on_c, 9, 35, 90
1, 106559, Note_on_c, 9, 42, 0
1, 106559, Note_on_c, 9, 35, 0
1, 106560, Note_on_c, 9, 42, 69
1, 106560, Note_on_c, 9, 35, 96
1, 106799, Note_on_c, 9, 42, 0
1, 106800, Note_on_c, 9, 42, 45
1, 107039, Note_on_c, 9, 35, 0
1, 107039, Note_on_c, 9, 42, 0
1, 107040, Note_on_c, 9, 40, 97
1, 107040, Note_on_c, 9, 42, 75
1, 107279, Note_on_c, 9, 40, 0
1, 107279, Note_on_c, 9, 42, 0
1, 107280, Note_on_c, 9, 42, 49
1, 107280, Note_on_c, 9, 35, 92
1, 107519, Note_on_c, 9, 42, 0
1, 107519, Note_on_c, 9, 35, 0
1, 107520, Note_on_c, 9, 42, 66
1, 107520, Note_on_c, 9, 35, 97
1, 107759, Note_on_c, 9, 42, 0
1, 107760, Note_on_c, 9, 42, 43
1, 107999, Note_on_c, 9, 35, 0
1, 107999, Note_on_c, 9, 42, 0
1, 108000, Note_on_c, 9, 40, 91
1, 108000, Note_on_c, 9, 42, 66
1, 108239, Note_on_c, 9, 40, 0
1, 108239, Note_on_c, 9, 42, 0
1, 108240, Note_on_c, 9, 42, 43
1, 108240, Note_on_c, 9, 35, 90
1, 108479, Note_on_c, 9, 42, 0
1, 108479, Note_on_c, 9, 35, 0
1, 108480, Note_on_c, 9, 42, 64
1, 108480, Note_on_c, 9, 35, 97
1, 108719, Note_on_c, 9, 42, 0
1, 108720, Note_on_c, 9, 42, 46
1, 108959, Note_on_c, 9, 35, 0
1, 108959, Note_on_c, 9, 42, 0
1, 108960, Note_on_c, 9, 40, 95
1, 108960, Note_on_c, 9, 42, 67
1, 109199, Note_on_c, 9, 40, 0
1, 109199, Note_on_c, 9, 42, 0
1, 109200, Note_on_c, 9, 42, 49
1, 109200, Note_on_c, 9, 35, 91
1, 109439, Note_on_c, 9, 42, 0
1, 109439, Note_on_c, 9, 35, 0
1, 109440, Note_on_c, 9, 42, 63
1, 109440, Note_on_c, 9, 35, 100
1, 109679, Note_on_c, 9, 42, 0
1, 109680, Note_on_c, 9, 42, 47
1, 109919, Note_on_c, 9, 35, 0
1, 109919, Note_on_c, 9, 42, 0
1, 109920, Note_on_c, 9, 40, 94
1, 109920, Note_on_c, 9, 42, 64
1, 110159, Note_on_c, 9, 40, 0
1, 110159, Note_on_c, 9, 42, 0
1, 110160, Note_on_c, 9, 42, 48
1, 110160, Note_on_c, 9, 35, 93
1, 110399, Note_on_c, 9, 42, 0
1, 110399, Note_on_c, 9, 35, 0
1, 110400, Note_on_c, 9, 42, 60
1, 110400, Note_on_c, 9, 35, 99
1, 110639, Note_on_c, 9, 42, 0
1, 110640, Note_on_c, 9, 46, 52
1, 110879, Note_on_c, 9, 35, 0
1, 110879, Note_on_c, 9, 46, 0
1, 110880, Note_on_c, 9, 40, 85
1, 110880, Note_on_c, 9, 42, 77
1, 111119, Note_on_c, 9, 40, 0
1, 111119, Note_on_c, 9, 42, 0
1, 111120, Note_on_c, 9, 42, 46
1, 111120, Note_on_c, 9, 35, 92
1, 111359, Note_on_c, 9, 42, 0
1, 111359, Note_on_c, 9, 35, 0
1, 111360, Note_on_c, 9, 57, 48
1, 111360, Note_on_c, 9, 35, 94
1, 111599, Note_on_c, 9, 57, 0
1, 111600, Note_on_c, 9, 42, 50
1, 111839, Note_on_c, 9, 35, 0
1, 111839, Note_on_c, 9, 42, 0
1, 111840, Note_on_c, 9, 40, 81
1, 111840, Note_on_c, 9, 42, 66
1, 112079, Note_on_c, 9, 40, 0
1, 112079, Note_on_c, 9, 42, 0
1, 112080, Note_on_c, 9, 42, 53
1, 112080, Note_on_c, 9, 35, 93
1, 112319, Note_on_c, 9, 42, 0
1, 112319, Note_on_c, 9, 35, 0
1, 112320, Note_on_c, 9, 42, 71
1, 112320, Note_on_c, 9, 35, 96
1, 112559, Note_on_c, 9, 42, 0
1, 112560, Note_on_c, 9, 42, 52
1, 112799, Note_on_c, 9, 35, 0
1, 112799, Note_on_c, 9, 42, 0
1, 112800, Note_on_c, 9, 40, 105
1, 112800, Note_on_c, 9, 42, 75
1, 113039, Note_on_c, 9, 40, 0
1, 113039, Note_on_c, 9, 42, 0
1, 113040, Note_on_c, 9, 42, 47
1, 113040, Note_on_c, 9, 35, 87
1, 113279, Note_on_c, 9, 42, 0
1, 113279, Note_on_c, 9, 35, 0
1, 113280, Note_on_c, 9, 42, 69
1, 113280, Note_on_c, 9, 35, 95
1, 113519, Note_on_c, 9, 42, 0
1, 113520, Note_on_c, 9, 42, 39
1, 113759, Note_on_c, 9, 35, 0
1, 113759, Note_on_c, 9, 42, 0
1, 113760, Note_on_c, 9, 40, 103
1, 113760, Note_on_c, 9, 42, 71
1, 113999, Note_on_c, 9, 40, 0
1, 113999, Note_on_c, 9, 42, 0
1, 114000, Note_on_c, 9, 42, 47
1, 114000, Note_on_c, 9, 35, 90
1, 114239, Note_on_c, 9, 42, 0
1, 114239, Note_on_c, 9, 35, 0
1, 114240, Note_on_c, 9, 42, 69
1, 114240, Note_on_c, 9, 35, 96
1, 114479, Note_on_c, 9, 42, 0
1, 114480, Note_on_c, 9, 42, 45
1, 114719, Note_on_c, 9, 35, 0
1, 114719, Note_on_c, 9, 42, 0
1, 114720, Note_on_c, 9, 40, 97
1, 114720, Note_on_c, 9, 42, 75
1, 114959, Note_on_c, 9, 40, 0
1, 114959, Note_on_c, 9, 42, 0
1, 114960, Note_on_c, 9, 42, 49
1, 114960, Note_on_c, 9, 35, 92
1, 115199, Note_on_c, 9, 42, 0
1, 115199, Note_on_c, 9, 35, 0
1, 115200, Note_on_c, 9, 42, 66
1, 115200, Note_on_c, 9, 35, 97
1, 115439, Note_on_c, 9, 42, 0
1, 115440, Note_on_c, 9, 42, 43
1, 115679, Note_on_c, 9, 35, 0
1, 115679, Note_on_c, 9, 42, 0
1, 115680, Note_on_c, 9, 40, 91
1, 115680, Note_on_c, 9, 42, 66
1, 115919, Note_on_c, 9, 40, 0
1, 115919, Note_on_c, 9, 42, 0
1, 115920, Note_on_c, 9, 42, 43
1, 115920, Note_on_c, 9, 35, 90
1, 116159, Note_on_c, 9, 42, 0
1, 116159, Note_on_c, 9, 35, 0
1, 116160, Note_on_c, 9, 42, 64
1, 116160, Note_on_c, 9, 35, 97
1, 116399, Note_on_c, 9, 42, 0
1, 116400, Note_on_c, 9, 42, 46
1, 116639, Note_on_c, 9, 35, 0
1, 116639, Note_on_c, 9, 42, 0
1, 116640, Note_on_c, 9, 40, 95
1, 116640, Note_on_c, 9, 42, 67
1, 116879, Note_on_c, 9, 40, 0
1, 116879, Note_on_c, 9, 42, 0
1, 116880, Note_on_c, 9, 42, 49
1, 116880, Note_on_c, 9, 35, 91
1, 117119, Note_on_c, 9, 42, 0
1, 117119, Note_on_c, 9, 35, 0
1, 117120, Note_on_c, 9, 42, 63
1, 117120, Note_on_c, 9, 35, 100
1, 117359, Note_on_c, 9, 42, 0
1, 117360, Note_on_c, 9, 42, 47
1, 117599, Note_on_c, 9, 35, 0
1, 117599, Note_on_c, 9, 42, 0
1, 117600, Note_on_c, 9, 40, 94
1, 117600, Note_on_c, 9, 42, 64
1, 117839, Note_on_c, 9, 40, 0
1, 117839, Note_on_c, 9, 42, 0
1, 117840, Note_on_c, 9, 42, 48
1, 117840, Note_on_c, 9, 35, 93
1, 118079, Note_on_c, 9, 42, 0
1, 118079, Note_on_c, 9, 35, 0
1, 118080, Note_on_c, 9, 42, 60
1, 118080, Note_on_c, 9, 35, 99
1, 118319, Note_on_c, 9, 42, 0
1, 118320, Note_on_c, 9, 42, 52
1, 118559, Note_on_c, 9, 35, 0
1, 118559, Note_on_c, 9, 42, 0
1, 118560, Note_on_c, 9, 40, 85
1, 118560, Note_on_c, 9, 42, 77
1, 118799, Note_on_c, 9, 40, 0
1, 118799, Note_on_c, 9, 42, 0
1, 118800, Note_on_c, 9, 42, 46
1, 118800, Note_on_c, 9, 35, 92
1, 119039, Note_on_c, 9, 42, 0
1, 119039, Note_on_c, 9, 35, 0
1, 119040, Note_on_c, 9, 42, 63
1, 119040, Note_on_c, 9, 35, 94
1, 119279, Note_on_c, 9, 42, 0
1, 119280, Note_on_c, 9, 42, 50
1, 119519, Note_on_c, 9, 35, 0
1, 119519, Note_on_c, 9, 42, 0
1, 119520, Note_on_c, 9, 40, 81
1, 119520, Note_on_c, 9, 42, 66
1, 119759, Note_on_c, 9, 40, 0
1, 119759, Note_on_c, 9, 42, 0
1, 119760, Note_on_c, 9, 42, 53
1, 119760, Note_on_c, 9, 35, 93
1, 119999, Note_on_c, 9, 42, 0
1, 119999, Note_on_c, 9, 35, 0
1, 120000, Note_on_c, 9, 42, 71
1, 120000, Note_on_c, 9, 35, 96
1, 120239, Note_on_c, 9, 42, 0
1, 120240, Note_on_c, 9, 42, 52
1, 120479, Note_on_c, 9, 35, 0
1, 120479, Note_on_c, 9, 42, 0
1, 120480, Note_on_c, 9, 40, 105
1, 120480, Note_on_c, 9, 42, 75
1, 120719, Note_on_c, 9, 40, 0
1, 120719, Note_on_c, 9, 42, 0
1, 120720, Note_on_c, 9, 42, 47
1, 120720, Note_on_c, 9, 35, 87
1, 120959, Note_on_c, 9, 42, 0
1, 120959, Note_on_c, 9, 35, 0
1, 120960, Note_on_c, 9, 42, 69
1, 120960, Note_on_c, 9, 35, 95
1, 121199, Note_on_c, 9, 42, 0
1, 121200, Note_on_c, 9, 42, 39
1, 121439, Note_on_c, 9, 35, 0
1, 121439, Note_on_c, 9, 42, 0
1, 121440, Note_on_c, 9, 40, 103
1, 121440, Note_on_c, 9, 42, 71
1, 121679, Note_on_c, 9, 40, 0
1, 121679, Note_on_c, 9, 42, 0
1, 121680, Note_on_c, 9, 42, 47
1, 121680, Note_on_c, 9, 35, 90
1, 121919, Note_on_c, 9, 42, 0
1, 121919, Note_on_c, 9, 35, 0
1, 121920, Note_on_c, 9, 42, 69
1, 121920, Note_on_c, 9, 35, 96
1, 122159, Note_on_c, 9, 42, 0
1, 122160, Note_on_c, 9, 42, 45
1, 122399, Note_on_c, 9, 35, 0
1, 122399, Note_on_c, 9, 42, 0
1, 122400, Note_on_c, 9, 40, 97
1, 122400, Note_on_c, 9, 42, 75
1, 122639, Note_on_c, 9, 40, 0
1, 122639, Note_on_c, 9, 42, 0
1, 122640, Note_on_c, 9, 42, 49
1, 122640, Note_on_c, 9, 35, 92
1, 122879, Note_on_c, 9, 42, 0
1, 122879, Note_on_c, 9, 35, 0
1, 122880, Note_on_c, 9, 42, 66
1, 122880, Note_on_c, 9, 35, 97
1, 123119, Note_on_c, 9, 42, 0
1, 123120, Note_on_c, 9, 42, 43
1, 123359, Note_on_c, 9, 35, 0
1, 123359, Note_on_c, 9, 42, 0
1, 123360, Note_on_c, 9, 40, 91
1, 123360, Note_on_c, 9, 42, 66
1, 123599, Note_on_c, 9, 40, 0
1, 123599, Note_on_c, 9, 42, 0
1, 123600, Note_on_c, 9, 42, 43
1, 123600, Note_on_c, 9, 35, 90
1, 123839, Note_on_c, 9, 42, 0
1, 123839, Note_on_c, 9, 35, 0
1, 123840, Note_on_c, 9, 42, 64
1, 123840, Note_on_c, 9, 35, 97
1, 124079, Note_on_c, 9, 42, 0
1, 124080, Note_on_c, 9, 42, 46
1, 124319, Note_on_c, 9, 35, 0
1, 124319, Note_on_c, 9, 42, 0
1, 124320, Note_on_c, 9, 40, 95
1, 124320, Note_on_c, 9, 42, 67
1, 124559, Note_on_c, 9, 40, 0
1, 124559, Note_on_c, 9, 42, 0
1, 124560, Note_on_c, 9, 42, 49
1, 124560, Note_on_c, 9, 35, 91
1, 124799, Note_on_c, 9, 42, 0
1, 124799, Note_on_c, 9, 35, 0
1, 124800, Note_on_c, 9, 42, 63
1, 124800, Note_on_c, 9, 35, 100
1, 125039, Note_on_c, 9, 42, 0
1, 125040, Note_on_c, 9, 42, 47
1, 125279, Note_on_c, 9, 35, 0
1, 125279, Note_on_c, 9, 42, 0
1, 125280, Note_on_c, 9, 40, 94
1, 125280, Note_on_c, 9, 42, 64
1, 125519, Note_on_c, 9, 40, 0
1, 125519, Note_on_c, 9, 42, 0
1, 125520, Note_on_c, 9, 42, 48
1, 125520, Note_on_c, 9, 35, 93
1, 125759, Note_on_c, 9, 42, 0
1, 125759, Note_on_c, 9, 35, 0
1, 125760, Note_on_c, 9, 42, 60
1, 125760, Note_on_c, 9, 35, 99
1, 125999, Note_on_c, 9, 42, 0
1, 126000, Note_on_c, 9, 42, 52
1, 126239, Note_on_c, 9, 35, 0
1, 126239, Note_on_c, 9, 42, 0
1, 126240, Note_on_c, 9, 40, 85
1, 126240, Note_on_c, 9, 42, 77
1, 126479, Note_on_c, 9, 40, 0
1, 126479, Note_on_c, 9, 42, 0
1, 126480, Note_on_c, 9, 42, 46
1, 126480, Note_on_c, 9, 35, 92
1, 126719, Note_on_c, 9, 42, 0
1, 126719, Note_on_c, 9, 35, 0
1, 126720, Note_on_c, 9, 57, 48
1, 126720, Note_on_c, 9, 35, 94
1, 126959, Note_on_c, 9, 57, 0
1, 126960, Note_on_c, 9, 42, 50
1, 127199, Note_on_c, 9, 35, 0
1, 127199, Note_on_c, 9, 42, 0
1, 127200, Note_on_c, 9, 40, 81
1, 127200, Note_on_c, 9, 42, 66
1, 127439, Note_on_c, 9, 40, 0
1, 127439, Note_on_c, 9, 42, 0
1, 127440, Note_on_c, 9, 42, 53
1, 127440, Note_on_c, 9, 35, 93
1, 127679, Note_on_c, 9, 42, 0
1, 127679, Note_on_c, 9, 35, 0
1, 127680, Note_on_c, 9, 42, 71
1, 127680, Note_on_c, 9, 35, 96
1, 127919, Note_on_c, 9, 42, 0
1, 127920, Note_on_c, 9, 42, 52
1, 128159, Note_on_c, 9, 35, 0
1, 128159, Note_on_c, 9, 42, 0
1, 128160, Note_on_c, 9, 40, 105
1, 128160, Note_on_c, 9, 42, 75
1, 128399, Note_on_c, 9, 40, 0
1, 128399, Note_on_c, 9, 42, 0
1, 128400, Note_on_c, 9, 42, 47
1, 128400, Note_on_c, 9, 35, 87
1, 128639, Note_on_c, 9, 42, 0
1, 128639, Note_on_c, 9, 35, 0
1, 128640, Note_on_c, 9, 42, 69
1, 128640, Note_on_c, 9, 35, 95
1, 128879, Note_on_c, 9, 42, 0
1, 128880, Note_on_c, 9, 42, 39
1, 129119, Note_on_c, 9, 35, 0
1, 129119, Note_on_c, 9, 42, 0
1, 129120, Note_on_c, 9, 40, 103
1, 129120, Note_on_c, 9, 42, 71
1, 129359, Note_on_c, 9, 40, 0
1, 129359, Note_on_c, 9, 42, 0
1, 129360, Note_on_c, 9, 42, 47
1, 129360, Note_on_c, 9, 35, 90
1, 129599, Note_on_c, 9, 42, 0
1, 129599, Note_on_c, 9, 35, 0
1, 129600, Note_on_c, 9, 42, 69
1, 129600, Note_on_c, 9, 35, 96
1, 129839, Note_on_c, 9, 42, 0
1, 129840, Note_on_c, 9, 42, 45
1, 130079, Note_on_c, 9, 35, 0
1, 130079, Note_on_c, 9, 42, 0
1, 130080, Note_on_c, 9, 40, 97
1, 130080, Note_on_c, 9, 42, 75
1, 130319, Note_on_c, 9, 40, 0
1, 130319, Note_on_c, 9, 42, 0
1, 130320, Note_on_c, 9, 42, 49
1, 130320, Note_on_c, 9, 35, 92
1, 130559, Note_on_c, 9, 42, 0
1, 130559, Note_on_c, 9, 35, 0
1, 130560, Note_on_c, 9, 46, 66
1, 130560, Note_on_c, 9, 35, 97
1, 131039, Note_on_c, 9, 46, 0
1, 131039, Note_on_c, 9, 35, 0
1, 131040, Note_on_c, 9, 40, 91
1, 131040, Note_on_c, 9, 42, 66
1, 131279, Note_on_c, 9, 40, 0
1, 131279, Note_on_c, 9, 42, 0
1, 131280, Note_on_c, 9, 42, 43
1, 131280, Note_on_c, 9, 35, 90
1, 131519, Note_on_c, 9, 42, 0
1, 131519, Note_on_c, 9, 35, 0
1, 131520, Note_on_c, 9, 42, 64
1, 131520, Note_on_c, 9, 35, 97
1, 131759, Note_on_c, 9, 42, 0
1, 131760, Note_on_c, 9, 42, 46
1, 131999, Note_on_c, 9, 35, 0
1, 131999, Note_on_c, 9, 42, 0
1, 132000, Note_on_c, 9, 40, 95
1, 132000, Note_on_c, 9, 42, 67
1, 132239, Note_on_c, 9, 40, 0
1, 132239, Note_on_c, 9, 42, 0
1, 132240, Note_on_c, 9, 42, 49
1, 132240, Note_on_c, 9, 35, 91
1, 132479, Note_on_c, 9, 42, 0
1, 132479, Note_on_c, 9, 35, 0
1, 132480, Note_on_c, 9, 42, 63
1, 132480, Note_on_c, 9, 35, 100
1, 132719, Note_on_c, 9, 42, 0
1, 132720, Note_on_c, 9, 42, 47
1, 132959, Note_on_c, 9, 35, 0
1, 132959, Note_on_c, 9, 42, 0
1, 132960, Note_on_c, 9, 40, 94
1, 132960, Note_on_c, 9, 42, 64
1, 133199, Note_on_c, 9, 40, 0
1, 133199, Note_on_c, 9, 42, 0
1, 133200, Note_on_c, 9, 42, 48
1, 133200, Note_on_c, 9, 35, 93
1, 133439, Note_on_c, 9, 42, 0
1, 133439, Note_on_c, 9, 35, 0
1, 133440, Note_on_c, 9, 42, 60
1, 133440, Note_on_c, 9, 35, 99
1, 133679, Note_on_c, 9, 42, 0
1, 133680, Note_on_c, 9, 42, 52
1, 133919, Note_on_c, 9, 35, 0
1, 133919, Note_on_c, 9, 42, 0
1, 133920, Note_on_c, 9, 40, 85
1, 133920, Note_on_c, 9, 42, 77
1, 134159, Note_on_c, 9, 40, 0
1, 134159, Note_on_c, 9, 42, 0
1, 134160, Note_on_c, 9, 42, 46
1, 134160, Note_on_c, 9, 35, 92
1, 134399, Note_on_c, 9, 42, 0
1, 134399, Note_on_c, 9, 35, 0
1, 134400, Note_on_c, 9, 57, 48
1, 134400, Note_on_c, 9, 35, 94
1, 134639, Note_on_c, 9, 57, 0
1, 134640, Note_on_c, 9, 42, 50
1, 134879, Note_on_c, 9, 35, 0
1, 134879, Note_on_c, 9, 42, 0
1, 134880, Note_on_c, 9, 40, 81
1, 134880, Note_on_c, 9, 42, 66
1, 135119, Note_on_c, 9, 40, 0
1, 135119, Note_on_c, 9, 42, 0
1, 135120, Note_on_c, 9, 42, 53
1, 135120, Note_on_c, 9, 35, 93
1, 135359, Note_on_c, 9, 42, 0
1, 135359, Note_on_c, 9, 35, 0
1, 135360, Note_on_c, 9, 57, 56
1, 135360, Note_on_c, 9, 35, 96
1, 135599, Note_on_c, 9, 57, 0
1, 135600, Note_on_c, 9, 42, 52
1, 135839, Note_on_c, 9, 35, 0
1, 135839, Note_on_c, 9, 42, 0
1, 135840, Note_on_c, 9, 40, 105
1, 135840, Note_on_c, 9, 42, 75
1, 136079, Note_on_c, 9, 40, 0
1, 136079, Note_on_c, 9, 42, 0
1, 136080, Note_on_c, 9, 42, 47
1, 136080, Note_on_c, 9, 35, 87
1, 136319, Note_on_c, 9, 42, 0
1, 136319, Note_on_c, 9, 35, 0
1, 136320, Note_on_c, 9, 57, 54
1, 136320, Note_on_c, 9, 35, 95
1, 136559, Note_on_c, 9, 57, 0
1, 136560, Note_on_c, 9, 42, 39
1, 136799, Note_on_c, 9, 35, 0
1, 136799, Note_on_c, 9, 42, 0
1, 136800, Note_on_c, 9, 40, 103
1, 136800, Note_on_c, 9, 42, 71
1, 137039, Note_on_c, 9, 40, 0
1, 137039, Note_on_c, 9, 42, 0
1, 137040, Note_on_c, 9, 42, 47
1, 137040, Note_on_c, 9, 35, 90
1, 137279, Note_on_c, 9, 42, 0
1, 137279, Note_on_c, 9, 35, 0
1, 137280, Note_on_c, 9, 42, 69
1, 137280, Note_on_c, 9, 35, 96
1, 137519, Note_on_c, 9, 42, 0
1, 137520, Note_on_c, 9, 42, 45
1, 137759, Note_on_c, 9, 35, 0
1, 137759, Note_on_c, 9, 42, 0
1, 137760, Note_on_c, 9, 40, 97
1, 137760, Note_on_c, 9, 42, 75
1, 137999, Note_on_c, 9, 40, 0
1, 137999, Note_on_c, 9, 42, 0
1, 138000, Note_on_c, 9, 42, 49
1, 138000, Note_on_c, 9, 35, 92
1, 138239, Note_on_c, 9, 42, 0
1, 138239, Note_on_c, 9, 35, 0
1, 138240, Note_on_c, 9, 42, 66
1, 138240, Note_on_c, 9, 35, 97
1, 138479, Note_on_c, 9, 42, 0
1, 138480, Note_on_c, 9, 42, 43
1, 138719, Note_on_c, 9, 35, 0
1, 138719, Note_on_c, 9, 42, 0
1, 138720, Note_on_c, 9, 40, 91
1, 138720, Note_on_c, 9, 42, 66
1, 138959, Note_on_c, 9, 40, 0
1, 138959, Note_on_c, 9, 42, 0
1, 138960, Note_on_c, 9, 42, 43
1, 138960, Note_on_c, 9, 35, 90
1, 139199, Note_on_c, 9, 42, 0
1, 139199, Note_on_c, 9, 35, 0
1, 139200, Note_on_c, 9, 42, 64
1, 139200, Note_on_c, 9, 35, 97
1, 139439, Note_on_c, 9, 42, 0
1, 139440, Note_on_c, 9, 42, 46
1, 139679, Note_on_c, 9, 35, 0
1, 139679, Note_on_c, 9, 42, 0
1, 139680, Note_on_c, 9, 40, 95
1, 139680, Note_on_c, 9, 42, 67
1, 139919, Note_on_c, 9, 40, 0
1, 139919, Note_on_c, 9, 42, 0
1, 139920, Note_on_c, 9, 42, 49
1, 139920, Note_on_c, 9, 35, 91
1, 140159, Note_on_c, 9, 42, 0
1, 140159, Note_on_c, 9, 35, 0
1, 140160, Note_on_c, 9, 42, 63
1, 140160, Note_on_c, 9, 35, 100
1, 140399, Note_on_c, 9, 42, 0
1, 140400, Note_on_c, 9, 42, 47
1, 140639, Note_on_c, 9, 35, 0
1, 140639, Note_on_c, 9, 42, 0
1, 140640, Note_on_c, 9, 40, 94
1, 140640, Note_on_c, 9, 42, 64
1, 140879, Note_on_c, 9, 40, 0
1, 140879, Note_on_c, 9, 42, 0
1, 140880, Note_on_c, 9, 42, 48
1, 140880, Note_on_c, 9, 35, 93
1, 141119, Note_on_c, 9, 42, 0
1, 141119, Note_on_c, 9, 35, 0
1, 141120, Note_on_c, 9, 42, 60
1, 141120, Note_on_c, 9, 35, 99
1, 141359, Note_on_c, 9, 42, 0
1, 141360, Note_on_c, 9, 46, 52
1, 141599, Note_on_c, 9, 35, 0
1, 141599, Note_on_c, 9, 46, 0
1, 141600, Note_on_c, 9, 40, 85
1, 141600, Note_on_c, 9, 42, 77
1, 141839, Note_on_c, 9, 40, 0
1, 141839, Note_on_c, 9, 42, 0
1, 141840, Note_on_c, 9, 42, 46
1, 141840, Note_on_c, 9, 35, 92
1, 142079, Note_on_c, 9, 42, 0
1, 142079, Note_on_c, 9, 35, 0
1, 142080, Note_on_c, 9, 57, 48
1, 142080, Note_on_c, 9, 35, 94
1, 142319, Note_on_c, 9, 57, 0
1, 142320, Note_on_c, 9, 42, 50
1, 142559, Note_on_c, 9, 35, 0
1, 142559, Note_on_c, 9, 42, 0
1, 142560, Note_on_c, 9, 40, 81
1, 142560, Note_on_c, 9, 42, 66
1, 142799, Note_on_c, 9, 40, 0
1, 142799, Note_on_c, 9, 42, 0
1, 142800, Note_on_c, 9, 42, 53
1, 142800, Note_on_c, 9, 35, 93
1, 143039, Note_on_c, 9, 42, 0
1, 143039, Note_on_c, 9, 35, 0
1, 143040, Note_on_c, 9, 42, 71
1, 143040, Note_on_c, 9, 35, 96
1, 143279, Note_on_c, 9, 42, 0
1, 143280, Note_on_c, 9, 42, 52
1, 143519, Note_on_c, 9, 35, 0
1, 143519, Note_on_c, 9, 42, 0
1, 143520, Note_on_c, 9, 40, 105
1, 143520, Note_on_c, 9, 42, 75
1, 143759, Note_on_c, 9, 40, 0
1, 143759, Note_on_c, 9, 42, 0
1, 143760, Note_on_c, 9, 42, 47
1, 143760, Note_on_c, 9, 35, 87
1, 143999, Note_on_c, 9, 42, 0
1, 143999, Note_on_c, 9, 35, 0
1, 144000, Note_on_c, 9, 42, 69
1, 144000, Note_on_c, 9, 35, 95
1, 144239, Note_on_c, 9, 42, 0
1, 144240, Note_on_c, 9, 42, 39
1, 144479, Note_on_c, 9, 35, 0
1, 144479, Note_on_c, 9, 42, 0
1, 144480, Note_on_c, 9, 40, 103
1, 144480, Note_on_c, 9, 42, 71
1, 144719, Note_on_c, 9, 40, 0
1, 144719, Note_on_c, 9, 42, 0
1, 144720, Note_on_c, 9, 42, 47
1, 144720, Note_on_c, 9, 35, 90
1, 144959, Note_on_c, 9, 42, 0
1, 144959, Note_on_c, 9, 35, 0
1, 144960, Note_on_c, 9, 42, 69
1, 144960, Note_on_c, 9, 35, 96
1, 145199, Note_on_c, 9, 42, 0
1, 145200, Note_on_c, 9, 42, 45
1, 145439, Note_on_c, 9, 35, 0
1, 145439, Note_on_c, 9, 42, 0
1, 145440, Note_on_c, 9, 40, 97
1, 145440, Note_on_c, 9, 42, 75
1, 145679, Note_on_c, 9, 40, 0
1, 145679, Note_on_c, 9, 42, 0
1, 145680, Note_on_c, 9, 42, 49
1, 145680, Note_on_c, 9, 35, 92
1, 145919, Note_on_c, 9, 42, 0
1, 145919, Note_on_c, 9, 35, 0
1, 145920, Note_on_c, 9, 46, 66
1, 145920, Note_on_c, 9, 35, 97
1, 146399, Note_on_c, 9, 46, 0
1, 146399, Note_on_c, 9, 35, 0
1, 146400, Note_on_c, 9, 40, 91
1, 146400, Note_on_c, 9, 42, 66
1, 146639, Note_on_c, 9, 40, 0
1, 146639, Note_on_c, 9, 42, 0
1, 146640, Note_on_c, 9, 42, 43
1, 146640, Note_on_c, 9, 35, 90
1, 146879, Note_on_c, 9, 42, 0
1, 146879, Note_on_c, 9, 35, 0
1, 146880, Note_on_c, 9, 42, 64
1, 146880, Note_on_c, 9, 35, 97
1, 147119, Note_on_c, 9, 42, 0
1, 147120, Note_on_c, 9, 42, 46
1, 147359, Note_on_c, 9, 35, 0
1, 147359, Note_on_c, 9, 42, 0
1, 147360, Note_on_c, 9, 40, 95
1, 147360, Note_on_c, 9, 42, 67
1, 147599, Note_on_c, 9, 40, 0
1, 147599, Note_on_c, 9, 42, 0
1, 147600, Note_on_c, 9, 42, 49
1, 147600, Note_on_c, 9, 35, 91
1, 147839, Note_on_c, 9, 42, 0
1, 147839, Note_on_c, 9, 35, 0
1, 147840, Note_on_c, 9, 42, 63
1, 147840, Note_on_c, 9, 35, 100
1, 148079, Note_on_c, 9, 42, 0
1, 148080, Note_on_c, 9, 42, 47
1, 148319, Note_on_c, 9, 35, 0
1, 148319, Note_on_c, 9, 42, 0
1, 148320, Note_on_c, 9, 40, 94
1, 148320, Note_on_c, 9, 42, 64
1, 148559, Note_on_c, 9, 40, 0
1, 148559, Note_on_c, 9, 42, 0
1, 148560, Note_on_c, 9, 42, 48
1, 148560, Note_on_c, 9, 35, 93
1, 148799, Note_on_c, 9, 42, 0
1, 148799, Note_on_c, 9, 35, 0
1, 148800, Note_on_c, 9, 42, 60
1, 148800, Note_on_c, 9, 35, 99
1, 149039, Note_on_c, 9, 42, 0
1, 149040, Note_on_c, 9, 42, 52
1, 149279, Note_on_c, 9, 35, 0
1, 149279, Note_on_c, 9, 42, 0
1, 149280, Note_on_c, 9, 40, 85
1, 149280, Note_on_c, 9, 42, 77
1, 149519, Note_on_c, 9, 40, 0
1, 149519, Note_on_c, 9, 42, 0
1, 149520, Note_on_c, 9, 42, 46
1, 149520, Note_on_c, 9, 35, 92
1, 149759, Note_on_c, 9, 42, 0
1, 149759, Note_on_c, 9, 35, 0
1, 149760, Note_on_c, 9, 57, 48
1, 149760, Note_on_c, 9, 35, 94
1, 149999, Note_on_c, 9, 57, 0
1, 150000, Note_on_c, 9, 42, 50
1, 150239, Note_on_c, 9, 35, 0
1, 150239, Note_on_c, 9, 42, 0
1, 150240, Note_on_c, 9, 40, 81
1, 150240, Note_on_c, 9, 42, 66
1, 150479, Note_on_c, 9, 40, 0
1, 150479, Note_on_c, 9, 42, 0
1, 150480, Note_on_c, 9, 42, 53
1, 150480, Note_on_c, 9, 35, 93
1, 150719, Note_on_c, 9, 42, 0
1, 150719, Note_on_c, 9, 35, 0
1, 150720, Note_on_c, 9, 57, 56
1, 150720, Note_on_c, 9, 35, 96
1, 150959, Note_on_c, 9, 57, 0
1, 150960, Note_on_c, 9, 42, 52
1, 151199, Note_on_c, 9, 35, 0
1, 151199, Note_on_c, 9, 42, 0
1, 151200, Note_on_c, 9, 40, 105
1, 151200, Note_on_c, 9, 42, 75
1, 151439, Note_on_c, 9, 40, 0
1, 151439, Note_on_c, 9, 42, 0
1, 151440, Note_on_c, 9, 42, 47
1, 151440, Note_on_c, 9, 35, 87
1, 151679, Note_on_c, 9, 42, 0
1, 151679, Note_on_c, 9, 35, 0
1, 151680, Note_on_c, 9, 57, 54
1, 151680, Note_on_c, 9, 35, 95
1, 151919, Note_on_c, 9, 57, 0
1, 151920, Note_on_c, 9, 42, 39
1, 152159, Note_on_c, 9, 35, 0
1, 152159, Note_on_c, 9, 42, 0
1, 152160, Note_on_c, 9, 40, 103
1, 152160, Note_on_c, 9, 42, 71
1, 152399, Note_on_c, 9, 40, 0
1, 152399, Note_on_c, 9, 42, 0
1, 152400, Note_on_c, 9, 42, 47
1, 152400, Note_on_c, 9, 35, 90
1, 152639, Note_on_c, 9, 42, 0
1, 152639, Note_on_c, 9, 35, 0
1, 152640, Note_on_c, 9, 42, 69
1, 152640, Note_on_c, 9, 35, 96
1, 152879, Note_on_c, 9, 42, 0
1, 152880, Note_on_c, 9, 42, 45
1, 153119, Note_on_c, 9, 35, 0
1, 153119, Note_on_c, 9, 42, 0
1, 153120, Note_on_c, 9, 40, 97
1, 153120, Note_on_c, 9, 42, 75
1, 153359, Note_on_c, 9, 40, 0
1, 153359, Note_on_c, 9, 42, 0
1, 153360, Note_on_c, 9, 42, 49
1, 153360, Note_on_c, 9, 35, 92
1, 153599, Note_on_c, 9, 42, 0
1, 153599, Note_on_c, 9, 35, 0
1, 153600, Note_on_c, 9, 42, 66
1, 153600, Note_on_c, 9, 35, 97
1, 153839, Note_on_c, 9, 42, 0
1, 153840, Note_on_c, 9, 42, 43
1, 154079, Note_on_c, 9, 35, 0
1, 154079, Note_on_c, 9, 42, 0
1, 154080, Note_on_c, 9, 40, 91
1, 154080, Note_on_c, 9, 42, 66
1, 154319, Note_on_c, 9, 40, 0
1, 154319, Note_on_c, 9, 42, 0
1, 154320, Note_on_c, 9, 42, 43
1, 154320, Note_on_c, 9, 35, 90
1, 154559, Note_on_c, 9, 42, 0
1, 154559, Note_on_c, 9, 35, 0
1, 154560, Note_on_c, 9, 42, 64
1, 154560, Note_on_c, 9, 35, 97
1, 154799, Note_on_c, 9, 42, 0
1, 154800, Note_on_c, 9, 42, 46
1, 155039, Note_on_c, 9, 35, 0
1, 155039, Note_on_c, 9, 42, 0
1, 155040, Note_on_c, 9, 40, 95
1, 155040, Note_on_c, 9, 42, 67
1, 155279, Note_on_c, 9, 40, 0
1, 155279, Note_on_c, 9, 42, 0
1, 155280, Note_on_c, 9, 42, 49
1, 155280, Note_on_c, 9, 35, 91
1, 155519, Note_on_c, 9, 42, 0
1, 155519, Note_on_c, 9, 35, 0
1, 155520, Note_on_c, 9, 42, 63
1, 155520, Note_on_c, 9, 35, 100
1, 155759, Note_on_c, 9, 42, 0
1, 155760, Note_on_c, 9, 42, 47
1, 155999, Note_on_c, 9, 35, 0
1, 155999, Note_on_c, 9, 42, 0
1, 156000, Note_on_c, 9, 40, 94
1, 156000, Note_on_c, 9, 42, 64
1, 156239, Note_on_c, 9, 40, 0
1, 156239, Note_on_c, 9, 42, 0
1, 156240, Note_on_c, 9, 42, 48
1, 156240, Note_on_c, 9, 35, 93
1, 156479, Note_on_c, 9, 42, 0
1, 156479, Note_on_c, 9, 35, 0
1, 156480, Note_on_c, 9, 42, 60
1, 156480, Note_on_c, 9, 35, 99
1, 156719, Note_on_c, 9, 42, 0
1, 156720, Note_on_c, 9, 46, 52
1, 156959, Note_on_c, 9, 35, 0
1, 156959, Note_on_c, 9, 46, 0
1, 156960, Note_on_c, 9, 40, 85
1, 156960, Note_on_c, 9, 42, 77
1, 157199, Note_on_c, 9, 40, 0
1, 157199, Note_on_c, 9, 42, 0
1, 157200, Note_on_c, 9, 42, 46
1, 157200, Note_on_c, 9, 35, 92
1, 157439, Note_on_c, 9, 42, 0
1, 157439, Note_on_c, 9, 35, 0
1, 157440, Note_on_c, 9, 53, 67
1, 157440, Note_on_c, 9, 35, 95
1, 157919, Note_on_c, 9, 53, 0
1, 157919, Note_on_c, 9, 35, 0
1, 157920, Note_on_c, 9, 40, 85
1, 157920, Note_on_c, 9, 53, 67
1, 158399, Note_on_c, 9, 40, 0
1, 158399, Note_on_c, 9, 53, 0
1, 158400, Note_on_c, 9, 53, 65
1, 158400, Note_on_c, 9, 35, 92
1, 158879, Note_on_c, 9, 53, 0
1, 158879, Note_on_c, 9, 35, 0
1, 158880, Note_on_c, 9, 40, 78
1, 158880, Note_on_c, 9, 53, 65
1, 159120, Note_on_c, 9, 35, 88
1, 159359, Note_on_c, 9, 40, 0
1, 159359, Note_on_c, 9, 53, 0
1, 159359, Note_on_c, 9, 35, 0
1, 159360, Note_on_c, 9, 53, 52
1, 159360, Note_on_c, 9, 35, 92
1, 159839, Note_on_c, 9, 53, 0
1, 159839, Note_on_c, 9, 35, 0
1, 159840, Note_on_c, 9, 40, 85
1, 159840, Note_on_c, 9, 53, 62
1, 160319, Note_on_c, 9, 40, 0
1, 160319, Note_on_c, 9, 53, 0
1, 160320, Note_on_c, 9, 53, 46
1, 160320, Note_on_c, 9, 35, 92
1, 160799, Note_on_c, 9, 53, 0
1, 160799, Note_on_c, 9, 35, 0
1, 160800, Note_on_c, 9, 40, 91
1, 160800, Note_on_c, 9, 53, 68
1, 161040, Note_on_c, 9, 35, 86
1, 161279, Note_on_c, 9, 40, 0
1, 161279, Note_on_c, 9, 53, 0
1, 161279, Note_on_c, 9, 35, 0
1, 161280, Note_on_c, 9, 53, 56
1, 161280, Note_on_c, 9, 35, 90
1, 161759, Note_on_c, 9, 53, 0
1, 161759, Note_on_c, 9, 35, 0
1, 161760, Note_on_c, 9, 40, 80
1, 161760, Note_on_c, 9, 53, 64
1, 162239, Note_on_c, 9, 40, 0
1, 162239, Note_on_c, 9, 53, 0
1, 162240, Note_on_c, 9, 53, 57
1, 162240, Note_on_c, 9, 35, 89
1, 162719, Note_on_c, 9, 53, 0
1, 162719, Note_on_c, 9, 35, 0
1, 162720, Note_on_c, 9, 40, 81
1, 162720, Note_on_c, 9, 53, 63
1, 162960, Note_on_c, 9, 35, 85
1, 163199, Note_on_c, 9, 40, 0
1, 163199, Note_on_c, 9, 53, 0
1, 163199, Note_on_c, 9, 35, 0
1, 163200, Note_on_c, 9, 53, 60
1, 163200, Note_on_c, 9, 35, 90
1, 163679, Note_on_c, 9, 53, 0
1, 163679, Note_on_c, 9, 35, 0
1, 163680, Note_on_c, 9, 40, 78
1, 163680, Note_on_c, 9, 53, 65
1, 164159, Note_on_c, 9, 40, 0
1, 164159, Note_on_c, 9, 53, 0
1, 164160, Note_on_c, 9, 53, 54
1, 164160, Note_on_c, 9, 35, 86
1, 164639, Note_on_c, 9, 53, 0
1, 164639, Note_on_c, 9, 35, 0
1, 164640, Note_on_c, 9, 40, 94
1, 164640, Note_on_c, 9, 53, 64
1, 164880, Note_on_c, 9, 35, 86
1, 165119, Note_on_c, 9, 40, 0
1, 165119, Note_on_c, 9, 53, 0
1, 165119, Note_on_c, 9, 35, 0
1, 165120, Note_on_c, 9, 53, 55
1, 165120, Note_on_c, 9, 35, 91
1, 165599, Note_on_c, 9, 53, 0
1, 165599, Note_on_c, 9, 35, 0
1, 165600, Note_on_c, 9, 40, 89
1, 165600, Note_on_c, 9, 53, 72
1, 166079, Note_on_c, 9, 40, 0
1, 166079, Note_on_c, 9, 53, 0
1, 166080, Note_on_c, 9, 53, 67
1, 166080, Note_on_c, 9, 35, 90
1, 166559, Note_on_c, 9, 53, 0
1, 166559, Note_on_c, 9, 35, 0
1, 166560, Note_on_c, 9, 40, 84
1, 166560, Note_on_c, 9, 53, 73
1, 166800, Note_on_c, 9, 35, 86
1, 167039, Note_on_c, 9, 40, 0
1, 167039, Note_on_c, 9, 53, 0
1, 167039, Note_on_c, 9, 35, 0
1, 167040, Note_on_c, 9, 53, 62
1, 167040, Note_on_c, 9, 35, 93
1, 167519, Note_on_c, 9, 53, 0
1, 167519, Note_on_c, 9, 35, 0
1, 167520, Note_on_c, 9, 40, 87
1, 167520, Note_on_c, 9, 53, 73
1, 167999, Note_on_c, 9, 40, 0
1, 167999, Note_on_c, 9, 53, 0
1, 168000, Note_on_c, 9, 53, 60
1, 168000, Note_on_c, 9, 35, 88
1, 168479, Note_on_c, 9, 53, 0
1, 168479, Note_on_c, 9, 35, 0
1, 168480, Note_on_c, 9, 40, 83
1, 168480, Note_on_c, 9, 53, 70
1, 168720, Note_on_c, 9, 35, 84
1, 168959, Note_on_c, 9, 40, 0
1, 168959, Note_on_c, 9, 53, 0
1, 168959, Note_on_c, 9, 35, 0
1, 168960, Note_on_c, 9, 53, 66
1, 168960, Note_on_c, 9, 35, 90
1, 169439, Note_on_c, 9, 53, 0
1, 169439, Note_on_c, 9, 35, 0
1, 169440, Note_on_c, 9, 40, 82
1, 169440, Note_on_c, 9, 53, 68
1, 169919, Note_on_c, 9, 40, 0
1, 169919, Note_on_c, 9, 53, 0
1, 169920, Note_on_c, 9, 53, 68
1, 169920, Note_on_c, 9, 35, 88
1, 170399, Note_on_c, 9, 53, 0
1, 170399, Note_on_c, 9, 35, 0
1, 170400, Note_on_c, 9, 40, 83
1, 170400, Note_on_c, 9, 53, 73
1, 170640, Note_on_c, 9, 35, 85
1, 170879, Note_on_c, 9, 40, 0
1, 170879, Note_on_c, 9, 53, 0
1, 170879, Note_on_c, 9, 35, 0
1, 170880, Note_on_c, 9, 53, 70
1, 170880, Note_on_c, 9, 35, 91
1, 171359, Note_on_c, 9, 53, 0
1, 171359, Note_on_c, 9, 35, 0
1, 171360, Note_on_c, 9, 40, 77
1, 171360, Note_on_c, 9, 53, 73
1, 171839, Note_on_c, 9, 40, 0
1, 171839, Note_on_c, 9, 53, 0
1, 171840, Note_on_c, 9, 53, 65
1, 171840, Note_on_c, 9, 35, 89
1, 172319, Note_on_c, 9, 53, 0
1, 172319, Note_on_c, 9, 35, 0
1, 172320, Note_on_c, 9, 40, 82
1, 172320, Note_on_c, 9, 53, 70
1, 172560, Note_on_c, 9, 35, 86
1, 172799, Note_on_c, 9, 40, 0
1, 172799, Note_on_c, 9, 53, 0
1, 172799, Note_on_c, 9, 35, 0
1, 172800, Note_on_c, 9, 53, 73
1, 172800, Note_on_c, 9, 35, 90
1, 173279, Note_on_c, 9, 53, 0
1, 173279, Note_on_c, 9, 35, 0
1, 173280, Note_on_c, 9, 40, 80
1, 173280, Note_on_c, 9, 53, 68
1, 173759, Note_on_c, 9, 40, 0
1, 173759, Note_on_c, 9, 53, 0
1, 173760, Note_on_c, 9, 53, 68
1, 173760, Note_on_c, 9, 35, 88
1, 174239, Note_on_c, 9, 53, 0
1, 174239, Note_on_c, 9, 35, 0
1, 174240, Note_on_c, 9, 40, 87
1, 174240, Note_on_c, 9, 53, 73
1, 174480, Note_on_c, 9, 35, 82
1, 174719, Note_on_c, 9, 40, 0
1, 174719, Note_on_c, 9, 53, 0
1, 174719, Note_on_c, 9, 35, 0
1, 174720, Note_on_c, 9, 53, 81
1, 174720, Note_on_c, 9, 35, 96
1, 175199, Note_on_c, 9, 53, 0
1, 175199, Note_on_c, 9, 35, 0
1, 176640, Note_on_c, 9, 42, 77
1, 176640, Note_on_c, 9, 35, 94
1, 176879, Note_on_c, 9, 42, 0
1, 176880, Note_on_c, 9, 42, 61
1, 177119, Note_on_c, 9, 35, 0
1, 177119, Note_on_c, 9, 42, 0
1, 177120, Note_on_c, 9, 40, 88
1, 177120, Note_on_c, 9, 42, 81
1, 177359, Note_on_c, 9, 40, 0
1, 177359, Note_on_c, 9, 42, 0
1, 177360, Note_on_c, 9, 42, 67
1, 177360, Note_on_c, 9, 35, 85
1, 177599, Note_on_c, 9, 42, 0
1, 177599, Note_on_c, 9, 35, 0
1, 177600, Note_on_c, 9, 42, 69
1, 177600, Note_on_c, 9, 35, 94
1, 177839, Note_on_c, 9, 42, 0
1, 177840, Note_on_c, 9, 42, 60
1, 178079, Note_on_c, 9, 35, 0
1, 178079, Note_on_c, 9, 42, 0
1, 178080, Note_on_c, 9, 40, 80
1, 178080, Note_on_c, 9, 42, 101
1, 178319, Note_on_c, 9, 40, 0
1, 178319, Note_on_c, 9, 42, 0
1, 178320, Note_on_c, 9, 42, 81
1, 178320, Note_on_c, 9, 35, 85
1, 178559, Note_on_c, 9, 42, 0
1, 178559, Note_on_c, 9, 35, 0
1, 178560, Note_on_c, 9, 42, 61
1, 178560, Note_on_c, 9, 35, 89
1, 178799, Note_on_c, 9, 42, 0
1, 178800, Note_on_c, 9, 42, 81
1, 179039, Note_on_c, 9, 35, 0
1, 179039, Note_on_c, 9, 42, 0
1, 179040, Note_on_c, 9, 40, 80
1, 179040, Note_on_c, 9, 42, 59
1, 179279, Note_on_c, 9, 40, 0
1, 179279, Note_on_c, 9, 42, 0
1, 179280, Note_on_c, 9, 42, 67
1, 179280, Note_on_c, 9, 35, 88
1, 179519, Note_on_c, 9, 42, 0
1, 179519, Note_on_c, 9, 35, 0
1, 179520, Note_on_c, 9, 42, 67
1, 179520, Note_on_c, 9, 35, 90
1, 179759, Note_on_c, 9, 42, 0
1, 179760, Note_on_c, 9, 42, 64
1, 179999, Note_on_c, 9, 35, 0
1, 179999, Note_on_c, 9, 42, 0
1, 180000, Note_on_c, 9, 40, 81
1, 180000, Note_on_c, 9, 42, 77
1, 180239, Note_on_c, 9, 40, 0
1, 180239, Note_on_c, 9, 42, 0
1, 180240, Note_on_c, 9, 42, 37
1, 180240, Note_on_c, 9, 35, 87
1, 180479, Note_on_c, 9, 42, 0
1, 180479, Note_on_c, 9, 35, 0
1, 180480, Note_on_c, 9, 42, 69
1, 180480, Note_on_c, 9, 35, 92
1, 180659, Note_on_c, 9, 42, 0
1, 180690, Note_on_c, 9, 42, 48
1, 180959, Note_on_c, 9, 35, 0
1, 180959, Note_on_c, 9, 42, 0
1, 180960, Note_on_c, 9, 40, 80
1, 180960, Note_on_c, 9, 42, 69
1, 181199, Note_on_c, 9, 40, 0
1, 181199, Note_on_c, 9, 42, 0
1, 181200, Note_on_c, 9, 42, 73
1, 181200, Note_on_c, 9, 35, 88
1, 181439, Note_on_c, 9, 42, 0
1, 181439, Note_on_c, 9, 35, 0
1, 181440, Note_on_c, 9, 42, 59
1, 181440, Note_on_c, 9, 35, 92
1, 181679, Note_on_c, 9, 42, 0
1, 181680, Note_on_c, 9, 42, 54
1, 181919, Note_on_c, 9, 35, 0
1, 181919, Note_on_c, 9, 42, 0
1, 181920, Note_on_c, 9, 40, 80
1, 181920, Note_on_c, 9, 42, 89
1, 182159, Note_on_c, 9, 40, 0
1, 182159, Note_on_c, 9, 42, 0
1, 182160, Note_on_c, 9, 42, 56
1, 182160, Note_on_c, 9, 35, 89
1, 182399, Note_on_c, 9, 42, 0
1, 182399, Note_on_c, 9, 35, 0
1, 182400, Note_on_c, 9, 42, 75
1, 182400, Note_on_c, 9, 35, 91
1, 182639, Note_on_c, 9, 42, 0
1, 182640, Note_on_c, 9, 42, 49
1, 182879, Note_on_c, 9, 35, 0
1, 182879, Note_on_c, 9, 42, 0
1, 182880, Note_on_c, 9, 40, 85
1, 182880, Note_on_c, 9, 42, 86
1, 183119, Note_on_c, 9, 40, 0
1, 183119, Note_on_c, 9, 42, 0
1, 183120, Note_on_c, 9, 42, 43
1, 183120, Note_on_c, 9, 35, 86
1, 183359, Note_on_c, 9, 42, 0
1, 183359, Note_on_c, 9, 35, 0
1, 183360, Note_on_c, 9, 42, 66
1, 183360, Note_on_c, 9, 35, 92
1, 183599, Note_on_c, 9, 42, 0
1, 183600, Note_on_c, 9, 42, 53
1, 183839, Note_on_c, 9, 35, 0
1, 183839, Note_on_c, 9, 42, 0
1, 183840, Note_on_c, 9, 40, 77
1, 183840, Note_on_c, 9, 42, 86
1, 184079, Note_on_c, 9, 40, 0
1, 184079, Note_on_c, 9, 42, 0
1, 184080, Note_on_c, 9, 42, 56
1, 184080, Note_on_c, 9, 35, 88
1, 184319, Note_on_c, 9, 42, 0
1, 184319, Note_on_c, 9, 35, 0
1, 184320, Note_on_c, 9, 42, 79
1, 184320, Note_on_c, 9, 35, 92
1, 184559, Note_on_c, 9, 42, 0
1, 184560, Note_on_c, 9, 42, 45
1, 184799, Note_on_c, 9, 35, 0
1, 184799, Note_on_c, 9, 42, 0
1, 184800, Note_on_c, 9, 40, 85
1, 184800, Note_on_c, 9, 42, 75
1, 185039, Note_on_c, 9, 40, 0
1, 185039, Note_on_c, 9, 42, 0
1, 185040, Note_on_c, 9, 42, 50
1, 185040, Note_on_c, 9, 35, 88
1, 185279, Note_on_c, 9, 42, 0
1, 185279, Note_on_c, 9, 35, 0
1, 185280, Note_on_c, 9, 42, 69
1, 185280, Note_on_c, 9, 35, 90
1, 185519, Note_on_c, 9, 42, 0
1, 185520, Note_on_c, 9, 42, 43
1, 185759, Note_on_c, 9, 35, 0
1, 185759, Note_on_c, 9, 42, 0
1, 185760, Note_on_c, 9, 40, 82
1, 185760, Note_on_c, 9, 42, 79
1, 185999, Note_on_c, 9, 40, 0
1, 185999, Note_on_c, 9, 42, 0
1, 186000, Note_on_c, 9, 42, 54
1, 186000, Note_on_c, 9, 35, 85
1, 186239, Note_on_c, 9, 42, 0
1, 186239, Note_on_c, 9, 35, 0
1, 186240, Note_on_c, 9, 42, 64
1, 186240, Note_on_c, 9, 35, 89
1, 186479, Note_on_c, 9, 42, 0
1, 186480, Note_on_c, 9, 42, 53
1, 186719, Note_on_c, 9, 35, 0
1, 186719, Note_on_c, 9, 42, 0
1, 186720, Note_on_c, 9, 40, 82
1, 186720, Note_on_c, 9, 42, 75
1, 186959, Note_on_c, 9, 40, 0
1, 186959, Note_on_c, 9, 42, 0
1, 186960, Note_on_c, 9, 42, 48
1, 186960, Note_on_c, 9, 35, 89
1, 187199, Note_on_c, 9, 42, 0
1, 187199, Note_on_c, 9, 35, 0
1, 187200, Note_on_c, 9, 42, 69
1, 187200, Note_on_c, 9, 35, 92
1, 187439, Note_on_c, 9, 42, 0
1, 187440, Note_on_c, 9, 42, 49
1, 187679, Note_on_c, 9, 35, 0
1, 187679, Note_on_c, 9, 42, 0
1, 187680, Note_on_c, 9, 40, 84
1, 187680, Note_on_c, 9, 42, 73
1, 187919, Note_on_c, 9, 40, 0
1, 187919, Note_on_c, 9, 42, 0
1, 187920, Note_on_c, 9, 42, 52
1, 187920, Note_on_c, 9, 35, 90
1, 188159, Note_on_c, 9, 42, 0
1, 188159, Note_on_c, 9, 35, 0
1, 188160, Note_on_c, 9, 42, 69
1, 188160, Note_on_c, 9, 35, 92
1, 188399, Note_on_c, 9, 42, 0
1, 188400, Note_on_c, 9, 42, 35
1, 188639, Note_on_c, 9, 35, 0
1, 188639, Note_on_c, 9, 42, 0
1, 188640, Note_on_c, 9, 40, 85
1, 188640, Note_on_c, 9, 42, 71
1, 188879, Note_on_c, 9, 40, 0
1, 188879, Note_on_c, 9, 42, 0
1, 188880, Note_on_c, 9, 42, 43
1, 188880, Note_on_c, 9, 35, 85
1, 189119, Note_on_c, 9, 42, 0
1, 189119, Note_on_c, 9, 35, 0
1, 189120, Note_on_c, 9, 42, 69
1, 189120, Note_on_c, 9, 35, 90
1, 189359, Note_on_c, 9, 42, 0
1, 189360, Note_on_c, 9, 42, 50
1, 189599, Note_on_c, 9, 35, 0
1, 189599, Note_on_c, 9, 42, 0
1, 189600, Note_on_c, 9, 40, 88
1, 189600, Note_on_c, 9, 42, 69
1, 189839, Note_on_c, 9, 40, 0
1, 189839, Note_on_c, 9, 42, 0
1, 189840, Note_on_c, 9, 42, 45
1, 189840, Note_on_c, 9, 35, 92
1, 190079, Note_on_c, 9, 42, 0
1, 190079, Note_on_c, 9, 35, 0
1, 190080, Note_on_c, 9, 42, 77
1, 190080, Note_on_c, 9, 35, 98
1, 190319, Note_on_c, 9, 42, 0
1, 190320, Note_on_c, 9, 42, 57
1, 190559, Note_on_c, 9, 35, 0
1, 190559, Note_on_c, 9, 42, 0
1, 190560, Note_on_c, 9, 42, 71
1, 190799, Note_on_c, 9, 42, 0
1, 190800, Note_on_c, 9, 46, 95
1, 191039, Note_on_c, 9, 46, 0
1, 191280, Note_on_c, 9, 40, 70
1, 191399, Note_on_c, 9, 40, 0
1, 191400, Note_on_c, 9, 40, 97
1, 191519, Note_on_c, 9, 40, 0
1, 191520, Note_on_c, 9, 40, 95
1, 191759, Note_on_c, 9, 40, 0
1, 191760, Note_on_c, 9, 40, 109
1, 191999, Note_on_c, 9, 40, 0
1, 192000, Note_on_c, 9, 55, 73
1, 192000, Note_on_c, 9, 35, 92
1, 192479, Note_on_c, 9, 55, 0
1, 192479, Note_on_c, 9, 35, 0
1, 192480, Note_on_c, 9, 40, 77
1, 192480, Note_on_c, 9, 53, 81
1, 192720, Note_on_c, 9, 35, 92
1, 192959, Note_on_c, 9, 40, 0
1, 192959, Note_on_c, 9, 53, 0
1, 192959, Note_on_c, 9, 35, 0
1, 192960, Note_on_c, 9, 53, 84
1, 192960, Note_on_c, 9, 35, 93
1, 193439, Note_on_c, 9, 53, 0
1, 193439, Note_on_c, 9, 35, 0
1, 193440, Note_on_c, 9, 40, 91
1, 193440, Note_on_c, 9, 53, 83
1, 193680, Note_on_c, 9, 35, 86
1, 193919, Note_on_c, 9, 40, 0
1, 193919, Note_on_c, 9, 53, 0
1, 193919, Note_on_c, 9, 35, 0
1, 193920, Note_on_c, 9, 53, 77
1, 193920, Note_on_c, 9, 35, 92
1, 194399, Note_on_c, 9, 53, 0
1, 194399, Note_on_c, 9, 35, 0
1, 194400, Note_on_c, 9, 40, 81
1, 194400, Note_on_c, 9, 53, 80
1, 194640, Note_on_c, 9, 35, 87
1, 194879, Note_on_c, 9, 40, 0
1, 194879, Note_on_c, 9, 53, 0
1, 194879, Note_on_c, 9, 35, 0
1, 194880, Note_on_c, 9, 53, 76
1, 194880, Note_on_c, 9, 35, 92
1, 195359, Note_on_c, 9, 53, 0
1, 195359, Note_on_c, 9, 35, 0
1, 195360, Note_on_c, 9, 40, 78
1, 195360, Note_on_c, 9, 53, 78
1, 195600, Note_on_c, 9, 35, 86
1, 195839, Note_on_c, 9, 40, 0
1, 195839, Note_on_c, 9, 53, 0
1, 195839, Note_on_c, 9, 35, 0
1, 195840, Note_on_c, 9, 53, 80
1, 195840, Note_on_c, 9, 35, 92
1, 196319, Note_on_c, 9, 53, 0
1, 196319, Note_on_c, 9, 35, 0
1, 196320, Note_on_c, 9, 40, 78
1, 196320, Note_on_c, 9, 53, 80
1, 196560, Note_on_c, 9, 35, 85
1, 196799, Note_on_c, 9, 40, 0
1, 196799, Note_on_c, 9, 53, 0
1, 196799, Note_on_c, 9, 35, 0
1, 196800, Note_on_c, 9, 53, 79
1, 196800, Note_on_c, 9, 35, 94
1, 197279, Note_on_c, 9, 53, 0
1, 197279, Note_on_c, 9, 35, 0
1, 197280, Note_on_c, 9, 40, 87
1, 197280, Note_on_c, 9, 53, 86
1, 197520, Note_on_c, 9, 35, 86
1, 197759, Note_on_c, 9, 40, 0
1, 197759, Note_on_c, 9, 53, 0
1, 197759, Note_on_c, 9, 35, 0
1, 197760, Note_on_c, 9, 53, 73
1, 197760, Note_on_c, 9, 35, 94
1, 198239, Note_on_c, 9, 53, 0
1, 198239, Note_on_c, 9, 35, 0
1, 198240, Note_on_c, 9, 40, 89
1, 198240, Note_on_c, 9, 53, 83
1, 198480, Note_on_c, 9, 35, 89
1, 198719, Note_on_c, 9, 40, 0
1, 198719, Note_on_c, 9, 53, 0
1, 198719, Note_on_c, 9, 35, 0
1, 198720, Note_on_c, 9, 53, 80
1, 198720, Note_on_c, 9, 35, 92
1, 199199, Note_on_c, 9, 53, 0
1, 199199, Note_on_c, 9, 35, 0
1, 199200, Note_on_c, 9, 40, 87
1, 199200, Note_on_c, 9, 53, 79
1, 199440, Note_on_c, 9, 35, 86
1, 199679, Note_on_c, 9, 40, 0
1, 199679, Note_on_c, 9, 53, 0
1, 199679, Note_on_c, 9, 35, 0
1, 199680, Note_on_c, 9, 53, 80
1, 199680, Note_on_c, 9, 35, 93
1, 200159, Note_on_c, 9, 53, 0
1, 200159, Note_on_c, 9, 35, 0
1, 200160, Note_on_c, 9, 40, 88
1, 200160, Note_on_c, 9, 53, 80
1, 200400, Note_on_c, 9, 35, 88
1, 200639, Note_on_c, 9, 40, 0
1, 200639, Note_on_c, 9, 53, 0
1, 200639, Note_on_c, 9, 35, 0
1, 200640, Note_on_c, 9, 53, 81
1, 200640, Note_on_c, 9, 35, 93
1, 201119, Note_on_c, 9, 53, 0
1, 201119, Note_on_c, 9, 35, 0
1, 201120, Note_on_c, 9, 40, 85
1, 201120, Note_on_c, 9, 53, 78
1, 201360, Note_on_c, 9, 35, 88
1, 201599, Note_on_c, 9, 40, 0
1, 201599, Note_on_c, 9, 53, 0
1, 201599, Note_on_c, 9, 35, 0
1, 201600, Note_on_c, 9, 53, 74
1, 201600, Note_on_c, 9, 35, 92
1, 202079, Note_on_c, 9, 53, 0
1, 202079, Note_on_c, 9, 35, 0
1, 202080, Note_on_c, 9, 40, 80
1, 202080, Note_on_c, 9, 53, 73
1, 202320, Note_on_c, 9, 35, 89
1, 202559, Note_on_c, 9, 40, 0
1, 202559, Note_on_c, 9, 53, 0
1, 202559, Note_on_c, 9, 35, 0
1, 202560, Note_on_c, 9, 53, 79
1, 202560, Note_on_c, 9, 35, 94
1, 203039, Note_on_c, 9, 53, 0
1, 203039, Note_on_c, 9, 35, 0
1, 203040, Note_on_c, 9, 40, 83
1, 203040, Note_on_c, 9, 53, 80
1, 203280, Note_on_c, 9, 35, 89
1, 203519, Note_on_c, 9, 40, 0
1, 203519, Note_on_c, 9, 53, 0
1, 203519, Note_on_c, 9, 35, 0
1, 203520, Note_on_c, 9, 53, 84
1, 203520, Note_on_c, 9, 35, 92
1, 203999, Note_on_c, 9, 53, 0
1, 203999, Note_on_c, 9, 35, 0
1, 204000, Note_on_c, 9, 40, 85
1, 204000, Note_on_c, 9, 53, 81
1, 204240, Note_on_c, 9, 35, 84
1, 204479, Note_on_c, 9, 40, 0
1, 204479, Note_on_c, 9, 53, 0
1, 204479, Note_on_c, 9, 35, 0
1, 204480, Note_on_c, 9, 53, 80
1, 204480, Note_on_c, 9, 35, 91
1, 204959, Note_on_c, 9, 53, 0
1, 204959, Note_on_c, 9, 35, 0
1, 204960, Note_on_c, 9, 40, 80
1, 204960, Note_on_c, 9, 53, 84
1, 205200, Note_on_c, 9, 35, 92
1, 205439, Note_on_c, 9, 40, 0
1, 205439, Note_on_c, 9, 53, 0
1, 205439, Note_on_c, 9, 35, 0
1, 205440, Note_on_c, 9, 53, 97
1, 205440, Note_on_c, 9, 35, 96
1, 205919, Note_on_c, 9, 53, 0
1, 205919, Note_on_c, 9, 35, 0
1, 205920, Note_on_c, 9, 40, 103
1, 206399, Note_on_c, 9, 40, 0
1, 206400, Note_on_c, 9, 45, 91
1, 206879, Note_on_c, 9, 45, 0
1, 206880, Note_on_c, 9, 43, 93
1, 207359, Note_on_c, 9, 43, 0
1, 207360, Note_on_c, 9, 53, 91
1, 207360, Note_on_c, 9, 55, 73
1, 207360, Note_on_c, 9, 35, 93
1, 207839, Note_on_c, 9, 53, 0
1, 207839, Note_on_c, 9, 55, 0
1, 207839, Note_on_c, 9, 35, 0
1, 207840, Note_on_c, 9, 40, 88
1, 207840, Note_on_c, 9, 53, 94
1, 208080, Note_on_c, 9, 35, 88
1, 208319, Note_on_c, 9, 40, 0
1, 208319, Note_on_c, 9, 53, 0
1, 208319, Note_on_c, 9, 35, 0
1, 208320, Note_on_c, 9, 53, 80
1, 208320, Note_on_c, 9, 35, 92
1, 208799, Note_on_c, 9, 53, 0
1, 208799, Note_on_c, 9, 35, 0
1, 208800, Note_on_c, 9, 40, 85
1, 208800, Note_on_c, 9, 53, 86
1, 209040, Note_on_c, 9, 35, 88
1, 209279, Note_on_c, 9, 40, 0
1, 209279, Note_on_c, 9, 53, 0
1, 209279, Note_on_c, 9, 35, 0
1, 209280, Note_on_c, 9, 53, 74
1, 209280, Note_on_c, 9, 35, 91
1, 209759, Note_on_c, 9, 53, 0
1, 209759, Note_on_c, 9, 35, 0
1, 209760, Note_on_c, 9, 40, 84
1, 209760, Note_on_c, 9, 53, 85
1, 210000, Note_on_c, 9, 35, 92
1, 210239, Note_on_c, 9, 40, 0
1, 210239, Note_on_c, 9, 53, 0
1, 210239, Note_on_c, 9, 35, 0
1, 210240, Note_on_c, 9, 53, 76
1, 210240, Note_on_c, 9, 35, 91
1, 210719, Note_on_c, 9, 53, 0
1, 210719, Note_on_c, 9, 35, 0
1, 210720, Note_on_c, 9, 40, 84
1, 210720, Note_on_c, 9, 53, 87
1, 210960, Note_on_c, 9, 35, 90
1, 211199, Note_on_c, 9, 40, 0
1, 211199, Note_on_c, 9, 53, 0
1, 211199, Note_on_c, 9, 35, 0
1, 211200, Note_on_c, 9, 53, 77
1, 211200, Note_on_c, 9, 35, 95
1, 211679, Note_on_c, 9, 53, 0
1, 211679, Note_on_c, 9, 35, 0
1, 211680, Note_on_c, 9, 40, 85
1, 211680, Note_on_c, 9, 53, 80
1, 211920, Note_on_c, 9, 35, 88
1, 212159, Note_on_c, 9, 40, 0
1, 212159, Note_on_c, 9, 53, 0
1, 212159, Note_on_c, 9, 35, 0
1, 212160, Note_on_c, 9, 53, 80
1, 212160, Note_on_c, 9, 35, 93
1, 212399, Note_on_c, 9, 53, 0
1, 212400, Note_on_c, 9, 40, 88
1, 212639, Note_on_c, 9, 35, 0
1, 212639, Note_on_c, 9, 40, 0
1, 212640, Note_on_c, 9, 53, 90
1, 212880, Note_on_c, 9, 35, 94
1, 213119, Note_on_c, 9, 53, 0
1, 213119, Note_on_c, 9, 35, 0
1, 213120, Note_on_c, 9, 53, 88
1, 213120, Note_on_c, 9, 35, 97
1, 213599, Note_on_c, 9, 53, 0
1, 213599, Note_on_c, 9, 35, 0
1, 213600, Note_on_c, 9, 40, 99
1, 213600, Note_on_c, 9, 53, 87
1, 213840, Note_on_c, 9, 35, 94
1, 214079, Note_on_c, 9, 40, 0
1, 214079, Note_on_c, 9, 53, 0
1, 214079, Note_on_c, 9, 35, 0
1, 214080, Note_on_c, 9, 53, 81
1, 214080, Note_on_c, 9, 35, 94
1, 214559, Note_on_c, 9, 53, 0
1, 214559, Note_on_c, 9, 35, 0
1, 214560, Note_on_c, 9, 40, 87
1, 214560, Note_on_c, 9, 53, 87
1, 214800, Note_on_c, 9, 35, 92
1, 215039, Note_on_c, 9, 40, 0
1, 215039, Note_on_c, 9, 53, 0
1, 215039, Note_on_c, 9, 35, 0
1, 215040, Note_on_c, 9, 53, 83
1, 215040, Note_on_c, 9, 35, 95
1, 215519, Note_on_c, 9, 53, 0
1, 215519, Note_on_c, 9, 35, 0
1, 215520, Note_on_c, 9, 40, 95
1, 215520, Note_on_c, 9, 53, 83
1, 215760, Note_on_c, 9, 35, 90
1, 215999, Note_on_c, 9, 40, 0
1, 215999, Note_on_c, 9, 53, 0
1, 215999, Note_on_c, 9, 35, 0
1, 216000, Note_on_c, 9, 53, 87
1, 216000, Note_on_c, 9, 35, 94
1, 216479, Note_on_c, 9, 53, 0
1, 216479, Note_on_c, 9, 35, 0
1, 216480, Note_on_c, 9, 40, 82
1, 216480, Note_on_c, 9, 53, 86
1, 216720, Note_on_c, 9, 35, 92
1, 216959, Note_on_c, 9, 40, 0
1, 216959, Note_on_c, 9, 53, 0
1, 216959, Note_on_c, 9, 35, 0
1, 216960, Note_on_c, 9, 53, 87
1, 216960, Note_on_c, 9, 35, 94
1, 217439, Note_on_c, 9, 53, 0
1, 217439, Note_on_c, 9, 35, 0
1, 217440, Note_on_c, 9, 40, 84
1, 217440, Note_on_c, 9, 53, 87
1, 217680, Note_on_c, 9, 35, 90
1, 217919, Note_on_c, 9, 40, 0
1, 217919, Note_on_c, 9, 53, 0
1, 217919, Note_on_c, 9, 35, 0
1, 217920, Note_on_c, 9, 53, 83
1, 217920, Note_on_c, 9, 35, 94
1, 218399, Note_on_c, 9, 53, 0
1, 218399, Note_on_c, 9, 35, 0
1, 218400, Note_on_c, 9, 40, 87
1, 218400, Note_on_c, 9, 53, 90
1, 218640, Note_on_c, 9, 35, 91
1, 218879, Note_on_c, 9, 40, 0
1, 218879, Note_on_c, 9, 53, 0
1, 218879, Note_on_c, 9, 35, 0
1, 218880, Note_on_c, 9, 53, 90
1, 218880, Note_on_c, 9, 55, 73
1, 218880, Note_on_c, 9, 35, 95
1, 219359, Note_on_c, 9, 53, 0
1, 219359, Note_on_c, 9, 55, 0
1, 219359, Note_on_c, 9, 35, 0
1, 219360, Note_on_c, 9, 40, 88
1, 219360, Note_on_c, 9, 53, 88
1, 219600, Note_on_c, 9, 35, 90
1, 219839, Note_on_c, 9, 40, 0
1, 219839, Note_on_c, 9, 53, 0
1, 219839, Note_on_c, 9, 35, 0
1, 219840, Note_on_c, 9, 53, 86
1, 219840, Note_on_c, 9, 35, 94
1, 220319, Note_on_c, 9, 53, 0
1, 220319, Note_on_c, 9, 35, 0
1, 220320, Note_on_c, 9, 40, 88
1, 220320, Note_on_c, 9, 53, 67
1, 220559, Note_on_c, 9, 40, 0
1, 220559, Note_on_c, 9, 53, 0
1, 220560, Note_on_c, 9, 46, 101
1, 220560, Note_on_c, 9, 57, 70
1, 220560, Note_on_c, 9, 35, 96
1, 220799, Note_on_c, 9, 46, 0
1, 220799, Note_on_c, 9, 57, 0
1, 220799, Note_on_c, 9, 35, 0
1, 221040, Note_on_c, 9, 40, 82
1, 221279, Note_on_c, 9, 40, 0
1, 221280, Note_on_c, 9, 40, 101
1, 221639, Note_on_c, 9, 40, 0
1, 221640, Note_on_c, 9, 40, 80
1, 221759, Note_on_c, 9, 40, 0
1, 221760, Note_on_c, 9, 40, 92
1, 221999, Note_on_c, 9, 40, 0
1, 222000, Note_on_c, 9, 40, 101
1, 222239, Note_on_c, 9, 40, 0
1, 222240, Note_on_c, 9, 40, 99
1, 222359, Note_on_c, 9, 40, 0
1, 222360, Note_on_c, 9, 40, 114
1, 222479, Note_on_c, 9, 40, 0
1, 222480, Note_on_c, 9, 40, 81
1, 222599, Note_on_c, 9, 40, 0
1, 222600, Note_on_c, 9, 40, 111
1, 222719, Note_on_c, 9, 40, 0
1, 222720, Note_on_c, 9, 42, 89
1, 222720, Note_on_c, 9, 57, 69
1, 222720, Note_on_c, 9, 35, 100
1, 222959, Note_on_c, 9, 42, 0
1, 222959, Note_on_c, 9, 57, 0
1, 222960, Note_on_c, 9, 42, 40
1, 223199, Note_on_c, 9, 35, 0
1, 223199, Note_on_c, 9, 42, 0
1, 223200, Note_on_c, 9, 40, 103
1, 223200, Note_on_c, 9, 42, 63
1, 223439, Note_on_c, 9, 40, 0
1, 223439, Note_on_c, 9, 42, 0
1, 223440, Note_on_c, 9, 42, 71
1, 223679, Note_on_c, 9, 42, 0
1, 223680, Note_on_c, 9, 42, 89
1, 223680, Note_on_c, 9, 35, 91
1, 223919, Note_on_c, 9, 42, 0
1, 223919, Note_on_c, 9, 35, 0
1, 223920, Note_on_c, 9, 42, 31
1, 223920, Note_on_c, 9, 35, 93
1, 224159, Note_on_c, 9, 42, 0
1, 224159, Note_on_c, 9, 35, 0
1, 224160, Note_on_c, 9, 40, 99
1, 224160, Note_on_c, 9, 42, 92
1, 224160, Note_on_c, 9, 55, 63
1, 224399, Note_on_c, 9, 40, 0
1, 224399, Note_on_c, 9, 42, 0
1, 224399, Note_on_c, 9, 55, 0
1, 224400, Note_on_c, 9, 42, 43
1, 224400, Note_on_c, 9, 57, 71
1, 224400, Note_on_c, 9, 35, 96
1, 224639, Note_on_c, 9, 42, 0
1, 224639, Note_on_c, 9, 57, 0
1, 224639, Note_on_c, 9, 35, 0
1, 224640, Note_on_c, 9, 42, 86
1, 224879, Note_on_c, 9, 42, 0
1, 224880, Note_on_c, 9, 42, 35
1, 224880, Note_on_c, 9, 35, 92
1, 225119, Note_on_c, 9, 42, 0
1, 225119, Note_on_c, 9, 35, 0
1, 225120, Note_on_c, 9, 40, 101
1, 225120, Note_on_c, 9, 42, 86
1, 225359, Note_on_c, 9, 40, 0
1, 225359, Note_on_c, 9, 42, 0
1, 225360, Note_on_c, 9, 42, 25
1, 225599, Note_on_c, 9, 42, 0
1, 225600, Note_on_c, 9, 42, 81
1, 225600, Note_on_c, 9, 35, 90
1, 225839, Note_on_c, 9, 42, 0
1, 225839, Note_on_c, 9, 35, 0
1, 225840, Note_on_c, 9, 42, 40
1, 225840, Note_on_c, 9, 35, 90
1, 226079, Note_on_c, 9, 42, 0
1, 226079, Note_on_c, 9, 35, 0
1, 226080, Note_on_c, 9, 40, 101
1, 226080, Note_on_c, 9, 42, 77
1, 226080, Note_on_c, 9, 55, 69
1, 226319, Note_on_c, 9, 40, 0
1, 226319, Note_on_c, 9, 42, 0
1, 226319, Note_on_c, 9, 55, 0
1, 226320, Note_on_c, 9, 42, 44
1, 226320, Note_on_c, 9, 57, 67
1, 226320, Note_on_c, 9, 35, 96
1, 226559, Note_on_c, 9, 42, 0
1, 226559, Note_on_c, 9, 57, 0
1, 226559, Note_on_c, 9, 35, 0
1, 226560, Note_on_c, 9, 42, 75
1, 226799, Note_on_c, 9, 42, 0
1, 226800, Note_on_c, 9, 42, 48
1, 226800, Note_on_c, 9, 35, 92
1, 227039, Note_on_c, 9, 42, 0
1, 227039, Note_on_c, 9, 35, 0
1, 227040, Note_on_c, 9, 40, 101
1, 227040, Note_on_c, 9, 42, 81
1, 227279, Note_on_c, 9, 40, 0
1, 227279, Note_on_c, 9, 42, 0
1, 227280, Note_on_c, 9, 42, 34
1, 227519, Note_on_c, 9, 42, 0
1, 227520, Note_on_c, 9, 42, 66
1, 227520, Note_on_c, 9, 35, 88
1, 227759, Note_on_c, 9, 42, 0
1, 227759, Note_on_c, 9, 35, 0
1, 227760, Note_on_c, 9, 42, 48
1, 227760, Note_on_c, 9, 35, 92
1, 227999, Note_on_c, 9, 42, 0
1, 227999, Note_on_c, 9, 35, 0
1, 228000, Note_on_c, 9, 40, 85
1, 228000, Note_on_c, 9, 42, 75
1, 228000, Note_on_c, 9, 55, 66
1, 228239, Note_on_c, 9, 40, 0
1, 228239, Note_on_c, 9, 42, 0
1, 228239, Note_on_c, 9, 55, 0
1, 228240, Note_on_c, 9, 57, 55
1, 228240, Note_on_c, 9, 35, 93
1, 228255, Note_on_c, 9, 42, 44
1, 228479, Note_on_c, 9, 57, 0
1, 228479, Note_on_c, 9, 35, 0
1, 228479, Note_on_c, 9, 42, 0
1, 228480, Note_on_c, 9, 42, 73
1, 228719, Note_on_c, 9, 42, 0
1, 228720, Note_on_c, 9, 42, 36
1, 228720, Note_on_c, 9, 35, 90
1, 228959, Note_on_c, 9, 42, 0
1, 228959, Note_on_c, 9, 35, 0
1, 228960, Note_on_c, 9, 40, 99
1, 228960, Note_on_c, 9, 42, 75
1, 229199, Note_on_c, 9, 40, 0
1, 229199, Note_on_c, 9, 42, 0
1, 229200, Note_on_c, 9, 42, 44
1, 229439, Note_on_c, 9, 42, 0
1, 229440, Note_on_c, 9, 42, 66
1, 229440, Note_on_c, 9, 35, 88
1, 229679, Note_on_c, 9, 42, 0
1, 229679, Note_on_c, 9, 35, 0
1, 229680, Note_on_c, 9, 42, 38
1, 229680, Note_on_c, 9, 35, 90
1, 229919, Note_on_c, 9, 42, 0
1, 229919, Note_on_c, 9, 35, 0
1, 229920, Note_on_c, 9, 40, 95
1, 229920, Note_on_c, 9, 42, 59
1, 229920, Note_on_c, 9, 55, 62
1, 230159, Note_on_c, 9, 40, 0
1, 230159, Note_on_c, 9, 42, 0
1, 230159, Note_on_c, 9, 55, 0
1, 230160, Note_on_c, 9, 42, 52
1, 230160, Note_on_c, 9, 57, 62
1, 230160, Note_on_c, 9, 35, 92
1, 230399, Note_on_c, 9, 42, 0
1, 230399, Note_on_c, 9, 57, 0
1, 230399, Note_on_c, 9, 35, 0
1, 230400, Note_on_c, 9, 42, 77
1, 230639, Note_on_c, 9, 42, 0
1, 230640, Note_on_c, 9, 42, 14
1, 230640, Note_on_c, 9, 35, 94
1, 230879, Note_on_c, 9, 42, 0
1, 230879, Note_on_c, 9, 35, 0
1, 230880, Note_on_c, 9, 40, 97
1, 230880, Note_on_c, 9, 42, 83
1, 231119, Note_on_c, 9, 40, 0
1, 231119, Note_on_c, 9, 42, 0
1, 231120, Note_on_c, 9, 42, 42
1, 231359, Note_on_c, 9, 42, 0
1, 231360, Note_on_c, 9, 42, 77
1, 231360, Note_on_c, 9, 35, 90
1, 231599, Note_on_c, 9, 42, 0
1, 231599, Note_on_c, 9, 35, 0
1, 231600, Note_on_c, 9, 42, 42
1, 231600, Note_on_c, 9, 35, 91
1, 231839, Note_on_c, 9, 42, 0
1, 231839, Note_on_c, 9, 35, 0
1, 231840, Note_on_c, 9, 40, 95
1, 231840, Note_on_c, 9, 42, 73
1, 231840, Note_on_c, 9, 55, 64
1, 232079, Note_on_c, 9, 40, 0
1, 232079, Note_on_c, 9, 42, 0
1, 232079, Note_on_c, 9, 55, 0
1, 232080, Note_on_c, 9, 42, 54
1, 232080, Note_on_c, 9, 57, 70
1, 232080, Note_on_c, 9, 35, 94
1, 232319, Note_on_c, 9, 42, 0
1, 232319, Note_on_c, 9, 57, 0
1, 232319, Note_on_c, 9, 35, 0
1, 232320, Note_on_c, 9, 42, 71
1, 232559, Note_on_c, 9, 42, 0
1, 232560, Note_on_c, 9, 42, 36
1, 232560, Note_on_c, 9, 35, 94
1, 232799, Note_on_c, 9, 42, 0
1, 232799, Note_on_c, 9, 35, 0
1, 232800, Note_on_c, 9, 40, 99
1, 232800, Note_on_c, 9, 42, 73
1, 233039, Note_on_c, 9, 40, 0
1, 233039, Note_on_c, 9, 42, 0
1, 233040, Note_on_c, 9, 42, 47
1, 233279, Note_on_c, 9, 42, 0
1, 233280, Note_on_c, 9, 42, 69
1, 233280, Note_on_c, 9, 35, 92
1, 233519, Note_on_c, 9, 42, 0
1, 233519, Note_on_c, 9, 35, 0
1, 233520, Note_on_c, 9, 42, 54
1, 233520, Note_on_c, 9, 35, 87
1, 233759, Note_on_c, 9, 42, 0
1, 233759, Note_on_c, 9, 35, 0
1, 233760, Note_on_c, 9, 40, 92
1, 233760, Note_on_c, 9, 42, 75
1, 233760, Note_on_c, 9, 55, 70
1, 233999, Note_on_c, 9, 40, 0
1, 233999, Note_on_c, 9, 42, 0
1, 233999, Note_on_c, 9, 55, 0
1, 234000, Note_on_c, 9, 42, 34
1, 234000, Note_on_c, 9, 57, 69
1, 234000, Note_on_c, 9, 35, 94
1, 234239, Note_on_c, 9, 42, 0
1, 234239, Note_on_c, 9, 57, 0
1, 234239, Note_on_c, 9, 35, 0
1, 234240, Note_on_c, 9, 42, 73
1, 234479, Note_on_c, 9, 42, 0
1, 234480, Note_on_c, 9, 42, 40
1, 234480, Note_on_c, 9, 35, 89
1, 234719, Note_on_c, 9, 42, 0
1, 234719, Note_on_c, 9, 35, 0
1, 234720, Note_on_c, 9, 40, 111
1, 234720, Note_on_c, 9, 42, 71
1, 234959, Note_on_c, 9, 40, 0
1, 234959, Note_on_c, 9, 42, 0
1, 234960, Note_on_c, 9, 42, 50
1, 235199, Note_on_c, 9, 42, 0
1, 235200, Note_on_c, 9, 40, 54
1, 235200, Note_on_c, 9, 42, 61
1, 235319, Note_on_c, 9, 40, 0
1, 235319, Note_on_c, 9, 42, 0
1, 235320, Note_on_c, 9, 40, 97
1, 235439, Note_on_c, 9, 40, 0
1, 235440, Note_on_c, 9, 40, 114
1, 235440, Note_on_c, 9, 42, 60
1, 235559, Note_on_c, 9, 40, 0
1, 235559, Note_on_c, 9, 42, 0
1, 235560, Note_on_c, 9, 40, 109
1, 235679, Note_on_c, 9, 40, 0
1, 235680, Note_on_c, 9, 40, 124
1, 235680, Note_on_c, 9, 42, 77
1, 235859, Note_on_c, 9, 40, 0
1, 235859, Note_on_c, 9, 42, 0
1, 235890, Note_on_c, 9, 46, 79
1, 235920, Note_on_c, 9, 55, 89
1, 235920, Note_on_c, 9, 35, 104
1, 236159, Note_on_c, 9, 46, 0
1, 236159, Note_on_c, 9, 55, 0
1, 236159, Note_on_c, 9, 35, 0
1, 240000, Note_on_c, 9, 42, 86
1, 240000, Note_on_c, 9, 35, 96
1, 240239, Note_on_c, 9, 42, 0
1, 240240, Note_on_c, 9, 42, 50
1, 240479, Note_on_c, 9, 35, 0
1, 240479, Note_on_c, 9, 42, 0
1, 240480, Note_on_c, 9, 40, 94
1, 240480, Note_on_c, 9, 42, 81
1, 240719, Note_on_c, 9, 40, 0
1, 240719, Note_on_c, 9, 42, 0
1, 240720, Note_on_c, 9, 42, 56
1, 240720, Note_on_c, 9, 35, 92
1, 240959, Note_on_c, 9, 42, 0
1, 240959, Note_on_c, 9, 35, 0
1, 240960, Note_on_c, 9, 42, 66
1, 240960, Note_on_c, 9, 35, 96
1, 241199, Note_on_c, 9, 42, 0
1, 241200, Note_on_c, 9, 42, 53
1, 241439, Note_on_c, 9, 35, 0
1, 241439, Note_on_c, 9, 42, 0
1, 241440, Note_on_c, 9, 40, 91
1, 241440, Note_on_c, 9, 42, 86
1, 241679, Note_on_c, 9, 40, 0
1, 241679, Note_on_c, 9, 42, 0
1, 241680, Note_on_c, 9, 42, 49
1, 241680, Note_on_c, 9, 35, 92
1, 241919, Note_on_c, 9, 42, 0
1, 241919, Note_on_c, 9, 35, 0
1, 241920, Note_on_c, 9, 42, 73
1, 241920, Note_on_c, 9, 35, 96
1, 242159, Note_on_c, 9, 42, 0
1, 242160, Note_on_c, 9, 42, 33
1, 242399, Note_on_c, 9, 35, 0
1, 242399, Note_on_c, 9, 42, 0
1, 242400, Note_on_c, 9, 40, 92
1, 242400, Note_on_c, 9, 42, 92
1, 242639, Note_on_c, 9, 40, 0
1, 242639, Note_on_c, 9, 42, 0
1, 242640, Note_on_c, 9, 42, 49
1, 242640, Note_on_c, 9, 35, 89
1, 242879, Note_on_c, 9, 42, 0
1, 242879, Note_on_c, 9, 35, 0
1, 242880, Note_on_c, 9, 42, 79
1, 242880, Note_on_c, 9, 35, 96
1, 243119, Note_on_c, 9, 42, 0
1, 243120, Note_on_c, 9, 42, 56
1, 243359, Note_on_c, 9, 35, 0
1, 243359, Note_on_c, 9, 42, 0
1, 243360, Note_on_c, 9, 40, 77
1, 243360, Note_on_c, 9, 42, 86
1, 243599, Note_on_c, 9, 40, 0
1, 243599, Note_on_c, 9, 42, 0
1, 243600, Note_on_c, 9, 42, 34
1, 243600, Note_on_c, 9, 35, 91
1, 243839, Note_on_c, 9, 42, 0
1, 243839, Note_on_c, 9, 35, 0
1, 243840, Note_on_c, 9, 42, 92
1, 243840, Note_on_c, 9, 35, 99
1, 244079, Note_on_c, 9, 42, 0
1, 244080, Note_on_c, 9, 42, 49
1, 244319, Note_on_c, 9, 35, 0
1, 244319, Note_on_c, 9, 42, 0
1, 244320, Note_on_c, 9, 40, 99
1, 244320, Note_on_c, 9, 42, 83
1, 244559, Note_on_c, 9, 40, 0
1, 244559, Note_on_c, 9, 42, 0
1, 244560, Note_on_c, 9, 42, 50
1, 244560, Note_on_c, 9, 35, 90
1, 244799, Note_on_c, 9, 42, 0
1, 244799, Note_on_c, 9, 35, 0
1, 244800, Note_on_c, 9, 42, 73
1, 244800, Note_on_c, 9, 35, 96
1, 245039, Note_on_c, 9, 42, 0
1, 245040, Note_on_c, 9, 42, 48
1, 245279, Note_on_c, 9, 35, 0
1, 245279, Note_on_c, 9, 42, 0
1, 245280, Note_on_c, 9, 40, 97
1, 245280, Note_on_c, 9, 42, 79
1, 245519, Note_on_c, 9, 40, 0
1, 245519, Note_on_c, 9, 42, 0
1, 245520, Note_on_c, 9, 42, 43
1, 245520, Note_on_c, 9, 35, 92
1, 245759, Note_on_c, 9, 42, 0
1, 245759, Note_on_c, 9, 35, 0
1, 245760, Note_on_c, 9, 42, 83
1, 245760, Note_on_c, 9, 35, 96
1, 245999, Note_on_c, 9, 42, 0
1, 246000, Note_on_c, 9, 42, 39
1, 246239, Note_on_c, 9, 35, 0
1, 246239, Note_on_c, 9, 42, 0
1, 246240, Note_on_c, 9, 40, 101
1, 246240, Note_on_c, 9, 42, 81
1, 246479, Note_on_c, 9, 40, 0
1, 246479, Note_on_c, 9, 42, 0
1, 246480, Note_on_c, 9, 42, 47
1, 246480, Note_on_c, 9, 35, 93
1, 246719, Note_on_c, 9, 42, 0
1, 246719, Note_on_c, 9, 35, 0
1, 246720, Note_on_c, 9, 42, 69
1, 246720, Note_on_c, 9, 35, 90
1, 246959, Note_on_c, 9, 42, 0
1, 246960, Note_on_c, 9, 42, 49
1, 247199, Note_on_c, 9, 35, 0
1, 247199, Note_on_c, 9, 42, 0
1, 247200, Note_on_c, 9, 40, 94
1, 247200, Note_on_c, 9, 42, 75
1, 247439, Note_on_c, 9, 40, 0
1, 247439, Note_on_c, 9, 42, 0
1, 247440, Note_on_c, 9, 42, 43
1, 247440, Note_on_c, 9, 35, 93
1, 247679, Note_on_c, 9, 42, 0
1, 247679, Note_on_c, 9, 35, 0
1, 247680, Note_on_c, 9, 42, 77
1, 247680, Note_on_c, 9, 35, 97
1, 247919, Note_on_c, 9, 42, 0
1, 247920, Note_on_c, 9, 42, 49
1, 248159, Note_on_c, 9, 35, 0
1, 248159, Note_on_c, 9, 42, 0
1, 248160, Note_on_c, 9, 40, 101
1, 248160, Note_on_c, 9, 42, 71
1, 248399, Note_on_c, 9, 40, 0
1, 248399, Note_on_c, 9, 42, 0
1, 248400, Note_on_c, 9, 42, 40
1, 248400, Note_on_c, 9, 35, 94
1, 248639, Note_on_c, 9, 42, 0
1, 248639, Note_on_c, 9, 35, 0
1, 248640, Note_on_c, 9, 42, 67
1, 248640, Note_on_c, 9, 35, 96
1, 248879, Note_on_c, 9, 42, 0
1, 248880, Note_on_c, 9, 42, 52
1, 249119, Note_on_c, 9, 35, 0
1, 249119, Note_on_c, 9, 42, 0
1, 249120, Note_on_c, 9, 40, 101
1, 249120, Note_on_c, 9, 42, 69
1, 249359, Note_on_c, 9, 40, 0
1, 249359, Note_on_c, 9, 42, 0
1, 249360, Note_on_c, 9, 42, 49
1, 249360, Note_on_c, 9, 35, 100
1, 249599, Note_on_c, 9, 42, 0
1, 249599, Note_on_c, 9, 35, 0
1, 249600, Note_on_c, 9, 42, 67
1, 249839, Note_on_c, 9, 42, 0
1, 249840, Note_on_c, 9, 42, 47
1, 249840, Note_on_c, 9, 35, 91
1, 250079, Note_on_c, 9, 42, 0
1, 250079, Note_on_c, 9, 35, 0
1, 250080, Note_on_c, 9, 40, 107
1, 250080, Note_on_c, 9, 42, 77
1, 250319, Note_on_c, 9, 40, 0
1, 250319, Note_on_c, 9, 42, 0
1, 250320, Note_on_c, 9, 42, 35
1, 250320, Note_on_c, 9, 35, 96
1, 250559, Note_on_c, 9, 42, 0
1, 250559, Note_on_c, 9, 35, 0
1, 250560, Note_on_c, 9, 42, 66
1, 250560, Note_on_c, 9, 35, 98
1, 250799, Note_on_c, 9, 42, 0
1, 250800, Note_on_c, 9, 42, 43
1, 251039, Note_on_c, 9, 35, 0
1, 251039, Note_on_c, 9, 42, 0
1, 251040, Note_on_c, 9, 40, 101
1, 251040, Note_on_c, 9, 42, 81
1, 251279, Note_on_c, 9, 40, 0
1, 251279, Note_on_c, 9, 42, 0
1, 251280, Note_on_c, 9, 42, 35
1, 251280, Note_on_c, 9, 35, 94
1, 251519, Note_on_c, 9, 42, 0
1, 251519, Note_on_c, 9, 35, 0
1, 251520, Note_on_c, 9, 42, 73
1, 251520, Note_on_c, 9, 35, 99
1, 251759, Note_on_c, 9, 42, 0
1, 251760, Note_on_c, 9, 42, 36
1, 251999, Note_on_c, 9, 35, 0
1, 251999, Note_on_c, 9, 42, 0
1, 252000, Note_on_c, 9, 40, 99
1, 252000, Note_on_c, 9, 42, 79
1, 252239, Note_on_c, 9, 40, 0
1, 252239, Note_on_c, 9, 42, 0
1, 252240, Note_on_c, 9, 42, 32
1, 252240, Note_on_c, 9, 35, 93
1, 252479, Note_on_c, 9, 42, 0
1, 252479, Note_on_c, 9, 35, 0
1, 252480, Note_on_c, 9, 42, 81
1, 252480, Note_on_c, 9, 35, 98
1, 252719, Note_on_c, 9, 42, 0
1, 252720, Note_on_c, 9, 42, 34
1, 252959, Note_on_c, 9, 35, 0
1, 252959, Note_on_c, 9, 42, 0
1, 252960, Note_on_c, 9, 40, 101
1, 252960, Note_on_c, 9, 42, 79
1, 253199, Note_on_c, 9, 40, 0
1, 253199, Note_on_c, 9, 42, 0
1, 253200, Note_on_c, 9, 42, 43
1, 253200, Note_on_c, 9, 35, 94
1, 253439, Note_on_c, 9, 42, 0
1, 253439, Note_on_c, 9, 35, 0
1, 253440, Note_on_c, 9, 42, 77
1, 253440, Note_on_c, 9, 35, 100
1, 253679, Note_on_c, 9, 42, 0
1, 253680, Note_on_c, 9, 42, 38
1, 253919, Note_on_c, 9, 35, 0
1, 253919, Note_on_c, 9, 42, 0
1, 253920, Note_on_c, 9, 40, 101
1, 253920, Note_on_c, 9, 42, 89
1, 254159, Note_on_c, 9, 40, 0
1, 254159, Note_on_c, 9, 42, 0
1, 254160, Note_on_c, 9, 42, 59
1, 254160, Note_on_c, 9, 35, 96
1, 254399, Note_on_c, 9, 42, 0
1, 254399, Note_on_c, 9, 35, 0
1, 254400, Note_on_c, 9, 40, 83
1, 254400, Note_on_c, 9, 42, 89
1, 254519, Note_on_c, 9, 40, 0
1, 254519, Note_on_c, 9, 42, 0
1, 254520, Note_on_c, 9, 40, 97
1, 254639, Note_on_c, 9, 40, 0
1, 254640, Note_on_c, 9, 40, 92
1, 254879, Note_on_c, 9, 40, 0
1, 254880, Note_on_c, 9, 40, 124
1, 255359, Note_on_c, 9, 40, 0
1, 255360, Note_on_c, 9, 57, 48
1, 255360, Note_on_c, 9, 35, 94
1, 255599, Note_on_c, 9, 57, 0
1, 255600, Note_on_c, 9, 42, 50
1, 255839, Note_on_c, 9, 35, 0
1, 255839, Note_on_c, 9, 42, 0
1, 255840, Note_on_c, 9, 40, 81
1, 255840, Note_on_c, 9, 42, 66
1, 256079, Note_on_c, 9, 40, 0
1, 256079, Note_on_c, 9, 42, 0
1, 256080, Note_on_c, 9, 42, 53
1, 256080, Note_on_c, 9, 35, 93
1, 256319, Note_on_c, 9, 42, 0
1, 256319, Note_on_c, 9, 35, 0
1, 256320, Note_on_c, 9, 42, 71
1, 256320, Note_on_c, 9, 35, 96
1, 256559, Note_on_c, 9, 42, 0
1, 256560, Note_on_c, 9, 42, 52
1, 256799, Note_on_c, 9, 35, 0
1, 256799, Note_on_c, 9, 42, 0
1, 256800, Note_on_c, 9, 40, 105
1, 256800, Note_on_c, 9, 42, 75
1, 257039, Note_on_c, 9, 40, 0
1, 257039, Note_on_c, 9, 42, 0
1, 257040, Note_on_c, 9, 42, 47
1, 257040, Note_on_c, 9, 35, 87
1, 257279, Note_on_c, 9, 42, 0
1, 257279, Note_on_c, 9, 35, 0
1, 257280, Note_on_c, 9, 42, 69
1, 257280, Note_on_c, 9, 35, 95
1, 257519, Note_on_c, 9, 42, 0
1, 257520, Note_on_c, 9, 42, 39
1, 257759, Note_on_c, 9, 35, 0
1, 257759, Note_on_c, 9, 42, 0
1, 257760, Note_on_c, 9, 40, 103
1, 257760, Note_on_c, 9, 42, 71
1, 257999, Note_on_c, 9, 40, 0
1, 257999, Note_on_c, 9, 42, 0
1, 258000, Note_on_c, 9, 42, 47
1, 258000, Note_on_c, 9, 35, 90
1, 258239, Note_on_c, 9, 42, 0
1, 258239, Note_on_c, 9, 35, 0
1, 258240, Note_on_c, 9, 42, 69
1, 258240, Note_on_c, 9, 35, 96
1, 258479, Note_on_c, 9, 42, 0
1, 258480, Note_on_c, 9, 42, 45
1, 258719, Note_on_c, 9, 35, 0
1, 258719, Note_on_c, 9, 42, 0
1, 258720, Note_on_c, 9, 40, 97
1, 258720, Note_on_c, 9, 42, 75
1, 258959, Note_on_c, 9, 40, 0
1, 258959, Note_on_c, 9, 42, 0
1, 258960, Note_on_c, 9, 42, 49
1, 258960, Note_on_c, 9, 35, 92
1, 259199, Note_on_c, 9, 42, 0
1, 259199, Note_on_c, 9, 35, 0
1, 259200, Note_on_c, 9, 42, 66
1, 259200, Note_on_c, 9, 35, 97
1, 259439, Note_on_c, 9, 42, 0
1, 259440, Note_on_c, 9, 42, 43
1, 259679, Note_on_c, 9, 35, 0
1, 259679, Note_on_c, 9, 42, 0
1, 259680, Note_on_c, 9, 40, 91
1, 259680, Note_on_c, 9, 42, 66
1, 259919, Note_on_c, 9, 40, 0
1, 259919, Note_on_c, 9, 42, 0
1, 259920, Note_on_c, 9, 42, 43
1, 259920, Note_on_c, 9, 35, 90
1, 260159, Note_on_c, 9, 42, 0
1, 260159, Note_on_c, 9, 35, 0
1, 260160, Note_on_c, 9, 42, 64
1, 260160, Note_on_c, 9, 35, 97
1, 260399, Note_on_c, 9, 42, 0
1, 260400, Note_on_c, 9, 42, 46
1, 260639, Note_on_c, 9, 35, 0
1, 260639, Note_on_c, 9, 42, 0
1, 260640, Note_on_c, 9, 40, 95
1, 260640, Note_on_c, 9, 42, 67
1, 260879, Note_on_c, 9, 40, 0
1, 260879, Note_on_c, 9, 42, 0
1, 260880, Note_on_c, 9, 42, 49
1, 260880, Note_on_c, 9, 35, 91
1, 261119, Note_on_c, 9, 42, 0
1, 261119, Note_on_c, 9, 35, 0
1, 261120, Note_on_c, 9, 42, 63
1, 261120, Note_on_c, 9, 35, 100
1, 261359, Note_on_c, 9, 42, 0
1, 261360, Note_on_c, 9, 42, 47
1, 261599, Note_on_c, 9, 35, 0
1, 261599, Note_on_c, 9, 42, 0
1, 261600, Note_on_c, 9, 40, 94
1, 261600, Note_on_c, 9, 42, 64
1, 261839, Note_on_c, 9, 40, 0
1, 261839, Note_on_c, 9, 42, 0
1, 261840, Note_on_c, 9, 42, 48
1, 261840, Note_on_c, 9, 35, 93
1, 262079, Note_on_c, 9, 42, 0
1, 262079, Note_on_c, 9, 35, 0
1, 262080, Note_on_c, 9, 42, 60
1, 262080, Note_on_c, 9, 35, 99
1, 262319, Note_on_c, 9, 42, 0
1, 262320, Note_on_c, 9, 42, 52
1, 262559, Note_on_c, 9, 35, 0
1, 262559, Note_on_c, 9, 42, 0
1, 262560, Note_on_c, 9, 40, 85
1, 262560, Note_on_c, 9, 42, 77
1, 262799, Note_on_c, 9, 40, 0
1, 262799, Note_on_c, 9, 42, 0
1, 262800, Note_on_c, 9, 42, 46
1, 262800, Note_on_c, 9, 35, 92
1, 263039, Note_on_c, 9, 42, 0
1, 263039, Note_on_c, 9, 35, 0
1, 263040, Note_on_c, 9, 42, 63
1, 263040, Note_on_c, 9, 35, 94
1, 263279, Note_on_c, 9, 42, 0
1, 263280, Note_on_c, 9, 42, 50
1, 263519, Note_on_c, 9, 35, 0
1, 263519, Note_on_c, 9, 42, 0
1, 263520, Note_on_c, 9, 40, 81
1, 263520, Note_on_c, 9, 42, 66
1, 263759, Note_on_c, 9, 40, 0
1, 263759, Note_on_c, 9, 42, 0
1, 263760, Note_on_c, 9, 42, 53
1, 263760, Note_on_c, 9, 35, 93
1, 263999, Note_on_c, 9, 42, 0
1, 263999, Note_on_c, 9, 35, 0
1, 264000, Note_on_c, 9, 42, 71
1, 264000, Note_on_c, 9, 35, 96
1, 264239, Note_on_c, 9, 42, 0
1, 264240, Note_on_c, 9, 42, 52
1, 264479, Note_on_c, 9, 35, 0
1, 264479, Note_on_c, 9, 42, 0
1, 264480, Note_on_c, 9, 40, 105
1, 264480, Note_on_c, 9, 42, 75
1, 264719, Note_on_c, 9, 40, 0
1, 264719, Note_on_c, 9, 42, 0
1, 264720, Note_on_c, 9, 42, 47
1, 264720, Note_on_c, 9, 35, 87
1, 264959, Note_on_c, 9, 42, 0
1, 264959, Note_on_c, 9, 35, 0
1, 264960, Note_on_c, 9, 42, 69
1, 264960, Note_on_c, 9, 35, 95
1, 265199, Note_on_c, 9, 42, 0
1, 265200, Note_on_c, 9, 42, 39
1, 265439, Note_on_c, 9, 35, 0
1, 265439, Note_on_c, 9, 42, 0
1, 265440, Note_on_c, 9, 40, 103
1, 265440, Note_on_c, 9, 42, 71
1, 265679, Note_on_c, 9, 40, 0
1, 265679, Note_on_c, 9, 42, 0
1, 265680, Note_on_c, 9, 42, 47
1, 265680, Note_on_c, 9, 35, 90
1, 265919, Note_on_c, 9, 42, 0
1, 265919, Note_on_c, 9, 35, 0
1, 265920, Note_on_c, 9, 42, 69
1, 265920, Note_on_c, 9, 35, 96
1, 266159, Note_on_c, 9, 42, 0
1, 266160, Note_on_c, 9, 42, 45
1, 266399, Note_on_c, 9, 35, 0
1, 266399, Note_on_c, 9, 42, 0
1, 266400, Note_on_c, 9, 40, 97
1, 266400, Note_on_c, 9, 42, 75
1, 266639, Note_on_c, 9, 40, 0
1, 266639, Note_on_c, 9, 42, 0
1, 266640, Note_on_c, 9, 42, 49
1, 266640, Note_on_c, 9, 35, 92
1, 266879, Note_on_c, 9, 42, 0
1, 266879, Note_on_c, 9, 35, 0
1, 266880, Note_on_c, 9, 42, 66
1, 266880, Note_on_c, 9, 35, 97
1, 267119, Note_on_c, 9, 42, 0
1, 267120, Note_on_c, 9, 42, 43
1, 267359, Note_on_c, 9, 35, 0
1, 267359, Note_on_c, 9, 42, 0
1, 267360, Note_on_c, 9, 40, 91
1, 267360, Note_on_c, 9, 42, 66
1, 267599, Note_on_c, 9, 40, 0
1, 267599, Note_on_c, 9, 42, 0
1, 267600, Note_on_c, 9, 42, 43
1, 267600, Note_on_c, 9, 35, 90
1, 267839, Note_on_c, 9, 42, 0
1, 267839, Note_on_c, 9, 35, 0
1, 267840, Note_on_c, 9, 42, 64
1, 267840, Note_on_c, 9, 35, 97
1, 268079, Note_on_c, 9, 42, 0
1, 268080, Note_on_c, 9, 42, 46
1, 268319, Note_on_c, 9, 35, 0
1, 268319, Note_on_c, 9, 42, 0
1, 268320, Note_on_c, 9, 40, 95
1, 268320, Note_on_c, 9, 42, 67
1, 268559, Note_on_c, 9, 40, 0
1, 268559, Note_on_c, 9, 42, 0
1, 268560, Note_on_c, 9, 42, 49
1, 268560, Note_on_c, 9, 35, 91
1, 268799, Note_on_c, 9, 42, 0
1, 268799, Note_on_c, 9, 35, 0
1, 268800, Note_on_c, 9, 42, 63
1, 268800, Note_on_c, 9, 35, 100
1, 269039, Note_on_c, 9, 42, 0
1, 269040, Note_on_c, 9, 42, 47
1, 269279, Note_on_c, 9, 35, 0
1, 269279, Note_on_c, 9, 42, 0
1, 269280, Note_on_c, 9, 40, 94
1, 269280, Note_on_c, 9, 42, 64
1, 269519, Note_on_c, 9, 40, 0
1, 269519, Note_on_c, 9, 42, 0
1, 269520, Note_on_c, 9, 42, 48
1, 269520, Note_on_c, 9, 35, 93
1, 269759, Note_on_c, 9, 42, 0
1, 269759, Note_on_c, 9, 35, 0
1, 269760, Note_on_c, 9, 42, 60
1, 269760, Note_on_c, 9, 35, 99
1, 269999, Note_on_c, 9, 42, 0
1, 270000, Note_on_c, 9, 42, 52
1, 270239, Note_on_c, 9, 35, 0
1, 270239, Note_on_c, 9, 42, 0
1, 270240, Note_on_c, 9, 40, 85
1, 270240, Note_on_c, 9, 42, 77
1, 270479, Note_on_c, 9, 40, 0
1, 270479, Note_on_c, 9, 42, 0
1, 270480, Note_on_c, 9, 42, 46
1, 270480, Note_on_c, 9, 35, 92
1, 270719, Note_on_c, 9, 42, 0
1, 270719, Note_on_c, 9, 35, 0
1, 270720, Note_on_c, 9, 57, 48
1, 270720, Note_on_c, 9, 35, 94
1, 270959, Note_on_c, 9, 57, 0
1, 270960, Note_on_c, 9, 42, 50
1, 271199, Note_on_c, 9, 35, 0
1, 271199, Note_on_c, 9, 42, 0
1, 271200, Note_on_c, 9, 40, 81
1, 271200, Note_on_c, 9, 42, 66
1, 271439, Note_on_c, 9, 40, 0
1, 271439, Note_on_c, 9, 42, 0
1, 271440, Note_on_c, 9, 42, 53
1, 271440, Note_on_c, 9, 35, 93
1, 271679, Note_on_c, 9, 42, 0
1, 271679, Note_on_c, 9, 35, 0
1, 271680, Note_on_c, 9, 42, 71
1, 271680, Note_on_c, 9, 35, 96
1, 271919, Note_on_c, 9, 42, 0
1, 271920, Note_on_c, 9, 42, 52
1, 272159, Note_on_c, 9, 35, 0
1, 272159, Note_on_c, 9, 42, 0
1, 272160, Note_on_c, 9, 40, 105
1, 272160, Note_on_c, 9, 42, 75
1, 272399, Note_on_c, 9, 40, 0
1, 272399, Note_on_c, 9, 42, 0
1, 272400, Note_on_c, 9, 42, 47
1, 272400, Note_on_c, 9, 35, 87
1, 272639, Note_on_c, 9, 42, 0
1, 272639, Note_on_c, 9, 35, 0
1, 272640, Note_on_c, 9, 42, 69
1, 272640, Note_on_c, 9, 35, 95
1, 272879, Note_on_c, 9, 42, 0
1, 272880, Note_on_c, 9, 42, 39
1, 273119, Note_on_c, 9, 35, 0
1, 273119, Note_on_c, 9, 42, 0
1, 273120, Note_on_c, 9, 40, 103
1, 273120, Note_on_c, 9, 42, 71
1, 273359, Note_on_c, 9, 40, 0
1, 273359, Note_on_c, 9, 42, 0
1, 273360, Note_on_c, 9, 42, 47
1, 273360, Note_on_c, 9, 35, 90
1, 273599, Note_on_c, 9, 42, 0
1, 273599, Note_on_c, 9, 35, 0
1, 273600, Note_on_c, 9, 42, 69
1, 273600, Note_on_c, 9, 35, 96
1, 273839, Note_on_c, 9, 42, 0
1, 273840, Note_on_c, 9, 42, 45
1, 274079, Note_on_c, 9, 35, 0
1, 274079, Note_on_c, 9, 42, 0
1, 274080, Note_on_c, 9, 40, 97
1, 274080, Note_on_c, 9, 42, 75
1, 274319, Note_on_c, 9, 40, 0
1, 274319, Note_on_c, 9, 42, 0
1, 274320, Note_on_c, 9, 42, 49
1, 274320, Note_on_c, 9, 35, 92
1, 274559, Note_on_c, 9, 42, 0
1, 274559, Note_on_c, 9, 35, 0
1, 274560, Note_on_c, 9, 46, 66
1, 274560, Note_on_c, 9, 35, 97
1, 275039, Note_on_c, 9, 46, 0
1, 275039, Note_on_c, 9, 35, 0
1, 275040, Note_on_c, 9, 40, 91
1, 275040, Note_on_c, 9, 42, 66
1, 275279, Note_on_c, 9, 40, 0
1, 275279, Note_on_c, 9, 42, 0
1, 275280, Note_on_c, 9, 42, 43
1, 275280, Note_on_c, 9, 35, 90
1, 275519, Note_on_c, 9, 42, 0
1, 275519, Note_on_c, 9, 35, 0
1, 275520, Note_on_c, 9, 42, 64
1, 275520, Note_on_c, 9, 35, 97
1, 275759, Note_on_c, 9, 42, 0
1, 275760, Note_on_c, 9, 42, 46
1, 275999, Note_on_c, 9, 35, 0
1, 275999, Note_on_c, 9, 42, 0
1, 276000, Note_on_c, 9, 40, 95
1, 276000, Note_on_c, 9, 42, 67
1, 276239, Note_on_c, 9, 40, 0
1, 276239, Note_on_c, 9, 42, 0
1, 276240, Note_on_c, 9, 42, 49
1, 276240, Note_on_c, 9, 35, 91
1, 276479, Note_on_c, 9, 42, 0
1, 276479, Note_on_c, 9, 35, 0
1, 276480, Note_on_c, 9, 42, 63
1, 276480, Note_on_c, 9, 35, 100
1, 276719, Note_on_c, 9, 42, 0
1, 276720, Note_on_c, 9, 42, 47
1, 276959, Note_on_c, 9, 35, 0
1, 276959, Note_on_c, 9, 42, 0
1, 276960, Note_on_c, 9, 40, 94
1, 276960, Note_on_c, 9, 42, 64
1, 277199, Note_on_c, 9, 40, 0
1, 277199, Note_on_c, 9, 42, 0
1, 277200, Note_on_c, 9, 42, 48
1, 277200, Note_on_c, 9, 35, 93
1, 277439, Note_on_c, 9, 42, 0
1, 277439, Note_on_c, 9, 35, 0
1, 277440, Note_on_c, 9, 42, 60
1, 277440, Note_on_c, 9, 35, 99
1, 277679, Note_on_c, 9, 42, 0
1, 277680, Note_on_c, 9, 42, 52
1, 277919, Note_on_c, 9, 35, 0
1, 277919, Note_on_c, 9, 42, 0
1, 277920, Note_on_c, 9, 40, 85
1, 277920, Note_on_c, 9, 42, 77
1, 278159, Note_on_c, 9, 40, 0
1, 278159, Note_on_c, 9, 42, 0
1, 278160, Note_on_c, 9, 42, 46
1, 278160, Note_on_c, 9, 35, 92
1, 278399, Note_on_c, 9, 42, 0
1, 278399, Note_on_c, 9, 35, 0
1, 278400, Note_on_c, 9, 57, 48
1, 278400, Note_on_c, 9, 35, 94
1, 278639, Note_on_c, 9, 57, 0
1, 278640, Note_on_c, 9, 42, 50
1, 278879, Note_on_c, 9, 35, 0
1, 278879, Note_on_c, 9, 42, 0
1, 278880, Note_on_c, 9, 40, 81
1, 278880, Note_on_c, 9, 42, 66
1, 279119, Note_on_c, 9, 40, 0
1, 279119, Note_on_c, 9, 42, 0
1, 279120, Note_on_c, 9, 42, 53
1, 279120, Note_on_c, 9, 35, 93
1, 279359, Note_on_c, 9, 42, 0
1, 279359, Note_on_c, 9, 35, 0
1, 279360, Note_on_c, 9, 57, 56
1, 279360, Note_on_c, 9, 35, 96
1, 279599, Note_on_c, 9, 57, 0
1, 279600, Note_on_c, 9, 42, 52
1, 279839, Note_on_c, 9, 35, 0
1, 279839, Note_on_c, 9, 42, 0
1, 279840, Note_on_c, 9, 40, 105
1, 279840, Note_on_c, 9, 42, 75
1, 280079, Note_on_c, 9, 40, 0
1, 280079, Note_on_c, 9, 42, 0
1, 280080, Note_on_c, 9, 42, 47
1, 280080, Note_on_c, 9, 35, 87
1, 280319, Note_on_c, 9, 42, 0
1, 280319, Note_on_c, 9, 35, 0
1, 280320, Note_on_c, 9, 57, 54
1, 280320, Note_on_c, 9, 35, 95
1, 280559, Note_on_c, 9, 57, 0
1, 280560, Note_on_c, 9, 42, 39
1, 280799, Note_on_c, 9, 35, 0
1, 280799, Note_on_c, 9, 42, 0
1, 280800, Note_on_c, 9, 40, 103
1, 280800, Note_on_c, 9, 42, 71
1, 281039, Note_on_c, 9, 40, 0
1, 281039, Note_on_c, 9, 42, 0
1, 281040, Note_on_c, 9, 42, 47
1, 281040, Note_on_c, 9, 35, 90
1, 281279, Note_on_c, 9, 42, 0
1, 281279, Note_on_c, 9, 35, 0
1, 281280, Note_on_c, 9, 42, 69
1, 281280, Note_on_c, 9, 35, 96
1, 281519, Note_on_c, 9, 42, 0
1, 281520, Note_on_c, 9, 42, 45
1, 281759, Note_on_c, 9, 35, 0
1, 281759, Note_on_c, 9, 42, 0
1, 281760, Note_on_c, 9, 40, 97
1, 281760, Note_on_c, 9, 42, 75
1, 281999, Note_on_c, 9, 40, 0
1, 281999, Note_on_c, 9, 42, 0
1, 282000, Note_on_c, 9, 42, 49
1, 282000, Note_on_c, 9, 35, 92
1, 282239, Note_on_c, 9, 42, 0
1, 282239, Note_on_c, 9, 35, 0
1, 282240, Note_on_c, 9, 42, 66
1, 282240, Note_on_c, 9, 35, 97
1, 282479, Note_on_c, 9, 42, 0
1, 282480, Note_on_c, 9, 42, 43
1, 282719, Note_on_c, 9, 35, 0
1, 282719, Note_on_c, 9, 42, 0
1, 282720, Note_on_c, 9, 40, 91
1, 282720, Note_on_c, 9, 42, 66
1, 282959, Note_on_c, 9, 40, 0
1, 282959, Note_on_c, 9, 42, 0
1, 282960, Note_on_c, 9, 42, 43
1, 282960, Note_on_c, 9, 35, 90
1, 283199, Note_on_c, 9, 42, 0
1, 283199, Note_on_c, 9, 35, 0
1, 283200, Note_on_c, 9, 42, 64
1, 283200, Note_on_c, 9, 35, 97
1, 283439, Note_on_c, 9, 42, 0
1, 283440, Note_on_c, 9, 42, 46
1, 283679, Note_on_c, 9, 35, 0
1, 283679, Note_on_c, 9, 42, 0
1, 283680, Note_on_c, 9, 40, 95
1, 283680, Note_on_c, 9, 42, 67
1, 283919, Note_on_c, 9, 40, 0
1, 283919, Note_on_c, 9, 42, 0
1, 283920, Note_on_c, 9, 42, 49
1, 283920, Note_on_c, 9, 35, 91
1, 284159, Note_on_c, 9, 42, 0
1, 284159, Note_on_c, 9, 35, 0
1, 284160, Note_on_c, 9, 42, 63
1, 284160, Note_on_c, 9, 35, 100
1, 284399, Note_on_c, 9, 42, 0
1, 284400, Note_on_c, 9, 42, 47
1, 284639, Note_on_c, 9, 35, 0
1, 284639, Note_on_c, 9, 42, 0
1, 284640, Note_on_c, 9, 40, 94
1, 284640, Note_on_c, 9, 42, 64
1, 284879, Note_on_c, 9, 40, 0
1, 284879, Note_on_c, 9, 42, 0
1, 284880, Note_on_c, 9, 42, 48
1, 284880, Note_on_c, 9, 35, 93
1, 285119, Note_on_c, 9, 42, 0
1, 285119, Note_on_c, 9, 35, 0
1, 285120, Note_on_c, 9, 42, 60
1, 285120, Note_on_c, 9, 35, 99
1, 285359, Note_on_c, 9, 42, 0
1, 285360, Note_on_c, 9, 46, 52
1, 285599, Note_on_c, 9, 35, 0
1, 285599, Note_on_c, 9, 46, 0
1, 285600, Note_on_c, 9, 40, 85
1, 285600, Note_on_c, 9, 42, 77
1, 285839, Note_on_c, 9, 40, 0
1, 285839, Note_on_c, 9, 42, 0
1, 285840, Note_on_c, 9, 42, 46
1, 285840, Note_on_c, 9, 35, 92
1, 286079, Note_on_c, 9, 42, 0
1, 286079, Note_on_c, 9, 35, 0
1, 286080, Note_on_c, 9, 57, 48
1, 286080, Note_on_c, 9, 35, 94
1, 286319, Note_on_c, 9, 57, 0
1, 286320, Note_on_c, 9, 42, 50
1, 286559, Note_on_c, 9, 35, 0
1, 286559, Note_on_c, 9, 42, 0
1, 286560, Note_on_c, 9, 40, 81
1, 286560, Note_on_c, 9, 42, 66
1, 286799, Note_on_c, 9, 40, 0
1, 286799, Note_on_c, 9, 42, 0
1, 286800, Note_on_c, 9, 42, 53
1, 286800, Note_on_c, 9, 35, 93
1, 287039, Note_on_c, 9, 42, 0
1, 287039, Note_on_c, 9, 35, 0
1, 287040, Note_on_c, 9, 42, 71
1, 287040, Note_on_c, 9, 35, 96
1, 287279, Note_on_c, 9, 42, 0
1, 287280, Note_on_c, 9, 42, 52
1, 287519, Note_on_c, 9, 35, 0
1, 287519, Note_on_c, 9, 42, 0
1, 287520, Note_on_c, 9, 40, 105
1, 287520, Note_on_c, 9, 42, 75
1, 287759, Note_on_c, 9, 40, 0
1, 287759, Note_on_c, 9, 42, 0
1, 287760, Note_on_c, 9, 42, 47
1, 287760, Note_on_c, 9, 35, 87
1, 287999, Note_on_c, 9, 42, 0
1, 287999, Note_on_c, 9, 35, 0
1, 288000, Note_on_c, 9, 42, 69
1, 288000, Note_on_c, 9, 35, 95
1, 288239, Note_on_c, 9, 42, 0
1, 288240, Note_on_c, 9, 42, 39
1, 288479, Note_on_c, 9, 35, 0
1, 288479, Note_on_c, 9, 42, 0
1, 288480, Note_on_c, 9, 40, 103
1, 288480, Note_on_c, 9, 42, 71
1, 288719, Note_on_c, 9, 40, 0
1, 288719, Note_on_c, 9, 42, 0
1, 288720, Note_on_c, 9, 42, 47
1, 288720, Note_on_c, 9, 35, 90
1, 288959, Note_on_c, 9, 42, 0
1, 288959, Note_on_c, 9, 35, 0
1, 288960, Note_on_c, 9, 42, 69
1, 288960, Note_on_c, 9, 35, 96
1, 289199, Note_on_c, 9, 42, 0
1, 289200, Note_on_c, 9, 42, 45
1, 289439, Note_on_c, 9, 35, 0
1, 289439, Note_on_c, 9, 42, 0
1, 289440, Note_on_c, 9, 40, 97
1, 289440, Note_on_c, 9, 42, 75
1, 289679, Note_on_c, 9, 40, 0
1, 289679, Note_on_c, 9, 42, 0
1, 289680, Note_on_c, 9, 42, 49
1, 289680, Note_on_c, 9, 35, 92
1, 289919, Note_on_c, 9, 42, 0
1, 289919, Note_on_c, 9, 35, 0
1, 289920, Note_on_c, 9, 46, 66
1, 289920, Note_on_c, 9, 35, 97
1, 290399, Note_on_c, 9, 46, 0
1, 290399, Note_on_c, 9, 35, 0
1, 290400, Note_on_c, 9, 40, 91
1, 290400, Note_on_c, 9, 42, 66
1, 290639, Note_on_c, 9, 40, 0
1, 290639, Note_on_c, 9, 42, 0
1, 290640, Note_on_c, 9, 42, 43
1, 290640, Note_on_c, 9, 35, 90
1, 290879, Note_on_c, 9, 42, 0
1, 290879, Note_on_c, 9, 35, 0
1, 290880, Note_on_c, 9, 42, 64
1, 290880, Note_on_c, 9, 35, 97
1, 291119, Note_on_c, 9, 42, 0
1, 291120, Note_on_c, 9, 42, 46
1, 291359, Note_on_c, 9, 35, 0
1, 291359, Note_on_c, 9, 42, 0
1, 291360, Note_on_c, 9, 40, 95
1, 291360, Note_on_c, 9, 42, 67
1, 291599, Note_on_c, 9, 40, 0
1, 291599, Note_on_c, 9, 42, 0
1, 291600, Note_on_c, 9, 42, 49
1, 291600, Note_on_c, 9, 35, 91
1, 291839, Note_on_c, 9, 42, 0
1, 291839, Note_on_c, 9, 35, 0
1, 291840, Note_on_c, 9, 42, 63
1, 291840, Note_on_c, 9, 35, 100
1, 292079, Note_on_c, 9, 42, 0
1, 292080, Note_on_c, 9, 42, 47
1, 292319, Note_on_c, 9, 35, 0
1, 292319, Note_on_c, 9, 42, 0
1, 292320, Note_on_c, 9, 40, 94
1, 292320, Note_on_c, 9, 42, 64
1, 292559, Note_on_c, 9, 40, 0
1, 292559, Note_on_c, 9, 42, 0
1, 292560, Note_on_c, 9, 42, 48
1, 292560, Note_on_c, 9, 35, 93
1, 292799, Note_on_c, 9, 42, 0
1, 292799, Note_on_c, 9, 35, 0
1, 292800, Note_on_c, 9, 42, 60
1, 292800, Note_on_c, 9, 35, 99
1, 293039, Note_on_c, 9, 42, 0
1, 293040, Note_on_c, 9, 42, 52
1, 293279, Note_on_c, 9, 35, 0
1, 293279, Note_on_c, 9, 42, 0
1, 293280, Note_on_c, 9, 40, 85
1, 293280, Note_on_c, 9, 42, 77
1, 293519, Note_on_c, 9, 40, 0
1, 293519, Note_on_c, 9, 42, 0
1, 293520, Note_on_c, 9, 42, 46
1, 293520, Note_on_c, 9, 35, 92
1, 293759, Note_on_c, 9, 42, 0
1, 293759, Note_on_c, 9, 35, 0
1, 293760, Note_on_c, 9, 57, 48
1, 293760, Note_on_c, 9, 35, 94
1, 293999, Note_on_c, 9, 57, 0
1, 294000, Note_on_c, 9, 42, 50
1, 294239, Note_on_c, 9, 35, 0
1, 294239, Note_on_c, 9, 42, 0
1, 294240, Note_on_c, 9, 40, 81
1, 294240, Note_on_c, 9, 42, 66
1, 294479, Note_on_c, 9, 40, 0
1, 294479, Note_on_c, 9, 42, 0
1, 294480, Note_on_c, 9, 42, 53
1, 294480, Note_on_c, 9, 35, 93
1, 294719, Note_on_c, 9, 42, 0
1, 294719, Note_on_c, 9, 35, 0
1, 294720, Note_on_c, 9, 57, 56
1, 294720, Note_on_c, 9, 35, 96
1, 294959, Note_on_c, 9, 57, 0
1, 294960, Note_on_c, 9, 42, 52
1, 295199, Note_on_c, 9, 35, 0
1, 295199, Note_on_c, 9, 42, 0
1, 295200, Note_on_c, 9, 40, 105
1, 295200, Note_on_c, 9, 42, 75
1, 295439, Note_on_c, 9, 40, 0
1, 295439, Note_on_c, 9, 42, 0
1, 295440, Note_on_c, 9, 42, 47
1, 295440, Note_on_c, 9, 35, 87
1, 295679, Note_on_c, 9, 42, 0
1, 295679, Note_on_c, 9, 35, 0
1, 295680, Note_on_c, 9, 57, 54
1, 295680, Note_on_c, 9, 35, 95
1, 295919, Note_on_c, 9, 57, 0
1, 295920, Note_on_c, 9, 42, 39
1, 296159, Note_on_c, 9, 35, 0
1, 296159, Note_on_c, 9, 42, 0
1, 296160, Note_on_c, 9, 40, 103
1, 296160, Note_on_c, 9, 42, 71
1, 296399, Note_on_c, 9, 40, 0
1, 296399, Note_on_c, 9, 42, 0
1, 296400, Note_on_c, 9, 42, 47
1, 296400, Note_on_c, 9, 35, 90
1, 296639, Note_on_c, 9, 42, 0
1, 296639, Note_on_c, 9, 35, 0
1, 296640, Note_on_c, 9, 42, 69
1, 296640, Note_on_c, 9, 35, 96
1, 296879, Note_on_c, 9, 42, 0
1, 296880, Note_on_c, 9, 42, 45
1, 297119, Note_on_c, 9, 35, 0
1, 297119, Note_on_c, 9, 42, 0
1, 297120, Note_on_c, 9, 40, 97
1, 297120, Note_on_c, 9, 42, 75
1, 297359, Note_on_c, 9, 40, 0
1, 297359, Note_on_c, 9, 42, 0
1, 297360, Note_on_c, 9, 42, 49
1, 297360, Note_on_c, 9, 35, 92
1, 297599, Note_on_c, 9, 42, 0
1, 297599, Note_on_c, 9, 35, 0
1, 297600, Note_on_c, 9, 42, 66
1, 297600, Note_on_c, 9, 35, 97
1, 297839, Note_on_c, 9, 42, 0
1, 297840, Note_on_c, 9, 42, 43
1, 298079, Note_on_c, 9, 35, 0
1, 298079, Note_on_c, 9, 42, 0
1, 298080, Note_on_c, 9, 40, 91
1, 298080, Note_on_c, 9, 42, 66
1, 298319, Note_on_c, 9, 40, 0
1, 298319, Note_on_c, 9, 42, 0
1, 298320, Note_on_c, 9, 42, 43
1, 298320, Note_on_c, 9, 35, 90
1, 298559, Note_on_c, 9, 42, 0
1, 298559, Note_on_c, 9, 35, 0
1, 298560, Note_on_c, 9, 42, 64
1, 298560, Note_on_c, 9, 35, 97
1, 298799, Note_on_c, 9, 42, 0
1, 298800, Note_on_c, 9, 42, 46
1, 299039, Note_on_c, 9, 35, 0
1, 299039, Note_on_c, 9, 42, 0
1, 299040, Note_on_c, 9, 40, 95
1, 299040, Note_on_c, 9, 42, 67
1, 299279, Note_on_c, 9, 40, 0
1, 299279, Note_on_c, 9, 42, 0
1, 299280, Note_on_c, 9, 42, 49
1, 299280, Note_on_c, 9, 35, 91
1, 299519, Note_on_c, 9, 42, 0
1, 299519, Note_on_c, 9, 35, 0
1, 299520, Note_on_c, 9, 42, 63
1, 299520, Note_on_c, 9, 35, 100
1, 299759, Note_on_c, 9, 42, 0
1, 299760, Note_on_c, 9, 42, 47
1, 299999, Note_on_c, 9, 35, 0
1, 299999, Note_on_c, 9, 42, 0
1, 300000, Note_on_c, 9, 40, 94
1, 300000, Note_on_c, 9, 42, 64
1, 300239, Note_on_c, 9, 40, 0
1, 300239, Note_on_c, 9, 42, 0
1, 300240, Note_on_c, 9, 42, 48
1, 300240, Note_on_c, 9, 35, 93
1, 300479, Note_on_c, 9, 42, 0
1, 300479, Note_on_c, 9, 35, 0
1, 300480, Note_on_c, 9, 42, 60
1, 300480, Note_on_c, 9, 35, 99
1, 300719, Note_on_c, 9, 42, 0
1, 300720, Note_on_c, 9, 46, 52
1, 300959, Note_on_c, 9, 35, 0
1, 300959, Note_on_c, 9, 46, 0
1, 300960, Note_on_c, 9, 40, 85
1, 300960, Note_on_c, 9, 42, 77
1, 301199, Note_on_c, 9, 40, 0
1, 301199, Note_on_c, 9, 42, 0
1, 301200, Note_on_c, 9, 42, 46
1, 301200, Note_on_c, 9, 35, 92
1, 301439, Note_on_c, 9, 42, 0
1, 301439, Note_on_c, 9, 35, 0
1, 301440, Note_on_c, 9, 57, 48
1, 301440, Note_on_c, 9, 35, 94
1, 301679, Note_on_c, 9, 57, 0
1, 301680, Note_on_c, 9, 42, 50
1, 301919, Note_on_c, 9, 35, 0
1, 301919, Note_on_c, 9, 42, 0
1, 301920, Note_on_c, 9, 40, 81
1, 301920, Note_on_c, 9, 42, 66
1, 302159, Note_on_c, 9, 40, 0
1, 302159, Note_on_c, 9, 42, 0
1, 302160, Note_on_c, 9, 42, 53
1, 302160, Note_on_c, 9, 35, 93
1, 302399, Note_on_c, 9, 42, 0
1, 302399, Note_on_c, 9, 35, 0
1, 302400, Note_on_c, 9, 42, 71
1, 302400, Note_on_c, 9, 35, 96
1, 302639, Note_on_c, 9, 42, 0
1, 302640, Note_on_c, 9, 42, 52
1, 302879, Note_on_c, 9, 35, 0
1, 302879, Note_on_c, 9, 42, 0
1, 302880, Note_on_c, 9, 40, 105
1, 302880, Note_on_c, 9, 42, 75
1, 303119, Note_on_c, 9, 40, 0
1, 303119, Note_on_c, 9, 42, 0
1, 303120, Note_on_c, 9, 42, 47
1, 303120, Note_on_c, 9, 35, 87
1, 303359, Note_on_c, 9, 42, 0
1, 303359, Note_on_c, 9, 35, 0
1, 303360, Note_on_c, 9, 42, 69
1, 303360, Note_on_c, 9, 35, 95
1, 303599, Note_on_c, 9, 42, 0
1, 303600, Note_on_c, 9, 42, 39
1, 303839, Note_on_c, 9, 35, 0
1, 303839, Note_on_c, 9, 42, 0
1, 303840, Note_on_c, 9, 40, 103
1, 303840, Note_on_c, 9, 42, 71
1, 304079, Note_on_c, 9, 40, 0
1, 304079, Note_on_c, 9, 42, 0
1, 304080, Note_on_c, 9, 42, 47
1, 304080, Note_on_c, 9, 35, 90
1, 304319, Note_on_c, 9, 42, 0
1, 304319, Note_on_c, 9, 35, 0
1, 304320, Note_on_c, 9, 42, 69
1, 304320, Note_on_c, 9, 35, 96
1, 304559, Note_on_c, 9, 42, 0
1, 304560, Note_on_c, 9, 42, 45
1, 304799, Note_on_c, 9, 35, 0
1, 304799, Note_on_c, 9, 42, 0
1, 304800, Note_on_c, 9, 40, 97
1, 304800, Note_on_c, 9, 42, 75
1, 305039, Note_on_c, 9, 40, 0
1, 305039, Note_on_c, 9, 42, 0
1, 305040, Note_on_c, 9, 42, 49
1, 305040, Note_on_c, 9, 35, 92
1, 305279, Note_on_c, 9, 42, 0
1, 305279, Note_on_c, 9, 35, 0
1, 305280, Note_on_c, 9, 46, 66
1, 305280, Note_on_c, 9, 35, 97
1, 305759, Note_on_c, 9, 46, 0
1, 305759, Note_on_c, 9, 35, 0
1, 305760, Note_on_c, 9, 40, 91
1, 305760, Note_on_c, 9, 42, 66
1, 305999, Note_on_c, 9, 40, 0
1, 305999, Note_on_c, 9, 42, 0
1, 306000, Note_on_c, 9, 42, 43
1, 306000, Note_on_c, 9, 35, 90
1, 306239, Note_on_c, 9, 42, 0
1, 306239, Note_on_c, 9, 35, 0
1, 306240, Note_on_c, 9, 42, 64
1, 306240, Note_on_c, 9, 35, 97
1, 306479, Note_on_c, 9, 42, 0
1, 306480, Note_on_c, 9, 42, 46
1, 306719, Note_on_c, 9, 35, 0
1, 306719, Note_on_c, 9, 42, 0
1, 306720, Note_on_c, 9, 40, 95
1, 306720, Note_on_c, 9, 42, 67
1, 306959, Note_on_c, 9, 40, 0
1, 306959, Note_on_c, 9, 42, 0
1, 306960, Note_on_c, 9, 42, 49
1, 306960, Note_on_c, 9, 35, 91
1, 307199, Note_on_c, 9, 42, 0
1, 307199, Note_on_c, 9, 35, 0
1, 307200, Note_on_c, 9, 42, 63
1, 307200, Note_on_c, 9, 35, 100
1, 307439, Note_on_c, 9, 42, 0
1, 307440, Note_on_c, 9, 42, 47
1, 307679, Note_on_c, 9, 35, 0
1, 307679, Note_on_c, 9, 42, 0
1, 307680, Note_on_c, 9, 40, 94
1, 307680, Note_on_c, 9, 42, 64
1, 307919, Note_on_c, 9, 40, 0
1, 307919, Note_on_c, 9, 42, 0
1, 307920, Note_on_c, 9, 42, 48
1, 307920, Note_on_c, 9, 35, 93
1, 308159, Note_on_c, 9, 42, 0
1, 308159, Note_on_c, 9, 35, 0
1, 308160, Note_on_c, 9, 42, 60
1, 308160, Note_on_c, 9, 35, 99
1, 308399, Note_on_c, 9, 42, 0
1, 308400, Note_on_c, 9, 42, 52
1, 308639, Note_on_c, 9, 35, 0
1, 308639, Note_on_c, 9, 42, 0
1, 308640, Note_on_c, 9, 40, 85
1, 308640, Note_on_c, 9, 42, 77
1, 308879, Note_on_c, 9, 40, 0
1, 308879, Note_on_c, 9, 42, 0
1, 308880, Note_on_c, 9, 42, 46
1, 308880, Note_on_c, 9, 35, 92
1, 309119, Note_on_c, 9, 42, 0
1, 309119, Note_on_c, 9, 35, 0
1, 309120, Note_on_c, 9, 57, 48
1, 309120, Note_on_c, 9, 35, 94
1, 309299, Note_on_c, 9, 57, 0
1, 309330, Note_on_c, 9, 42, 50
1, 309539, Note_on_c, 9, 42, 0
1, 309570, Note_on_c, 9, 40, 81
1, 309570, Note_on_c, 9, 42, 66
1, 309599, Note_on_c, 9, 35, 0
1, 309599, Note_on_c, 9, 40, 0
1, 309599, Note_on_c, 9, 42, 0
1, 309810, Note_on_c, 9, 42, 53
1, 309810, Note_on_c, 9, 35, 93
1, 310019, Note_on_c, 9, 42, 0
1, 310019, Note_on_c, 9, 35, 0
1, 310050, Note_on_c, 9, 57, 56
1, 310050, Note_on_c, 9, 35, 96
1, 310079, Note_on_c, 9, 57, 0
1, 310290, Note_on_c, 9, 42, 52
1, 310499, Note_on_c, 9, 42, 0
1, 310530, Note_on_c, 9, 40, 105
1, 310530, Note_on_c, 9, 42, 75
1, 310559, Note_on_c, 9, 35, 0
1, 310559, Note_on_c, 9, 40, 0
1, 310559, Note_on_c, 9, 42, 0
1, 310770, Note_on_c, 9, 42, 47
1, 310770, Note_on_c, 9, 35, 87
1, 310799, Note_on_c, 9, 35, 0
1, 310979, Note_on_c, 9, 42, 0
1, 311010, Note_on_c, 9, 57, 54
1, 311039, Note_on_c, 9, 57, 0
1, 311040, Note_on_c, 9, 35, 95
1, 311250, Note_on_c, 9, 42, 39
1, 311459, Note_on_c, 9, 42, 0
1, 311490, Note_on_c, 9, 40, 103
1, 311490, Note_on_c, 9, 42, 71
1, 311519, Note_on_c, 9, 35, 0
1, 311519, Note_on_c, 9, 42, 0
1, 311699, Note_on_c, 9, 40, 0
1, 311730, Note_on_c, 9, 42, 47
1, 311730, Note_on_c, 9, 35, 90
1, 311939, Note_on_c, 9, 42, 0
1, 311939, Note_on_c, 9, 35, 0
1, 311970, Note_on_c, 9, 42, 69
1, 311970, Note_on_c, 9, 35, 96
1, 311999, Note_on_c, 9, 42, 0
1, 312210, Note_on_c, 9, 42, 45
1, 312419, Note_on_c, 9, 42, 0
1, 312450, Note_on_c, 9, 40, 97
1, 312450, Note_on_c, 9, 42, 75
1, 312479, Note_on_c, 9, 35, 0
1, 312479, Note_on_c, 9, 40, 0
1, 312479, Note_on_c, 9, 42, 0
1, 312690, Note_on_c, 9, 42, 49
1, 312690, Note_on_c, 9, 35, 92
1, 312899, Note_on_c, 9, 42, 0
1, 312899, Note_on_c, 9, 35, 0
1, 312930, Note_on_c, 9, 42, 66
1, 312930, Note_on_c, 9, 35, 97
1, 312959, Note_on_c, 9, 42, 0
1, 312959, Note_on_c, 9, 35, 0
1, 313170, Note_on_c, 9, 42, 43
1, 313379, Note_on_c, 9, 42, 0
1, 313410, Note_on_c, 9, 40, 91
1, 313410, Note_on_c, 9, 42, 66
1, 313439, Note_on_c, 9, 40, 0
1, 313439, Note_on_c, 9, 42, 0
1, 313650, Note_on_c, 9, 42, 43
1, 313650, Note_on_c, 9, 35, 90
1, 313859, Note_on_c, 9, 42, 0
1, 313859, Note_on_c, 9, 35, 0
1, 313890, Note_on_c, 9, 42, 64
1, 313890, Note_on_c, 9, 35, 97
1, 313919, Note_on_c, 9, 42, 0
1, 313919, Note_on_c, 9, 35, 0
1, 314130, Note_on_c, 9, 42, 46
1, 314339, Note_on_c, 9, 42, 0
1, 314370, Note_on_c, 9, 40, 95
1, 314370, Note_on_c, 9, 42, 67
1, 314399, Note_on_c, 9, 40, 0
1, 314399, Note_on_c, 9, 42, 0
1, 314610, Note_on_c, 9, 42, 49
1, 314610, Note_on_c, 9, 35, 91
1, 314819, Note_on_c, 9, 42, 0
1, 314819, Note_on_c, 9, 35, 0
1, 314850, Note_on_c, 9, 42, 63
1, 314850, Note_on_c, 9, 35, 100
1, 314879, Note_on_c, 9, 42, 0
1, 314879, Note_on_c, 9, 35, 0
1, 315090, Note_on_c, 9, 42, 47
1, 315299, Note_on_c, 9, 42, 0
1, 315330, Note_on_c, 9, 40, 94
1, 315330, Note_on_c, 9, 42, 64
1, 315359, Note_on_c, 9, 42, 0
1, 315539, Note_on_c, 9, 40, 0
1, 315570, Note_on_c, 9, 42, 48
1, 315570, Note_on_c, 9, 35, 93
1, 315779, Note_on_c, 9, 42, 0
1, 315779, Note_on_c, 9, 35, 0
1, 315810, Note_on_c, 9, 42, 60
1, 315810, Note_on_c, 9, 35, 99
1, 315839, Note_on_c, 9, 42, 0
1, 316050, Note_on_c, 9, 46, 52
1, 316259, Note_on_c, 9, 46, 0
1, 316290, Note_on_c, 9, 40, 85
1, 316290, Note_on_c, 9, 42, 77
1, 316319, Note_on_c, 9, 35, 0
1, 316319, Note_on_c, 9, 40, 0
1, 316319, Note_on_c, 9, 42, 0
1, 316530, Note_on_c, 9, 42, 46
1, 316530, Note_on_c, 9, 35, 92
1, 316739, Note_on_c, 9, 42, 0
1, 316739, Note_on_c, 9, 35, 0
1, 316770, Note_on_c, 9, 53, 91
1, 316770, Note_on_c, 9, 55, 73
1, 316770, Note_on_c, 9, 57, 48
1, 316770, Note_on_c, 9, 35, 94
1, 316799, Note_on_c, 9, 53, 0
1, 316799, Note_on_c, 9, 55, 0
1, 316799, Note_on_c, 9, 57, 0
1, 316799, Note_on_c, 9, 35, 0
1, 317250, Note_on_c, 9, 40, 88
1, 317250, Note_on_c, 9, 53, 94
1, 317279, Note_on_c, 9, 53, 0
1, 317490, Note_on_c, 9, 35, 88
1, 317699, Note_on_c, 9, 35, 0
1, 317729, Note_on_c, 9, 40, 0
1, 317730, Note_on_c, 9, 53, 80
1, 317730, Note_on_c, 9, 35, 92
1, 317759, Note_on_c, 9, 53, 0
1, 318210, Note_on_c, 9, 40, 85
1, 318210, Note_on_c, 9, 53, 86
1, 318239, Note_on_c, 9, 35, 0
1, 318239, Note_on_c, 9, 40, 0
1, 318239, Note_on_c, 9, 53, 0
1, 318450, Note_on_c, 9, 35, 88
1, 318659, Note_on_c, 9, 35, 0
1, 318690, Note_on_c, 9, 53, 74
1, 318690, Note_on_c, 9, 35, 91
1, 318719, Note_on_c, 9, 53, 0
1, 318719, Note_on_c, 9, 35, 0
1, 319170, Note_on_c, 9, 40, 84
1, 319170, Note_on_c, 9, 53, 85
1, 319199, Note_on_c, 9, 40, 0
1, 319199, Note_on_c, 9, 53, 0
1, 319410, Note_on_c, 9, 35, 92
1, 319619, Note_on_c, 9, 35, 0
1, 319650, Note_on_c, 9, 53, 76
1, 319650, Note_on_c, 9, 35, 91
1, 319679, Note_on_c, 9, 53, 0
1, 319679, Note_on_c, 9, 35, 0
1, 320130, Note_on_c, 9, 40, 84
1, 320130, Note_on_c, 9, 53, 87
1, 320159, Note_on_c, 9, 40, 0
1, 320159, Note_on_c, 9, 53, 0
1, 320370, Note_on_c, 9, 35, 90
1, 320579, Note_on_c, 9, 35, 0
1, 320610, Note_on_c, 9, 53, 77
1, 320610, Note_on_c, 9, 35, 95
1, 320639, Note_on_c, 9, 53, 0
1, 320639, Note_on_c, 9, 35, 0
1, 321090, Note_on_c, 9, 40, 85
1, 321090, Note_on_c, 9, 53, 80
1, 321119, Note_on_c, 9, 40, 0
1, 321119, Note_on_c, 9, 53, 0
1, 321330, Note_on_c, 9, 35, 88
1, 321539, Note_on_c, 9, 35, 0
1, 321570, Note_on_c, 9, 53, 80
1, 321570, Note_on_c, 9, 35, 93
1, 321599, Note_on_c, 9, 53, 0
1, 321599, Note_on_c, 9, 35, 0
1, 321810, Note_on_c, 9, 40, 88
1, 322019, Note_on_c, 9, 40, 0
1, 322050, Note_on_c, 9, 53, 90
1, 322079, Note_on_c, 9, 53, 0
1, 322290, Note_on_c, 9, 35, 94
1, 322319, Note_on_c, 9, 35, 0
1, 322530, Note_on_c, 9, 53, 88
1, 322559, Note_on_c, 9, 53, 0
1, 322560, Note_on_c, 9, 35, 97
1, 323010, Note_on_c, 9, 40, 99
1, 323010, Note_on_c, 9, 53, 87
1, 323039, Note_on_c, 9, 35, 0
1, 323039, Note_on_c, 9, 40, 0
1, 323039, Note_on_c, 9, 53, 0
1, 323250, Note_on_c, 9, 35, 94
1, 323459, Note_on_c, 9, 35, 0
1, 323490, Note_on_c, 9, 53, 81
1, 323490, Note_on_c, 9, 35, 94
1, 323519, Note_on_c, 9, 53, 0
1, 323519, Note_on_c, 9, 35, 0
1, 323970, Note_on_c, 9, 40, 87
1, 323970, Note_on_c, 9, 53, 87
1, 323999, Note_on_c, 9, 40, 0
1, 323999, Note_on_c, 9, 53, 0
1, 324210, Note_on_c, 9, 35, 92
1, 324419, Note_on_c, 9, 35, 0
1, 324450, Note_on_c, 9, 53, 83
1, 324450, Note_on_c, 9, 35, 95
1, 324479, Note_on_c, 9, 53, 0
1, 324479, Note_on_c, 9, 35, 0
1, 324930, Note_on_c, 9, 40, 95
1, 324930, Note_on_c, 9, 53, 83
1, 324959, Note_on_c, 9, 40, 0
1, 324959, Note_on_c, 9, 53, 0
1, 325170, Note_on_c, 9, 35, 90
1, 325379, Note_on_c, 9, 35, 0
1, 325410, Note_on_c, 9, 53, 87
1, 325410, Note_on_c, 9, 35, 94
1, 325439, Note_on_c, 9, 35, 0
1, 325889, Note_on_c, 9, 53, 0
1, 325890, Note_on_c, 9, 40, 82
1, 325890, Note_on_c, 9, 53, 86
1, 325919, Note_on_c, 9, 53, 0
1, 326130, Note_on_c, 9, 35, 92
1, 326339, Note_on_c, 9, 35, 0
1, 326369, Note_on_c, 9, 40, 0
1, 326370, Note_on_c, 9, 53, 87
1, 326370, Note_on_c, 9, 35, 94
1, 326399, Note_on_c, 9, 53, 0
1, 326850, Note_on_c, 9, 40, 84
1, 326850, Note_on_c, 9, 53, 87
1, 326879, Note_on_c, 9, 35, 0
1, 326879, Note_on_c, 9, 53, 0
1, 327090, Note_on_c, 9, 35, 90
1, 327299, Note_on_c, 9, 35, 0
1, 327329, Note_on_c, 9, 40, 0
1, 327330, Note_on_c, 9, 53, 83
1, 327330, Note_on_c, 9, 35, 94
1, 327359, Note_on_c, 9, 53, 0
1, 327810, Note_on_c, 9, 40, 87
1, 327810, Note_on_c, 9, 53, 90
1, 327839, Note_on_c, 9, 35, 0
1, 327839, Note_on_c, 9, 53, 0
1, 328050, Note_on_c, 9, 35, 91
1, 328289, Note_on_c, 9, 40, 0
1, 328290, Note_on_c, 9, 53, 90
1, 328290, Note_on_c, 9, 55, 73
1, 328319, Note_on_c, 9, 35, 0
1, 328319, Note_on_c, 9, 53, 0
1, 328319, Note_on_c, 9, 55, 0
1, 328320, Note_on_c, 9, 35, 95
1, 328770, Note_on_c, 9, 40, 88
1, 328770, Note_on_c, 9, 53, 88
1, 328799, Note_on_c, 9, 35, 0
1, 328799, Note_on_c, 9, 53, 0
1, 329010, Note_on_c, 9, 35, 90
1, 329219, Note_on_c, 9, 35, 0
1, 329249, Note_on_c, 9, 40, 0
1, 329250, Note_on_c, 9, 53, 86
1, 329250, Note_on_c, 9, 35, 94
1, 329279, Note_on_c, 9, 53, 0
1, 329730, Note_on_c, 9, 40, 88
1, 329730, Note_on_c, 9, 53, 67
1, 329759, Note_on_c, 9, 35, 0
1, 329759, Note_on_c, 9, 53, 0
1, 329939, Note_on_c, 9, 40, 0
1, 329970, Note_on_c, 9, 46, 101
1, 329970, Note_on_c, 9, 57, 70
1, 329970, Note_on_c, 9, 35, 96
1, 329999, Note_on_c, 9, 46, 0
1, 329999, Note_on_c, 9, 57, 0
1, 330239, Note_on_c, 9, 35, 0
1, 330450, Note_on_c, 9, 40, 82
1, 330659, Note_on_c, 9, 40, 0
1, 330690, Note_on_c, 9, 40, 101
1, 330719, Note_on_c, 9, 40, 0
1, 331050, Note_on_c, 9, 40, 80
1, 331169, Note_on_c, 9, 40, 0
1, 331170, Note_on_c, 9, 40, 92
1, 331199, Note_on_c, 9, 40, 0
1, 331410, Note_on_c, 9, 40, 101
1, 331619, Note_on_c, 9, 40, 0
1, 331650, Note_on_c, 9, 40, 99
1, 331769, Note_on_c, 9, 40, 0
1, 331770, Note_on_c, 9, 40, 114
1, 331889, Note_on_c, 9, 40, 0
1, 331890, Note_on_c, 9, 40, 81
1, 332009, Note_on_c, 9, 40, 0
1, 332010, Note_on_c, 9, 40, 111
1, 332039, Note_on_c, 9, 40, 0
1, 332130, Note_on_c, 9, 35, 96
1, 332159, Note_on_c, 9, 35, 0
1, 332160, Note_on_c, 9, 42, 86
1, 332339, Note_on_c, 9, 42, 0
1, 332370, Note_on_c, 9, 42, 50
1, 332579, Note_on_c, 9, 42, 0
1, 332610, Note_on_c, 9, 40, 94
1, 332610, Note_on_c, 9, 42, 81
1, 332639, Note_on_c, 9, 40, 0
1, 332819, Note_on_c, 9, 42, 0
1, 332850, Note_on_c, 9, 42, 56
1, 332850, Note_on_c, 9, 35, 92
1, 333059, Note_on_c, 9, 42, 0
1, 333059, Note_on_c, 9, 35, 0
1, 333090, Note_on_c, 9, 42, 66
1, 333090, Note_on_c, 9, 35, 96
1, 333119, Note_on_c, 9, 42, 0
1, 333119, Note_on_c, 9, 35, 0
1, 333330, Note_on_c, 9, 42, 53
1, 333539, Note_on_c, 9, 42, 0
1, 333570, Note_on_c, 9, 40, 91
1, 333570, Note_on_c, 9, 42, 86
1, 333599, Note_on_c, 9, 40, 0
1, 333599, Note_on_c, 9, 42, 0
1, 333810, Note_on_c, 9, 42, 49
1, 333810, Note_on_c, 9, 35, 92
1, 334019, Note_on_c, 9, 42, 0
1, 334019, Note_on_c, 9, 35, 0
1, 334050, Note_on_c, 9, 42, 73
1, 334050, Note_on_c, 9, 35, 96
1, 334079, Note_on_c, 9, 42, 0
1, 334079, Note_on_c, 9, 35, 0
1, 334290, Note_on_c, 9, 42, 33
1, 334499, Note_on_c, 9, 42, 0
1, 334530, Note_on_c, 9, 40, 92
1, 334530, Note_on_c, 9, 42, 92
1, 334559, Note_on_c, 9, 40, 0
1, 334559, Note_on_c, 9, 42, 0
1, 334770, Note_on_c, 9, 42, 49
1, 334770, Note_on_c, 9, 35, 89
1, 334979, Note_on_c, 9, 42, 0
1, 334979, Note_on_c, 9, 35, 0
1, 335010, Note_on_c, 9, 42, 79
1, 335010, Note_on_c, 9, 35, 96
1, 335039, Note_on_c, 9, 42, 0
1, 335039, Note_on_c, 9, 35, 0
1, 335250, Note_on_c, 9, 42, 56
1, 335459, Note_on_c, 9, 42, 0
1, 335490, Note_on_c, 9, 40, 77
1, 335490, Note_on_c, 9, 42, 86
1, 335519, Note_on_c, 9, 40, 0
1, 335519, Note_on_c, 9, 42, 0
1, 335730, Note_on_c, 9, 42, 34
1, 335730, Note_on_c, 9, 35, 91
1, 335939, Note_on_c, 9, 42, 0
1, 335939, Note_on_c, 9, 35, 0
1, 335970, Note_on_c, 9, 42, 92
1, 335970, Note_on_c, 9, 35, 99
1, 335999, Note_on_c, 9, 42, 0
1, 335999, Note_on_c, 9, 35, 0
1, 336210, Note_on_c, 9, 42, 49
1, 336419, Note_on_c, 9, 42, 0
1, 336450, Note_on_c, 9, 40, 99
1, 336450, Note_on_c, 9, 42, 83
1, 336479, Note_on_c, 9, 42, 0
1, 336659, Note_on_c, 9, 40, 0
1, 336690, Note_on_c, 9, 42, 50
1, 336690, Note_on_c, 9, 35, 90
1, 336899, Note_on_c, 9, 42, 0
1, 336899, Note_on_c, 9, 35, 0
1, 336930, Note_on_c, 9, 42, 73
1, 336930, Note_on_c, 9, 35, 96
1, 336959, Note_on_c, 9, 42, 0
1, 337170, Note_on_c, 9, 42, 48
1, 337379, Note_on_c, 9, 42, 0
1, 337410, Note_on_c, 9, 40, 97
1, 337410, Note_on_c, 9, 42, 79
1, 337439, Note_on_c, 9, 35, 0
1, 337439, Note_on_c, 9, 40, 0
1, 337439, Note_on_c, 9, 42, 0
1, 337650, Note_on_c, 9, 42, 43
1, 337650, Note_on_c, 9, 35, 92
1, 337859, Note_on_c, 9, 42, 0
1, 337859, Note_on_c, 9, 35, 0
1, 337890, Note_on_c, 9, 42, 83
1, 337890, Note_on_c, 9, 35, 96
1, 337919, Note_on_c, 9, 42, 0
1, 337919, Note_on_c, 9, 35, 0
1, 338130, Note_on_c, 9, 42, 39
1, 338339, Note_on_c, 9, 42, 0
1, 338370, Note_on_c, 9, 40, 101
1, 338370, Note_on_c, 9, 42, 81
1, 338399, Note_on_c, 9, 40, 0
1, 338399, Note_on_c, 9, 42, 0
1, 338610, Note_on_c, 9, 42, 47
1, 338610, Note_on_c, 9, 35, 93
1, 338819, Note_on_c, 9, 42, 0
1, 338819, Note_on_c, 9, 35, 0
1, 338850, Note_on_c, 9, 42, 69
1, 338850, Note_on_c, 9, 35, 90
1, 338879, Note_on_c, 9, 42, 0
1, 338879, Note_on_c, 9, 35, 0
1, 339090, Note_on_c, 9, 42, 49
1, 339299, Note_on_c, 9, 42, 0
1, 339330, Note_on_c, 9, 40, 94
1, 339330, Note_on_c, 9, 42, 75
1, 339359, Note_on_c, 9, 40, 0
1, 339359, Note_on_c, 9, 42, 0
1, 339570, Note_on_c, 9, 42, 43
1, 339570, Note_on_c, 9, 35, 93
1, 339779, Note_on_c, 9, 42, 0
1, 339779, Note_on_c, 9, 35, 0
1, 339810, Note_on_c, 9, 42, 77
1, 339810, Note_on_c, 9, 35, 97
1, 339839, Note_on_c, 9, 42, 0
1, 339839, Note_on_c, 9, 35, 0
1, 340050, Note_on_c, 9, 42, 49
1, 340259, Note_on_c, 9, 42, 0
1, 340290, Note_on_c, 9, 40, 101
1, 340290, Note_on_c, 9, 42, 71
1, 340319, Note_on_c, 9, 40, 0
1, 340319, Note_on_c, 9, 42, 0
1, 340530, Note_on_c, 9, 42, 40
1, 340530, Note_on_c, 9, 35, 94
1, 340739, Note_on_c, 9, 42, 0
1, 340739, Note_on_c, 9, 35, 0
1, 340770, Note_on_c, 9, 42, 67
1, 340770, Note_on_c, 9, 35, 96
1, 340799, Note_on_c, 9, 42, 0
1, 340799, Note_on_c, 9, 35, 0
1, 341010, Note_on_c, 9, 42, 52
1, 341219, Note_on_c, 9, 42, 0
1, 341250, Note_on_c, 9, 40, 101
1, 341250, Note_on_c, 9, 42, 69
1, 341279, Note_on_c, 9, 40, 0
1, 341279, Note_on_c, 9, 42, 0
1, 341490, Note_on_c, 9, 42, 49
1, 341490, Note_on_c, 9, 35, 100
1, 341519, Note_on_c, 9, 35, 0
1, 341699, Note_on_c, 9, 42, 0
1, 341730, Note_on_c, 9, 42, 67
1, 341759, Note_on_c, 9, 42, 0
1, 341970, Note_on_c, 9, 42, 47
1, 341970, Note_on_c, 9, 35, 91
1, 342179, Note_on_c, 9, 42, 0
1, 342210, Note_on_c, 9, 40, 107
1, 342210, Note_on_c, 9, 42, 77
1, 342239, Note_on_c, 9, 35, 0
1, 342239, Note_on_c, 9, 42, 0
1, 342419, Note_on_c, 9, 40, 0
1, 342450, Note_on_c, 9, 42, 35
1, 342450, Note_on_c, 9, 35, 96
1, 342659, Note_on_c, 9, 42, 0
1, 342659, Note_on_c, 9, 35, 0
1, 342690, Note_on_c, 9, 42, 66
1, 342690, Note_on_c, 9, 35, 98
1, 342719, Note_on_c, 9, 42, 0
1, 342719, Note_on_c, 9, 35, 0
1, 342930, Note_on_c, 9, 42, 43
1, 343139, Note_on_c, 9, 42, 0
1, 343170, Note_on_c, 9, 40, 101
1, 343170, Note_on_c, 9, 42, 81
1, 343199, Note_on_c, 9, 40, 0
1, 343199, Note_on_c, 9, 42, 0
1, 343410, Note_on_c, 9, 42, 35
1, 343410, Note_on_c, 9, 35, 94
1, 343439, Note_on_c, 9, 35, 0
1, 343619, Note_on_c, 9, 42, 0
1, 343650, Note_on_c, 9, 42, 73
1, 343679, Note_on_c, 9, 42, 0
1, 343680, Note_on_c, 9, 35, 99
1, 343890, Note_on_c, 9, 42, 36
1, 344099, Note_on_c, 9, 42, 0
1, 344130, Note_on_c, 9, 40, 99
1, 344130, Note_on_c, 9, 42, 79
1, 344159, Note_on_c, 9, 35, 0
1, 344159, Note_on_c, 9, 40, 0
1, 344159, Note_on_c, 9, 42, 0
1, 344370, Note_on_c, 9, 42, 32
1, 344370, Note_on_c, 9, 35, 93
1, 344579, Note_on_c, 9, 42, 0
1, 344579, Note_on_c, 9, 35, 0
1, 344610, Note_on_c, 9, 42, 81
1, 344610, Note_on_c, 9, 35, 98
1, 344639, Note_on_c, 9, 42, 0
1, 344639, Note_on_c, 9, 35, 0
1, 344850, Note_on_c, 9, 42, 34
1, 345059, Note_on_c, 9, 42, 0
1, 345090, Note_on_c, 9, 40, 101
1, 345090, Note_on_c, 9, 42, 79
1, 345119, Note_on_c, 9, 40, 0
1, 345119, Note_on_c, 9, 42, 0
1, 345330, Note_on_c, 9, 42, 43
1, 345330, Note_on_c, 9, 35, 94
1, 345539, Note_on_c, 9, 42, 0
1, 345539, Note_on_c, 9, 35, 0
1, 345570, Note_on_c, 9, 42, 77
1, 345570, Note_on_c, 9, 35, 100
1, 345599, Note_on_c, 9, 42, 0
1, 345599, Note_on_c, 9, 35, 0
1, 345810, Note_on_c, 9, 42, 38
1, 346019, Note_on_c, 9, 42, 0
1, 346050, Note_on_c, 9, 40, 101
1, 346050, Note_on_c, 9, 42, 89
1, 346079, Note_on_c, 9, 40, 0
1, 346079, Note_on_c, 9, 42, 0
1, 346290, Note_on_c, 9, 42, 59
1, 346290, Note_on_c, 9, 35, 96
1, 346319, Note_on_c, 9, 35, 0
1, 346499, Note_on_c, 9, 42, 0
1, 346530, Note_on_c, 9, 40, 83
1, 346530, Note_on_c, 9, 42, 89
1, 346559, Note_on_c, 9, 40, 0
1, 346559, Note_on_c, 9, 42, 0
1, 346650, Note_on_c, 9, 40, 97
1, 346769, Note_on_c, 9, 40, 0
1, 346770, Note_on_c, 9, 40, 92
1, 346979, Note_on_c, 9, 40, 0
1, 347010, Note_on_c, 9, 40, 124
1, 347039, Note_on_c, 9, 40, 0
1, 347490, Note_on_c, 9, 57, 48
1, 347490, Note_on_c, 9, 35, 94
1, 347519, Note_on_c, 9, 57, 0
1, 347519, Note_on_c, 9, 35, 0
1, 347730, Note_on_c, 9, 42, 50
1, 347939, Note_on_c, 9, 42, 0
1, 347970, Note_on_c, 9, 40, 81
1, 347970, Note_on_c, 9, 42, 66
1, 347999, Note_on_c, 9, 40, 0
1, 347999, Note_on_c, 9, 42, 0
1, 348210, Note_on_c, 9, 42, 53
1, 348210, Note_on_c, 9, 35, 93
1, 348419, Note_on_c, 9, 42, 0
1, 348419, Note_on_c, 9, 35, 0
1, 348450, Note_on_c, 9, 42, 71
1, 348450, Note_on_c, 9, 35, 96
1, 348479, Note_on_c, 9, 42, 0
1, 348690, Note_on_c, 9, 42, 52
1, 348899, Note_on_c, 9, 42, 0
1, 348930, Note_on_c, 9, 40, 105
1, 348930, Note_on_c, 9, 42, 75
1, 348959, Note_on_c, 9, 35, 0
1, 348959, Note_on_c, 9, 40, 0
1, 348959, Note_on_c, 9, 42, 0
1, 349170, Note_on_c, 9, 49, 47
1, 349170, Note_on_c, 9, 35, 87
1, 349199, Note_on_c, 9, 49, 0
1, 349199, Note_on_c, 9, 35, 0
1, 349200, End_track
0, 0, End_of_file
