0, 0, Header, 1, 2, 480
1, 0, Start_track
1, 0, Time_signature, 4, 2, 24, 8
1, 0, Key_signature, 0, "major"
1, 0, Tempo, 508475
1, 0, Control_c, 9, 121, 0
1, 0, Program_c, 9, 0
1, 0, Control_c, 9, 7, 127
1, 0, Control_c, 9, 10, 64
1, 0, Control_c, 9, 91, 0
1, 0, Control_c, 9, 93, 0
1, 0, MIDI_port, 0
1, 0, Note_on_c, 9, 42, 126
1, 239, Note_on_c, 9, 42, 0
1, 240, Note_on_c, 9, 42, 21
1, 479, Note_on_c, 9, 42, 0
1, 480, Note_on_c, 9, 42, 127
1, 719, Note_on_c, 9, 42, 0
1, 720, Note_on_c, 9, 42, 21
1, 959, Note_on_c, 9, 42, 0
1, 960, Note_on_c, 9, 42, 127
1, 1199, Note_on_c, 9, 42, 0
1, 1200, Note_on_c, 9, 42, 21
1, 1439, Note_on_c, 9, 42, 0
1, 1440, Note_on_c, 9, 42, 127
1, 1679, Note_on_c, 9, 42, 0
1, 1680, Note_on_c, 9, 42, 21
1, 1919, Note_on_c, 9, 42, 0
1, 1920, Note_on_c, 9, 42, 126
1, 2159, Note_on_c, 9, 42, 0
1, 2160, Note_on_c, 9, 42, 21
1, 2399, Note_on_c, 9, 42, 0
1, 2400, Note_on_c, 9, 42, 127
1, 2639, Note_on_c, 9, 42, 0
1, 2640, Note_on_c, 9, 42, 21
1, 2879, Note_on_c, 9, 42, 0
1, 2880, Note_on_c, 9, 42, 127
1, 3119, Note_on_c, 9, 42, 0
1, 3120, Note_on_c, 9, 42, 21
1, 3359, Note_on_c, 9, 42, 0
1, 3360, Note_on_c, 9, 42, 127
1, 3599, Note_on_c, 9, 42, 0
1, 3600, Note_on_c, 9, 46, 44
1, 3839, Note_on_c, 9, 46, 0
1, 3840, Note_on_c, 9, 42, 126
1, 4079, Note_on_c, 9, 42, 0
1, 4080, Note_on_c, 9, 42, 21
1, 4319, Note_on_c, 9, 42, 0
1, 4320, Note_on_c, 9, 42, 127
1, 4559, Note_on_c, 9, 42, 0
1, 4560, Note_on_c, 9, 42, 21
1, 4799, Note_on_c, 9, 42, 0
1, 4800, Note_on_c, 9, 42, 127
1, 5039, Note_on_c, 9, 42, 0
1, 5040, Note_on_c, 9, 42, 21
1, 5279, Note_on_c, 9, 42, 0
1, 5280, Note_on_c, 9, 42, 127
1, 5519, Note_on_c, 9, 42, 0
1, 5520, Note_on_c, 9, 42, 21
1, 5759, Note_on_c, 9, 42, 0
1, 5760, Note_on_c, 9, 42, 126
1, 5999, Note_on_c, 9, 42, 0
1, 6000, Note_on_c, 9, 42, 21
1, 6239, Note_on_c, 9, 42, 0
1, 6240, Note_on_c, 9, 42, 127
1, 6479, Note_on_c, 9, 42, 0
1, 6480, Note_on_c, 9, 42, 21
1, 6719, Note_on_c, 9, 42, 0
1, 6720, Note_on_c, 9, 42, 127
1, 6959, Note_on_c, 9, 42, 0
1, 6960, Note_on_c, 9, 42, 21
1, 7199, Note_on_c, 9, 42, 0
1, 7200, Note_on_c, 9, 42, 127
1, 7439, Note_on_c, 9, 42, 0
1, 7440, Note_on_c, 9, 46, 44
1, 7679, Note_on_c, 9, 46, 0
1, 7680, Note_on_c, 9, 42, 126
1, 7919, Note_on_c, 9, 42, 0
1, 7920, Note_on_c, 9, 42, 21
1, 8159, Note_on_c, 9, 42, 0
1, 8160, Note_on_c, 9, 42, 127
1, 8399, Note_on_c, 9, 42, 0
1, 8400, Note_on_c, 9, 42, 21
1, 8639, Note_on_c, 9, 42, 0
1, 8640, Note_on_c, 9, 42, 127
1, 8879, Note_on_c, 9, 42, 0
1, 8880, Note_on_c, 9, 42, 21
1, 9119, Note_on_c, 9, 42, 0
1, 9120, Note_on_c, 9, 42, 127
1, 9359, Note_on_c, 9, 42, 0
1, 9360, Note_on_c, 9, 42, 21
1, 9599, Note_on_c, 9, 42, 0
1, 9600, Note_on_c, 9, 42, 126
1, 9839, Note_on_c, 9, 42, 0
1, 9840, Note_on_c, 9, 42, 21
1, 10079, Note_on_c, 9, 42, 0
1, 10080, Note_on_c, 9, 42, 127
1, 10319, Note_on_c, 9, 42, 0
1, 10320, Note_on_c, 9, 42, 21
1, 10559, Note_on_c, 9, 42, 0
1, 10560, Note_on_c, 9, 42, 127
1, 10799, Note_on_c, 9, 42, 0
1, 10800, Note_on_c, 9, 42, 21
1, 11039, Note_on_c, 9, 42, 0
1, 11040, Note_on_c, 9, 42, 127
1, 11279, Note_on_c, 9, 42, 0
1, 11280, Note_on_c, 9, 46, 44
1, 11519, Note_on_c, 9, 46, 0
1, 11520, Note_on_c, 9, 42, 126
1, 11759, Note_on_c, 9, 42, 0
1, 11760, Note_on_c, 9, 42, 21
1, 11999, Note_on_c, 9, 42, 0
1, 12000, Note_on_c, 9, 42, 127
1, 12239, Note_on_c, 9, 42, 0
1, 12240, Note_on_c, 9, 42, 21
1, 12479, Note_on_c, 9, 42, 0
1, 12480, Note_on_c, 9, 42, 127
1, 12719, Note_on_c, 9, 42, 0
1, 12720, Note_on_c, 9, 42, 21
1, 12959, Note_on_c, 9, 42, 0
1, 12960, Note_on_c, 9, 42, 127
1, 13199, Note_on_c, 9, 42, 0
1, 13200, Note_on_c, 9, 42, 21
1, 13439, Note_on_c, 9, 42, 0
1, 13440, Note_on_c, 9, 42, 126
1, 13679, Note_on_c, 9, 42, 0
1, 13680, Note_on_c, 9, 42, 21
1, 13919, Note_on_c, 9, 42, 0
1, 13920, Note_on_c, 9, 42, 127
1, 14159, Note_on_c, 9, 42, 0
1, 14160, Note_on_c, 9, 42, 21
1, 14399, Note_on_c, 9, 42, 0
1, 14400, Note_on_c, 9, 42, 127
1, 14639, Note_on_c, 9, 42, 0
1, 14640, Note_on_c, 9, 42, 21
1, 14879, Note_on_c, 9, 42, 0
1, 14880, Note_on_c, 9, 42, 127
1, 15119, Note_on_c, 9, 42, 0
1, 15120, Note_on_c, 9, 46, 44
1, 15359, Note_on_c, 9, 46, 0
1, 15360, Note_on_c, 9, 42, 126
1, 15599, Note_on_c, 9, 42, 0
1, 15600, Note_on_c, 9, 42, 21
1, 15839, Note_on_c, 9, 42, 0
1, 15840, Note_on_c, 9, 42, 127
1, 16079, Note_on_c, 9, 42, 0
1, 16080, Note_on_c, 9, 42, 21
1, 16319, Note_on_c, 9, 42, 0
1, 16320, Note_on_c, 9, 42, 127
1, 16559, Note_on_c, 9, 42, 0
1, 16560, Note_on_c, 9, 42, 21
1, 16799, Note_on_c, 9, 42, 0
1, 16800, Note_on_c, 9, 42, 127
1, 17039, Note_on_c, 9, 42, 0
1, 17040, Note_on_c, 9, 42, 21
1, 17279, Note_on_c, 9, 42, 0
1, 17280, Note_on_c, 9, 42, 126
1, 17519, Note_on_c, 9, 42, 0
1, 17520, Note_on_c, 9, 42, 21
1, 17759, Note_on_c, 9, 42, 0
1, 17760, Note_on_c, 9, 42, 127
1, 17999, Note_on_c, 9, 42, 0
1, 18000, Note_on_c, 9, 42, 21
1, 18239, Note_on_c, 9, 42, 0
1, 18240, Note_on_c, 9, 42, 127
1, 18479, Note_on_c, 9, 42, 0
1, 18480, Note_on_c, 9, 42, 21
1, 18719, Note_on_c, 9, 42, 0
1, 18720, Note_on_c, 9, 42, 127
1, 18959, Note_on_c, 9, 42, 0
1, 18960, Note_on_c, 9, 46, 44
1, 19199, Note_on_c, 9, 46, 0
1, 19200, Note_on_c, 9, 42, 126
1, 19439, Note_on_c, 9, 42, 0
1, 19440, Note_on_c, 9, 42, 21
1, 19679, Note_on_c, 9, 42, 0
1, 19680, Note_on_c, 9, 42, 127
1, 19919, Note_on_c, 9, 42, 0
1, 19920, Note_on_c, 9, 42, 21
1, 20159, Note_on_c, 9, 42, 0
1, 20160, Note_on_c, 9, 42, 127
1, 20399, Note_on_c, 9, 42, 0
1, 20400, Note_on_c, 9, 42, 21
1, 20639, Note_on_c, 9, 42, 0
1, 20640, Note_on_c, 9, 42, 127
1, 20879, Note_on_c, 9, 42, 0
1, 20880, Note_on_c, 9, 42, 21
1, 21119, Note_on_c, 9, 42, 0
1, 21120, Note_on_c, 9, 42, 126
1, 21359, Note_on_c, 9, 42, 0
1, 21360, Note_on_c, 9, 42, 21
1, 21599, Note_on_c, 9, 42, 0
1, 21600, Note_on_c, 9, 42, 127
1, 21839, Note_on_c, 9, 42, 0
1, 21840, Note_on_c, 9, 42, 21
1, 22079, Note_on_c, 9, 42, 0
1, 22080, Note_on_c, 9, 42, 127
1, 22319, Note_on_c, 9, 42, 0
1, 22320, Note_on_c, 9, 42, 21
1, 22559, Note_on_c, 9, 42, 0
1, 22560, Note_on_c, 9, 42, 127
1, 22799, Note_on_c, 9, 42, 0
1, 22800, Note_on_c, 9, 46, 44
1, 23039, Note_on_c, 9, 46, 0
1, 23040, Note_on_c, 9, 42, 126
1, 23279, Note_on_c, 9, 42, 0
1, 23280, Note_on_c, 9, 42, 21
1, 23519, Note_on_c, 9, 42, 0
1, 23520, Note_on_c, 9, 42, 127
1, 23759, Note_on_c, 9, 42, 0
1, 23760, Note_on_c, 9, 42, 21
1, 23999, Note_on_c, 9, 42, 0
1, 24000, Note_on_c, 9, 42, 127
1, 24239, Note_on_c, 9, 42, 0
1, 24240, Note_on_c, 9, 42, 21
1, 24479, Note_on_c, 9, 42, 0
1, 24480, Note_on_c, 9, 42, 127
1, 24719, Note_on_c, 9, 42, 0
1, 24720, Note_on_c, 9, 42, 21
1, 24959, Note_on_c, 9, 42, 0
1, 24960, Note_on_c, 9, 42, 126
1, 25199, Note_on_c, 9, 42, 0
1, 25200, Note_on_c, 9, 42, 21
1, 25439, Note_on_c, 9, 42, 0
1, 25440, Note_on_c, 9, 42, 127
1, 25679, Note_on_c, 9, 42, 0
1, 25680, Note_on_c, 9, 42, 21
1, 25919, Note_on_c, 9, 42, 0
1, 25920, Note_on_c, 9, 42, 127
1, 26159, Note_on_c, 9, 42, 0
1, 26160, Note_on_c, 9, 42, 21
1, 26399, Note_on_c, 9, 42, 0
1, 26400, Note_on_c, 9, 42, 127
1, 26639, Note_on_c, 9, 42, 0
1, 26640, Note_on_c, 9, 46, 44
1, 26879, Note_on_c, 9, 46, 0
1, 26880, Note_on_c, 9, 42, 126
1, 27119, Note_on_c, 9, 42, 0
1, 27120, Note_on_c, 9, 42, 21
1, 27359, Note_on_c, 9, 42, 0
1, 27360, Note_on_c, 9, 42, 127
1, 27599, Note_on_c, 9, 42, 0
1, 27600, Note_on_c, 9, 42, 21
1, 27839, Note_on_c, 9, 42, 0
1, 27840, Note_on_c, 9, 42, 127
1, 28079, Note_on_c, 9, 42, 0
1, 28080, Note_on_c, 9, 42, 21
1, 28319, Note_on_c, 9, 42, 0
1, 28320, Note_on_c, 9, 42, 127
1, 28559, Note_on_c, 9, 42, 0
1, 28560, Note_on_c, 9, 42, 21
1, 28799, Note_on_c, 9, 42, 0
1, 28800, Note_on_c, 9, 42, 126
1, 29039, Note_on_c, 9, 42, 0
1, 29040, Note_on_c, 9, 42, 21
1, 29279, Note_on_c, 9, 42, 0
1, 29280, Note_on_c, 9, 42, 127
1, 29519, Note_on_c, 9, 42, 0
1, 29520, Note_on_c, 9, 42, 21
1, 29759, Note_on_c, 9, 42, 0
1, 29760, Note_on_c, 9, 42, 127
1, 29999, Note_on_c, 9, 42, 0
1, 30000, Note_on_c, 9, 42, 21
1, 30239, Note_on_c, 9, 42, 0
1, 30240, Note_on_c, 9, 42, 127
1, 30479, Note_on_c, 9, 42, 0
1, 30480, Note_on_c, 9, 46, 44
1, 30719, Note_on_c, 9, 46, 0
1, 30720, Note_on_c, 9, 42, 126
1, 30959, Note_on_c, 9, 42, 0
1, 30960, Note_on_c, 9, 42, 21
1, 31199, Note_on_c, 9, 42, 0
1, 31200, Note_on_c, 9, 42, 127
1, 31439, Note_on_c, 9, 42, 0
1, 31440, Note_on_c, 9, 42, 21
1, 31679, Note_on_c, 9, 42, 0
1, 31680, Note_on_c, 9, 42, 127
1, 31919, Note_on_c, 9, 42, 0
1, 31920, Note_on_c, 9, 42, 21
1, 32159, Note_on_c, 9, 42, 0
1, 32160, Note_on_c, 9, 42, 127
1, 32399, Note_on_c, 9, 42, 0
1, 32400, Note_on_c, 9, 42, 21
1, 32639, Note_on_c, 9, 42, 0
1, 32640, Note_on_c, 9, 42, 126
1, 32879, Note_on_c, 9, 42, 0
1, 32880, Note_on_c, 9, 42, 21
1, 33119, Note_on_c, 9, 42, 0
1, 33120, Note_on_c, 9, 42, 127
1, 33359, Note_on_c, 9, 42, 0
1, 33360, Note_on_c, 9, 42, 21
1, 33599, Note_on_c, 9, 42, 0
1, 33600, Note_on_c, 9, 42, 127
1, 33839, Note_on_c, 9, 42, 0
1, 33840, Note_on_c, 9, 42, 21
1, 34079, Note_on_c, 9, 42, 0
1, 34080, Note_on_c, 9, 42, 127
1, 34319, Note_on_c, 9, 42, 0
1, 34320, Note_on_c, 9, 46, 44
1, 34559, Note_on_c, 9, 46, 0
1, 34560, Note_on_c, 9, 42, 126
1, 34799, Note_on_c, 9, 42, 0
1, 34800, Note_on_c, 9, 42, 21
1, 35039, Note_on_c, 9, 42, 0
1, 35040, Note_on_c, 9, 42, 127
1, 35279, Note_on_c, 9, 42, 0
1, 35280, Note_on_c, 9, 42, 21
1, 35519, Note_on_c, 9, 42, 0
1, 35520, Note_on_c, 9, 42, 127
1, 35759, Note_on_c, 9, 42, 0
1, 35760, Note_on_c, 9, 42, 21
1, 35999, Note_on_c, 9, 42, 0
1, 36000, Note_on_c, 9, 42, 127
1, 36239, Note_on_c, 9, 42, 0
1, 36240, Note_on_c, 9, 42, 21
1, 36479, Note_on_c, 9, 42, 0
1, 36480, Note_on_c, 9, 42, 126
1, 36719, Note_on_c, 9, 42, 0
1, 36720, Note_on_c, 9, 42, 21
1, 36959, Note_on_c, 9, 42, 0
1, 36960, Note_on_c, 9, 42, 127
1, 37199, Note_on_c, 9, 42, 0
1, 37200, Note_on_c, 9, 42, 21
1, 37439, Note_on_c, 9, 42, 0
1, 37440, Note_on_c, 9, 42, 127
1, 37679, Note_on_c, 9, 42, 0
1, 37680, Note_on_c, 9, 42, 21
1, 37919, Note_on_c, 9, 42, 0
1, 37920, Note_on_c, 9, 42, 127
1, 38159, Note_on_c, 9, 42, 0
1, 38160, Note_on_c, 9, 46, 44
1, 38399, Note_on_c, 9, 46, 0
1, 38400, Note_on_c, 9, 42, 126
1, 38639, Note_on_c, 9, 42, 0
1, 38640, Note_on_c, 9, 42, 21
1, 38879, Note_on_c, 9, 42, 0
1, 38880, Note_on_c, 9, 42, 127
1, 39119, Note_on_c, 9, 42, 0
1, 39120, Note_on_c, 9, 42, 21
1, 39359, Note_on_c, 9, 42, 0
1, 39360, Note_on_c, 9, 42, 127
1, 39599, Note_on_c, 9, 42, 0
1, 39600, Note_on_c, 9, 42, 21
1, 39839, Note_on_c, 9, 42, 0
1, 39840, Note_on_c, 9, 42, 127
1, 40079, Note_on_c, 9, 42, 0
1, 40080, Note_on_c, 9, 42, 21
1, 40319, Note_on_c, 9, 42, 0
1, 40320, Note_on_c, 9, 42, 126
1, 40559, Note_on_c, 9, 42, 0
1, 40560, Note_on_c, 9, 42, 21
1, 40799, Note_on_c, 9, 42, 0
1, 40800, Note_on_c, 9, 42, 127
1, 41039, Note_on_c, 9, 42, 0
1, 41040, Note_on_c, 9, 42, 21
1, 41279, Note_on_c, 9, 42, 0
1, 41280, Note_on_c, 9, 42, 127
1, 41519, Note_on_c, 9, 42, 0
1, 41520, Note_on_c, 9, 42, 21
1, 41759, Note_on_c, 9, 42, 0
1, 41760, Note_on_c, 9, 42, 127
1, 41999, Note_on_c, 9, 42, 0
1, 42000, Note_on_c, 9, 46, 44
1, 42239, Note_on_c, 9, 46, 0
1, 42240, Note_on_c, 9, 42, 126
1, 42479, Note_on_c, 9, 42, 0
1, 42480, Note_on_c, 9, 42, 21
1, 42719, Note_on_c, 9, 42, 0
1, 42720, Note_on_c, 9, 42, 127
1, 42959, Note_on_c, 9, 42, 0
1, 42960, Note_on_c, 9, 42, 21
1, 43199, Note_on_c, 9, 42, 0
1, 43200, Note_on_c, 9, 42, 127
1, 43439, Note_on_c, 9, 42, 0
1, 43440, Note_on_c, 9, 42, 21
1, 43679, Note_on_c, 9, 42, 0
1, 43680, Note_on_c, 9, 42, 127
1, 43919, Note_on_c, 9, 42, 0
1, 43920, Note_on_c, 9, 42, 21
1, 44159, Note_on_c, 9, 42, 0
1, 44160, Note_on_c, 9, 42, 126
1, 44399, Note_on_c, 9, 42, 0
1, 44400, Note_on_c, 9, 42, 21
1, 44639, Note_on_c, 9, 42, 0
1, 44640, Note_on_c, 9, 42, 127
1, 44879, Note_on_c, 9, 42, 0
1, 44880, Note_on_c, 9, 42, 21
1, 45119, Note_on_c, 9, 42, 0
1, 45120, Note_on_c, 9, 42, 127
1, 45359, Note_on_c, 9, 42, 0
1, 45360, Note_on_c, 9, 42, 21
1, 45599, Note_on_c, 9, 42, 0
1, 45600, Note_on_c, 9, 42, 127
1, 45839, Note_on_c, 9, 42, 0
1, 45840, Note_on_c, 9, 46, 44
1, 46079, Note_on_c, 9, 46, 0
1, 46080, Note_on_c, 9, 42, 126
1, 46319, Note_on_c, 9, 42, 0
1, 46320, Note_on_c, 9, 42, 21
1, 46559, Note_on_c, 9, 42, 0
1, 46560, Note_on_c, 9, 42, 127
1, 46799, Note_on_c, 9, 42, 0
1, 46800, Note_on_c, 9, 42, 21
1, 47039, Note_on_c, 9, 42, 0
1, 47040, Note_on_c, 9, 42, 127
1, 47279, Note_on_c, 9, 42, 0
1, 47280, Note_on_c, 9, 42, 21
1, 47519, Note_on_c, 9, 42, 0
1, 47520, Note_on_c, 9, 42, 127
1, 47759, Note_on_c, 9, 42, 0
1, 47760, Note_on_c, 9, 42, 21
1, 47999, Note_on_c, 9, 42, 0
1, 48000, Note_on_c, 9, 42, 126
1, 48239, Note_on_c, 9, 42, 0
1, 48240, Note_on_c, 9, 42, 21
1, 48479, Note_on_c, 9, 42, 0
1, 48480, Note_on_c, 9, 42, 127
1, 48719, Note_on_c, 9, 42, 0
1, 48720, Note_on_c, 9, 42, 21
1, 48959, Note_on_c, 9, 42, 0
1, 48960, Note_on_c, 9, 42, 127
1, 49199, Note_on_c, 9, 42, 0
1, 49200, Note_on_c, 9, 42, 21
1, 49439, Note_on_c, 9, 42, 0
1, 49440, Note_on_c, 9, 42, 127
1, 49679, Note_on_c, 9, 42, 0
1, 49680, Note_on_c, 9, 46, 44
1, 49919, Note_on_c, 9, 46, 0
1, 49920, Note_on_c, 9, 42, 126
1, 50159, Note_on_c, 9, 42, 0
1, 50160, Note_on_c, 9, 42, 21
1, 50399, Note_on_c, 9, 42, 0
1, 50400, Note_on_c, 9, 42, 127
1, 50639, Note_on_c, 9, 42, 0
1, 50640, Note_on_c, 9, 42, 21
1, 50879, Note_on_c, 9, 42, 0
1, 50880, Note_on_c, 9, 42, 127
1, 51119, Note_on_c, 9, 42, 0
1, 51120, Note_on_c, 9, 42, 21
1, 51359, Note_on_c, 9, 42, 0
1, 51360, Note_on_c, 9, 42, 127
1, 51599, Note_on_c, 9, 42, 0
1, 51600, Note_on_c, 9, 42, 21
1, 51839, Note_on_c, 9, 42, 0
1, 51840, Note_on_c, 9, 42, 126
1, 52079, Note_on_c, 9, 42, 0
1, 52080, Note_on_c, 9, 42, 21
1, 52319, Note_on_c, 9, 42, 0
1, 52320, Note_on_c, 9, 42, 127
1, 52559, Note_on_c, 9, 42, 0
1, 52560, Note_on_c, 9, 42, 21
1, 52799, Note_on_c, 9, 42, 0
1, 52800, Note_on_c, 9, 42, 127
1, 53039, Note_on_c, 9, 42, 0
1, 53040, Note_on_c, 9, 42, 21
1, 53279, Note_on_c, 9, 42, 0
1, 53280, Note_on_c, 9, 42, 127
1, 53519, Note_on_c, 9, 42, 0
1, 53520, Note_on_c, 9, 46, 44
1, 53759, Note_on_c, 9, 46, 0
1, 53760, Note_on_c, 9, 42, 126
1, 53999, Note_on_c, 9, 42, 0
1, 54000, Note_on_c, 9, 42, 21
1, 54239, Note_on_c, 9, 42, 0
1, 54240, Note_on_c, 9, 42, 127
1, 54479, Note_on_c, 9, 42, 0
1, 54480, Note_on_c, 9, 42, 21
1, 54719, Note_on_c, 9, 42, 0
1, 54720, Note_on_c, 9, 42, 127
1, 54959, Note_on_c, 9, 42, 0
1, 54960, Note_on_c, 9, 42, 21
1, 55199, Note_on_c, 9, 42, 0
1, 55200, Note_on_c, 9, 42, 127
1, 55439, Note_on_c, 9, 42, 0
1, 55440, Note_on_c, 9, 42, 21
1, 55679, Note_on_c, 9, 42, 0
1, 55680, Note_on_c, 9, 42, 126
1, 55919, Note_on_c, 9, 42, 0
1, 55920, Note_on_c, 9, 42, 21
1, 56159, Note_on_c, 9, 42, 0
1, 56160, Note_on_c, 9, 42, 127
1, 56399, Note_on_c, 9, 42, 0
1, 56400, Note_on_c, 9, 42, 21
1, 56639, Note_on_c, 9, 42, 0
1, 56640, Note_on_c, 9, 42, 127
1, 56879, Note_on_c, 9, 42, 0
1, 56880, Note_on_c, 9, 42, 21
1, 57119, Note_on_c, 9, 42, 0
1, 57120, Note_on_c, 9, 42, 127
1, 57359, Note_on_c, 9, 42, 0
1, 57360, Note_on_c, 9, 46, 44
1, 57599, Note_on_c, 9, 46, 0
1, 57600, Note_on_c, 9, 42, 126
1, 57839, Note_on_c, 9, 42, 0
1, 57840, Note_on_c, 9, 42, 21
1, 58079, Note_on_c, 9, 42, 0
1, 58080, Note_on_c, 9, 42, 127
1, 58319, Note_on_c, 9, 42, 0
1, 58320, Note_on_c, 9, 42, 21
1, 58559, Note_on_c, 9, 42, 0
1, 58560, Note_on_c, 9, 42, 127
1, 58799, Note_on_c, 9, 42, 0
1, 58800, Note_on_c, 9, 42, 21
1, 59039, Note_on_c, 9, 42, 0
1, 59040, Note_on_c, 9, 42, 127
1, 59279, Note_on_c, 9, 42, 0
1, 59280, Note_on_c, 9, 42, 21
1, 59519, Note_on_c, 9, 42, 0
1, 59520, Note_on_c, 9, 42, 126
1, 59759, Note_on_c, 9, 42, 0
1, 59760, Note_on_c, 9, 42, 21
1, 59999, Note_on_c, 9, 42, 0
1, 60000, Note_on_c, 9, 42, 127
1, 60239, Note_on_c, 9, 42, 0
1, 60240, Note_on_c, 9, 42, 21
1, 60479, Note_on_c, 9, 42, 0
1, 60480, Note_on_c, 9, 42, 127
1, 60719, Note_on_c, 9, 42, 0
1, 60720, Note_on_c, 9, 42, 21
1, 60959, Note_on_c, 9, 42, 0
1, 60960, Note_on_c, 9, 42, 127
1, 61199, Note_on_c, 9, 42, 0
1, 61200, Note_on_c, 9, 46, 44
1, 61439, Note_on_c, 9, 46, 0
1, 61440, Note_on_c, 9, 42, 126
1, 61679, Note_on_c, 9, 42, 0
1, 61680, Note_on_c, 9, 42, 21
1, 61919, Note_on_c, 9, 42, 0
1, 61920, Note_on_c, 9, 42, 127
1, 62159, Note_on_c, 9, 42, 0
1, 62160, Note_on_c, 9, 42, 21
1, 62399, Note_on_c, 9, 42, 0
1, 62400, Note_on_c, 9, 42, 127
1, 62639, Note_on_c, 9, 42, 0
1, 62640, Note_on_c, 9, 42, 21
1, 62879, Note_on_c, 9, 42, 0
1, 62880, Note_on_c, 9, 42, 127
1, 63119, Note_on_c, 9, 42, 0
1, 63120, Note_on_c, 9, 42, 21
1, 63359, Note_on_c, 9, 42, 0
1, 63360, Note_on_c, 9, 42, 126
1, 63599, Note_on_c, 9, 42, 0
1, 63600, Note_on_c, 9, 42, 21
1, 63839, Note_on_c, 9, 42, 0
1, 63840, Note_on_c, 9, 42, 127
1, 64079, Note_on_c, 9, 42, 0
1, 64080, Note_on_c, 9, 42, 21
1, 64319, Note_on_c, 9, 42, 0
1, 64320, Note_on_c, 9, 42, 127
1, 64559, Note_on_c, 9, 42, 0
1, 64560, Note_on_c, 9, 42, 21
1, 64799, Note_on_c, 9, 42, 0
1, 64800, Note_on_c, 9, 42, 127
1, 65039, Note_on_c, 9, 42, 0
1, 65040, Note_on_c, 9, 46, 44
1, 65279, Note_on_c, 9, 46, 0
1, 65280, Note_on_c, 9, 42, 126
1, 65519, Note_on_c, 9, 42, 0
1, 65520, Note_on_c, 9, 42, 21
1, 65759, Note_on_c, 9, 42, 0
1, 65760, Note_on_c, 9, 42, 127
1, 65999, Note_on_c, 9, 42, 0
1, 66000, Note_on_c, 9, 42, 21
1, 66239, Note_on_c, 9, 42, 0
1, 66240, Note_on_c, 9, 42, 127
1, 66479, Note_on_c, 9, 42, 0
1, 66480, Note_on_c, 9, 42, 21
1, 66719, Note_on_c, 9, 42, 0
1, 66720, Note_on_c, 9, 42, 127
1, 66959, Note_on_c, 9, 42, 0
1, 66960, Note_on_c, 9, 42, 21
1, 67199, Note_on_c, 9, 42, 0
1, 67200, Note_on_c, 9, 42, 126
1, 67439, Note_on_c, 9, 42, 0
1, 67440, Note_on_c, 9, 42, 21
1, 67679, Note_on_c, 9, 42, 0
1, 67680, Note_on_c, 9, 42, 127
1, 67919, Note_on_c, 9, 42, 0
1, 67920, Note_on_c, 9, 42, 21
1, 68159, Note_on_c, 9, 42, 0
1, 68160, Note_on_c, 9, 42, 127
1, 68399, Note_on_c, 9, 42, 0
1, 68400, Note_on_c, 9, 42, 21
1, 68639, Note_on_c, 9, 42, 0
1, 68640, Note_on_c, 9, 42, 127
1, 68879, Note_on_c, 9, 42, 0
1, 68880, Note_on_c, 9, 46, 44
1, 69119, Note_on_c, 9, 46, 0
1, 69120, Note_on_c, 9, 42, 126
1, 69359, Note_on_c, 9, 42, 0
1, 69360, Note_on_c, 9, 42, 21
1, 69599, Note_on_c, 9, 42, 0
1, 69600, Note_on_c, 9, 42, 127
1, 69839, Note_on_c, 9, 42, 0
1, 69840, Note_on_c, 9, 42, 21
1, 70079, Note_on_c, 9, 42, 0
1, 70080, Note_on_c, 9, 42, 127
1, 70319, Note_on_c, 9, 42, 0
1, 70320, Note_on_c, 9, 42, 21
1, 70559, Note_on_c, 9, 42, 0
1, 70560, Note_on_c, 9, 42, 127
1, 70799, Note_on_c, 9, 42, 0
1, 70800, Note_on_c, 9, 42, 21
1, 71039, Note_on_c, 9, 42, 0
1, 71040, Note_on_c, 9, 42, 126
1, 71279, Note_on_c, 9, 42, 0
1, 71280, Note_on_c, 9, 42, 21
1, 71519, Note_on_c, 9, 42, 0
1, 71520, Note_on_c, 9, 42, 127
1, 71759, Note_on_c, 9, 42, 0
1, 71760, Note_on_c, 9, 42, 21
1, 71999, Note_on_c, 9, 42, 0
1, 72000, Note_on_c, 9, 42, 127
1, 72239, Note_on_c, 9, 42, 0
1, 72240, Note_on_c, 9, 42, 21
1, 72479, Note_on_c, 9, 42, 0
1, 72480, Note_on_c, 9, 42, 127
1, 72719, Note_on_c, 9, 42, 0
1, 72720, Note_on_c, 9, 46, 44
1, 72959, Note_on_c, 9, 46, 0
1, 72960, Note_on_c, 9, 42, 126
1, 73199, Note_on_c, 9, 42, 0
1, 73200, Note_on_c, 9, 42, 21
1, 73439, Note_on_c, 9, 42, 0
1, 73440, Note_on_c, 9, 42, 127
1, 73679, Note_on_c, 9, 42, 0
1, 73680, Note_on_c, 9, 42, 21
1, 73919, Note_on_c, 9, 42, 0
1, 73920, Note_on_c, 9, 42, 127
1, 74159, Note_on_c, 9, 42, 0
1, 74160, Note_on_c, 9, 42, 21
1, 74399, Note_on_c, 9, 42, 0
1, 74400, Note_on_c, 9, 42, 127
1, 74639, Note_on_c, 9, 42, 0
1, 74640, Note_on_c, 9, 42, 21
1, 74879, Note_on_c, 9, 42, 0
1, 74880, Note_on_c, 9, 42, 126
1, 75119, Note_on_c, 9, 42, 0
1, 75120, Note_on_c, 9, 42, 21
1, 75359, Note_on_c, 9, 42, 0
1, 75360, Note_on_c, 9, 42, 127
1, 75599, Note_on_c, 9, 42, 0
1, 75600, Note_on_c, 9, 42, 21
1, 75839, Note_on_c, 9, 42, 0
1, 75840, Note_on_c, 9, 42, 127
1, 76079, Note_on_c, 9, 42, 0
1, 76080, Note_on_c, 9, 42, 21
1, 76319, Note_on_c, 9, 42, 0
1, 76320, Note_on_c, 9, 42, 127
1, 76559, Note_on_c, 9, 42, 0
1, 76560, Note_on_c, 9, 46, 44
1, 76799, Note_on_c, 9, 46, 0
1, 76800, Note_on_c, 9, 42, 126
1, 77039, Note_on_c, 9, 42, 0
1, 77040, Note_on_c, 9, 42, 21
1, 77279, Note_on_c, 9, 42, 0
1, 77280, Note_on_c, 9, 42, 127
1, 77519, Note_on_c, 9, 42, 0
1, 77520, Note_on_c, 9, 42, 21
1, 77759, Note_on_c, 9, 42, 0
1, 77760, Note_on_c, 9, 42, 127
1, 77999, Note_on_c, 9, 42, 0
1, 78000, Note_on_c, 9, 42, 21
1, 78239, Note_on_c, 9, 42, 0
1, 78240, Note_on_c, 9, 42, 127
1, 78479, Note_on_c, 9, 42, 0
1, 78480, Note_on_c, 9, 42, 21
1, 78719, Note_on_c, 9, 42, 0
1, 78720, Note_on_c, 9, 42, 126
1, 78959, Note_on_c, 9, 42, 0
1, 78960, Note_on_c, 9, 42, 21
1, 79199, Note_on_c, 9, 42, 0
1, 79200, Note_on_c, 9, 42, 127
1, 79439, Note_on_c, 9, 42, 0
1, 79440, Note_on_c, 9, 42, 21
1, 79679, Note_on_c, 9, 42, 0
1, 79680, Note_on_c, 9, 42, 127
1, 79919, Note_on_c, 9, 42, 0
1, 79920, Note_on_c, 9, 42, 21
1, 80159, Note_on_c, 9, 42, 0
1, 80160, Note_on_c, 9, 42, 127
1, 80399, Note_on_c, 9, 42, 0
1, 80400, Note_on_c, 9, 46, 44
1, 80639, Note_on_c, 9, 46, 0
1, 80640, Note_on_c, 9, 42, 126
1, 80879, Note_on_c, 9, 42, 0
1, 80880, Note_on_c, 9, 42, 21
1, 81119, Note_on_c, 9, 42, 0
1, 81120, Note_on_c, 9, 42, 127
1, 81359, Note_on_c, 9, 42, 0
1, 81360, Note_on_c, 9, 42, 21
1, 81599, Note_on_c, 9, 42, 0
1, 81600, Note_on_c, 9, 42, 127
1, 81839, Note_on_c, 9, 42, 0
1, 81840, Note_on_c, 9, 42, 21
1, 82079, Note_on_c, 9, 42, 0
1, 82080, Note_on_c, 9, 42, 127
1, 82319, Note_on_c, 9, 42, 0
1, 82320, Note_on_c, 9, 42, 21
1, 82559, Note_on_c, 9, 42, 0
1, 82560, Note_on_c, 9, 42, 126
1, 82799, Note_on_c, 9, 42, 0
1, 82800, Note_on_c, 9, 42, 21
1, 83039, Note_on_c, 9, 42, 0
1, 83040, Note_on_c, 9, 42, 127
1, 83279, Note_on_c, 9, 42, 0
1, 83280, Note_on_c, 9, 42, 21
1, 83519, Note_on_c, 9, 42, 0
1, 83520, Note_on_c, 9, 42, 127
1, 83759, Note_on_c, 9, 42, 0
1, 83760, Note_on_c, 9, 42, 21
1, 83999, Note_on_c, 9, 42, 0
1, 84000, Note_on_c, 9, 42, 127
1, 84239, Note_on_c, 9, 42, 0
1, 84240, Note_on_c, 9, 46, 44
1, 84479, Note_on_c, 9, 46, 0
1, 84480, Note_on_c, 9, 42, 126
1, 84719, Note_on_c, 9, 42, 0
1, 84720, Note_on_c, 9, 42, 21
1, 84959, Note_on_c, 9, 42, 0
1, 84960, Note_on_c, 9, 42, 127
1, 85199, Note_on_c, 9, 42, 0
1, 85200, Note_on_c, 9, 42, 21
1, 85439, Note_on_c, 9, 42, 0
1, 85440, Note_on_c, 9, 42, 127
1, 85679, Note_on_c, 9, 42, 0
1, 85680, Note_on_c, 9, 42, 21
1, 85919, Note_on_c, 9, 42, 0
1, 85920, Note_on_c, 9, 42, 127
1, 86159, Note_on_c, 9, 42, 0
1, 86160, Note_on_c, 9, 42, 21
1, 86399, Note_on_c, 9, 42, 0
1, 86400, Note_on_c, 9, 42, 126
1, 86639, Note_on_c, 9, 42, 0
1, 86640, Note_on_c, 9, 42, 21
1, 86879, Note_on_c, 9, 42, 0
1, 86880, Note_on_c, 9, 42, 127
1, 87119, Note_on_c, 9, 42, 0
1, 87120, Note_on_c, 9, 42, 21
1, 87359, Note_on_c, 9, 42, 0
1, 87360, Note_on_c, 9, 42, 127
1, 87599, Note_on_c, 9, 42, 0
1, 87600, Note_on_c, 9, 42, 21
1, 87839, Note_on_c, 9, 42, 0
1, 87840, Note_on_c, 9, 42, 127
1, 88079, Note_on_c, 9, 42, 0
1, 88080, Note_on_c, 9, 46, 44
1, 88319, Note_on_c, 9, 46, 0
1, 88320, Note_on_c, 9, 42, 126
1, 88559, Note_on_c, 9, 42, 0
1, 88560, Note_on_c, 9, 42, 21
1, 88799, Note_on_c, 9, 42, 0
1, 88800, Note_on_c, 9, 42, 127
1, 89039, Note_on_c, 9, 42, 0
1, 89040, Note_on_c, 9, 42, 21
1, 89279, Note_on_c, 9, 42, 0
1, 89280, Note_on_c, 9, 42, 127
1, 89519, Note_on_c, 9, 42, 0
1, 89520, Note_on_c, 9, 42, 21
1, 89759, Note_on_c, 9, 42, 0
1, 89760, Note_on_c, 9, 42, 127
1, 89999, Note_on_c, 9, 42, 0
1, 90000, Note_on_c, 9, 42, 21
1, 90239, Note_on_c, 9, 42, 0
1, 90240, Note_on_c, 9, 42, 126
1, 90479, Note_on_c, 9, 42, 0
1, 90480, Note_on_c, 9, 42, 21
1, 90719, Note_on_c, 9, 42, 0
1, 90720, Note_on_c, 9, 42, 127
1, 90959, Note_on_c, 9, 42, 0
1, 90960, Note_on_c, 9, 42, 21
1, 91199, Note_on_c, 9, 42, 0
1, 91200, Note_on_c, 9, 42, 127
1, 91439, Note_on_c, 9, 42, 0
1, 91440, Note_on_c, 9, 42, 21
1, 91679, Note_on_c, 9, 42, 0
1, 91680, Note_on_c, 9, 42, 127
1, 91919, Note_on_c, 9, 42, 0
1, 91920, Note_on_c, 9, 46, 44
1, 92159, Note_on_c, 9, 46, 0
1, 92160, Note_on_c, 9, 42, 126
1, 92399, Note_on_c, 9, 42, 0
1, 92400, Note_on_c, 9, 42, 21
1, 92639, Note_on_c, 9, 42, 0
1, 92640, Note_on_c, 9, 42, 127
1, 92879, Note_on_c, 9, 42, 0
1, 92880, Note_on_c, 9, 42, 21
1, 93119, Note_on_c, 9, 42, 0
1, 93120, Note_on_c, 9, 42, 127
1, 93359, Note_on_c, 9, 42, 0
1, 93360, Note_on_c, 9, 42, 21
1, 93599, Note_on_c, 9, 42, 0
1, 93600, Note_on_c, 9, 42, 127
1, 93839, Note_on_c, 9, 42, 0
1, 93840, Note_on_c, 9, 42, 21
1, 94079, Note_on_c, 9, 42, 0
1, 94080, Note_on_c, 9, 42, 126
1, 94319, Note_on_c, 9, 42, 0
1, 94320, Note_on_c, 9, 42, 21
1, 94559, Note_on_c, 9, 42, 0
1, 94560, Note_on_c, 9, 42, 127
1, 94799, Note_on_c, 9, 42, 0
1, 94800, Note_on_c, 9, 42, 21
1, 95039, Note_on_c, 9, 42, 0
1, 95040, Note_on_c, 9, 42, 127
1, 95279, Note_on_c, 9, 42, 0
1, 95280, Note_on_c, 9, 42, 21
1, 95519, Note_on_c, 9, 42, 0
1, 95520, Note_on_c, 9, 42, 127
1, 95759, Note_on_c, 9, 42, 0
1, 95760, Note_on_c, 9, 46, 44
1, 95999, Note_on_c, 9, 46, 0
1, 96000, Note_on_c, 9, 42, 126
1, 96239, Note_on_c, 9, 42, 0
1, 96240, Note_on_c, 9, 42, 21
1, 96479, Note_on_c, 9, 42, 0
1, 96480, Note_on_c, 9, 42, 127
1, 96719, Note_on_c, 9, 42, 0
1, 96720, Note_on_c, 9, 42, 21
1, 96959, Note_on_c, 9, 42, 0
1, 96960, Note_on_c, 9, 42, 127
1, 97199, Note_on_c, 9, 42, 0
1, 97200, Note_on_c, 9, 42, 21
1, 97439, Note_on_c, 9, 42, 0
1, 97440, Note_on_c, 9, 42, 127
1, 97679, Note_on_c, 9, 42, 0
1, 97680, Note_on_c, 9, 42, 21
1, 97919, Note_on_c, 9, 42, 0
1, 97920, Note_on_c, 9, 42, 126
1, 98159, Note_on_c, 9, 42, 0
1, 98160, Note_on_c, 9, 42, 21
1, 98399, Note_on_c, 9, 42, 0
1, 98400, Note_on_c, 9, 42, 127
1, 98639, Note_on_c, 9, 42, 0
1, 98640, Note_on_c, 9, 42, 21
1, 98879, Note_on_c, 9, 42, 0
1, 98880, Note_on_c, 9, 42, 127
1, 99119, Note_on_c, 9, 42, 0
1, 99120, Note_on_c, 9, 42, 21
1, 99359, Note_on_c, 9, 42, 0
1, 99360, Note_on_c, 9, 42, 127
1, 99599, Note_on_c, 9, 42, 0
1, 99600, Note_on_c, 9, 46, 44
1, 99839, Note_on_c, 9, 46, 0
1, 99840, Note_on_c, 9, 42, 126
1, 100079, Note_on_c, 9, 42, 0
1, 100080, Note_on_c, 9, 42, 21
1, 100319, Note_on_c, 9, 42, 0
1, 100320, Note_on_c, 9, 42, 127
1, 100559, Note_on_c, 9, 42, 0
1, 100560, Note_on_c, 9, 42, 21
1, 100799, Note_on_c, 9, 42, 0
1, 100800, Note_on_c, 9, 42, 127
1, 101039, Note_on_c, 9, 42, 0
1, 101040, Note_on_c, 9, 42, 21
1, 101279, Note_on_c, 9, 42, 0
1, 101280, Note_on_c, 9, 42, 127
1, 101519, Note_on_c, 9, 42, 0
1, 101520, Note_on_c, 9, 42, 21
1, 101759, Note_on_c, 9, 42, 0
1, 101760, Note_on_c, 9, 42, 126
1, 101999, Note_on_c, 9, 42, 0
1, 102000, Note_on_c, 9, 42, 21
1, 102239, Note_on_c, 9, 42, 0
1, 102240, Note_on_c, 9, 42, 127
1, 102479, Note_on_c, 9, 42, 0
1, 102480, Note_on_c, 9, 42, 21
1, 102719, Note_on_c, 9, 42, 0
1, 102720, Note_on_c, 9, 42, 127
1, 102959, Note_on_c, 9, 42, 0
1, 102960, Note_on_c, 9, 42, 21
1, 103199, Note_on_c, 9, 42, 0
1, 103200, Note_on_c, 9, 42, 127
1, 103439, Note_on_c, 9, 42, 0
1, 103440, Note_on_c, 9, 46, 44
1, 103679, Note_on_c, 9, 46, 0
1, 103680, Note_on_c, 9, 42, 126
1, 103919, Note_on_c, 9, 42, 0
1, 103920, Note_on_c, 9, 42, 21
1, 104159, Note_on_c, 9, 42, 0
1, 104160, Note_on_c, 9, 42, 127
1, 104399, Note_on_c, 9, 42, 0
1, 104400, Note_on_c, 9, 42, 21
1, 104639, Note_on_c, 9, 42, 0
1, 104640, Note_on_c, 9, 42, 127
1, 104879, Note_on_c, 9, 42, 0
1, 104880, Note_on_c, 9, 42, 21
1, 105119, Note_on_c, 9, 42, 0
1, 105120, Note_on_c, 9, 42, 127
1, 105359, Note_on_c, 9, 42, 0
1, 105360, Note_on_c, 9, 42, 21
1, 105599, Note_on_c, 9, 42, 0
1, 105600, Note_on_c, 9, 42, 126
1, 105839, Note_on_c, 9, 42, 0
1, 105840, Note_on_c, 9, 42, 21
1, 106079, Note_on_c, 9, 42, 0
1, 106080, Note_on_c, 9, 42, 127
1, 106319, Note_on_c, 9, 42, 0
1, 106320, Note_on_c, 9, 42, 21
1, 106559, Note_on_c, 9, 42, 0
1, 106560, Note_on_c, 9, 42, 127
1, 106799, Note_on_c, 9, 42, 0
1, 106800, Note_on_c, 9, 42, 21
1, 107039, Note_on_c, 9, 42, 0
1, 107040, Note_on_c, 9, 42, 127
1, 107279, Note_on_c, 9, 42, 0
1, 107280, Note_on_c, 9, 46, 44
1, 107519, Note_on_c, 9, 46, 0
1, 107520, Note_on_c, 9, 42, 126
1, 107759, Note_on_c, 9, 42, 0
1, 107760, Note_on_c, 9, 42, 21
1, 107999, Note_on_c, 9, 42, 0
1, 108000, Note_on_c, 9, 42, 127
1, 108239, Note_on_c, 9, 42, 0
1, 108240, Note_on_c, 9, 42, 21
1, 108479, Note_on_c, 9, 42, 0
1, 108480, Note_on_c, 9, 42, 127
1, 108719, Note_on_c, 9, 42, 0
1, 108720, Note_on_c, 9, 42, 21
1, 108959, Note_on_c, 9, 42, 0
1, 108960, Note_on_c, 9, 42, 127
1, 109199, Note_on_c, 9, 42, 0
1, 109200, Note_on_c, 9, 42, 21
1, 109439, Note_on_c, 9, 42, 0
1, 109440, Note_on_c, 9, 42, 126
1, 109679, Note_on_c, 9, 42, 0
1, 109680, Note_on_c, 9, 42, 21
1, 109919, Note_on_c, 9, 42, 0
1, 109920, Note_on_c, 9, 42, 127
1, 110159, Note_on_c, 9, 42, 0
1, 110160, Note_on_c, 9, 42, 21
1, 110399, Note_on_c, 9, 42, 0
1, 110400, Note_on_c, 9, 42, 127
1, 110639, Note_on_c, 9, 42, 0
1, 110640, Note_on_c, 9, 42, 21
1, 110879, Note_on_c, 9, 42, 0
1, 110880, Note_on_c, 9, 42, 127
1, 111119, Note_on_c, 9, 42, 0
1, 111120, Note_on_c, 9, 46, 44
1, 111359, Note_on_c, 9, 46, 0
1, 111360, Note_on_c, 9, 42, 126
1, 111599, Note_on_c, 9, 42, 0
1, 111600, Note_on_c, 9, 42, 21
1, 111839, Note_on_c, 9, 42, 0
1, 111840, Note_on_c, 9, 42, 127
1, 112079, Note_on_c, 9, 42, 0
1, 112080, Note_on_c, 9, 42, 21
1, 112319, Note_on_c, 9, 42, 0
1, 112320, Note_on_c, 9, 42, 127
1, 112559, Note_on_c, 9, 42, 0
1, 112560, Note_on_c, 9, 42, 21
1, 112799, Note_on_c, 9, 42, 0
1, 112800, Note_on_c, 9, 42, 127
1, 113039, Note_on_c, 9, 42, 0
1, 113040, Note_on_c, 9, 42, 21
1, 113279, Note_on_c, 9, 42, 0
1, 113280, Note_on_c, 9, 42, 126
1, 113519, Note_on_c, 9, 42, 0
1, 113520, Note_on_c, 9, 42, 21
1, 113759, Note_on_c, 9, 42, 0
1, 113760, Note_on_c, 9, 42, 127
1, 113999, Note_on_c, 9, 42, 0
1, 114000, Note_on_c, 9, 42, 21
1, 114239, Note_on_c, 9, 42, 0
1, 114240, Note_on_c, 9, 42, 127
1, 114479, Note_on_c, 9, 42, 0
1, 114480, Note_on_c, 9, 42, 21
1, 114719, Note_on_c, 9, 42, 0
1, 114720, Note_on_c, 9, 42, 127
1, 114959, Note_on_c, 9, 42, 0
1, 114960, Note_on_c, 9, 46, 44
1, 115199, Note_on_c, 9, 46, 0
1, 115200, Note_on_c, 9, 42, 126
1, 115439, Note_on_c, 9, 42, 0
1, 115440, Note_on_c, 9, 42, 21
1, 115679, Note_on_c, 9, 42, 0
1, 115680, Note_on_c, 9, 42, 127
1, 115919, Note_on_c, 9, 42, 0
1, 115920, Note_on_c, 9, 42, 21
1, 116159, Note_on_c, 9, 42, 0
1, 116160, Note_on_c, 9, 42, 127
1, 116399, Note_on_c, 9, 42, 0
1, 116400, Note_on_c, 9, 42, 21
1, 116639, Note_on_c, 9, 42, 0
1, 116640, Note_on_c, 9, 42, 127
1, 116879, Note_on_c, 9, 42, 0
1, 116880, Note_on_c, 9, 42, 21
1, 117119, Note_on_c, 9, 42, 0
1, 117120, Note_on_c, 9, 42, 126
1, 117359, Note_on_c, 9, 42, 0
1, 117360, Note_on_c, 9, 42, 21
1, 117599, Note_on_c, 9, 42, 0
1, 117600, Note_on_c, 9, 42, 127
1, 117839, Note_on_c, 9, 42, 0
1, 117840, Note_on_c, 9, 42, 21
1, 118079, Note_on_c, 9, 42, 0
1, 118080, Note_on_c, 9, 42, 127
1, 118319, Note_on_c, 9, 42, 0
1, 118320, Note_on_c, 9, 42, 21
1, 118559, Note_on_c, 9, 42, 0
1, 118560, Note_on_c, 9, 42, 127
1, 118799, Note_on_c, 9, 42, 0
1, 118800, Note_on_c, 9, 46, 44
1, 119039, Note_on_c, 9, 46, 0
1, 119040, Note_on_c, 9, 42, 126
1, 119279, Note_on_c, 9, 42, 0
1, 119280, Note_on_c, 9, 42, 21
1, 119519, Note_on_c, 9, 42, 0
1, 119520, Note_on_c, 9, 42, 127
1, 119759, Note_on_c, 9, 42, 0
1, 119760, Note_on_c, 9, 42, 21
1, 119999, Note_on_c, 9, 42, 0
1, 120000, Note_on_c, 9, 42, 127
1, 120239, Note_on_c, 9, 42, 0
1, 120240, Note_on_c, 9, 42, 21
1, 120479, Note_on_c, 9, 42, 0
1, 120480, Note_on_c, 9, 42, 127
1, 120719, Note_on_c, 9, 42, 0
1, 120720, Note_on_c, 9, 42, 21
1, 120959, Note_on_c, 9, 42, 0
1, 120960, Note_on_c, 9, 42, 126
1, 121199, Note_on_c, 9, 42, 0
1, 121200, Note_on_c, 9, 42, 21
1, 121439, Note_on_c, 9, 42, 0
1, 121440, Note_on_c, 9, 42, 127
1, 121679, Note_on_c, 9, 42, 0
1, 121680, Note_on_c, 9, 42, 21
1, 121919, Note_on_c, 9, 42, 0
1, 121920, Note_on_c, 9, 42, 127
1, 122159, Note_on_c, 9, 42, 0
1, 122160, Note_on_c, 9, 42, 21
1, 122399, Note_on_c, 9, 42, 0
1, 122400, Note_on_c, 9, 42, 127
1, 122639, Note_on_c, 9, 42, 0
1, 122640, Note_on_c, 9, 46, 44
1, 122879, Note_on_c, 9, 46, 0
1, 122880, Note_on_c, 9, 42, 126
1, 123119, Note_on_c, 9, 42, 0
1, 123120, Note_on_c, 9, 42, 21
1, 123359, Note_on_c, 9, 42, 0
1, 123360, Note_on_c, 9, 42, 127
1, 123599, Note_on_c, 9, 42, 0
1, 123600, Note_on_c, 9, 42, 21
1, 123839, Note_on_c, 9, 42, 0
1, 123840, Note_on_c, 9, 42, 127
1, 124079, Note_on_c, 9, 42, 0
1, 124080, Note_on_c, 9, 42, 21
1, 124319, Note_on_c, 9, 42, 0
1, 124320, Note_on_c, 9, 42, 127
1, 124559, Note_on_c, 9, 42, 0
1, 124560, Note_on_c, 9, 42, 21
1, 124799, Note_on_c, 9, 42, 0
1, 124800, Note_on_c, 9, 42, 126
1, 125039, Note_on_c, 9, 42, 0
1, 125040, Note_on_c, 9, 42, 21
1, 125279, Note_on_c, 9, 42, 0
1, 125280, Note_on_c, 9, 42, 127
1, 125519, Note_on_c, 9, 42, 0
1, 125520, Note_on_c, 9, 42, 21
1, 125759, Note_on_c, 9, 42, 0
1, 125760, Note_on_c, 9, 42, 127
1, 125999, Note_on_c, 9, 42, 0
1, 126000, Note_on_c, 9, 42, 21
1, 126239, Note_on_c, 9, 42, 0
1, 126240, Note_on_c, 9, 42, 127
1, 126479, Note_on_c, 9, 42, 0
1, 126480, Note_on_c, 9, 46, 44
1, 126719, Note_on_c, 9, 46, 0
1, 126720, Note_on_c, 9, 42, 126
1, 126959, Note_on_c, 9, 42, 0
1, 126960, Note_on_c, 9, 42, 21
1, 127199, Note_on_c, 9, 42, 0
1, 127200, Note_on_c, 9, 42, 127
1, 127439, Note_on_c, 9, 42, 0
1, 127440, Note_on_c, 9, 42, 21
1, 127679, Note_on_c, 9, 42, 0
1, 127680, Note_on_c, 9, 42, 127
1, 127919, Note_on_c, 9, 42, 0
1, 127920, Note_on_c, 9, 42, 21
1, 128159, Note_on_c, 9, 42, 0
1, 128160, Note_on_c, 9, 42, 127
1, 128399, Note_on_c, 9, 42, 0
1, 128400, Note_on_c, 9, 42, 21
1, 128639, Note_on_c, 9, 42, 0
1, 128640, Note_on_c, 9, 42, 126
1, 128879, Note_on_c, 9, 42, 0
1, 128880, Note_on_c, 9, 42, 21
1, 129119, Note_on_c, 9, 42, 0
1, 129120, Note_on_c, 9, 42, 127
1, 129359, Note_on_c, 9, 42, 0
1, 129360, Note_on_c, 9, 42, 21
1, 129599, Note_on_c, 9, 42, 0
1, 129600, Note_on_c, 9, 42, 127
1, 129839, Note_on_c, 9, 42, 0
1, 129840, Note_on_c, 9, 42, 21
1, 130079, Note_on_c, 9, 42, 0
1, 130080, Note_on_c, 9, 42, 127
1, 130319, Note_on_c, 9, 42, 0
1, 130320, Note_on_c, 9, 46, 44
1, 130559, Note_on_c, 9, 46, 0
1, 130560, Note_on_c, 9, 42, 126
1, 130799, Note_on_c, 9, 42, 0
1, 130800, Note_on_c, 9, 42, 21
1, 131039, Note_on_c, 9, 42, 0
1, 131040, Note_on_c, 9, 42, 127
1, 131279, Note_on_c, 9, 42, 0
1, 131280, Note_on_c, 9, 42, 21
1, 131519, Note_on_c, 9, 42, 0
1, 131520, Note_on_c, 9, 42, 127
1, 131759, Note_on_c, 9, 42, 0
1, 131760, Note_on_c, 9, 42, 21
1, 131999, Note_on_c, 9, 42, 0
1, 132000, Note_on_c, 9, 42, 127
1, 132239, Note_on_c, 9, 42, 0
1, 132240, Note_on_c, 9, 42, 21
1, 132479, Note_on_c, 9, 42, 0
1, 132480, Note_on_c, 9, 42, 126
1, 132719, Note_on_c, 9, 42, 0
1, 132720, Note_on_c, 9, 42, 21
1, 132959, Note_on_c, 9, 42, 0
1, 132960, Note_on_c, 9, 42, 127
1, 133199, Note_on_c, 9, 42, 0
1, 133200, Note_on_c, 9, 42, 21
1, 133439, Note_on_c, 9, 42, 0
1, 133440, Note_on_c, 9, 42, 127
1, 133679, Note_on_c, 9, 42, 0
1, 133680, Note_on_c, 9, 42, 21
1, 133919, Note_on_c, 9, 42, 0
1, 133920, Note_on_c, 9, 42, 127
1, 134159, Note_on_c, 9, 42, 0
1, 134160, Note_on_c, 9, 46, 44
1, 134399, Note_on_c, 9, 46, 0
1, 134400, Note_on_c, 9, 42, 126
1, 134639, Note_on_c, 9, 42, 0
1, 134640, Note_on_c, 9, 42, 21
1, 134879, Note_on_c, 9, 42, 0
1, 134880, Note_on_c, 9, 42, 127
1, 135119, Note_on_c, 9, 42, 0
1, 135120, Note_on_c, 9, 42, 21
1, 135359, Note_on_c, 9, 42, 0
1, 135360, Note_on_c, 9, 42, 127
1, 135599, Note_on_c, 9, 42, 0
1, 135600, Note_on_c, 9, 42, 21
1, 135839, Note_on_c, 9, 42, 0
1, 135840, Note_on_c, 9, 42, 127
1, 136079, Note_on_c, 9, 42, 0
1, 136080, Note_on_c, 9, 42, 21
1, 136319, Note_on_c, 9, 42, 0
1, 136320, Note_on_c, 9, 42, 126
1, 136559, Note_on_c, 9, 42, 0
1, 136560, Note_on_c, 9, 42, 21
1, 136799, Note_on_c, 9, 42, 0
1, 136800, Note_on_c, 9, 42, 127
1, 137039, Note_on_c, 9, 42, 0
1, 137040, Note_on_c, 9, 42, 21
1, 137279, Note_on_c, 9, 42, 0
1, 137280, Note_on_c, 9, 42, 127
1, 137519, Note_on_c, 9, 42, 0
1, 137520, Note_on_c, 9, 42, 21
1, 137759, Note_on_c, 9, 42, 0
1, 137760, Note_on_c, 9, 42, 127
1, 137999, Note_on_c, 9, 42, 0
1, 138000, Note_on_c, 9, 46, 44
1, 138239, Note_on_c, 9, 46, 0
1, 138240, Note_on_c, 9, 42, 126
1, 138479, Note_on_c, 9, 42, 0
1, 138480, Note_on_c, 9, 42, 21
1, 138719, Note_on_c, 9, 42, 0
1, 138720, Note_on_c, 9, 42, 127
1, 138959, Note_on_c, 9, 42, 0
1, 138960, Note_on_c, 9, 42, 21
1, 139199, Note_on_c, 9, 42, 0
1, 139200, Note_on_c, 9, 42, 127
1, 139439, Note_on_c, 9, 42, 0
1, 139440, Note_on_c, 9, 42, 21
1, 139679, Note_on_c, 9, 42, 0
1, 139680, Note_on_c, 9, 42, 127
1, 139919, Note_on_c, 9, 42, 0
1, 139920, Note_on_c, 9, 42, 21
1, 140159, Note_on_c, 9, 42, 0
1, 140160, Note_on_c, 9, 42, 126
1, 140399, Note_on_c, 9, 42, 0
1, 140400, Note_on_c, 9, 42, 21
1, 140639, Note_on_c, 9, 42, 0
1, 140640, Note_on_c, 9, 42, 127
1, 140879, Note_on_c, 9, 42, 0
1, 140880, Note_on_c, 9, 42, 21
1, 141119, Note_on_c, 9, 42, 0
1, 141120, Note_on_c, 9, 42, 127
1, 141359, Note_on_c, 9, 42, 0
1, 141360, Note_on_c, 9, 42, 21
1, 141599, Note_on_c, 9, 42, 0
1, 141600, Note_on_c, 9, 42, 127
1, 141839, Note_on_c, 9, 42, 0
1, 141840, Note_on_c, 9, 46, 44
1, 142079, Note_on_c, 9, 46, 0
1, 142080, Note_on_c, 9, 42, 126
1, 142319, Note_on_c, 9, 42, 0
1, 142320, Note_on_c, 9, 42, 21
1, 142559, Note_on_c, 9, 42, 0
1, 142560, Note_on_c, 9, 42, 127
1, 142799, Note_on_c, 9, 42, 0
1, 142800, Note_on_c, 9, 42, 21
1, 143039, Note_on_c, 9, 42, 0
1, 143040, Note_on_c, 9, 42, 127
1, 143279, Note_on_c, 9, 42, 0
1, 143280, Note_on_c, 9, 42, 21
1, 143519, Note_on_c, 9, 42, 0
1, 143520, Note_on_c, 9, 42, 127
1, 143759, Note_on_c, 9, 42, 0
1, 143760, Note_on_c, 9, 42, 21
1, 143999, Note_on_c, 9, 42, 0
1, 144000, Note_on_c, 9, 42, 126
1, 144239, Note_on_c, 9, 42, 0
1, 144240, Note_on_c, 9, 42, 21
1, 144479, Note_on_c, 9, 42, 0
1, 144480, Note_on_c, 9, 42, 127
1, 144719, Note_on_c, 9, 42, 0
1, 144720, Note_on_c, 9, 42, 21
1, 144959, Note_on_c, 9, 42, 0
1, 144960, Note_on_c, 9, 42, 127
1, 145199, Note_on_c, 9, 42, 0
1, 145200, Note_on_c, 9, 42, 21
1, 145439, Note_on_c, 9, 42, 0
1, 145440, Note_on_c, 9, 42, 127
1, 145679, Note_on_c, 9, 42, 0
1, 145680, Note_on_c, 9, 46, 44
1, 145919, Note_on_c, 9, 46, 0
1, 145920, Note_on_c, 9, 42, 126
1, 146159, Note_on_c, 9, 42, 0
1, 146160, Note_on_c, 9, 42, 21
1, 146399, Note_on_c, 9, 42, 0
1, 146400, Note_on_c, 9, 42, 127
1, 146639, Note_on_c, 9, 42, 0
1, 146640, Note_on_c, 9, 42, 21
1, 146879, Note_on_c, 9, 42, 0
1, 146880, Note_on_c, 9, 42, 127
1, 147119, Note_on_c, 9, 42, 0
1, 147120, Note_on_c, 9, 42, 21
1, 147359, Note_on_c, 9, 42, 0
1, 147360, Note_on_c, 9, 42, 127
1, 147599, Note_on_c, 9, 42, 0
1, 147600, Note_on_c, 9, 42, 21
1, 147839, Note_on_c, 9, 42, 0
1, 147840, Note_on_c, 9, 42, 126
1, 148079, Note_on_c, 9, 42, 0
1, 148080, Note_on_c, 9, 42, 21
1, 148319, Note_on_c, 9, 42, 0
1, 148320, Note_on_c, 9, 42, 127
1, 148559, Note_on_c, 9, 42, 0
1, 148560, Note_on_c, 9, 42, 21
1, 148799, Note_on_c, 9, 42, 0
1, 148800, Note_on_c, 9, 42, 127
1, 149039, Note_on_c, 9, 42, 0
1, 149040, Note_on_c, 9, 42, 21
1, 149279, Note_on_c, 9, 42, 0
1, 149280, Note_on_c, 9, 42, 127
1, 149519, Note_on_c, 9, 42, 0
1, 149520, Note_on_c, 9, 46, 44
1, 149759, Note_on_c, 9, 46, 0
1, 149760, Note_on_c, 9, 42, 126
1, 149999, Note_on_c, 9, 42, 0
1, 150000, Note_on_c, 9, 42, 21
1, 150239, Note_on_c, 9, 42, 0
1, 150240, Note_on_c, 9, 42, 127
1, 150479, Note_on_c, 9, 42, 0
1, 150480, Note_on_c, 9, 42, 21
1, 150719, Note_on_c, 9, 42, 0
1, 150720, Note_on_c, 9, 42, 127
1, 150959, Note_on_c, 9, 42, 0
1, 150960, Note_on_c, 9, 42, 21
1, 151199, Note_on_c, 9, 42, 0
1, 151200, Note_on_c, 9, 42, 127
1, 151439, Note_on_c, 9, 42, 0
1, 151440, Note_on_c, 9, 42, 21
1, 151679, Note_on_c, 9, 42, 0
1, 151680, Note_on_c, 9, 42, 126
1, 151919, Note_on_c, 9, 42, 0
1, 151920, Note_on_c, 9, 42, 21
1, 152159, Note_on_c, 9, 42, 0
1, 152160, Note_on_c, 9, 42, 127
1, 152399, Note_on_c, 9, 42, 0
1, 152400, Note_on_c, 9, 42, 21
1, 152639, Note_on_c, 9, 42, 0
1, 152640, Note_on_c, 9, 42, 127
1, 152879, Note_on_c, 9, 42, 0
1, 152880, Note_on_c, 9, 42, 21
1, 153119, Note_on_c, 9, 42, 0
1, 153120, Note_on_c, 9, 42, 127
1, 153359, Note_on_c, 9, 42, 0
1, 153360, Note_on_c, 9, 46, 44
1, 153599, Note_on_c, 9, 46, 0
1, 153600, Note_on_c, 9, 42, 126
1, 153839, Note_on_c, 9, 42, 0
1, 153840, Note_on_c, 9, 42, 21
1, 154079, Note_on_c, 9, 42, 0
1, 154080, Note_on_c, 9, 42, 127
1, 154319, Note_on_c, 9, 42, 0
1, 154320, Note_on_c, 9, 42, 21
1, 154559, Note_on_c, 9, 42, 0
1, 154560, Note_on_c, 9, 42, 127
1, 154799, Note_on_c, 9, 42, 0
1, 154800, Note_on_c, 9, 42, 21
1, 155039, Note_on_c, 9, 42, 0
1, 155040, Note_on_c, 9, 42, 127
1, 155279, Note_on_c, 9, 42, 0
1, 155280, Note_on_c, 9, 42, 21
1, 155519, Note_on_c, 9, 42, 0
1, 155520, Note_on_c, 9, 42, 126
1, 155759, Note_on_c, 9, 42, 0
1, 155760, Note_on_c, 9, 42, 21
1, 155999, Note_on_c, 9, 42, 0
1, 156000, Note_on_c, 9, 42, 127
1, 156239, Note_on_c, 9, 42, 0
1, 156240, Note_on_c, 9, 42, 21
1, 156479, Note_on_c, 9, 42, 0
1, 156480, Note_on_c, 9, 42, 127
1, 156719, Note_on_c, 9, 42, 0
1, 156720, Note_on_c, 9, 42, 21
1, 156959, Note_on_c, 9, 42, 0
1, 156960, Note_on_c, 9, 42, 127
1, 157199, Note_on_c, 9, 42, 0
1, 157200, Note_on_c, 9, 46, 44
1, 157439, Note_on_c, 9, 46, 0
1, 157440, Note_on_c, 9, 42, 126
1, 157679, Note_on_c, 9, 42, 0
1, 157680, Note_on_c, 9, 42, 21
1, 157919, Note_on_c, 9, 42, 0
1, 157920, Note_on_c, 9, 42, 127
1, 158159, Note_on_c, 9, 42, 0
1, 158160, Note_on_c, 9, 42, 21
1, 158399, Note_on_c, 9, 42, 0
1, 158400, Note_on_c, 9, 42, 127
1, 158639, Note_on_c, 9, 42, 0
1, 158640, Note_on_c, 9, 42, 21
1, 158879, Note_on_c, 9, 42, 0
1, 158880, Note_on_c, 9, 42, 127
1, 159119, Note_on_c, 9, 42, 0
1, 159120, Note_on_c, 9, 42, 21
1, 159359, Note_on_c, 9, 42, 0
1, 159360, Note_on_c, 9, 42, 126
1, 159599, Note_on_c, 9, 42, 0
1, 159600, Note_on_c, 9, 42, 21
1, 159839, Note_on_c, 9, 42, 0
1, 159840, Note_on_c, 9, 42, 127
1, 160079, Note_on_c, 9, 42, 0
1, 160080, Note_on_c, 9, 42, 21
1, 160319, Note_on_c, 9, 42, 0
1, 160320, Note_on_c, 9, 42, 127
1, 160559, Note_on_c, 9, 42, 0
1, 160560, Note_on_c, 9, 42, 21
1, 160799, Note_on_c, 9, 42, 0
1, 160800, Note_on_c, 9, 42, 127
1, 161039, Note_on_c, 9, 42, 0
1, 161040, Note_on_c, 9, 46, 44
1, 161279, Note_on_c, 9, 46, 0
1, 161280, Note_on_c, 9, 42, 126
1, 161519, Note_on_c, 9, 42, 0
1, 161520, Note_on_c, 9, 42, 21
1, 161759, Note_on_c, 9, 42, 0
1, 161760, Note_on_c, 9, 42, 127
1, 161999, Note_on_c, 9, 42, 0
1, 162000, Note_on_c, 9, 42, 21
1, 162239, Note_on_c, 9, 42, 0
1, 162240, Note_on_c, 9, 42, 127
1, 162479, Note_on_c, 9, 42, 0
1, 162480, Note_on_c, 9, 42, 21
1, 162719, Note_on_c, 9, 42, 0
1, 162720, Note_on_c, 9, 42, 127
1, 162959, Note_on_c, 9, 42, 0
1, 162960, Note_on_c, 9, 42, 21
1, 163199, Note_on_c, 9, 42, 0
1, 163200, Note_on_c, 9, 42, 126
1, 163439, Note_on_c, 9, 42, 0
1, 163440, Note_on_c, 9, 42, 21
1, 163679, Note_on_c, 9, 42, 0
1, 163680, Note_on_c, 9, 42, 127
1, 163919, Note_on_c, 9, 42, 0
1, 163920, Note_on_c, 9, 42, 21
1, 164159, Note_on_c, 9, 42, 0
1, 164160, Note_on_c, 9, 42, 127
1, 164399, Note_on_c, 9, 42, 0
1, 164400, Note_on_c, 9, 42, 21
1, 164639, Note_on_c, 9, 42, 0
1, 164640, Note_on_c, 9, 42, 127
1, 164879, Note_on_c, 9, 42, 0
1, 164880, Note_on_c, 9, 46, 44
1, 165119, Note_on_c, 9, 46, 0
1, 165120, Note_on_c, 9, 42, 126
1, 165359, Note_on_c, 9, 42, 0
1, 165360, Note_on_c, 9, 42, 21
1, 165599, Note_on_c, 9, 42, 0
1, 165600, Note_on_c, 9, 42, 127
1, 165839, Note_on_c, 9, 42, 0
1, 165840, Note_on_c, 9, 42, 21
1, 166079, Note_on_c, 9, 42, 0
1, 166080, Note_on_c, 9, 42, 127
1, 166319, Note_on_c, 9, 42, 0
1, 166320, Note_on_c, 9, 42, 21
1, 166559, Note_on_c, 9, 42, 0
1, 166560, Note_on_c, 9, 42, 127
1, 166799, Note_on_c, 9, 42, 0
1, 166800, Note_on_c, 9, 42, 21
1, 167039, Note_on_c, 9, 42, 0
1, 167040, Note_on_c, 9, 42, 126
1, 167279, Note_on_c, 9, 42, 0
1, 167280, Note_on_c, 9, 42, 21
1, 167519, Note_on_c, 9, 42, 0
1, 167520, Note_on_c, 9, 42, 127
1, 167759, Note_on_c, 9, 42, 0
1, 167760, Note_on_c, 9, 42, 21
1, 167999, Note_on_c, 9, 42, 0
1, 168000, Note_on_c, 9, 42, 127
1, 168239, Note_on_c, 9, 42, 0
1, 168240, Note_on_c, 9, 42, 21
1, 168479, Note_on_c, 9, 42, 0
1, 168480, Note_on_c, 9, 42, 127
1, 168719, Note_on_c, 9, 42, 0
1, 168720, Note_on_c, 9, 46, 44
1, 168959, Note_on_c, 9, 46, 0
1, 168960, Note_on_c, 9, 42, 126
1, 169199, Note_on_c, 9, 42, 0
1, 169200, Note_on_c, 9, 42, 21
1, 169439, Note_on_c, 9, 42, 0
1, 169440, Note_on_c, 9, 42, 127
1, 169679, Note_on_c, 9, 42, 0
1, 169680, Note_on_c, 9, 42, 21
1, 169919, Note_on_c, 9, 42, 0
1, 169920, Note_on_c, 9, 42, 127
1, 170159, Note_on_c, 9, 42, 0
1, 170160, Note_on_c, 9, 42, 21
1, 170399, Note_on_c, 9, 42, 0
1, 170400, Note_on_c, 9, 42, 127
1, 170639, Note_on_c, 9, 42, 0
1, 170640, Note_on_c, 9, 42, 21
1, 170879, Note_on_c, 9, 42, 0
1, 170880, Note_on_c, 9, 42, 126
1, 171119, Note_on_c, 9, 42, 0
1, 171120, Note_on_c, 9, 42, 21
1, 171359, Note_on_c, 9, 42, 0
1, 171360, Note_on_c, 9, 42, 127
1, 171599, Note_on_c, 9, 42, 0
1, 171600, Note_on_c, 9, 42, 21
1, 171839, Note_on_c, 9, 42, 0
1, 171840, Note_on_c, 9, 42, 127
1, 172079, Note_on_c, 9, 42, 0
1, 172080, Note_on_c, 9, 42, 21
1, 172319, Note_on_c, 9, 42, 0
1, 172320, Note_on_c, 9, 42, 127
1, 172559, Note_on_c, 9, 42, 0
1, 172560, Note_on_c, 9, 46, 44
1, 172799, Note_on_c, 9, 46, 0
1, 172800, Note_on_c, 9, 42, 126
1, 173039, Note_on_c, 9, 42, 0
1, 173040, Note_on_c, 9, 42, 21
1, 173279, Note_on_c, 9, 42, 0
1, 173280, Note_on_c, 9, 42, 127
1, 173519, Note_on_c, 9, 42, 0
1, 173520, Note_on_c, 9, 42, 21
1, 173759, Note_on_c, 9, 42, 0
1, 173760, Note_on_c, 9, 42, 127
1, 173999, Note_on_c, 9, 42, 0
1, 174000, Note_on_c, 9, 42, 21
1, 174239, Note_on_c, 9, 42, 0
1, 174240, Note_on_c, 9, 42, 127
1, 174479, Note_on_c, 9, 42, 0
1, 174480, Note_on_c, 9, 42, 21
1, 174719, Note_on_c, 9, 42, 0
1, 174720, Note_on_c, 9, 42, 126
1, 174959, Note_on_c, 9, 42, 0
1, 174960, Note_on_c, 9, 42, 21
1, 175199, Note_on_c, 9, 42, 0
1, 175200, Note_on_c, 9, 42, 127
1, 175439, Note_on_c, 9, 42, 0
1, 175440, Note_on_c, 9, 42, 21
1, 175679, Note_on_c, 9, 42, 0
1, 175680, Note_on_c, 9, 42, 127
1, 175919, Note_on_c, 9, 42, 0
1, 175920, Note_on_c, 9, 42, 21
1, 176159, Note_on_c, 9, 42, 0
1, 176160, Note_on_c, 9, 42, 127
1, 176399, Note_on_c, 9, 42, 0
1, 176400, Note_on_c, 9, 46, 44
1, 176639, Note_on_c, 9, 46, 0
1, 176640, Note_on_c, 9, 42, 126
1, 176879, Note_on_c, 9, 42, 0
1, 176880, Note_on_c, 9, 42, 21
1, 177119, Note_on_c, 9, 42, 0
1, 177120, Note_on_c, 9, 42, 127
1, 177359, Note_on_c, 9, 42, 0
1, 177360, Note_on_c, 9, 42, 21
1, 177599, Note_on_c, 9, 42, 0
1, 177600, Note_on_c, 9, 42, 127
1, 177839, Note_on_c, 9, 42, 0
1, 177840, Note_on_c, 9, 42, 21
1, 178079, Note_on_c, 9, 42, 0
1, 178080, Note_on_c, 9, 42, 127
1, 178319, Note_on_c, 9, 42, 0
1, 178320, Note_on_c, 9, 42, 21
1, 178559, Note_on_c, 9, 42, 0
1, 178560, Note_on_c, 9, 42, 126
1, 178799, Note_on_c, 9, 42, 0
1, 178800, Note_on_c, 9, 42, 21
1, 179039, Note_on_c, 9, 42, 0
1, 179040, Note_on_c, 9, 42, 127
1, 179279, Note_on_c, 9, 42, 0
1, 179280, Note_on_c, 9, 42, 21
1, 179519, Note_on_c, 9, 42, 0
1, 179520, Note_on_c, 9, 42, 127
1, 179759, Note_on_c, 9, 42, 0
1, 179760, Note_on_c, 9, 42, 21
1, 179999, Note_on_c, 9, 42, 0
1, 180000, Note_on_c, 9, 42, 127
1, 180239, Note_on_c, 9, 42, 0
1, 180240, Note_on_c, 9, 46, 44
1, 180479, Note_on_c, 9, 46, 0
1, 180480, Note_on_c, 9, 42, 126
1, 180719, Note_on_c, 9, 42, 0
1, 180720, Note_on_c, 9, 42, 21
1, 180959, Note_on_c, 9, 42, 0
1, 180960, Note_on_c, 9, 42, 127
1, 181199, Note_on_c, 9, 42, 0
1, 181200, Note_on_c, 9, 42, 21
1, 181439, Note_on_c, 9, 42, 0
1, 181440, Note_on_c, 9, 42, 127
1, 181679, Note_on_c, 9, 42, 0
1, 181680, Note_on_c, 9, 42, 21
1, 181919, Note_on_c, 9, 42, 0
1, 181920, Note_on_c, 9, 42, 127
1, 182159, Note_on_c, 9, 42, 0
1, 182160, Note_on_c, 9, 42, 21
1, 182399, Note_on_c, 9, 42, 0
1, 182400, Note_on_c, 9, 42, 126
1, 182639, Note_on_c, 9, 42, 0
1, 182640, Note_on_c, 9, 42, 21
1, 182879, Note_on_c, 9, 42, 0
1, 182880, Note_on_c, 9, 42, 127
1, 183119, Note_on_c, 9, 42, 0
1, 183120, Note_on_c, 9, 42, 21
1, 183359, Note_on_c, 9, 42, 0
1, 183360, Note_on_c, 9, 42, 127
1, 183599, Note_on_c, 9, 42, 0
1, 183600, Note_on_c, 9, 42, 21
1, 183839, Note_on_c, 9, 42, 0
1, 183840, Note_on_c, 9, 42, 127
1, 184079, Note_on_c, 9, 42, 0
1, 184080, Note_on_c, 9, 46, 44
1, 184319, Note_on_c, 9, 46, 0
1, 184320, Note_on_c, 9, 42, 126
1, 184559, Note_on_c, 9, 42, 0
1, 184560, Note_on_c, 9, 42, 21
1, 184799, Note_on_c, 9, 42, 0
1, 184800, Note_on_c, 9, 42, 127
1, 185039, Note_on_c, 9, 42, 0
1, 185040, Note_on_c, 9, 42, 21
1, 185279, Note_on_c, 9, 42, 0
1, 185280, Note_on_c, 9, 42, 127
1, 185519, Note_on_c, 9, 42, 0
1, 185520, Note_on_c, 9, 42, 21
1, 185759, Note_on_c, 9, 42, 0
1, 185760, Note_on_c, 9, 42, 127
1, 185999, Note_on_c, 9, 42, 0
1, 186000, Note_on_c, 9, 42, 21
1, 186239, Note_on_c, 9, 42, 0
1, 186240, Note_on_c, 9, 42, 126
1, 186479, Note_on_c, 9, 42, 0
1, 186480, Note_on_c, 9, 42, 21
1, 186719, Note_on_c, 9, 42, 0
1, 186720, Note_on_c, 9, 42, 127
1, 186959, Note_on_c, 9, 42, 0
1, 186960, Note_on_c, 9, 42, 21
1, 187199, Note_on_c, 9, 42, 0
1, 187200, Note_on_c, 9, 42, 127
1, 187439, Note_on_c, 9, 42, 0
1, 187440, Note_on_c, 9, 42, 21
1, 187679, Note_on_c, 9, 42, 0
1, 187680, Note_on_c, 9, 42, 127
1, 187919, Note_on_c, 9, 42, 0
1, 187920, Note_on_c, 9, 46, 44
1, 188159, Note_on_c, 9, 46, 0
1, 188160, Note_on_c, 9, 42, 126
1, 188399, Note_on_c, 9, 42, 0
1, 188400, Note_on_c, 9, 42, 21
1, 188639, Note_on_c, 9, 42, 0
1, 188640, Note_on_c, 9, 42, 127
1, 188879, Note_on_c, 9, 42, 0
1, 188880, Note_on_c, 9, 42, 21
1, 189119, Note_on_c, 9, 42, 0
1, 189120, Note_on_c, 9, 42, 127
1, 189359, Note_on_c, 9, 42, 0
1, 189360, Note_on_c, 9, 42, 21
1, 189599, Note_on_c, 9, 42, 0
1, 189600, Note_on_c, 9, 42, 127
1, 189839, Note_on_c, 9, 42, 0
1, 189840, Note_on_c, 9, 42, 21
1, 190079, Note_on_c, 9, 42, 0
1, 190080, Note_on_c, 9, 42, 126
1, 190319, Note_on_c, 9, 42, 0
1, 190320, Note_on_c, 9, 42, 21
1, 190559, Note_on_c, 9, 42, 0
1, 190560, Note_on_c, 9, 42, 127
1, 190799, Note_on_c, 9, 42, 0
1, 190800, Note_on_c, 9, 42, 21
1, 191039, Note_on_c, 9, 42, 0
1, 191040, Note_on_c, 9, 42, 127
1, 191279, Note_on_c, 9, 42, 0
1, 191280, Note_on_c, 9, 42, 21
1, 191519, Note_on_c, 9, 42, 0
1, 191520, Note_on_c, 9, 42, 127
1, 191759, Note_on_c, 9, 42, 0
1, 191760, Note_on_c, 9, 46, 44
1, 191999, Note_on_c, 9, 46, 0
1, 192000, Note_on_c, 9, 42, 126
1, 192239, Note_on_c, 9, 42, 0
1, 192240, Note_on_c, 9, 42, 21
1, 192479, Note_on_c, 9, 42, 0
1, 192480, Note_on_c, 9, 42, 127
1, 192719, Note_on_c, 9, 42, 0
1, 192720, Note_on_c, 9, 42, 21
1, 192959, Note_on_c, 9, 42, 0
1, 192960, Note_on_c, 9, 42, 127
1, 193199, Note_on_c, 9, 42, 0
1, 193200, Note_on_c, 9, 42, 21
1, 193439, Note_on_c, 9, 42, 0
1, 193440, Note_on_c, 9, 42, 127
1, 193679, Note_on_c, 9, 42, 0
1, 193680, Note_on_c, 9, 42, 21
1, 193919, Note_on_c, 9, 42, 0
1, 193920, Note_on_c, 9, 42, 126
1, 194159, Note_on_c, 9, 42, 0
1, 194160, Note_on_c, 9, 42, 21
1, 194399, Note_on_c, 9, 42, 0
1, 194400, Note_on_c, 9, 42, 127
1, 194639, Note_on_c, 9, 42, 0
1, 194640, Note_on_c, 9, 42, 21
1, 194879, Note_on_c, 9, 42, 0
1, 194880, Note_on_c, 9, 42, 127
1, 195119, Note_on_c, 9, 42, 0
1, 195120, Note_on_c, 9, 42, 21
1, 195359, Note_on_c, 9, 42, 0
1, 195360, Note_on_c, 9, 42, 127
1, 195599, Note_on_c, 9, 42, 0
1, 195600, Note_on_c, 9, 46, 44
1, 195839, Note_on_c, 9, 46, 0
1, 195840, Note_on_c, 9, 42, 126
1, 196079, Note_on_c, 9, 42, 0
1, 196080, Note_on_c, 9, 42, 21
1, 196319, Note_on_c, 9, 42, 0
1, 196320, Note_on_c, 9, 42, 127
1, 196559, Note_on_c, 9, 42, 0
1, 196560, Note_on_c, 9, 42, 21
1, 196799, Note_on_c, 9, 42, 0
1, 196800, Note_on_c, 9, 42, 127
1, 197039, Note_on_c, 9, 42, 0
1, 197040, Note_on_c, 9, 42, 21
1, 197279, Note_on_c, 9, 42, 0
1, 197280, Note_on_c, 9, 42, 127
1, 197519, Note_on_c, 9, 42, 0
1, 197520, Note_on_c, 9, 42, 21
1, 197759, Note_on_c, 9, 42, 0
1, 197760, Note_on_c, 9, 42, 126
1, 197999, Note_on_c, 9, 42, 0
1, 198000, Note_on_c, 9, 42, 21
1, 198239, Note_on_c, 9, 42, 0
1, 198240, Note_on_c, 9, 42, 127
1, 198479, Note_on_c, 9, 42, 0
1, 198480, Note_on_c, 9, 42, 21
1, 198719, Note_on_c, 9, 42, 0
1, 198720, Note_on_c, 9, 42, 127
1, 198959, Note_on_c, 9, 42, 0
1, 198960, Note_on_c, 9, 42, 21
1, 199199, Note_on_c, 9, 42, 0
1, 199200, Note_on_c, 9, 42, 127
1, 199439, Note_on_c, 9, 42, 0
1, 199440, Note_on_c, 9, 46, 44
1, 199679, Note_on_c, 9, 46, 0
1, 199680, Note_on_c, 9, 42, 126
1, 199919, Note_on_c, 9, 42, 0
1, 199920, Note_on_c, 9, 42, 21
1, 200159, Note_on_c, 9, 42, 0
1, 200160, Note_on_c, 9, 42, 127
1, 200399, Note_on_c, 9, 42, 0
1, 200400, Note_on_c, 9, 42, 21
1, 200639, Note_on_c, 9, 42, 0
1, 200640, Note_on_c, 9, 42, 127
1, 200879, Note_on_c, 9, 42, 0
1, 200880, Note_on_c, 9, 42, 21
1, 201119, Note_on_c, 9, 42, 0
1, 201120, Note_on_c, 9, 42, 127
1, 201359, Note_on_c, 9, 42, 0
1, 201360, Note_on_c, 9, 42, 21
1, 201599, Note_on_c, 9, 42, 0
1, 201600, Note_on_c, 9, 42, 126
1, 201839, Note_on_c, 9, 42, 0
1, 201840, Note_on_c, 9, 42, 21
1, 202079, Note_on_c, 9, 42, 0
1, 202080, Note_on_c, 9, 42, 127
1, 202319, Note_on_c, 9, 42, 0
1, 202320, Note_on_c, 9, 42, 21
1, 202559, Note_on_c, 9, 42, 0
1, 202560, Note_on_c, 9, 42, 127
1, 202799, Note_on_c, 9, 42, 0
1, 202800, Note_on_c, 9, 42, 21
1, 203039, Note_on_c, 9, 42, 0
1, 203040, Note_on_c, 9, 42, 127
1, 203279, Note_on_c, 9, 42, 0
1, 203280, Note_on_c, 9, 46, 44
1, 203519, Note_on_c, 9, 46, 0
1, 203520, Note_on_c, 9, 42, 126
1, 203759, Note_on_c, 9, 42, 0
1, 203760, Note_on_c, 9, 42, 21
1, 203999, Note_on_c, 9, 42, 0
1, 204000, Note_on_c, 9, 42, 127
1, 204239, Note_on_c, 9, 42, 0
1, 204240, Note_on_c, 9, 42, 21
1, 204479, Note_on_c, 9, 42, 0
1, 204480, Note_on_c, 9, 42, 127
1, 204719, Note_on_c, 9, 42, 0
1, 204720, Note_on_c, 9, 42, 21
1, 204959, Note_on_c, 9, 42, 0
1, 204960, Note_on_c, 9, 42, 127
1, 205199, Note_on_c, 9, 42, 0
1, 205200, Note_on_c, 9, 42, 21
1, 205439, Note_on_c, 9, 42, 0
1, 205440, Note_on_c, 9, 42, 126
1, 205679, Note_on_c, 9, 42, 0
1, 205680, Note_on_c, 9, 42, 21
1, 205919, Note_on_c, 9, 42, 0
1, 205920, Note_on_c, 9, 42, 127
1, 206159, Note_on_c, 9, 42, 0
1, 206160, Note_on_c, 9, 42, 21
1, 206399, Note_on_c, 9, 42, 0
1, 206400, Note_on_c, 9, 42, 127
1, 206639, Note_on_c, 9, 42, 0
1, 206640, Note_on_c, 9, 42, 21
1, 206879, Note_on_c, 9, 42, 0
1, 206880, Note_on_c, 9, 42, 127
1, 207119, Note_on_c, 9, 42, 0
1, 207120, Note_on_c, 9, 46, 44
1, 207359, Note_on_c, 9, 46, 0
1, 207360, Note_on_c, 9, 42, 126
1, 207599, Note_on_c, 9, 42, 0
1, 207600, Note_on_c, 9, 42, 21
1, 207839, Note_on_c, 9, 42, 0
1, 207840, Note_on_c, 9, 42, 127
1, 208079, Note_on_c, 9, 42, 0
1, 208080, Note_on_c, 9, 42, 21
1, 208319, Note_on_c, 9, 42, 0
1, 208320, Note_on_c, 9, 42, 127
1, 208559, Note_on_c, 9, 42, 0
1, 208560, Note_on_c, 9, 42, 21
1, 208799, Note_on_c, 9, 42, 0
1, 208800, Note_on_c, 9, 42, 127
1, 209039, Note_on_c, 9, 42, 0
1, 209040, Note_on_c, 9, 42, 21
1, 209279, Note_on_c, 9, 42, 0
1, 209280, Note_on_c, 9, 42, 126
1, 209519, Note_on_c, 9, 42, 0
1, 209520, Note_on_c, 9, 42, 21
1, 209759, Note_on_c, 9, 42, 0
1, 209760, Note_on_c, 9, 42, 127
1, 209999, Note_on_c, 9, 42, 0
1, 210000, Note_on_c, 9, 42, 21
1, 210239, Note_on_c, 9, 42, 0
1, 210240, Note_on_c, 9, 42, 127
1, 210479, Note_on_c, 9, 42, 0
1, 210480, Note_on_c, 9, 42, 21
1, 210719, Note_on_c, 9, 42, 0
1, 210720, Note_on_c, 9, 42, 127
1, 210959, Note_on_c, 9, 42, 0
1, 210960, Note_on_c, 9, 46, 44
1, 211199, Note_on_c, 9, 46, 0
1, 211200, Note_on_c, 9, 42, 126
1, 211439, Note_on_c, 9, 42, 0
1, 211440, Note_on_c, 9, 42, 21
1, 211679, Note_on_c, 9, 42, 0
1, 211680, Note_on_c, 9, 42, 127
1, 211919, Note_on_c, 9, 42, 0
1, 211920, Note_on_c, 9, 42, 21
1, 212159, Note_on_c, 9, 42, 0
1, 212160, Note_on_c, 9, 42, 127
1, 212399, Note_on_c, 9, 42, 0
1, 212400, Note_on_c, 9, 42, 21
1, 212639, Note_on_c, 9, 42, 0
1, 212640, Note_on_c, 9, 42, 127
1, 212879, Note_on_c, 9, 42, 0
1, 212880, Note_on_c, 9, 42, 21
1, 213119, Note_on_c, 9, 42, 0
1, 213120, Note_on_c, 9, 42, 126
1, 213359, Note_on_c, 9, 42, 0
1, 213360, Note_on_c, 9, 42, 21
1, 213599, Note_on_c, 9, 42, 0
1, 213600, Note_on_c, 9, 42, 127
1, 213839, Note_on_c, 9, 42, 0
1, 213840, Note_on_c, 9, 42, 21
1, 214079, Note_on_c, 9, 42, 0
1, 214080, Note_on_c, 9, 42, 127
1, 214319, Note_on_c, 9, 42, 0
1, 214320, Note_on_c, 9, 42, 21
1, 214559, Note_on_c, 9, 42, 0
1, 214560, Note_on_c, 9, 42, 127
1, 214799, Note_on_c, 9, 42, 0
1, 214800, Note_on_c, 9, 46, 44
1, 215039, Note_on_c, 9, 46, 0
1, 215040, Note_on_c, 9, 42, 126
1, 215279, Note_on_c, 9, 42, 0
1, 215280, Note_on_c, 9, 42, 21
1, 215519, Note_on_c, 9, 42, 0
1, 215520, Note_on_c, 9, 42, 127
1, 215759, Note_on_c, 9, 42, 0
1, 215760, Note_on_c, 9, 42, 21
1, 215999, Note_on_c, 9, 42, 0
1, 216000, Note_on_c, 9, 42, 127
1, 216239, Note_on_c, 9, 42, 0
1, 216240, Note_on_c, 9, 42, 21
1, 216479, Note_on_c, 9, 42, 0
1, 216480, Note_on_c, 9, 42, 127
1, 216719, Note_on_c, 9, 42, 0
1, 216720, Note_on_c, 9, 42, 21
1, 216959, Note_on_c, 9, 42, 0
1, 216960, Note_on_c, 9, 42, 126
1, 217199, Note_on_c, 9, 42, 0
1, 217200, Note_on_c, 9, 42, 21
1, 217439, Note_on_c, 9, 42, 0
1, 217440, Note_on_c, 9, 42, 127
1, 217679, Note_on_c, 9, 42, 0
1, 217680, Note_on_c, 9, 42, 21
1, 217919, Note_on_c, 9, 42, 0
1, 217920, Note_on_c, 9, 42, 127
1, 218159, Note_on_c, 9, 42, 0
1, 218160, Note_on_c, 9, 42, 21
1, 218399, Note_on_c, 9, 42, 0
1, 218400, Note_on_c, 9, 42, 127
1, 218639, Note_on_c, 9, 42, 0
1, 218640, Note_on_c, 9, 46, 44
1, 218879, Note_on_c, 9, 46, 0
1, 218880, Note_on_c, 9, 42, 126
1, 219119, Note_on_c, 9, 42, 0
1, 219120, Note_on_c, 9, 42, 21
1, 219359, Note_on_c, 9, 42, 0
1, 219360, Note_on_c, 9, 42, 127
1, 219599, Note_on_c, 9, 42, 0
1, 219600, Note_on_c, 9, 42, 21
1, 219839, Note_on_c, 9, 42, 0
1, 219840, Note_on_c, 9, 42, 127
1, 220079, Note_on_c, 9, 42, 0
1, 220080, Note_on_c, 9, 42, 21
1, 220319, Note_on_c, 9, 42, 0
1, 220320, Note_on_c, 9, 42, 127
1, 220559, Note_on_c, 9, 42, 0
1, 220560, Note_on_c, 9, 42, 21
1, 220799, Note_on_c, 9, 42, 0
1, 220800, Note_on_c, 9, 42, 126
1, 221039, Note_on_c, 9, 42, 0
1, 221040, Note_on_c, 9, 42, 21
1, 221279, Note_on_c, 9, 42, 0
1, 221280, Note_on_c, 9, 42, 127
1, 221519, Note_on_c, 9, 42, 0
1, 221520, Note_on_c, 9, 42, 21
1, 221759, Note_on_c, 9, 42, 0
1, 221760, Note_on_c, 9, 42, 127
1, 221999, Note_on_c, 9, 42, 0
1, 222000, Note_on_c, 9, 42, 21
1, 222239, Note_on_c, 9, 42, 0
1, 222240, Note_on_c, 9, 42, 127
1, 222479, Note_on_c, 9, 42, 0
1, 222480, Note_on_c, 9, 46, 44
1, 222719, Note_on_c, 9, 46, 0
1, 222720, Note_on_c, 9, 42, 126
1, 222959, Note_on_c, 9, 42, 0
1, 222960, Note_on_c, 9, 42, 21
1, 223199, Note_on_c, 9, 42, 0
1, 223200, Note_on_c, 9, 42, 127
1, 223439, Note_on_c, 9, 42, 0
1, 223440, Note_on_c, 9, 42, 21
1, 223679, Note_on_c, 9, 42, 0
1, 223680, Note_on_c, 9, 42, 127
1, 223919, Note_on_c, 9, 42, 0
1, 223920, Note_on_c, 9, 42, 21
1, 224159, Note_on_c, 9, 42, 0
1, 224160, Note_on_c, 9, 42, 127
1, 224399, Note_on_c, 9, 42, 0
1, 224400, Note_on_c, 9, 42, 21
1, 224639, Note_on_c, 9, 42, 0
1, 224640, Note_on_c, 9, 42, 126
1, 224879, Note_on_c, 9, 42, 0
1, 224880, Note_on_c, 9, 42, 21
1, 225119, Note_on_c, 9, 42, 0
1, 225120, Note_on_c, 9, 42, 127
1, 225359, Note_on_c, 9, 42, 0
1, 225360, Note_on_c, 9, 42, 21
1, 225599, Note_on_c, 9, 42, 0
1, 225600, Note_on_c, 9, 42, 127
1, 225839, Note_on_c, 9, 42, 0
1, 225840, Note_on_c, 9, 42, 21
1, 226079, Note_on_c, 9, 42, 0
1, 226080, Note_on_c, 9, 42, 127
1, 226319, Note_on_c, 9, 42, 0
1, 226320, Note_on_c, 9, 46, 44
1, 226559, Note_on_c, 9, 46, 0
1, 226560, Note_on_c, 9, 42, 126
1, 226799, Note_on_c, 9, 42, 0
1, 226800, Note_on_c, 9, 42, 21
1, 227039, Note_on_c, 9, 42, 0
1, 227040, Note_on_c, 9, 42, 127
1, 227279, Note_on_c, 9, 42, 0
1, 227280, Note_on_c, 9, 42, 21
1, 227519, Note_on_c, 9, 42, 0
1, 227520, Note_on_c, 9, 42, 127
1, 227759, Note_on_c, 9, 42, 0
1, 227760, Note_on_c, 9, 42, 21
1, 227999, Note_on_c, 9, 42, 0
1, 228000, Note_on_c, 9, 42, 127
1, 228239, Note_on_c, 9, 42, 0
1, 228240, Note_on_c, 9, 42, 21
1, 228479, Note_on_c, 9, 42, 0
1, 228480, Note_on_c, 9, 42, 126
1, 228719, Note_on_c, 9, 42, 0
1, 228720, Note_on_c, 9, 42, 21
1, 228959, Note_on_c, 9, 42, 0
1, 228960, Note_on_c, 9, 42, 127
1, 229199, Note_on_c, 9, 42, 0
1, 229200, Note_on_c, 9, 42, 21
1, 229439, Note_on_c, 9, 42, 0
1, 229440, Note_on_c, 9, 42, 127
1, 229679, Note_on_c, 9, 42, 0
1, 229680, Note_on_c, 9, 42, 21
1, 229919, Note_on_c, 9, 42, 0
1, 229920, Note_on_c, 9, 42, 127
1, 230159, Note_on_c, 9, 42, 0
1, 230160, Note_on_c, 9, 46, 44
1, 230399, Note_on_c, 9, 46, 0
1, 230400, Note_on_c, 9, 42, 126
1, 230639, Note_on_c, 9, 42, 0
1, 230640, Note_on_c, 9, 42, 21
1, 230879, Note_on_c, 9, 42, 0
1, 230880, Note_on_c, 9, 42, 127
1, 231119, Note_on_c, 9, 42, 0
1, 231120, Note_on_c, 9, 42, 21
1, 231359, Note_on_c, 9, 42, 0
1, 231360, Note_on_c, 9, 42, 127
1, 231599, Note_on_c, 9, 42, 0
1, 231600, Note_on_c, 9, 42, 21
1, 231839, Note_on_c, 9, 42, 0
1, 231840, Note_on_c, 9, 42, 127
1, 232079, Note_on_c, 9, 42, 0
1, 232080, Note_on_c, 9, 42, 21
1, 232319, Note_on_c, 9, 42, 0
1, 232320, Note_on_c, 9, 42, 126
1, 232559, Note_on_c, 9, 42, 0
1, 232560, Note_on_c, 9, 42, 21
1, 232799, Note_on_c, 9, 42, 0
1, 232800, Note_on_c, 9, 42, 127
1, 233039, Note_on_c, 9, 42, 0
1, 233040, Note_on_c, 9, 42, 21
1, 233279, Note_on_c, 9, 42, 0
1, 233280, Note_on_c, 9, 42, 127
1, 233519, Note_on_c, 9, 42, 0
1, 233520, Note_on_c, 9, 42, 21
1, 233759, Note_on_c, 9, 42, 0
1, 233760, Note_on_c, 9, 42, 127
1, 233999, Note_on_c, 9, 42, 0
1, 234000, Note_on_c, 9, 46, 44
1, 234239, Note_on_c, 9, 46, 0
1, 234240, Note_on_c, 9, 42, 126
1, 234479, Note_on_c, 9, 42, 0
1, 234480, Note_on_c, 9, 42, 21
1, 234719, Note_on_c, 9, 42, 0
1, 234720, Note_on_c, 9, 42, 127
1, 234959, Note_on_c, 9, 42, 0
1, 234960, Note_on_c, 9, 42, 21
1, 235199, Note_on_c, 9, 42, 0
1, 235200, Note_on_c, 9, 42, 127
1, 235439, Note_on_c, 9, 42, 0
1, 235440, Note_on_c, 9, 42, 21
1, 235679, Note_on_c, 9, 42, 0
1, 235680, Note_on_c, 9, 42, 127
1, 235919, Note_on_c, 9, 42, 0
1, 235920, Note_on_c, 9, 42, 21
1, 236159, Note_on_c, 9, 42, 0
1, 236160, Note_on_c, 9, 42, 126
1, 236399, Note_on_c, 9, 42, 0
1, 236400, Note_on_c, 9, 42, 21
1, 236639, Note_on_c, 9, 42, 0
1, 236640, Note_on_c, 9, 42, 127
1, 236879, Note_on_c, 9, 42, 0
1, 236880, Note_on_c, 9, 42, 21
1, 237119, Note_on_c, 9, 42, 0
1, 237120, Note_on_c, 9, 42, 127
1, 237359, Note_on_c, 9, 42, 0
1, 237360, Note_on_c, 9, 42, 21
1, 237599, Note_on_c, 9, 42, 0
1, 237600, Note_on_c, 9, 42, 127
1, 237839, Note_on_c, 9, 42, 0
1, 237840, Note_on_c, 9, 46, 44
1, 238079, Note_on_c, 9, 46, 0
1, 238080, Note_on_c, 9, 42, 126
1, 238319, Note_on_c, 9, 42, 0
1, 238320, Note_on_c, 9, 42, 21
1, 238559, Note_on_c, 9, 42, 0
1, 238560, Note_on_c, 9, 42, 127
1, 238799, Note_on_c, 9, 42, 0
1, 238800, Note_on_c, 9, 42, 21
1, 239039, Note_on_c, 9, 42, 0
1, 239040, Note_on_c, 9, 42, 127
1, 239279, Note_on_c, 9, 42, 0
1, 239280, Note_on_c, 9, 42, 21
1, 239519, Note_on_c, 9, 42, 0
1, 239520, Note_on_c, 9, 42, 127
1, 239759, Note_on_c, 9, 42, 0
1, 239760, Note_on_c, 9, 42, 21
1, 239999, Note_on_c, 9, 42, 0
1, 240000, Note_on_c, 9, 42, 126
1, 240239, Note_on_c, 9, 42, 0
1, 240240, Note_on_c, 9, 42, 21
1, 240479, Note_on_c, 9, 42, 0
1, 240480, Note_on_c, 9, 42, 127
1, 240719, Note_on_c, 9, 42, 0
1, 240720, Note_on_c, 9, 42, 21
1, 240959, Note_on_c, 9, 42, 0
1, 240960, Note_on_c, 9, 42, 127
1, 241199, Note_on_c, 9, 42, 0
1, 241200, Note_on_c, 9, 42, 21
1, 241439, Note_on_c, 9, 42, 0
1, 241440, Note_on_c, 9, 42, 127
1, 241679, Note_on_c, 9, 42, 0
1, 241680, Note_on_c, 9, 46, 44
1, 241919, Note_on_c, 9, 46, 0
1, 241920, Note_on_c, 9, 42, 126
1, 242159, Note_on_c, 9, 42, 0
1, 242160, Note_on_c, 9, 42, 21
1, 242399, Note_on_c, 9, 42, 0
1, 242400, Note_on_c, 9, 42, 127
1, 242639, Note_on_c, 9, 42, 0
1, 242640, Note_on_c, 9, 42, 21
1, 242879, Note_on_c, 9, 42, 0
1, 242880, Note_on_c, 9, 42, 127
1, 243119, Note_on_c, 9, 42, 0
1, 243120, Note_on_c, 9, 42, 21
1, 243359, Note_on_c, 9, 42, 0
1, 243360, Note_on_c, 9, 42, 127
1, 243599, Note_on_c, 9, 42, 0
1, 243600, Note_on_c, 9, 42, 21
1, 243839, Note_on_c, 9, 42, 0
1, 243840, Note_on_c, 9, 42, 126
1, 244079, Note_on_c, 9, 42, 0
1, 244080, Note_on_c, 9, 42, 21
1, 244319, Note_on_c, 9, 42, 0
1, 244320, Note_on_c, 9, 42, 127
1, 244559, Note_on_c, 9, 42, 0
1, 244560, Note_on_c, 9, 42, 21
1, 244799, Note_on_c, 9, 42, 0
1, 244800, Note_on_c, 9, 42, 127
1, 245039, Note_on_c, 9, 42, 0
1, 245040, Note_on_c, 9, 42, 21
1, 245279, Note_on_c, 9, 42, 0
1, 245280, Note_on_c, 9, 42, 127
1, 245519, Note_on_c, 9, 42, 0
1, 245520, Note_on_c, 9, 46, 44
1, 245759, Note_on_c, 9, 46, 0
1, 245760, Note_on_c, 9, 42, 126
1, 245999, Note_on_c, 9, 42, 0
1, 246000, Note_on_c, 9, 42, 21
1, 246239, Note_on_c, 9, 42, 0
1, 246240, Note_on_c, 9, 42, 127
1, 246479, Note_on_c, 9, 42, 0
1, 246480, Note_on_c, 9, 42, 21
1, 246719, Note_on_c, 9, 42, 0
1, 246720, Note_on_c, 9, 42, 127
1, 246959, Note_on_c, 9, 42, 0
1, 246960, Note_on_c, 9, 42, 21
1, 247199, Note_on_c, 9, 42, 0
1, 247200, Note_on_c, 9, 42, 127
1, 247439, Note_on_c, 9, 42, 0
1, 247440, Note_on_c, 9, 42, 21
1, 247679, Note_on_c, 9, 42, 0
1, 247680, Note_on_c, 9, 42, 126
1, 247919, Note_on_c, 9, 42, 0
1, 247920, Note_on_c, 9, 42, 21
1, 248159, Note_on_c, 9, 42, 0
1, 248160, Note_on_c, 9, 42, 127
1, 248399, Note_on_c, 9, 42, 0
1, 248400, Note_on_c, 9, 42, 21
1, 248639, Note_on_c, 9, 42, 0
1, 248640, Note_on_c, 9, 42, 127
1, 248879, Note_on_c, 9, 42, 0
1, 248880, Note_on_c, 9, 42, 21
1, 249119, Note_on_c, 9, 42, 0
1, 249120, Note_on_c, 9, 42, 127
1, 249359, Note_on_c, 9, 42, 0
1, 249360, Note_on_c, 9, 46, 44
1, 249599, Note_on_c, 9, 46, 0
1, 249600, Note_on_c, 9, 42, 126
1, 249839, Note_on_c, 9, 42, 0
1, 249840, Note_on_c, 9, 42, 21
1, 250079, Note_on_c, 9, 42, 0
1, 250080, Note_on_c, 9, 42, 127
1, 250319, Note_on_c, 9, 42, 0
1, 250320, Note_on_c, 9, 42, 21
1, 250559, Note_on_c, 9, 42, 0
1, 250560, Note_on_c, 9, 42, 127
1, 250799, Note_on_c, 9, 42, 0
1, 250800, Note_on_c, 9, 42, 21
1, 251039, Note_on_c, 9, 42, 0
1, 251040, Note_on_c, 9, 42, 127
1, 251279, Note_on_c, 9, 42, 0
1, 251280, Note_on_c, 9, 42, 21
1, 251519, Note_on_c, 9, 42, 0
1, 251520, Note_on_c, 9, 42, 126
1, 251759, Note_on_c, 9, 42, 0
1, 251760, Note_on_c, 9, 42, 21
1, 251999, Note_on_c, 9, 42, 0
1, 252000, Note_on_c, 9, 42, 127
1, 252239, Note_on_c, 9, 42, 0
1, 252240, Note_on_c, 9, 42, 21
1, 252479, Note_on_c, 9, 42, 0
1, 252480, Note_on_c, 9, 42, 127
1, 252719, Note_on_c, 9, 42, 0
1, 252720, Note_on_c, 9, 42, 21
1, 252959, Note_on_c, 9, 42, 0
1, 252960, Note_on_c, 9, 42, 127
1, 253199, Note_on_c, 9, 42, 0
1, 253200, Note_on_c, 9, 46, 44
1, 253439, Note_on_c, 9, 46, 0
1, 253440, Note_on_c, 9, 42, 126
1, 253679, Note_on_c, 9, 42, 0
1, 253680, Note_on_c, 9, 42, 21
1, 253919, Note_on_c, 9, 42, 0
1, 253920, Note_on_c, 9, 42, 127
1, 254159, Note_on_c, 9, 42, 0
1, 254160, Note_on_c, 9, 42, 21
1, 254399, Note_on_c, 9, 42, 0
1, 254400, Note_on_c, 9, 42, 127
1, 254639, Note_on_c, 9, 42, 0
1, 254640, Note_on_c, 9, 42, 21
1, 254879, Note_on_c, 9, 42, 0
1, 254880, Note_on_c, 9, 42, 127
1, 255119, Note_on_c, 9, 42, 0
1, 255120, Note_on_c, 9, 42, 21
1, 255359, Note_on_c, 9, 42, 0
1, 255360, Note_on_c, 9, 42, 126
1, 255599, Note_on_c, 9, 42, 0
1, 255600, Note_on_c, 9, 42, 21
1, 255839, Note_on_c, 9, 42, 0
1, 255840, Note_on_c, 9, 42, 127
1, 256079, Note_on_c, 9, 42, 0
1, 256080, Note_on_c, 9, 42, 21
1, 256319, Note_on_c, 9, 42, 0
1, 256320, Note_on_c, 9, 42, 127
1, 256559, Note_on_c, 9, 42, 0
1, 256560, Note_on_c, 9, 42, 21
1, 256799, Note_on_c, 9, 42, 0
1, 256800, Note_on_c, 9, 42, 127
1, 257039, Note_on_c, 9, 42, 0
1, 257040, Note_on_c, 9, 46, 44
1, 257279, Note_on_c, 9, 46, 0
1, 257280, Note_on_c, 9, 42, 126
1, 257519, Note_on_c, 9, 42, 0
1, 257520, Note_on_c, 9, 42, 21
1, 257759, Note_on_c, 9, 42, 0
1, 257760, Note_on_c, 9, 42, 127
1, 257999, Note_on_c, 9, 42, 0
1, 258000, Note_on_c, 9, 42, 21
1, 258239, Note_on_c, 9, 42, 0
1, 258240, Note_on_c, 9, 42, 127
1, 258479, Note_on_c, 9, 42, 0
1, 258480, Note_on_c, 9, 42, 21
1, 258719, Note_on_c, 9, 42, 0
1, 258720, Note_on_c, 9, 42, 127
1, 258959, Note_on_c, 9, 42, 0
1, 258960, Note_on_c, 9, 42, 21
1, 259199, Note_on_c, 9, 42, 0
1, 259200, Note_on_c, 9, 42, 126
1, 259439, Note_on_c, 9, 42, 0
1, 259440, Note_on_c, 9, 42, 21
1, 259679, Note_on_c, 9, 42, 0
1, 259680, Note_on_c, 9, 42, 127
1, 259919, Note_on_c, 9, 42, 0
1, 259920, Note_on_c, 9, 42, 21
1, 260159, Note_on_c, 9, 42, 0
1, 260160, Note_on_c, 9, 42, 127
1, 260399, Note_on_c, 9, 42, 0
1, 260400, Note_on_c, 9, 42, 21
1, 260639, Note_on_c, 9, 42, 0
1, 260640, Note_on_c, 9, 42, 127
1, 260879, Note_on_c, 9, 42, 0
1, 260880, Note_on_c, 9, 46, 44
1, 261119, Note_on_c, 9, 46, 0
1, 261120, Note_on_c, 9, 42, 126
1, 261359, Note_on_c, 9, 42, 0
1, 261360, Note_on_c, 9, 42, 21
1, 261599, Note_on_c, 9, 42, 0
1, 261600, Note_on_c, 9, 42, 127
1, 261839, Note_on_c, 9, 42, 0
1, 261840, Note_on_c, 9, 42, 21
1, 262079, Note_on_c, 9, 42, 0
1, 262080, Note_on_c, 9, 42, 127
1, 262319, Note_on_c, 9, 42, 0
1, 262320, Note_on_c, 9, 42, 21
1, 262559, Note_on_c, 9, 42, 0
1, 262560, Note_on_c, 9, 42, 127
1, 262799, Note_on_c, 9, 42, 0
1, 262800, Note_on_c, 9, 42, 21
1, 263039, Note_on_c, 9, 42, 0
1, 263040, Note_on_c, 9, 42, 126
1, 263279, Note_on_c, 9, 42, 0
1, 263280, Note_on_c, 9, 42, 21
1, 263519, Note_on_c, 9, 42, 0
1, 263520, Note_on_c, 9, 42, 127
1, 263759, Note_on_c, 9, 42, 0
1, 263760, Note_on_c, 9, 42, 21
1, 263999, Note_on_c, 9, 42, 0
1, 264000, Note_on_c, 9, 42, 127
1, 264239, Note_on_c, 9, 42, 0
1, 264240, Note_on_c, 9, 42, 21
1, 264479, Note_on_c, 9, 42, 0
1, 264480, Note_on_c, 9, 42, 127
1, 264719, Note_on_c, 9, 42, 0
1, 264720, Note_on_c, 9, 46, 44
1, 264959, Note_on_c, 9, 46, 0
1, 264960, Note_on_c, 9, 42, 126
1, 265199, Note_on_c, 9, 42, 0
1, 265200, Note_on_c, 9, 42, 21
1, 265439, Note_on_c, 9, 42, 0
1, 265440, Note_on_c, 9, 42, 127
1, 265679, Note_on_c, 9, 42, 0
1, 265680, Note_on_c, 9, 42, 21
1, 265919, Note_on_c, 9, 42, 0
1, 265920, Note_on_c, 9, 42, 127
1, 266159, Note_on_c, 9, 42, 0
1, 266160, Note_on_c, 9, 42, 21
1, 266399, Note_on_c, 9, 42, 0
1, 266400, Note_on_c, 9, 42, 127
1, 266639, Note_on_c, 9, 42, 0
1, 266640, Note_on_c, 9, 42, 21
1, 266879, Note_on_c, 9, 42, 0
1, 266880, Note_on_c, 9, 42, 126
1, 267119, Note_on_c, 9, 42, 0
1, 267120, Note_on_c, 9, 42, 21
1, 267359, Note_on_c, 9, 42, 0
1, 267360, Note_on_c, 9, 42, 127
1, 267599, Note_on_c, 9, 42, 0
1, 267600, Note_on_c, 9, 42, 21
1, 267839, Note_on_c, 9, 42, 0
1, 267840, Note_on_c, 9, 42, 127
1, 268079, Note_on_c, 9, 42, 0
1, 268080, Note_on_c, 9, 42, 21
1, 268319, Note_on_c, 9, 42, 0
1, 268320, Note_on_c, 9, 42, 127
1, 268559, Note_on_c, 9, 42, 0
1, 268560, Note_on_c, 9, 46, 44
1, 268799, Note_on_c, 9, 46, 0
1, 268800, Note_on_c, 9, 42, 126
1, 269039, Note_on_c, 9, 42, 0
1, 269040, Note_on_c, 9, 42, 21
1, 269279, Note_on_c, 9, 42, 0
1, 269280, Note_on_c, 9, 42, 127
1, 269519, Note_on_c, 9, 42, 0
1, 269520, Note_on_c, 9, 42, 21
1, 269759, Note_on_c, 9, 42, 0
1, 269760, Note_on_c, 9, 42, 127
1, 269999, Note_on_c, 9, 42, 0
1, 270000, Note_on_c, 9, 42, 21
1, 270239, Note_on_c, 9, 42, 0
1, 270240, Note_on_c, 9, 42, 127
1, 270479, Note_on_c, 9, 42, 0
1, 270480, Note_on_c, 9, 42, 21
1, 270719, Note_on_c, 9, 42, 0
1, 270720, Note_on_c, 9, 42, 126
1, 270959, Note_on_c, 9, 42, 0
1, 270960, Note_on_c, 9, 42, 21
1, 271199, Note_on_c, 9, 42, 0
1, 271200, Note_on_c, 9, 42, 127
1, 271439, Note_on_c, 9, 42, 0
1, 271440, Note_on_c, 9, 42, 21
1, 271679, Note_on_c, 9, 42, 0
1, 271680, Note_on_c, 9, 42, 127
1, 271919, Note_on_c, 9, 42, 0
1, 271920, Note_on_c, 9, 42, 21
1, 272159, Note_on_c, 9, 42, 0
1, 272160, Note_on_c, 9, 42, 127
1, 272399, Note_on_c, 9, 42, 0
1, 272400, Note_on_c, 9, 46, 44
1, 272639, Note_on_c, 9, 46, 0
1, 272640, Note_on_c, 9, 42, 126
1, 272879, Note_on_c, 9, 42, 0
1, 272880, Note_on_c, 9, 42, 21
1, 273119, Note_on_c, 9, 42, 0
1, 273120, Note_on_c, 9, 42, 127
1, 273359, Note_on_c, 9, 42, 0
1, 273360, Note_on_c, 9, 42, 21
1, 273599, Note_on_c, 9, 42, 0
1, 273600, Note_on_c, 9, 42, 127
1, 273839, Note_on_c, 9, 42, 0
1, 273840, Note_on_c, 9, 42, 21
1, 274079, Note_on_c, 9, 42, 0
1, 274080, Note_on_c, 9, 42, 127
1, 274319, Note_on_c, 9, 42, 0
1, 274320, Note_on_c, 9, 42, 21
1, 274559, Note_on_c, 9, 42, 0
1, 274560, Note_on_c, 9, 42, 126
1, 274799, Note_on_c, 9, 42, 0
1, 274800, Note_on_c, 9, 42, 21
1, 275039, Note_on_c, 9, 42, 0
1, 275040, Note_on_c, 9, 42, 127
1, 275279, Note_on_c, 9, 42, 0
1, 275280, Note_on_c, 9, 42, 21
1, 275519, Note_on_c, 9, 42, 0
1, 275520, Note_on_c, 9, 42, 127
1, 275759, Note_on_c, 9, 42, 0
1, 275760, Note_on_c, 9, 42, 21
1, 275999, Note_on_c, 9, 42, 0
1, 276000, Note_on_c, 9, 42, 127
1, 276239, Note_on_c, 9, 42, 0
1, 276240, Note_on_c, 9, 46, 44
1, 276479, Note_on_c, 9, 46, 0
1, 276480, Note_on_c, 9, 42, 126
1, 276719, Note_on_c, 9, 42, 0
1, 276720, Note_on_c, 9, 42, 21
1, 276959, Note_on_c, 9, 42, 0
1, 276960, Note_on_c, 9, 42, 127
1, 277199, Note_on_c, 9, 42, 0
1, 277200, Note_on_c, 9, 42, 21
1, 277439, Note_on_c, 9, 42, 0
1, 277440, Note_on_c, 9, 42, 127
1, 277679, Note_on_c, 9, 42, 0
1, 277680, Note_on_c, 9, 42, 21
1, 277919, Note_on_c, 9, 42, 0
1, 277920, Note_on_c, 9, 42, 127
1, 278159, Note_on_c, 9, 42, 0
1, 278160, Note_on_c, 9, 42, 21
1, 278399, Note_on_c, 9, 42, 0
1, 278400, Note_on_c, 9, 42, 126
1, 278639, Note_on_c, 9, 42, 0
1, 278640, Note_on_c, 9, 42, 21
1, 278879, Note_on_c, 9, 42, 0
1, 278880, Note_on_c, 9, 42, 127
1, 279119, Note_on_c, 9, 42, 0
1, 279120, Note_on_c, 9, 42, 21
1, 279359, Note_on_c, 9, 42, 0
1, 279360, Note_on_c, 9, 42, 127
1, 279599, Note_on_c, 9, 42, 0
1, 279600, Note_on_c, 9, 42, 21
1, 279839, Note_on_c, 9, 42, 0
1, 279840, Note_on_c, 9, 42, 127
1, 280079, Note_on_c, 9, 42, 0
1, 280080, Note_on_c, 9, 46, 44
1, 280319, Note_on_c, 9, 46, 0
1, 280320, Note_on_c, 9, 42, 126
1, 280559, Note_on_c, 9, 42, 0
1, 280560, Note_on_c, 9, 42, 21
1, 280799, Note_on_c, 9, 42, 0
1, 280800, Note_on_c, 9, 42, 127
1, 281039, Note_on_c, 9, 42, 0
1, 281040, Note_on_c, 9, 42, 21
1, 281279, Note_on_c, 9, 42, 0
1, 281280, Note_on_c, 9, 42, 127
1, 281519, Note_on_c, 9, 42, 0
1, 281520, Note_on_c, 9, 42, 21
1, 281759, Note_on_c, 9, 42, 0
1, 281760, Note_on_c, 9, 42, 127
1, 281999, Note_on_c, 9, 42, 0
1, 282000, Note_on_c, 9, 42, 21
1, 282239, Note_on_c, 9, 42, 0
1, 282240, Note_on_c, 9, 42, 126
1, 282479, Note_on_c, 9, 42, 0
1, 282480, Note_on_c, 9, 42, 21
1, 282719, Note_on_c, 9, 42, 0
1, 282720, Note_on_c, 9, 42, 127
1, 282959, Note_on_c, 9, 42, 0
1, 282960, Note_on_c, 9, 42, 21
1, 283199, Note_on_c, 9, 42, 0
1, 283200, Note_on_c, 9, 42, 127
1, 283439, Note_on_c, 9, 42, 0
1, 283440, Note_on_c, 9, 42, 21
1, 283679, Note_on_c, 9, 42, 0
1, 283680, Note_on_c, 9, 42, 127
1, 283919, Note_on_c, 9, 42, 0
1, 283920, Note_on_c, 9, 46, 44
1, 284159, Note_on_c, 9, 46, 0
1, 284160, Note_on_c, 9, 42, 126
1, 284399, Note_on_c, 9, 42, 0
1, 284400, Note_on_c, 9, 42, 21
1, 284639, Note_on_c, 9, 42, 0
1, 284640, Note_on_c, 9, 42, 127
1, 284879, Note_on_c, 9, 42, 0
1, 284880, Note_on_c, 9, 42, 21
1, 285119, Note_on_c, 9, 42, 0
1, 285120, Note_on_c, 9, 42, 127
1, 285359, Note_on_c, 9, 42, 0
1, 285360, Note_on_c, 9, 42, 21
1, 285599, Note_on_c, 9, 42, 0
1, 285600, Note_on_c, 9, 42, 127
1, 285839, Note_on_c, 9, 42, 0
1, 285840, Note_on_c, 9, 42, 21
1, 286079, Note_on_c, 9, 42, 0
1, 286080, Note_on_c, 9, 42, 126
1, 286319, Note_on_c, 9, 42, 0
1, 286320, Note_on_c, 9, 42, 20
1, 286559, Note_on_c, 9, 42, 0
1, 286560, Note_on_c, 9, 42, 121
1, 286799, Note_on_c, 9, 42, 0
1, 286800, Note_on_c, 9, 42, 19
1, 287039, Note_on_c, 9, 42, 0
1, 287040, Note_on_c, 9, 42, 115
1, 287279, Note_on_c, 9, 42, 0
1, 287280, Note_on_c, 9, 42, 18
1, 287519, Note_on_c, 9, 42, 0
1, 287520, Note_on_c, 9, 42, 109
1, 287759, Note_on_c, 9, 42, 0
1, 287760, Note_on_c, 9, 46, 36
1, 287999, Note_on_c, 9, 46, 0
1, 288000, Note_on_c, 9, 42, 102
1, 288239, Note_on_c, 9, 42, 0
1, 288240, Note_on_c, 9, 42, 16
1, 288479, Note_on_c, 9, 42, 0
1, 288480, Note_on_c, 9, 42, 96
1, 288719, Note_on_c, 9, 42, 0
1, 288720, Note_on_c, 9, 42, 15
1, 288959, Note_on_c, 9, 42, 0
1, 288960, Note_on_c, 9, 42, 91
1, 289199, Note_on_c, 9, 42, 0
1, 289200, Note_on_c, 9, 42, 14
1, 289439, Note_on_c, 9, 42, 0
1, 289440, Note_on_c, 9, 42, 85
1, 289679, Note_on_c, 9, 42, 0
1, 289680, Note_on_c, 9, 42, 13
1, 289919, Note_on_c, 9, 42, 0
1, 289920, Note_on_c, 9, 42, 78
1, 290159, Note_on_c, 9, 42, 0
1, 290160, Note_on_c, 9, 42, 12
1, 290399, Note_on_c, 9, 42, 0
1, 290400, Note_on_c, 9, 42, 72
1, 290639, Note_on_c, 9, 42, 0
1, 290640, Note_on_c, 9, 42, 11
1, 290879, Note_on_c, 9, 42, 0
1, 290880, Note_on_c, 9, 42, 66
1, 291119, Note_on_c, 9, 42, 0
1, 291120, Note_on_c, 9, 42, 10
1, 291359, Note_on_c, 9, 42, 0
1, 291360, Note_on_c, 9, 42, 60
1, 291599, Note_on_c, 9, 42, 0
1, 291600, Note_on_c, 9, 46, 19
1, 291839, Note_on_c, 9, 46, 0
1, 291840, Note_on_c, 9, 42, 54
1, 292079, Note_on_c, 9, 42, 0
1, 292080, Note_on_c, 9, 42, 8
1, 292319, Note_on_c, 9, 42, 0
1, 292320, Note_on_c, 9, 42, 48
1, 292559, Note_on_c, 9, 42, 0
1, 292560, Note_on_c, 9, 42, 7
1, 292799, Note_on_c, 9, 42, 0
1, 292800, Note_on_c, 9, 42, 41
1, 293039, Note_on_c, 9, 42, 0
1, 293040, Note_on_c, 9, 42, 6
1, 293279, Note_on_c, 9, 42, 0
1, 293280, Note_on_c, 9, 42, 35
1, 293519, Note_on_c, 9, 42, 0
1, 293520, Note_on_c, 9, 42, 5
1, 293759, Note_on_c, 9, 42, 0
1, 293760, Note_on_c, 9, 42, 28
1, 293999, Note_on_c, 9, 42, 0
1, 294000, Note_on_c, 9, 42, 4
1, 294239, Note_on_c, 9, 42, 0
1, 294240, Note_on_c, 9, 42, 24
1, 294479, Note_on_c, 9, 42, 0
1, 294480, Note_on_c, 9, 42, 3
1, 294719, Note_on_c, 9, 42, 0
1, 294720, Note_on_c, 9, 42, 17
1, 294959, Note_on_c, 9, 42, 0
1, 294960, Note_on_c, 9, 42, 2
1, 295199, Note_on_c, 9, 42, 0
1, 295200, Note_on_c, 9, 42, 11
1, 295439, Note_on_c, 9, 42, 0
1, 295440, Note_on_c, 9, 46, 3
1, 295679, Note_on_c, 9, 46, 0
1, 295680, End_track
2, 0, Start_track
2, 0, Key_signature, 0, "major"
2, 0, Control_c, 9, 121, 0
2, 0, Program_c, 9, 0
2, 0, Control_c, 9, 7, 100
2, 0, Control_c, 9, 10, 64
2, 0, Control_c, 9, 91, 0
2, 0, Control_c, 9, 93, 0
2, 0, MIDI_port, 0
2, 12000, Note_on_c, 9, 36, 92
2, 12239, Note_on_c, 9, 36, 0
2, 12240, Note_on_c, 9, 36, 98
2, 12479, Note_on_c, 9, 36, 0
2, 15840, Note_on_c, 9, 36, 92
2, 16079, Note_on_c, 9, 36, 0
2, 16080, Note_on_c, 9, 36, 100
2, 16319, Note_on_c, 9, 36, 0
2, 19680, Note_on_c, 9, 36, 101
2, 19919, Note_on_c, 9, 36, 0
2, 19920, Note_on_c, 9, 36, 104
2, 20159, Note_on_c, 9, 36, 0
2, 20160, Note_on_c, 9, 40, 105
2, 20639, Note_on_c, 9, 40, 0
2, 21600, Note_on_c, 9, 36, 98
2, 21839, Note_on_c, 9, 36, 0
2, 21840, Note_on_c, 9, 36, 87
2, 22079, Note_on_c, 9, 36, 0
2, 23520, Note_on_c, 9, 36, 94
2, 23759, Note_on_c, 9, 36, 0
2, 23760, Note_on_c, 9, 36, 88
2, 23999, Note_on_c, 9, 36, 0
2, 24000, Note_on_c, 9, 40, 105
2, 24479, Note_on_c, 9, 40, 0
2, 25440, Note_on_c, 9, 36, 97
2, 25679, Note_on_c, 9, 36, 0
2, 25680, Note_on_c, 9, 36, 91
2, 25919, Note_on_c, 9, 36, 0
2, 25920, Note_on_c, 9, 40, 105
2, 26399, Note_on_c, 9, 40, 0
2, 27360, Note_on_c, 9, 36, 98
2, 27599, Note_on_c, 9, 36, 0
2, 27600, Note_on_c, 9, 36, 86
2, 27839, Note_on_c, 9, 36, 0
2, 27840, Note_on_c, 9, 40, 105
2, 28319, Note_on_c, 9, 40, 0
2, 29280, Note_on_c, 9, 36, 100
2, 29519, Note_on_c, 9, 36, 0
2, 29520, Note_on_c, 9, 36, 94
2, 29759, Note_on_c, 9, 36, 0
2, 29760, Note_on_c, 9, 40, 105
2, 30239, Note_on_c, 9, 40, 0
2, 31200, Note_on_c, 9, 36, 100
2, 31439, Note_on_c, 9, 36, 0
2, 31440, Note_on_c, 9, 36, 88
2, 31679, Note_on_c, 9, 36, 0
2, 31680, Note_on_c, 9, 40, 105
2, 31680, Note_on_c, 9, 36, 88
2, 32159, Note_on_c, 9, 40, 0
2, 32159, Note_on_c, 9, 36, 0
2, 32160, Note_on_c, 9, 36, 88
2, 32639, Note_on_c, 9, 36, 0
2, 32640, Note_on_c, 9, 36, 84
2, 33119, Note_on_c, 9, 36, 0
2, 33120, Note_on_c, 9, 36, 88
2, 33599, Note_on_c, 9, 36, 0
2, 33600, Note_on_c, 9, 40, 105
2, 33600, Note_on_c, 9, 36, 89
2, 34079, Note_on_c, 9, 40, 0
2, 34079, Note_on_c, 9, 36, 0
2, 34080, Note_on_c, 9, 36, 83
2, 34559, Note_on_c, 9, 36, 0
2, 34560, Note_on_c, 9, 36, 40
2, 34799, Note_on_c, 9, 36, 0
2, 34800, Note_on_c, 9, 36, 73
2, 35039, Note_on_c, 9, 36, 0
2, 35040, Note_on_c, 9, 40, 101
2, 35519, Note_on_c, 9, 40, 0
2, 35520, Note_on_c, 9, 36, 87
2, 35759, Note_on_c, 9, 36, 0
2, 35760, Note_on_c, 9, 36, 81
2, 35999, Note_on_c, 9, 36, 0
2, 36000, Note_on_c, 9, 40, 96
2, 36479, Note_on_c, 9, 40, 0
2, 36480, Note_on_c, 9, 36, 40
2, 36719, Note_on_c, 9, 36, 0
2, 36720, Note_on_c, 9, 36, 73
2, 36959, Note_on_c, 9, 36, 0
2, 36960, Note_on_c, 9, 40, 101
2, 37439, Note_on_c, 9, 40, 0
2, 37440, Note_on_c, 9, 36, 87
2, 37679, Note_on_c, 9, 36, 0
2, 37680, Note_on_c, 9, 36, 81
2, 37919, Note_on_c, 9, 36, 0
2, 37920, Note_on_c, 9, 40, 96
2, 38399, Note_on_c, 9, 40, 0
2, 38400, Note_on_c, 9, 36, 40
2, 38639, Note_on_c, 9, 36, 0
2, 38640, Note_on_c, 9, 36, 73
2, 38879, Note_on_c, 9, 36, 0
2, 38880, Note_on_c, 9, 40, 101
2, 39359, Note_on_c, 9, 40, 0
2, 39360, Note_on_c, 9, 36, 87
2, 39599, Note_on_c, 9, 36, 0
2, 39600, Note_on_c, 9, 36, 81
2, 39839, Note_on_c, 9, 36, 0
2, 39840, Note_on_c, 9, 40, 96
2, 40319, Note_on_c, 9, 40, 0
2, 40320, Note_on_c, 9, 36, 40
2, 40559, Note_on_c, 9, 36, 0
2, 40560, Note_on_c, 9, 36, 73
2, 40799, Note_on_c, 9, 36, 0
2, 40800, Note_on_c, 9, 40, 101
2, 41279, Note_on_c, 9, 40, 0
2, 41280, Note_on_c, 9, 36, 87
2, 41519, Note_on_c, 9, 36, 0
2, 41520, Note_on_c, 9, 36, 81
2, 41759, Note_on_c, 9, 36, 0
2, 41760, Note_on_c, 9, 40, 96
2, 42239, Note_on_c, 9, 40, 0
2, 42240, Note_on_c, 9, 36, 40
2, 42479, Note_on_c, 9, 36, 0
2, 42480, Note_on_c, 9, 36, 73
2, 42719, Note_on_c, 9, 36, 0
2, 42720, Note_on_c, 9, 40, 101
2, 43199, Note_on_c, 9, 40, 0
2, 43200, Note_on_c, 9, 36, 87
2, 43439, Note_on_c, 9, 36, 0
2, 43440, Note_on_c, 9, 36, 81
2, 43679, Note_on_c, 9, 36, 0
2, 43680, Note_on_c, 9, 40, 96
2, 44159, Note_on_c, 9, 40, 0
2, 44160, Note_on_c, 9, 36, 40
2, 44399, Note_on_c, 9, 36, 0
2, 44400, Note_on_c, 9, 36, 73
2, 44639, Note_on_c, 9, 36, 0
2, 44640, Note_on_c, 9, 40, 101
2, 45119, Note_on_c, 9, 40, 0
2, 45120, Note_on_c, 9, 36, 87
2, 45359, Note_on_c, 9, 36, 0
2, 45360, Note_on_c, 9, 36, 81
2, 45599, Note_on_c, 9, 36, 0
2, 45600, Note_on_c, 9, 40, 96
2, 46079, Note_on_c, 9, 40, 0
2, 46080, Note_on_c, 9, 36, 40
2, 46319, Note_on_c, 9, 36, 0
2, 46320, Note_on_c, 9, 36, 73
2, 46559, Note_on_c, 9, 36, 0
2, 46560, Note_on_c, 9, 40, 101
2, 47039, Note_on_c, 9, 40, 0
2, 47040, Note_on_c, 9, 36, 87
2, 47279, Note_on_c, 9, 36, 0
2, 47280, Note_on_c, 9, 36, 81
2, 47519, Note_on_c, 9, 36, 0
2, 47520, Note_on_c, 9, 40, 96
2, 47999, Note_on_c, 9, 40, 0
2, 48000, Note_on_c, 9, 36, 91
2, 48239, Note_on_c, 9, 36, 0
2, 48240, Note_on_c, 9, 36, 73
2, 48479, Note_on_c, 9, 36, 0
2, 48480, Note_on_c, 9, 40, 101
2, 48959, Note_on_c, 9, 40, 0
2, 48960, Note_on_c, 9, 36, 87
2, 49199, Note_on_c, 9, 36, 0
2, 49200, Note_on_c, 9, 36, 81
2, 49320, Note_on_c, 9, 40, 66
2, 49439, Note_on_c, 9, 36, 0
2, 49439, Note_on_c, 9, 40, 0
2, 49440, Note_on_c, 9, 40, 70
2, 49679, Note_on_c, 9, 40, 0
2, 49680, Note_on_c, 9, 40, 81
2, 49919, Note_on_c, 9, 40, 0
2, 49920, Note_on_c, 9, 36, 40
2, 50159, Note_on_c, 9, 36, 0
2, 50160, Note_on_c, 9, 36, 73
2, 50399, Note_on_c, 9, 36, 0
2, 50400, Note_on_c, 9, 40, 101
2, 50879, Note_on_c, 9, 40, 0
2, 50880, Note_on_c, 9, 36, 87
2, 51119, Note_on_c, 9, 36, 0
2, 51120, Note_on_c, 9, 36, 81
2, 51359, Note_on_c, 9, 36, 0
2, 51360, Note_on_c, 9, 40, 96
2, 51839, Note_on_c, 9, 40, 0
2, 51840, Note_on_c, 9, 36, 40
2, 52079, Note_on_c, 9, 36, 0
2, 52080, Note_on_c, 9, 36, 73
2, 52319, Note_on_c, 9, 36, 0
2, 52320, Note_on_c, 9, 40, 101
2, 52799, Note_on_c, 9, 40, 0
2, 52800, Note_on_c, 9, 36, 87
2, 53039, Note_on_c, 9, 36, 0
2, 53040, Note_on_c, 9, 36, 81
2, 53279, Note_on_c, 9, 36, 0
2, 53280, Note_on_c, 9, 40, 96
2, 53759, Note_on_c, 9, 40, 0
2, 53760, Note_on_c, 9, 36, 40
2, 53999, Note_on_c, 9, 36, 0
2, 54000, Note_on_c, 9, 36, 73
2, 54239, Note_on_c, 9, 36, 0
2, 54240, Note_on_c, 9, 40, 101
2, 54719, Note_on_c, 9, 40, 0
2, 54720, Note_on_c, 9, 36, 87
2, 54959, Note_on_c, 9, 36, 0
2, 54960, Note_on_c, 9, 36, 81
2, 55199, Note_on_c, 9, 36, 0
2, 55200, Note_on_c, 9, 40, 96
2, 55679, Note_on_c, 9, 40, 0
2, 55680, Note_on_c, 9, 36, 40
2, 55919, Note_on_c, 9, 36, 0
2, 55920, Note_on_c, 9, 36, 73
2, 56159, Note_on_c, 9, 36, 0
2, 56160, Note_on_c, 9, 40, 101
2, 56639, Note_on_c, 9, 40, 0
2, 56640, Note_on_c, 9, 36, 87
2, 56879, Note_on_c, 9, 36, 0
2, 56880, Note_on_c, 9, 36, 81
2, 57119, Note_on_c, 9, 36, 0
2, 57120, Note_on_c, 9, 40, 96
2, 57599, Note_on_c, 9, 40, 0
2, 57600, Note_on_c, 9, 36, 40
2, 57839, Note_on_c, 9, 36, 0
2, 57840, Note_on_c, 9, 36, 73
2, 58079, Note_on_c, 9, 36, 0
2, 58080, Note_on_c, 9, 40, 101
2, 58559, Note_on_c, 9, 40, 0
2, 58560, Note_on_c, 9, 36, 87
2, 58799, Note_on_c, 9, 36, 0
2, 58800, Note_on_c, 9, 36, 81
2, 59039, Note_on_c, 9, 36, 0
2, 59040, Note_on_c, 9, 40, 96
2, 59519, Note_on_c, 9, 40, 0
2, 59520, Note_on_c, 9, 36, 40
2, 59759, Note_on_c, 9, 36, 0
2, 59760, Note_on_c, 9, 36, 73
2, 59999, Note_on_c, 9, 36, 0
2, 60000, Note_on_c, 9, 40, 101
2, 60479, Note_on_c, 9, 40, 0
2, 60480, Note_on_c, 9, 36, 87
2, 60719, Note_on_c, 9, 36, 0
2, 60720, Note_on_c, 9, 36, 81
2, 60959, Note_on_c, 9, 36, 0
2, 60960, Note_on_c, 9, 40, 96
2, 61439, Note_on_c, 9, 40, 0
2, 61440, Note_on_c, 9, 36, 40
2, 61679, Note_on_c, 9, 36, 0
2, 61680, Note_on_c, 9, 36, 73
2, 61919, Note_on_c, 9, 36, 0
2, 61920, Note_on_c, 9, 40, 101
2, 62399, Note_on_c, 9, 40, 0
2, 62400, Note_on_c, 9, 36, 87
2, 62639, Note_on_c, 9, 36, 0
2, 62640, Note_on_c, 9, 36, 81
2, 62879, Note_on_c, 9, 36, 0
2, 62880, Note_on_c, 9, 40, 96
2, 63359, Note_on_c, 9, 40, 0
2, 63360, Note_on_c, 9, 36, 40
2, 63599, Note_on_c, 9, 36, 0
2, 63600, Note_on_c, 9, 36, 73
2, 63839, Note_on_c, 9, 36, 0
2, 63840, Note_on_c, 9, 40, 101
2, 64319, Note_on_c, 9, 40, 0
2, 64320, Note_on_c, 9, 36, 87
2, 64559, Note_on_c, 9, 36, 0
2, 64560, Note_on_c, 9, 36, 81
2, 64799, Note_on_c, 9, 36, 0
2, 64800, Note_on_c, 9, 40, 96
2, 65279, Note_on_c, 9, 40, 0
2, 65280, Note_on_c, 9, 36, 40
2, 65519, Note_on_c, 9, 36, 0
2, 65520, Note_on_c, 9, 36, 73
2, 65759, Note_on_c, 9, 36, 0
2, 65760, Note_on_c, 9, 40, 101
2, 66239, Note_on_c, 9, 40, 0
2, 66240, Note_on_c, 9, 36, 87
2, 66479, Note_on_c, 9, 36, 0
2, 66480, Note_on_c, 9, 36, 81
2, 66719, Note_on_c, 9, 36, 0
2, 66720, Note_on_c, 9, 40, 96
2, 67199, Note_on_c, 9, 40, 0
2, 67200, Note_on_c, 9, 36, 40
2, 67439, Note_on_c, 9, 36, 0
2, 67440, Note_on_c, 9, 36, 73
2, 67679, Note_on_c, 9, 36, 0
2, 67680, Note_on_c, 9, 40, 101
2, 68159, Note_on_c, 9, 40, 0
2, 68160, Note_on_c, 9, 36, 87
2, 68399, Note_on_c, 9, 36, 0
2, 68400, Note_on_c, 9, 36, 81
2, 68639, Note_on_c, 9, 36, 0
2, 68640, Note_on_c, 9, 40, 96
2, 69119, Note_on_c, 9, 40, 0
2, 69120, Note_on_c, 9, 36, 40
2, 69359, Note_on_c, 9, 36, 0
2, 69360, Note_on_c, 9, 36, 73
2, 69599, Note_on_c, 9, 36, 0
2, 69600, Note_on_c, 9, 40, 101
2, 70079, Note_on_c, 9, 40, 0
2, 70080, Note_on_c, 9, 36, 87
2, 70319, Note_on_c, 9, 36, 0
2, 70320, Note_on_c, 9, 36, 81
2, 70559, Note_on_c, 9, 36, 0
2, 70560, Note_on_c, 9, 40, 96
2, 71039, Note_on_c, 9, 40, 0
2, 71040, Note_on_c, 9, 36, 40
2, 71279, Note_on_c, 9, 36, 0
2, 71280, Note_on_c, 9, 36, 73
2, 71519, Note_on_c, 9, 36, 0
2, 71520, Note_on_c, 9, 40, 101
2, 71999, Note_on_c, 9, 40, 0
2, 72000, Note_on_c, 9, 36, 87
2, 72239, Note_on_c, 9, 36, 0
2, 72240, Note_on_c, 9, 36, 81
2, 72479, Note_on_c, 9, 36, 0
2, 72480, Note_on_c, 9, 40, 96
2, 72959, Note_on_c, 9, 40, 0
2, 72960, Note_on_c, 9, 36, 40
2, 73199, Note_on_c, 9, 36, 0
2, 73200, Note_on_c, 9, 36, 73
2, 73439, Note_on_c, 9, 36, 0
2, 73440, Note_on_c, 9, 40, 101
2, 73919, Note_on_c, 9, 40, 0
2, 73920, Note_on_c, 9, 36, 87
2, 74159, Note_on_c, 9, 36, 0
2, 74160, Note_on_c, 9, 36, 81
2, 74399, Note_on_c, 9, 36, 0
2, 74400, Note_on_c, 9, 40, 96
2, 74879, Note_on_c, 9, 40, 0
2, 74880, Note_on_c, 9, 36, 40
2, 75119, Note_on_c, 9, 36, 0
2, 75120, Note_on_c, 9, 36, 73
2, 75359, Note_on_c, 9, 36, 0
2, 75360, Note_on_c, 9, 40, 101
2, 75839, Note_on_c, 9, 40, 0
2, 75840, Note_on_c, 9, 36, 87
2, 76079, Note_on_c, 9, 36, 0
2, 76080, Note_on_c, 9, 36, 81
2, 76319, Note_on_c, 9, 36, 0
2, 76320, Note_on_c, 9, 40, 96
2, 76799, Note_on_c, 9, 40, 0
2, 76800, Note_on_c, 9, 36, 40
2, 77039, Note_on_c, 9, 36, 0
2, 77040, Note_on_c, 9, 36, 73
2, 77279, Note_on_c, 9, 36, 0
2, 77280, Note_on_c, 9, 40, 101
2, 77759, Note_on_c, 9, 40, 0
2, 77760, Note_on_c, 9, 36, 87
2, 77999, Note_on_c, 9, 36, 0
2, 78000, Note_on_c, 9, 36, 81
2, 78239, Note_on_c, 9, 36, 0
2, 78240, Note_on_c, 9, 40, 96
2, 78719, Note_on_c, 9, 40, 0
2, 78720, Note_on_c, 9, 36, 40
2, 78959, Note_on_c, 9, 36, 0
2, 78960, Note_on_c, 9, 36, 73
2, 79199, Note_on_c, 9, 36, 0
2, 79200, Note_on_c, 9, 40, 101
2, 79679, Note_on_c, 9, 40, 0
2, 79680, Note_on_c, 9, 36, 87
2, 79919, Note_on_c, 9, 36, 0
2, 79920, Note_on_c, 9, 36, 81
2, 80159, Note_on_c, 9, 36, 0
2, 80160, Note_on_c, 9, 40, 96
2, 80639, Note_on_c, 9, 40, 0
2, 80640, Note_on_c, 9, 36, 40
2, 80879, Note_on_c, 9, 36, 0
2, 80880, Note_on_c, 9, 36, 73
2, 81119, Note_on_c, 9, 36, 0
2, 81120, Note_on_c, 9, 40, 101
2, 81599, Note_on_c, 9, 40, 0
2, 81600, Note_on_c, 9, 36, 87
2, 81839, Note_on_c, 9, 36, 0
2, 81840, Note_on_c, 9, 36, 81
2, 82079, Note_on_c, 9, 36, 0
2, 82080, Note_on_c, 9, 40, 96
2, 82559, Note_on_c, 9, 40, 0
2, 82560, Note_on_c, 9, 36, 40
2, 82799, Note_on_c, 9, 36, 0
2, 82800, Note_on_c, 9, 36, 73
2, 83039, Note_on_c, 9, 36, 0
2, 83040, Note_on_c, 9, 40, 101
2, 83519, Note_on_c, 9, 40, 0
2, 83520, Note_on_c, 9, 36, 87
2, 83759, Note_on_c, 9, 36, 0
2, 83760, Note_on_c, 9, 36, 81
2, 83999, Note_on_c, 9, 36, 0
2, 84000, Note_on_c, 9, 40, 96
2, 84479, Note_on_c, 9, 40, 0
2, 84480, Note_on_c, 9, 36, 40
2, 84719, Note_on_c, 9, 36, 0
2, 84720, Note_on_c, 9, 36, 73
2, 84959, Note_on_c, 9, 36, 0
2, 84960, Note_on_c, 9, 40, 101
2, 85439, Note_on_c, 9, 40, 0
2, 85440, Note_on_c, 9, 36, 87
2, 85679, Note_on_c, 9, 36, 0
2, 85680, Note_on_c, 9, 36, 81
2, 85919, Note_on_c, 9, 36, 0
2, 85920, Note_on_c, 9, 40, 96
2, 86399, Note_on_c, 9, 40, 0
2, 86400, Note_on_c, 9, 36, 40
2, 86639, Note_on_c, 9, 36, 0
2, 86640, Note_on_c, 9, 36, 73
2, 86879, Note_on_c, 9, 36, 0
2, 86880, Note_on_c, 9, 40, 101
2, 87359, Note_on_c, 9, 40, 0
2, 87360, Note_on_c, 9, 36, 87
2, 87599, Note_on_c, 9, 36, 0
2, 87600, Note_on_c, 9, 36, 81
2, 87839, Note_on_c, 9, 36, 0
2, 87840, Note_on_c, 9, 40, 96
2, 88319, Note_on_c, 9, 40, 0
2, 88320, Note_on_c, 9, 36, 40
2, 88559, Note_on_c, 9, 36, 0
2, 88560, Note_on_c, 9, 36, 73
2, 88799, Note_on_c, 9, 36, 0
2, 88800, Note_on_c, 9, 40, 101
2, 89279, Note_on_c, 9, 40, 0
2, 89280, Note_on_c, 9, 36, 87
2, 89519, Note_on_c, 9, 36, 0
2, 89520, Note_on_c, 9, 36, 81
2, 89759, Note_on_c, 9, 36, 0
2, 89760, Note_on_c, 9, 40, 96
2, 90239, Note_on_c, 9, 40, 0
2, 90240, Note_on_c, 9, 36, 40
2, 90479, Note_on_c, 9, 36, 0
2, 90480, Note_on_c, 9, 36, 73
2, 90719, Note_on_c, 9, 36, 0
2, 90720, Note_on_c, 9, 40, 101
2, 91199, Note_on_c, 9, 40, 0
2, 91200, Note_on_c, 9, 36, 87
2, 91439, Note_on_c, 9, 36, 0
2, 91440, Note_on_c, 9, 36, 81
2, 91679, Note_on_c, 9, 36, 0
2, 91680, Note_on_c, 9, 40, 96
2, 92159, Note_on_c, 9, 40, 0
2, 92160, Note_on_c, 9, 36, 40
2, 92399, Note_on_c, 9, 36, 0
2, 92400, Note_on_c, 9, 36, 73
2, 92639, Note_on_c, 9, 36, 0
2, 92640, Note_on_c, 9, 40, 101
2, 93119, Note_on_c, 9, 40, 0
2, 93120, Note_on_c, 9, 36, 87
2, 93359, Note_on_c, 9, 36, 0
2, 93360, Note_on_c, 9, 36, 81
2, 93599, Note_on_c, 9, 36, 0
2, 93600, Note_on_c, 9, 40, 96
2, 94079, Note_on_c, 9, 40, 0
2, 94080, Note_on_c, 9, 36, 40
2, 94319, Note_on_c, 9, 36, 0
2, 94320, Note_on_c, 9, 36, 73
2, 94559, Note_on_c, 9, 36, 0
2, 94560, Note_on_c, 9, 40, 101
2, 95039, Note_on_c, 9, 40, 0
2, 95040, Note_on_c, 9, 36, 87
2, 95279, Note_on_c, 9, 36, 0
2, 95280, Note_on_c, 9, 36, 81
2, 95519, Note_on_c, 9, 36, 0
2, 95520, Note_on_c, 9, 40, 96
2, 95999, Note_on_c, 9, 40, 0
2, 96000, Note_on_c, 9, 36, 40
2, 96239, Note_on_c, 9, 36, 0
2, 96240, Note_on_c, 9, 36, 73
2, 96479, Note_on_c, 9, 36, 0
2, 96480, Note_on_c, 9, 40, 101
2, 96959, Note_on_c, 9, 40, 0
2, 96960, Note_on_c, 9, 36, 87
2, 97199, Note_on_c, 9, 36, 0
2, 97200, Note_on_c, 9, 36, 81
2, 97439, Note_on_c, 9, 36, 0
2, 97440, Note_on_c, 9, 40, 96
2, 97919, Note_on_c, 9, 40, 0
2, 97920, Note_on_c, 9, 36, 40
2, 98159, Note_on_c, 9, 36, 0
2, 98160, Note_on_c, 9, 36, 73
2, 98399, Note_on_c, 9, 36, 0
2, 98400, Note_on_c, 9, 40, 101
2, 98879, Note_on_c, 9, 40, 0
2, 98880, Note_on_c, 9, 36, 87
2, 99119, Note_on_c, 9, 36, 0
2, 99120, Note_on_c, 9, 36, 81
2, 99359, Note_on_c, 9, 36, 0
2, 99360, Note_on_c, 9, 40, 96
2, 99839, Note_on_c, 9, 40, 0
2, 99840, Note_on_c, 9, 36, 40
2, 100079, Note_on_c, 9, 36, 0
2, 100080, Note_on_c, 9, 36, 73
2, 100319, Note_on_c, 9, 36, 0
2, 100320, Note_on_c, 9, 40, 101
2, 100799, Note_on_c, 9, 40, 0
2, 100800, Note_on_c, 9, 36, 87
2, 101039, Note_on_c, 9, 36, 0
2, 101040, Note_on_c, 9, 36, 81
2, 101279, Note_on_c, 9, 36, 0
2, 101280, Note_on_c, 9, 40, 96
2, 101759, Note_on_c, 9, 40, 0
2, 101760, Note_on_c, 9, 36, 91
2, 101999, Note_on_c, 9, 36, 0
2, 102000, Note_on_c, 9, 36, 73
2, 102239, Note_on_c, 9, 36, 0
2, 102240, Note_on_c, 9, 40, 101
2, 102719, Note_on_c, 9, 40, 0
2, 102720, Note_on_c, 9, 36, 87
2, 102959, Note_on_c, 9, 36, 0
2, 102960, Note_on_c, 9, 36, 81
2, 103080, Note_on_c, 9, 40, 66
2, 103199, Note_on_c, 9, 36, 0
2, 103199, Note_on_c, 9, 40, 0
2, 103200, Note_on_c, 9, 40, 70
2, 103439, Note_on_c, 9, 40, 0
2, 103440, Note_on_c, 9, 40, 81
2, 103679, Note_on_c, 9, 40, 0
2, 103680, Note_on_c, 9, 36, 40
2, 103919, Note_on_c, 9, 36, 0
2, 103920, Note_on_c, 9, 36, 73
2, 104159, Note_on_c, 9, 36, 0
2, 104160, Note_on_c, 9, 40, 101
2, 104639, Note_on_c, 9, 40, 0
2, 104640, Note_on_c, 9, 36, 87
2, 104879, Note_on_c, 9, 36, 0
2, 104880, Note_on_c, 9, 36, 81
2, 105119, Note_on_c, 9, 36, 0
2, 105120, Note_on_c, 9, 40, 96
2, 105599, Note_on_c, 9, 40, 0
2, 105600, Note_on_c, 9, 36, 40
2, 105839, Note_on_c, 9, 36, 0
2, 105840, Note_on_c, 9, 36, 73
2, 106079, Note_on_c, 9, 36, 0
2, 106080, Note_on_c, 9, 40, 101
2, 106559, Note_on_c, 9, 40, 0
2, 106560, Note_on_c, 9, 36, 87
2, 106799, Note_on_c, 9, 36, 0
2, 106800, Note_on_c, 9, 36, 81
2, 107039, Note_on_c, 9, 36, 0
2, 107040, Note_on_c, 9, 40, 96
2, 107519, Note_on_c, 9, 40, 0
2, 107520, Note_on_c, 9, 36, 40
2, 107759, Note_on_c, 9, 36, 0
2, 107760, Note_on_c, 9, 36, 73
2, 107999, Note_on_c, 9, 36, 0
2, 108000, Note_on_c, 9, 40, 101
2, 108479, Note_on_c, 9, 40, 0
2, 108480, Note_on_c, 9, 36, 87
2, 108719, Note_on_c, 9, 36, 0
2, 108720, Note_on_c, 9, 36, 81
2, 108959, Note_on_c, 9, 36, 0
2, 108960, Note_on_c, 9, 40, 96
2, 109439, Note_on_c, 9, 40, 0
2, 109440, Note_on_c, 9, 36, 40
2, 109679, Note_on_c, 9, 36, 0
2, 109680, Note_on_c, 9, 36, 73
2, 109919, Note_on_c, 9, 36, 0
2, 109920, Note_on_c, 9, 40, 101
2, 110399, Note_on_c, 9, 40, 0
2, 110400, Note_on_c, 9, 36, 87
2, 110639, Note_on_c, 9, 36, 0
2, 110640, Note_on_c, 9, 36, 81
2, 110879, Note_on_c, 9, 36, 0
2, 110880, Note_on_c, 9, 40, 96
2, 111359, Note_on_c, 9, 40, 0
2, 111360, Note_on_c, 9, 36, 40
2, 111599, Note_on_c, 9, 36, 0
2, 111600, Note_on_c, 9, 36, 73
2, 111839, Note_on_c, 9, 36, 0
2, 111840, Note_on_c, 9, 40, 101
2, 112319, Note_on_c, 9, 40, 0
2, 112320, Note_on_c, 9, 36, 87
2, 112559, Note_on_c, 9, 36, 0
2, 112560, Note_on_c, 9, 36, 81
2, 112799, Note_on_c, 9, 36, 0
2, 112800, Note_on_c, 9, 40, 96
2, 113279, Note_on_c, 9, 40, 0
2, 113280, Note_on_c, 9, 36, 40
2, 113519, Note_on_c, 9, 36, 0
2, 113520, Note_on_c, 9, 36, 73
2, 113759, Note_on_c, 9, 36, 0
2, 113760, Note_on_c, 9, 40, 101
2, 114239, Note_on_c, 9, 40, 0
2, 114240, Note_on_c, 9, 36, 87
2, 114479, Note_on_c, 9, 36, 0
2, 114480, Note_on_c, 9, 36, 81
2, 114719, Note_on_c, 9, 36, 0
2, 114720, Note_on_c, 9, 40, 96
2, 115199, Note_on_c, 9, 40, 0
2, 115200, Note_on_c, 9, 36, 40
2, 115439, Note_on_c, 9, 36, 0
2, 115440, Note_on_c, 9, 36, 73
2, 115679, Note_on_c, 9, 36, 0
2, 115680, Note_on_c, 9, 40, 101
2, 116159, Note_on_c, 9, 40, 0
2, 116160, Note_on_c, 9, 36, 87
2, 116399, Note_on_c, 9, 36, 0
2, 116400, Note_on_c, 9, 36, 81
2, 116639, Note_on_c, 9, 36, 0
2, 116640, Note_on_c, 9, 40, 96
2, 117119, Note_on_c, 9, 40, 0
2, 117120, Note_on_c, 9, 36, 40
2, 117359, Note_on_c, 9, 36, 0
2, 117360, Note_on_c, 9, 36, 73
2, 117599, Note_on_c, 9, 36, 0
2, 117600, Note_on_c, 9, 40, 101
2, 118079, Note_on_c, 9, 40, 0
2, 118080, Note_on_c, 9, 36, 87
2, 118319, Note_on_c, 9, 36, 0
2, 118320, Note_on_c, 9, 36, 81
2, 118559, Note_on_c, 9, 36, 0
2, 118560, Note_on_c, 9, 40, 96
2, 119039, Note_on_c, 9, 40, 0
2, 119040, Note_on_c, 9, 36, 40
2, 119279, Note_on_c, 9, 36, 0
2, 119280, Note_on_c, 9, 36, 73
2, 119519, Note_on_c, 9, 36, 0
2, 119520, Note_on_c, 9, 40, 101
2, 119999, Note_on_c, 9, 40, 0
2, 120000, Note_on_c, 9, 36, 87
2, 120239, Note_on_c, 9, 36, 0
2, 120240, Note_on_c, 9, 36, 81
2, 120479, Note_on_c, 9, 36, 0
2, 120480, Note_on_c, 9, 40, 96
2, 120959, Note_on_c, 9, 40, 0
2, 120960, Note_on_c, 9, 36, 40
2, 121199, Note_on_c, 9, 36, 0
2, 121200, Note_on_c, 9, 36, 73
2, 121439, Note_on_c, 9, 36, 0
2, 121440, Note_on_c, 9, 40, 101
2, 121919, Note_on_c, 9, 40, 0
2, 121920, Note_on_c, 9, 36, 87
2, 122159, Note_on_c, 9, 36, 0
2, 122160, Note_on_c, 9, 36, 81
2, 122399, Note_on_c, 9, 36, 0
2, 122400, Note_on_c, 9, 40, 96
2, 122879, Note_on_c, 9, 40, 0
2, 122880, Note_on_c, 9, 36, 40
2, 123119, Note_on_c, 9, 36, 0
2, 123120, Note_on_c, 9, 36, 73
2, 123359, Note_on_c, 9, 36, 0
2, 123360, Note_on_c, 9, 40, 101
2, 123839, Note_on_c, 9, 40, 0
2, 123840, Note_on_c, 9, 36, 87
2, 124079, Note_on_c, 9, 36, 0
2, 124080, Note_on_c, 9, 36, 81
2, 124319, Note_on_c, 9, 36, 0
2, 124320, Note_on_c, 9, 40, 96
2, 124799, Note_on_c, 9, 40, 0
2, 124800, Note_on_c, 9, 36, 40
2, 125039, Note_on_c, 9, 36, 0
2, 125040, Note_on_c, 9, 36, 73
2, 125279, Note_on_c, 9, 36, 0
2, 125280, Note_on_c, 9, 40, 101
2, 125759, Note_on_c, 9, 40, 0
2, 125760, Note_on_c, 9, 36, 87
2, 125999, Note_on_c, 9, 36, 0
2, 126000, Note_on_c, 9, 36, 81
2, 126239, Note_on_c, 9, 36, 0
2, 126240, Note_on_c, 9, 40, 96
2, 126719, Note_on_c, 9, 40, 0
2, 126720, Note_on_c, 9, 36, 40
2, 126959, Note_on_c, 9, 36, 0
2, 126960, Note_on_c, 9, 36, 73
2, 127199, Note_on_c, 9, 36, 0
2, 127200, Note_on_c, 9, 40, 101
2, 127679, Note_on_c, 9, 40, 0
2, 127680, Note_on_c, 9, 36, 87
2, 127919, Note_on_c, 9, 36, 0
2, 127920, Note_on_c, 9, 36, 81
2, 128159, Note_on_c, 9, 36, 0
2, 128160, Note_on_c, 9, 40, 96
2, 128639, Note_on_c, 9, 40, 0
2, 128640, Note_on_c, 9, 36, 40
2, 128879, Note_on_c, 9, 36, 0
2, 128880, Note_on_c, 9, 36, 73
2, 129119, Note_on_c, 9, 36, 0
2, 129120, Note_on_c, 9, 40, 101
2, 129599, Note_on_c, 9, 40, 0
2, 129600, Note_on_c, 9, 36, 87
2, 129839, Note_on_c, 9, 36, 0
2, 129840, Note_on_c, 9, 36, 81
2, 130079, Note_on_c, 9, 36, 0
2, 130080, Note_on_c, 9, 40, 96
2, 130559, Note_on_c, 9, 40, 0
2, 130560, Note_on_c, 9, 36, 40
2, 130799, Note_on_c, 9, 36, 0
2, 130800, Note_on_c, 9, 36, 73
2, 131039, Note_on_c, 9, 36, 0
2, 131040, Note_on_c, 9, 40, 101
2, 131519, Note_on_c, 9, 40, 0
2, 131520, Note_on_c, 9, 36, 87
2, 131759, Note_on_c, 9, 36, 0
2, 131760, Note_on_c, 9, 36, 81
2, 131999, Note_on_c, 9, 36, 0
2, 132000, Note_on_c, 9, 40, 96
2, 132479, Note_on_c, 9, 40, 0
2, 132480, Note_on_c, 9, 36, 40
2, 132719, Note_on_c, 9, 36, 0
2, 132720, Note_on_c, 9, 36, 73
2, 132959, Note_on_c, 9, 36, 0
2, 132960, Note_on_c, 9, 40, 101
2, 133439, Note_on_c, 9, 40, 0
2, 133440, Note_on_c, 9, 36, 87
2, 133679, Note_on_c, 9, 36, 0
2, 133680, Note_on_c, 9, 36, 81
2, 133919, Note_on_c, 9, 36, 0
2, 133920, Note_on_c, 9, 40, 96
2, 134399, Note_on_c, 9, 40, 0
2, 134400, Note_on_c, 9, 36, 40
2, 134639, Note_on_c, 9, 36, 0
2, 134640, Note_on_c, 9, 36, 73
2, 134879, Note_on_c, 9, 36, 0
2, 134880, Note_on_c, 9, 40, 101
2, 135359, Note_on_c, 9, 40, 0
2, 135360, Note_on_c, 9, 36, 87
2, 135599, Note_on_c, 9, 36, 0
2, 135600, Note_on_c, 9, 36, 81
2, 135839, Note_on_c, 9, 36, 0
2, 135840, Note_on_c, 9, 40, 96
2, 136319, Note_on_c, 9, 40, 0
2, 136320, Note_on_c, 9, 36, 40
2, 136559, Note_on_c, 9, 36, 0
2, 136560, Note_on_c, 9, 36, 73
2, 136799, Note_on_c, 9, 36, 0
2, 136800, Note_on_c, 9, 40, 101
2, 137279, Note_on_c, 9, 40, 0
2, 137280, Note_on_c, 9, 36, 87
2, 137519, Note_on_c, 9, 36, 0
2, 137520, Note_on_c, 9, 36, 81
2, 137759, Note_on_c, 9, 36, 0
2, 137760, Note_on_c, 9, 40, 96
2, 138239, Note_on_c, 9, 40, 0
2, 138240, Note_on_c, 9, 36, 40
2, 138479, Note_on_c, 9, 36, 0
2, 138480, Note_on_c, 9, 36, 73
2, 138719, Note_on_c, 9, 36, 0
2, 138720, Note_on_c, 9, 40, 101
2, 139199, Note_on_c, 9, 40, 0
2, 139200, Note_on_c, 9, 36, 87
2, 139439, Note_on_c, 9, 36, 0
2, 139440, Note_on_c, 9, 36, 81
2, 139679, Note_on_c, 9, 36, 0
2, 139680, Note_on_c, 9, 40, 96
2, 140159, Note_on_c, 9, 40, 0
2, 140160, Note_on_c, 9, 36, 40
2, 140399, Note_on_c, 9, 36, 0
2, 140400, Note_on_c, 9, 36, 73
2, 140639, Note_on_c, 9, 36, 0
2, 140640, Note_on_c, 9, 40, 101
2, 141119, Note_on_c, 9, 40, 0
2, 141120, Note_on_c, 9, 36, 87
2, 141359, Note_on_c, 9, 36, 0
2, 141360, Note_on_c, 9, 36, 81
2, 141599, Note_on_c, 9, 36, 0
2, 141600, Note_on_c, 9, 40, 96
2, 142079, Note_on_c, 9, 40, 0
2, 142080, Note_on_c, 9, 36, 40
2, 142319, Note_on_c, 9, 36, 0
2, 142320, Note_on_c, 9, 36, 73
2, 142559, Note_on_c, 9, 36, 0
2, 142560, Note_on_c, 9, 40, 101
2, 143039, Note_on_c, 9, 40, 0
2, 143040, Note_on_c, 9, 36, 87
2, 143279, Note_on_c, 9, 36, 0
2, 143280, Note_on_c, 9, 36, 81
2, 143519, Note_on_c, 9, 36, 0
2, 143520, Note_on_c, 9, 40, 96
2, 143999, Note_on_c, 9, 40, 0
2, 144000, Note_on_c, 9, 36, 40
2, 144239, Note_on_c, 9, 36, 0
2, 144240, Note_on_c, 9, 36, 73
2, 144479, Note_on_c, 9, 36, 0
2, 144480, Note_on_c, 9, 40, 101
2, 144959, Note_on_c, 9, 40, 0
2, 144960, Note_on_c, 9, 36, 87
2, 145199, Note_on_c, 9, 36, 0
2, 145200, Note_on_c, 9, 36, 81
2, 145439, Note_on_c, 9, 36, 0
2, 145440, Note_on_c, 9, 40, 96
2, 145919, Note_on_c, 9, 40, 0
2, 145920, Note_on_c, 9, 36, 40
2, 146159, Note_on_c, 9, 36, 0
2, 146160, Note_on_c, 9, 36, 73
2, 146399, Note_on_c, 9, 36, 0
2, 146400, Note_on_c, 9, 40, 101
2, 146879, Note_on_c, 9, 40, 0
2, 146880, Note_on_c, 9, 36, 87
2, 147119, Note_on_c, 9, 36, 0
2, 147120, Note_on_c, 9, 36, 81
2, 147359, Note_on_c, 9, 36, 0
2, 147360, Note_on_c, 9, 40, 96
2, 147839, Note_on_c, 9, 40, 0
2, 147840, Note_on_c, 9, 36, 40
2, 148079, Note_on_c, 9, 36, 0
2, 148080, Note_on_c, 9, 36, 73
2, 148319, Note_on_c, 9, 36, 0
2, 148320, Note_on_c, 9, 40, 101
2, 148799, Note_on_c, 9, 40, 0
2, 148800, Note_on_c, 9, 36, 87
2, 149039, Note_on_c, 9, 36, 0
2, 149040, Note_on_c, 9, 36, 81
2, 149279, Note_on_c, 9, 36, 0
2, 149280, Note_on_c, 9, 40, 96
2, 149759, Note_on_c, 9, 40, 0
2, 149760, Note_on_c, 9, 36, 40
2, 149999, Note_on_c, 9, 36, 0
2, 150000, Note_on_c, 9, 36, 73
2, 150239, Note_on_c, 9, 36, 0
2, 150240, Note_on_c, 9, 40, 101
2, 150719, Note_on_c, 9, 40, 0
2, 150720, Note_on_c, 9, 36, 87
2, 150959, Note_on_c, 9, 36, 0
2, 150960, Note_on_c, 9, 36, 81
2, 151199, Note_on_c, 9, 36, 0
2, 151200, Note_on_c, 9, 40, 96
2, 151679, Note_on_c, 9, 40, 0
2, 151680, Note_on_c, 9, 36, 40
2, 151919, Note_on_c, 9, 36, 0
2, 151920, Note_on_c, 9, 36, 73
2, 152159, Note_on_c, 9, 36, 0
2, 152160, Note_on_c, 9, 40, 101
2, 152639, Note_on_c, 9, 40, 0
2, 152640, Note_on_c, 9, 36, 87
2, 152879, Note_on_c, 9, 36, 0
2, 152880, Note_on_c, 9, 36, 81
2, 153119, Note_on_c, 9, 36, 0
2, 153120, Note_on_c, 9, 40, 96
2, 153599, Note_on_c, 9, 40, 0
2, 153600, Note_on_c, 9, 36, 40
2, 153839, Note_on_c, 9, 36, 0
2, 153840, Note_on_c, 9, 36, 73
2, 154079, Note_on_c, 9, 36, 0
2, 154080, Note_on_c, 9, 40, 101
2, 154559, Note_on_c, 9, 40, 0
2, 154560, Note_on_c, 9, 36, 87
2, 154799, Note_on_c, 9, 36, 0
2, 154800, Note_on_c, 9, 36, 81
2, 155039, Note_on_c, 9, 36, 0
2, 155040, Note_on_c, 9, 40, 96
2, 155519, Note_on_c, 9, 40, 0
2, 155520, Note_on_c, 9, 36, 40
2, 155759, Note_on_c, 9, 36, 0
2, 155760, Note_on_c, 9, 36, 73
2, 155999, Note_on_c, 9, 36, 0
2, 156000, Note_on_c, 9, 40, 101
2, 156479, Note_on_c, 9, 40, 0
2, 156480, Note_on_c, 9, 36, 87
2, 156719, Note_on_c, 9, 36, 0
2, 156720, Note_on_c, 9, 36, 81
2, 156959, Note_on_c, 9, 36, 0
2, 156960, Note_on_c, 9, 40, 96
2, 157439, Note_on_c, 9, 40, 0
2, 157440, Note_on_c, 9, 36, 40
2, 157679, Note_on_c, 9, 36, 0
2, 157680, Note_on_c, 9, 36, 73
2, 157919, Note_on_c, 9, 36, 0
2, 157920, Note_on_c, 9, 40, 101
2, 158399, Note_on_c, 9, 40, 0
2, 158400, Note_on_c, 9, 36, 87
2, 158639, Note_on_c, 9, 36, 0
2, 158640, Note_on_c, 9, 36, 81
2, 158879, Note_on_c, 9, 36, 0
2, 158880, Note_on_c, 9, 40, 96
2, 159359, Note_on_c, 9, 40, 0
2, 159360, Note_on_c, 9, 36, 91
2, 159599, Note_on_c, 9, 36, 0
2, 159600, Note_on_c, 9, 36, 73
2, 159839, Note_on_c, 9, 36, 0
2, 159840, Note_on_c, 9, 40, 101
2, 160319, Note_on_c, 9, 40, 0
2, 160320, Note_on_c, 9, 36, 87
2, 160559, Note_on_c, 9, 36, 0
2, 160560, Note_on_c, 9, 36, 81
2, 160680, Note_on_c, 9, 40, 66
2, 160799, Note_on_c, 9, 36, 0
2, 160799, Note_on_c, 9, 40, 0
2, 160800, Note_on_c, 9, 40, 70
2, 161039, Note_on_c, 9, 40, 0
2, 161040, Note_on_c, 9, 40, 81
2, 161279, Note_on_c, 9, 40, 0
2, 161280, Note_on_c, 9, 36, 40
2, 161519, Note_on_c, 9, 36, 0
2, 161520, Note_on_c, 9, 36, 73
2, 161759, Note_on_c, 9, 36, 0
2, 161760, Note_on_c, 9, 40, 101
2, 162239, Note_on_c, 9, 40, 0
2, 162240, Note_on_c, 9, 36, 87
2, 162479, Note_on_c, 9, 36, 0
2, 162480, Note_on_c, 9, 36, 81
2, 162719, Note_on_c, 9, 36, 0
2, 162720, Note_on_c, 9, 40, 96
2, 163199, Note_on_c, 9, 40, 0
2, 163200, Note_on_c, 9, 36, 40
2, 163439, Note_on_c, 9, 36, 0
2, 163440, Note_on_c, 9, 36, 73
2, 163679, Note_on_c, 9, 36, 0
2, 163680, Note_on_c, 9, 40, 101
2, 164159, Note_on_c, 9, 40, 0
2, 164160, Note_on_c, 9, 36, 87
2, 164399, Note_on_c, 9, 36, 0
2, 164400, Note_on_c, 9, 36, 81
2, 164639, Note_on_c, 9, 36, 0
2, 164640, Note_on_c, 9, 40, 96
2, 165119, Note_on_c, 9, 40, 0
2, 165120, Note_on_c, 9, 36, 40
2, 165359, Note_on_c, 9, 36, 0
2, 165360, Note_on_c, 9, 36, 73
2, 165599, Note_on_c, 9, 36, 0
2, 165600, Note_on_c, 9, 40, 101
2, 166079, Note_on_c, 9, 40, 0
2, 166080, Note_on_c, 9, 36, 87
2, 166319, Note_on_c, 9, 36, 0
2, 166320, Note_on_c, 9, 36, 81
2, 166559, Note_on_c, 9, 36, 0
2, 166560, Note_on_c, 9, 40, 96
2, 167039, Note_on_c, 9, 40, 0
2, 167040, Note_on_c, 9, 36, 40
2, 167279, Note_on_c, 9, 36, 0
2, 167280, Note_on_c, 9, 36, 73
2, 167519, Note_on_c, 9, 36, 0
2, 167520, Note_on_c, 9, 40, 101
2, 167999, Note_on_c, 9, 40, 0
2, 168000, Note_on_c, 9, 36, 87
2, 168239, Note_on_c, 9, 36, 0
2, 168240, Note_on_c, 9, 36, 81
2, 168479, Note_on_c, 9, 36, 0
2, 168480, Note_on_c, 9, 40, 96
2, 168959, Note_on_c, 9, 40, 0
2, 168960, Note_on_c, 9, 36, 40
2, 169199, Note_on_c, 9, 36, 0
2, 169200, Note_on_c, 9, 36, 73
2, 169439, Note_on_c, 9, 36, 0
2, 169440, Note_on_c, 9, 40, 101
2, 169919, Note_on_c, 9, 40, 0
2, 169920, Note_on_c, 9, 36, 87
2, 170159, Note_on_c, 9, 36, 0
2, 170160, Note_on_c, 9, 36, 81
2, 170399, Note_on_c, 9, 36, 0
2, 170400, Note_on_c, 9, 40, 96
2, 170879, Note_on_c, 9, 40, 0
2, 170880, Note_on_c, 9, 36, 40
2, 171119, Note_on_c, 9, 36, 0
2, 171120, Note_on_c, 9, 36, 73
2, 171359, Note_on_c, 9, 36, 0
2, 171360, Note_on_c, 9, 40, 101
2, 171839, Note_on_c, 9, 40, 0
2, 171840, Note_on_c, 9, 36, 87
2, 172079, Note_on_c, 9, 36, 0
2, 172080, Note_on_c, 9, 36, 81
2, 172319, Note_on_c, 9, 36, 0
2, 172320, Note_on_c, 9, 40, 96
2, 172799, Note_on_c, 9, 40, 0
2, 172800, Note_on_c, 9, 36, 40
2, 173039, Note_on_c, 9, 36, 0
2, 173040, Note_on_c, 9, 36, 73
2, 173279, Note_on_c, 9, 36, 0
2, 173280, Note_on_c, 9, 40, 101
2, 173759, Note_on_c, 9, 40, 0
2, 173760, Note_on_c, 9, 36, 87
2, 173999, Note_on_c, 9, 36, 0
2, 174000, Note_on_c, 9, 36, 81
2, 174239, Note_on_c, 9, 36, 0
2, 174240, Note_on_c, 9, 40, 96
2, 174719, Note_on_c, 9, 40, 0
2, 174720, Note_on_c, 9, 36, 40
2, 174959, Note_on_c, 9, 36, 0
2, 174960, Note_on_c, 9, 36, 73
2, 175199, Note_on_c, 9, 36, 0
2, 175200, Note_on_c, 9, 40, 101
2, 175679, Note_on_c, 9, 40, 0
2, 175680, Note_on_c, 9, 36, 87
2, 175919, Note_on_c, 9, 36, 0
2, 175920, Note_on_c, 9, 36, 81
2, 176159, Note_on_c, 9, 36, 0
2, 176160, Note_on_c, 9, 40, 96
2, 176639, Note_on_c, 9, 40, 0
2, 176640, Note_on_c, 9, 36, 40
2, 176879, Note_on_c, 9, 36, 0
2, 176880, Note_on_c, 9, 36, 73
2, 177119, Note_on_c, 9, 36, 0
2, 177120, Note_on_c, 9, 40, 101
2, 177599, Note_on_c, 9, 40, 0
2, 177600, Note_on_c, 9, 36, 87
2, 177839, Note_on_c, 9, 36, 0
2, 177840, Note_on_c, 9, 36, 81
2, 178079, Note_on_c, 9, 36, 0
2, 178080, Note_on_c, 9, 40, 96
2, 178559, Note_on_c, 9, 40, 0
2, 178560, Note_on_c, 9, 36, 40
2, 178799, Note_on_c, 9, 36, 0
2, 178800, Note_on_c, 9, 36, 73
2, 179039, Note_on_c, 9, 36, 0
2, 179040, Note_on_c, 9, 40, 101
2, 179519, Note_on_c, 9, 40, 0
2, 179520, Note_on_c, 9, 36, 87
2, 179759, Note_on_c, 9, 36, 0
2, 179760, Note_on_c, 9, 36, 81
2, 179999, Note_on_c, 9, 36, 0
2, 180000, Note_on_c, 9, 40, 96
2, 180479, Note_on_c, 9, 40, 0
2, 180480, Note_on_c, 9, 36, 40
2, 180719, Note_on_c, 9, 36, 0
2, 180720, Note_on_c, 9, 36, 73
2, 180959, Note_on_c, 9, 36, 0
2, 180960, Note_on_c, 9, 40, 101
2, 181439, Note_on_c, 9, 40, 0
2, 181440, Note_on_c, 9, 36, 87
2, 181679, Note_on_c, 9, 36, 0
2, 181680, Note_on_c, 9, 36, 81
2, 181919, Note_on_c, 9, 36, 0
2, 181920, Note_on_c, 9, 40, 96
2, 182399, Note_on_c, 9, 40, 0
2, 182400, Note_on_c, 9, 36, 40
2, 182639, Note_on_c, 9, 36, 0
2, 182640, Note_on_c, 9, 36, 73
2, 182879, Note_on_c, 9, 36, 0
2, 182880, Note_on_c, 9, 40, 101
2, 183359, Note_on_c, 9, 40, 0
2, 183360, Note_on_c, 9, 36, 87
2, 183599, Note_on_c, 9, 36, 0
2, 183600, Note_on_c, 9, 36, 81
2, 183839, Note_on_c, 9, 36, 0
2, 183840, Note_on_c, 9, 40, 96
2, 184319, Note_on_c, 9, 40, 0
2, 184320, Note_on_c, 9, 36, 40
2, 184559, Note_on_c, 9, 36, 0
2, 184560, Note_on_c, 9, 36, 73
2, 184799, Note_on_c, 9, 36, 0
2, 184800, Note_on_c, 9, 40, 101
2, 185279, Note_on_c, 9, 40, 0
2, 185280, Note_on_c, 9, 36, 87
2, 185519, Note_on_c, 9, 36, 0
2, 185520, Note_on_c, 9, 36, 81
2, 185759, Note_on_c, 9, 36, 0
2, 185760, Note_on_c, 9, 40, 96
2, 186239, Note_on_c, 9, 40, 0
2, 186240, Note_on_c, 9, 36, 40
2, 186479, Note_on_c, 9, 36, 0
2, 186480, Note_on_c, 9, 36, 73
2, 186719, Note_on_c, 9, 36, 0
2, 186720, Note_on_c, 9, 40, 101
2, 187199, Note_on_c, 9, 40, 0
2, 187200, Note_on_c, 9, 36, 87
2, 187439, Note_on_c, 9, 36, 0
2, 187440, Note_on_c, 9, 36, 81
2, 187679, Note_on_c, 9, 36, 0
2, 187680, Note_on_c, 9, 40, 96
2, 188159, Note_on_c, 9, 40, 0
2, 188160, Note_on_c, 9, 36, 40
2, 188399, Note_on_c, 9, 36, 0
2, 188400, Note_on_c, 9, 36, 73
2, 188639, Note_on_c, 9, 36, 0
2, 188640, Note_on_c, 9, 40, 101
2, 189119, Note_on_c, 9, 40, 0
2, 189120, Note_on_c, 9, 36, 87
2, 189359, Note_on_c, 9, 36, 0
2, 189360, Note_on_c, 9, 36, 81
2, 189599, Note_on_c, 9, 36, 0
2, 189600, Note_on_c, 9, 40, 96
2, 190079, Note_on_c, 9, 40, 0
2, 190080, Note_on_c, 9, 36, 40
2, 190319, Note_on_c, 9, 36, 0
2, 190320, Note_on_c, 9, 36, 73
2, 190559, Note_on_c, 9, 36, 0
2, 190560, Note_on_c, 9, 40, 101
2, 191039, Note_on_c, 9, 40, 0
2, 191040, Note_on_c, 9, 36, 87
2, 191279, Note_on_c, 9, 36, 0
2, 191280, Note_on_c, 9, 36, 81
2, 191519, Note_on_c, 9, 36, 0
2, 191520, Note_on_c, 9, 40, 96
2, 191999, Note_on_c, 9, 40, 0
2, 192000, Note_on_c, 9, 36, 40
2, 192239, Note_on_c, 9, 36, 0
2, 192240, Note_on_c, 9, 36, 73
2, 192479, Note_on_c, 9, 36, 0
2, 192480, Note_on_c, 9, 40, 101
2, 192959, Note_on_c, 9, 40, 0
2, 192960, Note_on_c, 9, 36, 87
2, 193199, Note_on_c, 9, 36, 0
2, 193200, Note_on_c, 9, 36, 81
2, 193439, Note_on_c, 9, 36, 0
2, 193440, Note_on_c, 9, 40, 96
2, 193919, Note_on_c, 9, 40, 0
2, 193920, Note_on_c, 9, 36, 40
2, 194159, Note_on_c, 9, 36, 0
2, 194160, Note_on_c, 9, 36, 73
2, 194399, Note_on_c, 9, 36, 0
2, 194400, Note_on_c, 9, 40, 101
2, 194879, Note_on_c, 9, 40, 0
2, 194880, Note_on_c, 9, 36, 87
2, 195119, Note_on_c, 9, 36, 0
2, 195120, Note_on_c, 9, 36, 81
2, 195359, Note_on_c, 9, 36, 0
2, 195360, Note_on_c, 9, 40, 96
2, 195839, Note_on_c, 9, 40, 0
2, 195840, Note_on_c, 9, 36, 40
2, 196079, Note_on_c, 9, 36, 0
2, 196080, Note_on_c, 9, 36, 73
2, 196319, Note_on_c, 9, 36, 0
2, 196320, Note_on_c, 9, 40, 101
2, 196799, Note_on_c, 9, 40, 0
2, 196800, Note_on_c, 9, 36, 87
2, 197039, Note_on_c, 9, 36, 0
2, 197040, Note_on_c, 9, 36, 81
2, 197279, Note_on_c, 9, 36, 0
2, 197280, Note_on_c, 9, 40, 96
2, 197759, Note_on_c, 9, 40, 0
2, 197760, Note_on_c, 9, 36, 40
2, 197999, Note_on_c, 9, 36, 0
2, 198000, Note_on_c, 9, 36, 73
2, 198239, Note_on_c, 9, 36, 0
2, 198240, Note_on_c, 9, 40, 101
2, 198719, Note_on_c, 9, 40, 0
2, 198720, Note_on_c, 9, 36, 87
2, 198959, Note_on_c, 9, 36, 0
2, 198960, Note_on_c, 9, 36, 81
2, 199199, Note_on_c, 9, 36, 0
2, 199200, Note_on_c, 9, 40, 96
2, 199679, Note_on_c, 9, 40, 0
2, 199680, Note_on_c, 9, 36, 40
2, 199919, Note_on_c, 9, 36, 0
2, 199920, Note_on_c, 9, 36, 73
2, 200159, Note_on_c, 9, 36, 0
2, 200160, Note_on_c, 9, 40, 101
2, 200639, Note_on_c, 9, 40, 0
2, 200640, Note_on_c, 9, 36, 87
2, 200879, Note_on_c, 9, 36, 0
2, 200880, Note_on_c, 9, 36, 81
2, 201119, Note_on_c, 9, 36, 0
2, 201120, Note_on_c, 9, 40, 96
2, 201599, Note_on_c, 9, 40, 0
2, 201600, Note_on_c, 9, 36, 91
2, 201839, Note_on_c, 9, 36, 0
2, 201840, Note_on_c, 9, 36, 73
2, 202079, Note_on_c, 9, 36, 0
2, 202080, Note_on_c, 9, 40, 101
2, 202559, Note_on_c, 9, 40, 0
2, 202560, Note_on_c, 9, 36, 87
2, 202799, Note_on_c, 9, 36, 0
2, 202800, Note_on_c, 9, 36, 81
2, 202920, Note_on_c, 9, 40, 66
2, 203039, Note_on_c, 9, 36, 0
2, 203039, Note_on_c, 9, 40, 0
2, 203040, Note_on_c, 9, 40, 70
2, 203279, Note_on_c, 9, 40, 0
2, 203280, Note_on_c, 9, 40, 81
2, 203519, Note_on_c, 9, 40, 0
2, 203520, Note_on_c, 9, 36, 40
2, 203759, Note_on_c, 9, 36, 0
2, 203760, Note_on_c, 9, 36, 73
2, 203999, Note_on_c, 9, 36, 0
2, 204000, Note_on_c, 9, 40, 101
2, 204479, Note_on_c, 9, 40, 0
2, 204480, Note_on_c, 9, 36, 87
2, 204719, Note_on_c, 9, 36, 0
2, 204720, Note_on_c, 9, 36, 81
2, 204959, Note_on_c, 9, 36, 0
2, 204960, Note_on_c, 9, 40, 96
2, 205439, Note_on_c, 9, 40, 0
2, 205440, Note_on_c, 9, 36, 40
2, 205679, Note_on_c, 9, 36, 0
2, 205680, Note_on_c, 9, 36, 73
2, 205919, Note_on_c, 9, 36, 0
2, 205920, Note_on_c, 9, 40, 101
2, 206399, Note_on_c, 9, 40, 0
2, 206400, Note_on_c, 9, 36, 87
2, 206639, Note_on_c, 9, 36, 0
2, 206640, Note_on_c, 9, 36, 81
2, 206879, Note_on_c, 9, 36, 0
2, 206880, Note_on_c, 9, 40, 96
2, 207359, Note_on_c, 9, 40, 0
2, 207360, Note_on_c, 9, 36, 40
2, 207599, Note_on_c, 9, 36, 0
2, 207600, Note_on_c, 9, 36, 73
2, 207839, Note_on_c, 9, 36, 0
2, 207840, Note_on_c, 9, 40, 101
2, 208319, Note_on_c, 9, 40, 0
2, 208320, Note_on_c, 9, 36, 87
2, 208559, Note_on_c, 9, 36, 0
2, 208560, Note_on_c, 9, 36, 81
2, 208799, Note_on_c, 9, 36, 0
2, 208800, Note_on_c, 9, 40, 96
2, 209279, Note_on_c, 9, 40, 0
2, 209280, Note_on_c, 9, 36, 40
2, 209519, Note_on_c, 9, 36, 0
2, 209520, Note_on_c, 9, 36, 73
2, 209759, Note_on_c, 9, 36, 0
2, 209760, Note_on_c, 9, 40, 101
2, 210239, Note_on_c, 9, 40, 0
2, 210240, Note_on_c, 9, 36, 87
2, 210479, Note_on_c, 9, 36, 0
2, 210480, Note_on_c, 9, 36, 81
2, 210719, Note_on_c, 9, 36, 0
2, 210720, Note_on_c, 9, 40, 96
2, 211199, Note_on_c, 9, 40, 0
2, 211200, Note_on_c, 9, 36, 40
2, 211439, Note_on_c, 9, 36, 0
2, 211440, Note_on_c, 9, 36, 73
2, 211679, Note_on_c, 9, 36, 0
2, 211680, Note_on_c, 9, 40, 101
2, 212159, Note_on_c, 9, 40, 0
2, 212160, Note_on_c, 9, 36, 87
2, 212399, Note_on_c, 9, 36, 0
2, 212400, Note_on_c, 9, 36, 81
2, 212639, Note_on_c, 9, 36, 0
2, 212640, Note_on_c, 9, 40, 96
2, 213119, Note_on_c, 9, 40, 0
2, 213120, Note_on_c, 9, 36, 40
2, 213359, Note_on_c, 9, 36, 0
2, 213360, Note_on_c, 9, 36, 73
2, 213599, Note_on_c, 9, 36, 0
2, 213600, Note_on_c, 9, 40, 101
2, 214079, Note_on_c, 9, 40, 0
2, 214080, Note_on_c, 9, 36, 87
2, 214319, Note_on_c, 9, 36, 0
2, 214320, Note_on_c, 9, 36, 81
2, 214559, Note_on_c, 9, 36, 0
2, 214560, Note_on_c, 9, 40, 96
2, 215039, Note_on_c, 9, 40, 0
2, 215040, Note_on_c, 9, 36, 40
2, 215279, Note_on_c, 9, 36, 0
2, 215280, Note_on_c, 9, 36, 73
2, 215519, Note_on_c, 9, 36, 0
2, 215520, Note_on_c, 9, 40, 101
2, 215999, Note_on_c, 9, 40, 0
2, 216000, Note_on_c, 9, 36, 87
2, 216239, Note_on_c, 9, 36, 0
2, 216240, Note_on_c, 9, 36, 81
2, 216479, Note_on_c, 9, 36, 0
2, 216480, Note_on_c, 9, 40, 96
2, 216959, Note_on_c, 9, 40, 0
2, 216960, Note_on_c, 9, 36, 40
2, 217199, Note_on_c, 9, 36, 0
2, 217200, Note_on_c, 9, 36, 73
2, 217439, Note_on_c, 9, 36, 0
2, 217440, Note_on_c, 9, 40, 101
2, 217919, Note_on_c, 9, 40, 0
2, 217920, Note_on_c, 9, 36, 87
2, 218159, Note_on_c, 9, 36, 0
2, 218160, Note_on_c, 9, 36, 81
2, 218399, Note_on_c, 9, 36, 0
2, 218400, Note_on_c, 9, 40, 96
2, 218879, Note_on_c, 9, 40, 0
2, 218880, Note_on_c, 9, 36, 40
2, 219119, Note_on_c, 9, 36, 0
2, 219120, Note_on_c, 9, 36, 73
2, 219359, Note_on_c, 9, 36, 0
2, 219360, Note_on_c, 9, 40, 101
2, 219839, Note_on_c, 9, 40, 0
2, 219840, Note_on_c, 9, 36, 87
2, 220079, Note_on_c, 9, 36, 0
2, 220080, Note_on_c, 9, 36, 81
2, 220319, Note_on_c, 9, 36, 0
2, 220320, Note_on_c, 9, 40, 96
2, 220799, Note_on_c, 9, 40, 0
2, 220800, Note_on_c, 9, 36, 40
2, 221039, Note_on_c, 9, 36, 0
2, 221040, Note_on_c, 9, 36, 73
2, 221279, Note_on_c, 9, 36, 0
2, 221280, Note_on_c, 9, 40, 101
2, 221759, Note_on_c, 9, 40, 0
2, 221760, Note_on_c, 9, 36, 87
2, 221999, Note_on_c, 9, 36, 0
2, 222000, Note_on_c, 9, 36, 81
2, 222239, Note_on_c, 9, 36, 0
2, 222240, Note_on_c, 9, 40, 96
2, 222719, Note_on_c, 9, 40, 0
2, 222720, Note_on_c, 9, 36, 40
2, 222959, Note_on_c, 9, 36, 0
2, 222960, Note_on_c, 9, 36, 73
2, 223199, Note_on_c, 9, 36, 0
2, 223200, Note_on_c, 9, 40, 101
2, 223679, Note_on_c, 9, 40, 0
2, 223680, Note_on_c, 9, 36, 87
2, 223919, Note_on_c, 9, 36, 0
2, 223920, Note_on_c, 9, 36, 81
2, 224159, Note_on_c, 9, 36, 0
2, 224160, Note_on_c, 9, 40, 96
2, 224639, Note_on_c, 9, 40, 0
2, 224640, Note_on_c, 9, 36, 91
2, 224879, Note_on_c, 9, 36, 0
2, 224880, Note_on_c, 9, 36, 73
2, 225119, Note_on_c, 9, 36, 0
2, 225120, Note_on_c, 9, 40, 101
2, 225599, Note_on_c, 9, 40, 0
2, 225600, Note_on_c, 9, 36, 87
2, 225839, Note_on_c, 9, 36, 0
2, 225840, Note_on_c, 9, 36, 81
2, 225960, Note_on_c, 9, 40, 66
2, 226079, Note_on_c, 9, 36, 0
2, 226079, Note_on_c, 9, 40, 0
2, 226080, Note_on_c, 9, 40, 70
2, 226319, Note_on_c, 9, 40, 0
2, 226320, Note_on_c, 9, 40, 81
2, 226559, Note_on_c, 9, 40, 0
2, 226560, Note_on_c, 9, 36, 40
2, 226799, Note_on_c, 9, 36, 0
2, 226800, Note_on_c, 9, 36, 73
2, 227039, Note_on_c, 9, 36, 0
2, 227040, Note_on_c, 9, 40, 101
2, 227519, Note_on_c, 9, 40, 0
2, 227520, Note_on_c, 9, 36, 87
2, 227759, Note_on_c, 9, 36, 0
2, 227760, Note_on_c, 9, 36, 81
2, 227999, Note_on_c, 9, 36, 0
2, 228000, Note_on_c, 9, 40, 96
2, 228479, Note_on_c, 9, 40, 0
2, 228480, Note_on_c, 9, 36, 40
2, 228719, Note_on_c, 9, 36, 0
2, 228720, Note_on_c, 9, 36, 73
2, 228959, Note_on_c, 9, 36, 0
2, 228960, Note_on_c, 9, 40, 101
2, 229439, Note_on_c, 9, 40, 0
2, 229440, Note_on_c, 9, 36, 87
2, 229679, Note_on_c, 9, 36, 0
2, 229680, Note_on_c, 9, 36, 81
2, 229919, Note_on_c, 9, 36, 0
2, 229920, Note_on_c, 9, 40, 96
2, 230399, Note_on_c, 9, 40, 0
2, 230400, Note_on_c, 9, 36, 40
2, 230639, Note_on_c, 9, 36, 0
2, 230640, Note_on_c, 9, 36, 73
2, 230879, Note_on_c, 9, 36, 0
2, 230880, Note_on_c, 9, 40, 101
2, 231359, Note_on_c, 9, 40, 0
2, 231360, Note_on_c, 9, 36, 87
2, 231599, Note_on_c, 9, 36, 0
2, 231600, Note_on_c, 9, 36, 81
2, 231839, Note_on_c, 9, 36, 0
2, 231840, Note_on_c, 9, 40, 96
2, 232319, Note_on_c, 9, 40, 0
2, 232320, Note_on_c, 9, 36, 40
2, 232559, Note_on_c, 9, 36, 0
2, 232560, Note_on_c, 9, 36, 73
2, 232799, Note_on_c, 9, 36, 0
2, 232800, Note_on_c, 9, 40, 101
2, 233279, Note_on_c, 9, 40, 0
2, 233280, Note_on_c, 9, 36, 87
2, 233519, Note_on_c, 9, 36, 0
2, 233520, Note_on_c, 9, 36, 81
2, 233759, Note_on_c, 9, 36, 0
2, 233760, Note_on_c, 9, 40, 96
2, 234239, Note_on_c, 9, 40, 0
2, 234240, Note_on_c, 9, 36, 40
2, 234479, Note_on_c, 9, 36, 0
2, 234480, Note_on_c, 9, 36, 73
2, 234719, Note_on_c, 9, 36, 0
2, 234720, Note_on_c, 9, 40, 101
2, 235199, Note_on_c, 9, 40, 0
2, 235200, Note_on_c, 9, 36, 87
2, 235439, Note_on_c, 9, 36, 0
2, 235440, Note_on_c, 9, 36, 81
2, 235679, Note_on_c, 9, 36, 0
2, 235680, Note_on_c, 9, 40, 96
2, 236159, Note_on_c, 9, 40, 0
2, 236160, Note_on_c, 9, 36, 40
2, 236399, Note_on_c, 9, 36, 0
2, 236400, Note_on_c, 9, 36, 73
2, 236639, Note_on_c, 9, 36, 0
2, 236640, Note_on_c, 9, 40, 101
2, 237119, Note_on_c, 9, 40, 0
2, 237120, Note_on_c, 9, 36, 87
2, 237359, Note_on_c, 9, 36, 0
2, 237360, Note_on_c, 9, 36, 81
2, 237599, Note_on_c, 9, 36, 0
2, 237600, Note_on_c, 9, 40, 96
2, 238079, Note_on_c, 9, 40, 0
2, 238080, Note_on_c, 9, 36, 40
2, 238319, Note_on_c, 9, 36, 0
2, 238320, Note_on_c, 9, 36, 73
2, 238559, Note_on_c, 9, 36, 0
2, 238560, Note_on_c, 9, 40, 101
2, 239039, Note_on_c, 9, 40, 0
2, 239040, Note_on_c, 9, 36, 87
2, 239279, Note_on_c, 9, 36, 0
2, 239280, Note_on_c, 9, 36, 81
2, 239519, Note_on_c, 9, 36, 0
2, 239520, Note_on_c, 9, 40, 96
2, 239999, Note_on_c, 9, 40, 0
2, 240000, Note_on_c, 9, 36, 40
2, 240239, Note_on_c, 9, 36, 0
2, 240240, Note_on_c, 9, 36, 73
2, 240479, Note_on_c, 9, 36, 0
2, 240480, Note_on_c, 9, 40, 101
2, 240959, Note_on_c, 9, 40, 0
2, 240960, Note_on_c, 9, 36, 87
2, 241199, Note_on_c, 9, 36, 0
2, 241200, Note_on_c, 9, 36, 81
2, 241439, Note_on_c, 9, 36, 0
2, 241440, Note_on_c, 9, 40, 96
2, 241919, Note_on_c, 9, 40, 0
2, 241920, Note_on_c, 9, 36, 40
2, 242159, Note_on_c, 9, 36, 0
2, 242160, Note_on_c, 9, 36, 73
2, 242399, Note_on_c, 9, 36, 0
2, 242400, Note_on_c, 9, 40, 101
2, 242879, Note_on_c, 9, 40, 0
2, 242880, Note_on_c, 9, 36, 87
2, 243119, Note_on_c, 9, 36, 0
2, 243120, Note_on_c, 9, 36, 81
2, 243359, Note_on_c, 9, 36, 0
2, 243360, Note_on_c, 9, 40, 96
2, 243839, Note_on_c, 9, 40, 0
2, 243840, Note_on_c, 9, 36, 40
2, 244079, Note_on_c, 9, 36, 0
2, 244080, Note_on_c, 9, 36, 73
2, 244319, Note_on_c, 9, 36, 0
2, 244320, Note_on_c, 9, 40, 101
2, 244799, Note_on_c, 9, 40, 0
2, 244800, Note_on_c, 9, 36, 87
2, 245039, Note_on_c, 9, 36, 0
2, 245040, Note_on_c, 9, 36, 81
2, 245279, Note_on_c, 9, 36, 0
2, 245280, Note_on_c, 9, 40, 96
2, 245759, Note_on_c, 9, 40, 0
2, 245760, Note_on_c, 9, 36, 40
2, 245999, Note_on_c, 9, 36, 0
2, 246000, Note_on_c, 9, 36, 73
2, 246239, Note_on_c, 9, 36, 0
2, 246240, Note_on_c, 9, 40, 101
2, 246719, Note_on_c, 9, 40, 0
2, 246720, Note_on_c, 9, 36, 87
2, 246959, Note_on_c, 9, 36, 0
2, 246960, Note_on_c, 9, 36, 81
2, 247199, Note_on_c, 9, 36, 0
2, 247200, Note_on_c, 9, 40, 96
2, 247679, Note_on_c, 9, 40, 0
2, 247680, Note_on_c, 9, 36, 40
2, 247919, Note_on_c, 9, 36, 0
2, 247920, Note_on_c, 9, 36, 73
2, 248159, Note_on_c, 9, 36, 0
2, 248160, Note_on_c, 9, 40, 101
2, 248639, Note_on_c, 9, 40, 0
2, 248640, Note_on_c, 9, 36, 87
2, 248879, Note_on_c, 9, 36, 0
2, 248880, Note_on_c, 9, 36, 81
2, 249119, Note_on_c, 9, 36, 0
2, 249120, Note_on_c, 9, 40, 96
2, 249599, Note_on_c, 9, 40, 0
2, 249600, Note_on_c, 9, 36, 40
2, 249839, Note_on_c, 9, 36, 0
2, 249840, Note_on_c, 9, 36, 73
2, 250079, Note_on_c, 9, 36, 0
2, 250080, Note_on_c, 9, 40, 101
2, 250559, Note_on_c, 9, 40, 0
2, 250560, Note_on_c, 9, 36, 87
2, 250799, Note_on_c, 9, 36, 0
2, 250800, Note_on_c, 9, 36, 81
2, 251039, Note_on_c, 9, 36, 0
2, 251040, Note_on_c, 9, 40, 96
2, 251519, Note_on_c, 9, 40, 0
2, 251520, Note_on_c, 9, 36, 40
2, 251759, Note_on_c, 9, 36, 0
2, 251760, Note_on_c, 9, 36, 73
2, 251999, Note_on_c, 9, 36, 0
2, 252000, Note_on_c, 9, 40, 101
2, 252479, Note_on_c, 9, 40, 0
2, 252480, Note_on_c, 9, 36, 87
2, 252719, Note_on_c, 9, 36, 0
2, 252720, Note_on_c, 9, 36, 81
2, 252959, Note_on_c, 9, 36, 0
2, 252960, Note_on_c, 9, 40, 96
2, 253439, Note_on_c, 9, 40, 0
2, 253440, Note_on_c, 9, 36, 40
2, 253679, Note_on_c, 9, 36, 0
2, 253680, Note_on_c, 9, 36, 73
2, 253919, Note_on_c, 9, 36, 0
2, 253920, Note_on_c, 9, 40, 101
2, 254399, Note_on_c, 9, 40, 0
2, 254400, Note_on_c, 9, 36, 87
2, 254639, Note_on_c, 9, 36, 0
2, 254640, Note_on_c, 9, 36, 81
2, 254879, Note_on_c, 9, 36, 0
2, 254880, Note_on_c, 9, 40, 96
2, 255359, Note_on_c, 9, 40, 0
2, 255360, Note_on_c, 9, 36, 40
2, 255599, Note_on_c, 9, 36, 0
2, 255600, Note_on_c, 9, 36, 73
2, 255839, Note_on_c, 9, 36, 0
2, 255840, Note_on_c, 9, 40, 101
2, 256319, Note_on_c, 9, 40, 0
2, 256320, Note_on_c, 9, 36, 87
2, 256559, Note_on_c, 9, 36, 0
2, 256560, Note_on_c, 9, 36, 81
2, 256799, Note_on_c, 9, 36, 0
2, 256800, Note_on_c, 9, 40, 96
2, 257279, Note_on_c, 9, 40, 0
2, 257280, Note_on_c, 9, 36, 40
2, 257519, Note_on_c, 9, 36, 0
2, 257520, Note_on_c, 9, 36, 73
2, 257759, Note_on_c, 9, 36, 0
2, 257760, Note_on_c, 9, 40, 101
2, 258239, Note_on_c, 9, 40, 0
2, 258240, Note_on_c, 9, 36, 87
2, 258479, Note_on_c, 9, 36, 0
2, 258480, Note_on_c, 9, 36, 81
2, 258719, Note_on_c, 9, 36, 0
2, 258720, Note_on_c, 9, 40, 96
2, 259199, Note_on_c, 9, 40, 0
2, 259200, Note_on_c, 9, 36, 40
2, 259439, Note_on_c, 9, 36, 0
2, 259440, Note_on_c, 9, 36, 73
2, 259679, Note_on_c, 9, 36, 0
2, 259680, Note_on_c, 9, 40, 101
2, 260159, Note_on_c, 9, 40, 0
2, 260160, Note_on_c, 9, 36, 87
2, 260399, Note_on_c, 9, 36, 0
2, 260400, Note_on_c, 9, 36, 81
2, 260639, Note_on_c, 9, 36, 0
2, 260640, Note_on_c, 9, 40, 96
2, 261119, Note_on_c, 9, 40, 0
2, 261120, Note_on_c, 9, 36, 40
2, 261359, Note_on_c, 9, 36, 0
2, 261360, Note_on_c, 9, 36, 73
2, 261599, Note_on_c, 9, 36, 0
2, 261600, Note_on_c, 9, 40, 101
2, 262079, Note_on_c, 9, 40, 0
2, 262080, Note_on_c, 9, 36, 87
2, 262319, Note_on_c, 9, 36, 0
2, 262320, Note_on_c, 9, 36, 81
2, 262559, Note_on_c, 9, 36, 0
2, 262560, Note_on_c, 9, 40, 96
2, 263039, Note_on_c, 9, 40, 0
2, 263040, Note_on_c, 9, 36, 40
2, 263279, Note_on_c, 9, 36, 0
2, 263280, Note_on_c, 9, 36, 73
2, 263519, Note_on_c, 9, 36, 0
2, 263520, Note_on_c, 9, 40, 101
2, 263999, Note_on_c, 9, 40, 0
2, 264000, Note_on_c, 9, 36, 87
2, 264240, Note_on_c, 9, 40, 96
2, 264479, Note_on_c, 9, 36, 0
2, 264479, Note_on_c, 9, 40, 0
2, 264480, Note_on_c, 9, 40, 96
2, 264719, Note_on_c, 9, 40, 0
2, 264720, Note_on_c, 9, 40, 96
2, 264959, Note_on_c, 9, 40, 0
2, 264960, Note_on_c, 9, 36, 40
2, 265199, Note_on_c, 9, 36, 0
2, 265200, Note_on_c, 9, 36, 73
2, 265439, Note_on_c, 9, 36, 0
2, 265440, Note_on_c, 9, 40, 101
2, 265919, Note_on_c, 9, 40, 0
2, 265920, Note_on_c, 9, 36, 87
2, 266159, Note_on_c, 9, 36, 0
2, 266160, Note_on_c, 9, 36, 81
2, 266399, Note_on_c, 9, 36, 0
2, 266400, Note_on_c, 9, 40, 96
2, 266879, Note_on_c, 9, 40, 0
2, 266880, Note_on_c, 9, 36, 40
2, 267119, Note_on_c, 9, 36, 0
2, 267120, Note_on_c, 9, 36, 73
2, 267359, Note_on_c, 9, 36, 0
2, 267360, Note_on_c, 9, 40, 101
2, 267839, Note_on_c, 9, 40, 0
2, 267840, Note_on_c, 9, 36, 87
2, 268079, Note_on_c, 9, 36, 0
2, 268080, Note_on_c, 9, 36, 81
2, 268319, Note_on_c, 9, 36, 0
2, 268320, Note_on_c, 9, 40, 96
2, 268799, Note_on_c, 9, 40, 0
2, 268800, Note_on_c, 9, 36, 40
2, 269039, Note_on_c, 9, 36, 0
2, 269040, Note_on_c, 9, 36, 73
2, 269279, Note_on_c, 9, 36, 0
2, 269280, Note_on_c, 9, 40, 101
2, 269759, Note_on_c, 9, 40, 0
2, 269760, Note_on_c, 9, 36, 87
2, 269999, Note_on_c, 9, 36, 0
2, 270000, Note_on_c, 9, 36, 81
2, 270239, Note_on_c, 9, 36, 0
2, 270240, Note_on_c, 9, 40, 96
2, 270719, Note_on_c, 9, 40, 0
2, 270720, Note_on_c, 9, 36, 40
2, 270959, Note_on_c, 9, 36, 0
2, 270960, Note_on_c, 9, 36, 73
2, 271199, Note_on_c, 9, 36, 0
2, 271200, Note_on_c, 9, 40, 101
2, 271679, Note_on_c, 9, 40, 0
2, 271680, Note_on_c, 9, 36, 87
2, 271919, Note_on_c, 9, 36, 0
2, 271920, Note_on_c, 9, 36, 81
2, 272159, Note_on_c, 9, 36, 0
2, 272160, Note_on_c, 9, 40, 96
2, 272639, Note_on_c, 9, 40, 0
2, 272640, Note_on_c, 9, 36, 40
2, 272879, Note_on_c, 9, 36, 0
2, 272880, Note_on_c, 9, 36, 73
2, 273119, Note_on_c, 9, 36, 0
2, 273120, Note_on_c, 9, 40, 101
2, 273599, Note_on_c, 9, 40, 0
2, 273600, Note_on_c, 9, 36, 87
2, 273839, Note_on_c, 9, 36, 0
2, 273840, Note_on_c, 9, 36, 81
2, 274079, Note_on_c, 9, 36, 0
2, 274080, Note_on_c, 9, 40, 96
2, 274559, Note_on_c, 9, 40, 0
2, 274560, Note_on_c, 9, 36, 40
2, 274799, Note_on_c, 9, 36, 0
2, 274800, Note_on_c, 9, 36, 73
2, 275039, Note_on_c, 9, 36, 0
2, 275040, Note_on_c, 9, 40, 101
2, 275519, Note_on_c, 9, 40, 0
2, 275520, Note_on_c, 9, 36, 87
2, 275759, Note_on_c, 9, 36, 0
2, 275760, Note_on_c, 9, 36, 81
2, 275999, Note_on_c, 9, 36, 0
2, 276000, Note_on_c, 9, 40, 96
2, 276479, Note_on_c, 9, 40, 0
2, 276480, Note_on_c, 9, 36, 40
2, 276719, Note_on_c, 9, 36, 0
2, 276720, Note_on_c, 9, 36, 73
2, 276959, Note_on_c, 9, 36, 0
2, 276960, Note_on_c, 9, 40, 101
2, 277439, Note_on_c, 9, 40, 0
2, 277440, Note_on_c, 9, 36, 87
2, 277679, Note_on_c, 9, 36, 0
2, 277680, Note_on_c, 9, 36, 81
2, 277919, Note_on_c, 9, 36, 0
2, 277920, Note_on_c, 9, 40, 96
2, 278399, Note_on_c, 9, 40, 0
2, 278400, Note_on_c, 9, 36, 40
2, 278639, Note_on_c, 9, 36, 0
2, 278640, Note_on_c, 9, 36, 73
2, 278879, Note_on_c, 9, 36, 0
2, 278880, Note_on_c, 9, 40, 101
2, 279359, Note_on_c, 9, 40, 0
2, 279360, Note_on_c, 9, 36, 87
2, 279599, Note_on_c, 9, 36, 0
2, 279600, Note_on_c, 9, 36, 81
2, 279839, Note_on_c, 9, 36, 0
2, 279840, Note_on_c, 9, 40, 96
2, 280319, Note_on_c, 9, 40, 0
2, 280320, Note_on_c, 9, 36, 40
2, 280559, Note_on_c, 9, 36, 0
2, 280560, Note_on_c, 9, 36, 73
2, 280799, Note_on_c, 9, 36, 0
2, 280800, Note_on_c, 9, 40, 101
2, 281279, Note_on_c, 9, 40, 0
2, 281280, Note_on_c, 9, 36, 87
2, 281519, Note_on_c, 9, 36, 0
2, 281520, Note_on_c, 9, 36, 81
2, 281759, Note_on_c, 9, 36, 0
2, 281760, Note_on_c, 9, 40, 96
2, 282239, Note_on_c, 9, 40, 0
2, 282240, Note_on_c, 9, 36, 40
2, 282479, Note_on_c, 9, 36, 0
2, 282480, Note_on_c, 9, 36, 73
2, 282719, Note_on_c, 9, 36, 0
2, 282720, Note_on_c, 9, 40, 101
2, 283199, Note_on_c, 9, 40, 0
2, 283200, Note_on_c, 9, 36, 87
2, 283439, Note_on_c, 9, 36, 0
2, 283440, Note_on_c, 9, 36, 81
2, 283679, Note_on_c, 9, 36, 0
2, 283680, Note_on_c, 9, 40, 96
2, 284159, Note_on_c, 9, 40, 0
2, 284160, Note_on_c, 9, 36, 40
2, 284399, Note_on_c, 9, 36, 0
2, 284400, Note_on_c, 9, 36, 73
2, 284639, Note_on_c, 9, 36, 0
2, 284640, Note_on_c, 9, 40, 101
2, 285119, Note_on_c, 9, 40, 0
2, 285120, Note_on_c, 9, 36, 87
2, 285359, Note_on_c, 9, 36, 0
2, 285360, Note_on_c, 9, 36, 81
2, 285599, Note_on_c, 9, 36, 0
2, 285600, Note_on_c, 9, 40, 96
2, 286079, Note_on_c, 9, 40, 0
2, 286080, Note_on_c, 9, 36, 91
2, 286319, Note_on_c, 9, 36, 0
2, 286320, Note_on_c, 9, 36, 71
2, 286559, Note_on_c, 9, 36, 0
2, 286560, Note_on_c, 9, 40, 96
2, 287039, Note_on_c, 9, 40, 0
2, 287040, Note_on_c, 9, 36, 79
2, 287279, Note_on_c, 9, 36, 0
2, 287280, Note_on_c, 9, 36, 71
2, 287519, Note_on_c, 9, 36, 0
2, 287520, Note_on_c, 9, 40, 82
2, 287999, Note_on_c, 9, 40, 0
2, 288000, Note_on_c, 9, 36, 73
2, 288239, Note_on_c, 9, 36, 0
2, 288240, Note_on_c, 9, 36, 57
2, 288479, Note_on_c, 9, 36, 0
2, 288480, Note_on_c, 9, 40, 76
2, 288959, Note_on_c, 9, 40, 0
2, 288960, Note_on_c, 9, 36, 62
2, 289199, Note_on_c, 9, 36, 0
2, 289200, Note_on_c, 9, 36, 55
2, 289439, Note_on_c, 9, 36, 0
2, 289440, Note_on_c, 9, 40, 64
2, 289919, Note_on_c, 9, 40, 0
2, 289920, Note_on_c, 9, 36, 56
2, 290159, Note_on_c, 9, 36, 0
2, 290160, Note_on_c, 9, 36, 43
2, 290399, Note_on_c, 9, 36, 0
2, 290400, Note_on_c, 9, 40, 57
2, 290879, Note_on_c, 9, 40, 0
2, 290880, Note_on_c, 9, 36, 45
2, 291119, Note_on_c, 9, 36, 0
2, 291120, Note_on_c, 9, 36, 40
2, 291359, Note_on_c, 9, 36, 0
2, 291360, Note_on_c, 9, 40, 46
2, 291839, Note_on_c, 9, 40, 0
2, 291840, Note_on_c, 9, 36, 39
2, 292079, Note_on_c, 9, 36, 0
2, 292080, Note_on_c, 9, 36, 29
2, 292319, Note_on_c, 9, 36, 0
2, 292320, Note_on_c, 9, 40, 38
2, 292799, Note_on_c, 9, 40, 0
2, 292800, Note_on_c, 9, 36, 28
2, 293039, Note_on_c, 9, 36, 0
2, 293040, Note_on_c, 9, 36, 25
2, 293279, Note_on_c, 9, 36, 0
2, 293280, Note_on_c, 9, 40, 26
2, 293759, Note_on_c, 9, 40, 0
2, 293760, Note_on_c, 9, 36, 20
2, 293999, Note_on_c, 9, 36, 0
2, 294000, Note_on_c, 9, 36, 15
2, 294239, Note_on_c, 9, 36, 0
2, 294240, Note_on_c, 9, 40, 19
2, 294719, Note_on_c, 9, 40, 0
2, 294720, Note_on_c, 9, 36, 12
2, 294959, Note_on_c, 9, 36, 0
2, 294960, Note_on_c, 9, 36, 8
2, 295199, Note_on_c, 9, 36, 0
2, 295200, Note_on_c, 9, 40, 8
2, 295679, Note_on_c, 9, 40, 0
2, 295680, End_track
0, 0, End_of_file
