0, 0, Header, 1, 1, 480
1, 0, Start_track
1, 0, Time_signature, 4, 2, 24, 8
1, 0, Key_signature, 0, "major"
1, 0, Tempo, 500000
1, 0, Control_c, 9, 121, 0
1, 0, Program_c, 9, 0
1, 0, Control_c, 9, 7, 100
1, 0, Control_c, 9, 10, 64
1, 0, Control_c, 9, 91, 0
1, 0, Control_c, 9, 93, 0
1, 0, MIDI_port, 0
1, 1665, Note_on_c, 9, 46, 66
1, 1679, Note_on_c, 9, 46, 0
1, 1920, Note_on_c, 9, 42, 63
1, 1920, Note_on_c, 9, 36, 88
1, 2159, Note_on_c, 9, 36, 0
1, 2160, Note_on_c, 9, 44, 66
1, 2399, Note_on_c, 9, 42, 0
1, 2399, Note_on_c, 9, 44, 0
1, 2400, Note_on_c, 9, 40, 92
1, 2400, Note_on_c, 9, 42, 65
1, 2640, Note_on_c, 9, 44, 67
1, 2879, Note_on_c, 9, 40, 0
1, 2879, Note_on_c, 9, 42, 0
1, 2879, Note_on_c, 9, 44, 0
1, 2880, Note_on_c, 9, 42, 66
1, 2880, Note_on_c, 9, 36, 81
1, 3119, Note_on_c, 9, 36, 0
1, 3120, Note_on_c, 9, 44, 69
1, 3359, Note_on_c, 9, 42, 0
1, 3359, Note_on_c, 9, 44, 0
1, 3360, Note_on_c, 9, 42, 66
1, 3374, Note_on_c, 9, 42, 0
1, 3375, Note_on_c, 9, 40, 90
1, 3599, Note_on_c, 9, 40, 0
1, 3600, Note_on_c, 9, 44, 70
1, 3839, Note_on_c, 9, 44, 0
1, 3840, Note_on_c, 9, 42, 65
1, 3855, Note_on_c, 9, 36, 80
1, 4079, Note_on_c, 9, 36, 0
1, 4080, Note_on_c, 9, 44, 69
1, 4319, Note_on_c, 9, 42, 0
1, 4319, Note_on_c, 9, 44, 0
1, 4320, Note_on_c, 9, 42, 66
1, 4334, Note_on_c, 9, 42, 0
1, 4335, Note_on_c, 9, 40, 88
1, 4559, Note_on_c, 9, 40, 0
1, 4560, Note_on_c, 9, 44, 69
1, 4799, Note_on_c, 9, 44, 0
1, 4800, Note_on_c, 9, 42, 67
1, 4800, Note_on_c, 9, 36, 92
1, 5039, Note_on_c, 9, 36, 0
1, 5040, Note_on_c, 9, 44, 71
1, 5279, Note_on_c, 9, 42, 0
1, 5279, Note_on_c, 9, 44, 0
1, 5280, Note_on_c, 9, 40, 97
1, 5280, Note_on_c, 9, 42, 66
1, 5520, Note_on_c, 9, 44, 68
1, 5759, Note_on_c, 9, 40, 0
1, 5759, Note_on_c, 9, 42, 0
1, 5759, Note_on_c, 9, 44, 0
1, 5760, Note_on_c, 9, 42, 68
1, 5775, Note_on_c, 9, 36, 90
1, 5999, Note_on_c, 9, 36, 0
1, 6000, Note_on_c, 9, 44, 69
1, 6239, Note_on_c, 9, 42, 0
1, 6239, Note_on_c, 9, 44, 0
1, 6240, Note_on_c, 9, 40, 90
1, 6240, Note_on_c, 9, 42, 67
1, 6480, Note_on_c, 9, 44, 70
1, 6719, Note_on_c, 9, 40, 0
1, 6719, Note_on_c, 9, 42, 0
1, 6719, Note_on_c, 9, 44, 0
1, 6720, Note_on_c, 9, 42, 65
1, 6720, Note_on_c, 9, 36, 95
1, 6959, Note_on_c, 9, 36, 0
1, 6960, Note_on_c, 9, 44, 66
1, 7199, Note_on_c, 9, 42, 0
1, 7199, Note_on_c, 9, 44, 0
1, 7200, Note_on_c, 9, 40, 88
1, 7200, Note_on_c, 9, 42, 67
1, 7440, Note_on_c, 9, 44, 72
1, 7679, Note_on_c, 9, 40, 0
1, 7679, Note_on_c, 9, 42, 0
1, 7679, Note_on_c, 9, 44, 0
1, 7680, Note_on_c, 9, 42, 67
1, 7695, Note_on_c, 9, 36, 88
1, 7919, Note_on_c, 9, 36, 0
1, 7920, Note_on_c, 9, 44, 69
1, 8159, Note_on_c, 9, 42, 0
1, 8159, Note_on_c, 9, 44, 0
1, 8160, Note_on_c, 9, 40, 92
1, 8160, Note_on_c, 9, 42, 67
1, 8415, Note_on_c, 9, 44, 66
1, 8639, Note_on_c, 9, 40, 0
1, 8639, Note_on_c, 9, 42, 0
1, 8639, Note_on_c, 9, 44, 0
1, 8655, Note_on_c, 9, 42, 66
1, 8655, Note_on_c, 9, 36, 84
1, 8879, Note_on_c, 9, 42, 0
1, 8879, Note_on_c, 9, 36, 0
1, 8895, Note_on_c, 9, 44, 71
1, 9119, Note_on_c, 9, 44, 0
1, 9120, Note_on_c, 9, 40, 95
1, 9120, Note_on_c, 9, 42, 63
1, 9359, Note_on_c, 9, 40, 0
1, 9359, Note_on_c, 9, 42, 0
1, 9360, Note_on_c, 9, 46, 71
1, 9599, Note_on_c, 9, 46, 0
1, 9600, Note_on_c, 9, 42, 64
1, 9615, Note_on_c, 9, 36, 84
1, 9839, Note_on_c, 9, 36, 0
1, 9840, Note_on_c, 9, 44, 68
1, 10079, Note_on_c, 9, 42, 0
1, 10079, Note_on_c, 9, 44, 0
1, 10080, Note_on_c, 9, 40, 96
1, 10080, Note_on_c, 9, 42, 64
1, 10320, Note_on_c, 9, 44, 69
1, 10559, Note_on_c, 9, 40, 0
1, 10559, Note_on_c, 9, 42, 0
1, 10559, Note_on_c, 9, 44, 0
1, 10560, Note_on_c, 9, 42, 64
1, 10560, Note_on_c, 9, 36, 92
1, 10799, Note_on_c, 9, 36, 0
1, 10800, Note_on_c, 9, 44, 69
1, 11039, Note_on_c, 9, 42, 0
1, 11039, Note_on_c, 9, 44, 0
1, 11040, Note_on_c, 9, 40, 92
1, 11040, Note_on_c, 9, 42, 64
1, 11280, Note_on_c, 9, 44, 69
1, 11519, Note_on_c, 9, 40, 0
1, 11519, Note_on_c, 9, 42, 0
1, 11519, Note_on_c, 9, 44, 0
1, 11520, Note_on_c, 9, 42, 67
1, 11535, Note_on_c, 9, 36, 92
1, 11759, Note_on_c, 9, 36, 0
1, 11760, Note_on_c, 9, 44, 68
1, 11999, Note_on_c, 9, 42, 0
1, 11999, Note_on_c, 9, 44, 0
1, 12000, Note_on_c, 9, 40, 95
1, 12000, Note_on_c, 9, 42, 66
1, 12255, Note_on_c, 9, 44, 74
1, 12479, Note_on_c, 9, 40, 0
1, 12479, Note_on_c, 9, 42, 0
1, 12479, Note_on_c, 9, 44, 0
1, 12495, Note_on_c, 9, 42, 66
1, 12495, Note_on_c, 9, 36, 100
1, 12719, Note_on_c, 9, 42, 0
1, 12719, Note_on_c, 9, 36, 0
1, 12720, Note_on_c, 9, 44, 72
1, 12959, Note_on_c, 9, 44, 0
1, 12960, Note_on_c, 9, 40, 91
1, 12960, Note_on_c, 9, 42, 65
1, 13200, Note_on_c, 9, 44, 70
1, 13439, Note_on_c, 9, 40, 0
1, 13439, Note_on_c, 9, 42, 0
1, 13439, Note_on_c, 9, 44, 0
1, 13440, Note_on_c, 9, 42, 66
1, 13440, Note_on_c, 9, 36, 92
1, 13679, Note_on_c, 9, 36, 0
1, 13680, Note_on_c, 9, 44, 68
1, 13919, Note_on_c, 9, 42, 0
1, 13919, Note_on_c, 9, 44, 0
1, 13920, Note_on_c, 9, 40, 94
1, 13920, Note_on_c, 9, 42, 66
1, 14160, Note_on_c, 9, 44, 67
1, 14399, Note_on_c, 9, 40, 0
1, 14399, Note_on_c, 9, 42, 0
1, 14399, Note_on_c, 9, 44, 0
1, 14400, Note_on_c, 9, 42, 66
1, 14415, Note_on_c, 9, 36, 95
1, 14639, Note_on_c, 9, 36, 0
1, 14640, Note_on_c, 9, 44, 71
1, 14879, Note_on_c, 9, 42, 0
1, 14879, Note_on_c, 9, 44, 0
1, 14880, Note_on_c, 9, 40, 96
1, 14880, Note_on_c, 9, 42, 64
1, 15120, Note_on_c, 9, 44, 75
1, 15359, Note_on_c, 9, 40, 0
1, 15359, Note_on_c, 9, 42, 0
1, 15359, Note_on_c, 9, 44, 0
1, 15360, Note_on_c, 9, 42, 64
1, 15375, Note_on_c, 9, 36, 95
1, 15599, Note_on_c, 9, 36, 0
1, 15600, Note_on_c, 9, 44, 72
1, 15839, Note_on_c, 9, 42, 0
1, 15839, Note_on_c, 9, 44, 0
1, 15840, Note_on_c, 9, 42, 66
1, 15854, Note_on_c, 9, 42, 0
1, 15855, Note_on_c, 9, 40, 94
1, 16079, Note_on_c, 9, 40, 0
1, 16095, Note_on_c, 9, 44, 79
1, 16319, Note_on_c, 9, 44, 0
1, 16335, Note_on_c, 9, 46, 71
1, 16335, Note_on_c, 9, 36, 84
1, 16559, Note_on_c, 9, 46, 0
1, 16559, Note_on_c, 9, 36, 0
1, 16590, Note_on_c, 9, 40, 65
1, 16604, Note_on_c, 9, 40, 0
1, 16605, Note_on_c, 9, 42, 64
1, 16664, Note_on_c, 9, 42, 0
1, 16665, Note_on_c, 9, 40, 64
1, 16724, Note_on_c, 9, 40, 0
1, 16725, Note_on_c, 9, 40, 68
1, 16739, Note_on_c, 9, 40, 0
1, 16800, Note_on_c, 9, 40, 67
1, 16859, Note_on_c, 9, 40, 0
1, 16860, Note_on_c, 9, 40, 78
1, 16860, Note_on_c, 9, 44, 73
1, 17039, Note_on_c, 9, 40, 0
1, 17039, Note_on_c, 9, 44, 0
1, 17070, Note_on_c, 9, 40, 89
1, 17070, Note_on_c, 9, 42, 66
1, 17159, Note_on_c, 9, 40, 0
1, 17159, Note_on_c, 9, 42, 0
1, 17280, Note_on_c, 9, 42, 72
1, 17280, Note_on_c, 9, 36, 98
1, 17519, Note_on_c, 9, 36, 0
1, 17520, Note_on_c, 9, 44, 69
1, 17759, Note_on_c, 9, 42, 0
1, 17759, Note_on_c, 9, 44, 0
1, 17760, Note_on_c, 9, 40, 103
1, 17774, Note_on_c, 9, 40, 0
1, 17775, Note_on_c, 9, 42, 68
1, 17999, Note_on_c, 9, 42, 0
1, 18015, Note_on_c, 9, 44, 67
1, 18239, Note_on_c, 9, 44, 0
1, 18255, Note_on_c, 9, 42, 62
1, 18255, Note_on_c, 9, 36, 100
1, 18479, Note_on_c, 9, 42, 0
1, 18479, Note_on_c, 9, 36, 0
1, 18495, Note_on_c, 9, 44, 65
1, 18719, Note_on_c, 9, 44, 0
1, 18735, Note_on_c, 9, 40, 100
1, 18735, Note_on_c, 9, 42, 69
1, 18959, Note_on_c, 9, 40, 0
1, 18959, Note_on_c, 9, 42, 0
1, 18975, Note_on_c, 9, 44, 69
1, 19199, Note_on_c, 9, 44, 0
1, 19215, Note_on_c, 9, 42, 68
1, 19215, Note_on_c, 9, 36, 95
1, 19439, Note_on_c, 9, 42, 0
1, 19439, Note_on_c, 9, 36, 0
1, 19455, Note_on_c, 9, 44, 72
1, 19679, Note_on_c, 9, 44, 0
1, 19695, Note_on_c, 9, 40, 95
1, 19695, Note_on_c, 9, 42, 67
1, 19919, Note_on_c, 9, 40, 0
1, 19919, Note_on_c, 9, 42, 0
1, 19950, Note_on_c, 9, 44, 66
1, 20039, Note_on_c, 9, 44, 0
1, 20175, Note_on_c, 9, 36, 109
1, 20190, Note_on_c, 9, 42, 65
1, 20399, Note_on_c, 9, 36, 0
1, 20415, Note_on_c, 9, 44, 72
1, 20639, Note_on_c, 9, 42, 0
1, 20639, Note_on_c, 9, 44, 0
1, 20655, Note_on_c, 9, 40, 95
1, 20655, Note_on_c, 9, 42, 68
1, 20879, Note_on_c, 9, 40, 0
1, 20879, Note_on_c, 9, 42, 0
1, 20895, Note_on_c, 9, 44, 71
1, 21119, Note_on_c, 9, 44, 0
1, 21135, Note_on_c, 9, 42, 66
1, 21135, Note_on_c, 9, 36, 100
1, 21359, Note_on_c, 9, 42, 0
1, 21359, Note_on_c, 9, 36, 0
1, 21375, Note_on_c, 9, 44, 67
1, 21599, Note_on_c, 9, 44, 0
1, 21615, Note_on_c, 9, 40, 94
1, 21615, Note_on_c, 9, 42, 65
1, 21839, Note_on_c, 9, 40, 0
1, 21839, Note_on_c, 9, 42, 0
1, 21855, Note_on_c, 9, 44, 68
1, 22079, Note_on_c, 9, 44, 0
1, 22095, Note_on_c, 9, 42, 63
1, 22095, Note_on_c, 9, 36, 105
1, 22319, Note_on_c, 9, 42, 0
1, 22319, Note_on_c, 9, 36, 0
1, 22335, Note_on_c, 9, 44, 71
1, 22559, Note_on_c, 9, 44, 0
1, 22575, Note_on_c, 9, 40, 92
1, 22575, Note_on_c, 9, 42, 69
1, 22799, Note_on_c, 9, 40, 0
1, 22799, Note_on_c, 9, 42, 0
1, 22815, Note_on_c, 9, 44, 71
1, 23039, Note_on_c, 9, 44, 0
1, 23055, Note_on_c, 9, 42, 69
1, 23055, Note_on_c, 9, 36, 100
1, 23279, Note_on_c, 9, 42, 0
1, 23279, Note_on_c, 9, 36, 0
1, 23295, Note_on_c, 9, 44, 72
1, 23519, Note_on_c, 9, 44, 0
1, 23535, Note_on_c, 9, 40, 95
1, 23549, Note_on_c, 9, 40, 0
1, 23550, Note_on_c, 9, 42, 66
1, 23775, Note_on_c, 9, 44, 70
1, 23999, Note_on_c, 9, 42, 0
1, 23999, Note_on_c, 9, 44, 0
1, 24015, Note_on_c, 9, 42, 68
1, 24015, Note_on_c, 9, 36, 95
1, 24239, Note_on_c, 9, 42, 0
1, 24239, Note_on_c, 9, 36, 0
1, 24255, Note_on_c, 9, 44, 65
1, 24479, Note_on_c, 9, 44, 0
1, 24495, Note_on_c, 9, 40, 105
1, 24495, Note_on_c, 9, 42, 66
1, 24719, Note_on_c, 9, 40, 0
1, 24719, Note_on_c, 9, 42, 0
1, 24735, Note_on_c, 9, 46, 72
1, 24959, Note_on_c, 9, 46, 0
1, 24975, Note_on_c, 9, 42, 65
1, 24975, Note_on_c, 9, 36, 103
1, 25199, Note_on_c, 9, 42, 0
1, 25199, Note_on_c, 9, 36, 0
1, 25215, Note_on_c, 9, 44, 67
1, 25439, Note_on_c, 9, 44, 0
1, 25455, Note_on_c, 9, 40, 103
1, 25455, Note_on_c, 9, 42, 66
1, 25679, Note_on_c, 9, 40, 0
1, 25679, Note_on_c, 9, 42, 0
1, 25695, Note_on_c, 9, 44, 71
1, 25919, Note_on_c, 9, 44, 0
1, 25935, Note_on_c, 9, 42, 66
1, 25935, Note_on_c, 9, 36, 103
1, 26159, Note_on_c, 9, 42, 0
1, 26159, Note_on_c, 9, 36, 0
1, 26175, Note_on_c, 9, 44, 73
1, 26399, Note_on_c, 9, 44, 0
1, 26415, Note_on_c, 9, 40, 96
1, 26415, Note_on_c, 9, 42, 68
1, 26639, Note_on_c, 9, 40, 0
1, 26639, Note_on_c, 9, 42, 0
1, 26655, Note_on_c, 9, 44, 70
1, 26879, Note_on_c, 9, 44, 0
1, 26895, Note_on_c, 9, 42, 67
1, 26895, Note_on_c, 9, 36, 92
1, 27119, Note_on_c, 9, 42, 0
1, 27119, Note_on_c, 9, 36, 0
1, 27135, Note_on_c, 9, 44, 73
1, 27359, Note_on_c, 9, 44, 0
1, 27375, Note_on_c, 9, 40, 91
1, 27375, Note_on_c, 9, 42, 67
1, 27599, Note_on_c, 9, 40, 0
1, 27599, Note_on_c, 9, 42, 0
1, 27615, Note_on_c, 9, 44, 67
1, 27839, Note_on_c, 9, 44, 0
1, 27855, Note_on_c, 9, 36, 105
1, 27870, Note_on_c, 9, 42, 68
1, 28079, Note_on_c, 9, 36, 0
1, 28095, Note_on_c, 9, 44, 67
1, 28319, Note_on_c, 9, 42, 0
1, 28319, Note_on_c, 9, 44, 0
1, 28335, Note_on_c, 9, 40, 100
1, 28335, Note_on_c, 9, 42, 65
1, 28559, Note_on_c, 9, 40, 0
1, 28559, Note_on_c, 9, 42, 0
1, 28575, Note_on_c, 9, 44, 65
1, 28799, Note_on_c, 9, 44, 0
1, 28815, Note_on_c, 9, 42, 66
1, 28815, Note_on_c, 9, 36, 103
1, 29039, Note_on_c, 9, 42, 0
1, 29039, Note_on_c, 9, 36, 0
1, 29055, Note_on_c, 9, 44, 67
1, 29279, Note_on_c, 9, 44, 0
1, 29295, Note_on_c, 9, 40, 97
1, 29295, Note_on_c, 9, 42, 67
1, 29519, Note_on_c, 9, 40, 0
1, 29519, Note_on_c, 9, 42, 0
1, 29550, Note_on_c, 9, 44, 69
1, 29639, Note_on_c, 9, 44, 0
1, 29790, Note_on_c, 9, 42, 68
1, 29790, Note_on_c, 9, 36, 100
1, 29879, Note_on_c, 9, 36, 0
1, 30015, Note_on_c, 9, 44, 68
1, 30239, Note_on_c, 9, 42, 0
1, 30239, Note_on_c, 9, 44, 0
1, 30255, Note_on_c, 9, 42, 65
1, 30269, Note_on_c, 9, 42, 0
1, 30270, Note_on_c, 9, 40, 98
1, 30510, Note_on_c, 9, 44, 70
1, 30599, Note_on_c, 9, 44, 0
1, 30719, Note_on_c, 9, 40, 0
1, 30750, Note_on_c, 9, 42, 65
1, 30750, Note_on_c, 9, 36, 103
1, 30839, Note_on_c, 9, 36, 0
1, 30990, Note_on_c, 9, 44, 69
1, 31079, Note_on_c, 9, 44, 0
1, 31199, Note_on_c, 9, 42, 0
1, 31230, Note_on_c, 9, 40, 100
1, 31230, Note_on_c, 9, 42, 65
1, 31319, Note_on_c, 9, 40, 0
1, 31319, Note_on_c, 9, 42, 0
1, 31470, Note_on_c, 9, 46, 72
1, 31559, Note_on_c, 9, 46, 0
1, 31710, Note_on_c, 9, 42, 64
1, 31710, Note_on_c, 9, 36, 98
1, 31799, Note_on_c, 9, 36, 0
1, 31935, Note_on_c, 9, 44, 78
1, 32159, Note_on_c, 9, 42, 0
1, 32159, Note_on_c, 9, 44, 0
1, 32175, Note_on_c, 9, 42, 65
1, 32189, Note_on_c, 9, 42, 0
1, 32190, Note_on_c, 9, 40, 103
1, 32279, Note_on_c, 9, 40, 0
1, 32415, Note_on_c, 9, 40, 79
1, 32415, Note_on_c, 9, 44, 70
1, 32459, Note_on_c, 9, 40, 0
1, 32475, Note_on_c, 9, 40, 57
1, 32519, Note_on_c, 9, 40, 0
1, 32520, Note_on_c, 9, 40, 53
1, 32579, Note_on_c, 9, 40, 0
1, 32580, Note_on_c, 9, 40, 52
1, 32639, Note_on_c, 9, 44, 0
1, 32639, Note_on_c, 9, 40, 0
1, 32640, Note_on_c, 9, 42, 64
1, 32640, Note_on_c, 9, 36, 98
1, 32879, Note_on_c, 9, 36, 0
1, 32895, Note_on_c, 9, 44, 65
1, 33119, Note_on_c, 9, 42, 0
1, 33119, Note_on_c, 9, 44, 0
1, 33135, Note_on_c, 9, 40, 98
1, 33135, Note_on_c, 9, 42, 67
1, 33359, Note_on_c, 9, 40, 0
1, 33359, Note_on_c, 9, 42, 0
1, 33375, Note_on_c, 9, 44, 66
1, 33599, Note_on_c, 9, 44, 0
1, 33615, Note_on_c, 9, 42, 65
1, 33630, Note_on_c, 9, 36, 100
1, 33719, Note_on_c, 9, 36, 0
1, 33839, Note_on_c, 9, 42, 0
1, 33855, Note_on_c, 9, 44, 69
1, 34079, Note_on_c, 9, 44, 0
1, 34095, Note_on_c, 9, 42, 66
1, 34109, Note_on_c, 9, 42, 0
1, 34110, Note_on_c, 9, 40, 98
1, 34335, Note_on_c, 9, 44, 72
1, 34559, Note_on_c, 9, 40, 0
1, 34559, Note_on_c, 9, 44, 0
1, 34575, Note_on_c, 9, 42, 67
1, 34575, Note_on_c, 9, 36, 98
1, 34799, Note_on_c, 9, 42, 0
1, 34799, Note_on_c, 9, 36, 0
1, 34815, Note_on_c, 9, 44, 69
1, 35039, Note_on_c, 9, 44, 0
1, 35055, Note_on_c, 9, 40, 95
1, 35055, Note_on_c, 9, 42, 64
1, 35279, Note_on_c, 9, 40, 0
1, 35279, Note_on_c, 9, 42, 0
1, 35295, Note_on_c, 9, 44, 64
1, 35519, Note_on_c, 9, 44, 0
1, 35535, Note_on_c, 9, 42, 65
1, 35535, Note_on_c, 9, 36, 109
1, 35759, Note_on_c, 9, 42, 0
1, 35759, Note_on_c, 9, 36, 0
1, 35775, Note_on_c, 9, 44, 63
1, 35999, Note_on_c, 9, 44, 0
1, 36015, Note_on_c, 9, 40, 95
1, 36015, Note_on_c, 9, 42, 66
1, 36239, Note_on_c, 9, 40, 0
1, 36239, Note_on_c, 9, 42, 0
1, 36255, Note_on_c, 9, 44, 72
1, 36479, Note_on_c, 9, 44, 0
1, 36495, Note_on_c, 9, 42, 68
1, 36495, Note_on_c, 9, 36, 98
1, 36719, Note_on_c, 9, 42, 0
1, 36719, Note_on_c, 9, 36, 0
1, 36735, Note_on_c, 9, 44, 71
1, 36959, Note_on_c, 9, 44, 0
1, 36975, Note_on_c, 9, 40, 98
1, 36975, Note_on_c, 9, 42, 65
1, 37199, Note_on_c, 9, 40, 0
1, 37199, Note_on_c, 9, 42, 0
1, 37215, Note_on_c, 9, 44, 66
1, 37439, Note_on_c, 9, 44, 0
1, 37455, Note_on_c, 9, 42, 65
1, 37455, Note_on_c, 9, 36, 98
1, 37679, Note_on_c, 9, 42, 0
1, 37679, Note_on_c, 9, 36, 0
1, 37695, Note_on_c, 9, 44, 72
1, 37919, Note_on_c, 9, 44, 0
1, 37935, Note_on_c, 9, 40, 97
1, 37935, Note_on_c, 9, 42, 65
1, 38159, Note_on_c, 9, 40, 0
1, 38159, Note_on_c, 9, 42, 0
1, 38175, Note_on_c, 9, 44, 74
1, 38399, Note_on_c, 9, 44, 0
1, 38415, Note_on_c, 9, 42, 67
1, 38415, Note_on_c, 9, 36, 100
1, 38639, Note_on_c, 9, 42, 0
1, 38639, Note_on_c, 9, 36, 0
1, 38655, Note_on_c, 9, 44, 72
1, 38879, Note_on_c, 9, 44, 0
1, 38895, Note_on_c, 9, 40, 98
1, 38895, Note_on_c, 9, 42, 64
1, 39119, Note_on_c, 9, 40, 0
1, 39119, Note_on_c, 9, 42, 0
1, 39135, Note_on_c, 9, 44, 70
1, 39359, Note_on_c, 9, 44, 0
1, 39375, Note_on_c, 9, 42, 66
1, 39375, Note_on_c, 9, 36, 98
1, 39599, Note_on_c, 9, 42, 0
1, 39599, Note_on_c, 9, 36, 0
1, 39615, Note_on_c, 9, 44, 69
1, 39839, Note_on_c, 9, 44, 0
1, 39870, Note_on_c, 9, 40, 100
1, 39870, Note_on_c, 9, 42, 65
1, 39959, Note_on_c, 9, 40, 0
1, 39959, Note_on_c, 9, 42, 0
1, 40110, Note_on_c, 9, 46, 70
1, 40199, Note_on_c, 9, 46, 0
1, 40350, Note_on_c, 9, 42, 66
1, 40350, Note_on_c, 9, 36, 95
1, 40439, Note_on_c, 9, 36, 0
1, 40590, Note_on_c, 9, 44, 64
1, 40679, Note_on_c, 9, 44, 0
1, 40799, Note_on_c, 9, 42, 0
1, 40830, Note_on_c, 9, 40, 100
1, 40830, Note_on_c, 9, 42, 56
1, 41055, Note_on_c, 9, 44, 72
1, 41279, Note_on_c, 9, 40, 0
1, 41279, Note_on_c, 9, 42, 0
1, 41279, Note_on_c, 9, 44, 0
1, 41295, Note_on_c, 9, 42, 64
1, 41310, Note_on_c, 9, 36, 95
1, 41399, Note_on_c, 9, 36, 0
1, 41519, Note_on_c, 9, 42, 0
1, 41535, Note_on_c, 9, 44, 68
1, 41759, Note_on_c, 9, 44, 0
1, 41775, Note_on_c, 9, 40, 100
1, 41775, Note_on_c, 9, 42, 66
1, 41999, Note_on_c, 9, 40, 0
1, 41999, Note_on_c, 9, 42, 0
1, 42015, Note_on_c, 9, 44, 69
1, 42239, Note_on_c, 9, 44, 0
1, 42255, Note_on_c, 9, 42, 65
1, 42255, Note_on_c, 9, 36, 100
1, 42479, Note_on_c, 9, 42, 0
1, 42479, Note_on_c, 9, 36, 0
1, 42495, Note_on_c, 9, 44, 72
1, 42719, Note_on_c, 9, 44, 0
1, 42735, Note_on_c, 9, 40, 95
1, 42735, Note_on_c, 9, 42, 65
1, 42959, Note_on_c, 9, 40, 0
1, 42959, Note_on_c, 9, 42, 0
1, 42975, Note_on_c, 9, 44, 69
1, 43199, Note_on_c, 9, 44, 0
1, 43215, Note_on_c, 9, 42, 66
1, 43230, Note_on_c, 9, 36, 82
1, 43319, Note_on_c, 9, 36, 0
1, 43439, Note_on_c, 9, 42, 0
1, 43455, Note_on_c, 9, 44, 68
1, 43679, Note_on_c, 9, 44, 0
1, 43695, Note_on_c, 9, 40, 98
1, 43695, Note_on_c, 9, 42, 65
1, 43919, Note_on_c, 9, 40, 0
1, 43919, Note_on_c, 9, 42, 0
1, 43935, Note_on_c, 9, 44, 67
1, 44159, Note_on_c, 9, 44, 0
1, 44175, Note_on_c, 9, 42, 66
1, 44175, Note_on_c, 9, 36, 100
1, 44399, Note_on_c, 9, 42, 0
1, 44399, Note_on_c, 9, 36, 0
1, 44415, Note_on_c, 9, 44, 68
1, 44639, Note_on_c, 9, 44, 0
1, 44655, Note_on_c, 9, 40, 98
1, 44655, Note_on_c, 9, 42, 65
1, 44879, Note_on_c, 9, 40, 0
1, 44879, Note_on_c, 9, 42, 0
1, 44895, Note_on_c, 9, 44, 72
1, 45119, Note_on_c, 9, 44, 0
1, 45135, Note_on_c, 9, 42, 63
1, 45135, Note_on_c, 9, 36, 98
1, 45359, Note_on_c, 9, 42, 0
1, 45359, Note_on_c, 9, 36, 0
1, 45375, Note_on_c, 9, 44, 65
1, 45599, Note_on_c, 9, 44, 0
1, 45615, Note_on_c, 9, 40, 100
1, 45629, Note_on_c, 9, 40, 0
1, 45630, Note_on_c, 9, 42, 68
1, 45855, Note_on_c, 9, 44, 74
1, 46079, Note_on_c, 9, 42, 0
1, 46079, Note_on_c, 9, 44, 0
1, 46095, Note_on_c, 9, 42, 64
1, 46095, Note_on_c, 9, 36, 103
1, 46319, Note_on_c, 9, 42, 0
1, 46319, Note_on_c, 9, 36, 0
1, 46335, Note_on_c, 9, 44, 73
1, 46559, Note_on_c, 9, 44, 0
1, 46575, Note_on_c, 9, 40, 110
1, 46575, Note_on_c, 9, 42, 65
1, 46799, Note_on_c, 9, 40, 0
1, 46799, Note_on_c, 9, 42, 0
1, 46815, Note_on_c, 9, 46, 63
1, 47039, Note_on_c, 9, 46, 0
1, 47055, Note_on_c, 9, 42, 65
1, 47055, Note_on_c, 9, 36, 95
1, 47279, Note_on_c, 9, 42, 0
1, 47279, Note_on_c, 9, 36, 0
1, 47295, Note_on_c, 9, 40, 78
1, 47295, Note_on_c, 9, 42, 69
1, 47339, Note_on_c, 9, 40, 0
1, 47339, Note_on_c, 9, 42, 0
1, 47355, Note_on_c, 9, 40, 53
1, 47399, Note_on_c, 9, 40, 0
1, 47415, Note_on_c, 9, 40, 43
1, 47459, Note_on_c, 9, 40, 0
1, 47475, Note_on_c, 9, 40, 39
1, 47519, Note_on_c, 9, 40, 0
1, 47535, Note_on_c, 9, 40, 37
1, 47549, Note_on_c, 9, 40, 0
1, 47550, Note_on_c, 9, 42, 66
1, 47579, Note_on_c, 9, 42, 0
1, 47595, Note_on_c, 9, 40, 35
1, 47639, Note_on_c, 9, 40, 0
1, 47670, Note_on_c, 9, 40, 35
1, 47729, Note_on_c, 9, 40, 0
1, 47730, Note_on_c, 9, 40, 38
1, 47804, Note_on_c, 9, 40, 0
1, 47805, Note_on_c, 9, 40, 39
1, 47820, Note_on_c, 9, 44, 68
1, 47864, Note_on_c, 9, 40, 0
1, 47865, Note_on_c, 9, 40, 38
1, 47924, Note_on_c, 9, 40, 0
1, 47925, Note_on_c, 9, 40, 36
1, 47939, Note_on_c, 9, 40, 0
1, 47999, Note_on_c, 9, 44, 0
1, 48000, Note_on_c, 9, 40, 30
1, 48059, Note_on_c, 9, 40, 0
1, 48075, Note_on_c, 9, 42, 72
1, 48075, Note_on_c, 9, 36, 98
1, 48119, Note_on_c, 9, 36, 0
1, 48300, Note_on_c, 9, 44, 69
1, 48479, Note_on_c, 9, 42, 0
1, 48479, Note_on_c, 9, 44, 0
1, 48540, Note_on_c, 9, 40, 103
1, 48540, Note_on_c, 9, 42, 68
1, 48719, Note_on_c, 9, 40, 0
1, 48719, Note_on_c, 9, 42, 0
1, 48765, Note_on_c, 9, 44, 67
1, 48959, Note_on_c, 9, 44, 0
1, 48990, Note_on_c, 9, 42, 62
1, 48990, Note_on_c, 9, 36, 100
1, 49079, Note_on_c, 9, 36, 0
1, 49230, Note_on_c, 9, 44, 65
1, 49319, Note_on_c, 9, 44, 0
1, 49439, Note_on_c, 9, 42, 0
1, 49455, Note_on_c, 9, 40, 100
1, 49455, Note_on_c, 9, 42, 69
1, 49679, Note_on_c, 9, 40, 0
1, 49679, Note_on_c, 9, 42, 0
1, 49680, Note_on_c, 9, 44, 69
1, 49919, Note_on_c, 9, 44, 0
1, 49920, Note_on_c, 9, 42, 68
1, 49920, Note_on_c, 9, 36, 95
1, 50159, Note_on_c, 9, 36, 0
1, 50175, Note_on_c, 9, 44, 72
1, 50399, Note_on_c, 9, 42, 0
1, 50399, Note_on_c, 9, 44, 0
1, 50415, Note_on_c, 9, 40, 95
1, 50415, Note_on_c, 9, 42, 67
1, 50639, Note_on_c, 9, 40, 0
1, 50639, Note_on_c, 9, 42, 0
1, 50670, Note_on_c, 9, 44, 66
1, 50759, Note_on_c, 9, 44, 0
1, 50895, Note_on_c, 9, 36, 109
1, 50910, Note_on_c, 9, 42, 65
1, 51119, Note_on_c, 9, 36, 0
1, 51135, Note_on_c, 9, 44, 72
1, 51359, Note_on_c, 9, 42, 0
1, 51359, Note_on_c, 9, 44, 0
1, 51375, Note_on_c, 9, 40, 95
1, 51375, Note_on_c, 9, 42, 68
1, 51599, Note_on_c, 9, 40, 0
1, 51599, Note_on_c, 9, 42, 0
1, 51615, Note_on_c, 9, 44, 71
1, 51839, Note_on_c, 9, 44, 0
1, 51855, Note_on_c, 9, 42, 66
1, 51855, Note_on_c, 9, 36, 100
1, 52079, Note_on_c, 9, 42, 0
1, 52079, Note_on_c, 9, 36, 0
1, 52095, Note_on_c, 9, 44, 67
1, 52319, Note_on_c, 9, 44, 0
1, 52335, Note_on_c, 9, 40, 96
1, 52335, Note_on_c, 9, 42, 65
1, 52559, Note_on_c, 9, 40, 0
1, 52559, Note_on_c, 9, 42, 0
1, 52575, Note_on_c, 9, 44, 68
1, 52799, Note_on_c, 9, 44, 0
1, 52815, Note_on_c, 9, 42, 63
1, 52815, Note_on_c, 9, 36, 105
1, 53039, Note_on_c, 9, 42, 0
1, 53039, Note_on_c, 9, 36, 0
1, 53055, Note_on_c, 9, 44, 71
1, 53279, Note_on_c, 9, 44, 0
1, 53295, Note_on_c, 9, 40, 97
1, 53295, Note_on_c, 9, 42, 69
1, 53519, Note_on_c, 9, 40, 0
1, 53519, Note_on_c, 9, 42, 0
1, 53535, Note_on_c, 9, 44, 71
1, 53759, Note_on_c, 9, 44, 0
1, 53775, Note_on_c, 9, 42, 69
1, 53775, Note_on_c, 9, 36, 100
1, 53999, Note_on_c, 9, 42, 0
1, 53999, Note_on_c, 9, 36, 0
1, 54015, Note_on_c, 9, 44, 72
1, 54239, Note_on_c, 9, 44, 0
1, 54255, Note_on_c, 9, 40, 95
1, 54269, Note_on_c, 9, 40, 0
1, 54270, Note_on_c, 9, 42, 66
1, 54495, Note_on_c, 9, 44, 70
1, 54719, Note_on_c, 9, 42, 0
1, 54719, Note_on_c, 9, 44, 0
1, 54735, Note_on_c, 9, 42, 68
1, 54735, Note_on_c, 9, 36, 95
1, 54959, Note_on_c, 9, 42, 0
1, 54959, Note_on_c, 9, 36, 0
1, 54975, Note_on_c, 9, 44, 65
1, 55199, Note_on_c, 9, 44, 0
1, 55215, Note_on_c, 9, 40, 105
1, 55215, Note_on_c, 9, 42, 66
1, 55439, Note_on_c, 9, 40, 0
1, 55439, Note_on_c, 9, 42, 0
1, 55455, Note_on_c, 9, 46, 72
1, 55679, Note_on_c, 9, 46, 0
1, 55695, Note_on_c, 9, 42, 65
1, 55695, Note_on_c, 9, 36, 103
1, 55919, Note_on_c, 9, 42, 0
1, 55919, Note_on_c, 9, 36, 0
1, 55935, Note_on_c, 9, 44, 67
1, 56159, Note_on_c, 9, 44, 0
1, 56175, Note_on_c, 9, 40, 103
1, 56175, Note_on_c, 9, 42, 66
1, 56399, Note_on_c, 9, 40, 0
1, 56399, Note_on_c, 9, 42, 0
1, 56415, Note_on_c, 9, 44, 71
1, 56639, Note_on_c, 9, 44, 0
1, 56655, Note_on_c, 9, 42, 66
1, 56655, Note_on_c, 9, 36, 103
1, 56879, Note_on_c, 9, 42, 0
1, 56879, Note_on_c, 9, 36, 0
1, 56895, Note_on_c, 9, 44, 73
1, 57119, Note_on_c, 9, 44, 0
1, 57135, Note_on_c, 9, 40, 97
1, 57135, Note_on_c, 9, 42, 68
1, 57359, Note_on_c, 9, 40, 0
1, 57359, Note_on_c, 9, 42, 0
1, 57375, Note_on_c, 9, 44, 70
1, 57599, Note_on_c, 9, 44, 0
1, 57615, Note_on_c, 9, 42, 67
1, 57615, Note_on_c, 9, 36, 92
1, 57839, Note_on_c, 9, 42, 0
1, 57839, Note_on_c, 9, 36, 0
1, 57855, Note_on_c, 9, 44, 73
1, 58079, Note_on_c, 9, 44, 0
1, 58095, Note_on_c, 9, 40, 97
1, 58095, Note_on_c, 9, 42, 67
1, 58319, Note_on_c, 9, 40, 0
1, 58319, Note_on_c, 9, 42, 0
1, 58335, Note_on_c, 9, 44, 67
1, 58559, Note_on_c, 9, 44, 0
1, 58575, Note_on_c, 9, 36, 105
1, 58590, Note_on_c, 9, 42, 68
1, 58799, Note_on_c, 9, 36, 0
1, 58815, Note_on_c, 9, 44, 67
1, 59039, Note_on_c, 9, 42, 0
1, 59039, Note_on_c, 9, 44, 0
1, 59055, Note_on_c, 9, 40, 100
1, 59055, Note_on_c, 9, 42, 65
1, 59279, Note_on_c, 9, 40, 0
1, 59279, Note_on_c, 9, 42, 0
1, 59295, Note_on_c, 9, 44, 65
1, 59519, Note_on_c, 9, 44, 0
1, 59535, Note_on_c, 9, 42, 66
1, 59535, Note_on_c, 9, 36, 103
1, 59759, Note_on_c, 9, 42, 0
1, 59759, Note_on_c, 9, 36, 0
1, 59775, Note_on_c, 9, 44, 67
1, 59999, Note_on_c, 9, 44, 0
1, 60015, Note_on_c, 9, 40, 99
1, 60015, Note_on_c, 9, 42, 67
1, 60239, Note_on_c, 9, 40, 0
1, 60239, Note_on_c, 9, 42, 0
1, 60270, Note_on_c, 9, 44, 69
1, 60359, Note_on_c, 9, 44, 0
1, 60510, Note_on_c, 9, 42, 68
1, 60510, Note_on_c, 9, 36, 100
1, 60599, Note_on_c, 9, 36, 0
1, 60750, Note_on_c, 9, 44, 68
1, 60839, Note_on_c, 9, 44, 0
1, 60959, Note_on_c, 9, 42, 0
1, 60975, Note_on_c, 9, 42, 65
1, 60989, Note_on_c, 9, 42, 0
1, 60990, Note_on_c, 9, 40, 98
1, 61230, Note_on_c, 9, 44, 70
1, 61319, Note_on_c, 9, 44, 0
1, 61439, Note_on_c, 9, 40, 0
1, 61470, Note_on_c, 9, 42, 65
1, 61470, Note_on_c, 9, 36, 103
1, 61559, Note_on_c, 9, 36, 0
1, 61710, Note_on_c, 9, 44, 69
1, 61799, Note_on_c, 9, 44, 0
1, 61919, Note_on_c, 9, 42, 0
1, 61950, Note_on_c, 9, 40, 100
1, 61950, Note_on_c, 9, 42, 65
1, 62039, Note_on_c, 9, 40, 0
1, 62039, Note_on_c, 9, 42, 0
1, 62190, Note_on_c, 9, 46, 72
1, 62279, Note_on_c, 9, 46, 0
1, 62430, Note_on_c, 9, 42, 64
1, 62430, Note_on_c, 9, 36, 98
1, 62519, Note_on_c, 9, 36, 0
1, 62655, Note_on_c, 9, 44, 78
1, 62879, Note_on_c, 9, 42, 0
1, 62879, Note_on_c, 9, 44, 0
1, 62895, Note_on_c, 9, 42, 65
1, 62909, Note_on_c, 9, 42, 0
1, 62910, Note_on_c, 9, 40, 103
1, 62999, Note_on_c, 9, 40, 0
1, 63135, Note_on_c, 9, 40, 79
1, 63135, Note_on_c, 9, 44, 70
1, 63179, Note_on_c, 9, 40, 0
1, 63195, Note_on_c, 9, 40, 57
1, 63239, Note_on_c, 9, 40, 0
1, 63240, Note_on_c, 9, 40, 53
1, 63299, Note_on_c, 9, 40, 0
1, 63300, Note_on_c, 9, 40, 52
1, 63359, Note_on_c, 9, 44, 0
1, 63359, Note_on_c, 9, 40, 0
1, 63360, Note_on_c, 9, 42, 64
1, 63360, Note_on_c, 9, 36, 98
1, 63599, Note_on_c, 9, 36, 0
1, 63615, Note_on_c, 9, 44, 65
1, 63839, Note_on_c, 9, 42, 0
1, 63839, Note_on_c, 9, 44, 0
1, 63855, Note_on_c, 9, 40, 102
1, 63855, Note_on_c, 9, 42, 67
1, 64079, Note_on_c, 9, 40, 0
1, 64079, Note_on_c, 9, 42, 0
1, 64095, Note_on_c, 9, 44, 66
1, 64319, Note_on_c, 9, 44, 0
1, 64335, Note_on_c, 9, 42, 65
1, 64350, Note_on_c, 9, 36, 100
1, 64439, Note_on_c, 9, 36, 0
1, 64559, Note_on_c, 9, 42, 0
1, 64575, Note_on_c, 9, 44, 69
1, 64799, Note_on_c, 9, 44, 0
1, 64815, Note_on_c, 9, 42, 66
1, 64829, Note_on_c, 9, 42, 0
1, 64830, Note_on_c, 9, 40, 98
1, 65055, Note_on_c, 9, 44, 72
1, 65279, Note_on_c, 9, 40, 0
1, 65279, Note_on_c, 9, 44, 0
1, 65295, Note_on_c, 9, 42, 67
1, 65295, Note_on_c, 9, 36, 98
1, 65519, Note_on_c, 9, 42, 0
1, 65519, Note_on_c, 9, 36, 0
1, 65535, Note_on_c, 9, 44, 69
1, 65759, Note_on_c, 9, 44, 0
1, 65775, Note_on_c, 9, 40, 95
1, 65775, Note_on_c, 9, 42, 64
1, 65999, Note_on_c, 9, 40, 0
1, 65999, Note_on_c, 9, 42, 0
1, 66015, Note_on_c, 9, 44, 64
1, 66239, Note_on_c, 9, 44, 0
1, 66255, Note_on_c, 9, 42, 65
1, 66255, Note_on_c, 9, 36, 109
1, 66479, Note_on_c, 9, 42, 0
1, 66479, Note_on_c, 9, 36, 0
1, 66495, Note_on_c, 9, 44, 63
1, 66719, Note_on_c, 9, 44, 0
1, 66735, Note_on_c, 9, 40, 95
1, 66735, Note_on_c, 9, 42, 66
1, 66959, Note_on_c, 9, 40, 0
1, 66959, Note_on_c, 9, 42, 0
1, 66975, Note_on_c, 9, 44, 72
1, 67199, Note_on_c, 9, 44, 0
1, 67215, Note_on_c, 9, 42, 68
1, 67230, Note_on_c, 9, 36, 98
1, 67319, Note_on_c, 9, 36, 0
1, 67439, Note_on_c, 9, 42, 0
1, 67455, Note_on_c, 9, 44, 71
1, 67679, Note_on_c, 9, 44, 0
1, 67695, Note_on_c, 9, 40, 97
1, 67695, Note_on_c, 9, 42, 65
1, 67919, Note_on_c, 9, 40, 0
1, 67919, Note_on_c, 9, 42, 0
1, 67935, Note_on_c, 9, 44, 66
1, 68159, Note_on_c, 9, 44, 0
1, 68175, Note_on_c, 9, 42, 65
1, 68175, Note_on_c, 9, 36, 98
1, 68399, Note_on_c, 9, 42, 0
1, 68399, Note_on_c, 9, 36, 0
1, 68415, Note_on_c, 9, 44, 72
1, 68639, Note_on_c, 9, 44, 0
1, 68655, Note_on_c, 9, 40, 98
1, 68655, Note_on_c, 9, 42, 65
1, 68879, Note_on_c, 9, 40, 0
1, 68879, Note_on_c, 9, 42, 0
1, 68895, Note_on_c, 9, 44, 74
1, 69119, Note_on_c, 9, 44, 0
1, 69135, Note_on_c, 9, 42, 67
1, 69150, Note_on_c, 9, 36, 100
1, 69239, Note_on_c, 9, 36, 0
1, 69359, Note_on_c, 9, 42, 0
1, 69375, Note_on_c, 9, 44, 72
1, 69599, Note_on_c, 9, 44, 0
1, 69615, Note_on_c, 9, 40, 97
1, 69615, Note_on_c, 9, 42, 64
1, 69839, Note_on_c, 9, 40, 0
1, 69839, Note_on_c, 9, 42, 0
1, 69855, Note_on_c, 9, 44, 70
1, 70079, Note_on_c, 9, 44, 0
1, 70095, Note_on_c, 9, 42, 66
1, 70095, Note_on_c, 9, 36, 98
1, 70319, Note_on_c, 9, 42, 0
1, 70319, Note_on_c, 9, 36, 0
1, 70335, Note_on_c, 9, 44, 69
1, 70559, Note_on_c, 9, 44, 0
1, 70590, Note_on_c, 9, 40, 100
1, 70590, Note_on_c, 9, 42, 65
1, 70679, Note_on_c, 9, 40, 0
1, 70679, Note_on_c, 9, 42, 0
1, 70830, Note_on_c, 9, 46, 70
1, 70919, Note_on_c, 9, 46, 0
1, 71070, Note_on_c, 9, 42, 66
1, 71070, Note_on_c, 9, 36, 95
1, 71159, Note_on_c, 9, 36, 0
1, 71310, Note_on_c, 9, 44, 64
1, 71399, Note_on_c, 9, 44, 0
1, 71519, Note_on_c, 9, 42, 0
1, 71550, Note_on_c, 9, 40, 100
1, 71550, Note_on_c, 9, 42, 56
1, 71775, Note_on_c, 9, 44, 72
1, 71999, Note_on_c, 9, 40, 0
1, 71999, Note_on_c, 9, 42, 0
1, 71999, Note_on_c, 9, 44, 0
1, 72015, Note_on_c, 9, 42, 64
1, 72030, Note_on_c, 9, 36, 95
1, 72119, Note_on_c, 9, 36, 0
1, 72239, Note_on_c, 9, 42, 0
1, 72255, Note_on_c, 9, 44, 68
1, 72479, Note_on_c, 9, 44, 0
1, 72495, Note_on_c, 9, 40, 100
1, 72495, Note_on_c, 9, 42, 66
1, 72719, Note_on_c, 9, 40, 0
1, 72719, Note_on_c, 9, 42, 0
1, 72735, Note_on_c, 9, 44, 69
1, 72959, Note_on_c, 9, 44, 0
1, 72975, Note_on_c, 9, 42, 65
1, 72975, Note_on_c, 9, 36, 100
1, 73199, Note_on_c, 9, 42, 0
1, 73199, Note_on_c, 9, 36, 0
1, 73215, Note_on_c, 9, 44, 72
1, 73439, Note_on_c, 9, 44, 0
1, 73455, Note_on_c, 9, 40, 95
1, 73455, Note_on_c, 9, 42, 65
1, 73679, Note_on_c, 9, 40, 0
1, 73679, Note_on_c, 9, 42, 0
1, 73695, Note_on_c, 9, 44, 69
1, 73919, Note_on_c, 9, 44, 0
1, 73935, Note_on_c, 9, 42, 66
1, 73950, Note_on_c, 9, 36, 82
1, 74039, Note_on_c, 9, 36, 0
1, 74159, Note_on_c, 9, 42, 0
1, 74175, Note_on_c, 9, 44, 68
1, 74399, Note_on_c, 9, 44, 0
1, 74415, Note_on_c, 9, 40, 98
1, 74415, Note_on_c, 9, 42, 65
1, 74639, Note_on_c, 9, 40, 0
1, 74639, Note_on_c, 9, 42, 0
1, 74655, Note_on_c, 9, 44, 67
1, 74879, Note_on_c, 9, 44, 0
1, 74895, Note_on_c, 9, 42, 66
1, 74895, Note_on_c, 9, 36, 100
1, 75119, Note_on_c, 9, 42, 0
1, 75119, Note_on_c, 9, 36, 0
1, 75135, Note_on_c, 9, 44, 68
1, 75359, Note_on_c, 9, 44, 0
1, 75375, Note_on_c, 9, 40, 98
1, 75375, Note_on_c, 9, 42, 65
1, 75599, Note_on_c, 9, 40, 0
1, 75599, Note_on_c, 9, 42, 0
1, 75615, Note_on_c, 9, 44, 72
1, 75839, Note_on_c, 9, 44, 0
1, 75855, Note_on_c, 9, 42, 63
1, 75855, Note_on_c, 9, 36, 98
1, 76079, Note_on_c, 9, 42, 0
1, 76079, Note_on_c, 9, 36, 0
1, 76095, Note_on_c, 9, 44, 65
1, 76319, Note_on_c, 9, 44, 0
1, 76335, Note_on_c, 9, 40, 100
1, 76349, Note_on_c, 9, 40, 0
1, 76350, Note_on_c, 9, 42, 68
1, 76575, Note_on_c, 9, 44, 74
1, 76799, Note_on_c, 9, 42, 0
1, 76799, Note_on_c, 9, 44, 0
1, 76815, Note_on_c, 9, 42, 64
1, 76815, Note_on_c, 9, 36, 103
1, 77039, Note_on_c, 9, 42, 0
1, 77039, Note_on_c, 9, 36, 0
1, 77055, Note_on_c, 9, 44, 73
1, 77279, Note_on_c, 9, 44, 0
1, 77295, Note_on_c, 9, 40, 111
1, 77295, Note_on_c, 9, 42, 65
1, 77519, Note_on_c, 9, 40, 0
1, 77519, Note_on_c, 9, 42, 0
1, 77535, Note_on_c, 9, 46, 63
1, 77759, Note_on_c, 9, 46, 0
1, 77775, Note_on_c, 9, 42, 65
1, 77775, Note_on_c, 9, 36, 95
1, 77999, Note_on_c, 9, 42, 0
1, 77999, Note_on_c, 9, 36, 0
1, 78015, Note_on_c, 9, 40, 85
1, 78015, Note_on_c, 9, 42, 69
1, 78239, Note_on_c, 9, 40, 0
1, 78239, Note_on_c, 9, 42, 0
1, 78255, Note_on_c, 9, 40, 89
1, 78255, Note_on_c, 9, 42, 66
1, 78479, Note_on_c, 9, 40, 0
1, 78479, Note_on_c, 9, 42, 0
1, 78495, Note_on_c, 9, 40, 95
1, 78495, Note_on_c, 9, 44, 68
1, 78719, Note_on_c, 9, 40, 0
1, 78719, Note_on_c, 9, 44, 0
1, 78750, Note_on_c, 9, 42, 79
1, 78750, Note_on_c, 9, 49, 67
1, 78750, Note_on_c, 9, 36, 100
1, 78839, Note_on_c, 9, 42, 0
1, 78839, Note_on_c, 9, 49, 0
1, 78975, Note_on_c, 9, 42, 64
1, 79079, Note_on_c, 9, 36, 0
1, 79095, Note_on_c, 9, 44, 64
1, 79139, Note_on_c, 9, 44, 0
1, 79199, Note_on_c, 9, 42, 0
1, 79200, Note_on_c, 9, 42, 69
1, 79214, Note_on_c, 9, 42, 0
1, 79215, Note_on_c, 9, 40, 105
1, 79439, Note_on_c, 9, 40, 0
1, 79455, Note_on_c, 9, 42, 65
1, 79575, Note_on_c, 9, 44, 69
1, 79619, Note_on_c, 9, 44, 0
1, 79679, Note_on_c, 9, 42, 0
1, 79695, Note_on_c, 9, 42, 65
1, 79695, Note_on_c, 9, 36, 100
1, 79919, Note_on_c, 9, 42, 0
1, 79919, Note_on_c, 9, 36, 0
1, 79935, Note_on_c, 9, 42, 63
1, 80055, Note_on_c, 9, 44, 66
1, 80099, Note_on_c, 9, 44, 0
1, 80159, Note_on_c, 9, 42, 0
1, 80175, Note_on_c, 9, 40, 105
1, 80175, Note_on_c, 9, 42, 61
1, 80399, Note_on_c, 9, 40, 0
1, 80399, Note_on_c, 9, 42, 0
1, 80415, Note_on_c, 9, 42, 64
1, 80535, Note_on_c, 9, 44, 64
1, 80579, Note_on_c, 9, 44, 0
1, 80639, Note_on_c, 9, 42, 0
1, 80655, Note_on_c, 9, 42, 64
1, 80655, Note_on_c, 9, 36, 109
1, 80879, Note_on_c, 9, 42, 0
1, 80879, Note_on_c, 9, 36, 0
1, 80895, Note_on_c, 9, 42, 64
1, 81015, Note_on_c, 9, 44, 64
1, 81059, Note_on_c, 9, 44, 0
1, 81119, Note_on_c, 9, 42, 0
1, 81135, Note_on_c, 9, 40, 109
1, 81135, Note_on_c, 9, 42, 64
1, 81359, Note_on_c, 9, 40, 0
1, 81359, Note_on_c, 9, 42, 0
1, 81375, Note_on_c, 9, 42, 64
1, 81510, Note_on_c, 9, 44, 65
1, 81599, Note_on_c, 9, 42, 0
1, 81599, Note_on_c, 9, 44, 0
1, 81615, Note_on_c, 9, 42, 65
1, 81615, Note_on_c, 9, 36, 116
1, 81839, Note_on_c, 9, 42, 0
1, 81839, Note_on_c, 9, 36, 0
1, 81855, Note_on_c, 9, 42, 63
1, 81990, Note_on_c, 9, 44, 71
1, 82079, Note_on_c, 9, 42, 0
1, 82079, Note_on_c, 9, 44, 0
1, 82095, Note_on_c, 9, 40, 105
1, 82095, Note_on_c, 9, 42, 60
1, 82319, Note_on_c, 9, 40, 0
1, 82319, Note_on_c, 9, 42, 0
1, 82350, Note_on_c, 9, 42, 64
1, 82439, Note_on_c, 9, 42, 0
1, 82470, Note_on_c, 9, 44, 71
1, 82559, Note_on_c, 9, 44, 0
1, 82590, Note_on_c, 9, 42, 65
1, 82590, Note_on_c, 9, 36, 117
1, 82679, Note_on_c, 9, 42, 0
1, 82830, Note_on_c, 9, 42, 65
1, 82919, Note_on_c, 9, 36, 0
1, 82919, Note_on_c, 9, 42, 0
1, 82950, Note_on_c, 9, 44, 68
1, 83039, Note_on_c, 9, 44, 0
1, 83070, Note_on_c, 9, 40, 100
1, 83070, Note_on_c, 9, 42, 65
1, 83159, Note_on_c, 9, 40, 0
1, 83159, Note_on_c, 9, 42, 0
1, 83310, Note_on_c, 9, 42, 64
1, 83399, Note_on_c, 9, 42, 0
1, 83550, Note_on_c, 9, 42, 66
1, 83550, Note_on_c, 9, 36, 113
1, 83639, Note_on_c, 9, 42, 0
1, 83790, Note_on_c, 9, 42, 64
1, 83879, Note_on_c, 9, 36, 0
1, 83879, Note_on_c, 9, 42, 0
1, 83910, Note_on_c, 9, 44, 66
1, 83999, Note_on_c, 9, 44, 0
1, 84030, Note_on_c, 9, 40, 103
1, 84030, Note_on_c, 9, 42, 65
1, 84119, Note_on_c, 9, 40, 0
1, 84119, Note_on_c, 9, 42, 0
1, 84270, Note_on_c, 9, 42, 65
1, 84359, Note_on_c, 9, 42, 0
1, 84510, Note_on_c, 9, 42, 68
1, 84510, Note_on_c, 9, 36, 109
1, 84599, Note_on_c, 9, 42, 0
1, 84750, Note_on_c, 9, 42, 64
1, 84839, Note_on_c, 9, 36, 0
1, 84839, Note_on_c, 9, 42, 0
1, 84870, Note_on_c, 9, 44, 65
1, 84959, Note_on_c, 9, 44, 0
1, 84990, Note_on_c, 9, 40, 113
1, 84990, Note_on_c, 9, 42, 66
1, 85079, Note_on_c, 9, 40, 0
1, 85079, Note_on_c, 9, 42, 0
1, 85230, Note_on_c, 9, 42, 65
1, 85319, Note_on_c, 9, 42, 0
1, 85470, Note_on_c, 9, 42, 67
1, 85470, Note_on_c, 9, 36, 117
1, 85559, Note_on_c, 9, 42, 0
1, 85710, Note_on_c, 9, 42, 64
1, 85799, Note_on_c, 9, 36, 0
1, 85799, Note_on_c, 9, 42, 0
1, 85830, Note_on_c, 9, 44, 66
1, 85919, Note_on_c, 9, 44, 0
1, 85950, Note_on_c, 9, 40, 103
1, 85950, Note_on_c, 9, 42, 66
1, 86039, Note_on_c, 9, 40, 0
1, 86039, Note_on_c, 9, 42, 0
1, 86190, Note_on_c, 9, 42, 64
1, 86279, Note_on_c, 9, 42, 0
1, 86430, Note_on_c, 9, 42, 72
1, 86430, Note_on_c, 9, 49, 67
1, 86430, Note_on_c, 9, 36, 103
1, 86519, Note_on_c, 9, 42, 0
1, 86519, Note_on_c, 9, 49, 0
1, 86655, Note_on_c, 9, 42, 63
1, 86759, Note_on_c, 9, 36, 0
1, 86775, Note_on_c, 9, 44, 63
1, 86819, Note_on_c, 9, 44, 0
1, 86879, Note_on_c, 9, 42, 0
1, 86895, Note_on_c, 9, 40, 98
1, 86895, Note_on_c, 9, 42, 66
1, 87119, Note_on_c, 9, 40, 0
1, 87119, Note_on_c, 9, 42, 0
1, 87135, Note_on_c, 9, 42, 65
1, 87255, Note_on_c, 9, 44, 61
1, 87299, Note_on_c, 9, 44, 0
1, 87359, Note_on_c, 9, 42, 0
1, 87375, Note_on_c, 9, 36, 103
1, 87390, Note_on_c, 9, 42, 66
1, 87479, Note_on_c, 9, 42, 0
1, 87599, Note_on_c, 9, 36, 0
1, 87615, Note_on_c, 9, 42, 63
1, 87735, Note_on_c, 9, 44, 63
1, 87779, Note_on_c, 9, 44, 0
1, 87839, Note_on_c, 9, 42, 0
1, 87855, Note_on_c, 9, 40, 105
1, 87855, Note_on_c, 9, 42, 63
1, 88079, Note_on_c, 9, 40, 0
1, 88079, Note_on_c, 9, 42, 0
1, 88095, Note_on_c, 9, 42, 64
1, 88215, Note_on_c, 9, 44, 63
1, 88259, Note_on_c, 9, 44, 0
1, 88319, Note_on_c, 9, 42, 0
1, 88335, Note_on_c, 9, 42, 64
1, 88350, Note_on_c, 9, 36, 113
1, 88559, Note_on_c, 9, 42, 0
1, 88590, Note_on_c, 9, 42, 64
1, 88679, Note_on_c, 9, 36, 0
1, 88679, Note_on_c, 9, 42, 0
1, 88710, Note_on_c, 9, 44, 55
1, 88799, Note_on_c, 9, 44, 0
1, 88830, Note_on_c, 9, 40, 109
1, 88830, Note_on_c, 9, 42, 63
1, 88919, Note_on_c, 9, 40, 0
1, 88919, Note_on_c, 9, 42, 0
1, 89055, Note_on_c, 9, 42, 64
1, 89279, Note_on_c, 9, 42, 0
1, 89295, Note_on_c, 9, 42, 66
1, 89295, Note_on_c, 9, 36, 105
1, 89519, Note_on_c, 9, 42, 0
1, 89519, Note_on_c, 9, 36, 0
1, 89535, Note_on_c, 9, 42, 65
1, 89655, Note_on_c, 9, 44, 65
1, 89699, Note_on_c, 9, 44, 0
1, 89759, Note_on_c, 9, 42, 0
1, 89775, Note_on_c, 9, 40, 103
1, 89775, Note_on_c, 9, 42, 64
1, 89999, Note_on_c, 9, 40, 0
1, 89999, Note_on_c, 9, 42, 0
1, 90015, Note_on_c, 9, 42, 63
1, 90239, Note_on_c, 9, 42, 0
1, 90255, Note_on_c, 9, 42, 68
1, 90255, Note_on_c, 9, 36, 116
1, 90479, Note_on_c, 9, 42, 0
1, 90479, Note_on_c, 9, 36, 0
1, 90510, Note_on_c, 9, 42, 65
1, 90599, Note_on_c, 9, 42, 0
1, 90630, Note_on_c, 9, 44, 62
1, 90719, Note_on_c, 9, 44, 0
1, 90750, Note_on_c, 9, 40, 105
1, 90750, Note_on_c, 9, 42, 66
1, 90839, Note_on_c, 9, 40, 0
1, 90839, Note_on_c, 9, 42, 0
1, 90990, Note_on_c, 9, 42, 63
1, 91079, Note_on_c, 9, 42, 0
1, 91230, Note_on_c, 9, 42, 65
1, 91230, Note_on_c, 9, 36, 113
1, 91319, Note_on_c, 9, 42, 0
1, 91470, Note_on_c, 9, 42, 64
1, 91559, Note_on_c, 9, 36, 0
1, 91559, Note_on_c, 9, 42, 0
1, 91590, Note_on_c, 9, 44, 66
1, 91679, Note_on_c, 9, 44, 0
1, 91710, Note_on_c, 9, 40, 104
1, 91710, Note_on_c, 9, 42, 104
1, 91799, Note_on_c, 9, 40, 0
1, 91799, Note_on_c, 9, 42, 0
1, 91950, Note_on_c, 9, 42, 64
1, 92039, Note_on_c, 9, 42, 0
1, 92190, Note_on_c, 9, 42, 65
1, 92190, Note_on_c, 9, 36, 113
1, 92279, Note_on_c, 9, 42, 0
1, 92430, Note_on_c, 9, 42, 65
1, 92519, Note_on_c, 9, 36, 0
1, 92519, Note_on_c, 9, 42, 0
1, 92550, Note_on_c, 9, 44, 68
1, 92639, Note_on_c, 9, 44, 0
1, 92670, Note_on_c, 9, 40, 106
1, 92670, Note_on_c, 9, 42, 64
1, 92759, Note_on_c, 9, 40, 0
1, 92759, Note_on_c, 9, 42, 0
1, 92910, Note_on_c, 9, 42, 65
1, 92999, Note_on_c, 9, 42, 0
1, 93150, Note_on_c, 9, 42, 68
1, 93150, Note_on_c, 9, 36, 103
1, 93239, Note_on_c, 9, 42, 0
1, 93390, Note_on_c, 9, 40, 96
1, 93479, Note_on_c, 9, 40, 0
1, 93495, Note_on_c, 9, 40, 90
1, 93539, Note_on_c, 9, 40, 0
1, 93599, Note_on_c, 9, 36, 0
1, 93630, Note_on_c, 9, 40, 97
1, 93630, Note_on_c, 9, 42, 65
1, 93719, Note_on_c, 9, 40, 0
1, 93719, Note_on_c, 9, 42, 0
1, 93735, Note_on_c, 9, 40, 91
1, 93779, Note_on_c, 9, 40, 0
1, 93855, Note_on_c, 9, 40, 100
1, 94079, Note_on_c, 9, 40, 0
1, 94110, Note_on_c, 9, 42, 66
1, 94110, Note_on_c, 9, 49, 66
1, 94110, Note_on_c, 9, 36, 109
1, 94199, Note_on_c, 9, 42, 0
1, 94199, Note_on_c, 9, 49, 0
1, 94335, Note_on_c, 9, 42, 58
1, 94559, Note_on_c, 9, 36, 0
1, 94559, Note_on_c, 9, 42, 0
1, 94575, Note_on_c, 9, 40, 102
1, 94575, Note_on_c, 9, 42, 61
1, 94799, Note_on_c, 9, 40, 0
1, 94799, Note_on_c, 9, 42, 0
1, 94815, Note_on_c, 9, 42, 64
1, 95039, Note_on_c, 9, 42, 0
1, 95055, Note_on_c, 9, 42, 65
1, 95055, Note_on_c, 9, 36, 105
1, 95279, Note_on_c, 9, 42, 0
1, 95279, Note_on_c, 9, 36, 0
1, 95310, Note_on_c, 9, 42, 61
1, 95399, Note_on_c, 9, 42, 0
1, 95430, Note_on_c, 9, 44, 64
1, 95519, Note_on_c, 9, 44, 0
1, 95550, Note_on_c, 9, 40, 100
1, 95550, Note_on_c, 9, 42, 65
1, 95639, Note_on_c, 9, 40, 0
1, 95639, Note_on_c, 9, 42, 0
1, 95775, Note_on_c, 9, 46, 68
1, 95789, Note_on_c, 9, 46, 0
1, 95790, Note_on_c, 9, 51, 105
1, 95879, Note_on_c, 9, 51, 0
1, 97440, Note_on_c, 9, 41, 123
1, 97919, Note_on_c, 9, 41, 0
1, 97935, Note_on_c, 9, 42, 69
1, 97935, Note_on_c, 9, 36, 96
1, 98159, Note_on_c, 9, 42, 0
1, 98159, Note_on_c, 9, 36, 0
1, 98175, Note_on_c, 9, 44, 70
1, 98399, Note_on_c, 9, 44, 0
1, 98415, Note_on_c, 9, 40, 105
1, 98415, Note_on_c, 9, 42, 67
1, 98639, Note_on_c, 9, 40, 0
1, 98639, Note_on_c, 9, 42, 0
1, 98655, Note_on_c, 9, 44, 68
1, 98879, Note_on_c, 9, 44, 0
1, 98895, Note_on_c, 9, 42, 65
1, 98895, Note_on_c, 9, 36, 109
1, 99119, Note_on_c, 9, 42, 0
1, 99119, Note_on_c, 9, 36, 0
1, 99135, Note_on_c, 9, 44, 69
1, 99359, Note_on_c, 9, 44, 0
1, 99375, Note_on_c, 9, 40, 100
1, 99375, Note_on_c, 9, 42, 65
1, 99599, Note_on_c, 9, 40, 0
1, 99599, Note_on_c, 9, 42, 0
1, 99615, Note_on_c, 9, 44, 66
1, 99839, Note_on_c, 9, 44, 0
1, 99855, Note_on_c, 9, 42, 65
1, 99855, Note_on_c, 9, 36, 109
1, 100079, Note_on_c, 9, 42, 0
1, 100079, Note_on_c, 9, 36, 0
1, 100095, Note_on_c, 9, 44, 68
1, 100319, Note_on_c, 9, 44, 0
1, 100335, Note_on_c, 9, 40, 101
1, 100335, Note_on_c, 9, 42, 65
1, 100559, Note_on_c, 9, 40, 0
1, 100559, Note_on_c, 9, 42, 0
1, 100590, Note_on_c, 9, 44, 67
1, 100679, Note_on_c, 9, 44, 0
1, 100830, Note_on_c, 9, 42, 65
1, 100830, Note_on_c, 9, 36, 103
1, 100919, Note_on_c, 9, 36, 0
1, 101070, Note_on_c, 9, 44, 68
1, 101159, Note_on_c, 9, 44, 0
1, 101279, Note_on_c, 9, 42, 0
1, 101310, Note_on_c, 9, 40, 98
1, 101310, Note_on_c, 9, 42, 64
1, 101535, Note_on_c, 9, 44, 66
1, 101759, Note_on_c, 9, 40, 0
1, 101759, Note_on_c, 9, 42, 0
1, 101759, Note_on_c, 9, 44, 0
1, 101775, Note_on_c, 9, 42, 64
1, 101775, Note_on_c, 9, 36, 100
1, 101999, Note_on_c, 9, 42, 0
1, 101999, Note_on_c, 9, 36, 0
1, 102015, Note_on_c, 9, 44, 69
1, 102239, Note_on_c, 9, 44, 0
1, 102255, Note_on_c, 9, 40, 100
1, 102255, Note_on_c, 9, 42, 64
1, 102479, Note_on_c, 9, 40, 0
1, 102479, Note_on_c, 9, 42, 0
1, 102495, Note_on_c, 9, 44, 70
1, 102719, Note_on_c, 9, 44, 0
1, 102735, Note_on_c, 9, 42, 67
1, 102750, Note_on_c, 9, 36, 105
1, 102839, Note_on_c, 9, 36, 0
1, 102959, Note_on_c, 9, 42, 0
1, 102990, Note_on_c, 9, 44, 68
1, 103079, Note_on_c, 9, 44, 0
1, 103215, Note_on_c, 9, 40, 98
1, 103229, Note_on_c, 9, 40, 0
1, 103230, Note_on_c, 9, 42, 65
1, 103455, Note_on_c, 9, 44, 67
1, 103679, Note_on_c, 9, 42, 0
1, 103679, Note_on_c, 9, 44, 0
1, 103695, Note_on_c, 9, 42, 64
1, 103695, Note_on_c, 9, 36, 109
1, 103919, Note_on_c, 9, 42, 0
1, 103919, Note_on_c, 9, 36, 0
1, 103935, Note_on_c, 9, 44, 69
1, 104159, Note_on_c, 9, 44, 0
1, 104175, Note_on_c, 9, 40, 103
1, 104189, Note_on_c, 9, 40, 0
1, 104190, Note_on_c, 9, 42, 68
1, 104415, Note_on_c, 9, 44, 66
1, 104639, Note_on_c, 9, 42, 0
1, 104639, Note_on_c, 9, 44, 0
1, 104655, Note_on_c, 9, 42, 64
1, 104655, Note_on_c, 9, 36, 100
1, 104879, Note_on_c, 9, 42, 0
1, 104879, Note_on_c, 9, 36, 0
1, 104910, Note_on_c, 9, 44, 72
1, 104999, Note_on_c, 9, 44, 0
1, 105150, Note_on_c, 9, 40, 100
1, 105150, Note_on_c, 9, 42, 65
1, 105239, Note_on_c, 9, 40, 0
1, 105239, Note_on_c, 9, 42, 0
1, 105375, Note_on_c, 9, 46, 69
1, 105599, Note_on_c, 9, 46, 0
1, 105615, Note_on_c, 9, 42, 64
1, 105615, Note_on_c, 9, 36, 109
1, 105839, Note_on_c, 9, 42, 0
1, 105839, Note_on_c, 9, 36, 0
1, 105870, Note_on_c, 9, 44, 65
1, 105959, Note_on_c, 9, 44, 0
1, 106110, Note_on_c, 9, 40, 98
1, 106110, Note_on_c, 9, 42, 66
1, 106350, Note_on_c, 9, 44, 67
1, 106439, Note_on_c, 9, 44, 0
1, 106559, Note_on_c, 9, 40, 0
1, 106559, Note_on_c, 9, 42, 0
1, 106590, Note_on_c, 9, 42, 66
1, 106590, Note_on_c, 9, 36, 117
1, 106679, Note_on_c, 9, 36, 0
1, 106830, Note_on_c, 9, 44, 68
1, 106919, Note_on_c, 9, 44, 0
1, 107039, Note_on_c, 9, 42, 0
1, 107070, Note_on_c, 9, 40, 102
1, 107084, Note_on_c, 9, 40, 0
1, 107085, Note_on_c, 9, 42, 65
1, 107279, Note_on_c, 9, 42, 0
1, 107310, Note_on_c, 9, 44, 65
1, 107399, Note_on_c, 9, 44, 0
1, 107550, Note_on_c, 9, 42, 65
1, 107550, Note_on_c, 9, 36, 113
1, 107639, Note_on_c, 9, 36, 0
1, 107790, Note_on_c, 9, 44, 64
1, 107879, Note_on_c, 9, 44, 0
1, 107999, Note_on_c, 9, 42, 0
1, 108030, Note_on_c, 9, 40, 95
1, 108030, Note_on_c, 9, 42, 65
1, 108270, Note_on_c, 9, 44, 67
1, 108359, Note_on_c, 9, 44, 0
1, 108479, Note_on_c, 9, 40, 0
1, 108479, Note_on_c, 9, 42, 0
1, 108510, Note_on_c, 9, 42, 65
1, 108510, Note_on_c, 9, 36, 113
1, 108599, Note_on_c, 9, 36, 0
1, 108750, Note_on_c, 9, 44, 69
1, 108839, Note_on_c, 9, 44, 0
1, 108959, Note_on_c, 9, 42, 0
1, 108990, Note_on_c, 9, 40, 107
1, 108990, Note_on_c, 9, 42, 64
1, 109215, Note_on_c, 9, 44, 67
1, 109439, Note_on_c, 9, 40, 0
1, 109439, Note_on_c, 9, 42, 0
1, 109439, Note_on_c, 9, 44, 0
1, 109455, Note_on_c, 9, 42, 65
1, 109455, Note_on_c, 9, 36, 113
1, 109679, Note_on_c, 9, 42, 0
1, 109679, Note_on_c, 9, 36, 0
1, 109695, Note_on_c, 9, 44, 66
1, 109919, Note_on_c, 9, 44, 0
1, 109950, Note_on_c, 9, 40, 102
1, 109950, Note_on_c, 9, 42, 65
1, 110175, Note_on_c, 9, 44, 68
1, 110399, Note_on_c, 9, 40, 0
1, 110399, Note_on_c, 9, 42, 0
1, 110399, Note_on_c, 9, 44, 0
1, 110415, Note_on_c, 9, 42, 68
1, 110415, Note_on_c, 9, 36, 113
1, 110639, Note_on_c, 9, 42, 0
1, 110639, Note_on_c, 9, 36, 0
1, 110655, Note_on_c, 9, 44, 69
1, 110879, Note_on_c, 9, 44, 0
1, 110895, Note_on_c, 9, 40, 100
1, 110895, Note_on_c, 9, 42, 65
1, 111119, Note_on_c, 9, 40, 0
1, 111119, Note_on_c, 9, 42, 0
1, 111135, Note_on_c, 9, 44, 67
1, 111359, Note_on_c, 9, 44, 0
1, 111390, Note_on_c, 9, 42, 65
1, 111390, Note_on_c, 9, 36, 109
1, 111479, Note_on_c, 9, 36, 0
1, 111630, Note_on_c, 9, 44, 69
1, 111719, Note_on_c, 9, 44, 0
1, 111839, Note_on_c, 9, 42, 0
1, 111870, Note_on_c, 9, 40, 102
1, 111870, Note_on_c, 9, 42, 68
1, 111959, Note_on_c, 9, 40, 0
1, 111959, Note_on_c, 9, 42, 0
1, 112110, Note_on_c, 9, 46, 68
1, 112199, Note_on_c, 9, 46, 0
1, 112350, Note_on_c, 9, 42, 68
1, 112350, Note_on_c, 9, 36, 105
1, 112439, Note_on_c, 9, 42, 0
1, 112575, Note_on_c, 9, 40, 84
1, 112619, Note_on_c, 9, 40, 0
1, 112695, Note_on_c, 9, 40, 70
1, 112739, Note_on_c, 9, 40, 0
1, 112799, Note_on_c, 9, 36, 0
1, 112815, Note_on_c, 9, 40, 86
1, 112829, Note_on_c, 9, 40, 0
1, 112830, Note_on_c, 9, 42, 82
1, 112919, Note_on_c, 9, 42, 0
1, 113055, Note_on_c, 9, 40, 98
1, 113279, Note_on_c, 9, 40, 0
1, 113295, Note_on_c, 9, 42, 72
1, 113295, Note_on_c, 9, 36, 98
1, 113519, Note_on_c, 9, 42, 0
1, 113519, Note_on_c, 9, 36, 0
1, 113520, Note_on_c, 9, 44, 69
1, 113759, Note_on_c, 9, 44, 0
1, 113760, Note_on_c, 9, 40, 103
1, 113774, Note_on_c, 9, 40, 0
1, 113775, Note_on_c, 9, 42, 68
1, 113999, Note_on_c, 9, 42, 0
1, 114015, Note_on_c, 9, 44, 67
1, 114239, Note_on_c, 9, 44, 0
1, 114255, Note_on_c, 9, 42, 62
1, 114255, Note_on_c, 9, 36, 100
1, 114479, Note_on_c, 9, 42, 0
1, 114479, Note_on_c, 9, 36, 0
1, 114495, Note_on_c, 9, 44, 65
1, 114719, Note_on_c, 9, 44, 0
1, 114735, Note_on_c, 9, 40, 100
1, 114735, Note_on_c, 9, 42, 69
1, 114959, Note_on_c, 9, 40, 0
1, 114959, Note_on_c, 9, 42, 0
1, 114975, Note_on_c, 9, 44, 69
1, 115199, Note_on_c, 9, 44, 0
1, 115215, Note_on_c, 9, 42, 68
1, 115215, Note_on_c, 9, 36, 95
1, 115439, Note_on_c, 9, 42, 0
1, 115439, Note_on_c, 9, 36, 0
1, 115455, Note_on_c, 9, 44, 72
1, 115679, Note_on_c, 9, 44, 0
1, 115695, Note_on_c, 9, 40, 101
1, 115695, Note_on_c, 9, 42, 67
1, 115919, Note_on_c, 9, 40, 0
1, 115919, Note_on_c, 9, 42, 0
1, 115950, Note_on_c, 9, 44, 66
1, 116039, Note_on_c, 9, 44, 0
1, 116175, Note_on_c, 9, 36, 109
1, 116190, Note_on_c, 9, 42, 65
1, 116399, Note_on_c, 9, 36, 0
1, 116415, Note_on_c, 9, 44, 72
1, 116639, Note_on_c, 9, 42, 0
1, 116639, Note_on_c, 9, 44, 0
1, 116655, Note_on_c, 9, 40, 95
1, 116655, Note_on_c, 9, 42, 68
1, 116879, Note_on_c, 9, 40, 0
1, 116879, Note_on_c, 9, 42, 0
1, 116895, Note_on_c, 9, 44, 71
1, 117119, Note_on_c, 9, 44, 0
1, 117135, Note_on_c, 9, 42, 66
1, 117135, Note_on_c, 9, 36, 100
1, 117359, Note_on_c, 9, 42, 0
1, 117359, Note_on_c, 9, 36, 0
1, 117375, Note_on_c, 9, 44, 67
1, 117599, Note_on_c, 9, 44, 0
1, 117615, Note_on_c, 9, 40, 99
1, 117615, Note_on_c, 9, 42, 65
1, 117839, Note_on_c, 9, 40, 0
1, 117839, Note_on_c, 9, 42, 0
1, 117855, Note_on_c, 9, 44, 68
1, 118079, Note_on_c, 9, 44, 0
1, 118095, Note_on_c, 9, 42, 63
1, 118095, Note_on_c, 9, 36, 105
1, 118319, Note_on_c, 9, 42, 0
1, 118319, Note_on_c, 9, 36, 0
1, 118335, Note_on_c, 9, 44, 71
1, 118559, Note_on_c, 9, 44, 0
1, 118575, Note_on_c, 9, 40, 100
1, 118575, Note_on_c, 9, 42, 69
1, 118799, Note_on_c, 9, 40, 0
1, 118799, Note_on_c, 9, 42, 0
1, 118815, Note_on_c, 9, 44, 71
1, 119039, Note_on_c, 9, 44, 0
1, 119055, Note_on_c, 9, 42, 69
1, 119070, Note_on_c, 9, 36, 100
1, 119159, Note_on_c, 9, 36, 0
1, 119279, Note_on_c, 9, 42, 0
1, 119295, Note_on_c, 9, 44, 72
1, 119519, Note_on_c, 9, 44, 0
1, 119535, Note_on_c, 9, 40, 95
1, 119549, Note_on_c, 9, 40, 0
1, 119550, Note_on_c, 9, 42, 66
1, 119775, Note_on_c, 9, 44, 70
1, 119999, Note_on_c, 9, 42, 0
1, 119999, Note_on_c, 9, 44, 0
1, 120015, Note_on_c, 9, 42, 68
1, 120015, Note_on_c, 9, 36, 95
1, 120239, Note_on_c, 9, 42, 0
1, 120239, Note_on_c, 9, 36, 0
1, 120255, Note_on_c, 9, 44, 65
1, 120479, Note_on_c, 9, 44, 0
1, 120495, Note_on_c, 9, 40, 105
1, 120495, Note_on_c, 9, 42, 66
1, 120719, Note_on_c, 9, 40, 0
1, 120719, Note_on_c, 9, 42, 0
1, 120735, Note_on_c, 9, 46, 72
1, 120959, Note_on_c, 9, 46, 0
1, 120990, Note_on_c, 9, 42, 65
1, 120990, Note_on_c, 9, 36, 103
1, 121079, Note_on_c, 9, 36, 0
1, 121215, Note_on_c, 9, 44, 67
1, 121439, Note_on_c, 9, 42, 0
1, 121439, Note_on_c, 9, 44, 0
1, 121455, Note_on_c, 9, 40, 103
1, 121455, Note_on_c, 9, 42, 66
1, 121679, Note_on_c, 9, 40, 0
1, 121679, Note_on_c, 9, 42, 0
1, 121695, Note_on_c, 9, 44, 71
1, 121919, Note_on_c, 9, 44, 0
1, 121935, Note_on_c, 9, 42, 66
1, 121935, Note_on_c, 9, 36, 103
1, 122159, Note_on_c, 9, 42, 0
1, 122159, Note_on_c, 9, 36, 0
1, 122175, Note_on_c, 9, 44, 73
1, 122399, Note_on_c, 9, 44, 0
1, 122415, Note_on_c, 9, 40, 95
1, 122415, Note_on_c, 9, 42, 68
1, 122639, Note_on_c, 9, 40, 0
1, 122639, Note_on_c, 9, 42, 0
1, 122655, Note_on_c, 9, 44, 70
1, 122879, Note_on_c, 9, 44, 0
1, 122895, Note_on_c, 9, 42, 67
1, 122895, Note_on_c, 9, 36, 92
1, 123119, Note_on_c, 9, 42, 0
1, 123119, Note_on_c, 9, 36, 0
1, 123135, Note_on_c, 9, 44, 73
1, 123359, Note_on_c, 9, 44, 0
1, 123375, Note_on_c, 9, 40, 96
1, 123375, Note_on_c, 9, 42, 67
1, 123599, Note_on_c, 9, 40, 0
1, 123599, Note_on_c, 9, 42, 0
1, 123615, Note_on_c, 9, 44, 67
1, 123839, Note_on_c, 9, 44, 0
1, 123855, Note_on_c, 9, 36, 105
1, 123870, Note_on_c, 9, 42, 68
1, 124079, Note_on_c, 9, 36, 0
1, 124095, Note_on_c, 9, 44, 67
1, 124319, Note_on_c, 9, 42, 0
1, 124319, Note_on_c, 9, 44, 0
1, 124335, Note_on_c, 9, 40, 100
1, 124335, Note_on_c, 9, 42, 65
1, 124559, Note_on_c, 9, 40, 0
1, 124559, Note_on_c, 9, 42, 0
1, 124590, Note_on_c, 9, 44, 65
1, 124679, Note_on_c, 9, 44, 0
1, 124830, Note_on_c, 9, 42, 66
1, 124830, Note_on_c, 9, 36, 103
1, 124919, Note_on_c, 9, 36, 0
1, 125070, Note_on_c, 9, 44, 67
1, 125159, Note_on_c, 9, 44, 0
1, 125279, Note_on_c, 9, 42, 0
1, 125295, Note_on_c, 9, 40, 101
1, 125295, Note_on_c, 9, 42, 67
1, 125519, Note_on_c, 9, 40, 0
1, 125519, Note_on_c, 9, 42, 0
1, 125550, Note_on_c, 9, 44, 69
1, 125639, Note_on_c, 9, 44, 0
1, 125790, Note_on_c, 9, 42, 68
1, 125790, Note_on_c, 9, 36, 100
1, 125879, Note_on_c, 9, 36, 0
1, 126030, Note_on_c, 9, 44, 68
1, 126119, Note_on_c, 9, 44, 0
1, 126239, Note_on_c, 9, 42, 0
1, 126255, Note_on_c, 9, 42, 65
1, 126269, Note_on_c, 9, 42, 0
1, 126270, Note_on_c, 9, 40, 98
1, 126510, Note_on_c, 9, 44, 70
1, 126599, Note_on_c, 9, 44, 0
1, 126719, Note_on_c, 9, 40, 0
1, 126750, Note_on_c, 9, 42, 65
1, 126750, Note_on_c, 9, 36, 103
1, 126839, Note_on_c, 9, 36, 0
1, 126990, Note_on_c, 9, 44, 69
1, 127079, Note_on_c, 9, 44, 0
1, 127199, Note_on_c, 9, 42, 0
1, 127230, Note_on_c, 9, 40, 100
1, 127230, Note_on_c, 9, 42, 65
1, 127319, Note_on_c, 9, 40, 0
1, 127319, Note_on_c, 9, 42, 0
1, 127470, Note_on_c, 9, 46, 72
1, 127559, Note_on_c, 9, 46, 0
1, 127710, Note_on_c, 9, 42, 64
1, 127710, Note_on_c, 9, 36, 98
1, 127799, Note_on_c, 9, 36, 0
1, 127935, Note_on_c, 9, 44, 78
1, 128159, Note_on_c, 9, 42, 0
1, 128159, Note_on_c, 9, 44, 0
1, 128175, Note_on_c, 9, 42, 65
1, 128189, Note_on_c, 9, 42, 0
1, 128190, Note_on_c, 9, 40, 103
1, 128279, Note_on_c, 9, 40, 0
1, 128430, Note_on_c, 9, 40, 79
1, 128430, Note_on_c, 9, 44, 70
1, 128489, Note_on_c, 9, 40, 0
1, 128490, Note_on_c, 9, 40, 57
1, 128519, Note_on_c, 9, 44, 0
1, 128519, Note_on_c, 9, 40, 0
1, 128535, Note_on_c, 9, 40, 53
1, 128579, Note_on_c, 9, 40, 0
1, 128595, Note_on_c, 9, 40, 52
1, 128639, Note_on_c, 9, 40, 0
1, 128670, Note_on_c, 9, 42, 64
1, 128670, Note_on_c, 9, 36, 98
1, 128759, Note_on_c, 9, 36, 0
1, 128895, Note_on_c, 9, 44, 65
1, 129119, Note_on_c, 9, 42, 0
1, 129119, Note_on_c, 9, 44, 0
1, 129135, Note_on_c, 9, 40, 102
1, 129135, Note_on_c, 9, 42, 67
1, 129359, Note_on_c, 9, 40, 0
1, 129359, Note_on_c, 9, 42, 0
1, 129375, Note_on_c, 9, 44, 66
1, 129599, Note_on_c, 9, 44, 0
1, 129615, Note_on_c, 9, 42, 65
1, 129630, Note_on_c, 9, 36, 100
1, 129719, Note_on_c, 9, 36, 0
1, 129839, Note_on_c, 9, 42, 0
1, 129855, Note_on_c, 9, 44, 69
1, 130079, Note_on_c, 9, 44, 0
1, 130095, Note_on_c, 9, 42, 66
1, 130109, Note_on_c, 9, 42, 0
1, 130110, Note_on_c, 9, 40, 98
1, 130335, Note_on_c, 9, 44, 72
1, 130559, Note_on_c, 9, 40, 0
1, 130559, Note_on_c, 9, 44, 0
1, 130575, Note_on_c, 9, 42, 67
1, 130575, Note_on_c, 9, 36, 98
1, 130799, Note_on_c, 9, 42, 0
1, 130799, Note_on_c, 9, 36, 0
1, 130815, Note_on_c, 9, 44, 69
1, 131039, Note_on_c, 9, 44, 0
1, 131055, Note_on_c, 9, 40, 95
1, 131055, Note_on_c, 9, 42, 64
1, 131279, Note_on_c, 9, 40, 0
1, 131279, Note_on_c, 9, 42, 0
1, 131295, Note_on_c, 9, 44, 64
1, 131519, Note_on_c, 9, 44, 0
1, 131535, Note_on_c, 9, 42, 65
1, 131535, Note_on_c, 9, 36, 109
1, 131759, Note_on_c, 9, 42, 0
1, 131759, Note_on_c, 9, 36, 0
1, 131775, Note_on_c, 9, 44, 63
1, 131999, Note_on_c, 9, 44, 0
1, 132015, Note_on_c, 9, 40, 95
1, 132015, Note_on_c, 9, 42, 66
1, 132239, Note_on_c, 9, 40, 0
1, 132239, Note_on_c, 9, 42, 0
1, 132255, Note_on_c, 9, 44, 72
1, 132479, Note_on_c, 9, 44, 0
1, 132495, Note_on_c, 9, 42, 68
1, 132495, Note_on_c, 9, 36, 98
1, 132719, Note_on_c, 9, 42, 0
1, 132719, Note_on_c, 9, 36, 0
1, 132735, Note_on_c, 9, 44, 71
1, 132959, Note_on_c, 9, 44, 0
1, 132975, Note_on_c, 9, 40, 98
1, 132975, Note_on_c, 9, 42, 65
1, 133199, Note_on_c, 9, 40, 0
1, 133199, Note_on_c, 9, 42, 0
1, 133215, Note_on_c, 9, 44, 66
1, 133439, Note_on_c, 9, 44, 0
1, 133455, Note_on_c, 9, 42, 65
1, 133455, Note_on_c, 9, 36, 98
1, 133679, Note_on_c, 9, 42, 0
1, 133679, Note_on_c, 9, 36, 0
1, 133695, Note_on_c, 9, 44, 72
1, 133919, Note_on_c, 9, 44, 0
1, 133935, Note_on_c, 9, 40, 98
1, 133935, Note_on_c, 9, 42, 65
1, 134159, Note_on_c, 9, 40, 0
1, 134159, Note_on_c, 9, 42, 0
1, 134175, Note_on_c, 9, 44, 74
1, 134399, Note_on_c, 9, 44, 0
1, 134415, Note_on_c, 9, 42, 67
1, 134430, Note_on_c, 9, 36, 100
1, 134519, Note_on_c, 9, 36, 0
1, 134639, Note_on_c, 9, 42, 0
1, 134655, Note_on_c, 9, 44, 72
1, 134879, Note_on_c, 9, 44, 0
1, 134895, Note_on_c, 9, 40, 102
1, 134895, Note_on_c, 9, 42, 64
1, 135119, Note_on_c, 9, 40, 0
1, 135119, Note_on_c, 9, 42, 0
1, 135135, Note_on_c, 9, 44, 70
1, 135359, Note_on_c, 9, 44, 0
1, 135375, Note_on_c, 9, 42, 66
1, 135375, Note_on_c, 9, 36, 98
1, 135599, Note_on_c, 9, 42, 0
1, 135599, Note_on_c, 9, 36, 0
1, 135615, Note_on_c, 9, 44, 69
1, 135839, Note_on_c, 9, 44, 0
1, 135870, Note_on_c, 9, 40, 100
1, 135870, Note_on_c, 9, 42, 65
1, 135959, Note_on_c, 9, 40, 0
1, 135959, Note_on_c, 9, 42, 0
1, 136110, Note_on_c, 9, 46, 70
1, 136199, Note_on_c, 9, 46, 0
1, 136350, Note_on_c, 9, 42, 66
1, 136350, Note_on_c, 9, 36, 95
1, 136439, Note_on_c, 9, 36, 0
1, 136590, Note_on_c, 9, 44, 64
1, 136679, Note_on_c, 9, 44, 0
1, 136799, Note_on_c, 9, 42, 0
1, 136830, Note_on_c, 9, 40, 100
1, 136830, Note_on_c, 9, 42, 56
1, 137055, Note_on_c, 9, 44, 72
1, 137279, Note_on_c, 9, 40, 0
1, 137279, Note_on_c, 9, 42, 0
1, 137279, Note_on_c, 9, 44, 0
1, 137295, Note_on_c, 9, 42, 64
1, 137310, Note_on_c, 9, 36, 95
1, 137399, Note_on_c, 9, 36, 0
1, 137519, Note_on_c, 9, 42, 0
1, 137535, Note_on_c, 9, 44, 68
1, 137759, Note_on_c, 9, 44, 0
1, 137775, Note_on_c, 9, 40, 100
1, 137775, Note_on_c, 9, 42, 66
1, 137999, Note_on_c, 9, 40, 0
1, 137999, Note_on_c, 9, 42, 0
1, 138015, Note_on_c, 9, 44, 69
1, 138239, Note_on_c, 9, 44, 0
1, 138255, Note_on_c, 9, 42, 65
1, 138270, Note_on_c, 9, 36, 100
1, 138359, Note_on_c, 9, 36, 0
1, 138479, Note_on_c, 9, 42, 0
1, 138495, Note_on_c, 9, 44, 72
1, 138719, Note_on_c, 9, 44, 0
1, 138735, Note_on_c, 9, 40, 95
1, 138735, Note_on_c, 9, 42, 65
1, 138959, Note_on_c, 9, 40, 0
1, 138959, Note_on_c, 9, 42, 0
1, 138975, Note_on_c, 9, 44, 69
1, 139199, Note_on_c, 9, 44, 0
1, 139215, Note_on_c, 9, 42, 66
1, 139230, Note_on_c, 9, 36, 82
1, 139319, Note_on_c, 9, 36, 0
1, 139439, Note_on_c, 9, 42, 0
1, 139455, Note_on_c, 9, 44, 68
1, 139679, Note_on_c, 9, 44, 0
1, 139695, Note_on_c, 9, 40, 98
1, 139695, Note_on_c, 9, 42, 65
1, 139919, Note_on_c, 9, 40, 0
1, 139919, Note_on_c, 9, 42, 0
1, 139935, Note_on_c, 9, 44, 67
1, 140159, Note_on_c, 9, 44, 0
1, 140175, Note_on_c, 9, 42, 66
1, 140175, Note_on_c, 9, 36, 100
1, 140399, Note_on_c, 9, 42, 0
1, 140399, Note_on_c, 9, 36, 0
1, 140415, Note_on_c, 9, 44, 68
1, 140639, Note_on_c, 9, 44, 0
1, 140655, Note_on_c, 9, 40, 98
1, 140655, Note_on_c, 9, 42, 65
1, 140879, Note_on_c, 9, 40, 0
1, 140879, Note_on_c, 9, 42, 0
1, 140895, Note_on_c, 9, 44, 72
1, 141119, Note_on_c, 9, 44, 0
1, 141135, Note_on_c, 9, 42, 63
1, 141135, Note_on_c, 9, 36, 98
1, 141359, Note_on_c, 9, 42, 0
1, 141359, Note_on_c, 9, 36, 0
1, 141375, Note_on_c, 9, 44, 65
1, 141599, Note_on_c, 9, 44, 0
1, 141615, Note_on_c, 9, 40, 100
1, 141629, Note_on_c, 9, 40, 0
1, 141630, Note_on_c, 9, 42, 68
1, 141855, Note_on_c, 9, 44, 74
1, 142079, Note_on_c, 9, 42, 0
1, 142079, Note_on_c, 9, 44, 0
1, 142095, Note_on_c, 9, 42, 64
1, 142095, Note_on_c, 9, 36, 103
1, 142319, Note_on_c, 9, 42, 0
1, 142319, Note_on_c, 9, 36, 0
1, 142335, Note_on_c, 9, 44, 73
1, 142559, Note_on_c, 9, 44, 0
1, 142575, Note_on_c, 9, 40, 106
1, 142575, Note_on_c, 9, 42, 65
1, 142799, Note_on_c, 9, 40, 0
1, 142799, Note_on_c, 9, 42, 0
1, 142815, Note_on_c, 9, 46, 63
1, 143039, Note_on_c, 9, 46, 0
1, 143055, Note_on_c, 9, 42, 65
1, 143055, Note_on_c, 9, 36, 95
1, 143279, Note_on_c, 9, 42, 0
1, 143279, Note_on_c, 9, 36, 0
1, 143295, Note_on_c, 9, 40, 85
1, 143295, Note_on_c, 9, 42, 69
1, 143519, Note_on_c, 9, 40, 0
1, 143519, Note_on_c, 9, 42, 0
1, 143535, Note_on_c, 9, 40, 89
1, 143535, Note_on_c, 9, 42, 66
1, 143759, Note_on_c, 9, 40, 0
1, 143759, Note_on_c, 9, 42, 0
1, 143775, Note_on_c, 9, 40, 95
1, 143775, Note_on_c, 9, 44, 68
1, 143999, Note_on_c, 9, 40, 0
1, 143999, Note_on_c, 9, 44, 0
1, 144015, Note_on_c, 9, 42, 79
1, 144015, Note_on_c, 9, 49, 67
1, 144015, Note_on_c, 9, 36, 100
1, 144239, Note_on_c, 9, 42, 0
1, 144239, Note_on_c, 9, 49, 0
1, 144239, Note_on_c, 9, 36, 0
1, 144240, Note_on_c, 9, 42, 64
1, 144360, Note_on_c, 9, 44, 64
1, 144479, Note_on_c, 9, 42, 0
1, 144479, Note_on_c, 9, 44, 0
1, 144480, Note_on_c, 9, 42, 69
1, 144494, Note_on_c, 9, 42, 0
1, 144495, Note_on_c, 9, 40, 105
1, 144719, Note_on_c, 9, 40, 0
1, 144735, Note_on_c, 9, 42, 65
1, 144855, Note_on_c, 9, 44, 69
1, 144899, Note_on_c, 9, 44, 0
1, 144959, Note_on_c, 9, 42, 0
1, 144975, Note_on_c, 9, 42, 65
1, 144975, Note_on_c, 9, 36, 100
1, 145199, Note_on_c, 9, 42, 0
1, 145199, Note_on_c, 9, 36, 0
1, 145215, Note_on_c, 9, 42, 63
1, 145335, Note_on_c, 9, 44, 66
1, 145379, Note_on_c, 9, 44, 0
1, 145439, Note_on_c, 9, 42, 0
1, 145455, Note_on_c, 9, 40, 105
1, 145455, Note_on_c, 9, 42, 61
1, 145679, Note_on_c, 9, 40, 0
1, 145679, Note_on_c, 9, 42, 0
1, 145695, Note_on_c, 9, 42, 64
1, 145815, Note_on_c, 9, 44, 64
1, 145859, Note_on_c, 9, 44, 0
1, 145919, Note_on_c, 9, 42, 0
1, 145935, Note_on_c, 9, 42, 64
1, 145935, Note_on_c, 9, 36, 109
1, 146159, Note_on_c, 9, 42, 0
1, 146159, Note_on_c, 9, 36, 0
1, 146175, Note_on_c, 9, 42, 64
1, 146295, Note_on_c, 9, 44, 64
1, 146339, Note_on_c, 9, 44, 0
1, 146399, Note_on_c, 9, 42, 0
1, 146415, Note_on_c, 9, 40, 109
1, 146415, Note_on_c, 9, 42, 64
1, 146639, Note_on_c, 9, 40, 0
1, 146639, Note_on_c, 9, 42, 0
1, 146655, Note_on_c, 9, 42, 64
1, 146879, Note_on_c, 9, 42, 0
1, 146895, Note_on_c, 9, 42, 65
1, 146895, Note_on_c, 9, 36, 116
1, 147119, Note_on_c, 9, 42, 0
1, 147119, Note_on_c, 9, 36, 0
1, 147135, Note_on_c, 9, 42, 63
1, 147270, Note_on_c, 9, 44, 71
1, 147359, Note_on_c, 9, 42, 0
1, 147359, Note_on_c, 9, 44, 0
1, 147375, Note_on_c, 9, 40, 105
1, 147375, Note_on_c, 9, 42, 60
1, 147599, Note_on_c, 9, 40, 0
1, 147599, Note_on_c, 9, 42, 0
1, 147630, Note_on_c, 9, 42, 64
1, 147719, Note_on_c, 9, 42, 0
1, 147870, Note_on_c, 9, 42, 65
1, 147870, Note_on_c, 9, 36, 117
1, 147959, Note_on_c, 9, 42, 0
1, 148110, Note_on_c, 9, 42, 65
1, 148199, Note_on_c, 9, 36, 0
1, 148199, Note_on_c, 9, 42, 0
1, 148230, Note_on_c, 9, 44, 68
1, 148319, Note_on_c, 9, 44, 0
1, 148350, Note_on_c, 9, 40, 100
1, 148350, Note_on_c, 9, 42, 65
1, 148439, Note_on_c, 9, 40, 0
1, 148439, Note_on_c, 9, 42, 0
1, 148590, Note_on_c, 9, 42, 64
1, 148679, Note_on_c, 9, 42, 0
1, 148830, Note_on_c, 9, 42, 66
1, 148830, Note_on_c, 9, 36, 113
1, 148919, Note_on_c, 9, 42, 0
1, 149070, Note_on_c, 9, 42, 64
1, 149159, Note_on_c, 9, 36, 0
1, 149159, Note_on_c, 9, 42, 0
1, 149190, Note_on_c, 9, 44, 66
1, 149279, Note_on_c, 9, 44, 0
1, 149310, Note_on_c, 9, 40, 103
1, 149310, Note_on_c, 9, 42, 65
1, 149399, Note_on_c, 9, 40, 0
1, 149399, Note_on_c, 9, 42, 0
1, 149550, Note_on_c, 9, 42, 65
1, 149639, Note_on_c, 9, 42, 0
1, 149790, Note_on_c, 9, 42, 68
1, 149790, Note_on_c, 9, 36, 109
1, 149879, Note_on_c, 9, 42, 0
1, 150030, Note_on_c, 9, 42, 64
1, 150119, Note_on_c, 9, 36, 0
1, 150119, Note_on_c, 9, 42, 0
1, 150150, Note_on_c, 9, 44, 65
1, 150239, Note_on_c, 9, 44, 0
1, 150270, Note_on_c, 9, 40, 113
1, 150270, Note_on_c, 9, 42, 66
1, 150359, Note_on_c, 9, 40, 0
1, 150359, Note_on_c, 9, 42, 0
1, 150510, Note_on_c, 9, 42, 65
1, 150599, Note_on_c, 9, 42, 0
1, 150750, Note_on_c, 9, 42, 67
1, 150750, Note_on_c, 9, 36, 117
1, 150839, Note_on_c, 9, 42, 0
1, 150990, Note_on_c, 9, 42, 64
1, 151079, Note_on_c, 9, 36, 0
1, 151079, Note_on_c, 9, 42, 0
1, 151110, Note_on_c, 9, 44, 66
1, 151199, Note_on_c, 9, 44, 0
1, 151230, Note_on_c, 9, 40, 103
1, 151230, Note_on_c, 9, 42, 66
1, 151319, Note_on_c, 9, 40, 0
1, 151319, Note_on_c, 9, 42, 0
1, 151470, Note_on_c, 9, 42, 64
1, 151559, Note_on_c, 9, 42, 0
1, 151710, Note_on_c, 9, 42, 72
1, 151710, Note_on_c, 9, 49, 67
1, 151710, Note_on_c, 9, 36, 103
1, 151799, Note_on_c, 9, 42, 0
1, 151799, Note_on_c, 9, 49, 0
1, 151935, Note_on_c, 9, 42, 63
1, 152039, Note_on_c, 9, 36, 0
1, 152055, Note_on_c, 9, 44, 63
1, 152099, Note_on_c, 9, 44, 0
1, 152159, Note_on_c, 9, 42, 0
1, 152175, Note_on_c, 9, 40, 102
1, 152175, Note_on_c, 9, 42, 66
1, 152399, Note_on_c, 9, 40, 0
1, 152399, Note_on_c, 9, 42, 0
1, 152415, Note_on_c, 9, 42, 65
1, 152535, Note_on_c, 9, 44, 61
1, 152579, Note_on_c, 9, 44, 0
1, 152639, Note_on_c, 9, 42, 0
1, 152655, Note_on_c, 9, 36, 103
1, 152670, Note_on_c, 9, 42, 66
1, 152759, Note_on_c, 9, 42, 0
1, 152879, Note_on_c, 9, 36, 0
1, 152895, Note_on_c, 9, 42, 63
1, 153015, Note_on_c, 9, 44, 63
1, 153059, Note_on_c, 9, 44, 0
1, 153119, Note_on_c, 9, 42, 0
1, 153135, Note_on_c, 9, 40, 106
1, 153135, Note_on_c, 9, 42, 63
1, 153359, Note_on_c, 9, 40, 0
1, 153359, Note_on_c, 9, 42, 0
1, 153375, Note_on_c, 9, 42, 64
1, 153495, Note_on_c, 9, 44, 63
1, 153539, Note_on_c, 9, 44, 0
1, 153599, Note_on_c, 9, 42, 0
1, 153615, Note_on_c, 9, 42, 64
1, 153630, Note_on_c, 9, 36, 113
1, 153839, Note_on_c, 9, 42, 0
1, 153870, Note_on_c, 9, 42, 64
1, 153959, Note_on_c, 9, 36, 0
1, 153959, Note_on_c, 9, 42, 0
1, 153990, Note_on_c, 9, 44, 55
1, 154079, Note_on_c, 9, 44, 0
1, 154110, Note_on_c, 9, 40, 109
1, 154110, Note_on_c, 9, 42, 63
1, 154199, Note_on_c, 9, 40, 0
1, 154199, Note_on_c, 9, 42, 0
1, 154335, Note_on_c, 9, 42, 64
1, 154559, Note_on_c, 9, 42, 0
1, 154575, Note_on_c, 9, 42, 66
1, 154575, Note_on_c, 9, 36, 105
1, 154799, Note_on_c, 9, 42, 0
1, 154799, Note_on_c, 9, 36, 0
1, 154815, Note_on_c, 9, 42, 65
1, 154935, Note_on_c, 9, 44, 65
1, 154979, Note_on_c, 9, 44, 0
1, 155039, Note_on_c, 9, 42, 0
1, 155055, Note_on_c, 9, 40, 103
1, 155055, Note_on_c, 9, 42, 64
1, 155279, Note_on_c, 9, 40, 0
1, 155279, Note_on_c, 9, 42, 0
1, 155295, Note_on_c, 9, 42, 63
1, 155519, Note_on_c, 9, 42, 0
1, 155535, Note_on_c, 9, 42, 68
1, 155535, Note_on_c, 9, 36, 116
1, 155759, Note_on_c, 9, 42, 0
1, 155759, Note_on_c, 9, 36, 0
1, 155790, Note_on_c, 9, 42, 65
1, 155879, Note_on_c, 9, 42, 0
1, 155910, Note_on_c, 9, 44, 62
1, 155999, Note_on_c, 9, 44, 0
1, 156030, Note_on_c, 9, 40, 100
1, 156030, Note_on_c, 9, 42, 66
1, 156119, Note_on_c, 9, 40, 0
1, 156119, Note_on_c, 9, 42, 0
1, 156270, Note_on_c, 9, 42, 63
1, 156359, Note_on_c, 9, 42, 0
1, 156510, Note_on_c, 9, 42, 65
1, 156510, Note_on_c, 9, 36, 113
1, 156599, Note_on_c, 9, 42, 0
1, 156750, Note_on_c, 9, 42, 64
1, 156839, Note_on_c, 9, 36, 0
1, 156839, Note_on_c, 9, 42, 0
1, 156870, Note_on_c, 9, 44, 66
1, 156959, Note_on_c, 9, 44, 0
1, 156990, Note_on_c, 9, 40, 104
1, 156990, Note_on_c, 9, 42, 63
1, 157079, Note_on_c, 9, 40, 0
1, 157079, Note_on_c, 9, 42, 0
1, 157230, Note_on_c, 9, 42, 64
1, 157319, Note_on_c, 9, 42, 0
1, 157470, Note_on_c, 9, 42, 65
1, 157470, Note_on_c, 9, 36, 113
1, 157559, Note_on_c, 9, 42, 0
1, 157710, Note_on_c, 9, 42, 65
1, 157799, Note_on_c, 9, 36, 0
1, 157799, Note_on_c, 9, 42, 0
1, 157830, Note_on_c, 9, 44, 68
1, 157919, Note_on_c, 9, 44, 0
1, 157950, Note_on_c, 9, 40, 103
1, 157950, Note_on_c, 9, 42, 64
1, 158039, Note_on_c, 9, 40, 0
1, 158039, Note_on_c, 9, 42, 0
1, 158190, Note_on_c, 9, 42, 65
1, 158279, Note_on_c, 9, 42, 0
1, 158430, Note_on_c, 9, 42, 68
1, 158430, Note_on_c, 9, 36, 103
1, 158519, Note_on_c, 9, 42, 0
1, 158670, Note_on_c, 9, 40, 96
1, 158759, Note_on_c, 9, 40, 0
1, 158775, Note_on_c, 9, 40, 90
1, 158819, Note_on_c, 9, 40, 0
1, 158879, Note_on_c, 9, 36, 0
1, 158910, Note_on_c, 9, 40, 97
1, 158910, Note_on_c, 9, 42, 65
1, 158999, Note_on_c, 9, 40, 0
1, 158999, Note_on_c, 9, 42, 0
1, 159015, Note_on_c, 9, 40, 91
1, 159059, Note_on_c, 9, 40, 0
1, 159135, Note_on_c, 9, 40, 100
1, 159359, Note_on_c, 9, 40, 0
1, 159390, Note_on_c, 9, 42, 66
1, 159390, Note_on_c, 9, 49, 66
1, 159390, Note_on_c, 9, 36, 109
1, 159479, Note_on_c, 9, 42, 0
1, 159479, Note_on_c, 9, 49, 0
1, 159615, Note_on_c, 9, 42, 58
1, 159839, Note_on_c, 9, 36, 0
1, 159839, Note_on_c, 9, 42, 0
1, 159855, Note_on_c, 9, 40, 106
1, 159855, Note_on_c, 9, 42, 61
1, 160079, Note_on_c, 9, 40, 0
1, 160079, Note_on_c, 9, 42, 0
1, 160095, Note_on_c, 9, 42, 64
1, 160319, Note_on_c, 9, 42, 0
1, 160335, Note_on_c, 9, 42, 65
1, 160335, Note_on_c, 9, 36, 105
1, 160559, Note_on_c, 9, 42, 0
1, 160559, Note_on_c, 9, 36, 0
1, 160590, Note_on_c, 9, 42, 61
1, 160679, Note_on_c, 9, 42, 0
1, 160710, Note_on_c, 9, 44, 64
1, 160799, Note_on_c, 9, 44, 0
1, 160830, Note_on_c, 9, 40, 100
1, 160830, Note_on_c, 9, 42, 65
1, 160919, Note_on_c, 9, 40, 0
1, 160919, Note_on_c, 9, 42, 0
1, 161055, Note_on_c, 9, 46, 68
1, 161069, Note_on_c, 9, 46, 0
1, 161070, Note_on_c, 9, 51, 105
1, 161159, Note_on_c, 9, 51, 0
1, 162720, Note_on_c, 9, 41, 119
1, 163199, Note_on_c, 9, 41, 0
1, 163215, Note_on_c, 9, 42, 69
1, 163215, Note_on_c, 9, 36, 96
1, 163439, Note_on_c, 9, 42, 0
1, 163439, Note_on_c, 9, 36, 0
1, 163455, Note_on_c, 9, 44, 70
1, 163679, Note_on_c, 9, 44, 0
1, 163695, Note_on_c, 9, 40, 105
1, 163695, Note_on_c, 9, 42, 67
1, 163919, Note_on_c, 9, 40, 0
1, 163919, Note_on_c, 9, 42, 0
1, 163935, Note_on_c, 9, 44, 68
1, 164159, Note_on_c, 9, 44, 0
1, 164175, Note_on_c, 9, 42, 65
1, 164175, Note_on_c, 9, 36, 109
1, 164399, Note_on_c, 9, 42, 0
1, 164399, Note_on_c, 9, 36, 0
1, 164415, Note_on_c, 9, 44, 69
1, 164639, Note_on_c, 9, 44, 0
1, 164655, Note_on_c, 9, 40, 100
1, 164655, Note_on_c, 9, 42, 65
1, 164879, Note_on_c, 9, 40, 0
1, 164879, Note_on_c, 9, 42, 0
1, 164895, Note_on_c, 9, 44, 66
1, 165119, Note_on_c, 9, 44, 0
1, 165135, Note_on_c, 9, 42, 65
1, 165135, Note_on_c, 9, 36, 109
1, 165359, Note_on_c, 9, 42, 0
1, 165359, Note_on_c, 9, 36, 0
1, 165375, Note_on_c, 9, 44, 68
1, 165599, Note_on_c, 9, 44, 0
1, 165615, Note_on_c, 9, 40, 106
1, 165615, Note_on_c, 9, 42, 65
1, 165839, Note_on_c, 9, 40, 0
1, 165839, Note_on_c, 9, 42, 0
1, 165870, Note_on_c, 9, 44, 67
1, 165959, Note_on_c, 9, 44, 0
1, 166110, Note_on_c, 9, 42, 65
1, 166110, Note_on_c, 9, 36, 103
1, 166199, Note_on_c, 9, 36, 0
1, 166350, Note_on_c, 9, 44, 68
1, 166439, Note_on_c, 9, 44, 0
1, 166559, Note_on_c, 9, 42, 0
1, 166590, Note_on_c, 9, 40, 113
1, 166590, Note_on_c, 9, 42, 64
1, 166815, Note_on_c, 9, 44, 66
1, 167039, Note_on_c, 9, 40, 0
1, 167039, Note_on_c, 9, 42, 0
1, 167039, Note_on_c, 9, 44, 0
1, 167055, Note_on_c, 9, 42, 64
1, 167055, Note_on_c, 9, 36, 100
1, 167279, Note_on_c, 9, 42, 0
1, 167279, Note_on_c, 9, 36, 0
1, 167295, Note_on_c, 9, 44, 69
1, 167519, Note_on_c, 9, 44, 0
1, 167535, Note_on_c, 9, 40, 100
1, 167535, Note_on_c, 9, 42, 64
1, 167759, Note_on_c, 9, 40, 0
1, 167759, Note_on_c, 9, 42, 0
1, 167775, Note_on_c, 9, 44, 70
1, 167999, Note_on_c, 9, 44, 0
1, 168015, Note_on_c, 9, 42, 67
1, 168030, Note_on_c, 9, 36, 105
1, 168119, Note_on_c, 9, 36, 0
1, 168239, Note_on_c, 9, 42, 0
1, 168270, Note_on_c, 9, 44, 68
1, 168359, Note_on_c, 9, 44, 0
1, 168510, Note_on_c, 9, 40, 98
1, 168510, Note_on_c, 9, 42, 65
1, 168735, Note_on_c, 9, 44, 67
1, 168959, Note_on_c, 9, 40, 0
1, 168959, Note_on_c, 9, 42, 0
1, 168959, Note_on_c, 9, 44, 0
1, 168975, Note_on_c, 9, 42, 64
1, 168975, Note_on_c, 9, 36, 109
1, 169199, Note_on_c, 9, 42, 0
1, 169199, Note_on_c, 9, 36, 0
1, 169215, Note_on_c, 9, 44, 69
1, 169439, Note_on_c, 9, 44, 0
1, 169455, Note_on_c, 9, 40, 106
1, 169469, Note_on_c, 9, 40, 0
1, 169470, Note_on_c, 9, 42, 68
1, 169695, Note_on_c, 9, 44, 66
1, 169919, Note_on_c, 9, 42, 0
1, 169919, Note_on_c, 9, 44, 0
1, 169935, Note_on_c, 9, 42, 64
1, 169935, Note_on_c, 9, 36, 100
1, 170159, Note_on_c, 9, 42, 0
1, 170159, Note_on_c, 9, 36, 0
1, 170190, Note_on_c, 9, 44, 72
1, 170279, Note_on_c, 9, 44, 0
1, 170430, Note_on_c, 9, 40, 108
1, 170430, Note_on_c, 9, 42, 65
1, 170519, Note_on_c, 9, 40, 0
1, 170519, Note_on_c, 9, 42, 0
1, 170655, Note_on_c, 9, 46, 69
1, 170879, Note_on_c, 9, 46, 0
1, 170895, Note_on_c, 9, 42, 64
1, 170895, Note_on_c, 9, 36, 109
1, 171119, Note_on_c, 9, 42, 0
1, 171119, Note_on_c, 9, 36, 0
1, 171150, Note_on_c, 9, 44, 65
1, 171239, Note_on_c, 9, 44, 0
1, 171390, Note_on_c, 9, 40, 98
1, 171390, Note_on_c, 9, 42, 66
1, 171630, Note_on_c, 9, 44, 67
1, 171719, Note_on_c, 9, 44, 0
1, 171839, Note_on_c, 9, 40, 0
1, 171839, Note_on_c, 9, 42, 0
1, 171870, Note_on_c, 9, 42, 66
1, 171870, Note_on_c, 9, 36, 117
1, 171959, Note_on_c, 9, 36, 0
1, 172110, Note_on_c, 9, 44, 68
1, 172199, Note_on_c, 9, 44, 0
1, 172319, Note_on_c, 9, 42, 0
1, 172350, Note_on_c, 9, 40, 105
1, 172364, Note_on_c, 9, 40, 0
1, 172365, Note_on_c, 9, 42, 65
1, 172559, Note_on_c, 9, 42, 0
1, 172590, Note_on_c, 9, 44, 65
1, 172679, Note_on_c, 9, 44, 0
1, 172830, Note_on_c, 9, 42, 65
1, 172830, Note_on_c, 9, 36, 113
1, 172919, Note_on_c, 9, 36, 0
1, 173070, Note_on_c, 9, 44, 64
1, 173159, Note_on_c, 9, 44, 0
1, 173279, Note_on_c, 9, 42, 0
1, 173310, Note_on_c, 9, 40, 95
1, 173310, Note_on_c, 9, 42, 65
1, 173550, Note_on_c, 9, 44, 67
1, 173639, Note_on_c, 9, 44, 0
1, 173759, Note_on_c, 9, 40, 0
1, 173759, Note_on_c, 9, 42, 0
1, 173790, Note_on_c, 9, 42, 65
1, 173790, Note_on_c, 9, 36, 113
1, 173879, Note_on_c, 9, 36, 0
1, 174030, Note_on_c, 9, 44, 69
1, 174119, Note_on_c, 9, 44, 0
1, 174239, Note_on_c, 9, 42, 0
1, 174270, Note_on_c, 9, 40, 112
1, 174270, Note_on_c, 9, 42, 64
1, 174495, Note_on_c, 9, 44, 67
1, 174719, Note_on_c, 9, 40, 0
1, 174719, Note_on_c, 9, 42, 0
1, 174719, Note_on_c, 9, 44, 0
1, 174735, Note_on_c, 9, 42, 65
1, 174735, Note_on_c, 9, 36, 113
1, 174959, Note_on_c, 9, 42, 0
1, 174959, Note_on_c, 9, 36, 0
1, 174975, Note_on_c, 9, 44, 66
1, 175199, Note_on_c, 9, 44, 0
1, 175230, Note_on_c, 9, 40, 97
1, 175230, Note_on_c, 9, 42, 65
1, 175455, Note_on_c, 9, 44, 68
1, 175679, Note_on_c, 9, 40, 0
1, 175679, Note_on_c, 9, 42, 0
1, 175679, Note_on_c, 9, 44, 0
1, 175695, Note_on_c, 9, 42, 68
1, 175695, Note_on_c, 9, 36, 113
1, 175919, Note_on_c, 9, 42, 0
1, 175919, Note_on_c, 9, 36, 0
1, 175935, Note_on_c, 9, 44, 69
1, 176159, Note_on_c, 9, 44, 0
1, 176175, Note_on_c, 9, 40, 100
1, 176175, Note_on_c, 9, 42, 65
1, 176399, Note_on_c, 9, 40, 0
1, 176399, Note_on_c, 9, 42, 0
1, 176415, Note_on_c, 9, 44, 67
1, 176639, Note_on_c, 9, 44, 0
1, 176670, Note_on_c, 9, 42, 65
1, 176670, Note_on_c, 9, 36, 109
1, 176759, Note_on_c, 9, 36, 0
1, 176910, Note_on_c, 9, 44, 69
1, 176999, Note_on_c, 9, 44, 0
1, 177119, Note_on_c, 9, 42, 0
1, 177150, Note_on_c, 9, 40, 98
1, 177150, Note_on_c, 9, 42, 68
1, 177239, Note_on_c, 9, 40, 0
1, 177239, Note_on_c, 9, 42, 0
1, 177390, Note_on_c, 9, 46, 68
1, 177479, Note_on_c, 9, 46, 0
1, 177630, Note_on_c, 9, 42, 68
1, 177630, Note_on_c, 9, 36, 105
1, 177719, Note_on_c, 9, 42, 0
1, 177855, Note_on_c, 9, 40, 84
1, 177899, Note_on_c, 9, 40, 0
1, 177975, Note_on_c, 9, 40, 70
1, 178019, Note_on_c, 9, 40, 0
1, 178079, Note_on_c, 9, 36, 0
1, 178095, Note_on_c, 9, 40, 110
1, 178109, Note_on_c, 9, 40, 0
1, 178110, Note_on_c, 9, 42, 82
1, 178199, Note_on_c, 9, 42, 0
1, 178350, Note_on_c, 9, 40, 103
1, 178439, Note_on_c, 9, 40, 0
1, 178590, Note_on_c, 9, 42, 79
1, 178590, Note_on_c, 9, 49, 67
1, 178590, Note_on_c, 9, 36, 100
1, 178679, Note_on_c, 9, 42, 0
1, 178679, Note_on_c, 9, 49, 0
1, 178815, Note_on_c, 9, 42, 64
1, 178919, Note_on_c, 9, 36, 0
1, 178935, Note_on_c, 9, 44, 64
1, 178979, Note_on_c, 9, 44, 0
1, 179039, Note_on_c, 9, 42, 0
1, 179040, Note_on_c, 9, 42, 69
1, 179054, Note_on_c, 9, 42, 0
1, 179055, Note_on_c, 9, 40, 105
1, 179279, Note_on_c, 9, 40, 0
1, 179295, Note_on_c, 9, 42, 65
1, 179415, Note_on_c, 9, 44, 69
1, 179459, Note_on_c, 9, 44, 0
1, 179519, Note_on_c, 9, 42, 0
1, 179535, Note_on_c, 9, 42, 65
1, 179535, Note_on_c, 9, 36, 100
1, 179759, Note_on_c, 9, 42, 0
1, 179759, Note_on_c, 9, 36, 0
1, 179775, Note_on_c, 9, 42, 63
1, 179895, Note_on_c, 9, 44, 66
1, 179939, Note_on_c, 9, 44, 0
1, 179999, Note_on_c, 9, 42, 0
1, 180015, Note_on_c, 9, 40, 105
1, 180015, Note_on_c, 9, 42, 61
1, 180239, Note_on_c, 9, 40, 0
1, 180239, Note_on_c, 9, 42, 0
1, 180255, Note_on_c, 9, 42, 64
1, 180375, Note_on_c, 9, 44, 64
1, 180419, Note_on_c, 9, 44, 0
1, 180479, Note_on_c, 9, 42, 0
1, 180495, Note_on_c, 9, 42, 64
1, 180495, Note_on_c, 9, 36, 109
1, 180719, Note_on_c, 9, 42, 0
1, 180719, Note_on_c, 9, 36, 0
1, 180735, Note_on_c, 9, 42, 64
1, 180855, Note_on_c, 9, 44, 64
1, 180899, Note_on_c, 9, 44, 0
1, 180959, Note_on_c, 9, 42, 0
1, 180975, Note_on_c, 9, 40, 109
1, 180975, Note_on_c, 9, 42, 64
1, 181199, Note_on_c, 9, 40, 0
1, 181199, Note_on_c, 9, 42, 0
1, 181215, Note_on_c, 9, 42, 64
1, 181439, Note_on_c, 9, 42, 0
1, 181455, Note_on_c, 9, 42, 65
1, 181455, Note_on_c, 9, 36, 116
1, 181679, Note_on_c, 9, 42, 0
1, 181679, Note_on_c, 9, 36, 0
1, 181695, Note_on_c, 9, 42, 63
1, 181830, Note_on_c, 9, 44, 71
1, 181919, Note_on_c, 9, 42, 0
1, 181919, Note_on_c, 9, 44, 0
1, 181935, Note_on_c, 9, 40, 105
1, 181935, Note_on_c, 9, 42, 60
1, 182159, Note_on_c, 9, 40, 0
1, 182159, Note_on_c, 9, 42, 0
1, 182190, Note_on_c, 9, 42, 64
1, 182279, Note_on_c, 9, 42, 0
1, 182430, Note_on_c, 9, 42, 65
1, 182430, Note_on_c, 9, 36, 117
1, 182519, Note_on_c, 9, 42, 0
1, 182670, Note_on_c, 9, 42, 65
1, 182759, Note_on_c, 9, 36, 0
1, 182759, Note_on_c, 9, 42, 0
1, 182790, Note_on_c, 9, 44, 68
1, 182879, Note_on_c, 9, 44, 0
1, 182910, Note_on_c, 9, 40, 100
1, 182910, Note_on_c, 9, 42, 65
1, 182999, Note_on_c, 9, 40, 0
1, 182999, Note_on_c, 9, 42, 0
1, 183150, Note_on_c, 9, 42, 64
1, 183239, Note_on_c, 9, 42, 0
1, 183390, Note_on_c, 9, 42, 66
1, 183390, Note_on_c, 9, 36, 113
1, 183479, Note_on_c, 9, 42, 0
1, 183630, Note_on_c, 9, 42, 64
1, 183719, Note_on_c, 9, 36, 0
1, 183719, Note_on_c, 9, 42, 0
1, 183750, Note_on_c, 9, 44, 66
1, 183839, Note_on_c, 9, 44, 0
1, 183870, Note_on_c, 9, 40, 103
1, 183870, Note_on_c, 9, 42, 65
1, 183959, Note_on_c, 9, 40, 0
1, 183959, Note_on_c, 9, 42, 0
1, 184110, Note_on_c, 9, 42, 65
1, 184199, Note_on_c, 9, 42, 0
1, 184350, Note_on_c, 9, 42, 68
1, 184350, Note_on_c, 9, 36, 109
1, 184439, Note_on_c, 9, 42, 0
1, 184590, Note_on_c, 9, 42, 64
1, 184679, Note_on_c, 9, 36, 0
1, 184679, Note_on_c, 9, 42, 0
1, 184710, Note_on_c, 9, 44, 65
1, 184799, Note_on_c, 9, 44, 0
1, 184830, Note_on_c, 9, 40, 113
1, 184830, Note_on_c, 9, 42, 66
1, 184919, Note_on_c, 9, 40, 0
1, 184919, Note_on_c, 9, 42, 0
1, 185070, Note_on_c, 9, 42, 65
1, 185159, Note_on_c, 9, 42, 0
1, 185310, Note_on_c, 9, 42, 67
1, 185310, Note_on_c, 9, 36, 117
1, 185399, Note_on_c, 9, 42, 0
1, 185550, Note_on_c, 9, 42, 64
1, 185639, Note_on_c, 9, 36, 0
1, 185639, Note_on_c, 9, 42, 0
1, 185670, Note_on_c, 9, 44, 66
1, 185759, Note_on_c, 9, 44, 0
1, 185790, Note_on_c, 9, 40, 103
1, 185790, Note_on_c, 9, 42, 66
1, 185879, Note_on_c, 9, 40, 0
1, 185879, Note_on_c, 9, 42, 0
1, 186030, Note_on_c, 9, 42, 64
1, 186119, Note_on_c, 9, 42, 0
1, 186270, Note_on_c, 9, 42, 72
1, 186270, Note_on_c, 9, 49, 67
1, 186270, Note_on_c, 9, 36, 103
1, 186359, Note_on_c, 9, 42, 0
1, 186359, Note_on_c, 9, 49, 0
1, 186495, Note_on_c, 9, 42, 63
1, 186599, Note_on_c, 9, 36, 0
1, 186615, Note_on_c, 9, 44, 63
1, 186659, Note_on_c, 9, 44, 0
1, 186719, Note_on_c, 9, 42, 0
1, 186735, Note_on_c, 9, 40, 98
1, 186735, Note_on_c, 9, 42, 66
1, 186959, Note_on_c, 9, 40, 0
1, 186959, Note_on_c, 9, 42, 0
1, 186975, Note_on_c, 9, 42, 65
1, 187095, Note_on_c, 9, 44, 61
1, 187139, Note_on_c, 9, 44, 0
1, 187199, Note_on_c, 9, 42, 0
1, 187215, Note_on_c, 9, 36, 103
1, 187230, Note_on_c, 9, 42, 66
1, 187319, Note_on_c, 9, 42, 0
1, 187439, Note_on_c, 9, 36, 0
1, 187455, Note_on_c, 9, 42, 63
1, 187575, Note_on_c, 9, 44, 63
1, 187619, Note_on_c, 9, 44, 0
1, 187679, Note_on_c, 9, 42, 0
1, 187695, Note_on_c, 9, 40, 95
1, 187695, Note_on_c, 9, 42, 63
1, 187919, Note_on_c, 9, 40, 0
1, 187919, Note_on_c, 9, 42, 0
1, 187935, Note_on_c, 9, 42, 64
1, 188055, Note_on_c, 9, 44, 63
1, 188099, Note_on_c, 9, 44, 0
1, 188159, Note_on_c, 9, 42, 0
1, 188175, Note_on_c, 9, 42, 64
1, 188175, Note_on_c, 9, 36, 113
1, 188399, Note_on_c, 9, 42, 0
1, 188399, Note_on_c, 9, 36, 0
1, 188430, Note_on_c, 9, 42, 64
1, 188519, Note_on_c, 9, 42, 0
1, 188550, Note_on_c, 9, 44, 55
1, 188639, Note_on_c, 9, 44, 0
1, 188670, Note_on_c, 9, 40, 109
1, 188670, Note_on_c, 9, 42, 63
1, 188759, Note_on_c, 9, 40, 0
1, 188759, Note_on_c, 9, 42, 0
1, 188895, Note_on_c, 9, 42, 64
1, 189119, Note_on_c, 9, 42, 0
1, 189135, Note_on_c, 9, 42, 66
1, 189135, Note_on_c, 9, 36, 105
1, 189359, Note_on_c, 9, 42, 0
1, 189359, Note_on_c, 9, 36, 0
1, 189375, Note_on_c, 9, 42, 65
1, 189495, Note_on_c, 9, 44, 65
1, 189539, Note_on_c, 9, 44, 0
1, 189599, Note_on_c, 9, 42, 0
1, 189615, Note_on_c, 9, 40, 103
1, 189615, Note_on_c, 9, 42, 64
1, 189839, Note_on_c, 9, 40, 0
1, 189839, Note_on_c, 9, 42, 0
1, 189855, Note_on_c, 9, 42, 63
1, 190079, Note_on_c, 9, 42, 0
1, 190095, Note_on_c, 9, 42, 68
1, 190095, Note_on_c, 9, 36, 116
1, 190319, Note_on_c, 9, 42, 0
1, 190319, Note_on_c, 9, 36, 0
1, 190350, Note_on_c, 9, 42, 65
1, 190439, Note_on_c, 9, 42, 0
1, 190470, Note_on_c, 9, 44, 62
1, 190559, Note_on_c, 9, 44, 0
1, 190590, Note_on_c, 9, 40, 95
1, 190590, Note_on_c, 9, 42, 66
1, 190679, Note_on_c, 9, 40, 0
1, 190679, Note_on_c, 9, 42, 0
1, 190830, Note_on_c, 9, 42, 63
1, 190919, Note_on_c, 9, 42, 0
1, 191070, Note_on_c, 9, 42, 65
1, 191070, Note_on_c, 9, 36, 113
1, 191159, Note_on_c, 9, 42, 0
1, 191310, Note_on_c, 9, 42, 64
1, 191399, Note_on_c, 9, 36, 0
1, 191399, Note_on_c, 9, 42, 0
1, 191430, Note_on_c, 9, 44, 66
1, 191519, Note_on_c, 9, 44, 0
1, 191550, Note_on_c, 9, 40, 100
1, 191550, Note_on_c, 9, 42, 63
1, 191639, Note_on_c, 9, 40, 0
1, 191639, Note_on_c, 9, 42, 0
1, 191790, Note_on_c, 9, 42, 64
1, 191879, Note_on_c, 9, 42, 0
1, 192030, Note_on_c, 9, 42, 65
1, 192030, Note_on_c, 9, 36, 113
1, 192119, Note_on_c, 9, 42, 0
1, 192270, Note_on_c, 9, 42, 65
1, 192359, Note_on_c, 9, 36, 0
1, 192359, Note_on_c, 9, 42, 0
1, 192390, Note_on_c, 9, 44, 68
1, 192479, Note_on_c, 9, 44, 0
1, 192510, Note_on_c, 9, 40, 103
1, 192510, Note_on_c, 9, 42, 64
1, 192599, Note_on_c, 9, 40, 0
1, 192599, Note_on_c, 9, 42, 0
1, 192750, Note_on_c, 9, 42, 65
1, 192839, Note_on_c, 9, 42, 0
1, 192990, Note_on_c, 9, 42, 68
1, 192990, Note_on_c, 9, 36, 103
1, 193079, Note_on_c, 9, 42, 0
1, 193230, Note_on_c, 9, 40, 96
1, 193319, Note_on_c, 9, 40, 0
1, 193335, Note_on_c, 9, 40, 90
1, 193379, Note_on_c, 9, 40, 0
1, 193439, Note_on_c, 9, 36, 0
1, 193470, Note_on_c, 9, 40, 97
1, 193470, Note_on_c, 9, 42, 65
1, 193559, Note_on_c, 9, 40, 0
1, 193559, Note_on_c, 9, 42, 0
1, 193575, Note_on_c, 9, 40, 91
1, 193619, Note_on_c, 9, 40, 0
1, 193695, Note_on_c, 9, 40, 100
1, 193919, Note_on_c, 9, 40, 0
1, 193950, Note_on_c, 9, 42, 66
1, 193950, Note_on_c, 9, 49, 66
1, 193950, Note_on_c, 9, 36, 109
1, 194039, Note_on_c, 9, 42, 0
1, 194039, Note_on_c, 9, 49, 0
1, 194175, Note_on_c, 9, 42, 58
1, 194399, Note_on_c, 9, 36, 0
1, 194399, Note_on_c, 9, 42, 0
1, 194415, Note_on_c, 9, 40, 98
1, 194415, Note_on_c, 9, 42, 61
1, 194639, Note_on_c, 9, 40, 0
1, 194639, Note_on_c, 9, 42, 0
1, 194655, Note_on_c, 9, 42, 64
1, 194879, Note_on_c, 9, 42, 0
1, 194895, Note_on_c, 9, 42, 65
1, 194895, Note_on_c, 9, 36, 105
1, 195119, Note_on_c, 9, 42, 0
1, 195119, Note_on_c, 9, 36, 0
1, 195150, Note_on_c, 9, 42, 61
1, 195239, Note_on_c, 9, 42, 0
1, 195270, Note_on_c, 9, 44, 64
1, 195359, Note_on_c, 9, 44, 0
1, 195390, Note_on_c, 9, 40, 100
1, 195390, Note_on_c, 9, 42, 65
1, 195479, Note_on_c, 9, 40, 0
1, 195479, Note_on_c, 9, 42, 0
1, 195615, Note_on_c, 9, 46, 68
1, 195629, Note_on_c, 9, 46, 0
1, 195630, Note_on_c, 9, 51, 105
1, 195719, Note_on_c, 9, 51, 0
1, 197280, Note_on_c, 9, 41, 119
1, 197759, Note_on_c, 9, 41, 0
1, 197775, Note_on_c, 9, 42, 69
1, 197775, Note_on_c, 9, 36, 96
1, 197999, Note_on_c, 9, 42, 0
1, 197999, Note_on_c, 9, 36, 0
1, 198015, Note_on_c, 9, 44, 70
1, 198239, Note_on_c, 9, 44, 0
1, 198255, Note_on_c, 9, 40, 105
1, 198255, Note_on_c, 9, 42, 67
1, 198479, Note_on_c, 9, 40, 0
1, 198479, Note_on_c, 9, 42, 0
1, 198495, Note_on_c, 9, 44, 68
1, 198719, Note_on_c, 9, 44, 0
1, 198735, Note_on_c, 9, 42, 65
1, 198735, Note_on_c, 9, 36, 109
1, 198959, Note_on_c, 9, 42, 0
1, 198959, Note_on_c, 9, 36, 0
1, 198975, Note_on_c, 9, 44, 69
1, 199199, Note_on_c, 9, 44, 0
1, 199215, Note_on_c, 9, 40, 100
1, 199215, Note_on_c, 9, 42, 65
1, 199439, Note_on_c, 9, 40, 0
1, 199439, Note_on_c, 9, 42, 0
1, 199455, Note_on_c, 9, 44, 66
1, 199679, Note_on_c, 9, 44, 0
1, 199695, Note_on_c, 9, 42, 65
1, 199695, Note_on_c, 9, 36, 109
1, 199919, Note_on_c, 9, 42, 0
1, 199919, Note_on_c, 9, 36, 0
1, 199935, Note_on_c, 9, 44, 68
1, 200159, Note_on_c, 9, 44, 0
1, 200175, Note_on_c, 9, 40, 103
1, 200175, Note_on_c, 9, 42, 65
1, 200399, Note_on_c, 9, 40, 0
1, 200399, Note_on_c, 9, 42, 0
1, 200430, Note_on_c, 9, 44, 67
1, 200519, Note_on_c, 9, 44, 0
1, 200670, Note_on_c, 9, 42, 65
1, 200670, Note_on_c, 9, 36, 103
1, 200759, Note_on_c, 9, 36, 0
1, 200910, Note_on_c, 9, 44, 68
1, 200999, Note_on_c, 9, 44, 0
1, 201119, Note_on_c, 9, 42, 0
1, 201150, Note_on_c, 9, 40, 98
1, 201150, Note_on_c, 9, 42, 64
1, 201375, Note_on_c, 9, 44, 66
1, 201599, Note_on_c, 9, 40, 0
1, 201599, Note_on_c, 9, 42, 0
1, 201599, Note_on_c, 9, 44, 0
1, 201615, Note_on_c, 9, 42, 64
1, 201615, Note_on_c, 9, 36, 100
1, 201839, Note_on_c, 9, 42, 0
1, 201839, Note_on_c, 9, 36, 0
1, 201855, Note_on_c, 9, 44, 69
1, 202079, Note_on_c, 9, 44, 0
1, 202095, Note_on_c, 9, 40, 100
1, 202095, Note_on_c, 9, 42, 64
1, 202319, Note_on_c, 9, 40, 0
1, 202319, Note_on_c, 9, 42, 0
1, 202335, Note_on_c, 9, 44, 70
1, 202559, Note_on_c, 9, 44, 0
1, 202575, Note_on_c, 9, 42, 67
1, 202590, Note_on_c, 9, 36, 105
1, 202679, Note_on_c, 9, 36, 0
1, 202799, Note_on_c, 9, 42, 0
1, 202815, Note_on_c, 9, 44, 68
1, 203039, Note_on_c, 9, 44, 0
1, 203055, Note_on_c, 9, 40, 98
1, 203069, Note_on_c, 9, 40, 0
1, 203070, Note_on_c, 9, 42, 65
1, 203295, Note_on_c, 9, 44, 67
1, 203519, Note_on_c, 9, 42, 0
1, 203519, Note_on_c, 9, 44, 0
1, 203535, Note_on_c, 9, 42, 64
1, 203535, Note_on_c, 9, 36, 109
1, 203759, Note_on_c, 9, 42, 0
1, 203759, Note_on_c, 9, 36, 0
1, 203775, Note_on_c, 9, 44, 69
1, 203999, Note_on_c, 9, 44, 0
1, 204015, Note_on_c, 9, 40, 103
1, 204029, Note_on_c, 9, 40, 0
1, 204030, Note_on_c, 9, 42, 68
1, 204255, Note_on_c, 9, 44, 66
1, 204479, Note_on_c, 9, 42, 0
1, 204479, Note_on_c, 9, 44, 0
1, 204495, Note_on_c, 9, 42, 64
1, 204495, Note_on_c, 9, 36, 100
1, 204719, Note_on_c, 9, 42, 0
1, 204719, Note_on_c, 9, 36, 0
1, 204750, Note_on_c, 9, 44, 72
1, 204839, Note_on_c, 9, 44, 0
1, 204990, Note_on_c, 9, 40, 110
1, 204990, Note_on_c, 9, 42, 65
1, 205079, Note_on_c, 9, 40, 0
1, 205079, Note_on_c, 9, 42, 0
1, 205215, Note_on_c, 9, 46, 69
1, 205439, Note_on_c, 9, 46, 0
1, 205455, Note_on_c, 9, 42, 64
1, 205455, Note_on_c, 9, 36, 109
1, 205679, Note_on_c, 9, 42, 0
1, 205679, Note_on_c, 9, 36, 0
1, 205710, Note_on_c, 9, 44, 65
1, 205799, Note_on_c, 9, 44, 0
1, 205950, Note_on_c, 9, 40, 98
1, 205950, Note_on_c, 9, 42, 66
1, 206190, Note_on_c, 9, 44, 67
1, 206279, Note_on_c, 9, 44, 0
1, 206399, Note_on_c, 9, 40, 0
1, 206399, Note_on_c, 9, 42, 0
1, 206430, Note_on_c, 9, 42, 66
1, 206430, Note_on_c, 9, 36, 117
1, 206519, Note_on_c, 9, 36, 0
1, 206670, Note_on_c, 9, 44, 68
1, 206759, Note_on_c, 9, 44, 0
1, 206879, Note_on_c, 9, 42, 0
1, 206910, Note_on_c, 9, 40, 95
1, 206924, Note_on_c, 9, 40, 0
1, 206925, Note_on_c, 9, 42, 65
1, 207119, Note_on_c, 9, 42, 0
1, 207150, Note_on_c, 9, 44, 65
1, 207239, Note_on_c, 9, 44, 0
1, 207390, Note_on_c, 9, 42, 65
1, 207390, Note_on_c, 9, 36, 113
1, 207479, Note_on_c, 9, 36, 0
1, 207630, Note_on_c, 9, 44, 64
1, 207719, Note_on_c, 9, 44, 0
1, 207839, Note_on_c, 9, 42, 0
1, 207870, Note_on_c, 9, 40, 106
1, 207870, Note_on_c, 9, 42, 65
1, 208110, Note_on_c, 9, 44, 67
1, 208199, Note_on_c, 9, 44, 0
1, 208319, Note_on_c, 9, 40, 0
1, 208319, Note_on_c, 9, 42, 0
1, 208350, Note_on_c, 9, 42, 65
1, 208350, Note_on_c, 9, 36, 113
1, 208439, Note_on_c, 9, 36, 0
1, 208590, Note_on_c, 9, 44, 69
1, 208679, Note_on_c, 9, 44, 0
1, 208799, Note_on_c, 9, 42, 0
1, 208830, Note_on_c, 9, 40, 102
1, 208830, Note_on_c, 9, 42, 64
1, 209055, Note_on_c, 9, 44, 67
1, 209279, Note_on_c, 9, 40, 0
1, 209279, Note_on_c, 9, 42, 0
1, 209279, Note_on_c, 9, 44, 0
1, 209295, Note_on_c, 9, 42, 65
1, 209295, Note_on_c, 9, 36, 113
1, 209519, Note_on_c, 9, 42, 0
1, 209519, Note_on_c, 9, 36, 0
1, 209535, Note_on_c, 9, 44, 66
1, 209759, Note_on_c, 9, 44, 0
1, 209790, Note_on_c, 9, 40, 91
1, 209790, Note_on_c, 9, 42, 65
1, 210015, Note_on_c, 9, 44, 68
1, 210239, Note_on_c, 9, 40, 0
1, 210239, Note_on_c, 9, 42, 0
1, 210239, Note_on_c, 9, 44, 0
1, 210255, Note_on_c, 9, 42, 68
1, 210255, Note_on_c, 9, 36, 113
1, 210479, Note_on_c, 9, 42, 0
1, 210479, Note_on_c, 9, 36, 0
1, 210495, Note_on_c, 9, 44, 69
1, 210719, Note_on_c, 9, 44, 0
1, 210735, Note_on_c, 9, 40, 100
1, 210735, Note_on_c, 9, 42, 65
1, 210959, Note_on_c, 9, 40, 0
1, 210959, Note_on_c, 9, 42, 0
1, 210975, Note_on_c, 9, 44, 67
1, 211199, Note_on_c, 9, 44, 0
1, 211230, Note_on_c, 9, 42, 65
1, 211230, Note_on_c, 9, 36, 109
1, 211319, Note_on_c, 9, 36, 0
1, 211470, Note_on_c, 9, 44, 69
1, 211559, Note_on_c, 9, 44, 0
1, 211679, Note_on_c, 9, 42, 0
1, 211710, Note_on_c, 9, 40, 107
1, 211710, Note_on_c, 9, 42, 68
1, 211799, Note_on_c, 9, 40, 0
1, 211799, Note_on_c, 9, 42, 0
1, 211950, Note_on_c, 9, 46, 68
1, 212039, Note_on_c, 9, 46, 0
1, 212190, Note_on_c, 9, 42, 68
1, 212190, Note_on_c, 9, 36, 105
1, 212279, Note_on_c, 9, 42, 0
1, 212415, Note_on_c, 9, 40, 84
1, 212459, Note_on_c, 9, 40, 0
1, 212535, Note_on_c, 9, 40, 70
1, 212579, Note_on_c, 9, 40, 0
1, 212639, Note_on_c, 9, 36, 0
1, 212655, Note_on_c, 9, 40, 86
1, 212669, Note_on_c, 9, 40, 0
1, 212670, Note_on_c, 9, 42, 82
1, 212759, Note_on_c, 9, 42, 0
1, 212895, Note_on_c, 9, 40, 98
1, 213119, Note_on_c, 9, 40, 0
1, 213135, Note_on_c, 9, 42, 86
1, 213135, Note_on_c, 9, 49, 85
1, 213135, Note_on_c, 9, 36, 96
1, 213359, Note_on_c, 9, 42, 0
1, 213359, Note_on_c, 9, 49, 0
1, 213359, Note_on_c, 9, 36, 0
1, 213375, Note_on_c, 9, 44, 70
1, 213599, Note_on_c, 9, 44, 0
1, 213615, Note_on_c, 9, 40, 105
1, 213615, Note_on_c, 9, 42, 67
1, 213839, Note_on_c, 9, 40, 0
1, 213839, Note_on_c, 9, 42, 0
1, 213855, Note_on_c, 9, 44, 68
1, 214079, Note_on_c, 9, 44, 0
1, 214095, Note_on_c, 9, 42, 65
1, 214095, Note_on_c, 9, 36, 109
1, 214319, Note_on_c, 9, 42, 0
1, 214319, Note_on_c, 9, 36, 0
1, 214335, Note_on_c, 9, 44, 69
1, 214559, Note_on_c, 9, 44, 0
1, 214575, Note_on_c, 9, 40, 100
1, 214575, Note_on_c, 9, 42, 65
1, 214799, Note_on_c, 9, 40, 0
1, 214799, Note_on_c, 9, 42, 0
1, 214815, Note_on_c, 9, 44, 66
1, 215039, Note_on_c, 9, 44, 0
1, 215055, Note_on_c, 9, 42, 65
1, 215055, Note_on_c, 9, 36, 109
1, 215279, Note_on_c, 9, 42, 0
1, 215279, Note_on_c, 9, 36, 0
1, 215295, Note_on_c, 9, 44, 68
1, 215519, Note_on_c, 9, 44, 0
1, 215535, Note_on_c, 9, 40, 107
1, 215535, Note_on_c, 9, 42, 65
1, 215759, Note_on_c, 9, 40, 0
1, 215759, Note_on_c, 9, 42, 0
1, 215790, Note_on_c, 9, 44, 67
1, 215879, Note_on_c, 9, 44, 0
1, 216030, Note_on_c, 9, 42, 65
1, 216030, Note_on_c, 9, 36, 103
1, 216119, Note_on_c, 9, 36, 0
1, 216270, Note_on_c, 9, 44, 68
1, 216359, Note_on_c, 9, 44, 0
1, 216479, Note_on_c, 9, 42, 0
1, 216510, Note_on_c, 9, 40, 98
1, 216510, Note_on_c, 9, 42, 64
1, 216735, Note_on_c, 9, 44, 66
1, 216959, Note_on_c, 9, 40, 0
1, 216959, Note_on_c, 9, 42, 0
1, 216959, Note_on_c, 9, 44, 0
1, 216975, Note_on_c, 9, 42, 64
1, 216975, Note_on_c, 9, 36, 100
1, 217199, Note_on_c, 9, 42, 0
1, 217199, Note_on_c, 9, 36, 0
1, 217215, Note_on_c, 9, 44, 69
1, 217439, Note_on_c, 9, 44, 0
1, 217455, Note_on_c, 9, 40, 100
1, 217455, Note_on_c, 9, 42, 64
1, 217679, Note_on_c, 9, 40, 0
1, 217679, Note_on_c, 9, 42, 0
1, 217710, Note_on_c, 9, 44, 70
1, 217799, Note_on_c, 9, 44, 0
1, 217950, Note_on_c, 9, 42, 67
1, 217950, Note_on_c, 9, 36, 105
1, 218204, Note_on_c, 9, 36, 0
1, 218205, Note_on_c, 9, 44, 68
1, 218399, Note_on_c, 9, 42, 0
1, 218399, Note_on_c, 9, 44, 0
1, 218445, Note_on_c, 9, 40, 98
1, 218445, Note_on_c, 9, 42, 65
1, 218639, Note_on_c, 9, 40, 0
1, 218639, Note_on_c, 9, 42, 0
1, 218670, Note_on_c, 9, 44, 67
1, 218759, Note_on_c, 9, 44, 0
1, 218895, Note_on_c, 9, 42, 64
1, 218895, Note_on_c, 9, 36, 109
1, 219119, Note_on_c, 9, 42, 0
1, 219119, Note_on_c, 9, 36, 0
1, 219135, Note_on_c, 9, 44, 69
1, 219359, Note_on_c, 9, 44, 0
1, 219390, Note_on_c, 9, 40, 109
1, 219390, Note_on_c, 9, 42, 68
1, 219645, Note_on_c, 9, 44, 66
1, 219839, Note_on_c, 9, 40, 0
1, 219839, Note_on_c, 9, 42, 0
1, 219839, Note_on_c, 9, 44, 0
1, 219840, Note_on_c, 9, 42, 64
1, 219840, Note_on_c, 9, 36, 100
1, 220079, Note_on_c, 9, 36, 0
1, 220170, Note_on_c, 9, 44, 72
1, 220199, Note_on_c, 9, 44, 0
1, 220319, Note_on_c, 9, 42, 0
1, 220410, Note_on_c, 9, 40, 112
1, 220410, Note_on_c, 9, 42, 65
1, 220439, Note_on_c, 9, 40, 0
1, 220439, Note_on_c, 9, 42, 0
1, 220590, Note_on_c, 9, 46, 69
1, 220769, Note_on_c, 9, 46, 0
1, 220785, Note_on_c, 9, 42, 69
1, 220785, Note_on_c, 9, 36, 96
1, 220799, Note_on_c, 9, 42, 0
1, 220799, Note_on_c, 9, 36, 0
1, 221040, Note_on_c, 9, 44, 70
1, 221279, Note_on_c, 9, 44, 0
1, 221295, Note_on_c, 9, 40, 105
1, 221295, Note_on_c, 9, 42, 67
1, 221519, Note_on_c, 9, 40, 0
1, 221519, Note_on_c, 9, 42, 0
1, 221535, Note_on_c, 9, 44, 68
1, 221759, Note_on_c, 9, 44, 0
1, 221775, Note_on_c, 9, 42, 65
1, 221775, Note_on_c, 9, 36, 109
1, 221999, Note_on_c, 9, 42, 0
1, 221999, Note_on_c, 9, 36, 0
1, 222030, Note_on_c, 9, 44, 69
1, 222119, Note_on_c, 9, 44, 0
1, 222270, Note_on_c, 9, 40, 100
1, 222270, Note_on_c, 9, 42, 65
1, 222495, Note_on_c, 9, 44, 66
1, 222719, Note_on_c, 9, 40, 0
1, 222719, Note_on_c, 9, 42, 0
1, 222719, Note_on_c, 9, 44, 0
1, 222735, Note_on_c, 9, 42, 65
1, 222735, Note_on_c, 9, 36, 109
1, 222959, Note_on_c, 9, 42, 0
1, 222959, Note_on_c, 9, 36, 0
1, 222990, Note_on_c, 9, 44, 68
1, 223079, Note_on_c, 9, 44, 0
1, 223230, Note_on_c, 9, 40, 95
1, 223230, Note_on_c, 9, 42, 65
1, 223470, Note_on_c, 9, 44, 67
1, 223559, Note_on_c, 9, 44, 0
1, 223679, Note_on_c, 9, 40, 0
1, 223679, Note_on_c, 9, 42, 0
1, 223710, Note_on_c, 9, 42, 65
1, 223710, Note_on_c, 9, 36, 103
1, 223799, Note_on_c, 9, 36, 0
1, 223950, Note_on_c, 9, 44, 68
1, 224039, Note_on_c, 9, 44, 0
1, 224159, Note_on_c, 9, 42, 0
1, 224190, Note_on_c, 9, 40, 105
1, 224204, Note_on_c, 9, 40, 0
1, 224205, Note_on_c, 9, 42, 64
1, 224399, Note_on_c, 9, 42, 0
1, 224430, Note_on_c, 9, 44, 66
1, 224519, Note_on_c, 9, 44, 0
1, 224655, Note_on_c, 9, 42, 64
1, 224655, Note_on_c, 9, 36, 100
1, 224879, Note_on_c, 9, 42, 0
1, 224879, Note_on_c, 9, 36, 0
1, 224910, Note_on_c, 9, 44, 69
1, 224999, Note_on_c, 9, 44, 0
1, 225150, Note_on_c, 9, 40, 100
1, 225150, Note_on_c, 9, 42, 64
1, 225390, Note_on_c, 9, 44, 70
1, 225479, Note_on_c, 9, 44, 0
1, 225599, Note_on_c, 9, 40, 0
1, 225599, Note_on_c, 9, 42, 0
1, 225615, Note_on_c, 9, 42, 67
1, 225630, Note_on_c, 9, 36, 105
1, 225719, Note_on_c, 9, 36, 0
1, 225839, Note_on_c, 9, 42, 0
1, 225870, Note_on_c, 9, 44, 68
1, 225959, Note_on_c, 9, 44, 0
1, 226095, Note_on_c, 9, 40, 98
1, 226109, Note_on_c, 9, 40, 0
1, 226110, Note_on_c, 9, 42, 65
1, 226335, Note_on_c, 9, 44, 67
1, 226559, Note_on_c, 9, 42, 0
1, 226559, Note_on_c, 9, 44, 0
1, 226575, Note_on_c, 9, 42, 64
1, 226575, Note_on_c, 9, 36, 109
1, 226799, Note_on_c, 9, 42, 0
1, 226799, Note_on_c, 9, 36, 0
1, 226815, Note_on_c, 9, 44, 69
1, 227039, Note_on_c, 9, 44, 0
1, 227055, Note_on_c, 9, 40, 92
1, 227055, Note_on_c, 9, 42, 68
1, 227279, Note_on_c, 9, 40, 0
1, 227279, Note_on_c, 9, 42, 0
1, 227295, Note_on_c, 9, 44, 66
1, 227519, Note_on_c, 9, 44, 0
1, 227535, Note_on_c, 9, 42, 64
1, 227535, Note_on_c, 9, 36, 100
1, 227759, Note_on_c, 9, 42, 0
1, 227759, Note_on_c, 9, 36, 0
1, 227790, Note_on_c, 9, 44, 72
1, 227879, Note_on_c, 9, 44, 0
1, 228030, Note_on_c, 9, 40, 112
1, 228030, Note_on_c, 9, 42, 65
1, 228119, Note_on_c, 9, 40, 0
1, 228119, Note_on_c, 9, 42, 0
1, 228255, Note_on_c, 9, 46, 69
1, 228479, Note_on_c, 9, 46, 0
1, 228495, Note_on_c, 9, 42, 69
1, 228495, Note_on_c, 9, 36, 96
1, 228719, Note_on_c, 9, 42, 0
1, 228719, Note_on_c, 9, 36, 0
1, 228735, Note_on_c, 9, 44, 70
1, 228959, Note_on_c, 9, 44, 0
1, 228975, Note_on_c, 9, 40, 105
1, 228975, Note_on_c, 9, 42, 67
1, 229199, Note_on_c, 9, 40, 0
1, 229199, Note_on_c, 9, 42, 0
1, 229215, Note_on_c, 9, 44, 68
1, 229439, Note_on_c, 9, 44, 0
1, 229455, Note_on_c, 9, 42, 65
1, 229455, Note_on_c, 9, 36, 109
1, 229679, Note_on_c, 9, 42, 0
1, 229679, Note_on_c, 9, 36, 0
1, 229695, Note_on_c, 9, 44, 69
1, 229919, Note_on_c, 9, 44, 0
1, 229935, Note_on_c, 9, 40, 100
1, 229935, Note_on_c, 9, 42, 65
1, 230159, Note_on_c, 9, 40, 0
1, 230159, Note_on_c, 9, 42, 0
1, 230175, Note_on_c, 9, 44, 66
1, 230399, Note_on_c, 9, 44, 0
1, 230415, Note_on_c, 9, 42, 65
1, 230415, Note_on_c, 9, 36, 109
1, 230639, Note_on_c, 9, 42, 0
1, 230639, Note_on_c, 9, 36, 0
1, 230655, Note_on_c, 9, 44, 68
1, 230879, Note_on_c, 9, 44, 0
1, 230895, Note_on_c, 9, 40, 98
1, 230895, Note_on_c, 9, 42, 65
1, 231119, Note_on_c, 9, 40, 0
1, 231119, Note_on_c, 9, 42, 0
1, 231150, Note_on_c, 9, 44, 67
1, 231239, Note_on_c, 9, 44, 0
1, 231390, Note_on_c, 9, 42, 65
1, 231390, Note_on_c, 9, 36, 103
1, 231479, Note_on_c, 9, 36, 0
1, 231630, Note_on_c, 9, 44, 68
1, 231719, Note_on_c, 9, 44, 0
1, 231839, Note_on_c, 9, 42, 0
1, 231870, Note_on_c, 9, 40, 98
1, 231870, Note_on_c, 9, 42, 64
1, 232095, Note_on_c, 9, 44, 66
1, 232319, Note_on_c, 9, 40, 0
1, 232319, Note_on_c, 9, 42, 0
1, 232319, Note_on_c, 9, 44, 0
1, 232335, Note_on_c, 9, 42, 64
1, 232335, Note_on_c, 9, 36, 100
1, 232559, Note_on_c, 9, 42, 0
1, 232559, Note_on_c, 9, 36, 0
1, 232575, Note_on_c, 9, 44, 69
1, 232799, Note_on_c, 9, 44, 0
1, 232815, Note_on_c, 9, 40, 100
1, 232815, Note_on_c, 9, 42, 64
1, 233039, Note_on_c, 9, 40, 0
1, 233039, Note_on_c, 9, 42, 0
1, 233055, Note_on_c, 9, 44, 70
1, 233279, Note_on_c, 9, 44, 0
1, 233295, Note_on_c, 9, 42, 67
1, 233310, Note_on_c, 9, 36, 105
1, 233399, Note_on_c, 9, 36, 0
1, 233519, Note_on_c, 9, 42, 0
1, 233550, Note_on_c, 9, 44, 68
1, 233639, Note_on_c, 9, 44, 0
1, 233790, Note_on_c, 9, 40, 98
1, 233790, Note_on_c, 9, 42, 65
1, 234015, Note_on_c, 9, 44, 67
1, 234239, Note_on_c, 9, 40, 0
1, 234239, Note_on_c, 9, 42, 0
1, 234239, Note_on_c, 9, 44, 0
1, 234255, Note_on_c, 9, 42, 64
1, 234255, Note_on_c, 9, 36, 109
1, 234479, Note_on_c, 9, 42, 0
1, 234479, Note_on_c, 9, 36, 0
1, 234495, Note_on_c, 9, 44, 69
1, 234719, Note_on_c, 9, 44, 0
1, 234735, Note_on_c, 9, 40, 92
1, 234749, Note_on_c, 9, 40, 0
1, 234750, Note_on_c, 9, 42, 68
1, 234975, Note_on_c, 9, 44, 66
1, 235199, Note_on_c, 9, 42, 0
1, 235199, Note_on_c, 9, 44, 0
1, 235215, Note_on_c, 9, 42, 64
1, 235215, Note_on_c, 9, 36, 100
1, 235439, Note_on_c, 9, 42, 0
1, 235439, Note_on_c, 9, 36, 0
1, 235470, Note_on_c, 9, 44, 72
1, 235559, Note_on_c, 9, 44, 0
1, 235710, Note_on_c, 9, 40, 106
1, 235710, Note_on_c, 9, 42, 65
1, 235799, Note_on_c, 9, 40, 0
1, 235799, Note_on_c, 9, 42, 0
1, 235950, Note_on_c, 9, 46, 69
1, 236039, Note_on_c, 9, 46, 0
1, 236190, Note_on_c, 9, 51, 84
1, 236190, Note_on_c, 9, 36, 98
1, 236639, Note_on_c, 9, 51, 0
1, 236639, Note_on_c, 9, 36, 0
1, 236880, Note_on_c, 9, 59, 65
1, 237119, Note_on_c, 9, 59, 0
1, 237120, End_track
0, 0, End_of_file
