0, 0, Header, 1, 1, 480
1, 0, Start_track
1, 0, Time_signature, 4, 2, 24, 8
1, 0, Key_signature, 0, "major"
1, 0, Tempo, 472441
1, 0, Control_c, 9, 121, 0
1, 0, Program_c, 9, 0
1, 0, Control_c, 9, 7, 90
1, 0, Control_c, 9, 10, 64
1, 0, Control_c, 9, 91, 0
1, 0, Control_c, 9, 93, 0
1, 0, MIDI_port, 0
1, 0, Note_on_c, 9, 36, 83
1, 479, Note_on_c, 9, 36, 0
1, 480, Note_on_c, 9, 36, 83
1, 959, Note_on_c, 9, 36, 0
1, 960, Note_on_c, 9, 36, 83
1, 1439, Note_on_c, 9, 36, 0
1, 1440, Note_on_c, 9, 36, 83
1, 1919, Note_on_c, 9, 36, 0
1, 1920, Note_on_c, 9, 36, 83
1, 2399, Note_on_c, 9, 36, 0
1, 2400, Note_on_c, 9, 36, 83
1, 2879, Note_on_c, 9, 36, 0
1, 2880, Note_on_c, 9, 36, 83
1, 3359, Note_on_c, 9, 36, 0
1, 3360, Note_on_c, 9, 36, 83
1, 3839, Note_on_c, 9, 36, 0
1, 3840, Note_on_c, 9, 36, 83
1, 4319, Note_on_c, 9, 36, 0
1, 4320, Note_on_c, 9, 36, 83
1, 4799, Note_on_c, 9, 36, 0
1, 4800, Note_on_c, 9, 36, 83
1, 5279, Note_on_c, 9, 36, 0
1, 5280, Note_on_c, 9, 36, 83
1, 5759, Note_on_c, 9, 36, 0
1, 5760, Note_on_c, 9, 36, 83
1, 6239, Note_on_c, 9, 36, 0
1, 6240, Note_on_c, 9, 36, 83
1, 6719, Note_on_c, 9, 36, 0
1, 6720, Note_on_c, 9, 36, 83
1, 7199, Note_on_c, 9, 36, 0
1, 7200, Note_on_c, 9, 36, 83
1, 7679, Note_on_c, 9, 36, 0
1, 7680, Note_on_c, 9, 36, 83
1, 8159, Note_on_c, 9, 36, 0
1, 8160, Note_on_c, 9, 36, 83
1, 8639, Note_on_c, 9, 36, 0
1, 8640, Note_on_c, 9, 36, 83
1, 9119, Note_on_c, 9, 36, 0
1, 9120, Note_on_c, 9, 36, 83
1, 9599, Note_on_c, 9, 36, 0
1, 9600, Note_on_c, 9, 36, 83
1, 10079, Note_on_c, 9, 36, 0
1, 10080, Note_on_c, 9, 36, 83
1, 10559, Note_on_c, 9, 36, 0
1, 10560, Note_on_c, 9, 36, 83
1, 11039, Note_on_c, 9, 36, 0
1, 11040, Note_on_c, 9, 36, 83
1, 11519, Note_on_c, 9, 36, 0
1, 11520, Note_on_c, 9, 36, 83
1, 11999, Note_on_c, 9, 36, 0
1, 12000, Note_on_c, 9, 36, 83
1, 12479, Note_on_c, 9, 36, 0
1, 12480, Note_on_c, 9, 36, 83
1, 12959, Note_on_c, 9, 36, 0
1, 12960, Note_on_c, 9, 36, 83
1, 13439, Note_on_c, 9, 36, 0
1, 13440, Note_on_c, 9, 36, 83
1, 13919, Note_on_c, 9, 36, 0
1, 13920, Note_on_c, 9, 36, 83
1, 14399, Note_on_c, 9, 36, 0
1, 14400, Note_on_c, 9, 36, 83
1, 14879, Note_on_c, 9, 36, 0
1, 14880, Note_on_c, 9, 36, 83
1, 15359, Note_on_c, 9, 36, 0
1, 15360, Note_on_c, 9, 36, 83
1, 15839, Note_on_c, 9, 36, 0
1, 15840, Note_on_c, 9, 36, 83
1, 16319, Note_on_c, 9, 36, 0
1, 16320, Note_on_c, 9, 36, 83
1, 16799, Note_on_c, 9, 36, 0
1, 16800, Note_on_c, 9, 36, 83
1, 17279, Note_on_c, 9, 36, 0
1, 17280, Note_on_c, 9, 36, 83
1, 17759, Note_on_c, 9, 36, 0
1, 17760, Note_on_c, 9, 36, 83
1, 18239, Note_on_c, 9, 36, 0
1, 18240, Note_on_c, 9, 36, 83
1, 18719, Note_on_c, 9, 36, 0
1, 18720, Note_on_c, 9, 36, 83
1, 19199, Note_on_c, 9, 36, 0
1, 19200, Note_on_c, 9, 36, 83
1, 19679, Note_on_c, 9, 36, 0
1, 19680, Note_on_c, 9, 36, 83
1, 20159, Note_on_c, 9, 36, 0
1, 20160, Note_on_c, 9, 36, 83
1, 20639, Note_on_c, 9, 36, 0
1, 20640, Note_on_c, 9, 36, 83
1, 21119, Note_on_c, 9, 36, 0
1, 21120, Note_on_c, 9, 36, 83
1, 21599, Note_on_c, 9, 36, 0
1, 21600, Note_on_c, 9, 36, 83
1, 22079, Note_on_c, 9, 36, 0
1, 22080, Note_on_c, 9, 36, 83
1, 22559, Note_on_c, 9, 36, 0
1, 22560, Note_on_c, 9, 36, 83
1, 22800, Note_on_c, 9, 46, 83
1, 23039, Note_on_c, 9, 36, 0
1, 23039, Note_on_c, 9, 46, 0
1, 23040, Note_on_c, 9, 42, 83
1, 23040, Note_on_c, 9, 36, 83
1, 23279, Note_on_c, 9, 42, 0
1, 23280, Note_on_c, 9, 42, 83
1, 23519, Note_on_c, 9, 36, 0
1, 23519, Note_on_c, 9, 42, 0
1, 23520, Note_on_c, 9, 42, 83
1, 23520, Note_on_c, 9, 36, 83
1, 23759, Note_on_c, 9, 42, 0
1, 23760, Note_on_c, 9, 42, 83
1, 23999, Note_on_c, 9, 36, 0
1, 23999, Note_on_c, 9, 42, 0
1, 24000, Note_on_c, 9, 42, 83
1, 24000, Note_on_c, 9, 36, 83
1, 24239, Note_on_c, 9, 42, 0
1, 24240, Note_on_c, 9, 42, 83
1, 24479, Note_on_c, 9, 36, 0
1, 24479, Note_on_c, 9, 42, 0
1, 24480, Note_on_c, 9, 42, 83
1, 24480, Note_on_c, 9, 36, 83
1, 24719, Note_on_c, 9, 42, 0
1, 24720, Note_on_c, 9, 42, 83
1, 24959, Note_on_c, 9, 36, 0
1, 24959, Note_on_c, 9, 42, 0
1, 24960, Note_on_c, 9, 42, 83
1, 24960, Note_on_c, 9, 36, 83
1, 25199, Note_on_c, 9, 42, 0
1, 25200, Note_on_c, 9, 42, 83
1, 25439, Note_on_c, 9, 36, 0
1, 25439, Note_on_c, 9, 42, 0
1, 25440, Note_on_c, 9, 42, 83
1, 25440, Note_on_c, 9, 36, 83
1, 25679, Note_on_c, 9, 42, 0
1, 25680, Note_on_c, 9, 42, 83
1, 25919, Note_on_c, 9, 36, 0
1, 25919, Note_on_c, 9, 42, 0
1, 25920, Note_on_c, 9, 42, 83
1, 25920, Note_on_c, 9, 36, 83
1, 26159, Note_on_c, 9, 42, 0
1, 26160, Note_on_c, 9, 42, 83
1, 26399, Note_on_c, 9, 36, 0
1, 26399, Note_on_c, 9, 42, 0
1, 26400, Note_on_c, 9, 42, 83
1, 26400, Note_on_c, 9, 36, 83
1, 26639, Note_on_c, 9, 42, 0
1, 26640, Note_on_c, 9, 42, 83
1, 26879, Note_on_c, 9, 36, 0
1, 26879, Note_on_c, 9, 42, 0
1, 26880, Note_on_c, 9, 42, 83
1, 26880, Note_on_c, 9, 36, 83
1, 27119, Note_on_c, 9, 42, 0
1, 27120, Note_on_c, 9, 42, 83
1, 27359, Note_on_c, 9, 36, 0
1, 27359, Note_on_c, 9, 42, 0
1, 27360, Note_on_c, 9, 42, 83
1, 27360, Note_on_c, 9, 36, 83
1, 27599, Note_on_c, 9, 42, 0
1, 27600, Note_on_c, 9, 42, 83
1, 27839, Note_on_c, 9, 36, 0
1, 27839, Note_on_c, 9, 42, 0
1, 27840, Note_on_c, 9, 42, 83
1, 27840, Note_on_c, 9, 36, 83
1, 28079, Note_on_c, 9, 42, 0
1, 28080, Note_on_c, 9, 42, 83
1, 28319, Note_on_c, 9, 36, 0
1, 28319, Note_on_c, 9, 42, 0
1, 28320, Note_on_c, 9, 42, 83
1, 28320, Note_on_c, 9, 36, 83
1, 28559, Note_on_c, 9, 42, 0
1, 28560, Note_on_c, 9, 42, 83
1, 28799, Note_on_c, 9, 36, 0
1, 28799, Note_on_c, 9, 42, 0
1, 28800, Note_on_c, 9, 42, 83
1, 28800, Note_on_c, 9, 36, 83
1, 29039, Note_on_c, 9, 42, 0
1, 29040, Note_on_c, 9, 42, 83
1, 29279, Note_on_c, 9, 36, 0
1, 29279, Note_on_c, 9, 42, 0
1, 29280, Note_on_c, 9, 42, 83
1, 29280, Note_on_c, 9, 36, 83
1, 29519, Note_on_c, 9, 42, 0
1, 29520, Note_on_c, 9, 42, 83
1, 29759, Note_on_c, 9, 36, 0
1, 29759, Note_on_c, 9, 42, 0
1, 29760, Note_on_c, 9, 42, 83
1, 29760, Note_on_c, 9, 36, 83
1, 29999, Note_on_c, 9, 42, 0
1, 30000, Note_on_c, 9, 42, 83
1, 30239, Note_on_c, 9, 36, 0
1, 30239, Note_on_c, 9, 42, 0
1, 30240, Note_on_c, 9, 42, 83
1, 30240, Note_on_c, 9, 36, 83
1, 30479, Note_on_c, 9, 42, 0
1, 30480, Note_on_c, 9, 42, 83
1, 30719, Note_on_c, 9, 36, 0
1, 30719, Note_on_c, 9, 42, 0
1, 30720, Note_on_c, 9, 42, 83
1, 30720, Note_on_c, 9, 36, 83
1, 30959, Note_on_c, 9, 42, 0
1, 30960, Note_on_c, 9, 42, 83
1, 31199, Note_on_c, 9, 36, 0
1, 31199, Note_on_c, 9, 42, 0
1, 31200, Note_on_c, 9, 42, 83
1, 31200, Note_on_c, 9, 36, 83
1, 31439, Note_on_c, 9, 42, 0
1, 31440, Note_on_c, 9, 42, 83
1, 31679, Note_on_c, 9, 36, 0
1, 31679, Note_on_c, 9, 42, 0
1, 31680, Note_on_c, 9, 42, 83
1, 31680, Note_on_c, 9, 36, 83
1, 31919, Note_on_c, 9, 42, 0
1, 31920, Note_on_c, 9, 42, 83
1, 32159, Note_on_c, 9, 36, 0
1, 32159, Note_on_c, 9, 42, 0
1, 32160, Note_on_c, 9, 42, 83
1, 32160, Note_on_c, 9, 36, 83
1, 32399, Note_on_c, 9, 42, 0
1, 32400, Note_on_c, 9, 42, 83
1, 32639, Note_on_c, 9, 36, 0
1, 32639, Note_on_c, 9, 42, 0
1, 32640, Note_on_c, 9, 42, 83
1, 32640, Note_on_c, 9, 36, 83
1, 32879, Note_on_c, 9, 42, 0
1, 32880, Note_on_c, 9, 42, 83
1, 33119, Note_on_c, 9, 36, 0
1, 33119, Note_on_c, 9, 42, 0
1, 33120, Note_on_c, 9, 42, 83
1, 33120, Note_on_c, 9, 36, 83
1, 33359, Note_on_c, 9, 42, 0
1, 33360, Note_on_c, 9, 42, 83
1, 33599, Note_on_c, 9, 36, 0
1, 33599, Note_on_c, 9, 42, 0
1, 33600, Note_on_c, 9, 42, 83
1, 33600, Note_on_c, 9, 36, 83
1, 33839, Note_on_c, 9, 42, 0
1, 33840, Note_on_c, 9, 42, 83
1, 34079, Note_on_c, 9, 36, 0
1, 34079, Note_on_c, 9, 42, 0
1, 34080, Note_on_c, 9, 42, 83
1, 34080, Note_on_c, 9, 36, 83
1, 34319, Note_on_c, 9, 42, 0
1, 34320, Note_on_c, 9, 42, 83
1, 34559, Note_on_c, 9, 36, 0
1, 34559, Note_on_c, 9, 42, 0
1, 34560, Note_on_c, 9, 42, 83
1, 34560, Note_on_c, 9, 36, 83
1, 34799, Note_on_c, 9, 42, 0
1, 34800, Note_on_c, 9, 42, 83
1, 35039, Note_on_c, 9, 36, 0
1, 35039, Note_on_c, 9, 42, 0
1, 35040, Note_on_c, 9, 42, 83
1, 35040, Note_on_c, 9, 36, 83
1, 35279, Note_on_c, 9, 42, 0
1, 35280, Note_on_c, 9, 42, 83
1, 35519, Note_on_c, 9, 36, 0
1, 35519, Note_on_c, 9, 42, 0
1, 35520, Note_on_c, 9, 42, 83
1, 35520, Note_on_c, 9, 36, 83
1, 35759, Note_on_c, 9, 42, 0
1, 35760, Note_on_c, 9, 42, 83
1, 35999, Note_on_c, 9, 36, 0
1, 35999, Note_on_c, 9, 42, 0
1, 36000, Note_on_c, 9, 42, 83
1, 36000, Note_on_c, 9, 36, 83
1, 36239, Note_on_c, 9, 42, 0
1, 36240, Note_on_c, 9, 42, 83
1, 36479, Note_on_c, 9, 36, 0
1, 36479, Note_on_c, 9, 42, 0
1, 36480, Note_on_c, 9, 42, 83
1, 36480, Note_on_c, 9, 36, 83
1, 36719, Note_on_c, 9, 42, 0
1, 36720, Note_on_c, 9, 42, 83
1, 36959, Note_on_c, 9, 36, 0
1, 36959, Note_on_c, 9, 42, 0
1, 36960, Note_on_c, 9, 42, 83
1, 36960, Note_on_c, 9, 36, 83
1, 37199, Note_on_c, 9, 42, 0
1, 37200, Note_on_c, 9, 42, 83
1, 37439, Note_on_c, 9, 36, 0
1, 37439, Note_on_c, 9, 42, 0
1, 37440, Note_on_c, 9, 42, 83
1, 37440, Note_on_c, 9, 36, 83
1, 37679, Note_on_c, 9, 42, 0
1, 37680, Note_on_c, 9, 42, 83
1, 37919, Note_on_c, 9, 36, 0
1, 37919, Note_on_c, 9, 42, 0
1, 37920, Note_on_c, 9, 42, 83
1, 37920, Note_on_c, 9, 36, 83
1, 38159, Note_on_c, 9, 42, 0
1, 38160, Note_on_c, 9, 38, 83
1, 38160, Note_on_c, 9, 46, 83
1, 38399, Note_on_c, 9, 36, 0
1, 38399, Note_on_c, 9, 38, 0
1, 38399, Note_on_c, 9, 46, 0
1, 38400, Note_on_c, 9, 42, 83
1, 38400, Note_on_c, 9, 49, 83
1, 38400, Note_on_c, 9, 36, 83
1, 38639, Note_on_c, 9, 42, 0
1, 38639, Note_on_c, 9, 49, 0
1, 38640, Note_on_c, 9, 42, 83
1, 38879, Note_on_c, 9, 36, 0
1, 38879, Note_on_c, 9, 42, 0
1, 38880, Note_on_c, 9, 38, 83
1, 38880, Note_on_c, 9, 42, 83
1, 38880, Note_on_c, 9, 36, 83
1, 39119, Note_on_c, 9, 38, 0
1, 39119, Note_on_c, 9, 42, 0
1, 39120, Note_on_c, 9, 42, 83
1, 39359, Note_on_c, 9, 36, 0
1, 39359, Note_on_c, 9, 42, 0
1, 39360, Note_on_c, 9, 42, 83
1, 39360, Note_on_c, 9, 36, 83
1, 39599, Note_on_c, 9, 42, 0
1, 39600, Note_on_c, 9, 42, 83
1, 39839, Note_on_c, 9, 36, 0
1, 39839, Note_on_c, 9, 42, 0
1, 39840, Note_on_c, 9, 38, 83
1, 39840, Note_on_c, 9, 42, 83
1, 39840, Note_on_c, 9, 36, 83
1, 40079, Note_on_c, 9, 38, 0
1, 40079, Note_on_c, 9, 42, 0
1, 40080, Note_on_c, 9, 42, 83
1, 40319, Note_on_c, 9, 36, 0
1, 40319, Note_on_c, 9, 42, 0
1, 40320, Note_on_c, 9, 42, 83
1, 40320, Note_on_c, 9, 36, 83
1, 40559, Note_on_c, 9, 42, 0
1, 40560, Note_on_c, 9, 42, 83
1, 40799, Note_on_c, 9, 36, 0
1, 40799, Note_on_c, 9, 42, 0
1, 40800, Note_on_c, 9, 38, 83
1, 40800, Note_on_c, 9, 42, 83
1, 40800, Note_on_c, 9, 36, 83
1, 41039, Note_on_c, 9, 38, 0
1, 41039, Note_on_c, 9, 42, 0
1, 41040, Note_on_c, 9, 42, 83
1, 41279, Note_on_c, 9, 36, 0
1, 41279, Note_on_c, 9, 42, 0
1, 41280, Note_on_c, 9, 42, 83
1, 41280, Note_on_c, 9, 36, 83
1, 41519, Note_on_c, 9, 42, 0
1, 41520, Note_on_c, 9, 42, 83
1, 41759, Note_on_c, 9, 36, 0
1, 41759, Note_on_c, 9, 42, 0
1, 41760, Note_on_c, 9, 38, 83
1, 41760, Note_on_c, 9, 42, 83
1, 41760, Note_on_c, 9, 36, 83
1, 41999, Note_on_c, 9, 38, 0
1, 41999, Note_on_c, 9, 42, 0
1, 42000, Note_on_c, 9, 42, 83
1, 42239, Note_on_c, 9, 36, 0
1, 42239, Note_on_c, 9, 42, 0
1, 42240, Note_on_c, 9, 42, 83
1, 42240, Note_on_c, 9, 49, 83
1, 42240, Note_on_c, 9, 36, 83
1, 42479, Note_on_c, 9, 42, 0
1, 42479, Note_on_c, 9, 49, 0
1, 42480, Note_on_c, 9, 42, 83
1, 42719, Note_on_c, 9, 36, 0
1, 42719, Note_on_c, 9, 42, 0
1, 42720, Note_on_c, 9, 38, 83
1, 42720, Note_on_c, 9, 42, 83
1, 42720, Note_on_c, 9, 36, 83
1, 42959, Note_on_c, 9, 38, 0
1, 42959, Note_on_c, 9, 42, 0
1, 42960, Note_on_c, 9, 42, 83
1, 43199, Note_on_c, 9, 36, 0
1, 43199, Note_on_c, 9, 42, 0
1, 43200, Note_on_c, 9, 42, 83
1, 43200, Note_on_c, 9, 36, 83
1, 43439, Note_on_c, 9, 42, 0
1, 43440, Note_on_c, 9, 42, 83
1, 43679, Note_on_c, 9, 36, 0
1, 43679, Note_on_c, 9, 42, 0
1, 43680, Note_on_c, 9, 38, 83
1, 43680, Note_on_c, 9, 42, 83
1, 43680, Note_on_c, 9, 36, 83
1, 43919, Note_on_c, 9, 38, 0
1, 43919, Note_on_c, 9, 42, 0
1, 43920, Note_on_c, 9, 42, 83
1, 44159, Note_on_c, 9, 36, 0
1, 44159, Note_on_c, 9, 42, 0
1, 44160, Note_on_c, 9, 42, 83
1, 44160, Note_on_c, 9, 36, 83
1, 44399, Note_on_c, 9, 42, 0
1, 44400, Note_on_c, 9, 42, 83
1, 44639, Note_on_c, 9, 36, 0
1, 44639, Note_on_c, 9, 42, 0
1, 44640, Note_on_c, 9, 38, 83
1, 44640, Note_on_c, 9, 42, 83
1, 44640, Note_on_c, 9, 36, 83
1, 44879, Note_on_c, 9, 38, 0
1, 44879, Note_on_c, 9, 42, 0
1, 44880, Note_on_c, 9, 42, 83
1, 45119, Note_on_c, 9, 36, 0
1, 45119, Note_on_c, 9, 42, 0
1, 45120, Note_on_c, 9, 42, 83
1, 45120, Note_on_c, 9, 36, 83
1, 45359, Note_on_c, 9, 42, 0
1, 45360, Note_on_c, 9, 42, 83
1, 45599, Note_on_c, 9, 36, 0
1, 45599, Note_on_c, 9, 42, 0
1, 45600, Note_on_c, 9, 38, 83
1, 45600, Note_on_c, 9, 42, 83
1, 45600, Note_on_c, 9, 36, 83
1, 45839, Note_on_c, 9, 38, 0
1, 45839, Note_on_c, 9, 42, 0
1, 45840, Note_on_c, 9, 42, 83
1, 46079, Note_on_c, 9, 36, 0
1, 46079, Note_on_c, 9, 42, 0
1, 46080, Note_on_c, 9, 42, 83
1, 46080, Note_on_c, 9, 49, 83
1, 46080, Note_on_c, 9, 36, 83
1, 46319, Note_on_c, 9, 42, 0
1, 46319, Note_on_c, 9, 49, 0
1, 46320, Note_on_c, 9, 42, 83
1, 46559, Note_on_c, 9, 36, 0
1, 46559, Note_on_c, 9, 42, 0
1, 46560, Note_on_c, 9, 38, 83
1, 46560, Note_on_c, 9, 42, 83
1, 46560, Note_on_c, 9, 36, 83
1, 46799, Note_on_c, 9, 38, 0
1, 46799, Note_on_c, 9, 42, 0
1, 46800, Note_on_c, 9, 42, 83
1, 47039, Note_on_c, 9, 36, 0
1, 47039, Note_on_c, 9, 42, 0
1, 47040, Note_on_c, 9, 42, 83
1, 47040, Note_on_c, 9, 36, 83
1, 47279, Note_on_c, 9, 42, 0
1, 47280, Note_on_c, 9, 42, 83
1, 47519, Note_on_c, 9, 36, 0
1, 47519, Note_on_c, 9, 42, 0
1, 47520, Note_on_c, 9, 38, 83
1, 47520, Note_on_c, 9, 42, 83
1, 47520, Note_on_c, 9, 36, 83
1, 47759, Note_on_c, 9, 38, 0
1, 47759, Note_on_c, 9, 42, 0
1, 47760, Note_on_c, 9, 42, 83
1, 47999, Note_on_c, 9, 36, 0
1, 47999, Note_on_c, 9, 42, 0
1, 48000, Note_on_c, 9, 42, 83
1, 48000, Note_on_c, 9, 49, 83
1, 48000, Note_on_c, 9, 36, 83
1, 48239, Note_on_c, 9, 42, 0
1, 48239, Note_on_c, 9, 49, 0
1, 48240, Note_on_c, 9, 42, 83
1, 48479, Note_on_c, 9, 36, 0
1, 48479, Note_on_c, 9, 42, 0
1, 48480, Note_on_c, 9, 38, 83
1, 48480, Note_on_c, 9, 42, 83
1, 48480, Note_on_c, 9, 36, 83
1, 48719, Note_on_c, 9, 38, 0
1, 48719, Note_on_c, 9, 42, 0
1, 48720, Note_on_c, 9, 42, 83
1, 48959, Note_on_c, 9, 36, 0
1, 48959, Note_on_c, 9, 42, 0
1, 48960, Note_on_c, 9, 42, 83
1, 48960, Note_on_c, 9, 36, 83
1, 49199, Note_on_c, 9, 42, 0
1, 49200, Note_on_c, 9, 42, 83
1, 49439, Note_on_c, 9, 36, 0
1, 49439, Note_on_c, 9, 42, 0
1, 49440, Note_on_c, 9, 38, 83
1, 49440, Note_on_c, 9, 42, 83
1, 49440, Note_on_c, 9, 36, 83
1, 49679, Note_on_c, 9, 38, 0
1, 49679, Note_on_c, 9, 42, 0
1, 49680, Note_on_c, 9, 42, 83
1, 49919, Note_on_c, 9, 36, 0
1, 49919, Note_on_c, 9, 42, 0
1, 49920, Note_on_c, 9, 42, 83
1, 49920, Note_on_c, 9, 49, 83
1, 49920, Note_on_c, 9, 36, 83
1, 50159, Note_on_c, 9, 42, 0
1, 50159, Note_on_c, 9, 49, 0
1, 50160, Note_on_c, 9, 42, 83
1, 50399, Note_on_c, 9, 36, 0
1, 50399, Note_on_c, 9, 42, 0
1, 50400, Note_on_c, 9, 38, 83
1, 50400, Note_on_c, 9, 42, 83
1, 50400, Note_on_c, 9, 36, 83
1, 50639, Note_on_c, 9, 38, 0
1, 50639, Note_on_c, 9, 42, 0
1, 50640, Note_on_c, 9, 42, 83
1, 50879, Note_on_c, 9, 36, 0
1, 50879, Note_on_c, 9, 42, 0
1, 50880, Note_on_c, 9, 42, 83
1, 50880, Note_on_c, 9, 36, 83
1, 51119, Note_on_c, 9, 42, 0
1, 51120, Note_on_c, 9, 42, 83
1, 51359, Note_on_c, 9, 36, 0
1, 51359, Note_on_c, 9, 42, 0
1, 51360, Note_on_c, 9, 38, 83
1, 51360, Note_on_c, 9, 42, 83
1, 51360, Note_on_c, 9, 36, 83
1, 51599, Note_on_c, 9, 38, 0
1, 51599, Note_on_c, 9, 42, 0
1, 51600, Note_on_c, 9, 42, 83
1, 51839, Note_on_c, 9, 36, 0
1, 51839, Note_on_c, 9, 42, 0
1, 51840, Note_on_c, 9, 42, 83
1, 51840, Note_on_c, 9, 36, 83
1, 52079, Note_on_c, 9, 42, 0
1, 52080, Note_on_c, 9, 42, 83
1, 52319, Note_on_c, 9, 36, 0
1, 52319, Note_on_c, 9, 42, 0
1, 52320, Note_on_c, 9, 38, 83
1, 52320, Note_on_c, 9, 42, 83
1, 52320, Note_on_c, 9, 36, 83
1, 52559, Note_on_c, 9, 38, 0
1, 52559, Note_on_c, 9, 42, 0
1, 52560, Note_on_c, 9, 42, 83
1, 52799, Note_on_c, 9, 36, 0
1, 52799, Note_on_c, 9, 42, 0
1, 52800, Note_on_c, 9, 38, 83
1, 52800, Note_on_c, 9, 42, 83
1, 52800, Note_on_c, 9, 36, 83
1, 53039, Note_on_c, 9, 38, 0
1, 53039, Note_on_c, 9, 42, 0
1, 53040, Note_on_c, 9, 42, 83
1, 53279, Note_on_c, 9, 36, 0
1, 53279, Note_on_c, 9, 42, 0
1, 53280, Note_on_c, 9, 38, 83
1, 53280, Note_on_c, 9, 42, 83
1, 53280, Note_on_c, 9, 36, 83
1, 53519, Note_on_c, 9, 38, 0
1, 53519, Note_on_c, 9, 42, 0
1, 53520, Note_on_c, 9, 38, 83
1, 53520, Note_on_c, 9, 46, 83
1, 53639, Note_on_c, 9, 38, 0
1, 53639, Note_on_c, 9, 46, 0
1, 53640, Note_on_c, 9, 38, 83
1, 53759, Note_on_c, 9, 36, 0
1, 53759, Note_on_c, 9, 38, 0
1, 53760, Note_on_c, 9, 42, 83
1, 53760, Note_on_c, 9, 49, 83
1, 53760, Note_on_c, 9, 36, 83
1, 53999, Note_on_c, 9, 42, 0
1, 53999, Note_on_c, 9, 49, 0
1, 54000, Note_on_c, 9, 42, 83
1, 54239, Note_on_c, 9, 36, 0
1, 54239, Note_on_c, 9, 42, 0
1, 54240, Note_on_c, 9, 38, 83
1, 54240, Note_on_c, 9, 42, 83
1, 54240, Note_on_c, 9, 36, 83
1, 54479, Note_on_c, 9, 38, 0
1, 54479, Note_on_c, 9, 42, 0
1, 54480, Note_on_c, 9, 42, 83
1, 54719, Note_on_c, 9, 36, 0
1, 54719, Note_on_c, 9, 42, 0
1, 54720, Note_on_c, 9, 42, 83
1, 54720, Note_on_c, 9, 36, 83
1, 54959, Note_on_c, 9, 42, 0
1, 54960, Note_on_c, 9, 42, 83
1, 55199, Note_on_c, 9, 36, 0
1, 55199, Note_on_c, 9, 42, 0
1, 55200, Note_on_c, 9, 38, 83
1, 55200, Note_on_c, 9, 42, 83
1, 55200, Note_on_c, 9, 36, 83
1, 55439, Note_on_c, 9, 38, 0
1, 55439, Note_on_c, 9, 42, 0
1, 55440, Note_on_c, 9, 42, 83
1, 55679, Note_on_c, 9, 36, 0
1, 55679, Note_on_c, 9, 42, 0
1, 55680, Note_on_c, 9, 42, 83
1, 55680, Note_on_c, 9, 36, 83
1, 55919, Note_on_c, 9, 42, 0
1, 55920, Note_on_c, 9, 42, 83
1, 56159, Note_on_c, 9, 36, 0
1, 56159, Note_on_c, 9, 42, 0
1, 56160, Note_on_c, 9, 38, 83
1, 56160, Note_on_c, 9, 42, 83
1, 56160, Note_on_c, 9, 36, 83
1, 56399, Note_on_c, 9, 38, 0
1, 56399, Note_on_c, 9, 42, 0
1, 56400, Note_on_c, 9, 42, 83
1, 56639, Note_on_c, 9, 36, 0
1, 56639, Note_on_c, 9, 42, 0
1, 56640, Note_on_c, 9, 42, 83
1, 56640, Note_on_c, 9, 36, 83
1, 56879, Note_on_c, 9, 42, 0
1, 56880, Note_on_c, 9, 42, 83
1, 57119, Note_on_c, 9, 36, 0
1, 57119, Note_on_c, 9, 42, 0
1, 57120, Note_on_c, 9, 38, 83
1, 57120, Note_on_c, 9, 42, 83
1, 57120, Note_on_c, 9, 36, 83
1, 57359, Note_on_c, 9, 38, 0
1, 57359, Note_on_c, 9, 42, 0
1, 57360, Note_on_c, 9, 42, 83
1, 57599, Note_on_c, 9, 36, 0
1, 57599, Note_on_c, 9, 42, 0
1, 57600, Note_on_c, 9, 42, 83
1, 57600, Note_on_c, 9, 49, 83
1, 57600, Note_on_c, 9, 36, 83
1, 57839, Note_on_c, 9, 42, 0
1, 57839, Note_on_c, 9, 49, 0
1, 57840, Note_on_c, 9, 42, 83
1, 58079, Note_on_c, 9, 36, 0
1, 58079, Note_on_c, 9, 42, 0
1, 58080, Note_on_c, 9, 38, 83
1, 58080, Note_on_c, 9, 42, 83
1, 58080, Note_on_c, 9, 36, 83
1, 58319, Note_on_c, 9, 38, 0
1, 58319, Note_on_c, 9, 42, 0
1, 58320, Note_on_c, 9, 42, 83
1, 58559, Note_on_c, 9, 36, 0
1, 58559, Note_on_c, 9, 42, 0
1, 58560, Note_on_c, 9, 42, 83
1, 58560, Note_on_c, 9, 36, 83
1, 58799, Note_on_c, 9, 42, 0
1, 58800, Note_on_c, 9, 42, 83
1, 59039, Note_on_c, 9, 36, 0
1, 59039, Note_on_c, 9, 42, 0
1, 59040, Note_on_c, 9, 38, 83
1, 59040, Note_on_c, 9, 42, 83
1, 59040, Note_on_c, 9, 36, 83
1, 59279, Note_on_c, 9, 38, 0
1, 59279, Note_on_c, 9, 42, 0
1, 59280, Note_on_c, 9, 42, 83
1, 59519, Note_on_c, 9, 36, 0
1, 59519, Note_on_c, 9, 42, 0
1, 59520, Note_on_c, 9, 42, 83
1, 59520, Note_on_c, 9, 36, 83
1, 59759, Note_on_c, 9, 42, 0
1, 59760, Note_on_c, 9, 42, 83
1, 59999, Note_on_c, 9, 36, 0
1, 59999, Note_on_c, 9, 42, 0
1, 60000, Note_on_c, 9, 38, 83
1, 60000, Note_on_c, 9, 42, 83
1, 60000, Note_on_c, 9, 36, 83
1, 60239, Note_on_c, 9, 38, 0
1, 60239, Note_on_c, 9, 42, 0
1, 60240, Note_on_c, 9, 42, 83
1, 60479, Note_on_c, 9, 36, 0
1, 60479, Note_on_c, 9, 42, 0
1, 60480, Note_on_c, 9, 42, 83
1, 60480, Note_on_c, 9, 36, 83
1, 60719, Note_on_c, 9, 42, 0
1, 60720, Note_on_c, 9, 42, 83
1, 60959, Note_on_c, 9, 36, 0
1, 60959, Note_on_c, 9, 42, 0
1, 60960, Note_on_c, 9, 38, 83
1, 60960, Note_on_c, 9, 42, 83
1, 60960, Note_on_c, 9, 36, 83
1, 61199, Note_on_c, 9, 38, 0
1, 61199, Note_on_c, 9, 42, 0
1, 61200, Note_on_c, 9, 42, 83
1, 61439, Note_on_c, 9, 36, 0
1, 61439, Note_on_c, 9, 42, 0
1, 61440, Note_on_c, 9, 42, 83
1, 61440, Note_on_c, 9, 49, 83
1, 61440, Note_on_c, 9, 36, 83
1, 61679, Note_on_c, 9, 42, 0
1, 61679, Note_on_c, 9, 49, 0
1, 61680, Note_on_c, 9, 42, 83
1, 61919, Note_on_c, 9, 36, 0
1, 61919, Note_on_c, 9, 42, 0
1, 61920, Note_on_c, 9, 38, 83
1, 61920, Note_on_c, 9, 42, 83
1, 61920, Note_on_c, 9, 36, 83
1, 62159, Note_on_c, 9, 38, 0
1, 62159, Note_on_c, 9, 42, 0
1, 62160, Note_on_c, 9, 42, 83
1, 62399, Note_on_c, 9, 36, 0
1, 62399, Note_on_c, 9, 42, 0
1, 62400, Note_on_c, 9, 42, 83
1, 62400, Note_on_c, 9, 36, 83
1, 62639, Note_on_c, 9, 42, 0
1, 62640, Note_on_c, 9, 42, 83
1, 62879, Note_on_c, 9, 36, 0
1, 62879, Note_on_c, 9, 42, 0
1, 62880, Note_on_c, 9, 38, 83
1, 62880, Note_on_c, 9, 42, 83
1, 62880, Note_on_c, 9, 36, 83
1, 63119, Note_on_c, 9, 38, 0
1, 63119, Note_on_c, 9, 42, 0
1, 63120, Note_on_c, 9, 42, 83
1, 63359, Note_on_c, 9, 36, 0
1, 63359, Note_on_c, 9, 42, 0
1, 63360, Note_on_c, 9, 42, 83
1, 63360, Note_on_c, 9, 49, 83
1, 63360, Note_on_c, 9, 36, 83
1, 63599, Note_on_c, 9, 42, 0
1, 63599, Note_on_c, 9, 49, 0
1, 63600, Note_on_c, 9, 42, 83
1, 63839, Note_on_c, 9, 36, 0
1, 63839, Note_on_c, 9, 42, 0
1, 63840, Note_on_c, 9, 38, 83
1, 63840, Note_on_c, 9, 42, 83
1, 63840, Note_on_c, 9, 36, 83
1, 64079, Note_on_c, 9, 38, 0
1, 64079, Note_on_c, 9, 42, 0
1, 64080, Note_on_c, 9, 42, 83
1, 64319, Note_on_c, 9, 36, 0
1, 64319, Note_on_c, 9, 42, 0
1, 64320, Note_on_c, 9, 42, 83
1, 64320, Note_on_c, 9, 36, 83
1, 64559, Note_on_c, 9, 42, 0
1, 64560, Note_on_c, 9, 42, 83
1, 64799, Note_on_c, 9, 36, 0
1, 64799, Note_on_c, 9, 42, 0
1, 64800, Note_on_c, 9, 38, 83
1, 64800, Note_on_c, 9, 42, 83
1, 64800, Note_on_c, 9, 36, 83
1, 65039, Note_on_c, 9, 38, 0
1, 65039, Note_on_c, 9, 42, 0
1, 65040, Note_on_c, 9, 42, 83
1, 65279, Note_on_c, 9, 36, 0
1, 65279, Note_on_c, 9, 42, 0
1, 65280, Note_on_c, 9, 42, 83
1, 65280, Note_on_c, 9, 49, 83
1, 65280, Note_on_c, 9, 36, 83
1, 65519, Note_on_c, 9, 42, 0
1, 65519, Note_on_c, 9, 49, 0
1, 65520, Note_on_c, 9, 42, 83
1, 65759, Note_on_c, 9, 36, 0
1, 65759, Note_on_c, 9, 42, 0
1, 65760, Note_on_c, 9, 38, 83
1, 65760, Note_on_c, 9, 42, 83
1, 65760, Note_on_c, 9, 36, 83
1, 65999, Note_on_c, 9, 38, 0
1, 65999, Note_on_c, 9, 42, 0
1, 66000, Note_on_c, 9, 42, 83
1, 66239, Note_on_c, 9, 36, 0
1, 66239, Note_on_c, 9, 42, 0
1, 66240, Note_on_c, 9, 42, 83
1, 66240, Note_on_c, 9, 36, 83
1, 66479, Note_on_c, 9, 42, 0
1, 66480, Note_on_c, 9, 42, 83
1, 66719, Note_on_c, 9, 36, 0
1, 66719, Note_on_c, 9, 42, 0
1, 66720, Note_on_c, 9, 38, 83
1, 66720, Note_on_c, 9, 42, 83
1, 66720, Note_on_c, 9, 36, 83
1, 66959, Note_on_c, 9, 38, 0
1, 66959, Note_on_c, 9, 42, 0
1, 66960, Note_on_c, 9, 42, 83
1, 67199, Note_on_c, 9, 36, 0
1, 67199, Note_on_c, 9, 42, 0
1, 67200, Note_on_c, 9, 42, 83
1, 67200, Note_on_c, 9, 36, 83
1, 67439, Note_on_c, 9, 42, 0
1, 67440, Note_on_c, 9, 42, 83
1, 67679, Note_on_c, 9, 36, 0
1, 67679, Note_on_c, 9, 42, 0
1, 67680, Note_on_c, 9, 38, 83
1, 67680, Note_on_c, 9, 42, 83
1, 67680, Note_on_c, 9, 36, 83
1, 67919, Note_on_c, 9, 38, 0
1, 67919, Note_on_c, 9, 42, 0
1, 67920, Note_on_c, 9, 42, 83
1, 68159, Note_on_c, 9, 36, 0
1, 68159, Note_on_c, 9, 42, 0
1, 68160, Note_on_c, 9, 38, 83
1, 68160, Note_on_c, 9, 42, 83
1, 68160, Note_on_c, 9, 36, 83
1, 68399, Note_on_c, 9, 38, 0
1, 68399, Note_on_c, 9, 42, 0
1, 68400, Note_on_c, 9, 42, 83
1, 68639, Note_on_c, 9, 36, 0
1, 68639, Note_on_c, 9, 42, 0
1, 68640, Note_on_c, 9, 38, 83
1, 68640, Note_on_c, 9, 42, 83
1, 68640, Note_on_c, 9, 36, 83
1, 68879, Note_on_c, 9, 38, 0
1, 68879, Note_on_c, 9, 42, 0
1, 68880, Note_on_c, 9, 38, 83
1, 68880, Note_on_c, 9, 46, 83
1, 68999, Note_on_c, 9, 38, 0
1, 68999, Note_on_c, 9, 46, 0
1, 69000, Note_on_c, 9, 38, 83
1, 69119, Note_on_c, 9, 36, 0
1, 69119, Note_on_c, 9, 38, 0
1, 69120, Note_on_c, 9, 42, 83
1, 69120, Note_on_c, 9, 49, 83
1, 69120, Note_on_c, 9, 36, 83
1, 69359, Note_on_c, 9, 42, 0
1, 69359, Note_on_c, 9, 49, 0
1, 69360, Note_on_c, 9, 42, 83
1, 69599, Note_on_c, 9, 36, 0
1, 69599, Note_on_c, 9, 42, 0
1, 69600, Note_on_c, 9, 38, 83
1, 69600, Note_on_c, 9, 42, 83
1, 69600, Note_on_c, 9, 36, 83
1, 69839, Note_on_c, 9, 38, 0
1, 69839, Note_on_c, 9, 42, 0
1, 69840, Note_on_c, 9, 42, 83
1, 70079, Note_on_c, 9, 36, 0
1, 70079, Note_on_c, 9, 42, 0
1, 70080, Note_on_c, 9, 42, 83
1, 70080, Note_on_c, 9, 36, 83
1, 70319, Note_on_c, 9, 42, 0
1, 70320, Note_on_c, 9, 42, 83
1, 70559, Note_on_c, 9, 36, 0
1, 70559, Note_on_c, 9, 42, 0
1, 70560, Note_on_c, 9, 38, 83
1, 70560, Note_on_c, 9, 42, 83
1, 70560, Note_on_c, 9, 36, 83
1, 70799, Note_on_c, 9, 38, 0
1, 70799, Note_on_c, 9, 42, 0
1, 70800, Note_on_c, 9, 42, 83
1, 71039, Note_on_c, 9, 36, 0
1, 71039, Note_on_c, 9, 42, 0
1, 71040, Note_on_c, 9, 42, 83
1, 71040, Note_on_c, 9, 36, 83
1, 71279, Note_on_c, 9, 42, 0
1, 71280, Note_on_c, 9, 42, 83
1, 71519, Note_on_c, 9, 36, 0
1, 71519, Note_on_c, 9, 42, 0
1, 71520, Note_on_c, 9, 38, 83
1, 71520, Note_on_c, 9, 42, 83
1, 71520, Note_on_c, 9, 36, 83
1, 71759, Note_on_c, 9, 38, 0
1, 71759, Note_on_c, 9, 42, 0
1, 71760, Note_on_c, 9, 42, 83
1, 71999, Note_on_c, 9, 36, 0
1, 71999, Note_on_c, 9, 42, 0
1, 72000, Note_on_c, 9, 42, 83
1, 72000, Note_on_c, 9, 36, 83
1, 72239, Note_on_c, 9, 42, 0
1, 72240, Note_on_c, 9, 42, 83
1, 72479, Note_on_c, 9, 36, 0
1, 72479, Note_on_c, 9, 42, 0
1, 72480, Note_on_c, 9, 38, 83
1, 72480, Note_on_c, 9, 42, 83
1, 72480, Note_on_c, 9, 36, 83
1, 72719, Note_on_c, 9, 38, 0
1, 72719, Note_on_c, 9, 42, 0
1, 72720, Note_on_c, 9, 42, 83
1, 72959, Note_on_c, 9, 36, 0
1, 72959, Note_on_c, 9, 42, 0
1, 72960, Note_on_c, 9, 42, 83
1, 72960, Note_on_c, 9, 49, 83
1, 72960, Note_on_c, 9, 36, 83
1, 73199, Note_on_c, 9, 42, 0
1, 73199, Note_on_c, 9, 49, 0
1, 73200, Note_on_c, 9, 42, 83
1, 73439, Note_on_c, 9, 36, 0
1, 73439, Note_on_c, 9, 42, 0
1, 73440, Note_on_c, 9, 38, 83
1, 73440, Note_on_c, 9, 42, 83
1, 73440, Note_on_c, 9, 36, 83
1, 73679, Note_on_c, 9, 38, 0
1, 73679, Note_on_c, 9, 42, 0
1, 73680, Note_on_c, 9, 42, 83
1, 73919, Note_on_c, 9, 36, 0
1, 73919, Note_on_c, 9, 42, 0
1, 73920, Note_on_c, 9, 42, 83
1, 73920, Note_on_c, 9, 36, 83
1, 74159, Note_on_c, 9, 42, 0
1, 74160, Note_on_c, 9, 42, 83
1, 74399, Note_on_c, 9, 36, 0
1, 74399, Note_on_c, 9, 42, 0
1, 74400, Note_on_c, 9, 38, 83
1, 74400, Note_on_c, 9, 42, 83
1, 74400, Note_on_c, 9, 36, 83
1, 74639, Note_on_c, 9, 38, 0
1, 74639, Note_on_c, 9, 42, 0
1, 74640, Note_on_c, 9, 42, 83
1, 74879, Note_on_c, 9, 36, 0
1, 74879, Note_on_c, 9, 42, 0
1, 74880, Note_on_c, 9, 42, 83
1, 74880, Note_on_c, 9, 36, 83
1, 75119, Note_on_c, 9, 42, 0
1, 75120, Note_on_c, 9, 42, 83
1, 75359, Note_on_c, 9, 36, 0
1, 75359, Note_on_c, 9, 42, 0
1, 75360, Note_on_c, 9, 38, 83
1, 75360, Note_on_c, 9, 42, 83
1, 75360, Note_on_c, 9, 36, 83
1, 75599, Note_on_c, 9, 38, 0
1, 75599, Note_on_c, 9, 42, 0
1, 75600, Note_on_c, 9, 42, 83
1, 75839, Note_on_c, 9, 36, 0
1, 75839, Note_on_c, 9, 42, 0
1, 75840, Note_on_c, 9, 42, 83
1, 75840, Note_on_c, 9, 36, 83
1, 76079, Note_on_c, 9, 42, 0
1, 76080, Note_on_c, 9, 42, 83
1, 76319, Note_on_c, 9, 36, 0
1, 76319, Note_on_c, 9, 42, 0
1, 76320, Note_on_c, 9, 38, 83
1, 76320, Note_on_c, 9, 42, 83
1, 76320, Note_on_c, 9, 36, 83
1, 76559, Note_on_c, 9, 38, 0
1, 76559, Note_on_c, 9, 42, 0
1, 76560, Note_on_c, 9, 42, 83
1, 76799, Note_on_c, 9, 36, 0
1, 76799, Note_on_c, 9, 42, 0
1, 76800, Note_on_c, 9, 42, 83
1, 76800, Note_on_c, 9, 49, 83
1, 76800, Note_on_c, 9, 36, 83
1, 77039, Note_on_c, 9, 42, 0
1, 77039, Note_on_c, 9, 49, 0
1, 77040, Note_on_c, 9, 42, 83
1, 77279, Note_on_c, 9, 36, 0
1, 77279, Note_on_c, 9, 42, 0
1, 77280, Note_on_c, 9, 38, 83
1, 77280, Note_on_c, 9, 42, 83
1, 77280, Note_on_c, 9, 36, 83
1, 77519, Note_on_c, 9, 38, 0
1, 77519, Note_on_c, 9, 42, 0
1, 77520, Note_on_c, 9, 42, 83
1, 77759, Note_on_c, 9, 36, 0
1, 77759, Note_on_c, 9, 42, 0
1, 77760, Note_on_c, 9, 42, 83
1, 77760, Note_on_c, 9, 36, 83
1, 77999, Note_on_c, 9, 42, 0
1, 78000, Note_on_c, 9, 42, 83
1, 78239, Note_on_c, 9, 36, 0
1, 78239, Note_on_c, 9, 42, 0
1, 78240, Note_on_c, 9, 38, 83
1, 78240, Note_on_c, 9, 42, 83
1, 78240, Note_on_c, 9, 36, 83
1, 78479, Note_on_c, 9, 38, 0
1, 78479, Note_on_c, 9, 42, 0
1, 78480, Note_on_c, 9, 42, 83
1, 78719, Note_on_c, 9, 36, 0
1, 78719, Note_on_c, 9, 42, 0
1, 78720, Note_on_c, 9, 42, 83
1, 78720, Note_on_c, 9, 49, 83
1, 78720, Note_on_c, 9, 36, 83
1, 78959, Note_on_c, 9, 42, 0
1, 78959, Note_on_c, 9, 49, 0
1, 78960, Note_on_c, 9, 42, 83
1, 79199, Note_on_c, 9, 36, 0
1, 79199, Note_on_c, 9, 42, 0
1, 79200, Note_on_c, 9, 38, 83
1, 79200, Note_on_c, 9, 42, 83
1, 79200, Note_on_c, 9, 36, 83
1, 79439, Note_on_c, 9, 38, 0
1, 79439, Note_on_c, 9, 42, 0
1, 79440, Note_on_c, 9, 42, 83
1, 79679, Note_on_c, 9, 36, 0
1, 79679, Note_on_c, 9, 42, 0
1, 79680, Note_on_c, 9, 42, 83
1, 79680, Note_on_c, 9, 36, 83
1, 79919, Note_on_c, 9, 42, 0
1, 79920, Note_on_c, 9, 42, 83
1, 80159, Note_on_c, 9, 36, 0
1, 80159, Note_on_c, 9, 42, 0
1, 80160, Note_on_c, 9, 38, 83
1, 80160, Note_on_c, 9, 42, 83
1, 80160, Note_on_c, 9, 36, 83
1, 80399, Note_on_c, 9, 38, 0
1, 80399, Note_on_c, 9, 42, 0
1, 80400, Note_on_c, 9, 42, 83
1, 80639, Note_on_c, 9, 36, 0
1, 80639, Note_on_c, 9, 42, 0
1, 80640, Note_on_c, 9, 42, 83
1, 80640, Note_on_c, 9, 49, 83
1, 80640, Note_on_c, 9, 36, 83
1, 80879, Note_on_c, 9, 42, 0
1, 80879, Note_on_c, 9, 49, 0
1, 80880, Note_on_c, 9, 42, 83
1, 81119, Note_on_c, 9, 36, 0
1, 81119, Note_on_c, 9, 42, 0
1, 81120, Note_on_c, 9, 38, 83
1, 81120, Note_on_c, 9, 42, 83
1, 81120, Note_on_c, 9, 36, 83
1, 81359, Note_on_c, 9, 38, 0
1, 81359, Note_on_c, 9, 42, 0
1, 81360, Note_on_c, 9, 42, 83
1, 81599, Note_on_c, 9, 36, 0
1, 81599, Note_on_c, 9, 42, 0
1, 81600, Note_on_c, 9, 42, 83
1, 81600, Note_on_c, 9, 36, 83
1, 81839, Note_on_c, 9, 42, 0
1, 81840, Note_on_c, 9, 42, 83
1, 82079, Note_on_c, 9, 36, 0
1, 82079, Note_on_c, 9, 42, 0
1, 82080, Note_on_c, 9, 38, 83
1, 82080, Note_on_c, 9, 42, 83
1, 82080, Note_on_c, 9, 36, 83
1, 82319, Note_on_c, 9, 38, 0
1, 82319, Note_on_c, 9, 42, 0
1, 82320, Note_on_c, 9, 42, 83
1, 82559, Note_on_c, 9, 36, 0
1, 82559, Note_on_c, 9, 42, 0
1, 82560, Note_on_c, 9, 42, 83
1, 82560, Note_on_c, 9, 36, 83
1, 82799, Note_on_c, 9, 42, 0
1, 82800, Note_on_c, 9, 42, 83
1, 83039, Note_on_c, 9, 36, 0
1, 83039, Note_on_c, 9, 42, 0
1, 83040, Note_on_c, 9, 38, 83
1, 83040, Note_on_c, 9, 42, 83
1, 83040, Note_on_c, 9, 36, 83
1, 83279, Note_on_c, 9, 38, 0
1, 83279, Note_on_c, 9, 42, 0
1, 83280, Note_on_c, 9, 42, 83
1, 83519, Note_on_c, 9, 36, 0
1, 83519, Note_on_c, 9, 42, 0
1, 83520, Note_on_c, 9, 38, 83
1, 83520, Note_on_c, 9, 42, 83
1, 83520, Note_on_c, 9, 36, 83
1, 83759, Note_on_c, 9, 38, 0
1, 83759, Note_on_c, 9, 42, 0
1, 83760, Note_on_c, 9, 42, 83
1, 83999, Note_on_c, 9, 36, 0
1, 83999, Note_on_c, 9, 42, 0
1, 84000, Note_on_c, 9, 38, 83
1, 84000, Note_on_c, 9, 42, 83
1, 84000, Note_on_c, 9, 36, 83
1, 84239, Note_on_c, 9, 38, 0
1, 84239, Note_on_c, 9, 42, 0
1, 84240, Note_on_c, 9, 38, 83
1, 84240, Note_on_c, 9, 46, 83
1, 84359, Note_on_c, 9, 38, 0
1, 84359, Note_on_c, 9, 46, 0
1, 84360, Note_on_c, 9, 38, 83
1, 84479, Note_on_c, 9, 36, 0
1, 84479, Note_on_c, 9, 38, 0
1, 84480, End_track
0, 0, End_of_file
