0, 0, Header, 1, 1, 480
1, 0, Start_track
1, 0, Time_signature, 4, 2, 24, 8
1, 0, Key_signature, 0, "major"
1, 0, Tempo, 500000
1, 0, Control_c, 9, 121, 0
1, 0, Program_c, 9, 0
1, 0, Control_c, 9, 7, 100
1, 0, Control_c, 9, 10, 64
1, 0, Control_c, 9, 91, 0
1, 0, Control_c, 9, 93, 0
1, 0, MIDI_port, 0
1, 1920, Note_on_c, 9, 42, 79
1, 2399, Note_on_c, 9, 42, 0
1, 2400, Note_on_c, 9, 42, 72
1, 2879, Note_on_c, 9, 42, 0
1, 2880, Note_on_c, 9, 42, 77
1, 3359, Note_on_c, 9, 42, 0
1, 3360, Note_on_c, 9, 42, 72
1, 3839, Note_on_c, 9, 42, 0
1, 3840, Note_on_c, 9, 42, 73
1, 4319, Note_on_c, 9, 42, 0
1, 4320, Note_on_c, 9, 42, 83
1, 4799, Note_on_c, 9, 42, 0
1, 4800, Note_on_c, 9, 42, 87
1, 5279, Note_on_c, 9, 42, 0
1, 5280, Note_on_c, 9, 42, 81
1, 5759, Note_on_c, 9, 42, 0
1, 5760, Note_on_c, 9, 42, 77
1, 6239, Note_on_c, 9, 42, 0
1, 6240, Note_on_c, 9, 42, 83
1, 6719, Note_on_c, 9, 42, 0
1, 6720, Note_on_c, 9, 42, 76
1, 7199, Note_on_c, 9, 42, 0
1, 7200, Note_on_c, 9, 42, 77
1, 7679, Note_on_c, 9, 42, 0
1, 7680, Note_on_c, 9, 42, 83
1, 8159, Note_on_c, 9, 42, 0
1, 8160, Note_on_c, 9, 42, 83
1, 8639, Note_on_c, 9, 42, 0
1, 8640, Note_on_c, 9, 42, 87
1, 9119, Note_on_c, 9, 42, 0
1, 9120, Note_on_c, 9, 42, 86
1, 9599, Note_on_c, 9, 42, 0
1, 9600, Note_on_c, 9, 42, 79
1, 10079, Note_on_c, 9, 42, 0
1, 10080, Note_on_c, 9, 42, 72
1, 10559, Note_on_c, 9, 42, 0
1, 10560, Note_on_c, 9, 42, 77
1, 11039, Note_on_c, 9, 42, 0
1, 11040, Note_on_c, 9, 42, 72
1, 11519, Note_on_c, 9, 42, 0
1, 11520, Note_on_c, 9, 42, 73
1, 11999, Note_on_c, 9, 42, 0
1, 12000, Note_on_c, 9, 42, 83
1, 12479, Note_on_c, 9, 42, 0
1, 12480, Note_on_c, 9, 42, 87
1, 12959, Note_on_c, 9, 42, 0
1, 12960, Note_on_c, 9, 42, 81
1, 13439, Note_on_c, 9, 42, 0
1, 13440, Note_on_c, 9, 42, 77
1, 13919, Note_on_c, 9, 42, 0
1, 13920, Note_on_c, 9, 42, 83
1, 14399, Note_on_c, 9, 42, 0
1, 14400, Note_on_c, 9, 42, 76
1, 14879, Note_on_c, 9, 42, 0
1, 14880, Note_on_c, 9, 42, 77
1, 15359, Note_on_c, 9, 42, 0
1, 15360, Note_on_c, 9, 42, 83
1, 15839, Note_on_c, 9, 42, 0
1, 15840, Note_on_c, 9, 42, 83
1, 16319, Note_on_c, 9, 42, 0
1, 16320, Note_on_c, 9, 42, 87
1, 16799, Note_on_c, 9, 42, 0
1, 16800, Note_on_c, 9, 42, 86
1, 17279, Note_on_c, 9, 42, 0
1, 17280, Note_on_c, 9, 42, 79
1, 17759, Note_on_c, 9, 42, 0
1, 17760, Note_on_c, 9, 42, 72
1, 18239, Note_on_c, 9, 42, 0
1, 18240, Note_on_c, 9, 42, 77
1, 18719, Note_on_c, 9, 42, 0
1, 18720, Note_on_c, 9, 42, 72
1, 19199, Note_on_c, 9, 42, 0
1, 19200, Note_on_c, 9, 42, 73
1, 19679, Note_on_c, 9, 42, 0
1, 19680, Note_on_c, 9, 42, 83
1, 20159, Note_on_c, 9, 42, 0
1, 20160, Note_on_c, 9, 42, 87
1, 20639, Note_on_c, 9, 42, 0
1, 20640, Note_on_c, 9, 42, 81
1, 21119, Note_on_c, 9, 42, 0
1, 21120, Note_on_c, 9, 42, 77
1, 21599, Note_on_c, 9, 42, 0
1, 21600, Note_on_c, 9, 42, 83
1, 22079, Note_on_c, 9, 42, 0
1, 22080, Note_on_c, 9, 42, 76
1, 22559, Note_on_c, 9, 42, 0
1, 22560, Note_on_c, 9, 42, 77
1, 23039, Note_on_c, 9, 42, 0
1, 23040, Note_on_c, 9, 42, 83
1, 23519, Note_on_c, 9, 42, 0
1, 23520, Note_on_c, 9, 42, 83
1, 23999, Note_on_c, 9, 42, 0
1, 24000, Note_on_c, 9, 42, 87
1, 24479, Note_on_c, 9, 42, 0
1, 24480, Note_on_c, 9, 42, 86
1, 24959, Note_on_c, 9, 42, 0
1, 24960, Note_on_c, 9, 42, 79
1, 25439, Note_on_c, 9, 42, 0
1, 25440, Note_on_c, 9, 42, 72
1, 25919, Note_on_c, 9, 42, 0
1, 25920, Note_on_c, 9, 42, 77
1, 26399, Note_on_c, 9, 42, 0
1, 26400, Note_on_c, 9, 42, 72
1, 26879, Note_on_c, 9, 42, 0
1, 26880, Note_on_c, 9, 42, 73
1, 27359, Note_on_c, 9, 42, 0
1, 27360, Note_on_c, 9, 42, 83
1, 27839, Note_on_c, 9, 42, 0
1, 27840, Note_on_c, 9, 42, 87
1, 28319, Note_on_c, 9, 42, 0
1, 28320, Note_on_c, 9, 42, 81
1, 28799, Note_on_c, 9, 42, 0
1, 28800, Note_on_c, 9, 42, 77
1, 29279, Note_on_c, 9, 42, 0
1, 29280, Note_on_c, 9, 42, 83
1, 29759, Note_on_c, 9, 42, 0
1, 29760, Note_on_c, 9, 42, 76
1, 30239, Note_on_c, 9, 42, 0
1, 30240, Note_on_c, 9, 42, 77
1, 30719, Note_on_c, 9, 42, 0
1, 30720, Note_on_c, 9, 42, 83
1, 31199, Note_on_c, 9, 42, 0
1, 31200, Note_on_c, 9, 42, 83
1, 31649, Note_on_c, 9, 42, 0
1, 31650, Note_on_c, 9, 38, 82
1, 31650, Note_on_c, 9, 40, 93
1, 31664, Note_on_c, 9, 38, 0
1, 31664, Note_on_c, 9, 40, 0
1, 31665, Note_on_c, 9, 42, 87
1, 31680, Note_on_c, 9, 38, 98
1, 31680, Note_on_c, 9, 40, 109
1, 32039, Note_on_c, 9, 42, 0
1, 32039, Note_on_c, 9, 38, 0
1, 32039, Note_on_c, 9, 40, 0
1, 32040, Note_on_c, 9, 38, 69
1, 32040, Note_on_c, 9, 40, 81
1, 32129, Note_on_c, 9, 38, 0
1, 32129, Note_on_c, 9, 40, 0
1, 32145, Note_on_c, 9, 42, 86
1, 32160, Note_on_c, 9, 38, 63
1, 32160, Note_on_c, 9, 40, 75
1, 32279, Note_on_c, 9, 42, 0
1, 32279, Note_on_c, 9, 38, 0
1, 32279, Note_on_c, 9, 40, 0
1, 32280, Note_on_c, 9, 38, 86
1, 32280, Note_on_c, 9, 40, 98
1, 32399, Note_on_c, 9, 38, 0
1, 32399, Note_on_c, 9, 40, 0
1, 32400, Note_on_c, 9, 38, 78
1, 32400, Note_on_c, 9, 40, 90
1, 32519, Note_on_c, 9, 38, 0
1, 32519, Note_on_c, 9, 40, 0
1, 32520, Note_on_c, 9, 38, 102
1, 32520, Note_on_c, 9, 40, 114
1, 32639, Note_on_c, 9, 38, 0
1, 32639, Note_on_c, 9, 40, 0
1, 32640, Note_on_c, 9, 42, 89
1, 32640, Note_on_c, 9, 35, 120
1, 32654, Note_on_c, 9, 42, 0
1, 32655, Note_on_c, 9, 49, 89
1, 32879, Note_on_c, 9, 49, 0
1, 32895, Note_on_c, 9, 46, 67
1, 33119, Note_on_c, 9, 35, 0
1, 33119, Note_on_c, 9, 46, 0
1, 33120, Note_on_c, 9, 38, 85
1, 33120, Note_on_c, 9, 40, 96
1, 33134, Note_on_c, 9, 38, 0
1, 33134, Note_on_c, 9, 40, 0
1, 33135, Note_on_c, 9, 42, 65
1, 33359, Note_on_c, 9, 42, 0
1, 33360, Note_on_c, 9, 46, 69
1, 33480, Note_on_c, 9, 35, 106
1, 33599, Note_on_c, 9, 46, 0
1, 33599, Note_on_c, 9, 35, 0
1, 33600, Note_on_c, 9, 42, 64
1, 33600, Note_on_c, 9, 35, 108
1, 33839, Note_on_c, 9, 42, 0
1, 33840, Note_on_c, 9, 46, 62
1, 34079, Note_on_c, 9, 35, 0
1, 34079, Note_on_c, 9, 46, 0
1, 34080, Note_on_c, 9, 38, 83
1, 34080, Note_on_c, 9, 40, 94
1, 34080, Note_on_c, 9, 42, 61
1, 34304, Note_on_c, 9, 38, 0
1, 34304, Note_on_c, 9, 40, 0
1, 34304, Note_on_c, 9, 42, 0
1, 34305, Note_on_c, 9, 46, 65
1, 34319, Note_on_c, 9, 46, 0
1, 34440, Note_on_c, 9, 35, 109
1, 34559, Note_on_c, 9, 35, 0
1, 34560, Note_on_c, 9, 42, 64
1, 34560, Note_on_c, 9, 35, 107
1, 34784, Note_on_c, 9, 42, 0
1, 34785, Note_on_c, 9, 46, 67
1, 35024, Note_on_c, 9, 46, 0
1, 35025, Note_on_c, 9, 42, 63
1, 35039, Note_on_c, 9, 35, 0
1, 35039, Note_on_c, 9, 42, 0
1, 35040, Note_on_c, 9, 38, 88
1, 35040, Note_on_c, 9, 40, 99
1, 35279, Note_on_c, 9, 38, 0
1, 35279, Note_on_c, 9, 40, 0
1, 35280, Note_on_c, 9, 46, 66
1, 35400, Note_on_c, 9, 35, 107
1, 35519, Note_on_c, 9, 46, 0
1, 35519, Note_on_c, 9, 35, 0
1, 35520, Note_on_c, 9, 42, 61
1, 35520, Note_on_c, 9, 35, 108
1, 35744, Note_on_c, 9, 42, 0
1, 35745, Note_on_c, 9, 46, 65
1, 35759, Note_on_c, 9, 46, 0
1, 35999, Note_on_c, 9, 35, 0
1, 36000, Note_on_c, 9, 42, 64
1, 36014, Note_on_c, 9, 42, 0
1, 36015, Note_on_c, 9, 38, 100
1, 36015, Note_on_c, 9, 40, 111
1, 36239, Note_on_c, 9, 38, 0
1, 36239, Note_on_c, 9, 40, 0
1, 36240, Note_on_c, 9, 46, 65
1, 36375, Note_on_c, 9, 35, 107
1, 36419, Note_on_c, 9, 35, 0
1, 36479, Note_on_c, 9, 46, 0
1, 36480, Note_on_c, 9, 42, 60
1, 36480, Note_on_c, 9, 35, 108
1, 36719, Note_on_c, 9, 42, 0
1, 36720, Note_on_c, 9, 46, 63
1, 36944, Note_on_c, 9, 46, 0
1, 36945, Note_on_c, 9, 42, 61
1, 36959, Note_on_c, 9, 35, 0
1, 36960, Note_on_c, 9, 38, 100
1, 36960, Note_on_c, 9, 40, 111
1, 37184, Note_on_c, 9, 42, 0
1, 37184, Note_on_c, 9, 38, 0
1, 37184, Note_on_c, 9, 40, 0
1, 37185, Note_on_c, 9, 46, 64
1, 37199, Note_on_c, 9, 46, 0
1, 37320, Note_on_c, 9, 35, 107
1, 37439, Note_on_c, 9, 35, 0
1, 37440, Note_on_c, 9, 42, 63
1, 37440, Note_on_c, 9, 35, 108
1, 37679, Note_on_c, 9, 42, 0
1, 37680, Note_on_c, 9, 46, 63
1, 37904, Note_on_c, 9, 46, 0
1, 37905, Note_on_c, 9, 42, 63
1, 37919, Note_on_c, 9, 35, 0
1, 37920, Note_on_c, 9, 38, 92
1, 37920, Note_on_c, 9, 40, 103
1, 38144, Note_on_c, 9, 42, 0
1, 38144, Note_on_c, 9, 38, 0
1, 38144, Note_on_c, 9, 40, 0
1, 38145, Note_on_c, 9, 46, 64
1, 38159, Note_on_c, 9, 46, 0
1, 38295, Note_on_c, 9, 35, 108
1, 38339, Note_on_c, 9, 35, 0
1, 38400, Note_on_c, 9, 42, 61
1, 38415, Note_on_c, 9, 35, 108
1, 38624, Note_on_c, 9, 42, 0
1, 38625, Note_on_c, 9, 46, 66
1, 38639, Note_on_c, 9, 35, 0
1, 38639, Note_on_c, 9, 46, 0
1, 38880, Note_on_c, 9, 38, 88
1, 38880, Note_on_c, 9, 40, 99
1, 38880, Note_on_c, 9, 42, 61
1, 39104, Note_on_c, 9, 38, 0
1, 39104, Note_on_c, 9, 40, 0
1, 39104, Note_on_c, 9, 42, 0
1, 39105, Note_on_c, 9, 46, 64
1, 39240, Note_on_c, 9, 35, 105
1, 39344, Note_on_c, 9, 46, 0
1, 39345, Note_on_c, 9, 42, 61
1, 39359, Note_on_c, 9, 35, 0
1, 39359, Note_on_c, 9, 42, 0
1, 39360, Note_on_c, 9, 35, 107
1, 39585, Note_on_c, 9, 46, 65
1, 39824, Note_on_c, 9, 46, 0
1, 39825, Note_on_c, 9, 42, 64
1, 39839, Note_on_c, 9, 35, 0
1, 39840, Note_on_c, 9, 38, 83
1, 39840, Note_on_c, 9, 40, 94
1, 40064, Note_on_c, 9, 42, 0
1, 40064, Note_on_c, 9, 38, 0
1, 40064, Note_on_c, 9, 40, 0
1, 40065, Note_on_c, 9, 46, 65
1, 40079, Note_on_c, 9, 46, 0
1, 40320, Note_on_c, 9, 42, 64
1, 40320, Note_on_c, 9, 35, 113
1, 40544, Note_on_c, 9, 42, 0
1, 40545, Note_on_c, 9, 46, 65
1, 40784, Note_on_c, 9, 46, 0
1, 40785, Note_on_c, 9, 42, 62
1, 40799, Note_on_c, 9, 35, 0
1, 40799, Note_on_c, 9, 42, 0
1, 40800, Note_on_c, 9, 38, 86
1, 40800, Note_on_c, 9, 40, 97
1, 41024, Note_on_c, 9, 38, 0
1, 41024, Note_on_c, 9, 40, 0
1, 41025, Note_on_c, 9, 46, 64
1, 41175, Note_on_c, 9, 35, 105
1, 41219, Note_on_c, 9, 35, 0
1, 41264, Note_on_c, 9, 46, 0
1, 41265, Note_on_c, 9, 42, 61
1, 41279, Note_on_c, 9, 42, 0
1, 41295, Note_on_c, 9, 35, 106
1, 41505, Note_on_c, 9, 46, 60
1, 41519, Note_on_c, 9, 35, 0
1, 41655, Note_on_c, 9, 35, 106
1, 41699, Note_on_c, 9, 35, 0
1, 41744, Note_on_c, 9, 46, 0
1, 41745, Note_on_c, 9, 42, 60
1, 41760, Note_on_c, 9, 38, 88
1, 41760, Note_on_c, 9, 40, 99
1, 41999, Note_on_c, 9, 42, 0
1, 41999, Note_on_c, 9, 38, 0
1, 41999, Note_on_c, 9, 40, 0
1, 42000, Note_on_c, 9, 46, 63
1, 42120, Note_on_c, 9, 35, 101
1, 42239, Note_on_c, 9, 46, 0
1, 42239, Note_on_c, 9, 35, 0
1, 42240, Note_on_c, 9, 42, 62
1, 42240, Note_on_c, 9, 35, 113
1, 42479, Note_on_c, 9, 42, 0
1, 42480, Note_on_c, 9, 46, 65
1, 42704, Note_on_c, 9, 46, 0
1, 42705, Note_on_c, 9, 42, 60
1, 42719, Note_on_c, 9, 35, 0
1, 42720, Note_on_c, 9, 38, 92
1, 42720, Note_on_c, 9, 40, 103
1, 42944, Note_on_c, 9, 42, 0
1, 42944, Note_on_c, 9, 38, 0
1, 42944, Note_on_c, 9, 40, 0
1, 42945, Note_on_c, 9, 46, 63
1, 42959, Note_on_c, 9, 46, 0
1, 43080, Note_on_c, 9, 35, 105
1, 43199, Note_on_c, 9, 35, 0
1, 43200, Note_on_c, 9, 42, 63
1, 43200, Note_on_c, 9, 35, 107
1, 43439, Note_on_c, 9, 42, 0
1, 43440, Note_on_c, 9, 46, 61
1, 43559, Note_on_c, 9, 35, 0
1, 43560, Note_on_c, 9, 35, 106
1, 43664, Note_on_c, 9, 46, 0
1, 43665, Note_on_c, 9, 38, 100
1, 43665, Note_on_c, 9, 40, 111
1, 43679, Note_on_c, 9, 35, 0
1, 43680, Note_on_c, 9, 42, 71
1, 43919, Note_on_c, 9, 38, 0
1, 43919, Note_on_c, 9, 40, 0
1, 43919, Note_on_c, 9, 42, 0
1, 43920, Note_on_c, 9, 46, 64
1, 44040, Note_on_c, 9, 35, 104
1, 44159, Note_on_c, 9, 46, 0
1, 44159, Note_on_c, 9, 35, 0
1, 44160, Note_on_c, 9, 42, 65
1, 44160, Note_on_c, 9, 35, 113
1, 44384, Note_on_c, 9, 42, 0
1, 44385, Note_on_c, 9, 46, 60
1, 44624, Note_on_c, 9, 46, 0
1, 44625, Note_on_c, 9, 42, 64
1, 44639, Note_on_c, 9, 35, 0
1, 44640, Note_on_c, 9, 38, 96
1, 44640, Note_on_c, 9, 40, 107
1, 44879, Note_on_c, 9, 42, 0
1, 44879, Note_on_c, 9, 38, 0
1, 44879, Note_on_c, 9, 40, 0
1, 44880, Note_on_c, 9, 46, 61
1, 45000, Note_on_c, 9, 35, 103
1, 45119, Note_on_c, 9, 46, 0
1, 45119, Note_on_c, 9, 35, 0
1, 45120, Note_on_c, 9, 42, 60
1, 45120, Note_on_c, 9, 35, 110
1, 45344, Note_on_c, 9, 42, 0
1, 45345, Note_on_c, 9, 46, 63
1, 45359, Note_on_c, 9, 46, 0
1, 45599, Note_on_c, 9, 35, 0
1, 45600, Note_on_c, 9, 38, 92
1, 45600, Note_on_c, 9, 40, 103
1, 45600, Note_on_c, 9, 42, 60
1, 45824, Note_on_c, 9, 38, 0
1, 45824, Note_on_c, 9, 40, 0
1, 45824, Note_on_c, 9, 42, 0
1, 45825, Note_on_c, 9, 46, 65
1, 45839, Note_on_c, 9, 46, 0
1, 45960, Note_on_c, 9, 35, 105
1, 46079, Note_on_c, 9, 35, 0
1, 46080, Note_on_c, 9, 42, 63
1, 46080, Note_on_c, 9, 35, 108
1, 46319, Note_on_c, 9, 42, 0
1, 46320, Note_on_c, 9, 46, 60
1, 46559, Note_on_c, 9, 35, 0
1, 46559, Note_on_c, 9, 46, 0
1, 46560, Note_on_c, 9, 38, 99
1, 46560, Note_on_c, 9, 40, 110
1, 46560, Note_on_c, 9, 42, 61
1, 46784, Note_on_c, 9, 38, 0
1, 46784, Note_on_c, 9, 40, 0
1, 46784, Note_on_c, 9, 42, 0
1, 46785, Note_on_c, 9, 46, 59
1, 46920, Note_on_c, 9, 35, 103
1, 47024, Note_on_c, 9, 46, 0
1, 47025, Note_on_c, 9, 42, 60
1, 47039, Note_on_c, 9, 35, 0
1, 47039, Note_on_c, 9, 42, 0
1, 47040, Note_on_c, 9, 35, 107
1, 47265, Note_on_c, 9, 46, 71
1, 47504, Note_on_c, 9, 46, 0
1, 47505, Note_on_c, 9, 42, 59
1, 47519, Note_on_c, 9, 35, 0
1, 47520, Note_on_c, 9, 38, 88
1, 47520, Note_on_c, 9, 40, 99
1, 47744, Note_on_c, 9, 42, 0
1, 47744, Note_on_c, 9, 38, 0
1, 47744, Note_on_c, 9, 40, 0
1, 47745, Note_on_c, 9, 46, 64
1, 47984, Note_on_c, 9, 46, 0
1, 47985, Note_on_c, 9, 42, 62
1, 47999, Note_on_c, 9, 42, 0
1, 48000, Note_on_c, 9, 35, 113
1, 48225, Note_on_c, 9, 46, 61
1, 48464, Note_on_c, 9, 46, 0
1, 48465, Note_on_c, 9, 42, 60
1, 48479, Note_on_c, 9, 35, 0
1, 48479, Note_on_c, 9, 42, 0
1, 48480, Note_on_c, 9, 38, 88
1, 48480, Note_on_c, 9, 40, 99
1, 48704, Note_on_c, 9, 38, 0
1, 48704, Note_on_c, 9, 40, 0
1, 48705, Note_on_c, 9, 46, 62
1, 48855, Note_on_c, 9, 35, 108
1, 48899, Note_on_c, 9, 35, 0
1, 48944, Note_on_c, 9, 46, 0
1, 48945, Note_on_c, 9, 42, 60
1, 48959, Note_on_c, 9, 42, 0
1, 48975, Note_on_c, 9, 35, 105
1, 49185, Note_on_c, 9, 46, 60
1, 49199, Note_on_c, 9, 35, 0
1, 49199, Note_on_c, 9, 46, 0
1, 49320, Note_on_c, 9, 35, 108
1, 49439, Note_on_c, 9, 35, 0
1, 49440, Note_on_c, 9, 38, 88
1, 49440, Note_on_c, 9, 40, 99
1, 49440, Note_on_c, 9, 42, 68
1, 49664, Note_on_c, 9, 38, 0
1, 49664, Note_on_c, 9, 40, 0
1, 49664, Note_on_c, 9, 42, 0
1, 49665, Note_on_c, 9, 46, 63
1, 49679, Note_on_c, 9, 46, 0
1, 49800, Note_on_c, 9, 35, 102
1, 49919, Note_on_c, 9, 35, 0
1, 49920, Note_on_c, 9, 42, 64
1, 49920, Note_on_c, 9, 35, 112
1, 50144, Note_on_c, 9, 42, 0
1, 50145, Note_on_c, 9, 46, 63
1, 50159, Note_on_c, 9, 46, 0
1, 50399, Note_on_c, 9, 35, 0
1, 50400, Note_on_c, 9, 38, 96
1, 50400, Note_on_c, 9, 40, 107
1, 50400, Note_on_c, 9, 42, 64
1, 50624, Note_on_c, 9, 38, 0
1, 50624, Note_on_c, 9, 40, 0
1, 50624, Note_on_c, 9, 42, 0
1, 50625, Note_on_c, 9, 46, 61
1, 50760, Note_on_c, 9, 35, 101
1, 50864, Note_on_c, 9, 46, 0
1, 50865, Note_on_c, 9, 42, 65
1, 50879, Note_on_c, 9, 35, 0
1, 50879, Note_on_c, 9, 42, 0
1, 50880, Note_on_c, 9, 35, 111
1, 51105, Note_on_c, 9, 46, 68
1, 51239, Note_on_c, 9, 35, 0
1, 51240, Note_on_c, 9, 35, 105
1, 51344, Note_on_c, 9, 46, 0
1, 51345, Note_on_c, 9, 42, 64
1, 51359, Note_on_c, 9, 35, 0
1, 51359, Note_on_c, 9, 42, 0
1, 51360, Note_on_c, 9, 38, 83
1, 51360, Note_on_c, 9, 40, 94
1, 51584, Note_on_c, 9, 38, 0
1, 51584, Note_on_c, 9, 40, 0
1, 51585, Note_on_c, 9, 46, 61
1, 51720, Note_on_c, 9, 35, 103
1, 51824, Note_on_c, 9, 46, 0
1, 51825, Note_on_c, 9, 42, 64
1, 51839, Note_on_c, 9, 35, 0
1, 51839, Note_on_c, 9, 42, 0
1, 51840, Note_on_c, 9, 35, 112
1, 52065, Note_on_c, 9, 46, 62
1, 52304, Note_on_c, 9, 46, 0
1, 52305, Note_on_c, 9, 42, 65
1, 52319, Note_on_c, 9, 35, 0
1, 52319, Note_on_c, 9, 42, 0
1, 52320, Note_on_c, 9, 38, 92
1, 52320, Note_on_c, 9, 40, 103
1, 52544, Note_on_c, 9, 38, 0
1, 52544, Note_on_c, 9, 40, 0
1, 52545, Note_on_c, 9, 46, 60
1, 52680, Note_on_c, 9, 35, 102
1, 52784, Note_on_c, 9, 46, 0
1, 52785, Note_on_c, 9, 42, 60
1, 52799, Note_on_c, 9, 35, 0
1, 52799, Note_on_c, 9, 42, 0
1, 52800, Note_on_c, 9, 35, 112
1, 53025, Note_on_c, 9, 46, 62
1, 53039, Note_on_c, 9, 46, 0
1, 53279, Note_on_c, 9, 35, 0
1, 53280, Note_on_c, 9, 38, 92
1, 53280, Note_on_c, 9, 40, 103
1, 53280, Note_on_c, 9, 42, 62
1, 53504, Note_on_c, 9, 38, 0
1, 53504, Note_on_c, 9, 40, 0
1, 53504, Note_on_c, 9, 42, 0
1, 53505, Note_on_c, 9, 46, 68
1, 53519, Note_on_c, 9, 46, 0
1, 53655, Note_on_c, 9, 35, 104
1, 53699, Note_on_c, 9, 35, 0
1, 53760, Note_on_c, 9, 42, 63
1, 53760, Note_on_c, 9, 35, 106
1, 53984, Note_on_c, 9, 42, 0
1, 53985, Note_on_c, 9, 46, 64
1, 54224, Note_on_c, 9, 46, 0
1, 54225, Note_on_c, 9, 42, 60
1, 54239, Note_on_c, 9, 35, 0
1, 54239, Note_on_c, 9, 42, 0
1, 54240, Note_on_c, 9, 38, 92
1, 54240, Note_on_c, 9, 40, 103
1, 54464, Note_on_c, 9, 38, 0
1, 54464, Note_on_c, 9, 40, 0
1, 54465, Note_on_c, 9, 46, 61
1, 54479, Note_on_c, 9, 46, 0
1, 54600, Note_on_c, 9, 35, 102
1, 54719, Note_on_c, 9, 35, 0
1, 54720, Note_on_c, 9, 42, 63
1, 54720, Note_on_c, 9, 35, 108
1, 54944, Note_on_c, 9, 42, 0
1, 54945, Note_on_c, 9, 46, 63
1, 54959, Note_on_c, 9, 46, 0
1, 55199, Note_on_c, 9, 35, 0
1, 55200, Note_on_c, 9, 38, 96
1, 55200, Note_on_c, 9, 40, 107
1, 55200, Note_on_c, 9, 42, 64
1, 55424, Note_on_c, 9, 38, 0
1, 55424, Note_on_c, 9, 40, 0
1, 55424, Note_on_c, 9, 42, 0
1, 55425, Note_on_c, 9, 46, 63
1, 55664, Note_on_c, 9, 46, 0
1, 55665, Note_on_c, 9, 42, 67
1, 55679, Note_on_c, 9, 42, 0
1, 55680, Note_on_c, 9, 35, 111
1, 55905, Note_on_c, 9, 46, 60
1, 56144, Note_on_c, 9, 46, 0
1, 56145, Note_on_c, 9, 42, 65
1, 56159, Note_on_c, 9, 35, 0
1, 56159, Note_on_c, 9, 42, 0
1, 56160, Note_on_c, 9, 38, 92
1, 56160, Note_on_c, 9, 40, 103
1, 56384, Note_on_c, 9, 38, 0
1, 56384, Note_on_c, 9, 40, 0
1, 56385, Note_on_c, 9, 46, 63
1, 56399, Note_on_c, 9, 46, 0
1, 56520, Note_on_c, 9, 35, 101
1, 56639, Note_on_c, 9, 35, 0
1, 56640, Note_on_c, 9, 42, 63
1, 56640, Note_on_c, 9, 35, 108
1, 56864, Note_on_c, 9, 42, 0
1, 56865, Note_on_c, 9, 46, 61
1, 56879, Note_on_c, 9, 46, 0
1, 57119, Note_on_c, 9, 35, 0
1, 57120, Note_on_c, 9, 38, 92
1, 57120, Note_on_c, 9, 40, 103
1, 57120, Note_on_c, 9, 42, 59
1, 57359, Note_on_c, 9, 38, 0
1, 57359, Note_on_c, 9, 40, 0
1, 57359, Note_on_c, 9, 42, 0
1, 57360, Note_on_c, 9, 46, 63
1, 57480, Note_on_c, 9, 35, 103
1, 57599, Note_on_c, 9, 46, 0
1, 57599, Note_on_c, 9, 35, 0
1, 57600, Note_on_c, 9, 42, 64
1, 57600, Note_on_c, 9, 35, 113
1, 57824, Note_on_c, 9, 42, 0
1, 57825, Note_on_c, 9, 46, 73
1, 57839, Note_on_c, 9, 46, 0
1, 57959, Note_on_c, 9, 35, 0
1, 57960, Note_on_c, 9, 35, 103
1, 58079, Note_on_c, 9, 35, 0
1, 58080, Note_on_c, 9, 42, 59
1, 58094, Note_on_c, 9, 42, 0
1, 58095, Note_on_c, 9, 38, 91
1, 58095, Note_on_c, 9, 40, 102
1, 58304, Note_on_c, 9, 38, 0
1, 58304, Note_on_c, 9, 40, 0
1, 58305, Note_on_c, 9, 46, 67
1, 58320, Note_on_c, 9, 38, 78
1, 58320, Note_on_c, 9, 40, 89
1, 58320, Note_on_c, 9, 35, 112
1, 58559, Note_on_c, 9, 46, 0
1, 58559, Note_on_c, 9, 38, 0
1, 58559, Note_on_c, 9, 40, 0
1, 58559, Note_on_c, 9, 35, 0
1, 58560, Note_on_c, 9, 42, 74
1, 58560, Note_on_c, 9, 35, 112
1, 58574, Note_on_c, 9, 42, 0
1, 58575, Note_on_c, 9, 38, 99
1, 58575, Note_on_c, 9, 40, 110
1, 58979, Note_on_c, 9, 38, 0
1, 58979, Note_on_c, 9, 40, 0
1, 59010, Note_on_c, 9, 38, 73
1, 59010, Note_on_c, 9, 40, 84
1, 59039, Note_on_c, 9, 35, 0
1, 59039, Note_on_c, 9, 38, 0
1, 59039, Note_on_c, 9, 40, 0
1, 59040, Note_on_c, 9, 38, 126
1, 59040, Note_on_c, 9, 40, 126
1, 59519, Note_on_c, 9, 38, 0
1, 59519, Note_on_c, 9, 40, 0
1, 59520, Note_on_c, 9, 42, 77
1, 59520, Note_on_c, 9, 49, 71
1, 59520, Note_on_c, 9, 35, 116
1, 59759, Note_on_c, 9, 42, 0
1, 59759, Note_on_c, 9, 49, 0
1, 59760, Note_on_c, 9, 46, 72
1, 59984, Note_on_c, 9, 46, 0
1, 59985, Note_on_c, 9, 38, 97
1, 59985, Note_on_c, 9, 40, 108
1, 59999, Note_on_c, 9, 35, 0
1, 59999, Note_on_c, 9, 38, 0
1, 59999, Note_on_c, 9, 40, 0
1, 60000, Note_on_c, 9, 42, 65
1, 60239, Note_on_c, 9, 42, 0
1, 60240, Note_on_c, 9, 46, 69
1, 60375, Note_on_c, 9, 35, 104
1, 60419, Note_on_c, 9, 35, 0
1, 60464, Note_on_c, 9, 46, 0
1, 60465, Note_on_c, 9, 42, 60
1, 60479, Note_on_c, 9, 42, 0
1, 60480, Note_on_c, 9, 35, 110
1, 60705, Note_on_c, 9, 46, 70
1, 60944, Note_on_c, 9, 46, 0
1, 60945, Note_on_c, 9, 38, 90
1, 60945, Note_on_c, 9, 40, 101
1, 60945, Note_on_c, 9, 42, 60
1, 60959, Note_on_c, 9, 35, 0
1, 60959, Note_on_c, 9, 38, 0
1, 60959, Note_on_c, 9, 40, 0
1, 60959, Note_on_c, 9, 42, 0
1, 61185, Note_on_c, 9, 46, 67
1, 61320, Note_on_c, 9, 35, 105
1, 61409, Note_on_c, 9, 35, 0
1, 61424, Note_on_c, 9, 46, 0
1, 61425, Note_on_c, 9, 42, 61
1, 61425, Note_on_c, 9, 35, 106
1, 61439, Note_on_c, 9, 42, 0
1, 61439, Note_on_c, 9, 35, 0
1, 61665, Note_on_c, 9, 46, 67
1, 61904, Note_on_c, 9, 46, 0
1, 61905, Note_on_c, 9, 38, 92
1, 61905, Note_on_c, 9, 40, 103
1, 61919, Note_on_c, 9, 38, 0
1, 61919, Note_on_c, 9, 40, 0
1, 61920, Note_on_c, 9, 42, 62
1, 62159, Note_on_c, 9, 42, 0
1, 62160, Note_on_c, 9, 46, 67
1, 62295, Note_on_c, 9, 35, 101
1, 62339, Note_on_c, 9, 35, 0
1, 62399, Note_on_c, 9, 46, 0
1, 62400, Note_on_c, 9, 42, 61
1, 62400, Note_on_c, 9, 35, 108
1, 62639, Note_on_c, 9, 42, 0
1, 62640, Note_on_c, 9, 46, 63
1, 62879, Note_on_c, 9, 35, 0
1, 62879, Note_on_c, 9, 46, 0
1, 62880, Note_on_c, 9, 38, 88
1, 62880, Note_on_c, 9, 40, 99
1, 62880, Note_on_c, 9, 42, 62
1, 63104, Note_on_c, 9, 38, 0
1, 63104, Note_on_c, 9, 40, 0
1, 63104, Note_on_c, 9, 42, 0
1, 63105, Note_on_c, 9, 46, 72
1, 63119, Note_on_c, 9, 46, 0
1, 63255, Note_on_c, 9, 35, 107
1, 63299, Note_on_c, 9, 35, 0
1, 63360, Note_on_c, 9, 42, 64
1, 63360, Note_on_c, 9, 35, 113
1, 63584, Note_on_c, 9, 42, 0
1, 63585, Note_on_c, 9, 46, 65
1, 63824, Note_on_c, 9, 46, 0
1, 63825, Note_on_c, 9, 42, 62
1, 63839, Note_on_c, 9, 35, 0
1, 63839, Note_on_c, 9, 42, 0
1, 63840, Note_on_c, 9, 38, 96
1, 63840, Note_on_c, 9, 40, 107
1, 64064, Note_on_c, 9, 38, 0
1, 64064, Note_on_c, 9, 40, 0
1, 64065, Note_on_c, 9, 46, 64
1, 64215, Note_on_c, 9, 35, 105
1, 64259, Note_on_c, 9, 35, 0
1, 64304, Note_on_c, 9, 46, 0
1, 64305, Note_on_c, 9, 42, 61
1, 64319, Note_on_c, 9, 42, 0
1, 64335, Note_on_c, 9, 35, 106
1, 64545, Note_on_c, 9, 46, 60
1, 64559, Note_on_c, 9, 35, 0
1, 64695, Note_on_c, 9, 35, 106
1, 64739, Note_on_c, 9, 35, 0
1, 64784, Note_on_c, 9, 46, 0
1, 64785, Note_on_c, 9, 42, 60
1, 64800, Note_on_c, 9, 38, 88
1, 64800, Note_on_c, 9, 40, 99
1, 65039, Note_on_c, 9, 42, 0
1, 65039, Note_on_c, 9, 38, 0
1, 65039, Note_on_c, 9, 40, 0
1, 65040, Note_on_c, 9, 46, 63
1, 65160, Note_on_c, 9, 35, 101
1, 65279, Note_on_c, 9, 46, 0
1, 65279, Note_on_c, 9, 35, 0
1, 65280, Note_on_c, 9, 42, 62
1, 65280, Note_on_c, 9, 35, 113
1, 65519, Note_on_c, 9, 42, 0
1, 65520, Note_on_c, 9, 46, 65
1, 65744, Note_on_c, 9, 46, 0
1, 65745, Note_on_c, 9, 42, 60
1, 65759, Note_on_c, 9, 35, 0
1, 65760, Note_on_c, 9, 38, 92
1, 65760, Note_on_c, 9, 40, 103
1, 65984, Note_on_c, 9, 42, 0
1, 65984, Note_on_c, 9, 38, 0
1, 65984, Note_on_c, 9, 40, 0
1, 65985, Note_on_c, 9, 46, 63
1, 65999, Note_on_c, 9, 46, 0
1, 66120, Note_on_c, 9, 35, 105
1, 66239, Note_on_c, 9, 35, 0
1, 66240, Note_on_c, 9, 42, 63
1, 66240, Note_on_c, 9, 35, 107
1, 66479, Note_on_c, 9, 42, 0
1, 66480, Note_on_c, 9, 46, 61
1, 66599, Note_on_c, 9, 35, 0
1, 66600, Note_on_c, 9, 35, 106
1, 66704, Note_on_c, 9, 46, 0
1, 66705, Note_on_c, 9, 38, 100
1, 66705, Note_on_c, 9, 40, 111
1, 66719, Note_on_c, 9, 35, 0
1, 66720, Note_on_c, 9, 42, 71
1, 66959, Note_on_c, 9, 38, 0
1, 66959, Note_on_c, 9, 40, 0
1, 66959, Note_on_c, 9, 42, 0
1, 66960, Note_on_c, 9, 46, 64
1, 67080, Note_on_c, 9, 35, 104
1, 67169, Note_on_c, 9, 35, 0
1, 67184, Note_on_c, 9, 46, 0
1, 67185, Note_on_c, 9, 42, 65
1, 67185, Note_on_c, 9, 35, 113
1, 67199, Note_on_c, 9, 42, 0
1, 67199, Note_on_c, 9, 35, 0
1, 67425, Note_on_c, 9, 46, 60
1, 67664, Note_on_c, 9, 46, 0
1, 67665, Note_on_c, 9, 42, 64
1, 67680, Note_on_c, 9, 38, 96
1, 67680, Note_on_c, 9, 40, 107
1, 67919, Note_on_c, 9, 42, 0
1, 67919, Note_on_c, 9, 38, 0
1, 67919, Note_on_c, 9, 40, 0
1, 67920, Note_on_c, 9, 46, 61
1, 68040, Note_on_c, 9, 35, 103
1, 68159, Note_on_c, 9, 46, 0
1, 68159, Note_on_c, 9, 35, 0
1, 68160, Note_on_c, 9, 35, 110
1, 68175, Note_on_c, 9, 42, 60
1, 68384, Note_on_c, 9, 42, 0
1, 68385, Note_on_c, 9, 46, 63
1, 68399, Note_on_c, 9, 46, 0
1, 68639, Note_on_c, 9, 35, 0
1, 68640, Note_on_c, 9, 38, 92
1, 68640, Note_on_c, 9, 40, 103
1, 68640, Note_on_c, 9, 42, 60
1, 68864, Note_on_c, 9, 38, 0
1, 68864, Note_on_c, 9, 40, 0
1, 68864, Note_on_c, 9, 42, 0
1, 68865, Note_on_c, 9, 46, 65
1, 69000, Note_on_c, 9, 35, 105
1, 69104, Note_on_c, 9, 46, 0
1, 69105, Note_on_c, 9, 42, 63
1, 69119, Note_on_c, 9, 35, 0
1, 69119, Note_on_c, 9, 42, 0
1, 69120, Note_on_c, 9, 35, 108
1, 69360, Note_on_c, 9, 46, 60
1, 69599, Note_on_c, 9, 35, 0
1, 69599, Note_on_c, 9, 46, 0
1, 69600, Note_on_c, 9, 38, 99
1, 69600, Note_on_c, 9, 40, 110
1, 69600, Note_on_c, 9, 42, 61
1, 69824, Note_on_c, 9, 38, 0
1, 69824, Note_on_c, 9, 40, 0
1, 69824, Note_on_c, 9, 42, 0
1, 69825, Note_on_c, 9, 46, 59
1, 69960, Note_on_c, 9, 35, 103
1, 70064, Note_on_c, 9, 46, 0
1, 70065, Note_on_c, 9, 42, 60
1, 70079, Note_on_c, 9, 35, 0
1, 70079, Note_on_c, 9, 42, 0
1, 70080, Note_on_c, 9, 35, 107
1, 70305, Note_on_c, 9, 46, 71
1, 70544, Note_on_c, 9, 46, 0
1, 70545, Note_on_c, 9, 42, 59
1, 70559, Note_on_c, 9, 35, 0
1, 70560, Note_on_c, 9, 38, 88
1, 70560, Note_on_c, 9, 40, 99
1, 70784, Note_on_c, 9, 42, 0
1, 70784, Note_on_c, 9, 38, 0
1, 70784, Note_on_c, 9, 40, 0
1, 70785, Note_on_c, 9, 46, 64
1, 71024, Note_on_c, 9, 46, 0
1, 71025, Note_on_c, 9, 42, 62
1, 71039, Note_on_c, 9, 42, 0
1, 71040, Note_on_c, 9, 35, 113
1, 71265, Note_on_c, 9, 46, 61
1, 71504, Note_on_c, 9, 46, 0
1, 71505, Note_on_c, 9, 42, 60
1, 71519, Note_on_c, 9, 35, 0
1, 71519, Note_on_c, 9, 42, 0
1, 71520, Note_on_c, 9, 38, 88
1, 71520, Note_on_c, 9, 40, 99
1, 71744, Note_on_c, 9, 38, 0
1, 71744, Note_on_c, 9, 40, 0
1, 71745, Note_on_c, 9, 46, 62
1, 71880, Note_on_c, 9, 35, 108
1, 71984, Note_on_c, 9, 46, 0
1, 71985, Note_on_c, 9, 42, 60
1, 71999, Note_on_c, 9, 35, 0
1, 71999, Note_on_c, 9, 42, 0
1, 72000, Note_on_c, 9, 35, 105
1, 72225, Note_on_c, 9, 46, 60
1, 72239, Note_on_c, 9, 46, 0
1, 72359, Note_on_c, 9, 35, 0
1, 72360, Note_on_c, 9, 35, 108
1, 72479, Note_on_c, 9, 35, 0
1, 72480, Note_on_c, 9, 38, 88
1, 72480, Note_on_c, 9, 40, 99
1, 72480, Note_on_c, 9, 42, 68
1, 72704, Note_on_c, 9, 38, 0
1, 72704, Note_on_c, 9, 40, 0
1, 72704, Note_on_c, 9, 42, 0
1, 72705, Note_on_c, 9, 46, 63
1, 72719, Note_on_c, 9, 46, 0
1, 72840, Note_on_c, 9, 35, 102
1, 72959, Note_on_c, 9, 35, 0
1, 72960, Note_on_c, 9, 42, 64
1, 72960, Note_on_c, 9, 35, 112
1, 73184, Note_on_c, 9, 42, 0
1, 73185, Note_on_c, 9, 46, 63
1, 73199, Note_on_c, 9, 46, 0
1, 73439, Note_on_c, 9, 35, 0
1, 73440, Note_on_c, 9, 38, 96
1, 73440, Note_on_c, 9, 40, 107
1, 73440, Note_on_c, 9, 42, 64
1, 73664, Note_on_c, 9, 38, 0
1, 73664, Note_on_c, 9, 40, 0
1, 73664, Note_on_c, 9, 42, 0
1, 73665, Note_on_c, 9, 46, 61
1, 73800, Note_on_c, 9, 35, 101
1, 73904, Note_on_c, 9, 46, 0
1, 73905, Note_on_c, 9, 42, 65
1, 73919, Note_on_c, 9, 35, 0
1, 73919, Note_on_c, 9, 42, 0
1, 73920, Note_on_c, 9, 35, 111
1, 74145, Note_on_c, 9, 46, 68
1, 74279, Note_on_c, 9, 35, 0
1, 74280, Note_on_c, 9, 35, 105
1, 74384, Note_on_c, 9, 46, 0
1, 74385, Note_on_c, 9, 42, 64
1, 74399, Note_on_c, 9, 35, 0
1, 74399, Note_on_c, 9, 42, 0
1, 74400, Note_on_c, 9, 38, 93
1, 74400, Note_on_c, 9, 40, 104
1, 74624, Note_on_c, 9, 38, 0
1, 74624, Note_on_c, 9, 40, 0
1, 74625, Note_on_c, 9, 46, 61
1, 74760, Note_on_c, 9, 35, 103
1, 74849, Note_on_c, 9, 35, 0
1, 74864, Note_on_c, 9, 46, 0
1, 74865, Note_on_c, 9, 42, 64
1, 74865, Note_on_c, 9, 35, 112
1, 74879, Note_on_c, 9, 42, 0
1, 74879, Note_on_c, 9, 35, 0
1, 75105, Note_on_c, 9, 46, 62
1, 75344, Note_on_c, 9, 46, 0
1, 75345, Note_on_c, 9, 42, 65
1, 75359, Note_on_c, 9, 42, 0
1, 75360, Note_on_c, 9, 38, 92
1, 75360, Note_on_c, 9, 40, 103
1, 75584, Note_on_c, 9, 38, 0
1, 75584, Note_on_c, 9, 40, 0
1, 75585, Note_on_c, 9, 46, 60
1, 75720, Note_on_c, 9, 35, 102
1, 75824, Note_on_c, 9, 46, 0
1, 75825, Note_on_c, 9, 42, 60
1, 75839, Note_on_c, 9, 35, 0
1, 75839, Note_on_c, 9, 42, 0
1, 75840, Note_on_c, 9, 35, 112
1, 76065, Note_on_c, 9, 46, 62
1, 76079, Note_on_c, 9, 46, 0
1, 76319, Note_on_c, 9, 35, 0
1, 76320, Note_on_c, 9, 38, 92
1, 76320, Note_on_c, 9, 40, 103
1, 76320, Note_on_c, 9, 42, 62
1, 76544, Note_on_c, 9, 38, 0
1, 76544, Note_on_c, 9, 40, 0
1, 76544, Note_on_c, 9, 42, 0
1, 76545, Note_on_c, 9, 46, 68
1, 76559, Note_on_c, 9, 46, 0
1, 76695, Note_on_c, 9, 35, 104
1, 76739, Note_on_c, 9, 35, 0
1, 76800, Note_on_c, 9, 42, 63
1, 76800, Note_on_c, 9, 35, 106
1, 77024, Note_on_c, 9, 42, 0
1, 77025, Note_on_c, 9, 46, 64
1, 77264, Note_on_c, 9, 46, 0
1, 77265, Note_on_c, 9, 42, 60
1, 77279, Note_on_c, 9, 35, 0
1, 77279, Note_on_c, 9, 42, 0
1, 77280, Note_on_c, 9, 38, 92
1, 77280, Note_on_c, 9, 40, 103
1, 77504, Note_on_c, 9, 38, 0
1, 77504, Note_on_c, 9, 40, 0
1, 77505, Note_on_c, 9, 46, 61
1, 77519, Note_on_c, 9, 46, 0
1, 77640, Note_on_c, 9, 35, 102
1, 77759, Note_on_c, 9, 35, 0
1, 77760, Note_on_c, 9, 42, 63
1, 77760, Note_on_c, 9, 35, 108
1, 77984, Note_on_c, 9, 42, 0
1, 77985, Note_on_c, 9, 46, 63
1, 77999, Note_on_c, 9, 46, 0
1, 78239, Note_on_c, 9, 35, 0
1, 78240, Note_on_c, 9, 38, 96
1, 78240, Note_on_c, 9, 40, 107
1, 78240, Note_on_c, 9, 42, 64
1, 78464, Note_on_c, 9, 38, 0
1, 78464, Note_on_c, 9, 40, 0
1, 78464, Note_on_c, 9, 42, 0
1, 78465, Note_on_c, 9, 46, 63
1, 78704, Note_on_c, 9, 46, 0
1, 78705, Note_on_c, 9, 42, 67
1, 78719, Note_on_c, 9, 42, 0
1, 78720, Note_on_c, 9, 35, 111
1, 78945, Note_on_c, 9, 46, 60
1, 79184, Note_on_c, 9, 46, 0
1, 79185, Note_on_c, 9, 42, 65
1, 79199, Note_on_c, 9, 35, 0
1, 79199, Note_on_c, 9, 42, 0
1, 79200, Note_on_c, 9, 38, 92
1, 79200, Note_on_c, 9, 40, 103
1, 79424, Note_on_c, 9, 38, 0
1, 79424, Note_on_c, 9, 40, 0
1, 79425, Note_on_c, 9, 46, 63
1, 79439, Note_on_c, 9, 46, 0
1, 79560, Note_on_c, 9, 35, 101
1, 79679, Note_on_c, 9, 35, 0
1, 79680, Note_on_c, 9, 42, 63
1, 79680, Note_on_c, 9, 35, 108
1, 79904, Note_on_c, 9, 42, 0
1, 79905, Note_on_c, 9, 46, 61
1, 79919, Note_on_c, 9, 46, 0
1, 80159, Note_on_c, 9, 35, 0
1, 80160, Note_on_c, 9, 38, 92
1, 80160, Note_on_c, 9, 40, 103
1, 80160, Note_on_c, 9, 42, 59
1, 80399, Note_on_c, 9, 38, 0
1, 80399, Note_on_c, 9, 40, 0
1, 80399, Note_on_c, 9, 42, 0
1, 80400, Note_on_c, 9, 46, 63
1, 80520, Note_on_c, 9, 35, 103
1, 80639, Note_on_c, 9, 46, 0
1, 80639, Note_on_c, 9, 35, 0
1, 80640, Note_on_c, 9, 42, 64
1, 80640, Note_on_c, 9, 35, 113
1, 80864, Note_on_c, 9, 42, 0
1, 80865, Note_on_c, 9, 46, 73
1, 80879, Note_on_c, 9, 46, 0
1, 80999, Note_on_c, 9, 35, 0
1, 81000, Note_on_c, 9, 35, 103
1, 81119, Note_on_c, 9, 35, 0
1, 81120, Note_on_c, 9, 42, 59
1, 81134, Note_on_c, 9, 42, 0
1, 81135, Note_on_c, 9, 38, 91
1, 81135, Note_on_c, 9, 40, 102
1, 81344, Note_on_c, 9, 38, 0
1, 81344, Note_on_c, 9, 40, 0
1, 81345, Note_on_c, 9, 46, 67
1, 81360, Note_on_c, 9, 38, 78
1, 81360, Note_on_c, 9, 40, 89
1, 81360, Note_on_c, 9, 35, 112
1, 81599, Note_on_c, 9, 46, 0
1, 81599, Note_on_c, 9, 38, 0
1, 81599, Note_on_c, 9, 40, 0
1, 81599, Note_on_c, 9, 35, 0
1, 81600, Note_on_c, 9, 42, 74
1, 81600, Note_on_c, 9, 35, 112
1, 81614, Note_on_c, 9, 42, 0
1, 81615, Note_on_c, 9, 38, 99
1, 81615, Note_on_c, 9, 40, 110
1, 82019, Note_on_c, 9, 38, 0
1, 82019, Note_on_c, 9, 40, 0
1, 82050, Note_on_c, 9, 38, 73
1, 82050, Note_on_c, 9, 40, 84
1, 82079, Note_on_c, 9, 35, 0
1, 82079, Note_on_c, 9, 38, 0
1, 82079, Note_on_c, 9, 40, 0
1, 82080, Note_on_c, 9, 38, 111
1, 82080, Note_on_c, 9, 40, 122
1, 82559, Note_on_c, 9, 38, 0
1, 82559, Note_on_c, 9, 40, 0
1, 82560, Note_on_c, 9, 42, 77
1, 82560, Note_on_c, 9, 49, 71
1, 82560, Note_on_c, 9, 35, 116
1, 82799, Note_on_c, 9, 42, 0
1, 82799, Note_on_c, 9, 49, 0
1, 82800, Note_on_c, 9, 46, 72
1, 83024, Note_on_c, 9, 46, 0
1, 83025, Note_on_c, 9, 38, 93
1, 83025, Note_on_c, 9, 40, 104
1, 83039, Note_on_c, 9, 35, 0
1, 83039, Note_on_c, 9, 38, 0
1, 83039, Note_on_c, 9, 40, 0
1, 83040, Note_on_c, 9, 42, 65
1, 83279, Note_on_c, 9, 42, 0
1, 83280, Note_on_c, 9, 46, 69
1, 83415, Note_on_c, 9, 35, 104
1, 83459, Note_on_c, 9, 35, 0
1, 83504, Note_on_c, 9, 46, 0
1, 83505, Note_on_c, 9, 42, 60
1, 83519, Note_on_c, 9, 42, 0
1, 83520, Note_on_c, 9, 35, 110
1, 83745, Note_on_c, 9, 46, 70
1, 83984, Note_on_c, 9, 46, 0
1, 83985, Note_on_c, 9, 38, 91
1, 83985, Note_on_c, 9, 40, 102
1, 83985, Note_on_c, 9, 42, 60
1, 83999, Note_on_c, 9, 35, 0
1, 83999, Note_on_c, 9, 38, 0
1, 83999, Note_on_c, 9, 40, 0
1, 83999, Note_on_c, 9, 42, 0
1, 84225, Note_on_c, 9, 46, 67
1, 84360, Note_on_c, 9, 35, 105
1, 84449, Note_on_c, 9, 35, 0
1, 84464, Note_on_c, 9, 46, 0
1, 84465, Note_on_c, 9, 42, 61
1, 84465, Note_on_c, 9, 35, 106
1, 84479, Note_on_c, 9, 42, 0
1, 84479, Note_on_c, 9, 35, 0
1, 84705, Note_on_c, 9, 46, 67
1, 84719, Note_on_c, 9, 46, 0
1, 84960, Note_on_c, 9, 38, 93
1, 84960, Note_on_c, 9, 40, 104
1, 84960, Note_on_c, 9, 42, 62
1, 85199, Note_on_c, 9, 38, 0
1, 85199, Note_on_c, 9, 40, 0
1, 85199, Note_on_c, 9, 42, 0
1, 85200, Note_on_c, 9, 46, 67
1, 85335, Note_on_c, 9, 35, 101
1, 85379, Note_on_c, 9, 35, 0
1, 85439, Note_on_c, 9, 46, 0
1, 85440, Note_on_c, 9, 42, 61
1, 85440, Note_on_c, 9, 35, 108
1, 85559, Note_on_c, 9, 42, 0
1, 85560, Note_on_c, 9, 38, 76
1, 85679, Note_on_c, 9, 38, 0
1, 85680, Note_on_c, 9, 38, 93
1, 85799, Note_on_c, 9, 38, 0
1, 85800, Note_on_c, 9, 38, 83
1, 85889, Note_on_c, 9, 38, 0
1, 85905, Note_on_c, 9, 38, 112
1, 85905, Note_on_c, 9, 40, 111
1, 85919, Note_on_c, 9, 35, 0
1, 85920, Note_on_c, 9, 42, 62
1, 86009, Note_on_c, 9, 38, 0
1, 86009, Note_on_c, 9, 40, 0
1, 86009, Note_on_c, 9, 42, 0
1, 86025, Note_on_c, 9, 38, 93
1, 86129, Note_on_c, 9, 38, 0
1, 86145, Note_on_c, 9, 38, 112
1, 86249, Note_on_c, 9, 38, 0
1, 86265, Note_on_c, 9, 38, 111
1, 86369, Note_on_c, 9, 38, 0
1, 86385, Note_on_c, 9, 53, 70
1, 86399, Note_on_c, 9, 53, 0
1, 86400, Note_on_c, 9, 35, 115
1, 86625, Note_on_c, 9, 53, 71
1, 86639, Note_on_c, 9, 53, 0
1, 86879, Note_on_c, 9, 35, 0
1, 86880, Note_on_c, 9, 38, 105
1, 86880, Note_on_c, 9, 40, 116
1, 87104, Note_on_c, 9, 38, 0
1, 87104, Note_on_c, 9, 40, 0
1, 87105, Note_on_c, 9, 53, 63
1, 87240, Note_on_c, 9, 35, 108
1, 87344, Note_on_c, 9, 53, 0
1, 87345, Note_on_c, 9, 53, 69
1, 87359, Note_on_c, 9, 35, 0
1, 87359, Note_on_c, 9, 53, 0
1, 87360, Note_on_c, 9, 35, 106
1, 87585, Note_on_c, 9, 53, 74
1, 87599, Note_on_c, 9, 35, 0
1, 87599, Note_on_c, 9, 53, 0
1, 87600, Note_on_c, 9, 35, 110
1, 87839, Note_on_c, 9, 35, 0
1, 87840, Note_on_c, 9, 38, 108
1, 87840, Note_on_c, 9, 40, 119
1, 88064, Note_on_c, 9, 38, 0
1, 88064, Note_on_c, 9, 40, 0
1, 88065, Note_on_c, 9, 53, 61
1, 88304, Note_on_c, 9, 53, 0
1, 88305, Note_on_c, 9, 53, 72
1, 88319, Note_on_c, 9, 53, 0
1, 88320, Note_on_c, 9, 35, 116
1, 88545, Note_on_c, 9, 53, 68
1, 88559, Note_on_c, 9, 53, 0
1, 88679, Note_on_c, 9, 35, 0
1, 88680, Note_on_c, 9, 35, 110
1, 88799, Note_on_c, 9, 35, 0
1, 88800, Note_on_c, 9, 38, 101
1, 88800, Note_on_c, 9, 40, 112
1, 89024, Note_on_c, 9, 38, 0
1, 89024, Note_on_c, 9, 40, 0
1, 89025, Note_on_c, 9, 53, 67
1, 89040, Note_on_c, 9, 35, 112
1, 89264, Note_on_c, 9, 53, 0
1, 89265, Note_on_c, 9, 53, 66
1, 89279, Note_on_c, 9, 35, 0
1, 89279, Note_on_c, 9, 53, 0
1, 89520, Note_on_c, 9, 53, 75
1, 89520, Note_on_c, 9, 35, 112
1, 89759, Note_on_c, 9, 53, 0
1, 89759, Note_on_c, 9, 35, 0
1, 89760, Note_on_c, 9, 38, 107
1, 89760, Note_on_c, 9, 40, 118
1, 89880, Note_on_c, 9, 35, 108
1, 89999, Note_on_c, 9, 38, 0
1, 89999, Note_on_c, 9, 40, 0
1, 90000, Note_on_c, 9, 53, 67
1, 90119, Note_on_c, 9, 35, 0
1, 90120, Note_on_c, 9, 35, 106
1, 90239, Note_on_c, 9, 53, 0
1, 90239, Note_on_c, 9, 35, 0
1, 90240, Note_on_c, 9, 53, 65
1, 90240, Note_on_c, 9, 35, 106
1, 90464, Note_on_c, 9, 53, 0
1, 90465, Note_on_c, 9, 53, 71
1, 90479, Note_on_c, 9, 53, 0
1, 90599, Note_on_c, 9, 35, 0
1, 90600, Note_on_c, 9, 35, 105
1, 90719, Note_on_c, 9, 35, 0
1, 90720, Note_on_c, 9, 38, 102
1, 90720, Note_on_c, 9, 40, 113
1, 90944, Note_on_c, 9, 38, 0
1, 90944, Note_on_c, 9, 40, 0
1, 90945, Note_on_c, 9, 53, 71
1, 90960, Note_on_c, 9, 35, 114
1, 91184, Note_on_c, 9, 53, 0
1, 91185, Note_on_c, 9, 53, 71
1, 91199, Note_on_c, 9, 35, 0
1, 91199, Note_on_c, 9, 53, 0
1, 91425, Note_on_c, 9, 53, 72
1, 91439, Note_on_c, 9, 53, 0
1, 91440, Note_on_c, 9, 35, 114
1, 91679, Note_on_c, 9, 35, 0
1, 91680, Note_on_c, 9, 38, 102
1, 91680, Note_on_c, 9, 40, 113
1, 91800, Note_on_c, 9, 35, 108
1, 91904, Note_on_c, 9, 38, 0
1, 91904, Note_on_c, 9, 40, 0
1, 91905, Note_on_c, 9, 53, 72
1, 92039, Note_on_c, 9, 35, 0
1, 92040, Note_on_c, 9, 35, 106
1, 92144, Note_on_c, 9, 53, 0
1, 92145, Note_on_c, 9, 53, 74
1, 92159, Note_on_c, 9, 35, 0
1, 92159, Note_on_c, 9, 53, 0
1, 92160, Note_on_c, 9, 35, 110
1, 92385, Note_on_c, 9, 53, 74
1, 92399, Note_on_c, 9, 53, 0
1, 92519, Note_on_c, 9, 35, 0
1, 92535, Note_on_c, 9, 35, 107
1, 92579, Note_on_c, 9, 35, 0
1, 92640, Note_on_c, 9, 38, 102
1, 92640, Note_on_c, 9, 40, 113
1, 92864, Note_on_c, 9, 38, 0
1, 92864, Note_on_c, 9, 40, 0
1, 92865, Note_on_c, 9, 53, 69
1, 92880, Note_on_c, 9, 35, 112
1, 93104, Note_on_c, 9, 53, 0
1, 93105, Note_on_c, 9, 53, 71
1, 93119, Note_on_c, 9, 35, 0
1, 93119, Note_on_c, 9, 53, 0
1, 93240, Note_on_c, 9, 38, 88
1, 93240, Note_on_c, 9, 40, 99
1, 93329, Note_on_c, 9, 38, 0
1, 93329, Note_on_c, 9, 40, 0
1, 93345, Note_on_c, 9, 53, 69
1, 93359, Note_on_c, 9, 53, 0
1, 93360, Note_on_c, 9, 35, 108
1, 93599, Note_on_c, 9, 35, 0
1, 93600, Note_on_c, 9, 38, 103
1, 93600, Note_on_c, 9, 40, 114
1, 93720, Note_on_c, 9, 35, 105
1, 93824, Note_on_c, 9, 38, 0
1, 93824, Note_on_c, 9, 40, 0
1, 93825, Note_on_c, 9, 53, 68
1, 93959, Note_on_c, 9, 35, 0
1, 93960, Note_on_c, 9, 35, 108
1, 94064, Note_on_c, 9, 53, 0
1, 94065, Note_on_c, 9, 57, 90
1, 94079, Note_on_c, 9, 35, 0
1, 94079, Note_on_c, 9, 57, 0
1, 94080, Note_on_c, 9, 35, 107
1, 94305, Note_on_c, 9, 53, 72
1, 94319, Note_on_c, 9, 53, 0
1, 94439, Note_on_c, 9, 35, 0
1, 94440, Note_on_c, 9, 35, 107
1, 94559, Note_on_c, 9, 35, 0
1, 94560, Note_on_c, 9, 38, 103
1, 94560, Note_on_c, 9, 40, 114
1, 94784, Note_on_c, 9, 38, 0
1, 94784, Note_on_c, 9, 40, 0
1, 94785, Note_on_c, 9, 53, 74
1, 94800, Note_on_c, 9, 35, 113
1, 95024, Note_on_c, 9, 53, 0
1, 95025, Note_on_c, 9, 53, 71
1, 95039, Note_on_c, 9, 35, 0
1, 95039, Note_on_c, 9, 53, 0
1, 95265, Note_on_c, 9, 53, 72
1, 95279, Note_on_c, 9, 53, 0
1, 95280, Note_on_c, 9, 35, 113
1, 95519, Note_on_c, 9, 35, 0
1, 95520, Note_on_c, 9, 38, 104
1, 95520, Note_on_c, 9, 40, 115
1, 95640, Note_on_c, 9, 35, 107
1, 95744, Note_on_c, 9, 38, 0
1, 95744, Note_on_c, 9, 40, 0
1, 95745, Note_on_c, 9, 53, 68
1, 95879, Note_on_c, 9, 35, 0
1, 95880, Note_on_c, 9, 35, 107
1, 95984, Note_on_c, 9, 53, 0
1, 95985, Note_on_c, 9, 53, 72
1, 95999, Note_on_c, 9, 35, 0
1, 95999, Note_on_c, 9, 53, 0
1, 96000, Note_on_c, 9, 35, 109
1, 96225, Note_on_c, 9, 53, 70
1, 96239, Note_on_c, 9, 53, 0
1, 96359, Note_on_c, 9, 35, 0
1, 96375, Note_on_c, 9, 35, 105
1, 96419, Note_on_c, 9, 35, 0
1, 96480, Note_on_c, 9, 38, 93
1, 96480, Note_on_c, 9, 40, 104
1, 96704, Note_on_c, 9, 38, 0
1, 96704, Note_on_c, 9, 40, 0
1, 96705, Note_on_c, 9, 53, 66
1, 96720, Note_on_c, 9, 35, 115
1, 96944, Note_on_c, 9, 53, 0
1, 96945, Note_on_c, 9, 53, 74
1, 96959, Note_on_c, 9, 35, 0
1, 96959, Note_on_c, 9, 53, 0
1, 97185, Note_on_c, 9, 53, 74
1, 97199, Note_on_c, 9, 53, 0
1, 97200, Note_on_c, 9, 35, 116
1, 97439, Note_on_c, 9, 35, 0
1, 97440, Note_on_c, 9, 38, 96
1, 97440, Note_on_c, 9, 40, 107
1, 97560, Note_on_c, 9, 35, 108
1, 97664, Note_on_c, 9, 38, 0
1, 97664, Note_on_c, 9, 40, 0
1, 97665, Note_on_c, 9, 53, 70
1, 97799, Note_on_c, 9, 35, 0
1, 97800, Note_on_c, 9, 35, 108
1, 97904, Note_on_c, 9, 53, 0
1, 97905, Note_on_c, 9, 57, 79
1, 97919, Note_on_c, 9, 35, 0
1, 97919, Note_on_c, 9, 57, 0
1, 97920, Note_on_c, 9, 35, 106
1, 98145, Note_on_c, 9, 53, 74
1, 98159, Note_on_c, 9, 53, 0
1, 98279, Note_on_c, 9, 35, 0
1, 98295, Note_on_c, 9, 35, 107
1, 98339, Note_on_c, 9, 35, 0
1, 98400, Note_on_c, 9, 38, 102
1, 98400, Note_on_c, 9, 40, 113
1, 98624, Note_on_c, 9, 38, 0
1, 98624, Note_on_c, 9, 40, 0
1, 98625, Note_on_c, 9, 53, 74
1, 98640, Note_on_c, 9, 35, 112
1, 98864, Note_on_c, 9, 53, 0
1, 98865, Note_on_c, 9, 53, 74
1, 98879, Note_on_c, 9, 35, 0
1, 98879, Note_on_c, 9, 53, 0
1, 99000, Note_on_c, 9, 38, 83
1, 99000, Note_on_c, 9, 40, 94
1, 99089, Note_on_c, 9, 38, 0
1, 99089, Note_on_c, 9, 40, 0
1, 99105, Note_on_c, 9, 53, 72
1, 99119, Note_on_c, 9, 53, 0
1, 99120, Note_on_c, 9, 35, 104
1, 99239, Note_on_c, 9, 35, 0
1, 99240, Note_on_c, 9, 35, 108
1, 99359, Note_on_c, 9, 35, 0
1, 99360, Note_on_c, 9, 38, 100
1, 99360, Note_on_c, 9, 40, 111
1, 99480, Note_on_c, 9, 35, 105
1, 99584, Note_on_c, 9, 38, 0
1, 99584, Note_on_c, 9, 40, 0
1, 99585, Note_on_c, 9, 53, 75
1, 99719, Note_on_c, 9, 35, 0
1, 99720, Note_on_c, 9, 35, 106
1, 99824, Note_on_c, 9, 53, 0
1, 99825, Note_on_c, 9, 53, 74
1, 99839, Note_on_c, 9, 35, 0
1, 99839, Note_on_c, 9, 53, 0
1, 99840, Note_on_c, 9, 35, 112
1, 100065, Note_on_c, 9, 53, 74
1, 100079, Note_on_c, 9, 53, 0
1, 100199, Note_on_c, 9, 35, 0
1, 100200, Note_on_c, 9, 35, 104
1, 100319, Note_on_c, 9, 35, 0
1, 100320, Note_on_c, 9, 38, 99
1, 100320, Note_on_c, 9, 40, 110
1, 100544, Note_on_c, 9, 38, 0
1, 100544, Note_on_c, 9, 40, 0
1, 100545, Note_on_c, 9, 53, 74
1, 100560, Note_on_c, 9, 35, 115
1, 100784, Note_on_c, 9, 53, 0
1, 100785, Note_on_c, 9, 53, 73
1, 100799, Note_on_c, 9, 35, 0
1, 100799, Note_on_c, 9, 53, 0
1, 100920, Note_on_c, 9, 38, 88
1, 100920, Note_on_c, 9, 40, 99
1, 101009, Note_on_c, 9, 38, 0
1, 101009, Note_on_c, 9, 40, 0
1, 101025, Note_on_c, 9, 53, 74
1, 101039, Note_on_c, 9, 53, 0
1, 101040, Note_on_c, 9, 35, 104
1, 101159, Note_on_c, 9, 35, 0
1, 101160, Note_on_c, 9, 35, 108
1, 101279, Note_on_c, 9, 35, 0
1, 101280, Note_on_c, 9, 38, 98
1, 101280, Note_on_c, 9, 40, 109
1, 101400, Note_on_c, 9, 35, 108
1, 101504, Note_on_c, 9, 38, 0
1, 101504, Note_on_c, 9, 40, 0
1, 101505, Note_on_c, 9, 53, 76
1, 101519, Note_on_c, 9, 53, 0
1, 101639, Note_on_c, 9, 35, 0
1, 101640, Note_on_c, 9, 35, 104
1, 101759, Note_on_c, 9, 35, 0
1, 101760, Note_on_c, 9, 57, 86
1, 101760, Note_on_c, 9, 35, 114
1, 101984, Note_on_c, 9, 57, 0
1, 101985, Note_on_c, 9, 53, 66
1, 101999, Note_on_c, 9, 53, 0
1, 102119, Note_on_c, 9, 35, 0
1, 102120, Note_on_c, 9, 35, 103
1, 102239, Note_on_c, 9, 35, 0
1, 102240, Note_on_c, 9, 38, 96
1, 102240, Note_on_c, 9, 40, 107
1, 102464, Note_on_c, 9, 38, 0
1, 102464, Note_on_c, 9, 40, 0
1, 102465, Note_on_c, 9, 53, 66
1, 102480, Note_on_c, 9, 35, 113
1, 102704, Note_on_c, 9, 53, 0
1, 102705, Note_on_c, 9, 53, 69
1, 102719, Note_on_c, 9, 35, 0
1, 102719, Note_on_c, 9, 53, 0
1, 102840, Note_on_c, 9, 38, 83
1, 102840, Note_on_c, 9, 40, 94
1, 102929, Note_on_c, 9, 38, 0
1, 102929, Note_on_c, 9, 40, 0
1, 102945, Note_on_c, 9, 53, 71
1, 102959, Note_on_c, 9, 53, 0
1, 102960, Note_on_c, 9, 35, 101
1, 103079, Note_on_c, 9, 35, 0
1, 103095, Note_on_c, 9, 35, 108
1, 103139, Note_on_c, 9, 35, 0
1, 103200, Note_on_c, 9, 38, 92
1, 103200, Note_on_c, 9, 40, 103
1, 103320, Note_on_c, 9, 35, 104
1, 103439, Note_on_c, 9, 38, 0
1, 103439, Note_on_c, 9, 40, 0
1, 103440, Note_on_c, 9, 53, 67
1, 103559, Note_on_c, 9, 35, 0
1, 103560, Note_on_c, 9, 35, 107
1, 103679, Note_on_c, 9, 53, 0
1, 103679, Note_on_c, 9, 35, 0
1, 103680, Note_on_c, 9, 53, 76
1, 103680, Note_on_c, 9, 35, 112
1, 103904, Note_on_c, 9, 53, 0
1, 103905, Note_on_c, 9, 53, 72
1, 103919, Note_on_c, 9, 53, 0
1, 104039, Note_on_c, 9, 35, 0
1, 104055, Note_on_c, 9, 35, 108
1, 104099, Note_on_c, 9, 35, 0
1, 104160, Note_on_c, 9, 38, 99
1, 104160, Note_on_c, 9, 40, 110
1, 104384, Note_on_c, 9, 38, 0
1, 104384, Note_on_c, 9, 40, 0
1, 104385, Note_on_c, 9, 53, 74
1, 104400, Note_on_c, 9, 35, 108
1, 104624, Note_on_c, 9, 53, 0
1, 104625, Note_on_c, 9, 53, 74
1, 104639, Note_on_c, 9, 35, 0
1, 104639, Note_on_c, 9, 53, 0
1, 104760, Note_on_c, 9, 38, 83
1, 104760, Note_on_c, 9, 40, 94
1, 104849, Note_on_c, 9, 38, 0
1, 104849, Note_on_c, 9, 40, 0
1, 104865, Note_on_c, 9, 53, 72
1, 104879, Note_on_c, 9, 53, 0
1, 104880, Note_on_c, 9, 35, 111
1, 105119, Note_on_c, 9, 35, 0
1, 105120, Note_on_c, 9, 38, 94
1, 105120, Note_on_c, 9, 40, 105
1, 105344, Note_on_c, 9, 38, 0
1, 105344, Note_on_c, 9, 40, 0
1, 105345, Note_on_c, 9, 53, 69
1, 105359, Note_on_c, 9, 53, 0
1, 105360, Note_on_c, 9, 38, 96
1, 105360, Note_on_c, 9, 40, 107
1, 105599, Note_on_c, 9, 38, 0
1, 105599, Note_on_c, 9, 40, 0
1, 105600, Note_on_c, 9, 57, 87
1, 105600, Note_on_c, 9, 35, 114
1, 105839, Note_on_c, 9, 57, 0
1, 105840, Note_on_c, 9, 53, 73
1, 105959, Note_on_c, 9, 35, 0
1, 105960, Note_on_c, 9, 35, 107
1, 106079, Note_on_c, 9, 53, 0
1, 106079, Note_on_c, 9, 35, 0
1, 106080, Note_on_c, 9, 38, 96
1, 106080, Note_on_c, 9, 40, 107
1, 106304, Note_on_c, 9, 38, 0
1, 106304, Note_on_c, 9, 40, 0
1, 106305, Note_on_c, 9, 53, 74
1, 106544, Note_on_c, 9, 53, 0
1, 106545, Note_on_c, 9, 53, 74
1, 106559, Note_on_c, 9, 53, 0
1, 106560, Note_on_c, 9, 35, 116
1, 106785, Note_on_c, 9, 53, 70
1, 106799, Note_on_c, 9, 53, 0
1, 106919, Note_on_c, 9, 35, 0
1, 106920, Note_on_c, 9, 35, 112
1, 107039, Note_on_c, 9, 35, 0
1, 107040, Note_on_c, 9, 38, 96
1, 107040, Note_on_c, 9, 40, 107
1, 107264, Note_on_c, 9, 38, 0
1, 107264, Note_on_c, 9, 40, 0
1, 107265, Note_on_c, 9, 53, 68
1, 107504, Note_on_c, 9, 53, 0
1, 107505, Note_on_c, 9, 53, 75
1, 107519, Note_on_c, 9, 53, 0
1, 107520, Note_on_c, 9, 35, 116
1, 107745, Note_on_c, 9, 53, 77
1, 107759, Note_on_c, 9, 53, 0
1, 107879, Note_on_c, 9, 35, 0
1, 107880, Note_on_c, 9, 35, 107
1, 107999, Note_on_c, 9, 35, 0
1, 108000, Note_on_c, 9, 38, 99
1, 108000, Note_on_c, 9, 40, 110
1, 108239, Note_on_c, 9, 38, 0
1, 108239, Note_on_c, 9, 40, 0
1, 108240, Note_on_c, 9, 53, 74
1, 108240, Note_on_c, 9, 35, 115
1, 108464, Note_on_c, 9, 53, 0
1, 108465, Note_on_c, 9, 38, 90
1, 108465, Note_on_c, 9, 40, 101
1, 108479, Note_on_c, 9, 35, 0
1, 108479, Note_on_c, 9, 38, 0
1, 108479, Note_on_c, 9, 40, 0
1, 108480, Note_on_c, 9, 53, 79
1, 108494, Note_on_c, 9, 53, 0
1, 108495, Note_on_c, 9, 38, 102
1, 108495, Note_on_c, 9, 40, 113
1, 108944, Note_on_c, 9, 38, 0
1, 108944, Note_on_c, 9, 40, 0
1, 108945, Note_on_c, 9, 38, 90
1, 108945, Note_on_c, 9, 40, 101
1, 108959, Note_on_c, 9, 38, 0
1, 108959, Note_on_c, 9, 40, 0
1, 108960, Note_on_c, 9, 38, 104
1, 108960, Note_on_c, 9, 40, 115
1, 109079, Note_on_c, 9, 38, 0
1, 109079, Note_on_c, 9, 40, 0
1, 109080, Note_on_c, 9, 41, 116
1, 109080, Note_on_c, 9, 35, 113
1, 109439, Note_on_c, 9, 41, 0
1, 109439, Note_on_c, 9, 35, 0
1, 109440, Note_on_c, 9, 42, 64
1, 109440, Note_on_c, 9, 35, 113
1, 109664, Note_on_c, 9, 42, 0
1, 109665, Note_on_c, 9, 46, 65
1, 109904, Note_on_c, 9, 46, 0
1, 109905, Note_on_c, 9, 42, 62
1, 109919, Note_on_c, 9, 35, 0
1, 109919, Note_on_c, 9, 42, 0
1, 109920, Note_on_c, 9, 38, 92
1, 109920, Note_on_c, 9, 40, 103
1, 110144, Note_on_c, 9, 38, 0
1, 110144, Note_on_c, 9, 40, 0
1, 110145, Note_on_c, 9, 46, 64
1, 110295, Note_on_c, 9, 35, 105
1, 110339, Note_on_c, 9, 35, 0
1, 110384, Note_on_c, 9, 46, 0
1, 110385, Note_on_c, 9, 42, 61
1, 110399, Note_on_c, 9, 42, 0
1, 110415, Note_on_c, 9, 35, 106
1, 110625, Note_on_c, 9, 46, 60
1, 110639, Note_on_c, 9, 35, 0
1, 110639, Note_on_c, 9, 46, 0
1, 110775, Note_on_c, 9, 35, 106
1, 110819, Note_on_c, 9, 35, 0
1, 110880, Note_on_c, 9, 42, 60
1, 110894, Note_on_c, 9, 42, 0
1, 110895, Note_on_c, 9, 38, 88
1, 110895, Note_on_c, 9, 40, 99
1, 111119, Note_on_c, 9, 38, 0
1, 111119, Note_on_c, 9, 40, 0
1, 111120, Note_on_c, 9, 46, 63
1, 111240, Note_on_c, 9, 35, 101
1, 111359, Note_on_c, 9, 46, 0
1, 111359, Note_on_c, 9, 35, 0
1, 111360, Note_on_c, 9, 42, 62
1, 111360, Note_on_c, 9, 35, 113
1, 111599, Note_on_c, 9, 42, 0
1, 111600, Note_on_c, 9, 46, 65
1, 111824, Note_on_c, 9, 46, 0
1, 111825, Note_on_c, 9, 42, 60
1, 111839, Note_on_c, 9, 35, 0
1, 111840, Note_on_c, 9, 38, 92
1, 111840, Note_on_c, 9, 40, 103
1, 112064, Note_on_c, 9, 42, 0
1, 112064, Note_on_c, 9, 38, 0
1, 112064, Note_on_c, 9, 40, 0
1, 112065, Note_on_c, 9, 46, 63
1, 112079, Note_on_c, 9, 46, 0
1, 112200, Note_on_c, 9, 35, 105
1, 112319, Note_on_c, 9, 35, 0
1, 112320, Note_on_c, 9, 42, 63
1, 112320, Note_on_c, 9, 35, 107
1, 112559, Note_on_c, 9, 42, 0
1, 112560, Note_on_c, 9, 46, 61
1, 112679, Note_on_c, 9, 35, 0
1, 112680, Note_on_c, 9, 35, 106
1, 112784, Note_on_c, 9, 46, 0
1, 112785, Note_on_c, 9, 38, 100
1, 112785, Note_on_c, 9, 40, 111
1, 112799, Note_on_c, 9, 35, 0
1, 112800, Note_on_c, 9, 42, 71
1, 113039, Note_on_c, 9, 38, 0
1, 113039, Note_on_c, 9, 40, 0
1, 113039, Note_on_c, 9, 42, 0
1, 113040, Note_on_c, 9, 46, 64
1, 113160, Note_on_c, 9, 35, 104
1, 113279, Note_on_c, 9, 46, 0
1, 113279, Note_on_c, 9, 35, 0
1, 113280, Note_on_c, 9, 42, 65
1, 113280, Note_on_c, 9, 35, 113
1, 113504, Note_on_c, 9, 42, 0
1, 113505, Note_on_c, 9, 46, 60
1, 113744, Note_on_c, 9, 46, 0
1, 113745, Note_on_c, 9, 42, 64
1, 113759, Note_on_c, 9, 35, 0
1, 113760, Note_on_c, 9, 38, 96
1, 113760, Note_on_c, 9, 40, 107
1, 113999, Note_on_c, 9, 42, 0
1, 113999, Note_on_c, 9, 38, 0
1, 113999, Note_on_c, 9, 40, 0
1, 114000, Note_on_c, 9, 46, 61
1, 114120, Note_on_c, 9, 35, 103
1, 114239, Note_on_c, 9, 46, 0
1, 114239, Note_on_c, 9, 35, 0
1, 114240, Note_on_c, 9, 35, 110
1, 114255, Note_on_c, 9, 42, 60
1, 114464, Note_on_c, 9, 42, 0
1, 114465, Note_on_c, 9, 46, 63
1, 114479, Note_on_c, 9, 46, 0
1, 114719, Note_on_c, 9, 35, 0
1, 114720, Note_on_c, 9, 38, 92
1, 114720, Note_on_c, 9, 40, 103
1, 114720, Note_on_c, 9, 42, 60
1, 114944, Note_on_c, 9, 38, 0
1, 114944, Note_on_c, 9, 40, 0
1, 114944, Note_on_c, 9, 42, 0
1, 114945, Note_on_c, 9, 46, 65
1, 115080, Note_on_c, 9, 35, 105
1, 115184, Note_on_c, 9, 46, 0
1, 115185, Note_on_c, 9, 42, 63
1, 115199, Note_on_c, 9, 35, 0
1, 115199, Note_on_c, 9, 42, 0
1, 115200, Note_on_c, 9, 35, 108
1, 115440, Note_on_c, 9, 46, 60
1, 115679, Note_on_c, 9, 35, 0
1, 115679, Note_on_c, 9, 46, 0
1, 115680, Note_on_c, 9, 38, 99
1, 115680, Note_on_c, 9, 40, 110
1, 115680, Note_on_c, 9, 42, 61
1, 115904, Note_on_c, 9, 38, 0
1, 115904, Note_on_c, 9, 40, 0
1, 115904, Note_on_c, 9, 42, 0
1, 115905, Note_on_c, 9, 46, 59
1, 116040, Note_on_c, 9, 35, 103
1, 116144, Note_on_c, 9, 46, 0
1, 116145, Note_on_c, 9, 42, 60
1, 116159, Note_on_c, 9, 35, 0
1, 116159, Note_on_c, 9, 42, 0
1, 116160, Note_on_c, 9, 35, 107
1, 116385, Note_on_c, 9, 46, 71
1, 116624, Note_on_c, 9, 46, 0
1, 116625, Note_on_c, 9, 42, 59
1, 116639, Note_on_c, 9, 35, 0
1, 116640, Note_on_c, 9, 38, 92
1, 116640, Note_on_c, 9, 40, 103
1, 116864, Note_on_c, 9, 42, 0
1, 116864, Note_on_c, 9, 38, 0
1, 116864, Note_on_c, 9, 40, 0
1, 116865, Note_on_c, 9, 46, 64
1, 116879, Note_on_c, 9, 46, 0
1, 117120, Note_on_c, 9, 42, 62
1, 117120, Note_on_c, 9, 35, 113
1, 117344, Note_on_c, 9, 42, 0
1, 117345, Note_on_c, 9, 46, 61
1, 117584, Note_on_c, 9, 46, 0
1, 117585, Note_on_c, 9, 42, 60
1, 117599, Note_on_c, 9, 35, 0
1, 117599, Note_on_c, 9, 42, 0
1, 117600, Note_on_c, 9, 38, 92
1, 117600, Note_on_c, 9, 40, 103
1, 117824, Note_on_c, 9, 38, 0
1, 117824, Note_on_c, 9, 40, 0
1, 117825, Note_on_c, 9, 46, 62
1, 117975, Note_on_c, 9, 35, 108
1, 118019, Note_on_c, 9, 35, 0
1, 118064, Note_on_c, 9, 46, 0
1, 118065, Note_on_c, 9, 42, 60
1, 118079, Note_on_c, 9, 42, 0
1, 118095, Note_on_c, 9, 35, 105
1, 118305, Note_on_c, 9, 46, 60
1, 118319, Note_on_c, 9, 35, 0
1, 118319, Note_on_c, 9, 46, 0
1, 118440, Note_on_c, 9, 35, 108
1, 118559, Note_on_c, 9, 35, 0
1, 118560, Note_on_c, 9, 38, 92
1, 118560, Note_on_c, 9, 40, 103
1, 118560, Note_on_c, 9, 42, 68
1, 118784, Note_on_c, 9, 38, 0
1, 118784, Note_on_c, 9, 40, 0
1, 118784, Note_on_c, 9, 42, 0
1, 118785, Note_on_c, 9, 46, 63
1, 118799, Note_on_c, 9, 46, 0
1, 118920, Note_on_c, 9, 35, 102
1, 119039, Note_on_c, 9, 35, 0
1, 119040, Note_on_c, 9, 42, 64
1, 119040, Note_on_c, 9, 35, 112
1, 119264, Note_on_c, 9, 42, 0
1, 119265, Note_on_c, 9, 46, 63
1, 119279, Note_on_c, 9, 46, 0
1, 119519, Note_on_c, 9, 35, 0
1, 119520, Note_on_c, 9, 38, 96
1, 119520, Note_on_c, 9, 40, 107
1, 119520, Note_on_c, 9, 42, 64
1, 119744, Note_on_c, 9, 38, 0
1, 119744, Note_on_c, 9, 40, 0
1, 119744, Note_on_c, 9, 42, 0
1, 119745, Note_on_c, 9, 46, 61
1, 119880, Note_on_c, 9, 35, 101
1, 119984, Note_on_c, 9, 46, 0
1, 119985, Note_on_c, 9, 42, 65
1, 119999, Note_on_c, 9, 35, 0
1, 119999, Note_on_c, 9, 42, 0
1, 120000, Note_on_c, 9, 35, 111
1, 120225, Note_on_c, 9, 46, 68
1, 120359, Note_on_c, 9, 35, 0
1, 120360, Note_on_c, 9, 35, 105
1, 120464, Note_on_c, 9, 46, 0
1, 120465, Note_on_c, 9, 42, 64
1, 120479, Note_on_c, 9, 35, 0
1, 120479, Note_on_c, 9, 42, 0
1, 120480, Note_on_c, 9, 38, 93
1, 120480, Note_on_c, 9, 40, 104
1, 120704, Note_on_c, 9, 38, 0
1, 120704, Note_on_c, 9, 40, 0
1, 120705, Note_on_c, 9, 46, 61
1, 120840, Note_on_c, 9, 35, 103
1, 120929, Note_on_c, 9, 35, 0
1, 120944, Note_on_c, 9, 46, 0
1, 120945, Note_on_c, 9, 42, 64
1, 120945, Note_on_c, 9, 35, 112
1, 120959, Note_on_c, 9, 42, 0
1, 120959, Note_on_c, 9, 35, 0
1, 121185, Note_on_c, 9, 46, 62
1, 121424, Note_on_c, 9, 46, 0
1, 121425, Note_on_c, 9, 42, 65
1, 121439, Note_on_c, 9, 42, 0
1, 121440, Note_on_c, 9, 38, 92
1, 121440, Note_on_c, 9, 40, 103
1, 121664, Note_on_c, 9, 38, 0
1, 121664, Note_on_c, 9, 40, 0
1, 121665, Note_on_c, 9, 46, 60
1, 121800, Note_on_c, 9, 35, 102
1, 121904, Note_on_c, 9, 46, 0
1, 121905, Note_on_c, 9, 42, 60
1, 121919, Note_on_c, 9, 35, 0
1, 121919, Note_on_c, 9, 42, 0
1, 121920, Note_on_c, 9, 35, 112
1, 122145, Note_on_c, 9, 46, 62
1, 122159, Note_on_c, 9, 46, 0
1, 122399, Note_on_c, 9, 35, 0
1, 122400, Note_on_c, 9, 38, 92
1, 122400, Note_on_c, 9, 40, 103
1, 122400, Note_on_c, 9, 42, 62
1, 122624, Note_on_c, 9, 38, 0
1, 122624, Note_on_c, 9, 40, 0
1, 122624, Note_on_c, 9, 42, 0
1, 122625, Note_on_c, 9, 46, 68
1, 122775, Note_on_c, 9, 35, 104
1, 122819, Note_on_c, 9, 35, 0
1, 122864, Note_on_c, 9, 46, 0
1, 122865, Note_on_c, 9, 42, 63
1, 122879, Note_on_c, 9, 42, 0
1, 122880, Note_on_c, 9, 35, 106
1, 123105, Note_on_c, 9, 46, 64
1, 123344, Note_on_c, 9, 46, 0
1, 123345, Note_on_c, 9, 42, 60
1, 123359, Note_on_c, 9, 35, 0
1, 123359, Note_on_c, 9, 42, 0
1, 123360, Note_on_c, 9, 38, 92
1, 123360, Note_on_c, 9, 40, 103
1, 123584, Note_on_c, 9, 38, 0
1, 123584, Note_on_c, 9, 40, 0
1, 123585, Note_on_c, 9, 46, 61
1, 123599, Note_on_c, 9, 46, 0
1, 123720, Note_on_c, 9, 35, 102
1, 123839, Note_on_c, 9, 35, 0
1, 123840, Note_on_c, 9, 42, 63
1, 123840, Note_on_c, 9, 35, 108
1, 124064, Note_on_c, 9, 42, 0
1, 124065, Note_on_c, 9, 46, 63
1, 124079, Note_on_c, 9, 46, 0
1, 124319, Note_on_c, 9, 35, 0
1, 124320, Note_on_c, 9, 38, 96
1, 124320, Note_on_c, 9, 40, 107
1, 124320, Note_on_c, 9, 42, 64
1, 124544, Note_on_c, 9, 38, 0
1, 124544, Note_on_c, 9, 40, 0
1, 124544, Note_on_c, 9, 42, 0
1, 124545, Note_on_c, 9, 46, 63
1, 124784, Note_on_c, 9, 46, 0
1, 124785, Note_on_c, 9, 42, 67
1, 124799, Note_on_c, 9, 42, 0
1, 124800, Note_on_c, 9, 35, 111
1, 125025, Note_on_c, 9, 46, 60
1, 125264, Note_on_c, 9, 46, 0
1, 125265, Note_on_c, 9, 42, 65
1, 125279, Note_on_c, 9, 35, 0
1, 125279, Note_on_c, 9, 42, 0
1, 125280, Note_on_c, 9, 38, 92
1, 125280, Note_on_c, 9, 40, 103
1, 125504, Note_on_c, 9, 38, 0
1, 125504, Note_on_c, 9, 40, 0
1, 125505, Note_on_c, 9, 46, 63
1, 125519, Note_on_c, 9, 46, 0
1, 125640, Note_on_c, 9, 35, 101
1, 125759, Note_on_c, 9, 35, 0
1, 125760, Note_on_c, 9, 42, 63
1, 125760, Note_on_c, 9, 35, 108
1, 125984, Note_on_c, 9, 42, 0
1, 125985, Note_on_c, 9, 46, 61
1, 125999, Note_on_c, 9, 46, 0
1, 126239, Note_on_c, 9, 35, 0
1, 126240, Note_on_c, 9, 38, 92
1, 126240, Note_on_c, 9, 40, 103
1, 126240, Note_on_c, 9, 42, 59
1, 126479, Note_on_c, 9, 38, 0
1, 126479, Note_on_c, 9, 40, 0
1, 126479, Note_on_c, 9, 42, 0
1, 126480, Note_on_c, 9, 46, 63
1, 126600, Note_on_c, 9, 35, 103
1, 126719, Note_on_c, 9, 46, 0
1, 126719, Note_on_c, 9, 35, 0
1, 126720, Note_on_c, 9, 42, 64
1, 126720, Note_on_c, 9, 35, 113
1, 126944, Note_on_c, 9, 42, 0
1, 126945, Note_on_c, 9, 46, 73
1, 126959, Note_on_c, 9, 46, 0
1, 127079, Note_on_c, 9, 35, 0
1, 127080, Note_on_c, 9, 35, 103
1, 127199, Note_on_c, 9, 35, 0
1, 127200, Note_on_c, 9, 42, 59
1, 127214, Note_on_c, 9, 42, 0
1, 127215, Note_on_c, 9, 38, 91
1, 127215, Note_on_c, 9, 40, 102
1, 127424, Note_on_c, 9, 38, 0
1, 127424, Note_on_c, 9, 40, 0
1, 127425, Note_on_c, 9, 46, 67
1, 127440, Note_on_c, 9, 38, 78
1, 127440, Note_on_c, 9, 40, 89
1, 127440, Note_on_c, 9, 35, 112
1, 127679, Note_on_c, 9, 46, 0
1, 127679, Note_on_c, 9, 38, 0
1, 127679, Note_on_c, 9, 40, 0
1, 127679, Note_on_c, 9, 35, 0
1, 127680, Note_on_c, 9, 42, 74
1, 127680, Note_on_c, 9, 35, 112
1, 127694, Note_on_c, 9, 42, 0
1, 127695, Note_on_c, 9, 38, 99
1, 127695, Note_on_c, 9, 40, 110
1, 128099, Note_on_c, 9, 38, 0
1, 128099, Note_on_c, 9, 40, 0
1, 128130, Note_on_c, 9, 38, 73
1, 128130, Note_on_c, 9, 40, 84
1, 128159, Note_on_c, 9, 35, 0
1, 128159, Note_on_c, 9, 38, 0
1, 128159, Note_on_c, 9, 40, 0
1, 128160, Note_on_c, 9, 38, 125
1, 128160, Note_on_c, 9, 40, 125
1, 128609, Note_on_c, 9, 38, 0
1, 128609, Note_on_c, 9, 40, 0
1, 128625, Note_on_c, 9, 42, 64
1, 128639, Note_on_c, 9, 42, 0
1, 128640, Note_on_c, 9, 35, 112
1, 128865, Note_on_c, 9, 46, 62
1, 129104, Note_on_c, 9, 46, 0
1, 129105, Note_on_c, 9, 42, 65
1, 129119, Note_on_c, 9, 35, 0
1, 129119, Note_on_c, 9, 42, 0
1, 129120, Note_on_c, 9, 38, 92
1, 129120, Note_on_c, 9, 40, 103
1, 129344, Note_on_c, 9, 38, 0
1, 129344, Note_on_c, 9, 40, 0
1, 129345, Note_on_c, 9, 46, 60
1, 129480, Note_on_c, 9, 35, 102
1, 129584, Note_on_c, 9, 46, 0
1, 129585, Note_on_c, 9, 42, 60
1, 129599, Note_on_c, 9, 35, 0
1, 129599, Note_on_c, 9, 42, 0
1, 129600, Note_on_c, 9, 35, 112
1, 129825, Note_on_c, 9, 46, 62
1, 129839, Note_on_c, 9, 46, 0
1, 130079, Note_on_c, 9, 35, 0
1, 130080, Note_on_c, 9, 38, 92
1, 130080, Note_on_c, 9, 40, 103
1, 130080, Note_on_c, 9, 42, 62
1, 130304, Note_on_c, 9, 38, 0
1, 130304, Note_on_c, 9, 40, 0
1, 130304, Note_on_c, 9, 42, 0
1, 130305, Note_on_c, 9, 46, 68
1, 130455, Note_on_c, 9, 35, 104
1, 130499, Note_on_c, 9, 35, 0
1, 130544, Note_on_c, 9, 46, 0
1, 130545, Note_on_c, 9, 42, 63
1, 130559, Note_on_c, 9, 42, 0
1, 130575, Note_on_c, 9, 35, 106
1, 130785, Note_on_c, 9, 46, 64
1, 130799, Note_on_c, 9, 35, 0
1, 131024, Note_on_c, 9, 46, 0
1, 131025, Note_on_c, 9, 42, 60
1, 131039, Note_on_c, 9, 42, 0
1, 131040, Note_on_c, 9, 38, 92
1, 131040, Note_on_c, 9, 40, 103
1, 131264, Note_on_c, 9, 38, 0
1, 131264, Note_on_c, 9, 40, 0
1, 131265, Note_on_c, 9, 46, 61
1, 131279, Note_on_c, 9, 46, 0
1, 131400, Note_on_c, 9, 35, 102
1, 131519, Note_on_c, 9, 35, 0
1, 131520, Note_on_c, 9, 42, 63
1, 131520, Note_on_c, 9, 35, 108
1, 131744, Note_on_c, 9, 42, 0
1, 131745, Note_on_c, 9, 46, 63
1, 131759, Note_on_c, 9, 46, 0
1, 131999, Note_on_c, 9, 35, 0
1, 132000, Note_on_c, 9, 38, 96
1, 132000, Note_on_c, 9, 40, 107
1, 132000, Note_on_c, 9, 42, 64
1, 132224, Note_on_c, 9, 38, 0
1, 132224, Note_on_c, 9, 40, 0
1, 132224, Note_on_c, 9, 42, 0
1, 132225, Note_on_c, 9, 46, 63
1, 132464, Note_on_c, 9, 46, 0
1, 132465, Note_on_c, 9, 42, 67
1, 132479, Note_on_c, 9, 42, 0
1, 132480, Note_on_c, 9, 35, 111
1, 132705, Note_on_c, 9, 46, 60
1, 132944, Note_on_c, 9, 46, 0
1, 132945, Note_on_c, 9, 42, 65
1, 132959, Note_on_c, 9, 35, 0
1, 132959, Note_on_c, 9, 42, 0
1, 132960, Note_on_c, 9, 38, 92
1, 132960, Note_on_c, 9, 40, 103
1, 133184, Note_on_c, 9, 38, 0
1, 133184, Note_on_c, 9, 40, 0
1, 133185, Note_on_c, 9, 46, 63
1, 133199, Note_on_c, 9, 46, 0
1, 133320, Note_on_c, 9, 35, 101
1, 133439, Note_on_c, 9, 35, 0
1, 133440, Note_on_c, 9, 42, 63
1, 133440, Note_on_c, 9, 35, 108
1, 133664, Note_on_c, 9, 42, 0
1, 133665, Note_on_c, 9, 46, 61
1, 133679, Note_on_c, 9, 46, 0
1, 133919, Note_on_c, 9, 35, 0
1, 133920, Note_on_c, 9, 38, 92
1, 133920, Note_on_c, 9, 40, 103
1, 133920, Note_on_c, 9, 42, 59
1, 134159, Note_on_c, 9, 38, 0
1, 134159, Note_on_c, 9, 40, 0
1, 134159, Note_on_c, 9, 42, 0
1, 134160, Note_on_c, 9, 46, 63
1, 134280, Note_on_c, 9, 35, 103
1, 134399, Note_on_c, 9, 46, 0
1, 134399, Note_on_c, 9, 35, 0
1, 134400, Note_on_c, 9, 42, 64
1, 134400, Note_on_c, 9, 35, 113
1, 134624, Note_on_c, 9, 42, 0
1, 134625, Note_on_c, 9, 46, 73
1, 134639, Note_on_c, 9, 46, 0
1, 134759, Note_on_c, 9, 35, 0
1, 134760, Note_on_c, 9, 35, 103
1, 134879, Note_on_c, 9, 35, 0
1, 134880, Note_on_c, 9, 42, 59
1, 134894, Note_on_c, 9, 42, 0
1, 134895, Note_on_c, 9, 38, 91
1, 134895, Note_on_c, 9, 40, 102
1, 135104, Note_on_c, 9, 38, 0
1, 135104, Note_on_c, 9, 40, 0
1, 135105, Note_on_c, 9, 46, 67
1, 135120, Note_on_c, 9, 38, 88
1, 135120, Note_on_c, 9, 40, 99
1, 135120, Note_on_c, 9, 35, 112
1, 135359, Note_on_c, 9, 46, 0
1, 135359, Note_on_c, 9, 38, 0
1, 135359, Note_on_c, 9, 40, 0
1, 135359, Note_on_c, 9, 35, 0
1, 135360, Note_on_c, 9, 42, 74
1, 135360, Note_on_c, 9, 35, 112
1, 135374, Note_on_c, 9, 42, 0
1, 135375, Note_on_c, 9, 38, 99
1, 135375, Note_on_c, 9, 40, 110
1, 135599, Note_on_c, 9, 38, 0
1, 135599, Note_on_c, 9, 40, 0
1, 135839, Note_on_c, 9, 35, 0
1, 136320, Note_on_c, 9, 42, 79
1, 136799, Note_on_c, 9, 42, 0
1, 136800, Note_on_c, 9, 42, 72
1, 137279, Note_on_c, 9, 42, 0
1, 137280, Note_on_c, 9, 42, 77
1, 137759, Note_on_c, 9, 42, 0
1, 137760, Note_on_c, 9, 42, 72
1, 138239, Note_on_c, 9, 42, 0
1, 138255, Note_on_c, 9, 42, 73
1, 138479, Note_on_c, 9, 42, 0
1, 138720, Note_on_c, 9, 42, 83
1, 139199, Note_on_c, 9, 42, 0
1, 139200, Note_on_c, 9, 42, 87
1, 139679, Note_on_c, 9, 42, 0
1, 139680, Note_on_c, 9, 42, 81
1, 140159, Note_on_c, 9, 42, 0
1, 140160, Note_on_c, 9, 42, 77
1, 140639, Note_on_c, 9, 42, 0
1, 140640, Note_on_c, 9, 42, 83
1, 141119, Note_on_c, 9, 42, 0
1, 141120, Note_on_c, 9, 42, 76
1, 141599, Note_on_c, 9, 42, 0
1, 141600, Note_on_c, 9, 42, 77
1, 142079, Note_on_c, 9, 42, 0
1, 142080, Note_on_c, 9, 42, 83
1, 142559, Note_on_c, 9, 42, 0
1, 142560, Note_on_c, 9, 42, 83
1, 143039, Note_on_c, 9, 42, 0
1, 143040, Note_on_c, 9, 42, 87
1, 143519, Note_on_c, 9, 42, 0
1, 143520, Note_on_c, 9, 42, 86
1, 143999, Note_on_c, 9, 42, 0
1, 144000, Note_on_c, 9, 42, 79
1, 144479, Note_on_c, 9, 42, 0
1, 144480, Note_on_c, 9, 42, 72
1, 144959, Note_on_c, 9, 42, 0
1, 144960, Note_on_c, 9, 42, 77
1, 145439, Note_on_c, 9, 42, 0
1, 145440, Note_on_c, 9, 42, 72
1, 145919, Note_on_c, 9, 42, 0
1, 145920, Note_on_c, 9, 42, 73
1, 146399, Note_on_c, 9, 42, 0
1, 146400, Note_on_c, 9, 42, 83
1, 146879, Note_on_c, 9, 42, 0
1, 146880, Note_on_c, 9, 42, 87
1, 147359, Note_on_c, 9, 42, 0
1, 147360, Note_on_c, 9, 42, 81
1, 147839, Note_on_c, 9, 42, 0
1, 147840, Note_on_c, 9, 42, 77
1, 148319, Note_on_c, 9, 42, 0
1, 148320, Note_on_c, 9, 42, 83
1, 148799, Note_on_c, 9, 42, 0
1, 148800, Note_on_c, 9, 42, 76
1, 149279, Note_on_c, 9, 42, 0
1, 149280, Note_on_c, 9, 42, 77
1, 149759, Note_on_c, 9, 42, 0
1, 149760, Note_on_c, 9, 42, 83
1, 150239, Note_on_c, 9, 42, 0
1, 150240, Note_on_c, 9, 42, 83
1, 150719, Note_on_c, 9, 42, 0
1, 150720, Note_on_c, 9, 42, 87
1, 151199, Note_on_c, 9, 42, 0
1, 151200, Note_on_c, 9, 42, 86
1, 151679, Note_on_c, 9, 42, 0
1, 151680, Note_on_c, 9, 42, 79
1, 152159, Note_on_c, 9, 42, 0
1, 152160, Note_on_c, 9, 42, 72
1, 152639, Note_on_c, 9, 42, 0
1, 152640, Note_on_c, 9, 42, 77
1, 153119, Note_on_c, 9, 42, 0
1, 153120, Note_on_c, 9, 42, 72
1, 153599, Note_on_c, 9, 42, 0
1, 153600, Note_on_c, 9, 42, 73
1, 153959, Note_on_c, 9, 42, 0
1, 153960, Note_on_c, 9, 42, 65
1, 154079, Note_on_c, 9, 42, 0
1, 154200, Note_on_c, 9, 42, 62
1, 154319, Note_on_c, 9, 42, 0
1, 154335, Note_on_c, 9, 42, 79
1, 154559, Note_on_c, 9, 42, 0
1, 154560, End_track
0, 0, End_of_file
