0, 0, Header, 1, 1, 480
1, 0, Start_track
1, 0, Time_signature, 4, 2, 24, 8
1, 0, Key_signature, 0, "major"
1, 0, Tempo, 500000
1, 0, Control_c, 9, 121, 0
1, 0, Program_c, 9, 0
1, 0, Control_c, 9, 7, 100
1, 0, Control_c, 9, 10, 64
1, 0, Control_c, 9, 91, 0
1, 0, Control_c, 9, 93, 0
1, 0, MIDI_port, 0
1, 4320, Note_on_c, 9, 42, 95
1, 4799, Note_on_c, 9, 42, 0
1, 5280, Note_on_c, 9, 42, 101
1, 5759, Note_on_c, 9, 42, 0
1, 6240, Note_on_c, 9, 42, 95
1, 6719, Note_on_c, 9, 42, 0
1, 7200, Note_on_c, 9, 42, 101
1, 7679, Note_on_c, 9, 42, 0
1, 8160, Note_on_c, 9, 42, 95
1, 8639, Note_on_c, 9, 42, 0
1, 9120, Note_on_c, 9, 42, 101
1, 9599, Note_on_c, 9, 42, 0
1, 10080, Note_on_c, 9, 42, 95
1, 10559, Note_on_c, 9, 42, 0
1, 11040, Note_on_c, 9, 42, 101
1, 11519, Note_on_c, 9, 42, 0
1, 12000, Note_on_c, 9, 42, 95
1, 12479, Note_on_c, 9, 42, 0
1, 12960, Note_on_c, 9, 42, 101
1, 13439, Note_on_c, 9, 42, 0
1, 13920, Note_on_c, 9, 42, 95
1, 14399, Note_on_c, 9, 42, 0
1, 14880, Note_on_c, 9, 42, 101
1, 15359, Note_on_c, 9, 42, 0
1, 15840, Note_on_c, 9, 42, 95
1, 16319, Note_on_c, 9, 42, 0
1, 16800, Note_on_c, 9, 42, 101
1, 17279, Note_on_c, 9, 42, 0
1, 17760, Note_on_c, 9, 42, 95
1, 18239, Note_on_c, 9, 42, 0
1, 18720, Note_on_c, 9, 42, 101
1, 19199, Note_on_c, 9, 42, 0
1, 19680, Note_on_c, 9, 42, 95
1, 20159, Note_on_c, 9, 42, 0
1, 20640, Note_on_c, 9, 42, 101
1, 21119, Note_on_c, 9, 42, 0
1, 21600, Note_on_c, 9, 42, 95
1, 22079, Note_on_c, 9, 42, 0
1, 22560, Note_on_c, 9, 42, 101
1, 23039, Note_on_c, 9, 42, 0
1, 23520, Note_on_c, 9, 42, 95
1, 23999, Note_on_c, 9, 42, 0
1, 24480, Note_on_c, 9, 42, 101
1, 24959, Note_on_c, 9, 42, 0
1, 25440, Note_on_c, 9, 42, 95
1, 25919, Note_on_c, 9, 42, 0
1, 26400, Note_on_c, 9, 42, 101
1, 26879, Note_on_c, 9, 42, 0
1, 26880, Note_on_c, 9, 59, 83
1, 26880, Note_on_c, 9, 36, 80
1, 27119, Note_on_c, 9, 59, 0
1, 27120, Note_on_c, 9, 59, 70
1, 27239, Note_on_c, 9, 59, 0
1, 27240, Note_on_c, 9, 51, 48
1, 27359, Note_on_c, 9, 36, 0
1, 27359, Note_on_c, 9, 51, 0
1, 27360, Note_on_c, 9, 42, 95
1, 27374, Note_on_c, 9, 42, 0
1, 27375, Note_on_c, 9, 59, 70
1, 27419, Note_on_c, 9, 59, 0
1, 27480, Note_on_c, 9, 51, 61
1, 27599, Note_on_c, 9, 51, 0
1, 27600, Note_on_c, 9, 59, 77
1, 27839, Note_on_c, 9, 59, 0
1, 28320, Note_on_c, 9, 42, 101
1, 28680, Note_on_c, 9, 36, 34
1, 28799, Note_on_c, 9, 42, 0
1, 28799, Note_on_c, 9, 36, 0
1, 28800, Note_on_c, 9, 59, 80
1, 28800, Note_on_c, 9, 36, 80
1, 29039, Note_on_c, 9, 59, 0
1, 29040, Note_on_c, 9, 59, 73
1, 29159, Note_on_c, 9, 59, 0
1, 29160, Note_on_c, 9, 51, 51
1, 29279, Note_on_c, 9, 36, 0
1, 29279, Note_on_c, 9, 51, 0
1, 29280, Note_on_c, 9, 42, 95
1, 29294, Note_on_c, 9, 42, 0
1, 29295, Note_on_c, 9, 59, 70
1, 29339, Note_on_c, 9, 59, 0
1, 29400, Note_on_c, 9, 51, 65
1, 29519, Note_on_c, 9, 51, 0
1, 29520, Note_on_c, 9, 59, 80
1, 29759, Note_on_c, 9, 59, 0
1, 30240, Note_on_c, 9, 42, 101
1, 30600, Note_on_c, 9, 36, 34
1, 30719, Note_on_c, 9, 42, 0
1, 30719, Note_on_c, 9, 36, 0
1, 30720, Note_on_c, 9, 59, 88
1, 30720, Note_on_c, 9, 36, 81
1, 30959, Note_on_c, 9, 59, 0
1, 30960, Note_on_c, 9, 59, 77
1, 31079, Note_on_c, 9, 59, 0
1, 31080, Note_on_c, 9, 51, 64
1, 31199, Note_on_c, 9, 36, 0
1, 31199, Note_on_c, 9, 51, 0
1, 31200, Note_on_c, 9, 42, 95
1, 31214, Note_on_c, 9, 42, 0
1, 31215, Note_on_c, 9, 59, 83
1, 31259, Note_on_c, 9, 59, 0
1, 31320, Note_on_c, 9, 51, 72
1, 31439, Note_on_c, 9, 51, 0
1, 31440, Note_on_c, 9, 59, 84
1, 31679, Note_on_c, 9, 59, 0
1, 32160, Note_on_c, 9, 42, 101
1, 32520, Note_on_c, 9, 36, 34
1, 32639, Note_on_c, 9, 42, 0
1, 32639, Note_on_c, 9, 36, 0
1, 32640, Note_on_c, 9, 42, 78
1, 32640, Note_on_c, 9, 36, 80
1, 33119, Note_on_c, 9, 42, 0
1, 33119, Note_on_c, 9, 36, 0
1, 33630, Note_on_c, 9, 46, 29
1, 33689, Note_on_c, 9, 46, 0
1, 33690, Note_on_c, 9, 46, 32
1, 33719, Note_on_c, 9, 46, 0
1, 33750, Note_on_c, 9, 46, 37
1, 33779, Note_on_c, 9, 46, 0
1, 33795, Note_on_c, 9, 46, 39
1, 33839, Note_on_c, 9, 46, 0
1, 33855, Note_on_c, 9, 46, 37
1, 33899, Note_on_c, 9, 46, 0
1, 33900, Note_on_c, 9, 46, 38
1, 33944, Note_on_c, 9, 46, 0
1, 33945, Note_on_c, 9, 51, 36
1, 33959, Note_on_c, 9, 51, 0
1, 33960, Note_on_c, 9, 46, 39
1, 33989, Note_on_c, 9, 46, 0
1, 33990, Note_on_c, 9, 51, 46
1, 34005, Note_on_c, 9, 46, 41
1, 34019, Note_on_c, 9, 46, 0
1, 34049, Note_on_c, 9, 51, 0
1, 34050, Note_on_c, 9, 51, 65
1, 34064, Note_on_c, 9, 51, 0
1, 34065, Note_on_c, 9, 46, 45
1, 34079, Note_on_c, 9, 46, 0
1, 34080, Note_on_c, 9, 59, 96
1, 34109, Note_on_c, 9, 59, 0
1, 34110, Note_on_c, 9, 46, 48
1, 34169, Note_on_c, 9, 46, 0
1, 34170, Note_on_c, 9, 46, 52
1, 34199, Note_on_c, 9, 46, 0
1, 34230, Note_on_c, 9, 46, 57
1, 34259, Note_on_c, 9, 46, 0
1, 34275, Note_on_c, 9, 46, 60
1, 34319, Note_on_c, 9, 46, 0
1, 34335, Note_on_c, 9, 46, 66
1, 34379, Note_on_c, 9, 46, 0
1, 34380, Note_on_c, 9, 46, 77
1, 34439, Note_on_c, 9, 46, 0
1, 34440, Note_on_c, 9, 46, 86
1, 34487, Note_on_c, 9, 46, 0
1, 34488, Note_on_c, 9, 46, 93
1, 34535, Note_on_c, 9, 46, 0
1, 34536, Note_on_c, 9, 46, 102
1, 34559, Note_on_c, 9, 46, 0
1, 34580, Note_on_c, 9, 46, 106
1, 34619, Note_on_c, 9, 46, 0
1, 34800, Note_on_c, 9, 48, 125
1, 35039, Note_on_c, 9, 48, 0
1, 35040, Note_on_c, 9, 42, 71
1, 35159, Note_on_c, 9, 42, 0
1, 35160, Note_on_c, 9, 45, 127
1, 35519, Note_on_c, 9, 45, 0
1, 35520, Note_on_c, 9, 45, 120
1, 35759, Note_on_c, 9, 45, 0
1, 35760, Note_on_c, 9, 42, 70
1, 35879, Note_on_c, 9, 42, 0
1, 35880, Note_on_c, 9, 41, 71
1, 35999, Note_on_c, 9, 41, 0
1, 36000, Note_on_c, 9, 41, 127
1, 36479, Note_on_c, 9, 41, 0
1, 36480, Note_on_c, 9, 49, 91
1, 36480, Note_on_c, 9, 36, 103
1, 36959, Note_on_c, 9, 49, 0
1, 36959, Note_on_c, 9, 36, 0
1, 36960, Note_on_c, 9, 51, 113
1, 37200, Note_on_c, 9, 36, 83
1, 37439, Note_on_c, 9, 51, 0
1, 37439, Note_on_c, 9, 36, 0
1, 37440, Note_on_c, 9, 51, 110
1, 37919, Note_on_c, 9, 51, 0
1, 37920, Note_on_c, 9, 38, 114
1, 37934, Note_on_c, 9, 38, 0
1, 37935, Note_on_c, 9, 51, 116
1, 38159, Note_on_c, 9, 51, 0
1, 38280, Note_on_c, 9, 36, 47
1, 38399, Note_on_c, 9, 36, 0
1, 38400, Note_on_c, 9, 51, 113
1, 38400, Note_on_c, 9, 36, 102
1, 38879, Note_on_c, 9, 51, 0
1, 38879, Note_on_c, 9, 36, 0
1, 38880, Note_on_c, 9, 51, 113
1, 39120, Note_on_c, 9, 36, 85
1, 39359, Note_on_c, 9, 51, 0
1, 39359, Note_on_c, 9, 36, 0
1, 39360, Note_on_c, 9, 51, 110
1, 39839, Note_on_c, 9, 51, 0
1, 39840, Note_on_c, 9, 38, 108
1, 39854, Note_on_c, 9, 38, 0
1, 39855, Note_on_c, 9, 51, 113
1, 40079, Note_on_c, 9, 51, 0
1, 40200, Note_on_c, 9, 38, 49
1, 40239, Note_on_c, 9, 38, 0
1, 40240, Note_on_c, 9, 38, 37
1, 40259, Note_on_c, 9, 38, 0
1, 40320, Note_on_c, 9, 51, 116
1, 40320, Note_on_c, 9, 36, 102
1, 40799, Note_on_c, 9, 51, 0
1, 40799, Note_on_c, 9, 36, 0
1, 40800, Note_on_c, 9, 51, 116
1, 41040, Note_on_c, 9, 36, 85
1, 41279, Note_on_c, 9, 51, 0
1, 41279, Note_on_c, 9, 36, 0
1, 41280, Note_on_c, 9, 51, 110
1, 41759, Note_on_c, 9, 51, 0
1, 41760, Note_on_c, 9, 38, 114
1, 41774, Note_on_c, 9, 38, 0
1, 41775, Note_on_c, 9, 51, 110
1, 41999, Note_on_c, 9, 51, 0
1, 42120, Note_on_c, 9, 36, 62
1, 42239, Note_on_c, 9, 36, 0
1, 42240, Note_on_c, 9, 51, 110
1, 42240, Note_on_c, 9, 36, 102
1, 42719, Note_on_c, 9, 51, 0
1, 42719, Note_on_c, 9, 36, 0
1, 42720, Note_on_c, 9, 38, 114
1, 42720, Note_on_c, 9, 51, 116
1, 42960, Note_on_c, 9, 36, 78
1, 43199, Note_on_c, 9, 38, 0
1, 43199, Note_on_c, 9, 51, 0
1, 43199, Note_on_c, 9, 36, 0
1, 43200, Note_on_c, 9, 36, 102
1, 43439, Note_on_c, 9, 36, 0
1, 43440, Note_on_c, 9, 36, 72
1, 43679, Note_on_c, 9, 36, 0
1, 43680, Note_on_c, 9, 48, 116
1, 43799, Note_on_c, 9, 48, 0
1, 43800, Note_on_c, 9, 45, 88
1, 43919, Note_on_c, 9, 45, 0
1, 43920, Note_on_c, 9, 41, 100
1, 44040, Note_on_c, 9, 36, 62
1, 44159, Note_on_c, 9, 41, 0
1, 44159, Note_on_c, 9, 36, 0
1, 44160, Note_on_c, 9, 49, 98
1, 44160, Note_on_c, 9, 36, 103
1, 44639, Note_on_c, 9, 49, 0
1, 44639, Note_on_c, 9, 36, 0
1, 44640, Note_on_c, 9, 51, 104
1, 44880, Note_on_c, 9, 36, 83
1, 45119, Note_on_c, 9, 51, 0
1, 45119, Note_on_c, 9, 36, 0
1, 45120, Note_on_c, 9, 51, 110
1, 45569, Note_on_c, 9, 51, 0
1, 45585, Note_on_c, 9, 51, 110
1, 45600, Note_on_c, 9, 38, 114
1, 45960, Note_on_c, 9, 36, 47
1, 46079, Note_on_c, 9, 51, 0
1, 46079, Note_on_c, 9, 38, 0
1, 46079, Note_on_c, 9, 36, 0
1, 46080, Note_on_c, 9, 51, 107
1, 46080, Note_on_c, 9, 36, 102
1, 46559, Note_on_c, 9, 51, 0
1, 46559, Note_on_c, 9, 36, 0
1, 46560, Note_on_c, 9, 51, 107
1, 46800, Note_on_c, 9, 36, 85
1, 47039, Note_on_c, 9, 51, 0
1, 47039, Note_on_c, 9, 36, 0
1, 47040, Note_on_c, 9, 51, 107
1, 47519, Note_on_c, 9, 51, 0
1, 47520, Note_on_c, 9, 38, 114
1, 47534, Note_on_c, 9, 38, 0
1, 47535, Note_on_c, 9, 51, 116
1, 47759, Note_on_c, 9, 51, 0
1, 48000, Note_on_c, 9, 51, 109
1, 48000, Note_on_c, 9, 36, 80
1, 48479, Note_on_c, 9, 51, 0
1, 48479, Note_on_c, 9, 36, 0
1, 48480, Note_on_c, 9, 42, 93
1, 48959, Note_on_c, 9, 42, 0
1, 49440, Note_on_c, 9, 42, 84
1, 49800, Note_on_c, 9, 36, 34
1, 49919, Note_on_c, 9, 42, 0
1, 49919, Note_on_c, 9, 36, 0
1, 49920, Note_on_c, 9, 51, 107
1, 49920, Note_on_c, 9, 36, 80
1, 50399, Note_on_c, 9, 51, 0
1, 50399, Note_on_c, 9, 36, 0
1, 50400, Note_on_c, 9, 42, 75
1, 50879, Note_on_c, 9, 42, 0
1, 51360, Note_on_c, 9, 42, 85
1, 51719, Note_on_c, 9, 42, 0
1, 51720, Note_on_c, 9, 51, 44
1, 51720, Note_on_c, 9, 36, 34
1, 51779, Note_on_c, 9, 51, 0
1, 51780, Note_on_c, 9, 51, 42
1, 51839, Note_on_c, 9, 36, 0
1, 51839, Note_on_c, 9, 51, 0
1, 51840, Time_signature, 6, 2, 24, 8
1, 51840, Note_on_c, 9, 51, 89
1, 52079, Note_on_c, 9, 51, 0
1, 52080, Note_on_c, 9, 42, 75
1, 52319, Note_on_c, 9, 42, 0
1, 52320, Note_on_c, 9, 51, 81
1, 52559, Note_on_c, 9, 51, 0
1, 52560, Note_on_c, 9, 42, 72
1, 52799, Note_on_c, 9, 42, 0
1, 52800, Note_on_c, 9, 51, 82
1, 53039, Note_on_c, 9, 51, 0
1, 53040, Note_on_c, 9, 42, 79
1, 53279, Note_on_c, 9, 42, 0
1, 53280, Note_on_c, 9, 51, 91
1, 53519, Note_on_c, 9, 51, 0
1, 53520, Note_on_c, 9, 42, 81
1, 53759, Note_on_c, 9, 42, 0
1, 53760, Note_on_c, 9, 51, 84
1, 53999, Note_on_c, 9, 51, 0
1, 54000, Note_on_c, 9, 42, 74
1, 54239, Note_on_c, 9, 42, 0
1, 54240, Note_on_c, 9, 51, 81
1, 54479, Note_on_c, 9, 51, 0
1, 54480, Note_on_c, 9, 42, 89
1, 54719, Note_on_c, 9, 42, 0
1, 54720, Time_signature, 4, 2, 24, 8
1, 54720, Note_on_c, 9, 51, 113
1, 54720, Note_on_c, 9, 53, 113
1, 55199, Note_on_c, 9, 51, 0
1, 55199, Note_on_c, 9, 53, 0
1, 56160, Note_on_c, 9, 42, 80
1, 56520, Note_on_c, 9, 36, 50
1, 56639, Note_on_c, 9, 42, 0
1, 56639, Note_on_c, 9, 36, 0
1, 56640, Note_on_c, 9, 42, 84
1, 56640, Note_on_c, 9, 36, 92
1, 56759, Note_on_c, 9, 42, 0
1, 56760, Note_on_c, 9, 50, 127
1, 57119, Note_on_c, 9, 36, 0
1, 57119, Note_on_c, 9, 50, 0
1, 57120, Note_on_c, 9, 48, 112
1, 57359, Note_on_c, 9, 48, 0
1, 57360, Note_on_c, 9, 42, 84
1, 57479, Note_on_c, 9, 42, 0
1, 57480, Note_on_c, 9, 45, 68
1, 57599, Note_on_c, 9, 45, 0
1, 57600, Note_on_c, 9, 45, 113
1, 58079, Note_on_c, 9, 45, 0
1, 58080, Note_on_c, 9, 43, 116
1, 58199, Note_on_c, 9, 43, 0
1, 58200, Note_on_c, 9, 43, 101
1, 58320, Note_on_c, 9, 41, 127
1, 58439, Note_on_c, 9, 43, 0
1, 58440, Note_on_c, 9, 36, 106
1, 58559, Note_on_c, 9, 41, 0
1, 58559, Note_on_c, 9, 36, 0
1, 58560, Note_on_c, 9, 49, 91
1, 58560, Note_on_c, 9, 36, 100
1, 58799, Note_on_c, 9, 49, 0
1, 58800, Note_on_c, 9, 51, 75
1, 59024, Note_on_c, 9, 51, 0
1, 59025, Note_on_c, 9, 54, 103
1, 59039, Note_on_c, 9, 36, 0
1, 59040, Note_on_c, 9, 38, 112
1, 59040, Note_on_c, 9, 51, 116
1, 59279, Note_on_c, 9, 54, 0
1, 59279, Note_on_c, 9, 38, 0
1, 59279, Note_on_c, 9, 51, 0
1, 59280, Note_on_c, 9, 51, 93
1, 59280, Note_on_c, 9, 36, 100
1, 59519, Note_on_c, 9, 51, 0
1, 59519, Note_on_c, 9, 36, 0
1, 59520, Note_on_c, 9, 51, 107
1, 59520, Note_on_c, 9, 36, 102
1, 59759, Note_on_c, 9, 51, 0
1, 59760, Note_on_c, 9, 51, 82
1, 59984, Note_on_c, 9, 51, 0
1, 59985, Note_on_c, 9, 54, 101
1, 59985, Note_on_c, 9, 51, 119
1, 59999, Note_on_c, 9, 36, 0
1, 60000, Note_on_c, 9, 38, 114
1, 60239, Note_on_c, 9, 54, 0
1, 60239, Note_on_c, 9, 51, 0
1, 60239, Note_on_c, 9, 38, 0
1, 60240, Note_on_c, 9, 51, 81
1, 60479, Note_on_c, 9, 51, 0
1, 60480, Note_on_c, 9, 51, 107
1, 60480, Note_on_c, 9, 36, 108
1, 60719, Note_on_c, 9, 51, 0
1, 60720, Note_on_c, 9, 51, 84
1, 60944, Note_on_c, 9, 51, 0
1, 60945, Note_on_c, 9, 54, 103
1, 60945, Note_on_c, 9, 51, 101
1, 60959, Note_on_c, 9, 36, 0
1, 60960, Note_on_c, 9, 38, 112
1, 61199, Note_on_c, 9, 54, 0
1, 61199, Note_on_c, 9, 51, 0
1, 61199, Note_on_c, 9, 38, 0
1, 61200, Note_on_c, 9, 51, 78
1, 61200, Note_on_c, 9, 36, 104
1, 61439, Note_on_c, 9, 51, 0
1, 61439, Note_on_c, 9, 36, 0
1, 61440, Note_on_c, 9, 51, 104
1, 61440, Note_on_c, 9, 36, 107
1, 61679, Note_on_c, 9, 51, 0
1, 61680, Note_on_c, 9, 51, 85
1, 61904, Note_on_c, 9, 51, 0
1, 61905, Note_on_c, 9, 54, 101
1, 61905, Note_on_c, 9, 51, 101
1, 61919, Note_on_c, 9, 36, 0
1, 61920, Note_on_c, 9, 38, 114
1, 62159, Note_on_c, 9, 54, 0
1, 62159, Note_on_c, 9, 51, 0
1, 62159, Note_on_c, 9, 38, 0
1, 62160, Note_on_c, 9, 51, 89
1, 62399, Note_on_c, 9, 51, 0
1, 62400, Note_on_c, 9, 51, 101
1, 62400, Note_on_c, 9, 36, 108
1, 62639, Note_on_c, 9, 51, 0
1, 62640, Note_on_c, 9, 51, 84
1, 62864, Note_on_c, 9, 51, 0
1, 62865, Note_on_c, 9, 54, 103
1, 62865, Note_on_c, 9, 51, 104
1, 62879, Note_on_c, 9, 36, 0
1, 62880, Note_on_c, 9, 38, 110
1, 63119, Note_on_c, 9, 54, 0
1, 63119, Note_on_c, 9, 51, 0
1, 63119, Note_on_c, 9, 38, 0
1, 63120, Note_on_c, 9, 51, 73
1, 63120, Note_on_c, 9, 36, 103
1, 63359, Note_on_c, 9, 51, 0
1, 63359, Note_on_c, 9, 36, 0
1, 63360, Note_on_c, 9, 51, 104
1, 63360, Note_on_c, 9, 36, 98
1, 63599, Note_on_c, 9, 51, 0
1, 63600, Note_on_c, 9, 51, 78
1, 63824, Note_on_c, 9, 51, 0
1, 63825, Note_on_c, 9, 54, 101
1, 63825, Note_on_c, 9, 51, 107
1, 63839, Note_on_c, 9, 36, 0
1, 63840, Note_on_c, 9, 38, 117
1, 64079, Note_on_c, 9, 54, 0
1, 64079, Note_on_c, 9, 51, 0
1, 64079, Note_on_c, 9, 38, 0
1, 64080, Note_on_c, 9, 51, 73
1, 64319, Note_on_c, 9, 51, 0
1, 64320, Note_on_c, 9, 51, 104
1, 64320, Note_on_c, 9, 36, 100
1, 64559, Note_on_c, 9, 51, 0
1, 64560, Note_on_c, 9, 51, 82
1, 64784, Note_on_c, 9, 51, 0
1, 64785, Note_on_c, 9, 54, 103
1, 64785, Note_on_c, 9, 51, 116
1, 64799, Note_on_c, 9, 36, 0
1, 64800, Note_on_c, 9, 38, 114
1, 65039, Note_on_c, 9, 54, 0
1, 65039, Note_on_c, 9, 51, 0
1, 65039, Note_on_c, 9, 38, 0
1, 65040, Note_on_c, 9, 51, 89
1, 65040, Note_on_c, 9, 36, 100
1, 65279, Note_on_c, 9, 51, 0
1, 65279, Note_on_c, 9, 36, 0
1, 65280, Note_on_c, 9, 51, 113
1, 65280, Note_on_c, 9, 36, 86
1, 65519, Note_on_c, 9, 36, 0
1, 65520, Note_on_c, 9, 36, 84
1, 65639, Note_on_c, 9, 36, 0
1, 65640, Note_on_c, 9, 36, 102
1, 65729, Note_on_c, 9, 51, 0
1, 65745, Note_on_c, 9, 54, 101
1, 65745, Note_on_c, 9, 57, 98
1, 65759, Note_on_c, 9, 36, 0
1, 65760, Note_on_c, 9, 38, 114
1, 66239, Note_on_c, 9, 54, 0
1, 66239, Note_on_c, 9, 57, 0
1, 66239, Note_on_c, 9, 38, 0
1, 66240, Note_on_c, 9, 49, 91
1, 66240, Note_on_c, 9, 36, 90
1, 66479, Note_on_c, 9, 49, 0
1, 66480, Note_on_c, 9, 51, 75
1, 66704, Note_on_c, 9, 51, 0
1, 66705, Note_on_c, 9, 54, 103
1, 66705, Note_on_c, 9, 51, 116
1, 66719, Note_on_c, 9, 36, 0
1, 66720, Note_on_c, 9, 38, 112
1, 66959, Note_on_c, 9, 54, 0
1, 66959, Note_on_c, 9, 51, 0
1, 66959, Note_on_c, 9, 38, 0
1, 66960, Note_on_c, 9, 51, 93
1, 66960, Note_on_c, 9, 36, 100
1, 67199, Note_on_c, 9, 51, 0
1, 67199, Note_on_c, 9, 36, 0
1, 67200, Note_on_c, 9, 51, 107
1, 67200, Note_on_c, 9, 36, 102
1, 67439, Note_on_c, 9, 51, 0
1, 67440, Note_on_c, 9, 51, 82
1, 67664, Note_on_c, 9, 51, 0
1, 67665, Note_on_c, 9, 54, 101
1, 67665, Note_on_c, 9, 51, 119
1, 67679, Note_on_c, 9, 36, 0
1, 67680, Note_on_c, 9, 38, 114
1, 67919, Note_on_c, 9, 54, 0
1, 67919, Note_on_c, 9, 51, 0
1, 67919, Note_on_c, 9, 38, 0
1, 67920, Note_on_c, 9, 51, 81
1, 68159, Note_on_c, 9, 51, 0
1, 68160, Note_on_c, 9, 51, 107
1, 68160, Note_on_c, 9, 36, 108
1, 68399, Note_on_c, 9, 51, 0
1, 68400, Note_on_c, 9, 51, 84
1, 68624, Note_on_c, 9, 51, 0
1, 68625, Note_on_c, 9, 54, 103
1, 68625, Note_on_c, 9, 51, 101
1, 68639, Note_on_c, 9, 36, 0
1, 68640, Note_on_c, 9, 38, 112
1, 68879, Note_on_c, 9, 54, 0
1, 68879, Note_on_c, 9, 51, 0
1, 68879, Note_on_c, 9, 38, 0
1, 68880, Note_on_c, 9, 51, 78
1, 68880, Note_on_c, 9, 36, 104
1, 69119, Note_on_c, 9, 51, 0
1, 69119, Note_on_c, 9, 36, 0
1, 69120, Note_on_c, 9, 51, 104
1, 69120, Note_on_c, 9, 36, 107
1, 69359, Note_on_c, 9, 51, 0
1, 69360, Note_on_c, 9, 51, 85
1, 69584, Note_on_c, 9, 51, 0
1, 69585, Note_on_c, 9, 54, 101
1, 69585, Note_on_c, 9, 51, 101
1, 69599, Note_on_c, 9, 36, 0
1, 69600, Note_on_c, 9, 38, 114
1, 69839, Note_on_c, 9, 54, 0
1, 69839, Note_on_c, 9, 51, 0
1, 69839, Note_on_c, 9, 38, 0
1, 69840, Note_on_c, 9, 51, 89
1, 69960, Note_on_c, 9, 36, 96
1, 70079, Note_on_c, 9, 51, 0
1, 70079, Note_on_c, 9, 36, 0
1, 70080, Note_on_c, 9, 51, 101
1, 70080, Note_on_c, 9, 36, 108
1, 70319, Note_on_c, 9, 51, 0
1, 70320, Note_on_c, 9, 51, 84
1, 70544, Note_on_c, 9, 51, 0
1, 70545, Note_on_c, 9, 54, 103
1, 70545, Note_on_c, 9, 51, 104
1, 70559, Note_on_c, 9, 36, 0
1, 70560, Note_on_c, 9, 38, 110
1, 70799, Note_on_c, 9, 54, 0
1, 70799, Note_on_c, 9, 51, 0
1, 70799, Note_on_c, 9, 38, 0
1, 70800, Note_on_c, 9, 51, 73
1, 70800, Note_on_c, 9, 36, 93
1, 71039, Note_on_c, 9, 51, 0
1, 71039, Note_on_c, 9, 36, 0
1, 71040, Note_on_c, 9, 51, 104
1, 71040, Note_on_c, 9, 36, 108
1, 71279, Note_on_c, 9, 51, 0
1, 71280, Note_on_c, 9, 51, 78
1, 71504, Note_on_c, 9, 51, 0
1, 71505, Note_on_c, 9, 54, 101
1, 71505, Note_on_c, 9, 51, 107
1, 71519, Note_on_c, 9, 36, 0
1, 71520, Note_on_c, 9, 38, 117
1, 71759, Note_on_c, 9, 54, 0
1, 71759, Note_on_c, 9, 51, 0
1, 71759, Note_on_c, 9, 38, 0
1, 71760, Note_on_c, 9, 51, 73
1, 71760, Note_on_c, 9, 36, 94
1, 71999, Note_on_c, 9, 51, 0
1, 71999, Note_on_c, 9, 36, 0
1, 72000, Note_on_c, 9, 51, 104
1, 72000, Note_on_c, 9, 36, 110
1, 72224, Note_on_c, 9, 51, 0
1, 72225, Note_on_c, 9, 38, 59
1, 72240, Note_on_c, 9, 51, 82
1, 72299, Note_on_c, 9, 38, 0
1, 72299, Note_on_c, 9, 51, 0
1, 72315, Note_on_c, 9, 38, 46
1, 72359, Note_on_c, 9, 38, 0
1, 72390, Note_on_c, 9, 38, 70
1, 72449, Note_on_c, 9, 38, 0
1, 72465, Note_on_c, 9, 54, 103
1, 72465, Note_on_c, 9, 51, 116
1, 72479, Note_on_c, 9, 36, 0
1, 72480, Note_on_c, 9, 38, 119
1, 72704, Note_on_c, 9, 54, 0
1, 72704, Note_on_c, 9, 51, 0
1, 72704, Note_on_c, 9, 38, 0
1, 72705, Note_on_c, 9, 45, 64
1, 72720, Note_on_c, 9, 51, 89
1, 72720, Note_on_c, 9, 36, 90
1, 72779, Note_on_c, 9, 45, 0
1, 72779, Note_on_c, 9, 51, 0
1, 72795, Note_on_c, 9, 45, 60
1, 72839, Note_on_c, 9, 45, 0
1, 72870, Note_on_c, 9, 45, 92
1, 72929, Note_on_c, 9, 45, 0
1, 72945, Note_on_c, 9, 51, 113
1, 72959, Note_on_c, 9, 36, 0
1, 72960, Note_on_c, 9, 45, 127
1, 72960, Note_on_c, 9, 36, 86
1, 73199, Note_on_c, 9, 36, 0
1, 73200, Note_on_c, 9, 43, 52
1, 73259, Note_on_c, 9, 43, 0
1, 73275, Note_on_c, 9, 43, 74
1, 73319, Note_on_c, 9, 43, 0
1, 73350, Note_on_c, 9, 43, 112
1, 73439, Note_on_c, 9, 51, 0
1, 73439, Note_on_c, 9, 45, 0
1, 73439, Note_on_c, 9, 43, 0
1, 73440, Note_on_c, 9, 54, 101
1, 73440, Note_on_c, 9, 57, 98
1, 73440, Note_on_c, 9, 43, 127
1, 73679, Note_on_c, 9, 54, 0
1, 73679, Note_on_c, 9, 57, 0
1, 73679, Note_on_c, 9, 43, 0
1, 73680, Note_on_c, 9, 41, 117
1, 73680, Note_on_c, 9, 36, 84
1, 73919, Note_on_c, 9, 41, 0
1, 73919, Note_on_c, 9, 36, 0
1, 73920, Note_on_c, 9, 49, 91
1, 73920, Note_on_c, 9, 36, 104
1, 74159, Note_on_c, 9, 49, 0
1, 74160, Note_on_c, 9, 51, 75
1, 74384, Note_on_c, 9, 51, 0
1, 74385, Note_on_c, 9, 54, 103
1, 74385, Note_on_c, 9, 51, 116
1, 74399, Note_on_c, 9, 36, 0
1, 74400, Note_on_c, 9, 38, 123
1, 74639, Note_on_c, 9, 54, 0
1, 74639, Note_on_c, 9, 51, 0
1, 74639, Note_on_c, 9, 38, 0
1, 74640, Note_on_c, 9, 49, 93
1, 74640, Note_on_c, 9, 36, 102
1, 74879, Note_on_c, 9, 49, 0
1, 74879, Note_on_c, 9, 36, 0
1, 74880, Note_on_c, 9, 51, 107
1, 75119, Note_on_c, 9, 51, 0
1, 75120, Note_on_c, 9, 51, 82
1, 75344, Note_on_c, 9, 51, 0
1, 75345, Note_on_c, 9, 54, 101
1, 75345, Note_on_c, 9, 51, 119
1, 75360, Note_on_c, 9, 38, 121
1, 75599, Note_on_c, 9, 54, 0
1, 75599, Note_on_c, 9, 51, 0
1, 75599, Note_on_c, 9, 38, 0
1, 75600, Note_on_c, 9, 51, 81
1, 75720, Note_on_c, 9, 36, 89
1, 75839, Note_on_c, 9, 51, 0
1, 75839, Note_on_c, 9, 36, 0
1, 75840, Note_on_c, 9, 51, 107
1, 75840, Note_on_c, 9, 36, 103
1, 76079, Note_on_c, 9, 51, 0
1, 76080, Note_on_c, 9, 51, 84
1, 76304, Note_on_c, 9, 51, 0
1, 76305, Note_on_c, 9, 54, 103
1, 76305, Note_on_c, 9, 51, 101
1, 76319, Note_on_c, 9, 36, 0
1, 76320, Note_on_c, 9, 38, 124
1, 76559, Note_on_c, 9, 54, 0
1, 76559, Note_on_c, 9, 51, 0
1, 76559, Note_on_c, 9, 38, 0
1, 76560, Note_on_c, 9, 49, 94
1, 76560, Note_on_c, 9, 36, 106
1, 76799, Note_on_c, 9, 49, 0
1, 76799, Note_on_c, 9, 36, 0
1, 76800, Note_on_c, 9, 51, 104
1, 77039, Note_on_c, 9, 51, 0
1, 77040, Note_on_c, 9, 51, 85
1, 77264, Note_on_c, 9, 51, 0
1, 77265, Note_on_c, 9, 54, 101
1, 77265, Note_on_c, 9, 51, 101
1, 77280, Note_on_c, 9, 38, 122
1, 77519, Note_on_c, 9, 54, 0
1, 77519, Note_on_c, 9, 51, 0
1, 77519, Note_on_c, 9, 38, 0
1, 77520, Note_on_c, 9, 51, 89
1, 77759, Note_on_c, 9, 51, 0
1, 77760, Note_on_c, 9, 51, 101
1, 77760, Note_on_c, 9, 36, 104
1, 77999, Note_on_c, 9, 51, 0
1, 78000, Note_on_c, 9, 51, 84
1, 78119, Note_on_c, 9, 51, 0
1, 78120, Note_on_c, 9, 38, 65
1, 78209, Note_on_c, 9, 38, 0
1, 78225, Note_on_c, 9, 54, 103
1, 78239, Note_on_c, 9, 36, 0
1, 78240, Note_on_c, 9, 38, 108
1, 78254, Note_on_c, 9, 54, 0
1, 78254, Note_on_c, 9, 38, 0
1, 78255, Note_on_c, 9, 51, 104
1, 78299, Note_on_c, 9, 51, 0
1, 78360, Note_on_c, 9, 38, 103
1, 78479, Note_on_c, 9, 38, 0
1, 78480, Note_on_c, 9, 49, 97
1, 78480, Note_on_c, 9, 36, 108
1, 78719, Note_on_c, 9, 49, 0
1, 78719, Note_on_c, 9, 36, 0
1, 78720, Note_on_c, 9, 51, 104
1, 78959, Note_on_c, 9, 51, 0
1, 78960, Note_on_c, 9, 51, 78
1, 79184, Note_on_c, 9, 51, 0
1, 79185, Note_on_c, 9, 54, 101
1, 79200, Note_on_c, 9, 38, 119
1, 79214, Note_on_c, 9, 54, 0
1, 79214, Note_on_c, 9, 38, 0
1, 79215, Note_on_c, 9, 51, 107
1, 79439, Note_on_c, 9, 51, 0
1, 79440, Note_on_c, 9, 51, 73
1, 79560, Note_on_c, 9, 36, 96
1, 79679, Note_on_c, 9, 51, 0
1, 79679, Note_on_c, 9, 36, 0
1, 79680, Note_on_c, 9, 49, 100
1, 79680, Note_on_c, 9, 36, 112
1, 79919, Note_on_c, 9, 49, 0
1, 79920, Note_on_c, 9, 51, 82
1, 80144, Note_on_c, 9, 51, 0
1, 80145, Note_on_c, 9, 54, 103
1, 80159, Note_on_c, 9, 36, 0
1, 80160, Note_on_c, 9, 38, 120
1, 80174, Note_on_c, 9, 54, 0
1, 80174, Note_on_c, 9, 38, 0
1, 80175, Note_on_c, 9, 51, 116
1, 80399, Note_on_c, 9, 51, 0
1, 80400, Note_on_c, 9, 51, 89
1, 80400, Note_on_c, 9, 36, 101
1, 80639, Note_on_c, 9, 51, 0
1, 80639, Note_on_c, 9, 36, 0
1, 80640, Note_on_c, 9, 51, 113
1, 80640, Note_on_c, 9, 36, 113
1, 80879, Note_on_c, 9, 51, 0
1, 80880, Note_on_c, 9, 51, 78
1, 81104, Note_on_c, 9, 51, 0
1, 81105, Note_on_c, 9, 54, 101
1, 81119, Note_on_c, 9, 36, 0
1, 81120, Note_on_c, 9, 38, 119
1, 81120, Note_on_c, 9, 51, 107
1, 81359, Note_on_c, 9, 54, 0
1, 81359, Note_on_c, 9, 38, 0
1, 81359, Note_on_c, 9, 51, 0
1, 81360, Note_on_c, 9, 51, 73
1, 81360, Note_on_c, 9, 36, 91
1, 81584, Note_on_c, 9, 51, 0
1, 81585, Note_on_c, 9, 49, 91
1, 81599, Note_on_c, 9, 36, 0
1, 81599, Note_on_c, 9, 49, 0
1, 81600, Note_on_c, 9, 36, 104
1, 81840, Note_on_c, 9, 51, 75
1, 82064, Note_on_c, 9, 51, 0
1, 82065, Note_on_c, 9, 54, 103
1, 82079, Note_on_c, 9, 36, 0
1, 82080, Note_on_c, 9, 38, 120
1, 82094, Note_on_c, 9, 54, 0
1, 82094, Note_on_c, 9, 38, 0
1, 82095, Note_on_c, 9, 51, 116
1, 82319, Note_on_c, 9, 51, 0
1, 82320, Note_on_c, 9, 51, 93
1, 82320, Note_on_c, 9, 36, 92
1, 82559, Note_on_c, 9, 51, 0
1, 82559, Note_on_c, 9, 36, 0
1, 82560, Note_on_c, 9, 51, 107
1, 82799, Note_on_c, 9, 51, 0
1, 82800, Note_on_c, 9, 51, 82
1, 83024, Note_on_c, 9, 51, 0
1, 83025, Note_on_c, 9, 54, 101
1, 83040, Note_on_c, 9, 38, 119
1, 83054, Note_on_c, 9, 54, 0
1, 83054, Note_on_c, 9, 38, 0
1, 83055, Note_on_c, 9, 51, 119
1, 83279, Note_on_c, 9, 51, 0
1, 83280, Note_on_c, 9, 51, 81
1, 83400, Note_on_c, 9, 36, 94
1, 83519, Note_on_c, 9, 51, 0
1, 83519, Note_on_c, 9, 36, 0
1, 83520, Note_on_c, 9, 51, 107
1, 83520, Note_on_c, 9, 36, 110
1, 83759, Note_on_c, 9, 51, 0
1, 83760, Note_on_c, 9, 51, 84
1, 83984, Note_on_c, 9, 51, 0
1, 83985, Note_on_c, 9, 54, 103
1, 83985, Note_on_c, 9, 51, 101
1, 83999, Note_on_c, 9, 36, 0
1, 84000, Note_on_c, 9, 38, 120
1, 84239, Note_on_c, 9, 54, 0
1, 84239, Note_on_c, 9, 51, 0
1, 84239, Note_on_c, 9, 38, 0
1, 84240, Note_on_c, 9, 51, 78
1, 84240, Note_on_c, 9, 36, 101
1, 84479, Note_on_c, 9, 51, 0
1, 84479, Note_on_c, 9, 36, 0
1, 84480, Note_on_c, 9, 51, 104
1, 84719, Note_on_c, 9, 51, 0
1, 84720, Note_on_c, 9, 51, 85
1, 84944, Note_on_c, 9, 51, 0
1, 84945, Note_on_c, 9, 54, 101
1, 84945, Note_on_c, 9, 51, 101
1, 84960, Note_on_c, 9, 38, 119
1, 85199, Note_on_c, 9, 54, 0
1, 85199, Note_on_c, 9, 51, 0
1, 85199, Note_on_c, 9, 38, 0
1, 85200, Note_on_c, 9, 38, 39
1, 85200, Note_on_c, 9, 51, 89
1, 85259, Note_on_c, 9, 38, 0
1, 85259, Note_on_c, 9, 51, 0
1, 85280, Note_on_c, 9, 38, 37
1, 85319, Note_on_c, 9, 38, 0
1, 85360, Note_on_c, 9, 38, 34
1, 85379, Note_on_c, 9, 38, 0
1, 85440, Note_on_c, 9, 49, 96
1, 85440, Note_on_c, 9, 36, 101
1, 85679, Note_on_c, 9, 49, 0
1, 85680, Note_on_c, 9, 51, 84
1, 85904, Note_on_c, 9, 51, 0
1, 85905, Note_on_c, 9, 54, 103
1, 85919, Note_on_c, 9, 36, 0
1, 85920, Note_on_c, 9, 38, 120
1, 85934, Note_on_c, 9, 54, 0
1, 85934, Note_on_c, 9, 38, 0
1, 85935, Note_on_c, 9, 51, 104
1, 86159, Note_on_c, 9, 51, 0
1, 86160, Note_on_c, 9, 51, 73
1, 86160, Note_on_c, 9, 36, 103
1, 86399, Note_on_c, 9, 51, 0
1, 86399, Note_on_c, 9, 36, 0
1, 86400, Note_on_c, 9, 51, 104
1, 86639, Note_on_c, 9, 51, 0
1, 86640, Note_on_c, 9, 51, 78
1, 86864, Note_on_c, 9, 51, 0
1, 86865, Note_on_c, 9, 54, 101
1, 86880, Note_on_c, 9, 38, 119
1, 86894, Note_on_c, 9, 54, 0
1, 86894, Note_on_c, 9, 38, 0
1, 86895, Note_on_c, 9, 51, 107
1, 87119, Note_on_c, 9, 51, 0
1, 87120, Note_on_c, 9, 51, 73
1, 87240, Note_on_c, 9, 36, 97
1, 87359, Note_on_c, 9, 51, 0
1, 87359, Note_on_c, 9, 36, 0
1, 87360, Note_on_c, 9, 51, 104
1, 87360, Note_on_c, 9, 36, 108
1, 87599, Note_on_c, 9, 51, 0
1, 87600, Note_on_c, 9, 51, 82
1, 87824, Note_on_c, 9, 51, 0
1, 87825, Note_on_c, 9, 54, 103
1, 87839, Note_on_c, 9, 36, 0
1, 87840, Note_on_c, 9, 51, 107
1, 87960, Note_on_c, 9, 36, 82
1, 88079, Note_on_c, 9, 54, 0
1, 88079, Note_on_c, 9, 51, 0
1, 88080, Note_on_c, 9, 51, 77
1, 88319, Note_on_c, 9, 36, 0
1, 88319, Note_on_c, 9, 51, 0
1, 88320, Note_on_c, 9, 51, 107
1, 88334, Note_on_c, 9, 51, 0
1, 88335, Note_on_c, 9, 47, 127
1, 88440, Note_on_c, 9, 36, 82
1, 88559, Note_on_c, 9, 47, 0
1, 88560, Note_on_c, 9, 51, 69
1, 88679, Note_on_c, 9, 51, 0
1, 88680, Note_on_c, 9, 45, 90
1, 88799, Note_on_c, 9, 36, 0
1, 88799, Note_on_c, 9, 45, 0
1, 88800, Note_on_c, 9, 54, 101
1, 88800, Note_on_c, 9, 51, 107
1, 88814, Note_on_c, 9, 54, 0
1, 88814, Note_on_c, 9, 51, 0
1, 88815, Note_on_c, 9, 45, 127
1, 88920, Note_on_c, 9, 36, 67
1, 89039, Note_on_c, 9, 45, 0
1, 89039, Note_on_c, 9, 36, 0
1, 89040, Note_on_c, 9, 51, 71
1, 89040, Note_on_c, 9, 36, 88
1, 89279, Note_on_c, 9, 51, 0
1, 89279, Note_on_c, 9, 36, 0
1, 89280, Note_on_c, 9, 49, 91
1, 89280, Note_on_c, 9, 36, 94
1, 89519, Note_on_c, 9, 49, 0
1, 89520, Note_on_c, 9, 51, 75
1, 89744, Note_on_c, 9, 51, 0
1, 89745, Note_on_c, 9, 54, 103
1, 89759, Note_on_c, 9, 36, 0
1, 89760, Note_on_c, 9, 38, 123
1, 89774, Note_on_c, 9, 54, 0
1, 89774, Note_on_c, 9, 38, 0
1, 89775, Note_on_c, 9, 51, 116
1, 89999, Note_on_c, 9, 51, 0
1, 90000, Note_on_c, 9, 51, 93
1, 90000, Note_on_c, 9, 36, 63
1, 90239, Note_on_c, 9, 51, 0
1, 90239, Note_on_c, 9, 36, 0
1, 90240, Note_on_c, 9, 51, 107
1, 90240, Note_on_c, 9, 36, 86
1, 90479, Note_on_c, 9, 51, 0
1, 90480, Note_on_c, 9, 51, 82
1, 90704, Note_on_c, 9, 51, 0
1, 90705, Note_on_c, 9, 54, 101
1, 90719, Note_on_c, 9, 36, 0
1, 90720, Note_on_c, 9, 38, 121
1, 90734, Note_on_c, 9, 54, 0
1, 90734, Note_on_c, 9, 38, 0
1, 90735, Note_on_c, 9, 51, 119
1, 90959, Note_on_c, 9, 51, 0
1, 90960, Note_on_c, 9, 51, 81
1, 90960, Note_on_c, 9, 36, 59
1, 91199, Note_on_c, 9, 51, 0
1, 91199, Note_on_c, 9, 36, 0
1, 91200, Note_on_c, 9, 51, 107
1, 91200, Note_on_c, 9, 36, 94
1, 91439, Note_on_c, 9, 51, 0
1, 91440, Note_on_c, 9, 51, 84
1, 91664, Note_on_c, 9, 51, 0
1, 91665, Note_on_c, 9, 54, 103
1, 91665, Note_on_c, 9, 51, 101
1, 91679, Note_on_c, 9, 36, 0
1, 91680, Note_on_c, 9, 38, 123
1, 91919, Note_on_c, 9, 54, 0
1, 91919, Note_on_c, 9, 51, 0
1, 91919, Note_on_c, 9, 38, 0
1, 91920, Note_on_c, 9, 51, 78
1, 91920, Note_on_c, 9, 36, 63
1, 92159, Note_on_c, 9, 51, 0
1, 92159, Note_on_c, 9, 36, 0
1, 92160, Note_on_c, 9, 51, 104
1, 92160, Note_on_c, 9, 36, 86
1, 92399, Note_on_c, 9, 51, 0
1, 92400, Note_on_c, 9, 51, 85
1, 92624, Note_on_c, 9, 51, 0
1, 92625, Note_on_c, 9, 54, 101
1, 92625, Note_on_c, 9, 51, 101
1, 92639, Note_on_c, 9, 36, 0
1, 92640, Note_on_c, 9, 38, 121
1, 92879, Note_on_c, 9, 54, 0
1, 92879, Note_on_c, 9, 51, 0
1, 92879, Note_on_c, 9, 38, 0
1, 92880, Note_on_c, 9, 51, 89
1, 92880, Note_on_c, 9, 36, 59
1, 93119, Note_on_c, 9, 51, 0
1, 93119, Note_on_c, 9, 36, 0
1, 93120, Note_on_c, 9, 51, 101
1, 93120, Note_on_c, 9, 36, 94
1, 93359, Note_on_c, 9, 51, 0
1, 93360, Note_on_c, 9, 51, 84
1, 93584, Note_on_c, 9, 51, 0
1, 93585, Note_on_c, 9, 54, 103
1, 93599, Note_on_c, 9, 36, 0
1, 93600, Note_on_c, 9, 38, 123
1, 93614, Note_on_c, 9, 54, 0
1, 93614, Note_on_c, 9, 38, 0
1, 93615, Note_on_c, 9, 51, 104
1, 93839, Note_on_c, 9, 51, 0
1, 93840, Note_on_c, 9, 51, 73
1, 93840, Note_on_c, 9, 36, 63
1, 94079, Note_on_c, 9, 51, 0
1, 94079, Note_on_c, 9, 36, 0
1, 94080, Note_on_c, 9, 51, 104
1, 94080, Note_on_c, 9, 36, 86
1, 94319, Note_on_c, 9, 51, 0
1, 94320, Note_on_c, 9, 51, 78
1, 94544, Note_on_c, 9, 51, 0
1, 94545, Note_on_c, 9, 54, 101
1, 94559, Note_on_c, 9, 36, 0
1, 94560, Note_on_c, 9, 38, 121
1, 94574, Note_on_c, 9, 54, 0
1, 94574, Note_on_c, 9, 38, 0
1, 94575, Note_on_c, 9, 51, 107
1, 94799, Note_on_c, 9, 51, 0
1, 94800, Note_on_c, 9, 51, 73
1, 94800, Note_on_c, 9, 36, 59
1, 95039, Note_on_c, 9, 51, 0
1, 95039, Note_on_c, 9, 36, 0
1, 95040, Note_on_c, 9, 51, 104
1, 95040, Note_on_c, 9, 36, 94
1, 95279, Note_on_c, 9, 51, 0
1, 95280, Note_on_c, 9, 51, 82
1, 95504, Note_on_c, 9, 51, 0
1, 95505, Note_on_c, 9, 54, 103
1, 95519, Note_on_c, 9, 36, 0
1, 95520, Note_on_c, 9, 38, 123
1, 95534, Note_on_c, 9, 54, 0
1, 95534, Note_on_c, 9, 38, 0
1, 95535, Note_on_c, 9, 51, 116
1, 95759, Note_on_c, 9, 51, 0
1, 95760, Note_on_c, 9, 51, 89
1, 95760, Note_on_c, 9, 36, 63
1, 95999, Note_on_c, 9, 51, 0
1, 95999, Note_on_c, 9, 36, 0
1, 96000, Note_on_c, 9, 51, 113
1, 96000, Note_on_c, 9, 36, 86
1, 96239, Note_on_c, 9, 51, 0
1, 96240, Note_on_c, 9, 51, 82
1, 96464, Note_on_c, 9, 51, 0
1, 96465, Note_on_c, 9, 54, 101
1, 96479, Note_on_c, 9, 36, 0
1, 96480, Note_on_c, 9, 51, 116
1, 96494, Note_on_c, 9, 54, 0
1, 96494, Note_on_c, 9, 51, 0
1, 96495, Note_on_c, 9, 45, 108
1, 96539, Note_on_c, 9, 45, 0
1, 96600, Note_on_c, 9, 45, 90
1, 96719, Note_on_c, 9, 45, 0
1, 96720, Note_on_c, 9, 45, 127
1, 96720, Note_on_c, 9, 36, 59
1, 96959, Note_on_c, 9, 45, 0
1, 96959, Note_on_c, 9, 36, 0
1, 96960, Note_on_c, 9, 49, 91
1, 96960, Note_on_c, 9, 36, 94
1, 97199, Note_on_c, 9, 49, 0
1, 97200, Note_on_c, 9, 51, 75
1, 97424, Note_on_c, 9, 51, 0
1, 97425, Note_on_c, 9, 54, 103
1, 97439, Note_on_c, 9, 36, 0
1, 97440, Note_on_c, 9, 38, 123
1, 97454, Note_on_c, 9, 54, 0
1, 97454, Note_on_c, 9, 38, 0
1, 97455, Note_on_c, 9, 51, 116
1, 97679, Note_on_c, 9, 51, 0
1, 97680, Note_on_c, 9, 51, 93
1, 97680, Note_on_c, 9, 36, 63
1, 97919, Note_on_c, 9, 51, 0
1, 97919, Note_on_c, 9, 36, 0
1, 97920, Note_on_c, 9, 51, 107
1, 97920, Note_on_c, 9, 36, 86
1, 98159, Note_on_c, 9, 51, 0
1, 98160, Note_on_c, 9, 51, 82
1, 98384, Note_on_c, 9, 51, 0
1, 98385, Note_on_c, 9, 54, 101
1, 98399, Note_on_c, 9, 36, 0
1, 98400, Note_on_c, 9, 38, 121
1, 98414, Note_on_c, 9, 54, 0
1, 98414, Note_on_c, 9, 38, 0
1, 98415, Note_on_c, 9, 51, 119
1, 98639, Note_on_c, 9, 51, 0
1, 98640, Note_on_c, 9, 51, 81
1, 98640, Note_on_c, 9, 36, 59
1, 98879, Note_on_c, 9, 51, 0
1, 98879, Note_on_c, 9, 36, 0
1, 98880, Note_on_c, 9, 51, 107
1, 98880, Note_on_c, 9, 36, 94
1, 99119, Note_on_c, 9, 51, 0
1, 99120, Note_on_c, 9, 51, 84
1, 99344, Note_on_c, 9, 51, 0
1, 99345, Note_on_c, 9, 54, 103
1, 99345, Note_on_c, 9, 51, 101
1, 99359, Note_on_c, 9, 36, 0
1, 99360, Note_on_c, 9, 38, 123
1, 99599, Note_on_c, 9, 54, 0
1, 99599, Note_on_c, 9, 51, 0
1, 99599, Note_on_c, 9, 38, 0
1, 99600, Note_on_c, 9, 51, 78
1, 99600, Note_on_c, 9, 36, 63
1, 99839, Note_on_c, 9, 51, 0
1, 99839, Note_on_c, 9, 36, 0
1, 99840, Note_on_c, 9, 51, 104
1, 99840, Note_on_c, 9, 36, 86
1, 100079, Note_on_c, 9, 51, 0
1, 100080, Note_on_c, 9, 51, 85
1, 100304, Note_on_c, 9, 51, 0
1, 100305, Note_on_c, 9, 54, 101
1, 100305, Note_on_c, 9, 51, 101
1, 100319, Note_on_c, 9, 36, 0
1, 100320, Note_on_c, 9, 38, 121
1, 100559, Note_on_c, 9, 54, 0
1, 100559, Note_on_c, 9, 51, 0
1, 100559, Note_on_c, 9, 38, 0
1, 100560, Note_on_c, 9, 51, 89
1, 100560, Note_on_c, 9, 36, 59
1, 100799, Note_on_c, 9, 51, 0
1, 100799, Note_on_c, 9, 36, 0
1, 100800, Note_on_c, 9, 51, 101
1, 100800, Note_on_c, 9, 36, 94
1, 101039, Note_on_c, 9, 51, 0
1, 101040, Note_on_c, 9, 51, 84
1, 101264, Note_on_c, 9, 51, 0
1, 101265, Note_on_c, 9, 54, 103
1, 101279, Note_on_c, 9, 36, 0
1, 101280, Note_on_c, 9, 38, 123
1, 101294, Note_on_c, 9, 54, 0
1, 101294, Note_on_c, 9, 38, 0
1, 101295, Note_on_c, 9, 51, 104
1, 101519, Note_on_c, 9, 51, 0
1, 101520, Note_on_c, 9, 51, 73
1, 101520, Note_on_c, 9, 36, 63
1, 101759, Note_on_c, 9, 51, 0
1, 101759, Note_on_c, 9, 36, 0
1, 101760, Note_on_c, 9, 51, 104
1, 101760, Note_on_c, 9, 36, 86
1, 101999, Note_on_c, 9, 51, 0
1, 102000, Note_on_c, 9, 51, 78
1, 102224, Note_on_c, 9, 51, 0
1, 102225, Note_on_c, 9, 54, 101
1, 102239, Note_on_c, 9, 36, 0
1, 102240, Note_on_c, 9, 38, 121
1, 102254, Note_on_c, 9, 54, 0
1, 102254, Note_on_c, 9, 38, 0
1, 102255, Note_on_c, 9, 51, 107
1, 102479, Note_on_c, 9, 51, 0
1, 102480, Note_on_c, 9, 51, 73
1, 102480, Note_on_c, 9, 36, 59
1, 102719, Note_on_c, 9, 51, 0
1, 102719, Note_on_c, 9, 36, 0
1, 102720, Note_on_c, 9, 51, 104
1, 102720, Note_on_c, 9, 36, 94
1, 102959, Note_on_c, 9, 51, 0
1, 102960, Note_on_c, 9, 51, 82
1, 103184, Note_on_c, 9, 51, 0
1, 103185, Note_on_c, 9, 54, 103
1, 103199, Note_on_c, 9, 36, 0
1, 103200, Note_on_c, 9, 38, 123
1, 103214, Note_on_c, 9, 54, 0
1, 103214, Note_on_c, 9, 38, 0
1, 103215, Note_on_c, 9, 57, 107
1, 103439, Note_on_c, 9, 57, 0
1, 103440, Note_on_c, 9, 36, 63
1, 103679, Note_on_c, 9, 36, 0
1, 103680, Note_on_c, 9, 38, 121
1, 103680, Note_on_c, 9, 36, 86
1, 103694, Note_on_c, 9, 38, 0
1, 103695, Note_on_c, 9, 49, 99
1, 103919, Note_on_c, 9, 49, 0
1, 103935, Note_on_c, 9, 47, 120
1, 104159, Note_on_c, 9, 36, 0
1, 104159, Note_on_c, 9, 47, 0
1, 104160, Note_on_c, 9, 54, 101
1, 104280, Note_on_c, 9, 36, 59
1, 104399, Note_on_c, 9, 36, 0
1, 104400, Note_on_c, 9, 43, 120
1, 104639, Note_on_c, 9, 54, 0
1, 104639, Note_on_c, 9, 43, 0
1, 104640, Note_on_c, 9, 57, 101
1, 104640, Note_on_c, 9, 36, 94
1, 104879, Note_on_c, 9, 57, 0
1, 104880, Note_on_c, 9, 51, 75
1, 105104, Note_on_c, 9, 51, 0
1, 105105, Note_on_c, 9, 54, 103
1, 105119, Note_on_c, 9, 36, 0
1, 105120, Note_on_c, 9, 38, 123
1, 105134, Note_on_c, 9, 54, 0
1, 105134, Note_on_c, 9, 38, 0
1, 105135, Note_on_c, 9, 51, 116
1, 105359, Note_on_c, 9, 51, 0
1, 105360, Note_on_c, 9, 49, 97
1, 105360, Note_on_c, 9, 36, 92
1, 105599, Note_on_c, 9, 49, 0
1, 105599, Note_on_c, 9, 36, 0
1, 105600, Note_on_c, 9, 51, 107
1, 105839, Note_on_c, 9, 51, 0
1, 105840, Note_on_c, 9, 51, 82
1, 106064, Note_on_c, 9, 51, 0
1, 106065, Note_on_c, 9, 54, 101
1, 106080, Note_on_c, 9, 38, 121
1, 106094, Note_on_c, 9, 54, 0
1, 106094, Note_on_c, 9, 38, 0
1, 106095, Note_on_c, 9, 51, 119
1, 106319, Note_on_c, 9, 51, 0
1, 106320, Note_on_c, 9, 51, 81
1, 106320, Note_on_c, 9, 36, 59
1, 106559, Note_on_c, 9, 51, 0
1, 106559, Note_on_c, 9, 36, 0
1, 106560, Note_on_c, 9, 49, 107
1, 106560, Note_on_c, 9, 36, 94
1, 106799, Note_on_c, 9, 49, 0
1, 106800, Note_on_c, 9, 51, 84
1, 107024, Note_on_c, 9, 51, 0
1, 107025, Note_on_c, 9, 54, 103
1, 107025, Note_on_c, 9, 51, 101
1, 107039, Note_on_c, 9, 36, 0
1, 107040, Note_on_c, 9, 38, 123
1, 107279, Note_on_c, 9, 54, 0
1, 107279, Note_on_c, 9, 51, 0
1, 107279, Note_on_c, 9, 38, 0
1, 107280, Note_on_c, 9, 49, 99
1, 107280, Note_on_c, 9, 36, 89
1, 107519, Note_on_c, 9, 49, 0
1, 107519, Note_on_c, 9, 36, 0
1, 107520, Note_on_c, 9, 51, 104
1, 107744, Note_on_c, 9, 51, 0
1, 107745, Note_on_c, 9, 51, 85
1, 107760, Note_on_c, 9, 41, 73
1, 107760, Note_on_c, 9, 36, 86
1, 107984, Note_on_c, 9, 51, 0
1, 107984, Note_on_c, 9, 41, 0
1, 107985, Note_on_c, 9, 54, 101
1, 107985, Note_on_c, 9, 51, 101
1, 107999, Note_on_c, 9, 36, 0
1, 108000, Note_on_c, 9, 38, 121
1, 108239, Note_on_c, 9, 54, 0
1, 108239, Note_on_c, 9, 51, 0
1, 108239, Note_on_c, 9, 38, 0
1, 108240, Note_on_c, 9, 51, 89
1, 108464, Note_on_c, 9, 51, 0
1, 108465, Note_on_c, 9, 49, 101
1, 108479, Note_on_c, 9, 49, 0
1, 108480, Note_on_c, 9, 36, 94
1, 108720, Note_on_c, 9, 51, 84
1, 108944, Note_on_c, 9, 51, 0
1, 108945, Note_on_c, 9, 54, 103
1, 108959, Note_on_c, 9, 36, 0
1, 108960, Note_on_c, 9, 38, 123
1, 108974, Note_on_c, 9, 54, 0
1, 108974, Note_on_c, 9, 38, 0
1, 108975, Note_on_c, 9, 51, 104
1, 109184, Note_on_c, 9, 51, 0
1, 109185, Note_on_c, 9, 57, 98
1, 109199, Note_on_c, 9, 57, 0
1, 109200, Note_on_c, 9, 36, 85
1, 109439, Note_on_c, 9, 36, 0
1, 109440, Note_on_c, 9, 51, 104
1, 109664, Note_on_c, 9, 51, 0
1, 109665, Note_on_c, 9, 41, 48
1, 109680, Note_on_c, 9, 51, 78
1, 109739, Note_on_c, 9, 41, 0
1, 109739, Note_on_c, 9, 51, 0
1, 109740, Note_on_c, 9, 41, 60
1, 109799, Note_on_c, 9, 41, 0
1, 109800, Note_on_c, 9, 41, 70
1, 109859, Note_on_c, 9, 41, 0
1, 109860, Note_on_c, 9, 41, 96
1, 109904, Note_on_c, 9, 41, 0
1, 109905, Note_on_c, 9, 41, 127
1, 109905, Note_on_c, 9, 54, 101
1, 109920, Note_on_c, 9, 51, 107
1, 110159, Note_on_c, 9, 41, 0
1, 110159, Note_on_c, 9, 54, 0
1, 110159, Note_on_c, 9, 51, 0
1, 110160, Note_on_c, 9, 51, 73
1, 110160, Note_on_c, 9, 36, 59
1, 110384, Note_on_c, 9, 51, 0
1, 110385, Note_on_c, 9, 57, 104
1, 110399, Note_on_c, 9, 36, 0
1, 110399, Note_on_c, 9, 57, 0
1, 110400, Note_on_c, 9, 36, 94
1, 110640, Note_on_c, 9, 51, 82
1, 110864, Note_on_c, 9, 51, 0
1, 110865, Note_on_c, 9, 54, 103
1, 110879, Note_on_c, 9, 36, 0
1, 110880, Note_on_c, 9, 38, 123
1, 110894, Note_on_c, 9, 54, 0
1, 110894, Note_on_c, 9, 38, 0
1, 110895, Note_on_c, 9, 51, 116
1, 111119, Note_on_c, 9, 51, 0
1, 111120, Note_on_c, 9, 51, 89
1, 111359, Note_on_c, 9, 51, 0
1, 111360, Note_on_c, 9, 51, 113
1, 111599, Note_on_c, 9, 51, 0
1, 111600, Note_on_c, 9, 51, 82
1, 111600, Note_on_c, 9, 36, 86
1, 111824, Note_on_c, 9, 51, 0
1, 111825, Note_on_c, 9, 54, 101
1, 111839, Note_on_c, 9, 36, 0
1, 111840, Note_on_c, 9, 38, 123
1, 111840, Note_on_c, 9, 51, 116
1, 112079, Note_on_c, 9, 54, 0
1, 112079, Note_on_c, 9, 38, 0
1, 112079, Note_on_c, 9, 51, 0
1, 112080, Note_on_c, 9, 51, 82
1, 112080, Note_on_c, 9, 36, 59
1, 112304, Note_on_c, 9, 51, 0
1, 112305, Note_on_c, 9, 57, 103
1, 112319, Note_on_c, 9, 36, 0
1, 112319, Note_on_c, 9, 57, 0
1, 112320, Note_on_c, 9, 36, 94
1, 112560, Note_on_c, 9, 51, 75
1, 112784, Note_on_c, 9, 51, 0
1, 112785, Note_on_c, 9, 54, 103
1, 112799, Note_on_c, 9, 36, 0
1, 112800, Note_on_c, 9, 38, 123
1, 112814, Note_on_c, 9, 54, 0
1, 112814, Note_on_c, 9, 38, 0
1, 112815, Note_on_c, 9, 51, 116
1, 113039, Note_on_c, 9, 51, 0
1, 113040, Note_on_c, 9, 51, 93
1, 113040, Note_on_c, 9, 36, 63
1, 113279, Note_on_c, 9, 51, 0
1, 113279, Note_on_c, 9, 36, 0
1, 113280, Note_on_c, 9, 51, 107
1, 113280, Note_on_c, 9, 36, 86
1, 113519, Note_on_c, 9, 51, 0
1, 113520, Note_on_c, 9, 51, 82
1, 113744, Note_on_c, 9, 51, 0
1, 113745, Note_on_c, 9, 54, 101
1, 113759, Note_on_c, 9, 36, 0
1, 113760, Note_on_c, 9, 38, 121
1, 113774, Note_on_c, 9, 54, 0
1, 113774, Note_on_c, 9, 38, 0
1, 113775, Note_on_c, 9, 51, 119
1, 113999, Note_on_c, 9, 51, 0
1, 114000, Note_on_c, 9, 51, 81
1, 114000, Note_on_c, 9, 36, 59
1, 114239, Note_on_c, 9, 51, 0
1, 114239, Note_on_c, 9, 36, 0
1, 114240, Note_on_c, 9, 51, 107
1, 114240, Note_on_c, 9, 36, 94
1, 114479, Note_on_c, 9, 51, 0
1, 114480, Note_on_c, 9, 51, 84
1, 114704, Note_on_c, 9, 51, 0
1, 114705, Note_on_c, 9, 54, 103
1, 114705, Note_on_c, 9, 51, 101
1, 114719, Note_on_c, 9, 36, 0
1, 114720, Note_on_c, 9, 38, 123
1, 114959, Note_on_c, 9, 54, 0
1, 114959, Note_on_c, 9, 51, 0
1, 114959, Note_on_c, 9, 38, 0
1, 114960, Note_on_c, 9, 51, 78
1, 114960, Note_on_c, 9, 36, 86
1, 115199, Note_on_c, 9, 51, 0
1, 115199, Note_on_c, 9, 36, 0
1, 115200, Note_on_c, 9, 51, 104
1, 115439, Note_on_c, 9, 51, 0
1, 115440, Note_on_c, 9, 51, 85
1, 115664, Note_on_c, 9, 51, 0
1, 115665, Note_on_c, 9, 54, 101
1, 115665, Note_on_c, 9, 51, 101
1, 115680, Note_on_c, 9, 38, 121
1, 115919, Note_on_c, 9, 54, 0
1, 115919, Note_on_c, 9, 51, 0
1, 115919, Note_on_c, 9, 38, 0
1, 115920, Note_on_c, 9, 51, 89
1, 116040, Note_on_c, 9, 36, 59
1, 116159, Note_on_c, 9, 51, 0
1, 116159, Note_on_c, 9, 36, 0
1, 116160, Note_on_c, 9, 51, 101
1, 116160, Note_on_c, 9, 36, 94
1, 116399, Note_on_c, 9, 51, 0
1, 116400, Note_on_c, 9, 51, 84
1, 116624, Note_on_c, 9, 51, 0
1, 116625, Note_on_c, 9, 54, 103
1, 116639, Note_on_c, 9, 36, 0
1, 116640, Note_on_c, 9, 38, 123
1, 116654, Note_on_c, 9, 54, 0
1, 116654, Note_on_c, 9, 38, 0
1, 116655, Note_on_c, 9, 51, 104
1, 116879, Note_on_c, 9, 51, 0
1, 116880, Note_on_c, 9, 51, 73
1, 116880, Note_on_c, 9, 36, 63
1, 117119, Note_on_c, 9, 51, 0
1, 117119, Note_on_c, 9, 36, 0
1, 117120, Note_on_c, 9, 51, 104
1, 117120, Note_on_c, 9, 36, 86
1, 117359, Note_on_c, 9, 51, 0
1, 117360, Note_on_c, 9, 51, 78
1, 117584, Note_on_c, 9, 51, 0
1, 117585, Note_on_c, 9, 54, 101
1, 117599, Note_on_c, 9, 36, 0
1, 117600, Note_on_c, 9, 38, 121
1, 117600, Note_on_c, 9, 36, 59
1, 117614, Note_on_c, 9, 54, 0
1, 117614, Note_on_c, 9, 38, 0
1, 117615, Note_on_c, 9, 51, 107
1, 117839, Note_on_c, 9, 51, 0
1, 117840, Note_on_c, 9, 51, 73
1, 118079, Note_on_c, 9, 36, 0
1, 118079, Note_on_c, 9, 51, 0
1, 118080, Note_on_c, 9, 51, 104
1, 118080, Note_on_c, 9, 36, 94
1, 118319, Note_on_c, 9, 51, 0
1, 118320, Note_on_c, 9, 51, 82
1, 118544, Note_on_c, 9, 51, 0
1, 118545, Note_on_c, 9, 54, 103
1, 118559, Note_on_c, 9, 36, 0
1, 118560, Note_on_c, 9, 38, 123
1, 118574, Note_on_c, 9, 54, 0
1, 118574, Note_on_c, 9, 38, 0
1, 118575, Note_on_c, 9, 51, 107
1, 118799, Note_on_c, 9, 51, 0
1, 118800, Note_on_c, 9, 51, 82
1, 118800, Note_on_c, 9, 36, 63
1, 119039, Note_on_c, 9, 51, 0
1, 119039, Note_on_c, 9, 36, 0
1, 119040, Note_on_c, 9, 51, 99
1, 119040, Note_on_c, 9, 36, 86
1, 119264, Note_on_c, 9, 51, 0
1, 119265, Note_on_c, 9, 41, 80
1, 119279, Note_on_c, 9, 41, 0
1, 119280, Note_on_c, 9, 51, 82
1, 119399, Note_on_c, 9, 36, 0
1, 119400, Note_on_c, 9, 36, 59
1, 119504, Note_on_c, 9, 51, 0
1, 119505, Note_on_c, 9, 54, 101
1, 119519, Note_on_c, 9, 36, 0
1, 119520, Note_on_c, 9, 38, 121
1, 119520, Note_on_c, 9, 51, 107
1, 119760, Note_on_c, 9, 36, 59
1, 119969, Note_on_c, 9, 54, 0
1, 119969, Note_on_c, 9, 38, 0
1, 119969, Note_on_c, 9, 51, 0
1, 119985, Note_on_c, 9, 49, 91
1, 119999, Note_on_c, 9, 36, 0
1, 119999, Note_on_c, 9, 49, 0
1, 120000, Note_on_c, 9, 36, 94
1, 120240, Note_on_c, 9, 51, 75
1, 120464, Note_on_c, 9, 51, 0
1, 120465, Note_on_c, 9, 54, 103
1, 120479, Note_on_c, 9, 36, 0
1, 120480, Note_on_c, 9, 38, 123
1, 120494, Note_on_c, 9, 54, 0
1, 120494, Note_on_c, 9, 38, 0
1, 120495, Note_on_c, 9, 51, 116
1, 120719, Note_on_c, 9, 51, 0
1, 120720, Note_on_c, 9, 51, 93
1, 120720, Note_on_c, 9, 36, 63
1, 120959, Note_on_c, 9, 51, 0
1, 120959, Note_on_c, 9, 36, 0
1, 120960, Note_on_c, 9, 51, 107
1, 120960, Note_on_c, 9, 36, 86
1, 121199, Note_on_c, 9, 51, 0
1, 121200, Note_on_c, 9, 51, 82
1, 121424, Note_on_c, 9, 51, 0
1, 121425, Note_on_c, 9, 54, 101
1, 121439, Note_on_c, 9, 36, 0
1, 121440, Note_on_c, 9, 38, 121
1, 121454, Note_on_c, 9, 54, 0
1, 121454, Note_on_c, 9, 38, 0
1, 121455, Note_on_c, 9, 51, 119
1, 121679, Note_on_c, 9, 51, 0
1, 121680, Note_on_c, 9, 51, 81
1, 121919, Note_on_c, 9, 51, 0
1, 121920, Note_on_c, 9, 51, 107
1, 121920, Note_on_c, 9, 36, 94
1, 122159, Note_on_c, 9, 51, 0
1, 122160, Note_on_c, 9, 51, 84
1, 122384, Note_on_c, 9, 51, 0
1, 122385, Note_on_c, 9, 54, 103
1, 122385, Note_on_c, 9, 51, 101
1, 122399, Note_on_c, 9, 36, 0
1, 122400, Note_on_c, 9, 38, 123
1, 122639, Note_on_c, 9, 54, 0
1, 122639, Note_on_c, 9, 51, 0
1, 122639, Note_on_c, 9, 38, 0
1, 122640, Note_on_c, 9, 51, 78
1, 122640, Note_on_c, 9, 36, 63
1, 122879, Note_on_c, 9, 51, 0
1, 122879, Note_on_c, 9, 36, 0
1, 122880, Note_on_c, 9, 51, 104
1, 122880, Note_on_c, 9, 36, 86
1, 123119, Note_on_c, 9, 51, 0
1, 123120, Note_on_c, 9, 51, 85
1, 123344, Note_on_c, 9, 51, 0
1, 123345, Note_on_c, 9, 54, 101
1, 123345, Note_on_c, 9, 51, 101
1, 123359, Note_on_c, 9, 36, 0
1, 123360, Note_on_c, 9, 38, 121
1, 123599, Note_on_c, 9, 54, 0
1, 123599, Note_on_c, 9, 51, 0
1, 123599, Note_on_c, 9, 38, 0
1, 123600, Note_on_c, 9, 51, 89
1, 123839, Note_on_c, 9, 51, 0
1, 123840, Note_on_c, 9, 51, 101
1, 123840, Note_on_c, 9, 36, 94
1, 124079, Note_on_c, 9, 51, 0
1, 124080, Note_on_c, 9, 51, 84
1, 124304, Note_on_c, 9, 51, 0
1, 124305, Note_on_c, 9, 54, 103
1, 124319, Note_on_c, 9, 36, 0
1, 124320, Note_on_c, 9, 38, 123
1, 124334, Note_on_c, 9, 54, 0
1, 124334, Note_on_c, 9, 38, 0
1, 124335, Note_on_c, 9, 51, 104
1, 124559, Note_on_c, 9, 51, 0
1, 124560, Note_on_c, 9, 51, 73
1, 124560, Note_on_c, 9, 36, 63
1, 124799, Note_on_c, 9, 51, 0
1, 124799, Note_on_c, 9, 36, 0
1, 124800, Note_on_c, 9, 51, 104
1, 124800, Note_on_c, 9, 36, 86
1, 125039, Note_on_c, 9, 51, 0
1, 125040, Note_on_c, 9, 51, 78
1, 125264, Note_on_c, 9, 51, 0
1, 125265, Note_on_c, 9, 54, 101
1, 125279, Note_on_c, 9, 36, 0
1, 125280, Note_on_c, 9, 38, 121
1, 125294, Note_on_c, 9, 54, 0
1, 125294, Note_on_c, 9, 38, 0
1, 125295, Note_on_c, 9, 51, 107
1, 125519, Note_on_c, 9, 51, 0
1, 125520, Note_on_c, 9, 51, 73
1, 125759, Note_on_c, 9, 51, 0
1, 125760, Note_on_c, 9, 51, 104
1, 125760, Note_on_c, 9, 36, 94
1, 125984, Note_on_c, 9, 51, 0
1, 125985, Note_on_c, 9, 38, 41
1, 126000, Note_on_c, 9, 51, 82
1, 126089, Note_on_c, 9, 38, 0
1, 126089, Note_on_c, 9, 51, 0
1, 126090, Note_on_c, 9, 38, 61
1, 126164, Note_on_c, 9, 38, 0
1, 126165, Note_on_c, 9, 38, 79
1, 126224, Note_on_c, 9, 38, 0
1, 126225, Note_on_c, 9, 54, 103
1, 126239, Note_on_c, 9, 36, 0
1, 126240, Note_on_c, 9, 38, 123
1, 126240, Note_on_c, 9, 57, 109
1, 126480, Note_on_c, 9, 36, 63
1, 126719, Note_on_c, 9, 54, 0
1, 126719, Note_on_c, 9, 38, 0
1, 126719, Note_on_c, 9, 57, 0
1, 126719, Note_on_c, 9, 36, 0
1, 126720, Note_on_c, 9, 49, 113
1, 126720, Note_on_c, 9, 36, 86
1, 126734, Note_on_c, 9, 49, 0
1, 126735, Note_on_c, 9, 38, 114
1, 126959, Note_on_c, 9, 38, 0
1, 126960, Note_on_c, 9, 51, 82
1, 127184, Note_on_c, 9, 51, 0
1, 127185, Note_on_c, 9, 54, 101
1, 127199, Note_on_c, 9, 36, 0
1, 127200, Note_on_c, 9, 38, 121
1, 127200, Note_on_c, 9, 51, 116
1, 127319, Note_on_c, 9, 54, 0
1, 127319, Note_on_c, 9, 38, 0
1, 127319, Note_on_c, 9, 51, 0
1, 127320, Note_on_c, 9, 41, 83
1, 127679, Note_on_c, 9, 41, 0
1, 127680, Note_on_c, 9, 57, 113
1, 127680, Note_on_c, 9, 36, 94
1, 127919, Note_on_c, 9, 57, 0
1, 127920, Note_on_c, 9, 51, 75
1, 128144, Note_on_c, 9, 51, 0
1, 128145, Note_on_c, 9, 54, 103
1, 128159, Note_on_c, 9, 36, 0
1, 128160, Note_on_c, 9, 38, 123
1, 128174, Note_on_c, 9, 54, 0
1, 128174, Note_on_c, 9, 38, 0
1, 128175, Note_on_c, 9, 51, 116
1, 128399, Note_on_c, 9, 51, 0
1, 128400, Note_on_c, 9, 51, 93
1, 128400, Note_on_c, 9, 36, 63
1, 128639, Note_on_c, 9, 51, 0
1, 128639, Note_on_c, 9, 36, 0
1, 128640, Note_on_c, 9, 51, 107
1, 128640, Note_on_c, 9, 36, 86
1, 128879, Note_on_c, 9, 51, 0
1, 128880, Note_on_c, 9, 51, 82
1, 129104, Note_on_c, 9, 51, 0
1, 129105, Note_on_c, 9, 54, 101
1, 129119, Note_on_c, 9, 36, 0
1, 129120, Note_on_c, 9, 38, 121
1, 129134, Note_on_c, 9, 54, 0
1, 129134, Note_on_c, 9, 38, 0
1, 129135, Note_on_c, 9, 51, 119
1, 129359, Note_on_c, 9, 51, 0
1, 129360, Note_on_c, 9, 51, 81
1, 129360, Note_on_c, 9, 36, 59
1, 129599, Note_on_c, 9, 51, 0
1, 129599, Note_on_c, 9, 36, 0
1, 129600, Note_on_c, 9, 51, 107
1, 129600, Note_on_c, 9, 36, 94
1, 129839, Note_on_c, 9, 51, 0
1, 129840, Note_on_c, 9, 51, 84
1, 130064, Note_on_c, 9, 51, 0
1, 130065, Note_on_c, 9, 54, 103
1, 130065, Note_on_c, 9, 51, 101
1, 130079, Note_on_c, 9, 36, 0
1, 130080, Note_on_c, 9, 38, 123
1, 130319, Note_on_c, 9, 54, 0
1, 130319, Note_on_c, 9, 51, 0
1, 130319, Note_on_c, 9, 38, 0
1, 130320, Note_on_c, 9, 51, 78
1, 130320, Note_on_c, 9, 36, 63
1, 130559, Note_on_c, 9, 51, 0
1, 130559, Note_on_c, 9, 36, 0
1, 130560, Note_on_c, 9, 51, 104
1, 130560, Note_on_c, 9, 36, 86
1, 130799, Note_on_c, 9, 51, 0
1, 130800, Note_on_c, 9, 51, 85
1, 131024, Note_on_c, 9, 51, 0
1, 131025, Note_on_c, 9, 54, 101
1, 131025, Note_on_c, 9, 51, 101
1, 131039, Note_on_c, 9, 36, 0
1, 131040, Note_on_c, 9, 38, 121
1, 131279, Note_on_c, 9, 54, 0
1, 131279, Note_on_c, 9, 51, 0
1, 131279, Note_on_c, 9, 38, 0
1, 131280, Note_on_c, 9, 51, 89
1, 131280, Note_on_c, 9, 36, 59
1, 131519, Note_on_c, 9, 51, 0
1, 131519, Note_on_c, 9, 36, 0
1, 131520, Note_on_c, 9, 51, 101
1, 131520, Note_on_c, 9, 36, 94
1, 131759, Note_on_c, 9, 51, 0
1, 131760, Note_on_c, 9, 51, 84
1, 131984, Note_on_c, 9, 51, 0
1, 131985, Note_on_c, 9, 54, 103
1, 131999, Note_on_c, 9, 36, 0
1, 132000, Note_on_c, 9, 38, 123
1, 132014, Note_on_c, 9, 54, 0
1, 132014, Note_on_c, 9, 38, 0
1, 132015, Note_on_c, 9, 51, 104
1, 132239, Note_on_c, 9, 51, 0
1, 132240, Note_on_c, 9, 51, 73
1, 132240, Note_on_c, 9, 36, 63
1, 132479, Note_on_c, 9, 51, 0
1, 132479, Note_on_c, 9, 36, 0
1, 132480, Note_on_c, 9, 51, 104
1, 132480, Note_on_c, 9, 36, 86
1, 132719, Note_on_c, 9, 51, 0
1, 132720, Note_on_c, 9, 51, 78
1, 132944, Note_on_c, 9, 51, 0
1, 132945, Note_on_c, 9, 54, 101
1, 132959, Note_on_c, 9, 36, 0
1, 132960, Note_on_c, 9, 38, 121
1, 132974, Note_on_c, 9, 54, 0
1, 132974, Note_on_c, 9, 38, 0
1, 132975, Note_on_c, 9, 51, 107
1, 133199, Note_on_c, 9, 51, 0
1, 133200, Note_on_c, 9, 51, 73
1, 133200, Note_on_c, 9, 36, 59
1, 133439, Note_on_c, 9, 51, 0
1, 133439, Note_on_c, 9, 36, 0
1, 133440, Note_on_c, 9, 51, 104
1, 133440, Note_on_c, 9, 36, 94
1, 133679, Note_on_c, 9, 51, 0
1, 133680, Note_on_c, 9, 51, 82
1, 133904, Note_on_c, 9, 51, 0
1, 133905, Note_on_c, 9, 54, 103
1, 133919, Note_on_c, 9, 36, 0
1, 133920, Note_on_c, 9, 38, 123
1, 133934, Note_on_c, 9, 54, 0
1, 133934, Note_on_c, 9, 38, 0
1, 133935, Note_on_c, 9, 51, 107
1, 134159, Note_on_c, 9, 51, 0
1, 134160, Note_on_c, 9, 51, 82
1, 134160, Note_on_c, 9, 36, 63
1, 134399, Note_on_c, 9, 51, 0
1, 134399, Note_on_c, 9, 36, 0
1, 134400, Note_on_c, 9, 51, 99
1, 134400, Note_on_c, 9, 36, 86
1, 134639, Note_on_c, 9, 51, 0
1, 134640, Note_on_c, 9, 51, 82
1, 134654, Note_on_c, 9, 51, 0
1, 134655, Note_on_c, 9, 38, 38
1, 134699, Note_on_c, 9, 38, 0
1, 134715, Note_on_c, 9, 38, 51
1, 134759, Note_on_c, 9, 38, 0
1, 134790, Note_on_c, 9, 38, 67
1, 134849, Note_on_c, 9, 38, 0
1, 134865, Note_on_c, 9, 54, 101
1, 134879, Note_on_c, 9, 36, 0
1, 134880, Note_on_c, 9, 38, 121
1, 134999, Note_on_c, 9, 54, 0
1, 134999, Note_on_c, 9, 38, 0
1, 135000, Note_on_c, 9, 38, 106
1, 135105, Note_on_c, 9, 43, 122
1, 135120, Note_on_c, 9, 36, 59
1, 135329, Note_on_c, 9, 38, 0
1, 135345, Note_on_c, 9, 49, 97
1, 135359, Note_on_c, 9, 43, 0
1, 135359, Note_on_c, 9, 36, 0
1, 135359, Note_on_c, 9, 49, 0
1, 135360, Note_on_c, 9, 36, 94
1, 135600, Note_on_c, 9, 51, 75
1, 135824, Note_on_c, 9, 51, 0
1, 135825, Note_on_c, 9, 54, 103
1, 135839, Note_on_c, 9, 36, 0
1, 135840, Note_on_c, 9, 38, 123
1, 135854, Note_on_c, 9, 54, 0
1, 135854, Note_on_c, 9, 38, 0
1, 135855, Note_on_c, 9, 51, 116
1, 136079, Note_on_c, 9, 51, 0
1, 136080, Note_on_c, 9, 49, 97
1, 136080, Note_on_c, 9, 36, 92
1, 136319, Note_on_c, 9, 49, 0
1, 136319, Note_on_c, 9, 36, 0
1, 136320, Note_on_c, 9, 51, 107
1, 136559, Note_on_c, 9, 51, 0
1, 136560, Note_on_c, 9, 51, 82
1, 136784, Note_on_c, 9, 51, 0
1, 136785, Note_on_c, 9, 54, 101
1, 136800, Note_on_c, 9, 38, 121
1, 136814, Note_on_c, 9, 54, 0
1, 136814, Note_on_c, 9, 38, 0
1, 136815, Note_on_c, 9, 51, 119
1, 137039, Note_on_c, 9, 51, 0
1, 137040, Note_on_c, 9, 51, 81
1, 137040, Note_on_c, 9, 36, 59
1, 137279, Note_on_c, 9, 51, 0
1, 137279, Note_on_c, 9, 36, 0
1, 137280, Note_on_c, 9, 49, 107
1, 137280, Note_on_c, 9, 36, 94
1, 137519, Note_on_c, 9, 49, 0
1, 137520, Note_on_c, 9, 51, 84
1, 137744, Note_on_c, 9, 51, 0
1, 137745, Note_on_c, 9, 54, 103
1, 137745, Note_on_c, 9, 51, 101
1, 137759, Note_on_c, 9, 36, 0
1, 137760, Note_on_c, 9, 38, 123
1, 137999, Note_on_c, 9, 54, 0
1, 137999, Note_on_c, 9, 51, 0
1, 137999, Note_on_c, 9, 38, 0
1, 138000, Note_on_c, 9, 49, 99
1, 138000, Note_on_c, 9, 36, 89
1, 138239, Note_on_c, 9, 49, 0
1, 138239, Note_on_c, 9, 36, 0
1, 138240, Note_on_c, 9, 51, 104
1, 138479, Note_on_c, 9, 51, 0
1, 138480, Note_on_c, 9, 51, 85
1, 138480, Note_on_c, 9, 36, 86
1, 138704, Note_on_c, 9, 51, 0
1, 138705, Note_on_c, 9, 54, 101
1, 138705, Note_on_c, 9, 51, 101
1, 138719, Note_on_c, 9, 36, 0
1, 138720, Note_on_c, 9, 38, 121
1, 138959, Note_on_c, 9, 54, 0
1, 138959, Note_on_c, 9, 51, 0
1, 138959, Note_on_c, 9, 38, 0
1, 138960, Note_on_c, 9, 51, 89
1, 139184, Note_on_c, 9, 51, 0
1, 139185, Note_on_c, 9, 49, 101
1, 139199, Note_on_c, 9, 49, 0
1, 139200, Note_on_c, 9, 36, 94
1, 139440, Note_on_c, 9, 51, 84
1, 139664, Note_on_c, 9, 51, 0
1, 139665, Note_on_c, 9, 54, 103
1, 139679, Note_on_c, 9, 36, 0
1, 139680, Note_on_c, 9, 38, 123
1, 139694, Note_on_c, 9, 54, 0
1, 139694, Note_on_c, 9, 38, 0
1, 139695, Note_on_c, 9, 51, 104
1, 139904, Note_on_c, 9, 51, 0
1, 139905, Note_on_c, 9, 57, 98
1, 139919, Note_on_c, 9, 57, 0
1, 139920, Note_on_c, 9, 36, 85
1, 140159, Note_on_c, 9, 36, 0
1, 140160, Note_on_c, 9, 51, 104
1, 140399, Note_on_c, 9, 51, 0
1, 140400, Note_on_c, 9, 51, 78
1, 140624, Note_on_c, 9, 51, 0
1, 140625, Note_on_c, 9, 54, 101
1, 140640, Note_on_c, 9, 51, 107
1, 140879, Note_on_c, 9, 54, 0
1, 140879, Note_on_c, 9, 51, 0
1, 140880, Note_on_c, 9, 51, 73
1, 140880, Note_on_c, 9, 36, 59
1, 141104, Note_on_c, 9, 51, 0
1, 141105, Note_on_c, 9, 57, 104
1, 141119, Note_on_c, 9, 36, 0
1, 141119, Note_on_c, 9, 57, 0
1, 141120, Note_on_c, 9, 36, 94
1, 141360, Note_on_c, 9, 51, 82
1, 141584, Note_on_c, 9, 51, 0
1, 141585, Note_on_c, 9, 54, 103
1, 141599, Note_on_c, 9, 36, 0
1, 141600, Note_on_c, 9, 38, 123
1, 141614, Note_on_c, 9, 54, 0
1, 141614, Note_on_c, 9, 38, 0
1, 141615, Note_on_c, 9, 51, 116
1, 141839, Note_on_c, 9, 51, 0
1, 141840, Note_on_c, 9, 51, 89
1, 142079, Note_on_c, 9, 51, 0
1, 142080, Note_on_c, 9, 51, 113
1, 142319, Note_on_c, 9, 51, 0
1, 142320, Note_on_c, 9, 51, 82
1, 142320, Note_on_c, 9, 36, 86
1, 142544, Note_on_c, 9, 51, 0
1, 142545, Note_on_c, 9, 54, 101
1, 142559, Note_on_c, 9, 36, 0
1, 142560, Note_on_c, 9, 38, 123
1, 142560, Note_on_c, 9, 51, 116
1, 142799, Note_on_c, 9, 54, 0
1, 142799, Note_on_c, 9, 38, 0
1, 142799, Note_on_c, 9, 51, 0
1, 142800, Note_on_c, 9, 51, 82
1, 142800, Note_on_c, 9, 36, 59
1, 143024, Note_on_c, 9, 51, 0
1, 143025, Note_on_c, 9, 57, 103
1, 143039, Note_on_c, 9, 36, 0
1, 143039, Note_on_c, 9, 57, 0
1, 143040, Note_on_c, 9, 36, 94
1, 143280, Note_on_c, 9, 51, 75
1, 143504, Note_on_c, 9, 51, 0
1, 143505, Note_on_c, 9, 54, 103
1, 143519, Note_on_c, 9, 36, 0
1, 143520, Note_on_c, 9, 38, 123
1, 143534, Note_on_c, 9, 54, 0
1, 143534, Note_on_c, 9, 38, 0
1, 143535, Note_on_c, 9, 51, 116
1, 143759, Note_on_c, 9, 51, 0
1, 143760, Note_on_c, 9, 51, 93
1, 143760, Note_on_c, 9, 36, 63
1, 143999, Note_on_c, 9, 51, 0
1, 143999, Note_on_c, 9, 36, 0
1, 144000, Note_on_c, 9, 51, 107
1, 144000, Note_on_c, 9, 36, 86
1, 144239, Note_on_c, 9, 51, 0
1, 144240, Note_on_c, 9, 51, 82
1, 144464, Note_on_c, 9, 51, 0
1, 144465, Note_on_c, 9, 54, 101
1, 144479, Note_on_c, 9, 36, 0
1, 144480, Note_on_c, 9, 38, 121
1, 144494, Note_on_c, 9, 54, 0
1, 144494, Note_on_c, 9, 38, 0
1, 144495, Note_on_c, 9, 51, 119
1, 144719, Note_on_c, 9, 51, 0
1, 144720, Note_on_c, 9, 51, 81
1, 144720, Note_on_c, 9, 36, 59
1, 144959, Note_on_c, 9, 51, 0
1, 144959, Note_on_c, 9, 36, 0
1, 144960, Note_on_c, 9, 51, 107
1, 144960, Note_on_c, 9, 36, 94
1, 145199, Note_on_c, 9, 51, 0
1, 145200, Note_on_c, 9, 51, 84
1, 145424, Note_on_c, 9, 51, 0
1, 145425, Note_on_c, 9, 54, 103
1, 145425, Note_on_c, 9, 51, 101
1, 145439, Note_on_c, 9, 36, 0
1, 145440, Note_on_c, 9, 38, 123
1, 145679, Note_on_c, 9, 54, 0
1, 145679, Note_on_c, 9, 51, 0
1, 145679, Note_on_c, 9, 38, 0
1, 145680, Note_on_c, 9, 51, 78
1, 145680, Note_on_c, 9, 36, 86
1, 145919, Note_on_c, 9, 51, 0
1, 145919, Note_on_c, 9, 36, 0
1, 145920, Note_on_c, 9, 51, 104
1, 146159, Note_on_c, 9, 51, 0
1, 146160, Note_on_c, 9, 51, 85
1, 146384, Note_on_c, 9, 51, 0
1, 146385, Note_on_c, 9, 54, 101
1, 146385, Note_on_c, 9, 51, 101
1, 146400, Note_on_c, 9, 38, 121
1, 146639, Note_on_c, 9, 54, 0
1, 146639, Note_on_c, 9, 51, 0
1, 146639, Note_on_c, 9, 38, 0
1, 146640, Note_on_c, 9, 51, 89
1, 146760, Note_on_c, 9, 36, 59
1, 146879, Note_on_c, 9, 51, 0
1, 146879, Note_on_c, 9, 36, 0
1, 146880, Note_on_c, 9, 51, 101
1, 146880, Note_on_c, 9, 36, 94
1, 147119, Note_on_c, 9, 51, 0
1, 147120, Note_on_c, 9, 51, 84
1, 147344, Note_on_c, 9, 51, 0
1, 147345, Note_on_c, 9, 54, 103
1, 147359, Note_on_c, 9, 36, 0
1, 147360, Note_on_c, 9, 38, 123
1, 147374, Note_on_c, 9, 54, 0
1, 147374, Note_on_c, 9, 38, 0
1, 147375, Note_on_c, 9, 51, 104
1, 147599, Note_on_c, 9, 51, 0
1, 147600, Note_on_c, 9, 51, 73
1, 147600, Note_on_c, 9, 36, 63
1, 147839, Note_on_c, 9, 51, 0
1, 147839, Note_on_c, 9, 36, 0
1, 147840, Note_on_c, 9, 51, 104
1, 147840, Note_on_c, 9, 36, 86
1, 148079, Note_on_c, 9, 51, 0
1, 148080, Note_on_c, 9, 51, 78
1, 148304, Note_on_c, 9, 51, 0
1, 148305, Note_on_c, 9, 54, 101
1, 148319, Note_on_c, 9, 36, 0
1, 148320, Note_on_c, 9, 38, 121
1, 148320, Note_on_c, 9, 36, 59
1, 148334, Note_on_c, 9, 54, 0
1, 148334, Note_on_c, 9, 38, 0
1, 148335, Note_on_c, 9, 51, 107
1, 148559, Note_on_c, 9, 51, 0
1, 148560, Note_on_c, 9, 51, 73
1, 148799, Note_on_c, 9, 36, 0
1, 148799, Note_on_c, 9, 51, 0
1, 148800, Note_on_c, 9, 51, 104
1, 148800, Note_on_c, 9, 36, 94
1, 149279, Note_on_c, 9, 51, 0
1, 149279, Note_on_c, 9, 36, 0
1, 149280, End_track
0, 0, End_of_file
