0, 0, Header, 1, 1, 480
1, 0, Start_track
1, 0, Time_signature, 4, 2, 24, 8
1, 0, Key_signature, 0, "major"
1, 0, Tempo, 500000
1, 0, Control_c, 9, 121, 0
1, 0, Program_c, 9, 0
1, 0, Control_c, 9, 7, 100
1, 0, Control_c, 9, 10, 64
1, 0, Control_c, 9, 91, 0
1, 0, Control_c, 9, 93, 0
1, 0, MIDI_port, 0
1, 24450, Note_on_c, 9, 38, 80
1, 24450, Note_on_c, 9, 40, 105
1, 24479, Note_on_c, 9, 38, 0
1, 24479, Note_on_c, 9, 40, 0
1, 24495, Note_on_c, 9, 38, 97
1, 24495, Note_on_c, 9, 40, 122
1, 24719, Note_on_c, 9, 38, 0
1, 24719, Note_on_c, 9, 40, 0
1, 24960, Note_on_c, 9, 56, 81
1, 24960, Note_on_c, 9, 35, 112
1, 24974, Note_on_c, 9, 56, 0
1, 24975, Note_on_c, 9, 49, 89
1, 25199, Note_on_c, 9, 49, 0
1, 25200, Note_on_c, 9, 42, 72
1, 25439, Note_on_c, 9, 35, 0
1, 25439, Note_on_c, 9, 42, 0
1, 25440, Note_on_c, 9, 38, 87
1, 25440, Note_on_c, 9, 40, 112
1, 25440, Note_on_c, 9, 56, 93
1, 25440, Note_on_c, 9, 42, 70
1, 25679, Note_on_c, 9, 38, 0
1, 25679, Note_on_c, 9, 40, 0
1, 25679, Note_on_c, 9, 56, 0
1, 25679, Note_on_c, 9, 42, 0
1, 25680, Note_on_c, 9, 42, 69
1, 25919, Note_on_c, 9, 42, 0
1, 25920, Note_on_c, 9, 56, 87
1, 25920, Note_on_c, 9, 42, 86
1, 25920, Note_on_c, 9, 35, 112
1, 26159, Note_on_c, 9, 56, 0
1, 26159, Note_on_c, 9, 42, 0
1, 26160, Note_on_c, 9, 42, 60
1, 26399, Note_on_c, 9, 35, 0
1, 26399, Note_on_c, 9, 42, 0
1, 26400, Note_on_c, 9, 38, 87
1, 26400, Note_on_c, 9, 40, 112
1, 26400, Note_on_c, 9, 56, 97
1, 26400, Note_on_c, 9, 42, 98
1, 26639, Note_on_c, 9, 38, 0
1, 26639, Note_on_c, 9, 40, 0
1, 26639, Note_on_c, 9, 56, 0
1, 26639, Note_on_c, 9, 42, 0
1, 26640, Note_on_c, 9, 42, 67
1, 26879, Note_on_c, 9, 42, 0
1, 26880, Note_on_c, 9, 56, 85
1, 26880, Note_on_c, 9, 42, 92
1, 26880, Note_on_c, 9, 35, 112
1, 27119, Note_on_c, 9, 56, 0
1, 27119, Note_on_c, 9, 42, 0
1, 27120, Note_on_c, 9, 42, 62
1, 27359, Note_on_c, 9, 35, 0
1, 27359, Note_on_c, 9, 42, 0
1, 27360, Note_on_c, 9, 38, 87
1, 27360, Note_on_c, 9, 40, 112
1, 27360, Note_on_c, 9, 56, 101
1, 27360, Note_on_c, 9, 42, 98
1, 27599, Note_on_c, 9, 38, 0
1, 27599, Note_on_c, 9, 40, 0
1, 27599, Note_on_c, 9, 56, 0
1, 27599, Note_on_c, 9, 42, 0
1, 27600, Note_on_c, 9, 42, 76
1, 27839, Note_on_c, 9, 42, 0
1, 27840, Note_on_c, 9, 56, 73
1, 27840, Note_on_c, 9, 42, 98
1, 27840, Note_on_c, 9, 35, 102
1, 28079, Note_on_c, 9, 56, 0
1, 28079, Note_on_c, 9, 42, 0
1, 28079, Note_on_c, 9, 35, 0
1, 28080, Note_on_c, 9, 56, 76
1, 28080, Note_on_c, 9, 42, 72
1, 28080, Note_on_c, 9, 35, 105
1, 28319, Note_on_c, 9, 56, 0
1, 28319, Note_on_c, 9, 42, 0
1, 28319, Note_on_c, 9, 35, 0
1, 28320, Note_on_c, 9, 38, 87
1, 28320, Note_on_c, 9, 40, 112
1, 28320, Note_on_c, 9, 56, 91
1, 28320, Note_on_c, 9, 42, 95
1, 28559, Note_on_c, 9, 38, 0
1, 28559, Note_on_c, 9, 40, 0
1, 28559, Note_on_c, 9, 56, 0
1, 28559, Note_on_c, 9, 42, 0
1, 28560, Note_on_c, 9, 42, 69
1, 28799, Note_on_c, 9, 42, 0
1, 28800, Note_on_c, 9, 56, 95
1, 28800, Note_on_c, 9, 42, 98
1, 28800, Note_on_c, 9, 35, 112
1, 29039, Note_on_c, 9, 56, 0
1, 29039, Note_on_c, 9, 42, 0
1, 29040, Note_on_c, 9, 42, 52
1, 29279, Note_on_c, 9, 35, 0
1, 29279, Note_on_c, 9, 42, 0
1, 29280, Note_on_c, 9, 38, 87
1, 29280, Note_on_c, 9, 40, 112
1, 29280, Note_on_c, 9, 56, 99
1, 29280, Note_on_c, 9, 42, 101
1, 29519, Note_on_c, 9, 38, 0
1, 29519, Note_on_c, 9, 40, 0
1, 29519, Note_on_c, 9, 56, 0
1, 29519, Note_on_c, 9, 42, 0
1, 29520, Note_on_c, 9, 42, 74
1, 29759, Note_on_c, 9, 42, 0
1, 29760, Note_on_c, 9, 56, 89
1, 29760, Note_on_c, 9, 42, 101
1, 29760, Note_on_c, 9, 35, 112
1, 29999, Note_on_c, 9, 56, 0
1, 29999, Note_on_c, 9, 42, 0
1, 30000, Note_on_c, 9, 42, 69
1, 30239, Note_on_c, 9, 35, 0
1, 30239, Note_on_c, 9, 42, 0
1, 30240, Note_on_c, 9, 38, 87
1, 30240, Note_on_c, 9, 40, 112
1, 30240, Note_on_c, 9, 56, 97
1, 30240, Note_on_c, 9, 42, 98
1, 30479, Note_on_c, 9, 38, 0
1, 30479, Note_on_c, 9, 40, 0
1, 30479, Note_on_c, 9, 56, 0
1, 30479, Note_on_c, 9, 42, 0
1, 30480, Note_on_c, 9, 42, 74
1, 30719, Note_on_c, 9, 42, 0
1, 30720, Note_on_c, 9, 56, 95
1, 30720, Note_on_c, 9, 42, 95
1, 30720, Note_on_c, 9, 35, 112
1, 30959, Note_on_c, 9, 56, 0
1, 30959, Note_on_c, 9, 42, 0
1, 30960, Note_on_c, 9, 42, 67
1, 31199, Note_on_c, 9, 35, 0
1, 31199, Note_on_c, 9, 42, 0
1, 31200, Note_on_c, 9, 38, 87
1, 31200, Note_on_c, 9, 40, 112
1, 31200, Note_on_c, 9, 56, 97
1, 31200, Note_on_c, 9, 42, 101
1, 31439, Note_on_c, 9, 38, 0
1, 31439, Note_on_c, 9, 40, 0
1, 31439, Note_on_c, 9, 56, 0
1, 31439, Note_on_c, 9, 42, 0
1, 31440, Note_on_c, 9, 42, 72
1, 31560, Note_on_c, 9, 35, 104
1, 31679, Note_on_c, 9, 42, 0
1, 31679, Note_on_c, 9, 35, 0
1, 31680, Note_on_c, 9, 56, 70
1, 31680, Note_on_c, 9, 42, 101
1, 31680, Note_on_c, 9, 35, 109
1, 31919, Note_on_c, 9, 56, 0
1, 31919, Note_on_c, 9, 42, 0
1, 31919, Note_on_c, 9, 35, 0
1, 31920, Note_on_c, 9, 56, 73
1, 31920, Note_on_c, 9, 42, 70
1, 31920, Note_on_c, 9, 35, 112
1, 32159, Note_on_c, 9, 56, 0
1, 32159, Note_on_c, 9, 42, 0
1, 32159, Note_on_c, 9, 35, 0
1, 32160, Note_on_c, 9, 38, 87
1, 32160, Note_on_c, 9, 40, 112
1, 32160, Note_on_c, 9, 56, 89
1, 32160, Note_on_c, 9, 42, 98
1, 32399, Note_on_c, 9, 38, 0
1, 32399, Note_on_c, 9, 40, 0
1, 32399, Note_on_c, 9, 56, 0
1, 32399, Note_on_c, 9, 42, 0
1, 32400, Note_on_c, 9, 46, 69
1, 32639, Note_on_c, 9, 46, 0
1, 32640, Note_on_c, 9, 56, 97
1, 32640, Note_on_c, 9, 42, 70
1, 32640, Note_on_c, 9, 35, 112
1, 32879, Note_on_c, 9, 56, 0
1, 32879, Note_on_c, 9, 42, 0
1, 32880, Note_on_c, 9, 42, 80
1, 33119, Note_on_c, 9, 35, 0
1, 33119, Note_on_c, 9, 42, 0
1, 33120, Note_on_c, 9, 38, 87
1, 33120, Note_on_c, 9, 40, 112
1, 33120, Note_on_c, 9, 56, 80
1, 33120, Note_on_c, 9, 42, 108
1, 33359, Note_on_c, 9, 38, 0
1, 33359, Note_on_c, 9, 40, 0
1, 33359, Note_on_c, 9, 56, 0
1, 33359, Note_on_c, 9, 42, 0
1, 33360, Note_on_c, 9, 42, 76
1, 33599, Note_on_c, 9, 42, 0
1, 33600, Note_on_c, 9, 56, 80
1, 33600, Note_on_c, 9, 42, 98
1, 33600, Note_on_c, 9, 35, 112
1, 33839, Note_on_c, 9, 56, 0
1, 33839, Note_on_c, 9, 42, 0
1, 33840, Note_on_c, 9, 42, 74
1, 34079, Note_on_c, 9, 35, 0
1, 34079, Note_on_c, 9, 42, 0
1, 34080, Note_on_c, 9, 38, 87
1, 34080, Note_on_c, 9, 40, 112
1, 34080, Note_on_c, 9, 56, 87
1, 34080, Note_on_c, 9, 42, 104
1, 34319, Note_on_c, 9, 38, 0
1, 34319, Note_on_c, 9, 40, 0
1, 34319, Note_on_c, 9, 56, 0
1, 34319, Note_on_c, 9, 42, 0
1, 34320, Note_on_c, 9, 42, 74
1, 34559, Note_on_c, 9, 42, 0
1, 34560, Note_on_c, 9, 56, 87
1, 34560, Note_on_c, 9, 42, 108
1, 34560, Note_on_c, 9, 35, 112
1, 34799, Note_on_c, 9, 56, 0
1, 34799, Note_on_c, 9, 42, 0
1, 34800, Note_on_c, 9, 42, 74
1, 35039, Note_on_c, 9, 35, 0
1, 35039, Note_on_c, 9, 42, 0
1, 35040, Note_on_c, 9, 38, 87
1, 35040, Note_on_c, 9, 40, 112
1, 35040, Note_on_c, 9, 56, 87
1, 35040, Note_on_c, 9, 42, 108
1, 35279, Note_on_c, 9, 38, 0
1, 35279, Note_on_c, 9, 40, 0
1, 35279, Note_on_c, 9, 56, 0
1, 35279, Note_on_c, 9, 42, 0
1, 35280, Note_on_c, 9, 42, 76
1, 35519, Note_on_c, 9, 42, 0
1, 35520, Note_on_c, 9, 56, 91
1, 35520, Note_on_c, 9, 42, 104
1, 35520, Note_on_c, 9, 35, 101
1, 35759, Note_on_c, 9, 56, 0
1, 35759, Note_on_c, 9, 42, 0
1, 35759, Note_on_c, 9, 35, 0
1, 35760, Note_on_c, 9, 56, 91
1, 35760, Note_on_c, 9, 42, 76
1, 35760, Note_on_c, 9, 35, 112
1, 35999, Note_on_c, 9, 56, 0
1, 35999, Note_on_c, 9, 42, 0
1, 35999, Note_on_c, 9, 35, 0
1, 36000, Note_on_c, 9, 38, 87
1, 36000, Note_on_c, 9, 40, 112
1, 36000, Note_on_c, 9, 56, 91
1, 36000, Note_on_c, 9, 42, 108
1, 36239, Note_on_c, 9, 38, 0
1, 36239, Note_on_c, 9, 40, 0
1, 36239, Note_on_c, 9, 56, 0
1, 36239, Note_on_c, 9, 42, 0
1, 36240, Note_on_c, 9, 42, 76
1, 36479, Note_on_c, 9, 42, 0
1, 36480, Note_on_c, 9, 56, 91
1, 36480, Note_on_c, 9, 42, 108
1, 36480, Note_on_c, 9, 35, 112
1, 36719, Note_on_c, 9, 56, 0
1, 36719, Note_on_c, 9, 42, 0
1, 36720, Note_on_c, 9, 42, 70
1, 36959, Note_on_c, 9, 35, 0
1, 36959, Note_on_c, 9, 42, 0
1, 36960, Note_on_c, 9, 38, 87
1, 36960, Note_on_c, 9, 40, 112
1, 36960, Note_on_c, 9, 56, 91
1, 36960, Note_on_c, 9, 42, 101
1, 37199, Note_on_c, 9, 38, 0
1, 37199, Note_on_c, 9, 40, 0
1, 37199, Note_on_c, 9, 56, 0
1, 37199, Note_on_c, 9, 42, 0
1, 37200, Note_on_c, 9, 42, 74
1, 37439, Note_on_c, 9, 42, 0
1, 37440, Note_on_c, 9, 56, 91
1, 37440, Note_on_c, 9, 42, 104
1, 37440, Note_on_c, 9, 35, 112
1, 37679, Note_on_c, 9, 56, 0
1, 37679, Note_on_c, 9, 42, 0
1, 37680, Note_on_c, 9, 42, 74
1, 37919, Note_on_c, 9, 35, 0
1, 37919, Note_on_c, 9, 42, 0
1, 37920, Note_on_c, 9, 38, 87
1, 37920, Note_on_c, 9, 40, 112
1, 37920, Note_on_c, 9, 56, 91
1, 37920, Note_on_c, 9, 42, 104
1, 38159, Note_on_c, 9, 38, 0
1, 38159, Note_on_c, 9, 40, 0
1, 38159, Note_on_c, 9, 56, 0
1, 38159, Note_on_c, 9, 42, 0
1, 38160, Note_on_c, 9, 42, 70
1, 38399, Note_on_c, 9, 42, 0
1, 38400, Note_on_c, 9, 56, 91
1, 38400, Note_on_c, 9, 42, 98
1, 38400, Note_on_c, 9, 35, 112
1, 38639, Note_on_c, 9, 56, 0
1, 38639, Note_on_c, 9, 42, 0
1, 38640, Note_on_c, 9, 42, 53
1, 38879, Note_on_c, 9, 35, 0
1, 38879, Note_on_c, 9, 42, 0
1, 38880, Note_on_c, 9, 38, 87
1, 38880, Note_on_c, 9, 40, 112
1, 38880, Note_on_c, 9, 56, 91
1, 38880, Note_on_c, 9, 42, 95
1, 39119, Note_on_c, 9, 38, 0
1, 39119, Note_on_c, 9, 40, 0
1, 39119, Note_on_c, 9, 56, 0
1, 39119, Note_on_c, 9, 42, 0
1, 39120, Note_on_c, 9, 42, 67
1, 39240, Note_on_c, 9, 35, 102
1, 39359, Note_on_c, 9, 42, 0
1, 39359, Note_on_c, 9, 35, 0
1, 39360, Note_on_c, 9, 56, 91
1, 39360, Note_on_c, 9, 42, 101
1, 39360, Note_on_c, 9, 35, 111
1, 39599, Note_on_c, 9, 56, 0
1, 39599, Note_on_c, 9, 42, 0
1, 39599, Note_on_c, 9, 35, 0
1, 39600, Note_on_c, 9, 56, 91
1, 39600, Note_on_c, 9, 42, 67
1, 39600, Note_on_c, 9, 35, 112
1, 39839, Note_on_c, 9, 56, 0
1, 39839, Note_on_c, 9, 42, 0
1, 39839, Note_on_c, 9, 35, 0
1, 39840, Note_on_c, 9, 38, 87
1, 39840, Note_on_c, 9, 40, 112
1, 39840, Note_on_c, 9, 56, 89
1, 39840, Note_on_c, 9, 42, 89
1, 40079, Note_on_c, 9, 38, 0
1, 40079, Note_on_c, 9, 40, 0
1, 40079, Note_on_c, 9, 56, 0
1, 40079, Note_on_c, 9, 42, 0
1, 40080, Note_on_c, 9, 46, 70
1, 40319, Note_on_c, 9, 46, 0
1, 40320, Note_on_c, 9, 56, 89
1, 40320, Note_on_c, 9, 42, 76
1, 40320, Note_on_c, 9, 35, 112
1, 40559, Note_on_c, 9, 56, 0
1, 40559, Note_on_c, 9, 42, 0
1, 40560, Note_on_c, 9, 42, 72
1, 40799, Note_on_c, 9, 35, 0
1, 40799, Note_on_c, 9, 42, 0
1, 40800, Note_on_c, 9, 38, 87
1, 40800, Note_on_c, 9, 40, 112
1, 40800, Note_on_c, 9, 56, 89
1, 40800, Note_on_c, 9, 42, 108
1, 41039, Note_on_c, 9, 38, 0
1, 41039, Note_on_c, 9, 40, 0
1, 41039, Note_on_c, 9, 56, 0
1, 41039, Note_on_c, 9, 42, 0
1, 41040, Note_on_c, 9, 42, 78
1, 41279, Note_on_c, 9, 42, 0
1, 41280, Note_on_c, 9, 56, 89
1, 41280, Note_on_c, 9, 42, 101
1, 41280, Note_on_c, 9, 35, 112
1, 41519, Note_on_c, 9, 56, 0
1, 41519, Note_on_c, 9, 42, 0
1, 41520, Note_on_c, 9, 42, 76
1, 41759, Note_on_c, 9, 35, 0
1, 41759, Note_on_c, 9, 42, 0
1, 41760, Note_on_c, 9, 38, 87
1, 41760, Note_on_c, 9, 40, 112
1, 41760, Note_on_c, 9, 56, 89
1, 41760, Note_on_c, 9, 42, 108
1, 41999, Note_on_c, 9, 38, 0
1, 41999, Note_on_c, 9, 40, 0
1, 41999, Note_on_c, 9, 56, 0
1, 41999, Note_on_c, 9, 42, 0
1, 42000, Note_on_c, 9, 42, 74
1, 42239, Note_on_c, 9, 42, 0
1, 42240, Note_on_c, 9, 56, 89
1, 42240, Note_on_c, 9, 42, 101
1, 42240, Note_on_c, 9, 35, 112
1, 42479, Note_on_c, 9, 56, 0
1, 42479, Note_on_c, 9, 42, 0
1, 42480, Note_on_c, 9, 42, 62
1, 42719, Note_on_c, 9, 35, 0
1, 42719, Note_on_c, 9, 42, 0
1, 42720, Note_on_c, 9, 38, 87
1, 42720, Note_on_c, 9, 40, 112
1, 42720, Note_on_c, 9, 56, 77
1, 42720, Note_on_c, 9, 42, 104
1, 42959, Note_on_c, 9, 38, 0
1, 42959, Note_on_c, 9, 40, 0
1, 42959, Note_on_c, 9, 56, 0
1, 42959, Note_on_c, 9, 42, 0
1, 42960, Note_on_c, 9, 42, 66
1, 43199, Note_on_c, 9, 42, 0
1, 43200, Note_on_c, 9, 56, 79
1, 43200, Note_on_c, 9, 42, 108
1, 43200, Note_on_c, 9, 35, 107
1, 43439, Note_on_c, 9, 56, 0
1, 43439, Note_on_c, 9, 42, 0
1, 43439, Note_on_c, 9, 35, 0
1, 43440, Note_on_c, 9, 56, 79
1, 43440, Note_on_c, 9, 42, 78
1, 43440, Note_on_c, 9, 35, 112
1, 43679, Note_on_c, 9, 56, 0
1, 43679, Note_on_c, 9, 42, 0
1, 43679, Note_on_c, 9, 35, 0
1, 43680, Note_on_c, 9, 38, 87
1, 43680, Note_on_c, 9, 40, 112
1, 43680, Note_on_c, 9, 56, 79
1, 43680, Note_on_c, 9, 42, 98
1, 43919, Note_on_c, 9, 38, 0
1, 43919, Note_on_c, 9, 40, 0
1, 43919, Note_on_c, 9, 56, 0
1, 43919, Note_on_c, 9, 42, 0
1, 43920, Note_on_c, 9, 42, 70
1, 44159, Note_on_c, 9, 42, 0
1, 44160, Note_on_c, 9, 56, 79
1, 44160, Note_on_c, 9, 42, 98
1, 44160, Note_on_c, 9, 35, 112
1, 44399, Note_on_c, 9, 56, 0
1, 44399, Note_on_c, 9, 42, 0
1, 44400, Note_on_c, 9, 42, 74
1, 44639, Note_on_c, 9, 35, 0
1, 44639, Note_on_c, 9, 42, 0
1, 44640, Note_on_c, 9, 38, 87
1, 44640, Note_on_c, 9, 40, 112
1, 44640, Note_on_c, 9, 56, 79
1, 44640, Note_on_c, 9, 42, 101
1, 44879, Note_on_c, 9, 38, 0
1, 44879, Note_on_c, 9, 40, 0
1, 44879, Note_on_c, 9, 56, 0
1, 44879, Note_on_c, 9, 42, 0
1, 44880, Note_on_c, 9, 42, 69
1, 45119, Note_on_c, 9, 42, 0
1, 45120, Note_on_c, 9, 56, 83
1, 45120, Note_on_c, 9, 42, 98
1, 45120, Note_on_c, 9, 35, 112
1, 45359, Note_on_c, 9, 56, 0
1, 45359, Note_on_c, 9, 42, 0
1, 45360, Note_on_c, 9, 42, 63
1, 45599, Note_on_c, 9, 35, 0
1, 45599, Note_on_c, 9, 42, 0
1, 45600, Note_on_c, 9, 38, 87
1, 45600, Note_on_c, 9, 40, 112
1, 45600, Note_on_c, 9, 56, 83
1, 45600, Note_on_c, 9, 42, 101
1, 45839, Note_on_c, 9, 38, 0
1, 45839, Note_on_c, 9, 40, 0
1, 45839, Note_on_c, 9, 56, 0
1, 45839, Note_on_c, 9, 42, 0
1, 45840, Note_on_c, 9, 42, 60
1, 46079, Note_on_c, 9, 42, 0
1, 46080, Note_on_c, 9, 56, 83
1, 46080, Note_on_c, 9, 42, 98
1, 46080, Note_on_c, 9, 35, 112
1, 46319, Note_on_c, 9, 56, 0
1, 46319, Note_on_c, 9, 42, 0
1, 46320, Note_on_c, 9, 42, 70
1, 46559, Note_on_c, 9, 35, 0
1, 46559, Note_on_c, 9, 42, 0
1, 46560, Note_on_c, 9, 38, 87
1, 46560, Note_on_c, 9, 40, 112
1, 46560, Note_on_c, 9, 56, 83
1, 46560, Note_on_c, 9, 42, 95
1, 46799, Note_on_c, 9, 38, 0
1, 46799, Note_on_c, 9, 40, 0
1, 46799, Note_on_c, 9, 56, 0
1, 46799, Note_on_c, 9, 42, 0
1, 46800, Note_on_c, 9, 42, 67
1, 46920, Note_on_c, 9, 35, 93
1, 47039, Note_on_c, 9, 42, 0
1, 47039, Note_on_c, 9, 35, 0
1, 47040, Note_on_c, 9, 46, 98
1, 47040, Note_on_c, 9, 56, 83
1, 47040, Note_on_c, 9, 35, 112
1, 47279, Note_on_c, 9, 46, 0
1, 47279, Note_on_c, 9, 56, 0
1, 47280, Note_on_c, 9, 38, 64
1, 47280, Note_on_c, 9, 40, 89
1, 47280, Note_on_c, 9, 56, 87
1, 47399, Note_on_c, 9, 38, 0
1, 47399, Note_on_c, 9, 40, 0
1, 47399, Note_on_c, 9, 56, 0
1, 47400, Note_on_c, 9, 38, 46
1, 47400, Note_on_c, 9, 40, 71
1, 47519, Note_on_c, 9, 35, 0
1, 47519, Note_on_c, 9, 38, 0
1, 47519, Note_on_c, 9, 40, 0
1, 47520, Note_on_c, 9, 38, 66
1, 47520, Note_on_c, 9, 40, 91
1, 47520, Note_on_c, 9, 56, 81
1, 47639, Note_on_c, 9, 38, 0
1, 47639, Note_on_c, 9, 40, 0
1, 47639, Note_on_c, 9, 56, 0
1, 47640, Note_on_c, 9, 38, 80
1, 47640, Note_on_c, 9, 40, 105
1, 47759, Note_on_c, 9, 38, 0
1, 47759, Note_on_c, 9, 40, 0
1, 47760, Note_on_c, 9, 38, 85
1, 47760, Note_on_c, 9, 40, 110
1, 47879, Note_on_c, 9, 38, 0
1, 47879, Note_on_c, 9, 40, 0
1, 47880, Note_on_c, 9, 38, 87
1, 47880, Note_on_c, 9, 40, 112
1, 47999, Note_on_c, 9, 38, 0
1, 47999, Note_on_c, 9, 40, 0
1, 48000, Note_on_c, 9, 56, 81
1, 48000, Note_on_c, 9, 35, 108
1, 48014, Note_on_c, 9, 56, 0
1, 48015, Note_on_c, 9, 57, 87
1, 48059, Note_on_c, 9, 57, 0
1, 48120, Note_on_c, 9, 42, 66
1, 48239, Note_on_c, 9, 42, 0
1, 48240, Note_on_c, 9, 46, 89
1, 48479, Note_on_c, 9, 35, 0
1, 48479, Note_on_c, 9, 46, 0
1, 48480, Note_on_c, 9, 38, 85
1, 48480, Note_on_c, 9, 40, 110
1, 48480, Note_on_c, 9, 56, 81
1, 48480, Note_on_c, 9, 42, 74
1, 48599, Note_on_c, 9, 38, 0
1, 48599, Note_on_c, 9, 40, 0
1, 48599, Note_on_c, 9, 56, 0
1, 48599, Note_on_c, 9, 42, 0
1, 48600, Note_on_c, 9, 42, 72
1, 48719, Note_on_c, 9, 42, 0
1, 48720, Note_on_c, 9, 46, 84
1, 48959, Note_on_c, 9, 46, 0
1, 48960, Note_on_c, 9, 56, 81
1, 48960, Note_on_c, 9, 42, 76
1, 48960, Note_on_c, 9, 35, 110
1, 49079, Note_on_c, 9, 56, 0
1, 49079, Note_on_c, 9, 42, 0
1, 49080, Note_on_c, 9, 42, 74
1, 49199, Note_on_c, 9, 42, 0
1, 49200, Note_on_c, 9, 46, 92
1, 49439, Note_on_c, 9, 35, 0
1, 49439, Note_on_c, 9, 46, 0
1, 49440, Note_on_c, 9, 38, 85
1, 49440, Note_on_c, 9, 40, 110
1, 49440, Note_on_c, 9, 56, 81
1, 49440, Note_on_c, 9, 42, 82
1, 49559, Note_on_c, 9, 38, 0
1, 49559, Note_on_c, 9, 40, 0
1, 49559, Note_on_c, 9, 56, 0
1, 49559, Note_on_c, 9, 42, 0
1, 49560, Note_on_c, 9, 42, 89
1, 49679, Note_on_c, 9, 42, 0
1, 49680, Note_on_c, 9, 46, 89
1, 49919, Note_on_c, 9, 46, 0
1, 49920, Note_on_c, 9, 56, 81
1, 49920, Note_on_c, 9, 42, 70
1, 49920, Note_on_c, 9, 35, 112
1, 50039, Note_on_c, 9, 56, 0
1, 50039, Note_on_c, 9, 42, 0
1, 50040, Note_on_c, 9, 42, 84
1, 50159, Note_on_c, 9, 42, 0
1, 50160, Note_on_c, 9, 46, 82
1, 50399, Note_on_c, 9, 35, 0
1, 50399, Note_on_c, 9, 46, 0
1, 50400, Note_on_c, 9, 38, 87
1, 50400, Note_on_c, 9, 40, 112
1, 50400, Note_on_c, 9, 56, 81
1, 50400, Note_on_c, 9, 42, 84
1, 50519, Note_on_c, 9, 38, 0
1, 50519, Note_on_c, 9, 40, 0
1, 50519, Note_on_c, 9, 56, 0
1, 50519, Note_on_c, 9, 42, 0
1, 50520, Note_on_c, 9, 42, 84
1, 50639, Note_on_c, 9, 42, 0
1, 50640, Note_on_c, 9, 46, 86
1, 50879, Note_on_c, 9, 46, 0
1, 50880, Note_on_c, 9, 56, 84
1, 50880, Note_on_c, 9, 42, 76
1, 50880, Note_on_c, 9, 35, 110
1, 50999, Note_on_c, 9, 56, 0
1, 50999, Note_on_c, 9, 42, 0
1, 51000, Note_on_c, 9, 42, 84
1, 51119, Note_on_c, 9, 42, 0
1, 51120, Note_on_c, 9, 46, 86
1, 51120, Note_on_c, 9, 56, 84
1, 51359, Note_on_c, 9, 35, 0
1, 51359, Note_on_c, 9, 46, 0
1, 51359, Note_on_c, 9, 56, 0
1, 51360, Note_on_c, 9, 38, 87
1, 51360, Note_on_c, 9, 40, 112
1, 51360, Note_on_c, 9, 56, 84
1, 51360, Note_on_c, 9, 42, 82
1, 51479, Note_on_c, 9, 38, 0
1, 51479, Note_on_c, 9, 40, 0
1, 51479, Note_on_c, 9, 56, 0
1, 51479, Note_on_c, 9, 42, 0
1, 51480, Note_on_c, 9, 42, 86
1, 51599, Note_on_c, 9, 42, 0
1, 51600, Note_on_c, 9, 46, 84
1, 51839, Note_on_c, 9, 46, 0
1, 51840, Note_on_c, 9, 56, 76
1, 51840, Note_on_c, 9, 42, 84
1, 51840, Note_on_c, 9, 35, 110
1, 51959, Note_on_c, 9, 56, 0
1, 51959, Note_on_c, 9, 42, 0
1, 51960, Note_on_c, 9, 42, 76
1, 52079, Note_on_c, 9, 42, 0
1, 52080, Note_on_c, 9, 46, 86
1, 52319, Note_on_c, 9, 35, 0
1, 52319, Note_on_c, 9, 46, 0
1, 52320, Note_on_c, 9, 38, 87
1, 52320, Note_on_c, 9, 40, 112
1, 52320, Note_on_c, 9, 56, 78
1, 52320, Note_on_c, 9, 42, 84
1, 52439, Note_on_c, 9, 38, 0
1, 52439, Note_on_c, 9, 40, 0
1, 52439, Note_on_c, 9, 56, 0
1, 52439, Note_on_c, 9, 42, 0
1, 52440, Note_on_c, 9, 42, 76
1, 52559, Note_on_c, 9, 42, 0
1, 52560, Note_on_c, 9, 46, 82
1, 52799, Note_on_c, 9, 46, 0
1, 52800, Note_on_c, 9, 56, 78
1, 52800, Note_on_c, 9, 42, 89
1, 52800, Note_on_c, 9, 35, 112
1, 52919, Note_on_c, 9, 56, 0
1, 52919, Note_on_c, 9, 42, 0
1, 52920, Note_on_c, 9, 42, 86
1, 53039, Note_on_c, 9, 42, 0
1, 53040, Note_on_c, 9, 46, 84
1, 53279, Note_on_c, 9, 35, 0
1, 53279, Note_on_c, 9, 46, 0
1, 53280, Note_on_c, 9, 38, 87
1, 53280, Note_on_c, 9, 40, 112
1, 53280, Note_on_c, 9, 56, 78
1, 53280, Note_on_c, 9, 42, 84
1, 53399, Note_on_c, 9, 38, 0
1, 53399, Note_on_c, 9, 40, 0
1, 53399, Note_on_c, 9, 56, 0
1, 53399, Note_on_c, 9, 42, 0
1, 53400, Note_on_c, 9, 42, 86
1, 53519, Note_on_c, 9, 42, 0
1, 53520, Note_on_c, 9, 46, 86
1, 53759, Note_on_c, 9, 46, 0
1, 53760, Note_on_c, 9, 56, 78
1, 53760, Note_on_c, 9, 42, 86
1, 53760, Note_on_c, 9, 35, 112
1, 53879, Note_on_c, 9, 56, 0
1, 53879, Note_on_c, 9, 42, 0
1, 53880, Note_on_c, 9, 42, 95
1, 53999, Note_on_c, 9, 42, 0
1, 54000, Note_on_c, 9, 46, 89
1, 54239, Note_on_c, 9, 35, 0
1, 54239, Note_on_c, 9, 46, 0
1, 54240, Note_on_c, 9, 38, 87
1, 54240, Note_on_c, 9, 40, 112
1, 54240, Note_on_c, 9, 56, 83
1, 54240, Note_on_c, 9, 42, 92
1, 54359, Note_on_c, 9, 38, 0
1, 54359, Note_on_c, 9, 40, 0
1, 54359, Note_on_c, 9, 56, 0
1, 54359, Note_on_c, 9, 42, 0
1, 54360, Note_on_c, 9, 42, 89
1, 54479, Note_on_c, 9, 42, 0
1, 54480, Note_on_c, 9, 46, 86
1, 54719, Note_on_c, 9, 46, 0
1, 54720, Note_on_c, 9, 56, 83
1, 54720, Note_on_c, 9, 42, 86
1, 54720, Note_on_c, 9, 35, 112
1, 54839, Note_on_c, 9, 56, 0
1, 54839, Note_on_c, 9, 42, 0
1, 54840, Note_on_c, 9, 42, 92
1, 54959, Note_on_c, 9, 42, 0
1, 54960, Note_on_c, 9, 46, 89
1, 54960, Note_on_c, 9, 56, 83
1, 55199, Note_on_c, 9, 35, 0
1, 55199, Note_on_c, 9, 46, 0
1, 55199, Note_on_c, 9, 56, 0
1, 55200, Note_on_c, 9, 38, 87
1, 55200, Note_on_c, 9, 40, 112
1, 55200, Note_on_c, 9, 56, 83
1, 55200, Note_on_c, 9, 42, 86
1, 55319, Note_on_c, 9, 38, 0
1, 55319, Note_on_c, 9, 40, 0
1, 55319, Note_on_c, 9, 56, 0
1, 55319, Note_on_c, 9, 42, 0
1, 55320, Note_on_c, 9, 42, 82
1, 55439, Note_on_c, 9, 42, 0
1, 55440, Note_on_c, 9, 46, 89
1, 55679, Note_on_c, 9, 46, 0
1, 55680, Note_on_c, 9, 56, 83
1, 55680, Note_on_c, 9, 42, 86
1, 55680, Note_on_c, 9, 35, 112
1, 55799, Note_on_c, 9, 56, 0
1, 55799, Note_on_c, 9, 42, 0
1, 55800, Note_on_c, 9, 42, 72
1, 55919, Note_on_c, 9, 42, 0
1, 55920, Note_on_c, 9, 46, 80
1, 56159, Note_on_c, 9, 35, 0
1, 56159, Note_on_c, 9, 46, 0
1, 56160, Note_on_c, 9, 38, 87
1, 56160, Note_on_c, 9, 40, 112
1, 56160, Note_on_c, 9, 56, 83
1, 56160, Note_on_c, 9, 42, 89
1, 56279, Note_on_c, 9, 38, 0
1, 56279, Note_on_c, 9, 40, 0
1, 56279, Note_on_c, 9, 56, 0
1, 56279, Note_on_c, 9, 42, 0
1, 56280, Note_on_c, 9, 42, 66
1, 56399, Note_on_c, 9, 42, 0
1, 56400, Note_on_c, 9, 46, 84
1, 56639, Note_on_c, 9, 46, 0
1, 56640, Note_on_c, 9, 56, 83
1, 56640, Note_on_c, 9, 42, 98
1, 56640, Note_on_c, 9, 35, 112
1, 56759, Note_on_c, 9, 56, 0
1, 56759, Note_on_c, 9, 42, 0
1, 56760, Note_on_c, 9, 42, 95
1, 56879, Note_on_c, 9, 42, 0
1, 56880, Note_on_c, 9, 46, 92
1, 57119, Note_on_c, 9, 35, 0
1, 57119, Note_on_c, 9, 46, 0
1, 57120, Note_on_c, 9, 38, 87
1, 57120, Note_on_c, 9, 40, 112
1, 57120, Note_on_c, 9, 56, 84
1, 57120, Note_on_c, 9, 42, 95
1, 57239, Note_on_c, 9, 38, 0
1, 57239, Note_on_c, 9, 40, 0
1, 57239, Note_on_c, 9, 56, 0
1, 57239, Note_on_c, 9, 42, 0
1, 57240, Note_on_c, 9, 42, 86
1, 57359, Note_on_c, 9, 42, 0
1, 57360, Note_on_c, 9, 46, 92
1, 57599, Note_on_c, 9, 46, 0
1, 57600, Note_on_c, 9, 56, 84
1, 57600, Note_on_c, 9, 42, 92
1, 57600, Note_on_c, 9, 35, 112
1, 57719, Note_on_c, 9, 56, 0
1, 57719, Note_on_c, 9, 42, 0
1, 57720, Note_on_c, 9, 42, 89
1, 57839, Note_on_c, 9, 42, 0
1, 57840, Note_on_c, 9, 46, 89
1, 58079, Note_on_c, 9, 35, 0
1, 58079, Note_on_c, 9, 46, 0
1, 58080, Note_on_c, 9, 38, 87
1, 58080, Note_on_c, 9, 40, 112
1, 58080, Note_on_c, 9, 56, 84
1, 58080, Note_on_c, 9, 42, 98
1, 58199, Note_on_c, 9, 38, 0
1, 58199, Note_on_c, 9, 40, 0
1, 58199, Note_on_c, 9, 56, 0
1, 58199, Note_on_c, 9, 42, 0
1, 58200, Note_on_c, 9, 42, 89
1, 58319, Note_on_c, 9, 42, 0
1, 58320, Note_on_c, 9, 46, 92
1, 58559, Note_on_c, 9, 46, 0
1, 58560, Note_on_c, 9, 56, 84
1, 58560, Note_on_c, 9, 42, 98
1, 58560, Note_on_c, 9, 35, 112
1, 58679, Note_on_c, 9, 56, 0
1, 58679, Note_on_c, 9, 42, 0
1, 58680, Note_on_c, 9, 42, 92
1, 58799, Note_on_c, 9, 42, 0
1, 58800, Note_on_c, 9, 46, 86
1, 58800, Note_on_c, 9, 56, 84
1, 59039, Note_on_c, 9, 35, 0
1, 59039, Note_on_c, 9, 46, 0
1, 59039, Note_on_c, 9, 56, 0
1, 59040, Note_on_c, 9, 38, 87
1, 59040, Note_on_c, 9, 40, 112
1, 59040, Note_on_c, 9, 56, 84
1, 59040, Note_on_c, 9, 42, 95
1, 59159, Note_on_c, 9, 38, 0
1, 59159, Note_on_c, 9, 40, 0
1, 59159, Note_on_c, 9, 56, 0
1, 59159, Note_on_c, 9, 42, 0
1, 59160, Note_on_c, 9, 42, 89
1, 59279, Note_on_c, 9, 42, 0
1, 59280, Note_on_c, 9, 46, 89
1, 59519, Note_on_c, 9, 46, 0
1, 59520, Note_on_c, 9, 56, 84
1, 59520, Note_on_c, 9, 42, 92
1, 59520, Note_on_c, 9, 35, 112
1, 59639, Note_on_c, 9, 56, 0
1, 59639, Note_on_c, 9, 42, 0
1, 59640, Note_on_c, 9, 42, 80
1, 59759, Note_on_c, 9, 42, 0
1, 59760, Note_on_c, 9, 46, 95
1, 59999, Note_on_c, 9, 35, 0
1, 59999, Note_on_c, 9, 46, 0
1, 60000, Note_on_c, 9, 38, 87
1, 60000, Note_on_c, 9, 40, 112
1, 60000, Note_on_c, 9, 56, 80
1, 60000, Note_on_c, 9, 42, 89
1, 60119, Note_on_c, 9, 38, 0
1, 60119, Note_on_c, 9, 40, 0
1, 60119, Note_on_c, 9, 56, 0
1, 60119, Note_on_c, 9, 42, 0
1, 60120, Note_on_c, 9, 42, 89
1, 60239, Note_on_c, 9, 42, 0
1, 60240, Note_on_c, 9, 46, 89
1, 60479, Note_on_c, 9, 46, 0
1, 60480, Note_on_c, 9, 56, 80
1, 60480, Note_on_c, 9, 42, 89
1, 60480, Note_on_c, 9, 35, 112
1, 60599, Note_on_c, 9, 56, 0
1, 60599, Note_on_c, 9, 42, 0
1, 60600, Note_on_c, 9, 42, 89
1, 60719, Note_on_c, 9, 42, 0
1, 60720, Note_on_c, 9, 46, 95
1, 60959, Note_on_c, 9, 35, 0
1, 60959, Note_on_c, 9, 46, 0
1, 60960, Note_on_c, 9, 38, 87
1, 60960, Note_on_c, 9, 40, 112
1, 60960, Note_on_c, 9, 56, 80
1, 60960, Note_on_c, 9, 42, 84
1, 61079, Note_on_c, 9, 38, 0
1, 61079, Note_on_c, 9, 40, 0
1, 61079, Note_on_c, 9, 56, 0
1, 61079, Note_on_c, 9, 42, 0
1, 61080, Note_on_c, 9, 42, 92
1, 61199, Note_on_c, 9, 42, 0
1, 61200, Note_on_c, 9, 46, 92
1, 61439, Note_on_c, 9, 46, 0
1, 61440, Time_signature, 2, 2, 24, 8
1, 61440, Note_on_c, 9, 56, 85
1, 61440, Note_on_c, 9, 42, 78
1, 61440, Note_on_c, 9, 35, 112
1, 61559, Note_on_c, 9, 56, 0
1, 61559, Note_on_c, 9, 42, 0
1, 61560, Note_on_c, 9, 42, 86
1, 61679, Note_on_c, 9, 42, 0
1, 61680, Note_on_c, 9, 46, 95
1, 61919, Note_on_c, 9, 35, 0
1, 61919, Note_on_c, 9, 46, 0
1, 61920, Note_on_c, 9, 38, 87
1, 61920, Note_on_c, 9, 40, 112
1, 61920, Note_on_c, 9, 56, 85
1, 61920, Note_on_c, 9, 42, 89
1, 62039, Note_on_c, 9, 38, 0
1, 62039, Note_on_c, 9, 40, 0
1, 62039, Note_on_c, 9, 56, 0
1, 62039, Note_on_c, 9, 42, 0
1, 62040, Note_on_c, 9, 42, 86
1, 62159, Note_on_c, 9, 42, 0
1, 62160, Note_on_c, 9, 46, 95
1, 62399, Note_on_c, 9, 46, 0
1, 62400, Time_signature, 4, 2, 24, 8
1, 62400, Note_on_c, 9, 38, 87
1, 62400, Note_on_c, 9, 40, 112
1, 62400, Note_on_c, 9, 56, 85
1, 62400, Note_on_c, 9, 42, 89
1, 62400, Note_on_c, 9, 35, 112
1, 62879, Note_on_c, 9, 38, 0
1, 62879, Note_on_c, 9, 40, 0
1, 62879, Note_on_c, 9, 56, 0
1, 62879, Note_on_c, 9, 42, 0
1, 62879, Note_on_c, 9, 35, 0
1, 81090, Note_on_c, 9, 38, 70
1, 81090, Note_on_c, 9, 40, 95
1, 81119, Note_on_c, 9, 38, 0
1, 81119, Note_on_c, 9, 40, 0
1, 81135, Note_on_c, 9, 38, 87
1, 81135, Note_on_c, 9, 40, 112
1, 81359, Note_on_c, 9, 38, 0
1, 81359, Note_on_c, 9, 40, 0
1, 81600, Note_on_c, 9, 56, 81
1, 81600, Note_on_c, 9, 35, 112
1, 81614, Note_on_c, 9, 56, 0
1, 81615, Note_on_c, 9, 49, 89
1, 81839, Note_on_c, 9, 49, 0
1, 81840, Note_on_c, 9, 42, 72
1, 82079, Note_on_c, 9, 35, 0
1, 82079, Note_on_c, 9, 42, 0
1, 82080, Note_on_c, 9, 38, 87
1, 82080, Note_on_c, 9, 40, 112
1, 82080, Note_on_c, 9, 56, 93
1, 82080, Note_on_c, 9, 42, 70
1, 82319, Note_on_c, 9, 38, 0
1, 82319, Note_on_c, 9, 40, 0
1, 82319, Note_on_c, 9, 56, 0
1, 82319, Note_on_c, 9, 42, 0
1, 82320, Note_on_c, 9, 42, 69
1, 82559, Note_on_c, 9, 42, 0
1, 82560, Note_on_c, 9, 56, 87
1, 82560, Note_on_c, 9, 42, 86
1, 82560, Note_on_c, 9, 35, 112
1, 82799, Note_on_c, 9, 56, 0
1, 82799, Note_on_c, 9, 42, 0
1, 82800, Note_on_c, 9, 42, 60
1, 83039, Note_on_c, 9, 35, 0
1, 83039, Note_on_c, 9, 42, 0
1, 83040, Note_on_c, 9, 38, 87
1, 83040, Note_on_c, 9, 40, 112
1, 83040, Note_on_c, 9, 56, 97
1, 83040, Note_on_c, 9, 42, 98
1, 83279, Note_on_c, 9, 38, 0
1, 83279, Note_on_c, 9, 40, 0
1, 83279, Note_on_c, 9, 56, 0
1, 83279, Note_on_c, 9, 42, 0
1, 83280, Note_on_c, 9, 42, 67
1, 83519, Note_on_c, 9, 42, 0
1, 83520, Note_on_c, 9, 56, 85
1, 83520, Note_on_c, 9, 42, 92
1, 83520, Note_on_c, 9, 35, 112
1, 83759, Note_on_c, 9, 56, 0
1, 83759, Note_on_c, 9, 42, 0
1, 83760, Note_on_c, 9, 42, 62
1, 83999, Note_on_c, 9, 35, 0
1, 83999, Note_on_c, 9, 42, 0
1, 84000, Note_on_c, 9, 38, 87
1, 84000, Note_on_c, 9, 40, 112
1, 84000, Note_on_c, 9, 56, 101
1, 84000, Note_on_c, 9, 42, 98
1, 84239, Note_on_c, 9, 38, 0
1, 84239, Note_on_c, 9, 40, 0
1, 84239, Note_on_c, 9, 56, 0
1, 84239, Note_on_c, 9, 42, 0
1, 84240, Note_on_c, 9, 42, 76
1, 84479, Note_on_c, 9, 42, 0
1, 84480, Note_on_c, 9, 56, 73
1, 84480, Note_on_c, 9, 42, 98
1, 84480, Note_on_c, 9, 35, 102
1, 84719, Note_on_c, 9, 56, 0
1, 84719, Note_on_c, 9, 42, 0
1, 84719, Note_on_c, 9, 35, 0
1, 84720, Note_on_c, 9, 56, 76
1, 84720, Note_on_c, 9, 42, 72
1, 84720, Note_on_c, 9, 35, 105
1, 84959, Note_on_c, 9, 56, 0
1, 84959, Note_on_c, 9, 42, 0
1, 84959, Note_on_c, 9, 35, 0
1, 84960, Note_on_c, 9, 38, 87
1, 84960, Note_on_c, 9, 40, 112
1, 84960, Note_on_c, 9, 56, 91
1, 84960, Note_on_c, 9, 42, 95
1, 85199, Note_on_c, 9, 38, 0
1, 85199, Note_on_c, 9, 40, 0
1, 85199, Note_on_c, 9, 56, 0
1, 85199, Note_on_c, 9, 42, 0
1, 85200, Note_on_c, 9, 42, 69
1, 85439, Note_on_c, 9, 42, 0
1, 85440, Note_on_c, 9, 56, 95
1, 85440, Note_on_c, 9, 42, 98
1, 85440, Note_on_c, 9, 35, 112
1, 85679, Note_on_c, 9, 56, 0
1, 85679, Note_on_c, 9, 42, 0
1, 85680, Note_on_c, 9, 42, 52
1, 85919, Note_on_c, 9, 35, 0
1, 85919, Note_on_c, 9, 42, 0
1, 85920, Note_on_c, 9, 38, 87
1, 85920, Note_on_c, 9, 40, 112
1, 85920, Note_on_c, 9, 56, 99
1, 85920, Note_on_c, 9, 42, 101
1, 86159, Note_on_c, 9, 38, 0
1, 86159, Note_on_c, 9, 40, 0
1, 86159, Note_on_c, 9, 56, 0
1, 86159, Note_on_c, 9, 42, 0
1, 86160, Note_on_c, 9, 42, 74
1, 86399, Note_on_c, 9, 42, 0
1, 86400, Note_on_c, 9, 56, 89
1, 86400, Note_on_c, 9, 42, 101
1, 86400, Note_on_c, 9, 35, 112
1, 86639, Note_on_c, 9, 56, 0
1, 86639, Note_on_c, 9, 42, 0
1, 86640, Note_on_c, 9, 42, 69
1, 86879, Note_on_c, 9, 35, 0
1, 86879, Note_on_c, 9, 42, 0
1, 86880, Note_on_c, 9, 38, 87
1, 86880, Note_on_c, 9, 40, 112
1, 86880, Note_on_c, 9, 56, 97
1, 86880, Note_on_c, 9, 42, 98
1, 87119, Note_on_c, 9, 38, 0
1, 87119, Note_on_c, 9, 40, 0
1, 87119, Note_on_c, 9, 56, 0
1, 87119, Note_on_c, 9, 42, 0
1, 87120, Note_on_c, 9, 42, 74
1, 87359, Note_on_c, 9, 42, 0
1, 87360, Note_on_c, 9, 56, 95
1, 87360, Note_on_c, 9, 42, 95
1, 87360, Note_on_c, 9, 35, 112
1, 87599, Note_on_c, 9, 56, 0
1, 87599, Note_on_c, 9, 42, 0
1, 87600, Note_on_c, 9, 42, 67
1, 87839, Note_on_c, 9, 35, 0
1, 87839, Note_on_c, 9, 42, 0
1, 87840, Note_on_c, 9, 38, 87
1, 87840, Note_on_c, 9, 40, 112
1, 87840, Note_on_c, 9, 56, 97
1, 87840, Note_on_c, 9, 42, 101
1, 88079, Note_on_c, 9, 38, 0
1, 88079, Note_on_c, 9, 40, 0
1, 88079, Note_on_c, 9, 56, 0
1, 88079, Note_on_c, 9, 42, 0
1, 88080, Note_on_c, 9, 42, 72
1, 88199, Note_on_c, 9, 42, 0
1, 88200, Note_on_c, 9, 42, 85
1, 88200, Note_on_c, 9, 35, 104
1, 88319, Note_on_c, 9, 42, 0
1, 88319, Note_on_c, 9, 35, 0
1, 88320, Note_on_c, 9, 56, 70
1, 88320, Note_on_c, 9, 42, 101
1, 88320, Note_on_c, 9, 35, 109
1, 88559, Note_on_c, 9, 56, 0
1, 88559, Note_on_c, 9, 42, 0
1, 88559, Note_on_c, 9, 35, 0
1, 88560, Note_on_c, 9, 56, 73
1, 88560, Note_on_c, 9, 42, 70
1, 88560, Note_on_c, 9, 35, 112
1, 88799, Note_on_c, 9, 56, 0
1, 88799, Note_on_c, 9, 42, 0
1, 88799, Note_on_c, 9, 35, 0
1, 88800, Note_on_c, 9, 38, 87
1, 88800, Note_on_c, 9, 40, 112
1, 88800, Note_on_c, 9, 56, 89
1, 88800, Note_on_c, 9, 42, 98
1, 89039, Note_on_c, 9, 38, 0
1, 89039, Note_on_c, 9, 40, 0
1, 89039, Note_on_c, 9, 56, 0
1, 89039, Note_on_c, 9, 42, 0
1, 89040, Note_on_c, 9, 46, 69
1, 89279, Note_on_c, 9, 46, 0
1, 89280, Note_on_c, 9, 56, 97
1, 89280, Note_on_c, 9, 42, 70
1, 89280, Note_on_c, 9, 35, 112
1, 89519, Note_on_c, 9, 56, 0
1, 89519, Note_on_c, 9, 42, 0
1, 89520, Note_on_c, 9, 42, 80
1, 89759, Note_on_c, 9, 35, 0
1, 89759, Note_on_c, 9, 42, 0
1, 89760, Note_on_c, 9, 38, 87
1, 89760, Note_on_c, 9, 40, 112
1, 89760, Note_on_c, 9, 56, 80
1, 89760, Note_on_c, 9, 42, 108
1, 89999, Note_on_c, 9, 38, 0
1, 89999, Note_on_c, 9, 40, 0
1, 89999, Note_on_c, 9, 56, 0
1, 89999, Note_on_c, 9, 42, 0
1, 90000, Note_on_c, 9, 42, 76
1, 90239, Note_on_c, 9, 42, 0
1, 90240, Note_on_c, 9, 56, 80
1, 90240, Note_on_c, 9, 42, 98
1, 90240, Note_on_c, 9, 35, 112
1, 90479, Note_on_c, 9, 56, 0
1, 90479, Note_on_c, 9, 42, 0
1, 90480, Note_on_c, 9, 42, 74
1, 90719, Note_on_c, 9, 35, 0
1, 90719, Note_on_c, 9, 42, 0
1, 90720, Note_on_c, 9, 38, 87
1, 90720, Note_on_c, 9, 40, 112
1, 90720, Note_on_c, 9, 56, 87
1, 90720, Note_on_c, 9, 42, 104
1, 90959, Note_on_c, 9, 38, 0
1, 90959, Note_on_c, 9, 40, 0
1, 90959, Note_on_c, 9, 56, 0
1, 90959, Note_on_c, 9, 42, 0
1, 90960, Note_on_c, 9, 42, 74
1, 91199, Note_on_c, 9, 42, 0
1, 91200, Note_on_c, 9, 56, 87
1, 91200, Note_on_c, 9, 42, 108
1, 91200, Note_on_c, 9, 35, 112
1, 91439, Note_on_c, 9, 56, 0
1, 91439, Note_on_c, 9, 42, 0
1, 91440, Note_on_c, 9, 42, 74
1, 91679, Note_on_c, 9, 35, 0
1, 91679, Note_on_c, 9, 42, 0
1, 91680, Note_on_c, 9, 38, 87
1, 91680, Note_on_c, 9, 40, 112
1, 91680, Note_on_c, 9, 56, 87
1, 91680, Note_on_c, 9, 42, 108
1, 91919, Note_on_c, 9, 38, 0
1, 91919, Note_on_c, 9, 40, 0
1, 91919, Note_on_c, 9, 56, 0
1, 91919, Note_on_c, 9, 42, 0
1, 91920, Note_on_c, 9, 42, 76
1, 92159, Note_on_c, 9, 42, 0
1, 92160, Note_on_c, 9, 56, 91
1, 92160, Note_on_c, 9, 42, 104
1, 92160, Note_on_c, 9, 35, 101
1, 92399, Note_on_c, 9, 56, 0
1, 92399, Note_on_c, 9, 42, 0
1, 92399, Note_on_c, 9, 35, 0
1, 92400, Note_on_c, 9, 56, 91
1, 92400, Note_on_c, 9, 42, 76
1, 92400, Note_on_c, 9, 35, 112
1, 92639, Note_on_c, 9, 56, 0
1, 92639, Note_on_c, 9, 42, 0
1, 92639, Note_on_c, 9, 35, 0
1, 92640, Note_on_c, 9, 38, 87
1, 92640, Note_on_c, 9, 40, 112
1, 92640, Note_on_c, 9, 56, 91
1, 92640, Note_on_c, 9, 42, 108
1, 92879, Note_on_c, 9, 38, 0
1, 92879, Note_on_c, 9, 40, 0
1, 92879, Note_on_c, 9, 56, 0
1, 92879, Note_on_c, 9, 42, 0
1, 92880, Note_on_c, 9, 42, 76
1, 93119, Note_on_c, 9, 42, 0
1, 93120, Note_on_c, 9, 56, 91
1, 93120, Note_on_c, 9, 42, 108
1, 93120, Note_on_c, 9, 35, 112
1, 93359, Note_on_c, 9, 56, 0
1, 93359, Note_on_c, 9, 42, 0
1, 93360, Note_on_c, 9, 42, 70
1, 93599, Note_on_c, 9, 35, 0
1, 93599, Note_on_c, 9, 42, 0
1, 93600, Note_on_c, 9, 38, 87
1, 93600, Note_on_c, 9, 40, 112
1, 93600, Note_on_c, 9, 56, 91
1, 93600, Note_on_c, 9, 42, 101
1, 93839, Note_on_c, 9, 38, 0
1, 93839, Note_on_c, 9, 40, 0
1, 93839, Note_on_c, 9, 56, 0
1, 93839, Note_on_c, 9, 42, 0
1, 93840, Note_on_c, 9, 42, 74
1, 94079, Note_on_c, 9, 42, 0
1, 94080, Note_on_c, 9, 56, 91
1, 94080, Note_on_c, 9, 42, 104
1, 94080, Note_on_c, 9, 35, 112
1, 94319, Note_on_c, 9, 56, 0
1, 94319, Note_on_c, 9, 42, 0
1, 94320, Note_on_c, 9, 42, 74
1, 94559, Note_on_c, 9, 35, 0
1, 94559, Note_on_c, 9, 42, 0
1, 94560, Note_on_c, 9, 38, 87
1, 94560, Note_on_c, 9, 40, 112
1, 94560, Note_on_c, 9, 56, 91
1, 94560, Note_on_c, 9, 42, 104
1, 94799, Note_on_c, 9, 38, 0
1, 94799, Note_on_c, 9, 40, 0
1, 94799, Note_on_c, 9, 56, 0
1, 94799, Note_on_c, 9, 42, 0
1, 94800, Note_on_c, 9, 42, 70
1, 95039, Note_on_c, 9, 42, 0
1, 95040, Note_on_c, 9, 56, 91
1, 95040, Note_on_c, 9, 42, 98
1, 95040, Note_on_c, 9, 35, 112
1, 95279, Note_on_c, 9, 56, 0
1, 95279, Note_on_c, 9, 42, 0
1, 95280, Note_on_c, 9, 42, 53
1, 95519, Note_on_c, 9, 35, 0
1, 95519, Note_on_c, 9, 42, 0
1, 95520, Note_on_c, 9, 38, 87
1, 95520, Note_on_c, 9, 40, 112
1, 95520, Note_on_c, 9, 56, 91
1, 95520, Note_on_c, 9, 42, 95
1, 95759, Note_on_c, 9, 38, 0
1, 95759, Note_on_c, 9, 40, 0
1, 95759, Note_on_c, 9, 56, 0
1, 95759, Note_on_c, 9, 42, 0
1, 95760, Note_on_c, 9, 42, 67
1, 95879, Note_on_c, 9, 42, 0
1, 95880, Note_on_c, 9, 42, 85
1, 95880, Note_on_c, 9, 35, 102
1, 95999, Note_on_c, 9, 42, 0
1, 95999, Note_on_c, 9, 35, 0
1, 96000, Note_on_c, 9, 56, 91
1, 96000, Note_on_c, 9, 42, 101
1, 96000, Note_on_c, 9, 35, 111
1, 96239, Note_on_c, 9, 56, 0
1, 96239, Note_on_c, 9, 42, 0
1, 96239, Note_on_c, 9, 35, 0
1, 96240, Note_on_c, 9, 56, 91
1, 96240, Note_on_c, 9, 42, 67
1, 96240, Note_on_c, 9, 35, 112
1, 96479, Note_on_c, 9, 56, 0
1, 96479, Note_on_c, 9, 42, 0
1, 96479, Note_on_c, 9, 35, 0
1, 96480, Note_on_c, 9, 38, 87
1, 96480, Note_on_c, 9, 40, 112
1, 96480, Note_on_c, 9, 56, 89
1, 96494, Note_on_c, 9, 38, 0
1, 96494, Note_on_c, 9, 40, 0
1, 96494, Note_on_c, 9, 56, 0
1, 96495, Note_on_c, 9, 46, 101
1, 96719, Note_on_c, 9, 46, 0
1, 96960, Note_on_c, 9, 56, 89
1, 96960, Note_on_c, 9, 42, 76
1, 96960, Note_on_c, 9, 35, 112
1, 97199, Note_on_c, 9, 56, 0
1, 97199, Note_on_c, 9, 42, 0
1, 97200, Note_on_c, 9, 42, 72
1, 97439, Note_on_c, 9, 35, 0
1, 97439, Note_on_c, 9, 42, 0
1, 97440, Note_on_c, 9, 38, 87
1, 97440, Note_on_c, 9, 40, 112
1, 97440, Note_on_c, 9, 56, 89
1, 97440, Note_on_c, 9, 42, 108
1, 97679, Note_on_c, 9, 38, 0
1, 97679, Note_on_c, 9, 40, 0
1, 97679, Note_on_c, 9, 56, 0
1, 97679, Note_on_c, 9, 42, 0
1, 97680, Note_on_c, 9, 42, 78
1, 97919, Note_on_c, 9, 42, 0
1, 97920, Note_on_c, 9, 56, 89
1, 97920, Note_on_c, 9, 42, 101
1, 97920, Note_on_c, 9, 35, 112
1, 98159, Note_on_c, 9, 56, 0
1, 98159, Note_on_c, 9, 42, 0
1, 98160, Note_on_c, 9, 42, 76
1, 98399, Note_on_c, 9, 35, 0
1, 98399, Note_on_c, 9, 42, 0
1, 98400, Note_on_c, 9, 38, 87
1, 98400, Note_on_c, 9, 40, 112
1, 98400, Note_on_c, 9, 56, 89
1, 98400, Note_on_c, 9, 42, 108
1, 98639, Note_on_c, 9, 38, 0
1, 98639, Note_on_c, 9, 40, 0
1, 98639, Note_on_c, 9, 56, 0
1, 98639, Note_on_c, 9, 42, 0
1, 98640, Note_on_c, 9, 42, 74
1, 98879, Note_on_c, 9, 42, 0
1, 98880, Note_on_c, 9, 56, 89
1, 98880, Note_on_c, 9, 42, 101
1, 98880, Note_on_c, 9, 35, 112
1, 99119, Note_on_c, 9, 56, 0
1, 99119, Note_on_c, 9, 42, 0
1, 99120, Note_on_c, 9, 42, 62
1, 99359, Note_on_c, 9, 35, 0
1, 99359, Note_on_c, 9, 42, 0
1, 99360, Note_on_c, 9, 38, 87
1, 99360, Note_on_c, 9, 40, 112
1, 99360, Note_on_c, 9, 56, 77
1, 99360, Note_on_c, 9, 42, 104
1, 99599, Note_on_c, 9, 38, 0
1, 99599, Note_on_c, 9, 40, 0
1, 99599, Note_on_c, 9, 56, 0
1, 99599, Note_on_c, 9, 42, 0
1, 99600, Note_on_c, 9, 42, 66
1, 99839, Note_on_c, 9, 42, 0
1, 99840, Note_on_c, 9, 56, 79
1, 99840, Note_on_c, 9, 42, 108
1, 99840, Note_on_c, 9, 35, 107
1, 100079, Note_on_c, 9, 56, 0
1, 100079, Note_on_c, 9, 42, 0
1, 100079, Note_on_c, 9, 35, 0
1, 100080, Note_on_c, 9, 56, 79
1, 100080, Note_on_c, 9, 42, 78
1, 100080, Note_on_c, 9, 35, 112
1, 100319, Note_on_c, 9, 56, 0
1, 100319, Note_on_c, 9, 42, 0
1, 100319, Note_on_c, 9, 35, 0
1, 100320, Note_on_c, 9, 38, 87
1, 100320, Note_on_c, 9, 40, 112
1, 100320, Note_on_c, 9, 56, 79
1, 100320, Note_on_c, 9, 42, 98
1, 100559, Note_on_c, 9, 38, 0
1, 100559, Note_on_c, 9, 40, 0
1, 100559, Note_on_c, 9, 56, 0
1, 100559, Note_on_c, 9, 42, 0
1, 100560, Note_on_c, 9, 42, 70
1, 100799, Note_on_c, 9, 42, 0
1, 100800, Note_on_c, 9, 56, 79
1, 100800, Note_on_c, 9, 42, 98
1, 100800, Note_on_c, 9, 35, 112
1, 101039, Note_on_c, 9, 56, 0
1, 101039, Note_on_c, 9, 42, 0
1, 101040, Note_on_c, 9, 42, 74
1, 101279, Note_on_c, 9, 35, 0
1, 101279, Note_on_c, 9, 42, 0
1, 101280, Note_on_c, 9, 38, 87
1, 101280, Note_on_c, 9, 40, 112
1, 101280, Note_on_c, 9, 56, 79
1, 101280, Note_on_c, 9, 42, 101
1, 101519, Note_on_c, 9, 38, 0
1, 101519, Note_on_c, 9, 40, 0
1, 101519, Note_on_c, 9, 56, 0
1, 101519, Note_on_c, 9, 42, 0
1, 101520, Note_on_c, 9, 42, 69
1, 101759, Note_on_c, 9, 42, 0
1, 101760, Note_on_c, 9, 56, 83
1, 101760, Note_on_c, 9, 42, 98
1, 101760, Note_on_c, 9, 35, 112
1, 101999, Note_on_c, 9, 56, 0
1, 101999, Note_on_c, 9, 42, 0
1, 102000, Note_on_c, 9, 42, 63
1, 102239, Note_on_c, 9, 35, 0
1, 102239, Note_on_c, 9, 42, 0
1, 102240, Note_on_c, 9, 38, 87
1, 102240, Note_on_c, 9, 40, 112
1, 102240, Note_on_c, 9, 56, 83
1, 102240, Note_on_c, 9, 42, 101
1, 102479, Note_on_c, 9, 38, 0
1, 102479, Note_on_c, 9, 40, 0
1, 102479, Note_on_c, 9, 56, 0
1, 102479, Note_on_c, 9, 42, 0
1, 102480, Note_on_c, 9, 42, 60
1, 102719, Note_on_c, 9, 42, 0
1, 102720, Note_on_c, 9, 56, 83
1, 102720, Note_on_c, 9, 42, 98
1, 102720, Note_on_c, 9, 35, 112
1, 102959, Note_on_c, 9, 56, 0
1, 102959, Note_on_c, 9, 42, 0
1, 102960, Note_on_c, 9, 42, 70
1, 103199, Note_on_c, 9, 35, 0
1, 103199, Note_on_c, 9, 42, 0
1, 103200, Note_on_c, 9, 38, 87
1, 103200, Note_on_c, 9, 40, 112
1, 103200, Note_on_c, 9, 56, 83
1, 103200, Note_on_c, 9, 42, 95
1, 103439, Note_on_c, 9, 38, 0
1, 103439, Note_on_c, 9, 40, 0
1, 103439, Note_on_c, 9, 56, 0
1, 103439, Note_on_c, 9, 42, 0
1, 103440, Note_on_c, 9, 42, 67
1, 103560, Note_on_c, 9, 35, 93
1, 103679, Note_on_c, 9, 42, 0
1, 103679, Note_on_c, 9, 35, 0
1, 103680, Note_on_c, 9, 56, 83
1, 103680, Note_on_c, 9, 42, 98
1, 103680, Note_on_c, 9, 35, 112
1, 103919, Note_on_c, 9, 56, 0
1, 103919, Note_on_c, 9, 42, 0
1, 103920, Note_on_c, 9, 38, 64
1, 103920, Note_on_c, 9, 40, 89
1, 103920, Note_on_c, 9, 56, 87
1, 104159, Note_on_c, 9, 35, 0
1, 104159, Note_on_c, 9, 38, 0
1, 104159, Note_on_c, 9, 40, 0
1, 104159, Note_on_c, 9, 56, 0
1, 104160, Note_on_c, 9, 38, 66
1, 104160, Note_on_c, 9, 40, 91
1, 104160, Note_on_c, 9, 56, 81
1, 104174, Note_on_c, 9, 38, 0
1, 104174, Note_on_c, 9, 40, 0
1, 104174, Note_on_c, 9, 56, 0
1, 104175, Note_on_c, 9, 46, 63
1, 104219, Note_on_c, 9, 46, 0
1, 104280, Note_on_c, 9, 38, 80
1, 104280, Note_on_c, 9, 40, 105
1, 104399, Note_on_c, 9, 38, 0
1, 104399, Note_on_c, 9, 40, 0
1, 104400, Note_on_c, 9, 45, 110
1, 104639, Note_on_c, 9, 45, 0
1, 104640, Note_on_c, 9, 56, 81
1, 104640, Note_on_c, 9, 35, 108
1, 104654, Note_on_c, 9, 56, 0
1, 104655, Note_on_c, 9, 57, 87
1, 104699, Note_on_c, 9, 57, 0
1, 104760, Note_on_c, 9, 42, 66
1, 104879, Note_on_c, 9, 42, 0
1, 104880, Note_on_c, 9, 46, 89
1, 105119, Note_on_c, 9, 35, 0
1, 105119, Note_on_c, 9, 46, 0
1, 105120, Note_on_c, 9, 38, 85
1, 105120, Note_on_c, 9, 40, 110
1, 105120, Note_on_c, 9, 56, 81
1, 105120, Note_on_c, 9, 42, 74
1, 105239, Note_on_c, 9, 38, 0
1, 105239, Note_on_c, 9, 40, 0
1, 105239, Note_on_c, 9, 56, 0
1, 105239, Note_on_c, 9, 42, 0
1, 105240, Note_on_c, 9, 42, 72
1, 105359, Note_on_c, 9, 42, 0
1, 105360, Note_on_c, 9, 46, 84
1, 105599, Note_on_c, 9, 46, 0
1, 105600, Note_on_c, 9, 56, 81
1, 105600, Note_on_c, 9, 42, 76
1, 105600, Note_on_c, 9, 35, 110
1, 105719, Note_on_c, 9, 56, 0
1, 105719, Note_on_c, 9, 42, 0
1, 105720, Note_on_c, 9, 42, 74
1, 105839, Note_on_c, 9, 42, 0
1, 105840, Note_on_c, 9, 46, 92
1, 106079, Note_on_c, 9, 35, 0
1, 106079, Note_on_c, 9, 46, 0
1, 106080, Note_on_c, 9, 38, 85
1, 106080, Note_on_c, 9, 40, 110
1, 106080, Note_on_c, 9, 56, 81
1, 106080, Note_on_c, 9, 42, 82
1, 106199, Note_on_c, 9, 38, 0
1, 106199, Note_on_c, 9, 40, 0
1, 106199, Note_on_c, 9, 56, 0
1, 106199, Note_on_c, 9, 42, 0
1, 106200, Note_on_c, 9, 42, 89
1, 106319, Note_on_c, 9, 42, 0
1, 106320, Note_on_c, 9, 46, 89
1, 106559, Note_on_c, 9, 46, 0
1, 106560, Note_on_c, 9, 56, 81
1, 106560, Note_on_c, 9, 42, 70
1, 106560, Note_on_c, 9, 35, 112
1, 106679, Note_on_c, 9, 56, 0
1, 106679, Note_on_c, 9, 42, 0
1, 106680, Note_on_c, 9, 42, 84
1, 106799, Note_on_c, 9, 42, 0
1, 106800, Note_on_c, 9, 46, 82
1, 107039, Note_on_c, 9, 35, 0
1, 107039, Note_on_c, 9, 46, 0
1, 107040, Note_on_c, 9, 38, 87
1, 107040, Note_on_c, 9, 40, 112
1, 107040, Note_on_c, 9, 56, 81
1, 107040, Note_on_c, 9, 42, 84
1, 107159, Note_on_c, 9, 38, 0
1, 107159, Note_on_c, 9, 40, 0
1, 107159, Note_on_c, 9, 56, 0
1, 107159, Note_on_c, 9, 42, 0
1, 107160, Note_on_c, 9, 42, 84
1, 107279, Note_on_c, 9, 42, 0
1, 107280, Note_on_c, 9, 46, 86
1, 107519, Note_on_c, 9, 46, 0
1, 107520, Note_on_c, 9, 56, 84
1, 107520, Note_on_c, 9, 42, 76
1, 107520, Note_on_c, 9, 35, 110
1, 107639, Note_on_c, 9, 56, 0
1, 107639, Note_on_c, 9, 42, 0
1, 107640, Note_on_c, 9, 42, 84
1, 107759, Note_on_c, 9, 42, 0
1, 107760, Note_on_c, 9, 46, 86
1, 107760, Note_on_c, 9, 56, 84
1, 107999, Note_on_c, 9, 35, 0
1, 107999, Note_on_c, 9, 46, 0
1, 107999, Note_on_c, 9, 56, 0
1, 108000, Note_on_c, 9, 38, 87
1, 108000, Note_on_c, 9, 40, 112
1, 108000, Note_on_c, 9, 56, 84
1, 108000, Note_on_c, 9, 42, 82
1, 108119, Note_on_c, 9, 38, 0
1, 108119, Note_on_c, 9, 40, 0
1, 108119, Note_on_c, 9, 56, 0
1, 108119, Note_on_c, 9, 42, 0
1, 108120, Note_on_c, 9, 42, 86
1, 108239, Note_on_c, 9, 42, 0
1, 108240, Note_on_c, 9, 46, 84
1, 108479, Note_on_c, 9, 46, 0
1, 108480, Note_on_c, 9, 56, 76
1, 108480, Note_on_c, 9, 42, 84
1, 108480, Note_on_c, 9, 35, 110
1, 108599, Note_on_c, 9, 56, 0
1, 108599, Note_on_c, 9, 42, 0
1, 108600, Note_on_c, 9, 42, 76
1, 108719, Note_on_c, 9, 42, 0
1, 108720, Note_on_c, 9, 46, 86
1, 108959, Note_on_c, 9, 35, 0
1, 108959, Note_on_c, 9, 46, 0
1, 108960, Note_on_c, 9, 38, 87
1, 108960, Note_on_c, 9, 40, 112
1, 108960, Note_on_c, 9, 56, 78
1, 108960, Note_on_c, 9, 42, 84
1, 109079, Note_on_c, 9, 38, 0
1, 109079, Note_on_c, 9, 40, 0
1, 109079, Note_on_c, 9, 56, 0
1, 109079, Note_on_c, 9, 42, 0
1, 109080, Note_on_c, 9, 42, 76
1, 109199, Note_on_c, 9, 42, 0
1, 109200, Note_on_c, 9, 46, 82
1, 109439, Note_on_c, 9, 46, 0
1, 109440, Note_on_c, 9, 56, 78
1, 109440, Note_on_c, 9, 42, 89
1, 109440, Note_on_c, 9, 35, 112
1, 109559, Note_on_c, 9, 56, 0
1, 109559, Note_on_c, 9, 42, 0
1, 109560, Note_on_c, 9, 42, 86
1, 109679, Note_on_c, 9, 42, 0
1, 109680, Note_on_c, 9, 46, 84
1, 109919, Note_on_c, 9, 35, 0
1, 109919, Note_on_c, 9, 46, 0
1, 109920, Note_on_c, 9, 38, 87
1, 109920, Note_on_c, 9, 40, 112
1, 109920, Note_on_c, 9, 56, 78
1, 109920, Note_on_c, 9, 42, 84
1, 110039, Note_on_c, 9, 38, 0
1, 110039, Note_on_c, 9, 40, 0
1, 110039, Note_on_c, 9, 56, 0
1, 110039, Note_on_c, 9, 42, 0
1, 110040, Note_on_c, 9, 42, 86
1, 110159, Note_on_c, 9, 42, 0
1, 110160, Note_on_c, 9, 46, 86
1, 110399, Note_on_c, 9, 46, 0
1, 110400, Note_on_c, 9, 56, 78
1, 110400, Note_on_c, 9, 42, 86
1, 110400, Note_on_c, 9, 35, 112
1, 110519, Note_on_c, 9, 56, 0
1, 110519, Note_on_c, 9, 42, 0
1, 110520, Note_on_c, 9, 42, 95
1, 110639, Note_on_c, 9, 42, 0
1, 110640, Note_on_c, 9, 46, 89
1, 110879, Note_on_c, 9, 35, 0
1, 110879, Note_on_c, 9, 46, 0
1, 110880, Note_on_c, 9, 38, 87
1, 110880, Note_on_c, 9, 40, 112
1, 110880, Note_on_c, 9, 56, 83
1, 110880, Note_on_c, 9, 42, 92
1, 110999, Note_on_c, 9, 38, 0
1, 110999, Note_on_c, 9, 40, 0
1, 110999, Note_on_c, 9, 56, 0
1, 110999, Note_on_c, 9, 42, 0
1, 111000, Note_on_c, 9, 42, 89
1, 111119, Note_on_c, 9, 42, 0
1, 111120, Note_on_c, 9, 46, 86
1, 111359, Note_on_c, 9, 46, 0
1, 111360, Note_on_c, 9, 56, 83
1, 111360, Note_on_c, 9, 42, 86
1, 111360, Note_on_c, 9, 35, 112
1, 111479, Note_on_c, 9, 56, 0
1, 111479, Note_on_c, 9, 42, 0
1, 111480, Note_on_c, 9, 42, 92
1, 111599, Note_on_c, 9, 42, 0
1, 111600, Note_on_c, 9, 46, 89
1, 111600, Note_on_c, 9, 56, 83
1, 111839, Note_on_c, 9, 35, 0
1, 111839, Note_on_c, 9, 46, 0
1, 111839, Note_on_c, 9, 56, 0
1, 111840, Note_on_c, 9, 38, 87
1, 111840, Note_on_c, 9, 40, 112
1, 111840, Note_on_c, 9, 56, 83
1, 111840, Note_on_c, 9, 42, 86
1, 111959, Note_on_c, 9, 38, 0
1, 111959, Note_on_c, 9, 40, 0
1, 111959, Note_on_c, 9, 56, 0
1, 111959, Note_on_c, 9, 42, 0
1, 111960, Note_on_c, 9, 42, 82
1, 112079, Note_on_c, 9, 42, 0
1, 112080, Note_on_c, 9, 46, 89
1, 112319, Note_on_c, 9, 46, 0
1, 112320, Note_on_c, 9, 56, 83
1, 112320, Note_on_c, 9, 42, 86
1, 112320, Note_on_c, 9, 35, 112
1, 112439, Note_on_c, 9, 56, 0
1, 112439, Note_on_c, 9, 42, 0
1, 112440, Note_on_c, 9, 42, 72
1, 112559, Note_on_c, 9, 42, 0
1, 112560, Note_on_c, 9, 46, 80
1, 112799, Note_on_c, 9, 35, 0
1, 112799, Note_on_c, 9, 46, 0
1, 112800, Note_on_c, 9, 38, 87
1, 112800, Note_on_c, 9, 40, 112
1, 112800, Note_on_c, 9, 56, 83
1, 112800, Note_on_c, 9, 42, 89
1, 112919, Note_on_c, 9, 38, 0
1, 112919, Note_on_c, 9, 40, 0
1, 112919, Note_on_c, 9, 56, 0
1, 112919, Note_on_c, 9, 42, 0
1, 112920, Note_on_c, 9, 42, 66
1, 113039, Note_on_c, 9, 42, 0
1, 113040, Note_on_c, 9, 46, 84
1, 113279, Note_on_c, 9, 46, 0
1, 113280, Note_on_c, 9, 56, 83
1, 113280, Note_on_c, 9, 42, 98
1, 113280, Note_on_c, 9, 35, 112
1, 113399, Note_on_c, 9, 56, 0
1, 113399, Note_on_c, 9, 42, 0
1, 113400, Note_on_c, 9, 42, 95
1, 113519, Note_on_c, 9, 42, 0
1, 113520, Note_on_c, 9, 46, 92
1, 113759, Note_on_c, 9, 35, 0
1, 113759, Note_on_c, 9, 46, 0
1, 113760, Note_on_c, 9, 38, 87
1, 113760, Note_on_c, 9, 40, 112
1, 113760, Note_on_c, 9, 56, 84
1, 113760, Note_on_c, 9, 42, 95
1, 113879, Note_on_c, 9, 38, 0
1, 113879, Note_on_c, 9, 40, 0
1, 113879, Note_on_c, 9, 56, 0
1, 113879, Note_on_c, 9, 42, 0
1, 113880, Note_on_c, 9, 42, 86
1, 113999, Note_on_c, 9, 42, 0
1, 114000, Note_on_c, 9, 46, 92
1, 114239, Note_on_c, 9, 46, 0
1, 114240, Note_on_c, 9, 56, 84
1, 114240, Note_on_c, 9, 42, 92
1, 114240, Note_on_c, 9, 35, 112
1, 114359, Note_on_c, 9, 56, 0
1, 114359, Note_on_c, 9, 42, 0
1, 114360, Note_on_c, 9, 42, 89
1, 114479, Note_on_c, 9, 42, 0
1, 114480, Note_on_c, 9, 46, 89
1, 114719, Note_on_c, 9, 35, 0
1, 114719, Note_on_c, 9, 46, 0
1, 114720, Note_on_c, 9, 38, 87
1, 114720, Note_on_c, 9, 40, 112
1, 114720, Note_on_c, 9, 56, 84
1, 114720, Note_on_c, 9, 42, 98
1, 114839, Note_on_c, 9, 38, 0
1, 114839, Note_on_c, 9, 40, 0
1, 114839, Note_on_c, 9, 56, 0
1, 114839, Note_on_c, 9, 42, 0
1, 114840, Note_on_c, 9, 42, 89
1, 114959, Note_on_c, 9, 42, 0
1, 114960, Note_on_c, 9, 46, 92
1, 115199, Note_on_c, 9, 46, 0
1, 115200, Note_on_c, 9, 56, 84
1, 115200, Note_on_c, 9, 42, 98
1, 115200, Note_on_c, 9, 35, 112
1, 115319, Note_on_c, 9, 56, 0
1, 115319, Note_on_c, 9, 42, 0
1, 115320, Note_on_c, 9, 42, 92
1, 115439, Note_on_c, 9, 42, 0
1, 115440, Note_on_c, 9, 46, 86
1, 115440, Note_on_c, 9, 56, 84
1, 115679, Note_on_c, 9, 35, 0
1, 115679, Note_on_c, 9, 46, 0
1, 115679, Note_on_c, 9, 56, 0
1, 115680, Note_on_c, 9, 38, 87
1, 115680, Note_on_c, 9, 40, 112
1, 115680, Note_on_c, 9, 56, 84
1, 115680, Note_on_c, 9, 42, 95
1, 115799, Note_on_c, 9, 38, 0
1, 115799, Note_on_c, 9, 40, 0
1, 115799, Note_on_c, 9, 56, 0
1, 115799, Note_on_c, 9, 42, 0
1, 115800, Note_on_c, 9, 42, 89
1, 115919, Note_on_c, 9, 42, 0
1, 115920, Note_on_c, 9, 46, 89
1, 116159, Note_on_c, 9, 46, 0
1, 116160, Note_on_c, 9, 56, 84
1, 116160, Note_on_c, 9, 42, 92
1, 116160, Note_on_c, 9, 35, 112
1, 116279, Note_on_c, 9, 56, 0
1, 116279, Note_on_c, 9, 42, 0
1, 116280, Note_on_c, 9, 42, 80
1, 116399, Note_on_c, 9, 42, 0
1, 116400, Note_on_c, 9, 46, 95
1, 116639, Note_on_c, 9, 35, 0
1, 116639, Note_on_c, 9, 46, 0
1, 116640, Note_on_c, 9, 38, 87
1, 116640, Note_on_c, 9, 40, 112
1, 116640, Note_on_c, 9, 56, 80
1, 116640, Note_on_c, 9, 42, 89
1, 116759, Note_on_c, 9, 38, 0
1, 116759, Note_on_c, 9, 40, 0
1, 116759, Note_on_c, 9, 56, 0
1, 116759, Note_on_c, 9, 42, 0
1, 116760, Note_on_c, 9, 42, 89
1, 116879, Note_on_c, 9, 42, 0
1, 116880, Note_on_c, 9, 46, 89
1, 117119, Note_on_c, 9, 46, 0
1, 117120, Note_on_c, 9, 56, 80
1, 117120, Note_on_c, 9, 42, 89
1, 117120, Note_on_c, 9, 35, 112
1, 117239, Note_on_c, 9, 56, 0
1, 117239, Note_on_c, 9, 42, 0
1, 117240, Note_on_c, 9, 42, 89
1, 117359, Note_on_c, 9, 42, 0
1, 117360, Note_on_c, 9, 46, 95
1, 117599, Note_on_c, 9, 35, 0
1, 117599, Note_on_c, 9, 46, 0
1, 117600, Note_on_c, 9, 38, 87
1, 117600, Note_on_c, 9, 40, 112
1, 117600, Note_on_c, 9, 56, 80
1, 117600, Note_on_c, 9, 42, 84
1, 117719, Note_on_c, 9, 38, 0
1, 117719, Note_on_c, 9, 40, 0
1, 117719, Note_on_c, 9, 56, 0
1, 117719, Note_on_c, 9, 42, 0
1, 117720, Note_on_c, 9, 42, 92
1, 117839, Note_on_c, 9, 42, 0
1, 117840, Note_on_c, 9, 46, 92
1, 118079, Note_on_c, 9, 46, 0
1, 118080, Time_signature, 2, 2, 24, 8
1, 118080, Note_on_c, 9, 56, 85
1, 118080, Note_on_c, 9, 42, 78
1, 118080, Note_on_c, 9, 35, 112
1, 118199, Note_on_c, 9, 56, 0
1, 118199, Note_on_c, 9, 42, 0
1, 118200, Note_on_c, 9, 42, 86
1, 118319, Note_on_c, 9, 42, 0
1, 118320, Note_on_c, 9, 46, 95
1, 118559, Note_on_c, 9, 35, 0
1, 118559, Note_on_c, 9, 46, 0
1, 118560, Note_on_c, 9, 38, 87
1, 118560, Note_on_c, 9, 40, 112
1, 118560, Note_on_c, 9, 56, 85
1, 118560, Note_on_c, 9, 42, 89
1, 118679, Note_on_c, 9, 38, 0
1, 118679, Note_on_c, 9, 40, 0
1, 118679, Note_on_c, 9, 56, 0
1, 118679, Note_on_c, 9, 42, 0
1, 118680, Note_on_c, 9, 42, 86
1, 118799, Note_on_c, 9, 42, 0
1, 118800, Note_on_c, 9, 46, 95
1, 119039, Note_on_c, 9, 46, 0
1, 119040, Time_signature, 4, 2, 24, 8
1, 119040, Note_on_c, 9, 38, 87
1, 119040, Note_on_c, 9, 40, 112
1, 119040, Note_on_c, 9, 56, 85
1, 119040, Note_on_c, 9, 42, 89
1, 119040, Note_on_c, 9, 35, 112
1, 119519, Note_on_c, 9, 38, 0
1, 119519, Note_on_c, 9, 40, 0
1, 119519, Note_on_c, 9, 56, 0
1, 119519, Note_on_c, 9, 42, 0
1, 119519, Note_on_c, 9, 35, 0
1, 119520, Note_on_c, 9, 42, 67
1, 119999, Note_on_c, 9, 42, 0
1, 120000, Note_on_c, 9, 42, 55
1, 120479, Note_on_c, 9, 42, 0
1, 120480, Note_on_c, 9, 42, 59
1, 120480, Note_on_c, 9, 35, 89
1, 120959, Note_on_c, 9, 42, 0
1, 120959, Note_on_c, 9, 35, 0
1, 120960, Note_on_c, 9, 42, 59
1, 121439, Note_on_c, 9, 42, 0
1, 121440, Note_on_c, 9, 42, 69
1, 121919, Note_on_c, 9, 42, 0
1, 121920, Note_on_c, 9, 42, 69
1, 122399, Note_on_c, 9, 42, 0
1, 122400, Note_on_c, 9, 42, 63
1, 122400, Note_on_c, 9, 35, 95
1, 122879, Note_on_c, 9, 42, 0
1, 122879, Note_on_c, 9, 35, 0
1, 122880, Note_on_c, 9, 42, 69
1, 123359, Note_on_c, 9, 42, 0
1, 123360, Note_on_c, 9, 42, 69
1, 123839, Note_on_c, 9, 42, 0
1, 123840, Note_on_c, 9, 42, 63
1, 124319, Note_on_c, 9, 42, 0
1, 124320, Note_on_c, 9, 42, 63
1, 124320, Note_on_c, 9, 35, 92
1, 124799, Note_on_c, 9, 42, 0
1, 124799, Note_on_c, 9, 35, 0
1, 124800, Note_on_c, 9, 42, 67
1, 125279, Note_on_c, 9, 42, 0
1, 125280, Note_on_c, 9, 42, 55
1, 125759, Note_on_c, 9, 42, 0
1, 125760, Note_on_c, 9, 42, 58
1, 126239, Note_on_c, 9, 42, 0
1, 126240, Note_on_c, 9, 42, 55
1, 126240, Note_on_c, 9, 35, 94
1, 126719, Note_on_c, 9, 42, 0
1, 126719, Note_on_c, 9, 35, 0
1, 126720, Note_on_c, 9, 42, 60
1, 127199, Note_on_c, 9, 42, 0
1, 127200, Note_on_c, 9, 42, 63
1, 127679, Note_on_c, 9, 42, 0
1, 127680, Note_on_c, 9, 42, 52
1, 128159, Note_on_c, 9, 42, 0
1, 128160, Note_on_c, 9, 42, 69
1, 128160, Note_on_c, 9, 35, 97
1, 128639, Note_on_c, 9, 42, 0
1, 128639, Note_on_c, 9, 35, 0
1, 128640, Note_on_c, 9, 42, 80
1, 129119, Note_on_c, 9, 42, 0
1, 129120, Note_on_c, 9, 42, 70
1, 129599, Note_on_c, 9, 42, 0
1, 129600, Note_on_c, 9, 42, 59
1, 130079, Note_on_c, 9, 42, 0
1, 130080, Note_on_c, 9, 42, 72
1, 130080, Note_on_c, 9, 35, 98
1, 130559, Note_on_c, 9, 42, 0
1, 130559, Note_on_c, 9, 35, 0
1, 130560, Note_on_c, 9, 42, 82
1, 131039, Note_on_c, 9, 42, 0
1, 131040, Note_on_c, 9, 42, 74
1, 131519, Note_on_c, 9, 42, 0
1, 131520, Note_on_c, 9, 42, 74
1, 131999, Note_on_c, 9, 42, 0
1, 132000, Note_on_c, 9, 42, 62
1, 132000, Note_on_c, 9, 35, 100
1, 132479, Note_on_c, 9, 42, 0
1, 132479, Note_on_c, 9, 35, 0
1, 132480, Note_on_c, 9, 42, 69
1, 132959, Note_on_c, 9, 42, 0
1, 132960, Note_on_c, 9, 42, 70
1, 133439, Note_on_c, 9, 42, 0
1, 133440, Note_on_c, 9, 42, 74
1, 133919, Note_on_c, 9, 42, 0
1, 133920, Note_on_c, 9, 42, 72
1, 133920, Note_on_c, 9, 35, 100
1, 134399, Note_on_c, 9, 42, 0
1, 134399, Note_on_c, 9, 35, 0
1, 134400, Note_on_c, 9, 42, 57
1, 134639, Note_on_c, 9, 42, 0
1, 134640, Note_on_c, 9, 42, 53
1, 134879, Note_on_c, 9, 42, 0
1, 134880, Note_on_c, 9, 42, 62
1, 135119, Note_on_c, 9, 42, 0
1, 135120, Note_on_c, 9, 42, 43
1, 135359, Note_on_c, 9, 42, 0
1, 135360, Note_on_c, 9, 42, 69
1, 135599, Note_on_c, 9, 42, 0
1, 135600, Note_on_c, 9, 42, 44
1, 135839, Note_on_c, 9, 42, 0
1, 135840, Note_on_c, 9, 42, 76
1, 135840, Note_on_c, 9, 35, 99
1, 136079, Note_on_c, 9, 42, 0
1, 136080, Note_on_c, 9, 42, 41
1, 136319, Note_on_c, 9, 35, 0
1, 136319, Note_on_c, 9, 42, 0
1, 136320, Note_on_c, 9, 42, 70
1, 136559, Note_on_c, 9, 42, 0
1, 136560, Note_on_c, 9, 42, 38
1, 136799, Note_on_c, 9, 42, 0
1, 136800, Note_on_c, 9, 42, 69
1, 137039, Note_on_c, 9, 42, 0
1, 137040, Note_on_c, 9, 42, 50
1, 137279, Note_on_c, 9, 42, 0
1, 137280, Note_on_c, 9, 42, 76
1, 137519, Note_on_c, 9, 42, 0
1, 137520, Note_on_c, 9, 42, 45
1, 137759, Note_on_c, 9, 42, 0
1, 137760, Note_on_c, 9, 42, 72
1, 137760, Note_on_c, 9, 35, 93
1, 137999, Note_on_c, 9, 42, 0
1, 138000, Note_on_c, 9, 42, 47
1, 138239, Note_on_c, 9, 35, 0
1, 138239, Note_on_c, 9, 42, 0
1, 138240, Note_on_c, 9, 42, 76
1, 138479, Note_on_c, 9, 42, 0
1, 138480, Note_on_c, 9, 42, 53
1, 138719, Note_on_c, 9, 42, 0
1, 138720, Note_on_c, 9, 42, 59
1, 138959, Note_on_c, 9, 42, 0
1, 138960, Note_on_c, 9, 42, 46
1, 139199, Note_on_c, 9, 42, 0
1, 139200, Note_on_c, 9, 42, 59
1, 139439, Note_on_c, 9, 42, 0
1, 139440, Note_on_c, 9, 42, 46
1, 139679, Note_on_c, 9, 42, 0
1, 139680, Note_on_c, 9, 42, 70
1, 139680, Note_on_c, 9, 35, 96
1, 139919, Note_on_c, 9, 42, 0
1, 139920, Note_on_c, 9, 42, 44
1, 140159, Note_on_c, 9, 35, 0
1, 140159, Note_on_c, 9, 42, 0
1, 140160, Note_on_c, 9, 42, 76
1, 140399, Note_on_c, 9, 42, 0
1, 140400, Note_on_c, 9, 42, 46
1, 140639, Note_on_c, 9, 42, 0
1, 140640, Note_on_c, 9, 42, 76
1, 140879, Note_on_c, 9, 42, 0
1, 140880, Note_on_c, 9, 42, 52
1, 141119, Note_on_c, 9, 42, 0
1, 141120, Note_on_c, 9, 42, 76
1, 141359, Note_on_c, 9, 42, 0
1, 141360, Note_on_c, 9, 42, 51
1, 141599, Note_on_c, 9, 42, 0
1, 141600, Note_on_c, 9, 42, 84
1, 141600, Note_on_c, 9, 35, 99
1, 141839, Note_on_c, 9, 42, 0
1, 141840, Note_on_c, 9, 42, 52
1, 142079, Note_on_c, 9, 35, 0
1, 142079, Note_on_c, 9, 42, 0
1, 142080, Note_on_c, 9, 42, 92
1, 142199, Note_on_c, 9, 42, 0
1, 142200, Note_on_c, 9, 42, 57
1, 142319, Note_on_c, 9, 42, 0
1, 142320, Note_on_c, 9, 42, 53
1, 142439, Note_on_c, 9, 42, 0
1, 142440, Note_on_c, 9, 42, 57
1, 142559, Note_on_c, 9, 42, 0
1, 142560, Note_on_c, 9, 42, 89
1, 142560, Note_on_c, 9, 35, 99
1, 142679, Note_on_c, 9, 42, 0
1, 142680, Note_on_c, 9, 42, 39
1, 142799, Note_on_c, 9, 42, 0
1, 142800, Note_on_c, 9, 42, 62
1, 142919, Note_on_c, 9, 42, 0
1, 142920, Note_on_c, 9, 42, 69
1, 143039, Note_on_c, 9, 35, 0
1, 143039, Note_on_c, 9, 42, 0
1, 143040, Note_on_c, 9, 42, 86
1, 143159, Note_on_c, 9, 42, 0
1, 143160, Note_on_c, 9, 42, 47
1, 143279, Note_on_c, 9, 42, 0
1, 143280, Note_on_c, 9, 42, 49
1, 143399, Note_on_c, 9, 42, 0
1, 143400, Note_on_c, 9, 42, 64
1, 143519, Note_on_c, 9, 42, 0
1, 143520, Note_on_c, 9, 42, 89
1, 143520, Note_on_c, 9, 35, 103
1, 143639, Note_on_c, 9, 42, 0
1, 143640, Note_on_c, 9, 42, 53
1, 143759, Note_on_c, 9, 42, 0
1, 143760, Note_on_c, 9, 42, 63
1, 143879, Note_on_c, 9, 42, 0
1, 143880, Note_on_c, 9, 42, 62
1, 143999, Note_on_c, 9, 35, 0
1, 143999, Note_on_c, 9, 42, 0
1, 144000, Note_on_c, 9, 42, 92
1, 144119, Note_on_c, 9, 42, 0
1, 144120, Note_on_c, 9, 42, 36
1, 144239, Note_on_c, 9, 42, 0
1, 144240, Note_on_c, 9, 42, 52
1, 144359, Note_on_c, 9, 42, 0
1, 144360, Note_on_c, 9, 42, 67
1, 144479, Note_on_c, 9, 42, 0
1, 144480, Note_on_c, 9, 42, 84
1, 144480, Note_on_c, 9, 35, 105
1, 144599, Note_on_c, 9, 42, 0
1, 144600, Note_on_c, 9, 42, 34
1, 144719, Note_on_c, 9, 42, 0
1, 144720, Note_on_c, 9, 42, 62
1, 144839, Note_on_c, 9, 42, 0
1, 144840, Note_on_c, 9, 42, 67
1, 144959, Note_on_c, 9, 35, 0
1, 144959, Note_on_c, 9, 42, 0
1, 144960, Note_on_c, 9, 42, 89
1, 145079, Note_on_c, 9, 42, 0
1, 145080, Note_on_c, 9, 42, 43
1, 145199, Note_on_c, 9, 42, 0
1, 145200, Note_on_c, 9, 42, 52
1, 145319, Note_on_c, 9, 42, 0
1, 145320, Note_on_c, 9, 42, 80
1, 145439, Note_on_c, 9, 42, 0
1, 145440, Note_on_c, 9, 42, 95
1, 145440, Note_on_c, 9, 35, 103
1, 145559, Note_on_c, 9, 42, 0
1, 145560, Note_on_c, 9, 42, 39
1, 145679, Note_on_c, 9, 42, 0
1, 145680, Note_on_c, 9, 42, 56
1, 145799, Note_on_c, 9, 42, 0
1, 145800, Note_on_c, 9, 42, 70
1, 145919, Note_on_c, 9, 35, 0
1, 145919, Note_on_c, 9, 42, 0
1, 145920, Note_on_c, 9, 42, 95
1, 146039, Note_on_c, 9, 42, 0
1, 146040, Note_on_c, 9, 42, 44
1, 146159, Note_on_c, 9, 42, 0
1, 146160, Note_on_c, 9, 42, 56
1, 146279, Note_on_c, 9, 42, 0
1, 146280, Note_on_c, 9, 42, 74
1, 146399, Note_on_c, 9, 42, 0
1, 146400, Note_on_c, 9, 42, 95
1, 146400, Note_on_c, 9, 35, 103
1, 146519, Note_on_c, 9, 42, 0
1, 146520, Note_on_c, 9, 42, 52
1, 146639, Note_on_c, 9, 42, 0
1, 146640, Note_on_c, 9, 42, 52
1, 146759, Note_on_c, 9, 42, 0
1, 146760, Note_on_c, 9, 42, 66
1, 146879, Note_on_c, 9, 35, 0
1, 146879, Note_on_c, 9, 42, 0
1, 146880, Note_on_c, 9, 42, 82
1, 146999, Note_on_c, 9, 42, 0
1, 147000, Note_on_c, 9, 42, 53
1, 147119, Note_on_c, 9, 42, 0
1, 147120, Note_on_c, 9, 42, 56
1, 147239, Note_on_c, 9, 42, 0
1, 147240, Note_on_c, 9, 42, 70
1, 147359, Note_on_c, 9, 42, 0
1, 147360, Note_on_c, 9, 42, 95
1, 147360, Note_on_c, 9, 35, 103
1, 147479, Note_on_c, 9, 42, 0
1, 147480, Note_on_c, 9, 42, 49
1, 147599, Note_on_c, 9, 42, 0
1, 147600, Note_on_c, 9, 42, 52
1, 147719, Note_on_c, 9, 42, 0
1, 147720, Note_on_c, 9, 42, 70
1, 147839, Note_on_c, 9, 35, 0
1, 147839, Note_on_c, 9, 42, 0
1, 147840, Note_on_c, 9, 42, 92
1, 147959, Note_on_c, 9, 42, 0
1, 147960, Note_on_c, 9, 42, 41
1, 148079, Note_on_c, 9, 42, 0
1, 148080, Note_on_c, 9, 42, 45
1, 148199, Note_on_c, 9, 42, 0
1, 148200, Note_on_c, 9, 42, 76
1, 148319, Note_on_c, 9, 42, 0
1, 148320, Note_on_c, 9, 42, 89
1, 148320, Note_on_c, 9, 35, 103
1, 148439, Note_on_c, 9, 42, 0
1, 148440, Note_on_c, 9, 42, 49
1, 148559, Note_on_c, 9, 42, 0
1, 148560, Note_on_c, 9, 42, 58
1, 148679, Note_on_c, 9, 42, 0
1, 148680, Note_on_c, 9, 42, 72
1, 148799, Note_on_c, 9, 35, 0
1, 148799, Note_on_c, 9, 42, 0
1, 148800, Note_on_c, 9, 42, 92
1, 148919, Note_on_c, 9, 42, 0
1, 148920, Note_on_c, 9, 42, 89
1, 149039, Note_on_c, 9, 42, 0
1, 149040, Note_on_c, 9, 42, 53
1, 149159, Note_on_c, 9, 42, 0
1, 149160, Note_on_c, 9, 42, 92
1, 149279, Note_on_c, 9, 42, 0
1, 149280, Note_on_c, 9, 42, 101
1, 149280, Note_on_c, 9, 35, 103
1, 149399, Note_on_c, 9, 42, 0
1, 149400, Note_on_c, 9, 42, 47
1, 149519, Note_on_c, 9, 42, 0
1, 149520, Note_on_c, 9, 42, 60
1, 149639, Note_on_c, 9, 42, 0
1, 149640, Note_on_c, 9, 42, 84
1, 149759, Note_on_c, 9, 35, 0
1, 149759, Note_on_c, 9, 42, 0
1, 149760, Note_on_c, 9, 42, 95
1, 149879, Note_on_c, 9, 42, 0
1, 149880, Note_on_c, 9, 42, 52
1, 149999, Note_on_c, 9, 42, 0
1, 150000, Note_on_c, 9, 42, 60
1, 150119, Note_on_c, 9, 42, 0
1, 150120, Note_on_c, 9, 42, 84
1, 150239, Note_on_c, 9, 42, 0
1, 150240, Note_on_c, 9, 42, 98
1, 150240, Note_on_c, 9, 35, 103
1, 150359, Note_on_c, 9, 42, 0
1, 150360, Note_on_c, 9, 42, 50
1, 150479, Note_on_c, 9, 42, 0
1, 150480, Note_on_c, 9, 42, 58
1, 150599, Note_on_c, 9, 42, 0
1, 150600, Note_on_c, 9, 42, 80
1, 150719, Note_on_c, 9, 35, 0
1, 150719, Note_on_c, 9, 42, 0
1, 150720, Note_on_c, 9, 42, 86
1, 150839, Note_on_c, 9, 42, 0
1, 150840, Note_on_c, 9, 42, 46
1, 150959, Note_on_c, 9, 42, 0
1, 150960, Note_on_c, 9, 42, 57
1, 151079, Note_on_c, 9, 42, 0
1, 151080, Note_on_c, 9, 42, 66
1, 151199, Note_on_c, 9, 42, 0
1, 151200, Note_on_c, 9, 42, 89
1, 151200, Note_on_c, 9, 35, 103
1, 151319, Note_on_c, 9, 42, 0
1, 151320, Note_on_c, 9, 42, 58
1, 151439, Note_on_c, 9, 42, 0
1, 151440, Note_on_c, 9, 42, 60
1, 151559, Note_on_c, 9, 42, 0
1, 151560, Note_on_c, 9, 42, 78
1, 151679, Note_on_c, 9, 35, 0
1, 151679, Note_on_c, 9, 42, 0
1, 151680, Note_on_c, 9, 42, 89
1, 151799, Note_on_c, 9, 42, 0
1, 151800, Note_on_c, 9, 42, 59
1, 151919, Note_on_c, 9, 42, 0
1, 151920, Note_on_c, 9, 42, 59
1, 152039, Note_on_c, 9, 42, 0
1, 152040, Note_on_c, 9, 42, 66
1, 152159, Note_on_c, 9, 42, 0
1, 152160, Note_on_c, 9, 42, 89
1, 152160, Note_on_c, 9, 35, 103
1, 152279, Note_on_c, 9, 42, 0
1, 152280, Note_on_c, 9, 42, 52
1, 152399, Note_on_c, 9, 42, 0
1, 152400, Note_on_c, 9, 42, 58
1, 152519, Note_on_c, 9, 42, 0
1, 152520, Note_on_c, 9, 42, 69
1, 152639, Note_on_c, 9, 35, 0
1, 152639, Note_on_c, 9, 42, 0
1, 152640, Note_on_c, 9, 42, 89
1, 152759, Note_on_c, 9, 42, 0
1, 152760, Note_on_c, 9, 42, 57
1, 152879, Note_on_c, 9, 42, 0
1, 152880, Note_on_c, 9, 42, 55
1, 152999, Note_on_c, 9, 42, 0
1, 153000, Note_on_c, 9, 42, 76
1, 153119, Note_on_c, 9, 42, 0
1, 153120, Note_on_c, 9, 42, 95
1, 153120, Note_on_c, 9, 35, 99
1, 153239, Note_on_c, 9, 42, 0
1, 153240, Note_on_c, 9, 42, 52
1, 153359, Note_on_c, 9, 42, 0
1, 153360, Note_on_c, 9, 42, 53
1, 153479, Note_on_c, 9, 42, 0
1, 153480, Note_on_c, 9, 42, 72
1, 153599, Note_on_c, 9, 35, 0
1, 153599, Note_on_c, 9, 42, 0
1, 153600, Note_on_c, 9, 42, 92
1, 153719, Note_on_c, 9, 42, 0
1, 153720, Note_on_c, 9, 42, 56
1, 153839, Note_on_c, 9, 42, 0
1, 153840, Note_on_c, 9, 42, 52
1, 153959, Note_on_c, 9, 42, 0
1, 153960, Note_on_c, 9, 42, 67
1, 154079, Note_on_c, 9, 42, 0
1, 154080, Note_on_c, 9, 42, 89
1, 154080, Note_on_c, 9, 35, 99
1, 154199, Note_on_c, 9, 42, 0
1, 154200, Note_on_c, 9, 42, 53
1, 154319, Note_on_c, 9, 42, 0
1, 154320, Note_on_c, 9, 42, 48
1, 154439, Note_on_c, 9, 42, 0
1, 154440, Note_on_c, 9, 42, 72
1, 154559, Note_on_c, 9, 35, 0
1, 154559, Note_on_c, 9, 42, 0
1, 154560, Note_on_c, 9, 42, 89
1, 154679, Note_on_c, 9, 42, 0
1, 154680, Note_on_c, 9, 42, 52
1, 154799, Note_on_c, 9, 42, 0
1, 154800, Note_on_c, 9, 42, 52
1, 154919, Note_on_c, 9, 42, 0
1, 154920, Note_on_c, 9, 42, 78
1, 155039, Note_on_c, 9, 42, 0
1, 155040, Note_on_c, 9, 42, 92
1, 155040, Note_on_c, 9, 35, 99
1, 155159, Note_on_c, 9, 42, 0
1, 155160, Note_on_c, 9, 42, 58
1, 155279, Note_on_c, 9, 42, 0
1, 155280, Note_on_c, 9, 42, 48
1, 155399, Note_on_c, 9, 42, 0
1, 155400, Note_on_c, 9, 42, 80
1, 155519, Note_on_c, 9, 35, 0
1, 155519, Note_on_c, 9, 42, 0
1, 155520, Note_on_c, 9, 42, 98
1, 155639, Note_on_c, 9, 42, 0
1, 155640, Note_on_c, 9, 42, 60
1, 155759, Note_on_c, 9, 42, 0
1, 155760, Note_on_c, 9, 42, 47
1, 155879, Note_on_c, 9, 42, 0
1, 155880, Note_on_c, 9, 42, 84
1, 155999, Note_on_c, 9, 42, 0
1, 156000, Note_on_c, 9, 42, 95
1, 156000, Note_on_c, 9, 35, 99
1, 156119, Note_on_c, 9, 42, 0
1, 156120, Note_on_c, 9, 42, 43
1, 156239, Note_on_c, 9, 42, 0
1, 156240, Note_on_c, 9, 42, 60
1, 156359, Note_on_c, 9, 42, 0
1, 156360, Note_on_c, 9, 42, 84
1, 156479, Note_on_c, 9, 35, 0
1, 156479, Note_on_c, 9, 42, 0
1, 156480, Note_on_c, 9, 42, 95
1, 156599, Note_on_c, 9, 42, 0
1, 156600, Note_on_c, 9, 42, 60
1, 156719, Note_on_c, 9, 42, 0
1, 156720, Note_on_c, 9, 42, 53
1, 156839, Note_on_c, 9, 42, 0
1, 156840, Note_on_c, 9, 42, 72
1, 156959, Note_on_c, 9, 42, 0
1, 156960, Note_on_c, 9, 42, 89
1, 156960, Note_on_c, 9, 35, 99
1, 157079, Note_on_c, 9, 42, 0
1, 157080, Note_on_c, 9, 42, 64
1, 157199, Note_on_c, 9, 42, 0
1, 157200, Note_on_c, 9, 42, 58
1, 157319, Note_on_c, 9, 42, 0
1, 157320, Note_on_c, 9, 42, 70
1, 157439, Note_on_c, 9, 35, 0
1, 157439, Note_on_c, 9, 42, 0
1, 157440, Note_on_c, 9, 42, 98
1, 157440, Note_on_c, 9, 35, 99
1, 157559, Note_on_c, 9, 42, 0
1, 157560, Note_on_c, 9, 42, 52
1, 157679, Note_on_c, 9, 42, 0
1, 157680, Note_on_c, 9, 42, 62
1, 157799, Note_on_c, 9, 42, 0
1, 157800, Note_on_c, 9, 42, 64
1, 157919, Note_on_c, 9, 35, 0
1, 157919, Note_on_c, 9, 42, 0
1, 157920, Note_on_c, 9, 42, 92
1, 157920, Note_on_c, 9, 35, 99
1, 158039, Note_on_c, 9, 42, 0
1, 158040, Note_on_c, 9, 42, 57
1, 158159, Note_on_c, 9, 42, 0
1, 158160, Note_on_c, 9, 42, 52
1, 158279, Note_on_c, 9, 42, 0
1, 158280, Note_on_c, 9, 42, 82
1, 158399, Note_on_c, 9, 35, 0
1, 158399, Note_on_c, 9, 42, 0
1, 158400, Note_on_c, 9, 42, 92
1, 158400, Note_on_c, 9, 35, 99
1, 158519, Note_on_c, 9, 42, 0
1, 158520, Note_on_c, 9, 42, 56
1, 158639, Note_on_c, 9, 42, 0
1, 158640, Note_on_c, 9, 42, 55
1, 158759, Note_on_c, 9, 42, 0
1, 158760, Note_on_c, 9, 42, 78
1, 158879, Note_on_c, 9, 35, 0
1, 158879, Note_on_c, 9, 42, 0
1, 158880, Note_on_c, 9, 42, 98
1, 158880, Note_on_c, 9, 35, 99
1, 158999, Note_on_c, 9, 42, 0
1, 159000, Note_on_c, 9, 42, 52
1, 159119, Note_on_c, 9, 42, 0
1, 159120, Note_on_c, 9, 42, 58
1, 159239, Note_on_c, 9, 42, 0
1, 159240, Note_on_c, 9, 42, 84
1, 159359, Note_on_c, 9, 35, 0
1, 159359, Note_on_c, 9, 42, 0
1, 159360, Note_on_c, 9, 42, 95
1, 159360, Note_on_c, 9, 35, 99
1, 159479, Note_on_c, 9, 42, 0
1, 159480, Note_on_c, 9, 42, 70
1, 159599, Note_on_c, 9, 42, 0
1, 159600, Note_on_c, 9, 42, 58
1, 159719, Note_on_c, 9, 42, 0
1, 159720, Note_on_c, 9, 42, 70
1, 159839, Note_on_c, 9, 35, 0
1, 159839, Note_on_c, 9, 42, 0
1, 159840, Note_on_c, 9, 42, 95
1, 159840, Note_on_c, 9, 35, 99
1, 159959, Note_on_c, 9, 42, 0
1, 159960, Note_on_c, 9, 42, 59
1, 160079, Note_on_c, 9, 42, 0
1, 160080, Note_on_c, 9, 42, 62
1, 160199, Note_on_c, 9, 42, 0
1, 160200, Note_on_c, 9, 42, 74
1, 160319, Note_on_c, 9, 35, 0
1, 160319, Note_on_c, 9, 42, 0
1, 160320, Note_on_c, 9, 42, 86
1, 160320, Note_on_c, 9, 35, 99
1, 160439, Note_on_c, 9, 42, 0
1, 160440, Note_on_c, 9, 42, 59
1, 160559, Note_on_c, 9, 42, 0
1, 160560, Note_on_c, 9, 42, 55
1, 160679, Note_on_c, 9, 42, 0
1, 160680, Note_on_c, 9, 42, 82
1, 160799, Note_on_c, 9, 35, 0
1, 160799, Note_on_c, 9, 42, 0
1, 160800, Note_on_c, 9, 42, 95
1, 160800, Note_on_c, 9, 35, 99
1, 160919, Note_on_c, 9, 42, 0
1, 160920, Note_on_c, 9, 42, 57
1, 161039, Note_on_c, 9, 42, 0
1, 161040, Note_on_c, 9, 42, 59
1, 161159, Note_on_c, 9, 42, 0
1, 161160, Note_on_c, 9, 42, 69
1, 161279, Note_on_c, 9, 35, 0
1, 161279, Note_on_c, 9, 42, 0
1, 161280, Note_on_c, 9, 42, 89
1, 161280, Note_on_c, 9, 35, 99
1, 161399, Note_on_c, 9, 42, 0
1, 161400, Note_on_c, 9, 42, 64
1, 161519, Note_on_c, 9, 42, 0
1, 161520, Note_on_c, 9, 42, 55
1, 161639, Note_on_c, 9, 42, 0
1, 161640, Note_on_c, 9, 42, 70
1, 161759, Note_on_c, 9, 35, 0
1, 161759, Note_on_c, 9, 42, 0
1, 161760, Note_on_c, 9, 42, 95
1, 161760, Note_on_c, 9, 35, 99
1, 161879, Note_on_c, 9, 42, 0
1, 161880, Note_on_c, 9, 42, 70
1, 161999, Note_on_c, 9, 42, 0
1, 162000, Note_on_c, 9, 42, 57
1, 162119, Note_on_c, 9, 42, 0
1, 162120, Note_on_c, 9, 42, 74
1, 162239, Note_on_c, 9, 35, 0
1, 162239, Note_on_c, 9, 42, 0
1, 162240, Note_on_c, 9, 42, 95
1, 162240, Note_on_c, 9, 35, 98
1, 162359, Note_on_c, 9, 42, 0
1, 162360, Note_on_c, 9, 42, 60
1, 162479, Note_on_c, 9, 42, 0
1, 162480, Note_on_c, 9, 42, 62
1, 162599, Note_on_c, 9, 42, 0
1, 162600, Note_on_c, 9, 42, 70
1, 162719, Note_on_c, 9, 35, 0
1, 162719, Note_on_c, 9, 42, 0
1, 162720, Note_on_c, 9, 42, 95
1, 162720, Note_on_c, 9, 35, 98
1, 162839, Note_on_c, 9, 42, 0
1, 162840, Note_on_c, 9, 42, 55
1, 162959, Note_on_c, 9, 42, 0
1, 162960, Note_on_c, 9, 42, 60
1, 163079, Note_on_c, 9, 42, 0
1, 163080, Note_on_c, 9, 42, 72
1, 163199, Note_on_c, 9, 35, 0
1, 163199, Note_on_c, 9, 42, 0
1, 163200, Note_on_c, 9, 42, 98
1, 163200, Note_on_c, 9, 35, 98
1, 163319, Note_on_c, 9, 42, 0
1, 163320, Note_on_c, 9, 42, 55
1, 163439, Note_on_c, 9, 42, 0
1, 163440, Note_on_c, 9, 42, 64
1, 163559, Note_on_c, 9, 42, 0
1, 163560, Note_on_c, 9, 42, 72
1, 163679, Note_on_c, 9, 35, 0
1, 163679, Note_on_c, 9, 42, 0
1, 163680, Note_on_c, 9, 42, 95
1, 163680, Note_on_c, 9, 35, 98
1, 163799, Note_on_c, 9, 42, 0
1, 163800, Note_on_c, 9, 42, 70
1, 163919, Note_on_c, 9, 42, 0
1, 163920, Note_on_c, 9, 42, 67
1, 164039, Note_on_c, 9, 42, 0
1, 164040, Note_on_c, 9, 42, 82
1, 164159, Note_on_c, 9, 35, 0
1, 164159, Note_on_c, 9, 42, 0
1, 164160, Note_on_c, 9, 42, 95
1, 164160, Note_on_c, 9, 35, 98
1, 164279, Note_on_c, 9, 42, 0
1, 164280, Note_on_c, 9, 42, 60
1, 164399, Note_on_c, 9, 42, 0
1, 164400, Note_on_c, 9, 42, 51
1, 164519, Note_on_c, 9, 42, 0
1, 164520, Note_on_c, 9, 42, 89
1, 164639, Note_on_c, 9, 35, 0
1, 164639, Note_on_c, 9, 42, 0
1, 164640, Note_on_c, 9, 42, 98
1, 164640, Note_on_c, 9, 35, 98
1, 164759, Note_on_c, 9, 42, 0
1, 164760, Note_on_c, 9, 42, 55
1, 164879, Note_on_c, 9, 42, 0
1, 164880, Note_on_c, 9, 42, 62
1, 164999, Note_on_c, 9, 42, 0
1, 165000, Note_on_c, 9, 42, 72
1, 165119, Note_on_c, 9, 35, 0
1, 165119, Note_on_c, 9, 42, 0
1, 165120, Note_on_c, 9, 42, 95
1, 165120, Note_on_c, 9, 35, 98
1, 165239, Note_on_c, 9, 42, 0
1, 165240, Note_on_c, 9, 42, 74
1, 165359, Note_on_c, 9, 42, 0
1, 165360, Note_on_c, 9, 42, 55
1, 165479, Note_on_c, 9, 42, 0
1, 165480, Note_on_c, 9, 42, 78
1, 165599, Note_on_c, 9, 35, 0
1, 165599, Note_on_c, 9, 42, 0
1, 165600, Note_on_c, 9, 42, 101
1, 165600, Note_on_c, 9, 35, 98
1, 165719, Note_on_c, 9, 42, 0
1, 165720, Note_on_c, 9, 42, 64
1, 165839, Note_on_c, 9, 42, 0
1, 165840, Note_on_c, 9, 42, 39
1, 165959, Note_on_c, 9, 42, 0
1, 165960, Note_on_c, 9, 42, 78
1, 166079, Note_on_c, 9, 35, 0
1, 166079, Note_on_c, 9, 42, 0
1, 166080, Note_on_c, 9, 42, 92
1, 166080, Note_on_c, 9, 35, 98
1, 166199, Note_on_c, 9, 42, 0
1, 166200, Note_on_c, 9, 42, 62
1, 166319, Note_on_c, 9, 42, 0
1, 166320, Note_on_c, 9, 42, 43
1, 166439, Note_on_c, 9, 42, 0
1, 166440, Note_on_c, 9, 42, 70
1, 166559, Note_on_c, 9, 35, 0
1, 166559, Note_on_c, 9, 42, 0
1, 166560, Note_on_c, 9, 42, 101
1, 166560, Note_on_c, 9, 35, 102
1, 166679, Note_on_c, 9, 42, 0
1, 166680, Note_on_c, 9, 42, 61
1, 166799, Note_on_c, 9, 42, 0
1, 166800, Note_on_c, 9, 42, 62
1, 166919, Note_on_c, 9, 42, 0
1, 166920, Note_on_c, 9, 42, 80
1, 167039, Note_on_c, 9, 35, 0
1, 167039, Note_on_c, 9, 42, 0
1, 167040, Note_on_c, 9, 42, 98
1, 167040, Note_on_c, 9, 35, 102
1, 167159, Note_on_c, 9, 42, 0
1, 167160, Note_on_c, 9, 42, 70
1, 167279, Note_on_c, 9, 42, 0
1, 167280, Note_on_c, 9, 42, 36
1, 167399, Note_on_c, 9, 42, 0
1, 167400, Note_on_c, 9, 42, 82
1, 167519, Note_on_c, 9, 35, 0
1, 167519, Note_on_c, 9, 42, 0
1, 167520, Note_on_c, 9, 42, 101
1, 167520, Note_on_c, 9, 35, 102
1, 167639, Note_on_c, 9, 42, 0
1, 167640, Note_on_c, 9, 42, 72
1, 167759, Note_on_c, 9, 42, 0
1, 167760, Note_on_c, 9, 42, 47
1, 167879, Note_on_c, 9, 42, 0
1, 167880, Note_on_c, 9, 42, 80
1, 167999, Note_on_c, 9, 35, 0
1, 167999, Note_on_c, 9, 42, 0
1, 168000, Note_on_c, 9, 42, 98
1, 168000, Note_on_c, 9, 35, 102
1, 168119, Note_on_c, 9, 42, 0
1, 168120, Note_on_c, 9, 42, 74
1, 168239, Note_on_c, 9, 42, 0
1, 168240, Note_on_c, 9, 42, 50
1, 168359, Note_on_c, 9, 42, 0
1, 168360, Note_on_c, 9, 42, 70
1, 168479, Note_on_c, 9, 35, 0
1, 168479, Note_on_c, 9, 42, 0
1, 168480, Note_on_c, 9, 42, 101
1, 168480, Note_on_c, 9, 35, 102
1, 168599, Note_on_c, 9, 42, 0
1, 168600, Note_on_c, 9, 42, 67
1, 168719, Note_on_c, 9, 42, 0
1, 168720, Note_on_c, 9, 42, 56
1, 168839, Note_on_c, 9, 42, 0
1, 168840, Note_on_c, 9, 42, 66
1, 168959, Note_on_c, 9, 35, 0
1, 168959, Note_on_c, 9, 42, 0
1, 168960, Note_on_c, 9, 42, 98
1, 168960, Note_on_c, 9, 35, 102
1, 169079, Note_on_c, 9, 42, 0
1, 169080, Note_on_c, 9, 42, 52
1, 169199, Note_on_c, 9, 42, 0
1, 169200, Note_on_c, 9, 42, 53
1, 169319, Note_on_c, 9, 42, 0
1, 169320, Note_on_c, 9, 42, 86
1, 169439, Note_on_c, 9, 35, 0
1, 169439, Note_on_c, 9, 42, 0
1, 169440, Note_on_c, 9, 42, 101
1, 169440, Note_on_c, 9, 35, 101
1, 169559, Note_on_c, 9, 42, 0
1, 169560, Note_on_c, 9, 42, 53
1, 169679, Note_on_c, 9, 42, 0
1, 169680, Note_on_c, 9, 42, 69
1, 169799, Note_on_c, 9, 42, 0
1, 169800, Note_on_c, 9, 42, 78
1, 169919, Note_on_c, 9, 35, 0
1, 169919, Note_on_c, 9, 42, 0
1, 169920, Note_on_c, 9, 42, 98
1, 169920, Note_on_c, 9, 35, 101
1, 170039, Note_on_c, 9, 42, 0
1, 170040, Note_on_c, 9, 42, 80
1, 170159, Note_on_c, 9, 42, 0
1, 170160, Note_on_c, 9, 42, 41
1, 170279, Note_on_c, 9, 42, 0
1, 170280, Note_on_c, 9, 42, 84
1, 170399, Note_on_c, 9, 35, 0
1, 170399, Note_on_c, 9, 42, 0
1, 170400, Note_on_c, 9, 42, 104
1, 170400, Note_on_c, 9, 35, 101
1, 170519, Note_on_c, 9, 42, 0
1, 170520, Note_on_c, 9, 42, 66
1, 170639, Note_on_c, 9, 42, 0
1, 170640, Note_on_c, 9, 42, 46
1, 170759, Note_on_c, 9, 42, 0
1, 170760, Note_on_c, 9, 42, 78
1, 170879, Note_on_c, 9, 35, 0
1, 170879, Note_on_c, 9, 42, 0
1, 170880, Note_on_c, 9, 42, 101
1, 170880, Note_on_c, 9, 35, 101
1, 170999, Note_on_c, 9, 42, 0
1, 171000, Note_on_c, 9, 42, 46
1, 171119, Note_on_c, 9, 42, 0
1, 171120, Note_on_c, 9, 42, 60
1, 171239, Note_on_c, 9, 42, 0
1, 171240, Note_on_c, 9, 42, 72
1, 171359, Note_on_c, 9, 35, 0
1, 171359, Note_on_c, 9, 42, 0
1, 171360, Note_on_c, 9, 42, 101
1, 171360, Note_on_c, 9, 35, 101
1, 171479, Note_on_c, 9, 42, 0
1, 171480, Note_on_c, 9, 42, 52
1, 171599, Note_on_c, 9, 42, 0
1, 171600, Note_on_c, 9, 42, 70
1, 171719, Note_on_c, 9, 42, 0
1, 171720, Note_on_c, 9, 42, 76
1, 171839, Note_on_c, 9, 35, 0
1, 171839, Note_on_c, 9, 42, 0
1, 171840, Note_on_c, 9, 42, 101
1, 171840, Note_on_c, 9, 35, 101
1, 171959, Note_on_c, 9, 42, 0
1, 171960, Note_on_c, 9, 42, 82
1, 172079, Note_on_c, 9, 42, 0
1, 172080, Note_on_c, 9, 42, 44
1, 172199, Note_on_c, 9, 42, 0
1, 172200, Note_on_c, 9, 42, 80
1, 172319, Note_on_c, 9, 35, 0
1, 172319, Note_on_c, 9, 42, 0
1, 172320, Note_on_c, 9, 42, 98
1, 172320, Note_on_c, 9, 35, 101
1, 172439, Note_on_c, 9, 42, 0
1, 172440, Note_on_c, 9, 42, 64
1, 172559, Note_on_c, 9, 42, 0
1, 172560, Note_on_c, 9, 42, 53
1, 172679, Note_on_c, 9, 42, 0
1, 172680, Note_on_c, 9, 42, 82
1, 172799, Note_on_c, 9, 35, 0
1, 172799, Note_on_c, 9, 42, 0
1, 172800, Note_on_c, 9, 42, 92
1, 172800, Note_on_c, 9, 35, 101
1, 172919, Note_on_c, 9, 42, 0
1, 172920, Note_on_c, 9, 42, 52
1, 173039, Note_on_c, 9, 42, 0
1, 173040, Note_on_c, 9, 42, 64
1, 173159, Note_on_c, 9, 42, 0
1, 173160, Note_on_c, 9, 42, 72
1, 173279, Note_on_c, 9, 35, 0
1, 173279, Note_on_c, 9, 42, 0
1, 173280, Note_on_c, 9, 42, 101
1, 173280, Note_on_c, 9, 35, 101
1, 173399, Note_on_c, 9, 42, 0
1, 173400, Note_on_c, 9, 42, 72
1, 173519, Note_on_c, 9, 42, 0
1, 173520, Note_on_c, 9, 42, 59
1, 173639, Note_on_c, 9, 42, 0
1, 173640, Note_on_c, 9, 42, 89
1, 173759, Note_on_c, 9, 35, 0
1, 173759, Note_on_c, 9, 42, 0
1, 173760, Note_on_c, 9, 42, 101
1, 173760, Note_on_c, 9, 35, 101
1, 173879, Note_on_c, 9, 42, 0
1, 173880, Note_on_c, 9, 42, 63
1, 173999, Note_on_c, 9, 42, 0
1, 174000, Note_on_c, 9, 42, 55
1, 174119, Note_on_c, 9, 42, 0
1, 174120, Note_on_c, 9, 42, 82
1, 174239, Note_on_c, 9, 35, 0
1, 174239, Note_on_c, 9, 42, 0
1, 174240, Note_on_c, 9, 42, 101
1, 174240, Note_on_c, 9, 35, 102
1, 174359, Note_on_c, 9, 42, 0
1, 174360, Note_on_c, 9, 42, 69
1, 174479, Note_on_c, 9, 42, 0
1, 174480, Note_on_c, 9, 42, 62
1, 174599, Note_on_c, 9, 42, 0
1, 174600, Note_on_c, 9, 42, 86
1, 174719, Note_on_c, 9, 35, 0
1, 174719, Note_on_c, 9, 42, 0
1, 174720, Note_on_c, 9, 42, 101
1, 174720, Note_on_c, 9, 35, 102
1, 174839, Note_on_c, 9, 42, 0
1, 174840, Note_on_c, 9, 42, 57
1, 174959, Note_on_c, 9, 42, 0
1, 174960, Note_on_c, 9, 42, 58
1, 175079, Note_on_c, 9, 42, 0
1, 175080, Note_on_c, 9, 42, 86
1, 175199, Note_on_c, 9, 35, 0
1, 175199, Note_on_c, 9, 42, 0
1, 175200, Note_on_c, 9, 42, 95
1, 175200, Note_on_c, 9, 35, 102
1, 175319, Note_on_c, 9, 42, 0
1, 175320, Note_on_c, 9, 42, 76
1, 175439, Note_on_c, 9, 42, 0
1, 175440, Note_on_c, 9, 42, 59
1, 175559, Note_on_c, 9, 42, 0
1, 175560, Note_on_c, 9, 42, 89
1, 175679, Note_on_c, 9, 35, 0
1, 175679, Note_on_c, 9, 42, 0
1, 175680, Note_on_c, 9, 42, 104
1, 175680, Note_on_c, 9, 35, 96
1, 175799, Note_on_c, 9, 42, 0
1, 175800, Note_on_c, 9, 42, 53
1, 175919, Note_on_c, 9, 42, 0
1, 175920, Note_on_c, 9, 42, 52
1, 176039, Note_on_c, 9, 42, 0
1, 176040, Note_on_c, 9, 42, 86
1, 176159, Note_on_c, 9, 35, 0
1, 176159, Note_on_c, 9, 42, 0
1, 176160, Note_on_c, 9, 42, 104
1, 176160, Note_on_c, 9, 35, 98
1, 176279, Note_on_c, 9, 42, 0
1, 176280, Note_on_c, 9, 42, 92
1, 176399, Note_on_c, 9, 42, 0
1, 176400, Note_on_c, 9, 42, 57
1, 176519, Note_on_c, 9, 42, 0
1, 176520, Note_on_c, 9, 42, 80
1, 176639, Note_on_c, 9, 35, 0
1, 176639, Note_on_c, 9, 42, 0
1, 176640, Note_on_c, 9, 42, 104
1, 176640, Note_on_c, 9, 35, 98
1, 176759, Note_on_c, 9, 42, 0
1, 176760, Note_on_c, 9, 42, 56
1, 176879, Note_on_c, 9, 42, 0
1, 176880, Note_on_c, 9, 42, 62
1, 176999, Note_on_c, 9, 42, 0
1, 177000, Note_on_c, 9, 42, 82
1, 177119, Note_on_c, 9, 35, 0
1, 177119, Note_on_c, 9, 42, 0
1, 177120, Note_on_c, 9, 42, 104
1, 177120, Note_on_c, 9, 35, 101
1, 177239, Note_on_c, 9, 42, 0
1, 177240, Note_on_c, 9, 42, 74
1, 177359, Note_on_c, 9, 42, 0
1, 177360, Note_on_c, 9, 42, 55
1, 177479, Note_on_c, 9, 42, 0
1, 177480, Note_on_c, 9, 42, 66
1, 177599, Note_on_c, 9, 35, 0
1, 177599, Note_on_c, 9, 42, 0
1, 177600, Note_on_c, 9, 42, 104
1, 177600, Note_on_c, 9, 35, 101
1, 177719, Note_on_c, 9, 42, 0
1, 177720, Note_on_c, 9, 42, 78
1, 177839, Note_on_c, 9, 42, 0
1, 177840, Note_on_c, 9, 42, 70
1, 177959, Note_on_c, 9, 42, 0
1, 177960, Note_on_c, 9, 42, 82
1, 178079, Note_on_c, 9, 35, 0
1, 178079, Note_on_c, 9, 42, 0
1, 178080, Note_on_c, 9, 42, 104
1, 178080, Note_on_c, 9, 35, 100
1, 178199, Note_on_c, 9, 42, 0
1, 178200, Note_on_c, 9, 42, 62
1, 178319, Note_on_c, 9, 42, 0
1, 178320, Note_on_c, 9, 42, 56
1, 178439, Note_on_c, 9, 42, 0
1, 178440, Note_on_c, 9, 42, 86
1, 178559, Note_on_c, 9, 35, 0
1, 178559, Note_on_c, 9, 42, 0
1, 178560, Note_on_c, 9, 42, 104
1, 178560, Note_on_c, 9, 35, 100
1, 178679, Note_on_c, 9, 42, 0
1, 178680, Note_on_c, 9, 42, 69
1, 178799, Note_on_c, 9, 42, 0
1, 178800, Note_on_c, 9, 42, 63
1, 178919, Note_on_c, 9, 42, 0
1, 178920, Note_on_c, 9, 42, 86
1, 179039, Note_on_c, 9, 35, 0
1, 179039, Note_on_c, 9, 42, 0
1, 179040, Note_on_c, 9, 42, 101
1, 179040, Note_on_c, 9, 35, 102
1, 179159, Note_on_c, 9, 42, 0
1, 179160, Note_on_c, 9, 42, 62
1, 179279, Note_on_c, 9, 42, 0
1, 179280, Note_on_c, 9, 42, 59
1, 179399, Note_on_c, 9, 42, 0
1, 179400, Note_on_c, 9, 42, 64
1, 179519, Note_on_c, 9, 35, 0
1, 179519, Note_on_c, 9, 42, 0
1, 179520, Note_on_c, 9, 42, 104
1, 179520, Note_on_c, 9, 35, 102
1, 179639, Note_on_c, 9, 42, 0
1, 179640, Note_on_c, 9, 42, 47
1, 179759, Note_on_c, 9, 42, 0
1, 179760, Note_on_c, 9, 42, 57
1, 179879, Note_on_c, 9, 42, 0
1, 179880, Note_on_c, 9, 42, 84
1, 179999, Note_on_c, 9, 35, 0
1, 179999, Note_on_c, 9, 42, 0
1, 180000, Note_on_c, 9, 42, 104
1, 180000, Note_on_c, 9, 35, 102
1, 180119, Note_on_c, 9, 42, 0
1, 180120, Note_on_c, 9, 42, 74
1, 180239, Note_on_c, 9, 42, 0
1, 180240, Note_on_c, 9, 42, 34
1, 180359, Note_on_c, 9, 42, 0
1, 180360, Note_on_c, 9, 42, 82
1, 180479, Note_on_c, 9, 35, 0
1, 180479, Note_on_c, 9, 42, 0
1, 180480, Note_on_c, 9, 42, 104
1, 180480, Note_on_c, 9, 35, 103
1, 180599, Note_on_c, 9, 42, 0
1, 180600, Note_on_c, 9, 42, 59
1, 180719, Note_on_c, 9, 42, 0
1, 180720, Note_on_c, 9, 42, 49
1, 180839, Note_on_c, 9, 42, 0
1, 180840, Note_on_c, 9, 42, 82
1, 180959, Note_on_c, 9, 35, 0
1, 180959, Note_on_c, 9, 42, 0
1, 180960, Note_on_c, 9, 42, 104
1, 180960, Note_on_c, 9, 35, 103
1, 181079, Note_on_c, 9, 42, 0
1, 181080, Note_on_c, 9, 42, 74
1, 181199, Note_on_c, 9, 42, 0
1, 181200, Note_on_c, 9, 42, 46
1, 181319, Note_on_c, 9, 42, 0
1, 181320, Note_on_c, 9, 42, 82
1, 181439, Note_on_c, 9, 35, 0
1, 181439, Note_on_c, 9, 42, 0
1, 181440, Note_on_c, 9, 42, 95
1, 181440, Note_on_c, 9, 35, 103
1, 181559, Note_on_c, 9, 42, 0
1, 181560, Note_on_c, 9, 42, 82
1, 181679, Note_on_c, 9, 42, 0
1, 181680, Note_on_c, 9, 42, 55
1, 181799, Note_on_c, 9, 42, 0
1, 181800, Note_on_c, 9, 42, 92
1, 181919, Note_on_c, 9, 35, 0
1, 181919, Note_on_c, 9, 42, 0
1, 181920, Note_on_c, 9, 42, 101
1, 181920, Note_on_c, 9, 35, 103
1, 182039, Note_on_c, 9, 42, 0
1, 182040, Note_on_c, 9, 42, 66
1, 182159, Note_on_c, 9, 42, 0
1, 182160, Note_on_c, 9, 42, 47
1, 182279, Note_on_c, 9, 42, 0
1, 182280, Note_on_c, 9, 42, 84
1, 182399, Note_on_c, 9, 35, 0
1, 182399, Note_on_c, 9, 42, 0
1, 182400, Note_on_c, 9, 42, 104
1, 182400, Note_on_c, 9, 35, 103
1, 182519, Note_on_c, 9, 42, 0
1, 182520, Note_on_c, 9, 42, 74
1, 182639, Note_on_c, 9, 42, 0
1, 182640, Note_on_c, 9, 42, 63
1, 182759, Note_on_c, 9, 42, 0
1, 182760, Note_on_c, 9, 42, 82
1, 182879, Note_on_c, 9, 35, 0
1, 182879, Note_on_c, 9, 42, 0
1, 182880, Note_on_c, 9, 42, 98
1, 182880, Note_on_c, 9, 35, 104
1, 182999, Note_on_c, 9, 42, 0
1, 183000, Note_on_c, 9, 42, 95
1, 183119, Note_on_c, 9, 42, 0
1, 183120, Note_on_c, 9, 42, 48
1, 183239, Note_on_c, 9, 42, 0
1, 183240, Note_on_c, 9, 42, 86
1, 183359, Note_on_c, 9, 35, 0
1, 183359, Note_on_c, 9, 42, 0
1, 183360, Note_on_c, 9, 42, 104
1, 183360, Note_on_c, 9, 35, 104
1, 183479, Note_on_c, 9, 42, 0
1, 183480, Note_on_c, 9, 42, 54
1, 183599, Note_on_c, 9, 42, 0
1, 183600, Note_on_c, 9, 42, 69
1, 183719, Note_on_c, 9, 42, 0
1, 183720, Note_on_c, 9, 42, 80
1, 183839, Note_on_c, 9, 35, 0
1, 183839, Note_on_c, 9, 42, 0
1, 183840, Note_on_c, 9, 42, 104
1, 183840, Note_on_c, 9, 35, 104
1, 183959, Note_on_c, 9, 42, 0
1, 183960, Note_on_c, 9, 42, 86
1, 184079, Note_on_c, 9, 42, 0
1, 184080, Note_on_c, 9, 42, 58
1, 184199, Note_on_c, 9, 42, 0
1, 184200, Note_on_c, 9, 42, 92
1, 184319, Note_on_c, 9, 35, 0
1, 184319, Note_on_c, 9, 42, 0
1, 184320, Note_on_c, 9, 42, 104
1, 184320, Note_on_c, 9, 35, 104
1, 184439, Note_on_c, 9, 42, 0
1, 184440, Note_on_c, 9, 42, 52
1, 184559, Note_on_c, 9, 42, 0
1, 184560, Note_on_c, 9, 42, 59
1, 184679, Note_on_c, 9, 42, 0
1, 184680, Note_on_c, 9, 42, 59
1, 184799, Note_on_c, 9, 35, 0
1, 184799, Note_on_c, 9, 42, 0
1, 184800, Note_on_c, 9, 42, 101
1, 184800, Note_on_c, 9, 35, 104
1, 184919, Note_on_c, 9, 42, 0
1, 184920, Note_on_c, 9, 42, 69
1, 185039, Note_on_c, 9, 42, 0
1, 185040, Note_on_c, 9, 42, 62
1, 185159, Note_on_c, 9, 42, 0
1, 185160, Note_on_c, 9, 42, 82
1, 185279, Note_on_c, 9, 35, 0
1, 185279, Note_on_c, 9, 42, 0
1, 185280, Note_on_c, 9, 42, 104
1, 185280, Note_on_c, 9, 35, 104
1, 185399, Note_on_c, 9, 42, 0
1, 185400, Note_on_c, 9, 42, 66
1, 185519, Note_on_c, 9, 42, 0
1, 185520, Note_on_c, 9, 42, 56
1, 185639, Note_on_c, 9, 42, 0
1, 185640, Note_on_c, 9, 42, 82
1, 185759, Note_on_c, 9, 35, 0
1, 185759, Note_on_c, 9, 42, 0
1, 185760, Note_on_c, 9, 42, 104
1, 185760, Note_on_c, 9, 35, 104
1, 185879, Note_on_c, 9, 42, 0
1, 185880, Note_on_c, 9, 42, 84
1, 185999, Note_on_c, 9, 42, 0
1, 186000, Note_on_c, 9, 42, 45
1, 186119, Note_on_c, 9, 42, 0
1, 186120, Note_on_c, 9, 42, 84
1, 186239, Note_on_c, 9, 35, 0
1, 186239, Note_on_c, 9, 42, 0
1, 186240, Note_on_c, 9, 42, 108
1, 186240, Note_on_c, 9, 35, 104
1, 186359, Note_on_c, 9, 42, 0
1, 186360, Note_on_c, 9, 42, 48
1, 186479, Note_on_c, 9, 42, 0
1, 186480, Note_on_c, 9, 42, 57
1, 186599, Note_on_c, 9, 42, 0
1, 186600, Note_on_c, 9, 42, 82
1, 186719, Note_on_c, 9, 35, 0
1, 186719, Note_on_c, 9, 42, 0
1, 186720, Note_on_c, 9, 42, 104
1, 186720, Note_on_c, 9, 35, 104
1, 186839, Note_on_c, 9, 42, 0
1, 186840, Note_on_c, 9, 42, 67
1, 186959, Note_on_c, 9, 42, 0
1, 186960, Note_on_c, 9, 42, 86
1, 187079, Note_on_c, 9, 42, 0
1, 187080, Note_on_c, 9, 42, 104
1, 187199, Note_on_c, 9, 35, 0
1, 187199, Note_on_c, 9, 42, 0
1, 187200, Note_on_c, 9, 35, 104
1, 187440, Note_on_c, 9, 47, 99
1, 187559, Note_on_c, 9, 47, 0
1, 187560, Note_on_c, 9, 47, 95
1, 187679, Note_on_c, 9, 35, 0
1, 187679, Note_on_c, 9, 47, 0
1, 187680, Note_on_c, 9, 47, 99
1, 187799, Note_on_c, 9, 47, 0
1, 187800, Note_on_c, 9, 45, 106
1, 187919, Note_on_c, 9, 45, 0
1, 187920, Note_on_c, 9, 45, 110
1, 188039, Note_on_c, 9, 45, 0
1, 188040, Note_on_c, 9, 41, 110
1, 188159, Note_on_c, 9, 41, 0
1, 188160, Note_on_c, 9, 56, 81
1, 188160, Note_on_c, 9, 35, 108
1, 188174, Note_on_c, 9, 56, 0
1, 188175, Note_on_c, 9, 57, 87
1, 188219, Note_on_c, 9, 57, 0
1, 188280, Note_on_c, 9, 42, 66
1, 188399, Note_on_c, 9, 42, 0
1, 188400, Note_on_c, 9, 46, 89
1, 188639, Note_on_c, 9, 35, 0
1, 188639, Note_on_c, 9, 46, 0
1, 188640, Note_on_c, 9, 38, 85
1, 188640, Note_on_c, 9, 40, 110
1, 188640, Note_on_c, 9, 56, 81
1, 188640, Note_on_c, 9, 42, 74
1, 188759, Note_on_c, 9, 38, 0
1, 188759, Note_on_c, 9, 40, 0
1, 188759, Note_on_c, 9, 56, 0
1, 188759, Note_on_c, 9, 42, 0
1, 188760, Note_on_c, 9, 42, 72
1, 188879, Note_on_c, 9, 42, 0
1, 188880, Note_on_c, 9, 46, 84
1, 189119, Note_on_c, 9, 46, 0
1, 189120, Note_on_c, 9, 56, 81
1, 189120, Note_on_c, 9, 42, 76
1, 189120, Note_on_c, 9, 35, 110
1, 189239, Note_on_c, 9, 56, 0
1, 189239, Note_on_c, 9, 42, 0
1, 189240, Note_on_c, 9, 42, 74
1, 189359, Note_on_c, 9, 42, 0
1, 189360, Note_on_c, 9, 46, 92
1, 189599, Note_on_c, 9, 35, 0
1, 189599, Note_on_c, 9, 46, 0
1, 189600, Note_on_c, 9, 38, 85
1, 189600, Note_on_c, 9, 40, 110
1, 189600, Note_on_c, 9, 56, 81
1, 189600, Note_on_c, 9, 42, 82
1, 189719, Note_on_c, 9, 38, 0
1, 189719, Note_on_c, 9, 40, 0
1, 189719, Note_on_c, 9, 56, 0
1, 189719, Note_on_c, 9, 42, 0
1, 189720, Note_on_c, 9, 42, 89
1, 189839, Note_on_c, 9, 42, 0
1, 189840, Note_on_c, 9, 46, 89
1, 190079, Note_on_c, 9, 46, 0
1, 190080, Note_on_c, 9, 56, 81
1, 190080, Note_on_c, 9, 42, 70
1, 190080, Note_on_c, 9, 35, 112
1, 190199, Note_on_c, 9, 56, 0
1, 190199, Note_on_c, 9, 42, 0
1, 190200, Note_on_c, 9, 42, 84
1, 190319, Note_on_c, 9, 42, 0
1, 190320, Note_on_c, 9, 46, 82
1, 190559, Note_on_c, 9, 35, 0
1, 190559, Note_on_c, 9, 46, 0
1, 190560, Note_on_c, 9, 38, 87
1, 190560, Note_on_c, 9, 40, 112
1, 190560, Note_on_c, 9, 56, 81
1, 190560, Note_on_c, 9, 42, 84
1, 190679, Note_on_c, 9, 38, 0
1, 190679, Note_on_c, 9, 40, 0
1, 190679, Note_on_c, 9, 56, 0
1, 190679, Note_on_c, 9, 42, 0
1, 190680, Note_on_c, 9, 42, 84
1, 190799, Note_on_c, 9, 42, 0
1, 190800, Note_on_c, 9, 46, 86
1, 191039, Note_on_c, 9, 46, 0
1, 191040, Note_on_c, 9, 56, 84
1, 191040, Note_on_c, 9, 42, 76
1, 191040, Note_on_c, 9, 35, 110
1, 191159, Note_on_c, 9, 56, 0
1, 191159, Note_on_c, 9, 42, 0
1, 191160, Note_on_c, 9, 42, 84
1, 191279, Note_on_c, 9, 42, 0
1, 191280, Note_on_c, 9, 46, 86
1, 191280, Note_on_c, 9, 56, 84
1, 191519, Note_on_c, 9, 35, 0
1, 191519, Note_on_c, 9, 46, 0
1, 191519, Note_on_c, 9, 56, 0
1, 191520, Note_on_c, 9, 38, 87
1, 191520, Note_on_c, 9, 40, 112
1, 191520, Note_on_c, 9, 56, 84
1, 191520, Note_on_c, 9, 42, 82
1, 191639, Note_on_c, 9, 38, 0
1, 191639, Note_on_c, 9, 40, 0
1, 191639, Note_on_c, 9, 56, 0
1, 191639, Note_on_c, 9, 42, 0
1, 191640, Note_on_c, 9, 42, 86
1, 191759, Note_on_c, 9, 42, 0
1, 191760, Note_on_c, 9, 46, 84
1, 191999, Note_on_c, 9, 46, 0
1, 192000, Note_on_c, 9, 56, 76
1, 192000, Note_on_c, 9, 42, 84
1, 192000, Note_on_c, 9, 35, 110
1, 192119, Note_on_c, 9, 56, 0
1, 192119, Note_on_c, 9, 42, 0
1, 192120, Note_on_c, 9, 42, 76
1, 192239, Note_on_c, 9, 42, 0
1, 192240, Note_on_c, 9, 46, 86
1, 192479, Note_on_c, 9, 35, 0
1, 192479, Note_on_c, 9, 46, 0
1, 192480, Note_on_c, 9, 38, 87
1, 192480, Note_on_c, 9, 40, 112
1, 192480, Note_on_c, 9, 56, 78
1, 192480, Note_on_c, 9, 42, 84
1, 192599, Note_on_c, 9, 38, 0
1, 192599, Note_on_c, 9, 40, 0
1, 192599, Note_on_c, 9, 56, 0
1, 192599, Note_on_c, 9, 42, 0
1, 192600, Note_on_c, 9, 42, 76
1, 192719, Note_on_c, 9, 42, 0
1, 192720, Note_on_c, 9, 46, 82
1, 192959, Note_on_c, 9, 46, 0
1, 192960, Note_on_c, 9, 56, 78
1, 192960, Note_on_c, 9, 42, 89
1, 192960, Note_on_c, 9, 35, 112
1, 193079, Note_on_c, 9, 56, 0
1, 193079, Note_on_c, 9, 42, 0
1, 193080, Note_on_c, 9, 42, 86
1, 193199, Note_on_c, 9, 42, 0
1, 193200, Note_on_c, 9, 46, 84
1, 193439, Note_on_c, 9, 35, 0
1, 193439, Note_on_c, 9, 46, 0
1, 193440, Note_on_c, 9, 38, 87
1, 193440, Note_on_c, 9, 40, 112
1, 193440, Note_on_c, 9, 56, 78
1, 193440, Note_on_c, 9, 42, 84
1, 193559, Note_on_c, 9, 38, 0
1, 193559, Note_on_c, 9, 40, 0
1, 193559, Note_on_c, 9, 56, 0
1, 193559, Note_on_c, 9, 42, 0
1, 193560, Note_on_c, 9, 42, 86
1, 193679, Note_on_c, 9, 42, 0
1, 193680, Note_on_c, 9, 46, 86
1, 193919, Note_on_c, 9, 46, 0
1, 193920, Note_on_c, 9, 56, 78
1, 193920, Note_on_c, 9, 42, 86
1, 193920, Note_on_c, 9, 35, 112
1, 194039, Note_on_c, 9, 56, 0
1, 194039, Note_on_c, 9, 42, 0
1, 194040, Note_on_c, 9, 42, 95
1, 194159, Note_on_c, 9, 42, 0
1, 194160, Note_on_c, 9, 46, 89
1, 194399, Note_on_c, 9, 35, 0
1, 194399, Note_on_c, 9, 46, 0
1, 194400, Note_on_c, 9, 38, 87
1, 194400, Note_on_c, 9, 40, 112
1, 194400, Note_on_c, 9, 56, 83
1, 194400, Note_on_c, 9, 42, 92
1, 194519, Note_on_c, 9, 38, 0
1, 194519, Note_on_c, 9, 40, 0
1, 194519, Note_on_c, 9, 56, 0
1, 194519, Note_on_c, 9, 42, 0
1, 194520, Note_on_c, 9, 42, 89
1, 194639, Note_on_c, 9, 42, 0
1, 194640, Note_on_c, 9, 46, 86
1, 194879, Note_on_c, 9, 46, 0
1, 194880, Note_on_c, 9, 56, 83
1, 194880, Note_on_c, 9, 42, 86
1, 194880, Note_on_c, 9, 35, 112
1, 194999, Note_on_c, 9, 56, 0
1, 194999, Note_on_c, 9, 42, 0
1, 195000, Note_on_c, 9, 42, 92
1, 195119, Note_on_c, 9, 42, 0
1, 195120, Note_on_c, 9, 46, 89
1, 195120, Note_on_c, 9, 56, 83
1, 195359, Note_on_c, 9, 35, 0
1, 195359, Note_on_c, 9, 46, 0
1, 195359, Note_on_c, 9, 56, 0
1, 195360, Note_on_c, 9, 38, 87
1, 195360, Note_on_c, 9, 40, 112
1, 195360, Note_on_c, 9, 56, 83
1, 195360, Note_on_c, 9, 42, 86
1, 195374, Note_on_c, 9, 38, 0
1, 195374, Note_on_c, 9, 40, 0
1, 195374, Note_on_c, 9, 56, 0
1, 195374, Note_on_c, 9, 42, 0
1, 195375, Note_on_c, 9, 41, 110
1, 195419, Note_on_c, 9, 41, 0
1, 195480, Note_on_c, 9, 42, 82
1, 195599, Note_on_c, 9, 42, 0
1, 195600, Note_on_c, 9, 46, 89
1, 195839, Note_on_c, 9, 46, 0
1, 195840, Note_on_c, 9, 56, 83
1, 195840, Note_on_c, 9, 42, 86
1, 195840, Note_on_c, 9, 35, 112
1, 195959, Note_on_c, 9, 56, 0
1, 195959, Note_on_c, 9, 42, 0
1, 195960, Note_on_c, 9, 42, 72
1, 196079, Note_on_c, 9, 42, 0
1, 196080, Note_on_c, 9, 46, 80
1, 196319, Note_on_c, 9, 35, 0
1, 196319, Note_on_c, 9, 46, 0
1, 196320, Note_on_c, 9, 38, 87
1, 196320, Note_on_c, 9, 40, 112
1, 196320, Note_on_c, 9, 56, 83
1, 196320, Note_on_c, 9, 42, 89
1, 196439, Note_on_c, 9, 38, 0
1, 196439, Note_on_c, 9, 40, 0
1, 196439, Note_on_c, 9, 56, 0
1, 196439, Note_on_c, 9, 42, 0
1, 196440, Note_on_c, 9, 42, 66
1, 196559, Note_on_c, 9, 42, 0
1, 196560, Note_on_c, 9, 46, 84
1, 196799, Note_on_c, 9, 46, 0
1, 196800, Note_on_c, 9, 56, 83
1, 196800, Note_on_c, 9, 42, 98
1, 196800, Note_on_c, 9, 35, 112
1, 196919, Note_on_c, 9, 56, 0
1, 196919, Note_on_c, 9, 42, 0
1, 196920, Note_on_c, 9, 42, 95
1, 197039, Note_on_c, 9, 42, 0
1, 197040, Note_on_c, 9, 46, 92
1, 197279, Note_on_c, 9, 35, 0
1, 197279, Note_on_c, 9, 46, 0
1, 197280, Note_on_c, 9, 38, 87
1, 197280, Note_on_c, 9, 40, 112
1, 197280, Note_on_c, 9, 56, 84
1, 197280, Note_on_c, 9, 42, 95
1, 197399, Note_on_c, 9, 38, 0
1, 197399, Note_on_c, 9, 40, 0
1, 197399, Note_on_c, 9, 56, 0
1, 197399, Note_on_c, 9, 42, 0
1, 197400, Note_on_c, 9, 42, 86
1, 197519, Note_on_c, 9, 42, 0
1, 197520, Note_on_c, 9, 46, 92
1, 197759, Note_on_c, 9, 46, 0
1, 197760, Note_on_c, 9, 56, 84
1, 197760, Note_on_c, 9, 42, 92
1, 197760, Note_on_c, 9, 35, 112
1, 197879, Note_on_c, 9, 56, 0
1, 197879, Note_on_c, 9, 42, 0
1, 197880, Note_on_c, 9, 42, 89
1, 197999, Note_on_c, 9, 42, 0
1, 198000, Note_on_c, 9, 46, 89
1, 198239, Note_on_c, 9, 35, 0
1, 198239, Note_on_c, 9, 46, 0
1, 198240, Note_on_c, 9, 38, 87
1, 198240, Note_on_c, 9, 40, 112
1, 198240, Note_on_c, 9, 56, 84
1, 198240, Note_on_c, 9, 42, 98
1, 198359, Note_on_c, 9, 38, 0
1, 198359, Note_on_c, 9, 40, 0
1, 198359, Note_on_c, 9, 56, 0
1, 198359, Note_on_c, 9, 42, 0
1, 198360, Note_on_c, 9, 42, 89
1, 198479, Note_on_c, 9, 42, 0
1, 198480, Note_on_c, 9, 46, 92
1, 198719, Note_on_c, 9, 46, 0
1, 198720, Note_on_c, 9, 56, 84
1, 198720, Note_on_c, 9, 42, 98
1, 198720, Note_on_c, 9, 35, 112
1, 198839, Note_on_c, 9, 56, 0
1, 198839, Note_on_c, 9, 42, 0
1, 198840, Note_on_c, 9, 42, 92
1, 198959, Note_on_c, 9, 42, 0
1, 198960, Note_on_c, 9, 46, 86
1, 198960, Note_on_c, 9, 56, 84
1, 199199, Note_on_c, 9, 35, 0
1, 199199, Note_on_c, 9, 46, 0
1, 199199, Note_on_c, 9, 56, 0
1, 199200, Note_on_c, 9, 38, 87
1, 199200, Note_on_c, 9, 40, 112
1, 199200, Note_on_c, 9, 56, 84
1, 199200, Note_on_c, 9, 42, 95
1, 199319, Note_on_c, 9, 38, 0
1, 199319, Note_on_c, 9, 40, 0
1, 199319, Note_on_c, 9, 56, 0
1, 199319, Note_on_c, 9, 42, 0
1, 199320, Note_on_c, 9, 42, 89
1, 199439, Note_on_c, 9, 42, 0
1, 199440, Note_on_c, 9, 46, 89
1, 199679, Note_on_c, 9, 46, 0
1, 199680, Note_on_c, 9, 56, 84
1, 199680, Note_on_c, 9, 42, 92
1, 199680, Note_on_c, 9, 35, 112
1, 199799, Note_on_c, 9, 56, 0
1, 199799, Note_on_c, 9, 42, 0
1, 199800, Note_on_c, 9, 42, 80
1, 199919, Note_on_c, 9, 42, 0
1, 199920, Note_on_c, 9, 46, 95
1, 200159, Note_on_c, 9, 35, 0
1, 200159, Note_on_c, 9, 46, 0
1, 200160, Note_on_c, 9, 38, 87
1, 200160, Note_on_c, 9, 40, 112
1, 200160, Note_on_c, 9, 56, 80
1, 200160, Note_on_c, 9, 42, 89
1, 200279, Note_on_c, 9, 38, 0
1, 200279, Note_on_c, 9, 40, 0
1, 200279, Note_on_c, 9, 56, 0
1, 200279, Note_on_c, 9, 42, 0
1, 200280, Note_on_c, 9, 42, 89
1, 200399, Note_on_c, 9, 42, 0
1, 200400, Note_on_c, 9, 46, 89
1, 200639, Note_on_c, 9, 46, 0
1, 200640, Note_on_c, 9, 56, 80
1, 200640, Note_on_c, 9, 42, 89
1, 200640, Note_on_c, 9, 35, 112
1, 200759, Note_on_c, 9, 56, 0
1, 200759, Note_on_c, 9, 42, 0
1, 200760, Note_on_c, 9, 42, 89
1, 200879, Note_on_c, 9, 42, 0
1, 200880, Note_on_c, 9, 46, 95
1, 201119, Note_on_c, 9, 35, 0
1, 201119, Note_on_c, 9, 46, 0
1, 201120, Note_on_c, 9, 38, 87
1, 201120, Note_on_c, 9, 40, 112
1, 201120, Note_on_c, 9, 56, 80
1, 201120, Note_on_c, 9, 42, 84
1, 201239, Note_on_c, 9, 38, 0
1, 201239, Note_on_c, 9, 40, 0
1, 201239, Note_on_c, 9, 56, 0
1, 201239, Note_on_c, 9, 42, 0
1, 201240, Note_on_c, 9, 42, 92
1, 201359, Note_on_c, 9, 42, 0
1, 201360, Note_on_c, 9, 46, 92
1, 201599, Note_on_c, 9, 46, 0
1, 201600, Time_signature, 2, 2, 24, 8
1, 201600, Note_on_c, 9, 56, 85
1, 201600, Note_on_c, 9, 42, 78
1, 201600, Note_on_c, 9, 35, 112
1, 201719, Note_on_c, 9, 56, 0
1, 201719, Note_on_c, 9, 42, 0
1, 201720, Note_on_c, 9, 42, 86
1, 201839, Note_on_c, 9, 42, 0
1, 201840, Note_on_c, 9, 46, 95
1, 202079, Note_on_c, 9, 35, 0
1, 202079, Note_on_c, 9, 46, 0
1, 202080, Note_on_c, 9, 38, 87
1, 202080, Note_on_c, 9, 40, 112
1, 202080, Note_on_c, 9, 56, 85
1, 202080, Note_on_c, 9, 42, 89
1, 202199, Note_on_c, 9, 38, 0
1, 202199, Note_on_c, 9, 40, 0
1, 202199, Note_on_c, 9, 56, 0
1, 202199, Note_on_c, 9, 42, 0
1, 202200, Note_on_c, 9, 42, 86
1, 202319, Note_on_c, 9, 42, 0
1, 202320, Note_on_c, 9, 46, 95
1, 202559, Note_on_c, 9, 46, 0
1, 202560, Time_signature, 4, 2, 24, 8
1, 202560, Note_on_c, 9, 56, 81
1, 202560, Note_on_c, 9, 35, 112
1, 202574, Note_on_c, 9, 56, 0
1, 202575, Note_on_c, 9, 49, 89
1, 202619, Note_on_c, 9, 49, 0
1, 202680, Note_on_c, 9, 42, 66
1, 202799, Note_on_c, 9, 42, 0
1, 202800, Note_on_c, 9, 46, 89
1, 203039, Note_on_c, 9, 35, 0
1, 203039, Note_on_c, 9, 46, 0
1, 203040, Note_on_c, 9, 38, 87
1, 203040, Note_on_c, 9, 40, 112
1, 203040, Note_on_c, 9, 56, 93
1, 203040, Note_on_c, 9, 42, 74
1, 203159, Note_on_c, 9, 38, 0
1, 203159, Note_on_c, 9, 40, 0
1, 203159, Note_on_c, 9, 56, 0
1, 203159, Note_on_c, 9, 42, 0
1, 203160, Note_on_c, 9, 42, 72
1, 203279, Note_on_c, 9, 42, 0
1, 203280, Note_on_c, 9, 46, 84
1, 203519, Note_on_c, 9, 46, 0
1, 203520, Note_on_c, 9, 56, 87
1, 203520, Note_on_c, 9, 42, 76
1, 203520, Note_on_c, 9, 35, 112
1, 203639, Note_on_c, 9, 56, 0
1, 203639, Note_on_c, 9, 42, 0
1, 203640, Note_on_c, 9, 42, 74
1, 203759, Note_on_c, 9, 42, 0
1, 203760, Note_on_c, 9, 46, 92
1, 203999, Note_on_c, 9, 35, 0
1, 203999, Note_on_c, 9, 46, 0
1, 204000, Note_on_c, 9, 38, 87
1, 204000, Note_on_c, 9, 40, 112
1, 204000, Note_on_c, 9, 56, 97
1, 204000, Note_on_c, 9, 42, 82
1, 204119, Note_on_c, 9, 38, 0
1, 204119, Note_on_c, 9, 40, 0
1, 204119, Note_on_c, 9, 56, 0
1, 204119, Note_on_c, 9, 42, 0
1, 204120, Note_on_c, 9, 42, 89
1, 204239, Note_on_c, 9, 42, 0
1, 204240, Note_on_c, 9, 46, 89
1, 204479, Note_on_c, 9, 46, 0
1, 204480, Note_on_c, 9, 56, 85
1, 204480, Note_on_c, 9, 42, 70
1, 204480, Note_on_c, 9, 35, 112
1, 204599, Note_on_c, 9, 56, 0
1, 204599, Note_on_c, 9, 42, 0
1, 204600, Note_on_c, 9, 42, 84
1, 204719, Note_on_c, 9, 42, 0
1, 204720, Note_on_c, 9, 46, 82
1, 204959, Note_on_c, 9, 35, 0
1, 204959, Note_on_c, 9, 46, 0
1, 204960, Note_on_c, 9, 38, 87
1, 204960, Note_on_c, 9, 40, 112
1, 204960, Note_on_c, 9, 56, 101
1, 204960, Note_on_c, 9, 42, 84
1, 205079, Note_on_c, 9, 38, 0
1, 205079, Note_on_c, 9, 40, 0
1, 205079, Note_on_c, 9, 56, 0
1, 205079, Note_on_c, 9, 42, 0
1, 205080, Note_on_c, 9, 42, 84
1, 205199, Note_on_c, 9, 42, 0
1, 205200, Note_on_c, 9, 46, 86
1, 205439, Note_on_c, 9, 46, 0
1, 205440, Note_on_c, 9, 56, 73
1, 205440, Note_on_c, 9, 42, 76
1, 205440, Note_on_c, 9, 35, 102
1, 205559, Note_on_c, 9, 56, 0
1, 205559, Note_on_c, 9, 42, 0
1, 205560, Note_on_c, 9, 42, 84
1, 205679, Note_on_c, 9, 35, 0
1, 205679, Note_on_c, 9, 42, 0
1, 205680, Note_on_c, 9, 46, 86
1, 205680, Note_on_c, 9, 56, 76
1, 205680, Note_on_c, 9, 35, 105
1, 205919, Note_on_c, 9, 46, 0
1, 205919, Note_on_c, 9, 56, 0
1, 205919, Note_on_c, 9, 35, 0
1, 205920, Note_on_c, 9, 38, 87
1, 205920, Note_on_c, 9, 40, 112
1, 205920, Note_on_c, 9, 56, 91
1, 205920, Note_on_c, 9, 42, 82
1, 206039, Note_on_c, 9, 38, 0
1, 206039, Note_on_c, 9, 40, 0
1, 206039, Note_on_c, 9, 56, 0
1, 206039, Note_on_c, 9, 42, 0
1, 206040, Note_on_c, 9, 42, 86
1, 206159, Note_on_c, 9, 42, 0
1, 206160, Note_on_c, 9, 46, 84
1, 206399, Note_on_c, 9, 46, 0
1, 206400, Note_on_c, 9, 56, 95
1, 206400, Note_on_c, 9, 42, 84
1, 206400, Note_on_c, 9, 35, 112
1, 206519, Note_on_c, 9, 56, 0
1, 206519, Note_on_c, 9, 42, 0
1, 206520, Note_on_c, 9, 42, 76
1, 206639, Note_on_c, 9, 42, 0
1, 206640, Note_on_c, 9, 46, 86
1, 206879, Note_on_c, 9, 35, 0
1, 206879, Note_on_c, 9, 46, 0
1, 206880, Note_on_c, 9, 38, 87
1, 206880, Note_on_c, 9, 40, 112
1, 206880, Note_on_c, 9, 56, 99
1, 206880, Note_on_c, 9, 42, 84
1, 206999, Note_on_c, 9, 38, 0
1, 206999, Note_on_c, 9, 40, 0
1, 206999, Note_on_c, 9, 56, 0
1, 206999, Note_on_c, 9, 42, 0
1, 207000, Note_on_c, 9, 42, 76
1, 207119, Note_on_c, 9, 42, 0
1, 207120, Note_on_c, 9, 46, 82
1, 207359, Note_on_c, 9, 46, 0
1, 207360, Note_on_c, 9, 56, 89
1, 207360, Note_on_c, 9, 42, 89
1, 207360, Note_on_c, 9, 35, 112
1, 207479, Note_on_c, 9, 56, 0
1, 207479, Note_on_c, 9, 42, 0
1, 207480, Note_on_c, 9, 42, 86
1, 207599, Note_on_c, 9, 42, 0
1, 207600, Note_on_c, 9, 46, 84
1, 207839, Note_on_c, 9, 35, 0
1, 207839, Note_on_c, 9, 46, 0
1, 207840, Note_on_c, 9, 38, 87
1, 207840, Note_on_c, 9, 40, 112
1, 207840, Note_on_c, 9, 56, 97
1, 207840, Note_on_c, 9, 42, 84
1, 207959, Note_on_c, 9, 38, 0
1, 207959, Note_on_c, 9, 40, 0
1, 207959, Note_on_c, 9, 56, 0
1, 207959, Note_on_c, 9, 42, 0
1, 207960, Note_on_c, 9, 42, 86
1, 208079, Note_on_c, 9, 42, 0
1, 208080, Note_on_c, 9, 46, 86
1, 208319, Note_on_c, 9, 46, 0
1, 208320, Note_on_c, 9, 56, 95
1, 208320, Note_on_c, 9, 42, 86
1, 208320, Note_on_c, 9, 35, 112
1, 208439, Note_on_c, 9, 56, 0
1, 208439, Note_on_c, 9, 42, 0
1, 208440, Note_on_c, 9, 42, 95
1, 208559, Note_on_c, 9, 42, 0
1, 208560, Note_on_c, 9, 46, 89
1, 208799, Note_on_c, 9, 35, 0
1, 208799, Note_on_c, 9, 46, 0
1, 208800, Note_on_c, 9, 38, 87
1, 208800, Note_on_c, 9, 40, 112
1, 208800, Note_on_c, 9, 56, 97
1, 208800, Note_on_c, 9, 42, 92
1, 208919, Note_on_c, 9, 38, 0
1, 208919, Note_on_c, 9, 40, 0
1, 208919, Note_on_c, 9, 56, 0
1, 208919, Note_on_c, 9, 42, 0
1, 208920, Note_on_c, 9, 42, 89
1, 209039, Note_on_c, 9, 42, 0
1, 209040, Note_on_c, 9, 46, 86
1, 209160, Note_on_c, 9, 35, 104
1, 209279, Note_on_c, 9, 46, 0
1, 209279, Note_on_c, 9, 35, 0
1, 209280, Note_on_c, 9, 56, 70
1, 209280, Note_on_c, 9, 42, 86
1, 209280, Note_on_c, 9, 35, 109
1, 209399, Note_on_c, 9, 56, 0
1, 209399, Note_on_c, 9, 42, 0
1, 209400, Note_on_c, 9, 42, 92
1, 209519, Note_on_c, 9, 35, 0
1, 209519, Note_on_c, 9, 42, 0
1, 209520, Note_on_c, 9, 46, 89
1, 209520, Note_on_c, 9, 56, 73
1, 209520, Note_on_c, 9, 35, 112
1, 209759, Note_on_c, 9, 46, 0
1, 209759, Note_on_c, 9, 56, 0
1, 209759, Note_on_c, 9, 35, 0
1, 209760, Note_on_c, 9, 38, 87
1, 209760, Note_on_c, 9, 40, 112
1, 209760, Note_on_c, 9, 56, 89
1, 209760, Note_on_c, 9, 42, 86
1, 209879, Note_on_c, 9, 38, 0
1, 209879, Note_on_c, 9, 40, 0
1, 209879, Note_on_c, 9, 56, 0
1, 209879, Note_on_c, 9, 42, 0
1, 209880, Note_on_c, 9, 42, 82
1, 209999, Note_on_c, 9, 42, 0
1, 210000, Note_on_c, 9, 46, 89
1, 210239, Note_on_c, 9, 46, 0
1, 210240, Note_on_c, 9, 56, 97
1, 210240, Note_on_c, 9, 42, 85
1, 210240, Note_on_c, 9, 35, 112
1, 210359, Note_on_c, 9, 56, 0
1, 210359, Note_on_c, 9, 42, 0
1, 210360, Note_on_c, 9, 42, 66
1, 210479, Note_on_c, 9, 42, 0
1, 210480, Note_on_c, 9, 46, 89
1, 210719, Note_on_c, 9, 35, 0
1, 210719, Note_on_c, 9, 46, 0
1, 210720, Note_on_c, 9, 38, 87
1, 210720, Note_on_c, 9, 40, 112
1, 210720, Note_on_c, 9, 56, 80
1, 210720, Note_on_c, 9, 42, 74
1, 210839, Note_on_c, 9, 38, 0
1, 210839, Note_on_c, 9, 40, 0
1, 210839, Note_on_c, 9, 56, 0
1, 210839, Note_on_c, 9, 42, 0
1, 210840, Note_on_c, 9, 42, 72
1, 210959, Note_on_c, 9, 42, 0
1, 210960, Note_on_c, 9, 46, 84
1, 211199, Note_on_c, 9, 46, 0
1, 211200, Note_on_c, 9, 56, 80
1, 211200, Note_on_c, 9, 42, 76
1, 211200, Note_on_c, 9, 35, 112
1, 211319, Note_on_c, 9, 56, 0
1, 211319, Note_on_c, 9, 42, 0
1, 211320, Note_on_c, 9, 42, 74
1, 211439, Note_on_c, 9, 42, 0
1, 211440, Note_on_c, 9, 46, 92
1, 211679, Note_on_c, 9, 35, 0
1, 211679, Note_on_c, 9, 46, 0
1, 211680, Note_on_c, 9, 38, 87
1, 211680, Note_on_c, 9, 40, 112
1, 211680, Note_on_c, 9, 56, 87
1, 211680, Note_on_c, 9, 42, 82
1, 211799, Note_on_c, 9, 38, 0
1, 211799, Note_on_c, 9, 40, 0
1, 211799, Note_on_c, 9, 56, 0
1, 211799, Note_on_c, 9, 42, 0
1, 211800, Note_on_c, 9, 42, 89
1, 211919, Note_on_c, 9, 42, 0
1, 211920, Note_on_c, 9, 46, 89
1, 212159, Note_on_c, 9, 46, 0
1, 212160, Note_on_c, 9, 56, 87
1, 212160, Note_on_c, 9, 42, 70
1, 212160, Note_on_c, 9, 35, 112
1, 212279, Note_on_c, 9, 56, 0
1, 212279, Note_on_c, 9, 42, 0
1, 212280, Note_on_c, 9, 42, 84
1, 212399, Note_on_c, 9, 42, 0
1, 212400, Note_on_c, 9, 46, 82
1, 212639, Note_on_c, 9, 35, 0
1, 212639, Note_on_c, 9, 46, 0
1, 212640, Note_on_c, 9, 38, 87
1, 212640, Note_on_c, 9, 40, 112
1, 212640, Note_on_c, 9, 56, 87
1, 212640, Note_on_c, 9, 42, 84
1, 212759, Note_on_c, 9, 38, 0
1, 212759, Note_on_c, 9, 40, 0
1, 212759, Note_on_c, 9, 56, 0
1, 212759, Note_on_c, 9, 42, 0
1, 212760, Note_on_c, 9, 42, 84
1, 212879, Note_on_c, 9, 42, 0
1, 212880, Note_on_c, 9, 46, 86
1, 213119, Note_on_c, 9, 46, 0
1, 213120, Note_on_c, 9, 56, 91
1, 213120, Note_on_c, 9, 42, 76
1, 213120, Note_on_c, 9, 35, 101
1, 213239, Note_on_c, 9, 56, 0
1, 213239, Note_on_c, 9, 42, 0
1, 213240, Note_on_c, 9, 42, 84
1, 213359, Note_on_c, 9, 35, 0
1, 213359, Note_on_c, 9, 42, 0
1, 213360, Note_on_c, 9, 46, 86
1, 213360, Note_on_c, 9, 56, 91
1, 213360, Note_on_c, 9, 35, 112
1, 213599, Note_on_c, 9, 46, 0
1, 213599, Note_on_c, 9, 56, 0
1, 213599, Note_on_c, 9, 35, 0
1, 213600, Note_on_c, 9, 38, 87
1, 213600, Note_on_c, 9, 40, 112
1, 213600, Note_on_c, 9, 56, 91
1, 213600, Note_on_c, 9, 42, 82
1, 213719, Note_on_c, 9, 38, 0
1, 213719, Note_on_c, 9, 40, 0
1, 213719, Note_on_c, 9, 56, 0
1, 213719, Note_on_c, 9, 42, 0
1, 213720, Note_on_c, 9, 42, 86
1, 213839, Note_on_c, 9, 42, 0
1, 213840, Note_on_c, 9, 46, 84
1, 214079, Note_on_c, 9, 46, 0
1, 214080, Note_on_c, 9, 56, 91
1, 214080, Note_on_c, 9, 42, 84
1, 214080, Note_on_c, 9, 35, 112
1, 214199, Note_on_c, 9, 56, 0
1, 214199, Note_on_c, 9, 42, 0
1, 214200, Note_on_c, 9, 42, 76
1, 214319, Note_on_c, 9, 42, 0
1, 214320, Note_on_c, 9, 46, 86
1, 214559, Note_on_c, 9, 35, 0
1, 214559, Note_on_c, 9, 46, 0
1, 214560, Note_on_c, 9, 38, 87
1, 214560, Note_on_c, 9, 40, 112
1, 214560, Note_on_c, 9, 56, 91
1, 214560, Note_on_c, 9, 42, 84
1, 214679, Note_on_c, 9, 38, 0
1, 214679, Note_on_c, 9, 40, 0
1, 214679, Note_on_c, 9, 56, 0
1, 214679, Note_on_c, 9, 42, 0
1, 214680, Note_on_c, 9, 42, 76
1, 214799, Note_on_c, 9, 42, 0
1, 214800, Note_on_c, 9, 46, 82
1, 215039, Note_on_c, 9, 46, 0
1, 215040, Note_on_c, 9, 56, 91
1, 215040, Note_on_c, 9, 42, 89
1, 215040, Note_on_c, 9, 35, 112
1, 215159, Note_on_c, 9, 56, 0
1, 215159, Note_on_c, 9, 42, 0
1, 215160, Note_on_c, 9, 42, 86
1, 215279, Note_on_c, 9, 42, 0
1, 215280, Note_on_c, 9, 46, 84
1, 215519, Note_on_c, 9, 35, 0
1, 215519, Note_on_c, 9, 46, 0
1, 215520, Note_on_c, 9, 38, 87
1, 215520, Note_on_c, 9, 40, 112
1, 215520, Note_on_c, 9, 56, 91
1, 215520, Note_on_c, 9, 42, 84
1, 215639, Note_on_c, 9, 38, 0
1, 215639, Note_on_c, 9, 40, 0
1, 215639, Note_on_c, 9, 56, 0
1, 215639, Note_on_c, 9, 42, 0
1, 215640, Note_on_c, 9, 42, 86
1, 215759, Note_on_c, 9, 42, 0
1, 215760, Note_on_c, 9, 46, 86
1, 215999, Note_on_c, 9, 46, 0
1, 216000, Note_on_c, 9, 56, 91
1, 216000, Note_on_c, 9, 42, 86
1, 216000, Note_on_c, 9, 35, 112
1, 216119, Note_on_c, 9, 56, 0
1, 216119, Note_on_c, 9, 42, 0
1, 216120, Note_on_c, 9, 42, 95
1, 216239, Note_on_c, 9, 42, 0
1, 216240, Note_on_c, 9, 46, 89
1, 216479, Note_on_c, 9, 35, 0
1, 216479, Note_on_c, 9, 46, 0
1, 216480, Note_on_c, 9, 38, 87
1, 216480, Note_on_c, 9, 40, 112
1, 216480, Note_on_c, 9, 56, 91
1, 216480, Note_on_c, 9, 42, 92
1, 216599, Note_on_c, 9, 38, 0
1, 216599, Note_on_c, 9, 40, 0
1, 216599, Note_on_c, 9, 56, 0
1, 216599, Note_on_c, 9, 42, 0
1, 216600, Note_on_c, 9, 42, 89
1, 216719, Note_on_c, 9, 42, 0
1, 216720, Note_on_c, 9, 46, 86
1, 216840, Note_on_c, 9, 35, 102
1, 216959, Note_on_c, 9, 46, 0
1, 216959, Note_on_c, 9, 35, 0
1, 216960, Note_on_c, 9, 56, 91
1, 216960, Note_on_c, 9, 42, 86
1, 216960, Note_on_c, 9, 35, 111
1, 217079, Note_on_c, 9, 56, 0
1, 217079, Note_on_c, 9, 42, 0
1, 217080, Note_on_c, 9, 42, 92
1, 217199, Note_on_c, 9, 35, 0
1, 217199, Note_on_c, 9, 42, 0
1, 217200, Note_on_c, 9, 46, 89
1, 217200, Note_on_c, 9, 56, 91
1, 217200, Note_on_c, 9, 35, 112
1, 217439, Note_on_c, 9, 46, 0
1, 217439, Note_on_c, 9, 56, 0
1, 217439, Note_on_c, 9, 35, 0
1, 217440, Note_on_c, 9, 38, 87
1, 217440, Note_on_c, 9, 40, 112
1, 217440, Note_on_c, 9, 46, 89
1, 217440, Note_on_c, 9, 56, 89
1, 217559, Note_on_c, 9, 38, 0
1, 217559, Note_on_c, 9, 40, 0
1, 217559, Note_on_c, 9, 46, 0
1, 217559, Note_on_c, 9, 56, 0
1, 217560, Note_on_c, 9, 38, 87
1, 217560, Note_on_c, 9, 40, 112
1, 217679, Note_on_c, 9, 38, 0
1, 217679, Note_on_c, 9, 40, 0
1, 217680, Note_on_c, 9, 38, 87
1, 217680, Note_on_c, 9, 40, 112
1, 217799, Note_on_c, 9, 38, 0
1, 217799, Note_on_c, 9, 40, 0
1, 217800, Note_on_c, 9, 38, 87
1, 217800, Note_on_c, 9, 40, 112
1, 217919, Note_on_c, 9, 38, 0
1, 217919, Note_on_c, 9, 40, 0
1, 217920, Note_on_c, 9, 56, 81
1, 217920, Note_on_c, 9, 35, 112
1, 217934, Note_on_c, 9, 56, 0
1, 217935, Note_on_c, 9, 49, 89
1, 217979, Note_on_c, 9, 49, 0
1, 218040, Note_on_c, 9, 42, 66
1, 218159, Note_on_c, 9, 42, 0
1, 218160, Note_on_c, 9, 46, 89
1, 218399, Note_on_c, 9, 35, 0
1, 218399, Note_on_c, 9, 46, 0
1, 218400, Note_on_c, 9, 38, 87
1, 218400, Note_on_c, 9, 40, 112
1, 218400, Note_on_c, 9, 56, 93
1, 218400, Note_on_c, 9, 42, 74
1, 218519, Note_on_c, 9, 38, 0
1, 218519, Note_on_c, 9, 40, 0
1, 218519, Note_on_c, 9, 56, 0
1, 218519, Note_on_c, 9, 42, 0
1, 218520, Note_on_c, 9, 42, 72
1, 218639, Note_on_c, 9, 42, 0
1, 218640, Note_on_c, 9, 46, 84
1, 218879, Note_on_c, 9, 46, 0
1, 218880, Note_on_c, 9, 56, 87
1, 218880, Note_on_c, 9, 42, 76
1, 218880, Note_on_c, 9, 35, 112
1, 218999, Note_on_c, 9, 56, 0
1, 218999, Note_on_c, 9, 42, 0
1, 219000, Note_on_c, 9, 42, 74
1, 219119, Note_on_c, 9, 42, 0
1, 219120, Note_on_c, 9, 46, 92
1, 219359, Note_on_c, 9, 35, 0
1, 219359, Note_on_c, 9, 46, 0
1, 219360, Note_on_c, 9, 38, 87
1, 219360, Note_on_c, 9, 40, 112
1, 219360, Note_on_c, 9, 56, 97
1, 219360, Note_on_c, 9, 42, 82
1, 219479, Note_on_c, 9, 38, 0
1, 219479, Note_on_c, 9, 40, 0
1, 219479, Note_on_c, 9, 56, 0
1, 219479, Note_on_c, 9, 42, 0
1, 219480, Note_on_c, 9, 42, 89
1, 219599, Note_on_c, 9, 42, 0
1, 219600, Note_on_c, 9, 46, 89
1, 219839, Note_on_c, 9, 46, 0
1, 219840, Note_on_c, 9, 56, 85
1, 219840, Note_on_c, 9, 42, 70
1, 219840, Note_on_c, 9, 35, 112
1, 219959, Note_on_c, 9, 56, 0
1, 219959, Note_on_c, 9, 42, 0
1, 219960, Note_on_c, 9, 42, 84
1, 220079, Note_on_c, 9, 42, 0
1, 220080, Note_on_c, 9, 46, 82
1, 220319, Note_on_c, 9, 35, 0
1, 220319, Note_on_c, 9, 46, 0
1, 220320, Note_on_c, 9, 38, 87
1, 220320, Note_on_c, 9, 40, 112
1, 220320, Note_on_c, 9, 56, 101
1, 220320, Note_on_c, 9, 42, 84
1, 220439, Note_on_c, 9, 38, 0
1, 220439, Note_on_c, 9, 40, 0
1, 220439, Note_on_c, 9, 56, 0
1, 220439, Note_on_c, 9, 42, 0
1, 220440, Note_on_c, 9, 42, 84
1, 220559, Note_on_c, 9, 42, 0
1, 220560, Note_on_c, 9, 46, 86
1, 220799, Note_on_c, 9, 46, 0
1, 220800, Note_on_c, 9, 56, 73
1, 220800, Note_on_c, 9, 42, 76
1, 220800, Note_on_c, 9, 35, 102
1, 220919, Note_on_c, 9, 56, 0
1, 220919, Note_on_c, 9, 42, 0
1, 220920, Note_on_c, 9, 42, 84
1, 221039, Note_on_c, 9, 35, 0
1, 221039, Note_on_c, 9, 42, 0
1, 221040, Note_on_c, 9, 46, 86
1, 221040, Note_on_c, 9, 56, 76
1, 221040, Note_on_c, 9, 35, 105
1, 221279, Note_on_c, 9, 46, 0
1, 221279, Note_on_c, 9, 56, 0
1, 221279, Note_on_c, 9, 35, 0
1, 221280, Note_on_c, 9, 38, 87
1, 221280, Note_on_c, 9, 40, 112
1, 221280, Note_on_c, 9, 56, 91
1, 221280, Note_on_c, 9, 42, 82
1, 221399, Note_on_c, 9, 38, 0
1, 221399, Note_on_c, 9, 40, 0
1, 221399, Note_on_c, 9, 56, 0
1, 221399, Note_on_c, 9, 42, 0
1, 221400, Note_on_c, 9, 42, 86
1, 221519, Note_on_c, 9, 42, 0
1, 221520, Note_on_c, 9, 46, 84
1, 221759, Note_on_c, 9, 46, 0
1, 221760, Note_on_c, 9, 56, 95
1, 221760, Note_on_c, 9, 42, 84
1, 221760, Note_on_c, 9, 35, 112
1, 221879, Note_on_c, 9, 56, 0
1, 221879, Note_on_c, 9, 42, 0
1, 221880, Note_on_c, 9, 42, 76
1, 221999, Note_on_c, 9, 42, 0
1, 222000, Note_on_c, 9, 46, 86
1, 222239, Note_on_c, 9, 35, 0
1, 222239, Note_on_c, 9, 46, 0
1, 222240, Note_on_c, 9, 38, 87
1, 222240, Note_on_c, 9, 40, 112
1, 222240, Note_on_c, 9, 56, 99
1, 222240, Note_on_c, 9, 42, 84
1, 222359, Note_on_c, 9, 38, 0
1, 222359, Note_on_c, 9, 40, 0
1, 222359, Note_on_c, 9, 56, 0
1, 222359, Note_on_c, 9, 42, 0
1, 222360, Note_on_c, 9, 42, 76
1, 222479, Note_on_c, 9, 42, 0
1, 222480, Note_on_c, 9, 46, 82
1, 222719, Note_on_c, 9, 46, 0
1, 222720, Note_on_c, 9, 56, 89
1, 222720, Note_on_c, 9, 42, 89
1, 222720, Note_on_c, 9, 35, 112
1, 222839, Note_on_c, 9, 56, 0
1, 222839, Note_on_c, 9, 42, 0
1, 222840, Note_on_c, 9, 42, 86
1, 222959, Note_on_c, 9, 42, 0
1, 222960, Note_on_c, 9, 46, 84
1, 223199, Note_on_c, 9, 35, 0
1, 223199, Note_on_c, 9, 46, 0
1, 223200, Note_on_c, 9, 38, 87
1, 223200, Note_on_c, 9, 40, 112
1, 223200, Note_on_c, 9, 56, 97
1, 223200, Note_on_c, 9, 42, 84
1, 223319, Note_on_c, 9, 38, 0
1, 223319, Note_on_c, 9, 40, 0
1, 223319, Note_on_c, 9, 56, 0
1, 223319, Note_on_c, 9, 42, 0
1, 223320, Note_on_c, 9, 42, 86
1, 223439, Note_on_c, 9, 42, 0
1, 223440, Note_on_c, 9, 46, 86
1, 223679, Note_on_c, 9, 46, 0
1, 223680, Note_on_c, 9, 56, 95
1, 223680, Note_on_c, 9, 42, 86
1, 223680, Note_on_c, 9, 35, 112
1, 223799, Note_on_c, 9, 56, 0
1, 223799, Note_on_c, 9, 42, 0
1, 223800, Note_on_c, 9, 42, 95
1, 223919, Note_on_c, 9, 42, 0
1, 223920, Note_on_c, 9, 46, 89
1, 224159, Note_on_c, 9, 35, 0
1, 224159, Note_on_c, 9, 46, 0
1, 224160, Note_on_c, 9, 38, 87
1, 224160, Note_on_c, 9, 40, 112
1, 224160, Note_on_c, 9, 56, 97
1, 224160, Note_on_c, 9, 42, 92
1, 224279, Note_on_c, 9, 38, 0
1, 224279, Note_on_c, 9, 40, 0
1, 224279, Note_on_c, 9, 56, 0
1, 224279, Note_on_c, 9, 42, 0
1, 224280, Note_on_c, 9, 42, 89
1, 224399, Note_on_c, 9, 42, 0
1, 224400, Note_on_c, 9, 46, 86
1, 224520, Note_on_c, 9, 35, 104
1, 224639, Note_on_c, 9, 46, 0
1, 224639, Note_on_c, 9, 35, 0
1, 224640, Note_on_c, 9, 56, 70
1, 224640, Note_on_c, 9, 42, 86
1, 224640, Note_on_c, 9, 35, 109
1, 224759, Note_on_c, 9, 56, 0
1, 224759, Note_on_c, 9, 42, 0
1, 224760, Note_on_c, 9, 42, 92
1, 224879, Note_on_c, 9, 35, 0
1, 224879, Note_on_c, 9, 42, 0
1, 224880, Note_on_c, 9, 46, 89
1, 224880, Note_on_c, 9, 56, 73
1, 224880, Note_on_c, 9, 35, 112
1, 225119, Note_on_c, 9, 46, 0
1, 225119, Note_on_c, 9, 56, 0
1, 225119, Note_on_c, 9, 35, 0
1, 225120, Note_on_c, 9, 38, 87
1, 225120, Note_on_c, 9, 40, 112
1, 225120, Note_on_c, 9, 56, 89
1, 225120, Note_on_c, 9, 42, 86
1, 225239, Note_on_c, 9, 38, 0
1, 225239, Note_on_c, 9, 40, 0
1, 225239, Note_on_c, 9, 56, 0
1, 225239, Note_on_c, 9, 42, 0
1, 225240, Note_on_c, 9, 42, 82
1, 225359, Note_on_c, 9, 42, 0
1, 225360, Note_on_c, 9, 46, 89
1, 225599, Note_on_c, 9, 46, 0
1, 225600, Note_on_c, 9, 56, 97
1, 225600, Note_on_c, 9, 42, 85
1, 225600, Note_on_c, 9, 35, 112
1, 225719, Note_on_c, 9, 56, 0
1, 225719, Note_on_c, 9, 42, 0
1, 225720, Note_on_c, 9, 42, 66
1, 225839, Note_on_c, 9, 42, 0
1, 225840, Note_on_c, 9, 46, 89
1, 226079, Note_on_c, 9, 35, 0
1, 226079, Note_on_c, 9, 46, 0
1, 226080, Note_on_c, 9, 38, 87
1, 226080, Note_on_c, 9, 40, 112
1, 226080, Note_on_c, 9, 56, 80
1, 226080, Note_on_c, 9, 42, 74
1, 226199, Note_on_c, 9, 38, 0
1, 226199, Note_on_c, 9, 40, 0
1, 226199, Note_on_c, 9, 56, 0
1, 226199, Note_on_c, 9, 42, 0
1, 226200, Note_on_c, 9, 42, 72
1, 226319, Note_on_c, 9, 42, 0
1, 226320, Note_on_c, 9, 46, 84
1, 226559, Note_on_c, 9, 46, 0
1, 226560, Note_on_c, 9, 56, 80
1, 226560, Note_on_c, 9, 42, 76
1, 226560, Note_on_c, 9, 35, 112
1, 226679, Note_on_c, 9, 56, 0
1, 226679, Note_on_c, 9, 42, 0
1, 226680, Note_on_c, 9, 42, 74
1, 226799, Note_on_c, 9, 42, 0
1, 226800, Note_on_c, 9, 46, 92
1, 227039, Note_on_c, 9, 35, 0
1, 227039, Note_on_c, 9, 46, 0
1, 227040, Note_on_c, 9, 38, 87
1, 227040, Note_on_c, 9, 40, 112
1, 227040, Note_on_c, 9, 56, 87
1, 227040, Note_on_c, 9, 42, 82
1, 227159, Note_on_c, 9, 38, 0
1, 227159, Note_on_c, 9, 40, 0
1, 227159, Note_on_c, 9, 56, 0
1, 227159, Note_on_c, 9, 42, 0
1, 227160, Note_on_c, 9, 42, 89
1, 227279, Note_on_c, 9, 42, 0
1, 227280, Note_on_c, 9, 46, 89
1, 227519, Note_on_c, 9, 46, 0
1, 227520, Note_on_c, 9, 56, 87
1, 227520, Note_on_c, 9, 42, 70
1, 227520, Note_on_c, 9, 35, 112
1, 227639, Note_on_c, 9, 56, 0
1, 227639, Note_on_c, 9, 42, 0
1, 227640, Note_on_c, 9, 42, 84
1, 227759, Note_on_c, 9, 42, 0
1, 227760, Note_on_c, 9, 46, 82
1, 227999, Note_on_c, 9, 35, 0
1, 227999, Note_on_c, 9, 46, 0
1, 228000, Note_on_c, 9, 38, 87
1, 228000, Note_on_c, 9, 40, 112
1, 228000, Note_on_c, 9, 56, 87
1, 228000, Note_on_c, 9, 42, 84
1, 228119, Note_on_c, 9, 38, 0
1, 228119, Note_on_c, 9, 40, 0
1, 228119, Note_on_c, 9, 56, 0
1, 228119, Note_on_c, 9, 42, 0
1, 228120, Note_on_c, 9, 42, 84
1, 228239, Note_on_c, 9, 42, 0
1, 228240, Note_on_c, 9, 46, 86
1, 228479, Note_on_c, 9, 46, 0
1, 228480, Note_on_c, 9, 56, 91
1, 228480, Note_on_c, 9, 42, 76
1, 228480, Note_on_c, 9, 35, 101
1, 228599, Note_on_c, 9, 56, 0
1, 228599, Note_on_c, 9, 42, 0
1, 228600, Note_on_c, 9, 42, 84
1, 228719, Note_on_c, 9, 35, 0
1, 228719, Note_on_c, 9, 42, 0
1, 228720, Note_on_c, 9, 46, 86
1, 228720, Note_on_c, 9, 56, 91
1, 228720, Note_on_c, 9, 35, 112
1, 228959, Note_on_c, 9, 46, 0
1, 228959, Note_on_c, 9, 56, 0
1, 228959, Note_on_c, 9, 35, 0
1, 228960, Note_on_c, 9, 38, 87
1, 228960, Note_on_c, 9, 40, 112
1, 228960, Note_on_c, 9, 56, 91
1, 228960, Note_on_c, 9, 42, 82
1, 229079, Note_on_c, 9, 38, 0
1, 229079, Note_on_c, 9, 40, 0
1, 229079, Note_on_c, 9, 56, 0
1, 229079, Note_on_c, 9, 42, 0
1, 229080, Note_on_c, 9, 42, 86
1, 229199, Note_on_c, 9, 42, 0
1, 229200, Note_on_c, 9, 46, 84
1, 229439, Note_on_c, 9, 46, 0
1, 229440, Note_on_c, 9, 56, 91
1, 229440, Note_on_c, 9, 42, 84
1, 229440, Note_on_c, 9, 35, 112
1, 229559, Note_on_c, 9, 56, 0
1, 229559, Note_on_c, 9, 42, 0
1, 229560, Note_on_c, 9, 42, 76
1, 229679, Note_on_c, 9, 42, 0
1, 229680, Note_on_c, 9, 46, 86
1, 229919, Note_on_c, 9, 35, 0
1, 229919, Note_on_c, 9, 46, 0
1, 229920, Note_on_c, 9, 38, 87
1, 229920, Note_on_c, 9, 40, 112
1, 229920, Note_on_c, 9, 56, 91
1, 229920, Note_on_c, 9, 42, 84
1, 230039, Note_on_c, 9, 38, 0
1, 230039, Note_on_c, 9, 40, 0
1, 230039, Note_on_c, 9, 56, 0
1, 230039, Note_on_c, 9, 42, 0
1, 230040, Note_on_c, 9, 42, 76
1, 230159, Note_on_c, 9, 42, 0
1, 230160, Note_on_c, 9, 46, 82
1, 230399, Note_on_c, 9, 46, 0
1, 230400, Note_on_c, 9, 56, 91
1, 230400, Note_on_c, 9, 42, 89
1, 230400, Note_on_c, 9, 35, 112
1, 230519, Note_on_c, 9, 56, 0
1, 230519, Note_on_c, 9, 42, 0
1, 230520, Note_on_c, 9, 42, 86
1, 230639, Note_on_c, 9, 42, 0
1, 230640, Note_on_c, 9, 46, 84
1, 230879, Note_on_c, 9, 35, 0
1, 230879, Note_on_c, 9, 46, 0
1, 230880, Note_on_c, 9, 38, 87
1, 230880, Note_on_c, 9, 40, 112
1, 230880, Note_on_c, 9, 56, 91
1, 230880, Note_on_c, 9, 42, 84
1, 230999, Note_on_c, 9, 38, 0
1, 230999, Note_on_c, 9, 40, 0
1, 230999, Note_on_c, 9, 56, 0
1, 230999, Note_on_c, 9, 42, 0
1, 231000, Note_on_c, 9, 42, 86
1, 231119, Note_on_c, 9, 42, 0
1, 231120, Note_on_c, 9, 46, 86
1, 231359, Note_on_c, 9, 46, 0
1, 231360, Note_on_c, 9, 56, 91
1, 231360, Note_on_c, 9, 42, 86
1, 231360, Note_on_c, 9, 35, 112
1, 231479, Note_on_c, 9, 56, 0
1, 231479, Note_on_c, 9, 42, 0
1, 231480, Note_on_c, 9, 42, 95
1, 231599, Note_on_c, 9, 42, 0
1, 231600, Note_on_c, 9, 46, 89
1, 231839, Note_on_c, 9, 35, 0
1, 231839, Note_on_c, 9, 46, 0
1, 231840, Note_on_c, 9, 38, 87
1, 231840, Note_on_c, 9, 40, 112
1, 231840, Note_on_c, 9, 56, 91
1, 231840, Note_on_c, 9, 42, 92
1, 231959, Note_on_c, 9, 38, 0
1, 231959, Note_on_c, 9, 40, 0
1, 231959, Note_on_c, 9, 56, 0
1, 231959, Note_on_c, 9, 42, 0
1, 231960, Note_on_c, 9, 42, 89
1, 232079, Note_on_c, 9, 42, 0
1, 232080, Note_on_c, 9, 46, 86
1, 232200, Note_on_c, 9, 35, 102
1, 232319, Note_on_c, 9, 46, 0
1, 232319, Note_on_c, 9, 35, 0
1, 232320, Note_on_c, 9, 56, 91
1, 232320, Note_on_c, 9, 42, 86
1, 232320, Note_on_c, 9, 35, 111
1, 232439, Note_on_c, 9, 56, 0
1, 232439, Note_on_c, 9, 42, 0
1, 232440, Note_on_c, 9, 42, 92
1, 232559, Note_on_c, 9, 42, 0
1, 232560, Note_on_c, 9, 38, 87
1, 232560, Note_on_c, 9, 40, 112
1, 232560, Note_on_c, 9, 46, 89
1, 232560, Note_on_c, 9, 56, 91
1, 232799, Note_on_c, 9, 35, 0
1, 232799, Note_on_c, 9, 38, 0
1, 232799, Note_on_c, 9, 40, 0
1, 232799, Note_on_c, 9, 46, 0
1, 232799, Note_on_c, 9, 56, 0
1, 232800, Note_on_c, 9, 38, 87
1, 232800, Note_on_c, 9, 40, 112
1, 232800, Note_on_c, 9, 56, 89
1, 232919, Note_on_c, 9, 38, 0
1, 232919, Note_on_c, 9, 40, 0
1, 232919, Note_on_c, 9, 56, 0
1, 232920, Note_on_c, 9, 45, 112
1, 233039, Note_on_c, 9, 45, 0
1, 233040, Note_on_c, 9, 41, 112
1, 233279, Note_on_c, 9, 41, 0
1, 233280, Note_on_c, 9, 56, 81
1, 233280, Note_on_c, 9, 35, 108
1, 233294, Note_on_c, 9, 56, 0
1, 233295, Note_on_c, 9, 57, 87
1, 233339, Note_on_c, 9, 57, 0
1, 233400, Note_on_c, 9, 42, 66
1, 233519, Note_on_c, 9, 42, 0
1, 233520, Note_on_c, 9, 46, 89
1, 233759, Note_on_c, 9, 35, 0
1, 233759, Note_on_c, 9, 46, 0
1, 233760, Note_on_c, 9, 38, 85
1, 233760, Note_on_c, 9, 40, 110
1, 233760, Note_on_c, 9, 56, 81
1, 233760, Note_on_c, 9, 42, 74
1, 233879, Note_on_c, 9, 38, 0
1, 233879, Note_on_c, 9, 40, 0
1, 233879, Note_on_c, 9, 56, 0
1, 233879, Note_on_c, 9, 42, 0
1, 233880, Note_on_c, 9, 42, 72
1, 233999, Note_on_c, 9, 42, 0
1, 234000, Note_on_c, 9, 46, 84
1, 234239, Note_on_c, 9, 46, 0
1, 234240, Note_on_c, 9, 56, 81
1, 234240, Note_on_c, 9, 42, 76
1, 234240, Note_on_c, 9, 35, 110
1, 234359, Note_on_c, 9, 56, 0
1, 234359, Note_on_c, 9, 42, 0
1, 234360, Note_on_c, 9, 42, 74
1, 234479, Note_on_c, 9, 42, 0
1, 234480, Note_on_c, 9, 46, 92
1, 234719, Note_on_c, 9, 35, 0
1, 234719, Note_on_c, 9, 46, 0
1, 234720, Note_on_c, 9, 38, 85
1, 234720, Note_on_c, 9, 40, 110
1, 234720, Note_on_c, 9, 56, 81
1, 234720, Note_on_c, 9, 42, 82
1, 234839, Note_on_c, 9, 38, 0
1, 234839, Note_on_c, 9, 40, 0
1, 234839, Note_on_c, 9, 56, 0
1, 234839, Note_on_c, 9, 42, 0
1, 234840, Note_on_c, 9, 42, 89
1, 234959, Note_on_c, 9, 42, 0
1, 234960, Note_on_c, 9, 46, 89
1, 235199, Note_on_c, 9, 46, 0
1, 235200, Note_on_c, 9, 56, 81
1, 235200, Note_on_c, 9, 42, 70
1, 235200, Note_on_c, 9, 35, 112
1, 235319, Note_on_c, 9, 56, 0
1, 235319, Note_on_c, 9, 42, 0
1, 235320, Note_on_c, 9, 42, 84
1, 235439, Note_on_c, 9, 42, 0
1, 235440, Note_on_c, 9, 46, 82
1, 235679, Note_on_c, 9, 35, 0
1, 235679, Note_on_c, 9, 46, 0
1, 235680, Note_on_c, 9, 38, 87
1, 235680, Note_on_c, 9, 40, 112
1, 235680, Note_on_c, 9, 56, 81
1, 235680, Note_on_c, 9, 42, 84
1, 235799, Note_on_c, 9, 38, 0
1, 235799, Note_on_c, 9, 40, 0
1, 235799, Note_on_c, 9, 56, 0
1, 235799, Note_on_c, 9, 42, 0
1, 235800, Note_on_c, 9, 42, 84
1, 235919, Note_on_c, 9, 42, 0
1, 235920, Note_on_c, 9, 46, 86
1, 236159, Note_on_c, 9, 46, 0
1, 236160, Note_on_c, 9, 56, 84
1, 236160, Note_on_c, 9, 42, 76
1, 236160, Note_on_c, 9, 35, 110
1, 236279, Note_on_c, 9, 56, 0
1, 236279, Note_on_c, 9, 42, 0
1, 236280, Note_on_c, 9, 42, 84
1, 236399, Note_on_c, 9, 42, 0
1, 236400, Note_on_c, 9, 46, 86
1, 236400, Note_on_c, 9, 56, 84
1, 236639, Note_on_c, 9, 35, 0
1, 236639, Note_on_c, 9, 46, 0
1, 236639, Note_on_c, 9, 56, 0
1, 236640, Note_on_c, 9, 38, 87
1, 236640, Note_on_c, 9, 40, 112
1, 236640, Note_on_c, 9, 56, 84
1, 236640, Note_on_c, 9, 42, 82
1, 236759, Note_on_c, 9, 38, 0
1, 236759, Note_on_c, 9, 40, 0
1, 236759, Note_on_c, 9, 56, 0
1, 236759, Note_on_c, 9, 42, 0
1, 236760, Note_on_c, 9, 42, 86
1, 236879, Note_on_c, 9, 42, 0
1, 236880, Note_on_c, 9, 46, 84
1, 237119, Note_on_c, 9, 46, 0
1, 237120, Note_on_c, 9, 56, 76
1, 237120, Note_on_c, 9, 42, 84
1, 237120, Note_on_c, 9, 35, 110
1, 237239, Note_on_c, 9, 56, 0
1, 237239, Note_on_c, 9, 42, 0
1, 237240, Note_on_c, 9, 42, 76
1, 237359, Note_on_c, 9, 42, 0
1, 237360, Note_on_c, 9, 46, 86
1, 237599, Note_on_c, 9, 35, 0
1, 237599, Note_on_c, 9, 46, 0
1, 237600, Note_on_c, 9, 38, 87
1, 237600, Note_on_c, 9, 40, 112
1, 237600, Note_on_c, 9, 56, 78
1, 237600, Note_on_c, 9, 42, 84
1, 237719, Note_on_c, 9, 38, 0
1, 237719, Note_on_c, 9, 40, 0
1, 237719, Note_on_c, 9, 56, 0
1, 237719, Note_on_c, 9, 42, 0
1, 237720, Note_on_c, 9, 42, 76
1, 237839, Note_on_c, 9, 42, 0
1, 237840, Note_on_c, 9, 46, 82
1, 238079, Note_on_c, 9, 46, 0
1, 238080, Note_on_c, 9, 56, 78
1, 238080, Note_on_c, 9, 42, 89
1, 238080, Note_on_c, 9, 35, 112
1, 238199, Note_on_c, 9, 56, 0
1, 238199, Note_on_c, 9, 42, 0
1, 238200, Note_on_c, 9, 42, 86
1, 238319, Note_on_c, 9, 42, 0
1, 238320, Note_on_c, 9, 46, 84
1, 238559, Note_on_c, 9, 35, 0
1, 238559, Note_on_c, 9, 46, 0
1, 238560, Note_on_c, 9, 38, 87
1, 238560, Note_on_c, 9, 40, 112
1, 238560, Note_on_c, 9, 56, 78
1, 238560, Note_on_c, 9, 42, 84
1, 238679, Note_on_c, 9, 38, 0
1, 238679, Note_on_c, 9, 40, 0
1, 238679, Note_on_c, 9, 56, 0
1, 238679, Note_on_c, 9, 42, 0
1, 238680, Note_on_c, 9, 42, 86
1, 238799, Note_on_c, 9, 42, 0
1, 238800, Note_on_c, 9, 46, 86
1, 239039, Note_on_c, 9, 46, 0
1, 239040, Note_on_c, 9, 56, 78
1, 239040, Note_on_c, 9, 42, 86
1, 239040, Note_on_c, 9, 35, 112
1, 239159, Note_on_c, 9, 56, 0
1, 239159, Note_on_c, 9, 42, 0
1, 239160, Note_on_c, 9, 42, 95
1, 239279, Note_on_c, 9, 42, 0
1, 239280, Note_on_c, 9, 46, 89
1, 239519, Note_on_c, 9, 35, 0
1, 239519, Note_on_c, 9, 46, 0
1, 239520, Note_on_c, 9, 38, 87
1, 239520, Note_on_c, 9, 40, 112
1, 239520, Note_on_c, 9, 56, 83
1, 239520, Note_on_c, 9, 42, 92
1, 239639, Note_on_c, 9, 38, 0
1, 239639, Note_on_c, 9, 40, 0
1, 239639, Note_on_c, 9, 56, 0
1, 239639, Note_on_c, 9, 42, 0
1, 239640, Note_on_c, 9, 42, 89
1, 239759, Note_on_c, 9, 42, 0
1, 239760, Note_on_c, 9, 46, 86
1, 239999, Note_on_c, 9, 46, 0
1, 240000, Note_on_c, 9, 56, 83
1, 240000, Note_on_c, 9, 42, 86
1, 240000, Note_on_c, 9, 35, 112
1, 240119, Note_on_c, 9, 56, 0
1, 240119, Note_on_c, 9, 42, 0
1, 240120, Note_on_c, 9, 42, 92
1, 240239, Note_on_c, 9, 42, 0
1, 240240, Note_on_c, 9, 46, 89
1, 240240, Note_on_c, 9, 56, 83
1, 240479, Note_on_c, 9, 35, 0
1, 240479, Note_on_c, 9, 46, 0
1, 240479, Note_on_c, 9, 56, 0
1, 240480, Note_on_c, 9, 38, 87
1, 240480, Note_on_c, 9, 40, 112
1, 240480, Note_on_c, 9, 46, 95
1, 240480, Note_on_c, 9, 56, 83
1, 240719, Note_on_c, 9, 38, 0
1, 240719, Note_on_c, 9, 40, 0
1, 240719, Note_on_c, 9, 46, 0
1, 240719, Note_on_c, 9, 56, 0
1, 240720, Note_on_c, 9, 38, 72
1, 240720, Note_on_c, 9, 40, 97
1, 240839, Note_on_c, 9, 38, 0
1, 240839, Note_on_c, 9, 40, 0
1, 240840, Note_on_c, 9, 38, 83
1, 240840, Note_on_c, 9, 40, 108
1, 240959, Note_on_c, 9, 38, 0
1, 240959, Note_on_c, 9, 40, 0
1, 240960, Note_on_c, 9, 56, 81
1, 240960, Note_on_c, 9, 35, 108
1, 240974, Note_on_c, 9, 56, 0
1, 240975, Note_on_c, 9, 57, 87
1, 241019, Note_on_c, 9, 57, 0
1, 241080, Note_on_c, 9, 42, 66
1, 241199, Note_on_c, 9, 42, 0
1, 241200, Note_on_c, 9, 46, 89
1, 241439, Note_on_c, 9, 35, 0
1, 241439, Note_on_c, 9, 46, 0
1, 241440, Note_on_c, 9, 38, 85
1, 241440, Note_on_c, 9, 40, 110
1, 241440, Note_on_c, 9, 56, 81
1, 241440, Note_on_c, 9, 42, 74
1, 241559, Note_on_c, 9, 38, 0
1, 241559, Note_on_c, 9, 40, 0
1, 241559, Note_on_c, 9, 56, 0
1, 241559, Note_on_c, 9, 42, 0
1, 241560, Note_on_c, 9, 42, 72
1, 241679, Note_on_c, 9, 42, 0
1, 241680, Note_on_c, 9, 46, 84
1, 241919, Note_on_c, 9, 46, 0
1, 241920, Note_on_c, 9, 56, 81
1, 241920, Note_on_c, 9, 42, 76
1, 241920, Note_on_c, 9, 35, 110
1, 242039, Note_on_c, 9, 56, 0
1, 242039, Note_on_c, 9, 42, 0
1, 242040, Note_on_c, 9, 42, 74
1, 242159, Note_on_c, 9, 42, 0
1, 242160, Note_on_c, 9, 46, 92
1, 242399, Note_on_c, 9, 35, 0
1, 242399, Note_on_c, 9, 46, 0
1, 242400, Note_on_c, 9, 38, 85
1, 242400, Note_on_c, 9, 40, 110
1, 242400, Note_on_c, 9, 56, 81
1, 242400, Note_on_c, 9, 42, 82
1, 242519, Note_on_c, 9, 38, 0
1, 242519, Note_on_c, 9, 40, 0
1, 242519, Note_on_c, 9, 56, 0
1, 242519, Note_on_c, 9, 42, 0
1, 242520, Note_on_c, 9, 42, 89
1, 242639, Note_on_c, 9, 42, 0
1, 242640, Note_on_c, 9, 46, 89
1, 242879, Note_on_c, 9, 46, 0
1, 242880, Note_on_c, 9, 56, 81
1, 242880, Note_on_c, 9, 42, 70
1, 242880, Note_on_c, 9, 35, 112
1, 242999, Note_on_c, 9, 56, 0
1, 242999, Note_on_c, 9, 42, 0
1, 243000, Note_on_c, 9, 42, 84
1, 243119, Note_on_c, 9, 42, 0
1, 243120, Note_on_c, 9, 46, 82
1, 243359, Note_on_c, 9, 35, 0
1, 243359, Note_on_c, 9, 46, 0
1, 243360, Note_on_c, 9, 38, 87
1, 243360, Note_on_c, 9, 40, 112
1, 243360, Note_on_c, 9, 56, 81
1, 243360, Note_on_c, 9, 42, 84
1, 243479, Note_on_c, 9, 38, 0
1, 243479, Note_on_c, 9, 40, 0
1, 243479, Note_on_c, 9, 56, 0
1, 243479, Note_on_c, 9, 42, 0
1, 243480, Note_on_c, 9, 42, 84
1, 243599, Note_on_c, 9, 42, 0
1, 243600, Note_on_c, 9, 46, 86
1, 243839, Note_on_c, 9, 46, 0
1, 243840, Note_on_c, 9, 56, 84
1, 243840, Note_on_c, 9, 42, 76
1, 243840, Note_on_c, 9, 35, 110
1, 243959, Note_on_c, 9, 56, 0
1, 243959, Note_on_c, 9, 42, 0
1, 243960, Note_on_c, 9, 42, 84
1, 244079, Note_on_c, 9, 42, 0
1, 244080, Note_on_c, 9, 46, 86
1, 244080, Note_on_c, 9, 56, 84
1, 244319, Note_on_c, 9, 35, 0
1, 244319, Note_on_c, 9, 46, 0
1, 244319, Note_on_c, 9, 56, 0
1, 244320, Note_on_c, 9, 38, 87
1, 244320, Note_on_c, 9, 40, 112
1, 244320, Note_on_c, 9, 56, 84
1, 244320, Note_on_c, 9, 42, 82
1, 244439, Note_on_c, 9, 38, 0
1, 244439, Note_on_c, 9, 40, 0
1, 244439, Note_on_c, 9, 56, 0
1, 244439, Note_on_c, 9, 42, 0
1, 244440, Note_on_c, 9, 42, 86
1, 244559, Note_on_c, 9, 42, 0
1, 244560, Note_on_c, 9, 46, 84
1, 244799, Note_on_c, 9, 46, 0
1, 244800, Note_on_c, 9, 56, 76
1, 244800, Note_on_c, 9, 42, 84
1, 244800, Note_on_c, 9, 35, 110
1, 244919, Note_on_c, 9, 56, 0
1, 244919, Note_on_c, 9, 42, 0
1, 244920, Note_on_c, 9, 42, 76
1, 245039, Note_on_c, 9, 42, 0
1, 245040, Note_on_c, 9, 46, 86
1, 245279, Note_on_c, 9, 35, 0
1, 245279, Note_on_c, 9, 46, 0
1, 245280, Note_on_c, 9, 38, 87
1, 245280, Note_on_c, 9, 40, 112
1, 245280, Note_on_c, 9, 56, 78
1, 245280, Note_on_c, 9, 42, 84
1, 245399, Note_on_c, 9, 38, 0
1, 245399, Note_on_c, 9, 40, 0
1, 245399, Note_on_c, 9, 56, 0
1, 245399, Note_on_c, 9, 42, 0
1, 245400, Note_on_c, 9, 42, 76
1, 245519, Note_on_c, 9, 42, 0
1, 245520, Note_on_c, 9, 46, 82
1, 245759, Note_on_c, 9, 46, 0
1, 245760, Note_on_c, 9, 56, 78
1, 245760, Note_on_c, 9, 42, 89
1, 245760, Note_on_c, 9, 35, 112
1, 245879, Note_on_c, 9, 56, 0
1, 245879, Note_on_c, 9, 42, 0
1, 245880, Note_on_c, 9, 42, 86
1, 245999, Note_on_c, 9, 42, 0
1, 246000, Note_on_c, 9, 46, 84
1, 246239, Note_on_c, 9, 35, 0
1, 246239, Note_on_c, 9, 46, 0
1, 246240, Note_on_c, 9, 38, 87
1, 246240, Note_on_c, 9, 40, 112
1, 246240, Note_on_c, 9, 56, 78
1, 246240, Note_on_c, 9, 42, 84
1, 246359, Note_on_c, 9, 38, 0
1, 246359, Note_on_c, 9, 40, 0
1, 246359, Note_on_c, 9, 56, 0
1, 246359, Note_on_c, 9, 42, 0
1, 246360, Note_on_c, 9, 42, 86
1, 246479, Note_on_c, 9, 42, 0
1, 246480, Note_on_c, 9, 46, 86
1, 246719, Note_on_c, 9, 46, 0
1, 246720, Note_on_c, 9, 56, 78
1, 246720, Note_on_c, 9, 42, 86
1, 246720, Note_on_c, 9, 35, 112
1, 246839, Note_on_c, 9, 56, 0
1, 246839, Note_on_c, 9, 42, 0
1, 246840, Note_on_c, 9, 42, 95
1, 246959, Note_on_c, 9, 42, 0
1, 246960, Note_on_c, 9, 46, 89
1, 247199, Note_on_c, 9, 35, 0
1, 247199, Note_on_c, 9, 46, 0
1, 247200, Note_on_c, 9, 38, 87
1, 247200, Note_on_c, 9, 40, 112
1, 247200, Note_on_c, 9, 56, 83
1, 247200, Note_on_c, 9, 42, 92
1, 247319, Note_on_c, 9, 38, 0
1, 247319, Note_on_c, 9, 40, 0
1, 247319, Note_on_c, 9, 56, 0
1, 247319, Note_on_c, 9, 42, 0
1, 247320, Note_on_c, 9, 42, 89
1, 247439, Note_on_c, 9, 42, 0
1, 247440, Note_on_c, 9, 46, 86
1, 247679, Note_on_c, 9, 46, 0
1, 247680, Note_on_c, 9, 56, 83
1, 247680, Note_on_c, 9, 42, 86
1, 247680, Note_on_c, 9, 35, 112
1, 247799, Note_on_c, 9, 56, 0
1, 247799, Note_on_c, 9, 42, 0
1, 247800, Note_on_c, 9, 42, 92
1, 247919, Note_on_c, 9, 42, 0
1, 247920, Note_on_c, 9, 46, 89
1, 247920, Note_on_c, 9, 56, 83
1, 248159, Note_on_c, 9, 35, 0
1, 248159, Note_on_c, 9, 46, 0
1, 248159, Note_on_c, 9, 56, 0
1, 248160, Note_on_c, 9, 38, 87
1, 248160, Note_on_c, 9, 40, 112
1, 248160, Note_on_c, 9, 46, 89
1, 248160, Note_on_c, 9, 56, 83
1, 248279, Note_on_c, 9, 38, 0
1, 248279, Note_on_c, 9, 40, 0
1, 248279, Note_on_c, 9, 46, 0
1, 248279, Note_on_c, 9, 56, 0
1, 248280, Note_on_c, 9, 38, 87
1, 248280, Note_on_c, 9, 40, 112
1, 248399, Note_on_c, 9, 38, 0
1, 248399, Note_on_c, 9, 40, 0
1, 248400, Note_on_c, 9, 38, 87
1, 248400, Note_on_c, 9, 40, 112
1, 248519, Note_on_c, 9, 38, 0
1, 248519, Note_on_c, 9, 40, 0
1, 248520, Note_on_c, 9, 38, 87
1, 248520, Note_on_c, 9, 40, 112
1, 248639, Note_on_c, 9, 38, 0
1, 248639, Note_on_c, 9, 40, 0
1, 248640, Note_on_c, 9, 56, 81
1, 248640, Note_on_c, 9, 35, 108
1, 248654, Note_on_c, 9, 56, 0
1, 248655, Note_on_c, 9, 57, 87
1, 248699, Note_on_c, 9, 57, 0
1, 248760, Note_on_c, 9, 42, 66
1, 248879, Note_on_c, 9, 42, 0
1, 248880, Note_on_c, 9, 46, 89
1, 249119, Note_on_c, 9, 35, 0
1, 249119, Note_on_c, 9, 46, 0
1, 249120, Note_on_c, 9, 38, 85
1, 249120, Note_on_c, 9, 40, 110
1, 249120, Note_on_c, 9, 56, 81
1, 249120, Note_on_c, 9, 42, 74
1, 249239, Note_on_c, 9, 38, 0
1, 249239, Note_on_c, 9, 40, 0
1, 249239, Note_on_c, 9, 56, 0
1, 249239, Note_on_c, 9, 42, 0
1, 249240, Note_on_c, 9, 42, 72
1, 249359, Note_on_c, 9, 42, 0
1, 249360, Note_on_c, 9, 46, 84
1, 249599, Note_on_c, 9, 46, 0
1, 249600, Note_on_c, 9, 56, 81
1, 249600, Note_on_c, 9, 42, 76
1, 249600, Note_on_c, 9, 35, 110
1, 249719, Note_on_c, 9, 56, 0
1, 249719, Note_on_c, 9, 42, 0
1, 249720, Note_on_c, 9, 42, 74
1, 249839, Note_on_c, 9, 42, 0
1, 249840, Note_on_c, 9, 46, 92
1, 250079, Note_on_c, 9, 35, 0
1, 250079, Note_on_c, 9, 46, 0
1, 250080, Note_on_c, 9, 38, 85
1, 250080, Note_on_c, 9, 40, 110
1, 250080, Note_on_c, 9, 56, 81
1, 250080, Note_on_c, 9, 42, 82
1, 250199, Note_on_c, 9, 38, 0
1, 250199, Note_on_c, 9, 40, 0
1, 250199, Note_on_c, 9, 56, 0
1, 250199, Note_on_c, 9, 42, 0
1, 250200, Note_on_c, 9, 42, 89
1, 250319, Note_on_c, 9, 42, 0
1, 250320, Note_on_c, 9, 46, 89
1, 250559, Note_on_c, 9, 46, 0
1, 250560, Note_on_c, 9, 56, 81
1, 250560, Note_on_c, 9, 42, 70
1, 250560, Note_on_c, 9, 35, 112
1, 250679, Note_on_c, 9, 56, 0
1, 250679, Note_on_c, 9, 42, 0
1, 250680, Note_on_c, 9, 42, 84
1, 250799, Note_on_c, 9, 42, 0
1, 250800, Note_on_c, 9, 46, 82
1, 251039, Note_on_c, 9, 35, 0
1, 251039, Note_on_c, 9, 46, 0
1, 251040, Note_on_c, 9, 38, 87
1, 251040, Note_on_c, 9, 40, 112
1, 251040, Note_on_c, 9, 56, 81
1, 251040, Note_on_c, 9, 42, 84
1, 251159, Note_on_c, 9, 38, 0
1, 251159, Note_on_c, 9, 40, 0
1, 251159, Note_on_c, 9, 56, 0
1, 251159, Note_on_c, 9, 42, 0
1, 251160, Note_on_c, 9, 42, 84
1, 251279, Note_on_c, 9, 42, 0
1, 251280, Note_on_c, 9, 46, 86
1, 251519, Note_on_c, 9, 46, 0
1, 251520, Note_on_c, 9, 56, 84
1, 251520, Note_on_c, 9, 42, 76
1, 251520, Note_on_c, 9, 35, 110
1, 251639, Note_on_c, 9, 56, 0
1, 251639, Note_on_c, 9, 42, 0
1, 251640, Note_on_c, 9, 42, 84
1, 251759, Note_on_c, 9, 42, 0
1, 251760, Note_on_c, 9, 46, 86
1, 251760, Note_on_c, 9, 56, 84
1, 251999, Note_on_c, 9, 35, 0
1, 251999, Note_on_c, 9, 46, 0
1, 251999, Note_on_c, 9, 56, 0
1, 252000, Note_on_c, 9, 38, 87
1, 252000, Note_on_c, 9, 40, 112
1, 252000, Note_on_c, 9, 56, 84
1, 252000, Note_on_c, 9, 42, 82
1, 252119, Note_on_c, 9, 38, 0
1, 252119, Note_on_c, 9, 40, 0
1, 252119, Note_on_c, 9, 56, 0
1, 252119, Note_on_c, 9, 42, 0
1, 252120, Note_on_c, 9, 42, 86
1, 252239, Note_on_c, 9, 42, 0
1, 252240, Note_on_c, 9, 46, 84
1, 252479, Note_on_c, 9, 46, 0
1, 252480, Note_on_c, 9, 56, 76
1, 252480, Note_on_c, 9, 42, 84
1, 252480, Note_on_c, 9, 35, 110
1, 252599, Note_on_c, 9, 56, 0
1, 252599, Note_on_c, 9, 42, 0
1, 252600, Note_on_c, 9, 42, 76
1, 252719, Note_on_c, 9, 42, 0
1, 252720, Note_on_c, 9, 46, 86
1, 252959, Note_on_c, 9, 35, 0
1, 252959, Note_on_c, 9, 46, 0
1, 252960, Note_on_c, 9, 38, 87
1, 252960, Note_on_c, 9, 40, 112
1, 252960, Note_on_c, 9, 56, 78
1, 252960, Note_on_c, 9, 42, 84
1, 253079, Note_on_c, 9, 38, 0
1, 253079, Note_on_c, 9, 40, 0
1, 253079, Note_on_c, 9, 56, 0
1, 253079, Note_on_c, 9, 42, 0
1, 253080, Note_on_c, 9, 42, 76
1, 253199, Note_on_c, 9, 42, 0
1, 253200, Note_on_c, 9, 46, 82
1, 253439, Note_on_c, 9, 46, 0
1, 253440, Note_on_c, 9, 56, 78
1, 253440, Note_on_c, 9, 42, 89
1, 253440, Note_on_c, 9, 35, 112
1, 253559, Note_on_c, 9, 56, 0
1, 253559, Note_on_c, 9, 42, 0
1, 253560, Note_on_c, 9, 42, 86
1, 253679, Note_on_c, 9, 42, 0
1, 253680, Note_on_c, 9, 46, 84
1, 253919, Note_on_c, 9, 35, 0
1, 253919, Note_on_c, 9, 46, 0
1, 253920, Note_on_c, 9, 38, 87
1, 253920, Note_on_c, 9, 40, 112
1, 253920, Note_on_c, 9, 56, 78
1, 253920, Note_on_c, 9, 42, 84
1, 254039, Note_on_c, 9, 38, 0
1, 254039, Note_on_c, 9, 40, 0
1, 254039, Note_on_c, 9, 56, 0
1, 254039, Note_on_c, 9, 42, 0
1, 254040, Note_on_c, 9, 42, 86
1, 254159, Note_on_c, 9, 42, 0
1, 254160, Note_on_c, 9, 46, 86
1, 254399, Note_on_c, 9, 46, 0
1, 254400, Note_on_c, 9, 56, 78
1, 254400, Note_on_c, 9, 42, 86
1, 254400, Note_on_c, 9, 35, 112
1, 254519, Note_on_c, 9, 56, 0
1, 254519, Note_on_c, 9, 42, 0
1, 254520, Note_on_c, 9, 42, 95
1, 254639, Note_on_c, 9, 42, 0
1, 254640, Note_on_c, 9, 46, 89
1, 254879, Note_on_c, 9, 35, 0
1, 254879, Note_on_c, 9, 46, 0
1, 254880, Note_on_c, 9, 38, 87
1, 254880, Note_on_c, 9, 40, 112
1, 254880, Note_on_c, 9, 56, 83
1, 254880, Note_on_c, 9, 42, 92
1, 254999, Note_on_c, 9, 38, 0
1, 254999, Note_on_c, 9, 40, 0
1, 254999, Note_on_c, 9, 56, 0
1, 254999, Note_on_c, 9, 42, 0
1, 255000, Note_on_c, 9, 42, 89
1, 255119, Note_on_c, 9, 42, 0
1, 255120, Note_on_c, 9, 46, 86
1, 255359, Note_on_c, 9, 46, 0
1, 255360, Note_on_c, 9, 56, 83
1, 255360, Note_on_c, 9, 42, 86
1, 255360, Note_on_c, 9, 35, 112
1, 255479, Note_on_c, 9, 56, 0
1, 255479, Note_on_c, 9, 42, 0
1, 255480, Note_on_c, 9, 42, 92
1, 255599, Note_on_c, 9, 42, 0
1, 255600, Note_on_c, 9, 46, 89
1, 255600, Note_on_c, 9, 56, 83
1, 255839, Note_on_c, 9, 35, 0
1, 255839, Note_on_c, 9, 46, 0
1, 255839, Note_on_c, 9, 56, 0
1, 255840, Note_on_c, 9, 38, 87
1, 255840, Note_on_c, 9, 40, 112
1, 255840, Note_on_c, 9, 56, 83
1, 255840, Note_on_c, 9, 42, 86
1, 255959, Note_on_c, 9, 38, 0
1, 255959, Note_on_c, 9, 40, 0
1, 255959, Note_on_c, 9, 56, 0
1, 255959, Note_on_c, 9, 42, 0
1, 255960, Note_on_c, 9, 42, 82
1, 256079, Note_on_c, 9, 42, 0
1, 256080, Note_on_c, 9, 46, 89
1, 256319, Note_on_c, 9, 46, 0
1, 256320, Note_on_c, 9, 56, 81
1, 256320, Note_on_c, 9, 35, 108
1, 256334, Note_on_c, 9, 56, 0
1, 256335, Note_on_c, 9, 57, 87
1, 256379, Note_on_c, 9, 57, 0
1, 256440, Note_on_c, 9, 42, 66
1, 256559, Note_on_c, 9, 42, 0
1, 256560, Note_on_c, 9, 46, 89
1, 256799, Note_on_c, 9, 35, 0
1, 256799, Note_on_c, 9, 46, 0
1, 256800, Note_on_c, 9, 38, 85
1, 256800, Note_on_c, 9, 40, 110
1, 256800, Note_on_c, 9, 56, 81
1, 256800, Note_on_c, 9, 42, 74
1, 256919, Note_on_c, 9, 38, 0
1, 256919, Note_on_c, 9, 40, 0
1, 256919, Note_on_c, 9, 56, 0
1, 256919, Note_on_c, 9, 42, 0
1, 256920, Note_on_c, 9, 42, 72
1, 257039, Note_on_c, 9, 42, 0
1, 257040, Note_on_c, 9, 46, 84
1, 257279, Note_on_c, 9, 46, 0
1, 257280, Note_on_c, 9, 56, 81
1, 257280, Note_on_c, 9, 42, 76
1, 257280, Note_on_c, 9, 35, 110
1, 257399, Note_on_c, 9, 56, 0
1, 257399, Note_on_c, 9, 42, 0
1, 257400, Note_on_c, 9, 42, 74
1, 257519, Note_on_c, 9, 42, 0
1, 257520, Note_on_c, 9, 46, 92
1, 257759, Note_on_c, 9, 35, 0
1, 257759, Note_on_c, 9, 46, 0
1, 257760, Note_on_c, 9, 38, 85
1, 257760, Note_on_c, 9, 40, 110
1, 257760, Note_on_c, 9, 56, 81
1, 257760, Note_on_c, 9, 42, 82
1, 257879, Note_on_c, 9, 38, 0
1, 257879, Note_on_c, 9, 40, 0
1, 257879, Note_on_c, 9, 56, 0
1, 257879, Note_on_c, 9, 42, 0
1, 257880, Note_on_c, 9, 42, 89
1, 257999, Note_on_c, 9, 42, 0
1, 258000, Note_on_c, 9, 46, 89
1, 258239, Note_on_c, 9, 46, 0
1, 258240, Note_on_c, 9, 56, 81
1, 258240, Note_on_c, 9, 42, 70
1, 258240, Note_on_c, 9, 35, 112
1, 258359, Note_on_c, 9, 56, 0
1, 258359, Note_on_c, 9, 42, 0
1, 258360, Note_on_c, 9, 42, 84
1, 258479, Note_on_c, 9, 42, 0
1, 258480, Note_on_c, 9, 46, 82
1, 258719, Note_on_c, 9, 35, 0
1, 258719, Note_on_c, 9, 46, 0
1, 258720, Note_on_c, 9, 38, 87
1, 258720, Note_on_c, 9, 40, 112
1, 258720, Note_on_c, 9, 56, 81
1, 258720, Note_on_c, 9, 42, 84
1, 258839, Note_on_c, 9, 38, 0
1, 258839, Note_on_c, 9, 40, 0
1, 258839, Note_on_c, 9, 56, 0
1, 258839, Note_on_c, 9, 42, 0
1, 258840, Note_on_c, 9, 42, 84
1, 258959, Note_on_c, 9, 42, 0
1, 258960, Note_on_c, 9, 46, 86
1, 259199, Note_on_c, 9, 46, 0
1, 259200, Note_on_c, 9, 56, 84
1, 259200, Note_on_c, 9, 42, 76
1, 259200, Note_on_c, 9, 35, 110
1, 259319, Note_on_c, 9, 56, 0
1, 259319, Note_on_c, 9, 42, 0
1, 259320, Note_on_c, 9, 42, 84
1, 259439, Note_on_c, 9, 42, 0
1, 259440, Note_on_c, 9, 46, 86
1, 259440, Note_on_c, 9, 56, 84
1, 259679, Note_on_c, 9, 35, 0
1, 259679, Note_on_c, 9, 46, 0
1, 259679, Note_on_c, 9, 56, 0
1, 259680, Note_on_c, 9, 38, 87
1, 259680, Note_on_c, 9, 40, 112
1, 259680, Note_on_c, 9, 56, 84
1, 259680, Note_on_c, 9, 42, 82
1, 259799, Note_on_c, 9, 38, 0
1, 259799, Note_on_c, 9, 40, 0
1, 259799, Note_on_c, 9, 56, 0
1, 259799, Note_on_c, 9, 42, 0
1, 259800, Note_on_c, 9, 42, 86
1, 259919, Note_on_c, 9, 42, 0
1, 259920, Note_on_c, 9, 46, 84
1, 260159, Note_on_c, 9, 46, 0
1, 260160, Note_on_c, 9, 56, 76
1, 260160, Note_on_c, 9, 42, 84
1, 260160, Note_on_c, 9, 35, 110
1, 260279, Note_on_c, 9, 56, 0
1, 260279, Note_on_c, 9, 42, 0
1, 260280, Note_on_c, 9, 42, 76
1, 260399, Note_on_c, 9, 42, 0
1, 260400, Note_on_c, 9, 46, 86
1, 260639, Note_on_c, 9, 35, 0
1, 260639, Note_on_c, 9, 46, 0
1, 260640, Note_on_c, 9, 38, 87
1, 260640, Note_on_c, 9, 40, 112
1, 260640, Note_on_c, 9, 56, 78
1, 260640, Note_on_c, 9, 42, 84
1, 260759, Note_on_c, 9, 38, 0
1, 260759, Note_on_c, 9, 40, 0
1, 260759, Note_on_c, 9, 56, 0
1, 260759, Note_on_c, 9, 42, 0
1, 260760, Note_on_c, 9, 42, 76
1, 260879, Note_on_c, 9, 42, 0
1, 260880, Note_on_c, 9, 46, 82
1, 261119, Note_on_c, 9, 46, 0
1, 261120, Note_on_c, 9, 56, 78
1, 261120, Note_on_c, 9, 42, 89
1, 261120, Note_on_c, 9, 35, 112
1, 261239, Note_on_c, 9, 56, 0
1, 261239, Note_on_c, 9, 42, 0
1, 261240, Note_on_c, 9, 42, 86
1, 261359, Note_on_c, 9, 42, 0
1, 261360, Note_on_c, 9, 46, 84
1, 261599, Note_on_c, 9, 35, 0
1, 261599, Note_on_c, 9, 46, 0
1, 261600, Note_on_c, 9, 38, 87
1, 261600, Note_on_c, 9, 40, 112
1, 261600, Note_on_c, 9, 56, 78
1, 261600, Note_on_c, 9, 42, 84
1, 261719, Note_on_c, 9, 38, 0
1, 261719, Note_on_c, 9, 40, 0
1, 261719, Note_on_c, 9, 56, 0
1, 261719, Note_on_c, 9, 42, 0
1, 261720, Note_on_c, 9, 42, 86
1, 261839, Note_on_c, 9, 42, 0
1, 261840, Note_on_c, 9, 46, 86
1, 262079, Note_on_c, 9, 46, 0
1, 262080, Time_signature, 2, 2, 24, 8
1, 262080, Note_on_c, 9, 56, 78
1, 262080, Note_on_c, 9, 42, 86
1, 262080, Note_on_c, 9, 35, 112
1, 262199, Note_on_c, 9, 56, 0
1, 262199, Note_on_c, 9, 42, 0
1, 262200, Note_on_c, 9, 42, 95
1, 262319, Note_on_c, 9, 42, 0
1, 262320, Note_on_c, 9, 46, 89
1, 262559, Note_on_c, 9, 35, 0
1, 262559, Note_on_c, 9, 46, 0
1, 262560, Note_on_c, 9, 38, 87
1, 262560, Note_on_c, 9, 40, 112
1, 262560, Note_on_c, 9, 56, 83
1, 262560, Note_on_c, 9, 42, 92
1, 262679, Note_on_c, 9, 38, 0
1, 262679, Note_on_c, 9, 40, 0
1, 262679, Note_on_c, 9, 56, 0
1, 262679, Note_on_c, 9, 42, 0
1, 262680, Note_on_c, 9, 42, 89
1, 262799, Note_on_c, 9, 42, 0
1, 262800, Note_on_c, 9, 46, 86
1, 263039, Note_on_c, 9, 46, 0
1, 263040, Time_signature, 4, 2, 24, 8
1, 263040, Note_on_c, 9, 46, 86
1, 263040, Note_on_c, 9, 35, 112
1, 263054, Note_on_c, 9, 46, 0
1, 263055, Note_on_c, 9, 57, 86
1, 263279, Note_on_c, 9, 57, 0
1, 263519, Note_on_c, 9, 35, 0
1, 263520, End_track
0, 0, End_of_file
