0, 0, Header, 1, 1, 480
1, 0, Start_track
1, 0, Time_signature, 4, 2, 24, 8
1, 0, Key_signature, 0, "major"
1, 0, Tempo, 247934
1, 0, Control_c, 9, 121, 0
1, 0, Program_c, 9, 0
1, 0, Control_c, 9, 7, 100
1, 0, Control_c, 9, 10, 64
1, 0, Control_c, 9, 91, 0
1, 0, Control_c, 9, 93, 0
1, 0, MIDI_port, 0
1, 4890, Note_on_c, 9, 57, 1
1, 4919, Note_on_c, 9, 57, 0
1, 4980, Note_on_c, 9, 49, 1
1, 5039, Note_on_c, 9, 49, 0
1, 5100, Note_on_c, 9, 57, 1
1, 5159, Note_on_c, 9, 57, 0
1, 5190, Note_on_c, 9, 49, 1
1, 5279, Note_on_c, 9, 49, 0
1, 5280, Note_on_c, 9, 57, 1
1, 5399, Note_on_c, 9, 57, 0
1, 5400, Note_on_c, 9, 49, 2
1, 5479, Note_on_c, 9, 49, 0
1, 5480, Note_on_c, 9, 57, 3
1, 5519, Note_on_c, 9, 57, 0
1, 5580, Note_on_c, 9, 49, 4
1, 5699, Note_on_c, 9, 49, 0
1, 5700, Note_on_c, 9, 57, 5
1, 5759, Note_on_c, 9, 57, 0
1, 5760, Note_on_c, 9, 49, 6
1, 5849, Note_on_c, 9, 49, 0
1, 5865, Note_on_c, 9, 57, 7
1, 5969, Note_on_c, 9, 57, 0
1, 5970, Note_on_c, 9, 49, 9
1, 5999, Note_on_c, 9, 49, 0
1, 6060, Note_on_c, 9, 57, 10
1, 6119, Note_on_c, 9, 57, 0
1, 6120, Note_on_c, 9, 49, 12
1, 6239, Note_on_c, 9, 49, 0
1, 6240, Note_on_c, 9, 57, 13
1, 6359, Note_on_c, 9, 57, 0
1, 6360, Note_on_c, 9, 49, 15
1, 6439, Note_on_c, 9, 49, 0
1, 6440, Note_on_c, 9, 57, 17
1, 6479, Note_on_c, 9, 57, 0
1, 6525, Note_on_c, 9, 49, 18
1, 6599, Note_on_c, 9, 49, 0
1, 6630, Note_on_c, 9, 57, 21
1, 6719, Note_on_c, 9, 57, 0
1, 6720, Note_on_c, 9, 49, 24
1, 6839, Note_on_c, 9, 49, 0
1, 6840, Note_on_c, 9, 57, 27
1, 6919, Note_on_c, 9, 57, 0
1, 6920, Note_on_c, 9, 49, 30
1, 6959, Note_on_c, 9, 49, 0
1, 7005, Note_on_c, 9, 57, 32
1, 7139, Note_on_c, 9, 57, 0
1, 7140, Note_on_c, 9, 49, 34
1, 7199, Note_on_c, 9, 49, 0
1, 7200, Note_on_c, 9, 57, 37
1, 7289, Note_on_c, 9, 57, 0
1, 7305, Note_on_c, 9, 49, 40
1, 7439, Note_on_c, 9, 49, 0
1, 7440, Note_on_c, 9, 57, 45
1, 7529, Note_on_c, 9, 57, 0
1, 7530, Note_on_c, 9, 49, 48
1, 7559, Note_on_c, 9, 49, 0
1, 7620, Note_on_c, 9, 57, 52
1, 7679, Note_on_c, 9, 57, 0
1, 7710, Note_on_c, 9, 49, 59
1, 7769, Note_on_c, 9, 49, 0
1, 7785, Note_on_c, 9, 59, 105
1, 7785, Note_on_c, 9, 57, 62
1, 7785, Note_on_c, 9, 35, 110
1, 8159, Note_on_c, 9, 59, 0
1, 8159, Note_on_c, 9, 57, 0
1, 8159, Note_on_c, 9, 35, 0
1, 8160, Note_on_c, 9, 42, 51
1, 8639, Note_on_c, 9, 42, 0
1, 8640, Note_on_c, 9, 38, 104
1, 8640, Note_on_c, 9, 42, 75
1, 9119, Note_on_c, 9, 38, 0
1, 9119, Note_on_c, 9, 42, 0
1, 9120, Note_on_c, 9, 42, 57
1, 9390, Note_on_c, 9, 35, 76
1, 9479, Note_on_c, 9, 35, 0
1, 9599, Note_on_c, 9, 42, 0
1, 9600, Note_on_c, 9, 42, 72
1, 9600, Note_on_c, 9, 35, 94
1, 10079, Note_on_c, 9, 42, 0
1, 10079, Note_on_c, 9, 35, 0
1, 10080, Note_on_c, 9, 42, 48
1, 10080, Note_on_c, 9, 35, 105
1, 10559, Note_on_c, 9, 42, 0
1, 10559, Note_on_c, 9, 35, 0
1, 10590, Note_on_c, 9, 38, 115
1, 10590, Note_on_c, 9, 42, 75
1, 11039, Note_on_c, 9, 38, 0
1, 11039, Note_on_c, 9, 42, 0
1, 11040, Note_on_c, 9, 42, 57
1, 11519, Note_on_c, 9, 42, 0
1, 11550, Note_on_c, 9, 42, 72
1, 11550, Note_on_c, 9, 35, 110
1, 11999, Note_on_c, 9, 42, 0
1, 11999, Note_on_c, 9, 35, 0
1, 12000, Note_on_c, 9, 42, 50
1, 12479, Note_on_c, 9, 42, 0
1, 12480, Note_on_c, 9, 38, 109
1, 12480, Note_on_c, 9, 42, 75
1, 12959, Note_on_c, 9, 38, 0
1, 12959, Note_on_c, 9, 42, 0
1, 12960, Note_on_c, 9, 42, 55
1, 13199, Note_on_c, 9, 42, 0
1, 13215, Note_on_c, 9, 42, 41
1, 13230, Note_on_c, 9, 35, 78
1, 13319, Note_on_c, 9, 35, 0
1, 13439, Note_on_c, 9, 42, 0
1, 13440, Note_on_c, 9, 42, 75
1, 13440, Note_on_c, 9, 35, 110
1, 13919, Note_on_c, 9, 42, 0
1, 13919, Note_on_c, 9, 35, 0
1, 13920, Note_on_c, 9, 42, 52
1, 13920, Note_on_c, 9, 35, 110
1, 14399, Note_on_c, 9, 42, 0
1, 14399, Note_on_c, 9, 35, 0
1, 14430, Note_on_c, 9, 38, 115
1, 14430, Note_on_c, 9, 42, 72
1, 14879, Note_on_c, 9, 38, 0
1, 14879, Note_on_c, 9, 42, 0
1, 14880, Note_on_c, 9, 42, 55
1, 15359, Note_on_c, 9, 42, 0
1, 15390, Note_on_c, 9, 42, 79
1, 15390, Note_on_c, 9, 35, 110
1, 15839, Note_on_c, 9, 42, 0
1, 15839, Note_on_c, 9, 35, 0
1, 15840, Note_on_c, 9, 42, 46
1, 16319, Note_on_c, 9, 42, 0
1, 16320, Note_on_c, 9, 38, 115
1, 16320, Note_on_c, 9, 42, 72
1, 16799, Note_on_c, 9, 38, 0
1, 16799, Note_on_c, 9, 42, 0
1, 16800, Note_on_c, 9, 42, 52
1, 17040, Note_on_c, 9, 35, 78
1, 17279, Note_on_c, 9, 42, 0
1, 17279, Note_on_c, 9, 35, 0
1, 17280, Note_on_c, 9, 35, 110
1, 17325, Note_on_c, 9, 42, 75
1, 17519, Note_on_c, 9, 42, 0
1, 17759, Note_on_c, 9, 35, 0
1, 17760, Note_on_c, 9, 42, 55
1, 17760, Note_on_c, 9, 35, 105
1, 18239, Note_on_c, 9, 42, 0
1, 18239, Note_on_c, 9, 35, 0
1, 18240, Note_on_c, 9, 38, 115
1, 18240, Note_on_c, 9, 42, 72
1, 18719, Note_on_c, 9, 38, 0
1, 18719, Note_on_c, 9, 42, 0
1, 18720, Note_on_c, 9, 42, 48
1, 19199, Note_on_c, 9, 42, 0
1, 19200, Note_on_c, 9, 42, 72
1, 19230, Note_on_c, 9, 35, 110
1, 19679, Note_on_c, 9, 42, 0
1, 19679, Note_on_c, 9, 35, 0
1, 19680, Note_on_c, 9, 42, 41
1, 20159, Note_on_c, 9, 42, 0
1, 20190, Note_on_c, 9, 38, 109
1, 20190, Note_on_c, 9, 42, 75
1, 20639, Note_on_c, 9, 38, 0
1, 20639, Note_on_c, 9, 42, 0
1, 20640, Note_on_c, 9, 42, 55
1, 20879, Note_on_c, 9, 42, 0
1, 20895, Note_on_c, 9, 35, 70
1, 20910, Note_on_c, 9, 42, 39
1, 20999, Note_on_c, 9, 42, 0
1, 21119, Note_on_c, 9, 35, 0
1, 21120, Note_on_c, 9, 42, 75
1, 21150, Note_on_c, 9, 35, 105
1, 21599, Note_on_c, 9, 42, 0
1, 21599, Note_on_c, 9, 35, 0
1, 21600, Note_on_c, 9, 42, 48
1, 21600, Note_on_c, 9, 35, 94
1, 22079, Note_on_c, 9, 42, 0
1, 22079, Note_on_c, 9, 35, 0
1, 22110, Note_on_c, 9, 38, 115
1, 22110, Note_on_c, 9, 42, 75
1, 22559, Note_on_c, 9, 38, 0
1, 22559, Note_on_c, 9, 42, 0
1, 22560, Note_on_c, 9, 42, 50
1, 23039, Note_on_c, 9, 42, 0
1, 23100, Note_on_c, 9, 42, 72
1, 23100, Note_on_c, 9, 35, 105
1, 23279, Note_on_c, 9, 42, 0
1, 23279, Note_on_c, 9, 35, 0
1, 23580, Note_on_c, 9, 42, 50
1, 23759, Note_on_c, 9, 42, 0
1, 24060, Note_on_c, 9, 38, 109
1, 24060, Note_on_c, 9, 42, 75
1, 24239, Note_on_c, 9, 38, 0
1, 24239, Note_on_c, 9, 42, 0
1, 24480, Note_on_c, 9, 42, 51
1, 24750, Note_on_c, 9, 35, 70
1, 24839, Note_on_c, 9, 35, 0
1, 24959, Note_on_c, 9, 42, 0
1, 24990, Note_on_c, 9, 42, 72
1, 24990, Note_on_c, 9, 35, 87
1, 25439, Note_on_c, 9, 42, 0
1, 25439, Note_on_c, 9, 35, 0
1, 25440, Note_on_c, 9, 42, 48
1, 25440, Note_on_c, 9, 35, 110
1, 25919, Note_on_c, 9, 42, 0
1, 25919, Note_on_c, 9, 35, 0
1, 25965, Note_on_c, 9, 38, 109
1, 25965, Note_on_c, 9, 42, 75
1, 26159, Note_on_c, 9, 38, 0
1, 26159, Note_on_c, 9, 42, 0
1, 26400, Note_on_c, 9, 42, 50
1, 26879, Note_on_c, 9, 42, 0
1, 26880, Note_on_c, 9, 42, 75
1, 26940, Note_on_c, 9, 35, 110
1, 27119, Note_on_c, 9, 35, 0
1, 27359, Note_on_c, 9, 42, 0
1, 27420, Note_on_c, 9, 42, 45
1, 27599, Note_on_c, 9, 42, 0
1, 27870, Note_on_c, 9, 38, 115
1, 27870, Note_on_c, 9, 42, 75
1, 28319, Note_on_c, 9, 38, 0
1, 28319, Note_on_c, 9, 42, 0
1, 28320, Note_on_c, 9, 42, 58
1, 28559, Note_on_c, 9, 42, 0
1, 28590, Note_on_c, 9, 42, 35
1, 28590, Note_on_c, 9, 35, 69
1, 28679, Note_on_c, 9, 42, 0
1, 28679, Note_on_c, 9, 35, 0
1, 28800, Note_on_c, 9, 42, 75
1, 28800, Note_on_c, 9, 35, 105
1, 28889, Note_on_c, 9, 42, 0
1, 28890, Note_on_c, 9, 57, 2
1, 28919, Note_on_c, 9, 57, 0
1, 28980, Note_on_c, 9, 49, 3
1, 29039, Note_on_c, 9, 49, 0
1, 29100, Note_on_c, 9, 57, 5
1, 29159, Note_on_c, 9, 57, 0
1, 29160, Note_on_c, 9, 49, 6
1, 29279, Note_on_c, 9, 35, 0
1, 29279, Note_on_c, 9, 49, 0
1, 29280, Note_on_c, 9, 57, 9
1, 29309, Note_on_c, 9, 57, 0
1, 29310, Note_on_c, 9, 42, 57
1, 29340, Note_on_c, 9, 35, 110
1, 29399, Note_on_c, 9, 42, 0
1, 29400, Note_on_c, 9, 49, 11
1, 29489, Note_on_c, 9, 49, 0
1, 29490, Note_on_c, 9, 57, 14
1, 29519, Note_on_c, 9, 35, 0
1, 29519, Note_on_c, 9, 57, 0
1, 29580, Note_on_c, 9, 49, 15
1, 29699, Note_on_c, 9, 49, 0
1, 29700, Note_on_c, 9, 57, 18
1, 29759, Note_on_c, 9, 57, 0
1, 29780, Note_on_c, 9, 49, 20
1, 29839, Note_on_c, 9, 49, 0
1, 29840, Note_on_c, 9, 38, 115
1, 29840, Note_on_c, 9, 42, 75
1, 29879, Note_on_c, 9, 38, 0
1, 29879, Note_on_c, 9, 42, 0
1, 29880, Note_on_c, 9, 57, 23
1, 29969, Note_on_c, 9, 57, 0
1, 29970, Note_on_c, 9, 49, 26
1, 29999, Note_on_c, 9, 49, 0
1, 30060, Note_on_c, 9, 57, 31
1, 30179, Note_on_c, 9, 57, 0
1, 30180, Note_on_c, 9, 49, 33
1, 30239, Note_on_c, 9, 49, 0
1, 30240, Note_on_c, 9, 57, 35
1, 30299, Note_on_c, 9, 57, 0
1, 30300, Note_on_c, 9, 42, 46
1, 30359, Note_on_c, 9, 42, 0
1, 30360, Note_on_c, 9, 49, 40
1, 30479, Note_on_c, 9, 49, 0
1, 30500, Note_on_c, 9, 57, 44
1, 30559, Note_on_c, 9, 57, 0
1, 30560, Note_on_c, 9, 49, 48
1, 30599, Note_on_c, 9, 49, 0
1, 30660, Note_on_c, 9, 57, 53
1, 30719, Note_on_c, 9, 57, 0
1, 30720, Note_on_c, 9, 49, 58
1, 30810, Note_on_c, 9, 35, 110
1, 30839, Note_on_c, 9, 49, 0
1, 30840, Note_on_c, 9, 59, 105
1, 30840, Note_on_c, 9, 57, 61
1, 31199, Note_on_c, 9, 35, 0
1, 31199, Note_on_c, 9, 59, 0
1, 31199, Note_on_c, 9, 57, 0
1, 31260, Note_on_c, 9, 42, 55
1, 31439, Note_on_c, 9, 42, 0
1, 31680, Note_on_c, 9, 38, 109
1, 31680, Note_on_c, 9, 42, 75
1, 32159, Note_on_c, 9, 38, 0
1, 32159, Note_on_c, 9, 42, 0
1, 32160, Note_on_c, 9, 42, 51
1, 32430, Note_on_c, 9, 35, 81
1, 32519, Note_on_c, 9, 35, 0
1, 32639, Note_on_c, 9, 42, 0
1, 32640, Note_on_c, 9, 42, 72
1, 32670, Note_on_c, 9, 35, 110
1, 33119, Note_on_c, 9, 42, 0
1, 33119, Note_on_c, 9, 35, 0
1, 33120, Note_on_c, 9, 42, 55
1, 33120, Note_on_c, 9, 35, 105
1, 33599, Note_on_c, 9, 42, 0
1, 33599, Note_on_c, 9, 35, 0
1, 33630, Note_on_c, 9, 38, 109
1, 33630, Note_on_c, 9, 42, 75
1, 34079, Note_on_c, 9, 38, 0
1, 34079, Note_on_c, 9, 42, 0
1, 34080, Note_on_c, 9, 42, 50
1, 34559, Note_on_c, 9, 42, 0
1, 34605, Note_on_c, 9, 42, 72
1, 34620, Note_on_c, 9, 35, 110
1, 34799, Note_on_c, 9, 42, 0
1, 34799, Note_on_c, 9, 35, 0
1, 35100, Note_on_c, 9, 42, 51
1, 35279, Note_on_c, 9, 42, 0
1, 35580, Note_on_c, 9, 38, 115
1, 35580, Note_on_c, 9, 42, 75
1, 35984, Note_on_c, 9, 38, 0
1, 35984, Note_on_c, 9, 42, 0
1, 35985, Note_on_c, 9, 42, 55
1, 36239, Note_on_c, 9, 42, 0
1, 36270, Note_on_c, 9, 42, 44
1, 36300, Note_on_c, 9, 35, 78
1, 36359, Note_on_c, 9, 42, 0
1, 36479, Note_on_c, 9, 35, 0
1, 36540, Note_on_c, 9, 42, 62
1, 36540, Note_on_c, 9, 35, 105
1, 36719, Note_on_c, 9, 42, 0
1, 36719, Note_on_c, 9, 35, 0
1, 36960, Note_on_c, 9, 42, 57
1, 36960, Note_on_c, 9, 35, 105
1, 37439, Note_on_c, 9, 42, 0
1, 37439, Note_on_c, 9, 35, 0
1, 37440, Note_on_c, 9, 38, 109
1, 37440, Note_on_c, 9, 42, 79
1, 37919, Note_on_c, 9, 38, 0
1, 37919, Note_on_c, 9, 42, 0
1, 37920, Note_on_c, 9, 42, 51
1, 38399, Note_on_c, 9, 42, 0
1, 38460, Note_on_c, 9, 42, 75
1, 38460, Note_on_c, 9, 35, 105
1, 38639, Note_on_c, 9, 42, 0
1, 38639, Note_on_c, 9, 35, 0
1, 38940, Note_on_c, 9, 42, 50
1, 39119, Note_on_c, 9, 42, 0
1, 39420, Note_on_c, 9, 38, 109
1, 39420, Note_on_c, 9, 42, 75
1, 39599, Note_on_c, 9, 38, 0
1, 39599, Note_on_c, 9, 42, 0
1, 39840, Note_on_c, 9, 42, 52
1, 40080, Note_on_c, 9, 35, 76
1, 40319, Note_on_c, 9, 42, 0
1, 40319, Note_on_c, 9, 35, 0
1, 40320, Note_on_c, 9, 42, 75
1, 40320, Note_on_c, 9, 35, 100
1, 40799, Note_on_c, 9, 42, 0
1, 40799, Note_on_c, 9, 35, 0
1, 40800, Note_on_c, 9, 42, 52
1, 40800, Note_on_c, 9, 35, 110
1, 41279, Note_on_c, 9, 42, 0
1, 41279, Note_on_c, 9, 35, 0
1, 41280, Note_on_c, 9, 38, 115
1, 41280, Note_on_c, 9, 42, 72
1, 41759, Note_on_c, 9, 38, 0
1, 41759, Note_on_c, 9, 42, 0
1, 41760, Note_on_c, 9, 42, 45
1, 42239, Note_on_c, 9, 42, 0
1, 42240, Note_on_c, 9, 35, 110
1, 42270, Note_on_c, 9, 42, 72
1, 42719, Note_on_c, 9, 35, 0
1, 42719, Note_on_c, 9, 42, 0
1, 42720, Note_on_c, 9, 42, 57
1, 43199, Note_on_c, 9, 42, 0
1, 43200, Note_on_c, 9, 38, 109
1, 43200, Note_on_c, 9, 42, 75
1, 43679, Note_on_c, 9, 38, 0
1, 43679, Note_on_c, 9, 42, 0
1, 43680, Note_on_c, 9, 42, 58
1, 43919, Note_on_c, 9, 42, 0
1, 43920, Note_on_c, 9, 42, 40
1, 43950, Note_on_c, 9, 35, 74
1, 44039, Note_on_c, 9, 35, 0
1, 44159, Note_on_c, 9, 42, 0
1, 44190, Note_on_c, 9, 35, 91
1, 44205, Note_on_c, 9, 42, 72
1, 44399, Note_on_c, 9, 42, 0
1, 44639, Note_on_c, 9, 35, 0
1, 44640, Note_on_c, 9, 42, 50
1, 44640, Note_on_c, 9, 35, 110
1, 45119, Note_on_c, 9, 42, 0
1, 45119, Note_on_c, 9, 35, 0
1, 45120, Note_on_c, 9, 38, 115
1, 45120, Note_on_c, 9, 42, 75
1, 45599, Note_on_c, 9, 38, 0
1, 45599, Note_on_c, 9, 42, 0
1, 45600, Note_on_c, 9, 42, 52
1, 46079, Note_on_c, 9, 42, 0
1, 46140, Note_on_c, 9, 57, 69
1, 46140, Note_on_c, 9, 35, 110
1, 46319, Note_on_c, 9, 57, 0
1, 46319, Note_on_c, 9, 35, 0
1, 46620, Note_on_c, 9, 42, 57
1, 46799, Note_on_c, 9, 42, 0
1, 47100, Note_on_c, 9, 38, 109
1, 47100, Note_on_c, 9, 42, 72
1, 47279, Note_on_c, 9, 38, 0
1, 47279, Note_on_c, 9, 42, 0
1, 47550, Note_on_c, 9, 35, 87
1, 47580, Note_on_c, 9, 42, 57
1, 47759, Note_on_c, 9, 42, 0
1, 47999, Note_on_c, 9, 35, 0
1, 48060, Note_on_c, 9, 42, 72
1, 48060, Note_on_c, 9, 35, 110
1, 48239, Note_on_c, 9, 42, 0
1, 48239, Note_on_c, 9, 35, 0
1, 48480, Note_on_c, 9, 42, 58
1, 48959, Note_on_c, 9, 42, 0
1, 48960, Note_on_c, 9, 38, 109
1, 48960, Note_on_c, 9, 42, 72
1, 49439, Note_on_c, 9, 38, 0
1, 49439, Note_on_c, 9, 42, 0
1, 49500, Note_on_c, 9, 42, 46
1, 49679, Note_on_c, 9, 42, 0
1, 49980, Note_on_c, 9, 42, 72
1, 50010, Note_on_c, 9, 35, 116
1, 50159, Note_on_c, 9, 42, 0
1, 50399, Note_on_c, 9, 35, 0
1, 50400, Note_on_c, 9, 42, 57
1, 50879, Note_on_c, 9, 42, 0
1, 50880, Note_on_c, 9, 38, 104
1, 50880, Note_on_c, 9, 42, 72
1, 51359, Note_on_c, 9, 38, 0
1, 51359, Note_on_c, 9, 42, 0
1, 51360, Note_on_c, 9, 42, 52
1, 51360, Note_on_c, 9, 35, 87
1, 51839, Note_on_c, 9, 42, 0
1, 51839, Note_on_c, 9, 35, 0
1, 51870, Note_on_c, 9, 42, 75
1, 51870, Note_on_c, 9, 35, 116
1, 52319, Note_on_c, 9, 42, 0
1, 52319, Note_on_c, 9, 35, 0
1, 52320, Note_on_c, 9, 42, 62
1, 52799, Note_on_c, 9, 42, 0
1, 52830, Note_on_c, 9, 38, 104
1, 52830, Note_on_c, 9, 42, 72
1, 53279, Note_on_c, 9, 38, 0
1, 53279, Note_on_c, 9, 42, 0
1, 53295, Note_on_c, 9, 42, 57
1, 53519, Note_on_c, 9, 42, 0
1, 53820, Note_on_c, 9, 42, 72
1, 53820, Note_on_c, 9, 35, 110
1, 53999, Note_on_c, 9, 42, 0
1, 53999, Note_on_c, 9, 35, 0
1, 54300, Note_on_c, 9, 42, 57
1, 54479, Note_on_c, 9, 42, 0
1, 54795, Note_on_c, 9, 38, 109
1, 54795, Note_on_c, 9, 42, 75
1, 55199, Note_on_c, 9, 38, 0
1, 55199, Note_on_c, 9, 42, 0
1, 55200, Note_on_c, 9, 42, 55
1, 55200, Note_on_c, 9, 35, 87
1, 55679, Note_on_c, 9, 42, 0
1, 55679, Note_on_c, 9, 35, 0
1, 55680, Note_on_c, 9, 42, 72
1, 55710, Note_on_c, 9, 35, 110
1, 56159, Note_on_c, 9, 42, 0
1, 56159, Note_on_c, 9, 35, 0
1, 56160, Note_on_c, 9, 42, 51
1, 56639, Note_on_c, 9, 42, 0
1, 56640, Note_on_c, 9, 38, 115
1, 56640, Note_on_c, 9, 42, 75
1, 57119, Note_on_c, 9, 38, 0
1, 57119, Note_on_c, 9, 42, 0
1, 57120, Note_on_c, 9, 42, 52
1, 57599, Note_on_c, 9, 42, 0
1, 57600, Note_on_c, 9, 42, 72
1, 57600, Note_on_c, 9, 35, 110
1, 58079, Note_on_c, 9, 42, 0
1, 58079, Note_on_c, 9, 35, 0
1, 58080, Note_on_c, 9, 42, 58
1, 58559, Note_on_c, 9, 42, 0
1, 58560, Note_on_c, 9, 38, 115
1, 58560, Note_on_c, 9, 42, 88
1, 59039, Note_on_c, 9, 38, 0
1, 59039, Note_on_c, 9, 42, 0
1, 59040, Note_on_c, 9, 42, 41
1, 59040, Note_on_c, 9, 35, 81
1, 59519, Note_on_c, 9, 42, 0
1, 59519, Note_on_c, 9, 35, 0
1, 59550, Note_on_c, 9, 46, 79
1, 59550, Note_on_c, 9, 35, 110
1, 59999, Note_on_c, 9, 46, 0
1, 59999, Note_on_c, 9, 35, 0
1, 60060, Note_on_c, 9, 42, 48
1, 60239, Note_on_c, 9, 42, 0
1, 60270, Note_on_c, 9, 35, 110
1, 60300, Note_on_c, 9, 42, 66
1, 60359, Note_on_c, 9, 35, 0
1, 60479, Note_on_c, 9, 42, 0
1, 60495, Note_on_c, 9, 45, 84
1, 60539, Note_on_c, 9, 45, 0
1, 60540, Note_on_c, 9, 46, 75
1, 60599, Note_on_c, 9, 46, 0
1, 60600, Note_on_c, 9, 57, 17
1, 60659, Note_on_c, 9, 57, 0
1, 60660, Note_on_c, 9, 49, 22
1, 60719, Note_on_c, 9, 49, 0
1, 60780, Note_on_c, 9, 57, 24
1, 60899, Note_on_c, 9, 57, 0
1, 60900, Note_on_c, 9, 49, 27
1, 60959, Note_on_c, 9, 49, 0
1, 60960, Note_on_c, 9, 57, 29
1, 61079, Note_on_c, 9, 57, 0
1, 61080, Note_on_c, 9, 49, 34
1, 61169, Note_on_c, 9, 49, 0
1, 61170, Note_on_c, 9, 57, 40
1, 61199, Note_on_c, 9, 57, 0
1, 61260, Note_on_c, 9, 49, 44
1, 61319, Note_on_c, 9, 49, 0
1, 61350, Note_on_c, 9, 57, 51
1, 61439, Note_on_c, 9, 57, 0
1, 61440, Note_on_c, 9, 49, 55
1, 61529, Note_on_c, 9, 49, 0
1, 61530, Note_on_c, 9, 42, 75
1, 61530, Note_on_c, 9, 57, 62
1, 61530, Note_on_c, 9, 35, 116
1, 61919, Note_on_c, 9, 42, 0
1, 61919, Note_on_c, 9, 57, 0
1, 61919, Note_on_c, 9, 35, 0
1, 61980, Note_on_c, 9, 42, 48
1, 62159, Note_on_c, 9, 42, 0
1, 62400, Note_on_c, 9, 38, 115
1, 62400, Note_on_c, 9, 42, 88
1, 62879, Note_on_c, 9, 38, 0
1, 62879, Note_on_c, 9, 42, 0
1, 62880, Note_on_c, 9, 42, 50
1, 63135, Note_on_c, 9, 35, 78
1, 63359, Note_on_c, 9, 42, 0
1, 63359, Note_on_c, 9, 35, 0
1, 63360, Note_on_c, 9, 42, 79
1, 63405, Note_on_c, 9, 35, 105
1, 63599, Note_on_c, 9, 35, 0
1, 63839, Note_on_c, 9, 42, 0
1, 63840, Note_on_c, 9, 42, 57
1, 63840, Note_on_c, 9, 35, 105
1, 64319, Note_on_c, 9, 42, 0
1, 64319, Note_on_c, 9, 35, 0
1, 64320, Note_on_c, 9, 38, 109
1, 64320, Note_on_c, 9, 42, 79
1, 64799, Note_on_c, 9, 38, 0
1, 64799, Note_on_c, 9, 42, 0
1, 64815, Note_on_c, 9, 42, 58
1, 65039, Note_on_c, 9, 42, 0
1, 65280, Note_on_c, 9, 35, 110
1, 65310, Note_on_c, 9, 42, 75
1, 65759, Note_on_c, 9, 35, 0
1, 65759, Note_on_c, 9, 42, 0
1, 65760, Note_on_c, 9, 42, 52
1, 66239, Note_on_c, 9, 42, 0
1, 66270, Note_on_c, 9, 38, 115
1, 66270, Note_on_c, 9, 42, 75
1, 66719, Note_on_c, 9, 38, 0
1, 66719, Note_on_c, 9, 42, 0
1, 66720, Note_on_c, 9, 42, 57
1, 66959, Note_on_c, 9, 42, 0
1, 66960, Note_on_c, 9, 42, 47
1, 66960, Note_on_c, 9, 35, 81
1, 67199, Note_on_c, 9, 42, 0
1, 67199, Note_on_c, 9, 35, 0
1, 67200, Note_on_c, 9, 42, 79
1, 67200, Note_on_c, 9, 35, 105
1, 67679, Note_on_c, 9, 42, 0
1, 67679, Note_on_c, 9, 35, 0
1, 67680, Note_on_c, 9, 35, 110
1, 67710, Note_on_c, 9, 42, 57
1, 68159, Note_on_c, 9, 35, 0
1, 68159, Note_on_c, 9, 42, 0
1, 68190, Note_on_c, 9, 38, 115
1, 68190, Note_on_c, 9, 42, 75
1, 68639, Note_on_c, 9, 38, 0
1, 68639, Note_on_c, 9, 42, 0
1, 68640, Note_on_c, 9, 42, 52
1, 69119, Note_on_c, 9, 42, 0
1, 69150, Note_on_c, 9, 42, 75
1, 69180, Note_on_c, 9, 35, 110
1, 69359, Note_on_c, 9, 35, 0
1, 69599, Note_on_c, 9, 42, 0
1, 69600, Note_on_c, 9, 42, 50
1, 70079, Note_on_c, 9, 42, 0
1, 70110, Note_on_c, 9, 38, 115
1, 70110, Note_on_c, 9, 42, 75
1, 70559, Note_on_c, 9, 38, 0
1, 70559, Note_on_c, 9, 42, 0
1, 70560, Note_on_c, 9, 42, 48
1, 70800, Note_on_c, 9, 35, 76
1, 71039, Note_on_c, 9, 42, 0
1, 71039, Note_on_c, 9, 35, 0
1, 71070, Note_on_c, 9, 42, 72
1, 71070, Note_on_c, 9, 35, 110
1, 71519, Note_on_c, 9, 42, 0
1, 71519, Note_on_c, 9, 35, 0
1, 71520, Note_on_c, 9, 42, 55
1, 71520, Note_on_c, 9, 35, 110
1, 71999, Note_on_c, 9, 42, 0
1, 71999, Note_on_c, 9, 35, 0
1, 72000, Note_on_c, 9, 38, 104
1, 72000, Note_on_c, 9, 42, 72
1, 72479, Note_on_c, 9, 38, 0
1, 72479, Note_on_c, 9, 42, 0
1, 72480, Note_on_c, 9, 42, 48
1, 72959, Note_on_c, 9, 42, 0
1, 72990, Note_on_c, 9, 42, 72
1, 72990, Note_on_c, 9, 35, 110
1, 73439, Note_on_c, 9, 42, 0
1, 73439, Note_on_c, 9, 35, 0
1, 73440, Note_on_c, 9, 42, 46
1, 73919, Note_on_c, 9, 42, 0
1, 73950, Note_on_c, 9, 38, 104
1, 73950, Note_on_c, 9, 42, 75
1, 74399, Note_on_c, 9, 38, 0
1, 74399, Note_on_c, 9, 42, 0
1, 74415, Note_on_c, 9, 42, 55
1, 74639, Note_on_c, 9, 42, 0
1, 74700, Note_on_c, 9, 35, 84
1, 74879, Note_on_c, 9, 35, 0
1, 74940, Note_on_c, 9, 42, 75
1, 74940, Note_on_c, 9, 35, 108
1, 74999, Note_on_c, 9, 42, 0
1, 75000, Note_on_c, 9, 57, 2
1, 75089, Note_on_c, 9, 57, 0
1, 75090, Note_on_c, 9, 49, 3
1, 75119, Note_on_c, 9, 35, 0
1, 75119, Note_on_c, 9, 49, 0
1, 75180, Note_on_c, 9, 57, 5
1, 75239, Note_on_c, 9, 57, 0
1, 75270, Note_on_c, 9, 49, 6
1, 75359, Note_on_c, 9, 49, 0
1, 75360, Note_on_c, 9, 57, 9
1, 75390, Note_on_c, 9, 35, 109
1, 75399, Note_on_c, 9, 57, 0
1, 75400, Note_on_c, 9, 42, 46
1, 75479, Note_on_c, 9, 42, 0
1, 75480, Note_on_c, 9, 49, 11
1, 75559, Note_on_c, 9, 49, 0
1, 75560, Note_on_c, 9, 57, 14
1, 75599, Note_on_c, 9, 57, 0
1, 75645, Note_on_c, 9, 49, 15
1, 75719, Note_on_c, 9, 49, 0
1, 75750, Note_on_c, 9, 57, 18
1, 75839, Note_on_c, 9, 35, 0
1, 75839, Note_on_c, 9, 57, 0
1, 75840, Note_on_c, 9, 49, 20
1, 75899, Note_on_c, 9, 49, 0
1, 75900, Note_on_c, 9, 38, 115
1, 75900, Note_on_c, 9, 42, 75
1, 75959, Note_on_c, 9, 38, 0
1, 75959, Note_on_c, 9, 42, 0
1, 75960, Note_on_c, 9, 57, 23
1, 76039, Note_on_c, 9, 57, 0
1, 76040, Note_on_c, 9, 49, 26
1, 76079, Note_on_c, 9, 49, 0
1, 76125, Note_on_c, 9, 57, 31
1, 76259, Note_on_c, 9, 57, 0
1, 76260, Note_on_c, 9, 49, 33
1, 76319, Note_on_c, 9, 49, 0
1, 76320, Note_on_c, 9, 57, 35
1, 76399, Note_on_c, 9, 57, 0
1, 76400, Note_on_c, 9, 46, 62
1, 76439, Note_on_c, 9, 46, 0
1, 76440, Note_on_c, 9, 49, 40
1, 76529, Note_on_c, 9, 49, 0
1, 76545, Note_on_c, 9, 57, 44
1, 76649, Note_on_c, 9, 57, 0
1, 76650, Note_on_c, 9, 49, 48
1, 76679, Note_on_c, 9, 49, 0
1, 76740, Note_on_c, 9, 57, 53
1, 76799, Note_on_c, 9, 57, 0
1, 76830, Note_on_c, 9, 49, 58
1, 76919, Note_on_c, 9, 49, 0
1, 76920, Note_on_c, 9, 42, 79
1, 76920, Note_on_c, 9, 57, 61
1, 76920, Note_on_c, 9, 35, 100
1, 77279, Note_on_c, 9, 42, 0
1, 77279, Note_on_c, 9, 57, 0
1, 77279, Note_on_c, 9, 35, 0
1, 77340, Note_on_c, 9, 42, 55
1, 77519, Note_on_c, 9, 42, 0
1, 77760, Note_on_c, 9, 38, 104
1, 77760, Note_on_c, 9, 42, 72
1, 78239, Note_on_c, 9, 38, 0
1, 78239, Note_on_c, 9, 42, 0
1, 78240, Note_on_c, 9, 42, 57
1, 78495, Note_on_c, 9, 35, 72
1, 78719, Note_on_c, 9, 42, 0
1, 78719, Note_on_c, 9, 35, 0
1, 78750, Note_on_c, 9, 42, 75
1, 78750, Note_on_c, 9, 35, 105
1, 79199, Note_on_c, 9, 42, 0
1, 79199, Note_on_c, 9, 35, 0
1, 79200, Note_on_c, 9, 42, 55
1, 79200, Note_on_c, 9, 35, 105
1, 79679, Note_on_c, 9, 42, 0
1, 79679, Note_on_c, 9, 35, 0
1, 79680, Note_on_c, 9, 38, 109
1, 79680, Note_on_c, 9, 42, 75
1, 80159, Note_on_c, 9, 38, 0
1, 80159, Note_on_c, 9, 42, 0
1, 80160, Note_on_c, 9, 42, 52
1, 80639, Note_on_c, 9, 42, 0
1, 80640, Note_on_c, 9, 42, 75
1, 80640, Note_on_c, 9, 35, 105
1, 81119, Note_on_c, 9, 42, 0
1, 81119, Note_on_c, 9, 35, 0
1, 81120, Note_on_c, 9, 42, 51
1, 81599, Note_on_c, 9, 42, 0
1, 81600, Note_on_c, 9, 38, 93
1, 81600, Note_on_c, 9, 42, 75
1, 82079, Note_on_c, 9, 38, 0
1, 82079, Note_on_c, 9, 42, 0
1, 82080, Note_on_c, 9, 42, 42
1, 82350, Note_on_c, 9, 35, 74
1, 82439, Note_on_c, 9, 35, 0
1, 82559, Note_on_c, 9, 42, 0
1, 82560, Note_on_c, 9, 42, 79
1, 82560, Note_on_c, 9, 35, 105
1, 83039, Note_on_c, 9, 42, 0
1, 83039, Note_on_c, 9, 35, 0
1, 83040, Note_on_c, 9, 46, 66
1, 83040, Note_on_c, 9, 35, 105
1, 83519, Note_on_c, 9, 46, 0
1, 83519, Note_on_c, 9, 35, 0
1, 83520, Note_on_c, 9, 38, 109
1, 83520, Note_on_c, 9, 42, 75
1, 83999, Note_on_c, 9, 38, 0
1, 83999, Note_on_c, 9, 42, 0
1, 84000, Note_on_c, 9, 38, 18
1, 84033, Note_on_c, 9, 38, 0
1, 84069, Note_on_c, 9, 38, 18
1, 84102, Note_on_c, 9, 38, 0
1, 84137, Note_on_c, 9, 38, 21
1, 84170, Note_on_c, 9, 38, 0
1, 84206, Note_on_c, 9, 38, 23
1, 84239, Note_on_c, 9, 38, 0
1, 84274, Note_on_c, 9, 38, 28
1, 84342, Note_on_c, 9, 38, 0
1, 84343, Note_on_c, 9, 38, 32
1, 84376, Note_on_c, 9, 38, 0
1, 84411, Note_on_c, 9, 38, 36
1, 84479, Note_on_c, 9, 38, 0
1, 84480, Note_on_c, 9, 38, 39
1, 84539, Note_on_c, 9, 38, 0
1, 84540, Note_on_c, 9, 59, 105
1, 84540, Note_on_c, 9, 35, 105
1, 84719, Note_on_c, 9, 59, 0
1, 84719, Note_on_c, 9, 35, 0
1, 84960, Note_on_c, 9, 42, 62
1, 85439, Note_on_c, 9, 42, 0
1, 85440, Note_on_c, 9, 38, 93
1, 85440, Note_on_c, 9, 42, 72
1, 85919, Note_on_c, 9, 38, 0
1, 85919, Note_on_c, 9, 42, 0
1, 85920, Note_on_c, 9, 42, 57
1, 86160, Note_on_c, 9, 35, 81
1, 86399, Note_on_c, 9, 42, 0
1, 86399, Note_on_c, 9, 35, 0
1, 86400, Note_on_c, 9, 35, 105
1, 86430, Note_on_c, 9, 42, 72
1, 86879, Note_on_c, 9, 35, 0
1, 86879, Note_on_c, 9, 42, 0
1, 86880, Note_on_c, 9, 42, 58
1, 86880, Note_on_c, 9, 35, 100
1, 87359, Note_on_c, 9, 42, 0
1, 87359, Note_on_c, 9, 35, 0
1, 87375, Note_on_c, 9, 38, 104
1, 87375, Note_on_c, 9, 42, 72
1, 87599, Note_on_c, 9, 38, 0
1, 87599, Note_on_c, 9, 42, 0
1, 87930, Note_on_c, 9, 42, 52
1, 88319, Note_on_c, 9, 42, 0
1, 88380, Note_on_c, 9, 42, 66
1, 88380, Note_on_c, 9, 35, 100
1, 88559, Note_on_c, 9, 42, 0
1, 88559, Note_on_c, 9, 35, 0
1, 88800, Note_on_c, 9, 42, 51
1, 89279, Note_on_c, 9, 42, 0
1, 89280, Note_on_c, 9, 38, 104
1, 89280, Note_on_c, 9, 42, 75
1, 89759, Note_on_c, 9, 38, 0
1, 89759, Note_on_c, 9, 42, 0
1, 89760, Note_on_c, 9, 42, 52
1, 90000, Note_on_c, 9, 35, 63
1, 90239, Note_on_c, 9, 42, 0
1, 90239, Note_on_c, 9, 35, 0
1, 90270, Note_on_c, 9, 42, 75
1, 90270, Note_on_c, 9, 35, 94
1, 90719, Note_on_c, 9, 42, 0
1, 90719, Note_on_c, 9, 35, 0
1, 90780, Note_on_c, 9, 46, 71
1, 90780, Note_on_c, 9, 35, 100
1, 90959, Note_on_c, 9, 46, 0
1, 90959, Note_on_c, 9, 35, 0
1, 91200, Note_on_c, 9, 38, 99
1, 91200, Note_on_c, 9, 42, 88
1, 91679, Note_on_c, 9, 38, 0
1, 91679, Note_on_c, 9, 42, 0
1, 91740, Note_on_c, 9, 42, 57
1, 91919, Note_on_c, 9, 42, 0
1, 92250, Note_on_c, 9, 42, 72
1, 92250, Note_on_c, 9, 35, 105
1, 92639, Note_on_c, 9, 42, 0
1, 92639, Note_on_c, 9, 35, 0
1, 92640, Note_on_c, 9, 42, 57
1, 93119, Note_on_c, 9, 42, 0
1, 93165, Note_on_c, 9, 38, 109
1, 93165, Note_on_c, 9, 42, 75
1, 93359, Note_on_c, 9, 38, 0
1, 93359, Note_on_c, 9, 42, 0
1, 93600, Note_on_c, 9, 42, 45
1, 93840, Note_on_c, 9, 35, 69
1, 94079, Note_on_c, 9, 42, 0
1, 94079, Note_on_c, 9, 35, 0
1, 94080, Note_on_c, 9, 42, 75
1, 94110, Note_on_c, 9, 35, 100
1, 94559, Note_on_c, 9, 42, 0
1, 94559, Note_on_c, 9, 35, 0
1, 94560, Note_on_c, 9, 42, 57
1, 94560, Note_on_c, 9, 35, 94
1, 95039, Note_on_c, 9, 42, 0
1, 95039, Note_on_c, 9, 35, 0
1, 95040, Note_on_c, 9, 38, 109
1, 95040, Note_on_c, 9, 42, 75
1, 95519, Note_on_c, 9, 38, 0
1, 95519, Note_on_c, 9, 42, 0
1, 95520, Note_on_c, 9, 42, 34
1, 95999, Note_on_c, 9, 42, 0
1, 96000, Note_on_c, 9, 42, 79
1, 96000, Note_on_c, 9, 35, 100
1, 96479, Note_on_c, 9, 42, 0
1, 96479, Note_on_c, 9, 35, 0
1, 96480, Note_on_c, 9, 42, 48
1, 96959, Note_on_c, 9, 42, 0
1, 96990, Note_on_c, 9, 38, 109
1, 96990, Note_on_c, 9, 42, 79
1, 97439, Note_on_c, 9, 38, 0
1, 97439, Note_on_c, 9, 42, 0
1, 97440, Note_on_c, 9, 42, 52
1, 97679, Note_on_c, 9, 42, 0
1, 97680, Note_on_c, 9, 42, 52
1, 97710, Note_on_c, 9, 35, 56
1, 97799, Note_on_c, 9, 35, 0
1, 97919, Note_on_c, 9, 42, 0
1, 97920, Note_on_c, 9, 35, 105
1, 97950, Note_on_c, 9, 42, 75
1, 98009, Note_on_c, 9, 42, 0
1, 98025, Note_on_c, 9, 57, 2
1, 98129, Note_on_c, 9, 57, 0
1, 98130, Note_on_c, 9, 49, 3
1, 98159, Note_on_c, 9, 49, 0
1, 98220, Note_on_c, 9, 57, 5
1, 98279, Note_on_c, 9, 57, 0
1, 98280, Note_on_c, 9, 49, 6
1, 98399, Note_on_c, 9, 35, 0
1, 98399, Note_on_c, 9, 49, 0
1, 98400, Note_on_c, 9, 42, 55
1, 98400, Note_on_c, 9, 57, 9
1, 98460, Note_on_c, 9, 35, 94
1, 98519, Note_on_c, 9, 42, 0
1, 98519, Note_on_c, 9, 57, 0
1, 98520, Note_on_c, 9, 49, 11
1, 98599, Note_on_c, 9, 49, 0
1, 98600, Note_on_c, 9, 57, 14
1, 98639, Note_on_c, 9, 35, 0
1, 98639, Note_on_c, 9, 57, 0
1, 98685, Note_on_c, 9, 49, 15
1, 98759, Note_on_c, 9, 49, 0
1, 98790, Note_on_c, 9, 57, 18
1, 98879, Note_on_c, 9, 57, 0
1, 98880, Note_on_c, 9, 49, 20
1, 98939, Note_on_c, 9, 49, 0
1, 98940, Note_on_c, 9, 38, 104
1, 98940, Note_on_c, 9, 42, 79
1, 98999, Note_on_c, 9, 38, 0
1, 98999, Note_on_c, 9, 42, 0
1, 99000, Note_on_c, 9, 57, 23
1, 99079, Note_on_c, 9, 57, 0
1, 99080, Note_on_c, 9, 49, 26
1, 99119, Note_on_c, 9, 49, 0
1, 99165, Note_on_c, 9, 57, 31
1, 99299, Note_on_c, 9, 57, 0
1, 99300, Note_on_c, 9, 49, 33
1, 99359, Note_on_c, 9, 49, 0
1, 99360, Note_on_c, 9, 57, 35
1, 99419, Note_on_c, 9, 57, 0
1, 99420, Note_on_c, 9, 46, 75
1, 99479, Note_on_c, 9, 46, 0
1, 99480, Note_on_c, 9, 49, 40
1, 99569, Note_on_c, 9, 49, 0
1, 99570, Note_on_c, 9, 57, 44
1, 99599, Note_on_c, 9, 57, 0
1, 99660, Note_on_c, 9, 49, 48
1, 99719, Note_on_c, 9, 49, 0
1, 99750, Note_on_c, 9, 57, 53
1, 99839, Note_on_c, 9, 57, 0
1, 99840, Note_on_c, 9, 49, 58
1, 99899, Note_on_c, 9, 49, 0
1, 99900, Note_on_c, 9, 42, 64
1, 99900, Note_on_c, 9, 35, 110
1, 99930, Note_on_c, 9, 57, 61
1, 100079, Note_on_c, 9, 42, 0
1, 100079, Note_on_c, 9, 35, 0
1, 100319, Note_on_c, 9, 57, 0
1, 100350, Note_on_c, 9, 42, 46
1, 100799, Note_on_c, 9, 42, 0
1, 100800, Note_on_c, 9, 38, 109
1, 100800, Note_on_c, 9, 42, 75
1, 101279, Note_on_c, 9, 38, 0
1, 101279, Note_on_c, 9, 42, 0
1, 101280, Note_on_c, 9, 42, 55
1, 101550, Note_on_c, 9, 35, 69
1, 101639, Note_on_c, 9, 35, 0
1, 101759, Note_on_c, 9, 42, 0
1, 101760, Note_on_c, 9, 42, 75
1, 101760, Note_on_c, 9, 35, 105
1, 102239, Note_on_c, 9, 42, 0
1, 102239, Note_on_c, 9, 35, 0
1, 102270, Note_on_c, 9, 42, 55
1, 102270, Note_on_c, 9, 35, 100
1, 102719, Note_on_c, 9, 42, 0
1, 102719, Note_on_c, 9, 35, 0
1, 102765, Note_on_c, 9, 38, 99
1, 102765, Note_on_c, 9, 42, 75
1, 102959, Note_on_c, 9, 38, 0
1, 102959, Note_on_c, 9, 42, 0
1, 103290, Note_on_c, 9, 42, 45
1, 103679, Note_on_c, 9, 42, 0
1, 103770, Note_on_c, 9, 42, 79
1, 103770, Note_on_c, 9, 35, 100
1, 104159, Note_on_c, 9, 42, 0
1, 104159, Note_on_c, 9, 35, 0
1, 104220, Note_on_c, 9, 42, 64
1, 104399, Note_on_c, 9, 42, 0
1, 104670, Note_on_c, 9, 38, 93
1, 104670, Note_on_c, 9, 42, 75
1, 105119, Note_on_c, 9, 38, 0
1, 105119, Note_on_c, 9, 42, 0
1, 105120, Note_on_c, 9, 42, 64
1, 105359, Note_on_c, 9, 42, 0
1, 105360, Note_on_c, 9, 42, 62
1, 105360, Note_on_c, 9, 35, 63
1, 105599, Note_on_c, 9, 42, 0
1, 105599, Note_on_c, 9, 35, 0
1, 105600, Note_on_c, 9, 42, 64
1, 105600, Note_on_c, 9, 35, 105
1, 106079, Note_on_c, 9, 42, 0
1, 106079, Note_on_c, 9, 35, 0
1, 106080, Note_on_c, 9, 42, 55
1, 106080, Note_on_c, 9, 35, 100
1, 106559, Note_on_c, 9, 42, 0
1, 106559, Note_on_c, 9, 35, 0
1, 106560, Note_on_c, 9, 38, 99
1, 106560, Note_on_c, 9, 42, 75
1, 107039, Note_on_c, 9, 38, 0
1, 107039, Note_on_c, 9, 42, 0
1, 107040, Note_on_c, 9, 42, 57
1, 107519, Note_on_c, 9, 42, 0
1, 107520, Note_on_c, 9, 42, 75
1, 107550, Note_on_c, 9, 35, 105
1, 107999, Note_on_c, 9, 42, 0
1, 107999, Note_on_c, 9, 35, 0
1, 108060, Note_on_c, 9, 42, 62
1, 108239, Note_on_c, 9, 42, 0
1, 108480, Note_on_c, 9, 38, 93
1, 108480, Note_on_c, 9, 42, 72
1, 108959, Note_on_c, 9, 38, 0
1, 108959, Note_on_c, 9, 42, 0
1, 108960, Note_on_c, 9, 42, 51
1, 109200, Note_on_c, 9, 35, 74
1, 109439, Note_on_c, 9, 42, 0
1, 109439, Note_on_c, 9, 35, 0
1, 109440, Note_on_c, 9, 42, 72
1, 109470, Note_on_c, 9, 35, 110
1, 109919, Note_on_c, 9, 42, 0
1, 109919, Note_on_c, 9, 35, 0
1, 109920, Note_on_c, 9, 42, 57
1, 109920, Note_on_c, 9, 35, 94
1, 110399, Note_on_c, 9, 42, 0
1, 110399, Note_on_c, 9, 35, 0
1, 110400, Note_on_c, 9, 38, 104
1, 110400, Note_on_c, 9, 42, 75
1, 110879, Note_on_c, 9, 38, 0
1, 110879, Note_on_c, 9, 42, 0
1, 110940, Note_on_c, 9, 42, 52
1, 111119, Note_on_c, 9, 42, 0
1, 111360, Note_on_c, 9, 35, 105
1, 111420, Note_on_c, 9, 42, 75
1, 111599, Note_on_c, 9, 42, 0
1, 111839, Note_on_c, 9, 35, 0
1, 111840, Note_on_c, 9, 42, 58
1, 112319, Note_on_c, 9, 42, 0
1, 112320, Note_on_c, 9, 38, 109
1, 112320, Note_on_c, 9, 42, 75
1, 112799, Note_on_c, 9, 38, 0
1, 112799, Note_on_c, 9, 42, 0
1, 112800, Note_on_c, 9, 42, 55
1, 113070, Note_on_c, 9, 35, 67
1, 113159, Note_on_c, 9, 35, 0
1, 113279, Note_on_c, 9, 42, 0
1, 113325, Note_on_c, 9, 42, 75
1, 113325, Note_on_c, 9, 35, 100
1, 113519, Note_on_c, 9, 42, 0
1, 113519, Note_on_c, 9, 35, 0
1, 113760, Note_on_c, 9, 46, 64
1, 113760, Note_on_c, 9, 35, 110
1, 114239, Note_on_c, 9, 46, 0
1, 114239, Note_on_c, 9, 35, 0
1, 114240, Note_on_c, 9, 38, 90
1, 114240, Note_on_c, 9, 42, 66
1, 114719, Note_on_c, 9, 38, 0
1, 114719, Note_on_c, 9, 42, 0
1, 114735, Note_on_c, 9, 42, 64
1, 114959, Note_on_c, 9, 42, 0
1, 115200, Note_on_c, 9, 35, 100
1, 115230, Note_on_c, 9, 42, 75
1, 115679, Note_on_c, 9, 35, 0
1, 115679, Note_on_c, 9, 42, 0
1, 115680, Note_on_c, 9, 42, 48
1, 116159, Note_on_c, 9, 42, 0
1, 116180, Note_on_c, 9, 42, 75
1, 116199, Note_on_c, 9, 42, 0
1, 116200, Note_on_c, 9, 38, 99
1, 116279, Note_on_c, 9, 38, 0
1, 116640, Note_on_c, 9, 42, 55
1, 116640, Note_on_c, 9, 35, 81
1, 117119, Note_on_c, 9, 42, 0
1, 117119, Note_on_c, 9, 35, 0
1, 117120, Note_on_c, 9, 42, 75
1, 117120, Note_on_c, 9, 35, 110
1, 117599, Note_on_c, 9, 42, 0
1, 117599, Note_on_c, 9, 35, 0
1, 117615, Note_on_c, 9, 42, 50
1, 117839, Note_on_c, 9, 42, 0
1, 118140, Note_on_c, 9, 38, 104
1, 118140, Note_on_c, 9, 42, 79
1, 118319, Note_on_c, 9, 38, 0
1, 118319, Note_on_c, 9, 42, 0
1, 118575, Note_on_c, 9, 42, 48
1, 118799, Note_on_c, 9, 42, 0
1, 119070, Note_on_c, 9, 42, 75
1, 119070, Note_on_c, 9, 35, 105
1, 119519, Note_on_c, 9, 42, 0
1, 119519, Note_on_c, 9, 35, 0
1, 119520, Note_on_c, 9, 42, 52
1, 119999, Note_on_c, 9, 42, 0
1, 120000, Note_on_c, 9, 38, 104
1, 120000, Note_on_c, 9, 42, 72
1, 120479, Note_on_c, 9, 38, 0
1, 120479, Note_on_c, 9, 42, 0
1, 120480, Note_on_c, 9, 35, 84
1, 120510, Note_on_c, 9, 42, 48
1, 120959, Note_on_c, 9, 35, 0
1, 120959, Note_on_c, 9, 42, 0
1, 120990, Note_on_c, 9, 42, 75
1, 120990, Note_on_c, 9, 35, 105
1, 121439, Note_on_c, 9, 42, 0
1, 121439, Note_on_c, 9, 35, 0
1, 121500, Note_on_c, 9, 42, 48
1, 121679, Note_on_c, 9, 42, 0
1, 121950, Note_on_c, 9, 38, 93
1, 121950, Note_on_c, 9, 42, 79
1, 122399, Note_on_c, 9, 38, 0
1, 122399, Note_on_c, 9, 42, 0
1, 122460, Note_on_c, 9, 42, 62
1, 122639, Note_on_c, 9, 42, 0
1, 122970, Note_on_c, 9, 42, 72
1, 122970, Note_on_c, 9, 35, 110
1, 123359, Note_on_c, 9, 42, 0
1, 123359, Note_on_c, 9, 35, 0
1, 123420, Note_on_c, 9, 42, 58
1, 123599, Note_on_c, 9, 42, 0
1, 123900, Note_on_c, 9, 38, 99
1, 123900, Note_on_c, 9, 42, 75
1, 124079, Note_on_c, 9, 38, 0
1, 124079, Note_on_c, 9, 42, 0
1, 124380, Note_on_c, 9, 42, 58
1, 124380, Note_on_c, 9, 35, 84
1, 124559, Note_on_c, 9, 42, 0
1, 124559, Note_on_c, 9, 35, 0
1, 124860, Note_on_c, 9, 42, 72
1, 124860, Note_on_c, 9, 35, 110
1, 125039, Note_on_c, 9, 42, 0
1, 125039, Note_on_c, 9, 35, 0
1, 125310, Note_on_c, 9, 42, 64
1, 125759, Note_on_c, 9, 42, 0
1, 125820, Note_on_c, 9, 38, 99
1, 125820, Note_on_c, 9, 42, 72
1, 125999, Note_on_c, 9, 38, 0
1, 125999, Note_on_c, 9, 42, 0
1, 126300, Note_on_c, 9, 42, 50
1, 126479, Note_on_c, 9, 42, 0
1, 126780, Note_on_c, 9, 42, 75
1, 126780, Note_on_c, 9, 35, 105
1, 126959, Note_on_c, 9, 42, 0
1, 126959, Note_on_c, 9, 35, 0
1, 127230, Note_on_c, 9, 42, 62
1, 127679, Note_on_c, 9, 42, 0
1, 127680, Note_on_c, 9, 38, 104
1, 127680, Note_on_c, 9, 42, 75
1, 128159, Note_on_c, 9, 38, 0
1, 128159, Note_on_c, 9, 42, 0
1, 128160, Note_on_c, 9, 35, 78
1, 128175, Note_on_c, 9, 42, 66
1, 128399, Note_on_c, 9, 42, 0
1, 128639, Note_on_c, 9, 35, 0
1, 128640, Note_on_c, 9, 42, 72
1, 128670, Note_on_c, 9, 35, 116
1, 128699, Note_on_c, 9, 42, 0
1, 128745, Note_on_c, 9, 57, 2
1, 128849, Note_on_c, 9, 57, 0
1, 128850, Note_on_c, 9, 49, 3
1, 128879, Note_on_c, 9, 49, 0
1, 128940, Note_on_c, 9, 57, 5
1, 128999, Note_on_c, 9, 57, 0
1, 129000, Note_on_c, 9, 49, 6
1, 129119, Note_on_c, 9, 35, 0
1, 129119, Note_on_c, 9, 49, 0
1, 129120, Note_on_c, 9, 57, 9
1, 129159, Note_on_c, 9, 57, 0
1, 129160, Note_on_c, 9, 42, 62
1, 129239, Note_on_c, 9, 42, 0
1, 129240, Note_on_c, 9, 49, 11
1, 129329, Note_on_c, 9, 49, 0
1, 129330, Note_on_c, 9, 57, 14
1, 129359, Note_on_c, 9, 57, 0
1, 129390, Note_on_c, 9, 35, 105
1, 129420, Note_on_c, 9, 49, 15
1, 129479, Note_on_c, 9, 35, 0
1, 129539, Note_on_c, 9, 49, 0
1, 129540, Note_on_c, 9, 57, 18
1, 129599, Note_on_c, 9, 57, 0
1, 129600, Note_on_c, 9, 49, 20
1, 129659, Note_on_c, 9, 49, 0
1, 129660, Note_on_c, 9, 45, 97
1, 129660, Note_on_c, 9, 55, 116
1, 129719, Note_on_c, 9, 45, 0
1, 129719, Note_on_c, 9, 55, 0
1, 129720, Note_on_c, 9, 57, 23
1, 129809, Note_on_c, 9, 57, 0
1, 129810, Note_on_c, 9, 49, 26
1, 129839, Note_on_c, 9, 49, 0
1, 129900, Note_on_c, 9, 57, 31
1, 130019, Note_on_c, 9, 57, 0
1, 130020, Note_on_c, 9, 49, 33
1, 130079, Note_on_c, 9, 49, 0
1, 130080, Note_on_c, 9, 57, 35
1, 130199, Note_on_c, 9, 57, 0
1, 130200, Note_on_c, 9, 49, 40
1, 130289, Note_on_c, 9, 49, 0
1, 130290, Note_on_c, 9, 57, 44
1, 130319, Note_on_c, 9, 57, 0
1, 130380, Note_on_c, 9, 49, 48
1, 130439, Note_on_c, 9, 49, 0
1, 130470, Note_on_c, 9, 57, 53
1, 130559, Note_on_c, 9, 57, 0
1, 130560, Note_on_c, 9, 49, 58
1, 130619, Note_on_c, 9, 49, 0
1, 130620, Note_on_c, 9, 42, 75
1, 130620, Note_on_c, 9, 35, 100
1, 130650, Note_on_c, 9, 57, 61
1, 130799, Note_on_c, 9, 42, 0
1, 130799, Note_on_c, 9, 35, 0
1, 131039, Note_on_c, 9, 57, 0
1, 131040, Note_on_c, 9, 42, 57
1, 131519, Note_on_c, 9, 42, 0
1, 131520, Note_on_c, 9, 38, 109
1, 131520, Note_on_c, 9, 42, 79
1, 131999, Note_on_c, 9, 38, 0
1, 131999, Note_on_c, 9, 42, 0
1, 132000, Note_on_c, 9, 42, 58
1, 132240, Note_on_c, 9, 35, 60
1, 132479, Note_on_c, 9, 42, 0
1, 132479, Note_on_c, 9, 35, 0
1, 132480, Note_on_c, 9, 35, 110
1, 132525, Note_on_c, 9, 42, 72
1, 132719, Note_on_c, 9, 42, 0
1, 132959, Note_on_c, 9, 35, 0
1, 132960, Note_on_c, 9, 42, 62
1, 132960, Note_on_c, 9, 35, 91
1, 133439, Note_on_c, 9, 42, 0
1, 133439, Note_on_c, 9, 35, 0
1, 133440, Note_on_c, 9, 38, 104
1, 133440, Note_on_c, 9, 42, 72
1, 133919, Note_on_c, 9, 38, 0
1, 133919, Note_on_c, 9, 42, 0
1, 133920, Note_on_c, 9, 42, 58
1, 134399, Note_on_c, 9, 42, 0
1, 134430, Note_on_c, 9, 42, 75
1, 134430, Note_on_c, 9, 35, 110
1, 134879, Note_on_c, 9, 42, 0
1, 134879, Note_on_c, 9, 35, 0
1, 134880, Note_on_c, 9, 42, 51
1, 135359, Note_on_c, 9, 42, 0
1, 135360, Note_on_c, 9, 38, 109
1, 135360, Note_on_c, 9, 42, 66
1, 135839, Note_on_c, 9, 38, 0
1, 135839, Note_on_c, 9, 42, 0
1, 135900, Note_on_c, 9, 42, 50
1, 136079, Note_on_c, 9, 42, 0
1, 136140, Note_on_c, 9, 35, 74
1, 136319, Note_on_c, 9, 35, 0
1, 136320, Note_on_c, 9, 42, 66
1, 136365, Note_on_c, 9, 35, 110
1, 136559, Note_on_c, 9, 35, 0
1, 136799, Note_on_c, 9, 42, 0
1, 136800, Note_on_c, 9, 42, 55
1, 136800, Note_on_c, 9, 35, 105
1, 137279, Note_on_c, 9, 42, 0
1, 137279, Note_on_c, 9, 35, 0
1, 137310, Note_on_c, 9, 38, 109
1, 137310, Note_on_c, 9, 42, 75
1, 137759, Note_on_c, 9, 38, 0
1, 137759, Note_on_c, 9, 42, 0
1, 137760, Note_on_c, 9, 42, 51
1, 138239, Note_on_c, 9, 42, 0
1, 138270, Note_on_c, 9, 42, 72
1, 138270, Note_on_c, 9, 35, 105
1, 138719, Note_on_c, 9, 42, 0
1, 138719, Note_on_c, 9, 35, 0
1, 138720, Note_on_c, 9, 42, 41
1, 139199, Note_on_c, 9, 42, 0
1, 139200, Note_on_c, 9, 38, 104
1, 139200, Note_on_c, 9, 42, 75
1, 139679, Note_on_c, 9, 38, 0
1, 139679, Note_on_c, 9, 42, 0
1, 139680, Note_on_c, 9, 42, 50
1, 139920, Note_on_c, 9, 35, 74
1, 140159, Note_on_c, 9, 42, 0
1, 140159, Note_on_c, 9, 35, 0
1, 140160, Note_on_c, 9, 42, 72
1, 140160, Note_on_c, 9, 35, 105
1, 140639, Note_on_c, 9, 42, 0
1, 140639, Note_on_c, 9, 35, 0
1, 140640, Note_on_c, 9, 42, 50
1, 140640, Note_on_c, 9, 35, 105
1, 141119, Note_on_c, 9, 42, 0
1, 141119, Note_on_c, 9, 35, 0
1, 141120, Note_on_c, 9, 38, 104
1, 141120, Note_on_c, 9, 42, 75
1, 141599, Note_on_c, 9, 38, 0
1, 141599, Note_on_c, 9, 42, 0
1, 141615, Note_on_c, 9, 42, 47
1, 141839, Note_on_c, 9, 42, 0
1, 142125, Note_on_c, 9, 42, 75
1, 142125, Note_on_c, 9, 35, 110
1, 142319, Note_on_c, 9, 42, 0
1, 142319, Note_on_c, 9, 35, 0
1, 142620, Note_on_c, 9, 42, 51
1, 142799, Note_on_c, 9, 42, 0
1, 143115, Note_on_c, 9, 38, 109
1, 143115, Note_on_c, 9, 42, 75
1, 143519, Note_on_c, 9, 38, 0
1, 143519, Note_on_c, 9, 42, 0
1, 143520, Note_on_c, 9, 42, 62
1, 143759, Note_on_c, 9, 42, 0
1, 143790, Note_on_c, 9, 42, 62
1, 143790, Note_on_c, 9, 35, 81
1, 143879, Note_on_c, 9, 42, 0
1, 143879, Note_on_c, 9, 35, 0
1, 144045, Note_on_c, 9, 42, 75
1, 144045, Note_on_c, 9, 35, 94
1, 144239, Note_on_c, 9, 42, 0
1, 144239, Note_on_c, 9, 35, 0
1, 144480, Note_on_c, 9, 42, 62
1, 144480, Note_on_c, 9, 35, 110
1, 144959, Note_on_c, 9, 42, 0
1, 144959, Note_on_c, 9, 35, 0
1, 144960, Note_on_c, 9, 38, 104
1, 144960, Note_on_c, 9, 42, 75
1, 145019, Note_on_c, 9, 38, 0
1, 145019, Note_on_c, 9, 42, 0
1, 145035, Note_on_c, 9, 57, 17
1, 145124, Note_on_c, 9, 57, 0
1, 145125, Note_on_c, 9, 49, 22
1, 145199, Note_on_c, 9, 49, 0
1, 145230, Note_on_c, 9, 57, 24
1, 145319, Note_on_c, 9, 57, 0
1, 145380, Note_on_c, 9, 49, 27
1, 145439, Note_on_c, 9, 49, 0
1, 145440, Note_on_c, 9, 57, 29
1, 145519, Note_on_c, 9, 57, 0
1, 145520, Note_on_c, 9, 46, 75
1, 145559, Note_on_c, 9, 46, 0
1, 145560, Note_on_c, 9, 49, 34
1, 145649, Note_on_c, 9, 49, 0
1, 145665, Note_on_c, 9, 57, 40
1, 145769, Note_on_c, 9, 57, 0
1, 145770, Note_on_c, 9, 49, 44
1, 145799, Note_on_c, 9, 49, 0
1, 145860, Note_on_c, 9, 57, 51
1, 145919, Note_on_c, 9, 57, 0
1, 145950, Note_on_c, 9, 49, 55
1, 146009, Note_on_c, 9, 49, 0
1, 146010, Note_on_c, 9, 42, 75
1, 146040, Note_on_c, 9, 57, 62
1, 146040, Note_on_c, 9, 35, 110
1, 146399, Note_on_c, 9, 42, 0
1, 146399, Note_on_c, 9, 57, 0
1, 146399, Note_on_c, 9, 35, 0
1, 146460, Note_on_c, 9, 42, 57
1, 146639, Note_on_c, 9, 42, 0
1, 146880, Note_on_c, 9, 38, 104
1, 146880, Note_on_c, 9, 42, 75
1, 147359, Note_on_c, 9, 38, 0
1, 147359, Note_on_c, 9, 42, 0
1, 147360, Note_on_c, 9, 42, 52
1, 147660, Note_on_c, 9, 35, 76
1, 147839, Note_on_c, 9, 42, 0
1, 147839, Note_on_c, 9, 35, 0
1, 147840, Note_on_c, 9, 42, 72
1, 147840, Note_on_c, 9, 35, 105
1, 148319, Note_on_c, 9, 42, 0
1, 148319, Note_on_c, 9, 35, 0
1, 148320, Note_on_c, 9, 42, 45
1, 148320, Note_on_c, 9, 35, 94
1, 148799, Note_on_c, 9, 42, 0
1, 148799, Note_on_c, 9, 35, 0
1, 148820, Note_on_c, 9, 38, 104
1, 148839, Note_on_c, 9, 38, 0
1, 148840, Note_on_c, 9, 42, 75
1, 148859, Note_on_c, 9, 42, 0
1, 149280, Note_on_c, 9, 42, 44
1, 149759, Note_on_c, 9, 42, 0
1, 149760, Note_on_c, 9, 35, 105
1, 149790, Note_on_c, 9, 42, 72
1, 150239, Note_on_c, 9, 35, 0
1, 150239, Note_on_c, 9, 42, 0
1, 150240, Note_on_c, 9, 42, 47
1, 150719, Note_on_c, 9, 42, 0
1, 150720, Note_on_c, 9, 38, 109
1, 150720, Note_on_c, 9, 42, 75
1, 151199, Note_on_c, 9, 38, 0
1, 151199, Note_on_c, 9, 42, 0
1, 151215, Note_on_c, 9, 42, 52
1, 151439, Note_on_c, 9, 42, 0
1, 151440, Note_on_c, 9, 42, 62
1, 151440, Note_on_c, 9, 35, 78
1, 151679, Note_on_c, 9, 42, 0
1, 151679, Note_on_c, 9, 35, 0
1, 151710, Note_on_c, 9, 35, 94
1, 151725, Note_on_c, 9, 42, 75
1, 151919, Note_on_c, 9, 42, 0
1, 152159, Note_on_c, 9, 35, 0
1, 152160, Note_on_c, 9, 42, 62
1, 152160, Note_on_c, 9, 35, 94
1, 152639, Note_on_c, 9, 42, 0
1, 152639, Note_on_c, 9, 35, 0
1, 152670, Note_on_c, 9, 38, 109
1, 152670, Note_on_c, 9, 42, 75
1, 153119, Note_on_c, 9, 38, 0
1, 153119, Note_on_c, 9, 42, 0
1, 153120, Note_on_c, 9, 57, 10
1, 153199, Note_on_c, 9, 57, 0
1, 153200, Note_on_c, 9, 42, 52
1, 153239, Note_on_c, 9, 42, 0
1, 153240, Note_on_c, 9, 49, 14
1, 153329, Note_on_c, 9, 49, 0
1, 153345, Note_on_c, 9, 57, 22
1, 153449, Note_on_c, 9, 57, 0
1, 153450, Note_on_c, 9, 49, 31
1, 153479, Note_on_c, 9, 49, 0
1, 153540, Note_on_c, 9, 57, 40
1, 153599, Note_on_c, 9, 57, 0
1, 153630, Note_on_c, 9, 49, 50
1, 153689, Note_on_c, 9, 49, 0
1, 153690, Note_on_c, 9, 42, 75
1, 153720, Note_on_c, 9, 57, 62
1, 153720, Note_on_c, 9, 35, 110
1, 154079, Note_on_c, 9, 42, 0
1, 154079, Note_on_c, 9, 57, 0
1, 154079, Note_on_c, 9, 35, 0
1, 154140, Note_on_c, 9, 42, 50
1, 154319, Note_on_c, 9, 42, 0
1, 154560, Note_on_c, 9, 38, 109
1, 154560, Note_on_c, 9, 42, 75
1, 155039, Note_on_c, 9, 38, 0
1, 155039, Note_on_c, 9, 42, 0
1, 155055, Note_on_c, 9, 42, 40
1, 155279, Note_on_c, 9, 42, 0
1, 155340, Note_on_c, 9, 35, 74
1, 155519, Note_on_c, 9, 35, 0
1, 155520, Note_on_c, 9, 42, 79
1, 155520, Note_on_c, 9, 35, 94
1, 155999, Note_on_c, 9, 42, 0
1, 155999, Note_on_c, 9, 35, 0
1, 156000, Note_on_c, 9, 46, 73
1, 156000, Note_on_c, 9, 35, 94
1, 156479, Note_on_c, 9, 46, 0
1, 156479, Note_on_c, 9, 35, 0
1, 156480, Note_on_c, 9, 38, 104
1, 156480, Note_on_c, 9, 42, 75
1, 156959, Note_on_c, 9, 38, 0
1, 156959, Note_on_c, 9, 42, 0
1, 156960, Note_on_c, 9, 42, 57
1, 157439, Note_on_c, 9, 42, 0
1, 157440, Note_on_c, 9, 46, 75
1, 157440, Note_on_c, 9, 35, 110
1, 157919, Note_on_c, 9, 46, 0
1, 157919, Note_on_c, 9, 35, 0
1, 158160, Note_on_c, 9, 38, 71
1, 158399, Note_on_c, 9, 38, 0
1, 158400, Note_on_c, 9, 38, 104
1, 158879, Note_on_c, 9, 38, 0
1, 158880, Note_on_c, 9, 38, 83
1, 159119, Note_on_c, 9, 38, 0
1, 159120, Note_on_c, 9, 38, 104
1, 159359, Note_on_c, 9, 38, 0
1, 159480, Note_on_c, 9, 57, 2
1, 159599, Note_on_c, 9, 57, 0
1, 159620, Note_on_c, 9, 49, 3
1, 159679, Note_on_c, 9, 49, 0
1, 159680, Note_on_c, 9, 57, 5
1, 159719, Note_on_c, 9, 57, 0
1, 159780, Note_on_c, 9, 49, 6
1, 159839, Note_on_c, 9, 49, 0
1, 159870, Note_on_c, 9, 57, 9
1, 159899, Note_on_c, 9, 57, 0
1, 159900, Note_on_c, 9, 38, 104
1, 159959, Note_on_c, 9, 38, 0
1, 159990, Note_on_c, 9, 49, 11
1, 160079, Note_on_c, 9, 49, 0
1, 160100, Note_on_c, 9, 57, 14
1, 160159, Note_on_c, 9, 57, 0
1, 160160, Note_on_c, 9, 49, 15
1, 160199, Note_on_c, 9, 49, 0
1, 160260, Note_on_c, 9, 57, 18
1, 160319, Note_on_c, 9, 57, 0
1, 160320, Note_on_c, 9, 49, 20
1, 160439, Note_on_c, 9, 49, 0
1, 160440, Note_on_c, 9, 57, 23
1, 160529, Note_on_c, 9, 57, 0
1, 160530, Note_on_c, 9, 49, 26
1, 160559, Note_on_c, 9, 49, 0
1, 160620, Note_on_c, 9, 38, 80
1, 160620, Note_on_c, 9, 57, 31
1, 160739, Note_on_c, 9, 38, 0
1, 160739, Note_on_c, 9, 57, 0
1, 160740, Note_on_c, 9, 49, 33
1, 160799, Note_on_c, 9, 49, 0
1, 160800, Note_on_c, 9, 57, 35
1, 160879, Note_on_c, 9, 57, 0
1, 160880, Note_on_c, 9, 38, 109
1, 160919, Note_on_c, 9, 38, 0
1, 160920, Note_on_c, 9, 49, 40
1, 161009, Note_on_c, 9, 49, 0
1, 161010, Note_on_c, 9, 57, 44
1, 161039, Note_on_c, 9, 57, 0
1, 161100, Note_on_c, 9, 49, 48
1, 161159, Note_on_c, 9, 49, 0
1, 161190, Note_on_c, 9, 57, 53
1, 161279, Note_on_c, 9, 57, 0
1, 161280, Note_on_c, 9, 49, 58
1, 161340, Note_on_c, 9, 35, 110
1, 161369, Note_on_c, 9, 49, 0
1, 161370, Note_on_c, 9, 55, 100
1, 161370, Note_on_c, 9, 57, 61
1, 161519, Note_on_c, 9, 35, 0
1, 161759, Note_on_c, 9, 55, 0
1, 161759, Note_on_c, 9, 57, 0
1, 161790, Note_on_c, 9, 59, 81
1, 162239, Note_on_c, 9, 59, 0
1, 162240, Note_on_c, 9, 38, 109
1, 162240, Note_on_c, 9, 54, 97
1, 162240, Note_on_c, 9, 59, 105
1, 162719, Note_on_c, 9, 38, 0
1, 162719, Note_on_c, 9, 54, 0
1, 162719, Note_on_c, 9, 59, 0
1, 162720, Note_on_c, 9, 59, 91
1, 162720, Note_on_c, 9, 35, 84
1, 163199, Note_on_c, 9, 59, 0
1, 163199, Note_on_c, 9, 35, 0
1, 163200, Note_on_c, 9, 35, 110
1, 163230, Note_on_c, 9, 59, 100
1, 163679, Note_on_c, 9, 35, 0
1, 163679, Note_on_c, 9, 59, 0
1, 163680, Note_on_c, 9, 59, 84
1, 164159, Note_on_c, 9, 59, 0
1, 164160, Note_on_c, 9, 38, 109
1, 164160, Note_on_c, 9, 54, 92
1, 164160, Note_on_c, 9, 59, 91
1, 164639, Note_on_c, 9, 38, 0
1, 164639, Note_on_c, 9, 54, 0
1, 164639, Note_on_c, 9, 59, 0
1, 164640, Note_on_c, 9, 59, 84
1, 165119, Note_on_c, 9, 59, 0
1, 165120, Note_on_c, 9, 59, 100
1, 165120, Note_on_c, 9, 35, 105
1, 165599, Note_on_c, 9, 59, 0
1, 165599, Note_on_c, 9, 35, 0
1, 165600, Note_on_c, 9, 59, 81
1, 166079, Note_on_c, 9, 59, 0
1, 166080, Note_on_c, 9, 38, 99
1, 166080, Note_on_c, 9, 54, 83
1, 166080, Note_on_c, 9, 59, 100
1, 166559, Note_on_c, 9, 38, 0
1, 166559, Note_on_c, 9, 54, 0
1, 166559, Note_on_c, 9, 59, 0
1, 166560, Note_on_c, 9, 59, 78
1, 166560, Note_on_c, 9, 35, 70
1, 167039, Note_on_c, 9, 59, 0
1, 167039, Note_on_c, 9, 35, 0
1, 167040, Note_on_c, 9, 59, 100
1, 167040, Note_on_c, 9, 35, 105
1, 167519, Note_on_c, 9, 59, 0
1, 167519, Note_on_c, 9, 35, 0
1, 167520, Note_on_c, 9, 59, 81
1, 167999, Note_on_c, 9, 59, 0
1, 168030, Note_on_c, 9, 38, 104
1, 168030, Note_on_c, 9, 54, 92
1, 168030, Note_on_c, 9, 59, 94
1, 168479, Note_on_c, 9, 38, 0
1, 168479, Note_on_c, 9, 54, 0
1, 168479, Note_on_c, 9, 59, 0
1, 168510, Note_on_c, 9, 59, 87
1, 168959, Note_on_c, 9, 59, 0
1, 168990, Note_on_c, 9, 57, 100
1, 168990, Note_on_c, 9, 35, 105
1, 169439, Note_on_c, 9, 57, 0
1, 169439, Note_on_c, 9, 35, 0
1, 169440, Note_on_c, 9, 59, 87
1, 169919, Note_on_c, 9, 59, 0
1, 169920, Note_on_c, 9, 38, 104
1, 169920, Note_on_c, 9, 54, 92
1, 169920, Note_on_c, 9, 59, 94
1, 170399, Note_on_c, 9, 38, 0
1, 170399, Note_on_c, 9, 54, 0
1, 170399, Note_on_c, 9, 59, 0
1, 170400, Note_on_c, 9, 59, 91
1, 170400, Note_on_c, 9, 35, 72
1, 170879, Note_on_c, 9, 59, 0
1, 170879, Note_on_c, 9, 35, 0
1, 170880, Note_on_c, 9, 35, 105
1, 170910, Note_on_c, 9, 59, 94
1, 171359, Note_on_c, 9, 35, 0
1, 171359, Note_on_c, 9, 59, 0
1, 171360, Note_on_c, 9, 59, 87
1, 171839, Note_on_c, 9, 59, 0
1, 171840, Note_on_c, 9, 38, 109
1, 171840, Note_on_c, 9, 54, 83
1, 171840, Note_on_c, 9, 59, 100
1, 172319, Note_on_c, 9, 38, 0
1, 172319, Note_on_c, 9, 54, 0
1, 172319, Note_on_c, 9, 59, 0
1, 172380, Note_on_c, 9, 59, 94
1, 172559, Note_on_c, 9, 59, 0
1, 172830, Note_on_c, 9, 57, 100
1, 172830, Note_on_c, 9, 35, 94
1, 173279, Note_on_c, 9, 57, 0
1, 173279, Note_on_c, 9, 35, 0
1, 173280, Note_on_c, 9, 59, 84
1, 173759, Note_on_c, 9, 59, 0
1, 173760, Note_on_c, 9, 38, 104
1, 173760, Note_on_c, 9, 54, 92
1, 173760, Note_on_c, 9, 59, 100
1, 174239, Note_on_c, 9, 38, 0
1, 174239, Note_on_c, 9, 54, 0
1, 174239, Note_on_c, 9, 59, 0
1, 174240, Note_on_c, 9, 59, 87
1, 174240, Note_on_c, 9, 35, 72
1, 174719, Note_on_c, 9, 59, 0
1, 174719, Note_on_c, 9, 35, 0
1, 174720, Note_on_c, 9, 59, 100
1, 174720, Note_on_c, 9, 35, 105
1, 174959, Note_on_c, 9, 59, 0
1, 174960, Note_on_c, 9, 48, 87
1, 175199, Note_on_c, 9, 35, 0
1, 175199, Note_on_c, 9, 48, 0
1, 175200, Note_on_c, 9, 48, 91
1, 175200, Note_on_c, 9, 35, 57
1, 175679, Note_on_c, 9, 48, 0
1, 175679, Note_on_c, 9, 35, 0
1, 175680, Note_on_c, 9, 45, 91
1, 175680, Note_on_c, 9, 54, 92
1, 175680, Note_on_c, 9, 59, 94
1, 176159, Note_on_c, 9, 45, 0
1, 176159, Note_on_c, 9, 54, 0
1, 176159, Note_on_c, 9, 59, 0
1, 176160, Note_on_c, 9, 45, 94
1, 176400, Note_on_c, 9, 35, 61
1, 176639, Note_on_c, 9, 45, 0
1, 176639, Note_on_c, 9, 35, 0
1, 176640, Note_on_c, 9, 57, 94
1, 176640, Note_on_c, 9, 35, 110
1, 177119, Note_on_c, 9, 57, 0
1, 177119, Note_on_c, 9, 35, 0
1, 177600, Note_on_c, 9, 38, 104
1, 177600, Note_on_c, 9, 54, 92
1, 177600, Note_on_c, 9, 59, 91
1, 178079, Note_on_c, 9, 38, 0
1, 178079, Note_on_c, 9, 54, 0
1, 178079, Note_on_c, 9, 59, 0
1, 178080, Note_on_c, 9, 59, 78
1, 178080, Note_on_c, 9, 35, 63
1, 178559, Note_on_c, 9, 59, 0
1, 178559, Note_on_c, 9, 35, 0
1, 178560, Note_on_c, 9, 59, 91
1, 178560, Note_on_c, 9, 35, 105
1, 179039, Note_on_c, 9, 59, 0
1, 179039, Note_on_c, 9, 35, 0
1, 179040, Note_on_c, 9, 59, 84
1, 179519, Note_on_c, 9, 59, 0
1, 179550, Note_on_c, 9, 38, 104
1, 179550, Note_on_c, 9, 54, 83
1, 179550, Note_on_c, 9, 59, 91
1, 179999, Note_on_c, 9, 38, 0
1, 179999, Note_on_c, 9, 54, 0
1, 179999, Note_on_c, 9, 59, 0
1, 180000, Note_on_c, 9, 59, 91
1, 180479, Note_on_c, 9, 59, 0
1, 180480, Note_on_c, 9, 55, 84
1, 180510, Note_on_c, 9, 35, 105
1, 180959, Note_on_c, 9, 55, 0
1, 180959, Note_on_c, 9, 35, 0
1, 180960, Note_on_c, 9, 59, 87
1, 181439, Note_on_c, 9, 59, 0
1, 181440, Note_on_c, 9, 38, 104
1, 181440, Note_on_c, 9, 54, 92
1, 181440, Note_on_c, 9, 59, 94
1, 181919, Note_on_c, 9, 38, 0
1, 181919, Note_on_c, 9, 54, 0
1, 181919, Note_on_c, 9, 59, 0
1, 181920, Note_on_c, 9, 59, 94
1, 181920, Note_on_c, 9, 35, 76
1, 182399, Note_on_c, 9, 59, 0
1, 182399, Note_on_c, 9, 35, 0
1, 182400, Note_on_c, 9, 59, 100
1, 182400, Note_on_c, 9, 35, 94
1, 182879, Note_on_c, 9, 59, 0
1, 182879, Note_on_c, 9, 35, 0
1, 182880, Note_on_c, 9, 59, 87
1, 183359, Note_on_c, 9, 59, 0
1, 183360, Note_on_c, 9, 38, 99
1, 183360, Note_on_c, 9, 54, 92
1, 183360, Note_on_c, 9, 59, 94
1, 183839, Note_on_c, 9, 38, 0
1, 183839, Note_on_c, 9, 54, 0
1, 183839, Note_on_c, 9, 59, 0
1, 183840, Note_on_c, 9, 59, 94
1, 184319, Note_on_c, 9, 59, 0
1, 184320, Note_on_c, 9, 57, 94
1, 184320, Note_on_c, 9, 35, 100
1, 184799, Note_on_c, 9, 57, 0
1, 184799, Note_on_c, 9, 35, 0
1, 185280, Note_on_c, 9, 38, 109
1, 185280, Note_on_c, 9, 54, 92
1, 185280, Note_on_c, 9, 59, 94
1, 185759, Note_on_c, 9, 38, 0
1, 185759, Note_on_c, 9, 54, 0
1, 185759, Note_on_c, 9, 59, 0
1, 185790, Note_on_c, 9, 35, 70
1, 186239, Note_on_c, 9, 35, 0
1, 186240, Note_on_c, 9, 35, 105
1, 186255, Note_on_c, 9, 59, 94
1, 186479, Note_on_c, 9, 59, 0
1, 186719, Note_on_c, 9, 35, 0
1, 187230, Note_on_c, 9, 38, 109
1, 187230, Note_on_c, 9, 54, 92
1, 187230, Note_on_c, 9, 59, 94
1, 187679, Note_on_c, 9, 38, 0
1, 187679, Note_on_c, 9, 54, 0
1, 187679, Note_on_c, 9, 59, 0
1, 187980, Note_on_c, 9, 35, 45
1, 188159, Note_on_c, 9, 35, 0
1, 188190, Note_on_c, 9, 59, 100
1, 188190, Note_on_c, 9, 35, 110
1, 188639, Note_on_c, 9, 59, 0
1, 188639, Note_on_c, 9, 35, 0
1, 189180, Note_on_c, 9, 38, 104
1, 189180, Note_on_c, 9, 54, 92
1, 189180, Note_on_c, 9, 59, 94
1, 189359, Note_on_c, 9, 38, 0
1, 189359, Note_on_c, 9, 54, 0
1, 189359, Note_on_c, 9, 59, 0
1, 189660, Note_on_c, 9, 35, 78
1, 190019, Note_on_c, 9, 35, 0
1, 190020, Note_on_c, 9, 59, 100
1, 190020, Note_on_c, 9, 35, 110
1, 190079, Note_on_c, 9, 59, 0
1, 190079, Note_on_c, 9, 35, 0
1, 190080, Note_on_c, 9, 57, 1
1, 190199, Note_on_c, 9, 57, 0
1, 190220, Note_on_c, 9, 49, 1
1, 190279, Note_on_c, 9, 49, 0
1, 190280, Note_on_c, 9, 57, 1
1, 190319, Note_on_c, 9, 57, 0
1, 190365, Note_on_c, 9, 49, 2
1, 190379, Note_on_c, 9, 49, 0
1, 190440, Note_on_c, 9, 57, 3
1, 190559, Note_on_c, 9, 57, 0
1, 190560, Note_on_c, 9, 49, 4
1, 190649, Note_on_c, 9, 49, 0
1, 190650, Note_on_c, 9, 57, 5
1, 190679, Note_on_c, 9, 57, 0
1, 190740, Note_on_c, 9, 49, 6
1, 190799, Note_on_c, 9, 49, 0
1, 190860, Note_on_c, 9, 57, 8
1, 190919, Note_on_c, 9, 57, 0
1, 190920, Note_on_c, 9, 49, 9
1, 190979, Note_on_c, 9, 49, 0
1, 190980, Note_on_c, 9, 38, 109
1, 190980, Note_on_c, 9, 54, 92
1, 190980, Note_on_c, 9, 59, 94
1, 191039, Note_on_c, 9, 38, 0
1, 191039, Note_on_c, 9, 54, 0
1, 191039, Note_on_c, 9, 59, 0
1, 191040, Note_on_c, 9, 57, 11
1, 191129, Note_on_c, 9, 57, 0
1, 191130, Note_on_c, 9, 49, 12
1, 191159, Note_on_c, 9, 49, 0
1, 191220, Note_on_c, 9, 57, 15
1, 191279, Note_on_c, 9, 57, 0
1, 191340, Note_on_c, 9, 49, 16
1, 191399, Note_on_c, 9, 49, 0
1, 191415, Note_on_c, 9, 57, 18
1, 191459, Note_on_c, 9, 57, 0
1, 191520, Note_on_c, 9, 49, 20
1, 191639, Note_on_c, 9, 49, 0
1, 191640, Note_on_c, 9, 57, 23
1, 191729, Note_on_c, 9, 57, 0
1, 191730, Note_on_c, 9, 49, 24
1, 191759, Note_on_c, 9, 49, 0
1, 191820, Note_on_c, 9, 57, 28
1, 191879, Note_on_c, 9, 57, 0
1, 191910, Note_on_c, 9, 49, 31
1, 191999, Note_on_c, 9, 49, 0
1, 192000, Note_on_c, 9, 59, 100
1, 192000, Note_on_c, 9, 35, 105
1, 192029, Note_on_c, 9, 59, 0
1, 192030, Note_on_c, 9, 57, 32
1, 192479, Note_on_c, 9, 35, 0
1, 192479, Note_on_c, 9, 57, 0
1, 192960, Note_on_c, 9, 38, 104
1, 192960, Note_on_c, 9, 54, 79
1, 192960, Note_on_c, 9, 59, 100
1, 193439, Note_on_c, 9, 38, 0
1, 193439, Note_on_c, 9, 54, 0
1, 193439, Note_on_c, 9, 59, 0
1, 193440, Note_on_c, 9, 35, 74
1, 193919, Note_on_c, 9, 35, 0
1, 193950, Note_on_c, 9, 59, 94
1, 193950, Note_on_c, 9, 35, 105
1, 194399, Note_on_c, 9, 59, 0
1, 194399, Note_on_c, 9, 35, 0
1, 194880, Note_on_c, 9, 54, 83
1, 194880, Note_on_c, 9, 59, 100
1, 194909, Note_on_c, 9, 59, 0
1, 194910, Note_on_c, 9, 38, 109
1, 195359, Note_on_c, 9, 54, 0
1, 195359, Note_on_c, 9, 38, 0
1, 195630, Note_on_c, 9, 35, 53
1, 195719, Note_on_c, 9, 35, 0
1, 195840, Note_on_c, 9, 35, 110
1, 195870, Note_on_c, 9, 59, 94
1, 196319, Note_on_c, 9, 35, 0
1, 196319, Note_on_c, 9, 59, 0
1, 196800, Note_on_c, 9, 38, 109
1, 196800, Note_on_c, 9, 54, 83
1, 196800, Note_on_c, 9, 59, 100
1, 197279, Note_on_c, 9, 38, 0
1, 197279, Note_on_c, 9, 54, 0
1, 197279, Note_on_c, 9, 59, 0
1, 197280, Note_on_c, 9, 35, 78
1, 197759, Note_on_c, 9, 35, 0
1, 197760, Note_on_c, 9, 35, 110
1, 197780, Note_on_c, 9, 59, 94
1, 197839, Note_on_c, 9, 59, 0
1, 197840, Note_on_c, 9, 57, 2
1, 197879, Note_on_c, 9, 57, 0
1, 197940, Note_on_c, 9, 49, 3
1, 197999, Note_on_c, 9, 49, 0
1, 198060, Note_on_c, 9, 57, 5
1, 198119, Note_on_c, 9, 57, 0
1, 198120, Note_on_c, 9, 49, 6
1, 198239, Note_on_c, 9, 35, 0
1, 198239, Note_on_c, 9, 49, 0
1, 198240, Note_on_c, 9, 57, 9
1, 198359, Note_on_c, 9, 57, 0
1, 198360, Note_on_c, 9, 49, 11
1, 198439, Note_on_c, 9, 49, 0
1, 198440, Note_on_c, 9, 57, 14
1, 198479, Note_on_c, 9, 57, 0
1, 198525, Note_on_c, 9, 49, 15
1, 198599, Note_on_c, 9, 49, 0
1, 198630, Note_on_c, 9, 57, 18
1, 198719, Note_on_c, 9, 57, 0
1, 198720, Note_on_c, 9, 49, 20
1, 198749, Note_on_c, 9, 49, 0
1, 198765, Note_on_c, 9, 54, 92
1, 198765, Note_on_c, 9, 59, 94
1, 198839, Note_on_c, 9, 54, 0
1, 198839, Note_on_c, 9, 59, 0
1, 198840, Note_on_c, 9, 57, 23
1, 198919, Note_on_c, 9, 57, 0
1, 198920, Note_on_c, 9, 49, 26
1, 198959, Note_on_c, 9, 49, 0
1, 199005, Note_on_c, 9, 57, 31
1, 199139, Note_on_c, 9, 57, 0
1, 199140, Note_on_c, 9, 49, 33
1, 199199, Note_on_c, 9, 49, 0
1, 199200, Note_on_c, 9, 57, 35
1, 199289, Note_on_c, 9, 57, 0
1, 199305, Note_on_c, 9, 49, 40
1, 199439, Note_on_c, 9, 49, 0
1, 199440, Note_on_c, 9, 57, 44
1, 199529, Note_on_c, 9, 57, 0
1, 199530, Note_on_c, 9, 49, 48
1, 199559, Note_on_c, 9, 49, 0
1, 199620, Note_on_c, 9, 57, 53
1, 199679, Note_on_c, 9, 57, 0
1, 199710, Note_on_c, 9, 49, 58
1, 199769, Note_on_c, 9, 49, 0
1, 199770, Note_on_c, 9, 35, 100
1, 199785, Note_on_c, 9, 59, 100
1, 199785, Note_on_c, 9, 57, 61
1, 200159, Note_on_c, 9, 35, 0
1, 200159, Note_on_c, 9, 59, 0
1, 200159, Note_on_c, 9, 57, 0
1, 200640, Note_on_c, 9, 38, 104
1, 200640, Note_on_c, 9, 54, 97
1, 200640, Note_on_c, 9, 42, 72
1, 201119, Note_on_c, 9, 38, 0
1, 201119, Note_on_c, 9, 54, 0
1, 201119, Note_on_c, 9, 42, 0
1, 201120, Note_on_c, 9, 42, 57
1, 201390, Note_on_c, 9, 35, 70
1, 201479, Note_on_c, 9, 35, 0
1, 201599, Note_on_c, 9, 42, 0
1, 201600, Note_on_c, 9, 42, 79
1, 201600, Note_on_c, 9, 35, 100
1, 202079, Note_on_c, 9, 42, 0
1, 202079, Note_on_c, 9, 35, 0
1, 202080, Note_on_c, 9, 42, 55
1, 202080, Note_on_c, 9, 35, 105
1, 202559, Note_on_c, 9, 42, 0
1, 202559, Note_on_c, 9, 35, 0
1, 202605, Note_on_c, 9, 38, 109
1, 202605, Note_on_c, 9, 54, 92
1, 202605, Note_on_c, 9, 42, 72
1, 202799, Note_on_c, 9, 38, 0
1, 202799, Note_on_c, 9, 54, 0
1, 202799, Note_on_c, 9, 42, 0
1, 203070, Note_on_c, 9, 42, 52
1, 203519, Note_on_c, 9, 42, 0
1, 203580, Note_on_c, 9, 35, 105
1, 203640, Note_on_c, 9, 42, 72
1, 203759, Note_on_c, 9, 35, 0
1, 203999, Note_on_c, 9, 42, 0
1, 204060, Note_on_c, 9, 42, 52
1, 204239, Note_on_c, 9, 42, 0
1, 204480, Note_on_c, 9, 38, 109
1, 204480, Note_on_c, 9, 54, 83
1, 204480, Note_on_c, 9, 42, 72
1, 204959, Note_on_c, 9, 38, 0
1, 204959, Note_on_c, 9, 54, 0
1, 204959, Note_on_c, 9, 42, 0
1, 204960, Note_on_c, 9, 42, 58
1, 205200, Note_on_c, 9, 35, 76
1, 205439, Note_on_c, 9, 42, 0
1, 205439, Note_on_c, 9, 35, 0
1, 205440, Note_on_c, 9, 42, 66
1, 205440, Note_on_c, 9, 35, 116
1, 205919, Note_on_c, 9, 42, 0
1, 205919, Note_on_c, 9, 35, 0
1, 205920, Note_on_c, 9, 42, 57
1, 205920, Note_on_c, 9, 35, 105
1, 206399, Note_on_c, 9, 42, 0
1, 206399, Note_on_c, 9, 35, 0
1, 206400, Note_on_c, 9, 38, 109
1, 206400, Note_on_c, 9, 54, 92
1, 206400, Note_on_c, 9, 42, 66
1, 206879, Note_on_c, 9, 38, 0
1, 206879, Note_on_c, 9, 54, 0
1, 206879, Note_on_c, 9, 42, 0
1, 206880, Note_on_c, 9, 42, 55
1, 207359, Note_on_c, 9, 42, 0
1, 207390, Note_on_c, 9, 42, 72
1, 207390, Note_on_c, 9, 35, 110
1, 207839, Note_on_c, 9, 42, 0
1, 207839, Note_on_c, 9, 35, 0
1, 207840, Note_on_c, 9, 42, 50
1, 208319, Note_on_c, 9, 42, 0
1, 208320, Note_on_c, 9, 38, 109
1, 208320, Note_on_c, 9, 54, 92
1, 208320, Note_on_c, 9, 42, 72
1, 208799, Note_on_c, 9, 38, 0
1, 208799, Note_on_c, 9, 54, 0
1, 208799, Note_on_c, 9, 42, 0
1, 208800, Note_on_c, 9, 42, 57
1, 209040, Note_on_c, 9, 35, 61
1, 209279, Note_on_c, 9, 42, 0
1, 209279, Note_on_c, 9, 35, 0
1, 209310, Note_on_c, 9, 42, 72
1, 209310, Note_on_c, 9, 35, 110
1, 209759, Note_on_c, 9, 42, 0
1, 209759, Note_on_c, 9, 35, 0
1, 209760, Note_on_c, 9, 42, 55
1, 209760, Note_on_c, 9, 35, 105
1, 210239, Note_on_c, 9, 42, 0
1, 210239, Note_on_c, 9, 35, 0
1, 210270, Note_on_c, 9, 38, 115
1, 210270, Note_on_c, 9, 54, 83
1, 210270, Note_on_c, 9, 42, 72
1, 210719, Note_on_c, 9, 38, 0
1, 210719, Note_on_c, 9, 54, 0
1, 210719, Note_on_c, 9, 42, 0
1, 210720, Note_on_c, 9, 42, 50
1, 211199, Note_on_c, 9, 42, 0
1, 211200, Note_on_c, 9, 42, 75
1, 211200, Note_on_c, 9, 35, 110
1, 211679, Note_on_c, 9, 42, 0
1, 211679, Note_on_c, 9, 35, 0
1, 211680, Note_on_c, 9, 42, 51
1, 212159, Note_on_c, 9, 42, 0
1, 212190, Note_on_c, 9, 38, 109
1, 212190, Note_on_c, 9, 54, 92
1, 212190, Note_on_c, 9, 42, 75
1, 212639, Note_on_c, 9, 38, 0
1, 212639, Note_on_c, 9, 54, 0
1, 212639, Note_on_c, 9, 42, 0
1, 212640, Note_on_c, 9, 42, 57
1, 212879, Note_on_c, 9, 42, 0
1, 212880, Note_on_c, 9, 42, 58
1, 212880, Note_on_c, 9, 35, 67
1, 213119, Note_on_c, 9, 42, 0
1, 213119, Note_on_c, 9, 35, 0
1, 213120, Note_on_c, 9, 42, 79
1, 213120, Note_on_c, 9, 35, 100
1, 213599, Note_on_c, 9, 42, 0
1, 213599, Note_on_c, 9, 35, 0
1, 213630, Note_on_c, 9, 42, 50
1, 213630, Note_on_c, 9, 35, 105
1, 214079, Note_on_c, 9, 42, 0
1, 214079, Note_on_c, 9, 35, 0
1, 214080, Note_on_c, 9, 38, 104
1, 214080, Note_on_c, 9, 54, 92
1, 214080, Note_on_c, 9, 42, 75
1, 214199, Note_on_c, 9, 38, 0
1, 214199, Note_on_c, 9, 54, 0
1, 214199, Note_on_c, 9, 42, 0
1, 214200, Note_on_c, 9, 57, 17
1, 214279, Note_on_c, 9, 57, 0
1, 214280, Note_on_c, 9, 49, 22
1, 214319, Note_on_c, 9, 49, 0
1, 214365, Note_on_c, 9, 57, 24
1, 214499, Note_on_c, 9, 57, 0
1, 214500, Note_on_c, 9, 49, 27
1, 214559, Note_on_c, 9, 49, 0
1, 214560, Note_on_c, 9, 57, 29
1, 214649, Note_on_c, 9, 57, 0
1, 214650, Note_on_c, 9, 46, 66
1, 214650, Note_on_c, 9, 49, 34
1, 214769, Note_on_c, 9, 46, 0
1, 214769, Note_on_c, 9, 49, 0
1, 214770, Note_on_c, 9, 57, 40
1, 214799, Note_on_c, 9, 57, 0
1, 214860, Note_on_c, 9, 49, 44
1, 214919, Note_on_c, 9, 49, 0
1, 214950, Note_on_c, 9, 57, 51
1, 215039, Note_on_c, 9, 57, 0
1, 215040, Note_on_c, 9, 49, 55
1, 215100, Note_on_c, 9, 35, 100
1, 215129, Note_on_c, 9, 49, 0
1, 215130, Note_on_c, 9, 42, 72
1, 215130, Note_on_c, 9, 57, 62
1, 215279, Note_on_c, 9, 35, 0
1, 215519, Note_on_c, 9, 42, 0
1, 215519, Note_on_c, 9, 57, 0
1, 215580, Note_on_c, 9, 42, 47
1, 215759, Note_on_c, 9, 42, 0
1, 216000, Note_on_c, 9, 38, 104
1, 216000, Note_on_c, 9, 54, 97
1, 216000, Note_on_c, 9, 42, 75
1, 216479, Note_on_c, 9, 38, 0
1, 216479, Note_on_c, 9, 54, 0
1, 216479, Note_on_c, 9, 42, 0
1, 216480, Note_on_c, 9, 42, 55
1, 216720, Note_on_c, 9, 35, 76
1, 216959, Note_on_c, 9, 42, 0
1, 216959, Note_on_c, 9, 35, 0
1, 216960, Note_on_c, 9, 42, 75
1, 216960, Note_on_c, 9, 35, 105
1, 217439, Note_on_c, 9, 42, 0
1, 217439, Note_on_c, 9, 35, 0
1, 217440, Note_on_c, 9, 42, 58
1, 217440, Note_on_c, 9, 35, 105
1, 217919, Note_on_c, 9, 42, 0
1, 217919, Note_on_c, 9, 35, 0
1, 217950, Note_on_c, 9, 38, 109
1, 217950, Note_on_c, 9, 54, 92
1, 217950, Note_on_c, 9, 42, 75
1, 218399, Note_on_c, 9, 38, 0
1, 218399, Note_on_c, 9, 54, 0
1, 218399, Note_on_c, 9, 42, 0
1, 218400, Note_on_c, 9, 42, 57
1, 218879, Note_on_c, 9, 42, 0
1, 218910, Note_on_c, 9, 42, 72
1, 218910, Note_on_c, 9, 35, 105
1, 219359, Note_on_c, 9, 42, 0
1, 219359, Note_on_c, 9, 35, 0
1, 219360, Note_on_c, 9, 42, 57
1, 219839, Note_on_c, 9, 42, 0
1, 219840, Note_on_c, 9, 38, 109
1, 219840, Note_on_c, 9, 54, 83
1, 219840, Note_on_c, 9, 42, 72
1, 220319, Note_on_c, 9, 38, 0
1, 220319, Note_on_c, 9, 54, 0
1, 220319, Note_on_c, 9, 42, 0
1, 220320, Note_on_c, 9, 42, 55
1, 220590, Note_on_c, 9, 35, 70
1, 220679, Note_on_c, 9, 35, 0
1, 220799, Note_on_c, 9, 42, 0
1, 220800, Note_on_c, 9, 35, 100
1, 220845, Note_on_c, 9, 42, 66
1, 221039, Note_on_c, 9, 42, 0
1, 221279, Note_on_c, 9, 35, 0
1, 221280, Note_on_c, 9, 42, 51
1, 221280, Note_on_c, 9, 35, 110
1, 221759, Note_on_c, 9, 42, 0
1, 221759, Note_on_c, 9, 35, 0
1, 221760, Note_on_c, 9, 38, 109
1, 221760, Note_on_c, 9, 54, 92
1, 221760, Note_on_c, 9, 42, 75
1, 222239, Note_on_c, 9, 38, 0
1, 222239, Note_on_c, 9, 54, 0
1, 222239, Note_on_c, 9, 42, 0
1, 222240, Note_on_c, 9, 42, 57
1, 222719, Note_on_c, 9, 42, 0
1, 222750, Note_on_c, 9, 35, 105
1, 222765, Note_on_c, 9, 42, 72
1, 222959, Note_on_c, 9, 42, 0
1, 223199, Note_on_c, 9, 35, 0
1, 223200, Note_on_c, 9, 42, 52
1, 223679, Note_on_c, 9, 42, 0
1, 223680, Note_on_c, 9, 38, 104
1, 223680, Note_on_c, 9, 54, 92
1, 223680, Note_on_c, 9, 42, 72
1, 224159, Note_on_c, 9, 38, 0
1, 224159, Note_on_c, 9, 54, 0
1, 224159, Note_on_c, 9, 42, 0
1, 224220, Note_on_c, 9, 42, 51
1, 224399, Note_on_c, 9, 42, 0
1, 224430, Note_on_c, 9, 35, 81
1, 224519, Note_on_c, 9, 35, 0
1, 224640, Note_on_c, 9, 35, 105
1, 224670, Note_on_c, 9, 42, 75
1, 225119, Note_on_c, 9, 35, 0
1, 225119, Note_on_c, 9, 42, 0
1, 225150, Note_on_c, 9, 42, 51
1, 225150, Note_on_c, 9, 35, 94
1, 225599, Note_on_c, 9, 42, 0
1, 225599, Note_on_c, 9, 35, 0
1, 225630, Note_on_c, 9, 38, 99
1, 225630, Note_on_c, 9, 54, 83
1, 225630, Note_on_c, 9, 42, 72
1, 226079, Note_on_c, 9, 38, 0
1, 226079, Note_on_c, 9, 54, 0
1, 226079, Note_on_c, 9, 42, 0
1, 226095, Note_on_c, 9, 42, 45
1, 226319, Note_on_c, 9, 42, 0
1, 226560, Note_on_c, 9, 42, 75
1, 226620, Note_on_c, 9, 35, 105
1, 226799, Note_on_c, 9, 35, 0
1, 227039, Note_on_c, 9, 42, 0
1, 227040, Note_on_c, 9, 42, 51
1, 227519, Note_on_c, 9, 42, 0
1, 227520, Note_on_c, 9, 38, 104
1, 227520, Note_on_c, 9, 54, 92
1, 227520, Note_on_c, 9, 42, 75
1, 227999, Note_on_c, 9, 38, 0
1, 227999, Note_on_c, 9, 54, 0
1, 227999, Note_on_c, 9, 42, 0
1, 228030, Note_on_c, 9, 42, 55
1, 228119, Note_on_c, 9, 42, 0
1, 228300, Note_on_c, 9, 42, 50
1, 228300, Note_on_c, 9, 35, 74
1, 228479, Note_on_c, 9, 42, 0
1, 228479, Note_on_c, 9, 35, 0
1, 228540, Note_on_c, 9, 42, 75
1, 228540, Note_on_c, 9, 35, 94
1, 228719, Note_on_c, 9, 42, 0
1, 228719, Note_on_c, 9, 35, 0
1, 228960, Note_on_c, 9, 35, 105
1, 228990, Note_on_c, 9, 46, 79
1, 229439, Note_on_c, 9, 35, 0
1, 229439, Note_on_c, 9, 46, 0
1, 229440, Note_on_c, 9, 45, 33
1, 229440, Note_on_c, 9, 54, 92
1, 229440, Note_on_c, 9, 42, 79
1, 229679, Note_on_c, 9, 45, 0
1, 229679, Note_on_c, 9, 54, 0
1, 229679, Note_on_c, 9, 42, 0
1, 229710, Note_on_c, 9, 45, 62
1, 229799, Note_on_c, 9, 45, 0
1, 229980, Note_on_c, 9, 45, 100
1, 230159, Note_on_c, 9, 45, 0
1, 230520, Note_on_c, 9, 46, 79
1, 230520, Note_on_c, 9, 35, 105
1, 230879, Note_on_c, 9, 46, 0
1, 230879, Note_on_c, 9, 35, 0
1, 231360, Note_on_c, 9, 38, 104
1, 231360, Note_on_c, 9, 54, 97
1, 231360, Note_on_c, 9, 42, 66
1, 231839, Note_on_c, 9, 38, 0
1, 231839, Note_on_c, 9, 54, 0
1, 231839, Note_on_c, 9, 42, 0
1, 231840, Note_on_c, 9, 42, 55
1, 231840, Note_on_c, 9, 35, 87
1, 232319, Note_on_c, 9, 42, 0
1, 232319, Note_on_c, 9, 35, 0
1, 232320, Note_on_c, 9, 42, 72
1, 232320, Note_on_c, 9, 35, 110
1, 232799, Note_on_c, 9, 42, 0
1, 232799, Note_on_c, 9, 35, 0
1, 232800, Note_on_c, 9, 42, 55
1, 233279, Note_on_c, 9, 42, 0
1, 233310, Note_on_c, 9, 38, 109
1, 233310, Note_on_c, 9, 54, 92
1, 233310, Note_on_c, 9, 42, 75
1, 233759, Note_on_c, 9, 38, 0
1, 233759, Note_on_c, 9, 54, 0
1, 233759, Note_on_c, 9, 42, 0
1, 233775, Note_on_c, 9, 42, 57
1, 233999, Note_on_c, 9, 42, 0
1, 234240, Note_on_c, 9, 42, 72
1, 234240, Note_on_c, 9, 35, 110
1, 234719, Note_on_c, 9, 42, 0
1, 234719, Note_on_c, 9, 35, 0
1, 234750, Note_on_c, 9, 42, 58
1, 235199, Note_on_c, 9, 42, 0
1, 235200, Note_on_c, 9, 38, 109
1, 235200, Note_on_c, 9, 54, 83
1, 235200, Note_on_c, 9, 42, 72
1, 235679, Note_on_c, 9, 38, 0
1, 235679, Note_on_c, 9, 54, 0
1, 235679, Note_on_c, 9, 42, 0
1, 235680, Note_on_c, 9, 42, 52
1, 235680, Note_on_c, 9, 35, 84
1, 236159, Note_on_c, 9, 42, 0
1, 236159, Note_on_c, 9, 35, 0
1, 236190, Note_on_c, 9, 42, 72
1, 236190, Note_on_c, 9, 35, 110
1, 236639, Note_on_c, 9, 42, 0
1, 236639, Note_on_c, 9, 35, 0
1, 236640, Note_on_c, 9, 42, 55
1, 237119, Note_on_c, 9, 42, 0
1, 237150, Note_on_c, 9, 38, 109
1, 237150, Note_on_c, 9, 54, 92
1, 237150, Note_on_c, 9, 42, 72
1, 237599, Note_on_c, 9, 38, 0
1, 237599, Note_on_c, 9, 54, 0
1, 237599, Note_on_c, 9, 42, 0
1, 237600, Note_on_c, 9, 42, 58
1, 238079, Note_on_c, 9, 42, 0
1, 238080, Note_on_c, 9, 42, 75
1, 238110, Note_on_c, 9, 35, 105
1, 238559, Note_on_c, 9, 42, 0
1, 238559, Note_on_c, 9, 35, 0
1, 238560, Note_on_c, 9, 42, 55
1, 239039, Note_on_c, 9, 42, 0
1, 239100, Note_on_c, 9, 38, 109
1, 239100, Note_on_c, 9, 54, 92
1, 239100, Note_on_c, 9, 42, 75
1, 239279, Note_on_c, 9, 38, 0
1, 239279, Note_on_c, 9, 54, 0
1, 239279, Note_on_c, 9, 42, 0
1, 239535, Note_on_c, 9, 42, 62
1, 239550, Note_on_c, 9, 35, 78
1, 239759, Note_on_c, 9, 42, 0
1, 239999, Note_on_c, 9, 35, 0
1, 240060, Note_on_c, 9, 42, 66
1, 240060, Note_on_c, 9, 35, 100
1, 240239, Note_on_c, 9, 42, 0
1, 240239, Note_on_c, 9, 35, 0
1, 240480, Note_on_c, 9, 42, 51
1, 240959, Note_on_c, 9, 42, 0
1, 240960, Note_on_c, 9, 38, 115
1, 240960, Note_on_c, 9, 54, 83
1, 240960, Note_on_c, 9, 42, 72
1, 241439, Note_on_c, 9, 38, 0
1, 241439, Note_on_c, 9, 54, 0
1, 241439, Note_on_c, 9, 42, 0
1, 241440, Note_on_c, 9, 42, 41
1, 241919, Note_on_c, 9, 42, 0
1, 241920, Note_on_c, 9, 42, 72
1, 241920, Note_on_c, 9, 35, 110
1, 242399, Note_on_c, 9, 42, 0
1, 242399, Note_on_c, 9, 35, 0
1, 242400, Note_on_c, 9, 42, 55
1, 242879, Note_on_c, 9, 42, 0
1, 242880, Note_on_c, 9, 38, 109
1, 242880, Note_on_c, 9, 54, 92
1, 242880, Note_on_c, 9, 42, 75
1, 243359, Note_on_c, 9, 38, 0
1, 243359, Note_on_c, 9, 54, 0
1, 243359, Note_on_c, 9, 42, 0
1, 243360, Note_on_c, 9, 35, 72
1, 243375, Note_on_c, 9, 42, 51
1, 243599, Note_on_c, 9, 42, 0
1, 243839, Note_on_c, 9, 35, 0
1, 243840, Note_on_c, 9, 42, 75
1, 243870, Note_on_c, 9, 35, 105
1, 244319, Note_on_c, 9, 42, 0
1, 244319, Note_on_c, 9, 35, 0
1, 244320, Note_on_c, 9, 42, 64
1, 244560, Note_on_c, 9, 35, 100
1, 244799, Note_on_c, 9, 42, 0
1, 244799, Note_on_c, 9, 35, 0
1, 244800, Note_on_c, 9, 54, 92
1, 244819, Note_on_c, 9, 54, 0
1, 244820, Note_on_c, 9, 45, 87
1, 244879, Note_on_c, 9, 45, 0
1, 244880, Note_on_c, 9, 57, 17
1, 244919, Note_on_c, 9, 57, 0
1, 244950, Note_on_c, 9, 49, 22
1, 245039, Note_on_c, 9, 49, 0
1, 245040, Note_on_c, 9, 57, 24
1, 245159, Note_on_c, 9, 57, 0
1, 245160, Note_on_c, 9, 49, 27
1, 245239, Note_on_c, 9, 49, 0
1, 245240, Note_on_c, 9, 57, 29
1, 245279, Note_on_c, 9, 57, 0
1, 245280, Note_on_c, 9, 41, 81
1, 245339, Note_on_c, 9, 41, 0
1, 245340, Note_on_c, 9, 49, 34
1, 245459, Note_on_c, 9, 49, 0
1, 245460, Note_on_c, 9, 57, 40
1, 245519, Note_on_c, 9, 57, 0
1, 245520, Note_on_c, 9, 49, 44
1, 245609, Note_on_c, 9, 49, 0
1, 245625, Note_on_c, 9, 57, 51
1, 245699, Note_on_c, 9, 57, 0
1, 245700, Note_on_c, 9, 49, 55
1, 245759, Note_on_c, 9, 49, 0
1, 245760, Note_on_c, 9, 55, 91
1, 245760, Note_on_c, 9, 35, 105
1, 245819, Note_on_c, 9, 55, 0
1, 245820, Note_on_c, 9, 57, 62
1, 245999, Note_on_c, 9, 57, 0
1, 246239, Note_on_c, 9, 35, 0
1, 246720, Note_on_c, 9, 38, 104
1, 246720, Note_on_c, 9, 54, 97
1, 246720, Note_on_c, 9, 42, 75
1, 247199, Note_on_c, 9, 38, 0
1, 247199, Note_on_c, 9, 54, 0
1, 247199, Note_on_c, 9, 42, 0
1, 247200, Note_on_c, 9, 42, 57
1, 247470, Note_on_c, 9, 35, 69
1, 247559, Note_on_c, 9, 35, 0
1, 247679, Note_on_c, 9, 42, 0
1, 247680, Note_on_c, 9, 42, 75
1, 247710, Note_on_c, 9, 35, 94
1, 248159, Note_on_c, 9, 42, 0
1, 248159, Note_on_c, 9, 35, 0
1, 248160, Note_on_c, 9, 42, 51
1, 248160, Note_on_c, 9, 35, 100
1, 248639, Note_on_c, 9, 42, 0
1, 248639, Note_on_c, 9, 35, 0
1, 248640, Note_on_c, 9, 38, 109
1, 248640, Note_on_c, 9, 54, 92
1, 248640, Note_on_c, 9, 42, 75
1, 249119, Note_on_c, 9, 38, 0
1, 249119, Note_on_c, 9, 54, 0
1, 249119, Note_on_c, 9, 42, 0
1, 249120, Note_on_c, 9, 42, 55
1, 249599, Note_on_c, 9, 42, 0
1, 249600, Note_on_c, 9, 35, 110
1, 249630, Note_on_c, 9, 42, 75
1, 250079, Note_on_c, 9, 35, 0
1, 250079, Note_on_c, 9, 42, 0
1, 250110, Note_on_c, 9, 42, 57
1, 250559, Note_on_c, 9, 42, 0
1, 250560, Note_on_c, 9, 38, 109
1, 250560, Note_on_c, 9, 54, 83
1, 250560, Note_on_c, 9, 42, 72
1, 251039, Note_on_c, 9, 38, 0
1, 251039, Note_on_c, 9, 54, 0
1, 251039, Note_on_c, 9, 42, 0
1, 251040, Note_on_c, 9, 42, 52
1, 251280, Note_on_c, 9, 35, 78
1, 251519, Note_on_c, 9, 42, 0
1, 251519, Note_on_c, 9, 35, 0
1, 251550, Note_on_c, 9, 42, 75
1, 251550, Note_on_c, 9, 35, 100
1, 251999, Note_on_c, 9, 42, 0
1, 251999, Note_on_c, 9, 35, 0
1, 252000, Note_on_c, 9, 42, 62
1, 252000, Note_on_c, 9, 35, 105
1, 252479, Note_on_c, 9, 42, 0
1, 252479, Note_on_c, 9, 35, 0
1, 252510, Note_on_c, 9, 38, 109
1, 252510, Note_on_c, 9, 54, 92
1, 252510, Note_on_c, 9, 42, 75
1, 252959, Note_on_c, 9, 38, 0
1, 252959, Note_on_c, 9, 54, 0
1, 252959, Note_on_c, 9, 42, 0
1, 252960, Note_on_c, 9, 46, 66
1, 253439, Note_on_c, 9, 46, 0
1, 253500, Note_on_c, 9, 42, 75
1, 253500, Note_on_c, 9, 35, 110
1, 253679, Note_on_c, 9, 42, 0
1, 253679, Note_on_c, 9, 35, 0
1, 253920, Note_on_c, 9, 42, 52
1, 254399, Note_on_c, 9, 42, 0
1, 254400, Note_on_c, 9, 38, 104
1, 254400, Note_on_c, 9, 54, 92
1, 254400, Note_on_c, 9, 42, 79
1, 254879, Note_on_c, 9, 38, 0
1, 254879, Note_on_c, 9, 54, 0
1, 254879, Note_on_c, 9, 42, 0
1, 254880, Note_on_c, 9, 42, 57
1, 255120, Note_on_c, 9, 35, 66
1, 255359, Note_on_c, 9, 42, 0
1, 255359, Note_on_c, 9, 35, 0
1, 255360, Note_on_c, 9, 42, 72
1, 255360, Note_on_c, 9, 35, 110
1, 255839, Note_on_c, 9, 42, 0
1, 255839, Note_on_c, 9, 35, 0
1, 255840, Note_on_c, 9, 42, 57
1, 255840, Note_on_c, 9, 35, 100
1, 256319, Note_on_c, 9, 42, 0
1, 256319, Note_on_c, 9, 35, 0
1, 256320, Note_on_c, 9, 38, 99
1, 256320, Note_on_c, 9, 54, 83
1, 256320, Note_on_c, 9, 42, 72
1, 256799, Note_on_c, 9, 38, 0
1, 256799, Note_on_c, 9, 54, 0
1, 256799, Note_on_c, 9, 42, 0
1, 256800, Note_on_c, 9, 42, 51
1, 257279, Note_on_c, 9, 42, 0
1, 257280, Note_on_c, 9, 42, 72
1, 257280, Note_on_c, 9, 35, 105
1, 257759, Note_on_c, 9, 42, 0
1, 257759, Note_on_c, 9, 35, 0
1, 257760, Note_on_c, 9, 42, 55
1, 258239, Note_on_c, 9, 42, 0
1, 258240, Note_on_c, 9, 38, 104
1, 258240, Note_on_c, 9, 54, 92
1, 258240, Note_on_c, 9, 42, 66
1, 258719, Note_on_c, 9, 38, 0
1, 258719, Note_on_c, 9, 54, 0
1, 258719, Note_on_c, 9, 42, 0
1, 258720, Note_on_c, 9, 42, 52
1, 258959, Note_on_c, 9, 42, 0
1, 258990, Note_on_c, 9, 35, 72
1, 259020, Note_on_c, 9, 42, 58
1, 259079, Note_on_c, 9, 35, 0
1, 259199, Note_on_c, 9, 42, 0
1, 259260, Note_on_c, 9, 42, 79
1, 259260, Note_on_c, 9, 35, 100
1, 259439, Note_on_c, 9, 42, 0
1, 259439, Note_on_c, 9, 35, 0
1, 259680, Note_on_c, 9, 42, 57
1, 259680, Note_on_c, 9, 35, 94
1, 260159, Note_on_c, 9, 42, 0
1, 260159, Note_on_c, 9, 35, 0
1, 260160, Note_on_c, 9, 38, 104
1, 260160, Note_on_c, 9, 54, 92
1, 260160, Note_on_c, 9, 42, 72
1, 260639, Note_on_c, 9, 38, 0
1, 260639, Note_on_c, 9, 54, 0
1, 260639, Note_on_c, 9, 42, 0
1, 260640, Note_on_c, 9, 42, 52
1, 261119, Note_on_c, 9, 42, 0
1, 261120, Note_on_c, 9, 42, 72
1, 261120, Note_on_c, 9, 35, 100
1, 261599, Note_on_c, 9, 42, 0
1, 261599, Note_on_c, 9, 35, 0
1, 261660, Note_on_c, 9, 42, 51
1, 261839, Note_on_c, 9, 42, 0
1, 262100, Note_on_c, 9, 38, 104
1, 262119, Note_on_c, 9, 38, 0
1, 262120, Note_on_c, 9, 54, 97
1, 262120, Note_on_c, 9, 42, 72
1, 262139, Note_on_c, 9, 54, 0
1, 262139, Note_on_c, 9, 42, 0
1, 262560, Note_on_c, 9, 42, 62
1, 262815, Note_on_c, 9, 35, 76
1, 263039, Note_on_c, 9, 42, 0
1, 263039, Note_on_c, 9, 35, 0
1, 263070, Note_on_c, 9, 35, 105
1, 263100, Note_on_c, 9, 42, 75
1, 263279, Note_on_c, 9, 42, 0
1, 263519, Note_on_c, 9, 35, 0
1, 263520, Note_on_c, 9, 42, 58
1, 263520, Note_on_c, 9, 35, 100
1, 263999, Note_on_c, 9, 42, 0
1, 263999, Note_on_c, 9, 35, 0
1, 264030, Note_on_c, 9, 38, 109
1, 264030, Note_on_c, 9, 54, 92
1, 264030, Note_on_c, 9, 42, 72
1, 264479, Note_on_c, 9, 38, 0
1, 264479, Note_on_c, 9, 54, 0
1, 264479, Note_on_c, 9, 42, 0
1, 264540, Note_on_c, 9, 42, 42
1, 264719, Note_on_c, 9, 42, 0
1, 264960, Note_on_c, 9, 35, 105
1, 265020, Note_on_c, 9, 42, 72
1, 265199, Note_on_c, 9, 42, 0
1, 265439, Note_on_c, 9, 35, 0
1, 265470, Note_on_c, 9, 42, 64
1, 265919, Note_on_c, 9, 42, 0
1, 265920, Note_on_c, 9, 38, 109
1, 265920, Note_on_c, 9, 54, 83
1, 265920, Note_on_c, 9, 42, 79
1, 266399, Note_on_c, 9, 38, 0
1, 266399, Note_on_c, 9, 54, 0
1, 266399, Note_on_c, 9, 42, 0
1, 266400, Note_on_c, 9, 42, 57
1, 266639, Note_on_c, 9, 42, 0
1, 266670, Note_on_c, 9, 42, 64
1, 266670, Note_on_c, 9, 35, 76
1, 266759, Note_on_c, 9, 42, 0
1, 266759, Note_on_c, 9, 35, 0
1, 266910, Note_on_c, 9, 42, 79
1, 266910, Note_on_c, 9, 35, 105
1, 267359, Note_on_c, 9, 42, 0
1, 267359, Note_on_c, 9, 35, 0
1, 267360, Note_on_c, 9, 46, 72
1, 267360, Note_on_c, 9, 35, 105
1, 267839, Note_on_c, 9, 46, 0
1, 267839, Note_on_c, 9, 35, 0
1, 267855, Note_on_c, 9, 38, 109
1, 267855, Note_on_c, 9, 54, 92
1, 267855, Note_on_c, 9, 42, 75
1, 267899, Note_on_c, 9, 38, 0
1, 267899, Note_on_c, 9, 54, 0
1, 267899, Note_on_c, 9, 42, 0
1, 267960, Note_on_c, 9, 57, 17
1, 268019, Note_on_c, 9, 57, 0
1, 268020, Note_on_c, 9, 49, 22
1, 268079, Note_on_c, 9, 49, 0
1, 268140, Note_on_c, 9, 57, 24
1, 268259, Note_on_c, 9, 57, 0
1, 268260, Note_on_c, 9, 49, 27
1, 268319, Note_on_c, 9, 49, 0
1, 268320, Note_on_c, 9, 57, 29
1, 268379, Note_on_c, 9, 57, 0
1, 268395, Note_on_c, 9, 42, 57
1, 268439, Note_on_c, 9, 42, 0
1, 268440, Note_on_c, 9, 49, 34
1, 268529, Note_on_c, 9, 49, 0
1, 268545, Note_on_c, 9, 57, 40
1, 268649, Note_on_c, 9, 57, 0
1, 268650, Note_on_c, 9, 49, 44
1, 268679, Note_on_c, 9, 49, 0
1, 268740, Note_on_c, 9, 57, 51
1, 268799, Note_on_c, 9, 57, 0
1, 268800, Note_on_c, 9, 49, 55
1, 268919, Note_on_c, 9, 49, 0
1, 268920, Note_on_c, 9, 42, 72
1, 268920, Note_on_c, 9, 35, 100
1, 268950, Note_on_c, 9, 57, 62
1, 269039, Note_on_c, 9, 57, 0
1, 269279, Note_on_c, 9, 42, 0
1, 269279, Note_on_c, 9, 35, 0
1, 269400, Note_on_c, 9, 42, 64
1, 269759, Note_on_c, 9, 42, 0
1, 269760, Note_on_c, 9, 38, 109
1, 269760, Note_on_c, 9, 54, 92
1, 269760, Note_on_c, 9, 42, 75
1, 270239, Note_on_c, 9, 38, 0
1, 270239, Note_on_c, 9, 54, 0
1, 270239, Note_on_c, 9, 42, 0
1, 270240, Note_on_c, 9, 42, 62
1, 270479, Note_on_c, 9, 42, 0
1, 270495, Note_on_c, 9, 42, 62
1, 270540, Note_on_c, 9, 35, 78
1, 270719, Note_on_c, 9, 42, 0
1, 270719, Note_on_c, 9, 35, 0
1, 270720, Note_on_c, 9, 42, 79
1, 270720, Note_on_c, 9, 35, 105
1, 271199, Note_on_c, 9, 42, 0
1, 271199, Note_on_c, 9, 35, 0
1, 271260, Note_on_c, 9, 46, 75
1, 271260, Note_on_c, 9, 35, 105
1, 271439, Note_on_c, 9, 46, 0
1, 271439, Note_on_c, 9, 35, 0
1, 271710, Note_on_c, 9, 38, 115
1, 271710, Note_on_c, 9, 54, 83
1, 271710, Note_on_c, 9, 42, 64
1, 272159, Note_on_c, 9, 38, 0
1, 272159, Note_on_c, 9, 54, 0
1, 272159, Note_on_c, 9, 42, 0
1, 272220, Note_on_c, 9, 42, 64
1, 272399, Note_on_c, 9, 42, 0
1, 272730, Note_on_c, 9, 38, 12
1, 272730, Note_on_c, 9, 35, 110
1, 272760, Note_on_c, 9, 46, 79
1, 272819, Note_on_c, 9, 38, 0
1, 272819, Note_on_c, 9, 46, 0
1, 272820, Note_on_c, 9, 38, 12
1, 272879, Note_on_c, 9, 38, 0
1, 272880, Note_on_c, 9, 38, 12
1, 272939, Note_on_c, 9, 38, 0
1, 272940, Note_on_c, 9, 38, 13
1, 272984, Note_on_c, 9, 38, 0
1, 272985, Note_on_c, 9, 38, 14
1, 273059, Note_on_c, 9, 38, 0
1, 273060, Note_on_c, 9, 38, 14
1, 273119, Note_on_c, 9, 35, 0
1, 273119, Note_on_c, 9, 38, 0
1, 273120, Note_on_c, 9, 38, 14
1, 273153, Note_on_c, 9, 38, 0
1, 273189, Note_on_c, 9, 38, 14
1, 273222, Note_on_c, 9, 38, 0
1, 273257, Note_on_c, 9, 38, 14
1, 273290, Note_on_c, 9, 38, 0
1, 273326, Note_on_c, 9, 38, 15
1, 273359, Note_on_c, 9, 38, 0
1, 273394, Note_on_c, 9, 38, 15
1, 273462, Note_on_c, 9, 38, 0
1, 273463, Note_on_c, 9, 38, 15
1, 273496, Note_on_c, 9, 38, 0
1, 273531, Note_on_c, 9, 38, 15
1, 273599, Note_on_c, 9, 38, 0
1, 273600, Note_on_c, 9, 38, 15
1, 273679, Note_on_c, 9, 38, 0
1, 273680, Note_on_c, 9, 38, 15
1, 273719, Note_on_c, 9, 38, 0
1, 273720, Note_on_c, 9, 38, 16
1, 273779, Note_on_c, 9, 38, 0
1, 273780, Note_on_c, 9, 38, 16
1, 273780, Note_on_c, 9, 54, 92
1, 273839, Note_on_c, 9, 38, 0
1, 273839, Note_on_c, 9, 54, 0
1, 273870, Note_on_c, 9, 38, 16
1, 273959, Note_on_c, 9, 38, 0
1, 273960, Note_on_c, 9, 38, 16
1, 274004, Note_on_c, 9, 38, 0
1, 274005, Note_on_c, 9, 38, 16
1, 274079, Note_on_c, 9, 38, 0
1, 274080, Note_on_c, 9, 38, 16
1, 274139, Note_on_c, 9, 38, 0
1, 274140, Note_on_c, 9, 38, 16
1, 274199, Note_on_c, 9, 38, 0
1, 274200, Note_on_c, 9, 38, 16
1, 274259, Note_on_c, 9, 38, 0
1, 274260, Note_on_c, 9, 38, 17
1, 274319, Note_on_c, 9, 38, 0
1, 274320, Note_on_c, 9, 38, 18
1, 274379, Note_on_c, 9, 38, 0
1, 274380, Note_on_c, 9, 38, 18
1, 274439, Note_on_c, 9, 38, 0
1, 274440, Note_on_c, 9, 38, 16
1, 274499, Note_on_c, 9, 38, 0
1, 274500, Note_on_c, 9, 38, 17
1, 274559, Note_on_c, 9, 38, 0
1, 274560, Note_on_c, 9, 38, 17
1, 274619, Note_on_c, 9, 38, 0
1, 274620, Note_on_c, 9, 38, 17
1, 274679, Note_on_c, 9, 38, 0
1, 274680, Note_on_c, 9, 38, 18
1, 274769, Note_on_c, 9, 38, 0
1, 274770, Note_on_c, 9, 38, 18
1, 274799, Note_on_c, 9, 38, 0
1, 274830, Note_on_c, 9, 38, 19
1, 274919, Note_on_c, 9, 38, 0
1, 274920, Note_on_c, 9, 38, 20
1, 274920, Note_on_c, 9, 57, 2
1, 274964, Note_on_c, 9, 38, 0
1, 274964, Note_on_c, 9, 57, 0
1, 274965, Note_on_c, 9, 38, 22
1, 275024, Note_on_c, 9, 38, 0
1, 275025, Note_on_c, 9, 38, 22
1, 275025, Note_on_c, 9, 49, 3
1, 275099, Note_on_c, 9, 38, 0
1, 275099, Note_on_c, 9, 49, 0
1, 275100, Note_on_c, 9, 38, 23
1, 275100, Note_on_c, 9, 57, 5
1, 275159, Note_on_c, 9, 38, 0
1, 275159, Note_on_c, 9, 57, 0
1, 275160, Note_on_c, 9, 38, 24
1, 275219, Note_on_c, 9, 38, 0
1, 275220, Note_on_c, 9, 38, 24
1, 275220, Note_on_c, 9, 49, 6
1, 275279, Note_on_c, 9, 38, 0
1, 275279, Note_on_c, 9, 49, 0
1, 275310, Note_on_c, 9, 38, 25
1, 275340, Note_on_c, 9, 57, 9
1, 275399, Note_on_c, 9, 38, 0
1, 275399, Note_on_c, 9, 57, 0
1, 275420, Note_on_c, 9, 38, 25
1, 275439, Note_on_c, 9, 38, 0
1, 275440, Note_on_c, 9, 38, 26
1, 275479, Note_on_c, 9, 38, 0
1, 275480, Note_on_c, 9, 49, 11
1, 275519, Note_on_c, 9, 49, 0
1, 275520, Note_on_c, 9, 38, 26
1, 275559, Note_on_c, 9, 38, 0
1, 275560, Note_on_c, 9, 57, 14
1, 275599, Note_on_c, 9, 57, 0
1, 275600, Note_on_c, 9, 38, 27
1, 275639, Note_on_c, 9, 38, 0
1, 275640, Note_on_c, 9, 38, 28
1, 275640, Note_on_c, 9, 49, 15
1, 275699, Note_on_c, 9, 49, 0
1, 275729, Note_on_c, 9, 38, 0
1, 275730, Note_on_c, 9, 38, 30
1, 275759, Note_on_c, 9, 38, 0
1, 275790, Note_on_c, 9, 38, 31
1, 275790, Note_on_c, 9, 57, 18
1, 275879, Note_on_c, 9, 38, 0
1, 275879, Note_on_c, 9, 57, 0
1, 275880, Note_on_c, 9, 38, 31
1, 275880, Note_on_c, 9, 49, 20
1, 275939, Note_on_c, 9, 38, 0
1, 275939, Note_on_c, 9, 49, 0
1, 275940, Note_on_c, 9, 38, 32
1, 275940, Note_on_c, 9, 54, 92
1, 275999, Note_on_c, 9, 38, 0
1, 275999, Note_on_c, 9, 54, 0
1, 276000, Note_on_c, 9, 38, 32
1, 276000, Note_on_c, 9, 57, 23
1, 276059, Note_on_c, 9, 38, 0
1, 276059, Note_on_c, 9, 57, 0
1, 276060, Note_on_c, 9, 38, 34
1, 276060, Note_on_c, 9, 49, 26
1, 276119, Note_on_c, 9, 38, 0
1, 276119, Note_on_c, 9, 49, 0
1, 276120, Note_on_c, 9, 38, 34
1, 276179, Note_on_c, 9, 38, 0
1, 276180, Note_on_c, 9, 38, 36
1, 276180, Note_on_c, 9, 57, 31
1, 276239, Note_on_c, 9, 38, 0
1, 276239, Note_on_c, 9, 57, 0
1, 276270, Note_on_c, 9, 38, 37
1, 276314, Note_on_c, 9, 38, 0
1, 276315, Note_on_c, 9, 49, 33
1, 276359, Note_on_c, 9, 49, 0
1, 276360, Note_on_c, 9, 38, 39
1, 276419, Note_on_c, 9, 38, 0
1, 276420, Note_on_c, 9, 38, 39
1, 276420, Note_on_c, 9, 57, 35
1, 276479, Note_on_c, 9, 38, 0
1, 276479, Note_on_c, 9, 57, 0
1, 276480, Note_on_c, 9, 38, 42
1, 276509, Note_on_c, 9, 38, 0
1, 276510, Note_on_c, 9, 49, 40
1, 276539, Note_on_c, 9, 49, 0
1, 276540, Note_on_c, 9, 38, 43
1, 276599, Note_on_c, 9, 38, 0
1, 276600, Note_on_c, 9, 38, 44
1, 276619, Note_on_c, 9, 38, 0
1, 276620, Note_on_c, 9, 57, 44
1, 276679, Note_on_c, 9, 57, 0
1, 276680, Note_on_c, 9, 38, 43
1, 276719, Note_on_c, 9, 38, 0
1, 276720, Note_on_c, 9, 49, 48
1, 276736, Note_on_c, 9, 49, 0
1, 276737, Note_on_c, 9, 38, 43
1, 276787, Note_on_c, 9, 38, 0
1, 276789, Note_on_c, 9, 38, 46
1, 276805, Note_on_c, 9, 38, 0
1, 276806, Note_on_c, 9, 57, 53
1, 276856, Note_on_c, 9, 57, 0
1, 276857, Note_on_c, 9, 38, 47
1, 276890, Note_on_c, 9, 38, 0
1, 276891, Note_on_c, 9, 49, 58
1, 276907, Note_on_c, 9, 49, 0
1, 276909, Note_on_c, 9, 38, 47
1, 276959, Note_on_c, 9, 38, 0
1, 276960, Note_on_c, 9, 55, 94
1, 276960, Note_on_c, 9, 35, 110
1, 276989, Note_on_c, 9, 55, 0
1, 276990, Note_on_c, 9, 57, 61
1, 277439, Note_on_c, 9, 35, 0
1, 277439, Note_on_c, 9, 57, 0
1, 277455, Note_on_c, 9, 59, 94
1, 277679, Note_on_c, 9, 59, 0
1, 277920, Note_on_c, 9, 38, 113
1, 277920, Note_on_c, 9, 54, 97
1, 277920, Note_on_c, 9, 59, 100
1, 278399, Note_on_c, 9, 38, 0
1, 278399, Note_on_c, 9, 54, 0
1, 278399, Note_on_c, 9, 59, 0
1, 278400, Note_on_c, 9, 59, 100
1, 278400, Note_on_c, 9, 35, 84
1, 278879, Note_on_c, 9, 59, 0
1, 278879, Note_on_c, 9, 35, 0
1, 278880, Note_on_c, 9, 59, 94
1, 278880, Note_on_c, 9, 35, 110
1, 279359, Note_on_c, 9, 59, 0
1, 279359, Note_on_c, 9, 35, 0
1, 279360, Note_on_c, 9, 59, 87
1, 279839, Note_on_c, 9, 59, 0
1, 279840, Note_on_c, 9, 38, 112
1, 279840, Note_on_c, 9, 54, 92
1, 279884, Note_on_c, 9, 38, 0
1, 279884, Note_on_c, 9, 54, 0
1, 279885, Note_on_c, 9, 59, 100
1, 280079, Note_on_c, 9, 59, 0
1, 280320, Note_on_c, 9, 59, 94
1, 280799, Note_on_c, 9, 59, 0
1, 280860, Note_on_c, 9, 57, 100
1, 280860, Note_on_c, 9, 35, 105
1, 281039, Note_on_c, 9, 57, 0
1, 281039, Note_on_c, 9, 35, 0
1, 281280, Note_on_c, 9, 59, 84
1, 281759, Note_on_c, 9, 59, 0
1, 281760, Note_on_c, 9, 38, 109
1, 281760, Note_on_c, 9, 54, 83
1, 281760, Note_on_c, 9, 59, 94
1, 282239, Note_on_c, 9, 38, 0
1, 282239, Note_on_c, 9, 54, 0
1, 282239, Note_on_c, 9, 59, 0
1, 282240, Note_on_c, 9, 59, 91
1, 282240, Note_on_c, 9, 35, 78
1, 282719, Note_on_c, 9, 59, 0
1, 282719, Note_on_c, 9, 35, 0
1, 282720, Note_on_c, 9, 59, 94
1, 282720, Note_on_c, 9, 35, 110
1, 283199, Note_on_c, 9, 59, 0
1, 283199, Note_on_c, 9, 35, 0
1, 283200, Note_on_c, 9, 59, 87
1, 283679, Note_on_c, 9, 59, 0
1, 283710, Note_on_c, 9, 38, 109
1, 283710, Note_on_c, 9, 54, 92
1, 283710, Note_on_c, 9, 59, 100
1, 284159, Note_on_c, 9, 38, 0
1, 284159, Note_on_c, 9, 54, 0
1, 284159, Note_on_c, 9, 59, 0
1, 284160, Note_on_c, 9, 59, 87
1, 284639, Note_on_c, 9, 59, 0
1, 284640, Note_on_c, 9, 57, 87
1, 284640, Note_on_c, 9, 35, 105
1, 285119, Note_on_c, 9, 57, 0
1, 285119, Note_on_c, 9, 35, 0
1, 285120, Note_on_c, 9, 59, 87
1, 285599, Note_on_c, 9, 59, 0
1, 285600, Note_on_c, 9, 38, 104
1, 285600, Note_on_c, 9, 54, 92
1, 285600, Note_on_c, 9, 59, 94
1, 286079, Note_on_c, 9, 38, 0
1, 286079, Note_on_c, 9, 54, 0
1, 286079, Note_on_c, 9, 59, 0
1, 286080, Note_on_c, 9, 59, 87
1, 286095, Note_on_c, 9, 35, 70
1, 286319, Note_on_c, 9, 35, 0
1, 286559, Note_on_c, 9, 59, 0
1, 286560, Note_on_c, 9, 59, 91
1, 286590, Note_on_c, 9, 35, 105
1, 287039, Note_on_c, 9, 59, 0
1, 287039, Note_on_c, 9, 35, 0
1, 287040, Note_on_c, 9, 59, 87
1, 287519, Note_on_c, 9, 59, 0
1, 287580, Note_on_c, 9, 38, 99
1, 287580, Note_on_c, 9, 54, 83
1, 287580, Note_on_c, 9, 59, 94
1, 287759, Note_on_c, 9, 38, 0
1, 287759, Note_on_c, 9, 54, 0
1, 287759, Note_on_c, 9, 59, 0
1, 288000, Note_on_c, 9, 59, 94
1, 288479, Note_on_c, 9, 59, 0
1, 288510, Note_on_c, 9, 57, 100
1, 288540, Note_on_c, 9, 35, 105
1, 288719, Note_on_c, 9, 35, 0
1, 288959, Note_on_c, 9, 57, 0
1, 289440, Note_on_c, 9, 45, 76
1, 289459, Note_on_c, 9, 45, 0
1, 289460, Note_on_c, 9, 45, 100
1, 289460, Note_on_c, 9, 54, 92
1, 289499, Note_on_c, 9, 45, 0
1, 289499, Note_on_c, 9, 54, 0
1, 290400, Note_on_c, 9, 45, 76
1, 290414, Note_on_c, 9, 45, 0
1, 290415, Note_on_c, 9, 45, 105
1, 290639, Note_on_c, 9, 45, 0
1, 291160, Note_on_c, 9, 43, 76
1, 291199, Note_on_c, 9, 43, 0
1, 291200, Note_on_c, 9, 43, 99
1, 291239, Note_on_c, 9, 43, 0
1, 291420, Note_on_c, 9, 54, 92
1, 291420, Note_on_c, 9, 43, 99
1, 291439, Note_on_c, 9, 43, 0
1, 291440, Note_on_c, 9, 43, 101
1, 291479, Note_on_c, 9, 43, 0
1, 291599, Note_on_c, 9, 54, 0
1, 291840, Note_on_c, 9, 35, 94
1, 292319, Note_on_c, 9, 35, 0
1, 292320, Note_on_c, 9, 57, 91
1, 292320, Note_on_c, 9, 35, 100
1, 292799, Note_on_c, 9, 57, 0
1, 292799, Note_on_c, 9, 35, 0
1, 293280, Note_on_c, 9, 38, 104
1, 293280, Note_on_c, 9, 54, 97
1, 293280, Note_on_c, 9, 59, 91
1, 293759, Note_on_c, 9, 38, 0
1, 293759, Note_on_c, 9, 54, 0
1, 293759, Note_on_c, 9, 59, 0
1, 293760, Note_on_c, 9, 59, 84
1, 293760, Note_on_c, 9, 35, 78
1, 294239, Note_on_c, 9, 59, 0
1, 294239, Note_on_c, 9, 35, 0
1, 294240, Note_on_c, 9, 59, 105
1, 294240, Note_on_c, 9, 35, 105
1, 294719, Note_on_c, 9, 59, 0
1, 294719, Note_on_c, 9, 35, 0
1, 294720, Note_on_c, 9, 59, 91
1, 295199, Note_on_c, 9, 59, 0
1, 295230, Note_on_c, 9, 38, 109
1, 295230, Note_on_c, 9, 54, 92
1, 295230, Note_on_c, 9, 59, 91
1, 295679, Note_on_c, 9, 38, 0
1, 295679, Note_on_c, 9, 54, 0
1, 295679, Note_on_c, 9, 59, 0
1, 295725, Note_on_c, 9, 59, 87
1, 295919, Note_on_c, 9, 59, 0
1, 296160, Note_on_c, 9, 57, 91
1, 296190, Note_on_c, 9, 35, 105
1, 296639, Note_on_c, 9, 57, 0
1, 296639, Note_on_c, 9, 35, 0
1, 296640, Note_on_c, 9, 59, 84
1, 297119, Note_on_c, 9, 59, 0
1, 297150, Note_on_c, 9, 38, 109
1, 297150, Note_on_c, 9, 54, 83
1, 297150, Note_on_c, 9, 59, 91
1, 297599, Note_on_c, 9, 38, 0
1, 297599, Note_on_c, 9, 54, 0
1, 297599, Note_on_c, 9, 59, 0
1, 297600, Note_on_c, 9, 59, 84
1, 297600, Note_on_c, 9, 35, 84
1, 298079, Note_on_c, 9, 59, 0
1, 298079, Note_on_c, 9, 35, 0
1, 298080, Note_on_c, 9, 59, 100
1, 298080, Note_on_c, 9, 35, 110
1, 298559, Note_on_c, 9, 59, 0
1, 298559, Note_on_c, 9, 35, 0
1, 298560, Note_on_c, 9, 59, 87
1, 299039, Note_on_c, 9, 59, 0
1, 299040, Note_on_c, 9, 38, 109
1, 299040, Note_on_c, 9, 54, 92
1, 299040, Note_on_c, 9, 59, 100
1, 299519, Note_on_c, 9, 38, 0
1, 299519, Note_on_c, 9, 54, 0
1, 299519, Note_on_c, 9, 59, 0
1, 299520, Note_on_c, 9, 59, 87
1, 299999, Note_on_c, 9, 59, 0
1, 300000, Note_on_c, 9, 35, 110
1, 300015, Note_on_c, 9, 57, 94
1, 300239, Note_on_c, 9, 57, 0
1, 300479, Note_on_c, 9, 35, 0
1, 300960, Note_on_c, 9, 38, 109
1, 300960, Note_on_c, 9, 54, 92
1, 300960, Note_on_c, 9, 59, 94
1, 301439, Note_on_c, 9, 38, 0
1, 301439, Note_on_c, 9, 54, 0
1, 301439, Note_on_c, 9, 59, 0
1, 301920, Note_on_c, 9, 59, 94
1, 302399, Note_on_c, 9, 59, 0
1, 302880, Note_on_c, 9, 38, 115
1, 302880, Note_on_c, 9, 54, 83
1, 302880, Note_on_c, 9, 59, 100
1, 303239, Note_on_c, 9, 38, 0
1, 303239, Note_on_c, 9, 54, 0
1, 303239, Note_on_c, 9, 59, 0
1, 303300, Note_on_c, 9, 57, 7
1, 303359, Note_on_c, 9, 57, 0
1, 303360, Note_on_c, 9, 49, 10
1, 303479, Note_on_c, 9, 49, 0
1, 303480, Note_on_c, 9, 57, 16
1, 303599, Note_on_c, 9, 57, 0
1, 303600, Note_on_c, 9, 35, 60
1, 303620, Note_on_c, 9, 49, 20
1, 303679, Note_on_c, 9, 49, 0
1, 303680, Note_on_c, 9, 57, 29
1, 303719, Note_on_c, 9, 57, 0
1, 303750, Note_on_c, 9, 49, 32
1, 303839, Note_on_c, 9, 35, 0
1, 303839, Note_on_c, 9, 49, 0
1, 303840, Note_on_c, 9, 59, 105
1, 303840, Note_on_c, 9, 57, 38
1, 303840, Note_on_c, 9, 35, 94
1, 304319, Note_on_c, 9, 59, 0
1, 304319, Note_on_c, 9, 57, 0
1, 304319, Note_on_c, 9, 35, 0
1, 304800, Note_on_c, 9, 38, 109
1, 304800, Note_on_c, 9, 54, 92
1, 304800, Note_on_c, 9, 59, 100
1, 305279, Note_on_c, 9, 38, 0
1, 305279, Note_on_c, 9, 54, 0
1, 305279, Note_on_c, 9, 59, 0
1, 305760, Note_on_c, 9, 59, 94
1, 306239, Note_on_c, 9, 59, 0
1, 306720, Note_on_c, 9, 38, 104
1, 306720, Note_on_c, 9, 54, 92
1, 306720, Note_on_c, 9, 59, 100
1, 307079, Note_on_c, 9, 38, 0
1, 307079, Note_on_c, 9, 54, 0
1, 307079, Note_on_c, 9, 59, 0
1, 307140, Note_on_c, 9, 57, 10
1, 307199, Note_on_c, 9, 57, 0
1, 307200, Note_on_c, 9, 49, 14
1, 307200, Note_on_c, 9, 35, 94
1, 307319, Note_on_c, 9, 49, 0
1, 307350, Note_on_c, 9, 57, 22
1, 307439, Note_on_c, 9, 57, 0
1, 307440, Note_on_c, 9, 49, 31
1, 307529, Note_on_c, 9, 49, 0
1, 307530, Note_on_c, 9, 57, 40
1, 307559, Note_on_c, 9, 57, 0
1, 307620, Note_on_c, 9, 49, 50
1, 307679, Note_on_c, 9, 35, 0
1, 307679, Note_on_c, 9, 49, 0
1, 307700, Note_on_c, 9, 59, 94
1, 307719, Note_on_c, 9, 59, 0
1, 307720, Note_on_c, 9, 57, 62
1, 307740, Note_on_c, 9, 35, 105
1, 307799, Note_on_c, 9, 57, 0
1, 307919, Note_on_c, 9, 35, 0
1, 308640, Note_on_c, 9, 38, 104
1, 308640, Note_on_c, 9, 54, 97
1, 308640, Note_on_c, 9, 59, 94
1, 309119, Note_on_c, 9, 38, 0
1, 309119, Note_on_c, 9, 54, 0
1, 309119, Note_on_c, 9, 59, 0
1, 309360, Note_on_c, 9, 35, 72
1, 309599, Note_on_c, 9, 35, 0
1, 309600, Note_on_c, 9, 35, 94
1, 309615, Note_on_c, 9, 59, 87
1, 309839, Note_on_c, 9, 59, 0
1, 310079, Note_on_c, 9, 35, 0
1, 310560, Note_on_c, 9, 38, 109
1, 310560, Note_on_c, 9, 54, 92
1, 310560, Note_on_c, 9, 59, 94
1, 310919, Note_on_c, 9, 38, 0
1, 310919, Note_on_c, 9, 54, 0
1, 310919, Note_on_c, 9, 59, 0
1, 310980, Note_on_c, 9, 57, 7
1, 311039, Note_on_c, 9, 57, 0
1, 311040, Note_on_c, 9, 49, 10
1, 311040, Note_on_c, 9, 35, 87
1, 311159, Note_on_c, 9, 49, 0
1, 311160, Note_on_c, 9, 57, 16
1, 311279, Note_on_c, 9, 57, 0
1, 311300, Note_on_c, 9, 49, 20
1, 311359, Note_on_c, 9, 49, 0
1, 311360, Note_on_c, 9, 57, 29
1, 311399, Note_on_c, 9, 57, 0
1, 311460, Note_on_c, 9, 49, 32
1, 311519, Note_on_c, 9, 35, 0
1, 311519, Note_on_c, 9, 49, 0
1, 311520, Note_on_c, 9, 59, 100
1, 311520, Note_on_c, 9, 57, 38
1, 311535, Note_on_c, 9, 35, 110
1, 311759, Note_on_c, 9, 35, 0
1, 311999, Note_on_c, 9, 59, 0
1, 311999, Note_on_c, 9, 57, 0
1, 312480, Note_on_c, 9, 38, 109
1, 312480, Note_on_c, 9, 54, 83
1, 312480, Note_on_c, 9, 59, 91
1, 312959, Note_on_c, 9, 38, 0
1, 312959, Note_on_c, 9, 54, 0
1, 312959, Note_on_c, 9, 59, 0
1, 313440, Note_on_c, 9, 59, 100
1, 313440, Note_on_c, 9, 35, 100
1, 313919, Note_on_c, 9, 59, 0
1, 313919, Note_on_c, 9, 35, 0
1, 314400, Note_on_c, 9, 45, 96
1, 314400, Note_on_c, 9, 54, 92
1, 314400, Note_on_c, 9, 59, 94
1, 314459, Note_on_c, 9, 45, 0
1, 314459, Note_on_c, 9, 54, 0
1, 314459, Note_on_c, 9, 59, 0
1, 314460, Note_on_c, 9, 57, 17
1, 314519, Note_on_c, 9, 57, 0
1, 314550, Note_on_c, 9, 49, 22
1, 314639, Note_on_c, 9, 49, 0
1, 314640, Note_on_c, 9, 57, 24
1, 314729, Note_on_c, 9, 57, 0
1, 314730, Note_on_c, 9, 49, 27
1, 314759, Note_on_c, 9, 49, 0
1, 314820, Note_on_c, 9, 57, 29
1, 314879, Note_on_c, 9, 57, 0
1, 314880, Note_on_c, 9, 49, 34
1, 314999, Note_on_c, 9, 49, 0
1, 315000, Note_on_c, 9, 57, 40
1, 315089, Note_on_c, 9, 57, 0
1, 315090, Note_on_c, 9, 49, 44
1, 315119, Note_on_c, 9, 49, 0
1, 315180, Note_on_c, 9, 57, 51
1, 315239, Note_on_c, 9, 57, 0
1, 315270, Note_on_c, 9, 49, 55
1, 315359, Note_on_c, 9, 49, 0
1, 315375, Note_on_c, 9, 59, 91
1, 315375, Note_on_c, 9, 57, 62
1, 315375, Note_on_c, 9, 35, 105
1, 315599, Note_on_c, 9, 59, 0
1, 315599, Note_on_c, 9, 57, 0
1, 315599, Note_on_c, 9, 35, 0
1, 316290, Note_on_c, 9, 38, 104
1, 316290, Note_on_c, 9, 54, 92
1, 316320, Note_on_c, 9, 59, 94
1, 316769, Note_on_c, 9, 54, 0
1, 316799, Note_on_c, 9, 38, 0
1, 316799, Note_on_c, 9, 59, 0
1, 316800, Note_on_c, 9, 35, 100
1, 317279, Note_on_c, 9, 35, 0
1, 317280, Note_on_c, 9, 59, 91
1, 317759, Note_on_c, 9, 59, 0
1, 318240, Note_on_c, 9, 38, 99
1, 318240, Note_on_c, 9, 54, 83
1, 318240, Note_on_c, 9, 59, 94
1, 318599, Note_on_c, 9, 38, 0
1, 318599, Note_on_c, 9, 54, 0
1, 318599, Note_on_c, 9, 59, 0
1, 318660, Note_on_c, 9, 57, 7
1, 318719, Note_on_c, 9, 57, 0
1, 318720, Note_on_c, 9, 49, 10
1, 318839, Note_on_c, 9, 49, 0
1, 318840, Note_on_c, 9, 57, 16
1, 318959, Note_on_c, 9, 57, 0
1, 318980, Note_on_c, 9, 49, 20
1, 319039, Note_on_c, 9, 49, 0
1, 319040, Note_on_c, 9, 57, 29
1, 319079, Note_on_c, 9, 57, 0
1, 319110, Note_on_c, 9, 49, 32
1, 319199, Note_on_c, 9, 49, 0
1, 319200, Note_on_c, 9, 59, 87
1, 319200, Note_on_c, 9, 57, 38
1, 319200, Note_on_c, 9, 35, 105
1, 319679, Note_on_c, 9, 59, 0
1, 319679, Note_on_c, 9, 57, 0
1, 319679, Note_on_c, 9, 35, 0
1, 320160, Note_on_c, 9, 38, 104
1, 320160, Note_on_c, 9, 54, 92
1, 320160, Note_on_c, 9, 59, 100
1, 320639, Note_on_c, 9, 38, 0
1, 320639, Note_on_c, 9, 54, 0
1, 320639, Note_on_c, 9, 59, 0
1, 320640, Note_on_c, 9, 35, 105
1, 321119, Note_on_c, 9, 35, 0
1, 321120, Note_on_c, 9, 59, 100
1, 321599, Note_on_c, 9, 59, 0
1, 321600, Note_on_c, 9, 38, 57
1, 321779, Note_on_c, 9, 38, 0
1, 321780, Note_on_c, 9, 38, 57
1, 321839, Note_on_c, 9, 38, 0
1, 321900, Note_on_c, 9, 38, 63
1, 322079, Note_on_c, 9, 38, 0
1, 322080, Note_on_c, 9, 38, 104
1, 322080, Note_on_c, 9, 54, 92
1, 322080, Note_on_c, 9, 59, 94
1, 322439, Note_on_c, 9, 38, 0
1, 322439, Note_on_c, 9, 54, 0
1, 322439, Note_on_c, 9, 59, 0
1, 322500, Note_on_c, 9, 57, 7
1, 322559, Note_on_c, 9, 57, 0
1, 322560, Note_on_c, 9, 49, 10
1, 322679, Note_on_c, 9, 49, 0
1, 322710, Note_on_c, 9, 57, 16
1, 322799, Note_on_c, 9, 57, 0
1, 322800, Note_on_c, 9, 49, 20
1, 322889, Note_on_c, 9, 49, 0
1, 322890, Note_on_c, 9, 57, 29
1, 322919, Note_on_c, 9, 57, 0
1, 322980, Note_on_c, 9, 49, 32
1, 323039, Note_on_c, 9, 49, 0
1, 323040, Note_on_c, 9, 35, 100
1, 323085, Note_on_c, 9, 59, 87
1, 323085, Note_on_c, 9, 57, 38
1, 323279, Note_on_c, 9, 59, 0
1, 323279, Note_on_c, 9, 57, 0
1, 323519, Note_on_c, 9, 35, 0
1, 324000, Note_on_c, 9, 38, 104
1, 324000, Note_on_c, 9, 54, 97
1, 324000, Note_on_c, 9, 59, 87
1, 324479, Note_on_c, 9, 38, 0
1, 324479, Note_on_c, 9, 54, 0
1, 324479, Note_on_c, 9, 59, 0
1, 324480, Note_on_c, 9, 35, 100
1, 324959, Note_on_c, 9, 35, 0
1, 324960, Note_on_c, 9, 59, 91
1, 325439, Note_on_c, 9, 59, 0
1, 325920, Note_on_c, 9, 38, 109
1, 325920, Note_on_c, 9, 54, 92
1, 325920, Note_on_c, 9, 59, 100
1, 326399, Note_on_c, 9, 38, 0
1, 326399, Note_on_c, 9, 54, 0
1, 326399, Note_on_c, 9, 59, 0
1, 326400, Note_on_c, 9, 57, 7
1, 326519, Note_on_c, 9, 57, 0
1, 326520, Note_on_c, 9, 49, 10
1, 326639, Note_on_c, 9, 49, 0
1, 326640, Note_on_c, 9, 57, 16
1, 326729, Note_on_c, 9, 57, 0
1, 326730, Note_on_c, 9, 49, 20
1, 326759, Note_on_c, 9, 49, 0
1, 326760, Note_on_c, 9, 35, 64
1, 326820, Note_on_c, 9, 57, 29
1, 326879, Note_on_c, 9, 35, 0
1, 326879, Note_on_c, 9, 57, 0
1, 326910, Note_on_c, 9, 49, 32
1, 326969, Note_on_c, 9, 49, 0
1, 326970, Note_on_c, 9, 59, 91
1, 326999, Note_on_c, 9, 59, 0
1, 327000, Note_on_c, 9, 57, 38
1, 327000, Note_on_c, 9, 35, 94
1, 327359, Note_on_c, 9, 57, 0
1, 327359, Note_on_c, 9, 35, 0
1, 327840, Note_on_c, 9, 38, 105
1, 327840, Note_on_c, 9, 54, 80
1, 327840, Note_on_c, 9, 59, 91
1, 328319, Note_on_c, 9, 38, 0
1, 328319, Note_on_c, 9, 54, 0
1, 328319, Note_on_c, 9, 59, 0
1, 328320, Note_on_c, 9, 35, 94
1, 328799, Note_on_c, 9, 35, 0
1, 328830, Note_on_c, 9, 59, 87
1, 329279, Note_on_c, 9, 59, 0
1, 329280, Note_on_c, 9, 38, 51
1, 329459, Note_on_c, 9, 38, 0
1, 329490, Note_on_c, 9, 38, 50
1, 329519, Note_on_c, 9, 38, 0
1, 329640, Note_on_c, 9, 38, 56
1, 329759, Note_on_c, 9, 38, 0
1, 329775, Note_on_c, 9, 38, 96
1, 329775, Note_on_c, 9, 54, 81
1, 329819, Note_on_c, 9, 38, 0
1, 329819, Note_on_c, 9, 54, 0
1, 329820, Note_on_c, 9, 59, 80
1, 329999, Note_on_c, 9, 59, 0
1, 330240, Note_on_c, 9, 57, 5
1, 330359, Note_on_c, 9, 57, 0
1, 330360, Note_on_c, 9, 49, 8
1, 330449, Note_on_c, 9, 49, 0
1, 330450, Note_on_c, 9, 57, 13
1, 330479, Note_on_c, 9, 57, 0
1, 330540, Note_on_c, 9, 49, 16
1, 330659, Note_on_c, 9, 49, 0
1, 330660, Note_on_c, 9, 57, 24
1, 330719, Note_on_c, 9, 57, 0
1, 330735, Note_on_c, 9, 49, 26
1, 330779, Note_on_c, 9, 49, 0
1, 330810, Note_on_c, 9, 35, 88
1, 330840, Note_on_c, 9, 59, 79
1, 330840, Note_on_c, 9, 57, 31
1, 331199, Note_on_c, 9, 35, 0
1, 331199, Note_on_c, 9, 59, 0
1, 331199, Note_on_c, 9, 57, 0
1, 331680, Note_on_c, 9, 38, 87
1, 331680, Note_on_c, 9, 54, 73
1, 331680, Note_on_c, 9, 59, 72
1, 332159, Note_on_c, 9, 38, 0
1, 332159, Note_on_c, 9, 54, 0
1, 332159, Note_on_c, 9, 59, 0
1, 332160, Note_on_c, 9, 35, 73
1, 332639, Note_on_c, 9, 35, 0
1, 332655, Note_on_c, 9, 59, 68
1, 332879, Note_on_c, 9, 59, 0
1, 333600, Note_on_c, 9, 38, 81
1, 333600, Note_on_c, 9, 54, 58
1, 333600, Note_on_c, 9, 59, 64
1, 333959, Note_on_c, 9, 38, 0
1, 333959, Note_on_c, 9, 54, 0
1, 333959, Note_on_c, 9, 59, 0
1, 334020, Note_on_c, 9, 57, 3
1, 334079, Note_on_c, 9, 57, 0
1, 334080, Note_on_c, 9, 49, 5
1, 334199, Note_on_c, 9, 49, 0
1, 334200, Note_on_c, 9, 57, 10
1, 334319, Note_on_c, 9, 57, 0
1, 334340, Note_on_c, 9, 49, 12
1, 334399, Note_on_c, 9, 49, 0
1, 334400, Note_on_c, 9, 57, 18
1, 334439, Note_on_c, 9, 57, 0
1, 334470, Note_on_c, 9, 49, 20
1, 334559, Note_on_c, 9, 49, 0
1, 334560, Note_on_c, 9, 59, 66
1, 334560, Note_on_c, 9, 35, 66
1, 334589, Note_on_c, 9, 59, 0
1, 334590, Note_on_c, 9, 57, 24
1, 335039, Note_on_c, 9, 35, 0
1, 335039, Note_on_c, 9, 57, 0
1, 335520, Note_on_c, 9, 38, 67
1, 335520, Note_on_c, 9, 54, 57
1, 335520, Note_on_c, 9, 59, 62
1, 335999, Note_on_c, 9, 38, 0
1, 335999, Note_on_c, 9, 54, 0
1, 335999, Note_on_c, 9, 59, 0
1, 336015, Note_on_c, 9, 35, 60
1, 336239, Note_on_c, 9, 35, 0
1, 336510, Note_on_c, 9, 59, 54
1, 336959, Note_on_c, 9, 59, 0
1, 336960, Note_on_c, 9, 38, 30
1, 337139, Note_on_c, 9, 38, 0
1, 337140, Note_on_c, 9, 38, 30
1, 337199, Note_on_c, 9, 38, 0
1, 337260, Note_on_c, 9, 38, 33
1, 337439, Note_on_c, 9, 38, 0
1, 337440, Note_on_c, 9, 38, 56
1, 337440, Note_on_c, 9, 54, 49
1, 337440, Note_on_c, 9, 59, 54
1, 337799, Note_on_c, 9, 38, 0
1, 337799, Note_on_c, 9, 54, 0
1, 337799, Note_on_c, 9, 59, 0
1, 337860, Note_on_c, 9, 57, 1
1, 337919, Note_on_c, 9, 57, 0
1, 337920, Note_on_c, 9, 49, 3
1, 338039, Note_on_c, 9, 49, 0
1, 338070, Note_on_c, 9, 57, 6
1, 338159, Note_on_c, 9, 57, 0
1, 338160, Note_on_c, 9, 49, 8
1, 338279, Note_on_c, 9, 49, 0
1, 338300, Note_on_c, 9, 57, 13
1, 338359, Note_on_c, 9, 57, 0
1, 338360, Note_on_c, 9, 49, 14
1, 338399, Note_on_c, 9, 49, 0
1, 338445, Note_on_c, 9, 59, 46
1, 338445, Note_on_c, 9, 35, 50
1, 338459, Note_on_c, 9, 59, 0
1, 338460, Note_on_c, 9, 57, 17
1, 338639, Note_on_c, 9, 35, 0
1, 338639, Note_on_c, 9, 57, 0
1, 339360, Note_on_c, 9, 38, 46
1, 339360, Note_on_c, 9, 54, 43
1, 339360, Note_on_c, 9, 59, 42
1, 339839, Note_on_c, 9, 38, 0
1, 339839, Note_on_c, 9, 54, 0
1, 339839, Note_on_c, 9, 59, 0
1, 339840, Note_on_c, 9, 35, 38
1, 340319, Note_on_c, 9, 35, 0
1, 340320, Note_on_c, 9, 59, 36
1, 340799, Note_on_c, 9, 59, 0
1, 341250, Note_on_c, 9, 38, 39
1, 341250, Note_on_c, 9, 54, 33
1, 341280, Note_on_c, 9, 59, 33
1, 341639, Note_on_c, 9, 38, 0
1, 341639, Note_on_c, 9, 59, 0
1, 341669, Note_on_c, 9, 54, 0
1, 341700, Note_on_c, 9, 57, 1
1, 341759, Note_on_c, 9, 57, 0
1, 341760, Note_on_c, 9, 49, 1
1, 341879, Note_on_c, 9, 49, 0
1, 341910, Note_on_c, 9, 57, 3
1, 341999, Note_on_c, 9, 57, 0
1, 342000, Note_on_c, 9, 49, 4
1, 342089, Note_on_c, 9, 49, 0
1, 342090, Note_on_c, 9, 57, 7
1, 342119, Note_on_c, 9, 57, 0
1, 342180, Note_on_c, 9, 49, 8
1, 342239, Note_on_c, 9, 49, 0
1, 342240, Note_on_c, 9, 35, 30
1, 342260, Note_on_c, 9, 59, 29
1, 342279, Note_on_c, 9, 59, 0
1, 342280, Note_on_c, 9, 57, 10
1, 342359, Note_on_c, 9, 57, 0
1, 342719, Note_on_c, 9, 35, 0
1, 343200, Note_on_c, 9, 38, 30
1, 343200, Note_on_c, 9, 54, 22
1, 343200, Note_on_c, 9, 59, 28
1, 343679, Note_on_c, 9, 38, 0
1, 343679, Note_on_c, 9, 54, 0
1, 343679, Note_on_c, 9, 59, 0
1, 343680, Note_on_c, 9, 35, 26
1, 344159, Note_on_c, 9, 35, 0
1, 344220, Note_on_c, 9, 59, 21
1, 344399, Note_on_c, 9, 59, 0
1, 344640, Note_on_c, 9, 38, 9
1, 344819, Note_on_c, 9, 38, 0
1, 344850, Note_on_c, 9, 38, 9
1, 344879, Note_on_c, 9, 38, 0
1, 345000, Note_on_c, 9, 38, 10
1, 345119, Note_on_c, 9, 38, 0
1, 345135, Note_on_c, 9, 38, 20
1, 345135, Note_on_c, 9, 54, 17
1, 345135, Note_on_c, 9, 59, 17
1, 345359, Note_on_c, 9, 38, 0
1, 345359, Note_on_c, 9, 54, 0
1, 345359, Note_on_c, 9, 59, 0
1, 345600, Note_on_c, 9, 57, 1
1, 345719, Note_on_c, 9, 57, 0
1, 345720, Note_on_c, 9, 49, 1
1, 345809, Note_on_c, 9, 49, 0
1, 345825, Note_on_c, 9, 57, 1
1, 345929, Note_on_c, 9, 57, 0
1, 345930, Note_on_c, 9, 49, 1
1, 345959, Note_on_c, 9, 49, 0
1, 346020, Note_on_c, 9, 57, 2
1, 346079, Note_on_c, 9, 57, 0
1, 346140, Note_on_c, 9, 49, 2
1, 346199, Note_on_c, 9, 49, 0
1, 346200, Note_on_c, 9, 35, 14
1, 346230, Note_on_c, 9, 59, 15
1, 346259, Note_on_c, 9, 59, 0
1, 346260, Note_on_c, 9, 57, 3
1, 346319, Note_on_c, 9, 57, 0
1, 346559, Note_on_c, 9, 35, 0
1, 347220, Note_on_c, 9, 38, 10
1, 347220, Note_on_c, 9, 54, 9
1, 347220, Note_on_c, 9, 59, 10
1, 347279, Note_on_c, 9, 38, 0
1, 347279, Note_on_c, 9, 54, 0
1, 347279, Note_on_c, 9, 59, 0
1, 347700, Note_on_c, 9, 35, 8
1, 347759, Note_on_c, 9, 35, 0
1, 348180, Note_on_c, 9, 59, 6
1, 348239, Note_on_c, 9, 59, 0
1, 349140, Note_on_c, 9, 38, 1
1, 349140, Note_on_c, 9, 54, 1
1, 349140, Note_on_c, 9, 59, 2
1, 349199, Note_on_c, 9, 38, 0
1, 349199, Note_on_c, 9, 54, 0
1, 349199, Note_on_c, 9, 59, 0
1, 349200, End_track
0, 0, End_of_file
