0, 0, Header, 1, 1, 480
1, 0, Start_track
1, 0, Time_signature, 4, 2, 24, 8
1, 0, Key_signature, 0, "major"
1, 0, Tempo, 500000
1, 0, Control_c, 9, 121, 0
1, 0, Program_c, 9, 0
1, 0, Control_c, 9, 7, 100
1, 0, Control_c, 9, 10, 64
1, 0, Control_c, 9, 91, 0
1, 0, Control_c, 9, 93, 0
1, 0, MIDI_port, 0
1, 3120, Note_on_c, 9, 35, 85
1, 3340, Note_on_c, 9, 38, 87
1, 3359, Note_on_c, 9, 35, 0
1, 3359, Note_on_c, 9, 38, 0
1, 3360, Note_on_c, 9, 38, 115
1, 3839, Note_on_c, 9, 38, 0
1, 3840, Note_on_c, 9, 35, 112
1, 3860, Note_on_c, 9, 49, 64
1, 3899, Note_on_c, 9, 49, 0
1, 4110, Note_on_c, 9, 42, 44
1, 4199, Note_on_c, 9, 42, 0
1, 4319, Note_on_c, 9, 35, 0
1, 4320, Note_on_c, 9, 38, 112
1, 4320, Note_on_c, 9, 42, 87
1, 4559, Note_on_c, 9, 38, 0
1, 4559, Note_on_c, 9, 42, 0
1, 4560, Note_on_c, 9, 35, 83
1, 4575, Note_on_c, 9, 42, 45
1, 4799, Note_on_c, 9, 35, 0
1, 4799, Note_on_c, 9, 42, 0
1, 4800, Note_on_c, 9, 42, 84
1, 4800, Note_on_c, 9, 35, 114
1, 5039, Note_on_c, 9, 42, 0
1, 5055, Note_on_c, 9, 42, 42
1, 5279, Note_on_c, 9, 35, 0
1, 5279, Note_on_c, 9, 42, 0
1, 5280, Note_on_c, 9, 38, 111
1, 5280, Note_on_c, 9, 42, 87
1, 5519, Note_on_c, 9, 38, 0
1, 5519, Note_on_c, 9, 42, 0
1, 5520, Note_on_c, 9, 46, 45
1, 5759, Note_on_c, 9, 46, 0
1, 5760, Note_on_c, 9, 35, 112
1, 5775, Note_on_c, 9, 42, 89
1, 5999, Note_on_c, 9, 42, 0
1, 6020, Note_on_c, 9, 42, 44
1, 6059, Note_on_c, 9, 42, 0
1, 6239, Note_on_c, 9, 35, 0
1, 6240, Note_on_c, 9, 38, 112
1, 6240, Note_on_c, 9, 42, 87
1, 6479, Note_on_c, 9, 38, 0
1, 6479, Note_on_c, 9, 42, 0
1, 6480, Note_on_c, 9, 35, 83
1, 6500, Note_on_c, 9, 42, 45
1, 6539, Note_on_c, 9, 42, 0
1, 6719, Note_on_c, 9, 35, 0
1, 6720, Note_on_c, 9, 42, 84
1, 6720, Note_on_c, 9, 35, 114
1, 6959, Note_on_c, 9, 42, 0
1, 6975, Note_on_c, 9, 42, 42
1, 7199, Note_on_c, 9, 35, 0
1, 7199, Note_on_c, 9, 42, 0
1, 7200, Note_on_c, 9, 38, 111
1, 7200, Note_on_c, 9, 42, 87
1, 7439, Note_on_c, 9, 38, 0
1, 7439, Note_on_c, 9, 42, 0
1, 7460, Note_on_c, 9, 42, 45
1, 7499, Note_on_c, 9, 42, 0
1, 7680, Note_on_c, 9, 35, 112
1, 7695, Note_on_c, 9, 42, 90
1, 7919, Note_on_c, 9, 42, 0
1, 7940, Note_on_c, 9, 42, 42
1, 7979, Note_on_c, 9, 42, 0
1, 8159, Note_on_c, 9, 35, 0
1, 8160, Note_on_c, 9, 38, 111
1, 8160, Note_on_c, 9, 42, 85
1, 8399, Note_on_c, 9, 38, 0
1, 8399, Note_on_c, 9, 42, 0
1, 8400, Note_on_c, 9, 35, 75
1, 8420, Note_on_c, 9, 42, 44
1, 8459, Note_on_c, 9, 42, 0
1, 8639, Note_on_c, 9, 35, 0
1, 8640, Note_on_c, 9, 42, 83
1, 8640, Note_on_c, 9, 35, 114
1, 8879, Note_on_c, 9, 42, 0
1, 8895, Note_on_c, 9, 42, 45
1, 9119, Note_on_c, 9, 35, 0
1, 9119, Note_on_c, 9, 42, 0
1, 9120, Note_on_c, 9, 38, 110
1, 9120, Note_on_c, 9, 42, 86
1, 9359, Note_on_c, 9, 38, 0
1, 9359, Note_on_c, 9, 42, 0
1, 9380, Note_on_c, 9, 42, 46
1, 9419, Note_on_c, 9, 42, 0
1, 9600, Note_on_c, 9, 42, 89
1, 9600, Note_on_c, 9, 35, 112
1, 9839, Note_on_c, 9, 42, 0
1, 9839, Note_on_c, 9, 35, 0
1, 9840, Note_on_c, 9, 35, 75
1, 9860, Note_on_c, 9, 42, 44
1, 9899, Note_on_c, 9, 42, 0
1, 10079, Note_on_c, 9, 35, 0
1, 10080, Note_on_c, 9, 38, 112
1, 10094, Note_on_c, 9, 38, 0
1, 10095, Note_on_c, 9, 46, 82
1, 10320, Note_on_c, 9, 35, 83
1, 10499, Note_on_c, 9, 46, 0
1, 10540, Note_on_c, 9, 38, 96
1, 10559, Note_on_c, 9, 35, 0
1, 10559, Note_on_c, 9, 38, 0
1, 10575, Note_on_c, 9, 38, 116
1, 10800, Note_on_c, 9, 35, 83
1, 10814, Note_on_c, 9, 35, 0
1, 10815, Note_on_c, 9, 44, 45
1, 11024, Note_on_c, 9, 38, 0
1, 11025, Note_on_c, 9, 45, 70
1, 11039, Note_on_c, 9, 44, 0
1, 11039, Note_on_c, 9, 45, 0
1, 11040, Note_on_c, 9, 45, 91
1, 11280, Note_on_c, 9, 35, 83
1, 11294, Note_on_c, 9, 35, 0
1, 11295, Note_on_c, 9, 44, 45
1, 11519, Note_on_c, 9, 45, 0
1, 11519, Note_on_c, 9, 44, 0
1, 11520, Note_on_c, 9, 35, 112
1, 11535, Note_on_c, 9, 57, 67
1, 11759, Note_on_c, 9, 57, 0
1, 11780, Note_on_c, 9, 42, 44
1, 11819, Note_on_c, 9, 42, 0
1, 11999, Note_on_c, 9, 35, 0
1, 12000, Note_on_c, 9, 38, 112
1, 12014, Note_on_c, 9, 38, 0
1, 12015, Note_on_c, 9, 42, 87
1, 12239, Note_on_c, 9, 42, 0
1, 12240, Note_on_c, 9, 35, 83
1, 12255, Note_on_c, 9, 42, 45
1, 12479, Note_on_c, 9, 35, 0
1, 12479, Note_on_c, 9, 42, 0
1, 12480, Note_on_c, 9, 42, 84
1, 12480, Note_on_c, 9, 35, 114
1, 12719, Note_on_c, 9, 42, 0
1, 12735, Note_on_c, 9, 42, 42
1, 12959, Note_on_c, 9, 35, 0
1, 12959, Note_on_c, 9, 42, 0
1, 12960, Note_on_c, 9, 38, 111
1, 12974, Note_on_c, 9, 38, 0
1, 12975, Note_on_c, 9, 42, 87
1, 13199, Note_on_c, 9, 42, 0
1, 13200, Note_on_c, 9, 46, 45
1, 13439, Note_on_c, 9, 46, 0
1, 13440, Note_on_c, 9, 35, 112
1, 13455, Note_on_c, 9, 42, 89
1, 13679, Note_on_c, 9, 42, 0
1, 13700, Note_on_c, 9, 42, 44
1, 13739, Note_on_c, 9, 42, 0
1, 13919, Note_on_c, 9, 35, 0
1, 13920, Note_on_c, 9, 38, 112
1, 13934, Note_on_c, 9, 38, 0
1, 13935, Note_on_c, 9, 42, 87
1, 14159, Note_on_c, 9, 42, 0
1, 14160, Note_on_c, 9, 35, 83
1, 14175, Note_on_c, 9, 42, 45
1, 14399, Note_on_c, 9, 35, 0
1, 14399, Note_on_c, 9, 42, 0
1, 14400, Note_on_c, 9, 42, 84
1, 14400, Note_on_c, 9, 35, 114
1, 14639, Note_on_c, 9, 42, 0
1, 14655, Note_on_c, 9, 42, 42
1, 14879, Note_on_c, 9, 35, 0
1, 14879, Note_on_c, 9, 42, 0
1, 14880, Note_on_c, 9, 38, 111
1, 14880, Note_on_c, 9, 42, 87
1, 15119, Note_on_c, 9, 38, 0
1, 15119, Note_on_c, 9, 42, 0
1, 15140, Note_on_c, 9, 42, 45
1, 15179, Note_on_c, 9, 42, 0
1, 15360, Note_on_c, 9, 42, 90
1, 15360, Note_on_c, 9, 35, 112
1, 15599, Note_on_c, 9, 42, 0
1, 15620, Note_on_c, 9, 42, 42
1, 15659, Note_on_c, 9, 42, 0
1, 15839, Note_on_c, 9, 35, 0
1, 15840, Note_on_c, 9, 38, 111
1, 15840, Note_on_c, 9, 42, 85
1, 16079, Note_on_c, 9, 38, 0
1, 16079, Note_on_c, 9, 42, 0
1, 16080, Note_on_c, 9, 35, 75
1, 16095, Note_on_c, 9, 42, 44
1, 16319, Note_on_c, 9, 35, 0
1, 16319, Note_on_c, 9, 42, 0
1, 16320, Note_on_c, 9, 42, 83
1, 16320, Note_on_c, 9, 35, 114
1, 16559, Note_on_c, 9, 42, 0
1, 16580, Note_on_c, 9, 42, 45
1, 16619, Note_on_c, 9, 42, 0
1, 16799, Note_on_c, 9, 35, 0
1, 16800, Note_on_c, 9, 38, 110
1, 16800, Note_on_c, 9, 42, 86
1, 17039, Note_on_c, 9, 38, 0
1, 17039, Note_on_c, 9, 42, 0
1, 17040, Note_on_c, 9, 46, 46
1, 17264, Note_on_c, 9, 46, 0
1, 17265, Note_on_c, 9, 38, 82
1, 17279, Note_on_c, 9, 38, 0
1, 17295, Note_on_c, 9, 38, 122
1, 17744, Note_on_c, 9, 38, 0
1, 17745, Note_on_c, 9, 48, 101
1, 17759, Note_on_c, 9, 48, 0
1, 17775, Note_on_c, 9, 48, 127
1, 17999, Note_on_c, 9, 48, 0
1, 19200, Note_on_c, 9, 35, 112
1, 19215, Note_on_c, 9, 49, 70
1, 19439, Note_on_c, 9, 49, 0
1, 19460, Note_on_c, 9, 42, 44
1, 19499, Note_on_c, 9, 42, 0
1, 19679, Note_on_c, 9, 35, 0
1, 19680, Note_on_c, 9, 38, 112
1, 19694, Note_on_c, 9, 38, 0
1, 19695, Note_on_c, 9, 42, 87
1, 19919, Note_on_c, 9, 42, 0
1, 19920, Note_on_c, 9, 35, 83
1, 19935, Note_on_c, 9, 42, 45
1, 20159, Note_on_c, 9, 35, 0
1, 20159, Note_on_c, 9, 42, 0
1, 20160, Note_on_c, 9, 42, 84
1, 20160, Note_on_c, 9, 35, 114
1, 20399, Note_on_c, 9, 42, 0
1, 20415, Note_on_c, 9, 42, 42
1, 20639, Note_on_c, 9, 35, 0
1, 20639, Note_on_c, 9, 42, 0
1, 20640, Note_on_c, 9, 38, 111
1, 20640, Note_on_c, 9, 42, 87
1, 20879, Note_on_c, 9, 38, 0
1, 20879, Note_on_c, 9, 42, 0
1, 20900, Note_on_c, 9, 42, 45
1, 20939, Note_on_c, 9, 42, 0
1, 21120, Note_on_c, 9, 35, 112
1, 21135, Note_on_c, 9, 42, 89
1, 21359, Note_on_c, 9, 42, 0
1, 21380, Note_on_c, 9, 42, 44
1, 21419, Note_on_c, 9, 42, 0
1, 21599, Note_on_c, 9, 35, 0
1, 21600, Note_on_c, 9, 38, 112
1, 21600, Note_on_c, 9, 42, 87
1, 21839, Note_on_c, 9, 38, 0
1, 21839, Note_on_c, 9, 42, 0
1, 21840, Note_on_c, 9, 35, 83
1, 21860, Note_on_c, 9, 42, 45
1, 21899, Note_on_c, 9, 42, 0
1, 22079, Note_on_c, 9, 35, 0
1, 22080, Note_on_c, 9, 42, 84
1, 22080, Note_on_c, 9, 35, 114
1, 22319, Note_on_c, 9, 42, 0
1, 22335, Note_on_c, 9, 42, 42
1, 22559, Note_on_c, 9, 35, 0
1, 22559, Note_on_c, 9, 42, 0
1, 22560, Note_on_c, 9, 38, 111
1, 22574, Note_on_c, 9, 38, 0
1, 22575, Note_on_c, 9, 42, 87
1, 22799, Note_on_c, 9, 42, 0
1, 22800, Note_on_c, 9, 35, 83
1, 22815, Note_on_c, 9, 46, 45
1, 23039, Note_on_c, 9, 35, 0
1, 23039, Note_on_c, 9, 46, 0
1, 23040, Note_on_c, 9, 35, 112
1, 23055, Note_on_c, 9, 42, 90
1, 23279, Note_on_c, 9, 42, 0
1, 23300, Note_on_c, 9, 42, 42
1, 23339, Note_on_c, 9, 42, 0
1, 23519, Note_on_c, 9, 35, 0
1, 23520, Note_on_c, 9, 38, 111
1, 23520, Note_on_c, 9, 42, 85
1, 23759, Note_on_c, 9, 38, 0
1, 23759, Note_on_c, 9, 42, 0
1, 23760, Note_on_c, 9, 35, 75
1, 23775, Note_on_c, 9, 42, 44
1, 23999, Note_on_c, 9, 35, 0
1, 23999, Note_on_c, 9, 42, 0
1, 24000, Note_on_c, 9, 42, 83
1, 24000, Note_on_c, 9, 35, 114
1, 24239, Note_on_c, 9, 42, 0
1, 24260, Note_on_c, 9, 42, 45
1, 24299, Note_on_c, 9, 42, 0
1, 24479, Note_on_c, 9, 35, 0
1, 24480, Note_on_c, 9, 38, 110
1, 24480, Note_on_c, 9, 42, 86
1, 24719, Note_on_c, 9, 38, 0
1, 24719, Note_on_c, 9, 42, 0
1, 24740, Note_on_c, 9, 42, 46
1, 24779, Note_on_c, 9, 42, 0
1, 24960, Note_on_c, 9, 42, 89
1, 24960, Note_on_c, 9, 35, 114
1, 25199, Note_on_c, 9, 42, 0
1, 25199, Note_on_c, 9, 35, 0
1, 25200, Note_on_c, 9, 35, 84
1, 25215, Note_on_c, 9, 42, 47
1, 25439, Note_on_c, 9, 35, 0
1, 25439, Note_on_c, 9, 42, 0
1, 25440, Note_on_c, 9, 38, 110
1, 25440, Note_on_c, 9, 42, 84
1, 25679, Note_on_c, 9, 38, 0
1, 25679, Note_on_c, 9, 42, 0
1, 25680, Note_on_c, 9, 35, 84
1, 25695, Note_on_c, 9, 42, 42
1, 25919, Note_on_c, 9, 35, 0
1, 25919, Note_on_c, 9, 42, 0
1, 25920, Note_on_c, 9, 42, 88
1, 25920, Note_on_c, 9, 35, 114
1, 26159, Note_on_c, 9, 42, 0
1, 26175, Note_on_c, 9, 42, 42
1, 26399, Note_on_c, 9, 35, 0
1, 26399, Note_on_c, 9, 42, 0
1, 26400, Note_on_c, 9, 38, 114
1, 26400, Note_on_c, 9, 46, 78
1, 26639, Note_on_c, 9, 38, 0
1, 26639, Note_on_c, 9, 46, 0
1, 26660, Note_on_c, 9, 42, 47
1, 26699, Note_on_c, 9, 42, 0
1, 26880, Note_on_c, 9, 35, 110
1, 26895, Note_on_c, 9, 42, 85
1, 27119, Note_on_c, 9, 42, 0
1, 27140, Note_on_c, 9, 42, 42
1, 27179, Note_on_c, 9, 42, 0
1, 27359, Note_on_c, 9, 35, 0
1, 27360, Note_on_c, 9, 38, 112
1, 27360, Note_on_c, 9, 42, 86
1, 27599, Note_on_c, 9, 38, 0
1, 27599, Note_on_c, 9, 42, 0
1, 27600, Note_on_c, 9, 35, 83
1, 27615, Note_on_c, 9, 42, 47
1, 27839, Note_on_c, 9, 35, 0
1, 27839, Note_on_c, 9, 42, 0
1, 27840, Note_on_c, 9, 42, 85
1, 27840, Note_on_c, 9, 35, 112
1, 28079, Note_on_c, 9, 42, 0
1, 28095, Note_on_c, 9, 42, 47
1, 28319, Note_on_c, 9, 35, 0
1, 28319, Note_on_c, 9, 42, 0
1, 28320, Note_on_c, 9, 38, 111
1, 28320, Note_on_c, 9, 42, 84
1, 28559, Note_on_c, 9, 38, 0
1, 28559, Note_on_c, 9, 42, 0
1, 28580, Note_on_c, 9, 42, 42
1, 28619, Note_on_c, 9, 42, 0
1, 28800, Note_on_c, 9, 35, 112
1, 28815, Note_on_c, 9, 42, 90
1, 29039, Note_on_c, 9, 42, 0
1, 29060, Note_on_c, 9, 42, 45
1, 29099, Note_on_c, 9, 42, 0
1, 29279, Note_on_c, 9, 35, 0
1, 29280, Note_on_c, 9, 38, 110
1, 29280, Note_on_c, 9, 42, 90
1, 29519, Note_on_c, 9, 38, 0
1, 29519, Note_on_c, 9, 42, 0
1, 29520, Note_on_c, 9, 35, 84
1, 29535, Note_on_c, 9, 42, 46
1, 29759, Note_on_c, 9, 35, 0
1, 29759, Note_on_c, 9, 42, 0
1, 29760, Note_on_c, 9, 42, 88
1, 29760, Note_on_c, 9, 35, 110
1, 29999, Note_on_c, 9, 42, 0
1, 30015, Note_on_c, 9, 42, 44
1, 30239, Note_on_c, 9, 35, 0
1, 30239, Note_on_c, 9, 42, 0
1, 30240, Note_on_c, 9, 38, 114
1, 30240, Note_on_c, 9, 42, 83
1, 30479, Note_on_c, 9, 38, 0
1, 30479, Note_on_c, 9, 42, 0
1, 30495, Note_on_c, 9, 46, 41
1, 30719, Note_on_c, 9, 46, 0
1, 30720, Note_on_c, 9, 35, 112
1, 30735, Note_on_c, 9, 42, 89
1, 30959, Note_on_c, 9, 42, 0
1, 30980, Note_on_c, 9, 42, 44
1, 31019, Note_on_c, 9, 42, 0
1, 31199, Note_on_c, 9, 35, 0
1, 31200, Note_on_c, 9, 38, 112
1, 31200, Note_on_c, 9, 42, 87
1, 31439, Note_on_c, 9, 38, 0
1, 31439, Note_on_c, 9, 42, 0
1, 31440, Note_on_c, 9, 35, 83
1, 31460, Note_on_c, 9, 42, 45
1, 31499, Note_on_c, 9, 42, 0
1, 31679, Note_on_c, 9, 35, 0
1, 31680, Note_on_c, 9, 42, 84
1, 31680, Note_on_c, 9, 35, 114
1, 31919, Note_on_c, 9, 42, 0
1, 31935, Note_on_c, 9, 42, 42
1, 32159, Note_on_c, 9, 35, 0
1, 32159, Note_on_c, 9, 42, 0
1, 32160, Note_on_c, 9, 38, 111
1, 32174, Note_on_c, 9, 38, 0
1, 32175, Note_on_c, 9, 42, 87
1, 32399, Note_on_c, 9, 42, 0
1, 32420, Note_on_c, 9, 42, 45
1, 32459, Note_on_c, 9, 42, 0
1, 32640, Note_on_c, 9, 42, 90
1, 32640, Note_on_c, 9, 35, 112
1, 32879, Note_on_c, 9, 42, 0
1, 32900, Note_on_c, 9, 42, 42
1, 32939, Note_on_c, 9, 42, 0
1, 33119, Note_on_c, 9, 35, 0
1, 33120, Note_on_c, 9, 38, 111
1, 33134, Note_on_c, 9, 38, 0
1, 33135, Note_on_c, 9, 46, 80
1, 33359, Note_on_c, 9, 46, 0
1, 33360, Note_on_c, 9, 35, 115
1, 33380, Note_on_c, 9, 42, 44
1, 33419, Note_on_c, 9, 42, 0
1, 33599, Note_on_c, 9, 35, 0
1, 33600, Note_on_c, 9, 42, 83
1, 33839, Note_on_c, 9, 42, 0
1, 33840, Note_on_c, 9, 35, 114
1, 33855, Note_on_c, 9, 42, 45
1, 34079, Note_on_c, 9, 35, 0
1, 34079, Note_on_c, 9, 42, 0
1, 34080, Note_on_c, 9, 38, 110
1, 34094, Note_on_c, 9, 38, 0
1, 34095, Note_on_c, 9, 46, 81
1, 34319, Note_on_c, 9, 46, 0
1, 34320, Note_on_c, 9, 35, 84
1, 34340, Note_on_c, 9, 42, 46
1, 34379, Note_on_c, 9, 42, 0
1, 34559, Note_on_c, 9, 35, 0
1, 34560, Note_on_c, 9, 35, 114
1, 34575, Note_on_c, 9, 49, 62
1, 34799, Note_on_c, 9, 49, 0
1, 34820, Note_on_c, 9, 42, 47
1, 34859, Note_on_c, 9, 42, 0
1, 35039, Note_on_c, 9, 35, 0
1, 35040, Note_on_c, 9, 38, 110
1, 35040, Note_on_c, 9, 42, 84
1, 35279, Note_on_c, 9, 38, 0
1, 35279, Note_on_c, 9, 42, 0
1, 35280, Note_on_c, 9, 35, 84
1, 35295, Note_on_c, 9, 42, 42
1, 35519, Note_on_c, 9, 35, 0
1, 35519, Note_on_c, 9, 42, 0
1, 35520, Note_on_c, 9, 42, 88
1, 35520, Note_on_c, 9, 35, 114
1, 35759, Note_on_c, 9, 42, 0
1, 35775, Note_on_c, 9, 42, 42
1, 35999, Note_on_c, 9, 35, 0
1, 35999, Note_on_c, 9, 42, 0
1, 36000, Note_on_c, 9, 38, 114
1, 36014, Note_on_c, 9, 38, 0
1, 36015, Note_on_c, 9, 42, 83
1, 36239, Note_on_c, 9, 42, 0
1, 36260, Note_on_c, 9, 42, 47
1, 36299, Note_on_c, 9, 42, 0
1, 36480, Note_on_c, 9, 35, 110
1, 36495, Note_on_c, 9, 42, 85
1, 36719, Note_on_c, 9, 42, 0
1, 36740, Note_on_c, 9, 42, 42
1, 36779, Note_on_c, 9, 42, 0
1, 36959, Note_on_c, 9, 35, 0
1, 36960, Note_on_c, 9, 38, 112
1, 36960, Note_on_c, 9, 42, 86
1, 37199, Note_on_c, 9, 38, 0
1, 37199, Note_on_c, 9, 42, 0
1, 37200, Note_on_c, 9, 35, 83
1, 37215, Note_on_c, 9, 42, 47
1, 37439, Note_on_c, 9, 35, 0
1, 37439, Note_on_c, 9, 42, 0
1, 37440, Note_on_c, 9, 42, 85
1, 37440, Note_on_c, 9, 35, 112
1, 37679, Note_on_c, 9, 42, 0
1, 37695, Note_on_c, 9, 42, 47
1, 37919, Note_on_c, 9, 35, 0
1, 37919, Note_on_c, 9, 42, 0
1, 37920, Note_on_c, 9, 38, 111
1, 37920, Note_on_c, 9, 42, 84
1, 38159, Note_on_c, 9, 38, 0
1, 38159, Note_on_c, 9, 42, 0
1, 38160, Note_on_c, 9, 46, 42
1, 38399, Note_on_c, 9, 46, 0
1, 38400, Note_on_c, 9, 35, 112
1, 38415, Note_on_c, 9, 42, 90
1, 38639, Note_on_c, 9, 42, 0
1, 38660, Note_on_c, 9, 42, 45
1, 38699, Note_on_c, 9, 42, 0
1, 38879, Note_on_c, 9, 35, 0
1, 38880, Note_on_c, 9, 38, 110
1, 38894, Note_on_c, 9, 38, 0
1, 38895, Note_on_c, 9, 42, 90
1, 39119, Note_on_c, 9, 42, 0
1, 39120, Note_on_c, 9, 35, 84
1, 39135, Note_on_c, 9, 42, 46
1, 39359, Note_on_c, 9, 35, 0
1, 39359, Note_on_c, 9, 42, 0
1, 39360, Note_on_c, 9, 42, 88
1, 39360, Note_on_c, 9, 35, 110
1, 39599, Note_on_c, 9, 42, 0
1, 39615, Note_on_c, 9, 42, 44
1, 39839, Note_on_c, 9, 35, 0
1, 39839, Note_on_c, 9, 42, 0
1, 39840, Note_on_c, 9, 38, 114
1, 39840, Note_on_c, 9, 42, 83
1, 40079, Note_on_c, 9, 38, 0
1, 40079, Note_on_c, 9, 42, 0
1, 40100, Note_on_c, 9, 42, 41
1, 40139, Note_on_c, 9, 42, 0
1, 40320, Note_on_c, 9, 42, 89
1, 40320, Note_on_c, 9, 35, 112
1, 40559, Note_on_c, 9, 42, 0
1, 40580, Note_on_c, 9, 42, 44
1, 40619, Note_on_c, 9, 42, 0
1, 40799, Note_on_c, 9, 35, 0
1, 40800, Note_on_c, 9, 38, 112
1, 40814, Note_on_c, 9, 38, 0
1, 40815, Note_on_c, 9, 42, 87
1, 41039, Note_on_c, 9, 42, 0
1, 41040, Note_on_c, 9, 35, 83
1, 41055, Note_on_c, 9, 42, 45
1, 41279, Note_on_c, 9, 35, 0
1, 41279, Note_on_c, 9, 42, 0
1, 41280, Note_on_c, 9, 42, 84
1, 41280, Note_on_c, 9, 35, 114
1, 41519, Note_on_c, 9, 42, 0
1, 41535, Note_on_c, 9, 42, 42
1, 41759, Note_on_c, 9, 35, 0
1, 41759, Note_on_c, 9, 42, 0
1, 41760, Note_on_c, 9, 38, 111
1, 41760, Note_on_c, 9, 42, 87
1, 41999, Note_on_c, 9, 38, 0
1, 41999, Note_on_c, 9, 42, 0
1, 42000, Note_on_c, 9, 46, 45
1, 42239, Note_on_c, 9, 46, 0
1, 42240, Note_on_c, 9, 35, 112
1, 42255, Note_on_c, 9, 42, 90
1, 42479, Note_on_c, 9, 42, 0
1, 42500, Note_on_c, 9, 42, 42
1, 42539, Note_on_c, 9, 42, 0
1, 42719, Note_on_c, 9, 35, 0
1, 42720, Note_on_c, 9, 38, 111
1, 42720, Note_on_c, 9, 42, 85
1, 42959, Note_on_c, 9, 38, 0
1, 42959, Note_on_c, 9, 42, 0
1, 42960, Note_on_c, 9, 35, 75
1, 42980, Note_on_c, 9, 42, 44
1, 43019, Note_on_c, 9, 42, 0
1, 43199, Note_on_c, 9, 35, 0
1, 43200, Note_on_c, 9, 42, 83
1, 43200, Note_on_c, 9, 35, 114
1, 43439, Note_on_c, 9, 42, 0
1, 43460, Note_on_c, 9, 42, 45
1, 43499, Note_on_c, 9, 42, 0
1, 43679, Note_on_c, 9, 35, 0
1, 43680, Note_on_c, 9, 38, 110
1, 43694, Note_on_c, 9, 38, 0
1, 43695, Note_on_c, 9, 42, 86
1, 43919, Note_on_c, 9, 42, 0
1, 43940, Note_on_c, 9, 42, 46
1, 43979, Note_on_c, 9, 42, 0
1, 44160, Note_on_c, 9, 35, 114
1, 44175, Note_on_c, 9, 42, 89
1, 44399, Note_on_c, 9, 42, 0
1, 44420, Note_on_c, 9, 42, 47
1, 44459, Note_on_c, 9, 42, 0
1, 44639, Note_on_c, 9, 35, 0
1, 44640, Note_on_c, 9, 38, 110
1, 44654, Note_on_c, 9, 38, 0
1, 44655, Note_on_c, 9, 42, 84
1, 44879, Note_on_c, 9, 42, 0
1, 44880, Note_on_c, 9, 35, 84
1, 44895, Note_on_c, 9, 42, 42
1, 45119, Note_on_c, 9, 35, 0
1, 45119, Note_on_c, 9, 42, 0
1, 45120, Note_on_c, 9, 42, 88
1, 45120, Note_on_c, 9, 35, 114
1, 45359, Note_on_c, 9, 42, 0
1, 45375, Note_on_c, 9, 42, 42
1, 45599, Note_on_c, 9, 35, 0
1, 45599, Note_on_c, 9, 42, 0
1, 45600, Note_on_c, 9, 38, 114
1, 45614, Note_on_c, 9, 38, 0
1, 45615, Note_on_c, 9, 42, 83
1, 45839, Note_on_c, 9, 42, 0
1, 45840, Note_on_c, 9, 46, 47
1, 46079, Note_on_c, 9, 46, 0
1, 46080, Note_on_c, 9, 42, 85
1, 46080, Note_on_c, 9, 35, 110
1, 46319, Note_on_c, 9, 42, 0
1, 46340, Note_on_c, 9, 42, 42
1, 46379, Note_on_c, 9, 42, 0
1, 46559, Note_on_c, 9, 35, 0
1, 46560, Note_on_c, 9, 38, 112
1, 46560, Note_on_c, 9, 42, 86
1, 46799, Note_on_c, 9, 38, 0
1, 46799, Note_on_c, 9, 42, 0
1, 46800, Note_on_c, 9, 35, 83
1, 46815, Note_on_c, 9, 42, 47
1, 47039, Note_on_c, 9, 35, 0
1, 47039, Note_on_c, 9, 42, 0
1, 47040, Note_on_c, 9, 42, 85
1, 47279, Note_on_c, 9, 42, 0
1, 47280, Note_on_c, 9, 35, 112
1, 47295, Note_on_c, 9, 42, 47
1, 47519, Note_on_c, 9, 35, 0
1, 47519, Note_on_c, 9, 42, 0
1, 47520, Note_on_c, 9, 42, 84
1, 47534, Note_on_c, 9, 42, 0
1, 47535, Note_on_c, 9, 38, 111
1, 47759, Note_on_c, 9, 38, 0
1, 47760, Note_on_c, 9, 46, 42
1, 47760, Note_on_c, 9, 35, 83
1, 47939, Note_on_c, 9, 46, 0
1, 47980, Note_on_c, 9, 38, 82
1, 47999, Note_on_c, 9, 35, 0
1, 47999, Note_on_c, 9, 38, 0
1, 48015, Note_on_c, 9, 38, 122
1, 48419, Note_on_c, 9, 38, 0
1, 48450, Note_on_c, 9, 48, 101
1, 48479, Note_on_c, 9, 48, 0
1, 48480, Note_on_c, 9, 48, 127
1, 48959, Note_on_c, 9, 48, 0
1, 49440, Note_on_c, 9, 41, 83
1, 49919, Note_on_c, 9, 41, 0
1, 49920, Note_on_c, 9, 35, 112
1, 49960, Note_on_c, 9, 57, 68
1, 49979, Note_on_c, 9, 57, 0
1, 50180, Note_on_c, 9, 42, 44
1, 50219, Note_on_c, 9, 42, 0
1, 50399, Note_on_c, 9, 35, 0
1, 50400, Note_on_c, 9, 38, 112
1, 50400, Note_on_c, 9, 42, 87
1, 50639, Note_on_c, 9, 38, 0
1, 50639, Note_on_c, 9, 42, 0
1, 50640, Note_on_c, 9, 35, 83
1, 50660, Note_on_c, 9, 42, 45
1, 50699, Note_on_c, 9, 42, 0
1, 50879, Note_on_c, 9, 35, 0
1, 50880, Note_on_c, 9, 42, 84
1, 50880, Note_on_c, 9, 35, 114
1, 51119, Note_on_c, 9, 42, 0
1, 51135, Note_on_c, 9, 42, 42
1, 51359, Note_on_c, 9, 35, 0
1, 51359, Note_on_c, 9, 42, 0
1, 51360, Note_on_c, 9, 38, 111
1, 51360, Note_on_c, 9, 42, 87
1, 51599, Note_on_c, 9, 38, 0
1, 51599, Note_on_c, 9, 42, 0
1, 51600, Note_on_c, 9, 46, 45
1, 51839, Note_on_c, 9, 46, 0
1, 51840, Note_on_c, 9, 35, 110
1, 51855, Note_on_c, 9, 42, 85
1, 52079, Note_on_c, 9, 42, 0
1, 52100, Note_on_c, 9, 42, 42
1, 52139, Note_on_c, 9, 42, 0
1, 52319, Note_on_c, 9, 35, 0
1, 52320, Note_on_c, 9, 38, 112
1, 52334, Note_on_c, 9, 38, 0
1, 52335, Note_on_c, 9, 42, 86
1, 52559, Note_on_c, 9, 42, 0
1, 52560, Note_on_c, 9, 35, 83
1, 52575, Note_on_c, 9, 42, 47
1, 52799, Note_on_c, 9, 35, 0
1, 52799, Note_on_c, 9, 42, 0
1, 52800, Note_on_c, 9, 42, 85
1, 52800, Note_on_c, 9, 35, 112
1, 53039, Note_on_c, 9, 42, 0
1, 53055, Note_on_c, 9, 42, 47
1, 53279, Note_on_c, 9, 35, 0
1, 53279, Note_on_c, 9, 42, 0
1, 53280, Note_on_c, 9, 38, 111
1, 53294, Note_on_c, 9, 38, 0
1, 53295, Note_on_c, 9, 42, 84
1, 53519, Note_on_c, 9, 42, 0
1, 53540, Note_on_c, 9, 42, 42
1, 53579, Note_on_c, 9, 42, 0
1, 53760, Note_on_c, 9, 35, 112
1, 53775, Note_on_c, 9, 42, 90
1, 53999, Note_on_c, 9, 42, 0
1, 54020, Note_on_c, 9, 42, 45
1, 54059, Note_on_c, 9, 42, 0
1, 54239, Note_on_c, 9, 35, 0
1, 54240, Note_on_c, 9, 38, 110
1, 54240, Note_on_c, 9, 42, 90
1, 54479, Note_on_c, 9, 38, 0
1, 54479, Note_on_c, 9, 42, 0
1, 54480, Note_on_c, 9, 35, 84
1, 54495, Note_on_c, 9, 42, 46
1, 54719, Note_on_c, 9, 35, 0
1, 54719, Note_on_c, 9, 42, 0
1, 54720, Note_on_c, 9, 42, 88
1, 54720, Note_on_c, 9, 35, 110
1, 54959, Note_on_c, 9, 42, 0
1, 54980, Note_on_c, 9, 42, 44
1, 55019, Note_on_c, 9, 42, 0
1, 55199, Note_on_c, 9, 35, 0
1, 55200, Note_on_c, 9, 38, 114
1, 55200, Note_on_c, 9, 42, 83
1, 55439, Note_on_c, 9, 38, 0
1, 55439, Note_on_c, 9, 42, 0
1, 55455, Note_on_c, 9, 46, 41
1, 55679, Note_on_c, 9, 46, 0
1, 55680, Note_on_c, 9, 35, 112
1, 55695, Note_on_c, 9, 42, 89
1, 55919, Note_on_c, 9, 42, 0
1, 55940, Note_on_c, 9, 42, 44
1, 55979, Note_on_c, 9, 42, 0
1, 56159, Note_on_c, 9, 35, 0
1, 56160, Note_on_c, 9, 38, 112
1, 56160, Note_on_c, 9, 42, 87
1, 56399, Note_on_c, 9, 38, 0
1, 56399, Note_on_c, 9, 42, 0
1, 56400, Note_on_c, 9, 35, 115
1, 56420, Note_on_c, 9, 42, 45
1, 56459, Note_on_c, 9, 42, 0
1, 56639, Note_on_c, 9, 35, 0
1, 56640, Note_on_c, 9, 42, 84
1, 56879, Note_on_c, 9, 42, 0
1, 56880, Note_on_c, 9, 46, 42
1, 56880, Note_on_c, 9, 35, 103
1, 57119, Note_on_c, 9, 46, 0
1, 57119, Note_on_c, 9, 35, 0
1, 57120, Note_on_c, 9, 38, 111
1, 57120, Note_on_c, 9, 42, 87
1, 57359, Note_on_c, 9, 38, 0
1, 57359, Note_on_c, 9, 42, 0
1, 57375, Note_on_c, 9, 46, 45
1, 57599, Note_on_c, 9, 46, 0
1, 57600, Note_on_c, 9, 35, 112
1, 57615, Note_on_c, 9, 42, 90
1, 57839, Note_on_c, 9, 42, 0
1, 57860, Note_on_c, 9, 42, 42
1, 57899, Note_on_c, 9, 42, 0
1, 58079, Note_on_c, 9, 35, 0
1, 58080, Note_on_c, 9, 38, 111
1, 58094, Note_on_c, 9, 38, 0
1, 58095, Note_on_c, 9, 42, 85
1, 58319, Note_on_c, 9, 42, 0
1, 58320, Note_on_c, 9, 35, 75
1, 58335, Note_on_c, 9, 42, 44
1, 58559, Note_on_c, 9, 35, 0
1, 58559, Note_on_c, 9, 42, 0
1, 58560, Note_on_c, 9, 42, 83
1, 58560, Note_on_c, 9, 35, 114
1, 58799, Note_on_c, 9, 42, 0
1, 58815, Note_on_c, 9, 42, 45
1, 59039, Note_on_c, 9, 35, 0
1, 59039, Note_on_c, 9, 42, 0
1, 59040, Note_on_c, 9, 38, 110
1, 59040, Note_on_c, 9, 42, 86
1, 59279, Note_on_c, 9, 38, 0
1, 59279, Note_on_c, 9, 42, 0
1, 59300, Note_on_c, 9, 42, 46
1, 59339, Note_on_c, 9, 42, 0
1, 59520, Note_on_c, 9, 35, 114
1, 59535, Note_on_c, 9, 42, 89
1, 59759, Note_on_c, 9, 42, 0
1, 59780, Note_on_c, 9, 42, 47
1, 59819, Note_on_c, 9, 42, 0
1, 59999, Note_on_c, 9, 35, 0
1, 60000, Note_on_c, 9, 38, 110
1, 60000, Note_on_c, 9, 42, 84
1, 60239, Note_on_c, 9, 38, 0
1, 60239, Note_on_c, 9, 42, 0
1, 60240, Note_on_c, 9, 35, 84
1, 60260, Note_on_c, 9, 42, 42
1, 60299, Note_on_c, 9, 42, 0
1, 60479, Note_on_c, 9, 35, 0
1, 60480, Note_on_c, 9, 42, 88
1, 60480, Note_on_c, 9, 35, 114
1, 60719, Note_on_c, 9, 42, 0
1, 60735, Note_on_c, 9, 42, 42
1, 60959, Note_on_c, 9, 35, 0
1, 60959, Note_on_c, 9, 42, 0
1, 60960, Note_on_c, 9, 38, 114
1, 60974, Note_on_c, 9, 38, 0
1, 60975, Note_on_c, 9, 42, 83
1, 61199, Note_on_c, 9, 42, 0
1, 61215, Note_on_c, 9, 46, 47
1, 61439, Note_on_c, 9, 46, 0
1, 61440, Note_on_c, 9, 35, 110
1, 61455, Note_on_c, 9, 42, 85
1, 61679, Note_on_c, 9, 42, 0
1, 61700, Note_on_c, 9, 42, 42
1, 61739, Note_on_c, 9, 42, 0
1, 61919, Note_on_c, 9, 35, 0
1, 61920, Note_on_c, 9, 38, 112
1, 61920, Note_on_c, 9, 42, 86
1, 62159, Note_on_c, 9, 38, 0
1, 62159, Note_on_c, 9, 42, 0
1, 62160, Note_on_c, 9, 35, 83
1, 62175, Note_on_c, 9, 42, 47
1, 62399, Note_on_c, 9, 35, 0
1, 62399, Note_on_c, 9, 42, 0
1, 62400, Note_on_c, 9, 42, 85
1, 62400, Note_on_c, 9, 35, 112
1, 62639, Note_on_c, 9, 42, 0
1, 62655, Note_on_c, 9, 42, 47
1, 62879, Note_on_c, 9, 35, 0
1, 62879, Note_on_c, 9, 42, 0
1, 62880, Note_on_c, 9, 38, 111
1, 62894, Note_on_c, 9, 38, 0
1, 62895, Note_on_c, 9, 42, 84
1, 63119, Note_on_c, 9, 42, 0
1, 63140, Note_on_c, 9, 42, 42
1, 63179, Note_on_c, 9, 42, 0
1, 63360, Note_on_c, 9, 35, 112
1, 63375, Note_on_c, 9, 42, 89
1, 63599, Note_on_c, 9, 42, 0
1, 63620, Note_on_c, 9, 42, 44
1, 63659, Note_on_c, 9, 42, 0
1, 63839, Note_on_c, 9, 35, 0
1, 63840, Note_on_c, 9, 38, 112
1, 63840, Note_on_c, 9, 42, 87
1, 64079, Note_on_c, 9, 38, 0
1, 64079, Note_on_c, 9, 42, 0
1, 64080, Note_on_c, 9, 46, 45
1, 64080, Note_on_c, 9, 35, 93
1, 64319, Note_on_c, 9, 46, 0
1, 64319, Note_on_c, 9, 35, 0
1, 64320, Note_on_c, 9, 42, 84
1, 64559, Note_on_c, 9, 42, 0
1, 64560, Note_on_c, 9, 35, 104
1, 64580, Note_on_c, 9, 42, 42
1, 64619, Note_on_c, 9, 42, 0
1, 64799, Note_on_c, 9, 35, 0
1, 64815, Note_on_c, 9, 38, 111
1, 64829, Note_on_c, 9, 38, 0
1, 64830, Note_on_c, 9, 46, 82
1, 64919, Note_on_c, 9, 46, 0
1, 65040, Note_on_c, 9, 35, 83
1, 65055, Note_on_c, 9, 45, 86
1, 65279, Note_on_c, 9, 35, 0
1, 65279, Note_on_c, 9, 45, 0
1, 65280, Note_on_c, 9, 35, 112
1, 65295, Note_on_c, 9, 49, 66
1, 65519, Note_on_c, 9, 49, 0
1, 65540, Note_on_c, 9, 42, 44
1, 65579, Note_on_c, 9, 42, 0
1, 65759, Note_on_c, 9, 35, 0
1, 65760, Note_on_c, 9, 38, 112
1, 65760, Note_on_c, 9, 42, 87
1, 65999, Note_on_c, 9, 38, 0
1, 65999, Note_on_c, 9, 42, 0
1, 66000, Note_on_c, 9, 35, 83
1, 66020, Note_on_c, 9, 42, 45
1, 66059, Note_on_c, 9, 42, 0
1, 66239, Note_on_c, 9, 35, 0
1, 66240, Note_on_c, 9, 42, 84
1, 66240, Note_on_c, 9, 35, 114
1, 66479, Note_on_c, 9, 42, 0
1, 66500, Note_on_c, 9, 42, 42
1, 66539, Note_on_c, 9, 42, 0
1, 66719, Note_on_c, 9, 35, 0
1, 66720, Note_on_c, 9, 38, 111
1, 66720, Note_on_c, 9, 42, 87
1, 66959, Note_on_c, 9, 38, 0
1, 66959, Note_on_c, 9, 42, 0
1, 66975, Note_on_c, 9, 46, 45
1, 67199, Note_on_c, 9, 46, 0
1, 67200, Note_on_c, 9, 42, 85
1, 67200, Note_on_c, 9, 35, 110
1, 67439, Note_on_c, 9, 42, 0
1, 67460, Note_on_c, 9, 42, 42
1, 67499, Note_on_c, 9, 42, 0
1, 67679, Note_on_c, 9, 35, 0
1, 67680, Note_on_c, 9, 38, 112
1, 67680, Note_on_c, 9, 42, 86
1, 67919, Note_on_c, 9, 38, 0
1, 67919, Note_on_c, 9, 42, 0
1, 67920, Note_on_c, 9, 35, 83
1, 67935, Note_on_c, 9, 42, 47
1, 68159, Note_on_c, 9, 35, 0
1, 68159, Note_on_c, 9, 42, 0
1, 68160, Note_on_c, 9, 42, 85
1, 68160, Note_on_c, 9, 35, 112
1, 68399, Note_on_c, 9, 42, 0
1, 68415, Note_on_c, 9, 42, 47
1, 68639, Note_on_c, 9, 35, 0
1, 68639, Note_on_c, 9, 42, 0
1, 68640, Note_on_c, 9, 38, 111
1, 68640, Note_on_c, 9, 42, 84
1, 68879, Note_on_c, 9, 38, 0
1, 68879, Note_on_c, 9, 42, 0
1, 68900, Note_on_c, 9, 42, 42
1, 68939, Note_on_c, 9, 42, 0
1, 69120, Note_on_c, 9, 35, 112
1, 69135, Note_on_c, 9, 42, 90
1, 69359, Note_on_c, 9, 42, 0
1, 69380, Note_on_c, 9, 42, 45
1, 69419, Note_on_c, 9, 42, 0
1, 69599, Note_on_c, 9, 35, 0
1, 69600, Note_on_c, 9, 38, 110
1, 69614, Note_on_c, 9, 38, 0
1, 69615, Note_on_c, 9, 42, 90
1, 69839, Note_on_c, 9, 42, 0
1, 69840, Note_on_c, 9, 35, 84
1, 69855, Note_on_c, 9, 42, 46
1, 70079, Note_on_c, 9, 35, 0
1, 70079, Note_on_c, 9, 42, 0
1, 70080, Note_on_c, 9, 42, 88
1, 70080, Note_on_c, 9, 35, 110
1, 70319, Note_on_c, 9, 42, 0
1, 70335, Note_on_c, 9, 42, 44
1, 70559, Note_on_c, 9, 35, 0
1, 70559, Note_on_c, 9, 42, 0
1, 70560, Note_on_c, 9, 38, 114
1, 70574, Note_on_c, 9, 38, 0
1, 70575, Note_on_c, 9, 42, 83
1, 70799, Note_on_c, 9, 42, 0
1, 70800, Note_on_c, 9, 46, 41
1, 71039, Note_on_c, 9, 46, 0
1, 71040, Note_on_c, 9, 35, 112
1, 71055, Note_on_c, 9, 42, 89
1, 71279, Note_on_c, 9, 42, 0
1, 71300, Note_on_c, 9, 42, 44
1, 71339, Note_on_c, 9, 42, 0
1, 71519, Note_on_c, 9, 35, 0
1, 71520, Note_on_c, 9, 38, 112
1, 71534, Note_on_c, 9, 38, 0
1, 71535, Note_on_c, 9, 42, 87
1, 71759, Note_on_c, 9, 42, 0
1, 71760, Note_on_c, 9, 35, 83
1, 71780, Note_on_c, 9, 42, 45
1, 71819, Note_on_c, 9, 42, 0
1, 71999, Note_on_c, 9, 35, 0
1, 72000, Note_on_c, 9, 35, 114
1, 72015, Note_on_c, 9, 42, 84
1, 72239, Note_on_c, 9, 42, 0
1, 72260, Note_on_c, 9, 42, 42
1, 72299, Note_on_c, 9, 42, 0
1, 72479, Note_on_c, 9, 35, 0
1, 72495, Note_on_c, 9, 38, 111
1, 72495, Note_on_c, 9, 42, 87
1, 72719, Note_on_c, 9, 38, 0
1, 72719, Note_on_c, 9, 42, 0
1, 72740, Note_on_c, 9, 42, 45
1, 72779, Note_on_c, 9, 42, 0
1, 72960, Note_on_c, 9, 42, 90
1, 72960, Note_on_c, 9, 35, 112
1, 73199, Note_on_c, 9, 42, 0
1, 73220, Note_on_c, 9, 42, 42
1, 73259, Note_on_c, 9, 42, 0
1, 73439, Note_on_c, 9, 35, 0
1, 73440, Note_on_c, 9, 38, 111
1, 73440, Note_on_c, 9, 42, 85
1, 73679, Note_on_c, 9, 38, 0
1, 73679, Note_on_c, 9, 42, 0
1, 73680, Note_on_c, 9, 35, 75
1, 73700, Note_on_c, 9, 42, 44
1, 73739, Note_on_c, 9, 42, 0
1, 73919, Note_on_c, 9, 35, 0
1, 73920, Note_on_c, 9, 42, 83
1, 73920, Note_on_c, 9, 35, 114
1, 74159, Note_on_c, 9, 42, 0
1, 74180, Note_on_c, 9, 42, 45
1, 74219, Note_on_c, 9, 42, 0
1, 74399, Note_on_c, 9, 35, 0
1, 74400, Note_on_c, 9, 38, 110
1, 74400, Note_on_c, 9, 42, 86
1, 74639, Note_on_c, 9, 38, 0
1, 74639, Note_on_c, 9, 42, 0
1, 74640, Note_on_c, 9, 46, 46
1, 74879, Note_on_c, 9, 46, 0
1, 74880, Note_on_c, 9, 35, 114
1, 74895, Note_on_c, 9, 42, 89
1, 75119, Note_on_c, 9, 42, 0
1, 75140, Note_on_c, 9, 42, 47
1, 75179, Note_on_c, 9, 42, 0
1, 75359, Note_on_c, 9, 35, 0
1, 75360, Note_on_c, 9, 38, 110
1, 75360, Note_on_c, 9, 42, 84
1, 75599, Note_on_c, 9, 38, 0
1, 75599, Note_on_c, 9, 42, 0
1, 75600, Note_on_c, 9, 35, 84
1, 75620, Note_on_c, 9, 42, 42
1, 75659, Note_on_c, 9, 42, 0
1, 75839, Note_on_c, 9, 35, 0
1, 75840, Note_on_c, 9, 42, 88
1, 75840, Note_on_c, 9, 35, 114
1, 76079, Note_on_c, 9, 42, 0
1, 76100, Note_on_c, 9, 42, 42
1, 76139, Note_on_c, 9, 42, 0
1, 76319, Note_on_c, 9, 35, 0
1, 76320, Note_on_c, 9, 38, 114
1, 76320, Note_on_c, 9, 42, 83
1, 76559, Note_on_c, 9, 38, 0
1, 76559, Note_on_c, 9, 42, 0
1, 76580, Note_on_c, 9, 42, 47
1, 76619, Note_on_c, 9, 42, 0
1, 76800, Note_on_c, 9, 42, 85
1, 76800, Note_on_c, 9, 35, 110
1, 77039, Note_on_c, 9, 42, 0
1, 77060, Note_on_c, 9, 42, 42
1, 77099, Note_on_c, 9, 42, 0
1, 77279, Note_on_c, 9, 35, 0
1, 77280, Note_on_c, 9, 38, 112
1, 77294, Note_on_c, 9, 38, 0
1, 77295, Note_on_c, 9, 42, 86
1, 77519, Note_on_c, 9, 42, 0
1, 77520, Note_on_c, 9, 35, 83
1, 77540, Note_on_c, 9, 42, 47
1, 77579, Note_on_c, 9, 42, 0
1, 77759, Note_on_c, 9, 35, 0
1, 77760, Note_on_c, 9, 42, 85
1, 77999, Note_on_c, 9, 42, 0
1, 78000, Note_on_c, 9, 35, 113
1, 78015, Note_on_c, 9, 42, 47
1, 78239, Note_on_c, 9, 35, 0
1, 78239, Note_on_c, 9, 42, 0
1, 78240, Note_on_c, 9, 38, 111
1, 78240, Note_on_c, 9, 42, 84
1, 78479, Note_on_c, 9, 38, 0
1, 78479, Note_on_c, 9, 42, 0
1, 78480, Note_on_c, 9, 46, 42
1, 78480, Note_on_c, 9, 35, 83
1, 78659, Note_on_c, 9, 46, 0
1, 78700, Note_on_c, 9, 38, 82
1, 78719, Note_on_c, 9, 35, 0
1, 78719, Note_on_c, 9, 38, 0
1, 78735, Note_on_c, 9, 38, 122
1, 79139, Note_on_c, 9, 38, 0
1, 79170, Note_on_c, 9, 48, 101
1, 79199, Note_on_c, 9, 48, 0
1, 79200, Note_on_c, 9, 48, 127
1, 79679, Note_on_c, 9, 48, 0
1, 80130, Note_on_c, 9, 43, 88
1, 80159, Note_on_c, 9, 43, 0
1, 80160, Note_on_c, 9, 43, 92
1, 80639, Note_on_c, 9, 43, 0
1, 80640, Note_on_c, 9, 35, 112
1, 80660, Note_on_c, 9, 42, 89
1, 80699, Note_on_c, 9, 42, 0
1, 80900, Note_on_c, 9, 42, 44
1, 80939, Note_on_c, 9, 42, 0
1, 81119, Note_on_c, 9, 35, 0
1, 81120, Note_on_c, 9, 38, 112
1, 81134, Note_on_c, 9, 38, 0
1, 81135, Note_on_c, 9, 42, 87
1, 81359, Note_on_c, 9, 42, 0
1, 81360, Note_on_c, 9, 35, 83
1, 81380, Note_on_c, 9, 42, 45
1, 81419, Note_on_c, 9, 42, 0
1, 81599, Note_on_c, 9, 35, 0
1, 81600, Note_on_c, 9, 42, 84
1, 81600, Note_on_c, 9, 35, 114
1, 81839, Note_on_c, 9, 42, 0
1, 81855, Note_on_c, 9, 42, 42
1, 82079, Note_on_c, 9, 35, 0
1, 82079, Note_on_c, 9, 42, 0
1, 82080, Note_on_c, 9, 38, 111
1, 82094, Note_on_c, 9, 38, 0
1, 82095, Note_on_c, 9, 42, 87
1, 82319, Note_on_c, 9, 42, 0
1, 82340, Note_on_c, 9, 42, 45
1, 82379, Note_on_c, 9, 42, 0
1, 82560, Note_on_c, 9, 35, 110
1, 82575, Note_on_c, 9, 42, 85
1, 82799, Note_on_c, 9, 42, 0
1, 82820, Note_on_c, 9, 42, 42
1, 82859, Note_on_c, 9, 42, 0
1, 83039, Note_on_c, 9, 35, 0
1, 83040, Note_on_c, 9, 38, 112
1, 83040, Note_on_c, 9, 42, 86
1, 83279, Note_on_c, 9, 38, 0
1, 83279, Note_on_c, 9, 42, 0
1, 83280, Note_on_c, 9, 35, 83
1, 83295, Note_on_c, 9, 42, 47
1, 83519, Note_on_c, 9, 35, 0
1, 83519, Note_on_c, 9, 42, 0
1, 83520, Note_on_c, 9, 42, 85
1, 83520, Note_on_c, 9, 35, 112
1, 83759, Note_on_c, 9, 42, 0
1, 83775, Note_on_c, 9, 42, 47
1, 83999, Note_on_c, 9, 35, 0
1, 83999, Note_on_c, 9, 42, 0
1, 84000, Note_on_c, 9, 38, 111
1, 84014, Note_on_c, 9, 38, 0
1, 84015, Note_on_c, 9, 42, 84
1, 84239, Note_on_c, 9, 42, 0
1, 84240, Note_on_c, 9, 46, 42
1, 84479, Note_on_c, 9, 46, 0
1, 84480, Note_on_c, 9, 35, 112
1, 84495, Note_on_c, 9, 42, 90
1, 84719, Note_on_c, 9, 42, 0
1, 84740, Note_on_c, 9, 42, 45
1, 84779, Note_on_c, 9, 42, 0
1, 84959, Note_on_c, 9, 35, 0
1, 84960, Note_on_c, 9, 38, 110
1, 84960, Note_on_c, 9, 42, 90
1, 85199, Note_on_c, 9, 38, 0
1, 85199, Note_on_c, 9, 42, 0
1, 85200, Note_on_c, 9, 35, 84
1, 85215, Note_on_c, 9, 42, 46
1, 85439, Note_on_c, 9, 35, 0
1, 85439, Note_on_c, 9, 42, 0
1, 85440, Note_on_c, 9, 42, 88
1, 85440, Note_on_c, 9, 35, 110
1, 85679, Note_on_c, 9, 42, 0
1, 85695, Note_on_c, 9, 42, 44
1, 85919, Note_on_c, 9, 35, 0
1, 85919, Note_on_c, 9, 42, 0
1, 85920, Note_on_c, 9, 38, 114
1, 85920, Note_on_c, 9, 42, 83
1, 86159, Note_on_c, 9, 38, 0
1, 86159, Note_on_c, 9, 42, 0
1, 86180, Note_on_c, 9, 42, 41
1, 86219, Note_on_c, 9, 42, 0
1, 86400, Note_on_c, 9, 42, 89
1, 86400, Note_on_c, 9, 35, 112
1, 86639, Note_on_c, 9, 42, 0
1, 86660, Note_on_c, 9, 42, 44
1, 86699, Note_on_c, 9, 42, 0
1, 86879, Note_on_c, 9, 35, 0
1, 86880, Note_on_c, 9, 38, 112
1, 86894, Note_on_c, 9, 38, 0
1, 86895, Note_on_c, 9, 42, 87
1, 87119, Note_on_c, 9, 42, 0
1, 87120, Note_on_c, 9, 35, 83
1, 87135, Note_on_c, 9, 42, 45
1, 87359, Note_on_c, 9, 35, 0
1, 87359, Note_on_c, 9, 42, 0
1, 87360, Note_on_c, 9, 42, 84
1, 87360, Note_on_c, 9, 35, 114
1, 87599, Note_on_c, 9, 42, 0
1, 87615, Note_on_c, 9, 42, 42
1, 87839, Note_on_c, 9, 35, 0
1, 87839, Note_on_c, 9, 42, 0
1, 87840, Note_on_c, 9, 38, 111
1, 87854, Note_on_c, 9, 38, 0
1, 87855, Note_on_c, 9, 42, 87
1, 88079, Note_on_c, 9, 42, 0
1, 88080, Note_on_c, 9, 46, 45
1, 88319, Note_on_c, 9, 46, 0
1, 88320, Note_on_c, 9, 35, 112
1, 88340, Note_on_c, 9, 42, 90
1, 88379, Note_on_c, 9, 42, 0
1, 88580, Note_on_c, 9, 42, 42
1, 88619, Note_on_c, 9, 42, 0
1, 88799, Note_on_c, 9, 35, 0
1, 88800, Note_on_c, 9, 38, 111
1, 88814, Note_on_c, 9, 38, 0
1, 88815, Note_on_c, 9, 42, 85
1, 89039, Note_on_c, 9, 42, 0
1, 89040, Note_on_c, 9, 35, 75
1, 89060, Note_on_c, 9, 42, 44
1, 89099, Note_on_c, 9, 42, 0
1, 89279, Note_on_c, 9, 35, 0
1, 89280, Note_on_c, 9, 42, 83
1, 89280, Note_on_c, 9, 35, 114
1, 89519, Note_on_c, 9, 42, 0
1, 89535, Note_on_c, 9, 42, 45
1, 89744, Note_on_c, 9, 42, 0
1, 89745, Note_on_c, 9, 38, 110
1, 89745, Note_on_c, 9, 42, 86
1, 89759, Note_on_c, 9, 35, 0
1, 89759, Note_on_c, 9, 42, 0
1, 89999, Note_on_c, 9, 38, 0
1, 90020, Note_on_c, 9, 42, 46
1, 90059, Note_on_c, 9, 42, 0
1, 90240, Note_on_c, 9, 35, 114
1, 90255, Note_on_c, 9, 42, 89
1, 90479, Note_on_c, 9, 42, 0
1, 90500, Note_on_c, 9, 42, 47
1, 90539, Note_on_c, 9, 42, 0
1, 90719, Note_on_c, 9, 35, 0
1, 90720, Note_on_c, 9, 38, 110
1, 90720, Note_on_c, 9, 42, 84
1, 90959, Note_on_c, 9, 38, 0
1, 90959, Note_on_c, 9, 42, 0
1, 90960, Note_on_c, 9, 35, 84
1, 90975, Note_on_c, 9, 42, 42
1, 91199, Note_on_c, 9, 35, 0
1, 91199, Note_on_c, 9, 42, 0
1, 91200, Note_on_c, 9, 42, 88
1, 91200, Note_on_c, 9, 35, 114
1, 91439, Note_on_c, 9, 42, 0
1, 91455, Note_on_c, 9, 42, 42
1, 91679, Note_on_c, 9, 35, 0
1, 91679, Note_on_c, 9, 42, 0
1, 91680, Note_on_c, 9, 38, 114
1, 91680, Note_on_c, 9, 42, 83
1, 91919, Note_on_c, 9, 38, 0
1, 91919, Note_on_c, 9, 42, 0
1, 91935, Note_on_c, 9, 42, 47
1, 92159, Note_on_c, 9, 42, 0
1, 92160, Note_on_c, 9, 35, 110
1, 92175, Note_on_c, 9, 42, 85
1, 92399, Note_on_c, 9, 42, 0
1, 92420, Note_on_c, 9, 42, 42
1, 92459, Note_on_c, 9, 42, 0
1, 92639, Note_on_c, 9, 35, 0
1, 92640, Note_on_c, 9, 38, 112
1, 92640, Note_on_c, 9, 42, 86
1, 92879, Note_on_c, 9, 38, 0
1, 92879, Note_on_c, 9, 42, 0
1, 92880, Note_on_c, 9, 35, 83
1, 92895, Note_on_c, 9, 42, 47
1, 93119, Note_on_c, 9, 35, 0
1, 93119, Note_on_c, 9, 42, 0
1, 93120, Note_on_c, 9, 42, 85
1, 93120, Note_on_c, 9, 35, 112
1, 93359, Note_on_c, 9, 42, 0
1, 93375, Note_on_c, 9, 42, 47
1, 93599, Note_on_c, 9, 35, 0
1, 93599, Note_on_c, 9, 42, 0
1, 93600, Note_on_c, 9, 38, 111
1, 93614, Note_on_c, 9, 38, 0
1, 93615, Note_on_c, 9, 46, 79
1, 93839, Note_on_c, 9, 46, 0
1, 93840, Note_on_c, 9, 46, 42
1, 94064, Note_on_c, 9, 46, 0
1, 94065, Note_on_c, 9, 38, 72
1, 94079, Note_on_c, 9, 38, 0
1, 94095, Note_on_c, 9, 38, 112
1, 94319, Note_on_c, 9, 38, 0
1, 94320, Note_on_c, 9, 35, 112
1, 94559, Note_on_c, 9, 35, 0
1, 94560, Note_on_c, 9, 38, 111
1, 94574, Note_on_c, 9, 38, 0
1, 94575, Note_on_c, 9, 46, 82
1, 94800, Note_on_c, 9, 35, 83
1, 94814, Note_on_c, 9, 35, 0
1, 94815, Note_on_c, 9, 44, 45
1, 94979, Note_on_c, 9, 46, 0
1, 95020, Note_on_c, 9, 38, 81
1, 95039, Note_on_c, 9, 44, 0
1, 95039, Note_on_c, 9, 38, 0
1, 95040, Note_on_c, 9, 38, 111
1, 95280, Note_on_c, 9, 35, 114
1, 95489, Note_on_c, 9, 38, 0
1, 95505, Note_on_c, 9, 45, 71
1, 95519, Note_on_c, 9, 35, 0
1, 95519, Note_on_c, 9, 45, 0
1, 95535, Note_on_c, 9, 45, 81
1, 95759, Note_on_c, 9, 45, 0
1, 95760, Note_on_c, 9, 35, 114
1, 95774, Note_on_c, 9, 35, 0
1, 95775, Note_on_c, 9, 43, 97
1, 95999, Note_on_c, 9, 43, 0
1, 96000, Note_on_c, 9, 49, 67
1, 96000, Note_on_c, 9, 35, 112
1, 96239, Note_on_c, 9, 49, 0
1, 96260, Note_on_c, 9, 42, 44
1, 96299, Note_on_c, 9, 42, 0
1, 96479, Note_on_c, 9, 35, 0
1, 96480, Note_on_c, 9, 38, 112
1, 96494, Note_on_c, 9, 38, 0
1, 96495, Note_on_c, 9, 42, 87
1, 96719, Note_on_c, 9, 42, 0
1, 96720, Note_on_c, 9, 35, 83
1, 96735, Note_on_c, 9, 42, 45
1, 96959, Note_on_c, 9, 35, 0
1, 96959, Note_on_c, 9, 42, 0
1, 96960, Note_on_c, 9, 42, 84
1, 96960, Note_on_c, 9, 35, 114
1, 97199, Note_on_c, 9, 42, 0
1, 97215, Note_on_c, 9, 42, 42
1, 97439, Note_on_c, 9, 35, 0
1, 97439, Note_on_c, 9, 42, 0
1, 97440, Note_on_c, 9, 38, 111
1, 97440, Note_on_c, 9, 42, 87
1, 97679, Note_on_c, 9, 38, 0
1, 97679, Note_on_c, 9, 42, 0
1, 97700, Note_on_c, 9, 42, 45
1, 97739, Note_on_c, 9, 42, 0
1, 97920, Note_on_c, 9, 35, 110
1, 97935, Note_on_c, 9, 42, 85
1, 98159, Note_on_c, 9, 42, 0
1, 98180, Note_on_c, 9, 42, 42
1, 98219, Note_on_c, 9, 42, 0
1, 98399, Note_on_c, 9, 35, 0
1, 98400, Note_on_c, 9, 38, 112
1, 98400, Note_on_c, 9, 42, 86
1, 98639, Note_on_c, 9, 38, 0
1, 98639, Note_on_c, 9, 42, 0
1, 98640, Note_on_c, 9, 35, 83
1, 98660, Note_on_c, 9, 42, 47
1, 98699, Note_on_c, 9, 42, 0
1, 98879, Note_on_c, 9, 35, 0
1, 98880, Note_on_c, 9, 42, 85
1, 98880, Note_on_c, 9, 35, 112
1, 99119, Note_on_c, 9, 42, 0
1, 99135, Note_on_c, 9, 42, 47
1, 99359, Note_on_c, 9, 35, 0
1, 99359, Note_on_c, 9, 42, 0
1, 99360, Note_on_c, 9, 38, 111
1, 99360, Note_on_c, 9, 42, 84
1, 99599, Note_on_c, 9, 38, 0
1, 99599, Note_on_c, 9, 42, 0
1, 99600, Note_on_c, 9, 46, 42
1, 99839, Note_on_c, 9, 46, 0
1, 99840, Note_on_c, 9, 35, 112
1, 99855, Note_on_c, 9, 42, 90
1, 100079, Note_on_c, 9, 42, 0
1, 100100, Note_on_c, 9, 42, 45
1, 100139, Note_on_c, 9, 42, 0
1, 100319, Note_on_c, 9, 35, 0
1, 100320, Note_on_c, 9, 38, 110
1, 100320, Note_on_c, 9, 42, 90
1, 100559, Note_on_c, 9, 38, 0
1, 100559, Note_on_c, 9, 42, 0
1, 100560, Note_on_c, 9, 35, 84
1, 100575, Note_on_c, 9, 42, 46
1, 100799, Note_on_c, 9, 35, 0
1, 100799, Note_on_c, 9, 42, 0
1, 100800, Note_on_c, 9, 42, 88
1, 100800, Note_on_c, 9, 35, 110
1, 101039, Note_on_c, 9, 42, 0
1, 101060, Note_on_c, 9, 42, 44
1, 101099, Note_on_c, 9, 42, 0
1, 101279, Note_on_c, 9, 35, 0
1, 101280, Note_on_c, 9, 38, 114
1, 101294, Note_on_c, 9, 38, 0
1, 101295, Note_on_c, 9, 42, 83
1, 101519, Note_on_c, 9, 42, 0
1, 101540, Note_on_c, 9, 42, 41
1, 101579, Note_on_c, 9, 42, 0
1, 101760, Note_on_c, 9, 35, 112
1, 101775, Note_on_c, 9, 42, 89
1, 101999, Note_on_c, 9, 42, 0
1, 102020, Note_on_c, 9, 42, 44
1, 102059, Note_on_c, 9, 42, 0
1, 102239, Note_on_c, 9, 35, 0
1, 102240, Note_on_c, 9, 38, 112
1, 102240, Note_on_c, 9, 42, 87
1, 102479, Note_on_c, 9, 38, 0
1, 102479, Note_on_c, 9, 42, 0
1, 102480, Note_on_c, 9, 46, 45
1, 102480, Note_on_c, 9, 35, 112
1, 102719, Note_on_c, 9, 46, 0
1, 102719, Note_on_c, 9, 35, 0
1, 102720, Note_on_c, 9, 42, 84
1, 102959, Note_on_c, 9, 42, 0
1, 102960, Note_on_c, 9, 46, 42
1, 102960, Note_on_c, 9, 35, 104
1, 103199, Note_on_c, 9, 46, 0
1, 103199, Note_on_c, 9, 35, 0
1, 103200, Note_on_c, 9, 38, 111
1, 103200, Note_on_c, 9, 42, 87
1, 103439, Note_on_c, 9, 38, 0
1, 103439, Note_on_c, 9, 42, 0
1, 103440, Note_on_c, 9, 35, 84
1, 103460, Note_on_c, 9, 42, 45
1, 103499, Note_on_c, 9, 42, 0
1, 103679, Note_on_c, 9, 35, 0
1, 103680, Note_on_c, 9, 35, 112
1, 103695, Note_on_c, 9, 42, 90
1, 103919, Note_on_c, 9, 42, 0
1, 103940, Note_on_c, 9, 42, 42
1, 103979, Note_on_c, 9, 42, 0
1, 104159, Note_on_c, 9, 35, 0
1, 104160, Note_on_c, 9, 38, 111
1, 104160, Note_on_c, 9, 42, 85
1, 104399, Note_on_c, 9, 38, 0
1, 104399, Note_on_c, 9, 42, 0
1, 104400, Note_on_c, 9, 35, 75
1, 104420, Note_on_c, 9, 42, 44
1, 104459, Note_on_c, 9, 42, 0
1, 104639, Note_on_c, 9, 35, 0
1, 104640, Note_on_c, 9, 42, 83
1, 104640, Note_on_c, 9, 35, 114
1, 104879, Note_on_c, 9, 42, 0
1, 104895, Note_on_c, 9, 42, 45
1, 105119, Note_on_c, 9, 35, 0
1, 105119, Note_on_c, 9, 42, 0
1, 105120, Note_on_c, 9, 38, 110
1, 105134, Note_on_c, 9, 38, 0
1, 105135, Note_on_c, 9, 42, 86
1, 105359, Note_on_c, 9, 42, 0
1, 105380, Note_on_c, 9, 42, 46
1, 105419, Note_on_c, 9, 42, 0
1, 105600, Note_on_c, 9, 35, 114
1, 105615, Note_on_c, 9, 42, 89
1, 105839, Note_on_c, 9, 42, 0
1, 105860, Note_on_c, 9, 42, 47
1, 105899, Note_on_c, 9, 42, 0
1, 106079, Note_on_c, 9, 35, 0
1, 106080, Note_on_c, 9, 38, 110
1, 106080, Note_on_c, 9, 42, 84
1, 106319, Note_on_c, 9, 38, 0
1, 106319, Note_on_c, 9, 42, 0
1, 106320, Note_on_c, 9, 35, 84
1, 106335, Note_on_c, 9, 42, 42
1, 106559, Note_on_c, 9, 35, 0
1, 106559, Note_on_c, 9, 42, 0
1, 106560, Note_on_c, 9, 42, 88
1, 106560, Note_on_c, 9, 35, 114
1, 106799, Note_on_c, 9, 42, 0
1, 106815, Note_on_c, 9, 42, 42
1, 107039, Note_on_c, 9, 35, 0
1, 107039, Note_on_c, 9, 42, 0
1, 107040, Note_on_c, 9, 38, 114
1, 107040, Note_on_c, 9, 42, 83
1, 107279, Note_on_c, 9, 38, 0
1, 107279, Note_on_c, 9, 42, 0
1, 107280, Note_on_c, 9, 46, 47
1, 107519, Note_on_c, 9, 46, 0
1, 107520, Note_on_c, 9, 42, 85
1, 107520, Note_on_c, 9, 35, 110
1, 107759, Note_on_c, 9, 42, 0
1, 107780, Note_on_c, 9, 42, 42
1, 107819, Note_on_c, 9, 42, 0
1, 107999, Note_on_c, 9, 35, 0
1, 108000, Note_on_c, 9, 38, 112
1, 108000, Note_on_c, 9, 42, 86
1, 108239, Note_on_c, 9, 38, 0
1, 108239, Note_on_c, 9, 42, 0
1, 108240, Note_on_c, 9, 35, 112
1, 108260, Note_on_c, 9, 42, 47
1, 108299, Note_on_c, 9, 42, 0
1, 108479, Note_on_c, 9, 35, 0
1, 108480, Note_on_c, 9, 42, 85
1, 108719, Note_on_c, 9, 42, 0
1, 108720, Note_on_c, 9, 35, 112
1, 108740, Note_on_c, 9, 42, 47
1, 108779, Note_on_c, 9, 42, 0
1, 108959, Note_on_c, 9, 35, 0
1, 108960, Note_on_c, 9, 38, 111
1, 108974, Note_on_c, 9, 38, 0
1, 108975, Note_on_c, 9, 42, 84
1, 109199, Note_on_c, 9, 42, 0
1, 109200, Note_on_c, 9, 35, 84
1, 109215, Note_on_c, 9, 46, 42
1, 109379, Note_on_c, 9, 46, 0
1, 109420, Note_on_c, 9, 38, 82
1, 109439, Note_on_c, 9, 35, 0
1, 109439, Note_on_c, 9, 38, 0
1, 109440, Note_on_c, 9, 38, 122
1, 109680, Note_on_c, 9, 35, 91
1, 109889, Note_on_c, 9, 38, 0
1, 109890, Note_on_c, 9, 48, 101
1, 109919, Note_on_c, 9, 35, 0
1, 109919, Note_on_c, 9, 48, 0
1, 109920, Note_on_c, 9, 48, 127
1, 110279, Note_on_c, 9, 48, 0
1, 110380, Note_on_c, 9, 38, 91
1, 110399, Note_on_c, 9, 38, 0
1, 110415, Note_on_c, 9, 38, 122
1, 110639, Note_on_c, 9, 38, 0
1, 110640, Note_on_c, 9, 35, 91
1, 110819, Note_on_c, 9, 35, 0
1, 110860, Note_on_c, 9, 43, 88
1, 110879, Note_on_c, 9, 43, 0
1, 110880, Note_on_c, 9, 43, 92
1, 111359, Note_on_c, 9, 43, 0
1, 111360, Note_on_c, 9, 35, 112
1, 111375, Note_on_c, 9, 49, 68
1, 111599, Note_on_c, 9, 49, 0
1, 111620, Note_on_c, 9, 42, 44
1, 111659, Note_on_c, 9, 42, 0
1, 111839, Note_on_c, 9, 35, 0
1, 111840, Note_on_c, 9, 38, 112
1, 111854, Note_on_c, 9, 38, 0
1, 111855, Note_on_c, 9, 53, 94
1, 112079, Note_on_c, 9, 53, 0
1, 112080, Note_on_c, 9, 35, 83
1, 112319, Note_on_c, 9, 35, 0
1, 112320, Note_on_c, 9, 53, 91
1, 112320, Note_on_c, 9, 35, 114
1, 112559, Note_on_c, 9, 53, 0
1, 112560, Note_on_c, 9, 51, 57
1, 112784, Note_on_c, 9, 51, 0
1, 112785, Note_on_c, 9, 53, 94
1, 112799, Note_on_c, 9, 35, 0
1, 112800, Note_on_c, 9, 38, 111
1, 113039, Note_on_c, 9, 53, 0
1, 113039, Note_on_c, 9, 38, 0
1, 113055, Note_on_c, 9, 53, 45
1, 113279, Note_on_c, 9, 53, 0
1, 113280, Note_on_c, 9, 53, 92
1, 113280, Note_on_c, 9, 35, 112
1, 113759, Note_on_c, 9, 53, 0
1, 113759, Note_on_c, 9, 35, 0
1, 113760, Note_on_c, 9, 38, 112
1, 113760, Note_on_c, 9, 53, 88
1, 113999, Note_on_c, 9, 38, 0
1, 113999, Note_on_c, 9, 53, 0
1, 114000, Note_on_c, 9, 35, 83
1, 114015, Note_on_c, 9, 53, 75
1, 114239, Note_on_c, 9, 35, 0
1, 114239, Note_on_c, 9, 53, 0
1, 114240, Note_on_c, 9, 53, 85
1, 114240, Note_on_c, 9, 35, 114
1, 114479, Note_on_c, 9, 53, 0
1, 114495, Note_on_c, 9, 53, 42
1, 114719, Note_on_c, 9, 35, 0
1, 114719, Note_on_c, 9, 53, 0
1, 114720, Note_on_c, 9, 38, 111
1, 114720, Note_on_c, 9, 53, 88
1, 114959, Note_on_c, 9, 38, 0
1, 114959, Note_on_c, 9, 53, 0
1, 114975, Note_on_c, 9, 53, 105
1, 115199, Note_on_c, 9, 53, 0
1, 115200, Note_on_c, 9, 53, 54
1, 115200, Note_on_c, 9, 35, 112
1, 115439, Note_on_c, 9, 53, 0
1, 115440, Note_on_c, 9, 51, 57
1, 115679, Note_on_c, 9, 35, 0
1, 115679, Note_on_c, 9, 51, 0
1, 115680, Note_on_c, 9, 53, 90
1, 115694, Note_on_c, 9, 53, 0
1, 115695, Note_on_c, 9, 38, 111
1, 115919, Note_on_c, 9, 38, 0
1, 115920, Note_on_c, 9, 35, 75
1, 115935, Note_on_c, 9, 53, 54
1, 116159, Note_on_c, 9, 35, 0
1, 116159, Note_on_c, 9, 53, 0
1, 116160, Note_on_c, 9, 53, 91
1, 116160, Note_on_c, 9, 35, 114
1, 116639, Note_on_c, 9, 53, 0
1, 116639, Note_on_c, 9, 35, 0
1, 116640, Note_on_c, 9, 53, 86
1, 116654, Note_on_c, 9, 53, 0
1, 116655, Note_on_c, 9, 38, 110
1, 116879, Note_on_c, 9, 38, 0
1, 116895, Note_on_c, 9, 53, 46
1, 117119, Note_on_c, 9, 53, 0
1, 117120, Note_on_c, 9, 53, 94
1, 117120, Note_on_c, 9, 35, 114
1, 117599, Note_on_c, 9, 53, 0
1, 117599, Note_on_c, 9, 35, 0
1, 117600, Note_on_c, 9, 38, 110
1, 117600, Note_on_c, 9, 53, 92
1, 117839, Note_on_c, 9, 38, 0
1, 117839, Note_on_c, 9, 53, 0
1, 117840, Note_on_c, 9, 35, 84
1, 117855, Note_on_c, 9, 53, 85
1, 118079, Note_on_c, 9, 35, 0
1, 118079, Note_on_c, 9, 53, 0
1, 118080, Note_on_c, 9, 53, 94
1, 118080, Note_on_c, 9, 35, 114
1, 118319, Note_on_c, 9, 53, 0
1, 118320, Note_on_c, 9, 51, 57
1, 118559, Note_on_c, 9, 35, 0
1, 118559, Note_on_c, 9, 51, 0
1, 118560, Note_on_c, 9, 53, 93
1, 118574, Note_on_c, 9, 53, 0
1, 118575, Note_on_c, 9, 38, 114
1, 118799, Note_on_c, 9, 38, 0
1, 118800, Note_on_c, 9, 35, 84
1, 118815, Note_on_c, 9, 53, 92
1, 119039, Note_on_c, 9, 35, 0
1, 119039, Note_on_c, 9, 53, 0
1, 119040, Note_on_c, 9, 35, 110
1, 119055, Note_on_c, 9, 51, 77
1, 119504, Note_on_c, 9, 51, 0
1, 119505, Note_on_c, 9, 53, 87
1, 119519, Note_on_c, 9, 35, 0
1, 119520, Note_on_c, 9, 38, 112
1, 119759, Note_on_c, 9, 53, 0
1, 119759, Note_on_c, 9, 38, 0
1, 119760, Note_on_c, 9, 35, 83
1, 119775, Note_on_c, 9, 53, 82
1, 119999, Note_on_c, 9, 35, 0
1, 119999, Note_on_c, 9, 53, 0
1, 120000, Note_on_c, 9, 35, 112
1, 120255, Note_on_c, 9, 53, 97
1, 120479, Note_on_c, 9, 35, 0
1, 120479, Note_on_c, 9, 53, 0
1, 120480, Note_on_c, 9, 53, 86
1, 120494, Note_on_c, 9, 53, 0
1, 120495, Note_on_c, 9, 38, 111
1, 120719, Note_on_c, 9, 38, 0
1, 120735, Note_on_c, 9, 53, 42
1, 120959, Note_on_c, 9, 53, 0
1, 120960, Note_on_c, 9, 35, 112
1, 120975, Note_on_c, 9, 53, 85
1, 121199, Note_on_c, 9, 53, 0
1, 121215, Note_on_c, 9, 53, 45
1, 121424, Note_on_c, 9, 53, 0
1, 121425, Note_on_c, 9, 53, 93
1, 121439, Note_on_c, 9, 35, 0
1, 121440, Note_on_c, 9, 38, 110
1, 121679, Note_on_c, 9, 53, 0
1, 121679, Note_on_c, 9, 38, 0
1, 121680, Note_on_c, 9, 35, 84
1, 121695, Note_on_c, 9, 53, 81
1, 121919, Note_on_c, 9, 35, 0
1, 121919, Note_on_c, 9, 53, 0
1, 121920, Note_on_c, 9, 53, 94
1, 121920, Note_on_c, 9, 35, 110
1, 122399, Note_on_c, 9, 53, 0
1, 122399, Note_on_c, 9, 35, 0
1, 122400, Note_on_c, 9, 53, 94
1, 122414, Note_on_c, 9, 53, 0
1, 122415, Note_on_c, 9, 38, 114
1, 122639, Note_on_c, 9, 38, 0
1, 122655, Note_on_c, 9, 53, 41
1, 122879, Note_on_c, 9, 53, 0
1, 122880, Note_on_c, 9, 35, 112
1, 122895, Note_on_c, 9, 53, 91
1, 123119, Note_on_c, 9, 53, 0
1, 123359, Note_on_c, 9, 35, 0
1, 123360, Note_on_c, 9, 38, 112
1, 123360, Note_on_c, 9, 53, 90
1, 123599, Note_on_c, 9, 38, 0
1, 123599, Note_on_c, 9, 53, 0
1, 123600, Note_on_c, 9, 35, 114
1, 123615, Note_on_c, 9, 53, 45
1, 123839, Note_on_c, 9, 35, 0
1, 123839, Note_on_c, 9, 53, 0
1, 123840, Note_on_c, 9, 53, 90
1, 124079, Note_on_c, 9, 53, 0
1, 124080, Note_on_c, 9, 35, 114
1, 124095, Note_on_c, 9, 53, 42
1, 124319, Note_on_c, 9, 35, 0
1, 124319, Note_on_c, 9, 53, 0
1, 124320, Note_on_c, 9, 53, 92
1, 124334, Note_on_c, 9, 53, 0
1, 124335, Note_on_c, 9, 38, 111
1, 124559, Note_on_c, 9, 38, 0
1, 124560, Note_on_c, 9, 35, 84
1, 124575, Note_on_c, 9, 53, 45
1, 124739, Note_on_c, 9, 53, 0
1, 124780, Note_on_c, 9, 38, 82
1, 124799, Note_on_c, 9, 35, 0
1, 124799, Note_on_c, 9, 38, 0
1, 124800, Note_on_c, 9, 38, 122
1, 125040, Note_on_c, 9, 35, 91
1, 125249, Note_on_c, 9, 38, 0
1, 125250, Note_on_c, 9, 48, 101
1, 125279, Note_on_c, 9, 35, 0
1, 125279, Note_on_c, 9, 48, 0
1, 125280, Note_on_c, 9, 48, 127
1, 125759, Note_on_c, 9, 48, 0
1, 125760, Note_on_c, 9, 44, 122
1, 126220, Note_on_c, 9, 41, 88
1, 126239, Note_on_c, 9, 44, 0
1, 126239, Note_on_c, 9, 41, 0
1, 126240, Note_on_c, 9, 41, 92
1, 126719, Note_on_c, 9, 41, 0
1, 126720, Note_on_c, 9, 35, 112
1, 126735, Note_on_c, 9, 57, 63
1, 126959, Note_on_c, 9, 57, 0
1, 126980, Note_on_c, 9, 42, 44
1, 127019, Note_on_c, 9, 42, 0
1, 127199, Note_on_c, 9, 35, 0
1, 127200, Note_on_c, 9, 38, 112
1, 127214, Note_on_c, 9, 38, 0
1, 127215, Note_on_c, 9, 42, 87
1, 127439, Note_on_c, 9, 42, 0
1, 127440, Note_on_c, 9, 35, 83
1, 127455, Note_on_c, 9, 42, 45
1, 127679, Note_on_c, 9, 35, 0
1, 127679, Note_on_c, 9, 42, 0
1, 127680, Note_on_c, 9, 42, 84
1, 127680, Note_on_c, 9, 35, 114
1, 127919, Note_on_c, 9, 42, 0
1, 127935, Note_on_c, 9, 42, 42
1, 128159, Note_on_c, 9, 35, 0
1, 128159, Note_on_c, 9, 42, 0
1, 128160, Note_on_c, 9, 38, 111
1, 128160, Note_on_c, 9, 42, 87
1, 128399, Note_on_c, 9, 38, 0
1, 128399, Note_on_c, 9, 42, 0
1, 128400, Note_on_c, 9, 46, 45
1, 128639, Note_on_c, 9, 46, 0
1, 128640, Note_on_c, 9, 35, 110
1, 128655, Note_on_c, 9, 42, 85
1, 128879, Note_on_c, 9, 42, 0
1, 128900, Note_on_c, 9, 42, 42
1, 128939, Note_on_c, 9, 42, 0
1, 129119, Note_on_c, 9, 35, 0
1, 129120, Note_on_c, 9, 38, 112
1, 129120, Note_on_c, 9, 42, 86
1, 129359, Note_on_c, 9, 38, 0
1, 129359, Note_on_c, 9, 42, 0
1, 129360, Note_on_c, 9, 35, 83
1, 129375, Note_on_c, 9, 42, 47
1, 129599, Note_on_c, 9, 35, 0
1, 129599, Note_on_c, 9, 42, 0
1, 129600, Note_on_c, 9, 42, 85
1, 129600, Note_on_c, 9, 35, 112
1, 129839, Note_on_c, 9, 42, 0
1, 129855, Note_on_c, 9, 42, 47
1, 130079, Note_on_c, 9, 35, 0
1, 130079, Note_on_c, 9, 42, 0
1, 130080, Note_on_c, 9, 38, 111
1, 130080, Note_on_c, 9, 42, 84
1, 130319, Note_on_c, 9, 38, 0
1, 130319, Note_on_c, 9, 42, 0
1, 130340, Note_on_c, 9, 42, 42
1, 130379, Note_on_c, 9, 42, 0
1, 130560, Note_on_c, 9, 35, 112
1, 130575, Note_on_c, 9, 42, 90
1, 130799, Note_on_c, 9, 42, 0
1, 130820, Note_on_c, 9, 42, 45
1, 130859, Note_on_c, 9, 42, 0
1, 131039, Note_on_c, 9, 35, 0
1, 131040, Note_on_c, 9, 38, 110
1, 131040, Note_on_c, 9, 42, 90
1, 131279, Note_on_c, 9, 38, 0
1, 131279, Note_on_c, 9, 42, 0
1, 131280, Note_on_c, 9, 35, 84
1, 131295, Note_on_c, 9, 42, 46
1, 131519, Note_on_c, 9, 35, 0
1, 131519, Note_on_c, 9, 42, 0
1, 131520, Note_on_c, 9, 42, 88
1, 131520, Note_on_c, 9, 35, 110
1, 131759, Note_on_c, 9, 42, 0
1, 131780, Note_on_c, 9, 42, 44
1, 131819, Note_on_c, 9, 42, 0
1, 131999, Note_on_c, 9, 35, 0
1, 132000, Note_on_c, 9, 38, 114
1, 132000, Note_on_c, 9, 42, 83
1, 132239, Note_on_c, 9, 38, 0
1, 132239, Note_on_c, 9, 42, 0
1, 132260, Note_on_c, 9, 42, 41
1, 132299, Note_on_c, 9, 42, 0
1, 132480, Note_on_c, 9, 42, 89
1, 132480, Note_on_c, 9, 35, 112
1, 132719, Note_on_c, 9, 42, 0
1, 132740, Note_on_c, 9, 42, 44
1, 132779, Note_on_c, 9, 42, 0
1, 132959, Note_on_c, 9, 35, 0
1, 132960, Note_on_c, 9, 38, 112
1, 132960, Note_on_c, 9, 42, 87
1, 133199, Note_on_c, 9, 38, 0
1, 133199, Note_on_c, 9, 42, 0
1, 133200, Note_on_c, 9, 35, 114
1, 133220, Note_on_c, 9, 42, 45
1, 133259, Note_on_c, 9, 42, 0
1, 133439, Note_on_c, 9, 35, 0
1, 133440, Note_on_c, 9, 42, 84
1, 133679, Note_on_c, 9, 42, 0
1, 133680, Note_on_c, 9, 46, 42
1, 133680, Note_on_c, 9, 35, 112
1, 133919, Note_on_c, 9, 46, 0
1, 133919, Note_on_c, 9, 35, 0
1, 133920, Note_on_c, 9, 38, 111
1, 133920, Note_on_c, 9, 42, 87
1, 134159, Note_on_c, 9, 38, 0
1, 134159, Note_on_c, 9, 42, 0
1, 134160, Note_on_c, 9, 46, 45
1, 134399, Note_on_c, 9, 46, 0
1, 134400, Note_on_c, 9, 35, 112
1, 134415, Note_on_c, 9, 42, 90
1, 134639, Note_on_c, 9, 42, 0
1, 134660, Note_on_c, 9, 42, 42
1, 134699, Note_on_c, 9, 42, 0
1, 134879, Note_on_c, 9, 35, 0
1, 134880, Note_on_c, 9, 38, 111
1, 134894, Note_on_c, 9, 38, 0
1, 134895, Note_on_c, 9, 42, 85
1, 135119, Note_on_c, 9, 42, 0
1, 135120, Note_on_c, 9, 35, 75
1, 135140, Note_on_c, 9, 42, 44
1, 135179, Note_on_c, 9, 42, 0
1, 135359, Note_on_c, 9, 35, 0
1, 135360, Note_on_c, 9, 42, 83
1, 135360, Note_on_c, 9, 35, 114
1, 135599, Note_on_c, 9, 42, 0
1, 135615, Note_on_c, 9, 42, 45
1, 135839, Note_on_c, 9, 35, 0
1, 135839, Note_on_c, 9, 42, 0
1, 135840, Note_on_c, 9, 38, 110
1, 135840, Note_on_c, 9, 42, 86
1, 136079, Note_on_c, 9, 38, 0
1, 136079, Note_on_c, 9, 42, 0
1, 136100, Note_on_c, 9, 42, 46
1, 136139, Note_on_c, 9, 42, 0
1, 136320, Note_on_c, 9, 35, 114
1, 136335, Note_on_c, 9, 42, 89
1, 136559, Note_on_c, 9, 42, 0
1, 136580, Note_on_c, 9, 42, 47
1, 136619, Note_on_c, 9, 42, 0
1, 136799, Note_on_c, 9, 35, 0
1, 136800, Note_on_c, 9, 38, 110
1, 136814, Note_on_c, 9, 38, 0
1, 136815, Note_on_c, 9, 42, 84
1, 137039, Note_on_c, 9, 42, 0
1, 137040, Note_on_c, 9, 35, 84
1, 137055, Note_on_c, 9, 42, 42
1, 137279, Note_on_c, 9, 35, 0
1, 137279, Note_on_c, 9, 42, 0
1, 137280, Note_on_c, 9, 42, 88
1, 137280, Note_on_c, 9, 35, 114
1, 137519, Note_on_c, 9, 42, 0
1, 137535, Note_on_c, 9, 42, 42
1, 137759, Note_on_c, 9, 35, 0
1, 137759, Note_on_c, 9, 42, 0
1, 137760, Note_on_c, 9, 38, 114
1, 137774, Note_on_c, 9, 38, 0
1, 137775, Note_on_c, 9, 42, 83
1, 137999, Note_on_c, 9, 42, 0
1, 138000, Note_on_c, 9, 46, 47
1, 138239, Note_on_c, 9, 46, 0
1, 138240, Note_on_c, 9, 35, 110
1, 138255, Note_on_c, 9, 42, 85
1, 138479, Note_on_c, 9, 42, 0
1, 138500, Note_on_c, 9, 42, 42
1, 138539, Note_on_c, 9, 42, 0
1, 138719, Note_on_c, 9, 35, 0
1, 138720, Note_on_c, 9, 38, 112
1, 138720, Note_on_c, 9, 42, 86
1, 138959, Note_on_c, 9, 38, 0
1, 138959, Note_on_c, 9, 42, 0
1, 138960, Note_on_c, 9, 35, 83
1, 138980, Note_on_c, 9, 42, 47
1, 139019, Note_on_c, 9, 42, 0
1, 139199, Note_on_c, 9, 35, 0
1, 139200, Note_on_c, 9, 42, 85
1, 139200, Note_on_c, 9, 35, 112
1, 139439, Note_on_c, 9, 42, 0
1, 139460, Note_on_c, 9, 42, 47
1, 139499, Note_on_c, 9, 42, 0
1, 139679, Note_on_c, 9, 35, 0
1, 139680, Note_on_c, 9, 38, 111
1, 139694, Note_on_c, 9, 38, 0
1, 139695, Note_on_c, 9, 42, 84
1, 139919, Note_on_c, 9, 42, 0
1, 139940, Note_on_c, 9, 42, 42
1, 139979, Note_on_c, 9, 42, 0
1, 140160, Note_on_c, 9, 35, 110
1, 140175, Note_on_c, 9, 42, 85
1, 140399, Note_on_c, 9, 42, 0
1, 140420, Note_on_c, 9, 42, 42
1, 140459, Note_on_c, 9, 42, 0
1, 140639, Note_on_c, 9, 35, 0
1, 140640, Note_on_c, 9, 38, 112
1, 140640, Note_on_c, 9, 42, 86
1, 140879, Note_on_c, 9, 38, 0
1, 140879, Note_on_c, 9, 42, 0
1, 140880, Note_on_c, 9, 35, 83
1, 140900, Note_on_c, 9, 42, 47
1, 140939, Note_on_c, 9, 42, 0
1, 141119, Note_on_c, 9, 35, 0
1, 141120, Note_on_c, 9, 42, 85
1, 141120, Note_on_c, 9, 35, 112
1, 141359, Note_on_c, 9, 42, 0
1, 141375, Note_on_c, 9, 42, 47
1, 141599, Note_on_c, 9, 35, 0
1, 141599, Note_on_c, 9, 42, 0
1, 141600, Note_on_c, 9, 38, 111
1, 141600, Note_on_c, 9, 46, 79
1, 141839, Note_on_c, 9, 38, 0
1, 141839, Note_on_c, 9, 46, 0
1, 141840, Note_on_c, 9, 35, 83
1, 141860, Note_on_c, 9, 42, 42
1, 141899, Note_on_c, 9, 42, 0
1, 142079, Note_on_c, 9, 35, 0
1, 142080, Note_on_c, 9, 35, 112
1, 142095, Note_on_c, 9, 49, 65
1, 142319, Note_on_c, 9, 49, 0
1, 142340, Note_on_c, 9, 42, 45
1, 142379, Note_on_c, 9, 42, 0
1, 142559, Note_on_c, 9, 35, 0
1, 142560, Note_on_c, 9, 38, 110
1, 142560, Note_on_c, 9, 42, 90
1, 142799, Note_on_c, 9, 38, 0
1, 142799, Note_on_c, 9, 42, 0
1, 142800, Note_on_c, 9, 35, 84
1, 142815, Note_on_c, 9, 42, 46
1, 143039, Note_on_c, 9, 35, 0
1, 143039, Note_on_c, 9, 42, 0
1, 143040, Note_on_c, 9, 42, 88
1, 143040, Note_on_c, 9, 35, 110
1, 143279, Note_on_c, 9, 42, 0
1, 143295, Note_on_c, 9, 42, 44
1, 143519, Note_on_c, 9, 35, 0
1, 143519, Note_on_c, 9, 42, 0
1, 143520, Note_on_c, 9, 38, 114
1, 143520, Note_on_c, 9, 42, 83
1, 143759, Note_on_c, 9, 38, 0
1, 143759, Note_on_c, 9, 42, 0
1, 143780, Note_on_c, 9, 42, 41
1, 143819, Note_on_c, 9, 42, 0
1, 144000, Note_on_c, 9, 35, 112
1, 144015, Note_on_c, 9, 42, 89
1, 144239, Note_on_c, 9, 42, 0
1, 144260, Note_on_c, 9, 42, 44
1, 144299, Note_on_c, 9, 42, 0
1, 144479, Note_on_c, 9, 35, 0
1, 144480, Note_on_c, 9, 38, 112
1, 144480, Note_on_c, 9, 42, 87
1, 144719, Note_on_c, 9, 38, 0
1, 144719, Note_on_c, 9, 42, 0
1, 144720, Note_on_c, 9, 35, 83
1, 144735, Note_on_c, 9, 42, 45
1, 144959, Note_on_c, 9, 35, 0
1, 144959, Note_on_c, 9, 42, 0
1, 144960, Note_on_c, 9, 42, 84
1, 144960, Note_on_c, 9, 35, 114
1, 145199, Note_on_c, 9, 42, 0
1, 145215, Note_on_c, 9, 42, 42
1, 145439, Note_on_c, 9, 35, 0
1, 145439, Note_on_c, 9, 42, 0
1, 145440, Note_on_c, 9, 38, 111
1, 145440, Note_on_c, 9, 42, 87
1, 145679, Note_on_c, 9, 38, 0
1, 145679, Note_on_c, 9, 42, 0
1, 145680, Note_on_c, 9, 46, 45
1, 145919, Note_on_c, 9, 46, 0
1, 145920, Note_on_c, 9, 35, 112
1, 145935, Note_on_c, 9, 42, 90
1, 146159, Note_on_c, 9, 42, 0
1, 146180, Note_on_c, 9, 42, 42
1, 146219, Note_on_c, 9, 42, 0
1, 146399, Note_on_c, 9, 35, 0
1, 146400, Note_on_c, 9, 38, 111
1, 146400, Note_on_c, 9, 42, 85
1, 146639, Note_on_c, 9, 38, 0
1, 146639, Note_on_c, 9, 42, 0
1, 146640, Note_on_c, 9, 35, 75
1, 146660, Note_on_c, 9, 42, 44
1, 146699, Note_on_c, 9, 42, 0
1, 146879, Note_on_c, 9, 35, 0
1, 146880, Note_on_c, 9, 42, 83
1, 146880, Note_on_c, 9, 35, 114
1, 147119, Note_on_c, 9, 42, 0
1, 147140, Note_on_c, 9, 42, 45
1, 147179, Note_on_c, 9, 42, 0
1, 147359, Note_on_c, 9, 35, 0
1, 147360, Note_on_c, 9, 38, 110
1, 147374, Note_on_c, 9, 38, 0
1, 147375, Note_on_c, 9, 42, 86
1, 147599, Note_on_c, 9, 42, 0
1, 147620, Note_on_c, 9, 42, 46
1, 147659, Note_on_c, 9, 42, 0
1, 147840, Note_on_c, 9, 42, 89
1, 147840, Note_on_c, 9, 35, 114
1, 148079, Note_on_c, 9, 42, 0
1, 148100, Note_on_c, 9, 42, 47
1, 148139, Note_on_c, 9, 42, 0
1, 148319, Note_on_c, 9, 35, 0
1, 148320, Note_on_c, 9, 38, 110
1, 148320, Note_on_c, 9, 42, 84
1, 148559, Note_on_c, 9, 38, 0
1, 148559, Note_on_c, 9, 42, 0
1, 148560, Note_on_c, 9, 35, 84
1, 148580, Note_on_c, 9, 42, 42
1, 148619, Note_on_c, 9, 42, 0
1, 148799, Note_on_c, 9, 35, 0
1, 148800, Note_on_c, 9, 42, 88
1, 148800, Note_on_c, 9, 35, 114
1, 149039, Note_on_c, 9, 42, 0
1, 149055, Note_on_c, 9, 42, 42
1, 149279, Note_on_c, 9, 35, 0
1, 149279, Note_on_c, 9, 42, 0
1, 149280, Note_on_c, 9, 38, 114
1, 149280, Note_on_c, 9, 42, 83
1, 149519, Note_on_c, 9, 38, 0
1, 149519, Note_on_c, 9, 42, 0
1, 149540, Note_on_c, 9, 42, 47
1, 149579, Note_on_c, 9, 42, 0
1, 149760, Note_on_c, 9, 35, 110
1, 149775, Note_on_c, 9, 42, 85
1, 149999, Note_on_c, 9, 42, 0
1, 150020, Note_on_c, 9, 42, 42
1, 150059, Note_on_c, 9, 42, 0
1, 150239, Note_on_c, 9, 35, 0
1, 150240, Note_on_c, 9, 38, 112
1, 150254, Note_on_c, 9, 38, 0
1, 150255, Note_on_c, 9, 46, 81
1, 150479, Note_on_c, 9, 46, 0
1, 150480, Note_on_c, 9, 35, 83
1, 150495, Note_on_c, 9, 42, 47
1, 150719, Note_on_c, 9, 35, 0
1, 150719, Note_on_c, 9, 42, 0
1, 150720, Note_on_c, 9, 42, 85
1, 150720, Note_on_c, 9, 35, 112
1, 150959, Note_on_c, 9, 42, 0
1, 150960, Note_on_c, 9, 46, 47
1, 151199, Note_on_c, 9, 35, 0
1, 151199, Note_on_c, 9, 46, 0
1, 151200, Note_on_c, 9, 38, 111
1, 151214, Note_on_c, 9, 38, 0
1, 151215, Note_on_c, 9, 42, 84
1, 151439, Note_on_c, 9, 42, 0
1, 151460, Note_on_c, 9, 42, 42
1, 151499, Note_on_c, 9, 42, 0
1, 151680, Note_on_c, 9, 35, 114
1, 151695, Note_on_c, 9, 42, 89
1, 151919, Note_on_c, 9, 42, 0
1, 151940, Note_on_c, 9, 42, 47
1, 151979, Note_on_c, 9, 42, 0
1, 152159, Note_on_c, 9, 35, 0
1, 152160, Note_on_c, 9, 38, 110
1, 152160, Note_on_c, 9, 42, 84
1, 152399, Note_on_c, 9, 38, 0
1, 152399, Note_on_c, 9, 42, 0
1, 152400, Note_on_c, 9, 35, 84
1, 152415, Note_on_c, 9, 42, 42
1, 152639, Note_on_c, 9, 35, 0
1, 152639, Note_on_c, 9, 42, 0
1, 152640, Note_on_c, 9, 42, 88
1, 152640, Note_on_c, 9, 35, 114
1, 152879, Note_on_c, 9, 42, 0
1, 152895, Note_on_c, 9, 42, 42
1, 153119, Note_on_c, 9, 35, 0
1, 153119, Note_on_c, 9, 42, 0
1, 153120, Note_on_c, 9, 38, 114
1, 153120, Note_on_c, 9, 42, 83
1, 153359, Note_on_c, 9, 38, 0
1, 153359, Note_on_c, 9, 42, 0
1, 153380, Note_on_c, 9, 42, 47
1, 153419, Note_on_c, 9, 42, 0
1, 153600, Note_on_c, 9, 42, 85
1, 153600, Note_on_c, 9, 35, 110
1, 153839, Note_on_c, 9, 42, 0
1, 153860, Note_on_c, 9, 42, 42
1, 153899, Note_on_c, 9, 42, 0
1, 154079, Note_on_c, 9, 35, 0
1, 154080, Note_on_c, 9, 38, 112
1, 154080, Note_on_c, 9, 42, 86
1, 154319, Note_on_c, 9, 38, 0
1, 154319, Note_on_c, 9, 42, 0
1, 154320, Note_on_c, 9, 35, 112
1, 154335, Note_on_c, 9, 42, 47
1, 154559, Note_on_c, 9, 35, 0
1, 154559, Note_on_c, 9, 42, 0
1, 154560, Note_on_c, 9, 42, 85
1, 154799, Note_on_c, 9, 42, 0
1, 154800, Note_on_c, 9, 35, 112
1, 154815, Note_on_c, 9, 46, 47
1, 155039, Note_on_c, 9, 35, 0
1, 155039, Note_on_c, 9, 46, 0
1, 155040, Note_on_c, 9, 38, 111
1, 155054, Note_on_c, 9, 38, 0
1, 155055, Note_on_c, 9, 42, 84
1, 155279, Note_on_c, 9, 42, 0
1, 155280, Note_on_c, 9, 35, 84
1, 155295, Note_on_c, 9, 46, 42
1, 155459, Note_on_c, 9, 46, 0
1, 155500, Note_on_c, 9, 38, 82
1, 155519, Note_on_c, 9, 35, 0
1, 155519, Note_on_c, 9, 38, 0
1, 155520, Note_on_c, 9, 38, 122
1, 155969, Note_on_c, 9, 38, 0
1, 155970, Note_on_c, 9, 48, 101
1, 155999, Note_on_c, 9, 48, 0
1, 156000, Note_on_c, 9, 48, 127
1, 156479, Note_on_c, 9, 48, 0
1, 156960, Note_on_c, 9, 41, 93
1, 157439, Note_on_c, 9, 41, 0
1, 157440, Note_on_c, 9, 57, 63
1, 157440, Note_on_c, 9, 35, 112
1, 157679, Note_on_c, 9, 57, 0
1, 157700, Note_on_c, 9, 42, 44
1, 157739, Note_on_c, 9, 42, 0
1, 157919, Note_on_c, 9, 35, 0
1, 157920, Note_on_c, 9, 38, 112
1, 157920, Note_on_c, 9, 42, 87
1, 158159, Note_on_c, 9, 38, 0
1, 158159, Note_on_c, 9, 42, 0
1, 158160, Note_on_c, 9, 35, 83
1, 158175, Note_on_c, 9, 42, 45
1, 158399, Note_on_c, 9, 35, 0
1, 158399, Note_on_c, 9, 42, 0
1, 158400, Note_on_c, 9, 42, 84
1, 158400, Note_on_c, 9, 35, 114
1, 158639, Note_on_c, 9, 42, 0
1, 158660, Note_on_c, 9, 42, 42
1, 158699, Note_on_c, 9, 42, 0
1, 158879, Note_on_c, 9, 35, 0
1, 158880, Note_on_c, 9, 38, 111
1, 158880, Note_on_c, 9, 42, 87
1, 159119, Note_on_c, 9, 38, 0
1, 159119, Note_on_c, 9, 42, 0
1, 159140, Note_on_c, 9, 42, 45
1, 159179, Note_on_c, 9, 42, 0
1, 159360, Note_on_c, 9, 35, 110
1, 159375, Note_on_c, 9, 42, 85
1, 159599, Note_on_c, 9, 42, 0
1, 159620, Note_on_c, 9, 42, 42
1, 159659, Note_on_c, 9, 42, 0
1, 159839, Note_on_c, 9, 35, 0
1, 159840, Note_on_c, 9, 38, 112
1, 159840, Note_on_c, 9, 42, 86
1, 160079, Note_on_c, 9, 38, 0
1, 160079, Note_on_c, 9, 42, 0
1, 160080, Note_on_c, 9, 35, 83
1, 160095, Note_on_c, 9, 42, 47
1, 160319, Note_on_c, 9, 35, 0
1, 160319, Note_on_c, 9, 42, 0
1, 160320, Note_on_c, 9, 42, 85
1, 160320, Note_on_c, 9, 35, 112
1, 160559, Note_on_c, 9, 42, 0
1, 160575, Note_on_c, 9, 42, 47
1, 160799, Note_on_c, 9, 35, 0
1, 160799, Note_on_c, 9, 42, 0
1, 160800, Note_on_c, 9, 38, 111
1, 160800, Note_on_c, 9, 42, 84
1, 161039, Note_on_c, 9, 38, 0
1, 161039, Note_on_c, 9, 42, 0
1, 161040, Note_on_c, 9, 46, 42
1, 161279, Note_on_c, 9, 46, 0
1, 161280, Note_on_c, 9, 35, 112
1, 161295, Note_on_c, 9, 42, 90
1, 161519, Note_on_c, 9, 42, 0
1, 161540, Note_on_c, 9, 42, 45
1, 161579, Note_on_c, 9, 42, 0
1, 161759, Note_on_c, 9, 35, 0
1, 161760, Note_on_c, 9, 38, 110
1, 161760, Note_on_c, 9, 42, 90
1, 161999, Note_on_c, 9, 38, 0
1, 161999, Note_on_c, 9, 42, 0
1, 162000, Note_on_c, 9, 35, 84
1, 162015, Note_on_c, 9, 42, 46
1, 162239, Note_on_c, 9, 35, 0
1, 162239, Note_on_c, 9, 42, 0
1, 162240, Note_on_c, 9, 42, 88
1, 162240, Note_on_c, 9, 35, 110
1, 162479, Note_on_c, 9, 42, 0
1, 162495, Note_on_c, 9, 42, 44
1, 162719, Note_on_c, 9, 35, 0
1, 162719, Note_on_c, 9, 42, 0
1, 162720, Note_on_c, 9, 38, 114
1, 162734, Note_on_c, 9, 38, 0
1, 162735, Note_on_c, 9, 42, 83
1, 162959, Note_on_c, 9, 42, 0
1, 162980, Note_on_c, 9, 42, 41
1, 163019, Note_on_c, 9, 42, 0
1, 163200, Note_on_c, 9, 35, 112
1, 163215, Note_on_c, 9, 42, 89
1, 163439, Note_on_c, 9, 42, 0
1, 163460, Note_on_c, 9, 42, 44
1, 163499, Note_on_c, 9, 42, 0
1, 163679, Note_on_c, 9, 35, 0
1, 163680, Note_on_c, 9, 38, 112
1, 163680, Note_on_c, 9, 42, 87
1, 163919, Note_on_c, 9, 38, 0
1, 163919, Note_on_c, 9, 42, 0
1, 163920, Note_on_c, 9, 35, 83
1, 163935, Note_on_c, 9, 46, 45
1, 164159, Note_on_c, 9, 35, 0
1, 164159, Note_on_c, 9, 46, 0
1, 164160, Note_on_c, 9, 42, 84
1, 164160, Note_on_c, 9, 35, 114
1, 164399, Note_on_c, 9, 42, 0
1, 164399, Note_on_c, 9, 35, 0
1, 164400, Note_on_c, 9, 35, 83
1, 164415, Note_on_c, 9, 42, 42
1, 164639, Note_on_c, 9, 35, 0
1, 164639, Note_on_c, 9, 42, 0
1, 164640, Note_on_c, 9, 38, 111
1, 164654, Note_on_c, 9, 38, 0
1, 164655, Note_on_c, 9, 46, 82
1, 164879, Note_on_c, 9, 46, 0
1, 164900, Note_on_c, 9, 42, 45
1, 164939, Note_on_c, 9, 42, 0
1, 165120, Note_on_c, 9, 35, 112
1, 165135, Note_on_c, 9, 42, 90
1, 165359, Note_on_c, 9, 42, 0
1, 165380, Note_on_c, 9, 42, 42
1, 165419, Note_on_c, 9, 42, 0
1, 165599, Note_on_c, 9, 35, 0
1, 165600, Note_on_c, 9, 38, 111
1, 165600, Note_on_c, 9, 42, 85
1, 165839, Note_on_c, 9, 38, 0
1, 165839, Note_on_c, 9, 42, 0
1, 165840, Note_on_c, 9, 35, 75
1, 165860, Note_on_c, 9, 42, 44
1, 165899, Note_on_c, 9, 42, 0
1, 166079, Note_on_c, 9, 35, 0
1, 166080, Note_on_c, 9, 42, 83
1, 166080, Note_on_c, 9, 35, 114
1, 166319, Note_on_c, 9, 42, 0
1, 166335, Note_on_c, 9, 42, 45
1, 166559, Note_on_c, 9, 35, 0
1, 166559, Note_on_c, 9, 42, 0
1, 166560, Note_on_c, 9, 38, 110
1, 166560, Note_on_c, 9, 42, 86
1, 166799, Note_on_c, 9, 38, 0
1, 166799, Note_on_c, 9, 42, 0
1, 166820, Note_on_c, 9, 42, 46
1, 166859, Note_on_c, 9, 42, 0
1, 167040, Note_on_c, 9, 35, 114
1, 167055, Note_on_c, 9, 42, 89
1, 167279, Note_on_c, 9, 42, 0
1, 167300, Note_on_c, 9, 42, 47
1, 167339, Note_on_c, 9, 42, 0
1, 167519, Note_on_c, 9, 35, 0
1, 167520, Note_on_c, 9, 38, 110
1, 167534, Note_on_c, 9, 38, 0
1, 167535, Note_on_c, 9, 42, 84
1, 167759, Note_on_c, 9, 42, 0
1, 167760, Note_on_c, 9, 35, 84
1, 167775, Note_on_c, 9, 42, 42
1, 167999, Note_on_c, 9, 35, 0
1, 167999, Note_on_c, 9, 42, 0
1, 168000, Note_on_c, 9, 42, 88
1, 168000, Note_on_c, 9, 35, 114
1, 168239, Note_on_c, 9, 42, 0
1, 168255, Note_on_c, 9, 42, 42
1, 168479, Note_on_c, 9, 35, 0
1, 168479, Note_on_c, 9, 42, 0
1, 168480, Note_on_c, 9, 38, 114
1, 168494, Note_on_c, 9, 38, 0
1, 168495, Note_on_c, 9, 42, 83
1, 168719, Note_on_c, 9, 42, 0
1, 168720, Note_on_c, 9, 46, 47
1, 168959, Note_on_c, 9, 46, 0
1, 168960, Note_on_c, 9, 42, 85
1, 168960, Note_on_c, 9, 35, 110
1, 169199, Note_on_c, 9, 42, 0
1, 169220, Note_on_c, 9, 42, 42
1, 169259, Note_on_c, 9, 42, 0
1, 169439, Note_on_c, 9, 35, 0
1, 169440, Note_on_c, 9, 38, 112
1, 169440, Note_on_c, 9, 42, 86
1, 169679, Note_on_c, 9, 38, 0
1, 169679, Note_on_c, 9, 42, 0
1, 169680, Note_on_c, 9, 35, 83
1, 169695, Note_on_c, 9, 42, 47
1, 169919, Note_on_c, 9, 35, 0
1, 169919, Note_on_c, 9, 42, 0
1, 169920, Note_on_c, 9, 42, 85
1, 169920, Note_on_c, 9, 35, 112
1, 170159, Note_on_c, 9, 42, 0
1, 170180, Note_on_c, 9, 42, 47
1, 170219, Note_on_c, 9, 42, 0
1, 170399, Note_on_c, 9, 35, 0
1, 170400, Note_on_c, 9, 38, 111
1, 170414, Note_on_c, 9, 38, 0
1, 170415, Note_on_c, 9, 42, 84
1, 170639, Note_on_c, 9, 42, 0
1, 170660, Note_on_c, 9, 42, 42
1, 170699, Note_on_c, 9, 42, 0
1, 170880, Note_on_c, 9, 42, 89
1, 170880, Note_on_c, 9, 35, 112
1, 171119, Note_on_c, 9, 42, 0
1, 171120, Note_on_c, 9, 38, 112
1, 171134, Note_on_c, 9, 38, 0
1, 171135, Note_on_c, 9, 46, 44
1, 171359, Note_on_c, 9, 35, 0
1, 171359, Note_on_c, 9, 46, 0
1, 171360, Note_on_c, 9, 38, 112
1, 171374, Note_on_c, 9, 38, 0
1, 171375, Note_on_c, 9, 46, 82
1, 171599, Note_on_c, 9, 46, 0
1, 171600, Note_on_c, 9, 38, 112
1, 171600, Note_on_c, 9, 46, 45
1, 171600, Note_on_c, 9, 35, 83
1, 171839, Note_on_c, 9, 38, 0
1, 171839, Note_on_c, 9, 46, 0
1, 171839, Note_on_c, 9, 35, 0
1, 171840, Note_on_c, 9, 35, 114
1, 171855, Note_on_c, 9, 46, 79
1, 172079, Note_on_c, 9, 46, 0
1, 172080, Note_on_c, 9, 45, 74
1, 172319, Note_on_c, 9, 35, 0
1, 172319, Note_on_c, 9, 45, 0
1, 172320, Note_on_c, 9, 35, 83
1, 172335, Note_on_c, 9, 45, 82
1, 172559, Note_on_c, 9, 35, 0
1, 172559, Note_on_c, 9, 45, 0
1, 172560, Note_on_c, 9, 45, 75
1, 172560, Note_on_c, 9, 35, 83
1, 172799, Note_on_c, 9, 45, 0
1, 172799, Note_on_c, 9, 35, 0
1, 172800, Note_on_c, 9, 35, 112
1, 172815, Note_on_c, 9, 49, 67
1, 173039, Note_on_c, 9, 49, 0
1, 173060, Note_on_c, 9, 42, 44
1, 173099, Note_on_c, 9, 42, 0
1, 173279, Note_on_c, 9, 35, 0
1, 173280, Note_on_c, 9, 38, 112
1, 173280, Note_on_c, 9, 42, 87
1, 173519, Note_on_c, 9, 38, 0
1, 173519, Note_on_c, 9, 42, 0
1, 173520, Note_on_c, 9, 35, 83
1, 173535, Note_on_c, 9, 42, 45
1, 173759, Note_on_c, 9, 35, 0
1, 173759, Note_on_c, 9, 42, 0
1, 173760, Note_on_c, 9, 42, 84
1, 173760, Note_on_c, 9, 35, 114
1, 173999, Note_on_c, 9, 42, 0
1, 174015, Note_on_c, 9, 42, 42
1, 174239, Note_on_c, 9, 35, 0
1, 174239, Note_on_c, 9, 42, 0
1, 174240, Note_on_c, 9, 38, 111
1, 174240, Note_on_c, 9, 42, 87
1, 174479, Note_on_c, 9, 38, 0
1, 174479, Note_on_c, 9, 42, 0
1, 174500, Note_on_c, 9, 42, 45
1, 174539, Note_on_c, 9, 42, 0
1, 174720, Note_on_c, 9, 42, 85
1, 174720, Note_on_c, 9, 35, 110
1, 174959, Note_on_c, 9, 42, 0
1, 174980, Note_on_c, 9, 42, 42
1, 175019, Note_on_c, 9, 42, 0
1, 175199, Note_on_c, 9, 35, 0
1, 175200, Note_on_c, 9, 38, 112
1, 175200, Note_on_c, 9, 42, 86
1, 175439, Note_on_c, 9, 38, 0
1, 175439, Note_on_c, 9, 42, 0
1, 175440, Note_on_c, 9, 35, 83
1, 175455, Note_on_c, 9, 42, 47
1, 175679, Note_on_c, 9, 35, 0
1, 175679, Note_on_c, 9, 42, 0
1, 175680, Note_on_c, 9, 42, 85
1, 175680, Note_on_c, 9, 35, 112
1, 175919, Note_on_c, 9, 42, 0
1, 175935, Note_on_c, 9, 42, 47
1, 176159, Note_on_c, 9, 35, 0
1, 176159, Note_on_c, 9, 42, 0
1, 176160, Note_on_c, 9, 38, 111
1, 176160, Note_on_c, 9, 42, 84
1, 176399, Note_on_c, 9, 38, 0
1, 176399, Note_on_c, 9, 42, 0
1, 176400, Note_on_c, 9, 46, 42
1, 176639, Note_on_c, 9, 46, 0
1, 176640, Note_on_c, 9, 35, 112
1, 176655, Note_on_c, 9, 42, 90
1, 176879, Note_on_c, 9, 42, 0
1, 176900, Note_on_c, 9, 42, 45
1, 176939, Note_on_c, 9, 42, 0
1, 177119, Note_on_c, 9, 35, 0
1, 177120, Note_on_c, 9, 38, 110
1, 177120, Note_on_c, 9, 42, 90
1, 177359, Note_on_c, 9, 38, 0
1, 177359, Note_on_c, 9, 42, 0
1, 177360, Note_on_c, 9, 35, 84
1, 177375, Note_on_c, 9, 42, 46
1, 177599, Note_on_c, 9, 35, 0
1, 177599, Note_on_c, 9, 42, 0
1, 177600, Note_on_c, 9, 42, 88
1, 177600, Note_on_c, 9, 35, 110
1, 177839, Note_on_c, 9, 42, 0
1, 177855, Note_on_c, 9, 42, 44
1, 178079, Note_on_c, 9, 35, 0
1, 178079, Note_on_c, 9, 42, 0
1, 178080, Note_on_c, 9, 38, 114
1, 178080, Note_on_c, 9, 42, 83
1, 178319, Note_on_c, 9, 38, 0
1, 178319, Note_on_c, 9, 42, 0
1, 178340, Note_on_c, 9, 42, 41
1, 178379, Note_on_c, 9, 42, 0
1, 178560, Note_on_c, 9, 35, 112
1, 178580, Note_on_c, 9, 42, 89
1, 178619, Note_on_c, 9, 42, 0
1, 178820, Note_on_c, 9, 42, 44
1, 178859, Note_on_c, 9, 42, 0
1, 179039, Note_on_c, 9, 35, 0
1, 179040, Note_on_c, 9, 38, 112
1, 179040, Note_on_c, 9, 42, 87
1, 179279, Note_on_c, 9, 38, 0
1, 179279, Note_on_c, 9, 42, 0
1, 179295, Note_on_c, 9, 42, 45
1, 179519, Note_on_c, 9, 42, 0
1, 179520, Note_on_c, 9, 42, 84
1, 179520, Note_on_c, 9, 35, 114
1, 179759, Note_on_c, 9, 42, 0
1, 179759, Note_on_c, 9, 35, 0
1, 179760, Note_on_c, 9, 46, 42
1, 179760, Note_on_c, 9, 35, 114
1, 179999, Note_on_c, 9, 46, 0
1, 179999, Note_on_c, 9, 35, 0
1, 180015, Note_on_c, 9, 38, 111
1, 180015, Note_on_c, 9, 42, 87
1, 180239, Note_on_c, 9, 38, 0
1, 180239, Note_on_c, 9, 42, 0
1, 180260, Note_on_c, 9, 42, 45
1, 180299, Note_on_c, 9, 42, 0
1, 180480, Note_on_c, 9, 42, 90
1, 180480, Note_on_c, 9, 35, 112
1, 180719, Note_on_c, 9, 42, 0
1, 180740, Note_on_c, 9, 42, 42
1, 180779, Note_on_c, 9, 42, 0
1, 180959, Note_on_c, 9, 35, 0
1, 180960, Note_on_c, 9, 38, 111
1, 180960, Note_on_c, 9, 42, 85
1, 181199, Note_on_c, 9, 38, 0
1, 181199, Note_on_c, 9, 42, 0
1, 181200, Note_on_c, 9, 35, 75
1, 181215, Note_on_c, 9, 42, 44
1, 181439, Note_on_c, 9, 35, 0
1, 181439, Note_on_c, 9, 42, 0
1, 181440, Note_on_c, 9, 42, 83
1, 181440, Note_on_c, 9, 35, 114
1, 181679, Note_on_c, 9, 42, 0
1, 181695, Note_on_c, 9, 42, 45
1, 181919, Note_on_c, 9, 35, 0
1, 181919, Note_on_c, 9, 42, 0
1, 181920, Note_on_c, 9, 38, 110
1, 181920, Note_on_c, 9, 42, 86
1, 182159, Note_on_c, 9, 38, 0
1, 182159, Note_on_c, 9, 42, 0
1, 182180, Note_on_c, 9, 42, 46
1, 182219, Note_on_c, 9, 42, 0
1, 182400, Note_on_c, 9, 42, 89
1, 182400, Note_on_c, 9, 35, 114
1, 182639, Note_on_c, 9, 42, 0
1, 182660, Note_on_c, 9, 42, 47
1, 182699, Note_on_c, 9, 42, 0
1, 182879, Note_on_c, 9, 35, 0
1, 182880, Note_on_c, 9, 38, 110
1, 182880, Note_on_c, 9, 42, 84
1, 183119, Note_on_c, 9, 38, 0
1, 183119, Note_on_c, 9, 42, 0
1, 183120, Note_on_c, 9, 35, 84
1, 183135, Note_on_c, 9, 42, 42
1, 183359, Note_on_c, 9, 35, 0
1, 183359, Note_on_c, 9, 42, 0
1, 183360, Note_on_c, 9, 42, 88
1, 183360, Note_on_c, 9, 35, 114
1, 183599, Note_on_c, 9, 42, 0
1, 183615, Note_on_c, 9, 42, 42
1, 183839, Note_on_c, 9, 35, 0
1, 183839, Note_on_c, 9, 42, 0
1, 183840, Note_on_c, 9, 38, 114
1, 183854, Note_on_c, 9, 38, 0
1, 183855, Note_on_c, 9, 42, 83
1, 184079, Note_on_c, 9, 42, 0
1, 184080, Note_on_c, 9, 46, 47
1, 184319, Note_on_c, 9, 46, 0
1, 184320, Note_on_c, 9, 35, 110
1, 184335, Note_on_c, 9, 42, 85
1, 184559, Note_on_c, 9, 42, 0
1, 184580, Note_on_c, 9, 42, 42
1, 184619, Note_on_c, 9, 42, 0
1, 184799, Note_on_c, 9, 35, 0
1, 184800, Note_on_c, 9, 38, 112
1, 184800, Note_on_c, 9, 42, 86
1, 185039, Note_on_c, 9, 38, 0
1, 185039, Note_on_c, 9, 42, 0
1, 185040, Note_on_c, 9, 35, 83
1, 185055, Note_on_c, 9, 42, 47
1, 185279, Note_on_c, 9, 35, 0
1, 185279, Note_on_c, 9, 42, 0
1, 185280, Note_on_c, 9, 42, 85
1, 185280, Note_on_c, 9, 35, 112
1, 185519, Note_on_c, 9, 42, 0
1, 185535, Note_on_c, 9, 42, 47
1, 185759, Note_on_c, 9, 35, 0
1, 185759, Note_on_c, 9, 42, 0
1, 185760, Note_on_c, 9, 38, 111
1, 185774, Note_on_c, 9, 38, 0
1, 185775, Note_on_c, 9, 42, 84
1, 185999, Note_on_c, 9, 42, 0
1, 186000, Note_on_c, 9, 46, 42
1, 186179, Note_on_c, 9, 46, 0
1, 186220, Note_on_c, 9, 38, 82
1, 186239, Note_on_c, 9, 38, 0
1, 186255, Note_on_c, 9, 38, 122
1, 186480, Note_on_c, 9, 35, 91
1, 186659, Note_on_c, 9, 38, 0
1, 186690, Note_on_c, 9, 48, 101
1, 186719, Note_on_c, 9, 35, 0
1, 186719, Note_on_c, 9, 48, 0
1, 186720, Note_on_c, 9, 48, 127
1, 187079, Note_on_c, 9, 48, 0
1, 187180, Note_on_c, 9, 38, 91
1, 187199, Note_on_c, 9, 38, 0
1, 187215, Note_on_c, 9, 38, 122
1, 187439, Note_on_c, 9, 38, 0
1, 187440, Note_on_c, 9, 35, 91
1, 187619, Note_on_c, 9, 35, 0
1, 187650, Note_on_c, 9, 43, 88
1, 187679, Note_on_c, 9, 43, 0
1, 187680, Note_on_c, 9, 43, 92
1, 188159, Note_on_c, 9, 43, 0
1, 188160, Note_on_c, 9, 35, 112
1, 188175, Note_on_c, 9, 49, 68
1, 188399, Note_on_c, 9, 49, 0
1, 188420, Note_on_c, 9, 42, 44
1, 188459, Note_on_c, 9, 42, 0
1, 188639, Note_on_c, 9, 35, 0
1, 188640, Note_on_c, 9, 38, 112
1, 188640, Note_on_c, 9, 53, 86
1, 188880, Note_on_c, 9, 35, 83
1, 189119, Note_on_c, 9, 38, 0
1, 189119, Note_on_c, 9, 53, 0
1, 189119, Note_on_c, 9, 35, 0
1, 189120, Note_on_c, 9, 53, 93
1, 189120, Note_on_c, 9, 35, 114
1, 189569, Note_on_c, 9, 53, 0
1, 189585, Note_on_c, 9, 53, 94
1, 189599, Note_on_c, 9, 35, 0
1, 189600, Note_on_c, 9, 38, 111
1, 189839, Note_on_c, 9, 53, 0
1, 189839, Note_on_c, 9, 38, 0
1, 189860, Note_on_c, 9, 53, 45
1, 189899, Note_on_c, 9, 53, 0
1, 190080, Note_on_c, 9, 53, 91
1, 190080, Note_on_c, 9, 35, 112
1, 190529, Note_on_c, 9, 53, 0
1, 190545, Note_on_c, 9, 53, 89
1, 190559, Note_on_c, 9, 35, 0
1, 190560, Note_on_c, 9, 38, 112
1, 190799, Note_on_c, 9, 53, 0
1, 190799, Note_on_c, 9, 38, 0
1, 190800, Note_on_c, 9, 35, 83
1, 190815, Note_on_c, 9, 53, 45
1, 191039, Note_on_c, 9, 35, 0
1, 191039, Note_on_c, 9, 53, 0
1, 191040, Note_on_c, 9, 53, 90
1, 191040, Note_on_c, 9, 35, 114
1, 191279, Note_on_c, 9, 53, 0
1, 191295, Note_on_c, 9, 53, 101
1, 191519, Note_on_c, 9, 35, 0
1, 191519, Note_on_c, 9, 53, 0
1, 191520, Note_on_c, 9, 38, 111
1, 191759, Note_on_c, 9, 38, 0
1, 191775, Note_on_c, 9, 53, 55
1, 191999, Note_on_c, 9, 53, 0
1, 192000, Note_on_c, 9, 35, 112
1, 192015, Note_on_c, 9, 53, 91
1, 192464, Note_on_c, 9, 53, 0
1, 192465, Note_on_c, 9, 53, 90
1, 192479, Note_on_c, 9, 35, 0
1, 192480, Note_on_c, 9, 38, 111
1, 192719, Note_on_c, 9, 53, 0
1, 192719, Note_on_c, 9, 38, 0
1, 192720, Note_on_c, 9, 35, 75
1, 192735, Note_on_c, 9, 53, 84
1, 192959, Note_on_c, 9, 35, 0
1, 192959, Note_on_c, 9, 53, 0
1, 192960, Note_on_c, 9, 35, 114
1, 193215, Note_on_c, 9, 53, 93
1, 193439, Note_on_c, 9, 35, 0
1, 193439, Note_on_c, 9, 53, 0
1, 193440, Note_on_c, 9, 53, 89
1, 193454, Note_on_c, 9, 53, 0
1, 193455, Note_on_c, 9, 38, 110
1, 193679, Note_on_c, 9, 38, 0
1, 193680, Note_on_c, 9, 35, 75
1, 193695, Note_on_c, 9, 53, 46
1, 193919, Note_on_c, 9, 35, 0
1, 193919, Note_on_c, 9, 53, 0
1, 193920, Note_on_c, 9, 53, 90
1, 193920, Note_on_c, 9, 35, 112
1, 194279, Note_on_c, 9, 53, 0
1, 194380, Note_on_c, 9, 38, 111
1, 194399, Note_on_c, 9, 35, 0
1, 194399, Note_on_c, 9, 38, 0
1, 194400, Note_on_c, 9, 38, 111
1, 194640, Note_on_c, 9, 35, 75
1, 194879, Note_on_c, 9, 38, 0
1, 194879, Note_on_c, 9, 35, 0
1, 194880, Note_on_c, 9, 46, 78
1, 194880, Note_on_c, 9, 35, 114
1, 195119, Note_on_c, 9, 46, 0
1, 195135, Note_on_c, 9, 47, 81
1, 195359, Note_on_c, 9, 35, 0
1, 195359, Note_on_c, 9, 47, 0
1, 195360, Note_on_c, 9, 45, 81
1, 195360, Note_on_c, 9, 44, 78
1, 195599, Note_on_c, 9, 45, 0
1, 195599, Note_on_c, 9, 44, 0
1, 195600, Note_on_c, 9, 45, 60
1, 195600, Note_on_c, 9, 35, 75
1, 195839, Note_on_c, 9, 45, 0
1, 195839, Note_on_c, 9, 35, 0
1, 195840, Note_on_c, 9, 35, 112
1, 195855, Note_on_c, 9, 49, 68
1, 196079, Note_on_c, 9, 49, 0
1, 196100, Note_on_c, 9, 42, 44
1, 196139, Note_on_c, 9, 42, 0
1, 196319, Note_on_c, 9, 35, 0
1, 196320, Note_on_c, 9, 38, 112
1, 196320, Note_on_c, 9, 53, 91
1, 196560, Note_on_c, 9, 35, 83
1, 196799, Note_on_c, 9, 38, 0
1, 196799, Note_on_c, 9, 53, 0
1, 196799, Note_on_c, 9, 35, 0
1, 196800, Note_on_c, 9, 53, 91
1, 196800, Note_on_c, 9, 35, 114
1, 197279, Note_on_c, 9, 53, 0
1, 197279, Note_on_c, 9, 35, 0
1, 197280, Note_on_c, 9, 38, 111
1, 197280, Note_on_c, 9, 53, 76
1, 197759, Note_on_c, 9, 38, 0
1, 197759, Note_on_c, 9, 53, 0
1, 197760, Note_on_c, 9, 53, 89
1, 197760, Note_on_c, 9, 35, 112
1, 198239, Note_on_c, 9, 53, 0
1, 198239, Note_on_c, 9, 35, 0
1, 198240, Note_on_c, 9, 38, 112
1, 198240, Note_on_c, 9, 53, 85
1, 198479, Note_on_c, 9, 38, 0
1, 198479, Note_on_c, 9, 53, 0
1, 198480, Note_on_c, 9, 35, 83
1, 198495, Note_on_c, 9, 53, 45
1, 198719, Note_on_c, 9, 35, 0
1, 198719, Note_on_c, 9, 53, 0
1, 198720, Note_on_c, 9, 53, 87
1, 198720, Note_on_c, 9, 35, 114
1, 198959, Note_on_c, 9, 53, 0
1, 198975, Note_on_c, 9, 53, 42
1, 199199, Note_on_c, 9, 35, 0
1, 199199, Note_on_c, 9, 53, 0
1, 199200, Note_on_c, 9, 38, 111
1, 199200, Note_on_c, 9, 53, 89
1, 199439, Note_on_c, 9, 38, 0
1, 199439, Note_on_c, 9, 53, 0
1, 199460, Note_on_c, 9, 53, 45
1, 199499, Note_on_c, 9, 53, 0
1, 199680, Note_on_c, 9, 53, 86
1, 199680, Note_on_c, 9, 35, 112
1, 200129, Note_on_c, 9, 53, 0
1, 200145, Note_on_c, 9, 53, 91
1, 200159, Note_on_c, 9, 35, 0
1, 200160, Note_on_c, 9, 38, 111
1, 200399, Note_on_c, 9, 53, 0
1, 200399, Note_on_c, 9, 38, 0
1, 200400, Note_on_c, 9, 35, 114
1, 200415, Note_on_c, 9, 53, 84
1, 200639, Note_on_c, 9, 35, 0
1, 200639, Note_on_c, 9, 53, 0
1, 200880, Note_on_c, 9, 35, 114
1, 201119, Note_on_c, 9, 35, 0
1, 201120, Note_on_c, 9, 53, 88
1, 201134, Note_on_c, 9, 53, 0
1, 201135, Note_on_c, 9, 38, 110
1, 201359, Note_on_c, 9, 38, 0
1, 201360, Note_on_c, 9, 35, 91
1, 201380, Note_on_c, 9, 53, 46
1, 201419, Note_on_c, 9, 53, 0
1, 201585, Note_on_c, 9, 48, 102
1, 201599, Note_on_c, 9, 35, 0
1, 201599, Note_on_c, 9, 48, 0
1, 201615, Note_on_c, 9, 48, 127
1, 201840, Note_on_c, 9, 35, 91
1, 202019, Note_on_c, 9, 48, 0
1, 202060, Note_on_c, 9, 38, 106
1, 202079, Note_on_c, 9, 35, 0
1, 202079, Note_on_c, 9, 38, 0
1, 202080, Note_on_c, 9, 38, 126
1, 202559, Note_on_c, 9, 38, 0
1, 202560, End_track
0, 0, End_of_file
