0, 0, Header, 1, 1, 480
1, 0, Start_track
1, 0, Time_signature, 4, 2, 24, 8
1, 0, Key_signature, 0, "major"
1, 0, Tempo, 666667
1, 0, Control_c, 9, 121, 0
1, 0, Program_c, 9, 0
1, 0, Control_c, 9, 7, 100
1, 0, Control_c, 9, 10, 64
1, 0, Control_c, 9, 91, 0
1, 0, Control_c, 9, 93, 0
1, 0, MIDI_port, 0
1, 0, Note_on_c, 9, 33, 110
1, 0, Note_on_c, 9, 42, 110
1, 0, Note_on_c, 9, 57, 110
1, 119, Note_on_c, 9, 33, 0
1, 119, Note_on_c, 9, 42, 0
1, 119, Note_on_c, 9, 57, 0
1, 120, Note_on_c, 9, 33, 110
1, 239, Note_on_c, 9, 33, 0
1, 240, Note_on_c, 9, 42, 110
1, 359, Note_on_c, 9, 42, 0
1, 360, Note_on_c, 9, 33, 110
1, 479, Note_on_c, 9, 33, 0
1, 480, Note_on_c, 9, 38, 110
1, 480, Note_on_c, 9, 42, 110
1, 839, Note_on_c, 9, 38, 0
1, 839, Note_on_c, 9, 42, 0
1, 840, Note_on_c, 9, 33, 110
1, 840, Note_on_c, 9, 42, 110
1, 959, Note_on_c, 9, 33, 0
1, 959, Note_on_c, 9, 42, 0
1, 1080, Note_on_c, 9, 33, 110
1, 1080, Note_on_c, 9, 42, 110
1, 1199, Note_on_c, 9, 33, 0
1, 1199, Note_on_c, 9, 42, 0
1, 1200, Note_on_c, 9, 33, 110
1, 1319, Note_on_c, 9, 33, 0
1, 1320, Note_on_c, 9, 42, 110
1, 1439, Note_on_c, 9, 42, 0
1, 1440, Note_on_c, 9, 38, 110
1, 1440, Note_on_c, 9, 42, 110
1, 1679, Note_on_c, 9, 38, 0
1, 1679, Note_on_c, 9, 42, 0
1, 1680, Note_on_c, 9, 38, 110
1, 1680, Note_on_c, 9, 42, 110
1, 1799, Note_on_c, 9, 38, 0
1, 1799, Note_on_c, 9, 42, 0
1, 1800, Note_on_c, 9, 33, 110
1, 1919, Note_on_c, 9, 33, 0
1, 1920, Note_on_c, 9, 33, 110
1, 1920, Note_on_c, 9, 42, 110
1, 2039, Note_on_c, 9, 33, 0
1, 2039, Note_on_c, 9, 42, 0
1, 2040, Note_on_c, 9, 33, 110
1, 2159, Note_on_c, 9, 33, 0
1, 2160, Note_on_c, 9, 42, 110
1, 2279, Note_on_c, 9, 42, 0
1, 2280, Note_on_c, 9, 33, 110
1, 2399, Note_on_c, 9, 33, 0
1, 2400, Note_on_c, 9, 38, 110
1, 2400, Note_on_c, 9, 42, 110
1, 2759, Note_on_c, 9, 38, 0
1, 2759, Note_on_c, 9, 42, 0
1, 2760, Note_on_c, 9, 33, 110
1, 2760, Note_on_c, 9, 42, 110
1, 2879, Note_on_c, 9, 33, 0
1, 2879, Note_on_c, 9, 42, 0
1, 3000, Note_on_c, 9, 33, 110
1, 3000, Note_on_c, 9, 42, 110
1, 3119, Note_on_c, 9, 33, 0
1, 3119, Note_on_c, 9, 42, 0
1, 3120, Note_on_c, 9, 33, 110
1, 3239, Note_on_c, 9, 33, 0
1, 3240, Note_on_c, 9, 42, 110
1, 3359, Note_on_c, 9, 42, 0
1, 3360, Note_on_c, 9, 38, 110
1, 3360, Note_on_c, 9, 42, 110
1, 3599, Note_on_c, 9, 38, 0
1, 3599, Note_on_c, 9, 42, 0
1, 3600, Note_on_c, 9, 38, 110
1, 3600, Note_on_c, 9, 42, 110
1, 3719, Note_on_c, 9, 38, 0
1, 3719, Note_on_c, 9, 42, 0
1, 3720, Note_on_c, 9, 33, 110
1, 3839, Note_on_c, 9, 33, 0
1, 3840, Note_on_c, 9, 33, 110
1, 3840, Note_on_c, 9, 42, 110
1, 3840, Note_on_c, 9, 57, 110
1, 3959, Note_on_c, 9, 33, 0
1, 3959, Note_on_c, 9, 42, 0
1, 3959, Note_on_c, 9, 57, 0
1, 3960, Note_on_c, 9, 33, 110
1, 4079, Note_on_c, 9, 33, 0
1, 4080, Note_on_c, 9, 42, 110
1, 4199, Note_on_c, 9, 42, 0
1, 4200, Note_on_c, 9, 33, 110
1, 4319, Note_on_c, 9, 33, 0
1, 4320, Note_on_c, 9, 38, 110
1, 4320, Note_on_c, 9, 42, 110
1, 4679, Note_on_c, 9, 38, 0
1, 4679, Note_on_c, 9, 42, 0
1, 4680, Note_on_c, 9, 33, 110
1, 4680, Note_on_c, 9, 42, 110
1, 4799, Note_on_c, 9, 33, 0
1, 4799, Note_on_c, 9, 42, 0
1, 4920, Note_on_c, 9, 33, 110
1, 4920, Note_on_c, 9, 42, 110
1, 5039, Note_on_c, 9, 33, 0
1, 5039, Note_on_c, 9, 42, 0
1, 5040, Note_on_c, 9, 33, 110
1, 5159, Note_on_c, 9, 33, 0
1, 5160, Note_on_c, 9, 42, 110
1, 5279, Note_on_c, 9, 42, 0
1, 5280, Note_on_c, 9, 38, 110
1, 5280, Note_on_c, 9, 42, 110
1, 5519, Note_on_c, 9, 38, 0
1, 5519, Note_on_c, 9, 42, 0
1, 5520, Note_on_c, 9, 38, 110
1, 5520, Note_on_c, 9, 42, 110
1, 5639, Note_on_c, 9, 38, 0
1, 5639, Note_on_c, 9, 42, 0
1, 5640, Note_on_c, 9, 33, 110
1, 5759, Note_on_c, 9, 33, 0
1, 5760, Note_on_c, 9, 33, 110
1, 5760, Note_on_c, 9, 42, 110
1, 5879, Note_on_c, 9, 33, 0
1, 5879, Note_on_c, 9, 42, 0
1, 5880, Note_on_c, 9, 33, 110
1, 5999, Note_on_c, 9, 33, 0
1, 6000, Note_on_c, 9, 42, 110
1, 6119, Note_on_c, 9, 42, 0
1, 6120, Note_on_c, 9, 33, 110
1, 6239, Note_on_c, 9, 33, 0
1, 6240, Note_on_c, 9, 38, 110
1, 6240, Note_on_c, 9, 42, 110
1, 6599, Note_on_c, 9, 38, 0
1, 6599, Note_on_c, 9, 42, 0
1, 6600, Note_on_c, 9, 33, 110
1, 6600, Note_on_c, 9, 42, 110
1, 6719, Note_on_c, 9, 33, 0
1, 6719, Note_on_c, 9, 42, 0
1, 6840, Note_on_c, 9, 33, 110
1, 6840, Note_on_c, 9, 42, 110
1, 6959, Note_on_c, 9, 33, 0
1, 6959, Note_on_c, 9, 42, 0
1, 6960, Note_on_c, 9, 33, 110
1, 7079, Note_on_c, 9, 33, 0
1, 7080, Note_on_c, 9, 42, 110
1, 7199, Note_on_c, 9, 42, 0
1, 7200, Note_on_c, 9, 38, 110
1, 7200, Note_on_c, 9, 42, 110
1, 7439, Note_on_c, 9, 38, 0
1, 7439, Note_on_c, 9, 42, 0
1, 7440, Note_on_c, 9, 38, 110
1, 7440, Note_on_c, 9, 46, 110
1, 7559, Note_on_c, 9, 38, 0
1, 7559, Note_on_c, 9, 46, 0
1, 7560, Note_on_c, 9, 33, 110
1, 7679, Note_on_c, 9, 33, 0
1, 7680, Note_on_c, 9, 33, 110
1, 7680, Note_on_c, 9, 42, 110
1, 7680, Note_on_c, 9, 57, 110
1, 7799, Note_on_c, 9, 33, 0
1, 7799, Note_on_c, 9, 42, 0
1, 7799, Note_on_c, 9, 57, 0
1, 7800, Note_on_c, 9, 33, 110
1, 7919, Note_on_c, 9, 33, 0
1, 7920, Note_on_c, 9, 42, 110
1, 8039, Note_on_c, 9, 42, 0
1, 8040, Note_on_c, 9, 33, 110
1, 8159, Note_on_c, 9, 33, 0
1, 8160, Note_on_c, 9, 38, 110
1, 8160, Note_on_c, 9, 42, 110
1, 8519, Note_on_c, 9, 38, 0
1, 8519, Note_on_c, 9, 42, 0
1, 8520, Note_on_c, 9, 33, 110
1, 8520, Note_on_c, 9, 42, 110
1, 8639, Note_on_c, 9, 33, 0
1, 8639, Note_on_c, 9, 42, 0
1, 8760, Note_on_c, 9, 33, 110
1, 8760, Note_on_c, 9, 42, 110
1, 8879, Note_on_c, 9, 33, 0
1, 8879, Note_on_c, 9, 42, 0
1, 8880, Note_on_c, 9, 33, 110
1, 8999, Note_on_c, 9, 33, 0
1, 9000, Note_on_c, 9, 42, 110
1, 9119, Note_on_c, 9, 42, 0
1, 9120, Note_on_c, 9, 38, 110
1, 9120, Note_on_c, 9, 42, 110
1, 9359, Note_on_c, 9, 38, 0
1, 9359, Note_on_c, 9, 42, 0
1, 9360, Note_on_c, 9, 38, 110
1, 9360, Note_on_c, 9, 42, 110
1, 9479, Note_on_c, 9, 38, 0
1, 9479, Note_on_c, 9, 42, 0
1, 9480, Note_on_c, 9, 33, 110
1, 9599, Note_on_c, 9, 33, 0
1, 9600, Note_on_c, 9, 33, 110
1, 9600, Note_on_c, 9, 42, 110
1, 9719, Note_on_c, 9, 33, 0
1, 9719, Note_on_c, 9, 42, 0
1, 9720, Note_on_c, 9, 33, 110
1, 9839, Note_on_c, 9, 33, 0
1, 9840, Note_on_c, 9, 42, 110
1, 9959, Note_on_c, 9, 42, 0
1, 9960, Note_on_c, 9, 33, 110
1, 10079, Note_on_c, 9, 33, 0
1, 10080, Note_on_c, 9, 38, 110
1, 10080, Note_on_c, 9, 42, 110
1, 10439, Note_on_c, 9, 38, 0
1, 10439, Note_on_c, 9, 42, 0
1, 10440, Note_on_c, 9, 33, 110
1, 10440, Note_on_c, 9, 42, 110
1, 10559, Note_on_c, 9, 33, 0
1, 10559, Note_on_c, 9, 42, 0
1, 10680, Note_on_c, 9, 33, 110
1, 10680, Note_on_c, 9, 42, 110
1, 10799, Note_on_c, 9, 33, 0
1, 10799, Note_on_c, 9, 42, 0
1, 10800, Note_on_c, 9, 33, 110
1, 10919, Note_on_c, 9, 33, 0
1, 10920, Note_on_c, 9, 42, 110
1, 11039, Note_on_c, 9, 42, 0
1, 11040, Note_on_c, 9, 38, 110
1, 11040, Note_on_c, 9, 42, 110
1, 11279, Note_on_c, 9, 38, 0
1, 11279, Note_on_c, 9, 42, 0
1, 11280, Note_on_c, 9, 38, 110
1, 11280, Note_on_c, 9, 42, 110
1, 11399, Note_on_c, 9, 38, 0
1, 11399, Note_on_c, 9, 42, 0
1, 11400, Note_on_c, 9, 33, 110
1, 11519, Note_on_c, 9, 33, 0
1, 11520, Note_on_c, 9, 33, 110
1, 11520, Note_on_c, 9, 42, 110
1, 11639, Note_on_c, 9, 33, 0
1, 11639, Note_on_c, 9, 42, 0
1, 11640, Note_on_c, 9, 33, 110
1, 11759, Note_on_c, 9, 33, 0
1, 11760, Note_on_c, 9, 42, 110
1, 11879, Note_on_c, 9, 42, 0
1, 11880, Note_on_c, 9, 33, 110
1, 11999, Note_on_c, 9, 33, 0
1, 12000, Note_on_c, 9, 38, 110
1, 12000, Note_on_c, 9, 42, 110
1, 12359, Note_on_c, 9, 38, 0
1, 12359, Note_on_c, 9, 42, 0
1, 12360, Note_on_c, 9, 33, 110
1, 12360, Note_on_c, 9, 42, 110
1, 12479, Note_on_c, 9, 33, 0
1, 12479, Note_on_c, 9, 42, 0
1, 12600, Note_on_c, 9, 33, 110
1, 12600, Note_on_c, 9, 42, 110
1, 12719, Note_on_c, 9, 33, 0
1, 12719, Note_on_c, 9, 42, 0
1, 12720, Note_on_c, 9, 33, 110
1, 12839, Note_on_c, 9, 33, 0
1, 12840, Note_on_c, 9, 42, 110
1, 12959, Note_on_c, 9, 42, 0
1, 12960, Note_on_c, 9, 38, 110
1, 12960, Note_on_c, 9, 42, 110
1, 13199, Note_on_c, 9, 38, 0
1, 13199, Note_on_c, 9, 42, 0
1, 13200, Note_on_c, 9, 38, 110
1, 13200, Note_on_c, 9, 42, 110
1, 13319, Note_on_c, 9, 38, 0
1, 13319, Note_on_c, 9, 42, 0
1, 13320, Note_on_c, 9, 33, 110
1, 13439, Note_on_c, 9, 33, 0
1, 13440, Note_on_c, 9, 33, 110
1, 13440, Note_on_c, 9, 42, 110
1, 13559, Note_on_c, 9, 33, 0
1, 13559, Note_on_c, 9, 42, 0
1, 13560, Note_on_c, 9, 33, 110
1, 13679, Note_on_c, 9, 33, 0
1, 13680, Note_on_c, 9, 42, 110
1, 13799, Note_on_c, 9, 42, 0
1, 13800, Note_on_c, 9, 33, 110
1, 13919, Note_on_c, 9, 33, 0
1, 13920, Note_on_c, 9, 38, 110
1, 13920, Note_on_c, 9, 42, 110
1, 14279, Note_on_c, 9, 38, 0
1, 14279, Note_on_c, 9, 42, 0
1, 14280, Note_on_c, 9, 33, 110
1, 14280, Note_on_c, 9, 42, 110
1, 14399, Note_on_c, 9, 33, 0
1, 14399, Note_on_c, 9, 42, 0
1, 14520, Note_on_c, 9, 33, 110
1, 14520, Note_on_c, 9, 42, 110
1, 14639, Note_on_c, 9, 33, 0
1, 14639, Note_on_c, 9, 42, 0
1, 14640, Note_on_c, 9, 33, 110
1, 14759, Note_on_c, 9, 33, 0
1, 14760, Note_on_c, 9, 46, 110
1, 14760, Note_on_c, 9, 42, 110
1, 14879, Note_on_c, 9, 46, 0
1, 14879, Note_on_c, 9, 42, 0
1, 14880, Note_on_c, 9, 38, 110
1, 14880, Note_on_c, 9, 42, 110
1, 15119, Note_on_c, 9, 38, 0
1, 15119, Note_on_c, 9, 42, 0
1, 15120, Note_on_c, 9, 38, 110
1, 15120, Note_on_c, 9, 46, 110
1, 15120, Note_on_c, 9, 42, 110
1, 15239, Note_on_c, 9, 38, 0
1, 15239, Note_on_c, 9, 46, 0
1, 15239, Note_on_c, 9, 42, 0
1, 15240, Note_on_c, 9, 33, 110
1, 15359, Note_on_c, 9, 33, 0
1, 15360, Note_on_c, 9, 33, 110
1, 15360, Note_on_c, 9, 42, 110
1, 15360, Note_on_c, 9, 57, 110
1, 15479, Note_on_c, 9, 33, 0
1, 15479, Note_on_c, 9, 42, 0
1, 15479, Note_on_c, 9, 57, 0
1, 15480, Note_on_c, 9, 33, 110
1, 15599, Note_on_c, 9, 33, 0
1, 15600, Note_on_c, 9, 42, 110
1, 15719, Note_on_c, 9, 42, 0
1, 15720, Note_on_c, 9, 33, 110
1, 15839, Note_on_c, 9, 33, 0
1, 15840, Note_on_c, 9, 38, 110
1, 15840, Note_on_c, 9, 42, 110
1, 16199, Note_on_c, 9, 38, 0
1, 16199, Note_on_c, 9, 42, 0
1, 16200, Note_on_c, 9, 33, 110
1, 16200, Note_on_c, 9, 42, 110
1, 16319, Note_on_c, 9, 33, 0
1, 16319, Note_on_c, 9, 42, 0
1, 16440, Note_on_c, 9, 33, 110
1, 16440, Note_on_c, 9, 42, 110
1, 16559, Note_on_c, 9, 33, 0
1, 16559, Note_on_c, 9, 42, 0
1, 16560, Note_on_c, 9, 33, 110
1, 16679, Note_on_c, 9, 33, 0
1, 16680, Note_on_c, 9, 42, 110
1, 16799, Note_on_c, 9, 42, 0
1, 16800, Note_on_c, 9, 38, 110
1, 16800, Note_on_c, 9, 42, 110
1, 17039, Note_on_c, 9, 38, 0
1, 17039, Note_on_c, 9, 42, 0
1, 17040, Note_on_c, 9, 38, 110
1, 17040, Note_on_c, 9, 42, 110
1, 17159, Note_on_c, 9, 38, 0
1, 17159, Note_on_c, 9, 42, 0
1, 17160, Note_on_c, 9, 33, 110
1, 17279, Note_on_c, 9, 33, 0
1, 17280, Note_on_c, 9, 33, 110
1, 17280, Note_on_c, 9, 42, 110
1, 17399, Note_on_c, 9, 33, 0
1, 17399, Note_on_c, 9, 42, 0
1, 17400, Note_on_c, 9, 33, 110
1, 17519, Note_on_c, 9, 33, 0
1, 17520, Note_on_c, 9, 42, 110
1, 17639, Note_on_c, 9, 42, 0
1, 17640, Note_on_c, 9, 33, 110
1, 17759, Note_on_c, 9, 33, 0
1, 17760, Note_on_c, 9, 38, 110
1, 17760, Note_on_c, 9, 42, 110
1, 18119, Note_on_c, 9, 38, 0
1, 18119, Note_on_c, 9, 42, 0
1, 18120, Note_on_c, 9, 33, 110
1, 18120, Note_on_c, 9, 42, 110
1, 18239, Note_on_c, 9, 33, 0
1, 18239, Note_on_c, 9, 42, 0
1, 18360, Note_on_c, 9, 33, 110
1, 18360, Note_on_c, 9, 42, 110
1, 18479, Note_on_c, 9, 33, 0
1, 18479, Note_on_c, 9, 42, 0
1, 18480, Note_on_c, 9, 33, 110
1, 18599, Note_on_c, 9, 33, 0
1, 18600, Note_on_c, 9, 42, 110
1, 18719, Note_on_c, 9, 42, 0
1, 18720, Note_on_c, 9, 38, 110
1, 18720, Note_on_c, 9, 42, 110
1, 18959, Note_on_c, 9, 38, 0
1, 18959, Note_on_c, 9, 42, 0
1, 18960, Note_on_c, 9, 38, 110
1, 18960, Note_on_c, 9, 42, 110
1, 19079, Note_on_c, 9, 38, 0
1, 19079, Note_on_c, 9, 42, 0
1, 19080, Note_on_c, 9, 33, 110
1, 19199, Note_on_c, 9, 33, 0
1, 19200, Note_on_c, 9, 33, 110
1, 19200, Note_on_c, 9, 42, 110
1, 19319, Note_on_c, 9, 33, 0
1, 19319, Note_on_c, 9, 42, 0
1, 19320, Note_on_c, 9, 33, 110
1, 19439, Note_on_c, 9, 33, 0
1, 19440, Note_on_c, 9, 42, 110
1, 19559, Note_on_c, 9, 42, 0
1, 19560, Note_on_c, 9, 33, 110
1, 19679, Note_on_c, 9, 33, 0
1, 19680, Note_on_c, 9, 38, 110
1, 19680, Note_on_c, 9, 42, 110
1, 20039, Note_on_c, 9, 38, 0
1, 20039, Note_on_c, 9, 42, 0
1, 20040, Note_on_c, 9, 33, 110
1, 20040, Note_on_c, 9, 42, 110
1, 20159, Note_on_c, 9, 33, 0
1, 20159, Note_on_c, 9, 42, 0
1, 20280, Note_on_c, 9, 33, 110
1, 20280, Note_on_c, 9, 42, 110
1, 20399, Note_on_c, 9, 33, 0
1, 20399, Note_on_c, 9, 42, 0
1, 20400, Note_on_c, 9, 33, 110
1, 20519, Note_on_c, 9, 33, 0
1, 20520, Note_on_c, 9, 42, 110
1, 20639, Note_on_c, 9, 42, 0
1, 20640, Note_on_c, 9, 38, 110
1, 20640, Note_on_c, 9, 42, 110
1, 20879, Note_on_c, 9, 38, 0
1, 20879, Note_on_c, 9, 42, 0
1, 20880, Note_on_c, 9, 38, 110
1, 20880, Note_on_c, 9, 42, 110
1, 20999, Note_on_c, 9, 38, 0
1, 20999, Note_on_c, 9, 42, 0
1, 21000, Note_on_c, 9, 33, 110
1, 21119, Note_on_c, 9, 33, 0
1, 21120, Note_on_c, 9, 33, 110
1, 21120, Note_on_c, 9, 42, 110
1, 21239, Note_on_c, 9, 33, 0
1, 21239, Note_on_c, 9, 42, 0
1, 21240, Note_on_c, 9, 33, 110
1, 21359, Note_on_c, 9, 33, 0
1, 21360, Note_on_c, 9, 42, 110
1, 21479, Note_on_c, 9, 42, 0
1, 21480, Note_on_c, 9, 33, 110
1, 21599, Note_on_c, 9, 33, 0
1, 21600, Note_on_c, 9, 38, 110
1, 21600, Note_on_c, 9, 42, 110
1, 21959, Note_on_c, 9, 38, 0
1, 21959, Note_on_c, 9, 42, 0
1, 21960, Note_on_c, 9, 33, 110
1, 21960, Note_on_c, 9, 42, 110
1, 22079, Note_on_c, 9, 33, 0
1, 22079, Note_on_c, 9, 42, 0
1, 22200, Note_on_c, 9, 33, 110
1, 22200, Note_on_c, 9, 42, 110
1, 22319, Note_on_c, 9, 33, 0
1, 22319, Note_on_c, 9, 42, 0
1, 22320, Note_on_c, 9, 33, 110
1, 22439, Note_on_c, 9, 33, 0
1, 22440, Note_on_c, 9, 42, 110
1, 22559, Note_on_c, 9, 42, 0
1, 22560, Note_on_c, 9, 38, 110
1, 22560, Note_on_c, 9, 42, 110
1, 22799, Note_on_c, 9, 38, 0
1, 22799, Note_on_c, 9, 42, 0
1, 22800, Note_on_c, 9, 38, 110
1, 22800, Note_on_c, 9, 46, 110
1, 22919, Note_on_c, 9, 38, 0
1, 22919, Note_on_c, 9, 46, 0
1, 22920, Note_on_c, 9, 33, 110
1, 23039, Note_on_c, 9, 33, 0
1, 23040, Note_on_c, 9, 33, 110
1, 23040, Note_on_c, 9, 42, 110
1, 23040, Note_on_c, 9, 57, 110
1, 23159, Note_on_c, 9, 33, 0
1, 23159, Note_on_c, 9, 42, 0
1, 23159, Note_on_c, 9, 57, 0
1, 23160, Note_on_c, 9, 33, 110
1, 23279, Note_on_c, 9, 33, 0
1, 23280, Note_on_c, 9, 46, 110
1, 23399, Note_on_c, 9, 46, 0
1, 23400, Note_on_c, 9, 33, 110
1, 23519, Note_on_c, 9, 33, 0
1, 23520, Note_on_c, 9, 38, 110
1, 23520, Note_on_c, 9, 42, 110
1, 23879, Note_on_c, 9, 38, 0
1, 23879, Note_on_c, 9, 42, 0
1, 23880, Note_on_c, 9, 33, 110
1, 23880, Note_on_c, 9, 42, 110
1, 23999, Note_on_c, 9, 33, 0
1, 23999, Note_on_c, 9, 42, 0
1, 24120, Note_on_c, 9, 33, 110
1, 24120, Note_on_c, 9, 42, 110
1, 24239, Note_on_c, 9, 33, 0
1, 24239, Note_on_c, 9, 42, 0
1, 24240, Note_on_c, 9, 46, 110
1, 24240, Note_on_c, 9, 33, 110
1, 24479, Note_on_c, 9, 46, 0
1, 24479, Note_on_c, 9, 33, 0
1, 24480, Note_on_c, 9, 38, 110
1, 24480, Note_on_c, 9, 42, 110
1, 24719, Note_on_c, 9, 38, 0
1, 24719, Note_on_c, 9, 42, 0
1, 24720, Note_on_c, 9, 38, 110
1, 24720, Note_on_c, 9, 42, 110
1, 24839, Note_on_c, 9, 38, 0
1, 24839, Note_on_c, 9, 42, 0
1, 24840, Note_on_c, 9, 33, 110
1, 24959, Note_on_c, 9, 33, 0
1, 24960, Note_on_c, 9, 33, 110
1, 24960, Note_on_c, 9, 42, 110
1, 25079, Note_on_c, 9, 33, 0
1, 25079, Note_on_c, 9, 42, 0
1, 25080, Note_on_c, 9, 33, 110
1, 25199, Note_on_c, 9, 33, 0
1, 25200, Note_on_c, 9, 42, 110
1, 25319, Note_on_c, 9, 42, 0
1, 25320, Note_on_c, 9, 33, 110
1, 25439, Note_on_c, 9, 33, 0
1, 25440, Note_on_c, 9, 38, 110
1, 25440, Note_on_c, 9, 42, 110
1, 25799, Note_on_c, 9, 38, 0
1, 25799, Note_on_c, 9, 42, 0
1, 25800, Note_on_c, 9, 33, 110
1, 25800, Note_on_c, 9, 42, 110
1, 25919, Note_on_c, 9, 33, 0
1, 25919, Note_on_c, 9, 42, 0
1, 26040, Note_on_c, 9, 33, 110
1, 26040, Note_on_c, 9, 42, 110
1, 26159, Note_on_c, 9, 33, 0
1, 26159, Note_on_c, 9, 42, 0
1, 26160, Note_on_c, 9, 33, 110
1, 26279, Note_on_c, 9, 33, 0
1, 26280, Note_on_c, 9, 42, 110
1, 26399, Note_on_c, 9, 42, 0
1, 26400, Note_on_c, 9, 38, 110
1, 26400, Note_on_c, 9, 46, 110
1, 26639, Note_on_c, 9, 38, 0
1, 26639, Note_on_c, 9, 46, 0
1, 26640, Note_on_c, 9, 38, 110
1, 26640, Note_on_c, 9, 42, 110
1, 26759, Note_on_c, 9, 38, 0
1, 26759, Note_on_c, 9, 42, 0
1, 26760, Note_on_c, 9, 33, 110
1, 26879, Note_on_c, 9, 33, 0
1, 26880, Note_on_c, 9, 33, 110
1, 26880, Note_on_c, 9, 42, 110
1, 26880, Note_on_c, 9, 57, 110
1, 26999, Note_on_c, 9, 33, 0
1, 26999, Note_on_c, 9, 42, 0
1, 26999, Note_on_c, 9, 57, 0
1, 27000, Note_on_c, 9, 33, 110
1, 27119, Note_on_c, 9, 33, 0
1, 27120, Note_on_c, 9, 46, 110
1, 27239, Note_on_c, 9, 46, 0
1, 27240, Note_on_c, 9, 33, 110
1, 27359, Note_on_c, 9, 33, 0
1, 27360, Note_on_c, 9, 38, 110
1, 27360, Note_on_c, 9, 42, 110
1, 27719, Note_on_c, 9, 38, 0
1, 27719, Note_on_c, 9, 42, 0
1, 27720, Note_on_c, 9, 33, 110
1, 27720, Note_on_c, 9, 42, 110
1, 27839, Note_on_c, 9, 33, 0
1, 27839, Note_on_c, 9, 42, 0
1, 27960, Note_on_c, 9, 33, 110
1, 27960, Note_on_c, 9, 42, 110
1, 28079, Note_on_c, 9, 33, 0
1, 28079, Note_on_c, 9, 42, 0
1, 28080, Note_on_c, 9, 46, 110
1, 28080, Note_on_c, 9, 33, 110
1, 28319, Note_on_c, 9, 46, 0
1, 28319, Note_on_c, 9, 33, 0
1, 28320, Note_on_c, 9, 38, 110
1, 28320, Note_on_c, 9, 42, 110
1, 28559, Note_on_c, 9, 38, 0
1, 28559, Note_on_c, 9, 42, 0
1, 28560, Note_on_c, 9, 38, 110
1, 28560, Note_on_c, 9, 42, 110
1, 28679, Note_on_c, 9, 38, 0
1, 28679, Note_on_c, 9, 42, 0
1, 28680, Note_on_c, 9, 33, 110
1, 28799, Note_on_c, 9, 33, 0
1, 28800, Note_on_c, 9, 33, 110
1, 28800, Note_on_c, 9, 42, 110
1, 28919, Note_on_c, 9, 33, 0
1, 28919, Note_on_c, 9, 42, 0
1, 28920, Note_on_c, 9, 33, 110
1, 29039, Note_on_c, 9, 33, 0
1, 29040, Note_on_c, 9, 42, 110
1, 29159, Note_on_c, 9, 42, 0
1, 29160, Note_on_c, 9, 33, 110
1, 29279, Note_on_c, 9, 33, 0
1, 29280, Note_on_c, 9, 38, 110
1, 29280, Note_on_c, 9, 42, 110
1, 29639, Note_on_c, 9, 38, 0
1, 29639, Note_on_c, 9, 42, 0
1, 29640, Note_on_c, 9, 33, 110
1, 29640, Note_on_c, 9, 42, 110
1, 29759, Note_on_c, 9, 33, 0
1, 29759, Note_on_c, 9, 42, 0
1, 29880, Note_on_c, 9, 33, 110
1, 29880, Note_on_c, 9, 42, 110
1, 29999, Note_on_c, 9, 33, 0
1, 29999, Note_on_c, 9, 42, 0
1, 30000, Note_on_c, 9, 33, 110
1, 30119, Note_on_c, 9, 33, 0
1, 30120, Note_on_c, 9, 42, 110
1, 30239, Note_on_c, 9, 42, 0
1, 30240, Note_on_c, 9, 38, 110
1, 30240, Note_on_c, 9, 46, 110
1, 30479, Note_on_c, 9, 38, 0
1, 30479, Note_on_c, 9, 46, 0
1, 30480, Note_on_c, 9, 38, 110
1, 30480, Note_on_c, 9, 42, 110
1, 30599, Note_on_c, 9, 38, 0
1, 30599, Note_on_c, 9, 42, 0
1, 30600, Note_on_c, 9, 33, 110
1, 30719, Note_on_c, 9, 33, 0
1, 30720, Note_on_c, 9, 33, 110
1, 30720, Note_on_c, 9, 42, 110
1, 30720, Note_on_c, 9, 57, 110
1, 30839, Note_on_c, 9, 33, 0
1, 30839, Note_on_c, 9, 42, 0
1, 30839, Note_on_c, 9, 57, 0
1, 30840, Note_on_c, 9, 33, 110
1, 30959, Note_on_c, 9, 33, 0
1, 30960, Note_on_c, 9, 46, 110
1, 31079, Note_on_c, 9, 46, 0
1, 31080, Note_on_c, 9, 33, 110
1, 31199, Note_on_c, 9, 33, 0
1, 31200, Note_on_c, 9, 38, 110
1, 31200, Note_on_c, 9, 42, 110
1, 31559, Note_on_c, 9, 38, 0
1, 31559, Note_on_c, 9, 42, 0
1, 31560, Note_on_c, 9, 33, 110
1, 31560, Note_on_c, 9, 42, 110
1, 31679, Note_on_c, 9, 33, 0
1, 31679, Note_on_c, 9, 42, 0
1, 31800, Note_on_c, 9, 33, 110
1, 31800, Note_on_c, 9, 42, 110
1, 31919, Note_on_c, 9, 33, 0
1, 31919, Note_on_c, 9, 42, 0
1, 31920, Note_on_c, 9, 46, 110
1, 31920, Note_on_c, 9, 33, 110
1, 32159, Note_on_c, 9, 46, 0
1, 32159, Note_on_c, 9, 33, 0
1, 32160, Note_on_c, 9, 38, 110
1, 32160, Note_on_c, 9, 42, 110
1, 32399, Note_on_c, 9, 38, 0
1, 32399, Note_on_c, 9, 42, 0
1, 32400, Note_on_c, 9, 38, 110
1, 32400, Note_on_c, 9, 42, 110
1, 32519, Note_on_c, 9, 38, 0
1, 32519, Note_on_c, 9, 42, 0
1, 32520, Note_on_c, 9, 33, 110
1, 32639, Note_on_c, 9, 33, 0
1, 32640, Note_on_c, 9, 33, 110
1, 32640, Note_on_c, 9, 42, 110
1, 32759, Note_on_c, 9, 33, 0
1, 32759, Note_on_c, 9, 42, 0
1, 32760, Note_on_c, 9, 33, 110
1, 32879, Note_on_c, 9, 33, 0
1, 32880, Note_on_c, 9, 42, 110
1, 32999, Note_on_c, 9, 42, 0
1, 33000, Note_on_c, 9, 33, 110
1, 33119, Note_on_c, 9, 33, 0
1, 33120, Note_on_c, 9, 38, 110
1, 33120, Note_on_c, 9, 42, 110
1, 33479, Note_on_c, 9, 38, 0
1, 33479, Note_on_c, 9, 42, 0
1, 33480, Note_on_c, 9, 33, 110
1, 33480, Note_on_c, 9, 42, 110
1, 33599, Note_on_c, 9, 33, 0
1, 33599, Note_on_c, 9, 42, 0
1, 33720, Note_on_c, 9, 33, 110
1, 33720, Note_on_c, 9, 42, 110
1, 33839, Note_on_c, 9, 33, 0
1, 33839, Note_on_c, 9, 42, 0
1, 33840, Note_on_c, 9, 33, 110
1, 33959, Note_on_c, 9, 33, 0
1, 33960, Note_on_c, 9, 42, 110
1, 34079, Note_on_c, 9, 42, 0
1, 34080, Note_on_c, 9, 38, 110
1, 34080, Note_on_c, 9, 46, 110
1, 34319, Note_on_c, 9, 38, 0
1, 34319, Note_on_c, 9, 46, 0
1, 34320, Note_on_c, 9, 38, 110
1, 34320, Note_on_c, 9, 42, 110
1, 34439, Note_on_c, 9, 38, 0
1, 34439, Note_on_c, 9, 42, 0
1, 34440, Note_on_c, 9, 33, 110
1, 34559, Note_on_c, 9, 33, 0
1, 34560, Note_on_c, 9, 33, 110
1, 34560, Note_on_c, 9, 42, 110
1, 34560, Note_on_c, 9, 57, 110
1, 34679, Note_on_c, 9, 33, 0
1, 34679, Note_on_c, 9, 42, 0
1, 34679, Note_on_c, 9, 57, 0
1, 34680, Note_on_c, 9, 33, 110
1, 34799, Note_on_c, 9, 33, 0
1, 34800, Note_on_c, 9, 46, 110
1, 34919, Note_on_c, 9, 46, 0
1, 34920, Note_on_c, 9, 33, 110
1, 35039, Note_on_c, 9, 33, 0
1, 35040, Note_on_c, 9, 38, 110
1, 35040, Note_on_c, 9, 42, 110
1, 35399, Note_on_c, 9, 38, 0
1, 35399, Note_on_c, 9, 42, 0
1, 35400, Note_on_c, 9, 33, 110
1, 35400, Note_on_c, 9, 42, 110
1, 35519, Note_on_c, 9, 33, 0
1, 35519, Note_on_c, 9, 42, 0
1, 35640, Note_on_c, 9, 33, 110
1, 35640, Note_on_c, 9, 42, 110
1, 35759, Note_on_c, 9, 33, 0
1, 35759, Note_on_c, 9, 42, 0
1, 35760, Note_on_c, 9, 46, 110
1, 35760, Note_on_c, 9, 33, 110
1, 35999, Note_on_c, 9, 46, 0
1, 35999, Note_on_c, 9, 33, 0
1, 36000, Note_on_c, 9, 38, 110
1, 36000, Note_on_c, 9, 42, 110
1, 36239, Note_on_c, 9, 38, 0
1, 36239, Note_on_c, 9, 42, 0
1, 36240, Note_on_c, 9, 38, 110
1, 36240, Note_on_c, 9, 42, 110
1, 36359, Note_on_c, 9, 38, 0
1, 36359, Note_on_c, 9, 42, 0
1, 36360, Note_on_c, 9, 33, 110
1, 36479, Note_on_c, 9, 33, 0
1, 36480, Note_on_c, 9, 33, 110
1, 36480, Note_on_c, 9, 42, 110
1, 36599, Note_on_c, 9, 33, 0
1, 36599, Note_on_c, 9, 42, 0
1, 36600, Note_on_c, 9, 33, 110
1, 36719, Note_on_c, 9, 33, 0
1, 36720, Note_on_c, 9, 42, 110
1, 36839, Note_on_c, 9, 42, 0
1, 36840, Note_on_c, 9, 33, 110
1, 36959, Note_on_c, 9, 33, 0
1, 36960, Note_on_c, 9, 38, 110
1, 36960, Note_on_c, 9, 42, 110
1, 37319, Note_on_c, 9, 38, 0
1, 37319, Note_on_c, 9, 42, 0
1, 37320, Note_on_c, 9, 33, 110
1, 37320, Note_on_c, 9, 42, 110
1, 37439, Note_on_c, 9, 33, 0
1, 37439, Note_on_c, 9, 42, 0
1, 37560, Note_on_c, 9, 33, 110
1, 37560, Note_on_c, 9, 42, 110
1, 37679, Note_on_c, 9, 33, 0
1, 37679, Note_on_c, 9, 42, 0
1, 37680, Note_on_c, 9, 33, 110
1, 37799, Note_on_c, 9, 33, 0
1, 37800, Note_on_c, 9, 38, 110
1, 37800, Note_on_c, 9, 42, 110
1, 37919, Note_on_c, 9, 38, 0
1, 37919, Note_on_c, 9, 42, 0
1, 37920, Note_on_c, 9, 38, 110
1, 37920, Note_on_c, 9, 46, 110
1, 38159, Note_on_c, 9, 38, 0
1, 38159, Note_on_c, 9, 46, 0
1, 38160, Note_on_c, 9, 38, 110
1, 38160, Note_on_c, 9, 46, 110
1, 38279, Note_on_c, 9, 38, 0
1, 38279, Note_on_c, 9, 46, 0
1, 38280, Note_on_c, 9, 38, 110
1, 38280, Note_on_c, 9, 33, 110
1, 38399, Note_on_c, 9, 38, 0
1, 38399, Note_on_c, 9, 33, 0
1, 38400, Note_on_c, 9, 33, 110
1, 38400, Note_on_c, 9, 42, 110
1, 38400, Note_on_c, 9, 57, 110
1, 38519, Note_on_c, 9, 33, 0
1, 38519, Note_on_c, 9, 42, 0
1, 38519, Note_on_c, 9, 57, 0
1, 38520, Note_on_c, 9, 33, 110
1, 38639, Note_on_c, 9, 33, 0
1, 38640, Note_on_c, 9, 42, 110
1, 38759, Note_on_c, 9, 42, 0
1, 38760, Note_on_c, 9, 33, 110
1, 38879, Note_on_c, 9, 33, 0
1, 38880, Note_on_c, 9, 38, 110
1, 38880, Note_on_c, 9, 42, 110
1, 39239, Note_on_c, 9, 38, 0
1, 39239, Note_on_c, 9, 42, 0
1, 39240, Note_on_c, 9, 33, 110
1, 39240, Note_on_c, 9, 42, 110
1, 39359, Note_on_c, 9, 33, 0
1, 39359, Note_on_c, 9, 42, 0
1, 39480, Note_on_c, 9, 33, 110
1, 39480, Note_on_c, 9, 42, 110
1, 39599, Note_on_c, 9, 33, 0
1, 39599, Note_on_c, 9, 42, 0
1, 39600, Note_on_c, 9, 33, 110
1, 39719, Note_on_c, 9, 33, 0
1, 39720, Note_on_c, 9, 42, 110
1, 39839, Note_on_c, 9, 42, 0
1, 39840, Note_on_c, 9, 38, 110
1, 39840, Note_on_c, 9, 42, 110
1, 40079, Note_on_c, 9, 38, 0
1, 40079, Note_on_c, 9, 42, 0
1, 40080, Note_on_c, 9, 38, 110
1, 40080, Note_on_c, 9, 42, 110
1, 40199, Note_on_c, 9, 38, 0
1, 40199, Note_on_c, 9, 42, 0
1, 40200, Note_on_c, 9, 33, 110
1, 40319, Note_on_c, 9, 33, 0
1, 40320, Note_on_c, 9, 33, 110
1, 40320, Note_on_c, 9, 42, 110
1, 40439, Note_on_c, 9, 33, 0
1, 40439, Note_on_c, 9, 42, 0
1, 40440, Note_on_c, 9, 33, 110
1, 40559, Note_on_c, 9, 33, 0
1, 40560, Note_on_c, 9, 42, 110
1, 40679, Note_on_c, 9, 42, 0
1, 40680, Note_on_c, 9, 33, 110
1, 40799, Note_on_c, 9, 33, 0
1, 40800, Note_on_c, 9, 38, 110
1, 40800, Note_on_c, 9, 42, 110
1, 41159, Note_on_c, 9, 38, 0
1, 41159, Note_on_c, 9, 42, 0
1, 41160, Note_on_c, 9, 33, 110
1, 41160, Note_on_c, 9, 42, 110
1, 41279, Note_on_c, 9, 33, 0
1, 41279, Note_on_c, 9, 42, 0
1, 41400, Note_on_c, 9, 33, 110
1, 41400, Note_on_c, 9, 42, 110
1, 41519, Note_on_c, 9, 33, 0
1, 41519, Note_on_c, 9, 42, 0
1, 41520, Note_on_c, 9, 33, 110
1, 41639, Note_on_c, 9, 33, 0
1, 41640, Note_on_c, 9, 42, 110
1, 41759, Note_on_c, 9, 42, 0
1, 41760, Note_on_c, 9, 38, 110
1, 41760, Note_on_c, 9, 42, 110
1, 41999, Note_on_c, 9, 38, 0
1, 41999, Note_on_c, 9, 42, 0
1, 42000, Note_on_c, 9, 38, 110
1, 42000, Note_on_c, 9, 42, 110
1, 42119, Note_on_c, 9, 38, 0
1, 42119, Note_on_c, 9, 42, 0
1, 42120, Note_on_c, 9, 33, 110
1, 42239, Note_on_c, 9, 33, 0
1, 42240, Note_on_c, 9, 33, 110
1, 42240, Note_on_c, 9, 42, 110
1, 42359, Note_on_c, 9, 33, 0
1, 42359, Note_on_c, 9, 42, 0
1, 42360, Note_on_c, 9, 33, 110
1, 42479, Note_on_c, 9, 33, 0
1, 42480, Note_on_c, 9, 42, 110
1, 42599, Note_on_c, 9, 42, 0
1, 42600, Note_on_c, 9, 33, 110
1, 42719, Note_on_c, 9, 33, 0
1, 42720, Note_on_c, 9, 38, 110
1, 42720, Note_on_c, 9, 42, 110
1, 43079, Note_on_c, 9, 38, 0
1, 43079, Note_on_c, 9, 42, 0
1, 43080, Note_on_c, 9, 33, 110
1, 43080, Note_on_c, 9, 42, 110
1, 43199, Note_on_c, 9, 33, 0
1, 43199, Note_on_c, 9, 42, 0
1, 43320, Note_on_c, 9, 33, 110
1, 43320, Note_on_c, 9, 42, 110
1, 43439, Note_on_c, 9, 33, 0
1, 43439, Note_on_c, 9, 42, 0
1, 43440, Note_on_c, 9, 33, 110
1, 43559, Note_on_c, 9, 33, 0
1, 43560, Note_on_c, 9, 42, 110
1, 43679, Note_on_c, 9, 42, 0
1, 43680, Note_on_c, 9, 38, 110
1, 43680, Note_on_c, 9, 42, 110
1, 43919, Note_on_c, 9, 38, 0
1, 43919, Note_on_c, 9, 42, 0
1, 43920, Note_on_c, 9, 38, 110
1, 43920, Note_on_c, 9, 42, 110
1, 44039, Note_on_c, 9, 38, 0
1, 44039, Note_on_c, 9, 42, 0
1, 44040, Note_on_c, 9, 33, 110
1, 44159, Note_on_c, 9, 33, 0
1, 44160, Note_on_c, 9, 33, 110
1, 44160, Note_on_c, 9, 42, 110
1, 44279, Note_on_c, 9, 33, 0
1, 44279, Note_on_c, 9, 42, 0
1, 44280, Note_on_c, 9, 33, 110
1, 44399, Note_on_c, 9, 33, 0
1, 44400, Note_on_c, 9, 42, 110
1, 44519, Note_on_c, 9, 42, 0
1, 44520, Note_on_c, 9, 33, 110
1, 44639, Note_on_c, 9, 33, 0
1, 44640, Note_on_c, 9, 38, 110
1, 44640, Note_on_c, 9, 42, 110
1, 44999, Note_on_c, 9, 38, 0
1, 44999, Note_on_c, 9, 42, 0
1, 45000, Note_on_c, 9, 33, 110
1, 45000, Note_on_c, 9, 42, 110
1, 45119, Note_on_c, 9, 33, 0
1, 45119, Note_on_c, 9, 42, 0
1, 45240, Note_on_c, 9, 33, 110
1, 45240, Note_on_c, 9, 42, 110
1, 45359, Note_on_c, 9, 33, 0
1, 45359, Note_on_c, 9, 42, 0
1, 45360, Note_on_c, 9, 33, 110
1, 45479, Note_on_c, 9, 33, 0
1, 45480, Note_on_c, 9, 46, 110
1, 45480, Note_on_c, 9, 42, 110
1, 45599, Note_on_c, 9, 46, 0
1, 45599, Note_on_c, 9, 42, 0
1, 45600, Note_on_c, 9, 38, 110
1, 45600, Note_on_c, 9, 42, 110
1, 45839, Note_on_c, 9, 38, 0
1, 45839, Note_on_c, 9, 42, 0
1, 45840, Note_on_c, 9, 38, 110
1, 45840, Note_on_c, 9, 46, 110
1, 45840, Note_on_c, 9, 42, 110
1, 45959, Note_on_c, 9, 38, 0
1, 45959, Note_on_c, 9, 46, 0
1, 45959, Note_on_c, 9, 42, 0
1, 45960, Note_on_c, 9, 33, 110
1, 46079, Note_on_c, 9, 33, 0
1, 46080, Note_on_c, 9, 33, 110
1, 46080, Note_on_c, 9, 42, 110
1, 46080, Note_on_c, 9, 57, 110
1, 46199, Note_on_c, 9, 33, 0
1, 46199, Note_on_c, 9, 42, 0
1, 46199, Note_on_c, 9, 57, 0
1, 46200, Note_on_c, 9, 33, 110
1, 46319, Note_on_c, 9, 33, 0
1, 46320, Note_on_c, 9, 42, 110
1, 46439, Note_on_c, 9, 42, 0
1, 46440, Note_on_c, 9, 33, 110
1, 46559, Note_on_c, 9, 33, 0
1, 46560, Note_on_c, 9, 38, 110
1, 46560, Note_on_c, 9, 42, 110
1, 46919, Note_on_c, 9, 38, 0
1, 46919, Note_on_c, 9, 42, 0
1, 46920, Note_on_c, 9, 33, 110
1, 46920, Note_on_c, 9, 42, 110
1, 47039, Note_on_c, 9, 33, 0
1, 47039, Note_on_c, 9, 42, 0
1, 47160, Note_on_c, 9, 33, 110
1, 47160, Note_on_c, 9, 42, 110
1, 47279, Note_on_c, 9, 33, 0
1, 47279, Note_on_c, 9, 42, 0
1, 47280, Note_on_c, 9, 33, 110
1, 47399, Note_on_c, 9, 33, 0
1, 47400, Note_on_c, 9, 42, 110
1, 47519, Note_on_c, 9, 42, 0
1, 47520, Note_on_c, 9, 38, 110
1, 47520, Note_on_c, 9, 42, 110
1, 47759, Note_on_c, 9, 38, 0
1, 47759, Note_on_c, 9, 42, 0
1, 47760, Note_on_c, 9, 38, 110
1, 47760, Note_on_c, 9, 42, 110
1, 47879, Note_on_c, 9, 38, 0
1, 47879, Note_on_c, 9, 42, 0
1, 47880, Note_on_c, 9, 33, 110
1, 47999, Note_on_c, 9, 33, 0
1, 48000, Note_on_c, 9, 33, 110
1, 48000, Note_on_c, 9, 42, 110
1, 48119, Note_on_c, 9, 33, 0
1, 48119, Note_on_c, 9, 42, 0
1, 48120, Note_on_c, 9, 33, 110
1, 48239, Note_on_c, 9, 33, 0
1, 48240, Note_on_c, 9, 42, 110
1, 48359, Note_on_c, 9, 42, 0
1, 48360, Note_on_c, 9, 33, 110
1, 48479, Note_on_c, 9, 33, 0
1, 48480, Note_on_c, 9, 38, 110
1, 48480, Note_on_c, 9, 42, 110
1, 48839, Note_on_c, 9, 38, 0
1, 48839, Note_on_c, 9, 42, 0
1, 48840, Note_on_c, 9, 33, 110
1, 48840, Note_on_c, 9, 42, 110
1, 48959, Note_on_c, 9, 33, 0
1, 48959, Note_on_c, 9, 42, 0
1, 49080, Note_on_c, 9, 33, 110
1, 49080, Note_on_c, 9, 42, 110
1, 49199, Note_on_c, 9, 33, 0
1, 49199, Note_on_c, 9, 42, 0
1, 49200, Note_on_c, 9, 33, 110
1, 49319, Note_on_c, 9, 33, 0
1, 49320, Note_on_c, 9, 42, 110
1, 49439, Note_on_c, 9, 42, 0
1, 49440, Note_on_c, 9, 38, 110
1, 49440, Note_on_c, 9, 42, 110
1, 49679, Note_on_c, 9, 38, 0
1, 49679, Note_on_c, 9, 42, 0
1, 49680, Note_on_c, 9, 38, 110
1, 49680, Note_on_c, 9, 42, 110
1, 49799, Note_on_c, 9, 38, 0
1, 49799, Note_on_c, 9, 42, 0
1, 49800, Note_on_c, 9, 33, 110
1, 49919, Note_on_c, 9, 33, 0
1, 49920, Note_on_c, 9, 33, 110
1, 49920, Note_on_c, 9, 42, 110
1, 50039, Note_on_c, 9, 33, 0
1, 50039, Note_on_c, 9, 42, 0
1, 50040, Note_on_c, 9, 33, 110
1, 50159, Note_on_c, 9, 33, 0
1, 50160, Note_on_c, 9, 42, 110
1, 50279, Note_on_c, 9, 42, 0
1, 50280, Note_on_c, 9, 33, 110
1, 50399, Note_on_c, 9, 33, 0
1, 50400, Note_on_c, 9, 38, 110
1, 50400, Note_on_c, 9, 42, 110
1, 50759, Note_on_c, 9, 38, 0
1, 50759, Note_on_c, 9, 42, 0
1, 50760, Note_on_c, 9, 33, 110
1, 50760, Note_on_c, 9, 42, 110
1, 50879, Note_on_c, 9, 33, 0
1, 50879, Note_on_c, 9, 42, 0
1, 51000, Note_on_c, 9, 33, 110
1, 51000, Note_on_c, 9, 42, 110
1, 51119, Note_on_c, 9, 33, 0
1, 51119, Note_on_c, 9, 42, 0
1, 51120, Note_on_c, 9, 33, 110
1, 51239, Note_on_c, 9, 33, 0
1, 51240, Note_on_c, 9, 42, 110
1, 51359, Note_on_c, 9, 42, 0
1, 51360, Note_on_c, 9, 38, 110
1, 51360, Note_on_c, 9, 42, 110
1, 51599, Note_on_c, 9, 38, 0
1, 51599, Note_on_c, 9, 42, 0
1, 51600, Note_on_c, 9, 38, 110
1, 51600, Note_on_c, 9, 42, 110
1, 51719, Note_on_c, 9, 38, 0
1, 51719, Note_on_c, 9, 42, 0
1, 51720, Note_on_c, 9, 33, 110
1, 51839, Note_on_c, 9, 33, 0
1, 51840, Note_on_c, 9, 33, 110
1, 51840, Note_on_c, 9, 42, 110
1, 51959, Note_on_c, 9, 33, 0
1, 51959, Note_on_c, 9, 42, 0
1, 51960, Note_on_c, 9, 33, 110
1, 52079, Note_on_c, 9, 33, 0
1, 52080, Note_on_c, 9, 42, 110
1, 52199, Note_on_c, 9, 42, 0
1, 52200, Note_on_c, 9, 33, 110
1, 52319, Note_on_c, 9, 33, 0
1, 52320, Note_on_c, 9, 38, 110
1, 52320, Note_on_c, 9, 42, 110
1, 52679, Note_on_c, 9, 38, 0
1, 52679, Note_on_c, 9, 42, 0
1, 52680, Note_on_c, 9, 33, 110
1, 52680, Note_on_c, 9, 42, 110
1, 52799, Note_on_c, 9, 33, 0
1, 52799, Note_on_c, 9, 42, 0
1, 52920, Note_on_c, 9, 33, 110
1, 52920, Note_on_c, 9, 42, 110
1, 53039, Note_on_c, 9, 33, 0
1, 53039, Note_on_c, 9, 42, 0
1, 53040, Note_on_c, 9, 33, 110
1, 53159, Note_on_c, 9, 33, 0
1, 53160, Note_on_c, 9, 42, 110
1, 53279, Note_on_c, 9, 42, 0
1, 53280, Note_on_c, 9, 38, 110
1, 53280, Note_on_c, 9, 42, 110
1, 53519, Note_on_c, 9, 38, 0
1, 53519, Note_on_c, 9, 42, 0
1, 53520, Note_on_c, 9, 38, 110
1, 53520, Note_on_c, 9, 46, 110
1, 53639, Note_on_c, 9, 38, 0
1, 53639, Note_on_c, 9, 46, 0
1, 53640, Note_on_c, 9, 33, 110
1, 53759, Note_on_c, 9, 33, 0
1, 53760, Note_on_c, 9, 33, 110
1, 53760, Note_on_c, 9, 42, 110
1, 53760, Note_on_c, 9, 57, 110
1, 53879, Note_on_c, 9, 33, 0
1, 53879, Note_on_c, 9, 42, 0
1, 53879, Note_on_c, 9, 57, 0
1, 53880, Note_on_c, 9, 33, 110
1, 53999, Note_on_c, 9, 33, 0
1, 54000, Note_on_c, 9, 46, 110
1, 54119, Note_on_c, 9, 46, 0
1, 54120, Note_on_c, 9, 33, 110
1, 54239, Note_on_c, 9, 33, 0
1, 54240, Note_on_c, 9, 38, 110
1, 54240, Note_on_c, 9, 42, 110
1, 54599, Note_on_c, 9, 38, 0
1, 54599, Note_on_c, 9, 42, 0
1, 54600, Note_on_c, 9, 33, 110
1, 54600, Note_on_c, 9, 42, 110
1, 54719, Note_on_c, 9, 33, 0
1, 54719, Note_on_c, 9, 42, 0
1, 54840, Note_on_c, 9, 33, 110
1, 54840, Note_on_c, 9, 42, 110
1, 54959, Note_on_c, 9, 33, 0
1, 54959, Note_on_c, 9, 42, 0
1, 54960, Note_on_c, 9, 46, 110
1, 54960, Note_on_c, 9, 33, 110
1, 55199, Note_on_c, 9, 46, 0
1, 55199, Note_on_c, 9, 33, 0
1, 55200, Note_on_c, 9, 38, 110
1, 55200, Note_on_c, 9, 42, 110
1, 55439, Note_on_c, 9, 38, 0
1, 55439, Note_on_c, 9, 42, 0
1, 55440, Note_on_c, 9, 38, 110
1, 55440, Note_on_c, 9, 42, 110
1, 55559, Note_on_c, 9, 38, 0
1, 55559, Note_on_c, 9, 42, 0
1, 55560, Note_on_c, 9, 33, 110
1, 55679, Note_on_c, 9, 33, 0
1, 55680, Note_on_c, 9, 33, 110
1, 55680, Note_on_c, 9, 42, 110
1, 55799, Note_on_c, 9, 33, 0
1, 55799, Note_on_c, 9, 42, 0
1, 55800, Note_on_c, 9, 33, 110
1, 55919, Note_on_c, 9, 33, 0
1, 55920, Note_on_c, 9, 42, 110
1, 56039, Note_on_c, 9, 42, 0
1, 56040, Note_on_c, 9, 33, 110
1, 56159, Note_on_c, 9, 33, 0
1, 56160, Note_on_c, 9, 38, 110
1, 56160, Note_on_c, 9, 42, 110
1, 56519, Note_on_c, 9, 38, 0
1, 56519, Note_on_c, 9, 42, 0
1, 56520, Note_on_c, 9, 33, 110
1, 56520, Note_on_c, 9, 42, 110
1, 56639, Note_on_c, 9, 33, 0
1, 56639, Note_on_c, 9, 42, 0
1, 56760, Note_on_c, 9, 33, 110
1, 56760, Note_on_c, 9, 42, 110
1, 56879, Note_on_c, 9, 33, 0
1, 56879, Note_on_c, 9, 42, 0
1, 56880, Note_on_c, 9, 33, 110
1, 56999, Note_on_c, 9, 33, 0
1, 57000, Note_on_c, 9, 42, 110
1, 57119, Note_on_c, 9, 42, 0
1, 57120, Note_on_c, 9, 38, 110
1, 57120, Note_on_c, 9, 46, 110
1, 57359, Note_on_c, 9, 38, 0
1, 57359, Note_on_c, 9, 46, 0
1, 57360, Note_on_c, 9, 38, 110
1, 57360, Note_on_c, 9, 42, 110
1, 57479, Note_on_c, 9, 38, 0
1, 57479, Note_on_c, 9, 42, 0
1, 57480, Note_on_c, 9, 33, 110
1, 57599, Note_on_c, 9, 33, 0
1, 57600, Note_on_c, 9, 33, 110
1, 57600, Note_on_c, 9, 42, 110
1, 57600, Note_on_c, 9, 57, 110
1, 57719, Note_on_c, 9, 33, 0
1, 57719, Note_on_c, 9, 42, 0
1, 57719, Note_on_c, 9, 57, 0
1, 57720, Note_on_c, 9, 33, 110
1, 57839, Note_on_c, 9, 33, 0
1, 57840, Note_on_c, 9, 46, 110
1, 57959, Note_on_c, 9, 46, 0
1, 57960, Note_on_c, 9, 33, 110
1, 58079, Note_on_c, 9, 33, 0
1, 58080, Note_on_c, 9, 38, 110
1, 58080, Note_on_c, 9, 42, 110
1, 58439, Note_on_c, 9, 38, 0
1, 58439, Note_on_c, 9, 42, 0
1, 58440, Note_on_c, 9, 33, 110
1, 58440, Note_on_c, 9, 42, 110
1, 58559, Note_on_c, 9, 33, 0
1, 58559, Note_on_c, 9, 42, 0
1, 58680, Note_on_c, 9, 33, 110
1, 58680, Note_on_c, 9, 42, 110
1, 58799, Note_on_c, 9, 33, 0
1, 58799, Note_on_c, 9, 42, 0
1, 58800, Note_on_c, 9, 46, 110
1, 58800, Note_on_c, 9, 33, 110
1, 59039, Note_on_c, 9, 46, 0
1, 59039, Note_on_c, 9, 33, 0
1, 59040, Note_on_c, 9, 38, 110
1, 59040, Note_on_c, 9, 42, 110
1, 59279, Note_on_c, 9, 38, 0
1, 59279, Note_on_c, 9, 42, 0
1, 59280, Note_on_c, 9, 38, 110
1, 59280, Note_on_c, 9, 42, 110
1, 59399, Note_on_c, 9, 38, 0
1, 59399, Note_on_c, 9, 42, 0
1, 59400, Note_on_c, 9, 33, 110
1, 59519, Note_on_c, 9, 33, 0
1, 59520, Note_on_c, 9, 33, 110
1, 59520, Note_on_c, 9, 42, 110
1, 59639, Note_on_c, 9, 33, 0
1, 59639, Note_on_c, 9, 42, 0
1, 59640, Note_on_c, 9, 33, 110
1, 59759, Note_on_c, 9, 33, 0
1, 59760, Note_on_c, 9, 42, 110
1, 59879, Note_on_c, 9, 42, 0
1, 59880, Note_on_c, 9, 33, 110
1, 59999, Note_on_c, 9, 33, 0
1, 60000, Note_on_c, 9, 38, 110
1, 60000, Note_on_c, 9, 42, 110
1, 60359, Note_on_c, 9, 38, 0
1, 60359, Note_on_c, 9, 42, 0
1, 60360, Note_on_c, 9, 33, 110
1, 60360, Note_on_c, 9, 42, 110
1, 60479, Note_on_c, 9, 33, 0
1, 60479, Note_on_c, 9, 42, 0
1, 60600, Note_on_c, 9, 33, 110
1, 60600, Note_on_c, 9, 42, 110
1, 60719, Note_on_c, 9, 33, 0
1, 60719, Note_on_c, 9, 42, 0
1, 60720, Note_on_c, 9, 33, 110
1, 60839, Note_on_c, 9, 33, 0
1, 60840, Note_on_c, 9, 42, 110
1, 60959, Note_on_c, 9, 42, 0
1, 60960, Note_on_c, 9, 38, 110
1, 60960, Note_on_c, 9, 46, 110
1, 61199, Note_on_c, 9, 38, 0
1, 61199, Note_on_c, 9, 46, 0
1, 61200, Note_on_c, 9, 38, 110
1, 61200, Note_on_c, 9, 42, 110
1, 61319, Note_on_c, 9, 38, 0
1, 61319, Note_on_c, 9, 42, 0
1, 61320, Note_on_c, 9, 33, 110
1, 61439, Note_on_c, 9, 33, 0
1, 61440, Note_on_c, 9, 33, 110
1, 61440, Note_on_c, 9, 42, 110
1, 61440, Note_on_c, 9, 57, 110
1, 61559, Note_on_c, 9, 33, 0
1, 61559, Note_on_c, 9, 42, 0
1, 61559, Note_on_c, 9, 57, 0
1, 61560, Note_on_c, 9, 33, 110
1, 61679, Note_on_c, 9, 33, 0
1, 61680, Note_on_c, 9, 46, 110
1, 61799, Note_on_c, 9, 46, 0
1, 61800, Note_on_c, 9, 33, 110
1, 61919, Note_on_c, 9, 33, 0
1, 61920, Note_on_c, 9, 38, 110
1, 61920, Note_on_c, 9, 42, 110
1, 62279, Note_on_c, 9, 38, 0
1, 62279, Note_on_c, 9, 42, 0
1, 62280, Note_on_c, 9, 33, 110
1, 62280, Note_on_c, 9, 42, 110
1, 62399, Note_on_c, 9, 33, 0
1, 62399, Note_on_c, 9, 42, 0
1, 62520, Note_on_c, 9, 33, 110
1, 62520, Note_on_c, 9, 42, 110
1, 62639, Note_on_c, 9, 33, 0
1, 62639, Note_on_c, 9, 42, 0
1, 62640, Note_on_c, 9, 46, 110
1, 62640, Note_on_c, 9, 33, 110
1, 62879, Note_on_c, 9, 46, 0
1, 62879, Note_on_c, 9, 33, 0
1, 62880, Note_on_c, 9, 38, 110
1, 62880, Note_on_c, 9, 42, 110
1, 63119, Note_on_c, 9, 38, 0
1, 63119, Note_on_c, 9, 42, 0
1, 63120, Note_on_c, 9, 38, 110
1, 63120, Note_on_c, 9, 42, 110
1, 63239, Note_on_c, 9, 38, 0
1, 63239, Note_on_c, 9, 42, 0
1, 63240, Note_on_c, 9, 33, 110
1, 63359, Note_on_c, 9, 33, 0
1, 63360, Note_on_c, 9, 33, 110
1, 63360, Note_on_c, 9, 42, 110
1, 63479, Note_on_c, 9, 33, 0
1, 63479, Note_on_c, 9, 42, 0
1, 63480, Note_on_c, 9, 33, 110
1, 63599, Note_on_c, 9, 33, 0
1, 63600, Note_on_c, 9, 42, 110
1, 63719, Note_on_c, 9, 42, 0
1, 63720, Note_on_c, 9, 33, 110
1, 63839, Note_on_c, 9, 33, 0
1, 63840, Note_on_c, 9, 38, 110
1, 63840, Note_on_c, 9, 42, 110
1, 64199, Note_on_c, 9, 38, 0
1, 64199, Note_on_c, 9, 42, 0
1, 64200, Note_on_c, 9, 33, 110
1, 64200, Note_on_c, 9, 42, 110
1, 64319, Note_on_c, 9, 33, 0
1, 64319, Note_on_c, 9, 42, 0
1, 64440, Note_on_c, 9, 33, 110
1, 64440, Note_on_c, 9, 42, 110
1, 64559, Note_on_c, 9, 33, 0
1, 64559, Note_on_c, 9, 42, 0
1, 64560, Note_on_c, 9, 33, 110
1, 64679, Note_on_c, 9, 33, 0
1, 64680, Note_on_c, 9, 42, 110
1, 64799, Note_on_c, 9, 42, 0
1, 64800, Note_on_c, 9, 38, 110
1, 64800, Note_on_c, 9, 46, 110
1, 65039, Note_on_c, 9, 38, 0
1, 65039, Note_on_c, 9, 46, 0
1, 65040, Note_on_c, 9, 38, 110
1, 65040, Note_on_c, 9, 42, 110
1, 65159, Note_on_c, 9, 38, 0
1, 65159, Note_on_c, 9, 42, 0
1, 65160, Note_on_c, 9, 33, 110
1, 65279, Note_on_c, 9, 33, 0
1, 65280, Note_on_c, 9, 33, 110
1, 65280, Note_on_c, 9, 42, 110
1, 65280, Note_on_c, 9, 57, 110
1, 65399, Note_on_c, 9, 33, 0
1, 65399, Note_on_c, 9, 42, 0
1, 65399, Note_on_c, 9, 57, 0
1, 65400, Note_on_c, 9, 33, 110
1, 65519, Note_on_c, 9, 33, 0
1, 65520, Note_on_c, 9, 46, 110
1, 65639, Note_on_c, 9, 46, 0
1, 65640, Note_on_c, 9, 33, 110
1, 65759, Note_on_c, 9, 33, 0
1, 65760, Note_on_c, 9, 38, 110
1, 65760, Note_on_c, 9, 42, 110
1, 66119, Note_on_c, 9, 38, 0
1, 66119, Note_on_c, 9, 42, 0
1, 66120, Note_on_c, 9, 33, 110
1, 66120, Note_on_c, 9, 42, 110
1, 66239, Note_on_c, 9, 33, 0
1, 66239, Note_on_c, 9, 42, 0
1, 66360, Note_on_c, 9, 33, 110
1, 66360, Note_on_c, 9, 42, 110
1, 66479, Note_on_c, 9, 33, 0
1, 66479, Note_on_c, 9, 42, 0
1, 66480, Note_on_c, 9, 46, 110
1, 66480, Note_on_c, 9, 33, 110
1, 66719, Note_on_c, 9, 46, 0
1, 66719, Note_on_c, 9, 33, 0
1, 66720, Note_on_c, 9, 38, 110
1, 66720, Note_on_c, 9, 42, 110
1, 66959, Note_on_c, 9, 38, 0
1, 66959, Note_on_c, 9, 42, 0
1, 66960, Note_on_c, 9, 38, 110
1, 66960, Note_on_c, 9, 42, 110
1, 67079, Note_on_c, 9, 38, 0
1, 67079, Note_on_c, 9, 42, 0
1, 67080, Note_on_c, 9, 33, 110
1, 67199, Note_on_c, 9, 33, 0
1, 67200, Note_on_c, 9, 33, 110
1, 67200, Note_on_c, 9, 42, 110
1, 67319, Note_on_c, 9, 33, 0
1, 67319, Note_on_c, 9, 42, 0
1, 67320, Note_on_c, 9, 33, 110
1, 67439, Note_on_c, 9, 33, 0
1, 67440, Note_on_c, 9, 42, 110
1, 67559, Note_on_c, 9, 42, 0
1, 67560, Note_on_c, 9, 33, 110
1, 67679, Note_on_c, 9, 33, 0
1, 67680, Note_on_c, 9, 38, 110
1, 67680, Note_on_c, 9, 42, 110
1, 68039, Note_on_c, 9, 38, 0
1, 68039, Note_on_c, 9, 42, 0
1, 68040, Note_on_c, 9, 33, 110
1, 68040, Note_on_c, 9, 42, 110
1, 68159, Note_on_c, 9, 33, 0
1, 68159, Note_on_c, 9, 42, 0
1, 68280, Note_on_c, 9, 33, 110
1, 68280, Note_on_c, 9, 42, 110
1, 68399, Note_on_c, 9, 33, 0
1, 68399, Note_on_c, 9, 42, 0
1, 68400, Note_on_c, 9, 33, 110
1, 68519, Note_on_c, 9, 33, 0
1, 68520, Note_on_c, 9, 38, 110
1, 68520, Note_on_c, 9, 42, 110
1, 68639, Note_on_c, 9, 38, 0
1, 68639, Note_on_c, 9, 42, 0
1, 68640, Note_on_c, 9, 38, 110
1, 68640, Note_on_c, 9, 46, 110
1, 68879, Note_on_c, 9, 38, 0
1, 68879, Note_on_c, 9, 46, 0
1, 68880, Note_on_c, 9, 38, 110
1, 68880, Note_on_c, 9, 46, 110
1, 68999, Note_on_c, 9, 38, 0
1, 68999, Note_on_c, 9, 46, 0
1, 69000, Note_on_c, 9, 38, 110
1, 69000, Note_on_c, 9, 33, 110
1, 69119, Note_on_c, 9, 38, 0
1, 69119, Note_on_c, 9, 33, 0
1, 69120, Note_on_c, 9, 33, 110
1, 69120, Note_on_c, 9, 42, 110
1, 69120, Note_on_c, 9, 57, 110
1, 69239, Note_on_c, 9, 33, 0
1, 69239, Note_on_c, 9, 42, 0
1, 69239, Note_on_c, 9, 57, 0
1, 69240, Note_on_c, 9, 33, 110
1, 69359, Note_on_c, 9, 33, 0
1, 69360, Note_on_c, 9, 46, 110
1, 69479, Note_on_c, 9, 46, 0
1, 69480, Note_on_c, 9, 33, 110
1, 69599, Note_on_c, 9, 33, 0
1, 69600, Note_on_c, 9, 38, 110
1, 69600, Note_on_c, 9, 42, 110
1, 69959, Note_on_c, 9, 38, 0
1, 69959, Note_on_c, 9, 42, 0
1, 69960, Note_on_c, 9, 33, 110
1, 69960, Note_on_c, 9, 42, 110
1, 70079, Note_on_c, 9, 33, 0
1, 70079, Note_on_c, 9, 42, 0
1, 70200, Note_on_c, 9, 33, 110
1, 70200, Note_on_c, 9, 42, 110
1, 70319, Note_on_c, 9, 33, 0
1, 70319, Note_on_c, 9, 42, 0
1, 70320, Note_on_c, 9, 46, 110
1, 70320, Note_on_c, 9, 33, 110
1, 70559, Note_on_c, 9, 46, 0
1, 70559, Note_on_c, 9, 33, 0
1, 70560, Note_on_c, 9, 38, 110
1, 70560, Note_on_c, 9, 42, 110
1, 70799, Note_on_c, 9, 38, 0
1, 70799, Note_on_c, 9, 42, 0
1, 70800, Note_on_c, 9, 38, 110
1, 70800, Note_on_c, 9, 42, 110
1, 70919, Note_on_c, 9, 38, 0
1, 70919, Note_on_c, 9, 42, 0
1, 70920, Note_on_c, 9, 33, 110
1, 71039, Note_on_c, 9, 33, 0
1, 71040, Note_on_c, 9, 33, 110
1, 71040, Note_on_c, 9, 42, 110
1, 71159, Note_on_c, 9, 33, 0
1, 71159, Note_on_c, 9, 42, 0
1, 71160, Note_on_c, 9, 33, 110
1, 71279, Note_on_c, 9, 33, 0
1, 71280, Note_on_c, 9, 42, 110
1, 71399, Note_on_c, 9, 42, 0
1, 71400, Note_on_c, 9, 33, 110
1, 71519, Note_on_c, 9, 33, 0
1, 71520, Note_on_c, 9, 38, 110
1, 71520, Note_on_c, 9, 42, 110
1, 71879, Note_on_c, 9, 38, 0
1, 71879, Note_on_c, 9, 42, 0
1, 71880, Note_on_c, 9, 33, 110
1, 71880, Note_on_c, 9, 42, 110
1, 71999, Note_on_c, 9, 33, 0
1, 71999, Note_on_c, 9, 42, 0
1, 72120, Note_on_c, 9, 33, 110
1, 72120, Note_on_c, 9, 42, 110
1, 72239, Note_on_c, 9, 33, 0
1, 72239, Note_on_c, 9, 42, 0
1, 72240, Note_on_c, 9, 33, 110
1, 72359, Note_on_c, 9, 33, 0
1, 72360, Note_on_c, 9, 42, 110
1, 72479, Note_on_c, 9, 42, 0
1, 72480, Note_on_c, 9, 38, 110
1, 72480, Note_on_c, 9, 46, 110
1, 72719, Note_on_c, 9, 38, 0
1, 72719, Note_on_c, 9, 46, 0
1, 72720, Note_on_c, 9, 38, 110
1, 72720, Note_on_c, 9, 42, 110
1, 72839, Note_on_c, 9, 38, 0
1, 72839, Note_on_c, 9, 42, 0
1, 72840, Note_on_c, 9, 33, 110
1, 72959, Note_on_c, 9, 33, 0
1, 72960, Note_on_c, 9, 33, 110
1, 72960, Note_on_c, 9, 42, 110
1, 72960, Note_on_c, 9, 57, 110
1, 73079, Note_on_c, 9, 33, 0
1, 73079, Note_on_c, 9, 42, 0
1, 73079, Note_on_c, 9, 57, 0
1, 73080, Note_on_c, 9, 33, 110
1, 73199, Note_on_c, 9, 33, 0
1, 73200, Note_on_c, 9, 46, 110
1, 73319, Note_on_c, 9, 46, 0
1, 73320, Note_on_c, 9, 33, 110
1, 73439, Note_on_c, 9, 33, 0
1, 73440, Note_on_c, 9, 38, 110
1, 73440, Note_on_c, 9, 42, 110
1, 73799, Note_on_c, 9, 38, 0
1, 73799, Note_on_c, 9, 42, 0
1, 73800, Note_on_c, 9, 33, 110
1, 73800, Note_on_c, 9, 42, 110
1, 73919, Note_on_c, 9, 33, 0
1, 73919, Note_on_c, 9, 42, 0
1, 74040, Note_on_c, 9, 33, 110
1, 74040, Note_on_c, 9, 42, 110
1, 74159, Note_on_c, 9, 33, 0
1, 74159, Note_on_c, 9, 42, 0
1, 74160, Note_on_c, 9, 46, 110
1, 74160, Note_on_c, 9, 33, 110
1, 74399, Note_on_c, 9, 46, 0
1, 74399, Note_on_c, 9, 33, 0
1, 74400, Note_on_c, 9, 38, 110
1, 74400, Note_on_c, 9, 42, 110
1, 74639, Note_on_c, 9, 38, 0
1, 74639, Note_on_c, 9, 42, 0
1, 74640, Note_on_c, 9, 38, 110
1, 74640, Note_on_c, 9, 42, 110
1, 74759, Note_on_c, 9, 38, 0
1, 74759, Note_on_c, 9, 42, 0
1, 74760, Note_on_c, 9, 33, 110
1, 74879, Note_on_c, 9, 33, 0
1, 74880, Note_on_c, 9, 33, 110
1, 74880, Note_on_c, 9, 42, 110
1, 74999, Note_on_c, 9, 33, 0
1, 74999, Note_on_c, 9, 42, 0
1, 75000, Note_on_c, 9, 33, 110
1, 75119, Note_on_c, 9, 33, 0
1, 75120, Note_on_c, 9, 42, 110
1, 75239, Note_on_c, 9, 42, 0
1, 75240, Note_on_c, 9, 33, 110
1, 75359, Note_on_c, 9, 33, 0
1, 75360, Note_on_c, 9, 38, 110
1, 75360, Note_on_c, 9, 42, 110
1, 75719, Note_on_c, 9, 38, 0
1, 75719, Note_on_c, 9, 42, 0
1, 75720, Note_on_c, 9, 33, 110
1, 75720, Note_on_c, 9, 42, 110
1, 75839, Note_on_c, 9, 33, 0
1, 75839, Note_on_c, 9, 42, 0
1, 75960, Note_on_c, 9, 33, 110
1, 75960, Note_on_c, 9, 42, 110
1, 76079, Note_on_c, 9, 33, 0
1, 76079, Note_on_c, 9, 42, 0
1, 76080, Note_on_c, 9, 33, 110
1, 76199, Note_on_c, 9, 33, 0
1, 76200, Note_on_c, 9, 38, 110
1, 76200, Note_on_c, 9, 42, 110
1, 76319, Note_on_c, 9, 38, 0
1, 76319, Note_on_c, 9, 42, 0
1, 76320, Note_on_c, 9, 38, 110
1, 76320, Note_on_c, 9, 46, 110
1, 76559, Note_on_c, 9, 38, 0
1, 76559, Note_on_c, 9, 46, 0
1, 76560, Note_on_c, 9, 38, 110
1, 76560, Note_on_c, 9, 46, 110
1, 76679, Note_on_c, 9, 38, 0
1, 76679, Note_on_c, 9, 46, 0
1, 76680, Note_on_c, 9, 38, 110
1, 76680, Note_on_c, 9, 33, 110
1, 76799, Note_on_c, 9, 38, 0
1, 76799, Note_on_c, 9, 33, 0
1, 76800, End_track
0, 0, End_of_file
