0, 0, Header, 1, 4, 480
1, 0, Start_track
1, 0, Time_signature, 4, 2, 24, 8
1, 0, Key_signature, 0, "major"
1, 0, Tempo, 500000
1, 0, Control_c, 9, 121, 0
1, 0, Program_c, 9, 0
1, 0, Control_c, 9, 7, 100
1, 0, Control_c, 9, 10, 64
1, 0, Control_c, 9, 91, 0
1, 0, Control_c, 9, 93, 0
1, 0, MIDI_port, 0
1, 31680, Note_on_c, 9, 42, 71
1, 32159, Note_on_c, 9, 42, 0
1, 33630, Note_on_c, 9, 42, 69
1, 33689, Note_on_c, 9, 42, 0
1, 35550, Note_on_c, 9, 42, 75
1, 35609, Note_on_c, 9, 42, 0
1, 37440, Note_on_c, 9, 42, 71
1, 37919, Note_on_c, 9, 42, 0
1, 39360, Note_on_c, 9, 42, 82
1, 39839, Note_on_c, 9, 42, 0
1, 41280, Note_on_c, 9, 42, 71
1, 41759, Note_on_c, 9, 42, 0
1, 43200, Note_on_c, 9, 42, 71
1, 43679, Note_on_c, 9, 42, 0
1, 45120, Note_on_c, 9, 42, 70
1, 45599, Note_on_c, 9, 42, 0
1, 47040, Note_on_c, 9, 42, 70
1, 47519, Note_on_c, 9, 42, 0
1, 48990, Note_on_c, 9, 42, 70
1, 49049, Note_on_c, 9, 42, 0
1, 50880, Note_on_c, 9, 42, 70
1, 51359, Note_on_c, 9, 42, 0
1, 52800, Note_on_c, 9, 42, 70
1, 53279, Note_on_c, 9, 42, 0
1, 54720, Note_on_c, 9, 42, 70
1, 55199, Note_on_c, 9, 42, 0
1, 56640, Note_on_c, 9, 42, 70
1, 57119, Note_on_c, 9, 42, 0
1, 58560, Note_on_c, 9, 42, 70
1, 59039, Note_on_c, 9, 42, 0
1, 60480, Note_on_c, 9, 42, 70
1, 60959, Note_on_c, 9, 42, 0
1, 62400, Note_on_c, 9, 42, 70
1, 62879, Note_on_c, 9, 42, 0
1, 64320, Note_on_c, 9, 42, 70
1, 64799, Note_on_c, 9, 42, 0
1, 66240, Note_on_c, 9, 42, 70
1, 66719, Note_on_c, 9, 42, 0
1, 68160, Note_on_c, 9, 42, 70
1, 68639, Note_on_c, 9, 42, 0
1, 70080, Note_on_c, 9, 42, 70
1, 70559, Note_on_c, 9, 42, 0
1, 72000, Note_on_c, 9, 42, 70
1, 72479, Note_on_c, 9, 42, 0
1, 73920, Note_on_c, 9, 42, 70
1, 74399, Note_on_c, 9, 42, 0
1, 74400, End_track
2, 0, Start_track
2, 0, Key_signature, 0, "major"
2, 0, Control_c, 9, 121, 0
2, 0, Program_c, 9, 0
2, 0, Control_c, 9, 7, 100
2, 0, Control_c, 9, 10, 64
2, 0, Control_c, 9, 91, 0
2, 0, Control_c, 9, 93, 0
2, 0, MIDI_port, 0
2, 32640, Note_on_c, 9, 37, 75
2, 33119, Note_on_c, 9, 37, 0
2, 34560, Note_on_c, 9, 37, 81
2, 35039, Note_on_c, 9, 37, 0
2, 36480, Note_on_c, 9, 37, 65
2, 36959, Note_on_c, 9, 37, 0
2, 38400, Note_on_c, 9, 37, 75
2, 38879, Note_on_c, 9, 37, 0
2, 40320, Note_on_c, 9, 37, 77
2, 40799, Note_on_c, 9, 37, 0
2, 42240, Note_on_c, 9, 37, 71
2, 42719, Note_on_c, 9, 37, 0
2, 44160, Note_on_c, 9, 37, 76
2, 44639, Note_on_c, 9, 37, 0
2, 46080, Note_on_c, 9, 37, 78
2, 46559, Note_on_c, 9, 37, 0
2, 48030, Note_on_c, 9, 37, 78
2, 48089, Note_on_c, 9, 37, 0
2, 49950, Note_on_c, 9, 37, 78
2, 50009, Note_on_c, 9, 37, 0
2, 51840, Note_on_c, 9, 37, 78
2, 52319, Note_on_c, 9, 37, 0
2, 53760, Note_on_c, 9, 37, 78
2, 54239, Note_on_c, 9, 37, 0
2, 55680, Note_on_c, 9, 37, 78
2, 56159, Note_on_c, 9, 37, 0
2, 57600, Note_on_c, 9, 37, 78
2, 58079, Note_on_c, 9, 37, 0
2, 59520, Note_on_c, 9, 37, 78
2, 59999, Note_on_c, 9, 37, 0
2, 61440, Note_on_c, 9, 37, 78
2, 61919, Note_on_c, 9, 37, 0
2, 63360, Note_on_c, 9, 37, 78
2, 63839, Note_on_c, 9, 37, 0
2, 65280, Note_on_c, 9, 37, 78
2, 65759, Note_on_c, 9, 37, 0
2, 67200, Note_on_c, 9, 37, 78
2, 67679, Note_on_c, 9, 37, 0
2, 69120, Note_on_c, 9, 37, 78
2, 69599, Note_on_c, 9, 37, 0
2, 71040, Note_on_c, 9, 37, 78
2, 71519, Note_on_c, 9, 37, 0
2, 72960, Note_on_c, 9, 37, 78
2, 73439, Note_on_c, 9, 37, 0
2, 74880, Note_on_c, 9, 37, 78
2, 75359, Note_on_c, 9, 37, 0
2, 76560, Note_on_c, 9, 37, 109
2, 76679, Note_on_c, 9, 37, 0
2, 76680, Note_on_c, 9, 37, 109
2, 76799, Note_on_c, 9, 37, 0
2, 76800, Note_on_c, 9, 37, 120
2, 77279, Note_on_c, 9, 37, 0
2, 77280, End_track
3, 0, Start_track
3, 0, Key_signature, 0, "major"
3, 0, Control_c, 9, 121, 0
3, 0, Program_c, 9, 0
3, 0, Control_c, 9, 7, 100
3, 0, Control_c, 9, 10, 64
3, 0, Control_c, 9, 91, 0
3, 0, Control_c, 9, 93, 0
3, 0, MIDI_port, 0
3, 78720, Note_on_c, 9, 40, 120
3, 79199, Note_on_c, 9, 40, 0
3, 80640, Note_on_c, 9, 40, 120
3, 81119, Note_on_c, 9, 40, 0
3, 82560, Note_on_c, 9, 40, 120
3, 83039, Note_on_c, 9, 40, 0
3, 84480, Note_on_c, 9, 40, 120
3, 84959, Note_on_c, 9, 40, 0
3, 86400, Note_on_c, 9, 40, 120
3, 86879, Note_on_c, 9, 40, 0
3, 88320, Note_on_c, 9, 40, 120
3, 88799, Note_on_c, 9, 40, 0
3, 90240, Note_on_c, 9, 40, 120
3, 90719, Note_on_c, 9, 40, 0
3, 92190, Note_on_c, 9, 40, 120
3, 92249, Note_on_c, 9, 40, 0
3, 94080, Note_on_c, 9, 40, 120
3, 94559, Note_on_c, 9, 40, 0
3, 96000, Note_on_c, 9, 40, 120
3, 96479, Note_on_c, 9, 40, 0
3, 97920, Note_on_c, 9, 40, 120
3, 98399, Note_on_c, 9, 40, 0
3, 99840, Note_on_c, 9, 40, 120
3, 100319, Note_on_c, 9, 40, 0
3, 101760, Note_on_c, 9, 40, 120
3, 102239, Note_on_c, 9, 40, 0
3, 103680, Note_on_c, 9, 40, 120
3, 104159, Note_on_c, 9, 40, 0
3, 105600, Note_on_c, 9, 40, 120
3, 106079, Note_on_c, 9, 40, 0
3, 107550, Note_on_c, 9, 40, 120
3, 107609, Note_on_c, 9, 40, 0
3, 109440, Note_on_c, 9, 40, 120
3, 109919, Note_on_c, 9, 40, 0
3, 111360, Note_on_c, 9, 40, 120
3, 111839, Note_on_c, 9, 40, 0
3, 113280, Note_on_c, 9, 40, 120
3, 113759, Note_on_c, 9, 40, 0
3, 115200, Note_on_c, 9, 40, 120
3, 115679, Note_on_c, 9, 40, 0
3, 117120, Note_on_c, 9, 40, 120
3, 117599, Note_on_c, 9, 40, 0
3, 119040, Note_on_c, 9, 40, 120
3, 119519, Note_on_c, 9, 40, 0
3, 120480, Note_on_c, 9, 40, 114
3, 120959, Note_on_c, 9, 40, 0
3, 120960, Note_on_c, 9, 40, 120
3, 121439, Note_on_c, 9, 40, 0
3, 122880, Note_on_c, 9, 40, 120
3, 123359, Note_on_c, 9, 40, 0
3, 124800, Note_on_c, 9, 40, 120
3, 125279, Note_on_c, 9, 40, 0
3, 126720, Note_on_c, 9, 40, 120
3, 127199, Note_on_c, 9, 40, 0
3, 128670, Note_on_c, 9, 40, 120
3, 128729, Note_on_c, 9, 40, 0
3, 130560, Note_on_c, 9, 40, 120
3, 131039, Note_on_c, 9, 40, 0
3, 132480, Note_on_c, 9, 40, 120
3, 132959, Note_on_c, 9, 40, 0
3, 134400, Note_on_c, 9, 40, 120
3, 134879, Note_on_c, 9, 40, 0
3, 136320, Note_on_c, 9, 40, 120
3, 136799, Note_on_c, 9, 40, 0
3, 138240, Note_on_c, 9, 40, 120
3, 138719, Note_on_c, 9, 40, 0
3, 140160, Note_on_c, 9, 40, 120
3, 140639, Note_on_c, 9, 40, 0
3, 142080, Note_on_c, 9, 40, 120
3, 142559, Note_on_c, 9, 40, 0
3, 144000, Note_on_c, 9, 40, 120
3, 144479, Note_on_c, 9, 40, 0
3, 145920, Note_on_c, 9, 40, 120
3, 146399, Note_on_c, 9, 40, 0
3, 147840, Note_on_c, 9, 40, 120
3, 148319, Note_on_c, 9, 40, 0
3, 149760, Note_on_c, 9, 40, 120
3, 150239, Note_on_c, 9, 40, 0
3, 151680, Note_on_c, 9, 40, 120
3, 152159, Note_on_c, 9, 40, 0
3, 153600, Note_on_c, 9, 40, 120
3, 154079, Note_on_c, 9, 40, 0
3, 155520, Note_on_c, 9, 40, 120
3, 155999, Note_on_c, 9, 40, 0
3, 157440, Note_on_c, 9, 40, 120
3, 157919, Note_on_c, 9, 40, 0
3, 159360, Note_on_c, 9, 40, 120
3, 159839, Note_on_c, 9, 40, 0
3, 161280, Note_on_c, 9, 40, 120
3, 161759, Note_on_c, 9, 40, 0
3, 163200, Note_on_c, 9, 40, 120
3, 163679, Note_on_c, 9, 40, 0
3, 165120, Note_on_c, 9, 40, 120
3, 165599, Note_on_c, 9, 40, 0
3, 167040, Note_on_c, 9, 40, 120
3, 167519, Note_on_c, 9, 40, 0
3, 168960, Note_on_c, 9, 40, 120
3, 169439, Note_on_c, 9, 40, 0
3, 169440, End_track
4, 0, Start_track
4, 0, Key_signature, 0, "major"
4, 0, Control_c, 9, 121, 0
4, 0, Program_c, 9, 0
4, 0, Control_c, 9, 7, 100
4, 0, Control_c, 9, 10, 64
4, 0, Control_c, 9, 91, 0
4, 0, Control_c, 9, 93, 0
4, 0, MIDI_port, 0
4, 77280, Note_on_c, 9, 35, 127
4, 77759, Note_on_c, 9, 35, 0
4, 78000, Note_on_c, 9, 35, 127
4, 78239, Note_on_c, 9, 35, 0
4, 78240, Note_on_c, 9, 35, 127
4, 78719, Note_on_c, 9, 35, 0
4, 79200, Note_on_c, 9, 35, 127
4, 79679, Note_on_c, 9, 35, 0
4, 79920, Note_on_c, 9, 35, 127
4, 80159, Note_on_c, 9, 35, 0
4, 80160, Note_on_c, 9, 35, 127
4, 80639, Note_on_c, 9, 35, 0
4, 81120, Note_on_c, 9, 35, 127
4, 81599, Note_on_c, 9, 35, 0
4, 81840, Note_on_c, 9, 35, 127
4, 82079, Note_on_c, 9, 35, 0
4, 82080, Note_on_c, 9, 35, 127
4, 82559, Note_on_c, 9, 35, 0
4, 83100, Note_on_c, 9, 35, 127
4, 83279, Note_on_c, 9, 35, 0
4, 83760, Note_on_c, 9, 35, 127
4, 83999, Note_on_c, 9, 35, 0
4, 84060, Note_on_c, 9, 35, 127
4, 84239, Note_on_c, 9, 35, 0
4, 84960, Note_on_c, 9, 35, 127
4, 85439, Note_on_c, 9, 35, 0
4, 85680, Note_on_c, 9, 35, 127
4, 85919, Note_on_c, 9, 35, 0
4, 85920, Note_on_c, 9, 35, 127
4, 86399, Note_on_c, 9, 35, 0
4, 86940, Note_on_c, 9, 35, 127
4, 87119, Note_on_c, 9, 35, 0
4, 87600, Note_on_c, 9, 35, 127
4, 87839, Note_on_c, 9, 35, 0
4, 87840, Note_on_c, 9, 35, 127
4, 88319, Note_on_c, 9, 35, 0
4, 88800, Note_on_c, 9, 35, 127
4, 89279, Note_on_c, 9, 35, 0
4, 89520, Note_on_c, 9, 35, 127
4, 89759, Note_on_c, 9, 35, 0
4, 89760, Note_on_c, 9, 35, 127
4, 90239, Note_on_c, 9, 35, 0
4, 90720, Note_on_c, 9, 35, 127
4, 91199, Note_on_c, 9, 35, 0
4, 91440, Note_on_c, 9, 35, 127
4, 91679, Note_on_c, 9, 35, 0
4, 91680, Note_on_c, 9, 35, 127
4, 92159, Note_on_c, 9, 35, 0
4, 92700, Note_on_c, 9, 35, 127
4, 92879, Note_on_c, 9, 35, 0
4, 93360, Note_on_c, 9, 35, 127
4, 93599, Note_on_c, 9, 35, 0
4, 93600, Note_on_c, 9, 35, 127
4, 94079, Note_on_c, 9, 35, 0
4, 94560, Note_on_c, 9, 35, 127
4, 95039, Note_on_c, 9, 35, 0
4, 95280, Note_on_c, 9, 35, 127
4, 95519, Note_on_c, 9, 35, 0
4, 95520, Note_on_c, 9, 35, 127
4, 95999, Note_on_c, 9, 35, 0
4, 96480, Note_on_c, 9, 35, 127
4, 96959, Note_on_c, 9, 35, 0
4, 97200, Note_on_c, 9, 35, 127
4, 97439, Note_on_c, 9, 35, 0
4, 97440, Note_on_c, 9, 35, 127
4, 97919, Note_on_c, 9, 35, 0
4, 98400, Note_on_c, 9, 35, 127
4, 98879, Note_on_c, 9, 35, 0
4, 99120, Note_on_c, 9, 35, 127
4, 99359, Note_on_c, 9, 35, 0
4, 99360, Note_on_c, 9, 35, 127
4, 99839, Note_on_c, 9, 35, 0
4, 100320, Note_on_c, 9, 35, 127
4, 100799, Note_on_c, 9, 35, 0
4, 101040, Note_on_c, 9, 35, 127
4, 101279, Note_on_c, 9, 35, 0
4, 101280, Note_on_c, 9, 35, 127
4, 101759, Note_on_c, 9, 35, 0
4, 102240, Note_on_c, 9, 35, 127
4, 102719, Note_on_c, 9, 35, 0
4, 102960, Note_on_c, 9, 35, 127
4, 103199, Note_on_c, 9, 35, 0
4, 103200, Note_on_c, 9, 35, 127
4, 103679, Note_on_c, 9, 35, 0
4, 104160, Note_on_c, 9, 35, 127
4, 104639, Note_on_c, 9, 35, 0
4, 104880, Note_on_c, 9, 35, 127
4, 105119, Note_on_c, 9, 35, 0
4, 105120, Note_on_c, 9, 35, 127
4, 105599, Note_on_c, 9, 35, 0
4, 106080, Note_on_c, 9, 35, 127
4, 106559, Note_on_c, 9, 35, 0
4, 106800, Note_on_c, 9, 35, 127
4, 107039, Note_on_c, 9, 35, 0
4, 107040, Note_on_c, 9, 35, 127
4, 107519, Note_on_c, 9, 35, 0
4, 108120, Note_on_c, 9, 35, 127
4, 108479, Note_on_c, 9, 35, 0
4, 108720, Note_on_c, 9, 35, 127
4, 108959, Note_on_c, 9, 35, 0
4, 108960, Note_on_c, 9, 35, 127
4, 109439, Note_on_c, 9, 35, 0
4, 109920, Note_on_c, 9, 35, 127
4, 110399, Note_on_c, 9, 35, 0
4, 110640, Note_on_c, 9, 35, 127
4, 110879, Note_on_c, 9, 35, 0
4, 110880, Note_on_c, 9, 35, 127
4, 111359, Note_on_c, 9, 35, 0
4, 111840, Note_on_c, 9, 35, 127
4, 112319, Note_on_c, 9, 35, 0
4, 112560, Note_on_c, 9, 35, 127
4, 112799, Note_on_c, 9, 35, 0
4, 112860, Note_on_c, 9, 35, 127
4, 113039, Note_on_c, 9, 35, 0
4, 113760, Note_on_c, 9, 35, 127
4, 114239, Note_on_c, 9, 35, 0
4, 114480, Note_on_c, 9, 35, 127
4, 114719, Note_on_c, 9, 35, 0
4, 114720, Note_on_c, 9, 35, 127
4, 115199, Note_on_c, 9, 35, 0
4, 115680, Note_on_c, 9, 35, 127
4, 116159, Note_on_c, 9, 35, 0
4, 116400, Note_on_c, 9, 35, 127
4, 116639, Note_on_c, 9, 35, 0
4, 116640, Note_on_c, 9, 35, 127
4, 117119, Note_on_c, 9, 35, 0
4, 117600, Note_on_c, 9, 35, 127
4, 118079, Note_on_c, 9, 35, 0
4, 118320, Note_on_c, 9, 35, 127
4, 118559, Note_on_c, 9, 35, 0
4, 118560, Note_on_c, 9, 35, 127
4, 119039, Note_on_c, 9, 35, 0
4, 119520, Note_on_c, 9, 35, 127
4, 119999, Note_on_c, 9, 35, 0
4, 120240, Note_on_c, 9, 35, 127
4, 120479, Note_on_c, 9, 35, 0
4, 120480, Note_on_c, 9, 35, 127
4, 120959, Note_on_c, 9, 35, 0
4, 121440, Note_on_c, 9, 35, 127
4, 121919, Note_on_c, 9, 35, 0
4, 122160, Note_on_c, 9, 35, 127
4, 122399, Note_on_c, 9, 35, 0
4, 122400, Note_on_c, 9, 35, 127
4, 122879, Note_on_c, 9, 35, 0
4, 123360, Note_on_c, 9, 35, 127
4, 123839, Note_on_c, 9, 35, 0
4, 124080, Note_on_c, 9, 35, 127
4, 124319, Note_on_c, 9, 35, 0
4, 124320, Note_on_c, 9, 35, 127
4, 124799, Note_on_c, 9, 35, 0
4, 125280, Note_on_c, 9, 35, 127
4, 125759, Note_on_c, 9, 35, 0
4, 126000, Note_on_c, 9, 35, 127
4, 126239, Note_on_c, 9, 35, 0
4, 126240, Note_on_c, 9, 35, 127
4, 126719, Note_on_c, 9, 35, 0
4, 127260, Note_on_c, 9, 35, 127
4, 127439, Note_on_c, 9, 35, 0
4, 127920, Note_on_c, 9, 35, 127
4, 128159, Note_on_c, 9, 35, 0
4, 128160, Note_on_c, 9, 35, 127
4, 128639, Note_on_c, 9, 35, 0
4, 129120, Note_on_c, 9, 35, 127
4, 129599, Note_on_c, 9, 35, 0
4, 129840, Note_on_c, 9, 35, 127
4, 130079, Note_on_c, 9, 35, 0
4, 130080, Note_on_c, 9, 35, 127
4, 130559, Note_on_c, 9, 35, 0
4, 131100, Note_on_c, 9, 35, 127
4, 131279, Note_on_c, 9, 35, 0
4, 131760, Note_on_c, 9, 35, 127
4, 131999, Note_on_c, 9, 35, 0
4, 132000, Note_on_c, 9, 35, 127
4, 132479, Note_on_c, 9, 35, 0
4, 132960, Note_on_c, 9, 35, 127
4, 133439, Note_on_c, 9, 35, 0
4, 133680, Note_on_c, 9, 35, 127
4, 133919, Note_on_c, 9, 35, 0
4, 133920, Note_on_c, 9, 35, 127
4, 134399, Note_on_c, 9, 35, 0
4, 134880, Note_on_c, 9, 35, 127
4, 135359, Note_on_c, 9, 35, 0
4, 135600, Note_on_c, 9, 35, 127
4, 135839, Note_on_c, 9, 35, 0
4, 135840, Note_on_c, 9, 35, 127
4, 136319, Note_on_c, 9, 35, 0
4, 136800, Note_on_c, 9, 35, 127
4, 137279, Note_on_c, 9, 35, 0
4, 137520, Note_on_c, 9, 35, 127
4, 137759, Note_on_c, 9, 35, 0
4, 137760, Note_on_c, 9, 35, 127
4, 138239, Note_on_c, 9, 35, 0
4, 138720, Note_on_c, 9, 35, 127
4, 139199, Note_on_c, 9, 35, 0
4, 139440, Note_on_c, 9, 35, 127
4, 139679, Note_on_c, 9, 35, 0
4, 139680, Note_on_c, 9, 35, 127
4, 140159, Note_on_c, 9, 35, 0
4, 140640, Note_on_c, 9, 35, 127
4, 141119, Note_on_c, 9, 35, 0
4, 141360, Note_on_c, 9, 35, 127
4, 141599, Note_on_c, 9, 35, 0
4, 141600, Note_on_c, 9, 35, 127
4, 142079, Note_on_c, 9, 35, 0
4, 142560, Note_on_c, 9, 35, 127
4, 143039, Note_on_c, 9, 35, 0
4, 143280, Note_on_c, 9, 35, 127
4, 143519, Note_on_c, 9, 35, 0
4, 143520, Note_on_c, 9, 35, 127
4, 143999, Note_on_c, 9, 35, 0
4, 144480, Note_on_c, 9, 35, 127
4, 144959, Note_on_c, 9, 35, 0
4, 145200, Note_on_c, 9, 35, 127
4, 145439, Note_on_c, 9, 35, 0
4, 145500, Note_on_c, 9, 35, 127
4, 145679, Note_on_c, 9, 35, 0
4, 146400, Note_on_c, 9, 35, 127
4, 146879, Note_on_c, 9, 35, 0
4, 147120, Note_on_c, 9, 35, 127
4, 147359, Note_on_c, 9, 35, 0
4, 147360, Note_on_c, 9, 35, 127
4, 147839, Note_on_c, 9, 35, 0
4, 148320, Note_on_c, 9, 35, 127
4, 148799, Note_on_c, 9, 35, 0
4, 149040, Note_on_c, 9, 35, 127
4, 149279, Note_on_c, 9, 35, 0
4, 149280, Note_on_c, 9, 35, 127
4, 149759, Note_on_c, 9, 35, 0
4, 150240, Note_on_c, 9, 35, 127
4, 150719, Note_on_c, 9, 35, 0
4, 150960, Note_on_c, 9, 35, 127
4, 151199, Note_on_c, 9, 35, 0
4, 151200, Note_on_c, 9, 35, 127
4, 151679, Note_on_c, 9, 35, 0
4, 152160, Note_on_c, 9, 35, 127
4, 152639, Note_on_c, 9, 35, 0
4, 152880, Note_on_c, 9, 35, 127
4, 153119, Note_on_c, 9, 35, 0
4, 153120, Note_on_c, 9, 35, 127
4, 153599, Note_on_c, 9, 35, 0
4, 154080, Note_on_c, 9, 35, 127
4, 154559, Note_on_c, 9, 35, 0
4, 154800, Note_on_c, 9, 35, 127
4, 155039, Note_on_c, 9, 35, 0
4, 155040, Note_on_c, 9, 35, 127
4, 155519, Note_on_c, 9, 35, 0
4, 156000, Note_on_c, 9, 35, 127
4, 156479, Note_on_c, 9, 35, 0
4, 156720, Note_on_c, 9, 35, 127
4, 156959, Note_on_c, 9, 35, 0
4, 156960, Note_on_c, 9, 35, 127
4, 157439, Note_on_c, 9, 35, 0
4, 157920, Note_on_c, 9, 35, 127
4, 158399, Note_on_c, 9, 35, 0
4, 158640, Note_on_c, 9, 35, 127
4, 158879, Note_on_c, 9, 35, 0
4, 158880, Note_on_c, 9, 35, 127
4, 159359, Note_on_c, 9, 35, 0
4, 159900, Note_on_c, 9, 35, 127
4, 160079, Note_on_c, 9, 35, 0
4, 160560, Note_on_c, 9, 35, 127
4, 160799, Note_on_c, 9, 35, 0
4, 160800, Note_on_c, 9, 35, 127
4, 161279, Note_on_c, 9, 35, 0
4, 161760, Note_on_c, 9, 35, 127
4, 162239, Note_on_c, 9, 35, 0
4, 162480, Note_on_c, 9, 35, 127
4, 162719, Note_on_c, 9, 35, 0
4, 162720, Note_on_c, 9, 35, 127
4, 163199, Note_on_c, 9, 35, 0
4, 163740, Note_on_c, 9, 35, 127
4, 163919, Note_on_c, 9, 35, 0
4, 164400, Note_on_c, 9, 35, 127
4, 164639, Note_on_c, 9, 35, 0
4, 164640, Note_on_c, 9, 35, 127
4, 165119, Note_on_c, 9, 35, 0
4, 165600, Note_on_c, 9, 35, 127
4, 166079, Note_on_c, 9, 35, 0
4, 166320, Note_on_c, 9, 35, 127
4, 166559, Note_on_c, 9, 35, 0
4, 166560, Note_on_c, 9, 35, 127
4, 167039, Note_on_c, 9, 35, 0
4, 167520, Note_on_c, 9, 35, 127
4, 167999, Note_on_c, 9, 35, 0
4, 168240, Note_on_c, 9, 35, 127
4, 168479, Note_on_c, 9, 35, 0
4, 168480, Note_on_c, 9, 35, 127
4, 168959, Note_on_c, 9, 35, 0
4, 168960, End_track
0, 0, End_of_file
