0, 0, Header, 1, 1, 480
1, 0, Start_track
1, 0, Time_signature, 4, 2, 24, 8
1, 0, Key_signature, 0, "major"
1, 0, Tempo, 500000
1, 0, Control_c, 9, 121, 0
1, 0, Program_c, 9, 0
1, 0, Control_c, 9, 7, 100
1, 0, Control_c, 9, 10, 64
1, 0, Control_c, 9, 91, 0
1, 0, Control_c, 9, 93, 0
1, 0, MIDI_port, 0
1, 1920, Note_on_c, 9, 44, 28
1, 2399, Note_on_c, 9, 44, 0
1, 2400, Note_on_c, 9, 44, 74
1, 2879, Note_on_c, 9, 44, 0
1, 2880, Note_on_c, 9, 44, 72
1, 3359, Note_on_c, 9, 44, 0
1, 3360, Note_on_c, 9, 44, 74
1, 3839, Note_on_c, 9, 44, 0
1, 3840, Note_on_c, 9, 44, 104
1, 3840, Note_on_c, 9, 36, 104
1, 4319, Note_on_c, 9, 44, 0
1, 4319, Note_on_c, 9, 36, 0
1, 4320, Note_on_c, 9, 44, 84
1, 4799, Note_on_c, 9, 44, 0
1, 4800, Note_on_c, 9, 38, 119
1, 4800, Note_on_c, 9, 44, 119
1, 5279, Note_on_c, 9, 38, 0
1, 5279, Note_on_c, 9, 44, 0
1, 5280, Note_on_c, 9, 44, 82
1, 5519, Note_on_c, 9, 44, 0
1, 5520, Note_on_c, 9, 36, 110
1, 5759, Note_on_c, 9, 36, 0
1, 5760, Note_on_c, 9, 44, 113
1, 5760, Note_on_c, 9, 36, 113
1, 6239, Note_on_c, 9, 44, 0
1, 6239, Note_on_c, 9, 36, 0
1, 6240, Note_on_c, 9, 44, 110
1, 6240, Note_on_c, 9, 36, 110
1, 6719, Note_on_c, 9, 44, 0
1, 6719, Note_on_c, 9, 36, 0
1, 6720, Note_on_c, 9, 38, 112
1, 6720, Note_on_c, 9, 44, 112
1, 7199, Note_on_c, 9, 38, 0
1, 7199, Note_on_c, 9, 44, 0
1, 7200, Note_on_c, 9, 44, 69
1, 7679, Note_on_c, 9, 44, 0
1, 7680, Note_on_c, 9, 44, 108
1, 7680, Note_on_c, 9, 36, 108
1, 8159, Note_on_c, 9, 44, 0
1, 8159, Note_on_c, 9, 36, 0
1, 8160, Note_on_c, 9, 44, 66
1, 8639, Note_on_c, 9, 44, 0
1, 8640, Note_on_c, 9, 38, 109
1, 8640, Note_on_c, 9, 44, 109
1, 9119, Note_on_c, 9, 38, 0
1, 9119, Note_on_c, 9, 44, 0
1, 9120, Note_on_c, 9, 44, 120
1, 9359, Note_on_c, 9, 44, 0
1, 9360, Note_on_c, 9, 36, 120
1, 9599, Note_on_c, 9, 36, 0
1, 9600, Note_on_c, 9, 44, 120
1, 9600, Note_on_c, 9, 36, 120
1, 10079, Note_on_c, 9, 44, 0
1, 10079, Note_on_c, 9, 36, 0
1, 10080, Note_on_c, 9, 44, 121
1, 10080, Note_on_c, 9, 36, 121
1, 10559, Note_on_c, 9, 44, 0
1, 10559, Note_on_c, 9, 36, 0
1, 10560, Note_on_c, 9, 38, 118
1, 10560, Note_on_c, 9, 44, 118
1, 11039, Note_on_c, 9, 38, 0
1, 11039, Note_on_c, 9, 44, 0
1, 11040, Note_on_c, 9, 44, 66
1, 11519, Note_on_c, 9, 44, 0
1, 11520, Note_on_c, 9, 44, 106
1, 11520, Note_on_c, 9, 36, 106
1, 11999, Note_on_c, 9, 44, 0
1, 11999, Note_on_c, 9, 36, 0
1, 12000, Note_on_c, 9, 44, 66
1, 12479, Note_on_c, 9, 44, 0
1, 12480, Note_on_c, 9, 38, 118
1, 12480, Note_on_c, 9, 44, 118
1, 12959, Note_on_c, 9, 38, 0
1, 12959, Note_on_c, 9, 44, 0
1, 12960, Note_on_c, 9, 44, 82
1, 13199, Note_on_c, 9, 44, 0
1, 13200, Note_on_c, 9, 36, 100
1, 13439, Note_on_c, 9, 36, 0
1, 13440, Note_on_c, 9, 44, 102
1, 13470, Note_on_c, 9, 36, 102
1, 13529, Note_on_c, 9, 36, 0
1, 13919, Note_on_c, 9, 44, 0
1, 13920, Note_on_c, 9, 44, 104
1, 13920, Note_on_c, 9, 36, 104
1, 14399, Note_on_c, 9, 44, 0
1, 14399, Note_on_c, 9, 36, 0
1, 14400, Note_on_c, 9, 38, 119
1, 14400, Note_on_c, 9, 44, 119
1, 14639, Note_on_c, 9, 44, 0
1, 14640, Note_on_c, 9, 36, 100
1, 14879, Note_on_c, 9, 38, 0
1, 14879, Note_on_c, 9, 36, 0
1, 14880, Note_on_c, 9, 44, 64
1, 15359, Note_on_c, 9, 44, 0
1, 15360, Note_on_c, 9, 44, 65
1, 15839, Note_on_c, 9, 44, 0
1, 15840, Note_on_c, 9, 44, 65
1, 16079, Note_on_c, 9, 44, 0
1, 16080, Note_on_c, 9, 46, 124
1, 16080, Note_on_c, 9, 36, 100
1, 16319, Note_on_c, 9, 46, 0
1, 16319, Note_on_c, 9, 36, 0
1, 16320, Note_on_c, 9, 38, 124
1, 16320, Note_on_c, 9, 44, 124
1, 16559, Note_on_c, 9, 44, 0
1, 16560, Note_on_c, 9, 36, 124
1, 16799, Note_on_c, 9, 38, 0
1, 16799, Note_on_c, 9, 36, 0
1, 16800, Note_on_c, 9, 44, 124
1, 17039, Note_on_c, 9, 44, 0
1, 17040, Note_on_c, 9, 46, 125
1, 17040, Note_on_c, 9, 36, 100
1, 17279, Note_on_c, 9, 46, 0
1, 17279, Note_on_c, 9, 36, 0
1, 17280, Note_on_c, 9, 38, 125
1, 17280, Note_on_c, 9, 44, 125
1, 17519, Note_on_c, 9, 44, 0
1, 17520, Note_on_c, 9, 36, 125
1, 17759, Note_on_c, 9, 38, 0
1, 17759, Note_on_c, 9, 36, 0
1, 17760, Note_on_c, 9, 44, 126
1, 17999, Note_on_c, 9, 44, 0
1, 18000, Note_on_c, 9, 46, 124
1, 18000, Note_on_c, 9, 36, 124
1, 18039, Note_on_c, 9, 46, 0
1, 18040, Note_on_c, 9, 46, 127
1, 18119, Note_on_c, 9, 46, 0
1, 18239, Note_on_c, 9, 36, 0
1, 18240, Note_on_c, 9, 38, 127
1, 18240, Note_on_c, 9, 44, 127
1, 18479, Note_on_c, 9, 44, 0
1, 18480, Note_on_c, 9, 36, 124
1, 18719, Note_on_c, 9, 38, 0
1, 18719, Note_on_c, 9, 36, 0
1, 18720, Note_on_c, 9, 44, 120
1, 19199, Note_on_c, 9, 44, 0
1, 19200, Note_on_c, 9, 44, 103
1, 19200, Note_on_c, 9, 36, 103
1, 19679, Note_on_c, 9, 44, 0
1, 19679, Note_on_c, 9, 36, 0
1, 19680, Note_on_c, 9, 44, 71
1, 20159, Note_on_c, 9, 44, 0
1, 20160, Note_on_c, 9, 38, 120
1, 20160, Note_on_c, 9, 44, 120
1, 20639, Note_on_c, 9, 38, 0
1, 20639, Note_on_c, 9, 44, 0
1, 20640, Note_on_c, 9, 44, 67
1, 21119, Note_on_c, 9, 44, 0
1, 21120, Note_on_c, 9, 44, 106
1, 21120, Note_on_c, 9, 36, 106
1, 21599, Note_on_c, 9, 44, 0
1, 21599, Note_on_c, 9, 36, 0
1, 21600, Note_on_c, 9, 44, 72
1, 22079, Note_on_c, 9, 44, 0
1, 22080, Note_on_c, 9, 38, 120
1, 22080, Note_on_c, 9, 44, 120
1, 22559, Note_on_c, 9, 38, 0
1, 22559, Note_on_c, 9, 44, 0
1, 22560, Note_on_c, 9, 44, 76
1, 23039, Note_on_c, 9, 44, 0
1, 23040, Note_on_c, 9, 44, 105
1, 23040, Note_on_c, 9, 36, 105
1, 23519, Note_on_c, 9, 44, 0
1, 23519, Note_on_c, 9, 36, 0
1, 23520, Note_on_c, 9, 44, 77
1, 23999, Note_on_c, 9, 44, 0
1, 24000, Note_on_c, 9, 38, 121
1, 24000, Note_on_c, 9, 44, 121
1, 24479, Note_on_c, 9, 38, 0
1, 24479, Note_on_c, 9, 44, 0
1, 24480, Note_on_c, 9, 44, 79
1, 24959, Note_on_c, 9, 44, 0
1, 24960, Note_on_c, 9, 44, 103
1, 24960, Note_on_c, 9, 36, 103
1, 25439, Note_on_c, 9, 44, 0
1, 25439, Note_on_c, 9, 36, 0
1, 25440, Note_on_c, 9, 44, 78
1, 25919, Note_on_c, 9, 44, 0
1, 25920, Note_on_c, 9, 38, 121
1, 25920, Note_on_c, 9, 44, 121
1, 26399, Note_on_c, 9, 38, 0
1, 26399, Note_on_c, 9, 44, 0
1, 26400, Note_on_c, 9, 44, 78
1, 26879, Note_on_c, 9, 44, 0
1, 26880, Note_on_c, 9, 44, 103
1, 26880, Note_on_c, 9, 36, 103
1, 27359, Note_on_c, 9, 44, 0
1, 27359, Note_on_c, 9, 36, 0
1, 27360, Note_on_c, 9, 44, 75
1, 27839, Note_on_c, 9, 44, 0
1, 27840, Note_on_c, 9, 38, 122
1, 27840, Note_on_c, 9, 44, 122
1, 28319, Note_on_c, 9, 38, 0
1, 28319, Note_on_c, 9, 44, 0
1, 28320, Note_on_c, 9, 44, 73
1, 28799, Note_on_c, 9, 44, 0
1, 28800, Note_on_c, 9, 44, 110
1, 28800, Note_on_c, 9, 36, 110
1, 29279, Note_on_c, 9, 44, 0
1, 29279, Note_on_c, 9, 36, 0
1, 29280, Note_on_c, 9, 44, 78
1, 29759, Note_on_c, 9, 44, 0
1, 29760, Note_on_c, 9, 38, 121
1, 29760, Note_on_c, 9, 44, 121
1, 29775, Note_on_c, 9, 49, 127
1, 29775, Note_on_c, 9, 35, 127
1, 29834, Note_on_c, 9, 49, 0
1, 29834, Note_on_c, 9, 35, 0
1, 30239, Note_on_c, 9, 38, 0
1, 30239, Note_on_c, 9, 44, 0
1, 30240, Note_on_c, 9, 44, 78
1, 30719, Note_on_c, 9, 44, 0
1, 30720, Note_on_c, 9, 44, 77
1, 30720, Note_on_c, 9, 36, 98
1, 31140, Note_on_c, 9, 40, 127
1, 31199, Note_on_c, 9, 44, 0
1, 31199, Note_on_c, 9, 36, 0
1, 31199, Note_on_c, 9, 40, 0
1, 31200, Note_on_c, 9, 40, 121
1, 31200, Note_on_c, 9, 44, 76
1, 31439, Note_on_c, 9, 40, 0
1, 31440, Note_on_c, 9, 40, 100
1, 31679, Note_on_c, 9, 44, 0
1, 31679, Note_on_c, 9, 40, 0
1, 31680, Note_on_c, 9, 38, 121
1, 31680, Note_on_c, 9, 44, 121
1, 31699, Note_on_c, 9, 44, 0
1, 31700, Note_on_c, 9, 43, 127
1, 31739, Note_on_c, 9, 43, 0
1, 31919, Note_on_c, 9, 38, 0
1, 31935, Note_on_c, 9, 47, 109
1, 32159, Note_on_c, 9, 47, 0
1, 32160, Note_on_c, 9, 44, 79
1, 32400, Note_on_c, 9, 45, 98
1, 32479, Note_on_c, 9, 44, 0
1, 32480, Note_on_c, 9, 43, 109
1, 32639, Note_on_c, 9, 45, 0
1, 32639, Note_on_c, 9, 43, 0
1, 32640, Note_on_c, 9, 41, 127
1, 32640, Note_on_c, 9, 44, 78
1, 32879, Note_on_c, 9, 41, 0
1, 32880, Note_on_c, 9, 40, 127
1, 33119, Note_on_c, 9, 44, 0
1, 33119, Note_on_c, 9, 40, 0
1, 33120, Note_on_c, 9, 44, 75
1, 33279, Note_on_c, 9, 44, 0
1, 33280, Note_on_c, 9, 43, 104
1, 33300, Note_on_c, 9, 45, 86
1, 33359, Note_on_c, 9, 45, 0
1, 33599, Note_on_c, 9, 43, 0
1, 33600, Note_on_c, 9, 38, 121
1, 33600, Note_on_c, 9, 44, 121
1, 33615, Note_on_c, 9, 41, 100
1, 33674, Note_on_c, 9, 41, 0
1, 33839, Note_on_c, 9, 38, 0
1, 33839, Note_on_c, 9, 44, 0
1, 33840, Note_on_c, 9, 45, 86
1, 33840, Note_on_c, 9, 43, 98
1, 34079, Note_on_c, 9, 45, 0
1, 34079, Note_on_c, 9, 43, 0
1, 34080, Note_on_c, 9, 46, 127
1, 34080, Note_on_c, 9, 44, 78
1, 34095, Note_on_c, 9, 40, 109
1, 34319, Note_on_c, 9, 44, 0
1, 34319, Note_on_c, 9, 40, 0
1, 34320, Note_on_c, 9, 44, 127
1, 34559, Note_on_c, 9, 46, 0
1, 34559, Note_on_c, 9, 44, 0
1, 34560, Note_on_c, 9, 44, 75
1, 35039, Note_on_c, 9, 44, 0
1, 35040, Note_on_c, 9, 44, 94
1, 35040, Note_on_c, 9, 36, 94
1, 35519, Note_on_c, 9, 44, 0
1, 35519, Note_on_c, 9, 36, 0
1, 35520, Note_on_c, 9, 38, 121
1, 35520, Note_on_c, 9, 44, 121
1, 35999, Note_on_c, 9, 38, 0
1, 35999, Note_on_c, 9, 44, 0
1, 36000, Note_on_c, 9, 44, 79
1, 36479, Note_on_c, 9, 44, 0
1, 36480, Note_on_c, 9, 44, 76
1, 36480, Note_on_c, 9, 36, 104
1, 36959, Note_on_c, 9, 44, 0
1, 36959, Note_on_c, 9, 36, 0
1, 36960, Note_on_c, 9, 44, 75
1, 36960, Note_on_c, 9, 36, 109
1, 37439, Note_on_c, 9, 44, 0
1, 37439, Note_on_c, 9, 36, 0
1, 37440, Note_on_c, 9, 38, 121
1, 37440, Note_on_c, 9, 44, 121
1, 37919, Note_on_c, 9, 38, 0
1, 37919, Note_on_c, 9, 44, 0
1, 37920, Note_on_c, 9, 44, 74
1, 38399, Note_on_c, 9, 44, 0
1, 38400, Note_on_c, 9, 44, 109
1, 38400, Note_on_c, 9, 36, 109
1, 38879, Note_on_c, 9, 44, 0
1, 38879, Note_on_c, 9, 36, 0
1, 38880, Note_on_c, 9, 44, 109
1, 38880, Note_on_c, 9, 36, 109
1, 39359, Note_on_c, 9, 44, 0
1, 39359, Note_on_c, 9, 36, 0
1, 39360, Note_on_c, 9, 38, 120
1, 39360, Note_on_c, 9, 44, 120
1, 39839, Note_on_c, 9, 38, 0
1, 39839, Note_on_c, 9, 44, 0
1, 39840, Note_on_c, 9, 44, 74
1, 40319, Note_on_c, 9, 44, 0
1, 40320, Note_on_c, 9, 44, 74
1, 40350, Note_on_c, 9, 36, 104
1, 40409, Note_on_c, 9, 36, 0
1, 40799, Note_on_c, 9, 44, 0
1, 40800, Note_on_c, 9, 44, 76
1, 40830, Note_on_c, 9, 36, 109
1, 40889, Note_on_c, 9, 36, 0
1, 41279, Note_on_c, 9, 44, 0
1, 41280, Note_on_c, 9, 38, 120
1, 41280, Note_on_c, 9, 44, 120
1, 41759, Note_on_c, 9, 38, 0
1, 41759, Note_on_c, 9, 44, 0
1, 41760, Note_on_c, 9, 44, 76
1, 42239, Note_on_c, 9, 44, 0
1, 42240, Note_on_c, 9, 44, 110
1, 42240, Note_on_c, 9, 36, 110
1, 42719, Note_on_c, 9, 44, 0
1, 42719, Note_on_c, 9, 36, 0
1, 42720, Note_on_c, 9, 44, 75
1, 43199, Note_on_c, 9, 44, 0
1, 43200, Note_on_c, 9, 38, 120
1, 43200, Note_on_c, 9, 44, 120
1, 43679, Note_on_c, 9, 38, 0
1, 43679, Note_on_c, 9, 44, 0
1, 43680, Note_on_c, 9, 44, 73
1, 44159, Note_on_c, 9, 44, 0
1, 44160, Note_on_c, 9, 44, 110
1, 44160, Note_on_c, 9, 36, 110
1, 44639, Note_on_c, 9, 44, 0
1, 44639, Note_on_c, 9, 36, 0
1, 44640, Note_on_c, 9, 44, 108
1, 44640, Note_on_c, 9, 36, 108
1, 45119, Note_on_c, 9, 44, 0
1, 45119, Note_on_c, 9, 36, 0
1, 45120, Note_on_c, 9, 38, 120
1, 45120, Note_on_c, 9, 49, 115
1, 45120, Note_on_c, 9, 44, 120
1, 45599, Note_on_c, 9, 38, 0
1, 45599, Note_on_c, 9, 49, 0
1, 45599, Note_on_c, 9, 44, 0
1, 45600, Note_on_c, 9, 44, 80
1, 46079, Note_on_c, 9, 44, 0
1, 46080, Note_on_c, 9, 44, 109
1, 46080, Note_on_c, 9, 36, 109
1, 46559, Note_on_c, 9, 44, 0
1, 46559, Note_on_c, 9, 36, 0
1, 46560, Note_on_c, 9, 44, 80
1, 47039, Note_on_c, 9, 44, 0
1, 47040, Note_on_c, 9, 38, 120
1, 47040, Note_on_c, 9, 49, 109
1, 47040, Note_on_c, 9, 44, 120
1, 47519, Note_on_c, 9, 38, 0
1, 47519, Note_on_c, 9, 49, 0
1, 47519, Note_on_c, 9, 44, 0
1, 47520, Note_on_c, 9, 44, 79
1, 47999, Note_on_c, 9, 44, 0
1, 48000, Note_on_c, 9, 44, 114
1, 48000, Note_on_c, 9, 36, 114
1, 48479, Note_on_c, 9, 44, 0
1, 48479, Note_on_c, 9, 36, 0
1, 48480, Note_on_c, 9, 44, 111
1, 48480, Note_on_c, 9, 36, 111
1, 48959, Note_on_c, 9, 44, 0
1, 48959, Note_on_c, 9, 36, 0
1, 48960, Note_on_c, 9, 38, 120
1, 48960, Note_on_c, 9, 49, 109
1, 48960, Note_on_c, 9, 44, 120
1, 49439, Note_on_c, 9, 38, 0
1, 49439, Note_on_c, 9, 49, 0
1, 49439, Note_on_c, 9, 44, 0
1, 49440, Note_on_c, 9, 44, 79
1, 49919, Note_on_c, 9, 44, 0
1, 49920, Note_on_c, 9, 44, 111
1, 49920, Note_on_c, 9, 36, 111
1, 50399, Note_on_c, 9, 44, 0
1, 50399, Note_on_c, 9, 36, 0
1, 50400, Note_on_c, 9, 44, 79
1, 50879, Note_on_c, 9, 44, 0
1, 50880, Note_on_c, 9, 38, 121
1, 50880, Note_on_c, 9, 44, 121
1, 51359, Note_on_c, 9, 38, 0
1, 51359, Note_on_c, 9, 44, 0
1, 51360, Note_on_c, 9, 44, 79
1, 51839, Note_on_c, 9, 44, 0
1, 51840, Note_on_c, 9, 44, 107
1, 51840, Note_on_c, 9, 36, 107
1, 52319, Note_on_c, 9, 44, 0
1, 52319, Note_on_c, 9, 36, 0
1, 52320, Note_on_c, 9, 44, 107
1, 52320, Note_on_c, 9, 36, 107
1, 52799, Note_on_c, 9, 44, 0
1, 52799, Note_on_c, 9, 36, 0
1, 52800, Note_on_c, 9, 38, 121
1, 52800, Note_on_c, 9, 44, 121
1, 53279, Note_on_c, 9, 38, 0
1, 53279, Note_on_c, 9, 44, 0
1, 53280, Note_on_c, 9, 44, 75
1, 53759, Note_on_c, 9, 44, 0
1, 53760, Note_on_c, 9, 44, 75
1, 53760, Note_on_c, 9, 36, 109
1, 54239, Note_on_c, 9, 44, 0
1, 54239, Note_on_c, 9, 36, 0
1, 54240, Note_on_c, 9, 44, 76
1, 54719, Note_on_c, 9, 44, 0
1, 54720, Note_on_c, 9, 38, 121
1, 54720, Note_on_c, 9, 44, 121
1, 55199, Note_on_c, 9, 38, 0
1, 55199, Note_on_c, 9, 44, 0
1, 55200, Note_on_c, 9, 44, 78
1, 55679, Note_on_c, 9, 44, 0
1, 55680, Note_on_c, 9, 44, 110
1, 55680, Note_on_c, 9, 36, 110
1, 56159, Note_on_c, 9, 44, 0
1, 56159, Note_on_c, 9, 36, 0
1, 56160, Note_on_c, 9, 44, 109
1, 56160, Note_on_c, 9, 36, 109
1, 56639, Note_on_c, 9, 44, 0
1, 56639, Note_on_c, 9, 36, 0
1, 56640, Note_on_c, 9, 38, 121
1, 56640, Note_on_c, 9, 44, 121
1, 57119, Note_on_c, 9, 38, 0
1, 57119, Note_on_c, 9, 44, 0
1, 57120, Note_on_c, 9, 44, 80
1, 57120, Note_on_c, 9, 43, 98
1, 57360, Note_on_c, 9, 41, 98
1, 57599, Note_on_c, 9, 44, 0
1, 57599, Note_on_c, 9, 43, 0
1, 57599, Note_on_c, 9, 41, 0
1, 57600, Note_on_c, 9, 49, 115
1, 57600, Note_on_c, 9, 44, 114
1, 57600, Note_on_c, 9, 36, 114
1, 58079, Note_on_c, 9, 49, 0
1, 58079, Note_on_c, 9, 44, 0
1, 58079, Note_on_c, 9, 36, 0
1, 58080, Note_on_c, 9, 44, 81
1, 58559, Note_on_c, 9, 44, 0
1, 58560, Note_on_c, 9, 38, 121
1, 58560, Note_on_c, 9, 44, 121
1, 59039, Note_on_c, 9, 38, 0
1, 59039, Note_on_c, 9, 44, 0
1, 59040, Note_on_c, 9, 44, 79
1, 59519, Note_on_c, 9, 44, 0
1, 59520, Note_on_c, 9, 44, 113
1, 59520, Note_on_c, 9, 36, 113
1, 59999, Note_on_c, 9, 44, 0
1, 59999, Note_on_c, 9, 36, 0
1, 60000, Note_on_c, 9, 44, 112
1, 60000, Note_on_c, 9, 36, 112
1, 60479, Note_on_c, 9, 44, 0
1, 60479, Note_on_c, 9, 36, 0
1, 60480, Note_on_c, 9, 38, 121
1, 60480, Note_on_c, 9, 44, 121
1, 60959, Note_on_c, 9, 38, 0
1, 60959, Note_on_c, 9, 44, 0
1, 60960, Note_on_c, 9, 44, 78
1, 61439, Note_on_c, 9, 44, 0
1, 61440, Note_on_c, 9, 44, 80
1, 61440, Note_on_c, 9, 36, 80
1, 61919, Note_on_c, 9, 44, 0
1, 61919, Note_on_c, 9, 36, 0
1, 61920, Note_on_c, 9, 44, 80
1, 62399, Note_on_c, 9, 44, 0
1, 62400, Note_on_c, 9, 38, 121
1, 62400, Note_on_c, 9, 44, 121
1, 62879, Note_on_c, 9, 38, 0
1, 62879, Note_on_c, 9, 44, 0
1, 62880, Note_on_c, 9, 44, 80
1, 63359, Note_on_c, 9, 44, 0
1, 63360, Note_on_c, 9, 44, 80
1, 63390, Note_on_c, 9, 36, 112
1, 63449, Note_on_c, 9, 36, 0
1, 63839, Note_on_c, 9, 44, 0
1, 63840, Note_on_c, 9, 44, 111
1, 63840, Note_on_c, 9, 36, 111
1, 64319, Note_on_c, 9, 44, 0
1, 64319, Note_on_c, 9, 36, 0
1, 64320, Note_on_c, 9, 38, 121
1, 64320, Note_on_c, 9, 44, 121
1, 64799, Note_on_c, 9, 38, 0
1, 64799, Note_on_c, 9, 44, 0
1, 64800, Note_on_c, 9, 44, 82
1, 64919, Note_on_c, 9, 44, 0
1, 64920, Note_on_c, 9, 43, 86
1, 65040, Note_on_c, 9, 41, 115
1, 65279, Note_on_c, 9, 43, 0
1, 65279, Note_on_c, 9, 41, 0
1, 65280, Note_on_c, 9, 49, 109
1, 65280, Note_on_c, 9, 44, 112
1, 65280, Note_on_c, 9, 36, 112
1, 65759, Note_on_c, 9, 49, 0
1, 65759, Note_on_c, 9, 44, 0
1, 65759, Note_on_c, 9, 36, 0
1, 65760, Note_on_c, 9, 44, 81
1, 66239, Note_on_c, 9, 44, 0
1, 66240, Note_on_c, 9, 38, 121
1, 66240, Note_on_c, 9, 44, 121
1, 66719, Note_on_c, 9, 38, 0
1, 66719, Note_on_c, 9, 44, 0
1, 66720, Note_on_c, 9, 44, 74
1, 67199, Note_on_c, 9, 44, 0
1, 67200, Note_on_c, 9, 44, 108
1, 67200, Note_on_c, 9, 36, 108
1, 67679, Note_on_c, 9, 44, 0
1, 67679, Note_on_c, 9, 36, 0
1, 67680, Note_on_c, 9, 44, 108
1, 67680, Note_on_c, 9, 36, 108
1, 68159, Note_on_c, 9, 44, 0
1, 68159, Note_on_c, 9, 36, 0
1, 68160, Note_on_c, 9, 38, 121
1, 68160, Note_on_c, 9, 44, 121
1, 68639, Note_on_c, 9, 38, 0
1, 68639, Note_on_c, 9, 44, 0
1, 68640, Note_on_c, 9, 44, 73
1, 69119, Note_on_c, 9, 44, 0
1, 69120, Note_on_c, 9, 44, 111
1, 69120, Note_on_c, 9, 36, 92
1, 69599, Note_on_c, 9, 44, 0
1, 69599, Note_on_c, 9, 36, 0
1, 69600, Note_on_c, 9, 44, 75
1, 70079, Note_on_c, 9, 44, 0
1, 70080, Note_on_c, 9, 38, 121
1, 70080, Note_on_c, 9, 44, 121
1, 70559, Note_on_c, 9, 38, 0
1, 70559, Note_on_c, 9, 44, 0
1, 70560, Note_on_c, 9, 44, 76
1, 71039, Note_on_c, 9, 44, 0
1, 71040, Note_on_c, 9, 44, 111
1, 71040, Note_on_c, 9, 36, 101
1, 71519, Note_on_c, 9, 44, 0
1, 71519, Note_on_c, 9, 36, 0
1, 71520, Note_on_c, 9, 44, 74
1, 71999, Note_on_c, 9, 44, 0
1, 72000, Note_on_c, 9, 38, 121
1, 72000, Note_on_c, 9, 44, 121
1, 72479, Note_on_c, 9, 38, 0
1, 72479, Note_on_c, 9, 44, 0
1, 72480, Note_on_c, 9, 44, 71
1, 72959, Note_on_c, 9, 44, 0
1, 72960, Note_on_c, 9, 44, 118
1, 72960, Note_on_c, 9, 36, 106
1, 73439, Note_on_c, 9, 44, 0
1, 73439, Note_on_c, 9, 36, 0
1, 73440, Note_on_c, 9, 44, 79
1, 73919, Note_on_c, 9, 44, 0
1, 73920, Note_on_c, 9, 38, 121
1, 73920, Note_on_c, 9, 44, 121
1, 74399, Note_on_c, 9, 38, 0
1, 74399, Note_on_c, 9, 44, 0
1, 74400, Note_on_c, 9, 44, 76
1, 74879, Note_on_c, 9, 44, 0
1, 74880, Note_on_c, 9, 44, 107
1, 74880, Note_on_c, 9, 36, 107
1, 75359, Note_on_c, 9, 44, 0
1, 75359, Note_on_c, 9, 36, 0
1, 75360, Note_on_c, 9, 44, 78
1, 75839, Note_on_c, 9, 44, 0
1, 75840, Note_on_c, 9, 38, 121
1, 75840, Note_on_c, 9, 44, 121
1, 76319, Note_on_c, 9, 38, 0
1, 76319, Note_on_c, 9, 44, 0
1, 76320, Note_on_c, 9, 44, 73
1, 76799, Note_on_c, 9, 44, 0
1, 76800, Note_on_c, 9, 44, 108
1, 76800, Note_on_c, 9, 36, 92
1, 77279, Note_on_c, 9, 44, 0
1, 77279, Note_on_c, 9, 36, 0
1, 77280, Note_on_c, 9, 44, 108
1, 77759, Note_on_c, 9, 44, 0
1, 77760, Note_on_c, 9, 38, 121
1, 77760, Note_on_c, 9, 44, 121
1, 78239, Note_on_c, 9, 38, 0
1, 78239, Note_on_c, 9, 44, 0
1, 78240, Note_on_c, 9, 44, 73
1, 78719, Note_on_c, 9, 44, 0
1, 78720, Note_on_c, 9, 44, 111
1, 78720, Note_on_c, 9, 36, 111
1, 79199, Note_on_c, 9, 44, 0
1, 79199, Note_on_c, 9, 36, 0
1, 79200, Note_on_c, 9, 44, 75
1, 79679, Note_on_c, 9, 44, 0
1, 79680, Note_on_c, 9, 38, 121
1, 79680, Note_on_c, 9, 44, 121
1, 80159, Note_on_c, 9, 38, 0
1, 80159, Note_on_c, 9, 44, 0
1, 80160, Note_on_c, 9, 41, 80
1, 80160, Note_on_c, 9, 44, 76
1, 80399, Note_on_c, 9, 41, 0
1, 80400, Note_on_c, 9, 40, 115
1, 80639, Note_on_c, 9, 44, 0
1, 80639, Note_on_c, 9, 40, 0
1, 80640, Note_on_c, 9, 49, 115
1, 80640, Note_on_c, 9, 44, 111
1, 80640, Note_on_c, 9, 36, 111
1, 81119, Note_on_c, 9, 49, 0
1, 81119, Note_on_c, 9, 44, 0
1, 81119, Note_on_c, 9, 36, 0
1, 81120, Note_on_c, 9, 44, 74
1, 81599, Note_on_c, 9, 44, 0
1, 81600, Note_on_c, 9, 38, 121
1, 81600, Note_on_c, 9, 44, 121
1, 82079, Note_on_c, 9, 38, 0
1, 82079, Note_on_c, 9, 44, 0
1, 82080, Note_on_c, 9, 44, 71
1, 82559, Note_on_c, 9, 44, 0
1, 82560, Note_on_c, 9, 44, 118
1, 82560, Note_on_c, 9, 36, 118
1, 83039, Note_on_c, 9, 44, 0
1, 83039, Note_on_c, 9, 36, 0
1, 83040, Note_on_c, 9, 44, 79
1, 83519, Note_on_c, 9, 44, 0
1, 83520, Note_on_c, 9, 38, 121
1, 83520, Note_on_c, 9, 44, 121
1, 83999, Note_on_c, 9, 38, 0
1, 83999, Note_on_c, 9, 44, 0
1, 84000, Note_on_c, 9, 44, 76
1, 84479, Note_on_c, 9, 44, 0
1, 84480, Note_on_c, 9, 44, 107
1, 84480, Note_on_c, 9, 36, 92
1, 84959, Note_on_c, 9, 44, 0
1, 84959, Note_on_c, 9, 36, 0
1, 84960, Note_on_c, 9, 44, 78
1, 85439, Note_on_c, 9, 44, 0
1, 85440, Note_on_c, 9, 38, 121
1, 85440, Note_on_c, 9, 44, 121
1, 85919, Note_on_c, 9, 38, 0
1, 85919, Note_on_c, 9, 44, 0
1, 85920, Note_on_c, 9, 44, 73
1, 86399, Note_on_c, 9, 44, 0
1, 86400, Note_on_c, 9, 44, 77
1, 86400, Note_on_c, 9, 36, 62
1, 86879, Note_on_c, 9, 44, 0
1, 86879, Note_on_c, 9, 36, 0
1, 86880, Note_on_c, 9, 44, 80
1, 87359, Note_on_c, 9, 44, 0
1, 87360, Note_on_c, 9, 38, 121
1, 87360, Note_on_c, 9, 44, 121
1, 87839, Note_on_c, 9, 38, 0
1, 87839, Note_on_c, 9, 44, 0
1, 87840, Note_on_c, 9, 44, 80
1, 88319, Note_on_c, 9, 44, 0
1, 88320, Note_on_c, 9, 44, 113
1, 88320, Note_on_c, 9, 36, 113
1, 88799, Note_on_c, 9, 44, 0
1, 88799, Note_on_c, 9, 36, 0
1, 88800, Note_on_c, 9, 44, 80
1, 89279, Note_on_c, 9, 44, 0
1, 89280, Note_on_c, 9, 38, 121
1, 89280, Note_on_c, 9, 44, 121
1, 89759, Note_on_c, 9, 38, 0
1, 89759, Note_on_c, 9, 44, 0
1, 89760, Note_on_c, 9, 44, 85
1, 90239, Note_on_c, 9, 44, 0
1, 90240, Note_on_c, 9, 44, 112
1, 90240, Note_on_c, 9, 36, 112
1, 90719, Note_on_c, 9, 44, 0
1, 90719, Note_on_c, 9, 36, 0
1, 90720, Note_on_c, 9, 44, 78
1, 91199, Note_on_c, 9, 44, 0
1, 91200, Note_on_c, 9, 38, 109
1, 91200, Note_on_c, 9, 44, 109
1, 91679, Note_on_c, 9, 38, 0
1, 91679, Note_on_c, 9, 44, 0
1, 91680, Note_on_c, 9, 44, 78
1, 92159, Note_on_c, 9, 44, 0
1, 92160, Note_on_c, 9, 44, 115
1, 92160, Note_on_c, 9, 36, 115
1, 92639, Note_on_c, 9, 44, 0
1, 92639, Note_on_c, 9, 36, 0
1, 92640, Note_on_c, 9, 44, 79
1, 93119, Note_on_c, 9, 44, 0
1, 93120, Note_on_c, 9, 38, 121
1, 93120, Note_on_c, 9, 44, 121
1, 93599, Note_on_c, 9, 38, 0
1, 93599, Note_on_c, 9, 44, 0
1, 93600, Note_on_c, 9, 44, 76
1, 94079, Note_on_c, 9, 44, 0
1, 94080, Note_on_c, 9, 44, 107
1, 94080, Note_on_c, 9, 36, 107
1, 94559, Note_on_c, 9, 44, 0
1, 94559, Note_on_c, 9, 36, 0
1, 94560, Note_on_c, 9, 44, 78
1, 95039, Note_on_c, 9, 44, 0
1, 95040, Note_on_c, 9, 38, 121
1, 95040, Note_on_c, 9, 44, 121
1, 95519, Note_on_c, 9, 38, 0
1, 95519, Note_on_c, 9, 44, 0
1, 95520, Note_on_c, 9, 45, 80
1, 95520, Note_on_c, 9, 44, 77
1, 95679, Note_on_c, 9, 44, 0
1, 95680, Note_on_c, 9, 43, 86
1, 95839, Note_on_c, 9, 45, 0
1, 95840, Note_on_c, 9, 41, 104
1, 95999, Note_on_c, 9, 43, 0
1, 95999, Note_on_c, 9, 41, 0
1, 96000, Note_on_c, 9, 49, 115
1, 96000, Note_on_c, 9, 44, 111
1, 96000, Note_on_c, 9, 36, 111
1, 96479, Note_on_c, 9, 49, 0
1, 96479, Note_on_c, 9, 44, 0
1, 96479, Note_on_c, 9, 36, 0
1, 96480, Note_on_c, 9, 44, 78
1, 96959, Note_on_c, 9, 44, 0
1, 96960, Note_on_c, 9, 38, 121
1, 96960, Note_on_c, 9, 44, 121
1, 97439, Note_on_c, 9, 38, 0
1, 97439, Note_on_c, 9, 44, 0
1, 97440, Note_on_c, 9, 44, 79
1, 97919, Note_on_c, 9, 44, 0
1, 97920, Note_on_c, 9, 44, 80
1, 97950, Note_on_c, 9, 36, 115
1, 98009, Note_on_c, 9, 36, 0
1, 98399, Note_on_c, 9, 44, 0
1, 98400, Note_on_c, 9, 44, 81
1, 98879, Note_on_c, 9, 44, 0
1, 98880, Note_on_c, 9, 38, 121
1, 98880, Note_on_c, 9, 44, 121
1, 99359, Note_on_c, 9, 38, 0
1, 99359, Note_on_c, 9, 44, 0
1, 99360, Note_on_c, 9, 44, 73
1, 99839, Note_on_c, 9, 44, 0
1, 99840, Note_on_c, 9, 44, 114
1, 99840, Note_on_c, 9, 36, 114
1, 100319, Note_on_c, 9, 44, 0
1, 100319, Note_on_c, 9, 36, 0
1, 100320, Note_on_c, 9, 44, 73
1, 100799, Note_on_c, 9, 44, 0
1, 100800, Note_on_c, 9, 38, 121
1, 100800, Note_on_c, 9, 44, 121
1, 101279, Note_on_c, 9, 38, 0
1, 101279, Note_on_c, 9, 44, 0
1, 101280, Note_on_c, 9, 44, 79
1, 101759, Note_on_c, 9, 44, 0
1, 101760, Note_on_c, 9, 44, 112
1, 101760, Note_on_c, 9, 36, 112
1, 102239, Note_on_c, 9, 44, 0
1, 102239, Note_on_c, 9, 36, 0
1, 102240, Note_on_c, 9, 44, 113
1, 102240, Note_on_c, 9, 36, 113
1, 102719, Note_on_c, 9, 44, 0
1, 102719, Note_on_c, 9, 36, 0
1, 102720, Note_on_c, 9, 38, 121
1, 102720, Note_on_c, 9, 44, 121
1, 103199, Note_on_c, 9, 38, 0
1, 103199, Note_on_c, 9, 44, 0
1, 103200, Note_on_c, 9, 44, 77
1, 103679, Note_on_c, 9, 44, 0
1, 103680, Note_on_c, 9, 44, 115
1, 103680, Note_on_c, 9, 36, 115
1, 104159, Note_on_c, 9, 44, 0
1, 104159, Note_on_c, 9, 36, 0
1, 104160, Note_on_c, 9, 44, 76
1, 104639, Note_on_c, 9, 44, 0
1, 104640, Note_on_c, 9, 38, 115
1, 104640, Note_on_c, 9, 49, 98
1, 104640, Note_on_c, 9, 44, 115
1, 105119, Note_on_c, 9, 38, 0
1, 105119, Note_on_c, 9, 49, 0
1, 105119, Note_on_c, 9, 44, 0
1, 105120, Note_on_c, 9, 44, 75
1, 105599, Note_on_c, 9, 44, 0
1, 105600, Note_on_c, 9, 44, 111
1, 105600, Note_on_c, 9, 36, 111
1, 106079, Note_on_c, 9, 44, 0
1, 106079, Note_on_c, 9, 36, 0
1, 106080, Note_on_c, 9, 44, 113
1, 106080, Note_on_c, 9, 36, 113
1, 106440, Note_on_c, 9, 57, 104
1, 106559, Note_on_c, 9, 44, 0
1, 106559, Note_on_c, 9, 36, 0
1, 106559, Note_on_c, 9, 57, 0
1, 106560, Note_on_c, 9, 38, 121
1, 106560, Note_on_c, 9, 49, 70
1, 106560, Note_on_c, 9, 44, 121
1, 107039, Note_on_c, 9, 38, 0
1, 107039, Note_on_c, 9, 49, 0
1, 107039, Note_on_c, 9, 44, 0
1, 107040, Note_on_c, 9, 44, 77
1, 107519, Note_on_c, 9, 44, 0
1, 107520, Note_on_c, 9, 44, 113
1, 107520, Note_on_c, 9, 36, 113
1, 107999, Note_on_c, 9, 44, 0
1, 107999, Note_on_c, 9, 36, 0
1, 108000, Note_on_c, 9, 44, 74
1, 108479, Note_on_c, 9, 44, 0
1, 108480, Note_on_c, 9, 38, 121
1, 108480, Note_on_c, 9, 49, 109
1, 108480, Note_on_c, 9, 44, 121
1, 108959, Note_on_c, 9, 38, 0
1, 108959, Note_on_c, 9, 49, 0
1, 108959, Note_on_c, 9, 44, 0
1, 108960, Note_on_c, 9, 44, 80
1, 109439, Note_on_c, 9, 44, 0
1, 109440, Note_on_c, 9, 44, 113
1, 109440, Note_on_c, 9, 36, 113
1, 109919, Note_on_c, 9, 44, 0
1, 109919, Note_on_c, 9, 36, 0
1, 109920, Note_on_c, 9, 44, 113
1, 109920, Note_on_c, 9, 36, 113
1, 110399, Note_on_c, 9, 44, 0
1, 110399, Note_on_c, 9, 36, 0
1, 110400, Note_on_c, 9, 38, 121
1, 110400, Note_on_c, 9, 52, 127
1, 110400, Note_on_c, 9, 44, 121
1, 110879, Note_on_c, 9, 38, 0
1, 110879, Note_on_c, 9, 52, 0
1, 110879, Note_on_c, 9, 44, 0
1, 110880, Note_on_c, 9, 44, 78
1, 111359, Note_on_c, 9, 44, 0
1, 111360, Note_on_c, 9, 44, 77
1, 111360, Note_on_c, 9, 36, 68
1, 111839, Note_on_c, 9, 44, 0
1, 111839, Note_on_c, 9, 36, 0
1, 111840, Note_on_c, 9, 44, 77
1, 112319, Note_on_c, 9, 44, 0
1, 112320, Note_on_c, 9, 38, 121
1, 112320, Note_on_c, 9, 44, 121
1, 112799, Note_on_c, 9, 38, 0
1, 112799, Note_on_c, 9, 44, 0
1, 112800, Note_on_c, 9, 44, 79
1, 113279, Note_on_c, 9, 44, 0
1, 113280, Note_on_c, 9, 44, 78
1, 113310, Note_on_c, 9, 36, 116
1, 113369, Note_on_c, 9, 36, 0
1, 113759, Note_on_c, 9, 44, 0
1, 113760, Note_on_c, 9, 44, 114
1, 113760, Note_on_c, 9, 36, 114
1, 114239, Note_on_c, 9, 44, 0
1, 114239, Note_on_c, 9, 36, 0
1, 114240, Note_on_c, 9, 38, 121
1, 114240, Note_on_c, 9, 44, 121
1, 114719, Note_on_c, 9, 38, 0
1, 114719, Note_on_c, 9, 44, 0
1, 114720, Note_on_c, 9, 44, 80
1, 115199, Note_on_c, 9, 44, 0
1, 115200, Note_on_c, 9, 44, 115
1, 115200, Note_on_c, 9, 36, 115
1, 115679, Note_on_c, 9, 44, 0
1, 115679, Note_on_c, 9, 36, 0
1, 115680, Note_on_c, 9, 44, 78
1, 116159, Note_on_c, 9, 44, 0
1, 116160, Note_on_c, 9, 38, 121
1, 116160, Note_on_c, 9, 44, 121
1, 116639, Note_on_c, 9, 38, 0
1, 116639, Note_on_c, 9, 44, 0
1, 116640, Note_on_c, 9, 44, 84
1, 117119, Note_on_c, 9, 44, 0
1, 117120, Note_on_c, 9, 44, 114
1, 117120, Note_on_c, 9, 36, 114
1, 117599, Note_on_c, 9, 44, 0
1, 117599, Note_on_c, 9, 36, 0
1, 117600, Note_on_c, 9, 44, 116
1, 117600, Note_on_c, 9, 36, 116
1, 118079, Note_on_c, 9, 44, 0
1, 118079, Note_on_c, 9, 36, 0
1, 118080, Note_on_c, 9, 38, 121
1, 118080, Note_on_c, 9, 44, 121
1, 118080, Note_on_c, 9, 43, 98
1, 118319, Note_on_c, 9, 38, 0
1, 118320, Note_on_c, 9, 41, 121
1, 118559, Note_on_c, 9, 44, 0
1, 118559, Note_on_c, 9, 43, 0
1, 118559, Note_on_c, 9, 41, 0
1, 118560, Note_on_c, 9, 40, 98
1, 118560, Note_on_c, 9, 44, 83
1, 119039, Note_on_c, 9, 40, 0
1, 119039, Note_on_c, 9, 44, 0
1, 119040, Note_on_c, 9, 49, 104
1, 119040, Note_on_c, 9, 44, 115
1, 119040, Note_on_c, 9, 36, 115
1, 119519, Note_on_c, 9, 49, 0
1, 119519, Note_on_c, 9, 44, 0
1, 119519, Note_on_c, 9, 36, 0
1, 119520, Note_on_c, 9, 44, 77
1, 119999, Note_on_c, 9, 44, 0
1, 120000, Note_on_c, 9, 38, 121
1, 120000, Note_on_c, 9, 44, 121
1, 120479, Note_on_c, 9, 38, 0
1, 120479, Note_on_c, 9, 44, 0
1, 120480, Note_on_c, 9, 44, 71
1, 120959, Note_on_c, 9, 44, 0
1, 120960, Note_on_c, 9, 44, 69
1, 120960, Note_on_c, 9, 36, 111
1, 121439, Note_on_c, 9, 44, 0
1, 121439, Note_on_c, 9, 36, 0
1, 121440, Note_on_c, 9, 44, 72
1, 121919, Note_on_c, 9, 44, 0
1, 121920, Note_on_c, 9, 38, 121
1, 121920, Note_on_c, 9, 44, 121
1, 122399, Note_on_c, 9, 38, 0
1, 122399, Note_on_c, 9, 44, 0
1, 122400, Note_on_c, 9, 44, 67
1, 122879, Note_on_c, 9, 44, 0
1, 122880, Note_on_c, 9, 44, 113
1, 122880, Note_on_c, 9, 36, 113
1, 123359, Note_on_c, 9, 44, 0
1, 123359, Note_on_c, 9, 36, 0
1, 123360, Note_on_c, 9, 44, 66
1, 123839, Note_on_c, 9, 44, 0
1, 123840, Note_on_c, 9, 38, 121
1, 123840, Note_on_c, 9, 44, 121
1, 124319, Note_on_c, 9, 38, 0
1, 124319, Note_on_c, 9, 44, 0
1, 124320, Note_on_c, 9, 44, 66
1, 124799, Note_on_c, 9, 44, 0
1, 124800, Note_on_c, 9, 44, 113
1, 124800, Note_on_c, 9, 36, 113
1, 125279, Note_on_c, 9, 44, 0
1, 125279, Note_on_c, 9, 36, 0
1, 125280, Note_on_c, 9, 44, 64
1, 125759, Note_on_c, 9, 44, 0
1, 125760, Note_on_c, 9, 38, 121
1, 125760, Note_on_c, 9, 44, 121
1, 126239, Note_on_c, 9, 38, 0
1, 126239, Note_on_c, 9, 44, 0
1, 126240, Note_on_c, 9, 44, 63
1, 126719, Note_on_c, 9, 44, 0
1, 126720, Note_on_c, 9, 38, 92
1, 126720, Note_on_c, 9, 49, 115
1, 126720, Note_on_c, 9, 44, 111
1, 126720, Note_on_c, 9, 36, 111
1, 127199, Note_on_c, 9, 38, 0
1, 127199, Note_on_c, 9, 49, 0
1, 127199, Note_on_c, 9, 44, 0
1, 127199, Note_on_c, 9, 36, 0
1, 127200, Note_on_c, 9, 44, 62
1, 127679, Note_on_c, 9, 44, 0
1, 127680, Note_on_c, 9, 38, 121
1, 127680, Note_on_c, 9, 44, 121
1, 128159, Note_on_c, 9, 38, 0
1, 128159, Note_on_c, 9, 44, 0
1, 128160, Note_on_c, 9, 44, 62
1, 128639, Note_on_c, 9, 44, 0
1, 128640, Note_on_c, 9, 44, 70
1, 128670, Note_on_c, 9, 36, 113
1, 128729, Note_on_c, 9, 36, 0
1, 129119, Note_on_c, 9, 44, 0
1, 129120, Note_on_c, 9, 44, 62
1, 129599, Note_on_c, 9, 44, 0
1, 129600, Note_on_c, 9, 38, 121
1, 129600, Note_on_c, 9, 44, 121
1, 130079, Note_on_c, 9, 38, 0
1, 130079, Note_on_c, 9, 44, 0
1, 130080, Note_on_c, 9, 44, 66
1, 130559, Note_on_c, 9, 44, 0
1, 130560, Note_on_c, 9, 44, 63
1, 130590, Note_on_c, 9, 36, 110
1, 130649, Note_on_c, 9, 36, 0
1, 131039, Note_on_c, 9, 44, 0
1, 131040, Note_on_c, 9, 44, 64
1, 131519, Note_on_c, 9, 44, 0
1, 131520, Note_on_c, 9, 38, 121
1, 131520, Note_on_c, 9, 44, 121
1, 131999, Note_on_c, 9, 38, 0
1, 131999, Note_on_c, 9, 44, 0
1, 132000, Note_on_c, 9, 44, 59
1, 132479, Note_on_c, 9, 44, 0
1, 132480, Note_on_c, 9, 44, 58
1, 132510, Note_on_c, 9, 36, 113
1, 132569, Note_on_c, 9, 36, 0
1, 132959, Note_on_c, 9, 44, 0
1, 132960, Note_on_c, 9, 44, 61
1, 133439, Note_on_c, 9, 44, 0
1, 133440, Note_on_c, 9, 38, 121
1, 133440, Note_on_c, 9, 44, 121
1, 133919, Note_on_c, 9, 38, 0
1, 133919, Note_on_c, 9, 44, 0
1, 133920, Note_on_c, 9, 44, 64
1, 134399, Note_on_c, 9, 44, 0
1, 134400, Note_on_c, 9, 44, 107
1, 134400, Note_on_c, 9, 36, 107
1, 134879, Note_on_c, 9, 44, 0
1, 134879, Note_on_c, 9, 36, 0
1, 134880, Note_on_c, 9, 44, 61
1, 135359, Note_on_c, 9, 44, 0
1, 135360, Note_on_c, 9, 38, 121
1, 135360, Note_on_c, 9, 44, 121
1, 135839, Note_on_c, 9, 38, 0
1, 135839, Note_on_c, 9, 44, 0
1, 135840, Note_on_c, 9, 44, 66
1, 136319, Note_on_c, 9, 44, 0
1, 136320, Note_on_c, 9, 44, 102
1, 136320, Note_on_c, 9, 36, 102
1, 136799, Note_on_c, 9, 44, 0
1, 136799, Note_on_c, 9, 36, 0
1, 136800, Note_on_c, 9, 44, 69
1, 137279, Note_on_c, 9, 44, 0
1, 137280, Note_on_c, 9, 38, 121
1, 137280, Note_on_c, 9, 44, 121
1, 137759, Note_on_c, 9, 38, 0
1, 137759, Note_on_c, 9, 44, 0
1, 137760, Note_on_c, 9, 44, 65
1, 138239, Note_on_c, 9, 44, 0
1, 138240, Note_on_c, 9, 44, 104
1, 138240, Note_on_c, 9, 36, 104
1, 138719, Note_on_c, 9, 44, 0
1, 138719, Note_on_c, 9, 36, 0
1, 138720, Note_on_c, 9, 44, 67
1, 139199, Note_on_c, 9, 44, 0
1, 139200, Note_on_c, 9, 38, 118
1, 139200, Note_on_c, 9, 44, 118
1, 139679, Note_on_c, 9, 38, 0
1, 139679, Note_on_c, 9, 44, 0
1, 139680, Note_on_c, 9, 44, 69
1, 140159, Note_on_c, 9, 44, 0
1, 140160, Note_on_c, 9, 44, 112
1, 140160, Note_on_c, 9, 36, 112
1, 140639, Note_on_c, 9, 44, 0
1, 140639, Note_on_c, 9, 36, 0
1, 140640, Note_on_c, 9, 44, 108
1, 140640, Note_on_c, 9, 36, 108
1, 141119, Note_on_c, 9, 44, 0
1, 141119, Note_on_c, 9, 36, 0
1, 141120, Note_on_c, 9, 38, 121
1, 141120, Note_on_c, 9, 44, 121
1, 141120, Note_on_c, 9, 43, 115
1, 141359, Note_on_c, 9, 38, 0
1, 141360, Note_on_c, 9, 41, 115
1, 141599, Note_on_c, 9, 44, 0
1, 141599, Note_on_c, 9, 43, 0
1, 141599, Note_on_c, 9, 41, 0
1, 141600, Note_on_c, 9, 40, 115
1, 141600, Note_on_c, 9, 44, 65
1, 142079, Note_on_c, 9, 40, 0
1, 142079, Note_on_c, 9, 44, 0
1, 142080, Note_on_c, 9, 49, 98
1, 142080, Note_on_c, 9, 44, 64
1, 142110, Note_on_c, 9, 36, 111
1, 142169, Note_on_c, 9, 36, 0
1, 142559, Note_on_c, 9, 49, 0
1, 142559, Note_on_c, 9, 44, 0
1, 142560, Note_on_c, 9, 44, 63
1, 143039, Note_on_c, 9, 44, 0
1, 143040, Note_on_c, 9, 38, 121
1, 143040, Note_on_c, 9, 44, 121
1, 143519, Note_on_c, 9, 38, 0
1, 143519, Note_on_c, 9, 44, 0
1, 143520, Note_on_c, 9, 44, 64
1, 143999, Note_on_c, 9, 44, 0
1, 144000, Note_on_c, 9, 44, 63
1, 144030, Note_on_c, 9, 36, 107
1, 144089, Note_on_c, 9, 36, 0
1, 144479, Note_on_c, 9, 44, 0
1, 144480, Note_on_c, 9, 44, 64
1, 144959, Note_on_c, 9, 44, 0
1, 144960, Note_on_c, 9, 38, 118
1, 144960, Note_on_c, 9, 44, 118
1, 145439, Note_on_c, 9, 38, 0
1, 145439, Note_on_c, 9, 44, 0
1, 145440, Note_on_c, 9, 44, 70
1, 145919, Note_on_c, 9, 44, 0
1, 145920, Note_on_c, 9, 44, 108
1, 145920, Note_on_c, 9, 36, 108
1, 146399, Note_on_c, 9, 44, 0
1, 146399, Note_on_c, 9, 36, 0
1, 146400, Note_on_c, 9, 44, 68
1, 146879, Note_on_c, 9, 44, 0
1, 146880, Note_on_c, 9, 38, 121
1, 146880, Note_on_c, 9, 44, 121
1, 147359, Note_on_c, 9, 38, 0
1, 147359, Note_on_c, 9, 44, 0
1, 147360, Note_on_c, 9, 44, 65
1, 147839, Note_on_c, 9, 44, 0
1, 147840, Note_on_c, 9, 44, 64
1, 147870, Note_on_c, 9, 36, 107
1, 147929, Note_on_c, 9, 36, 0
1, 148319, Note_on_c, 9, 44, 0
1, 148320, Note_on_c, 9, 44, 64
1, 148799, Note_on_c, 9, 44, 0
1, 148800, Note_on_c, 9, 38, 121
1, 148800, Note_on_c, 9, 44, 121
1, 149279, Note_on_c, 9, 38, 0
1, 149279, Note_on_c, 9, 44, 0
1, 149280, Note_on_c, 9, 44, 63
1, 149759, Note_on_c, 9, 44, 0
1, 149760, Note_on_c, 9, 44, 114
1, 149760, Note_on_c, 9, 36, 114
1, 150239, Note_on_c, 9, 44, 0
1, 150239, Note_on_c, 9, 36, 0
1, 150240, Note_on_c, 9, 44, 65
1, 150719, Note_on_c, 9, 44, 0
1, 150720, Note_on_c, 9, 38, 121
1, 150720, Note_on_c, 9, 44, 121
1, 151199, Note_on_c, 9, 38, 0
1, 151199, Note_on_c, 9, 44, 0
1, 151200, Note_on_c, 9, 44, 63
1, 151679, Note_on_c, 9, 44, 0
1, 151680, Note_on_c, 9, 44, 108
1, 151680, Note_on_c, 9, 36, 108
1, 152159, Note_on_c, 9, 44, 0
1, 152159, Note_on_c, 9, 36, 0
1, 152160, Note_on_c, 9, 44, 64
1, 152639, Note_on_c, 9, 44, 0
1, 152640, Note_on_c, 9, 38, 121
1, 152640, Note_on_c, 9, 44, 121
1, 153119, Note_on_c, 9, 38, 0
1, 153119, Note_on_c, 9, 44, 0
1, 153120, Note_on_c, 9, 44, 64
1, 153599, Note_on_c, 9, 44, 0
1, 153600, Note_on_c, 9, 44, 109
1, 153600, Note_on_c, 9, 36, 109
1, 154079, Note_on_c, 9, 44, 0
1, 154079, Note_on_c, 9, 36, 0
1, 154080, Note_on_c, 9, 44, 65
1, 154559, Note_on_c, 9, 44, 0
1, 154560, Note_on_c, 9, 38, 121
1, 154560, Note_on_c, 9, 44, 121
1, 155039, Note_on_c, 9, 38, 0
1, 155039, Note_on_c, 9, 44, 0
1, 155040, Note_on_c, 9, 44, 67
1, 155519, Note_on_c, 9, 44, 0
1, 155520, Note_on_c, 9, 44, 111
1, 155520, Note_on_c, 9, 36, 111
1, 155999, Note_on_c, 9, 44, 0
1, 155999, Note_on_c, 9, 36, 0
1, 156000, Note_on_c, 9, 44, 66
1, 156000, Note_on_c, 9, 43, 109
1, 156240, Note_on_c, 9, 41, 121
1, 156479, Note_on_c, 9, 44, 0
1, 156479, Note_on_c, 9, 43, 0
1, 156479, Note_on_c, 9, 41, 0
1, 156480, Note_on_c, 9, 38, 121
1, 156480, Note_on_c, 9, 44, 121
1, 156719, Note_on_c, 9, 38, 0
1, 156720, Note_on_c, 9, 45, 109
1, 156959, Note_on_c, 9, 44, 0
1, 156959, Note_on_c, 9, 45, 0
1, 156960, Note_on_c, 9, 40, 121
1, 156960, Note_on_c, 9, 44, 69
1, 157439, Note_on_c, 9, 40, 0
1, 157439, Note_on_c, 9, 44, 0
1, 157440, Note_on_c, 9, 46, 115
1, 157440, Note_on_c, 9, 49, 127
1, 157440, Note_on_c, 9, 44, 112
1, 157440, Note_on_c, 9, 36, 112
1, 157919, Note_on_c, 9, 46, 0
1, 157919, Note_on_c, 9, 49, 0
1, 157919, Note_on_c, 9, 44, 0
1, 157919, Note_on_c, 9, 36, 0
1, 157920, Note_on_c, 9, 44, 70
1, 158399, Note_on_c, 9, 44, 0
1, 158400, Note_on_c, 9, 38, 121
1, 158400, Note_on_c, 9, 44, 121
1, 158879, Note_on_c, 9, 38, 0
1, 158879, Note_on_c, 9, 44, 0
1, 158880, Note_on_c, 9, 44, 68
1, 159359, Note_on_c, 9, 44, 0
1, 159360, Note_on_c, 9, 44, 108
1, 159360, Note_on_c, 9, 36, 108
1, 159839, Note_on_c, 9, 44, 0
1, 159839, Note_on_c, 9, 36, 0
1, 159840, Note_on_c, 9, 44, 108
1, 159840, Note_on_c, 9, 36, 108
1, 160319, Note_on_c, 9, 44, 0
1, 160319, Note_on_c, 9, 36, 0
1, 160320, Note_on_c, 9, 38, 121
1, 160320, Note_on_c, 9, 44, 121
1, 160799, Note_on_c, 9, 38, 0
1, 160799, Note_on_c, 9, 44, 0
1, 160800, Note_on_c, 9, 44, 71
1, 161279, Note_on_c, 9, 44, 0
1, 161280, Note_on_c, 9, 44, 110
1, 161280, Note_on_c, 9, 36, 110
1, 161759, Note_on_c, 9, 44, 0
1, 161759, Note_on_c, 9, 36, 0
1, 161760, Note_on_c, 9, 44, 74
1, 162239, Note_on_c, 9, 44, 0
1, 162240, Note_on_c, 9, 38, 121
1, 162240, Note_on_c, 9, 44, 121
1, 162719, Note_on_c, 9, 38, 0
1, 162719, Note_on_c, 9, 44, 0
1, 162720, Note_on_c, 9, 44, 73
1, 163199, Note_on_c, 9, 44, 0
1, 163200, Note_on_c, 9, 44, 116
1, 163200, Note_on_c, 9, 36, 116
1, 163679, Note_on_c, 9, 44, 0
1, 163679, Note_on_c, 9, 36, 0
1, 163680, Note_on_c, 9, 44, 114
1, 163680, Note_on_c, 9, 36, 114
1, 164159, Note_on_c, 9, 44, 0
1, 164159, Note_on_c, 9, 36, 0
1, 164160, Note_on_c, 9, 38, 121
1, 164160, Note_on_c, 9, 44, 121
1, 164639, Note_on_c, 9, 38, 0
1, 164639, Note_on_c, 9, 44, 0
1, 164640, Note_on_c, 9, 44, 121
1, 165119, Note_on_c, 9, 44, 0
1, 165120, Note_on_c, 9, 44, 114
1, 165120, Note_on_c, 9, 36, 114
1, 165599, Note_on_c, 9, 44, 0
1, 165599, Note_on_c, 9, 36, 0
1, 165600, Note_on_c, 9, 44, 71
1, 166079, Note_on_c, 9, 44, 0
1, 166080, Note_on_c, 9, 38, 121
1, 166080, Note_on_c, 9, 44, 121
1, 166559, Note_on_c, 9, 38, 0
1, 166559, Note_on_c, 9, 44, 0
1, 166560, Note_on_c, 9, 44, 73
1, 167039, Note_on_c, 9, 44, 0
1, 167040, Note_on_c, 9, 44, 75
1, 167070, Note_on_c, 9, 36, 117
1, 167129, Note_on_c, 9, 36, 0
1, 167519, Note_on_c, 9, 44, 0
1, 167520, Note_on_c, 9, 44, 114
1, 167520, Note_on_c, 9, 36, 114
1, 167999, Note_on_c, 9, 44, 0
1, 167999, Note_on_c, 9, 36, 0
1, 168000, Note_on_c, 9, 38, 121
1, 168000, Note_on_c, 9, 44, 121
1, 168479, Note_on_c, 9, 38, 0
1, 168479, Note_on_c, 9, 44, 0
1, 168480, Note_on_c, 9, 44, 70
1, 168959, Note_on_c, 9, 44, 0
1, 168960, Note_on_c, 9, 44, 112
1, 168960, Note_on_c, 9, 36, 112
1, 169439, Note_on_c, 9, 44, 0
1, 169439, Note_on_c, 9, 36, 0
1, 169440, Note_on_c, 9, 44, 71
1, 169919, Note_on_c, 9, 44, 0
1, 169920, Note_on_c, 9, 38, 121
1, 169920, Note_on_c, 9, 44, 121
1, 170399, Note_on_c, 9, 38, 0
1, 170399, Note_on_c, 9, 44, 0
1, 170400, Note_on_c, 9, 44, 65
1, 170879, Note_on_c, 9, 44, 0
1, 170880, Note_on_c, 9, 44, 110
1, 170880, Note_on_c, 9, 36, 110
1, 171359, Note_on_c, 9, 44, 0
1, 171359, Note_on_c, 9, 36, 0
1, 171360, Note_on_c, 9, 44, 111
1, 171360, Note_on_c, 9, 36, 111
1, 171839, Note_on_c, 9, 44, 0
1, 171839, Note_on_c, 9, 36, 0
1, 171840, Note_on_c, 9, 38, 121
1, 171840, Note_on_c, 9, 44, 121
1, 171959, Note_on_c, 9, 44, 0
1, 171960, Note_on_c, 9, 43, 115
1, 172079, Note_on_c, 9, 38, 0
1, 172080, Note_on_c, 9, 41, 127
1, 172319, Note_on_c, 9, 43, 0
1, 172319, Note_on_c, 9, 41, 0
1, 172320, Note_on_c, 9, 40, 127
1, 172320, Note_on_c, 9, 44, 65
1, 172559, Note_on_c, 9, 40, 0
1, 172560, Note_on_c, 9, 41, 99
1, 172799, Note_on_c, 9, 44, 0
1, 172799, Note_on_c, 9, 41, 0
1, 172800, Note_on_c, 9, 49, 121
1, 172800, Note_on_c, 9, 44, 110
1, 172800, Note_on_c, 9, 36, 110
1, 173279, Note_on_c, 9, 49, 0
1, 173279, Note_on_c, 9, 44, 0
1, 173279, Note_on_c, 9, 36, 0
1, 173280, Note_on_c, 9, 44, 68
1, 173759, Note_on_c, 9, 44, 0
1, 173760, Note_on_c, 9, 38, 121
1, 173760, Note_on_c, 9, 44, 121
1, 174239, Note_on_c, 9, 38, 0
1, 174239, Note_on_c, 9, 44, 0
1, 174240, Note_on_c, 9, 44, 65
1, 174719, Note_on_c, 9, 44, 0
1, 174720, Note_on_c, 9, 44, 111
1, 174720, Note_on_c, 9, 36, 111
1, 175199, Note_on_c, 9, 44, 0
1, 175199, Note_on_c, 9, 36, 0
1, 175200, Note_on_c, 9, 44, 111
1, 175200, Note_on_c, 9, 36, 111
1, 175679, Note_on_c, 9, 44, 0
1, 175679, Note_on_c, 9, 36, 0
1, 175680, Note_on_c, 9, 38, 121
1, 175680, Note_on_c, 9, 44, 121
1, 176159, Note_on_c, 9, 38, 0
1, 176159, Note_on_c, 9, 44, 0
1, 176160, Note_on_c, 9, 44, 69
1, 176639, Note_on_c, 9, 44, 0
1, 176640, Note_on_c, 9, 44, 113
1, 176640, Note_on_c, 9, 36, 113
1, 177119, Note_on_c, 9, 44, 0
1, 177119, Note_on_c, 9, 36, 0
1, 177120, Note_on_c, 9, 44, 69
1, 177599, Note_on_c, 9, 44, 0
1, 177600, Note_on_c, 9, 38, 121
1, 177600, Note_on_c, 9, 44, 121
1, 178079, Note_on_c, 9, 38, 0
1, 178079, Note_on_c, 9, 44, 0
1, 178080, Note_on_c, 9, 44, 69
1, 178559, Note_on_c, 9, 44, 0
1, 178560, Note_on_c, 9, 44, 109
1, 178560, Note_on_c, 9, 36, 109
1, 179039, Note_on_c, 9, 44, 0
1, 179039, Note_on_c, 9, 36, 0
1, 179040, Note_on_c, 9, 44, 113
1, 179040, Note_on_c, 9, 36, 113
1, 179519, Note_on_c, 9, 44, 0
1, 179519, Note_on_c, 9, 36, 0
1, 179520, Note_on_c, 9, 38, 121
1, 179520, Note_on_c, 9, 44, 121
1, 179999, Note_on_c, 9, 38, 0
1, 179999, Note_on_c, 9, 44, 0
1, 180000, Note_on_c, 9, 44, 71
1, 180479, Note_on_c, 9, 44, 0
1, 180480, Note_on_c, 9, 44, 115
1, 180480, Note_on_c, 9, 36, 115
1, 180959, Note_on_c, 9, 44, 0
1, 180959, Note_on_c, 9, 36, 0
1, 180960, Note_on_c, 9, 44, 74
1, 181439, Note_on_c, 9, 44, 0
1, 181440, Note_on_c, 9, 38, 121
1, 181440, Note_on_c, 9, 44, 121
1, 181919, Note_on_c, 9, 38, 0
1, 181919, Note_on_c, 9, 44, 0
1, 181920, Note_on_c, 9, 44, 73
1, 182399, Note_on_c, 9, 44, 0
1, 182400, Note_on_c, 9, 44, 73
1, 182400, Note_on_c, 9, 36, 118
1, 182879, Note_on_c, 9, 44, 0
1, 182879, Note_on_c, 9, 36, 0
1, 182880, Note_on_c, 9, 44, 117
1, 182880, Note_on_c, 9, 36, 117
1, 183359, Note_on_c, 9, 44, 0
1, 183359, Note_on_c, 9, 36, 0
1, 183360, Note_on_c, 9, 38, 121
1, 183360, Note_on_c, 9, 44, 121
1, 183839, Note_on_c, 9, 38, 0
1, 183839, Note_on_c, 9, 44, 0
1, 183840, Note_on_c, 9, 44, 69
1, 184319, Note_on_c, 9, 44, 0
1, 184320, Note_on_c, 9, 44, 116
1, 184320, Note_on_c, 9, 36, 116
1, 184799, Note_on_c, 9, 44, 0
1, 184799, Note_on_c, 9, 36, 0
1, 184800, Note_on_c, 9, 44, 75
1, 185279, Note_on_c, 9, 44, 0
1, 185280, Note_on_c, 9, 38, 121
1, 185280, Note_on_c, 9, 44, 121
1, 185759, Note_on_c, 9, 38, 0
1, 185759, Note_on_c, 9, 44, 0
1, 185760, Note_on_c, 9, 44, 74
1, 186239, Note_on_c, 9, 44, 0
1, 186240, Note_on_c, 9, 44, 84
1, 186240, Note_on_c, 9, 36, 117
1, 186719, Note_on_c, 9, 44, 0
1, 186719, Note_on_c, 9, 36, 0
1, 186720, Note_on_c, 9, 44, 73
1, 186720, Note_on_c, 9, 36, 70
1, 187199, Note_on_c, 9, 44, 0
1, 187199, Note_on_c, 9, 36, 0
1, 187200, Note_on_c, 9, 38, 121
1, 187200, Note_on_c, 9, 44, 121
1, 187200, Note_on_c, 9, 43, 127
1, 187319, Note_on_c, 9, 38, 0
1, 187320, Note_on_c, 9, 40, 74
1, 187439, Note_on_c, 9, 40, 0
1, 187440, Note_on_c, 9, 41, 115
1, 187679, Note_on_c, 9, 44, 0
1, 187679, Note_on_c, 9, 43, 0
1, 187679, Note_on_c, 9, 41, 0
1, 187680, Note_on_c, 9, 38, 115
1, 187680, Note_on_c, 9, 40, 104
1, 187680, Note_on_c, 9, 44, 76
1, 187919, Note_on_c, 9, 38, 0
1, 187919, Note_on_c, 9, 40, 0
1, 187920, Note_on_c, 9, 38, 121
1, 188159, Note_on_c, 9, 44, 0
1, 188159, Note_on_c, 9, 38, 0
1, 188160, Note_on_c, 9, 49, 127
1, 188160, Note_on_c, 9, 44, 116
1, 188160, Note_on_c, 9, 36, 116
1, 188639, Note_on_c, 9, 49, 0
1, 188639, Note_on_c, 9, 44, 0
1, 188639, Note_on_c, 9, 36, 0
1, 188640, Note_on_c, 9, 44, 77
1, 189119, Note_on_c, 9, 44, 0
1, 189120, Note_on_c, 9, 38, 121
1, 189120, Note_on_c, 9, 44, 121
1, 189599, Note_on_c, 9, 38, 0
1, 189599, Note_on_c, 9, 44, 0
1, 189600, Note_on_c, 9, 44, 72
1, 190079, Note_on_c, 9, 44, 0
1, 190080, Note_on_c, 9, 44, 112
1, 190080, Note_on_c, 9, 36, 112
1, 190559, Note_on_c, 9, 44, 0
1, 190559, Note_on_c, 9, 36, 0
1, 190560, Note_on_c, 9, 44, 112
1, 190560, Note_on_c, 9, 36, 112
1, 191039, Note_on_c, 9, 44, 0
1, 191039, Note_on_c, 9, 36, 0
1, 191040, Note_on_c, 9, 38, 121
1, 191040, Note_on_c, 9, 44, 121
1, 191519, Note_on_c, 9, 38, 0
1, 191519, Note_on_c, 9, 44, 0
1, 191520, Note_on_c, 9, 44, 75
1, 191999, Note_on_c, 9, 44, 0
1, 192000, Note_on_c, 9, 44, 113
1, 192000, Note_on_c, 9, 36, 113
1, 192479, Note_on_c, 9, 44, 0
1, 192479, Note_on_c, 9, 36, 0
1, 192480, Note_on_c, 9, 44, 71
1, 192959, Note_on_c, 9, 44, 0
1, 192960, Note_on_c, 9, 38, 121
1, 192960, Note_on_c, 9, 44, 121
1, 193439, Note_on_c, 9, 38, 0
1, 193439, Note_on_c, 9, 44, 0
1, 193440, Note_on_c, 9, 44, 75
1, 193919, Note_on_c, 9, 44, 0
1, 193920, Note_on_c, 9, 44, 111
1, 193920, Note_on_c, 9, 36, 111
1, 194399, Note_on_c, 9, 44, 0
1, 194399, Note_on_c, 9, 36, 0
1, 194400, Note_on_c, 9, 44, 114
1, 194400, Note_on_c, 9, 36, 114
1, 194879, Note_on_c, 9, 44, 0
1, 194879, Note_on_c, 9, 36, 0
1, 194880, Note_on_c, 9, 38, 121
1, 194880, Note_on_c, 9, 44, 121
1, 195359, Note_on_c, 9, 38, 0
1, 195359, Note_on_c, 9, 44, 0
1, 195360, Note_on_c, 9, 44, 76
1, 195839, Note_on_c, 9, 44, 0
1, 195840, Note_on_c, 9, 44, 114
1, 195840, Note_on_c, 9, 36, 114
1, 196319, Note_on_c, 9, 44, 0
1, 196319, Note_on_c, 9, 36, 0
1, 196320, Note_on_c, 9, 44, 77
1, 196799, Note_on_c, 9, 44, 0
1, 196800, Note_on_c, 9, 38, 121
1, 196800, Note_on_c, 9, 44, 121
1, 197279, Note_on_c, 9, 38, 0
1, 197279, Note_on_c, 9, 44, 0
1, 197280, Note_on_c, 9, 44, 76
1, 197759, Note_on_c, 9, 44, 0
1, 197760, Note_on_c, 9, 44, 116
1, 197760, Note_on_c, 9, 36, 116
1, 198239, Note_on_c, 9, 44, 0
1, 198239, Note_on_c, 9, 36, 0
1, 198240, Note_on_c, 9, 44, 116
1, 198240, Note_on_c, 9, 36, 116
1, 198719, Note_on_c, 9, 44, 0
1, 198719, Note_on_c, 9, 36, 0
1, 198720, Note_on_c, 9, 38, 121
1, 198720, Note_on_c, 9, 44, 121
1, 199199, Note_on_c, 9, 38, 0
1, 199199, Note_on_c, 9, 44, 0
1, 199200, Note_on_c, 9, 44, 77
1, 199679, Note_on_c, 9, 44, 0
1, 199680, Note_on_c, 9, 44, 119
1, 199680, Note_on_c, 9, 36, 119
1, 200159, Note_on_c, 9, 44, 0
1, 200159, Note_on_c, 9, 36, 0
1, 200160, Note_on_c, 9, 44, 79
1, 200639, Note_on_c, 9, 44, 0
1, 200640, Note_on_c, 9, 38, 121
1, 200640, Note_on_c, 9, 44, 121
1, 201119, Note_on_c, 9, 38, 0
1, 201119, Note_on_c, 9, 44, 0
1, 201120, Note_on_c, 9, 44, 75
1, 201599, Note_on_c, 9, 44, 0
1, 201600, Note_on_c, 9, 44, 115
1, 201600, Note_on_c, 9, 36, 115
1, 202079, Note_on_c, 9, 44, 0
1, 202079, Note_on_c, 9, 36, 0
1, 202080, Note_on_c, 9, 44, 116
1, 202080, Note_on_c, 9, 36, 116
1, 202319, Note_on_c, 9, 44, 0
1, 202319, Note_on_c, 9, 36, 0
1, 202320, Note_on_c, 9, 41, 109
1, 202320, Note_on_c, 9, 43, 104
1, 202559, Note_on_c, 9, 41, 0
1, 202559, Note_on_c, 9, 43, 0
1, 202560, Note_on_c, 9, 38, 121
1, 202560, Note_on_c, 9, 45, 92
1, 202560, Note_on_c, 9, 47, 86
1, 202560, Note_on_c, 9, 44, 121
1, 202799, Note_on_c, 9, 38, 0
1, 202799, Note_on_c, 9, 45, 0
1, 202799, Note_on_c, 9, 47, 0
1, 202800, Note_on_c, 9, 40, 98
1, 203039, Note_on_c, 9, 44, 0
1, 203039, Note_on_c, 9, 40, 0
1, 203040, Note_on_c, 9, 38, 109
1, 203040, Note_on_c, 9, 40, 104
1, 203040, Note_on_c, 9, 44, 71
1, 203279, Note_on_c, 9, 38, 0
1, 203279, Note_on_c, 9, 40, 0
1, 203280, Note_on_c, 9, 46, 98
1, 203519, Note_on_c, 9, 44, 0
1, 203519, Note_on_c, 9, 46, 0
1, 203520, Note_on_c, 9, 44, 116
1, 203520, Note_on_c, 9, 36, 116
1, 203999, Note_on_c, 9, 44, 0
1, 203999, Note_on_c, 9, 36, 0
1, 204000, Note_on_c, 9, 44, 73
1, 204479, Note_on_c, 9, 44, 0
1, 204480, Note_on_c, 9, 38, 121
1, 204480, Note_on_c, 9, 44, 121
1, 204959, Note_on_c, 9, 38, 0
1, 204959, Note_on_c, 9, 44, 0
1, 204960, Note_on_c, 9, 44, 71
1, 205439, Note_on_c, 9, 44, 0
1, 205440, Note_on_c, 9, 44, 118
1, 205470, Note_on_c, 9, 36, 118
1, 205529, Note_on_c, 9, 36, 0
1, 205919, Note_on_c, 9, 44, 0
1, 205920, Note_on_c, 9, 44, 120
1, 205920, Note_on_c, 9, 36, 120
1, 206399, Note_on_c, 9, 44, 0
1, 206399, Note_on_c, 9, 36, 0
1, 206400, Note_on_c, 9, 38, 121
1, 206400, Note_on_c, 9, 44, 121
1, 206879, Note_on_c, 9, 38, 0
1, 206879, Note_on_c, 9, 44, 0
1, 206880, Note_on_c, 9, 44, 76
1, 207359, Note_on_c, 9, 44, 0
1, 207360, Note_on_c, 9, 44, 114
1, 207360, Note_on_c, 9, 36, 114
1, 207839, Note_on_c, 9, 44, 0
1, 207839, Note_on_c, 9, 36, 0
1, 207840, Note_on_c, 9, 44, 76
1, 208319, Note_on_c, 9, 44, 0
1, 208320, Note_on_c, 9, 38, 121
1, 208320, Note_on_c, 9, 44, 121
1, 208799, Note_on_c, 9, 38, 0
1, 208799, Note_on_c, 9, 44, 0
1, 208800, Note_on_c, 9, 44, 77
1, 209279, Note_on_c, 9, 44, 0
1, 209280, Note_on_c, 9, 44, 115
1, 209280, Note_on_c, 9, 36, 115
1, 209759, Note_on_c, 9, 44, 0
1, 209759, Note_on_c, 9, 36, 0
1, 209760, Note_on_c, 9, 44, 119
1, 209760, Note_on_c, 9, 36, 119
1, 210239, Note_on_c, 9, 44, 0
1, 210239, Note_on_c, 9, 36, 0
1, 210240, Note_on_c, 9, 38, 121
1, 210240, Note_on_c, 9, 44, 121
1, 210719, Note_on_c, 9, 38, 0
1, 210719, Note_on_c, 9, 44, 0
1, 210720, Note_on_c, 9, 44, 78
1, 211199, Note_on_c, 9, 44, 0
1, 211200, Note_on_c, 9, 44, 112
1, 211200, Note_on_c, 9, 36, 112
1, 211679, Note_on_c, 9, 44, 0
1, 211679, Note_on_c, 9, 36, 0
1, 211680, Note_on_c, 9, 44, 70
1, 212159, Note_on_c, 9, 44, 0
1, 212160, Note_on_c, 9, 38, 121
1, 212160, Note_on_c, 9, 44, 121
1, 212639, Note_on_c, 9, 38, 0
1, 212639, Note_on_c, 9, 44, 0
1, 212640, Note_on_c, 9, 44, 68
1, 213119, Note_on_c, 9, 44, 0
1, 213120, Note_on_c, 9, 44, 108
1, 213120, Note_on_c, 9, 36, 108
1, 213599, Note_on_c, 9, 44, 0
1, 213599, Note_on_c, 9, 36, 0
1, 213600, Note_on_c, 9, 44, 108
1, 213600, Note_on_c, 9, 36, 108
1, 214079, Note_on_c, 9, 44, 0
1, 214079, Note_on_c, 9, 36, 0
1, 214080, Note_on_c, 9, 38, 121
1, 214080, Note_on_c, 9, 44, 121
1, 214559, Note_on_c, 9, 38, 0
1, 214559, Note_on_c, 9, 44, 0
1, 214560, Note_on_c, 9, 44, 71
1, 215039, Note_on_c, 9, 44, 0
1, 215040, Note_on_c, 9, 44, 110
1, 215040, Note_on_c, 9, 36, 110
1, 215519, Note_on_c, 9, 44, 0
1, 215519, Note_on_c, 9, 36, 0
1, 215520, Note_on_c, 9, 44, 74
1, 215999, Note_on_c, 9, 44, 0
1, 216000, Note_on_c, 9, 38, 121
1, 216000, Note_on_c, 9, 44, 121
1, 216479, Note_on_c, 9, 38, 0
1, 216479, Note_on_c, 9, 44, 0
1, 216480, Note_on_c, 9, 44, 73
1, 216959, Note_on_c, 9, 44, 0
1, 216960, Note_on_c, 9, 41, 121
1, 216960, Note_on_c, 9, 44, 116
1, 216960, Note_on_c, 9, 36, 116
1, 217199, Note_on_c, 9, 44, 0
1, 217199, Note_on_c, 9, 36, 0
1, 217200, Note_on_c, 9, 43, 127
1, 217439, Note_on_c, 9, 41, 0
1, 217439, Note_on_c, 9, 43, 0
1, 217440, Note_on_c, 9, 44, 114
1, 217440, Note_on_c, 9, 36, 114
1, 217680, Note_on_c, 9, 47, 104
1, 217919, Note_on_c, 9, 44, 0
1, 217919, Note_on_c, 9, 36, 0
1, 217919, Note_on_c, 9, 47, 0
1, 217920, Note_on_c, 9, 38, 121
1, 217920, Note_on_c, 9, 44, 121
1, 217920, Note_on_c, 9, 43, 115
1, 218159, Note_on_c, 9, 38, 0
1, 218160, Note_on_c, 9, 41, 121
1, 218399, Note_on_c, 9, 44, 0
1, 218399, Note_on_c, 9, 43, 0
1, 218399, Note_on_c, 9, 41, 0
1, 218400, Note_on_c, 9, 38, 58
1, 218400, Note_on_c, 9, 40, 121
1, 218400, Note_on_c, 9, 44, 121
1, 218879, Note_on_c, 9, 38, 0
1, 218879, Note_on_c, 9, 40, 0
1, 218879, Note_on_c, 9, 44, 0
1, 218880, Note_on_c, 9, 46, 120
1, 218880, Note_on_c, 9, 49, 120
1, 218880, Note_on_c, 9, 44, 114
1, 218880, Note_on_c, 9, 36, 114
1, 219359, Note_on_c, 9, 46, 0
1, 219359, Note_on_c, 9, 49, 0
1, 219359, Note_on_c, 9, 44, 0
1, 219359, Note_on_c, 9, 36, 0
1, 219360, Note_on_c, 9, 44, 71
1, 219839, Note_on_c, 9, 44, 0
1, 219840, Note_on_c, 9, 38, 121
1, 219840, Note_on_c, 9, 44, 121
1, 220319, Note_on_c, 9, 38, 0
1, 220319, Note_on_c, 9, 44, 0
1, 220320, Note_on_c, 9, 44, 73
1, 220799, Note_on_c, 9, 44, 0
1, 220800, Note_on_c, 9, 44, 75
1, 220830, Note_on_c, 9, 36, 117
1, 220889, Note_on_c, 9, 36, 0
1, 221279, Note_on_c, 9, 44, 0
1, 221280, Note_on_c, 9, 44, 114
1, 221280, Note_on_c, 9, 36, 114
1, 221759, Note_on_c, 9, 44, 0
1, 221759, Note_on_c, 9, 36, 0
1, 221760, Note_on_c, 9, 38, 121
1, 221760, Note_on_c, 9, 44, 121
1, 222239, Note_on_c, 9, 38, 0
1, 222239, Note_on_c, 9, 44, 0
1, 222240, Note_on_c, 9, 44, 70
1, 222719, Note_on_c, 9, 44, 0
1, 222720, Note_on_c, 9, 44, 112
1, 222720, Note_on_c, 9, 36, 112
1, 223199, Note_on_c, 9, 44, 0
1, 223199, Note_on_c, 9, 36, 0
1, 223200, Note_on_c, 9, 44, 71
1, 223679, Note_on_c, 9, 44, 0
1, 223680, Note_on_c, 9, 38, 121
1, 223680, Note_on_c, 9, 44, 121
1, 224159, Note_on_c, 9, 38, 0
1, 224159, Note_on_c, 9, 44, 0
1, 224160, Note_on_c, 9, 44, 65
1, 224639, Note_on_c, 9, 44, 0
1, 224640, Note_on_c, 9, 44, 110
1, 224640, Note_on_c, 9, 36, 110
1, 225119, Note_on_c, 9, 44, 0
1, 225119, Note_on_c, 9, 36, 0
1, 225120, Note_on_c, 9, 44, 111
1, 225120, Note_on_c, 9, 36, 111
1, 225599, Note_on_c, 9, 44, 0
1, 225599, Note_on_c, 9, 36, 0
1, 225600, Note_on_c, 9, 38, 121
1, 225600, Note_on_c, 9, 44, 121
1, 226079, Note_on_c, 9, 38, 0
1, 226079, Note_on_c, 9, 44, 0
1, 226080, Note_on_c, 9, 44, 65
1, 226559, Note_on_c, 9, 44, 0
1, 226560, Note_on_c, 9, 44, 112
1, 226560, Note_on_c, 9, 36, 112
1, 227039, Note_on_c, 9, 44, 0
1, 227039, Note_on_c, 9, 36, 0
1, 227040, Note_on_c, 9, 44, 70
1, 227519, Note_on_c, 9, 44, 0
1, 227520, Note_on_c, 9, 38, 121
1, 227520, Note_on_c, 9, 49, 121
1, 227520, Note_on_c, 9, 44, 121
1, 227999, Note_on_c, 9, 38, 0
1, 227999, Note_on_c, 9, 49, 0
1, 227999, Note_on_c, 9, 44, 0
1, 228000, Note_on_c, 9, 44, 68
1, 228479, Note_on_c, 9, 44, 0
1, 228480, Note_on_c, 9, 44, 108
1, 228480, Note_on_c, 9, 36, 108
1, 228959, Note_on_c, 9, 44, 0
1, 228959, Note_on_c, 9, 36, 0
1, 228960, Note_on_c, 9, 44, 108
1, 228960, Note_on_c, 9, 36, 108
1, 229439, Note_on_c, 9, 44, 0
1, 229439, Note_on_c, 9, 36, 0
1, 229440, Note_on_c, 9, 38, 121
1, 229440, Note_on_c, 9, 49, 121
1, 229440, Note_on_c, 9, 44, 121
1, 229919, Note_on_c, 9, 38, 0
1, 229919, Note_on_c, 9, 49, 0
1, 229919, Note_on_c, 9, 44, 0
1, 229920, Note_on_c, 9, 44, 71
1, 230399, Note_on_c, 9, 44, 0
1, 230400, Note_on_c, 9, 44, 110
1, 230400, Note_on_c, 9, 36, 110
1, 230879, Note_on_c, 9, 44, 0
1, 230879, Note_on_c, 9, 36, 0
1, 230880, Note_on_c, 9, 44, 74
1, 231359, Note_on_c, 9, 44, 0
1, 231360, Note_on_c, 9, 38, 121
1, 231360, Note_on_c, 9, 49, 121
1, 231360, Note_on_c, 9, 44, 121
1, 231839, Note_on_c, 9, 38, 0
1, 231839, Note_on_c, 9, 49, 0
1, 231839, Note_on_c, 9, 44, 0
1, 231840, Note_on_c, 9, 44, 73
1, 232319, Note_on_c, 9, 44, 0
1, 232320, Note_on_c, 9, 44, 116
1, 232320, Note_on_c, 9, 36, 116
1, 232799, Note_on_c, 9, 44, 0
1, 232799, Note_on_c, 9, 36, 0
1, 232800, Note_on_c, 9, 44, 114
1, 232800, Note_on_c, 9, 36, 114
1, 233279, Note_on_c, 9, 44, 0
1, 233279, Note_on_c, 9, 36, 0
1, 233280, Note_on_c, 9, 38, 121
1, 233280, Note_on_c, 9, 49, 121
1, 233280, Note_on_c, 9, 44, 121
1, 233759, Note_on_c, 9, 38, 0
1, 233759, Note_on_c, 9, 49, 0
1, 233759, Note_on_c, 9, 44, 0
1, 233760, Note_on_c, 9, 44, 121
1, 234239, Note_on_c, 9, 44, 0
1, 234240, Note_on_c, 9, 44, 114
1, 234240, Note_on_c, 9, 36, 114
1, 234719, Note_on_c, 9, 44, 0
1, 234719, Note_on_c, 9, 36, 0
1, 234720, Note_on_c, 9, 44, 71
1, 235199, Note_on_c, 9, 44, 0
1, 235200, Note_on_c, 9, 38, 121
1, 235200, Note_on_c, 9, 44, 121
1, 235679, Note_on_c, 9, 38, 0
1, 235679, Note_on_c, 9, 44, 0
1, 235680, Note_on_c, 9, 44, 73
1, 236159, Note_on_c, 9, 44, 0
1, 236160, Note_on_c, 9, 44, 75
1, 236190, Note_on_c, 9, 36, 117
1, 236249, Note_on_c, 9, 36, 0
1, 236639, Note_on_c, 9, 44, 0
1, 236640, Note_on_c, 9, 44, 114
1, 236640, Note_on_c, 9, 36, 114
1, 237119, Note_on_c, 9, 44, 0
1, 237119, Note_on_c, 9, 36, 0
1, 237120, Note_on_c, 9, 38, 121
1, 237120, Note_on_c, 9, 44, 121
1, 237599, Note_on_c, 9, 38, 0
1, 237599, Note_on_c, 9, 44, 0
1, 237600, Note_on_c, 9, 44, 70
1, 238079, Note_on_c, 9, 44, 0
1, 238080, Note_on_c, 9, 44, 112
1, 238080, Note_on_c, 9, 36, 112
1, 238559, Note_on_c, 9, 44, 0
1, 238559, Note_on_c, 9, 36, 0
1, 238560, Note_on_c, 9, 44, 71
1, 239039, Note_on_c, 9, 44, 0
1, 239040, Note_on_c, 9, 38, 121
1, 239040, Note_on_c, 9, 44, 121
1, 239519, Note_on_c, 9, 38, 0
1, 239519, Note_on_c, 9, 44, 0
1, 239520, Note_on_c, 9, 44, 65
1, 239999, Note_on_c, 9, 44, 0
1, 240000, Note_on_c, 9, 44, 110
1, 240000, Note_on_c, 9, 36, 110
1, 240479, Note_on_c, 9, 44, 0
1, 240479, Note_on_c, 9, 36, 0
1, 240480, Note_on_c, 9, 44, 111
1, 240480, Note_on_c, 9, 36, 111
1, 240959, Note_on_c, 9, 44, 0
1, 240959, Note_on_c, 9, 36, 0
1, 240960, Note_on_c, 9, 38, 121
1, 240960, Note_on_c, 9, 44, 121
1, 241439, Note_on_c, 9, 38, 0
1, 241439, Note_on_c, 9, 44, 0
1, 241440, Note_on_c, 9, 44, 65
1, 241919, Note_on_c, 9, 44, 0
1, 241920, Note_on_c, 9, 44, 112
1, 241920, Note_on_c, 9, 36, 112
1, 242399, Note_on_c, 9, 44, 0
1, 242399, Note_on_c, 9, 36, 0
1, 242880, Note_on_c, 9, 51, 100
1, 243359, Note_on_c, 9, 51, 0
1, 244800, Note_on_c, 9, 51, 100
1, 245279, Note_on_c, 9, 51, 0
1, 245760, Note_on_c, 9, 36, 110
1, 246239, Note_on_c, 9, 36, 0
1, 246720, Note_on_c, 9, 51, 100
1, 247199, Note_on_c, 9, 51, 0
1, 248640, Note_on_c, 9, 51, 100
1, 249119, Note_on_c, 9, 51, 0
1, 250560, Note_on_c, 9, 51, 100
1, 251039, Note_on_c, 9, 51, 0
1, 251520, Note_on_c, 9, 36, 100
1, 251999, Note_on_c, 9, 36, 0
1, 252000, Note_on_c, 9, 36, 100
1, 252479, Note_on_c, 9, 36, 0
1, 252960, Note_on_c, 9, 41, 72
1, 252960, Note_on_c, 9, 36, 100
1, 252990, Note_on_c, 9, 43, 64
1, 253049, Note_on_c, 9, 43, 0
1, 253439, Note_on_c, 9, 41, 0
1, 253439, Note_on_c, 9, 36, 0
1, 253440, Note_on_c, 9, 36, 100
1, 253919, Note_on_c, 9, 36, 0
1, 253920, Note_on_c, 9, 45, 92
1, 253920, Note_on_c, 9, 36, 100
1, 253920, Note_on_c, 9, 43, 98
1, 254159, Note_on_c, 9, 45, 0
1, 254160, Note_on_c, 9, 41, 104
1, 254399, Note_on_c, 9, 36, 0
1, 254399, Note_on_c, 9, 43, 0
1, 254399, Note_on_c, 9, 41, 0
1, 254400, Note_on_c, 9, 38, 104
1, 254400, Note_on_c, 9, 40, 98
1, 254879, Note_on_c, 9, 38, 0
1, 254879, Note_on_c, 9, 40, 0
1, 254880, Note_on_c, 9, 45, 99
1, 254880, Note_on_c, 9, 49, 121
1, 255120, Note_on_c, 9, 43, 99
1, 255359, Note_on_c, 9, 45, 0
1, 255359, Note_on_c, 9, 49, 0
1, 255359, Note_on_c, 9, 43, 0
1, 255360, Note_on_c, 9, 41, 99
1, 255360, Note_on_c, 9, 49, 99
1, 255360, Note_on_c, 9, 36, 100
1, 255839, Note_on_c, 9, 41, 0
1, 255839, Note_on_c, 9, 49, 0
1, 255839, Note_on_c, 9, 36, 0
1, 257280, Note_on_c, 9, 44, 112
1, 257759, Note_on_c, 9, 44, 0
1, 257760, Note_on_c, 9, 38, 127
1, 257760, Note_on_c, 9, 40, 127
1, 257760, Note_on_c, 9, 44, 70
1, 257760, Note_on_c, 9, 36, 72
1, 257999, Note_on_c, 9, 38, 0
1, 257999, Note_on_c, 9, 40, 0
1, 258000, Note_on_c, 9, 41, 121
1, 258000, Note_on_c, 9, 40, 127
1, 258239, Note_on_c, 9, 44, 0
1, 258239, Note_on_c, 9, 36, 0
1, 258239, Note_on_c, 9, 41, 0
1, 258239, Note_on_c, 9, 40, 0
1, 258240, Note_on_c, 9, 41, 121
1, 258240, Note_on_c, 9, 40, 127
1, 258240, Note_on_c, 9, 44, 121
1, 258719, Note_on_c, 9, 41, 0
1, 258719, Note_on_c, 9, 40, 0
1, 258719, Note_on_c, 9, 44, 0
1, 258720, Note_on_c, 9, 44, 68
1, 259199, Note_on_c, 9, 44, 0
1, 259200, Note_on_c, 9, 44, 108
1, 259200, Note_on_c, 9, 36, 108
1, 259679, Note_on_c, 9, 44, 0
1, 259679, Note_on_c, 9, 36, 0
1, 259680, Note_on_c, 9, 44, 108
1, 259680, Note_on_c, 9, 36, 108
1, 260159, Note_on_c, 9, 44, 0
1, 260159, Note_on_c, 9, 36, 0
1, 260160, Note_on_c, 9, 38, 121
1, 260160, Note_on_c, 9, 40, 125
1, 260160, Note_on_c, 9, 44, 121
1, 260399, Note_on_c, 9, 38, 0
1, 260399, Note_on_c, 9, 40, 0
1, 260400, Note_on_c, 9, 41, 125
1, 260639, Note_on_c, 9, 44, 0
1, 260639, Note_on_c, 9, 41, 0
1, 260640, Note_on_c, 9, 47, 125
1, 260640, Note_on_c, 9, 44, 71
1, 260640, Note_on_c, 9, 43, 125
1, 260879, Note_on_c, 9, 47, 0
1, 260880, Note_on_c, 9, 41, 124
1, 261119, Note_on_c, 9, 44, 0
1, 261119, Note_on_c, 9, 43, 0
1, 261119, Note_on_c, 9, 41, 0
1, 261120, Note_on_c, 9, 55, 124
1, 261120, Note_on_c, 9, 44, 110
1, 261120, Note_on_c, 9, 36, 110
1, 261120, Note_on_c, 9, 43, 124
1, 261599, Note_on_c, 9, 55, 0
1, 261599, Note_on_c, 9, 44, 0
1, 261599, Note_on_c, 9, 36, 0
1, 261599, Note_on_c, 9, 43, 0
1, 261600, Note_on_c, 9, 44, 74
1, 262079, Note_on_c, 9, 44, 0
1, 262080, Note_on_c, 9, 38, 121
1, 262080, Note_on_c, 9, 44, 121
1, 262559, Note_on_c, 9, 38, 0
1, 262559, Note_on_c, 9, 44, 0
1, 262560, Note_on_c, 9, 44, 73
1, 263039, Note_on_c, 9, 44, 0
1, 263040, Note_on_c, 9, 44, 116
1, 263040, Note_on_c, 9, 36, 116
1, 263519, Note_on_c, 9, 44, 0
1, 263519, Note_on_c, 9, 36, 0
1, 263520, Note_on_c, 9, 44, 114
1, 263520, Note_on_c, 9, 36, 114
1, 263999, Note_on_c, 9, 44, 0
1, 263999, Note_on_c, 9, 36, 0
1, 264000, Note_on_c, 9, 38, 121
1, 264000, Note_on_c, 9, 44, 121
1, 264479, Note_on_c, 9, 38, 0
1, 264479, Note_on_c, 9, 44, 0
1, 264480, Note_on_c, 9, 44, 121
1, 264959, Note_on_c, 9, 44, 0
1, 264960, Note_on_c, 9, 44, 114
1, 264960, Note_on_c, 9, 36, 114
1, 265439, Note_on_c, 9, 44, 0
1, 265439, Note_on_c, 9, 36, 0
1, 265440, Note_on_c, 9, 44, 71
1, 265919, Note_on_c, 9, 44, 0
1, 265920, Note_on_c, 9, 38, 121
1, 265920, Note_on_c, 9, 44, 121
1, 266399, Note_on_c, 9, 38, 0
1, 266399, Note_on_c, 9, 44, 0
1, 266400, Note_on_c, 9, 44, 73
1, 266879, Note_on_c, 9, 44, 0
1, 266880, Note_on_c, 9, 44, 75
1, 266910, Note_on_c, 9, 36, 117
1, 266969, Note_on_c, 9, 36, 0
1, 267359, Note_on_c, 9, 44, 0
1, 267360, Note_on_c, 9, 44, 114
1, 267360, Note_on_c, 9, 36, 114
1, 267839, Note_on_c, 9, 44, 0
1, 267839, Note_on_c, 9, 36, 0
1, 267840, Note_on_c, 9, 38, 121
1, 267840, Note_on_c, 9, 44, 121
1, 268319, Note_on_c, 9, 38, 0
1, 268319, Note_on_c, 9, 44, 0
1, 268320, Note_on_c, 9, 44, 70
1, 268799, Note_on_c, 9, 44, 0
1, 268800, Note_on_c, 9, 44, 112
1, 268800, Note_on_c, 9, 36, 112
1, 269279, Note_on_c, 9, 44, 0
1, 269279, Note_on_c, 9, 36, 0
1, 269280, Note_on_c, 9, 44, 71
1, 269759, Note_on_c, 9, 44, 0
1, 269760, Note_on_c, 9, 38, 121
1, 269760, Note_on_c, 9, 44, 121
1, 270239, Note_on_c, 9, 38, 0
1, 270239, Note_on_c, 9, 44, 0
1, 270240, Note_on_c, 9, 44, 65
1, 270719, Note_on_c, 9, 44, 0
1, 270720, Note_on_c, 9, 44, 110
1, 270720, Note_on_c, 9, 36, 110
1, 271199, Note_on_c, 9, 44, 0
1, 271199, Note_on_c, 9, 36, 0
1, 271200, Note_on_c, 9, 44, 111
1, 271200, Note_on_c, 9, 36, 111
1, 271679, Note_on_c, 9, 44, 0
1, 271679, Note_on_c, 9, 36, 0
1, 271680, Note_on_c, 9, 38, 121
1, 271680, Note_on_c, 9, 44, 121
1, 272159, Note_on_c, 9, 38, 0
1, 272159, Note_on_c, 9, 44, 0
1, 272160, Note_on_c, 9, 44, 65
1, 272639, Note_on_c, 9, 44, 0
1, 272640, Note_on_c, 9, 44, 112
1, 272640, Note_on_c, 9, 36, 112
1, 273119, Note_on_c, 9, 44, 0
1, 273119, Note_on_c, 9, 36, 0
1, 273120, Note_on_c, 9, 45, 124
1, 273120, Note_on_c, 9, 44, 70
1, 273359, Note_on_c, 9, 45, 0
1, 273359, Note_on_c, 9, 44, 0
1, 273360, Note_on_c, 9, 45, 124
1, 273360, Note_on_c, 9, 43, 124
1, 273599, Note_on_c, 9, 45, 0
1, 273599, Note_on_c, 9, 43, 0
1, 273600, Note_on_c, 9, 38, 121
1, 273600, Note_on_c, 9, 47, 124
1, 273600, Note_on_c, 9, 44, 121
1, 273839, Note_on_c, 9, 38, 0
1, 273839, Note_on_c, 9, 47, 0
1, 273840, Note_on_c, 9, 41, 124
1, 274079, Note_on_c, 9, 44, 0
1, 274079, Note_on_c, 9, 41, 0
1, 274080, Note_on_c, 9, 40, 124
1, 274080, Note_on_c, 9, 44, 68
1, 274559, Note_on_c, 9, 40, 0
1, 274559, Note_on_c, 9, 44, 0
1, 274560, Note_on_c, 9, 55, 122
1, 274560, Note_on_c, 9, 44, 108
1, 274560, Note_on_c, 9, 36, 108
1, 275039, Note_on_c, 9, 55, 0
1, 275039, Note_on_c, 9, 44, 0
1, 275039, Note_on_c, 9, 36, 0
1, 275040, Note_on_c, 9, 44, 108
1, 275040, Note_on_c, 9, 36, 108
1, 275519, Note_on_c, 9, 44, 0
1, 275519, Note_on_c, 9, 36, 0
1, 275520, Note_on_c, 9, 38, 121
1, 275520, Note_on_c, 9, 44, 121
1, 275999, Note_on_c, 9, 38, 0
1, 275999, Note_on_c, 9, 44, 0
1, 276000, Note_on_c, 9, 44, 71
1, 276479, Note_on_c, 9, 44, 0
1, 276480, Note_on_c, 9, 44, 110
1, 276480, Note_on_c, 9, 36, 110
1, 276959, Note_on_c, 9, 44, 0
1, 276959, Note_on_c, 9, 36, 0
1, 276960, Note_on_c, 9, 44, 74
1, 277439, Note_on_c, 9, 44, 0
1, 277440, Note_on_c, 9, 38, 121
1, 277440, Note_on_c, 9, 44, 121
1, 277919, Note_on_c, 9, 38, 0
1, 277919, Note_on_c, 9, 44, 0
1, 277920, Note_on_c, 9, 44, 73
1, 278399, Note_on_c, 9, 44, 0
1, 278400, Note_on_c, 9, 44, 116
1, 278400, Note_on_c, 9, 36, 116
1, 278879, Note_on_c, 9, 44, 0
1, 278879, Note_on_c, 9, 36, 0
1, 278880, Note_on_c, 9, 44, 114
1, 278880, Note_on_c, 9, 36, 114
1, 279359, Note_on_c, 9, 44, 0
1, 279359, Note_on_c, 9, 36, 0
1, 279360, Note_on_c, 9, 38, 121
1, 279360, Note_on_c, 9, 44, 121
1, 279839, Note_on_c, 9, 38, 0
1, 279839, Note_on_c, 9, 44, 0
1, 279840, Note_on_c, 9, 44, 121
1, 280319, Note_on_c, 9, 44, 0
1, 280320, Note_on_c, 9, 44, 114
1, 280320, Note_on_c, 9, 36, 114
1, 280799, Note_on_c, 9, 44, 0
1, 280799, Note_on_c, 9, 36, 0
1, 280800, Note_on_c, 9, 44, 71
1, 281279, Note_on_c, 9, 44, 0
1, 281280, Note_on_c, 9, 38, 121
1, 281280, Note_on_c, 9, 44, 121
1, 281759, Note_on_c, 9, 38, 0
1, 281759, Note_on_c, 9, 44, 0
1, 281760, Note_on_c, 9, 44, 73
1, 282239, Note_on_c, 9, 44, 0
1, 282240, Note_on_c, 9, 44, 75
1, 282270, Note_on_c, 9, 36, 117
1, 282329, Note_on_c, 9, 36, 0
1, 282719, Note_on_c, 9, 44, 0
1, 282720, Note_on_c, 9, 44, 114
1, 282720, Note_on_c, 9, 36, 114
1, 283199, Note_on_c, 9, 44, 0
1, 283199, Note_on_c, 9, 36, 0
1, 283200, Note_on_c, 9, 38, 121
1, 283200, Note_on_c, 9, 44, 121
1, 283679, Note_on_c, 9, 38, 0
1, 283679, Note_on_c, 9, 44, 0
1, 283680, Note_on_c, 9, 44, 70
1, 284159, Note_on_c, 9, 44, 0
1, 284160, Note_on_c, 9, 44, 112
1, 284160, Note_on_c, 9, 36, 112
1, 284639, Note_on_c, 9, 44, 0
1, 284639, Note_on_c, 9, 36, 0
1, 284640, Note_on_c, 9, 44, 71
1, 285119, Note_on_c, 9, 44, 0
1, 285120, Note_on_c, 9, 38, 121
1, 285120, Note_on_c, 9, 44, 121
1, 285599, Note_on_c, 9, 38, 0
1, 285599, Note_on_c, 9, 44, 0
1, 285600, Note_on_c, 9, 44, 65
1, 286079, Note_on_c, 9, 44, 0
1, 286080, Note_on_c, 9, 44, 110
1, 286080, Note_on_c, 9, 36, 110
1, 286559, Note_on_c, 9, 44, 0
1, 286559, Note_on_c, 9, 36, 0
1, 286560, Note_on_c, 9, 44, 111
1, 286560, Note_on_c, 9, 36, 111
1, 287039, Note_on_c, 9, 44, 0
1, 287039, Note_on_c, 9, 36, 0
1, 287040, Note_on_c, 9, 38, 121
1, 287040, Note_on_c, 9, 44, 121
1, 287519, Note_on_c, 9, 38, 0
1, 287519, Note_on_c, 9, 44, 0
1, 287520, Note_on_c, 9, 44, 65
1, 287999, Note_on_c, 9, 44, 0
1, 288000, Note_on_c, 9, 45, 115
1, 288000, Note_on_c, 9, 44, 112
1, 288000, Note_on_c, 9, 36, 112
1, 288239, Note_on_c, 9, 44, 0
1, 288239, Note_on_c, 9, 36, 0
1, 288240, Note_on_c, 9, 43, 115
1, 288479, Note_on_c, 9, 45, 0
1, 288479, Note_on_c, 9, 43, 0
1, 288480, Note_on_c, 9, 47, 109
1, 288480, Note_on_c, 9, 44, 70
1, 288719, Note_on_c, 9, 47, 0
1, 288720, Note_on_c, 9, 41, 121
1, 288959, Note_on_c, 9, 44, 0
1, 288959, Note_on_c, 9, 41, 0
1, 288960, Note_on_c, 9, 41, 92
1, 288960, Note_on_c, 9, 38, 121
1, 288960, Note_on_c, 9, 40, 98
1, 288960, Note_on_c, 9, 44, 121
1, 289199, Note_on_c, 9, 41, 0
1, 289199, Note_on_c, 9, 38, 0
1, 289199, Note_on_c, 9, 40, 0
1, 289200, Note_on_c, 9, 45, 127
1, 289439, Note_on_c, 9, 44, 0
1, 289439, Note_on_c, 9, 45, 0
1, 289440, Note_on_c, 9, 40, 109
1, 289440, Note_on_c, 9, 44, 68
1, 289919, Note_on_c, 9, 40, 0
1, 289919, Note_on_c, 9, 44, 0
1, 289920, Note_on_c, 9, 49, 115
1, 289950, Note_on_c, 9, 41, 92
1, 290399, Note_on_c, 9, 49, 0
1, 290399, Note_on_c, 9, 41, 0
1, 290400, End_track
0, 0, End_of_file
