0, 0, Header, 1, 8, 480
1, 0, Start_track
1, 0, Time_signature, 4, 2, 24, 8
1, 0, Key_signature, 0, "major"
1, 0, Tempo, 500000
1, 0, Control_c, 9, 121, 0
1, 0, Program_c, 9, 0
1, 0, Control_c, 9, 7, 100
1, 0, Control_c, 9, 10, 64
1, 0, Control_c, 9, 91, 0
1, 0, Control_c, 9, 93, 0
1, 0, MIDI_port, 0
1, 8, Tempo, 461538
1, 22800, Note_on_c, 9, 36, 55
1, 23039, Note_on_c, 9, 36, 0
1, 23040, Note_on_c, 9, 36, 70
1, 23519, Note_on_c, 9, 36, 0
1, 28560, Note_on_c, 9, 36, 57
1, 28799, Note_on_c, 9, 36, 0
1, 28800, Note_on_c, 9, 36, 76
1, 29279, Note_on_c, 9, 36, 0
1, 36240, Note_on_c, 9, 36, 74
1, 36479, Note_on_c, 9, 36, 0
1, 36480, Note_on_c, 9, 36, 85
1, 36959, Note_on_c, 9, 36, 0
1, 43920, Note_on_c, 9, 36, 82
1, 44159, Note_on_c, 9, 36, 0
1, 44160, Note_on_c, 9, 36, 82
1, 44639, Note_on_c, 9, 36, 0
1, 47760, Note_on_c, 9, 36, 70
1, 47999, Note_on_c, 9, 36, 0
1, 48000, Note_on_c, 9, 36, 76
1, 48479, Note_on_c, 9, 36, 0
1, 51360, Note_on_c, 9, 36, 90
1, 51839, Note_on_c, 9, 36, 0
1, 51840, Note_on_c, 9, 36, 72
1, 52319, Note_on_c, 9, 36, 0
1, 53520, Note_on_c, 9, 36, 63
1, 53759, Note_on_c, 9, 36, 0
1, 53760, Note_on_c, 9, 36, 69
1, 54239, Note_on_c, 9, 36, 0
1, 55440, Note_on_c, 9, 36, 70
1, 55679, Note_on_c, 9, 36, 0
1, 55680, Note_on_c, 9, 36, 68
1, 56159, Note_on_c, 9, 36, 0
1, 57360, Note_on_c, 9, 36, 71
1, 57599, Note_on_c, 9, 36, 0
1, 57630, Note_on_c, 9, 36, 75
1, 57689, Note_on_c, 9, 36, 0
1, 59280, Note_on_c, 9, 36, 74
1, 59519, Note_on_c, 9, 36, 0
1, 59520, Note_on_c, 9, 36, 60
1, 59999, Note_on_c, 9, 36, 0
1, 61200, Note_on_c, 9, 36, 67
1, 61439, Note_on_c, 9, 36, 0
1, 61440, Note_on_c, 9, 36, 67
1, 61919, Note_on_c, 9, 36, 0
1, 63120, Note_on_c, 9, 36, 70
1, 63359, Note_on_c, 9, 36, 0
1, 63360, Note_on_c, 9, 36, 57
1, 63839, Note_on_c, 9, 36, 0
1, 65040, Note_on_c, 9, 36, 68
1, 65279, Note_on_c, 9, 36, 0
1, 65280, Note_on_c, 9, 36, 66
1, 65759, Note_on_c, 9, 36, 0
1, 66960, Note_on_c, 9, 36, 65
1, 67199, Note_on_c, 9, 36, 0
1, 67200, Note_on_c, 9, 36, 62
1, 67679, Note_on_c, 9, 36, 0
1, 68880, Note_on_c, 9, 36, 60
1, 69119, Note_on_c, 9, 36, 0
1, 69120, Note_on_c, 9, 36, 71
1, 69599, Note_on_c, 9, 36, 0
1, 70800, Note_on_c, 9, 36, 76
1, 71039, Note_on_c, 9, 36, 0
1, 71040, Note_on_c, 9, 36, 69
1, 71519, Note_on_c, 9, 36, 0
1, 72960, Note_on_c, 9, 36, 81
1, 73439, Note_on_c, 9, 36, 0
1, 78720, Note_on_c, 9, 36, 74
1, 79199, Note_on_c, 9, 36, 0
1, 79680, Note_on_c, 9, 36, 71
1, 80159, Note_on_c, 9, 36, 0
1, 80640, Note_on_c, 9, 36, 74
1, 81119, Note_on_c, 9, 36, 0
1, 81600, Note_on_c, 9, 36, 79
1, 82079, Note_on_c, 9, 36, 0
1, 82560, Note_on_c, 9, 36, 74
1, 83039, Note_on_c, 9, 36, 0
1, 83520, Note_on_c, 9, 36, 77
1, 83999, Note_on_c, 9, 36, 0
1, 84480, Note_on_c, 9, 36, 74
1, 84959, Note_on_c, 9, 36, 0
1, 85440, Note_on_c, 9, 36, 79
1, 85919, Note_on_c, 9, 36, 0
1, 86400, Note_on_c, 9, 36, 77
1, 86879, Note_on_c, 9, 36, 0
1, 87360, Note_on_c, 9, 36, 78
1, 87839, Note_on_c, 9, 36, 0
1, 88320, Note_on_c, 9, 36, 70
1, 88799, Note_on_c, 9, 36, 0
1, 89280, Note_on_c, 9, 36, 78
1, 89759, Note_on_c, 9, 36, 0
1, 90240, Note_on_c, 9, 36, 75
1, 90719, Note_on_c, 9, 36, 0
1, 91200, Note_on_c, 9, 36, 74
1, 91679, Note_on_c, 9, 36, 0
1, 92160, Note_on_c, 9, 36, 76
1, 92639, Note_on_c, 9, 36, 0
1, 93120, Note_on_c, 9, 36, 78
1, 93599, Note_on_c, 9, 36, 0
1, 94080, Note_on_c, 9, 36, 73
1, 94559, Note_on_c, 9, 36, 0
1, 95040, Note_on_c, 9, 36, 71
1, 95519, Note_on_c, 9, 36, 0
1, 96000, Note_on_c, 9, 36, 41
1, 96239, Note_on_c, 9, 36, 0
1, 96240, Note_on_c, 9, 36, 42
1, 96479, Note_on_c, 9, 36, 0
1, 96480, Note_on_c, 9, 36, 37
1, 96719, Note_on_c, 9, 36, 0
1, 96720, Note_on_c, 9, 36, 41
1, 96959, Note_on_c, 9, 36, 0
1, 96960, Note_on_c, 9, 36, 48
1, 97199, Note_on_c, 9, 36, 0
1, 97200, Note_on_c, 9, 36, 40
1, 97439, Note_on_c, 9, 36, 0
1, 97440, Note_on_c, 9, 36, 40
1, 97679, Note_on_c, 9, 36, 0
1, 97680, Note_on_c, 9, 36, 40
1, 97919, Note_on_c, 9, 36, 0
1, 97920, Note_on_c, 9, 36, 45
1, 98159, Note_on_c, 9, 36, 0
1, 98160, Note_on_c, 9, 36, 43
1, 98399, Note_on_c, 9, 36, 0
1, 98400, Note_on_c, 9, 36, 55
1, 98639, Note_on_c, 9, 36, 0
1, 98640, Note_on_c, 9, 36, 46
1, 98879, Note_on_c, 9, 36, 0
1, 98880, Note_on_c, 9, 36, 59
1, 99119, Note_on_c, 9, 36, 0
1, 99120, Note_on_c, 9, 36, 70
1, 99359, Note_on_c, 9, 36, 0
1, 99360, Note_on_c, 9, 36, 75
1, 99599, Note_on_c, 9, 36, 0
1, 99600, Note_on_c, 9, 36, 86
1, 99839, Note_on_c, 9, 36, 0
1, 99840, Note_on_c, 9, 36, 65
1, 100319, Note_on_c, 9, 36, 0
1, 101760, Note_on_c, 9, 36, 74
1, 102239, Note_on_c, 9, 36, 0
1, 103680, Note_on_c, 9, 36, 59
1, 104159, Note_on_c, 9, 36, 0
1, 105600, Note_on_c, 9, 36, 67
1, 106079, Note_on_c, 9, 36, 0
1, 107520, Note_on_c, 9, 36, 65
1, 107999, Note_on_c, 9, 36, 0
1, 109440, Note_on_c, 9, 36, 66
1, 109919, Note_on_c, 9, 36, 0
1, 111360, Note_on_c, 9, 36, 69
1, 111839, Note_on_c, 9, 36, 0
1, 113040, Note_on_c, 9, 36, 55
1, 113279, Note_on_c, 9, 36, 0
1, 113280, Note_on_c, 9, 36, 70
1, 113759, Note_on_c, 9, 36, 0
1, 118800, Note_on_c, 9, 36, 57
1, 119039, Note_on_c, 9, 36, 0
1, 119040, Note_on_c, 9, 36, 76
1, 119519, Note_on_c, 9, 36, 0
1, 126480, Note_on_c, 9, 36, 74
1, 126719, Note_on_c, 9, 36, 0
1, 126720, Note_on_c, 9, 36, 85
1, 127199, Note_on_c, 9, 36, 0
1, 134160, Note_on_c, 9, 36, 82
1, 134399, Note_on_c, 9, 36, 0
1, 134400, Note_on_c, 9, 36, 82
1, 134879, Note_on_c, 9, 36, 0
1, 138000, Note_on_c, 9, 36, 70
1, 138239, Note_on_c, 9, 36, 0
1, 138240, Note_on_c, 9, 36, 76
1, 138719, Note_on_c, 9, 36, 0
1, 141600, Note_on_c, 9, 36, 90
1, 142079, Note_on_c, 9, 36, 0
1, 142080, Note_on_c, 9, 36, 72
1, 142559, Note_on_c, 9, 36, 0
1, 143760, Note_on_c, 9, 36, 63
1, 143999, Note_on_c, 9, 36, 0
1, 144000, Note_on_c, 9, 36, 69
1, 144479, Note_on_c, 9, 36, 0
1, 145680, Note_on_c, 9, 36, 70
1, 145919, Note_on_c, 9, 36, 0
1, 145920, Note_on_c, 9, 36, 68
1, 146399, Note_on_c, 9, 36, 0
1, 147600, Note_on_c, 9, 36, 71
1, 147839, Note_on_c, 9, 36, 0
1, 147870, Note_on_c, 9, 36, 75
1, 147929, Note_on_c, 9, 36, 0
1, 149520, Note_on_c, 9, 36, 74
1, 149759, Note_on_c, 9, 36, 0
1, 149760, Note_on_c, 9, 36, 60
1, 150239, Note_on_c, 9, 36, 0
1, 151440, Note_on_c, 9, 36, 67
1, 151679, Note_on_c, 9, 36, 0
1, 151680, Note_on_c, 9, 36, 67
1, 152159, Note_on_c, 9, 36, 0
1, 153360, Note_on_c, 9, 36, 70
1, 153599, Note_on_c, 9, 36, 0
1, 153600, Note_on_c, 9, 36, 57
1, 154079, Note_on_c, 9, 36, 0
1, 155280, Note_on_c, 9, 36, 68
1, 155519, Note_on_c, 9, 36, 0
1, 155520, Note_on_c, 9, 36, 66
1, 155999, Note_on_c, 9, 36, 0
1, 157200, Note_on_c, 9, 36, 65
1, 157439, Note_on_c, 9, 36, 0
1, 157440, Note_on_c, 9, 36, 62
1, 157919, Note_on_c, 9, 36, 0
1, 159120, Note_on_c, 9, 36, 60
1, 159359, Note_on_c, 9, 36, 0
1, 159360, Note_on_c, 9, 36, 71
1, 159839, Note_on_c, 9, 36, 0
1, 161040, Note_on_c, 9, 36, 76
1, 161279, Note_on_c, 9, 36, 0
1, 161280, Note_on_c, 9, 36, 69
1, 161759, Note_on_c, 9, 36, 0
1, 163200, Note_on_c, 9, 36, 81
1, 163679, Note_on_c, 9, 36, 0
1, 168960, Note_on_c, 9, 36, 74
1, 169439, Note_on_c, 9, 36, 0
1, 169920, Note_on_c, 9, 36, 71
1, 170399, Note_on_c, 9, 36, 0
1, 170880, Note_on_c, 9, 36, 74
1, 171359, Note_on_c, 9, 36, 0
1, 171840, Note_on_c, 9, 36, 79
1, 172319, Note_on_c, 9, 36, 0
1, 172800, Note_on_c, 9, 36, 74
1, 173279, Note_on_c, 9, 36, 0
1, 173760, Note_on_c, 9, 36, 77
1, 174239, Note_on_c, 9, 36, 0
1, 174720, Note_on_c, 9, 36, 74
1, 175199, Note_on_c, 9, 36, 0
1, 175680, Note_on_c, 9, 36, 79
1, 176159, Note_on_c, 9, 36, 0
1, 176640, Note_on_c, 9, 36, 77
1, 177119, Note_on_c, 9, 36, 0
1, 177600, Note_on_c, 9, 36, 78
1, 178079, Note_on_c, 9, 36, 0
1, 178560, Note_on_c, 9, 36, 70
1, 179039, Note_on_c, 9, 36, 0
1, 179520, Note_on_c, 9, 36, 78
1, 179999, Note_on_c, 9, 36, 0
1, 180480, Note_on_c, 9, 36, 75
1, 180959, Note_on_c, 9, 36, 0
1, 181440, Note_on_c, 9, 36, 74
1, 181919, Note_on_c, 9, 36, 0
1, 182400, Note_on_c, 9, 36, 76
1, 182879, Note_on_c, 9, 36, 0
1, 183360, Note_on_c, 9, 36, 78
1, 183839, Note_on_c, 9, 36, 0
1, 184320, Note_on_c, 9, 36, 73
1, 184799, Note_on_c, 9, 36, 0
1, 185280, Note_on_c, 9, 36, 71
1, 185759, Note_on_c, 9, 36, 0
1, 186240, Note_on_c, 9, 36, 41
1, 186479, Note_on_c, 9, 36, 0
1, 186480, Note_on_c, 9, 36, 42
1, 186719, Note_on_c, 9, 36, 0
1, 186720, Note_on_c, 9, 36, 37
1, 186959, Note_on_c, 9, 36, 0
1, 186960, Note_on_c, 9, 36, 41
1, 187199, Note_on_c, 9, 36, 0
1, 187200, Note_on_c, 9, 36, 48
1, 187439, Note_on_c, 9, 36, 0
1, 187440, Note_on_c, 9, 36, 40
1, 187679, Note_on_c, 9, 36, 0
1, 187680, Note_on_c, 9, 36, 40
1, 187919, Note_on_c, 9, 36, 0
1, 187920, Note_on_c, 9, 36, 40
1, 188159, Note_on_c, 9, 36, 0
1, 188160, Note_on_c, 9, 36, 45
1, 188399, Note_on_c, 9, 36, 0
1, 188400, Note_on_c, 9, 36, 43
1, 188639, Note_on_c, 9, 36, 0
1, 188640, Note_on_c, 9, 36, 55
1, 188879, Note_on_c, 9, 36, 0
1, 188880, Note_on_c, 9, 36, 46
1, 189119, Note_on_c, 9, 36, 0
1, 189120, Note_on_c, 9, 36, 59
1, 189359, Note_on_c, 9, 36, 0
1, 189360, Note_on_c, 9, 36, 70
1, 189599, Note_on_c, 9, 36, 0
1, 189600, Note_on_c, 9, 36, 75
1, 189839, Note_on_c, 9, 36, 0
1, 189840, Note_on_c, 9, 36, 86
1, 190079, Note_on_c, 9, 36, 0
1, 190080, Note_on_c, 9, 36, 65
1, 190559, Note_on_c, 9, 36, 0
1, 192000, Note_on_c, 9, 36, 74
1, 192479, Note_on_c, 9, 36, 0
1, 193920, Note_on_c, 9, 36, 59
1, 194399, Note_on_c, 9, 36, 0
1, 195840, Note_on_c, 9, 36, 67
1, 196319, Note_on_c, 9, 36, 0
1, 197760, Note_on_c, 9, 36, 65
1, 198239, Note_on_c, 9, 36, 0
1, 199680, Note_on_c, 9, 36, 66
1, 200159, Note_on_c, 9, 36, 0
1, 201600, Note_on_c, 9, 36, 59
1, 202079, Note_on_c, 9, 36, 0
1, 203520, Note_on_c, 9, 36, 67
1, 203999, Note_on_c, 9, 36, 0
1, 205440, Note_on_c, 9, 36, 65
1, 205919, Note_on_c, 9, 36, 0
1, 207360, Note_on_c, 9, 36, 66
1, 207839, Note_on_c, 9, 36, 0
1, 209280, Note_on_c, 9, 36, 59
1, 209759, Note_on_c, 9, 36, 0
1, 211200, Note_on_c, 9, 36, 67
1, 211679, Note_on_c, 9, 36, 0
1, 213120, Note_on_c, 9, 36, 65
1, 213599, Note_on_c, 9, 36, 0
1, 215040, Note_on_c, 9, 36, 66
1, 215519, Note_on_c, 9, 36, 0
1, 216960, Note_on_c, 9, 36, 59
1, 217439, Note_on_c, 9, 36, 0
1, 217440, End_track
2, 0, Start_track
2, 0, Key_signature, 0, "major"
2, 0, Control_c, 9, 121, 0
2, 0, Program_c, 9, 0
2, 0, Control_c, 9, 7, 100
2, 0, Control_c, 9, 10, 64
2, 0, Control_c, 9, 91, 0
2, 0, Control_c, 9, 93, 0
2, 0, MIDI_port, 0
2, 100320, Note_on_c, 9, 37, 69
2, 100799, Note_on_c, 9, 37, 0
2, 101280, Note_on_c, 9, 37, 74
2, 101759, Note_on_c, 9, 37, 0
2, 102240, Note_on_c, 9, 37, 76
2, 102719, Note_on_c, 9, 37, 0
2, 103200, Note_on_c, 9, 37, 73
2, 103679, Note_on_c, 9, 37, 0
2, 104160, Note_on_c, 9, 37, 71
2, 104639, Note_on_c, 9, 37, 0
2, 105120, Note_on_c, 9, 37, 75
2, 105599, Note_on_c, 9, 37, 0
2, 106080, Note_on_c, 9, 37, 76
2, 106559, Note_on_c, 9, 37, 0
2, 107040, Note_on_c, 9, 37, 77
2, 107519, Note_on_c, 9, 37, 0
2, 108000, Note_on_c, 9, 37, 77
2, 108479, Note_on_c, 9, 37, 0
2, 108960, Note_on_c, 9, 37, 73
2, 109439, Note_on_c, 9, 37, 0
2, 109920, Note_on_c, 9, 37, 75
2, 110399, Note_on_c, 9, 37, 0
2, 110880, Note_on_c, 9, 37, 77
2, 111359, Note_on_c, 9, 37, 0
2, 111840, Note_on_c, 9, 37, 77
2, 112319, Note_on_c, 9, 37, 0
2, 112800, Note_on_c, 9, 37, 80
2, 113279, Note_on_c, 9, 37, 0
2, 190560, Note_on_c, 9, 37, 69
2, 191039, Note_on_c, 9, 37, 0
2, 191520, Note_on_c, 9, 37, 74
2, 191999, Note_on_c, 9, 37, 0
2, 192480, Note_on_c, 9, 37, 76
2, 192959, Note_on_c, 9, 37, 0
2, 193440, Note_on_c, 9, 37, 73
2, 193919, Note_on_c, 9, 37, 0
2, 194400, Note_on_c, 9, 37, 71
2, 194879, Note_on_c, 9, 37, 0
2, 195360, Note_on_c, 9, 37, 75
2, 195839, Note_on_c, 9, 37, 0
2, 196320, Note_on_c, 9, 37, 76
2, 196799, Note_on_c, 9, 37, 0
2, 197280, Note_on_c, 9, 37, 77
2, 197759, Note_on_c, 9, 37, 0
2, 198240, Note_on_c, 9, 37, 77
2, 198719, Note_on_c, 9, 37, 0
2, 199200, Note_on_c, 9, 37, 73
2, 199679, Note_on_c, 9, 37, 0
2, 200160, Note_on_c, 9, 37, 75
2, 200639, Note_on_c, 9, 37, 0
2, 201120, Note_on_c, 9, 37, 77
2, 201599, Note_on_c, 9, 37, 0
2, 202080, Note_on_c, 9, 37, 71
2, 202559, Note_on_c, 9, 37, 0
2, 203040, Note_on_c, 9, 37, 75
2, 203519, Note_on_c, 9, 37, 0
2, 204000, Note_on_c, 9, 37, 76
2, 204479, Note_on_c, 9, 37, 0
2, 204960, Note_on_c, 9, 37, 77
2, 205439, Note_on_c, 9, 37, 0
2, 205920, Note_on_c, 9, 37, 77
2, 206399, Note_on_c, 9, 37, 0
2, 206880, Note_on_c, 9, 37, 73
2, 207359, Note_on_c, 9, 37, 0
2, 207840, Note_on_c, 9, 37, 75
2, 208319, Note_on_c, 9, 37, 0
2, 208800, Note_on_c, 9, 37, 77
2, 209279, Note_on_c, 9, 37, 0
2, 209760, Note_on_c, 9, 37, 71
2, 210239, Note_on_c, 9, 37, 0
2, 210720, Note_on_c, 9, 37, 75
2, 211199, Note_on_c, 9, 37, 0
2, 211680, Note_on_c, 9, 37, 76
2, 212159, Note_on_c, 9, 37, 0
2, 212640, Note_on_c, 9, 37, 77
2, 213119, Note_on_c, 9, 37, 0
2, 213600, Note_on_c, 9, 37, 77
2, 214079, Note_on_c, 9, 37, 0
2, 214560, Note_on_c, 9, 37, 73
2, 215039, Note_on_c, 9, 37, 0
2, 215520, Note_on_c, 9, 37, 75
2, 215999, Note_on_c, 9, 37, 0
2, 216480, Note_on_c, 9, 37, 77
2, 216959, Note_on_c, 9, 37, 0
2, 217440, Note_on_c, 9, 37, 71
2, 217919, Note_on_c, 9, 37, 0
2, 218400, Note_on_c, 9, 37, 75
2, 218879, Note_on_c, 9, 37, 0
2, 218880, End_track
3, 0, Start_track
3, 0, Key_signature, 0, "major"
3, 0, Control_c, 9, 121, 0
3, 0, Program_c, 9, 0
3, 0, Control_c, 9, 7, 100
3, 0, Control_c, 9, 10, 64
3, 0, Control_c, 9, 91, 0
3, 0, Control_c, 9, 93, 0
3, 0, MIDI_port, 0
3, 51120, Note_on_c, 9, 38, 59
3, 51239, Note_on_c, 9, 38, 0
3, 51240, Note_on_c, 9, 38, 74
3, 51359, Note_on_c, 9, 38, 0
3, 79200, Note_on_c, 9, 38, 73
3, 79679, Note_on_c, 9, 38, 0
3, 80160, Note_on_c, 9, 38, 73
3, 80639, Note_on_c, 9, 38, 0
3, 81120, Note_on_c, 9, 38, 77
3, 81599, Note_on_c, 9, 38, 0
3, 82080, Note_on_c, 9, 38, 74
3, 82559, Note_on_c, 9, 38, 0
3, 83040, Note_on_c, 9, 38, 74
3, 83519, Note_on_c, 9, 38, 0
3, 84000, Note_on_c, 9, 38, 78
3, 84479, Note_on_c, 9, 38, 0
3, 84960, Note_on_c, 9, 38, 77
3, 85439, Note_on_c, 9, 38, 0
3, 85920, Note_on_c, 9, 38, 76
3, 86399, Note_on_c, 9, 38, 0
3, 86880, Note_on_c, 9, 38, 69
3, 87359, Note_on_c, 9, 38, 0
3, 87840, Note_on_c, 9, 38, 69
3, 88319, Note_on_c, 9, 38, 0
3, 88800, Note_on_c, 9, 38, 71
3, 89279, Note_on_c, 9, 38, 0
3, 89760, Note_on_c, 9, 38, 61
3, 90239, Note_on_c, 9, 38, 0
3, 90720, Note_on_c, 9, 38, 73
3, 91199, Note_on_c, 9, 38, 0
3, 91680, Note_on_c, 9, 38, 74
3, 92159, Note_on_c, 9, 38, 0
3, 92640, Note_on_c, 9, 38, 78
3, 93119, Note_on_c, 9, 38, 0
3, 93600, Note_on_c, 9, 38, 74
3, 94079, Note_on_c, 9, 38, 0
3, 94560, Note_on_c, 9, 38, 82
3, 95039, Note_on_c, 9, 38, 0
3, 95520, Note_on_c, 9, 38, 68
3, 95759, Note_on_c, 9, 38, 0
3, 95760, Note_on_c, 9, 38, 65
3, 95999, Note_on_c, 9, 38, 0
3, 141360, Note_on_c, 9, 38, 59
3, 141479, Note_on_c, 9, 38, 0
3, 141480, Note_on_c, 9, 38, 74
3, 141599, Note_on_c, 9, 38, 0
3, 169440, Note_on_c, 9, 38, 73
3, 169919, Note_on_c, 9, 38, 0
3, 170400, Note_on_c, 9, 38, 73
3, 170879, Note_on_c, 9, 38, 0
3, 171360, Note_on_c, 9, 38, 77
3, 171839, Note_on_c, 9, 38, 0
3, 172320, Note_on_c, 9, 38, 74
3, 172799, Note_on_c, 9, 38, 0
3, 173280, Note_on_c, 9, 38, 74
3, 173759, Note_on_c, 9, 38, 0
3, 174240, Note_on_c, 9, 38, 78
3, 174719, Note_on_c, 9, 38, 0
3, 175200, Note_on_c, 9, 38, 77
3, 175679, Note_on_c, 9, 38, 0
3, 176160, Note_on_c, 9, 38, 76
3, 176639, Note_on_c, 9, 38, 0
3, 177120, Note_on_c, 9, 38, 69
3, 177599, Note_on_c, 9, 38, 0
3, 178080, Note_on_c, 9, 38, 69
3, 178559, Note_on_c, 9, 38, 0
3, 179040, Note_on_c, 9, 38, 71
3, 179519, Note_on_c, 9, 38, 0
3, 180000, Note_on_c, 9, 38, 61
3, 180479, Note_on_c, 9, 38, 0
3, 180960, Note_on_c, 9, 38, 73
3, 181439, Note_on_c, 9, 38, 0
3, 181920, Note_on_c, 9, 38, 74
3, 182399, Note_on_c, 9, 38, 0
3, 182880, Note_on_c, 9, 38, 78
3, 183359, Note_on_c, 9, 38, 0
3, 183840, Note_on_c, 9, 38, 74
3, 184319, Note_on_c, 9, 38, 0
3, 184800, Note_on_c, 9, 38, 82
3, 185279, Note_on_c, 9, 38, 0
3, 185760, Note_on_c, 9, 38, 68
3, 185999, Note_on_c, 9, 38, 0
3, 186000, Note_on_c, 9, 38, 65
3, 186239, Note_on_c, 9, 38, 0
3, 186240, End_track
4, 0, Start_track
4, 0, Key_signature, 0, "major"
4, 0, Control_c, 9, 121, 0
4, 0, Program_c, 9, 0
4, 0, Control_c, 9, 7, 100
4, 0, Control_c, 9, 10, 64
4, 0, Control_c, 9, 91, 0
4, 0, Control_c, 9, 93, 0
4, 0, MIDI_port, 0
4, 51600, Note_on_c, 9, 40, 78
4, 51839, Note_on_c, 9, 40, 0
4, 52320, Note_on_c, 9, 40, 78
4, 52799, Note_on_c, 9, 40, 0
4, 53280, Note_on_c, 9, 40, 79
4, 53759, Note_on_c, 9, 40, 0
4, 54240, Note_on_c, 9, 40, 69
4, 54719, Note_on_c, 9, 40, 0
4, 55200, Note_on_c, 9, 40, 79
4, 55679, Note_on_c, 9, 40, 0
4, 56160, Note_on_c, 9, 40, 73
4, 56639, Note_on_c, 9, 40, 0
4, 57120, Note_on_c, 9, 40, 77
4, 57599, Note_on_c, 9, 40, 0
4, 58080, Note_on_c, 9, 40, 74
4, 58559, Note_on_c, 9, 40, 0
4, 59040, Note_on_c, 9, 40, 71
4, 59519, Note_on_c, 9, 40, 0
4, 60000, Note_on_c, 9, 40, 75
4, 60479, Note_on_c, 9, 40, 0
4, 60960, Note_on_c, 9, 40, 74
4, 61439, Note_on_c, 9, 40, 0
4, 61920, Note_on_c, 9, 40, 74
4, 62399, Note_on_c, 9, 40, 0
4, 62880, Note_on_c, 9, 40, 74
4, 63359, Note_on_c, 9, 40, 0
4, 63840, Note_on_c, 9, 40, 71
4, 64319, Note_on_c, 9, 40, 0
4, 64800, Note_on_c, 9, 40, 73
4, 65279, Note_on_c, 9, 40, 0
4, 65760, Note_on_c, 9, 40, 70
4, 66239, Note_on_c, 9, 40, 0
4, 66720, Note_on_c, 9, 40, 64
4, 67199, Note_on_c, 9, 40, 0
4, 67680, Note_on_c, 9, 40, 67
4, 68159, Note_on_c, 9, 40, 0
4, 68640, Note_on_c, 9, 40, 79
4, 69119, Note_on_c, 9, 40, 0
4, 69600, Note_on_c, 9, 40, 59
4, 70079, Note_on_c, 9, 40, 0
4, 70560, Note_on_c, 9, 40, 60
4, 70799, Note_on_c, 9, 40, 0
4, 70800, Note_on_c, 9, 40, 44
4, 71039, Note_on_c, 9, 40, 0
4, 74880, Note_on_c, 9, 40, 27
4, 75119, Note_on_c, 9, 40, 0
4, 75120, Note_on_c, 9, 40, 35
4, 75359, Note_on_c, 9, 40, 0
4, 75360, Note_on_c, 9, 40, 41
4, 75599, Note_on_c, 9, 40, 0
4, 75600, Note_on_c, 9, 40, 44
4, 75839, Note_on_c, 9, 40, 0
4, 75840, Note_on_c, 9, 40, 51
4, 76079, Note_on_c, 9, 40, 0
4, 76080, Note_on_c, 9, 40, 50
4, 76319, Note_on_c, 9, 40, 0
4, 76320, Note_on_c, 9, 40, 55
4, 76559, Note_on_c, 9, 40, 0
4, 76560, Note_on_c, 9, 40, 51
4, 76799, Note_on_c, 9, 40, 0
4, 76800, Note_on_c, 9, 40, 68
4, 77039, Note_on_c, 9, 40, 0
4, 77040, Note_on_c, 9, 40, 71
4, 77279, Note_on_c, 9, 40, 0
4, 77280, Note_on_c, 9, 40, 73
4, 77519, Note_on_c, 9, 40, 0
4, 77520, Note_on_c, 9, 40, 70
4, 77759, Note_on_c, 9, 40, 0
4, 77760, Note_on_c, 9, 40, 78
4, 77999, Note_on_c, 9, 40, 0
4, 78000, Note_on_c, 9, 40, 74
4, 78239, Note_on_c, 9, 40, 0
4, 78240, Note_on_c, 9, 40, 79
4, 78479, Note_on_c, 9, 40, 0
4, 78480, Note_on_c, 9, 40, 78
4, 78719, Note_on_c, 9, 40, 0
4, 96000, Note_on_c, 9, 40, 54
4, 96239, Note_on_c, 9, 40, 0
4, 96240, Note_on_c, 9, 40, 53
4, 96479, Note_on_c, 9, 40, 0
4, 96480, Note_on_c, 9, 40, 45
4, 96719, Note_on_c, 9, 40, 0
4, 96720, Note_on_c, 9, 40, 42
4, 96959, Note_on_c, 9, 40, 0
4, 96960, Note_on_c, 9, 40, 47
4, 97199, Note_on_c, 9, 40, 0
4, 97200, Note_on_c, 9, 40, 43
4, 97439, Note_on_c, 9, 40, 0
4, 97440, Note_on_c, 9, 40, 51
4, 97679, Note_on_c, 9, 40, 0
4, 97680, Note_on_c, 9, 40, 48
4, 97919, Note_on_c, 9, 40, 0
4, 97920, Note_on_c, 9, 40, 64
4, 98159, Note_on_c, 9, 40, 0
4, 98160, Note_on_c, 9, 40, 64
4, 98399, Note_on_c, 9, 40, 0
4, 98400, Note_on_c, 9, 40, 64
4, 98639, Note_on_c, 9, 40, 0
4, 98640, Note_on_c, 9, 40, 66
4, 98879, Note_on_c, 9, 40, 0
4, 98880, Note_on_c, 9, 40, 80
4, 99119, Note_on_c, 9, 40, 0
4, 99120, Note_on_c, 9, 40, 71
4, 99359, Note_on_c, 9, 40, 0
4, 99360, Note_on_c, 9, 40, 77
4, 99599, Note_on_c, 9, 40, 0
4, 99600, Note_on_c, 9, 40, 85
4, 99839, Note_on_c, 9, 40, 0
4, 141840, Note_on_c, 9, 40, 78
4, 142079, Note_on_c, 9, 40, 0
4, 142560, Note_on_c, 9, 40, 78
4, 143039, Note_on_c, 9, 40, 0
4, 143520, Note_on_c, 9, 40, 79
4, 143999, Note_on_c, 9, 40, 0
4, 144480, Note_on_c, 9, 40, 69
4, 144959, Note_on_c, 9, 40, 0
4, 145440, Note_on_c, 9, 40, 79
4, 145919, Note_on_c, 9, 40, 0
4, 146400, Note_on_c, 9, 40, 73
4, 146879, Note_on_c, 9, 40, 0
4, 147360, Note_on_c, 9, 40, 77
4, 147839, Note_on_c, 9, 40, 0
4, 148320, Note_on_c, 9, 40, 74
4, 148799, Note_on_c, 9, 40, 0
4, 149280, Note_on_c, 9, 40, 71
4, 149759, Note_on_c, 9, 40, 0
4, 150240, Note_on_c, 9, 40, 75
4, 150719, Note_on_c, 9, 40, 0
4, 151200, Note_on_c, 9, 40, 74
4, 151679, Note_on_c, 9, 40, 0
4, 152160, Note_on_c, 9, 40, 74
4, 152639, Note_on_c, 9, 40, 0
4, 153120, Note_on_c, 9, 40, 74
4, 153599, Note_on_c, 9, 40, 0
4, 154080, Note_on_c, 9, 40, 71
4, 154559, Note_on_c, 9, 40, 0
4, 155040, Note_on_c, 9, 40, 73
4, 155519, Note_on_c, 9, 40, 0
4, 156000, Note_on_c, 9, 40, 70
4, 156479, Note_on_c, 9, 40, 0
4, 156960, Note_on_c, 9, 40, 64
4, 157439, Note_on_c, 9, 40, 0
4, 157920, Note_on_c, 9, 40, 67
4, 158399, Note_on_c, 9, 40, 0
4, 158880, Note_on_c, 9, 40, 79
4, 159359, Note_on_c, 9, 40, 0
4, 159840, Note_on_c, 9, 40, 59
4, 160319, Note_on_c, 9, 40, 0
4, 160800, Note_on_c, 9, 40, 60
4, 161039, Note_on_c, 9, 40, 0
4, 161040, Note_on_c, 9, 40, 44
4, 161279, Note_on_c, 9, 40, 0
4, 165120, Note_on_c, 9, 40, 27
4, 165359, Note_on_c, 9, 40, 0
4, 165360, Note_on_c, 9, 40, 35
4, 165599, Note_on_c, 9, 40, 0
4, 165600, Note_on_c, 9, 40, 41
4, 165839, Note_on_c, 9, 40, 0
4, 165840, Note_on_c, 9, 40, 44
4, 166079, Note_on_c, 9, 40, 0
4, 166080, Note_on_c, 9, 40, 51
4, 166319, Note_on_c, 9, 40, 0
4, 166320, Note_on_c, 9, 40, 50
4, 166559, Note_on_c, 9, 40, 0
4, 166560, Note_on_c, 9, 40, 55
4, 166799, Note_on_c, 9, 40, 0
4, 166800, Note_on_c, 9, 40, 51
4, 167039, Note_on_c, 9, 40, 0
4, 167040, Note_on_c, 9, 40, 68
4, 167279, Note_on_c, 9, 40, 0
4, 167280, Note_on_c, 9, 40, 71
4, 167519, Note_on_c, 9, 40, 0
4, 167520, Note_on_c, 9, 40, 73
4, 167759, Note_on_c, 9, 40, 0
4, 167760, Note_on_c, 9, 40, 70
4, 167999, Note_on_c, 9, 40, 0
4, 168000, Note_on_c, 9, 40, 78
4, 168239, Note_on_c, 9, 40, 0
4, 168240, Note_on_c, 9, 40, 74
4, 168479, Note_on_c, 9, 40, 0
4, 168480, Note_on_c, 9, 40, 79
4, 168719, Note_on_c, 9, 40, 0
4, 168720, Note_on_c, 9, 40, 78
4, 168959, Note_on_c, 9, 40, 0
4, 186240, Note_on_c, 9, 40, 54
4, 186479, Note_on_c, 9, 40, 0
4, 186480, Note_on_c, 9, 40, 53
4, 186719, Note_on_c, 9, 40, 0
4, 186720, Note_on_c, 9, 40, 45
4, 186959, Note_on_c, 9, 40, 0
4, 186960, Note_on_c, 9, 40, 42
4, 187199, Note_on_c, 9, 40, 0
4, 187200, Note_on_c, 9, 40, 47
4, 187439, Note_on_c, 9, 40, 0
4, 187440, Note_on_c, 9, 40, 43
4, 187679, Note_on_c, 9, 40, 0
4, 187680, Note_on_c, 9, 40, 51
4, 187919, Note_on_c, 9, 40, 0
4, 187920, Note_on_c, 9, 40, 48
4, 188159, Note_on_c, 9, 40, 0
4, 188160, Note_on_c, 9, 40, 64
4, 188399, Note_on_c, 9, 40, 0
4, 188400, Note_on_c, 9, 40, 64
4, 188639, Note_on_c, 9, 40, 0
4, 188640, Note_on_c, 9, 40, 64
4, 188879, Note_on_c, 9, 40, 0
4, 188880, Note_on_c, 9, 40, 66
4, 189119, Note_on_c, 9, 40, 0
4, 189120, Note_on_c, 9, 40, 80
4, 189359, Note_on_c, 9, 40, 0
4, 189360, Note_on_c, 9, 40, 71
4, 189599, Note_on_c, 9, 40, 0
4, 189600, Note_on_c, 9, 40, 77
4, 189839, Note_on_c, 9, 40, 0
4, 189840, Note_on_c, 9, 40, 85
4, 190079, Note_on_c, 9, 40, 0
4, 190080, End_track
5, 0, Start_track
5, 0, Key_signature, 0, "major"
5, 0, Control_c, 9, 121, 0
5, 0, Program_c, 9, 0
5, 0, Control_c, 9, 7, 100
5, 0, Control_c, 9, 10, 64
5, 0, Control_c, 9, 91, 0
5, 0, Control_c, 9, 93, 0
5, 0, MIDI_port, 0
5, 23040, Note_on_c, 9, 42, 89
5, 23519, Note_on_c, 9, 42, 0
5, 23520, Note_on_c, 9, 42, 71
5, 23999, Note_on_c, 9, 42, 0
5, 24000, Note_on_c, 9, 42, 64
5, 24479, Note_on_c, 9, 42, 0
5, 24480, Note_on_c, 9, 42, 63
5, 24959, Note_on_c, 9, 42, 0
5, 24960, Note_on_c, 9, 42, 61
5, 25439, Note_on_c, 9, 42, 0
5, 25440, Note_on_c, 9, 42, 58
5, 25919, Note_on_c, 9, 42, 0
5, 25920, Note_on_c, 9, 42, 65
5, 26399, Note_on_c, 9, 42, 0
5, 26400, Note_on_c, 9, 42, 58
5, 26879, Note_on_c, 9, 42, 0
5, 26880, Note_on_c, 9, 42, 64
5, 27359, Note_on_c, 9, 42, 0
5, 27360, Note_on_c, 9, 42, 61
5, 27839, Note_on_c, 9, 42, 0
5, 27840, Note_on_c, 9, 42, 69
5, 28319, Note_on_c, 9, 42, 0
5, 28320, Note_on_c, 9, 42, 73
5, 28799, Note_on_c, 9, 42, 0
5, 28800, Note_on_c, 9, 42, 70
5, 29279, Note_on_c, 9, 42, 0
5, 29280, Note_on_c, 9, 42, 57
5, 29759, Note_on_c, 9, 42, 0
5, 29760, Note_on_c, 9, 42, 59
5, 30239, Note_on_c, 9, 42, 0
5, 30240, Note_on_c, 9, 42, 61
5, 30719, Note_on_c, 9, 42, 0
5, 30720, Note_on_c, 9, 42, 67
5, 31199, Note_on_c, 9, 42, 0
5, 31200, Note_on_c, 9, 42, 65
5, 31679, Note_on_c, 9, 42, 0
5, 31680, Note_on_c, 9, 42, 60
5, 32159, Note_on_c, 9, 42, 0
5, 32160, Note_on_c, 9, 42, 62
5, 32639, Note_on_c, 9, 42, 0
5, 32640, Note_on_c, 9, 42, 62
5, 33119, Note_on_c, 9, 42, 0
5, 33120, Note_on_c, 9, 42, 57
5, 33599, Note_on_c, 9, 42, 0
5, 33600, Note_on_c, 9, 42, 62
5, 34079, Note_on_c, 9, 42, 0
5, 34080, Note_on_c, 9, 42, 58
5, 34559, Note_on_c, 9, 42, 0
5, 34560, Note_on_c, 9, 42, 59
5, 35039, Note_on_c, 9, 42, 0
5, 35040, Note_on_c, 9, 42, 57
5, 35519, Note_on_c, 9, 42, 0
5, 35520, Note_on_c, 9, 42, 60
5, 35999, Note_on_c, 9, 42, 0
5, 36000, Note_on_c, 9, 42, 63
5, 36479, Note_on_c, 9, 42, 0
5, 36480, Note_on_c, 9, 42, 70
5, 36959, Note_on_c, 9, 42, 0
5, 36960, Note_on_c, 9, 42, 67
5, 37439, Note_on_c, 9, 42, 0
5, 37440, Note_on_c, 9, 42, 68
5, 37919, Note_on_c, 9, 42, 0
5, 37920, Note_on_c, 9, 42, 63
5, 38399, Note_on_c, 9, 42, 0
5, 38400, Note_on_c, 9, 42, 67
5, 38879, Note_on_c, 9, 42, 0
5, 38880, Note_on_c, 9, 42, 71
5, 39359, Note_on_c, 9, 42, 0
5, 39360, Note_on_c, 9, 42, 67
5, 39839, Note_on_c, 9, 42, 0
5, 39840, Note_on_c, 9, 42, 71
5, 40319, Note_on_c, 9, 42, 0
5, 40320, Note_on_c, 9, 42, 72
5, 40799, Note_on_c, 9, 42, 0
5, 40800, Note_on_c, 9, 42, 73
5, 41279, Note_on_c, 9, 42, 0
5, 41280, Note_on_c, 9, 42, 77
5, 41759, Note_on_c, 9, 42, 0
5, 41760, Note_on_c, 9, 42, 76
5, 42239, Note_on_c, 9, 42, 0
5, 42240, Note_on_c, 9, 42, 78
5, 42719, Note_on_c, 9, 42, 0
5, 42720, Note_on_c, 9, 42, 73
5, 43199, Note_on_c, 9, 42, 0
5, 43200, Note_on_c, 9, 42, 68
5, 43679, Note_on_c, 9, 42, 0
5, 43680, Note_on_c, 9, 42, 72
5, 44159, Note_on_c, 9, 42, 0
5, 44160, Note_on_c, 9, 42, 72
5, 44639, Note_on_c, 9, 42, 0
5, 44640, Note_on_c, 9, 42, 71
5, 45119, Note_on_c, 9, 42, 0
5, 45120, Note_on_c, 9, 42, 69
5, 45599, Note_on_c, 9, 42, 0
5, 45600, Note_on_c, 9, 42, 71
5, 46079, Note_on_c, 9, 42, 0
5, 46080, Note_on_c, 9, 42, 71
5, 46559, Note_on_c, 9, 42, 0
5, 46560, Note_on_c, 9, 42, 67
5, 47039, Note_on_c, 9, 42, 0
5, 47040, Note_on_c, 9, 42, 61
5, 47519, Note_on_c, 9, 42, 0
5, 47520, Note_on_c, 9, 42, 74
5, 47999, Note_on_c, 9, 42, 0
5, 113280, Note_on_c, 9, 42, 89
5, 113759, Note_on_c, 9, 42, 0
5, 113760, Note_on_c, 9, 42, 71
5, 114239, Note_on_c, 9, 42, 0
5, 114240, Note_on_c, 9, 42, 64
5, 114719, Note_on_c, 9, 42, 0
5, 114720, Note_on_c, 9, 42, 63
5, 115199, Note_on_c, 9, 42, 0
5, 115200, Note_on_c, 9, 42, 61
5, 115679, Note_on_c, 9, 42, 0
5, 115680, Note_on_c, 9, 42, 58
5, 116159, Note_on_c, 9, 42, 0
5, 116160, Note_on_c, 9, 42, 65
5, 116639, Note_on_c, 9, 42, 0
5, 116640, Note_on_c, 9, 42, 58
5, 117119, Note_on_c, 9, 42, 0
5, 117120, Note_on_c, 9, 42, 64
5, 117599, Note_on_c, 9, 42, 0
5, 117600, Note_on_c, 9, 42, 61
5, 118079, Note_on_c, 9, 42, 0
5, 118080, Note_on_c, 9, 42, 69
5, 118559, Note_on_c, 9, 42, 0
5, 118560, Note_on_c, 9, 42, 73
5, 119039, Note_on_c, 9, 42, 0
5, 119040, Note_on_c, 9, 42, 70
5, 119519, Note_on_c, 9, 42, 0
5, 119520, Note_on_c, 9, 42, 57
5, 119999, Note_on_c, 9, 42, 0
5, 120000, Note_on_c, 9, 42, 59
5, 120479, Note_on_c, 9, 42, 0
5, 120480, Note_on_c, 9, 42, 61
5, 120959, Note_on_c, 9, 42, 0
5, 120960, Note_on_c, 9, 42, 67
5, 121439, Note_on_c, 9, 42, 0
5, 121440, Note_on_c, 9, 42, 65
5, 121919, Note_on_c, 9, 42, 0
5, 121920, Note_on_c, 9, 42, 60
5, 122399, Note_on_c, 9, 42, 0
5, 122400, Note_on_c, 9, 42, 62
5, 122879, Note_on_c, 9, 42, 0
5, 122880, Note_on_c, 9, 42, 62
5, 123359, Note_on_c, 9, 42, 0
5, 123360, Note_on_c, 9, 42, 57
5, 123839, Note_on_c, 9, 42, 0
5, 123840, Note_on_c, 9, 42, 62
5, 124319, Note_on_c, 9, 42, 0
5, 124320, Note_on_c, 9, 42, 58
5, 124799, Note_on_c, 9, 42, 0
5, 124800, Note_on_c, 9, 42, 59
5, 125279, Note_on_c, 9, 42, 0
5, 125280, Note_on_c, 9, 42, 57
5, 125759, Note_on_c, 9, 42, 0
5, 125760, Note_on_c, 9, 42, 60
5, 126239, Note_on_c, 9, 42, 0
5, 126240, Note_on_c, 9, 42, 63
5, 126719, Note_on_c, 9, 42, 0
5, 126720, Note_on_c, 9, 42, 70
5, 127199, Note_on_c, 9, 42, 0
5, 127200, Note_on_c, 9, 42, 67
5, 127679, Note_on_c, 9, 42, 0
5, 127680, Note_on_c, 9, 42, 68
5, 128159, Note_on_c, 9, 42, 0
5, 128160, Note_on_c, 9, 42, 63
5, 128639, Note_on_c, 9, 42, 0
5, 128640, Note_on_c, 9, 42, 67
5, 129119, Note_on_c, 9, 42, 0
5, 129120, Note_on_c, 9, 42, 71
5, 129599, Note_on_c, 9, 42, 0
5, 129600, Note_on_c, 9, 42, 67
5, 130079, Note_on_c, 9, 42, 0
5, 130080, Note_on_c, 9, 42, 71
5, 130559, Note_on_c, 9, 42, 0
5, 130560, Note_on_c, 9, 42, 72
5, 131039, Note_on_c, 9, 42, 0
5, 131040, Note_on_c, 9, 42, 73
5, 131519, Note_on_c, 9, 42, 0
5, 131520, Note_on_c, 9, 42, 77
5, 131999, Note_on_c, 9, 42, 0
5, 132000, Note_on_c, 9, 42, 76
5, 132479, Note_on_c, 9, 42, 0
5, 132480, Note_on_c, 9, 42, 78
5, 132959, Note_on_c, 9, 42, 0
5, 132960, Note_on_c, 9, 42, 73
5, 133439, Note_on_c, 9, 42, 0
5, 133440, Note_on_c, 9, 42, 68
5, 133919, Note_on_c, 9, 42, 0
5, 133920, Note_on_c, 9, 42, 72
5, 134399, Note_on_c, 9, 42, 0
5, 134400, Note_on_c, 9, 42, 72
5, 134879, Note_on_c, 9, 42, 0
5, 134880, Note_on_c, 9, 42, 71
5, 135359, Note_on_c, 9, 42, 0
5, 135360, Note_on_c, 9, 42, 69
5, 135839, Note_on_c, 9, 42, 0
5, 135840, Note_on_c, 9, 42, 71
5, 136319, Note_on_c, 9, 42, 0
5, 136320, Note_on_c, 9, 42, 71
5, 136799, Note_on_c, 9, 42, 0
5, 136800, Note_on_c, 9, 42, 67
5, 137279, Note_on_c, 9, 42, 0
5, 137280, Note_on_c, 9, 42, 61
5, 137759, Note_on_c, 9, 42, 0
5, 137760, Note_on_c, 9, 42, 74
5, 138239, Note_on_c, 9, 42, 0
5, 138240, End_track
6, 0, Start_track
6, 0, Key_signature, 0, "major"
6, 0, Control_c, 9, 121, 0
6, 0, Program_c, 9, 0
6, 0, Control_c, 9, 7, 100
6, 0, Control_c, 9, 10, 64
6, 0, Control_c, 9, 91, 0
6, 0, Control_c, 9, 93, 0
6, 0, MIDI_port, 0
6, 71040, Note_on_c, 9, 49, 72
6, 71519, Note_on_c, 9, 49, 0
6, 72960, Note_on_c, 9, 49, 80
6, 73439, Note_on_c, 9, 49, 0
6, 78720, Note_on_c, 9, 49, 75
6, 79199, Note_on_c, 9, 49, 0
6, 99840, Note_on_c, 9, 49, 71
6, 100319, Note_on_c, 9, 49, 0
6, 161280, Note_on_c, 9, 49, 72
6, 161759, Note_on_c, 9, 49, 0
6, 163200, Note_on_c, 9, 49, 80
6, 163679, Note_on_c, 9, 49, 0
6, 168960, Note_on_c, 9, 49, 75
6, 169439, Note_on_c, 9, 49, 0
6, 190080, Note_on_c, 9, 49, 71
6, 191039, Note_on_c, 9, 49, 0
6, 191040, End_track
7, 0, Start_track
7, 0, Key_signature, 0, "major"
7, 0, Control_c, 9, 121, 0
7, 0, Program_c, 9, 0
7, 0, Control_c, 9, 7, 100
7, 0, Control_c, 9, 10, 64
7, 0, Control_c, 9, 91, 0
7, 0, Control_c, 9, 93, 0
7, 0, MIDI_port, 0
7, 48000, Note_on_c, 9, 51, 39
7, 48479, Note_on_c, 9, 51, 0
7, 48720, Note_on_c, 9, 51, 90
7, 48959, Note_on_c, 9, 51, 0
7, 49440, Note_on_c, 9, 51, 74
7, 49919, Note_on_c, 9, 51, 0
7, 49920, Note_on_c, 9, 51, 91
7, 50399, Note_on_c, 9, 51, 0
7, 50640, Note_on_c, 9, 51, 88
7, 50879, Note_on_c, 9, 51, 0
7, 51360, Note_on_c, 9, 51, 73
7, 51839, Note_on_c, 9, 51, 0
7, 51840, Note_on_c, 9, 51, 71
7, 52319, Note_on_c, 9, 51, 0
7, 52320, Note_on_c, 9, 51, 67
7, 52799, Note_on_c, 9, 51, 0
7, 52800, Note_on_c, 9, 51, 72
7, 53279, Note_on_c, 9, 51, 0
7, 53280, Note_on_c, 9, 51, 67
7, 53759, Note_on_c, 9, 51, 0
7, 53760, Note_on_c, 9, 51, 68
7, 54239, Note_on_c, 9, 51, 0
7, 54240, Note_on_c, 9, 51, 61
7, 54719, Note_on_c, 9, 51, 0
7, 54720, Note_on_c, 9, 51, 75
7, 55199, Note_on_c, 9, 51, 0
7, 55200, Note_on_c, 9, 51, 73
7, 55679, Note_on_c, 9, 51, 0
7, 55680, Note_on_c, 9, 51, 70
7, 56159, Note_on_c, 9, 51, 0
7, 56190, Note_on_c, 9, 51, 72
7, 56249, Note_on_c, 9, 51, 0
7, 56640, Note_on_c, 9, 51, 72
7, 57119, Note_on_c, 9, 51, 0
7, 57120, Note_on_c, 9, 51, 73
7, 57599, Note_on_c, 9, 51, 0
7, 57600, Note_on_c, 9, 51, 76
7, 58079, Note_on_c, 9, 51, 0
7, 58080, Note_on_c, 9, 51, 77
7, 58559, Note_on_c, 9, 51, 0
7, 58590, Note_on_c, 9, 51, 73
7, 58649, Note_on_c, 9, 51, 0
7, 59040, Note_on_c, 9, 51, 74
7, 59519, Note_on_c, 9, 51, 0
7, 59520, Note_on_c, 9, 51, 70
7, 59999, Note_on_c, 9, 51, 0
7, 60000, Note_on_c, 9, 51, 69
7, 60479, Note_on_c, 9, 51, 0
7, 60480, Note_on_c, 9, 51, 63
7, 60959, Note_on_c, 9, 51, 0
7, 60960, Note_on_c, 9, 51, 70
7, 61439, Note_on_c, 9, 51, 0
7, 61440, Note_on_c, 9, 51, 73
7, 61919, Note_on_c, 9, 51, 0
7, 61920, Note_on_c, 9, 51, 67
7, 62399, Note_on_c, 9, 51, 0
7, 62400, Note_on_c, 9, 51, 65
7, 62879, Note_on_c, 9, 51, 0
7, 62880, Note_on_c, 9, 51, 75
7, 63359, Note_on_c, 9, 51, 0
7, 63360, Note_on_c, 9, 51, 77
7, 63839, Note_on_c, 9, 51, 0
7, 63840, Note_on_c, 9, 51, 73
7, 64319, Note_on_c, 9, 51, 0
7, 64320, Note_on_c, 9, 51, 68
7, 64799, Note_on_c, 9, 51, 0
7, 64800, Note_on_c, 9, 51, 69
7, 65279, Note_on_c, 9, 51, 0
7, 65280, Note_on_c, 9, 51, 71
7, 65759, Note_on_c, 9, 51, 0
7, 65760, Note_on_c, 9, 51, 68
7, 66239, Note_on_c, 9, 51, 0
7, 66240, Note_on_c, 9, 51, 74
7, 66719, Note_on_c, 9, 51, 0
7, 66720, Note_on_c, 9, 51, 77
7, 67199, Note_on_c, 9, 51, 0
7, 67200, Note_on_c, 9, 51, 77
7, 67679, Note_on_c, 9, 51, 0
7, 67680, Note_on_c, 9, 51, 73
7, 68159, Note_on_c, 9, 51, 0
7, 68160, Note_on_c, 9, 51, 72
7, 68639, Note_on_c, 9, 51, 0
7, 68640, Note_on_c, 9, 51, 75
7, 69119, Note_on_c, 9, 51, 0
7, 69120, Note_on_c, 9, 51, 72
7, 69599, Note_on_c, 9, 51, 0
7, 69600, Note_on_c, 9, 51, 69
7, 70079, Note_on_c, 9, 51, 0
7, 70080, Note_on_c, 9, 51, 74
7, 70559, Note_on_c, 9, 51, 0
7, 70560, Note_on_c, 9, 51, 88
7, 71039, Note_on_c, 9, 51, 0
7, 71760, Note_on_c, 9, 51, 80
7, 71999, Note_on_c, 9, 51, 0
7, 72480, Note_on_c, 9, 51, 85
7, 72959, Note_on_c, 9, 51, 0
7, 73680, Note_on_c, 9, 51, 85
7, 73919, Note_on_c, 9, 51, 0
7, 74400, Note_on_c, 9, 51, 86
7, 74879, Note_on_c, 9, 51, 0
7, 79200, Note_on_c, 9, 51, 74
7, 79679, Note_on_c, 9, 51, 0
7, 79680, Note_on_c, 9, 51, 72
7, 80159, Note_on_c, 9, 51, 0
7, 80160, Note_on_c, 9, 51, 76
7, 80639, Note_on_c, 9, 51, 0
7, 80640, Note_on_c, 9, 51, 74
7, 81119, Note_on_c, 9, 51, 0
7, 81120, Note_on_c, 9, 51, 77
7, 81599, Note_on_c, 9, 51, 0
7, 81600, Note_on_c, 9, 51, 79
7, 82079, Note_on_c, 9, 51, 0
7, 82080, Note_on_c, 9, 51, 79
7, 82559, Note_on_c, 9, 51, 0
7, 82560, Note_on_c, 9, 51, 75
7, 83039, Note_on_c, 9, 51, 0
7, 83040, Note_on_c, 9, 51, 76
7, 83519, Note_on_c, 9, 51, 0
7, 83520, Note_on_c, 9, 51, 76
7, 83999, Note_on_c, 9, 51, 0
7, 84000, Note_on_c, 9, 51, 80
7, 84479, Note_on_c, 9, 51, 0
7, 84480, Note_on_c, 9, 51, 77
7, 84959, Note_on_c, 9, 51, 0
7, 84960, Note_on_c, 9, 51, 76
7, 85439, Note_on_c, 9, 51, 0
7, 85440, Note_on_c, 9, 51, 80
7, 85919, Note_on_c, 9, 51, 0
7, 85920, Note_on_c, 9, 51, 79
7, 86399, Note_on_c, 9, 51, 0
7, 86400, Note_on_c, 9, 51, 84
7, 86879, Note_on_c, 9, 51, 0
7, 86880, Note_on_c, 9, 51, 85
7, 87359, Note_on_c, 9, 51, 0
7, 87360, Note_on_c, 9, 51, 78
7, 87839, Note_on_c, 9, 51, 0
7, 87840, Note_on_c, 9, 51, 79
7, 88319, Note_on_c, 9, 51, 0
7, 88320, Note_on_c, 9, 51, 81
7, 88799, Note_on_c, 9, 51, 0
7, 88800, Note_on_c, 9, 51, 78
7, 89279, Note_on_c, 9, 51, 0
7, 89280, Note_on_c, 9, 51, 78
7, 89759, Note_on_c, 9, 51, 0
7, 89760, Note_on_c, 9, 51, 77
7, 90239, Note_on_c, 9, 51, 0
7, 90240, Note_on_c, 9, 51, 79
7, 90719, Note_on_c, 9, 51, 0
7, 90720, Note_on_c, 9, 51, 77
7, 91199, Note_on_c, 9, 51, 0
7, 91200, Note_on_c, 9, 51, 77
7, 91679, Note_on_c, 9, 51, 0
7, 91680, Note_on_c, 9, 51, 77
7, 92159, Note_on_c, 9, 51, 0
7, 92160, Note_on_c, 9, 51, 77
7, 92639, Note_on_c, 9, 51, 0
7, 92640, Note_on_c, 9, 51, 77
7, 93119, Note_on_c, 9, 51, 0
7, 93120, Note_on_c, 9, 51, 73
7, 93599, Note_on_c, 9, 51, 0
7, 93600, Note_on_c, 9, 51, 77
7, 94079, Note_on_c, 9, 51, 0
7, 94080, Note_on_c, 9, 51, 83
7, 94559, Note_on_c, 9, 51, 0
7, 94560, Note_on_c, 9, 51, 76
7, 95039, Note_on_c, 9, 51, 0
7, 95040, Note_on_c, 9, 51, 76
7, 95519, Note_on_c, 9, 51, 0
7, 95520, Note_on_c, 9, 51, 84
7, 95999, Note_on_c, 9, 51, 0
7, 100320, Note_on_c, 9, 51, 80
7, 100799, Note_on_c, 9, 51, 0
7, 100800, Note_on_c, 9, 51, 77
7, 101279, Note_on_c, 9, 51, 0
7, 101280, Note_on_c, 9, 51, 72
7, 101759, Note_on_c, 9, 51, 0
7, 101760, Note_on_c, 9, 51, 74
7, 102239, Note_on_c, 9, 51, 0
7, 102240, Note_on_c, 9, 51, 74
7, 102719, Note_on_c, 9, 51, 0
7, 102720, Note_on_c, 9, 51, 73
7, 103199, Note_on_c, 9, 51, 0
7, 103200, Note_on_c, 9, 51, 75
7, 103679, Note_on_c, 9, 51, 0
7, 103680, Note_on_c, 9, 51, 80
7, 104159, Note_on_c, 9, 51, 0
7, 104160, Note_on_c, 9, 51, 77
7, 104639, Note_on_c, 9, 51, 0
7, 104640, Note_on_c, 9, 51, 76
7, 105119, Note_on_c, 9, 51, 0
7, 105120, Note_on_c, 9, 51, 70
7, 105599, Note_on_c, 9, 51, 0
7, 105600, Note_on_c, 9, 51, 76
7, 106079, Note_on_c, 9, 51, 0
7, 106080, Note_on_c, 9, 51, 70
7, 106559, Note_on_c, 9, 51, 0
7, 106560, Note_on_c, 9, 51, 77
7, 107039, Note_on_c, 9, 51, 0
7, 107040, Note_on_c, 9, 51, 77
7, 107519, Note_on_c, 9, 51, 0
7, 107520, Note_on_c, 9, 51, 73
7, 107999, Note_on_c, 9, 51, 0
7, 108000, Note_on_c, 9, 51, 76
7, 108479, Note_on_c, 9, 51, 0
7, 108480, Note_on_c, 9, 51, 74
7, 108959, Note_on_c, 9, 51, 0
7, 108960, Note_on_c, 9, 51, 74
7, 109439, Note_on_c, 9, 51, 0
7, 109440, Note_on_c, 9, 51, 74
7, 109919, Note_on_c, 9, 51, 0
7, 109920, Note_on_c, 9, 51, 72
7, 110399, Note_on_c, 9, 51, 0
7, 110400, Note_on_c, 9, 51, 78
7, 110879, Note_on_c, 9, 51, 0
7, 110880, Note_on_c, 9, 51, 77
7, 111359, Note_on_c, 9, 51, 0
7, 111360, Note_on_c, 9, 51, 74
7, 111839, Note_on_c, 9, 51, 0
7, 111840, Note_on_c, 9, 51, 77
7, 112319, Note_on_c, 9, 51, 0
7, 112320, Note_on_c, 9, 51, 76
7, 112799, Note_on_c, 9, 51, 0
7, 112800, Note_on_c, 9, 51, 85
7, 113279, Note_on_c, 9, 51, 0
7, 138240, Note_on_c, 9, 51, 39
7, 138719, Note_on_c, 9, 51, 0
7, 138960, Note_on_c, 9, 51, 90
7, 139199, Note_on_c, 9, 51, 0
7, 139680, Note_on_c, 9, 51, 74
7, 140159, Note_on_c, 9, 51, 0
7, 140160, Note_on_c, 9, 51, 91
7, 140639, Note_on_c, 9, 51, 0
7, 140880, Note_on_c, 9, 51, 88
7, 141119, Note_on_c, 9, 51, 0
7, 141600, Note_on_c, 9, 51, 73
7, 142079, Note_on_c, 9, 51, 0
7, 142080, Note_on_c, 9, 51, 71
7, 142559, Note_on_c, 9, 51, 0
7, 142560, Note_on_c, 9, 51, 67
7, 143039, Note_on_c, 9, 51, 0
7, 143040, Note_on_c, 9, 51, 72
7, 143519, Note_on_c, 9, 51, 0
7, 143520, Note_on_c, 9, 51, 67
7, 143999, Note_on_c, 9, 51, 0
7, 144000, Note_on_c, 9, 51, 68
7, 144479, Note_on_c, 9, 51, 0
7, 144480, Note_on_c, 9, 51, 61
7, 144959, Note_on_c, 9, 51, 0
7, 144960, Note_on_c, 9, 51, 75
7, 145439, Note_on_c, 9, 51, 0
7, 145440, Note_on_c, 9, 51, 73
7, 145919, Note_on_c, 9, 51, 0
7, 145920, Note_on_c, 9, 51, 70
7, 146399, Note_on_c, 9, 51, 0
7, 146430, Note_on_c, 9, 51, 72
7, 146489, Note_on_c, 9, 51, 0
7, 146880, Note_on_c, 9, 51, 72
7, 147359, Note_on_c, 9, 51, 0
7, 147360, Note_on_c, 9, 51, 73
7, 147839, Note_on_c, 9, 51, 0
7, 147840, Note_on_c, 9, 51, 76
7, 148319, Note_on_c, 9, 51, 0
7, 148320, Note_on_c, 9, 51, 77
7, 148799, Note_on_c, 9, 51, 0
7, 148830, Note_on_c, 9, 51, 73
7, 148889, Note_on_c, 9, 51, 0
7, 149280, Note_on_c, 9, 51, 74
7, 149759, Note_on_c, 9, 51, 0
7, 149760, Note_on_c, 9, 51, 70
7, 150239, Note_on_c, 9, 51, 0
7, 150240, Note_on_c, 9, 51, 69
7, 150719, Note_on_c, 9, 51, 0
7, 150720, Note_on_c, 9, 51, 63
7, 151199, Note_on_c, 9, 51, 0
7, 151200, Note_on_c, 9, 51, 70
7, 151679, Note_on_c, 9, 51, 0
7, 151680, Note_on_c, 9, 51, 73
7, 152159, Note_on_c, 9, 51, 0
7, 152160, Note_on_c, 9, 51, 67
7, 152639, Note_on_c, 9, 51, 0
7, 152640, Note_on_c, 9, 51, 65
7, 153119, Note_on_c, 9, 51, 0
7, 153120, Note_on_c, 9, 51, 75
7, 153599, Note_on_c, 9, 51, 0
7, 153600, Note_on_c, 9, 51, 77
7, 154079, Note_on_c, 9, 51, 0
7, 154080, Note_on_c, 9, 51, 73
7, 154559, Note_on_c, 9, 51, 0
7, 154560, Note_on_c, 9, 51, 68
7, 155039, Note_on_c, 9, 51, 0
7, 155040, Note_on_c, 9, 51, 69
7, 155519, Note_on_c, 9, 51, 0
7, 155520, Note_on_c, 9, 51, 71
7, 155999, Note_on_c, 9, 51, 0
7, 156000, Note_on_c, 9, 51, 68
7, 156479, Note_on_c, 9, 51, 0
7, 156480, Note_on_c, 9, 51, 74
7, 156959, Note_on_c, 9, 51, 0
7, 156960, Note_on_c, 9, 51, 77
7, 157439, Note_on_c, 9, 51, 0
7, 157440, Note_on_c, 9, 51, 77
7, 157919, Note_on_c, 9, 51, 0
7, 157920, Note_on_c, 9, 51, 73
7, 158399, Note_on_c, 9, 51, 0
7, 158400, Note_on_c, 9, 51, 72
7, 158879, Note_on_c, 9, 51, 0
7, 158880, Note_on_c, 9, 51, 75
7, 159359, Note_on_c, 9, 51, 0
7, 159360, Note_on_c, 9, 51, 72
7, 159839, Note_on_c, 9, 51, 0
7, 159840, Note_on_c, 9, 51, 69
7, 160319, Note_on_c, 9, 51, 0
7, 160320, Note_on_c, 9, 51, 74
7, 160799, Note_on_c, 9, 51, 0
7, 160800, Note_on_c, 9, 51, 88
7, 161279, Note_on_c, 9, 51, 0
7, 162000, Note_on_c, 9, 51, 80
7, 162239, Note_on_c, 9, 51, 0
7, 162720, Note_on_c, 9, 51, 85
7, 163199, Note_on_c, 9, 51, 0
7, 163920, Note_on_c, 9, 51, 85
7, 164159, Note_on_c, 9, 51, 0
7, 164640, Note_on_c, 9, 51, 86
7, 165119, Note_on_c, 9, 51, 0
7, 169440, Note_on_c, 9, 51, 74
7, 169919, Note_on_c, 9, 51, 0
7, 169920, Note_on_c, 9, 51, 72
7, 170399, Note_on_c, 9, 51, 0
7, 170400, Note_on_c, 9, 51, 76
7, 170879, Note_on_c, 9, 51, 0
7, 170880, Note_on_c, 9, 51, 74
7, 171359, Note_on_c, 9, 51, 0
7, 171360, Note_on_c, 9, 51, 77
7, 171839, Note_on_c, 9, 51, 0
7, 171840, Note_on_c, 9, 51, 79
7, 172319, Note_on_c, 9, 51, 0
7, 172320, Note_on_c, 9, 51, 79
7, 172799, Note_on_c, 9, 51, 0
7, 172800, Note_on_c, 9, 51, 75
7, 173279, Note_on_c, 9, 51, 0
7, 173280, Note_on_c, 9, 51, 76
7, 173759, Note_on_c, 9, 51, 0
7, 173760, Note_on_c, 9, 51, 76
7, 174239, Note_on_c, 9, 51, 0
7, 174240, Note_on_c, 9, 51, 80
7, 174719, Note_on_c, 9, 51, 0
7, 174720, Note_on_c, 9, 51, 77
7, 175199, Note_on_c, 9, 51, 0
7, 175200, Note_on_c, 9, 51, 76
7, 175679, Note_on_c, 9, 51, 0
7, 175680, Note_on_c, 9, 51, 80
7, 176159, Note_on_c, 9, 51, 0
7, 176160, Note_on_c, 9, 51, 79
7, 176639, Note_on_c, 9, 51, 0
7, 176640, Note_on_c, 9, 51, 84
7, 177119, Note_on_c, 9, 51, 0
7, 177120, Note_on_c, 9, 51, 85
7, 177599, Note_on_c, 9, 51, 0
7, 177600, Note_on_c, 9, 51, 78
7, 178079, Note_on_c, 9, 51, 0
7, 178080, Note_on_c, 9, 51, 79
7, 178559, Note_on_c, 9, 51, 0
7, 178560, Note_on_c, 9, 51, 81
7, 179039, Note_on_c, 9, 51, 0
7, 179040, Note_on_c, 9, 51, 78
7, 179519, Note_on_c, 9, 51, 0
7, 179520, Note_on_c, 9, 51, 78
7, 179999, Note_on_c, 9, 51, 0
7, 180000, Note_on_c, 9, 51, 77
7, 180479, Note_on_c, 9, 51, 0
7, 180480, Note_on_c, 9, 51, 79
7, 180959, Note_on_c, 9, 51, 0
7, 180960, Note_on_c, 9, 51, 77
7, 181439, Note_on_c, 9, 51, 0
7, 181440, Note_on_c, 9, 51, 77
7, 181919, Note_on_c, 9, 51, 0
7, 181920, Note_on_c, 9, 51, 77
7, 182399, Note_on_c, 9, 51, 0
7, 182400, Note_on_c, 9, 51, 77
7, 182879, Note_on_c, 9, 51, 0
7, 182880, Note_on_c, 9, 51, 77
7, 183359, Note_on_c, 9, 51, 0
7, 183360, Note_on_c, 9, 51, 73
7, 183839, Note_on_c, 9, 51, 0
7, 183840, Note_on_c, 9, 51, 77
7, 184319, Note_on_c, 9, 51, 0
7, 184320, Note_on_c, 9, 51, 83
7, 184799, Note_on_c, 9, 51, 0
7, 184800, Note_on_c, 9, 51, 76
7, 185279, Note_on_c, 9, 51, 0
7, 185280, Note_on_c, 9, 51, 76
7, 185759, Note_on_c, 9, 51, 0
7, 185760, Note_on_c, 9, 51, 84
7, 186239, Note_on_c, 9, 51, 0
7, 190560, Note_on_c, 9, 51, 80
7, 191039, Note_on_c, 9, 51, 0
7, 191040, Note_on_c, 9, 51, 77
7, 191519, Note_on_c, 9, 51, 0
7, 191520, Note_on_c, 9, 51, 72
7, 191999, Note_on_c, 9, 51, 0
7, 192000, Note_on_c, 9, 51, 74
7, 192479, Note_on_c, 9, 51, 0
7, 192480, Note_on_c, 9, 51, 74
7, 192959, Note_on_c, 9, 51, 0
7, 192960, Note_on_c, 9, 51, 73
7, 193439, Note_on_c, 9, 51, 0
7, 193440, Note_on_c, 9, 51, 75
7, 193919, Note_on_c, 9, 51, 0
7, 193920, Note_on_c, 9, 51, 80
7, 194399, Note_on_c, 9, 51, 0
7, 194400, Note_on_c, 9, 51, 77
7, 194879, Note_on_c, 9, 51, 0
7, 194880, Note_on_c, 9, 51, 76
7, 195359, Note_on_c, 9, 51, 0
7, 195360, Note_on_c, 9, 51, 70
7, 195839, Note_on_c, 9, 51, 0
7, 195840, Note_on_c, 9, 51, 76
7, 196319, Note_on_c, 9, 51, 0
7, 196320, Note_on_c, 9, 51, 70
7, 196799, Note_on_c, 9, 51, 0
7, 196800, Note_on_c, 9, 51, 77
7, 197279, Note_on_c, 9, 51, 0
7, 197280, Note_on_c, 9, 51, 77
7, 197759, Note_on_c, 9, 51, 0
7, 197760, Note_on_c, 9, 51, 73
7, 198239, Note_on_c, 9, 51, 0
7, 198240, Note_on_c, 9, 51, 76
7, 198719, Note_on_c, 9, 51, 0
7, 198720, Note_on_c, 9, 51, 74
7, 199199, Note_on_c, 9, 51, 0
7, 199200, Note_on_c, 9, 51, 74
7, 199679, Note_on_c, 9, 51, 0
7, 199680, Note_on_c, 9, 51, 74
7, 200159, Note_on_c, 9, 51, 0
7, 200160, Note_on_c, 9, 51, 72
7, 200639, Note_on_c, 9, 51, 0
7, 200640, Note_on_c, 9, 51, 78
7, 201119, Note_on_c, 9, 51, 0
7, 201120, Note_on_c, 9, 51, 77
7, 201599, Note_on_c, 9, 51, 0
7, 201600, Note_on_c, 9, 51, 80
7, 202079, Note_on_c, 9, 51, 0
7, 202080, Note_on_c, 9, 51, 77
7, 202559, Note_on_c, 9, 51, 0
7, 202560, Note_on_c, 9, 51, 76
7, 203039, Note_on_c, 9, 51, 0
7, 203040, Note_on_c, 9, 51, 70
7, 203519, Note_on_c, 9, 51, 0
7, 203520, Note_on_c, 9, 51, 76
7, 203999, Note_on_c, 9, 51, 0
7, 204000, Note_on_c, 9, 51, 70
7, 204479, Note_on_c, 9, 51, 0
7, 204480, Note_on_c, 9, 51, 77
7, 204959, Note_on_c, 9, 51, 0
7, 204960, Note_on_c, 9, 51, 77
7, 205439, Note_on_c, 9, 51, 0
7, 205440, Note_on_c, 9, 51, 73
7, 205919, Note_on_c, 9, 51, 0
7, 205920, Note_on_c, 9, 51, 76
7, 206399, Note_on_c, 9, 51, 0
7, 206400, Note_on_c, 9, 51, 74
7, 206879, Note_on_c, 9, 51, 0
7, 206880, Note_on_c, 9, 51, 74
7, 207359, Note_on_c, 9, 51, 0
7, 207360, Note_on_c, 9, 51, 74
7, 207839, Note_on_c, 9, 51, 0
7, 207840, Note_on_c, 9, 51, 72
7, 208319, Note_on_c, 9, 51, 0
7, 208320, Note_on_c, 9, 51, 78
7, 208799, Note_on_c, 9, 51, 0
7, 208800, Note_on_c, 9, 51, 77
7, 209279, Note_on_c, 9, 51, 0
7, 209280, Note_on_c, 9, 51, 80
7, 209759, Note_on_c, 9, 51, 0
7, 209760, Note_on_c, 9, 51, 77
7, 210239, Note_on_c, 9, 51, 0
7, 210240, Note_on_c, 9, 51, 76
7, 210719, Note_on_c, 9, 51, 0
7, 210720, Note_on_c, 9, 51, 70
7, 211199, Note_on_c, 9, 51, 0
7, 211200, Note_on_c, 9, 51, 76
7, 211679, Note_on_c, 9, 51, 0
7, 211680, Note_on_c, 9, 51, 70
7, 212159, Note_on_c, 9, 51, 0
7, 212160, Note_on_c, 9, 51, 77
7, 212639, Note_on_c, 9, 51, 0
7, 212640, Note_on_c, 9, 51, 77
7, 213119, Note_on_c, 9, 51, 0
7, 213120, Note_on_c, 9, 51, 73
7, 213599, Note_on_c, 9, 51, 0
7, 213600, Note_on_c, 9, 51, 76
7, 214079, Note_on_c, 9, 51, 0
7, 214080, Note_on_c, 9, 51, 74
7, 214559, Note_on_c, 9, 51, 0
7, 214560, Note_on_c, 9, 51, 74
7, 215039, Note_on_c, 9, 51, 0
7, 215040, Note_on_c, 9, 51, 74
7, 215519, Note_on_c, 9, 51, 0
7, 215520, Note_on_c, 9, 51, 72
7, 215999, Note_on_c, 9, 51, 0
7, 216000, Note_on_c, 9, 51, 78
7, 216479, Note_on_c, 9, 51, 0
7, 216480, Note_on_c, 9, 51, 77
7, 216959, Note_on_c, 9, 51, 0
7, 216960, Note_on_c, 9, 51, 80
7, 217439, Note_on_c, 9, 51, 0
7, 217440, Note_on_c, 9, 51, 77
7, 217919, Note_on_c, 9, 51, 0
7, 217920, Note_on_c, 9, 51, 76
7, 218399, Note_on_c, 9, 51, 0
7, 218400, Note_on_c, 9, 51, 70
7, 218879, Note_on_c, 9, 51, 0
7, 218880, Note_on_c, 9, 51, 76
7, 219359, Note_on_c, 9, 51, 0
7, 219360, End_track
8, 0, Start_track
8, 0, Key_signature, 0, "major"
8, 0, Control_c, 9, 121, 0
8, 0, Program_c, 9, 0
8, 0, Control_c, 9, 7, 100
8, 0, Control_c, 9, 10, 64
8, 0, Control_c, 9, 91, 0
8, 0, Control_c, 9, 93, 0
8, 0, MIDI_port, 0
8, 21120, Note_on_c, 9, 81, 81
8, 21599, Note_on_c, 9, 81, 0
8, 111360, Note_on_c, 9, 81, 81
8, 111839, Note_on_c, 9, 81, 0
8, 111840, End_track
0, 0, End_of_file
