0, 0, Header, 1, 15, 480
1, 0, Start_track
1, 0, Time_signature, 4, 2, 24, 8
1, 0, Key_signature, 0, "major"
1, 0, Tempo, 500000
1, 0, Control_c, 9, 121, 0
1, 0, Program_c, 9, 0
1, 0, Control_c, 9, 7, 100
1, 0, Control_c, 9, 10, 64
1, 0, Control_c, 9, 91, 0
1, 0, Control_c, 9, 93, 0
1, 0, MIDI_port, 0
1, 8, Tempo, 909091
1, 36480, Time_signature, 2, 2, 24, 8
1, 36488, Tempo, 1132075
1, 37440, Time_signature, 4, 2, 24, 8
1, 37448, Tempo, 895522
1, 38880, Note_on_c, 9, 36, 75
1, 39359, Note_on_c, 9, 36, 0
1, 39360, Note_on_c, 9, 36, 59
1, 39839, Note_on_c, 9, 36, 0
1, 40080, Note_on_c, 9, 36, 52
1, 40319, Note_on_c, 9, 36, 0
1, 40320, Note_on_c, 9, 36, 56
1, 40799, Note_on_c, 9, 36, 0
1, 41040, Note_on_c, 9, 36, 63
1, 41279, Note_on_c, 9, 36, 0
1, 41280, Note_on_c, 9, 36, 59
1, 41759, Note_on_c, 9, 36, 0
1, 42000, Note_on_c, 9, 36, 61
1, 42239, Note_on_c, 9, 36, 0
1, 42240, Note_on_c, 9, 36, 67
1, 42719, Note_on_c, 9, 36, 0
1, 42960, Note_on_c, 9, 36, 58
1, 43199, Note_on_c, 9, 36, 0
1, 43200, Note_on_c, 9, 36, 56
1, 43679, Note_on_c, 9, 36, 0
1, 43920, Note_on_c, 9, 36, 52
1, 44159, Note_on_c, 9, 36, 0
1, 44160, Note_on_c, 9, 36, 65
1, 44639, Note_on_c, 9, 36, 0
1, 44880, Note_on_c, 9, 36, 55
1, 45119, Note_on_c, 9, 36, 0
1, 45120, Note_on_c, 9, 36, 56
1, 45599, Note_on_c, 9, 36, 0
1, 45840, Note_on_c, 9, 36, 61
1, 46079, Note_on_c, 9, 36, 0
1, 46080, Note_on_c, 9, 36, 58
1, 46559, Note_on_c, 9, 36, 0
1, 46800, Note_on_c, 9, 36, 63
1, 47039, Note_on_c, 9, 36, 0
1, 47040, Note_on_c, 9, 36, 52
1, 47519, Note_on_c, 9, 36, 0
1, 47760, Note_on_c, 9, 36, 50
1, 47999, Note_on_c, 9, 36, 0
1, 48000, Note_on_c, 9, 36, 61
1, 48479, Note_on_c, 9, 36, 0
1, 48720, Note_on_c, 9, 36, 56
1, 48959, Note_on_c, 9, 36, 0
1, 48960, Note_on_c, 9, 36, 68
1, 49439, Note_on_c, 9, 36, 0
1, 49680, Note_on_c, 9, 36, 55
1, 49919, Note_on_c, 9, 36, 0
1, 49920, Note_on_c, 9, 36, 64
1, 50399, Note_on_c, 9, 36, 0
1, 50640, Note_on_c, 9, 36, 40
1, 50879, Note_on_c, 9, 36, 0
1, 50880, Note_on_c, 9, 36, 60
1, 51359, Note_on_c, 9, 36, 0
1, 51600, Note_on_c, 9, 36, 43
1, 51839, Note_on_c, 9, 36, 0
1, 51840, Note_on_c, 9, 36, 63
1, 52319, Note_on_c, 9, 36, 0
1, 52560, Note_on_c, 9, 36, 57
1, 52799, Note_on_c, 9, 36, 0
1, 52800, Note_on_c, 9, 36, 59
1, 53279, Note_on_c, 9, 36, 0
1, 53520, Note_on_c, 9, 36, 51
1, 53759, Note_on_c, 9, 36, 0
1, 53760, Note_on_c, 9, 36, 68
1, 54239, Note_on_c, 9, 36, 0
1, 54480, Note_on_c, 9, 36, 56
1, 54599, Note_on_c, 9, 36, 0
1, 54600, Note_on_c, 9, 36, 37
1, 54719, Note_on_c, 9, 36, 0
1, 54720, Note_on_c, 9, 36, 69
1, 55199, Note_on_c, 9, 36, 0
1, 55440, Note_on_c, 9, 36, 70
1, 55679, Note_on_c, 9, 36, 0
1, 55680, Note_on_c, 9, 36, 59
1, 56159, Note_on_c, 9, 36, 0
1, 56400, Note_on_c, 9, 36, 56
1, 56639, Note_on_c, 9, 36, 0
1, 56640, Note_on_c, 9, 36, 64
1, 57119, Note_on_c, 9, 36, 0
1, 57360, Note_on_c, 9, 36, 58
1, 57599, Note_on_c, 9, 36, 0
1, 57600, Note_on_c, 9, 36, 64
1, 58079, Note_on_c, 9, 36, 0
1, 58560, Note_on_c, 9, 36, 74
1, 59039, Note_on_c, 9, 36, 0
1, 59040, Note_on_c, 9, 36, 69
1, 59519, Note_on_c, 9, 36, 0
1, 59520, Note_on_c, 9, 36, 66
1, 59999, Note_on_c, 9, 36, 0
1, 60000, Note_on_c, 9, 36, 73
1, 60479, Note_on_c, 9, 36, 0
1, 60480, Note_on_c, 9, 36, 70
1, 60959, Note_on_c, 9, 36, 0
1, 60960, Note_on_c, 9, 36, 69
1, 61439, Note_on_c, 9, 36, 0
1, 61440, Note_on_c, 9, 36, 63
1, 61919, Note_on_c, 9, 36, 0
1, 61920, Note_on_c, 9, 36, 67
1, 62399, Note_on_c, 9, 36, 0
1, 62400, Note_on_c, 9, 36, 65
1, 62879, Note_on_c, 9, 36, 0
1, 62880, Note_on_c, 9, 36, 60
1, 63359, Note_on_c, 9, 36, 0
1, 63360, Note_on_c, 9, 36, 60
1, 63839, Note_on_c, 9, 36, 0
1, 63840, Note_on_c, 9, 36, 67
1, 64319, Note_on_c, 9, 36, 0
1, 64320, Note_on_c, 9, 36, 63
1, 64799, Note_on_c, 9, 36, 0
1, 64800, Note_on_c, 9, 36, 59
1, 65279, Note_on_c, 9, 36, 0
1, 65280, Note_on_c, 9, 36, 67
1, 65759, Note_on_c, 9, 36, 0
1, 65760, Note_on_c, 9, 36, 69
1, 66239, Note_on_c, 9, 36, 0
1, 66240, Time_signature, 3, 2, 24, 8
1, 66240, Note_on_c, 9, 36, 71
1, 66719, Note_on_c, 9, 36, 0
1, 66720, Note_on_c, 9, 36, 82
1, 66959, Note_on_c, 9, 36, 0
1, 66960, Note_on_c, 9, 36, 63
1, 67199, Note_on_c, 9, 36, 0
1, 67680, Note_on_c, 9, 36, 82
1, 68159, Note_on_c, 9, 36, 0
1, 68160, Note_on_c, 9, 36, 73
1, 68399, Note_on_c, 9, 36, 0
1, 68400, Note_on_c, 9, 36, 69
1, 68639, Note_on_c, 9, 36, 0
1, 69120, Time_signature, 4, 2, 24, 8
1, 69120, Note_on_c, 9, 36, 78
1, 69599, Note_on_c, 9, 36, 0
1, 69600, Note_on_c, 9, 36, 66
1, 70079, Note_on_c, 9, 36, 0
1, 70080, Note_on_c, 9, 36, 75
1, 70559, Note_on_c, 9, 36, 0
1, 70560, Note_on_c, 9, 36, 71
1, 71039, Note_on_c, 9, 36, 0
1, 71040, Note_on_c, 9, 36, 70
1, 71519, Note_on_c, 9, 36, 0
1, 71520, Note_on_c, 9, 36, 69
1, 71999, Note_on_c, 9, 36, 0
1, 72000, Note_on_c, 9, 36, 63
1, 72479, Note_on_c, 9, 36, 0
1, 72480, Note_on_c, 9, 36, 67
1, 72959, Note_on_c, 9, 36, 0
1, 72960, Note_on_c, 9, 36, 65
1, 73439, Note_on_c, 9, 36, 0
1, 73440, Note_on_c, 9, 36, 60
1, 73919, Note_on_c, 9, 36, 0
1, 73920, Note_on_c, 9, 36, 60
1, 74399, Note_on_c, 9, 36, 0
1, 74400, Note_on_c, 9, 36, 67
1, 74879, Note_on_c, 9, 36, 0
1, 74880, Note_on_c, 9, 36, 63
1, 75359, Note_on_c, 9, 36, 0
1, 75360, Note_on_c, 9, 36, 59
1, 75839, Note_on_c, 9, 36, 0
1, 75840, Note_on_c, 9, 36, 67
1, 76319, Note_on_c, 9, 36, 0
1, 76320, Note_on_c, 9, 36, 69
1, 76799, Note_on_c, 9, 36, 0
1, 76800, Time_signature, 3, 2, 24, 8
1, 76800, Note_on_c, 9, 36, 71
1, 77279, Note_on_c, 9, 36, 0
1, 77280, Note_on_c, 9, 36, 82
1, 77519, Note_on_c, 9, 36, 0
1, 77520, Note_on_c, 9, 36, 63
1, 77759, Note_on_c, 9, 36, 0
1, 78240, Note_on_c, 9, 36, 82
1, 78719, Note_on_c, 9, 36, 0
1, 78720, Note_on_c, 9, 36, 73
1, 78959, Note_on_c, 9, 36, 0
1, 78960, Note_on_c, 9, 36, 69
1, 79199, Note_on_c, 9, 36, 0
1, 79680, Time_signature, 4, 2, 24, 8
1, 79680, Note_on_c, 9, 36, 78
1, 80159, Note_on_c, 9, 36, 0
1, 80160, Note_on_c, 9, 36, 66
1, 80639, Note_on_c, 9, 36, 0
1, 80640, Note_on_c, 9, 36, 75
1, 81119, Note_on_c, 9, 36, 0
1, 81120, Note_on_c, 9, 36, 71
1, 81599, Note_on_c, 9, 36, 0
1, 81600, Note_on_c, 9, 36, 64
1, 82079, Note_on_c, 9, 36, 0
1, 82080, Note_on_c, 9, 36, 69
1, 82559, Note_on_c, 9, 36, 0
1, 82560, Note_on_c, 9, 36, 63
1, 83039, Note_on_c, 9, 36, 0
1, 83040, Note_on_c, 9, 36, 67
1, 83519, Note_on_c, 9, 36, 0
1, 83520, Note_on_c, 9, 36, 65
1, 83999, Note_on_c, 9, 36, 0
1, 84000, Note_on_c, 9, 36, 60
1, 84479, Note_on_c, 9, 36, 0
1, 84480, Note_on_c, 9, 36, 60
1, 84959, Note_on_c, 9, 36, 0
1, 84960, Note_on_c, 9, 36, 67
1, 85439, Note_on_c, 9, 36, 0
1, 85440, Note_on_c, 9, 36, 63
1, 85919, Note_on_c, 9, 36, 0
1, 85920, Note_on_c, 9, 36, 59
1, 86399, Note_on_c, 9, 36, 0
1, 86400, Note_on_c, 9, 36, 67
1, 86879, Note_on_c, 9, 36, 0
1, 86880, Note_on_c, 9, 36, 69
1, 87359, Note_on_c, 9, 36, 0
1, 87360, Time_signature, 3, 2, 24, 8
1, 87360, Note_on_c, 9, 36, 71
1, 87839, Note_on_c, 9, 36, 0
1, 87840, Note_on_c, 9, 36, 82
1, 88079, Note_on_c, 9, 36, 0
1, 88080, Note_on_c, 9, 36, 63
1, 88319, Note_on_c, 9, 36, 0
1, 88800, Note_on_c, 9, 36, 82
1, 89279, Note_on_c, 9, 36, 0
1, 89280, Note_on_c, 9, 36, 73
1, 89519, Note_on_c, 9, 36, 0
1, 89520, Note_on_c, 9, 36, 69
1, 89759, Note_on_c, 9, 36, 0
1, 90240, Time_signature, 4, 2, 24, 8
1, 90240, Note_on_c, 9, 36, 78
1, 90719, Note_on_c, 9, 36, 0
1, 90720, Note_on_c, 9, 36, 66
1, 91199, Note_on_c, 9, 36, 0
1, 91200, Note_on_c, 9, 36, 75
1, 91679, Note_on_c, 9, 36, 0
1, 91680, Note_on_c, 9, 36, 71
1, 92039, Note_on_c, 9, 36, 0
1, 92100, Note_on_c, 9, 36, 70
1, 92159, Note_on_c, 9, 36, 0
1, 92640, Note_on_c, 9, 36, 69
1, 93119, Note_on_c, 9, 36, 0
1, 93120, Note_on_c, 9, 36, 63
1, 93599, Note_on_c, 9, 36, 0
1, 93600, Note_on_c, 9, 36, 67
1, 94079, Note_on_c, 9, 36, 0
1, 94080, Note_on_c, 9, 36, 65
1, 94559, Note_on_c, 9, 36, 0
1, 94560, Note_on_c, 9, 36, 60
1, 95039, Note_on_c, 9, 36, 0
1, 95040, Note_on_c, 9, 36, 60
1, 95519, Note_on_c, 9, 36, 0
1, 95520, Note_on_c, 9, 36, 67
1, 95999, Note_on_c, 9, 36, 0
1, 96000, Note_on_c, 9, 36, 63
1, 96479, Note_on_c, 9, 36, 0
1, 96480, Note_on_c, 9, 36, 59
1, 96959, Note_on_c, 9, 36, 0
1, 96960, Note_on_c, 9, 36, 67
1, 97439, Note_on_c, 9, 36, 0
1, 97440, Note_on_c, 9, 36, 69
1, 97919, Note_on_c, 9, 36, 0
1, 97920, Time_signature, 3, 2, 24, 8
1, 97920, Note_on_c, 9, 36, 71
1, 98399, Note_on_c, 9, 36, 0
1, 98400, Note_on_c, 9, 36, 82
1, 98639, Note_on_c, 9, 36, 0
1, 98640, Note_on_c, 9, 36, 63
1, 98879, Note_on_c, 9, 36, 0
1, 99360, Note_on_c, 9, 36, 82
1, 99809, Note_on_c, 9, 36, 0
1, 99825, Note_on_c, 9, 36, 73
1, 100079, Note_on_c, 9, 36, 0
1, 100080, Note_on_c, 9, 36, 69
1, 100319, Note_on_c, 9, 36, 0
1, 100800, Time_signature, 4, 2, 24, 8
1, 100800, Note_on_c, 9, 36, 78
1, 101279, Note_on_c, 9, 36, 0
1, 101280, Note_on_c, 9, 36, 66
1, 101759, Note_on_c, 9, 36, 0
1, 101760, Note_on_c, 9, 36, 75
1, 102239, Note_on_c, 9, 36, 0
1, 102240, End_track
2, 0, Start_track
2, 0, Key_signature, 0, "major"
2, 0, Control_c, 9, 121, 0
2, 0, Program_c, 9, 0
2, 0, Control_c, 9, 7, 100
2, 0, Control_c, 9, 10, 64
2, 0, Control_c, 9, 91, 0
2, 0, Control_c, 9, 93, 0
2, 0, MIDI_port, 0
2, 39840, Note_on_c, 9, 37, 98
2, 40319, Note_on_c, 9, 37, 0
2, 40800, Note_on_c, 9, 37, 80
2, 41279, Note_on_c, 9, 37, 0
2, 41760, Note_on_c, 9, 37, 82
2, 42239, Note_on_c, 9, 37, 0
2, 42720, Note_on_c, 9, 37, 73
2, 43199, Note_on_c, 9, 37, 0
2, 43680, Note_on_c, 9, 37, 77
2, 44159, Note_on_c, 9, 37, 0
2, 44640, Note_on_c, 9, 37, 77
2, 45119, Note_on_c, 9, 37, 0
2, 45600, Note_on_c, 9, 37, 76
2, 46079, Note_on_c, 9, 37, 0
2, 46560, Note_on_c, 9, 37, 79
2, 47039, Note_on_c, 9, 37, 0
2, 47520, Note_on_c, 9, 37, 75
2, 47999, Note_on_c, 9, 37, 0
2, 48480, Note_on_c, 9, 37, 77
2, 48959, Note_on_c, 9, 37, 0
2, 49440, Note_on_c, 9, 37, 71
2, 49919, Note_on_c, 9, 37, 0
2, 50400, Note_on_c, 9, 37, 81
2, 50879, Note_on_c, 9, 37, 0
2, 51360, Note_on_c, 9, 37, 77
2, 51839, Note_on_c, 9, 37, 0
2, 52320, Note_on_c, 9, 37, 79
2, 52799, Note_on_c, 9, 37, 0
2, 53280, Note_on_c, 9, 37, 79
2, 53759, Note_on_c, 9, 37, 0
2, 54240, Note_on_c, 9, 37, 80
2, 54719, Note_on_c, 9, 37, 0
2, 55200, Note_on_c, 9, 37, 83
2, 55679, Note_on_c, 9, 37, 0
2, 56160, Note_on_c, 9, 37, 81
2, 56639, Note_on_c, 9, 37, 0
2, 57120, Note_on_c, 9, 37, 80
2, 57599, Note_on_c, 9, 37, 0
2, 58080, Note_on_c, 9, 37, 83
2, 58559, Note_on_c, 9, 37, 0
2, 58560, End_track
3, 0, Start_track
3, 0, Key_signature, 0, "major"
3, 0, Control_c, 9, 121, 0
3, 0, Program_c, 9, 0
3, 0, Control_c, 9, 7, 100
3, 0, Control_c, 9, 10, 64
3, 0, Control_c, 9, 91, 0
3, 0, Control_c, 9, 93, 0
3, 0, MIDI_port, 0
3, 38760, Note_on_c, 9, 38, 62
3, 38879, Note_on_c, 9, 38, 0
3, 69360, Note_on_c, 9, 38, 37
3, 69599, Note_on_c, 9, 38, 0
3, 69840, Note_on_c, 9, 38, 59
3, 70079, Note_on_c, 9, 38, 0
3, 70320, Note_on_c, 9, 38, 64
3, 70559, Note_on_c, 9, 38, 0
3, 70800, Note_on_c, 9, 38, 74
3, 71039, Note_on_c, 9, 38, 0
3, 79920, Note_on_c, 9, 38, 37
3, 80159, Note_on_c, 9, 38, 0
3, 80400, Note_on_c, 9, 38, 59
3, 80639, Note_on_c, 9, 38, 0
3, 80880, Note_on_c, 9, 38, 64
3, 81119, Note_on_c, 9, 38, 0
3, 81360, Note_on_c, 9, 38, 74
3, 81599, Note_on_c, 9, 38, 0
3, 90480, Note_on_c, 9, 38, 37
3, 90719, Note_on_c, 9, 38, 0
3, 90960, Note_on_c, 9, 38, 59
3, 91199, Note_on_c, 9, 38, 0
3, 91440, Note_on_c, 9, 38, 64
3, 91679, Note_on_c, 9, 38, 0
3, 91920, Note_on_c, 9, 38, 74
3, 92159, Note_on_c, 9, 38, 0
3, 101040, Note_on_c, 9, 38, 37
3, 101279, Note_on_c, 9, 38, 0
3, 101520, Note_on_c, 9, 38, 59
3, 101759, Note_on_c, 9, 38, 0
3, 101760, End_track
4, 0, Start_track
4, 0, Key_signature, 0, "major"
4, 0, Control_c, 9, 121, 0
4, 0, Program_c, 9, 0
4, 0, Control_c, 9, 7, 100
4, 0, Control_c, 9, 10, 64
4, 0, Control_c, 9, 91, 0
4, 0, Control_c, 9, 93, 0
4, 0, MIDI_port, 0
4, 38640, Note_on_c, 9, 40, 82
4, 38879, Note_on_c, 9, 40, 0
4, 59040, Note_on_c, 9, 40, 66
4, 59159, Note_on_c, 9, 40, 0
4, 59160, Note_on_c, 9, 40, 53
4, 59279, Note_on_c, 9, 40, 0
4, 59280, Note_on_c, 9, 40, 50
4, 59399, Note_on_c, 9, 40, 0
4, 59400, Note_on_c, 9, 40, 37
4, 59519, Note_on_c, 9, 40, 0
4, 60000, Note_on_c, 9, 40, 50
4, 60119, Note_on_c, 9, 40, 0
4, 60120, Note_on_c, 9, 40, 56
4, 60239, Note_on_c, 9, 40, 0
4, 60240, Note_on_c, 9, 40, 51
4, 60359, Note_on_c, 9, 40, 0
4, 60360, Note_on_c, 9, 40, 46
4, 60479, Note_on_c, 9, 40, 0
4, 60960, Note_on_c, 9, 40, 58
4, 61079, Note_on_c, 9, 40, 0
4, 61080, Note_on_c, 9, 40, 60
4, 61199, Note_on_c, 9, 40, 0
4, 61200, Note_on_c, 9, 40, 50
4, 61319, Note_on_c, 9, 40, 0
4, 61320, Note_on_c, 9, 40, 43
4, 61439, Note_on_c, 9, 40, 0
4, 61920, Note_on_c, 9, 40, 53
4, 62039, Note_on_c, 9, 40, 0
4, 62040, Note_on_c, 9, 40, 68
4, 62159, Note_on_c, 9, 40, 0
4, 62160, Note_on_c, 9, 40, 57
4, 62279, Note_on_c, 9, 40, 0
4, 62280, Note_on_c, 9, 40, 47
4, 62399, Note_on_c, 9, 40, 0
4, 62880, Note_on_c, 9, 40, 64
4, 62999, Note_on_c, 9, 40, 0
4, 63000, Note_on_c, 9, 40, 66
4, 63119, Note_on_c, 9, 40, 0
4, 63120, Note_on_c, 9, 40, 59
4, 63239, Note_on_c, 9, 40, 0
4, 63240, Note_on_c, 9, 40, 50
4, 63359, Note_on_c, 9, 40, 0
4, 63840, Note_on_c, 9, 40, 53
4, 63959, Note_on_c, 9, 40, 0
4, 63960, Note_on_c, 9, 40, 50
4, 64079, Note_on_c, 9, 40, 0
4, 64080, Note_on_c, 9, 40, 49
4, 64199, Note_on_c, 9, 40, 0
4, 64200, Note_on_c, 9, 40, 36
4, 64319, Note_on_c, 9, 40, 0
4, 64800, Note_on_c, 9, 40, 56
4, 64919, Note_on_c, 9, 40, 0
4, 64920, Note_on_c, 9, 40, 49
4, 65039, Note_on_c, 9, 40, 0
4, 65040, Note_on_c, 9, 40, 43
4, 65159, Note_on_c, 9, 40, 0
4, 65160, Note_on_c, 9, 40, 37
4, 65279, Note_on_c, 9, 40, 0
4, 65760, Note_on_c, 9, 40, 50
4, 65879, Note_on_c, 9, 40, 0
4, 65880, Note_on_c, 9, 40, 56
4, 65999, Note_on_c, 9, 40, 0
4, 66000, Note_on_c, 9, 40, 53
4, 66119, Note_on_c, 9, 40, 0
4, 66120, Note_on_c, 9, 40, 39
4, 66239, Note_on_c, 9, 40, 0
4, 71520, Note_on_c, 9, 40, 58
4, 71639, Note_on_c, 9, 40, 0
4, 71640, Note_on_c, 9, 40, 60
4, 71759, Note_on_c, 9, 40, 0
4, 71760, Note_on_c, 9, 40, 50
4, 71879, Note_on_c, 9, 40, 0
4, 71880, Note_on_c, 9, 40, 43
4, 71999, Note_on_c, 9, 40, 0
4, 72480, Note_on_c, 9, 40, 53
4, 72599, Note_on_c, 9, 40, 0
4, 72600, Note_on_c, 9, 40, 68
4, 72719, Note_on_c, 9, 40, 0
4, 72720, Note_on_c, 9, 40, 57
4, 72839, Note_on_c, 9, 40, 0
4, 72840, Note_on_c, 9, 40, 47
4, 72959, Note_on_c, 9, 40, 0
4, 73440, Note_on_c, 9, 40, 64
4, 73559, Note_on_c, 9, 40, 0
4, 73560, Note_on_c, 9, 40, 66
4, 73679, Note_on_c, 9, 40, 0
4, 73680, Note_on_c, 9, 40, 59
4, 73799, Note_on_c, 9, 40, 0
4, 73800, Note_on_c, 9, 40, 50
4, 73919, Note_on_c, 9, 40, 0
4, 74400, Note_on_c, 9, 40, 53
4, 74519, Note_on_c, 9, 40, 0
4, 74520, Note_on_c, 9, 40, 50
4, 74639, Note_on_c, 9, 40, 0
4, 74640, Note_on_c, 9, 40, 49
4, 74759, Note_on_c, 9, 40, 0
4, 74760, Note_on_c, 9, 40, 36
4, 74879, Note_on_c, 9, 40, 0
4, 75360, Note_on_c, 9, 40, 56
4, 75479, Note_on_c, 9, 40, 0
4, 75480, Note_on_c, 9, 40, 49
4, 75599, Note_on_c, 9, 40, 0
4, 75600, Note_on_c, 9, 40, 43
4, 75719, Note_on_c, 9, 40, 0
4, 75720, Note_on_c, 9, 40, 37
4, 75839, Note_on_c, 9, 40, 0
4, 76320, Note_on_c, 9, 40, 50
4, 76439, Note_on_c, 9, 40, 0
4, 76440, Note_on_c, 9, 40, 56
4, 76559, Note_on_c, 9, 40, 0
4, 76560, Note_on_c, 9, 40, 53
4, 76679, Note_on_c, 9, 40, 0
4, 76680, Note_on_c, 9, 40, 39
4, 76799, Note_on_c, 9, 40, 0
4, 82080, Note_on_c, 9, 40, 58
4, 82199, Note_on_c, 9, 40, 0
4, 82200, Note_on_c, 9, 40, 60
4, 82319, Note_on_c, 9, 40, 0
4, 82320, Note_on_c, 9, 40, 50
4, 82439, Note_on_c, 9, 40, 0
4, 82440, Note_on_c, 9, 40, 43
4, 82559, Note_on_c, 9, 40, 0
4, 83040, Note_on_c, 9, 40, 53
4, 83159, Note_on_c, 9, 40, 0
4, 83160, Note_on_c, 9, 40, 68
4, 83279, Note_on_c, 9, 40, 0
4, 83280, Note_on_c, 9, 40, 57
4, 83399, Note_on_c, 9, 40, 0
4, 83400, Note_on_c, 9, 40, 47
4, 83519, Note_on_c, 9, 40, 0
4, 84000, Note_on_c, 9, 40, 64
4, 84119, Note_on_c, 9, 40, 0
4, 84120, Note_on_c, 9, 40, 66
4, 84239, Note_on_c, 9, 40, 0
4, 84240, Note_on_c, 9, 40, 59
4, 84359, Note_on_c, 9, 40, 0
4, 84360, Note_on_c, 9, 40, 50
4, 84479, Note_on_c, 9, 40, 0
4, 84960, Note_on_c, 9, 40, 53
4, 85079, Note_on_c, 9, 40, 0
4, 85080, Note_on_c, 9, 40, 50
4, 85199, Note_on_c, 9, 40, 0
4, 85200, Note_on_c, 9, 40, 49
4, 85319, Note_on_c, 9, 40, 0
4, 85320, Note_on_c, 9, 40, 36
4, 85439, Note_on_c, 9, 40, 0
4, 85920, Note_on_c, 9, 40, 56
4, 86039, Note_on_c, 9, 40, 0
4, 86040, Note_on_c, 9, 40, 49
4, 86159, Note_on_c, 9, 40, 0
4, 86160, Note_on_c, 9, 40, 43
4, 86279, Note_on_c, 9, 40, 0
4, 86280, Note_on_c, 9, 40, 37
4, 86399, Note_on_c, 9, 40, 0
4, 86880, Note_on_c, 9, 40, 50
4, 86999, Note_on_c, 9, 40, 0
4, 87000, Note_on_c, 9, 40, 56
4, 87119, Note_on_c, 9, 40, 0
4, 87120, Note_on_c, 9, 40, 53
4, 87239, Note_on_c, 9, 40, 0
4, 87240, Note_on_c, 9, 40, 39
4, 87359, Note_on_c, 9, 40, 0
4, 92640, Note_on_c, 9, 40, 58
4, 92759, Note_on_c, 9, 40, 0
4, 92760, Note_on_c, 9, 40, 60
4, 92879, Note_on_c, 9, 40, 0
4, 92880, Note_on_c, 9, 40, 50
4, 92969, Note_on_c, 9, 40, 0
4, 92985, Note_on_c, 9, 40, 43
4, 93119, Note_on_c, 9, 40, 0
4, 93600, Note_on_c, 9, 40, 53
4, 93689, Note_on_c, 9, 40, 0
4, 93705, Note_on_c, 9, 40, 68
4, 93809, Note_on_c, 9, 40, 0
4, 93825, Note_on_c, 9, 40, 57
4, 93929, Note_on_c, 9, 40, 0
4, 93945, Note_on_c, 9, 40, 47
4, 94079, Note_on_c, 9, 40, 0
4, 94545, Note_on_c, 9, 40, 64
4, 94679, Note_on_c, 9, 40, 0
4, 94680, Note_on_c, 9, 40, 66
4, 94769, Note_on_c, 9, 40, 0
4, 94785, Note_on_c, 9, 40, 59
4, 94889, Note_on_c, 9, 40, 0
4, 94905, Note_on_c, 9, 40, 50
4, 95039, Note_on_c, 9, 40, 0
4, 95505, Note_on_c, 9, 40, 53
4, 95639, Note_on_c, 9, 40, 0
4, 95640, Note_on_c, 9, 40, 50
4, 95759, Note_on_c, 9, 40, 0
4, 95760, Note_on_c, 9, 40, 49
4, 95849, Note_on_c, 9, 40, 0
4, 95865, Note_on_c, 9, 40, 36
4, 95999, Note_on_c, 9, 40, 0
4, 96465, Note_on_c, 9, 40, 56
4, 96599, Note_on_c, 9, 40, 0
4, 96600, Note_on_c, 9, 40, 49
4, 96689, Note_on_c, 9, 40, 0
4, 96705, Note_on_c, 9, 40, 43
4, 96809, Note_on_c, 9, 40, 0
4, 96825, Note_on_c, 9, 40, 37
4, 96959, Note_on_c, 9, 40, 0
4, 97440, Note_on_c, 9, 40, 50
4, 97529, Note_on_c, 9, 40, 0
4, 97545, Note_on_c, 9, 40, 56
4, 97649, Note_on_c, 9, 40, 0
4, 97665, Note_on_c, 9, 40, 53
4, 97769, Note_on_c, 9, 40, 0
4, 97785, Note_on_c, 9, 40, 39
4, 97919, Note_on_c, 9, 40, 0
4, 97920, End_track
5, 0, Start_track
5, 0, Key_signature, 0, "major"
5, 0, Control_c, 9, 121, 0
5, 0, Program_c, 9, 0
5, 0, Control_c, 9, 7, 100
5, 0, Control_c, 9, 10, 64
5, 0, Control_c, 9, 91, 0
5, 0, Control_c, 9, 93, 0
5, 0, MIDI_port, 0
5, 66720, Note_on_c, 9, 41, 72
5, 67199, Note_on_c, 9, 41, 0
5, 68160, Note_on_c, 9, 41, 74
5, 68639, Note_on_c, 9, 41, 0
5, 77280, Note_on_c, 9, 41, 72
5, 77759, Note_on_c, 9, 41, 0
5, 78720, Note_on_c, 9, 41, 74
5, 79199, Note_on_c, 9, 41, 0
5, 87840, Note_on_c, 9, 41, 72
5, 88319, Note_on_c, 9, 41, 0
5, 89280, Note_on_c, 9, 41, 74
5, 89759, Note_on_c, 9, 41, 0
5, 98400, Note_on_c, 9, 41, 72
5, 98879, Note_on_c, 9, 41, 0
5, 99840, Note_on_c, 9, 41, 74
5, 100319, Note_on_c, 9, 41, 0
5, 100320, End_track
6, 0, Start_track
6, 0, Key_signature, 0, "major"
6, 0, Control_c, 9, 121, 0
6, 0, Program_c, 9, 0
6, 0, Control_c, 9, 7, 100
6, 0, Control_c, 9, 10, 64
6, 0, Control_c, 9, 91, 0
6, 0, Control_c, 9, 93, 0
6, 0, MIDI_port, 0
6, 39360, Note_on_c, 9, 42, 60
6, 39599, Note_on_c, 9, 42, 0
6, 39600, Note_on_c, 9, 42, 51
6, 39839, Note_on_c, 9, 42, 0
6, 39840, Note_on_c, 9, 42, 60
6, 40079, Note_on_c, 9, 42, 0
6, 40080, Note_on_c, 9, 42, 61
6, 40319, Note_on_c, 9, 42, 0
6, 40320, Note_on_c, 9, 42, 57
6, 40559, Note_on_c, 9, 42, 0
6, 40560, Note_on_c, 9, 42, 57
6, 40799, Note_on_c, 9, 42, 0
6, 40800, Note_on_c, 9, 42, 58
6, 41279, Note_on_c, 9, 42, 0
6, 41280, Note_on_c, 9, 42, 59
6, 41519, Note_on_c, 9, 42, 0
6, 41520, Note_on_c, 9, 42, 57
6, 41759, Note_on_c, 9, 42, 0
6, 41760, Note_on_c, 9, 42, 61
6, 41999, Note_on_c, 9, 42, 0
6, 42000, Note_on_c, 9, 42, 59
6, 42239, Note_on_c, 9, 42, 0
6, 42240, Note_on_c, 9, 42, 67
6, 42479, Note_on_c, 9, 42, 0
6, 42480, Note_on_c, 9, 42, 54
6, 42719, Note_on_c, 9, 42, 0
6, 42720, Note_on_c, 9, 42, 60
6, 43199, Note_on_c, 9, 42, 0
6, 43200, Note_on_c, 9, 42, 59
6, 43439, Note_on_c, 9, 42, 0
6, 43440, Note_on_c, 9, 42, 63
6, 43679, Note_on_c, 9, 42, 0
6, 43680, Note_on_c, 9, 42, 63
6, 43919, Note_on_c, 9, 42, 0
6, 43920, Note_on_c, 9, 42, 59
6, 44159, Note_on_c, 9, 42, 0
6, 44160, Note_on_c, 9, 42, 70
6, 44399, Note_on_c, 9, 42, 0
6, 44400, Note_on_c, 9, 42, 70
6, 44639, Note_on_c, 9, 42, 0
6, 44640, Note_on_c, 9, 42, 73
6, 45119, Note_on_c, 9, 42, 0
6, 45120, Note_on_c, 9, 42, 72
6, 45359, Note_on_c, 9, 42, 0
6, 45360, Note_on_c, 9, 42, 73
6, 45599, Note_on_c, 9, 42, 0
6, 45600, Note_on_c, 9, 42, 73
6, 45839, Note_on_c, 9, 42, 0
6, 45840, Note_on_c, 9, 42, 58
6, 46079, Note_on_c, 9, 42, 0
6, 46080, Note_on_c, 9, 42, 67
6, 46319, Note_on_c, 9, 42, 0
6, 46320, Note_on_c, 9, 42, 62
6, 46559, Note_on_c, 9, 42, 0
6, 46560, Note_on_c, 9, 42, 73
6, 47039, Note_on_c, 9, 42, 0
6, 47040, Note_on_c, 9, 42, 76
6, 47279, Note_on_c, 9, 42, 0
6, 47280, Note_on_c, 9, 42, 64
6, 47519, Note_on_c, 9, 42, 0
6, 47520, Note_on_c, 9, 42, 64
6, 47759, Note_on_c, 9, 42, 0
6, 47760, Note_on_c, 9, 42, 67
6, 47999, Note_on_c, 9, 42, 0
6, 48000, Note_on_c, 9, 42, 54
6, 48239, Note_on_c, 9, 42, 0
6, 48240, Note_on_c, 9, 42, 55
6, 48479, Note_on_c, 9, 42, 0
6, 48480, Note_on_c, 9, 42, 68
6, 48959, Note_on_c, 9, 42, 0
6, 48960, Note_on_c, 9, 42, 77
6, 49199, Note_on_c, 9, 42, 0
6, 49200, Note_on_c, 9, 42, 69
6, 49439, Note_on_c, 9, 42, 0
6, 49440, Note_on_c, 9, 42, 69
6, 49679, Note_on_c, 9, 42, 0
6, 49680, Note_on_c, 9, 42, 69
6, 49919, Note_on_c, 9, 42, 0
6, 49920, Note_on_c, 9, 42, 61
6, 50159, Note_on_c, 9, 42, 0
6, 50160, Note_on_c, 9, 42, 58
6, 50399, Note_on_c, 9, 42, 0
6, 50400, Note_on_c, 9, 42, 68
6, 50879, Note_on_c, 9, 42, 0
6, 50880, Note_on_c, 9, 42, 74
6, 51119, Note_on_c, 9, 42, 0
6, 51120, Note_on_c, 9, 42, 68
6, 51359, Note_on_c, 9, 42, 0
6, 51360, Note_on_c, 9, 42, 67
6, 51599, Note_on_c, 9, 42, 0
6, 51600, Note_on_c, 9, 42, 61
6, 51839, Note_on_c, 9, 42, 0
6, 51840, Note_on_c, 9, 42, 68
6, 52079, Note_on_c, 9, 42, 0
6, 52080, Note_on_c, 9, 42, 60
6, 52319, Note_on_c, 9, 42, 0
6, 52320, Note_on_c, 9, 42, 71
6, 52799, Note_on_c, 9, 42, 0
6, 52800, Note_on_c, 9, 42, 73
6, 53039, Note_on_c, 9, 42, 0
6, 53040, Note_on_c, 9, 42, 65
6, 53279, Note_on_c, 9, 42, 0
6, 53280, Note_on_c, 9, 42, 65
6, 53519, Note_on_c, 9, 42, 0
6, 53520, Note_on_c, 9, 42, 67
6, 53759, Note_on_c, 9, 42, 0
6, 53760, Note_on_c, 9, 42, 72
6, 53999, Note_on_c, 9, 42, 0
6, 54000, Note_on_c, 9, 42, 64
6, 54239, Note_on_c, 9, 42, 0
6, 54240, Note_on_c, 9, 42, 73
6, 54719, Note_on_c, 9, 42, 0
6, 54720, End_track
7, 0, Start_track
7, 0, Key_signature, 0, "major"
7, 0, Control_c, 9, 121, 0
7, 0, Program_c, 9, 0
7, 0, Control_c, 9, 7, 100
7, 0, Control_c, 9, 10, 64
7, 0, Control_c, 9, 91, 0
7, 0, Control_c, 9, 93, 0
7, 0, MIDI_port, 0
7, 39240, Note_on_c, 9, 43, 55
7, 39359, Note_on_c, 9, 43, 0
7, 66600, Note_on_c, 9, 43, 70
7, 66719, Note_on_c, 9, 43, 0
7, 68040, Note_on_c, 9, 43, 65
7, 68159, Note_on_c, 9, 43, 0
7, 77160, Note_on_c, 9, 43, 70
7, 77279, Note_on_c, 9, 43, 0
7, 78600, Note_on_c, 9, 43, 65
7, 78719, Note_on_c, 9, 43, 0
7, 87720, Note_on_c, 9, 43, 70
7, 87839, Note_on_c, 9, 43, 0
7, 89160, Note_on_c, 9, 43, 65
7, 89279, Note_on_c, 9, 43, 0
7, 98280, Note_on_c, 9, 43, 70
7, 98399, Note_on_c, 9, 43, 0
7, 99720, Note_on_c, 9, 43, 65
7, 99839, Note_on_c, 9, 43, 0
7, 99840, End_track
8, 0, Start_track
8, 0, Key_signature, 0, "major"
8, 0, Control_c, 9, 121, 0
8, 0, Program_c, 9, 0
8, 0, Control_c, 9, 7, 100
8, 0, Control_c, 9, 10, 64
8, 0, Control_c, 9, 91, 0
8, 0, Control_c, 9, 93, 0
8, 0, MIDI_port, 0
8, 39120, Note_on_c, 9, 45, 82
8, 39359, Note_on_c, 9, 45, 0
8, 66480, Note_on_c, 9, 45, 75
8, 66719, Note_on_c, 9, 45, 0
8, 67920, Note_on_c, 9, 45, 79
8, 68159, Note_on_c, 9, 45, 0
8, 77040, Note_on_c, 9, 45, 75
8, 77279, Note_on_c, 9, 45, 0
8, 78480, Note_on_c, 9, 45, 79
8, 78719, Note_on_c, 9, 45, 0
8, 87600, Note_on_c, 9, 45, 75
8, 87839, Note_on_c, 9, 45, 0
8, 89040, Note_on_c, 9, 45, 79
8, 89279, Note_on_c, 9, 45, 0
8, 98160, Note_on_c, 9, 45, 75
8, 98399, Note_on_c, 9, 45, 0
8, 99600, Note_on_c, 9, 45, 79
8, 99839, Note_on_c, 9, 45, 0
8, 99840, End_track
9, 0, Start_track
9, 0, Key_signature, 0, "major"
9, 0, Control_c, 9, 121, 0
9, 0, Program_c, 9, 0
9, 0, Control_c, 9, 7, 100
9, 0, Control_c, 9, 10, 64
9, 0, Control_c, 9, 91, 0
9, 0, Control_c, 9, 93, 0
9, 0, MIDI_port, 0
9, 39000, Note_on_c, 9, 46, 51
9, 39359, Note_on_c, 9, 46, 0
9, 41040, Note_on_c, 9, 46, 61
9, 41279, Note_on_c, 9, 46, 0
9, 42960, Note_on_c, 9, 46, 43
9, 43199, Note_on_c, 9, 46, 0
9, 44880, Note_on_c, 9, 46, 51
9, 45119, Note_on_c, 9, 46, 0
9, 46800, Note_on_c, 9, 46, 55
9, 47039, Note_on_c, 9, 46, 0
9, 48720, Note_on_c, 9, 46, 47
9, 48959, Note_on_c, 9, 46, 0
9, 50640, Note_on_c, 9, 46, 52
9, 50879, Note_on_c, 9, 46, 0
9, 52560, Note_on_c, 9, 46, 37
9, 52799, Note_on_c, 9, 46, 0
9, 54480, Note_on_c, 9, 46, 67
9, 54719, Note_on_c, 9, 46, 0
9, 54720, End_track
10, 0, Start_track
10, 0, Key_signature, 0, "major"
10, 0, Control_c, 9, 121, 0
10, 0, Program_c, 9, 0
10, 0, Control_c, 9, 7, 100
10, 0, Control_c, 9, 10, 64
10, 0, Control_c, 9, 91, 0
10, 0, Control_c, 9, 93, 0
10, 0, MIDI_port, 0
10, 66960, Note_on_c, 9, 49, 63
10, 67199, Note_on_c, 9, 49, 0
10, 68400, Note_on_c, 9, 49, 69
10, 68639, Note_on_c, 9, 49, 0
10, 77520, Note_on_c, 9, 49, 63
10, 77759, Note_on_c, 9, 49, 0
10, 78960, Note_on_c, 9, 49, 69
10, 79199, Note_on_c, 9, 49, 0
10, 88080, Note_on_c, 9, 49, 63
10, 88319, Note_on_c, 9, 49, 0
10, 89520, Note_on_c, 9, 49, 69
10, 89759, Note_on_c, 9, 49, 0
10, 98640, Note_on_c, 9, 49, 63
10, 98879, Note_on_c, 9, 49, 0
10, 100080, Note_on_c, 9, 49, 69
10, 100799, Note_on_c, 9, 49, 0
10, 100800, End_track
11, 0, Start_track
11, 0, Key_signature, 0, "major"
11, 0, Control_c, 9, 121, 0
11, 0, Program_c, 9, 0
11, 0, Control_c, 9, 7, 100
11, 0, Control_c, 9, 10, 64
11, 0, Control_c, 9, 91, 0
11, 0, Control_c, 9, 93, 0
11, 0, MIDI_port, 0
11, 54720, Note_on_c, 9, 51, 74
11, 54959, Note_on_c, 9, 51, 0
11, 54960, Note_on_c, 9, 51, 38
11, 55199, Note_on_c, 9, 51, 0
11, 55200, Note_on_c, 9, 51, 77
11, 55439, Note_on_c, 9, 51, 0
11, 55440, Note_on_c, 9, 51, 50
11, 55679, Note_on_c, 9, 51, 0
11, 55680, Note_on_c, 9, 51, 78
11, 55919, Note_on_c, 9, 51, 0
11, 55920, Note_on_c, 9, 51, 54
11, 56159, Note_on_c, 9, 51, 0
11, 56160, Note_on_c, 9, 51, 76
11, 56399, Note_on_c, 9, 51, 0
11, 56400, Note_on_c, 9, 51, 32
11, 56639, Note_on_c, 9, 51, 0
11, 56640, Note_on_c, 9, 51, 74
11, 56879, Note_on_c, 9, 51, 0
11, 56880, Note_on_c, 9, 51, 64
11, 57119, Note_on_c, 9, 51, 0
11, 57120, Note_on_c, 9, 51, 82
11, 57359, Note_on_c, 9, 51, 0
11, 57360, Note_on_c, 9, 51, 67
11, 57599, Note_on_c, 9, 51, 0
11, 57600, Note_on_c, 9, 51, 77
11, 57839, Note_on_c, 9, 51, 0
11, 57840, Note_on_c, 9, 51, 48
11, 58079, Note_on_c, 9, 51, 0
11, 58080, Note_on_c, 9, 51, 72
11, 58319, Note_on_c, 9, 51, 0
11, 58320, Note_on_c, 9, 51, 81
11, 58559, Note_on_c, 9, 51, 0
11, 69120, Note_on_c, 9, 51, 69
11, 69599, Note_on_c, 9, 51, 0
11, 69600, Note_on_c, 9, 51, 61
11, 70079, Note_on_c, 9, 51, 0
11, 70080, Note_on_c, 9, 51, 64
11, 70559, Note_on_c, 9, 51, 0
11, 70560, Note_on_c, 9, 51, 72
11, 71039, Note_on_c, 9, 51, 0
11, 79680, Note_on_c, 9, 51, 69
11, 80159, Note_on_c, 9, 51, 0
11, 80160, Note_on_c, 9, 51, 61
11, 80639, Note_on_c, 9, 51, 0
11, 80640, Note_on_c, 9, 51, 64
11, 81119, Note_on_c, 9, 51, 0
11, 81120, Note_on_c, 9, 51, 72
11, 81599, Note_on_c, 9, 51, 0
11, 90240, Note_on_c, 9, 51, 69
11, 90719, Note_on_c, 9, 51, 0
11, 90720, Note_on_c, 9, 51, 61
11, 91199, Note_on_c, 9, 51, 0
11, 91200, Note_on_c, 9, 51, 64
11, 91679, Note_on_c, 9, 51, 0
11, 91680, Note_on_c, 9, 51, 72
11, 92159, Note_on_c, 9, 51, 0
11, 100800, Note_on_c, 9, 51, 69
11, 101279, Note_on_c, 9, 51, 0
11, 101280, Note_on_c, 9, 51, 61
11, 101759, Note_on_c, 9, 51, 0
11, 101760, Note_on_c, 9, 51, 64
11, 102239, Note_on_c, 9, 51, 0
11, 102240, End_track
12, 0, Start_track
12, 0, Key_signature, 0, "major"
12, 0, Control_c, 9, 121, 0
12, 0, Program_c, 9, 0
12, 0, Control_c, 9, 7, 100
12, 0, Control_c, 9, 10, 64
12, 0, Control_c, 9, 91, 0
12, 0, Control_c, 9, 93, 0
12, 0, MIDI_port, 0
12, 54720, Note_on_c, 9, 54, 47
12, 54959, Note_on_c, 9, 54, 0
12, 54960, Note_on_c, 9, 54, 36
12, 55199, Note_on_c, 9, 54, 0
12, 55200, Note_on_c, 9, 54, 55
12, 55439, Note_on_c, 9, 54, 0
12, 55440, Note_on_c, 9, 54, 47
12, 55679, Note_on_c, 9, 54, 0
12, 55680, Note_on_c, 9, 54, 52
12, 55919, Note_on_c, 9, 54, 0
12, 55920, Note_on_c, 9, 54, 31
12, 56159, Note_on_c, 9, 54, 0
12, 56160, Note_on_c, 9, 54, 46
12, 56399, Note_on_c, 9, 54, 0
12, 56400, Note_on_c, 9, 54, 49
12, 56639, Note_on_c, 9, 54, 0
12, 56640, Note_on_c, 9, 54, 61
12, 56879, Note_on_c, 9, 54, 0
12, 56880, Note_on_c, 9, 54, 33
12, 57119, Note_on_c, 9, 54, 0
12, 57120, Note_on_c, 9, 54, 54
12, 57359, Note_on_c, 9, 54, 0
12, 57360, Note_on_c, 9, 54, 34
12, 57599, Note_on_c, 9, 54, 0
12, 57600, Note_on_c, 9, 54, 58
12, 57839, Note_on_c, 9, 54, 0
12, 57840, Note_on_c, 9, 54, 31
12, 58079, Note_on_c, 9, 54, 0
12, 58080, Note_on_c, 9, 54, 50
12, 58319, Note_on_c, 9, 54, 0
12, 58320, Note_on_c, 9, 54, 54
12, 58559, Note_on_c, 9, 54, 0
12, 58560, Note_on_c, 9, 54, 58
12, 58799, Note_on_c, 9, 54, 0
12, 58800, Note_on_c, 9, 54, 46
12, 59039, Note_on_c, 9, 54, 0
12, 59040, Note_on_c, 9, 54, 57
12, 59279, Note_on_c, 9, 54, 0
12, 59280, Note_on_c, 9, 54, 44
12, 59519, Note_on_c, 9, 54, 0
12, 59520, Note_on_c, 9, 54, 57
12, 59759, Note_on_c, 9, 54, 0
12, 59760, Note_on_c, 9, 54, 42
12, 59999, Note_on_c, 9, 54, 0
12, 60000, Note_on_c, 9, 54, 52
12, 60239, Note_on_c, 9, 54, 0
12, 60240, Note_on_c, 9, 54, 57
12, 60479, Note_on_c, 9, 54, 0
12, 60480, Note_on_c, 9, 54, 58
12, 60719, Note_on_c, 9, 54, 0
12, 60720, Note_on_c, 9, 54, 53
12, 60959, Note_on_c, 9, 54, 0
12, 60960, Note_on_c, 9, 54, 51
12, 61199, Note_on_c, 9, 54, 0
12, 61200, Note_on_c, 9, 54, 42
12, 61439, Note_on_c, 9, 54, 0
12, 61440, Note_on_c, 9, 54, 62
12, 61679, Note_on_c, 9, 54, 0
12, 61680, Note_on_c, 9, 54, 29
12, 61919, Note_on_c, 9, 54, 0
12, 61920, Note_on_c, 9, 54, 64
12, 62159, Note_on_c, 9, 54, 0
12, 62160, Note_on_c, 9, 54, 36
12, 62399, Note_on_c, 9, 54, 0
12, 62400, Note_on_c, 9, 54, 61
12, 62639, Note_on_c, 9, 54, 0
12, 62640, Note_on_c, 9, 54, 46
12, 62879, Note_on_c, 9, 54, 0
12, 62880, Note_on_c, 9, 54, 72
12, 63119, Note_on_c, 9, 54, 0
12, 63120, Note_on_c, 9, 54, 35
12, 63359, Note_on_c, 9, 54, 0
12, 63360, Note_on_c, 9, 54, 73
12, 63599, Note_on_c, 9, 54, 0
12, 63600, Note_on_c, 9, 54, 38
12, 63839, Note_on_c, 9, 54, 0
12, 63840, Note_on_c, 9, 54, 74
12, 64079, Note_on_c, 9, 54, 0
12, 64080, Note_on_c, 9, 54, 44
12, 64319, Note_on_c, 9, 54, 0
12, 64320, Note_on_c, 9, 54, 73
12, 64559, Note_on_c, 9, 54, 0
12, 64560, Note_on_c, 9, 54, 38
12, 64799, Note_on_c, 9, 54, 0
12, 64800, Note_on_c, 9, 54, 71
12, 65039, Note_on_c, 9, 54, 0
12, 65040, Note_on_c, 9, 54, 39
12, 65279, Note_on_c, 9, 54, 0
12, 65280, Note_on_c, 9, 54, 65
12, 65519, Note_on_c, 9, 54, 0
12, 65520, Note_on_c, 9, 54, 31
12, 65759, Note_on_c, 9, 54, 0
12, 65760, Note_on_c, 9, 54, 65
12, 65999, Note_on_c, 9, 54, 0
12, 66000, Note_on_c, 9, 54, 46
12, 66239, Note_on_c, 9, 54, 0
12, 71040, Note_on_c, 9, 54, 58
12, 71279, Note_on_c, 9, 54, 0
12, 71280, Note_on_c, 9, 54, 53
12, 71519, Note_on_c, 9, 54, 0
12, 71520, Note_on_c, 9, 54, 51
12, 71759, Note_on_c, 9, 54, 0
12, 71760, Note_on_c, 9, 54, 42
12, 71999, Note_on_c, 9, 54, 0
12, 72000, Note_on_c, 9, 54, 62
12, 72239, Note_on_c, 9, 54, 0
12, 72240, Note_on_c, 9, 54, 29
12, 72479, Note_on_c, 9, 54, 0
12, 72480, Note_on_c, 9, 54, 64
12, 72719, Note_on_c, 9, 54, 0
12, 72720, Note_on_c, 9, 54, 36
12, 72959, Note_on_c, 9, 54, 0
12, 72960, Note_on_c, 9, 54, 61
12, 73199, Note_on_c, 9, 54, 0
12, 73200, Note_on_c, 9, 54, 46
12, 73439, Note_on_c, 9, 54, 0
12, 73440, Note_on_c, 9, 54, 72
12, 73679, Note_on_c, 9, 54, 0
12, 73680, Note_on_c, 9, 54, 35
12, 73919, Note_on_c, 9, 54, 0
12, 73920, Note_on_c, 9, 54, 73
12, 74159, Note_on_c, 9, 54, 0
12, 74160, Note_on_c, 9, 54, 38
12, 74399, Note_on_c, 9, 54, 0
12, 74400, Note_on_c, 9, 54, 74
12, 74639, Note_on_c, 9, 54, 0
12, 74640, Note_on_c, 9, 54, 44
12, 74879, Note_on_c, 9, 54, 0
12, 74880, Note_on_c, 9, 54, 73
12, 75119, Note_on_c, 9, 54, 0
12, 75120, Note_on_c, 9, 54, 38
12, 75359, Note_on_c, 9, 54, 0
12, 75360, Note_on_c, 9, 54, 71
12, 75599, Note_on_c, 9, 54, 0
12, 75600, Note_on_c, 9, 54, 39
12, 75839, Note_on_c, 9, 54, 0
12, 75840, Note_on_c, 9, 54, 65
12, 76079, Note_on_c, 9, 54, 0
12, 76080, Note_on_c, 9, 54, 31
12, 76319, Note_on_c, 9, 54, 0
12, 76320, Note_on_c, 9, 54, 65
12, 76559, Note_on_c, 9, 54, 0
12, 76560, Note_on_c, 9, 54, 46
12, 76799, Note_on_c, 9, 54, 0
12, 81840, Note_on_c, 9, 54, 53
12, 82079, Note_on_c, 9, 54, 0
12, 82080, Note_on_c, 9, 54, 51
12, 82319, Note_on_c, 9, 54, 0
12, 82320, Note_on_c, 9, 54, 42
12, 82559, Note_on_c, 9, 54, 0
12, 82560, Note_on_c, 9, 54, 62
12, 82799, Note_on_c, 9, 54, 0
12, 82800, Note_on_c, 9, 54, 29
12, 83039, Note_on_c, 9, 54, 0
12, 83040, Note_on_c, 9, 54, 64
12, 83279, Note_on_c, 9, 54, 0
12, 83280, Note_on_c, 9, 54, 36
12, 83519, Note_on_c, 9, 54, 0
12, 83520, Note_on_c, 9, 54, 61
12, 83759, Note_on_c, 9, 54, 0
12, 83760, Note_on_c, 9, 54, 46
12, 83999, Note_on_c, 9, 54, 0
12, 84000, Note_on_c, 9, 54, 72
12, 84239, Note_on_c, 9, 54, 0
12, 84240, Note_on_c, 9, 54, 35
12, 84479, Note_on_c, 9, 54, 0
12, 84480, Note_on_c, 9, 54, 73
12, 84719, Note_on_c, 9, 54, 0
12, 84720, Note_on_c, 9, 54, 38
12, 84959, Note_on_c, 9, 54, 0
12, 84960, Note_on_c, 9, 54, 74
12, 85199, Note_on_c, 9, 54, 0
12, 85200, Note_on_c, 9, 54, 44
12, 85439, Note_on_c, 9, 54, 0
12, 85440, Note_on_c, 9, 54, 73
12, 85679, Note_on_c, 9, 54, 0
12, 85680, Note_on_c, 9, 54, 38
12, 85919, Note_on_c, 9, 54, 0
12, 85920, Note_on_c, 9, 54, 71
12, 86159, Note_on_c, 9, 54, 0
12, 86160, Note_on_c, 9, 54, 39
12, 86399, Note_on_c, 9, 54, 0
12, 86400, Note_on_c, 9, 54, 65
12, 86639, Note_on_c, 9, 54, 0
12, 86640, Note_on_c, 9, 54, 31
12, 86879, Note_on_c, 9, 54, 0
12, 86880, Note_on_c, 9, 54, 65
12, 87119, Note_on_c, 9, 54, 0
12, 87120, Note_on_c, 9, 54, 46
12, 87359, Note_on_c, 9, 54, 0
12, 92400, Note_on_c, 9, 54, 53
12, 92639, Note_on_c, 9, 54, 0
12, 92640, Note_on_c, 9, 54, 51
12, 92879, Note_on_c, 9, 54, 0
12, 92880, Note_on_c, 9, 54, 42
12, 93119, Note_on_c, 9, 54, 0
12, 93120, Note_on_c, 9, 54, 62
12, 93359, Note_on_c, 9, 54, 0
12, 93360, Note_on_c, 9, 54, 29
12, 93599, Note_on_c, 9, 54, 0
12, 93600, Note_on_c, 9, 54, 64
12, 93839, Note_on_c, 9, 54, 0
12, 93840, Note_on_c, 9, 54, 36
12, 94079, Note_on_c, 9, 54, 0
12, 94080, Note_on_c, 9, 54, 61
12, 94319, Note_on_c, 9, 54, 0
12, 94320, Note_on_c, 9, 54, 46
12, 94559, Note_on_c, 9, 54, 0
12, 94560, Note_on_c, 9, 54, 72
12, 94799, Note_on_c, 9, 54, 0
12, 94800, Note_on_c, 9, 54, 35
12, 95039, Note_on_c, 9, 54, 0
12, 95040, Note_on_c, 9, 54, 73
12, 95279, Note_on_c, 9, 54, 0
12, 95280, Note_on_c, 9, 54, 38
12, 95519, Note_on_c, 9, 54, 0
12, 95520, Note_on_c, 9, 54, 74
12, 95759, Note_on_c, 9, 54, 0
12, 95760, Note_on_c, 9, 54, 44
12, 95999, Note_on_c, 9, 54, 0
12, 96000, Note_on_c, 9, 54, 73
12, 96239, Note_on_c, 9, 54, 0
12, 96240, Note_on_c, 9, 54, 38
12, 96479, Note_on_c, 9, 54, 0
12, 96480, Note_on_c, 9, 54, 71
12, 96719, Note_on_c, 9, 54, 0
12, 96720, Note_on_c, 9, 54, 39
12, 96959, Note_on_c, 9, 54, 0
12, 96960, Note_on_c, 9, 54, 65
12, 97199, Note_on_c, 9, 54, 0
12, 97200, Note_on_c, 9, 54, 31
12, 97439, Note_on_c, 9, 54, 0
12, 97440, Note_on_c, 9, 54, 65
12, 97679, Note_on_c, 9, 54, 0
12, 97680, Note_on_c, 9, 54, 46
12, 97919, Note_on_c, 9, 54, 0
12, 97920, End_track
13, 0, Start_track
13, 0, Key_signature, 0, "major"
13, 0, Control_c, 9, 121, 0
13, 0, Program_c, 9, 0
13, 0, Control_c, 9, 7, 100
13, 0, Control_c, 9, 10, 64
13, 0, Control_c, 9, 91, 0
13, 0, Control_c, 9, 93, 0
13, 0, MIDI_port, 0
13, 40320, Note_on_c, 9, 62, 79
13, 40799, Note_on_c, 9, 62, 0
13, 42240, Note_on_c, 9, 62, 66
13, 42719, Note_on_c, 9, 62, 0
13, 44160, Note_on_c, 9, 62, 74
13, 44639, Note_on_c, 9, 62, 0
13, 46080, Note_on_c, 9, 62, 75
13, 46559, Note_on_c, 9, 62, 0
13, 48000, Note_on_c, 9, 62, 70
13, 48479, Note_on_c, 9, 62, 0
13, 49920, Note_on_c, 9, 62, 76
13, 50399, Note_on_c, 9, 62, 0
13, 51840, Note_on_c, 9, 62, 67
13, 52319, Note_on_c, 9, 62, 0
13, 53760, Note_on_c, 9, 62, 77
13, 54239, Note_on_c, 9, 62, 0
13, 55680, Note_on_c, 9, 62, 72
13, 56159, Note_on_c, 9, 62, 0
13, 57600, Note_on_c, 9, 62, 66
13, 58079, Note_on_c, 9, 62, 0
13, 58080, End_track
14, 0, Start_track
14, 0, Key_signature, 0, "major"
14, 0, Control_c, 9, 121, 0
14, 0, Program_c, 9, 0
14, 0, Control_c, 9, 7, 100
14, 0, Control_c, 9, 10, 64
14, 0, Control_c, 9, 91, 0
14, 0, Control_c, 9, 93, 0
14, 0, MIDI_port, 0
14, 40080, Note_on_c, 9, 64, 66
14, 40319, Note_on_c, 9, 64, 0
14, 42000, Note_on_c, 9, 64, 81
14, 42239, Note_on_c, 9, 64, 0
14, 43920, Note_on_c, 9, 64, 74
14, 44159, Note_on_c, 9, 64, 0
14, 45840, Note_on_c, 9, 64, 70
14, 46079, Note_on_c, 9, 64, 0
14, 47760, Note_on_c, 9, 64, 74
14, 47999, Note_on_c, 9, 64, 0
14, 49680, Note_on_c, 9, 64, 78
14, 49919, Note_on_c, 9, 64, 0
14, 51600, Note_on_c, 9, 64, 74
14, 51839, Note_on_c, 9, 64, 0
14, 53520, Note_on_c, 9, 64, 73
14, 53759, Note_on_c, 9, 64, 0
14, 55440, Note_on_c, 9, 64, 75
14, 55679, Note_on_c, 9, 64, 0
14, 57360, Note_on_c, 9, 64, 75
14, 57599, Note_on_c, 9, 64, 0
14, 57600, End_track
15, 0, Start_track
15, 0, Key_signature, 0, "major"
15, 0, Control_c, 9, 121, 0
15, 0, Program_c, 9, 0
15, 0, Control_c, 9, 7, 100
15, 0, Control_c, 9, 10, 64
15, 0, Control_c, 9, 91, 0
15, 0, Control_c, 9, 93, 0
15, 0, MIDI_port, 0
15, 40560, Note_on_c, 9, 66, 67
15, 40799, Note_on_c, 9, 66, 0
15, 41040, Note_on_c, 9, 66, 69
15, 41279, Note_on_c, 9, 66, 0
15, 42480, Note_on_c, 9, 66, 60
15, 42719, Note_on_c, 9, 66, 0
15, 42960, Note_on_c, 9, 66, 54
15, 43199, Note_on_c, 9, 66, 0
15, 44400, Note_on_c, 9, 66, 67
15, 44639, Note_on_c, 9, 66, 0
15, 44880, Note_on_c, 9, 66, 59
15, 45119, Note_on_c, 9, 66, 0
15, 46320, Note_on_c, 9, 66, 67
15, 46559, Note_on_c, 9, 66, 0
15, 46800, Note_on_c, 9, 66, 58
15, 47039, Note_on_c, 9, 66, 0
15, 48240, Note_on_c, 9, 66, 67
15, 48479, Note_on_c, 9, 66, 0
15, 48720, Note_on_c, 9, 66, 49
15, 48959, Note_on_c, 9, 66, 0
15, 50160, Note_on_c, 9, 66, 63
15, 50399, Note_on_c, 9, 66, 0
15, 50640, Note_on_c, 9, 66, 62
15, 50879, Note_on_c, 9, 66, 0
15, 52080, Note_on_c, 9, 66, 67
15, 52319, Note_on_c, 9, 66, 0
15, 52560, Note_on_c, 9, 66, 63
15, 52799, Note_on_c, 9, 66, 0
15, 54000, Note_on_c, 9, 66, 73
15, 54239, Note_on_c, 9, 66, 0
15, 54480, Note_on_c, 9, 66, 63
15, 54719, Note_on_c, 9, 66, 0
15, 55920, Note_on_c, 9, 66, 65
15, 56159, Note_on_c, 9, 66, 0
15, 56400, Note_on_c, 9, 66, 67
15, 56639, Note_on_c, 9, 66, 0
15, 57840, Note_on_c, 9, 66, 64
15, 58079, Note_on_c, 9, 66, 0
15, 58320, Note_on_c, 9, 66, 65
15, 58559, Note_on_c, 9, 66, 0
15, 58560, End_track
0, 0, End_of_file
