0, 0, Header, 1, 2, 480
1, 0, Start_track
1, 0, Time_signature, 4, 2, 24, 8
1, 0, Key_signature, 0, "major"
1, 0, Tempo, 382166
1, 0, Control_c, 9, 121, 0
1, 0, Program_c, 9, 0
1, 0, Control_c, 9, 7, 127
1, 0, Control_c, 9, 10, 64
1, 0, Control_c, 9, 91, 0
1, 0, Control_c, 9, 93, 0
1, 0, MIDI_port, 0
1, 15300, Note_on_c, 9, 42, 75
1, 15300, Note_on_c, 9, 55, 75
1, 15359, Note_on_c, 9, 42, 0
1, 15359, Note_on_c, 9, 55, 0
1, 15360, Note_on_c, 9, 42, 75
1, 15360, Note_on_c, 9, 55, 75
1, 15399, Note_on_c, 9, 42, 0
1, 15399, Note_on_c, 9, 55, 0
1, 15420, Note_on_c, 9, 54, 75
1, 15459, Note_on_c, 9, 54, 0
1, 19200, Note_on_c, 9, 59, 60
1, 19200, Note_on_c, 9, 53, 60
1, 19679, Note_on_c, 9, 59, 0
1, 19679, Note_on_c, 9, 53, 0
1, 20160, Note_on_c, 9, 59, 60
1, 20160, Note_on_c, 9, 53, 60
1, 20639, Note_on_c, 9, 59, 0
1, 20639, Note_on_c, 9, 53, 0
1, 21120, Note_on_c, 9, 59, 60
1, 21120, Note_on_c, 9, 53, 60
1, 21599, Note_on_c, 9, 59, 0
1, 21599, Note_on_c, 9, 53, 0
1, 22080, Note_on_c, 9, 59, 60
1, 22080, Note_on_c, 9, 53, 60
1, 22559, Note_on_c, 9, 59, 0
1, 22559, Note_on_c, 9, 53, 0
1, 23040, Note_on_c, 9, 59, 60
1, 23040, Note_on_c, 9, 53, 60
1, 23519, Note_on_c, 9, 59, 0
1, 23519, Note_on_c, 9, 53, 0
1, 30720, Note_on_c, 9, 42, 60
1, 31199, Note_on_c, 9, 42, 0
1, 31200, Note_on_c, 9, 42, 60
1, 31679, Note_on_c, 9, 42, 0
1, 31680, Note_on_c, 9, 42, 60
1, 32159, Note_on_c, 9, 42, 0
1, 32160, Note_on_c, 9, 42, 60
1, 32639, Note_on_c, 9, 42, 0
1, 32640, Note_on_c, 9, 42, 60
1, 33119, Note_on_c, 9, 42, 0
1, 33120, Note_on_c, 9, 42, 60
1, 33599, Note_on_c, 9, 42, 0
1, 33600, Note_on_c, 9, 42, 60
1, 34079, Note_on_c, 9, 42, 0
1, 34080, Note_on_c, 9, 42, 60
1, 34559, Note_on_c, 9, 42, 0
1, 34560, Note_on_c, 9, 42, 60
1, 35039, Note_on_c, 9, 42, 0
1, 35040, Note_on_c, 9, 42, 60
1, 35519, Note_on_c, 9, 42, 0
1, 35520, Note_on_c, 9, 42, 60
1, 35999, Note_on_c, 9, 42, 0
1, 36000, Note_on_c, 9, 42, 60
1, 36479, Note_on_c, 9, 42, 0
1, 36480, Note_on_c, 9, 42, 60
1, 36959, Note_on_c, 9, 42, 0
1, 36960, Note_on_c, 9, 42, 60
1, 37439, Note_on_c, 9, 42, 0
1, 37440, Note_on_c, 9, 42, 60
1, 37919, Note_on_c, 9, 42, 0
1, 37920, Note_on_c, 9, 42, 60
1, 38399, Note_on_c, 9, 42, 0
1, 38400, Note_on_c, 9, 42, 60
1, 38879, Note_on_c, 9, 42, 0
1, 38880, Note_on_c, 9, 42, 60
1, 39359, Note_on_c, 9, 42, 0
1, 39360, Note_on_c, 9, 42, 60
1, 39839, Note_on_c, 9, 42, 0
1, 39840, Note_on_c, 9, 42, 60
1, 40319, Note_on_c, 9, 42, 0
1, 40320, Note_on_c, 9, 42, 60
1, 40799, Note_on_c, 9, 42, 0
1, 40800, Note_on_c, 9, 42, 60
1, 41279, Note_on_c, 9, 42, 0
1, 41280, Note_on_c, 9, 42, 60
1, 41759, Note_on_c, 9, 42, 0
1, 41760, Note_on_c, 9, 42, 60
1, 42239, Note_on_c, 9, 42, 0
1, 42240, Note_on_c, 9, 42, 60
1, 42719, Note_on_c, 9, 42, 0
1, 42720, Note_on_c, 9, 42, 60
1, 43199, Note_on_c, 9, 42, 0
1, 43200, Note_on_c, 9, 42, 60
1, 43679, Note_on_c, 9, 42, 0
1, 43680, Note_on_c, 9, 42, 60
1, 44159, Note_on_c, 9, 42, 0
1, 44160, Note_on_c, 9, 42, 60
1, 44639, Note_on_c, 9, 42, 0
1, 44640, Note_on_c, 9, 42, 60
1, 45119, Note_on_c, 9, 42, 0
1, 45120, Note_on_c, 9, 42, 60
1, 45599, Note_on_c, 9, 42, 0
1, 45600, Note_on_c, 9, 42, 60
1, 46079, Note_on_c, 9, 42, 0
1, 46080, Note_on_c, 9, 42, 60
1, 46559, Note_on_c, 9, 42, 0
1, 46560, Note_on_c, 9, 42, 60
1, 47039, Note_on_c, 9, 42, 0
1, 47040, Note_on_c, 9, 42, 60
1, 47519, Note_on_c, 9, 42, 0
1, 47520, Note_on_c, 9, 42, 60
1, 47999, Note_on_c, 9, 42, 0
1, 48000, Note_on_c, 9, 42, 60
1, 48479, Note_on_c, 9, 42, 0
1, 48480, Note_on_c, 9, 42, 60
1, 48959, Note_on_c, 9, 42, 0
1, 48960, Note_on_c, 9, 42, 60
1, 49439, Note_on_c, 9, 42, 0
1, 49440, Note_on_c, 9, 42, 60
1, 49919, Note_on_c, 9, 42, 0
1, 49920, Note_on_c, 9, 42, 60
1, 50399, Note_on_c, 9, 42, 0
1, 50400, Note_on_c, 9, 42, 60
1, 50879, Note_on_c, 9, 42, 0
1, 50880, Note_on_c, 9, 42, 60
1, 51359, Note_on_c, 9, 42, 0
1, 51360, Note_on_c, 9, 42, 60
1, 51839, Note_on_c, 9, 42, 0
1, 51840, Note_on_c, 9, 42, 60
1, 52319, Note_on_c, 9, 42, 0
1, 52320, Note_on_c, 9, 42, 60
1, 52799, Note_on_c, 9, 42, 0
1, 52800, Note_on_c, 9, 42, 60
1, 53279, Note_on_c, 9, 42, 0
1, 53280, Note_on_c, 9, 42, 60
1, 53759, Note_on_c, 9, 42, 0
1, 53760, Note_on_c, 9, 42, 60
1, 54239, Note_on_c, 9, 42, 0
1, 54240, Note_on_c, 9, 42, 60
1, 54719, Note_on_c, 9, 42, 0
1, 54720, Note_on_c, 9, 42, 60
1, 55199, Note_on_c, 9, 42, 0
1, 55200, Note_on_c, 9, 42, 60
1, 55679, Note_on_c, 9, 42, 0
1, 55680, Note_on_c, 9, 42, 60
1, 56159, Note_on_c, 9, 42, 0
1, 56160, Note_on_c, 9, 42, 60
1, 56639, Note_on_c, 9, 42, 0
1, 56640, Note_on_c, 9, 42, 60
1, 57119, Note_on_c, 9, 42, 0
1, 57120, Note_on_c, 9, 42, 60
1, 57599, Note_on_c, 9, 42, 0
1, 57600, Note_on_c, 9, 42, 60
1, 58079, Note_on_c, 9, 42, 0
1, 58080, Note_on_c, 9, 42, 60
1, 58559, Note_on_c, 9, 42, 0
1, 58560, Note_on_c, 9, 42, 60
1, 59039, Note_on_c, 9, 42, 0
1, 59040, Note_on_c, 9, 42, 60
1, 59519, Note_on_c, 9, 42, 0
1, 59520, Note_on_c, 9, 42, 60
1, 59999, Note_on_c, 9, 42, 0
1, 60000, Note_on_c, 9, 42, 60
1, 60479, Note_on_c, 9, 42, 0
1, 60480, Note_on_c, 9, 42, 60
1, 60959, Note_on_c, 9, 42, 0
1, 60960, Note_on_c, 9, 42, 60
1, 61439, Note_on_c, 9, 42, 0
1, 61440, Note_on_c, 9, 42, 60
1, 61919, Note_on_c, 9, 42, 0
1, 61920, Note_on_c, 9, 42, 60
1, 62399, Note_on_c, 9, 42, 0
1, 62400, Note_on_c, 9, 42, 60
1, 62879, Note_on_c, 9, 42, 0
1, 62880, Note_on_c, 9, 42, 60
1, 63359, Note_on_c, 9, 42, 0
1, 63360, Note_on_c, 9, 42, 60
1, 63839, Note_on_c, 9, 42, 0
1, 63840, Note_on_c, 9, 42, 60
1, 64319, Note_on_c, 9, 42, 0
1, 64320, Note_on_c, 9, 42, 60
1, 64799, Note_on_c, 9, 42, 0
1, 64800, Note_on_c, 9, 42, 60
1, 65279, Note_on_c, 9, 42, 0
1, 65280, Note_on_c, 9, 42, 60
1, 65759, Note_on_c, 9, 42, 0
1, 65760, Note_on_c, 9, 42, 60
1, 66239, Note_on_c, 9, 42, 0
1, 66240, Note_on_c, 9, 42, 60
1, 66719, Note_on_c, 9, 42, 0
1, 66720, Note_on_c, 9, 42, 60
1, 67199, Note_on_c, 9, 42, 0
1, 67200, Note_on_c, 9, 42, 60
1, 67679, Note_on_c, 9, 42, 0
1, 67680, Note_on_c, 9, 42, 60
1, 68159, Note_on_c, 9, 42, 0
1, 68160, Note_on_c, 9, 42, 60
1, 68639, Note_on_c, 9, 42, 0
1, 68640, Note_on_c, 9, 42, 60
1, 69119, Note_on_c, 9, 42, 0
1, 69120, Note_on_c, 9, 42, 60
1, 69599, Note_on_c, 9, 42, 0
1, 69600, Note_on_c, 9, 42, 60
1, 70079, Note_on_c, 9, 42, 0
1, 70080, Note_on_c, 9, 42, 60
1, 70559, Note_on_c, 9, 42, 0
1, 70560, Note_on_c, 9, 42, 60
1, 71039, Note_on_c, 9, 42, 0
1, 71040, Note_on_c, 9, 42, 60
1, 71519, Note_on_c, 9, 42, 0
1, 71520, Note_on_c, 9, 42, 60
1, 71999, Note_on_c, 9, 42, 0
1, 72000, Note_on_c, 9, 42, 60
1, 72479, Note_on_c, 9, 42, 0
1, 72480, Note_on_c, 9, 42, 60
1, 72959, Note_on_c, 9, 42, 0
1, 72960, Note_on_c, 9, 42, 60
1, 73439, Note_on_c, 9, 42, 0
1, 73440, Note_on_c, 9, 42, 60
1, 73919, Note_on_c, 9, 42, 0
1, 73920, Note_on_c, 9, 42, 60
1, 74399, Note_on_c, 9, 42, 0
1, 74400, Note_on_c, 9, 42, 60
1, 74879, Note_on_c, 9, 42, 0
1, 74880, Note_on_c, 9, 42, 60
1, 75359, Note_on_c, 9, 42, 0
1, 75360, Note_on_c, 9, 42, 60
1, 75839, Note_on_c, 9, 42, 0
1, 75840, Note_on_c, 9, 42, 60
1, 76319, Note_on_c, 9, 42, 0
1, 76320, Note_on_c, 9, 42, 60
1, 76799, Note_on_c, 9, 42, 0
1, 76800, Note_on_c, 9, 42, 60
1, 77279, Note_on_c, 9, 42, 0
1, 77280, Note_on_c, 9, 42, 60
1, 77759, Note_on_c, 9, 42, 0
1, 77760, Note_on_c, 9, 42, 60
1, 78239, Note_on_c, 9, 42, 0
1, 78240, Note_on_c, 9, 42, 60
1, 78719, Note_on_c, 9, 42, 0
1, 78720, Note_on_c, 9, 42, 60
1, 79199, Note_on_c, 9, 42, 0
1, 79200, Note_on_c, 9, 42, 60
1, 79679, Note_on_c, 9, 42, 0
1, 79680, Note_on_c, 9, 42, 60
1, 80159, Note_on_c, 9, 42, 0
1, 80160, Note_on_c, 9, 42, 60
1, 80639, Note_on_c, 9, 42, 0
1, 80640, Note_on_c, 9, 42, 60
1, 81119, Note_on_c, 9, 42, 0
1, 81120, Note_on_c, 9, 42, 60
1, 81599, Note_on_c, 9, 42, 0
1, 81600, Note_on_c, 9, 42, 60
1, 82079, Note_on_c, 9, 42, 0
1, 82080, Note_on_c, 9, 42, 60
1, 82559, Note_on_c, 9, 42, 0
1, 82560, Note_on_c, 9, 42, 60
1, 83039, Note_on_c, 9, 42, 0
1, 83040, Note_on_c, 9, 42, 60
1, 83519, Note_on_c, 9, 42, 0
1, 83520, Note_on_c, 9, 42, 60
1, 83999, Note_on_c, 9, 42, 0
1, 84000, Note_on_c, 9, 42, 60
1, 84479, Note_on_c, 9, 42, 0
1, 84480, Note_on_c, 9, 42, 60
1, 84959, Note_on_c, 9, 42, 0
1, 84960, Note_on_c, 9, 42, 60
1, 85439, Note_on_c, 9, 42, 0
1, 85440, Note_on_c, 9, 42, 60
1, 85919, Note_on_c, 9, 42, 0
1, 85920, Note_on_c, 9, 42, 60
1, 86399, Note_on_c, 9, 42, 0
1, 86400, Note_on_c, 9, 42, 60
1, 86879, Note_on_c, 9, 42, 0
1, 86880, Note_on_c, 9, 42, 60
1, 87359, Note_on_c, 9, 42, 0
1, 87360, Note_on_c, 9, 42, 60
1, 87839, Note_on_c, 9, 42, 0
1, 87840, Note_on_c, 9, 42, 60
1, 88319, Note_on_c, 9, 42, 0
1, 88320, Note_on_c, 9, 42, 60
1, 88799, Note_on_c, 9, 42, 0
1, 88800, Note_on_c, 9, 42, 60
1, 89279, Note_on_c, 9, 42, 0
1, 89280, Note_on_c, 9, 42, 60
1, 89759, Note_on_c, 9, 42, 0
1, 89760, Note_on_c, 9, 42, 60
1, 90239, Note_on_c, 9, 42, 0
1, 90240, Note_on_c, 9, 42, 60
1, 90719, Note_on_c, 9, 42, 0
1, 90720, Note_on_c, 9, 42, 60
1, 91199, Note_on_c, 9, 42, 0
1, 91200, Note_on_c, 9, 42, 60
1, 91679, Note_on_c, 9, 42, 0
1, 91680, Note_on_c, 9, 42, 60
1, 92159, Note_on_c, 9, 42, 0
1, 92160, Note_on_c, 9, 42, 60
1, 92639, Note_on_c, 9, 42, 0
1, 92640, Note_on_c, 9, 42, 60
1, 93119, Note_on_c, 9, 42, 0
1, 93120, Note_on_c, 9, 42, 60
1, 93599, Note_on_c, 9, 42, 0
1, 93600, Note_on_c, 9, 42, 60
1, 94079, Note_on_c, 9, 42, 0
1, 94080, Note_on_c, 9, 42, 60
1, 94559, Note_on_c, 9, 42, 0
1, 94560, Note_on_c, 9, 42, 60
1, 95039, Note_on_c, 9, 42, 0
1, 95040, Note_on_c, 9, 42, 60
1, 95519, Note_on_c, 9, 42, 0
1, 95520, Note_on_c, 9, 42, 60
1, 95999, Note_on_c, 9, 42, 0
1, 96000, Note_on_c, 9, 42, 60
1, 96479, Note_on_c, 9, 42, 0
1, 96480, Note_on_c, 9, 42, 60
1, 96959, Note_on_c, 9, 42, 0
1, 96960, Note_on_c, 9, 42, 60
1, 97439, Note_on_c, 9, 42, 0
1, 97440, Note_on_c, 9, 42, 60
1, 97919, Note_on_c, 9, 42, 0
1, 97920, Note_on_c, 9, 42, 60
1, 98399, Note_on_c, 9, 42, 0
1, 98400, Note_on_c, 9, 42, 60
1, 98879, Note_on_c, 9, 42, 0
1, 98880, Note_on_c, 9, 42, 60
1, 99359, Note_on_c, 9, 42, 0
1, 99360, Note_on_c, 9, 42, 60
1, 99839, Note_on_c, 9, 42, 0
1, 99840, Note_on_c, 9, 42, 60
1, 100319, Note_on_c, 9, 42, 0
1, 100320, Note_on_c, 9, 42, 60
1, 100799, Note_on_c, 9, 42, 0
1, 100800, Note_on_c, 9, 42, 60
1, 101279, Note_on_c, 9, 42, 0
1, 101280, Note_on_c, 9, 42, 60
1, 101759, Note_on_c, 9, 42, 0
1, 101760, Note_on_c, 9, 42, 60
1, 102239, Note_on_c, 9, 42, 0
1, 102240, Note_on_c, 9, 42, 60
1, 102719, Note_on_c, 9, 42, 0
1, 102720, Note_on_c, 9, 42, 60
1, 103199, Note_on_c, 9, 42, 0
1, 103200, Note_on_c, 9, 42, 60
1, 103679, Note_on_c, 9, 42, 0
1, 103680, Note_on_c, 9, 42, 60
1, 104159, Note_on_c, 9, 42, 0
1, 104160, Note_on_c, 9, 42, 60
1, 104639, Note_on_c, 9, 42, 0
1, 104640, Note_on_c, 9, 42, 60
1, 105119, Note_on_c, 9, 42, 0
1, 105120, Note_on_c, 9, 42, 60
1, 105599, Note_on_c, 9, 42, 0
1, 105600, Note_on_c, 9, 42, 60
1, 106079, Note_on_c, 9, 42, 0
1, 106080, Note_on_c, 9, 42, 60
1, 106559, Note_on_c, 9, 42, 0
1, 106560, Note_on_c, 9, 42, 60
1, 107039, Note_on_c, 9, 42, 0
1, 107040, Note_on_c, 9, 42, 60
1, 107519, Note_on_c, 9, 42, 0
1, 107520, Note_on_c, 9, 42, 60
1, 107999, Note_on_c, 9, 42, 0
1, 108000, Note_on_c, 9, 42, 60
1, 108479, Note_on_c, 9, 42, 0
1, 108480, Note_on_c, 9, 42, 60
1, 108959, Note_on_c, 9, 42, 0
1, 108960, Note_on_c, 9, 42, 60
1, 109439, Note_on_c, 9, 42, 0
1, 109440, Note_on_c, 9, 42, 60
1, 109919, Note_on_c, 9, 42, 0
1, 109920, Note_on_c, 9, 42, 60
1, 110399, Note_on_c, 9, 42, 0
1, 110400, Note_on_c, 9, 42, 60
1, 110879, Note_on_c, 9, 42, 0
1, 110880, Note_on_c, 9, 42, 60
1, 111359, Note_on_c, 9, 42, 0
1, 111360, Note_on_c, 9, 42, 60
1, 111839, Note_on_c, 9, 42, 0
1, 111840, Note_on_c, 9, 42, 60
1, 112319, Note_on_c, 9, 42, 0
1, 112320, Note_on_c, 9, 42, 60
1, 112799, Note_on_c, 9, 42, 0
1, 112800, Note_on_c, 9, 42, 60
1, 113279, Note_on_c, 9, 42, 0
1, 113280, Note_on_c, 9, 42, 60
1, 113759, Note_on_c, 9, 42, 0
1, 113760, Note_on_c, 9, 42, 60
1, 114239, Note_on_c, 9, 42, 0
1, 114240, Note_on_c, 9, 42, 60
1, 114719, Note_on_c, 9, 42, 0
1, 114720, Note_on_c, 9, 42, 60
1, 115199, Note_on_c, 9, 42, 0
1, 115200, Note_on_c, 9, 42, 60
1, 115679, Note_on_c, 9, 42, 0
1, 115680, Note_on_c, 9, 42, 60
1, 116159, Note_on_c, 9, 42, 0
1, 116160, Note_on_c, 9, 42, 60
1, 116639, Note_on_c, 9, 42, 0
1, 116640, Note_on_c, 9, 42, 60
1, 117119, Note_on_c, 9, 42, 0
1, 117120, Note_on_c, 9, 42, 60
1, 117599, Note_on_c, 9, 42, 0
1, 117600, Note_on_c, 9, 42, 60
1, 118079, Note_on_c, 9, 42, 0
1, 118080, Note_on_c, 9, 42, 60
1, 118559, Note_on_c, 9, 42, 0
1, 118560, Note_on_c, 9, 42, 60
1, 119039, Note_on_c, 9, 42, 0
1, 119040, Note_on_c, 9, 42, 60
1, 119519, Note_on_c, 9, 42, 0
1, 119520, Note_on_c, 9, 42, 60
1, 119999, Note_on_c, 9, 42, 0
1, 120000, Note_on_c, 9, 42, 60
1, 120479, Note_on_c, 9, 42, 0
1, 120480, Note_on_c, 9, 42, 60
1, 120959, Note_on_c, 9, 42, 0
1, 120960, Note_on_c, 9, 42, 60
1, 121439, Note_on_c, 9, 42, 0
1, 121440, Note_on_c, 9, 42, 60
1, 121919, Note_on_c, 9, 42, 0
1, 121920, Note_on_c, 9, 42, 60
1, 122399, Note_on_c, 9, 42, 0
1, 122400, Note_on_c, 9, 42, 60
1, 122879, Note_on_c, 9, 42, 0
1, 122880, Note_on_c, 9, 42, 60
1, 123359, Note_on_c, 9, 42, 0
1, 123360, Note_on_c, 9, 42, 60
1, 123839, Note_on_c, 9, 42, 0
1, 123840, Note_on_c, 9, 42, 60
1, 124319, Note_on_c, 9, 42, 0
1, 124320, Note_on_c, 9, 42, 60
1, 124799, Note_on_c, 9, 42, 0
1, 124800, Note_on_c, 9, 42, 60
1, 125279, Note_on_c, 9, 42, 0
1, 125280, Note_on_c, 9, 42, 60
1, 125759, Note_on_c, 9, 42, 0
1, 125760, Note_on_c, 9, 42, 60
1, 126239, Note_on_c, 9, 42, 0
1, 126240, Note_on_c, 9, 42, 60
1, 126719, Note_on_c, 9, 42, 0
1, 126720, Note_on_c, 9, 42, 60
1, 127199, Note_on_c, 9, 42, 0
1, 127200, Note_on_c, 9, 42, 60
1, 127679, Note_on_c, 9, 42, 0
1, 127680, Note_on_c, 9, 42, 60
1, 128159, Note_on_c, 9, 42, 0
1, 128160, Note_on_c, 9, 42, 60
1, 128639, Note_on_c, 9, 42, 0
1, 128640, Note_on_c, 9, 42, 60
1, 129119, Note_on_c, 9, 42, 0
1, 129120, Note_on_c, 9, 42, 60
1, 129599, Note_on_c, 9, 42, 0
1, 129600, Note_on_c, 9, 42, 60
1, 130079, Note_on_c, 9, 42, 0
1, 130080, Note_on_c, 9, 42, 60
1, 130559, Note_on_c, 9, 42, 0
1, 130560, Note_on_c, 9, 42, 60
1, 131039, Note_on_c, 9, 42, 0
1, 131040, Note_on_c, 9, 42, 60
1, 131519, Note_on_c, 9, 42, 0
1, 131520, Note_on_c, 9, 42, 60
1, 131999, Note_on_c, 9, 42, 0
1, 132000, Note_on_c, 9, 42, 60
1, 132479, Note_on_c, 9, 42, 0
1, 132480, Note_on_c, 9, 42, 60
1, 132959, Note_on_c, 9, 42, 0
1, 132960, Note_on_c, 9, 42, 60
1, 133439, Note_on_c, 9, 42, 0
1, 133440, Note_on_c, 9, 42, 60
1, 133919, Note_on_c, 9, 42, 0
1, 133920, Note_on_c, 9, 42, 60
1, 134399, Note_on_c, 9, 42, 0
1, 134400, Note_on_c, 9, 42, 60
1, 134879, Note_on_c, 9, 42, 0
1, 134880, Note_on_c, 9, 42, 60
1, 135359, Note_on_c, 9, 42, 0
1, 135360, Note_on_c, 9, 42, 60
1, 135839, Note_on_c, 9, 42, 0
1, 135840, Note_on_c, 9, 42, 60
1, 136319, Note_on_c, 9, 42, 0
1, 136320, Note_on_c, 9, 42, 60
1, 136799, Note_on_c, 9, 42, 0
1, 136800, Note_on_c, 9, 42, 60
1, 137279, Note_on_c, 9, 42, 0
1, 137280, Note_on_c, 9, 42, 60
1, 137759, Note_on_c, 9, 42, 0
1, 137760, Note_on_c, 9, 42, 60
1, 138239, Note_on_c, 9, 42, 0
1, 138240, Note_on_c, 9, 42, 60
1, 138719, Note_on_c, 9, 42, 0
1, 138720, Note_on_c, 9, 42, 60
1, 139199, Note_on_c, 9, 42, 0
1, 139200, Note_on_c, 9, 42, 60
1, 139679, Note_on_c, 9, 42, 0
1, 139680, Note_on_c, 9, 42, 60
1, 140159, Note_on_c, 9, 42, 0
1, 140160, Note_on_c, 9, 42, 60
1, 140639, Note_on_c, 9, 42, 0
1, 140640, Note_on_c, 9, 42, 60
1, 141119, Note_on_c, 9, 42, 0
1, 141120, Note_on_c, 9, 42, 60
1, 141599, Note_on_c, 9, 42, 0
1, 141600, Note_on_c, 9, 42, 60
1, 142079, Note_on_c, 9, 42, 0
1, 142080, Note_on_c, 9, 42, 60
1, 142559, Note_on_c, 9, 42, 0
1, 142560, Note_on_c, 9, 42, 60
1, 143039, Note_on_c, 9, 42, 0
1, 143040, Note_on_c, 9, 42, 60
1, 143519, Note_on_c, 9, 42, 0
1, 143520, Note_on_c, 9, 42, 60
1, 143999, Note_on_c, 9, 42, 0
1, 144000, Note_on_c, 9, 42, 60
1, 144479, Note_on_c, 9, 42, 0
1, 144480, Note_on_c, 9, 42, 60
1, 144959, Note_on_c, 9, 42, 0
1, 144960, Note_on_c, 9, 42, 60
1, 145439, Note_on_c, 9, 42, 0
1, 145440, Note_on_c, 9, 42, 60
1, 145919, Note_on_c, 9, 42, 0
1, 145920, Note_on_c, 9, 54, 60
1, 146039, Note_on_c, 9, 54, 0
1, 146040, Note_on_c, 9, 54, 60
1, 146159, Note_on_c, 9, 54, 0
1, 146160, Note_on_c, 9, 54, 60
1, 146279, Note_on_c, 9, 54, 0
1, 146280, Note_on_c, 9, 54, 60
1, 146399, Note_on_c, 9, 54, 0
1, 146400, Note_on_c, 9, 54, 45
1, 146519, Note_on_c, 9, 54, 0
1, 146520, Note_on_c, 9, 54, 45
1, 146639, Note_on_c, 9, 54, 0
1, 146640, Note_on_c, 9, 54, 45
1, 146759, Note_on_c, 9, 54, 0
1, 146760, Note_on_c, 9, 54, 45
1, 146879, Note_on_c, 9, 54, 0
1, 146880, Note_on_c, 9, 54, 45
1, 146999, Note_on_c, 9, 54, 0
1, 147000, Note_on_c, 9, 54, 42
1, 147119, Note_on_c, 9, 54, 0
1, 147120, Note_on_c, 9, 54, 38
1, 147239, Note_on_c, 9, 54, 0
1, 147240, Note_on_c, 9, 54, 34
1, 147359, Note_on_c, 9, 54, 0
1, 147360, Note_on_c, 9, 54, 30
1, 147479, Note_on_c, 9, 54, 0
1, 147480, Note_on_c, 9, 54, 30
1, 147599, Note_on_c, 9, 54, 0
1, 147600, Note_on_c, 9, 54, 30
1, 147719, Note_on_c, 9, 54, 0
1, 147720, Note_on_c, 9, 54, 30
1, 147839, Note_on_c, 9, 54, 0
1, 147840, Note_on_c, 9, 54, 30
1, 147959, Note_on_c, 9, 54, 0
1, 147960, Note_on_c, 9, 54, 25
1, 148079, Note_on_c, 9, 54, 0
1, 148080, Note_on_c, 9, 54, 20
1, 148199, Note_on_c, 9, 54, 0
1, 148200, Note_on_c, 9, 54, 15
1, 148319, Note_on_c, 9, 54, 0
1, 148320, Note_on_c, 9, 54, 10
1, 148439, Note_on_c, 9, 54, 0
1, 148440, Note_on_c, 9, 54, 10
1, 148559, Note_on_c, 9, 54, 0
1, 148560, Note_on_c, 9, 54, 10
1, 148679, Note_on_c, 9, 54, 0
1, 148680, Note_on_c, 9, 54, 10
1, 148799, Note_on_c, 9, 54, 0
1, 148800, End_track
2, 0, Start_track
2, 0, Key_signature, 0, "major"
2, 0, Control_c, 9, 121, 0
2, 0, Program_c, 9, 0
2, 0, Control_c, 9, 7, 127
2, 0, Control_c, 9, 10, 64
2, 0, Control_c, 9, 91, 0
2, 0, Control_c, 9, 93, 0
2, 0, MIDI_port, 0
2, 30720, Note_on_c, 9, 36, 92
2, 31199, Note_on_c, 9, 36, 0
2, 31680, Note_on_c, 9, 37, 127
2, 32159, Note_on_c, 9, 37, 0
2, 32640, Note_on_c, 9, 36, 92
2, 33119, Note_on_c, 9, 36, 0
2, 33600, Note_on_c, 9, 37, 127
2, 34079, Note_on_c, 9, 37, 0
2, 34560, Note_on_c, 9, 36, 92
2, 35039, Note_on_c, 9, 36, 0
2, 35520, Note_on_c, 9, 37, 127
2, 35999, Note_on_c, 9, 37, 0
2, 36480, Note_on_c, 9, 36, 92
2, 36959, Note_on_c, 9, 36, 0
2, 37440, Note_on_c, 9, 37, 127
2, 37919, Note_on_c, 9, 37, 0
2, 38400, Note_on_c, 9, 36, 92
2, 38879, Note_on_c, 9, 36, 0
2, 39360, Note_on_c, 9, 37, 127
2, 39839, Note_on_c, 9, 37, 0
2, 40320, Note_on_c, 9, 36, 92
2, 40799, Note_on_c, 9, 36, 0
2, 41280, Note_on_c, 9, 37, 127
2, 41759, Note_on_c, 9, 37, 0
2, 42240, Note_on_c, 9, 36, 92
2, 42719, Note_on_c, 9, 36, 0
2, 43200, Note_on_c, 9, 37, 127
2, 43679, Note_on_c, 9, 37, 0
2, 44160, Note_on_c, 9, 36, 92
2, 44639, Note_on_c, 9, 36, 0
2, 45120, Note_on_c, 9, 37, 127
2, 45599, Note_on_c, 9, 37, 0
2, 46080, Note_on_c, 9, 36, 92
2, 46559, Note_on_c, 9, 36, 0
2, 47040, Note_on_c, 9, 37, 127
2, 47519, Note_on_c, 9, 37, 0
2, 48000, Note_on_c, 9, 36, 92
2, 48479, Note_on_c, 9, 36, 0
2, 48960, Note_on_c, 9, 37, 127
2, 49439, Note_on_c, 9, 37, 0
2, 49920, Note_on_c, 9, 36, 92
2, 50399, Note_on_c, 9, 36, 0
2, 50880, Note_on_c, 9, 37, 127
2, 51359, Note_on_c, 9, 37, 0
2, 51840, Note_on_c, 9, 36, 92
2, 52319, Note_on_c, 9, 36, 0
2, 52800, Note_on_c, 9, 37, 127
2, 53279, Note_on_c, 9, 37, 0
2, 53760, Note_on_c, 9, 36, 92
2, 54239, Note_on_c, 9, 36, 0
2, 54720, Note_on_c, 9, 37, 127
2, 55199, Note_on_c, 9, 37, 0
2, 55680, Note_on_c, 9, 36, 92
2, 56159, Note_on_c, 9, 36, 0
2, 56640, Note_on_c, 9, 37, 127
2, 57119, Note_on_c, 9, 37, 0
2, 57600, Note_on_c, 9, 36, 92
2, 58079, Note_on_c, 9, 36, 0
2, 58560, Note_on_c, 9, 37, 127
2, 59039, Note_on_c, 9, 37, 0
2, 60000, Note_on_c, 9, 40, 92
2, 60239, Note_on_c, 9, 40, 0
2, 60240, Note_on_c, 9, 40, 92
2, 60479, Note_on_c, 9, 40, 0
2, 60480, Note_on_c, 9, 48, 92
2, 60959, Note_on_c, 9, 48, 0
2, 60960, Note_on_c, 9, 47, 92
2, 61439, Note_on_c, 9, 47, 0
2, 61440, Note_on_c, 9, 36, 60
2, 61919, Note_on_c, 9, 36, 0
2, 62400, Note_on_c, 9, 40, 84
2, 62879, Note_on_c, 9, 40, 0
2, 63360, Note_on_c, 9, 36, 60
2, 63839, Note_on_c, 9, 36, 0
2, 64320, Note_on_c, 9, 40, 84
2, 64799, Note_on_c, 9, 40, 0
2, 65280, Note_on_c, 9, 36, 60
2, 65759, Note_on_c, 9, 36, 0
2, 66240, Note_on_c, 9, 40, 84
2, 66719, Note_on_c, 9, 40, 0
2, 67200, Note_on_c, 9, 36, 60
2, 67679, Note_on_c, 9, 36, 0
2, 68160, Note_on_c, 9, 40, 84
2, 68639, Note_on_c, 9, 40, 0
2, 69120, Note_on_c, 9, 36, 60
2, 69599, Note_on_c, 9, 36, 0
2, 70080, Note_on_c, 9, 40, 84
2, 70559, Note_on_c, 9, 40, 0
2, 71040, Note_on_c, 9, 36, 60
2, 71519, Note_on_c, 9, 36, 0
2, 72000, Note_on_c, 9, 40, 84
2, 72479, Note_on_c, 9, 40, 0
2, 72960, Note_on_c, 9, 36, 60
2, 73439, Note_on_c, 9, 36, 0
2, 73920, Note_on_c, 9, 40, 84
2, 74399, Note_on_c, 9, 40, 0
2, 74880, Note_on_c, 9, 36, 60
2, 75359, Note_on_c, 9, 36, 0
2, 75840, Note_on_c, 9, 40, 84
2, 76319, Note_on_c, 9, 40, 0
2, 76800, Note_on_c, 9, 36, 60
2, 77279, Note_on_c, 9, 36, 0
2, 77760, Note_on_c, 9, 40, 84
2, 78239, Note_on_c, 9, 40, 0
2, 78720, Note_on_c, 9, 36, 60
2, 79199, Note_on_c, 9, 36, 0
2, 79680, Note_on_c, 9, 40, 84
2, 80159, Note_on_c, 9, 40, 0
2, 80640, Note_on_c, 9, 36, 60
2, 81119, Note_on_c, 9, 36, 0
2, 81600, Note_on_c, 9, 40, 84
2, 82079, Note_on_c, 9, 40, 0
2, 82560, Note_on_c, 9, 36, 60
2, 83039, Note_on_c, 9, 36, 0
2, 83520, Note_on_c, 9, 40, 84
2, 83999, Note_on_c, 9, 40, 0
2, 84480, Note_on_c, 9, 36, 60
2, 84959, Note_on_c, 9, 36, 0
2, 85440, Note_on_c, 9, 40, 84
2, 85919, Note_on_c, 9, 40, 0
2, 86400, Note_on_c, 9, 36, 60
2, 86879, Note_on_c, 9, 36, 0
2, 87360, Note_on_c, 9, 40, 84
2, 87839, Note_on_c, 9, 40, 0
2, 88320, Note_on_c, 9, 36, 60
2, 88799, Note_on_c, 9, 36, 0
2, 89280, Note_on_c, 9, 40, 84
2, 89759, Note_on_c, 9, 40, 0
2, 90720, Note_on_c, 9, 40, 60
2, 90959, Note_on_c, 9, 40, 0
2, 90960, Note_on_c, 9, 40, 60
2, 91199, Note_on_c, 9, 40, 0
2, 91200, Note_on_c, 9, 48, 60
2, 91679, Note_on_c, 9, 48, 0
2, 91680, Note_on_c, 9, 47, 60
2, 92159, Note_on_c, 9, 47, 0
2, 92160, Note_on_c, 9, 36, 60
2, 92639, Note_on_c, 9, 36, 0
2, 93120, Note_on_c, 9, 40, 84
2, 93599, Note_on_c, 9, 40, 0
2, 94080, Note_on_c, 9, 36, 60
2, 94559, Note_on_c, 9, 36, 0
2, 95040, Note_on_c, 9, 40, 84
2, 95519, Note_on_c, 9, 40, 0
2, 96000, Note_on_c, 9, 36, 60
2, 96479, Note_on_c, 9, 36, 0
2, 96960, Note_on_c, 9, 40, 84
2, 97439, Note_on_c, 9, 40, 0
2, 97920, Note_on_c, 9, 36, 60
2, 98399, Note_on_c, 9, 36, 0
2, 98880, Note_on_c, 9, 40, 84
2, 99359, Note_on_c, 9, 40, 0
2, 99840, Note_on_c, 9, 36, 60
2, 100319, Note_on_c, 9, 36, 0
2, 100800, Note_on_c, 9, 40, 84
2, 101279, Note_on_c, 9, 40, 0
2, 101760, Note_on_c, 9, 36, 60
2, 102239, Note_on_c, 9, 36, 0
2, 102720, Note_on_c, 9, 40, 84
2, 103199, Note_on_c, 9, 40, 0
2, 103680, Note_on_c, 9, 36, 60
2, 104159, Note_on_c, 9, 36, 0
2, 104640, Note_on_c, 9, 40, 84
2, 105119, Note_on_c, 9, 40, 0
2, 105600, Note_on_c, 9, 36, 60
2, 106079, Note_on_c, 9, 36, 0
2, 106560, Note_on_c, 9, 40, 84
2, 107039, Note_on_c, 9, 40, 0
2, 107520, Note_on_c, 9, 36, 60
2, 107999, Note_on_c, 9, 36, 0
2, 108480, Note_on_c, 9, 40, 84
2, 108959, Note_on_c, 9, 40, 0
2, 109440, Note_on_c, 9, 36, 60
2, 109919, Note_on_c, 9, 36, 0
2, 110400, Note_on_c, 9, 40, 84
2, 110879, Note_on_c, 9, 40, 0
2, 111360, Note_on_c, 9, 36, 60
2, 111839, Note_on_c, 9, 36, 0
2, 112320, Note_on_c, 9, 40, 84
2, 112799, Note_on_c, 9, 40, 0
2, 113280, Note_on_c, 9, 36, 60
2, 113759, Note_on_c, 9, 36, 0
2, 114240, Note_on_c, 9, 40, 84
2, 114719, Note_on_c, 9, 40, 0
2, 115200, Note_on_c, 9, 36, 60
2, 115679, Note_on_c, 9, 36, 0
2, 116160, Note_on_c, 9, 40, 84
2, 116639, Note_on_c, 9, 40, 0
2, 117120, Note_on_c, 9, 36, 60
2, 117599, Note_on_c, 9, 36, 0
2, 118080, Note_on_c, 9, 40, 84
2, 118559, Note_on_c, 9, 40, 0
2, 119040, Note_on_c, 9, 36, 60
2, 119519, Note_on_c, 9, 36, 0
2, 120000, Note_on_c, 9, 40, 84
2, 120479, Note_on_c, 9, 40, 0
2, 120960, Note_on_c, 9, 36, 60
2, 121439, Note_on_c, 9, 36, 0
2, 121920, Note_on_c, 9, 40, 84
2, 122399, Note_on_c, 9, 40, 0
2, 122880, Note_on_c, 9, 36, 60
2, 123359, Note_on_c, 9, 36, 0
2, 123840, Note_on_c, 9, 40, 84
2, 124319, Note_on_c, 9, 40, 0
2, 124800, Note_on_c, 9, 36, 60
2, 125279, Note_on_c, 9, 36, 0
2, 125760, Note_on_c, 9, 40, 84
2, 126239, Note_on_c, 9, 40, 0
2, 126720, Note_on_c, 9, 36, 60
2, 127199, Note_on_c, 9, 36, 0
2, 127680, Note_on_c, 9, 40, 84
2, 128159, Note_on_c, 9, 40, 0
2, 128640, Note_on_c, 9, 36, 60
2, 129119, Note_on_c, 9, 36, 0
2, 129600, Note_on_c, 9, 40, 84
2, 130079, Note_on_c, 9, 40, 0
2, 130560, Note_on_c, 9, 36, 60
2, 131039, Note_on_c, 9, 36, 0
2, 131520, Note_on_c, 9, 40, 84
2, 131999, Note_on_c, 9, 40, 0
2, 132480, Note_on_c, 9, 36, 60
2, 132959, Note_on_c, 9, 36, 0
2, 133440, Note_on_c, 9, 40, 84
2, 133919, Note_on_c, 9, 40, 0
2, 134400, Note_on_c, 9, 36, 60
2, 134879, Note_on_c, 9, 36, 0
2, 135360, Note_on_c, 9, 40, 84
2, 135839, Note_on_c, 9, 40, 0
2, 136320, Note_on_c, 9, 36, 60
2, 136799, Note_on_c, 9, 36, 0
2, 137280, Note_on_c, 9, 40, 84
2, 137759, Note_on_c, 9, 40, 0
2, 138240, Note_on_c, 9, 36, 60
2, 138719, Note_on_c, 9, 36, 0
2, 139200, Note_on_c, 9, 40, 84
2, 139679, Note_on_c, 9, 40, 0
2, 140160, Note_on_c, 9, 36, 60
2, 140639, Note_on_c, 9, 36, 0
2, 141120, Note_on_c, 9, 40, 84
2, 141599, Note_on_c, 9, 40, 0
2, 142080, Note_on_c, 9, 36, 60
2, 142559, Note_on_c, 9, 36, 0
2, 143040, Note_on_c, 9, 40, 84
2, 143519, Note_on_c, 9, 40, 0
2, 144000, Note_on_c, 9, 36, 60
2, 144479, Note_on_c, 9, 36, 0
2, 144960, Note_on_c, 9, 40, 84
2, 145919, Note_on_c, 9, 40, 0
2, 145920, Note_on_c, 9, 36, 60
2, 147839, Note_on_c, 9, 36, 0
2, 147840, End_track
0, 0, End_of_file
