0, 0, Header, 1, 8, 480
1, 0, Start_track
1, 0, Time_signature, 4, 2, 24, 8
1, 0, Key_signature, 0, "major"
1, 0, Tempo, 500000
1, 0, Control_c, 9, 121, 0
1, 0, Program_c, 9, 0
1, 0, Control_c, 9, 7, 100
1, 0, Control_c, 9, 10, 64
1, 0, Control_c, 9, 91, 0
1, 0, Control_c, 9, 93, 0
1, 0, MIDI_port, 0
1, 8, Tempo, 428571
1, 53760, Note_on_c, 9, 36, 72
1, 54239, Note_on_c, 9, 36, 0
1, 54720, Note_on_c, 9, 36, 74
1, 55199, Note_on_c, 9, 36, 0
1, 55680, Note_on_c, 9, 36, 72
1, 56159, Note_on_c, 9, 36, 0
1, 56640, Note_on_c, 9, 36, 74
1, 57119, Note_on_c, 9, 36, 0
1, 57600, Note_on_c, 9, 36, 72
1, 58079, Note_on_c, 9, 36, 0
1, 58560, Note_on_c, 9, 36, 74
1, 59039, Note_on_c, 9, 36, 0
1, 59520, Note_on_c, 9, 36, 72
1, 59999, Note_on_c, 9, 36, 0
1, 60480, Note_on_c, 9, 36, 74
1, 60959, Note_on_c, 9, 36, 0
1, 61440, Note_on_c, 9, 36, 72
1, 61919, Note_on_c, 9, 36, 0
1, 62400, Note_on_c, 9, 36, 74
1, 62879, Note_on_c, 9, 36, 0
1, 63360, Note_on_c, 9, 36, 72
1, 63839, Note_on_c, 9, 36, 0
1, 64320, Note_on_c, 9, 36, 74
1, 64799, Note_on_c, 9, 36, 0
1, 65280, Note_on_c, 9, 36, 72
1, 65759, Note_on_c, 9, 36, 0
1, 66240, Note_on_c, 9, 36, 74
1, 66719, Note_on_c, 9, 36, 0
1, 67200, Note_on_c, 9, 36, 72
1, 67679, Note_on_c, 9, 36, 0
1, 68160, Note_on_c, 9, 36, 74
1, 68639, Note_on_c, 9, 36, 0
1, 69120, Note_on_c, 9, 36, 72
1, 69599, Note_on_c, 9, 36, 0
1, 70080, Note_on_c, 9, 36, 74
1, 70559, Note_on_c, 9, 36, 0
1, 71040, Note_on_c, 9, 36, 72
1, 71519, Note_on_c, 9, 36, 0
1, 72000, Note_on_c, 9, 36, 74
1, 72479, Note_on_c, 9, 36, 0
1, 72960, Note_on_c, 9, 36, 72
1, 73439, Note_on_c, 9, 36, 0
1, 73920, Note_on_c, 9, 36, 74
1, 74399, Note_on_c, 9, 36, 0
1, 74880, Note_on_c, 9, 36, 72
1, 75359, Note_on_c, 9, 36, 0
1, 75840, Note_on_c, 9, 36, 74
1, 76319, Note_on_c, 9, 36, 0
1, 76800, Note_on_c, 9, 36, 72
1, 77279, Note_on_c, 9, 36, 0
1, 77760, Note_on_c, 9, 36, 74
1, 78239, Note_on_c, 9, 36, 0
1, 78720, Note_on_c, 9, 36, 72
1, 79199, Note_on_c, 9, 36, 0
1, 79680, Note_on_c, 9, 36, 74
1, 80159, Note_on_c, 9, 36, 0
1, 80640, Note_on_c, 9, 36, 72
1, 81119, Note_on_c, 9, 36, 0
1, 81600, Note_on_c, 9, 36, 74
1, 82079, Note_on_c, 9, 36, 0
1, 82560, Note_on_c, 9, 36, 58
1, 83039, Note_on_c, 9, 36, 0
1, 83040, Note_on_c, 9, 36, 69
1, 83519, Note_on_c, 9, 36, 0
1, 84480, Note_on_c, 9, 36, 72
1, 84959, Note_on_c, 9, 36, 0
1, 85440, Note_on_c, 9, 36, 74
1, 85919, Note_on_c, 9, 36, 0
1, 86400, Note_on_c, 9, 36, 72
1, 86879, Note_on_c, 9, 36, 0
1, 87360, Note_on_c, 9, 36, 74
1, 87839, Note_on_c, 9, 36, 0
1, 88320, Note_on_c, 9, 36, 72
1, 88799, Note_on_c, 9, 36, 0
1, 89280, Note_on_c, 9, 36, 74
1, 89759, Note_on_c, 9, 36, 0
1, 90240, Note_on_c, 9, 36, 72
1, 90719, Note_on_c, 9, 36, 0
1, 91200, Note_on_c, 9, 36, 74
1, 91679, Note_on_c, 9, 36, 0
1, 92160, Note_on_c, 9, 36, 72
1, 92639, Note_on_c, 9, 36, 0
1, 93120, Note_on_c, 9, 36, 74
1, 93599, Note_on_c, 9, 36, 0
1, 94080, Note_on_c, 9, 36, 72
1, 94559, Note_on_c, 9, 36, 0
1, 95040, Note_on_c, 9, 36, 74
1, 95519, Note_on_c, 9, 36, 0
1, 96000, Note_on_c, 9, 36, 72
1, 96479, Note_on_c, 9, 36, 0
1, 96960, Note_on_c, 9, 36, 74
1, 97439, Note_on_c, 9, 36, 0
1, 97920, Note_on_c, 9, 36, 72
1, 98399, Note_on_c, 9, 36, 0
1, 98880, Note_on_c, 9, 36, 74
1, 99359, Note_on_c, 9, 36, 0
1, 99768, Tempo, 451128
1, 103168, Tempo, 566038
1, 103728, Tempo, 560748
1, 104188, Tempo, 447761
1, 105228, Tempo, 821918
1, 105468, Tempo, 810811
1, 105688, Tempo, 800000
1, 106048, Tempo, 789474
1, 106228, Tempo, 779221
1, 107488, Tempo, 425532
1, 126720, Note_on_c, 9, 36, 72
1, 127199, Note_on_c, 9, 36, 0
1, 127680, Note_on_c, 9, 36, 74
1, 128159, Note_on_c, 9, 36, 0
1, 128640, Note_on_c, 9, 36, 72
1, 129119, Note_on_c, 9, 36, 0
1, 129600, Note_on_c, 9, 36, 74
1, 130079, Note_on_c, 9, 36, 0
1, 130560, Note_on_c, 9, 36, 72
1, 131039, Note_on_c, 9, 36, 0
1, 131520, Note_on_c, 9, 36, 74
1, 131999, Note_on_c, 9, 36, 0
1, 132480, Note_on_c, 9, 36, 72
1, 132959, Note_on_c, 9, 36, 0
1, 133440, Note_on_c, 9, 36, 74
1, 133919, Note_on_c, 9, 36, 0
1, 134400, Note_on_c, 9, 36, 72
1, 134879, Note_on_c, 9, 36, 0
1, 135360, Note_on_c, 9, 36, 74
1, 135839, Note_on_c, 9, 36, 0
1, 136320, Note_on_c, 9, 36, 72
1, 136799, Note_on_c, 9, 36, 0
1, 137280, Note_on_c, 9, 36, 74
1, 137759, Note_on_c, 9, 36, 0
1, 138240, Note_on_c, 9, 36, 72
1, 138719, Note_on_c, 9, 36, 0
1, 139200, Note_on_c, 9, 36, 74
1, 139679, Note_on_c, 9, 36, 0
1, 140160, Note_on_c, 9, 36, 72
1, 140639, Note_on_c, 9, 36, 0
1, 141120, Note_on_c, 9, 36, 74
1, 141599, Note_on_c, 9, 36, 0
1, 142080, Note_on_c, 9, 36, 72
1, 142559, Note_on_c, 9, 36, 0
1, 143040, Note_on_c, 9, 36, 74
1, 143519, Note_on_c, 9, 36, 0
1, 144000, Note_on_c, 9, 36, 72
1, 144479, Note_on_c, 9, 36, 0
1, 144960, Note_on_c, 9, 36, 74
1, 145439, Note_on_c, 9, 36, 0
1, 145920, Note_on_c, 9, 36, 72
1, 146399, Note_on_c, 9, 36, 0
1, 146880, Note_on_c, 9, 36, 74
1, 147359, Note_on_c, 9, 36, 0
1, 147840, Note_on_c, 9, 36, 72
1, 148319, Note_on_c, 9, 36, 0
1, 148800, Note_on_c, 9, 36, 74
1, 149279, Note_on_c, 9, 36, 0
1, 149760, Note_on_c, 9, 36, 72
1, 150239, Note_on_c, 9, 36, 0
1, 150720, Note_on_c, 9, 36, 74
1, 151199, Note_on_c, 9, 36, 0
1, 151680, Note_on_c, 9, 36, 72
1, 152159, Note_on_c, 9, 36, 0
1, 152640, Note_on_c, 9, 36, 74
1, 153119, Note_on_c, 9, 36, 0
1, 153600, Note_on_c, 9, 36, 72
1, 154079, Note_on_c, 9, 36, 0
1, 154560, Note_on_c, 9, 36, 74
1, 155039, Note_on_c, 9, 36, 0
1, 155520, Note_on_c, 9, 36, 58
1, 155999, Note_on_c, 9, 36, 0
1, 156000, Note_on_c, 9, 36, 69
1, 156479, Note_on_c, 9, 36, 0
1, 157440, Note_on_c, 9, 36, 72
1, 157919, Note_on_c, 9, 36, 0
1, 158400, Note_on_c, 9, 36, 74
1, 158879, Note_on_c, 9, 36, 0
1, 159360, Note_on_c, 9, 36, 72
1, 159839, Note_on_c, 9, 36, 0
1, 160320, Note_on_c, 9, 36, 74
1, 160799, Note_on_c, 9, 36, 0
1, 161280, Note_on_c, 9, 36, 72
1, 161759, Note_on_c, 9, 36, 0
1, 162240, Note_on_c, 9, 36, 74
1, 162719, Note_on_c, 9, 36, 0
1, 163200, Note_on_c, 9, 36, 72
1, 163679, Note_on_c, 9, 36, 0
1, 164160, Note_on_c, 9, 36, 74
1, 164639, Note_on_c, 9, 36, 0
1, 165120, Note_on_c, 9, 36, 72
1, 165599, Note_on_c, 9, 36, 0
1, 166080, Note_on_c, 9, 36, 74
1, 166559, Note_on_c, 9, 36, 0
1, 167040, Note_on_c, 9, 36, 72
1, 167519, Note_on_c, 9, 36, 0
1, 168000, Note_on_c, 9, 36, 74
1, 168479, Note_on_c, 9, 36, 0
1, 168960, Note_on_c, 9, 36, 72
1, 169439, Note_on_c, 9, 36, 0
1, 169920, Note_on_c, 9, 36, 74
1, 170399, Note_on_c, 9, 36, 0
1, 170880, Note_on_c, 9, 36, 72
1, 171359, Note_on_c, 9, 36, 0
1, 171840, Note_on_c, 9, 36, 74
1, 172319, Note_on_c, 9, 36, 0
1, 180480, Note_on_c, 9, 36, 72
1, 180959, Note_on_c, 9, 36, 0
1, 181440, Note_on_c, 9, 36, 74
1, 181919, Note_on_c, 9, 36, 0
1, 182400, Note_on_c, 9, 36, 72
1, 182879, Note_on_c, 9, 36, 0
1, 183360, Note_on_c, 9, 36, 74
1, 183839, Note_on_c, 9, 36, 0
1, 184320, Note_on_c, 9, 36, 72
1, 184799, Note_on_c, 9, 36, 0
1, 185280, Note_on_c, 9, 36, 74
1, 185759, Note_on_c, 9, 36, 0
1, 186240, Note_on_c, 9, 36, 72
1, 186719, Note_on_c, 9, 36, 0
1, 187200, Note_on_c, 9, 36, 74
1, 187679, Note_on_c, 9, 36, 0
1, 188160, Note_on_c, 9, 36, 72
1, 188639, Note_on_c, 9, 36, 0
1, 189120, Note_on_c, 9, 36, 74
1, 189599, Note_on_c, 9, 36, 0
1, 190080, Note_on_c, 9, 36, 72
1, 190559, Note_on_c, 9, 36, 0
1, 191040, Note_on_c, 9, 36, 74
1, 191519, Note_on_c, 9, 36, 0
1, 192000, Note_on_c, 9, 36, 72
1, 192479, Note_on_c, 9, 36, 0
1, 192960, Note_on_c, 9, 36, 74
1, 193439, Note_on_c, 9, 36, 0
1, 193920, Note_on_c, 9, 36, 72
1, 194399, Note_on_c, 9, 36, 0
1, 194880, Note_on_c, 9, 36, 74
1, 195359, Note_on_c, 9, 36, 0
1, 195840, Note_on_c, 9, 36, 72
1, 196319, Note_on_c, 9, 36, 0
1, 196800, Note_on_c, 9, 36, 74
1, 197279, Note_on_c, 9, 36, 0
1, 197760, Note_on_c, 9, 36, 72
1, 198239, Note_on_c, 9, 36, 0
1, 198720, Note_on_c, 9, 36, 74
1, 199199, Note_on_c, 9, 36, 0
1, 199680, Note_on_c, 9, 36, 72
1, 200159, Note_on_c, 9, 36, 0
1, 200640, Note_on_c, 9, 36, 74
1, 201119, Note_on_c, 9, 36, 0
1, 201600, Note_on_c, 9, 36, 72
1, 202079, Note_on_c, 9, 36, 0
1, 202560, Note_on_c, 9, 36, 74
1, 203039, Note_on_c, 9, 36, 0
1, 203520, Note_on_c, 9, 36, 72
1, 203999, Note_on_c, 9, 36, 0
1, 204480, Note_on_c, 9, 36, 74
1, 204959, Note_on_c, 9, 36, 0
1, 205440, Note_on_c, 9, 36, 72
1, 205919, Note_on_c, 9, 36, 0
1, 206400, Note_on_c, 9, 36, 74
1, 206879, Note_on_c, 9, 36, 0
1, 207360, Note_on_c, 9, 36, 72
1, 207839, Note_on_c, 9, 36, 0
1, 208320, Note_on_c, 9, 36, 74
1, 208799, Note_on_c, 9, 36, 0
1, 209280, Note_on_c, 9, 36, 74
1, 209759, Note_on_c, 9, 36, 0
1, 210000, Note_on_c, 9, 36, 85
1, 210239, Note_on_c, 9, 36, 0
1, 210240, End_track
2, 0, Start_track
2, 0, Key_signature, 0, "major"
2, 0, Control_c, 9, 121, 0
2, 0, Program_c, 9, 0
2, 0, Control_c, 9, 7, 100
2, 0, Control_c, 9, 10, 64
2, 0, Control_c, 9, 91, 0
2, 0, Control_c, 9, 93, 0
2, 0, MIDI_port, 0
2, 52080, Note_on_c, 9, 38, 65
2, 52199, Note_on_c, 9, 38, 0
2, 52200, Note_on_c, 9, 38, 61
2, 52319, Note_on_c, 9, 38, 0
2, 52320, Note_on_c, 9, 38, 75
2, 52799, Note_on_c, 9, 38, 0
2, 53280, Note_on_c, 9, 38, 78
2, 53399, Note_on_c, 9, 38, 0
2, 53400, Note_on_c, 9, 38, 68
2, 53519, Note_on_c, 9, 38, 0
2, 53520, Note_on_c, 9, 38, 62
2, 53639, Note_on_c, 9, 38, 0
2, 53640, Note_on_c, 9, 38, 72
2, 53759, Note_on_c, 9, 38, 0
2, 54240, Note_on_c, 9, 38, 85
2, 54719, Note_on_c, 9, 38, 0
2, 55200, Note_on_c, 9, 38, 85
2, 55679, Note_on_c, 9, 38, 0
2, 56160, Note_on_c, 9, 38, 85
2, 56639, Note_on_c, 9, 38, 0
2, 57120, Note_on_c, 9, 38, 85
2, 57599, Note_on_c, 9, 38, 0
2, 58080, Note_on_c, 9, 38, 85
2, 58559, Note_on_c, 9, 38, 0
2, 59040, Note_on_c, 9, 38, 85
2, 59519, Note_on_c, 9, 38, 0
2, 60000, Note_on_c, 9, 38, 85
2, 60479, Note_on_c, 9, 38, 0
2, 60960, Note_on_c, 9, 38, 85
2, 61439, Note_on_c, 9, 38, 0
2, 61920, Note_on_c, 9, 38, 85
2, 62399, Note_on_c, 9, 38, 0
2, 62880, Note_on_c, 9, 38, 85
2, 63359, Note_on_c, 9, 38, 0
2, 63840, Note_on_c, 9, 38, 85
2, 64319, Note_on_c, 9, 38, 0
2, 64800, Note_on_c, 9, 38, 85
2, 65279, Note_on_c, 9, 38, 0
2, 65760, Note_on_c, 9, 38, 85
2, 66239, Note_on_c, 9, 38, 0
2, 66720, Note_on_c, 9, 38, 85
2, 67199, Note_on_c, 9, 38, 0
2, 67680, Note_on_c, 9, 38, 85
2, 68159, Note_on_c, 9, 38, 0
2, 68640, Note_on_c, 9, 38, 85
2, 69119, Note_on_c, 9, 38, 0
2, 69600, Note_on_c, 9, 38, 85
2, 70079, Note_on_c, 9, 38, 0
2, 70560, Note_on_c, 9, 38, 85
2, 71039, Note_on_c, 9, 38, 0
2, 71520, Note_on_c, 9, 38, 85
2, 71999, Note_on_c, 9, 38, 0
2, 72480, Note_on_c, 9, 38, 85
2, 72959, Note_on_c, 9, 38, 0
2, 73440, Note_on_c, 9, 38, 85
2, 73919, Note_on_c, 9, 38, 0
2, 74400, Note_on_c, 9, 38, 85
2, 74879, Note_on_c, 9, 38, 0
2, 75360, Note_on_c, 9, 38, 85
2, 75839, Note_on_c, 9, 38, 0
2, 76320, Note_on_c, 9, 38, 85
2, 76799, Note_on_c, 9, 38, 0
2, 77280, Note_on_c, 9, 38, 85
2, 77759, Note_on_c, 9, 38, 0
2, 78240, Note_on_c, 9, 38, 85
2, 78719, Note_on_c, 9, 38, 0
2, 79200, Note_on_c, 9, 38, 85
2, 79679, Note_on_c, 9, 38, 0
2, 80160, Note_on_c, 9, 38, 85
2, 80639, Note_on_c, 9, 38, 0
2, 81135, Note_on_c, 9, 38, 81
2, 81359, Note_on_c, 9, 38, 0
2, 82095, Note_on_c, 9, 38, 88
2, 82319, Note_on_c, 9, 38, 0
2, 82560, Note_on_c, 9, 38, 88
2, 83039, Note_on_c, 9, 38, 0
2, 83040, Note_on_c, 9, 38, 83
2, 83519, Note_on_c, 9, 38, 0
2, 84960, Note_on_c, 9, 38, 85
2, 85439, Note_on_c, 9, 38, 0
2, 85920, Note_on_c, 9, 38, 85
2, 86399, Note_on_c, 9, 38, 0
2, 86880, Note_on_c, 9, 38, 85
2, 87359, Note_on_c, 9, 38, 0
2, 87840, Note_on_c, 9, 38, 85
2, 88319, Note_on_c, 9, 38, 0
2, 88800, Note_on_c, 9, 38, 85
2, 89279, Note_on_c, 9, 38, 0
2, 89760, Note_on_c, 9, 38, 85
2, 90239, Note_on_c, 9, 38, 0
2, 90720, Note_on_c, 9, 38, 85
2, 91199, Note_on_c, 9, 38, 0
2, 91680, Note_on_c, 9, 38, 85
2, 92159, Note_on_c, 9, 38, 0
2, 92640, Note_on_c, 9, 38, 85
2, 93119, Note_on_c, 9, 38, 0
2, 93600, Note_on_c, 9, 38, 85
2, 94079, Note_on_c, 9, 38, 0
2, 94560, Note_on_c, 9, 38, 85
2, 95039, Note_on_c, 9, 38, 0
2, 95520, Note_on_c, 9, 38, 85
2, 95999, Note_on_c, 9, 38, 0
2, 96480, Note_on_c, 9, 38, 85
2, 96959, Note_on_c, 9, 38, 0
2, 97440, Note_on_c, 9, 38, 85
2, 97919, Note_on_c, 9, 38, 0
2, 98400, Note_on_c, 9, 38, 85
2, 98879, Note_on_c, 9, 38, 0
2, 99120, Note_on_c, 9, 38, 71
2, 99359, Note_on_c, 9, 38, 0
2, 99360, Note_on_c, 9, 38, 85
2, 99599, Note_on_c, 9, 38, 0
2, 99600, Note_on_c, 9, 38, 71
2, 99839, Note_on_c, 9, 38, 0
2, 125040, Note_on_c, 9, 38, 65
2, 125159, Note_on_c, 9, 38, 0
2, 125160, Note_on_c, 9, 38, 61
2, 125279, Note_on_c, 9, 38, 0
2, 125280, Note_on_c, 9, 38, 75
2, 125759, Note_on_c, 9, 38, 0
2, 126240, Note_on_c, 9, 38, 78
2, 126359, Note_on_c, 9, 38, 0
2, 126360, Note_on_c, 9, 38, 68
2, 126479, Note_on_c, 9, 38, 0
2, 126480, Note_on_c, 9, 38, 62
2, 126599, Note_on_c, 9, 38, 0
2, 126600, Note_on_c, 9, 38, 72
2, 126719, Note_on_c, 9, 38, 0
2, 127200, Note_on_c, 9, 38, 85
2, 127679, Note_on_c, 9, 38, 0
2, 128160, Note_on_c, 9, 38, 85
2, 128639, Note_on_c, 9, 38, 0
2, 129120, Note_on_c, 9, 38, 85
2, 129599, Note_on_c, 9, 38, 0
2, 130080, Note_on_c, 9, 38, 85
2, 130559, Note_on_c, 9, 38, 0
2, 131040, Note_on_c, 9, 38, 85
2, 131519, Note_on_c, 9, 38, 0
2, 132000, Note_on_c, 9, 38, 85
2, 132479, Note_on_c, 9, 38, 0
2, 132960, Note_on_c, 9, 38, 85
2, 133439, Note_on_c, 9, 38, 0
2, 133920, Note_on_c, 9, 38, 85
2, 134399, Note_on_c, 9, 38, 0
2, 134880, Note_on_c, 9, 38, 85
2, 135359, Note_on_c, 9, 38, 0
2, 135840, Note_on_c, 9, 38, 85
2, 136319, Note_on_c, 9, 38, 0
2, 136800, Note_on_c, 9, 38, 85
2, 137279, Note_on_c, 9, 38, 0
2, 137760, Note_on_c, 9, 38, 85
2, 138239, Note_on_c, 9, 38, 0
2, 138720, Note_on_c, 9, 38, 85
2, 139199, Note_on_c, 9, 38, 0
2, 139680, Note_on_c, 9, 38, 85
2, 140159, Note_on_c, 9, 38, 0
2, 140640, Note_on_c, 9, 38, 85
2, 141119, Note_on_c, 9, 38, 0
2, 141600, Note_on_c, 9, 38, 85
2, 142079, Note_on_c, 9, 38, 0
2, 142560, Note_on_c, 9, 38, 85
2, 143039, Note_on_c, 9, 38, 0
2, 143520, Note_on_c, 9, 38, 85
2, 143999, Note_on_c, 9, 38, 0
2, 144480, Note_on_c, 9, 38, 85
2, 144959, Note_on_c, 9, 38, 0
2, 145440, Note_on_c, 9, 38, 85
2, 145919, Note_on_c, 9, 38, 0
2, 146400, Note_on_c, 9, 38, 85
2, 146879, Note_on_c, 9, 38, 0
2, 147360, Note_on_c, 9, 38, 85
2, 147839, Note_on_c, 9, 38, 0
2, 148320, Note_on_c, 9, 38, 85
2, 148799, Note_on_c, 9, 38, 0
2, 149280, Note_on_c, 9, 38, 85
2, 149759, Note_on_c, 9, 38, 0
2, 150240, Note_on_c, 9, 38, 85
2, 150719, Note_on_c, 9, 38, 0
2, 151200, Note_on_c, 9, 38, 85
2, 151679, Note_on_c, 9, 38, 0
2, 152160, Note_on_c, 9, 38, 85
2, 152639, Note_on_c, 9, 38, 0
2, 153120, Note_on_c, 9, 38, 85
2, 153599, Note_on_c, 9, 38, 0
2, 154095, Note_on_c, 9, 38, 81
2, 154319, Note_on_c, 9, 38, 0
2, 155055, Note_on_c, 9, 38, 88
2, 155279, Note_on_c, 9, 38, 0
2, 155520, Note_on_c, 9, 38, 88
2, 155999, Note_on_c, 9, 38, 0
2, 156000, Note_on_c, 9, 38, 83
2, 156479, Note_on_c, 9, 38, 0
2, 157920, Note_on_c, 9, 38, 85
2, 158399, Note_on_c, 9, 38, 0
2, 158880, Note_on_c, 9, 38, 85
2, 159359, Note_on_c, 9, 38, 0
2, 159840, Note_on_c, 9, 38, 85
2, 160319, Note_on_c, 9, 38, 0
2, 160800, Note_on_c, 9, 38, 85
2, 161279, Note_on_c, 9, 38, 0
2, 161760, Note_on_c, 9, 38, 85
2, 162239, Note_on_c, 9, 38, 0
2, 162720, Note_on_c, 9, 38, 85
2, 163199, Note_on_c, 9, 38, 0
2, 163680, Note_on_c, 9, 38, 85
2, 164159, Note_on_c, 9, 38, 0
2, 164640, Note_on_c, 9, 38, 85
2, 165119, Note_on_c, 9, 38, 0
2, 165600, Note_on_c, 9, 38, 85
2, 166079, Note_on_c, 9, 38, 0
2, 166560, Note_on_c, 9, 38, 85
2, 167039, Note_on_c, 9, 38, 0
2, 167520, Note_on_c, 9, 38, 85
2, 167999, Note_on_c, 9, 38, 0
2, 168480, Note_on_c, 9, 38, 85
2, 168959, Note_on_c, 9, 38, 0
2, 169440, Note_on_c, 9, 38, 85
2, 169919, Note_on_c, 9, 38, 0
2, 170400, Note_on_c, 9, 38, 85
2, 170879, Note_on_c, 9, 38, 0
2, 171360, Note_on_c, 9, 38, 85
2, 171839, Note_on_c, 9, 38, 0
2, 172080, Note_on_c, 9, 38, 71
2, 172319, Note_on_c, 9, 38, 0
2, 172320, Note_on_c, 9, 38, 85
2, 172559, Note_on_c, 9, 38, 0
2, 172560, Note_on_c, 9, 38, 71
2, 172799, Note_on_c, 9, 38, 0
2, 178800, Note_on_c, 9, 38, 65
2, 178919, Note_on_c, 9, 38, 0
2, 178920, Note_on_c, 9, 38, 61
2, 179039, Note_on_c, 9, 38, 0
2, 179040, Note_on_c, 9, 38, 75
2, 179519, Note_on_c, 9, 38, 0
2, 180000, Note_on_c, 9, 38, 78
2, 180119, Note_on_c, 9, 38, 0
2, 180120, Note_on_c, 9, 38, 68
2, 180239, Note_on_c, 9, 38, 0
2, 180240, Note_on_c, 9, 38, 62
2, 180359, Note_on_c, 9, 38, 0
2, 180360, Note_on_c, 9, 38, 72
2, 180479, Note_on_c, 9, 38, 0
2, 180960, Note_on_c, 9, 38, 85
2, 181439, Note_on_c, 9, 38, 0
2, 181920, Note_on_c, 9, 38, 85
2, 182399, Note_on_c, 9, 38, 0
2, 182880, Note_on_c, 9, 38, 85
2, 183359, Note_on_c, 9, 38, 0
2, 183840, Note_on_c, 9, 38, 85
2, 184319, Note_on_c, 9, 38, 0
2, 184800, Note_on_c, 9, 38, 85
2, 185279, Note_on_c, 9, 38, 0
2, 185760, Note_on_c, 9, 38, 85
2, 186239, Note_on_c, 9, 38, 0
2, 186720, Note_on_c, 9, 38, 85
2, 187199, Note_on_c, 9, 38, 0
2, 187680, Note_on_c, 9, 38, 85
2, 188159, Note_on_c, 9, 38, 0
2, 188640, Note_on_c, 9, 38, 85
2, 189119, Note_on_c, 9, 38, 0
2, 189600, Note_on_c, 9, 38, 85
2, 190079, Note_on_c, 9, 38, 0
2, 190560, Note_on_c, 9, 38, 85
2, 191039, Note_on_c, 9, 38, 0
2, 191520, Note_on_c, 9, 38, 85
2, 191999, Note_on_c, 9, 38, 0
2, 192480, Note_on_c, 9, 38, 85
2, 192959, Note_on_c, 9, 38, 0
2, 193440, Note_on_c, 9, 38, 85
2, 193919, Note_on_c, 9, 38, 0
2, 194400, Note_on_c, 9, 38, 85
2, 194879, Note_on_c, 9, 38, 0
2, 195120, Note_on_c, 9, 38, 71
2, 195359, Note_on_c, 9, 38, 0
2, 195360, Note_on_c, 9, 38, 85
2, 195599, Note_on_c, 9, 38, 0
2, 195600, Note_on_c, 9, 38, 71
2, 195839, Note_on_c, 9, 38, 0
2, 196320, Note_on_c, 9, 38, 85
2, 196799, Note_on_c, 9, 38, 0
2, 197280, Note_on_c, 9, 38, 85
2, 197759, Note_on_c, 9, 38, 0
2, 198240, Note_on_c, 9, 38, 85
2, 198719, Note_on_c, 9, 38, 0
2, 199200, Note_on_c, 9, 38, 85
2, 199679, Note_on_c, 9, 38, 0
2, 200160, Note_on_c, 9, 38, 85
2, 200639, Note_on_c, 9, 38, 0
2, 201120, Note_on_c, 9, 38, 85
2, 201599, Note_on_c, 9, 38, 0
2, 202080, Note_on_c, 9, 38, 85
2, 202559, Note_on_c, 9, 38, 0
2, 203040, Note_on_c, 9, 38, 85
2, 203519, Note_on_c, 9, 38, 0
2, 204000, Note_on_c, 9, 38, 85
2, 204479, Note_on_c, 9, 38, 0
2, 204960, Note_on_c, 9, 38, 85
2, 205439, Note_on_c, 9, 38, 0
2, 205920, Note_on_c, 9, 38, 85
2, 206399, Note_on_c, 9, 38, 0
2, 206880, Note_on_c, 9, 38, 85
2, 207359, Note_on_c, 9, 38, 0
2, 207840, Note_on_c, 9, 38, 85
2, 208319, Note_on_c, 9, 38, 0
2, 208800, Note_on_c, 9, 38, 85
2, 209279, Note_on_c, 9, 38, 0
2, 209280, Note_on_c, 9, 38, 82
2, 209519, Note_on_c, 9, 38, 0
2, 209520, Note_on_c, 9, 38, 54
2, 209759, Note_on_c, 9, 38, 0
2, 209760, Note_on_c, 9, 38, 68
2, 209999, Note_on_c, 9, 38, 0
2, 210000, Note_on_c, 9, 38, 82
2, 210239, Note_on_c, 9, 38, 0
2, 210240, End_track
3, 0, Start_track
3, 0, Key_signature, 0, "major"
3, 0, Control_c, 9, 121, 0
3, 0, Program_c, 9, 0
3, 0, Control_c, 9, 7, 100
3, 0, Control_c, 9, 10, 64
3, 0, Control_c, 9, 91, 0
3, 0, Control_c, 9, 93, 0
3, 0, MIDI_port, 0
3, 52560, Note_on_c, 9, 40, 93
3, 52799, Note_on_c, 9, 40, 0
3, 53040, Note_on_c, 9, 40, 82
3, 53279, Note_on_c, 9, 40, 0
3, 81840, Note_on_c, 9, 40, 75
3, 81959, Note_on_c, 9, 40, 0
3, 81960, Note_on_c, 9, 40, 83
3, 82079, Note_on_c, 9, 40, 0
3, 82320, Note_on_c, 9, 40, 74
3, 82559, Note_on_c, 9, 40, 0
3, 125520, Note_on_c, 9, 40, 93
3, 125759, Note_on_c, 9, 40, 0
3, 126000, Note_on_c, 9, 40, 82
3, 126239, Note_on_c, 9, 40, 0
3, 154800, Note_on_c, 9, 40, 75
3, 154919, Note_on_c, 9, 40, 0
3, 154920, Note_on_c, 9, 40, 83
3, 155039, Note_on_c, 9, 40, 0
3, 155280, Note_on_c, 9, 40, 74
3, 155519, Note_on_c, 9, 40, 0
3, 179280, Note_on_c, 9, 40, 93
3, 179519, Note_on_c, 9, 40, 0
3, 179760, Note_on_c, 9, 40, 82
3, 179999, Note_on_c, 9, 40, 0
3, 180000, End_track
4, 0, Start_track
4, 0, Key_signature, 0, "major"
4, 0, Control_c, 9, 121, 0
4, 0, Program_c, 9, 0
4, 0, Control_c, 9, 7, 100
4, 0, Control_c, 9, 10, 64
4, 0, Control_c, 9, 91, 0
4, 0, Control_c, 9, 93, 0
4, 0, MIDI_port, 0
4, 53760, Note_on_c, 9, 42, 87
4, 53999, Note_on_c, 9, 42, 0
4, 54000, Note_on_c, 9, 42, 68
4, 54239, Note_on_c, 9, 42, 0
4, 54480, Note_on_c, 9, 42, 67
4, 54719, Note_on_c, 9, 42, 0
4, 54720, Note_on_c, 9, 42, 85
4, 54959, Note_on_c, 9, 42, 0
4, 54960, Note_on_c, 9, 42, 70
4, 55199, Note_on_c, 9, 42, 0
4, 55440, Note_on_c, 9, 42, 88
4, 55679, Note_on_c, 9, 42, 0
4, 55680, Note_on_c, 9, 42, 87
4, 55919, Note_on_c, 9, 42, 0
4, 55920, Note_on_c, 9, 42, 68
4, 56159, Note_on_c, 9, 42, 0
4, 56400, Note_on_c, 9, 42, 67
4, 56639, Note_on_c, 9, 42, 0
4, 56640, Note_on_c, 9, 42, 85
4, 56879, Note_on_c, 9, 42, 0
4, 56880, Note_on_c, 9, 42, 70
4, 57119, Note_on_c, 9, 42, 0
4, 57360, Note_on_c, 9, 42, 88
4, 57599, Note_on_c, 9, 42, 0
4, 57600, Note_on_c, 9, 42, 87
4, 57839, Note_on_c, 9, 42, 0
4, 57840, Note_on_c, 9, 42, 68
4, 58079, Note_on_c, 9, 42, 0
4, 58320, Note_on_c, 9, 42, 67
4, 58559, Note_on_c, 9, 42, 0
4, 58560, Note_on_c, 9, 42, 85
4, 58799, Note_on_c, 9, 42, 0
4, 58800, Note_on_c, 9, 42, 70
4, 59039, Note_on_c, 9, 42, 0
4, 59280, Note_on_c, 9, 42, 88
4, 59519, Note_on_c, 9, 42, 0
4, 59520, Note_on_c, 9, 42, 87
4, 59759, Note_on_c, 9, 42, 0
4, 59760, Note_on_c, 9, 42, 68
4, 59999, Note_on_c, 9, 42, 0
4, 60240, Note_on_c, 9, 42, 67
4, 60479, Note_on_c, 9, 42, 0
4, 60480, Note_on_c, 9, 42, 85
4, 60719, Note_on_c, 9, 42, 0
4, 60720, Note_on_c, 9, 42, 70
4, 60959, Note_on_c, 9, 42, 0
4, 61200, Note_on_c, 9, 42, 88
4, 61439, Note_on_c, 9, 42, 0
4, 61440, Note_on_c, 9, 42, 87
4, 61679, Note_on_c, 9, 42, 0
4, 61680, Note_on_c, 9, 42, 68
4, 61919, Note_on_c, 9, 42, 0
4, 62160, Note_on_c, 9, 42, 67
4, 62399, Note_on_c, 9, 42, 0
4, 62400, Note_on_c, 9, 42, 85
4, 62639, Note_on_c, 9, 42, 0
4, 62640, Note_on_c, 9, 42, 70
4, 62879, Note_on_c, 9, 42, 0
4, 63120, Note_on_c, 9, 42, 88
4, 63359, Note_on_c, 9, 42, 0
4, 63360, Note_on_c, 9, 42, 87
4, 63599, Note_on_c, 9, 42, 0
4, 63600, Note_on_c, 9, 42, 68
4, 63839, Note_on_c, 9, 42, 0
4, 64080, Note_on_c, 9, 42, 67
4, 64319, Note_on_c, 9, 42, 0
4, 64320, Note_on_c, 9, 42, 85
4, 64559, Note_on_c, 9, 42, 0
4, 64560, Note_on_c, 9, 42, 70
4, 64799, Note_on_c, 9, 42, 0
4, 65040, Note_on_c, 9, 42, 88
4, 65279, Note_on_c, 9, 42, 0
4, 65280, Note_on_c, 9, 42, 87
4, 65519, Note_on_c, 9, 42, 0
4, 65520, Note_on_c, 9, 42, 68
4, 65759, Note_on_c, 9, 42, 0
4, 66000, Note_on_c, 9, 42, 67
4, 66239, Note_on_c, 9, 42, 0
4, 66240, Note_on_c, 9, 42, 85
4, 66479, Note_on_c, 9, 42, 0
4, 66480, Note_on_c, 9, 42, 70
4, 66719, Note_on_c, 9, 42, 0
4, 66960, Note_on_c, 9, 42, 88
4, 67199, Note_on_c, 9, 42, 0
4, 67200, Note_on_c, 9, 42, 87
4, 67439, Note_on_c, 9, 42, 0
4, 67440, Note_on_c, 9, 42, 68
4, 67679, Note_on_c, 9, 42, 0
4, 67920, Note_on_c, 9, 42, 67
4, 68159, Note_on_c, 9, 42, 0
4, 68160, Note_on_c, 9, 42, 85
4, 68399, Note_on_c, 9, 42, 0
4, 68400, Note_on_c, 9, 42, 70
4, 68639, Note_on_c, 9, 42, 0
4, 68880, Note_on_c, 9, 42, 88
4, 69119, Note_on_c, 9, 42, 0
4, 69120, Note_on_c, 9, 42, 87
4, 69359, Note_on_c, 9, 42, 0
4, 69360, Note_on_c, 9, 42, 68
4, 69599, Note_on_c, 9, 42, 0
4, 69840, Note_on_c, 9, 42, 67
4, 70079, Note_on_c, 9, 42, 0
4, 70080, Note_on_c, 9, 42, 85
4, 70319, Note_on_c, 9, 42, 0
4, 70320, Note_on_c, 9, 42, 70
4, 70559, Note_on_c, 9, 42, 0
4, 70800, Note_on_c, 9, 42, 88
4, 71039, Note_on_c, 9, 42, 0
4, 71040, Note_on_c, 9, 42, 87
4, 71279, Note_on_c, 9, 42, 0
4, 71280, Note_on_c, 9, 42, 68
4, 71519, Note_on_c, 9, 42, 0
4, 71760, Note_on_c, 9, 42, 67
4, 71999, Note_on_c, 9, 42, 0
4, 72000, Note_on_c, 9, 42, 85
4, 72239, Note_on_c, 9, 42, 0
4, 72240, Note_on_c, 9, 42, 70
4, 72479, Note_on_c, 9, 42, 0
4, 72720, Note_on_c, 9, 42, 88
4, 72959, Note_on_c, 9, 42, 0
4, 72960, Note_on_c, 9, 42, 87
4, 73199, Note_on_c, 9, 42, 0
4, 73200, Note_on_c, 9, 42, 68
4, 73439, Note_on_c, 9, 42, 0
4, 73680, Note_on_c, 9, 42, 67
4, 73919, Note_on_c, 9, 42, 0
4, 73920, Note_on_c, 9, 42, 85
4, 74159, Note_on_c, 9, 42, 0
4, 74160, Note_on_c, 9, 42, 70
4, 74399, Note_on_c, 9, 42, 0
4, 74640, Note_on_c, 9, 42, 88
4, 74879, Note_on_c, 9, 42, 0
4, 74880, Note_on_c, 9, 42, 87
4, 75119, Note_on_c, 9, 42, 0
4, 75120, Note_on_c, 9, 42, 68
4, 75359, Note_on_c, 9, 42, 0
4, 75600, Note_on_c, 9, 42, 67
4, 75839, Note_on_c, 9, 42, 0
4, 75840, Note_on_c, 9, 42, 85
4, 76079, Note_on_c, 9, 42, 0
4, 76080, Note_on_c, 9, 42, 70
4, 76319, Note_on_c, 9, 42, 0
4, 76560, Note_on_c, 9, 42, 88
4, 76799, Note_on_c, 9, 42, 0
4, 76800, Note_on_c, 9, 42, 87
4, 77039, Note_on_c, 9, 42, 0
4, 77040, Note_on_c, 9, 42, 68
4, 77279, Note_on_c, 9, 42, 0
4, 77520, Note_on_c, 9, 42, 67
4, 77759, Note_on_c, 9, 42, 0
4, 77760, Note_on_c, 9, 42, 85
4, 77999, Note_on_c, 9, 42, 0
4, 78000, Note_on_c, 9, 42, 70
4, 78239, Note_on_c, 9, 42, 0
4, 78480, Note_on_c, 9, 42, 88
4, 78719, Note_on_c, 9, 42, 0
4, 78720, Note_on_c, 9, 42, 87
4, 78959, Note_on_c, 9, 42, 0
4, 78960, Note_on_c, 9, 42, 68
4, 79199, Note_on_c, 9, 42, 0
4, 79440, Note_on_c, 9, 42, 67
4, 79679, Note_on_c, 9, 42, 0
4, 79680, Note_on_c, 9, 42, 85
4, 79919, Note_on_c, 9, 42, 0
4, 79920, Note_on_c, 9, 42, 70
4, 80159, Note_on_c, 9, 42, 0
4, 80400, Note_on_c, 9, 42, 88
4, 80639, Note_on_c, 9, 42, 0
4, 80640, Note_on_c, 9, 42, 87
4, 80879, Note_on_c, 9, 42, 0
4, 80880, Note_on_c, 9, 42, 68
4, 81119, Note_on_c, 9, 42, 0
4, 81360, Note_on_c, 9, 42, 67
4, 81599, Note_on_c, 9, 42, 0
4, 81600, Note_on_c, 9, 42, 85
4, 81839, Note_on_c, 9, 42, 0
4, 81840, Note_on_c, 9, 42, 70
4, 82079, Note_on_c, 9, 42, 0
4, 82320, Note_on_c, 9, 42, 88
4, 82559, Note_on_c, 9, 42, 0
4, 82560, Note_on_c, 9, 42, 87
4, 83039, Note_on_c, 9, 42, 0
4, 83040, Note_on_c, 9, 42, 118
4, 83519, Note_on_c, 9, 42, 0
4, 84480, Note_on_c, 9, 42, 87
4, 84719, Note_on_c, 9, 42, 0
4, 84720, Note_on_c, 9, 42, 68
4, 84959, Note_on_c, 9, 42, 0
4, 85200, Note_on_c, 9, 42, 67
4, 85439, Note_on_c, 9, 42, 0
4, 85440, Note_on_c, 9, 42, 85
4, 85679, Note_on_c, 9, 42, 0
4, 85680, Note_on_c, 9, 42, 70
4, 85919, Note_on_c, 9, 42, 0
4, 86160, Note_on_c, 9, 42, 88
4, 86399, Note_on_c, 9, 42, 0
4, 86400, Note_on_c, 9, 42, 87
4, 86639, Note_on_c, 9, 42, 0
4, 86640, Note_on_c, 9, 42, 68
4, 86879, Note_on_c, 9, 42, 0
4, 87120, Note_on_c, 9, 42, 67
4, 87359, Note_on_c, 9, 42, 0
4, 87360, Note_on_c, 9, 42, 85
4, 87599, Note_on_c, 9, 42, 0
4, 87600, Note_on_c, 9, 42, 70
4, 87839, Note_on_c, 9, 42, 0
4, 88080, Note_on_c, 9, 42, 88
4, 88319, Note_on_c, 9, 42, 0
4, 88320, Note_on_c, 9, 42, 87
4, 88559, Note_on_c, 9, 42, 0
4, 88560, Note_on_c, 9, 42, 68
4, 88799, Note_on_c, 9, 42, 0
4, 89040, Note_on_c, 9, 42, 67
4, 89279, Note_on_c, 9, 42, 0
4, 89280, Note_on_c, 9, 42, 85
4, 89519, Note_on_c, 9, 42, 0
4, 89520, Note_on_c, 9, 42, 70
4, 89759, Note_on_c, 9, 42, 0
4, 90000, Note_on_c, 9, 42, 88
4, 90239, Note_on_c, 9, 42, 0
4, 90240, Note_on_c, 9, 42, 87
4, 90479, Note_on_c, 9, 42, 0
4, 90480, Note_on_c, 9, 42, 68
4, 90719, Note_on_c, 9, 42, 0
4, 90960, Note_on_c, 9, 42, 67
4, 91199, Note_on_c, 9, 42, 0
4, 91200, Note_on_c, 9, 42, 85
4, 91439, Note_on_c, 9, 42, 0
4, 91440, Note_on_c, 9, 42, 70
4, 91679, Note_on_c, 9, 42, 0
4, 91920, Note_on_c, 9, 42, 88
4, 92159, Note_on_c, 9, 42, 0
4, 92160, Note_on_c, 9, 42, 87
4, 92399, Note_on_c, 9, 42, 0
4, 92400, Note_on_c, 9, 42, 68
4, 92639, Note_on_c, 9, 42, 0
4, 92880, Note_on_c, 9, 42, 67
4, 93119, Note_on_c, 9, 42, 0
4, 93120, Note_on_c, 9, 42, 85
4, 93359, Note_on_c, 9, 42, 0
4, 93360, Note_on_c, 9, 42, 70
4, 93599, Note_on_c, 9, 42, 0
4, 93840, Note_on_c, 9, 42, 88
4, 94079, Note_on_c, 9, 42, 0
4, 94080, Note_on_c, 9, 42, 87
4, 94319, Note_on_c, 9, 42, 0
4, 94320, Note_on_c, 9, 42, 68
4, 94559, Note_on_c, 9, 42, 0
4, 94800, Note_on_c, 9, 42, 67
4, 95039, Note_on_c, 9, 42, 0
4, 95040, Note_on_c, 9, 42, 85
4, 95279, Note_on_c, 9, 42, 0
4, 95280, Note_on_c, 9, 42, 70
4, 95519, Note_on_c, 9, 42, 0
4, 95760, Note_on_c, 9, 42, 88
4, 95999, Note_on_c, 9, 42, 0
4, 96000, Note_on_c, 9, 42, 87
4, 96239, Note_on_c, 9, 42, 0
4, 96240, Note_on_c, 9, 42, 68
4, 96479, Note_on_c, 9, 42, 0
4, 96720, Note_on_c, 9, 42, 67
4, 96959, Note_on_c, 9, 42, 0
4, 96960, Note_on_c, 9, 42, 85
4, 97199, Note_on_c, 9, 42, 0
4, 97200, Note_on_c, 9, 42, 70
4, 97439, Note_on_c, 9, 42, 0
4, 97680, Note_on_c, 9, 42, 88
4, 97919, Note_on_c, 9, 42, 0
4, 97920, Note_on_c, 9, 42, 87
4, 98159, Note_on_c, 9, 42, 0
4, 98160, Note_on_c, 9, 42, 68
4, 98399, Note_on_c, 9, 42, 0
4, 98640, Note_on_c, 9, 42, 67
4, 98879, Note_on_c, 9, 42, 0
4, 98880, Note_on_c, 9, 42, 85
4, 99119, Note_on_c, 9, 42, 0
4, 99120, Note_on_c, 9, 42, 70
4, 99359, Note_on_c, 9, 42, 0
4, 99600, Note_on_c, 9, 42, 88
4, 99839, Note_on_c, 9, 42, 0
4, 126720, Note_on_c, 9, 42, 87
4, 126959, Note_on_c, 9, 42, 0
4, 126960, Note_on_c, 9, 42, 68
4, 127199, Note_on_c, 9, 42, 0
4, 127440, Note_on_c, 9, 42, 67
4, 127679, Note_on_c, 9, 42, 0
4, 127680, Note_on_c, 9, 42, 85
4, 127919, Note_on_c, 9, 42, 0
4, 127920, Note_on_c, 9, 42, 70
4, 128159, Note_on_c, 9, 42, 0
4, 128400, Note_on_c, 9, 42, 88
4, 128639, Note_on_c, 9, 42, 0
4, 128640, Note_on_c, 9, 42, 87
4, 128879, Note_on_c, 9, 42, 0
4, 128880, Note_on_c, 9, 42, 68
4, 129119, Note_on_c, 9, 42, 0
4, 129360, Note_on_c, 9, 42, 67
4, 129599, Note_on_c, 9, 42, 0
4, 129600, Note_on_c, 9, 42, 85
4, 129839, Note_on_c, 9, 42, 0
4, 129840, Note_on_c, 9, 42, 70
4, 130079, Note_on_c, 9, 42, 0
4, 130320, Note_on_c, 9, 42, 88
4, 130559, Note_on_c, 9, 42, 0
4, 130560, Note_on_c, 9, 42, 87
4, 130799, Note_on_c, 9, 42, 0
4, 130800, Note_on_c, 9, 42, 68
4, 131039, Note_on_c, 9, 42, 0
4, 131280, Note_on_c, 9, 42, 67
4, 131519, Note_on_c, 9, 42, 0
4, 131520, Note_on_c, 9, 42, 85
4, 131759, Note_on_c, 9, 42, 0
4, 131760, Note_on_c, 9, 42, 70
4, 131999, Note_on_c, 9, 42, 0
4, 132240, Note_on_c, 9, 42, 88
4, 132479, Note_on_c, 9, 42, 0
4, 132480, Note_on_c, 9, 42, 87
4, 132719, Note_on_c, 9, 42, 0
4, 132720, Note_on_c, 9, 42, 68
4, 132959, Note_on_c, 9, 42, 0
4, 133200, Note_on_c, 9, 42, 67
4, 133439, Note_on_c, 9, 42, 0
4, 133440, Note_on_c, 9, 42, 85
4, 133679, Note_on_c, 9, 42, 0
4, 133680, Note_on_c, 9, 42, 70
4, 133919, Note_on_c, 9, 42, 0
4, 134160, Note_on_c, 9, 42, 88
4, 134399, Note_on_c, 9, 42, 0
4, 134400, Note_on_c, 9, 42, 87
4, 134639, Note_on_c, 9, 42, 0
4, 134640, Note_on_c, 9, 42, 68
4, 134879, Note_on_c, 9, 42, 0
4, 135120, Note_on_c, 9, 42, 67
4, 135359, Note_on_c, 9, 42, 0
4, 135360, Note_on_c, 9, 42, 85
4, 135599, Note_on_c, 9, 42, 0
4, 135600, Note_on_c, 9, 42, 70
4, 135839, Note_on_c, 9, 42, 0
4, 136080, Note_on_c, 9, 42, 88
4, 136319, Note_on_c, 9, 42, 0
4, 136320, Note_on_c, 9, 42, 87
4, 136559, Note_on_c, 9, 42, 0
4, 136560, Note_on_c, 9, 42, 68
4, 136799, Note_on_c, 9, 42, 0
4, 137040, Note_on_c, 9, 42, 67
4, 137279, Note_on_c, 9, 42, 0
4, 137280, Note_on_c, 9, 42, 85
4, 137519, Note_on_c, 9, 42, 0
4, 137520, Note_on_c, 9, 42, 70
4, 137759, Note_on_c, 9, 42, 0
4, 138000, Note_on_c, 9, 42, 88
4, 138239, Note_on_c, 9, 42, 0
4, 138240, Note_on_c, 9, 42, 87
4, 138479, Note_on_c, 9, 42, 0
4, 138480, Note_on_c, 9, 42, 68
4, 138719, Note_on_c, 9, 42, 0
4, 138960, Note_on_c, 9, 42, 67
4, 139199, Note_on_c, 9, 42, 0
4, 139200, Note_on_c, 9, 42, 85
4, 139439, Note_on_c, 9, 42, 0
4, 139440, Note_on_c, 9, 42, 70
4, 139679, Note_on_c, 9, 42, 0
4, 139920, Note_on_c, 9, 42, 88
4, 140159, Note_on_c, 9, 42, 0
4, 140160, Note_on_c, 9, 42, 87
4, 140399, Note_on_c, 9, 42, 0
4, 140400, Note_on_c, 9, 42, 68
4, 140639, Note_on_c, 9, 42, 0
4, 140880, Note_on_c, 9, 42, 67
4, 141119, Note_on_c, 9, 42, 0
4, 141120, Note_on_c, 9, 42, 85
4, 141359, Note_on_c, 9, 42, 0
4, 141360, Note_on_c, 9, 42, 70
4, 141599, Note_on_c, 9, 42, 0
4, 141840, Note_on_c, 9, 42, 88
4, 142079, Note_on_c, 9, 42, 0
4, 142080, Note_on_c, 9, 42, 87
4, 142319, Note_on_c, 9, 42, 0
4, 142320, Note_on_c, 9, 42, 68
4, 142559, Note_on_c, 9, 42, 0
4, 142800, Note_on_c, 9, 42, 67
4, 143039, Note_on_c, 9, 42, 0
4, 143040, Note_on_c, 9, 42, 85
4, 143279, Note_on_c, 9, 42, 0
4, 143280, Note_on_c, 9, 42, 70
4, 143519, Note_on_c, 9, 42, 0
4, 143760, Note_on_c, 9, 42, 88
4, 143999, Note_on_c, 9, 42, 0
4, 144000, Note_on_c, 9, 42, 87
4, 144239, Note_on_c, 9, 42, 0
4, 144240, Note_on_c, 9, 42, 68
4, 144479, Note_on_c, 9, 42, 0
4, 144720, Note_on_c, 9, 42, 67
4, 144959, Note_on_c, 9, 42, 0
4, 144960, Note_on_c, 9, 42, 85
4, 145199, Note_on_c, 9, 42, 0
4, 145200, Note_on_c, 9, 42, 70
4, 145439, Note_on_c, 9, 42, 0
4, 145680, Note_on_c, 9, 42, 88
4, 145919, Note_on_c, 9, 42, 0
4, 145920, Note_on_c, 9, 42, 87
4, 146159, Note_on_c, 9, 42, 0
4, 146160, Note_on_c, 9, 42, 68
4, 146399, Note_on_c, 9, 42, 0
4, 146640, Note_on_c, 9, 42, 67
4, 146879, Note_on_c, 9, 42, 0
4, 146880, Note_on_c, 9, 42, 85
4, 147119, Note_on_c, 9, 42, 0
4, 147120, Note_on_c, 9, 42, 70
4, 147359, Note_on_c, 9, 42, 0
4, 147600, Note_on_c, 9, 42, 88
4, 147839, Note_on_c, 9, 42, 0
4, 147840, Note_on_c, 9, 42, 87
4, 148079, Note_on_c, 9, 42, 0
4, 148080, Note_on_c, 9, 42, 68
4, 148319, Note_on_c, 9, 42, 0
4, 148560, Note_on_c, 9, 42, 67
4, 148799, Note_on_c, 9, 42, 0
4, 148800, Note_on_c, 9, 42, 85
4, 149039, Note_on_c, 9, 42, 0
4, 149040, Note_on_c, 9, 42, 70
4, 149279, Note_on_c, 9, 42, 0
4, 149520, Note_on_c, 9, 42, 88
4, 149759, Note_on_c, 9, 42, 0
4, 149760, Note_on_c, 9, 42, 87
4, 149999, Note_on_c, 9, 42, 0
4, 150000, Note_on_c, 9, 42, 68
4, 150239, Note_on_c, 9, 42, 0
4, 150480, Note_on_c, 9, 42, 67
4, 150719, Note_on_c, 9, 42, 0
4, 150720, Note_on_c, 9, 42, 85
4, 150959, Note_on_c, 9, 42, 0
4, 150960, Note_on_c, 9, 42, 70
4, 151199, Note_on_c, 9, 42, 0
4, 151440, Note_on_c, 9, 42, 88
4, 151679, Note_on_c, 9, 42, 0
4, 151680, Note_on_c, 9, 42, 87
4, 151919, Note_on_c, 9, 42, 0
4, 151920, Note_on_c, 9, 42, 68
4, 152159, Note_on_c, 9, 42, 0
4, 152400, Note_on_c, 9, 42, 67
4, 152639, Note_on_c, 9, 42, 0
4, 152640, Note_on_c, 9, 42, 85
4, 152879, Note_on_c, 9, 42, 0
4, 152880, Note_on_c, 9, 42, 70
4, 153119, Note_on_c, 9, 42, 0
4, 153360, Note_on_c, 9, 42, 88
4, 153599, Note_on_c, 9, 42, 0
4, 153600, Note_on_c, 9, 42, 87
4, 153839, Note_on_c, 9, 42, 0
4, 153840, Note_on_c, 9, 42, 68
4, 154079, Note_on_c, 9, 42, 0
4, 154320, Note_on_c, 9, 42, 67
4, 154559, Note_on_c, 9, 42, 0
4, 154560, Note_on_c, 9, 42, 85
4, 154799, Note_on_c, 9, 42, 0
4, 154800, Note_on_c, 9, 42, 70
4, 155039, Note_on_c, 9, 42, 0
4, 155280, Note_on_c, 9, 42, 88
4, 155519, Note_on_c, 9, 42, 0
4, 155520, Note_on_c, 9, 42, 87
4, 155999, Note_on_c, 9, 42, 0
4, 156000, Note_on_c, 9, 42, 118
4, 156479, Note_on_c, 9, 42, 0
4, 157440, Note_on_c, 9, 42, 87
4, 157679, Note_on_c, 9, 42, 0
4, 157680, Note_on_c, 9, 42, 68
4, 157919, Note_on_c, 9, 42, 0
4, 158160, Note_on_c, 9, 42, 67
4, 158399, Note_on_c, 9, 42, 0
4, 158400, Note_on_c, 9, 42, 85
4, 158639, Note_on_c, 9, 42, 0
4, 158640, Note_on_c, 9, 42, 70
4, 158879, Note_on_c, 9, 42, 0
4, 159120, Note_on_c, 9, 42, 88
4, 159359, Note_on_c, 9, 42, 0
4, 159360, Note_on_c, 9, 42, 87
4, 159599, Note_on_c, 9, 42, 0
4, 159600, Note_on_c, 9, 42, 68
4, 159839, Note_on_c, 9, 42, 0
4, 160080, Note_on_c, 9, 42, 67
4, 160319, Note_on_c, 9, 42, 0
4, 160320, Note_on_c, 9, 42, 85
4, 160559, Note_on_c, 9, 42, 0
4, 160560, Note_on_c, 9, 42, 70
4, 160799, Note_on_c, 9, 42, 0
4, 161040, Note_on_c, 9, 42, 88
4, 161279, Note_on_c, 9, 42, 0
4, 161280, Note_on_c, 9, 42, 87
4, 161519, Note_on_c, 9, 42, 0
4, 161520, Note_on_c, 9, 42, 68
4, 161759, Note_on_c, 9, 42, 0
4, 162000, Note_on_c, 9, 42, 67
4, 162239, Note_on_c, 9, 42, 0
4, 162240, Note_on_c, 9, 42, 85
4, 162479, Note_on_c, 9, 42, 0
4, 162480, Note_on_c, 9, 42, 70
4, 162719, Note_on_c, 9, 42, 0
4, 162960, Note_on_c, 9, 42, 88
4, 163199, Note_on_c, 9, 42, 0
4, 163200, Note_on_c, 9, 42, 87
4, 163439, Note_on_c, 9, 42, 0
4, 163440, Note_on_c, 9, 42, 68
4, 163679, Note_on_c, 9, 42, 0
4, 163920, Note_on_c, 9, 42, 67
4, 164159, Note_on_c, 9, 42, 0
4, 164160, Note_on_c, 9, 42, 85
4, 164399, Note_on_c, 9, 42, 0
4, 164400, Note_on_c, 9, 42, 70
4, 164639, Note_on_c, 9, 42, 0
4, 164880, Note_on_c, 9, 42, 88
4, 165119, Note_on_c, 9, 42, 0
4, 165120, Note_on_c, 9, 42, 87
4, 165359, Note_on_c, 9, 42, 0
4, 165360, Note_on_c, 9, 42, 68
4, 165599, Note_on_c, 9, 42, 0
4, 165840, Note_on_c, 9, 42, 67
4, 166079, Note_on_c, 9, 42, 0
4, 166080, Note_on_c, 9, 42, 85
4, 166319, Note_on_c, 9, 42, 0
4, 166320, Note_on_c, 9, 42, 70
4, 166559, Note_on_c, 9, 42, 0
4, 166800, Note_on_c, 9, 42, 88
4, 167039, Note_on_c, 9, 42, 0
4, 167040, Note_on_c, 9, 42, 87
4, 167279, Note_on_c, 9, 42, 0
4, 167280, Note_on_c, 9, 42, 68
4, 167519, Note_on_c, 9, 42, 0
4, 167760, Note_on_c, 9, 42, 67
4, 167999, Note_on_c, 9, 42, 0
4, 168000, Note_on_c, 9, 42, 85
4, 168239, Note_on_c, 9, 42, 0
4, 168240, Note_on_c, 9, 42, 70
4, 168479, Note_on_c, 9, 42, 0
4, 168720, Note_on_c, 9, 42, 88
4, 168959, Note_on_c, 9, 42, 0
4, 168960, Note_on_c, 9, 42, 87
4, 169199, Note_on_c, 9, 42, 0
4, 169200, Note_on_c, 9, 42, 68
4, 169439, Note_on_c, 9, 42, 0
4, 169680, Note_on_c, 9, 42, 67
4, 169919, Note_on_c, 9, 42, 0
4, 169920, Note_on_c, 9, 42, 85
4, 170159, Note_on_c, 9, 42, 0
4, 170160, Note_on_c, 9, 42, 70
4, 170399, Note_on_c, 9, 42, 0
4, 170640, Note_on_c, 9, 42, 88
4, 170879, Note_on_c, 9, 42, 0
4, 170880, Note_on_c, 9, 42, 87
4, 171119, Note_on_c, 9, 42, 0
4, 171120, Note_on_c, 9, 42, 68
4, 171359, Note_on_c, 9, 42, 0
4, 171600, Note_on_c, 9, 42, 67
4, 171839, Note_on_c, 9, 42, 0
4, 171840, Note_on_c, 9, 42, 85
4, 172079, Note_on_c, 9, 42, 0
4, 172080, Note_on_c, 9, 42, 70
4, 172319, Note_on_c, 9, 42, 0
4, 172560, Note_on_c, 9, 42, 88
4, 172799, Note_on_c, 9, 42, 0
4, 180480, Note_on_c, 9, 42, 87
4, 180719, Note_on_c, 9, 42, 0
4, 180720, Note_on_c, 9, 42, 68
4, 180959, Note_on_c, 9, 42, 0
4, 181200, Note_on_c, 9, 42, 67
4, 181439, Note_on_c, 9, 42, 0
4, 181440, Note_on_c, 9, 42, 85
4, 181679, Note_on_c, 9, 42, 0
4, 181680, Note_on_c, 9, 42, 70
4, 181919, Note_on_c, 9, 42, 0
4, 182160, Note_on_c, 9, 42, 88
4, 182399, Note_on_c, 9, 42, 0
4, 182400, Note_on_c, 9, 42, 87
4, 182639, Note_on_c, 9, 42, 0
4, 182640, Note_on_c, 9, 42, 68
4, 182879, Note_on_c, 9, 42, 0
4, 183120, Note_on_c, 9, 42, 67
4, 183359, Note_on_c, 9, 42, 0
4, 183360, Note_on_c, 9, 42, 85
4, 183599, Note_on_c, 9, 42, 0
4, 183600, Note_on_c, 9, 42, 70
4, 183839, Note_on_c, 9, 42, 0
4, 184080, Note_on_c, 9, 42, 88
4, 184319, Note_on_c, 9, 42, 0
4, 184320, Note_on_c, 9, 42, 87
4, 184559, Note_on_c, 9, 42, 0
4, 184560, Note_on_c, 9, 42, 68
4, 184799, Note_on_c, 9, 42, 0
4, 185040, Note_on_c, 9, 42, 67
4, 185279, Note_on_c, 9, 42, 0
4, 185280, Note_on_c, 9, 42, 85
4, 185519, Note_on_c, 9, 42, 0
4, 185520, Note_on_c, 9, 42, 70
4, 185759, Note_on_c, 9, 42, 0
4, 186000, Note_on_c, 9, 42, 88
4, 186239, Note_on_c, 9, 42, 0
4, 186240, Note_on_c, 9, 42, 87
4, 186479, Note_on_c, 9, 42, 0
4, 186480, Note_on_c, 9, 42, 68
4, 186719, Note_on_c, 9, 42, 0
4, 186960, Note_on_c, 9, 42, 67
4, 187199, Note_on_c, 9, 42, 0
4, 187200, Note_on_c, 9, 42, 85
4, 187439, Note_on_c, 9, 42, 0
4, 187440, Note_on_c, 9, 42, 70
4, 187679, Note_on_c, 9, 42, 0
4, 187920, Note_on_c, 9, 42, 88
4, 188159, Note_on_c, 9, 42, 0
4, 188160, Note_on_c, 9, 42, 87
4, 188399, Note_on_c, 9, 42, 0
4, 188400, Note_on_c, 9, 42, 68
4, 188639, Note_on_c, 9, 42, 0
4, 188880, Note_on_c, 9, 42, 67
4, 189119, Note_on_c, 9, 42, 0
4, 189120, Note_on_c, 9, 42, 85
4, 189359, Note_on_c, 9, 42, 0
4, 189360, Note_on_c, 9, 42, 70
4, 189599, Note_on_c, 9, 42, 0
4, 189840, Note_on_c, 9, 42, 88
4, 190079, Note_on_c, 9, 42, 0
4, 190080, Note_on_c, 9, 42, 87
4, 190319, Note_on_c, 9, 42, 0
4, 190320, Note_on_c, 9, 42, 68
4, 190559, Note_on_c, 9, 42, 0
4, 190800, Note_on_c, 9, 42, 67
4, 191039, Note_on_c, 9, 42, 0
4, 191040, Note_on_c, 9, 42, 85
4, 191279, Note_on_c, 9, 42, 0
4, 191280, Note_on_c, 9, 42, 70
4, 191519, Note_on_c, 9, 42, 0
4, 191760, Note_on_c, 9, 42, 88
4, 191999, Note_on_c, 9, 42, 0
4, 192000, Note_on_c, 9, 42, 87
4, 192239, Note_on_c, 9, 42, 0
4, 192240, Note_on_c, 9, 42, 68
4, 192479, Note_on_c, 9, 42, 0
4, 192720, Note_on_c, 9, 42, 67
4, 192959, Note_on_c, 9, 42, 0
4, 192960, Note_on_c, 9, 42, 85
4, 193199, Note_on_c, 9, 42, 0
4, 193200, Note_on_c, 9, 42, 70
4, 193439, Note_on_c, 9, 42, 0
4, 193680, Note_on_c, 9, 42, 88
4, 193919, Note_on_c, 9, 42, 0
4, 193920, Note_on_c, 9, 42, 87
4, 194159, Note_on_c, 9, 42, 0
4, 194160, Note_on_c, 9, 42, 68
4, 194399, Note_on_c, 9, 42, 0
4, 194640, Note_on_c, 9, 42, 67
4, 194879, Note_on_c, 9, 42, 0
4, 194880, Note_on_c, 9, 42, 85
4, 195119, Note_on_c, 9, 42, 0
4, 195120, Note_on_c, 9, 42, 70
4, 195359, Note_on_c, 9, 42, 0
4, 195600, Note_on_c, 9, 42, 88
4, 195839, Note_on_c, 9, 42, 0
4, 195840, Note_on_c, 9, 42, 87
4, 196079, Note_on_c, 9, 42, 0
4, 196080, Note_on_c, 9, 42, 68
4, 196319, Note_on_c, 9, 42, 0
4, 196560, Note_on_c, 9, 42, 67
4, 196799, Note_on_c, 9, 42, 0
4, 196800, Note_on_c, 9, 42, 85
4, 197039, Note_on_c, 9, 42, 0
4, 197040, Note_on_c, 9, 42, 70
4, 197279, Note_on_c, 9, 42, 0
4, 197520, Note_on_c, 9, 42, 88
4, 197759, Note_on_c, 9, 42, 0
4, 197760, Note_on_c, 9, 42, 87
4, 197999, Note_on_c, 9, 42, 0
4, 198000, Note_on_c, 9, 42, 68
4, 198239, Note_on_c, 9, 42, 0
4, 198480, Note_on_c, 9, 42, 67
4, 198719, Note_on_c, 9, 42, 0
4, 198720, Note_on_c, 9, 42, 85
4, 198959, Note_on_c, 9, 42, 0
4, 198960, Note_on_c, 9, 42, 70
4, 199199, Note_on_c, 9, 42, 0
4, 199440, Note_on_c, 9, 42, 88
4, 199679, Note_on_c, 9, 42, 0
4, 199680, Note_on_c, 9, 42, 87
4, 199919, Note_on_c, 9, 42, 0
4, 199920, Note_on_c, 9, 42, 68
4, 200159, Note_on_c, 9, 42, 0
4, 200400, Note_on_c, 9, 42, 67
4, 200639, Note_on_c, 9, 42, 0
4, 200640, Note_on_c, 9, 42, 85
4, 200879, Note_on_c, 9, 42, 0
4, 200880, Note_on_c, 9, 42, 70
4, 201119, Note_on_c, 9, 42, 0
4, 201360, Note_on_c, 9, 42, 88
4, 201599, Note_on_c, 9, 42, 0
4, 201600, Note_on_c, 9, 42, 87
4, 201839, Note_on_c, 9, 42, 0
4, 201840, Note_on_c, 9, 42, 68
4, 202079, Note_on_c, 9, 42, 0
4, 202320, Note_on_c, 9, 42, 67
4, 202559, Note_on_c, 9, 42, 0
4, 202560, Note_on_c, 9, 42, 85
4, 202799, Note_on_c, 9, 42, 0
4, 202800, Note_on_c, 9, 42, 70
4, 203039, Note_on_c, 9, 42, 0
4, 203280, Note_on_c, 9, 42, 88
4, 203519, Note_on_c, 9, 42, 0
4, 203520, Note_on_c, 9, 42, 87
4, 203759, Note_on_c, 9, 42, 0
4, 203760, Note_on_c, 9, 42, 68
4, 203999, Note_on_c, 9, 42, 0
4, 204240, Note_on_c, 9, 42, 67
4, 204479, Note_on_c, 9, 42, 0
4, 204480, Note_on_c, 9, 42, 85
4, 204719, Note_on_c, 9, 42, 0
4, 204720, Note_on_c, 9, 42, 70
4, 204959, Note_on_c, 9, 42, 0
4, 205200, Note_on_c, 9, 42, 88
4, 205439, Note_on_c, 9, 42, 0
4, 205440, Note_on_c, 9, 42, 87
4, 205679, Note_on_c, 9, 42, 0
4, 205680, Note_on_c, 9, 42, 68
4, 205919, Note_on_c, 9, 42, 0
4, 206160, Note_on_c, 9, 42, 67
4, 206399, Note_on_c, 9, 42, 0
4, 206400, Note_on_c, 9, 42, 85
4, 206639, Note_on_c, 9, 42, 0
4, 206640, Note_on_c, 9, 42, 70
4, 206879, Note_on_c, 9, 42, 0
4, 207120, Note_on_c, 9, 42, 88
4, 207359, Note_on_c, 9, 42, 0
4, 207360, Note_on_c, 9, 42, 87
4, 207599, Note_on_c, 9, 42, 0
4, 207600, Note_on_c, 9, 42, 68
4, 207839, Note_on_c, 9, 42, 0
4, 208080, Note_on_c, 9, 42, 67
4, 208319, Note_on_c, 9, 42, 0
4, 208320, Note_on_c, 9, 42, 85
4, 208559, Note_on_c, 9, 42, 0
4, 208560, Note_on_c, 9, 42, 70
4, 208799, Note_on_c, 9, 42, 0
4, 209040, Note_on_c, 9, 42, 88
4, 209279, Note_on_c, 9, 42, 0
4, 209280, Note_on_c, 9, 42, 87
4, 209519, Note_on_c, 9, 42, 0
4, 209520, Note_on_c, 9, 42, 68
4, 209759, Note_on_c, 9, 42, 0
4, 209760, Note_on_c, 9, 42, 90
4, 210239, Note_on_c, 9, 42, 0
4, 210240, End_track
5, 0, Start_track
5, 0, Key_signature, 0, "major"
5, 0, Control_c, 9, 121, 0
5, 0, Program_c, 9, 0
5, 0, Control_c, 9, 7, 100
5, 0, Control_c, 9, 10, 64
5, 0, Control_c, 9, 91, 0
5, 0, Control_c, 9, 93, 0
5, 0, MIDI_port, 0
5, 54240, Note_on_c, 9, 44, 91
5, 54719, Note_on_c, 9, 44, 0
5, 55200, Note_on_c, 9, 44, 83
5, 55679, Note_on_c, 9, 44, 0
5, 56160, Note_on_c, 9, 44, 91
5, 56639, Note_on_c, 9, 44, 0
5, 57120, Note_on_c, 9, 44, 83
5, 57599, Note_on_c, 9, 44, 0
5, 58080, Note_on_c, 9, 44, 91
5, 58559, Note_on_c, 9, 44, 0
5, 59040, Note_on_c, 9, 44, 83
5, 59519, Note_on_c, 9, 44, 0
5, 60000, Note_on_c, 9, 44, 91
5, 60479, Note_on_c, 9, 44, 0
5, 60960, Note_on_c, 9, 44, 83
5, 61439, Note_on_c, 9, 44, 0
5, 61920, Note_on_c, 9, 44, 91
5, 62399, Note_on_c, 9, 44, 0
5, 62880, Note_on_c, 9, 44, 83
5, 63359, Note_on_c, 9, 44, 0
5, 63840, Note_on_c, 9, 44, 91
5, 64319, Note_on_c, 9, 44, 0
5, 64800, Note_on_c, 9, 44, 83
5, 65279, Note_on_c, 9, 44, 0
5, 65760, Note_on_c, 9, 44, 91
5, 66239, Note_on_c, 9, 44, 0
5, 66720, Note_on_c, 9, 44, 83
5, 67199, Note_on_c, 9, 44, 0
5, 67680, Note_on_c, 9, 44, 91
5, 68159, Note_on_c, 9, 44, 0
5, 68640, Note_on_c, 9, 44, 83
5, 69119, Note_on_c, 9, 44, 0
5, 69600, Note_on_c, 9, 44, 91
5, 70079, Note_on_c, 9, 44, 0
5, 70560, Note_on_c, 9, 44, 83
5, 71039, Note_on_c, 9, 44, 0
5, 71520, Note_on_c, 9, 44, 91
5, 71999, Note_on_c, 9, 44, 0
5, 72480, Note_on_c, 9, 44, 83
5, 72959, Note_on_c, 9, 44, 0
5, 73440, Note_on_c, 9, 44, 91
5, 73919, Note_on_c, 9, 44, 0
5, 74400, Note_on_c, 9, 44, 83
5, 74879, Note_on_c, 9, 44, 0
5, 75360, Note_on_c, 9, 44, 91
5, 75839, Note_on_c, 9, 44, 0
5, 76320, Note_on_c, 9, 44, 83
5, 76799, Note_on_c, 9, 44, 0
5, 77280, Note_on_c, 9, 44, 91
5, 77759, Note_on_c, 9, 44, 0
5, 78240, Note_on_c, 9, 44, 83
5, 78719, Note_on_c, 9, 44, 0
5, 79200, Note_on_c, 9, 44, 91
5, 79679, Note_on_c, 9, 44, 0
5, 80160, Note_on_c, 9, 44, 83
5, 80639, Note_on_c, 9, 44, 0
5, 81120, Note_on_c, 9, 44, 91
5, 81599, Note_on_c, 9, 44, 0
5, 82080, Note_on_c, 9, 44, 83
5, 82559, Note_on_c, 9, 44, 0
5, 84960, Note_on_c, 9, 44, 91
5, 85439, Note_on_c, 9, 44, 0
5, 85920, Note_on_c, 9, 44, 83
5, 86399, Note_on_c, 9, 44, 0
5, 86880, Note_on_c, 9, 44, 91
5, 87359, Note_on_c, 9, 44, 0
5, 87840, Note_on_c, 9, 44, 83
5, 88319, Note_on_c, 9, 44, 0
5, 88800, Note_on_c, 9, 44, 91
5, 89279, Note_on_c, 9, 44, 0
5, 89760, Note_on_c, 9, 44, 83
5, 90239, Note_on_c, 9, 44, 0
5, 90720, Note_on_c, 9, 44, 91
5, 91199, Note_on_c, 9, 44, 0
5, 91680, Note_on_c, 9, 44, 83
5, 92159, Note_on_c, 9, 44, 0
5, 92640, Note_on_c, 9, 44, 91
5, 93119, Note_on_c, 9, 44, 0
5, 93600, Note_on_c, 9, 44, 83
5, 94079, Note_on_c, 9, 44, 0
5, 94560, Note_on_c, 9, 44, 91
5, 95039, Note_on_c, 9, 44, 0
5, 95520, Note_on_c, 9, 44, 83
5, 95999, Note_on_c, 9, 44, 0
5, 96480, Note_on_c, 9, 44, 91
5, 96959, Note_on_c, 9, 44, 0
5, 97440, Note_on_c, 9, 44, 83
5, 97919, Note_on_c, 9, 44, 0
5, 98400, Note_on_c, 9, 44, 91
5, 98879, Note_on_c, 9, 44, 0
5, 99360, Note_on_c, 9, 44, 83
5, 99839, Note_on_c, 9, 44, 0
5, 127200, Note_on_c, 9, 44, 91
5, 127679, Note_on_c, 9, 44, 0
5, 128160, Note_on_c, 9, 44, 83
5, 128639, Note_on_c, 9, 44, 0
5, 129120, Note_on_c, 9, 44, 91
5, 129599, Note_on_c, 9, 44, 0
5, 130080, Note_on_c, 9, 44, 83
5, 130559, Note_on_c, 9, 44, 0
5, 131040, Note_on_c, 9, 44, 91
5, 131519, Note_on_c, 9, 44, 0
5, 132000, Note_on_c, 9, 44, 83
5, 132479, Note_on_c, 9, 44, 0
5, 132960, Note_on_c, 9, 44, 91
5, 133439, Note_on_c, 9, 44, 0
5, 133920, Note_on_c, 9, 44, 83
5, 134399, Note_on_c, 9, 44, 0
5, 134880, Note_on_c, 9, 44, 91
5, 135359, Note_on_c, 9, 44, 0
5, 135840, Note_on_c, 9, 44, 83
5, 136319, Note_on_c, 9, 44, 0
5, 136800, Note_on_c, 9, 44, 91
5, 137279, Note_on_c, 9, 44, 0
5, 137760, Note_on_c, 9, 44, 83
5, 138239, Note_on_c, 9, 44, 0
5, 138720, Note_on_c, 9, 44, 91
5, 139199, Note_on_c, 9, 44, 0
5, 139680, Note_on_c, 9, 44, 83
5, 140159, Note_on_c, 9, 44, 0
5, 140640, Note_on_c, 9, 44, 91
5, 141119, Note_on_c, 9, 44, 0
5, 141600, Note_on_c, 9, 44, 83
5, 142079, Note_on_c, 9, 44, 0
5, 142560, Note_on_c, 9, 44, 91
5, 143039, Note_on_c, 9, 44, 0
5, 143520, Note_on_c, 9, 44, 83
5, 143999, Note_on_c, 9, 44, 0
5, 144480, Note_on_c, 9, 44, 91
5, 144959, Note_on_c, 9, 44, 0
5, 145440, Note_on_c, 9, 44, 83
5, 145919, Note_on_c, 9, 44, 0
5, 146400, Note_on_c, 9, 44, 91
5, 146879, Note_on_c, 9, 44, 0
5, 147360, Note_on_c, 9, 44, 83
5, 147839, Note_on_c, 9, 44, 0
5, 148320, Note_on_c, 9, 44, 91
5, 148799, Note_on_c, 9, 44, 0
5, 149280, Note_on_c, 9, 44, 83
5, 149759, Note_on_c, 9, 44, 0
5, 150240, Note_on_c, 9, 44, 91
5, 150719, Note_on_c, 9, 44, 0
5, 151200, Note_on_c, 9, 44, 83
5, 151679, Note_on_c, 9, 44, 0
5, 152160, Note_on_c, 9, 44, 91
5, 152639, Note_on_c, 9, 44, 0
5, 153120, Note_on_c, 9, 44, 83
5, 153599, Note_on_c, 9, 44, 0
5, 154080, Note_on_c, 9, 44, 91
5, 154559, Note_on_c, 9, 44, 0
5, 155040, Note_on_c, 9, 44, 83
5, 155519, Note_on_c, 9, 44, 0
5, 157920, Note_on_c, 9, 44, 91
5, 158399, Note_on_c, 9, 44, 0
5, 158880, Note_on_c, 9, 44, 83
5, 159359, Note_on_c, 9, 44, 0
5, 159840, Note_on_c, 9, 44, 91
5, 160319, Note_on_c, 9, 44, 0
5, 160800, Note_on_c, 9, 44, 83
5, 161279, Note_on_c, 9, 44, 0
5, 161760, Note_on_c, 9, 44, 91
5, 162239, Note_on_c, 9, 44, 0
5, 162720, Note_on_c, 9, 44, 83
5, 163199, Note_on_c, 9, 44, 0
5, 163680, Note_on_c, 9, 44, 91
5, 164159, Note_on_c, 9, 44, 0
5, 164640, Note_on_c, 9, 44, 83
5, 165119, Note_on_c, 9, 44, 0
5, 165600, Note_on_c, 9, 44, 91
5, 166079, Note_on_c, 9, 44, 0
5, 166560, Note_on_c, 9, 44, 83
5, 167039, Note_on_c, 9, 44, 0
5, 167520, Note_on_c, 9, 44, 91
5, 167999, Note_on_c, 9, 44, 0
5, 168480, Note_on_c, 9, 44, 83
5, 168959, Note_on_c, 9, 44, 0
5, 169440, Note_on_c, 9, 44, 91
5, 169919, Note_on_c, 9, 44, 0
5, 170400, Note_on_c, 9, 44, 83
5, 170879, Note_on_c, 9, 44, 0
5, 171360, Note_on_c, 9, 44, 91
5, 171839, Note_on_c, 9, 44, 0
5, 172320, Note_on_c, 9, 44, 83
5, 172799, Note_on_c, 9, 44, 0
5, 180960, Note_on_c, 9, 44, 91
5, 181439, Note_on_c, 9, 44, 0
5, 181920, Note_on_c, 9, 44, 83
5, 182399, Note_on_c, 9, 44, 0
5, 182880, Note_on_c, 9, 44, 91
5, 183359, Note_on_c, 9, 44, 0
5, 183840, Note_on_c, 9, 44, 83
5, 184319, Note_on_c, 9, 44, 0
5, 184800, Note_on_c, 9, 44, 91
5, 185279, Note_on_c, 9, 44, 0
5, 185760, Note_on_c, 9, 44, 83
5, 186239, Note_on_c, 9, 44, 0
5, 186720, Note_on_c, 9, 44, 91
5, 187199, Note_on_c, 9, 44, 0
5, 187680, Note_on_c, 9, 44, 83
5, 188159, Note_on_c, 9, 44, 0
5, 188640, Note_on_c, 9, 44, 91
5, 189119, Note_on_c, 9, 44, 0
5, 189600, Note_on_c, 9, 44, 83
5, 190079, Note_on_c, 9, 44, 0
5, 190560, Note_on_c, 9, 44, 91
5, 191039, Note_on_c, 9, 44, 0
5, 191520, Note_on_c, 9, 44, 83
5, 191999, Note_on_c, 9, 44, 0
5, 192480, Note_on_c, 9, 44, 91
5, 192959, Note_on_c, 9, 44, 0
5, 193440, Note_on_c, 9, 44, 83
5, 193919, Note_on_c, 9, 44, 0
5, 194400, Note_on_c, 9, 44, 91
5, 194879, Note_on_c, 9, 44, 0
5, 195360, Note_on_c, 9, 44, 83
5, 195839, Note_on_c, 9, 44, 0
5, 196320, Note_on_c, 9, 44, 91
5, 196799, Note_on_c, 9, 44, 0
5, 197280, Note_on_c, 9, 44, 83
5, 197759, Note_on_c, 9, 44, 0
5, 198240, Note_on_c, 9, 44, 91
5, 198719, Note_on_c, 9, 44, 0
5, 199200, Note_on_c, 9, 44, 83
5, 199679, Note_on_c, 9, 44, 0
5, 200160, Note_on_c, 9, 44, 91
5, 200639, Note_on_c, 9, 44, 0
5, 201120, Note_on_c, 9, 44, 83
5, 201599, Note_on_c, 9, 44, 0
5, 202080, Note_on_c, 9, 44, 91
5, 202559, Note_on_c, 9, 44, 0
5, 203040, Note_on_c, 9, 44, 83
5, 203519, Note_on_c, 9, 44, 0
5, 204000, Note_on_c, 9, 44, 91
5, 204479, Note_on_c, 9, 44, 0
5, 204960, Note_on_c, 9, 44, 83
5, 205439, Note_on_c, 9, 44, 0
5, 205920, Note_on_c, 9, 44, 91
5, 206399, Note_on_c, 9, 44, 0
5, 206880, Note_on_c, 9, 44, 83
5, 207359, Note_on_c, 9, 44, 0
5, 207840, Note_on_c, 9, 44, 91
5, 208319, Note_on_c, 9, 44, 0
5, 208800, Note_on_c, 9, 44, 83
5, 209279, Note_on_c, 9, 44, 0
5, 209280, End_track
6, 0, Start_track
6, 0, Key_signature, 0, "major"
6, 0, Control_c, 9, 121, 0
6, 0, Program_c, 9, 0
6, 0, Control_c, 9, 7, 100
6, 0, Control_c, 9, 10, 64
6, 0, Control_c, 9, 91, 0
6, 0, Control_c, 9, 93, 0
6, 0, MIDI_port, 0
6, 99840, Note_on_c, 9, 46, 72
6, 100319, Note_on_c, 9, 46, 0
6, 172800, Note_on_c, 9, 46, 72
6, 173279, Note_on_c, 9, 46, 0
6, 210000, Note_on_c, 9, 46, 72
6, 210239, Note_on_c, 9, 46, 0
6, 210240, End_track
7, 0, Start_track
7, 0, Key_signature, 0, "major"
7, 0, Control_c, 9, 121, 0
7, 0, Program_c, 9, 0
7, 0, Control_c, 9, 7, 100
7, 0, Control_c, 9, 10, 64
7, 0, Control_c, 9, 91, 0
7, 0, Control_c, 9, 93, 0
7, 0, MIDI_port, 0
7, 42240, Note_on_c, 9, 51, 77
7, 42719, Note_on_c, 9, 51, 0
7, 43200, Note_on_c, 9, 51, 80
7, 43679, Note_on_c, 9, 51, 0
7, 44160, Note_on_c, 9, 51, 74
7, 44639, Note_on_c, 9, 51, 0
7, 44640, End_track
8, 0, Start_track
8, 0, Key_signature, 0, "major"
8, 0, Control_c, 9, 121, 0
8, 0, Program_c, 9, 0
8, 0, Control_c, 9, 7, 100
8, 0, Control_c, 9, 10, 64
8, 0, Control_c, 9, 91, 0
8, 0, Control_c, 9, 93, 0
8, 0, MIDI_port, 0
8, 23520, Note_on_c, 9, 54, 93
8, 23999, Note_on_c, 9, 54, 0
8, 24480, Note_on_c, 9, 54, 93
8, 24959, Note_on_c, 9, 54, 0
8, 25440, Note_on_c, 9, 54, 81
8, 25919, Note_on_c, 9, 54, 0
8, 26400, Note_on_c, 9, 54, 80
8, 26879, Note_on_c, 9, 54, 0
8, 27360, Note_on_c, 9, 54, 84
8, 27839, Note_on_c, 9, 54, 0
8, 28320, Note_on_c, 9, 54, 87
8, 28799, Note_on_c, 9, 54, 0
8, 29280, Note_on_c, 9, 54, 85
8, 29759, Note_on_c, 9, 54, 0
8, 30240, Note_on_c, 9, 54, 85
8, 30719, Note_on_c, 9, 54, 0
8, 31200, Note_on_c, 9, 54, 81
8, 31679, Note_on_c, 9, 54, 0
8, 32160, Note_on_c, 9, 54, 91
8, 32639, Note_on_c, 9, 54, 0
8, 33120, Note_on_c, 9, 54, 87
8, 33599, Note_on_c, 9, 54, 0
8, 34080, Note_on_c, 9, 54, 82
8, 34559, Note_on_c, 9, 54, 0
8, 35040, Note_on_c, 9, 54, 76
8, 35519, Note_on_c, 9, 54, 0
8, 36000, Note_on_c, 9, 54, 90
8, 36479, Note_on_c, 9, 54, 0
8, 36960, Note_on_c, 9, 54, 74
8, 37439, Note_on_c, 9, 54, 0
8, 37920, Note_on_c, 9, 54, 87
8, 38399, Note_on_c, 9, 54, 0
8, 38880, Note_on_c, 9, 54, 82
8, 39359, Note_on_c, 9, 54, 0
8, 39840, Note_on_c, 9, 54, 82
8, 40319, Note_on_c, 9, 54, 0
8, 40800, Note_on_c, 9, 54, 87
8, 41279, Note_on_c, 9, 54, 0
8, 41760, Note_on_c, 9, 54, 84
8, 42239, Note_on_c, 9, 54, 0
8, 42720, Note_on_c, 9, 54, 87
8, 43199, Note_on_c, 9, 54, 0
8, 43680, Note_on_c, 9, 54, 81
8, 44159, Note_on_c, 9, 54, 0
8, 44640, Note_on_c, 9, 54, 80
8, 45119, Note_on_c, 9, 54, 0
8, 45600, Note_on_c, 9, 54, 84
8, 46079, Note_on_c, 9, 54, 0
8, 46560, Note_on_c, 9, 54, 87
8, 47039, Note_on_c, 9, 54, 0
8, 47520, Note_on_c, 9, 54, 84
8, 47999, Note_on_c, 9, 54, 0
8, 48480, Note_on_c, 9, 54, 84
8, 48959, Note_on_c, 9, 54, 0
8, 49440, Note_on_c, 9, 54, 77
8, 49919, Note_on_c, 9, 54, 0
8, 50400, Note_on_c, 9, 54, 82
8, 50879, Note_on_c, 9, 54, 0
8, 51360, Note_on_c, 9, 54, 87
8, 51839, Note_on_c, 9, 54, 0
8, 51840, End_track
0, 0, End_of_file
