0, 0, Header, 1, 10, 480
1, 0, Start_track
1, 0, Time_signature, 4, 2, 24, 8
1, 0, Key_signature, 0, "major"
1, 0, Tempo, 483871
1, 0, Control_c, 9, 121, 0
1, 0, Program_c, 9, 0
1, 0, Control_c, 9, 7, 127
1, 0, Control_c, 9, 10, 64
1, 0, Control_c, 9, 91, 0
1, 0, Control_c, 9, 93, 0
1, 0, MIDI_port, 0
1, 3120, Note_on_c, 9, 46, 90
1, 3359, Note_on_c, 9, 46, 0
1, 3840, Note_on_c, 9, 46, 90
1, 4319, Note_on_c, 9, 46, 0
1, 9120, Note_on_c, 9, 46, 114
1, 9599, Note_on_c, 9, 46, 0
1, 18000, Note_on_c, 9, 46, 100
1, 18239, Note_on_c, 9, 46, 0
1, 19920, Note_on_c, 9, 46, 100
1, 20159, Note_on_c, 9, 46, 0
1, 21840, Note_on_c, 9, 46, 100
1, 22079, Note_on_c, 9, 46, 0
1, 24240, Note_on_c, 9, 46, 100
1, 24479, Note_on_c, 9, 46, 0
1, 26640, Note_on_c, 9, 46, 100
1, 26879, Note_on_c, 9, 46, 0
1, 27600, Note_on_c, 9, 46, 100
1, 27839, Note_on_c, 9, 46, 0
1, 29520, Note_on_c, 9, 46, 100
1, 29759, Note_on_c, 9, 46, 0
1, 32400, Note_on_c, 9, 46, 100
1, 32639, Note_on_c, 9, 46, 0
1, 38400, Note_on_c, 9, 46, 90
1, 38879, Note_on_c, 9, 46, 0
1, 38880, Note_on_c, 9, 46, 90
1, 39359, Note_on_c, 9, 46, 0
1, 42240, Note_on_c, 9, 46, 100
1, 42719, Note_on_c, 9, 46, 0
1, 42960, Note_on_c, 9, 46, 100
1, 43199, Note_on_c, 9, 46, 0
1, 44160, Note_on_c, 9, 46, 100
1, 44639, Note_on_c, 9, 46, 0
1, 44880, Note_on_c, 9, 46, 100
1, 45119, Note_on_c, 9, 46, 0
1, 46080, Note_on_c, 9, 46, 100
1, 46559, Note_on_c, 9, 46, 0
1, 49920, Note_on_c, 9, 46, 115
1, 50399, Note_on_c, 9, 46, 0
1, 53040, Note_on_c, 9, 46, 115
1, 53279, Note_on_c, 9, 46, 0
1, 53760, Note_on_c, 9, 46, 114
1, 54239, Note_on_c, 9, 46, 0
1, 57120, Note_on_c, 9, 46, 114
1, 57599, Note_on_c, 9, 46, 0
1, 67920, Note_on_c, 9, 46, 100
1, 68159, Note_on_c, 9, 46, 0
1, 69840, Note_on_c, 9, 46, 100
1, 70079, Note_on_c, 9, 46, 0
1, 71760, Note_on_c, 9, 46, 100
1, 71999, Note_on_c, 9, 46, 0
1, 74160, Note_on_c, 9, 46, 100
1, 74399, Note_on_c, 9, 46, 0
1, 76560, Note_on_c, 9, 46, 100
1, 76799, Note_on_c, 9, 46, 0
1, 77520, Note_on_c, 9, 46, 100
1, 77759, Note_on_c, 9, 46, 0
1, 79440, Note_on_c, 9, 46, 100
1, 79679, Note_on_c, 9, 46, 0
1, 82320, Note_on_c, 9, 46, 100
1, 82559, Note_on_c, 9, 46, 0
1, 88320, Note_on_c, 9, 46, 90
1, 88799, Note_on_c, 9, 46, 0
1, 88800, Note_on_c, 9, 46, 90
1, 89279, Note_on_c, 9, 46, 0
1, 100080, Note_on_c, 9, 46, 115
1, 100319, Note_on_c, 9, 46, 0
1, 103440, Note_on_c, 9, 46, 114
1, 103679, Note_on_c, 9, 46, 0
1, 107040, Note_on_c, 9, 46, 114
1, 107519, Note_on_c, 9, 46, 0
1, 130560, Note_on_c, 9, 46, 90
1, 131039, Note_on_c, 9, 46, 0
1, 131040, Note_on_c, 9, 46, 90
1, 131519, Note_on_c, 9, 46, 0
1, 145920, Note_on_c, 9, 46, 90
1, 146399, Note_on_c, 9, 46, 0
1, 146400, Note_on_c, 9, 46, 90
1, 146879, Note_on_c, 9, 46, 0
1, 179280, Note_on_c, 9, 46, 100
1, 179519, Note_on_c, 9, 46, 0
1, 181200, Note_on_c, 9, 46, 100
1, 181439, Note_on_c, 9, 46, 0
1, 183120, Note_on_c, 9, 46, 100
1, 183359, Note_on_c, 9, 46, 0
1, 185520, Note_on_c, 9, 46, 100
1, 185759, Note_on_c, 9, 46, 0
1, 187920, Note_on_c, 9, 46, 100
1, 188159, Note_on_c, 9, 46, 0
1, 188880, Note_on_c, 9, 46, 100
1, 189119, Note_on_c, 9, 46, 0
1, 190800, Note_on_c, 9, 46, 100
1, 191039, Note_on_c, 9, 46, 0
1, 193680, Note_on_c, 9, 46, 100
1, 193919, Note_on_c, 9, 46, 0
1, 199680, Note_on_c, 9, 46, 90
1, 200159, Note_on_c, 9, 46, 0
1, 200160, Note_on_c, 9, 46, 90
1, 200639, Note_on_c, 9, 46, 0
1, 211440, Note_on_c, 9, 46, 115
1, 211679, Note_on_c, 9, 46, 0
1, 214800, Note_on_c, 9, 46, 114
1, 215039, Note_on_c, 9, 46, 0
1, 218400, Note_on_c, 9, 46, 114
1, 218879, Note_on_c, 9, 46, 0
1, 226800, Note_on_c, 9, 46, 115
1, 227039, Note_on_c, 9, 46, 0
1, 230160, Note_on_c, 9, 46, 114
1, 230399, Note_on_c, 9, 46, 0
1, 233760, Note_on_c, 9, 46, 114
1, 234239, Note_on_c, 9, 46, 0
1, 234240, End_track
2, 0, Start_track
2, 0, Key_signature, 0, "major"
2, 0, Control_c, 9, 121, 0
2, 0, Program_c, 9, 0
2, 0, Control_c, 9, 7, 127
2, 0, Control_c, 9, 10, 64
2, 0, Control_c, 9, 91, 0
2, 0, Control_c, 9, 93, 0
2, 0, MIDI_port, 0
2, 24600, Note_on_c, 9, 47, 112
2, 24959, Note_on_c, 9, 47, 0
2, 46560, Note_on_c, 9, 47, 79
2, 46799, Note_on_c, 9, 47, 0
2, 46800, Note_on_c, 9, 47, 79
2, 47039, Note_on_c, 9, 47, 0
2, 47040, Note_on_c, 9, 47, 79
2, 47279, Note_on_c, 9, 47, 0
2, 47280, Note_on_c, 9, 47, 79
2, 47519, Note_on_c, 9, 47, 0
2, 74400, Note_on_c, 9, 47, 80
2, 74879, Note_on_c, 9, 47, 0
2, 96480, Note_on_c, 9, 47, 79
2, 96719, Note_on_c, 9, 47, 0
2, 96720, Note_on_c, 9, 47, 79
2, 96959, Note_on_c, 9, 47, 0
2, 96960, Note_on_c, 9, 47, 79
2, 97199, Note_on_c, 9, 47, 0
2, 97200, Note_on_c, 9, 47, 79
2, 97439, Note_on_c, 9, 47, 0
2, 124320, Note_on_c, 9, 47, 79
2, 124799, Note_on_c, 9, 47, 0
2, 138960, Note_on_c, 9, 47, 79
2, 139079, Note_on_c, 9, 47, 0
2, 139080, Note_on_c, 9, 47, 79
2, 139199, Note_on_c, 9, 47, 0
2, 154320, Note_on_c, 9, 47, 79
2, 154439, Note_on_c, 9, 47, 0
2, 154440, Note_on_c, 9, 47, 79
2, 154559, Note_on_c, 9, 47, 0
2, 156480, Note_on_c, 9, 48, 100
2, 156539, Note_on_c, 9, 48, 0
2, 156540, Note_on_c, 9, 48, 100
2, 156599, Note_on_c, 9, 48, 0
2, 156600, Note_on_c, 9, 48, 100
2, 156659, Note_on_c, 9, 48, 0
2, 156660, Note_on_c, 9, 48, 100
2, 156719, Note_on_c, 9, 48, 0
2, 185880, Note_on_c, 9, 47, 112
2, 186239, Note_on_c, 9, 47, 0
2, 207840, Note_on_c, 9, 47, 79
2, 208079, Note_on_c, 9, 47, 0
2, 208080, Note_on_c, 9, 47, 79
2, 208319, Note_on_c, 9, 47, 0
2, 208320, Note_on_c, 9, 47, 79
2, 208559, Note_on_c, 9, 47, 0
2, 208560, Note_on_c, 9, 47, 79
2, 208799, Note_on_c, 9, 47, 0
2, 222000, Note_on_c, 9, 47, 100
2, 222119, Note_on_c, 9, 47, 0
2, 222120, Note_on_c, 9, 47, 100
2, 222239, Note_on_c, 9, 47, 0
2, 223920, Note_on_c, 9, 47, 100
2, 224039, Note_on_c, 9, 47, 0
2, 224040, Note_on_c, 9, 47, 100
2, 224159, Note_on_c, 9, 47, 0
2, 224160, End_track
3, 0, Start_track
3, 0, Key_signature, 0, "major"
3, 0, Control_c, 9, 121, 0
3, 0, Program_c, 9, 0
3, 0, Control_c, 9, 7, 127
3, 0, Control_c, 9, 10, 64
3, 0, Control_c, 9, 91, 0
3, 0, Control_c, 9, 93, 0
3, 0, MIDI_port, 0
3, 9360, Note_on_c, 9, 43, 108
3, 9599, Note_on_c, 9, 43, 0
3, 139200, Note_on_c, 9, 43, 108
3, 139319, Note_on_c, 9, 43, 0
3, 139320, Note_on_c, 9, 43, 108
3, 139679, Note_on_c, 9, 43, 0
3, 154560, Note_on_c, 9, 43, 108
3, 154679, Note_on_c, 9, 43, 0
3, 154680, Note_on_c, 9, 43, 108
3, 155039, Note_on_c, 9, 43, 0
3, 156240, Note_on_c, 9, 47, 100
3, 156479, Note_on_c, 9, 47, 0
3, 156720, Note_on_c, 9, 47, 100
3, 156839, Note_on_c, 9, 47, 0
3, 156840, Note_on_c, 9, 47, 100
3, 156959, Note_on_c, 9, 47, 0
3, 170280, Note_on_c, 9, 47, 100
3, 170399, Note_on_c, 9, 47, 0
3, 170400, Note_on_c, 9, 47, 100
3, 170879, Note_on_c, 9, 47, 0
3, 177840, Note_on_c, 9, 45, 100
3, 178079, Note_on_c, 9, 45, 0
3, 178080, Note_on_c, 9, 45, 100
3, 178199, Note_on_c, 9, 45, 0
3, 178200, Note_on_c, 9, 45, 100
3, 178559, Note_on_c, 9, 45, 0
3, 221400, Note_on_c, 9, 47, 100
3, 221759, Note_on_c, 9, 47, 0
3, 223320, Note_on_c, 9, 47, 100
3, 223679, Note_on_c, 9, 47, 0
3, 243360, Note_on_c, 9, 45, 100
3, 243479, Note_on_c, 9, 45, 0
3, 243480, Note_on_c, 9, 45, 100
3, 243839, Note_on_c, 9, 45, 0
3, 243840, End_track
4, 0, Start_track
4, 0, Key_signature, 0, "major"
4, 0, Control_c, 9, 121, 0
4, 0, Program_c, 9, 0
4, 0, Control_c, 9, 7, 127
4, 0, Control_c, 9, 10, 64
4, 0, Control_c, 9, 91, 0
4, 0, Control_c, 9, 93, 0
4, 0, MIDI_port, 0
4, 46320, Note_on_c, 9, 43, 60
4, 46559, Note_on_c, 9, 43, 0
4, 46560, Note_on_c, 9, 43, 60
4, 46799, Note_on_c, 9, 43, 0
4, 46800, Note_on_c, 9, 43, 60
4, 47039, Note_on_c, 9, 43, 0
4, 47040, Note_on_c, 9, 43, 69
4, 47279, Note_on_c, 9, 43, 0
4, 47280, Note_on_c, 9, 43, 69
4, 47519, Note_on_c, 9, 43, 0
4, 47520, Note_on_c, 9, 43, 92
4, 47759, Note_on_c, 9, 43, 0
4, 47760, Note_on_c, 9, 43, 92
4, 47999, Note_on_c, 9, 43, 0
4, 66720, Note_on_c, 9, 43, 100
4, 67199, Note_on_c, 9, 43, 0
4, 96240, Note_on_c, 9, 43, 60
4, 96479, Note_on_c, 9, 43, 0
4, 96480, Note_on_c, 9, 43, 60
4, 96719, Note_on_c, 9, 43, 0
4, 96720, Note_on_c, 9, 43, 60
4, 96959, Note_on_c, 9, 43, 0
4, 96960, Note_on_c, 9, 43, 69
4, 97199, Note_on_c, 9, 43, 0
4, 97200, Note_on_c, 9, 43, 69
4, 97439, Note_on_c, 9, 43, 0
4, 97440, Note_on_c, 9, 43, 92
4, 97679, Note_on_c, 9, 43, 0
4, 97680, Note_on_c, 9, 43, 92
4, 97919, Note_on_c, 9, 43, 0
4, 124560, Note_on_c, 9, 43, 100
4, 124799, Note_on_c, 9, 43, 0
4, 139440, Note_on_c, 9, 45, 100
4, 139559, Note_on_c, 9, 45, 0
4, 139560, Note_on_c, 9, 45, 100
4, 139679, Note_on_c, 9, 45, 0
4, 154800, Note_on_c, 9, 45, 100
4, 154919, Note_on_c, 9, 45, 0
4, 154920, Note_on_c, 9, 45, 100
4, 155039, Note_on_c, 9, 45, 0
4, 156960, Note_on_c, 9, 43, 100
4, 157079, Note_on_c, 9, 43, 0
4, 157080, Note_on_c, 9, 43, 100
4, 157439, Note_on_c, 9, 43, 0
4, 170520, Note_on_c, 9, 45, 100
4, 170639, Note_on_c, 9, 45, 0
4, 170640, Note_on_c, 9, 45, 100
4, 170700, Note_on_c, 9, 43, 100
4, 170819, Note_on_c, 9, 43, 0
4, 170820, Note_on_c, 9, 43, 100
4, 170879, Note_on_c, 9, 45, 0
4, 170879, Note_on_c, 9, 43, 0
4, 207600, Note_on_c, 9, 43, 60
4, 207839, Note_on_c, 9, 43, 0
4, 207840, Note_on_c, 9, 43, 60
4, 208079, Note_on_c, 9, 43, 0
4, 208080, Note_on_c, 9, 43, 60
4, 208319, Note_on_c, 9, 43, 0
4, 208320, Note_on_c, 9, 43, 69
4, 208559, Note_on_c, 9, 43, 0
4, 208560, Note_on_c, 9, 43, 69
4, 208799, Note_on_c, 9, 43, 0
4, 208800, Note_on_c, 9, 43, 92
4, 209039, Note_on_c, 9, 43, 0
4, 209040, Note_on_c, 9, 43, 92
4, 209279, Note_on_c, 9, 43, 0
4, 221520, Note_on_c, 9, 41, 100
4, 221639, Note_on_c, 9, 41, 0
4, 221640, Note_on_c, 9, 41, 100
4, 221759, Note_on_c, 9, 41, 0
4, 223440, Note_on_c, 9, 41, 100
4, 223559, Note_on_c, 9, 41, 0
4, 223560, Note_on_c, 9, 41, 100
4, 223679, Note_on_c, 9, 41, 0
4, 243600, Note_on_c, 9, 43, 100
4, 243719, Note_on_c, 9, 43, 0
4, 243720, Note_on_c, 9, 43, 100
4, 243839, Note_on_c, 9, 43, 0
4, 243840, End_track
5, 0, Start_track
5, 0, Key_signature, 0, "major"
5, 0, Control_c, 9, 121, 0
5, 0, Program_c, 9, 0
5, 0, Control_c, 9, 7, 127
5, 0, Control_c, 9, 10, 64
5, 0, Control_c, 9, 91, 0
5, 0, Control_c, 9, 93, 0
5, 0, MIDI_port, 0
5, 46560, Note_on_c, 9, 41, 46
5, 46799, Note_on_c, 9, 41, 0
5, 46800, Note_on_c, 9, 41, 46
5, 47039, Note_on_c, 9, 41, 0
5, 47040, Note_on_c, 9, 41, 57
5, 47279, Note_on_c, 9, 41, 0
5, 47280, Note_on_c, 9, 41, 58
5, 47519, Note_on_c, 9, 41, 0
5, 47520, Note_on_c, 9, 41, 80
5, 47759, Note_on_c, 9, 41, 0
5, 47760, Note_on_c, 9, 41, 80
5, 47999, Note_on_c, 9, 41, 0
5, 66960, Note_on_c, 9, 41, 102
5, 67199, Note_on_c, 9, 41, 0
5, 74640, Note_on_c, 9, 41, 79
5, 74879, Note_on_c, 9, 41, 0
5, 96480, Note_on_c, 9, 41, 46
5, 96719, Note_on_c, 9, 41, 0
5, 96720, Note_on_c, 9, 41, 46
5, 96959, Note_on_c, 9, 41, 0
5, 96960, Note_on_c, 9, 41, 57
5, 97199, Note_on_c, 9, 41, 0
5, 97200, Note_on_c, 9, 41, 58
5, 97439, Note_on_c, 9, 41, 0
5, 97440, Note_on_c, 9, 41, 80
5, 97679, Note_on_c, 9, 41, 0
5, 97680, Note_on_c, 9, 41, 80
5, 97919, Note_on_c, 9, 41, 0
5, 139680, Note_on_c, 9, 43, 100
5, 139799, Note_on_c, 9, 43, 0
5, 139800, Note_on_c, 9, 43, 100
5, 139920, Note_on_c, 9, 41, 100
5, 140039, Note_on_c, 9, 41, 0
5, 140040, Note_on_c, 9, 41, 100
5, 140159, Note_on_c, 9, 43, 0
5, 140159, Note_on_c, 9, 41, 0
5, 155040, Note_on_c, 9, 43, 100
5, 155159, Note_on_c, 9, 43, 0
5, 155160, Note_on_c, 9, 43, 100
5, 155519, Note_on_c, 9, 43, 0
5, 155520, Note_on_c, 9, 43, 100
5, 155759, Note_on_c, 9, 43, 0
5, 155760, Note_on_c, 9, 43, 100
5, 155999, Note_on_c, 9, 43, 0
5, 157200, Note_on_c, 9, 41, 100
5, 157319, Note_on_c, 9, 41, 0
5, 157320, Note_on_c, 9, 41, 100
5, 157439, Note_on_c, 9, 41, 0
5, 207840, Note_on_c, 9, 41, 46
5, 208079, Note_on_c, 9, 41, 0
5, 208080, Note_on_c, 9, 41, 46
5, 208319, Note_on_c, 9, 41, 0
5, 208320, Note_on_c, 9, 41, 57
5, 208559, Note_on_c, 9, 41, 0
5, 208560, Note_on_c, 9, 41, 58
5, 208799, Note_on_c, 9, 41, 0
5, 208800, Note_on_c, 9, 41, 80
5, 209039, Note_on_c, 9, 41, 0
5, 209040, Note_on_c, 9, 41, 80
5, 209279, Note_on_c, 9, 41, 0
5, 221760, Note_on_c, 9, 41, 99
5, 221879, Note_on_c, 9, 41, 0
5, 221880, Note_on_c, 9, 41, 99
5, 222239, Note_on_c, 9, 41, 0
5, 223680, Note_on_c, 9, 41, 99
5, 223799, Note_on_c, 9, 41, 0
5, 223800, Note_on_c, 9, 41, 99
5, 224159, Note_on_c, 9, 41, 0
5, 224160, End_track
6, 0, Start_track
6, 0, Key_signature, 0, "major"
6, 0, Control_c, 9, 121, 0
6, 0, Program_c, 9, 0
6, 0, Control_c, 9, 7, 127
6, 0, Control_c, 9, 10, 64
6, 0, Control_c, 9, 91, 0
6, 0, Control_c, 9, 93, 0
6, 0, MIDI_port, 0
6, 17280, Note_on_c, 9, 49, 80
6, 17759, Note_on_c, 9, 49, 0
6, 24960, Note_on_c, 9, 49, 63
6, 25439, Note_on_c, 9, 49, 0
6, 32600, Note_on_c, 9, 49, 80
6, 32639, Note_on_c, 9, 49, 0
6, 40320, Note_on_c, 9, 49, 60
6, 40799, Note_on_c, 9, 49, 0
6, 48000, Note_on_c, 9, 49, 109
6, 48479, Note_on_c, 9, 49, 0
6, 55680, Note_on_c, 9, 49, 80
6, 56159, Note_on_c, 9, 49, 0
6, 59520, Note_on_c, 9, 57, 100
6, 59999, Note_on_c, 9, 57, 0
6, 67200, Note_on_c, 9, 57, 80
6, 67679, Note_on_c, 9, 57, 0
6, 74840, Note_on_c, 9, 49, 80
6, 74879, Note_on_c, 9, 49, 0
6, 82520, Note_on_c, 9, 49, 80
6, 82559, Note_on_c, 9, 49, 0
6, 90240, Note_on_c, 9, 49, 60
6, 90719, Note_on_c, 9, 49, 0
6, 97920, Note_on_c, 9, 49, 114
6, 98399, Note_on_c, 9, 49, 0
6, 105600, Note_on_c, 9, 49, 80
6, 106079, Note_on_c, 9, 49, 0
6, 109680, Note_on_c, 9, 57, 100
6, 109919, Note_on_c, 9, 57, 0
6, 110160, Note_on_c, 9, 57, 100
6, 110399, Note_on_c, 9, 57, 0
6, 110640, Note_on_c, 9, 57, 100
6, 110879, Note_on_c, 9, 57, 0
6, 110880, Note_on_c, 9, 57, 100
6, 111359, Note_on_c, 9, 57, 0
6, 113520, Note_on_c, 9, 49, 100
6, 113759, Note_on_c, 9, 49, 0
6, 114000, Note_on_c, 9, 57, 100
6, 114239, Note_on_c, 9, 57, 0
6, 114480, Note_on_c, 9, 49, 100
6, 114719, Note_on_c, 9, 49, 0
6, 114720, Note_on_c, 9, 57, 100
6, 115199, Note_on_c, 9, 57, 0
6, 117360, Note_on_c, 9, 49, 100
6, 117599, Note_on_c, 9, 49, 0
6, 117840, Note_on_c, 9, 57, 100
6, 118079, Note_on_c, 9, 57, 0
6, 118320, Note_on_c, 9, 49, 100
6, 118559, Note_on_c, 9, 49, 0
6, 118560, Note_on_c, 9, 57, 100
6, 119039, Note_on_c, 9, 57, 0
6, 121200, Note_on_c, 9, 57, 100
6, 121439, Note_on_c, 9, 57, 0
6, 121680, Note_on_c, 9, 49, 100
6, 121919, Note_on_c, 9, 49, 0
6, 122160, Note_on_c, 9, 57, 100
6, 122399, Note_on_c, 9, 57, 0
6, 122400, Note_on_c, 9, 49, 100
6, 122879, Note_on_c, 9, 49, 0
6, 124800, Note_on_c, 9, 57, 127
6, 125039, Note_on_c, 9, 57, 0
6, 125040, Note_on_c, 9, 53, 100
6, 125279, Note_on_c, 9, 53, 0
6, 125520, Note_on_c, 9, 53, 100
6, 125759, Note_on_c, 9, 53, 0
6, 126000, Note_on_c, 9, 53, 100
6, 126239, Note_on_c, 9, 53, 0
6, 126480, Note_on_c, 9, 53, 100
6, 126719, Note_on_c, 9, 53, 0
6, 126960, Note_on_c, 9, 53, 100
6, 127199, Note_on_c, 9, 53, 0
6, 127440, Note_on_c, 9, 53, 100
6, 127679, Note_on_c, 9, 53, 0
6, 127920, Note_on_c, 9, 53, 100
6, 128159, Note_on_c, 9, 53, 0
6, 128400, Note_on_c, 9, 53, 100
6, 128639, Note_on_c, 9, 53, 0
6, 128880, Note_on_c, 9, 53, 100
6, 129119, Note_on_c, 9, 53, 0
6, 129360, Note_on_c, 9, 53, 100
6, 129599, Note_on_c, 9, 53, 0
6, 129840, Note_on_c, 9, 53, 100
6, 130079, Note_on_c, 9, 53, 0
6, 130200, Note_on_c, 9, 53, 100
6, 130319, Note_on_c, 9, 53, 0
6, 130320, Note_on_c, 9, 53, 100
6, 130559, Note_on_c, 9, 53, 0
6, 130560, Note_on_c, 9, 53, 100
6, 130799, Note_on_c, 9, 53, 0
6, 130800, Note_on_c, 9, 53, 100
6, 131039, Note_on_c, 9, 53, 0
6, 131280, Note_on_c, 9, 53, 100
6, 131519, Note_on_c, 9, 53, 0
6, 131760, Note_on_c, 9, 53, 100
6, 131999, Note_on_c, 9, 53, 0
6, 132240, Note_on_c, 9, 53, 100
6, 132479, Note_on_c, 9, 53, 0
6, 132480, Note_on_c, 9, 57, 100
6, 132719, Note_on_c, 9, 57, 0
6, 132720, Note_on_c, 9, 53, 100
6, 132959, Note_on_c, 9, 53, 0
6, 133200, Note_on_c, 9, 53, 100
6, 133439, Note_on_c, 9, 53, 0
6, 133680, Note_on_c, 9, 53, 100
6, 133919, Note_on_c, 9, 53, 0
6, 134160, Note_on_c, 9, 53, 100
6, 134399, Note_on_c, 9, 53, 0
6, 134640, Note_on_c, 9, 53, 100
6, 134879, Note_on_c, 9, 53, 0
6, 135120, Note_on_c, 9, 53, 100
6, 135359, Note_on_c, 9, 53, 0
6, 135600, Note_on_c, 9, 53, 100
6, 135719, Note_on_c, 9, 53, 0
6, 135720, Note_on_c, 9, 53, 100
6, 135839, Note_on_c, 9, 53, 0
6, 135840, Note_on_c, 9, 53, 100
6, 136079, Note_on_c, 9, 53, 0
6, 136080, Note_on_c, 9, 53, 100
6, 136319, Note_on_c, 9, 53, 0
6, 136560, Note_on_c, 9, 53, 100
6, 136799, Note_on_c, 9, 53, 0
6, 137040, Note_on_c, 9, 53, 100
6, 137279, Note_on_c, 9, 53, 0
6, 137520, Note_on_c, 9, 53, 100
6, 137759, Note_on_c, 9, 53, 0
6, 138000, Note_on_c, 9, 53, 100
6, 138239, Note_on_c, 9, 53, 0
6, 138240, Note_on_c, 9, 57, 62
6, 138479, Note_on_c, 9, 57, 0
6, 138480, Note_on_c, 9, 57, 100
6, 138719, Note_on_c, 9, 57, 0
6, 140160, Note_on_c, 9, 57, 127
6, 140399, Note_on_c, 9, 57, 0
6, 140400, Note_on_c, 9, 53, 100
6, 140639, Note_on_c, 9, 53, 0
6, 140880, Note_on_c, 9, 53, 100
6, 141119, Note_on_c, 9, 53, 0
6, 141360, Note_on_c, 9, 53, 100
6, 141599, Note_on_c, 9, 53, 0
6, 141840, Note_on_c, 9, 53, 100
6, 142079, Note_on_c, 9, 53, 0
6, 142320, Note_on_c, 9, 53, 100
6, 142559, Note_on_c, 9, 53, 0
6, 142800, Note_on_c, 9, 53, 100
6, 143039, Note_on_c, 9, 53, 0
6, 143280, Note_on_c, 9, 53, 100
6, 143519, Note_on_c, 9, 53, 0
6, 143520, Note_on_c, 9, 53, 100
6, 143639, Note_on_c, 9, 53, 0
6, 143640, Note_on_c, 9, 53, 100
6, 143759, Note_on_c, 9, 53, 0
6, 143760, Note_on_c, 9, 53, 100
6, 143879, Note_on_c, 9, 53, 0
6, 143880, Note_on_c, 9, 53, 100
6, 143999, Note_on_c, 9, 53, 0
6, 144000, Note_on_c, 9, 49, 100
6, 144239, Note_on_c, 9, 49, 0
6, 144240, Note_on_c, 9, 53, 100
6, 144479, Note_on_c, 9, 53, 0
6, 144720, Note_on_c, 9, 53, 100
6, 144959, Note_on_c, 9, 53, 0
6, 145200, Note_on_c, 9, 53, 100
6, 145439, Note_on_c, 9, 53, 0
6, 145680, Note_on_c, 9, 53, 100
6, 145919, Note_on_c, 9, 53, 0
6, 146160, Note_on_c, 9, 53, 100
6, 146399, Note_on_c, 9, 53, 0
6, 146640, Note_on_c, 9, 53, 100
6, 146759, Note_on_c, 9, 53, 0
6, 146760, Note_on_c, 9, 53, 100
6, 146879, Note_on_c, 9, 53, 0
6, 146880, Note_on_c, 9, 53, 100
6, 146999, Note_on_c, 9, 53, 0
6, 147000, Note_on_c, 9, 53, 100
6, 147119, Note_on_c, 9, 53, 0
6, 147120, Note_on_c, 9, 53, 100
6, 147359, Note_on_c, 9, 53, 0
6, 147600, Note_on_c, 9, 53, 100
6, 147839, Note_on_c, 9, 53, 0
6, 147840, Note_on_c, 9, 57, 100
6, 148079, Note_on_c, 9, 57, 0
6, 148080, Note_on_c, 9, 53, 100
6, 148319, Note_on_c, 9, 53, 0
6, 148560, Note_on_c, 9, 53, 100
6, 148799, Note_on_c, 9, 53, 0
6, 149040, Note_on_c, 9, 53, 100
6, 149279, Note_on_c, 9, 53, 0
6, 149520, Note_on_c, 9, 57, 100
6, 149759, Note_on_c, 9, 57, 0
6, 150000, Note_on_c, 9, 53, 100
6, 150239, Note_on_c, 9, 53, 0
6, 150480, Note_on_c, 9, 53, 100
6, 150719, Note_on_c, 9, 53, 0
6, 150720, Note_on_c, 9, 53, 100
6, 150839, Note_on_c, 9, 53, 0
6, 150840, Note_on_c, 9, 53, 100
6, 150959, Note_on_c, 9, 53, 0
6, 150960, Note_on_c, 9, 53, 100
6, 151199, Note_on_c, 9, 53, 0
6, 151440, Note_on_c, 9, 53, 100
6, 151679, Note_on_c, 9, 53, 0
6, 151920, Note_on_c, 9, 53, 100
6, 152159, Note_on_c, 9, 53, 0
6, 152400, Note_on_c, 9, 53, 100
6, 152639, Note_on_c, 9, 53, 0
6, 152880, Note_on_c, 9, 53, 100
6, 152999, Note_on_c, 9, 53, 0
6, 153000, Note_on_c, 9, 53, 100
6, 153119, Note_on_c, 9, 53, 0
6, 153120, Note_on_c, 9, 53, 100
6, 153239, Note_on_c, 9, 53, 0
6, 153240, Note_on_c, 9, 53, 100
6, 153359, Note_on_c, 9, 53, 0
6, 153360, Note_on_c, 9, 53, 100
6, 153599, Note_on_c, 9, 53, 0
6, 153600, Note_on_c, 9, 57, 62
6, 153839, Note_on_c, 9, 57, 0
6, 153840, Note_on_c, 9, 57, 100
6, 154079, Note_on_c, 9, 57, 0
6, 155520, Note_on_c, 9, 46, 127
6, 155999, Note_on_c, 9, 46, 0
6, 157440, Note_on_c, 9, 57, 100
6, 157919, Note_on_c, 9, 57, 0
6, 157920, Note_on_c, 9, 46, 100
6, 158159, Note_on_c, 9, 46, 0
6, 158160, Note_on_c, 9, 49, 100
6, 158399, Note_on_c, 9, 49, 0
6, 158640, Note_on_c, 9, 57, 100
6, 158879, Note_on_c, 9, 57, 0
6, 159120, Note_on_c, 9, 49, 100
6, 159359, Note_on_c, 9, 49, 0
6, 159360, Note_on_c, 9, 57, 100
6, 159839, Note_on_c, 9, 57, 0
6, 171120, Note_on_c, 9, 57, 100
6, 171359, Note_on_c, 9, 57, 0
6, 171600, Note_on_c, 9, 57, 100
6, 171839, Note_on_c, 9, 57, 0
6, 172080, Note_on_c, 9, 57, 100
6, 172319, Note_on_c, 9, 57, 0
6, 172320, Note_on_c, 9, 57, 100
6, 172799, Note_on_c, 9, 57, 0
6, 174960, Note_on_c, 9, 49, 100
6, 175199, Note_on_c, 9, 49, 0
6, 175440, Note_on_c, 9, 57, 100
6, 175679, Note_on_c, 9, 57, 0
6, 175920, Note_on_c, 9, 49, 100
6, 176159, Note_on_c, 9, 49, 0
6, 176160, Note_on_c, 9, 57, 100
6, 176639, Note_on_c, 9, 57, 0
6, 178560, Note_on_c, 9, 57, 119
6, 179039, Note_on_c, 9, 57, 0
6, 186200, Note_on_c, 9, 49, 80
6, 186239, Note_on_c, 9, 49, 0
6, 193880, Note_on_c, 9, 49, 80
6, 193919, Note_on_c, 9, 49, 0
6, 201600, Note_on_c, 9, 49, 60
6, 202079, Note_on_c, 9, 49, 0
6, 209280, Note_on_c, 9, 49, 121
6, 209759, Note_on_c, 9, 49, 0
6, 216960, Note_on_c, 9, 49, 80
6, 217439, Note_on_c, 9, 49, 0
6, 220800, Note_on_c, 9, 57, 100
6, 221279, Note_on_c, 9, 57, 0
6, 221520, Note_on_c, 9, 49, 100
6, 221759, Note_on_c, 9, 49, 0
6, 222240, Note_on_c, 9, 57, 100
6, 222719, Note_on_c, 9, 57, 0
6, 222720, Note_on_c, 9, 49, 100
6, 223199, Note_on_c, 9, 49, 0
6, 223440, Note_on_c, 9, 57, 100
6, 223679, Note_on_c, 9, 57, 0
6, 224160, Note_on_c, 9, 49, 100
6, 224639, Note_on_c, 9, 49, 0
6, 224640, Note_on_c, 9, 57, 121
6, 225119, Note_on_c, 9, 57, 0
6, 232320, Note_on_c, 9, 49, 80
6, 232799, Note_on_c, 9, 49, 0
6, 236400, Note_on_c, 9, 57, 100
6, 236639, Note_on_c, 9, 57, 0
6, 236880, Note_on_c, 9, 57, 100
6, 237119, Note_on_c, 9, 57, 0
6, 237360, Note_on_c, 9, 57, 100
6, 237599, Note_on_c, 9, 57, 0
6, 237600, Note_on_c, 9, 57, 100
6, 238079, Note_on_c, 9, 57, 0
6, 238320, Note_on_c, 9, 49, 100
6, 238559, Note_on_c, 9, 49, 0
6, 238800, Note_on_c, 9, 49, 100
6, 239039, Note_on_c, 9, 49, 0
6, 239280, Note_on_c, 9, 49, 100
6, 239519, Note_on_c, 9, 49, 0
6, 239520, Note_on_c, 9, 49, 100
6, 239999, Note_on_c, 9, 49, 0
6, 240240, Note_on_c, 9, 49, 100
6, 240479, Note_on_c, 9, 49, 0
6, 240720, Note_on_c, 9, 57, 100
6, 240959, Note_on_c, 9, 57, 0
6, 241200, Note_on_c, 9, 49, 100
6, 241439, Note_on_c, 9, 49, 0
6, 241440, Note_on_c, 9, 57, 100
6, 241919, Note_on_c, 9, 57, 0
6, 242160, Note_on_c, 9, 57, 100
6, 242399, Note_on_c, 9, 57, 0
6, 242640, Note_on_c, 9, 49, 100
6, 242879, Note_on_c, 9, 49, 0
6, 243120, Note_on_c, 9, 57, 100
6, 243359, Note_on_c, 9, 57, 0
6, 243360, Note_on_c, 9, 49, 100
6, 243839, Note_on_c, 9, 49, 0
6, 244080, Note_on_c, 9, 57, 100
6, 244319, Note_on_c, 9, 57, 0
6, 244560, Note_on_c, 9, 57, 100
6, 244799, Note_on_c, 9, 57, 0
6, 245040, Note_on_c, 9, 57, 100
6, 245279, Note_on_c, 9, 57, 0
6, 245280, Note_on_c, 9, 57, 100
6, 245759, Note_on_c, 9, 57, 0
6, 246000, Note_on_c, 9, 49, 100
6, 246239, Note_on_c, 9, 49, 0
6, 246480, Note_on_c, 9, 49, 100
6, 246719, Note_on_c, 9, 49, 0
6, 246960, Note_on_c, 9, 57, 100
6, 247199, Note_on_c, 9, 57, 0
6, 247200, Note_on_c, 9, 57, 100
6, 247679, Note_on_c, 9, 57, 0
6, 247920, Note_on_c, 9, 49, 100
6, 248159, Note_on_c, 9, 49, 0
6, 248400, Note_on_c, 9, 57, 100
6, 248639, Note_on_c, 9, 57, 0
6, 248880, Note_on_c, 9, 49, 100
6, 249119, Note_on_c, 9, 49, 0
6, 249120, Note_on_c, 9, 57, 100
6, 249599, Note_on_c, 9, 57, 0
6, 249840, Note_on_c, 9, 57, 100
6, 250079, Note_on_c, 9, 57, 0
6, 250320, Note_on_c, 9, 57, 100
6, 250559, Note_on_c, 9, 57, 0
6, 250560, Note_on_c, 9, 57, 100
6, 251039, Note_on_c, 9, 57, 0
6, 251040, End_track
7, 0, Start_track
7, 0, Key_signature, 0, "major"
7, 0, Control_c, 9, 121, 0
7, 0, Program_c, 9, 0
7, 0, Control_c, 9, 7, 127
7, 0, Control_c, 9, 10, 64
7, 0, Control_c, 9, 91, 0
7, 0, Control_c, 9, 93, 0
7, 0, MIDI_port, 0
7, 5760, Note_on_c, 9, 33, 125
7, 6239, Note_on_c, 9, 33, 0
7, 6240, Note_on_c, 9, 33, 125
7, 6719, Note_on_c, 9, 33, 0
7, 6720, Note_on_c, 9, 33, 126
7, 7199, Note_on_c, 9, 33, 0
7, 7200, Note_on_c, 9, 33, 126
7, 7679, Note_on_c, 9, 33, 0
7, 7680, Note_on_c, 9, 33, 126
7, 8159, Note_on_c, 9, 33, 0
7, 8160, Note_on_c, 9, 33, 126
7, 8639, Note_on_c, 9, 33, 0
7, 8640, Note_on_c, 9, 33, 126
7, 9119, Note_on_c, 9, 33, 0
7, 9120, Note_on_c, 9, 33, 126
7, 9599, Note_on_c, 9, 33, 0
7, 9600, Note_on_c, 9, 33, 126
7, 10079, Note_on_c, 9, 33, 0
7, 10080, Note_on_c, 9, 33, 126
7, 10559, Note_on_c, 9, 33, 0
7, 10560, Note_on_c, 9, 33, 126
7, 11039, Note_on_c, 9, 33, 0
7, 11040, Note_on_c, 9, 33, 126
7, 11519, Note_on_c, 9, 33, 0
7, 11520, Note_on_c, 9, 33, 126
7, 11999, Note_on_c, 9, 33, 0
7, 12000, Note_on_c, 9, 33, 126
7, 12479, Note_on_c, 9, 33, 0
7, 12480, Note_on_c, 9, 33, 126
7, 12959, Note_on_c, 9, 33, 0
7, 12960, Note_on_c, 9, 33, 126
7, 13439, Note_on_c, 9, 33, 0
7, 13440, Note_on_c, 9, 33, 125
7, 13919, Note_on_c, 9, 33, 0
7, 13920, Note_on_c, 9, 33, 126
7, 14399, Note_on_c, 9, 33, 0
7, 14400, Note_on_c, 9, 33, 126
7, 14879, Note_on_c, 9, 33, 0
7, 14880, Note_on_c, 9, 33, 126
7, 15359, Note_on_c, 9, 33, 0
7, 15360, Note_on_c, 9, 33, 126
7, 15839, Note_on_c, 9, 33, 0
7, 15840, Note_on_c, 9, 33, 126
7, 16319, Note_on_c, 9, 33, 0
7, 16320, Note_on_c, 9, 33, 126
7, 16799, Note_on_c, 9, 33, 0
7, 16800, Note_on_c, 9, 33, 126
7, 17279, Note_on_c, 9, 33, 0
7, 17280, Note_on_c, 9, 33, 127
7, 17759, Note_on_c, 9, 33, 0
7, 17760, Note_on_c, 9, 33, 127
7, 18239, Note_on_c, 9, 33, 0
7, 18240, Note_on_c, 9, 33, 127
7, 18719, Note_on_c, 9, 33, 0
7, 18720, Note_on_c, 9, 33, 127
7, 19199, Note_on_c, 9, 33, 0
7, 19200, Note_on_c, 9, 33, 121
7, 19679, Note_on_c, 9, 33, 0
7, 19680, Note_on_c, 9, 33, 127
7, 20159, Note_on_c, 9, 33, 0
7, 20160, Note_on_c, 9, 33, 127
7, 20639, Note_on_c, 9, 33, 0
7, 20640, Note_on_c, 9, 33, 127
7, 21119, Note_on_c, 9, 33, 0
7, 21120, Note_on_c, 9, 33, 127
7, 21599, Note_on_c, 9, 33, 0
7, 21600, Note_on_c, 9, 33, 127
7, 22079, Note_on_c, 9, 33, 0
7, 22080, Note_on_c, 9, 33, 127
7, 22559, Note_on_c, 9, 33, 0
7, 22560, Note_on_c, 9, 33, 127
7, 23039, Note_on_c, 9, 33, 0
7, 23040, Note_on_c, 9, 33, 127
7, 23519, Note_on_c, 9, 33, 0
7, 23520, Note_on_c, 9, 33, 127
7, 23999, Note_on_c, 9, 33, 0
7, 24000, Note_on_c, 9, 33, 127
7, 24479, Note_on_c, 9, 33, 0
7, 24480, Note_on_c, 9, 33, 127
7, 24959, Note_on_c, 9, 33, 0
7, 24960, Note_on_c, 9, 33, 126
7, 25439, Note_on_c, 9, 33, 0
7, 25440, Note_on_c, 9, 33, 127
7, 25919, Note_on_c, 9, 33, 0
7, 25920, Note_on_c, 9, 33, 127
7, 26399, Note_on_c, 9, 33, 0
7, 26400, Note_on_c, 9, 33, 127
7, 26879, Note_on_c, 9, 33, 0
7, 26880, Note_on_c, 9, 33, 127
7, 27359, Note_on_c, 9, 33, 0
7, 27360, Note_on_c, 9, 33, 127
7, 27839, Note_on_c, 9, 33, 0
7, 27840, Note_on_c, 9, 33, 127
7, 28319, Note_on_c, 9, 33, 0
7, 28320, Note_on_c, 9, 33, 127
7, 28799, Note_on_c, 9, 33, 0
7, 28800, Note_on_c, 9, 33, 127
7, 29279, Note_on_c, 9, 33, 0
7, 29280, Note_on_c, 9, 33, 127
7, 29759, Note_on_c, 9, 33, 0
7, 29760, Note_on_c, 9, 33, 127
7, 30239, Note_on_c, 9, 33, 0
7, 30240, Note_on_c, 9, 33, 127
7, 30719, Note_on_c, 9, 33, 0
7, 30720, Note_on_c, 9, 33, 127
7, 31199, Note_on_c, 9, 33, 0
7, 31200, Note_on_c, 9, 33, 127
7, 31679, Note_on_c, 9, 33, 0
7, 31680, Note_on_c, 9, 33, 127
7, 32159, Note_on_c, 9, 33, 0
7, 32160, Note_on_c, 9, 33, 127
7, 32639, Note_on_c, 9, 33, 0
7, 59520, Note_on_c, 9, 33, 126
7, 59999, Note_on_c, 9, 33, 0
7, 60000, Note_on_c, 9, 33, 126
7, 60479, Note_on_c, 9, 33, 0
7, 60480, Note_on_c, 9, 33, 126
7, 60959, Note_on_c, 9, 33, 0
7, 60960, Note_on_c, 9, 33, 126
7, 61439, Note_on_c, 9, 33, 0
7, 61440, Note_on_c, 9, 33, 126
7, 61919, Note_on_c, 9, 33, 0
7, 61920, Note_on_c, 9, 33, 126
7, 62399, Note_on_c, 9, 33, 0
7, 62400, Note_on_c, 9, 33, 126
7, 62879, Note_on_c, 9, 33, 0
7, 62880, Note_on_c, 9, 33, 126
7, 63359, Note_on_c, 9, 33, 0
7, 63360, Note_on_c, 9, 33, 125
7, 63839, Note_on_c, 9, 33, 0
7, 63840, Note_on_c, 9, 33, 126
7, 64319, Note_on_c, 9, 33, 0
7, 64320, Note_on_c, 9, 33, 126
7, 64799, Note_on_c, 9, 33, 0
7, 64800, Note_on_c, 9, 33, 126
7, 65279, Note_on_c, 9, 33, 0
7, 65280, Note_on_c, 9, 33, 126
7, 65759, Note_on_c, 9, 33, 0
7, 65760, Note_on_c, 9, 33, 126
7, 66239, Note_on_c, 9, 33, 0
7, 66240, Note_on_c, 9, 33, 126
7, 66719, Note_on_c, 9, 33, 0
7, 66720, Note_on_c, 9, 33, 126
7, 67199, Note_on_c, 9, 33, 0
7, 67200, Note_on_c, 9, 33, 127
7, 67679, Note_on_c, 9, 33, 0
7, 67680, Note_on_c, 9, 33, 127
7, 68159, Note_on_c, 9, 33, 0
7, 68160, Note_on_c, 9, 33, 127
7, 68639, Note_on_c, 9, 33, 0
7, 68640, Note_on_c, 9, 33, 127
7, 69119, Note_on_c, 9, 33, 0
7, 69120, Note_on_c, 9, 33, 121
7, 69599, Note_on_c, 9, 33, 0
7, 69600, Note_on_c, 9, 33, 127
7, 70079, Note_on_c, 9, 33, 0
7, 70080, Note_on_c, 9, 33, 127
7, 70559, Note_on_c, 9, 33, 0
7, 70560, Note_on_c, 9, 33, 127
7, 71039, Note_on_c, 9, 33, 0
7, 71040, Note_on_c, 9, 33, 127
7, 71519, Note_on_c, 9, 33, 0
7, 71520, Note_on_c, 9, 33, 127
7, 71999, Note_on_c, 9, 33, 0
7, 72000, Note_on_c, 9, 33, 127
7, 72479, Note_on_c, 9, 33, 0
7, 72480, Note_on_c, 9, 33, 127
7, 72959, Note_on_c, 9, 33, 0
7, 72960, Note_on_c, 9, 33, 127
7, 73439, Note_on_c, 9, 33, 0
7, 73440, Note_on_c, 9, 33, 127
7, 73919, Note_on_c, 9, 33, 0
7, 73920, Note_on_c, 9, 33, 127
7, 74399, Note_on_c, 9, 33, 0
7, 74400, Note_on_c, 9, 33, 127
7, 74879, Note_on_c, 9, 33, 0
7, 74880, Note_on_c, 9, 33, 126
7, 75359, Note_on_c, 9, 33, 0
7, 75360, Note_on_c, 9, 33, 127
7, 75839, Note_on_c, 9, 33, 0
7, 75840, Note_on_c, 9, 33, 127
7, 76319, Note_on_c, 9, 33, 0
7, 76320, Note_on_c, 9, 33, 127
7, 76799, Note_on_c, 9, 33, 0
7, 76800, Note_on_c, 9, 33, 127
7, 77279, Note_on_c, 9, 33, 0
7, 77280, Note_on_c, 9, 33, 127
7, 77759, Note_on_c, 9, 33, 0
7, 77760, Note_on_c, 9, 33, 127
7, 78239, Note_on_c, 9, 33, 0
7, 78240, Note_on_c, 9, 33, 127
7, 78719, Note_on_c, 9, 33, 0
7, 78720, Note_on_c, 9, 33, 127
7, 79199, Note_on_c, 9, 33, 0
7, 79200, Note_on_c, 9, 33, 127
7, 79679, Note_on_c, 9, 33, 0
7, 79680, Note_on_c, 9, 33, 127
7, 80159, Note_on_c, 9, 33, 0
7, 80160, Note_on_c, 9, 33, 127
7, 80639, Note_on_c, 9, 33, 0
7, 80640, Note_on_c, 9, 33, 127
7, 81119, Note_on_c, 9, 33, 0
7, 81120, Note_on_c, 9, 33, 127
7, 81599, Note_on_c, 9, 33, 0
7, 81600, Note_on_c, 9, 33, 127
7, 82079, Note_on_c, 9, 33, 0
7, 82080, Note_on_c, 9, 33, 127
7, 82559, Note_on_c, 9, 33, 0
7, 109440, Note_on_c, 9, 33, 126
7, 109919, Note_on_c, 9, 33, 0
7, 170880, Note_on_c, 9, 33, 126
7, 171359, Note_on_c, 9, 33, 0
7, 179040, Note_on_c, 9, 33, 127
7, 179519, Note_on_c, 9, 33, 0
7, 179520, Note_on_c, 9, 33, 127
7, 179999, Note_on_c, 9, 33, 0
7, 180000, Note_on_c, 9, 33, 127
7, 180479, Note_on_c, 9, 33, 0
7, 180480, Note_on_c, 9, 33, 121
7, 180959, Note_on_c, 9, 33, 0
7, 180960, Note_on_c, 9, 33, 127
7, 181439, Note_on_c, 9, 33, 0
7, 181440, Note_on_c, 9, 33, 127
7, 181919, Note_on_c, 9, 33, 0
7, 181920, Note_on_c, 9, 33, 127
7, 182399, Note_on_c, 9, 33, 0
7, 182400, Note_on_c, 9, 33, 127
7, 182879, Note_on_c, 9, 33, 0
7, 182880, Note_on_c, 9, 33, 127
7, 183359, Note_on_c, 9, 33, 0
7, 183360, Note_on_c, 9, 33, 127
7, 183839, Note_on_c, 9, 33, 0
7, 183840, Note_on_c, 9, 33, 127
7, 184319, Note_on_c, 9, 33, 0
7, 184320, Note_on_c, 9, 33, 127
7, 184799, Note_on_c, 9, 33, 0
7, 184800, Note_on_c, 9, 33, 127
7, 185279, Note_on_c, 9, 33, 0
7, 185280, Note_on_c, 9, 33, 127
7, 185759, Note_on_c, 9, 33, 0
7, 185760, Note_on_c, 9, 33, 127
7, 186239, Note_on_c, 9, 33, 0
7, 186240, Note_on_c, 9, 33, 126
7, 186719, Note_on_c, 9, 33, 0
7, 186720, Note_on_c, 9, 33, 127
7, 187199, Note_on_c, 9, 33, 0
7, 187200, Note_on_c, 9, 33, 127
7, 187679, Note_on_c, 9, 33, 0
7, 187680, Note_on_c, 9, 33, 127
7, 188159, Note_on_c, 9, 33, 0
7, 188160, Note_on_c, 9, 33, 127
7, 188639, Note_on_c, 9, 33, 0
7, 188640, Note_on_c, 9, 33, 127
7, 189119, Note_on_c, 9, 33, 0
7, 189120, Note_on_c, 9, 33, 127
7, 189599, Note_on_c, 9, 33, 0
7, 189600, Note_on_c, 9, 33, 127
7, 190079, Note_on_c, 9, 33, 0
7, 190080, Note_on_c, 9, 33, 127
7, 190559, Note_on_c, 9, 33, 0
7, 190560, Note_on_c, 9, 33, 127
7, 191039, Note_on_c, 9, 33, 0
7, 191040, Note_on_c, 9, 33, 127
7, 191519, Note_on_c, 9, 33, 0
7, 191520, Note_on_c, 9, 33, 127
7, 191999, Note_on_c, 9, 33, 0
7, 192000, Note_on_c, 9, 33, 127
7, 192479, Note_on_c, 9, 33, 0
7, 192480, Note_on_c, 9, 33, 127
7, 192959, Note_on_c, 9, 33, 0
7, 192960, Note_on_c, 9, 33, 127
7, 193439, Note_on_c, 9, 33, 0
7, 193440, Note_on_c, 9, 33, 127
7, 193919, Note_on_c, 9, 33, 0
7, 243840, Note_on_c, 9, 33, 126
7, 244319, Note_on_c, 9, 33, 0
7, 244320, End_track
8, 0, Start_track
8, 0, Key_signature, 0, "major"
8, 0, Control_c, 9, 121, 0
8, 0, Program_c, 9, 0
8, 0, Control_c, 9, 7, 127
8, 0, Control_c, 9, 10, 64
8, 0, Control_c, 9, 91, 0
8, 0, Control_c, 9, 93, 0
8, 0, MIDI_port, 0
8, 5760, Note_on_c, 9, 36, 110
8, 5999, Note_on_c, 9, 36, 0
8, 6000, Note_on_c, 9, 36, 116
8, 6239, Note_on_c, 9, 36, 0
8, 6720, Note_on_c, 9, 36, 116
8, 6959, Note_on_c, 9, 36, 0
8, 6960, Note_on_c, 9, 36, 116
8, 7199, Note_on_c, 9, 36, 0
8, 7680, Note_on_c, 9, 36, 116
8, 7919, Note_on_c, 9, 36, 0
8, 7920, Note_on_c, 9, 36, 116
8, 8159, Note_on_c, 9, 36, 0
8, 8640, Note_on_c, 9, 36, 116
8, 9119, Note_on_c, 9, 36, 0
8, 9840, Note_on_c, 9, 36, 100
8, 10079, Note_on_c, 9, 36, 0
8, 10320, Note_on_c, 9, 36, 100
8, 10559, Note_on_c, 9, 36, 0
8, 10800, Note_on_c, 9, 35, 100
8, 10800, Note_on_c, 9, 36, 100
8, 11039, Note_on_c, 9, 35, 0
8, 11039, Note_on_c, 9, 36, 0
8, 11040, Note_on_c, 9, 36, 100
8, 11519, Note_on_c, 9, 36, 0
8, 11760, Note_on_c, 9, 36, 100
8, 11999, Note_on_c, 9, 36, 0
8, 12240, Note_on_c, 9, 36, 100
8, 12479, Note_on_c, 9, 36, 0
8, 12720, Note_on_c, 9, 36, 100
8, 12959, Note_on_c, 9, 36, 0
8, 12960, Note_on_c, 9, 35, 100
8, 12960, Note_on_c, 9, 36, 100
8, 13439, Note_on_c, 9, 35, 0
8, 13439, Note_on_c, 9, 36, 0
8, 13680, Note_on_c, 9, 36, 100
8, 13919, Note_on_c, 9, 36, 0
8, 14160, Note_on_c, 9, 36, 100
8, 14399, Note_on_c, 9, 36, 0
8, 14640, Note_on_c, 9, 36, 100
8, 14879, Note_on_c, 9, 36, 0
8, 14880, Note_on_c, 9, 35, 100
8, 14880, Note_on_c, 9, 36, 100
8, 15359, Note_on_c, 9, 35, 0
8, 15359, Note_on_c, 9, 36, 0
8, 15600, Note_on_c, 9, 36, 100
8, 15839, Note_on_c, 9, 36, 0
8, 16080, Note_on_c, 9, 36, 100
8, 16319, Note_on_c, 9, 36, 0
8, 16560, Note_on_c, 9, 36, 111
8, 16799, Note_on_c, 9, 36, 0
8, 16800, Note_on_c, 9, 35, 111
8, 16800, Note_on_c, 9, 36, 110
8, 17039, Note_on_c, 9, 35, 0
8, 17039, Note_on_c, 9, 36, 0
8, 17040, Note_on_c, 9, 35, 111
8, 17279, Note_on_c, 9, 35, 0
8, 17520, Note_on_c, 9, 36, 113
8, 17759, Note_on_c, 9, 36, 0
8, 18000, Note_on_c, 9, 36, 113
8, 18239, Note_on_c, 9, 36, 0
8, 18480, Note_on_c, 9, 35, 113
8, 18480, Note_on_c, 9, 36, 113
8, 18719, Note_on_c, 9, 35, 0
8, 18719, Note_on_c, 9, 36, 0
8, 18720, Note_on_c, 9, 36, 113
8, 19199, Note_on_c, 9, 36, 0
8, 19440, Note_on_c, 9, 36, 113
8, 19679, Note_on_c, 9, 36, 0
8, 19920, Note_on_c, 9, 36, 113
8, 20159, Note_on_c, 9, 36, 0
8, 20400, Note_on_c, 9, 36, 113
8, 20639, Note_on_c, 9, 36, 0
8, 20640, Note_on_c, 9, 35, 113
8, 20640, Note_on_c, 9, 36, 113
8, 21119, Note_on_c, 9, 35, 0
8, 21119, Note_on_c, 9, 36, 0
8, 21360, Note_on_c, 9, 36, 113
8, 21599, Note_on_c, 9, 36, 0
8, 21840, Note_on_c, 9, 36, 113
8, 22079, Note_on_c, 9, 36, 0
8, 22320, Note_on_c, 9, 36, 113
8, 22559, Note_on_c, 9, 36, 0
8, 22560, Note_on_c, 9, 35, 113
8, 22560, Note_on_c, 9, 36, 113
8, 23039, Note_on_c, 9, 35, 0
8, 23039, Note_on_c, 9, 36, 0
8, 23280, Note_on_c, 9, 36, 113
8, 23519, Note_on_c, 9, 36, 0
8, 23760, Note_on_c, 9, 36, 113
8, 23999, Note_on_c, 9, 36, 0
8, 24240, Note_on_c, 9, 36, 110
8, 24479, Note_on_c, 9, 36, 0
8, 24480, Note_on_c, 9, 35, 110
8, 24480, Note_on_c, 9, 36, 110
8, 24959, Note_on_c, 9, 35, 0
8, 24959, Note_on_c, 9, 36, 0
8, 25200, Note_on_c, 9, 36, 110
8, 25439, Note_on_c, 9, 36, 0
8, 25680, Note_on_c, 9, 36, 110
8, 25919, Note_on_c, 9, 36, 0
8, 26160, Note_on_c, 9, 36, 110
8, 26399, Note_on_c, 9, 36, 0
8, 26400, Note_on_c, 9, 35, 110
8, 26400, Note_on_c, 9, 36, 110
8, 26879, Note_on_c, 9, 35, 0
8, 26879, Note_on_c, 9, 36, 0
8, 27120, Note_on_c, 9, 36, 110
8, 27359, Note_on_c, 9, 36, 0
8, 27600, Note_on_c, 9, 36, 110
8, 27839, Note_on_c, 9, 36, 0
8, 28080, Note_on_c, 9, 36, 110
8, 28319, Note_on_c, 9, 36, 0
8, 28320, Note_on_c, 9, 35, 110
8, 28320, Note_on_c, 9, 36, 110
8, 28799, Note_on_c, 9, 35, 0
8, 28799, Note_on_c, 9, 36, 0
8, 29040, Note_on_c, 9, 36, 110
8, 29279, Note_on_c, 9, 36, 0
8, 29520, Note_on_c, 9, 36, 110
8, 29759, Note_on_c, 9, 36, 0
8, 30000, Note_on_c, 9, 36, 110
8, 30239, Note_on_c, 9, 36, 0
8, 30240, Note_on_c, 9, 35, 110
8, 30240, Note_on_c, 9, 36, 110
8, 30719, Note_on_c, 9, 35, 0
8, 30719, Note_on_c, 9, 36, 0
8, 30960, Note_on_c, 9, 36, 110
8, 31199, Note_on_c, 9, 36, 0
8, 31440, Note_on_c, 9, 36, 110
8, 31679, Note_on_c, 9, 36, 0
8, 31920, Note_on_c, 9, 36, 110
8, 32159, Note_on_c, 9, 36, 0
8, 32160, Note_on_c, 9, 35, 113
8, 32160, Note_on_c, 9, 36, 110
8, 32639, Note_on_c, 9, 35, 0
8, 32639, Note_on_c, 9, 36, 0
8, 32640, Note_on_c, 9, 36, 100
8, 33119, Note_on_c, 9, 36, 0
8, 33360, Note_on_c, 9, 36, 100
8, 33599, Note_on_c, 9, 36, 0
8, 34320, Note_on_c, 9, 36, 100
8, 34559, Note_on_c, 9, 36, 0
8, 34560, Note_on_c, 9, 36, 100
8, 35039, Note_on_c, 9, 36, 0
8, 35280, Note_on_c, 9, 36, 100
8, 35519, Note_on_c, 9, 36, 0
8, 35760, Note_on_c, 9, 36, 100
8, 35999, Note_on_c, 9, 36, 0
8, 36480, Note_on_c, 9, 36, 100
8, 36959, Note_on_c, 9, 36, 0
8, 37200, Note_on_c, 9, 36, 100
8, 37439, Note_on_c, 9, 36, 0
8, 38160, Note_on_c, 9, 36, 100
8, 38399, Note_on_c, 9, 36, 0
8, 38400, Note_on_c, 9, 36, 100
8, 38879, Note_on_c, 9, 36, 0
8, 39120, Note_on_c, 9, 36, 100
8, 39359, Note_on_c, 9, 36, 0
8, 39600, Note_on_c, 9, 36, 100
8, 39839, Note_on_c, 9, 36, 0
8, 40320, Note_on_c, 9, 36, 100
8, 40799, Note_on_c, 9, 36, 0
8, 41040, Note_on_c, 9, 36, 100
8, 41279, Note_on_c, 9, 36, 0
8, 41520, Note_on_c, 9, 36, 100
8, 41759, Note_on_c, 9, 36, 0
8, 42240, Note_on_c, 9, 36, 100
8, 42719, Note_on_c, 9, 36, 0
8, 42960, Note_on_c, 9, 36, 100
8, 43199, Note_on_c, 9, 36, 0
8, 43440, Note_on_c, 9, 36, 100
8, 43679, Note_on_c, 9, 36, 0
8, 43920, Note_on_c, 9, 36, 100
8, 44159, Note_on_c, 9, 36, 0
8, 44160, Note_on_c, 9, 36, 100
8, 44639, Note_on_c, 9, 36, 0
8, 44880, Note_on_c, 9, 36, 100
8, 45119, Note_on_c, 9, 36, 0
8, 45360, Note_on_c, 9, 36, 100
8, 45599, Note_on_c, 9, 36, 0
8, 45840, Note_on_c, 9, 36, 100
8, 46079, Note_on_c, 9, 36, 0
8, 46080, Note_on_c, 9, 36, 100
8, 46559, Note_on_c, 9, 36, 0
8, 47040, Note_on_c, 9, 35, 99
8, 47279, Note_on_c, 9, 35, 0
8, 47280, Note_on_c, 9, 35, 99
8, 47519, Note_on_c, 9, 35, 0
8, 47760, Note_on_c, 9, 35, 99
8, 47999, Note_on_c, 9, 35, 0
8, 48000, Note_on_c, 9, 35, 112
8, 48239, Note_on_c, 9, 35, 0
8, 48240, Note_on_c, 9, 35, 112
8, 48479, Note_on_c, 9, 35, 0
8, 48960, Note_on_c, 9, 35, 112
8, 49199, Note_on_c, 9, 35, 0
8, 49200, Note_on_c, 9, 35, 112
8, 49439, Note_on_c, 9, 35, 0
8, 49920, Note_on_c, 9, 35, 112
8, 50159, Note_on_c, 9, 35, 0
8, 50160, Note_on_c, 9, 35, 110
8, 50399, Note_on_c, 9, 35, 0
8, 50880, Note_on_c, 9, 35, 110
8, 51119, Note_on_c, 9, 35, 0
8, 51120, Note_on_c, 9, 35, 110
8, 51359, Note_on_c, 9, 35, 0
8, 51840, Note_on_c, 9, 35, 110
8, 52079, Note_on_c, 9, 35, 0
8, 52080, Note_on_c, 9, 35, 110
8, 52319, Note_on_c, 9, 35, 0
8, 52800, Note_on_c, 9, 35, 110
8, 53039, Note_on_c, 9, 35, 0
8, 53040, Note_on_c, 9, 35, 111
8, 53279, Note_on_c, 9, 35, 0
8, 53760, Note_on_c, 9, 35, 111
8, 53999, Note_on_c, 9, 35, 0
8, 54000, Note_on_c, 9, 35, 111
8, 54239, Note_on_c, 9, 35, 0
8, 54720, Note_on_c, 9, 35, 111
8, 54959, Note_on_c, 9, 35, 0
8, 54960, Note_on_c, 9, 35, 110
8, 55199, Note_on_c, 9, 35, 0
8, 55680, Note_on_c, 9, 35, 110
8, 55919, Note_on_c, 9, 35, 0
8, 55920, Note_on_c, 9, 35, 110
8, 56159, Note_on_c, 9, 35, 0
8, 56640, Note_on_c, 9, 35, 110
8, 56879, Note_on_c, 9, 35, 0
8, 56880, Note_on_c, 9, 35, 109
8, 57119, Note_on_c, 9, 35, 0
8, 57600, Note_on_c, 9, 35, 109
8, 57839, Note_on_c, 9, 35, 0
8, 57840, Note_on_c, 9, 35, 109
8, 58079, Note_on_c, 9, 35, 0
8, 58560, Note_on_c, 9, 35, 100
8, 58799, Note_on_c, 9, 35, 0
8, 58800, Note_on_c, 9, 35, 100
8, 59039, Note_on_c, 9, 35, 0
8, 59280, Note_on_c, 9, 35, 100
8, 59519, Note_on_c, 9, 35, 0
8, 59520, Note_on_c, 9, 35, 100
8, 59759, Note_on_c, 9, 35, 0
8, 59760, Note_on_c, 9, 36, 100
8, 59999, Note_on_c, 9, 36, 0
8, 60240, Note_on_c, 9, 36, 100
8, 60479, Note_on_c, 9, 36, 0
8, 60720, Note_on_c, 9, 35, 100
8, 60720, Note_on_c, 9, 36, 100
8, 60959, Note_on_c, 9, 35, 0
8, 60959, Note_on_c, 9, 36, 0
8, 60960, Note_on_c, 9, 36, 100
8, 61439, Note_on_c, 9, 36, 0
8, 61680, Note_on_c, 9, 36, 100
8, 61919, Note_on_c, 9, 36, 0
8, 62160, Note_on_c, 9, 36, 100
8, 62399, Note_on_c, 9, 36, 0
8, 62640, Note_on_c, 9, 36, 100
8, 62879, Note_on_c, 9, 36, 0
8, 62880, Note_on_c, 9, 35, 100
8, 62880, Note_on_c, 9, 36, 100
8, 63359, Note_on_c, 9, 35, 0
8, 63359, Note_on_c, 9, 36, 0
8, 63600, Note_on_c, 9, 36, 100
8, 63839, Note_on_c, 9, 36, 0
8, 64080, Note_on_c, 9, 36, 100
8, 64319, Note_on_c, 9, 36, 0
8, 64560, Note_on_c, 9, 36, 100
8, 64799, Note_on_c, 9, 36, 0
8, 64800, Note_on_c, 9, 35, 100
8, 64800, Note_on_c, 9, 36, 100
8, 65279, Note_on_c, 9, 35, 0
8, 65279, Note_on_c, 9, 36, 0
8, 65520, Note_on_c, 9, 36, 100
8, 65759, Note_on_c, 9, 36, 0
8, 66000, Note_on_c, 9, 36, 100
8, 66239, Note_on_c, 9, 36, 0
8, 66480, Note_on_c, 9, 36, 111
8, 66719, Note_on_c, 9, 36, 0
8, 66720, Note_on_c, 9, 35, 111
8, 66720, Note_on_c, 9, 36, 110
8, 66959, Note_on_c, 9, 35, 0
8, 66959, Note_on_c, 9, 36, 0
8, 66960, Note_on_c, 9, 35, 111
8, 67199, Note_on_c, 9, 35, 0
8, 67440, Note_on_c, 9, 36, 113
8, 67679, Note_on_c, 9, 36, 0
8, 67920, Note_on_c, 9, 36, 113
8, 68159, Note_on_c, 9, 36, 0
8, 68400, Note_on_c, 9, 35, 113
8, 68400, Note_on_c, 9, 36, 113
8, 68639, Note_on_c, 9, 35, 0
8, 68639, Note_on_c, 9, 36, 0
8, 68640, Note_on_c, 9, 36, 113
8, 69119, Note_on_c, 9, 36, 0
8, 69360, Note_on_c, 9, 36, 113
8, 69599, Note_on_c, 9, 36, 0
8, 69840, Note_on_c, 9, 36, 113
8, 70079, Note_on_c, 9, 36, 0
8, 70320, Note_on_c, 9, 36, 113
8, 70559, Note_on_c, 9, 36, 0
8, 70560, Note_on_c, 9, 35, 113
8, 70560, Note_on_c, 9, 36, 113
8, 71039, Note_on_c, 9, 35, 0
8, 71039, Note_on_c, 9, 36, 0
8, 71280, Note_on_c, 9, 36, 113
8, 71519, Note_on_c, 9, 36, 0
8, 71760, Note_on_c, 9, 36, 113
8, 71999, Note_on_c, 9, 36, 0
8, 72240, Note_on_c, 9, 36, 113
8, 72479, Note_on_c, 9, 36, 0
8, 72480, Note_on_c, 9, 35, 113
8, 72480, Note_on_c, 9, 36, 113
8, 72959, Note_on_c, 9, 35, 0
8, 72959, Note_on_c, 9, 36, 0
8, 73200, Note_on_c, 9, 36, 113
8, 73439, Note_on_c, 9, 36, 0
8, 73680, Note_on_c, 9, 36, 113
8, 73919, Note_on_c, 9, 36, 0
8, 74160, Note_on_c, 9, 36, 110
8, 74399, Note_on_c, 9, 36, 0
8, 74400, Note_on_c, 9, 35, 110
8, 74400, Note_on_c, 9, 36, 110
8, 74879, Note_on_c, 9, 35, 0
8, 74879, Note_on_c, 9, 36, 0
8, 75120, Note_on_c, 9, 36, 110
8, 75359, Note_on_c, 9, 36, 0
8, 75600, Note_on_c, 9, 36, 110
8, 75839, Note_on_c, 9, 36, 0
8, 76080, Note_on_c, 9, 36, 110
8, 76319, Note_on_c, 9, 36, 0
8, 76320, Note_on_c, 9, 35, 110
8, 76320, Note_on_c, 9, 36, 110
8, 76799, Note_on_c, 9, 35, 0
8, 76799, Note_on_c, 9, 36, 0
8, 77040, Note_on_c, 9, 36, 110
8, 77279, Note_on_c, 9, 36, 0
8, 77520, Note_on_c, 9, 36, 110
8, 77759, Note_on_c, 9, 36, 0
8, 78000, Note_on_c, 9, 36, 110
8, 78239, Note_on_c, 9, 36, 0
8, 78240, Note_on_c, 9, 35, 110
8, 78240, Note_on_c, 9, 36, 110
8, 78719, Note_on_c, 9, 35, 0
8, 78719, Note_on_c, 9, 36, 0
8, 78960, Note_on_c, 9, 36, 110
8, 79199, Note_on_c, 9, 36, 0
8, 79440, Note_on_c, 9, 36, 110
8, 79679, Note_on_c, 9, 36, 0
8, 79920, Note_on_c, 9, 36, 110
8, 80159, Note_on_c, 9, 36, 0
8, 80160, Note_on_c, 9, 35, 110
8, 80160, Note_on_c, 9, 36, 110
8, 80639, Note_on_c, 9, 35, 0
8, 80639, Note_on_c, 9, 36, 0
8, 80880, Note_on_c, 9, 36, 110
8, 81119, Note_on_c, 9, 36, 0
8, 81360, Note_on_c, 9, 36, 110
8, 81599, Note_on_c, 9, 36, 0
8, 81840, Note_on_c, 9, 36, 110
8, 82079, Note_on_c, 9, 36, 0
8, 82080, Note_on_c, 9, 35, 113
8, 82080, Note_on_c, 9, 36, 110
8, 82559, Note_on_c, 9, 35, 0
8, 82559, Note_on_c, 9, 36, 0
8, 82560, Note_on_c, 9, 36, 100
8, 83039, Note_on_c, 9, 36, 0
8, 83280, Note_on_c, 9, 36, 100
8, 83519, Note_on_c, 9, 36, 0
8, 84240, Note_on_c, 9, 36, 100
8, 84479, Note_on_c, 9, 36, 0
8, 84480, Note_on_c, 9, 36, 100
8, 84959, Note_on_c, 9, 36, 0
8, 85200, Note_on_c, 9, 36, 100
8, 85439, Note_on_c, 9, 36, 0
8, 85680, Note_on_c, 9, 36, 100
8, 85919, Note_on_c, 9, 36, 0
8, 86400, Note_on_c, 9, 36, 100
8, 86879, Note_on_c, 9, 36, 0
8, 87120, Note_on_c, 9, 36, 100
8, 87359, Note_on_c, 9, 36, 0
8, 88080, Note_on_c, 9, 36, 100
8, 88319, Note_on_c, 9, 36, 0
8, 88320, Note_on_c, 9, 36, 100
8, 88799, Note_on_c, 9, 36, 0
8, 89040, Note_on_c, 9, 36, 100
8, 89279, Note_on_c, 9, 36, 0
8, 89520, Note_on_c, 9, 36, 100
8, 89759, Note_on_c, 9, 36, 0
8, 90240, Note_on_c, 9, 36, 100
8, 90719, Note_on_c, 9, 36, 0
8, 90960, Note_on_c, 9, 36, 100
8, 91199, Note_on_c, 9, 36, 0
8, 91440, Note_on_c, 9, 36, 100
8, 91679, Note_on_c, 9, 36, 0
8, 92160, Note_on_c, 9, 36, 100
8, 92639, Note_on_c, 9, 36, 0
8, 92880, Note_on_c, 9, 36, 100
8, 93119, Note_on_c, 9, 36, 0
8, 93360, Note_on_c, 9, 36, 100
8, 93599, Note_on_c, 9, 36, 0
8, 93840, Note_on_c, 9, 36, 100
8, 94079, Note_on_c, 9, 36, 0
8, 94080, Note_on_c, 9, 36, 100
8, 94559, Note_on_c, 9, 36, 0
8, 94800, Note_on_c, 9, 36, 100
8, 95039, Note_on_c, 9, 36, 0
8, 95280, Note_on_c, 9, 36, 100
8, 95519, Note_on_c, 9, 36, 0
8, 95760, Note_on_c, 9, 36, 100
8, 95999, Note_on_c, 9, 36, 0
8, 96000, Note_on_c, 9, 36, 100
8, 96479, Note_on_c, 9, 36, 0
8, 96960, Note_on_c, 9, 35, 99
8, 97199, Note_on_c, 9, 35, 0
8, 97200, Note_on_c, 9, 35, 99
8, 97439, Note_on_c, 9, 35, 0
8, 97680, Note_on_c, 9, 35, 99
8, 97919, Note_on_c, 9, 35, 0
8, 97920, Note_on_c, 9, 35, 112
8, 98159, Note_on_c, 9, 35, 0
8, 98160, Note_on_c, 9, 35, 112
8, 98399, Note_on_c, 9, 35, 0
8, 98880, Note_on_c, 9, 35, 112
8, 99119, Note_on_c, 9, 35, 0
8, 99120, Note_on_c, 9, 35, 112
8, 99359, Note_on_c, 9, 35, 0
8, 99840, Note_on_c, 9, 35, 112
8, 100079, Note_on_c, 9, 35, 0
8, 100080, Note_on_c, 9, 35, 110
8, 100319, Note_on_c, 9, 35, 0
8, 100800, Note_on_c, 9, 35, 110
8, 101039, Note_on_c, 9, 35, 0
8, 101040, Note_on_c, 9, 35, 110
8, 101279, Note_on_c, 9, 35, 0
8, 101760, Note_on_c, 9, 35, 110
8, 101999, Note_on_c, 9, 35, 0
8, 102000, Note_on_c, 9, 35, 110
8, 102239, Note_on_c, 9, 35, 0
8, 102720, Note_on_c, 9, 35, 110
8, 102959, Note_on_c, 9, 35, 0
8, 102960, Note_on_c, 9, 35, 111
8, 103199, Note_on_c, 9, 35, 0
8, 103680, Note_on_c, 9, 35, 111
8, 103919, Note_on_c, 9, 35, 0
8, 103920, Note_on_c, 9, 35, 111
8, 104159, Note_on_c, 9, 35, 0
8, 104640, Note_on_c, 9, 35, 111
8, 104879, Note_on_c, 9, 35, 0
8, 104880, Note_on_c, 9, 35, 110
8, 105119, Note_on_c, 9, 35, 0
8, 105600, Note_on_c, 9, 35, 110
8, 105839, Note_on_c, 9, 35, 0
8, 105840, Note_on_c, 9, 35, 110
8, 106079, Note_on_c, 9, 35, 0
8, 106560, Note_on_c, 9, 35, 110
8, 106799, Note_on_c, 9, 35, 0
8, 106800, Note_on_c, 9, 35, 109
8, 107039, Note_on_c, 9, 35, 0
8, 107520, Note_on_c, 9, 35, 109
8, 107759, Note_on_c, 9, 35, 0
8, 107760, Note_on_c, 9, 35, 109
8, 107999, Note_on_c, 9, 35, 0
8, 108480, Note_on_c, 9, 35, 100
8, 108719, Note_on_c, 9, 35, 0
8, 108720, Note_on_c, 9, 35, 100
8, 108959, Note_on_c, 9, 35, 0
8, 109080, Note_on_c, 9, 35, 100
8, 109199, Note_on_c, 9, 35, 0
8, 109200, Note_on_c, 9, 35, 100
8, 109319, Note_on_c, 9, 35, 0
8, 109320, Note_on_c, 9, 35, 100
8, 109439, Note_on_c, 9, 35, 0
8, 109680, Note_on_c, 9, 36, 118
8, 109919, Note_on_c, 9, 36, 0
8, 110160, Note_on_c, 9, 36, 118
8, 110399, Note_on_c, 9, 36, 0
8, 110640, Note_on_c, 9, 36, 118
8, 110879, Note_on_c, 9, 36, 0
8, 110880, Note_on_c, 9, 36, 118
8, 111359, Note_on_c, 9, 36, 0
8, 113520, Note_on_c, 9, 35, 118
8, 113520, Note_on_c, 9, 36, 118
8, 113759, Note_on_c, 9, 35, 0
8, 113759, Note_on_c, 9, 36, 0
8, 114000, Note_on_c, 9, 35, 118
8, 114000, Note_on_c, 9, 36, 118
8, 114239, Note_on_c, 9, 35, 0
8, 114239, Note_on_c, 9, 36, 0
8, 114480, Note_on_c, 9, 35, 118
8, 114480, Note_on_c, 9, 36, 118
8, 114719, Note_on_c, 9, 35, 0
8, 114719, Note_on_c, 9, 36, 0
8, 114720, Note_on_c, 9, 35, 118
8, 114720, Note_on_c, 9, 36, 118
8, 115199, Note_on_c, 9, 35, 0
8, 115199, Note_on_c, 9, 36, 0
8, 117360, Note_on_c, 9, 35, 118
8, 117360, Note_on_c, 9, 36, 118
8, 117599, Note_on_c, 9, 35, 0
8, 117599, Note_on_c, 9, 36, 0
8, 117840, Note_on_c, 9, 35, 118
8, 117840, Note_on_c, 9, 36, 118
8, 118079, Note_on_c, 9, 35, 0
8, 118079, Note_on_c, 9, 36, 0
8, 118320, Note_on_c, 9, 35, 118
8, 118320, Note_on_c, 9, 36, 118
8, 118559, Note_on_c, 9, 35, 0
8, 118559, Note_on_c, 9, 36, 0
8, 118560, Note_on_c, 9, 35, 119
8, 118560, Note_on_c, 9, 36, 118
8, 119039, Note_on_c, 9, 35, 0
8, 119039, Note_on_c, 9, 36, 0
8, 121200, Note_on_c, 9, 35, 119
8, 121200, Note_on_c, 9, 36, 118
8, 121439, Note_on_c, 9, 35, 0
8, 121439, Note_on_c, 9, 36, 0
8, 121680, Note_on_c, 9, 35, 118
8, 121680, Note_on_c, 9, 36, 118
8, 121919, Note_on_c, 9, 35, 0
8, 121919, Note_on_c, 9, 36, 0
8, 122160, Note_on_c, 9, 35, 118
8, 122160, Note_on_c, 9, 36, 118
8, 122399, Note_on_c, 9, 35, 0
8, 122399, Note_on_c, 9, 36, 0
8, 122400, Note_on_c, 9, 35, 118
8, 122400, Note_on_c, 9, 36, 118
8, 122879, Note_on_c, 9, 35, 0
8, 122879, Note_on_c, 9, 36, 0
8, 124800, Note_on_c, 9, 36, 100
8, 125039, Note_on_c, 9, 36, 0
8, 125040, Note_on_c, 9, 36, 100
8, 125279, Note_on_c, 9, 36, 0
8, 125520, Note_on_c, 9, 36, 100
8, 125759, Note_on_c, 9, 36, 0
8, 126000, Note_on_c, 9, 36, 100
8, 126239, Note_on_c, 9, 36, 0
8, 126480, Note_on_c, 9, 36, 100
8, 126719, Note_on_c, 9, 36, 0
8, 126720, Note_on_c, 9, 36, 100
8, 126959, Note_on_c, 9, 36, 0
8, 126960, Note_on_c, 9, 36, 100
8, 127199, Note_on_c, 9, 36, 0
8, 127440, Note_on_c, 9, 36, 100
8, 127679, Note_on_c, 9, 36, 0
8, 127920, Note_on_c, 9, 36, 100
8, 128159, Note_on_c, 9, 36, 0
8, 128400, Note_on_c, 9, 36, 100
8, 128639, Note_on_c, 9, 36, 0
8, 128640, Note_on_c, 9, 36, 100
8, 128879, Note_on_c, 9, 36, 0
8, 128880, Note_on_c, 9, 36, 100
8, 129119, Note_on_c, 9, 36, 0
8, 129360, Note_on_c, 9, 36, 100
8, 129599, Note_on_c, 9, 36, 0
8, 129840, Note_on_c, 9, 36, 100
8, 130079, Note_on_c, 9, 36, 0
8, 130320, Note_on_c, 9, 36, 100
8, 130559, Note_on_c, 9, 36, 0
8, 130560, Note_on_c, 9, 36, 100
8, 130799, Note_on_c, 9, 36, 0
8, 130800, Note_on_c, 9, 36, 100
8, 131039, Note_on_c, 9, 36, 0
8, 131280, Note_on_c, 9, 36, 100
8, 131519, Note_on_c, 9, 36, 0
8, 131760, Note_on_c, 9, 36, 100
8, 131999, Note_on_c, 9, 36, 0
8, 132240, Note_on_c, 9, 36, 100
8, 132479, Note_on_c, 9, 36, 0
8, 132480, Note_on_c, 9, 36, 100
8, 132719, Note_on_c, 9, 36, 0
8, 132720, Note_on_c, 9, 36, 100
8, 132959, Note_on_c, 9, 36, 0
8, 133200, Note_on_c, 9, 36, 100
8, 133439, Note_on_c, 9, 36, 0
8, 133680, Note_on_c, 9, 36, 100
8, 133919, Note_on_c, 9, 36, 0
8, 134160, Note_on_c, 9, 36, 100
8, 134399, Note_on_c, 9, 36, 0
8, 134400, Note_on_c, 9, 36, 100
8, 134639, Note_on_c, 9, 36, 0
8, 134640, Note_on_c, 9, 36, 100
8, 134879, Note_on_c, 9, 36, 0
8, 135120, Note_on_c, 9, 36, 100
8, 135359, Note_on_c, 9, 36, 0
8, 135600, Note_on_c, 9, 36, 100
8, 135839, Note_on_c, 9, 36, 0
8, 136080, Note_on_c, 9, 36, 100
8, 136319, Note_on_c, 9, 36, 0
8, 136320, Note_on_c, 9, 36, 100
8, 136559, Note_on_c, 9, 36, 0
8, 136560, Note_on_c, 9, 36, 100
8, 136799, Note_on_c, 9, 36, 0
8, 137040, Note_on_c, 9, 36, 100
8, 137279, Note_on_c, 9, 36, 0
8, 137520, Note_on_c, 9, 36, 100
8, 137759, Note_on_c, 9, 36, 0
8, 138000, Note_on_c, 9, 36, 100
8, 138239, Note_on_c, 9, 36, 0
8, 138240, Note_on_c, 9, 36, 100
8, 138479, Note_on_c, 9, 36, 0
8, 138480, Note_on_c, 9, 36, 100
8, 138719, Note_on_c, 9, 36, 0
8, 138720, Note_on_c, 9, 36, 100
8, 139199, Note_on_c, 9, 36, 0
8, 139200, Note_on_c, 9, 36, 100
8, 139679, Note_on_c, 9, 36, 0
8, 139680, Note_on_c, 9, 36, 100
8, 140159, Note_on_c, 9, 36, 0
8, 140160, Note_on_c, 9, 36, 100
8, 140399, Note_on_c, 9, 36, 0
8, 140400, Note_on_c, 9, 36, 100
8, 140639, Note_on_c, 9, 36, 0
8, 140880, Note_on_c, 9, 36, 100
8, 141119, Note_on_c, 9, 36, 0
8, 141360, Note_on_c, 9, 36, 100
8, 141599, Note_on_c, 9, 36, 0
8, 141840, Note_on_c, 9, 36, 100
8, 142079, Note_on_c, 9, 36, 0
8, 142080, Note_on_c, 9, 36, 100
8, 142319, Note_on_c, 9, 36, 0
8, 142320, Note_on_c, 9, 36, 100
8, 142559, Note_on_c, 9, 36, 0
8, 142800, Note_on_c, 9, 36, 100
8, 143039, Note_on_c, 9, 36, 0
8, 143280, Note_on_c, 9, 36, 100
8, 143519, Note_on_c, 9, 36, 0
8, 143760, Note_on_c, 9, 36, 100
8, 143999, Note_on_c, 9, 36, 0
8, 144000, Note_on_c, 9, 36, 100
8, 144239, Note_on_c, 9, 36, 0
8, 144240, Note_on_c, 9, 36, 100
8, 144479, Note_on_c, 9, 36, 0
8, 144720, Note_on_c, 9, 36, 100
8, 144959, Note_on_c, 9, 36, 0
8, 145200, Note_on_c, 9, 36, 100
8, 145439, Note_on_c, 9, 36, 0
8, 145680, Note_on_c, 9, 36, 100
8, 145919, Note_on_c, 9, 36, 0
8, 145920, Note_on_c, 9, 36, 100
8, 146159, Note_on_c, 9, 36, 0
8, 146160, Note_on_c, 9, 36, 100
8, 146399, Note_on_c, 9, 36, 0
8, 146640, Note_on_c, 9, 36, 100
8, 146879, Note_on_c, 9, 36, 0
8, 147120, Note_on_c, 9, 36, 100
8, 147359, Note_on_c, 9, 36, 0
8, 147600, Note_on_c, 9, 36, 100
8, 147839, Note_on_c, 9, 36, 0
8, 147840, Note_on_c, 9, 36, 100
8, 148079, Note_on_c, 9, 36, 0
8, 148080, Note_on_c, 9, 36, 100
8, 148319, Note_on_c, 9, 36, 0
8, 148560, Note_on_c, 9, 36, 100
8, 148799, Note_on_c, 9, 36, 0
8, 149040, Note_on_c, 9, 36, 100
8, 149279, Note_on_c, 9, 36, 0
8, 149520, Note_on_c, 9, 36, 100
8, 149759, Note_on_c, 9, 36, 0
8, 149760, Note_on_c, 9, 36, 100
8, 149999, Note_on_c, 9, 36, 0
8, 150000, Note_on_c, 9, 36, 100
8, 150239, Note_on_c, 9, 36, 0
8, 150480, Note_on_c, 9, 36, 100
8, 150719, Note_on_c, 9, 36, 0
8, 150960, Note_on_c, 9, 36, 100
8, 151199, Note_on_c, 9, 36, 0
8, 151440, Note_on_c, 9, 36, 100
8, 151679, Note_on_c, 9, 36, 0
8, 151680, Note_on_c, 9, 36, 100
8, 151919, Note_on_c, 9, 36, 0
8, 151920, Note_on_c, 9, 36, 100
8, 152159, Note_on_c, 9, 36, 0
8, 152400, Note_on_c, 9, 36, 100
8, 152639, Note_on_c, 9, 36, 0
8, 152880, Note_on_c, 9, 36, 100
8, 153119, Note_on_c, 9, 36, 0
8, 153360, Note_on_c, 9, 36, 100
8, 153599, Note_on_c, 9, 36, 0
8, 153600, Note_on_c, 9, 36, 100
8, 153839, Note_on_c, 9, 36, 0
8, 153840, Note_on_c, 9, 36, 100
8, 154079, Note_on_c, 9, 36, 0
8, 154080, Note_on_c, 9, 36, 100
8, 154559, Note_on_c, 9, 36, 0
8, 154560, Note_on_c, 9, 36, 100
8, 155039, Note_on_c, 9, 36, 0
8, 155040, Note_on_c, 9, 36, 100
8, 155519, Note_on_c, 9, 36, 0
8, 155520, Note_on_c, 9, 36, 100
8, 155999, Note_on_c, 9, 36, 0
8, 156000, Note_on_c, 9, 36, 100
8, 156479, Note_on_c, 9, 36, 0
8, 156480, Note_on_c, 9, 36, 100
8, 156959, Note_on_c, 9, 36, 0
8, 157440, Note_on_c, 9, 36, 100
8, 157919, Note_on_c, 9, 36, 0
8, 157920, Note_on_c, 9, 36, 100
8, 158159, Note_on_c, 9, 36, 0
8, 158160, Note_on_c, 9, 36, 100
8, 158399, Note_on_c, 9, 36, 0
8, 158640, Note_on_c, 9, 36, 100
8, 158879, Note_on_c, 9, 36, 0
8, 159120, Note_on_c, 9, 36, 100
8, 159359, Note_on_c, 9, 36, 0
8, 159360, Note_on_c, 9, 36, 100
8, 159839, Note_on_c, 9, 36, 0
8, 171120, Note_on_c, 9, 35, 118
8, 171120, Note_on_c, 9, 36, 118
8, 171359, Note_on_c, 9, 35, 0
8, 171359, Note_on_c, 9, 36, 0
8, 171600, Note_on_c, 9, 35, 118
8, 171600, Note_on_c, 9, 36, 118
8, 171839, Note_on_c, 9, 35, 0
8, 171839, Note_on_c, 9, 36, 0
8, 172080, Note_on_c, 9, 35, 118
8, 172080, Note_on_c, 9, 36, 118
8, 172319, Note_on_c, 9, 35, 0
8, 172319, Note_on_c, 9, 36, 0
8, 172320, Note_on_c, 9, 35, 118
8, 172320, Note_on_c, 9, 36, 118
8, 172799, Note_on_c, 9, 35, 0
8, 172799, Note_on_c, 9, 36, 0
8, 174960, Note_on_c, 9, 35, 118
8, 174960, Note_on_c, 9, 36, 118
8, 175199, Note_on_c, 9, 35, 0
8, 175199, Note_on_c, 9, 36, 0
8, 175440, Note_on_c, 9, 35, 118
8, 175440, Note_on_c, 9, 36, 118
8, 175679, Note_on_c, 9, 35, 0
8, 175679, Note_on_c, 9, 36, 0
8, 175920, Note_on_c, 9, 35, 118
8, 175920, Note_on_c, 9, 36, 118
8, 176159, Note_on_c, 9, 35, 0
8, 176159, Note_on_c, 9, 36, 0
8, 176160, Note_on_c, 9, 35, 118
8, 176160, Note_on_c, 9, 36, 118
8, 176639, Note_on_c, 9, 35, 0
8, 176639, Note_on_c, 9, 36, 0
8, 178560, Note_on_c, 9, 36, 100
8, 178799, Note_on_c, 9, 36, 0
8, 178800, Note_on_c, 9, 36, 113
8, 179039, Note_on_c, 9, 36, 0
8, 179280, Note_on_c, 9, 36, 113
8, 179519, Note_on_c, 9, 36, 0
8, 179760, Note_on_c, 9, 35, 113
8, 179760, Note_on_c, 9, 36, 113
8, 179999, Note_on_c, 9, 35, 0
8, 179999, Note_on_c, 9, 36, 0
8, 180000, Note_on_c, 9, 36, 113
8, 180239, Note_on_c, 9, 36, 0
8, 180240, Note_on_c, 9, 36, 100
8, 180479, Note_on_c, 9, 36, 0
8, 180720, Note_on_c, 9, 36, 113
8, 180959, Note_on_c, 9, 36, 0
8, 181200, Note_on_c, 9, 36, 113
8, 181439, Note_on_c, 9, 36, 0
8, 181680, Note_on_c, 9, 36, 113
8, 181919, Note_on_c, 9, 36, 0
8, 181920, Note_on_c, 9, 35, 113
8, 181920, Note_on_c, 9, 36, 113
8, 182399, Note_on_c, 9, 35, 0
8, 182399, Note_on_c, 9, 36, 0
8, 182640, Note_on_c, 9, 36, 113
8, 182879, Note_on_c, 9, 36, 0
8, 183120, Note_on_c, 9, 36, 113
8, 183359, Note_on_c, 9, 36, 0
8, 183600, Note_on_c, 9, 36, 113
8, 183839, Note_on_c, 9, 36, 0
8, 183840, Note_on_c, 9, 35, 113
8, 183840, Note_on_c, 9, 36, 113
8, 184079, Note_on_c, 9, 35, 0
8, 184079, Note_on_c, 9, 36, 0
8, 184080, Note_on_c, 9, 36, 100
8, 184319, Note_on_c, 9, 36, 0
8, 184560, Note_on_c, 9, 36, 113
8, 184799, Note_on_c, 9, 36, 0
8, 185040, Note_on_c, 9, 36, 113
8, 185279, Note_on_c, 9, 36, 0
8, 185520, Note_on_c, 9, 36, 110
8, 185759, Note_on_c, 9, 36, 0
8, 185760, Note_on_c, 9, 35, 110
8, 185760, Note_on_c, 9, 36, 110
8, 186239, Note_on_c, 9, 35, 0
8, 186239, Note_on_c, 9, 36, 0
8, 186480, Note_on_c, 9, 36, 110
8, 186719, Note_on_c, 9, 36, 0
8, 186960, Note_on_c, 9, 36, 110
8, 187199, Note_on_c, 9, 36, 0
8, 187440, Note_on_c, 9, 36, 110
8, 187679, Note_on_c, 9, 36, 0
8, 187680, Note_on_c, 9, 35, 110
8, 187680, Note_on_c, 9, 36, 110
8, 187919, Note_on_c, 9, 35, 0
8, 187919, Note_on_c, 9, 36, 0
8, 187920, Note_on_c, 9, 36, 100
8, 188159, Note_on_c, 9, 36, 0
8, 188400, Note_on_c, 9, 36, 110
8, 188639, Note_on_c, 9, 36, 0
8, 188880, Note_on_c, 9, 36, 110
8, 189119, Note_on_c, 9, 36, 0
8, 189360, Note_on_c, 9, 36, 110
8, 189599, Note_on_c, 9, 36, 0
8, 189600, Note_on_c, 9, 35, 110
8, 189600, Note_on_c, 9, 36, 110
8, 190079, Note_on_c, 9, 35, 0
8, 190079, Note_on_c, 9, 36, 0
8, 190320, Note_on_c, 9, 36, 110
8, 190559, Note_on_c, 9, 36, 0
8, 190800, Note_on_c, 9, 36, 110
8, 191039, Note_on_c, 9, 36, 0
8, 191280, Note_on_c, 9, 36, 110
8, 191519, Note_on_c, 9, 36, 0
8, 191520, Note_on_c, 9, 35, 110
8, 191520, Note_on_c, 9, 36, 110
8, 191759, Note_on_c, 9, 35, 0
8, 191759, Note_on_c, 9, 36, 0
8, 191760, Note_on_c, 9, 36, 100
8, 191999, Note_on_c, 9, 36, 0
8, 192240, Note_on_c, 9, 36, 110
8, 192479, Note_on_c, 9, 36, 0
8, 192720, Note_on_c, 9, 36, 110
8, 192959, Note_on_c, 9, 36, 0
8, 193200, Note_on_c, 9, 36, 110
8, 193439, Note_on_c, 9, 36, 0
8, 193440, Note_on_c, 9, 35, 113
8, 193440, Note_on_c, 9, 36, 110
8, 193919, Note_on_c, 9, 35, 0
8, 193919, Note_on_c, 9, 36, 0
8, 193920, Note_on_c, 9, 36, 100
8, 194399, Note_on_c, 9, 36, 0
8, 194640, Note_on_c, 9, 36, 100
8, 194879, Note_on_c, 9, 36, 0
8, 195600, Note_on_c, 9, 36, 100
8, 195839, Note_on_c, 9, 36, 0
8, 195840, Note_on_c, 9, 36, 100
8, 196319, Note_on_c, 9, 36, 0
8, 196560, Note_on_c, 9, 36, 100
8, 196799, Note_on_c, 9, 36, 0
8, 197040, Note_on_c, 9, 36, 100
8, 197279, Note_on_c, 9, 36, 0
8, 197760, Note_on_c, 9, 36, 100
8, 198239, Note_on_c, 9, 36, 0
8, 198480, Note_on_c, 9, 36, 100
8, 198719, Note_on_c, 9, 36, 0
8, 199440, Note_on_c, 9, 36, 100
8, 199679, Note_on_c, 9, 36, 0
8, 199680, Note_on_c, 9, 36, 100
8, 200159, Note_on_c, 9, 36, 0
8, 200400, Note_on_c, 9, 36, 100
8, 200639, Note_on_c, 9, 36, 0
8, 200880, Note_on_c, 9, 36, 100
8, 201119, Note_on_c, 9, 36, 0
8, 201600, Note_on_c, 9, 36, 100
8, 202079, Note_on_c, 9, 36, 0
8, 202320, Note_on_c, 9, 36, 100
8, 202559, Note_on_c, 9, 36, 0
8, 202800, Note_on_c, 9, 36, 100
8, 203039, Note_on_c, 9, 36, 0
8, 203520, Note_on_c, 9, 36, 100
8, 203999, Note_on_c, 9, 36, 0
8, 204240, Note_on_c, 9, 36, 100
8, 204479, Note_on_c, 9, 36, 0
8, 204720, Note_on_c, 9, 36, 100
8, 204959, Note_on_c, 9, 36, 0
8, 205200, Note_on_c, 9, 36, 100
8, 205439, Note_on_c, 9, 36, 0
8, 205440, Note_on_c, 9, 36, 100
8, 205919, Note_on_c, 9, 36, 0
8, 206160, Note_on_c, 9, 36, 100
8, 206399, Note_on_c, 9, 36, 0
8, 206640, Note_on_c, 9, 36, 100
8, 206879, Note_on_c, 9, 36, 0
8, 207120, Note_on_c, 9, 36, 100
8, 207359, Note_on_c, 9, 36, 0
8, 207360, Note_on_c, 9, 36, 100
8, 207839, Note_on_c, 9, 36, 0
8, 208320, Note_on_c, 9, 35, 99
8, 208559, Note_on_c, 9, 35, 0
8, 208560, Note_on_c, 9, 35, 99
8, 208799, Note_on_c, 9, 35, 0
8, 209040, Note_on_c, 9, 35, 99
8, 209279, Note_on_c, 9, 35, 0
8, 209280, Note_on_c, 9, 35, 112
8, 209519, Note_on_c, 9, 35, 0
8, 209520, Note_on_c, 9, 35, 112
8, 209759, Note_on_c, 9, 35, 0
8, 210240, Note_on_c, 9, 35, 112
8, 210479, Note_on_c, 9, 35, 0
8, 210480, Note_on_c, 9, 35, 112
8, 210719, Note_on_c, 9, 35, 0
8, 211200, Note_on_c, 9, 35, 112
8, 211439, Note_on_c, 9, 35, 0
8, 211440, Note_on_c, 9, 35, 110
8, 211679, Note_on_c, 9, 35, 0
8, 212160, Note_on_c, 9, 35, 110
8, 212399, Note_on_c, 9, 35, 0
8, 212400, Note_on_c, 9, 35, 110
8, 212639, Note_on_c, 9, 35, 0
8, 213120, Note_on_c, 9, 35, 110
8, 213359, Note_on_c, 9, 35, 0
8, 213360, Note_on_c, 9, 35, 110
8, 213599, Note_on_c, 9, 35, 0
8, 214080, Note_on_c, 9, 35, 110
8, 214319, Note_on_c, 9, 35, 0
8, 214320, Note_on_c, 9, 35, 111
8, 214559, Note_on_c, 9, 35, 0
8, 215040, Note_on_c, 9, 35, 111
8, 215279, Note_on_c, 9, 35, 0
8, 215280, Note_on_c, 9, 35, 111
8, 215519, Note_on_c, 9, 35, 0
8, 216000, Note_on_c, 9, 35, 111
8, 216239, Note_on_c, 9, 35, 0
8, 216240, Note_on_c, 9, 35, 110
8, 216479, Note_on_c, 9, 35, 0
8, 216960, Note_on_c, 9, 35, 110
8, 217199, Note_on_c, 9, 35, 0
8, 217200, Note_on_c, 9, 35, 110
8, 217439, Note_on_c, 9, 35, 0
8, 217920, Note_on_c, 9, 35, 110
8, 218159, Note_on_c, 9, 35, 0
8, 218160, Note_on_c, 9, 35, 109
8, 218399, Note_on_c, 9, 35, 0
8, 218880, Note_on_c, 9, 35, 109
8, 219119, Note_on_c, 9, 35, 0
8, 219120, Note_on_c, 9, 35, 109
8, 219359, Note_on_c, 9, 35, 0
8, 219840, Note_on_c, 9, 35, 100
8, 220079, Note_on_c, 9, 35, 0
8, 220080, Note_on_c, 9, 35, 100
8, 220319, Note_on_c, 9, 35, 0
8, 220560, Note_on_c, 9, 35, 100
8, 220799, Note_on_c, 9, 35, 0
8, 220800, Note_on_c, 9, 35, 100
8, 221039, Note_on_c, 9, 35, 0
8, 221040, Note_on_c, 9, 35, 100
8, 221279, Note_on_c, 9, 35, 0
8, 221520, Note_on_c, 9, 35, 100
8, 221759, Note_on_c, 9, 35, 0
8, 222240, Note_on_c, 9, 35, 100
8, 222719, Note_on_c, 9, 35, 0
8, 222720, Note_on_c, 9, 35, 100
8, 222959, Note_on_c, 9, 35, 0
8, 222960, Note_on_c, 9, 35, 100
8, 223199, Note_on_c, 9, 35, 0
8, 223440, Note_on_c, 9, 35, 100
8, 223679, Note_on_c, 9, 35, 0
8, 224160, Note_on_c, 9, 35, 100
8, 224639, Note_on_c, 9, 35, 0
8, 224640, Note_on_c, 9, 35, 112
8, 224879, Note_on_c, 9, 35, 0
8, 224880, Note_on_c, 9, 35, 112
8, 225119, Note_on_c, 9, 35, 0
8, 225600, Note_on_c, 9, 35, 112
8, 225839, Note_on_c, 9, 35, 0
8, 225840, Note_on_c, 9, 35, 112
8, 226079, Note_on_c, 9, 35, 0
8, 226560, Note_on_c, 9, 35, 112
8, 226799, Note_on_c, 9, 35, 0
8, 226800, Note_on_c, 9, 35, 110
8, 227039, Note_on_c, 9, 35, 0
8, 227520, Note_on_c, 9, 35, 110
8, 227759, Note_on_c, 9, 35, 0
8, 227760, Note_on_c, 9, 35, 110
8, 227999, Note_on_c, 9, 35, 0
8, 228480, Note_on_c, 9, 35, 110
8, 228719, Note_on_c, 9, 35, 0
8, 228720, Note_on_c, 9, 35, 110
8, 228959, Note_on_c, 9, 35, 0
8, 229440, Note_on_c, 9, 35, 110
8, 229679, Note_on_c, 9, 35, 0
8, 229680, Note_on_c, 9, 35, 111
8, 229919, Note_on_c, 9, 35, 0
8, 230400, Note_on_c, 9, 35, 111
8, 230639, Note_on_c, 9, 35, 0
8, 230640, Note_on_c, 9, 35, 111
8, 230879, Note_on_c, 9, 35, 0
8, 231360, Note_on_c, 9, 35, 111
8, 231599, Note_on_c, 9, 35, 0
8, 231600, Note_on_c, 9, 35, 110
8, 231839, Note_on_c, 9, 35, 0
8, 232320, Note_on_c, 9, 35, 110
8, 232559, Note_on_c, 9, 35, 0
8, 232560, Note_on_c, 9, 35, 110
8, 232799, Note_on_c, 9, 35, 0
8, 233280, Note_on_c, 9, 35, 110
8, 233519, Note_on_c, 9, 35, 0
8, 233520, Note_on_c, 9, 35, 109
8, 233759, Note_on_c, 9, 35, 0
8, 236400, Note_on_c, 9, 35, 118
8, 236400, Note_on_c, 9, 36, 118
8, 236639, Note_on_c, 9, 35, 0
8, 236639, Note_on_c, 9, 36, 0
8, 236880, Note_on_c, 9, 35, 118
8, 236880, Note_on_c, 9, 36, 118
8, 237119, Note_on_c, 9, 35, 0
8, 237119, Note_on_c, 9, 36, 0
8, 237360, Note_on_c, 9, 35, 118
8, 237360, Note_on_c, 9, 36, 118
8, 237599, Note_on_c, 9, 35, 0
8, 237599, Note_on_c, 9, 36, 0
8, 237600, Note_on_c, 9, 35, 118
8, 237600, Note_on_c, 9, 36, 118
8, 238079, Note_on_c, 9, 35, 0
8, 238079, Note_on_c, 9, 36, 0
8, 238320, Note_on_c, 9, 35, 100
8, 238320, Note_on_c, 9, 36, 100
8, 238559, Note_on_c, 9, 35, 0
8, 238559, Note_on_c, 9, 36, 0
8, 238800, Note_on_c, 9, 35, 100
8, 238800, Note_on_c, 9, 36, 100
8, 239039, Note_on_c, 9, 35, 0
8, 239039, Note_on_c, 9, 36, 0
8, 239280, Note_on_c, 9, 35, 100
8, 239280, Note_on_c, 9, 36, 100
8, 239519, Note_on_c, 9, 35, 0
8, 239519, Note_on_c, 9, 36, 0
8, 239520, Note_on_c, 9, 35, 100
8, 239520, Note_on_c, 9, 36, 100
8, 239999, Note_on_c, 9, 35, 0
8, 239999, Note_on_c, 9, 36, 0
8, 240240, Note_on_c, 9, 35, 119
8, 240240, Note_on_c, 9, 36, 119
8, 240479, Note_on_c, 9, 35, 0
8, 240479, Note_on_c, 9, 36, 0
8, 240720, Note_on_c, 9, 35, 118
8, 240720, Note_on_c, 9, 36, 118
8, 240959, Note_on_c, 9, 35, 0
8, 240959, Note_on_c, 9, 36, 0
8, 241200, Note_on_c, 9, 35, 118
8, 241200, Note_on_c, 9, 36, 118
8, 241439, Note_on_c, 9, 35, 0
8, 241439, Note_on_c, 9, 36, 0
8, 241440, Note_on_c, 9, 35, 118
8, 241440, Note_on_c, 9, 36, 118
8, 241919, Note_on_c, 9, 35, 0
8, 241919, Note_on_c, 9, 36, 0
8, 242160, Note_on_c, 9, 35, 100
8, 242160, Note_on_c, 9, 36, 100
8, 242399, Note_on_c, 9, 35, 0
8, 242399, Note_on_c, 9, 36, 0
8, 242640, Note_on_c, 9, 35, 100
8, 242640, Note_on_c, 9, 36, 100
8, 242879, Note_on_c, 9, 35, 0
8, 242879, Note_on_c, 9, 36, 0
8, 243120, Note_on_c, 9, 35, 100
8, 243120, Note_on_c, 9, 36, 100
8, 243359, Note_on_c, 9, 35, 0
8, 243359, Note_on_c, 9, 36, 0
8, 243360, Note_on_c, 9, 35, 100
8, 243360, Note_on_c, 9, 36, 100
8, 243839, Note_on_c, 9, 35, 0
8, 243839, Note_on_c, 9, 36, 0
8, 244080, Note_on_c, 9, 35, 118
8, 244080, Note_on_c, 9, 36, 118
8, 244319, Note_on_c, 9, 35, 0
8, 244319, Note_on_c, 9, 36, 0
8, 244560, Note_on_c, 9, 35, 118
8, 244560, Note_on_c, 9, 36, 118
8, 244799, Note_on_c, 9, 35, 0
8, 244799, Note_on_c, 9, 36, 0
8, 245040, Note_on_c, 9, 35, 118
8, 245040, Note_on_c, 9, 36, 118
8, 245279, Note_on_c, 9, 35, 0
8, 245279, Note_on_c, 9, 36, 0
8, 245280, Note_on_c, 9, 35, 118
8, 245280, Note_on_c, 9, 36, 118
8, 245759, Note_on_c, 9, 35, 0
8, 245759, Note_on_c, 9, 36, 0
8, 246000, Note_on_c, 9, 35, 100
8, 246000, Note_on_c, 9, 36, 100
8, 246239, Note_on_c, 9, 35, 0
8, 246239, Note_on_c, 9, 36, 0
8, 246480, Note_on_c, 9, 35, 100
8, 246480, Note_on_c, 9, 36, 100
8, 246719, Note_on_c, 9, 35, 0
8, 246719, Note_on_c, 9, 36, 0
8, 246960, Note_on_c, 9, 35, 100
8, 246960, Note_on_c, 9, 36, 100
8, 247199, Note_on_c, 9, 35, 0
8, 247199, Note_on_c, 9, 36, 0
8, 247200, Note_on_c, 9, 35, 100
8, 247200, Note_on_c, 9, 36, 100
8, 247679, Note_on_c, 9, 35, 0
8, 247679, Note_on_c, 9, 36, 0
8, 247920, Note_on_c, 9, 35, 118
8, 247920, Note_on_c, 9, 36, 118
8, 248159, Note_on_c, 9, 35, 0
8, 248159, Note_on_c, 9, 36, 0
8, 248400, Note_on_c, 9, 35, 118
8, 248400, Note_on_c, 9, 36, 118
8, 248639, Note_on_c, 9, 35, 0
8, 248639, Note_on_c, 9, 36, 0
8, 248880, Note_on_c, 9, 35, 118
8, 248880, Note_on_c, 9, 36, 118
8, 249119, Note_on_c, 9, 35, 0
8, 249119, Note_on_c, 9, 36, 0
8, 249120, Note_on_c, 9, 35, 118
8, 249120, Note_on_c, 9, 36, 119
8, 249599, Note_on_c, 9, 35, 0
8, 249599, Note_on_c, 9, 36, 0
8, 249840, Note_on_c, 9, 35, 118
8, 249840, Note_on_c, 9, 36, 118
8, 250079, Note_on_c, 9, 35, 0
8, 250079, Note_on_c, 9, 36, 0
8, 250320, Note_on_c, 9, 35, 118
8, 250320, Note_on_c, 9, 36, 118
8, 250559, Note_on_c, 9, 35, 0
8, 250559, Note_on_c, 9, 36, 0
8, 250560, Note_on_c, 9, 35, 118
8, 250560, Note_on_c, 9, 36, 118
8, 251039, Note_on_c, 9, 35, 0
8, 251039, Note_on_c, 9, 36, 0
8, 251040, End_track
9, 0, Start_track
9, 0, Key_signature, 0, "major"
9, 0, Control_c, 9, 121, 0
9, 0, Program_c, 9, 0
9, 0, Control_c, 9, 7, 127
9, 0, Control_c, 9, 10, 64
9, 0, Control_c, 9, 91, 0
9, 0, Control_c, 9, 93, 0
9, 0, MIDI_port, 0
9, 8880, Note_on_c, 9, 38, 111
9, 8999, Note_on_c, 9, 38, 0
9, 9000, Note_on_c, 9, 38, 111
9, 9119, Note_on_c, 9, 38, 0
9, 9120, Note_on_c, 9, 38, 111
9, 9599, Note_on_c, 9, 38, 0
9, 33120, Note_on_c, 9, 38, 100
9, 33599, Note_on_c, 9, 38, 0
9, 34320, Note_on_c, 9, 38, 100
9, 34559, Note_on_c, 9, 38, 0
9, 35040, Note_on_c, 9, 38, 100
9, 35519, Note_on_c, 9, 38, 0
9, 36240, Note_on_c, 9, 38, 100
9, 36479, Note_on_c, 9, 38, 0
9, 36960, Note_on_c, 9, 38, 100
9, 37439, Note_on_c, 9, 38, 0
9, 38160, Note_on_c, 9, 38, 100
9, 38399, Note_on_c, 9, 38, 0
9, 38880, Note_on_c, 9, 38, 100
9, 39359, Note_on_c, 9, 38, 0
9, 40080, Note_on_c, 9, 38, 100
9, 40319, Note_on_c, 9, 38, 0
9, 40800, Note_on_c, 9, 38, 100
9, 41279, Note_on_c, 9, 38, 0
9, 42000, Note_on_c, 9, 38, 100
9, 42239, Note_on_c, 9, 38, 0
9, 42720, Note_on_c, 9, 38, 100
9, 43199, Note_on_c, 9, 38, 0
9, 43920, Note_on_c, 9, 38, 100
9, 44159, Note_on_c, 9, 38, 0
9, 44640, Note_on_c, 9, 38, 100
9, 45119, Note_on_c, 9, 38, 0
9, 45840, Note_on_c, 9, 38, 100
9, 46079, Note_on_c, 9, 38, 0
9, 46560, Note_on_c, 9, 38, 61
9, 47039, Note_on_c, 9, 38, 0
9, 47040, Note_on_c, 9, 38, 68
9, 47279, Note_on_c, 9, 38, 0
9, 47280, Note_on_c, 9, 38, 71
9, 47519, Note_on_c, 9, 38, 0
9, 47520, Note_on_c, 9, 38, 77
9, 47759, Note_on_c, 9, 38, 0
9, 47760, Note_on_c, 9, 38, 90
9, 47999, Note_on_c, 9, 38, 0
9, 48480, Note_on_c, 9, 38, 100
9, 48959, Note_on_c, 9, 38, 0
9, 49440, Note_on_c, 9, 38, 100
9, 49919, Note_on_c, 9, 38, 0
9, 50400, Note_on_c, 9, 38, 100
9, 50879, Note_on_c, 9, 38, 0
9, 51360, Note_on_c, 9, 38, 100
9, 51839, Note_on_c, 9, 38, 0
9, 52320, Note_on_c, 9, 38, 100
9, 52799, Note_on_c, 9, 38, 0
9, 53280, Note_on_c, 9, 38, 100
9, 53759, Note_on_c, 9, 38, 0
9, 54240, Note_on_c, 9, 38, 100
9, 54719, Note_on_c, 9, 38, 0
9, 55200, Note_on_c, 9, 38, 100
9, 55679, Note_on_c, 9, 38, 0
9, 56160, Note_on_c, 9, 38, 100
9, 56639, Note_on_c, 9, 38, 0
9, 57120, Note_on_c, 9, 38, 100
9, 57599, Note_on_c, 9, 38, 0
9, 58080, Note_on_c, 9, 38, 100
9, 58559, Note_on_c, 9, 38, 0
9, 59040, Note_on_c, 9, 38, 100
9, 59519, Note_on_c, 9, 38, 0
9, 66240, Note_on_c, 9, 38, 100
9, 66359, Note_on_c, 9, 38, 0
9, 66360, Note_on_c, 9, 38, 100
9, 66479, Note_on_c, 9, 38, 0
9, 66480, Note_on_c, 9, 38, 100
9, 66719, Note_on_c, 9, 38, 0
9, 83040, Note_on_c, 9, 38, 100
9, 83519, Note_on_c, 9, 38, 0
9, 84240, Note_on_c, 9, 38, 100
9, 84479, Note_on_c, 9, 38, 0
9, 84960, Note_on_c, 9, 38, 100
9, 85439, Note_on_c, 9, 38, 0
9, 86160, Note_on_c, 9, 38, 100
9, 86399, Note_on_c, 9, 38, 0
9, 86880, Note_on_c, 9, 38, 100
9, 87359, Note_on_c, 9, 38, 0
9, 88080, Note_on_c, 9, 38, 100
9, 88319, Note_on_c, 9, 38, 0
9, 88800, Note_on_c, 9, 38, 100
9, 89279, Note_on_c, 9, 38, 0
9, 90000, Note_on_c, 9, 38, 100
9, 90239, Note_on_c, 9, 38, 0
9, 90720, Note_on_c, 9, 38, 100
9, 91199, Note_on_c, 9, 38, 0
9, 91920, Note_on_c, 9, 38, 100
9, 92159, Note_on_c, 9, 38, 0
9, 92640, Note_on_c, 9, 38, 100
9, 93119, Note_on_c, 9, 38, 0
9, 93840, Note_on_c, 9, 38, 100
9, 94079, Note_on_c, 9, 38, 0
9, 94560, Note_on_c, 9, 38, 100
9, 95039, Note_on_c, 9, 38, 0
9, 95760, Note_on_c, 9, 38, 100
9, 95999, Note_on_c, 9, 38, 0
9, 96480, Note_on_c, 9, 38, 61
9, 96959, Note_on_c, 9, 38, 0
9, 96960, Note_on_c, 9, 38, 68
9, 97199, Note_on_c, 9, 38, 0
9, 97200, Note_on_c, 9, 38, 71
9, 97439, Note_on_c, 9, 38, 0
9, 97440, Note_on_c, 9, 38, 77
9, 97679, Note_on_c, 9, 38, 0
9, 97680, Note_on_c, 9, 38, 90
9, 97919, Note_on_c, 9, 38, 0
9, 98400, Note_on_c, 9, 38, 100
9, 98879, Note_on_c, 9, 38, 0
9, 99360, Note_on_c, 9, 38, 100
9, 99839, Note_on_c, 9, 38, 0
9, 100320, Note_on_c, 9, 38, 100
9, 100799, Note_on_c, 9, 38, 0
9, 101280, Note_on_c, 9, 38, 100
9, 101759, Note_on_c, 9, 38, 0
9, 102240, Note_on_c, 9, 38, 100
9, 102719, Note_on_c, 9, 38, 0
9, 103200, Note_on_c, 9, 38, 100
9, 103679, Note_on_c, 9, 38, 0
9, 104160, Note_on_c, 9, 38, 100
9, 104639, Note_on_c, 9, 38, 0
9, 105120, Note_on_c, 9, 38, 100
9, 105599, Note_on_c, 9, 38, 0
9, 106080, Note_on_c, 9, 38, 100
9, 106559, Note_on_c, 9, 38, 0
9, 107040, Note_on_c, 9, 38, 100
9, 107519, Note_on_c, 9, 38, 0
9, 108000, Note_on_c, 9, 38, 100
9, 108479, Note_on_c, 9, 38, 0
9, 108960, Note_on_c, 9, 38, 100
9, 109439, Note_on_c, 9, 38, 0
9, 109440, Note_on_c, 9, 38, 119
9, 109499, Note_on_c, 9, 38, 0
9, 109500, Note_on_c, 9, 38, 120
9, 109679, Note_on_c, 9, 38, 0
9, 123840, Note_on_c, 9, 38, 100
9, 123899, Note_on_c, 9, 38, 0
9, 123900, Note_on_c, 9, 38, 100
9, 124079, Note_on_c, 9, 38, 0
9, 124080, Note_on_c, 9, 38, 100
9, 124319, Note_on_c, 9, 38, 0
9, 125280, Note_on_c, 9, 38, 100
9, 125759, Note_on_c, 9, 38, 0
9, 126240, Note_on_c, 9, 38, 100
9, 126719, Note_on_c, 9, 38, 0
9, 127200, Note_on_c, 9, 38, 100
9, 127559, Note_on_c, 9, 38, 0
9, 127560, Note_on_c, 9, 38, 67
9, 127679, Note_on_c, 9, 38, 0
9, 127800, Note_on_c, 9, 38, 67
9, 128159, Note_on_c, 9, 38, 0
9, 128160, Note_on_c, 9, 38, 100
9, 128639, Note_on_c, 9, 38, 0
9, 129120, Note_on_c, 9, 38, 100
9, 129479, Note_on_c, 9, 38, 0
9, 129480, Note_on_c, 9, 38, 66
9, 129599, Note_on_c, 9, 38, 0
9, 129720, Note_on_c, 9, 38, 64
9, 130079, Note_on_c, 9, 38, 0
9, 130080, Note_on_c, 9, 38, 100
9, 130559, Note_on_c, 9, 38, 0
9, 130920, Note_on_c, 9, 38, 62
9, 131039, Note_on_c, 9, 38, 0
9, 131040, Note_on_c, 9, 38, 100
9, 131159, Note_on_c, 9, 38, 0
9, 131160, Note_on_c, 9, 38, 78
9, 131519, Note_on_c, 9, 38, 0
9, 132000, Note_on_c, 9, 38, 100
9, 132359, Note_on_c, 9, 38, 0
9, 132360, Note_on_c, 9, 38, 64
9, 132479, Note_on_c, 9, 38, 0
9, 132600, Note_on_c, 9, 38, 64
9, 132959, Note_on_c, 9, 38, 0
9, 132960, Note_on_c, 9, 38, 100
9, 133439, Note_on_c, 9, 38, 0
9, 133800, Note_on_c, 9, 38, 63
9, 133919, Note_on_c, 9, 38, 0
9, 133920, Note_on_c, 9, 38, 100
9, 134039, Note_on_c, 9, 38, 0
9, 134040, Note_on_c, 9, 38, 76
9, 134399, Note_on_c, 9, 38, 0
9, 134880, Note_on_c, 9, 38, 100
9, 135239, Note_on_c, 9, 38, 0
9, 135240, Note_on_c, 9, 38, 64
9, 135359, Note_on_c, 9, 38, 0
9, 135480, Note_on_c, 9, 38, 64
9, 135839, Note_on_c, 9, 38, 0
9, 135840, Note_on_c, 9, 38, 100
9, 136319, Note_on_c, 9, 38, 0
9, 136800, Note_on_c, 9, 38, 100
9, 137159, Note_on_c, 9, 38, 0
9, 137160, Note_on_c, 9, 38, 64
9, 137279, Note_on_c, 9, 38, 0
9, 137400, Note_on_c, 9, 38, 64
9, 137759, Note_on_c, 9, 38, 0
9, 137760, Note_on_c, 9, 38, 100
9, 138239, Note_on_c, 9, 38, 0
9, 138720, Note_on_c, 9, 38, 100
9, 138839, Note_on_c, 9, 38, 0
9, 138840, Note_on_c, 9, 38, 100
9, 139199, Note_on_c, 9, 38, 0
9, 140640, Note_on_c, 9, 38, 100
9, 140999, Note_on_c, 9, 38, 0
9, 141000, Note_on_c, 9, 38, 64
9, 141119, Note_on_c, 9, 38, 0
9, 141240, Note_on_c, 9, 38, 64
9, 141599, Note_on_c, 9, 38, 0
9, 141600, Note_on_c, 9, 38, 100
9, 142079, Note_on_c, 9, 38, 0
9, 142440, Note_on_c, 9, 38, 64
9, 142559, Note_on_c, 9, 38, 0
9, 142560, Note_on_c, 9, 38, 100
9, 142679, Note_on_c, 9, 38, 0
9, 142680, Note_on_c, 9, 38, 72
9, 143039, Note_on_c, 9, 38, 0
9, 143520, Note_on_c, 9, 38, 100
9, 143999, Note_on_c, 9, 38, 0
9, 144480, Note_on_c, 9, 38, 100
9, 144839, Note_on_c, 9, 38, 0
9, 144840, Note_on_c, 9, 38, 64
9, 144959, Note_on_c, 9, 38, 0
9, 145080, Note_on_c, 9, 38, 64
9, 145439, Note_on_c, 9, 38, 0
9, 145440, Note_on_c, 9, 38, 100
9, 145919, Note_on_c, 9, 38, 0
9, 146400, Note_on_c, 9, 38, 100
9, 146759, Note_on_c, 9, 38, 0
9, 146760, Note_on_c, 9, 38, 64
9, 146879, Note_on_c, 9, 38, 0
9, 147000, Note_on_c, 9, 38, 64
9, 147359, Note_on_c, 9, 38, 0
9, 147360, Note_on_c, 9, 38, 100
9, 147839, Note_on_c, 9, 38, 0
9, 148320, Note_on_c, 9, 38, 100
9, 148799, Note_on_c, 9, 38, 0
9, 149160, Note_on_c, 9, 38, 64
9, 149279, Note_on_c, 9, 38, 0
9, 149280, Note_on_c, 9, 38, 100
9, 149399, Note_on_c, 9, 38, 0
9, 149400, Note_on_c, 9, 38, 64
9, 149759, Note_on_c, 9, 38, 0
9, 150240, Note_on_c, 9, 38, 100
9, 150599, Note_on_c, 9, 38, 0
9, 150600, Note_on_c, 9, 38, 64
9, 150719, Note_on_c, 9, 38, 0
9, 150840, Note_on_c, 9, 38, 64
9, 151199, Note_on_c, 9, 38, 0
9, 151200, Note_on_c, 9, 38, 100
9, 151679, Note_on_c, 9, 38, 0
9, 152040, Note_on_c, 9, 38, 64
9, 152159, Note_on_c, 9, 38, 0
9, 152160, Note_on_c, 9, 38, 100
9, 152279, Note_on_c, 9, 38, 0
9, 152280, Note_on_c, 9, 38, 71
9, 152639, Note_on_c, 9, 38, 0
9, 153120, Note_on_c, 9, 38, 100
9, 153599, Note_on_c, 9, 38, 0
9, 154080, Note_on_c, 9, 38, 100
9, 154199, Note_on_c, 9, 38, 0
9, 154200, Note_on_c, 9, 38, 100
9, 154559, Note_on_c, 9, 38, 0
9, 155880, Note_on_c, 9, 38, 100
9, 155999, Note_on_c, 9, 38, 0
9, 156000, Note_on_c, 9, 38, 100
9, 156479, Note_on_c, 9, 38, 0
9, 170880, Note_on_c, 9, 38, 119
9, 170939, Note_on_c, 9, 38, 0
9, 170940, Note_on_c, 9, 38, 120
9, 171119, Note_on_c, 9, 38, 0
9, 177600, Note_on_c, 9, 38, 100
9, 177659, Note_on_c, 9, 38, 0
9, 177660, Note_on_c, 9, 38, 100
9, 177839, Note_on_c, 9, 38, 0
9, 194400, Note_on_c, 9, 38, 100
9, 194879, Note_on_c, 9, 38, 0
9, 195600, Note_on_c, 9, 38, 100
9, 195839, Note_on_c, 9, 38, 0
9, 196320, Note_on_c, 9, 38, 100
9, 196799, Note_on_c, 9, 38, 0
9, 197520, Note_on_c, 9, 38, 100
9, 197759, Note_on_c, 9, 38, 0
9, 198240, Note_on_c, 9, 38, 100
9, 198719, Note_on_c, 9, 38, 0
9, 199440, Note_on_c, 9, 38, 100
9, 199679, Note_on_c, 9, 38, 0
9, 200160, Note_on_c, 9, 38, 100
9, 200639, Note_on_c, 9, 38, 0
9, 201360, Note_on_c, 9, 38, 100
9, 201599, Note_on_c, 9, 38, 0
9, 202080, Note_on_c, 9, 38, 100
9, 202559, Note_on_c, 9, 38, 0
9, 203280, Note_on_c, 9, 38, 100
9, 203519, Note_on_c, 9, 38, 0
9, 204000, Note_on_c, 9, 38, 100
9, 204479, Note_on_c, 9, 38, 0
9, 205200, Note_on_c, 9, 38, 100
9, 205439, Note_on_c, 9, 38, 0
9, 205920, Note_on_c, 9, 38, 100
9, 206399, Note_on_c, 9, 38, 0
9, 207120, Note_on_c, 9, 38, 100
9, 207359, Note_on_c, 9, 38, 0
9, 207840, Note_on_c, 9, 38, 61
9, 208319, Note_on_c, 9, 38, 0
9, 208320, Note_on_c, 9, 38, 68
9, 208559, Note_on_c, 9, 38, 0
9, 208560, Note_on_c, 9, 38, 71
9, 208799, Note_on_c, 9, 38, 0
9, 208800, Note_on_c, 9, 38, 77
9, 209039, Note_on_c, 9, 38, 0
9, 209040, Note_on_c, 9, 38, 90
9, 209279, Note_on_c, 9, 38, 0
9, 209760, Note_on_c, 9, 38, 100
9, 210239, Note_on_c, 9, 38, 0
9, 210720, Note_on_c, 9, 38, 100
9, 211199, Note_on_c, 9, 38, 0
9, 211680, Note_on_c, 9, 38, 100
9, 212159, Note_on_c, 9, 38, 0
9, 212640, Note_on_c, 9, 38, 100
9, 213119, Note_on_c, 9, 38, 0
9, 213600, Note_on_c, 9, 38, 100
9, 214079, Note_on_c, 9, 38, 0
9, 214560, Note_on_c, 9, 38, 100
9, 215039, Note_on_c, 9, 38, 0
9, 215520, Note_on_c, 9, 38, 100
9, 215999, Note_on_c, 9, 38, 0
9, 216480, Note_on_c, 9, 38, 100
9, 216959, Note_on_c, 9, 38, 0
9, 217440, Note_on_c, 9, 38, 100
9, 217919, Note_on_c, 9, 38, 0
9, 218400, Note_on_c, 9, 38, 100
9, 218879, Note_on_c, 9, 38, 0
9, 219360, Note_on_c, 9, 38, 100
9, 219839, Note_on_c, 9, 38, 0
9, 220320, Note_on_c, 9, 38, 100
9, 220799, Note_on_c, 9, 38, 0
9, 221280, Note_on_c, 9, 38, 100
9, 221759, Note_on_c, 9, 38, 0
9, 223200, Note_on_c, 9, 38, 100
9, 223679, Note_on_c, 9, 38, 0
9, 225120, Note_on_c, 9, 38, 100
9, 225599, Note_on_c, 9, 38, 0
9, 226080, Note_on_c, 9, 38, 100
9, 226559, Note_on_c, 9, 38, 0
9, 227040, Note_on_c, 9, 38, 100
9, 227519, Note_on_c, 9, 38, 0
9, 228000, Note_on_c, 9, 38, 100
9, 228479, Note_on_c, 9, 38, 0
9, 228960, Note_on_c, 9, 38, 100
9, 229439, Note_on_c, 9, 38, 0
9, 229920, Note_on_c, 9, 38, 100
9, 230399, Note_on_c, 9, 38, 0
9, 230880, Note_on_c, 9, 38, 100
9, 231359, Note_on_c, 9, 38, 0
9, 231840, Note_on_c, 9, 38, 100
9, 232319, Note_on_c, 9, 38, 0
9, 232800, Note_on_c, 9, 38, 100
9, 233279, Note_on_c, 9, 38, 0
9, 233760, Note_on_c, 9, 38, 100
9, 234239, Note_on_c, 9, 38, 0
9, 235680, Note_on_c, 9, 38, 113
9, 235799, Note_on_c, 9, 38, 0
9, 235800, Note_on_c, 9, 38, 113
9, 235919, Note_on_c, 9, 38, 0
9, 235920, Note_on_c, 9, 38, 113
9, 236039, Note_on_c, 9, 38, 0
9, 236040, Note_on_c, 9, 38, 113
9, 236159, Note_on_c, 9, 38, 0
9, 236160, Note_on_c, 9, 38, 113
9, 236639, Note_on_c, 9, 38, 0
9, 236640, Note_on_c, 9, 38, 100
9, 237119, Note_on_c, 9, 38, 0
9, 237120, Note_on_c, 9, 38, 100
9, 237599, Note_on_c, 9, 38, 0
9, 238560, Note_on_c, 9, 38, 100
9, 239039, Note_on_c, 9, 38, 0
9, 239040, Note_on_c, 9, 38, 100
9, 239519, Note_on_c, 9, 38, 0
9, 240480, Note_on_c, 9, 38, 100
9, 240959, Note_on_c, 9, 38, 0
9, 240960, Note_on_c, 9, 38, 100
9, 241439, Note_on_c, 9, 38, 0
9, 242400, Note_on_c, 9, 38, 100
9, 242879, Note_on_c, 9, 38, 0
9, 242880, Note_on_c, 9, 38, 100
9, 242939, Note_on_c, 9, 38, 0
9, 242940, Note_on_c, 9, 38, 100
9, 243119, Note_on_c, 9, 38, 0
9, 243840, Note_on_c, 9, 38, 119
9, 243899, Note_on_c, 9, 38, 0
9, 243900, Note_on_c, 9, 38, 120
9, 244079, Note_on_c, 9, 38, 0
9, 244320, Note_on_c, 9, 38, 100
9, 244799, Note_on_c, 9, 38, 0
9, 244800, Note_on_c, 9, 38, 100
9, 245279, Note_on_c, 9, 38, 0
9, 246240, Note_on_c, 9, 38, 100
9, 246719, Note_on_c, 9, 38, 0
9, 246720, Note_on_c, 9, 38, 100
9, 247199, Note_on_c, 9, 38, 0
9, 248160, Note_on_c, 9, 38, 100
9, 248639, Note_on_c, 9, 38, 0
9, 248640, Note_on_c, 9, 38, 100
9, 249119, Note_on_c, 9, 38, 0
9, 250080, Note_on_c, 9, 38, 100
9, 250559, Note_on_c, 9, 38, 0
9, 250560, End_track
10, 0, Start_track
10, 0, Key_signature, 0, "major"
10, 0, Control_c, 9, 121, 0
10, 0, Program_c, 9, 0
10, 0, Control_c, 9, 7, 127
10, 0, Control_c, 9, 10, 64
10, 0, Control_c, 9, 91, 0
10, 0, Control_c, 9, 93, 0
10, 0, MIDI_port, 0
10, 0, Note_on_c, 9, 42, 100
10, 479, Note_on_c, 9, 42, 0
10, 480, Note_on_c, 9, 42, 100
10, 959, Note_on_c, 9, 42, 0
10, 960, Note_on_c, 9, 42, 100
10, 1439, Note_on_c, 9, 42, 0
10, 1440, Note_on_c, 9, 42, 100
10, 1919, Note_on_c, 9, 42, 0
10, 1920, Note_on_c, 9, 42, 119
10, 2399, Note_on_c, 9, 42, 0
10, 2400, Note_on_c, 9, 42, 119
10, 2879, Note_on_c, 9, 42, 0
10, 2880, Note_on_c, 9, 42, 119
10, 3359, Note_on_c, 9, 42, 0
10, 3360, Note_on_c, 9, 42, 119
10, 3839, Note_on_c, 9, 42, 0
10, 4320, Note_on_c, 9, 42, 120
10, 4799, Note_on_c, 9, 42, 0
10, 4800, Note_on_c, 9, 42, 120
10, 5279, Note_on_c, 9, 42, 0
10, 5280, Note_on_c, 9, 42, 120
10, 5759, Note_on_c, 9, 42, 0
10, 5760, Note_on_c, 9, 42, 120
10, 5999, Note_on_c, 9, 42, 0
10, 6000, Note_on_c, 9, 42, 120
10, 6239, Note_on_c, 9, 42, 0
10, 6240, Note_on_c, 9, 42, 120
10, 6719, Note_on_c, 9, 42, 0
10, 6720, Note_on_c, 9, 42, 118
10, 7199, Note_on_c, 9, 42, 0
10, 7200, Note_on_c, 9, 42, 118
10, 7679, Note_on_c, 9, 42, 0
10, 7680, Note_on_c, 9, 42, 118
10, 8159, Note_on_c, 9, 42, 0
10, 8160, Note_on_c, 9, 42, 118
10, 8639, Note_on_c, 9, 42, 0
10, 8640, Note_on_c, 9, 42, 118
10, 9119, Note_on_c, 9, 42, 0
10, 9840, Note_on_c, 9, 42, 90
10, 10079, Note_on_c, 9, 42, 0
10, 10080, Note_on_c, 9, 42, 90
10, 10319, Note_on_c, 9, 42, 0
10, 10320, Note_on_c, 9, 42, 90
10, 10559, Note_on_c, 9, 42, 0
10, 10560, Note_on_c, 9, 42, 90
10, 11039, Note_on_c, 9, 42, 0
10, 11040, Note_on_c, 9, 42, 90
10, 11519, Note_on_c, 9, 42, 0
10, 11520, Note_on_c, 9, 42, 90
10, 11999, Note_on_c, 9, 42, 0
10, 12000, Note_on_c, 9, 42, 113
10, 12479, Note_on_c, 9, 42, 0
10, 12480, Note_on_c, 9, 42, 90
10, 12959, Note_on_c, 9, 42, 0
10, 12960, Note_on_c, 9, 42, 90
10, 13199, Note_on_c, 9, 42, 0
10, 13200, Note_on_c, 9, 42, 90
10, 13439, Note_on_c, 9, 42, 0
10, 13440, Note_on_c, 9, 42, 90
10, 13679, Note_on_c, 9, 42, 0
10, 13680, Note_on_c, 9, 42, 90
10, 13919, Note_on_c, 9, 42, 0
10, 13920, Note_on_c, 9, 42, 90
10, 14399, Note_on_c, 9, 42, 0
10, 14400, Note_on_c, 9, 42, 90
10, 14879, Note_on_c, 9, 42, 0
10, 14880, Note_on_c, 9, 42, 90
10, 15359, Note_on_c, 9, 42, 0
10, 15360, Note_on_c, 9, 42, 90
10, 15839, Note_on_c, 9, 42, 0
10, 15840, Note_on_c, 9, 42, 113
10, 16319, Note_on_c, 9, 42, 0
10, 16320, Note_on_c, 9, 42, 90
10, 16799, Note_on_c, 9, 42, 0
10, 16800, Note_on_c, 9, 42, 90
10, 17039, Note_on_c, 9, 42, 0
10, 17040, Note_on_c, 9, 42, 90
10, 17279, Note_on_c, 9, 42, 0
10, 17280, Note_on_c, 9, 42, 90
10, 17519, Note_on_c, 9, 42, 0
10, 17520, Note_on_c, 9, 42, 90
10, 17759, Note_on_c, 9, 42, 0
10, 17760, Note_on_c, 9, 42, 90
10, 18239, Note_on_c, 9, 42, 0
10, 18240, Note_on_c, 9, 42, 90
10, 18719, Note_on_c, 9, 42, 0
10, 18720, Note_on_c, 9, 42, 90
10, 19199, Note_on_c, 9, 42, 0
10, 19200, Note_on_c, 9, 42, 90
10, 19679, Note_on_c, 9, 42, 0
10, 19680, Note_on_c, 9, 42, 113
10, 20159, Note_on_c, 9, 42, 0
10, 20160, Note_on_c, 9, 42, 90
10, 20639, Note_on_c, 9, 42, 0
10, 20640, Note_on_c, 9, 42, 90
10, 20879, Note_on_c, 9, 42, 0
10, 20880, Note_on_c, 9, 42, 90
10, 21119, Note_on_c, 9, 42, 0
10, 21120, Note_on_c, 9, 42, 90
10, 21359, Note_on_c, 9, 42, 0
10, 21360, Note_on_c, 9, 42, 90
10, 21599, Note_on_c, 9, 42, 0
10, 21600, Note_on_c, 9, 42, 90
10, 22079, Note_on_c, 9, 42, 0
10, 22080, Note_on_c, 9, 42, 90
10, 22559, Note_on_c, 9, 42, 0
10, 22560, Note_on_c, 9, 42, 90
10, 23039, Note_on_c, 9, 42, 0
10, 23040, Note_on_c, 9, 42, 90
10, 23519, Note_on_c, 9, 42, 0
10, 23520, Note_on_c, 9, 42, 113
10, 23999, Note_on_c, 9, 42, 0
10, 24000, Note_on_c, 9, 42, 90
10, 24479, Note_on_c, 9, 42, 0
10, 24480, Note_on_c, 9, 42, 90
10, 24719, Note_on_c, 9, 42, 0
10, 24720, Note_on_c, 9, 42, 90
10, 24959, Note_on_c, 9, 42, 0
10, 24960, Note_on_c, 9, 42, 90
10, 25199, Note_on_c, 9, 42, 0
10, 25200, Note_on_c, 9, 42, 90
10, 25439, Note_on_c, 9, 42, 0
10, 25440, Note_on_c, 9, 42, 90
10, 25919, Note_on_c, 9, 42, 0
10, 25920, Note_on_c, 9, 42, 90
10, 26399, Note_on_c, 9, 42, 0
10, 26400, Note_on_c, 9, 42, 90
10, 26879, Note_on_c, 9, 42, 0
10, 26880, Note_on_c, 9, 42, 90
10, 27359, Note_on_c, 9, 42, 0
10, 27360, Note_on_c, 9, 42, 113
10, 27839, Note_on_c, 9, 42, 0
10, 27840, Note_on_c, 9, 42, 90
10, 28319, Note_on_c, 9, 42, 0
10, 28320, Note_on_c, 9, 42, 90
10, 28559, Note_on_c, 9, 42, 0
10, 28560, Note_on_c, 9, 42, 90
10, 28799, Note_on_c, 9, 42, 0
10, 28800, Note_on_c, 9, 42, 90
10, 29039, Note_on_c, 9, 42, 0
10, 29040, Note_on_c, 9, 42, 90
10, 29279, Note_on_c, 9, 42, 0
10, 29280, Note_on_c, 9, 42, 90
10, 29759, Note_on_c, 9, 42, 0
10, 29760, Note_on_c, 9, 42, 90
10, 30239, Note_on_c, 9, 42, 0
10, 30240, Note_on_c, 9, 42, 90
10, 30719, Note_on_c, 9, 42, 0
10, 30720, Note_on_c, 9, 42, 90
10, 31199, Note_on_c, 9, 42, 0
10, 31200, Note_on_c, 9, 42, 113
10, 31679, Note_on_c, 9, 42, 0
10, 31680, Note_on_c, 9, 42, 90
10, 32159, Note_on_c, 9, 42, 0
10, 32880, Note_on_c, 9, 42, 112
10, 33119, Note_on_c, 9, 42, 0
10, 33120, Note_on_c, 9, 42, 90
10, 33599, Note_on_c, 9, 42, 0
10, 33600, Note_on_c, 9, 42, 90
10, 33839, Note_on_c, 9, 42, 0
10, 33840, Note_on_c, 9, 42, 90
10, 34079, Note_on_c, 9, 42, 0
10, 34080, Note_on_c, 9, 42, 116
10, 34559, Note_on_c, 9, 42, 0
10, 34560, Note_on_c, 9, 42, 90
10, 35039, Note_on_c, 9, 42, 0
10, 35040, Note_on_c, 9, 42, 90
10, 35279, Note_on_c, 9, 42, 0
10, 35280, Note_on_c, 9, 42, 90
10, 35519, Note_on_c, 9, 42, 0
10, 35520, Note_on_c, 9, 42, 90
10, 35999, Note_on_c, 9, 42, 0
10, 36000, Note_on_c, 9, 42, 90
10, 36479, Note_on_c, 9, 42, 0
10, 36480, Note_on_c, 9, 42, 112
10, 36959, Note_on_c, 9, 42, 0
10, 36960, Note_on_c, 9, 42, 90
10, 37439, Note_on_c, 9, 42, 0
10, 37440, Note_on_c, 9, 42, 90
10, 37919, Note_on_c, 9, 42, 0
10, 37920, Note_on_c, 9, 42, 90
10, 38399, Note_on_c, 9, 42, 0
10, 39360, Note_on_c, 9, 42, 111
10, 39599, Note_on_c, 9, 42, 0
10, 39600, Note_on_c, 9, 42, 90
10, 39839, Note_on_c, 9, 42, 0
10, 39840, Note_on_c, 9, 42, 115
10, 40319, Note_on_c, 9, 42, 0
10, 40320, Note_on_c, 9, 42, 90
10, 40559, Note_on_c, 9, 42, 0
10, 40560, Note_on_c, 9, 42, 90
10, 40799, Note_on_c, 9, 42, 0
10, 40800, Note_on_c, 9, 42, 110
10, 41279, Note_on_c, 9, 42, 0
10, 41280, Note_on_c, 9, 42, 90
10, 41759, Note_on_c, 9, 42, 0
10, 41760, Note_on_c, 9, 42, 112
10, 41999, Note_on_c, 9, 42, 0
10, 42000, Note_on_c, 9, 42, 90
10, 42239, Note_on_c, 9, 42, 0
10, 42480, Note_on_c, 9, 42, 100
10, 42719, Note_on_c, 9, 42, 0
10, 42720, Note_on_c, 9, 42, 90
10, 43199, Note_on_c, 9, 42, 0
10, 43440, Note_on_c, 9, 42, 90
10, 43679, Note_on_c, 9, 42, 0
10, 43680, Note_on_c, 9, 42, 90
10, 44159, Note_on_c, 9, 42, 0
10, 44640, Note_on_c, 9, 42, 90
10, 45119, Note_on_c, 9, 42, 0
10, 45120, Note_on_c, 9, 42, 90
10, 45359, Note_on_c, 9, 42, 0
10, 45360, Note_on_c, 9, 42, 100
10, 45599, Note_on_c, 9, 42, 0
10, 45600, Note_on_c, 9, 42, 90
10, 46079, Note_on_c, 9, 42, 0
10, 46320, Note_on_c, 9, 42, 100
10, 46559, Note_on_c, 9, 42, 0
10, 46560, Note_on_c, 9, 42, 121
10, 46799, Note_on_c, 9, 42, 0
10, 46800, Note_on_c, 9, 42, 121
10, 47039, Note_on_c, 9, 42, 0
10, 47040, Note_on_c, 9, 42, 121
10, 47279, Note_on_c, 9, 42, 0
10, 47280, Note_on_c, 9, 42, 121
10, 47519, Note_on_c, 9, 42, 0
10, 47520, Note_on_c, 9, 42, 121
10, 47759, Note_on_c, 9, 42, 0
10, 47760, Note_on_c, 9, 42, 121
10, 47999, Note_on_c, 9, 42, 0
10, 48000, Note_on_c, 9, 42, 121
10, 48479, Note_on_c, 9, 42, 0
10, 48480, Note_on_c, 9, 42, 121
10, 48959, Note_on_c, 9, 42, 0
10, 48960, Note_on_c, 9, 42, 121
10, 49439, Note_on_c, 9, 42, 0
10, 49440, Note_on_c, 9, 42, 90
10, 49919, Note_on_c, 9, 42, 0
10, 50400, Note_on_c, 9, 42, 90
10, 50879, Note_on_c, 9, 42, 0
10, 50880, Note_on_c, 9, 42, 90
10, 51359, Note_on_c, 9, 42, 0
10, 51360, Note_on_c, 9, 42, 111
10, 51839, Note_on_c, 9, 42, 0
10, 51840, Note_on_c, 9, 42, 111
10, 52079, Note_on_c, 9, 42, 0
10, 52080, Note_on_c, 9, 42, 90
10, 52319, Note_on_c, 9, 42, 0
10, 52320, Note_on_c, 9, 42, 90
10, 52799, Note_on_c, 9, 42, 0
10, 52800, Note_on_c, 9, 42, 90
10, 53279, Note_on_c, 9, 42, 0
10, 53280, Note_on_c, 9, 42, 90
10, 53759, Note_on_c, 9, 42, 0
10, 54240, Note_on_c, 9, 42, 116
10, 54719, Note_on_c, 9, 42, 0
10, 54720, Note_on_c, 9, 42, 90
10, 55199, Note_on_c, 9, 42, 0
10, 55200, Note_on_c, 9, 42, 90
10, 55679, Note_on_c, 9, 42, 0
10, 55680, Note_on_c, 9, 42, 111
10, 55919, Note_on_c, 9, 42, 0
10, 55920, Note_on_c, 9, 42, 90
10, 56159, Note_on_c, 9, 42, 0
10, 56160, Note_on_c, 9, 42, 90
10, 56639, Note_on_c, 9, 42, 0
10, 56640, Note_on_c, 9, 42, 90
10, 57119, Note_on_c, 9, 42, 0
10, 57600, Note_on_c, 9, 42, 90
10, 58079, Note_on_c, 9, 42, 0
10, 58080, Note_on_c, 9, 42, 116
10, 58559, Note_on_c, 9, 42, 0
10, 58560, Note_on_c, 9, 42, 90
10, 59039, Note_on_c, 9, 42, 0
10, 59040, Note_on_c, 9, 42, 90
10, 59519, Note_on_c, 9, 42, 0
10, 59520, Note_on_c, 9, 42, 90
10, 59759, Note_on_c, 9, 42, 0
10, 59760, Note_on_c, 9, 42, 90
10, 59999, Note_on_c, 9, 42, 0
10, 60000, Note_on_c, 9, 42, 90
10, 60479, Note_on_c, 9, 42, 0
10, 60480, Note_on_c, 9, 42, 90
10, 60959, Note_on_c, 9, 42, 0
10, 60960, Note_on_c, 9, 42, 90
10, 61439, Note_on_c, 9, 42, 0
10, 61440, Note_on_c, 9, 42, 90
10, 61919, Note_on_c, 9, 42, 0
10, 61920, Note_on_c, 9, 42, 113
10, 62399, Note_on_c, 9, 42, 0
10, 62400, Note_on_c, 9, 42, 90
10, 62879, Note_on_c, 9, 42, 0
10, 62880, Note_on_c, 9, 42, 90
10, 63119, Note_on_c, 9, 42, 0
10, 63120, Note_on_c, 9, 42, 90
10, 63359, Note_on_c, 9, 42, 0
10, 63360, Note_on_c, 9, 42, 90
10, 63599, Note_on_c, 9, 42, 0
10, 63600, Note_on_c, 9, 42, 90
10, 63839, Note_on_c, 9, 42, 0
10, 63840, Note_on_c, 9, 42, 90
10, 64319, Note_on_c, 9, 42, 0
10, 64320, Note_on_c, 9, 42, 90
10, 64799, Note_on_c, 9, 42, 0
10, 64800, Note_on_c, 9, 42, 90
10, 65279, Note_on_c, 9, 42, 0
10, 65280, Note_on_c, 9, 42, 90
10, 65759, Note_on_c, 9, 42, 0
10, 65760, Note_on_c, 9, 42, 113
10, 66239, Note_on_c, 9, 42, 0
10, 66240, Note_on_c, 9, 42, 90
10, 66719, Note_on_c, 9, 42, 0
10, 66720, Note_on_c, 9, 42, 90
10, 66959, Note_on_c, 9, 42, 0
10, 66960, Note_on_c, 9, 42, 90
10, 67199, Note_on_c, 9, 42, 0
10, 67200, Note_on_c, 9, 42, 90
10, 67439, Note_on_c, 9, 42, 0
10, 67440, Note_on_c, 9, 42, 90
10, 67679, Note_on_c, 9, 42, 0
10, 67680, Note_on_c, 9, 42, 90
10, 68159, Note_on_c, 9, 42, 0
10, 68160, Note_on_c, 9, 42, 90
10, 68639, Note_on_c, 9, 42, 0
10, 68640, Note_on_c, 9, 42, 90
10, 69119, Note_on_c, 9, 42, 0
10, 69120, Note_on_c, 9, 42, 90
10, 69599, Note_on_c, 9, 42, 0
10, 69600, Note_on_c, 9, 42, 113
10, 70079, Note_on_c, 9, 42, 0
10, 70080, Note_on_c, 9, 42, 90
10, 70559, Note_on_c, 9, 42, 0
10, 70560, Note_on_c, 9, 42, 90
10, 70799, Note_on_c, 9, 42, 0
10, 70800, Note_on_c, 9, 42, 90
10, 71039, Note_on_c, 9, 42, 0
10, 71040, Note_on_c, 9, 42, 90
10, 71279, Note_on_c, 9, 42, 0
10, 71280, Note_on_c, 9, 42, 90
10, 71519, Note_on_c, 9, 42, 0
10, 71520, Note_on_c, 9, 42, 90
10, 71999, Note_on_c, 9, 42, 0
10, 72000, Note_on_c, 9, 42, 90
10, 72479, Note_on_c, 9, 42, 0
10, 72480, Note_on_c, 9, 42, 90
10, 72959, Note_on_c, 9, 42, 0
10, 72960, Note_on_c, 9, 42, 90
10, 73439, Note_on_c, 9, 42, 0
10, 73440, Note_on_c, 9, 42, 113
10, 73919, Note_on_c, 9, 42, 0
10, 73920, Note_on_c, 9, 42, 90
10, 74399, Note_on_c, 9, 42, 0
10, 74400, Note_on_c, 9, 42, 90
10, 74639, Note_on_c, 9, 42, 0
10, 74640, Note_on_c, 9, 42, 90
10, 74879, Note_on_c, 9, 42, 0
10, 74880, Note_on_c, 9, 42, 90
10, 75119, Note_on_c, 9, 42, 0
10, 75120, Note_on_c, 9, 42, 90
10, 75359, Note_on_c, 9, 42, 0
10, 75360, Note_on_c, 9, 42, 90
10, 75839, Note_on_c, 9, 42, 0
10, 75840, Note_on_c, 9, 42, 90
10, 76319, Note_on_c, 9, 42, 0
10, 76320, Note_on_c, 9, 42, 90
10, 76799, Note_on_c, 9, 42, 0
10, 76800, Note_on_c, 9, 42, 90
10, 77279, Note_on_c, 9, 42, 0
10, 77280, Note_on_c, 9, 42, 113
10, 77759, Note_on_c, 9, 42, 0
10, 77760, Note_on_c, 9, 42, 90
10, 78239, Note_on_c, 9, 42, 0
10, 78240, Note_on_c, 9, 42, 90
10, 78479, Note_on_c, 9, 42, 0
10, 78480, Note_on_c, 9, 42, 90
10, 78719, Note_on_c, 9, 42, 0
10, 78720, Note_on_c, 9, 42, 90
10, 78959, Note_on_c, 9, 42, 0
10, 78960, Note_on_c, 9, 42, 90
10, 79199, Note_on_c, 9, 42, 0
10, 79200, Note_on_c, 9, 42, 90
10, 79679, Note_on_c, 9, 42, 0
10, 79680, Note_on_c, 9, 42, 90
10, 80159, Note_on_c, 9, 42, 0
10, 80160, Note_on_c, 9, 42, 90
10, 80639, Note_on_c, 9, 42, 0
10, 80640, Note_on_c, 9, 42, 90
10, 81119, Note_on_c, 9, 42, 0
10, 81120, Note_on_c, 9, 42, 113
10, 81599, Note_on_c, 9, 42, 0
10, 81600, Note_on_c, 9, 42, 90
10, 82079, Note_on_c, 9, 42, 0
10, 82080, Note_on_c, 9, 42, 90
10, 82319, Note_on_c, 9, 42, 0
10, 82320, Note_on_c, 9, 42, 90
10, 82559, Note_on_c, 9, 42, 0
10, 82560, Note_on_c, 9, 42, 112
10, 83039, Note_on_c, 9, 42, 0
10, 83040, Note_on_c, 9, 42, 90
10, 83519, Note_on_c, 9, 42, 0
10, 83520, Note_on_c, 9, 42, 90
10, 83759, Note_on_c, 9, 42, 0
10, 83760, Note_on_c, 9, 42, 90
10, 83999, Note_on_c, 9, 42, 0
10, 84000, Note_on_c, 9, 42, 116
10, 84479, Note_on_c, 9, 42, 0
10, 84480, Note_on_c, 9, 42, 90
10, 84959, Note_on_c, 9, 42, 0
10, 84960, Note_on_c, 9, 42, 90
10, 85199, Note_on_c, 9, 42, 0
10, 85200, Note_on_c, 9, 42, 90
10, 85439, Note_on_c, 9, 42, 0
10, 85440, Note_on_c, 9, 42, 90
10, 85919, Note_on_c, 9, 42, 0
10, 85920, Note_on_c, 9, 42, 90
10, 86399, Note_on_c, 9, 42, 0
10, 86400, Note_on_c, 9, 42, 112
10, 86879, Note_on_c, 9, 42, 0
10, 86880, Note_on_c, 9, 42, 90
10, 87359, Note_on_c, 9, 42, 0
10, 87360, Note_on_c, 9, 42, 90
10, 87839, Note_on_c, 9, 42, 0
10, 87840, Note_on_c, 9, 42, 90
10, 88319, Note_on_c, 9, 42, 0
10, 89280, Note_on_c, 9, 42, 111
10, 89519, Note_on_c, 9, 42, 0
10, 89520, Note_on_c, 9, 42, 90
10, 89759, Note_on_c, 9, 42, 0
10, 89760, Note_on_c, 9, 42, 115
10, 90239, Note_on_c, 9, 42, 0
10, 90240, Note_on_c, 9, 42, 90
10, 90479, Note_on_c, 9, 42, 0
10, 90480, Note_on_c, 9, 42, 90
10, 90719, Note_on_c, 9, 42, 0
10, 90720, Note_on_c, 9, 42, 110
10, 91199, Note_on_c, 9, 42, 0
10, 91200, Note_on_c, 9, 42, 90
10, 91679, Note_on_c, 9, 42, 0
10, 91680, Note_on_c, 9, 42, 112
10, 91919, Note_on_c, 9, 42, 0
10, 91920, Note_on_c, 9, 42, 90
10, 92159, Note_on_c, 9, 42, 0
10, 92160, Note_on_c, 9, 42, 90
10, 92639, Note_on_c, 9, 42, 0
10, 92640, Note_on_c, 9, 42, 90
10, 93119, Note_on_c, 9, 42, 0
10, 93120, Note_on_c, 9, 42, 90
10, 93359, Note_on_c, 9, 42, 0
10, 93360, Note_on_c, 9, 42, 90
10, 93599, Note_on_c, 9, 42, 0
10, 93600, Note_on_c, 9, 42, 90
10, 94079, Note_on_c, 9, 42, 0
10, 94080, Note_on_c, 9, 42, 115
10, 94559, Note_on_c, 9, 42, 0
10, 94560, Note_on_c, 9, 42, 90
10, 95039, Note_on_c, 9, 42, 0
10, 95040, Note_on_c, 9, 42, 90
10, 95519, Note_on_c, 9, 42, 0
10, 95520, Note_on_c, 9, 42, 90
10, 95999, Note_on_c, 9, 42, 0
10, 96000, Note_on_c, 9, 42, 121
10, 96479, Note_on_c, 9, 42, 0
10, 96480, Note_on_c, 9, 42, 121
10, 96719, Note_on_c, 9, 42, 0
10, 96720, Note_on_c, 9, 42, 121
10, 96959, Note_on_c, 9, 42, 0
10, 96960, Note_on_c, 9, 42, 121
10, 97199, Note_on_c, 9, 42, 0
10, 97200, Note_on_c, 9, 42, 121
10, 97439, Note_on_c, 9, 42, 0
10, 97440, Note_on_c, 9, 42, 121
10, 97679, Note_on_c, 9, 42, 0
10, 97680, Note_on_c, 9, 42, 121
10, 97919, Note_on_c, 9, 42, 0
10, 97920, Note_on_c, 9, 42, 121
10, 98399, Note_on_c, 9, 42, 0
10, 98400, Note_on_c, 9, 42, 121
10, 98879, Note_on_c, 9, 42, 0
10, 98880, Note_on_c, 9, 42, 121
10, 99359, Note_on_c, 9, 42, 0
10, 99360, Note_on_c, 9, 42, 90
10, 99839, Note_on_c, 9, 42, 0
10, 100080, Note_on_c, 9, 42, 90
10, 100319, Note_on_c, 9, 42, 0
10, 100320, Note_on_c, 9, 42, 90
10, 100799, Note_on_c, 9, 42, 0
10, 100800, Note_on_c, 9, 42, 90
10, 101279, Note_on_c, 9, 42, 0
10, 101280, Note_on_c, 9, 42, 111
10, 101759, Note_on_c, 9, 42, 0
10, 101760, Note_on_c, 9, 42, 111
10, 101999, Note_on_c, 9, 42, 0
10, 102000, Note_on_c, 9, 42, 90
10, 102239, Note_on_c, 9, 42, 0
10, 102240, Note_on_c, 9, 42, 90
10, 102719, Note_on_c, 9, 42, 0
10, 102720, Note_on_c, 9, 42, 90
10, 103199, Note_on_c, 9, 42, 0
10, 103680, Note_on_c, 9, 42, 90
10, 104159, Note_on_c, 9, 42, 0
10, 104160, Note_on_c, 9, 42, 116
10, 104639, Note_on_c, 9, 42, 0
10, 104640, Note_on_c, 9, 42, 90
10, 105119, Note_on_c, 9, 42, 0
10, 105120, Note_on_c, 9, 42, 90
10, 105599, Note_on_c, 9, 42, 0
10, 105600, Note_on_c, 9, 42, 111
10, 105839, Note_on_c, 9, 42, 0
10, 105840, Note_on_c, 9, 42, 90
10, 106079, Note_on_c, 9, 42, 0
10, 106080, Note_on_c, 9, 42, 90
10, 106559, Note_on_c, 9, 42, 0
10, 106560, Note_on_c, 9, 42, 90
10, 107039, Note_on_c, 9, 42, 0
10, 107520, Note_on_c, 9, 42, 90
10, 107999, Note_on_c, 9, 42, 0
10, 108000, Note_on_c, 9, 42, 116
10, 108479, Note_on_c, 9, 42, 0
10, 108480, Note_on_c, 9, 42, 90
10, 108959, Note_on_c, 9, 42, 0
10, 108960, Note_on_c, 9, 42, 90
10, 109439, Note_on_c, 9, 42, 0
10, 109440, Note_on_c, 9, 42, 90
10, 109679, Note_on_c, 9, 42, 0
10, 109680, Note_on_c, 9, 42, 90
10, 109919, Note_on_c, 9, 42, 0
10, 109920, Note_on_c, 9, 42, 90
10, 110399, Note_on_c, 9, 42, 0
10, 110400, Note_on_c, 9, 42, 90
10, 110879, Note_on_c, 9, 42, 0
10, 110880, Note_on_c, 9, 42, 90
10, 111359, Note_on_c, 9, 42, 0
10, 111360, Note_on_c, 9, 44, 127
10, 111599, Note_on_c, 9, 44, 0
10, 111600, Note_on_c, 9, 44, 92
10, 111839, Note_on_c, 9, 44, 0
10, 111840, Note_on_c, 9, 44, 127
10, 112079, Note_on_c, 9, 44, 0
10, 112080, Note_on_c, 9, 44, 89
10, 112319, Note_on_c, 9, 44, 0
10, 112320, Note_on_c, 9, 44, 127
10, 112559, Note_on_c, 9, 44, 0
10, 112560, Note_on_c, 9, 44, 91
10, 112799, Note_on_c, 9, 44, 0
10, 112800, Note_on_c, 9, 44, 127
10, 113279, Note_on_c, 9, 44, 0
10, 113280, Note_on_c, 9, 42, 127
10, 113519, Note_on_c, 9, 42, 0
10, 113520, Note_on_c, 9, 42, 90
10, 113759, Note_on_c, 9, 42, 0
10, 113760, Note_on_c, 9, 42, 90
10, 114239, Note_on_c, 9, 42, 0
10, 114240, Note_on_c, 9, 42, 90
10, 114719, Note_on_c, 9, 42, 0
10, 114720, Note_on_c, 9, 42, 90
10, 115199, Note_on_c, 9, 42, 0
10, 115200, Note_on_c, 9, 44, 127
10, 115679, Note_on_c, 9, 44, 0
10, 115680, Note_on_c, 9, 44, 127
10, 116159, Note_on_c, 9, 44, 0
10, 116160, Note_on_c, 9, 44, 127
10, 116399, Note_on_c, 9, 44, 0
10, 116400, Note_on_c, 9, 44, 127
10, 116639, Note_on_c, 9, 44, 0
10, 116640, Note_on_c, 9, 44, 127
10, 116879, Note_on_c, 9, 44, 0
10, 116880, Note_on_c, 9, 44, 127
10, 117119, Note_on_c, 9, 44, 0
10, 117120, Note_on_c, 9, 42, 90
10, 117359, Note_on_c, 9, 42, 0
10, 117360, Note_on_c, 9, 42, 90
10, 117599, Note_on_c, 9, 42, 0
10, 117600, Note_on_c, 9, 42, 90
10, 118079, Note_on_c, 9, 42, 0
10, 118080, Note_on_c, 9, 42, 90
10, 118559, Note_on_c, 9, 42, 0
10, 118560, Note_on_c, 9, 42, 90
10, 119039, Note_on_c, 9, 42, 0
10, 119040, Note_on_c, 9, 44, 127
10, 119519, Note_on_c, 9, 44, 0
10, 119520, Note_on_c, 9, 44, 127
10, 119999, Note_on_c, 9, 44, 0
10, 120000, Note_on_c, 9, 44, 127
10, 120239, Note_on_c, 9, 44, 0
10, 120240, Note_on_c, 9, 44, 127
10, 120479, Note_on_c, 9, 44, 0
10, 120480, Note_on_c, 9, 44, 127
10, 120719, Note_on_c, 9, 44, 0
10, 120720, Note_on_c, 9, 44, 127
10, 120959, Note_on_c, 9, 44, 0
10, 120960, Note_on_c, 9, 42, 90
10, 121199, Note_on_c, 9, 42, 0
10, 121200, Note_on_c, 9, 42, 90
10, 121439, Note_on_c, 9, 42, 0
10, 121440, Note_on_c, 9, 42, 90
10, 121919, Note_on_c, 9, 42, 0
10, 121920, Note_on_c, 9, 42, 90
10, 122399, Note_on_c, 9, 42, 0
10, 122400, Note_on_c, 9, 42, 90
10, 122879, Note_on_c, 9, 42, 0
10, 122880, Note_on_c, 9, 44, 127
10, 123359, Note_on_c, 9, 44, 0
10, 123360, Note_on_c, 9, 44, 127
10, 123599, Note_on_c, 9, 44, 0
10, 123600, Note_on_c, 9, 44, 127
10, 123839, Note_on_c, 9, 44, 0
10, 123840, Note_on_c, 9, 44, 127
10, 124319, Note_on_c, 9, 44, 0
10, 124320, Note_on_c, 9, 44, 127
10, 124799, Note_on_c, 9, 44, 0
10, 124800, Note_on_c, 9, 42, 112
10, 125279, Note_on_c, 9, 42, 0
10, 125280, Note_on_c, 9, 42, 90
10, 125759, Note_on_c, 9, 42, 0
10, 125760, Note_on_c, 9, 42, 90
10, 125999, Note_on_c, 9, 42, 0
10, 126000, Note_on_c, 9, 42, 90
10, 126239, Note_on_c, 9, 42, 0
10, 126240, Note_on_c, 9, 42, 116
10, 126719, Note_on_c, 9, 42, 0
10, 126720, Note_on_c, 9, 42, 90
10, 127199, Note_on_c, 9, 42, 0
10, 127200, Note_on_c, 9, 42, 90
10, 127439, Note_on_c, 9, 42, 0
10, 127440, Note_on_c, 9, 42, 90
10, 127679, Note_on_c, 9, 42, 0
10, 127680, Note_on_c, 9, 42, 90
10, 128159, Note_on_c, 9, 42, 0
10, 128160, Note_on_c, 9, 42, 90
10, 128639, Note_on_c, 9, 42, 0
10, 128640, Note_on_c, 9, 42, 112
10, 129119, Note_on_c, 9, 42, 0
10, 129120, Note_on_c, 9, 42, 90
10, 129599, Note_on_c, 9, 42, 0
10, 129600, Note_on_c, 9, 42, 90
10, 130079, Note_on_c, 9, 42, 0
10, 130080, Note_on_c, 9, 42, 90
10, 130559, Note_on_c, 9, 42, 0
10, 131520, Note_on_c, 9, 42, 111
10, 131759, Note_on_c, 9, 42, 0
10, 131760, Note_on_c, 9, 42, 90
10, 131999, Note_on_c, 9, 42, 0
10, 132000, Note_on_c, 9, 42, 115
10, 132479, Note_on_c, 9, 42, 0
10, 132480, Note_on_c, 9, 42, 90
10, 132719, Note_on_c, 9, 42, 0
10, 132720, Note_on_c, 9, 42, 90
10, 132959, Note_on_c, 9, 42, 0
10, 132960, Note_on_c, 9, 42, 110
10, 133439, Note_on_c, 9, 42, 0
10, 133440, Note_on_c, 9, 42, 90
10, 133919, Note_on_c, 9, 42, 0
10, 133920, Note_on_c, 9, 42, 112
10, 134159, Note_on_c, 9, 42, 0
10, 134160, Note_on_c, 9, 42, 90
10, 134399, Note_on_c, 9, 42, 0
10, 134400, Note_on_c, 9, 42, 90
10, 134879, Note_on_c, 9, 42, 0
10, 134880, Note_on_c, 9, 42, 90
10, 135359, Note_on_c, 9, 42, 0
10, 135360, Note_on_c, 9, 42, 90
10, 135599, Note_on_c, 9, 42, 0
10, 135600, Note_on_c, 9, 42, 90
10, 135839, Note_on_c, 9, 42, 0
10, 135840, Note_on_c, 9, 42, 90
10, 136319, Note_on_c, 9, 42, 0
10, 136320, Note_on_c, 9, 42, 115
10, 136799, Note_on_c, 9, 42, 0
10, 136800, Note_on_c, 9, 42, 90
10, 137279, Note_on_c, 9, 42, 0
10, 137280, Note_on_c, 9, 42, 90
10, 137759, Note_on_c, 9, 42, 0
10, 137760, Note_on_c, 9, 42, 90
10, 138239, Note_on_c, 9, 42, 0
10, 138240, Note_on_c, 9, 42, 121
10, 138719, Note_on_c, 9, 42, 0
10, 138720, Note_on_c, 9, 42, 121
10, 138959, Note_on_c, 9, 42, 0
10, 138960, Note_on_c, 9, 42, 121
10, 139199, Note_on_c, 9, 42, 0
10, 139200, Note_on_c, 9, 42, 121
10, 139439, Note_on_c, 9, 42, 0
10, 139440, Note_on_c, 9, 42, 121
10, 139679, Note_on_c, 9, 42, 0
10, 139680, Note_on_c, 9, 42, 121
10, 139919, Note_on_c, 9, 42, 0
10, 139920, Note_on_c, 9, 42, 121
10, 140159, Note_on_c, 9, 42, 0
10, 140160, Note_on_c, 9, 42, 112
10, 140639, Note_on_c, 9, 42, 0
10, 140640, Note_on_c, 9, 42, 90
10, 141119, Note_on_c, 9, 42, 0
10, 141120, Note_on_c, 9, 42, 90
10, 141359, Note_on_c, 9, 42, 0
10, 141360, Note_on_c, 9, 42, 90
10, 141599, Note_on_c, 9, 42, 0
10, 141600, Note_on_c, 9, 42, 116
10, 142079, Note_on_c, 9, 42, 0
10, 142080, Note_on_c, 9, 42, 90
10, 142559, Note_on_c, 9, 42, 0
10, 142560, Note_on_c, 9, 42, 90
10, 142799, Note_on_c, 9, 42, 0
10, 142800, Note_on_c, 9, 42, 90
10, 143039, Note_on_c, 9, 42, 0
10, 143040, Note_on_c, 9, 42, 90
10, 143519, Note_on_c, 9, 42, 0
10, 143520, Note_on_c, 9, 42, 90
10, 143999, Note_on_c, 9, 42, 0
10, 144000, Note_on_c, 9, 42, 112
10, 144479, Note_on_c, 9, 42, 0
10, 144480, Note_on_c, 9, 42, 90
10, 144959, Note_on_c, 9, 42, 0
10, 144960, Note_on_c, 9, 42, 90
10, 145439, Note_on_c, 9, 42, 0
10, 145440, Note_on_c, 9, 42, 90
10, 145919, Note_on_c, 9, 42, 0
10, 146880, Note_on_c, 9, 42, 111
10, 147119, Note_on_c, 9, 42, 0
10, 147120, Note_on_c, 9, 42, 90
10, 147359, Note_on_c, 9, 42, 0
10, 147360, Note_on_c, 9, 42, 115
10, 147839, Note_on_c, 9, 42, 0
10, 147840, Note_on_c, 9, 42, 90
10, 148079, Note_on_c, 9, 42, 0
10, 148080, Note_on_c, 9, 42, 90
10, 148319, Note_on_c, 9, 42, 0
10, 148320, Note_on_c, 9, 42, 110
10, 148799, Note_on_c, 9, 42, 0
10, 148800, Note_on_c, 9, 42, 90
10, 149279, Note_on_c, 9, 42, 0
10, 149280, Note_on_c, 9, 42, 112
10, 149519, Note_on_c, 9, 42, 0
10, 149520, Note_on_c, 9, 42, 90
10, 149759, Note_on_c, 9, 42, 0
10, 149760, Note_on_c, 9, 42, 90
10, 150239, Note_on_c, 9, 42, 0
10, 150240, Note_on_c, 9, 42, 90
10, 150719, Note_on_c, 9, 42, 0
10, 150720, Note_on_c, 9, 42, 90
10, 150959, Note_on_c, 9, 42, 0
10, 150960, Note_on_c, 9, 42, 90
10, 151199, Note_on_c, 9, 42, 0
10, 151200, Note_on_c, 9, 42, 90
10, 151679, Note_on_c, 9, 42, 0
10, 151680, Note_on_c, 9, 42, 115
10, 152159, Note_on_c, 9, 42, 0
10, 152160, Note_on_c, 9, 42, 90
10, 152639, Note_on_c, 9, 42, 0
10, 152640, Note_on_c, 9, 42, 90
10, 153119, Note_on_c, 9, 42, 0
10, 153120, Note_on_c, 9, 42, 90
10, 153599, Note_on_c, 9, 42, 0
10, 153600, Note_on_c, 9, 42, 121
10, 154079, Note_on_c, 9, 42, 0
10, 154080, Note_on_c, 9, 42, 121
10, 154319, Note_on_c, 9, 42, 0
10, 154320, Note_on_c, 9, 42, 121
10, 154559, Note_on_c, 9, 42, 0
10, 154560, Note_on_c, 9, 42, 121
10, 154799, Note_on_c, 9, 42, 0
10, 154800, Note_on_c, 9, 42, 121
10, 155039, Note_on_c, 9, 42, 0
10, 155040, Note_on_c, 9, 42, 121
10, 155279, Note_on_c, 9, 42, 0
10, 155280, Note_on_c, 9, 42, 121
10, 155519, Note_on_c, 9, 42, 0
10, 156000, Note_on_c, 9, 42, 100
10, 156479, Note_on_c, 9, 42, 0
10, 156480, Note_on_c, 9, 42, 100
10, 156959, Note_on_c, 9, 42, 0
10, 156960, Note_on_c, 9, 42, 100
10, 157439, Note_on_c, 9, 42, 0
10, 157440, Note_on_c, 9, 42, 100
10, 157919, Note_on_c, 9, 42, 0
10, 159360, Note_on_c, 9, 44, 80
10, 159839, Note_on_c, 9, 44, 0
10, 160320, Note_on_c, 9, 44, 77
10, 160799, Note_on_c, 9, 44, 0
10, 161280, Note_on_c, 9, 44, 78
10, 161759, Note_on_c, 9, 44, 0
10, 161760, Note_on_c, 9, 44, 80
10, 162239, Note_on_c, 9, 44, 0
10, 162240, Note_on_c, 9, 44, 80
10, 162719, Note_on_c, 9, 44, 0
10, 162720, Note_on_c, 9, 44, 80
10, 163199, Note_on_c, 9, 44, 0
10, 163200, Note_on_c, 9, 44, 100
10, 163679, Note_on_c, 9, 44, 0
10, 163680, Note_on_c, 9, 44, 101
10, 164159, Note_on_c, 9, 44, 0
10, 164160, Note_on_c, 9, 44, 101
10, 164639, Note_on_c, 9, 44, 0
10, 164640, Note_on_c, 9, 44, 102
10, 165119, Note_on_c, 9, 44, 0
10, 165120, Note_on_c, 9, 42, 127
10, 165360, Note_on_c, 9, 44, 103
10, 165599, Note_on_c, 9, 42, 0
10, 165599, Note_on_c, 9, 44, 0
10, 165600, Note_on_c, 9, 42, 127
10, 165840, Note_on_c, 9, 44, 104
10, 166079, Note_on_c, 9, 42, 0
10, 166079, Note_on_c, 9, 44, 0
10, 166080, Note_on_c, 9, 42, 127
10, 166320, Note_on_c, 9, 44, 104
10, 166559, Note_on_c, 9, 42, 0
10, 166559, Note_on_c, 9, 44, 0
10, 166560, Note_on_c, 9, 42, 127
10, 166800, Note_on_c, 9, 44, 101
10, 167039, Note_on_c, 9, 42, 0
10, 167039, Note_on_c, 9, 44, 0
10, 167040, Note_on_c, 9, 42, 127
10, 167280, Note_on_c, 9, 44, 102
10, 167519, Note_on_c, 9, 42, 0
10, 167519, Note_on_c, 9, 44, 0
10, 167520, Note_on_c, 9, 42, 127
10, 167760, Note_on_c, 9, 44, 102
10, 167999, Note_on_c, 9, 42, 0
10, 167999, Note_on_c, 9, 44, 0
10, 168000, Note_on_c, 9, 42, 127
10, 168240, Note_on_c, 9, 44, 101
10, 168479, Note_on_c, 9, 42, 0
10, 168479, Note_on_c, 9, 44, 0
10, 168480, Note_on_c, 9, 42, 127
10, 168720, Note_on_c, 9, 44, 99
10, 168959, Note_on_c, 9, 42, 0
10, 168959, Note_on_c, 9, 44, 0
10, 168960, Note_on_c, 9, 42, 126
10, 169199, Note_on_c, 9, 42, 0
10, 169200, Note_on_c, 9, 42, 127
10, 169439, Note_on_c, 9, 42, 0
10, 169440, Note_on_c, 9, 42, 127
10, 169679, Note_on_c, 9, 42, 0
10, 169680, Note_on_c, 9, 42, 127
10, 169919, Note_on_c, 9, 42, 0
10, 169920, Note_on_c, 9, 42, 127
10, 170159, Note_on_c, 9, 42, 0
10, 170160, Note_on_c, 9, 42, 127
10, 170399, Note_on_c, 9, 42, 0
10, 170400, Note_on_c, 9, 42, 127
10, 170879, Note_on_c, 9, 42, 0
10, 170880, Note_on_c, 9, 42, 90
10, 171119, Note_on_c, 9, 42, 0
10, 171120, Note_on_c, 9, 42, 90
10, 171359, Note_on_c, 9, 42, 0
10, 171360, Note_on_c, 9, 42, 90
10, 171839, Note_on_c, 9, 42, 0
10, 171840, Note_on_c, 9, 42, 90
10, 172319, Note_on_c, 9, 42, 0
10, 172320, Note_on_c, 9, 42, 90
10, 172799, Note_on_c, 9, 42, 0
10, 172800, Note_on_c, 9, 44, 127
10, 173039, Note_on_c, 9, 44, 0
10, 173040, Note_on_c, 9, 44, 92
10, 173279, Note_on_c, 9, 44, 0
10, 173280, Note_on_c, 9, 44, 127
10, 173519, Note_on_c, 9, 44, 0
10, 173520, Note_on_c, 9, 44, 89
10, 173759, Note_on_c, 9, 44, 0
10, 173760, Note_on_c, 9, 44, 127
10, 173999, Note_on_c, 9, 44, 0
10, 174000, Note_on_c, 9, 44, 91
10, 174239, Note_on_c, 9, 44, 0
10, 174240, Note_on_c, 9, 44, 127
10, 174719, Note_on_c, 9, 44, 0
10, 174720, Note_on_c, 9, 42, 127
10, 174959, Note_on_c, 9, 42, 0
10, 174960, Note_on_c, 9, 42, 90
10, 175199, Note_on_c, 9, 42, 0
10, 175200, Note_on_c, 9, 42, 90
10, 175679, Note_on_c, 9, 42, 0
10, 175680, Note_on_c, 9, 42, 90
10, 176159, Note_on_c, 9, 42, 0
10, 176160, Note_on_c, 9, 42, 90
10, 176639, Note_on_c, 9, 42, 0
10, 176640, Note_on_c, 9, 44, 127
10, 177119, Note_on_c, 9, 44, 0
10, 177120, Note_on_c, 9, 44, 127
10, 177599, Note_on_c, 9, 44, 0
10, 177600, Note_on_c, 9, 44, 127
10, 177839, Note_on_c, 9, 44, 0
10, 177840, Note_on_c, 9, 44, 127
10, 178079, Note_on_c, 9, 44, 0
10, 178080, Note_on_c, 9, 44, 127
10, 178319, Note_on_c, 9, 44, 0
10, 178320, Note_on_c, 9, 44, 127
10, 178559, Note_on_c, 9, 44, 0
10, 178560, Note_on_c, 9, 42, 90
10, 178799, Note_on_c, 9, 42, 0
10, 178800, Note_on_c, 9, 42, 90
10, 179039, Note_on_c, 9, 42, 0
10, 179040, Note_on_c, 9, 42, 90
10, 179519, Note_on_c, 9, 42, 0
10, 179520, Note_on_c, 9, 42, 90
10, 179999, Note_on_c, 9, 42, 0
10, 180000, Note_on_c, 9, 42, 90
10, 180479, Note_on_c, 9, 42, 0
10, 180480, Note_on_c, 9, 42, 90
10, 180959, Note_on_c, 9, 42, 0
10, 180960, Note_on_c, 9, 42, 113
10, 181439, Note_on_c, 9, 42, 0
10, 181440, Note_on_c, 9, 42, 90
10, 181919, Note_on_c, 9, 42, 0
10, 181920, Note_on_c, 9, 42, 90
10, 182159, Note_on_c, 9, 42, 0
10, 182160, Note_on_c, 9, 42, 90
10, 182399, Note_on_c, 9, 42, 0
10, 182400, Note_on_c, 9, 42, 90
10, 182639, Note_on_c, 9, 42, 0
10, 182640, Note_on_c, 9, 42, 90
10, 182879, Note_on_c, 9, 42, 0
10, 182880, Note_on_c, 9, 42, 90
10, 183359, Note_on_c, 9, 42, 0
10, 183360, Note_on_c, 9, 42, 90
10, 183839, Note_on_c, 9, 42, 0
10, 183840, Note_on_c, 9, 42, 90
10, 184319, Note_on_c, 9, 42, 0
10, 184320, Note_on_c, 9, 42, 90
10, 184799, Note_on_c, 9, 42, 0
10, 184800, Note_on_c, 9, 42, 113
10, 185279, Note_on_c, 9, 42, 0
10, 185280, Note_on_c, 9, 42, 90
10, 185759, Note_on_c, 9, 42, 0
10, 185760, Note_on_c, 9, 42, 90
10, 185999, Note_on_c, 9, 42, 0
10, 186000, Note_on_c, 9, 42, 90
10, 186239, Note_on_c, 9, 42, 0
10, 186240, Note_on_c, 9, 42, 90
10, 186479, Note_on_c, 9, 42, 0
10, 186480, Note_on_c, 9, 42, 90
10, 186719, Note_on_c, 9, 42, 0
10, 186720, Note_on_c, 9, 42, 90
10, 187199, Note_on_c, 9, 42, 0
10, 187200, Note_on_c, 9, 42, 90
10, 187679, Note_on_c, 9, 42, 0
10, 187680, Note_on_c, 9, 42, 90
10, 188159, Note_on_c, 9, 42, 0
10, 188160, Note_on_c, 9, 42, 90
10, 188639, Note_on_c, 9, 42, 0
10, 188640, Note_on_c, 9, 42, 113
10, 189119, Note_on_c, 9, 42, 0
10, 189120, Note_on_c, 9, 42, 90
10, 189599, Note_on_c, 9, 42, 0
10, 189600, Note_on_c, 9, 42, 90
10, 189839, Note_on_c, 9, 42, 0
10, 189840, Note_on_c, 9, 42, 90
10, 190079, Note_on_c, 9, 42, 0
10, 190080, Note_on_c, 9, 42, 90
10, 190319, Note_on_c, 9, 42, 0
10, 190320, Note_on_c, 9, 42, 90
10, 190559, Note_on_c, 9, 42, 0
10, 190560, Note_on_c, 9, 42, 90
10, 191039, Note_on_c, 9, 42, 0
10, 191040, Note_on_c, 9, 42, 90
10, 191519, Note_on_c, 9, 42, 0
10, 191520, Note_on_c, 9, 42, 90
10, 191999, Note_on_c, 9, 42, 0
10, 192000, Note_on_c, 9, 42, 90
10, 192479, Note_on_c, 9, 42, 0
10, 192480, Note_on_c, 9, 42, 113
10, 192959, Note_on_c, 9, 42, 0
10, 192960, Note_on_c, 9, 42, 90
10, 193439, Note_on_c, 9, 42, 0
10, 193440, Note_on_c, 9, 42, 90
10, 193679, Note_on_c, 9, 42, 0
10, 193680, Note_on_c, 9, 42, 90
10, 193919, Note_on_c, 9, 42, 0
10, 193920, Note_on_c, 9, 42, 112
10, 194399, Note_on_c, 9, 42, 0
10, 194400, Note_on_c, 9, 42, 90
10, 194879, Note_on_c, 9, 42, 0
10, 194880, Note_on_c, 9, 42, 90
10, 195119, Note_on_c, 9, 42, 0
10, 195120, Note_on_c, 9, 42, 90
10, 195359, Note_on_c, 9, 42, 0
10, 195360, Note_on_c, 9, 42, 116
10, 195839, Note_on_c, 9, 42, 0
10, 195840, Note_on_c, 9, 42, 90
10, 196319, Note_on_c, 9, 42, 0
10, 196320, Note_on_c, 9, 42, 90
10, 196559, Note_on_c, 9, 42, 0
10, 196560, Note_on_c, 9, 42, 90
10, 196799, Note_on_c, 9, 42, 0
10, 196800, Note_on_c, 9, 42, 90
10, 197279, Note_on_c, 9, 42, 0
10, 197280, Note_on_c, 9, 42, 90
10, 197759, Note_on_c, 9, 42, 0
10, 197760, Note_on_c, 9, 42, 112
10, 198239, Note_on_c, 9, 42, 0
10, 198240, Note_on_c, 9, 42, 90
10, 198719, Note_on_c, 9, 42, 0
10, 198720, Note_on_c, 9, 42, 90
10, 199199, Note_on_c, 9, 42, 0
10, 199200, Note_on_c, 9, 42, 90
10, 199679, Note_on_c, 9, 42, 0
10, 200640, Note_on_c, 9, 42, 111
10, 200879, Note_on_c, 9, 42, 0
10, 200880, Note_on_c, 9, 42, 90
10, 201119, Note_on_c, 9, 42, 0
10, 201120, Note_on_c, 9, 42, 115
10, 201599, Note_on_c, 9, 42, 0
10, 201600, Note_on_c, 9, 42, 90
10, 201839, Note_on_c, 9, 42, 0
10, 201840, Note_on_c, 9, 42, 90
10, 202079, Note_on_c, 9, 42, 0
10, 202080, Note_on_c, 9, 42, 110
10, 202559, Note_on_c, 9, 42, 0
10, 202560, Note_on_c, 9, 42, 90
10, 203039, Note_on_c, 9, 42, 0
10, 203040, Note_on_c, 9, 42, 112
10, 203279, Note_on_c, 9, 42, 0
10, 203280, Note_on_c, 9, 42, 90
10, 203519, Note_on_c, 9, 42, 0
10, 203520, Note_on_c, 9, 42, 90
10, 203999, Note_on_c, 9, 42, 0
10, 204000, Note_on_c, 9, 42, 90
10, 204479, Note_on_c, 9, 42, 0
10, 204480, Note_on_c, 9, 42, 90
10, 204719, Note_on_c, 9, 42, 0
10, 204720, Note_on_c, 9, 42, 90
10, 204959, Note_on_c, 9, 42, 0
10, 204960, Note_on_c, 9, 42, 90
10, 205439, Note_on_c, 9, 42, 0
10, 205440, Note_on_c, 9, 42, 115
10, 205919, Note_on_c, 9, 42, 0
10, 205920, Note_on_c, 9, 42, 90
10, 206399, Note_on_c, 9, 42, 0
10, 206400, Note_on_c, 9, 42, 90
10, 206879, Note_on_c, 9, 42, 0
10, 206880, Note_on_c, 9, 42, 90
10, 207359, Note_on_c, 9, 42, 0
10, 207360, Note_on_c, 9, 42, 121
10, 207839, Note_on_c, 9, 42, 0
10, 207840, Note_on_c, 9, 42, 121
10, 208079, Note_on_c, 9, 42, 0
10, 208080, Note_on_c, 9, 42, 121
10, 208319, Note_on_c, 9, 42, 0
10, 208320, Note_on_c, 9, 42, 121
10, 208559, Note_on_c, 9, 42, 0
10, 208560, Note_on_c, 9, 42, 121
10, 208799, Note_on_c, 9, 42, 0
10, 208800, Note_on_c, 9, 42, 121
10, 209039, Note_on_c, 9, 42, 0
10, 209040, Note_on_c, 9, 42, 121
10, 209279, Note_on_c, 9, 42, 0
10, 209280, Note_on_c, 9, 42, 121
10, 209759, Note_on_c, 9, 42, 0
10, 209760, Note_on_c, 9, 42, 121
10, 210239, Note_on_c, 9, 42, 0
10, 210240, Note_on_c, 9, 42, 121
10, 210719, Note_on_c, 9, 42, 0
10, 210720, Note_on_c, 9, 42, 90
10, 211199, Note_on_c, 9, 42, 0
10, 211440, Note_on_c, 9, 42, 90
10, 211679, Note_on_c, 9, 42, 0
10, 211680, Note_on_c, 9, 42, 90
10, 212159, Note_on_c, 9, 42, 0
10, 212160, Note_on_c, 9, 42, 90
10, 212639, Note_on_c, 9, 42, 0
10, 212640, Note_on_c, 9, 42, 111
10, 213119, Note_on_c, 9, 42, 0
10, 213120, Note_on_c, 9, 42, 111
10, 213359, Note_on_c, 9, 42, 0
10, 213360, Note_on_c, 9, 42, 90
10, 213599, Note_on_c, 9, 42, 0
10, 213600, Note_on_c, 9, 42, 90
10, 214079, Note_on_c, 9, 42, 0
10, 214080, Note_on_c, 9, 42, 90
10, 214559, Note_on_c, 9, 42, 0
10, 215040, Note_on_c, 9, 42, 90
10, 215519, Note_on_c, 9, 42, 0
10, 215520, Note_on_c, 9, 42, 116
10, 215999, Note_on_c, 9, 42, 0
10, 216000, Note_on_c, 9, 42, 90
10, 216479, Note_on_c, 9, 42, 0
10, 216480, Note_on_c, 9, 42, 90
10, 216959, Note_on_c, 9, 42, 0
10, 216960, Note_on_c, 9, 42, 111
10, 217199, Note_on_c, 9, 42, 0
10, 217200, Note_on_c, 9, 42, 90
10, 217439, Note_on_c, 9, 42, 0
10, 217440, Note_on_c, 9, 42, 90
10, 217919, Note_on_c, 9, 42, 0
10, 217920, Note_on_c, 9, 42, 90
10, 218399, Note_on_c, 9, 42, 0
10, 218880, Note_on_c, 9, 42, 90
10, 219359, Note_on_c, 9, 42, 0
10, 219360, Note_on_c, 9, 42, 116
10, 219839, Note_on_c, 9, 42, 0
10, 219840, Note_on_c, 9, 42, 90
10, 220319, Note_on_c, 9, 42, 0
10, 220320, Note_on_c, 9, 42, 90
10, 220799, Note_on_c, 9, 42, 0
10, 220800, Note_on_c, 9, 42, 90
10, 221279, Note_on_c, 9, 42, 0
10, 224640, Note_on_c, 9, 42, 121
10, 225119, Note_on_c, 9, 42, 0
10, 225120, Note_on_c, 9, 42, 121
10, 225599, Note_on_c, 9, 42, 0
10, 225600, Note_on_c, 9, 42, 121
10, 226079, Note_on_c, 9, 42, 0
10, 226080, Note_on_c, 9, 42, 90
10, 226559, Note_on_c, 9, 42, 0
10, 226800, Note_on_c, 9, 42, 90
10, 227039, Note_on_c, 9, 42, 0
10, 227040, Note_on_c, 9, 42, 90
10, 227519, Note_on_c, 9, 42, 0
10, 227520, Note_on_c, 9, 42, 90
10, 227999, Note_on_c, 9, 42, 0
10, 228000, Note_on_c, 9, 42, 111
10, 228479, Note_on_c, 9, 42, 0
10, 228480, Note_on_c, 9, 42, 111
10, 228719, Note_on_c, 9, 42, 0
10, 228720, Note_on_c, 9, 42, 90
10, 228959, Note_on_c, 9, 42, 0
10, 228960, Note_on_c, 9, 42, 90
10, 229439, Note_on_c, 9, 42, 0
10, 229440, Note_on_c, 9, 42, 90
10, 229919, Note_on_c, 9, 42, 0
10, 230400, Note_on_c, 9, 42, 90
10, 230879, Note_on_c, 9, 42, 0
10, 230880, Note_on_c, 9, 42, 116
10, 231359, Note_on_c, 9, 42, 0
10, 231360, Note_on_c, 9, 42, 90
10, 231839, Note_on_c, 9, 42, 0
10, 231840, Note_on_c, 9, 42, 90
10, 232319, Note_on_c, 9, 42, 0
10, 232320, Note_on_c, 9, 42, 111
10, 232559, Note_on_c, 9, 42, 0
10, 232560, Note_on_c, 9, 42, 90
10, 232799, Note_on_c, 9, 42, 0
10, 232800, Note_on_c, 9, 42, 90
10, 233279, Note_on_c, 9, 42, 0
10, 233280, Note_on_c, 9, 42, 90
10, 233759, Note_on_c, 9, 42, 0
10, 234240, Note_on_c, 9, 42, 90
10, 234719, Note_on_c, 9, 42, 0
10, 234720, Note_on_c, 9, 42, 116
10, 235199, Note_on_c, 9, 42, 0
10, 235200, Note_on_c, 9, 42, 90
10, 235679, Note_on_c, 9, 42, 0
10, 235680, Note_on_c, 9, 42, 90
10, 236159, Note_on_c, 9, 42, 0
10, 236160, Note_on_c, 9, 42, 90
10, 236399, Note_on_c, 9, 42, 0
10, 236400, Note_on_c, 9, 42, 90
10, 236639, Note_on_c, 9, 42, 0
10, 236640, Note_on_c, 9, 42, 90
10, 237119, Note_on_c, 9, 42, 0
10, 237120, Note_on_c, 9, 42, 90
10, 237599, Note_on_c, 9, 42, 0
10, 237600, Note_on_c, 9, 42, 90
10, 238079, Note_on_c, 9, 42, 0
10, 238080, Note_on_c, 9, 44, 127
10, 238319, Note_on_c, 9, 44, 0
10, 238320, Note_on_c, 9, 44, 92
10, 238559, Note_on_c, 9, 44, 0
10, 238560, Note_on_c, 9, 44, 127
10, 238799, Note_on_c, 9, 44, 0
10, 238800, Note_on_c, 9, 44, 89
10, 239039, Note_on_c, 9, 44, 0
10, 239040, Note_on_c, 9, 44, 127
10, 239279, Note_on_c, 9, 44, 0
10, 239280, Note_on_c, 9, 44, 91
10, 239519, Note_on_c, 9, 44, 0
10, 239520, Note_on_c, 9, 44, 127
10, 239999, Note_on_c, 9, 44, 0
10, 240000, Note_on_c, 9, 42, 127
10, 240239, Note_on_c, 9, 42, 0
10, 240240, Note_on_c, 9, 42, 90
10, 240479, Note_on_c, 9, 42, 0
10, 240480, Note_on_c, 9, 42, 90
10, 240959, Note_on_c, 9, 42, 0
10, 240960, Note_on_c, 9, 42, 90
10, 241439, Note_on_c, 9, 42, 0
10, 241440, Note_on_c, 9, 42, 90
10, 241919, Note_on_c, 9, 42, 0
10, 241920, Note_on_c, 9, 44, 127
10, 242399, Note_on_c, 9, 44, 0
10, 242400, Note_on_c, 9, 44, 127
10, 242879, Note_on_c, 9, 44, 0
10, 242880, Note_on_c, 9, 44, 127
10, 243119, Note_on_c, 9, 44, 0
10, 243120, Note_on_c, 9, 44, 127
10, 243359, Note_on_c, 9, 44, 0
10, 243360, Note_on_c, 9, 44, 127
10, 243599, Note_on_c, 9, 44, 0
10, 243600, Note_on_c, 9, 44, 127
10, 243839, Note_on_c, 9, 44, 0
10, 243840, Note_on_c, 9, 42, 90
10, 244079, Note_on_c, 9, 42, 0
10, 244080, Note_on_c, 9, 42, 90
10, 244319, Note_on_c, 9, 42, 0
10, 244320, Note_on_c, 9, 42, 90
10, 244799, Note_on_c, 9, 42, 0
10, 244800, Note_on_c, 9, 42, 90
10, 245279, Note_on_c, 9, 42, 0
10, 245280, Note_on_c, 9, 42, 90
10, 245759, Note_on_c, 9, 42, 0
10, 245760, Note_on_c, 9, 44, 127
10, 245999, Note_on_c, 9, 44, 0
10, 246000, Note_on_c, 9, 44, 92
10, 246239, Note_on_c, 9, 44, 0
10, 246240, Note_on_c, 9, 44, 127
10, 246479, Note_on_c, 9, 44, 0
10, 246480, Note_on_c, 9, 44, 89
10, 246719, Note_on_c, 9, 44, 0
10, 246720, Note_on_c, 9, 44, 127
10, 246959, Note_on_c, 9, 44, 0
10, 246960, Note_on_c, 9, 44, 91
10, 247199, Note_on_c, 9, 44, 0
10, 247200, Note_on_c, 9, 44, 127
10, 247679, Note_on_c, 9, 44, 0
10, 247680, Note_on_c, 9, 42, 127
10, 247919, Note_on_c, 9, 42, 0
10, 247920, Note_on_c, 9, 42, 90
10, 248159, Note_on_c, 9, 42, 0
10, 248160, Note_on_c, 9, 42, 90
10, 248639, Note_on_c, 9, 42, 0
10, 248640, Note_on_c, 9, 42, 90
10, 249119, Note_on_c, 9, 42, 0
10, 249120, Note_on_c, 9, 42, 90
10, 249599, Note_on_c, 9, 42, 0
10, 249600, Note_on_c, 9, 44, 127
10, 250079, Note_on_c, 9, 44, 0
10, 250080, Note_on_c, 9, 44, 127
10, 250559, Note_on_c, 9, 44, 0
10, 250560, Note_on_c, 9, 44, 127
10, 251039, Note_on_c, 9, 44, 0
10, 251040, End_track
0, 0, End_of_file
