0, 0, Header, 1, 1, 480
1, 0, Start_track
1, 0, Time_signature, 4, 2, 24, 8
1, 0, Key_signature, 0, "major"
1, 0, Tempo, 491803
1, 0, Control_c, 9, 121, 0
1, 0, Program_c, 9, 0
1, 0, Control_c, 9, 7, 111
1, 0, Control_c, 9, 10, 64
1, 0, Control_c, 9, 91, 0
1, 0, Control_c, 9, 93, 0
1, 0, MIDI_port, 0
1, 3195, Note_on_c, 9, 38, 68
1, 3239, Note_on_c, 9, 38, 0
1, 3280, Note_on_c, 9, 38, 89
1, 3299, Note_on_c, 9, 38, 0
1, 3360, Note_on_c, 9, 38, 121
1, 3599, Note_on_c, 9, 38, 0
1, 3600, Note_on_c, 9, 45, 88
1, 3839, Note_on_c, 9, 45, 0
1, 3840, Note_on_c, 9, 36, 108
1, 4079, Note_on_c, 9, 36, 0
1, 4080, Note_on_c, 9, 36, 93
1, 4319, Note_on_c, 9, 36, 0
1, 4320, Note_on_c, 9, 46, 63
1, 4320, Note_on_c, 9, 42, 95
1, 4799, Note_on_c, 9, 46, 0
1, 4799, Note_on_c, 9, 42, 0
1, 4800, Note_on_c, 9, 36, 92
1, 5039, Note_on_c, 9, 36, 0
1, 5040, Note_on_c, 9, 36, 89
1, 5279, Note_on_c, 9, 36, 0
1, 5280, Note_on_c, 9, 46, 63
1, 5280, Note_on_c, 9, 42, 95
1, 5520, Note_on_c, 9, 36, 70
1, 5759, Note_on_c, 9, 46, 0
1, 5759, Note_on_c, 9, 42, 0
1, 5759, Note_on_c, 9, 36, 0
1, 5760, Note_on_c, 9, 36, 82
1, 5999, Note_on_c, 9, 36, 0
1, 6000, Note_on_c, 9, 36, 82
1, 6239, Note_on_c, 9, 36, 0
1, 6240, Note_on_c, 9, 46, 63
1, 6240, Note_on_c, 9, 42, 87
1, 6719, Note_on_c, 9, 46, 0
1, 6719, Note_on_c, 9, 42, 0
1, 6720, Note_on_c, 9, 36, 89
1, 6959, Note_on_c, 9, 36, 0
1, 6960, Note_on_c, 9, 36, 88
1, 7199, Note_on_c, 9, 36, 0
1, 7200, Note_on_c, 9, 46, 63
1, 7200, Note_on_c, 9, 42, 87
1, 7679, Note_on_c, 9, 46, 0
1, 7679, Note_on_c, 9, 42, 0
1, 7680, Note_on_c, 9, 36, 116
1, 7919, Note_on_c, 9, 36, 0
1, 7920, Note_on_c, 9, 36, 95
1, 8159, Note_on_c, 9, 36, 0
1, 8160, Note_on_c, 9, 46, 63
1, 8160, Note_on_c, 9, 42, 87
1, 8639, Note_on_c, 9, 46, 0
1, 8639, Note_on_c, 9, 42, 0
1, 8640, Note_on_c, 9, 36, 94
1, 8879, Note_on_c, 9, 36, 0
1, 8880, Note_on_c, 9, 36, 102
1, 9119, Note_on_c, 9, 36, 0
1, 9120, Note_on_c, 9, 46, 63
1, 9120, Note_on_c, 9, 42, 89
1, 9360, Note_on_c, 9, 36, 66
1, 9599, Note_on_c, 9, 46, 0
1, 9599, Note_on_c, 9, 42, 0
1, 9599, Note_on_c, 9, 36, 0
1, 9600, Note_on_c, 9, 36, 82
1, 9839, Note_on_c, 9, 36, 0
1, 9840, Note_on_c, 9, 36, 82
1, 10079, Note_on_c, 9, 36, 0
1, 10080, Note_on_c, 9, 46, 63
1, 10080, Note_on_c, 9, 42, 91
1, 10559, Note_on_c, 9, 46, 0
1, 10559, Note_on_c, 9, 42, 0
1, 10560, Note_on_c, 9, 36, 94
1, 10799, Note_on_c, 9, 36, 0
1, 10800, Note_on_c, 9, 36, 92
1, 11039, Note_on_c, 9, 36, 0
1, 11040, Note_on_c, 9, 46, 63
1, 11040, Note_on_c, 9, 42, 85
1, 11519, Note_on_c, 9, 46, 0
1, 11519, Note_on_c, 9, 42, 0
1, 11520, Note_on_c, 9, 36, 118
1, 11759, Note_on_c, 9, 36, 0
1, 11760, Note_on_c, 9, 36, 97
1, 11999, Note_on_c, 9, 36, 0
1, 12000, Note_on_c, 9, 38, 94
1, 12479, Note_on_c, 9, 38, 0
1, 12480, Note_on_c, 9, 36, 96
1, 12719, Note_on_c, 9, 36, 0
1, 12720, Note_on_c, 9, 36, 88
1, 12959, Note_on_c, 9, 36, 0
1, 12960, Note_on_c, 9, 38, 85
1, 13200, Note_on_c, 9, 36, 61
1, 13439, Note_on_c, 9, 38, 0
1, 13439, Note_on_c, 9, 36, 0
1, 13440, Note_on_c, 9, 36, 85
1, 13679, Note_on_c, 9, 36, 0
1, 13680, Note_on_c, 9, 36, 76
1, 13919, Note_on_c, 9, 36, 0
1, 13920, Note_on_c, 9, 38, 84
1, 14399, Note_on_c, 9, 38, 0
1, 14400, Note_on_c, 9, 36, 84
1, 14639, Note_on_c, 9, 36, 0
1, 14640, Note_on_c, 9, 36, 97
1, 14879, Note_on_c, 9, 36, 0
1, 14880, Note_on_c, 9, 38, 90
1, 15359, Note_on_c, 9, 38, 0
1, 15360, Note_on_c, 9, 36, 105
1, 15599, Note_on_c, 9, 36, 0
1, 15600, Note_on_c, 9, 36, 90
1, 15839, Note_on_c, 9, 36, 0
1, 15840, Note_on_c, 9, 38, 92
1, 16319, Note_on_c, 9, 38, 0
1, 16320, Note_on_c, 9, 36, 97
1, 16559, Note_on_c, 9, 36, 0
1, 16560, Note_on_c, 9, 36, 94
1, 16799, Note_on_c, 9, 36, 0
1, 16800, Note_on_c, 9, 38, 85
1, 17040, Note_on_c, 9, 36, 64
1, 17279, Note_on_c, 9, 38, 0
1, 17279, Note_on_c, 9, 36, 0
1, 17280, Note_on_c, 9, 36, 84
1, 17519, Note_on_c, 9, 36, 0
1, 17520, Note_on_c, 9, 36, 84
1, 17759, Note_on_c, 9, 36, 0
1, 17760, Note_on_c, 9, 38, 92
1, 18239, Note_on_c, 9, 38, 0
1, 18240, Note_on_c, 9, 36, 85
1, 18480, Note_on_c, 9, 38, 97
1, 18719, Note_on_c, 9, 36, 0
1, 18719, Note_on_c, 9, 38, 0
1, 18720, Note_on_c, 9, 38, 111
1, 18960, Note_on_c, 9, 43, 79
1, 19199, Note_on_c, 9, 38, 0
1, 19199, Note_on_c, 9, 43, 0
1, 19200, Note_on_c, 9, 36, 117
1, 19439, Note_on_c, 9, 36, 0
1, 19440, Note_on_c, 9, 36, 102
1, 19679, Note_on_c, 9, 36, 0
1, 19680, Note_on_c, 9, 38, 80
1, 20159, Note_on_c, 9, 38, 0
1, 20160, Note_on_c, 9, 36, 96
1, 20399, Note_on_c, 9, 36, 0
1, 20400, Note_on_c, 9, 36, 90
1, 20639, Note_on_c, 9, 36, 0
1, 20640, Note_on_c, 9, 38, 91
1, 20880, Note_on_c, 9, 36, 56
1, 21119, Note_on_c, 9, 38, 0
1, 21119, Note_on_c, 9, 36, 0
1, 21120, Note_on_c, 9, 36, 88
1, 21359, Note_on_c, 9, 36, 0
1, 21360, Note_on_c, 9, 36, 81
1, 21599, Note_on_c, 9, 36, 0
1, 21600, Note_on_c, 9, 38, 88
1, 22079, Note_on_c, 9, 38, 0
1, 22080, Note_on_c, 9, 36, 84
1, 22319, Note_on_c, 9, 36, 0
1, 22320, Note_on_c, 9, 36, 99
1, 22559, Note_on_c, 9, 36, 0
1, 22560, Note_on_c, 9, 38, 90
1, 23039, Note_on_c, 9, 38, 0
1, 23040, Note_on_c, 9, 36, 114
1, 23279, Note_on_c, 9, 36, 0
1, 23280, Note_on_c, 9, 36, 90
1, 23519, Note_on_c, 9, 36, 0
1, 23520, Note_on_c, 9, 38, 93
1, 23999, Note_on_c, 9, 38, 0
1, 24000, Note_on_c, 9, 36, 97
1, 24239, Note_on_c, 9, 36, 0
1, 24240, Note_on_c, 9, 36, 95
1, 24479, Note_on_c, 9, 36, 0
1, 24480, Note_on_c, 9, 38, 87
1, 24720, Note_on_c, 9, 36, 59
1, 24959, Note_on_c, 9, 38, 0
1, 24959, Note_on_c, 9, 36, 0
1, 24960, Note_on_c, 9, 36, 88
1, 25199, Note_on_c, 9, 36, 0
1, 25200, Note_on_c, 9, 36, 82
1, 25439, Note_on_c, 9, 36, 0
1, 25440, Note_on_c, 9, 38, 91
1, 25919, Note_on_c, 9, 38, 0
1, 25920, Note_on_c, 9, 36, 93
1, 26159, Note_on_c, 9, 36, 0
1, 26160, Note_on_c, 9, 36, 97
1, 26399, Note_on_c, 9, 36, 0
1, 26400, Note_on_c, 9, 38, 90
1, 26879, Note_on_c, 9, 38, 0
1, 26880, Note_on_c, 9, 36, 112
1, 27119, Note_on_c, 9, 36, 0
1, 27120, Note_on_c, 9, 36, 94
1, 27359, Note_on_c, 9, 36, 0
1, 27360, Note_on_c, 9, 38, 84
1, 27839, Note_on_c, 9, 38, 0
1, 27840, Note_on_c, 9, 36, 97
1, 28079, Note_on_c, 9, 36, 0
1, 28080, Note_on_c, 9, 36, 100
1, 28319, Note_on_c, 9, 36, 0
1, 28320, Note_on_c, 9, 38, 87
1, 28560, Note_on_c, 9, 36, 59
1, 28799, Note_on_c, 9, 38, 0
1, 28799, Note_on_c, 9, 36, 0
1, 28800, Note_on_c, 9, 36, 89
1, 29039, Note_on_c, 9, 36, 0
1, 29040, Note_on_c, 9, 36, 79
1, 29279, Note_on_c, 9, 36, 0
1, 29280, Note_on_c, 9, 38, 94
1, 29759, Note_on_c, 9, 38, 0
1, 29760, Note_on_c, 9, 36, 93
1, 29999, Note_on_c, 9, 36, 0
1, 30000, Note_on_c, 9, 36, 89
1, 30239, Note_on_c, 9, 36, 0
1, 30240, Note_on_c, 9, 38, 93
1, 30719, Note_on_c, 9, 38, 0
1, 30720, Note_on_c, 9, 36, 116
1, 30959, Note_on_c, 9, 36, 0
1, 30960, Note_on_c, 9, 36, 99
1, 31199, Note_on_c, 9, 36, 0
1, 31200, Note_on_c, 9, 38, 84
1, 31679, Note_on_c, 9, 38, 0
1, 31680, Note_on_c, 9, 36, 97
1, 31919, Note_on_c, 9, 36, 0
1, 31920, Note_on_c, 9, 36, 96
1, 32159, Note_on_c, 9, 36, 0
1, 32160, Note_on_c, 9, 38, 90
1, 32400, Note_on_c, 9, 36, 63
1, 32639, Note_on_c, 9, 38, 0
1, 32639, Note_on_c, 9, 36, 0
1, 32640, Note_on_c, 9, 36, 85
1, 32879, Note_on_c, 9, 36, 0
1, 32880, Note_on_c, 9, 36, 75
1, 33119, Note_on_c, 9, 36, 0
1, 33120, Note_on_c, 9, 38, 80
1, 33599, Note_on_c, 9, 38, 0
1, 33600, Note_on_c, 9, 38, 111
1, 33839, Note_on_c, 9, 38, 0
1, 33840, Note_on_c, 9, 45, 96
1, 34079, Note_on_c, 9, 45, 0
1, 34080, Note_on_c, 9, 38, 103
1, 34199, Note_on_c, 9, 38, 0
1, 34200, Note_on_c, 9, 38, 111
1, 34320, Note_on_c, 9, 43, 103
1, 34559, Note_on_c, 9, 38, 0
1, 34559, Note_on_c, 9, 43, 0
1, 34560, Note_on_c, 9, 36, 106
1, 34799, Note_on_c, 9, 36, 0
1, 34800, Note_on_c, 9, 36, 99
1, 35039, Note_on_c, 9, 36, 0
1, 35040, Note_on_c, 9, 38, 89
1, 35519, Note_on_c, 9, 38, 0
1, 35520, Note_on_c, 9, 36, 95
1, 35759, Note_on_c, 9, 36, 0
1, 35760, Note_on_c, 9, 36, 92
1, 35999, Note_on_c, 9, 36, 0
1, 36000, Note_on_c, 9, 38, 94
1, 36240, Note_on_c, 9, 36, 62
1, 36479, Note_on_c, 9, 38, 0
1, 36479, Note_on_c, 9, 36, 0
1, 36480, Note_on_c, 9, 36, 85
1, 36719, Note_on_c, 9, 36, 0
1, 36720, Note_on_c, 9, 36, 76
1, 36959, Note_on_c, 9, 36, 0
1, 36960, Note_on_c, 9, 38, 84
1, 37439, Note_on_c, 9, 38, 0
1, 37440, Note_on_c, 9, 36, 86
1, 37679, Note_on_c, 9, 36, 0
1, 37680, Note_on_c, 9, 36, 94
1, 37919, Note_on_c, 9, 36, 0
1, 37920, Note_on_c, 9, 38, 102
1, 38399, Note_on_c, 9, 38, 0
1, 38400, Note_on_c, 9, 36, 108
1, 38639, Note_on_c, 9, 36, 0
1, 38640, Note_on_c, 9, 36, 91
1, 38879, Note_on_c, 9, 36, 0
1, 38880, Note_on_c, 9, 38, 94
1, 39359, Note_on_c, 9, 38, 0
1, 39360, Note_on_c, 9, 36, 101
1, 39599, Note_on_c, 9, 36, 0
1, 39600, Note_on_c, 9, 36, 88
1, 39839, Note_on_c, 9, 36, 0
1, 39840, Note_on_c, 9, 38, 81
1, 40080, Note_on_c, 9, 36, 63
1, 40319, Note_on_c, 9, 38, 0
1, 40319, Note_on_c, 9, 36, 0
1, 40320, Note_on_c, 9, 36, 90
1, 40559, Note_on_c, 9, 36, 0
1, 40560, Note_on_c, 9, 36, 74
1, 40799, Note_on_c, 9, 36, 0
1, 40800, Note_on_c, 9, 38, 90
1, 41279, Note_on_c, 9, 38, 0
1, 41280, Note_on_c, 9, 36, 90
1, 41519, Note_on_c, 9, 36, 0
1, 41520, Note_on_c, 9, 36, 94
1, 41759, Note_on_c, 9, 36, 0
1, 41760, Note_on_c, 9, 38, 92
1, 42239, Note_on_c, 9, 38, 0
1, 42240, Note_on_c, 9, 36, 106
1, 42479, Note_on_c, 9, 36, 0
1, 42480, Note_on_c, 9, 36, 98
1, 42719, Note_on_c, 9, 36, 0
1, 42720, Note_on_c, 9, 38, 91
1, 43199, Note_on_c, 9, 38, 0
1, 43200, Note_on_c, 9, 36, 96
1, 43439, Note_on_c, 9, 36, 0
1, 43440, Note_on_c, 9, 36, 95
1, 43679, Note_on_c, 9, 36, 0
1, 43680, Note_on_c, 9, 38, 92
1, 43920, Note_on_c, 9, 36, 69
1, 44159, Note_on_c, 9, 38, 0
1, 44159, Note_on_c, 9, 36, 0
1, 44160, Note_on_c, 9, 36, 84
1, 44399, Note_on_c, 9, 36, 0
1, 44400, Note_on_c, 9, 36, 76
1, 44639, Note_on_c, 9, 36, 0
1, 44640, Note_on_c, 9, 38, 85
1, 45119, Note_on_c, 9, 38, 0
1, 45120, Note_on_c, 9, 36, 87
1, 45359, Note_on_c, 9, 36, 0
1, 45360, Note_on_c, 9, 36, 93
1, 45599, Note_on_c, 9, 36, 0
1, 45600, Note_on_c, 9, 38, 101
1, 46079, Note_on_c, 9, 38, 0
1, 46080, Note_on_c, 9, 36, 107
1, 46319, Note_on_c, 9, 36, 0
1, 46320, Note_on_c, 9, 36, 94
1, 46559, Note_on_c, 9, 36, 0
1, 46560, Note_on_c, 9, 38, 91
1, 47039, Note_on_c, 9, 38, 0
1, 47040, Note_on_c, 9, 36, 92
1, 47279, Note_on_c, 9, 36, 0
1, 47280, Note_on_c, 9, 36, 95
1, 47519, Note_on_c, 9, 36, 0
1, 47520, Note_on_c, 9, 38, 88
1, 47760, Note_on_c, 9, 36, 66
1, 47999, Note_on_c, 9, 38, 0
1, 47999, Note_on_c, 9, 36, 0
1, 48000, Note_on_c, 9, 36, 83
1, 48239, Note_on_c, 9, 36, 0
1, 48240, Note_on_c, 9, 36, 74
1, 48479, Note_on_c, 9, 36, 0
1, 48480, Note_on_c, 9, 38, 82
1, 48959, Note_on_c, 9, 38, 0
1, 48960, Note_on_c, 9, 38, 87
1, 49199, Note_on_c, 9, 38, 0
1, 49200, Note_on_c, 9, 38, 102
1, 49319, Note_on_c, 9, 38, 0
1, 49320, Note_on_c, 9, 38, 102
1, 49439, Note_on_c, 9, 38, 0
1, 49440, Note_on_c, 9, 38, 102
1, 49679, Note_on_c, 9, 38, 0
1, 49680, Note_on_c, 9, 45, 102
1, 49919, Note_on_c, 9, 45, 0
1, 49920, Note_on_c, 9, 51, 67
1, 49920, Note_on_c, 9, 36, 104
1, 50159, Note_on_c, 9, 36, 0
1, 50160, Note_on_c, 9, 36, 89
1, 50399, Note_on_c, 9, 51, 0
1, 50399, Note_on_c, 9, 36, 0
1, 50400, Note_on_c, 9, 38, 86
1, 50400, Note_on_c, 9, 54, 78
1, 50879, Note_on_c, 9, 38, 0
1, 50879, Note_on_c, 9, 54, 0
1, 50880, Note_on_c, 9, 51, 73
1, 50880, Note_on_c, 9, 36, 91
1, 51119, Note_on_c, 9, 36, 0
1, 51120, Note_on_c, 9, 36, 100
1, 51359, Note_on_c, 9, 51, 0
1, 51359, Note_on_c, 9, 36, 0
1, 51360, Note_on_c, 9, 38, 80
1, 51360, Note_on_c, 9, 54, 82
1, 51600, Note_on_c, 9, 36, 64
1, 51839, Note_on_c, 9, 38, 0
1, 51839, Note_on_c, 9, 54, 0
1, 51839, Note_on_c, 9, 36, 0
1, 51840, Note_on_c, 9, 51, 73
1, 51840, Note_on_c, 9, 36, 84
1, 52079, Note_on_c, 9, 36, 0
1, 52080, Note_on_c, 9, 36, 85
1, 52319, Note_on_c, 9, 51, 0
1, 52319, Note_on_c, 9, 36, 0
1, 52320, Note_on_c, 9, 38, 91
1, 52320, Note_on_c, 9, 54, 84
1, 52799, Note_on_c, 9, 38, 0
1, 52799, Note_on_c, 9, 54, 0
1, 52800, Note_on_c, 9, 51, 70
1, 52800, Note_on_c, 9, 36, 81
1, 53039, Note_on_c, 9, 36, 0
1, 53040, Note_on_c, 9, 36, 95
1, 53279, Note_on_c, 9, 51, 0
1, 53279, Note_on_c, 9, 36, 0
1, 53280, Note_on_c, 9, 38, 88
1, 53280, Note_on_c, 9, 54, 80
1, 53759, Note_on_c, 9, 38, 0
1, 53759, Note_on_c, 9, 54, 0
1, 53760, Note_on_c, 9, 51, 70
1, 53760, Note_on_c, 9, 36, 108
1, 53999, Note_on_c, 9, 36, 0
1, 54000, Note_on_c, 9, 36, 101
1, 54239, Note_on_c, 9, 51, 0
1, 54239, Note_on_c, 9, 36, 0
1, 54240, Note_on_c, 9, 38, 81
1, 54240, Note_on_c, 9, 54, 80
1, 54719, Note_on_c, 9, 38, 0
1, 54719, Note_on_c, 9, 54, 0
1, 54720, Note_on_c, 9, 51, 70
1, 54720, Note_on_c, 9, 36, 92
1, 54959, Note_on_c, 9, 36, 0
1, 54960, Note_on_c, 9, 36, 89
1, 55199, Note_on_c, 9, 51, 0
1, 55199, Note_on_c, 9, 36, 0
1, 55200, Note_on_c, 9, 38, 80
1, 55200, Note_on_c, 9, 54, 80
1, 55440, Note_on_c, 9, 36, 58
1, 55679, Note_on_c, 9, 38, 0
1, 55679, Note_on_c, 9, 54, 0
1, 55679, Note_on_c, 9, 36, 0
1, 55680, Note_on_c, 9, 51, 70
1, 55680, Note_on_c, 9, 36, 91
1, 55919, Note_on_c, 9, 36, 0
1, 55920, Note_on_c, 9, 36, 73
1, 56159, Note_on_c, 9, 51, 0
1, 56159, Note_on_c, 9, 36, 0
1, 56160, Note_on_c, 9, 38, 82
1, 56160, Note_on_c, 9, 54, 80
1, 56639, Note_on_c, 9, 38, 0
1, 56639, Note_on_c, 9, 54, 0
1, 56640, Note_on_c, 9, 51, 70
1, 56640, Note_on_c, 9, 36, 91
1, 56879, Note_on_c, 9, 36, 0
1, 56880, Note_on_c, 9, 36, 95
1, 57119, Note_on_c, 9, 51, 0
1, 57119, Note_on_c, 9, 36, 0
1, 57120, Note_on_c, 9, 38, 96
1, 57120, Note_on_c, 9, 54, 80
1, 57599, Note_on_c, 9, 38, 0
1, 57599, Note_on_c, 9, 54, 0
1, 57600, Note_on_c, 9, 51, 70
1, 57600, Note_on_c, 9, 36, 114
1, 57839, Note_on_c, 9, 36, 0
1, 57840, Note_on_c, 9, 36, 101
1, 58079, Note_on_c, 9, 51, 0
1, 58079, Note_on_c, 9, 36, 0
1, 58080, Note_on_c, 9, 38, 86
1, 58080, Note_on_c, 9, 54, 80
1, 58559, Note_on_c, 9, 38, 0
1, 58559, Note_on_c, 9, 54, 0
1, 58560, Note_on_c, 9, 51, 70
1, 58560, Note_on_c, 9, 36, 102
1, 58799, Note_on_c, 9, 36, 0
1, 58800, Note_on_c, 9, 36, 88
1, 59039, Note_on_c, 9, 51, 0
1, 59039, Note_on_c, 9, 36, 0
1, 59040, Note_on_c, 9, 38, 93
1, 59040, Note_on_c, 9, 54, 80
1, 59280, Note_on_c, 9, 36, 68
1, 59519, Note_on_c, 9, 38, 0
1, 59519, Note_on_c, 9, 54, 0
1, 59519, Note_on_c, 9, 36, 0
1, 59520, Note_on_c, 9, 51, 70
1, 59520, Note_on_c, 9, 36, 94
1, 59759, Note_on_c, 9, 36, 0
1, 59760, Note_on_c, 9, 36, 82
1, 59999, Note_on_c, 9, 51, 0
1, 59999, Note_on_c, 9, 36, 0
1, 60000, Note_on_c, 9, 38, 89
1, 60000, Note_on_c, 9, 54, 80
1, 60479, Note_on_c, 9, 38, 0
1, 60479, Note_on_c, 9, 54, 0
1, 60480, Note_on_c, 9, 51, 70
1, 60480, Note_on_c, 9, 36, 82
1, 60719, Note_on_c, 9, 36, 0
1, 60720, Note_on_c, 9, 36, 98
1, 60959, Note_on_c, 9, 51, 0
1, 60959, Note_on_c, 9, 36, 0
1, 60960, Note_on_c, 9, 38, 102
1, 60960, Note_on_c, 9, 54, 80
1, 61439, Note_on_c, 9, 38, 0
1, 61439, Note_on_c, 9, 54, 0
1, 61440, Note_on_c, 9, 51, 70
1, 61440, Note_on_c, 9, 36, 104
1, 61679, Note_on_c, 9, 36, 0
1, 61680, Note_on_c, 9, 36, 90
1, 61919, Note_on_c, 9, 51, 0
1, 61919, Note_on_c, 9, 36, 0
1, 61920, Note_on_c, 9, 38, 94
1, 61920, Note_on_c, 9, 54, 80
1, 62399, Note_on_c, 9, 38, 0
1, 62399, Note_on_c, 9, 54, 0
1, 62400, Note_on_c, 9, 51, 70
1, 62400, Note_on_c, 9, 36, 94
1, 62639, Note_on_c, 9, 36, 0
1, 62640, Note_on_c, 9, 36, 88
1, 62879, Note_on_c, 9, 51, 0
1, 62879, Note_on_c, 9, 36, 0
1, 62880, Note_on_c, 9, 38, 81
1, 62880, Note_on_c, 9, 54, 80
1, 63120, Note_on_c, 9, 36, 64
1, 63359, Note_on_c, 9, 38, 0
1, 63359, Note_on_c, 9, 54, 0
1, 63359, Note_on_c, 9, 36, 0
1, 63360, Note_on_c, 9, 51, 70
1, 63360, Note_on_c, 9, 36, 88
1, 63599, Note_on_c, 9, 51, 0
1, 63600, Note_on_c, 9, 38, 85
1, 63839, Note_on_c, 9, 36, 0
1, 63839, Note_on_c, 9, 38, 0
1, 63840, Note_on_c, 9, 38, 103
1, 63840, Note_on_c, 9, 54, 80
1, 64079, Note_on_c, 9, 38, 0
1, 64079, Note_on_c, 9, 54, 0
1, 64080, Note_on_c, 9, 38, 111
1, 64319, Note_on_c, 9, 38, 0
1, 64320, Note_on_c, 9, 38, 79
1, 64320, Note_on_c, 9, 51, 70
1, 64320, Note_on_c, 9, 36, 95
1, 64559, Note_on_c, 9, 38, 0
1, 64559, Note_on_c, 9, 51, 0
1, 64560, Note_on_c, 9, 38, 111
1, 64799, Note_on_c, 9, 36, 0
1, 64799, Note_on_c, 9, 38, 0
1, 64800, Note_on_c, 9, 38, 95
1, 64800, Note_on_c, 9, 54, 80
1, 64919, Note_on_c, 9, 38, 0
1, 64919, Note_on_c, 9, 54, 0
1, 64920, Note_on_c, 9, 38, 103
1, 65040, Note_on_c, 9, 43, 95
1, 65279, Note_on_c, 9, 38, 0
1, 65279, Note_on_c, 9, 43, 0
1, 65280, Note_on_c, 9, 57, 71
1, 65280, Note_on_c, 9, 36, 110
1, 65759, Note_on_c, 9, 57, 0
1, 65759, Note_on_c, 9, 36, 0
1, 65760, Note_on_c, 9, 38, 114
1, 65760, Note_on_c, 9, 51, 119
1, 66239, Note_on_c, 9, 38, 0
1, 66239, Note_on_c, 9, 51, 0
1, 66240, Note_on_c, 9, 51, 119
1, 66240, Note_on_c, 9, 36, 118
1, 66479, Note_on_c, 9, 36, 0
1, 66480, Note_on_c, 9, 36, 106
1, 66719, Note_on_c, 9, 51, 0
1, 66719, Note_on_c, 9, 36, 0
1, 66720, Note_on_c, 9, 38, 110
1, 66720, Note_on_c, 9, 51, 111
1, 66839, Note_on_c, 9, 38, 0
1, 66839, Note_on_c, 9, 51, 0
1, 66840, Note_on_c, 9, 51, 90
1, 66959, Note_on_c, 9, 51, 0
1, 66960, Note_on_c, 9, 51, 104
1, 67199, Note_on_c, 9, 51, 0
1, 67200, Note_on_c, 9, 54, 96
1, 67200, Note_on_c, 9, 51, 109
1, 67200, Note_on_c, 9, 36, 108
1, 67439, Note_on_c, 9, 54, 0
1, 67439, Note_on_c, 9, 51, 0
1, 67439, Note_on_c, 9, 36, 0
1, 67440, Note_on_c, 9, 51, 70
1, 67440, Note_on_c, 9, 36, 110
1, 67559, Note_on_c, 9, 51, 0
1, 67560, Note_on_c, 9, 51, 76
1, 67679, Note_on_c, 9, 36, 0
1, 67679, Note_on_c, 9, 51, 0
1, 67680, Note_on_c, 9, 38, 91
1, 67680, Note_on_c, 9, 54, 96
1, 67680, Note_on_c, 9, 51, 88
1, 67919, Note_on_c, 9, 38, 0
1, 67919, Note_on_c, 9, 54, 0
1, 67919, Note_on_c, 9, 51, 0
1, 67920, Note_on_c, 9, 51, 64
1, 68039, Note_on_c, 9, 51, 0
1, 68040, Note_on_c, 9, 51, 78
1, 68099, Note_on_c, 9, 51, 0
1, 68145, Note_on_c, 9, 51, 91
1, 68160, Note_on_c, 9, 38, 111
1, 68160, Note_on_c, 9, 54, 96
1, 68399, Note_on_c, 9, 51, 0
1, 68399, Note_on_c, 9, 38, 0
1, 68399, Note_on_c, 9, 54, 0
1, 68400, Note_on_c, 9, 51, 70
1, 68400, Note_on_c, 9, 36, 89
1, 68519, Note_on_c, 9, 51, 0
1, 68520, Note_on_c, 9, 51, 64
1, 68639, Note_on_c, 9, 36, 0
1, 68639, Note_on_c, 9, 51, 0
1, 68640, Note_on_c, 9, 38, 108
1, 68640, Note_on_c, 9, 54, 96
1, 68640, Note_on_c, 9, 51, 81
1, 68879, Note_on_c, 9, 38, 0
1, 68879, Note_on_c, 9, 54, 0
1, 68879, Note_on_c, 9, 51, 0
1, 68880, Note_on_c, 9, 51, 96
1, 69119, Note_on_c, 9, 51, 0
1, 69120, Note_on_c, 9, 38, 105
1, 69120, Note_on_c, 9, 54, 96
1, 69120, Note_on_c, 9, 51, 96
1, 69359, Note_on_c, 9, 38, 0
1, 69359, Note_on_c, 9, 54, 0
1, 69359, Note_on_c, 9, 51, 0
1, 69360, Note_on_c, 9, 51, 78
1, 69360, Note_on_c, 9, 36, 100
1, 69479, Note_on_c, 9, 51, 0
1, 69480, Note_on_c, 9, 51, 61
1, 69539, Note_on_c, 9, 51, 0
1, 69585, Note_on_c, 9, 51, 98
1, 69599, Note_on_c, 9, 36, 0
1, 69600, Note_on_c, 9, 38, 109
1, 69600, Note_on_c, 9, 54, 96
1, 69839, Note_on_c, 9, 51, 0
1, 69839, Note_on_c, 9, 38, 0
1, 69839, Note_on_c, 9, 54, 0
1, 69840, Note_on_c, 9, 51, 69
1, 69959, Note_on_c, 9, 51, 0
1, 69960, Note_on_c, 9, 51, 73
1, 70079, Note_on_c, 9, 51, 0
1, 70080, Note_on_c, 9, 38, 109
1, 70080, Note_on_c, 9, 54, 96
1, 70080, Note_on_c, 9, 51, 94
1, 70319, Note_on_c, 9, 38, 0
1, 70319, Note_on_c, 9, 54, 0
1, 70319, Note_on_c, 9, 51, 0
1, 70320, Note_on_c, 9, 51, 71
1, 70320, Note_on_c, 9, 36, 100
1, 70439, Note_on_c, 9, 51, 0
1, 70440, Note_on_c, 9, 51, 74
1, 70559, Note_on_c, 9, 36, 0
1, 70559, Note_on_c, 9, 51, 0
1, 70560, Note_on_c, 9, 38, 102
1, 70560, Note_on_c, 9, 54, 96
1, 70560, Note_on_c, 9, 51, 88
1, 70679, Note_on_c, 9, 38, 0
1, 70679, Note_on_c, 9, 54, 0
1, 70679, Note_on_c, 9, 51, 0
1, 70680, Note_on_c, 9, 51, 91
1, 70799, Note_on_c, 9, 51, 0
1, 70800, Note_on_c, 9, 51, 109
1, 70800, Note_on_c, 9, 36, 99
1, 71039, Note_on_c, 9, 51, 0
1, 71039, Note_on_c, 9, 36, 0
1, 71040, Note_on_c, 9, 38, 105
1, 71040, Note_on_c, 9, 54, 96
1, 71040, Note_on_c, 9, 51, 109
1, 71279, Note_on_c, 9, 38, 0
1, 71279, Note_on_c, 9, 54, 0
1, 71279, Note_on_c, 9, 51, 0
1, 71280, Note_on_c, 9, 54, 62
1, 71280, Note_on_c, 9, 51, 64
1, 71280, Note_on_c, 9, 36, 105
1, 71399, Note_on_c, 9, 54, 0
1, 71399, Note_on_c, 9, 51, 0
1, 71400, Note_on_c, 9, 54, 62
1, 71400, Note_on_c, 9, 51, 77
1, 71459, Note_on_c, 9, 54, 0
1, 71459, Note_on_c, 9, 51, 0
1, 71505, Note_on_c, 9, 51, 96
1, 71519, Note_on_c, 9, 36, 0
1, 71520, Note_on_c, 9, 38, 90
1, 71520, Note_on_c, 9, 54, 96
1, 71759, Note_on_c, 9, 51, 0
1, 71759, Note_on_c, 9, 38, 0
1, 71759, Note_on_c, 9, 54, 0
1, 71760, Note_on_c, 9, 54, 62
1, 71760, Note_on_c, 9, 51, 64
1, 71879, Note_on_c, 9, 54, 0
1, 71879, Note_on_c, 9, 51, 0
1, 71880, Note_on_c, 9, 54, 62
1, 71880, Note_on_c, 9, 51, 76
1, 71999, Note_on_c, 9, 54, 0
1, 71999, Note_on_c, 9, 51, 0
1, 72000, Note_on_c, 9, 38, 104
1, 72000, Note_on_c, 9, 54, 96
1, 72000, Note_on_c, 9, 51, 98
1, 72239, Note_on_c, 9, 38, 0
1, 72239, Note_on_c, 9, 54, 0
1, 72239, Note_on_c, 9, 51, 0
1, 72240, Note_on_c, 9, 54, 62
1, 72240, Note_on_c, 9, 51, 70
1, 72240, Note_on_c, 9, 36, 102
1, 72359, Note_on_c, 9, 54, 0
1, 72359, Note_on_c, 9, 51, 0
1, 72360, Note_on_c, 9, 54, 62
1, 72360, Note_on_c, 9, 51, 69
1, 72479, Note_on_c, 9, 36, 0
1, 72479, Note_on_c, 9, 54, 0
1, 72479, Note_on_c, 9, 51, 0
1, 72480, Note_on_c, 9, 38, 104
1, 72480, Note_on_c, 9, 54, 96
1, 72480, Note_on_c, 9, 51, 86
1, 72719, Note_on_c, 9, 38, 0
1, 72719, Note_on_c, 9, 54, 0
1, 72719, Note_on_c, 9, 51, 0
1, 72720, Note_on_c, 9, 54, 62
1, 72720, Note_on_c, 9, 51, 102
1, 72839, Note_on_c, 9, 54, 0
1, 72839, Note_on_c, 9, 51, 0
1, 72840, Note_on_c, 9, 54, 62
1, 72959, Note_on_c, 9, 54, 0
1, 72960, Note_on_c, 9, 38, 114
1, 72960, Note_on_c, 9, 54, 96
1, 72960, Note_on_c, 9, 51, 107
1, 73199, Note_on_c, 9, 38, 0
1, 73199, Note_on_c, 9, 54, 0
1, 73199, Note_on_c, 9, 51, 0
1, 73200, Note_on_c, 9, 54, 62
1, 73200, Note_on_c, 9, 51, 66
1, 73200, Note_on_c, 9, 36, 102
1, 73319, Note_on_c, 9, 54, 0
1, 73319, Note_on_c, 9, 51, 0
1, 73320, Note_on_c, 9, 54, 62
1, 73320, Note_on_c, 9, 51, 62
1, 73439, Note_on_c, 9, 36, 0
1, 73439, Note_on_c, 9, 54, 0
1, 73439, Note_on_c, 9, 51, 0
1, 73440, Note_on_c, 9, 38, 118
1, 73440, Note_on_c, 9, 54, 96
1, 73440, Note_on_c, 9, 51, 99
1, 73679, Note_on_c, 9, 38, 0
1, 73679, Note_on_c, 9, 54, 0
1, 73679, Note_on_c, 9, 51, 0
1, 73680, Note_on_c, 9, 54, 62
1, 73680, Note_on_c, 9, 51, 70
1, 73799, Note_on_c, 9, 54, 0
1, 73799, Note_on_c, 9, 51, 0
1, 73800, Note_on_c, 9, 54, 62
1, 73800, Note_on_c, 9, 51, 65
1, 73919, Note_on_c, 9, 54, 0
1, 73919, Note_on_c, 9, 51, 0
1, 73920, Note_on_c, 9, 38, 113
1, 73920, Note_on_c, 9, 54, 96
1, 73920, Note_on_c, 9, 51, 88
1, 74159, Note_on_c, 9, 38, 0
1, 74159, Note_on_c, 9, 54, 0
1, 74159, Note_on_c, 9, 51, 0
1, 74160, Note_on_c, 9, 54, 62
1, 74160, Note_on_c, 9, 51, 64
1, 74160, Note_on_c, 9, 36, 103
1, 74279, Note_on_c, 9, 54, 0
1, 74279, Note_on_c, 9, 51, 0
1, 74280, Note_on_c, 9, 54, 62
1, 74280, Note_on_c, 9, 51, 71
1, 74399, Note_on_c, 9, 36, 0
1, 74399, Note_on_c, 9, 54, 0
1, 74399, Note_on_c, 9, 51, 0
1, 74400, Note_on_c, 9, 38, 98
1, 74400, Note_on_c, 9, 54, 96
1, 74400, Note_on_c, 9, 51, 102
1, 74519, Note_on_c, 9, 38, 0
1, 74519, Note_on_c, 9, 54, 0
1, 74519, Note_on_c, 9, 51, 0
1, 74520, Note_on_c, 9, 51, 90
1, 74639, Note_on_c, 9, 51, 0
1, 74640, Note_on_c, 9, 54, 62
1, 74640, Note_on_c, 9, 51, 118
1, 74640, Note_on_c, 9, 36, 99
1, 74759, Note_on_c, 9, 54, 0
1, 74759, Note_on_c, 9, 51, 0
1, 74760, Note_on_c, 9, 54, 62
1, 74879, Note_on_c, 9, 36, 0
1, 74879, Note_on_c, 9, 54, 0
1, 74880, Note_on_c, 9, 38, 113
1, 74880, Note_on_c, 9, 54, 96
1, 74880, Note_on_c, 9, 51, 108
1, 75119, Note_on_c, 9, 38, 0
1, 75119, Note_on_c, 9, 54, 0
1, 75119, Note_on_c, 9, 51, 0
1, 75120, Note_on_c, 9, 54, 62
1, 75120, Note_on_c, 9, 51, 66
1, 75120, Note_on_c, 9, 36, 98
1, 75239, Note_on_c, 9, 54, 0
1, 75239, Note_on_c, 9, 51, 0
1, 75240, Note_on_c, 9, 54, 62
1, 75240, Note_on_c, 9, 51, 78
1, 75359, Note_on_c, 9, 36, 0
1, 75359, Note_on_c, 9, 54, 0
1, 75359, Note_on_c, 9, 51, 0
1, 75360, Note_on_c, 9, 38, 92
1, 75360, Note_on_c, 9, 54, 96
1, 75360, Note_on_c, 9, 51, 93
1, 75599, Note_on_c, 9, 38, 0
1, 75599, Note_on_c, 9, 54, 0
1, 75599, Note_on_c, 9, 51, 0
1, 75600, Note_on_c, 9, 54, 62
1, 75600, Note_on_c, 9, 51, 69
1, 75719, Note_on_c, 9, 54, 0
1, 75719, Note_on_c, 9, 51, 0
1, 75720, Note_on_c, 9, 54, 62
1, 75720, Note_on_c, 9, 51, 66
1, 75779, Note_on_c, 9, 54, 0
1, 75779, Note_on_c, 9, 51, 0
1, 75825, Note_on_c, 9, 51, 95
1, 75840, Note_on_c, 9, 38, 109
1, 75840, Note_on_c, 9, 54, 96
1, 76079, Note_on_c, 9, 51, 0
1, 76079, Note_on_c, 9, 38, 0
1, 76079, Note_on_c, 9, 54, 0
1, 76080, Note_on_c, 9, 54, 62
1, 76080, Note_on_c, 9, 51, 72
1, 76080, Note_on_c, 9, 36, 97
1, 76199, Note_on_c, 9, 54, 0
1, 76199, Note_on_c, 9, 51, 0
1, 76200, Note_on_c, 9, 54, 62
1, 76200, Note_on_c, 9, 51, 68
1, 76319, Note_on_c, 9, 36, 0
1, 76319, Note_on_c, 9, 54, 0
1, 76319, Note_on_c, 9, 51, 0
1, 76320, Note_on_c, 9, 38, 97
1, 76320, Note_on_c, 9, 54, 96
1, 76320, Note_on_c, 9, 51, 74
1, 76559, Note_on_c, 9, 38, 0
1, 76559, Note_on_c, 9, 54, 0
1, 76559, Note_on_c, 9, 51, 0
1, 76560, Note_on_c, 9, 45, 71
1, 76799, Note_on_c, 9, 45, 0
1, 76800, Note_on_c, 9, 45, 118
1, 77279, Note_on_c, 9, 45, 0
1, 77280, Note_on_c, 9, 36, 95
1, 77759, Note_on_c, 9, 36, 0
1, 78240, Note_on_c, 9, 36, 111
1, 78480, Note_on_c, 9, 45, 87
1, 78719, Note_on_c, 9, 36, 0
1, 78719, Note_on_c, 9, 45, 0
1, 78720, Note_on_c, 9, 45, 119
1, 79199, Note_on_c, 9, 45, 0
1, 79200, Note_on_c, 9, 36, 111
1, 79679, Note_on_c, 9, 36, 0
1, 80160, Note_on_c, 9, 36, 95
1, 80400, Note_on_c, 9, 45, 84
1, 80639, Note_on_c, 9, 36, 0
1, 80639, Note_on_c, 9, 45, 0
1, 80640, Note_on_c, 9, 45, 103
1, 81119, Note_on_c, 9, 45, 0
1, 81120, Note_on_c, 9, 36, 95
1, 81599, Note_on_c, 9, 36, 0
1, 82080, Note_on_c, 9, 36, 95
1, 82320, Note_on_c, 9, 45, 84
1, 82559, Note_on_c, 9, 36, 0
1, 82559, Note_on_c, 9, 45, 0
1, 82560, Note_on_c, 9, 45, 103
1, 83039, Note_on_c, 9, 45, 0
1, 83040, Note_on_c, 9, 36, 95
1, 83519, Note_on_c, 9, 36, 0
1, 83520, Note_on_c, 9, 38, 95
1, 83759, Note_on_c, 9, 38, 0
1, 83760, Note_on_c, 9, 38, 87
1, 83819, Note_on_c, 9, 38, 0
1, 83820, Note_on_c, 9, 38, 87
1, 83879, Note_on_c, 9, 38, 0
1, 83880, Note_on_c, 9, 38, 95
1, 83999, Note_on_c, 9, 38, 0
1, 84000, Note_on_c, 9, 38, 103
1, 84239, Note_on_c, 9, 38, 0
1, 84240, Note_on_c, 9, 45, 103
1, 84479, Note_on_c, 9, 45, 0
1, 84480, Note_on_c, 9, 36, 117
1, 84719, Note_on_c, 9, 36, 0
1, 84720, Note_on_c, 9, 36, 102
1, 84959, Note_on_c, 9, 36, 0
1, 84960, Note_on_c, 9, 38, 80
1, 85439, Note_on_c, 9, 38, 0
1, 85440, Note_on_c, 9, 36, 96
1, 85679, Note_on_c, 9, 36, 0
1, 85680, Note_on_c, 9, 36, 90
1, 85919, Note_on_c, 9, 36, 0
1, 85920, Note_on_c, 9, 38, 91
1, 86160, Note_on_c, 9, 36, 56
1, 86399, Note_on_c, 9, 38, 0
1, 86399, Note_on_c, 9, 36, 0
1, 86400, Note_on_c, 9, 36, 88
1, 86639, Note_on_c, 9, 36, 0
1, 86640, Note_on_c, 9, 36, 81
1, 86879, Note_on_c, 9, 36, 0
1, 86880, Note_on_c, 9, 38, 88
1, 87359, Note_on_c, 9, 38, 0
1, 87360, Note_on_c, 9, 36, 84
1, 87599, Note_on_c, 9, 36, 0
1, 87600, Note_on_c, 9, 36, 99
1, 87839, Note_on_c, 9, 36, 0
1, 87840, Note_on_c, 9, 38, 90
1, 88319, Note_on_c, 9, 38, 0
1, 88320, Note_on_c, 9, 36, 114
1, 88559, Note_on_c, 9, 36, 0
1, 88560, Note_on_c, 9, 36, 90
1, 88799, Note_on_c, 9, 36, 0
1, 88800, Note_on_c, 9, 38, 93
1, 89279, Note_on_c, 9, 38, 0
1, 89280, Note_on_c, 9, 36, 97
1, 89519, Note_on_c, 9, 36, 0
1, 89520, Note_on_c, 9, 36, 95
1, 89759, Note_on_c, 9, 36, 0
1, 89760, Note_on_c, 9, 38, 87
1, 90000, Note_on_c, 9, 36, 59
1, 90239, Note_on_c, 9, 38, 0
1, 90239, Note_on_c, 9, 36, 0
1, 90240, Note_on_c, 9, 36, 88
1, 90479, Note_on_c, 9, 36, 0
1, 90480, Note_on_c, 9, 36, 82
1, 90719, Note_on_c, 9, 36, 0
1, 90720, Note_on_c, 9, 38, 91
1, 91199, Note_on_c, 9, 38, 0
1, 91200, Note_on_c, 9, 36, 93
1, 91439, Note_on_c, 9, 36, 0
1, 91440, Note_on_c, 9, 36, 97
1, 91679, Note_on_c, 9, 36, 0
1, 91680, Note_on_c, 9, 38, 90
1, 92159, Note_on_c, 9, 38, 0
1, 92160, Note_on_c, 9, 36, 112
1, 92399, Note_on_c, 9, 36, 0
1, 92400, Note_on_c, 9, 36, 94
1, 92639, Note_on_c, 9, 36, 0
1, 92640, Note_on_c, 9, 38, 84
1, 93119, Note_on_c, 9, 38, 0
1, 93120, Note_on_c, 9, 36, 97
1, 93359, Note_on_c, 9, 36, 0
1, 93360, Note_on_c, 9, 36, 100
1, 93599, Note_on_c, 9, 36, 0
1, 93600, Note_on_c, 9, 38, 87
1, 93840, Note_on_c, 9, 36, 59
1, 94079, Note_on_c, 9, 38, 0
1, 94079, Note_on_c, 9, 36, 0
1, 94080, Note_on_c, 9, 36, 89
1, 94319, Note_on_c, 9, 36, 0
1, 94320, Note_on_c, 9, 36, 79
1, 94559, Note_on_c, 9, 36, 0
1, 94560, Note_on_c, 9, 38, 94
1, 95039, Note_on_c, 9, 38, 0
1, 95040, Note_on_c, 9, 36, 93
1, 95279, Note_on_c, 9, 36, 0
1, 95280, Note_on_c, 9, 36, 89
1, 95519, Note_on_c, 9, 36, 0
1, 95520, Note_on_c, 9, 38, 93
1, 95999, Note_on_c, 9, 38, 0
1, 96000, Note_on_c, 9, 36, 116
1, 96239, Note_on_c, 9, 36, 0
1, 96240, Note_on_c, 9, 36, 99
1, 96479, Note_on_c, 9, 36, 0
1, 96480, Note_on_c, 9, 38, 84
1, 96959, Note_on_c, 9, 38, 0
1, 96960, Note_on_c, 9, 36, 97
1, 97199, Note_on_c, 9, 36, 0
1, 97200, Note_on_c, 9, 36, 96
1, 97439, Note_on_c, 9, 36, 0
1, 97440, Note_on_c, 9, 38, 90
1, 97680, Note_on_c, 9, 36, 63
1, 97919, Note_on_c, 9, 38, 0
1, 97919, Note_on_c, 9, 36, 0
1, 97920, Note_on_c, 9, 36, 85
1, 98159, Note_on_c, 9, 36, 0
1, 98160, Note_on_c, 9, 36, 75
1, 98399, Note_on_c, 9, 36, 0
1, 98400, Note_on_c, 9, 38, 80
1, 98879, Note_on_c, 9, 38, 0
1, 98880, Note_on_c, 9, 38, 111
1, 99119, Note_on_c, 9, 38, 0
1, 99120, Note_on_c, 9, 41, 96
1, 99359, Note_on_c, 9, 41, 0
1, 99360, Note_on_c, 9, 38, 103
1, 99479, Note_on_c, 9, 38, 0
1, 99480, Note_on_c, 9, 38, 111
1, 99599, Note_on_c, 9, 38, 0
1, 99600, Note_on_c, 9, 41, 103
1, 99839, Note_on_c, 9, 41, 0
1, 99840, Note_on_c, 9, 36, 106
1, 100079, Note_on_c, 9, 36, 0
1, 100080, Note_on_c, 9, 36, 99
1, 100319, Note_on_c, 9, 36, 0
1, 100320, Note_on_c, 9, 38, 89
1, 100799, Note_on_c, 9, 38, 0
1, 100800, Note_on_c, 9, 36, 95
1, 101039, Note_on_c, 9, 36, 0
1, 101040, Note_on_c, 9, 36, 92
1, 101279, Note_on_c, 9, 36, 0
1, 101280, Note_on_c, 9, 38, 94
1, 101520, Note_on_c, 9, 36, 62
1, 101759, Note_on_c, 9, 38, 0
1, 101759, Note_on_c, 9, 36, 0
1, 101760, Note_on_c, 9, 36, 85
1, 101999, Note_on_c, 9, 36, 0
1, 102000, Note_on_c, 9, 36, 76
1, 102239, Note_on_c, 9, 36, 0
1, 102240, Note_on_c, 9, 38, 84
1, 102719, Note_on_c, 9, 38, 0
1, 102720, Note_on_c, 9, 36, 86
1, 102959, Note_on_c, 9, 36, 0
1, 102960, Note_on_c, 9, 36, 94
1, 103199, Note_on_c, 9, 36, 0
1, 103200, Note_on_c, 9, 38, 102
1, 103679, Note_on_c, 9, 38, 0
1, 103680, Note_on_c, 9, 36, 108
1, 103919, Note_on_c, 9, 36, 0
1, 103920, Note_on_c, 9, 36, 91
1, 104159, Note_on_c, 9, 36, 0
1, 104160, Note_on_c, 9, 38, 94
1, 104639, Note_on_c, 9, 38, 0
1, 104640, Note_on_c, 9, 36, 101
1, 104879, Note_on_c, 9, 36, 0
1, 104880, Note_on_c, 9, 36, 88
1, 105119, Note_on_c, 9, 36, 0
1, 105120, Note_on_c, 9, 38, 81
1, 105360, Note_on_c, 9, 36, 63
1, 105599, Note_on_c, 9, 38, 0
1, 105599, Note_on_c, 9, 36, 0
1, 105600, Note_on_c, 9, 36, 90
1, 105839, Note_on_c, 9, 36, 0
1, 105840, Note_on_c, 9, 36, 74
1, 106079, Note_on_c, 9, 36, 0
1, 106080, Note_on_c, 9, 38, 90
1, 106559, Note_on_c, 9, 38, 0
1, 106560, Note_on_c, 9, 36, 90
1, 106799, Note_on_c, 9, 36, 0
1, 106800, Note_on_c, 9, 36, 94
1, 107039, Note_on_c, 9, 36, 0
1, 107040, Note_on_c, 9, 38, 92
1, 107519, Note_on_c, 9, 38, 0
1, 107520, Note_on_c, 9, 36, 106
1, 107759, Note_on_c, 9, 36, 0
1, 107760, Note_on_c, 9, 36, 98
1, 107999, Note_on_c, 9, 36, 0
1, 108000, Note_on_c, 9, 38, 91
1, 108479, Note_on_c, 9, 38, 0
1, 108480, Note_on_c, 9, 36, 96
1, 108719, Note_on_c, 9, 36, 0
1, 108720, Note_on_c, 9, 36, 95
1, 108959, Note_on_c, 9, 36, 0
1, 108960, Note_on_c, 9, 38, 92
1, 109200, Note_on_c, 9, 36, 69
1, 109439, Note_on_c, 9, 38, 0
1, 109439, Note_on_c, 9, 36, 0
1, 109440, Note_on_c, 9, 36, 84
1, 109679, Note_on_c, 9, 36, 0
1, 109680, Note_on_c, 9, 36, 76
1, 109919, Note_on_c, 9, 36, 0
1, 109920, Note_on_c, 9, 38, 85
1, 110399, Note_on_c, 9, 38, 0
1, 110400, Note_on_c, 9, 36, 87
1, 110639, Note_on_c, 9, 36, 0
1, 110640, Note_on_c, 9, 36, 93
1, 110879, Note_on_c, 9, 36, 0
1, 110880, Note_on_c, 9, 38, 101
1, 111359, Note_on_c, 9, 38, 0
1, 111360, Note_on_c, 9, 36, 107
1, 111599, Note_on_c, 9, 36, 0
1, 111600, Note_on_c, 9, 36, 94
1, 111839, Note_on_c, 9, 36, 0
1, 111840, Note_on_c, 9, 38, 91
1, 112319, Note_on_c, 9, 38, 0
1, 112320, Note_on_c, 9, 36, 92
1, 112559, Note_on_c, 9, 36, 0
1, 112560, Note_on_c, 9, 36, 95
1, 112799, Note_on_c, 9, 36, 0
1, 112800, Note_on_c, 9, 38, 88
1, 113040, Note_on_c, 9, 36, 66
1, 113279, Note_on_c, 9, 38, 0
1, 113279, Note_on_c, 9, 36, 0
1, 113280, Note_on_c, 9, 36, 83
1, 113519, Note_on_c, 9, 36, 0
1, 113520, Note_on_c, 9, 36, 74
1, 113759, Note_on_c, 9, 36, 0
1, 113760, Note_on_c, 9, 38, 82
1, 114239, Note_on_c, 9, 38, 0
1, 114240, Note_on_c, 9, 38, 87
1, 114479, Note_on_c, 9, 38, 0
1, 114480, Note_on_c, 9, 38, 102
1, 114599, Note_on_c, 9, 38, 0
1, 114600, Note_on_c, 9, 38, 102
1, 114719, Note_on_c, 9, 38, 0
1, 114720, Note_on_c, 9, 38, 102
1, 114959, Note_on_c, 9, 38, 0
1, 114960, Note_on_c, 9, 45, 102
1, 115199, Note_on_c, 9, 45, 0
1, 115200, Note_on_c, 9, 51, 67
1, 115200, Note_on_c, 9, 36, 104
1, 115439, Note_on_c, 9, 36, 0
1, 115440, Note_on_c, 9, 36, 89
1, 115679, Note_on_c, 9, 51, 0
1, 115679, Note_on_c, 9, 36, 0
1, 115680, Note_on_c, 9, 38, 86
1, 115680, Note_on_c, 9, 54, 78
1, 116159, Note_on_c, 9, 38, 0
1, 116159, Note_on_c, 9, 54, 0
1, 116160, Note_on_c, 9, 51, 73
1, 116160, Note_on_c, 9, 36, 91
1, 116399, Note_on_c, 9, 36, 0
1, 116400, Note_on_c, 9, 36, 100
1, 116639, Note_on_c, 9, 51, 0
1, 116639, Note_on_c, 9, 36, 0
1, 116640, Note_on_c, 9, 38, 80
1, 116640, Note_on_c, 9, 54, 82
1, 116880, Note_on_c, 9, 36, 64
1, 117119, Note_on_c, 9, 38, 0
1, 117119, Note_on_c, 9, 54, 0
1, 117119, Note_on_c, 9, 36, 0
1, 117120, Note_on_c, 9, 51, 73
1, 117120, Note_on_c, 9, 36, 84
1, 117359, Note_on_c, 9, 36, 0
1, 117360, Note_on_c, 9, 36, 85
1, 117599, Note_on_c, 9, 51, 0
1, 117599, Note_on_c, 9, 36, 0
1, 117600, Note_on_c, 9, 38, 91
1, 117600, Note_on_c, 9, 54, 84
1, 118079, Note_on_c, 9, 38, 0
1, 118079, Note_on_c, 9, 54, 0
1, 118080, Note_on_c, 9, 51, 70
1, 118080, Note_on_c, 9, 36, 81
1, 118319, Note_on_c, 9, 36, 0
1, 118320, Note_on_c, 9, 36, 95
1, 118559, Note_on_c, 9, 51, 0
1, 118559, Note_on_c, 9, 36, 0
1, 118560, Note_on_c, 9, 38, 88
1, 118560, Note_on_c, 9, 54, 80
1, 119039, Note_on_c, 9, 38, 0
1, 119039, Note_on_c, 9, 54, 0
1, 119040, Note_on_c, 9, 51, 70
1, 119040, Note_on_c, 9, 36, 108
1, 119279, Note_on_c, 9, 36, 0
1, 119280, Note_on_c, 9, 36, 101
1, 119519, Note_on_c, 9, 51, 0
1, 119519, Note_on_c, 9, 36, 0
1, 119520, Note_on_c, 9, 38, 81
1, 119520, Note_on_c, 9, 54, 80
1, 119999, Note_on_c, 9, 38, 0
1, 119999, Note_on_c, 9, 54, 0
1, 120000, Note_on_c, 9, 51, 70
1, 120000, Note_on_c, 9, 36, 92
1, 120239, Note_on_c, 9, 36, 0
1, 120240, Note_on_c, 9, 36, 89
1, 120479, Note_on_c, 9, 51, 0
1, 120479, Note_on_c, 9, 36, 0
1, 120480, Note_on_c, 9, 38, 80
1, 120480, Note_on_c, 9, 54, 80
1, 120720, Note_on_c, 9, 36, 58
1, 120959, Note_on_c, 9, 38, 0
1, 120959, Note_on_c, 9, 54, 0
1, 120959, Note_on_c, 9, 36, 0
1, 120960, Note_on_c, 9, 51, 70
1, 120960, Note_on_c, 9, 36, 91
1, 121199, Note_on_c, 9, 36, 0
1, 121200, Note_on_c, 9, 36, 73
1, 121439, Note_on_c, 9, 51, 0
1, 121439, Note_on_c, 9, 36, 0
1, 121440, Note_on_c, 9, 38, 82
1, 121440, Note_on_c, 9, 54, 80
1, 121919, Note_on_c, 9, 38, 0
1, 121919, Note_on_c, 9, 54, 0
1, 121920, Note_on_c, 9, 51, 70
1, 121920, Note_on_c, 9, 36, 91
1, 122159, Note_on_c, 9, 36, 0
1, 122160, Note_on_c, 9, 36, 95
1, 122399, Note_on_c, 9, 51, 0
1, 122399, Note_on_c, 9, 36, 0
1, 122400, Note_on_c, 9, 38, 96
1, 122400, Note_on_c, 9, 54, 80
1, 122879, Note_on_c, 9, 38, 0
1, 122879, Note_on_c, 9, 54, 0
1, 122880, Note_on_c, 9, 51, 70
1, 122880, Note_on_c, 9, 36, 114
1, 123119, Note_on_c, 9, 36, 0
1, 123120, Note_on_c, 9, 36, 101
1, 123359, Note_on_c, 9, 51, 0
1, 123359, Note_on_c, 9, 36, 0
1, 123360, Note_on_c, 9, 38, 86
1, 123360, Note_on_c, 9, 54, 80
1, 123839, Note_on_c, 9, 38, 0
1, 123839, Note_on_c, 9, 54, 0
1, 123840, Note_on_c, 9, 51, 70
1, 123840, Note_on_c, 9, 36, 102
1, 124079, Note_on_c, 9, 36, 0
1, 124080, Note_on_c, 9, 36, 88
1, 124319, Note_on_c, 9, 51, 0
1, 124319, Note_on_c, 9, 36, 0
1, 124320, Note_on_c, 9, 38, 93
1, 124320, Note_on_c, 9, 54, 80
1, 124560, Note_on_c, 9, 36, 68
1, 124799, Note_on_c, 9, 38, 0
1, 124799, Note_on_c, 9, 54, 0
1, 124799, Note_on_c, 9, 36, 0
1, 124800, Note_on_c, 9, 51, 70
1, 124800, Note_on_c, 9, 36, 94
1, 125039, Note_on_c, 9, 36, 0
1, 125040, Note_on_c, 9, 36, 82
1, 125279, Note_on_c, 9, 51, 0
1, 125279, Note_on_c, 9, 36, 0
1, 125280, Note_on_c, 9, 38, 89
1, 125280, Note_on_c, 9, 54, 80
1, 125759, Note_on_c, 9, 38, 0
1, 125759, Note_on_c, 9, 54, 0
1, 125760, Note_on_c, 9, 51, 70
1, 125760, Note_on_c, 9, 36, 82
1, 125999, Note_on_c, 9, 36, 0
1, 126000, Note_on_c, 9, 36, 98
1, 126239, Note_on_c, 9, 51, 0
1, 126239, Note_on_c, 9, 36, 0
1, 126240, Note_on_c, 9, 38, 102
1, 126240, Note_on_c, 9, 54, 80
1, 126719, Note_on_c, 9, 38, 0
1, 126719, Note_on_c, 9, 54, 0
1, 126720, Note_on_c, 9, 51, 70
1, 126720, Note_on_c, 9, 36, 104
1, 126959, Note_on_c, 9, 36, 0
1, 126960, Note_on_c, 9, 36, 90
1, 127199, Note_on_c, 9, 51, 0
1, 127199, Note_on_c, 9, 36, 0
1, 127200, Note_on_c, 9, 38, 94
1, 127200, Note_on_c, 9, 54, 80
1, 127679, Note_on_c, 9, 38, 0
1, 127679, Note_on_c, 9, 54, 0
1, 127680, Note_on_c, 9, 51, 70
1, 127680, Note_on_c, 9, 36, 94
1, 127919, Note_on_c, 9, 36, 0
1, 127920, Note_on_c, 9, 36, 88
1, 128159, Note_on_c, 9, 51, 0
1, 128159, Note_on_c, 9, 36, 0
1, 128160, Note_on_c, 9, 38, 81
1, 128160, Note_on_c, 9, 54, 80
1, 128400, Note_on_c, 9, 36, 64
1, 128639, Note_on_c, 9, 38, 0
1, 128639, Note_on_c, 9, 54, 0
1, 128639, Note_on_c, 9, 36, 0
1, 128640, Note_on_c, 9, 51, 70
1, 128640, Note_on_c, 9, 36, 88
1, 128879, Note_on_c, 9, 51, 0
1, 128880, Note_on_c, 9, 38, 85
1, 129119, Note_on_c, 9, 36, 0
1, 129119, Note_on_c, 9, 38, 0
1, 129120, Note_on_c, 9, 38, 103
1, 129120, Note_on_c, 9, 54, 80
1, 129359, Note_on_c, 9, 38, 0
1, 129359, Note_on_c, 9, 54, 0
1, 129360, Note_on_c, 9, 38, 111
1, 129599, Note_on_c, 9, 38, 0
1, 129600, Note_on_c, 9, 38, 79
1, 129600, Note_on_c, 9, 51, 70
1, 129600, Note_on_c, 9, 36, 95
1, 129839, Note_on_c, 9, 38, 0
1, 129839, Note_on_c, 9, 51, 0
1, 129840, Note_on_c, 9, 38, 111
1, 130079, Note_on_c, 9, 36, 0
1, 130079, Note_on_c, 9, 38, 0
1, 130080, Note_on_c, 9, 38, 95
1, 130080, Note_on_c, 9, 54, 80
1, 130199, Note_on_c, 9, 38, 0
1, 130199, Note_on_c, 9, 54, 0
1, 130200, Note_on_c, 9, 38, 103
1, 130319, Note_on_c, 9, 38, 0
1, 130320, Note_on_c, 9, 41, 95
1, 130559, Note_on_c, 9, 41, 0
1, 130560, Note_on_c, 9, 57, 71
1, 130560, Note_on_c, 9, 36, 110
1, 131039, Note_on_c, 9, 57, 0
1, 131039, Note_on_c, 9, 36, 0
1, 131040, Note_on_c, 9, 38, 114
1, 131040, Note_on_c, 9, 51, 119
1, 131519, Note_on_c, 9, 38, 0
1, 131519, Note_on_c, 9, 51, 0
1, 131520, Note_on_c, 9, 51, 119
1, 131520, Note_on_c, 9, 36, 118
1, 131759, Note_on_c, 9, 36, 0
1, 131760, Note_on_c, 9, 36, 106
1, 131999, Note_on_c, 9, 51, 0
1, 131999, Note_on_c, 9, 36, 0
1, 132000, Note_on_c, 9, 38, 110
1, 132000, Note_on_c, 9, 51, 111
1, 132119, Note_on_c, 9, 38, 0
1, 132119, Note_on_c, 9, 51, 0
1, 132120, Note_on_c, 9, 51, 90
1, 132239, Note_on_c, 9, 51, 0
1, 132240, Note_on_c, 9, 51, 104
1, 132479, Note_on_c, 9, 51, 0
1, 132480, Note_on_c, 9, 54, 96
1, 132480, Note_on_c, 9, 51, 109
1, 132480, Note_on_c, 9, 36, 108
1, 132719, Note_on_c, 9, 54, 0
1, 132719, Note_on_c, 9, 51, 0
1, 132719, Note_on_c, 9, 36, 0
1, 132720, Note_on_c, 9, 51, 70
1, 132720, Note_on_c, 9, 36, 110
1, 132839, Note_on_c, 9, 51, 0
1, 132840, Note_on_c, 9, 51, 76
1, 132959, Note_on_c, 9, 36, 0
1, 132959, Note_on_c, 9, 51, 0
1, 132960, Note_on_c, 9, 38, 91
1, 132960, Note_on_c, 9, 54, 96
1, 132960, Note_on_c, 9, 51, 88
1, 133199, Note_on_c, 9, 38, 0
1, 133199, Note_on_c, 9, 54, 0
1, 133199, Note_on_c, 9, 51, 0
1, 133200, Note_on_c, 9, 51, 64
1, 133319, Note_on_c, 9, 51, 0
1, 133320, Note_on_c, 9, 51, 78
1, 133379, Note_on_c, 9, 51, 0
1, 133425, Note_on_c, 9, 51, 91
1, 133440, Note_on_c, 9, 38, 111
1, 133440, Note_on_c, 9, 54, 96
1, 133679, Note_on_c, 9, 51, 0
1, 133679, Note_on_c, 9, 38, 0
1, 133679, Note_on_c, 9, 54, 0
1, 133680, Note_on_c, 9, 51, 70
1, 133680, Note_on_c, 9, 36, 89
1, 133799, Note_on_c, 9, 51, 0
1, 133800, Note_on_c, 9, 51, 64
1, 133919, Note_on_c, 9, 36, 0
1, 133919, Note_on_c, 9, 51, 0
1, 133920, Note_on_c, 9, 38, 108
1, 133920, Note_on_c, 9, 54, 96
1, 133920, Note_on_c, 9, 51, 81
1, 134159, Note_on_c, 9, 38, 0
1, 134159, Note_on_c, 9, 54, 0
1, 134159, Note_on_c, 9, 51, 0
1, 134160, Note_on_c, 9, 51, 96
1, 134399, Note_on_c, 9, 51, 0
1, 134400, Note_on_c, 9, 38, 105
1, 134400, Note_on_c, 9, 54, 96
1, 134400, Note_on_c, 9, 51, 96
1, 134639, Note_on_c, 9, 38, 0
1, 134639, Note_on_c, 9, 54, 0
1, 134639, Note_on_c, 9, 51, 0
1, 134640, Note_on_c, 9, 51, 78
1, 134640, Note_on_c, 9, 36, 100
1, 134759, Note_on_c, 9, 51, 0
1, 134760, Note_on_c, 9, 51, 61
1, 134819, Note_on_c, 9, 51, 0
1, 134865, Note_on_c, 9, 51, 98
1, 134879, Note_on_c, 9, 36, 0
1, 134880, Note_on_c, 9, 38, 109
1, 134880, Note_on_c, 9, 54, 96
1, 135119, Note_on_c, 9, 51, 0
1, 135119, Note_on_c, 9, 38, 0
1, 135119, Note_on_c, 9, 54, 0
1, 135120, Note_on_c, 9, 51, 69
1, 135239, Note_on_c, 9, 51, 0
1, 135240, Note_on_c, 9, 51, 73
1, 135359, Note_on_c, 9, 51, 0
1, 135360, Note_on_c, 9, 38, 109
1, 135360, Note_on_c, 9, 54, 96
1, 135360, Note_on_c, 9, 51, 94
1, 135599, Note_on_c, 9, 38, 0
1, 135599, Note_on_c, 9, 54, 0
1, 135599, Note_on_c, 9, 51, 0
1, 135600, Note_on_c, 9, 51, 71
1, 135600, Note_on_c, 9, 36, 100
1, 135719, Note_on_c, 9, 51, 0
1, 135720, Note_on_c, 9, 51, 74
1, 135839, Note_on_c, 9, 36, 0
1, 135839, Note_on_c, 9, 51, 0
1, 135840, Note_on_c, 9, 38, 102
1, 135840, Note_on_c, 9, 54, 96
1, 135840, Note_on_c, 9, 51, 88
1, 135959, Note_on_c, 9, 38, 0
1, 135959, Note_on_c, 9, 54, 0
1, 135959, Note_on_c, 9, 51, 0
1, 135960, Note_on_c, 9, 51, 91
1, 136079, Note_on_c, 9, 51, 0
1, 136080, Note_on_c, 9, 51, 109
1, 136080, Note_on_c, 9, 36, 99
1, 136319, Note_on_c, 9, 51, 0
1, 136319, Note_on_c, 9, 36, 0
1, 136320, Note_on_c, 9, 38, 105
1, 136320, Note_on_c, 9, 54, 96
1, 136320, Note_on_c, 9, 51, 109
1, 136559, Note_on_c, 9, 38, 0
1, 136559, Note_on_c, 9, 54, 0
1, 136559, Note_on_c, 9, 51, 0
1, 136560, Note_on_c, 9, 54, 62
1, 136560, Note_on_c, 9, 51, 64
1, 136560, Note_on_c, 9, 36, 105
1, 136679, Note_on_c, 9, 54, 0
1, 136679, Note_on_c, 9, 51, 0
1, 136680, Note_on_c, 9, 54, 62
1, 136680, Note_on_c, 9, 51, 77
1, 136739, Note_on_c, 9, 54, 0
1, 136739, Note_on_c, 9, 51, 0
1, 136785, Note_on_c, 9, 51, 96
1, 136799, Note_on_c, 9, 36, 0
1, 136800, Note_on_c, 9, 38, 90
1, 136800, Note_on_c, 9, 54, 96
1, 137039, Note_on_c, 9, 51, 0
1, 137039, Note_on_c, 9, 38, 0
1, 137039, Note_on_c, 9, 54, 0
1, 137040, Note_on_c, 9, 54, 62
1, 137040, Note_on_c, 9, 51, 64
1, 137159, Note_on_c, 9, 54, 0
1, 137159, Note_on_c, 9, 51, 0
1, 137160, Note_on_c, 9, 54, 62
1, 137160, Note_on_c, 9, 51, 76
1, 137279, Note_on_c, 9, 54, 0
1, 137279, Note_on_c, 9, 51, 0
1, 137280, Note_on_c, 9, 38, 104
1, 137280, Note_on_c, 9, 54, 96
1, 137280, Note_on_c, 9, 51, 98
1, 137519, Note_on_c, 9, 38, 0
1, 137519, Note_on_c, 9, 54, 0
1, 137519, Note_on_c, 9, 51, 0
1, 137520, Note_on_c, 9, 54, 62
1, 137520, Note_on_c, 9, 51, 70
1, 137520, Note_on_c, 9, 36, 102
1, 137639, Note_on_c, 9, 54, 0
1, 137639, Note_on_c, 9, 51, 0
1, 137640, Note_on_c, 9, 54, 62
1, 137640, Note_on_c, 9, 51, 69
1, 137759, Note_on_c, 9, 36, 0
1, 137759, Note_on_c, 9, 54, 0
1, 137759, Note_on_c, 9, 51, 0
1, 137760, Note_on_c, 9, 38, 104
1, 137760, Note_on_c, 9, 54, 96
1, 137760, Note_on_c, 9, 51, 86
1, 137999, Note_on_c, 9, 38, 0
1, 137999, Note_on_c, 9, 54, 0
1, 137999, Note_on_c, 9, 51, 0
1, 138000, Note_on_c, 9, 54, 62
1, 138000, Note_on_c, 9, 51, 102
1, 138119, Note_on_c, 9, 54, 0
1, 138119, Note_on_c, 9, 51, 0
1, 138120, Note_on_c, 9, 54, 62
1, 138239, Note_on_c, 9, 54, 0
1, 138240, Note_on_c, 9, 38, 114
1, 138240, Note_on_c, 9, 54, 96
1, 138240, Note_on_c, 9, 51, 107
1, 138479, Note_on_c, 9, 38, 0
1, 138479, Note_on_c, 9, 54, 0
1, 138479, Note_on_c, 9, 51, 0
1, 138480, Note_on_c, 9, 54, 62
1, 138480, Note_on_c, 9, 51, 66
1, 138480, Note_on_c, 9, 36, 102
1, 138599, Note_on_c, 9, 54, 0
1, 138599, Note_on_c, 9, 51, 0
1, 138600, Note_on_c, 9, 54, 62
1, 138600, Note_on_c, 9, 51, 62
1, 138719, Note_on_c, 9, 36, 0
1, 138719, Note_on_c, 9, 54, 0
1, 138719, Note_on_c, 9, 51, 0
1, 138720, Note_on_c, 9, 38, 118
1, 138720, Note_on_c, 9, 54, 96
1, 138720, Note_on_c, 9, 51, 99
1, 138959, Note_on_c, 9, 38, 0
1, 138959, Note_on_c, 9, 54, 0
1, 138959, Note_on_c, 9, 51, 0
1, 138960, Note_on_c, 9, 54, 62
1, 138960, Note_on_c, 9, 51, 70
1, 139079, Note_on_c, 9, 54, 0
1, 139079, Note_on_c, 9, 51, 0
1, 139080, Note_on_c, 9, 54, 62
1, 139080, Note_on_c, 9, 51, 65
1, 139199, Note_on_c, 9, 54, 0
1, 139199, Note_on_c, 9, 51, 0
1, 139200, Note_on_c, 9, 38, 113
1, 139200, Note_on_c, 9, 54, 96
1, 139200, Note_on_c, 9, 51, 88
1, 139439, Note_on_c, 9, 38, 0
1, 139439, Note_on_c, 9, 54, 0
1, 139439, Note_on_c, 9, 51, 0
1, 139440, Note_on_c, 9, 54, 62
1, 139440, Note_on_c, 9, 51, 64
1, 139440, Note_on_c, 9, 36, 103
1, 139559, Note_on_c, 9, 54, 0
1, 139559, Note_on_c, 9, 51, 0
1, 139560, Note_on_c, 9, 54, 62
1, 139560, Note_on_c, 9, 51, 71
1, 139679, Note_on_c, 9, 36, 0
1, 139679, Note_on_c, 9, 54, 0
1, 139679, Note_on_c, 9, 51, 0
1, 139680, Note_on_c, 9, 38, 98
1, 139680, Note_on_c, 9, 54, 96
1, 139680, Note_on_c, 9, 51, 102
1, 139799, Note_on_c, 9, 38, 0
1, 139799, Note_on_c, 9, 54, 0
1, 139799, Note_on_c, 9, 51, 0
1, 139800, Note_on_c, 9, 51, 90
1, 139919, Note_on_c, 9, 51, 0
1, 139920, Note_on_c, 9, 54, 62
1, 139920, Note_on_c, 9, 51, 118
1, 139920, Note_on_c, 9, 36, 99
1, 140039, Note_on_c, 9, 54, 0
1, 140039, Note_on_c, 9, 51, 0
1, 140040, Note_on_c, 9, 54, 62
1, 140159, Note_on_c, 9, 36, 0
1, 140159, Note_on_c, 9, 54, 0
1, 140160, Note_on_c, 9, 38, 113
1, 140160, Note_on_c, 9, 54, 96
1, 140160, Note_on_c, 9, 51, 108
1, 140399, Note_on_c, 9, 38, 0
1, 140399, Note_on_c, 9, 54, 0
1, 140399, Note_on_c, 9, 51, 0
1, 140400, Note_on_c, 9, 54, 62
1, 140400, Note_on_c, 9, 51, 66
1, 140400, Note_on_c, 9, 36, 98
1, 140519, Note_on_c, 9, 54, 0
1, 140519, Note_on_c, 9, 51, 0
1, 140520, Note_on_c, 9, 54, 62
1, 140520, Note_on_c, 9, 51, 78
1, 140639, Note_on_c, 9, 36, 0
1, 140639, Note_on_c, 9, 54, 0
1, 140639, Note_on_c, 9, 51, 0
1, 140640, Note_on_c, 9, 38, 92
1, 140640, Note_on_c, 9, 54, 96
1, 140640, Note_on_c, 9, 51, 93
1, 140879, Note_on_c, 9, 38, 0
1, 140879, Note_on_c, 9, 54, 0
1, 140879, Note_on_c, 9, 51, 0
1, 140880, Note_on_c, 9, 54, 62
1, 140880, Note_on_c, 9, 51, 69
1, 140999, Note_on_c, 9, 54, 0
1, 140999, Note_on_c, 9, 51, 0
1, 141000, Note_on_c, 9, 54, 62
1, 141000, Note_on_c, 9, 51, 66
1, 141059, Note_on_c, 9, 54, 0
1, 141059, Note_on_c, 9, 51, 0
1, 141105, Note_on_c, 9, 51, 95
1, 141120, Note_on_c, 9, 38, 109
1, 141120, Note_on_c, 9, 54, 96
1, 141359, Note_on_c, 9, 51, 0
1, 141359, Note_on_c, 9, 38, 0
1, 141359, Note_on_c, 9, 54, 0
1, 141360, Note_on_c, 9, 54, 62
1, 141360, Note_on_c, 9, 51, 72
1, 141360, Note_on_c, 9, 36, 97
1, 141479, Note_on_c, 9, 54, 0
1, 141479, Note_on_c, 9, 51, 0
1, 141480, Note_on_c, 9, 54, 62
1, 141480, Note_on_c, 9, 51, 68
1, 141599, Note_on_c, 9, 36, 0
1, 141599, Note_on_c, 9, 54, 0
1, 141599, Note_on_c, 9, 51, 0
1, 141600, Note_on_c, 9, 38, 97
1, 141600, Note_on_c, 9, 54, 96
1, 141600, Note_on_c, 9, 51, 74
1, 141839, Note_on_c, 9, 38, 0
1, 141839, Note_on_c, 9, 54, 0
1, 141839, Note_on_c, 9, 51, 0
1, 141840, Note_on_c, 9, 45, 71
1, 142079, Note_on_c, 9, 45, 0
1, 142080, Note_on_c, 9, 36, 103
1, 142319, Note_on_c, 9, 36, 0
1, 142320, Note_on_c, 9, 36, 100
1, 142559, Note_on_c, 9, 36, 0
1, 142560, Note_on_c, 9, 38, 109
1, 143039, Note_on_c, 9, 38, 0
1, 143040, Note_on_c, 9, 36, 109
1, 143279, Note_on_c, 9, 36, 0
1, 143280, Note_on_c, 9, 36, 105
1, 143519, Note_on_c, 9, 36, 0
1, 143520, Note_on_c, 9, 35, 67
1, 143759, Note_on_c, 9, 35, 0
1, 143760, Note_on_c, 9, 36, 97
1, 143999, Note_on_c, 9, 36, 0
1, 144000, Note_on_c, 9, 36, 106
1, 144239, Note_on_c, 9, 36, 0
1, 144240, Note_on_c, 9, 36, 107
1, 144479, Note_on_c, 9, 36, 0
1, 144480, Note_on_c, 9, 38, 104
1, 144720, Note_on_c, 9, 36, 97
1, 144959, Note_on_c, 9, 38, 0
1, 144959, Note_on_c, 9, 36, 0
1, 144960, Note_on_c, 9, 36, 109
1, 145199, Note_on_c, 9, 36, 0
1, 145200, Note_on_c, 9, 36, 99
1, 145439, Note_on_c, 9, 36, 0
1, 145440, Note_on_c, 9, 38, 105
1, 145680, Note_on_c, 9, 36, 97
1, 145919, Note_on_c, 9, 38, 0
1, 145919, Note_on_c, 9, 36, 0
1, 145920, Note_on_c, 9, 36, 109
1, 146159, Note_on_c, 9, 36, 0
1, 146160, Note_on_c, 9, 36, 107
1, 146399, Note_on_c, 9, 36, 0
1, 146400, Note_on_c, 9, 38, 103
1, 146879, Note_on_c, 9, 38, 0
1, 146880, Note_on_c, 9, 36, 99
1, 147119, Note_on_c, 9, 36, 0
1, 147120, Note_on_c, 9, 36, 109
1, 147359, Note_on_c, 9, 36, 0
1, 147360, Note_on_c, 9, 35, 60
1, 147599, Note_on_c, 9, 35, 0
1, 147600, Note_on_c, 9, 36, 96
1, 147839, Note_on_c, 9, 36, 0
1, 147840, Note_on_c, 9, 36, 99
1, 148079, Note_on_c, 9, 36, 0
1, 148080, Note_on_c, 9, 36, 98
1, 148319, Note_on_c, 9, 36, 0
1, 148320, Note_on_c, 9, 38, 97
1, 148560, Note_on_c, 9, 36, 96
1, 148799, Note_on_c, 9, 38, 0
1, 148799, Note_on_c, 9, 36, 0
1, 148800, Note_on_c, 9, 36, 105
1, 149039, Note_on_c, 9, 36, 0
1, 149040, Note_on_c, 9, 36, 96
1, 149279, Note_on_c, 9, 36, 0
1, 149280, Note_on_c, 9, 38, 97
1, 149520, Note_on_c, 9, 36, 96
1, 149759, Note_on_c, 9, 38, 0
1, 149759, Note_on_c, 9, 36, 0
1, 149760, Note_on_c, 9, 36, 100
1, 149999, Note_on_c, 9, 36, 0
1, 150000, Note_on_c, 9, 36, 100
1, 150239, Note_on_c, 9, 36, 0
1, 150240, Note_on_c, 9, 38, 104
1, 150719, Note_on_c, 9, 38, 0
1, 150720, Note_on_c, 9, 36, 100
1, 150959, Note_on_c, 9, 36, 0
1, 150960, Note_on_c, 9, 36, 104
1, 151199, Note_on_c, 9, 36, 0
1, 151200, Note_on_c, 9, 35, 57
1, 151439, Note_on_c, 9, 35, 0
1, 151440, Note_on_c, 9, 36, 99
1, 151679, Note_on_c, 9, 36, 0
1, 151680, Note_on_c, 9, 36, 102
1, 151919, Note_on_c, 9, 36, 0
1, 151920, Note_on_c, 9, 36, 101
1, 152159, Note_on_c, 9, 36, 0
1, 152160, Note_on_c, 9, 38, 100
1, 152400, Note_on_c, 9, 36, 104
1, 152639, Note_on_c, 9, 38, 0
1, 152639, Note_on_c, 9, 36, 0
1, 152640, Note_on_c, 9, 36, 110
1, 152879, Note_on_c, 9, 36, 0
1, 152880, Note_on_c, 9, 36, 102
1, 153119, Note_on_c, 9, 36, 0
1, 153120, Note_on_c, 9, 38, 102
1, 153360, Note_on_c, 9, 36, 108
1, 153599, Note_on_c, 9, 38, 0
1, 153599, Note_on_c, 9, 36, 0
1, 153600, Note_on_c, 9, 54, 123
1, 153600, Note_on_c, 9, 36, 104
1, 153719, Note_on_c, 9, 54, 0
1, 153720, Note_on_c, 9, 54, 73
1, 153839, Note_on_c, 9, 36, 0
1, 153839, Note_on_c, 9, 54, 0
1, 153840, Note_on_c, 9, 54, 66
1, 153840, Note_on_c, 9, 36, 96
1, 153959, Note_on_c, 9, 54, 0
1, 153960, Note_on_c, 9, 54, 71
1, 154079, Note_on_c, 9, 36, 0
1, 154079, Note_on_c, 9, 54, 0
1, 154080, Note_on_c, 9, 38, 98
1, 154080, Note_on_c, 9, 54, 113
1, 154199, Note_on_c, 9, 38, 0
1, 154199, Note_on_c, 9, 54, 0
1, 154200, Note_on_c, 9, 54, 68
1, 154319, Note_on_c, 9, 54, 0
1, 154320, Note_on_c, 9, 54, 73
1, 154439, Note_on_c, 9, 54, 0
1, 154440, Note_on_c, 9, 54, 74
1, 154559, Note_on_c, 9, 54, 0
1, 154560, Note_on_c, 9, 54, 116
1, 154560, Note_on_c, 9, 36, 109
1, 154679, Note_on_c, 9, 54, 0
1, 154680, Note_on_c, 9, 54, 64
1, 154799, Note_on_c, 9, 36, 0
1, 154799, Note_on_c, 9, 54, 0
1, 154800, Note_on_c, 9, 54, 76
1, 154800, Note_on_c, 9, 36, 106
1, 154919, Note_on_c, 9, 54, 0
1, 154920, Note_on_c, 9, 54, 65
1, 155039, Note_on_c, 9, 36, 0
1, 155039, Note_on_c, 9, 54, 0
1, 155040, Note_on_c, 9, 54, 120
1, 155040, Note_on_c, 9, 35, 58
1, 155159, Note_on_c, 9, 54, 0
1, 155160, Note_on_c, 9, 54, 73
1, 155279, Note_on_c, 9, 35, 0
1, 155279, Note_on_c, 9, 54, 0
1, 155280, Note_on_c, 9, 54, 65
1, 155280, Note_on_c, 9, 36, 108
1, 155399, Note_on_c, 9, 54, 0
1, 155400, Note_on_c, 9, 54, 75
1, 155519, Note_on_c, 9, 36, 0
1, 155519, Note_on_c, 9, 54, 0
1, 155520, Note_on_c, 9, 54, 117
1, 155520, Note_on_c, 9, 36, 108
1, 155639, Note_on_c, 9, 54, 0
1, 155640, Note_on_c, 9, 54, 77
1, 155759, Note_on_c, 9, 36, 0
1, 155759, Note_on_c, 9, 54, 0
1, 155760, Note_on_c, 9, 54, 71
1, 155760, Note_on_c, 9, 36, 110
1, 155879, Note_on_c, 9, 54, 0
1, 155880, Note_on_c, 9, 54, 69
1, 155999, Note_on_c, 9, 36, 0
1, 155999, Note_on_c, 9, 54, 0
1, 156000, Note_on_c, 9, 38, 100
1, 156000, Note_on_c, 9, 54, 116
1, 156119, Note_on_c, 9, 38, 0
1, 156119, Note_on_c, 9, 54, 0
1, 156120, Note_on_c, 9, 54, 68
1, 156239, Note_on_c, 9, 54, 0
1, 156240, Note_on_c, 9, 54, 67
1, 156240, Note_on_c, 9, 36, 98
1, 156359, Note_on_c, 9, 54, 0
1, 156360, Note_on_c, 9, 54, 76
1, 156479, Note_on_c, 9, 36, 0
1, 156479, Note_on_c, 9, 54, 0
1, 156480, Note_on_c, 9, 54, 109
1, 156480, Note_on_c, 9, 36, 109
1, 156599, Note_on_c, 9, 54, 0
1, 156600, Note_on_c, 9, 54, 71
1, 156719, Note_on_c, 9, 36, 0
1, 156719, Note_on_c, 9, 54, 0
1, 156720, Note_on_c, 9, 54, 74
1, 156720, Note_on_c, 9, 36, 108
1, 156839, Note_on_c, 9, 54, 0
1, 156840, Note_on_c, 9, 54, 77
1, 156959, Note_on_c, 9, 36, 0
1, 156959, Note_on_c, 9, 54, 0
1, 156960, Note_on_c, 9, 38, 106
1, 156960, Note_on_c, 9, 54, 107
1, 157079, Note_on_c, 9, 38, 0
1, 157079, Note_on_c, 9, 54, 0
1, 157080, Note_on_c, 9, 54, 71
1, 157199, Note_on_c, 9, 54, 0
1, 157200, Note_on_c, 9, 54, 69
1, 157200, Note_on_c, 9, 36, 105
1, 157319, Note_on_c, 9, 54, 0
1, 157320, Note_on_c, 9, 54, 64
1, 157439, Note_on_c, 9, 36, 0
1, 157439, Note_on_c, 9, 54, 0
1, 157440, Note_on_c, 9, 54, 124
1, 157440, Note_on_c, 9, 36, 104
1, 157559, Note_on_c, 9, 54, 0
1, 157560, Note_on_c, 9, 54, 82
1, 157679, Note_on_c, 9, 36, 0
1, 157679, Note_on_c, 9, 54, 0
1, 157680, Note_on_c, 9, 54, 72
1, 157680, Note_on_c, 9, 36, 106
1, 157799, Note_on_c, 9, 54, 0
1, 157800, Note_on_c, 9, 54, 71
1, 157919, Note_on_c, 9, 36, 0
1, 157919, Note_on_c, 9, 54, 0
1, 157920, Note_on_c, 9, 38, 103
1, 157920, Note_on_c, 9, 54, 119
1, 158039, Note_on_c, 9, 38, 0
1, 158039, Note_on_c, 9, 54, 0
1, 158040, Note_on_c, 9, 54, 66
1, 158159, Note_on_c, 9, 54, 0
1, 158160, Note_on_c, 9, 54, 75
1, 158279, Note_on_c, 9, 54, 0
1, 158280, Note_on_c, 9, 54, 69
1, 158399, Note_on_c, 9, 54, 0
1, 158400, Note_on_c, 9, 54, 118
1, 158400, Note_on_c, 9, 36, 98
1, 158519, Note_on_c, 9, 54, 0
1, 158520, Note_on_c, 9, 54, 65
1, 158639, Note_on_c, 9, 36, 0
1, 158639, Note_on_c, 9, 54, 0
1, 158640, Note_on_c, 9, 54, 70
1, 158640, Note_on_c, 9, 36, 97
1, 158759, Note_on_c, 9, 54, 0
1, 158760, Note_on_c, 9, 54, 64
1, 158879, Note_on_c, 9, 36, 0
1, 158879, Note_on_c, 9, 54, 0
1, 158880, Note_on_c, 9, 54, 116
1, 158880, Note_on_c, 9, 35, 60
1, 158999, Note_on_c, 9, 54, 0
1, 159000, Note_on_c, 9, 54, 66
1, 159119, Note_on_c, 9, 35, 0
1, 159119, Note_on_c, 9, 54, 0
1, 159120, Note_on_c, 9, 54, 76
1, 159120, Note_on_c, 9, 36, 109
1, 159239, Note_on_c, 9, 54, 0
1, 159240, Note_on_c, 9, 54, 72
1, 159359, Note_on_c, 9, 36, 0
1, 159359, Note_on_c, 9, 54, 0
1, 159360, Note_on_c, 9, 54, 105
1, 159360, Note_on_c, 9, 36, 103
1, 159479, Note_on_c, 9, 54, 0
1, 159480, Note_on_c, 9, 54, 76
1, 159599, Note_on_c, 9, 36, 0
1, 159599, Note_on_c, 9, 54, 0
1, 159600, Note_on_c, 9, 54, 77
1, 159600, Note_on_c, 9, 36, 110
1, 159719, Note_on_c, 9, 54, 0
1, 159720, Note_on_c, 9, 54, 74
1, 159839, Note_on_c, 9, 36, 0
1, 159839, Note_on_c, 9, 54, 0
1, 159840, Note_on_c, 9, 38, 103
1, 159840, Note_on_c, 9, 54, 104
1, 159959, Note_on_c, 9, 38, 0
1, 159959, Note_on_c, 9, 54, 0
1, 159960, Note_on_c, 9, 54, 68
1, 160079, Note_on_c, 9, 54, 0
1, 160080, Note_on_c, 9, 54, 74
1, 160080, Note_on_c, 9, 36, 100
1, 160199, Note_on_c, 9, 54, 0
1, 160200, Note_on_c, 9, 54, 65
1, 160319, Note_on_c, 9, 36, 0
1, 160319, Note_on_c, 9, 54, 0
1, 160320, Note_on_c, 9, 54, 114
1, 160320, Note_on_c, 9, 36, 100
1, 160439, Note_on_c, 9, 54, 0
1, 160440, Note_on_c, 9, 54, 69
1, 160559, Note_on_c, 9, 36, 0
1, 160559, Note_on_c, 9, 54, 0
1, 160560, Note_on_c, 9, 54, 76
1, 160560, Note_on_c, 9, 36, 101
1, 160679, Note_on_c, 9, 54, 0
1, 160680, Note_on_c, 9, 54, 73
1, 160799, Note_on_c, 9, 36, 0
1, 160799, Note_on_c, 9, 54, 0
1, 160800, Note_on_c, 9, 38, 104
1, 160800, Note_on_c, 9, 54, 106
1, 160919, Note_on_c, 9, 38, 0
1, 160919, Note_on_c, 9, 54, 0
1, 160920, Note_on_c, 9, 54, 77
1, 161039, Note_on_c, 9, 54, 0
1, 161040, Note_on_c, 9, 54, 69
1, 161040, Note_on_c, 9, 36, 100
1, 161159, Note_on_c, 9, 54, 0
1, 161160, Note_on_c, 9, 54, 74
1, 161279, Note_on_c, 9, 36, 0
1, 161279, Note_on_c, 9, 54, 0
1, 161280, Note_on_c, 9, 54, 115
1, 161280, Note_on_c, 9, 36, 99
1, 161399, Note_on_c, 9, 54, 0
1, 161400, Note_on_c, 9, 54, 81
1, 161519, Note_on_c, 9, 36, 0
1, 161519, Note_on_c, 9, 54, 0
1, 161520, Note_on_c, 9, 54, 70
1, 161520, Note_on_c, 9, 36, 98
1, 161639, Note_on_c, 9, 54, 0
1, 161640, Note_on_c, 9, 54, 74
1, 161759, Note_on_c, 9, 36, 0
1, 161759, Note_on_c, 9, 54, 0
1, 161760, Note_on_c, 9, 38, 96
1, 161760, Note_on_c, 9, 54, 112
1, 161879, Note_on_c, 9, 38, 0
1, 161879, Note_on_c, 9, 54, 0
1, 161880, Note_on_c, 9, 54, 64
1, 161999, Note_on_c, 9, 54, 0
1, 162000, Note_on_c, 9, 54, 70
1, 162119, Note_on_c, 9, 54, 0
1, 162120, Note_on_c, 9, 54, 76
1, 162239, Note_on_c, 9, 54, 0
1, 162240, Note_on_c, 9, 54, 117
1, 162240, Note_on_c, 9, 36, 110
1, 162359, Note_on_c, 9, 54, 0
1, 162360, Note_on_c, 9, 54, 70
1, 162479, Note_on_c, 9, 36, 0
1, 162479, Note_on_c, 9, 54, 0
1, 162480, Note_on_c, 9, 54, 74
1, 162480, Note_on_c, 9, 36, 99
1, 162599, Note_on_c, 9, 54, 0
1, 162600, Note_on_c, 9, 54, 75
1, 162719, Note_on_c, 9, 36, 0
1, 162719, Note_on_c, 9, 54, 0
1, 162720, Note_on_c, 9, 54, 117
1, 162720, Note_on_c, 9, 35, 64
1, 162839, Note_on_c, 9, 54, 0
1, 162840, Note_on_c, 9, 54, 70
1, 162959, Note_on_c, 9, 35, 0
1, 162959, Note_on_c, 9, 54, 0
1, 162960, Note_on_c, 9, 54, 65
1, 162960, Note_on_c, 9, 36, 101
1, 163079, Note_on_c, 9, 54, 0
1, 163080, Note_on_c, 9, 54, 64
1, 163199, Note_on_c, 9, 36, 0
1, 163199, Note_on_c, 9, 54, 0
1, 163200, Note_on_c, 9, 54, 114
1, 163200, Note_on_c, 9, 36, 105
1, 163319, Note_on_c, 9, 54, 0
1, 163320, Note_on_c, 9, 54, 66
1, 163439, Note_on_c, 9, 36, 0
1, 163439, Note_on_c, 9, 54, 0
1, 163440, Note_on_c, 9, 54, 70
1, 163440, Note_on_c, 9, 36, 102
1, 163559, Note_on_c, 9, 54, 0
1, 163560, Note_on_c, 9, 54, 66
1, 163679, Note_on_c, 9, 36, 0
1, 163679, Note_on_c, 9, 54, 0
1, 163680, Note_on_c, 9, 38, 100
1, 163680, Note_on_c, 9, 54, 114
1, 163799, Note_on_c, 9, 38, 0
1, 163799, Note_on_c, 9, 54, 0
1, 163800, Note_on_c, 9, 54, 78
1, 163919, Note_on_c, 9, 54, 0
1, 163920, Note_on_c, 9, 54, 78
1, 163920, Note_on_c, 9, 36, 107
1, 164039, Note_on_c, 9, 54, 0
1, 164040, Note_on_c, 9, 54, 75
1, 164159, Note_on_c, 9, 36, 0
1, 164159, Note_on_c, 9, 54, 0
1, 164160, Note_on_c, 9, 54, 114
1, 164160, Note_on_c, 9, 36, 105
1, 164279, Note_on_c, 9, 54, 0
1, 164280, Note_on_c, 9, 54, 66
1, 164399, Note_on_c, 9, 36, 0
1, 164399, Note_on_c, 9, 54, 0
1, 164400, Note_on_c, 9, 54, 78
1, 164400, Note_on_c, 9, 36, 105
1, 164519, Note_on_c, 9, 54, 0
1, 164520, Note_on_c, 9, 54, 73
1, 164639, Note_on_c, 9, 36, 0
1, 164639, Note_on_c, 9, 54, 0
1, 164640, Note_on_c, 9, 38, 105
1, 164640, Note_on_c, 9, 54, 112
1, 164759, Note_on_c, 9, 38, 0
1, 164759, Note_on_c, 9, 54, 0
1, 164760, Note_on_c, 9, 54, 77
1, 164879, Note_on_c, 9, 54, 0
1, 164880, Note_on_c, 9, 54, 76
1, 164880, Note_on_c, 9, 36, 109
1, 164999, Note_on_c, 9, 54, 0
1, 165000, Note_on_c, 9, 54, 73
1, 165119, Note_on_c, 9, 36, 0
1, 165119, Note_on_c, 9, 54, 0
1, 165120, Note_on_c, 9, 54, 117
1, 165120, Note_on_c, 9, 36, 102
1, 165239, Note_on_c, 9, 54, 0
1, 165240, Note_on_c, 9, 54, 78
1, 165359, Note_on_c, 9, 36, 0
1, 165359, Note_on_c, 9, 54, 0
1, 165360, Note_on_c, 9, 54, 66
1, 165360, Note_on_c, 9, 36, 103
1, 165479, Note_on_c, 9, 54, 0
1, 165480, Note_on_c, 9, 54, 78
1, 165599, Note_on_c, 9, 36, 0
1, 165599, Note_on_c, 9, 54, 0
1, 165600, Note_on_c, 9, 54, 126
1, 165600, Note_on_c, 9, 36, 105
1, 165719, Note_on_c, 9, 54, 0
1, 165720, Note_on_c, 9, 54, 71
1, 165839, Note_on_c, 9, 36, 0
1, 165839, Note_on_c, 9, 54, 0
1, 165840, Note_on_c, 9, 54, 77
1, 165840, Note_on_c, 9, 36, 105
1, 165959, Note_on_c, 9, 54, 0
1, 165960, Note_on_c, 9, 54, 73
1, 166079, Note_on_c, 9, 36, 0
1, 166079, Note_on_c, 9, 54, 0
1, 166080, Note_on_c, 9, 54, 116
1, 166080, Note_on_c, 9, 36, 103
1, 166199, Note_on_c, 9, 54, 0
1, 166200, Note_on_c, 9, 54, 65
1, 166319, Note_on_c, 9, 36, 0
1, 166319, Note_on_c, 9, 54, 0
1, 166320, Note_on_c, 9, 54, 76
1, 166320, Note_on_c, 9, 36, 109
1, 166439, Note_on_c, 9, 54, 0
1, 166440, Note_on_c, 9, 54, 69
1, 166559, Note_on_c, 9, 36, 0
1, 166559, Note_on_c, 9, 54, 0
1, 166560, Note_on_c, 9, 38, 71
1, 166560, Note_on_c, 9, 54, 113
1, 166679, Note_on_c, 9, 38, 0
1, 166679, Note_on_c, 9, 54, 0
1, 166680, Note_on_c, 9, 38, 111
1, 166680, Note_on_c, 9, 54, 64
1, 166799, Note_on_c, 9, 38, 0
1, 166799, Note_on_c, 9, 54, 0
1, 166800, Note_on_c, 9, 45, 99
1, 166800, Note_on_c, 9, 54, 66
1, 166919, Note_on_c, 9, 45, 0
1, 166919, Note_on_c, 9, 54, 0
1, 166920, Note_on_c, 9, 54, 78
1, 167039, Note_on_c, 9, 54, 0
1, 167040, Note_on_c, 9, 54, 125
1, 167040, Note_on_c, 9, 51, 78
1, 167040, Note_on_c, 9, 36, 114
1, 167159, Note_on_c, 9, 54, 0
1, 167159, Note_on_c, 9, 51, 0
1, 167160, Note_on_c, 9, 54, 65
1, 167279, Note_on_c, 9, 36, 0
1, 167279, Note_on_c, 9, 54, 0
1, 167280, Note_on_c, 9, 54, 52
1, 167280, Note_on_c, 9, 51, 82
1, 167280, Note_on_c, 9, 36, 117
1, 167399, Note_on_c, 9, 54, 0
1, 167399, Note_on_c, 9, 51, 0
1, 167400, Note_on_c, 9, 54, 86
1, 167519, Note_on_c, 9, 36, 0
1, 167519, Note_on_c, 9, 54, 0
1, 167520, Note_on_c, 9, 38, 107
1, 167520, Note_on_c, 9, 54, 118
1, 167520, Note_on_c, 9, 51, 85
1, 167639, Note_on_c, 9, 38, 0
1, 167639, Note_on_c, 9, 54, 0
1, 167639, Note_on_c, 9, 51, 0
1, 167640, Note_on_c, 9, 54, 59
1, 167729, Note_on_c, 9, 54, 0
1, 167730, Note_on_c, 9, 54, 49
1, 167760, Note_on_c, 9, 51, 73
1, 167760, Note_on_c, 9, 36, 109
1, 167849, Note_on_c, 9, 54, 0
1, 167879, Note_on_c, 9, 51, 0
1, 167880, Note_on_c, 9, 54, 79
1, 167999, Note_on_c, 9, 36, 0
1, 167999, Note_on_c, 9, 54, 0
1, 168000, Note_on_c, 9, 54, 115
1, 168000, Note_on_c, 9, 51, 73
1, 168119, Note_on_c, 9, 54, 0
1, 168119, Note_on_c, 9, 51, 0
1, 168120, Note_on_c, 9, 54, 57
1, 168239, Note_on_c, 9, 54, 0
1, 168240, Note_on_c, 9, 54, 55
1, 168240, Note_on_c, 9, 51, 84
1, 168240, Note_on_c, 9, 36, 113
1, 168359, Note_on_c, 9, 54, 0
1, 168359, Note_on_c, 9, 51, 0
1, 168360, Note_on_c, 9, 54, 72
1, 168479, Note_on_c, 9, 36, 0
1, 168479, Note_on_c, 9, 54, 0
1, 168480, Note_on_c, 9, 38, 108
1, 168480, Note_on_c, 9, 54, 115
1, 168480, Note_on_c, 9, 51, 72
1, 168599, Note_on_c, 9, 38, 0
1, 168599, Note_on_c, 9, 54, 0
1, 168599, Note_on_c, 9, 51, 0
1, 168600, Note_on_c, 9, 54, 66
1, 168719, Note_on_c, 9, 54, 0
1, 168720, Note_on_c, 9, 54, 61
1, 168720, Note_on_c, 9, 51, 77
1, 168839, Note_on_c, 9, 54, 0
1, 168839, Note_on_c, 9, 51, 0
1, 168840, Note_on_c, 9, 54, 72
1, 168959, Note_on_c, 9, 54, 0
1, 168960, Note_on_c, 9, 54, 119
1, 168960, Note_on_c, 9, 51, 79
1, 168960, Note_on_c, 9, 36, 118
1, 169079, Note_on_c, 9, 54, 0
1, 169079, Note_on_c, 9, 51, 0
1, 169080, Note_on_c, 9, 54, 61
1, 169199, Note_on_c, 9, 36, 0
1, 169199, Note_on_c, 9, 54, 0
1, 169200, Note_on_c, 9, 54, 56
1, 169200, Note_on_c, 9, 51, 76
1, 169200, Note_on_c, 9, 36, 104
1, 169319, Note_on_c, 9, 54, 0
1, 169319, Note_on_c, 9, 51, 0
1, 169320, Note_on_c, 9, 54, 85
1, 169439, Note_on_c, 9, 36, 0
1, 169439, Note_on_c, 9, 54, 0
1, 169440, Note_on_c, 9, 38, 112
1, 169440, Note_on_c, 9, 54, 116
1, 169440, Note_on_c, 9, 51, 79
1, 169559, Note_on_c, 9, 38, 0
1, 169559, Note_on_c, 9, 54, 0
1, 169559, Note_on_c, 9, 51, 0
1, 169560, Note_on_c, 9, 54, 65
1, 169679, Note_on_c, 9, 54, 0
1, 169680, Note_on_c, 9, 54, 61
1, 169680, Note_on_c, 9, 51, 82
1, 169680, Note_on_c, 9, 36, 108
1, 169799, Note_on_c, 9, 54, 0
1, 169799, Note_on_c, 9, 51, 0
1, 169800, Note_on_c, 9, 54, 80
1, 169919, Note_on_c, 9, 36, 0
1, 169919, Note_on_c, 9, 54, 0
1, 169920, Note_on_c, 9, 54, 121
1, 169920, Note_on_c, 9, 51, 86
1, 170039, Note_on_c, 9, 54, 0
1, 170039, Note_on_c, 9, 51, 0
1, 170040, Note_on_c, 9, 54, 61
1, 170129, Note_on_c, 9, 54, 0
1, 170130, Note_on_c, 9, 54, 56
1, 170160, Note_on_c, 9, 51, 79
1, 170160, Note_on_c, 9, 36, 104
1, 170249, Note_on_c, 9, 54, 0
1, 170279, Note_on_c, 9, 51, 0
1, 170280, Note_on_c, 9, 54, 82
1, 170399, Note_on_c, 9, 36, 0
1, 170399, Note_on_c, 9, 54, 0
1, 170400, Note_on_c, 9, 38, 115
1, 170400, Note_on_c, 9, 54, 117
1, 170400, Note_on_c, 9, 51, 79
1, 170519, Note_on_c, 9, 38, 0
1, 170519, Note_on_c, 9, 54, 0
1, 170519, Note_on_c, 9, 51, 0
1, 170520, Note_on_c, 9, 54, 70
1, 170639, Note_on_c, 9, 54, 0
1, 170640, Note_on_c, 9, 54, 70
1, 170640, Note_on_c, 9, 51, 73
1, 170759, Note_on_c, 9, 54, 0
1, 170759, Note_on_c, 9, 51, 0
1, 170760, Note_on_c, 9, 54, 75
1, 170879, Note_on_c, 9, 54, 0
1, 170880, Note_on_c, 9, 54, 124
1, 170880, Note_on_c, 9, 51, 76
1, 170880, Note_on_c, 9, 36, 110
1, 170999, Note_on_c, 9, 54, 0
1, 170999, Note_on_c, 9, 51, 0
1, 171000, Note_on_c, 9, 54, 56
1, 171119, Note_on_c, 9, 36, 0
1, 171119, Note_on_c, 9, 54, 0
1, 171120, Note_on_c, 9, 54, 59
1, 171120, Note_on_c, 9, 51, 85
1, 171120, Note_on_c, 9, 36, 117
1, 171239, Note_on_c, 9, 54, 0
1, 171239, Note_on_c, 9, 51, 0
1, 171240, Note_on_c, 9, 54, 73
1, 171359, Note_on_c, 9, 36, 0
1, 171359, Note_on_c, 9, 54, 0
1, 171360, Note_on_c, 9, 38, 111
1, 171360, Note_on_c, 9, 54, 118
1, 171360, Note_on_c, 9, 51, 79
1, 171479, Note_on_c, 9, 38, 0
1, 171479, Note_on_c, 9, 54, 0
1, 171479, Note_on_c, 9, 51, 0
1, 171480, Note_on_c, 9, 54, 70
1, 171599, Note_on_c, 9, 54, 0
1, 171600, Note_on_c, 9, 51, 84
1, 171600, Note_on_c, 9, 36, 109
1, 171615, Note_on_c, 9, 54, 56
1, 171659, Note_on_c, 9, 54, 0
1, 171719, Note_on_c, 9, 51, 0
1, 171720, Note_on_c, 9, 54, 81
1, 171839, Note_on_c, 9, 36, 0
1, 171839, Note_on_c, 9, 54, 0
1, 171840, Note_on_c, 9, 54, 125
1, 171840, Note_on_c, 9, 51, 84
1, 171959, Note_on_c, 9, 54, 0
1, 171959, Note_on_c, 9, 51, 0
1, 171960, Note_on_c, 9, 54, 64
1, 172079, Note_on_c, 9, 54, 0
1, 172080, Note_on_c, 9, 38, 110
1, 172080, Note_on_c, 9, 54, 52
1, 172080, Note_on_c, 9, 51, 74
1, 172199, Note_on_c, 9, 38, 0
1, 172199, Note_on_c, 9, 54, 0
1, 172199, Note_on_c, 9, 51, 0
1, 172200, Note_on_c, 9, 54, 83
1, 172319, Note_on_c, 9, 54, 0
1, 172320, Note_on_c, 9, 38, 119
1, 172320, Note_on_c, 9, 54, 114
1, 172320, Note_on_c, 9, 51, 82
1, 172439, Note_on_c, 9, 38, 0
1, 172439, Note_on_c, 9, 54, 0
1, 172439, Note_on_c, 9, 51, 0
1, 172440, Note_on_c, 9, 38, 119
1, 172440, Note_on_c, 9, 54, 72
1, 172559, Note_on_c, 9, 38, 0
1, 172559, Note_on_c, 9, 54, 0
1, 172560, Note_on_c, 9, 41, 115
1, 172560, Note_on_c, 9, 54, 63
1, 172560, Note_on_c, 9, 51, 82
1, 172679, Note_on_c, 9, 41, 0
1, 172679, Note_on_c, 9, 54, 0
1, 172679, Note_on_c, 9, 51, 0
1, 172680, Note_on_c, 9, 54, 77
1, 172799, Note_on_c, 9, 54, 0
1, 172800, Note_on_c, 9, 38, 113
1, 172800, Note_on_c, 9, 54, 120
1, 172800, Note_on_c, 9, 36, 107
1, 172815, Note_on_c, 9, 51, 79
1, 172874, Note_on_c, 9, 51, 0
1, 172919, Note_on_c, 9, 38, 0
1, 172919, Note_on_c, 9, 54, 0
1, 172920, Note_on_c, 9, 54, 70
1, 173039, Note_on_c, 9, 36, 0
1, 173039, Note_on_c, 9, 54, 0
1, 173040, Note_on_c, 9, 38, 113
1, 173040, Note_on_c, 9, 54, 55
1, 173040, Note_on_c, 9, 51, 82
1, 173040, Note_on_c, 9, 36, 107
1, 173159, Note_on_c, 9, 38, 0
1, 173159, Note_on_c, 9, 54, 0
1, 173159, Note_on_c, 9, 51, 0
1, 173160, Note_on_c, 9, 54, 83
1, 173279, Note_on_c, 9, 36, 0
1, 173279, Note_on_c, 9, 54, 0
1, 173280, Note_on_c, 9, 38, 117
1, 173280, Note_on_c, 9, 54, 122
1, 173280, Note_on_c, 9, 51, 84
1, 173280, Note_on_c, 9, 36, 117
1, 173399, Note_on_c, 9, 38, 0
1, 173399, Note_on_c, 9, 54, 0
1, 173399, Note_on_c, 9, 51, 0
1, 173400, Note_on_c, 9, 54, 57
1, 173519, Note_on_c, 9, 36, 0
1, 173519, Note_on_c, 9, 54, 0
1, 173520, Note_on_c, 9, 38, 117
1, 173520, Note_on_c, 9, 54, 58
1, 173520, Note_on_c, 9, 51, 85
1, 173520, Note_on_c, 9, 36, 104
1, 173639, Note_on_c, 9, 38, 0
1, 173639, Note_on_c, 9, 54, 0
1, 173639, Note_on_c, 9, 51, 0
1, 173640, Note_on_c, 9, 54, 76
1, 173759, Note_on_c, 9, 36, 0
1, 173759, Note_on_c, 9, 54, 0
1, 173760, Note_on_c, 9, 38, 109
1, 173760, Note_on_c, 9, 54, 120
1, 173760, Note_on_c, 9, 51, 86
1, 173760, Note_on_c, 9, 36, 109
1, 173879, Note_on_c, 9, 38, 0
1, 173879, Note_on_c, 9, 54, 0
1, 173879, Note_on_c, 9, 51, 0
1, 173880, Note_on_c, 9, 54, 65
1, 173999, Note_on_c, 9, 36, 0
1, 173999, Note_on_c, 9, 54, 0
1, 174000, Note_on_c, 9, 38, 109
1, 174000, Note_on_c, 9, 54, 54
1, 174000, Note_on_c, 9, 51, 80
1, 174000, Note_on_c, 9, 36, 109
1, 174119, Note_on_c, 9, 38, 0
1, 174119, Note_on_c, 9, 54, 0
1, 174119, Note_on_c, 9, 51, 0
1, 174120, Note_on_c, 9, 54, 83
1, 174239, Note_on_c, 9, 36, 0
1, 174239, Note_on_c, 9, 54, 0
1, 174240, Note_on_c, 9, 38, 107
1, 174240, Note_on_c, 9, 54, 112
1, 174240, Note_on_c, 9, 51, 81
1, 174240, Note_on_c, 9, 36, 109
1, 174359, Note_on_c, 9, 38, 0
1, 174359, Note_on_c, 9, 54, 0
1, 174359, Note_on_c, 9, 51, 0
1, 174360, Note_on_c, 9, 54, 69
1, 174479, Note_on_c, 9, 36, 0
1, 174479, Note_on_c, 9, 54, 0
1, 174480, Note_on_c, 9, 38, 109
1, 174480, Note_on_c, 9, 54, 57
1, 174480, Note_on_c, 9, 51, 77
1, 174480, Note_on_c, 9, 36, 109
1, 174599, Note_on_c, 9, 38, 0
1, 174599, Note_on_c, 9, 54, 0
1, 174599, Note_on_c, 9, 51, 0
1, 174600, Note_on_c, 9, 54, 73
1, 174719, Note_on_c, 9, 36, 0
1, 174719, Note_on_c, 9, 54, 0
1, 174720, Note_on_c, 9, 38, 113
1, 174720, Note_on_c, 9, 51, 82
1, 174720, Note_on_c, 9, 36, 118
1, 174735, Note_on_c, 9, 54, 119
1, 174779, Note_on_c, 9, 54, 0
1, 174839, Note_on_c, 9, 38, 0
1, 174839, Note_on_c, 9, 51, 0
1, 174840, Note_on_c, 9, 54, 56
1, 174959, Note_on_c, 9, 36, 0
1, 174959, Note_on_c, 9, 54, 0
1, 174960, Note_on_c, 9, 38, 105
1, 174960, Note_on_c, 9, 54, 51
1, 174960, Note_on_c, 9, 51, 72
1, 174960, Note_on_c, 9, 36, 105
1, 175079, Note_on_c, 9, 38, 0
1, 175079, Note_on_c, 9, 54, 0
1, 175079, Note_on_c, 9, 51, 0
1, 175080, Note_on_c, 9, 54, 82
1, 175199, Note_on_c, 9, 36, 0
1, 175199, Note_on_c, 9, 54, 0
1, 175200, Note_on_c, 9, 38, 114
1, 175200, Note_on_c, 9, 54, 121
1, 175200, Note_on_c, 9, 51, 73
1, 175200, Note_on_c, 9, 36, 108
1, 175319, Note_on_c, 9, 38, 0
1, 175319, Note_on_c, 9, 54, 0
1, 175319, Note_on_c, 9, 51, 0
1, 175320, Note_on_c, 9, 54, 69
1, 175409, Note_on_c, 9, 54, 0
1, 175425, Note_on_c, 9, 38, 109
1, 175425, Note_on_c, 9, 54, 59
1, 175439, Note_on_c, 9, 36, 0
1, 175440, Note_on_c, 9, 51, 79
1, 175440, Note_on_c, 9, 36, 104
1, 175484, Note_on_c, 9, 38, 0
1, 175559, Note_on_c, 9, 54, 0
1, 175559, Note_on_c, 9, 51, 0
1, 175560, Note_on_c, 9, 54, 85
1, 175679, Note_on_c, 9, 36, 0
1, 175679, Note_on_c, 9, 54, 0
1, 175680, Note_on_c, 9, 38, 114
1, 175680, Note_on_c, 9, 54, 117
1, 175680, Note_on_c, 9, 36, 114
1, 175695, Note_on_c, 9, 51, 76
1, 175754, Note_on_c, 9, 51, 0
1, 175799, Note_on_c, 9, 38, 0
1, 175799, Note_on_c, 9, 54, 0
1, 175800, Note_on_c, 9, 54, 58
1, 175919, Note_on_c, 9, 36, 0
1, 175919, Note_on_c, 9, 54, 0
1, 175920, Note_on_c, 9, 38, 115
1, 175920, Note_on_c, 9, 54, 54
1, 175920, Note_on_c, 9, 51, 78
1, 175920, Note_on_c, 9, 36, 107
1, 176039, Note_on_c, 9, 38, 0
1, 176039, Note_on_c, 9, 54, 0
1, 176039, Note_on_c, 9, 51, 0
1, 176040, Note_on_c, 9, 54, 72
1, 176159, Note_on_c, 9, 36, 0
1, 176159, Note_on_c, 9, 54, 0
1, 176160, Note_on_c, 9, 38, 115
1, 176160, Note_on_c, 9, 54, 122
1, 176160, Note_on_c, 9, 51, 76
1, 176160, Note_on_c, 9, 36, 104
1, 176279, Note_on_c, 9, 38, 0
1, 176279, Note_on_c, 9, 54, 0
1, 176279, Note_on_c, 9, 51, 0
1, 176280, Note_on_c, 9, 54, 72
1, 176399, Note_on_c, 9, 36, 0
1, 176399, Note_on_c, 9, 54, 0
1, 176400, Note_on_c, 9, 38, 118
1, 176400, Note_on_c, 9, 54, 65
1, 176400, Note_on_c, 9, 51, 84
1, 176400, Note_on_c, 9, 36, 108
1, 176519, Note_on_c, 9, 38, 0
1, 176519, Note_on_c, 9, 54, 0
1, 176519, Note_on_c, 9, 51, 0
1, 176520, Note_on_c, 9, 54, 80
1, 176639, Note_on_c, 9, 36, 0
1, 176639, Note_on_c, 9, 54, 0
1, 176640, Time_signature, 2, 2, 24, 8
1, 176640, Note_on_c, 9, 38, 112
1, 176640, Note_on_c, 9, 54, 122
1, 176640, Note_on_c, 9, 51, 83
1, 176640, Note_on_c, 9, 36, 112
1, 176759, Note_on_c, 9, 38, 0
1, 176759, Note_on_c, 9, 54, 0
1, 176759, Note_on_c, 9, 51, 0
1, 176760, Note_on_c, 9, 54, 59
1, 176879, Note_on_c, 9, 36, 0
1, 176879, Note_on_c, 9, 54, 0
1, 176880, Note_on_c, 9, 38, 112
1, 176880, Note_on_c, 9, 54, 58
1, 176880, Note_on_c, 9, 51, 83
1, 176880, Note_on_c, 9, 36, 108
1, 176999, Note_on_c, 9, 38, 0
1, 176999, Note_on_c, 9, 54, 0
1, 176999, Note_on_c, 9, 51, 0
1, 177000, Note_on_c, 9, 54, 81
1, 177119, Note_on_c, 9, 36, 0
1, 177119, Note_on_c, 9, 54, 0
1, 177120, Note_on_c, 9, 54, 122
1, 177120, Note_on_c, 9, 36, 106
1, 177135, Note_on_c, 9, 38, 116
1, 177135, Note_on_c, 9, 51, 80
1, 177194, Note_on_c, 9, 38, 0
1, 177194, Note_on_c, 9, 51, 0
1, 177239, Note_on_c, 9, 54, 0
1, 177240, Note_on_c, 9, 54, 67
1, 177329, Note_on_c, 9, 54, 0
1, 177345, Note_on_c, 9, 38, 114
1, 177345, Note_on_c, 9, 54, 61
1, 177359, Note_on_c, 9, 36, 0
1, 177360, Note_on_c, 9, 51, 84
1, 177360, Note_on_c, 9, 36, 109
1, 177404, Note_on_c, 9, 38, 0
1, 177479, Note_on_c, 9, 54, 0
1, 177479, Note_on_c, 9, 51, 0
1, 177480, Note_on_c, 9, 54, 76
1, 177599, Note_on_c, 9, 36, 0
1, 177599, Note_on_c, 9, 54, 0
1, 177600, Time_signature, 4, 2, 24, 8
1, 177600, Note_on_c, 9, 57, 71
1, 177600, Note_on_c, 9, 36, 110
1, 177719, Note_on_c, 9, 57, 0
1, 177720, Note_on_c, 9, 54, 70
1, 177839, Note_on_c, 9, 54, 0
1, 177840, Note_on_c, 9, 54, 70
1, 177959, Note_on_c, 9, 54, 0
1, 177960, Note_on_c, 9, 54, 70
1, 178079, Note_on_c, 9, 36, 0
1, 178079, Note_on_c, 9, 54, 0
1, 178080, Note_on_c, 9, 38, 114
1, 178080, Note_on_c, 9, 54, 111
1, 178080, Note_on_c, 9, 51, 103
1, 178080, Note_on_c, 9, 36, 109
1, 178199, Note_on_c, 9, 38, 0
1, 178199, Note_on_c, 9, 54, 0
1, 178199, Note_on_c, 9, 51, 0
1, 178200, Note_on_c, 9, 54, 70
1, 178319, Note_on_c, 9, 54, 0
1, 178320, Note_on_c, 9, 54, 70
1, 178439, Note_on_c, 9, 54, 0
1, 178440, Note_on_c, 9, 54, 70
1, 178559, Note_on_c, 9, 36, 0
1, 178559, Note_on_c, 9, 54, 0
1, 178560, Note_on_c, 9, 54, 103
1, 178560, Note_on_c, 9, 51, 103
1, 178560, Note_on_c, 9, 36, 118
1, 178679, Note_on_c, 9, 54, 0
1, 178679, Note_on_c, 9, 51, 0
1, 178680, Note_on_c, 9, 54, 70
1, 178799, Note_on_c, 9, 36, 0
1, 178799, Note_on_c, 9, 54, 0
1, 178800, Note_on_c, 9, 54, 70
1, 178800, Note_on_c, 9, 36, 106
1, 178919, Note_on_c, 9, 54, 0
1, 178920, Note_on_c, 9, 54, 70
1, 179039, Note_on_c, 9, 36, 0
1, 179039, Note_on_c, 9, 54, 0
1, 179040, Note_on_c, 9, 38, 110
1, 179040, Note_on_c, 9, 54, 111
1, 179040, Note_on_c, 9, 51, 103
1, 179159, Note_on_c, 9, 38, 0
1, 179159, Note_on_c, 9, 54, 0
1, 179159, Note_on_c, 9, 51, 0
1, 179160, Note_on_c, 9, 54, 70
1, 179279, Note_on_c, 9, 54, 0
1, 179280, Note_on_c, 9, 54, 70
1, 179399, Note_on_c, 9, 54, 0
1, 179400, Note_on_c, 9, 54, 70
1, 179519, Note_on_c, 9, 54, 0
1, 179520, Note_on_c, 9, 54, 111
1, 179520, Note_on_c, 9, 51, 109
1, 179520, Note_on_c, 9, 36, 108
1, 179639, Note_on_c, 9, 54, 0
1, 179639, Note_on_c, 9, 51, 0
1, 179640, Note_on_c, 9, 54, 70
1, 179759, Note_on_c, 9, 36, 0
1, 179759, Note_on_c, 9, 54, 0
1, 179760, Note_on_c, 9, 54, 70
1, 179760, Note_on_c, 9, 36, 110
1, 179879, Note_on_c, 9, 54, 0
1, 179880, Note_on_c, 9, 54, 70
1, 179999, Note_on_c, 9, 36, 0
1, 179999, Note_on_c, 9, 54, 0
1, 180000, Note_on_c, 9, 38, 110
1, 180000, Note_on_c, 9, 54, 103
1, 180000, Note_on_c, 9, 51, 103
1, 180119, Note_on_c, 9, 38, 0
1, 180119, Note_on_c, 9, 54, 0
1, 180119, Note_on_c, 9, 51, 0
1, 180120, Note_on_c, 9, 54, 70
1, 180239, Note_on_c, 9, 54, 0
1, 180240, Note_on_c, 9, 54, 70
1, 180359, Note_on_c, 9, 54, 0
1, 180360, Note_on_c, 9, 54, 70
1, 180479, Note_on_c, 9, 54, 0
1, 180480, Note_on_c, 9, 38, 111
1, 180480, Note_on_c, 9, 54, 119
1, 180480, Note_on_c, 9, 51, 103
1, 180599, Note_on_c, 9, 38, 0
1, 180599, Note_on_c, 9, 54, 0
1, 180599, Note_on_c, 9, 51, 0
1, 180600, Note_on_c, 9, 54, 70
1, 180719, Note_on_c, 9, 54, 0
1, 180720, Note_on_c, 9, 54, 70
1, 180720, Note_on_c, 9, 36, 89
1, 180839, Note_on_c, 9, 54, 0
1, 180840, Note_on_c, 9, 54, 70
1, 180959, Note_on_c, 9, 36, 0
1, 180959, Note_on_c, 9, 54, 0
1, 180960, Note_on_c, 9, 38, 108
1, 180960, Note_on_c, 9, 54, 103
1, 180960, Note_on_c, 9, 51, 81
1, 181079, Note_on_c, 9, 38, 0
1, 181079, Note_on_c, 9, 54, 0
1, 181079, Note_on_c, 9, 51, 0
1, 181080, Note_on_c, 9, 54, 70
1, 181199, Note_on_c, 9, 54, 0
1, 181200, Note_on_c, 9, 54, 70
1, 181319, Note_on_c, 9, 54, 0
1, 181320, Note_on_c, 9, 54, 70
1, 181439, Note_on_c, 9, 54, 0
1, 181440, Note_on_c, 9, 38, 105
1, 181440, Note_on_c, 9, 54, 103
1, 181440, Note_on_c, 9, 51, 96
1, 181559, Note_on_c, 9, 38, 0
1, 181559, Note_on_c, 9, 54, 0
1, 181559, Note_on_c, 9, 51, 0
1, 181560, Note_on_c, 9, 54, 70
1, 181679, Note_on_c, 9, 54, 0
1, 181680, Note_on_c, 9, 54, 70
1, 181680, Note_on_c, 9, 36, 100
1, 181799, Note_on_c, 9, 54, 0
1, 181800, Note_on_c, 9, 54, 70
1, 181919, Note_on_c, 9, 36, 0
1, 181919, Note_on_c, 9, 54, 0
1, 181920, Note_on_c, 9, 38, 109
1, 181920, Note_on_c, 9, 54, 103
1, 181920, Note_on_c, 9, 51, 103
1, 182039, Note_on_c, 9, 38, 0
1, 182039, Note_on_c, 9, 54, 0
1, 182039, Note_on_c, 9, 51, 0
1, 182040, Note_on_c, 9, 54, 70
1, 182159, Note_on_c, 9, 54, 0
1, 182160, Note_on_c, 9, 54, 70
1, 182279, Note_on_c, 9, 54, 0
1, 182280, Note_on_c, 9, 54, 70
1, 182399, Note_on_c, 9, 54, 0
1, 182400, Note_on_c, 9, 38, 109
1, 182400, Note_on_c, 9, 54, 119
1, 182400, Note_on_c, 9, 51, 103
1, 182519, Note_on_c, 9, 38, 0
1, 182519, Note_on_c, 9, 54, 0
1, 182519, Note_on_c, 9, 51, 0
1, 182520, Note_on_c, 9, 54, 70
1, 182639, Note_on_c, 9, 54, 0
1, 182640, Note_on_c, 9, 54, 70
1, 182640, Note_on_c, 9, 36, 100
1, 182759, Note_on_c, 9, 54, 0
1, 182760, Note_on_c, 9, 54, 70
1, 182879, Note_on_c, 9, 36, 0
1, 182879, Note_on_c, 9, 54, 0
1, 182880, Note_on_c, 9, 38, 102
1, 182880, Note_on_c, 9, 54, 111
1, 182880, Note_on_c, 9, 51, 103
1, 182999, Note_on_c, 9, 38, 0
1, 182999, Note_on_c, 9, 54, 0
1, 182999, Note_on_c, 9, 51, 0
1, 183000, Note_on_c, 9, 54, 70
1, 183119, Note_on_c, 9, 54, 0
1, 183120, Note_on_c, 9, 54, 70
1, 183120, Note_on_c, 9, 36, 99
1, 183239, Note_on_c, 9, 54, 0
1, 183240, Note_on_c, 9, 54, 70
1, 183359, Note_on_c, 9, 36, 0
1, 183359, Note_on_c, 9, 54, 0
1, 183360, Note_on_c, 9, 38, 105
1, 183360, Note_on_c, 9, 54, 111
1, 183360, Note_on_c, 9, 51, 109
1, 183539, Note_on_c, 9, 38, 0
1, 183539, Note_on_c, 9, 54, 0
1, 183539, Note_on_c, 9, 51, 0
1, 183540, Note_on_c, 9, 54, 70
1, 183599, Note_on_c, 9, 54, 0
1, 183600, Note_on_c, 9, 54, 62
1, 183600, Note_on_c, 9, 36, 105
1, 183719, Note_on_c, 9, 54, 0
1, 183720, Note_on_c, 9, 54, 62
1, 183839, Note_on_c, 9, 36, 0
1, 183839, Note_on_c, 9, 54, 0
1, 183840, Note_on_c, 9, 38, 90
1, 183840, Note_on_c, 9, 54, 95
1, 183840, Note_on_c, 9, 51, 109
1, 183959, Note_on_c, 9, 38, 0
1, 183959, Note_on_c, 9, 54, 0
1, 183959, Note_on_c, 9, 51, 0
1, 183960, Note_on_c, 9, 54, 62
1, 184079, Note_on_c, 9, 54, 0
1, 184080, Note_on_c, 9, 54, 62
1, 184199, Note_on_c, 9, 54, 0
1, 184200, Note_on_c, 9, 54, 62
1, 184319, Note_on_c, 9, 54, 0
1, 184320, Note_on_c, 9, 38, 104
1, 184320, Note_on_c, 9, 54, 103
1, 184320, Note_on_c, 9, 51, 109
1, 184379, Note_on_c, 9, 38, 0
1, 184379, Note_on_c, 9, 54, 0
1, 184379, Note_on_c, 9, 51, 0
1, 184380, Note_on_c, 9, 54, 95
1, 184439, Note_on_c, 9, 54, 0
1, 184440, Note_on_c, 9, 54, 62
1, 184559, Note_on_c, 9, 54, 0
1, 184560, Note_on_c, 9, 54, 62
1, 184560, Note_on_c, 9, 36, 102
1, 184679, Note_on_c, 9, 54, 0
1, 184680, Note_on_c, 9, 54, 62
1, 184799, Note_on_c, 9, 36, 0
1, 184799, Note_on_c, 9, 54, 0
1, 184800, Note_on_c, 9, 38, 104
1, 184800, Note_on_c, 9, 54, 103
1, 184800, Note_on_c, 9, 51, 109
1, 184859, Note_on_c, 9, 38, 0
1, 184859, Note_on_c, 9, 54, 0
1, 184859, Note_on_c, 9, 51, 0
1, 184860, Note_on_c, 9, 54, 111
1, 184919, Note_on_c, 9, 54, 0
1, 184920, Note_on_c, 9, 54, 62
1, 185039, Note_on_c, 9, 54, 0
1, 185040, Note_on_c, 9, 54, 62
1, 185159, Note_on_c, 9, 54, 0
1, 185160, Note_on_c, 9, 54, 62
1, 185279, Note_on_c, 9, 54, 0
1, 185280, Note_on_c, 9, 38, 114
1, 185280, Note_on_c, 9, 54, 111
1, 185280, Note_on_c, 9, 51, 109
1, 185399, Note_on_c, 9, 38, 0
1, 185399, Note_on_c, 9, 54, 0
1, 185399, Note_on_c, 9, 51, 0
1, 185400, Note_on_c, 9, 54, 62
1, 185519, Note_on_c, 9, 54, 0
1, 185520, Note_on_c, 9, 54, 62
1, 185520, Note_on_c, 9, 36, 102
1, 185639, Note_on_c, 9, 54, 0
1, 185640, Note_on_c, 9, 54, 62
1, 185759, Note_on_c, 9, 36, 0
1, 185759, Note_on_c, 9, 54, 0
1, 185760, Note_on_c, 9, 38, 118
1, 185760, Note_on_c, 9, 54, 95
1, 185760, Note_on_c, 9, 51, 109
1, 185879, Note_on_c, 9, 38, 0
1, 185879, Note_on_c, 9, 54, 0
1, 185879, Note_on_c, 9, 51, 0
1, 185880, Note_on_c, 9, 54, 62
1, 185999, Note_on_c, 9, 54, 0
1, 186000, Note_on_c, 9, 54, 62
1, 186119, Note_on_c, 9, 54, 0
1, 186120, Note_on_c, 9, 54, 62
1, 186239, Note_on_c, 9, 54, 0
1, 186240, Note_on_c, 9, 38, 113
1, 186240, Note_on_c, 9, 54, 103
1, 186240, Note_on_c, 9, 51, 109
1, 186359, Note_on_c, 9, 38, 0
1, 186359, Note_on_c, 9, 54, 0
1, 186359, Note_on_c, 9, 51, 0
1, 186360, Note_on_c, 9, 54, 62
1, 186479, Note_on_c, 9, 54, 0
1, 186480, Note_on_c, 9, 54, 62
1, 186480, Note_on_c, 9, 36, 103
1, 186599, Note_on_c, 9, 54, 0
1, 186600, Note_on_c, 9, 54, 62
1, 186719, Note_on_c, 9, 36, 0
1, 186719, Note_on_c, 9, 54, 0
1, 186720, Note_on_c, 9, 38, 98
1, 186720, Note_on_c, 9, 54, 111
1, 186720, Note_on_c, 9, 51, 108
1, 186839, Note_on_c, 9, 38, 0
1, 186839, Note_on_c, 9, 54, 0
1, 186839, Note_on_c, 9, 51, 0
1, 186840, Note_on_c, 9, 54, 62
1, 186959, Note_on_c, 9, 54, 0
1, 186960, Note_on_c, 9, 54, 62
1, 186960, Note_on_c, 9, 36, 99
1, 187079, Note_on_c, 9, 54, 0
1, 187080, Note_on_c, 9, 54, 62
1, 187199, Note_on_c, 9, 36, 0
1, 187199, Note_on_c, 9, 54, 0
1, 187200, Note_on_c, 9, 38, 113
1, 187200, Note_on_c, 9, 54, 111
1, 187200, Note_on_c, 9, 51, 108
1, 187319, Note_on_c, 9, 38, 0
1, 187319, Note_on_c, 9, 54, 0
1, 187319, Note_on_c, 9, 51, 0
1, 187320, Note_on_c, 9, 54, 62
1, 187439, Note_on_c, 9, 54, 0
1, 187440, Note_on_c, 9, 54, 62
1, 187440, Note_on_c, 9, 36, 98
1, 187559, Note_on_c, 9, 54, 0
1, 187560, Note_on_c, 9, 54, 62
1, 187679, Note_on_c, 9, 36, 0
1, 187679, Note_on_c, 9, 54, 0
1, 187680, Note_on_c, 9, 38, 92
1, 187680, Note_on_c, 9, 54, 111
1, 187680, Note_on_c, 9, 51, 102
1, 187799, Note_on_c, 9, 38, 0
1, 187799, Note_on_c, 9, 54, 0
1, 187799, Note_on_c, 9, 51, 0
1, 187800, Note_on_c, 9, 54, 62
1, 187919, Note_on_c, 9, 54, 0
1, 187920, Note_on_c, 9, 54, 62
1, 188039, Note_on_c, 9, 54, 0
1, 188040, Note_on_c, 9, 54, 62
1, 188159, Note_on_c, 9, 54, 0
1, 188160, Note_on_c, 9, 38, 109
1, 188160, Note_on_c, 9, 54, 111
1, 188160, Note_on_c, 9, 51, 102
1, 188279, Note_on_c, 9, 38, 0
1, 188279, Note_on_c, 9, 54, 0
1, 188279, Note_on_c, 9, 51, 0
1, 188280, Note_on_c, 9, 54, 62
1, 188399, Note_on_c, 9, 54, 0
1, 188400, Note_on_c, 9, 54, 62
1, 188400, Note_on_c, 9, 36, 97
1, 188519, Note_on_c, 9, 54, 0
1, 188520, Note_on_c, 9, 54, 62
1, 188639, Note_on_c, 9, 36, 0
1, 188639, Note_on_c, 9, 54, 0
1, 188640, Note_on_c, 9, 38, 97
1, 188640, Note_on_c, 9, 54, 96
1, 188640, Note_on_c, 9, 51, 74
1, 188759, Note_on_c, 9, 38, 0
1, 188759, Note_on_c, 9, 54, 0
1, 188759, Note_on_c, 9, 51, 0
1, 188760, Note_on_c, 9, 54, 62
1, 188879, Note_on_c, 9, 54, 0
1, 188880, Note_on_c, 9, 54, 62
1, 188999, Note_on_c, 9, 54, 0
1, 189000, Note_on_c, 9, 54, 62
1, 189119, Note_on_c, 9, 54, 0
1, 189120, Note_on_c, 9, 38, 115
1, 189120, Note_on_c, 9, 54, 111
1, 189120, Note_on_c, 9, 51, 102
1, 189239, Note_on_c, 9, 38, 0
1, 189239, Note_on_c, 9, 54, 0
1, 189239, Note_on_c, 9, 51, 0
1, 189240, Note_on_c, 9, 54, 62
1, 189359, Note_on_c, 9, 54, 0
1, 189360, Note_on_c, 9, 54, 62
1, 189360, Note_on_c, 9, 36, 102
1, 189479, Note_on_c, 9, 54, 0
1, 189480, Note_on_c, 9, 54, 62
1, 189599, Note_on_c, 9, 36, 0
1, 189599, Note_on_c, 9, 54, 0
1, 189600, Note_on_c, 9, 38, 115
1, 189600, Note_on_c, 9, 54, 111
1, 189600, Note_on_c, 9, 51, 102
1, 189719, Note_on_c, 9, 38, 0
1, 189719, Note_on_c, 9, 54, 0
1, 189719, Note_on_c, 9, 51, 0
1, 189720, Note_on_c, 9, 54, 62
1, 189839, Note_on_c, 9, 54, 0
1, 189840, Note_on_c, 9, 54, 62
1, 189959, Note_on_c, 9, 54, 0
1, 189960, Note_on_c, 9, 54, 62
1, 190079, Note_on_c, 9, 54, 0
1, 190080, Note_on_c, 9, 38, 79
1, 190080, Note_on_c, 9, 54, 111
1, 190080, Note_on_c, 9, 36, 87
1, 190199, Note_on_c, 9, 38, 0
1, 190199, Note_on_c, 9, 54, 0
1, 190200, Note_on_c, 9, 54, 62
1, 190319, Note_on_c, 9, 36, 0
1, 190319, Note_on_c, 9, 54, 0
1, 190320, Note_on_c, 9, 38, 87
1, 190320, Note_on_c, 9, 54, 62
1, 190320, Note_on_c, 9, 36, 87
1, 190439, Note_on_c, 9, 38, 0
1, 190439, Note_on_c, 9, 54, 0
1, 190440, Note_on_c, 9, 54, 62
1, 190559, Note_on_c, 9, 36, 0
1, 190559, Note_on_c, 9, 54, 0
1, 190560, Note_on_c, 9, 38, 87
1, 190560, Note_on_c, 9, 54, 111
1, 190560, Note_on_c, 9, 36, 95
1, 190679, Note_on_c, 9, 38, 0
1, 190679, Note_on_c, 9, 54, 0
1, 190680, Note_on_c, 9, 54, 62
1, 190799, Note_on_c, 9, 36, 0
1, 190799, Note_on_c, 9, 54, 0
1, 190800, Note_on_c, 9, 38, 103
1, 190800, Note_on_c, 9, 54, 62
1, 190800, Note_on_c, 9, 36, 95
1, 190919, Note_on_c, 9, 38, 0
1, 190919, Note_on_c, 9, 54, 0
1, 190920, Note_on_c, 9, 54, 62
1, 191039, Note_on_c, 9, 36, 0
1, 191039, Note_on_c, 9, 54, 0
1, 191040, Note_on_c, 9, 38, 103
1, 191040, Note_on_c, 9, 54, 111
1, 191040, Note_on_c, 9, 36, 95
1, 191159, Note_on_c, 9, 38, 0
1, 191159, Note_on_c, 9, 54, 0
1, 191160, Note_on_c, 9, 54, 62
1, 191279, Note_on_c, 9, 36, 0
1, 191279, Note_on_c, 9, 54, 0
1, 191280, Note_on_c, 9, 38, 103
1, 191280, Note_on_c, 9, 54, 62
1, 191280, Note_on_c, 9, 36, 103
1, 191399, Note_on_c, 9, 38, 0
1, 191399, Note_on_c, 9, 54, 0
1, 191400, Note_on_c, 9, 54, 62
1, 191519, Note_on_c, 9, 36, 0
1, 191519, Note_on_c, 9, 54, 0
1, 191520, Note_on_c, 9, 38, 103
1, 191520, Note_on_c, 9, 54, 111
1, 191520, Note_on_c, 9, 36, 111
1, 191639, Note_on_c, 9, 38, 0
1, 191639, Note_on_c, 9, 54, 0
1, 191640, Note_on_c, 9, 54, 62
1, 191759, Note_on_c, 9, 36, 0
1, 191759, Note_on_c, 9, 54, 0
1, 191760, Note_on_c, 9, 38, 103
1, 191760, Note_on_c, 9, 54, 62
1, 191760, Note_on_c, 9, 36, 119
1, 191879, Note_on_c, 9, 38, 0
1, 191879, Note_on_c, 9, 54, 0
1, 191880, Note_on_c, 9, 54, 62
1, 191999, Note_on_c, 9, 36, 0
1, 191999, Note_on_c, 9, 54, 0
1, 192000, Note_on_c, 9, 38, 119
1, 192000, Note_on_c, 9, 54, 111
1, 192000, Note_on_c, 9, 36, 119
1, 192119, Note_on_c, 9, 38, 0
1, 192119, Note_on_c, 9, 54, 0
1, 192120, Note_on_c, 9, 54, 62
1, 192239, Note_on_c, 9, 54, 0
1, 192240, Note_on_c, 9, 38, 95
1, 192240, Note_on_c, 9, 54, 62
1, 192359, Note_on_c, 9, 38, 0
1, 192359, Note_on_c, 9, 54, 0
1, 192360, Note_on_c, 9, 38, 111
1, 192360, Note_on_c, 9, 54, 62
1, 192479, Note_on_c, 9, 36, 0
1, 192479, Note_on_c, 9, 38, 0
1, 192479, Note_on_c, 9, 54, 0
1, 192480, Note_on_c, 9, 38, 127
1, 192480, Note_on_c, 9, 54, 111
1, 192599, Note_on_c, 9, 38, 0
1, 192599, Note_on_c, 9, 54, 0
1, 192600, Note_on_c, 9, 38, 127
1, 192600, Note_on_c, 9, 54, 62
1, 192719, Note_on_c, 9, 38, 0
1, 192719, Note_on_c, 9, 54, 0
1, 192720, Note_on_c, 9, 45, 108
1, 192720, Note_on_c, 9, 54, 62
1, 192839, Note_on_c, 9, 45, 0
1, 192839, Note_on_c, 9, 54, 0
1, 192840, Note_on_c, 9, 45, 108
1, 192840, Note_on_c, 9, 54, 62
1, 192959, Note_on_c, 9, 45, 0
1, 192959, Note_on_c, 9, 54, 0
1, 192960, Note_on_c, 9, 54, 103
1, 192960, Note_on_c, 9, 57, 71
1, 192960, Note_on_c, 9, 36, 110
1, 193079, Note_on_c, 9, 54, 0
1, 193079, Note_on_c, 9, 57, 0
1, 193080, Note_on_c, 9, 54, 70
1, 193199, Note_on_c, 9, 54, 0
1, 193200, Note_on_c, 9, 54, 70
1, 193319, Note_on_c, 9, 54, 0
1, 193320, Note_on_c, 9, 54, 70
1, 193439, Note_on_c, 9, 36, 0
1, 193439, Note_on_c, 9, 54, 0
1, 193440, Note_on_c, 9, 38, 114
1, 193440, Note_on_c, 9, 54, 111
1, 193440, Note_on_c, 9, 51, 103
1, 193559, Note_on_c, 9, 38, 0
1, 193559, Note_on_c, 9, 54, 0
1, 193559, Note_on_c, 9, 51, 0
1, 193560, Note_on_c, 9, 54, 70
1, 193679, Note_on_c, 9, 54, 0
1, 193680, Note_on_c, 9, 54, 70
1, 193799, Note_on_c, 9, 54, 0
1, 193800, Note_on_c, 9, 54, 70
1, 193919, Note_on_c, 9, 54, 0
1, 193920, Note_on_c, 9, 54, 111
1, 193920, Note_on_c, 9, 51, 103
1, 193920, Note_on_c, 9, 36, 118
1, 194039, Note_on_c, 9, 54, 0
1, 194039, Note_on_c, 9, 51, 0
1, 194040, Note_on_c, 9, 54, 70
1, 194159, Note_on_c, 9, 36, 0
1, 194159, Note_on_c, 9, 54, 0
1, 194160, Note_on_c, 9, 54, 70
1, 194160, Note_on_c, 9, 36, 106
1, 194279, Note_on_c, 9, 54, 0
1, 194280, Note_on_c, 9, 54, 70
1, 194399, Note_on_c, 9, 36, 0
1, 194399, Note_on_c, 9, 54, 0
1, 194400, Note_on_c, 9, 38, 110
1, 194400, Note_on_c, 9, 54, 111
1, 194400, Note_on_c, 9, 51, 103
1, 194519, Note_on_c, 9, 38, 0
1, 194519, Note_on_c, 9, 54, 0
1, 194519, Note_on_c, 9, 51, 0
1, 194520, Note_on_c, 9, 54, 70
1, 194639, Note_on_c, 9, 54, 0
1, 194640, Note_on_c, 9, 54, 70
1, 194759, Note_on_c, 9, 54, 0
1, 194760, Note_on_c, 9, 54, 70
1, 194879, Note_on_c, 9, 54, 0
1, 194880, Note_on_c, 9, 54, 111
1, 194880, Note_on_c, 9, 51, 109
1, 194880, Note_on_c, 9, 36, 108
1, 194999, Note_on_c, 9, 54, 0
1, 194999, Note_on_c, 9, 51, 0
1, 195000, Note_on_c, 9, 54, 70
1, 195119, Note_on_c, 9, 36, 0
1, 195119, Note_on_c, 9, 54, 0
1, 195120, Note_on_c, 9, 54, 70
1, 195120, Note_on_c, 9, 36, 110
1, 195239, Note_on_c, 9, 54, 0
1, 195240, Note_on_c, 9, 54, 70
1, 195359, Note_on_c, 9, 36, 0
1, 195359, Note_on_c, 9, 54, 0
1, 195360, Note_on_c, 9, 38, 91
1, 195360, Note_on_c, 9, 54, 103
1, 195360, Note_on_c, 9, 51, 103
1, 195479, Note_on_c, 9, 38, 0
1, 195479, Note_on_c, 9, 54, 0
1, 195479, Note_on_c, 9, 51, 0
1, 195480, Note_on_c, 9, 54, 70
1, 195599, Note_on_c, 9, 54, 0
1, 195600, Note_on_c, 9, 54, 70
1, 195719, Note_on_c, 9, 54, 0
1, 195720, Note_on_c, 9, 54, 70
1, 195839, Note_on_c, 9, 54, 0
1, 195840, Note_on_c, 9, 38, 111
1, 195840, Note_on_c, 9, 54, 119
1, 195840, Note_on_c, 9, 51, 103
1, 195959, Note_on_c, 9, 38, 0
1, 195959, Note_on_c, 9, 54, 0
1, 195959, Note_on_c, 9, 51, 0
1, 195960, Note_on_c, 9, 54, 70
1, 196079, Note_on_c, 9, 54, 0
1, 196080, Note_on_c, 9, 54, 70
1, 196080, Note_on_c, 9, 36, 89
1, 196199, Note_on_c, 9, 54, 0
1, 196200, Note_on_c, 9, 54, 70
1, 196319, Note_on_c, 9, 36, 0
1, 196319, Note_on_c, 9, 54, 0
1, 196320, Note_on_c, 9, 38, 108
1, 196320, Note_on_c, 9, 54, 103
1, 196320, Note_on_c, 9, 51, 81
1, 196439, Note_on_c, 9, 38, 0
1, 196439, Note_on_c, 9, 54, 0
1, 196439, Note_on_c, 9, 51, 0
1, 196440, Note_on_c, 9, 54, 70
1, 196559, Note_on_c, 9, 54, 0
1, 196560, Note_on_c, 9, 54, 70
1, 196679, Note_on_c, 9, 54, 0
1, 196680, Note_on_c, 9, 54, 70
1, 196799, Note_on_c, 9, 54, 0
1, 196800, Note_on_c, 9, 38, 105
1, 196800, Note_on_c, 9, 54, 103
1, 196800, Note_on_c, 9, 51, 96
1, 196919, Note_on_c, 9, 38, 0
1, 196919, Note_on_c, 9, 54, 0
1, 196919, Note_on_c, 9, 51, 0
1, 196920, Note_on_c, 9, 54, 70
1, 197039, Note_on_c, 9, 54, 0
1, 197040, Note_on_c, 9, 54, 70
1, 197040, Note_on_c, 9, 36, 100
1, 197159, Note_on_c, 9, 54, 0
1, 197160, Note_on_c, 9, 54, 70
1, 197279, Note_on_c, 9, 36, 0
1, 197279, Note_on_c, 9, 54, 0
1, 197280, Note_on_c, 9, 38, 109
1, 197280, Note_on_c, 9, 54, 103
1, 197280, Note_on_c, 9, 51, 103
1, 197399, Note_on_c, 9, 38, 0
1, 197399, Note_on_c, 9, 54, 0
1, 197399, Note_on_c, 9, 51, 0
1, 197400, Note_on_c, 9, 54, 70
1, 197519, Note_on_c, 9, 54, 0
1, 197520, Note_on_c, 9, 54, 70
1, 197639, Note_on_c, 9, 54, 0
1, 197640, Note_on_c, 9, 54, 70
1, 197759, Note_on_c, 9, 54, 0
1, 197760, Note_on_c, 9, 38, 109
1, 197760, Note_on_c, 9, 54, 119
1, 197760, Note_on_c, 9, 51, 103
1, 197879, Note_on_c, 9, 38, 0
1, 197879, Note_on_c, 9, 54, 0
1, 197879, Note_on_c, 9, 51, 0
1, 197880, Note_on_c, 9, 54, 70
1, 197999, Note_on_c, 9, 54, 0
1, 198000, Note_on_c, 9, 54, 70
1, 198000, Note_on_c, 9, 36, 100
1, 198119, Note_on_c, 9, 54, 0
1, 198120, Note_on_c, 9, 54, 70
1, 198239, Note_on_c, 9, 36, 0
1, 198239, Note_on_c, 9, 54, 0
1, 198240, Note_on_c, 9, 38, 102
1, 198240, Note_on_c, 9, 54, 111
1, 198240, Note_on_c, 9, 51, 103
1, 198359, Note_on_c, 9, 38, 0
1, 198359, Note_on_c, 9, 54, 0
1, 198359, Note_on_c, 9, 51, 0
1, 198360, Note_on_c, 9, 54, 70
1, 198479, Note_on_c, 9, 54, 0
1, 198480, Note_on_c, 9, 54, 70
1, 198480, Note_on_c, 9, 36, 99
1, 198599, Note_on_c, 9, 54, 0
1, 198600, Note_on_c, 9, 54, 70
1, 198719, Note_on_c, 9, 36, 0
1, 198719, Note_on_c, 9, 54, 0
1, 198720, Note_on_c, 9, 38, 105
1, 198720, Note_on_c, 9, 54, 111
1, 198720, Note_on_c, 9, 51, 109
1, 198899, Note_on_c, 9, 38, 0
1, 198899, Note_on_c, 9, 54, 0
1, 198899, Note_on_c, 9, 51, 0
1, 198900, Note_on_c, 9, 54, 70
1, 198959, Note_on_c, 9, 54, 0
1, 198960, Note_on_c, 9, 54, 62
1, 198960, Note_on_c, 9, 36, 105
1, 199079, Note_on_c, 9, 54, 0
1, 199080, Note_on_c, 9, 54, 62
1, 199199, Note_on_c, 9, 36, 0
1, 199199, Note_on_c, 9, 54, 0
1, 199200, Note_on_c, 9, 38, 90
1, 199200, Note_on_c, 9, 54, 95
1, 199200, Note_on_c, 9, 51, 109
1, 199319, Note_on_c, 9, 38, 0
1, 199319, Note_on_c, 9, 54, 0
1, 199319, Note_on_c, 9, 51, 0
1, 199320, Note_on_c, 9, 54, 62
1, 199439, Note_on_c, 9, 54, 0
1, 199440, Note_on_c, 9, 54, 62
1, 199559, Note_on_c, 9, 54, 0
1, 199560, Note_on_c, 9, 54, 62
1, 199679, Note_on_c, 9, 54, 0
1, 199680, Note_on_c, 9, 38, 104
1, 199680, Note_on_c, 9, 54, 103
1, 199680, Note_on_c, 9, 51, 109
1, 199739, Note_on_c, 9, 38, 0
1, 199739, Note_on_c, 9, 54, 0
1, 199739, Note_on_c, 9, 51, 0
1, 199740, Note_on_c, 9, 54, 95
1, 199799, Note_on_c, 9, 54, 0
1, 199800, Note_on_c, 9, 54, 62
1, 199919, Note_on_c, 9, 54, 0
1, 199920, Note_on_c, 9, 54, 62
1, 199920, Note_on_c, 9, 36, 102
1, 200039, Note_on_c, 9, 54, 0
1, 200040, Note_on_c, 9, 54, 62
1, 200159, Note_on_c, 9, 36, 0
1, 200159, Note_on_c, 9, 54, 0
1, 200160, Note_on_c, 9, 38, 104
1, 200160, Note_on_c, 9, 54, 103
1, 200160, Note_on_c, 9, 51, 109
1, 200219, Note_on_c, 9, 38, 0
1, 200219, Note_on_c, 9, 54, 0
1, 200219, Note_on_c, 9, 51, 0
1, 200220, Note_on_c, 9, 54, 111
1, 200279, Note_on_c, 9, 54, 0
1, 200280, Note_on_c, 9, 54, 62
1, 200399, Note_on_c, 9, 54, 0
1, 200400, Note_on_c, 9, 54, 62
1, 200519, Note_on_c, 9, 54, 0
1, 200520, Note_on_c, 9, 54, 62
1, 200639, Note_on_c, 9, 54, 0
1, 200640, Note_on_c, 9, 38, 114
1, 200640, Note_on_c, 9, 54, 111
1, 200640, Note_on_c, 9, 51, 109
1, 200759, Note_on_c, 9, 38, 0
1, 200759, Note_on_c, 9, 54, 0
1, 200759, Note_on_c, 9, 51, 0
1, 200760, Note_on_c, 9, 54, 62
1, 200879, Note_on_c, 9, 54, 0
1, 200880, Note_on_c, 9, 54, 62
1, 200880, Note_on_c, 9, 36, 102
1, 200999, Note_on_c, 9, 54, 0
1, 201000, Note_on_c, 9, 54, 62
1, 201119, Note_on_c, 9, 36, 0
1, 201119, Note_on_c, 9, 54, 0
1, 201120, Note_on_c, 9, 38, 118
1, 201120, Note_on_c, 9, 54, 95
1, 201120, Note_on_c, 9, 51, 109
1, 201239, Note_on_c, 9, 38, 0
1, 201239, Note_on_c, 9, 54, 0
1, 201239, Note_on_c, 9, 51, 0
1, 201240, Note_on_c, 9, 54, 62
1, 201359, Note_on_c, 9, 54, 0
1, 201360, Note_on_c, 9, 54, 62
1, 201479, Note_on_c, 9, 54, 0
1, 201480, Note_on_c, 9, 54, 62
1, 201599, Note_on_c, 9, 54, 0
1, 201600, Note_on_c, 9, 38, 113
1, 201600, Note_on_c, 9, 54, 103
1, 201600, Note_on_c, 9, 51, 109
1, 201719, Note_on_c, 9, 38, 0
1, 201719, Note_on_c, 9, 54, 0
1, 201719, Note_on_c, 9, 51, 0
1, 201720, Note_on_c, 9, 54, 62
1, 201839, Note_on_c, 9, 54, 0
1, 201840, Note_on_c, 9, 54, 62
1, 201840, Note_on_c, 9, 36, 103
1, 201959, Note_on_c, 9, 54, 0
1, 201960, Note_on_c, 9, 54, 62
1, 202079, Note_on_c, 9, 36, 0
1, 202079, Note_on_c, 9, 54, 0
1, 202080, Note_on_c, 9, 54, 111
1, 202559, Note_on_c, 9, 54, 0
1, 202560, End_track
0, 0, End_of_file
