0, 0, Header, 1, 2, 480
1, 0, Start_track
1, 0, Time_signature, 4, 2, 24, 8
1, 0, Key_signature, 0, "major"
1, 0, Tempo, 550459
1, 0, Control_c, 9, 121, 0
1, 0, Program_c, 9, 0
1, 0, Control_c, 9, 7, 125
1, 0, Control_c, 9, 10, 64
1, 0, Control_c, 9, 91, 0
1, 0, Control_c, 9, 93, 0
1, 0, MIDI_port, 0
1, 3360, Note_on_c, 9, 40, 115
1, 3375, Note_on_c, 9, 41, 115
1, 3434, Note_on_c, 9, 41, 0
1, 3839, Note_on_c, 9, 40, 0
1, 4320, Note_on_c, 9, 39, 115
1, 4799, Note_on_c, 9, 39, 0
1, 5280, Note_on_c, 9, 39, 115
1, 5759, Note_on_c, 9, 39, 0
1, 6240, Note_on_c, 9, 39, 115
1, 6719, Note_on_c, 9, 39, 0
1, 6720, Note_on_c, 9, 40, 115
1, 6735, Note_on_c, 9, 45, 115
1, 6794, Note_on_c, 9, 45, 0
1, 7199, Note_on_c, 9, 40, 0
1, 7200, Note_on_c, 9, 40, 115
1, 7215, Note_on_c, 9, 45, 115
1, 7274, Note_on_c, 9, 45, 0
1, 7679, Note_on_c, 9, 40, 0
1, 8160, Note_on_c, 9, 39, 115
1, 8639, Note_on_c, 9, 39, 0
1, 9120, Note_on_c, 9, 39, 115
1, 9599, Note_on_c, 9, 39, 0
1, 10080, Note_on_c, 9, 39, 115
1, 10559, Note_on_c, 9, 39, 0
1, 10560, Note_on_c, 9, 40, 115
1, 10575, Note_on_c, 9, 45, 115
1, 10634, Note_on_c, 9, 45, 0
1, 11039, Note_on_c, 9, 40, 0
1, 11040, Note_on_c, 9, 40, 115
1, 11055, Note_on_c, 9, 45, 115
1, 11114, Note_on_c, 9, 45, 0
1, 11519, Note_on_c, 9, 40, 0
1, 12000, Note_on_c, 9, 39, 115
1, 12479, Note_on_c, 9, 39, 0
1, 12960, Note_on_c, 9, 39, 115
1, 13439, Note_on_c, 9, 39, 0
1, 13920, Note_on_c, 9, 39, 115
1, 14399, Note_on_c, 9, 39, 0
1, 14400, Note_on_c, 9, 40, 115
1, 14415, Note_on_c, 9, 45, 115
1, 14474, Note_on_c, 9, 45, 0
1, 14759, Note_on_c, 9, 40, 0
1, 14760, Note_on_c, 9, 41, 115
1, 14760, Note_on_c, 9, 40, 115
1, 14879, Note_on_c, 9, 41, 0
1, 14879, Note_on_c, 9, 40, 0
1, 14880, Note_on_c, 9, 40, 115
1, 14895, Note_on_c, 9, 45, 115
1, 14954, Note_on_c, 9, 45, 0
1, 15119, Note_on_c, 9, 40, 0
1, 15120, Note_on_c, 9, 40, 115
1, 15135, Note_on_c, 9, 41, 115
1, 15194, Note_on_c, 9, 41, 0
1, 15359, Note_on_c, 9, 40, 0
1, 15360, Note_on_c, 9, 49, 115
1, 15360, Note_on_c, 9, 36, 115
1, 15839, Note_on_c, 9, 49, 0
1, 15839, Note_on_c, 9, 36, 0
1, 15840, Note_on_c, 9, 40, 115
1, 16319, Note_on_c, 9, 40, 0
1, 16320, Note_on_c, 9, 36, 115
1, 16799, Note_on_c, 9, 36, 0
1, 16800, Note_on_c, 9, 40, 115
1, 17279, Note_on_c, 9, 40, 0
1, 17280, Note_on_c, 9, 36, 115
1, 17759, Note_on_c, 9, 36, 0
1, 17760, Note_on_c, 9, 40, 115
1, 18239, Note_on_c, 9, 40, 0
1, 18240, Note_on_c, 9, 36, 115
1, 18719, Note_on_c, 9, 36, 0
1, 18720, Note_on_c, 9, 40, 115
1, 19199, Note_on_c, 9, 40, 0
1, 19200, Note_on_c, 9, 36, 115
1, 19679, Note_on_c, 9, 36, 0
1, 19680, Note_on_c, 9, 40, 115
1, 20159, Note_on_c, 9, 40, 0
1, 20160, Note_on_c, 9, 36, 115
1, 20639, Note_on_c, 9, 36, 0
1, 20640, Note_on_c, 9, 40, 115
1, 21119, Note_on_c, 9, 40, 0
1, 21120, Note_on_c, 9, 36, 115
1, 21599, Note_on_c, 9, 36, 0
1, 21600, Note_on_c, 9, 40, 115
1, 21960, Note_on_c, 9, 36, 115
1, 22079, Note_on_c, 9, 40, 0
1, 22079, Note_on_c, 9, 36, 0
1, 22080, Note_on_c, 9, 36, 115
1, 22559, Note_on_c, 9, 36, 0
1, 22560, Note_on_c, 9, 40, 115
1, 23039, Note_on_c, 9, 40, 0
1, 23040, Note_on_c, 9, 49, 115
1, 23040, Note_on_c, 9, 36, 115
1, 23519, Note_on_c, 9, 49, 0
1, 23519, Note_on_c, 9, 36, 0
1, 23520, Note_on_c, 9, 40, 115
1, 23999, Note_on_c, 9, 40, 0
1, 24000, Note_on_c, 9, 36, 115
1, 24479, Note_on_c, 9, 36, 0
1, 24480, Note_on_c, 9, 40, 115
1, 24959, Note_on_c, 9, 40, 0
1, 24960, Note_on_c, 9, 36, 115
1, 25439, Note_on_c, 9, 36, 0
1, 25440, Note_on_c, 9, 40, 115
1, 25919, Note_on_c, 9, 40, 0
1, 25920, Note_on_c, 9, 36, 115
1, 26399, Note_on_c, 9, 36, 0
1, 26400, Note_on_c, 9, 40, 115
1, 26879, Note_on_c, 9, 40, 0
1, 26880, Note_on_c, 9, 36, 115
1, 27359, Note_on_c, 9, 36, 0
1, 27360, Note_on_c, 9, 40, 115
1, 27839, Note_on_c, 9, 40, 0
1, 27840, Note_on_c, 9, 36, 115
1, 28319, Note_on_c, 9, 36, 0
1, 28320, Note_on_c, 9, 40, 115
1, 28799, Note_on_c, 9, 40, 0
1, 28800, Note_on_c, 9, 36, 115
1, 29279, Note_on_c, 9, 36, 0
1, 29280, Note_on_c, 9, 40, 115
1, 29759, Note_on_c, 9, 40, 0
1, 29760, Note_on_c, 9, 36, 115
1, 30239, Note_on_c, 9, 36, 0
1, 30240, Note_on_c, 9, 40, 115
1, 30479, Note_on_c, 9, 40, 0
1, 30480, Note_on_c, 9, 40, 115
1, 30719, Note_on_c, 9, 40, 0
1, 30720, Note_on_c, 9, 49, 115
1, 30720, Note_on_c, 9, 36, 115
1, 31199, Note_on_c, 9, 49, 0
1, 31199, Note_on_c, 9, 36, 0
1, 31200, Note_on_c, 9, 40, 115
1, 31679, Note_on_c, 9, 40, 0
1, 31680, Note_on_c, 9, 36, 115
1, 32159, Note_on_c, 9, 36, 0
1, 32160, Note_on_c, 9, 40, 115
1, 32639, Note_on_c, 9, 40, 0
1, 32640, Note_on_c, 9, 36, 115
1, 33119, Note_on_c, 9, 36, 0
1, 33120, Note_on_c, 9, 40, 115
1, 33599, Note_on_c, 9, 40, 0
1, 33600, Note_on_c, 9, 36, 115
1, 34079, Note_on_c, 9, 36, 0
1, 34080, Note_on_c, 9, 40, 115
1, 34559, Note_on_c, 9, 40, 0
1, 34560, Note_on_c, 9, 36, 115
1, 35039, Note_on_c, 9, 36, 0
1, 35040, Note_on_c, 9, 40, 115
1, 35519, Note_on_c, 9, 40, 0
1, 35520, Note_on_c, 9, 36, 115
1, 35999, Note_on_c, 9, 36, 0
1, 36000, Note_on_c, 9, 40, 115
1, 36479, Note_on_c, 9, 40, 0
1, 36480, Note_on_c, 9, 36, 115
1, 36959, Note_on_c, 9, 36, 0
1, 36960, Note_on_c, 9, 40, 115
1, 37439, Note_on_c, 9, 40, 0
1, 37440, Note_on_c, 9, 36, 115
1, 37800, Note_on_c, 9, 40, 115
1, 37919, Note_on_c, 9, 36, 0
1, 37919, Note_on_c, 9, 40, 0
1, 37920, Note_on_c, 9, 40, 115
1, 38159, Note_on_c, 9, 40, 0
1, 38160, Note_on_c, 9, 40, 115
1, 38399, Note_on_c, 9, 40, 0
1, 38400, Note_on_c, 9, 49, 115
1, 38400, Note_on_c, 9, 36, 115
1, 38879, Note_on_c, 9, 49, 0
1, 38879, Note_on_c, 9, 36, 0
1, 38880, Note_on_c, 9, 40, 115
1, 39359, Note_on_c, 9, 40, 0
1, 39360, Note_on_c, 9, 36, 115
1, 39839, Note_on_c, 9, 36, 0
1, 39840, Note_on_c, 9, 40, 115
1, 40319, Note_on_c, 9, 40, 0
1, 40320, Note_on_c, 9, 36, 115
1, 40799, Note_on_c, 9, 36, 0
1, 40800, Note_on_c, 9, 40, 115
1, 41279, Note_on_c, 9, 40, 0
1, 41280, Note_on_c, 9, 36, 115
1, 41759, Note_on_c, 9, 36, 0
1, 41760, Note_on_c, 9, 40, 115
1, 42239, Note_on_c, 9, 40, 0
1, 42240, Note_on_c, 9, 36, 115
1, 42719, Note_on_c, 9, 36, 0
1, 42720, Note_on_c, 9, 40, 115
1, 43199, Note_on_c, 9, 40, 0
1, 43200, Note_on_c, 9, 36, 115
1, 43679, Note_on_c, 9, 36, 0
1, 43680, Note_on_c, 9, 40, 115
1, 44159, Note_on_c, 9, 40, 0
1, 44160, Note_on_c, 9, 36, 115
1, 44639, Note_on_c, 9, 36, 0
1, 44640, Note_on_c, 9, 40, 115
1, 45119, Note_on_c, 9, 40, 0
1, 45120, Note_on_c, 9, 36, 115
1, 45480, Note_on_c, 9, 40, 115
1, 45599, Note_on_c, 9, 36, 0
1, 45599, Note_on_c, 9, 40, 0
1, 45600, Note_on_c, 9, 40, 115
1, 45839, Note_on_c, 9, 40, 0
1, 45840, Note_on_c, 9, 40, 115
1, 46079, Note_on_c, 9, 40, 0
1, 46080, Note_on_c, 9, 49, 115
1, 46080, Note_on_c, 9, 36, 115
1, 46559, Note_on_c, 9, 49, 0
1, 46559, Note_on_c, 9, 36, 0
1, 46560, Note_on_c, 9, 40, 115
1, 47039, Note_on_c, 9, 40, 0
1, 47040, Note_on_c, 9, 36, 115
1, 47519, Note_on_c, 9, 36, 0
1, 47520, Note_on_c, 9, 40, 115
1, 47999, Note_on_c, 9, 40, 0
1, 48000, Note_on_c, 9, 36, 115
1, 48479, Note_on_c, 9, 36, 0
1, 48480, Note_on_c, 9, 40, 115
1, 48959, Note_on_c, 9, 40, 0
1, 48960, Note_on_c, 9, 36, 115
1, 49320, Note_on_c, 9, 40, 115
1, 49439, Note_on_c, 9, 36, 0
1, 49439, Note_on_c, 9, 40, 0
1, 49440, Note_on_c, 9, 40, 115
1, 49919, Note_on_c, 9, 40, 0
1, 49920, Note_on_c, 9, 49, 115
1, 49920, Note_on_c, 9, 36, 115
1, 50399, Note_on_c, 9, 49, 0
1, 50399, Note_on_c, 9, 36, 0
1, 50400, Note_on_c, 9, 40, 115
1, 50879, Note_on_c, 9, 40, 0
1, 50880, Note_on_c, 9, 36, 115
1, 51359, Note_on_c, 9, 36, 0
1, 51360, Note_on_c, 9, 40, 115
1, 51839, Note_on_c, 9, 40, 0
1, 51840, Note_on_c, 9, 36, 115
1, 52319, Note_on_c, 9, 36, 0
1, 52320, Note_on_c, 9, 40, 115
1, 52799, Note_on_c, 9, 40, 0
1, 52800, Note_on_c, 9, 36, 115
1, 53160, Note_on_c, 9, 40, 115
1, 53279, Note_on_c, 9, 36, 0
1, 53279, Note_on_c, 9, 40, 0
1, 53280, Note_on_c, 9, 40, 115
1, 53519, Note_on_c, 9, 40, 0
1, 53520, Note_on_c, 9, 40, 115
1, 53759, Note_on_c, 9, 40, 0
1, 53760, Note_on_c, 9, 49, 115
1, 53760, Note_on_c, 9, 36, 115
1, 54239, Note_on_c, 9, 49, 0
1, 54239, Note_on_c, 9, 36, 0
1, 54240, Note_on_c, 9, 40, 115
1, 54719, Note_on_c, 9, 40, 0
1, 54720, Note_on_c, 9, 36, 115
1, 55199, Note_on_c, 9, 36, 0
1, 55200, Note_on_c, 9, 40, 115
1, 55679, Note_on_c, 9, 40, 0
1, 55680, Note_on_c, 9, 36, 115
1, 56159, Note_on_c, 9, 36, 0
1, 56160, Note_on_c, 9, 40, 115
1, 56639, Note_on_c, 9, 40, 0
1, 56640, Note_on_c, 9, 40, 115
1, 56880, Note_on_c, 9, 36, 115
1, 57119, Note_on_c, 9, 40, 0
1, 57119, Note_on_c, 9, 36, 0
1, 57120, Note_on_c, 9, 40, 115
1, 57360, Note_on_c, 9, 36, 115
1, 57599, Note_on_c, 9, 40, 0
1, 57599, Note_on_c, 9, 36, 0
1, 57600, Note_on_c, 9, 49, 115
1, 57600, Note_on_c, 9, 36, 115
1, 58079, Note_on_c, 9, 49, 0
1, 58079, Note_on_c, 9, 36, 0
1, 58080, Note_on_c, 9, 40, 115
1, 58559, Note_on_c, 9, 40, 0
1, 58560, Note_on_c, 9, 36, 115
1, 59039, Note_on_c, 9, 36, 0
1, 59040, Note_on_c, 9, 40, 115
1, 59040, Note_on_c, 9, 52, 115
1, 59519, Note_on_c, 9, 40, 0
1, 59519, Note_on_c, 9, 52, 0
1, 59520, Note_on_c, 9, 36, 115
1, 59999, Note_on_c, 9, 36, 0
1, 60000, Note_on_c, 9, 40, 115
1, 60479, Note_on_c, 9, 40, 0
1, 60480, Note_on_c, 9, 36, 115
1, 60959, Note_on_c, 9, 36, 0
1, 60960, Note_on_c, 9, 40, 115
1, 61199, Note_on_c, 9, 40, 0
1, 61200, Note_on_c, 9, 40, 115
1, 61439, Note_on_c, 9, 40, 0
1, 61440, Note_on_c, 9, 49, 115
1, 61440, Note_on_c, 9, 36, 115
1, 61919, Note_on_c, 9, 49, 0
1, 61919, Note_on_c, 9, 36, 0
1, 61920, Note_on_c, 9, 40, 115
1, 62399, Note_on_c, 9, 40, 0
1, 62400, Note_on_c, 9, 36, 115
1, 62879, Note_on_c, 9, 36, 0
1, 62880, Note_on_c, 9, 40, 115
1, 63359, Note_on_c, 9, 40, 0
1, 63360, Note_on_c, 9, 36, 115
1, 63839, Note_on_c, 9, 36, 0
1, 63840, Note_on_c, 9, 40, 115
1, 64319, Note_on_c, 9, 40, 0
1, 64320, Note_on_c, 9, 36, 115
1, 64799, Note_on_c, 9, 36, 0
1, 64800, Note_on_c, 9, 40, 115
1, 65279, Note_on_c, 9, 40, 0
1, 65280, Note_on_c, 9, 36, 115
1, 65759, Note_on_c, 9, 36, 0
1, 65760, Note_on_c, 9, 40, 115
1, 66239, Note_on_c, 9, 40, 0
1, 66240, Note_on_c, 9, 36, 115
1, 66719, Note_on_c, 9, 36, 0
1, 66720, Note_on_c, 9, 40, 115
1, 67199, Note_on_c, 9, 40, 0
1, 67200, Note_on_c, 9, 36, 115
1, 67679, Note_on_c, 9, 36, 0
1, 67680, Note_on_c, 9, 40, 115
1, 68040, Note_on_c, 9, 36, 115
1, 68159, Note_on_c, 9, 40, 0
1, 68159, Note_on_c, 9, 36, 0
1, 68160, Note_on_c, 9, 36, 115
1, 68639, Note_on_c, 9, 36, 0
1, 68640, Note_on_c, 9, 40, 115
1, 69119, Note_on_c, 9, 40, 0
1, 69120, Note_on_c, 9, 49, 115
1, 69120, Note_on_c, 9, 36, 115
1, 69599, Note_on_c, 9, 49, 0
1, 69599, Note_on_c, 9, 36, 0
1, 69600, Note_on_c, 9, 40, 115
1, 70079, Note_on_c, 9, 40, 0
1, 70080, Note_on_c, 9, 36, 115
1, 70559, Note_on_c, 9, 36, 0
1, 70560, Note_on_c, 9, 40, 115
1, 71039, Note_on_c, 9, 40, 0
1, 71040, Note_on_c, 9, 36, 115
1, 71519, Note_on_c, 9, 36, 0
1, 71520, Note_on_c, 9, 40, 115
1, 71999, Note_on_c, 9, 40, 0
1, 72000, Note_on_c, 9, 36, 115
1, 72479, Note_on_c, 9, 36, 0
1, 72480, Note_on_c, 9, 40, 115
1, 72959, Note_on_c, 9, 40, 0
1, 72960, Note_on_c, 9, 36, 115
1, 73439, Note_on_c, 9, 36, 0
1, 73440, Note_on_c, 9, 40, 115
1, 73919, Note_on_c, 9, 40, 0
1, 73920, Note_on_c, 9, 36, 115
1, 74399, Note_on_c, 9, 36, 0
1, 74400, Note_on_c, 9, 40, 115
1, 74879, Note_on_c, 9, 40, 0
1, 74880, Note_on_c, 9, 36, 115
1, 75359, Note_on_c, 9, 36, 0
1, 75360, Note_on_c, 9, 40, 115
1, 75839, Note_on_c, 9, 40, 0
1, 75840, Note_on_c, 9, 36, 115
1, 76319, Note_on_c, 9, 36, 0
1, 76320, Note_on_c, 9, 40, 115
1, 76559, Note_on_c, 9, 40, 0
1, 76560, Note_on_c, 9, 40, 115
1, 76799, Note_on_c, 9, 40, 0
1, 76800, Note_on_c, 9, 49, 115
1, 76800, Note_on_c, 9, 36, 115
1, 77279, Note_on_c, 9, 49, 0
1, 77279, Note_on_c, 9, 36, 0
1, 77280, Note_on_c, 9, 40, 115
1, 77759, Note_on_c, 9, 40, 0
1, 77760, Note_on_c, 9, 36, 115
1, 78239, Note_on_c, 9, 36, 0
1, 78240, Note_on_c, 9, 40, 115
1, 78719, Note_on_c, 9, 40, 0
1, 78720, Note_on_c, 9, 36, 115
1, 79199, Note_on_c, 9, 36, 0
1, 79200, Note_on_c, 9, 40, 115
1, 79679, Note_on_c, 9, 40, 0
1, 79680, Note_on_c, 9, 36, 115
1, 80159, Note_on_c, 9, 36, 0
1, 80160, Note_on_c, 9, 40, 115
1, 80639, Note_on_c, 9, 40, 0
1, 80640, Note_on_c, 9, 36, 115
1, 81119, Note_on_c, 9, 36, 0
1, 81120, Note_on_c, 9, 40, 115
1, 81599, Note_on_c, 9, 40, 0
1, 81600, Note_on_c, 9, 36, 115
1, 82079, Note_on_c, 9, 36, 0
1, 82080, Note_on_c, 9, 40, 115
1, 82559, Note_on_c, 9, 40, 0
1, 82560, Note_on_c, 9, 36, 115
1, 83039, Note_on_c, 9, 36, 0
1, 83040, Note_on_c, 9, 40, 115
1, 83519, Note_on_c, 9, 40, 0
1, 83520, Note_on_c, 9, 36, 115
1, 83880, Note_on_c, 9, 40, 115
1, 83999, Note_on_c, 9, 36, 0
1, 83999, Note_on_c, 9, 40, 0
1, 84000, Note_on_c, 9, 40, 115
1, 84239, Note_on_c, 9, 40, 0
1, 84240, Note_on_c, 9, 40, 115
1, 84479, Note_on_c, 9, 40, 0
1, 84480, Note_on_c, 9, 49, 115
1, 84480, Note_on_c, 9, 36, 115
1, 84959, Note_on_c, 9, 49, 0
1, 84959, Note_on_c, 9, 36, 0
1, 84960, Note_on_c, 9, 40, 115
1, 85439, Note_on_c, 9, 40, 0
1, 85440, Note_on_c, 9, 36, 115
1, 85919, Note_on_c, 9, 36, 0
1, 85920, Note_on_c, 9, 40, 115
1, 86399, Note_on_c, 9, 40, 0
1, 86400, Note_on_c, 9, 36, 115
1, 86879, Note_on_c, 9, 36, 0
1, 86880, Note_on_c, 9, 40, 115
1, 87359, Note_on_c, 9, 40, 0
1, 87360, Note_on_c, 9, 36, 115
1, 87839, Note_on_c, 9, 36, 0
1, 87840, Note_on_c, 9, 40, 115
1, 88319, Note_on_c, 9, 40, 0
1, 88320, Note_on_c, 9, 36, 115
1, 88799, Note_on_c, 9, 36, 0
1, 88800, Note_on_c, 9, 40, 115
1, 89279, Note_on_c, 9, 40, 0
1, 89280, Note_on_c, 9, 36, 115
1, 89759, Note_on_c, 9, 36, 0
1, 89760, Note_on_c, 9, 40, 115
1, 90239, Note_on_c, 9, 40, 0
1, 90240, Note_on_c, 9, 36, 115
1, 90719, Note_on_c, 9, 36, 0
1, 90720, Note_on_c, 9, 40, 115
1, 91199, Note_on_c, 9, 40, 0
1, 91200, Note_on_c, 9, 36, 115
1, 91560, Note_on_c, 9, 40, 115
1, 91679, Note_on_c, 9, 36, 0
1, 91679, Note_on_c, 9, 40, 0
1, 91680, Note_on_c, 9, 40, 115
1, 91919, Note_on_c, 9, 40, 0
1, 91920, Note_on_c, 9, 40, 115
1, 92159, Note_on_c, 9, 40, 0
1, 92160, Note_on_c, 9, 49, 115
1, 92160, Note_on_c, 9, 36, 115
1, 92639, Note_on_c, 9, 49, 0
1, 92639, Note_on_c, 9, 36, 0
1, 92640, Note_on_c, 9, 40, 115
1, 93119, Note_on_c, 9, 40, 0
1, 93120, Note_on_c, 9, 36, 115
1, 93599, Note_on_c, 9, 36, 0
1, 93600, Note_on_c, 9, 40, 115
1, 94079, Note_on_c, 9, 40, 0
1, 94080, Note_on_c, 9, 36, 115
1, 94559, Note_on_c, 9, 36, 0
1, 94560, Note_on_c, 9, 40, 115
1, 95039, Note_on_c, 9, 40, 0
1, 95040, Note_on_c, 9, 36, 115
1, 95400, Note_on_c, 9, 40, 115
1, 95519, Note_on_c, 9, 36, 0
1, 95519, Note_on_c, 9, 40, 0
1, 95520, Note_on_c, 9, 40, 115
1, 95999, Note_on_c, 9, 40, 0
1, 96000, Note_on_c, 9, 49, 115
1, 96000, Note_on_c, 9, 36, 115
1, 96479, Note_on_c, 9, 49, 0
1, 96479, Note_on_c, 9, 36, 0
1, 96480, Note_on_c, 9, 40, 115
1, 96959, Note_on_c, 9, 40, 0
1, 96960, Note_on_c, 9, 36, 115
1, 97439, Note_on_c, 9, 36, 0
1, 97440, Note_on_c, 9, 40, 115
1, 97919, Note_on_c, 9, 40, 0
1, 97920, Note_on_c, 9, 36, 115
1, 98399, Note_on_c, 9, 36, 0
1, 98400, Note_on_c, 9, 40, 115
1, 98879, Note_on_c, 9, 40, 0
1, 98880, Note_on_c, 9, 36, 115
1, 99240, Note_on_c, 9, 40, 115
1, 99359, Note_on_c, 9, 36, 0
1, 99359, Note_on_c, 9, 40, 0
1, 99360, Note_on_c, 9, 40, 115
1, 99599, Note_on_c, 9, 40, 0
1, 99600, Note_on_c, 9, 40, 115
1, 99839, Note_on_c, 9, 40, 0
1, 99840, Note_on_c, 9, 49, 115
1, 99840, Note_on_c, 9, 36, 115
1, 100319, Note_on_c, 9, 49, 0
1, 100319, Note_on_c, 9, 36, 0
1, 100320, Note_on_c, 9, 40, 115
1, 100799, Note_on_c, 9, 40, 0
1, 100800, Note_on_c, 9, 36, 115
1, 101279, Note_on_c, 9, 36, 0
1, 101280, Note_on_c, 9, 40, 115
1, 101759, Note_on_c, 9, 40, 0
1, 101760, Note_on_c, 9, 36, 115
1, 102239, Note_on_c, 9, 36, 0
1, 102240, Note_on_c, 9, 40, 115
1, 102719, Note_on_c, 9, 40, 0
1, 102720, Note_on_c, 9, 40, 115
1, 102960, Note_on_c, 9, 36, 115
1, 103199, Note_on_c, 9, 40, 0
1, 103199, Note_on_c, 9, 36, 0
1, 103200, Note_on_c, 9, 40, 115
1, 103440, Note_on_c, 9, 36, 115
1, 103679, Note_on_c, 9, 40, 0
1, 103679, Note_on_c, 9, 36, 0
1, 103680, Note_on_c, 9, 49, 115
1, 103680, Note_on_c, 9, 36, 115
1, 104159, Note_on_c, 9, 49, 0
1, 104159, Note_on_c, 9, 36, 0
1, 104160, Note_on_c, 9, 40, 115
1, 104160, Note_on_c, 9, 52, 115
1, 104639, Note_on_c, 9, 40, 0
1, 104639, Note_on_c, 9, 52, 0
1, 104640, Note_on_c, 9, 36, 115
1, 105119, Note_on_c, 9, 36, 0
1, 105120, Note_on_c, 9, 40, 115
1, 105120, Note_on_c, 9, 39, 115
1, 105599, Note_on_c, 9, 40, 0
1, 105599, Note_on_c, 9, 39, 0
1, 105600, Note_on_c, 9, 36, 115
1, 106079, Note_on_c, 9, 36, 0
1, 106080, Note_on_c, 9, 40, 115
1, 106080, Note_on_c, 9, 52, 115
1, 106559, Note_on_c, 9, 40, 0
1, 106559, Note_on_c, 9, 52, 0
1, 106560, Note_on_c, 9, 36, 115
1, 107039, Note_on_c, 9, 36, 0
1, 107040, Note_on_c, 9, 40, 115
1, 107279, Note_on_c, 9, 40, 0
1, 107280, Note_on_c, 9, 40, 115
1, 107519, Note_on_c, 9, 40, 0
1, 107520, Note_on_c, 9, 49, 115
1, 107520, Note_on_c, 9, 36, 115
1, 107999, Note_on_c, 9, 49, 0
1, 107999, Note_on_c, 9, 36, 0
1, 108000, Note_on_c, 9, 40, 115
1, 108000, Note_on_c, 9, 52, 115
1, 108479, Note_on_c, 9, 40, 0
1, 108479, Note_on_c, 9, 52, 0
1, 108480, Note_on_c, 9, 36, 115
1, 108959, Note_on_c, 9, 36, 0
1, 108960, Note_on_c, 9, 40, 115
1, 108960, Note_on_c, 9, 39, 115
1, 109439, Note_on_c, 9, 40, 0
1, 109439, Note_on_c, 9, 39, 0
1, 109440, Note_on_c, 9, 36, 115
1, 109919, Note_on_c, 9, 36, 0
1, 109920, Note_on_c, 9, 40, 115
1, 110399, Note_on_c, 9, 40, 0
1, 110400, Note_on_c, 9, 36, 115
1, 110879, Note_on_c, 9, 36, 0
1, 110880, Note_on_c, 9, 40, 115
1, 111119, Note_on_c, 9, 40, 0
1, 111120, Note_on_c, 9, 40, 115
1, 111359, Note_on_c, 9, 40, 0
1, 111360, Note_on_c, 9, 49, 115
1, 111360, Note_on_c, 9, 36, 115
1, 111839, Note_on_c, 9, 49, 0
1, 111839, Note_on_c, 9, 36, 0
1, 111840, Note_on_c, 9, 40, 115
1, 112319, Note_on_c, 9, 40, 0
1, 112320, Note_on_c, 9, 36, 115
1, 112799, Note_on_c, 9, 36, 0
1, 112800, Note_on_c, 9, 40, 115
1, 113279, Note_on_c, 9, 40, 0
1, 113280, Note_on_c, 9, 36, 115
1, 113759, Note_on_c, 9, 36, 0
1, 113760, Note_on_c, 9, 40, 115
1, 114239, Note_on_c, 9, 40, 0
1, 114240, Note_on_c, 9, 36, 115
1, 114719, Note_on_c, 9, 36, 0
1, 114720, Note_on_c, 9, 40, 115
1, 115199, Note_on_c, 9, 40, 0
1, 115200, Note_on_c, 9, 36, 115
1, 115679, Note_on_c, 9, 36, 0
1, 115680, Note_on_c, 9, 40, 115
1, 116159, Note_on_c, 9, 40, 0
1, 116160, Note_on_c, 9, 36, 115
1, 116639, Note_on_c, 9, 36, 0
1, 116640, Note_on_c, 9, 40, 115
1, 117119, Note_on_c, 9, 40, 0
1, 117120, Note_on_c, 9, 36, 115
1, 117599, Note_on_c, 9, 36, 0
1, 117600, Note_on_c, 9, 40, 115
1, 118079, Note_on_c, 9, 40, 0
1, 118080, Note_on_c, 9, 36, 115
1, 118440, Note_on_c, 9, 40, 115
1, 118559, Note_on_c, 9, 36, 0
1, 118559, Note_on_c, 9, 40, 0
1, 118560, Note_on_c, 9, 40, 115
1, 118799, Note_on_c, 9, 40, 0
1, 118800, Note_on_c, 9, 40, 115
1, 119039, Note_on_c, 9, 40, 0
1, 119040, Note_on_c, 9, 49, 115
1, 119040, Note_on_c, 9, 36, 115
1, 119519, Note_on_c, 9, 49, 0
1, 119519, Note_on_c, 9, 36, 0
1, 119520, Note_on_c, 9, 40, 115
1, 119999, Note_on_c, 9, 40, 0
1, 120000, Note_on_c, 9, 36, 115
1, 120479, Note_on_c, 9, 36, 0
1, 120480, Note_on_c, 9, 40, 115
1, 120959, Note_on_c, 9, 40, 0
1, 120960, Note_on_c, 9, 36, 115
1, 121439, Note_on_c, 9, 36, 0
1, 121440, Note_on_c, 9, 40, 115
1, 121919, Note_on_c, 9, 40, 0
1, 121920, Note_on_c, 9, 36, 115
1, 122399, Note_on_c, 9, 36, 0
1, 122400, Note_on_c, 9, 40, 115
1, 122879, Note_on_c, 9, 40, 0
1, 122880, Note_on_c, 9, 36, 115
1, 123359, Note_on_c, 9, 36, 0
1, 123360, Note_on_c, 9, 40, 115
1, 123839, Note_on_c, 9, 40, 0
1, 123840, Note_on_c, 9, 36, 115
1, 124319, Note_on_c, 9, 36, 0
1, 124320, Note_on_c, 9, 40, 115
1, 124799, Note_on_c, 9, 40, 0
1, 124800, Note_on_c, 9, 36, 115
1, 125279, Note_on_c, 9, 36, 0
1, 125280, Note_on_c, 9, 40, 115
1, 125759, Note_on_c, 9, 40, 0
1, 125760, Note_on_c, 9, 36, 115
1, 126120, Note_on_c, 9, 40, 115
1, 126239, Note_on_c, 9, 36, 0
1, 126239, Note_on_c, 9, 40, 0
1, 126240, Note_on_c, 9, 40, 115
1, 126479, Note_on_c, 9, 40, 0
1, 126480, Note_on_c, 9, 40, 115
1, 126719, Note_on_c, 9, 40, 0
1, 126720, Note_on_c, 9, 49, 115
1, 126720, Note_on_c, 9, 36, 115
1, 127199, Note_on_c, 9, 49, 0
1, 127199, Note_on_c, 9, 36, 0
1, 127200, Note_on_c, 9, 40, 115
1, 127679, Note_on_c, 9, 40, 0
1, 127680, Note_on_c, 9, 36, 115
1, 128159, Note_on_c, 9, 36, 0
1, 128160, Note_on_c, 9, 40, 115
1, 128639, Note_on_c, 9, 40, 0
1, 128640, Note_on_c, 9, 36, 115
1, 129119, Note_on_c, 9, 36, 0
1, 129120, Note_on_c, 9, 40, 115
1, 129599, Note_on_c, 9, 40, 0
1, 129600, Note_on_c, 9, 36, 115
1, 129960, Note_on_c, 9, 40, 115
1, 130079, Note_on_c, 9, 36, 0
1, 130079, Note_on_c, 9, 40, 0
1, 130080, Note_on_c, 9, 40, 115
1, 130559, Note_on_c, 9, 40, 0
1, 130560, Note_on_c, 9, 49, 115
1, 130560, Note_on_c, 9, 36, 115
1, 131039, Note_on_c, 9, 49, 0
1, 131039, Note_on_c, 9, 36, 0
1, 131040, Note_on_c, 9, 40, 115
1, 131519, Note_on_c, 9, 40, 0
1, 131520, Note_on_c, 9, 36, 115
1, 131999, Note_on_c, 9, 36, 0
1, 132000, Note_on_c, 9, 40, 115
1, 132479, Note_on_c, 9, 40, 0
1, 132480, Note_on_c, 9, 36, 115
1, 132959, Note_on_c, 9, 36, 0
1, 132960, Note_on_c, 9, 40, 115
1, 133439, Note_on_c, 9, 40, 0
1, 133440, Note_on_c, 9, 36, 115
1, 133800, Note_on_c, 9, 40, 115
1, 133919, Note_on_c, 9, 36, 0
1, 133919, Note_on_c, 9, 40, 0
1, 133920, Note_on_c, 9, 40, 115
1, 134159, Note_on_c, 9, 40, 0
1, 134160, Note_on_c, 9, 40, 115
1, 134399, Note_on_c, 9, 40, 0
1, 134400, Note_on_c, 9, 49, 115
1, 134400, Note_on_c, 9, 36, 115
1, 134879, Note_on_c, 9, 49, 0
1, 134879, Note_on_c, 9, 36, 0
1, 134880, Note_on_c, 9, 40, 115
1, 135359, Note_on_c, 9, 40, 0
1, 135360, Note_on_c, 9, 36, 115
1, 135839, Note_on_c, 9, 36, 0
1, 135840, Note_on_c, 9, 40, 115
1, 136319, Note_on_c, 9, 40, 0
1, 136320, Note_on_c, 9, 36, 115
1, 136799, Note_on_c, 9, 36, 0
1, 136800, Note_on_c, 9, 40, 115
1, 137279, Note_on_c, 9, 40, 0
1, 137280, Note_on_c, 9, 40, 115
1, 137520, Note_on_c, 9, 36, 115
1, 137759, Note_on_c, 9, 40, 0
1, 137759, Note_on_c, 9, 36, 0
1, 137760, Note_on_c, 9, 40, 115
1, 138000, Note_on_c, 9, 36, 115
1, 138239, Note_on_c, 9, 40, 0
1, 138239, Note_on_c, 9, 36, 0
1, 138240, Note_on_c, 9, 49, 115
1, 138240, Note_on_c, 9, 36, 115
1, 138719, Note_on_c, 9, 49, 0
1, 138719, Note_on_c, 9, 36, 0
1, 138720, Note_on_c, 9, 40, 115
1, 139199, Note_on_c, 9, 40, 0
1, 139200, Note_on_c, 9, 36, 115
1, 139679, Note_on_c, 9, 36, 0
1, 139680, Note_on_c, 9, 40, 115
1, 139680, Note_on_c, 9, 52, 115
1, 140040, Note_on_c, 9, 36, 115
1, 140159, Note_on_c, 9, 40, 0
1, 140159, Note_on_c, 9, 52, 0
1, 140159, Note_on_c, 9, 36, 0
1, 140160, Note_on_c, 9, 36, 115
1, 140639, Note_on_c, 9, 36, 0
1, 140640, Note_on_c, 9, 40, 115
1, 141119, Note_on_c, 9, 40, 0
1, 141120, Note_on_c, 9, 36, 115
1, 141599, Note_on_c, 9, 36, 0
1, 141600, Note_on_c, 9, 40, 115
1, 141839, Note_on_c, 9, 40, 0
1, 141840, Note_on_c, 9, 40, 115
1, 142079, Note_on_c, 9, 40, 0
1, 142080, Note_on_c, 9, 49, 115
1, 142080, Note_on_c, 9, 36, 115
1, 142559, Note_on_c, 9, 49, 0
1, 142559, Note_on_c, 9, 36, 0
1, 142560, Note_on_c, 9, 40, 115
1, 143039, Note_on_c, 9, 40, 0
1, 143040, Note_on_c, 9, 36, 115
1, 143519, Note_on_c, 9, 36, 0
1, 143520, Note_on_c, 9, 40, 115
1, 143999, Note_on_c, 9, 40, 0
1, 144000, Note_on_c, 9, 36, 115
1, 144479, Note_on_c, 9, 36, 0
1, 144480, Note_on_c, 9, 40, 109
1, 144959, Note_on_c, 9, 40, 0
1, 144960, Note_on_c, 9, 36, 103
1, 145320, Note_on_c, 9, 40, 100
1, 145439, Note_on_c, 9, 36, 0
1, 145439, Note_on_c, 9, 40, 0
1, 145440, Note_on_c, 9, 40, 97
1, 145919, Note_on_c, 9, 40, 0
1, 145920, Note_on_c, 9, 49, 92
1, 145920, Note_on_c, 9, 36, 92
1, 146399, Note_on_c, 9, 49, 0
1, 146399, Note_on_c, 9, 36, 0
1, 146400, Note_on_c, 9, 40, 86
1, 146879, Note_on_c, 9, 40, 0
1, 146880, Note_on_c, 9, 36, 80
1, 147359, Note_on_c, 9, 36, 0
1, 147360, Note_on_c, 9, 40, 74
1, 147839, Note_on_c, 9, 40, 0
1, 147840, Note_on_c, 9, 36, 69
1, 148319, Note_on_c, 9, 36, 0
1, 148320, Note_on_c, 9, 40, 63
1, 148799, Note_on_c, 9, 40, 0
1, 148800, Note_on_c, 9, 36, 57
1, 149160, Note_on_c, 9, 40, 54
1, 149279, Note_on_c, 9, 36, 0
1, 149279, Note_on_c, 9, 40, 0
1, 149280, Note_on_c, 9, 40, 51
1, 149519, Note_on_c, 9, 40, 0
1, 149520, Note_on_c, 9, 40, 49
1, 149759, Note_on_c, 9, 40, 0
1, 149760, Note_on_c, 9, 49, 46
1, 149760, Note_on_c, 9, 36, 46
1, 150239, Note_on_c, 9, 49, 0
1, 150239, Note_on_c, 9, 36, 0
1, 150240, Note_on_c, 9, 40, 40
1, 150719, Note_on_c, 9, 40, 0
1, 150720, Note_on_c, 9, 36, 34
1, 151199, Note_on_c, 9, 36, 0
1, 151200, Note_on_c, 9, 40, 28
1, 151679, Note_on_c, 9, 40, 0
1, 151680, Note_on_c, 9, 36, 23
1, 152159, Note_on_c, 9, 36, 0
1, 152160, Note_on_c, 9, 40, 17
1, 152639, Note_on_c, 9, 40, 0
1, 152640, Note_on_c, 9, 40, 11
1, 152880, Note_on_c, 9, 36, 9
1, 153119, Note_on_c, 9, 40, 0
1, 153119, Note_on_c, 9, 36, 0
1, 153120, Note_on_c, 9, 40, 5
1, 153360, Note_on_c, 9, 36, 3
1, 153599, Note_on_c, 9, 40, 0
1, 154079, Note_on_c, 9, 36, 0
1, 154080, End_track
2, 0, Start_track
2, 0, Key_signature, 0, "major"
2, 0, Control_c, 9, 121, 0
2, 0, Program_c, 9, 0
2, 0, Control_c, 9, 7, 125
2, 0, Control_c, 9, 10, 64
2, 0, Control_c, 9, 91, 0
2, 0, Control_c, 9, 93, 0
2, 0, MIDI_port, 0
2, 15360, Note_on_c, 9, 54, 100
2, 15479, Note_on_c, 9, 54, 0
2, 15480, Note_on_c, 9, 54, 80
2, 15599, Note_on_c, 9, 54, 0
2, 15600, Note_on_c, 9, 54, 80
2, 15719, Note_on_c, 9, 54, 0
2, 15720, Note_on_c, 9, 54, 80
2, 15839, Note_on_c, 9, 54, 0
2, 15840, Note_on_c, 9, 54, 100
2, 15959, Note_on_c, 9, 54, 0
2, 15960, Note_on_c, 9, 54, 80
2, 16079, Note_on_c, 9, 54, 0
2, 16080, Note_on_c, 9, 54, 80
2, 16199, Note_on_c, 9, 54, 0
2, 16200, Note_on_c, 9, 54, 80
2, 16319, Note_on_c, 9, 54, 0
2, 16320, Note_on_c, 9, 54, 100
2, 16439, Note_on_c, 9, 54, 0
2, 16440, Note_on_c, 9, 54, 80
2, 16559, Note_on_c, 9, 54, 0
2, 16560, Note_on_c, 9, 54, 80
2, 16679, Note_on_c, 9, 54, 0
2, 16680, Note_on_c, 9, 54, 80
2, 16799, Note_on_c, 9, 54, 0
2, 16800, Note_on_c, 9, 54, 100
2, 16919, Note_on_c, 9, 54, 0
2, 16920, Note_on_c, 9, 54, 80
2, 17039, Note_on_c, 9, 54, 0
2, 17040, Note_on_c, 9, 54, 80
2, 17159, Note_on_c, 9, 54, 0
2, 17160, Note_on_c, 9, 54, 80
2, 17279, Note_on_c, 9, 54, 0
2, 17280, Note_on_c, 9, 54, 100
2, 17399, Note_on_c, 9, 54, 0
2, 17400, Note_on_c, 9, 54, 80
2, 17519, Note_on_c, 9, 54, 0
2, 17520, Note_on_c, 9, 54, 80
2, 17639, Note_on_c, 9, 54, 0
2, 17640, Note_on_c, 9, 54, 80
2, 17759, Note_on_c, 9, 54, 0
2, 17760, Note_on_c, 9, 54, 100
2, 17879, Note_on_c, 9, 54, 0
2, 17880, Note_on_c, 9, 54, 80
2, 17999, Note_on_c, 9, 54, 0
2, 18000, Note_on_c, 9, 54, 80
2, 18119, Note_on_c, 9, 54, 0
2, 18120, Note_on_c, 9, 54, 80
2, 18239, Note_on_c, 9, 54, 0
2, 18240, Note_on_c, 9, 54, 100
2, 18359, Note_on_c, 9, 54, 0
2, 18360, Note_on_c, 9, 54, 80
2, 18479, Note_on_c, 9, 54, 0
2, 18480, Note_on_c, 9, 54, 80
2, 18599, Note_on_c, 9, 54, 0
2, 18600, Note_on_c, 9, 54, 80
2, 18719, Note_on_c, 9, 54, 0
2, 18720, Note_on_c, 9, 54, 100
2, 18839, Note_on_c, 9, 54, 0
2, 18840, Note_on_c, 9, 54, 80
2, 18959, Note_on_c, 9, 54, 0
2, 18960, Note_on_c, 9, 54, 80
2, 19079, Note_on_c, 9, 54, 0
2, 19080, Note_on_c, 9, 54, 80
2, 19199, Note_on_c, 9, 54, 0
2, 19200, Note_on_c, 9, 54, 100
2, 19319, Note_on_c, 9, 54, 0
2, 19320, Note_on_c, 9, 54, 80
2, 19439, Note_on_c, 9, 54, 0
2, 19440, Note_on_c, 9, 54, 80
2, 19559, Note_on_c, 9, 54, 0
2, 19560, Note_on_c, 9, 54, 80
2, 19679, Note_on_c, 9, 54, 0
2, 19680, Note_on_c, 9, 54, 100
2, 19799, Note_on_c, 9, 54, 0
2, 19800, Note_on_c, 9, 54, 80
2, 19919, Note_on_c, 9, 54, 0
2, 19920, Note_on_c, 9, 54, 80
2, 20039, Note_on_c, 9, 54, 0
2, 20040, Note_on_c, 9, 54, 80
2, 20159, Note_on_c, 9, 54, 0
2, 20160, Note_on_c, 9, 54, 100
2, 20279, Note_on_c, 9, 54, 0
2, 20280, Note_on_c, 9, 54, 80
2, 20399, Note_on_c, 9, 54, 0
2, 20400, Note_on_c, 9, 54, 80
2, 20519, Note_on_c, 9, 54, 0
2, 20520, Note_on_c, 9, 54, 80
2, 20639, Note_on_c, 9, 54, 0
2, 20640, Note_on_c, 9, 54, 100
2, 20759, Note_on_c, 9, 54, 0
2, 20760, Note_on_c, 9, 54, 80
2, 20879, Note_on_c, 9, 54, 0
2, 20880, Note_on_c, 9, 54, 80
2, 20999, Note_on_c, 9, 54, 0
2, 21000, Note_on_c, 9, 54, 80
2, 21119, Note_on_c, 9, 54, 0
2, 21120, Note_on_c, 9, 54, 100
2, 21239, Note_on_c, 9, 54, 0
2, 21240, Note_on_c, 9, 54, 80
2, 21359, Note_on_c, 9, 54, 0
2, 21360, Note_on_c, 9, 54, 80
2, 21479, Note_on_c, 9, 54, 0
2, 21480, Note_on_c, 9, 54, 80
2, 21599, Note_on_c, 9, 54, 0
2, 21600, Note_on_c, 9, 54, 100
2, 21719, Note_on_c, 9, 54, 0
2, 21720, Note_on_c, 9, 54, 80
2, 21839, Note_on_c, 9, 54, 0
2, 21840, Note_on_c, 9, 54, 80
2, 21959, Note_on_c, 9, 54, 0
2, 21960, Note_on_c, 9, 54, 80
2, 22079, Note_on_c, 9, 54, 0
2, 22080, Note_on_c, 9, 54, 100
2, 22199, Note_on_c, 9, 54, 0
2, 22200, Note_on_c, 9, 54, 80
2, 22319, Note_on_c, 9, 54, 0
2, 22320, Note_on_c, 9, 54, 80
2, 22439, Note_on_c, 9, 54, 0
2, 22440, Note_on_c, 9, 54, 80
2, 22559, Note_on_c, 9, 54, 0
2, 22560, Note_on_c, 9, 54, 100
2, 22679, Note_on_c, 9, 54, 0
2, 22680, Note_on_c, 9, 54, 80
2, 22799, Note_on_c, 9, 54, 0
2, 22800, Note_on_c, 9, 54, 80
2, 22919, Note_on_c, 9, 54, 0
2, 22920, Note_on_c, 9, 54, 80
2, 23039, Note_on_c, 9, 54, 0
2, 23040, Note_on_c, 9, 54, 100
2, 23159, Note_on_c, 9, 54, 0
2, 23160, Note_on_c, 9, 54, 80
2, 23279, Note_on_c, 9, 54, 0
2, 23280, Note_on_c, 9, 54, 80
2, 23399, Note_on_c, 9, 54, 0
2, 23400, Note_on_c, 9, 54, 80
2, 23519, Note_on_c, 9, 54, 0
2, 23520, Note_on_c, 9, 54, 100
2, 23639, Note_on_c, 9, 54, 0
2, 23640, Note_on_c, 9, 54, 80
2, 23759, Note_on_c, 9, 54, 0
2, 23760, Note_on_c, 9, 54, 80
2, 23879, Note_on_c, 9, 54, 0
2, 23880, Note_on_c, 9, 54, 80
2, 23999, Note_on_c, 9, 54, 0
2, 24000, Note_on_c, 9, 54, 100
2, 24119, Note_on_c, 9, 54, 0
2, 24120, Note_on_c, 9, 54, 80
2, 24239, Note_on_c, 9, 54, 0
2, 24240, Note_on_c, 9, 54, 80
2, 24359, Note_on_c, 9, 54, 0
2, 24360, Note_on_c, 9, 54, 80
2, 24479, Note_on_c, 9, 54, 0
2, 24480, Note_on_c, 9, 54, 100
2, 24599, Note_on_c, 9, 54, 0
2, 24600, Note_on_c, 9, 54, 80
2, 24719, Note_on_c, 9, 54, 0
2, 24720, Note_on_c, 9, 54, 80
2, 24839, Note_on_c, 9, 54, 0
2, 24840, Note_on_c, 9, 54, 80
2, 24959, Note_on_c, 9, 54, 0
2, 24960, Note_on_c, 9, 54, 100
2, 25079, Note_on_c, 9, 54, 0
2, 25080, Note_on_c, 9, 54, 80
2, 25199, Note_on_c, 9, 54, 0
2, 25200, Note_on_c, 9, 54, 80
2, 25319, Note_on_c, 9, 54, 0
2, 25320, Note_on_c, 9, 54, 80
2, 25439, Note_on_c, 9, 54, 0
2, 25440, Note_on_c, 9, 54, 100
2, 25559, Note_on_c, 9, 54, 0
2, 25560, Note_on_c, 9, 54, 80
2, 25679, Note_on_c, 9, 54, 0
2, 25680, Note_on_c, 9, 54, 80
2, 25799, Note_on_c, 9, 54, 0
2, 25800, Note_on_c, 9, 54, 80
2, 25919, Note_on_c, 9, 54, 0
2, 25920, Note_on_c, 9, 54, 100
2, 26039, Note_on_c, 9, 54, 0
2, 26040, Note_on_c, 9, 54, 80
2, 26159, Note_on_c, 9, 54, 0
2, 26160, Note_on_c, 9, 54, 80
2, 26279, Note_on_c, 9, 54, 0
2, 26280, Note_on_c, 9, 54, 80
2, 26399, Note_on_c, 9, 54, 0
2, 26400, Note_on_c, 9, 54, 100
2, 26519, Note_on_c, 9, 54, 0
2, 26520, Note_on_c, 9, 54, 80
2, 26639, Note_on_c, 9, 54, 0
2, 26640, Note_on_c, 9, 54, 80
2, 26759, Note_on_c, 9, 54, 0
2, 26760, Note_on_c, 9, 54, 80
2, 26879, Note_on_c, 9, 54, 0
2, 26880, Note_on_c, 9, 54, 100
2, 26999, Note_on_c, 9, 54, 0
2, 27000, Note_on_c, 9, 54, 80
2, 27119, Note_on_c, 9, 54, 0
2, 27120, Note_on_c, 9, 54, 80
2, 27239, Note_on_c, 9, 54, 0
2, 27240, Note_on_c, 9, 54, 80
2, 27359, Note_on_c, 9, 54, 0
2, 27360, Note_on_c, 9, 54, 100
2, 27479, Note_on_c, 9, 54, 0
2, 27480, Note_on_c, 9, 54, 80
2, 27599, Note_on_c, 9, 54, 0
2, 27600, Note_on_c, 9, 54, 80
2, 27719, Note_on_c, 9, 54, 0
2, 27720, Note_on_c, 9, 54, 80
2, 27839, Note_on_c, 9, 54, 0
2, 27840, Note_on_c, 9, 54, 100
2, 27959, Note_on_c, 9, 54, 0
2, 27960, Note_on_c, 9, 54, 80
2, 28079, Note_on_c, 9, 54, 0
2, 28080, Note_on_c, 9, 54, 80
2, 28199, Note_on_c, 9, 54, 0
2, 28200, Note_on_c, 9, 54, 80
2, 28319, Note_on_c, 9, 54, 0
2, 28320, Note_on_c, 9, 54, 100
2, 28439, Note_on_c, 9, 54, 0
2, 28440, Note_on_c, 9, 54, 80
2, 28559, Note_on_c, 9, 54, 0
2, 28560, Note_on_c, 9, 54, 80
2, 28679, Note_on_c, 9, 54, 0
2, 28680, Note_on_c, 9, 54, 80
2, 28799, Note_on_c, 9, 54, 0
2, 28800, Note_on_c, 9, 54, 100
2, 28919, Note_on_c, 9, 54, 0
2, 28920, Note_on_c, 9, 54, 80
2, 29039, Note_on_c, 9, 54, 0
2, 29040, Note_on_c, 9, 54, 80
2, 29159, Note_on_c, 9, 54, 0
2, 29160, Note_on_c, 9, 54, 80
2, 29279, Note_on_c, 9, 54, 0
2, 29280, Note_on_c, 9, 54, 100
2, 29399, Note_on_c, 9, 54, 0
2, 29400, Note_on_c, 9, 54, 80
2, 29519, Note_on_c, 9, 54, 0
2, 29520, Note_on_c, 9, 54, 80
2, 29639, Note_on_c, 9, 54, 0
2, 29640, Note_on_c, 9, 54, 80
2, 29759, Note_on_c, 9, 54, 0
2, 29760, Note_on_c, 9, 54, 100
2, 29879, Note_on_c, 9, 54, 0
2, 29880, Note_on_c, 9, 54, 80
2, 29999, Note_on_c, 9, 54, 0
2, 30000, Note_on_c, 9, 54, 80
2, 30119, Note_on_c, 9, 54, 0
2, 30120, Note_on_c, 9, 54, 80
2, 30239, Note_on_c, 9, 54, 0
2, 30240, Note_on_c, 9, 54, 100
2, 30359, Note_on_c, 9, 54, 0
2, 30360, Note_on_c, 9, 54, 80
2, 30479, Note_on_c, 9, 54, 0
2, 30480, Note_on_c, 9, 54, 80
2, 30599, Note_on_c, 9, 54, 0
2, 30600, Note_on_c, 9, 54, 80
2, 30719, Note_on_c, 9, 54, 0
2, 30720, Note_on_c, 9, 54, 100
2, 30839, Note_on_c, 9, 54, 0
2, 30840, Note_on_c, 9, 54, 80
2, 30959, Note_on_c, 9, 54, 0
2, 30960, Note_on_c, 9, 54, 80
2, 31079, Note_on_c, 9, 54, 0
2, 31080, Note_on_c, 9, 54, 80
2, 31199, Note_on_c, 9, 54, 0
2, 31200, Note_on_c, 9, 54, 100
2, 31319, Note_on_c, 9, 54, 0
2, 31320, Note_on_c, 9, 54, 80
2, 31439, Note_on_c, 9, 54, 0
2, 31440, Note_on_c, 9, 54, 80
2, 31559, Note_on_c, 9, 54, 0
2, 31560, Note_on_c, 9, 54, 80
2, 31679, Note_on_c, 9, 54, 0
2, 31680, Note_on_c, 9, 54, 100
2, 31799, Note_on_c, 9, 54, 0
2, 31800, Note_on_c, 9, 54, 80
2, 31919, Note_on_c, 9, 54, 0
2, 31920, Note_on_c, 9, 54, 80
2, 32039, Note_on_c, 9, 54, 0
2, 32040, Note_on_c, 9, 54, 80
2, 32159, Note_on_c, 9, 54, 0
2, 32160, Note_on_c, 9, 54, 100
2, 32279, Note_on_c, 9, 54, 0
2, 32280, Note_on_c, 9, 54, 80
2, 32399, Note_on_c, 9, 54, 0
2, 32400, Note_on_c, 9, 54, 80
2, 32519, Note_on_c, 9, 54, 0
2, 32520, Note_on_c, 9, 54, 80
2, 32639, Note_on_c, 9, 54, 0
2, 32640, Note_on_c, 9, 54, 100
2, 32759, Note_on_c, 9, 54, 0
2, 32760, Note_on_c, 9, 54, 80
2, 32879, Note_on_c, 9, 54, 0
2, 32880, Note_on_c, 9, 54, 80
2, 32999, Note_on_c, 9, 54, 0
2, 33000, Note_on_c, 9, 54, 80
2, 33119, Note_on_c, 9, 54, 0
2, 33120, Note_on_c, 9, 54, 100
2, 33239, Note_on_c, 9, 54, 0
2, 33240, Note_on_c, 9, 54, 80
2, 33359, Note_on_c, 9, 54, 0
2, 33360, Note_on_c, 9, 54, 80
2, 33479, Note_on_c, 9, 54, 0
2, 33480, Note_on_c, 9, 54, 80
2, 33599, Note_on_c, 9, 54, 0
2, 33600, Note_on_c, 9, 54, 100
2, 33719, Note_on_c, 9, 54, 0
2, 33720, Note_on_c, 9, 54, 80
2, 33839, Note_on_c, 9, 54, 0
2, 33840, Note_on_c, 9, 54, 80
2, 33959, Note_on_c, 9, 54, 0
2, 33960, Note_on_c, 9, 54, 80
2, 34079, Note_on_c, 9, 54, 0
2, 34080, Note_on_c, 9, 54, 100
2, 34199, Note_on_c, 9, 54, 0
2, 34200, Note_on_c, 9, 54, 80
2, 34319, Note_on_c, 9, 54, 0
2, 34320, Note_on_c, 9, 54, 80
2, 34439, Note_on_c, 9, 54, 0
2, 34440, Note_on_c, 9, 54, 80
2, 34559, Note_on_c, 9, 54, 0
2, 34560, Note_on_c, 9, 54, 100
2, 34679, Note_on_c, 9, 54, 0
2, 34680, Note_on_c, 9, 54, 80
2, 34799, Note_on_c, 9, 54, 0
2, 34800, Note_on_c, 9, 54, 80
2, 34919, Note_on_c, 9, 54, 0
2, 34920, Note_on_c, 9, 54, 80
2, 35039, Note_on_c, 9, 54, 0
2, 35040, Note_on_c, 9, 54, 100
2, 35159, Note_on_c, 9, 54, 0
2, 35160, Note_on_c, 9, 54, 80
2, 35279, Note_on_c, 9, 54, 0
2, 35280, Note_on_c, 9, 54, 80
2, 35399, Note_on_c, 9, 54, 0
2, 35400, Note_on_c, 9, 54, 80
2, 35519, Note_on_c, 9, 54, 0
2, 35520, Note_on_c, 9, 54, 100
2, 35639, Note_on_c, 9, 54, 0
2, 35640, Note_on_c, 9, 54, 80
2, 35759, Note_on_c, 9, 54, 0
2, 35760, Note_on_c, 9, 54, 80
2, 35879, Note_on_c, 9, 54, 0
2, 35880, Note_on_c, 9, 54, 80
2, 35999, Note_on_c, 9, 54, 0
2, 36000, Note_on_c, 9, 54, 100
2, 36119, Note_on_c, 9, 54, 0
2, 36120, Note_on_c, 9, 54, 80
2, 36239, Note_on_c, 9, 54, 0
2, 36240, Note_on_c, 9, 54, 80
2, 36359, Note_on_c, 9, 54, 0
2, 36360, Note_on_c, 9, 54, 80
2, 36479, Note_on_c, 9, 54, 0
2, 36480, Note_on_c, 9, 54, 100
2, 36599, Note_on_c, 9, 54, 0
2, 36600, Note_on_c, 9, 54, 80
2, 36719, Note_on_c, 9, 54, 0
2, 36720, Note_on_c, 9, 54, 80
2, 36839, Note_on_c, 9, 54, 0
2, 36840, Note_on_c, 9, 54, 80
2, 36959, Note_on_c, 9, 54, 0
2, 36960, Note_on_c, 9, 54, 100
2, 37079, Note_on_c, 9, 54, 0
2, 37080, Note_on_c, 9, 54, 80
2, 37199, Note_on_c, 9, 54, 0
2, 37200, Note_on_c, 9, 54, 80
2, 37319, Note_on_c, 9, 54, 0
2, 37320, Note_on_c, 9, 54, 80
2, 37439, Note_on_c, 9, 54, 0
2, 37440, Note_on_c, 9, 54, 100
2, 37559, Note_on_c, 9, 54, 0
2, 37560, Note_on_c, 9, 54, 80
2, 37679, Note_on_c, 9, 54, 0
2, 37680, Note_on_c, 9, 54, 80
2, 37799, Note_on_c, 9, 54, 0
2, 37800, Note_on_c, 9, 54, 80
2, 37919, Note_on_c, 9, 54, 0
2, 37920, Note_on_c, 9, 54, 100
2, 38039, Note_on_c, 9, 54, 0
2, 38040, Note_on_c, 9, 54, 80
2, 38159, Note_on_c, 9, 54, 0
2, 38160, Note_on_c, 9, 54, 80
2, 38279, Note_on_c, 9, 54, 0
2, 38280, Note_on_c, 9, 54, 80
2, 38399, Note_on_c, 9, 54, 0
2, 38400, Note_on_c, 9, 54, 100
2, 38519, Note_on_c, 9, 54, 0
2, 38520, Note_on_c, 9, 54, 80
2, 38639, Note_on_c, 9, 54, 0
2, 38640, Note_on_c, 9, 54, 80
2, 38759, Note_on_c, 9, 54, 0
2, 38760, Note_on_c, 9, 54, 80
2, 38879, Note_on_c, 9, 54, 0
2, 38880, Note_on_c, 9, 54, 100
2, 38999, Note_on_c, 9, 54, 0
2, 39000, Note_on_c, 9, 54, 80
2, 39119, Note_on_c, 9, 54, 0
2, 39120, Note_on_c, 9, 54, 80
2, 39239, Note_on_c, 9, 54, 0
2, 39240, Note_on_c, 9, 54, 80
2, 39359, Note_on_c, 9, 54, 0
2, 39360, Note_on_c, 9, 54, 100
2, 39479, Note_on_c, 9, 54, 0
2, 39480, Note_on_c, 9, 54, 80
2, 39599, Note_on_c, 9, 54, 0
2, 39600, Note_on_c, 9, 54, 80
2, 39719, Note_on_c, 9, 54, 0
2, 39720, Note_on_c, 9, 54, 80
2, 39839, Note_on_c, 9, 54, 0
2, 39840, Note_on_c, 9, 54, 100
2, 39959, Note_on_c, 9, 54, 0
2, 39960, Note_on_c, 9, 54, 80
2, 40079, Note_on_c, 9, 54, 0
2, 40080, Note_on_c, 9, 54, 80
2, 40199, Note_on_c, 9, 54, 0
2, 40200, Note_on_c, 9, 54, 80
2, 40319, Note_on_c, 9, 54, 0
2, 40320, Note_on_c, 9, 54, 100
2, 40439, Note_on_c, 9, 54, 0
2, 40440, Note_on_c, 9, 54, 80
2, 40559, Note_on_c, 9, 54, 0
2, 40560, Note_on_c, 9, 54, 80
2, 40679, Note_on_c, 9, 54, 0
2, 40680, Note_on_c, 9, 54, 80
2, 40799, Note_on_c, 9, 54, 0
2, 40800, Note_on_c, 9, 54, 100
2, 40919, Note_on_c, 9, 54, 0
2, 40920, Note_on_c, 9, 54, 80
2, 41039, Note_on_c, 9, 54, 0
2, 41040, Note_on_c, 9, 54, 80
2, 41159, Note_on_c, 9, 54, 0
2, 41160, Note_on_c, 9, 54, 80
2, 41279, Note_on_c, 9, 54, 0
2, 41280, Note_on_c, 9, 54, 100
2, 41399, Note_on_c, 9, 54, 0
2, 41400, Note_on_c, 9, 54, 80
2, 41519, Note_on_c, 9, 54, 0
2, 41520, Note_on_c, 9, 54, 80
2, 41639, Note_on_c, 9, 54, 0
2, 41640, Note_on_c, 9, 54, 80
2, 41759, Note_on_c, 9, 54, 0
2, 41760, Note_on_c, 9, 54, 100
2, 41879, Note_on_c, 9, 54, 0
2, 41880, Note_on_c, 9, 54, 80
2, 41999, Note_on_c, 9, 54, 0
2, 42000, Note_on_c, 9, 54, 80
2, 42119, Note_on_c, 9, 54, 0
2, 42120, Note_on_c, 9, 54, 80
2, 42239, Note_on_c, 9, 54, 0
2, 42240, Note_on_c, 9, 54, 100
2, 42359, Note_on_c, 9, 54, 0
2, 42360, Note_on_c, 9, 54, 80
2, 42479, Note_on_c, 9, 54, 0
2, 42480, Note_on_c, 9, 54, 80
2, 42599, Note_on_c, 9, 54, 0
2, 42600, Note_on_c, 9, 54, 80
2, 42719, Note_on_c, 9, 54, 0
2, 42720, Note_on_c, 9, 54, 100
2, 42839, Note_on_c, 9, 54, 0
2, 42840, Note_on_c, 9, 54, 80
2, 42959, Note_on_c, 9, 54, 0
2, 42960, Note_on_c, 9, 54, 80
2, 43079, Note_on_c, 9, 54, 0
2, 43080, Note_on_c, 9, 54, 80
2, 43199, Note_on_c, 9, 54, 0
2, 43200, Note_on_c, 9, 54, 100
2, 43319, Note_on_c, 9, 54, 0
2, 43320, Note_on_c, 9, 54, 80
2, 43439, Note_on_c, 9, 54, 0
2, 43440, Note_on_c, 9, 54, 80
2, 43559, Note_on_c, 9, 54, 0
2, 43560, Note_on_c, 9, 54, 80
2, 43679, Note_on_c, 9, 54, 0
2, 43680, Note_on_c, 9, 54, 100
2, 43799, Note_on_c, 9, 54, 0
2, 43800, Note_on_c, 9, 54, 80
2, 43919, Note_on_c, 9, 54, 0
2, 43920, Note_on_c, 9, 54, 80
2, 44039, Note_on_c, 9, 54, 0
2, 44040, Note_on_c, 9, 54, 80
2, 44159, Note_on_c, 9, 54, 0
2, 44160, Note_on_c, 9, 54, 100
2, 44279, Note_on_c, 9, 54, 0
2, 44280, Note_on_c, 9, 54, 80
2, 44399, Note_on_c, 9, 54, 0
2, 44400, Note_on_c, 9, 54, 80
2, 44519, Note_on_c, 9, 54, 0
2, 44520, Note_on_c, 9, 54, 80
2, 44639, Note_on_c, 9, 54, 0
2, 44640, Note_on_c, 9, 54, 100
2, 44759, Note_on_c, 9, 54, 0
2, 44760, Note_on_c, 9, 54, 80
2, 44879, Note_on_c, 9, 54, 0
2, 44880, Note_on_c, 9, 54, 80
2, 44999, Note_on_c, 9, 54, 0
2, 45000, Note_on_c, 9, 54, 80
2, 45119, Note_on_c, 9, 54, 0
2, 45120, Note_on_c, 9, 54, 100
2, 45239, Note_on_c, 9, 54, 0
2, 45240, Note_on_c, 9, 54, 80
2, 45359, Note_on_c, 9, 54, 0
2, 45360, Note_on_c, 9, 54, 80
2, 45479, Note_on_c, 9, 54, 0
2, 45480, Note_on_c, 9, 54, 80
2, 45599, Note_on_c, 9, 54, 0
2, 45600, Note_on_c, 9, 54, 100
2, 45719, Note_on_c, 9, 54, 0
2, 45720, Note_on_c, 9, 54, 80
2, 45839, Note_on_c, 9, 54, 0
2, 45840, Note_on_c, 9, 54, 80
2, 45959, Note_on_c, 9, 54, 0
2, 45960, Note_on_c, 9, 54, 80
2, 46079, Note_on_c, 9, 54, 0
2, 46080, Note_on_c, 9, 54, 100
2, 46199, Note_on_c, 9, 54, 0
2, 46200, Note_on_c, 9, 54, 80
2, 46319, Note_on_c, 9, 54, 0
2, 46320, Note_on_c, 9, 54, 80
2, 46439, Note_on_c, 9, 54, 0
2, 46440, Note_on_c, 9, 54, 80
2, 46559, Note_on_c, 9, 54, 0
2, 46560, Note_on_c, 9, 54, 100
2, 46679, Note_on_c, 9, 54, 0
2, 46680, Note_on_c, 9, 54, 80
2, 46799, Note_on_c, 9, 54, 0
2, 46800, Note_on_c, 9, 54, 80
2, 46919, Note_on_c, 9, 54, 0
2, 46920, Note_on_c, 9, 54, 80
2, 47039, Note_on_c, 9, 54, 0
2, 47040, Note_on_c, 9, 54, 100
2, 47159, Note_on_c, 9, 54, 0
2, 47160, Note_on_c, 9, 54, 80
2, 47279, Note_on_c, 9, 54, 0
2, 47280, Note_on_c, 9, 54, 80
2, 47399, Note_on_c, 9, 54, 0
2, 47400, Note_on_c, 9, 54, 80
2, 47519, Note_on_c, 9, 54, 0
2, 47520, Note_on_c, 9, 54, 100
2, 47639, Note_on_c, 9, 54, 0
2, 47640, Note_on_c, 9, 54, 80
2, 47759, Note_on_c, 9, 54, 0
2, 47760, Note_on_c, 9, 54, 80
2, 47879, Note_on_c, 9, 54, 0
2, 47880, Note_on_c, 9, 54, 80
2, 47999, Note_on_c, 9, 54, 0
2, 48000, Note_on_c, 9, 54, 100
2, 48119, Note_on_c, 9, 54, 0
2, 48120, Note_on_c, 9, 54, 80
2, 48239, Note_on_c, 9, 54, 0
2, 48240, Note_on_c, 9, 54, 80
2, 48359, Note_on_c, 9, 54, 0
2, 48360, Note_on_c, 9, 54, 80
2, 48479, Note_on_c, 9, 54, 0
2, 48480, Note_on_c, 9, 54, 100
2, 48599, Note_on_c, 9, 54, 0
2, 48600, Note_on_c, 9, 54, 80
2, 48719, Note_on_c, 9, 54, 0
2, 48720, Note_on_c, 9, 54, 80
2, 48839, Note_on_c, 9, 54, 0
2, 48840, Note_on_c, 9, 54, 80
2, 48959, Note_on_c, 9, 54, 0
2, 48960, Note_on_c, 9, 54, 100
2, 49079, Note_on_c, 9, 54, 0
2, 49080, Note_on_c, 9, 54, 80
2, 49199, Note_on_c, 9, 54, 0
2, 49200, Note_on_c, 9, 54, 80
2, 49319, Note_on_c, 9, 54, 0
2, 49320, Note_on_c, 9, 54, 80
2, 49439, Note_on_c, 9, 54, 0
2, 49440, Note_on_c, 9, 54, 100
2, 49559, Note_on_c, 9, 54, 0
2, 49560, Note_on_c, 9, 54, 80
2, 49679, Note_on_c, 9, 54, 0
2, 49680, Note_on_c, 9, 54, 80
2, 49799, Note_on_c, 9, 54, 0
2, 49800, Note_on_c, 9, 54, 80
2, 49919, Note_on_c, 9, 54, 0
2, 49920, Note_on_c, 9, 54, 100
2, 50039, Note_on_c, 9, 54, 0
2, 50040, Note_on_c, 9, 54, 80
2, 50159, Note_on_c, 9, 54, 0
2, 50160, Note_on_c, 9, 54, 80
2, 50279, Note_on_c, 9, 54, 0
2, 50280, Note_on_c, 9, 54, 80
2, 50399, Note_on_c, 9, 54, 0
2, 50400, Note_on_c, 9, 54, 100
2, 50519, Note_on_c, 9, 54, 0
2, 50520, Note_on_c, 9, 54, 80
2, 50639, Note_on_c, 9, 54, 0
2, 50640, Note_on_c, 9, 54, 80
2, 50759, Note_on_c, 9, 54, 0
2, 50760, Note_on_c, 9, 54, 80
2, 50879, Note_on_c, 9, 54, 0
2, 50880, Note_on_c, 9, 54, 100
2, 50999, Note_on_c, 9, 54, 0
2, 51000, Note_on_c, 9, 54, 80
2, 51119, Note_on_c, 9, 54, 0
2, 51120, Note_on_c, 9, 54, 80
2, 51239, Note_on_c, 9, 54, 0
2, 51240, Note_on_c, 9, 54, 80
2, 51359, Note_on_c, 9, 54, 0
2, 51360, Note_on_c, 9, 54, 100
2, 51479, Note_on_c, 9, 54, 0
2, 51480, Note_on_c, 9, 54, 80
2, 51599, Note_on_c, 9, 54, 0
2, 51600, Note_on_c, 9, 54, 80
2, 51719, Note_on_c, 9, 54, 0
2, 51720, Note_on_c, 9, 54, 80
2, 51839, Note_on_c, 9, 54, 0
2, 51840, Note_on_c, 9, 54, 100
2, 51959, Note_on_c, 9, 54, 0
2, 51960, Note_on_c, 9, 54, 80
2, 52079, Note_on_c, 9, 54, 0
2, 52080, Note_on_c, 9, 54, 80
2, 52199, Note_on_c, 9, 54, 0
2, 52200, Note_on_c, 9, 54, 80
2, 52319, Note_on_c, 9, 54, 0
2, 52320, Note_on_c, 9, 54, 100
2, 52439, Note_on_c, 9, 54, 0
2, 52440, Note_on_c, 9, 54, 80
2, 52559, Note_on_c, 9, 54, 0
2, 52560, Note_on_c, 9, 54, 80
2, 52679, Note_on_c, 9, 54, 0
2, 52680, Note_on_c, 9, 54, 80
2, 52799, Note_on_c, 9, 54, 0
2, 52800, Note_on_c, 9, 54, 100
2, 52919, Note_on_c, 9, 54, 0
2, 52920, Note_on_c, 9, 54, 80
2, 53039, Note_on_c, 9, 54, 0
2, 53040, Note_on_c, 9, 54, 80
2, 53159, Note_on_c, 9, 54, 0
2, 53160, Note_on_c, 9, 54, 80
2, 53279, Note_on_c, 9, 54, 0
2, 53280, Note_on_c, 9, 54, 100
2, 53399, Note_on_c, 9, 54, 0
2, 53400, Note_on_c, 9, 54, 80
2, 53519, Note_on_c, 9, 54, 0
2, 53520, Note_on_c, 9, 54, 80
2, 53639, Note_on_c, 9, 54, 0
2, 53640, Note_on_c, 9, 54, 80
2, 53759, Note_on_c, 9, 54, 0
2, 53760, Note_on_c, 9, 54, 100
2, 53879, Note_on_c, 9, 54, 0
2, 53880, Note_on_c, 9, 54, 80
2, 53999, Note_on_c, 9, 54, 0
2, 54000, Note_on_c, 9, 54, 80
2, 54119, Note_on_c, 9, 54, 0
2, 54120, Note_on_c, 9, 54, 80
2, 54239, Note_on_c, 9, 54, 0
2, 54240, Note_on_c, 9, 54, 100
2, 54359, Note_on_c, 9, 54, 0
2, 54360, Note_on_c, 9, 54, 80
2, 54479, Note_on_c, 9, 54, 0
2, 54480, Note_on_c, 9, 54, 80
2, 54599, Note_on_c, 9, 54, 0
2, 54600, Note_on_c, 9, 54, 80
2, 54719, Note_on_c, 9, 54, 0
2, 54720, Note_on_c, 9, 54, 100
2, 54839, Note_on_c, 9, 54, 0
2, 54840, Note_on_c, 9, 54, 80
2, 54959, Note_on_c, 9, 54, 0
2, 54960, Note_on_c, 9, 54, 80
2, 55079, Note_on_c, 9, 54, 0
2, 55080, Note_on_c, 9, 54, 80
2, 55199, Note_on_c, 9, 54, 0
2, 55200, Note_on_c, 9, 54, 100
2, 55319, Note_on_c, 9, 54, 0
2, 55320, Note_on_c, 9, 54, 80
2, 55439, Note_on_c, 9, 54, 0
2, 55440, Note_on_c, 9, 54, 80
2, 55559, Note_on_c, 9, 54, 0
2, 55560, Note_on_c, 9, 54, 80
2, 55679, Note_on_c, 9, 54, 0
2, 55680, Note_on_c, 9, 54, 100
2, 55799, Note_on_c, 9, 54, 0
2, 55800, Note_on_c, 9, 54, 80
2, 55919, Note_on_c, 9, 54, 0
2, 55920, Note_on_c, 9, 54, 80
2, 56039, Note_on_c, 9, 54, 0
2, 56040, Note_on_c, 9, 54, 80
2, 56159, Note_on_c, 9, 54, 0
2, 56160, Note_on_c, 9, 54, 100
2, 56279, Note_on_c, 9, 54, 0
2, 56280, Note_on_c, 9, 54, 80
2, 56399, Note_on_c, 9, 54, 0
2, 56400, Note_on_c, 9, 54, 80
2, 56519, Note_on_c, 9, 54, 0
2, 56520, Note_on_c, 9, 54, 80
2, 56639, Note_on_c, 9, 54, 0
2, 56640, Note_on_c, 9, 54, 100
2, 56759, Note_on_c, 9, 54, 0
2, 56760, Note_on_c, 9, 54, 80
2, 56879, Note_on_c, 9, 54, 0
2, 56880, Note_on_c, 9, 54, 80
2, 56999, Note_on_c, 9, 54, 0
2, 57000, Note_on_c, 9, 54, 80
2, 57119, Note_on_c, 9, 54, 0
2, 57120, Note_on_c, 9, 54, 100
2, 57239, Note_on_c, 9, 54, 0
2, 57240, Note_on_c, 9, 54, 80
2, 57359, Note_on_c, 9, 54, 0
2, 57360, Note_on_c, 9, 54, 80
2, 57479, Note_on_c, 9, 54, 0
2, 57480, Note_on_c, 9, 54, 80
2, 57599, Note_on_c, 9, 54, 0
2, 57600, Note_on_c, 9, 54, 100
2, 57719, Note_on_c, 9, 54, 0
2, 57720, Note_on_c, 9, 54, 80
2, 57839, Note_on_c, 9, 54, 0
2, 57840, Note_on_c, 9, 54, 80
2, 57959, Note_on_c, 9, 54, 0
2, 57960, Note_on_c, 9, 54, 80
2, 58079, Note_on_c, 9, 54, 0
2, 58080, Note_on_c, 9, 54, 100
2, 58199, Note_on_c, 9, 54, 0
2, 58200, Note_on_c, 9, 54, 80
2, 58319, Note_on_c, 9, 54, 0
2, 58320, Note_on_c, 9, 54, 80
2, 58439, Note_on_c, 9, 54, 0
2, 58440, Note_on_c, 9, 54, 80
2, 58559, Note_on_c, 9, 54, 0
2, 58560, Note_on_c, 9, 54, 100
2, 58679, Note_on_c, 9, 54, 0
2, 58680, Note_on_c, 9, 54, 80
2, 58799, Note_on_c, 9, 54, 0
2, 58800, Note_on_c, 9, 54, 80
2, 58919, Note_on_c, 9, 54, 0
2, 58920, Note_on_c, 9, 54, 80
2, 59039, Note_on_c, 9, 54, 0
2, 59040, Note_on_c, 9, 54, 100
2, 59159, Note_on_c, 9, 54, 0
2, 59160, Note_on_c, 9, 54, 80
2, 59279, Note_on_c, 9, 54, 0
2, 59280, Note_on_c, 9, 54, 80
2, 59399, Note_on_c, 9, 54, 0
2, 59400, Note_on_c, 9, 54, 80
2, 59519, Note_on_c, 9, 54, 0
2, 59520, Note_on_c, 9, 54, 100
2, 59639, Note_on_c, 9, 54, 0
2, 59640, Note_on_c, 9, 54, 80
2, 59759, Note_on_c, 9, 54, 0
2, 59760, Note_on_c, 9, 54, 80
2, 59879, Note_on_c, 9, 54, 0
2, 59880, Note_on_c, 9, 54, 80
2, 59999, Note_on_c, 9, 54, 0
2, 60000, Note_on_c, 9, 54, 100
2, 60119, Note_on_c, 9, 54, 0
2, 60120, Note_on_c, 9, 54, 80
2, 60239, Note_on_c, 9, 54, 0
2, 60240, Note_on_c, 9, 54, 80
2, 60359, Note_on_c, 9, 54, 0
2, 60360, Note_on_c, 9, 54, 80
2, 60479, Note_on_c, 9, 54, 0
2, 60480, Note_on_c, 9, 54, 100
2, 60599, Note_on_c, 9, 54, 0
2, 60600, Note_on_c, 9, 54, 80
2, 60719, Note_on_c, 9, 54, 0
2, 60720, Note_on_c, 9, 54, 80
2, 60839, Note_on_c, 9, 54, 0
2, 60840, Note_on_c, 9, 54, 80
2, 60959, Note_on_c, 9, 54, 0
2, 60960, Note_on_c, 9, 54, 100
2, 61079, Note_on_c, 9, 54, 0
2, 61080, Note_on_c, 9, 54, 80
2, 61199, Note_on_c, 9, 54, 0
2, 61200, Note_on_c, 9, 54, 80
2, 61319, Note_on_c, 9, 54, 0
2, 61320, Note_on_c, 9, 54, 80
2, 61439, Note_on_c, 9, 54, 0
2, 61440, Note_on_c, 9, 54, 100
2, 61559, Note_on_c, 9, 54, 0
2, 61560, Note_on_c, 9, 54, 80
2, 61679, Note_on_c, 9, 54, 0
2, 61680, Note_on_c, 9, 54, 80
2, 61799, Note_on_c, 9, 54, 0
2, 61800, Note_on_c, 9, 54, 80
2, 61919, Note_on_c, 9, 54, 0
2, 61920, Note_on_c, 9, 54, 100
2, 62039, Note_on_c, 9, 54, 0
2, 62040, Note_on_c, 9, 54, 80
2, 62159, Note_on_c, 9, 54, 0
2, 62160, Note_on_c, 9, 54, 80
2, 62279, Note_on_c, 9, 54, 0
2, 62280, Note_on_c, 9, 54, 80
2, 62399, Note_on_c, 9, 54, 0
2, 62400, Note_on_c, 9, 54, 100
2, 62519, Note_on_c, 9, 54, 0
2, 62520, Note_on_c, 9, 54, 80
2, 62639, Note_on_c, 9, 54, 0
2, 62640, Note_on_c, 9, 54, 80
2, 62759, Note_on_c, 9, 54, 0
2, 62760, Note_on_c, 9, 54, 80
2, 62879, Note_on_c, 9, 54, 0
2, 62880, Note_on_c, 9, 54, 100
2, 62999, Note_on_c, 9, 54, 0
2, 63000, Note_on_c, 9, 54, 80
2, 63119, Note_on_c, 9, 54, 0
2, 63120, Note_on_c, 9, 54, 80
2, 63239, Note_on_c, 9, 54, 0
2, 63240, Note_on_c, 9, 54, 80
2, 63359, Note_on_c, 9, 54, 0
2, 63360, Note_on_c, 9, 54, 100
2, 63479, Note_on_c, 9, 54, 0
2, 63480, Note_on_c, 9, 54, 80
2, 63599, Note_on_c, 9, 54, 0
2, 63600, Note_on_c, 9, 54, 80
2, 63719, Note_on_c, 9, 54, 0
2, 63720, Note_on_c, 9, 54, 80
2, 63839, Note_on_c, 9, 54, 0
2, 63840, Note_on_c, 9, 54, 100
2, 63959, Note_on_c, 9, 54, 0
2, 63960, Note_on_c, 9, 54, 80
2, 64079, Note_on_c, 9, 54, 0
2, 64080, Note_on_c, 9, 54, 80
2, 64199, Note_on_c, 9, 54, 0
2, 64200, Note_on_c, 9, 54, 80
2, 64319, Note_on_c, 9, 54, 0
2, 64320, Note_on_c, 9, 54, 100
2, 64439, Note_on_c, 9, 54, 0
2, 64440, Note_on_c, 9, 54, 80
2, 64559, Note_on_c, 9, 54, 0
2, 64560, Note_on_c, 9, 54, 80
2, 64679, Note_on_c, 9, 54, 0
2, 64680, Note_on_c, 9, 54, 80
2, 64799, Note_on_c, 9, 54, 0
2, 64800, Note_on_c, 9, 54, 100
2, 64919, Note_on_c, 9, 54, 0
2, 64920, Note_on_c, 9, 54, 80
2, 65039, Note_on_c, 9, 54, 0
2, 65040, Note_on_c, 9, 54, 80
2, 65159, Note_on_c, 9, 54, 0
2, 65160, Note_on_c, 9, 54, 80
2, 65279, Note_on_c, 9, 54, 0
2, 65280, Note_on_c, 9, 54, 100
2, 65399, Note_on_c, 9, 54, 0
2, 65400, Note_on_c, 9, 54, 80
2, 65519, Note_on_c, 9, 54, 0
2, 65520, Note_on_c, 9, 54, 80
2, 65639, Note_on_c, 9, 54, 0
2, 65640, Note_on_c, 9, 54, 80
2, 65759, Note_on_c, 9, 54, 0
2, 65760, Note_on_c, 9, 54, 100
2, 65879, Note_on_c, 9, 54, 0
2, 65880, Note_on_c, 9, 54, 80
2, 65999, Note_on_c, 9, 54, 0
2, 66000, Note_on_c, 9, 54, 80
2, 66119, Note_on_c, 9, 54, 0
2, 66120, Note_on_c, 9, 54, 80
2, 66239, Note_on_c, 9, 54, 0
2, 66240, Note_on_c, 9, 54, 100
2, 66359, Note_on_c, 9, 54, 0
2, 66360, Note_on_c, 9, 54, 80
2, 66479, Note_on_c, 9, 54, 0
2, 66480, Note_on_c, 9, 54, 80
2, 66599, Note_on_c, 9, 54, 0
2, 66600, Note_on_c, 9, 54, 80
2, 66719, Note_on_c, 9, 54, 0
2, 66720, Note_on_c, 9, 54, 100
2, 66839, Note_on_c, 9, 54, 0
2, 66840, Note_on_c, 9, 54, 80
2, 66959, Note_on_c, 9, 54, 0
2, 66960, Note_on_c, 9, 54, 80
2, 67079, Note_on_c, 9, 54, 0
2, 67080, Note_on_c, 9, 54, 80
2, 67199, Note_on_c, 9, 54, 0
2, 67200, Note_on_c, 9, 54, 100
2, 67319, Note_on_c, 9, 54, 0
2, 67320, Note_on_c, 9, 54, 80
2, 67439, Note_on_c, 9, 54, 0
2, 67440, Note_on_c, 9, 54, 80
2, 67559, Note_on_c, 9, 54, 0
2, 67560, Note_on_c, 9, 54, 80
2, 67679, Note_on_c, 9, 54, 0
2, 67680, Note_on_c, 9, 54, 100
2, 67799, Note_on_c, 9, 54, 0
2, 67800, Note_on_c, 9, 54, 80
2, 67919, Note_on_c, 9, 54, 0
2, 67920, Note_on_c, 9, 54, 80
2, 68039, Note_on_c, 9, 54, 0
2, 68040, Note_on_c, 9, 54, 80
2, 68159, Note_on_c, 9, 54, 0
2, 68160, Note_on_c, 9, 54, 100
2, 68279, Note_on_c, 9, 54, 0
2, 68280, Note_on_c, 9, 54, 80
2, 68399, Note_on_c, 9, 54, 0
2, 68400, Note_on_c, 9, 54, 80
2, 68519, Note_on_c, 9, 54, 0
2, 68520, Note_on_c, 9, 54, 80
2, 68639, Note_on_c, 9, 54, 0
2, 68640, Note_on_c, 9, 54, 100
2, 68759, Note_on_c, 9, 54, 0
2, 68760, Note_on_c, 9, 54, 80
2, 68879, Note_on_c, 9, 54, 0
2, 68880, Note_on_c, 9, 54, 80
2, 68999, Note_on_c, 9, 54, 0
2, 69000, Note_on_c, 9, 54, 80
2, 69119, Note_on_c, 9, 54, 0
2, 69120, Note_on_c, 9, 54, 100
2, 69239, Note_on_c, 9, 54, 0
2, 69240, Note_on_c, 9, 54, 80
2, 69359, Note_on_c, 9, 54, 0
2, 69360, Note_on_c, 9, 54, 80
2, 69479, Note_on_c, 9, 54, 0
2, 69480, Note_on_c, 9, 54, 80
2, 69599, Note_on_c, 9, 54, 0
2, 69600, Note_on_c, 9, 54, 100
2, 69719, Note_on_c, 9, 54, 0
2, 69720, Note_on_c, 9, 54, 80
2, 69839, Note_on_c, 9, 54, 0
2, 69840, Note_on_c, 9, 54, 80
2, 69959, Note_on_c, 9, 54, 0
2, 69960, Note_on_c, 9, 54, 80
2, 70079, Note_on_c, 9, 54, 0
2, 70080, Note_on_c, 9, 54, 100
2, 70199, Note_on_c, 9, 54, 0
2, 70200, Note_on_c, 9, 54, 80
2, 70319, Note_on_c, 9, 54, 0
2, 70320, Note_on_c, 9, 54, 80
2, 70439, Note_on_c, 9, 54, 0
2, 70440, Note_on_c, 9, 54, 80
2, 70559, Note_on_c, 9, 54, 0
2, 70560, Note_on_c, 9, 54, 100
2, 70679, Note_on_c, 9, 54, 0
2, 70680, Note_on_c, 9, 54, 80
2, 70799, Note_on_c, 9, 54, 0
2, 70800, Note_on_c, 9, 54, 80
2, 70919, Note_on_c, 9, 54, 0
2, 70920, Note_on_c, 9, 54, 80
2, 71039, Note_on_c, 9, 54, 0
2, 71040, Note_on_c, 9, 54, 100
2, 71159, Note_on_c, 9, 54, 0
2, 71160, Note_on_c, 9, 54, 80
2, 71279, Note_on_c, 9, 54, 0
2, 71280, Note_on_c, 9, 54, 80
2, 71399, Note_on_c, 9, 54, 0
2, 71400, Note_on_c, 9, 54, 80
2, 71519, Note_on_c, 9, 54, 0
2, 71520, Note_on_c, 9, 54, 100
2, 71639, Note_on_c, 9, 54, 0
2, 71640, Note_on_c, 9, 54, 80
2, 71759, Note_on_c, 9, 54, 0
2, 71760, Note_on_c, 9, 54, 80
2, 71879, Note_on_c, 9, 54, 0
2, 71880, Note_on_c, 9, 54, 80
2, 71999, Note_on_c, 9, 54, 0
2, 72000, Note_on_c, 9, 54, 100
2, 72119, Note_on_c, 9, 54, 0
2, 72120, Note_on_c, 9, 54, 80
2, 72239, Note_on_c, 9, 54, 0
2, 72240, Note_on_c, 9, 54, 80
2, 72359, Note_on_c, 9, 54, 0
2, 72360, Note_on_c, 9, 54, 80
2, 72479, Note_on_c, 9, 54, 0
2, 72480, Note_on_c, 9, 54, 100
2, 72599, Note_on_c, 9, 54, 0
2, 72600, Note_on_c, 9, 54, 80
2, 72719, Note_on_c, 9, 54, 0
2, 72720, Note_on_c, 9, 54, 80
2, 72839, Note_on_c, 9, 54, 0
2, 72840, Note_on_c, 9, 54, 80
2, 72959, Note_on_c, 9, 54, 0
2, 72960, Note_on_c, 9, 54, 100
2, 73079, Note_on_c, 9, 54, 0
2, 73080, Note_on_c, 9, 54, 80
2, 73199, Note_on_c, 9, 54, 0
2, 73200, Note_on_c, 9, 54, 80
2, 73319, Note_on_c, 9, 54, 0
2, 73320, Note_on_c, 9, 54, 80
2, 73439, Note_on_c, 9, 54, 0
2, 73440, Note_on_c, 9, 54, 100
2, 73559, Note_on_c, 9, 54, 0
2, 73560, Note_on_c, 9, 54, 80
2, 73679, Note_on_c, 9, 54, 0
2, 73680, Note_on_c, 9, 54, 80
2, 73799, Note_on_c, 9, 54, 0
2, 73800, Note_on_c, 9, 54, 80
2, 73919, Note_on_c, 9, 54, 0
2, 73920, Note_on_c, 9, 54, 100
2, 74039, Note_on_c, 9, 54, 0
2, 74040, Note_on_c, 9, 54, 80
2, 74159, Note_on_c, 9, 54, 0
2, 74160, Note_on_c, 9, 54, 80
2, 74279, Note_on_c, 9, 54, 0
2, 74280, Note_on_c, 9, 54, 80
2, 74399, Note_on_c, 9, 54, 0
2, 74400, Note_on_c, 9, 54, 100
2, 74519, Note_on_c, 9, 54, 0
2, 74520, Note_on_c, 9, 54, 80
2, 74639, Note_on_c, 9, 54, 0
2, 74640, Note_on_c, 9, 54, 80
2, 74759, Note_on_c, 9, 54, 0
2, 74760, Note_on_c, 9, 54, 80
2, 74879, Note_on_c, 9, 54, 0
2, 74880, Note_on_c, 9, 54, 100
2, 74999, Note_on_c, 9, 54, 0
2, 75000, Note_on_c, 9, 54, 80
2, 75119, Note_on_c, 9, 54, 0
2, 75120, Note_on_c, 9, 54, 80
2, 75239, Note_on_c, 9, 54, 0
2, 75240, Note_on_c, 9, 54, 80
2, 75359, Note_on_c, 9, 54, 0
2, 75360, Note_on_c, 9, 54, 100
2, 75479, Note_on_c, 9, 54, 0
2, 75480, Note_on_c, 9, 54, 80
2, 75599, Note_on_c, 9, 54, 0
2, 75600, Note_on_c, 9, 54, 80
2, 75719, Note_on_c, 9, 54, 0
2, 75720, Note_on_c, 9, 54, 80
2, 75839, Note_on_c, 9, 54, 0
2, 75840, Note_on_c, 9, 54, 100
2, 75959, Note_on_c, 9, 54, 0
2, 75960, Note_on_c, 9, 54, 80
2, 76079, Note_on_c, 9, 54, 0
2, 76080, Note_on_c, 9, 54, 80
2, 76199, Note_on_c, 9, 54, 0
2, 76200, Note_on_c, 9, 54, 80
2, 76319, Note_on_c, 9, 54, 0
2, 76320, Note_on_c, 9, 54, 100
2, 76439, Note_on_c, 9, 54, 0
2, 76440, Note_on_c, 9, 54, 80
2, 76559, Note_on_c, 9, 54, 0
2, 76560, Note_on_c, 9, 54, 80
2, 76679, Note_on_c, 9, 54, 0
2, 76680, Note_on_c, 9, 54, 80
2, 76799, Note_on_c, 9, 54, 0
2, 76800, Note_on_c, 9, 54, 100
2, 76919, Note_on_c, 9, 54, 0
2, 76920, Note_on_c, 9, 54, 80
2, 77039, Note_on_c, 9, 54, 0
2, 77040, Note_on_c, 9, 54, 80
2, 77159, Note_on_c, 9, 54, 0
2, 77160, Note_on_c, 9, 54, 80
2, 77279, Note_on_c, 9, 54, 0
2, 77280, Note_on_c, 9, 54, 100
2, 77399, Note_on_c, 9, 54, 0
2, 77400, Note_on_c, 9, 54, 80
2, 77519, Note_on_c, 9, 54, 0
2, 77520, Note_on_c, 9, 54, 80
2, 77639, Note_on_c, 9, 54, 0
2, 77640, Note_on_c, 9, 54, 80
2, 77759, Note_on_c, 9, 54, 0
2, 77760, Note_on_c, 9, 54, 100
2, 77879, Note_on_c, 9, 54, 0
2, 77880, Note_on_c, 9, 54, 80
2, 77999, Note_on_c, 9, 54, 0
2, 78000, Note_on_c, 9, 54, 80
2, 78119, Note_on_c, 9, 54, 0
2, 78120, Note_on_c, 9, 54, 80
2, 78239, Note_on_c, 9, 54, 0
2, 78240, Note_on_c, 9, 54, 100
2, 78359, Note_on_c, 9, 54, 0
2, 78360, Note_on_c, 9, 54, 80
2, 78479, Note_on_c, 9, 54, 0
2, 78480, Note_on_c, 9, 54, 80
2, 78599, Note_on_c, 9, 54, 0
2, 78600, Note_on_c, 9, 54, 80
2, 78719, Note_on_c, 9, 54, 0
2, 78720, Note_on_c, 9, 54, 100
2, 78839, Note_on_c, 9, 54, 0
2, 78840, Note_on_c, 9, 54, 80
2, 78959, Note_on_c, 9, 54, 0
2, 78960, Note_on_c, 9, 54, 80
2, 79079, Note_on_c, 9, 54, 0
2, 79080, Note_on_c, 9, 54, 80
2, 79199, Note_on_c, 9, 54, 0
2, 79200, Note_on_c, 9, 54, 100
2, 79319, Note_on_c, 9, 54, 0
2, 79320, Note_on_c, 9, 54, 80
2, 79439, Note_on_c, 9, 54, 0
2, 79440, Note_on_c, 9, 54, 80
2, 79559, Note_on_c, 9, 54, 0
2, 79560, Note_on_c, 9, 54, 80
2, 79679, Note_on_c, 9, 54, 0
2, 79680, Note_on_c, 9, 54, 100
2, 79799, Note_on_c, 9, 54, 0
2, 79800, Note_on_c, 9, 54, 80
2, 79919, Note_on_c, 9, 54, 0
2, 79920, Note_on_c, 9, 54, 80
2, 80039, Note_on_c, 9, 54, 0
2, 80040, Note_on_c, 9, 54, 80
2, 80159, Note_on_c, 9, 54, 0
2, 80160, Note_on_c, 9, 54, 100
2, 80279, Note_on_c, 9, 54, 0
2, 80280, Note_on_c, 9, 54, 80
2, 80399, Note_on_c, 9, 54, 0
2, 80400, Note_on_c, 9, 54, 80
2, 80519, Note_on_c, 9, 54, 0
2, 80520, Note_on_c, 9, 54, 80
2, 80639, Note_on_c, 9, 54, 0
2, 80640, Note_on_c, 9, 54, 100
2, 80759, Note_on_c, 9, 54, 0
2, 80760, Note_on_c, 9, 54, 80
2, 80879, Note_on_c, 9, 54, 0
2, 80880, Note_on_c, 9, 54, 80
2, 80999, Note_on_c, 9, 54, 0
2, 81000, Note_on_c, 9, 54, 80
2, 81119, Note_on_c, 9, 54, 0
2, 81120, Note_on_c, 9, 54, 100
2, 81239, Note_on_c, 9, 54, 0
2, 81240, Note_on_c, 9, 54, 80
2, 81359, Note_on_c, 9, 54, 0
2, 81360, Note_on_c, 9, 54, 80
2, 81479, Note_on_c, 9, 54, 0
2, 81480, Note_on_c, 9, 54, 80
2, 81599, Note_on_c, 9, 54, 0
2, 81600, Note_on_c, 9, 54, 100
2, 81719, Note_on_c, 9, 54, 0
2, 81720, Note_on_c, 9, 54, 80
2, 81839, Note_on_c, 9, 54, 0
2, 81840, Note_on_c, 9, 54, 80
2, 81959, Note_on_c, 9, 54, 0
2, 81960, Note_on_c, 9, 54, 80
2, 82079, Note_on_c, 9, 54, 0
2, 82080, Note_on_c, 9, 54, 100
2, 82199, Note_on_c, 9, 54, 0
2, 82200, Note_on_c, 9, 54, 80
2, 82319, Note_on_c, 9, 54, 0
2, 82320, Note_on_c, 9, 54, 80
2, 82439, Note_on_c, 9, 54, 0
2, 82440, Note_on_c, 9, 54, 80
2, 82559, Note_on_c, 9, 54, 0
2, 82560, Note_on_c, 9, 54, 100
2, 82679, Note_on_c, 9, 54, 0
2, 82680, Note_on_c, 9, 54, 80
2, 82799, Note_on_c, 9, 54, 0
2, 82800, Note_on_c, 9, 54, 80
2, 82919, Note_on_c, 9, 54, 0
2, 82920, Note_on_c, 9, 54, 80
2, 83039, Note_on_c, 9, 54, 0
2, 83040, Note_on_c, 9, 54, 100
2, 83159, Note_on_c, 9, 54, 0
2, 83160, Note_on_c, 9, 54, 80
2, 83279, Note_on_c, 9, 54, 0
2, 83280, Note_on_c, 9, 54, 80
2, 83399, Note_on_c, 9, 54, 0
2, 83400, Note_on_c, 9, 54, 80
2, 83519, Note_on_c, 9, 54, 0
2, 83520, Note_on_c, 9, 54, 100
2, 83639, Note_on_c, 9, 54, 0
2, 83640, Note_on_c, 9, 54, 80
2, 83759, Note_on_c, 9, 54, 0
2, 83760, Note_on_c, 9, 54, 80
2, 83879, Note_on_c, 9, 54, 0
2, 83880, Note_on_c, 9, 54, 80
2, 83999, Note_on_c, 9, 54, 0
2, 84000, Note_on_c, 9, 54, 100
2, 84119, Note_on_c, 9, 54, 0
2, 84120, Note_on_c, 9, 54, 80
2, 84239, Note_on_c, 9, 54, 0
2, 84240, Note_on_c, 9, 54, 80
2, 84359, Note_on_c, 9, 54, 0
2, 84360, Note_on_c, 9, 54, 80
2, 84479, Note_on_c, 9, 54, 0
2, 84480, Note_on_c, 9, 54, 100
2, 84599, Note_on_c, 9, 54, 0
2, 84600, Note_on_c, 9, 54, 80
2, 84719, Note_on_c, 9, 54, 0
2, 84720, Note_on_c, 9, 54, 80
2, 84839, Note_on_c, 9, 54, 0
2, 84840, Note_on_c, 9, 54, 80
2, 84959, Note_on_c, 9, 54, 0
2, 84960, Note_on_c, 9, 54, 100
2, 85079, Note_on_c, 9, 54, 0
2, 85080, Note_on_c, 9, 54, 80
2, 85199, Note_on_c, 9, 54, 0
2, 85200, Note_on_c, 9, 54, 80
2, 85319, Note_on_c, 9, 54, 0
2, 85320, Note_on_c, 9, 54, 80
2, 85439, Note_on_c, 9, 54, 0
2, 85440, Note_on_c, 9, 54, 100
2, 85559, Note_on_c, 9, 54, 0
2, 85560, Note_on_c, 9, 54, 80
2, 85679, Note_on_c, 9, 54, 0
2, 85680, Note_on_c, 9, 54, 80
2, 85799, Note_on_c, 9, 54, 0
2, 85800, Note_on_c, 9, 54, 80
2, 85919, Note_on_c, 9, 54, 0
2, 85920, Note_on_c, 9, 54, 100
2, 86039, Note_on_c, 9, 54, 0
2, 86040, Note_on_c, 9, 54, 80
2, 86159, Note_on_c, 9, 54, 0
2, 86160, Note_on_c, 9, 54, 80
2, 86279, Note_on_c, 9, 54, 0
2, 86280, Note_on_c, 9, 54, 80
2, 86399, Note_on_c, 9, 54, 0
2, 86400, Note_on_c, 9, 54, 100
2, 86519, Note_on_c, 9, 54, 0
2, 86520, Note_on_c, 9, 54, 80
2, 86639, Note_on_c, 9, 54, 0
2, 86640, Note_on_c, 9, 54, 80
2, 86759, Note_on_c, 9, 54, 0
2, 86760, Note_on_c, 9, 54, 80
2, 86879, Note_on_c, 9, 54, 0
2, 86880, Note_on_c, 9, 54, 100
2, 86999, Note_on_c, 9, 54, 0
2, 87000, Note_on_c, 9, 54, 80
2, 87119, Note_on_c, 9, 54, 0
2, 87120, Note_on_c, 9, 54, 80
2, 87239, Note_on_c, 9, 54, 0
2, 87240, Note_on_c, 9, 54, 80
2, 87359, Note_on_c, 9, 54, 0
2, 87360, Note_on_c, 9, 54, 100
2, 87479, Note_on_c, 9, 54, 0
2, 87480, Note_on_c, 9, 54, 80
2, 87599, Note_on_c, 9, 54, 0
2, 87600, Note_on_c, 9, 54, 80
2, 87719, Note_on_c, 9, 54, 0
2, 87720, Note_on_c, 9, 54, 80
2, 87839, Note_on_c, 9, 54, 0
2, 87840, Note_on_c, 9, 54, 100
2, 87959, Note_on_c, 9, 54, 0
2, 87960, Note_on_c, 9, 54, 80
2, 88079, Note_on_c, 9, 54, 0
2, 88080, Note_on_c, 9, 54, 80
2, 88199, Note_on_c, 9, 54, 0
2, 88200, Note_on_c, 9, 54, 80
2, 88319, Note_on_c, 9, 54, 0
2, 88320, Note_on_c, 9, 54, 100
2, 88439, Note_on_c, 9, 54, 0
2, 88440, Note_on_c, 9, 54, 80
2, 88559, Note_on_c, 9, 54, 0
2, 88560, Note_on_c, 9, 54, 80
2, 88679, Note_on_c, 9, 54, 0
2, 88680, Note_on_c, 9, 54, 80
2, 88799, Note_on_c, 9, 54, 0
2, 88800, Note_on_c, 9, 54, 100
2, 88919, Note_on_c, 9, 54, 0
2, 88920, Note_on_c, 9, 54, 80
2, 89039, Note_on_c, 9, 54, 0
2, 89040, Note_on_c, 9, 54, 80
2, 89159, Note_on_c, 9, 54, 0
2, 89160, Note_on_c, 9, 54, 80
2, 89279, Note_on_c, 9, 54, 0
2, 89280, Note_on_c, 9, 54, 100
2, 89399, Note_on_c, 9, 54, 0
2, 89400, Note_on_c, 9, 54, 80
2, 89519, Note_on_c, 9, 54, 0
2, 89520, Note_on_c, 9, 54, 80
2, 89639, Note_on_c, 9, 54, 0
2, 89640, Note_on_c, 9, 54, 80
2, 89759, Note_on_c, 9, 54, 0
2, 89760, Note_on_c, 9, 54, 100
2, 89879, Note_on_c, 9, 54, 0
2, 89880, Note_on_c, 9, 54, 80
2, 89999, Note_on_c, 9, 54, 0
2, 90000, Note_on_c, 9, 54, 80
2, 90119, Note_on_c, 9, 54, 0
2, 90120, Note_on_c, 9, 54, 80
2, 90239, Note_on_c, 9, 54, 0
2, 90240, Note_on_c, 9, 54, 100
2, 90359, Note_on_c, 9, 54, 0
2, 90360, Note_on_c, 9, 54, 80
2, 90479, Note_on_c, 9, 54, 0
2, 90480, Note_on_c, 9, 54, 80
2, 90599, Note_on_c, 9, 54, 0
2, 90600, Note_on_c, 9, 54, 80
2, 90719, Note_on_c, 9, 54, 0
2, 90720, Note_on_c, 9, 54, 100
2, 90839, Note_on_c, 9, 54, 0
2, 90840, Note_on_c, 9, 54, 80
2, 90959, Note_on_c, 9, 54, 0
2, 90960, Note_on_c, 9, 54, 80
2, 91079, Note_on_c, 9, 54, 0
2, 91080, Note_on_c, 9, 54, 80
2, 91199, Note_on_c, 9, 54, 0
2, 91200, Note_on_c, 9, 54, 100
2, 91319, Note_on_c, 9, 54, 0
2, 91320, Note_on_c, 9, 54, 80
2, 91439, Note_on_c, 9, 54, 0
2, 91440, Note_on_c, 9, 54, 80
2, 91559, Note_on_c, 9, 54, 0
2, 91560, Note_on_c, 9, 54, 80
2, 91679, Note_on_c, 9, 54, 0
2, 91680, Note_on_c, 9, 54, 100
2, 91799, Note_on_c, 9, 54, 0
2, 91800, Note_on_c, 9, 54, 80
2, 91919, Note_on_c, 9, 54, 0
2, 91920, Note_on_c, 9, 54, 80
2, 92039, Note_on_c, 9, 54, 0
2, 92040, Note_on_c, 9, 54, 80
2, 92159, Note_on_c, 9, 54, 0
2, 92160, Note_on_c, 9, 54, 100
2, 92279, Note_on_c, 9, 54, 0
2, 92280, Note_on_c, 9, 54, 80
2, 92399, Note_on_c, 9, 54, 0
2, 92400, Note_on_c, 9, 54, 80
2, 92519, Note_on_c, 9, 54, 0
2, 92520, Note_on_c, 9, 54, 80
2, 92639, Note_on_c, 9, 54, 0
2, 92640, Note_on_c, 9, 54, 100
2, 92759, Note_on_c, 9, 54, 0
2, 92760, Note_on_c, 9, 54, 80
2, 92879, Note_on_c, 9, 54, 0
2, 92880, Note_on_c, 9, 54, 80
2, 92999, Note_on_c, 9, 54, 0
2, 93000, Note_on_c, 9, 54, 80
2, 93119, Note_on_c, 9, 54, 0
2, 93120, Note_on_c, 9, 54, 100
2, 93239, Note_on_c, 9, 54, 0
2, 93240, Note_on_c, 9, 54, 80
2, 93359, Note_on_c, 9, 54, 0
2, 93360, Note_on_c, 9, 54, 80
2, 93479, Note_on_c, 9, 54, 0
2, 93480, Note_on_c, 9, 54, 80
2, 93599, Note_on_c, 9, 54, 0
2, 93600, Note_on_c, 9, 54, 100
2, 93719, Note_on_c, 9, 54, 0
2, 93720, Note_on_c, 9, 54, 80
2, 93839, Note_on_c, 9, 54, 0
2, 93840, Note_on_c, 9, 54, 80
2, 93959, Note_on_c, 9, 54, 0
2, 93960, Note_on_c, 9, 54, 80
2, 94079, Note_on_c, 9, 54, 0
2, 94080, Note_on_c, 9, 54, 100
2, 94199, Note_on_c, 9, 54, 0
2, 94200, Note_on_c, 9, 54, 80
2, 94319, Note_on_c, 9, 54, 0
2, 94320, Note_on_c, 9, 54, 80
2, 94439, Note_on_c, 9, 54, 0
2, 94440, Note_on_c, 9, 54, 80
2, 94559, Note_on_c, 9, 54, 0
2, 94560, Note_on_c, 9, 54, 100
2, 94679, Note_on_c, 9, 54, 0
2, 94680, Note_on_c, 9, 54, 80
2, 94799, Note_on_c, 9, 54, 0
2, 94800, Note_on_c, 9, 54, 80
2, 94919, Note_on_c, 9, 54, 0
2, 94920, Note_on_c, 9, 54, 80
2, 95039, Note_on_c, 9, 54, 0
2, 95040, Note_on_c, 9, 54, 100
2, 95159, Note_on_c, 9, 54, 0
2, 95160, Note_on_c, 9, 54, 80
2, 95279, Note_on_c, 9, 54, 0
2, 95280, Note_on_c, 9, 54, 80
2, 95399, Note_on_c, 9, 54, 0
2, 95400, Note_on_c, 9, 54, 80
2, 95519, Note_on_c, 9, 54, 0
2, 95520, Note_on_c, 9, 54, 100
2, 95639, Note_on_c, 9, 54, 0
2, 95640, Note_on_c, 9, 54, 80
2, 95759, Note_on_c, 9, 54, 0
2, 95760, Note_on_c, 9, 54, 80
2, 95879, Note_on_c, 9, 54, 0
2, 95880, Note_on_c, 9, 54, 80
2, 95999, Note_on_c, 9, 54, 0
2, 96000, Note_on_c, 9, 54, 100
2, 96119, Note_on_c, 9, 54, 0
2, 96120, Note_on_c, 9, 54, 80
2, 96239, Note_on_c, 9, 54, 0
2, 96240, Note_on_c, 9, 54, 80
2, 96359, Note_on_c, 9, 54, 0
2, 96360, Note_on_c, 9, 54, 80
2, 96479, Note_on_c, 9, 54, 0
2, 96480, Note_on_c, 9, 54, 100
2, 96599, Note_on_c, 9, 54, 0
2, 96600, Note_on_c, 9, 54, 80
2, 96719, Note_on_c, 9, 54, 0
2, 96720, Note_on_c, 9, 54, 80
2, 96839, Note_on_c, 9, 54, 0
2, 96840, Note_on_c, 9, 54, 80
2, 96959, Note_on_c, 9, 54, 0
2, 96960, Note_on_c, 9, 54, 100
2, 97079, Note_on_c, 9, 54, 0
2, 97080, Note_on_c, 9, 54, 80
2, 97199, Note_on_c, 9, 54, 0
2, 97200, Note_on_c, 9, 54, 80
2, 97319, Note_on_c, 9, 54, 0
2, 97320, Note_on_c, 9, 54, 80
2, 97439, Note_on_c, 9, 54, 0
2, 97440, Note_on_c, 9, 54, 100
2, 97559, Note_on_c, 9, 54, 0
2, 97560, Note_on_c, 9, 54, 80
2, 97679, Note_on_c, 9, 54, 0
2, 97680, Note_on_c, 9, 54, 80
2, 97799, Note_on_c, 9, 54, 0
2, 97800, Note_on_c, 9, 54, 80
2, 97919, Note_on_c, 9, 54, 0
2, 97920, Note_on_c, 9, 54, 100
2, 98039, Note_on_c, 9, 54, 0
2, 98040, Note_on_c, 9, 54, 80
2, 98159, Note_on_c, 9, 54, 0
2, 98160, Note_on_c, 9, 54, 80
2, 98279, Note_on_c, 9, 54, 0
2, 98280, Note_on_c, 9, 54, 80
2, 98399, Note_on_c, 9, 54, 0
2, 98400, Note_on_c, 9, 54, 100
2, 98519, Note_on_c, 9, 54, 0
2, 98520, Note_on_c, 9, 54, 80
2, 98639, Note_on_c, 9, 54, 0
2, 98640, Note_on_c, 9, 54, 80
2, 98759, Note_on_c, 9, 54, 0
2, 98760, Note_on_c, 9, 54, 80
2, 98879, Note_on_c, 9, 54, 0
2, 98880, Note_on_c, 9, 54, 100
2, 98999, Note_on_c, 9, 54, 0
2, 99000, Note_on_c, 9, 54, 80
2, 99119, Note_on_c, 9, 54, 0
2, 99120, Note_on_c, 9, 54, 80
2, 99239, Note_on_c, 9, 54, 0
2, 99240, Note_on_c, 9, 54, 80
2, 99359, Note_on_c, 9, 54, 0
2, 99360, Note_on_c, 9, 54, 100
2, 99479, Note_on_c, 9, 54, 0
2, 99480, Note_on_c, 9, 54, 80
2, 99599, Note_on_c, 9, 54, 0
2, 99600, Note_on_c, 9, 54, 80
2, 99719, Note_on_c, 9, 54, 0
2, 99720, Note_on_c, 9, 54, 80
2, 99839, Note_on_c, 9, 54, 0
2, 99840, Note_on_c, 9, 54, 100
2, 99959, Note_on_c, 9, 54, 0
2, 99960, Note_on_c, 9, 54, 80
2, 100079, Note_on_c, 9, 54, 0
2, 100080, Note_on_c, 9, 54, 80
2, 100199, Note_on_c, 9, 54, 0
2, 100200, Note_on_c, 9, 54, 80
2, 100319, Note_on_c, 9, 54, 0
2, 100320, Note_on_c, 9, 54, 100
2, 100439, Note_on_c, 9, 54, 0
2, 100440, Note_on_c, 9, 54, 80
2, 100559, Note_on_c, 9, 54, 0
2, 100560, Note_on_c, 9, 54, 80
2, 100679, Note_on_c, 9, 54, 0
2, 100680, Note_on_c, 9, 54, 80
2, 100799, Note_on_c, 9, 54, 0
2, 100800, Note_on_c, 9, 54, 100
2, 100919, Note_on_c, 9, 54, 0
2, 100920, Note_on_c, 9, 54, 80
2, 101039, Note_on_c, 9, 54, 0
2, 101040, Note_on_c, 9, 54, 80
2, 101159, Note_on_c, 9, 54, 0
2, 101160, Note_on_c, 9, 54, 80
2, 101279, Note_on_c, 9, 54, 0
2, 101280, Note_on_c, 9, 54, 100
2, 101399, Note_on_c, 9, 54, 0
2, 101400, Note_on_c, 9, 54, 80
2, 101519, Note_on_c, 9, 54, 0
2, 101520, Note_on_c, 9, 54, 80
2, 101639, Note_on_c, 9, 54, 0
2, 101640, Note_on_c, 9, 54, 80
2, 101759, Note_on_c, 9, 54, 0
2, 101760, Note_on_c, 9, 54, 100
2, 101879, Note_on_c, 9, 54, 0
2, 101880, Note_on_c, 9, 54, 80
2, 101999, Note_on_c, 9, 54, 0
2, 102000, Note_on_c, 9, 54, 80
2, 102119, Note_on_c, 9, 54, 0
2, 102120, Note_on_c, 9, 54, 80
2, 102239, Note_on_c, 9, 54, 0
2, 102240, Note_on_c, 9, 54, 100
2, 102359, Note_on_c, 9, 54, 0
2, 102360, Note_on_c, 9, 54, 80
2, 102479, Note_on_c, 9, 54, 0
2, 102480, Note_on_c, 9, 54, 80
2, 102599, Note_on_c, 9, 54, 0
2, 102600, Note_on_c, 9, 54, 80
2, 102719, Note_on_c, 9, 54, 0
2, 102720, Note_on_c, 9, 54, 100
2, 102839, Note_on_c, 9, 54, 0
2, 102840, Note_on_c, 9, 54, 80
2, 102959, Note_on_c, 9, 54, 0
2, 102960, Note_on_c, 9, 54, 80
2, 103079, Note_on_c, 9, 54, 0
2, 103080, Note_on_c, 9, 54, 80
2, 103199, Note_on_c, 9, 54, 0
2, 103200, Note_on_c, 9, 54, 100
2, 103319, Note_on_c, 9, 54, 0
2, 103320, Note_on_c, 9, 54, 80
2, 103439, Note_on_c, 9, 54, 0
2, 103440, Note_on_c, 9, 54, 80
2, 103559, Note_on_c, 9, 54, 0
2, 103560, Note_on_c, 9, 54, 80
2, 103679, Note_on_c, 9, 54, 0
2, 103680, Note_on_c, 9, 54, 100
2, 103799, Note_on_c, 9, 54, 0
2, 103800, Note_on_c, 9, 54, 80
2, 103919, Note_on_c, 9, 54, 0
2, 103920, Note_on_c, 9, 54, 80
2, 104039, Note_on_c, 9, 54, 0
2, 104040, Note_on_c, 9, 54, 80
2, 104159, Note_on_c, 9, 54, 0
2, 104160, Note_on_c, 9, 54, 100
2, 104279, Note_on_c, 9, 54, 0
2, 104280, Note_on_c, 9, 54, 80
2, 104399, Note_on_c, 9, 54, 0
2, 104400, Note_on_c, 9, 54, 80
2, 104519, Note_on_c, 9, 54, 0
2, 104520, Note_on_c, 9, 54, 80
2, 104639, Note_on_c, 9, 54, 0
2, 104640, Note_on_c, 9, 54, 100
2, 104759, Note_on_c, 9, 54, 0
2, 104760, Note_on_c, 9, 54, 80
2, 104879, Note_on_c, 9, 54, 0
2, 104880, Note_on_c, 9, 54, 80
2, 104999, Note_on_c, 9, 54, 0
2, 105000, Note_on_c, 9, 54, 80
2, 105119, Note_on_c, 9, 54, 0
2, 105120, Note_on_c, 9, 54, 100
2, 105239, Note_on_c, 9, 54, 0
2, 105240, Note_on_c, 9, 54, 80
2, 105359, Note_on_c, 9, 54, 0
2, 105360, Note_on_c, 9, 54, 80
2, 105479, Note_on_c, 9, 54, 0
2, 105480, Note_on_c, 9, 54, 80
2, 105599, Note_on_c, 9, 54, 0
2, 105600, Note_on_c, 9, 54, 100
2, 105719, Note_on_c, 9, 54, 0
2, 105720, Note_on_c, 9, 54, 80
2, 105839, Note_on_c, 9, 54, 0
2, 105840, Note_on_c, 9, 54, 80
2, 105959, Note_on_c, 9, 54, 0
2, 105960, Note_on_c, 9, 54, 80
2, 106079, Note_on_c, 9, 54, 0
2, 106080, Note_on_c, 9, 54, 100
2, 106199, Note_on_c, 9, 54, 0
2, 106200, Note_on_c, 9, 54, 80
2, 106319, Note_on_c, 9, 54, 0
2, 106320, Note_on_c, 9, 54, 80
2, 106439, Note_on_c, 9, 54, 0
2, 106440, Note_on_c, 9, 54, 80
2, 106559, Note_on_c, 9, 54, 0
2, 106560, Note_on_c, 9, 54, 100
2, 106679, Note_on_c, 9, 54, 0
2, 106680, Note_on_c, 9, 54, 80
2, 106799, Note_on_c, 9, 54, 0
2, 106800, Note_on_c, 9, 54, 80
2, 106919, Note_on_c, 9, 54, 0
2, 106920, Note_on_c, 9, 54, 80
2, 107039, Note_on_c, 9, 54, 0
2, 107040, Note_on_c, 9, 54, 100
2, 107159, Note_on_c, 9, 54, 0
2, 107160, Note_on_c, 9, 54, 80
2, 107279, Note_on_c, 9, 54, 0
2, 107280, Note_on_c, 9, 54, 80
2, 107399, Note_on_c, 9, 54, 0
2, 107400, Note_on_c, 9, 54, 80
2, 107519, Note_on_c, 9, 54, 0
2, 107520, Note_on_c, 9, 54, 100
2, 107639, Note_on_c, 9, 54, 0
2, 107640, Note_on_c, 9, 54, 80
2, 107759, Note_on_c, 9, 54, 0
2, 107760, Note_on_c, 9, 54, 80
2, 107879, Note_on_c, 9, 54, 0
2, 107880, Note_on_c, 9, 54, 80
2, 107999, Note_on_c, 9, 54, 0
2, 108000, Note_on_c, 9, 54, 100
2, 108119, Note_on_c, 9, 54, 0
2, 108120, Note_on_c, 9, 54, 80
2, 108239, Note_on_c, 9, 54, 0
2, 108240, Note_on_c, 9, 54, 80
2, 108359, Note_on_c, 9, 54, 0
2, 108360, Note_on_c, 9, 54, 80
2, 108479, Note_on_c, 9, 54, 0
2, 108480, Note_on_c, 9, 54, 100
2, 108599, Note_on_c, 9, 54, 0
2, 108600, Note_on_c, 9, 54, 80
2, 108719, Note_on_c, 9, 54, 0
2, 108720, Note_on_c, 9, 54, 80
2, 108839, Note_on_c, 9, 54, 0
2, 108840, Note_on_c, 9, 54, 80
2, 108959, Note_on_c, 9, 54, 0
2, 108960, Note_on_c, 9, 54, 100
2, 109079, Note_on_c, 9, 54, 0
2, 109080, Note_on_c, 9, 54, 80
2, 109199, Note_on_c, 9, 54, 0
2, 109200, Note_on_c, 9, 54, 80
2, 109319, Note_on_c, 9, 54, 0
2, 109320, Note_on_c, 9, 54, 80
2, 109439, Note_on_c, 9, 54, 0
2, 109440, Note_on_c, 9, 54, 100
2, 109559, Note_on_c, 9, 54, 0
2, 109560, Note_on_c, 9, 54, 80
2, 109679, Note_on_c, 9, 54, 0
2, 109680, Note_on_c, 9, 54, 80
2, 109799, Note_on_c, 9, 54, 0
2, 109800, Note_on_c, 9, 54, 80
2, 109919, Note_on_c, 9, 54, 0
2, 109920, Note_on_c, 9, 54, 100
2, 110039, Note_on_c, 9, 54, 0
2, 110040, Note_on_c, 9, 54, 80
2, 110159, Note_on_c, 9, 54, 0
2, 110160, Note_on_c, 9, 54, 80
2, 110279, Note_on_c, 9, 54, 0
2, 110280, Note_on_c, 9, 54, 80
2, 110399, Note_on_c, 9, 54, 0
2, 110400, Note_on_c, 9, 54, 100
2, 110519, Note_on_c, 9, 54, 0
2, 110520, Note_on_c, 9, 54, 80
2, 110639, Note_on_c, 9, 54, 0
2, 110640, Note_on_c, 9, 54, 80
2, 110759, Note_on_c, 9, 54, 0
2, 110760, Note_on_c, 9, 54, 80
2, 110879, Note_on_c, 9, 54, 0
2, 110880, Note_on_c, 9, 54, 100
2, 110999, Note_on_c, 9, 54, 0
2, 111000, Note_on_c, 9, 54, 80
2, 111119, Note_on_c, 9, 54, 0
2, 111120, Note_on_c, 9, 54, 80
2, 111239, Note_on_c, 9, 54, 0
2, 111240, Note_on_c, 9, 54, 80
2, 111359, Note_on_c, 9, 54, 0
2, 111360, Note_on_c, 9, 54, 100
2, 111479, Note_on_c, 9, 54, 0
2, 111480, Note_on_c, 9, 54, 80
2, 111599, Note_on_c, 9, 54, 0
2, 111600, Note_on_c, 9, 54, 80
2, 111719, Note_on_c, 9, 54, 0
2, 111720, Note_on_c, 9, 54, 80
2, 111839, Note_on_c, 9, 54, 0
2, 111840, Note_on_c, 9, 54, 100
2, 111959, Note_on_c, 9, 54, 0
2, 111960, Note_on_c, 9, 54, 80
2, 112079, Note_on_c, 9, 54, 0
2, 112080, Note_on_c, 9, 54, 80
2, 112199, Note_on_c, 9, 54, 0
2, 112200, Note_on_c, 9, 54, 80
2, 112319, Note_on_c, 9, 54, 0
2, 112320, Note_on_c, 9, 54, 100
2, 112439, Note_on_c, 9, 54, 0
2, 112440, Note_on_c, 9, 54, 80
2, 112559, Note_on_c, 9, 54, 0
2, 112560, Note_on_c, 9, 54, 80
2, 112679, Note_on_c, 9, 54, 0
2, 112680, Note_on_c, 9, 54, 80
2, 112799, Note_on_c, 9, 54, 0
2, 112800, Note_on_c, 9, 54, 100
2, 112919, Note_on_c, 9, 54, 0
2, 112920, Note_on_c, 9, 54, 80
2, 113039, Note_on_c, 9, 54, 0
2, 113040, Note_on_c, 9, 54, 80
2, 113159, Note_on_c, 9, 54, 0
2, 113160, Note_on_c, 9, 54, 80
2, 113279, Note_on_c, 9, 54, 0
2, 113280, Note_on_c, 9, 54, 100
2, 113399, Note_on_c, 9, 54, 0
2, 113400, Note_on_c, 9, 54, 80
2, 113519, Note_on_c, 9, 54, 0
2, 113520, Note_on_c, 9, 54, 80
2, 113639, Note_on_c, 9, 54, 0
2, 113640, Note_on_c, 9, 54, 80
2, 113759, Note_on_c, 9, 54, 0
2, 113760, Note_on_c, 9, 54, 100
2, 113879, Note_on_c, 9, 54, 0
2, 113880, Note_on_c, 9, 54, 80
2, 113999, Note_on_c, 9, 54, 0
2, 114000, Note_on_c, 9, 54, 80
2, 114119, Note_on_c, 9, 54, 0
2, 114120, Note_on_c, 9, 54, 80
2, 114239, Note_on_c, 9, 54, 0
2, 114240, Note_on_c, 9, 54, 100
2, 114359, Note_on_c, 9, 54, 0
2, 114360, Note_on_c, 9, 54, 80
2, 114479, Note_on_c, 9, 54, 0
2, 114480, Note_on_c, 9, 54, 80
2, 114599, Note_on_c, 9, 54, 0
2, 114600, Note_on_c, 9, 54, 80
2, 114719, Note_on_c, 9, 54, 0
2, 114720, Note_on_c, 9, 54, 100
2, 114839, Note_on_c, 9, 54, 0
2, 114840, Note_on_c, 9, 54, 80
2, 114959, Note_on_c, 9, 54, 0
2, 114960, Note_on_c, 9, 54, 80
2, 115079, Note_on_c, 9, 54, 0
2, 115080, Note_on_c, 9, 54, 80
2, 115199, Note_on_c, 9, 54, 0
2, 115200, Note_on_c, 9, 54, 100
2, 115319, Note_on_c, 9, 54, 0
2, 115320, Note_on_c, 9, 54, 80
2, 115439, Note_on_c, 9, 54, 0
2, 115440, Note_on_c, 9, 54, 80
2, 115559, Note_on_c, 9, 54, 0
2, 115560, Note_on_c, 9, 54, 80
2, 115679, Note_on_c, 9, 54, 0
2, 115680, Note_on_c, 9, 54, 100
2, 115799, Note_on_c, 9, 54, 0
2, 115800, Note_on_c, 9, 54, 80
2, 115919, Note_on_c, 9, 54, 0
2, 115920, Note_on_c, 9, 54, 80
2, 116039, Note_on_c, 9, 54, 0
2, 116040, Note_on_c, 9, 54, 80
2, 116159, Note_on_c, 9, 54, 0
2, 116160, Note_on_c, 9, 54, 100
2, 116279, Note_on_c, 9, 54, 0
2, 116280, Note_on_c, 9, 54, 80
2, 116399, Note_on_c, 9, 54, 0
2, 116400, Note_on_c, 9, 54, 80
2, 116519, Note_on_c, 9, 54, 0
2, 116520, Note_on_c, 9, 54, 80
2, 116639, Note_on_c, 9, 54, 0
2, 116640, Note_on_c, 9, 54, 100
2, 116759, Note_on_c, 9, 54, 0
2, 116760, Note_on_c, 9, 54, 80
2, 116879, Note_on_c, 9, 54, 0
2, 116880, Note_on_c, 9, 54, 80
2, 116999, Note_on_c, 9, 54, 0
2, 117000, Note_on_c, 9, 54, 80
2, 117119, Note_on_c, 9, 54, 0
2, 117120, Note_on_c, 9, 54, 100
2, 117239, Note_on_c, 9, 54, 0
2, 117240, Note_on_c, 9, 54, 80
2, 117359, Note_on_c, 9, 54, 0
2, 117360, Note_on_c, 9, 54, 80
2, 117479, Note_on_c, 9, 54, 0
2, 117480, Note_on_c, 9, 54, 80
2, 117599, Note_on_c, 9, 54, 0
2, 117600, Note_on_c, 9, 54, 100
2, 117719, Note_on_c, 9, 54, 0
2, 117720, Note_on_c, 9, 54, 80
2, 117839, Note_on_c, 9, 54, 0
2, 117840, Note_on_c, 9, 54, 80
2, 117959, Note_on_c, 9, 54, 0
2, 117960, Note_on_c, 9, 54, 80
2, 118079, Note_on_c, 9, 54, 0
2, 118080, Note_on_c, 9, 54, 100
2, 118199, Note_on_c, 9, 54, 0
2, 118200, Note_on_c, 9, 54, 80
2, 118319, Note_on_c, 9, 54, 0
2, 118320, Note_on_c, 9, 54, 80
2, 118439, Note_on_c, 9, 54, 0
2, 118440, Note_on_c, 9, 54, 80
2, 118559, Note_on_c, 9, 54, 0
2, 118560, Note_on_c, 9, 54, 100
2, 118679, Note_on_c, 9, 54, 0
2, 118680, Note_on_c, 9, 54, 80
2, 118799, Note_on_c, 9, 54, 0
2, 118800, Note_on_c, 9, 54, 80
2, 118919, Note_on_c, 9, 54, 0
2, 118920, Note_on_c, 9, 54, 80
2, 119039, Note_on_c, 9, 54, 0
2, 119040, Note_on_c, 9, 54, 100
2, 119159, Note_on_c, 9, 54, 0
2, 119160, Note_on_c, 9, 54, 80
2, 119279, Note_on_c, 9, 54, 0
2, 119280, Note_on_c, 9, 54, 80
2, 119399, Note_on_c, 9, 54, 0
2, 119400, Note_on_c, 9, 54, 80
2, 119519, Note_on_c, 9, 54, 0
2, 119520, Note_on_c, 9, 54, 100
2, 119639, Note_on_c, 9, 54, 0
2, 119640, Note_on_c, 9, 54, 80
2, 119759, Note_on_c, 9, 54, 0
2, 119760, Note_on_c, 9, 54, 80
2, 119879, Note_on_c, 9, 54, 0
2, 119880, Note_on_c, 9, 54, 80
2, 119999, Note_on_c, 9, 54, 0
2, 120000, Note_on_c, 9, 54, 100
2, 120119, Note_on_c, 9, 54, 0
2, 120120, Note_on_c, 9, 54, 80
2, 120239, Note_on_c, 9, 54, 0
2, 120240, Note_on_c, 9, 54, 80
2, 120359, Note_on_c, 9, 54, 0
2, 120360, Note_on_c, 9, 54, 80
2, 120479, Note_on_c, 9, 54, 0
2, 120480, Note_on_c, 9, 54, 100
2, 120599, Note_on_c, 9, 54, 0
2, 120600, Note_on_c, 9, 54, 80
2, 120719, Note_on_c, 9, 54, 0
2, 120720, Note_on_c, 9, 54, 80
2, 120839, Note_on_c, 9, 54, 0
2, 120840, Note_on_c, 9, 54, 80
2, 120959, Note_on_c, 9, 54, 0
2, 120960, Note_on_c, 9, 54, 100
2, 121079, Note_on_c, 9, 54, 0
2, 121080, Note_on_c, 9, 54, 80
2, 121199, Note_on_c, 9, 54, 0
2, 121200, Note_on_c, 9, 54, 80
2, 121319, Note_on_c, 9, 54, 0
2, 121320, Note_on_c, 9, 54, 80
2, 121439, Note_on_c, 9, 54, 0
2, 121440, Note_on_c, 9, 54, 100
2, 121559, Note_on_c, 9, 54, 0
2, 121560, Note_on_c, 9, 54, 80
2, 121679, Note_on_c, 9, 54, 0
2, 121680, Note_on_c, 9, 54, 80
2, 121799, Note_on_c, 9, 54, 0
2, 121800, Note_on_c, 9, 54, 80
2, 121919, Note_on_c, 9, 54, 0
2, 121920, Note_on_c, 9, 54, 100
2, 122039, Note_on_c, 9, 54, 0
2, 122040, Note_on_c, 9, 54, 80
2, 122159, Note_on_c, 9, 54, 0
2, 122160, Note_on_c, 9, 54, 80
2, 122279, Note_on_c, 9, 54, 0
2, 122280, Note_on_c, 9, 54, 80
2, 122399, Note_on_c, 9, 54, 0
2, 122400, Note_on_c, 9, 54, 100
2, 122519, Note_on_c, 9, 54, 0
2, 122520, Note_on_c, 9, 54, 80
2, 122639, Note_on_c, 9, 54, 0
2, 122640, Note_on_c, 9, 54, 80
2, 122759, Note_on_c, 9, 54, 0
2, 122760, Note_on_c, 9, 54, 80
2, 122879, Note_on_c, 9, 54, 0
2, 122880, Note_on_c, 9, 54, 100
2, 122999, Note_on_c, 9, 54, 0
2, 123000, Note_on_c, 9, 54, 80
2, 123119, Note_on_c, 9, 54, 0
2, 123120, Note_on_c, 9, 54, 80
2, 123239, Note_on_c, 9, 54, 0
2, 123240, Note_on_c, 9, 54, 80
2, 123359, Note_on_c, 9, 54, 0
2, 123360, Note_on_c, 9, 54, 100
2, 123479, Note_on_c, 9, 54, 0
2, 123480, Note_on_c, 9, 54, 80
2, 123599, Note_on_c, 9, 54, 0
2, 123600, Note_on_c, 9, 54, 80
2, 123719, Note_on_c, 9, 54, 0
2, 123720, Note_on_c, 9, 54, 80
2, 123839, Note_on_c, 9, 54, 0
2, 123840, Note_on_c, 9, 54, 100
2, 123959, Note_on_c, 9, 54, 0
2, 123960, Note_on_c, 9, 54, 80
2, 124079, Note_on_c, 9, 54, 0
2, 124080, Note_on_c, 9, 54, 80
2, 124199, Note_on_c, 9, 54, 0
2, 124200, Note_on_c, 9, 54, 80
2, 124319, Note_on_c, 9, 54, 0
2, 124320, Note_on_c, 9, 54, 100
2, 124439, Note_on_c, 9, 54, 0
2, 124440, Note_on_c, 9, 54, 80
2, 124559, Note_on_c, 9, 54, 0
2, 124560, Note_on_c, 9, 54, 80
2, 124679, Note_on_c, 9, 54, 0
2, 124680, Note_on_c, 9, 54, 80
2, 124799, Note_on_c, 9, 54, 0
2, 124800, Note_on_c, 9, 54, 100
2, 124919, Note_on_c, 9, 54, 0
2, 124920, Note_on_c, 9, 54, 80
2, 125039, Note_on_c, 9, 54, 0
2, 125040, Note_on_c, 9, 54, 80
2, 125159, Note_on_c, 9, 54, 0
2, 125160, Note_on_c, 9, 54, 80
2, 125279, Note_on_c, 9, 54, 0
2, 125280, Note_on_c, 9, 54, 100
2, 125399, Note_on_c, 9, 54, 0
2, 125400, Note_on_c, 9, 54, 80
2, 125519, Note_on_c, 9, 54, 0
2, 125520, Note_on_c, 9, 54, 80
2, 125639, Note_on_c, 9, 54, 0
2, 125640, Note_on_c, 9, 54, 80
2, 125759, Note_on_c, 9, 54, 0
2, 125760, Note_on_c, 9, 54, 100
2, 125879, Note_on_c, 9, 54, 0
2, 125880, Note_on_c, 9, 54, 80
2, 125999, Note_on_c, 9, 54, 0
2, 126000, Note_on_c, 9, 54, 80
2, 126119, Note_on_c, 9, 54, 0
2, 126120, Note_on_c, 9, 54, 80
2, 126239, Note_on_c, 9, 54, 0
2, 126240, Note_on_c, 9, 54, 100
2, 126359, Note_on_c, 9, 54, 0
2, 126360, Note_on_c, 9, 54, 80
2, 126479, Note_on_c, 9, 54, 0
2, 126480, Note_on_c, 9, 54, 80
2, 126599, Note_on_c, 9, 54, 0
2, 126600, Note_on_c, 9, 54, 80
2, 126719, Note_on_c, 9, 54, 0
2, 126720, Note_on_c, 9, 54, 100
2, 126839, Note_on_c, 9, 54, 0
2, 126840, Note_on_c, 9, 54, 80
2, 126959, Note_on_c, 9, 54, 0
2, 126960, Note_on_c, 9, 54, 80
2, 127079, Note_on_c, 9, 54, 0
2, 127080, Note_on_c, 9, 54, 80
2, 127199, Note_on_c, 9, 54, 0
2, 127200, Note_on_c, 9, 54, 100
2, 127319, Note_on_c, 9, 54, 0
2, 127320, Note_on_c, 9, 54, 80
2, 127439, Note_on_c, 9, 54, 0
2, 127440, Note_on_c, 9, 54, 80
2, 127559, Note_on_c, 9, 54, 0
2, 127560, Note_on_c, 9, 54, 80
2, 127679, Note_on_c, 9, 54, 0
2, 127680, Note_on_c, 9, 54, 100
2, 127799, Note_on_c, 9, 54, 0
2, 127800, Note_on_c, 9, 54, 80
2, 127919, Note_on_c, 9, 54, 0
2, 127920, Note_on_c, 9, 54, 80
2, 128039, Note_on_c, 9, 54, 0
2, 128040, Note_on_c, 9, 54, 80
2, 128159, Note_on_c, 9, 54, 0
2, 128160, Note_on_c, 9, 54, 100
2, 128279, Note_on_c, 9, 54, 0
2, 128280, Note_on_c, 9, 54, 80
2, 128399, Note_on_c, 9, 54, 0
2, 128400, Note_on_c, 9, 54, 80
2, 128519, Note_on_c, 9, 54, 0
2, 128520, Note_on_c, 9, 54, 80
2, 128639, Note_on_c, 9, 54, 0
2, 128640, Note_on_c, 9, 54, 100
2, 128759, Note_on_c, 9, 54, 0
2, 128760, Note_on_c, 9, 54, 80
2, 128879, Note_on_c, 9, 54, 0
2, 128880, Note_on_c, 9, 54, 80
2, 128999, Note_on_c, 9, 54, 0
2, 129000, Note_on_c, 9, 54, 80
2, 129119, Note_on_c, 9, 54, 0
2, 129120, Note_on_c, 9, 54, 100
2, 129239, Note_on_c, 9, 54, 0
2, 129240, Note_on_c, 9, 54, 80
2, 129359, Note_on_c, 9, 54, 0
2, 129360, Note_on_c, 9, 54, 80
2, 129479, Note_on_c, 9, 54, 0
2, 129480, Note_on_c, 9, 54, 80
2, 129599, Note_on_c, 9, 54, 0
2, 129600, Note_on_c, 9, 54, 100
2, 129719, Note_on_c, 9, 54, 0
2, 129720, Note_on_c, 9, 54, 80
2, 129839, Note_on_c, 9, 54, 0
2, 129840, Note_on_c, 9, 54, 80
2, 129959, Note_on_c, 9, 54, 0
2, 129960, Note_on_c, 9, 54, 80
2, 130079, Note_on_c, 9, 54, 0
2, 130080, Note_on_c, 9, 54, 100
2, 130199, Note_on_c, 9, 54, 0
2, 130200, Note_on_c, 9, 54, 80
2, 130319, Note_on_c, 9, 54, 0
2, 130320, Note_on_c, 9, 54, 80
2, 130439, Note_on_c, 9, 54, 0
2, 130440, Note_on_c, 9, 54, 80
2, 130559, Note_on_c, 9, 54, 0
2, 130560, Note_on_c, 9, 54, 100
2, 130679, Note_on_c, 9, 54, 0
2, 130680, Note_on_c, 9, 54, 80
2, 130799, Note_on_c, 9, 54, 0
2, 130800, Note_on_c, 9, 54, 80
2, 130919, Note_on_c, 9, 54, 0
2, 130920, Note_on_c, 9, 54, 80
2, 131039, Note_on_c, 9, 54, 0
2, 131040, Note_on_c, 9, 54, 100
2, 131159, Note_on_c, 9, 54, 0
2, 131160, Note_on_c, 9, 54, 80
2, 131279, Note_on_c, 9, 54, 0
2, 131280, Note_on_c, 9, 54, 80
2, 131399, Note_on_c, 9, 54, 0
2, 131400, Note_on_c, 9, 54, 80
2, 131519, Note_on_c, 9, 54, 0
2, 131520, Note_on_c, 9, 54, 100
2, 131639, Note_on_c, 9, 54, 0
2, 131640, Note_on_c, 9, 54, 80
2, 131759, Note_on_c, 9, 54, 0
2, 131760, Note_on_c, 9, 54, 80
2, 131879, Note_on_c, 9, 54, 0
2, 131880, Note_on_c, 9, 54, 80
2, 131999, Note_on_c, 9, 54, 0
2, 132000, Note_on_c, 9, 54, 100
2, 132119, Note_on_c, 9, 54, 0
2, 132120, Note_on_c, 9, 54, 80
2, 132239, Note_on_c, 9, 54, 0
2, 132240, Note_on_c, 9, 54, 80
2, 132359, Note_on_c, 9, 54, 0
2, 132360, Note_on_c, 9, 54, 80
2, 132479, Note_on_c, 9, 54, 0
2, 132480, Note_on_c, 9, 54, 100
2, 132599, Note_on_c, 9, 54, 0
2, 132600, Note_on_c, 9, 54, 80
2, 132719, Note_on_c, 9, 54, 0
2, 132720, Note_on_c, 9, 54, 80
2, 132839, Note_on_c, 9, 54, 0
2, 132840, Note_on_c, 9, 54, 80
2, 132959, Note_on_c, 9, 54, 0
2, 132960, Note_on_c, 9, 54, 100
2, 133079, Note_on_c, 9, 54, 0
2, 133080, Note_on_c, 9, 54, 80
2, 133199, Note_on_c, 9, 54, 0
2, 133200, Note_on_c, 9, 54, 80
2, 133319, Note_on_c, 9, 54, 0
2, 133320, Note_on_c, 9, 54, 80
2, 133439, Note_on_c, 9, 54, 0
2, 133440, Note_on_c, 9, 54, 100
2, 133559, Note_on_c, 9, 54, 0
2, 133560, Note_on_c, 9, 54, 80
2, 133679, Note_on_c, 9, 54, 0
2, 133680, Note_on_c, 9, 54, 80
2, 133799, Note_on_c, 9, 54, 0
2, 133800, Note_on_c, 9, 54, 80
2, 133919, Note_on_c, 9, 54, 0
2, 133920, Note_on_c, 9, 54, 100
2, 134039, Note_on_c, 9, 54, 0
2, 134040, Note_on_c, 9, 54, 80
2, 134159, Note_on_c, 9, 54, 0
2, 134160, Note_on_c, 9, 54, 80
2, 134279, Note_on_c, 9, 54, 0
2, 134280, Note_on_c, 9, 54, 80
2, 134399, Note_on_c, 9, 54, 0
2, 134400, Note_on_c, 9, 54, 100
2, 134519, Note_on_c, 9, 54, 0
2, 134520, Note_on_c, 9, 54, 80
2, 134639, Note_on_c, 9, 54, 0
2, 134640, Note_on_c, 9, 54, 80
2, 134759, Note_on_c, 9, 54, 0
2, 134760, Note_on_c, 9, 54, 80
2, 134879, Note_on_c, 9, 54, 0
2, 134880, Note_on_c, 9, 54, 100
2, 134999, Note_on_c, 9, 54, 0
2, 135000, Note_on_c, 9, 54, 80
2, 135119, Note_on_c, 9, 54, 0
2, 135120, Note_on_c, 9, 54, 80
2, 135239, Note_on_c, 9, 54, 0
2, 135240, Note_on_c, 9, 54, 80
2, 135359, Note_on_c, 9, 54, 0
2, 135360, Note_on_c, 9, 54, 100
2, 135479, Note_on_c, 9, 54, 0
2, 135480, Note_on_c, 9, 54, 80
2, 135599, Note_on_c, 9, 54, 0
2, 135600, Note_on_c, 9, 54, 80
2, 135719, Note_on_c, 9, 54, 0
2, 135720, Note_on_c, 9, 54, 80
2, 135839, Note_on_c, 9, 54, 0
2, 135840, Note_on_c, 9, 54, 100
2, 135959, Note_on_c, 9, 54, 0
2, 135960, Note_on_c, 9, 54, 80
2, 136079, Note_on_c, 9, 54, 0
2, 136080, Note_on_c, 9, 54, 80
2, 136199, Note_on_c, 9, 54, 0
2, 136200, Note_on_c, 9, 54, 80
2, 136319, Note_on_c, 9, 54, 0
2, 136320, Note_on_c, 9, 54, 100
2, 136439, Note_on_c, 9, 54, 0
2, 136440, Note_on_c, 9, 54, 80
2, 136559, Note_on_c, 9, 54, 0
2, 136560, Note_on_c, 9, 54, 80
2, 136679, Note_on_c, 9, 54, 0
2, 136680, Note_on_c, 9, 54, 80
2, 136799, Note_on_c, 9, 54, 0
2, 136800, Note_on_c, 9, 54, 100
2, 136919, Note_on_c, 9, 54, 0
2, 136920, Note_on_c, 9, 54, 80
2, 137039, Note_on_c, 9, 54, 0
2, 137040, Note_on_c, 9, 54, 80
2, 137159, Note_on_c, 9, 54, 0
2, 137160, Note_on_c, 9, 54, 80
2, 137279, Note_on_c, 9, 54, 0
2, 137280, Note_on_c, 9, 54, 100
2, 137399, Note_on_c, 9, 54, 0
2, 137400, Note_on_c, 9, 54, 80
2, 137519, Note_on_c, 9, 54, 0
2, 137520, Note_on_c, 9, 54, 80
2, 137639, Note_on_c, 9, 54, 0
2, 137640, Note_on_c, 9, 54, 80
2, 137759, Note_on_c, 9, 54, 0
2, 137760, Note_on_c, 9, 54, 100
2, 137879, Note_on_c, 9, 54, 0
2, 137880, Note_on_c, 9, 54, 80
2, 137999, Note_on_c, 9, 54, 0
2, 138000, Note_on_c, 9, 54, 80
2, 138119, Note_on_c, 9, 54, 0
2, 138120, Note_on_c, 9, 54, 80
2, 138239, Note_on_c, 9, 54, 0
2, 138240, Note_on_c, 9, 54, 100
2, 138359, Note_on_c, 9, 54, 0
2, 138360, Note_on_c, 9, 54, 80
2, 138479, Note_on_c, 9, 54, 0
2, 138480, Note_on_c, 9, 54, 80
2, 138599, Note_on_c, 9, 54, 0
2, 138600, Note_on_c, 9, 54, 80
2, 138719, Note_on_c, 9, 54, 0
2, 138720, Note_on_c, 9, 54, 100
2, 138839, Note_on_c, 9, 54, 0
2, 138840, Note_on_c, 9, 54, 80
2, 138959, Note_on_c, 9, 54, 0
2, 138960, Note_on_c, 9, 54, 80
2, 139079, Note_on_c, 9, 54, 0
2, 139080, Note_on_c, 9, 54, 80
2, 139199, Note_on_c, 9, 54, 0
2, 139200, Note_on_c, 9, 54, 100
2, 139319, Note_on_c, 9, 54, 0
2, 139320, Note_on_c, 9, 54, 80
2, 139439, Note_on_c, 9, 54, 0
2, 139440, Note_on_c, 9, 54, 80
2, 139559, Note_on_c, 9, 54, 0
2, 139560, Note_on_c, 9, 54, 80
2, 139679, Note_on_c, 9, 54, 0
2, 139680, Note_on_c, 9, 54, 100
2, 139799, Note_on_c, 9, 54, 0
2, 139800, Note_on_c, 9, 54, 80
2, 139919, Note_on_c, 9, 54, 0
2, 139920, Note_on_c, 9, 54, 80
2, 140039, Note_on_c, 9, 54, 0
2, 140040, Note_on_c, 9, 54, 80
2, 140159, Note_on_c, 9, 54, 0
2, 140160, Note_on_c, 9, 54, 100
2, 140279, Note_on_c, 9, 54, 0
2, 140280, Note_on_c, 9, 54, 80
2, 140399, Note_on_c, 9, 54, 0
2, 140400, Note_on_c, 9, 54, 80
2, 140519, Note_on_c, 9, 54, 0
2, 140520, Note_on_c, 9, 54, 80
2, 140639, Note_on_c, 9, 54, 0
2, 140640, Note_on_c, 9, 54, 100
2, 140759, Note_on_c, 9, 54, 0
2, 140760, Note_on_c, 9, 54, 80
2, 140879, Note_on_c, 9, 54, 0
2, 140880, Note_on_c, 9, 54, 80
2, 140999, Note_on_c, 9, 54, 0
2, 141000, Note_on_c, 9, 54, 80
2, 141119, Note_on_c, 9, 54, 0
2, 141120, Note_on_c, 9, 54, 100
2, 141239, Note_on_c, 9, 54, 0
2, 141240, Note_on_c, 9, 54, 80
2, 141359, Note_on_c, 9, 54, 0
2, 141360, Note_on_c, 9, 54, 80
2, 141479, Note_on_c, 9, 54, 0
2, 141480, Note_on_c, 9, 54, 80
2, 141599, Note_on_c, 9, 54, 0
2, 141600, Note_on_c, 9, 54, 100
2, 141719, Note_on_c, 9, 54, 0
2, 141720, Note_on_c, 9, 54, 80
2, 141839, Note_on_c, 9, 54, 0
2, 141840, Note_on_c, 9, 54, 80
2, 141959, Note_on_c, 9, 54, 0
2, 141960, Note_on_c, 9, 54, 80
2, 142079, Note_on_c, 9, 54, 0
2, 142080, Note_on_c, 9, 54, 100
2, 142199, Note_on_c, 9, 54, 0
2, 142200, Note_on_c, 9, 54, 80
2, 142319, Note_on_c, 9, 54, 0
2, 142320, Note_on_c, 9, 54, 80
2, 142439, Note_on_c, 9, 54, 0
2, 142440, Note_on_c, 9, 54, 80
2, 142559, Note_on_c, 9, 54, 0
2, 142560, Note_on_c, 9, 54, 100
2, 142679, Note_on_c, 9, 54, 0
2, 142680, Note_on_c, 9, 54, 80
2, 142799, Note_on_c, 9, 54, 0
2, 142800, Note_on_c, 9, 54, 80
2, 142919, Note_on_c, 9, 54, 0
2, 142920, Note_on_c, 9, 54, 80
2, 143039, Note_on_c, 9, 54, 0
2, 143040, Note_on_c, 9, 54, 100
2, 143159, Note_on_c, 9, 54, 0
2, 143160, Note_on_c, 9, 54, 80
2, 143279, Note_on_c, 9, 54, 0
2, 143280, Note_on_c, 9, 54, 80
2, 143399, Note_on_c, 9, 54, 0
2, 143400, Note_on_c, 9, 54, 80
2, 143519, Note_on_c, 9, 54, 0
2, 143520, Note_on_c, 9, 54, 100
2, 143639, Note_on_c, 9, 54, 0
2, 143640, Note_on_c, 9, 54, 80
2, 143759, Note_on_c, 9, 54, 0
2, 143760, Note_on_c, 9, 54, 80
2, 143879, Note_on_c, 9, 54, 0
2, 143880, Note_on_c, 9, 54, 80
2, 143999, Note_on_c, 9, 54, 0
2, 144000, Note_on_c, 9, 54, 100
2, 144119, Note_on_c, 9, 54, 0
2, 144120, Note_on_c, 9, 54, 79
2, 144239, Note_on_c, 9, 54, 0
2, 144240, Note_on_c, 9, 54, 78
2, 144359, Note_on_c, 9, 54, 0
2, 144360, Note_on_c, 9, 54, 77
2, 144479, Note_on_c, 9, 54, 0
2, 144480, Note_on_c, 9, 54, 95
2, 144599, Note_on_c, 9, 54, 0
2, 144600, Note_on_c, 9, 54, 75
2, 144719, Note_on_c, 9, 54, 0
2, 144720, Note_on_c, 9, 54, 74
2, 144839, Note_on_c, 9, 54, 0
2, 144840, Note_on_c, 9, 54, 73
2, 144959, Note_on_c, 9, 54, 0
2, 144960, Note_on_c, 9, 54, 90
2, 145079, Note_on_c, 9, 54, 0
2, 145080, Note_on_c, 9, 54, 71
2, 145199, Note_on_c, 9, 54, 0
2, 145200, Note_on_c, 9, 54, 70
2, 145319, Note_on_c, 9, 54, 0
2, 145320, Note_on_c, 9, 54, 69
2, 145439, Note_on_c, 9, 54, 0
2, 145440, Note_on_c, 9, 54, 85
2, 145559, Note_on_c, 9, 54, 0
2, 145560, Note_on_c, 9, 54, 67
2, 145679, Note_on_c, 9, 54, 0
2, 145680, Note_on_c, 9, 54, 66
2, 145799, Note_on_c, 9, 54, 0
2, 145800, Note_on_c, 9, 54, 65
2, 145919, Note_on_c, 9, 54, 0
2, 145920, Note_on_c, 9, 54, 80
2, 146039, Note_on_c, 9, 54, 0
2, 146040, Note_on_c, 9, 54, 63
2, 146159, Note_on_c, 9, 54, 0
2, 146160, Note_on_c, 9, 54, 62
2, 146279, Note_on_c, 9, 54, 0
2, 146280, Note_on_c, 9, 54, 61
2, 146399, Note_on_c, 9, 54, 0
2, 146400, Note_on_c, 9, 54, 75
2, 146519, Note_on_c, 9, 54, 0
2, 146520, Note_on_c, 9, 54, 59
2, 146639, Note_on_c, 9, 54, 0
2, 146640, Note_on_c, 9, 54, 58
2, 146759, Note_on_c, 9, 54, 0
2, 146760, Note_on_c, 9, 54, 57
2, 146879, Note_on_c, 9, 54, 0
2, 146880, Note_on_c, 9, 54, 70
2, 146999, Note_on_c, 9, 54, 0
2, 147000, Note_on_c, 9, 54, 55
2, 147119, Note_on_c, 9, 54, 0
2, 147120, Note_on_c, 9, 54, 54
2, 147239, Note_on_c, 9, 54, 0
2, 147240, Note_on_c, 9, 54, 53
2, 147359, Note_on_c, 9, 54, 0
2, 147360, Note_on_c, 9, 54, 65
2, 147479, Note_on_c, 9, 54, 0
2, 147480, Note_on_c, 9, 54, 51
2, 147599, Note_on_c, 9, 54, 0
2, 147600, Note_on_c, 9, 54, 50
2, 147719, Note_on_c, 9, 54, 0
2, 147720, Note_on_c, 9, 54, 49
2, 147839, Note_on_c, 9, 54, 0
2, 147840, Note_on_c, 9, 54, 60
2, 147959, Note_on_c, 9, 54, 0
2, 147960, Note_on_c, 9, 54, 47
2, 148079, Note_on_c, 9, 54, 0
2, 148080, Note_on_c, 9, 54, 46
2, 148199, Note_on_c, 9, 54, 0
2, 148200, Note_on_c, 9, 54, 45
2, 148319, Note_on_c, 9, 54, 0
2, 148320, Note_on_c, 9, 54, 55
2, 148439, Note_on_c, 9, 54, 0
2, 148440, Note_on_c, 9, 54, 43
2, 148559, Note_on_c, 9, 54, 0
2, 148560, Note_on_c, 9, 54, 42
2, 148679, Note_on_c, 9, 54, 0
2, 148680, Note_on_c, 9, 54, 41
2, 148799, Note_on_c, 9, 54, 0
2, 148800, Note_on_c, 9, 54, 50
2, 148919, Note_on_c, 9, 54, 0
2, 148920, Note_on_c, 9, 54, 39
2, 149039, Note_on_c, 9, 54, 0
2, 149040, Note_on_c, 9, 54, 38
2, 149159, Note_on_c, 9, 54, 0
2, 149160, Note_on_c, 9, 54, 37
2, 149279, Note_on_c, 9, 54, 0
2, 149280, Note_on_c, 9, 54, 45
2, 149399, Note_on_c, 9, 54, 0
2, 149400, Note_on_c, 9, 54, 35
2, 149519, Note_on_c, 9, 54, 0
2, 149520, Note_on_c, 9, 54, 34
2, 149639, Note_on_c, 9, 54, 0
2, 149640, Note_on_c, 9, 54, 33
2, 149759, Note_on_c, 9, 54, 0
2, 149760, Note_on_c, 9, 54, 40
2, 149879, Note_on_c, 9, 54, 0
2, 149880, Note_on_c, 9, 54, 31
2, 149999, Note_on_c, 9, 54, 0
2, 150000, Note_on_c, 9, 54, 30
2, 150119, Note_on_c, 9, 54, 0
2, 150120, Note_on_c, 9, 54, 29
2, 150239, Note_on_c, 9, 54, 0
2, 150240, Note_on_c, 9, 54, 35
2, 150359, Note_on_c, 9, 54, 0
2, 150360, Note_on_c, 9, 54, 27
2, 150479, Note_on_c, 9, 54, 0
2, 150480, Note_on_c, 9, 54, 26
2, 150599, Note_on_c, 9, 54, 0
2, 150600, Note_on_c, 9, 54, 25
2, 150719, Note_on_c, 9, 54, 0
2, 150720, Note_on_c, 9, 54, 30
2, 150839, Note_on_c, 9, 54, 0
2, 150840, Note_on_c, 9, 54, 23
2, 150959, Note_on_c, 9, 54, 0
2, 150960, Note_on_c, 9, 54, 22
2, 151079, Note_on_c, 9, 54, 0
2, 151080, Note_on_c, 9, 54, 21
2, 151199, Note_on_c, 9, 54, 0
2, 151200, Note_on_c, 9, 54, 25
2, 151319, Note_on_c, 9, 54, 0
2, 151320, Note_on_c, 9, 54, 19
2, 151439, Note_on_c, 9, 54, 0
2, 151440, Note_on_c, 9, 54, 18
2, 151559, Note_on_c, 9, 54, 0
2, 151560, Note_on_c, 9, 54, 17
2, 151679, Note_on_c, 9, 54, 0
2, 151680, Note_on_c, 9, 54, 20
2, 151799, Note_on_c, 9, 54, 0
2, 151800, Note_on_c, 9, 54, 15
2, 151919, Note_on_c, 9, 54, 0
2, 151920, Note_on_c, 9, 54, 14
2, 152039, Note_on_c, 9, 54, 0
2, 152040, Note_on_c, 9, 54, 13
2, 152159, Note_on_c, 9, 54, 0
2, 152160, Note_on_c, 9, 54, 15
2, 152279, Note_on_c, 9, 54, 0
2, 152280, Note_on_c, 9, 54, 11
2, 152399, Note_on_c, 9, 54, 0
2, 152400, Note_on_c, 9, 54, 10
2, 152519, Note_on_c, 9, 54, 0
2, 152520, Note_on_c, 9, 54, 9
2, 152639, Note_on_c, 9, 54, 0
2, 152640, Note_on_c, 9, 54, 10
2, 152759, Note_on_c, 9, 54, 0
2, 152760, Note_on_c, 9, 54, 7
2, 152879, Note_on_c, 9, 54, 0
2, 152880, Note_on_c, 9, 54, 6
2, 152999, Note_on_c, 9, 54, 0
2, 153000, Note_on_c, 9, 54, 5
2, 153119, Note_on_c, 9, 54, 0
2, 153120, Note_on_c, 9, 54, 5
2, 153239, Note_on_c, 9, 54, 0
2, 153240, Note_on_c, 9, 54, 3
2, 153359, Note_on_c, 9, 54, 0
2, 153360, Note_on_c, 9, 54, 2
2, 153479, Note_on_c, 9, 54, 0
2, 153480, Note_on_c, 9, 54, 1
2, 153599, Note_on_c, 9, 54, 0
2, 153600, End_track
0, 0, End_of_file
