0, 0, Header, 1, 5, 480
1, 0, Start_track
1, 0, Time_signature, 4, 2, 24, 8
1, 0, Key_signature, 0, "major"
1, 0, Tempo, 521739
1, 0, Control_c, 9, 121, 0
1, 0, Program_c, 9, 0
1, 0, Control_c, 9, 7, 100
1, 0, Control_c, 9, 10, 64
1, 0, Control_c, 9, 91, 0
1, 0, Control_c, 9, 93, 0
1, 0, MIDI_port, 0
1, 4320, Note_on_c, 9, 38, 110
1, 4799, Note_on_c, 9, 38, 0
1, 5280, Note_on_c, 9, 38, 110
1, 5759, Note_on_c, 9, 38, 0
1, 6240, Note_on_c, 9, 38, 110
1, 6719, Note_on_c, 9, 38, 0
1, 7200, Note_on_c, 9, 38, 110
1, 7679, Note_on_c, 9, 38, 0
1, 8160, Note_on_c, 9, 38, 110
1, 8639, Note_on_c, 9, 38, 0
1, 9120, Note_on_c, 9, 38, 110
1, 9599, Note_on_c, 9, 38, 0
1, 10080, Note_on_c, 9, 38, 110
1, 10559, Note_on_c, 9, 38, 0
1, 11040, Note_on_c, 9, 38, 110
1, 11519, Note_on_c, 9, 38, 0
1, 12000, Note_on_c, 9, 38, 110
1, 12479, Note_on_c, 9, 38, 0
1, 12960, Note_on_c, 9, 38, 110
1, 13439, Note_on_c, 9, 38, 0
1, 13920, Note_on_c, 9, 38, 110
1, 14399, Note_on_c, 9, 38, 0
1, 14880, Note_on_c, 9, 38, 110
1, 15359, Note_on_c, 9, 38, 0
1, 15840, Note_on_c, 9, 38, 110
1, 16319, Note_on_c, 9, 38, 0
1, 16800, Note_on_c, 9, 38, 110
1, 17279, Note_on_c, 9, 38, 0
1, 17760, Note_on_c, 9, 38, 110
1, 18239, Note_on_c, 9, 38, 0
1, 18720, Note_on_c, 9, 38, 110
1, 19199, Note_on_c, 9, 38, 0
1, 19680, Note_on_c, 9, 38, 110
1, 20159, Note_on_c, 9, 38, 0
1, 20640, Note_on_c, 9, 38, 110
1, 21119, Note_on_c, 9, 38, 0
1, 21600, Note_on_c, 9, 38, 110
1, 22079, Note_on_c, 9, 38, 0
1, 22560, Note_on_c, 9, 38, 110
1, 23039, Note_on_c, 9, 38, 0
1, 23040, Tempo, 526316
1, 23520, Note_on_c, 9, 38, 110
1, 23999, Note_on_c, 9, 38, 0
1, 24480, Note_on_c, 9, 38, 110
1, 24959, Note_on_c, 9, 38, 0
1, 25440, Note_on_c, 9, 38, 110
1, 25919, Note_on_c, 9, 38, 0
1, 26400, Note_on_c, 9, 38, 110
1, 26879, Note_on_c, 9, 38, 0
1, 27360, Note_on_c, 9, 38, 110
1, 27839, Note_on_c, 9, 38, 0
1, 28320, Note_on_c, 9, 38, 110
1, 28799, Note_on_c, 9, 38, 0
1, 29280, Note_on_c, 9, 38, 110
1, 29759, Note_on_c, 9, 38, 0
1, 30240, Note_on_c, 9, 38, 110
1, 30719, Note_on_c, 9, 38, 0
1, 31200, Note_on_c, 9, 38, 110
1, 31679, Note_on_c, 9, 38, 0
1, 32160, Note_on_c, 9, 38, 110
1, 32639, Note_on_c, 9, 38, 0
1, 33120, Note_on_c, 9, 38, 110
1, 33599, Note_on_c, 9, 38, 0
1, 34080, Note_on_c, 9, 38, 110
1, 34559, Note_on_c, 9, 38, 0
1, 35040, Note_on_c, 9, 38, 110
1, 35519, Note_on_c, 9, 38, 0
1, 36000, Note_on_c, 9, 38, 110
1, 36479, Note_on_c, 9, 38, 0
1, 36960, Note_on_c, 9, 38, 110
1, 37439, Note_on_c, 9, 38, 0
1, 37920, Note_on_c, 9, 38, 110
1, 38399, Note_on_c, 9, 38, 0
1, 38880, Note_on_c, 9, 38, 110
1, 39359, Note_on_c, 9, 38, 0
1, 39840, Note_on_c, 9, 38, 110
1, 40319, Note_on_c, 9, 38, 0
1, 40800, Note_on_c, 9, 38, 110
1, 41279, Note_on_c, 9, 38, 0
1, 41760, Note_on_c, 9, 38, 110
1, 42239, Note_on_c, 9, 38, 0
1, 42720, Note_on_c, 9, 38, 110
1, 43199, Note_on_c, 9, 38, 0
1, 43680, Note_on_c, 9, 38, 110
1, 44159, Note_on_c, 9, 38, 0
1, 44640, Note_on_c, 9, 38, 110
1, 45119, Note_on_c, 9, 38, 0
1, 45600, Note_on_c, 9, 38, 110
1, 46079, Note_on_c, 9, 38, 0
1, 46560, Note_on_c, 9, 38, 110
1, 47039, Note_on_c, 9, 38, 0
1, 47520, Note_on_c, 9, 38, 110
1, 47999, Note_on_c, 9, 38, 0
1, 48480, Note_on_c, 9, 38, 110
1, 48959, Note_on_c, 9, 38, 0
1, 49440, Note_on_c, 9, 38, 110
1, 49919, Note_on_c, 9, 38, 0
1, 50400, Note_on_c, 9, 38, 110
1, 50879, Note_on_c, 9, 38, 0
1, 51360, Note_on_c, 9, 38, 110
1, 51839, Note_on_c, 9, 38, 0
1, 52320, Note_on_c, 9, 38, 110
1, 52799, Note_on_c, 9, 38, 0
1, 53280, Note_on_c, 9, 38, 110
1, 53759, Note_on_c, 9, 38, 0
1, 54240, Note_on_c, 9, 38, 110
1, 54719, Note_on_c, 9, 38, 0
1, 55200, Note_on_c, 9, 38, 110
1, 55679, Note_on_c, 9, 38, 0
1, 56160, Note_on_c, 9, 38, 110
1, 56639, Note_on_c, 9, 38, 0
1, 57120, Note_on_c, 9, 38, 110
1, 57599, Note_on_c, 9, 38, 0
1, 58080, Note_on_c, 9, 38, 110
1, 58559, Note_on_c, 9, 38, 0
1, 59040, Note_on_c, 9, 38, 110
1, 59519, Note_on_c, 9, 38, 0
1, 60000, Note_on_c, 9, 38, 110
1, 60479, Note_on_c, 9, 38, 0
1, 60960, Note_on_c, 9, 38, 110
1, 61439, Note_on_c, 9, 38, 0
1, 61920, Note_on_c, 9, 38, 110
1, 62399, Note_on_c, 9, 38, 0
1, 62880, Note_on_c, 9, 38, 110
1, 63359, Note_on_c, 9, 38, 0
1, 63840, Note_on_c, 9, 38, 110
1, 64319, Note_on_c, 9, 38, 0
1, 64800, Note_on_c, 9, 38, 110
1, 65279, Note_on_c, 9, 38, 0
1, 65760, Note_on_c, 9, 38, 110
1, 66239, Note_on_c, 9, 38, 0
1, 66720, Note_on_c, 9, 38, 110
1, 67199, Note_on_c, 9, 38, 0
1, 67680, Note_on_c, 9, 38, 110
1, 68159, Note_on_c, 9, 38, 0
1, 68640, Note_on_c, 9, 38, 110
1, 69119, Note_on_c, 9, 38, 0
1, 69600, Note_on_c, 9, 38, 110
1, 70079, Note_on_c, 9, 38, 0
1, 70560, Note_on_c, 9, 38, 110
1, 71039, Note_on_c, 9, 38, 0
1, 71520, Note_on_c, 9, 38, 110
1, 71999, Note_on_c, 9, 38, 0
1, 72480, Note_on_c, 9, 38, 110
1, 72959, Note_on_c, 9, 38, 0
1, 73440, Note_on_c, 9, 38, 110
1, 73919, Note_on_c, 9, 38, 0
1, 74400, Note_on_c, 9, 38, 110
1, 74879, Note_on_c, 9, 38, 0
1, 75360, Note_on_c, 9, 38, 110
1, 75839, Note_on_c, 9, 38, 0
1, 76320, Note_on_c, 9, 38, 110
1, 76799, Note_on_c, 9, 38, 0
1, 77280, Note_on_c, 9, 38, 110
1, 77759, Note_on_c, 9, 38, 0
1, 78240, Note_on_c, 9, 38, 110
1, 78719, Note_on_c, 9, 38, 0
1, 79200, Note_on_c, 9, 38, 110
1, 79679, Note_on_c, 9, 38, 0
1, 80160, Note_on_c, 9, 38, 110
1, 80639, Note_on_c, 9, 38, 0
1, 81120, Note_on_c, 9, 38, 110
1, 81599, Note_on_c, 9, 38, 0
1, 82080, Note_on_c, 9, 38, 110
1, 82559, Note_on_c, 9, 38, 0
1, 83040, Note_on_c, 9, 38, 110
1, 83519, Note_on_c, 9, 38, 0
1, 84000, Note_on_c, 9, 38, 110
1, 84479, Note_on_c, 9, 38, 0
1, 84960, Note_on_c, 9, 38, 110
1, 85439, Note_on_c, 9, 38, 0
1, 85920, Note_on_c, 9, 38, 110
1, 86399, Note_on_c, 9, 38, 0
1, 86880, Note_on_c, 9, 38, 110
1, 87359, Note_on_c, 9, 38, 0
1, 87840, Note_on_c, 9, 38, 110
1, 88319, Note_on_c, 9, 38, 0
1, 88800, Note_on_c, 9, 38, 110
1, 89279, Note_on_c, 9, 38, 0
1, 89760, Note_on_c, 9, 38, 110
1, 90239, Note_on_c, 9, 38, 0
1, 90720, Note_on_c, 9, 38, 110
1, 91199, Note_on_c, 9, 38, 0
1, 91680, Note_on_c, 9, 38, 110
1, 92159, Note_on_c, 9, 38, 0
1, 92640, Note_on_c, 9, 38, 110
1, 93119, Note_on_c, 9, 38, 0
1, 93600, Note_on_c, 9, 38, 110
1, 94079, Note_on_c, 9, 38, 0
1, 94560, Note_on_c, 9, 38, 110
1, 95039, Note_on_c, 9, 38, 0
1, 95520, Note_on_c, 9, 38, 110
1, 95999, Note_on_c, 9, 38, 0
1, 96480, Note_on_c, 9, 38, 110
1, 96959, Note_on_c, 9, 38, 0
1, 97440, Note_on_c, 9, 38, 110
1, 97919, Note_on_c, 9, 38, 0
1, 98400, Note_on_c, 9, 38, 110
1, 98879, Note_on_c, 9, 38, 0
1, 99360, Note_on_c, 9, 38, 110
1, 99839, Note_on_c, 9, 38, 0
1, 100320, Note_on_c, 9, 38, 110
1, 100799, Note_on_c, 9, 38, 0
1, 101280, Note_on_c, 9, 38, 110
1, 101759, Note_on_c, 9, 38, 0
1, 102240, Note_on_c, 9, 38, 110
1, 102719, Note_on_c, 9, 38, 0
1, 103200, Note_on_c, 9, 38, 110
1, 103679, Note_on_c, 9, 38, 0
1, 104160, Note_on_c, 9, 38, 110
1, 104639, Note_on_c, 9, 38, 0
1, 105120, Note_on_c, 9, 38, 110
1, 105599, Note_on_c, 9, 38, 0
1, 106080, Note_on_c, 9, 38, 110
1, 106559, Note_on_c, 9, 38, 0
1, 107040, Note_on_c, 9, 38, 110
1, 107519, Note_on_c, 9, 38, 0
1, 108000, Note_on_c, 9, 38, 110
1, 108479, Note_on_c, 9, 38, 0
1, 108960, Note_on_c, 9, 38, 110
1, 109439, Note_on_c, 9, 38, 0
1, 109920, Note_on_c, 9, 38, 110
1, 110399, Note_on_c, 9, 38, 0
1, 110880, Note_on_c, 9, 38, 110
1, 111359, Note_on_c, 9, 38, 0
1, 111840, Note_on_c, 9, 38, 110
1, 112319, Note_on_c, 9, 38, 0
1, 112800, Note_on_c, 9, 38, 110
1, 113279, Note_on_c, 9, 38, 0
1, 113760, Note_on_c, 9, 38, 110
1, 114239, Note_on_c, 9, 38, 0
1, 114720, Note_on_c, 9, 38, 110
1, 115199, Note_on_c, 9, 38, 0
1, 115680, Note_on_c, 9, 38, 110
1, 116159, Note_on_c, 9, 38, 0
1, 116640, Note_on_c, 9, 38, 110
1, 117119, Note_on_c, 9, 38, 0
1, 117120, Tempo, 521739
1, 117600, Note_on_c, 9, 38, 110
1, 118079, Note_on_c, 9, 38, 0
1, 118560, Note_on_c, 9, 38, 110
1, 119039, Note_on_c, 9, 38, 0
1, 119520, Note_on_c, 9, 38, 110
1, 119999, Note_on_c, 9, 38, 0
1, 120480, Note_on_c, 9, 38, 110
1, 120959, Note_on_c, 9, 38, 0
1, 121440, Note_on_c, 9, 38, 110
1, 121919, Note_on_c, 9, 38, 0
1, 122400, Note_on_c, 9, 38, 110
1, 122879, Note_on_c, 9, 38, 0
1, 123360, Note_on_c, 9, 38, 110
1, 123839, Note_on_c, 9, 38, 0
1, 124320, Note_on_c, 9, 38, 110
1, 124799, Note_on_c, 9, 38, 0
1, 125280, Note_on_c, 9, 38, 110
1, 125759, Note_on_c, 9, 38, 0
1, 126240, Note_on_c, 9, 38, 110
1, 126719, Note_on_c, 9, 38, 0
1, 127200, Note_on_c, 9, 38, 110
1, 127679, Note_on_c, 9, 38, 0
1, 128160, Note_on_c, 9, 38, 110
1, 128639, Note_on_c, 9, 38, 0
1, 129120, Note_on_c, 9, 38, 110
1, 129599, Note_on_c, 9, 38, 0
1, 130080, Note_on_c, 9, 38, 110
1, 130559, Note_on_c, 9, 38, 0
1, 131040, Note_on_c, 9, 38, 110
1, 131519, Note_on_c, 9, 38, 0
1, 132000, Note_on_c, 9, 38, 110
1, 132479, Note_on_c, 9, 38, 0
1, 132480, Tempo, 526316
1, 132960, Note_on_c, 9, 38, 110
1, 133439, Note_on_c, 9, 38, 0
1, 133920, Note_on_c, 9, 38, 110
1, 134399, Note_on_c, 9, 38, 0
1, 134880, Note_on_c, 9, 38, 110
1, 135359, Note_on_c, 9, 38, 0
1, 135840, Note_on_c, 9, 38, 110
1, 136319, Note_on_c, 9, 38, 0
1, 136800, Note_on_c, 9, 38, 110
1, 137279, Note_on_c, 9, 38, 0
1, 137760, Note_on_c, 9, 38, 110
1, 138239, Note_on_c, 9, 38, 0
1, 138720, Note_on_c, 9, 38, 110
1, 139199, Note_on_c, 9, 38, 0
1, 139680, Note_on_c, 9, 38, 110
1, 140159, Note_on_c, 9, 38, 0
1, 140640, Note_on_c, 9, 38, 110
1, 141119, Note_on_c, 9, 38, 0
1, 141600, Note_on_c, 9, 38, 110
1, 142079, Note_on_c, 9, 38, 0
1, 142560, Note_on_c, 9, 38, 110
1, 143039, Note_on_c, 9, 38, 0
1, 143520, Note_on_c, 9, 38, 110
1, 143999, Note_on_c, 9, 38, 0
1, 144480, Note_on_c, 9, 38, 110
1, 144959, Note_on_c, 9, 38, 0
1, 145440, Note_on_c, 9, 38, 110
1, 145919, Note_on_c, 9, 38, 0
1, 146400, Note_on_c, 9, 38, 110
1, 146879, Note_on_c, 9, 38, 0
1, 147360, Note_on_c, 9, 38, 110
1, 147839, Note_on_c, 9, 38, 0
1, 148320, Note_on_c, 9, 38, 110
1, 148799, Note_on_c, 9, 38, 0
1, 149280, Note_on_c, 9, 38, 110
1, 149759, Note_on_c, 9, 38, 0
1, 150240, Note_on_c, 9, 38, 110
1, 150719, Note_on_c, 9, 38, 0
1, 151200, Note_on_c, 9, 38, 110
1, 151679, Note_on_c, 9, 38, 0
1, 152160, Note_on_c, 9, 38, 110
1, 152639, Note_on_c, 9, 38, 0
1, 153120, Note_on_c, 9, 38, 110
1, 153599, Note_on_c, 9, 38, 0
1, 154080, Note_on_c, 9, 38, 110
1, 154559, Note_on_c, 9, 38, 0
1, 155040, Note_on_c, 9, 38, 110
1, 155519, Note_on_c, 9, 38, 0
1, 156000, Note_on_c, 9, 38, 110
1, 156479, Note_on_c, 9, 38, 0
1, 156960, Note_on_c, 9, 38, 110
1, 157439, Note_on_c, 9, 38, 0
1, 157920, Note_on_c, 9, 38, 110
1, 158399, Note_on_c, 9, 38, 0
1, 158880, Note_on_c, 9, 38, 110
1, 159359, Note_on_c, 9, 38, 0
1, 159840, Note_on_c, 9, 38, 110
1, 160319, Note_on_c, 9, 38, 0
1, 160800, Note_on_c, 9, 38, 110
1, 161279, Note_on_c, 9, 38, 0
1, 161760, Note_on_c, 9, 38, 110
1, 162239, Note_on_c, 9, 38, 0
1, 162720, Note_on_c, 9, 38, 110
1, 163199, Note_on_c, 9, 38, 0
1, 163680, Note_on_c, 9, 38, 110
1, 164159, Note_on_c, 9, 38, 0
1, 164640, Note_on_c, 9, 38, 110
1, 165119, Note_on_c, 9, 38, 0
1, 165600, Note_on_c, 9, 38, 110
1, 166079, Note_on_c, 9, 38, 0
1, 166560, Note_on_c, 9, 38, 110
1, 167039, Note_on_c, 9, 38, 0
1, 167520, Note_on_c, 9, 38, 110
1, 167999, Note_on_c, 9, 38, 0
1, 168480, Note_on_c, 9, 38, 110
1, 168959, Note_on_c, 9, 38, 0
1, 169440, Note_on_c, 9, 38, 110
1, 169919, Note_on_c, 9, 38, 0
1, 170400, Note_on_c, 9, 38, 110
1, 170879, Note_on_c, 9, 38, 0
1, 171360, Note_on_c, 9, 38, 110
1, 171839, Note_on_c, 9, 38, 0
1, 172320, Note_on_c, 9, 38, 110
1, 172799, Note_on_c, 9, 38, 0
1, 173280, Note_on_c, 9, 38, 110
1, 173759, Note_on_c, 9, 38, 0
1, 174240, Note_on_c, 9, 38, 110
1, 174719, Note_on_c, 9, 38, 0
1, 175200, Note_on_c, 9, 38, 110
1, 175679, Note_on_c, 9, 38, 0
1, 176160, Note_on_c, 9, 38, 110
1, 176639, Note_on_c, 9, 38, 0
1, 177120, Note_on_c, 9, 38, 110
1, 177599, Note_on_c, 9, 38, 0
1, 178080, Note_on_c, 9, 38, 110
1, 178559, Note_on_c, 9, 38, 0
1, 179040, Note_on_c, 9, 38, 110
1, 179519, Note_on_c, 9, 38, 0
1, 180000, Note_on_c, 9, 38, 110
1, 180479, Note_on_c, 9, 38, 0
1, 180960, Note_on_c, 9, 38, 110
1, 181439, Note_on_c, 9, 38, 0
1, 181920, Note_on_c, 9, 38, 110
1, 182399, Note_on_c, 9, 38, 0
1, 182880, Note_on_c, 9, 38, 110
1, 183359, Note_on_c, 9, 38, 0
1, 183840, Note_on_c, 9, 38, 110
1, 184319, Note_on_c, 9, 38, 0
1, 184800, Note_on_c, 9, 38, 110
1, 185279, Note_on_c, 9, 38, 0
1, 185760, Note_on_c, 9, 38, 110
1, 186239, Note_on_c, 9, 38, 0
1, 186720, Note_on_c, 9, 38, 110
1, 187199, Note_on_c, 9, 38, 0
1, 187680, Note_on_c, 9, 38, 110
1, 188159, Note_on_c, 9, 38, 0
1, 188640, Note_on_c, 9, 38, 110
1, 189119, Note_on_c, 9, 38, 0
1, 189600, Note_on_c, 9, 38, 110
1, 190079, Note_on_c, 9, 38, 0
1, 190560, Note_on_c, 9, 38, 110
1, 191039, Note_on_c, 9, 38, 0
1, 191520, Note_on_c, 9, 38, 110
1, 191999, Note_on_c, 9, 38, 0
1, 192480, Note_on_c, 9, 38, 110
1, 192959, Note_on_c, 9, 38, 0
1, 193440, Note_on_c, 9, 38, 110
1, 193919, Note_on_c, 9, 38, 0
1, 194400, Note_on_c, 9, 38, 110
1, 194879, Note_on_c, 9, 38, 0
1, 195360, Note_on_c, 9, 38, 110
1, 195839, Note_on_c, 9, 38, 0
1, 196320, Note_on_c, 9, 38, 110
1, 196799, Note_on_c, 9, 38, 0
1, 197280, Note_on_c, 9, 38, 110
1, 197759, Note_on_c, 9, 38, 0
1, 198240, Note_on_c, 9, 38, 110
1, 198719, Note_on_c, 9, 38, 0
1, 199200, Note_on_c, 9, 38, 110
1, 199679, Note_on_c, 9, 38, 0
1, 200160, Note_on_c, 9, 38, 110
1, 200639, Note_on_c, 9, 38, 0
1, 201120, Note_on_c, 9, 38, 110
1, 201599, Note_on_c, 9, 38, 0
1, 202080, Note_on_c, 9, 38, 110
1, 202559, Note_on_c, 9, 38, 0
1, 203040, Note_on_c, 9, 38, 110
1, 203519, Note_on_c, 9, 38, 0
1, 204000, Note_on_c, 9, 38, 110
1, 204479, Note_on_c, 9, 38, 0
1, 204960, Note_on_c, 9, 38, 110
1, 205439, Note_on_c, 9, 38, 0
1, 205920, Note_on_c, 9, 38, 110
1, 206399, Note_on_c, 9, 38, 0
1, 206880, Note_on_c, 9, 38, 110
1, 207359, Note_on_c, 9, 38, 0
1, 207840, Note_on_c, 9, 38, 110
1, 208319, Note_on_c, 9, 38, 0
1, 208800, Note_on_c, 9, 38, 110
1, 209279, Note_on_c, 9, 38, 0
1, 209760, Note_on_c, 9, 38, 110
1, 210239, Note_on_c, 9, 38, 0
1, 210720, Note_on_c, 9, 38, 110
1, 211199, Note_on_c, 9, 38, 0
1, 211680, Note_on_c, 9, 38, 110
1, 212159, Note_on_c, 9, 38, 0
1, 212640, Note_on_c, 9, 38, 110
1, 213119, Note_on_c, 9, 38, 0
1, 213600, Note_on_c, 9, 38, 110
1, 214079, Note_on_c, 9, 38, 0
1, 214560, Note_on_c, 9, 38, 110
1, 215039, Note_on_c, 9, 38, 0
1, 215520, Note_on_c, 9, 38, 110
1, 215999, Note_on_c, 9, 38, 0
1, 216480, Note_on_c, 9, 38, 110
1, 216959, Note_on_c, 9, 38, 0
1, 217440, Note_on_c, 9, 38, 110
1, 217919, Note_on_c, 9, 38, 0
1, 218400, Note_on_c, 9, 38, 110
1, 218879, Note_on_c, 9, 38, 0
1, 218880, End_track
2, 0, Start_track
2, 0, Key_signature, 0, "major"
2, 0, Control_c, 9, 121, 0
2, 0, Program_c, 9, 0
2, 0, Control_c, 9, 7, 100
2, 0, Control_c, 9, 10, 64
2, 0, Control_c, 9, 91, 0
2, 0, Control_c, 9, 93, 0
2, 0, MIDI_port, 0
2, 4320, Note_on_c, 9, 28, 127
2, 4799, Note_on_c, 9, 28, 0
2, 5280, Note_on_c, 9, 28, 127
2, 5759, Note_on_c, 9, 28, 0
2, 6240, Note_on_c, 9, 28, 127
2, 6719, Note_on_c, 9, 28, 0
2, 7200, Note_on_c, 9, 28, 127
2, 7679, Note_on_c, 9, 28, 0
2, 8160, Note_on_c, 9, 28, 127
2, 8639, Note_on_c, 9, 28, 0
2, 9120, Note_on_c, 9, 28, 127
2, 9599, Note_on_c, 9, 28, 0
2, 10080, Note_on_c, 9, 28, 127
2, 10559, Note_on_c, 9, 28, 0
2, 11040, Note_on_c, 9, 28, 127
2, 11519, Note_on_c, 9, 28, 0
2, 12000, Note_on_c, 9, 28, 127
2, 12479, Note_on_c, 9, 28, 0
2, 12960, Note_on_c, 9, 28, 127
2, 13439, Note_on_c, 9, 28, 0
2, 13920, Note_on_c, 9, 28, 127
2, 14399, Note_on_c, 9, 28, 0
2, 14880, Note_on_c, 9, 28, 127
2, 15359, Note_on_c, 9, 28, 0
2, 15840, Note_on_c, 9, 28, 127
2, 16319, Note_on_c, 9, 28, 0
2, 16800, Note_on_c, 9, 28, 127
2, 17279, Note_on_c, 9, 28, 0
2, 17760, Note_on_c, 9, 28, 127
2, 18239, Note_on_c, 9, 28, 0
2, 18720, Note_on_c, 9, 28, 127
2, 19199, Note_on_c, 9, 28, 0
2, 19680, Note_on_c, 9, 28, 127
2, 20159, Note_on_c, 9, 28, 0
2, 20640, Note_on_c, 9, 28, 127
2, 21119, Note_on_c, 9, 28, 0
2, 21600, Note_on_c, 9, 28, 127
2, 22079, Note_on_c, 9, 28, 0
2, 22560, Note_on_c, 9, 28, 127
2, 23039, Note_on_c, 9, 28, 0
2, 23520, Note_on_c, 9, 28, 127
2, 23999, Note_on_c, 9, 28, 0
2, 24480, Note_on_c, 9, 28, 127
2, 24959, Note_on_c, 9, 28, 0
2, 25440, Note_on_c, 9, 28, 127
2, 25919, Note_on_c, 9, 28, 0
2, 26400, Note_on_c, 9, 28, 127
2, 26879, Note_on_c, 9, 28, 0
2, 27360, Note_on_c, 9, 28, 127
2, 27839, Note_on_c, 9, 28, 0
2, 28320, Note_on_c, 9, 28, 127
2, 28799, Note_on_c, 9, 28, 0
2, 29280, Note_on_c, 9, 28, 127
2, 29759, Note_on_c, 9, 28, 0
2, 30240, Note_on_c, 9, 28, 127
2, 30719, Note_on_c, 9, 28, 0
2, 31200, Note_on_c, 9, 28, 127
2, 31679, Note_on_c, 9, 28, 0
2, 32160, Note_on_c, 9, 28, 127
2, 32639, Note_on_c, 9, 28, 0
2, 33120, Note_on_c, 9, 28, 127
2, 33599, Note_on_c, 9, 28, 0
2, 34080, Note_on_c, 9, 28, 127
2, 34559, Note_on_c, 9, 28, 0
2, 35040, Note_on_c, 9, 28, 127
2, 35519, Note_on_c, 9, 28, 0
2, 36000, Note_on_c, 9, 28, 127
2, 36479, Note_on_c, 9, 28, 0
2, 36960, Note_on_c, 9, 28, 127
2, 37439, Note_on_c, 9, 28, 0
2, 37920, Note_on_c, 9, 28, 127
2, 38399, Note_on_c, 9, 28, 0
2, 38880, Note_on_c, 9, 28, 127
2, 39359, Note_on_c, 9, 28, 0
2, 39840, Note_on_c, 9, 28, 127
2, 40319, Note_on_c, 9, 28, 0
2, 40800, Note_on_c, 9, 28, 127
2, 41279, Note_on_c, 9, 28, 0
2, 41760, Note_on_c, 9, 28, 127
2, 42239, Note_on_c, 9, 28, 0
2, 42720, Note_on_c, 9, 28, 127
2, 43199, Note_on_c, 9, 28, 0
2, 43680, Note_on_c, 9, 28, 127
2, 44159, Note_on_c, 9, 28, 0
2, 44640, Note_on_c, 9, 28, 127
2, 45119, Note_on_c, 9, 28, 0
2, 45600, Note_on_c, 9, 28, 127
2, 46079, Note_on_c, 9, 28, 0
2, 46560, Note_on_c, 9, 28, 127
2, 47039, Note_on_c, 9, 28, 0
2, 47520, Note_on_c, 9, 28, 127
2, 47999, Note_on_c, 9, 28, 0
2, 48480, Note_on_c, 9, 28, 127
2, 48959, Note_on_c, 9, 28, 0
2, 49440, Note_on_c, 9, 28, 127
2, 49919, Note_on_c, 9, 28, 0
2, 50400, Note_on_c, 9, 28, 127
2, 50879, Note_on_c, 9, 28, 0
2, 51360, Note_on_c, 9, 28, 127
2, 51839, Note_on_c, 9, 28, 0
2, 52320, Note_on_c, 9, 28, 127
2, 52799, Note_on_c, 9, 28, 0
2, 53280, Note_on_c, 9, 28, 127
2, 53759, Note_on_c, 9, 28, 0
2, 54240, Note_on_c, 9, 28, 127
2, 54719, Note_on_c, 9, 28, 0
2, 55200, Note_on_c, 9, 28, 127
2, 55679, Note_on_c, 9, 28, 0
2, 56160, Note_on_c, 9, 28, 127
2, 56639, Note_on_c, 9, 28, 0
2, 57120, Note_on_c, 9, 28, 127
2, 57599, Note_on_c, 9, 28, 0
2, 58080, Note_on_c, 9, 28, 127
2, 58559, Note_on_c, 9, 28, 0
2, 59040, Note_on_c, 9, 28, 127
2, 59519, Note_on_c, 9, 28, 0
2, 60000, Note_on_c, 9, 28, 127
2, 60479, Note_on_c, 9, 28, 0
2, 60960, Note_on_c, 9, 28, 127
2, 61439, Note_on_c, 9, 28, 0
2, 61920, Note_on_c, 9, 28, 127
2, 62399, Note_on_c, 9, 28, 0
2, 62880, Note_on_c, 9, 28, 127
2, 63359, Note_on_c, 9, 28, 0
2, 63840, Note_on_c, 9, 28, 127
2, 64319, Note_on_c, 9, 28, 0
2, 64800, Note_on_c, 9, 28, 127
2, 65279, Note_on_c, 9, 28, 0
2, 65760, Note_on_c, 9, 28, 127
2, 66239, Note_on_c, 9, 28, 0
2, 66720, Note_on_c, 9, 28, 127
2, 67199, Note_on_c, 9, 28, 0
2, 67680, Note_on_c, 9, 28, 127
2, 68159, Note_on_c, 9, 28, 0
2, 68640, Note_on_c, 9, 28, 127
2, 69119, Note_on_c, 9, 28, 0
2, 69600, Note_on_c, 9, 28, 127
2, 70079, Note_on_c, 9, 28, 0
2, 70560, Note_on_c, 9, 28, 127
2, 71039, Note_on_c, 9, 28, 0
2, 71520, Note_on_c, 9, 28, 127
2, 71999, Note_on_c, 9, 28, 0
2, 72480, Note_on_c, 9, 28, 127
2, 72959, Note_on_c, 9, 28, 0
2, 73440, Note_on_c, 9, 28, 127
2, 73919, Note_on_c, 9, 28, 0
2, 74400, Note_on_c, 9, 28, 127
2, 74879, Note_on_c, 9, 28, 0
2, 75360, Note_on_c, 9, 28, 127
2, 75839, Note_on_c, 9, 28, 0
2, 76320, Note_on_c, 9, 28, 127
2, 76799, Note_on_c, 9, 28, 0
2, 77280, Note_on_c, 9, 28, 127
2, 77759, Note_on_c, 9, 28, 0
2, 78240, Note_on_c, 9, 28, 127
2, 78719, Note_on_c, 9, 28, 0
2, 79200, Note_on_c, 9, 28, 127
2, 79679, Note_on_c, 9, 28, 0
2, 80160, Note_on_c, 9, 28, 127
2, 80639, Note_on_c, 9, 28, 0
2, 81120, Note_on_c, 9, 28, 127
2, 81599, Note_on_c, 9, 28, 0
2, 82080, Note_on_c, 9, 28, 127
2, 82559, Note_on_c, 9, 28, 0
2, 83040, Note_on_c, 9, 28, 127
2, 83519, Note_on_c, 9, 28, 0
2, 84000, Note_on_c, 9, 28, 127
2, 84479, Note_on_c, 9, 28, 0
2, 84960, Note_on_c, 9, 28, 127
2, 85439, Note_on_c, 9, 28, 0
2, 85920, Note_on_c, 9, 28, 127
2, 86399, Note_on_c, 9, 28, 0
2, 86880, Note_on_c, 9, 28, 127
2, 87359, Note_on_c, 9, 28, 0
2, 87840, Note_on_c, 9, 28, 127
2, 88319, Note_on_c, 9, 28, 0
2, 88800, Note_on_c, 9, 28, 127
2, 89279, Note_on_c, 9, 28, 0
2, 89760, Note_on_c, 9, 28, 127
2, 90239, Note_on_c, 9, 28, 0
2, 90720, Note_on_c, 9, 28, 127
2, 91199, Note_on_c, 9, 28, 0
2, 91680, Note_on_c, 9, 28, 127
2, 92159, Note_on_c, 9, 28, 0
2, 92640, Note_on_c, 9, 28, 127
2, 93119, Note_on_c, 9, 28, 0
2, 93600, Note_on_c, 9, 28, 127
2, 94079, Note_on_c, 9, 28, 0
2, 94560, Note_on_c, 9, 28, 127
2, 95039, Note_on_c, 9, 28, 0
2, 95520, Note_on_c, 9, 28, 127
2, 95999, Note_on_c, 9, 28, 0
2, 96480, Note_on_c, 9, 28, 127
2, 96959, Note_on_c, 9, 28, 0
2, 97440, Note_on_c, 9, 28, 127
2, 97919, Note_on_c, 9, 28, 0
2, 98400, Note_on_c, 9, 28, 127
2, 98879, Note_on_c, 9, 28, 0
2, 99360, Note_on_c, 9, 28, 127
2, 99839, Note_on_c, 9, 28, 0
2, 100320, Note_on_c, 9, 28, 127
2, 100799, Note_on_c, 9, 28, 0
2, 101280, Note_on_c, 9, 28, 127
2, 101759, Note_on_c, 9, 28, 0
2, 102240, Note_on_c, 9, 28, 127
2, 102719, Note_on_c, 9, 28, 0
2, 103200, Note_on_c, 9, 28, 127
2, 103679, Note_on_c, 9, 28, 0
2, 104160, Note_on_c, 9, 28, 127
2, 104639, Note_on_c, 9, 28, 0
2, 105120, Note_on_c, 9, 28, 127
2, 105599, Note_on_c, 9, 28, 0
2, 106080, Note_on_c, 9, 28, 127
2, 106559, Note_on_c, 9, 28, 0
2, 107040, Note_on_c, 9, 28, 127
2, 107519, Note_on_c, 9, 28, 0
2, 108000, Note_on_c, 9, 28, 127
2, 108479, Note_on_c, 9, 28, 0
2, 108960, Note_on_c, 9, 28, 127
2, 109439, Note_on_c, 9, 28, 0
2, 109920, Note_on_c, 9, 28, 127
2, 110399, Note_on_c, 9, 28, 0
2, 110880, Note_on_c, 9, 28, 127
2, 111359, Note_on_c, 9, 28, 0
2, 111840, Note_on_c, 9, 28, 127
2, 112319, Note_on_c, 9, 28, 0
2, 112800, Note_on_c, 9, 28, 127
2, 113279, Note_on_c, 9, 28, 0
2, 113760, Note_on_c, 9, 28, 127
2, 114239, Note_on_c, 9, 28, 0
2, 114720, Note_on_c, 9, 28, 127
2, 115199, Note_on_c, 9, 28, 0
2, 115680, Note_on_c, 9, 28, 127
2, 116159, Note_on_c, 9, 28, 0
2, 116640, Note_on_c, 9, 28, 127
2, 117119, Note_on_c, 9, 28, 0
2, 117600, Note_on_c, 9, 28, 127
2, 118079, Note_on_c, 9, 28, 0
2, 118560, Note_on_c, 9, 28, 127
2, 119039, Note_on_c, 9, 28, 0
2, 119520, Note_on_c, 9, 28, 127
2, 119999, Note_on_c, 9, 28, 0
2, 120480, Note_on_c, 9, 28, 127
2, 120959, Note_on_c, 9, 28, 0
2, 121440, Note_on_c, 9, 28, 127
2, 121919, Note_on_c, 9, 28, 0
2, 122400, Note_on_c, 9, 28, 127
2, 122879, Note_on_c, 9, 28, 0
2, 123360, Note_on_c, 9, 28, 127
2, 123839, Note_on_c, 9, 28, 0
2, 124320, Note_on_c, 9, 28, 127
2, 124799, Note_on_c, 9, 28, 0
2, 125280, Note_on_c, 9, 28, 127
2, 125759, Note_on_c, 9, 28, 0
2, 126240, Note_on_c, 9, 28, 127
2, 126719, Note_on_c, 9, 28, 0
2, 127200, Note_on_c, 9, 28, 127
2, 127679, Note_on_c, 9, 28, 0
2, 128160, Note_on_c, 9, 28, 127
2, 128639, Note_on_c, 9, 28, 0
2, 129120, Note_on_c, 9, 28, 127
2, 129599, Note_on_c, 9, 28, 0
2, 130080, Note_on_c, 9, 28, 127
2, 130559, Note_on_c, 9, 28, 0
2, 131040, Note_on_c, 9, 28, 127
2, 131519, Note_on_c, 9, 28, 0
2, 132000, Note_on_c, 9, 28, 127
2, 132479, Note_on_c, 9, 28, 0
2, 132960, Note_on_c, 9, 28, 127
2, 133439, Note_on_c, 9, 28, 0
2, 133920, Note_on_c, 9, 28, 127
2, 134399, Note_on_c, 9, 28, 0
2, 134880, Note_on_c, 9, 28, 127
2, 135359, Note_on_c, 9, 28, 0
2, 135840, Note_on_c, 9, 28, 127
2, 136319, Note_on_c, 9, 28, 0
2, 136800, Note_on_c, 9, 28, 127
2, 137279, Note_on_c, 9, 28, 0
2, 137760, Note_on_c, 9, 28, 127
2, 138239, Note_on_c, 9, 28, 0
2, 138720, Note_on_c, 9, 28, 127
2, 139199, Note_on_c, 9, 28, 0
2, 139680, Note_on_c, 9, 28, 127
2, 140159, Note_on_c, 9, 28, 0
2, 140640, Note_on_c, 9, 28, 127
2, 141119, Note_on_c, 9, 28, 0
2, 141600, Note_on_c, 9, 28, 127
2, 142079, Note_on_c, 9, 28, 0
2, 142560, Note_on_c, 9, 28, 127
2, 143039, Note_on_c, 9, 28, 0
2, 143520, Note_on_c, 9, 28, 127
2, 143999, Note_on_c, 9, 28, 0
2, 144480, Note_on_c, 9, 28, 127
2, 144959, Note_on_c, 9, 28, 0
2, 145440, Note_on_c, 9, 28, 127
2, 145919, Note_on_c, 9, 28, 0
2, 146400, Note_on_c, 9, 28, 127
2, 146879, Note_on_c, 9, 28, 0
2, 147360, Note_on_c, 9, 28, 127
2, 147839, Note_on_c, 9, 28, 0
2, 148320, Note_on_c, 9, 28, 127
2, 148799, Note_on_c, 9, 28, 0
2, 149280, Note_on_c, 9, 28, 127
2, 149759, Note_on_c, 9, 28, 0
2, 150240, Note_on_c, 9, 28, 127
2, 150719, Note_on_c, 9, 28, 0
2, 151200, Note_on_c, 9, 28, 127
2, 151679, Note_on_c, 9, 28, 0
2, 152160, Note_on_c, 9, 28, 127
2, 152639, Note_on_c, 9, 28, 0
2, 153120, Note_on_c, 9, 28, 127
2, 153599, Note_on_c, 9, 28, 0
2, 154080, Note_on_c, 9, 28, 127
2, 154559, Note_on_c, 9, 28, 0
2, 155040, Note_on_c, 9, 28, 127
2, 155519, Note_on_c, 9, 28, 0
2, 156000, Note_on_c, 9, 28, 127
2, 156479, Note_on_c, 9, 28, 0
2, 156960, Note_on_c, 9, 28, 127
2, 157439, Note_on_c, 9, 28, 0
2, 157920, Note_on_c, 9, 28, 127
2, 158399, Note_on_c, 9, 28, 0
2, 158880, Note_on_c, 9, 28, 127
2, 159359, Note_on_c, 9, 28, 0
2, 159840, Note_on_c, 9, 28, 127
2, 160319, Note_on_c, 9, 28, 0
2, 160800, Note_on_c, 9, 28, 127
2, 161279, Note_on_c, 9, 28, 0
2, 161760, Note_on_c, 9, 28, 127
2, 162239, Note_on_c, 9, 28, 0
2, 162720, Note_on_c, 9, 28, 127
2, 163199, Note_on_c, 9, 28, 0
2, 163680, Note_on_c, 9, 28, 127
2, 164159, Note_on_c, 9, 28, 0
2, 164640, Note_on_c, 9, 28, 127
2, 165119, Note_on_c, 9, 28, 0
2, 165600, Note_on_c, 9, 28, 127
2, 166079, Note_on_c, 9, 28, 0
2, 166560, Note_on_c, 9, 28, 127
2, 167039, Note_on_c, 9, 28, 0
2, 167520, Note_on_c, 9, 28, 127
2, 167999, Note_on_c, 9, 28, 0
2, 168480, Note_on_c, 9, 28, 127
2, 168959, Note_on_c, 9, 28, 0
2, 169440, Note_on_c, 9, 28, 127
2, 169919, Note_on_c, 9, 28, 0
2, 170400, Note_on_c, 9, 28, 127
2, 170879, Note_on_c, 9, 28, 0
2, 171360, Note_on_c, 9, 28, 127
2, 171839, Note_on_c, 9, 28, 0
2, 172320, Note_on_c, 9, 28, 127
2, 172799, Note_on_c, 9, 28, 0
2, 173280, Note_on_c, 9, 28, 127
2, 173759, Note_on_c, 9, 28, 0
2, 174240, Note_on_c, 9, 28, 127
2, 174719, Note_on_c, 9, 28, 0
2, 175200, Note_on_c, 9, 28, 127
2, 175679, Note_on_c, 9, 28, 0
2, 176160, Note_on_c, 9, 28, 127
2, 176639, Note_on_c, 9, 28, 0
2, 177120, Note_on_c, 9, 28, 127
2, 177599, Note_on_c, 9, 28, 0
2, 178080, Note_on_c, 9, 28, 127
2, 178559, Note_on_c, 9, 28, 0
2, 179040, Note_on_c, 9, 28, 127
2, 179519, Note_on_c, 9, 28, 0
2, 180000, Note_on_c, 9, 28, 127
2, 180479, Note_on_c, 9, 28, 0
2, 180960, Note_on_c, 9, 28, 127
2, 181439, Note_on_c, 9, 28, 0
2, 181920, Note_on_c, 9, 28, 127
2, 182399, Note_on_c, 9, 28, 0
2, 182880, Note_on_c, 9, 28, 127
2, 183359, Note_on_c, 9, 28, 0
2, 183840, Note_on_c, 9, 28, 127
2, 184319, Note_on_c, 9, 28, 0
2, 184800, Note_on_c, 9, 28, 127
2, 185279, Note_on_c, 9, 28, 0
2, 185760, Note_on_c, 9, 28, 127
2, 186239, Note_on_c, 9, 28, 0
2, 186720, Note_on_c, 9, 28, 127
2, 187199, Note_on_c, 9, 28, 0
2, 187680, Note_on_c, 9, 28, 127
2, 188159, Note_on_c, 9, 28, 0
2, 188640, Note_on_c, 9, 28, 127
2, 189119, Note_on_c, 9, 28, 0
2, 189600, Note_on_c, 9, 28, 127
2, 190079, Note_on_c, 9, 28, 0
2, 190560, Note_on_c, 9, 28, 127
2, 191039, Note_on_c, 9, 28, 0
2, 191520, Note_on_c, 9, 28, 127
2, 191999, Note_on_c, 9, 28, 0
2, 192480, Note_on_c, 9, 28, 127
2, 192959, Note_on_c, 9, 28, 0
2, 193440, Note_on_c, 9, 28, 127
2, 193919, Note_on_c, 9, 28, 0
2, 194400, Note_on_c, 9, 28, 127
2, 194879, Note_on_c, 9, 28, 0
2, 195360, Note_on_c, 9, 28, 127
2, 195839, Note_on_c, 9, 28, 0
2, 196320, Note_on_c, 9, 28, 127
2, 196799, Note_on_c, 9, 28, 0
2, 197280, Note_on_c, 9, 28, 127
2, 197759, Note_on_c, 9, 28, 0
2, 198240, Note_on_c, 9, 28, 127
2, 198719, Note_on_c, 9, 28, 0
2, 199200, Note_on_c, 9, 28, 127
2, 199679, Note_on_c, 9, 28, 0
2, 200160, Note_on_c, 9, 28, 127
2, 200639, Note_on_c, 9, 28, 0
2, 201120, Note_on_c, 9, 28, 127
2, 201599, Note_on_c, 9, 28, 0
2, 202080, Note_on_c, 9, 28, 127
2, 202559, Note_on_c, 9, 28, 0
2, 203040, Note_on_c, 9, 28, 127
2, 203519, Note_on_c, 9, 28, 0
2, 204000, Note_on_c, 9, 28, 127
2, 204479, Note_on_c, 9, 28, 0
2, 204960, Note_on_c, 9, 28, 127
2, 205439, Note_on_c, 9, 28, 0
2, 205920, Note_on_c, 9, 28, 127
2, 206399, Note_on_c, 9, 28, 0
2, 206880, Note_on_c, 9, 28, 127
2, 207359, Note_on_c, 9, 28, 0
2, 207840, Note_on_c, 9, 28, 127
2, 208319, Note_on_c, 9, 28, 0
2, 208800, Note_on_c, 9, 28, 127
2, 209279, Note_on_c, 9, 28, 0
2, 209760, Note_on_c, 9, 28, 127
2, 210239, Note_on_c, 9, 28, 0
2, 210720, Note_on_c, 9, 28, 127
2, 211199, Note_on_c, 9, 28, 0
2, 211680, Note_on_c, 9, 28, 127
2, 212159, Note_on_c, 9, 28, 0
2, 212640, Note_on_c, 9, 28, 127
2, 213119, Note_on_c, 9, 28, 0
2, 213600, Note_on_c, 9, 28, 127
2, 214079, Note_on_c, 9, 28, 0
2, 214560, Note_on_c, 9, 28, 127
2, 215039, Note_on_c, 9, 28, 0
2, 215520, Note_on_c, 9, 28, 127
2, 215999, Note_on_c, 9, 28, 0
2, 216480, Note_on_c, 9, 28, 127
2, 216959, Note_on_c, 9, 28, 0
2, 217440, Note_on_c, 9, 28, 127
2, 217919, Note_on_c, 9, 28, 0
2, 218400, Note_on_c, 9, 28, 127
2, 218879, Note_on_c, 9, 28, 0
2, 218880, End_track
3, 0, Start_track
3, 0, Key_signature, 0, "major"
3, 0, Control_c, 9, 121, 0
3, 0, Program_c, 9, 0
3, 0, Control_c, 9, 7, 100
3, 0, Control_c, 9, 10, 64
3, 0, Control_c, 9, 91, 0
3, 0, Control_c, 9, 93, 0
3, 0, MIDI_port, 0
3, 3840, Note_on_c, 9, 36, 115
3, 4319, Note_on_c, 9, 36, 0
3, 4800, Note_on_c, 9, 36, 115
3, 5039, Note_on_c, 9, 36, 0
3, 5040, Note_on_c, 9, 36, 115
3, 5279, Note_on_c, 9, 36, 0
3, 5520, Note_on_c, 9, 36, 115
3, 5759, Note_on_c, 9, 36, 0
3, 5760, Note_on_c, 9, 36, 115
3, 6239, Note_on_c, 9, 36, 0
3, 6720, Note_on_c, 9, 36, 115
3, 6959, Note_on_c, 9, 36, 0
3, 6960, Note_on_c, 9, 36, 115
3, 7199, Note_on_c, 9, 36, 0
3, 7440, Note_on_c, 9, 36, 115
3, 7679, Note_on_c, 9, 36, 0
3, 7680, Note_on_c, 9, 36, 115
3, 8159, Note_on_c, 9, 36, 0
3, 8640, Note_on_c, 9, 36, 115
3, 8879, Note_on_c, 9, 36, 0
3, 8880, Note_on_c, 9, 36, 115
3, 9119, Note_on_c, 9, 36, 0
3, 9360, Note_on_c, 9, 36, 115
3, 9599, Note_on_c, 9, 36, 0
3, 9600, Note_on_c, 9, 36, 115
3, 10079, Note_on_c, 9, 36, 0
3, 10560, Note_on_c, 9, 36, 115
3, 10799, Note_on_c, 9, 36, 0
3, 10800, Note_on_c, 9, 36, 115
3, 11039, Note_on_c, 9, 36, 0
3, 11280, Note_on_c, 9, 36, 115
3, 11519, Note_on_c, 9, 36, 0
3, 11520, Note_on_c, 9, 36, 115
3, 11999, Note_on_c, 9, 36, 0
3, 12480, Note_on_c, 9, 36, 115
3, 12719, Note_on_c, 9, 36, 0
3, 12720, Note_on_c, 9, 36, 115
3, 12959, Note_on_c, 9, 36, 0
3, 13200, Note_on_c, 9, 36, 115
3, 13439, Note_on_c, 9, 36, 0
3, 13440, Note_on_c, 9, 36, 115
3, 13919, Note_on_c, 9, 36, 0
3, 14400, Note_on_c, 9, 36, 115
3, 14639, Note_on_c, 9, 36, 0
3, 14640, Note_on_c, 9, 36, 115
3, 14879, Note_on_c, 9, 36, 0
3, 15120, Note_on_c, 9, 36, 115
3, 15359, Note_on_c, 9, 36, 0
3, 15360, Note_on_c, 9, 36, 115
3, 15839, Note_on_c, 9, 36, 0
3, 16320, Note_on_c, 9, 36, 115
3, 16559, Note_on_c, 9, 36, 0
3, 16560, Note_on_c, 9, 36, 115
3, 16799, Note_on_c, 9, 36, 0
3, 17040, Note_on_c, 9, 36, 115
3, 17279, Note_on_c, 9, 36, 0
3, 17280, Note_on_c, 9, 36, 115
3, 17759, Note_on_c, 9, 36, 0
3, 18240, Note_on_c, 9, 36, 115
3, 18479, Note_on_c, 9, 36, 0
3, 18480, Note_on_c, 9, 36, 115
3, 18719, Note_on_c, 9, 36, 0
3, 18960, Note_on_c, 9, 36, 115
3, 19199, Note_on_c, 9, 36, 0
3, 19200, Note_on_c, 9, 36, 115
3, 19679, Note_on_c, 9, 36, 0
3, 20160, Note_on_c, 9, 36, 115
3, 20399, Note_on_c, 9, 36, 0
3, 20400, Note_on_c, 9, 36, 115
3, 20639, Note_on_c, 9, 36, 0
3, 20880, Note_on_c, 9, 36, 115
3, 21119, Note_on_c, 9, 36, 0
3, 21120, Note_on_c, 9, 36, 115
3, 21599, Note_on_c, 9, 36, 0
3, 22080, Note_on_c, 9, 36, 115
3, 22319, Note_on_c, 9, 36, 0
3, 22320, Note_on_c, 9, 36, 115
3, 22559, Note_on_c, 9, 36, 0
3, 22800, Note_on_c, 9, 36, 115
3, 23039, Note_on_c, 9, 36, 0
3, 23040, Note_on_c, 9, 36, 115
3, 23519, Note_on_c, 9, 36, 0
3, 24000, Note_on_c, 9, 36, 115
3, 24239, Note_on_c, 9, 36, 0
3, 24240, Note_on_c, 9, 36, 115
3, 24479, Note_on_c, 9, 36, 0
3, 24720, Note_on_c, 9, 36, 115
3, 24959, Note_on_c, 9, 36, 0
3, 24960, Note_on_c, 9, 36, 115
3, 25439, Note_on_c, 9, 36, 0
3, 25920, Note_on_c, 9, 36, 115
3, 26159, Note_on_c, 9, 36, 0
3, 26160, Note_on_c, 9, 36, 115
3, 26399, Note_on_c, 9, 36, 0
3, 26640, Note_on_c, 9, 36, 115
3, 26879, Note_on_c, 9, 36, 0
3, 26880, Note_on_c, 9, 36, 115
3, 27359, Note_on_c, 9, 36, 0
3, 27840, Note_on_c, 9, 36, 115
3, 28079, Note_on_c, 9, 36, 0
3, 28080, Note_on_c, 9, 36, 115
3, 28319, Note_on_c, 9, 36, 0
3, 28560, Note_on_c, 9, 36, 115
3, 28799, Note_on_c, 9, 36, 0
3, 28800, Note_on_c, 9, 36, 115
3, 29279, Note_on_c, 9, 36, 0
3, 29760, Note_on_c, 9, 36, 115
3, 29999, Note_on_c, 9, 36, 0
3, 30000, Note_on_c, 9, 36, 115
3, 30239, Note_on_c, 9, 36, 0
3, 30480, Note_on_c, 9, 36, 115
3, 30719, Note_on_c, 9, 36, 0
3, 30720, Note_on_c, 9, 36, 115
3, 31199, Note_on_c, 9, 36, 0
3, 31680, Note_on_c, 9, 36, 115
3, 31919, Note_on_c, 9, 36, 0
3, 31920, Note_on_c, 9, 36, 115
3, 32159, Note_on_c, 9, 36, 0
3, 32400, Note_on_c, 9, 36, 115
3, 32639, Note_on_c, 9, 36, 0
3, 32640, Note_on_c, 9, 36, 115
3, 33119, Note_on_c, 9, 36, 0
3, 33600, Note_on_c, 9, 36, 115
3, 33839, Note_on_c, 9, 36, 0
3, 33840, Note_on_c, 9, 36, 115
3, 34079, Note_on_c, 9, 36, 0
3, 34320, Note_on_c, 9, 36, 115
3, 34559, Note_on_c, 9, 36, 0
3, 34560, Note_on_c, 9, 36, 115
3, 35039, Note_on_c, 9, 36, 0
3, 35520, Note_on_c, 9, 36, 115
3, 35759, Note_on_c, 9, 36, 0
3, 35760, Note_on_c, 9, 36, 115
3, 35999, Note_on_c, 9, 36, 0
3, 36240, Note_on_c, 9, 36, 115
3, 36479, Note_on_c, 9, 36, 0
3, 36480, Note_on_c, 9, 36, 115
3, 36959, Note_on_c, 9, 36, 0
3, 37440, Note_on_c, 9, 36, 115
3, 37679, Note_on_c, 9, 36, 0
3, 37680, Note_on_c, 9, 36, 115
3, 37919, Note_on_c, 9, 36, 0
3, 38160, Note_on_c, 9, 36, 115
3, 38399, Note_on_c, 9, 36, 0
3, 38400, Note_on_c, 9, 36, 115
3, 38879, Note_on_c, 9, 36, 0
3, 39360, Note_on_c, 9, 36, 115
3, 39599, Note_on_c, 9, 36, 0
3, 39600, Note_on_c, 9, 36, 115
3, 39839, Note_on_c, 9, 36, 0
3, 40080, Note_on_c, 9, 36, 115
3, 40319, Note_on_c, 9, 36, 0
3, 40320, Note_on_c, 9, 36, 115
3, 40799, Note_on_c, 9, 36, 0
3, 41280, Note_on_c, 9, 36, 115
3, 41519, Note_on_c, 9, 36, 0
3, 41520, Note_on_c, 9, 36, 115
3, 41759, Note_on_c, 9, 36, 0
3, 42000, Note_on_c, 9, 36, 115
3, 42239, Note_on_c, 9, 36, 0
3, 42240, Note_on_c, 9, 36, 115
3, 42719, Note_on_c, 9, 36, 0
3, 43200, Note_on_c, 9, 36, 115
3, 43439, Note_on_c, 9, 36, 0
3, 43440, Note_on_c, 9, 36, 115
3, 43679, Note_on_c, 9, 36, 0
3, 43920, Note_on_c, 9, 36, 115
3, 44159, Note_on_c, 9, 36, 0
3, 44160, Note_on_c, 9, 36, 115
3, 44639, Note_on_c, 9, 36, 0
3, 45120, Note_on_c, 9, 36, 115
3, 45359, Note_on_c, 9, 36, 0
3, 45360, Note_on_c, 9, 36, 115
3, 45599, Note_on_c, 9, 36, 0
3, 45840, Note_on_c, 9, 36, 115
3, 46079, Note_on_c, 9, 36, 0
3, 46080, Note_on_c, 9, 36, 115
3, 46559, Note_on_c, 9, 36, 0
3, 47040, Note_on_c, 9, 36, 115
3, 47279, Note_on_c, 9, 36, 0
3, 47280, Note_on_c, 9, 36, 115
3, 47519, Note_on_c, 9, 36, 0
3, 47760, Note_on_c, 9, 36, 115
3, 47999, Note_on_c, 9, 36, 0
3, 48000, Note_on_c, 9, 36, 115
3, 48479, Note_on_c, 9, 36, 0
3, 48960, Note_on_c, 9, 36, 115
3, 49199, Note_on_c, 9, 36, 0
3, 49200, Note_on_c, 9, 36, 115
3, 49439, Note_on_c, 9, 36, 0
3, 49680, Note_on_c, 9, 36, 115
3, 49919, Note_on_c, 9, 36, 0
3, 49920, Note_on_c, 9, 36, 115
3, 50399, Note_on_c, 9, 36, 0
3, 50880, Note_on_c, 9, 36, 115
3, 51119, Note_on_c, 9, 36, 0
3, 51120, Note_on_c, 9, 36, 115
3, 51359, Note_on_c, 9, 36, 0
3, 51600, Note_on_c, 9, 36, 115
3, 51839, Note_on_c, 9, 36, 0
3, 51840, Note_on_c, 9, 36, 115
3, 52319, Note_on_c, 9, 36, 0
3, 52800, Note_on_c, 9, 36, 115
3, 53039, Note_on_c, 9, 36, 0
3, 53040, Note_on_c, 9, 36, 115
3, 53279, Note_on_c, 9, 36, 0
3, 53520, Note_on_c, 9, 36, 115
3, 53759, Note_on_c, 9, 36, 0
3, 53760, Note_on_c, 9, 36, 115
3, 54239, Note_on_c, 9, 36, 0
3, 54720, Note_on_c, 9, 36, 115
3, 54959, Note_on_c, 9, 36, 0
3, 54960, Note_on_c, 9, 36, 115
3, 55199, Note_on_c, 9, 36, 0
3, 55440, Note_on_c, 9, 36, 115
3, 55679, Note_on_c, 9, 36, 0
3, 55680, Note_on_c, 9, 36, 115
3, 56159, Note_on_c, 9, 36, 0
3, 56640, Note_on_c, 9, 36, 115
3, 56879, Note_on_c, 9, 36, 0
3, 56880, Note_on_c, 9, 36, 115
3, 57119, Note_on_c, 9, 36, 0
3, 57360, Note_on_c, 9, 36, 115
3, 57599, Note_on_c, 9, 36, 0
3, 57600, Note_on_c, 9, 36, 115
3, 58079, Note_on_c, 9, 36, 0
3, 58560, Note_on_c, 9, 36, 115
3, 58799, Note_on_c, 9, 36, 0
3, 58800, Note_on_c, 9, 36, 115
3, 59039, Note_on_c, 9, 36, 0
3, 59280, Note_on_c, 9, 36, 115
3, 59519, Note_on_c, 9, 36, 0
3, 59520, Note_on_c, 9, 36, 115
3, 59999, Note_on_c, 9, 36, 0
3, 60480, Note_on_c, 9, 36, 115
3, 60719, Note_on_c, 9, 36, 0
3, 60720, Note_on_c, 9, 36, 115
3, 60959, Note_on_c, 9, 36, 0
3, 61200, Note_on_c, 9, 36, 115
3, 61439, Note_on_c, 9, 36, 0
3, 61440, Note_on_c, 9, 36, 115
3, 61919, Note_on_c, 9, 36, 0
3, 62400, Note_on_c, 9, 36, 115
3, 62639, Note_on_c, 9, 36, 0
3, 62640, Note_on_c, 9, 36, 115
3, 62879, Note_on_c, 9, 36, 0
3, 63120, Note_on_c, 9, 36, 115
3, 63359, Note_on_c, 9, 36, 0
3, 63360, Note_on_c, 9, 36, 115
3, 63839, Note_on_c, 9, 36, 0
3, 64320, Note_on_c, 9, 36, 115
3, 64559, Note_on_c, 9, 36, 0
3, 64560, Note_on_c, 9, 36, 115
3, 64799, Note_on_c, 9, 36, 0
3, 65040, Note_on_c, 9, 36, 115
3, 65279, Note_on_c, 9, 36, 0
3, 65280, Note_on_c, 9, 36, 115
3, 65759, Note_on_c, 9, 36, 0
3, 66240, Note_on_c, 9, 36, 115
3, 66479, Note_on_c, 9, 36, 0
3, 66480, Note_on_c, 9, 36, 115
3, 66719, Note_on_c, 9, 36, 0
3, 66960, Note_on_c, 9, 36, 115
3, 67199, Note_on_c, 9, 36, 0
3, 67200, Note_on_c, 9, 36, 115
3, 67679, Note_on_c, 9, 36, 0
3, 68160, Note_on_c, 9, 36, 115
3, 68399, Note_on_c, 9, 36, 0
3, 68400, Note_on_c, 9, 36, 115
3, 68639, Note_on_c, 9, 36, 0
3, 68880, Note_on_c, 9, 36, 115
3, 69119, Note_on_c, 9, 36, 0
3, 69120, Note_on_c, 9, 36, 115
3, 69599, Note_on_c, 9, 36, 0
3, 70080, Note_on_c, 9, 36, 115
3, 70319, Note_on_c, 9, 36, 0
3, 70320, Note_on_c, 9, 36, 115
3, 70559, Note_on_c, 9, 36, 0
3, 70800, Note_on_c, 9, 36, 115
3, 71039, Note_on_c, 9, 36, 0
3, 71040, Note_on_c, 9, 36, 115
3, 71519, Note_on_c, 9, 36, 0
3, 72000, Note_on_c, 9, 36, 115
3, 72239, Note_on_c, 9, 36, 0
3, 72240, Note_on_c, 9, 36, 115
3, 72479, Note_on_c, 9, 36, 0
3, 72720, Note_on_c, 9, 36, 115
3, 72959, Note_on_c, 9, 36, 0
3, 72960, Note_on_c, 9, 36, 115
3, 73439, Note_on_c, 9, 36, 0
3, 73920, Note_on_c, 9, 36, 115
3, 74159, Note_on_c, 9, 36, 0
3, 74160, Note_on_c, 9, 36, 115
3, 74399, Note_on_c, 9, 36, 0
3, 74640, Note_on_c, 9, 36, 115
3, 74879, Note_on_c, 9, 36, 0
3, 74880, Note_on_c, 9, 36, 115
3, 75359, Note_on_c, 9, 36, 0
3, 75840, Note_on_c, 9, 36, 115
3, 76079, Note_on_c, 9, 36, 0
3, 76080, Note_on_c, 9, 36, 115
3, 76319, Note_on_c, 9, 36, 0
3, 76560, Note_on_c, 9, 36, 115
3, 76799, Note_on_c, 9, 36, 0
3, 76800, Note_on_c, 9, 36, 115
3, 77279, Note_on_c, 9, 36, 0
3, 77760, Note_on_c, 9, 36, 115
3, 77999, Note_on_c, 9, 36, 0
3, 78000, Note_on_c, 9, 36, 115
3, 78239, Note_on_c, 9, 36, 0
3, 78480, Note_on_c, 9, 36, 115
3, 78719, Note_on_c, 9, 36, 0
3, 78720, Note_on_c, 9, 36, 115
3, 79199, Note_on_c, 9, 36, 0
3, 79680, Note_on_c, 9, 36, 115
3, 79919, Note_on_c, 9, 36, 0
3, 79920, Note_on_c, 9, 36, 115
3, 80159, Note_on_c, 9, 36, 0
3, 80400, Note_on_c, 9, 36, 115
3, 80639, Note_on_c, 9, 36, 0
3, 80640, Note_on_c, 9, 36, 115
3, 81119, Note_on_c, 9, 36, 0
3, 81600, Note_on_c, 9, 36, 115
3, 81839, Note_on_c, 9, 36, 0
3, 81840, Note_on_c, 9, 36, 115
3, 82079, Note_on_c, 9, 36, 0
3, 82320, Note_on_c, 9, 36, 115
3, 82559, Note_on_c, 9, 36, 0
3, 82560, Note_on_c, 9, 36, 115
3, 83039, Note_on_c, 9, 36, 0
3, 83520, Note_on_c, 9, 36, 115
3, 83759, Note_on_c, 9, 36, 0
3, 83760, Note_on_c, 9, 36, 115
3, 83999, Note_on_c, 9, 36, 0
3, 84240, Note_on_c, 9, 36, 115
3, 84479, Note_on_c, 9, 36, 0
3, 84480, Note_on_c, 9, 36, 115
3, 84959, Note_on_c, 9, 36, 0
3, 85440, Note_on_c, 9, 36, 115
3, 85679, Note_on_c, 9, 36, 0
3, 85680, Note_on_c, 9, 36, 115
3, 85919, Note_on_c, 9, 36, 0
3, 86160, Note_on_c, 9, 36, 115
3, 86399, Note_on_c, 9, 36, 0
3, 86400, Note_on_c, 9, 36, 115
3, 86879, Note_on_c, 9, 36, 0
3, 87360, Note_on_c, 9, 36, 115
3, 87599, Note_on_c, 9, 36, 0
3, 87600, Note_on_c, 9, 36, 115
3, 87839, Note_on_c, 9, 36, 0
3, 88080, Note_on_c, 9, 36, 115
3, 88319, Note_on_c, 9, 36, 0
3, 88320, Note_on_c, 9, 36, 115
3, 88799, Note_on_c, 9, 36, 0
3, 89280, Note_on_c, 9, 36, 115
3, 89519, Note_on_c, 9, 36, 0
3, 89520, Note_on_c, 9, 36, 115
3, 89759, Note_on_c, 9, 36, 0
3, 90000, Note_on_c, 9, 36, 115
3, 90239, Note_on_c, 9, 36, 0
3, 90240, Note_on_c, 9, 36, 115
3, 90719, Note_on_c, 9, 36, 0
3, 91200, Note_on_c, 9, 36, 115
3, 91439, Note_on_c, 9, 36, 0
3, 91440, Note_on_c, 9, 36, 115
3, 91679, Note_on_c, 9, 36, 0
3, 91920, Note_on_c, 9, 36, 115
3, 92159, Note_on_c, 9, 36, 0
3, 92160, Note_on_c, 9, 36, 115
3, 92639, Note_on_c, 9, 36, 0
3, 93120, Note_on_c, 9, 36, 115
3, 93359, Note_on_c, 9, 36, 0
3, 93360, Note_on_c, 9, 36, 115
3, 93599, Note_on_c, 9, 36, 0
3, 93840, Note_on_c, 9, 36, 115
3, 94079, Note_on_c, 9, 36, 0
3, 94080, Note_on_c, 9, 36, 115
3, 94559, Note_on_c, 9, 36, 0
3, 95040, Note_on_c, 9, 36, 115
3, 95279, Note_on_c, 9, 36, 0
3, 95280, Note_on_c, 9, 36, 115
3, 95519, Note_on_c, 9, 36, 0
3, 95760, Note_on_c, 9, 36, 115
3, 95999, Note_on_c, 9, 36, 0
3, 96000, Note_on_c, 9, 36, 115
3, 96479, Note_on_c, 9, 36, 0
3, 96960, Note_on_c, 9, 36, 115
3, 97199, Note_on_c, 9, 36, 0
3, 97200, Note_on_c, 9, 36, 115
3, 97439, Note_on_c, 9, 36, 0
3, 97680, Note_on_c, 9, 36, 115
3, 97919, Note_on_c, 9, 36, 0
3, 97920, Note_on_c, 9, 36, 115
3, 98399, Note_on_c, 9, 36, 0
3, 98880, Note_on_c, 9, 36, 115
3, 99119, Note_on_c, 9, 36, 0
3, 99120, Note_on_c, 9, 36, 115
3, 99359, Note_on_c, 9, 36, 0
3, 99600, Note_on_c, 9, 36, 115
3, 99839, Note_on_c, 9, 36, 0
3, 99840, Note_on_c, 9, 36, 115
3, 100319, Note_on_c, 9, 36, 0
3, 100800, Note_on_c, 9, 36, 115
3, 101039, Note_on_c, 9, 36, 0
3, 101040, Note_on_c, 9, 36, 115
3, 101279, Note_on_c, 9, 36, 0
3, 101520, Note_on_c, 9, 36, 115
3, 101759, Note_on_c, 9, 36, 0
3, 101760, Note_on_c, 9, 36, 115
3, 102239, Note_on_c, 9, 36, 0
3, 102720, Note_on_c, 9, 36, 115
3, 102959, Note_on_c, 9, 36, 0
3, 102960, Note_on_c, 9, 36, 115
3, 103199, Note_on_c, 9, 36, 0
3, 103440, Note_on_c, 9, 36, 115
3, 103679, Note_on_c, 9, 36, 0
3, 103680, Note_on_c, 9, 36, 115
3, 104159, Note_on_c, 9, 36, 0
3, 104640, Note_on_c, 9, 36, 115
3, 104879, Note_on_c, 9, 36, 0
3, 104880, Note_on_c, 9, 36, 115
3, 105119, Note_on_c, 9, 36, 0
3, 105360, Note_on_c, 9, 36, 115
3, 105599, Note_on_c, 9, 36, 0
3, 105600, Note_on_c, 9, 36, 115
3, 106079, Note_on_c, 9, 36, 0
3, 106560, Note_on_c, 9, 36, 115
3, 106799, Note_on_c, 9, 36, 0
3, 106800, Note_on_c, 9, 36, 115
3, 107039, Note_on_c, 9, 36, 0
3, 107280, Note_on_c, 9, 36, 115
3, 107519, Note_on_c, 9, 36, 0
3, 107520, Note_on_c, 9, 36, 115
3, 107999, Note_on_c, 9, 36, 0
3, 108480, Note_on_c, 9, 36, 115
3, 108719, Note_on_c, 9, 36, 0
3, 108720, Note_on_c, 9, 36, 115
3, 108959, Note_on_c, 9, 36, 0
3, 109200, Note_on_c, 9, 36, 115
3, 109439, Note_on_c, 9, 36, 0
3, 109440, Note_on_c, 9, 36, 115
3, 109919, Note_on_c, 9, 36, 0
3, 110400, Note_on_c, 9, 36, 115
3, 110639, Note_on_c, 9, 36, 0
3, 110640, Note_on_c, 9, 36, 115
3, 110879, Note_on_c, 9, 36, 0
3, 111120, Note_on_c, 9, 36, 115
3, 111359, Note_on_c, 9, 36, 0
3, 111360, Note_on_c, 9, 36, 115
3, 111839, Note_on_c, 9, 36, 0
3, 112320, Note_on_c, 9, 36, 115
3, 112559, Note_on_c, 9, 36, 0
3, 112560, Note_on_c, 9, 36, 115
3, 112799, Note_on_c, 9, 36, 0
3, 113040, Note_on_c, 9, 36, 115
3, 113279, Note_on_c, 9, 36, 0
3, 113280, Note_on_c, 9, 36, 115
3, 113759, Note_on_c, 9, 36, 0
3, 114240, Note_on_c, 9, 36, 115
3, 114479, Note_on_c, 9, 36, 0
3, 114480, Note_on_c, 9, 36, 115
3, 114719, Note_on_c, 9, 36, 0
3, 114960, Note_on_c, 9, 36, 115
3, 115199, Note_on_c, 9, 36, 0
3, 115200, Note_on_c, 9, 36, 115
3, 115679, Note_on_c, 9, 36, 0
3, 116160, Note_on_c, 9, 36, 115
3, 116399, Note_on_c, 9, 36, 0
3, 116400, Note_on_c, 9, 36, 115
3, 116639, Note_on_c, 9, 36, 0
3, 116880, Note_on_c, 9, 36, 115
3, 117119, Note_on_c, 9, 36, 0
3, 117120, Note_on_c, 9, 36, 115
3, 117599, Note_on_c, 9, 36, 0
3, 118080, Note_on_c, 9, 36, 115
3, 118319, Note_on_c, 9, 36, 0
3, 118320, Note_on_c, 9, 36, 115
3, 118559, Note_on_c, 9, 36, 0
3, 118800, Note_on_c, 9, 36, 115
3, 119039, Note_on_c, 9, 36, 0
3, 119040, Note_on_c, 9, 36, 115
3, 119519, Note_on_c, 9, 36, 0
3, 120000, Note_on_c, 9, 36, 115
3, 120239, Note_on_c, 9, 36, 0
3, 120240, Note_on_c, 9, 36, 115
3, 120479, Note_on_c, 9, 36, 0
3, 120720, Note_on_c, 9, 36, 115
3, 120959, Note_on_c, 9, 36, 0
3, 120960, Note_on_c, 9, 36, 115
3, 121439, Note_on_c, 9, 36, 0
3, 121920, Note_on_c, 9, 36, 115
3, 122159, Note_on_c, 9, 36, 0
3, 122160, Note_on_c, 9, 36, 115
3, 122399, Note_on_c, 9, 36, 0
3, 122640, Note_on_c, 9, 36, 115
3, 122879, Note_on_c, 9, 36, 0
3, 122880, Note_on_c, 9, 36, 115
3, 123359, Note_on_c, 9, 36, 0
3, 123840, Note_on_c, 9, 36, 115
3, 124079, Note_on_c, 9, 36, 0
3, 124080, Note_on_c, 9, 36, 115
3, 124319, Note_on_c, 9, 36, 0
3, 124560, Note_on_c, 9, 36, 115
3, 124799, Note_on_c, 9, 36, 0
3, 124800, Note_on_c, 9, 36, 115
3, 125279, Note_on_c, 9, 36, 0
3, 125760, Note_on_c, 9, 36, 115
3, 125999, Note_on_c, 9, 36, 0
3, 126000, Note_on_c, 9, 36, 115
3, 126239, Note_on_c, 9, 36, 0
3, 126480, Note_on_c, 9, 36, 115
3, 126719, Note_on_c, 9, 36, 0
3, 126720, Note_on_c, 9, 36, 115
3, 127199, Note_on_c, 9, 36, 0
3, 127680, Note_on_c, 9, 36, 115
3, 127919, Note_on_c, 9, 36, 0
3, 127920, Note_on_c, 9, 36, 115
3, 128159, Note_on_c, 9, 36, 0
3, 128400, Note_on_c, 9, 36, 115
3, 128639, Note_on_c, 9, 36, 0
3, 128640, Note_on_c, 9, 36, 115
3, 129119, Note_on_c, 9, 36, 0
3, 129600, Note_on_c, 9, 36, 115
3, 129839, Note_on_c, 9, 36, 0
3, 129840, Note_on_c, 9, 36, 115
3, 130079, Note_on_c, 9, 36, 0
3, 130320, Note_on_c, 9, 36, 115
3, 130559, Note_on_c, 9, 36, 0
3, 130560, Note_on_c, 9, 36, 115
3, 131039, Note_on_c, 9, 36, 0
3, 131520, Note_on_c, 9, 36, 115
3, 131759, Note_on_c, 9, 36, 0
3, 131760, Note_on_c, 9, 36, 115
3, 131999, Note_on_c, 9, 36, 0
3, 132240, Note_on_c, 9, 36, 115
3, 132479, Note_on_c, 9, 36, 0
3, 132480, Note_on_c, 9, 36, 115
3, 132959, Note_on_c, 9, 36, 0
3, 133440, Note_on_c, 9, 36, 115
3, 133679, Note_on_c, 9, 36, 0
3, 133680, Note_on_c, 9, 36, 115
3, 133919, Note_on_c, 9, 36, 0
3, 134160, Note_on_c, 9, 36, 115
3, 134399, Note_on_c, 9, 36, 0
3, 134400, Note_on_c, 9, 36, 115
3, 134879, Note_on_c, 9, 36, 0
3, 135360, Note_on_c, 9, 36, 115
3, 135599, Note_on_c, 9, 36, 0
3, 135600, Note_on_c, 9, 36, 115
3, 135839, Note_on_c, 9, 36, 0
3, 136080, Note_on_c, 9, 36, 115
3, 136319, Note_on_c, 9, 36, 0
3, 136320, Note_on_c, 9, 36, 115
3, 136799, Note_on_c, 9, 36, 0
3, 137280, Note_on_c, 9, 36, 115
3, 137519, Note_on_c, 9, 36, 0
3, 137520, Note_on_c, 9, 36, 115
3, 137759, Note_on_c, 9, 36, 0
3, 138000, Note_on_c, 9, 36, 115
3, 138239, Note_on_c, 9, 36, 0
3, 138240, Note_on_c, 9, 36, 115
3, 138719, Note_on_c, 9, 36, 0
3, 139200, Note_on_c, 9, 36, 115
3, 139439, Note_on_c, 9, 36, 0
3, 139440, Note_on_c, 9, 36, 115
3, 139679, Note_on_c, 9, 36, 0
3, 139920, Note_on_c, 9, 36, 115
3, 140159, Note_on_c, 9, 36, 0
3, 140160, Note_on_c, 9, 36, 115
3, 140639, Note_on_c, 9, 36, 0
3, 141120, Note_on_c, 9, 36, 115
3, 141359, Note_on_c, 9, 36, 0
3, 141360, Note_on_c, 9, 36, 115
3, 141599, Note_on_c, 9, 36, 0
3, 141840, Note_on_c, 9, 36, 115
3, 142079, Note_on_c, 9, 36, 0
3, 142080, Note_on_c, 9, 36, 115
3, 142559, Note_on_c, 9, 36, 0
3, 143040, Note_on_c, 9, 36, 115
3, 143279, Note_on_c, 9, 36, 0
3, 143280, Note_on_c, 9, 36, 115
3, 143519, Note_on_c, 9, 36, 0
3, 143760, Note_on_c, 9, 36, 115
3, 143999, Note_on_c, 9, 36, 0
3, 144000, Note_on_c, 9, 36, 115
3, 144479, Note_on_c, 9, 36, 0
3, 144960, Note_on_c, 9, 36, 115
3, 145199, Note_on_c, 9, 36, 0
3, 145200, Note_on_c, 9, 36, 115
3, 145439, Note_on_c, 9, 36, 0
3, 145680, Note_on_c, 9, 36, 115
3, 145919, Note_on_c, 9, 36, 0
3, 145920, Note_on_c, 9, 36, 115
3, 146399, Note_on_c, 9, 36, 0
3, 146880, Note_on_c, 9, 36, 115
3, 147119, Note_on_c, 9, 36, 0
3, 147120, Note_on_c, 9, 36, 115
3, 147359, Note_on_c, 9, 36, 0
3, 147600, Note_on_c, 9, 36, 115
3, 147839, Note_on_c, 9, 36, 0
3, 147840, Note_on_c, 9, 36, 115
3, 148319, Note_on_c, 9, 36, 0
3, 148800, Note_on_c, 9, 36, 115
3, 149039, Note_on_c, 9, 36, 0
3, 149040, Note_on_c, 9, 36, 115
3, 149279, Note_on_c, 9, 36, 0
3, 149520, Note_on_c, 9, 36, 115
3, 149759, Note_on_c, 9, 36, 0
3, 149760, Note_on_c, 9, 36, 115
3, 150239, Note_on_c, 9, 36, 0
3, 150720, Note_on_c, 9, 36, 115
3, 150959, Note_on_c, 9, 36, 0
3, 150960, Note_on_c, 9, 36, 115
3, 151199, Note_on_c, 9, 36, 0
3, 151440, Note_on_c, 9, 36, 115
3, 151679, Note_on_c, 9, 36, 0
3, 151680, Note_on_c, 9, 36, 115
3, 152159, Note_on_c, 9, 36, 0
3, 152640, Note_on_c, 9, 36, 115
3, 152879, Note_on_c, 9, 36, 0
3, 152880, Note_on_c, 9, 36, 115
3, 153119, Note_on_c, 9, 36, 0
3, 153360, Note_on_c, 9, 36, 115
3, 153599, Note_on_c, 9, 36, 0
3, 153600, Note_on_c, 9, 36, 115
3, 154079, Note_on_c, 9, 36, 0
3, 154560, Note_on_c, 9, 36, 115
3, 154799, Note_on_c, 9, 36, 0
3, 154800, Note_on_c, 9, 36, 115
3, 155039, Note_on_c, 9, 36, 0
3, 155280, Note_on_c, 9, 36, 115
3, 155519, Note_on_c, 9, 36, 0
3, 155520, Note_on_c, 9, 36, 115
3, 155999, Note_on_c, 9, 36, 0
3, 156480, Note_on_c, 9, 36, 115
3, 156719, Note_on_c, 9, 36, 0
3, 156720, Note_on_c, 9, 36, 115
3, 156959, Note_on_c, 9, 36, 0
3, 157200, Note_on_c, 9, 36, 115
3, 157439, Note_on_c, 9, 36, 0
3, 157440, Note_on_c, 9, 36, 115
3, 157919, Note_on_c, 9, 36, 0
3, 158400, Note_on_c, 9, 36, 115
3, 158639, Note_on_c, 9, 36, 0
3, 158640, Note_on_c, 9, 36, 115
3, 158879, Note_on_c, 9, 36, 0
3, 159120, Note_on_c, 9, 36, 115
3, 159359, Note_on_c, 9, 36, 0
3, 159360, Note_on_c, 9, 36, 115
3, 159839, Note_on_c, 9, 36, 0
3, 160320, Note_on_c, 9, 36, 115
3, 160559, Note_on_c, 9, 36, 0
3, 160560, Note_on_c, 9, 36, 115
3, 160799, Note_on_c, 9, 36, 0
3, 161040, Note_on_c, 9, 36, 115
3, 161279, Note_on_c, 9, 36, 0
3, 161280, Note_on_c, 9, 36, 115
3, 161759, Note_on_c, 9, 36, 0
3, 162240, Note_on_c, 9, 36, 115
3, 162479, Note_on_c, 9, 36, 0
3, 162480, Note_on_c, 9, 36, 115
3, 162719, Note_on_c, 9, 36, 0
3, 162960, Note_on_c, 9, 36, 115
3, 163199, Note_on_c, 9, 36, 0
3, 163200, Note_on_c, 9, 36, 115
3, 163679, Note_on_c, 9, 36, 0
3, 164160, Note_on_c, 9, 36, 115
3, 164399, Note_on_c, 9, 36, 0
3, 164400, Note_on_c, 9, 36, 115
3, 164639, Note_on_c, 9, 36, 0
3, 164880, Note_on_c, 9, 36, 115
3, 165119, Note_on_c, 9, 36, 0
3, 165120, Note_on_c, 9, 36, 115
3, 165599, Note_on_c, 9, 36, 0
3, 166080, Note_on_c, 9, 36, 115
3, 166319, Note_on_c, 9, 36, 0
3, 166320, Note_on_c, 9, 36, 115
3, 166559, Note_on_c, 9, 36, 0
3, 166800, Note_on_c, 9, 36, 115
3, 167039, Note_on_c, 9, 36, 0
3, 167040, Note_on_c, 9, 36, 115
3, 167519, Note_on_c, 9, 36, 0
3, 168000, Note_on_c, 9, 36, 115
3, 168239, Note_on_c, 9, 36, 0
3, 168240, Note_on_c, 9, 36, 115
3, 168479, Note_on_c, 9, 36, 0
3, 168720, Note_on_c, 9, 36, 115
3, 168959, Note_on_c, 9, 36, 0
3, 168960, Note_on_c, 9, 36, 115
3, 169439, Note_on_c, 9, 36, 0
3, 169920, Note_on_c, 9, 36, 115
3, 170159, Note_on_c, 9, 36, 0
3, 170160, Note_on_c, 9, 36, 115
3, 170399, Note_on_c, 9, 36, 0
3, 170640, Note_on_c, 9, 36, 115
3, 170879, Note_on_c, 9, 36, 0
3, 170880, Note_on_c, 9, 36, 115
3, 171359, Note_on_c, 9, 36, 0
3, 171840, Note_on_c, 9, 36, 115
3, 172079, Note_on_c, 9, 36, 0
3, 172080, Note_on_c, 9, 36, 115
3, 172319, Note_on_c, 9, 36, 0
3, 172560, Note_on_c, 9, 36, 115
3, 172799, Note_on_c, 9, 36, 0
3, 172800, Note_on_c, 9, 36, 115
3, 173279, Note_on_c, 9, 36, 0
3, 173760, Note_on_c, 9, 36, 115
3, 173999, Note_on_c, 9, 36, 0
3, 174000, Note_on_c, 9, 36, 115
3, 174239, Note_on_c, 9, 36, 0
3, 174480, Note_on_c, 9, 36, 115
3, 174719, Note_on_c, 9, 36, 0
3, 174720, Note_on_c, 9, 36, 115
3, 175199, Note_on_c, 9, 36, 0
3, 175680, Note_on_c, 9, 36, 115
3, 175919, Note_on_c, 9, 36, 0
3, 175920, Note_on_c, 9, 36, 115
3, 176159, Note_on_c, 9, 36, 0
3, 176400, Note_on_c, 9, 36, 115
3, 176639, Note_on_c, 9, 36, 0
3, 176640, Note_on_c, 9, 36, 115
3, 177119, Note_on_c, 9, 36, 0
3, 177600, Note_on_c, 9, 36, 115
3, 177839, Note_on_c, 9, 36, 0
3, 177840, Note_on_c, 9, 36, 115
3, 178079, Note_on_c, 9, 36, 0
3, 178320, Note_on_c, 9, 36, 115
3, 178559, Note_on_c, 9, 36, 0
3, 178560, Note_on_c, 9, 36, 115
3, 179039, Note_on_c, 9, 36, 0
3, 179520, Note_on_c, 9, 36, 115
3, 179759, Note_on_c, 9, 36, 0
3, 179760, Note_on_c, 9, 36, 115
3, 179999, Note_on_c, 9, 36, 0
3, 180240, Note_on_c, 9, 36, 115
3, 180479, Note_on_c, 9, 36, 0
3, 180480, Note_on_c, 9, 36, 115
3, 180959, Note_on_c, 9, 36, 0
3, 181440, Note_on_c, 9, 36, 115
3, 181679, Note_on_c, 9, 36, 0
3, 181680, Note_on_c, 9, 36, 115
3, 181919, Note_on_c, 9, 36, 0
3, 182160, Note_on_c, 9, 36, 115
3, 182399, Note_on_c, 9, 36, 0
3, 182400, Note_on_c, 9, 36, 115
3, 182879, Note_on_c, 9, 36, 0
3, 183360, Note_on_c, 9, 36, 115
3, 183599, Note_on_c, 9, 36, 0
3, 183600, Note_on_c, 9, 36, 115
3, 183839, Note_on_c, 9, 36, 0
3, 184080, Note_on_c, 9, 36, 115
3, 184319, Note_on_c, 9, 36, 0
3, 184320, Note_on_c, 9, 36, 115
3, 184799, Note_on_c, 9, 36, 0
3, 185280, Note_on_c, 9, 36, 115
3, 185519, Note_on_c, 9, 36, 0
3, 185520, Note_on_c, 9, 36, 115
3, 185759, Note_on_c, 9, 36, 0
3, 186000, Note_on_c, 9, 36, 115
3, 186239, Note_on_c, 9, 36, 0
3, 186240, Note_on_c, 9, 36, 115
3, 186719, Note_on_c, 9, 36, 0
3, 187200, Note_on_c, 9, 36, 115
3, 187439, Note_on_c, 9, 36, 0
3, 187440, Note_on_c, 9, 36, 115
3, 187679, Note_on_c, 9, 36, 0
3, 187920, Note_on_c, 9, 36, 115
3, 188159, Note_on_c, 9, 36, 0
3, 188160, Note_on_c, 9, 36, 115
3, 188639, Note_on_c, 9, 36, 0
3, 189120, Note_on_c, 9, 36, 115
3, 189359, Note_on_c, 9, 36, 0
3, 189360, Note_on_c, 9, 36, 115
3, 189599, Note_on_c, 9, 36, 0
3, 189840, Note_on_c, 9, 36, 115
3, 190079, Note_on_c, 9, 36, 0
3, 190080, Note_on_c, 9, 36, 115
3, 190559, Note_on_c, 9, 36, 0
3, 191040, Note_on_c, 9, 36, 115
3, 191279, Note_on_c, 9, 36, 0
3, 191280, Note_on_c, 9, 36, 115
3, 191519, Note_on_c, 9, 36, 0
3, 191760, Note_on_c, 9, 36, 115
3, 191999, Note_on_c, 9, 36, 0
3, 192000, Note_on_c, 9, 36, 115
3, 192479, Note_on_c, 9, 36, 0
3, 192960, Note_on_c, 9, 36, 115
3, 193199, Note_on_c, 9, 36, 0
3, 193200, Note_on_c, 9, 36, 115
3, 193439, Note_on_c, 9, 36, 0
3, 193680, Note_on_c, 9, 36, 115
3, 193919, Note_on_c, 9, 36, 0
3, 193920, Note_on_c, 9, 36, 115
3, 194399, Note_on_c, 9, 36, 0
3, 194880, Note_on_c, 9, 36, 115
3, 195119, Note_on_c, 9, 36, 0
3, 195120, Note_on_c, 9, 36, 115
3, 195359, Note_on_c, 9, 36, 0
3, 195600, Note_on_c, 9, 36, 115
3, 195839, Note_on_c, 9, 36, 0
3, 195840, Note_on_c, 9, 36, 115
3, 196319, Note_on_c, 9, 36, 0
3, 196800, Note_on_c, 9, 36, 115
3, 197039, Note_on_c, 9, 36, 0
3, 197040, Note_on_c, 9, 36, 115
3, 197279, Note_on_c, 9, 36, 0
3, 197520, Note_on_c, 9, 36, 115
3, 197759, Note_on_c, 9, 36, 0
3, 197760, Note_on_c, 9, 36, 115
3, 198239, Note_on_c, 9, 36, 0
3, 198720, Note_on_c, 9, 36, 115
3, 198959, Note_on_c, 9, 36, 0
3, 198960, Note_on_c, 9, 36, 115
3, 199199, Note_on_c, 9, 36, 0
3, 199440, Note_on_c, 9, 36, 115
3, 199679, Note_on_c, 9, 36, 0
3, 199680, Note_on_c, 9, 36, 115
3, 200159, Note_on_c, 9, 36, 0
3, 200640, Note_on_c, 9, 36, 115
3, 200879, Note_on_c, 9, 36, 0
3, 200880, Note_on_c, 9, 36, 115
3, 201119, Note_on_c, 9, 36, 0
3, 201360, Note_on_c, 9, 36, 115
3, 201599, Note_on_c, 9, 36, 0
3, 201600, Note_on_c, 9, 36, 115
3, 202079, Note_on_c, 9, 36, 0
3, 202560, Note_on_c, 9, 36, 115
3, 202799, Note_on_c, 9, 36, 0
3, 202800, Note_on_c, 9, 36, 115
3, 203039, Note_on_c, 9, 36, 0
3, 203280, Note_on_c, 9, 36, 115
3, 203519, Note_on_c, 9, 36, 0
3, 203520, Note_on_c, 9, 36, 115
3, 203999, Note_on_c, 9, 36, 0
3, 204480, Note_on_c, 9, 36, 115
3, 204719, Note_on_c, 9, 36, 0
3, 204720, Note_on_c, 9, 36, 115
3, 204959, Note_on_c, 9, 36, 0
3, 205200, Note_on_c, 9, 36, 115
3, 205439, Note_on_c, 9, 36, 0
3, 205440, Note_on_c, 9, 36, 115
3, 205919, Note_on_c, 9, 36, 0
3, 206400, Note_on_c, 9, 36, 115
3, 206639, Note_on_c, 9, 36, 0
3, 206640, Note_on_c, 9, 36, 115
3, 206879, Note_on_c, 9, 36, 0
3, 207120, Note_on_c, 9, 36, 115
3, 207359, Note_on_c, 9, 36, 0
3, 207360, Note_on_c, 9, 36, 115
3, 207839, Note_on_c, 9, 36, 0
3, 208320, Note_on_c, 9, 36, 115
3, 208559, Note_on_c, 9, 36, 0
3, 208560, Note_on_c, 9, 36, 115
3, 208799, Note_on_c, 9, 36, 0
3, 209040, Note_on_c, 9, 36, 115
3, 209279, Note_on_c, 9, 36, 0
3, 209280, Note_on_c, 9, 36, 115
3, 209759, Note_on_c, 9, 36, 0
3, 210240, Note_on_c, 9, 36, 115
3, 210479, Note_on_c, 9, 36, 0
3, 210480, Note_on_c, 9, 36, 115
3, 210719, Note_on_c, 9, 36, 0
3, 210960, Note_on_c, 9, 36, 115
3, 211199, Note_on_c, 9, 36, 0
3, 211200, Note_on_c, 9, 36, 115
3, 211679, Note_on_c, 9, 36, 0
3, 212160, Note_on_c, 9, 36, 115
3, 212399, Note_on_c, 9, 36, 0
3, 212400, Note_on_c, 9, 36, 115
3, 212639, Note_on_c, 9, 36, 0
3, 212880, Note_on_c, 9, 36, 115
3, 213119, Note_on_c, 9, 36, 0
3, 213120, Note_on_c, 9, 36, 115
3, 213599, Note_on_c, 9, 36, 0
3, 214080, Note_on_c, 9, 36, 115
3, 214319, Note_on_c, 9, 36, 0
3, 214320, Note_on_c, 9, 36, 115
3, 214559, Note_on_c, 9, 36, 0
3, 214800, Note_on_c, 9, 36, 115
3, 215039, Note_on_c, 9, 36, 0
3, 215040, Note_on_c, 9, 36, 115
3, 215519, Note_on_c, 9, 36, 0
3, 216000, Note_on_c, 9, 36, 115
3, 216239, Note_on_c, 9, 36, 0
3, 216240, Note_on_c, 9, 36, 115
3, 216479, Note_on_c, 9, 36, 0
3, 216720, Note_on_c, 9, 36, 115
3, 216959, Note_on_c, 9, 36, 0
3, 216960, Note_on_c, 9, 36, 115
3, 217439, Note_on_c, 9, 36, 0
3, 217920, Note_on_c, 9, 36, 115
3, 218159, Note_on_c, 9, 36, 0
3, 218160, Note_on_c, 9, 36, 115
3, 218399, Note_on_c, 9, 36, 0
3, 218640, Note_on_c, 9, 36, 115
3, 218879, Note_on_c, 9, 36, 0
3, 218880, End_track
4, 0, Start_track
4, 0, Key_signature, 0, "major"
4, 0, Control_c, 9, 121, 0
4, 0, Program_c, 9, 0
4, 0, Control_c, 9, 7, 100
4, 0, Control_c, 9, 10, 64
4, 0, Control_c, 9, 91, 0
4, 0, Control_c, 9, 93, 0
4, 0, MIDI_port, 0
4, 3840, Note_on_c, 9, 70, 115
4, 3959, Note_on_c, 9, 70, 0
4, 3960, Note_on_c, 9, 70, 115
4, 4079, Note_on_c, 9, 70, 0
4, 4080, Note_on_c, 9, 70, 115
4, 4199, Note_on_c, 9, 70, 0
4, 4200, Note_on_c, 9, 70, 115
4, 4319, Note_on_c, 9, 70, 0
4, 4320, Note_on_c, 9, 70, 115
4, 4439, Note_on_c, 9, 70, 0
4, 4440, Note_on_c, 9, 70, 115
4, 4559, Note_on_c, 9, 70, 0
4, 4560, Note_on_c, 9, 70, 115
4, 4679, Note_on_c, 9, 70, 0
4, 4680, Note_on_c, 9, 70, 115
4, 4799, Note_on_c, 9, 70, 0
4, 4800, Note_on_c, 9, 70, 115
4, 4919, Note_on_c, 9, 70, 0
4, 4920, Note_on_c, 9, 70, 115
4, 5039, Note_on_c, 9, 70, 0
4, 5040, Note_on_c, 9, 70, 115
4, 5159, Note_on_c, 9, 70, 0
4, 5160, Note_on_c, 9, 70, 115
4, 5279, Note_on_c, 9, 70, 0
4, 5280, Note_on_c, 9, 70, 115
4, 5399, Note_on_c, 9, 70, 0
4, 5400, Note_on_c, 9, 70, 115
4, 5519, Note_on_c, 9, 70, 0
4, 5520, Note_on_c, 9, 70, 115
4, 5639, Note_on_c, 9, 70, 0
4, 5640, Note_on_c, 9, 70, 115
4, 5759, Note_on_c, 9, 70, 0
4, 5760, Note_on_c, 9, 70, 115
4, 5879, Note_on_c, 9, 70, 0
4, 5880, Note_on_c, 9, 70, 115
4, 5999, Note_on_c, 9, 70, 0
4, 6000, Note_on_c, 9, 70, 115
4, 6119, Note_on_c, 9, 70, 0
4, 6120, Note_on_c, 9, 70, 115
4, 6239, Note_on_c, 9, 70, 0
4, 6240, Note_on_c, 9, 70, 115
4, 6359, Note_on_c, 9, 70, 0
4, 6360, Note_on_c, 9, 70, 115
4, 6479, Note_on_c, 9, 70, 0
4, 6480, Note_on_c, 9, 70, 115
4, 6599, Note_on_c, 9, 70, 0
4, 6600, Note_on_c, 9, 70, 115
4, 6719, Note_on_c, 9, 70, 0
4, 6720, Note_on_c, 9, 70, 115
4, 6839, Note_on_c, 9, 70, 0
4, 6840, Note_on_c, 9, 70, 115
4, 6959, Note_on_c, 9, 70, 0
4, 6960, Note_on_c, 9, 70, 115
4, 7079, Note_on_c, 9, 70, 0
4, 7080, Note_on_c, 9, 70, 115
4, 7199, Note_on_c, 9, 70, 0
4, 7200, Note_on_c, 9, 70, 115
4, 7319, Note_on_c, 9, 70, 0
4, 7320, Note_on_c, 9, 70, 115
4, 7439, Note_on_c, 9, 70, 0
4, 7440, Note_on_c, 9, 70, 115
4, 7559, Note_on_c, 9, 70, 0
4, 7560, Note_on_c, 9, 70, 115
4, 7679, Note_on_c, 9, 70, 0
4, 7680, Note_on_c, 9, 70, 115
4, 7799, Note_on_c, 9, 70, 0
4, 7800, Note_on_c, 9, 70, 115
4, 7919, Note_on_c, 9, 70, 0
4, 7920, Note_on_c, 9, 70, 115
4, 8039, Note_on_c, 9, 70, 0
4, 8040, Note_on_c, 9, 70, 115
4, 8159, Note_on_c, 9, 70, 0
4, 8160, Note_on_c, 9, 70, 115
4, 8279, Note_on_c, 9, 70, 0
4, 8280, Note_on_c, 9, 70, 115
4, 8399, Note_on_c, 9, 70, 0
4, 8400, Note_on_c, 9, 70, 115
4, 8519, Note_on_c, 9, 70, 0
4, 8520, Note_on_c, 9, 70, 115
4, 8639, Note_on_c, 9, 70, 0
4, 8640, Note_on_c, 9, 70, 115
4, 8759, Note_on_c, 9, 70, 0
4, 8760, Note_on_c, 9, 70, 115
4, 8879, Note_on_c, 9, 70, 0
4, 8880, Note_on_c, 9, 70, 115
4, 8999, Note_on_c, 9, 70, 0
4, 9000, Note_on_c, 9, 70, 115
4, 9119, Note_on_c, 9, 70, 0
4, 9120, Note_on_c, 9, 70, 115
4, 9239, Note_on_c, 9, 70, 0
4, 9240, Note_on_c, 9, 70, 115
4, 9359, Note_on_c, 9, 70, 0
4, 9360, Note_on_c, 9, 70, 115
4, 9479, Note_on_c, 9, 70, 0
4, 9480, Note_on_c, 9, 70, 115
4, 9599, Note_on_c, 9, 70, 0
4, 9600, Note_on_c, 9, 70, 115
4, 9719, Note_on_c, 9, 70, 0
4, 9720, Note_on_c, 9, 70, 115
4, 9839, Note_on_c, 9, 70, 0
4, 9840, Note_on_c, 9, 70, 115
4, 9959, Note_on_c, 9, 70, 0
4, 9960, Note_on_c, 9, 70, 115
4, 10079, Note_on_c, 9, 70, 0
4, 10080, Note_on_c, 9, 70, 115
4, 10199, Note_on_c, 9, 70, 0
4, 10200, Note_on_c, 9, 70, 115
4, 10319, Note_on_c, 9, 70, 0
4, 10320, Note_on_c, 9, 70, 115
4, 10439, Note_on_c, 9, 70, 0
4, 10440, Note_on_c, 9, 70, 115
4, 10559, Note_on_c, 9, 70, 0
4, 10560, Note_on_c, 9, 70, 115
4, 10679, Note_on_c, 9, 70, 0
4, 10680, Note_on_c, 9, 70, 115
4, 10799, Note_on_c, 9, 70, 0
4, 10800, Note_on_c, 9, 70, 115
4, 10919, Note_on_c, 9, 70, 0
4, 10920, Note_on_c, 9, 70, 115
4, 11039, Note_on_c, 9, 70, 0
4, 11040, Note_on_c, 9, 70, 115
4, 11159, Note_on_c, 9, 70, 0
4, 11160, Note_on_c, 9, 70, 115
4, 11279, Note_on_c, 9, 70, 0
4, 11280, Note_on_c, 9, 70, 115
4, 11399, Note_on_c, 9, 70, 0
4, 11400, Note_on_c, 9, 70, 115
4, 11519, Note_on_c, 9, 70, 0
4, 11520, Note_on_c, 9, 70, 115
4, 11639, Note_on_c, 9, 70, 0
4, 11640, Note_on_c, 9, 70, 115
4, 11759, Note_on_c, 9, 70, 0
4, 11760, Note_on_c, 9, 70, 115
4, 11879, Note_on_c, 9, 70, 0
4, 11880, Note_on_c, 9, 70, 115
4, 11999, Note_on_c, 9, 70, 0
4, 12000, Note_on_c, 9, 70, 115
4, 12119, Note_on_c, 9, 70, 0
4, 12120, Note_on_c, 9, 70, 115
4, 12239, Note_on_c, 9, 70, 0
4, 12240, Note_on_c, 9, 70, 115
4, 12359, Note_on_c, 9, 70, 0
4, 12360, Note_on_c, 9, 70, 115
4, 12479, Note_on_c, 9, 70, 0
4, 12480, Note_on_c, 9, 70, 115
4, 12599, Note_on_c, 9, 70, 0
4, 12600, Note_on_c, 9, 70, 115
4, 12719, Note_on_c, 9, 70, 0
4, 12720, Note_on_c, 9, 70, 115
4, 12839, Note_on_c, 9, 70, 0
4, 12840, Note_on_c, 9, 70, 115
4, 12959, Note_on_c, 9, 70, 0
4, 12960, Note_on_c, 9, 70, 115
4, 13079, Note_on_c, 9, 70, 0
4, 13080, Note_on_c, 9, 70, 115
4, 13199, Note_on_c, 9, 70, 0
4, 13200, Note_on_c, 9, 70, 115
4, 13319, Note_on_c, 9, 70, 0
4, 13320, Note_on_c, 9, 70, 115
4, 13439, Note_on_c, 9, 70, 0
4, 13440, Note_on_c, 9, 70, 115
4, 13559, Note_on_c, 9, 70, 0
4, 13560, Note_on_c, 9, 70, 115
4, 13679, Note_on_c, 9, 70, 0
4, 13680, Note_on_c, 9, 70, 115
4, 13799, Note_on_c, 9, 70, 0
4, 13800, Note_on_c, 9, 70, 115
4, 13919, Note_on_c, 9, 70, 0
4, 13920, Note_on_c, 9, 70, 115
4, 14039, Note_on_c, 9, 70, 0
4, 14040, Note_on_c, 9, 70, 115
4, 14159, Note_on_c, 9, 70, 0
4, 14160, Note_on_c, 9, 70, 115
4, 14279, Note_on_c, 9, 70, 0
4, 14280, Note_on_c, 9, 70, 115
4, 14399, Note_on_c, 9, 70, 0
4, 14400, Note_on_c, 9, 70, 115
4, 14519, Note_on_c, 9, 70, 0
4, 14520, Note_on_c, 9, 70, 115
4, 14639, Note_on_c, 9, 70, 0
4, 14640, Note_on_c, 9, 70, 115
4, 14759, Note_on_c, 9, 70, 0
4, 14760, Note_on_c, 9, 70, 115
4, 14879, Note_on_c, 9, 70, 0
4, 14880, Note_on_c, 9, 70, 115
4, 14999, Note_on_c, 9, 70, 0
4, 15000, Note_on_c, 9, 70, 115
4, 15119, Note_on_c, 9, 70, 0
4, 15120, Note_on_c, 9, 70, 115
4, 15239, Note_on_c, 9, 70, 0
4, 15240, Note_on_c, 9, 70, 115
4, 15359, Note_on_c, 9, 70, 0
4, 15360, Note_on_c, 9, 70, 115
4, 15479, Note_on_c, 9, 70, 0
4, 15480, Note_on_c, 9, 70, 115
4, 15599, Note_on_c, 9, 70, 0
4, 15600, Note_on_c, 9, 70, 115
4, 15719, Note_on_c, 9, 70, 0
4, 15720, Note_on_c, 9, 70, 115
4, 15839, Note_on_c, 9, 70, 0
4, 15840, Note_on_c, 9, 70, 115
4, 15959, Note_on_c, 9, 70, 0
4, 15960, Note_on_c, 9, 70, 115
4, 16079, Note_on_c, 9, 70, 0
4, 16080, Note_on_c, 9, 70, 115
4, 16199, Note_on_c, 9, 70, 0
4, 16200, Note_on_c, 9, 70, 115
4, 16319, Note_on_c, 9, 70, 0
4, 16320, Note_on_c, 9, 70, 115
4, 16439, Note_on_c, 9, 70, 0
4, 16440, Note_on_c, 9, 70, 115
4, 16559, Note_on_c, 9, 70, 0
4, 16560, Note_on_c, 9, 70, 115
4, 16679, Note_on_c, 9, 70, 0
4, 16680, Note_on_c, 9, 70, 115
4, 16799, Note_on_c, 9, 70, 0
4, 16800, Note_on_c, 9, 70, 115
4, 16919, Note_on_c, 9, 70, 0
4, 16920, Note_on_c, 9, 70, 115
4, 17039, Note_on_c, 9, 70, 0
4, 17040, Note_on_c, 9, 70, 115
4, 17159, Note_on_c, 9, 70, 0
4, 17160, Note_on_c, 9, 70, 115
4, 17279, Note_on_c, 9, 70, 0
4, 17280, Note_on_c, 9, 70, 115
4, 17399, Note_on_c, 9, 70, 0
4, 17400, Note_on_c, 9, 70, 115
4, 17519, Note_on_c, 9, 70, 0
4, 17520, Note_on_c, 9, 70, 115
4, 17639, Note_on_c, 9, 70, 0
4, 17640, Note_on_c, 9, 70, 115
4, 17759, Note_on_c, 9, 70, 0
4, 17760, Note_on_c, 9, 70, 115
4, 17879, Note_on_c, 9, 70, 0
4, 17880, Note_on_c, 9, 70, 115
4, 17999, Note_on_c, 9, 70, 0
4, 18000, Note_on_c, 9, 70, 115
4, 18119, Note_on_c, 9, 70, 0
4, 18120, Note_on_c, 9, 70, 115
4, 18239, Note_on_c, 9, 70, 0
4, 18240, Note_on_c, 9, 70, 115
4, 18359, Note_on_c, 9, 70, 0
4, 18360, Note_on_c, 9, 70, 115
4, 18479, Note_on_c, 9, 70, 0
4, 18480, Note_on_c, 9, 70, 115
4, 18599, Note_on_c, 9, 70, 0
4, 18600, Note_on_c, 9, 70, 115
4, 18719, Note_on_c, 9, 70, 0
4, 18720, Note_on_c, 9, 70, 115
4, 18839, Note_on_c, 9, 70, 0
4, 18840, Note_on_c, 9, 70, 115
4, 18959, Note_on_c, 9, 70, 0
4, 18960, Note_on_c, 9, 70, 115
4, 19079, Note_on_c, 9, 70, 0
4, 19080, Note_on_c, 9, 70, 115
4, 19199, Note_on_c, 9, 70, 0
4, 19200, Note_on_c, 9, 70, 115
4, 19319, Note_on_c, 9, 70, 0
4, 19320, Note_on_c, 9, 70, 115
4, 19439, Note_on_c, 9, 70, 0
4, 19440, Note_on_c, 9, 70, 115
4, 19559, Note_on_c, 9, 70, 0
4, 19560, Note_on_c, 9, 70, 115
4, 19679, Note_on_c, 9, 70, 0
4, 19680, Note_on_c, 9, 70, 115
4, 19799, Note_on_c, 9, 70, 0
4, 19800, Note_on_c, 9, 70, 115
4, 19919, Note_on_c, 9, 70, 0
4, 19920, Note_on_c, 9, 70, 115
4, 20039, Note_on_c, 9, 70, 0
4, 20040, Note_on_c, 9, 70, 115
4, 20159, Note_on_c, 9, 70, 0
4, 20160, Note_on_c, 9, 70, 115
4, 20279, Note_on_c, 9, 70, 0
4, 20280, Note_on_c, 9, 70, 115
4, 20399, Note_on_c, 9, 70, 0
4, 20400, Note_on_c, 9, 70, 115
4, 20519, Note_on_c, 9, 70, 0
4, 20520, Note_on_c, 9, 70, 115
4, 20639, Note_on_c, 9, 70, 0
4, 20640, Note_on_c, 9, 70, 115
4, 20759, Note_on_c, 9, 70, 0
4, 20760, Note_on_c, 9, 70, 115
4, 20879, Note_on_c, 9, 70, 0
4, 20880, Note_on_c, 9, 70, 115
4, 20999, Note_on_c, 9, 70, 0
4, 21000, Note_on_c, 9, 70, 115
4, 21119, Note_on_c, 9, 70, 0
4, 21120, Note_on_c, 9, 70, 115
4, 21239, Note_on_c, 9, 70, 0
4, 21240, Note_on_c, 9, 70, 115
4, 21359, Note_on_c, 9, 70, 0
4, 21360, Note_on_c, 9, 70, 115
4, 21479, Note_on_c, 9, 70, 0
4, 21480, Note_on_c, 9, 70, 115
4, 21599, Note_on_c, 9, 70, 0
4, 21600, Note_on_c, 9, 70, 115
4, 21719, Note_on_c, 9, 70, 0
4, 21720, Note_on_c, 9, 70, 115
4, 21839, Note_on_c, 9, 70, 0
4, 21840, Note_on_c, 9, 70, 115
4, 21959, Note_on_c, 9, 70, 0
4, 21960, Note_on_c, 9, 70, 115
4, 22079, Note_on_c, 9, 70, 0
4, 22080, Note_on_c, 9, 70, 115
4, 22199, Note_on_c, 9, 70, 0
4, 22200, Note_on_c, 9, 70, 115
4, 22319, Note_on_c, 9, 70, 0
4, 22320, Note_on_c, 9, 70, 115
4, 22439, Note_on_c, 9, 70, 0
4, 22440, Note_on_c, 9, 70, 115
4, 22559, Note_on_c, 9, 70, 0
4, 22560, Note_on_c, 9, 70, 115
4, 22679, Note_on_c, 9, 70, 0
4, 22680, Note_on_c, 9, 70, 115
4, 22799, Note_on_c, 9, 70, 0
4, 22800, Note_on_c, 9, 70, 115
4, 22919, Note_on_c, 9, 70, 0
4, 22920, Note_on_c, 9, 70, 115
4, 23039, Note_on_c, 9, 70, 0
4, 23040, Note_on_c, 9, 70, 115
4, 23159, Note_on_c, 9, 70, 0
4, 23160, Note_on_c, 9, 70, 115
4, 23279, Note_on_c, 9, 70, 0
4, 23280, Note_on_c, 9, 70, 115
4, 23399, Note_on_c, 9, 70, 0
4, 23400, Note_on_c, 9, 70, 115
4, 23519, Note_on_c, 9, 70, 0
4, 23520, Note_on_c, 9, 70, 115
4, 23639, Note_on_c, 9, 70, 0
4, 23640, Note_on_c, 9, 70, 115
4, 23759, Note_on_c, 9, 70, 0
4, 23760, Note_on_c, 9, 70, 115
4, 23879, Note_on_c, 9, 70, 0
4, 23880, Note_on_c, 9, 70, 115
4, 23999, Note_on_c, 9, 70, 0
4, 24000, Note_on_c, 9, 70, 115
4, 24119, Note_on_c, 9, 70, 0
4, 24120, Note_on_c, 9, 70, 115
4, 24239, Note_on_c, 9, 70, 0
4, 24240, Note_on_c, 9, 70, 115
4, 24359, Note_on_c, 9, 70, 0
4, 24360, Note_on_c, 9, 70, 115
4, 24479, Note_on_c, 9, 70, 0
4, 24480, Note_on_c, 9, 70, 115
4, 24599, Note_on_c, 9, 70, 0
4, 24600, Note_on_c, 9, 70, 115
4, 24719, Note_on_c, 9, 70, 0
4, 24720, Note_on_c, 9, 70, 115
4, 24839, Note_on_c, 9, 70, 0
4, 24840, Note_on_c, 9, 70, 115
4, 24959, Note_on_c, 9, 70, 0
4, 24960, Note_on_c, 9, 70, 115
4, 25079, Note_on_c, 9, 70, 0
4, 25080, Note_on_c, 9, 70, 115
4, 25199, Note_on_c, 9, 70, 0
4, 25200, Note_on_c, 9, 70, 115
4, 25319, Note_on_c, 9, 70, 0
4, 25320, Note_on_c, 9, 70, 115
4, 25439, Note_on_c, 9, 70, 0
4, 25440, Note_on_c, 9, 70, 115
4, 25559, Note_on_c, 9, 70, 0
4, 25560, Note_on_c, 9, 70, 115
4, 25679, Note_on_c, 9, 70, 0
4, 25680, Note_on_c, 9, 70, 115
4, 25799, Note_on_c, 9, 70, 0
4, 25800, Note_on_c, 9, 70, 115
4, 25919, Note_on_c, 9, 70, 0
4, 25920, Note_on_c, 9, 70, 115
4, 26039, Note_on_c, 9, 70, 0
4, 26040, Note_on_c, 9, 70, 115
4, 26159, Note_on_c, 9, 70, 0
4, 26160, Note_on_c, 9, 70, 115
4, 26279, Note_on_c, 9, 70, 0
4, 26280, Note_on_c, 9, 70, 115
4, 26399, Note_on_c, 9, 70, 0
4, 26400, Note_on_c, 9, 70, 115
4, 26519, Note_on_c, 9, 70, 0
4, 26520, Note_on_c, 9, 70, 115
4, 26639, Note_on_c, 9, 70, 0
4, 26640, Note_on_c, 9, 70, 115
4, 26759, Note_on_c, 9, 70, 0
4, 26760, Note_on_c, 9, 70, 115
4, 26879, Note_on_c, 9, 70, 0
4, 26880, Note_on_c, 9, 70, 115
4, 26999, Note_on_c, 9, 70, 0
4, 27000, Note_on_c, 9, 70, 115
4, 27119, Note_on_c, 9, 70, 0
4, 27120, Note_on_c, 9, 70, 115
4, 27239, Note_on_c, 9, 70, 0
4, 27240, Note_on_c, 9, 70, 115
4, 27359, Note_on_c, 9, 70, 0
4, 27360, Note_on_c, 9, 70, 115
4, 27479, Note_on_c, 9, 70, 0
4, 27480, Note_on_c, 9, 70, 115
4, 27599, Note_on_c, 9, 70, 0
4, 27600, Note_on_c, 9, 70, 115
4, 27719, Note_on_c, 9, 70, 0
4, 27720, Note_on_c, 9, 70, 115
4, 27839, Note_on_c, 9, 70, 0
4, 27840, Note_on_c, 9, 70, 115
4, 27959, Note_on_c, 9, 70, 0
4, 27960, Note_on_c, 9, 70, 115
4, 28079, Note_on_c, 9, 70, 0
4, 28080, Note_on_c, 9, 70, 115
4, 28199, Note_on_c, 9, 70, 0
4, 28200, Note_on_c, 9, 70, 115
4, 28319, Note_on_c, 9, 70, 0
4, 28320, Note_on_c, 9, 70, 115
4, 28439, Note_on_c, 9, 70, 0
4, 28440, Note_on_c, 9, 70, 115
4, 28559, Note_on_c, 9, 70, 0
4, 28560, Note_on_c, 9, 70, 115
4, 28679, Note_on_c, 9, 70, 0
4, 28680, Note_on_c, 9, 70, 115
4, 28799, Note_on_c, 9, 70, 0
4, 28800, Note_on_c, 9, 70, 115
4, 28919, Note_on_c, 9, 70, 0
4, 28920, Note_on_c, 9, 70, 115
4, 29039, Note_on_c, 9, 70, 0
4, 29040, Note_on_c, 9, 70, 115
4, 29159, Note_on_c, 9, 70, 0
4, 29160, Note_on_c, 9, 70, 115
4, 29279, Note_on_c, 9, 70, 0
4, 29280, Note_on_c, 9, 70, 115
4, 29399, Note_on_c, 9, 70, 0
4, 29400, Note_on_c, 9, 70, 115
4, 29519, Note_on_c, 9, 70, 0
4, 29520, Note_on_c, 9, 70, 115
4, 29639, Note_on_c, 9, 70, 0
4, 29640, Note_on_c, 9, 70, 115
4, 29759, Note_on_c, 9, 70, 0
4, 29760, Note_on_c, 9, 70, 115
4, 29879, Note_on_c, 9, 70, 0
4, 29880, Note_on_c, 9, 70, 115
4, 29999, Note_on_c, 9, 70, 0
4, 30000, Note_on_c, 9, 70, 115
4, 30119, Note_on_c, 9, 70, 0
4, 30120, Note_on_c, 9, 70, 115
4, 30239, Note_on_c, 9, 70, 0
4, 30240, Note_on_c, 9, 70, 115
4, 30359, Note_on_c, 9, 70, 0
4, 30360, Note_on_c, 9, 70, 115
4, 30479, Note_on_c, 9, 70, 0
4, 30480, Note_on_c, 9, 70, 115
4, 30599, Note_on_c, 9, 70, 0
4, 30600, Note_on_c, 9, 70, 115
4, 30719, Note_on_c, 9, 70, 0
4, 30720, Note_on_c, 9, 70, 115
4, 30839, Note_on_c, 9, 70, 0
4, 30840, Note_on_c, 9, 70, 115
4, 30959, Note_on_c, 9, 70, 0
4, 30960, Note_on_c, 9, 70, 115
4, 31079, Note_on_c, 9, 70, 0
4, 31080, Note_on_c, 9, 70, 115
4, 31199, Note_on_c, 9, 70, 0
4, 31200, Note_on_c, 9, 70, 115
4, 31319, Note_on_c, 9, 70, 0
4, 31320, Note_on_c, 9, 70, 115
4, 31439, Note_on_c, 9, 70, 0
4, 31440, Note_on_c, 9, 70, 115
4, 31559, Note_on_c, 9, 70, 0
4, 31560, Note_on_c, 9, 70, 115
4, 31679, Note_on_c, 9, 70, 0
4, 31680, Note_on_c, 9, 70, 115
4, 31799, Note_on_c, 9, 70, 0
4, 31800, Note_on_c, 9, 70, 115
4, 31919, Note_on_c, 9, 70, 0
4, 31920, Note_on_c, 9, 70, 115
4, 32039, Note_on_c, 9, 70, 0
4, 32040, Note_on_c, 9, 70, 115
4, 32159, Note_on_c, 9, 70, 0
4, 32160, Note_on_c, 9, 70, 115
4, 32279, Note_on_c, 9, 70, 0
4, 32280, Note_on_c, 9, 70, 115
4, 32399, Note_on_c, 9, 70, 0
4, 32400, Note_on_c, 9, 70, 115
4, 32519, Note_on_c, 9, 70, 0
4, 32520, Note_on_c, 9, 70, 115
4, 32639, Note_on_c, 9, 70, 0
4, 32640, Note_on_c, 9, 70, 115
4, 32759, Note_on_c, 9, 70, 0
4, 32760, Note_on_c, 9, 70, 115
4, 32879, Note_on_c, 9, 70, 0
4, 32880, Note_on_c, 9, 70, 115
4, 32999, Note_on_c, 9, 70, 0
4, 33000, Note_on_c, 9, 70, 115
4, 33119, Note_on_c, 9, 70, 0
4, 33120, Note_on_c, 9, 70, 115
4, 33239, Note_on_c, 9, 70, 0
4, 33240, Note_on_c, 9, 70, 115
4, 33359, Note_on_c, 9, 70, 0
4, 33360, Note_on_c, 9, 70, 115
4, 33479, Note_on_c, 9, 70, 0
4, 33480, Note_on_c, 9, 70, 115
4, 33599, Note_on_c, 9, 70, 0
4, 33600, Note_on_c, 9, 70, 115
4, 33719, Note_on_c, 9, 70, 0
4, 33720, Note_on_c, 9, 70, 115
4, 33839, Note_on_c, 9, 70, 0
4, 33840, Note_on_c, 9, 70, 115
4, 33959, Note_on_c, 9, 70, 0
4, 33960, Note_on_c, 9, 70, 115
4, 34079, Note_on_c, 9, 70, 0
4, 34080, Note_on_c, 9, 70, 115
4, 34199, Note_on_c, 9, 70, 0
4, 34200, Note_on_c, 9, 70, 115
4, 34319, Note_on_c, 9, 70, 0
4, 34320, Note_on_c, 9, 70, 115
4, 34439, Note_on_c, 9, 70, 0
4, 34440, Note_on_c, 9, 70, 115
4, 34559, Note_on_c, 9, 70, 0
4, 34560, Note_on_c, 9, 70, 115
4, 34679, Note_on_c, 9, 70, 0
4, 34680, Note_on_c, 9, 70, 115
4, 34799, Note_on_c, 9, 70, 0
4, 34800, Note_on_c, 9, 70, 115
4, 34919, Note_on_c, 9, 70, 0
4, 34920, Note_on_c, 9, 70, 115
4, 35039, Note_on_c, 9, 70, 0
4, 35040, Note_on_c, 9, 70, 115
4, 35159, Note_on_c, 9, 70, 0
4, 35160, Note_on_c, 9, 70, 115
4, 35279, Note_on_c, 9, 70, 0
4, 35280, Note_on_c, 9, 70, 115
4, 35399, Note_on_c, 9, 70, 0
4, 35400, Note_on_c, 9, 70, 115
4, 35519, Note_on_c, 9, 70, 0
4, 35520, Note_on_c, 9, 70, 115
4, 35639, Note_on_c, 9, 70, 0
4, 35640, Note_on_c, 9, 70, 115
4, 35759, Note_on_c, 9, 70, 0
4, 35760, Note_on_c, 9, 70, 115
4, 35879, Note_on_c, 9, 70, 0
4, 35880, Note_on_c, 9, 70, 115
4, 35999, Note_on_c, 9, 70, 0
4, 36000, Note_on_c, 9, 70, 115
4, 36119, Note_on_c, 9, 70, 0
4, 36120, Note_on_c, 9, 70, 115
4, 36239, Note_on_c, 9, 70, 0
4, 36240, Note_on_c, 9, 70, 115
4, 36359, Note_on_c, 9, 70, 0
4, 36360, Note_on_c, 9, 70, 115
4, 36479, Note_on_c, 9, 70, 0
4, 36480, Note_on_c, 9, 70, 115
4, 36599, Note_on_c, 9, 70, 0
4, 36600, Note_on_c, 9, 70, 115
4, 36719, Note_on_c, 9, 70, 0
4, 36720, Note_on_c, 9, 70, 115
4, 36839, Note_on_c, 9, 70, 0
4, 36840, Note_on_c, 9, 70, 115
4, 36959, Note_on_c, 9, 70, 0
4, 36960, Note_on_c, 9, 70, 115
4, 37079, Note_on_c, 9, 70, 0
4, 37080, Note_on_c, 9, 70, 115
4, 37199, Note_on_c, 9, 70, 0
4, 37200, Note_on_c, 9, 70, 115
4, 37319, Note_on_c, 9, 70, 0
4, 37320, Note_on_c, 9, 70, 115
4, 37439, Note_on_c, 9, 70, 0
4, 37440, Note_on_c, 9, 70, 115
4, 37559, Note_on_c, 9, 70, 0
4, 37560, Note_on_c, 9, 70, 115
4, 37679, Note_on_c, 9, 70, 0
4, 37680, Note_on_c, 9, 70, 115
4, 37799, Note_on_c, 9, 70, 0
4, 37800, Note_on_c, 9, 70, 115
4, 37919, Note_on_c, 9, 70, 0
4, 37920, Note_on_c, 9, 70, 115
4, 38039, Note_on_c, 9, 70, 0
4, 38040, Note_on_c, 9, 70, 115
4, 38159, Note_on_c, 9, 70, 0
4, 38160, Note_on_c, 9, 70, 115
4, 38279, Note_on_c, 9, 70, 0
4, 38280, Note_on_c, 9, 70, 115
4, 38399, Note_on_c, 9, 70, 0
4, 38400, Note_on_c, 9, 70, 115
4, 38519, Note_on_c, 9, 70, 0
4, 38520, Note_on_c, 9, 70, 115
4, 38639, Note_on_c, 9, 70, 0
4, 38640, Note_on_c, 9, 70, 115
4, 38759, Note_on_c, 9, 70, 0
4, 38760, Note_on_c, 9, 70, 115
4, 38879, Note_on_c, 9, 70, 0
4, 38880, Note_on_c, 9, 70, 115
4, 38999, Note_on_c, 9, 70, 0
4, 39000, Note_on_c, 9, 70, 115
4, 39119, Note_on_c, 9, 70, 0
4, 39120, Note_on_c, 9, 70, 115
4, 39239, Note_on_c, 9, 70, 0
4, 39240, Note_on_c, 9, 70, 115
4, 39359, Note_on_c, 9, 70, 0
4, 39360, Note_on_c, 9, 70, 115
4, 39479, Note_on_c, 9, 70, 0
4, 39480, Note_on_c, 9, 70, 115
4, 39599, Note_on_c, 9, 70, 0
4, 39600, Note_on_c, 9, 70, 115
4, 39719, Note_on_c, 9, 70, 0
4, 39720, Note_on_c, 9, 70, 115
4, 39839, Note_on_c, 9, 70, 0
4, 39840, Note_on_c, 9, 70, 115
4, 39959, Note_on_c, 9, 70, 0
4, 39960, Note_on_c, 9, 70, 115
4, 40079, Note_on_c, 9, 70, 0
4, 40080, Note_on_c, 9, 70, 115
4, 40199, Note_on_c, 9, 70, 0
4, 40200, Note_on_c, 9, 70, 115
4, 40319, Note_on_c, 9, 70, 0
4, 40320, Note_on_c, 9, 70, 115
4, 40439, Note_on_c, 9, 70, 0
4, 40440, Note_on_c, 9, 70, 115
4, 40559, Note_on_c, 9, 70, 0
4, 40560, Note_on_c, 9, 70, 115
4, 40679, Note_on_c, 9, 70, 0
4, 40680, Note_on_c, 9, 70, 115
4, 40799, Note_on_c, 9, 70, 0
4, 40800, Note_on_c, 9, 70, 115
4, 40919, Note_on_c, 9, 70, 0
4, 40920, Note_on_c, 9, 70, 115
4, 41039, Note_on_c, 9, 70, 0
4, 41040, Note_on_c, 9, 70, 115
4, 41159, Note_on_c, 9, 70, 0
4, 41160, Note_on_c, 9, 70, 115
4, 41279, Note_on_c, 9, 70, 0
4, 41280, Note_on_c, 9, 70, 115
4, 41399, Note_on_c, 9, 70, 0
4, 41400, Note_on_c, 9, 70, 115
4, 41519, Note_on_c, 9, 70, 0
4, 41520, Note_on_c, 9, 70, 115
4, 41639, Note_on_c, 9, 70, 0
4, 41640, Note_on_c, 9, 70, 115
4, 41759, Note_on_c, 9, 70, 0
4, 41760, Note_on_c, 9, 70, 115
4, 41879, Note_on_c, 9, 70, 0
4, 41880, Note_on_c, 9, 70, 115
4, 41999, Note_on_c, 9, 70, 0
4, 42000, Note_on_c, 9, 70, 115
4, 42119, Note_on_c, 9, 70, 0
4, 42120, Note_on_c, 9, 70, 115
4, 42239, Note_on_c, 9, 70, 0
4, 42240, Note_on_c, 9, 70, 115
4, 42359, Note_on_c, 9, 70, 0
4, 42360, Note_on_c, 9, 70, 115
4, 42479, Note_on_c, 9, 70, 0
4, 42480, Note_on_c, 9, 70, 115
4, 42599, Note_on_c, 9, 70, 0
4, 42600, Note_on_c, 9, 70, 115
4, 42719, Note_on_c, 9, 70, 0
4, 42720, Note_on_c, 9, 70, 115
4, 42839, Note_on_c, 9, 70, 0
4, 42840, Note_on_c, 9, 70, 115
4, 42959, Note_on_c, 9, 70, 0
4, 42960, Note_on_c, 9, 70, 115
4, 43079, Note_on_c, 9, 70, 0
4, 43080, Note_on_c, 9, 70, 115
4, 43199, Note_on_c, 9, 70, 0
4, 43200, Note_on_c, 9, 70, 115
4, 43319, Note_on_c, 9, 70, 0
4, 43320, Note_on_c, 9, 70, 115
4, 43439, Note_on_c, 9, 70, 0
4, 43440, Note_on_c, 9, 70, 115
4, 43559, Note_on_c, 9, 70, 0
4, 43560, Note_on_c, 9, 70, 115
4, 43679, Note_on_c, 9, 70, 0
4, 43680, Note_on_c, 9, 70, 115
4, 43799, Note_on_c, 9, 70, 0
4, 43800, Note_on_c, 9, 70, 115
4, 43919, Note_on_c, 9, 70, 0
4, 43920, Note_on_c, 9, 70, 115
4, 44039, Note_on_c, 9, 70, 0
4, 44040, Note_on_c, 9, 70, 115
4, 44159, Note_on_c, 9, 70, 0
4, 44160, Note_on_c, 9, 70, 115
4, 44279, Note_on_c, 9, 70, 0
4, 44280, Note_on_c, 9, 70, 115
4, 44399, Note_on_c, 9, 70, 0
4, 44400, Note_on_c, 9, 70, 115
4, 44519, Note_on_c, 9, 70, 0
4, 44520, Note_on_c, 9, 70, 115
4, 44639, Note_on_c, 9, 70, 0
4, 44640, Note_on_c, 9, 70, 115
4, 44759, Note_on_c, 9, 70, 0
4, 44760, Note_on_c, 9, 70, 115
4, 44879, Note_on_c, 9, 70, 0
4, 44880, Note_on_c, 9, 70, 115
4, 44999, Note_on_c, 9, 70, 0
4, 45000, Note_on_c, 9, 70, 115
4, 45119, Note_on_c, 9, 70, 0
4, 45120, Note_on_c, 9, 70, 115
4, 45239, Note_on_c, 9, 70, 0
4, 45240, Note_on_c, 9, 70, 115
4, 45359, Note_on_c, 9, 70, 0
4, 45360, Note_on_c, 9, 70, 115
4, 45479, Note_on_c, 9, 70, 0
4, 45480, Note_on_c, 9, 70, 115
4, 45599, Note_on_c, 9, 70, 0
4, 45600, Note_on_c, 9, 70, 115
4, 45719, Note_on_c, 9, 70, 0
4, 45720, Note_on_c, 9, 70, 115
4, 45839, Note_on_c, 9, 70, 0
4, 45840, Note_on_c, 9, 70, 115
4, 45959, Note_on_c, 9, 70, 0
4, 45960, Note_on_c, 9, 70, 115
4, 46079, Note_on_c, 9, 70, 0
4, 46080, Note_on_c, 9, 70, 115
4, 46199, Note_on_c, 9, 70, 0
4, 46200, Note_on_c, 9, 70, 115
4, 46319, Note_on_c, 9, 70, 0
4, 46320, Note_on_c, 9, 70, 115
4, 46439, Note_on_c, 9, 70, 0
4, 46440, Note_on_c, 9, 70, 115
4, 46559, Note_on_c, 9, 70, 0
4, 46560, Note_on_c, 9, 70, 115
4, 46679, Note_on_c, 9, 70, 0
4, 46680, Note_on_c, 9, 70, 115
4, 46799, Note_on_c, 9, 70, 0
4, 46800, Note_on_c, 9, 70, 115
4, 46919, Note_on_c, 9, 70, 0
4, 46920, Note_on_c, 9, 70, 115
4, 47039, Note_on_c, 9, 70, 0
4, 47040, Note_on_c, 9, 70, 115
4, 47159, Note_on_c, 9, 70, 0
4, 47160, Note_on_c, 9, 70, 115
4, 47279, Note_on_c, 9, 70, 0
4, 47280, Note_on_c, 9, 70, 115
4, 47399, Note_on_c, 9, 70, 0
4, 47400, Note_on_c, 9, 70, 115
4, 47519, Note_on_c, 9, 70, 0
4, 47520, Note_on_c, 9, 70, 115
4, 47639, Note_on_c, 9, 70, 0
4, 47640, Note_on_c, 9, 70, 115
4, 47759, Note_on_c, 9, 70, 0
4, 47760, Note_on_c, 9, 70, 115
4, 47879, Note_on_c, 9, 70, 0
4, 47880, Note_on_c, 9, 70, 115
4, 47999, Note_on_c, 9, 70, 0
4, 48000, Note_on_c, 9, 70, 115
4, 48119, Note_on_c, 9, 70, 0
4, 48120, Note_on_c, 9, 70, 115
4, 48239, Note_on_c, 9, 70, 0
4, 48240, Note_on_c, 9, 70, 115
4, 48359, Note_on_c, 9, 70, 0
4, 48360, Note_on_c, 9, 70, 115
4, 48479, Note_on_c, 9, 70, 0
4, 48480, Note_on_c, 9, 70, 115
4, 48599, Note_on_c, 9, 70, 0
4, 48600, Note_on_c, 9, 70, 115
4, 48719, Note_on_c, 9, 70, 0
4, 48720, Note_on_c, 9, 70, 115
4, 48839, Note_on_c, 9, 70, 0
4, 48840, Note_on_c, 9, 70, 115
4, 48959, Note_on_c, 9, 70, 0
4, 48960, Note_on_c, 9, 70, 115
4, 49079, Note_on_c, 9, 70, 0
4, 49080, Note_on_c, 9, 70, 115
4, 49199, Note_on_c, 9, 70, 0
4, 49200, Note_on_c, 9, 70, 115
4, 49319, Note_on_c, 9, 70, 0
4, 49320, Note_on_c, 9, 70, 115
4, 49439, Note_on_c, 9, 70, 0
4, 49440, Note_on_c, 9, 70, 115
4, 49559, Note_on_c, 9, 70, 0
4, 49560, Note_on_c, 9, 70, 115
4, 49679, Note_on_c, 9, 70, 0
4, 49680, Note_on_c, 9, 70, 115
4, 49799, Note_on_c, 9, 70, 0
4, 49800, Note_on_c, 9, 70, 115
4, 49919, Note_on_c, 9, 70, 0
4, 49920, Note_on_c, 9, 70, 115
4, 50039, Note_on_c, 9, 70, 0
4, 50040, Note_on_c, 9, 70, 115
4, 50159, Note_on_c, 9, 70, 0
4, 50160, Note_on_c, 9, 70, 115
4, 50279, Note_on_c, 9, 70, 0
4, 50280, Note_on_c, 9, 70, 115
4, 50399, Note_on_c, 9, 70, 0
4, 50400, Note_on_c, 9, 70, 115
4, 50519, Note_on_c, 9, 70, 0
4, 50520, Note_on_c, 9, 70, 115
4, 50639, Note_on_c, 9, 70, 0
4, 50640, Note_on_c, 9, 70, 115
4, 50759, Note_on_c, 9, 70, 0
4, 50760, Note_on_c, 9, 70, 115
4, 50879, Note_on_c, 9, 70, 0
4, 50880, Note_on_c, 9, 70, 115
4, 50999, Note_on_c, 9, 70, 0
4, 51000, Note_on_c, 9, 70, 115
4, 51119, Note_on_c, 9, 70, 0
4, 51120, Note_on_c, 9, 70, 115
4, 51239, Note_on_c, 9, 70, 0
4, 51240, Note_on_c, 9, 70, 115
4, 51359, Note_on_c, 9, 70, 0
4, 51360, Note_on_c, 9, 70, 115
4, 51479, Note_on_c, 9, 70, 0
4, 51480, Note_on_c, 9, 70, 115
4, 51599, Note_on_c, 9, 70, 0
4, 51600, Note_on_c, 9, 70, 115
4, 51719, Note_on_c, 9, 70, 0
4, 51720, Note_on_c, 9, 70, 115
4, 51839, Note_on_c, 9, 70, 0
4, 51840, Note_on_c, 9, 70, 115
4, 51959, Note_on_c, 9, 70, 0
4, 51960, Note_on_c, 9, 70, 115
4, 52079, Note_on_c, 9, 70, 0
4, 52080, Note_on_c, 9, 70, 115
4, 52199, Note_on_c, 9, 70, 0
4, 52200, Note_on_c, 9, 70, 115
4, 52319, Note_on_c, 9, 70, 0
4, 52320, Note_on_c, 9, 70, 115
4, 52439, Note_on_c, 9, 70, 0
4, 52440, Note_on_c, 9, 70, 115
4, 52559, Note_on_c, 9, 70, 0
4, 52560, Note_on_c, 9, 70, 115
4, 52679, Note_on_c, 9, 70, 0
4, 52680, Note_on_c, 9, 70, 115
4, 52799, Note_on_c, 9, 70, 0
4, 52800, Note_on_c, 9, 70, 115
4, 52919, Note_on_c, 9, 70, 0
4, 52920, Note_on_c, 9, 70, 115
4, 53039, Note_on_c, 9, 70, 0
4, 53040, Note_on_c, 9, 70, 115
4, 53159, Note_on_c, 9, 70, 0
4, 53160, Note_on_c, 9, 70, 115
4, 53279, Note_on_c, 9, 70, 0
4, 53280, Note_on_c, 9, 70, 115
4, 53399, Note_on_c, 9, 70, 0
4, 53400, Note_on_c, 9, 70, 115
4, 53519, Note_on_c, 9, 70, 0
4, 53520, Note_on_c, 9, 70, 115
4, 53639, Note_on_c, 9, 70, 0
4, 53640, Note_on_c, 9, 70, 115
4, 53759, Note_on_c, 9, 70, 0
4, 53760, Note_on_c, 9, 70, 115
4, 53879, Note_on_c, 9, 70, 0
4, 53880, Note_on_c, 9, 70, 115
4, 53999, Note_on_c, 9, 70, 0
4, 54000, Note_on_c, 9, 70, 115
4, 54119, Note_on_c, 9, 70, 0
4, 54120, Note_on_c, 9, 70, 115
4, 54239, Note_on_c, 9, 70, 0
4, 54240, Note_on_c, 9, 70, 115
4, 54359, Note_on_c, 9, 70, 0
4, 54360, Note_on_c, 9, 70, 115
4, 54479, Note_on_c, 9, 70, 0
4, 54480, Note_on_c, 9, 70, 115
4, 54599, Note_on_c, 9, 70, 0
4, 54600, Note_on_c, 9, 70, 115
4, 54719, Note_on_c, 9, 70, 0
4, 54720, Note_on_c, 9, 70, 115
4, 54839, Note_on_c, 9, 70, 0
4, 54840, Note_on_c, 9, 70, 115
4, 54959, Note_on_c, 9, 70, 0
4, 54960, Note_on_c, 9, 70, 115
4, 55079, Note_on_c, 9, 70, 0
4, 55080, Note_on_c, 9, 70, 115
4, 55199, Note_on_c, 9, 70, 0
4, 55200, Note_on_c, 9, 70, 115
4, 55319, Note_on_c, 9, 70, 0
4, 55320, Note_on_c, 9, 70, 115
4, 55439, Note_on_c, 9, 70, 0
4, 55440, Note_on_c, 9, 70, 115
4, 55559, Note_on_c, 9, 70, 0
4, 55560, Note_on_c, 9, 70, 115
4, 55679, Note_on_c, 9, 70, 0
4, 55680, Note_on_c, 9, 70, 115
4, 55799, Note_on_c, 9, 70, 0
4, 55800, Note_on_c, 9, 70, 115
4, 55919, Note_on_c, 9, 70, 0
4, 55920, Note_on_c, 9, 70, 115
4, 56039, Note_on_c, 9, 70, 0
4, 56040, Note_on_c, 9, 70, 115
4, 56159, Note_on_c, 9, 70, 0
4, 56160, Note_on_c, 9, 70, 115
4, 56279, Note_on_c, 9, 70, 0
4, 56280, Note_on_c, 9, 70, 115
4, 56399, Note_on_c, 9, 70, 0
4, 56400, Note_on_c, 9, 70, 115
4, 56519, Note_on_c, 9, 70, 0
4, 56520, Note_on_c, 9, 70, 115
4, 56639, Note_on_c, 9, 70, 0
4, 56640, Note_on_c, 9, 70, 115
4, 56759, Note_on_c, 9, 70, 0
4, 56760, Note_on_c, 9, 70, 115
4, 56879, Note_on_c, 9, 70, 0
4, 56880, Note_on_c, 9, 70, 115
4, 56999, Note_on_c, 9, 70, 0
4, 57000, Note_on_c, 9, 70, 115
4, 57119, Note_on_c, 9, 70, 0
4, 57120, Note_on_c, 9, 70, 115
4, 57239, Note_on_c, 9, 70, 0
4, 57240, Note_on_c, 9, 70, 115
4, 57359, Note_on_c, 9, 70, 0
4, 57360, Note_on_c, 9, 70, 115
4, 57479, Note_on_c, 9, 70, 0
4, 57480, Note_on_c, 9, 70, 115
4, 57599, Note_on_c, 9, 70, 0
4, 57600, Note_on_c, 9, 70, 115
4, 57719, Note_on_c, 9, 70, 0
4, 57720, Note_on_c, 9, 70, 115
4, 57839, Note_on_c, 9, 70, 0
4, 57840, Note_on_c, 9, 70, 115
4, 57959, Note_on_c, 9, 70, 0
4, 57960, Note_on_c, 9, 70, 115
4, 58079, Note_on_c, 9, 70, 0
4, 58080, Note_on_c, 9, 70, 115
4, 58199, Note_on_c, 9, 70, 0
4, 58200, Note_on_c, 9, 70, 115
4, 58319, Note_on_c, 9, 70, 0
4, 58320, Note_on_c, 9, 70, 115
4, 58439, Note_on_c, 9, 70, 0
4, 58440, Note_on_c, 9, 70, 115
4, 58559, Note_on_c, 9, 70, 0
4, 58560, Note_on_c, 9, 70, 115
4, 58679, Note_on_c, 9, 70, 0
4, 58680, Note_on_c, 9, 70, 115
4, 58799, Note_on_c, 9, 70, 0
4, 58800, Note_on_c, 9, 70, 115
4, 58919, Note_on_c, 9, 70, 0
4, 58920, Note_on_c, 9, 70, 115
4, 59039, Note_on_c, 9, 70, 0
4, 59040, Note_on_c, 9, 70, 115
4, 59159, Note_on_c, 9, 70, 0
4, 59160, Note_on_c, 9, 70, 115
4, 59279, Note_on_c, 9, 70, 0
4, 59280, Note_on_c, 9, 70, 115
4, 59399, Note_on_c, 9, 70, 0
4, 59400, Note_on_c, 9, 70, 115
4, 59519, Note_on_c, 9, 70, 0
4, 59520, Note_on_c, 9, 70, 115
4, 59639, Note_on_c, 9, 70, 0
4, 59640, Note_on_c, 9, 70, 115
4, 59759, Note_on_c, 9, 70, 0
4, 59760, Note_on_c, 9, 70, 115
4, 59879, Note_on_c, 9, 70, 0
4, 59880, Note_on_c, 9, 70, 115
4, 59999, Note_on_c, 9, 70, 0
4, 60000, Note_on_c, 9, 70, 115
4, 60119, Note_on_c, 9, 70, 0
4, 60120, Note_on_c, 9, 70, 115
4, 60239, Note_on_c, 9, 70, 0
4, 60240, Note_on_c, 9, 70, 115
4, 60359, Note_on_c, 9, 70, 0
4, 60360, Note_on_c, 9, 70, 115
4, 60479, Note_on_c, 9, 70, 0
4, 60480, Note_on_c, 9, 70, 115
4, 60599, Note_on_c, 9, 70, 0
4, 60600, Note_on_c, 9, 70, 115
4, 60719, Note_on_c, 9, 70, 0
4, 60720, Note_on_c, 9, 70, 115
4, 60839, Note_on_c, 9, 70, 0
4, 60840, Note_on_c, 9, 70, 115
4, 60959, Note_on_c, 9, 70, 0
4, 60960, Note_on_c, 9, 70, 115
4, 61079, Note_on_c, 9, 70, 0
4, 61080, Note_on_c, 9, 70, 115
4, 61199, Note_on_c, 9, 70, 0
4, 61200, Note_on_c, 9, 70, 115
4, 61319, Note_on_c, 9, 70, 0
4, 61320, Note_on_c, 9, 70, 115
4, 61439, Note_on_c, 9, 70, 0
4, 61440, Note_on_c, 9, 70, 115
4, 61559, Note_on_c, 9, 70, 0
4, 61560, Note_on_c, 9, 70, 115
4, 61679, Note_on_c, 9, 70, 0
4, 61680, Note_on_c, 9, 70, 115
4, 61799, Note_on_c, 9, 70, 0
4, 61800, Note_on_c, 9, 70, 115
4, 61919, Note_on_c, 9, 70, 0
4, 61920, Note_on_c, 9, 70, 115
4, 62039, Note_on_c, 9, 70, 0
4, 62040, Note_on_c, 9, 70, 115
4, 62159, Note_on_c, 9, 70, 0
4, 62160, Note_on_c, 9, 70, 115
4, 62279, Note_on_c, 9, 70, 0
4, 62280, Note_on_c, 9, 70, 115
4, 62399, Note_on_c, 9, 70, 0
4, 62400, Note_on_c, 9, 70, 115
4, 62519, Note_on_c, 9, 70, 0
4, 62520, Note_on_c, 9, 70, 115
4, 62639, Note_on_c, 9, 70, 0
4, 62640, Note_on_c, 9, 70, 115
4, 62759, Note_on_c, 9, 70, 0
4, 62760, Note_on_c, 9, 70, 115
4, 62879, Note_on_c, 9, 70, 0
4, 62880, Note_on_c, 9, 70, 115
4, 62999, Note_on_c, 9, 70, 0
4, 63000, Note_on_c, 9, 70, 115
4, 63119, Note_on_c, 9, 70, 0
4, 63120, Note_on_c, 9, 70, 115
4, 63239, Note_on_c, 9, 70, 0
4, 63240, Note_on_c, 9, 70, 115
4, 63359, Note_on_c, 9, 70, 0
4, 63360, Note_on_c, 9, 70, 115
4, 63479, Note_on_c, 9, 70, 0
4, 63480, Note_on_c, 9, 70, 115
4, 63599, Note_on_c, 9, 70, 0
4, 63600, Note_on_c, 9, 70, 115
4, 63719, Note_on_c, 9, 70, 0
4, 63720, Note_on_c, 9, 70, 115
4, 63839, Note_on_c, 9, 70, 0
4, 63840, Note_on_c, 9, 70, 115
4, 63959, Note_on_c, 9, 70, 0
4, 63960, Note_on_c, 9, 70, 115
4, 64079, Note_on_c, 9, 70, 0
4, 64080, Note_on_c, 9, 70, 115
4, 64199, Note_on_c, 9, 70, 0
4, 64200, Note_on_c, 9, 70, 115
4, 64319, Note_on_c, 9, 70, 0
4, 64320, Note_on_c, 9, 70, 115
4, 64439, Note_on_c, 9, 70, 0
4, 64440, Note_on_c, 9, 70, 115
4, 64559, Note_on_c, 9, 70, 0
4, 64560, Note_on_c, 9, 70, 115
4, 64679, Note_on_c, 9, 70, 0
4, 64680, Note_on_c, 9, 70, 115
4, 64799, Note_on_c, 9, 70, 0
4, 64800, Note_on_c, 9, 70, 115
4, 64919, Note_on_c, 9, 70, 0
4, 64920, Note_on_c, 9, 70, 115
4, 65039, Note_on_c, 9, 70, 0
4, 65040, Note_on_c, 9, 70, 115
4, 65159, Note_on_c, 9, 70, 0
4, 65160, Note_on_c, 9, 70, 115
4, 65279, Note_on_c, 9, 70, 0
4, 65280, Note_on_c, 9, 70, 115
4, 65399, Note_on_c, 9, 70, 0
4, 65400, Note_on_c, 9, 70, 115
4, 65519, Note_on_c, 9, 70, 0
4, 65520, Note_on_c, 9, 70, 115
4, 65639, Note_on_c, 9, 70, 0
4, 65640, Note_on_c, 9, 70, 115
4, 65759, Note_on_c, 9, 70, 0
4, 65760, Note_on_c, 9, 70, 115
4, 65879, Note_on_c, 9, 70, 0
4, 65880, Note_on_c, 9, 70, 115
4, 65999, Note_on_c, 9, 70, 0
4, 66000, Note_on_c, 9, 70, 115
4, 66119, Note_on_c, 9, 70, 0
4, 66120, Note_on_c, 9, 70, 115
4, 66239, Note_on_c, 9, 70, 0
4, 66240, Note_on_c, 9, 70, 115
4, 66359, Note_on_c, 9, 70, 0
4, 66360, Note_on_c, 9, 70, 115
4, 66479, Note_on_c, 9, 70, 0
4, 66480, Note_on_c, 9, 70, 115
4, 66599, Note_on_c, 9, 70, 0
4, 66600, Note_on_c, 9, 70, 115
4, 66719, Note_on_c, 9, 70, 0
4, 66720, Note_on_c, 9, 70, 115
4, 66839, Note_on_c, 9, 70, 0
4, 66840, Note_on_c, 9, 70, 115
4, 66959, Note_on_c, 9, 70, 0
4, 66960, Note_on_c, 9, 70, 115
4, 67079, Note_on_c, 9, 70, 0
4, 67080, Note_on_c, 9, 70, 115
4, 67199, Note_on_c, 9, 70, 0
4, 67200, Note_on_c, 9, 70, 115
4, 67319, Note_on_c, 9, 70, 0
4, 67320, Note_on_c, 9, 70, 115
4, 67439, Note_on_c, 9, 70, 0
4, 67440, Note_on_c, 9, 70, 115
4, 67559, Note_on_c, 9, 70, 0
4, 67560, Note_on_c, 9, 70, 115
4, 67679, Note_on_c, 9, 70, 0
4, 67680, Note_on_c, 9, 70, 115
4, 67799, Note_on_c, 9, 70, 0
4, 67800, Note_on_c, 9, 70, 115
4, 67919, Note_on_c, 9, 70, 0
4, 67920, Note_on_c, 9, 70, 115
4, 68039, Note_on_c, 9, 70, 0
4, 68040, Note_on_c, 9, 70, 115
4, 68159, Note_on_c, 9, 70, 0
4, 68160, Note_on_c, 9, 70, 115
4, 68279, Note_on_c, 9, 70, 0
4, 68280, Note_on_c, 9, 70, 115
4, 68399, Note_on_c, 9, 70, 0
4, 68400, Note_on_c, 9, 70, 115
4, 68519, Note_on_c, 9, 70, 0
4, 68520, Note_on_c, 9, 70, 115
4, 68639, Note_on_c, 9, 70, 0
4, 68640, Note_on_c, 9, 70, 115
4, 68759, Note_on_c, 9, 70, 0
4, 68760, Note_on_c, 9, 70, 115
4, 68879, Note_on_c, 9, 70, 0
4, 68880, Note_on_c, 9, 70, 115
4, 68999, Note_on_c, 9, 70, 0
4, 69000, Note_on_c, 9, 70, 115
4, 69119, Note_on_c, 9, 70, 0
4, 69120, Note_on_c, 9, 70, 115
4, 69239, Note_on_c, 9, 70, 0
4, 69240, Note_on_c, 9, 70, 115
4, 69359, Note_on_c, 9, 70, 0
4, 69360, Note_on_c, 9, 70, 115
4, 69479, Note_on_c, 9, 70, 0
4, 69480, Note_on_c, 9, 70, 115
4, 69599, Note_on_c, 9, 70, 0
4, 69600, Note_on_c, 9, 70, 115
4, 69719, Note_on_c, 9, 70, 0
4, 69720, Note_on_c, 9, 70, 115
4, 69839, Note_on_c, 9, 70, 0
4, 69840, Note_on_c, 9, 70, 115
4, 69959, Note_on_c, 9, 70, 0
4, 69960, Note_on_c, 9, 70, 115
4, 70079, Note_on_c, 9, 70, 0
4, 70080, Note_on_c, 9, 70, 115
4, 70199, Note_on_c, 9, 70, 0
4, 70200, Note_on_c, 9, 70, 115
4, 70319, Note_on_c, 9, 70, 0
4, 70320, Note_on_c, 9, 70, 115
4, 70439, Note_on_c, 9, 70, 0
4, 70440, Note_on_c, 9, 70, 115
4, 70559, Note_on_c, 9, 70, 0
4, 70560, Note_on_c, 9, 70, 115
4, 70679, Note_on_c, 9, 70, 0
4, 70680, Note_on_c, 9, 70, 115
4, 70799, Note_on_c, 9, 70, 0
4, 70800, Note_on_c, 9, 70, 115
4, 70919, Note_on_c, 9, 70, 0
4, 70920, Note_on_c, 9, 70, 115
4, 71039, Note_on_c, 9, 70, 0
4, 71040, Note_on_c, 9, 70, 115
4, 71159, Note_on_c, 9, 70, 0
4, 71160, Note_on_c, 9, 70, 115
4, 71279, Note_on_c, 9, 70, 0
4, 71280, Note_on_c, 9, 70, 115
4, 71399, Note_on_c, 9, 70, 0
4, 71400, Note_on_c, 9, 70, 115
4, 71519, Note_on_c, 9, 70, 0
4, 71520, Note_on_c, 9, 70, 115
4, 71639, Note_on_c, 9, 70, 0
4, 71640, Note_on_c, 9, 70, 115
4, 71759, Note_on_c, 9, 70, 0
4, 71760, Note_on_c, 9, 70, 115
4, 71879, Note_on_c, 9, 70, 0
4, 71880, Note_on_c, 9, 70, 115
4, 71999, Note_on_c, 9, 70, 0
4, 72000, Note_on_c, 9, 70, 115
4, 72119, Note_on_c, 9, 70, 0
4, 72120, Note_on_c, 9, 70, 115
4, 72239, Note_on_c, 9, 70, 0
4, 72240, Note_on_c, 9, 70, 115
4, 72359, Note_on_c, 9, 70, 0
4, 72360, Note_on_c, 9, 70, 115
4, 72479, Note_on_c, 9, 70, 0
4, 72480, Note_on_c, 9, 70, 115
4, 72599, Note_on_c, 9, 70, 0
4, 72600, Note_on_c, 9, 70, 115
4, 72719, Note_on_c, 9, 70, 0
4, 72720, Note_on_c, 9, 70, 115
4, 72839, Note_on_c, 9, 70, 0
4, 72840, Note_on_c, 9, 70, 115
4, 72959, Note_on_c, 9, 70, 0
4, 72960, Note_on_c, 9, 70, 115
4, 73079, Note_on_c, 9, 70, 0
4, 73080, Note_on_c, 9, 70, 115
4, 73199, Note_on_c, 9, 70, 0
4, 73200, Note_on_c, 9, 70, 115
4, 73319, Note_on_c, 9, 70, 0
4, 73320, Note_on_c, 9, 70, 115
4, 73439, Note_on_c, 9, 70, 0
4, 73440, Note_on_c, 9, 70, 115
4, 73559, Note_on_c, 9, 70, 0
4, 73560, Note_on_c, 9, 70, 115
4, 73679, Note_on_c, 9, 70, 0
4, 73680, Note_on_c, 9, 70, 115
4, 73799, Note_on_c, 9, 70, 0
4, 73800, Note_on_c, 9, 70, 115
4, 73919, Note_on_c, 9, 70, 0
4, 73920, Note_on_c, 9, 70, 115
4, 74039, Note_on_c, 9, 70, 0
4, 74040, Note_on_c, 9, 70, 115
4, 74159, Note_on_c, 9, 70, 0
4, 74160, Note_on_c, 9, 70, 115
4, 74279, Note_on_c, 9, 70, 0
4, 74280, Note_on_c, 9, 70, 115
4, 74399, Note_on_c, 9, 70, 0
4, 74400, Note_on_c, 9, 70, 115
4, 74519, Note_on_c, 9, 70, 0
4, 74520, Note_on_c, 9, 70, 115
4, 74639, Note_on_c, 9, 70, 0
4, 74640, Note_on_c, 9, 70, 115
4, 74759, Note_on_c, 9, 70, 0
4, 74760, Note_on_c, 9, 70, 115
4, 74879, Note_on_c, 9, 70, 0
4, 74880, Note_on_c, 9, 70, 115
4, 74999, Note_on_c, 9, 70, 0
4, 75000, Note_on_c, 9, 70, 115
4, 75119, Note_on_c, 9, 70, 0
4, 75120, Note_on_c, 9, 70, 115
4, 75239, Note_on_c, 9, 70, 0
4, 75240, Note_on_c, 9, 70, 115
4, 75359, Note_on_c, 9, 70, 0
4, 75360, Note_on_c, 9, 70, 115
4, 75479, Note_on_c, 9, 70, 0
4, 75480, Note_on_c, 9, 70, 115
4, 75599, Note_on_c, 9, 70, 0
4, 75600, Note_on_c, 9, 70, 115
4, 75719, Note_on_c, 9, 70, 0
4, 75720, Note_on_c, 9, 70, 115
4, 75839, Note_on_c, 9, 70, 0
4, 75840, Note_on_c, 9, 70, 115
4, 75959, Note_on_c, 9, 70, 0
4, 75960, Note_on_c, 9, 70, 115
4, 76079, Note_on_c, 9, 70, 0
4, 76080, Note_on_c, 9, 70, 115
4, 76199, Note_on_c, 9, 70, 0
4, 76200, Note_on_c, 9, 70, 115
4, 76319, Note_on_c, 9, 70, 0
4, 76320, Note_on_c, 9, 70, 115
4, 76439, Note_on_c, 9, 70, 0
4, 76440, Note_on_c, 9, 70, 115
4, 76559, Note_on_c, 9, 70, 0
4, 76560, Note_on_c, 9, 70, 115
4, 76679, Note_on_c, 9, 70, 0
4, 76680, Note_on_c, 9, 70, 115
4, 76799, Note_on_c, 9, 70, 0
4, 76800, Note_on_c, 9, 70, 115
4, 76919, Note_on_c, 9, 70, 0
4, 76920, Note_on_c, 9, 70, 115
4, 77039, Note_on_c, 9, 70, 0
4, 77040, Note_on_c, 9, 70, 115
4, 77159, Note_on_c, 9, 70, 0
4, 77160, Note_on_c, 9, 70, 115
4, 77279, Note_on_c, 9, 70, 0
4, 77280, Note_on_c, 9, 70, 115
4, 77399, Note_on_c, 9, 70, 0
4, 77400, Note_on_c, 9, 70, 115
4, 77519, Note_on_c, 9, 70, 0
4, 77520, Note_on_c, 9, 70, 115
4, 77639, Note_on_c, 9, 70, 0
4, 77640, Note_on_c, 9, 70, 115
4, 77759, Note_on_c, 9, 70, 0
4, 77760, Note_on_c, 9, 70, 115
4, 77879, Note_on_c, 9, 70, 0
4, 77880, Note_on_c, 9, 70, 115
4, 77999, Note_on_c, 9, 70, 0
4, 78000, Note_on_c, 9, 70, 115
4, 78119, Note_on_c, 9, 70, 0
4, 78120, Note_on_c, 9, 70, 115
4, 78239, Note_on_c, 9, 70, 0
4, 78240, Note_on_c, 9, 70, 115
4, 78359, Note_on_c, 9, 70, 0
4, 78360, Note_on_c, 9, 70, 115
4, 78479, Note_on_c, 9, 70, 0
4, 78480, Note_on_c, 9, 70, 115
4, 78599, Note_on_c, 9, 70, 0
4, 78600, Note_on_c, 9, 70, 115
4, 78719, Note_on_c, 9, 70, 0
4, 78720, Note_on_c, 9, 70, 115
4, 78839, Note_on_c, 9, 70, 0
4, 78840, Note_on_c, 9, 70, 115
4, 78959, Note_on_c, 9, 70, 0
4, 78960, Note_on_c, 9, 70, 115
4, 79079, Note_on_c, 9, 70, 0
4, 79080, Note_on_c, 9, 70, 115
4, 79199, Note_on_c, 9, 70, 0
4, 79200, Note_on_c, 9, 70, 115
4, 79319, Note_on_c, 9, 70, 0
4, 79320, Note_on_c, 9, 70, 115
4, 79439, Note_on_c, 9, 70, 0
4, 79440, Note_on_c, 9, 70, 115
4, 79559, Note_on_c, 9, 70, 0
4, 79560, Note_on_c, 9, 70, 115
4, 79679, Note_on_c, 9, 70, 0
4, 79680, Note_on_c, 9, 70, 115
4, 79799, Note_on_c, 9, 70, 0
4, 79800, Note_on_c, 9, 70, 115
4, 79919, Note_on_c, 9, 70, 0
4, 79920, Note_on_c, 9, 70, 115
4, 80039, Note_on_c, 9, 70, 0
4, 80040, Note_on_c, 9, 70, 115
4, 80159, Note_on_c, 9, 70, 0
4, 80160, Note_on_c, 9, 70, 115
4, 80279, Note_on_c, 9, 70, 0
4, 80280, Note_on_c, 9, 70, 115
4, 80399, Note_on_c, 9, 70, 0
4, 80400, Note_on_c, 9, 70, 115
4, 80519, Note_on_c, 9, 70, 0
4, 80520, Note_on_c, 9, 70, 115
4, 80639, Note_on_c, 9, 70, 0
4, 80640, Note_on_c, 9, 70, 115
4, 80759, Note_on_c, 9, 70, 0
4, 80760, Note_on_c, 9, 70, 115
4, 80879, Note_on_c, 9, 70, 0
4, 80880, Note_on_c, 9, 70, 115
4, 80999, Note_on_c, 9, 70, 0
4, 81000, Note_on_c, 9, 70, 115
4, 81119, Note_on_c, 9, 70, 0
4, 81120, Note_on_c, 9, 70, 115
4, 81239, Note_on_c, 9, 70, 0
4, 81240, Note_on_c, 9, 70, 115
4, 81359, Note_on_c, 9, 70, 0
4, 81360, Note_on_c, 9, 70, 115
4, 81479, Note_on_c, 9, 70, 0
4, 81480, Note_on_c, 9, 70, 115
4, 81599, Note_on_c, 9, 70, 0
4, 81600, Note_on_c, 9, 70, 115
4, 81719, Note_on_c, 9, 70, 0
4, 81720, Note_on_c, 9, 70, 115
4, 81839, Note_on_c, 9, 70, 0
4, 81840, Note_on_c, 9, 70, 115
4, 81959, Note_on_c, 9, 70, 0
4, 81960, Note_on_c, 9, 70, 115
4, 82079, Note_on_c, 9, 70, 0
4, 82080, Note_on_c, 9, 70, 115
4, 82199, Note_on_c, 9, 70, 0
4, 82200, Note_on_c, 9, 70, 115
4, 82319, Note_on_c, 9, 70, 0
4, 82320, Note_on_c, 9, 70, 115
4, 82439, Note_on_c, 9, 70, 0
4, 82440, Note_on_c, 9, 70, 115
4, 82559, Note_on_c, 9, 70, 0
4, 82560, Note_on_c, 9, 70, 115
4, 82679, Note_on_c, 9, 70, 0
4, 82680, Note_on_c, 9, 70, 115
4, 82799, Note_on_c, 9, 70, 0
4, 82800, Note_on_c, 9, 70, 115
4, 82919, Note_on_c, 9, 70, 0
4, 82920, Note_on_c, 9, 70, 115
4, 83039, Note_on_c, 9, 70, 0
4, 83040, Note_on_c, 9, 70, 115
4, 83159, Note_on_c, 9, 70, 0
4, 83160, Note_on_c, 9, 70, 115
4, 83279, Note_on_c, 9, 70, 0
4, 83280, Note_on_c, 9, 70, 115
4, 83399, Note_on_c, 9, 70, 0
4, 83400, Note_on_c, 9, 70, 115
4, 83519, Note_on_c, 9, 70, 0
4, 83520, Note_on_c, 9, 70, 115
4, 83639, Note_on_c, 9, 70, 0
4, 83640, Note_on_c, 9, 70, 115
4, 83759, Note_on_c, 9, 70, 0
4, 83760, Note_on_c, 9, 70, 115
4, 83879, Note_on_c, 9, 70, 0
4, 83880, Note_on_c, 9, 70, 115
4, 83999, Note_on_c, 9, 70, 0
4, 84000, Note_on_c, 9, 70, 115
4, 84119, Note_on_c, 9, 70, 0
4, 84120, Note_on_c, 9, 70, 115
4, 84239, Note_on_c, 9, 70, 0
4, 84240, Note_on_c, 9, 70, 115
4, 84359, Note_on_c, 9, 70, 0
4, 84360, Note_on_c, 9, 70, 115
4, 84479, Note_on_c, 9, 70, 0
4, 84480, Note_on_c, 9, 70, 115
4, 84599, Note_on_c, 9, 70, 0
4, 84600, Note_on_c, 9, 70, 115
4, 84719, Note_on_c, 9, 70, 0
4, 84720, Note_on_c, 9, 70, 115
4, 84839, Note_on_c, 9, 70, 0
4, 84840, Note_on_c, 9, 70, 115
4, 84959, Note_on_c, 9, 70, 0
4, 84960, Note_on_c, 9, 70, 115
4, 85079, Note_on_c, 9, 70, 0
4, 85080, Note_on_c, 9, 70, 115
4, 85199, Note_on_c, 9, 70, 0
4, 85200, Note_on_c, 9, 70, 115
4, 85319, Note_on_c, 9, 70, 0
4, 85320, Note_on_c, 9, 70, 115
4, 85439, Note_on_c, 9, 70, 0
4, 85440, Note_on_c, 9, 70, 115
4, 85559, Note_on_c, 9, 70, 0
4, 85560, Note_on_c, 9, 70, 115
4, 85679, Note_on_c, 9, 70, 0
4, 85680, Note_on_c, 9, 70, 115
4, 85799, Note_on_c, 9, 70, 0
4, 85800, Note_on_c, 9, 70, 115
4, 85919, Note_on_c, 9, 70, 0
4, 85920, Note_on_c, 9, 70, 115
4, 86039, Note_on_c, 9, 70, 0
4, 86040, Note_on_c, 9, 70, 115
4, 86159, Note_on_c, 9, 70, 0
4, 86160, Note_on_c, 9, 70, 115
4, 86279, Note_on_c, 9, 70, 0
4, 86280, Note_on_c, 9, 70, 115
4, 86399, Note_on_c, 9, 70, 0
4, 86400, Note_on_c, 9, 70, 115
4, 86519, Note_on_c, 9, 70, 0
4, 86520, Note_on_c, 9, 70, 115
4, 86639, Note_on_c, 9, 70, 0
4, 86640, Note_on_c, 9, 70, 115
4, 86759, Note_on_c, 9, 70, 0
4, 86760, Note_on_c, 9, 70, 115
4, 86879, Note_on_c, 9, 70, 0
4, 86880, Note_on_c, 9, 70, 115
4, 86999, Note_on_c, 9, 70, 0
4, 87000, Note_on_c, 9, 70, 115
4, 87119, Note_on_c, 9, 70, 0
4, 87120, Note_on_c, 9, 70, 115
4, 87239, Note_on_c, 9, 70, 0
4, 87240, Note_on_c, 9, 70, 115
4, 87359, Note_on_c, 9, 70, 0
4, 87360, Note_on_c, 9, 70, 115
4, 87479, Note_on_c, 9, 70, 0
4, 87480, Note_on_c, 9, 70, 115
4, 87599, Note_on_c, 9, 70, 0
4, 87600, Note_on_c, 9, 70, 115
4, 87719, Note_on_c, 9, 70, 0
4, 87720, Note_on_c, 9, 70, 115
4, 87839, Note_on_c, 9, 70, 0
4, 87840, Note_on_c, 9, 70, 115
4, 87959, Note_on_c, 9, 70, 0
4, 87960, Note_on_c, 9, 70, 115
4, 88079, Note_on_c, 9, 70, 0
4, 88080, Note_on_c, 9, 70, 115
4, 88199, Note_on_c, 9, 70, 0
4, 88200, Note_on_c, 9, 70, 115
4, 88319, Note_on_c, 9, 70, 0
4, 88320, Note_on_c, 9, 70, 115
4, 88439, Note_on_c, 9, 70, 0
4, 88440, Note_on_c, 9, 70, 115
4, 88559, Note_on_c, 9, 70, 0
4, 88560, Note_on_c, 9, 70, 115
4, 88679, Note_on_c, 9, 70, 0
4, 88680, Note_on_c, 9, 70, 115
4, 88799, Note_on_c, 9, 70, 0
4, 88800, Note_on_c, 9, 70, 115
4, 88919, Note_on_c, 9, 70, 0
4, 88920, Note_on_c, 9, 70, 115
4, 89039, Note_on_c, 9, 70, 0
4, 89040, Note_on_c, 9, 70, 115
4, 89159, Note_on_c, 9, 70, 0
4, 89160, Note_on_c, 9, 70, 115
4, 89279, Note_on_c, 9, 70, 0
4, 89280, Note_on_c, 9, 70, 115
4, 89399, Note_on_c, 9, 70, 0
4, 89400, Note_on_c, 9, 70, 115
4, 89519, Note_on_c, 9, 70, 0
4, 89520, Note_on_c, 9, 70, 115
4, 89639, Note_on_c, 9, 70, 0
4, 89640, Note_on_c, 9, 70, 115
4, 89759, Note_on_c, 9, 70, 0
4, 89760, Note_on_c, 9, 70, 115
4, 89879, Note_on_c, 9, 70, 0
4, 89880, Note_on_c, 9, 70, 115
4, 89999, Note_on_c, 9, 70, 0
4, 90000, Note_on_c, 9, 70, 115
4, 90119, Note_on_c, 9, 70, 0
4, 90120, Note_on_c, 9, 70, 115
4, 90239, Note_on_c, 9, 70, 0
4, 90240, Note_on_c, 9, 70, 115
4, 90359, Note_on_c, 9, 70, 0
4, 90360, Note_on_c, 9, 70, 115
4, 90479, Note_on_c, 9, 70, 0
4, 90480, Note_on_c, 9, 70, 115
4, 90599, Note_on_c, 9, 70, 0
4, 90600, Note_on_c, 9, 70, 115
4, 90719, Note_on_c, 9, 70, 0
4, 90720, Note_on_c, 9, 70, 115
4, 90839, Note_on_c, 9, 70, 0
4, 90840, Note_on_c, 9, 70, 115
4, 90959, Note_on_c, 9, 70, 0
4, 90960, Note_on_c, 9, 70, 115
4, 91079, Note_on_c, 9, 70, 0
4, 91080, Note_on_c, 9, 70, 115
4, 91199, Note_on_c, 9, 70, 0
4, 91200, Note_on_c, 9, 70, 115
4, 91319, Note_on_c, 9, 70, 0
4, 91320, Note_on_c, 9, 70, 115
4, 91439, Note_on_c, 9, 70, 0
4, 91440, Note_on_c, 9, 70, 115
4, 91559, Note_on_c, 9, 70, 0
4, 91560, Note_on_c, 9, 70, 115
4, 91679, Note_on_c, 9, 70, 0
4, 91680, Note_on_c, 9, 70, 115
4, 91799, Note_on_c, 9, 70, 0
4, 91800, Note_on_c, 9, 70, 115
4, 91919, Note_on_c, 9, 70, 0
4, 91920, Note_on_c, 9, 70, 115
4, 92039, Note_on_c, 9, 70, 0
4, 92040, Note_on_c, 9, 70, 115
4, 92159, Note_on_c, 9, 70, 0
4, 92160, Note_on_c, 9, 70, 115
4, 92279, Note_on_c, 9, 70, 0
4, 92280, Note_on_c, 9, 70, 115
4, 92399, Note_on_c, 9, 70, 0
4, 92400, Note_on_c, 9, 70, 115
4, 92519, Note_on_c, 9, 70, 0
4, 92520, Note_on_c, 9, 70, 115
4, 92639, Note_on_c, 9, 70, 0
4, 92640, Note_on_c, 9, 70, 115
4, 92759, Note_on_c, 9, 70, 0
4, 92760, Note_on_c, 9, 70, 115
4, 92879, Note_on_c, 9, 70, 0
4, 92880, Note_on_c, 9, 70, 115
4, 92999, Note_on_c, 9, 70, 0
4, 93000, Note_on_c, 9, 70, 115
4, 93119, Note_on_c, 9, 70, 0
4, 93120, Note_on_c, 9, 70, 115
4, 93239, Note_on_c, 9, 70, 0
4, 93240, Note_on_c, 9, 70, 115
4, 93359, Note_on_c, 9, 70, 0
4, 93360, Note_on_c, 9, 70, 115
4, 93479, Note_on_c, 9, 70, 0
4, 93480, Note_on_c, 9, 70, 115
4, 93599, Note_on_c, 9, 70, 0
4, 93600, Note_on_c, 9, 70, 115
4, 93719, Note_on_c, 9, 70, 0
4, 93720, Note_on_c, 9, 70, 115
4, 93839, Note_on_c, 9, 70, 0
4, 93840, Note_on_c, 9, 70, 115
4, 93959, Note_on_c, 9, 70, 0
4, 93960, Note_on_c, 9, 70, 115
4, 94079, Note_on_c, 9, 70, 0
4, 94080, Note_on_c, 9, 70, 115
4, 94199, Note_on_c, 9, 70, 0
4, 94200, Note_on_c, 9, 70, 115
4, 94319, Note_on_c, 9, 70, 0
4, 94320, Note_on_c, 9, 70, 115
4, 94439, Note_on_c, 9, 70, 0
4, 94440, Note_on_c, 9, 70, 115
4, 94559, Note_on_c, 9, 70, 0
4, 94560, Note_on_c, 9, 70, 115
4, 94679, Note_on_c, 9, 70, 0
4, 94680, Note_on_c, 9, 70, 115
4, 94799, Note_on_c, 9, 70, 0
4, 94800, Note_on_c, 9, 70, 115
4, 94919, Note_on_c, 9, 70, 0
4, 94920, Note_on_c, 9, 70, 115
4, 95039, Note_on_c, 9, 70, 0
4, 95040, Note_on_c, 9, 70, 115
4, 95159, Note_on_c, 9, 70, 0
4, 95160, Note_on_c, 9, 70, 115
4, 95279, Note_on_c, 9, 70, 0
4, 95280, Note_on_c, 9, 70, 115
4, 95399, Note_on_c, 9, 70, 0
4, 95400, Note_on_c, 9, 70, 115
4, 95519, Note_on_c, 9, 70, 0
4, 95520, Note_on_c, 9, 70, 115
4, 95639, Note_on_c, 9, 70, 0
4, 95640, Note_on_c, 9, 70, 115
4, 95759, Note_on_c, 9, 70, 0
4, 95760, Note_on_c, 9, 70, 115
4, 95879, Note_on_c, 9, 70, 0
4, 95880, Note_on_c, 9, 70, 115
4, 95999, Note_on_c, 9, 70, 0
4, 96000, Note_on_c, 9, 70, 115
4, 96119, Note_on_c, 9, 70, 0
4, 96120, Note_on_c, 9, 70, 115
4, 96239, Note_on_c, 9, 70, 0
4, 96240, Note_on_c, 9, 70, 115
4, 96359, Note_on_c, 9, 70, 0
4, 96360, Note_on_c, 9, 70, 115
4, 96479, Note_on_c, 9, 70, 0
4, 96480, Note_on_c, 9, 70, 115
4, 96599, Note_on_c, 9, 70, 0
4, 96600, Note_on_c, 9, 70, 115
4, 96719, Note_on_c, 9, 70, 0
4, 96720, Note_on_c, 9, 70, 115
4, 96839, Note_on_c, 9, 70, 0
4, 96840, Note_on_c, 9, 70, 115
4, 96959, Note_on_c, 9, 70, 0
4, 96960, Note_on_c, 9, 70, 115
4, 97079, Note_on_c, 9, 70, 0
4, 97080, Note_on_c, 9, 70, 115
4, 97199, Note_on_c, 9, 70, 0
4, 97200, Note_on_c, 9, 70, 115
4, 97319, Note_on_c, 9, 70, 0
4, 97320, Note_on_c, 9, 70, 115
4, 97439, Note_on_c, 9, 70, 0
4, 97440, Note_on_c, 9, 70, 115
4, 97559, Note_on_c, 9, 70, 0
4, 97560, Note_on_c, 9, 70, 115
4, 97679, Note_on_c, 9, 70, 0
4, 97680, Note_on_c, 9, 70, 115
4, 97799, Note_on_c, 9, 70, 0
4, 97800, Note_on_c, 9, 70, 115
4, 97919, Note_on_c, 9, 70, 0
4, 97920, Note_on_c, 9, 70, 115
4, 98039, Note_on_c, 9, 70, 0
4, 98040, Note_on_c, 9, 70, 115
4, 98159, Note_on_c, 9, 70, 0
4, 98160, Note_on_c, 9, 70, 115
4, 98279, Note_on_c, 9, 70, 0
4, 98280, Note_on_c, 9, 70, 115
4, 98399, Note_on_c, 9, 70, 0
4, 98400, Note_on_c, 9, 70, 115
4, 98519, Note_on_c, 9, 70, 0
4, 98520, Note_on_c, 9, 70, 115
4, 98639, Note_on_c, 9, 70, 0
4, 98640, Note_on_c, 9, 70, 115
4, 98759, Note_on_c, 9, 70, 0
4, 98760, Note_on_c, 9, 70, 115
4, 98879, Note_on_c, 9, 70, 0
4, 98880, Note_on_c, 9, 70, 115
4, 98999, Note_on_c, 9, 70, 0
4, 99000, Note_on_c, 9, 70, 115
4, 99119, Note_on_c, 9, 70, 0
4, 99120, Note_on_c, 9, 70, 115
4, 99239, Note_on_c, 9, 70, 0
4, 99240, Note_on_c, 9, 70, 115
4, 99359, Note_on_c, 9, 70, 0
4, 99360, Note_on_c, 9, 70, 115
4, 99479, Note_on_c, 9, 70, 0
4, 99480, Note_on_c, 9, 70, 115
4, 99599, Note_on_c, 9, 70, 0
4, 99600, Note_on_c, 9, 70, 115
4, 99719, Note_on_c, 9, 70, 0
4, 99720, Note_on_c, 9, 70, 115
4, 99839, Note_on_c, 9, 70, 0
4, 99840, Note_on_c, 9, 70, 115
4, 99959, Note_on_c, 9, 70, 0
4, 99960, Note_on_c, 9, 70, 115
4, 100079, Note_on_c, 9, 70, 0
4, 100080, Note_on_c, 9, 70, 115
4, 100199, Note_on_c, 9, 70, 0
4, 100200, Note_on_c, 9, 70, 115
4, 100319, Note_on_c, 9, 70, 0
4, 100320, Note_on_c, 9, 70, 115
4, 100439, Note_on_c, 9, 70, 0
4, 100440, Note_on_c, 9, 70, 115
4, 100559, Note_on_c, 9, 70, 0
4, 100560, Note_on_c, 9, 70, 115
4, 100679, Note_on_c, 9, 70, 0
4, 100680, Note_on_c, 9, 70, 115
4, 100799, Note_on_c, 9, 70, 0
4, 100800, Note_on_c, 9, 70, 115
4, 100919, Note_on_c, 9, 70, 0
4, 100920, Note_on_c, 9, 70, 115
4, 101039, Note_on_c, 9, 70, 0
4, 101040, Note_on_c, 9, 70, 115
4, 101159, Note_on_c, 9, 70, 0
4, 101160, Note_on_c, 9, 70, 115
4, 101279, Note_on_c, 9, 70, 0
4, 101280, Note_on_c, 9, 70, 115
4, 101399, Note_on_c, 9, 70, 0
4, 101400, Note_on_c, 9, 70, 115
4, 101519, Note_on_c, 9, 70, 0
4, 101520, Note_on_c, 9, 70, 115
4, 101639, Note_on_c, 9, 70, 0
4, 101640, Note_on_c, 9, 70, 115
4, 101759, Note_on_c, 9, 70, 0
4, 101760, Note_on_c, 9, 70, 115
4, 101879, Note_on_c, 9, 70, 0
4, 101880, Note_on_c, 9, 70, 115
4, 101999, Note_on_c, 9, 70, 0
4, 102000, Note_on_c, 9, 70, 115
4, 102119, Note_on_c, 9, 70, 0
4, 102120, Note_on_c, 9, 70, 115
4, 102239, Note_on_c, 9, 70, 0
4, 102240, Note_on_c, 9, 70, 115
4, 102359, Note_on_c, 9, 70, 0
4, 102360, Note_on_c, 9, 70, 115
4, 102479, Note_on_c, 9, 70, 0
4, 102480, Note_on_c, 9, 70, 115
4, 102599, Note_on_c, 9, 70, 0
4, 102600, Note_on_c, 9, 70, 115
4, 102719, Note_on_c, 9, 70, 0
4, 102720, Note_on_c, 9, 70, 115
4, 102839, Note_on_c, 9, 70, 0
4, 102840, Note_on_c, 9, 70, 115
4, 102959, Note_on_c, 9, 70, 0
4, 102960, Note_on_c, 9, 70, 115
4, 103079, Note_on_c, 9, 70, 0
4, 103080, Note_on_c, 9, 70, 115
4, 103199, Note_on_c, 9, 70, 0
4, 103200, Note_on_c, 9, 70, 115
4, 103319, Note_on_c, 9, 70, 0
4, 103320, Note_on_c, 9, 70, 115
4, 103439, Note_on_c, 9, 70, 0
4, 103440, Note_on_c, 9, 70, 115
4, 103559, Note_on_c, 9, 70, 0
4, 103560, Note_on_c, 9, 70, 115
4, 103679, Note_on_c, 9, 70, 0
4, 103680, Note_on_c, 9, 70, 115
4, 103799, Note_on_c, 9, 70, 0
4, 103800, Note_on_c, 9, 70, 115
4, 103919, Note_on_c, 9, 70, 0
4, 103920, Note_on_c, 9, 70, 115
4, 104039, Note_on_c, 9, 70, 0
4, 104040, Note_on_c, 9, 70, 115
4, 104159, Note_on_c, 9, 70, 0
4, 104160, Note_on_c, 9, 70, 115
4, 104279, Note_on_c, 9, 70, 0
4, 104280, Note_on_c, 9, 70, 115
4, 104399, Note_on_c, 9, 70, 0
4, 104400, Note_on_c, 9, 70, 115
4, 104519, Note_on_c, 9, 70, 0
4, 104520, Note_on_c, 9, 70, 115
4, 104639, Note_on_c, 9, 70, 0
4, 104640, Note_on_c, 9, 70, 115
4, 104759, Note_on_c, 9, 70, 0
4, 104760, Note_on_c, 9, 70, 115
4, 104879, Note_on_c, 9, 70, 0
4, 104880, Note_on_c, 9, 70, 115
4, 104999, Note_on_c, 9, 70, 0
4, 105000, Note_on_c, 9, 70, 115
4, 105119, Note_on_c, 9, 70, 0
4, 105120, Note_on_c, 9, 70, 115
4, 105239, Note_on_c, 9, 70, 0
4, 105240, Note_on_c, 9, 70, 115
4, 105359, Note_on_c, 9, 70, 0
4, 105360, Note_on_c, 9, 70, 115
4, 105479, Note_on_c, 9, 70, 0
4, 105480, Note_on_c, 9, 70, 115
4, 105599, Note_on_c, 9, 70, 0
4, 105600, Note_on_c, 9, 70, 115
4, 105719, Note_on_c, 9, 70, 0
4, 105720, Note_on_c, 9, 70, 115
4, 105839, Note_on_c, 9, 70, 0
4, 105840, Note_on_c, 9, 70, 115
4, 105959, Note_on_c, 9, 70, 0
4, 105960, Note_on_c, 9, 70, 115
4, 106079, Note_on_c, 9, 70, 0
4, 106080, Note_on_c, 9, 70, 115
4, 106199, Note_on_c, 9, 70, 0
4, 106200, Note_on_c, 9, 70, 115
4, 106319, Note_on_c, 9, 70, 0
4, 106320, Note_on_c, 9, 70, 115
4, 106439, Note_on_c, 9, 70, 0
4, 106440, Note_on_c, 9, 70, 115
4, 106559, Note_on_c, 9, 70, 0
4, 106560, Note_on_c, 9, 70, 115
4, 106679, Note_on_c, 9, 70, 0
4, 106680, Note_on_c, 9, 70, 115
4, 106799, Note_on_c, 9, 70, 0
4, 106800, Note_on_c, 9, 70, 115
4, 106919, Note_on_c, 9, 70, 0
4, 106920, Note_on_c, 9, 70, 115
4, 107039, Note_on_c, 9, 70, 0
4, 107040, Note_on_c, 9, 70, 115
4, 107159, Note_on_c, 9, 70, 0
4, 107160, Note_on_c, 9, 70, 115
4, 107279, Note_on_c, 9, 70, 0
4, 107280, Note_on_c, 9, 70, 115
4, 107399, Note_on_c, 9, 70, 0
4, 107400, Note_on_c, 9, 70, 115
4, 107519, Note_on_c, 9, 70, 0
4, 107520, Note_on_c, 9, 70, 115
4, 107639, Note_on_c, 9, 70, 0
4, 107640, Note_on_c, 9, 70, 115
4, 107759, Note_on_c, 9, 70, 0
4, 107760, Note_on_c, 9, 70, 115
4, 107879, Note_on_c, 9, 70, 0
4, 107880, Note_on_c, 9, 70, 115
4, 107999, Note_on_c, 9, 70, 0
4, 108000, Note_on_c, 9, 70, 115
4, 108119, Note_on_c, 9, 70, 0
4, 108120, Note_on_c, 9, 70, 115
4, 108239, Note_on_c, 9, 70, 0
4, 108240, Note_on_c, 9, 70, 115
4, 108359, Note_on_c, 9, 70, 0
4, 108360, Note_on_c, 9, 70, 115
4, 108479, Note_on_c, 9, 70, 0
4, 108480, Note_on_c, 9, 70, 115
4, 108599, Note_on_c, 9, 70, 0
4, 108600, Note_on_c, 9, 70, 115
4, 108719, Note_on_c, 9, 70, 0
4, 108720, Note_on_c, 9, 70, 115
4, 108839, Note_on_c, 9, 70, 0
4, 108840, Note_on_c, 9, 70, 115
4, 108959, Note_on_c, 9, 70, 0
4, 108960, Note_on_c, 9, 70, 115
4, 109079, Note_on_c, 9, 70, 0
4, 109080, Note_on_c, 9, 70, 115
4, 109199, Note_on_c, 9, 70, 0
4, 109200, Note_on_c, 9, 70, 115
4, 109319, Note_on_c, 9, 70, 0
4, 109320, Note_on_c, 9, 70, 115
4, 109439, Note_on_c, 9, 70, 0
4, 109440, Note_on_c, 9, 70, 115
4, 109559, Note_on_c, 9, 70, 0
4, 109560, Note_on_c, 9, 70, 115
4, 109679, Note_on_c, 9, 70, 0
4, 109680, Note_on_c, 9, 70, 115
4, 109799, Note_on_c, 9, 70, 0
4, 109800, Note_on_c, 9, 70, 115
4, 109919, Note_on_c, 9, 70, 0
4, 109920, Note_on_c, 9, 70, 115
4, 110039, Note_on_c, 9, 70, 0
4, 110040, Note_on_c, 9, 70, 115
4, 110159, Note_on_c, 9, 70, 0
4, 110160, Note_on_c, 9, 70, 115
4, 110279, Note_on_c, 9, 70, 0
4, 110280, Note_on_c, 9, 70, 115
4, 110399, Note_on_c, 9, 70, 0
4, 110400, Note_on_c, 9, 70, 115
4, 110519, Note_on_c, 9, 70, 0
4, 110520, Note_on_c, 9, 70, 115
4, 110639, Note_on_c, 9, 70, 0
4, 110640, Note_on_c, 9, 70, 115
4, 110759, Note_on_c, 9, 70, 0
4, 110760, Note_on_c, 9, 70, 115
4, 110879, Note_on_c, 9, 70, 0
4, 110880, Note_on_c, 9, 70, 115
4, 110999, Note_on_c, 9, 70, 0
4, 111000, Note_on_c, 9, 70, 115
4, 111119, Note_on_c, 9, 70, 0
4, 111120, Note_on_c, 9, 70, 115
4, 111239, Note_on_c, 9, 70, 0
4, 111240, Note_on_c, 9, 70, 115
4, 111359, Note_on_c, 9, 70, 0
4, 111360, Note_on_c, 9, 70, 115
4, 111479, Note_on_c, 9, 70, 0
4, 111480, Note_on_c, 9, 70, 115
4, 111599, Note_on_c, 9, 70, 0
4, 111600, Note_on_c, 9, 70, 115
4, 111719, Note_on_c, 9, 70, 0
4, 111720, Note_on_c, 9, 70, 115
4, 111839, Note_on_c, 9, 70, 0
4, 111840, Note_on_c, 9, 70, 115
4, 111959, Note_on_c, 9, 70, 0
4, 111960, Note_on_c, 9, 70, 115
4, 112079, Note_on_c, 9, 70, 0
4, 112080, Note_on_c, 9, 70, 115
4, 112199, Note_on_c, 9, 70, 0
4, 112200, Note_on_c, 9, 70, 115
4, 112319, Note_on_c, 9, 70, 0
4, 112320, Note_on_c, 9, 70, 115
4, 112439, Note_on_c, 9, 70, 0
4, 112440, Note_on_c, 9, 70, 115
4, 112559, Note_on_c, 9, 70, 0
4, 112560, Note_on_c, 9, 70, 115
4, 112679, Note_on_c, 9, 70, 0
4, 112680, Note_on_c, 9, 70, 115
4, 112799, Note_on_c, 9, 70, 0
4, 112800, Note_on_c, 9, 70, 115
4, 112919, Note_on_c, 9, 70, 0
4, 112920, Note_on_c, 9, 70, 115
4, 113039, Note_on_c, 9, 70, 0
4, 113040, Note_on_c, 9, 70, 115
4, 113159, Note_on_c, 9, 70, 0
4, 113160, Note_on_c, 9, 70, 115
4, 113279, Note_on_c, 9, 70, 0
4, 113280, Note_on_c, 9, 70, 115
4, 113399, Note_on_c, 9, 70, 0
4, 113400, Note_on_c, 9, 70, 115
4, 113519, Note_on_c, 9, 70, 0
4, 113520, Note_on_c, 9, 70, 115
4, 113639, Note_on_c, 9, 70, 0
4, 113640, Note_on_c, 9, 70, 115
4, 113759, Note_on_c, 9, 70, 0
4, 113760, Note_on_c, 9, 70, 115
4, 113879, Note_on_c, 9, 70, 0
4, 113880, Note_on_c, 9, 70, 115
4, 113999, Note_on_c, 9, 70, 0
4, 114000, Note_on_c, 9, 70, 115
4, 114119, Note_on_c, 9, 70, 0
4, 114120, Note_on_c, 9, 70, 115
4, 114239, Note_on_c, 9, 70, 0
4, 114240, Note_on_c, 9, 70, 115
4, 114359, Note_on_c, 9, 70, 0
4, 114360, Note_on_c, 9, 70, 115
4, 114479, Note_on_c, 9, 70, 0
4, 114480, Note_on_c, 9, 70, 115
4, 114599, Note_on_c, 9, 70, 0
4, 114600, Note_on_c, 9, 70, 115
4, 114719, Note_on_c, 9, 70, 0
4, 114720, Note_on_c, 9, 70, 115
4, 114839, Note_on_c, 9, 70, 0
4, 114840, Note_on_c, 9, 70, 115
4, 114959, Note_on_c, 9, 70, 0
4, 114960, Note_on_c, 9, 70, 115
4, 115079, Note_on_c, 9, 70, 0
4, 115080, Note_on_c, 9, 70, 115
4, 115199, Note_on_c, 9, 70, 0
4, 115200, Note_on_c, 9, 70, 115
4, 115319, Note_on_c, 9, 70, 0
4, 115320, Note_on_c, 9, 70, 115
4, 115439, Note_on_c, 9, 70, 0
4, 115440, Note_on_c, 9, 70, 115
4, 115559, Note_on_c, 9, 70, 0
4, 115560, Note_on_c, 9, 70, 115
4, 115679, Note_on_c, 9, 70, 0
4, 115680, Note_on_c, 9, 70, 115
4, 115799, Note_on_c, 9, 70, 0
4, 115800, Note_on_c, 9, 70, 115
4, 115919, Note_on_c, 9, 70, 0
4, 115920, Note_on_c, 9, 70, 115
4, 116039, Note_on_c, 9, 70, 0
4, 116040, Note_on_c, 9, 70, 115
4, 116159, Note_on_c, 9, 70, 0
4, 116160, Note_on_c, 9, 70, 115
4, 116279, Note_on_c, 9, 70, 0
4, 116280, Note_on_c, 9, 70, 115
4, 116399, Note_on_c, 9, 70, 0
4, 116400, Note_on_c, 9, 70, 115
4, 116519, Note_on_c, 9, 70, 0
4, 116520, Note_on_c, 9, 70, 115
4, 116639, Note_on_c, 9, 70, 0
4, 116640, Note_on_c, 9, 70, 115
4, 116759, Note_on_c, 9, 70, 0
4, 116760, Note_on_c, 9, 70, 115
4, 116879, Note_on_c, 9, 70, 0
4, 116880, Note_on_c, 9, 70, 115
4, 116999, Note_on_c, 9, 70, 0
4, 117000, Note_on_c, 9, 70, 115
4, 117119, Note_on_c, 9, 70, 0
4, 117120, Note_on_c, 9, 70, 115
4, 117239, Note_on_c, 9, 70, 0
4, 117240, Note_on_c, 9, 70, 115
4, 117359, Note_on_c, 9, 70, 0
4, 117360, Note_on_c, 9, 70, 115
4, 117479, Note_on_c, 9, 70, 0
4, 117480, Note_on_c, 9, 70, 115
4, 117599, Note_on_c, 9, 70, 0
4, 117600, Note_on_c, 9, 70, 115
4, 117719, Note_on_c, 9, 70, 0
4, 117720, Note_on_c, 9, 70, 115
4, 117839, Note_on_c, 9, 70, 0
4, 117840, Note_on_c, 9, 70, 115
4, 117959, Note_on_c, 9, 70, 0
4, 117960, Note_on_c, 9, 70, 115
4, 118079, Note_on_c, 9, 70, 0
4, 118080, Note_on_c, 9, 70, 115
4, 118199, Note_on_c, 9, 70, 0
4, 118200, Note_on_c, 9, 70, 115
4, 118319, Note_on_c, 9, 70, 0
4, 118320, Note_on_c, 9, 70, 115
4, 118439, Note_on_c, 9, 70, 0
4, 118440, Note_on_c, 9, 70, 115
4, 118559, Note_on_c, 9, 70, 0
4, 118560, Note_on_c, 9, 70, 115
4, 118679, Note_on_c, 9, 70, 0
4, 118680, Note_on_c, 9, 70, 115
4, 118799, Note_on_c, 9, 70, 0
4, 118800, Note_on_c, 9, 70, 115
4, 118919, Note_on_c, 9, 70, 0
4, 118920, Note_on_c, 9, 70, 115
4, 119039, Note_on_c, 9, 70, 0
4, 119040, Note_on_c, 9, 70, 115
4, 119159, Note_on_c, 9, 70, 0
4, 119160, Note_on_c, 9, 70, 115
4, 119279, Note_on_c, 9, 70, 0
4, 119280, Note_on_c, 9, 70, 115
4, 119399, Note_on_c, 9, 70, 0
4, 119400, Note_on_c, 9, 70, 115
4, 119519, Note_on_c, 9, 70, 0
4, 119520, Note_on_c, 9, 70, 115
4, 119639, Note_on_c, 9, 70, 0
4, 119640, Note_on_c, 9, 70, 115
4, 119759, Note_on_c, 9, 70, 0
4, 119760, Note_on_c, 9, 70, 115
4, 119879, Note_on_c, 9, 70, 0
4, 119880, Note_on_c, 9, 70, 115
4, 119999, Note_on_c, 9, 70, 0
4, 120000, Note_on_c, 9, 70, 115
4, 120119, Note_on_c, 9, 70, 0
4, 120120, Note_on_c, 9, 70, 115
4, 120239, Note_on_c, 9, 70, 0
4, 120240, Note_on_c, 9, 70, 115
4, 120359, Note_on_c, 9, 70, 0
4, 120360, Note_on_c, 9, 70, 115
4, 120479, Note_on_c, 9, 70, 0
4, 120480, Note_on_c, 9, 70, 115
4, 120599, Note_on_c, 9, 70, 0
4, 120600, Note_on_c, 9, 70, 115
4, 120719, Note_on_c, 9, 70, 0
4, 120720, Note_on_c, 9, 70, 115
4, 120839, Note_on_c, 9, 70, 0
4, 120840, Note_on_c, 9, 70, 115
4, 120959, Note_on_c, 9, 70, 0
4, 120960, Note_on_c, 9, 70, 115
4, 121079, Note_on_c, 9, 70, 0
4, 121080, Note_on_c, 9, 70, 115
4, 121199, Note_on_c, 9, 70, 0
4, 121200, Note_on_c, 9, 70, 115
4, 121319, Note_on_c, 9, 70, 0
4, 121320, Note_on_c, 9, 70, 115
4, 121439, Note_on_c, 9, 70, 0
4, 121440, Note_on_c, 9, 70, 115
4, 121559, Note_on_c, 9, 70, 0
4, 121560, Note_on_c, 9, 70, 115
4, 121679, Note_on_c, 9, 70, 0
4, 121680, Note_on_c, 9, 70, 115
4, 121799, Note_on_c, 9, 70, 0
4, 121800, Note_on_c, 9, 70, 115
4, 121919, Note_on_c, 9, 70, 0
4, 121920, Note_on_c, 9, 70, 115
4, 122039, Note_on_c, 9, 70, 0
4, 122040, Note_on_c, 9, 70, 115
4, 122159, Note_on_c, 9, 70, 0
4, 122160, Note_on_c, 9, 70, 115
4, 122279, Note_on_c, 9, 70, 0
4, 122280, Note_on_c, 9, 70, 115
4, 122399, Note_on_c, 9, 70, 0
4, 122400, Note_on_c, 9, 70, 115
4, 122519, Note_on_c, 9, 70, 0
4, 122520, Note_on_c, 9, 70, 115
4, 122639, Note_on_c, 9, 70, 0
4, 122640, Note_on_c, 9, 70, 115
4, 122759, Note_on_c, 9, 70, 0
4, 122760, Note_on_c, 9, 70, 115
4, 122879, Note_on_c, 9, 70, 0
4, 122880, Note_on_c, 9, 70, 115
4, 122999, Note_on_c, 9, 70, 0
4, 123000, Note_on_c, 9, 70, 115
4, 123119, Note_on_c, 9, 70, 0
4, 123120, Note_on_c, 9, 70, 115
4, 123239, Note_on_c, 9, 70, 0
4, 123240, Note_on_c, 9, 70, 115
4, 123359, Note_on_c, 9, 70, 0
4, 123360, Note_on_c, 9, 70, 115
4, 123479, Note_on_c, 9, 70, 0
4, 123480, Note_on_c, 9, 70, 115
4, 123599, Note_on_c, 9, 70, 0
4, 123600, Note_on_c, 9, 70, 115
4, 123719, Note_on_c, 9, 70, 0
4, 123720, Note_on_c, 9, 70, 115
4, 123839, Note_on_c, 9, 70, 0
4, 123840, Note_on_c, 9, 70, 115
4, 123959, Note_on_c, 9, 70, 0
4, 123960, Note_on_c, 9, 70, 115
4, 124079, Note_on_c, 9, 70, 0
4, 124080, Note_on_c, 9, 70, 115
4, 124199, Note_on_c, 9, 70, 0
4, 124200, Note_on_c, 9, 70, 115
4, 124319, Note_on_c, 9, 70, 0
4, 124320, Note_on_c, 9, 70, 115
4, 124439, Note_on_c, 9, 70, 0
4, 124440, Note_on_c, 9, 70, 115
4, 124559, Note_on_c, 9, 70, 0
4, 124560, Note_on_c, 9, 70, 115
4, 124679, Note_on_c, 9, 70, 0
4, 124680, Note_on_c, 9, 70, 115
4, 124799, Note_on_c, 9, 70, 0
4, 124800, Note_on_c, 9, 70, 115
4, 124919, Note_on_c, 9, 70, 0
4, 124920, Note_on_c, 9, 70, 115
4, 125039, Note_on_c, 9, 70, 0
4, 125040, Note_on_c, 9, 70, 115
4, 125159, Note_on_c, 9, 70, 0
4, 125160, Note_on_c, 9, 70, 115
4, 125279, Note_on_c, 9, 70, 0
4, 125280, Note_on_c, 9, 70, 115
4, 125399, Note_on_c, 9, 70, 0
4, 125400, Note_on_c, 9, 70, 115
4, 125519, Note_on_c, 9, 70, 0
4, 125520, Note_on_c, 9, 70, 115
4, 125639, Note_on_c, 9, 70, 0
4, 125640, Note_on_c, 9, 70, 115
4, 125759, Note_on_c, 9, 70, 0
4, 125760, Note_on_c, 9, 70, 115
4, 125879, Note_on_c, 9, 70, 0
4, 125880, Note_on_c, 9, 70, 115
4, 125999, Note_on_c, 9, 70, 0
4, 126000, Note_on_c, 9, 70, 115
4, 126119, Note_on_c, 9, 70, 0
4, 126120, Note_on_c, 9, 70, 115
4, 126239, Note_on_c, 9, 70, 0
4, 126240, Note_on_c, 9, 70, 115
4, 126359, Note_on_c, 9, 70, 0
4, 126360, Note_on_c, 9, 70, 115
4, 126479, Note_on_c, 9, 70, 0
4, 126480, Note_on_c, 9, 70, 115
4, 126599, Note_on_c, 9, 70, 0
4, 126600, Note_on_c, 9, 70, 115
4, 126719, Note_on_c, 9, 70, 0
4, 126720, Note_on_c, 9, 70, 115
4, 126839, Note_on_c, 9, 70, 0
4, 126840, Note_on_c, 9, 70, 115
4, 126959, Note_on_c, 9, 70, 0
4, 126960, Note_on_c, 9, 70, 115
4, 127079, Note_on_c, 9, 70, 0
4, 127080, Note_on_c, 9, 70, 115
4, 127199, Note_on_c, 9, 70, 0
4, 127200, Note_on_c, 9, 70, 115
4, 127319, Note_on_c, 9, 70, 0
4, 127320, Note_on_c, 9, 70, 115
4, 127439, Note_on_c, 9, 70, 0
4, 127440, Note_on_c, 9, 70, 115
4, 127559, Note_on_c, 9, 70, 0
4, 127560, Note_on_c, 9, 70, 115
4, 127679, Note_on_c, 9, 70, 0
4, 127680, Note_on_c, 9, 70, 115
4, 127799, Note_on_c, 9, 70, 0
4, 127800, Note_on_c, 9, 70, 115
4, 127919, Note_on_c, 9, 70, 0
4, 127920, Note_on_c, 9, 70, 115
4, 128039, Note_on_c, 9, 70, 0
4, 128040, Note_on_c, 9, 70, 115
4, 128159, Note_on_c, 9, 70, 0
4, 128160, Note_on_c, 9, 70, 115
4, 128279, Note_on_c, 9, 70, 0
4, 128280, Note_on_c, 9, 70, 115
4, 128399, Note_on_c, 9, 70, 0
4, 128400, Note_on_c, 9, 70, 115
4, 128519, Note_on_c, 9, 70, 0
4, 128520, Note_on_c, 9, 70, 115
4, 128639, Note_on_c, 9, 70, 0
4, 128640, Note_on_c, 9, 70, 115
4, 128759, Note_on_c, 9, 70, 0
4, 128760, Note_on_c, 9, 70, 115
4, 128879, Note_on_c, 9, 70, 0
4, 128880, Note_on_c, 9, 70, 115
4, 128999, Note_on_c, 9, 70, 0
4, 129000, Note_on_c, 9, 70, 115
4, 129119, Note_on_c, 9, 70, 0
4, 129120, Note_on_c, 9, 70, 115
4, 129239, Note_on_c, 9, 70, 0
4, 129240, Note_on_c, 9, 70, 115
4, 129359, Note_on_c, 9, 70, 0
4, 129360, Note_on_c, 9, 70, 115
4, 129479, Note_on_c, 9, 70, 0
4, 129480, Note_on_c, 9, 70, 115
4, 129599, Note_on_c, 9, 70, 0
4, 129600, Note_on_c, 9, 70, 115
4, 129719, Note_on_c, 9, 70, 0
4, 129720, Note_on_c, 9, 70, 115
4, 129839, Note_on_c, 9, 70, 0
4, 129840, Note_on_c, 9, 70, 115
4, 129959, Note_on_c, 9, 70, 0
4, 129960, Note_on_c, 9, 70, 115
4, 130079, Note_on_c, 9, 70, 0
4, 130080, Note_on_c, 9, 70, 115
4, 130199, Note_on_c, 9, 70, 0
4, 130200, Note_on_c, 9, 70, 115
4, 130319, Note_on_c, 9, 70, 0
4, 130320, Note_on_c, 9, 70, 115
4, 130439, Note_on_c, 9, 70, 0
4, 130440, Note_on_c, 9, 70, 115
4, 130559, Note_on_c, 9, 70, 0
4, 130560, Note_on_c, 9, 70, 115
4, 130679, Note_on_c, 9, 70, 0
4, 130680, Note_on_c, 9, 70, 115
4, 130799, Note_on_c, 9, 70, 0
4, 130800, Note_on_c, 9, 70, 115
4, 130919, Note_on_c, 9, 70, 0
4, 130920, Note_on_c, 9, 70, 115
4, 131039, Note_on_c, 9, 70, 0
4, 131040, Note_on_c, 9, 70, 115
4, 131159, Note_on_c, 9, 70, 0
4, 131160, Note_on_c, 9, 70, 115
4, 131279, Note_on_c, 9, 70, 0
4, 131280, Note_on_c, 9, 70, 115
4, 131399, Note_on_c, 9, 70, 0
4, 131400, Note_on_c, 9, 70, 115
4, 131519, Note_on_c, 9, 70, 0
4, 131520, Note_on_c, 9, 70, 115
4, 131639, Note_on_c, 9, 70, 0
4, 131640, Note_on_c, 9, 70, 115
4, 131759, Note_on_c, 9, 70, 0
4, 131760, Note_on_c, 9, 70, 115
4, 131879, Note_on_c, 9, 70, 0
4, 131880, Note_on_c, 9, 70, 115
4, 131999, Note_on_c, 9, 70, 0
4, 132000, Note_on_c, 9, 70, 115
4, 132119, Note_on_c, 9, 70, 0
4, 132120, Note_on_c, 9, 70, 115
4, 132239, Note_on_c, 9, 70, 0
4, 132240, Note_on_c, 9, 70, 115
4, 132359, Note_on_c, 9, 70, 0
4, 132360, Note_on_c, 9, 70, 115
4, 132479, Note_on_c, 9, 70, 0
4, 132480, Note_on_c, 9, 70, 115
4, 132599, Note_on_c, 9, 70, 0
4, 132600, Note_on_c, 9, 70, 115
4, 132719, Note_on_c, 9, 70, 0
4, 132720, Note_on_c, 9, 70, 115
4, 132839, Note_on_c, 9, 70, 0
4, 132840, Note_on_c, 9, 70, 115
4, 132959, Note_on_c, 9, 70, 0
4, 132960, Note_on_c, 9, 70, 115
4, 133079, Note_on_c, 9, 70, 0
4, 133080, Note_on_c, 9, 70, 115
4, 133199, Note_on_c, 9, 70, 0
4, 133200, Note_on_c, 9, 70, 115
4, 133319, Note_on_c, 9, 70, 0
4, 133320, Note_on_c, 9, 70, 115
4, 133439, Note_on_c, 9, 70, 0
4, 133440, Note_on_c, 9, 70, 115
4, 133559, Note_on_c, 9, 70, 0
4, 133560, Note_on_c, 9, 70, 115
4, 133679, Note_on_c, 9, 70, 0
4, 133680, Note_on_c, 9, 70, 115
4, 133799, Note_on_c, 9, 70, 0
4, 133800, Note_on_c, 9, 70, 115
4, 133919, Note_on_c, 9, 70, 0
4, 133920, Note_on_c, 9, 70, 115
4, 134039, Note_on_c, 9, 70, 0
4, 134040, Note_on_c, 9, 70, 115
4, 134159, Note_on_c, 9, 70, 0
4, 134160, Note_on_c, 9, 70, 115
4, 134279, Note_on_c, 9, 70, 0
4, 134280, Note_on_c, 9, 70, 115
4, 134399, Note_on_c, 9, 70, 0
4, 134400, Note_on_c, 9, 70, 115
4, 134519, Note_on_c, 9, 70, 0
4, 134520, Note_on_c, 9, 70, 115
4, 134639, Note_on_c, 9, 70, 0
4, 134640, Note_on_c, 9, 70, 115
4, 134759, Note_on_c, 9, 70, 0
4, 134760, Note_on_c, 9, 70, 115
4, 134879, Note_on_c, 9, 70, 0
4, 134880, Note_on_c, 9, 70, 115
4, 134999, Note_on_c, 9, 70, 0
4, 135000, Note_on_c, 9, 70, 115
4, 135119, Note_on_c, 9, 70, 0
4, 135120, Note_on_c, 9, 70, 115
4, 135239, Note_on_c, 9, 70, 0
4, 135240, Note_on_c, 9, 70, 115
4, 135359, Note_on_c, 9, 70, 0
4, 135360, Note_on_c, 9, 70, 115
4, 135479, Note_on_c, 9, 70, 0
4, 135480, Note_on_c, 9, 70, 115
4, 135599, Note_on_c, 9, 70, 0
4, 135600, Note_on_c, 9, 70, 115
4, 135719, Note_on_c, 9, 70, 0
4, 135720, Note_on_c, 9, 70, 115
4, 135839, Note_on_c, 9, 70, 0
4, 135840, Note_on_c, 9, 70, 115
4, 135959, Note_on_c, 9, 70, 0
4, 135960, Note_on_c, 9, 70, 115
4, 136079, Note_on_c, 9, 70, 0
4, 136080, Note_on_c, 9, 70, 115
4, 136199, Note_on_c, 9, 70, 0
4, 136200, Note_on_c, 9, 70, 115
4, 136319, Note_on_c, 9, 70, 0
4, 136320, Note_on_c, 9, 70, 115
4, 136439, Note_on_c, 9, 70, 0
4, 136440, Note_on_c, 9, 70, 115
4, 136559, Note_on_c, 9, 70, 0
4, 136560, Note_on_c, 9, 70, 115
4, 136679, Note_on_c, 9, 70, 0
4, 136680, Note_on_c, 9, 70, 115
4, 136799, Note_on_c, 9, 70, 0
4, 136800, Note_on_c, 9, 70, 115
4, 136919, Note_on_c, 9, 70, 0
4, 136920, Note_on_c, 9, 70, 115
4, 137039, Note_on_c, 9, 70, 0
4, 137040, Note_on_c, 9, 70, 115
4, 137159, Note_on_c, 9, 70, 0
4, 137160, Note_on_c, 9, 70, 115
4, 137279, Note_on_c, 9, 70, 0
4, 137280, Note_on_c, 9, 70, 115
4, 137399, Note_on_c, 9, 70, 0
4, 137400, Note_on_c, 9, 70, 115
4, 137519, Note_on_c, 9, 70, 0
4, 137520, Note_on_c, 9, 70, 115
4, 137639, Note_on_c, 9, 70, 0
4, 137640, Note_on_c, 9, 70, 115
4, 137759, Note_on_c, 9, 70, 0
4, 137760, Note_on_c, 9, 70, 115
4, 137879, Note_on_c, 9, 70, 0
4, 137880, Note_on_c, 9, 70, 115
4, 137999, Note_on_c, 9, 70, 0
4, 138000, Note_on_c, 9, 70, 115
4, 138119, Note_on_c, 9, 70, 0
4, 138120, Note_on_c, 9, 70, 115
4, 138239, Note_on_c, 9, 70, 0
4, 138240, Note_on_c, 9, 70, 115
4, 138359, Note_on_c, 9, 70, 0
4, 138360, Note_on_c, 9, 70, 115
4, 138479, Note_on_c, 9, 70, 0
4, 138480, Note_on_c, 9, 70, 115
4, 138599, Note_on_c, 9, 70, 0
4, 138600, Note_on_c, 9, 70, 115
4, 138719, Note_on_c, 9, 70, 0
4, 138720, Note_on_c, 9, 70, 115
4, 138839, Note_on_c, 9, 70, 0
4, 138840, Note_on_c, 9, 70, 115
4, 138959, Note_on_c, 9, 70, 0
4, 138960, Note_on_c, 9, 70, 115
4, 139079, Note_on_c, 9, 70, 0
4, 139080, Note_on_c, 9, 70, 115
4, 139199, Note_on_c, 9, 70, 0
4, 139200, Note_on_c, 9, 70, 115
4, 139319, Note_on_c, 9, 70, 0
4, 139320, Note_on_c, 9, 70, 115
4, 139439, Note_on_c, 9, 70, 0
4, 139440, Note_on_c, 9, 70, 115
4, 139559, Note_on_c, 9, 70, 0
4, 139560, Note_on_c, 9, 70, 115
4, 139679, Note_on_c, 9, 70, 0
4, 139680, Note_on_c, 9, 70, 115
4, 139799, Note_on_c, 9, 70, 0
4, 139800, Note_on_c, 9, 70, 115
4, 139919, Note_on_c, 9, 70, 0
4, 139920, Note_on_c, 9, 70, 115
4, 140039, Note_on_c, 9, 70, 0
4, 140040, Note_on_c, 9, 70, 115
4, 140159, Note_on_c, 9, 70, 0
4, 140160, Note_on_c, 9, 70, 115
4, 140279, Note_on_c, 9, 70, 0
4, 140280, Note_on_c, 9, 70, 115
4, 140399, Note_on_c, 9, 70, 0
4, 140400, Note_on_c, 9, 70, 115
4, 140519, Note_on_c, 9, 70, 0
4, 140520, Note_on_c, 9, 70, 115
4, 140639, Note_on_c, 9, 70, 0
4, 140640, Note_on_c, 9, 70, 115
4, 140759, Note_on_c, 9, 70, 0
4, 140760, Note_on_c, 9, 70, 115
4, 140879, Note_on_c, 9, 70, 0
4, 140880, Note_on_c, 9, 70, 115
4, 140999, Note_on_c, 9, 70, 0
4, 141000, Note_on_c, 9, 70, 115
4, 141119, Note_on_c, 9, 70, 0
4, 141120, Note_on_c, 9, 70, 115
4, 141239, Note_on_c, 9, 70, 0
4, 141240, Note_on_c, 9, 70, 115
4, 141359, Note_on_c, 9, 70, 0
4, 141360, Note_on_c, 9, 70, 115
4, 141479, Note_on_c, 9, 70, 0
4, 141480, Note_on_c, 9, 70, 115
4, 141599, Note_on_c, 9, 70, 0
4, 141600, Note_on_c, 9, 70, 115
4, 141719, Note_on_c, 9, 70, 0
4, 141720, Note_on_c, 9, 70, 115
4, 141839, Note_on_c, 9, 70, 0
4, 141840, Note_on_c, 9, 70, 115
4, 141959, Note_on_c, 9, 70, 0
4, 141960, Note_on_c, 9, 70, 115
4, 142079, Note_on_c, 9, 70, 0
4, 142080, Note_on_c, 9, 70, 115
4, 142199, Note_on_c, 9, 70, 0
4, 142200, Note_on_c, 9, 70, 115
4, 142319, Note_on_c, 9, 70, 0
4, 142320, Note_on_c, 9, 70, 115
4, 142439, Note_on_c, 9, 70, 0
4, 142440, Note_on_c, 9, 70, 115
4, 142559, Note_on_c, 9, 70, 0
4, 142560, Note_on_c, 9, 70, 115
4, 142679, Note_on_c, 9, 70, 0
4, 142680, Note_on_c, 9, 70, 115
4, 142799, Note_on_c, 9, 70, 0
4, 142800, Note_on_c, 9, 70, 115
4, 142919, Note_on_c, 9, 70, 0
4, 142920, Note_on_c, 9, 70, 115
4, 143039, Note_on_c, 9, 70, 0
4, 143040, Note_on_c, 9, 70, 115
4, 143159, Note_on_c, 9, 70, 0
4, 143160, Note_on_c, 9, 70, 115
4, 143279, Note_on_c, 9, 70, 0
4, 143280, Note_on_c, 9, 70, 115
4, 143399, Note_on_c, 9, 70, 0
4, 143400, Note_on_c, 9, 70, 115
4, 143519, Note_on_c, 9, 70, 0
4, 143520, Note_on_c, 9, 70, 115
4, 143639, Note_on_c, 9, 70, 0
4, 143640, Note_on_c, 9, 70, 115
4, 143759, Note_on_c, 9, 70, 0
4, 143760, Note_on_c, 9, 70, 115
4, 143879, Note_on_c, 9, 70, 0
4, 143880, Note_on_c, 9, 70, 115
4, 143999, Note_on_c, 9, 70, 0
4, 144000, Note_on_c, 9, 70, 115
4, 144119, Note_on_c, 9, 70, 0
4, 144120, Note_on_c, 9, 70, 115
4, 144239, Note_on_c, 9, 70, 0
4, 144240, Note_on_c, 9, 70, 115
4, 144359, Note_on_c, 9, 70, 0
4, 144360, Note_on_c, 9, 70, 115
4, 144479, Note_on_c, 9, 70, 0
4, 144480, Note_on_c, 9, 70, 115
4, 144599, Note_on_c, 9, 70, 0
4, 144600, Note_on_c, 9, 70, 115
4, 144719, Note_on_c, 9, 70, 0
4, 144720, Note_on_c, 9, 70, 115
4, 144839, Note_on_c, 9, 70, 0
4, 144840, Note_on_c, 9, 70, 115
4, 144959, Note_on_c, 9, 70, 0
4, 144960, Note_on_c, 9, 70, 115
4, 145079, Note_on_c, 9, 70, 0
4, 145080, Note_on_c, 9, 70, 115
4, 145199, Note_on_c, 9, 70, 0
4, 145200, Note_on_c, 9, 70, 115
4, 145319, Note_on_c, 9, 70, 0
4, 145320, Note_on_c, 9, 70, 115
4, 145439, Note_on_c, 9, 70, 0
4, 145440, Note_on_c, 9, 70, 115
4, 145559, Note_on_c, 9, 70, 0
4, 145560, Note_on_c, 9, 70, 115
4, 145679, Note_on_c, 9, 70, 0
4, 145680, Note_on_c, 9, 70, 115
4, 145799, Note_on_c, 9, 70, 0
4, 145800, Note_on_c, 9, 70, 115
4, 145919, Note_on_c, 9, 70, 0
4, 145920, Note_on_c, 9, 70, 115
4, 146039, Note_on_c, 9, 70, 0
4, 146040, Note_on_c, 9, 70, 115
4, 146159, Note_on_c, 9, 70, 0
4, 146160, Note_on_c, 9, 70, 115
4, 146279, Note_on_c, 9, 70, 0
4, 146280, Note_on_c, 9, 70, 115
4, 146399, Note_on_c, 9, 70, 0
4, 146400, Note_on_c, 9, 70, 115
4, 146519, Note_on_c, 9, 70, 0
4, 146520, Note_on_c, 9, 70, 115
4, 146639, Note_on_c, 9, 70, 0
4, 146640, Note_on_c, 9, 70, 115
4, 146759, Note_on_c, 9, 70, 0
4, 146760, Note_on_c, 9, 70, 115
4, 146879, Note_on_c, 9, 70, 0
4, 146880, Note_on_c, 9, 70, 115
4, 146999, Note_on_c, 9, 70, 0
4, 147000, Note_on_c, 9, 70, 115
4, 147119, Note_on_c, 9, 70, 0
4, 147120, Note_on_c, 9, 70, 115
4, 147239, Note_on_c, 9, 70, 0
4, 147240, Note_on_c, 9, 70, 115
4, 147359, Note_on_c, 9, 70, 0
4, 147360, Note_on_c, 9, 70, 115
4, 147479, Note_on_c, 9, 70, 0
4, 147480, Note_on_c, 9, 70, 115
4, 147599, Note_on_c, 9, 70, 0
4, 147600, Note_on_c, 9, 70, 115
4, 147719, Note_on_c, 9, 70, 0
4, 147720, Note_on_c, 9, 70, 115
4, 147839, Note_on_c, 9, 70, 0
4, 147840, Note_on_c, 9, 70, 115
4, 147959, Note_on_c, 9, 70, 0
4, 147960, Note_on_c, 9, 70, 115
4, 148079, Note_on_c, 9, 70, 0
4, 148080, Note_on_c, 9, 70, 115
4, 148199, Note_on_c, 9, 70, 0
4, 148200, Note_on_c, 9, 70, 115
4, 148319, Note_on_c, 9, 70, 0
4, 148320, Note_on_c, 9, 70, 115
4, 148439, Note_on_c, 9, 70, 0
4, 148440, Note_on_c, 9, 70, 115
4, 148559, Note_on_c, 9, 70, 0
4, 148560, Note_on_c, 9, 70, 115
4, 148679, Note_on_c, 9, 70, 0
4, 148680, Note_on_c, 9, 70, 115
4, 148799, Note_on_c, 9, 70, 0
4, 148800, Note_on_c, 9, 70, 115
4, 148919, Note_on_c, 9, 70, 0
4, 148920, Note_on_c, 9, 70, 115
4, 149039, Note_on_c, 9, 70, 0
4, 149040, Note_on_c, 9, 70, 115
4, 149159, Note_on_c, 9, 70, 0
4, 149160, Note_on_c, 9, 70, 115
4, 149279, Note_on_c, 9, 70, 0
4, 149280, Note_on_c, 9, 70, 115
4, 149399, Note_on_c, 9, 70, 0
4, 149400, Note_on_c, 9, 70, 115
4, 149519, Note_on_c, 9, 70, 0
4, 149520, Note_on_c, 9, 70, 115
4, 149639, Note_on_c, 9, 70, 0
4, 149640, Note_on_c, 9, 70, 115
4, 149759, Note_on_c, 9, 70, 0
4, 149760, Note_on_c, 9, 70, 115
4, 149879, Note_on_c, 9, 70, 0
4, 149880, Note_on_c, 9, 70, 115
4, 149999, Note_on_c, 9, 70, 0
4, 150000, Note_on_c, 9, 70, 115
4, 150119, Note_on_c, 9, 70, 0
4, 150120, Note_on_c, 9, 70, 115
4, 150239, Note_on_c, 9, 70, 0
4, 150240, Note_on_c, 9, 70, 115
4, 150359, Note_on_c, 9, 70, 0
4, 150360, Note_on_c, 9, 70, 115
4, 150479, Note_on_c, 9, 70, 0
4, 150480, Note_on_c, 9, 70, 115
4, 150599, Note_on_c, 9, 70, 0
4, 150600, Note_on_c, 9, 70, 115
4, 150719, Note_on_c, 9, 70, 0
4, 150720, Note_on_c, 9, 70, 115
4, 150839, Note_on_c, 9, 70, 0
4, 150840, Note_on_c, 9, 70, 115
4, 150959, Note_on_c, 9, 70, 0
4, 150960, Note_on_c, 9, 70, 115
4, 151079, Note_on_c, 9, 70, 0
4, 151080, Note_on_c, 9, 70, 115
4, 151199, Note_on_c, 9, 70, 0
4, 151200, Note_on_c, 9, 70, 115
4, 151319, Note_on_c, 9, 70, 0
4, 151320, Note_on_c, 9, 70, 115
4, 151439, Note_on_c, 9, 70, 0
4, 151440, Note_on_c, 9, 70, 115
4, 151559, Note_on_c, 9, 70, 0
4, 151560, Note_on_c, 9, 70, 115
4, 151679, Note_on_c, 9, 70, 0
4, 151680, Note_on_c, 9, 70, 115
4, 151799, Note_on_c, 9, 70, 0
4, 151800, Note_on_c, 9, 70, 115
4, 151919, Note_on_c, 9, 70, 0
4, 151920, Note_on_c, 9, 70, 115
4, 152039, Note_on_c, 9, 70, 0
4, 152040, Note_on_c, 9, 70, 115
4, 152159, Note_on_c, 9, 70, 0
4, 152160, Note_on_c, 9, 70, 115
4, 152279, Note_on_c, 9, 70, 0
4, 152280, Note_on_c, 9, 70, 115
4, 152399, Note_on_c, 9, 70, 0
4, 152400, Note_on_c, 9, 70, 115
4, 152519, Note_on_c, 9, 70, 0
4, 152520, Note_on_c, 9, 70, 115
4, 152639, Note_on_c, 9, 70, 0
4, 152640, Note_on_c, 9, 70, 115
4, 152759, Note_on_c, 9, 70, 0
4, 152760, Note_on_c, 9, 70, 115
4, 152879, Note_on_c, 9, 70, 0
4, 152880, Note_on_c, 9, 70, 115
4, 152999, Note_on_c, 9, 70, 0
4, 153000, Note_on_c, 9, 70, 115
4, 153119, Note_on_c, 9, 70, 0
4, 153120, Note_on_c, 9, 70, 115
4, 153239, Note_on_c, 9, 70, 0
4, 153240, Note_on_c, 9, 70, 115
4, 153359, Note_on_c, 9, 70, 0
4, 153360, Note_on_c, 9, 70, 115
4, 153479, Note_on_c, 9, 70, 0
4, 153480, Note_on_c, 9, 70, 115
4, 153599, Note_on_c, 9, 70, 0
4, 153600, Note_on_c, 9, 70, 115
4, 153719, Note_on_c, 9, 70, 0
4, 153720, Note_on_c, 9, 70, 115
4, 153839, Note_on_c, 9, 70, 0
4, 153840, Note_on_c, 9, 70, 115
4, 153959, Note_on_c, 9, 70, 0
4, 153960, Note_on_c, 9, 70, 115
4, 154079, Note_on_c, 9, 70, 0
4, 154080, Note_on_c, 9, 70, 115
4, 154199, Note_on_c, 9, 70, 0
4, 154200, Note_on_c, 9, 70, 115
4, 154319, Note_on_c, 9, 70, 0
4, 154320, Note_on_c, 9, 70, 115
4, 154439, Note_on_c, 9, 70, 0
4, 154440, Note_on_c, 9, 70, 115
4, 154559, Note_on_c, 9, 70, 0
4, 154560, Note_on_c, 9, 70, 115
4, 154679, Note_on_c, 9, 70, 0
4, 154680, Note_on_c, 9, 70, 115
4, 154799, Note_on_c, 9, 70, 0
4, 154800, Note_on_c, 9, 70, 115
4, 154919, Note_on_c, 9, 70, 0
4, 154920, Note_on_c, 9, 70, 115
4, 155039, Note_on_c, 9, 70, 0
4, 155040, Note_on_c, 9, 70, 115
4, 155159, Note_on_c, 9, 70, 0
4, 155160, Note_on_c, 9, 70, 115
4, 155279, Note_on_c, 9, 70, 0
4, 155280, Note_on_c, 9, 70, 115
4, 155399, Note_on_c, 9, 70, 0
4, 155400, Note_on_c, 9, 70, 115
4, 155519, Note_on_c, 9, 70, 0
4, 155520, Note_on_c, 9, 70, 115
4, 155639, Note_on_c, 9, 70, 0
4, 155640, Note_on_c, 9, 70, 115
4, 155759, Note_on_c, 9, 70, 0
4, 155760, Note_on_c, 9, 70, 115
4, 155879, Note_on_c, 9, 70, 0
4, 155880, Note_on_c, 9, 70, 115
4, 155999, Note_on_c, 9, 70, 0
4, 156000, Note_on_c, 9, 70, 115
4, 156119, Note_on_c, 9, 70, 0
4, 156120, Note_on_c, 9, 70, 115
4, 156239, Note_on_c, 9, 70, 0
4, 156240, Note_on_c, 9, 70, 115
4, 156359, Note_on_c, 9, 70, 0
4, 156360, Note_on_c, 9, 70, 115
4, 156479, Note_on_c, 9, 70, 0
4, 156480, Note_on_c, 9, 70, 115
4, 156599, Note_on_c, 9, 70, 0
4, 156600, Note_on_c, 9, 70, 115
4, 156719, Note_on_c, 9, 70, 0
4, 156720, Note_on_c, 9, 70, 115
4, 156839, Note_on_c, 9, 70, 0
4, 156840, Note_on_c, 9, 70, 115
4, 156959, Note_on_c, 9, 70, 0
4, 156960, Note_on_c, 9, 70, 115
4, 157079, Note_on_c, 9, 70, 0
4, 157080, Note_on_c, 9, 70, 115
4, 157199, Note_on_c, 9, 70, 0
4, 157200, Note_on_c, 9, 70, 115
4, 157319, Note_on_c, 9, 70, 0
4, 157320, Note_on_c, 9, 70, 115
4, 157439, Note_on_c, 9, 70, 0
4, 157440, Note_on_c, 9, 70, 115
4, 157559, Note_on_c, 9, 70, 0
4, 157560, Note_on_c, 9, 70, 115
4, 157679, Note_on_c, 9, 70, 0
4, 157680, Note_on_c, 9, 70, 115
4, 157799, Note_on_c, 9, 70, 0
4, 157800, Note_on_c, 9, 70, 115
4, 157919, Note_on_c, 9, 70, 0
4, 157920, Note_on_c, 9, 70, 115
4, 158039, Note_on_c, 9, 70, 0
4, 158040, Note_on_c, 9, 70, 115
4, 158159, Note_on_c, 9, 70, 0
4, 158160, Note_on_c, 9, 70, 115
4, 158279, Note_on_c, 9, 70, 0
4, 158280, Note_on_c, 9, 70, 115
4, 158399, Note_on_c, 9, 70, 0
4, 158400, Note_on_c, 9, 70, 115
4, 158519, Note_on_c, 9, 70, 0
4, 158520, Note_on_c, 9, 70, 115
4, 158639, Note_on_c, 9, 70, 0
4, 158640, Note_on_c, 9, 70, 115
4, 158759, Note_on_c, 9, 70, 0
4, 158760, Note_on_c, 9, 70, 115
4, 158879, Note_on_c, 9, 70, 0
4, 158880, Note_on_c, 9, 70, 115
4, 158999, Note_on_c, 9, 70, 0
4, 159000, Note_on_c, 9, 70, 115
4, 159119, Note_on_c, 9, 70, 0
4, 159120, Note_on_c, 9, 70, 115
4, 159239, Note_on_c, 9, 70, 0
4, 159240, Note_on_c, 9, 70, 115
4, 159359, Note_on_c, 9, 70, 0
4, 159360, Note_on_c, 9, 70, 115
4, 159479, Note_on_c, 9, 70, 0
4, 159480, Note_on_c, 9, 70, 115
4, 159599, Note_on_c, 9, 70, 0
4, 159600, Note_on_c, 9, 70, 115
4, 159719, Note_on_c, 9, 70, 0
4, 159720, Note_on_c, 9, 70, 115
4, 159839, Note_on_c, 9, 70, 0
4, 159840, Note_on_c, 9, 70, 115
4, 159959, Note_on_c, 9, 70, 0
4, 159960, Note_on_c, 9, 70, 115
4, 160079, Note_on_c, 9, 70, 0
4, 160080, Note_on_c, 9, 70, 115
4, 160199, Note_on_c, 9, 70, 0
4, 160200, Note_on_c, 9, 70, 115
4, 160319, Note_on_c, 9, 70, 0
4, 160320, Note_on_c, 9, 70, 115
4, 160439, Note_on_c, 9, 70, 0
4, 160440, Note_on_c, 9, 70, 115
4, 160559, Note_on_c, 9, 70, 0
4, 160560, Note_on_c, 9, 70, 115
4, 160679, Note_on_c, 9, 70, 0
4, 160680, Note_on_c, 9, 70, 115
4, 160799, Note_on_c, 9, 70, 0
4, 160800, Note_on_c, 9, 70, 115
4, 160919, Note_on_c, 9, 70, 0
4, 160920, Note_on_c, 9, 70, 115
4, 161039, Note_on_c, 9, 70, 0
4, 161040, Note_on_c, 9, 70, 115
4, 161159, Note_on_c, 9, 70, 0
4, 161160, Note_on_c, 9, 70, 115
4, 161279, Note_on_c, 9, 70, 0
4, 161280, Note_on_c, 9, 70, 115
4, 161399, Note_on_c, 9, 70, 0
4, 161400, Note_on_c, 9, 70, 115
4, 161519, Note_on_c, 9, 70, 0
4, 161520, Note_on_c, 9, 70, 115
4, 161639, Note_on_c, 9, 70, 0
4, 161640, Note_on_c, 9, 70, 115
4, 161759, Note_on_c, 9, 70, 0
4, 161760, Note_on_c, 9, 70, 115
4, 161879, Note_on_c, 9, 70, 0
4, 161880, Note_on_c, 9, 70, 115
4, 161999, Note_on_c, 9, 70, 0
4, 162000, Note_on_c, 9, 70, 115
4, 162119, Note_on_c, 9, 70, 0
4, 162120, Note_on_c, 9, 70, 115
4, 162239, Note_on_c, 9, 70, 0
4, 162240, Note_on_c, 9, 70, 115
4, 162359, Note_on_c, 9, 70, 0
4, 162360, Note_on_c, 9, 70, 115
4, 162479, Note_on_c, 9, 70, 0
4, 162480, Note_on_c, 9, 70, 115
4, 162599, Note_on_c, 9, 70, 0
4, 162600, Note_on_c, 9, 70, 115
4, 162719, Note_on_c, 9, 70, 0
4, 162720, Note_on_c, 9, 70, 115
4, 162839, Note_on_c, 9, 70, 0
4, 162840, Note_on_c, 9, 70, 115
4, 162959, Note_on_c, 9, 70, 0
4, 162960, Note_on_c, 9, 70, 115
4, 163079, Note_on_c, 9, 70, 0
4, 163080, Note_on_c, 9, 70, 115
4, 163199, Note_on_c, 9, 70, 0
4, 163200, Note_on_c, 9, 70, 115
4, 163319, Note_on_c, 9, 70, 0
4, 163320, Note_on_c, 9, 70, 115
4, 163439, Note_on_c, 9, 70, 0
4, 163440, Note_on_c, 9, 70, 115
4, 163559, Note_on_c, 9, 70, 0
4, 163560, Note_on_c, 9, 70, 115
4, 163679, Note_on_c, 9, 70, 0
4, 163680, Note_on_c, 9, 70, 115
4, 163799, Note_on_c, 9, 70, 0
4, 163800, Note_on_c, 9, 70, 115
4, 163919, Note_on_c, 9, 70, 0
4, 163920, Note_on_c, 9, 70, 115
4, 164039, Note_on_c, 9, 70, 0
4, 164040, Note_on_c, 9, 70, 115
4, 164159, Note_on_c, 9, 70, 0
4, 164160, Note_on_c, 9, 70, 115
4, 164279, Note_on_c, 9, 70, 0
4, 164280, Note_on_c, 9, 70, 115
4, 164399, Note_on_c, 9, 70, 0
4, 164400, Note_on_c, 9, 70, 115
4, 164519, Note_on_c, 9, 70, 0
4, 164520, Note_on_c, 9, 70, 115
4, 164639, Note_on_c, 9, 70, 0
4, 164640, Note_on_c, 9, 70, 115
4, 164759, Note_on_c, 9, 70, 0
4, 164760, Note_on_c, 9, 70, 115
4, 164879, Note_on_c, 9, 70, 0
4, 164880, Note_on_c, 9, 70, 115
4, 164999, Note_on_c, 9, 70, 0
4, 165000, Note_on_c, 9, 70, 115
4, 165119, Note_on_c, 9, 70, 0
4, 165120, Note_on_c, 9, 70, 115
4, 165239, Note_on_c, 9, 70, 0
4, 165240, Note_on_c, 9, 70, 115
4, 165359, Note_on_c, 9, 70, 0
4, 165360, Note_on_c, 9, 70, 115
4, 165479, Note_on_c, 9, 70, 0
4, 165480, Note_on_c, 9, 70, 115
4, 165599, Note_on_c, 9, 70, 0
4, 165600, Note_on_c, 9, 70, 115
4, 165719, Note_on_c, 9, 70, 0
4, 165720, Note_on_c, 9, 70, 115
4, 165839, Note_on_c, 9, 70, 0
4, 165840, Note_on_c, 9, 70, 115
4, 165959, Note_on_c, 9, 70, 0
4, 165960, Note_on_c, 9, 70, 115
4, 166079, Note_on_c, 9, 70, 0
4, 166080, Note_on_c, 9, 70, 115
4, 166199, Note_on_c, 9, 70, 0
4, 166200, Note_on_c, 9, 70, 115
4, 166319, Note_on_c, 9, 70, 0
4, 166320, Note_on_c, 9, 70, 115
4, 166439, Note_on_c, 9, 70, 0
4, 166440, Note_on_c, 9, 70, 115
4, 166559, Note_on_c, 9, 70, 0
4, 166560, Note_on_c, 9, 70, 115
4, 166679, Note_on_c, 9, 70, 0
4, 166680, Note_on_c, 9, 70, 115
4, 166799, Note_on_c, 9, 70, 0
4, 166800, Note_on_c, 9, 70, 115
4, 166919, Note_on_c, 9, 70, 0
4, 166920, Note_on_c, 9, 70, 115
4, 167039, Note_on_c, 9, 70, 0
4, 167040, Note_on_c, 9, 70, 115
4, 167159, Note_on_c, 9, 70, 0
4, 167160, Note_on_c, 9, 70, 115
4, 167279, Note_on_c, 9, 70, 0
4, 167280, Note_on_c, 9, 70, 115
4, 167399, Note_on_c, 9, 70, 0
4, 167400, Note_on_c, 9, 70, 115
4, 167519, Note_on_c, 9, 70, 0
4, 167520, Note_on_c, 9, 70, 115
4, 167639, Note_on_c, 9, 70, 0
4, 167640, Note_on_c, 9, 70, 115
4, 167759, Note_on_c, 9, 70, 0
4, 167760, Note_on_c, 9, 70, 115
4, 167879, Note_on_c, 9, 70, 0
4, 167880, Note_on_c, 9, 70, 115
4, 167999, Note_on_c, 9, 70, 0
4, 168000, Note_on_c, 9, 70, 115
4, 168119, Note_on_c, 9, 70, 0
4, 168120, Note_on_c, 9, 70, 115
4, 168239, Note_on_c, 9, 70, 0
4, 168240, Note_on_c, 9, 70, 115
4, 168359, Note_on_c, 9, 70, 0
4, 168360, Note_on_c, 9, 70, 115
4, 168479, Note_on_c, 9, 70, 0
4, 168480, Note_on_c, 9, 70, 115
4, 168599, Note_on_c, 9, 70, 0
4, 168600, Note_on_c, 9, 70, 115
4, 168719, Note_on_c, 9, 70, 0
4, 168720, Note_on_c, 9, 70, 115
4, 168839, Note_on_c, 9, 70, 0
4, 168840, Note_on_c, 9, 70, 115
4, 168959, Note_on_c, 9, 70, 0
4, 168960, Note_on_c, 9, 70, 115
4, 169079, Note_on_c, 9, 70, 0
4, 169080, Note_on_c, 9, 70, 115
4, 169199, Note_on_c, 9, 70, 0
4, 169200, Note_on_c, 9, 70, 115
4, 169319, Note_on_c, 9, 70, 0
4, 169320, Note_on_c, 9, 70, 115
4, 169439, Note_on_c, 9, 70, 0
4, 169440, Note_on_c, 9, 70, 115
4, 169559, Note_on_c, 9, 70, 0
4, 169560, Note_on_c, 9, 70, 115
4, 169679, Note_on_c, 9, 70, 0
4, 169680, Note_on_c, 9, 70, 115
4, 169799, Note_on_c, 9, 70, 0
4, 169800, Note_on_c, 9, 70, 115
4, 169919, Note_on_c, 9, 70, 0
4, 169920, Note_on_c, 9, 70, 115
4, 170039, Note_on_c, 9, 70, 0
4, 170040, Note_on_c, 9, 70, 115
4, 170159, Note_on_c, 9, 70, 0
4, 170160, Note_on_c, 9, 70, 115
4, 170279, Note_on_c, 9, 70, 0
4, 170280, Note_on_c, 9, 70, 115
4, 170399, Note_on_c, 9, 70, 0
4, 170400, Note_on_c, 9, 70, 115
4, 170519, Note_on_c, 9, 70, 0
4, 170520, Note_on_c, 9, 70, 115
4, 170639, Note_on_c, 9, 70, 0
4, 170640, Note_on_c, 9, 70, 115
4, 170759, Note_on_c, 9, 70, 0
4, 170760, Note_on_c, 9, 70, 115
4, 170879, Note_on_c, 9, 70, 0
4, 170880, Note_on_c, 9, 70, 115
4, 170999, Note_on_c, 9, 70, 0
4, 171000, Note_on_c, 9, 70, 115
4, 171119, Note_on_c, 9, 70, 0
4, 171120, Note_on_c, 9, 70, 115
4, 171239, Note_on_c, 9, 70, 0
4, 171240, Note_on_c, 9, 70, 115
4, 171359, Note_on_c, 9, 70, 0
4, 171360, Note_on_c, 9, 70, 115
4, 171479, Note_on_c, 9, 70, 0
4, 171480, Note_on_c, 9, 70, 115
4, 171599, Note_on_c, 9, 70, 0
4, 171600, Note_on_c, 9, 70, 115
4, 171719, Note_on_c, 9, 70, 0
4, 171720, Note_on_c, 9, 70, 115
4, 171839, Note_on_c, 9, 70, 0
4, 171840, Note_on_c, 9, 70, 115
4, 171959, Note_on_c, 9, 70, 0
4, 171960, Note_on_c, 9, 70, 115
4, 172079, Note_on_c, 9, 70, 0
4, 172080, Note_on_c, 9, 70, 115
4, 172199, Note_on_c, 9, 70, 0
4, 172200, Note_on_c, 9, 70, 115
4, 172319, Note_on_c, 9, 70, 0
4, 172320, Note_on_c, 9, 70, 115
4, 172439, Note_on_c, 9, 70, 0
4, 172440, Note_on_c, 9, 70, 115
4, 172559, Note_on_c, 9, 70, 0
4, 172560, Note_on_c, 9, 70, 115
4, 172679, Note_on_c, 9, 70, 0
4, 172680, Note_on_c, 9, 70, 115
4, 172799, Note_on_c, 9, 70, 0
4, 172800, Note_on_c, 9, 70, 115
4, 172919, Note_on_c, 9, 70, 0
4, 172920, Note_on_c, 9, 70, 115
4, 173039, Note_on_c, 9, 70, 0
4, 173040, Note_on_c, 9, 70, 115
4, 173159, Note_on_c, 9, 70, 0
4, 173160, Note_on_c, 9, 70, 115
4, 173279, Note_on_c, 9, 70, 0
4, 173280, Note_on_c, 9, 70, 115
4, 173399, Note_on_c, 9, 70, 0
4, 173400, Note_on_c, 9, 70, 115
4, 173519, Note_on_c, 9, 70, 0
4, 173520, Note_on_c, 9, 70, 115
4, 173639, Note_on_c, 9, 70, 0
4, 173640, Note_on_c, 9, 70, 115
4, 173759, Note_on_c, 9, 70, 0
4, 173760, Note_on_c, 9, 70, 115
4, 173879, Note_on_c, 9, 70, 0
4, 173880, Note_on_c, 9, 70, 115
4, 173999, Note_on_c, 9, 70, 0
4, 174000, Note_on_c, 9, 70, 115
4, 174119, Note_on_c, 9, 70, 0
4, 174120, Note_on_c, 9, 70, 115
4, 174239, Note_on_c, 9, 70, 0
4, 174240, Note_on_c, 9, 70, 115
4, 174359, Note_on_c, 9, 70, 0
4, 174360, Note_on_c, 9, 70, 115
4, 174479, Note_on_c, 9, 70, 0
4, 174480, Note_on_c, 9, 70, 115
4, 174599, Note_on_c, 9, 70, 0
4, 174600, Note_on_c, 9, 70, 115
4, 174719, Note_on_c, 9, 70, 0
4, 174720, Note_on_c, 9, 70, 115
4, 174839, Note_on_c, 9, 70, 0
4, 174840, Note_on_c, 9, 70, 115
4, 174959, Note_on_c, 9, 70, 0
4, 174960, Note_on_c, 9, 70, 115
4, 175079, Note_on_c, 9, 70, 0
4, 175080, Note_on_c, 9, 70, 115
4, 175199, Note_on_c, 9, 70, 0
4, 175200, Note_on_c, 9, 70, 115
4, 175319, Note_on_c, 9, 70, 0
4, 175320, Note_on_c, 9, 70, 115
4, 175439, Note_on_c, 9, 70, 0
4, 175440, Note_on_c, 9, 70, 115
4, 175559, Note_on_c, 9, 70, 0
4, 175560, Note_on_c, 9, 70, 115
4, 175679, Note_on_c, 9, 70, 0
4, 175680, Note_on_c, 9, 70, 115
4, 175799, Note_on_c, 9, 70, 0
4, 175800, Note_on_c, 9, 70, 115
4, 175919, Note_on_c, 9, 70, 0
4, 175920, Note_on_c, 9, 70, 115
4, 176039, Note_on_c, 9, 70, 0
4, 176040, Note_on_c, 9, 70, 115
4, 176159, Note_on_c, 9, 70, 0
4, 176160, Note_on_c, 9, 70, 115
4, 176279, Note_on_c, 9, 70, 0
4, 176280, Note_on_c, 9, 70, 115
4, 176399, Note_on_c, 9, 70, 0
4, 176400, Note_on_c, 9, 70, 115
4, 176519, Note_on_c, 9, 70, 0
4, 176520, Note_on_c, 9, 70, 115
4, 176639, Note_on_c, 9, 70, 0
4, 176640, Note_on_c, 9, 70, 115
4, 176759, Note_on_c, 9, 70, 0
4, 176760, Note_on_c, 9, 70, 115
4, 176879, Note_on_c, 9, 70, 0
4, 176880, Note_on_c, 9, 70, 115
4, 176999, Note_on_c, 9, 70, 0
4, 177000, Note_on_c, 9, 70, 115
4, 177119, Note_on_c, 9, 70, 0
4, 177120, Note_on_c, 9, 70, 115
4, 177239, Note_on_c, 9, 70, 0
4, 177240, Note_on_c, 9, 70, 115
4, 177359, Note_on_c, 9, 70, 0
4, 177360, Note_on_c, 9, 70, 115
4, 177479, Note_on_c, 9, 70, 0
4, 177480, Note_on_c, 9, 70, 115
4, 177599, Note_on_c, 9, 70, 0
4, 177600, Note_on_c, 9, 70, 115
4, 177719, Note_on_c, 9, 70, 0
4, 177720, Note_on_c, 9, 70, 115
4, 177839, Note_on_c, 9, 70, 0
4, 177840, Note_on_c, 9, 70, 115
4, 177959, Note_on_c, 9, 70, 0
4, 177960, Note_on_c, 9, 70, 115
4, 178079, Note_on_c, 9, 70, 0
4, 178080, Note_on_c, 9, 70, 115
4, 178199, Note_on_c, 9, 70, 0
4, 178200, Note_on_c, 9, 70, 115
4, 178319, Note_on_c, 9, 70, 0
4, 178320, Note_on_c, 9, 70, 115
4, 178439, Note_on_c, 9, 70, 0
4, 178440, Note_on_c, 9, 70, 115
4, 178559, Note_on_c, 9, 70, 0
4, 178560, Note_on_c, 9, 70, 115
4, 178679, Note_on_c, 9, 70, 0
4, 178680, Note_on_c, 9, 70, 115
4, 178799, Note_on_c, 9, 70, 0
4, 178800, Note_on_c, 9, 70, 115
4, 178919, Note_on_c, 9, 70, 0
4, 178920, Note_on_c, 9, 70, 115
4, 179039, Note_on_c, 9, 70, 0
4, 179040, Note_on_c, 9, 70, 115
4, 179159, Note_on_c, 9, 70, 0
4, 179160, Note_on_c, 9, 70, 115
4, 179279, Note_on_c, 9, 70, 0
4, 179280, Note_on_c, 9, 70, 115
4, 179399, Note_on_c, 9, 70, 0
4, 179400, Note_on_c, 9, 70, 115
4, 179519, Note_on_c, 9, 70, 0
4, 179520, Note_on_c, 9, 70, 115
4, 179639, Note_on_c, 9, 70, 0
4, 179640, Note_on_c, 9, 70, 115
4, 179759, Note_on_c, 9, 70, 0
4, 179760, Note_on_c, 9, 70, 115
4, 179879, Note_on_c, 9, 70, 0
4, 179880, Note_on_c, 9, 70, 115
4, 179999, Note_on_c, 9, 70, 0
4, 180000, Note_on_c, 9, 70, 115
4, 180119, Note_on_c, 9, 70, 0
4, 180120, Note_on_c, 9, 70, 115
4, 180239, Note_on_c, 9, 70, 0
4, 180240, Note_on_c, 9, 70, 115
4, 180359, Note_on_c, 9, 70, 0
4, 180360, Note_on_c, 9, 70, 115
4, 180479, Note_on_c, 9, 70, 0
4, 180480, Note_on_c, 9, 70, 115
4, 180599, Note_on_c, 9, 70, 0
4, 180600, Note_on_c, 9, 70, 115
4, 180719, Note_on_c, 9, 70, 0
4, 180720, Note_on_c, 9, 70, 115
4, 180839, Note_on_c, 9, 70, 0
4, 180840, Note_on_c, 9, 70, 115
4, 180959, Note_on_c, 9, 70, 0
4, 180960, Note_on_c, 9, 70, 115
4, 181079, Note_on_c, 9, 70, 0
4, 181080, Note_on_c, 9, 70, 115
4, 181199, Note_on_c, 9, 70, 0
4, 181200, Note_on_c, 9, 70, 115
4, 181319, Note_on_c, 9, 70, 0
4, 181320, Note_on_c, 9, 70, 115
4, 181439, Note_on_c, 9, 70, 0
4, 181440, Note_on_c, 9, 70, 115
4, 181559, Note_on_c, 9, 70, 0
4, 181560, Note_on_c, 9, 70, 115
4, 181679, Note_on_c, 9, 70, 0
4, 181680, Note_on_c, 9, 70, 115
4, 181799, Note_on_c, 9, 70, 0
4, 181800, Note_on_c, 9, 70, 115
4, 181919, Note_on_c, 9, 70, 0
4, 181920, Note_on_c, 9, 70, 115
4, 182039, Note_on_c, 9, 70, 0
4, 182040, Note_on_c, 9, 70, 115
4, 182159, Note_on_c, 9, 70, 0
4, 182160, Note_on_c, 9, 70, 115
4, 182279, Note_on_c, 9, 70, 0
4, 182280, Note_on_c, 9, 70, 115
4, 182399, Note_on_c, 9, 70, 0
4, 182400, Note_on_c, 9, 70, 115
4, 182519, Note_on_c, 9, 70, 0
4, 182520, Note_on_c, 9, 70, 115
4, 182639, Note_on_c, 9, 70, 0
4, 182640, Note_on_c, 9, 70, 115
4, 182759, Note_on_c, 9, 70, 0
4, 182760, Note_on_c, 9, 70, 115
4, 182879, Note_on_c, 9, 70, 0
4, 182880, Note_on_c, 9, 70, 115
4, 182999, Note_on_c, 9, 70, 0
4, 183000, Note_on_c, 9, 70, 115
4, 183119, Note_on_c, 9, 70, 0
4, 183120, Note_on_c, 9, 70, 115
4, 183239, Note_on_c, 9, 70, 0
4, 183240, Note_on_c, 9, 70, 115
4, 183359, Note_on_c, 9, 70, 0
4, 183360, Note_on_c, 9, 70, 115
4, 183479, Note_on_c, 9, 70, 0
4, 183480, Note_on_c, 9, 70, 115
4, 183599, Note_on_c, 9, 70, 0
4, 183600, Note_on_c, 9, 70, 115
4, 183719, Note_on_c, 9, 70, 0
4, 183720, Note_on_c, 9, 70, 115
4, 183839, Note_on_c, 9, 70, 0
4, 183840, Note_on_c, 9, 70, 115
4, 183959, Note_on_c, 9, 70, 0
4, 183960, Note_on_c, 9, 70, 115
4, 184079, Note_on_c, 9, 70, 0
4, 184080, Note_on_c, 9, 70, 115
4, 184199, Note_on_c, 9, 70, 0
4, 184200, Note_on_c, 9, 70, 115
4, 184319, Note_on_c, 9, 70, 0
4, 184320, Note_on_c, 9, 70, 115
4, 184439, Note_on_c, 9, 70, 0
4, 184440, Note_on_c, 9, 70, 115
4, 184559, Note_on_c, 9, 70, 0
4, 184560, Note_on_c, 9, 70, 115
4, 184679, Note_on_c, 9, 70, 0
4, 184680, Note_on_c, 9, 70, 115
4, 184799, Note_on_c, 9, 70, 0
4, 184800, Note_on_c, 9, 70, 115
4, 184919, Note_on_c, 9, 70, 0
4, 184920, Note_on_c, 9, 70, 115
4, 185039, Note_on_c, 9, 70, 0
4, 185040, Note_on_c, 9, 70, 115
4, 185159, Note_on_c, 9, 70, 0
4, 185160, Note_on_c, 9, 70, 115
4, 185279, Note_on_c, 9, 70, 0
4, 185280, Note_on_c, 9, 70, 115
4, 185399, Note_on_c, 9, 70, 0
4, 185400, Note_on_c, 9, 70, 115
4, 185519, Note_on_c, 9, 70, 0
4, 185520, Note_on_c, 9, 70, 115
4, 185639, Note_on_c, 9, 70, 0
4, 185640, Note_on_c, 9, 70, 115
4, 185759, Note_on_c, 9, 70, 0
4, 185760, Note_on_c, 9, 70, 115
4, 185879, Note_on_c, 9, 70, 0
4, 185880, Note_on_c, 9, 70, 115
4, 185999, Note_on_c, 9, 70, 0
4, 186000, Note_on_c, 9, 70, 115
4, 186119, Note_on_c, 9, 70, 0
4, 186120, Note_on_c, 9, 70, 115
4, 186239, Note_on_c, 9, 70, 0
4, 186240, Note_on_c, 9, 70, 115
4, 186359, Note_on_c, 9, 70, 0
4, 186360, Note_on_c, 9, 70, 115
4, 186479, Note_on_c, 9, 70, 0
4, 186480, Note_on_c, 9, 70, 115
4, 186599, Note_on_c, 9, 70, 0
4, 186600, Note_on_c, 9, 70, 115
4, 186719, Note_on_c, 9, 70, 0
4, 186720, Note_on_c, 9, 70, 115
4, 186839, Note_on_c, 9, 70, 0
4, 186840, Note_on_c, 9, 70, 115
4, 186959, Note_on_c, 9, 70, 0
4, 186960, Note_on_c, 9, 70, 115
4, 187079, Note_on_c, 9, 70, 0
4, 187080, Note_on_c, 9, 70, 115
4, 187199, Note_on_c, 9, 70, 0
4, 187200, Note_on_c, 9, 70, 115
4, 187319, Note_on_c, 9, 70, 0
4, 187320, Note_on_c, 9, 70, 115
4, 187439, Note_on_c, 9, 70, 0
4, 187440, Note_on_c, 9, 70, 115
4, 187559, Note_on_c, 9, 70, 0
4, 187560, Note_on_c, 9, 70, 115
4, 187679, Note_on_c, 9, 70, 0
4, 187680, Note_on_c, 9, 70, 115
4, 187799, Note_on_c, 9, 70, 0
4, 187800, Note_on_c, 9, 70, 115
4, 187919, Note_on_c, 9, 70, 0
4, 187920, Note_on_c, 9, 70, 115
4, 188039, Note_on_c, 9, 70, 0
4, 188040, Note_on_c, 9, 70, 115
4, 188159, Note_on_c, 9, 70, 0
4, 188160, Note_on_c, 9, 70, 115
4, 188279, Note_on_c, 9, 70, 0
4, 188280, Note_on_c, 9, 70, 115
4, 188399, Note_on_c, 9, 70, 0
4, 188400, Note_on_c, 9, 70, 115
4, 188519, Note_on_c, 9, 70, 0
4, 188520, Note_on_c, 9, 70, 115
4, 188639, Note_on_c, 9, 70, 0
4, 188640, Note_on_c, 9, 70, 115
4, 188759, Note_on_c, 9, 70, 0
4, 188760, Note_on_c, 9, 70, 115
4, 188879, Note_on_c, 9, 70, 0
4, 188880, Note_on_c, 9, 70, 115
4, 188999, Note_on_c, 9, 70, 0
4, 189000, Note_on_c, 9, 70, 115
4, 189119, Note_on_c, 9, 70, 0
4, 189120, Note_on_c, 9, 70, 115
4, 189239, Note_on_c, 9, 70, 0
4, 189240, Note_on_c, 9, 70, 115
4, 189359, Note_on_c, 9, 70, 0
4, 189360, Note_on_c, 9, 70, 115
4, 189479, Note_on_c, 9, 70, 0
4, 189480, Note_on_c, 9, 70, 115
4, 189599, Note_on_c, 9, 70, 0
4, 189600, Note_on_c, 9, 70, 115
4, 189719, Note_on_c, 9, 70, 0
4, 189720, Note_on_c, 9, 70, 115
4, 189839, Note_on_c, 9, 70, 0
4, 189840, Note_on_c, 9, 70, 115
4, 189959, Note_on_c, 9, 70, 0
4, 189960, Note_on_c, 9, 70, 115
4, 190079, Note_on_c, 9, 70, 0
4, 190080, Note_on_c, 9, 70, 115
4, 190199, Note_on_c, 9, 70, 0
4, 190200, Note_on_c, 9, 70, 115
4, 190319, Note_on_c, 9, 70, 0
4, 190320, Note_on_c, 9, 70, 115
4, 190439, Note_on_c, 9, 70, 0
4, 190440, Note_on_c, 9, 70, 115
4, 190559, Note_on_c, 9, 70, 0
4, 190560, Note_on_c, 9, 70, 115
4, 190679, Note_on_c, 9, 70, 0
4, 190680, Note_on_c, 9, 70, 115
4, 190799, Note_on_c, 9, 70, 0
4, 190800, Note_on_c, 9, 70, 115
4, 190919, Note_on_c, 9, 70, 0
4, 190920, Note_on_c, 9, 70, 115
4, 191039, Note_on_c, 9, 70, 0
4, 191040, Note_on_c, 9, 70, 115
4, 191159, Note_on_c, 9, 70, 0
4, 191160, Note_on_c, 9, 70, 115
4, 191279, Note_on_c, 9, 70, 0
4, 191280, Note_on_c, 9, 70, 115
4, 191399, Note_on_c, 9, 70, 0
4, 191400, Note_on_c, 9, 70, 115
4, 191519, Note_on_c, 9, 70, 0
4, 191520, Note_on_c, 9, 70, 115
4, 191639, Note_on_c, 9, 70, 0
4, 191640, Note_on_c, 9, 70, 115
4, 191759, Note_on_c, 9, 70, 0
4, 191760, Note_on_c, 9, 70, 115
4, 191879, Note_on_c, 9, 70, 0
4, 191880, Note_on_c, 9, 70, 115
4, 191999, Note_on_c, 9, 70, 0
4, 192000, Note_on_c, 9, 70, 115
4, 192119, Note_on_c, 9, 70, 0
4, 192120, Note_on_c, 9, 70, 115
4, 192239, Note_on_c, 9, 70, 0
4, 192240, Note_on_c, 9, 70, 115
4, 192359, Note_on_c, 9, 70, 0
4, 192360, Note_on_c, 9, 70, 115
4, 192479, Note_on_c, 9, 70, 0
4, 192480, Note_on_c, 9, 70, 115
4, 192599, Note_on_c, 9, 70, 0
4, 192600, Note_on_c, 9, 70, 115
4, 192719, Note_on_c, 9, 70, 0
4, 192720, Note_on_c, 9, 70, 115
4, 192839, Note_on_c, 9, 70, 0
4, 192840, Note_on_c, 9, 70, 115
4, 192959, Note_on_c, 9, 70, 0
4, 192960, Note_on_c, 9, 70, 115
4, 193079, Note_on_c, 9, 70, 0
4, 193080, Note_on_c, 9, 70, 115
4, 193199, Note_on_c, 9, 70, 0
4, 193200, Note_on_c, 9, 70, 115
4, 193319, Note_on_c, 9, 70, 0
4, 193320, Note_on_c, 9, 70, 115
4, 193439, Note_on_c, 9, 70, 0
4, 193440, Note_on_c, 9, 70, 115
4, 193559, Note_on_c, 9, 70, 0
4, 193560, Note_on_c, 9, 70, 115
4, 193679, Note_on_c, 9, 70, 0
4, 193680, Note_on_c, 9, 70, 115
4, 193799, Note_on_c, 9, 70, 0
4, 193800, Note_on_c, 9, 70, 115
4, 193919, Note_on_c, 9, 70, 0
4, 193920, Note_on_c, 9, 70, 115
4, 194039, Note_on_c, 9, 70, 0
4, 194040, Note_on_c, 9, 70, 115
4, 194159, Note_on_c, 9, 70, 0
4, 194160, Note_on_c, 9, 70, 115
4, 194279, Note_on_c, 9, 70, 0
4, 194280, Note_on_c, 9, 70, 115
4, 194399, Note_on_c, 9, 70, 0
4, 194400, Note_on_c, 9, 70, 115
4, 194519, Note_on_c, 9, 70, 0
4, 194520, Note_on_c, 9, 70, 115
4, 194639, Note_on_c, 9, 70, 0
4, 194640, Note_on_c, 9, 70, 115
4, 194759, Note_on_c, 9, 70, 0
4, 194760, Note_on_c, 9, 70, 115
4, 194879, Note_on_c, 9, 70, 0
4, 194880, Note_on_c, 9, 70, 115
4, 194999, Note_on_c, 9, 70, 0
4, 195000, Note_on_c, 9, 70, 115
4, 195119, Note_on_c, 9, 70, 0
4, 195120, Note_on_c, 9, 70, 115
4, 195239, Note_on_c, 9, 70, 0
4, 195240, Note_on_c, 9, 70, 115
4, 195359, Note_on_c, 9, 70, 0
4, 195360, Note_on_c, 9, 70, 115
4, 195479, Note_on_c, 9, 70, 0
4, 195480, Note_on_c, 9, 70, 115
4, 195599, Note_on_c, 9, 70, 0
4, 195600, Note_on_c, 9, 70, 115
4, 195719, Note_on_c, 9, 70, 0
4, 195720, Note_on_c, 9, 70, 115
4, 195839, Note_on_c, 9, 70, 0
4, 195840, Note_on_c, 9, 70, 115
4, 195959, Note_on_c, 9, 70, 0
4, 195960, Note_on_c, 9, 70, 115
4, 196079, Note_on_c, 9, 70, 0
4, 196080, Note_on_c, 9, 70, 115
4, 196199, Note_on_c, 9, 70, 0
4, 196200, Note_on_c, 9, 70, 115
4, 196319, Note_on_c, 9, 70, 0
4, 196320, Note_on_c, 9, 70, 115
4, 196439, Note_on_c, 9, 70, 0
4, 196440, Note_on_c, 9, 70, 115
4, 196559, Note_on_c, 9, 70, 0
4, 196560, Note_on_c, 9, 70, 115
4, 196679, Note_on_c, 9, 70, 0
4, 196680, Note_on_c, 9, 70, 115
4, 196799, Note_on_c, 9, 70, 0
4, 196800, Note_on_c, 9, 70, 115
4, 196919, Note_on_c, 9, 70, 0
4, 196920, Note_on_c, 9, 70, 115
4, 197039, Note_on_c, 9, 70, 0
4, 197040, Note_on_c, 9, 70, 115
4, 197159, Note_on_c, 9, 70, 0
4, 197160, Note_on_c, 9, 70, 115
4, 197279, Note_on_c, 9, 70, 0
4, 197280, Note_on_c, 9, 70, 115
4, 197399, Note_on_c, 9, 70, 0
4, 197400, Note_on_c, 9, 70, 115
4, 197519, Note_on_c, 9, 70, 0
4, 197520, Note_on_c, 9, 70, 115
4, 197639, Note_on_c, 9, 70, 0
4, 197640, Note_on_c, 9, 70, 115
4, 197759, Note_on_c, 9, 70, 0
4, 197760, Note_on_c, 9, 70, 115
4, 197879, Note_on_c, 9, 70, 0
4, 197880, Note_on_c, 9, 70, 115
4, 197999, Note_on_c, 9, 70, 0
4, 198000, Note_on_c, 9, 70, 115
4, 198119, Note_on_c, 9, 70, 0
4, 198120, Note_on_c, 9, 70, 115
4, 198239, Note_on_c, 9, 70, 0
4, 198240, Note_on_c, 9, 70, 115
4, 198359, Note_on_c, 9, 70, 0
4, 198360, Note_on_c, 9, 70, 115
4, 198479, Note_on_c, 9, 70, 0
4, 198480, Note_on_c, 9, 70, 115
4, 198599, Note_on_c, 9, 70, 0
4, 198600, Note_on_c, 9, 70, 115
4, 198719, Note_on_c, 9, 70, 0
4, 198720, Note_on_c, 9, 70, 115
4, 198839, Note_on_c, 9, 70, 0
4, 198840, Note_on_c, 9, 70, 115
4, 198959, Note_on_c, 9, 70, 0
4, 198960, Note_on_c, 9, 70, 115
4, 199079, Note_on_c, 9, 70, 0
4, 199080, Note_on_c, 9, 70, 115
4, 199199, Note_on_c, 9, 70, 0
4, 199200, Note_on_c, 9, 70, 115
4, 199319, Note_on_c, 9, 70, 0
4, 199320, Note_on_c, 9, 70, 115
4, 199439, Note_on_c, 9, 70, 0
4, 199440, Note_on_c, 9, 70, 115
4, 199559, Note_on_c, 9, 70, 0
4, 199560, Note_on_c, 9, 70, 115
4, 199679, Note_on_c, 9, 70, 0
4, 199680, Note_on_c, 9, 70, 115
4, 199799, Note_on_c, 9, 70, 0
4, 199800, Note_on_c, 9, 70, 115
4, 199919, Note_on_c, 9, 70, 0
4, 199920, Note_on_c, 9, 70, 115
4, 200039, Note_on_c, 9, 70, 0
4, 200040, Note_on_c, 9, 70, 115
4, 200159, Note_on_c, 9, 70, 0
4, 200160, Note_on_c, 9, 70, 115
4, 200279, Note_on_c, 9, 70, 0
4, 200280, Note_on_c, 9, 70, 115
4, 200399, Note_on_c, 9, 70, 0
4, 200400, Note_on_c, 9, 70, 115
4, 200519, Note_on_c, 9, 70, 0
4, 200520, Note_on_c, 9, 70, 115
4, 200639, Note_on_c, 9, 70, 0
4, 200640, Note_on_c, 9, 70, 115
4, 200759, Note_on_c, 9, 70, 0
4, 200760, Note_on_c, 9, 70, 115
4, 200879, Note_on_c, 9, 70, 0
4, 200880, Note_on_c, 9, 70, 115
4, 200999, Note_on_c, 9, 70, 0
4, 201000, Note_on_c, 9, 70, 115
4, 201119, Note_on_c, 9, 70, 0
4, 201120, Note_on_c, 9, 70, 115
4, 201239, Note_on_c, 9, 70, 0
4, 201240, Note_on_c, 9, 70, 115
4, 201359, Note_on_c, 9, 70, 0
4, 201360, Note_on_c, 9, 70, 115
4, 201479, Note_on_c, 9, 70, 0
4, 201480, Note_on_c, 9, 70, 115
4, 201599, Note_on_c, 9, 70, 0
4, 201600, Note_on_c, 9, 70, 115
4, 201719, Note_on_c, 9, 70, 0
4, 201720, Note_on_c, 9, 70, 115
4, 201839, Note_on_c, 9, 70, 0
4, 201840, Note_on_c, 9, 70, 115
4, 201959, Note_on_c, 9, 70, 0
4, 201960, Note_on_c, 9, 70, 115
4, 202079, Note_on_c, 9, 70, 0
4, 202080, Note_on_c, 9, 70, 115
4, 202199, Note_on_c, 9, 70, 0
4, 202200, Note_on_c, 9, 70, 115
4, 202319, Note_on_c, 9, 70, 0
4, 202320, Note_on_c, 9, 70, 115
4, 202439, Note_on_c, 9, 70, 0
4, 202440, Note_on_c, 9, 70, 115
4, 202559, Note_on_c, 9, 70, 0
4, 202560, Note_on_c, 9, 70, 115
4, 202679, Note_on_c, 9, 70, 0
4, 202680, Note_on_c, 9, 70, 115
4, 202799, Note_on_c, 9, 70, 0
4, 202800, Note_on_c, 9, 70, 115
4, 202919, Note_on_c, 9, 70, 0
4, 202920, Note_on_c, 9, 70, 115
4, 203039, Note_on_c, 9, 70, 0
4, 203040, Note_on_c, 9, 70, 115
4, 203159, Note_on_c, 9, 70, 0
4, 203160, Note_on_c, 9, 70, 115
4, 203279, Note_on_c, 9, 70, 0
4, 203280, Note_on_c, 9, 70, 115
4, 203399, Note_on_c, 9, 70, 0
4, 203400, Note_on_c, 9, 70, 115
4, 203519, Note_on_c, 9, 70, 0
4, 203520, Note_on_c, 9, 70, 115
4, 203639, Note_on_c, 9, 70, 0
4, 203640, Note_on_c, 9, 70, 115
4, 203759, Note_on_c, 9, 70, 0
4, 203760, Note_on_c, 9, 70, 115
4, 203879, Note_on_c, 9, 70, 0
4, 203880, Note_on_c, 9, 70, 115
4, 203999, Note_on_c, 9, 70, 0
4, 204000, Note_on_c, 9, 70, 115
4, 204119, Note_on_c, 9, 70, 0
4, 204120, Note_on_c, 9, 70, 115
4, 204239, Note_on_c, 9, 70, 0
4, 204240, Note_on_c, 9, 70, 115
4, 204359, Note_on_c, 9, 70, 0
4, 204360, Note_on_c, 9, 70, 115
4, 204479, Note_on_c, 9, 70, 0
4, 204480, Note_on_c, 9, 70, 115
4, 204599, Note_on_c, 9, 70, 0
4, 204600, Note_on_c, 9, 70, 115
4, 204719, Note_on_c, 9, 70, 0
4, 204720, Note_on_c, 9, 70, 115
4, 204839, Note_on_c, 9, 70, 0
4, 204840, Note_on_c, 9, 70, 115
4, 204959, Note_on_c, 9, 70, 0
4, 204960, Note_on_c, 9, 70, 115
4, 205079, Note_on_c, 9, 70, 0
4, 205080, Note_on_c, 9, 70, 115
4, 205199, Note_on_c, 9, 70, 0
4, 205200, Note_on_c, 9, 70, 115
4, 205319, Note_on_c, 9, 70, 0
4, 205320, Note_on_c, 9, 70, 115
4, 205439, Note_on_c, 9, 70, 0
4, 205440, Note_on_c, 9, 70, 115
4, 205559, Note_on_c, 9, 70, 0
4, 205560, Note_on_c, 9, 70, 115
4, 205679, Note_on_c, 9, 70, 0
4, 205680, Note_on_c, 9, 70, 115
4, 205799, Note_on_c, 9, 70, 0
4, 205800, Note_on_c, 9, 70, 115
4, 205919, Note_on_c, 9, 70, 0
4, 205920, Note_on_c, 9, 70, 115
4, 206039, Note_on_c, 9, 70, 0
4, 206040, Note_on_c, 9, 70, 115
4, 206159, Note_on_c, 9, 70, 0
4, 206160, Note_on_c, 9, 70, 115
4, 206279, Note_on_c, 9, 70, 0
4, 206280, Note_on_c, 9, 70, 115
4, 206399, Note_on_c, 9, 70, 0
4, 206400, Note_on_c, 9, 70, 115
4, 206519, Note_on_c, 9, 70, 0
4, 206520, Note_on_c, 9, 70, 115
4, 206639, Note_on_c, 9, 70, 0
4, 206640, Note_on_c, 9, 70, 115
4, 206759, Note_on_c, 9, 70, 0
4, 206760, Note_on_c, 9, 70, 115
4, 206879, Note_on_c, 9, 70, 0
4, 206880, Note_on_c, 9, 70, 115
4, 206999, Note_on_c, 9, 70, 0
4, 207000, Note_on_c, 9, 70, 115
4, 207119, Note_on_c, 9, 70, 0
4, 207120, Note_on_c, 9, 70, 115
4, 207239, Note_on_c, 9, 70, 0
4, 207240, Note_on_c, 9, 70, 115
4, 207359, Note_on_c, 9, 70, 0
4, 207360, Note_on_c, 9, 70, 115
4, 207479, Note_on_c, 9, 70, 0
4, 207480, Note_on_c, 9, 70, 115
4, 207599, Note_on_c, 9, 70, 0
4, 207600, Note_on_c, 9, 70, 115
4, 207719, Note_on_c, 9, 70, 0
4, 207720, Note_on_c, 9, 70, 115
4, 207839, Note_on_c, 9, 70, 0
4, 207840, Note_on_c, 9, 70, 115
4, 207959, Note_on_c, 9, 70, 0
4, 207960, Note_on_c, 9, 70, 115
4, 208079, Note_on_c, 9, 70, 0
4, 208080, Note_on_c, 9, 70, 115
4, 208199, Note_on_c, 9, 70, 0
4, 208200, Note_on_c, 9, 70, 115
4, 208319, Note_on_c, 9, 70, 0
4, 208320, Note_on_c, 9, 70, 115
4, 208439, Note_on_c, 9, 70, 0
4, 208440, Note_on_c, 9, 70, 115
4, 208559, Note_on_c, 9, 70, 0
4, 208560, Note_on_c, 9, 70, 115
4, 208679, Note_on_c, 9, 70, 0
4, 208680, Note_on_c, 9, 70, 115
4, 208799, Note_on_c, 9, 70, 0
4, 208800, Note_on_c, 9, 70, 115
4, 208919, Note_on_c, 9, 70, 0
4, 208920, Note_on_c, 9, 70, 115
4, 209039, Note_on_c, 9, 70, 0
4, 209040, Note_on_c, 9, 70, 115
4, 209159, Note_on_c, 9, 70, 0
4, 209160, Note_on_c, 9, 70, 115
4, 209279, Note_on_c, 9, 70, 0
4, 209280, Note_on_c, 9, 70, 115
4, 209399, Note_on_c, 9, 70, 0
4, 209400, Note_on_c, 9, 70, 115
4, 209519, Note_on_c, 9, 70, 0
4, 209520, Note_on_c, 9, 70, 115
4, 209639, Note_on_c, 9, 70, 0
4, 209640, Note_on_c, 9, 70, 115
4, 209759, Note_on_c, 9, 70, 0
4, 209760, Note_on_c, 9, 70, 115
4, 209879, Note_on_c, 9, 70, 0
4, 209880, Note_on_c, 9, 70, 115
4, 209999, Note_on_c, 9, 70, 0
4, 210000, Note_on_c, 9, 70, 115
4, 210119, Note_on_c, 9, 70, 0
4, 210120, Note_on_c, 9, 70, 115
4, 210239, Note_on_c, 9, 70, 0
4, 210240, Note_on_c, 9, 70, 115
4, 210359, Note_on_c, 9, 70, 0
4, 210360, Note_on_c, 9, 70, 115
4, 210479, Note_on_c, 9, 70, 0
4, 210480, Note_on_c, 9, 70, 115
4, 210599, Note_on_c, 9, 70, 0
4, 210600, Note_on_c, 9, 70, 115
4, 210719, Note_on_c, 9, 70, 0
4, 210720, Note_on_c, 9, 70, 115
4, 210839, Note_on_c, 9, 70, 0
4, 210840, Note_on_c, 9, 70, 115
4, 210959, Note_on_c, 9, 70, 0
4, 210960, Note_on_c, 9, 70, 115
4, 211079, Note_on_c, 9, 70, 0
4, 211080, Note_on_c, 9, 70, 115
4, 211199, Note_on_c, 9, 70, 0
4, 211200, Note_on_c, 9, 70, 115
4, 211319, Note_on_c, 9, 70, 0
4, 211320, Note_on_c, 9, 70, 115
4, 211439, Note_on_c, 9, 70, 0
4, 211440, Note_on_c, 9, 70, 115
4, 211559, Note_on_c, 9, 70, 0
4, 211560, Note_on_c, 9, 70, 115
4, 211679, Note_on_c, 9, 70, 0
4, 211680, Note_on_c, 9, 70, 115
4, 211799, Note_on_c, 9, 70, 0
4, 211800, Note_on_c, 9, 70, 115
4, 211919, Note_on_c, 9, 70, 0
4, 211920, Note_on_c, 9, 70, 115
4, 212039, Note_on_c, 9, 70, 0
4, 212040, Note_on_c, 9, 70, 115
4, 212159, Note_on_c, 9, 70, 0
4, 212160, Note_on_c, 9, 70, 115
4, 212279, Note_on_c, 9, 70, 0
4, 212280, Note_on_c, 9, 70, 115
4, 212399, Note_on_c, 9, 70, 0
4, 212400, Note_on_c, 9, 70, 115
4, 212519, Note_on_c, 9, 70, 0
4, 212520, Note_on_c, 9, 70, 115
4, 212639, Note_on_c, 9, 70, 0
4, 212640, Note_on_c, 9, 70, 115
4, 212759, Note_on_c, 9, 70, 0
4, 212760, Note_on_c, 9, 70, 115
4, 212879, Note_on_c, 9, 70, 0
4, 212880, Note_on_c, 9, 70, 115
4, 212999, Note_on_c, 9, 70, 0
4, 213000, Note_on_c, 9, 70, 115
4, 213119, Note_on_c, 9, 70, 0
4, 213120, Note_on_c, 9, 70, 115
4, 213239, Note_on_c, 9, 70, 0
4, 213240, Note_on_c, 9, 70, 115
4, 213359, Note_on_c, 9, 70, 0
4, 213360, Note_on_c, 9, 70, 115
4, 213479, Note_on_c, 9, 70, 0
4, 213480, Note_on_c, 9, 70, 115
4, 213599, Note_on_c, 9, 70, 0
4, 213600, Note_on_c, 9, 70, 115
4, 213719, Note_on_c, 9, 70, 0
4, 213720, Note_on_c, 9, 70, 115
4, 213839, Note_on_c, 9, 70, 0
4, 213840, Note_on_c, 9, 70, 115
4, 213959, Note_on_c, 9, 70, 0
4, 213960, Note_on_c, 9, 70, 115
4, 214079, Note_on_c, 9, 70, 0
4, 214080, Note_on_c, 9, 70, 115
4, 214199, Note_on_c, 9, 70, 0
4, 214200, Note_on_c, 9, 70, 115
4, 214319, Note_on_c, 9, 70, 0
4, 214320, Note_on_c, 9, 70, 115
4, 214439, Note_on_c, 9, 70, 0
4, 214440, Note_on_c, 9, 70, 115
4, 214559, Note_on_c, 9, 70, 0
4, 214560, Note_on_c, 9, 70, 115
4, 214679, Note_on_c, 9, 70, 0
4, 214680, Note_on_c, 9, 70, 115
4, 214799, Note_on_c, 9, 70, 0
4, 214800, Note_on_c, 9, 70, 115
4, 214919, Note_on_c, 9, 70, 0
4, 214920, Note_on_c, 9, 70, 115
4, 215039, Note_on_c, 9, 70, 0
4, 215040, Note_on_c, 9, 70, 115
4, 215159, Note_on_c, 9, 70, 0
4, 215160, Note_on_c, 9, 70, 115
4, 215279, Note_on_c, 9, 70, 0
4, 215280, Note_on_c, 9, 70, 115
4, 215399, Note_on_c, 9, 70, 0
4, 215400, Note_on_c, 9, 70, 115
4, 215519, Note_on_c, 9, 70, 0
4, 215520, Note_on_c, 9, 70, 115
4, 215639, Note_on_c, 9, 70, 0
4, 215640, Note_on_c, 9, 70, 115
4, 215759, Note_on_c, 9, 70, 0
4, 215760, Note_on_c, 9, 70, 115
4, 215879, Note_on_c, 9, 70, 0
4, 215880, Note_on_c, 9, 70, 115
4, 215999, Note_on_c, 9, 70, 0
4, 216000, Note_on_c, 9, 70, 115
4, 216119, Note_on_c, 9, 70, 0
4, 216120, Note_on_c, 9, 70, 115
4, 216239, Note_on_c, 9, 70, 0
4, 216240, Note_on_c, 9, 70, 115
4, 216359, Note_on_c, 9, 70, 0
4, 216360, Note_on_c, 9, 70, 115
4, 216479, Note_on_c, 9, 70, 0
4, 216480, Note_on_c, 9, 70, 115
4, 216599, Note_on_c, 9, 70, 0
4, 216600, Note_on_c, 9, 70, 115
4, 216719, Note_on_c, 9, 70, 0
4, 216720, Note_on_c, 9, 70, 115
4, 216839, Note_on_c, 9, 70, 0
4, 216840, Note_on_c, 9, 70, 115
4, 216959, Note_on_c, 9, 70, 0
4, 216960, Note_on_c, 9, 70, 115
4, 217079, Note_on_c, 9, 70, 0
4, 217080, Note_on_c, 9, 70, 115
4, 217199, Note_on_c, 9, 70, 0
4, 217200, Note_on_c, 9, 70, 115
4, 217319, Note_on_c, 9, 70, 0
4, 217320, Note_on_c, 9, 70, 115
4, 217439, Note_on_c, 9, 70, 0
4, 217440, Note_on_c, 9, 70, 115
4, 217559, Note_on_c, 9, 70, 0
4, 217560, Note_on_c, 9, 70, 115
4, 217679, Note_on_c, 9, 70, 0
4, 217680, Note_on_c, 9, 70, 115
4, 217799, Note_on_c, 9, 70, 0
4, 217800, Note_on_c, 9, 70, 115
4, 217919, Note_on_c, 9, 70, 0
4, 217920, Note_on_c, 9, 70, 115
4, 218039, Note_on_c, 9, 70, 0
4, 218040, Note_on_c, 9, 70, 115
4, 218159, Note_on_c, 9, 70, 0
4, 218160, Note_on_c, 9, 70, 115
4, 218279, Note_on_c, 9, 70, 0
4, 218280, Note_on_c, 9, 70, 115
4, 218399, Note_on_c, 9, 70, 0
4, 218400, Note_on_c, 9, 70, 115
4, 218519, Note_on_c, 9, 70, 0
4, 218520, Note_on_c, 9, 70, 115
4, 218639, Note_on_c, 9, 70, 0
4, 218640, Note_on_c, 9, 70, 115
4, 218759, Note_on_c, 9, 70, 0
4, 218760, Note_on_c, 9, 70, 115
4, 218879, Note_on_c, 9, 70, 0
4, 218880, End_track
5, 0, Start_track
5, 0, Key_signature, 0, "major"
5, 0, Control_c, 9, 121, 0
5, 0, Program_c, 9, 0
5, 0, Control_c, 9, 7, 100
5, 0, Control_c, 9, 10, 64
5, 0, Control_c, 9, 91, 0
5, 0, Control_c, 9, 93, 0
5, 0, MIDI_port, 0
5, 72720, Note_on_c, 9, 45, 127
5, 72720, Note_on_c, 9, 48, 127
5, 72959, Note_on_c, 9, 45, 0
5, 72959, Note_on_c, 9, 48, 0
5, 72960, Note_on_c, 9, 45, 127
5, 72960, Note_on_c, 9, 47, 127
5, 73439, Note_on_c, 9, 45, 0
5, 73439, Note_on_c, 9, 47, 0
5, 73680, Note_on_c, 9, 45, 127
5, 73680, Note_on_c, 9, 47, 127
5, 73919, Note_on_c, 9, 45, 0
5, 73919, Note_on_c, 9, 47, 0
5, 73920, Note_on_c, 9, 45, 127
5, 73920, Note_on_c, 9, 43, 127
5, 74399, Note_on_c, 9, 45, 0
5, 74399, Note_on_c, 9, 43, 0
5, 74640, Note_on_c, 9, 45, 127
5, 74640, Note_on_c, 9, 48, 127
5, 74879, Note_on_c, 9, 45, 0
5, 74879, Note_on_c, 9, 48, 0
5, 74880, Note_on_c, 9, 45, 127
5, 74880, Note_on_c, 9, 47, 127
5, 75359, Note_on_c, 9, 45, 0
5, 75359, Note_on_c, 9, 47, 0
5, 76560, Note_on_c, 9, 45, 127
5, 76560, Note_on_c, 9, 48, 127
5, 76799, Note_on_c, 9, 45, 0
5, 76799, Note_on_c, 9, 48, 0
5, 76800, Note_on_c, 9, 45, 127
5, 76800, Note_on_c, 9, 47, 127
5, 77279, Note_on_c, 9, 45, 0
5, 77279, Note_on_c, 9, 47, 0
5, 77520, Note_on_c, 9, 45, 127
5, 77520, Note_on_c, 9, 47, 127
5, 77759, Note_on_c, 9, 45, 0
5, 77759, Note_on_c, 9, 47, 0
5, 77760, Note_on_c, 9, 45, 127
5, 77760, Note_on_c, 9, 43, 127
5, 78239, Note_on_c, 9, 45, 0
5, 78239, Note_on_c, 9, 43, 0
5, 78480, Note_on_c, 9, 45, 127
5, 78480, Note_on_c, 9, 48, 127
5, 78719, Note_on_c, 9, 45, 0
5, 78719, Note_on_c, 9, 48, 0
5, 78720, Note_on_c, 9, 45, 127
5, 78720, Note_on_c, 9, 47, 127
5, 79199, Note_on_c, 9, 45, 0
5, 79199, Note_on_c, 9, 47, 0
5, 80400, Note_on_c, 9, 45, 127
5, 80400, Note_on_c, 9, 48, 127
5, 80639, Note_on_c, 9, 45, 0
5, 80639, Note_on_c, 9, 48, 0
5, 80640, Note_on_c, 9, 45, 127
5, 80640, Note_on_c, 9, 47, 127
5, 81119, Note_on_c, 9, 45, 0
5, 81119, Note_on_c, 9, 47, 0
5, 81360, Note_on_c, 9, 45, 127
5, 81360, Note_on_c, 9, 47, 127
5, 81599, Note_on_c, 9, 45, 0
5, 81599, Note_on_c, 9, 47, 0
5, 81600, Note_on_c, 9, 45, 127
5, 81600, Note_on_c, 9, 43, 127
5, 82079, Note_on_c, 9, 45, 0
5, 82079, Note_on_c, 9, 43, 0
5, 82320, Note_on_c, 9, 45, 127
5, 82320, Note_on_c, 9, 48, 127
5, 82559, Note_on_c, 9, 45, 0
5, 82559, Note_on_c, 9, 48, 0
5, 82560, Note_on_c, 9, 45, 127
5, 82560, Note_on_c, 9, 47, 127
5, 83039, Note_on_c, 9, 45, 0
5, 83039, Note_on_c, 9, 47, 0
5, 84240, Note_on_c, 9, 45, 127
5, 84240, Note_on_c, 9, 48, 127
5, 84479, Note_on_c, 9, 45, 0
5, 84479, Note_on_c, 9, 48, 0
5, 84480, Note_on_c, 9, 45, 127
5, 84480, Note_on_c, 9, 47, 127
5, 84959, Note_on_c, 9, 45, 0
5, 84959, Note_on_c, 9, 47, 0
5, 85200, Note_on_c, 9, 45, 127
5, 85200, Note_on_c, 9, 47, 127
5, 85439, Note_on_c, 9, 45, 0
5, 85439, Note_on_c, 9, 47, 0
5, 85440, Note_on_c, 9, 45, 127
5, 85440, Note_on_c, 9, 43, 127
5, 85919, Note_on_c, 9, 45, 0
5, 85919, Note_on_c, 9, 43, 0
5, 86160, Note_on_c, 9, 45, 127
5, 86160, Note_on_c, 9, 48, 127
5, 86399, Note_on_c, 9, 45, 0
5, 86399, Note_on_c, 9, 48, 0
5, 86400, Note_on_c, 9, 45, 127
5, 86400, Note_on_c, 9, 47, 127
5, 86879, Note_on_c, 9, 45, 0
5, 86879, Note_on_c, 9, 47, 0
5, 87120, Note_on_c, 9, 45, 127
5, 87120, Note_on_c, 9, 47, 127
5, 87359, Note_on_c, 9, 45, 0
5, 87359, Note_on_c, 9, 47, 0
5, 87360, Note_on_c, 9, 45, 127
5, 87360, Note_on_c, 9, 43, 127
5, 87839, Note_on_c, 9, 45, 0
5, 87839, Note_on_c, 9, 43, 0
5, 118800, Note_on_c, 9, 45, 127
5, 118800, Note_on_c, 9, 48, 127
5, 119039, Note_on_c, 9, 45, 0
5, 119039, Note_on_c, 9, 48, 0
5, 119040, Note_on_c, 9, 45, 127
5, 119040, Note_on_c, 9, 47, 127
5, 119519, Note_on_c, 9, 45, 0
5, 119519, Note_on_c, 9, 47, 0
5, 119760, Note_on_c, 9, 45, 127
5, 119760, Note_on_c, 9, 47, 127
5, 119999, Note_on_c, 9, 45, 0
5, 119999, Note_on_c, 9, 47, 0
5, 120000, Note_on_c, 9, 45, 127
5, 120000, Note_on_c, 9, 43, 127
5, 120479, Note_on_c, 9, 45, 0
5, 120479, Note_on_c, 9, 43, 0
5, 120720, Note_on_c, 9, 45, 127
5, 120720, Note_on_c, 9, 48, 127
5, 120959, Note_on_c, 9, 45, 0
5, 120959, Note_on_c, 9, 48, 0
5, 120960, Note_on_c, 9, 45, 127
5, 120960, Note_on_c, 9, 47, 127
5, 121439, Note_on_c, 9, 45, 0
5, 121439, Note_on_c, 9, 47, 0
5, 122640, Note_on_c, 9, 45, 127
5, 122640, Note_on_c, 9, 48, 127
5, 122879, Note_on_c, 9, 45, 0
5, 122879, Note_on_c, 9, 48, 0
5, 122880, Note_on_c, 9, 45, 127
5, 122880, Note_on_c, 9, 47, 127
5, 123359, Note_on_c, 9, 45, 0
5, 123359, Note_on_c, 9, 47, 0
5, 123600, Note_on_c, 9, 45, 127
5, 123600, Note_on_c, 9, 47, 127
5, 123839, Note_on_c, 9, 45, 0
5, 123839, Note_on_c, 9, 47, 0
5, 123840, Note_on_c, 9, 45, 127
5, 123840, Note_on_c, 9, 43, 127
5, 124319, Note_on_c, 9, 45, 0
5, 124319, Note_on_c, 9, 43, 0
5, 124560, Note_on_c, 9, 45, 127
5, 124560, Note_on_c, 9, 48, 127
5, 124799, Note_on_c, 9, 45, 0
5, 124799, Note_on_c, 9, 48, 0
5, 124800, Note_on_c, 9, 45, 127
5, 124800, Note_on_c, 9, 47, 127
5, 125279, Note_on_c, 9, 45, 0
5, 125279, Note_on_c, 9, 47, 0
5, 126480, Note_on_c, 9, 45, 127
5, 126480, Note_on_c, 9, 48, 127
5, 126719, Note_on_c, 9, 45, 0
5, 126719, Note_on_c, 9, 48, 0
5, 126720, Note_on_c, 9, 45, 127
5, 126720, Note_on_c, 9, 47, 127
5, 127199, Note_on_c, 9, 45, 0
5, 127199, Note_on_c, 9, 47, 0
5, 127440, Note_on_c, 9, 45, 127
5, 127440, Note_on_c, 9, 47, 127
5, 127679, Note_on_c, 9, 45, 0
5, 127679, Note_on_c, 9, 47, 0
5, 127680, Note_on_c, 9, 45, 127
5, 127680, Note_on_c, 9, 43, 127
5, 128159, Note_on_c, 9, 45, 0
5, 128159, Note_on_c, 9, 43, 0
5, 128400, Note_on_c, 9, 45, 127
5, 128400, Note_on_c, 9, 48, 127
5, 128639, Note_on_c, 9, 45, 0
5, 128639, Note_on_c, 9, 48, 0
5, 128640, Note_on_c, 9, 45, 127
5, 128640, Note_on_c, 9, 47, 127
5, 129119, Note_on_c, 9, 45, 0
5, 129119, Note_on_c, 9, 47, 0
5, 130320, Note_on_c, 9, 45, 127
5, 130320, Note_on_c, 9, 48, 127
5, 130559, Note_on_c, 9, 45, 0
5, 130559, Note_on_c, 9, 48, 0
5, 130560, Note_on_c, 9, 45, 127
5, 130560, Note_on_c, 9, 47, 127
5, 131039, Note_on_c, 9, 45, 0
5, 131039, Note_on_c, 9, 47, 0
5, 131280, Note_on_c, 9, 45, 127
5, 131280, Note_on_c, 9, 47, 127
5, 131519, Note_on_c, 9, 45, 0
5, 131519, Note_on_c, 9, 47, 0
5, 131520, Note_on_c, 9, 45, 127
5, 131520, Note_on_c, 9, 43, 127
5, 131999, Note_on_c, 9, 45, 0
5, 131999, Note_on_c, 9, 43, 0
5, 132240, Note_on_c, 9, 45, 127
5, 132240, Note_on_c, 9, 48, 127
5, 132479, Note_on_c, 9, 45, 0
5, 132479, Note_on_c, 9, 48, 0
5, 132480, Note_on_c, 9, 45, 127
5, 132480, Note_on_c, 9, 47, 127
5, 132959, Note_on_c, 9, 45, 0
5, 132959, Note_on_c, 9, 47, 0
5, 133200, Note_on_c, 9, 45, 127
5, 133200, Note_on_c, 9, 47, 127
5, 133439, Note_on_c, 9, 45, 0
5, 133439, Note_on_c, 9, 47, 0
5, 133440, Note_on_c, 9, 45, 127
5, 133440, Note_on_c, 9, 43, 127
5, 133919, Note_on_c, 9, 45, 0
5, 133919, Note_on_c, 9, 43, 0
5, 141840, Note_on_c, 9, 47, 127
5, 141840, Note_on_c, 9, 43, 127
5, 142079, Note_on_c, 9, 47, 0
5, 142079, Note_on_c, 9, 43, 0
5, 142080, Note_on_c, 9, 45, 127
5, 142080, Note_on_c, 9, 43, 127
5, 142439, Note_on_c, 9, 45, 0
5, 142440, Note_on_c, 9, 47, 127
5, 142559, Note_on_c, 9, 43, 0
5, 142559, Note_on_c, 9, 47, 0
5, 142560, Note_on_c, 9, 48, 127
5, 142799, Note_on_c, 9, 48, 0
5, 142800, Note_on_c, 9, 47, 127
5, 142800, Note_on_c, 9, 43, 127
5, 143039, Note_on_c, 9, 47, 0
5, 143039, Note_on_c, 9, 43, 0
5, 143040, Note_on_c, 9, 45, 127
5, 143040, Note_on_c, 9, 43, 127
5, 143399, Note_on_c, 9, 45, 0
5, 143400, Note_on_c, 9, 47, 127
5, 143519, Note_on_c, 9, 43, 0
5, 143519, Note_on_c, 9, 47, 0
5, 143520, Note_on_c, 9, 48, 127
5, 143759, Note_on_c, 9, 48, 0
5, 143760, Note_on_c, 9, 47, 127
5, 143760, Note_on_c, 9, 43, 127
5, 143999, Note_on_c, 9, 47, 0
5, 143999, Note_on_c, 9, 43, 0
5, 144000, Note_on_c, 9, 45, 127
5, 144000, Note_on_c, 9, 43, 127
5, 144359, Note_on_c, 9, 45, 0
5, 144360, Note_on_c, 9, 47, 127
5, 144479, Note_on_c, 9, 43, 0
5, 144479, Note_on_c, 9, 47, 0
5, 144480, Note_on_c, 9, 48, 127
5, 144719, Note_on_c, 9, 48, 0
5, 144720, Note_on_c, 9, 47, 127
5, 144720, Note_on_c, 9, 43, 127
5, 144959, Note_on_c, 9, 47, 0
5, 144959, Note_on_c, 9, 43, 0
5, 144960, Note_on_c, 9, 45, 127
5, 144960, Note_on_c, 9, 43, 127
5, 145319, Note_on_c, 9, 45, 0
5, 145320, Note_on_c, 9, 47, 127
5, 145439, Note_on_c, 9, 43, 0
5, 145439, Note_on_c, 9, 47, 0
5, 145440, Note_on_c, 9, 48, 127
5, 145679, Note_on_c, 9, 48, 0
5, 145680, Note_on_c, 9, 47, 127
5, 145680, Note_on_c, 9, 43, 127
5, 145919, Note_on_c, 9, 47, 0
5, 145919, Note_on_c, 9, 43, 0
5, 145920, Note_on_c, 9, 45, 127
5, 145920, Note_on_c, 9, 43, 127
5, 146279, Note_on_c, 9, 45, 0
5, 146280, Note_on_c, 9, 47, 127
5, 146399, Note_on_c, 9, 43, 0
5, 146399, Note_on_c, 9, 47, 0
5, 146400, Note_on_c, 9, 48, 127
5, 146639, Note_on_c, 9, 48, 0
5, 146640, Note_on_c, 9, 47, 127
5, 146640, Note_on_c, 9, 43, 127
5, 146879, Note_on_c, 9, 47, 0
5, 146879, Note_on_c, 9, 43, 0
5, 146880, Note_on_c, 9, 45, 127
5, 146880, Note_on_c, 9, 43, 127
5, 147239, Note_on_c, 9, 45, 0
5, 147240, Note_on_c, 9, 47, 127
5, 147359, Note_on_c, 9, 43, 0
5, 147359, Note_on_c, 9, 47, 0
5, 147360, Note_on_c, 9, 48, 127
5, 147599, Note_on_c, 9, 48, 0
5, 147600, Note_on_c, 9, 47, 127
5, 147600, Note_on_c, 9, 43, 127
5, 147839, Note_on_c, 9, 47, 0
5, 147839, Note_on_c, 9, 43, 0
5, 147840, Note_on_c, 9, 45, 127
5, 147840, Note_on_c, 9, 43, 127
5, 148199, Note_on_c, 9, 45, 0
5, 148200, Note_on_c, 9, 47, 127
5, 148319, Note_on_c, 9, 43, 0
5, 148319, Note_on_c, 9, 47, 0
5, 148320, Note_on_c, 9, 48, 127
5, 148559, Note_on_c, 9, 48, 0
5, 148560, Note_on_c, 9, 47, 127
5, 148560, Note_on_c, 9, 43, 127
5, 148799, Note_on_c, 9, 47, 0
5, 148799, Note_on_c, 9, 43, 0
5, 148800, Note_on_c, 9, 45, 127
5, 148800, Note_on_c, 9, 43, 127
5, 149159, Note_on_c, 9, 45, 0
5, 149160, Note_on_c, 9, 47, 127
5, 149279, Note_on_c, 9, 43, 0
5, 149279, Note_on_c, 9, 47, 0
5, 149280, Note_on_c, 9, 48, 127
5, 149519, Note_on_c, 9, 48, 0
5, 149520, Note_on_c, 9, 47, 127
5, 149520, Note_on_c, 9, 43, 127
5, 149759, Note_on_c, 9, 47, 0
5, 149759, Note_on_c, 9, 43, 0
5, 149760, Note_on_c, 9, 45, 127
5, 149760, Note_on_c, 9, 43, 127
5, 150239, Note_on_c, 9, 45, 0
5, 150239, Note_on_c, 9, 43, 0
5, 180240, Note_on_c, 9, 45, 127
5, 180240, Note_on_c, 9, 48, 127
5, 180479, Note_on_c, 9, 45, 0
5, 180479, Note_on_c, 9, 48, 0
5, 180480, Note_on_c, 9, 45, 127
5, 180480, Note_on_c, 9, 47, 127
5, 180959, Note_on_c, 9, 45, 0
5, 180959, Note_on_c, 9, 47, 0
5, 181200, Note_on_c, 9, 45, 127
5, 181200, Note_on_c, 9, 47, 127
5, 181439, Note_on_c, 9, 45, 0
5, 181439, Note_on_c, 9, 47, 0
5, 181440, Note_on_c, 9, 45, 127
5, 181440, Note_on_c, 9, 43, 127
5, 181919, Note_on_c, 9, 45, 0
5, 181919, Note_on_c, 9, 43, 0
5, 182160, Note_on_c, 9, 45, 127
5, 182160, Note_on_c, 9, 48, 127
5, 182399, Note_on_c, 9, 45, 0
5, 182399, Note_on_c, 9, 48, 0
5, 182400, Note_on_c, 9, 45, 127
5, 182400, Note_on_c, 9, 47, 127
5, 182879, Note_on_c, 9, 45, 0
5, 182879, Note_on_c, 9, 47, 0
5, 184080, Note_on_c, 9, 45, 127
5, 184080, Note_on_c, 9, 48, 127
5, 184319, Note_on_c, 9, 45, 0
5, 184319, Note_on_c, 9, 48, 0
5, 184320, Note_on_c, 9, 45, 127
5, 184320, Note_on_c, 9, 47, 127
5, 184799, Note_on_c, 9, 45, 0
5, 184799, Note_on_c, 9, 47, 0
5, 185040, Note_on_c, 9, 45, 127
5, 185040, Note_on_c, 9, 47, 127
5, 185279, Note_on_c, 9, 45, 0
5, 185279, Note_on_c, 9, 47, 0
5, 185280, Note_on_c, 9, 45, 127
5, 185280, Note_on_c, 9, 43, 127
5, 185759, Note_on_c, 9, 45, 0
5, 185759, Note_on_c, 9, 43, 0
5, 186000, Note_on_c, 9, 45, 127
5, 186000, Note_on_c, 9, 48, 127
5, 186239, Note_on_c, 9, 45, 0
5, 186239, Note_on_c, 9, 48, 0
5, 186240, Note_on_c, 9, 45, 127
5, 186240, Note_on_c, 9, 47, 127
5, 186719, Note_on_c, 9, 45, 0
5, 186719, Note_on_c, 9, 47, 0
5, 187920, Note_on_c, 9, 45, 127
5, 187920, Note_on_c, 9, 48, 127
5, 188159, Note_on_c, 9, 45, 0
5, 188159, Note_on_c, 9, 48, 0
5, 188160, Note_on_c, 9, 45, 127
5, 188160, Note_on_c, 9, 47, 127
5, 188639, Note_on_c, 9, 45, 0
5, 188639, Note_on_c, 9, 47, 0
5, 188880, Note_on_c, 9, 45, 127
5, 188880, Note_on_c, 9, 47, 127
5, 189119, Note_on_c, 9, 45, 0
5, 189119, Note_on_c, 9, 47, 0
5, 189120, Note_on_c, 9, 45, 127
5, 189120, Note_on_c, 9, 43, 127
5, 189599, Note_on_c, 9, 45, 0
5, 189599, Note_on_c, 9, 43, 0
5, 189840, Note_on_c, 9, 45, 127
5, 189840, Note_on_c, 9, 48, 127
5, 190079, Note_on_c, 9, 45, 0
5, 190079, Note_on_c, 9, 48, 0
5, 190080, Note_on_c, 9, 45, 127
5, 190080, Note_on_c, 9, 47, 127
5, 190559, Note_on_c, 9, 45, 0
5, 190559, Note_on_c, 9, 47, 0
5, 191760, Note_on_c, 9, 45, 127
5, 191760, Note_on_c, 9, 48, 127
5, 191999, Note_on_c, 9, 45, 0
5, 191999, Note_on_c, 9, 48, 0
5, 192000, Note_on_c, 9, 45, 127
5, 192000, Note_on_c, 9, 47, 127
5, 192479, Note_on_c, 9, 45, 0
5, 192479, Note_on_c, 9, 47, 0
5, 192720, Note_on_c, 9, 45, 127
5, 192720, Note_on_c, 9, 47, 127
5, 192959, Note_on_c, 9, 45, 0
5, 192959, Note_on_c, 9, 47, 0
5, 192960, Note_on_c, 9, 45, 127
5, 192960, Note_on_c, 9, 43, 127
5, 193439, Note_on_c, 9, 45, 0
5, 193439, Note_on_c, 9, 43, 0
5, 193680, Note_on_c, 9, 45, 127
5, 193680, Note_on_c, 9, 48, 127
5, 193919, Note_on_c, 9, 45, 0
5, 193919, Note_on_c, 9, 48, 0
5, 193920, Note_on_c, 9, 45, 127
5, 193920, Note_on_c, 9, 47, 127
5, 194399, Note_on_c, 9, 45, 0
5, 194399, Note_on_c, 9, 47, 0
5, 195600, Note_on_c, 9, 47, 127
5, 195600, Note_on_c, 9, 43, 127
5, 195839, Note_on_c, 9, 47, 0
5, 195839, Note_on_c, 9, 43, 0
5, 195840, Note_on_c, 9, 45, 127
5, 195840, Note_on_c, 9, 43, 127
5, 196199, Note_on_c, 9, 45, 0
5, 196200, Note_on_c, 9, 47, 127
5, 196319, Note_on_c, 9, 43, 0
5, 196319, Note_on_c, 9, 47, 0
5, 196320, Note_on_c, 9, 48, 127
5, 196559, Note_on_c, 9, 48, 0
5, 196560, Note_on_c, 9, 47, 127
5, 196560, Note_on_c, 9, 43, 127
5, 196799, Note_on_c, 9, 47, 0
5, 196799, Note_on_c, 9, 43, 0
5, 196800, Note_on_c, 9, 45, 127
5, 196800, Note_on_c, 9, 43, 127
5, 197159, Note_on_c, 9, 45, 0
5, 197160, Note_on_c, 9, 47, 127
5, 197279, Note_on_c, 9, 43, 0
5, 197279, Note_on_c, 9, 47, 0
5, 197280, Note_on_c, 9, 48, 127
5, 197519, Note_on_c, 9, 48, 0
5, 197520, Note_on_c, 9, 47, 127
5, 197520, Note_on_c, 9, 43, 127
5, 197759, Note_on_c, 9, 47, 0
5, 197759, Note_on_c, 9, 43, 0
5, 197760, Note_on_c, 9, 45, 127
5, 197760, Note_on_c, 9, 43, 127
5, 198119, Note_on_c, 9, 45, 0
5, 198120, Note_on_c, 9, 47, 127
5, 198239, Note_on_c, 9, 43, 0
5, 198239, Note_on_c, 9, 47, 0
5, 198240, Note_on_c, 9, 48, 127
5, 198479, Note_on_c, 9, 48, 0
5, 198480, Note_on_c, 9, 47, 127
5, 198480, Note_on_c, 9, 43, 127
5, 198719, Note_on_c, 9, 47, 0
5, 198719, Note_on_c, 9, 43, 0
5, 198720, Note_on_c, 9, 45, 127
5, 198720, Note_on_c, 9, 43, 127
5, 199079, Note_on_c, 9, 45, 0
5, 199080, Note_on_c, 9, 47, 127
5, 199199, Note_on_c, 9, 43, 0
5, 199199, Note_on_c, 9, 47, 0
5, 199200, Note_on_c, 9, 48, 127
5, 199439, Note_on_c, 9, 48, 0
5, 199440, Note_on_c, 9, 47, 127
5, 199440, Note_on_c, 9, 43, 127
5, 199679, Note_on_c, 9, 47, 0
5, 199679, Note_on_c, 9, 43, 0
5, 199680, Note_on_c, 9, 45, 127
5, 199680, Note_on_c, 9, 43, 127
5, 200039, Note_on_c, 9, 45, 0
5, 200040, Note_on_c, 9, 47, 127
5, 200159, Note_on_c, 9, 43, 0
5, 200159, Note_on_c, 9, 47, 0
5, 200160, Note_on_c, 9, 48, 127
5, 200399, Note_on_c, 9, 48, 0
5, 200400, Note_on_c, 9, 47, 127
5, 200400, Note_on_c, 9, 43, 127
5, 200639, Note_on_c, 9, 47, 0
5, 200639, Note_on_c, 9, 43, 0
5, 200640, Note_on_c, 9, 45, 127
5, 200640, Note_on_c, 9, 43, 127
5, 200999, Note_on_c, 9, 45, 0
5, 201000, Note_on_c, 9, 47, 127
5, 201119, Note_on_c, 9, 43, 0
5, 201119, Note_on_c, 9, 47, 0
5, 201120, Note_on_c, 9, 48, 127
5, 201359, Note_on_c, 9, 48, 0
5, 201360, Note_on_c, 9, 47, 127
5, 201360, Note_on_c, 9, 43, 127
5, 201599, Note_on_c, 9, 47, 0
5, 201599, Note_on_c, 9, 43, 0
5, 201600, Note_on_c, 9, 45, 127
5, 201600, Note_on_c, 9, 43, 127
5, 201959, Note_on_c, 9, 45, 0
5, 201960, Note_on_c, 9, 47, 127
5, 202079, Note_on_c, 9, 43, 0
5, 202079, Note_on_c, 9, 47, 0
5, 202080, Note_on_c, 9, 48, 127
5, 202319, Note_on_c, 9, 48, 0
5, 202320, Note_on_c, 9, 47, 127
5, 202320, Note_on_c, 9, 43, 127
5, 202559, Note_on_c, 9, 47, 0
5, 202559, Note_on_c, 9, 43, 0
5, 202560, Note_on_c, 9, 45, 127
5, 202560, Note_on_c, 9, 43, 127
5, 202919, Note_on_c, 9, 45, 0
5, 202920, Note_on_c, 9, 47, 127
5, 203039, Note_on_c, 9, 43, 0
5, 203039, Note_on_c, 9, 47, 0
5, 203040, Note_on_c, 9, 48, 127
5, 203279, Note_on_c, 9, 48, 0
5, 203280, Note_on_c, 9, 47, 127
5, 203280, Note_on_c, 9, 43, 127
5, 203519, Note_on_c, 9, 47, 0
5, 203519, Note_on_c, 9, 43, 0
5, 203520, Note_on_c, 9, 45, 127
5, 203520, Note_on_c, 9, 43, 127
5, 203879, Note_on_c, 9, 45, 0
5, 203880, Note_on_c, 9, 47, 127
5, 203999, Note_on_c, 9, 43, 0
5, 203999, Note_on_c, 9, 47, 0
5, 204000, Note_on_c, 9, 48, 127
5, 204239, Note_on_c, 9, 48, 0
5, 204240, Note_on_c, 9, 47, 127
5, 204240, Note_on_c, 9, 43, 127
5, 204479, Note_on_c, 9, 47, 0
5, 204479, Note_on_c, 9, 43, 0
5, 204480, Note_on_c, 9, 45, 127
5, 204480, Note_on_c, 9, 43, 127
5, 204839, Note_on_c, 9, 45, 0
5, 204840, Note_on_c, 9, 47, 127
5, 204959, Note_on_c, 9, 43, 0
5, 204959, Note_on_c, 9, 47, 0
5, 204960, Note_on_c, 9, 48, 127
5, 205199, Note_on_c, 9, 48, 0
5, 205200, Note_on_c, 9, 47, 127
5, 205200, Note_on_c, 9, 43, 127
5, 205439, Note_on_c, 9, 47, 0
5, 205439, Note_on_c, 9, 43, 0
5, 205440, Note_on_c, 9, 45, 127
5, 205440, Note_on_c, 9, 43, 127
5, 205799, Note_on_c, 9, 45, 0
5, 205800, Note_on_c, 9, 47, 127
5, 205919, Note_on_c, 9, 43, 0
5, 205919, Note_on_c, 9, 47, 0
5, 205920, Note_on_c, 9, 48, 127
5, 206159, Note_on_c, 9, 48, 0
5, 206160, Note_on_c, 9, 47, 127
5, 206160, Note_on_c, 9, 43, 127
5, 206399, Note_on_c, 9, 47, 0
5, 206399, Note_on_c, 9, 43, 0
5, 206400, Note_on_c, 9, 45, 127
5, 206400, Note_on_c, 9, 43, 127
5, 206759, Note_on_c, 9, 45, 0
5, 206760, Note_on_c, 9, 47, 127
5, 206879, Note_on_c, 9, 43, 0
5, 206879, Note_on_c, 9, 47, 0
5, 206880, Note_on_c, 9, 48, 127
5, 207119, Note_on_c, 9, 48, 0
5, 207120, Note_on_c, 9, 47, 127
5, 207120, Note_on_c, 9, 43, 127
5, 207359, Note_on_c, 9, 47, 0
5, 207359, Note_on_c, 9, 43, 0
5, 207360, Note_on_c, 9, 45, 127
5, 207360, Note_on_c, 9, 43, 127
5, 207719, Note_on_c, 9, 45, 0
5, 207720, Note_on_c, 9, 47, 127
5, 207839, Note_on_c, 9, 43, 0
5, 207839, Note_on_c, 9, 47, 0
5, 207840, Note_on_c, 9, 48, 127
5, 208079, Note_on_c, 9, 48, 0
5, 208080, Note_on_c, 9, 47, 127
5, 208080, Note_on_c, 9, 43, 127
5, 208319, Note_on_c, 9, 47, 0
5, 208319, Note_on_c, 9, 43, 0
5, 208320, Note_on_c, 9, 45, 127
5, 208320, Note_on_c, 9, 43, 127
5, 208679, Note_on_c, 9, 45, 0
5, 208680, Note_on_c, 9, 47, 127
5, 208799, Note_on_c, 9, 43, 0
5, 208799, Note_on_c, 9, 47, 0
5, 208800, Note_on_c, 9, 48, 127
5, 209039, Note_on_c, 9, 48, 0
5, 209040, Note_on_c, 9, 47, 127
5, 209040, Note_on_c, 9, 43, 127
5, 209279, Note_on_c, 9, 47, 0
5, 209279, Note_on_c, 9, 43, 0
5, 209280, Note_on_c, 9, 45, 127
5, 209280, Note_on_c, 9, 43, 127
5, 209639, Note_on_c, 9, 45, 0
5, 209640, Note_on_c, 9, 47, 127
5, 209759, Note_on_c, 9, 43, 0
5, 209759, Note_on_c, 9, 47, 0
5, 209760, Note_on_c, 9, 48, 127
5, 209999, Note_on_c, 9, 48, 0
5, 210000, Note_on_c, 9, 47, 127
5, 210000, Note_on_c, 9, 43, 127
5, 210239, Note_on_c, 9, 47, 0
5, 210239, Note_on_c, 9, 43, 0
5, 210240, Note_on_c, 9, 45, 127
5, 210240, Note_on_c, 9, 43, 127
5, 210599, Note_on_c, 9, 45, 0
5, 210600, Note_on_c, 9, 47, 127
5, 210719, Note_on_c, 9, 43, 0
5, 210719, Note_on_c, 9, 47, 0
5, 210720, Note_on_c, 9, 48, 127
5, 210959, Note_on_c, 9, 48, 0
5, 210960, Note_on_c, 9, 47, 127
5, 210960, Note_on_c, 9, 43, 127
5, 211199, Note_on_c, 9, 47, 0
5, 211199, Note_on_c, 9, 43, 0
5, 211200, Note_on_c, 9, 45, 127
5, 211200, Note_on_c, 9, 43, 127
5, 211559, Note_on_c, 9, 45, 0
5, 211560, Note_on_c, 9, 47, 127
5, 211679, Note_on_c, 9, 43, 0
5, 211679, Note_on_c, 9, 47, 0
5, 211680, Note_on_c, 9, 48, 127
5, 211919, Note_on_c, 9, 48, 0
5, 211920, Note_on_c, 9, 47, 127
5, 211920, Note_on_c, 9, 43, 127
5, 212159, Note_on_c, 9, 47, 0
5, 212159, Note_on_c, 9, 43, 0
5, 212160, Note_on_c, 9, 45, 127
5, 212160, Note_on_c, 9, 43, 127
5, 212519, Note_on_c, 9, 45, 0
5, 212520, Note_on_c, 9, 47, 127
5, 212639, Note_on_c, 9, 43, 0
5, 212639, Note_on_c, 9, 47, 0
5, 212640, Note_on_c, 9, 48, 127
5, 212879, Note_on_c, 9, 48, 0
5, 212880, Note_on_c, 9, 47, 127
5, 212880, Note_on_c, 9, 43, 127
5, 213119, Note_on_c, 9, 47, 0
5, 213119, Note_on_c, 9, 43, 0
5, 213120, Note_on_c, 9, 45, 127
5, 213120, Note_on_c, 9, 43, 127
5, 213479, Note_on_c, 9, 45, 0
5, 213480, Note_on_c, 9, 47, 127
5, 213599, Note_on_c, 9, 43, 0
5, 213599, Note_on_c, 9, 47, 0
5, 213600, Note_on_c, 9, 48, 127
5, 213839, Note_on_c, 9, 48, 0
5, 213840, Note_on_c, 9, 47, 127
5, 213840, Note_on_c, 9, 43, 127
5, 214079, Note_on_c, 9, 47, 0
5, 214079, Note_on_c, 9, 43, 0
5, 214080, Note_on_c, 9, 45, 127
5, 214080, Note_on_c, 9, 43, 127
5, 214439, Note_on_c, 9, 45, 0
5, 214440, Note_on_c, 9, 47, 127
5, 214559, Note_on_c, 9, 43, 0
5, 214559, Note_on_c, 9, 47, 0
5, 214560, Note_on_c, 9, 48, 127
5, 214799, Note_on_c, 9, 48, 0
5, 214800, Note_on_c, 9, 47, 127
5, 214800, Note_on_c, 9, 43, 127
5, 215039, Note_on_c, 9, 47, 0
5, 215039, Note_on_c, 9, 43, 0
5, 215040, Note_on_c, 9, 45, 127
5, 215040, Note_on_c, 9, 43, 127
5, 215399, Note_on_c, 9, 45, 0
5, 215400, Note_on_c, 9, 47, 127
5, 215519, Note_on_c, 9, 43, 0
5, 215519, Note_on_c, 9, 47, 0
5, 215520, Note_on_c, 9, 48, 127
5, 215759, Note_on_c, 9, 48, 0
5, 215760, Note_on_c, 9, 47, 127
5, 215760, Note_on_c, 9, 43, 127
5, 215999, Note_on_c, 9, 47, 0
5, 215999, Note_on_c, 9, 43, 0
5, 216000, Note_on_c, 9, 45, 127
5, 216000, Note_on_c, 9, 43, 127
5, 216359, Note_on_c, 9, 45, 0
5, 216360, Note_on_c, 9, 47, 127
5, 216479, Note_on_c, 9, 43, 0
5, 216479, Note_on_c, 9, 47, 0
5, 216480, Note_on_c, 9, 48, 127
5, 216719, Note_on_c, 9, 48, 0
5, 216720, Note_on_c, 9, 47, 127
5, 216720, Note_on_c, 9, 43, 127
5, 216959, Note_on_c, 9, 47, 0
5, 216959, Note_on_c, 9, 43, 0
5, 216960, Note_on_c, 9, 45, 127
5, 216960, Note_on_c, 9, 43, 127
5, 217319, Note_on_c, 9, 45, 0
5, 217320, Note_on_c, 9, 47, 127
5, 217439, Note_on_c, 9, 43, 0
5, 217439, Note_on_c, 9, 47, 0
5, 217440, Note_on_c, 9, 48, 127
5, 217679, Note_on_c, 9, 48, 0
5, 217680, Note_on_c, 9, 47, 127
5, 217680, Note_on_c, 9, 43, 127
5, 217919, Note_on_c, 9, 47, 0
5, 217919, Note_on_c, 9, 43, 0
5, 217920, Note_on_c, 9, 45, 127
5, 217920, Note_on_c, 9, 43, 127
5, 218279, Note_on_c, 9, 45, 0
5, 218280, Note_on_c, 9, 47, 127
5, 218399, Note_on_c, 9, 43, 0
5, 218399, Note_on_c, 9, 47, 0
5, 218400, Note_on_c, 9, 48, 127
5, 218639, Note_on_c, 9, 48, 0
5, 218640, Note_on_c, 9, 47, 127
5, 218640, Note_on_c, 9, 43, 127
5, 218879, Note_on_c, 9, 47, 0
5, 218879, Note_on_c, 9, 43, 0
5, 218880, Note_on_c, 9, 45, 127
5, 218880, Note_on_c, 9, 43, 127
5, 219359, Note_on_c, 9, 45, 0
5, 219359, Note_on_c, 9, 43, 0
5, 219360, End_track
0, 0, End_of_file
