0, 0, Header, 1, 1, 480
1, 0, Start_track
1, 0, Time_signature, 4, 2, 24, 8
1, 0, Key_signature, 0, "major"
1, 0, Tempo, 487805
1, 0, Control_c, 9, 121, 0
1, 0, Program_c, 9, 0
1, 0, Control_c, 9, 7, 100
1, 0, Control_c, 9, 10, 64
1, 0, Control_c, 9, 91, 0
1, 0, Control_c, 9, 93, 0
1, 0, MIDI_port, 0
1, 3840, Note_on_c, 9, 42, 73
1, 3840, Note_on_c, 9, 49, 44
1, 3840, Note_on_c, 9, 36, 114
1, 4079, Note_on_c, 9, 42, 0
1, 4079, Note_on_c, 9, 49, 0
1, 4080, Note_on_c, 9, 42, 69
1, 4319, Note_on_c, 9, 36, 0
1, 4319, Note_on_c, 9, 42, 0
1, 4320, Note_on_c, 9, 38, 92
1, 4320, Note_on_c, 9, 39, 90
1, 4320, Note_on_c, 9, 42, 69
1, 4559, Note_on_c, 9, 38, 0
1, 4559, Note_on_c, 9, 39, 0
1, 4559, Note_on_c, 9, 42, 0
1, 4560, Note_on_c, 9, 42, 57
1, 4799, Note_on_c, 9, 42, 0
1, 4800, Note_on_c, 9, 54, 74
1, 4800, Note_on_c, 9, 42, 65
1, 4800, Note_on_c, 9, 36, 110
1, 5039, Note_on_c, 9, 54, 0
1, 5039, Note_on_c, 9, 42, 0
1, 5040, Note_on_c, 9, 42, 61
1, 5279, Note_on_c, 9, 36, 0
1, 5279, Note_on_c, 9, 42, 0
1, 5280, Note_on_c, 9, 38, 88
1, 5280, Note_on_c, 9, 39, 94
1, 5280, Note_on_c, 9, 42, 65
1, 5519, Note_on_c, 9, 38, 0
1, 5519, Note_on_c, 9, 39, 0
1, 5519, Note_on_c, 9, 42, 0
1, 5520, Note_on_c, 9, 42, 61
1, 5759, Note_on_c, 9, 42, 0
1, 5760, Note_on_c, 9, 42, 65
1, 5760, Note_on_c, 9, 36, 102
1, 5999, Note_on_c, 9, 42, 0
1, 6000, Note_on_c, 9, 42, 65
1, 6239, Note_on_c, 9, 36, 0
1, 6239, Note_on_c, 9, 42, 0
1, 6240, Note_on_c, 9, 38, 92
1, 6240, Note_on_c, 9, 39, 94
1, 6240, Note_on_c, 9, 42, 65
1, 6479, Note_on_c, 9, 38, 0
1, 6479, Note_on_c, 9, 39, 0
1, 6479, Note_on_c, 9, 42, 0
1, 6480, Note_on_c, 9, 42, 61
1, 6480, Note_on_c, 9, 36, 94
1, 6719, Note_on_c, 9, 42, 0
1, 6719, Note_on_c, 9, 36, 0
1, 6720, Note_on_c, 9, 54, 74
1, 6720, Note_on_c, 9, 42, 65
1, 6720, Note_on_c, 9, 36, 102
1, 6959, Note_on_c, 9, 54, 0
1, 6959, Note_on_c, 9, 42, 0
1, 6960, Note_on_c, 9, 42, 61
1, 7199, Note_on_c, 9, 36, 0
1, 7199, Note_on_c, 9, 42, 0
1, 7200, Note_on_c, 9, 38, 92
1, 7200, Note_on_c, 9, 39, 90
1, 7200, Note_on_c, 9, 42, 65
1, 7439, Note_on_c, 9, 38, 0
1, 7439, Note_on_c, 9, 39, 0
1, 7439, Note_on_c, 9, 42, 0
1, 7440, Note_on_c, 9, 42, 65
1, 7679, Note_on_c, 9, 42, 0
1, 7680, Note_on_c, 9, 42, 69
1, 7680, Note_on_c, 9, 36, 106
1, 7919, Note_on_c, 9, 42, 0
1, 7920, Note_on_c, 9, 42, 61
1, 8159, Note_on_c, 9, 36, 0
1, 8159, Note_on_c, 9, 42, 0
1, 8160, Note_on_c, 9, 38, 84
1, 8160, Note_on_c, 9, 39, 90
1, 8160, Note_on_c, 9, 42, 65
1, 8399, Note_on_c, 9, 38, 0
1, 8399, Note_on_c, 9, 39, 0
1, 8399, Note_on_c, 9, 42, 0
1, 8400, Note_on_c, 9, 42, 69
1, 8639, Note_on_c, 9, 42, 0
1, 8640, Note_on_c, 9, 54, 74
1, 8640, Note_on_c, 9, 42, 65
1, 8640, Note_on_c, 9, 36, 106
1, 8879, Note_on_c, 9, 54, 0
1, 8879, Note_on_c, 9, 42, 0
1, 8880, Note_on_c, 9, 42, 65
1, 9119, Note_on_c, 9, 36, 0
1, 9119, Note_on_c, 9, 42, 0
1, 9120, Note_on_c, 9, 38, 88
1, 9120, Note_on_c, 9, 39, 90
1, 9120, Note_on_c, 9, 42, 65
1, 9359, Note_on_c, 9, 38, 0
1, 9359, Note_on_c, 9, 39, 0
1, 9359, Note_on_c, 9, 42, 0
1, 9360, Note_on_c, 9, 42, 65
1, 9599, Note_on_c, 9, 42, 0
1, 9600, Note_on_c, 9, 42, 69
1, 9600, Note_on_c, 9, 36, 106
1, 9839, Note_on_c, 9, 42, 0
1, 9840, Note_on_c, 9, 42, 61
1, 10079, Note_on_c, 9, 36, 0
1, 10079, Note_on_c, 9, 42, 0
1, 10080, Note_on_c, 9, 38, 84
1, 10080, Note_on_c, 9, 39, 94
1, 10080, Note_on_c, 9, 42, 73
1, 10319, Note_on_c, 9, 38, 0
1, 10319, Note_on_c, 9, 39, 0
1, 10319, Note_on_c, 9, 42, 0
1, 10320, Note_on_c, 9, 42, 49
1, 10320, Note_on_c, 9, 36, 94
1, 10559, Note_on_c, 9, 42, 0
1, 10559, Note_on_c, 9, 36, 0
1, 10560, Note_on_c, 9, 54, 74
1, 10560, Note_on_c, 9, 42, 61
1, 10560, Note_on_c, 9, 36, 114
1, 10799, Note_on_c, 9, 54, 0
1, 10799, Note_on_c, 9, 42, 0
1, 10800, Note_on_c, 9, 42, 57
1, 11039, Note_on_c, 9, 36, 0
1, 11039, Note_on_c, 9, 42, 0
1, 11040, Note_on_c, 9, 38, 88
1, 11040, Note_on_c, 9, 39, 90
1, 11040, Note_on_c, 9, 42, 69
1, 11279, Note_on_c, 9, 38, 0
1, 11279, Note_on_c, 9, 39, 0
1, 11279, Note_on_c, 9, 42, 0
1, 11280, Note_on_c, 9, 42, 57
1, 11519, Note_on_c, 9, 42, 0
1, 11520, Note_on_c, 9, 33, 44
1, 11520, Note_on_c, 9, 42, 73
1, 11520, Note_on_c, 9, 36, 114
1, 11759, Note_on_c, 9, 33, 0
1, 11759, Note_on_c, 9, 42, 0
1, 11760, Note_on_c, 9, 33, 56
1, 11760, Note_on_c, 9, 42, 53
1, 11999, Note_on_c, 9, 36, 0
1, 11999, Note_on_c, 9, 33, 0
1, 11999, Note_on_c, 9, 42, 0
1, 12000, Note_on_c, 9, 38, 88
1, 12000, Note_on_c, 9, 33, 44
1, 12000, Note_on_c, 9, 39, 90
1, 12000, Note_on_c, 9, 42, 73
1, 12119, Note_on_c, 9, 38, 0
1, 12119, Note_on_c, 9, 33, 0
1, 12119, Note_on_c, 9, 39, 0
1, 12119, Note_on_c, 9, 42, 0
1, 12120, Note_on_c, 9, 33, 42
1, 12239, Note_on_c, 9, 33, 0
1, 12240, Note_on_c, 9, 33, 36
1, 12240, Note_on_c, 9, 42, 57
1, 12359, Note_on_c, 9, 33, 0
1, 12359, Note_on_c, 9, 42, 0
1, 12360, Note_on_c, 9, 33, 47
1, 12479, Note_on_c, 9, 33, 0
1, 12480, Note_on_c, 9, 54, 74
1, 12480, Note_on_c, 9, 33, 58
1, 12480, Note_on_c, 9, 42, 65
1, 12480, Note_on_c, 9, 36, 110
1, 12719, Note_on_c, 9, 54, 0
1, 12719, Note_on_c, 9, 33, 0
1, 12719, Note_on_c, 9, 42, 0
1, 12720, Note_on_c, 9, 33, 55
1, 12720, Note_on_c, 9, 42, 61
1, 12959, Note_on_c, 9, 36, 0
1, 12959, Note_on_c, 9, 33, 0
1, 12959, Note_on_c, 9, 42, 0
1, 12960, Note_on_c, 9, 38, 80
1, 12960, Note_on_c, 9, 33, 42
1, 12960, Note_on_c, 9, 39, 94
1, 12960, Note_on_c, 9, 42, 69
1, 13079, Note_on_c, 9, 38, 0
1, 13079, Note_on_c, 9, 33, 0
1, 13079, Note_on_c, 9, 39, 0
1, 13079, Note_on_c, 9, 42, 0
1, 13080, Note_on_c, 9, 33, 36
1, 13199, Note_on_c, 9, 33, 0
1, 13200, Note_on_c, 9, 33, 36
1, 13200, Note_on_c, 9, 42, 49
1, 13319, Note_on_c, 9, 33, 0
1, 13319, Note_on_c, 9, 42, 0
1, 13320, Note_on_c, 9, 33, 47
1, 13439, Note_on_c, 9, 33, 0
1, 13440, Note_on_c, 9, 33, 44
1, 13440, Note_on_c, 9, 42, 77
1, 13440, Note_on_c, 9, 36, 102
1, 13679, Note_on_c, 9, 33, 0
1, 13679, Note_on_c, 9, 42, 0
1, 13680, Note_on_c, 9, 33, 56
1, 13680, Note_on_c, 9, 42, 61
1, 13919, Note_on_c, 9, 36, 0
1, 13919, Note_on_c, 9, 33, 0
1, 13919, Note_on_c, 9, 42, 0
1, 13920, Note_on_c, 9, 38, 84
1, 13920, Note_on_c, 9, 33, 44
1, 13920, Note_on_c, 9, 39, 94
1, 13920, Note_on_c, 9, 42, 65
1, 14039, Note_on_c, 9, 38, 0
1, 14039, Note_on_c, 9, 33, 0
1, 14039, Note_on_c, 9, 39, 0
1, 14039, Note_on_c, 9, 42, 0
1, 14040, Note_on_c, 9, 33, 42
1, 14159, Note_on_c, 9, 33, 0
1, 14160, Note_on_c, 9, 33, 36
1, 14160, Note_on_c, 9, 42, 57
1, 14160, Note_on_c, 9, 36, 94
1, 14279, Note_on_c, 9, 33, 0
1, 14279, Note_on_c, 9, 42, 0
1, 14280, Note_on_c, 9, 33, 47
1, 14399, Note_on_c, 9, 36, 0
1, 14399, Note_on_c, 9, 33, 0
1, 14400, Note_on_c, 9, 54, 74
1, 14400, Note_on_c, 9, 33, 58
1, 14400, Note_on_c, 9, 42, 65
1, 14400, Note_on_c, 9, 36, 102
1, 14639, Note_on_c, 9, 54, 0
1, 14639, Note_on_c, 9, 33, 0
1, 14639, Note_on_c, 9, 42, 0
1, 14640, Note_on_c, 9, 33, 55
1, 14640, Note_on_c, 9, 42, 57
1, 14879, Note_on_c, 9, 36, 0
1, 14879, Note_on_c, 9, 33, 0
1, 14879, Note_on_c, 9, 42, 0
1, 14880, Note_on_c, 9, 38, 88
1, 14880, Note_on_c, 9, 33, 42
1, 14880, Note_on_c, 9, 39, 90
1, 14880, Note_on_c, 9, 42, 73
1, 14999, Note_on_c, 9, 38, 0
1, 14999, Note_on_c, 9, 33, 0
1, 14999, Note_on_c, 9, 39, 0
1, 14999, Note_on_c, 9, 42, 0
1, 15000, Note_on_c, 9, 33, 36
1, 15119, Note_on_c, 9, 33, 0
1, 15120, Note_on_c, 9, 33, 36
1, 15120, Note_on_c, 9, 42, 57
1, 15239, Note_on_c, 9, 33, 0
1, 15239, Note_on_c, 9, 42, 0
1, 15240, Note_on_c, 9, 33, 47
1, 15359, Note_on_c, 9, 33, 0
1, 15360, Note_on_c, 9, 33, 44
1, 15360, Note_on_c, 9, 42, 69
1, 15360, Note_on_c, 9, 36, 106
1, 15599, Note_on_c, 9, 33, 0
1, 15599, Note_on_c, 9, 42, 0
1, 15600, Note_on_c, 9, 33, 56
1, 15600, Note_on_c, 9, 42, 57
1, 15839, Note_on_c, 9, 36, 0
1, 15839, Note_on_c, 9, 33, 0
1, 15839, Note_on_c, 9, 42, 0
1, 15840, Note_on_c, 9, 38, 84
1, 15840, Note_on_c, 9, 33, 44
1, 15840, Note_on_c, 9, 39, 90
1, 15840, Note_on_c, 9, 42, 69
1, 15959, Note_on_c, 9, 38, 0
1, 15959, Note_on_c, 9, 33, 0
1, 15959, Note_on_c, 9, 39, 0
1, 15959, Note_on_c, 9, 42, 0
1, 15960, Note_on_c, 9, 33, 42
1, 16079, Note_on_c, 9, 33, 0
1, 16080, Note_on_c, 9, 33, 36
1, 16080, Note_on_c, 9, 42, 61
1, 16199, Note_on_c, 9, 33, 0
1, 16199, Note_on_c, 9, 42, 0
1, 16200, Note_on_c, 9, 33, 47
1, 16319, Note_on_c, 9, 33, 0
1, 16320, Note_on_c, 9, 54, 74
1, 16320, Note_on_c, 9, 33, 58
1, 16320, Note_on_c, 9, 42, 65
1, 16320, Note_on_c, 9, 36, 106
1, 16559, Note_on_c, 9, 54, 0
1, 16559, Note_on_c, 9, 33, 0
1, 16559, Note_on_c, 9, 42, 0
1, 16560, Note_on_c, 9, 33, 55
1, 16560, Note_on_c, 9, 42, 61
1, 16799, Note_on_c, 9, 36, 0
1, 16799, Note_on_c, 9, 33, 0
1, 16799, Note_on_c, 9, 42, 0
1, 16800, Note_on_c, 9, 38, 88
1, 16800, Note_on_c, 9, 33, 42
1, 16800, Note_on_c, 9, 39, 90
1, 16800, Note_on_c, 9, 42, 69
1, 16919, Note_on_c, 9, 38, 0
1, 16919, Note_on_c, 9, 33, 0
1, 16919, Note_on_c, 9, 39, 0
1, 16919, Note_on_c, 9, 42, 0
1, 16920, Note_on_c, 9, 33, 36
1, 17039, Note_on_c, 9, 33, 0
1, 17040, Note_on_c, 9, 33, 36
1, 17040, Note_on_c, 9, 42, 61
1, 17159, Note_on_c, 9, 33, 0
1, 17159, Note_on_c, 9, 42, 0
1, 17160, Note_on_c, 9, 33, 47
1, 17279, Note_on_c, 9, 33, 0
1, 17280, Note_on_c, 9, 33, 44
1, 17280, Note_on_c, 9, 42, 61
1, 17280, Note_on_c, 9, 36, 106
1, 17519, Note_on_c, 9, 33, 0
1, 17519, Note_on_c, 9, 42, 0
1, 17520, Note_on_c, 9, 33, 56
1, 17520, Note_on_c, 9, 42, 61
1, 17759, Note_on_c, 9, 36, 0
1, 17759, Note_on_c, 9, 33, 0
1, 17759, Note_on_c, 9, 42, 0
1, 17760, Note_on_c, 9, 38, 88
1, 17760, Note_on_c, 9, 33, 44
1, 17760, Note_on_c, 9, 39, 94
1, 17760, Note_on_c, 9, 42, 65
1, 17879, Note_on_c, 9, 38, 0
1, 17879, Note_on_c, 9, 33, 0
1, 17879, Note_on_c, 9, 39, 0
1, 17879, Note_on_c, 9, 42, 0
1, 17880, Note_on_c, 9, 33, 42
1, 17999, Note_on_c, 9, 33, 0
1, 18000, Note_on_c, 9, 33, 36
1, 18000, Note_on_c, 9, 42, 53
1, 18000, Note_on_c, 9, 36, 94
1, 18119, Note_on_c, 9, 33, 0
1, 18119, Note_on_c, 9, 42, 0
1, 18120, Note_on_c, 9, 33, 47
1, 18239, Note_on_c, 9, 36, 0
1, 18239, Note_on_c, 9, 33, 0
1, 18240, Note_on_c, 9, 54, 74
1, 18240, Note_on_c, 9, 33, 58
1, 18240, Note_on_c, 9, 42, 61
1, 18240, Note_on_c, 9, 36, 114
1, 18479, Note_on_c, 9, 54, 0
1, 18479, Note_on_c, 9, 33, 0
1, 18479, Note_on_c, 9, 42, 0
1, 18480, Note_on_c, 9, 38, 84
1, 18480, Note_on_c, 9, 33, 55
1, 18480, Note_on_c, 9, 42, 97
1, 18599, Note_on_c, 9, 38, 0
1, 18599, Note_on_c, 9, 33, 0
1, 18599, Note_on_c, 9, 42, 0
1, 18600, Note_on_c, 9, 38, 64
1, 18600, Note_on_c, 9, 42, 77
1, 18719, Note_on_c, 9, 36, 0
1, 18719, Note_on_c, 9, 38, 0
1, 18719, Note_on_c, 9, 42, 0
1, 18720, Note_on_c, 9, 33, 42
1, 18720, Note_on_c, 9, 39, 90
1, 18839, Note_on_c, 9, 33, 0
1, 18839, Note_on_c, 9, 39, 0
1, 18840, Note_on_c, 9, 33, 36
1, 18959, Note_on_c, 9, 33, 0
1, 18960, Note_on_c, 9, 38, 80
1, 18960, Note_on_c, 9, 46, 53
1, 18960, Note_on_c, 9, 33, 36
1, 19079, Note_on_c, 9, 38, 0
1, 19079, Note_on_c, 9, 46, 0
1, 19079, Note_on_c, 9, 33, 0
1, 19080, Note_on_c, 9, 33, 47
1, 19199, Note_on_c, 9, 33, 0
1, 19200, Note_on_c, 9, 33, 44
1, 19200, Note_on_c, 9, 42, 73
1, 19200, Note_on_c, 9, 49, 44
1, 19200, Note_on_c, 9, 36, 114
1, 19439, Note_on_c, 9, 33, 0
1, 19439, Note_on_c, 9, 42, 0
1, 19439, Note_on_c, 9, 49, 0
1, 19440, Note_on_c, 9, 33, 56
1, 19440, Note_on_c, 9, 42, 69
1, 19679, Note_on_c, 9, 36, 0
1, 19679, Note_on_c, 9, 33, 0
1, 19679, Note_on_c, 9, 42, 0
1, 19680, Note_on_c, 9, 38, 92
1, 19680, Note_on_c, 9, 33, 44
1, 19680, Note_on_c, 9, 39, 90
1, 19680, Note_on_c, 9, 42, 69
1, 19799, Note_on_c, 9, 38, 0
1, 19799, Note_on_c, 9, 33, 0
1, 19799, Note_on_c, 9, 39, 0
1, 19799, Note_on_c, 9, 42, 0
1, 19800, Note_on_c, 9, 33, 42
1, 19919, Note_on_c, 9, 33, 0
1, 19920, Note_on_c, 9, 33, 36
1, 19920, Note_on_c, 9, 42, 57
1, 20039, Note_on_c, 9, 33, 0
1, 20039, Note_on_c, 9, 42, 0
1, 20040, Note_on_c, 9, 33, 47
1, 20159, Note_on_c, 9, 33, 0
1, 20160, Note_on_c, 9, 54, 74
1, 20160, Note_on_c, 9, 33, 58
1, 20160, Note_on_c, 9, 42, 65
1, 20160, Note_on_c, 9, 36, 110
1, 20399, Note_on_c, 9, 54, 0
1, 20399, Note_on_c, 9, 33, 0
1, 20399, Note_on_c, 9, 42, 0
1, 20400, Note_on_c, 9, 33, 55
1, 20400, Note_on_c, 9, 42, 61
1, 20639, Note_on_c, 9, 36, 0
1, 20639, Note_on_c, 9, 33, 0
1, 20639, Note_on_c, 9, 42, 0
1, 20640, Note_on_c, 9, 38, 88
1, 20640, Note_on_c, 9, 33, 42
1, 20640, Note_on_c, 9, 39, 94
1, 20640, Note_on_c, 9, 42, 65
1, 20759, Note_on_c, 9, 38, 0
1, 20759, Note_on_c, 9, 33, 0
1, 20759, Note_on_c, 9, 39, 0
1, 20759, Note_on_c, 9, 42, 0
1, 20760, Note_on_c, 9, 33, 36
1, 20879, Note_on_c, 9, 33, 0
1, 20880, Note_on_c, 9, 33, 36
1, 20880, Note_on_c, 9, 42, 61
1, 20999, Note_on_c, 9, 33, 0
1, 20999, Note_on_c, 9, 42, 0
1, 21000, Note_on_c, 9, 33, 47
1, 21119, Note_on_c, 9, 33, 0
1, 21120, Note_on_c, 9, 33, 44
1, 21120, Note_on_c, 9, 42, 65
1, 21120, Note_on_c, 9, 36, 102
1, 21359, Note_on_c, 9, 33, 0
1, 21359, Note_on_c, 9, 42, 0
1, 21360, Note_on_c, 9, 33, 56
1, 21360, Note_on_c, 9, 42, 65
1, 21599, Note_on_c, 9, 36, 0
1, 21599, Note_on_c, 9, 33, 0
1, 21599, Note_on_c, 9, 42, 0
1, 21600, Note_on_c, 9, 38, 92
1, 21600, Note_on_c, 9, 33, 44
1, 21600, Note_on_c, 9, 39, 94
1, 21600, Note_on_c, 9, 42, 65
1, 21719, Note_on_c, 9, 38, 0
1, 21719, Note_on_c, 9, 33, 0
1, 21719, Note_on_c, 9, 39, 0
1, 21719, Note_on_c, 9, 42, 0
1, 21720, Note_on_c, 9, 33, 42
1, 21839, Note_on_c, 9, 33, 0
1, 21840, Note_on_c, 9, 33, 36
1, 21840, Note_on_c, 9, 42, 61
1, 21840, Note_on_c, 9, 36, 94
1, 21959, Note_on_c, 9, 33, 0
1, 21959, Note_on_c, 9, 42, 0
1, 21960, Note_on_c, 9, 33, 47
1, 22079, Note_on_c, 9, 36, 0
1, 22079, Note_on_c, 9, 33, 0
1, 22080, Note_on_c, 9, 54, 74
1, 22080, Note_on_c, 9, 33, 58
1, 22080, Note_on_c, 9, 42, 65
1, 22080, Note_on_c, 9, 36, 102
1, 22319, Note_on_c, 9, 54, 0
1, 22319, Note_on_c, 9, 33, 0
1, 22319, Note_on_c, 9, 42, 0
1, 22320, Note_on_c, 9, 33, 55
1, 22320, Note_on_c, 9, 42, 61
1, 22559, Note_on_c, 9, 36, 0
1, 22559, Note_on_c, 9, 33, 0
1, 22559, Note_on_c, 9, 42, 0
1, 22560, Note_on_c, 9, 38, 92
1, 22560, Note_on_c, 9, 33, 42
1, 22560, Note_on_c, 9, 39, 90
1, 22560, Note_on_c, 9, 42, 65
1, 22679, Note_on_c, 9, 38, 0
1, 22679, Note_on_c, 9, 33, 0
1, 22679, Note_on_c, 9, 39, 0
1, 22679, Note_on_c, 9, 42, 0
1, 22680, Note_on_c, 9, 33, 36
1, 22799, Note_on_c, 9, 33, 0
1, 22800, Note_on_c, 9, 33, 36
1, 22800, Note_on_c, 9, 42, 65
1, 22919, Note_on_c, 9, 33, 0
1, 22919, Note_on_c, 9, 42, 0
1, 22920, Note_on_c, 9, 33, 47
1, 23039, Note_on_c, 9, 33, 0
1, 23040, Note_on_c, 9, 33, 44
1, 23040, Note_on_c, 9, 42, 69
1, 23040, Note_on_c, 9, 36, 106
1, 23279, Note_on_c, 9, 33, 0
1, 23279, Note_on_c, 9, 42, 0
1, 23280, Note_on_c, 9, 33, 56
1, 23280, Note_on_c, 9, 42, 61
1, 23519, Note_on_c, 9, 36, 0
1, 23519, Note_on_c, 9, 33, 0
1, 23519, Note_on_c, 9, 42, 0
1, 23520, Note_on_c, 9, 38, 84
1, 23520, Note_on_c, 9, 33, 44
1, 23520, Note_on_c, 9, 39, 90
1, 23520, Note_on_c, 9, 42, 65
1, 23639, Note_on_c, 9, 38, 0
1, 23639, Note_on_c, 9, 33, 0
1, 23639, Note_on_c, 9, 39, 0
1, 23639, Note_on_c, 9, 42, 0
1, 23640, Note_on_c, 9, 33, 42
1, 23759, Note_on_c, 9, 33, 0
1, 23760, Note_on_c, 9, 33, 36
1, 23760, Note_on_c, 9, 42, 69
1, 23879, Note_on_c, 9, 33, 0
1, 23879, Note_on_c, 9, 42, 0
1, 23880, Note_on_c, 9, 33, 47
1, 23999, Note_on_c, 9, 33, 0
1, 24000, Note_on_c, 9, 54, 74
1, 24000, Note_on_c, 9, 33, 58
1, 24000, Note_on_c, 9, 42, 65
1, 24000, Note_on_c, 9, 36, 106
1, 24239, Note_on_c, 9, 54, 0
1, 24239, Note_on_c, 9, 33, 0
1, 24239, Note_on_c, 9, 42, 0
1, 24240, Note_on_c, 9, 33, 55
1, 24240, Note_on_c, 9, 42, 65
1, 24479, Note_on_c, 9, 36, 0
1, 24479, Note_on_c, 9, 33, 0
1, 24479, Note_on_c, 9, 42, 0
1, 24480, Note_on_c, 9, 38, 88
1, 24480, Note_on_c, 9, 33, 42
1, 24480, Note_on_c, 9, 39, 90
1, 24480, Note_on_c, 9, 42, 65
1, 24599, Note_on_c, 9, 38, 0
1, 24599, Note_on_c, 9, 33, 0
1, 24599, Note_on_c, 9, 39, 0
1, 24599, Note_on_c, 9, 42, 0
1, 24600, Note_on_c, 9, 33, 36
1, 24719, Note_on_c, 9, 33, 0
1, 24720, Note_on_c, 9, 33, 36
1, 24720, Note_on_c, 9, 42, 65
1, 24839, Note_on_c, 9, 33, 0
1, 24839, Note_on_c, 9, 42, 0
1, 24840, Note_on_c, 9, 33, 47
1, 24959, Note_on_c, 9, 33, 0
1, 24960, Note_on_c, 9, 33, 44
1, 24960, Note_on_c, 9, 42, 69
1, 24960, Note_on_c, 9, 36, 106
1, 25199, Note_on_c, 9, 33, 0
1, 25199, Note_on_c, 9, 42, 0
1, 25200, Note_on_c, 9, 33, 56
1, 25200, Note_on_c, 9, 42, 61
1, 25439, Note_on_c, 9, 36, 0
1, 25439, Note_on_c, 9, 33, 0
1, 25439, Note_on_c, 9, 42, 0
1, 25440, Note_on_c, 9, 38, 84
1, 25440, Note_on_c, 9, 33, 44
1, 25440, Note_on_c, 9, 39, 94
1, 25440, Note_on_c, 9, 42, 73
1, 25559, Note_on_c, 9, 38, 0
1, 25559, Note_on_c, 9, 33, 0
1, 25559, Note_on_c, 9, 39, 0
1, 25559, Note_on_c, 9, 42, 0
1, 25560, Note_on_c, 9, 33, 42
1, 25679, Note_on_c, 9, 33, 0
1, 25680, Note_on_c, 9, 33, 36
1, 25680, Note_on_c, 9, 42, 49
1, 25680, Note_on_c, 9, 36, 94
1, 25799, Note_on_c, 9, 33, 0
1, 25799, Note_on_c, 9, 42, 0
1, 25800, Note_on_c, 9, 33, 47
1, 25919, Note_on_c, 9, 36, 0
1, 25919, Note_on_c, 9, 33, 0
1, 25920, Note_on_c, 9, 54, 74
1, 25920, Note_on_c, 9, 33, 58
1, 25920, Note_on_c, 9, 42, 61
1, 25920, Note_on_c, 9, 36, 114
1, 26159, Note_on_c, 9, 54, 0
1, 26159, Note_on_c, 9, 33, 0
1, 26159, Note_on_c, 9, 42, 0
1, 26160, Note_on_c, 9, 33, 55
1, 26160, Note_on_c, 9, 42, 57
1, 26399, Note_on_c, 9, 36, 0
1, 26399, Note_on_c, 9, 33, 0
1, 26399, Note_on_c, 9, 42, 0
1, 26400, Note_on_c, 9, 38, 88
1, 26400, Note_on_c, 9, 33, 42
1, 26400, Note_on_c, 9, 39, 90
1, 26400, Note_on_c, 9, 42, 69
1, 26519, Note_on_c, 9, 38, 0
1, 26519, Note_on_c, 9, 33, 0
1, 26519, Note_on_c, 9, 39, 0
1, 26519, Note_on_c, 9, 42, 0
1, 26520, Note_on_c, 9, 33, 36
1, 26639, Note_on_c, 9, 33, 0
1, 26640, Note_on_c, 9, 33, 36
1, 26640, Note_on_c, 9, 42, 57
1, 26759, Note_on_c, 9, 33, 0
1, 26759, Note_on_c, 9, 42, 0
1, 26760, Note_on_c, 9, 33, 47
1, 26879, Note_on_c, 9, 33, 0
1, 26880, Note_on_c, 9, 33, 44
1, 26880, Note_on_c, 9, 42, 73
1, 26880, Note_on_c, 9, 36, 114
1, 27119, Note_on_c, 9, 33, 0
1, 27119, Note_on_c, 9, 42, 0
1, 27120, Note_on_c, 9, 33, 56
1, 27120, Note_on_c, 9, 42, 53
1, 27359, Note_on_c, 9, 36, 0
1, 27359, Note_on_c, 9, 33, 0
1, 27359, Note_on_c, 9, 42, 0
1, 27360, Note_on_c, 9, 38, 88
1, 27360, Note_on_c, 9, 33, 44
1, 27360, Note_on_c, 9, 39, 90
1, 27360, Note_on_c, 9, 42, 73
1, 27479, Note_on_c, 9, 38, 0
1, 27479, Note_on_c, 9, 33, 0
1, 27479, Note_on_c, 9, 39, 0
1, 27479, Note_on_c, 9, 42, 0
1, 27480, Note_on_c, 9, 33, 42
1, 27599, Note_on_c, 9, 33, 0
1, 27600, Note_on_c, 9, 33, 36
1, 27600, Note_on_c, 9, 42, 57
1, 27719, Note_on_c, 9, 33, 0
1, 27719, Note_on_c, 9, 42, 0
1, 27720, Note_on_c, 9, 33, 47
1, 27839, Note_on_c, 9, 33, 0
1, 27840, Note_on_c, 9, 54, 74
1, 27840, Note_on_c, 9, 33, 58
1, 27840, Note_on_c, 9, 42, 65
1, 27840, Note_on_c, 9, 36, 110
1, 28079, Note_on_c, 9, 54, 0
1, 28079, Note_on_c, 9, 33, 0
1, 28079, Note_on_c, 9, 42, 0
1, 28080, Note_on_c, 9, 33, 55
1, 28080, Note_on_c, 9, 42, 61
1, 28319, Note_on_c, 9, 36, 0
1, 28319, Note_on_c, 9, 33, 0
1, 28319, Note_on_c, 9, 42, 0
1, 28320, Note_on_c, 9, 38, 80
1, 28320, Note_on_c, 9, 33, 42
1, 28320, Note_on_c, 9, 39, 94
1, 28320, Note_on_c, 9, 42, 69
1, 28439, Note_on_c, 9, 38, 0
1, 28439, Note_on_c, 9, 33, 0
1, 28439, Note_on_c, 9, 39, 0
1, 28439, Note_on_c, 9, 42, 0
1, 28440, Note_on_c, 9, 33, 36
1, 28559, Note_on_c, 9, 33, 0
1, 28560, Note_on_c, 9, 33, 36
1, 28560, Note_on_c, 9, 42, 49
1, 28679, Note_on_c, 9, 33, 0
1, 28679, Note_on_c, 9, 42, 0
1, 28680, Note_on_c, 9, 33, 47
1, 28799, Note_on_c, 9, 33, 0
1, 28800, Note_on_c, 9, 33, 44
1, 28800, Note_on_c, 9, 42, 77
1, 28800, Note_on_c, 9, 36, 102
1, 29039, Note_on_c, 9, 33, 0
1, 29039, Note_on_c, 9, 42, 0
1, 29040, Note_on_c, 9, 33, 56
1, 29040, Note_on_c, 9, 42, 61
1, 29279, Note_on_c, 9, 36, 0
1, 29279, Note_on_c, 9, 33, 0
1, 29279, Note_on_c, 9, 42, 0
1, 29280, Note_on_c, 9, 38, 84
1, 29280, Note_on_c, 9, 33, 44
1, 29280, Note_on_c, 9, 39, 94
1, 29280, Note_on_c, 9, 42, 65
1, 29399, Note_on_c, 9, 38, 0
1, 29399, Note_on_c, 9, 33, 0
1, 29399, Note_on_c, 9, 39, 0
1, 29399, Note_on_c, 9, 42, 0
1, 29400, Note_on_c, 9, 33, 42
1, 29519, Note_on_c, 9, 33, 0
1, 29520, Note_on_c, 9, 33, 36
1, 29520, Note_on_c, 9, 42, 57
1, 29520, Note_on_c, 9, 36, 94
1, 29639, Note_on_c, 9, 33, 0
1, 29639, Note_on_c, 9, 42, 0
1, 29640, Note_on_c, 9, 33, 47
1, 29759, Note_on_c, 9, 36, 0
1, 29759, Note_on_c, 9, 33, 0
1, 29760, Note_on_c, 9, 54, 74
1, 29760, Note_on_c, 9, 33, 58
1, 29760, Note_on_c, 9, 42, 65
1, 29760, Note_on_c, 9, 36, 102
1, 29999, Note_on_c, 9, 54, 0
1, 29999, Note_on_c, 9, 33, 0
1, 29999, Note_on_c, 9, 42, 0
1, 30000, Note_on_c, 9, 33, 55
1, 30000, Note_on_c, 9, 42, 57
1, 30239, Note_on_c, 9, 36, 0
1, 30239, Note_on_c, 9, 33, 0
1, 30239, Note_on_c, 9, 42, 0
1, 30240, Note_on_c, 9, 38, 88
1, 30240, Note_on_c, 9, 33, 42
1, 30240, Note_on_c, 9, 39, 90
1, 30240, Note_on_c, 9, 42, 73
1, 30359, Note_on_c, 9, 38, 0
1, 30359, Note_on_c, 9, 33, 0
1, 30359, Note_on_c, 9, 39, 0
1, 30359, Note_on_c, 9, 42, 0
1, 30360, Note_on_c, 9, 33, 36
1, 30479, Note_on_c, 9, 33, 0
1, 30480, Note_on_c, 9, 33, 36
1, 30480, Note_on_c, 9, 42, 57
1, 30599, Note_on_c, 9, 33, 0
1, 30599, Note_on_c, 9, 42, 0
1, 30600, Note_on_c, 9, 33, 47
1, 30719, Note_on_c, 9, 33, 0
1, 30720, Note_on_c, 9, 33, 44
1, 30720, Note_on_c, 9, 42, 69
1, 30720, Note_on_c, 9, 36, 106
1, 30959, Note_on_c, 9, 33, 0
1, 30959, Note_on_c, 9, 42, 0
1, 30960, Note_on_c, 9, 33, 56
1, 30960, Note_on_c, 9, 42, 57
1, 31199, Note_on_c, 9, 36, 0
1, 31199, Note_on_c, 9, 33, 0
1, 31199, Note_on_c, 9, 42, 0
1, 31200, Note_on_c, 9, 38, 84
1, 31200, Note_on_c, 9, 33, 44
1, 31200, Note_on_c, 9, 39, 90
1, 31200, Note_on_c, 9, 42, 69
1, 31319, Note_on_c, 9, 38, 0
1, 31319, Note_on_c, 9, 33, 0
1, 31319, Note_on_c, 9, 39, 0
1, 31319, Note_on_c, 9, 42, 0
1, 31320, Note_on_c, 9, 33, 42
1, 31439, Note_on_c, 9, 33, 0
1, 31440, Note_on_c, 9, 33, 36
1, 31440, Note_on_c, 9, 42, 61
1, 31559, Note_on_c, 9, 33, 0
1, 31559, Note_on_c, 9, 42, 0
1, 31560, Note_on_c, 9, 33, 47
1, 31679, Note_on_c, 9, 33, 0
1, 31680, Note_on_c, 9, 54, 74
1, 31680, Note_on_c, 9, 33, 58
1, 31680, Note_on_c, 9, 42, 65
1, 31680, Note_on_c, 9, 36, 106
1, 31919, Note_on_c, 9, 54, 0
1, 31919, Note_on_c, 9, 33, 0
1, 31919, Note_on_c, 9, 42, 0
1, 31920, Note_on_c, 9, 33, 55
1, 31920, Note_on_c, 9, 42, 61
1, 32159, Note_on_c, 9, 36, 0
1, 32159, Note_on_c, 9, 33, 0
1, 32159, Note_on_c, 9, 42, 0
1, 32160, Note_on_c, 9, 38, 88
1, 32160, Note_on_c, 9, 33, 42
1, 32160, Note_on_c, 9, 39, 90
1, 32160, Note_on_c, 9, 42, 69
1, 32279, Note_on_c, 9, 38, 0
1, 32279, Note_on_c, 9, 33, 0
1, 32279, Note_on_c, 9, 39, 0
1, 32279, Note_on_c, 9, 42, 0
1, 32280, Note_on_c, 9, 33, 36
1, 32399, Note_on_c, 9, 33, 0
1, 32400, Note_on_c, 9, 33, 36
1, 32400, Note_on_c, 9, 42, 61
1, 32519, Note_on_c, 9, 33, 0
1, 32519, Note_on_c, 9, 42, 0
1, 32520, Note_on_c, 9, 33, 47
1, 32639, Note_on_c, 9, 33, 0
1, 32640, Note_on_c, 9, 33, 44
1, 32640, Note_on_c, 9, 42, 61
1, 32640, Note_on_c, 9, 36, 106
1, 32879, Note_on_c, 9, 33, 0
1, 32879, Note_on_c, 9, 42, 0
1, 32880, Note_on_c, 9, 33, 56
1, 32880, Note_on_c, 9, 42, 61
1, 33119, Note_on_c, 9, 36, 0
1, 33119, Note_on_c, 9, 33, 0
1, 33119, Note_on_c, 9, 42, 0
1, 33120, Note_on_c, 9, 38, 88
1, 33120, Note_on_c, 9, 33, 44
1, 33120, Note_on_c, 9, 39, 94
1, 33120, Note_on_c, 9, 42, 65
1, 33239, Note_on_c, 9, 38, 0
1, 33239, Note_on_c, 9, 33, 0
1, 33239, Note_on_c, 9, 39, 0
1, 33239, Note_on_c, 9, 42, 0
1, 33240, Note_on_c, 9, 33, 42
1, 33359, Note_on_c, 9, 33, 0
1, 33360, Note_on_c, 9, 33, 36
1, 33360, Note_on_c, 9, 42, 53
1, 33360, Note_on_c, 9, 36, 94
1, 33479, Note_on_c, 9, 33, 0
1, 33479, Note_on_c, 9, 42, 0
1, 33480, Note_on_c, 9, 33, 47
1, 33599, Note_on_c, 9, 36, 0
1, 33599, Note_on_c, 9, 33, 0
1, 33600, Note_on_c, 9, 54, 74
1, 33600, Note_on_c, 9, 33, 58
1, 33600, Note_on_c, 9, 42, 61
1, 33600, Note_on_c, 9, 36, 114
1, 33839, Note_on_c, 9, 54, 0
1, 33839, Note_on_c, 9, 33, 0
1, 33839, Note_on_c, 9, 42, 0
1, 33840, Note_on_c, 9, 38, 84
1, 33840, Note_on_c, 9, 33, 55
1, 33840, Note_on_c, 9, 42, 97
1, 33959, Note_on_c, 9, 38, 0
1, 33959, Note_on_c, 9, 33, 0
1, 33959, Note_on_c, 9, 42, 0
1, 33960, Note_on_c, 9, 38, 64
1, 33960, Note_on_c, 9, 42, 77
1, 34079, Note_on_c, 9, 36, 0
1, 34079, Note_on_c, 9, 38, 0
1, 34079, Note_on_c, 9, 42, 0
1, 34080, Note_on_c, 9, 33, 42
1, 34080, Note_on_c, 9, 39, 90
1, 34199, Note_on_c, 9, 33, 0
1, 34199, Note_on_c, 9, 39, 0
1, 34200, Note_on_c, 9, 33, 36
1, 34319, Note_on_c, 9, 33, 0
1, 34320, Note_on_c, 9, 38, 80
1, 34320, Note_on_c, 9, 46, 53
1, 34320, Note_on_c, 9, 33, 36
1, 34439, Note_on_c, 9, 38, 0
1, 34439, Note_on_c, 9, 46, 0
1, 34439, Note_on_c, 9, 33, 0
1, 34440, Note_on_c, 9, 33, 47
1, 34559, Note_on_c, 9, 33, 0
1, 34560, Note_on_c, 9, 33, 44
1, 34560, Note_on_c, 9, 42, 73
1, 34560, Note_on_c, 9, 36, 114
1, 34799, Note_on_c, 9, 33, 0
1, 34799, Note_on_c, 9, 42, 0
1, 34800, Note_on_c, 9, 33, 56
1, 34800, Note_on_c, 9, 42, 69
1, 35039, Note_on_c, 9, 36, 0
1, 35039, Note_on_c, 9, 33, 0
1, 35039, Note_on_c, 9, 42, 0
1, 35040, Note_on_c, 9, 38, 92
1, 35040, Note_on_c, 9, 33, 44
1, 35040, Note_on_c, 9, 39, 90
1, 35040, Note_on_c, 9, 42, 69
1, 35159, Note_on_c, 9, 38, 0
1, 35159, Note_on_c, 9, 33, 0
1, 35159, Note_on_c, 9, 39, 0
1, 35159, Note_on_c, 9, 42, 0
1, 35160, Note_on_c, 9, 33, 42
1, 35279, Note_on_c, 9, 33, 0
1, 35280, Note_on_c, 9, 33, 36
1, 35280, Note_on_c, 9, 42, 57
1, 35399, Note_on_c, 9, 33, 0
1, 35399, Note_on_c, 9, 42, 0
1, 35400, Note_on_c, 9, 33, 47
1, 35519, Note_on_c, 9, 33, 0
1, 35520, Note_on_c, 9, 54, 74
1, 35520, Note_on_c, 9, 33, 58
1, 35520, Note_on_c, 9, 42, 65
1, 35520, Note_on_c, 9, 36, 110
1, 35759, Note_on_c, 9, 54, 0
1, 35759, Note_on_c, 9, 33, 0
1, 35759, Note_on_c, 9, 42, 0
1, 35760, Note_on_c, 9, 33, 55
1, 35760, Note_on_c, 9, 42, 61
1, 35999, Note_on_c, 9, 36, 0
1, 35999, Note_on_c, 9, 33, 0
1, 35999, Note_on_c, 9, 42, 0
1, 36000, Note_on_c, 9, 38, 88
1, 36000, Note_on_c, 9, 33, 42
1, 36000, Note_on_c, 9, 39, 94
1, 36000, Note_on_c, 9, 42, 65
1, 36119, Note_on_c, 9, 38, 0
1, 36119, Note_on_c, 9, 33, 0
1, 36119, Note_on_c, 9, 39, 0
1, 36119, Note_on_c, 9, 42, 0
1, 36120, Note_on_c, 9, 33, 36
1, 36239, Note_on_c, 9, 33, 0
1, 36240, Note_on_c, 9, 33, 36
1, 36240, Note_on_c, 9, 42, 61
1, 36359, Note_on_c, 9, 33, 0
1, 36359, Note_on_c, 9, 42, 0
1, 36360, Note_on_c, 9, 33, 47
1, 36479, Note_on_c, 9, 33, 0
1, 36480, Note_on_c, 9, 33, 44
1, 36480, Note_on_c, 9, 42, 65
1, 36480, Note_on_c, 9, 36, 102
1, 36719, Note_on_c, 9, 33, 0
1, 36719, Note_on_c, 9, 42, 0
1, 36720, Note_on_c, 9, 33, 56
1, 36720, Note_on_c, 9, 42, 65
1, 36959, Note_on_c, 9, 36, 0
1, 36959, Note_on_c, 9, 33, 0
1, 36959, Note_on_c, 9, 42, 0
1, 36960, Note_on_c, 9, 38, 92
1, 36960, Note_on_c, 9, 33, 44
1, 36960, Note_on_c, 9, 39, 94
1, 36960, Note_on_c, 9, 42, 65
1, 37079, Note_on_c, 9, 38, 0
1, 37079, Note_on_c, 9, 33, 0
1, 37079, Note_on_c, 9, 39, 0
1, 37079, Note_on_c, 9, 42, 0
1, 37080, Note_on_c, 9, 33, 42
1, 37199, Note_on_c, 9, 33, 0
1, 37200, Note_on_c, 9, 33, 36
1, 37200, Note_on_c, 9, 42, 61
1, 37200, Note_on_c, 9, 36, 94
1, 37319, Note_on_c, 9, 33, 0
1, 37319, Note_on_c, 9, 42, 0
1, 37320, Note_on_c, 9, 33, 47
1, 37439, Note_on_c, 9, 36, 0
1, 37439, Note_on_c, 9, 33, 0
1, 37440, Note_on_c, 9, 54, 74
1, 37440, Note_on_c, 9, 33, 58
1, 37440, Note_on_c, 9, 42, 65
1, 37440, Note_on_c, 9, 36, 102
1, 37679, Note_on_c, 9, 54, 0
1, 37679, Note_on_c, 9, 33, 0
1, 37679, Note_on_c, 9, 42, 0
1, 37680, Note_on_c, 9, 33, 55
1, 37680, Note_on_c, 9, 42, 61
1, 37919, Note_on_c, 9, 36, 0
1, 37919, Note_on_c, 9, 33, 0
1, 37919, Note_on_c, 9, 42, 0
1, 37920, Note_on_c, 9, 38, 92
1, 37920, Note_on_c, 9, 33, 42
1, 37920, Note_on_c, 9, 39, 90
1, 37920, Note_on_c, 9, 42, 65
1, 38039, Note_on_c, 9, 38, 0
1, 38039, Note_on_c, 9, 33, 0
1, 38039, Note_on_c, 9, 39, 0
1, 38039, Note_on_c, 9, 42, 0
1, 38040, Note_on_c, 9, 33, 36
1, 38159, Note_on_c, 9, 33, 0
1, 38160, Note_on_c, 9, 33, 36
1, 38160, Note_on_c, 9, 42, 65
1, 38279, Note_on_c, 9, 33, 0
1, 38279, Note_on_c, 9, 42, 0
1, 38280, Note_on_c, 9, 33, 47
1, 38399, Note_on_c, 9, 33, 0
1, 38400, Note_on_c, 9, 33, 44
1, 38400, Note_on_c, 9, 42, 69
1, 38400, Note_on_c, 9, 36, 106
1, 38639, Note_on_c, 9, 33, 0
1, 38639, Note_on_c, 9, 42, 0
1, 38640, Note_on_c, 9, 33, 56
1, 38640, Note_on_c, 9, 42, 61
1, 38879, Note_on_c, 9, 36, 0
1, 38879, Note_on_c, 9, 33, 0
1, 38879, Note_on_c, 9, 42, 0
1, 38880, Note_on_c, 9, 38, 84
1, 38880, Note_on_c, 9, 33, 44
1, 38880, Note_on_c, 9, 39, 90
1, 38880, Note_on_c, 9, 42, 65
1, 38999, Note_on_c, 9, 38, 0
1, 38999, Note_on_c, 9, 33, 0
1, 38999, Note_on_c, 9, 39, 0
1, 38999, Note_on_c, 9, 42, 0
1, 39000, Note_on_c, 9, 33, 42
1, 39119, Note_on_c, 9, 33, 0
1, 39120, Note_on_c, 9, 33, 36
1, 39120, Note_on_c, 9, 42, 69
1, 39239, Note_on_c, 9, 33, 0
1, 39239, Note_on_c, 9, 42, 0
1, 39240, Note_on_c, 9, 33, 47
1, 39359, Note_on_c, 9, 33, 0
1, 39360, Note_on_c, 9, 54, 74
1, 39360, Note_on_c, 9, 33, 58
1, 39360, Note_on_c, 9, 42, 65
1, 39360, Note_on_c, 9, 36, 106
1, 39599, Note_on_c, 9, 54, 0
1, 39599, Note_on_c, 9, 33, 0
1, 39599, Note_on_c, 9, 42, 0
1, 39600, Note_on_c, 9, 33, 55
1, 39600, Note_on_c, 9, 42, 65
1, 39839, Note_on_c, 9, 36, 0
1, 39839, Note_on_c, 9, 33, 0
1, 39839, Note_on_c, 9, 42, 0
1, 39840, Note_on_c, 9, 38, 88
1, 39840, Note_on_c, 9, 33, 42
1, 39840, Note_on_c, 9, 39, 90
1, 39840, Note_on_c, 9, 42, 65
1, 39959, Note_on_c, 9, 38, 0
1, 39959, Note_on_c, 9, 33, 0
1, 39959, Note_on_c, 9, 39, 0
1, 39959, Note_on_c, 9, 42, 0
1, 39960, Note_on_c, 9, 33, 36
1, 40079, Note_on_c, 9, 33, 0
1, 40080, Note_on_c, 9, 33, 36
1, 40080, Note_on_c, 9, 42, 65
1, 40199, Note_on_c, 9, 33, 0
1, 40199, Note_on_c, 9, 42, 0
1, 40200, Note_on_c, 9, 33, 47
1, 40319, Note_on_c, 9, 33, 0
1, 40320, Note_on_c, 9, 33, 44
1, 40320, Note_on_c, 9, 42, 69
1, 40320, Note_on_c, 9, 36, 106
1, 40559, Note_on_c, 9, 33, 0
1, 40559, Note_on_c, 9, 42, 0
1, 40560, Note_on_c, 9, 33, 56
1, 40560, Note_on_c, 9, 42, 61
1, 40799, Note_on_c, 9, 36, 0
1, 40799, Note_on_c, 9, 33, 0
1, 40799, Note_on_c, 9, 42, 0
1, 40800, Note_on_c, 9, 38, 84
1, 40800, Note_on_c, 9, 33, 44
1, 40800, Note_on_c, 9, 39, 94
1, 40800, Note_on_c, 9, 42, 73
1, 40919, Note_on_c, 9, 38, 0
1, 40919, Note_on_c, 9, 33, 0
1, 40919, Note_on_c, 9, 39, 0
1, 40919, Note_on_c, 9, 42, 0
1, 40920, Note_on_c, 9, 33, 42
1, 41039, Note_on_c, 9, 33, 0
1, 41040, Note_on_c, 9, 33, 36
1, 41040, Note_on_c, 9, 42, 49
1, 41040, Note_on_c, 9, 36, 94
1, 41159, Note_on_c, 9, 33, 0
1, 41159, Note_on_c, 9, 42, 0
1, 41160, Note_on_c, 9, 33, 47
1, 41279, Note_on_c, 9, 36, 0
1, 41279, Note_on_c, 9, 33, 0
1, 41280, Note_on_c, 9, 54, 74
1, 41280, Note_on_c, 9, 33, 58
1, 41280, Note_on_c, 9, 42, 61
1, 41280, Note_on_c, 9, 36, 114
1, 41519, Note_on_c, 9, 54, 0
1, 41519, Note_on_c, 9, 33, 0
1, 41519, Note_on_c, 9, 42, 0
1, 41520, Note_on_c, 9, 33, 55
1, 41520, Note_on_c, 9, 42, 57
1, 41759, Note_on_c, 9, 36, 0
1, 41759, Note_on_c, 9, 33, 0
1, 41759, Note_on_c, 9, 42, 0
1, 41760, Note_on_c, 9, 38, 88
1, 41760, Note_on_c, 9, 33, 42
1, 41760, Note_on_c, 9, 39, 90
1, 41760, Note_on_c, 9, 42, 69
1, 41879, Note_on_c, 9, 38, 0
1, 41879, Note_on_c, 9, 33, 0
1, 41879, Note_on_c, 9, 39, 0
1, 41879, Note_on_c, 9, 42, 0
1, 41880, Note_on_c, 9, 33, 36
1, 41999, Note_on_c, 9, 33, 0
1, 42000, Note_on_c, 9, 33, 36
1, 42000, Note_on_c, 9, 42, 57
1, 42119, Note_on_c, 9, 33, 0
1, 42119, Note_on_c, 9, 42, 0
1, 42120, Note_on_c, 9, 33, 47
1, 42239, Note_on_c, 9, 33, 0
1, 42240, Note_on_c, 9, 33, 44
1, 42240, Note_on_c, 9, 42, 73
1, 42240, Note_on_c, 9, 36, 114
1, 42479, Note_on_c, 9, 33, 0
1, 42479, Note_on_c, 9, 42, 0
1, 42480, Note_on_c, 9, 33, 56
1, 42480, Note_on_c, 9, 42, 53
1, 42719, Note_on_c, 9, 36, 0
1, 42719, Note_on_c, 9, 33, 0
1, 42719, Note_on_c, 9, 42, 0
1, 42720, Note_on_c, 9, 38, 88
1, 42720, Note_on_c, 9, 33, 44
1, 42720, Note_on_c, 9, 39, 90
1, 42720, Note_on_c, 9, 42, 73
1, 42839, Note_on_c, 9, 38, 0
1, 42839, Note_on_c, 9, 33, 0
1, 42839, Note_on_c, 9, 39, 0
1, 42839, Note_on_c, 9, 42, 0
1, 42840, Note_on_c, 9, 33, 42
1, 42959, Note_on_c, 9, 33, 0
1, 42960, Note_on_c, 9, 33, 36
1, 42960, Note_on_c, 9, 42, 57
1, 43079, Note_on_c, 9, 33, 0
1, 43079, Note_on_c, 9, 42, 0
1, 43080, Note_on_c, 9, 33, 47
1, 43199, Note_on_c, 9, 33, 0
1, 43200, Note_on_c, 9, 54, 74
1, 43200, Note_on_c, 9, 33, 58
1, 43200, Note_on_c, 9, 42, 65
1, 43200, Note_on_c, 9, 36, 110
1, 43439, Note_on_c, 9, 54, 0
1, 43439, Note_on_c, 9, 33, 0
1, 43439, Note_on_c, 9, 42, 0
1, 43440, Note_on_c, 9, 33, 55
1, 43440, Note_on_c, 9, 42, 61
1, 43679, Note_on_c, 9, 36, 0
1, 43679, Note_on_c, 9, 33, 0
1, 43679, Note_on_c, 9, 42, 0
1, 43680, Note_on_c, 9, 38, 80
1, 43680, Note_on_c, 9, 33, 42
1, 43680, Note_on_c, 9, 39, 94
1, 43680, Note_on_c, 9, 42, 69
1, 43799, Note_on_c, 9, 38, 0
1, 43799, Note_on_c, 9, 33, 0
1, 43799, Note_on_c, 9, 39, 0
1, 43799, Note_on_c, 9, 42, 0
1, 43800, Note_on_c, 9, 33, 36
1, 43919, Note_on_c, 9, 33, 0
1, 43920, Note_on_c, 9, 33, 36
1, 43920, Note_on_c, 9, 42, 49
1, 44039, Note_on_c, 9, 33, 0
1, 44039, Note_on_c, 9, 42, 0
1, 44040, Note_on_c, 9, 33, 47
1, 44159, Note_on_c, 9, 33, 0
1, 44160, Note_on_c, 9, 33, 44
1, 44160, Note_on_c, 9, 42, 77
1, 44160, Note_on_c, 9, 36, 102
1, 44399, Note_on_c, 9, 33, 0
1, 44399, Note_on_c, 9, 42, 0
1, 44400, Note_on_c, 9, 33, 56
1, 44400, Note_on_c, 9, 42, 61
1, 44639, Note_on_c, 9, 36, 0
1, 44639, Note_on_c, 9, 33, 0
1, 44639, Note_on_c, 9, 42, 0
1, 44640, Note_on_c, 9, 38, 84
1, 44640, Note_on_c, 9, 33, 44
1, 44640, Note_on_c, 9, 39, 94
1, 44640, Note_on_c, 9, 42, 65
1, 44759, Note_on_c, 9, 38, 0
1, 44759, Note_on_c, 9, 33, 0
1, 44759, Note_on_c, 9, 39, 0
1, 44759, Note_on_c, 9, 42, 0
1, 44760, Note_on_c, 9, 33, 42
1, 44879, Note_on_c, 9, 33, 0
1, 44880, Note_on_c, 9, 33, 36
1, 44880, Note_on_c, 9, 42, 57
1, 44880, Note_on_c, 9, 36, 94
1, 44999, Note_on_c, 9, 33, 0
1, 44999, Note_on_c, 9, 42, 0
1, 45000, Note_on_c, 9, 33, 47
1, 45119, Note_on_c, 9, 36, 0
1, 45119, Note_on_c, 9, 33, 0
1, 45120, Note_on_c, 9, 54, 74
1, 45120, Note_on_c, 9, 33, 58
1, 45120, Note_on_c, 9, 42, 65
1, 45120, Note_on_c, 9, 36, 102
1, 45359, Note_on_c, 9, 54, 0
1, 45359, Note_on_c, 9, 33, 0
1, 45359, Note_on_c, 9, 42, 0
1, 45360, Note_on_c, 9, 33, 55
1, 45360, Note_on_c, 9, 42, 57
1, 45599, Note_on_c, 9, 36, 0
1, 45599, Note_on_c, 9, 33, 0
1, 45599, Note_on_c, 9, 42, 0
1, 45600, Note_on_c, 9, 38, 88
1, 45600, Note_on_c, 9, 33, 42
1, 45600, Note_on_c, 9, 39, 90
1, 45600, Note_on_c, 9, 42, 73
1, 45719, Note_on_c, 9, 38, 0
1, 45719, Note_on_c, 9, 33, 0
1, 45719, Note_on_c, 9, 39, 0
1, 45719, Note_on_c, 9, 42, 0
1, 45720, Note_on_c, 9, 33, 36
1, 45839, Note_on_c, 9, 33, 0
1, 45840, Note_on_c, 9, 33, 36
1, 45840, Note_on_c, 9, 42, 57
1, 45959, Note_on_c, 9, 33, 0
1, 45959, Note_on_c, 9, 42, 0
1, 45960, Note_on_c, 9, 33, 47
1, 46079, Note_on_c, 9, 33, 0
1, 46080, Note_on_c, 9, 33, 44
1, 46080, Note_on_c, 9, 42, 69
1, 46080, Note_on_c, 9, 36, 106
1, 46319, Note_on_c, 9, 33, 0
1, 46319, Note_on_c, 9, 42, 0
1, 46320, Note_on_c, 9, 33, 56
1, 46320, Note_on_c, 9, 42, 57
1, 46559, Note_on_c, 9, 36, 0
1, 46559, Note_on_c, 9, 33, 0
1, 46559, Note_on_c, 9, 42, 0
1, 46560, Note_on_c, 9, 38, 84
1, 46560, Note_on_c, 9, 33, 44
1, 46560, Note_on_c, 9, 39, 90
1, 46560, Note_on_c, 9, 42, 69
1, 46679, Note_on_c, 9, 38, 0
1, 46679, Note_on_c, 9, 33, 0
1, 46679, Note_on_c, 9, 39, 0
1, 46679, Note_on_c, 9, 42, 0
1, 46680, Note_on_c, 9, 33, 42
1, 46799, Note_on_c, 9, 33, 0
1, 46800, Note_on_c, 9, 33, 36
1, 46800, Note_on_c, 9, 42, 61
1, 46919, Note_on_c, 9, 33, 0
1, 46919, Note_on_c, 9, 42, 0
1, 46920, Note_on_c, 9, 33, 47
1, 47039, Note_on_c, 9, 33, 0
1, 47040, Note_on_c, 9, 54, 74
1, 47040, Note_on_c, 9, 33, 58
1, 47040, Note_on_c, 9, 42, 65
1, 47040, Note_on_c, 9, 36, 106
1, 47279, Note_on_c, 9, 54, 0
1, 47279, Note_on_c, 9, 33, 0
1, 47279, Note_on_c, 9, 42, 0
1, 47280, Note_on_c, 9, 33, 55
1, 47280, Note_on_c, 9, 42, 61
1, 47519, Note_on_c, 9, 36, 0
1, 47519, Note_on_c, 9, 33, 0
1, 47519, Note_on_c, 9, 42, 0
1, 47520, Note_on_c, 9, 38, 88
1, 47520, Note_on_c, 9, 33, 42
1, 47520, Note_on_c, 9, 39, 90
1, 47520, Note_on_c, 9, 42, 69
1, 47639, Note_on_c, 9, 38, 0
1, 47639, Note_on_c, 9, 33, 0
1, 47639, Note_on_c, 9, 39, 0
1, 47639, Note_on_c, 9, 42, 0
1, 47640, Note_on_c, 9, 33, 36
1, 47759, Note_on_c, 9, 33, 0
1, 47760, Note_on_c, 9, 33, 36
1, 47760, Note_on_c, 9, 42, 61
1, 47879, Note_on_c, 9, 33, 0
1, 47879, Note_on_c, 9, 42, 0
1, 47880, Note_on_c, 9, 33, 47
1, 47999, Note_on_c, 9, 33, 0
1, 48000, Note_on_c, 9, 33, 44
1, 48000, Note_on_c, 9, 42, 61
1, 48000, Note_on_c, 9, 36, 106
1, 48239, Note_on_c, 9, 33, 0
1, 48239, Note_on_c, 9, 42, 0
1, 48240, Note_on_c, 9, 33, 56
1, 48240, Note_on_c, 9, 42, 61
1, 48479, Note_on_c, 9, 36, 0
1, 48479, Note_on_c, 9, 33, 0
1, 48479, Note_on_c, 9, 42, 0
1, 48480, Note_on_c, 9, 38, 82
1, 48480, Note_on_c, 9, 33, 44
1, 48480, Note_on_c, 9, 39, 94
1, 48480, Note_on_c, 9, 42, 65
1, 48599, Note_on_c, 9, 38, 0
1, 48599, Note_on_c, 9, 33, 0
1, 48599, Note_on_c, 9, 39, 0
1, 48599, Note_on_c, 9, 42, 0
1, 48600, Note_on_c, 9, 33, 42
1, 48719, Note_on_c, 9, 33, 0
1, 48720, Note_on_c, 9, 33, 36
1, 48720, Note_on_c, 9, 42, 53
1, 48720, Note_on_c, 9, 36, 94
1, 48779, Note_on_c, 9, 33, 0
1, 48779, Note_on_c, 9, 42, 0
1, 48780, Note_on_c, 9, 38, 23
1, 48839, Note_on_c, 9, 38, 0
1, 48840, Note_on_c, 9, 38, 44
1, 48840, Note_on_c, 9, 33, 47
1, 48959, Note_on_c, 9, 36, 0
1, 48959, Note_on_c, 9, 38, 0
1, 48959, Note_on_c, 9, 33, 0
1, 48960, Note_on_c, 9, 38, 55
1, 48960, Note_on_c, 9, 54, 74
1, 48960, Note_on_c, 9, 33, 58
1, 48960, Note_on_c, 9, 42, 61
1, 48960, Note_on_c, 9, 36, 114
1, 49199, Note_on_c, 9, 38, 0
1, 49199, Note_on_c, 9, 54, 0
1, 49199, Note_on_c, 9, 33, 0
1, 49199, Note_on_c, 9, 42, 0
1, 49200, Note_on_c, 9, 38, 96
1, 49200, Note_on_c, 9, 33, 55
1, 49200, Note_on_c, 9, 42, 97
1, 49319, Note_on_c, 9, 38, 0
1, 49319, Note_on_c, 9, 33, 0
1, 49319, Note_on_c, 9, 42, 0
1, 49320, Note_on_c, 9, 42, 77
1, 49439, Note_on_c, 9, 36, 0
1, 49439, Note_on_c, 9, 42, 0
1, 49440, Note_on_c, 9, 38, 82
1, 49440, Note_on_c, 9, 33, 42
1, 49440, Note_on_c, 9, 39, 90
1, 49559, Note_on_c, 9, 38, 0
1, 49559, Note_on_c, 9, 33, 0
1, 49559, Note_on_c, 9, 39, 0
1, 49560, Note_on_c, 9, 38, 70
1, 49560, Note_on_c, 9, 33, 36
1, 49679, Note_on_c, 9, 38, 0
1, 49679, Note_on_c, 9, 33, 0
1, 49680, Note_on_c, 9, 46, 53
1, 49680, Note_on_c, 9, 33, 36
1, 49680, Note_on_c, 9, 43, 67
1, 49799, Note_on_c, 9, 46, 0
1, 49799, Note_on_c, 9, 33, 0
1, 49800, Note_on_c, 9, 33, 47
1, 49919, Note_on_c, 9, 43, 0
1, 49919, Note_on_c, 9, 33, 0
1, 49920, Note_on_c, 9, 42, 73
1, 49920, Note_on_c, 9, 49, 44
1, 49920, Note_on_c, 9, 36, 114
1, 50159, Note_on_c, 9, 42, 0
1, 50159, Note_on_c, 9, 49, 0
1, 50160, Note_on_c, 9, 42, 69
1, 50399, Note_on_c, 9, 36, 0
1, 50399, Note_on_c, 9, 42, 0
1, 50400, Note_on_c, 9, 38, 99
1, 50400, Note_on_c, 9, 39, 80
1, 50400, Note_on_c, 9, 42, 69
1, 50639, Note_on_c, 9, 38, 0
1, 50639, Note_on_c, 9, 39, 0
1, 50639, Note_on_c, 9, 42, 0
1, 50640, Note_on_c, 9, 42, 57
1, 50879, Note_on_c, 9, 42, 0
1, 50880, Note_on_c, 9, 54, 74
1, 50880, Note_on_c, 9, 42, 65
1, 50880, Note_on_c, 9, 36, 110
1, 51119, Note_on_c, 9, 54, 0
1, 51119, Note_on_c, 9, 42, 0
1, 51120, Note_on_c, 9, 42, 61
1, 51359, Note_on_c, 9, 36, 0
1, 51359, Note_on_c, 9, 42, 0
1, 51360, Note_on_c, 9, 38, 95
1, 51360, Note_on_c, 9, 39, 84
1, 51360, Note_on_c, 9, 42, 65
1, 51599, Note_on_c, 9, 38, 0
1, 51599, Note_on_c, 9, 39, 0
1, 51599, Note_on_c, 9, 42, 0
1, 51600, Note_on_c, 9, 42, 61
1, 51839, Note_on_c, 9, 42, 0
1, 51840, Note_on_c, 9, 42, 65
1, 51840, Note_on_c, 9, 36, 102
1, 52079, Note_on_c, 9, 42, 0
1, 52080, Note_on_c, 9, 42, 65
1, 52319, Note_on_c, 9, 36, 0
1, 52319, Note_on_c, 9, 42, 0
1, 52320, Note_on_c, 9, 38, 99
1, 52320, Note_on_c, 9, 39, 84
1, 52320, Note_on_c, 9, 42, 65
1, 52559, Note_on_c, 9, 38, 0
1, 52559, Note_on_c, 9, 39, 0
1, 52559, Note_on_c, 9, 42, 0
1, 52560, Note_on_c, 9, 42, 61
1, 52560, Note_on_c, 9, 36, 94
1, 52799, Note_on_c, 9, 42, 0
1, 52799, Note_on_c, 9, 36, 0
1, 52800, Note_on_c, 9, 54, 74
1, 52800, Note_on_c, 9, 42, 65
1, 52800, Note_on_c, 9, 36, 102
1, 53039, Note_on_c, 9, 54, 0
1, 53039, Note_on_c, 9, 42, 0
1, 53040, Note_on_c, 9, 42, 61
1, 53279, Note_on_c, 9, 36, 0
1, 53279, Note_on_c, 9, 42, 0
1, 53280, Note_on_c, 9, 38, 99
1, 53280, Note_on_c, 9, 39, 80
1, 53280, Note_on_c, 9, 42, 65
1, 53519, Note_on_c, 9, 38, 0
1, 53519, Note_on_c, 9, 39, 0
1, 53519, Note_on_c, 9, 42, 0
1, 53520, Note_on_c, 9, 42, 65
1, 53759, Note_on_c, 9, 42, 0
1, 53760, Note_on_c, 9, 42, 69
1, 53760, Note_on_c, 9, 36, 106
1, 53999, Note_on_c, 9, 42, 0
1, 54000, Note_on_c, 9, 42, 61
1, 54239, Note_on_c, 9, 36, 0
1, 54239, Note_on_c, 9, 42, 0
1, 54240, Note_on_c, 9, 38, 91
1, 54240, Note_on_c, 9, 39, 80
1, 54240, Note_on_c, 9, 42, 65
1, 54479, Note_on_c, 9, 38, 0
1, 54479, Note_on_c, 9, 39, 0
1, 54479, Note_on_c, 9, 42, 0
1, 54480, Note_on_c, 9, 42, 69
1, 54719, Note_on_c, 9, 42, 0
1, 54720, Note_on_c, 9, 54, 74
1, 54720, Note_on_c, 9, 42, 65
1, 54720, Note_on_c, 9, 36, 106
1, 54959, Note_on_c, 9, 54, 0
1, 54959, Note_on_c, 9, 42, 0
1, 54960, Note_on_c, 9, 42, 65
1, 55199, Note_on_c, 9, 36, 0
1, 55199, Note_on_c, 9, 42, 0
1, 55200, Note_on_c, 9, 38, 95
1, 55200, Note_on_c, 9, 39, 80
1, 55200, Note_on_c, 9, 42, 65
1, 55439, Note_on_c, 9, 38, 0
1, 55439, Note_on_c, 9, 39, 0
1, 55439, Note_on_c, 9, 42, 0
1, 55440, Note_on_c, 9, 42, 65
1, 55679, Note_on_c, 9, 42, 0
1, 55680, Note_on_c, 9, 42, 69
1, 55680, Note_on_c, 9, 36, 106
1, 55919, Note_on_c, 9, 42, 0
1, 55920, Note_on_c, 9, 42, 61
1, 56159, Note_on_c, 9, 36, 0
1, 56159, Note_on_c, 9, 42, 0
1, 56160, Note_on_c, 9, 38, 91
1, 56160, Note_on_c, 9, 39, 84
1, 56160, Note_on_c, 9, 42, 73
1, 56399, Note_on_c, 9, 38, 0
1, 56399, Note_on_c, 9, 39, 0
1, 56399, Note_on_c, 9, 42, 0
1, 56400, Note_on_c, 9, 42, 49
1, 56400, Note_on_c, 9, 36, 94
1, 56639, Note_on_c, 9, 42, 0
1, 56639, Note_on_c, 9, 36, 0
1, 56640, Note_on_c, 9, 54, 74
1, 56640, Note_on_c, 9, 42, 61
1, 56640, Note_on_c, 9, 36, 114
1, 56879, Note_on_c, 9, 54, 0
1, 56879, Note_on_c, 9, 42, 0
1, 56880, Note_on_c, 9, 42, 57
1, 57119, Note_on_c, 9, 36, 0
1, 57119, Note_on_c, 9, 42, 0
1, 57120, Note_on_c, 9, 38, 95
1, 57120, Note_on_c, 9, 39, 80
1, 57120, Note_on_c, 9, 42, 69
1, 57359, Note_on_c, 9, 38, 0
1, 57359, Note_on_c, 9, 39, 0
1, 57359, Note_on_c, 9, 42, 0
1, 57360, Note_on_c, 9, 42, 57
1, 57599, Note_on_c, 9, 42, 0
1, 57600, Note_on_c, 9, 42, 73
1, 57600, Note_on_c, 9, 36, 114
1, 57839, Note_on_c, 9, 42, 0
1, 57840, Note_on_c, 9, 42, 53
1, 58079, Note_on_c, 9, 36, 0
1, 58079, Note_on_c, 9, 42, 0
1, 58080, Note_on_c, 9, 38, 95
1, 58080, Note_on_c, 9, 39, 80
1, 58080, Note_on_c, 9, 42, 73
1, 58319, Note_on_c, 9, 38, 0
1, 58319, Note_on_c, 9, 39, 0
1, 58319, Note_on_c, 9, 42, 0
1, 58320, Note_on_c, 9, 42, 57
1, 58559, Note_on_c, 9, 42, 0
1, 58560, Note_on_c, 9, 54, 74
1, 58560, Note_on_c, 9, 42, 65
1, 58560, Note_on_c, 9, 36, 110
1, 58799, Note_on_c, 9, 54, 0
1, 58799, Note_on_c, 9, 42, 0
1, 58800, Note_on_c, 9, 42, 61
1, 59039, Note_on_c, 9, 36, 0
1, 59039, Note_on_c, 9, 42, 0
1, 59040, Note_on_c, 9, 38, 87
1, 59040, Note_on_c, 9, 39, 84
1, 59040, Note_on_c, 9, 42, 69
1, 59279, Note_on_c, 9, 38, 0
1, 59279, Note_on_c, 9, 39, 0
1, 59279, Note_on_c, 9, 42, 0
1, 59280, Note_on_c, 9, 42, 49
1, 59519, Note_on_c, 9, 42, 0
1, 59520, Note_on_c, 9, 42, 77
1, 59520, Note_on_c, 9, 36, 102
1, 59759, Note_on_c, 9, 42, 0
1, 59760, Note_on_c, 9, 42, 61
1, 59999, Note_on_c, 9, 36, 0
1, 59999, Note_on_c, 9, 42, 0
1, 60000, Note_on_c, 9, 38, 91
1, 60000, Note_on_c, 9, 39, 84
1, 60000, Note_on_c, 9, 42, 65
1, 60239, Note_on_c, 9, 38, 0
1, 60239, Note_on_c, 9, 39, 0
1, 60239, Note_on_c, 9, 42, 0
1, 60240, Note_on_c, 9, 42, 57
1, 60240, Note_on_c, 9, 36, 94
1, 60479, Note_on_c, 9, 42, 0
1, 60479, Note_on_c, 9, 36, 0
1, 60480, Note_on_c, 9, 54, 74
1, 60480, Note_on_c, 9, 42, 65
1, 60480, Note_on_c, 9, 36, 102
1, 60719, Note_on_c, 9, 54, 0
1, 60719, Note_on_c, 9, 42, 0
1, 60720, Note_on_c, 9, 42, 57
1, 60959, Note_on_c, 9, 36, 0
1, 60959, Note_on_c, 9, 42, 0
1, 60960, Note_on_c, 9, 38, 95
1, 60960, Note_on_c, 9, 39, 80
1, 60960, Note_on_c, 9, 42, 73
1, 61199, Note_on_c, 9, 38, 0
1, 61199, Note_on_c, 9, 39, 0
1, 61199, Note_on_c, 9, 42, 0
1, 61200, Note_on_c, 9, 42, 57
1, 61439, Note_on_c, 9, 42, 0
1, 61440, Note_on_c, 9, 42, 69
1, 61440, Note_on_c, 9, 36, 106
1, 61679, Note_on_c, 9, 42, 0
1, 61680, Note_on_c, 9, 42, 57
1, 61919, Note_on_c, 9, 36, 0
1, 61919, Note_on_c, 9, 42, 0
1, 61920, Note_on_c, 9, 38, 91
1, 61920, Note_on_c, 9, 39, 80
1, 61920, Note_on_c, 9, 42, 69
1, 62159, Note_on_c, 9, 38, 0
1, 62159, Note_on_c, 9, 39, 0
1, 62159, Note_on_c, 9, 42, 0
1, 62160, Note_on_c, 9, 42, 61
1, 62399, Note_on_c, 9, 42, 0
1, 62400, Note_on_c, 9, 54, 74
1, 62400, Note_on_c, 9, 42, 65
1, 62400, Note_on_c, 9, 36, 106
1, 62639, Note_on_c, 9, 54, 0
1, 62639, Note_on_c, 9, 42, 0
1, 62640, Note_on_c, 9, 42, 61
1, 62879, Note_on_c, 9, 36, 0
1, 62879, Note_on_c, 9, 42, 0
1, 62880, Note_on_c, 9, 38, 95
1, 62880, Note_on_c, 9, 39, 80
1, 62880, Note_on_c, 9, 42, 69
1, 63119, Note_on_c, 9, 38, 0
1, 63119, Note_on_c, 9, 39, 0
1, 63119, Note_on_c, 9, 42, 0
1, 63120, Note_on_c, 9, 42, 61
1, 63359, Note_on_c, 9, 42, 0
1, 63360, Note_on_c, 9, 42, 61
1, 63360, Note_on_c, 9, 36, 106
1, 63599, Note_on_c, 9, 42, 0
1, 63600, Note_on_c, 9, 42, 61
1, 63839, Note_on_c, 9, 36, 0
1, 63839, Note_on_c, 9, 42, 0
1, 63840, Note_on_c, 9, 38, 89
1, 63840, Note_on_c, 9, 39, 84
1, 63840, Note_on_c, 9, 42, 65
1, 64079, Note_on_c, 9, 38, 0
1, 64079, Note_on_c, 9, 39, 0
1, 64079, Note_on_c, 9, 42, 0
1, 64080, Note_on_c, 9, 42, 53
1, 64080, Note_on_c, 9, 36, 94
1, 64139, Note_on_c, 9, 42, 0
1, 64140, Note_on_c, 9, 38, 30
1, 64199, Note_on_c, 9, 38, 0
1, 64200, Note_on_c, 9, 38, 51
1, 64319, Note_on_c, 9, 36, 0
1, 64319, Note_on_c, 9, 38, 0
1, 64320, Note_on_c, 9, 38, 62
1, 64320, Note_on_c, 9, 54, 74
1, 64320, Note_on_c, 9, 42, 61
1, 64320, Note_on_c, 9, 36, 114
1, 64559, Note_on_c, 9, 38, 0
1, 64559, Note_on_c, 9, 54, 0
1, 64559, Note_on_c, 9, 42, 0
1, 64560, Note_on_c, 9, 38, 103
1, 64560, Note_on_c, 9, 42, 97
1, 64679, Note_on_c, 9, 38, 0
1, 64679, Note_on_c, 9, 42, 0
1, 64680, Note_on_c, 9, 42, 77
1, 64799, Note_on_c, 9, 36, 0
1, 64799, Note_on_c, 9, 42, 0
1, 64800, Note_on_c, 9, 38, 89
1, 64800, Note_on_c, 9, 39, 80
1, 64919, Note_on_c, 9, 38, 0
1, 64919, Note_on_c, 9, 39, 0
1, 64920, Note_on_c, 9, 38, 77
1, 65039, Note_on_c, 9, 38, 0
1, 65040, Note_on_c, 9, 46, 53
1, 65040, Note_on_c, 9, 43, 74
1, 65279, Note_on_c, 9, 46, 0
1, 65279, Note_on_c, 9, 43, 0
1, 65280, Note_on_c, 9, 42, 73
1, 65280, Note_on_c, 9, 49, 44
1, 65280, Note_on_c, 9, 36, 114
1, 65519, Note_on_c, 9, 42, 0
1, 65519, Note_on_c, 9, 49, 0
1, 65520, Note_on_c, 9, 42, 69
1, 65759, Note_on_c, 9, 36, 0
1, 65759, Note_on_c, 9, 42, 0
1, 65760, Note_on_c, 9, 38, 95
1, 65760, Note_on_c, 9, 39, 80
1, 65760, Note_on_c, 9, 42, 69
1, 65999, Note_on_c, 9, 38, 0
1, 65999, Note_on_c, 9, 39, 0
1, 65999, Note_on_c, 9, 42, 0
1, 66000, Note_on_c, 9, 42, 57
1, 66239, Note_on_c, 9, 42, 0
1, 66240, Note_on_c, 9, 54, 74
1, 66240, Note_on_c, 9, 42, 65
1, 66240, Note_on_c, 9, 36, 110
1, 66479, Note_on_c, 9, 54, 0
1, 66479, Note_on_c, 9, 42, 0
1, 66480, Note_on_c, 9, 42, 61
1, 66719, Note_on_c, 9, 36, 0
1, 66719, Note_on_c, 9, 42, 0
1, 66720, Note_on_c, 9, 38, 87
1, 66720, Note_on_c, 9, 39, 84
1, 66720, Note_on_c, 9, 42, 65
1, 66959, Note_on_c, 9, 38, 0
1, 66959, Note_on_c, 9, 39, 0
1, 66959, Note_on_c, 9, 42, 0
1, 66960, Note_on_c, 9, 42, 61
1, 67199, Note_on_c, 9, 42, 0
1, 67200, Note_on_c, 9, 42, 65
1, 67200, Note_on_c, 9, 36, 102
1, 67439, Note_on_c, 9, 42, 0
1, 67440, Note_on_c, 9, 42, 65
1, 67679, Note_on_c, 9, 36, 0
1, 67679, Note_on_c, 9, 42, 0
1, 67680, Note_on_c, 9, 38, 91
1, 67680, Note_on_c, 9, 39, 84
1, 67680, Note_on_c, 9, 42, 65
1, 67919, Note_on_c, 9, 38, 0
1, 67919, Note_on_c, 9, 39, 0
1, 67919, Note_on_c, 9, 42, 0
1, 67920, Note_on_c, 9, 42, 61
1, 67920, Note_on_c, 9, 36, 94
1, 68159, Note_on_c, 9, 42, 0
1, 68159, Note_on_c, 9, 36, 0
1, 68160, Note_on_c, 9, 54, 74
1, 68160, Note_on_c, 9, 42, 65
1, 68160, Note_on_c, 9, 36, 102
1, 68399, Note_on_c, 9, 54, 0
1, 68399, Note_on_c, 9, 42, 0
1, 68400, Note_on_c, 9, 42, 61
1, 68639, Note_on_c, 9, 36, 0
1, 68639, Note_on_c, 9, 42, 0
1, 68640, Note_on_c, 9, 38, 95
1, 68640, Note_on_c, 9, 39, 80
1, 68640, Note_on_c, 9, 42, 65
1, 68879, Note_on_c, 9, 38, 0
1, 68879, Note_on_c, 9, 39, 0
1, 68879, Note_on_c, 9, 42, 0
1, 68880, Note_on_c, 9, 42, 65
1, 69119, Note_on_c, 9, 42, 0
1, 69120, Note_on_c, 9, 42, 69
1, 69120, Note_on_c, 9, 36, 106
1, 69359, Note_on_c, 9, 42, 0
1, 69360, Note_on_c, 9, 42, 61
1, 69599, Note_on_c, 9, 36, 0
1, 69599, Note_on_c, 9, 42, 0
1, 69600, Note_on_c, 9, 38, 91
1, 69600, Note_on_c, 9, 39, 80
1, 69600, Note_on_c, 9, 42, 65
1, 69839, Note_on_c, 9, 38, 0
1, 69839, Note_on_c, 9, 39, 0
1, 69839, Note_on_c, 9, 42, 0
1, 69840, Note_on_c, 9, 42, 69
1, 70079, Note_on_c, 9, 42, 0
1, 70080, Note_on_c, 9, 54, 74
1, 70080, Note_on_c, 9, 42, 65
1, 70080, Note_on_c, 9, 36, 106
1, 70319, Note_on_c, 9, 54, 0
1, 70319, Note_on_c, 9, 42, 0
1, 70320, Note_on_c, 9, 42, 65
1, 70559, Note_on_c, 9, 36, 0
1, 70559, Note_on_c, 9, 42, 0
1, 70560, Note_on_c, 9, 38, 95
1, 70560, Note_on_c, 9, 39, 80
1, 70560, Note_on_c, 9, 42, 65
1, 70799, Note_on_c, 9, 38, 0
1, 70799, Note_on_c, 9, 39, 0
1, 70799, Note_on_c, 9, 42, 0
1, 70800, Note_on_c, 9, 42, 65
1, 71039, Note_on_c, 9, 42, 0
1, 71040, Note_on_c, 9, 42, 69
1, 71040, Note_on_c, 9, 36, 106
1, 71279, Note_on_c, 9, 42, 0
1, 71280, Note_on_c, 9, 42, 61
1, 71519, Note_on_c, 9, 36, 0
1, 71519, Note_on_c, 9, 42, 0
1, 71520, Note_on_c, 9, 38, 89
1, 71520, Note_on_c, 9, 39, 84
1, 71520, Note_on_c, 9, 42, 73
1, 71759, Note_on_c, 9, 38, 0
1, 71759, Note_on_c, 9, 39, 0
1, 71759, Note_on_c, 9, 42, 0
1, 71760, Note_on_c, 9, 42, 49
1, 71760, Note_on_c, 9, 36, 94
1, 71999, Note_on_c, 9, 42, 0
1, 71999, Note_on_c, 9, 36, 0
1, 72000, Note_on_c, 9, 38, 62
1, 72000, Note_on_c, 9, 54, 74
1, 72000, Note_on_c, 9, 42, 61
1, 72000, Note_on_c, 9, 36, 114
1, 72239, Note_on_c, 9, 38, 0
1, 72239, Note_on_c, 9, 54, 0
1, 72239, Note_on_c, 9, 42, 0
1, 72240, Note_on_c, 9, 38, 103
1, 72240, Note_on_c, 9, 42, 57
1, 72479, Note_on_c, 9, 36, 0
1, 72479, Note_on_c, 9, 38, 0
1, 72479, Note_on_c, 9, 42, 0
1, 72480, Note_on_c, 9, 38, 89
1, 72480, Note_on_c, 9, 39, 80
1, 72480, Note_on_c, 9, 42, 69
1, 72599, Note_on_c, 9, 38, 0
1, 72599, Note_on_c, 9, 39, 0
1, 72599, Note_on_c, 9, 42, 0
1, 72600, Note_on_c, 9, 38, 77
1, 72719, Note_on_c, 9, 38, 0
1, 72720, Note_on_c, 9, 42, 57
1, 72720, Note_on_c, 9, 43, 74
1, 72959, Note_on_c, 9, 42, 0
1, 72959, Note_on_c, 9, 43, 0
1, 72960, Note_on_c, 9, 42, 73
1, 72960, Note_on_c, 9, 49, 44
1, 72960, Note_on_c, 9, 36, 114
1, 73199, Note_on_c, 9, 42, 0
1, 73199, Note_on_c, 9, 49, 0
1, 73200, Note_on_c, 9, 42, 53
1, 73439, Note_on_c, 9, 36, 0
1, 73439, Note_on_c, 9, 42, 0
1, 73440, Note_on_c, 9, 38, 95
1, 73440, Note_on_c, 9, 39, 80
1, 73440, Note_on_c, 9, 42, 73
1, 73679, Note_on_c, 9, 38, 0
1, 73679, Note_on_c, 9, 39, 0
1, 73679, Note_on_c, 9, 42, 0
1, 73680, Note_on_c, 9, 42, 57
1, 73919, Note_on_c, 9, 42, 0
1, 73920, Note_on_c, 9, 54, 74
1, 73920, Note_on_c, 9, 42, 65
1, 73920, Note_on_c, 9, 36, 110
1, 74159, Note_on_c, 9, 54, 0
1, 74159, Note_on_c, 9, 42, 0
1, 74160, Note_on_c, 9, 42, 61
1, 74399, Note_on_c, 9, 36, 0
1, 74399, Note_on_c, 9, 42, 0
1, 74400, Note_on_c, 9, 38, 87
1, 74400, Note_on_c, 9, 39, 84
1, 74400, Note_on_c, 9, 42, 69
1, 74639, Note_on_c, 9, 38, 0
1, 74639, Note_on_c, 9, 39, 0
1, 74639, Note_on_c, 9, 42, 0
1, 74640, Note_on_c, 9, 42, 49
1, 74879, Note_on_c, 9, 42, 0
1, 74880, Note_on_c, 9, 42, 77
1, 74880, Note_on_c, 9, 36, 102
1, 75119, Note_on_c, 9, 42, 0
1, 75120, Note_on_c, 9, 42, 61
1, 75359, Note_on_c, 9, 36, 0
1, 75359, Note_on_c, 9, 42, 0
1, 75360, Note_on_c, 9, 38, 91
1, 75360, Note_on_c, 9, 39, 84
1, 75360, Note_on_c, 9, 42, 65
1, 75599, Note_on_c, 9, 38, 0
1, 75599, Note_on_c, 9, 39, 0
1, 75599, Note_on_c, 9, 42, 0
1, 75600, Note_on_c, 9, 42, 57
1, 75600, Note_on_c, 9, 36, 94
1, 75839, Note_on_c, 9, 42, 0
1, 75839, Note_on_c, 9, 36, 0
1, 75840, Note_on_c, 9, 54, 74
1, 75840, Note_on_c, 9, 42, 65
1, 75840, Note_on_c, 9, 36, 102
1, 76079, Note_on_c, 9, 54, 0
1, 76079, Note_on_c, 9, 42, 0
1, 76080, Note_on_c, 9, 42, 57
1, 76319, Note_on_c, 9, 36, 0
1, 76319, Note_on_c, 9, 42, 0
1, 76320, Note_on_c, 9, 38, 95
1, 76320, Note_on_c, 9, 39, 80
1, 76320, Note_on_c, 9, 42, 73
1, 76559, Note_on_c, 9, 38, 0
1, 76559, Note_on_c, 9, 39, 0
1, 76559, Note_on_c, 9, 42, 0
1, 76560, Note_on_c, 9, 42, 57
1, 76799, Note_on_c, 9, 42, 0
1, 76800, Note_on_c, 9, 42, 69
1, 76800, Note_on_c, 9, 36, 106
1, 77039, Note_on_c, 9, 42, 0
1, 77040, Note_on_c, 9, 42, 57
1, 77279, Note_on_c, 9, 36, 0
1, 77279, Note_on_c, 9, 42, 0
1, 77280, Note_on_c, 9, 38, 91
1, 77280, Note_on_c, 9, 39, 80
1, 77280, Note_on_c, 9, 42, 69
1, 77519, Note_on_c, 9, 38, 0
1, 77519, Note_on_c, 9, 39, 0
1, 77519, Note_on_c, 9, 42, 0
1, 77520, Note_on_c, 9, 42, 61
1, 77759, Note_on_c, 9, 42, 0
1, 77760, Note_on_c, 9, 54, 74
1, 77760, Note_on_c, 9, 42, 65
1, 77760, Note_on_c, 9, 36, 106
1, 77999, Note_on_c, 9, 54, 0
1, 77999, Note_on_c, 9, 42, 0
1, 78000, Note_on_c, 9, 42, 61
1, 78239, Note_on_c, 9, 36, 0
1, 78239, Note_on_c, 9, 42, 0
1, 78240, Note_on_c, 9, 38, 95
1, 78240, Note_on_c, 9, 39, 80
1, 78240, Note_on_c, 9, 42, 69
1, 78479, Note_on_c, 9, 38, 0
1, 78479, Note_on_c, 9, 39, 0
1, 78479, Note_on_c, 9, 42, 0
1, 78480, Note_on_c, 9, 42, 61
1, 78719, Note_on_c, 9, 42, 0
1, 78720, Note_on_c, 9, 42, 61
1, 78720, Note_on_c, 9, 36, 106
1, 78959, Note_on_c, 9, 42, 0
1, 78960, Note_on_c, 9, 42, 61
1, 79199, Note_on_c, 9, 36, 0
1, 79199, Note_on_c, 9, 42, 0
1, 79200, Note_on_c, 9, 38, 89
1, 79200, Note_on_c, 9, 39, 84
1, 79200, Note_on_c, 9, 42, 65
1, 79439, Note_on_c, 9, 38, 0
1, 79439, Note_on_c, 9, 39, 0
1, 79439, Note_on_c, 9, 42, 0
1, 79440, Note_on_c, 9, 42, 53
1, 79440, Note_on_c, 9, 36, 94
1, 79499, Note_on_c, 9, 42, 0
1, 79500, Note_on_c, 9, 38, 30
1, 79559, Note_on_c, 9, 38, 0
1, 79560, Note_on_c, 9, 38, 51
1, 79679, Note_on_c, 9, 36, 0
1, 79679, Note_on_c, 9, 38, 0
1, 79680, Note_on_c, 9, 38, 62
1, 79680, Note_on_c, 9, 54, 74
1, 79680, Note_on_c, 9, 42, 61
1, 79680, Note_on_c, 9, 36, 114
1, 79919, Note_on_c, 9, 38, 0
1, 79919, Note_on_c, 9, 54, 0
1, 79919, Note_on_c, 9, 42, 0
1, 79920, Note_on_c, 9, 38, 103
1, 79920, Note_on_c, 9, 42, 97
1, 80039, Note_on_c, 9, 38, 0
1, 80039, Note_on_c, 9, 42, 0
1, 80040, Note_on_c, 9, 42, 77
1, 80159, Note_on_c, 9, 36, 0
1, 80159, Note_on_c, 9, 42, 0
1, 80160, Note_on_c, 9, 38, 89
1, 80160, Note_on_c, 9, 39, 80
1, 80279, Note_on_c, 9, 38, 0
1, 80279, Note_on_c, 9, 39, 0
1, 80280, Note_on_c, 9, 38, 77
1, 80399, Note_on_c, 9, 38, 0
1, 80400, Note_on_c, 9, 46, 53
1, 80400, Note_on_c, 9, 43, 74
1, 80639, Note_on_c, 9, 46, 0
1, 80639, Note_on_c, 9, 43, 0
1, 80640, Note_on_c, 9, 33, 44
1, 80640, Note_on_c, 9, 42, 73
1, 80640, Note_on_c, 9, 49, 44
1, 80640, Note_on_c, 9, 36, 114
1, 80879, Note_on_c, 9, 33, 0
1, 80879, Note_on_c, 9, 42, 0
1, 80879, Note_on_c, 9, 49, 0
1, 80880, Note_on_c, 9, 33, 56
1, 80880, Note_on_c, 9, 42, 69
1, 81119, Note_on_c, 9, 36, 0
1, 81119, Note_on_c, 9, 33, 0
1, 81119, Note_on_c, 9, 42, 0
1, 81120, Note_on_c, 9, 38, 92
1, 81120, Note_on_c, 9, 33, 44
1, 81120, Note_on_c, 9, 39, 90
1, 81120, Note_on_c, 9, 42, 69
1, 81239, Note_on_c, 9, 38, 0
1, 81239, Note_on_c, 9, 33, 0
1, 81239, Note_on_c, 9, 39, 0
1, 81239, Note_on_c, 9, 42, 0
1, 81240, Note_on_c, 9, 33, 42
1, 81359, Note_on_c, 9, 33, 0
1, 81360, Note_on_c, 9, 33, 36
1, 81360, Note_on_c, 9, 42, 57
1, 81479, Note_on_c, 9, 33, 0
1, 81479, Note_on_c, 9, 42, 0
1, 81480, Note_on_c, 9, 33, 47
1, 81599, Note_on_c, 9, 33, 0
1, 81600, Note_on_c, 9, 54, 74
1, 81600, Note_on_c, 9, 33, 58
1, 81600, Note_on_c, 9, 42, 65
1, 81600, Note_on_c, 9, 36, 110
1, 81839, Note_on_c, 9, 54, 0
1, 81839, Note_on_c, 9, 33, 0
1, 81839, Note_on_c, 9, 42, 0
1, 81840, Note_on_c, 9, 33, 55
1, 81840, Note_on_c, 9, 42, 61
1, 82079, Note_on_c, 9, 36, 0
1, 82079, Note_on_c, 9, 33, 0
1, 82079, Note_on_c, 9, 42, 0
1, 82080, Note_on_c, 9, 38, 88
1, 82080, Note_on_c, 9, 33, 42
1, 82080, Note_on_c, 9, 39, 94
1, 82080, Note_on_c, 9, 42, 65
1, 82199, Note_on_c, 9, 38, 0
1, 82199, Note_on_c, 9, 33, 0
1, 82199, Note_on_c, 9, 39, 0
1, 82199, Note_on_c, 9, 42, 0
1, 82200, Note_on_c, 9, 33, 36
1, 82319, Note_on_c, 9, 33, 0
1, 82320, Note_on_c, 9, 33, 36
1, 82320, Note_on_c, 9, 42, 61
1, 82439, Note_on_c, 9, 33, 0
1, 82439, Note_on_c, 9, 42, 0
1, 82440, Note_on_c, 9, 33, 47
1, 82559, Note_on_c, 9, 33, 0
1, 82560, Note_on_c, 9, 33, 44
1, 82560, Note_on_c, 9, 42, 65
1, 82560, Note_on_c, 9, 36, 102
1, 82799, Note_on_c, 9, 33, 0
1, 82799, Note_on_c, 9, 42, 0
1, 82800, Note_on_c, 9, 33, 56
1, 82800, Note_on_c, 9, 42, 65
1, 83039, Note_on_c, 9, 36, 0
1, 83039, Note_on_c, 9, 33, 0
1, 83039, Note_on_c, 9, 42, 0
1, 83040, Note_on_c, 9, 38, 92
1, 83040, Note_on_c, 9, 33, 44
1, 83040, Note_on_c, 9, 39, 94
1, 83040, Note_on_c, 9, 42, 65
1, 83159, Note_on_c, 9, 38, 0
1, 83159, Note_on_c, 9, 33, 0
1, 83159, Note_on_c, 9, 39, 0
1, 83159, Note_on_c, 9, 42, 0
1, 83160, Note_on_c, 9, 33, 42
1, 83279, Note_on_c, 9, 33, 0
1, 83280, Note_on_c, 9, 33, 36
1, 83280, Note_on_c, 9, 42, 61
1, 83280, Note_on_c, 9, 36, 94
1, 83399, Note_on_c, 9, 33, 0
1, 83399, Note_on_c, 9, 42, 0
1, 83400, Note_on_c, 9, 33, 47
1, 83519, Note_on_c, 9, 36, 0
1, 83519, Note_on_c, 9, 33, 0
1, 83520, Note_on_c, 9, 54, 74
1, 83520, Note_on_c, 9, 33, 58
1, 83520, Note_on_c, 9, 42, 65
1, 83520, Note_on_c, 9, 36, 102
1, 83759, Note_on_c, 9, 54, 0
1, 83759, Note_on_c, 9, 33, 0
1, 83759, Note_on_c, 9, 42, 0
1, 83760, Note_on_c, 9, 33, 55
1, 83760, Note_on_c, 9, 42, 61
1, 83999, Note_on_c, 9, 36, 0
1, 83999, Note_on_c, 9, 33, 0
1, 83999, Note_on_c, 9, 42, 0
1, 84000, Note_on_c, 9, 38, 92
1, 84000, Note_on_c, 9, 33, 42
1, 84000, Note_on_c, 9, 39, 90
1, 84000, Note_on_c, 9, 42, 65
1, 84119, Note_on_c, 9, 38, 0
1, 84119, Note_on_c, 9, 33, 0
1, 84119, Note_on_c, 9, 39, 0
1, 84119, Note_on_c, 9, 42, 0
1, 84120, Note_on_c, 9, 33, 36
1, 84239, Note_on_c, 9, 33, 0
1, 84240, Note_on_c, 9, 33, 36
1, 84240, Note_on_c, 9, 42, 65
1, 84359, Note_on_c, 9, 33, 0
1, 84359, Note_on_c, 9, 42, 0
1, 84360, Note_on_c, 9, 33, 47
1, 84479, Note_on_c, 9, 33, 0
1, 84480, Note_on_c, 9, 33, 44
1, 84480, Note_on_c, 9, 42, 69
1, 84480, Note_on_c, 9, 36, 106
1, 84719, Note_on_c, 9, 33, 0
1, 84719, Note_on_c, 9, 42, 0
1, 84720, Note_on_c, 9, 33, 56
1, 84720, Note_on_c, 9, 42, 61
1, 84959, Note_on_c, 9, 36, 0
1, 84959, Note_on_c, 9, 33, 0
1, 84959, Note_on_c, 9, 42, 0
1, 84960, Note_on_c, 9, 38, 84
1, 84960, Note_on_c, 9, 33, 44
1, 84960, Note_on_c, 9, 39, 90
1, 84960, Note_on_c, 9, 42, 65
1, 85079, Note_on_c, 9, 38, 0
1, 85079, Note_on_c, 9, 33, 0
1, 85079, Note_on_c, 9, 39, 0
1, 85079, Note_on_c, 9, 42, 0
1, 85080, Note_on_c, 9, 33, 42
1, 85199, Note_on_c, 9, 33, 0
1, 85200, Note_on_c, 9, 33, 36
1, 85200, Note_on_c, 9, 42, 69
1, 85319, Note_on_c, 9, 33, 0
1, 85319, Note_on_c, 9, 42, 0
1, 85320, Note_on_c, 9, 33, 47
1, 85439, Note_on_c, 9, 33, 0
1, 85440, Note_on_c, 9, 54, 74
1, 85440, Note_on_c, 9, 33, 58
1, 85440, Note_on_c, 9, 42, 65
1, 85440, Note_on_c, 9, 36, 106
1, 85679, Note_on_c, 9, 54, 0
1, 85679, Note_on_c, 9, 33, 0
1, 85679, Note_on_c, 9, 42, 0
1, 85680, Note_on_c, 9, 33, 55
1, 85680, Note_on_c, 9, 42, 65
1, 85919, Note_on_c, 9, 36, 0
1, 85919, Note_on_c, 9, 33, 0
1, 85919, Note_on_c, 9, 42, 0
1, 85920, Note_on_c, 9, 38, 88
1, 85920, Note_on_c, 9, 33, 42
1, 85920, Note_on_c, 9, 39, 90
1, 85920, Note_on_c, 9, 42, 65
1, 86039, Note_on_c, 9, 38, 0
1, 86039, Note_on_c, 9, 33, 0
1, 86039, Note_on_c, 9, 39, 0
1, 86039, Note_on_c, 9, 42, 0
1, 86040, Note_on_c, 9, 33, 36
1, 86159, Note_on_c, 9, 33, 0
1, 86160, Note_on_c, 9, 33, 36
1, 86160, Note_on_c, 9, 42, 65
1, 86279, Note_on_c, 9, 33, 0
1, 86279, Note_on_c, 9, 42, 0
1, 86280, Note_on_c, 9, 33, 47
1, 86399, Note_on_c, 9, 33, 0
1, 86400, Note_on_c, 9, 33, 44
1, 86400, Note_on_c, 9, 42, 69
1, 86400, Note_on_c, 9, 36, 106
1, 86639, Note_on_c, 9, 33, 0
1, 86639, Note_on_c, 9, 42, 0
1, 86640, Note_on_c, 9, 33, 56
1, 86640, Note_on_c, 9, 42, 61
1, 86879, Note_on_c, 9, 36, 0
1, 86879, Note_on_c, 9, 33, 0
1, 86879, Note_on_c, 9, 42, 0
1, 86880, Note_on_c, 9, 38, 84
1, 86880, Note_on_c, 9, 33, 44
1, 86880, Note_on_c, 9, 39, 94
1, 86880, Note_on_c, 9, 42, 73
1, 86999, Note_on_c, 9, 38, 0
1, 86999, Note_on_c, 9, 33, 0
1, 86999, Note_on_c, 9, 39, 0
1, 86999, Note_on_c, 9, 42, 0
1, 87000, Note_on_c, 9, 33, 42
1, 87119, Note_on_c, 9, 33, 0
1, 87120, Note_on_c, 9, 33, 36
1, 87120, Note_on_c, 9, 42, 49
1, 87120, Note_on_c, 9, 36, 94
1, 87239, Note_on_c, 9, 33, 0
1, 87239, Note_on_c, 9, 42, 0
1, 87240, Note_on_c, 9, 33, 47
1, 87359, Note_on_c, 9, 36, 0
1, 87359, Note_on_c, 9, 33, 0
1, 87360, Note_on_c, 9, 54, 74
1, 87360, Note_on_c, 9, 33, 58
1, 87360, Note_on_c, 9, 42, 61
1, 87360, Note_on_c, 9, 36, 114
1, 87599, Note_on_c, 9, 54, 0
1, 87599, Note_on_c, 9, 33, 0
1, 87599, Note_on_c, 9, 42, 0
1, 87600, Note_on_c, 9, 33, 55
1, 87600, Note_on_c, 9, 42, 57
1, 87839, Note_on_c, 9, 36, 0
1, 87839, Note_on_c, 9, 33, 0
1, 87839, Note_on_c, 9, 42, 0
1, 87840, Note_on_c, 9, 38, 88
1, 87840, Note_on_c, 9, 33, 42
1, 87840, Note_on_c, 9, 39, 90
1, 87840, Note_on_c, 9, 42, 69
1, 87959, Note_on_c, 9, 38, 0
1, 87959, Note_on_c, 9, 33, 0
1, 87959, Note_on_c, 9, 39, 0
1, 87959, Note_on_c, 9, 42, 0
1, 87960, Note_on_c, 9, 33, 36
1, 88079, Note_on_c, 9, 33, 0
1, 88080, Note_on_c, 9, 33, 36
1, 88080, Note_on_c, 9, 42, 57
1, 88199, Note_on_c, 9, 33, 0
1, 88199, Note_on_c, 9, 42, 0
1, 88200, Note_on_c, 9, 33, 47
1, 88319, Note_on_c, 9, 33, 0
1, 88320, Note_on_c, 9, 33, 44
1, 88320, Note_on_c, 9, 42, 73
1, 88320, Note_on_c, 9, 36, 114
1, 88559, Note_on_c, 9, 33, 0
1, 88559, Note_on_c, 9, 42, 0
1, 88560, Note_on_c, 9, 33, 56
1, 88560, Note_on_c, 9, 42, 53
1, 88799, Note_on_c, 9, 36, 0
1, 88799, Note_on_c, 9, 33, 0
1, 88799, Note_on_c, 9, 42, 0
1, 88800, Note_on_c, 9, 38, 88
1, 88800, Note_on_c, 9, 33, 44
1, 88800, Note_on_c, 9, 39, 90
1, 88800, Note_on_c, 9, 42, 73
1, 88919, Note_on_c, 9, 38, 0
1, 88919, Note_on_c, 9, 33, 0
1, 88919, Note_on_c, 9, 39, 0
1, 88919, Note_on_c, 9, 42, 0
1, 88920, Note_on_c, 9, 33, 42
1, 89039, Note_on_c, 9, 33, 0
1, 89040, Note_on_c, 9, 33, 36
1, 89040, Note_on_c, 9, 42, 57
1, 89159, Note_on_c, 9, 33, 0
1, 89159, Note_on_c, 9, 42, 0
1, 89160, Note_on_c, 9, 33, 47
1, 89279, Note_on_c, 9, 33, 0
1, 89280, Note_on_c, 9, 54, 74
1, 89280, Note_on_c, 9, 33, 58
1, 89280, Note_on_c, 9, 42, 65
1, 89280, Note_on_c, 9, 36, 110
1, 89519, Note_on_c, 9, 54, 0
1, 89519, Note_on_c, 9, 33, 0
1, 89519, Note_on_c, 9, 42, 0
1, 89520, Note_on_c, 9, 33, 55
1, 89520, Note_on_c, 9, 42, 61
1, 89759, Note_on_c, 9, 36, 0
1, 89759, Note_on_c, 9, 33, 0
1, 89759, Note_on_c, 9, 42, 0
1, 89760, Note_on_c, 9, 38, 80
1, 89760, Note_on_c, 9, 33, 42
1, 89760, Note_on_c, 9, 39, 94
1, 89760, Note_on_c, 9, 42, 69
1, 89879, Note_on_c, 9, 38, 0
1, 89879, Note_on_c, 9, 33, 0
1, 89879, Note_on_c, 9, 39, 0
1, 89879, Note_on_c, 9, 42, 0
1, 89880, Note_on_c, 9, 33, 36
1, 89999, Note_on_c, 9, 33, 0
1, 90000, Note_on_c, 9, 33, 36
1, 90000, Note_on_c, 9, 42, 49
1, 90119, Note_on_c, 9, 33, 0
1, 90119, Note_on_c, 9, 42, 0
1, 90120, Note_on_c, 9, 33, 47
1, 90239, Note_on_c, 9, 33, 0
1, 90240, Note_on_c, 9, 33, 44
1, 90240, Note_on_c, 9, 42, 77
1, 90240, Note_on_c, 9, 36, 102
1, 90479, Note_on_c, 9, 33, 0
1, 90479, Note_on_c, 9, 42, 0
1, 90480, Note_on_c, 9, 33, 56
1, 90480, Note_on_c, 9, 42, 61
1, 90719, Note_on_c, 9, 36, 0
1, 90719, Note_on_c, 9, 33, 0
1, 90719, Note_on_c, 9, 42, 0
1, 90720, Note_on_c, 9, 38, 84
1, 90720, Note_on_c, 9, 33, 44
1, 90720, Note_on_c, 9, 39, 94
1, 90720, Note_on_c, 9, 42, 65
1, 90839, Note_on_c, 9, 38, 0
1, 90839, Note_on_c, 9, 33, 0
1, 90839, Note_on_c, 9, 39, 0
1, 90839, Note_on_c, 9, 42, 0
1, 90840, Note_on_c, 9, 33, 42
1, 90959, Note_on_c, 9, 33, 0
1, 90960, Note_on_c, 9, 33, 36
1, 90960, Note_on_c, 9, 42, 57
1, 90960, Note_on_c, 9, 36, 94
1, 91079, Note_on_c, 9, 33, 0
1, 91079, Note_on_c, 9, 42, 0
1, 91080, Note_on_c, 9, 33, 47
1, 91199, Note_on_c, 9, 36, 0
1, 91199, Note_on_c, 9, 33, 0
1, 91200, Note_on_c, 9, 54, 74
1, 91200, Note_on_c, 9, 33, 58
1, 91200, Note_on_c, 9, 42, 65
1, 91200, Note_on_c, 9, 36, 102
1, 91439, Note_on_c, 9, 54, 0
1, 91439, Note_on_c, 9, 33, 0
1, 91439, Note_on_c, 9, 42, 0
1, 91440, Note_on_c, 9, 33, 55
1, 91440, Note_on_c, 9, 42, 57
1, 91679, Note_on_c, 9, 36, 0
1, 91679, Note_on_c, 9, 33, 0
1, 91679, Note_on_c, 9, 42, 0
1, 91680, Note_on_c, 9, 38, 88
1, 91680, Note_on_c, 9, 33, 42
1, 91680, Note_on_c, 9, 39, 90
1, 91680, Note_on_c, 9, 42, 73
1, 91799, Note_on_c, 9, 38, 0
1, 91799, Note_on_c, 9, 33, 0
1, 91799, Note_on_c, 9, 39, 0
1, 91799, Note_on_c, 9, 42, 0
1, 91800, Note_on_c, 9, 33, 36
1, 91919, Note_on_c, 9, 33, 0
1, 91920, Note_on_c, 9, 33, 36
1, 91920, Note_on_c, 9, 42, 57
1, 92039, Note_on_c, 9, 33, 0
1, 92039, Note_on_c, 9, 42, 0
1, 92040, Note_on_c, 9, 33, 47
1, 92159, Note_on_c, 9, 33, 0
1, 92160, Note_on_c, 9, 33, 44
1, 92160, Note_on_c, 9, 42, 69
1, 92160, Note_on_c, 9, 36, 106
1, 92399, Note_on_c, 9, 33, 0
1, 92399, Note_on_c, 9, 42, 0
1, 92400, Note_on_c, 9, 33, 56
1, 92400, Note_on_c, 9, 42, 57
1, 92639, Note_on_c, 9, 36, 0
1, 92639, Note_on_c, 9, 33, 0
1, 92639, Note_on_c, 9, 42, 0
1, 92640, Note_on_c, 9, 38, 84
1, 92640, Note_on_c, 9, 33, 44
1, 92640, Note_on_c, 9, 39, 90
1, 92640, Note_on_c, 9, 42, 69
1, 92759, Note_on_c, 9, 38, 0
1, 92759, Note_on_c, 9, 33, 0
1, 92759, Note_on_c, 9, 39, 0
1, 92759, Note_on_c, 9, 42, 0
1, 92760, Note_on_c, 9, 33, 42
1, 92879, Note_on_c, 9, 33, 0
1, 92880, Note_on_c, 9, 33, 36
1, 92880, Note_on_c, 9, 42, 61
1, 92999, Note_on_c, 9, 33, 0
1, 92999, Note_on_c, 9, 42, 0
1, 93000, Note_on_c, 9, 33, 47
1, 93119, Note_on_c, 9, 33, 0
1, 93120, Note_on_c, 9, 54, 74
1, 93120, Note_on_c, 9, 33, 58
1, 93120, Note_on_c, 9, 42, 65
1, 93120, Note_on_c, 9, 36, 106
1, 93359, Note_on_c, 9, 54, 0
1, 93359, Note_on_c, 9, 33, 0
1, 93359, Note_on_c, 9, 42, 0
1, 93360, Note_on_c, 9, 33, 55
1, 93360, Note_on_c, 9, 42, 61
1, 93599, Note_on_c, 9, 36, 0
1, 93599, Note_on_c, 9, 33, 0
1, 93599, Note_on_c, 9, 42, 0
1, 93600, Note_on_c, 9, 38, 88
1, 93600, Note_on_c, 9, 33, 42
1, 93600, Note_on_c, 9, 39, 90
1, 93600, Note_on_c, 9, 42, 69
1, 93719, Note_on_c, 9, 38, 0
1, 93719, Note_on_c, 9, 33, 0
1, 93719, Note_on_c, 9, 39, 0
1, 93719, Note_on_c, 9, 42, 0
1, 93720, Note_on_c, 9, 33, 36
1, 93839, Note_on_c, 9, 33, 0
1, 93840, Note_on_c, 9, 33, 36
1, 93840, Note_on_c, 9, 42, 61
1, 93959, Note_on_c, 9, 33, 0
1, 93959, Note_on_c, 9, 42, 0
1, 93960, Note_on_c, 9, 33, 47
1, 94079, Note_on_c, 9, 33, 0
1, 94080, Note_on_c, 9, 33, 44
1, 94080, Note_on_c, 9, 42, 61
1, 94080, Note_on_c, 9, 36, 106
1, 94319, Note_on_c, 9, 33, 0
1, 94319, Note_on_c, 9, 42, 0
1, 94320, Note_on_c, 9, 33, 56
1, 94320, Note_on_c, 9, 42, 61
1, 94559, Note_on_c, 9, 36, 0
1, 94559, Note_on_c, 9, 33, 0
1, 94559, Note_on_c, 9, 42, 0
1, 94560, Note_on_c, 9, 38, 88
1, 94560, Note_on_c, 9, 33, 44
1, 94560, Note_on_c, 9, 39, 94
1, 94560, Note_on_c, 9, 42, 65
1, 94679, Note_on_c, 9, 38, 0
1, 94679, Note_on_c, 9, 33, 0
1, 94679, Note_on_c, 9, 39, 0
1, 94679, Note_on_c, 9, 42, 0
1, 94680, Note_on_c, 9, 33, 42
1, 94799, Note_on_c, 9, 33, 0
1, 94800, Note_on_c, 9, 33, 36
1, 94800, Note_on_c, 9, 42, 53
1, 94800, Note_on_c, 9, 36, 94
1, 94919, Note_on_c, 9, 33, 0
1, 94919, Note_on_c, 9, 42, 0
1, 94920, Note_on_c, 9, 33, 47
1, 95039, Note_on_c, 9, 36, 0
1, 95039, Note_on_c, 9, 33, 0
1, 95040, Note_on_c, 9, 54, 74
1, 95040, Note_on_c, 9, 33, 58
1, 95040, Note_on_c, 9, 42, 61
1, 95040, Note_on_c, 9, 36, 114
1, 95279, Note_on_c, 9, 54, 0
1, 95279, Note_on_c, 9, 33, 0
1, 95279, Note_on_c, 9, 42, 0
1, 95280, Note_on_c, 9, 38, 84
1, 95280, Note_on_c, 9, 33, 55
1, 95280, Note_on_c, 9, 42, 97
1, 95399, Note_on_c, 9, 38, 0
1, 95399, Note_on_c, 9, 33, 0
1, 95399, Note_on_c, 9, 42, 0
1, 95400, Note_on_c, 9, 38, 64
1, 95400, Note_on_c, 9, 42, 77
1, 95519, Note_on_c, 9, 36, 0
1, 95519, Note_on_c, 9, 38, 0
1, 95519, Note_on_c, 9, 42, 0
1, 95520, Note_on_c, 9, 33, 42
1, 95520, Note_on_c, 9, 39, 90
1, 95639, Note_on_c, 9, 33, 0
1, 95639, Note_on_c, 9, 39, 0
1, 95640, Note_on_c, 9, 33, 36
1, 95759, Note_on_c, 9, 33, 0
1, 95760, Note_on_c, 9, 38, 80
1, 95760, Note_on_c, 9, 46, 53
1, 95760, Note_on_c, 9, 33, 36
1, 95879, Note_on_c, 9, 38, 0
1, 95879, Note_on_c, 9, 46, 0
1, 95879, Note_on_c, 9, 33, 0
1, 95880, Note_on_c, 9, 33, 47
1, 95999, Note_on_c, 9, 33, 0
1, 96000, Note_on_c, 9, 33, 44
1, 96000, Note_on_c, 9, 42, 73
1, 96000, Note_on_c, 9, 36, 114
1, 96239, Note_on_c, 9, 33, 0
1, 96239, Note_on_c, 9, 42, 0
1, 96240, Note_on_c, 9, 33, 56
1, 96240, Note_on_c, 9, 42, 69
1, 96479, Note_on_c, 9, 36, 0
1, 96479, Note_on_c, 9, 33, 0
1, 96479, Note_on_c, 9, 42, 0
1, 96480, Note_on_c, 9, 38, 92
1, 96480, Note_on_c, 9, 33, 44
1, 96480, Note_on_c, 9, 39, 90
1, 96480, Note_on_c, 9, 42, 69
1, 96599, Note_on_c, 9, 38, 0
1, 96599, Note_on_c, 9, 33, 0
1, 96599, Note_on_c, 9, 39, 0
1, 96599, Note_on_c, 9, 42, 0
1, 96600, Note_on_c, 9, 33, 42
1, 96719, Note_on_c, 9, 33, 0
1, 96720, Note_on_c, 9, 33, 36
1, 96720, Note_on_c, 9, 42, 57
1, 96839, Note_on_c, 9, 33, 0
1, 96839, Note_on_c, 9, 42, 0
1, 96840, Note_on_c, 9, 33, 47
1, 96959, Note_on_c, 9, 33, 0
1, 96960, Note_on_c, 9, 54, 74
1, 96960, Note_on_c, 9, 33, 58
1, 96960, Note_on_c, 9, 42, 65
1, 96960, Note_on_c, 9, 36, 110
1, 97199, Note_on_c, 9, 54, 0
1, 97199, Note_on_c, 9, 33, 0
1, 97199, Note_on_c, 9, 42, 0
1, 97200, Note_on_c, 9, 33, 55
1, 97200, Note_on_c, 9, 42, 61
1, 97439, Note_on_c, 9, 36, 0
1, 97439, Note_on_c, 9, 33, 0
1, 97439, Note_on_c, 9, 42, 0
1, 97440, Note_on_c, 9, 38, 88
1, 97440, Note_on_c, 9, 33, 42
1, 97440, Note_on_c, 9, 39, 94
1, 97440, Note_on_c, 9, 42, 65
1, 97559, Note_on_c, 9, 38, 0
1, 97559, Note_on_c, 9, 33, 0
1, 97559, Note_on_c, 9, 39, 0
1, 97559, Note_on_c, 9, 42, 0
1, 97560, Note_on_c, 9, 33, 36
1, 97679, Note_on_c, 9, 33, 0
1, 97680, Note_on_c, 9, 33, 36
1, 97680, Note_on_c, 9, 42, 61
1, 97799, Note_on_c, 9, 33, 0
1, 97799, Note_on_c, 9, 42, 0
1, 97800, Note_on_c, 9, 33, 47
1, 97919, Note_on_c, 9, 33, 0
1, 97920, Note_on_c, 9, 33, 44
1, 97920, Note_on_c, 9, 42, 65
1, 97920, Note_on_c, 9, 36, 102
1, 98159, Note_on_c, 9, 33, 0
1, 98159, Note_on_c, 9, 42, 0
1, 98160, Note_on_c, 9, 33, 56
1, 98160, Note_on_c, 9, 42, 65
1, 98399, Note_on_c, 9, 36, 0
1, 98399, Note_on_c, 9, 33, 0
1, 98399, Note_on_c, 9, 42, 0
1, 98400, Note_on_c, 9, 38, 92
1, 98400, Note_on_c, 9, 33, 44
1, 98400, Note_on_c, 9, 39, 94
1, 98400, Note_on_c, 9, 42, 65
1, 98519, Note_on_c, 9, 38, 0
1, 98519, Note_on_c, 9, 33, 0
1, 98519, Note_on_c, 9, 39, 0
1, 98519, Note_on_c, 9, 42, 0
1, 98520, Note_on_c, 9, 33, 42
1, 98639, Note_on_c, 9, 33, 0
1, 98640, Note_on_c, 9, 33, 36
1, 98640, Note_on_c, 9, 42, 61
1, 98640, Note_on_c, 9, 36, 94
1, 98759, Note_on_c, 9, 33, 0
1, 98759, Note_on_c, 9, 42, 0
1, 98760, Note_on_c, 9, 33, 47
1, 98879, Note_on_c, 9, 36, 0
1, 98879, Note_on_c, 9, 33, 0
1, 98880, Note_on_c, 9, 54, 74
1, 98880, Note_on_c, 9, 33, 58
1, 98880, Note_on_c, 9, 42, 65
1, 98880, Note_on_c, 9, 36, 102
1, 99119, Note_on_c, 9, 54, 0
1, 99119, Note_on_c, 9, 33, 0
1, 99119, Note_on_c, 9, 42, 0
1, 99120, Note_on_c, 9, 33, 55
1, 99120, Note_on_c, 9, 42, 61
1, 99359, Note_on_c, 9, 36, 0
1, 99359, Note_on_c, 9, 33, 0
1, 99359, Note_on_c, 9, 42, 0
1, 99360, Note_on_c, 9, 38, 92
1, 99360, Note_on_c, 9, 33, 42
1, 99360, Note_on_c, 9, 39, 90
1, 99360, Note_on_c, 9, 42, 65
1, 99479, Note_on_c, 9, 38, 0
1, 99479, Note_on_c, 9, 33, 0
1, 99479, Note_on_c, 9, 39, 0
1, 99479, Note_on_c, 9, 42, 0
1, 99480, Note_on_c, 9, 33, 36
1, 99599, Note_on_c, 9, 33, 0
1, 99600, Note_on_c, 9, 33, 36
1, 99600, Note_on_c, 9, 42, 65
1, 99719, Note_on_c, 9, 33, 0
1, 99719, Note_on_c, 9, 42, 0
1, 99720, Note_on_c, 9, 33, 47
1, 99839, Note_on_c, 9, 33, 0
1, 99840, Note_on_c, 9, 33, 44
1, 99840, Note_on_c, 9, 42, 69
1, 99840, Note_on_c, 9, 36, 106
1, 100079, Note_on_c, 9, 33, 0
1, 100079, Note_on_c, 9, 42, 0
1, 100080, Note_on_c, 9, 33, 56
1, 100080, Note_on_c, 9, 42, 61
1, 100319, Note_on_c, 9, 36, 0
1, 100319, Note_on_c, 9, 33, 0
1, 100319, Note_on_c, 9, 42, 0
1, 100320, Note_on_c, 9, 38, 84
1, 100320, Note_on_c, 9, 33, 44
1, 100320, Note_on_c, 9, 39, 90
1, 100320, Note_on_c, 9, 42, 65
1, 100439, Note_on_c, 9, 38, 0
1, 100439, Note_on_c, 9, 33, 0
1, 100439, Note_on_c, 9, 39, 0
1, 100439, Note_on_c, 9, 42, 0
1, 100440, Note_on_c, 9, 33, 42
1, 100559, Note_on_c, 9, 33, 0
1, 100560, Note_on_c, 9, 33, 36
1, 100560, Note_on_c, 9, 42, 69
1, 100679, Note_on_c, 9, 33, 0
1, 100679, Note_on_c, 9, 42, 0
1, 100680, Note_on_c, 9, 33, 47
1, 100799, Note_on_c, 9, 33, 0
1, 100800, Note_on_c, 9, 54, 74
1, 100800, Note_on_c, 9, 33, 58
1, 100800, Note_on_c, 9, 42, 65
1, 100800, Note_on_c, 9, 36, 106
1, 101039, Note_on_c, 9, 54, 0
1, 101039, Note_on_c, 9, 33, 0
1, 101039, Note_on_c, 9, 42, 0
1, 101040, Note_on_c, 9, 33, 55
1, 101040, Note_on_c, 9, 42, 65
1, 101279, Note_on_c, 9, 36, 0
1, 101279, Note_on_c, 9, 33, 0
1, 101279, Note_on_c, 9, 42, 0
1, 101280, Note_on_c, 9, 38, 88
1, 101280, Note_on_c, 9, 33, 42
1, 101280, Note_on_c, 9, 39, 90
1, 101280, Note_on_c, 9, 42, 65
1, 101399, Note_on_c, 9, 38, 0
1, 101399, Note_on_c, 9, 33, 0
1, 101399, Note_on_c, 9, 39, 0
1, 101399, Note_on_c, 9, 42, 0
1, 101400, Note_on_c, 9, 33, 36
1, 101519, Note_on_c, 9, 33, 0
1, 101520, Note_on_c, 9, 33, 36
1, 101520, Note_on_c, 9, 42, 65
1, 101639, Note_on_c, 9, 33, 0
1, 101639, Note_on_c, 9, 42, 0
1, 101640, Note_on_c, 9, 33, 47
1, 101759, Note_on_c, 9, 33, 0
1, 101760, Note_on_c, 9, 33, 44
1, 101760, Note_on_c, 9, 42, 69
1, 101760, Note_on_c, 9, 36, 106
1, 101999, Note_on_c, 9, 33, 0
1, 101999, Note_on_c, 9, 42, 0
1, 102000, Note_on_c, 9, 33, 56
1, 102000, Note_on_c, 9, 42, 61
1, 102239, Note_on_c, 9, 36, 0
1, 102239, Note_on_c, 9, 33, 0
1, 102239, Note_on_c, 9, 42, 0
1, 102240, Note_on_c, 9, 38, 84
1, 102240, Note_on_c, 9, 33, 44
1, 102240, Note_on_c, 9, 39, 94
1, 102240, Note_on_c, 9, 42, 73
1, 102359, Note_on_c, 9, 38, 0
1, 102359, Note_on_c, 9, 33, 0
1, 102359, Note_on_c, 9, 39, 0
1, 102359, Note_on_c, 9, 42, 0
1, 102360, Note_on_c, 9, 33, 42
1, 102479, Note_on_c, 9, 33, 0
1, 102480, Note_on_c, 9, 33, 36
1, 102480, Note_on_c, 9, 42, 49
1, 102480, Note_on_c, 9, 36, 94
1, 102599, Note_on_c, 9, 33, 0
1, 102599, Note_on_c, 9, 42, 0
1, 102600, Note_on_c, 9, 33, 47
1, 102719, Note_on_c, 9, 36, 0
1, 102719, Note_on_c, 9, 33, 0
1, 102720, Note_on_c, 9, 54, 74
1, 102720, Note_on_c, 9, 33, 58
1, 102720, Note_on_c, 9, 42, 61
1, 102720, Note_on_c, 9, 36, 114
1, 102959, Note_on_c, 9, 54, 0
1, 102959, Note_on_c, 9, 33, 0
1, 102959, Note_on_c, 9, 42, 0
1, 102960, Note_on_c, 9, 33, 55
1, 102960, Note_on_c, 9, 42, 57
1, 103199, Note_on_c, 9, 36, 0
1, 103199, Note_on_c, 9, 33, 0
1, 103199, Note_on_c, 9, 42, 0
1, 103200, Note_on_c, 9, 38, 88
1, 103200, Note_on_c, 9, 33, 42
1, 103200, Note_on_c, 9, 39, 90
1, 103200, Note_on_c, 9, 42, 69
1, 103319, Note_on_c, 9, 38, 0
1, 103319, Note_on_c, 9, 33, 0
1, 103319, Note_on_c, 9, 39, 0
1, 103319, Note_on_c, 9, 42, 0
1, 103320, Note_on_c, 9, 33, 36
1, 103439, Note_on_c, 9, 33, 0
1, 103440, Note_on_c, 9, 33, 36
1, 103440, Note_on_c, 9, 42, 57
1, 103559, Note_on_c, 9, 33, 0
1, 103559, Note_on_c, 9, 42, 0
1, 103560, Note_on_c, 9, 33, 47
1, 103679, Note_on_c, 9, 33, 0
1, 103680, Note_on_c, 9, 33, 44
1, 103680, Note_on_c, 9, 42, 73
1, 103680, Note_on_c, 9, 36, 114
1, 103919, Note_on_c, 9, 33, 0
1, 103919, Note_on_c, 9, 42, 0
1, 103920, Note_on_c, 9, 33, 56
1, 103920, Note_on_c, 9, 42, 53
1, 104159, Note_on_c, 9, 36, 0
1, 104159, Note_on_c, 9, 33, 0
1, 104159, Note_on_c, 9, 42, 0
1, 104160, Note_on_c, 9, 38, 88
1, 104160, Note_on_c, 9, 33, 44
1, 104160, Note_on_c, 9, 39, 90
1, 104160, Note_on_c, 9, 42, 73
1, 104279, Note_on_c, 9, 38, 0
1, 104279, Note_on_c, 9, 33, 0
1, 104279, Note_on_c, 9, 39, 0
1, 104279, Note_on_c, 9, 42, 0
1, 104280, Note_on_c, 9, 33, 42
1, 104399, Note_on_c, 9, 33, 0
1, 104400, Note_on_c, 9, 33, 36
1, 104400, Note_on_c, 9, 42, 57
1, 104519, Note_on_c, 9, 33, 0
1, 104519, Note_on_c, 9, 42, 0
1, 104520, Note_on_c, 9, 33, 47
1, 104639, Note_on_c, 9, 33, 0
1, 104640, Note_on_c, 9, 54, 74
1, 104640, Note_on_c, 9, 33, 58
1, 104640, Note_on_c, 9, 42, 65
1, 104640, Note_on_c, 9, 36, 110
1, 104879, Note_on_c, 9, 54, 0
1, 104879, Note_on_c, 9, 33, 0
1, 104879, Note_on_c, 9, 42, 0
1, 104880, Note_on_c, 9, 33, 55
1, 104880, Note_on_c, 9, 42, 61
1, 105119, Note_on_c, 9, 36, 0
1, 105119, Note_on_c, 9, 33, 0
1, 105119, Note_on_c, 9, 42, 0
1, 105120, Note_on_c, 9, 38, 80
1, 105120, Note_on_c, 9, 33, 42
1, 105120, Note_on_c, 9, 39, 94
1, 105120, Note_on_c, 9, 42, 69
1, 105239, Note_on_c, 9, 38, 0
1, 105239, Note_on_c, 9, 33, 0
1, 105239, Note_on_c, 9, 39, 0
1, 105239, Note_on_c, 9, 42, 0
1, 105240, Note_on_c, 9, 33, 36
1, 105359, Note_on_c, 9, 33, 0
1, 105360, Note_on_c, 9, 33, 36
1, 105360, Note_on_c, 9, 42, 49
1, 105479, Note_on_c, 9, 33, 0
1, 105479, Note_on_c, 9, 42, 0
1, 105480, Note_on_c, 9, 33, 47
1, 105599, Note_on_c, 9, 33, 0
1, 105600, Note_on_c, 9, 33, 44
1, 105600, Note_on_c, 9, 42, 77
1, 105600, Note_on_c, 9, 36, 102
1, 105839, Note_on_c, 9, 33, 0
1, 105839, Note_on_c, 9, 42, 0
1, 105840, Note_on_c, 9, 33, 56
1, 105840, Note_on_c, 9, 42, 61
1, 106079, Note_on_c, 9, 36, 0
1, 106079, Note_on_c, 9, 33, 0
1, 106079, Note_on_c, 9, 42, 0
1, 106080, Note_on_c, 9, 38, 84
1, 106080, Note_on_c, 9, 33, 44
1, 106080, Note_on_c, 9, 39, 94
1, 106080, Note_on_c, 9, 42, 65
1, 106199, Note_on_c, 9, 38, 0
1, 106199, Note_on_c, 9, 33, 0
1, 106199, Note_on_c, 9, 39, 0
1, 106199, Note_on_c, 9, 42, 0
1, 106200, Note_on_c, 9, 33, 42
1, 106319, Note_on_c, 9, 33, 0
1, 106320, Note_on_c, 9, 33, 36
1, 106320, Note_on_c, 9, 42, 57
1, 106320, Note_on_c, 9, 36, 94
1, 106439, Note_on_c, 9, 33, 0
1, 106439, Note_on_c, 9, 42, 0
1, 106440, Note_on_c, 9, 33, 47
1, 106559, Note_on_c, 9, 36, 0
1, 106559, Note_on_c, 9, 33, 0
1, 106560, Note_on_c, 9, 54, 74
1, 106560, Note_on_c, 9, 33, 58
1, 106560, Note_on_c, 9, 42, 65
1, 106560, Note_on_c, 9, 36, 102
1, 106799, Note_on_c, 9, 54, 0
1, 106799, Note_on_c, 9, 33, 0
1, 106799, Note_on_c, 9, 42, 0
1, 106800, Note_on_c, 9, 33, 55
1, 106800, Note_on_c, 9, 42, 57
1, 107039, Note_on_c, 9, 36, 0
1, 107039, Note_on_c, 9, 33, 0
1, 107039, Note_on_c, 9, 42, 0
1, 107040, Note_on_c, 9, 38, 88
1, 107040, Note_on_c, 9, 33, 42
1, 107040, Note_on_c, 9, 39, 90
1, 107040, Note_on_c, 9, 42, 73
1, 107159, Note_on_c, 9, 38, 0
1, 107159, Note_on_c, 9, 33, 0
1, 107159, Note_on_c, 9, 39, 0
1, 107159, Note_on_c, 9, 42, 0
1, 107160, Note_on_c, 9, 33, 36
1, 107279, Note_on_c, 9, 33, 0
1, 107280, Note_on_c, 9, 33, 36
1, 107280, Note_on_c, 9, 42, 57
1, 107399, Note_on_c, 9, 33, 0
1, 107399, Note_on_c, 9, 42, 0
1, 107400, Note_on_c, 9, 33, 47
1, 107519, Note_on_c, 9, 33, 0
1, 107520, Note_on_c, 9, 33, 44
1, 107520, Note_on_c, 9, 42, 69
1, 107520, Note_on_c, 9, 36, 106
1, 107759, Note_on_c, 9, 33, 0
1, 107759, Note_on_c, 9, 42, 0
1, 107760, Note_on_c, 9, 33, 56
1, 107760, Note_on_c, 9, 42, 57
1, 107999, Note_on_c, 9, 36, 0
1, 107999, Note_on_c, 9, 33, 0
1, 107999, Note_on_c, 9, 42, 0
1, 108000, Note_on_c, 9, 38, 84
1, 108000, Note_on_c, 9, 33, 44
1, 108000, Note_on_c, 9, 39, 90
1, 108000, Note_on_c, 9, 42, 69
1, 108119, Note_on_c, 9, 38, 0
1, 108119, Note_on_c, 9, 33, 0
1, 108119, Note_on_c, 9, 39, 0
1, 108119, Note_on_c, 9, 42, 0
1, 108120, Note_on_c, 9, 33, 42
1, 108239, Note_on_c, 9, 33, 0
1, 108240, Note_on_c, 9, 33, 36
1, 108240, Note_on_c, 9, 42, 61
1, 108359, Note_on_c, 9, 33, 0
1, 108359, Note_on_c, 9, 42, 0
1, 108360, Note_on_c, 9, 33, 47
1, 108479, Note_on_c, 9, 33, 0
1, 108480, Note_on_c, 9, 54, 74
1, 108480, Note_on_c, 9, 33, 58
1, 108480, Note_on_c, 9, 42, 65
1, 108480, Note_on_c, 9, 36, 106
1, 108719, Note_on_c, 9, 54, 0
1, 108719, Note_on_c, 9, 33, 0
1, 108719, Note_on_c, 9, 42, 0
1, 108720, Note_on_c, 9, 33, 55
1, 108720, Note_on_c, 9, 42, 61
1, 108959, Note_on_c, 9, 36, 0
1, 108959, Note_on_c, 9, 33, 0
1, 108959, Note_on_c, 9, 42, 0
1, 108960, Note_on_c, 9, 38, 88
1, 108960, Note_on_c, 9, 33, 42
1, 108960, Note_on_c, 9, 39, 90
1, 108960, Note_on_c, 9, 42, 69
1, 109079, Note_on_c, 9, 38, 0
1, 109079, Note_on_c, 9, 33, 0
1, 109079, Note_on_c, 9, 39, 0
1, 109079, Note_on_c, 9, 42, 0
1, 109080, Note_on_c, 9, 33, 36
1, 109199, Note_on_c, 9, 33, 0
1, 109200, Note_on_c, 9, 33, 36
1, 109200, Note_on_c, 9, 42, 61
1, 109319, Note_on_c, 9, 33, 0
1, 109319, Note_on_c, 9, 42, 0
1, 109320, Note_on_c, 9, 33, 47
1, 109439, Note_on_c, 9, 33, 0
1, 109440, Note_on_c, 9, 33, 44
1, 109440, Note_on_c, 9, 42, 61
1, 109440, Note_on_c, 9, 36, 106
1, 109679, Note_on_c, 9, 33, 0
1, 109679, Note_on_c, 9, 42, 0
1, 109680, Note_on_c, 9, 33, 56
1, 109680, Note_on_c, 9, 42, 61
1, 109799, Note_on_c, 9, 33, 0
1, 109799, Note_on_c, 9, 42, 0
1, 109800, Note_on_c, 9, 38, 100
1, 109919, Note_on_c, 9, 36, 0
1, 109919, Note_on_c, 9, 38, 0
1, 109920, Note_on_c, 9, 33, 44
1, 109920, Note_on_c, 9, 39, 94
1, 109920, Note_on_c, 9, 42, 65
1, 110039, Note_on_c, 9, 33, 0
1, 110039, Note_on_c, 9, 39, 0
1, 110039, Note_on_c, 9, 42, 0
1, 110040, Note_on_c, 9, 33, 42
1, 110159, Note_on_c, 9, 33, 0
1, 110160, Note_on_c, 9, 38, 100
1, 110160, Note_on_c, 9, 46, 99
1, 110160, Note_on_c, 9, 33, 36
1, 110160, Note_on_c, 9, 42, 53
1, 110160, Note_on_c, 9, 36, 94
1, 110279, Note_on_c, 9, 38, 0
1, 110279, Note_on_c, 9, 46, 0
1, 110279, Note_on_c, 9, 33, 0
1, 110279, Note_on_c, 9, 42, 0
1, 110280, Note_on_c, 9, 33, 47
1, 110399, Note_on_c, 9, 36, 0
1, 110399, Note_on_c, 9, 33, 0
1, 110400, Note_on_c, 9, 54, 74
1, 110400, Note_on_c, 9, 33, 58
1, 110400, Note_on_c, 9, 42, 61
1, 110400, Note_on_c, 9, 36, 114
1, 110639, Note_on_c, 9, 54, 0
1, 110639, Note_on_c, 9, 33, 0
1, 110639, Note_on_c, 9, 42, 0
1, 110640, Note_on_c, 9, 38, 100
1, 110640, Note_on_c, 9, 33, 55
1, 110640, Note_on_c, 9, 42, 97
1, 110759, Note_on_c, 9, 38, 0
1, 110759, Note_on_c, 9, 33, 0
1, 110759, Note_on_c, 9, 42, 0
1, 110760, Note_on_c, 9, 42, 77
1, 110879, Note_on_c, 9, 36, 0
1, 110879, Note_on_c, 9, 42, 0
1, 110880, Note_on_c, 9, 38, 96
1, 110880, Note_on_c, 9, 33, 42
1, 110880, Note_on_c, 9, 39, 90
1, 110999, Note_on_c, 9, 38, 0
1, 110999, Note_on_c, 9, 33, 0
1, 110999, Note_on_c, 9, 39, 0
1, 111000, Note_on_c, 9, 38, 88
1, 111000, Note_on_c, 9, 33, 36
1, 111119, Note_on_c, 9, 38, 0
1, 111119, Note_on_c, 9, 33, 0
1, 111120, Note_on_c, 9, 41, 100
1, 111120, Note_on_c, 9, 46, 53
1, 111120, Note_on_c, 9, 33, 36
1, 111239, Note_on_c, 9, 41, 0
1, 111239, Note_on_c, 9, 46, 0
1, 111239, Note_on_c, 9, 33, 0
1, 111240, Note_on_c, 9, 33, 47
1, 111359, Note_on_c, 9, 33, 0
1, 111360, Note_on_c, 9, 42, 73
1, 111360, Note_on_c, 9, 49, 44
1, 111360, Note_on_c, 9, 36, 114
1, 111599, Note_on_c, 9, 42, 0
1, 111599, Note_on_c, 9, 49, 0
1, 111600, Note_on_c, 9, 42, 69
1, 111839, Note_on_c, 9, 36, 0
1, 111839, Note_on_c, 9, 42, 0
1, 111840, Note_on_c, 9, 38, 97
1, 111840, Note_on_c, 9, 39, 80
1, 111840, Note_on_c, 9, 42, 69
1, 112079, Note_on_c, 9, 38, 0
1, 112079, Note_on_c, 9, 39, 0
1, 112079, Note_on_c, 9, 42, 0
1, 112080, Note_on_c, 9, 42, 57
1, 112319, Note_on_c, 9, 42, 0
1, 112320, Note_on_c, 9, 54, 74
1, 112320, Note_on_c, 9, 42, 65
1, 112320, Note_on_c, 9, 36, 110
1, 112559, Note_on_c, 9, 54, 0
1, 112559, Note_on_c, 9, 42, 0
1, 112560, Note_on_c, 9, 42, 61
1, 112799, Note_on_c, 9, 36, 0
1, 112799, Note_on_c, 9, 42, 0
1, 112800, Note_on_c, 9, 38, 93
1, 112800, Note_on_c, 9, 39, 84
1, 112800, Note_on_c, 9, 42, 65
1, 113039, Note_on_c, 9, 38, 0
1, 113039, Note_on_c, 9, 39, 0
1, 113039, Note_on_c, 9, 42, 0
1, 113040, Note_on_c, 9, 42, 61
1, 113279, Note_on_c, 9, 42, 0
1, 113280, Note_on_c, 9, 42, 65
1, 113280, Note_on_c, 9, 36, 102
1, 113519, Note_on_c, 9, 42, 0
1, 113520, Note_on_c, 9, 42, 65
1, 113759, Note_on_c, 9, 36, 0
1, 113759, Note_on_c, 9, 42, 0
1, 113760, Note_on_c, 9, 38, 97
1, 113760, Note_on_c, 9, 39, 84
1, 113760, Note_on_c, 9, 42, 65
1, 113999, Note_on_c, 9, 38, 0
1, 113999, Note_on_c, 9, 39, 0
1, 113999, Note_on_c, 9, 42, 0
1, 114000, Note_on_c, 9, 42, 61
1, 114000, Note_on_c, 9, 36, 94
1, 114239, Note_on_c, 9, 42, 0
1, 114239, Note_on_c, 9, 36, 0
1, 114240, Note_on_c, 9, 54, 74
1, 114240, Note_on_c, 9, 42, 65
1, 114240, Note_on_c, 9, 36, 102
1, 114479, Note_on_c, 9, 54, 0
1, 114479, Note_on_c, 9, 42, 0
1, 114480, Note_on_c, 9, 42, 61
1, 114719, Note_on_c, 9, 36, 0
1, 114719, Note_on_c, 9, 42, 0
1, 114720, Note_on_c, 9, 38, 97
1, 114720, Note_on_c, 9, 39, 80
1, 114720, Note_on_c, 9, 42, 65
1, 114959, Note_on_c, 9, 38, 0
1, 114959, Note_on_c, 9, 39, 0
1, 114959, Note_on_c, 9, 42, 0
1, 114960, Note_on_c, 9, 42, 65
1, 115199, Note_on_c, 9, 42, 0
1, 115200, Note_on_c, 9, 42, 69
1, 115200, Note_on_c, 9, 36, 106
1, 115439, Note_on_c, 9, 42, 0
1, 115440, Note_on_c, 9, 42, 61
1, 115679, Note_on_c, 9, 36, 0
1, 115679, Note_on_c, 9, 42, 0
1, 115680, Note_on_c, 9, 38, 89
1, 115680, Note_on_c, 9, 39, 80
1, 115680, Note_on_c, 9, 42, 65
1, 115919, Note_on_c, 9, 38, 0
1, 115919, Note_on_c, 9, 39, 0
1, 115919, Note_on_c, 9, 42, 0
1, 115920, Note_on_c, 9, 42, 69
1, 116159, Note_on_c, 9, 42, 0
1, 116160, Note_on_c, 9, 54, 74
1, 116160, Note_on_c, 9, 42, 65
1, 116160, Note_on_c, 9, 36, 106
1, 116399, Note_on_c, 9, 54, 0
1, 116399, Note_on_c, 9, 42, 0
1, 116400, Note_on_c, 9, 42, 65
1, 116639, Note_on_c, 9, 36, 0
1, 116639, Note_on_c, 9, 42, 0
1, 116640, Note_on_c, 9, 38, 93
1, 116640, Note_on_c, 9, 39, 80
1, 116640, Note_on_c, 9, 42, 65
1, 116879, Note_on_c, 9, 38, 0
1, 116879, Note_on_c, 9, 39, 0
1, 116879, Note_on_c, 9, 42, 0
1, 116880, Note_on_c, 9, 42, 65
1, 117119, Note_on_c, 9, 42, 0
1, 117120, Note_on_c, 9, 42, 69
1, 117120, Note_on_c, 9, 36, 106
1, 117359, Note_on_c, 9, 42, 0
1, 117360, Note_on_c, 9, 42, 61
1, 117599, Note_on_c, 9, 36, 0
1, 117599, Note_on_c, 9, 42, 0
1, 117600, Note_on_c, 9, 38, 89
1, 117600, Note_on_c, 9, 39, 84
1, 117600, Note_on_c, 9, 42, 73
1, 117839, Note_on_c, 9, 38, 0
1, 117839, Note_on_c, 9, 39, 0
1, 117839, Note_on_c, 9, 42, 0
1, 117840, Note_on_c, 9, 42, 49
1, 117840, Note_on_c, 9, 36, 94
1, 118079, Note_on_c, 9, 42, 0
1, 118079, Note_on_c, 9, 36, 0
1, 118080, Note_on_c, 9, 54, 74
1, 118080, Note_on_c, 9, 42, 61
1, 118080, Note_on_c, 9, 36, 114
1, 118319, Note_on_c, 9, 54, 0
1, 118319, Note_on_c, 9, 42, 0
1, 118320, Note_on_c, 9, 42, 57
1, 118559, Note_on_c, 9, 36, 0
1, 118559, Note_on_c, 9, 42, 0
1, 118560, Note_on_c, 9, 38, 93
1, 118560, Note_on_c, 9, 39, 80
1, 118560, Note_on_c, 9, 42, 69
1, 118560, Note_on_c, 9, 57, 44
1, 118799, Note_on_c, 9, 38, 0
1, 118799, Note_on_c, 9, 39, 0
1, 118799, Note_on_c, 9, 42, 0
1, 118799, Note_on_c, 9, 57, 0
1, 118800, Note_on_c, 9, 42, 57
1, 119039, Note_on_c, 9, 42, 0
1, 119040, Note_on_c, 9, 42, 73
1, 119040, Note_on_c, 9, 36, 114
1, 119279, Note_on_c, 9, 42, 0
1, 119280, Note_on_c, 9, 42, 53
1, 119519, Note_on_c, 9, 36, 0
1, 119519, Note_on_c, 9, 42, 0
1, 119520, Note_on_c, 9, 38, 93
1, 119520, Note_on_c, 9, 39, 80
1, 119520, Note_on_c, 9, 42, 73
1, 119759, Note_on_c, 9, 38, 0
1, 119759, Note_on_c, 9, 39, 0
1, 119759, Note_on_c, 9, 42, 0
1, 119760, Note_on_c, 9, 42, 57
1, 119999, Note_on_c, 9, 42, 0
1, 120000, Note_on_c, 9, 54, 74
1, 120000, Note_on_c, 9, 42, 65
1, 120000, Note_on_c, 9, 36, 110
1, 120239, Note_on_c, 9, 54, 0
1, 120239, Note_on_c, 9, 42, 0
1, 120240, Note_on_c, 9, 42, 61
1, 120479, Note_on_c, 9, 36, 0
1, 120479, Note_on_c, 9, 42, 0
1, 120480, Note_on_c, 9, 38, 85
1, 120480, Note_on_c, 9, 39, 84
1, 120480, Note_on_c, 9, 42, 69
1, 120719, Note_on_c, 9, 38, 0
1, 120719, Note_on_c, 9, 39, 0
1, 120719, Note_on_c, 9, 42, 0
1, 120720, Note_on_c, 9, 42, 49
1, 120959, Note_on_c, 9, 42, 0
1, 120960, Note_on_c, 9, 42, 77
1, 120960, Note_on_c, 9, 36, 102
1, 121199, Note_on_c, 9, 42, 0
1, 121200, Note_on_c, 9, 42, 61
1, 121439, Note_on_c, 9, 36, 0
1, 121439, Note_on_c, 9, 42, 0
1, 121440, Note_on_c, 9, 38, 89
1, 121440, Note_on_c, 9, 39, 84
1, 121440, Note_on_c, 9, 42, 65
1, 121679, Note_on_c, 9, 38, 0
1, 121679, Note_on_c, 9, 39, 0
1, 121679, Note_on_c, 9, 42, 0
1, 121680, Note_on_c, 9, 42, 57
1, 121680, Note_on_c, 9, 36, 94
1, 121919, Note_on_c, 9, 42, 0
1, 121919, Note_on_c, 9, 36, 0
1, 121920, Note_on_c, 9, 54, 74
1, 121920, Note_on_c, 9, 42, 65
1, 121920, Note_on_c, 9, 36, 102
1, 122159, Note_on_c, 9, 54, 0
1, 122159, Note_on_c, 9, 42, 0
1, 122160, Note_on_c, 9, 42, 57
1, 122399, Note_on_c, 9, 36, 0
1, 122399, Note_on_c, 9, 42, 0
1, 122400, Note_on_c, 9, 38, 93
1, 122400, Note_on_c, 9, 39, 80
1, 122400, Note_on_c, 9, 42, 73
1, 122639, Note_on_c, 9, 38, 0
1, 122639, Note_on_c, 9, 39, 0
1, 122639, Note_on_c, 9, 42, 0
1, 122640, Note_on_c, 9, 42, 57
1, 122879, Note_on_c, 9, 42, 0
1, 122880, Note_on_c, 9, 42, 69
1, 122880, Note_on_c, 9, 36, 106
1, 123119, Note_on_c, 9, 42, 0
1, 123120, Note_on_c, 9, 42, 57
1, 123359, Note_on_c, 9, 36, 0
1, 123359, Note_on_c, 9, 42, 0
1, 123360, Note_on_c, 9, 38, 89
1, 123360, Note_on_c, 9, 39, 80
1, 123360, Note_on_c, 9, 42, 69
1, 123599, Note_on_c, 9, 38, 0
1, 123599, Note_on_c, 9, 39, 0
1, 123599, Note_on_c, 9, 42, 0
1, 123600, Note_on_c, 9, 42, 61
1, 123839, Note_on_c, 9, 42, 0
1, 123840, Note_on_c, 9, 54, 74
1, 123840, Note_on_c, 9, 42, 65
1, 123840, Note_on_c, 9, 36, 106
1, 124079, Note_on_c, 9, 54, 0
1, 124079, Note_on_c, 9, 42, 0
1, 124080, Note_on_c, 9, 42, 61
1, 124319, Note_on_c, 9, 36, 0
1, 124319, Note_on_c, 9, 42, 0
1, 124320, Note_on_c, 9, 38, 93
1, 124320, Note_on_c, 9, 39, 80
1, 124320, Note_on_c, 9, 42, 69
1, 124559, Note_on_c, 9, 38, 0
1, 124559, Note_on_c, 9, 39, 0
1, 124559, Note_on_c, 9, 42, 0
1, 124560, Note_on_c, 9, 42, 61
1, 124799, Note_on_c, 9, 42, 0
1, 124800, Note_on_c, 9, 42, 77
1, 124800, Note_on_c, 9, 36, 102
1, 125039, Note_on_c, 9, 42, 0
1, 125040, Note_on_c, 9, 42, 61
1, 125279, Note_on_c, 9, 36, 0
1, 125279, Note_on_c, 9, 42, 0
1, 125280, Note_on_c, 9, 38, 89
1, 125280, Note_on_c, 9, 39, 84
1, 125280, Note_on_c, 9, 42, 65
1, 125519, Note_on_c, 9, 38, 0
1, 125519, Note_on_c, 9, 39, 0
1, 125519, Note_on_c, 9, 42, 0
1, 125520, Note_on_c, 9, 42, 57
1, 125520, Note_on_c, 9, 36, 94
1, 125759, Note_on_c, 9, 42, 0
1, 125759, Note_on_c, 9, 36, 0
1, 125760, Note_on_c, 9, 54, 74
1, 125760, Note_on_c, 9, 42, 65
1, 125760, Note_on_c, 9, 36, 102
1, 125999, Note_on_c, 9, 54, 0
1, 125999, Note_on_c, 9, 42, 0
1, 126000, Note_on_c, 9, 42, 57
1, 126239, Note_on_c, 9, 36, 0
1, 126239, Note_on_c, 9, 42, 0
1, 126240, Note_on_c, 9, 38, 93
1, 126240, Note_on_c, 9, 39, 80
1, 126240, Note_on_c, 9, 42, 73
1, 126479, Note_on_c, 9, 38, 0
1, 126479, Note_on_c, 9, 39, 0
1, 126479, Note_on_c, 9, 42, 0
1, 126480, Note_on_c, 9, 42, 57
1, 126719, Note_on_c, 9, 42, 0
1, 126720, Note_on_c, 9, 42, 69
1, 126720, Note_on_c, 9, 36, 106
1, 126959, Note_on_c, 9, 42, 0
1, 126960, Note_on_c, 9, 42, 57
1, 127199, Note_on_c, 9, 36, 0
1, 127199, Note_on_c, 9, 42, 0
1, 127200, Note_on_c, 9, 38, 89
1, 127200, Note_on_c, 9, 39, 80
1, 127200, Note_on_c, 9, 42, 69
1, 127439, Note_on_c, 9, 38, 0
1, 127439, Note_on_c, 9, 39, 0
1, 127439, Note_on_c, 9, 42, 0
1, 127440, Note_on_c, 9, 42, 61
1, 127679, Note_on_c, 9, 42, 0
1, 127680, Note_on_c, 9, 54, 74
1, 127680, Note_on_c, 9, 42, 65
1, 127680, Note_on_c, 9, 36, 106
1, 127919, Note_on_c, 9, 54, 0
1, 127919, Note_on_c, 9, 42, 0
1, 127920, Note_on_c, 9, 42, 61
1, 128159, Note_on_c, 9, 36, 0
1, 128159, Note_on_c, 9, 42, 0
1, 128160, Note_on_c, 9, 38, 93
1, 128160, Note_on_c, 9, 39, 80
1, 128160, Note_on_c, 9, 42, 69
1, 128399, Note_on_c, 9, 38, 0
1, 128399, Note_on_c, 9, 39, 0
1, 128399, Note_on_c, 9, 42, 0
1, 128400, Note_on_c, 9, 42, 61
1, 128639, Note_on_c, 9, 42, 0
1, 128640, Note_on_c, 9, 42, 77
1, 128640, Note_on_c, 9, 36, 102
1, 128879, Note_on_c, 9, 42, 0
1, 128880, Note_on_c, 9, 42, 61
1, 129119, Note_on_c, 9, 36, 0
1, 129119, Note_on_c, 9, 42, 0
1, 129120, Note_on_c, 9, 38, 89
1, 129120, Note_on_c, 9, 39, 84
1, 129120, Note_on_c, 9, 42, 65
1, 129359, Note_on_c, 9, 38, 0
1, 129359, Note_on_c, 9, 39, 0
1, 129359, Note_on_c, 9, 42, 0
1, 129360, Note_on_c, 9, 42, 57
1, 129360, Note_on_c, 9, 36, 94
1, 129599, Note_on_c, 9, 42, 0
1, 129599, Note_on_c, 9, 36, 0
1, 129600, Note_on_c, 9, 54, 74
1, 129600, Note_on_c, 9, 42, 65
1, 129600, Note_on_c, 9, 36, 102
1, 129839, Note_on_c, 9, 54, 0
1, 129839, Note_on_c, 9, 42, 0
1, 129840, Note_on_c, 9, 42, 57
1, 130079, Note_on_c, 9, 36, 0
1, 130079, Note_on_c, 9, 42, 0
1, 130080, Note_on_c, 9, 38, 93
1, 130080, Note_on_c, 9, 39, 80
1, 130080, Note_on_c, 9, 42, 73
1, 130319, Note_on_c, 9, 38, 0
1, 130319, Note_on_c, 9, 39, 0
1, 130319, Note_on_c, 9, 42, 0
1, 130320, Note_on_c, 9, 42, 57
1, 130559, Note_on_c, 9, 42, 0
1, 130560, Note_on_c, 9, 42, 69
1, 130560, Note_on_c, 9, 36, 106
1, 130799, Note_on_c, 9, 42, 0
1, 130800, Note_on_c, 9, 42, 57
1, 131039, Note_on_c, 9, 36, 0
1, 131039, Note_on_c, 9, 42, 0
1, 131040, Note_on_c, 9, 38, 89
1, 131040, Note_on_c, 9, 39, 80
1, 131040, Note_on_c, 9, 42, 69
1, 131279, Note_on_c, 9, 38, 0
1, 131279, Note_on_c, 9, 39, 0
1, 131279, Note_on_c, 9, 42, 0
1, 131280, Note_on_c, 9, 42, 61
1, 131519, Note_on_c, 9, 42, 0
1, 131520, Note_on_c, 9, 54, 74
1, 131520, Note_on_c, 9, 42, 65
1, 131520, Note_on_c, 9, 36, 106
1, 131759, Note_on_c, 9, 54, 0
1, 131759, Note_on_c, 9, 42, 0
1, 131760, Note_on_c, 9, 42, 61
1, 131999, Note_on_c, 9, 36, 0
1, 131999, Note_on_c, 9, 42, 0
1, 132000, Note_on_c, 9, 38, 93
1, 132000, Note_on_c, 9, 39, 80
1, 132000, Note_on_c, 9, 42, 69
1, 132239, Note_on_c, 9, 38, 0
1, 132239, Note_on_c, 9, 39, 0
1, 132239, Note_on_c, 9, 42, 0
1, 132240, Note_on_c, 9, 42, 61
1, 132479, Note_on_c, 9, 42, 0
1, 132480, Note_on_c, 9, 42, 77
1, 132480, Note_on_c, 9, 36, 102
1, 132719, Note_on_c, 9, 42, 0
1, 132720, Note_on_c, 9, 42, 61
1, 132959, Note_on_c, 9, 36, 0
1, 132959, Note_on_c, 9, 42, 0
1, 132960, Note_on_c, 9, 38, 89
1, 132960, Note_on_c, 9, 39, 84
1, 132960, Note_on_c, 9, 42, 65
1, 133199, Note_on_c, 9, 38, 0
1, 133199, Note_on_c, 9, 39, 0
1, 133199, Note_on_c, 9, 42, 0
1, 133200, Note_on_c, 9, 42, 57
1, 133200, Note_on_c, 9, 36, 94
1, 133439, Note_on_c, 9, 42, 0
1, 133439, Note_on_c, 9, 36, 0
1, 133440, Note_on_c, 9, 54, 74
1, 133440, Note_on_c, 9, 42, 65
1, 133440, Note_on_c, 9, 36, 102
1, 133679, Note_on_c, 9, 54, 0
1, 133679, Note_on_c, 9, 42, 0
1, 133680, Note_on_c, 9, 42, 57
1, 133919, Note_on_c, 9, 36, 0
1, 133919, Note_on_c, 9, 42, 0
1, 133920, Note_on_c, 9, 38, 93
1, 133920, Note_on_c, 9, 39, 80
1, 133920, Note_on_c, 9, 42, 73
1, 134159, Note_on_c, 9, 38, 0
1, 134159, Note_on_c, 9, 39, 0
1, 134159, Note_on_c, 9, 42, 0
1, 134160, Note_on_c, 9, 42, 57
1, 134399, Note_on_c, 9, 42, 0
1, 134400, Note_on_c, 9, 42, 69
1, 134400, Note_on_c, 9, 36, 106
1, 134639, Note_on_c, 9, 42, 0
1, 134640, Note_on_c, 9, 42, 57
1, 134879, Note_on_c, 9, 36, 0
1, 134879, Note_on_c, 9, 42, 0
1, 134880, Note_on_c, 9, 38, 89
1, 134880, Note_on_c, 9, 39, 80
1, 134880, Note_on_c, 9, 42, 69
1, 135119, Note_on_c, 9, 38, 0
1, 135119, Note_on_c, 9, 39, 0
1, 135119, Note_on_c, 9, 42, 0
1, 135120, Note_on_c, 9, 42, 61
1, 135359, Note_on_c, 9, 42, 0
1, 135360, Note_on_c, 9, 54, 74
1, 135360, Note_on_c, 9, 42, 65
1, 135360, Note_on_c, 9, 36, 106
1, 135599, Note_on_c, 9, 54, 0
1, 135599, Note_on_c, 9, 42, 0
1, 135600, Note_on_c, 9, 42, 61
1, 135839, Note_on_c, 9, 36, 0
1, 135839, Note_on_c, 9, 42, 0
1, 135840, Note_on_c, 9, 38, 93
1, 135840, Note_on_c, 9, 39, 80
1, 135840, Note_on_c, 9, 42, 69
1, 136079, Note_on_c, 9, 38, 0
1, 136079, Note_on_c, 9, 39, 0
1, 136079, Note_on_c, 9, 42, 0
1, 136080, Note_on_c, 9, 42, 61
1, 136319, Note_on_c, 9, 42, 0
1, 136320, Note_on_c, 9, 42, 77
1, 136320, Note_on_c, 9, 36, 102
1, 136559, Note_on_c, 9, 42, 0
1, 136560, Note_on_c, 9, 42, 61
1, 136799, Note_on_c, 9, 36, 0
1, 136799, Note_on_c, 9, 42, 0
1, 136800, Note_on_c, 9, 38, 89
1, 136800, Note_on_c, 9, 39, 84
1, 136800, Note_on_c, 9, 42, 65
1, 137039, Note_on_c, 9, 38, 0
1, 137039, Note_on_c, 9, 39, 0
1, 137039, Note_on_c, 9, 42, 0
1, 137040, Note_on_c, 9, 42, 57
1, 137040, Note_on_c, 9, 36, 94
1, 137279, Note_on_c, 9, 42, 0
1, 137279, Note_on_c, 9, 36, 0
1, 137280, Note_on_c, 9, 54, 74
1, 137280, Note_on_c, 9, 42, 65
1, 137280, Note_on_c, 9, 36, 102
1, 137519, Note_on_c, 9, 54, 0
1, 137519, Note_on_c, 9, 42, 0
1, 137520, Note_on_c, 9, 42, 57
1, 137759, Note_on_c, 9, 36, 0
1, 137759, Note_on_c, 9, 42, 0
1, 137760, Note_on_c, 9, 38, 93
1, 137760, Note_on_c, 9, 39, 80
1, 137760, Note_on_c, 9, 42, 73
1, 137999, Note_on_c, 9, 38, 0
1, 137999, Note_on_c, 9, 39, 0
1, 137999, Note_on_c, 9, 42, 0
1, 138000, Note_on_c, 9, 42, 57
1, 138239, Note_on_c, 9, 42, 0
1, 138240, Note_on_c, 9, 42, 69
1, 138240, Note_on_c, 9, 36, 106
1, 138479, Note_on_c, 9, 42, 0
1, 138480, Note_on_c, 9, 42, 57
1, 138719, Note_on_c, 9, 36, 0
1, 138719, Note_on_c, 9, 42, 0
1, 138720, Note_on_c, 9, 38, 89
1, 138720, Note_on_c, 9, 39, 80
1, 138720, Note_on_c, 9, 42, 69
1, 138959, Note_on_c, 9, 38, 0
1, 138959, Note_on_c, 9, 39, 0
1, 138959, Note_on_c, 9, 42, 0
1, 138960, Note_on_c, 9, 42, 61
1, 139199, Note_on_c, 9, 42, 0
1, 139200, Note_on_c, 9, 54, 74
1, 139200, Note_on_c, 9, 42, 65
1, 139200, Note_on_c, 9, 36, 106
1, 139439, Note_on_c, 9, 54, 0
1, 139439, Note_on_c, 9, 42, 0
1, 139440, Note_on_c, 9, 42, 61
1, 139679, Note_on_c, 9, 36, 0
1, 139679, Note_on_c, 9, 42, 0
1, 139680, Note_on_c, 9, 38, 93
1, 139680, Note_on_c, 9, 39, 80
1, 139680, Note_on_c, 9, 42, 69
1, 139919, Note_on_c, 9, 38, 0
1, 139919, Note_on_c, 9, 39, 0
1, 139919, Note_on_c, 9, 42, 0
1, 139920, Note_on_c, 9, 42, 61
1, 140159, Note_on_c, 9, 42, 0
1, 140160, Note_on_c, 9, 42, 77
1, 140160, Note_on_c, 9, 36, 102
1, 140399, Note_on_c, 9, 42, 0
1, 140400, Note_on_c, 9, 42, 61
1, 140639, Note_on_c, 9, 36, 0
1, 140639, Note_on_c, 9, 42, 0
1, 140640, Note_on_c, 9, 38, 89
1, 140640, Note_on_c, 9, 39, 84
1, 140640, Note_on_c, 9, 42, 65
1, 140879, Note_on_c, 9, 38, 0
1, 140879, Note_on_c, 9, 39, 0
1, 140879, Note_on_c, 9, 42, 0
1, 140880, Note_on_c, 9, 42, 57
1, 140880, Note_on_c, 9, 36, 94
1, 141119, Note_on_c, 9, 42, 0
1, 141119, Note_on_c, 9, 36, 0
1, 141120, Note_on_c, 9, 54, 74
1, 141120, Note_on_c, 9, 42, 65
1, 141120, Note_on_c, 9, 36, 102
1, 141359, Note_on_c, 9, 54, 0
1, 141359, Note_on_c, 9, 42, 0
1, 141360, Note_on_c, 9, 42, 57
1, 141599, Note_on_c, 9, 36, 0
1, 141599, Note_on_c, 9, 42, 0
1, 141600, Note_on_c, 9, 38, 93
1, 141600, Note_on_c, 9, 39, 80
1, 141600, Note_on_c, 9, 42, 73
1, 141839, Note_on_c, 9, 38, 0
1, 141839, Note_on_c, 9, 39, 0
1, 141839, Note_on_c, 9, 42, 0
1, 141840, Note_on_c, 9, 42, 57
1, 142079, Note_on_c, 9, 42, 0
1, 142080, Note_on_c, 9, 33, 44
1, 142080, Note_on_c, 9, 42, 69
1, 142080, Note_on_c, 9, 36, 106
1, 142319, Note_on_c, 9, 33, 0
1, 142319, Note_on_c, 9, 42, 0
1, 142320, Note_on_c, 9, 33, 56
1, 142320, Note_on_c, 9, 42, 57
1, 142559, Note_on_c, 9, 36, 0
1, 142559, Note_on_c, 9, 33, 0
1, 142559, Note_on_c, 9, 42, 0
1, 142560, Note_on_c, 9, 38, 89
1, 142560, Note_on_c, 9, 33, 44
1, 142560, Note_on_c, 9, 39, 80
1, 142560, Note_on_c, 9, 42, 69
1, 142679, Note_on_c, 9, 38, 0
1, 142679, Note_on_c, 9, 33, 0
1, 142679, Note_on_c, 9, 39, 0
1, 142679, Note_on_c, 9, 42, 0
1, 142680, Note_on_c, 9, 33, 42
1, 142799, Note_on_c, 9, 33, 0
1, 142800, Note_on_c, 9, 33, 36
1, 142800, Note_on_c, 9, 42, 61
1, 142919, Note_on_c, 9, 33, 0
1, 142919, Note_on_c, 9, 42, 0
1, 142920, Note_on_c, 9, 33, 47
1, 143039, Note_on_c, 9, 33, 0
1, 143040, Note_on_c, 9, 54, 74
1, 143040, Note_on_c, 9, 33, 58
1, 143040, Note_on_c, 9, 42, 65
1, 143040, Note_on_c, 9, 36, 106
1, 143279, Note_on_c, 9, 54, 0
1, 143279, Note_on_c, 9, 33, 0
1, 143279, Note_on_c, 9, 42, 0
1, 143280, Note_on_c, 9, 33, 55
1, 143280, Note_on_c, 9, 42, 61
1, 143519, Note_on_c, 9, 36, 0
1, 143519, Note_on_c, 9, 33, 0
1, 143519, Note_on_c, 9, 42, 0
1, 143520, Note_on_c, 9, 38, 93
1, 143520, Note_on_c, 9, 33, 42
1, 143520, Note_on_c, 9, 39, 80
1, 143520, Note_on_c, 9, 42, 69
1, 143639, Note_on_c, 9, 38, 0
1, 143639, Note_on_c, 9, 33, 0
1, 143639, Note_on_c, 9, 39, 0
1, 143639, Note_on_c, 9, 42, 0
1, 143640, Note_on_c, 9, 33, 36
1, 143759, Note_on_c, 9, 33, 0
1, 143760, Note_on_c, 9, 33, 36
1, 143760, Note_on_c, 9, 42, 61
1, 143879, Note_on_c, 9, 33, 0
1, 143879, Note_on_c, 9, 42, 0
1, 143880, Note_on_c, 9, 33, 47
1, 143999, Note_on_c, 9, 33, 0
1, 144000, Note_on_c, 9, 33, 44
1, 144000, Note_on_c, 9, 42, 65
1, 144000, Note_on_c, 9, 36, 102
1, 144239, Note_on_c, 9, 33, 0
1, 144239, Note_on_c, 9, 42, 0
1, 144240, Note_on_c, 9, 33, 56
1, 144240, Note_on_c, 9, 42, 65
1, 144479, Note_on_c, 9, 36, 0
1, 144479, Note_on_c, 9, 33, 0
1, 144479, Note_on_c, 9, 42, 0
1, 144480, Note_on_c, 9, 38, 92
1, 144480, Note_on_c, 9, 33, 44
1, 144480, Note_on_c, 9, 39, 94
1, 144480, Note_on_c, 9, 42, 65
1, 144599, Note_on_c, 9, 38, 0
1, 144599, Note_on_c, 9, 33, 0
1, 144599, Note_on_c, 9, 39, 0
1, 144599, Note_on_c, 9, 42, 0
1, 144600, Note_on_c, 9, 33, 42
1, 144719, Note_on_c, 9, 33, 0
1, 144720, Note_on_c, 9, 33, 36
1, 144720, Note_on_c, 9, 42, 61
1, 144720, Note_on_c, 9, 36, 94
1, 144839, Note_on_c, 9, 33, 0
1, 144839, Note_on_c, 9, 42, 0
1, 144840, Note_on_c, 9, 33, 47
1, 144959, Note_on_c, 9, 36, 0
1, 144959, Note_on_c, 9, 33, 0
1, 144960, Note_on_c, 9, 54, 74
1, 144960, Note_on_c, 9, 33, 58
1, 144960, Note_on_c, 9, 42, 65
1, 144960, Note_on_c, 9, 36, 102
1, 145199, Note_on_c, 9, 54, 0
1, 145199, Note_on_c, 9, 33, 0
1, 145199, Note_on_c, 9, 42, 0
1, 145200, Note_on_c, 9, 33, 55
1, 145200, Note_on_c, 9, 42, 61
1, 145439, Note_on_c, 9, 36, 0
1, 145439, Note_on_c, 9, 33, 0
1, 145439, Note_on_c, 9, 42, 0
1, 145440, Note_on_c, 9, 38, 92
1, 145440, Note_on_c, 9, 33, 42
1, 145440, Note_on_c, 9, 39, 90
1, 145440, Note_on_c, 9, 42, 65
1, 145559, Note_on_c, 9, 38, 0
1, 145559, Note_on_c, 9, 33, 0
1, 145559, Note_on_c, 9, 39, 0
1, 145559, Note_on_c, 9, 42, 0
1, 145560, Note_on_c, 9, 33, 36
1, 145679, Note_on_c, 9, 33, 0
1, 145680, Note_on_c, 9, 33, 36
1, 145680, Note_on_c, 9, 42, 65
1, 145799, Note_on_c, 9, 33, 0
1, 145799, Note_on_c, 9, 42, 0
1, 145800, Note_on_c, 9, 33, 47
1, 145919, Note_on_c, 9, 33, 0
1, 145920, Note_on_c, 9, 33, 44
1, 145920, Note_on_c, 9, 42, 69
1, 145920, Note_on_c, 9, 36, 106
1, 146159, Note_on_c, 9, 33, 0
1, 146159, Note_on_c, 9, 42, 0
1, 146160, Note_on_c, 9, 33, 56
1, 146160, Note_on_c, 9, 42, 61
1, 146399, Note_on_c, 9, 36, 0
1, 146399, Note_on_c, 9, 33, 0
1, 146399, Note_on_c, 9, 42, 0
1, 146400, Note_on_c, 9, 38, 84
1, 146400, Note_on_c, 9, 33, 44
1, 146400, Note_on_c, 9, 39, 90
1, 146400, Note_on_c, 9, 42, 65
1, 146519, Note_on_c, 9, 38, 0
1, 146519, Note_on_c, 9, 33, 0
1, 146519, Note_on_c, 9, 39, 0
1, 146519, Note_on_c, 9, 42, 0
1, 146520, Note_on_c, 9, 33, 42
1, 146639, Note_on_c, 9, 33, 0
1, 146640, Note_on_c, 9, 33, 36
1, 146640, Note_on_c, 9, 42, 69
1, 146759, Note_on_c, 9, 33, 0
1, 146759, Note_on_c, 9, 42, 0
1, 146760, Note_on_c, 9, 33, 47
1, 146879, Note_on_c, 9, 33, 0
1, 146880, Note_on_c, 9, 54, 74
1, 146880, Note_on_c, 9, 33, 58
1, 146880, Note_on_c, 9, 42, 65
1, 146880, Note_on_c, 9, 36, 106
1, 147119, Note_on_c, 9, 54, 0
1, 147119, Note_on_c, 9, 33, 0
1, 147119, Note_on_c, 9, 42, 0
1, 147120, Note_on_c, 9, 33, 55
1, 147120, Note_on_c, 9, 42, 65
1, 147359, Note_on_c, 9, 36, 0
1, 147359, Note_on_c, 9, 33, 0
1, 147359, Note_on_c, 9, 42, 0
1, 147360, Note_on_c, 9, 38, 88
1, 147360, Note_on_c, 9, 33, 42
1, 147360, Note_on_c, 9, 39, 90
1, 147360, Note_on_c, 9, 42, 65
1, 147479, Note_on_c, 9, 38, 0
1, 147479, Note_on_c, 9, 33, 0
1, 147479, Note_on_c, 9, 39, 0
1, 147479, Note_on_c, 9, 42, 0
1, 147480, Note_on_c, 9, 33, 36
1, 147599, Note_on_c, 9, 33, 0
1, 147600, Note_on_c, 9, 33, 36
1, 147600, Note_on_c, 9, 42, 65
1, 147719, Note_on_c, 9, 33, 0
1, 147719, Note_on_c, 9, 42, 0
1, 147720, Note_on_c, 9, 33, 47
1, 147839, Note_on_c, 9, 33, 0
1, 147840, Note_on_c, 9, 33, 44
1, 147840, Note_on_c, 9, 42, 69
1, 147840, Note_on_c, 9, 36, 106
1, 148079, Note_on_c, 9, 33, 0
1, 148079, Note_on_c, 9, 42, 0
1, 148080, Note_on_c, 9, 33, 56
1, 148080, Note_on_c, 9, 42, 61
1, 148319, Note_on_c, 9, 36, 0
1, 148319, Note_on_c, 9, 33, 0
1, 148319, Note_on_c, 9, 42, 0
1, 148320, Note_on_c, 9, 38, 84
1, 148320, Note_on_c, 9, 33, 44
1, 148320, Note_on_c, 9, 39, 94
1, 148320, Note_on_c, 9, 42, 73
1, 148439, Note_on_c, 9, 38, 0
1, 148439, Note_on_c, 9, 33, 0
1, 148439, Note_on_c, 9, 39, 0
1, 148439, Note_on_c, 9, 42, 0
1, 148440, Note_on_c, 9, 33, 42
1, 148559, Note_on_c, 9, 33, 0
1, 148560, Note_on_c, 9, 33, 36
1, 148560, Note_on_c, 9, 42, 49
1, 148560, Note_on_c, 9, 36, 94
1, 148679, Note_on_c, 9, 33, 0
1, 148679, Note_on_c, 9, 42, 0
1, 148680, Note_on_c, 9, 33, 47
1, 148799, Note_on_c, 9, 36, 0
1, 148799, Note_on_c, 9, 33, 0
1, 148800, Note_on_c, 9, 54, 74
1, 148800, Note_on_c, 9, 33, 58
1, 148800, Note_on_c, 9, 42, 61
1, 148800, Note_on_c, 9, 36, 114
1, 149039, Note_on_c, 9, 54, 0
1, 149039, Note_on_c, 9, 33, 0
1, 149039, Note_on_c, 9, 42, 0
1, 149040, Note_on_c, 9, 33, 55
1, 149040, Note_on_c, 9, 42, 57
1, 149279, Note_on_c, 9, 36, 0
1, 149279, Note_on_c, 9, 33, 0
1, 149279, Note_on_c, 9, 42, 0
1, 149280, Note_on_c, 9, 38, 88
1, 149280, Note_on_c, 9, 33, 42
1, 149280, Note_on_c, 9, 39, 90
1, 149280, Note_on_c, 9, 42, 69
1, 149399, Note_on_c, 9, 38, 0
1, 149399, Note_on_c, 9, 33, 0
1, 149399, Note_on_c, 9, 39, 0
1, 149399, Note_on_c, 9, 42, 0
1, 149400, Note_on_c, 9, 33, 36
1, 149519, Note_on_c, 9, 33, 0
1, 149520, Note_on_c, 9, 33, 36
1, 149520, Note_on_c, 9, 42, 57
1, 149639, Note_on_c, 9, 33, 0
1, 149639, Note_on_c, 9, 42, 0
1, 149640, Note_on_c, 9, 33, 47
1, 149759, Note_on_c, 9, 33, 0
1, 149760, Note_on_c, 9, 33, 44
1, 149760, Note_on_c, 9, 42, 73
1, 149760, Note_on_c, 9, 36, 114
1, 149999, Note_on_c, 9, 33, 0
1, 149999, Note_on_c, 9, 42, 0
1, 150000, Note_on_c, 9, 33, 56
1, 150000, Note_on_c, 9, 42, 53
1, 150239, Note_on_c, 9, 36, 0
1, 150239, Note_on_c, 9, 33, 0
1, 150239, Note_on_c, 9, 42, 0
1, 150240, Note_on_c, 9, 38, 88
1, 150240, Note_on_c, 9, 33, 44
1, 150240, Note_on_c, 9, 39, 90
1, 150240, Note_on_c, 9, 42, 73
1, 150359, Note_on_c, 9, 38, 0
1, 150359, Note_on_c, 9, 33, 0
1, 150359, Note_on_c, 9, 39, 0
1, 150359, Note_on_c, 9, 42, 0
1, 150360, Note_on_c, 9, 33, 42
1, 150479, Note_on_c, 9, 33, 0
1, 150480, Note_on_c, 9, 33, 36
1, 150480, Note_on_c, 9, 42, 57
1, 150599, Note_on_c, 9, 33, 0
1, 150599, Note_on_c, 9, 42, 0
1, 150600, Note_on_c, 9, 33, 47
1, 150719, Note_on_c, 9, 33, 0
1, 150720, Note_on_c, 9, 54, 74
1, 150720, Note_on_c, 9, 33, 58
1, 150720, Note_on_c, 9, 42, 65
1, 150720, Note_on_c, 9, 36, 110
1, 150959, Note_on_c, 9, 54, 0
1, 150959, Note_on_c, 9, 33, 0
1, 150959, Note_on_c, 9, 42, 0
1, 150960, Note_on_c, 9, 33, 55
1, 150960, Note_on_c, 9, 42, 61
1, 151199, Note_on_c, 9, 36, 0
1, 151199, Note_on_c, 9, 33, 0
1, 151199, Note_on_c, 9, 42, 0
1, 151200, Note_on_c, 9, 38, 80
1, 151200, Note_on_c, 9, 33, 42
1, 151200, Note_on_c, 9, 39, 94
1, 151200, Note_on_c, 9, 42, 69
1, 151319, Note_on_c, 9, 38, 0
1, 151319, Note_on_c, 9, 33, 0
1, 151319, Note_on_c, 9, 39, 0
1, 151319, Note_on_c, 9, 42, 0
1, 151320, Note_on_c, 9, 33, 36
1, 151439, Note_on_c, 9, 33, 0
1, 151440, Note_on_c, 9, 33, 36
1, 151440, Note_on_c, 9, 42, 49
1, 151559, Note_on_c, 9, 33, 0
1, 151559, Note_on_c, 9, 42, 0
1, 151560, Note_on_c, 9, 33, 47
1, 151679, Note_on_c, 9, 33, 0
1, 151680, Note_on_c, 9, 33, 44
1, 151680, Note_on_c, 9, 42, 77
1, 151680, Note_on_c, 9, 36, 102
1, 151919, Note_on_c, 9, 33, 0
1, 151919, Note_on_c, 9, 42, 0
1, 151920, Note_on_c, 9, 33, 56
1, 151920, Note_on_c, 9, 42, 61
1, 152159, Note_on_c, 9, 36, 0
1, 152159, Note_on_c, 9, 33, 0
1, 152159, Note_on_c, 9, 42, 0
1, 152160, Note_on_c, 9, 38, 84
1, 152160, Note_on_c, 9, 33, 44
1, 152160, Note_on_c, 9, 39, 94
1, 152160, Note_on_c, 9, 42, 65
1, 152279, Note_on_c, 9, 38, 0
1, 152279, Note_on_c, 9, 33, 0
1, 152279, Note_on_c, 9, 39, 0
1, 152279, Note_on_c, 9, 42, 0
1, 152280, Note_on_c, 9, 33, 42
1, 152399, Note_on_c, 9, 33, 0
1, 152400, Note_on_c, 9, 33, 36
1, 152400, Note_on_c, 9, 42, 57
1, 152400, Note_on_c, 9, 36, 94
1, 152519, Note_on_c, 9, 33, 0
1, 152519, Note_on_c, 9, 42, 0
1, 152520, Note_on_c, 9, 33, 47
1, 152639, Note_on_c, 9, 36, 0
1, 152639, Note_on_c, 9, 33, 0
1, 152640, Note_on_c, 9, 54, 74
1, 152640, Note_on_c, 9, 33, 58
1, 152640, Note_on_c, 9, 42, 65
1, 152640, Note_on_c, 9, 36, 102
1, 152879, Note_on_c, 9, 54, 0
1, 152879, Note_on_c, 9, 33, 0
1, 152879, Note_on_c, 9, 42, 0
1, 152880, Note_on_c, 9, 33, 55
1, 152880, Note_on_c, 9, 42, 57
1, 153119, Note_on_c, 9, 36, 0
1, 153119, Note_on_c, 9, 33, 0
1, 153119, Note_on_c, 9, 42, 0
1, 153120, Note_on_c, 9, 38, 88
1, 153120, Note_on_c, 9, 33, 42
1, 153120, Note_on_c, 9, 39, 90
1, 153120, Note_on_c, 9, 42, 73
1, 153239, Note_on_c, 9, 38, 0
1, 153239, Note_on_c, 9, 33, 0
1, 153239, Note_on_c, 9, 39, 0
1, 153239, Note_on_c, 9, 42, 0
1, 153240, Note_on_c, 9, 33, 36
1, 153359, Note_on_c, 9, 33, 0
1, 153360, Note_on_c, 9, 33, 36
1, 153360, Note_on_c, 9, 42, 57
1, 153479, Note_on_c, 9, 33, 0
1, 153479, Note_on_c, 9, 42, 0
1, 153480, Note_on_c, 9, 33, 47
1, 153599, Note_on_c, 9, 33, 0
1, 153600, Note_on_c, 9, 33, 44
1, 153600, Note_on_c, 9, 42, 69
1, 153600, Note_on_c, 9, 36, 106
1, 153839, Note_on_c, 9, 33, 0
1, 153839, Note_on_c, 9, 42, 0
1, 153840, Note_on_c, 9, 33, 56
1, 153840, Note_on_c, 9, 42, 57
1, 154079, Note_on_c, 9, 36, 0
1, 154079, Note_on_c, 9, 33, 0
1, 154079, Note_on_c, 9, 42, 0
1, 154080, Note_on_c, 9, 38, 84
1, 154080, Note_on_c, 9, 33, 44
1, 154080, Note_on_c, 9, 39, 90
1, 154080, Note_on_c, 9, 42, 69
1, 154199, Note_on_c, 9, 38, 0
1, 154199, Note_on_c, 9, 33, 0
1, 154199, Note_on_c, 9, 39, 0
1, 154199, Note_on_c, 9, 42, 0
1, 154200, Note_on_c, 9, 33, 42
1, 154319, Note_on_c, 9, 33, 0
1, 154320, Note_on_c, 9, 33, 36
1, 154320, Note_on_c, 9, 42, 61
1, 154439, Note_on_c, 9, 33, 0
1, 154439, Note_on_c, 9, 42, 0
1, 154440, Note_on_c, 9, 33, 47
1, 154559, Note_on_c, 9, 33, 0
1, 154560, Note_on_c, 9, 54, 74
1, 154560, Note_on_c, 9, 33, 58
1, 154560, Note_on_c, 9, 42, 65
1, 154560, Note_on_c, 9, 36, 106
1, 154799, Note_on_c, 9, 54, 0
1, 154799, Note_on_c, 9, 33, 0
1, 154799, Note_on_c, 9, 42, 0
1, 154800, Note_on_c, 9, 33, 55
1, 154800, Note_on_c, 9, 42, 61
1, 155039, Note_on_c, 9, 36, 0
1, 155039, Note_on_c, 9, 33, 0
1, 155039, Note_on_c, 9, 42, 0
1, 155040, Note_on_c, 9, 38, 88
1, 155040, Note_on_c, 9, 33, 42
1, 155040, Note_on_c, 9, 39, 90
1, 155040, Note_on_c, 9, 42, 69
1, 155159, Note_on_c, 9, 38, 0
1, 155159, Note_on_c, 9, 33, 0
1, 155159, Note_on_c, 9, 39, 0
1, 155159, Note_on_c, 9, 42, 0
1, 155160, Note_on_c, 9, 33, 36
1, 155279, Note_on_c, 9, 33, 0
1, 155280, Note_on_c, 9, 33, 36
1, 155280, Note_on_c, 9, 42, 61
1, 155399, Note_on_c, 9, 33, 0
1, 155399, Note_on_c, 9, 42, 0
1, 155400, Note_on_c, 9, 33, 47
1, 155519, Note_on_c, 9, 33, 0
1, 155520, Note_on_c, 9, 33, 44
1, 155520, Note_on_c, 9, 42, 61
1, 155520, Note_on_c, 9, 36, 106
1, 155759, Note_on_c, 9, 33, 0
1, 155759, Note_on_c, 9, 42, 0
1, 155760, Note_on_c, 9, 33, 56
1, 155760, Note_on_c, 9, 42, 61
1, 155999, Note_on_c, 9, 36, 0
1, 155999, Note_on_c, 9, 33, 0
1, 155999, Note_on_c, 9, 42, 0
1, 156000, Note_on_c, 9, 38, 88
1, 156000, Note_on_c, 9, 33, 44
1, 156000, Note_on_c, 9, 39, 94
1, 156000, Note_on_c, 9, 42, 65
1, 156119, Note_on_c, 9, 38, 0
1, 156119, Note_on_c, 9, 33, 0
1, 156119, Note_on_c, 9, 39, 0
1, 156119, Note_on_c, 9, 42, 0
1, 156120, Note_on_c, 9, 33, 42
1, 156239, Note_on_c, 9, 33, 0
1, 156240, Note_on_c, 9, 33, 36
1, 156240, Note_on_c, 9, 42, 53
1, 156240, Note_on_c, 9, 36, 94
1, 156359, Note_on_c, 9, 33, 0
1, 156359, Note_on_c, 9, 42, 0
1, 156360, Note_on_c, 9, 33, 47
1, 156479, Note_on_c, 9, 36, 0
1, 156479, Note_on_c, 9, 33, 0
1, 156480, Note_on_c, 9, 54, 74
1, 156480, Note_on_c, 9, 33, 58
1, 156480, Note_on_c, 9, 42, 61
1, 156480, Note_on_c, 9, 36, 114
1, 156719, Note_on_c, 9, 54, 0
1, 156719, Note_on_c, 9, 33, 0
1, 156719, Note_on_c, 9, 42, 0
1, 156720, Note_on_c, 9, 38, 84
1, 156720, Note_on_c, 9, 33, 55
1, 156720, Note_on_c, 9, 42, 97
1, 156839, Note_on_c, 9, 38, 0
1, 156839, Note_on_c, 9, 33, 0
1, 156839, Note_on_c, 9, 42, 0
1, 156840, Note_on_c, 9, 38, 64
1, 156840, Note_on_c, 9, 42, 77
1, 156959, Note_on_c, 9, 36, 0
1, 156959, Note_on_c, 9, 38, 0
1, 156959, Note_on_c, 9, 42, 0
1, 156960, Note_on_c, 9, 33, 42
1, 156960, Note_on_c, 9, 39, 90
1, 157079, Note_on_c, 9, 33, 0
1, 157079, Note_on_c, 9, 39, 0
1, 157080, Note_on_c, 9, 33, 36
1, 157199, Note_on_c, 9, 33, 0
1, 157200, Note_on_c, 9, 38, 80
1, 157200, Note_on_c, 9, 46, 53
1, 157200, Note_on_c, 9, 33, 36
1, 157319, Note_on_c, 9, 38, 0
1, 157319, Note_on_c, 9, 46, 0
1, 157319, Note_on_c, 9, 33, 0
1, 157320, Note_on_c, 9, 33, 47
1, 157439, Note_on_c, 9, 33, 0
1, 157440, Note_on_c, 9, 33, 44
1, 157440, Note_on_c, 9, 42, 73
1, 157440, Note_on_c, 9, 36, 114
1, 157679, Note_on_c, 9, 33, 0
1, 157679, Note_on_c, 9, 42, 0
1, 157680, Note_on_c, 9, 33, 56
1, 157680, Note_on_c, 9, 42, 69
1, 157919, Note_on_c, 9, 36, 0
1, 157919, Note_on_c, 9, 33, 0
1, 157919, Note_on_c, 9, 42, 0
1, 157920, Note_on_c, 9, 38, 92
1, 157920, Note_on_c, 9, 33, 44
1, 157920, Note_on_c, 9, 39, 90
1, 157920, Note_on_c, 9, 42, 69
1, 158039, Note_on_c, 9, 38, 0
1, 158039, Note_on_c, 9, 33, 0
1, 158039, Note_on_c, 9, 39, 0
1, 158039, Note_on_c, 9, 42, 0
1, 158040, Note_on_c, 9, 33, 42
1, 158159, Note_on_c, 9, 33, 0
1, 158160, Note_on_c, 9, 33, 36
1, 158160, Note_on_c, 9, 42, 57
1, 158279, Note_on_c, 9, 33, 0
1, 158279, Note_on_c, 9, 42, 0
1, 158280, Note_on_c, 9, 33, 47
1, 158399, Note_on_c, 9, 33, 0
1, 158400, Note_on_c, 9, 54, 74
1, 158400, Note_on_c, 9, 33, 58
1, 158400, Note_on_c, 9, 42, 65
1, 158400, Note_on_c, 9, 36, 110
1, 158639, Note_on_c, 9, 54, 0
1, 158639, Note_on_c, 9, 33, 0
1, 158639, Note_on_c, 9, 42, 0
1, 158640, Note_on_c, 9, 33, 55
1, 158640, Note_on_c, 9, 42, 61
1, 158879, Note_on_c, 9, 36, 0
1, 158879, Note_on_c, 9, 33, 0
1, 158879, Note_on_c, 9, 42, 0
1, 158880, Note_on_c, 9, 38, 88
1, 158880, Note_on_c, 9, 33, 42
1, 158880, Note_on_c, 9, 39, 94
1, 158880, Note_on_c, 9, 42, 65
1, 158999, Note_on_c, 9, 38, 0
1, 158999, Note_on_c, 9, 33, 0
1, 158999, Note_on_c, 9, 39, 0
1, 158999, Note_on_c, 9, 42, 0
1, 159000, Note_on_c, 9, 33, 36
1, 159119, Note_on_c, 9, 33, 0
1, 159120, Note_on_c, 9, 33, 36
1, 159120, Note_on_c, 9, 42, 61
1, 159239, Note_on_c, 9, 33, 0
1, 159239, Note_on_c, 9, 42, 0
1, 159240, Note_on_c, 9, 33, 47
1, 159359, Note_on_c, 9, 33, 0
1, 159360, Note_on_c, 9, 33, 44
1, 159360, Note_on_c, 9, 42, 65
1, 159360, Note_on_c, 9, 36, 102
1, 159599, Note_on_c, 9, 33, 0
1, 159599, Note_on_c, 9, 42, 0
1, 159600, Note_on_c, 9, 33, 56
1, 159600, Note_on_c, 9, 42, 65
1, 159839, Note_on_c, 9, 36, 0
1, 159839, Note_on_c, 9, 33, 0
1, 159839, Note_on_c, 9, 42, 0
1, 159840, Note_on_c, 9, 38, 92
1, 159840, Note_on_c, 9, 33, 44
1, 159840, Note_on_c, 9, 39, 94
1, 159840, Note_on_c, 9, 42, 65
1, 159959, Note_on_c, 9, 38, 0
1, 159959, Note_on_c, 9, 33, 0
1, 159959, Note_on_c, 9, 39, 0
1, 159959, Note_on_c, 9, 42, 0
1, 159960, Note_on_c, 9, 33, 42
1, 160079, Note_on_c, 9, 33, 0
1, 160080, Note_on_c, 9, 33, 36
1, 160080, Note_on_c, 9, 42, 61
1, 160080, Note_on_c, 9, 36, 94
1, 160199, Note_on_c, 9, 33, 0
1, 160199, Note_on_c, 9, 42, 0
1, 160200, Note_on_c, 9, 33, 47
1, 160319, Note_on_c, 9, 36, 0
1, 160319, Note_on_c, 9, 33, 0
1, 160320, Note_on_c, 9, 54, 74
1, 160320, Note_on_c, 9, 33, 58
1, 160320, Note_on_c, 9, 42, 65
1, 160320, Note_on_c, 9, 36, 102
1, 160559, Note_on_c, 9, 54, 0
1, 160559, Note_on_c, 9, 33, 0
1, 160559, Note_on_c, 9, 42, 0
1, 160560, Note_on_c, 9, 33, 55
1, 160560, Note_on_c, 9, 42, 61
1, 160799, Note_on_c, 9, 36, 0
1, 160799, Note_on_c, 9, 33, 0
1, 160799, Note_on_c, 9, 42, 0
1, 160800, Note_on_c, 9, 38, 92
1, 160800, Note_on_c, 9, 33, 42
1, 160800, Note_on_c, 9, 39, 90
1, 160800, Note_on_c, 9, 42, 65
1, 160919, Note_on_c, 9, 38, 0
1, 160919, Note_on_c, 9, 33, 0
1, 160919, Note_on_c, 9, 39, 0
1, 160919, Note_on_c, 9, 42, 0
1, 160920, Note_on_c, 9, 33, 36
1, 161039, Note_on_c, 9, 33, 0
1, 161040, Note_on_c, 9, 33, 36
1, 161040, Note_on_c, 9, 42, 65
1, 161159, Note_on_c, 9, 33, 0
1, 161159, Note_on_c, 9, 42, 0
1, 161160, Note_on_c, 9, 33, 47
1, 161279, Note_on_c, 9, 33, 0
1, 161280, Note_on_c, 9, 33, 44
1, 161280, Note_on_c, 9, 42, 69
1, 161280, Note_on_c, 9, 36, 106
1, 161519, Note_on_c, 9, 33, 0
1, 161519, Note_on_c, 9, 42, 0
1, 161520, Note_on_c, 9, 33, 56
1, 161520, Note_on_c, 9, 42, 61
1, 161759, Note_on_c, 9, 36, 0
1, 161759, Note_on_c, 9, 33, 0
1, 161759, Note_on_c, 9, 42, 0
1, 161760, Note_on_c, 9, 38, 84
1, 161760, Note_on_c, 9, 33, 44
1, 161760, Note_on_c, 9, 39, 90
1, 161760, Note_on_c, 9, 42, 65
1, 161879, Note_on_c, 9, 38, 0
1, 161879, Note_on_c, 9, 33, 0
1, 161879, Note_on_c, 9, 39, 0
1, 161879, Note_on_c, 9, 42, 0
1, 161880, Note_on_c, 9, 33, 42
1, 161999, Note_on_c, 9, 33, 0
1, 162000, Note_on_c, 9, 33, 36
1, 162000, Note_on_c, 9, 42, 69
1, 162119, Note_on_c, 9, 33, 0
1, 162119, Note_on_c, 9, 42, 0
1, 162120, Note_on_c, 9, 33, 47
1, 162239, Note_on_c, 9, 33, 0
1, 162240, Note_on_c, 9, 54, 74
1, 162240, Note_on_c, 9, 33, 58
1, 162240, Note_on_c, 9, 42, 65
1, 162240, Note_on_c, 9, 36, 106
1, 162479, Note_on_c, 9, 54, 0
1, 162479, Note_on_c, 9, 33, 0
1, 162479, Note_on_c, 9, 42, 0
1, 162480, Note_on_c, 9, 33, 55
1, 162480, Note_on_c, 9, 42, 65
1, 162719, Note_on_c, 9, 36, 0
1, 162719, Note_on_c, 9, 33, 0
1, 162719, Note_on_c, 9, 42, 0
1, 162720, Note_on_c, 9, 38, 88
1, 162720, Note_on_c, 9, 33, 42
1, 162720, Note_on_c, 9, 39, 90
1, 162720, Note_on_c, 9, 42, 65
1, 162839, Note_on_c, 9, 38, 0
1, 162839, Note_on_c, 9, 33, 0
1, 162839, Note_on_c, 9, 39, 0
1, 162839, Note_on_c, 9, 42, 0
1, 162840, Note_on_c, 9, 33, 36
1, 162959, Note_on_c, 9, 33, 0
1, 162960, Note_on_c, 9, 33, 36
1, 162960, Note_on_c, 9, 42, 65
1, 163079, Note_on_c, 9, 33, 0
1, 163079, Note_on_c, 9, 42, 0
1, 163080, Note_on_c, 9, 33, 47
1, 163199, Note_on_c, 9, 33, 0
1, 163200, Note_on_c, 9, 33, 44
1, 163200, Note_on_c, 9, 42, 69
1, 163200, Note_on_c, 9, 36, 106
1, 163439, Note_on_c, 9, 33, 0
1, 163439, Note_on_c, 9, 42, 0
1, 163440, Note_on_c, 9, 33, 56
1, 163440, Note_on_c, 9, 42, 61
1, 163679, Note_on_c, 9, 36, 0
1, 163679, Note_on_c, 9, 33, 0
1, 163679, Note_on_c, 9, 42, 0
1, 163680, Note_on_c, 9, 38, 84
1, 163680, Note_on_c, 9, 33, 44
1, 163680, Note_on_c, 9, 39, 94
1, 163680, Note_on_c, 9, 42, 73
1, 163799, Note_on_c, 9, 38, 0
1, 163799, Note_on_c, 9, 33, 0
1, 163799, Note_on_c, 9, 39, 0
1, 163799, Note_on_c, 9, 42, 0
1, 163800, Note_on_c, 9, 33, 42
1, 163919, Note_on_c, 9, 33, 0
1, 163920, Note_on_c, 9, 33, 36
1, 163920, Note_on_c, 9, 42, 49
1, 163920, Note_on_c, 9, 36, 94
1, 164039, Note_on_c, 9, 33, 0
1, 164039, Note_on_c, 9, 42, 0
1, 164040, Note_on_c, 9, 33, 47
1, 164159, Note_on_c, 9, 36, 0
1, 164159, Note_on_c, 9, 33, 0
1, 164160, Note_on_c, 9, 54, 74
1, 164160, Note_on_c, 9, 33, 58
1, 164160, Note_on_c, 9, 42, 61
1, 164160, Note_on_c, 9, 36, 114
1, 164399, Note_on_c, 9, 54, 0
1, 164399, Note_on_c, 9, 33, 0
1, 164399, Note_on_c, 9, 42, 0
1, 164400, Note_on_c, 9, 33, 55
1, 164400, Note_on_c, 9, 42, 57
1, 164639, Note_on_c, 9, 36, 0
1, 164639, Note_on_c, 9, 33, 0
1, 164639, Note_on_c, 9, 42, 0
1, 164640, Note_on_c, 9, 38, 88
1, 164640, Note_on_c, 9, 33, 42
1, 164640, Note_on_c, 9, 39, 90
1, 164640, Note_on_c, 9, 42, 69
1, 164759, Note_on_c, 9, 38, 0
1, 164759, Note_on_c, 9, 33, 0
1, 164759, Note_on_c, 9, 39, 0
1, 164759, Note_on_c, 9, 42, 0
1, 164760, Note_on_c, 9, 33, 36
1, 164879, Note_on_c, 9, 33, 0
1, 164880, Note_on_c, 9, 33, 36
1, 164880, Note_on_c, 9, 42, 57
1, 164999, Note_on_c, 9, 33, 0
1, 164999, Note_on_c, 9, 42, 0
1, 165000, Note_on_c, 9, 33, 47
1, 165119, Note_on_c, 9, 33, 0
1, 165120, Note_on_c, 9, 33, 44
1, 165120, Note_on_c, 9, 42, 73
1, 165120, Note_on_c, 9, 36, 114
1, 165359, Note_on_c, 9, 33, 0
1, 165359, Note_on_c, 9, 42, 0
1, 165360, Note_on_c, 9, 33, 56
1, 165360, Note_on_c, 9, 42, 53
1, 165599, Note_on_c, 9, 36, 0
1, 165599, Note_on_c, 9, 33, 0
1, 165599, Note_on_c, 9, 42, 0
1, 165600, Note_on_c, 9, 38, 88
1, 165600, Note_on_c, 9, 33, 44
1, 165600, Note_on_c, 9, 39, 90
1, 165600, Note_on_c, 9, 42, 73
1, 165719, Note_on_c, 9, 38, 0
1, 165719, Note_on_c, 9, 33, 0
1, 165719, Note_on_c, 9, 39, 0
1, 165719, Note_on_c, 9, 42, 0
1, 165720, Note_on_c, 9, 33, 42
1, 165839, Note_on_c, 9, 33, 0
1, 165840, Note_on_c, 9, 33, 36
1, 165840, Note_on_c, 9, 42, 57
1, 165959, Note_on_c, 9, 33, 0
1, 165959, Note_on_c, 9, 42, 0
1, 165960, Note_on_c, 9, 33, 47
1, 166079, Note_on_c, 9, 33, 0
1, 166080, Note_on_c, 9, 54, 74
1, 166080, Note_on_c, 9, 33, 58
1, 166080, Note_on_c, 9, 42, 65
1, 166080, Note_on_c, 9, 36, 110
1, 166319, Note_on_c, 9, 54, 0
1, 166319, Note_on_c, 9, 33, 0
1, 166319, Note_on_c, 9, 42, 0
1, 166320, Note_on_c, 9, 33, 55
1, 166320, Note_on_c, 9, 42, 61
1, 166559, Note_on_c, 9, 36, 0
1, 166559, Note_on_c, 9, 33, 0
1, 166559, Note_on_c, 9, 42, 0
1, 166560, Note_on_c, 9, 38, 80
1, 166560, Note_on_c, 9, 33, 42
1, 166560, Note_on_c, 9, 39, 94
1, 166560, Note_on_c, 9, 42, 69
1, 166679, Note_on_c, 9, 38, 0
1, 166679, Note_on_c, 9, 33, 0
1, 166679, Note_on_c, 9, 39, 0
1, 166679, Note_on_c, 9, 42, 0
1, 166680, Note_on_c, 9, 33, 36
1, 166799, Note_on_c, 9, 33, 0
1, 166800, Note_on_c, 9, 33, 36
1, 166800, Note_on_c, 9, 42, 49
1, 166919, Note_on_c, 9, 33, 0
1, 166919, Note_on_c, 9, 42, 0
1, 166920, Note_on_c, 9, 33, 47
1, 167039, Note_on_c, 9, 33, 0
1, 167040, Note_on_c, 9, 33, 44
1, 167040, Note_on_c, 9, 42, 77
1, 167040, Note_on_c, 9, 36, 102
1, 167279, Note_on_c, 9, 33, 0
1, 167279, Note_on_c, 9, 42, 0
1, 167280, Note_on_c, 9, 33, 56
1, 167280, Note_on_c, 9, 42, 61
1, 167519, Note_on_c, 9, 36, 0
1, 167519, Note_on_c, 9, 33, 0
1, 167519, Note_on_c, 9, 42, 0
1, 167520, Note_on_c, 9, 38, 84
1, 167520, Note_on_c, 9, 33, 44
1, 167520, Note_on_c, 9, 39, 94
1, 167520, Note_on_c, 9, 42, 65
1, 167639, Note_on_c, 9, 38, 0
1, 167639, Note_on_c, 9, 33, 0
1, 167639, Note_on_c, 9, 39, 0
1, 167639, Note_on_c, 9, 42, 0
1, 167640, Note_on_c, 9, 33, 42
1, 167759, Note_on_c, 9, 33, 0
1, 167760, Note_on_c, 9, 33, 36
1, 167760, Note_on_c, 9, 42, 57
1, 167760, Note_on_c, 9, 36, 94
1, 167879, Note_on_c, 9, 33, 0
1, 167879, Note_on_c, 9, 42, 0
1, 167880, Note_on_c, 9, 33, 47
1, 167999, Note_on_c, 9, 36, 0
1, 167999, Note_on_c, 9, 33, 0
1, 168000, Note_on_c, 9, 54, 74
1, 168000, Note_on_c, 9, 33, 58
1, 168000, Note_on_c, 9, 42, 65
1, 168000, Note_on_c, 9, 36, 102
1, 168239, Note_on_c, 9, 54, 0
1, 168239, Note_on_c, 9, 33, 0
1, 168239, Note_on_c, 9, 42, 0
1, 168240, Note_on_c, 9, 33, 55
1, 168240, Note_on_c, 9, 42, 57
1, 168479, Note_on_c, 9, 36, 0
1, 168479, Note_on_c, 9, 33, 0
1, 168479, Note_on_c, 9, 42, 0
1, 168480, Note_on_c, 9, 38, 88
1, 168480, Note_on_c, 9, 33, 42
1, 168480, Note_on_c, 9, 39, 90
1, 168480, Note_on_c, 9, 42, 73
1, 168599, Note_on_c, 9, 38, 0
1, 168599, Note_on_c, 9, 33, 0
1, 168599, Note_on_c, 9, 39, 0
1, 168599, Note_on_c, 9, 42, 0
1, 168600, Note_on_c, 9, 33, 36
1, 168719, Note_on_c, 9, 33, 0
1, 168720, Note_on_c, 9, 33, 36
1, 168720, Note_on_c, 9, 42, 57
1, 168839, Note_on_c, 9, 33, 0
1, 168839, Note_on_c, 9, 42, 0
1, 168840, Note_on_c, 9, 33, 47
1, 168959, Note_on_c, 9, 33, 0
1, 168960, Note_on_c, 9, 33, 44
1, 168960, Note_on_c, 9, 42, 69
1, 168960, Note_on_c, 9, 36, 106
1, 169199, Note_on_c, 9, 33, 0
1, 169199, Note_on_c, 9, 42, 0
1, 169200, Note_on_c, 9, 33, 56
1, 169200, Note_on_c, 9, 42, 57
1, 169439, Note_on_c, 9, 36, 0
1, 169439, Note_on_c, 9, 33, 0
1, 169439, Note_on_c, 9, 42, 0
1, 169440, Note_on_c, 9, 38, 84
1, 169440, Note_on_c, 9, 33, 44
1, 169440, Note_on_c, 9, 39, 90
1, 169440, Note_on_c, 9, 42, 69
1, 169559, Note_on_c, 9, 38, 0
1, 169559, Note_on_c, 9, 33, 0
1, 169559, Note_on_c, 9, 39, 0
1, 169559, Note_on_c, 9, 42, 0
1, 169560, Note_on_c, 9, 33, 42
1, 169679, Note_on_c, 9, 33, 0
1, 169680, Note_on_c, 9, 33, 36
1, 169680, Note_on_c, 9, 42, 61
1, 169799, Note_on_c, 9, 33, 0
1, 169799, Note_on_c, 9, 42, 0
1, 169800, Note_on_c, 9, 33, 47
1, 169919, Note_on_c, 9, 33, 0
1, 169920, Note_on_c, 9, 54, 74
1, 169920, Note_on_c, 9, 33, 58
1, 169920, Note_on_c, 9, 42, 65
1, 169920, Note_on_c, 9, 36, 106
1, 170159, Note_on_c, 9, 54, 0
1, 170159, Note_on_c, 9, 33, 0
1, 170159, Note_on_c, 9, 42, 0
1, 170160, Note_on_c, 9, 33, 55
1, 170160, Note_on_c, 9, 42, 61
1, 170399, Note_on_c, 9, 36, 0
1, 170399, Note_on_c, 9, 33, 0
1, 170399, Note_on_c, 9, 42, 0
1, 170400, Note_on_c, 9, 38, 88
1, 170400, Note_on_c, 9, 33, 42
1, 170400, Note_on_c, 9, 39, 90
1, 170400, Note_on_c, 9, 42, 69
1, 170519, Note_on_c, 9, 38, 0
1, 170519, Note_on_c, 9, 33, 0
1, 170519, Note_on_c, 9, 39, 0
1, 170519, Note_on_c, 9, 42, 0
1, 170520, Note_on_c, 9, 33, 36
1, 170639, Note_on_c, 9, 33, 0
1, 170640, Note_on_c, 9, 33, 36
1, 170640, Note_on_c, 9, 42, 61
1, 170759, Note_on_c, 9, 33, 0
1, 170759, Note_on_c, 9, 42, 0
1, 170760, Note_on_c, 9, 33, 47
1, 170879, Note_on_c, 9, 33, 0
1, 170880, Note_on_c, 9, 33, 44
1, 170880, Note_on_c, 9, 42, 61
1, 170880, Note_on_c, 9, 36, 106
1, 171119, Note_on_c, 9, 33, 0
1, 171119, Note_on_c, 9, 42, 0
1, 171120, Note_on_c, 9, 33, 56
1, 171120, Note_on_c, 9, 42, 61
1, 171359, Note_on_c, 9, 36, 0
1, 171359, Note_on_c, 9, 33, 0
1, 171359, Note_on_c, 9, 42, 0
1, 171360, Note_on_c, 9, 38, 84
1, 171360, Note_on_c, 9, 33, 44
1, 171360, Note_on_c, 9, 39, 94
1, 171360, Note_on_c, 9, 42, 65
1, 171479, Note_on_c, 9, 38, 0
1, 171479, Note_on_c, 9, 33, 0
1, 171479, Note_on_c, 9, 39, 0
1, 171479, Note_on_c, 9, 42, 0
1, 171480, Note_on_c, 9, 33, 42
1, 171599, Note_on_c, 9, 33, 0
1, 171600, Note_on_c, 9, 46, 99
1, 171600, Note_on_c, 9, 33, 36
1, 171600, Note_on_c, 9, 42, 53
1, 171600, Note_on_c, 9, 36, 94
1, 171719, Note_on_c, 9, 46, 0
1, 171719, Note_on_c, 9, 33, 0
1, 171719, Note_on_c, 9, 42, 0
1, 171720, Note_on_c, 9, 33, 47
1, 171839, Note_on_c, 9, 36, 0
1, 171839, Note_on_c, 9, 33, 0
1, 171840, Note_on_c, 9, 54, 74
1, 171840, Note_on_c, 9, 33, 58
1, 171840, Note_on_c, 9, 42, 61
1, 171840, Note_on_c, 9, 36, 114
1, 172079, Note_on_c, 9, 54, 0
1, 172079, Note_on_c, 9, 33, 0
1, 172079, Note_on_c, 9, 42, 0
1, 172080, Note_on_c, 9, 33, 55
1, 172080, Note_on_c, 9, 42, 97
1, 172199, Note_on_c, 9, 33, 0
1, 172199, Note_on_c, 9, 42, 0
1, 172200, Note_on_c, 9, 38, 84
1, 172200, Note_on_c, 9, 42, 77
1, 172319, Note_on_c, 9, 36, 0
1, 172319, Note_on_c, 9, 38, 0
1, 172319, Note_on_c, 9, 42, 0
1, 172320, Note_on_c, 9, 38, 80
1, 172320, Note_on_c, 9, 33, 42
1, 172320, Note_on_c, 9, 39, 90
1, 172439, Note_on_c, 9, 38, 0
1, 172439, Note_on_c, 9, 33, 0
1, 172439, Note_on_c, 9, 39, 0
1, 172440, Note_on_c, 9, 33, 36
1, 172559, Note_on_c, 9, 33, 0
1, 172560, Note_on_c, 9, 38, 84
1, 172560, Note_on_c, 9, 46, 53
1, 172560, Note_on_c, 9, 33, 36
1, 172679, Note_on_c, 9, 38, 0
1, 172679, Note_on_c, 9, 46, 0
1, 172679, Note_on_c, 9, 33, 0
1, 172680, Note_on_c, 9, 33, 47
1, 172799, Note_on_c, 9, 33, 0
1, 172800, Note_on_c, 9, 33, 44
1, 172800, Note_on_c, 9, 42, 73
1, 172800, Note_on_c, 9, 49, 44
1, 172800, Note_on_c, 9, 36, 114
1, 173039, Note_on_c, 9, 33, 0
1, 173039, Note_on_c, 9, 42, 0
1, 173039, Note_on_c, 9, 49, 0
1, 173040, Note_on_c, 9, 33, 56
1, 173040, Note_on_c, 9, 42, 69
1, 173279, Note_on_c, 9, 36, 0
1, 173279, Note_on_c, 9, 33, 0
1, 173279, Note_on_c, 9, 42, 0
1, 173280, Note_on_c, 9, 38, 92
1, 173280, Note_on_c, 9, 33, 44
1, 173280, Note_on_c, 9, 39, 90
1, 173280, Note_on_c, 9, 42, 69
1, 173399, Note_on_c, 9, 38, 0
1, 173399, Note_on_c, 9, 33, 0
1, 173399, Note_on_c, 9, 39, 0
1, 173399, Note_on_c, 9, 42, 0
1, 173400, Note_on_c, 9, 33, 42
1, 173519, Note_on_c, 9, 33, 0
1, 173520, Note_on_c, 9, 33, 36
1, 173520, Note_on_c, 9, 42, 57
1, 173639, Note_on_c, 9, 33, 0
1, 173639, Note_on_c, 9, 42, 0
1, 173640, Note_on_c, 9, 33, 47
1, 173759, Note_on_c, 9, 33, 0
1, 173760, Note_on_c, 9, 54, 74
1, 173760, Note_on_c, 9, 33, 58
1, 173760, Note_on_c, 9, 42, 65
1, 173760, Note_on_c, 9, 36, 110
1, 173999, Note_on_c, 9, 54, 0
1, 173999, Note_on_c, 9, 33, 0
1, 173999, Note_on_c, 9, 42, 0
1, 174000, Note_on_c, 9, 33, 55
1, 174000, Note_on_c, 9, 42, 61
1, 174239, Note_on_c, 9, 36, 0
1, 174239, Note_on_c, 9, 33, 0
1, 174239, Note_on_c, 9, 42, 0
1, 174240, Note_on_c, 9, 38, 88
1, 174240, Note_on_c, 9, 33, 42
1, 174240, Note_on_c, 9, 39, 94
1, 174240, Note_on_c, 9, 42, 65
1, 174359, Note_on_c, 9, 38, 0
1, 174359, Note_on_c, 9, 33, 0
1, 174359, Note_on_c, 9, 39, 0
1, 174359, Note_on_c, 9, 42, 0
1, 174360, Note_on_c, 9, 33, 36
1, 174479, Note_on_c, 9, 33, 0
1, 174480, Note_on_c, 9, 33, 36
1, 174480, Note_on_c, 9, 42, 61
1, 174599, Note_on_c, 9, 33, 0
1, 174599, Note_on_c, 9, 42, 0
1, 174600, Note_on_c, 9, 33, 47
1, 174719, Note_on_c, 9, 33, 0
1, 174720, Note_on_c, 9, 33, 44
1, 174720, Note_on_c, 9, 42, 65
1, 174720, Note_on_c, 9, 36, 102
1, 174959, Note_on_c, 9, 33, 0
1, 174959, Note_on_c, 9, 42, 0
1, 174960, Note_on_c, 9, 33, 56
1, 174960, Note_on_c, 9, 42, 65
1, 175199, Note_on_c, 9, 36, 0
1, 175199, Note_on_c, 9, 33, 0
1, 175199, Note_on_c, 9, 42, 0
1, 175200, Note_on_c, 9, 38, 92
1, 175200, Note_on_c, 9, 33, 44
1, 175200, Note_on_c, 9, 39, 94
1, 175200, Note_on_c, 9, 42, 65
1, 175319, Note_on_c, 9, 38, 0
1, 175319, Note_on_c, 9, 33, 0
1, 175319, Note_on_c, 9, 39, 0
1, 175319, Note_on_c, 9, 42, 0
1, 175320, Note_on_c, 9, 33, 42
1, 175439, Note_on_c, 9, 33, 0
1, 175440, Note_on_c, 9, 33, 36
1, 175440, Note_on_c, 9, 42, 61
1, 175440, Note_on_c, 9, 36, 94
1, 175559, Note_on_c, 9, 33, 0
1, 175559, Note_on_c, 9, 42, 0
1, 175560, Note_on_c, 9, 33, 47
1, 175679, Note_on_c, 9, 36, 0
1, 175679, Note_on_c, 9, 33, 0
1, 175680, Note_on_c, 9, 54, 74
1, 175680, Note_on_c, 9, 33, 58
1, 175680, Note_on_c, 9, 42, 65
1, 175680, Note_on_c, 9, 36, 102
1, 175919, Note_on_c, 9, 54, 0
1, 175919, Note_on_c, 9, 33, 0
1, 175919, Note_on_c, 9, 42, 0
1, 175920, Note_on_c, 9, 33, 55
1, 175920, Note_on_c, 9, 42, 61
1, 176159, Note_on_c, 9, 36, 0
1, 176159, Note_on_c, 9, 33, 0
1, 176159, Note_on_c, 9, 42, 0
1, 176160, Note_on_c, 9, 38, 92
1, 176160, Note_on_c, 9, 33, 42
1, 176160, Note_on_c, 9, 39, 90
1, 176160, Note_on_c, 9, 42, 65
1, 176279, Note_on_c, 9, 38, 0
1, 176279, Note_on_c, 9, 33, 0
1, 176279, Note_on_c, 9, 39, 0
1, 176279, Note_on_c, 9, 42, 0
1, 176280, Note_on_c, 9, 33, 36
1, 176399, Note_on_c, 9, 33, 0
1, 176400, Note_on_c, 9, 33, 36
1, 176400, Note_on_c, 9, 42, 65
1, 176519, Note_on_c, 9, 33, 0
1, 176519, Note_on_c, 9, 42, 0
1, 176520, Note_on_c, 9, 33, 47
1, 176639, Note_on_c, 9, 33, 0
1, 176640, Note_on_c, 9, 33, 44
1, 176640, Note_on_c, 9, 42, 69
1, 176640, Note_on_c, 9, 49, 44
1, 176640, Note_on_c, 9, 36, 106
1, 176879, Note_on_c, 9, 33, 0
1, 176879, Note_on_c, 9, 42, 0
1, 176879, Note_on_c, 9, 49, 0
1, 176880, Note_on_c, 9, 33, 56
1, 176880, Note_on_c, 9, 42, 61
1, 177119, Note_on_c, 9, 36, 0
1, 177119, Note_on_c, 9, 33, 0
1, 177119, Note_on_c, 9, 42, 0
1, 177120, Note_on_c, 9, 38, 84
1, 177120, Note_on_c, 9, 33, 44
1, 177120, Note_on_c, 9, 39, 90
1, 177120, Note_on_c, 9, 42, 65
1, 177239, Note_on_c, 9, 38, 0
1, 177239, Note_on_c, 9, 33, 0
1, 177239, Note_on_c, 9, 39, 0
1, 177239, Note_on_c, 9, 42, 0
1, 177240, Note_on_c, 9, 33, 42
1, 177359, Note_on_c, 9, 33, 0
1, 177360, Note_on_c, 9, 33, 36
1, 177360, Note_on_c, 9, 42, 69
1, 177479, Note_on_c, 9, 33, 0
1, 177479, Note_on_c, 9, 42, 0
1, 177480, Note_on_c, 9, 33, 47
1, 177599, Note_on_c, 9, 33, 0
1, 177600, Note_on_c, 9, 54, 74
1, 177600, Note_on_c, 9, 33, 58
1, 177600, Note_on_c, 9, 42, 65
1, 177600, Note_on_c, 9, 36, 106
1, 177839, Note_on_c, 9, 54, 0
1, 177839, Note_on_c, 9, 33, 0
1, 177839, Note_on_c, 9, 42, 0
1, 177840, Note_on_c, 9, 33, 55
1, 177840, Note_on_c, 9, 42, 65
1, 178079, Note_on_c, 9, 36, 0
1, 178079, Note_on_c, 9, 33, 0
1, 178079, Note_on_c, 9, 42, 0
1, 178080, Note_on_c, 9, 38, 88
1, 178080, Note_on_c, 9, 33, 42
1, 178080, Note_on_c, 9, 39, 90
1, 178080, Note_on_c, 9, 42, 65
1, 178199, Note_on_c, 9, 38, 0
1, 178199, Note_on_c, 9, 33, 0
1, 178199, Note_on_c, 9, 39, 0
1, 178199, Note_on_c, 9, 42, 0
1, 178200, Note_on_c, 9, 33, 36
1, 178319, Note_on_c, 9, 33, 0
1, 178320, Note_on_c, 9, 33, 36
1, 178320, Note_on_c, 9, 42, 65
1, 178439, Note_on_c, 9, 33, 0
1, 178439, Note_on_c, 9, 42, 0
1, 178440, Note_on_c, 9, 33, 47
1, 178559, Note_on_c, 9, 33, 0
1, 178560, Note_on_c, 9, 33, 44
1, 178560, Note_on_c, 9, 42, 69
1, 178560, Note_on_c, 9, 36, 106
1, 178799, Note_on_c, 9, 33, 0
1, 178799, Note_on_c, 9, 42, 0
1, 178800, Note_on_c, 9, 33, 56
1, 178800, Note_on_c, 9, 42, 61
1, 179039, Note_on_c, 9, 36, 0
1, 179039, Note_on_c, 9, 33, 0
1, 179039, Note_on_c, 9, 42, 0
1, 179040, Note_on_c, 9, 38, 84
1, 179040, Note_on_c, 9, 33, 44
1, 179040, Note_on_c, 9, 39, 94
1, 179040, Note_on_c, 9, 42, 73
1, 179159, Note_on_c, 9, 38, 0
1, 179159, Note_on_c, 9, 33, 0
1, 179159, Note_on_c, 9, 39, 0
1, 179159, Note_on_c, 9, 42, 0
1, 179160, Note_on_c, 9, 33, 42
1, 179279, Note_on_c, 9, 33, 0
1, 179280, Note_on_c, 9, 33, 36
1, 179280, Note_on_c, 9, 42, 49
1, 179280, Note_on_c, 9, 36, 94
1, 179399, Note_on_c, 9, 33, 0
1, 179399, Note_on_c, 9, 42, 0
1, 179400, Note_on_c, 9, 33, 47
1, 179519, Note_on_c, 9, 36, 0
1, 179519, Note_on_c, 9, 33, 0
1, 179520, Note_on_c, 9, 54, 74
1, 179520, Note_on_c, 9, 33, 58
1, 179520, Note_on_c, 9, 42, 61
1, 179520, Note_on_c, 9, 36, 114
1, 179759, Note_on_c, 9, 54, 0
1, 179759, Note_on_c, 9, 33, 0
1, 179759, Note_on_c, 9, 42, 0
1, 179760, Note_on_c, 9, 33, 55
1, 179760, Note_on_c, 9, 42, 57
1, 179999, Note_on_c, 9, 36, 0
1, 179999, Note_on_c, 9, 33, 0
1, 179999, Note_on_c, 9, 42, 0
1, 180000, Note_on_c, 9, 38, 88
1, 180000, Note_on_c, 9, 33, 42
1, 180000, Note_on_c, 9, 39, 90
1, 180000, Note_on_c, 9, 42, 69
1, 180119, Note_on_c, 9, 38, 0
1, 180119, Note_on_c, 9, 33, 0
1, 180119, Note_on_c, 9, 39, 0
1, 180119, Note_on_c, 9, 42, 0
1, 180120, Note_on_c, 9, 33, 36
1, 180239, Note_on_c, 9, 33, 0
1, 180240, Note_on_c, 9, 46, 99
1, 180240, Note_on_c, 9, 33, 36
1, 180240, Note_on_c, 9, 42, 57
1, 180359, Note_on_c, 9, 46, 0
1, 180359, Note_on_c, 9, 33, 0
1, 180359, Note_on_c, 9, 42, 0
1, 180360, Note_on_c, 9, 33, 47
1, 180479, Note_on_c, 9, 33, 0
1, 180480, Note_on_c, 9, 33, 44
1, 180480, Note_on_c, 9, 42, 73
1, 180480, Note_on_c, 9, 36, 114
1, 180719, Note_on_c, 9, 33, 0
1, 180719, Note_on_c, 9, 42, 0
1, 180720, Note_on_c, 9, 33, 56
1, 180720, Note_on_c, 9, 42, 53
1, 180959, Note_on_c, 9, 36, 0
1, 180959, Note_on_c, 9, 33, 0
1, 180959, Note_on_c, 9, 42, 0
1, 180960, Note_on_c, 9, 38, 88
1, 180960, Note_on_c, 9, 33, 44
1, 180960, Note_on_c, 9, 39, 90
1, 180960, Note_on_c, 9, 42, 73
1, 181079, Note_on_c, 9, 38, 0
1, 181079, Note_on_c, 9, 33, 0
1, 181079, Note_on_c, 9, 39, 0
1, 181079, Note_on_c, 9, 42, 0
1, 181080, Note_on_c, 9, 33, 42
1, 181199, Note_on_c, 9, 33, 0
1, 181200, Note_on_c, 9, 33, 36
1, 181200, Note_on_c, 9, 42, 57
1, 181319, Note_on_c, 9, 33, 0
1, 181319, Note_on_c, 9, 42, 0
1, 181320, Note_on_c, 9, 33, 47
1, 181439, Note_on_c, 9, 33, 0
1, 181440, Note_on_c, 9, 54, 74
1, 181440, Note_on_c, 9, 33, 58
1, 181440, Note_on_c, 9, 42, 65
1, 181440, Note_on_c, 9, 36, 110
1, 181679, Note_on_c, 9, 54, 0
1, 181679, Note_on_c, 9, 33, 0
1, 181679, Note_on_c, 9, 42, 0
1, 181680, Note_on_c, 9, 33, 55
1, 181680, Note_on_c, 9, 42, 61
1, 181919, Note_on_c, 9, 36, 0
1, 181919, Note_on_c, 9, 33, 0
1, 181919, Note_on_c, 9, 42, 0
1, 181920, Note_on_c, 9, 38, 80
1, 181920, Note_on_c, 9, 33, 42
1, 181920, Note_on_c, 9, 39, 94
1, 181920, Note_on_c, 9, 42, 69
1, 182039, Note_on_c, 9, 38, 0
1, 182039, Note_on_c, 9, 33, 0
1, 182039, Note_on_c, 9, 39, 0
1, 182039, Note_on_c, 9, 42, 0
1, 182040, Note_on_c, 9, 33, 36
1, 182159, Note_on_c, 9, 33, 0
1, 182160, Note_on_c, 9, 33, 36
1, 182160, Note_on_c, 9, 42, 49
1, 182279, Note_on_c, 9, 33, 0
1, 182279, Note_on_c, 9, 42, 0
1, 182280, Note_on_c, 9, 33, 47
1, 182399, Note_on_c, 9, 33, 0
1, 182400, Note_on_c, 9, 33, 44
1, 182400, Note_on_c, 9, 42, 77
1, 182400, Note_on_c, 9, 36, 102
1, 182639, Note_on_c, 9, 33, 0
1, 182639, Note_on_c, 9, 42, 0
1, 182640, Note_on_c, 9, 33, 56
1, 182640, Note_on_c, 9, 42, 61
1, 182879, Note_on_c, 9, 36, 0
1, 182879, Note_on_c, 9, 33, 0
1, 182879, Note_on_c, 9, 42, 0
1, 182880, Note_on_c, 9, 38, 84
1, 182880, Note_on_c, 9, 33, 44
1, 182880, Note_on_c, 9, 39, 94
1, 182880, Note_on_c, 9, 42, 65
1, 182999, Note_on_c, 9, 38, 0
1, 182999, Note_on_c, 9, 33, 0
1, 182999, Note_on_c, 9, 39, 0
1, 182999, Note_on_c, 9, 42, 0
1, 183000, Note_on_c, 9, 33, 42
1, 183119, Note_on_c, 9, 33, 0
1, 183120, Note_on_c, 9, 33, 36
1, 183120, Note_on_c, 9, 42, 57
1, 183120, Note_on_c, 9, 36, 94
1, 183239, Note_on_c, 9, 33, 0
1, 183239, Note_on_c, 9, 42, 0
1, 183240, Note_on_c, 9, 33, 47
1, 183359, Note_on_c, 9, 36, 0
1, 183359, Note_on_c, 9, 33, 0
1, 183360, Note_on_c, 9, 54, 74
1, 183360, Note_on_c, 9, 33, 58
1, 183360, Note_on_c, 9, 42, 65
1, 183360, Note_on_c, 9, 36, 102
1, 183599, Note_on_c, 9, 54, 0
1, 183599, Note_on_c, 9, 33, 0
1, 183599, Note_on_c, 9, 42, 0
1, 183600, Note_on_c, 9, 33, 55
1, 183600, Note_on_c, 9, 42, 57
1, 183839, Note_on_c, 9, 36, 0
1, 183839, Note_on_c, 9, 33, 0
1, 183839, Note_on_c, 9, 42, 0
1, 183840, Note_on_c, 9, 38, 88
1, 183840, Note_on_c, 9, 33, 42
1, 183840, Note_on_c, 9, 39, 90
1, 183840, Note_on_c, 9, 42, 73
1, 183959, Note_on_c, 9, 38, 0
1, 183959, Note_on_c, 9, 33, 0
1, 183959, Note_on_c, 9, 39, 0
1, 183959, Note_on_c, 9, 42, 0
1, 183960, Note_on_c, 9, 33, 36
1, 184079, Note_on_c, 9, 33, 0
1, 184080, Note_on_c, 9, 33, 36
1, 184080, Note_on_c, 9, 42, 57
1, 184199, Note_on_c, 9, 33, 0
1, 184199, Note_on_c, 9, 42, 0
1, 184200, Note_on_c, 9, 33, 47
1, 184319, Note_on_c, 9, 33, 0
1, 184320, Note_on_c, 9, 33, 44
1, 184320, Note_on_c, 9, 42, 69
1, 184320, Note_on_c, 9, 36, 106
1, 184559, Note_on_c, 9, 33, 0
1, 184559, Note_on_c, 9, 42, 0
1, 184560, Note_on_c, 9, 33, 56
1, 184560, Note_on_c, 9, 42, 57
1, 184799, Note_on_c, 9, 36, 0
1, 184799, Note_on_c, 9, 33, 0
1, 184799, Note_on_c, 9, 42, 0
1, 184800, Note_on_c, 9, 38, 84
1, 184800, Note_on_c, 9, 33, 44
1, 184800, Note_on_c, 9, 39, 90
1, 184800, Note_on_c, 9, 42, 69
1, 184919, Note_on_c, 9, 38, 0
1, 184919, Note_on_c, 9, 33, 0
1, 184919, Note_on_c, 9, 39, 0
1, 184919, Note_on_c, 9, 42, 0
1, 184920, Note_on_c, 9, 33, 42
1, 185039, Note_on_c, 9, 33, 0
1, 185040, Note_on_c, 9, 33, 36
1, 185040, Note_on_c, 9, 42, 61
1, 185159, Note_on_c, 9, 33, 0
1, 185159, Note_on_c, 9, 42, 0
1, 185160, Note_on_c, 9, 33, 47
1, 185279, Note_on_c, 9, 33, 0
1, 185280, Note_on_c, 9, 54, 74
1, 185280, Note_on_c, 9, 33, 58
1, 185280, Note_on_c, 9, 42, 65
1, 185280, Note_on_c, 9, 36, 106
1, 185519, Note_on_c, 9, 54, 0
1, 185519, Note_on_c, 9, 33, 0
1, 185519, Note_on_c, 9, 42, 0
1, 185520, Note_on_c, 9, 33, 55
1, 185520, Note_on_c, 9, 42, 61
1, 185759, Note_on_c, 9, 36, 0
1, 185759, Note_on_c, 9, 33, 0
1, 185759, Note_on_c, 9, 42, 0
1, 185760, Note_on_c, 9, 38, 88
1, 185760, Note_on_c, 9, 33, 42
1, 185760, Note_on_c, 9, 39, 90
1, 185760, Note_on_c, 9, 42, 69
1, 185879, Note_on_c, 9, 38, 0
1, 185879, Note_on_c, 9, 33, 0
1, 185879, Note_on_c, 9, 39, 0
1, 185879, Note_on_c, 9, 42, 0
1, 185880, Note_on_c, 9, 33, 36
1, 185999, Note_on_c, 9, 33, 0
1, 186000, Note_on_c, 9, 33, 36
1, 186000, Note_on_c, 9, 42, 61
1, 186119, Note_on_c, 9, 33, 0
1, 186119, Note_on_c, 9, 42, 0
1, 186120, Note_on_c, 9, 33, 47
1, 186239, Note_on_c, 9, 33, 0
1, 186240, Note_on_c, 9, 33, 44
1, 186240, Note_on_c, 9, 42, 61
1, 186240, Note_on_c, 9, 36, 106
1, 186479, Note_on_c, 9, 33, 0
1, 186479, Note_on_c, 9, 42, 0
1, 186480, Note_on_c, 9, 33, 56
1, 186480, Note_on_c, 9, 42, 61
1, 186719, Note_on_c, 9, 36, 0
1, 186719, Note_on_c, 9, 33, 0
1, 186719, Note_on_c, 9, 42, 0
1, 186720, Note_on_c, 9, 38, 84
1, 186720, Note_on_c, 9, 33, 44
1, 186720, Note_on_c, 9, 39, 94
1, 186720, Note_on_c, 9, 42, 65
1, 186839, Note_on_c, 9, 38, 0
1, 186839, Note_on_c, 9, 33, 0
1, 186839, Note_on_c, 9, 39, 0
1, 186839, Note_on_c, 9, 42, 0
1, 186840, Note_on_c, 9, 33, 42
1, 186959, Note_on_c, 9, 33, 0
1, 186960, Note_on_c, 9, 46, 99
1, 186960, Note_on_c, 9, 33, 36
1, 186960, Note_on_c, 9, 42, 53
1, 186960, Note_on_c, 9, 36, 94
1, 187079, Note_on_c, 9, 46, 0
1, 187079, Note_on_c, 9, 33, 0
1, 187079, Note_on_c, 9, 42, 0
1, 187080, Note_on_c, 9, 33, 47
1, 187199, Note_on_c, 9, 36, 0
1, 187199, Note_on_c, 9, 33, 0
1, 187200, Note_on_c, 9, 54, 74
1, 187200, Note_on_c, 9, 33, 58
1, 187200, Note_on_c, 9, 42, 61
1, 187200, Note_on_c, 9, 36, 114
1, 187439, Note_on_c, 9, 54, 0
1, 187439, Note_on_c, 9, 33, 0
1, 187439, Note_on_c, 9, 42, 0
1, 187440, Note_on_c, 9, 33, 55
1, 187440, Note_on_c, 9, 42, 97
1, 187559, Note_on_c, 9, 33, 0
1, 187559, Note_on_c, 9, 42, 0
1, 187560, Note_on_c, 9, 38, 84
1, 187560, Note_on_c, 9, 42, 77
1, 187679, Note_on_c, 9, 36, 0
1, 187679, Note_on_c, 9, 38, 0
1, 187679, Note_on_c, 9, 42, 0
1, 187680, Note_on_c, 9, 38, 80
1, 187680, Note_on_c, 9, 33, 42
1, 187680, Note_on_c, 9, 39, 90
1, 187799, Note_on_c, 9, 38, 0
1, 187799, Note_on_c, 9, 33, 0
1, 187799, Note_on_c, 9, 39, 0
1, 187800, Note_on_c, 9, 33, 36
1, 187919, Note_on_c, 9, 33, 0
1, 187920, Note_on_c, 9, 38, 84
1, 187920, Note_on_c, 9, 46, 53
1, 187920, Note_on_c, 9, 33, 36
1, 188039, Note_on_c, 9, 38, 0
1, 188039, Note_on_c, 9, 46, 0
1, 188039, Note_on_c, 9, 33, 0
1, 188040, Note_on_c, 9, 33, 47
1, 188159, Note_on_c, 9, 33, 0
1, 188160, Note_on_c, 9, 33, 44
1, 188160, Note_on_c, 9, 42, 73
1, 188160, Note_on_c, 9, 49, 44
1, 188160, Note_on_c, 9, 36, 114
1, 188399, Note_on_c, 9, 33, 0
1, 188399, Note_on_c, 9, 42, 0
1, 188399, Note_on_c, 9, 49, 0
1, 188400, Note_on_c, 9, 33, 56
1, 188400, Note_on_c, 9, 42, 69
1, 188639, Note_on_c, 9, 36, 0
1, 188639, Note_on_c, 9, 33, 0
1, 188639, Note_on_c, 9, 42, 0
1, 188640, Note_on_c, 9, 38, 92
1, 188640, Note_on_c, 9, 33, 44
1, 188640, Note_on_c, 9, 39, 90
1, 188640, Note_on_c, 9, 42, 69
1, 188759, Note_on_c, 9, 38, 0
1, 188759, Note_on_c, 9, 33, 0
1, 188759, Note_on_c, 9, 39, 0
1, 188759, Note_on_c, 9, 42, 0
1, 188760, Note_on_c, 9, 33, 42
1, 188879, Note_on_c, 9, 33, 0
1, 188880, Note_on_c, 9, 33, 36
1, 188880, Note_on_c, 9, 42, 57
1, 188999, Note_on_c, 9, 33, 0
1, 188999, Note_on_c, 9, 42, 0
1, 189000, Note_on_c, 9, 33, 47
1, 189119, Note_on_c, 9, 33, 0
1, 189120, Note_on_c, 9, 54, 74
1, 189120, Note_on_c, 9, 33, 58
1, 189120, Note_on_c, 9, 42, 65
1, 189120, Note_on_c, 9, 36, 110
1, 189359, Note_on_c, 9, 54, 0
1, 189359, Note_on_c, 9, 33, 0
1, 189359, Note_on_c, 9, 42, 0
1, 189360, Note_on_c, 9, 33, 55
1, 189360, Note_on_c, 9, 42, 61
1, 189599, Note_on_c, 9, 36, 0
1, 189599, Note_on_c, 9, 33, 0
1, 189599, Note_on_c, 9, 42, 0
1, 189600, Note_on_c, 9, 38, 88
1, 189600, Note_on_c, 9, 33, 42
1, 189600, Note_on_c, 9, 39, 94
1, 189600, Note_on_c, 9, 42, 65
1, 189719, Note_on_c, 9, 38, 0
1, 189719, Note_on_c, 9, 33, 0
1, 189719, Note_on_c, 9, 39, 0
1, 189719, Note_on_c, 9, 42, 0
1, 189720, Note_on_c, 9, 33, 36
1, 189839, Note_on_c, 9, 33, 0
1, 189840, Note_on_c, 9, 33, 36
1, 189840, Note_on_c, 9, 42, 61
1, 189959, Note_on_c, 9, 33, 0
1, 189959, Note_on_c, 9, 42, 0
1, 189960, Note_on_c, 9, 33, 47
1, 190079, Note_on_c, 9, 33, 0
1, 190080, Note_on_c, 9, 33, 44
1, 190080, Note_on_c, 9, 42, 65
1, 190080, Note_on_c, 9, 36, 102
1, 190319, Note_on_c, 9, 33, 0
1, 190319, Note_on_c, 9, 42, 0
1, 190320, Note_on_c, 9, 33, 56
1, 190320, Note_on_c, 9, 42, 65
1, 190559, Note_on_c, 9, 36, 0
1, 190559, Note_on_c, 9, 33, 0
1, 190559, Note_on_c, 9, 42, 0
1, 190560, Note_on_c, 9, 38, 92
1, 190560, Note_on_c, 9, 33, 44
1, 190560, Note_on_c, 9, 39, 94
1, 190560, Note_on_c, 9, 42, 65
1, 190679, Note_on_c, 9, 38, 0
1, 190679, Note_on_c, 9, 33, 0
1, 190679, Note_on_c, 9, 39, 0
1, 190679, Note_on_c, 9, 42, 0
1, 190680, Note_on_c, 9, 33, 42
1, 190799, Note_on_c, 9, 33, 0
1, 190800, Note_on_c, 9, 33, 36
1, 190800, Note_on_c, 9, 42, 61
1, 190800, Note_on_c, 9, 36, 94
1, 190919, Note_on_c, 9, 33, 0
1, 190919, Note_on_c, 9, 42, 0
1, 190920, Note_on_c, 9, 33, 47
1, 191039, Note_on_c, 9, 36, 0
1, 191039, Note_on_c, 9, 33, 0
1, 191040, Note_on_c, 9, 54, 74
1, 191040, Note_on_c, 9, 33, 58
1, 191040, Note_on_c, 9, 42, 65
1, 191040, Note_on_c, 9, 36, 102
1, 191279, Note_on_c, 9, 54, 0
1, 191279, Note_on_c, 9, 33, 0
1, 191279, Note_on_c, 9, 42, 0
1, 191280, Note_on_c, 9, 33, 55
1, 191280, Note_on_c, 9, 42, 61
1, 191519, Note_on_c, 9, 36, 0
1, 191519, Note_on_c, 9, 33, 0
1, 191519, Note_on_c, 9, 42, 0
1, 191520, Note_on_c, 9, 38, 92
1, 191520, Note_on_c, 9, 33, 42
1, 191520, Note_on_c, 9, 39, 90
1, 191520, Note_on_c, 9, 42, 65
1, 191639, Note_on_c, 9, 38, 0
1, 191639, Note_on_c, 9, 33, 0
1, 191639, Note_on_c, 9, 39, 0
1, 191639, Note_on_c, 9, 42, 0
1, 191640, Note_on_c, 9, 33, 36
1, 191759, Note_on_c, 9, 33, 0
1, 191760, Note_on_c, 9, 33, 36
1, 191760, Note_on_c, 9, 42, 65
1, 191879, Note_on_c, 9, 33, 0
1, 191879, Note_on_c, 9, 42, 0
1, 191880, Note_on_c, 9, 33, 47
1, 191999, Note_on_c, 9, 33, 0
1, 192000, Note_on_c, 9, 33, 44
1, 192000, Note_on_c, 9, 42, 69
1, 192000, Note_on_c, 9, 36, 106
1, 192239, Note_on_c, 9, 33, 0
1, 192239, Note_on_c, 9, 42, 0
1, 192240, Note_on_c, 9, 33, 56
1, 192240, Note_on_c, 9, 42, 61
1, 192479, Note_on_c, 9, 36, 0
1, 192479, Note_on_c, 9, 33, 0
1, 192479, Note_on_c, 9, 42, 0
1, 192480, Note_on_c, 9, 38, 84
1, 192480, Note_on_c, 9, 33, 44
1, 192480, Note_on_c, 9, 39, 90
1, 192480, Note_on_c, 9, 42, 65
1, 192599, Note_on_c, 9, 38, 0
1, 192599, Note_on_c, 9, 33, 0
1, 192599, Note_on_c, 9, 39, 0
1, 192599, Note_on_c, 9, 42, 0
1, 192600, Note_on_c, 9, 33, 42
1, 192719, Note_on_c, 9, 33, 0
1, 192720, Note_on_c, 9, 33, 36
1, 192720, Note_on_c, 9, 42, 69
1, 192839, Note_on_c, 9, 33, 0
1, 192839, Note_on_c, 9, 42, 0
1, 192840, Note_on_c, 9, 33, 47
1, 192959, Note_on_c, 9, 33, 0
1, 192960, Note_on_c, 9, 54, 74
1, 192960, Note_on_c, 9, 33, 58
1, 192960, Note_on_c, 9, 42, 65
1, 192960, Note_on_c, 9, 36, 106
1, 193199, Note_on_c, 9, 54, 0
1, 193199, Note_on_c, 9, 33, 0
1, 193199, Note_on_c, 9, 42, 0
1, 193200, Note_on_c, 9, 33, 55
1, 193200, Note_on_c, 9, 42, 65
1, 193439, Note_on_c, 9, 36, 0
1, 193439, Note_on_c, 9, 33, 0
1, 193439, Note_on_c, 9, 42, 0
1, 193440, Note_on_c, 9, 38, 88
1, 193440, Note_on_c, 9, 33, 42
1, 193440, Note_on_c, 9, 39, 90
1, 193440, Note_on_c, 9, 42, 65
1, 193559, Note_on_c, 9, 38, 0
1, 193559, Note_on_c, 9, 33, 0
1, 193559, Note_on_c, 9, 39, 0
1, 193559, Note_on_c, 9, 42, 0
1, 193560, Note_on_c, 9, 33, 36
1, 193679, Note_on_c, 9, 33, 0
1, 193680, Note_on_c, 9, 33, 36
1, 193680, Note_on_c, 9, 42, 65
1, 193799, Note_on_c, 9, 33, 0
1, 193799, Note_on_c, 9, 42, 0
1, 193800, Note_on_c, 9, 33, 47
1, 193919, Note_on_c, 9, 33, 0
1, 193920, Note_on_c, 9, 33, 44
1, 193920, Note_on_c, 9, 42, 69
1, 193920, Note_on_c, 9, 36, 106
1, 194159, Note_on_c, 9, 33, 0
1, 194159, Note_on_c, 9, 42, 0
1, 194160, Note_on_c, 9, 33, 56
1, 194160, Note_on_c, 9, 42, 61
1, 194399, Note_on_c, 9, 36, 0
1, 194399, Note_on_c, 9, 33, 0
1, 194399, Note_on_c, 9, 42, 0
1, 194400, Note_on_c, 9, 38, 84
1, 194400, Note_on_c, 9, 33, 44
1, 194400, Note_on_c, 9, 39, 94
1, 194400, Note_on_c, 9, 42, 73
1, 194519, Note_on_c, 9, 38, 0
1, 194519, Note_on_c, 9, 33, 0
1, 194519, Note_on_c, 9, 39, 0
1, 194519, Note_on_c, 9, 42, 0
1, 194520, Note_on_c, 9, 33, 42
1, 194639, Note_on_c, 9, 33, 0
1, 194640, Note_on_c, 9, 33, 36
1, 194640, Note_on_c, 9, 42, 49
1, 194640, Note_on_c, 9, 36, 94
1, 194759, Note_on_c, 9, 33, 0
1, 194759, Note_on_c, 9, 42, 0
1, 194760, Note_on_c, 9, 33, 47
1, 194879, Note_on_c, 9, 36, 0
1, 194879, Note_on_c, 9, 33, 0
1, 194880, Note_on_c, 9, 54, 74
1, 194880, Note_on_c, 9, 33, 58
1, 194880, Note_on_c, 9, 42, 61
1, 194880, Note_on_c, 9, 36, 114
1, 195119, Note_on_c, 9, 54, 0
1, 195119, Note_on_c, 9, 33, 0
1, 195119, Note_on_c, 9, 42, 0
1, 195120, Note_on_c, 9, 33, 55
1, 195120, Note_on_c, 9, 42, 57
1, 195359, Note_on_c, 9, 36, 0
1, 195359, Note_on_c, 9, 33, 0
1, 195359, Note_on_c, 9, 42, 0
1, 195360, Note_on_c, 9, 38, 88
1, 195360, Note_on_c, 9, 33, 42
1, 195360, Note_on_c, 9, 39, 90
1, 195360, Note_on_c, 9, 42, 69
1, 195479, Note_on_c, 9, 38, 0
1, 195479, Note_on_c, 9, 33, 0
1, 195479, Note_on_c, 9, 39, 0
1, 195479, Note_on_c, 9, 42, 0
1, 195480, Note_on_c, 9, 33, 36
1, 195599, Note_on_c, 9, 33, 0
1, 195600, Note_on_c, 9, 33, 36
1, 195600, Note_on_c, 9, 42, 57
1, 195719, Note_on_c, 9, 33, 0
1, 195719, Note_on_c, 9, 42, 0
1, 195720, Note_on_c, 9, 33, 47
1, 195839, Note_on_c, 9, 33, 0
1, 195840, Note_on_c, 9, 33, 44
1, 195840, Note_on_c, 9, 42, 73
1, 195840, Note_on_c, 9, 36, 114
1, 196079, Note_on_c, 9, 33, 0
1, 196079, Note_on_c, 9, 42, 0
1, 196080, Note_on_c, 9, 33, 56
1, 196080, Note_on_c, 9, 42, 53
1, 196319, Note_on_c, 9, 36, 0
1, 196319, Note_on_c, 9, 33, 0
1, 196319, Note_on_c, 9, 42, 0
1, 196320, Note_on_c, 9, 38, 88
1, 196320, Note_on_c, 9, 33, 44
1, 196320, Note_on_c, 9, 39, 90
1, 196320, Note_on_c, 9, 42, 73
1, 196439, Note_on_c, 9, 38, 0
1, 196439, Note_on_c, 9, 33, 0
1, 196439, Note_on_c, 9, 39, 0
1, 196439, Note_on_c, 9, 42, 0
1, 196440, Note_on_c, 9, 33, 42
1, 196559, Note_on_c, 9, 33, 0
1, 196560, Note_on_c, 9, 33, 36
1, 196560, Note_on_c, 9, 42, 57
1, 196679, Note_on_c, 9, 33, 0
1, 196679, Note_on_c, 9, 42, 0
1, 196680, Note_on_c, 9, 33, 47
1, 196799, Note_on_c, 9, 33, 0
1, 196800, Note_on_c, 9, 54, 74
1, 196800, Note_on_c, 9, 33, 58
1, 196800, Note_on_c, 9, 42, 65
1, 196800, Note_on_c, 9, 36, 110
1, 197039, Note_on_c, 9, 54, 0
1, 197039, Note_on_c, 9, 33, 0
1, 197039, Note_on_c, 9, 42, 0
1, 197040, Note_on_c, 9, 33, 55
1, 197040, Note_on_c, 9, 42, 61
1, 197279, Note_on_c, 9, 36, 0
1, 197279, Note_on_c, 9, 33, 0
1, 197279, Note_on_c, 9, 42, 0
1, 197280, Note_on_c, 9, 38, 80
1, 197280, Note_on_c, 9, 33, 42
1, 197280, Note_on_c, 9, 39, 94
1, 197280, Note_on_c, 9, 42, 69
1, 197399, Note_on_c, 9, 38, 0
1, 197399, Note_on_c, 9, 33, 0
1, 197399, Note_on_c, 9, 39, 0
1, 197399, Note_on_c, 9, 42, 0
1, 197400, Note_on_c, 9, 33, 36
1, 197519, Note_on_c, 9, 33, 0
1, 197520, Note_on_c, 9, 33, 36
1, 197520, Note_on_c, 9, 42, 49
1, 197639, Note_on_c, 9, 33, 0
1, 197639, Note_on_c, 9, 42, 0
1, 197640, Note_on_c, 9, 33, 47
1, 197759, Note_on_c, 9, 33, 0
1, 197760, Note_on_c, 9, 33, 44
1, 197760, Note_on_c, 9, 42, 77
1, 197760, Note_on_c, 9, 36, 102
1, 197999, Note_on_c, 9, 33, 0
1, 197999, Note_on_c, 9, 42, 0
1, 198000, Note_on_c, 9, 33, 56
1, 198000, Note_on_c, 9, 42, 61
1, 198239, Note_on_c, 9, 36, 0
1, 198239, Note_on_c, 9, 33, 0
1, 198239, Note_on_c, 9, 42, 0
1, 198240, Note_on_c, 9, 38, 84
1, 198240, Note_on_c, 9, 33, 44
1, 198240, Note_on_c, 9, 39, 94
1, 198240, Note_on_c, 9, 42, 65
1, 198359, Note_on_c, 9, 38, 0
1, 198359, Note_on_c, 9, 33, 0
1, 198359, Note_on_c, 9, 39, 0
1, 198359, Note_on_c, 9, 42, 0
1, 198360, Note_on_c, 9, 33, 42
1, 198479, Note_on_c, 9, 33, 0
1, 198480, Note_on_c, 9, 33, 36
1, 198480, Note_on_c, 9, 42, 57
1, 198480, Note_on_c, 9, 36, 94
1, 198599, Note_on_c, 9, 33, 0
1, 198599, Note_on_c, 9, 42, 0
1, 198600, Note_on_c, 9, 33, 47
1, 198719, Note_on_c, 9, 36, 0
1, 198719, Note_on_c, 9, 33, 0
1, 198720, Note_on_c, 9, 54, 74
1, 198720, Note_on_c, 9, 33, 58
1, 198720, Note_on_c, 9, 42, 65
1, 198720, Note_on_c, 9, 36, 102
1, 198959, Note_on_c, 9, 54, 0
1, 198959, Note_on_c, 9, 33, 0
1, 198959, Note_on_c, 9, 42, 0
1, 198960, Note_on_c, 9, 33, 55
1, 198960, Note_on_c, 9, 42, 57
1, 199199, Note_on_c, 9, 36, 0
1, 199199, Note_on_c, 9, 33, 0
1, 199199, Note_on_c, 9, 42, 0
1, 199200, Note_on_c, 9, 38, 88
1, 199200, Note_on_c, 9, 33, 42
1, 199200, Note_on_c, 9, 39, 90
1, 199200, Note_on_c, 9, 42, 73
1, 199319, Note_on_c, 9, 38, 0
1, 199319, Note_on_c, 9, 33, 0
1, 199319, Note_on_c, 9, 39, 0
1, 199319, Note_on_c, 9, 42, 0
1, 199320, Note_on_c, 9, 33, 36
1, 199439, Note_on_c, 9, 33, 0
1, 199440, Note_on_c, 9, 33, 36
1, 199440, Note_on_c, 9, 42, 57
1, 199559, Note_on_c, 9, 33, 0
1, 199559, Note_on_c, 9, 42, 0
1, 199560, Note_on_c, 9, 33, 47
1, 199679, Note_on_c, 9, 33, 0
1, 199680, Note_on_c, 9, 33, 44
1, 199680, Note_on_c, 9, 42, 69
1, 199680, Note_on_c, 9, 36, 106
1, 199919, Note_on_c, 9, 33, 0
1, 199919, Note_on_c, 9, 42, 0
1, 199920, Note_on_c, 9, 33, 56
1, 199920, Note_on_c, 9, 42, 57
1, 200159, Note_on_c, 9, 36, 0
1, 200159, Note_on_c, 9, 33, 0
1, 200159, Note_on_c, 9, 42, 0
1, 200160, Note_on_c, 9, 38, 84
1, 200160, Note_on_c, 9, 33, 44
1, 200160, Note_on_c, 9, 39, 90
1, 200160, Note_on_c, 9, 42, 69
1, 200279, Note_on_c, 9, 38, 0
1, 200279, Note_on_c, 9, 33, 0
1, 200279, Note_on_c, 9, 39, 0
1, 200279, Note_on_c, 9, 42, 0
1, 200280, Note_on_c, 9, 33, 42
1, 200399, Note_on_c, 9, 33, 0
1, 200400, Note_on_c, 9, 33, 36
1, 200400, Note_on_c, 9, 42, 61
1, 200519, Note_on_c, 9, 33, 0
1, 200519, Note_on_c, 9, 42, 0
1, 200520, Note_on_c, 9, 33, 47
1, 200639, Note_on_c, 9, 33, 0
1, 200640, Note_on_c, 9, 54, 74
1, 200640, Note_on_c, 9, 33, 58
1, 200640, Note_on_c, 9, 42, 65
1, 200640, Note_on_c, 9, 36, 106
1, 200879, Note_on_c, 9, 54, 0
1, 200879, Note_on_c, 9, 33, 0
1, 200879, Note_on_c, 9, 42, 0
1, 200880, Note_on_c, 9, 33, 55
1, 201119, Note_on_c, 9, 36, 0
1, 201119, Note_on_c, 9, 33, 0
1, 201120, End_track
0, 0, End_of_file
