0, 0, Header, 1, 2, 480
1, 0, Start_track
1, 0, Time_signature, 4, 2, 24, 8
1, 0, Key_signature, 0, "major"
1, 0, Tempo, 659341
1, 0, Control_c, 9, 121, 0
1, 0, Program_c, 9, 0
1, 0, Control_c, 9, 7, 100
1, 0, Control_c, 9, 10, 64
1, 0, Control_c, 9, 91, 0
1, 0, Control_c, 9, 93, 0
1, 0, MIDI_port, 0
1, 1920, Note_on_c, 9, 44, 85
1, 2399, Note_on_c, 9, 44, 0
1, 2400, Note_on_c, 9, 44, 85
1, 2879, Note_on_c, 9, 44, 0
1, 2880, Note_on_c, 9, 44, 85
1, 3359, Note_on_c, 9, 44, 0
1, 3360, Note_on_c, 9, 44, 85
1, 3839, Note_on_c, 9, 44, 0
1, 7680, Note_on_c, 9, 36, 104
1, 8159, Note_on_c, 9, 36, 0
1, 8400, Note_on_c, 9, 36, 80
1, 8639, Note_on_c, 9, 36, 0
1, 9120, Note_on_c, 9, 62, 113
1, 9599, Note_on_c, 9, 62, 0
1, 9600, Note_on_c, 9, 36, 104
1, 10079, Note_on_c, 9, 36, 0
1, 10320, Note_on_c, 9, 36, 80
1, 10559, Note_on_c, 9, 36, 0
1, 11040, Note_on_c, 9, 62, 113
1, 11519, Note_on_c, 9, 62, 0
1, 11520, Note_on_c, 9, 36, 104
1, 11999, Note_on_c, 9, 36, 0
1, 12240, Note_on_c, 9, 36, 80
1, 12479, Note_on_c, 9, 36, 0
1, 12960, Note_on_c, 9, 62, 113
1, 13439, Note_on_c, 9, 62, 0
1, 13440, Note_on_c, 9, 36, 104
1, 13919, Note_on_c, 9, 36, 0
1, 14160, Note_on_c, 9, 36, 80
1, 14399, Note_on_c, 9, 36, 0
1, 14880, Note_on_c, 9, 62, 113
1, 15359, Note_on_c, 9, 62, 0
1, 15360, Note_on_c, 9, 36, 104
1, 15839, Note_on_c, 9, 36, 0
1, 16080, Note_on_c, 9, 36, 80
1, 16319, Note_on_c, 9, 36, 0
1, 16800, Note_on_c, 9, 62, 113
1, 17279, Note_on_c, 9, 62, 0
1, 17280, Note_on_c, 9, 36, 104
1, 17759, Note_on_c, 9, 36, 0
1, 18000, Note_on_c, 9, 36, 80
1, 18239, Note_on_c, 9, 36, 0
1, 18720, Note_on_c, 9, 62, 113
1, 19199, Note_on_c, 9, 62, 0
1, 19200, Note_on_c, 9, 36, 104
1, 19679, Note_on_c, 9, 36, 0
1, 19920, Note_on_c, 9, 36, 80
1, 20159, Note_on_c, 9, 36, 0
1, 20640, Note_on_c, 9, 62, 113
1, 21119, Note_on_c, 9, 62, 0
1, 21120, Note_on_c, 9, 36, 104
1, 21599, Note_on_c, 9, 36, 0
1, 21840, Note_on_c, 9, 36, 80
1, 22079, Note_on_c, 9, 36, 0
1, 22560, Note_on_c, 9, 62, 113
1, 23039, Note_on_c, 9, 62, 0
1, 23040, Note_on_c, 9, 36, 104
1, 23519, Note_on_c, 9, 36, 0
1, 23760, Note_on_c, 9, 36, 80
1, 23999, Note_on_c, 9, 36, 0
1, 24480, Note_on_c, 9, 62, 113
1, 24959, Note_on_c, 9, 62, 0
1, 24960, Note_on_c, 9, 36, 104
1, 25439, Note_on_c, 9, 36, 0
1, 25680, Note_on_c, 9, 36, 80
1, 25919, Note_on_c, 9, 36, 0
1, 26400, Note_on_c, 9, 62, 113
1, 26879, Note_on_c, 9, 62, 0
1, 26880, Note_on_c, 9, 36, 104
1, 27359, Note_on_c, 9, 36, 0
1, 27600, Note_on_c, 9, 36, 80
1, 27839, Note_on_c, 9, 36, 0
1, 28320, Note_on_c, 9, 62, 113
1, 28799, Note_on_c, 9, 62, 0
1, 28800, Note_on_c, 9, 36, 104
1, 29279, Note_on_c, 9, 36, 0
1, 29520, Note_on_c, 9, 36, 80
1, 29759, Note_on_c, 9, 36, 0
1, 30240, Note_on_c, 9, 62, 113
1, 30719, Note_on_c, 9, 62, 0
1, 30720, Note_on_c, 9, 36, 104
1, 31199, Note_on_c, 9, 36, 0
1, 31440, Note_on_c, 9, 36, 80
1, 31679, Note_on_c, 9, 36, 0
1, 32160, Note_on_c, 9, 62, 113
1, 32639, Note_on_c, 9, 62, 0
1, 32640, Note_on_c, 9, 36, 104
1, 33119, Note_on_c, 9, 36, 0
1, 33360, Note_on_c, 9, 36, 80
1, 33599, Note_on_c, 9, 36, 0
1, 34080, Note_on_c, 9, 62, 113
1, 34559, Note_on_c, 9, 62, 0
1, 34560, Note_on_c, 9, 36, 104
1, 35039, Note_on_c, 9, 36, 0
1, 35280, Note_on_c, 9, 36, 80
1, 35519, Note_on_c, 9, 36, 0
1, 36000, Note_on_c, 9, 62, 113
1, 36479, Note_on_c, 9, 62, 0
1, 36480, Note_on_c, 9, 36, 104
1, 36959, Note_on_c, 9, 36, 0
1, 37200, Note_on_c, 9, 36, 80
1, 37439, Note_on_c, 9, 36, 0
1, 37920, Note_on_c, 9, 62, 113
1, 38399, Note_on_c, 9, 62, 0
1, 38400, Note_on_c, 9, 36, 104
1, 38879, Note_on_c, 9, 36, 0
1, 39120, Note_on_c, 9, 36, 80
1, 39359, Note_on_c, 9, 36, 0
1, 39840, Note_on_c, 9, 62, 113
1, 40319, Note_on_c, 9, 62, 0
1, 40320, Note_on_c, 9, 36, 104
1, 40799, Note_on_c, 9, 36, 0
1, 41040, Note_on_c, 9, 36, 80
1, 41279, Note_on_c, 9, 36, 0
1, 41760, Note_on_c, 9, 62, 113
1, 42239, Note_on_c, 9, 62, 0
1, 42240, Note_on_c, 9, 36, 104
1, 42719, Note_on_c, 9, 36, 0
1, 42960, Note_on_c, 9, 36, 80
1, 43199, Note_on_c, 9, 36, 0
1, 43680, Note_on_c, 9, 62, 113
1, 44159, Note_on_c, 9, 62, 0
1, 44160, Note_on_c, 9, 36, 104
1, 44639, Note_on_c, 9, 36, 0
1, 44880, Note_on_c, 9, 36, 80
1, 45119, Note_on_c, 9, 36, 0
1, 45600, Note_on_c, 9, 62, 113
1, 46079, Note_on_c, 9, 62, 0
1, 46080, Note_on_c, 9, 36, 94
1, 46559, Note_on_c, 9, 36, 0
1, 46800, Note_on_c, 9, 36, 75
1, 47039, Note_on_c, 9, 36, 0
1, 47040, Note_on_c, 9, 36, 81
1, 47519, Note_on_c, 9, 36, 0
1, 47520, Note_on_c, 9, 62, 93
1, 47999, Note_on_c, 9, 62, 0
1, 48000, Note_on_c, 9, 36, 83
1, 48479, Note_on_c, 9, 36, 0
1, 48720, Note_on_c, 9, 36, 71
1, 48959, Note_on_c, 9, 36, 0
1, 48960, Note_on_c, 9, 62, 95
1, 49439, Note_on_c, 9, 62, 0
1, 49440, Note_on_c, 9, 62, 93
1, 49919, Note_on_c, 9, 62, 0
1, 49920, Note_on_c, 9, 36, 83
1, 50399, Note_on_c, 9, 36, 0
1, 50640, Note_on_c, 9, 36, 83
1, 50879, Note_on_c, 9, 36, 0
1, 51360, Note_on_c, 9, 62, 75
1, 51839, Note_on_c, 9, 62, 0
1, 51840, Note_on_c, 9, 54, 61
1, 51840, Note_on_c, 9, 36, 91
1, 52079, Note_on_c, 9, 54, 0
1, 52080, Note_on_c, 9, 54, 31
1, 52319, Note_on_c, 9, 36, 0
1, 52319, Note_on_c, 9, 54, 0
1, 52320, Note_on_c, 9, 54, 53
1, 52559, Note_on_c, 9, 54, 0
1, 52560, Note_on_c, 9, 54, 30
1, 52560, Note_on_c, 9, 36, 100
1, 52799, Note_on_c, 9, 54, 0
1, 52799, Note_on_c, 9, 36, 0
1, 52800, Note_on_c, 9, 54, 59
1, 53039, Note_on_c, 9, 54, 0
1, 53040, Note_on_c, 9, 54, 36
1, 53279, Note_on_c, 9, 54, 0
1, 53280, Note_on_c, 9, 54, 53
1, 53519, Note_on_c, 9, 54, 0
1, 53520, Note_on_c, 9, 54, 28
1, 53759, Note_on_c, 9, 54, 0
1, 53760, Note_on_c, 9, 54, 76
1, 53760, Note_on_c, 9, 36, 94
1, 53999, Note_on_c, 9, 54, 0
1, 54000, Note_on_c, 9, 54, 36
1, 54239, Note_on_c, 9, 36, 0
1, 54239, Note_on_c, 9, 54, 0
1, 54240, Note_on_c, 9, 54, 61
1, 54479, Note_on_c, 9, 54, 0
1, 54480, Note_on_c, 9, 54, 46
1, 54480, Note_on_c, 9, 36, 100
1, 54719, Note_on_c, 9, 54, 0
1, 54719, Note_on_c, 9, 36, 0
1, 54720, Note_on_c, 9, 54, 41
1, 54959, Note_on_c, 9, 54, 0
1, 54960, Note_on_c, 9, 54, 34
1, 55199, Note_on_c, 9, 54, 0
1, 55200, Note_on_c, 9, 54, 61
1, 55200, Note_on_c, 9, 62, 97
1, 55439, Note_on_c, 9, 54, 0
1, 55439, Note_on_c, 9, 62, 0
1, 55440, Note_on_c, 9, 54, 38
1, 55679, Note_on_c, 9, 54, 0
1, 55680, Note_on_c, 9, 54, 40
1, 55680, Note_on_c, 9, 36, 86
1, 55919, Note_on_c, 9, 54, 0
1, 55920, Note_on_c, 9, 54, 29
1, 56159, Note_on_c, 9, 36, 0
1, 56159, Note_on_c, 9, 54, 0
1, 56160, Note_on_c, 9, 54, 61
1, 56399, Note_on_c, 9, 54, 0
1, 56400, Note_on_c, 9, 54, 34
1, 56400, Note_on_c, 9, 36, 98
1, 56639, Note_on_c, 9, 54, 0
1, 56639, Note_on_c, 9, 36, 0
1, 56640, Note_on_c, 9, 54, 38
1, 56879, Note_on_c, 9, 54, 0
1, 56880, Note_on_c, 9, 54, 31
1, 57119, Note_on_c, 9, 54, 0
1, 57120, Note_on_c, 9, 54, 65
1, 57120, Note_on_c, 9, 62, 104
1, 57359, Note_on_c, 9, 54, 0
1, 57359, Note_on_c, 9, 62, 0
1, 57360, Note_on_c, 9, 54, 31
1, 57599, Note_on_c, 9, 54, 0
1, 57600, Note_on_c, 9, 54, 61
1, 57600, Note_on_c, 9, 36, 94
1, 57839, Note_on_c, 9, 54, 0
1, 57840, Note_on_c, 9, 54, 33
1, 58079, Note_on_c, 9, 36, 0
1, 58079, Note_on_c, 9, 54, 0
1, 58080, Note_on_c, 9, 54, 63
1, 58319, Note_on_c, 9, 54, 0
1, 58320, Note_on_c, 9, 54, 36
1, 58320, Note_on_c, 9, 36, 98
1, 58559, Note_on_c, 9, 54, 0
1, 58559, Note_on_c, 9, 36, 0
1, 58560, Note_on_c, 9, 54, 45
1, 58799, Note_on_c, 9, 54, 0
1, 58800, Note_on_c, 9, 54, 34
1, 59039, Note_on_c, 9, 54, 0
1, 59040, Note_on_c, 9, 54, 65
1, 59040, Note_on_c, 9, 62, 97
1, 59279, Note_on_c, 9, 54, 0
1, 59279, Note_on_c, 9, 62, 0
1, 59280, Note_on_c, 9, 54, 36
1, 59519, Note_on_c, 9, 54, 0
1, 59520, Note_on_c, 9, 54, 61
1, 59520, Note_on_c, 9, 36, 91
1, 59759, Note_on_c, 9, 54, 0
1, 59760, Note_on_c, 9, 54, 34
1, 59999, Note_on_c, 9, 36, 0
1, 59999, Note_on_c, 9, 54, 0
1, 60000, Note_on_c, 9, 54, 61
1, 60239, Note_on_c, 9, 54, 0
1, 60240, Note_on_c, 9, 54, 31
1, 60240, Note_on_c, 9, 36, 99
1, 60479, Note_on_c, 9, 54, 0
1, 60479, Note_on_c, 9, 36, 0
1, 60480, Note_on_c, 9, 54, 41
1, 60719, Note_on_c, 9, 54, 0
1, 60720, Note_on_c, 9, 54, 37
1, 60959, Note_on_c, 9, 54, 0
1, 60960, Note_on_c, 9, 54, 68
1, 61199, Note_on_c, 9, 54, 0
1, 61200, Note_on_c, 9, 54, 33
1, 61439, Note_on_c, 9, 54, 0
1, 61440, Note_on_c, 9, 54, 47
1, 61440, Note_on_c, 9, 36, 91
1, 61679, Note_on_c, 9, 54, 0
1, 61680, Note_on_c, 9, 54, 33
1, 61919, Note_on_c, 9, 36, 0
1, 61919, Note_on_c, 9, 54, 0
1, 61920, Note_on_c, 9, 54, 55
1, 62159, Note_on_c, 9, 54, 0
1, 62160, Note_on_c, 9, 54, 31
1, 62160, Note_on_c, 9, 36, 97
1, 62399, Note_on_c, 9, 54, 0
1, 62399, Note_on_c, 9, 36, 0
1, 62400, Note_on_c, 9, 54, 32
1, 62639, Note_on_c, 9, 54, 0
1, 62640, Note_on_c, 9, 54, 47
1, 62879, Note_on_c, 9, 54, 0
1, 62880, Note_on_c, 9, 54, 55
1, 62880, Note_on_c, 9, 62, 94
1, 63119, Note_on_c, 9, 54, 0
1, 63119, Note_on_c, 9, 62, 0
1, 63120, Note_on_c, 9, 54, 44
1, 63359, Note_on_c, 9, 54, 0
1, 63360, Note_on_c, 9, 54, 33
1, 63360, Note_on_c, 9, 36, 88
1, 63599, Note_on_c, 9, 54, 0
1, 63600, Note_on_c, 9, 54, 25
1, 63839, Note_on_c, 9, 36, 0
1, 63839, Note_on_c, 9, 54, 0
1, 63840, Note_on_c, 9, 54, 61
1, 64079, Note_on_c, 9, 54, 0
1, 64080, Note_on_c, 9, 54, 28
1, 64080, Note_on_c, 9, 36, 96
1, 64319, Note_on_c, 9, 54, 0
1, 64319, Note_on_c, 9, 36, 0
1, 64320, Note_on_c, 9, 54, 49
1, 64559, Note_on_c, 9, 54, 0
1, 64560, Note_on_c, 9, 54, 40
1, 64799, Note_on_c, 9, 54, 0
1, 64800, Note_on_c, 9, 54, 53
1, 64800, Note_on_c, 9, 62, 94
1, 65039, Note_on_c, 9, 54, 0
1, 65039, Note_on_c, 9, 62, 0
1, 65040, Note_on_c, 9, 54, 30
1, 65279, Note_on_c, 9, 54, 0
1, 65280, Note_on_c, 9, 54, 55
1, 65280, Note_on_c, 9, 36, 94
1, 65519, Note_on_c, 9, 54, 0
1, 65520, Note_on_c, 9, 54, 35
1, 65759, Note_on_c, 9, 36, 0
1, 65759, Note_on_c, 9, 54, 0
1, 65760, Note_on_c, 9, 54, 57
1, 65999, Note_on_c, 9, 54, 0
1, 66000, Note_on_c, 9, 54, 34
1, 66000, Note_on_c, 9, 36, 97
1, 66239, Note_on_c, 9, 54, 0
1, 66239, Note_on_c, 9, 36, 0
1, 66240, Note_on_c, 9, 54, 43
1, 66479, Note_on_c, 9, 54, 0
1, 66480, Note_on_c, 9, 54, 40
1, 66719, Note_on_c, 9, 54, 0
1, 66720, Note_on_c, 9, 54, 63
1, 66720, Note_on_c, 9, 62, 113
1, 66959, Note_on_c, 9, 54, 0
1, 66959, Note_on_c, 9, 62, 0
1, 66960, Note_on_c, 9, 54, 36
1, 67199, Note_on_c, 9, 54, 0
1, 67200, Note_on_c, 9, 54, 63
1, 67200, Note_on_c, 9, 42, 91
1, 67200, Note_on_c, 9, 36, 127
1, 67439, Note_on_c, 9, 54, 0
1, 67439, Note_on_c, 9, 42, 0
1, 67440, Note_on_c, 9, 54, 71
1, 67440, Note_on_c, 9, 42, 65
1, 67559, Note_on_c, 9, 36, 0
1, 67559, Note_on_c, 9, 54, 0
1, 67559, Note_on_c, 9, 42, 0
1, 67580, Note_on_c, 9, 46, 68
1, 67580, Note_on_c, 9, 44, 28
1, 67580, Note_on_c, 9, 36, 122
1, 67619, Note_on_c, 9, 46, 0
1, 67619, Note_on_c, 9, 44, 0
1, 67619, Note_on_c, 9, 36, 0
1, 67680, Note_on_c, 9, 38, 94
1, 67680, Note_on_c, 9, 54, 95
1, 67680, Note_on_c, 9, 62, 127
1, 67680, Note_on_c, 9, 42, 83
1, 67799, Note_on_c, 9, 38, 0
1, 67799, Note_on_c, 9, 54, 0
1, 67799, Note_on_c, 9, 62, 0
1, 67799, Note_on_c, 9, 42, 0
1, 67820, Note_on_c, 9, 42, 83
1, 67859, Note_on_c, 9, 42, 0
1, 67920, Note_on_c, 9, 54, 46
1, 67920, Note_on_c, 9, 42, 95
1, 67920, Note_on_c, 9, 36, 127
1, 68039, Note_on_c, 9, 54, 0
1, 68039, Note_on_c, 9, 42, 0
1, 68060, Note_on_c, 9, 42, 95
1, 68099, Note_on_c, 9, 42, 0
1, 68159, Note_on_c, 9, 36, 0
1, 68160, Note_on_c, 9, 54, 73
1, 68160, Note_on_c, 9, 42, 87
1, 68399, Note_on_c, 9, 54, 0
1, 68399, Note_on_c, 9, 42, 0
1, 68400, Note_on_c, 9, 54, 71
1, 68400, Note_on_c, 9, 42, 87
1, 68400, Note_on_c, 9, 36, 127
1, 68519, Note_on_c, 9, 54, 0
1, 68519, Note_on_c, 9, 42, 0
1, 68540, Note_on_c, 9, 42, 100
1, 68579, Note_on_c, 9, 42, 0
1, 68639, Note_on_c, 9, 36, 0
1, 68640, Note_on_c, 9, 38, 127
1, 68640, Note_on_c, 9, 54, 41
1, 68640, Note_on_c, 9, 62, 127
1, 68640, Note_on_c, 9, 42, 87
1, 68759, Note_on_c, 9, 38, 0
1, 68759, Note_on_c, 9, 54, 0
1, 68759, Note_on_c, 9, 62, 0
1, 68759, Note_on_c, 9, 42, 0
1, 68780, Note_on_c, 9, 42, 100
1, 68819, Note_on_c, 9, 42, 0
1, 68880, Note_on_c, 9, 54, 38
1, 68880, Note_on_c, 9, 46, 110
1, 68880, Note_on_c, 9, 42, 95
1, 68999, Note_on_c, 9, 54, 0
1, 68999, Note_on_c, 9, 46, 0
1, 68999, Note_on_c, 9, 42, 0
1, 69020, Note_on_c, 9, 42, 100
1, 69059, Note_on_c, 9, 42, 0
1, 69120, Note_on_c, 9, 54, 63
1, 69120, Note_on_c, 9, 42, 91
1, 69120, Note_on_c, 9, 36, 127
1, 69359, Note_on_c, 9, 54, 0
1, 69359, Note_on_c, 9, 42, 0
1, 69360, Note_on_c, 9, 54, 71
1, 69360, Note_on_c, 9, 42, 65
1, 69479, Note_on_c, 9, 36, 0
1, 69479, Note_on_c, 9, 54, 0
1, 69479, Note_on_c, 9, 42, 0
1, 69500, Note_on_c, 9, 46, 68
1, 69500, Note_on_c, 9, 44, 28
1, 69500, Note_on_c, 9, 36, 122
1, 69539, Note_on_c, 9, 46, 0
1, 69539, Note_on_c, 9, 44, 0
1, 69539, Note_on_c, 9, 36, 0
1, 69600, Note_on_c, 9, 38, 94
1, 69600, Note_on_c, 9, 54, 95
1, 69600, Note_on_c, 9, 62, 127
1, 69600, Note_on_c, 9, 42, 83
1, 69719, Note_on_c, 9, 38, 0
1, 69719, Note_on_c, 9, 54, 0
1, 69719, Note_on_c, 9, 62, 0
1, 69719, Note_on_c, 9, 42, 0
1, 69740, Note_on_c, 9, 42, 83
1, 69779, Note_on_c, 9, 42, 0
1, 69840, Note_on_c, 9, 54, 46
1, 69840, Note_on_c, 9, 42, 95
1, 69840, Note_on_c, 9, 36, 127
1, 69959, Note_on_c, 9, 54, 0
1, 69959, Note_on_c, 9, 42, 0
1, 69980, Note_on_c, 9, 42, 95
1, 70019, Note_on_c, 9, 42, 0
1, 70079, Note_on_c, 9, 36, 0
1, 70080, Note_on_c, 9, 54, 73
1, 70080, Note_on_c, 9, 42, 87
1, 70319, Note_on_c, 9, 54, 0
1, 70319, Note_on_c, 9, 42, 0
1, 70320, Note_on_c, 9, 54, 71
1, 70320, Note_on_c, 9, 42, 87
1, 70320, Note_on_c, 9, 36, 127
1, 70439, Note_on_c, 9, 54, 0
1, 70439, Note_on_c, 9, 42, 0
1, 70460, Note_on_c, 9, 42, 100
1, 70499, Note_on_c, 9, 42, 0
1, 70559, Note_on_c, 9, 36, 0
1, 70560, Note_on_c, 9, 38, 127
1, 70560, Note_on_c, 9, 54, 41
1, 70560, Note_on_c, 9, 62, 127
1, 70560, Note_on_c, 9, 42, 87
1, 70679, Note_on_c, 9, 38, 0
1, 70679, Note_on_c, 9, 54, 0
1, 70679, Note_on_c, 9, 62, 0
1, 70679, Note_on_c, 9, 42, 0
1, 70700, Note_on_c, 9, 42, 100
1, 70739, Note_on_c, 9, 42, 0
1, 70800, Note_on_c, 9, 54, 38
1, 70800, Note_on_c, 9, 46, 110
1, 70800, Note_on_c, 9, 42, 95
1, 70919, Note_on_c, 9, 54, 0
1, 70919, Note_on_c, 9, 46, 0
1, 70919, Note_on_c, 9, 42, 0
1, 70940, Note_on_c, 9, 42, 100
1, 70979, Note_on_c, 9, 42, 0
1, 71040, Note_on_c, 9, 54, 63
1, 71040, Note_on_c, 9, 42, 91
1, 71040, Note_on_c, 9, 36, 127
1, 71279, Note_on_c, 9, 54, 0
1, 71279, Note_on_c, 9, 42, 0
1, 71280, Note_on_c, 9, 54, 71
1, 71280, Note_on_c, 9, 42, 65
1, 71399, Note_on_c, 9, 36, 0
1, 71399, Note_on_c, 9, 54, 0
1, 71399, Note_on_c, 9, 42, 0
1, 71420, Note_on_c, 9, 46, 68
1, 71420, Note_on_c, 9, 44, 28
1, 71420, Note_on_c, 9, 36, 122
1, 71459, Note_on_c, 9, 46, 0
1, 71459, Note_on_c, 9, 44, 0
1, 71459, Note_on_c, 9, 36, 0
1, 71520, Note_on_c, 9, 38, 94
1, 71520, Note_on_c, 9, 54, 95
1, 71520, Note_on_c, 9, 62, 127
1, 71520, Note_on_c, 9, 42, 83
1, 71639, Note_on_c, 9, 38, 0
1, 71639, Note_on_c, 9, 54, 0
1, 71639, Note_on_c, 9, 62, 0
1, 71639, Note_on_c, 9, 42, 0
1, 71660, Note_on_c, 9, 42, 83
1, 71699, Note_on_c, 9, 42, 0
1, 71760, Note_on_c, 9, 54, 46
1, 71760, Note_on_c, 9, 42, 95
1, 71760, Note_on_c, 9, 36, 127
1, 71879, Note_on_c, 9, 54, 0
1, 71879, Note_on_c, 9, 42, 0
1, 71900, Note_on_c, 9, 42, 95
1, 71939, Note_on_c, 9, 42, 0
1, 71999, Note_on_c, 9, 36, 0
1, 72000, Note_on_c, 9, 54, 73
1, 72000, Note_on_c, 9, 42, 87
1, 72239, Note_on_c, 9, 54, 0
1, 72239, Note_on_c, 9, 42, 0
1, 72240, Note_on_c, 9, 54, 71
1, 72240, Note_on_c, 9, 42, 87
1, 72240, Note_on_c, 9, 36, 127
1, 72359, Note_on_c, 9, 54, 0
1, 72359, Note_on_c, 9, 42, 0
1, 72380, Note_on_c, 9, 42, 100
1, 72419, Note_on_c, 9, 42, 0
1, 72479, Note_on_c, 9, 36, 0
1, 72480, Note_on_c, 9, 38, 127
1, 72480, Note_on_c, 9, 54, 41
1, 72480, Note_on_c, 9, 62, 127
1, 72480, Note_on_c, 9, 42, 87
1, 72599, Note_on_c, 9, 38, 0
1, 72599, Note_on_c, 9, 54, 0
1, 72599, Note_on_c, 9, 62, 0
1, 72599, Note_on_c, 9, 42, 0
1, 72620, Note_on_c, 9, 42, 100
1, 72659, Note_on_c, 9, 42, 0
1, 72720, Note_on_c, 9, 54, 38
1, 72720, Note_on_c, 9, 46, 110
1, 72720, Note_on_c, 9, 42, 95
1, 72839, Note_on_c, 9, 54, 0
1, 72839, Note_on_c, 9, 46, 0
1, 72839, Note_on_c, 9, 42, 0
1, 72860, Note_on_c, 9, 42, 100
1, 72899, Note_on_c, 9, 42, 0
1, 72960, Note_on_c, 9, 54, 63
1, 72960, Note_on_c, 9, 42, 91
1, 72960, Note_on_c, 9, 36, 127
1, 73199, Note_on_c, 9, 54, 0
1, 73199, Note_on_c, 9, 42, 0
1, 73200, Note_on_c, 9, 54, 71
1, 73200, Note_on_c, 9, 42, 65
1, 73319, Note_on_c, 9, 36, 0
1, 73319, Note_on_c, 9, 54, 0
1, 73319, Note_on_c, 9, 42, 0
1, 73340, Note_on_c, 9, 46, 68
1, 73340, Note_on_c, 9, 44, 28
1, 73340, Note_on_c, 9, 36, 122
1, 73379, Note_on_c, 9, 46, 0
1, 73379, Note_on_c, 9, 44, 0
1, 73379, Note_on_c, 9, 36, 0
1, 73440, Note_on_c, 9, 38, 94
1, 73440, Note_on_c, 9, 54, 95
1, 73440, Note_on_c, 9, 62, 127
1, 73440, Note_on_c, 9, 42, 83
1, 73559, Note_on_c, 9, 38, 0
1, 73559, Note_on_c, 9, 54, 0
1, 73559, Note_on_c, 9, 62, 0
1, 73559, Note_on_c, 9, 42, 0
1, 73580, Note_on_c, 9, 42, 83
1, 73619, Note_on_c, 9, 42, 0
1, 73680, Note_on_c, 9, 54, 46
1, 73680, Note_on_c, 9, 42, 95
1, 73680, Note_on_c, 9, 36, 127
1, 73799, Note_on_c, 9, 54, 0
1, 73799, Note_on_c, 9, 42, 0
1, 73820, Note_on_c, 9, 42, 95
1, 73859, Note_on_c, 9, 42, 0
1, 73919, Note_on_c, 9, 36, 0
1, 73920, Note_on_c, 9, 54, 73
1, 73920, Note_on_c, 9, 42, 87
1, 74159, Note_on_c, 9, 54, 0
1, 74159, Note_on_c, 9, 42, 0
1, 74160, Note_on_c, 9, 54, 71
1, 74160, Note_on_c, 9, 42, 87
1, 74160, Note_on_c, 9, 36, 127
1, 74279, Note_on_c, 9, 54, 0
1, 74279, Note_on_c, 9, 42, 0
1, 74300, Note_on_c, 9, 42, 100
1, 74339, Note_on_c, 9, 42, 0
1, 74399, Note_on_c, 9, 36, 0
1, 74400, Note_on_c, 9, 38, 127
1, 74400, Note_on_c, 9, 54, 41
1, 74400, Note_on_c, 9, 62, 127
1, 74400, Note_on_c, 9, 42, 87
1, 74519, Note_on_c, 9, 38, 0
1, 74519, Note_on_c, 9, 54, 0
1, 74519, Note_on_c, 9, 62, 0
1, 74519, Note_on_c, 9, 42, 0
1, 74540, Note_on_c, 9, 42, 100
1, 74579, Note_on_c, 9, 42, 0
1, 74640, Note_on_c, 9, 54, 38
1, 74640, Note_on_c, 9, 46, 110
1, 74640, Note_on_c, 9, 42, 95
1, 74759, Note_on_c, 9, 54, 0
1, 74759, Note_on_c, 9, 46, 0
1, 74759, Note_on_c, 9, 42, 0
1, 74780, Note_on_c, 9, 42, 100
1, 74819, Note_on_c, 9, 42, 0
1, 74880, Note_on_c, 9, 54, 63
1, 74880, Note_on_c, 9, 42, 91
1, 74880, Note_on_c, 9, 36, 127
1, 75119, Note_on_c, 9, 54, 0
1, 75119, Note_on_c, 9, 42, 0
1, 75120, Note_on_c, 9, 54, 71
1, 75120, Note_on_c, 9, 42, 65
1, 75239, Note_on_c, 9, 36, 0
1, 75239, Note_on_c, 9, 54, 0
1, 75239, Note_on_c, 9, 42, 0
1, 75260, Note_on_c, 9, 46, 68
1, 75260, Note_on_c, 9, 44, 28
1, 75260, Note_on_c, 9, 36, 122
1, 75299, Note_on_c, 9, 46, 0
1, 75299, Note_on_c, 9, 44, 0
1, 75299, Note_on_c, 9, 36, 0
1, 75360, Note_on_c, 9, 38, 94
1, 75360, Note_on_c, 9, 54, 95
1, 75360, Note_on_c, 9, 62, 127
1, 75360, Note_on_c, 9, 42, 83
1, 75479, Note_on_c, 9, 38, 0
1, 75479, Note_on_c, 9, 54, 0
1, 75479, Note_on_c, 9, 62, 0
1, 75479, Note_on_c, 9, 42, 0
1, 75500, Note_on_c, 9, 42, 83
1, 75539, Note_on_c, 9, 42, 0
1, 75600, Note_on_c, 9, 54, 46
1, 75600, Note_on_c, 9, 42, 95
1, 75600, Note_on_c, 9, 36, 127
1, 75719, Note_on_c, 9, 54, 0
1, 75719, Note_on_c, 9, 42, 0
1, 75740, Note_on_c, 9, 42, 95
1, 75779, Note_on_c, 9, 42, 0
1, 75839, Note_on_c, 9, 36, 0
1, 75840, Note_on_c, 9, 54, 73
1, 75840, Note_on_c, 9, 42, 87
1, 76079, Note_on_c, 9, 54, 0
1, 76079, Note_on_c, 9, 42, 0
1, 76080, Note_on_c, 9, 54, 71
1, 76080, Note_on_c, 9, 42, 87
1, 76080, Note_on_c, 9, 36, 127
1, 76199, Note_on_c, 9, 54, 0
1, 76199, Note_on_c, 9, 42, 0
1, 76220, Note_on_c, 9, 42, 100
1, 76259, Note_on_c, 9, 42, 0
1, 76319, Note_on_c, 9, 36, 0
1, 76320, Note_on_c, 9, 38, 127
1, 76320, Note_on_c, 9, 54, 41
1, 76320, Note_on_c, 9, 62, 127
1, 76320, Note_on_c, 9, 42, 87
1, 76439, Note_on_c, 9, 38, 0
1, 76439, Note_on_c, 9, 54, 0
1, 76439, Note_on_c, 9, 62, 0
1, 76439, Note_on_c, 9, 42, 0
1, 76460, Note_on_c, 9, 42, 100
1, 76499, Note_on_c, 9, 42, 0
1, 76560, Note_on_c, 9, 54, 38
1, 76560, Note_on_c, 9, 46, 110
1, 76560, Note_on_c, 9, 42, 95
1, 76679, Note_on_c, 9, 54, 0
1, 76679, Note_on_c, 9, 46, 0
1, 76679, Note_on_c, 9, 42, 0
1, 76700, Note_on_c, 9, 42, 100
1, 76739, Note_on_c, 9, 42, 0
1, 76800, Note_on_c, 9, 54, 63
1, 76800, Note_on_c, 9, 42, 91
1, 76800, Note_on_c, 9, 36, 127
1, 77039, Note_on_c, 9, 54, 0
1, 77039, Note_on_c, 9, 42, 0
1, 77040, Note_on_c, 9, 54, 71
1, 77040, Note_on_c, 9, 42, 65
1, 77159, Note_on_c, 9, 36, 0
1, 77159, Note_on_c, 9, 54, 0
1, 77159, Note_on_c, 9, 42, 0
1, 77180, Note_on_c, 9, 46, 68
1, 77180, Note_on_c, 9, 44, 28
1, 77180, Note_on_c, 9, 36, 122
1, 77219, Note_on_c, 9, 46, 0
1, 77219, Note_on_c, 9, 44, 0
1, 77219, Note_on_c, 9, 36, 0
1, 77280, Note_on_c, 9, 38, 94
1, 77280, Note_on_c, 9, 54, 95
1, 77280, Note_on_c, 9, 62, 127
1, 77280, Note_on_c, 9, 42, 83
1, 77399, Note_on_c, 9, 38, 0
1, 77399, Note_on_c, 9, 54, 0
1, 77399, Note_on_c, 9, 62, 0
1, 77399, Note_on_c, 9, 42, 0
1, 77420, Note_on_c, 9, 42, 83
1, 77459, Note_on_c, 9, 42, 0
1, 77520, Note_on_c, 9, 54, 46
1, 77520, Note_on_c, 9, 42, 95
1, 77520, Note_on_c, 9, 36, 127
1, 77639, Note_on_c, 9, 54, 0
1, 77639, Note_on_c, 9, 42, 0
1, 77660, Note_on_c, 9, 42, 95
1, 77699, Note_on_c, 9, 42, 0
1, 77759, Note_on_c, 9, 36, 0
1, 77760, Note_on_c, 9, 54, 73
1, 77760, Note_on_c, 9, 42, 87
1, 77999, Note_on_c, 9, 54, 0
1, 77999, Note_on_c, 9, 42, 0
1, 78000, Note_on_c, 9, 54, 71
1, 78000, Note_on_c, 9, 42, 87
1, 78000, Note_on_c, 9, 36, 127
1, 78119, Note_on_c, 9, 54, 0
1, 78119, Note_on_c, 9, 42, 0
1, 78140, Note_on_c, 9, 42, 100
1, 78179, Note_on_c, 9, 42, 0
1, 78239, Note_on_c, 9, 36, 0
1, 78240, Note_on_c, 9, 38, 127
1, 78240, Note_on_c, 9, 54, 41
1, 78240, Note_on_c, 9, 62, 127
1, 78240, Note_on_c, 9, 42, 87
1, 78359, Note_on_c, 9, 38, 0
1, 78359, Note_on_c, 9, 54, 0
1, 78359, Note_on_c, 9, 62, 0
1, 78359, Note_on_c, 9, 42, 0
1, 78380, Note_on_c, 9, 42, 100
1, 78419, Note_on_c, 9, 42, 0
1, 78480, Note_on_c, 9, 54, 38
1, 78480, Note_on_c, 9, 46, 110
1, 78480, Note_on_c, 9, 42, 95
1, 78599, Note_on_c, 9, 54, 0
1, 78599, Note_on_c, 9, 46, 0
1, 78599, Note_on_c, 9, 42, 0
1, 78620, Note_on_c, 9, 42, 100
1, 78659, Note_on_c, 9, 42, 0
1, 78720, Note_on_c, 9, 54, 63
1, 78720, Note_on_c, 9, 42, 91
1, 78720, Note_on_c, 9, 36, 127
1, 78959, Note_on_c, 9, 54, 0
1, 78959, Note_on_c, 9, 42, 0
1, 78960, Note_on_c, 9, 54, 71
1, 78960, Note_on_c, 9, 42, 65
1, 79079, Note_on_c, 9, 36, 0
1, 79079, Note_on_c, 9, 54, 0
1, 79079, Note_on_c, 9, 42, 0
1, 79100, Note_on_c, 9, 46, 68
1, 79100, Note_on_c, 9, 44, 28
1, 79100, Note_on_c, 9, 36, 122
1, 79139, Note_on_c, 9, 46, 0
1, 79139, Note_on_c, 9, 44, 0
1, 79139, Note_on_c, 9, 36, 0
1, 79200, Note_on_c, 9, 38, 94
1, 79200, Note_on_c, 9, 54, 95
1, 79200, Note_on_c, 9, 62, 127
1, 79200, Note_on_c, 9, 42, 83
1, 79319, Note_on_c, 9, 38, 0
1, 79319, Note_on_c, 9, 54, 0
1, 79319, Note_on_c, 9, 62, 0
1, 79319, Note_on_c, 9, 42, 0
1, 79340, Note_on_c, 9, 42, 83
1, 79379, Note_on_c, 9, 42, 0
1, 79440, Note_on_c, 9, 54, 46
1, 79440, Note_on_c, 9, 42, 95
1, 79440, Note_on_c, 9, 36, 127
1, 79559, Note_on_c, 9, 54, 0
1, 79559, Note_on_c, 9, 42, 0
1, 79580, Note_on_c, 9, 42, 95
1, 79619, Note_on_c, 9, 42, 0
1, 79679, Note_on_c, 9, 36, 0
1, 79680, Note_on_c, 9, 54, 73
1, 79680, Note_on_c, 9, 42, 87
1, 79919, Note_on_c, 9, 54, 0
1, 79919, Note_on_c, 9, 42, 0
1, 79920, Note_on_c, 9, 54, 71
1, 79920, Note_on_c, 9, 42, 87
1, 79920, Note_on_c, 9, 36, 127
1, 80039, Note_on_c, 9, 54, 0
1, 80039, Note_on_c, 9, 42, 0
1, 80060, Note_on_c, 9, 42, 100
1, 80099, Note_on_c, 9, 42, 0
1, 80159, Note_on_c, 9, 36, 0
1, 80160, Note_on_c, 9, 38, 127
1, 80160, Note_on_c, 9, 54, 41
1, 80160, Note_on_c, 9, 62, 127
1, 80160, Note_on_c, 9, 42, 87
1, 80279, Note_on_c, 9, 38, 0
1, 80279, Note_on_c, 9, 54, 0
1, 80279, Note_on_c, 9, 62, 0
1, 80279, Note_on_c, 9, 42, 0
1, 80300, Note_on_c, 9, 42, 100
1, 80339, Note_on_c, 9, 42, 0
1, 80400, Note_on_c, 9, 54, 38
1, 80400, Note_on_c, 9, 46, 110
1, 80400, Note_on_c, 9, 42, 95
1, 80519, Note_on_c, 9, 54, 0
1, 80519, Note_on_c, 9, 46, 0
1, 80519, Note_on_c, 9, 42, 0
1, 80540, Note_on_c, 9, 42, 100
1, 80579, Note_on_c, 9, 42, 0
1, 80640, Note_on_c, 9, 54, 63
1, 80640, Note_on_c, 9, 42, 91
1, 80640, Note_on_c, 9, 36, 127
1, 80879, Note_on_c, 9, 54, 0
1, 80879, Note_on_c, 9, 42, 0
1, 80880, Note_on_c, 9, 54, 71
1, 80880, Note_on_c, 9, 42, 65
1, 80999, Note_on_c, 9, 36, 0
1, 80999, Note_on_c, 9, 54, 0
1, 80999, Note_on_c, 9, 42, 0
1, 81020, Note_on_c, 9, 46, 68
1, 81020, Note_on_c, 9, 44, 28
1, 81020, Note_on_c, 9, 36, 122
1, 81059, Note_on_c, 9, 46, 0
1, 81059, Note_on_c, 9, 44, 0
1, 81059, Note_on_c, 9, 36, 0
1, 81120, Note_on_c, 9, 38, 94
1, 81120, Note_on_c, 9, 54, 95
1, 81120, Note_on_c, 9, 62, 127
1, 81120, Note_on_c, 9, 42, 83
1, 81239, Note_on_c, 9, 38, 0
1, 81239, Note_on_c, 9, 54, 0
1, 81239, Note_on_c, 9, 62, 0
1, 81239, Note_on_c, 9, 42, 0
1, 81260, Note_on_c, 9, 42, 83
1, 81299, Note_on_c, 9, 42, 0
1, 81360, Note_on_c, 9, 54, 46
1, 81360, Note_on_c, 9, 42, 95
1, 81360, Note_on_c, 9, 36, 127
1, 81479, Note_on_c, 9, 54, 0
1, 81479, Note_on_c, 9, 42, 0
1, 81500, Note_on_c, 9, 42, 95
1, 81539, Note_on_c, 9, 42, 0
1, 81599, Note_on_c, 9, 36, 0
1, 81600, Note_on_c, 9, 54, 73
1, 81600, Note_on_c, 9, 42, 87
1, 81839, Note_on_c, 9, 54, 0
1, 81839, Note_on_c, 9, 42, 0
1, 81840, Note_on_c, 9, 54, 71
1, 81840, Note_on_c, 9, 42, 87
1, 81840, Note_on_c, 9, 36, 127
1, 81959, Note_on_c, 9, 54, 0
1, 81959, Note_on_c, 9, 42, 0
1, 81980, Note_on_c, 9, 42, 100
1, 82019, Note_on_c, 9, 42, 0
1, 82079, Note_on_c, 9, 36, 0
1, 82080, Note_on_c, 9, 38, 127
1, 82080, Note_on_c, 9, 54, 41
1, 82080, Note_on_c, 9, 62, 127
1, 82080, Note_on_c, 9, 42, 87
1, 82199, Note_on_c, 9, 38, 0
1, 82199, Note_on_c, 9, 54, 0
1, 82199, Note_on_c, 9, 62, 0
1, 82199, Note_on_c, 9, 42, 0
1, 82220, Note_on_c, 9, 42, 100
1, 82259, Note_on_c, 9, 42, 0
1, 82320, Note_on_c, 9, 54, 38
1, 82320, Note_on_c, 9, 46, 110
1, 82320, Note_on_c, 9, 42, 95
1, 82439, Note_on_c, 9, 54, 0
1, 82439, Note_on_c, 9, 46, 0
1, 82439, Note_on_c, 9, 42, 0
1, 82460, Note_on_c, 9, 42, 100
1, 82499, Note_on_c, 9, 42, 0
1, 82560, Note_on_c, 9, 54, 63
1, 82560, Note_on_c, 9, 42, 91
1, 82560, Note_on_c, 9, 36, 127
1, 82799, Note_on_c, 9, 54, 0
1, 82799, Note_on_c, 9, 42, 0
1, 82800, Note_on_c, 9, 54, 71
1, 82800, Note_on_c, 9, 42, 65
1, 82919, Note_on_c, 9, 36, 0
1, 82919, Note_on_c, 9, 54, 0
1, 82919, Note_on_c, 9, 42, 0
1, 82940, Note_on_c, 9, 46, 68
1, 82940, Note_on_c, 9, 44, 28
1, 82940, Note_on_c, 9, 36, 122
1, 82979, Note_on_c, 9, 46, 0
1, 82979, Note_on_c, 9, 44, 0
1, 82979, Note_on_c, 9, 36, 0
1, 83040, Note_on_c, 9, 38, 94
1, 83040, Note_on_c, 9, 54, 95
1, 83040, Note_on_c, 9, 62, 127
1, 83040, Note_on_c, 9, 42, 83
1, 83159, Note_on_c, 9, 38, 0
1, 83159, Note_on_c, 9, 54, 0
1, 83159, Note_on_c, 9, 62, 0
1, 83159, Note_on_c, 9, 42, 0
1, 83180, Note_on_c, 9, 42, 83
1, 83219, Note_on_c, 9, 42, 0
1, 83280, Note_on_c, 9, 54, 46
1, 83280, Note_on_c, 9, 42, 95
1, 83280, Note_on_c, 9, 36, 127
1, 83399, Note_on_c, 9, 54, 0
1, 83399, Note_on_c, 9, 42, 0
1, 83420, Note_on_c, 9, 42, 95
1, 83459, Note_on_c, 9, 42, 0
1, 83519, Note_on_c, 9, 36, 0
1, 83520, Note_on_c, 9, 54, 73
1, 83520, Note_on_c, 9, 42, 87
1, 83759, Note_on_c, 9, 54, 0
1, 83759, Note_on_c, 9, 42, 0
1, 83760, Note_on_c, 9, 54, 71
1, 83760, Note_on_c, 9, 42, 87
1, 83760, Note_on_c, 9, 36, 127
1, 83879, Note_on_c, 9, 54, 0
1, 83879, Note_on_c, 9, 42, 0
1, 83900, Note_on_c, 9, 42, 100
1, 83939, Note_on_c, 9, 42, 0
1, 83999, Note_on_c, 9, 36, 0
1, 84000, Note_on_c, 9, 38, 127
1, 84000, Note_on_c, 9, 54, 41
1, 84000, Note_on_c, 9, 62, 127
1, 84000, Note_on_c, 9, 42, 87
1, 84119, Note_on_c, 9, 38, 0
1, 84119, Note_on_c, 9, 54, 0
1, 84119, Note_on_c, 9, 62, 0
1, 84119, Note_on_c, 9, 42, 0
1, 84140, Note_on_c, 9, 42, 100
1, 84179, Note_on_c, 9, 42, 0
1, 84240, Note_on_c, 9, 54, 38
1, 84240, Note_on_c, 9, 46, 110
1, 84240, Note_on_c, 9, 42, 95
1, 84359, Note_on_c, 9, 54, 0
1, 84359, Note_on_c, 9, 46, 0
1, 84359, Note_on_c, 9, 42, 0
1, 84380, Note_on_c, 9, 42, 100
1, 84419, Note_on_c, 9, 42, 0
1, 84480, Note_on_c, 9, 54, 63
1, 84480, Note_on_c, 9, 42, 91
1, 84480, Note_on_c, 9, 36, 127
1, 84719, Note_on_c, 9, 54, 0
1, 84719, Note_on_c, 9, 42, 0
1, 84720, Note_on_c, 9, 54, 71
1, 84720, Note_on_c, 9, 42, 65
1, 84839, Note_on_c, 9, 36, 0
1, 84839, Note_on_c, 9, 54, 0
1, 84839, Note_on_c, 9, 42, 0
1, 84860, Note_on_c, 9, 46, 68
1, 84860, Note_on_c, 9, 44, 28
1, 84860, Note_on_c, 9, 36, 122
1, 84899, Note_on_c, 9, 46, 0
1, 84899, Note_on_c, 9, 44, 0
1, 84899, Note_on_c, 9, 36, 0
1, 84960, Note_on_c, 9, 38, 94
1, 84960, Note_on_c, 9, 54, 95
1, 84960, Note_on_c, 9, 62, 127
1, 84960, Note_on_c, 9, 42, 83
1, 85079, Note_on_c, 9, 38, 0
1, 85079, Note_on_c, 9, 54, 0
1, 85079, Note_on_c, 9, 62, 0
1, 85079, Note_on_c, 9, 42, 0
1, 85100, Note_on_c, 9, 42, 83
1, 85139, Note_on_c, 9, 42, 0
1, 85200, Note_on_c, 9, 54, 46
1, 85200, Note_on_c, 9, 42, 95
1, 85200, Note_on_c, 9, 36, 127
1, 85319, Note_on_c, 9, 54, 0
1, 85319, Note_on_c, 9, 42, 0
1, 85340, Note_on_c, 9, 42, 95
1, 85379, Note_on_c, 9, 42, 0
1, 85439, Note_on_c, 9, 36, 0
1, 85440, Note_on_c, 9, 54, 73
1, 85440, Note_on_c, 9, 42, 87
1, 85679, Note_on_c, 9, 54, 0
1, 85679, Note_on_c, 9, 42, 0
1, 85680, Note_on_c, 9, 54, 71
1, 85680, Note_on_c, 9, 42, 87
1, 85680, Note_on_c, 9, 36, 127
1, 85799, Note_on_c, 9, 54, 0
1, 85799, Note_on_c, 9, 42, 0
1, 85820, Note_on_c, 9, 42, 100
1, 85859, Note_on_c, 9, 42, 0
1, 85919, Note_on_c, 9, 36, 0
1, 85920, Note_on_c, 9, 38, 127
1, 85920, Note_on_c, 9, 54, 41
1, 85920, Note_on_c, 9, 62, 127
1, 85920, Note_on_c, 9, 42, 87
1, 86039, Note_on_c, 9, 38, 0
1, 86039, Note_on_c, 9, 54, 0
1, 86039, Note_on_c, 9, 62, 0
1, 86039, Note_on_c, 9, 42, 0
1, 86060, Note_on_c, 9, 42, 100
1, 86099, Note_on_c, 9, 42, 0
1, 86160, Note_on_c, 9, 54, 38
1, 86160, Note_on_c, 9, 46, 110
1, 86160, Note_on_c, 9, 42, 95
1, 86279, Note_on_c, 9, 54, 0
1, 86279, Note_on_c, 9, 46, 0
1, 86279, Note_on_c, 9, 42, 0
1, 86300, Note_on_c, 9, 42, 100
1, 86339, Note_on_c, 9, 42, 0
1, 86400, Note_on_c, 9, 54, 63
1, 86400, Note_on_c, 9, 42, 91
1, 86400, Note_on_c, 9, 36, 127
1, 86639, Note_on_c, 9, 54, 0
1, 86639, Note_on_c, 9, 42, 0
1, 86640, Note_on_c, 9, 54, 71
1, 86640, Note_on_c, 9, 42, 65
1, 86759, Note_on_c, 9, 36, 0
1, 86759, Note_on_c, 9, 54, 0
1, 86759, Note_on_c, 9, 42, 0
1, 86780, Note_on_c, 9, 46, 68
1, 86780, Note_on_c, 9, 44, 28
1, 86780, Note_on_c, 9, 36, 122
1, 86819, Note_on_c, 9, 46, 0
1, 86819, Note_on_c, 9, 44, 0
1, 86819, Note_on_c, 9, 36, 0
1, 86880, Note_on_c, 9, 38, 94
1, 86880, Note_on_c, 9, 54, 95
1, 86880, Note_on_c, 9, 62, 127
1, 86880, Note_on_c, 9, 42, 83
1, 86999, Note_on_c, 9, 38, 0
1, 86999, Note_on_c, 9, 54, 0
1, 86999, Note_on_c, 9, 62, 0
1, 86999, Note_on_c, 9, 42, 0
1, 87020, Note_on_c, 9, 42, 83
1, 87059, Note_on_c, 9, 42, 0
1, 87120, Note_on_c, 9, 54, 46
1, 87120, Note_on_c, 9, 42, 95
1, 87120, Note_on_c, 9, 36, 127
1, 87239, Note_on_c, 9, 54, 0
1, 87239, Note_on_c, 9, 42, 0
1, 87260, Note_on_c, 9, 42, 95
1, 87299, Note_on_c, 9, 42, 0
1, 87359, Note_on_c, 9, 36, 0
1, 87360, Note_on_c, 9, 54, 73
1, 87360, Note_on_c, 9, 42, 87
1, 87599, Note_on_c, 9, 54, 0
1, 87599, Note_on_c, 9, 42, 0
1, 87600, Note_on_c, 9, 54, 71
1, 87600, Note_on_c, 9, 42, 87
1, 87600, Note_on_c, 9, 36, 127
1, 87719, Note_on_c, 9, 54, 0
1, 87719, Note_on_c, 9, 42, 0
1, 87740, Note_on_c, 9, 42, 100
1, 87779, Note_on_c, 9, 42, 0
1, 87839, Note_on_c, 9, 36, 0
1, 87840, Note_on_c, 9, 38, 127
1, 87840, Note_on_c, 9, 54, 41
1, 87840, Note_on_c, 9, 62, 127
1, 87840, Note_on_c, 9, 42, 87
1, 87959, Note_on_c, 9, 38, 0
1, 87959, Note_on_c, 9, 54, 0
1, 87959, Note_on_c, 9, 62, 0
1, 87959, Note_on_c, 9, 42, 0
1, 87980, Note_on_c, 9, 42, 100
1, 88019, Note_on_c, 9, 42, 0
1, 88080, Note_on_c, 9, 54, 38
1, 88080, Note_on_c, 9, 46, 110
1, 88080, Note_on_c, 9, 42, 95
1, 88199, Note_on_c, 9, 54, 0
1, 88199, Note_on_c, 9, 46, 0
1, 88199, Note_on_c, 9, 42, 0
1, 88220, Note_on_c, 9, 42, 100
1, 88259, Note_on_c, 9, 42, 0
1, 88320, Note_on_c, 9, 54, 63
1, 88320, Note_on_c, 9, 42, 91
1, 88320, Note_on_c, 9, 36, 127
1, 88559, Note_on_c, 9, 54, 0
1, 88559, Note_on_c, 9, 42, 0
1, 88560, Note_on_c, 9, 54, 71
1, 88560, Note_on_c, 9, 42, 65
1, 88679, Note_on_c, 9, 36, 0
1, 88679, Note_on_c, 9, 54, 0
1, 88679, Note_on_c, 9, 42, 0
1, 88700, Note_on_c, 9, 46, 68
1, 88700, Note_on_c, 9, 44, 28
1, 88700, Note_on_c, 9, 36, 122
1, 88739, Note_on_c, 9, 46, 0
1, 88739, Note_on_c, 9, 44, 0
1, 88739, Note_on_c, 9, 36, 0
1, 88800, Note_on_c, 9, 38, 94
1, 88800, Note_on_c, 9, 54, 95
1, 88800, Note_on_c, 9, 62, 127
1, 88800, Note_on_c, 9, 42, 83
1, 88919, Note_on_c, 9, 38, 0
1, 88919, Note_on_c, 9, 54, 0
1, 88919, Note_on_c, 9, 62, 0
1, 88919, Note_on_c, 9, 42, 0
1, 88940, Note_on_c, 9, 42, 83
1, 88979, Note_on_c, 9, 42, 0
1, 89040, Note_on_c, 9, 54, 46
1, 89040, Note_on_c, 9, 42, 95
1, 89040, Note_on_c, 9, 36, 127
1, 89159, Note_on_c, 9, 54, 0
1, 89159, Note_on_c, 9, 42, 0
1, 89180, Note_on_c, 9, 42, 95
1, 89219, Note_on_c, 9, 42, 0
1, 89279, Note_on_c, 9, 36, 0
1, 89280, Note_on_c, 9, 54, 73
1, 89280, Note_on_c, 9, 42, 87
1, 89519, Note_on_c, 9, 54, 0
1, 89519, Note_on_c, 9, 42, 0
1, 89520, Note_on_c, 9, 54, 71
1, 89520, Note_on_c, 9, 42, 87
1, 89520, Note_on_c, 9, 36, 127
1, 89639, Note_on_c, 9, 54, 0
1, 89639, Note_on_c, 9, 42, 0
1, 89660, Note_on_c, 9, 42, 100
1, 89699, Note_on_c, 9, 42, 0
1, 89759, Note_on_c, 9, 36, 0
1, 89760, Note_on_c, 9, 38, 127
1, 89760, Note_on_c, 9, 54, 41
1, 89760, Note_on_c, 9, 62, 127
1, 89760, Note_on_c, 9, 42, 87
1, 89879, Note_on_c, 9, 38, 0
1, 89879, Note_on_c, 9, 54, 0
1, 89879, Note_on_c, 9, 62, 0
1, 89879, Note_on_c, 9, 42, 0
1, 89900, Note_on_c, 9, 42, 100
1, 89939, Note_on_c, 9, 42, 0
1, 90000, Note_on_c, 9, 54, 38
1, 90000, Note_on_c, 9, 46, 110
1, 90000, Note_on_c, 9, 42, 95
1, 90119, Note_on_c, 9, 54, 0
1, 90119, Note_on_c, 9, 46, 0
1, 90119, Note_on_c, 9, 42, 0
1, 90140, Note_on_c, 9, 42, 100
1, 90179, Note_on_c, 9, 42, 0
1, 90240, Note_on_c, 9, 54, 63
1, 90240, Note_on_c, 9, 42, 91
1, 90240, Note_on_c, 9, 36, 127
1, 90479, Note_on_c, 9, 54, 0
1, 90479, Note_on_c, 9, 42, 0
1, 90480, Note_on_c, 9, 54, 71
1, 90480, Note_on_c, 9, 42, 65
1, 90599, Note_on_c, 9, 36, 0
1, 90599, Note_on_c, 9, 54, 0
1, 90599, Note_on_c, 9, 42, 0
1, 90620, Note_on_c, 9, 46, 68
1, 90620, Note_on_c, 9, 44, 28
1, 90620, Note_on_c, 9, 36, 122
1, 90659, Note_on_c, 9, 46, 0
1, 90659, Note_on_c, 9, 44, 0
1, 90659, Note_on_c, 9, 36, 0
1, 90720, Note_on_c, 9, 38, 94
1, 90720, Note_on_c, 9, 54, 95
1, 90720, Note_on_c, 9, 62, 127
1, 90720, Note_on_c, 9, 42, 83
1, 90839, Note_on_c, 9, 38, 0
1, 90839, Note_on_c, 9, 54, 0
1, 90839, Note_on_c, 9, 62, 0
1, 90839, Note_on_c, 9, 42, 0
1, 90860, Note_on_c, 9, 42, 83
1, 90899, Note_on_c, 9, 42, 0
1, 90960, Note_on_c, 9, 54, 46
1, 90960, Note_on_c, 9, 42, 95
1, 90960, Note_on_c, 9, 36, 127
1, 91079, Note_on_c, 9, 54, 0
1, 91079, Note_on_c, 9, 42, 0
1, 91100, Note_on_c, 9, 42, 95
1, 91139, Note_on_c, 9, 42, 0
1, 91199, Note_on_c, 9, 36, 0
1, 91200, Note_on_c, 9, 54, 73
1, 91200, Note_on_c, 9, 42, 87
1, 91439, Note_on_c, 9, 54, 0
1, 91439, Note_on_c, 9, 42, 0
1, 91440, Note_on_c, 9, 54, 71
1, 91440, Note_on_c, 9, 42, 87
1, 91440, Note_on_c, 9, 36, 127
1, 91559, Note_on_c, 9, 54, 0
1, 91559, Note_on_c, 9, 42, 0
1, 91580, Note_on_c, 9, 42, 100
1, 91619, Note_on_c, 9, 42, 0
1, 91679, Note_on_c, 9, 36, 0
1, 91680, Note_on_c, 9, 38, 127
1, 91680, Note_on_c, 9, 54, 41
1, 91680, Note_on_c, 9, 62, 127
1, 91680, Note_on_c, 9, 42, 87
1, 91799, Note_on_c, 9, 38, 0
1, 91799, Note_on_c, 9, 54, 0
1, 91799, Note_on_c, 9, 62, 0
1, 91799, Note_on_c, 9, 42, 0
1, 91820, Note_on_c, 9, 42, 100
1, 91859, Note_on_c, 9, 42, 0
1, 91920, Note_on_c, 9, 54, 38
1, 91920, Note_on_c, 9, 46, 110
1, 91920, Note_on_c, 9, 42, 95
1, 92039, Note_on_c, 9, 54, 0
1, 92039, Note_on_c, 9, 46, 0
1, 92039, Note_on_c, 9, 42, 0
1, 92060, Note_on_c, 9, 42, 100
1, 92099, Note_on_c, 9, 42, 0
1, 92160, Note_on_c, 9, 54, 63
1, 92160, Note_on_c, 9, 42, 91
1, 92160, Note_on_c, 9, 36, 127
1, 92399, Note_on_c, 9, 54, 0
1, 92399, Note_on_c, 9, 42, 0
1, 92400, Note_on_c, 9, 54, 71
1, 92400, Note_on_c, 9, 42, 65
1, 92519, Note_on_c, 9, 36, 0
1, 92519, Note_on_c, 9, 54, 0
1, 92519, Note_on_c, 9, 42, 0
1, 92540, Note_on_c, 9, 46, 68
1, 92540, Note_on_c, 9, 44, 28
1, 92540, Note_on_c, 9, 36, 122
1, 92579, Note_on_c, 9, 46, 0
1, 92579, Note_on_c, 9, 44, 0
1, 92579, Note_on_c, 9, 36, 0
1, 92640, Note_on_c, 9, 38, 94
1, 92640, Note_on_c, 9, 54, 95
1, 92640, Note_on_c, 9, 62, 127
1, 92640, Note_on_c, 9, 42, 83
1, 92759, Note_on_c, 9, 38, 0
1, 92759, Note_on_c, 9, 54, 0
1, 92759, Note_on_c, 9, 62, 0
1, 92759, Note_on_c, 9, 42, 0
1, 92780, Note_on_c, 9, 42, 83
1, 92819, Note_on_c, 9, 42, 0
1, 92880, Note_on_c, 9, 54, 46
1, 92880, Note_on_c, 9, 42, 95
1, 92880, Note_on_c, 9, 36, 127
1, 92999, Note_on_c, 9, 54, 0
1, 92999, Note_on_c, 9, 42, 0
1, 93020, Note_on_c, 9, 42, 95
1, 93059, Note_on_c, 9, 42, 0
1, 93119, Note_on_c, 9, 36, 0
1, 93120, Note_on_c, 9, 54, 73
1, 93120, Note_on_c, 9, 42, 87
1, 93359, Note_on_c, 9, 54, 0
1, 93359, Note_on_c, 9, 42, 0
1, 93360, Note_on_c, 9, 54, 71
1, 93360, Note_on_c, 9, 42, 87
1, 93360, Note_on_c, 9, 36, 127
1, 93479, Note_on_c, 9, 54, 0
1, 93479, Note_on_c, 9, 42, 0
1, 93500, Note_on_c, 9, 42, 100
1, 93539, Note_on_c, 9, 42, 0
1, 93599, Note_on_c, 9, 36, 0
1, 93600, Note_on_c, 9, 38, 127
1, 93600, Note_on_c, 9, 54, 41
1, 93600, Note_on_c, 9, 62, 127
1, 93600, Note_on_c, 9, 42, 87
1, 93719, Note_on_c, 9, 38, 0
1, 93719, Note_on_c, 9, 54, 0
1, 93719, Note_on_c, 9, 62, 0
1, 93719, Note_on_c, 9, 42, 0
1, 93740, Note_on_c, 9, 42, 100
1, 93779, Note_on_c, 9, 42, 0
1, 93840, Note_on_c, 9, 54, 38
1, 93840, Note_on_c, 9, 46, 110
1, 93840, Note_on_c, 9, 42, 95
1, 93959, Note_on_c, 9, 54, 0
1, 93959, Note_on_c, 9, 46, 0
1, 93959, Note_on_c, 9, 42, 0
1, 93980, Note_on_c, 9, 42, 100
1, 94019, Note_on_c, 9, 42, 0
1, 94080, Note_on_c, 9, 54, 63
1, 94080, Note_on_c, 9, 42, 91
1, 94080, Note_on_c, 9, 36, 127
1, 94319, Note_on_c, 9, 54, 0
1, 94319, Note_on_c, 9, 42, 0
1, 94320, Note_on_c, 9, 54, 71
1, 94320, Note_on_c, 9, 42, 65
1, 94439, Note_on_c, 9, 36, 0
1, 94439, Note_on_c, 9, 54, 0
1, 94439, Note_on_c, 9, 42, 0
1, 94460, Note_on_c, 9, 46, 68
1, 94460, Note_on_c, 9, 44, 28
1, 94460, Note_on_c, 9, 36, 122
1, 94499, Note_on_c, 9, 46, 0
1, 94499, Note_on_c, 9, 44, 0
1, 94499, Note_on_c, 9, 36, 0
1, 94560, Note_on_c, 9, 38, 94
1, 94560, Note_on_c, 9, 54, 95
1, 94560, Note_on_c, 9, 62, 127
1, 94560, Note_on_c, 9, 42, 83
1, 94679, Note_on_c, 9, 38, 0
1, 94679, Note_on_c, 9, 54, 0
1, 94679, Note_on_c, 9, 62, 0
1, 94679, Note_on_c, 9, 42, 0
1, 94700, Note_on_c, 9, 42, 83
1, 94739, Note_on_c, 9, 42, 0
1, 94800, Note_on_c, 9, 54, 46
1, 94800, Note_on_c, 9, 42, 95
1, 94800, Note_on_c, 9, 36, 127
1, 94919, Note_on_c, 9, 54, 0
1, 94919, Note_on_c, 9, 42, 0
1, 94940, Note_on_c, 9, 42, 95
1, 94979, Note_on_c, 9, 42, 0
1, 95039, Note_on_c, 9, 36, 0
1, 95040, Note_on_c, 9, 54, 73
1, 95040, Note_on_c, 9, 42, 87
1, 95279, Note_on_c, 9, 54, 0
1, 95279, Note_on_c, 9, 42, 0
1, 95280, Note_on_c, 9, 54, 71
1, 95280, Note_on_c, 9, 42, 87
1, 95280, Note_on_c, 9, 36, 127
1, 95399, Note_on_c, 9, 54, 0
1, 95399, Note_on_c, 9, 42, 0
1, 95420, Note_on_c, 9, 42, 100
1, 95459, Note_on_c, 9, 42, 0
1, 95519, Note_on_c, 9, 36, 0
1, 95520, Note_on_c, 9, 38, 127
1, 95520, Note_on_c, 9, 54, 41
1, 95520, Note_on_c, 9, 62, 127
1, 95520, Note_on_c, 9, 42, 87
1, 95639, Note_on_c, 9, 38, 0
1, 95639, Note_on_c, 9, 54, 0
1, 95639, Note_on_c, 9, 62, 0
1, 95639, Note_on_c, 9, 42, 0
1, 95660, Note_on_c, 9, 42, 100
1, 95699, Note_on_c, 9, 42, 0
1, 95760, Note_on_c, 9, 54, 38
1, 95760, Note_on_c, 9, 46, 110
1, 95760, Note_on_c, 9, 42, 95
1, 95879, Note_on_c, 9, 54, 0
1, 95879, Note_on_c, 9, 46, 0
1, 95879, Note_on_c, 9, 42, 0
1, 95900, Note_on_c, 9, 42, 100
1, 95939, Note_on_c, 9, 42, 0
1, 96000, Note_on_c, 9, 54, 63
1, 96000, Note_on_c, 9, 42, 91
1, 96000, Note_on_c, 9, 52, 104
1, 96000, Note_on_c, 9, 36, 107
1, 96239, Note_on_c, 9, 54, 0
1, 96239, Note_on_c, 9, 42, 0
1, 96239, Note_on_c, 9, 52, 0
1, 96240, Note_on_c, 9, 54, 71
1, 96240, Note_on_c, 9, 42, 65
1, 96359, Note_on_c, 9, 36, 0
1, 96359, Note_on_c, 9, 54, 0
1, 96359, Note_on_c, 9, 42, 0
1, 96375, Note_on_c, 9, 46, 68
1, 96375, Note_on_c, 9, 44, 28
1, 96375, Note_on_c, 9, 36, 115
1, 96419, Note_on_c, 9, 46, 0
1, 96419, Note_on_c, 9, 44, 0
1, 96419, Note_on_c, 9, 36, 0
1, 96480, Note_on_c, 9, 38, 94
1, 96480, Note_on_c, 9, 54, 95
1, 96480, Note_on_c, 9, 62, 127
1, 96480, Note_on_c, 9, 42, 83
1, 96599, Note_on_c, 9, 38, 0
1, 96599, Note_on_c, 9, 54, 0
1, 96599, Note_on_c, 9, 62, 0
1, 96599, Note_on_c, 9, 42, 0
1, 96615, Note_on_c, 9, 42, 83
1, 96659, Note_on_c, 9, 42, 0
1, 96720, Note_on_c, 9, 54, 46
1, 96720, Note_on_c, 9, 42, 95
1, 96720, Note_on_c, 9, 36, 127
1, 96839, Note_on_c, 9, 54, 0
1, 96839, Note_on_c, 9, 42, 0
1, 96855, Note_on_c, 9, 42, 95
1, 96899, Note_on_c, 9, 42, 0
1, 96959, Note_on_c, 9, 36, 0
1, 96960, Note_on_c, 9, 54, 73
1, 96960, Note_on_c, 9, 42, 87
1, 96960, Note_on_c, 9, 36, 79
1, 97199, Note_on_c, 9, 54, 0
1, 97199, Note_on_c, 9, 42, 0
1, 97199, Note_on_c, 9, 36, 0
1, 97200, Note_on_c, 9, 54, 71
1, 97200, Note_on_c, 9, 42, 87
1, 97200, Note_on_c, 9, 36, 127
1, 97319, Note_on_c, 9, 54, 0
1, 97319, Note_on_c, 9, 42, 0
1, 97335, Note_on_c, 9, 42, 100
1, 97379, Note_on_c, 9, 42, 0
1, 97439, Note_on_c, 9, 36, 0
1, 97440, Note_on_c, 9, 38, 127
1, 97440, Note_on_c, 9, 54, 41
1, 97440, Note_on_c, 9, 62, 127
1, 97440, Note_on_c, 9, 42, 87
1, 97559, Note_on_c, 9, 38, 0
1, 97559, Note_on_c, 9, 54, 0
1, 97559, Note_on_c, 9, 62, 0
1, 97559, Note_on_c, 9, 42, 0
1, 97575, Note_on_c, 9, 42, 100
1, 97619, Note_on_c, 9, 42, 0
1, 97680, Note_on_c, 9, 54, 38
1, 97680, Note_on_c, 9, 46, 110
1, 97680, Note_on_c, 9, 42, 95
1, 97799, Note_on_c, 9, 54, 0
1, 97799, Note_on_c, 9, 46, 0
1, 97799, Note_on_c, 9, 42, 0
1, 97815, Note_on_c, 9, 42, 100
1, 97859, Note_on_c, 9, 42, 0
1, 97920, Note_on_c, 9, 54, 63
1, 97920, Note_on_c, 9, 42, 91
1, 97920, Note_on_c, 9, 36, 127
1, 98159, Note_on_c, 9, 54, 0
1, 98159, Note_on_c, 9, 42, 0
1, 98160, Note_on_c, 9, 54, 71
1, 98160, Note_on_c, 9, 42, 65
1, 98279, Note_on_c, 9, 36, 0
1, 98279, Note_on_c, 9, 54, 0
1, 98279, Note_on_c, 9, 42, 0
1, 98295, Note_on_c, 9, 46, 68
1, 98295, Note_on_c, 9, 44, 28
1, 98295, Note_on_c, 9, 36, 122
1, 98339, Note_on_c, 9, 46, 0
1, 98339, Note_on_c, 9, 44, 0
1, 98339, Note_on_c, 9, 36, 0
1, 98400, Note_on_c, 9, 38, 94
1, 98400, Note_on_c, 9, 54, 95
1, 98400, Note_on_c, 9, 62, 127
1, 98400, Note_on_c, 9, 42, 83
1, 98519, Note_on_c, 9, 38, 0
1, 98519, Note_on_c, 9, 54, 0
1, 98519, Note_on_c, 9, 62, 0
1, 98519, Note_on_c, 9, 42, 0
1, 98535, Note_on_c, 9, 42, 83
1, 98579, Note_on_c, 9, 42, 0
1, 98640, Note_on_c, 9, 54, 46
1, 98640, Note_on_c, 9, 42, 95
1, 98640, Note_on_c, 9, 36, 127
1, 98759, Note_on_c, 9, 54, 0
1, 98759, Note_on_c, 9, 42, 0
1, 98775, Note_on_c, 9, 42, 95
1, 98819, Note_on_c, 9, 42, 0
1, 98879, Note_on_c, 9, 36, 0
1, 98880, Note_on_c, 9, 54, 73
1, 98880, Note_on_c, 9, 42, 87
1, 98880, Note_on_c, 9, 36, 97
1, 99119, Note_on_c, 9, 54, 0
1, 99119, Note_on_c, 9, 42, 0
1, 99119, Note_on_c, 9, 36, 0
1, 99120, Note_on_c, 9, 54, 71
1, 99120, Note_on_c, 9, 42, 87
1, 99120, Note_on_c, 9, 36, 127
1, 99239, Note_on_c, 9, 54, 0
1, 99239, Note_on_c, 9, 42, 0
1, 99255, Note_on_c, 9, 42, 100
1, 99299, Note_on_c, 9, 42, 0
1, 99359, Note_on_c, 9, 36, 0
1, 99360, Note_on_c, 9, 38, 127
1, 99360, Note_on_c, 9, 54, 41
1, 99360, Note_on_c, 9, 62, 127
1, 99360, Note_on_c, 9, 42, 87
1, 99479, Note_on_c, 9, 38, 0
1, 99479, Note_on_c, 9, 54, 0
1, 99479, Note_on_c, 9, 62, 0
1, 99479, Note_on_c, 9, 42, 0
1, 99495, Note_on_c, 9, 42, 100
1, 99539, Note_on_c, 9, 42, 0
1, 99600, Note_on_c, 9, 54, 38
1, 99600, Note_on_c, 9, 46, 110
1, 99600, Note_on_c, 9, 42, 95
1, 99719, Note_on_c, 9, 54, 0
1, 99719, Note_on_c, 9, 46, 0
1, 99719, Note_on_c, 9, 42, 0
1, 99735, Note_on_c, 9, 42, 100
1, 99779, Note_on_c, 9, 42, 0
1, 99840, Note_on_c, 9, 54, 63
1, 99840, Note_on_c, 9, 42, 91
1, 99840, Note_on_c, 9, 36, 127
1, 100079, Note_on_c, 9, 54, 0
1, 100079, Note_on_c, 9, 42, 0
1, 100080, Note_on_c, 9, 54, 71
1, 100080, Note_on_c, 9, 42, 65
1, 100199, Note_on_c, 9, 36, 0
1, 100199, Note_on_c, 9, 54, 0
1, 100199, Note_on_c, 9, 42, 0
1, 100215, Note_on_c, 9, 46, 68
1, 100215, Note_on_c, 9, 44, 28
1, 100215, Note_on_c, 9, 36, 122
1, 100259, Note_on_c, 9, 46, 0
1, 100259, Note_on_c, 9, 44, 0
1, 100259, Note_on_c, 9, 36, 0
1, 100320, Note_on_c, 9, 38, 94
1, 100320, Note_on_c, 9, 54, 95
1, 100320, Note_on_c, 9, 62, 127
1, 100320, Note_on_c, 9, 42, 83
1, 100439, Note_on_c, 9, 38, 0
1, 100439, Note_on_c, 9, 54, 0
1, 100439, Note_on_c, 9, 62, 0
1, 100439, Note_on_c, 9, 42, 0
1, 100455, Note_on_c, 9, 42, 83
1, 100499, Note_on_c, 9, 42, 0
1, 100560, Note_on_c, 9, 54, 46
1, 100560, Note_on_c, 9, 42, 95
1, 100560, Note_on_c, 9, 36, 127
1, 100679, Note_on_c, 9, 54, 0
1, 100679, Note_on_c, 9, 42, 0
1, 100695, Note_on_c, 9, 42, 95
1, 100739, Note_on_c, 9, 42, 0
1, 100799, Note_on_c, 9, 36, 0
1, 100800, Note_on_c, 9, 54, 73
1, 100800, Note_on_c, 9, 42, 87
1, 100800, Note_on_c, 9, 36, 88
1, 101039, Note_on_c, 9, 54, 0
1, 101039, Note_on_c, 9, 42, 0
1, 101039, Note_on_c, 9, 36, 0
1, 101040, Note_on_c, 9, 54, 71
1, 101040, Note_on_c, 9, 42, 87
1, 101040, Note_on_c, 9, 36, 127
1, 101159, Note_on_c, 9, 54, 0
1, 101159, Note_on_c, 9, 42, 0
1, 101175, Note_on_c, 9, 42, 100
1, 101219, Note_on_c, 9, 42, 0
1, 101279, Note_on_c, 9, 36, 0
1, 101280, Note_on_c, 9, 38, 127
1, 101280, Note_on_c, 9, 54, 41
1, 101280, Note_on_c, 9, 62, 127
1, 101280, Note_on_c, 9, 42, 87
1, 101399, Note_on_c, 9, 38, 0
1, 101399, Note_on_c, 9, 54, 0
1, 101399, Note_on_c, 9, 62, 0
1, 101399, Note_on_c, 9, 42, 0
1, 101415, Note_on_c, 9, 42, 100
1, 101459, Note_on_c, 9, 42, 0
1, 101520, Note_on_c, 9, 54, 38
1, 101520, Note_on_c, 9, 46, 110
1, 101520, Note_on_c, 9, 42, 95
1, 101639, Note_on_c, 9, 54, 0
1, 101639, Note_on_c, 9, 46, 0
1, 101639, Note_on_c, 9, 42, 0
1, 101655, Note_on_c, 9, 42, 100
1, 101699, Note_on_c, 9, 42, 0
1, 101760, Note_on_c, 9, 54, 63
1, 101760, Note_on_c, 9, 42, 91
1, 101760, Note_on_c, 9, 36, 127
1, 101999, Note_on_c, 9, 54, 0
1, 101999, Note_on_c, 9, 42, 0
1, 102000, Note_on_c, 9, 54, 71
1, 102000, Note_on_c, 9, 42, 65
1, 102119, Note_on_c, 9, 36, 0
1, 102119, Note_on_c, 9, 54, 0
1, 102119, Note_on_c, 9, 42, 0
1, 102135, Note_on_c, 9, 46, 68
1, 102135, Note_on_c, 9, 44, 28
1, 102135, Note_on_c, 9, 36, 122
1, 102179, Note_on_c, 9, 46, 0
1, 102179, Note_on_c, 9, 44, 0
1, 102179, Note_on_c, 9, 36, 0
1, 102240, Note_on_c, 9, 38, 94
1, 102240, Note_on_c, 9, 54, 95
1, 102240, Note_on_c, 9, 62, 127
1, 102240, Note_on_c, 9, 42, 83
1, 102359, Note_on_c, 9, 38, 0
1, 102359, Note_on_c, 9, 54, 0
1, 102359, Note_on_c, 9, 62, 0
1, 102359, Note_on_c, 9, 42, 0
1, 102375, Note_on_c, 9, 42, 83
1, 102419, Note_on_c, 9, 42, 0
1, 102480, Note_on_c, 9, 54, 46
1, 102480, Note_on_c, 9, 42, 95
1, 102480, Note_on_c, 9, 36, 127
1, 102599, Note_on_c, 9, 54, 0
1, 102599, Note_on_c, 9, 42, 0
1, 102615, Note_on_c, 9, 42, 95
1, 102659, Note_on_c, 9, 42, 0
1, 102719, Note_on_c, 9, 36, 0
1, 102720, Note_on_c, 9, 54, 73
1, 102720, Note_on_c, 9, 42, 87
1, 102720, Note_on_c, 9, 36, 94
1, 102959, Note_on_c, 9, 54, 0
1, 102959, Note_on_c, 9, 42, 0
1, 102959, Note_on_c, 9, 36, 0
1, 102960, Note_on_c, 9, 54, 71
1, 102960, Note_on_c, 9, 42, 87
1, 102960, Note_on_c, 9, 36, 127
1, 103079, Note_on_c, 9, 54, 0
1, 103079, Note_on_c, 9, 42, 0
1, 103095, Note_on_c, 9, 42, 100
1, 103139, Note_on_c, 9, 42, 0
1, 103199, Note_on_c, 9, 36, 0
1, 103200, Note_on_c, 9, 38, 127
1, 103200, Note_on_c, 9, 54, 41
1, 103200, Note_on_c, 9, 62, 127
1, 103200, Note_on_c, 9, 42, 87
1, 103319, Note_on_c, 9, 38, 0
1, 103319, Note_on_c, 9, 54, 0
1, 103319, Note_on_c, 9, 62, 0
1, 103319, Note_on_c, 9, 42, 0
1, 103335, Note_on_c, 9, 42, 100
1, 103379, Note_on_c, 9, 42, 0
1, 103440, Note_on_c, 9, 54, 38
1, 103440, Note_on_c, 9, 46, 110
1, 103440, Note_on_c, 9, 42, 95
1, 103559, Note_on_c, 9, 54, 0
1, 103559, Note_on_c, 9, 46, 0
1, 103559, Note_on_c, 9, 42, 0
1, 103575, Note_on_c, 9, 42, 100
1, 103619, Note_on_c, 9, 42, 0
1, 103680, Note_on_c, 9, 54, 63
1, 103680, Note_on_c, 9, 42, 91
1, 103680, Note_on_c, 9, 36, 127
1, 103919, Note_on_c, 9, 54, 0
1, 103919, Note_on_c, 9, 42, 0
1, 103920, Note_on_c, 9, 54, 71
1, 103920, Note_on_c, 9, 42, 65
1, 104039, Note_on_c, 9, 36, 0
1, 104039, Note_on_c, 9, 54, 0
1, 104039, Note_on_c, 9, 42, 0
1, 104055, Note_on_c, 9, 46, 68
1, 104055, Note_on_c, 9, 44, 28
1, 104055, Note_on_c, 9, 36, 122
1, 104099, Note_on_c, 9, 46, 0
1, 104099, Note_on_c, 9, 44, 0
1, 104099, Note_on_c, 9, 36, 0
1, 104160, Note_on_c, 9, 38, 94
1, 104160, Note_on_c, 9, 54, 95
1, 104160, Note_on_c, 9, 62, 127
1, 104160, Note_on_c, 9, 42, 83
1, 104279, Note_on_c, 9, 38, 0
1, 104279, Note_on_c, 9, 54, 0
1, 104279, Note_on_c, 9, 62, 0
1, 104279, Note_on_c, 9, 42, 0
1, 104295, Note_on_c, 9, 42, 83
1, 104339, Note_on_c, 9, 42, 0
1, 104400, Note_on_c, 9, 54, 46
1, 104400, Note_on_c, 9, 42, 95
1, 104400, Note_on_c, 9, 36, 127
1, 104519, Note_on_c, 9, 54, 0
1, 104519, Note_on_c, 9, 42, 0
1, 104535, Note_on_c, 9, 42, 95
1, 104579, Note_on_c, 9, 42, 0
1, 104639, Note_on_c, 9, 36, 0
1, 104640, Note_on_c, 9, 54, 73
1, 104640, Note_on_c, 9, 42, 87
1, 104640, Note_on_c, 9, 36, 94
1, 104879, Note_on_c, 9, 54, 0
1, 104879, Note_on_c, 9, 42, 0
1, 104879, Note_on_c, 9, 36, 0
1, 104880, Note_on_c, 9, 54, 71
1, 104880, Note_on_c, 9, 42, 87
1, 104880, Note_on_c, 9, 36, 127
1, 104999, Note_on_c, 9, 54, 0
1, 104999, Note_on_c, 9, 42, 0
1, 105015, Note_on_c, 9, 42, 100
1, 105059, Note_on_c, 9, 42, 0
1, 105119, Note_on_c, 9, 36, 0
1, 105120, Note_on_c, 9, 38, 127
1, 105120, Note_on_c, 9, 54, 41
1, 105120, Note_on_c, 9, 62, 127
1, 105120, Note_on_c, 9, 42, 87
1, 105239, Note_on_c, 9, 38, 0
1, 105239, Note_on_c, 9, 54, 0
1, 105239, Note_on_c, 9, 62, 0
1, 105239, Note_on_c, 9, 42, 0
1, 105255, Note_on_c, 9, 42, 100
1, 105299, Note_on_c, 9, 42, 0
1, 105360, Note_on_c, 9, 54, 38
1, 105360, Note_on_c, 9, 46, 110
1, 105360, Note_on_c, 9, 42, 95
1, 105479, Note_on_c, 9, 54, 0
1, 105479, Note_on_c, 9, 46, 0
1, 105479, Note_on_c, 9, 42, 0
1, 105495, Note_on_c, 9, 42, 100
1, 105539, Note_on_c, 9, 42, 0
1, 105600, Note_on_c, 9, 54, 63
1, 105600, Note_on_c, 9, 42, 91
1, 105600, Note_on_c, 9, 36, 127
1, 105839, Note_on_c, 9, 54, 0
1, 105839, Note_on_c, 9, 42, 0
1, 105840, Note_on_c, 9, 54, 71
1, 105840, Note_on_c, 9, 42, 65
1, 105959, Note_on_c, 9, 36, 0
1, 105959, Note_on_c, 9, 54, 0
1, 105959, Note_on_c, 9, 42, 0
1, 105975, Note_on_c, 9, 46, 68
1, 105975, Note_on_c, 9, 44, 28
1, 105975, Note_on_c, 9, 36, 122
1, 106019, Note_on_c, 9, 46, 0
1, 106019, Note_on_c, 9, 44, 0
1, 106019, Note_on_c, 9, 36, 0
1, 106080, Note_on_c, 9, 38, 94
1, 106080, Note_on_c, 9, 54, 95
1, 106080, Note_on_c, 9, 62, 127
1, 106080, Note_on_c, 9, 42, 83
1, 106199, Note_on_c, 9, 38, 0
1, 106199, Note_on_c, 9, 54, 0
1, 106199, Note_on_c, 9, 62, 0
1, 106199, Note_on_c, 9, 42, 0
1, 106215, Note_on_c, 9, 42, 83
1, 106259, Note_on_c, 9, 42, 0
1, 106320, Note_on_c, 9, 54, 46
1, 106320, Note_on_c, 9, 42, 95
1, 106320, Note_on_c, 9, 36, 127
1, 106439, Note_on_c, 9, 54, 0
1, 106439, Note_on_c, 9, 42, 0
1, 106455, Note_on_c, 9, 42, 95
1, 106499, Note_on_c, 9, 42, 0
1, 106559, Note_on_c, 9, 36, 0
1, 106560, Note_on_c, 9, 54, 73
1, 106560, Note_on_c, 9, 42, 87
1, 106560, Note_on_c, 9, 36, 91
1, 106799, Note_on_c, 9, 54, 0
1, 106799, Note_on_c, 9, 42, 0
1, 106799, Note_on_c, 9, 36, 0
1, 106800, Note_on_c, 9, 54, 71
1, 106800, Note_on_c, 9, 42, 87
1, 106800, Note_on_c, 9, 36, 127
1, 106919, Note_on_c, 9, 54, 0
1, 106919, Note_on_c, 9, 42, 0
1, 106935, Note_on_c, 9, 42, 100
1, 106979, Note_on_c, 9, 42, 0
1, 107039, Note_on_c, 9, 36, 0
1, 107040, Note_on_c, 9, 38, 127
1, 107040, Note_on_c, 9, 54, 41
1, 107040, Note_on_c, 9, 62, 127
1, 107040, Note_on_c, 9, 42, 87
1, 107159, Note_on_c, 9, 38, 0
1, 107159, Note_on_c, 9, 54, 0
1, 107159, Note_on_c, 9, 62, 0
1, 107159, Note_on_c, 9, 42, 0
1, 107175, Note_on_c, 9, 42, 100
1, 107219, Note_on_c, 9, 42, 0
1, 107280, Note_on_c, 9, 54, 38
1, 107280, Note_on_c, 9, 46, 110
1, 107280, Note_on_c, 9, 42, 95
1, 107399, Note_on_c, 9, 54, 0
1, 107399, Note_on_c, 9, 46, 0
1, 107399, Note_on_c, 9, 42, 0
1, 107415, Note_on_c, 9, 42, 100
1, 107459, Note_on_c, 9, 42, 0
1, 107520, Note_on_c, 9, 54, 63
1, 107520, Note_on_c, 9, 42, 91
1, 107520, Note_on_c, 9, 36, 127
1, 107759, Note_on_c, 9, 54, 0
1, 107759, Note_on_c, 9, 42, 0
1, 107760, Note_on_c, 9, 54, 71
1, 107760, Note_on_c, 9, 42, 65
1, 107879, Note_on_c, 9, 36, 0
1, 107879, Note_on_c, 9, 54, 0
1, 107879, Note_on_c, 9, 42, 0
1, 107895, Note_on_c, 9, 46, 68
1, 107895, Note_on_c, 9, 44, 28
1, 107895, Note_on_c, 9, 36, 122
1, 107939, Note_on_c, 9, 46, 0
1, 107939, Note_on_c, 9, 44, 0
1, 107939, Note_on_c, 9, 36, 0
1, 108000, Note_on_c, 9, 38, 94
1, 108000, Note_on_c, 9, 54, 95
1, 108000, Note_on_c, 9, 62, 127
1, 108000, Note_on_c, 9, 42, 83
1, 108119, Note_on_c, 9, 38, 0
1, 108119, Note_on_c, 9, 54, 0
1, 108119, Note_on_c, 9, 62, 0
1, 108119, Note_on_c, 9, 42, 0
1, 108135, Note_on_c, 9, 42, 83
1, 108179, Note_on_c, 9, 42, 0
1, 108240, Note_on_c, 9, 54, 46
1, 108240, Note_on_c, 9, 42, 95
1, 108240, Note_on_c, 9, 36, 127
1, 108359, Note_on_c, 9, 54, 0
1, 108359, Note_on_c, 9, 42, 0
1, 108375, Note_on_c, 9, 42, 95
1, 108419, Note_on_c, 9, 42, 0
1, 108479, Note_on_c, 9, 36, 0
1, 108480, Note_on_c, 9, 54, 73
1, 108480, Note_on_c, 9, 42, 87
1, 108719, Note_on_c, 9, 54, 0
1, 108719, Note_on_c, 9, 42, 0
1, 108720, Note_on_c, 9, 54, 71
1, 108720, Note_on_c, 9, 42, 87
1, 108720, Note_on_c, 9, 36, 127
1, 108839, Note_on_c, 9, 54, 0
1, 108839, Note_on_c, 9, 42, 0
1, 108855, Note_on_c, 9, 42, 100
1, 108899, Note_on_c, 9, 42, 0
1, 108959, Note_on_c, 9, 36, 0
1, 108960, Note_on_c, 9, 38, 127
1, 108960, Note_on_c, 9, 54, 41
1, 108960, Note_on_c, 9, 62, 127
1, 108960, Note_on_c, 9, 42, 87
1, 109079, Note_on_c, 9, 38, 0
1, 109079, Note_on_c, 9, 54, 0
1, 109079, Note_on_c, 9, 62, 0
1, 109079, Note_on_c, 9, 42, 0
1, 109095, Note_on_c, 9, 42, 100
1, 109139, Note_on_c, 9, 42, 0
1, 109200, Note_on_c, 9, 54, 38
1, 109200, Note_on_c, 9, 46, 110
1, 109200, Note_on_c, 9, 42, 95
1, 109319, Note_on_c, 9, 54, 0
1, 109319, Note_on_c, 9, 46, 0
1, 109319, Note_on_c, 9, 42, 0
1, 109335, Note_on_c, 9, 42, 100
1, 109379, Note_on_c, 9, 42, 0
1, 109440, Note_on_c, 9, 54, 63
1, 109440, Note_on_c, 9, 42, 91
1, 109440, Note_on_c, 9, 36, 127
1, 109679, Note_on_c, 9, 54, 0
1, 109679, Note_on_c, 9, 42, 0
1, 109680, Note_on_c, 9, 54, 71
1, 109680, Note_on_c, 9, 42, 65
1, 109799, Note_on_c, 9, 36, 0
1, 109799, Note_on_c, 9, 54, 0
1, 109799, Note_on_c, 9, 42, 0
1, 109815, Note_on_c, 9, 46, 68
1, 109815, Note_on_c, 9, 44, 28
1, 109815, Note_on_c, 9, 36, 122
1, 109859, Note_on_c, 9, 46, 0
1, 109859, Note_on_c, 9, 44, 0
1, 109859, Note_on_c, 9, 36, 0
1, 109920, Note_on_c, 9, 38, 94
1, 109920, Note_on_c, 9, 54, 95
1, 109920, Note_on_c, 9, 62, 127
1, 109920, Note_on_c, 9, 42, 83
1, 110039, Note_on_c, 9, 38, 0
1, 110039, Note_on_c, 9, 54, 0
1, 110039, Note_on_c, 9, 62, 0
1, 110039, Note_on_c, 9, 42, 0
1, 110055, Note_on_c, 9, 42, 83
1, 110099, Note_on_c, 9, 42, 0
1, 110160, Note_on_c, 9, 54, 46
1, 110160, Note_on_c, 9, 42, 95
1, 110160, Note_on_c, 9, 36, 127
1, 110279, Note_on_c, 9, 54, 0
1, 110279, Note_on_c, 9, 42, 0
1, 110295, Note_on_c, 9, 42, 95
1, 110339, Note_on_c, 9, 42, 0
1, 110399, Note_on_c, 9, 36, 0
1, 110400, Note_on_c, 9, 54, 73
1, 110400, Note_on_c, 9, 42, 87
1, 110400, Note_on_c, 9, 36, 79
1, 110639, Note_on_c, 9, 54, 0
1, 110639, Note_on_c, 9, 42, 0
1, 110639, Note_on_c, 9, 36, 0
1, 110640, Note_on_c, 9, 54, 71
1, 110640, Note_on_c, 9, 42, 87
1, 110640, Note_on_c, 9, 36, 127
1, 110759, Note_on_c, 9, 54, 0
1, 110759, Note_on_c, 9, 42, 0
1, 110775, Note_on_c, 9, 42, 100
1, 110819, Note_on_c, 9, 42, 0
1, 110879, Note_on_c, 9, 36, 0
1, 110880, Note_on_c, 9, 38, 127
1, 110880, Note_on_c, 9, 54, 41
1, 110880, Note_on_c, 9, 62, 127
1, 110880, Note_on_c, 9, 42, 87
1, 110999, Note_on_c, 9, 38, 0
1, 110999, Note_on_c, 9, 54, 0
1, 110999, Note_on_c, 9, 62, 0
1, 110999, Note_on_c, 9, 42, 0
1, 111015, Note_on_c, 9, 42, 100
1, 111059, Note_on_c, 9, 42, 0
1, 111120, Note_on_c, 9, 54, 38
1, 111120, Note_on_c, 9, 46, 110
1, 111120, Note_on_c, 9, 42, 95
1, 111239, Note_on_c, 9, 54, 0
1, 111239, Note_on_c, 9, 46, 0
1, 111239, Note_on_c, 9, 42, 0
1, 111255, Note_on_c, 9, 42, 100
1, 111299, Note_on_c, 9, 42, 0
1, 111360, Note_on_c, 9, 54, 63
1, 111360, Note_on_c, 9, 42, 91
1, 111360, Note_on_c, 9, 52, 104
1, 111360, Note_on_c, 9, 36, 127
1, 111599, Note_on_c, 9, 54, 0
1, 111599, Note_on_c, 9, 42, 0
1, 111599, Note_on_c, 9, 52, 0
1, 111600, Note_on_c, 9, 54, 71
1, 111600, Note_on_c, 9, 42, 65
1, 111719, Note_on_c, 9, 36, 0
1, 111719, Note_on_c, 9, 54, 0
1, 111719, Note_on_c, 9, 42, 0
1, 111735, Note_on_c, 9, 46, 68
1, 111735, Note_on_c, 9, 44, 28
1, 111735, Note_on_c, 9, 36, 122
1, 111779, Note_on_c, 9, 46, 0
1, 111779, Note_on_c, 9, 44, 0
1, 111779, Note_on_c, 9, 36, 0
1, 111840, Note_on_c, 9, 38, 94
1, 111840, Note_on_c, 9, 54, 95
1, 111840, Note_on_c, 9, 62, 127
1, 111840, Note_on_c, 9, 42, 83
1, 111959, Note_on_c, 9, 38, 0
1, 111959, Note_on_c, 9, 54, 0
1, 111959, Note_on_c, 9, 62, 0
1, 111959, Note_on_c, 9, 42, 0
1, 111975, Note_on_c, 9, 42, 83
1, 112019, Note_on_c, 9, 42, 0
1, 112080, Note_on_c, 9, 54, 46
1, 112080, Note_on_c, 9, 42, 95
1, 112080, Note_on_c, 9, 36, 127
1, 112199, Note_on_c, 9, 54, 0
1, 112199, Note_on_c, 9, 42, 0
1, 112215, Note_on_c, 9, 42, 95
1, 112259, Note_on_c, 9, 42, 0
1, 112319, Note_on_c, 9, 36, 0
1, 112320, Note_on_c, 9, 54, 73
1, 112320, Note_on_c, 9, 42, 87
1, 112320, Note_on_c, 9, 36, 86
1, 112559, Note_on_c, 9, 54, 0
1, 112559, Note_on_c, 9, 42, 0
1, 112559, Note_on_c, 9, 36, 0
1, 112560, Note_on_c, 9, 54, 71
1, 112560, Note_on_c, 9, 42, 87
1, 112560, Note_on_c, 9, 36, 127
1, 112679, Note_on_c, 9, 54, 0
1, 112679, Note_on_c, 9, 42, 0
1, 112695, Note_on_c, 9, 42, 100
1, 112739, Note_on_c, 9, 42, 0
1, 112799, Note_on_c, 9, 36, 0
1, 112800, Note_on_c, 9, 38, 127
1, 112800, Note_on_c, 9, 54, 41
1, 112800, Note_on_c, 9, 62, 127
1, 112800, Note_on_c, 9, 42, 87
1, 112919, Note_on_c, 9, 38, 0
1, 112919, Note_on_c, 9, 54, 0
1, 112919, Note_on_c, 9, 62, 0
1, 112919, Note_on_c, 9, 42, 0
1, 112935, Note_on_c, 9, 42, 100
1, 112979, Note_on_c, 9, 42, 0
1, 113040, Note_on_c, 9, 54, 38
1, 113040, Note_on_c, 9, 46, 110
1, 113040, Note_on_c, 9, 42, 95
1, 113159, Note_on_c, 9, 54, 0
1, 113159, Note_on_c, 9, 46, 0
1, 113159, Note_on_c, 9, 42, 0
1, 113175, Note_on_c, 9, 42, 100
1, 113219, Note_on_c, 9, 42, 0
1, 113280, Note_on_c, 9, 54, 63
1, 113280, Note_on_c, 9, 42, 91
1, 113280, Note_on_c, 9, 36, 115
1, 113519, Note_on_c, 9, 54, 0
1, 113519, Note_on_c, 9, 42, 0
1, 113520, Note_on_c, 9, 54, 71
1, 113520, Note_on_c, 9, 42, 65
1, 113639, Note_on_c, 9, 36, 0
1, 113639, Note_on_c, 9, 54, 0
1, 113639, Note_on_c, 9, 42, 0
1, 113655, Note_on_c, 9, 46, 68
1, 113655, Note_on_c, 9, 44, 28
1, 113655, Note_on_c, 9, 36, 110
1, 113699, Note_on_c, 9, 46, 0
1, 113699, Note_on_c, 9, 44, 0
1, 113699, Note_on_c, 9, 36, 0
1, 113760, Note_on_c, 9, 38, 94
1, 113760, Note_on_c, 9, 54, 95
1, 113760, Note_on_c, 9, 62, 127
1, 113760, Note_on_c, 9, 42, 83
1, 113879, Note_on_c, 9, 38, 0
1, 113879, Note_on_c, 9, 54, 0
1, 113879, Note_on_c, 9, 62, 0
1, 113879, Note_on_c, 9, 42, 0
1, 113895, Note_on_c, 9, 42, 83
1, 113939, Note_on_c, 9, 42, 0
1, 114000, Note_on_c, 9, 54, 46
1, 114000, Note_on_c, 9, 42, 95
1, 114000, Note_on_c, 9, 36, 114
1, 114119, Note_on_c, 9, 54, 0
1, 114119, Note_on_c, 9, 42, 0
1, 114135, Note_on_c, 9, 42, 95
1, 114179, Note_on_c, 9, 42, 0
1, 114239, Note_on_c, 9, 36, 0
1, 114240, Note_on_c, 9, 54, 73
1, 114240, Note_on_c, 9, 42, 87
1, 114240, Note_on_c, 9, 36, 75
1, 114479, Note_on_c, 9, 54, 0
1, 114479, Note_on_c, 9, 42, 0
1, 114479, Note_on_c, 9, 36, 0
1, 114480, Note_on_c, 9, 54, 71
1, 114480, Note_on_c, 9, 42, 87
1, 114480, Note_on_c, 9, 36, 116
1, 114599, Note_on_c, 9, 54, 0
1, 114599, Note_on_c, 9, 42, 0
1, 114615, Note_on_c, 9, 42, 100
1, 114659, Note_on_c, 9, 42, 0
1, 114719, Note_on_c, 9, 36, 0
1, 114720, Note_on_c, 9, 38, 127
1, 114720, Note_on_c, 9, 54, 41
1, 114720, Note_on_c, 9, 62, 127
1, 114720, Note_on_c, 9, 42, 87
1, 114839, Note_on_c, 9, 38, 0
1, 114839, Note_on_c, 9, 54, 0
1, 114839, Note_on_c, 9, 62, 0
1, 114839, Note_on_c, 9, 42, 0
1, 114855, Note_on_c, 9, 42, 100
1, 114899, Note_on_c, 9, 42, 0
1, 114960, Note_on_c, 9, 54, 38
1, 114960, Note_on_c, 9, 46, 110
1, 114960, Note_on_c, 9, 42, 95
1, 115079, Note_on_c, 9, 54, 0
1, 115079, Note_on_c, 9, 46, 0
1, 115079, Note_on_c, 9, 42, 0
1, 115095, Note_on_c, 9, 42, 100
1, 115139, Note_on_c, 9, 42, 0
1, 115200, Note_on_c, 9, 54, 63
1, 115200, Note_on_c, 9, 42, 91
1, 115200, Note_on_c, 9, 36, 110
1, 115439, Note_on_c, 9, 54, 0
1, 115439, Note_on_c, 9, 42, 0
1, 115440, Note_on_c, 9, 54, 71
1, 115440, Note_on_c, 9, 42, 65
1, 115559, Note_on_c, 9, 36, 0
1, 115559, Note_on_c, 9, 54, 0
1, 115559, Note_on_c, 9, 42, 0
1, 115575, Note_on_c, 9, 46, 68
1, 115575, Note_on_c, 9, 44, 28
1, 115575, Note_on_c, 9, 36, 104
1, 115619, Note_on_c, 9, 46, 0
1, 115619, Note_on_c, 9, 44, 0
1, 115619, Note_on_c, 9, 36, 0
1, 115680, Note_on_c, 9, 38, 94
1, 115680, Note_on_c, 9, 54, 95
1, 115680, Note_on_c, 9, 62, 127
1, 115680, Note_on_c, 9, 42, 83
1, 115799, Note_on_c, 9, 38, 0
1, 115799, Note_on_c, 9, 54, 0
1, 115799, Note_on_c, 9, 62, 0
1, 115799, Note_on_c, 9, 42, 0
1, 115815, Note_on_c, 9, 42, 83
1, 115859, Note_on_c, 9, 42, 0
1, 115920, Note_on_c, 9, 54, 46
1, 115920, Note_on_c, 9, 42, 95
1, 115920, Note_on_c, 9, 36, 114
1, 116039, Note_on_c, 9, 54, 0
1, 116039, Note_on_c, 9, 42, 0
1, 116055, Note_on_c, 9, 42, 95
1, 116099, Note_on_c, 9, 42, 0
1, 116159, Note_on_c, 9, 36, 0
1, 116160, Note_on_c, 9, 54, 73
1, 116160, Note_on_c, 9, 42, 87
1, 116160, Note_on_c, 9, 36, 88
1, 116399, Note_on_c, 9, 54, 0
1, 116399, Note_on_c, 9, 42, 0
1, 116399, Note_on_c, 9, 36, 0
1, 116400, Note_on_c, 9, 54, 71
1, 116400, Note_on_c, 9, 42, 87
1, 116400, Note_on_c, 9, 36, 127
1, 116519, Note_on_c, 9, 54, 0
1, 116519, Note_on_c, 9, 42, 0
1, 116535, Note_on_c, 9, 42, 100
1, 116579, Note_on_c, 9, 42, 0
1, 116639, Note_on_c, 9, 36, 0
1, 116640, Note_on_c, 9, 38, 127
1, 116640, Note_on_c, 9, 54, 41
1, 116640, Note_on_c, 9, 62, 127
1, 116640, Note_on_c, 9, 42, 87
1, 116759, Note_on_c, 9, 38, 0
1, 116759, Note_on_c, 9, 54, 0
1, 116759, Note_on_c, 9, 62, 0
1, 116759, Note_on_c, 9, 42, 0
1, 116775, Note_on_c, 9, 42, 100
1, 116819, Note_on_c, 9, 42, 0
1, 116880, Note_on_c, 9, 54, 38
1, 116880, Note_on_c, 9, 46, 110
1, 116880, Note_on_c, 9, 42, 95
1, 116999, Note_on_c, 9, 54, 0
1, 116999, Note_on_c, 9, 46, 0
1, 116999, Note_on_c, 9, 42, 0
1, 117015, Note_on_c, 9, 42, 100
1, 117059, Note_on_c, 9, 42, 0
1, 117120, Note_on_c, 9, 54, 63
1, 117120, Note_on_c, 9, 42, 91
1, 117120, Note_on_c, 9, 36, 127
1, 117359, Note_on_c, 9, 54, 0
1, 117359, Note_on_c, 9, 42, 0
1, 117360, Note_on_c, 9, 54, 71
1, 117360, Note_on_c, 9, 42, 65
1, 117479, Note_on_c, 9, 36, 0
1, 117479, Note_on_c, 9, 54, 0
1, 117479, Note_on_c, 9, 42, 0
1, 117495, Note_on_c, 9, 46, 68
1, 117495, Note_on_c, 9, 44, 28
1, 117495, Note_on_c, 9, 36, 122
1, 117539, Note_on_c, 9, 46, 0
1, 117539, Note_on_c, 9, 44, 0
1, 117539, Note_on_c, 9, 36, 0
1, 117600, Note_on_c, 9, 38, 94
1, 117600, Note_on_c, 9, 54, 95
1, 117600, Note_on_c, 9, 62, 127
1, 117600, Note_on_c, 9, 42, 83
1, 117719, Note_on_c, 9, 38, 0
1, 117719, Note_on_c, 9, 54, 0
1, 117719, Note_on_c, 9, 62, 0
1, 117719, Note_on_c, 9, 42, 0
1, 117735, Note_on_c, 9, 42, 83
1, 117779, Note_on_c, 9, 42, 0
1, 117840, Note_on_c, 9, 54, 46
1, 117840, Note_on_c, 9, 42, 95
1, 117840, Note_on_c, 9, 36, 127
1, 117959, Note_on_c, 9, 54, 0
1, 117959, Note_on_c, 9, 42, 0
1, 117975, Note_on_c, 9, 42, 95
1, 118019, Note_on_c, 9, 42, 0
1, 118079, Note_on_c, 9, 36, 0
1, 118080, Note_on_c, 9, 54, 73
1, 118080, Note_on_c, 9, 42, 87
1, 118080, Note_on_c, 9, 36, 86
1, 118319, Note_on_c, 9, 54, 0
1, 118319, Note_on_c, 9, 42, 0
1, 118319, Note_on_c, 9, 36, 0
1, 118320, Note_on_c, 9, 54, 71
1, 118320, Note_on_c, 9, 42, 87
1, 118320, Note_on_c, 9, 36, 127
1, 118439, Note_on_c, 9, 54, 0
1, 118439, Note_on_c, 9, 42, 0
1, 118455, Note_on_c, 9, 42, 100
1, 118499, Note_on_c, 9, 42, 0
1, 118559, Note_on_c, 9, 36, 0
1, 118560, Note_on_c, 9, 38, 127
1, 118560, Note_on_c, 9, 54, 41
1, 118560, Note_on_c, 9, 62, 127
1, 118560, Note_on_c, 9, 42, 87
1, 118679, Note_on_c, 9, 38, 0
1, 118679, Note_on_c, 9, 54, 0
1, 118679, Note_on_c, 9, 62, 0
1, 118679, Note_on_c, 9, 42, 0
1, 118695, Note_on_c, 9, 42, 100
1, 118739, Note_on_c, 9, 42, 0
1, 118800, Note_on_c, 9, 54, 38
1, 118800, Note_on_c, 9, 46, 110
1, 118800, Note_on_c, 9, 42, 95
1, 118919, Note_on_c, 9, 54, 0
1, 118919, Note_on_c, 9, 46, 0
1, 118919, Note_on_c, 9, 42, 0
1, 118935, Note_on_c, 9, 42, 100
1, 118979, Note_on_c, 9, 42, 0
1, 119040, Note_on_c, 9, 54, 63
1, 119040, Note_on_c, 9, 42, 91
1, 119040, Note_on_c, 9, 52, 104
1, 119040, Note_on_c, 9, 36, 115
1, 119279, Note_on_c, 9, 54, 0
1, 119279, Note_on_c, 9, 42, 0
1, 119279, Note_on_c, 9, 52, 0
1, 119280, Note_on_c, 9, 54, 71
1, 119280, Note_on_c, 9, 42, 65
1, 119399, Note_on_c, 9, 36, 0
1, 119399, Note_on_c, 9, 54, 0
1, 119399, Note_on_c, 9, 42, 0
1, 119415, Note_on_c, 9, 46, 68
1, 119415, Note_on_c, 9, 44, 28
1, 119415, Note_on_c, 9, 36, 113
1, 119459, Note_on_c, 9, 46, 0
1, 119459, Note_on_c, 9, 44, 0
1, 119459, Note_on_c, 9, 36, 0
1, 119520, Note_on_c, 9, 38, 94
1, 119520, Note_on_c, 9, 54, 95
1, 119520, Note_on_c, 9, 62, 127
1, 119520, Note_on_c, 9, 42, 83
1, 119639, Note_on_c, 9, 38, 0
1, 119639, Note_on_c, 9, 54, 0
1, 119639, Note_on_c, 9, 62, 0
1, 119639, Note_on_c, 9, 42, 0
1, 119655, Note_on_c, 9, 42, 83
1, 119699, Note_on_c, 9, 42, 0
1, 119760, Note_on_c, 9, 54, 46
1, 119760, Note_on_c, 9, 42, 95
1, 119760, Note_on_c, 9, 36, 127
1, 119879, Note_on_c, 9, 54, 0
1, 119879, Note_on_c, 9, 42, 0
1, 119895, Note_on_c, 9, 42, 95
1, 119939, Note_on_c, 9, 42, 0
1, 119999, Note_on_c, 9, 36, 0
1, 120000, Note_on_c, 9, 54, 73
1, 120000, Note_on_c, 9, 42, 87
1, 120000, Note_on_c, 9, 36, 79
1, 120239, Note_on_c, 9, 54, 0
1, 120239, Note_on_c, 9, 42, 0
1, 120239, Note_on_c, 9, 36, 0
1, 120240, Note_on_c, 9, 54, 71
1, 120240, Note_on_c, 9, 42, 87
1, 120240, Note_on_c, 9, 36, 127
1, 120359, Note_on_c, 9, 54, 0
1, 120359, Note_on_c, 9, 42, 0
1, 120375, Note_on_c, 9, 42, 100
1, 120419, Note_on_c, 9, 42, 0
1, 120479, Note_on_c, 9, 36, 0
1, 120480, Note_on_c, 9, 38, 127
1, 120480, Note_on_c, 9, 54, 41
1, 120480, Note_on_c, 9, 62, 127
1, 120480, Note_on_c, 9, 42, 87
1, 120599, Note_on_c, 9, 38, 0
1, 120599, Note_on_c, 9, 54, 0
1, 120599, Note_on_c, 9, 62, 0
1, 120599, Note_on_c, 9, 42, 0
1, 120615, Note_on_c, 9, 42, 100
1, 120659, Note_on_c, 9, 42, 0
1, 120720, Note_on_c, 9, 54, 38
1, 120720, Note_on_c, 9, 46, 110
1, 120720, Note_on_c, 9, 42, 95
1, 120839, Note_on_c, 9, 54, 0
1, 120839, Note_on_c, 9, 46, 0
1, 120839, Note_on_c, 9, 42, 0
1, 120855, Note_on_c, 9, 42, 100
1, 120899, Note_on_c, 9, 42, 0
1, 120960, Note_on_c, 9, 54, 63
1, 120960, Note_on_c, 9, 42, 91
1, 120960, Note_on_c, 9, 36, 115
1, 121199, Note_on_c, 9, 54, 0
1, 121199, Note_on_c, 9, 42, 0
1, 121200, Note_on_c, 9, 54, 71
1, 121200, Note_on_c, 9, 42, 65
1, 121319, Note_on_c, 9, 36, 0
1, 121319, Note_on_c, 9, 54, 0
1, 121319, Note_on_c, 9, 42, 0
1, 121335, Note_on_c, 9, 46, 68
1, 121335, Note_on_c, 9, 44, 28
1, 121335, Note_on_c, 9, 36, 122
1, 121379, Note_on_c, 9, 46, 0
1, 121379, Note_on_c, 9, 44, 0
1, 121379, Note_on_c, 9, 36, 0
1, 121440, Note_on_c, 9, 38, 94
1, 121440, Note_on_c, 9, 54, 95
1, 121440, Note_on_c, 9, 62, 127
1, 121440, Note_on_c, 9, 42, 83
1, 121559, Note_on_c, 9, 38, 0
1, 121559, Note_on_c, 9, 54, 0
1, 121559, Note_on_c, 9, 62, 0
1, 121559, Note_on_c, 9, 42, 0
1, 121575, Note_on_c, 9, 42, 83
1, 121619, Note_on_c, 9, 42, 0
1, 121680, Note_on_c, 9, 54, 46
1, 121680, Note_on_c, 9, 42, 95
1, 121680, Note_on_c, 9, 36, 111
1, 121799, Note_on_c, 9, 54, 0
1, 121799, Note_on_c, 9, 42, 0
1, 121815, Note_on_c, 9, 42, 95
1, 121859, Note_on_c, 9, 42, 0
1, 121919, Note_on_c, 9, 36, 0
1, 121920, Note_on_c, 9, 54, 73
1, 121920, Note_on_c, 9, 42, 87
1, 121920, Note_on_c, 9, 36, 97
1, 122159, Note_on_c, 9, 54, 0
1, 122159, Note_on_c, 9, 42, 0
1, 122159, Note_on_c, 9, 36, 0
1, 122160, Note_on_c, 9, 54, 71
1, 122160, Note_on_c, 9, 42, 87
1, 122160, Note_on_c, 9, 35, 92
1, 122160, Note_on_c, 9, 36, 86
1, 122279, Note_on_c, 9, 54, 0
1, 122279, Note_on_c, 9, 42, 0
1, 122295, Note_on_c, 9, 42, 100
1, 122339, Note_on_c, 9, 42, 0
1, 122399, Note_on_c, 9, 35, 0
1, 122399, Note_on_c, 9, 36, 0
1, 122400, Note_on_c, 9, 38, 127
1, 122400, Note_on_c, 9, 54, 41
1, 122400, Note_on_c, 9, 62, 127
1, 122400, Note_on_c, 9, 42, 87
1, 122519, Note_on_c, 9, 38, 0
1, 122519, Note_on_c, 9, 54, 0
1, 122519, Note_on_c, 9, 62, 0
1, 122519, Note_on_c, 9, 42, 0
1, 122535, Note_on_c, 9, 42, 100
1, 122579, Note_on_c, 9, 42, 0
1, 122640, Note_on_c, 9, 54, 38
1, 122640, Note_on_c, 9, 46, 110
1, 122640, Note_on_c, 9, 42, 95
1, 122759, Note_on_c, 9, 54, 0
1, 122759, Note_on_c, 9, 46, 0
1, 122759, Note_on_c, 9, 42, 0
1, 122775, Note_on_c, 9, 42, 100
1, 122819, Note_on_c, 9, 42, 0
1, 122880, Note_on_c, 9, 54, 63
1, 122880, Note_on_c, 9, 42, 91
1, 122880, Note_on_c, 9, 36, 127
1, 123119, Note_on_c, 9, 54, 0
1, 123119, Note_on_c, 9, 42, 0
1, 123120, Note_on_c, 9, 54, 71
1, 123120, Note_on_c, 9, 42, 65
1, 123239, Note_on_c, 9, 36, 0
1, 123239, Note_on_c, 9, 54, 0
1, 123239, Note_on_c, 9, 42, 0
1, 123255, Note_on_c, 9, 46, 68
1, 123255, Note_on_c, 9, 44, 28
1, 123255, Note_on_c, 9, 36, 122
1, 123299, Note_on_c, 9, 46, 0
1, 123299, Note_on_c, 9, 44, 0
1, 123299, Note_on_c, 9, 36, 0
1, 123360, Note_on_c, 9, 38, 94
1, 123360, Note_on_c, 9, 54, 95
1, 123360, Note_on_c, 9, 62, 127
1, 123360, Note_on_c, 9, 42, 83
1, 123479, Note_on_c, 9, 38, 0
1, 123479, Note_on_c, 9, 54, 0
1, 123479, Note_on_c, 9, 62, 0
1, 123479, Note_on_c, 9, 42, 0
1, 123495, Note_on_c, 9, 42, 83
1, 123539, Note_on_c, 9, 42, 0
1, 123600, Note_on_c, 9, 54, 46
1, 123600, Note_on_c, 9, 42, 95
1, 123600, Note_on_c, 9, 36, 127
1, 123719, Note_on_c, 9, 54, 0
1, 123719, Note_on_c, 9, 42, 0
1, 123735, Note_on_c, 9, 42, 95
1, 123779, Note_on_c, 9, 42, 0
1, 123839, Note_on_c, 9, 36, 0
1, 123840, Note_on_c, 9, 54, 73
1, 123840, Note_on_c, 9, 42, 87
1, 123840, Note_on_c, 9, 36, 88
1, 124079, Note_on_c, 9, 54, 0
1, 124079, Note_on_c, 9, 42, 0
1, 124079, Note_on_c, 9, 36, 0
1, 124080, Note_on_c, 9, 54, 71
1, 124080, Note_on_c, 9, 42, 87
1, 124080, Note_on_c, 9, 36, 127
1, 124199, Note_on_c, 9, 54, 0
1, 124199, Note_on_c, 9, 42, 0
1, 124215, Note_on_c, 9, 42, 100
1, 124259, Note_on_c, 9, 42, 0
1, 124319, Note_on_c, 9, 36, 0
1, 124320, Note_on_c, 9, 38, 127
1, 124320, Note_on_c, 9, 54, 41
1, 124320, Note_on_c, 9, 62, 127
1, 124320, Note_on_c, 9, 42, 87
1, 124439, Note_on_c, 9, 38, 0
1, 124439, Note_on_c, 9, 54, 0
1, 124439, Note_on_c, 9, 62, 0
1, 124439, Note_on_c, 9, 42, 0
1, 124455, Note_on_c, 9, 42, 100
1, 124499, Note_on_c, 9, 42, 0
1, 124560, Note_on_c, 9, 54, 38
1, 124560, Note_on_c, 9, 46, 110
1, 124560, Note_on_c, 9, 42, 95
1, 124679, Note_on_c, 9, 54, 0
1, 124679, Note_on_c, 9, 46, 0
1, 124679, Note_on_c, 9, 42, 0
1, 124695, Note_on_c, 9, 42, 100
1, 124739, Note_on_c, 9, 42, 0
1, 124800, Note_on_c, 9, 54, 63
1, 124800, Note_on_c, 9, 42, 91
1, 124800, Note_on_c, 9, 36, 127
1, 125039, Note_on_c, 9, 54, 0
1, 125039, Note_on_c, 9, 42, 0
1, 125040, Note_on_c, 9, 54, 71
1, 125040, Note_on_c, 9, 42, 65
1, 125159, Note_on_c, 9, 36, 0
1, 125159, Note_on_c, 9, 54, 0
1, 125159, Note_on_c, 9, 42, 0
1, 125175, Note_on_c, 9, 46, 68
1, 125175, Note_on_c, 9, 44, 28
1, 125175, Note_on_c, 9, 36, 122
1, 125219, Note_on_c, 9, 46, 0
1, 125219, Note_on_c, 9, 44, 0
1, 125219, Note_on_c, 9, 36, 0
1, 125280, Note_on_c, 9, 38, 94
1, 125280, Note_on_c, 9, 54, 95
1, 125280, Note_on_c, 9, 62, 127
1, 125280, Note_on_c, 9, 42, 83
1, 125399, Note_on_c, 9, 38, 0
1, 125399, Note_on_c, 9, 54, 0
1, 125399, Note_on_c, 9, 62, 0
1, 125399, Note_on_c, 9, 42, 0
1, 125415, Note_on_c, 9, 42, 83
1, 125459, Note_on_c, 9, 42, 0
1, 125520, Note_on_c, 9, 54, 46
1, 125520, Note_on_c, 9, 42, 95
1, 125520, Note_on_c, 9, 36, 127
1, 125639, Note_on_c, 9, 54, 0
1, 125639, Note_on_c, 9, 42, 0
1, 125655, Note_on_c, 9, 42, 95
1, 125699, Note_on_c, 9, 42, 0
1, 125759, Note_on_c, 9, 36, 0
1, 125760, Note_on_c, 9, 54, 73
1, 125760, Note_on_c, 9, 42, 87
1, 125760, Note_on_c, 9, 36, 94
1, 125999, Note_on_c, 9, 54, 0
1, 125999, Note_on_c, 9, 42, 0
1, 125999, Note_on_c, 9, 36, 0
1, 126000, Note_on_c, 9, 54, 71
1, 126000, Note_on_c, 9, 42, 87
1, 126000, Note_on_c, 9, 36, 127
1, 126119, Note_on_c, 9, 54, 0
1, 126119, Note_on_c, 9, 42, 0
1, 126135, Note_on_c, 9, 42, 100
1, 126179, Note_on_c, 9, 42, 0
1, 126239, Note_on_c, 9, 36, 0
1, 126240, Note_on_c, 9, 38, 127
1, 126240, Note_on_c, 9, 54, 41
1, 126240, Note_on_c, 9, 62, 127
1, 126240, Note_on_c, 9, 42, 87
1, 126359, Note_on_c, 9, 38, 0
1, 126359, Note_on_c, 9, 54, 0
1, 126359, Note_on_c, 9, 62, 0
1, 126359, Note_on_c, 9, 42, 0
1, 126375, Note_on_c, 9, 42, 100
1, 126419, Note_on_c, 9, 42, 0
1, 126480, Note_on_c, 9, 54, 38
1, 126480, Note_on_c, 9, 46, 110
1, 126480, Note_on_c, 9, 42, 95
1, 126599, Note_on_c, 9, 54, 0
1, 126599, Note_on_c, 9, 46, 0
1, 126599, Note_on_c, 9, 42, 0
1, 126615, Note_on_c, 9, 42, 100
1, 126659, Note_on_c, 9, 42, 0
1, 126720, Note_on_c, 9, 54, 63
1, 126720, Note_on_c, 9, 42, 91
1, 126720, Note_on_c, 9, 36, 127
1, 126959, Note_on_c, 9, 54, 0
1, 126959, Note_on_c, 9, 42, 0
1, 126960, Note_on_c, 9, 54, 71
1, 126960, Note_on_c, 9, 42, 65
1, 127079, Note_on_c, 9, 36, 0
1, 127079, Note_on_c, 9, 54, 0
1, 127079, Note_on_c, 9, 42, 0
1, 127095, Note_on_c, 9, 46, 68
1, 127095, Note_on_c, 9, 44, 28
1, 127095, Note_on_c, 9, 36, 122
1, 127139, Note_on_c, 9, 46, 0
1, 127139, Note_on_c, 9, 44, 0
1, 127139, Note_on_c, 9, 36, 0
1, 127200, Note_on_c, 9, 38, 94
1, 127200, Note_on_c, 9, 54, 95
1, 127200, Note_on_c, 9, 62, 127
1, 127200, Note_on_c, 9, 42, 83
1, 127319, Note_on_c, 9, 38, 0
1, 127319, Note_on_c, 9, 54, 0
1, 127319, Note_on_c, 9, 62, 0
1, 127319, Note_on_c, 9, 42, 0
1, 127335, Note_on_c, 9, 42, 83
1, 127379, Note_on_c, 9, 42, 0
1, 127440, Note_on_c, 9, 54, 46
1, 127440, Note_on_c, 9, 42, 95
1, 127440, Note_on_c, 9, 36, 127
1, 127559, Note_on_c, 9, 54, 0
1, 127559, Note_on_c, 9, 42, 0
1, 127575, Note_on_c, 9, 42, 95
1, 127619, Note_on_c, 9, 42, 0
1, 127679, Note_on_c, 9, 36, 0
1, 127680, Note_on_c, 9, 54, 73
1, 127680, Note_on_c, 9, 42, 87
1, 127680, Note_on_c, 9, 36, 94
1, 127919, Note_on_c, 9, 54, 0
1, 127919, Note_on_c, 9, 42, 0
1, 127919, Note_on_c, 9, 36, 0
1, 127920, Note_on_c, 9, 54, 71
1, 127920, Note_on_c, 9, 42, 87
1, 127920, Note_on_c, 9, 36, 127
1, 128039, Note_on_c, 9, 54, 0
1, 128039, Note_on_c, 9, 42, 0
1, 128055, Note_on_c, 9, 42, 100
1, 128099, Note_on_c, 9, 42, 0
1, 128159, Note_on_c, 9, 36, 0
1, 128160, Note_on_c, 9, 38, 127
1, 128160, Note_on_c, 9, 54, 41
1, 128160, Note_on_c, 9, 62, 127
1, 128160, Note_on_c, 9, 42, 87
1, 128279, Note_on_c, 9, 38, 0
1, 128279, Note_on_c, 9, 54, 0
1, 128279, Note_on_c, 9, 62, 0
1, 128279, Note_on_c, 9, 42, 0
1, 128295, Note_on_c, 9, 42, 100
1, 128339, Note_on_c, 9, 42, 0
1, 128400, Note_on_c, 9, 54, 38
1, 128400, Note_on_c, 9, 46, 110
1, 128400, Note_on_c, 9, 42, 95
1, 128519, Note_on_c, 9, 54, 0
1, 128519, Note_on_c, 9, 46, 0
1, 128519, Note_on_c, 9, 42, 0
1, 128535, Note_on_c, 9, 42, 100
1, 128579, Note_on_c, 9, 42, 0
1, 128640, Note_on_c, 9, 54, 63
1, 128640, Note_on_c, 9, 42, 91
1, 128640, Note_on_c, 9, 36, 127
1, 128879, Note_on_c, 9, 54, 0
1, 128879, Note_on_c, 9, 42, 0
1, 128880, Note_on_c, 9, 54, 71
1, 128880, Note_on_c, 9, 42, 65
1, 128999, Note_on_c, 9, 36, 0
1, 128999, Note_on_c, 9, 54, 0
1, 128999, Note_on_c, 9, 42, 0
1, 129015, Note_on_c, 9, 46, 68
1, 129015, Note_on_c, 9, 44, 28
1, 129015, Note_on_c, 9, 36, 122
1, 129059, Note_on_c, 9, 46, 0
1, 129059, Note_on_c, 9, 44, 0
1, 129059, Note_on_c, 9, 36, 0
1, 129120, Note_on_c, 9, 38, 94
1, 129120, Note_on_c, 9, 54, 95
1, 129120, Note_on_c, 9, 62, 127
1, 129120, Note_on_c, 9, 42, 83
1, 129239, Note_on_c, 9, 38, 0
1, 129239, Note_on_c, 9, 54, 0
1, 129239, Note_on_c, 9, 62, 0
1, 129239, Note_on_c, 9, 42, 0
1, 129255, Note_on_c, 9, 42, 83
1, 129299, Note_on_c, 9, 42, 0
1, 129360, Note_on_c, 9, 54, 46
1, 129360, Note_on_c, 9, 42, 95
1, 129360, Note_on_c, 9, 36, 127
1, 129479, Note_on_c, 9, 54, 0
1, 129479, Note_on_c, 9, 42, 0
1, 129495, Note_on_c, 9, 42, 95
1, 129539, Note_on_c, 9, 42, 0
1, 129599, Note_on_c, 9, 36, 0
1, 129600, Note_on_c, 9, 54, 73
1, 129600, Note_on_c, 9, 42, 87
1, 129600, Note_on_c, 9, 36, 91
1, 129839, Note_on_c, 9, 54, 0
1, 129839, Note_on_c, 9, 42, 0
1, 129839, Note_on_c, 9, 36, 0
1, 129840, Note_on_c, 9, 54, 71
1, 129840, Note_on_c, 9, 42, 87
1, 129840, Note_on_c, 9, 36, 127
1, 129959, Note_on_c, 9, 54, 0
1, 129959, Note_on_c, 9, 42, 0
1, 129975, Note_on_c, 9, 42, 100
1, 130019, Note_on_c, 9, 42, 0
1, 130079, Note_on_c, 9, 36, 0
1, 130080, Note_on_c, 9, 38, 127
1, 130080, Note_on_c, 9, 54, 41
1, 130080, Note_on_c, 9, 62, 127
1, 130080, Note_on_c, 9, 42, 87
1, 130199, Note_on_c, 9, 38, 0
1, 130199, Note_on_c, 9, 54, 0
1, 130199, Note_on_c, 9, 62, 0
1, 130199, Note_on_c, 9, 42, 0
1, 130215, Note_on_c, 9, 42, 100
1, 130259, Note_on_c, 9, 42, 0
1, 130320, Note_on_c, 9, 54, 38
1, 130320, Note_on_c, 9, 46, 110
1, 130320, Note_on_c, 9, 42, 95
1, 130439, Note_on_c, 9, 54, 0
1, 130439, Note_on_c, 9, 46, 0
1, 130439, Note_on_c, 9, 42, 0
1, 130455, Note_on_c, 9, 42, 100
1, 130499, Note_on_c, 9, 42, 0
1, 130560, Note_on_c, 9, 54, 63
1, 130560, Note_on_c, 9, 42, 91
1, 130560, Note_on_c, 9, 36, 127
1, 130799, Note_on_c, 9, 54, 0
1, 130799, Note_on_c, 9, 42, 0
1, 130800, Note_on_c, 9, 54, 71
1, 130800, Note_on_c, 9, 42, 65
1, 130919, Note_on_c, 9, 36, 0
1, 130919, Note_on_c, 9, 54, 0
1, 130919, Note_on_c, 9, 42, 0
1, 130935, Note_on_c, 9, 46, 68
1, 130935, Note_on_c, 9, 44, 28
1, 130935, Note_on_c, 9, 36, 122
1, 130979, Note_on_c, 9, 46, 0
1, 130979, Note_on_c, 9, 44, 0
1, 130979, Note_on_c, 9, 36, 0
1, 131040, Note_on_c, 9, 38, 94
1, 131040, Note_on_c, 9, 54, 95
1, 131040, Note_on_c, 9, 62, 127
1, 131040, Note_on_c, 9, 42, 83
1, 131159, Note_on_c, 9, 38, 0
1, 131159, Note_on_c, 9, 54, 0
1, 131159, Note_on_c, 9, 62, 0
1, 131159, Note_on_c, 9, 42, 0
1, 131175, Note_on_c, 9, 42, 83
1, 131219, Note_on_c, 9, 42, 0
1, 131280, Note_on_c, 9, 54, 46
1, 131280, Note_on_c, 9, 42, 95
1, 131280, Note_on_c, 9, 36, 127
1, 131399, Note_on_c, 9, 54, 0
1, 131399, Note_on_c, 9, 42, 0
1, 131415, Note_on_c, 9, 42, 95
1, 131459, Note_on_c, 9, 42, 0
1, 131519, Note_on_c, 9, 36, 0
1, 131520, Note_on_c, 9, 54, 73
1, 131520, Note_on_c, 9, 42, 87
1, 131759, Note_on_c, 9, 54, 0
1, 131759, Note_on_c, 9, 42, 0
1, 131760, Note_on_c, 9, 54, 71
1, 131760, Note_on_c, 9, 42, 87
1, 131760, Note_on_c, 9, 36, 127
1, 131879, Note_on_c, 9, 54, 0
1, 131879, Note_on_c, 9, 42, 0
1, 131895, Note_on_c, 9, 42, 100
1, 131939, Note_on_c, 9, 42, 0
1, 131999, Note_on_c, 9, 36, 0
1, 132000, Note_on_c, 9, 38, 127
1, 132000, Note_on_c, 9, 54, 41
1, 132000, Note_on_c, 9, 62, 127
1, 132000, Note_on_c, 9, 42, 87
1, 132119, Note_on_c, 9, 38, 0
1, 132119, Note_on_c, 9, 54, 0
1, 132119, Note_on_c, 9, 62, 0
1, 132119, Note_on_c, 9, 42, 0
1, 132135, Note_on_c, 9, 42, 100
1, 132179, Note_on_c, 9, 42, 0
1, 132240, Note_on_c, 9, 54, 38
1, 132240, Note_on_c, 9, 46, 110
1, 132240, Note_on_c, 9, 42, 95
1, 132359, Note_on_c, 9, 54, 0
1, 132359, Note_on_c, 9, 46, 0
1, 132359, Note_on_c, 9, 42, 0
1, 132375, Note_on_c, 9, 42, 100
1, 132419, Note_on_c, 9, 42, 0
1, 132480, Note_on_c, 9, 54, 63
1, 132480, Note_on_c, 9, 42, 91
1, 132480, Note_on_c, 9, 36, 127
1, 132719, Note_on_c, 9, 54, 0
1, 132719, Note_on_c, 9, 42, 0
1, 132720, Note_on_c, 9, 54, 71
1, 132720, Note_on_c, 9, 42, 65
1, 132839, Note_on_c, 9, 36, 0
1, 132839, Note_on_c, 9, 54, 0
1, 132839, Note_on_c, 9, 42, 0
1, 132855, Note_on_c, 9, 46, 68
1, 132855, Note_on_c, 9, 44, 28
1, 132855, Note_on_c, 9, 36, 122
1, 132899, Note_on_c, 9, 46, 0
1, 132899, Note_on_c, 9, 44, 0
1, 132899, Note_on_c, 9, 36, 0
1, 132960, Note_on_c, 9, 38, 94
1, 132960, Note_on_c, 9, 54, 95
1, 132960, Note_on_c, 9, 62, 127
1, 132960, Note_on_c, 9, 42, 83
1, 133079, Note_on_c, 9, 38, 0
1, 133079, Note_on_c, 9, 54, 0
1, 133079, Note_on_c, 9, 62, 0
1, 133079, Note_on_c, 9, 42, 0
1, 133095, Note_on_c, 9, 42, 83
1, 133139, Note_on_c, 9, 42, 0
1, 133200, Note_on_c, 9, 54, 46
1, 133200, Note_on_c, 9, 42, 95
1, 133200, Note_on_c, 9, 36, 127
1, 133319, Note_on_c, 9, 54, 0
1, 133319, Note_on_c, 9, 42, 0
1, 133335, Note_on_c, 9, 42, 95
1, 133379, Note_on_c, 9, 42, 0
1, 133439, Note_on_c, 9, 36, 0
1, 133440, Note_on_c, 9, 54, 73
1, 133440, Note_on_c, 9, 42, 87
1, 133440, Note_on_c, 9, 36, 79
1, 133679, Note_on_c, 9, 54, 0
1, 133679, Note_on_c, 9, 42, 0
1, 133679, Note_on_c, 9, 36, 0
1, 133680, Note_on_c, 9, 54, 71
1, 133680, Note_on_c, 9, 42, 87
1, 133680, Note_on_c, 9, 36, 127
1, 133799, Note_on_c, 9, 54, 0
1, 133799, Note_on_c, 9, 42, 0
1, 133815, Note_on_c, 9, 42, 100
1, 133859, Note_on_c, 9, 42, 0
1, 133919, Note_on_c, 9, 36, 0
1, 133920, Note_on_c, 9, 38, 127
1, 133920, Note_on_c, 9, 54, 41
1, 133920, Note_on_c, 9, 62, 127
1, 133920, Note_on_c, 9, 42, 87
1, 134039, Note_on_c, 9, 38, 0
1, 134039, Note_on_c, 9, 54, 0
1, 134039, Note_on_c, 9, 62, 0
1, 134039, Note_on_c, 9, 42, 0
1, 134055, Note_on_c, 9, 42, 100
1, 134099, Note_on_c, 9, 42, 0
1, 134160, Note_on_c, 9, 54, 38
1, 134160, Note_on_c, 9, 46, 110
1, 134160, Note_on_c, 9, 42, 95
1, 134279, Note_on_c, 9, 54, 0
1, 134279, Note_on_c, 9, 46, 0
1, 134279, Note_on_c, 9, 42, 0
1, 134295, Note_on_c, 9, 42, 100
1, 134339, Note_on_c, 9, 42, 0
1, 134400, Note_on_c, 9, 54, 63
1, 134400, Note_on_c, 9, 42, 91
1, 134400, Note_on_c, 9, 36, 127
1, 134519, Note_on_c, 9, 54, 0
1, 134519, Note_on_c, 9, 42, 0
1, 134540, Note_on_c, 9, 40, 83
1, 134579, Note_on_c, 9, 40, 0
1, 134625, Note_on_c, 9, 40, 83
1, 134640, Note_on_c, 9, 54, 71
1, 134640, Note_on_c, 9, 42, 65
1, 134759, Note_on_c, 9, 36, 0
1, 134759, Note_on_c, 9, 40, 0
1, 134759, Note_on_c, 9, 54, 0
1, 134759, Note_on_c, 9, 42, 0
1, 134775, Note_on_c, 9, 46, 68
1, 134775, Note_on_c, 9, 44, 28
1, 134775, Note_on_c, 9, 36, 122
1, 134819, Note_on_c, 9, 46, 0
1, 134819, Note_on_c, 9, 44, 0
1, 134819, Note_on_c, 9, 36, 0
1, 134880, Note_on_c, 9, 38, 94
1, 134880, Note_on_c, 9, 54, 95
1, 134880, Note_on_c, 9, 62, 127
1, 134880, Note_on_c, 9, 42, 83
1, 134999, Note_on_c, 9, 38, 0
1, 134999, Note_on_c, 9, 54, 0
1, 134999, Note_on_c, 9, 62, 0
1, 134999, Note_on_c, 9, 42, 0
1, 135015, Note_on_c, 9, 42, 83
1, 135030, Note_on_c, 9, 43, 83
1, 135059, Note_on_c, 9, 42, 0
1, 135119, Note_on_c, 9, 43, 0
1, 135120, Note_on_c, 9, 54, 46
1, 135120, Note_on_c, 9, 42, 95
1, 135120, Note_on_c, 9, 36, 127
1, 135120, Note_on_c, 9, 43, 83
1, 135239, Note_on_c, 9, 54, 0
1, 135239, Note_on_c, 9, 42, 0
1, 135255, Note_on_c, 9, 42, 95
1, 135269, Note_on_c, 9, 42, 0
1, 135270, Note_on_c, 9, 48, 81
1, 135329, Note_on_c, 9, 48, 0
1, 135345, Note_on_c, 9, 48, 81
1, 135359, Note_on_c, 9, 36, 0
1, 135359, Note_on_c, 9, 43, 0
1, 135360, Note_on_c, 9, 54, 73
1, 135360, Note_on_c, 9, 42, 87
1, 135584, Note_on_c, 9, 48, 0
1, 135584, Note_on_c, 9, 54, 0
1, 135584, Note_on_c, 9, 42, 0
1, 135585, Note_on_c, 9, 47, 81
1, 135600, Note_on_c, 9, 54, 71
1, 135600, Note_on_c, 9, 42, 87
1, 135600, Note_on_c, 9, 36, 127
1, 135719, Note_on_c, 9, 47, 0
1, 135719, Note_on_c, 9, 54, 0
1, 135719, Note_on_c, 9, 42, 0
1, 135735, Note_on_c, 9, 42, 100
1, 135779, Note_on_c, 9, 42, 0
1, 135839, Note_on_c, 9, 36, 0
1, 135840, Note_on_c, 9, 38, 127
1, 135840, Note_on_c, 9, 45, 81
1, 135840, Note_on_c, 9, 54, 41
1, 135840, Note_on_c, 9, 62, 127
1, 135840, Note_on_c, 9, 42, 87
1, 135959, Note_on_c, 9, 38, 0
1, 135959, Note_on_c, 9, 45, 0
1, 135959, Note_on_c, 9, 54, 0
1, 135959, Note_on_c, 9, 62, 0
1, 135959, Note_on_c, 9, 42, 0
1, 135975, Note_on_c, 9, 42, 100
1, 135989, Note_on_c, 9, 42, 0
1, 135990, Note_on_c, 9, 45, 81
1, 136079, Note_on_c, 9, 45, 0
1, 136080, Note_on_c, 9, 54, 38
1, 136080, Note_on_c, 9, 46, 110
1, 136080, Note_on_c, 9, 42, 95
1, 136080, Note_on_c, 9, 43, 81
1, 136199, Note_on_c, 9, 54, 0
1, 136199, Note_on_c, 9, 46, 0
1, 136199, Note_on_c, 9, 42, 0
1, 136215, Note_on_c, 9, 42, 100
1, 136259, Note_on_c, 9, 42, 0
1, 136319, Note_on_c, 9, 43, 0
1, 136320, Note_on_c, 9, 54, 63
1, 136320, Note_on_c, 9, 42, 91
1, 136320, Note_on_c, 9, 52, 104
1, 136320, Note_on_c, 9, 36, 127
1, 136559, Note_on_c, 9, 54, 0
1, 136559, Note_on_c, 9, 42, 0
1, 136559, Note_on_c, 9, 52, 0
1, 136560, Note_on_c, 9, 54, 71
1, 136560, Note_on_c, 9, 42, 65
1, 136679, Note_on_c, 9, 36, 0
1, 136679, Note_on_c, 9, 54, 0
1, 136679, Note_on_c, 9, 42, 0
1, 136695, Note_on_c, 9, 46, 68
1, 136695, Note_on_c, 9, 44, 28
1, 136695, Note_on_c, 9, 36, 122
1, 136739, Note_on_c, 9, 46, 0
1, 136739, Note_on_c, 9, 44, 0
1, 136739, Note_on_c, 9, 36, 0
1, 136800, Note_on_c, 9, 38, 94
1, 136800, Note_on_c, 9, 54, 95
1, 136800, Note_on_c, 9, 62, 127
1, 136800, Note_on_c, 9, 42, 83
1, 136919, Note_on_c, 9, 38, 0
1, 136919, Note_on_c, 9, 54, 0
1, 136919, Note_on_c, 9, 62, 0
1, 136919, Note_on_c, 9, 42, 0
1, 136935, Note_on_c, 9, 42, 83
1, 136979, Note_on_c, 9, 42, 0
1, 137040, Note_on_c, 9, 54, 46
1, 137040, Note_on_c, 9, 42, 95
1, 137040, Note_on_c, 9, 36, 127
1, 137159, Note_on_c, 9, 54, 0
1, 137159, Note_on_c, 9, 42, 0
1, 137175, Note_on_c, 9, 42, 95
1, 137219, Note_on_c, 9, 42, 0
1, 137279, Note_on_c, 9, 36, 0
1, 137280, Note_on_c, 9, 54, 73
1, 137280, Note_on_c, 9, 42, 87
1, 137280, Note_on_c, 9, 36, 79
1, 137519, Note_on_c, 9, 54, 0
1, 137519, Note_on_c, 9, 42, 0
1, 137519, Note_on_c, 9, 36, 0
1, 137520, Note_on_c, 9, 54, 71
1, 137520, Note_on_c, 9, 42, 87
1, 137520, Note_on_c, 9, 36, 127
1, 137639, Note_on_c, 9, 54, 0
1, 137639, Note_on_c, 9, 42, 0
1, 137655, Note_on_c, 9, 42, 100
1, 137699, Note_on_c, 9, 42, 0
1, 137759, Note_on_c, 9, 36, 0
1, 137760, Note_on_c, 9, 38, 127
1, 137760, Note_on_c, 9, 54, 41
1, 137760, Note_on_c, 9, 62, 127
1, 137760, Note_on_c, 9, 42, 87
1, 137879, Note_on_c, 9, 38, 0
1, 137879, Note_on_c, 9, 54, 0
1, 137879, Note_on_c, 9, 62, 0
1, 137879, Note_on_c, 9, 42, 0
1, 137895, Note_on_c, 9, 42, 100
1, 137939, Note_on_c, 9, 42, 0
1, 138000, Note_on_c, 9, 54, 38
1, 138000, Note_on_c, 9, 46, 110
1, 138000, Note_on_c, 9, 42, 95
1, 138119, Note_on_c, 9, 54, 0
1, 138119, Note_on_c, 9, 46, 0
1, 138119, Note_on_c, 9, 42, 0
1, 138135, Note_on_c, 9, 42, 100
1, 138179, Note_on_c, 9, 42, 0
1, 138240, Note_on_c, 9, 54, 63
1, 138240, Note_on_c, 9, 42, 91
1, 138240, Note_on_c, 9, 36, 127
1, 138479, Note_on_c, 9, 54, 0
1, 138479, Note_on_c, 9, 42, 0
1, 138480, Note_on_c, 9, 54, 71
1, 138480, Note_on_c, 9, 42, 65
1, 138599, Note_on_c, 9, 36, 0
1, 138599, Note_on_c, 9, 54, 0
1, 138599, Note_on_c, 9, 42, 0
1, 138615, Note_on_c, 9, 46, 68
1, 138615, Note_on_c, 9, 44, 28
1, 138615, Note_on_c, 9, 36, 122
1, 138659, Note_on_c, 9, 46, 0
1, 138659, Note_on_c, 9, 44, 0
1, 138659, Note_on_c, 9, 36, 0
1, 138720, Note_on_c, 9, 38, 94
1, 138720, Note_on_c, 9, 54, 95
1, 138720, Note_on_c, 9, 62, 127
1, 138720, Note_on_c, 9, 42, 83
1, 138839, Note_on_c, 9, 38, 0
1, 138839, Note_on_c, 9, 54, 0
1, 138839, Note_on_c, 9, 62, 0
1, 138839, Note_on_c, 9, 42, 0
1, 138855, Note_on_c, 9, 42, 83
1, 138899, Note_on_c, 9, 42, 0
1, 138960, Note_on_c, 9, 54, 46
1, 138960, Note_on_c, 9, 42, 95
1, 138960, Note_on_c, 9, 36, 127
1, 139079, Note_on_c, 9, 54, 0
1, 139079, Note_on_c, 9, 42, 0
1, 139095, Note_on_c, 9, 42, 95
1, 139139, Note_on_c, 9, 42, 0
1, 139199, Note_on_c, 9, 36, 0
1, 139200, Note_on_c, 9, 54, 73
1, 139200, Note_on_c, 9, 42, 87
1, 139200, Note_on_c, 9, 36, 97
1, 139439, Note_on_c, 9, 54, 0
1, 139439, Note_on_c, 9, 42, 0
1, 139439, Note_on_c, 9, 36, 0
1, 139440, Note_on_c, 9, 54, 71
1, 139440, Note_on_c, 9, 42, 87
1, 139440, Note_on_c, 9, 36, 127
1, 139559, Note_on_c, 9, 54, 0
1, 139559, Note_on_c, 9, 42, 0
1, 139575, Note_on_c, 9, 42, 100
1, 139619, Note_on_c, 9, 42, 0
1, 139679, Note_on_c, 9, 36, 0
1, 139680, Note_on_c, 9, 38, 127
1, 139680, Note_on_c, 9, 54, 41
1, 139680, Note_on_c, 9, 62, 127
1, 139680, Note_on_c, 9, 42, 87
1, 139799, Note_on_c, 9, 38, 0
1, 139799, Note_on_c, 9, 54, 0
1, 139799, Note_on_c, 9, 62, 0
1, 139799, Note_on_c, 9, 42, 0
1, 139815, Note_on_c, 9, 42, 100
1, 139859, Note_on_c, 9, 42, 0
1, 139920, Note_on_c, 9, 54, 38
1, 139920, Note_on_c, 9, 46, 110
1, 139920, Note_on_c, 9, 42, 95
1, 140039, Note_on_c, 9, 54, 0
1, 140039, Note_on_c, 9, 46, 0
1, 140039, Note_on_c, 9, 42, 0
1, 140055, Note_on_c, 9, 42, 100
1, 140099, Note_on_c, 9, 42, 0
1, 140160, Note_on_c, 9, 54, 63
1, 140160, Note_on_c, 9, 42, 91
1, 140160, Note_on_c, 9, 36, 127
1, 140399, Note_on_c, 9, 54, 0
1, 140399, Note_on_c, 9, 42, 0
1, 140400, Note_on_c, 9, 54, 71
1, 140400, Note_on_c, 9, 42, 65
1, 140519, Note_on_c, 9, 36, 0
1, 140519, Note_on_c, 9, 54, 0
1, 140519, Note_on_c, 9, 42, 0
1, 140535, Note_on_c, 9, 46, 68
1, 140535, Note_on_c, 9, 44, 28
1, 140535, Note_on_c, 9, 36, 122
1, 140579, Note_on_c, 9, 46, 0
1, 140579, Note_on_c, 9, 44, 0
1, 140579, Note_on_c, 9, 36, 0
1, 140640, Note_on_c, 9, 38, 94
1, 140640, Note_on_c, 9, 54, 95
1, 140640, Note_on_c, 9, 62, 127
1, 140640, Note_on_c, 9, 42, 83
1, 140759, Note_on_c, 9, 38, 0
1, 140759, Note_on_c, 9, 54, 0
1, 140759, Note_on_c, 9, 62, 0
1, 140759, Note_on_c, 9, 42, 0
1, 140775, Note_on_c, 9, 42, 83
1, 140819, Note_on_c, 9, 42, 0
1, 140880, Note_on_c, 9, 54, 46
1, 140880, Note_on_c, 9, 42, 95
1, 140880, Note_on_c, 9, 36, 127
1, 140999, Note_on_c, 9, 54, 0
1, 140999, Note_on_c, 9, 42, 0
1, 141015, Note_on_c, 9, 42, 95
1, 141059, Note_on_c, 9, 42, 0
1, 141119, Note_on_c, 9, 36, 0
1, 141120, Note_on_c, 9, 54, 73
1, 141120, Note_on_c, 9, 42, 87
1, 141120, Note_on_c, 9, 36, 88
1, 141359, Note_on_c, 9, 54, 0
1, 141359, Note_on_c, 9, 42, 0
1, 141359, Note_on_c, 9, 36, 0
1, 141360, Note_on_c, 9, 54, 71
1, 141360, Note_on_c, 9, 42, 87
1, 141360, Note_on_c, 9, 36, 127
1, 141479, Note_on_c, 9, 54, 0
1, 141479, Note_on_c, 9, 42, 0
1, 141495, Note_on_c, 9, 42, 100
1, 141539, Note_on_c, 9, 42, 0
1, 141599, Note_on_c, 9, 36, 0
1, 141600, Note_on_c, 9, 38, 127
1, 141600, Note_on_c, 9, 54, 41
1, 141600, Note_on_c, 9, 62, 127
1, 141600, Note_on_c, 9, 42, 87
1, 141719, Note_on_c, 9, 38, 0
1, 141719, Note_on_c, 9, 54, 0
1, 141719, Note_on_c, 9, 62, 0
1, 141719, Note_on_c, 9, 42, 0
1, 141735, Note_on_c, 9, 42, 100
1, 141779, Note_on_c, 9, 42, 0
1, 141840, Note_on_c, 9, 54, 38
1, 141840, Note_on_c, 9, 46, 110
1, 141840, Note_on_c, 9, 42, 95
1, 141959, Note_on_c, 9, 54, 0
1, 141959, Note_on_c, 9, 46, 0
1, 141959, Note_on_c, 9, 42, 0
1, 141975, Note_on_c, 9, 42, 100
1, 142019, Note_on_c, 9, 42, 0
1, 142080, Note_on_c, 9, 54, 63
1, 142080, Note_on_c, 9, 42, 91
1, 142080, Note_on_c, 9, 36, 127
1, 142319, Note_on_c, 9, 54, 0
1, 142319, Note_on_c, 9, 42, 0
1, 142320, Note_on_c, 9, 54, 71
1, 142320, Note_on_c, 9, 42, 65
1, 142439, Note_on_c, 9, 36, 0
1, 142439, Note_on_c, 9, 54, 0
1, 142439, Note_on_c, 9, 42, 0
1, 142455, Note_on_c, 9, 46, 68
1, 142455, Note_on_c, 9, 44, 28
1, 142455, Note_on_c, 9, 36, 122
1, 142499, Note_on_c, 9, 46, 0
1, 142499, Note_on_c, 9, 44, 0
1, 142499, Note_on_c, 9, 36, 0
1, 142560, Note_on_c, 9, 38, 94
1, 142560, Note_on_c, 9, 54, 95
1, 142560, Note_on_c, 9, 62, 127
1, 142560, Note_on_c, 9, 42, 83
1, 142679, Note_on_c, 9, 38, 0
1, 142679, Note_on_c, 9, 54, 0
1, 142679, Note_on_c, 9, 62, 0
1, 142679, Note_on_c, 9, 42, 0
1, 142695, Note_on_c, 9, 42, 83
1, 142739, Note_on_c, 9, 42, 0
1, 142800, Note_on_c, 9, 54, 46
1, 142800, Note_on_c, 9, 42, 95
1, 142800, Note_on_c, 9, 36, 127
1, 142919, Note_on_c, 9, 54, 0
1, 142919, Note_on_c, 9, 42, 0
1, 142935, Note_on_c, 9, 42, 95
1, 142979, Note_on_c, 9, 42, 0
1, 143039, Note_on_c, 9, 36, 0
1, 143040, Note_on_c, 9, 54, 73
1, 143040, Note_on_c, 9, 42, 87
1, 143040, Note_on_c, 9, 36, 94
1, 143279, Note_on_c, 9, 54, 0
1, 143279, Note_on_c, 9, 42, 0
1, 143279, Note_on_c, 9, 36, 0
1, 143280, Note_on_c, 9, 54, 71
1, 143280, Note_on_c, 9, 42, 87
1, 143280, Note_on_c, 9, 36, 127
1, 143399, Note_on_c, 9, 54, 0
1, 143399, Note_on_c, 9, 42, 0
1, 143415, Note_on_c, 9, 42, 100
1, 143459, Note_on_c, 9, 42, 0
1, 143519, Note_on_c, 9, 36, 0
1, 143520, Note_on_c, 9, 38, 127
1, 143520, Note_on_c, 9, 54, 41
1, 143520, Note_on_c, 9, 62, 127
1, 143520, Note_on_c, 9, 42, 87
1, 143639, Note_on_c, 9, 38, 0
1, 143639, Note_on_c, 9, 54, 0
1, 143639, Note_on_c, 9, 62, 0
1, 143639, Note_on_c, 9, 42, 0
1, 143655, Note_on_c, 9, 42, 100
1, 143699, Note_on_c, 9, 42, 0
1, 143760, Note_on_c, 9, 54, 38
1, 143760, Note_on_c, 9, 46, 110
1, 143760, Note_on_c, 9, 42, 95
1, 143879, Note_on_c, 9, 54, 0
1, 143879, Note_on_c, 9, 46, 0
1, 143879, Note_on_c, 9, 42, 0
1, 143895, Note_on_c, 9, 42, 100
1, 143939, Note_on_c, 9, 42, 0
1, 144000, Note_on_c, 9, 54, 63
1, 144000, Note_on_c, 9, 42, 91
1, 144000, Note_on_c, 9, 36, 127
1, 144239, Note_on_c, 9, 54, 0
1, 144239, Note_on_c, 9, 42, 0
1, 144240, Note_on_c, 9, 54, 71
1, 144240, Note_on_c, 9, 42, 65
1, 144359, Note_on_c, 9, 36, 0
1, 144359, Note_on_c, 9, 54, 0
1, 144359, Note_on_c, 9, 42, 0
1, 144375, Note_on_c, 9, 46, 68
1, 144375, Note_on_c, 9, 44, 28
1, 144375, Note_on_c, 9, 36, 122
1, 144419, Note_on_c, 9, 46, 0
1, 144419, Note_on_c, 9, 44, 0
1, 144419, Note_on_c, 9, 36, 0
1, 144480, Note_on_c, 9, 38, 94
1, 144480, Note_on_c, 9, 54, 95
1, 144480, Note_on_c, 9, 62, 127
1, 144480, Note_on_c, 9, 42, 83
1, 144599, Note_on_c, 9, 38, 0
1, 144599, Note_on_c, 9, 54, 0
1, 144599, Note_on_c, 9, 62, 0
1, 144599, Note_on_c, 9, 42, 0
1, 144615, Note_on_c, 9, 42, 83
1, 144659, Note_on_c, 9, 42, 0
1, 144720, Note_on_c, 9, 54, 46
1, 144720, Note_on_c, 9, 42, 95
1, 144720, Note_on_c, 9, 36, 127
1, 144839, Note_on_c, 9, 54, 0
1, 144839, Note_on_c, 9, 42, 0
1, 144855, Note_on_c, 9, 42, 95
1, 144899, Note_on_c, 9, 42, 0
1, 144959, Note_on_c, 9, 36, 0
1, 144960, Note_on_c, 9, 54, 73
1, 144960, Note_on_c, 9, 42, 87
1, 144960, Note_on_c, 9, 36, 94
1, 145199, Note_on_c, 9, 54, 0
1, 145199, Note_on_c, 9, 42, 0
1, 145199, Note_on_c, 9, 36, 0
1, 145200, Note_on_c, 9, 54, 71
1, 145200, Note_on_c, 9, 42, 87
1, 145200, Note_on_c, 9, 36, 127
1, 145319, Note_on_c, 9, 54, 0
1, 145319, Note_on_c, 9, 42, 0
1, 145335, Note_on_c, 9, 42, 100
1, 145379, Note_on_c, 9, 42, 0
1, 145439, Note_on_c, 9, 36, 0
1, 145440, Note_on_c, 9, 38, 127
1, 145440, Note_on_c, 9, 54, 41
1, 145440, Note_on_c, 9, 62, 127
1, 145440, Note_on_c, 9, 42, 87
1, 145559, Note_on_c, 9, 38, 0
1, 145559, Note_on_c, 9, 54, 0
1, 145559, Note_on_c, 9, 62, 0
1, 145559, Note_on_c, 9, 42, 0
1, 145575, Note_on_c, 9, 42, 100
1, 145619, Note_on_c, 9, 42, 0
1, 145680, Note_on_c, 9, 54, 38
1, 145680, Note_on_c, 9, 46, 110
1, 145680, Note_on_c, 9, 42, 95
1, 145799, Note_on_c, 9, 54, 0
1, 145799, Note_on_c, 9, 46, 0
1, 145799, Note_on_c, 9, 42, 0
1, 145815, Note_on_c, 9, 42, 100
1, 145859, Note_on_c, 9, 42, 0
1, 145920, Note_on_c, 9, 54, 63
1, 145920, Note_on_c, 9, 42, 91
1, 145920, Note_on_c, 9, 36, 127
1, 146159, Note_on_c, 9, 54, 0
1, 146159, Note_on_c, 9, 42, 0
1, 146160, Note_on_c, 9, 54, 71
1, 146160, Note_on_c, 9, 42, 65
1, 146279, Note_on_c, 9, 36, 0
1, 146279, Note_on_c, 9, 54, 0
1, 146279, Note_on_c, 9, 42, 0
1, 146295, Note_on_c, 9, 46, 68
1, 146295, Note_on_c, 9, 44, 28
1, 146295, Note_on_c, 9, 36, 122
1, 146339, Note_on_c, 9, 46, 0
1, 146339, Note_on_c, 9, 44, 0
1, 146339, Note_on_c, 9, 36, 0
1, 146400, Note_on_c, 9, 38, 94
1, 146400, Note_on_c, 9, 54, 95
1, 146400, Note_on_c, 9, 62, 127
1, 146400, Note_on_c, 9, 42, 83
1, 146519, Note_on_c, 9, 38, 0
1, 146519, Note_on_c, 9, 54, 0
1, 146519, Note_on_c, 9, 62, 0
1, 146519, Note_on_c, 9, 42, 0
1, 146535, Note_on_c, 9, 42, 83
1, 146579, Note_on_c, 9, 42, 0
1, 146640, Note_on_c, 9, 54, 46
1, 146640, Note_on_c, 9, 42, 95
1, 146640, Note_on_c, 9, 36, 127
1, 146759, Note_on_c, 9, 54, 0
1, 146759, Note_on_c, 9, 42, 0
1, 146775, Note_on_c, 9, 42, 95
1, 146819, Note_on_c, 9, 42, 0
1, 146879, Note_on_c, 9, 36, 0
1, 146880, Note_on_c, 9, 54, 73
1, 146880, Note_on_c, 9, 42, 87
1, 146880, Note_on_c, 9, 36, 91
1, 147119, Note_on_c, 9, 54, 0
1, 147119, Note_on_c, 9, 42, 0
1, 147119, Note_on_c, 9, 36, 0
1, 147120, Note_on_c, 9, 54, 71
1, 147120, Note_on_c, 9, 42, 87
1, 147120, Note_on_c, 9, 36, 127
1, 147239, Note_on_c, 9, 54, 0
1, 147239, Note_on_c, 9, 42, 0
1, 147255, Note_on_c, 9, 42, 100
1, 147299, Note_on_c, 9, 42, 0
1, 147359, Note_on_c, 9, 36, 0
1, 147360, Note_on_c, 9, 38, 127
1, 147360, Note_on_c, 9, 54, 41
1, 147360, Note_on_c, 9, 62, 127
1, 147360, Note_on_c, 9, 42, 87
1, 147479, Note_on_c, 9, 38, 0
1, 147479, Note_on_c, 9, 54, 0
1, 147479, Note_on_c, 9, 62, 0
1, 147479, Note_on_c, 9, 42, 0
1, 147495, Note_on_c, 9, 42, 100
1, 147539, Note_on_c, 9, 42, 0
1, 147600, Note_on_c, 9, 54, 38
1, 147600, Note_on_c, 9, 46, 110
1, 147600, Note_on_c, 9, 42, 95
1, 147719, Note_on_c, 9, 54, 0
1, 147719, Note_on_c, 9, 46, 0
1, 147719, Note_on_c, 9, 42, 0
1, 147735, Note_on_c, 9, 42, 100
1, 147779, Note_on_c, 9, 42, 0
1, 147840, Note_on_c, 9, 54, 63
1, 147840, Note_on_c, 9, 42, 91
1, 147840, Note_on_c, 9, 36, 127
1, 148079, Note_on_c, 9, 54, 0
1, 148079, Note_on_c, 9, 42, 0
1, 148080, Note_on_c, 9, 54, 71
1, 148080, Note_on_c, 9, 42, 65
1, 148199, Note_on_c, 9, 36, 0
1, 148199, Note_on_c, 9, 54, 0
1, 148199, Note_on_c, 9, 42, 0
1, 148215, Note_on_c, 9, 46, 68
1, 148215, Note_on_c, 9, 44, 28
1, 148215, Note_on_c, 9, 36, 122
1, 148259, Note_on_c, 9, 46, 0
1, 148259, Note_on_c, 9, 44, 0
1, 148259, Note_on_c, 9, 36, 0
1, 148320, Note_on_c, 9, 38, 94
1, 148320, Note_on_c, 9, 54, 95
1, 148320, Note_on_c, 9, 62, 127
1, 148320, Note_on_c, 9, 42, 83
1, 148439, Note_on_c, 9, 38, 0
1, 148439, Note_on_c, 9, 54, 0
1, 148439, Note_on_c, 9, 62, 0
1, 148439, Note_on_c, 9, 42, 0
1, 148455, Note_on_c, 9, 42, 83
1, 148499, Note_on_c, 9, 42, 0
1, 148560, Note_on_c, 9, 54, 46
1, 148560, Note_on_c, 9, 42, 95
1, 148560, Note_on_c, 9, 36, 127
1, 148679, Note_on_c, 9, 54, 0
1, 148679, Note_on_c, 9, 42, 0
1, 148695, Note_on_c, 9, 42, 95
1, 148739, Note_on_c, 9, 42, 0
1, 148799, Note_on_c, 9, 36, 0
1, 148800, Note_on_c, 9, 54, 73
1, 148800, Note_on_c, 9, 42, 87
1, 149039, Note_on_c, 9, 54, 0
1, 149039, Note_on_c, 9, 42, 0
1, 149040, Note_on_c, 9, 54, 71
1, 149040, Note_on_c, 9, 42, 87
1, 149040, Note_on_c, 9, 36, 127
1, 149159, Note_on_c, 9, 54, 0
1, 149159, Note_on_c, 9, 42, 0
1, 149175, Note_on_c, 9, 42, 100
1, 149219, Note_on_c, 9, 42, 0
1, 149279, Note_on_c, 9, 36, 0
1, 149280, Note_on_c, 9, 38, 127
1, 149280, Note_on_c, 9, 54, 41
1, 149280, Note_on_c, 9, 62, 127
1, 149280, Note_on_c, 9, 42, 87
1, 149399, Note_on_c, 9, 38, 0
1, 149399, Note_on_c, 9, 54, 0
1, 149399, Note_on_c, 9, 62, 0
1, 149399, Note_on_c, 9, 42, 0
1, 149415, Note_on_c, 9, 42, 100
1, 149459, Note_on_c, 9, 42, 0
1, 149520, Note_on_c, 9, 54, 38
1, 149520, Note_on_c, 9, 46, 110
1, 149520, Note_on_c, 9, 42, 95
1, 149639, Note_on_c, 9, 54, 0
1, 149639, Note_on_c, 9, 46, 0
1, 149639, Note_on_c, 9, 42, 0
1, 149655, Note_on_c, 9, 42, 100
1, 149699, Note_on_c, 9, 42, 0
1, 149760, Note_on_c, 9, 54, 63
1, 149760, Note_on_c, 9, 42, 91
1, 149760, Note_on_c, 9, 36, 127
1, 149999, Note_on_c, 9, 54, 0
1, 149999, Note_on_c, 9, 42, 0
1, 150000, Note_on_c, 9, 54, 71
1, 150000, Note_on_c, 9, 42, 65
1, 150119, Note_on_c, 9, 36, 0
1, 150119, Note_on_c, 9, 54, 0
1, 150119, Note_on_c, 9, 42, 0
1, 150135, Note_on_c, 9, 46, 68
1, 150135, Note_on_c, 9, 44, 28
1, 150135, Note_on_c, 9, 36, 122
1, 150179, Note_on_c, 9, 46, 0
1, 150179, Note_on_c, 9, 44, 0
1, 150179, Note_on_c, 9, 36, 0
1, 150240, Note_on_c, 9, 38, 94
1, 150240, Note_on_c, 9, 54, 95
1, 150240, Note_on_c, 9, 62, 127
1, 150240, Note_on_c, 9, 42, 83
1, 150359, Note_on_c, 9, 38, 0
1, 150359, Note_on_c, 9, 54, 0
1, 150359, Note_on_c, 9, 62, 0
1, 150359, Note_on_c, 9, 42, 0
1, 150375, Note_on_c, 9, 42, 83
1, 150419, Note_on_c, 9, 42, 0
1, 150480, Note_on_c, 9, 54, 46
1, 150480, Note_on_c, 9, 42, 95
1, 150480, Note_on_c, 9, 36, 127
1, 150599, Note_on_c, 9, 54, 0
1, 150599, Note_on_c, 9, 42, 0
1, 150615, Note_on_c, 9, 42, 95
1, 150659, Note_on_c, 9, 42, 0
1, 150719, Note_on_c, 9, 36, 0
1, 150720, Note_on_c, 9, 54, 73
1, 150720, Note_on_c, 9, 42, 87
1, 150720, Note_on_c, 9, 36, 79
1, 150959, Note_on_c, 9, 54, 0
1, 150959, Note_on_c, 9, 42, 0
1, 150959, Note_on_c, 9, 36, 0
1, 150960, Note_on_c, 9, 54, 71
1, 150960, Note_on_c, 9, 42, 87
1, 150960, Note_on_c, 9, 36, 127
1, 151079, Note_on_c, 9, 54, 0
1, 151079, Note_on_c, 9, 42, 0
1, 151095, Note_on_c, 9, 42, 100
1, 151139, Note_on_c, 9, 42, 0
1, 151199, Note_on_c, 9, 36, 0
1, 151200, Note_on_c, 9, 38, 127
1, 151200, Note_on_c, 9, 54, 41
1, 151200, Note_on_c, 9, 62, 127
1, 151200, Note_on_c, 9, 42, 87
1, 151319, Note_on_c, 9, 38, 0
1, 151319, Note_on_c, 9, 54, 0
1, 151319, Note_on_c, 9, 62, 0
1, 151319, Note_on_c, 9, 42, 0
1, 151335, Note_on_c, 9, 42, 100
1, 151379, Note_on_c, 9, 42, 0
1, 151440, Note_on_c, 9, 54, 38
1, 151440, Note_on_c, 9, 46, 110
1, 151440, Note_on_c, 9, 42, 95
1, 151559, Note_on_c, 9, 54, 0
1, 151559, Note_on_c, 9, 46, 0
1, 151559, Note_on_c, 9, 42, 0
1, 151575, Note_on_c, 9, 42, 100
1, 151619, Note_on_c, 9, 42, 0
1, 151680, Note_on_c, 9, 54, 63
1, 151680, Note_on_c, 9, 42, 91
1, 151680, Note_on_c, 9, 52, 104
1, 151680, Note_on_c, 9, 36, 127
1, 151919, Note_on_c, 9, 54, 0
1, 151919, Note_on_c, 9, 42, 0
1, 151919, Note_on_c, 9, 52, 0
1, 151920, Note_on_c, 9, 54, 71
1, 151920, Note_on_c, 9, 42, 65
1, 152039, Note_on_c, 9, 36, 0
1, 152039, Note_on_c, 9, 54, 0
1, 152039, Note_on_c, 9, 42, 0
1, 152055, Note_on_c, 9, 46, 68
1, 152055, Note_on_c, 9, 44, 28
1, 152055, Note_on_c, 9, 36, 122
1, 152099, Note_on_c, 9, 46, 0
1, 152099, Note_on_c, 9, 44, 0
1, 152099, Note_on_c, 9, 36, 0
1, 152160, Note_on_c, 9, 38, 94
1, 152160, Note_on_c, 9, 54, 95
1, 152160, Note_on_c, 9, 62, 127
1, 152160, Note_on_c, 9, 42, 83
1, 152279, Note_on_c, 9, 38, 0
1, 152279, Note_on_c, 9, 54, 0
1, 152279, Note_on_c, 9, 62, 0
1, 152279, Note_on_c, 9, 42, 0
1, 152295, Note_on_c, 9, 42, 83
1, 152339, Note_on_c, 9, 42, 0
1, 152400, Note_on_c, 9, 54, 46
1, 152400, Note_on_c, 9, 42, 95
1, 152400, Note_on_c, 9, 36, 127
1, 152519, Note_on_c, 9, 54, 0
1, 152519, Note_on_c, 9, 42, 0
1, 152535, Note_on_c, 9, 42, 95
1, 152579, Note_on_c, 9, 42, 0
1, 152639, Note_on_c, 9, 36, 0
1, 152640, Note_on_c, 9, 54, 73
1, 152640, Note_on_c, 9, 42, 87
1, 152640, Note_on_c, 9, 36, 79
1, 152879, Note_on_c, 9, 54, 0
1, 152879, Note_on_c, 9, 42, 0
1, 152879, Note_on_c, 9, 36, 0
1, 152880, Note_on_c, 9, 54, 71
1, 152880, Note_on_c, 9, 42, 87
1, 152880, Note_on_c, 9, 36, 127
1, 152999, Note_on_c, 9, 54, 0
1, 152999, Note_on_c, 9, 42, 0
1, 153015, Note_on_c, 9, 42, 100
1, 153059, Note_on_c, 9, 42, 0
1, 153119, Note_on_c, 9, 36, 0
1, 153120, Note_on_c, 9, 38, 127
1, 153120, Note_on_c, 9, 54, 41
1, 153120, Note_on_c, 9, 62, 127
1, 153120, Note_on_c, 9, 42, 87
1, 153239, Note_on_c, 9, 38, 0
1, 153239, Note_on_c, 9, 54, 0
1, 153239, Note_on_c, 9, 62, 0
1, 153239, Note_on_c, 9, 42, 0
1, 153255, Note_on_c, 9, 42, 100
1, 153299, Note_on_c, 9, 42, 0
1, 153360, Note_on_c, 9, 54, 38
1, 153360, Note_on_c, 9, 46, 110
1, 153360, Note_on_c, 9, 42, 95
1, 153479, Note_on_c, 9, 54, 0
1, 153479, Note_on_c, 9, 46, 0
1, 153479, Note_on_c, 9, 42, 0
1, 153495, Note_on_c, 9, 42, 100
1, 153539, Note_on_c, 9, 42, 0
1, 153600, Note_on_c, 9, 54, 63
1, 153600, Note_on_c, 9, 42, 91
1, 153600, Note_on_c, 9, 36, 127
1, 153839, Note_on_c, 9, 54, 0
1, 153839, Note_on_c, 9, 42, 0
1, 153840, Note_on_c, 9, 54, 71
1, 153840, Note_on_c, 9, 42, 65
1, 153959, Note_on_c, 9, 36, 0
1, 153959, Note_on_c, 9, 54, 0
1, 153959, Note_on_c, 9, 42, 0
1, 153975, Note_on_c, 9, 46, 68
1, 153975, Note_on_c, 9, 44, 28
1, 153975, Note_on_c, 9, 36, 122
1, 154019, Note_on_c, 9, 46, 0
1, 154019, Note_on_c, 9, 44, 0
1, 154019, Note_on_c, 9, 36, 0
1, 154080, Note_on_c, 9, 38, 94
1, 154080, Note_on_c, 9, 54, 95
1, 154080, Note_on_c, 9, 62, 127
1, 154080, Note_on_c, 9, 42, 83
1, 154199, Note_on_c, 9, 38, 0
1, 154199, Note_on_c, 9, 54, 0
1, 154199, Note_on_c, 9, 62, 0
1, 154199, Note_on_c, 9, 42, 0
1, 154215, Note_on_c, 9, 42, 83
1, 154259, Note_on_c, 9, 42, 0
1, 154320, Note_on_c, 9, 54, 46
1, 154320, Note_on_c, 9, 42, 95
1, 154320, Note_on_c, 9, 36, 127
1, 154439, Note_on_c, 9, 54, 0
1, 154439, Note_on_c, 9, 42, 0
1, 154455, Note_on_c, 9, 42, 95
1, 154499, Note_on_c, 9, 42, 0
1, 154559, Note_on_c, 9, 36, 0
1, 154560, Note_on_c, 9, 54, 73
1, 154560, Note_on_c, 9, 42, 87
1, 154560, Note_on_c, 9, 36, 97
1, 154799, Note_on_c, 9, 54, 0
1, 154799, Note_on_c, 9, 42, 0
1, 154799, Note_on_c, 9, 36, 0
1, 154800, Note_on_c, 9, 54, 71
1, 154800, Note_on_c, 9, 42, 87
1, 154800, Note_on_c, 9, 36, 127
1, 154919, Note_on_c, 9, 54, 0
1, 154919, Note_on_c, 9, 42, 0
1, 154935, Note_on_c, 9, 42, 100
1, 154979, Note_on_c, 9, 42, 0
1, 155039, Note_on_c, 9, 36, 0
1, 155040, Note_on_c, 9, 38, 127
1, 155040, Note_on_c, 9, 54, 41
1, 155040, Note_on_c, 9, 62, 127
1, 155040, Note_on_c, 9, 42, 87
1, 155159, Note_on_c, 9, 38, 0
1, 155159, Note_on_c, 9, 54, 0
1, 155159, Note_on_c, 9, 62, 0
1, 155159, Note_on_c, 9, 42, 0
1, 155175, Note_on_c, 9, 42, 100
1, 155219, Note_on_c, 9, 42, 0
1, 155280, Note_on_c, 9, 54, 38
1, 155280, Note_on_c, 9, 46, 110
1, 155280, Note_on_c, 9, 42, 95
1, 155399, Note_on_c, 9, 54, 0
1, 155399, Note_on_c, 9, 46, 0
1, 155399, Note_on_c, 9, 42, 0
1, 155415, Note_on_c, 9, 42, 100
1, 155459, Note_on_c, 9, 42, 0
1, 155520, Note_on_c, 9, 54, 63
1, 155520, Note_on_c, 9, 42, 91
1, 155520, Note_on_c, 9, 36, 127
1, 155759, Note_on_c, 9, 54, 0
1, 155759, Note_on_c, 9, 42, 0
1, 155760, Note_on_c, 9, 54, 71
1, 155760, Note_on_c, 9, 42, 65
1, 155879, Note_on_c, 9, 36, 0
1, 155879, Note_on_c, 9, 54, 0
1, 155879, Note_on_c, 9, 42, 0
1, 155895, Note_on_c, 9, 46, 68
1, 155895, Note_on_c, 9, 44, 28
1, 155895, Note_on_c, 9, 36, 122
1, 155939, Note_on_c, 9, 46, 0
1, 155939, Note_on_c, 9, 44, 0
1, 155939, Note_on_c, 9, 36, 0
1, 156000, Note_on_c, 9, 38, 94
1, 156000, Note_on_c, 9, 54, 95
1, 156000, Note_on_c, 9, 62, 127
1, 156000, Note_on_c, 9, 42, 83
1, 156119, Note_on_c, 9, 38, 0
1, 156119, Note_on_c, 9, 54, 0
1, 156119, Note_on_c, 9, 62, 0
1, 156119, Note_on_c, 9, 42, 0
1, 156135, Note_on_c, 9, 42, 83
1, 156179, Note_on_c, 9, 42, 0
1, 156240, Note_on_c, 9, 54, 46
1, 156240, Note_on_c, 9, 42, 95
1, 156240, Note_on_c, 9, 36, 127
1, 156359, Note_on_c, 9, 54, 0
1, 156359, Note_on_c, 9, 42, 0
1, 156375, Note_on_c, 9, 42, 95
1, 156419, Note_on_c, 9, 42, 0
1, 156479, Note_on_c, 9, 36, 0
1, 156480, Note_on_c, 9, 54, 73
1, 156480, Note_on_c, 9, 42, 87
1, 156480, Note_on_c, 9, 36, 88
1, 156719, Note_on_c, 9, 54, 0
1, 156719, Note_on_c, 9, 42, 0
1, 156719, Note_on_c, 9, 36, 0
1, 156720, Note_on_c, 9, 54, 71
1, 156720, Note_on_c, 9, 42, 87
1, 156720, Note_on_c, 9, 36, 127
1, 156839, Note_on_c, 9, 54, 0
1, 156839, Note_on_c, 9, 42, 0
1, 156855, Note_on_c, 9, 42, 100
1, 156899, Note_on_c, 9, 42, 0
1, 156959, Note_on_c, 9, 36, 0
1, 156960, Note_on_c, 9, 38, 127
1, 156960, Note_on_c, 9, 54, 41
1, 156960, Note_on_c, 9, 62, 127
1, 156960, Note_on_c, 9, 42, 87
1, 157079, Note_on_c, 9, 38, 0
1, 157079, Note_on_c, 9, 54, 0
1, 157079, Note_on_c, 9, 62, 0
1, 157079, Note_on_c, 9, 42, 0
1, 157095, Note_on_c, 9, 42, 100
1, 157139, Note_on_c, 9, 42, 0
1, 157200, Note_on_c, 9, 54, 38
1, 157200, Note_on_c, 9, 46, 110
1, 157200, Note_on_c, 9, 42, 95
1, 157319, Note_on_c, 9, 54, 0
1, 157319, Note_on_c, 9, 46, 0
1, 157319, Note_on_c, 9, 42, 0
1, 157335, Note_on_c, 9, 42, 100
1, 157379, Note_on_c, 9, 42, 0
1, 157440, Note_on_c, 9, 54, 63
1, 157440, Note_on_c, 9, 42, 91
1, 157440, Note_on_c, 9, 36, 127
1, 157679, Note_on_c, 9, 54, 0
1, 157679, Note_on_c, 9, 42, 0
1, 157680, Note_on_c, 9, 54, 71
1, 157680, Note_on_c, 9, 42, 65
1, 157799, Note_on_c, 9, 36, 0
1, 157799, Note_on_c, 9, 54, 0
1, 157799, Note_on_c, 9, 42, 0
1, 157815, Note_on_c, 9, 46, 68
1, 157815, Note_on_c, 9, 44, 28
1, 157815, Note_on_c, 9, 36, 122
1, 157859, Note_on_c, 9, 46, 0
1, 157859, Note_on_c, 9, 44, 0
1, 157859, Note_on_c, 9, 36, 0
1, 157920, Note_on_c, 9, 38, 94
1, 157920, Note_on_c, 9, 54, 95
1, 157920, Note_on_c, 9, 62, 127
1, 157920, Note_on_c, 9, 42, 83
1, 158039, Note_on_c, 9, 38, 0
1, 158039, Note_on_c, 9, 54, 0
1, 158039, Note_on_c, 9, 62, 0
1, 158039, Note_on_c, 9, 42, 0
1, 158055, Note_on_c, 9, 42, 83
1, 158099, Note_on_c, 9, 42, 0
1, 158160, Note_on_c, 9, 54, 46
1, 158160, Note_on_c, 9, 42, 95
1, 158160, Note_on_c, 9, 36, 127
1, 158279, Note_on_c, 9, 54, 0
1, 158279, Note_on_c, 9, 42, 0
1, 158295, Note_on_c, 9, 42, 95
1, 158339, Note_on_c, 9, 42, 0
1, 158399, Note_on_c, 9, 36, 0
1, 158400, Note_on_c, 9, 54, 73
1, 158400, Note_on_c, 9, 42, 87
1, 158400, Note_on_c, 9, 36, 94
1, 158639, Note_on_c, 9, 54, 0
1, 158639, Note_on_c, 9, 42, 0
1, 158639, Note_on_c, 9, 36, 0
1, 158640, Note_on_c, 9, 54, 71
1, 158640, Note_on_c, 9, 42, 87
1, 158640, Note_on_c, 9, 36, 127
1, 158759, Note_on_c, 9, 54, 0
1, 158759, Note_on_c, 9, 42, 0
1, 158775, Note_on_c, 9, 42, 100
1, 158819, Note_on_c, 9, 42, 0
1, 158879, Note_on_c, 9, 36, 0
1, 158880, Note_on_c, 9, 38, 127
1, 158880, Note_on_c, 9, 54, 41
1, 158880, Note_on_c, 9, 62, 127
1, 158880, Note_on_c, 9, 42, 87
1, 158999, Note_on_c, 9, 38, 0
1, 158999, Note_on_c, 9, 54, 0
1, 158999, Note_on_c, 9, 62, 0
1, 158999, Note_on_c, 9, 42, 0
1, 159015, Note_on_c, 9, 42, 100
1, 159059, Note_on_c, 9, 42, 0
1, 159120, Note_on_c, 9, 54, 38
1, 159120, Note_on_c, 9, 46, 110
1, 159120, Note_on_c, 9, 42, 95
1, 159239, Note_on_c, 9, 54, 0
1, 159239, Note_on_c, 9, 46, 0
1, 159239, Note_on_c, 9, 42, 0
1, 159255, Note_on_c, 9, 42, 100
1, 159299, Note_on_c, 9, 42, 0
1, 159360, Note_on_c, 9, 54, 63
1, 159360, Note_on_c, 9, 42, 91
1, 159360, Note_on_c, 9, 52, 104
1, 159360, Note_on_c, 9, 36, 127
1, 159599, Note_on_c, 9, 54, 0
1, 159599, Note_on_c, 9, 42, 0
1, 159599, Note_on_c, 9, 52, 0
1, 159600, Note_on_c, 9, 54, 71
1, 159600, Note_on_c, 9, 42, 65
1, 159719, Note_on_c, 9, 36, 0
1, 159719, Note_on_c, 9, 54, 0
1, 159719, Note_on_c, 9, 42, 0
1, 159735, Note_on_c, 9, 46, 68
1, 159735, Note_on_c, 9, 44, 28
1, 159735, Note_on_c, 9, 36, 122
1, 159779, Note_on_c, 9, 46, 0
1, 159779, Note_on_c, 9, 44, 0
1, 159779, Note_on_c, 9, 36, 0
1, 159840, Note_on_c, 9, 38, 94
1, 159840, Note_on_c, 9, 54, 95
1, 159840, Note_on_c, 9, 62, 127
1, 159840, Note_on_c, 9, 42, 83
1, 159959, Note_on_c, 9, 38, 0
1, 159959, Note_on_c, 9, 54, 0
1, 159959, Note_on_c, 9, 62, 0
1, 159959, Note_on_c, 9, 42, 0
1, 159975, Note_on_c, 9, 42, 83
1, 160019, Note_on_c, 9, 42, 0
1, 160080, Note_on_c, 9, 54, 46
1, 160080, Note_on_c, 9, 42, 95
1, 160080, Note_on_c, 9, 36, 127
1, 160199, Note_on_c, 9, 54, 0
1, 160199, Note_on_c, 9, 42, 0
1, 160215, Note_on_c, 9, 42, 95
1, 160259, Note_on_c, 9, 42, 0
1, 160319, Note_on_c, 9, 36, 0
1, 160320, Note_on_c, 9, 54, 73
1, 160320, Note_on_c, 9, 42, 87
1, 160320, Note_on_c, 9, 36, 79
1, 160559, Note_on_c, 9, 54, 0
1, 160559, Note_on_c, 9, 42, 0
1, 160559, Note_on_c, 9, 36, 0
1, 160560, Note_on_c, 9, 54, 71
1, 160560, Note_on_c, 9, 42, 87
1, 160560, Note_on_c, 9, 36, 127
1, 160679, Note_on_c, 9, 54, 0
1, 160679, Note_on_c, 9, 42, 0
1, 160695, Note_on_c, 9, 42, 100
1, 160739, Note_on_c, 9, 42, 0
1, 160799, Note_on_c, 9, 36, 0
1, 160800, Note_on_c, 9, 38, 127
1, 160800, Note_on_c, 9, 54, 41
1, 160800, Note_on_c, 9, 62, 127
1, 160800, Note_on_c, 9, 42, 87
1, 160919, Note_on_c, 9, 38, 0
1, 160919, Note_on_c, 9, 54, 0
1, 160919, Note_on_c, 9, 62, 0
1, 160919, Note_on_c, 9, 42, 0
1, 160935, Note_on_c, 9, 42, 100
1, 160979, Note_on_c, 9, 42, 0
1, 161040, Note_on_c, 9, 54, 38
1, 161040, Note_on_c, 9, 46, 110
1, 161040, Note_on_c, 9, 42, 95
1, 161159, Note_on_c, 9, 54, 0
1, 161159, Note_on_c, 9, 46, 0
1, 161159, Note_on_c, 9, 42, 0
1, 161175, Note_on_c, 9, 42, 100
1, 161219, Note_on_c, 9, 42, 0
1, 161280, Note_on_c, 9, 54, 63
1, 161280, Note_on_c, 9, 42, 91
1, 161280, Note_on_c, 9, 36, 127
1, 161519, Note_on_c, 9, 54, 0
1, 161519, Note_on_c, 9, 42, 0
1, 161520, Note_on_c, 9, 54, 71
1, 161520, Note_on_c, 9, 42, 65
1, 161639, Note_on_c, 9, 36, 0
1, 161639, Note_on_c, 9, 54, 0
1, 161639, Note_on_c, 9, 42, 0
1, 161655, Note_on_c, 9, 46, 68
1, 161655, Note_on_c, 9, 44, 28
1, 161655, Note_on_c, 9, 36, 122
1, 161699, Note_on_c, 9, 46, 0
1, 161699, Note_on_c, 9, 44, 0
1, 161699, Note_on_c, 9, 36, 0
1, 161760, Note_on_c, 9, 38, 94
1, 161760, Note_on_c, 9, 54, 95
1, 161760, Note_on_c, 9, 62, 127
1, 161760, Note_on_c, 9, 42, 83
1, 161879, Note_on_c, 9, 38, 0
1, 161879, Note_on_c, 9, 54, 0
1, 161879, Note_on_c, 9, 62, 0
1, 161879, Note_on_c, 9, 42, 0
1, 161895, Note_on_c, 9, 42, 83
1, 161939, Note_on_c, 9, 42, 0
1, 162000, Note_on_c, 9, 54, 46
1, 162000, Note_on_c, 9, 42, 95
1, 162000, Note_on_c, 9, 36, 127
1, 162119, Note_on_c, 9, 54, 0
1, 162119, Note_on_c, 9, 42, 0
1, 162135, Note_on_c, 9, 42, 95
1, 162179, Note_on_c, 9, 42, 0
1, 162239, Note_on_c, 9, 36, 0
1, 162240, Note_on_c, 9, 54, 73
1, 162240, Note_on_c, 9, 42, 87
1, 162240, Note_on_c, 9, 36, 97
1, 162479, Note_on_c, 9, 54, 0
1, 162479, Note_on_c, 9, 42, 0
1, 162479, Note_on_c, 9, 36, 0
1, 162480, Note_on_c, 9, 54, 71
1, 162480, Note_on_c, 9, 42, 87
1, 162480, Note_on_c, 9, 36, 127
1, 162599, Note_on_c, 9, 54, 0
1, 162599, Note_on_c, 9, 42, 0
1, 162615, Note_on_c, 9, 42, 100
1, 162659, Note_on_c, 9, 42, 0
1, 162719, Note_on_c, 9, 36, 0
1, 162720, Note_on_c, 9, 38, 127
1, 162720, Note_on_c, 9, 54, 41
1, 162720, Note_on_c, 9, 62, 127
1, 162720, Note_on_c, 9, 42, 87
1, 162839, Note_on_c, 9, 38, 0
1, 162839, Note_on_c, 9, 54, 0
1, 162839, Note_on_c, 9, 62, 0
1, 162839, Note_on_c, 9, 42, 0
1, 162855, Note_on_c, 9, 42, 100
1, 162899, Note_on_c, 9, 42, 0
1, 162960, Note_on_c, 9, 54, 38
1, 162960, Note_on_c, 9, 46, 110
1, 162960, Note_on_c, 9, 42, 95
1, 163079, Note_on_c, 9, 54, 0
1, 163079, Note_on_c, 9, 46, 0
1, 163079, Note_on_c, 9, 42, 0
1, 163095, Note_on_c, 9, 42, 100
1, 163139, Note_on_c, 9, 42, 0
1, 163200, Note_on_c, 9, 54, 63
1, 163200, Note_on_c, 9, 42, 91
1, 163200, Note_on_c, 9, 36, 127
1, 163439, Note_on_c, 9, 54, 0
1, 163439, Note_on_c, 9, 42, 0
1, 163440, Note_on_c, 9, 54, 71
1, 163440, Note_on_c, 9, 42, 65
1, 163559, Note_on_c, 9, 36, 0
1, 163559, Note_on_c, 9, 54, 0
1, 163559, Note_on_c, 9, 42, 0
1, 163575, Note_on_c, 9, 46, 68
1, 163575, Note_on_c, 9, 44, 28
1, 163575, Note_on_c, 9, 36, 122
1, 163619, Note_on_c, 9, 46, 0
1, 163619, Note_on_c, 9, 44, 0
1, 163619, Note_on_c, 9, 36, 0
1, 163680, Note_on_c, 9, 38, 94
1, 163680, Note_on_c, 9, 54, 95
1, 163680, Note_on_c, 9, 62, 127
1, 163680, Note_on_c, 9, 42, 83
1, 163799, Note_on_c, 9, 38, 0
1, 163799, Note_on_c, 9, 54, 0
1, 163799, Note_on_c, 9, 62, 0
1, 163799, Note_on_c, 9, 42, 0
1, 163815, Note_on_c, 9, 42, 83
1, 163859, Note_on_c, 9, 42, 0
1, 163920, Note_on_c, 9, 54, 46
1, 163920, Note_on_c, 9, 42, 95
1, 163920, Note_on_c, 9, 36, 127
1, 164039, Note_on_c, 9, 54, 0
1, 164039, Note_on_c, 9, 42, 0
1, 164055, Note_on_c, 9, 42, 95
1, 164099, Note_on_c, 9, 42, 0
1, 164159, Note_on_c, 9, 36, 0
1, 164160, Note_on_c, 9, 54, 73
1, 164160, Note_on_c, 9, 42, 87
1, 164160, Note_on_c, 9, 36, 88
1, 164399, Note_on_c, 9, 54, 0
1, 164399, Note_on_c, 9, 42, 0
1, 164399, Note_on_c, 9, 36, 0
1, 164400, Note_on_c, 9, 54, 71
1, 164400, Note_on_c, 9, 42, 87
1, 164400, Note_on_c, 9, 36, 127
1, 164519, Note_on_c, 9, 54, 0
1, 164519, Note_on_c, 9, 42, 0
1, 164535, Note_on_c, 9, 42, 100
1, 164579, Note_on_c, 9, 42, 0
1, 164639, Note_on_c, 9, 36, 0
1, 164640, Note_on_c, 9, 38, 127
1, 164640, Note_on_c, 9, 54, 41
1, 164640, Note_on_c, 9, 62, 127
1, 164640, Note_on_c, 9, 42, 87
1, 164759, Note_on_c, 9, 38, 0
1, 164759, Note_on_c, 9, 54, 0
1, 164759, Note_on_c, 9, 62, 0
1, 164759, Note_on_c, 9, 42, 0
1, 164775, Note_on_c, 9, 42, 100
1, 164819, Note_on_c, 9, 42, 0
1, 164880, Note_on_c, 9, 54, 38
1, 164880, Note_on_c, 9, 46, 110
1, 164880, Note_on_c, 9, 42, 95
1, 164999, Note_on_c, 9, 54, 0
1, 164999, Note_on_c, 9, 46, 0
1, 164999, Note_on_c, 9, 42, 0
1, 165015, Note_on_c, 9, 42, 100
1, 165059, Note_on_c, 9, 42, 0
1, 165120, Note_on_c, 9, 54, 63
1, 165120, Note_on_c, 9, 42, 91
1, 165120, Note_on_c, 9, 36, 127
1, 165359, Note_on_c, 9, 54, 0
1, 165359, Note_on_c, 9, 42, 0
1, 165360, Note_on_c, 9, 54, 71
1, 165360, Note_on_c, 9, 42, 65
1, 165479, Note_on_c, 9, 36, 0
1, 165479, Note_on_c, 9, 54, 0
1, 165479, Note_on_c, 9, 42, 0
1, 165495, Note_on_c, 9, 46, 68
1, 165495, Note_on_c, 9, 44, 28
1, 165495, Note_on_c, 9, 36, 122
1, 165539, Note_on_c, 9, 46, 0
1, 165539, Note_on_c, 9, 44, 0
1, 165539, Note_on_c, 9, 36, 0
1, 165600, Note_on_c, 9, 38, 94
1, 165600, Note_on_c, 9, 54, 95
1, 165600, Note_on_c, 9, 62, 127
1, 165600, Note_on_c, 9, 42, 83
1, 165719, Note_on_c, 9, 38, 0
1, 165719, Note_on_c, 9, 54, 0
1, 165719, Note_on_c, 9, 62, 0
1, 165719, Note_on_c, 9, 42, 0
1, 165735, Note_on_c, 9, 42, 83
1, 165779, Note_on_c, 9, 42, 0
1, 165840, Note_on_c, 9, 54, 46
1, 165840, Note_on_c, 9, 42, 95
1, 165840, Note_on_c, 9, 36, 127
1, 165959, Note_on_c, 9, 54, 0
1, 165959, Note_on_c, 9, 42, 0
1, 165975, Note_on_c, 9, 42, 95
1, 166019, Note_on_c, 9, 42, 0
1, 166079, Note_on_c, 9, 36, 0
1, 166080, Note_on_c, 9, 41, 127
1, 166080, Note_on_c, 9, 54, 73
1, 166080, Note_on_c, 9, 42, 87
1, 166080, Note_on_c, 9, 36, 94
1, 166319, Note_on_c, 9, 41, 0
1, 166319, Note_on_c, 9, 54, 0
1, 166319, Note_on_c, 9, 42, 0
1, 166319, Note_on_c, 9, 36, 0
1, 166320, Note_on_c, 9, 41, 127
1, 166320, Note_on_c, 9, 54, 71
1, 166320, Note_on_c, 9, 42, 87
1, 166320, Note_on_c, 9, 36, 127
1, 166439, Note_on_c, 9, 41, 0
1, 166439, Note_on_c, 9, 54, 0
1, 166439, Note_on_c, 9, 42, 0
1, 166455, Note_on_c, 9, 42, 100
1, 166499, Note_on_c, 9, 42, 0
1, 166559, Note_on_c, 9, 36, 0
1, 166560, Note_on_c, 9, 41, 127
1, 166560, Note_on_c, 9, 38, 127
1, 166560, Note_on_c, 9, 54, 41
1, 166560, Note_on_c, 9, 62, 127
1, 166560, Note_on_c, 9, 42, 87
1, 166679, Note_on_c, 9, 41, 0
1, 166679, Note_on_c, 9, 38, 0
1, 166679, Note_on_c, 9, 54, 0
1, 166679, Note_on_c, 9, 62, 0
1, 166679, Note_on_c, 9, 42, 0
1, 166695, Note_on_c, 9, 45, 127
1, 166695, Note_on_c, 9, 42, 100
1, 166739, Note_on_c, 9, 45, 0
1, 166739, Note_on_c, 9, 42, 0
1, 166800, Note_on_c, 9, 54, 38
1, 166800, Note_on_c, 9, 46, 110
1, 166800, Note_on_c, 9, 42, 95
1, 166800, Note_on_c, 9, 43, 127
1, 166919, Note_on_c, 9, 54, 0
1, 166919, Note_on_c, 9, 46, 0
1, 166919, Note_on_c, 9, 42, 0
1, 166935, Note_on_c, 9, 42, 100
1, 166979, Note_on_c, 9, 42, 0
1, 167039, Note_on_c, 9, 43, 0
1, 167040, Note_on_c, 9, 54, 63
1, 167040, Note_on_c, 9, 42, 91
1, 167040, Note_on_c, 9, 52, 104
1, 167040, Note_on_c, 9, 36, 127
1, 167279, Note_on_c, 9, 54, 0
1, 167279, Note_on_c, 9, 42, 0
1, 167279, Note_on_c, 9, 52, 0
1, 167280, Note_on_c, 9, 54, 71
1, 167280, Note_on_c, 9, 42, 65
1, 167399, Note_on_c, 9, 36, 0
1, 167399, Note_on_c, 9, 54, 0
1, 167399, Note_on_c, 9, 42, 0
1, 167415, Note_on_c, 9, 46, 68
1, 167415, Note_on_c, 9, 44, 28
1, 167415, Note_on_c, 9, 36, 122
1, 167459, Note_on_c, 9, 46, 0
1, 167459, Note_on_c, 9, 44, 0
1, 167459, Note_on_c, 9, 36, 0
1, 167520, Note_on_c, 9, 38, 94
1, 167520, Note_on_c, 9, 54, 95
1, 167520, Note_on_c, 9, 62, 127
1, 167520, Note_on_c, 9, 42, 83
1, 167639, Note_on_c, 9, 38, 0
1, 167639, Note_on_c, 9, 54, 0
1, 167639, Note_on_c, 9, 62, 0
1, 167639, Note_on_c, 9, 42, 0
1, 167655, Note_on_c, 9, 42, 83
1, 167699, Note_on_c, 9, 42, 0
1, 167760, Note_on_c, 9, 54, 46
1, 167760, Note_on_c, 9, 42, 95
1, 167760, Note_on_c, 9, 36, 127
1, 167879, Note_on_c, 9, 54, 0
1, 167879, Note_on_c, 9, 42, 0
1, 167895, Note_on_c, 9, 42, 95
1, 167939, Note_on_c, 9, 42, 0
1, 167999, Note_on_c, 9, 36, 0
1, 168000, Note_on_c, 9, 54, 73
1, 168000, Note_on_c, 9, 42, 87
1, 168000, Note_on_c, 9, 36, 79
1, 168239, Note_on_c, 9, 54, 0
1, 168239, Note_on_c, 9, 42, 0
1, 168239, Note_on_c, 9, 36, 0
1, 168240, Note_on_c, 9, 54, 71
1, 168240, Note_on_c, 9, 42, 87
1, 168240, Note_on_c, 9, 36, 127
1, 168359, Note_on_c, 9, 54, 0
1, 168359, Note_on_c, 9, 42, 0
1, 168375, Note_on_c, 9, 42, 100
1, 168419, Note_on_c, 9, 42, 0
1, 168479, Note_on_c, 9, 36, 0
1, 168480, Note_on_c, 9, 38, 127
1, 168480, Note_on_c, 9, 54, 41
1, 168480, Note_on_c, 9, 62, 127
1, 168480, Note_on_c, 9, 42, 87
1, 168599, Note_on_c, 9, 38, 0
1, 168599, Note_on_c, 9, 54, 0
1, 168599, Note_on_c, 9, 62, 0
1, 168599, Note_on_c, 9, 42, 0
1, 168615, Note_on_c, 9, 42, 100
1, 168659, Note_on_c, 9, 42, 0
1, 168720, Note_on_c, 9, 54, 38
1, 168720, Note_on_c, 9, 46, 110
1, 168720, Note_on_c, 9, 42, 95
1, 168839, Note_on_c, 9, 54, 0
1, 168839, Note_on_c, 9, 46, 0
1, 168839, Note_on_c, 9, 42, 0
1, 168855, Note_on_c, 9, 42, 100
1, 168899, Note_on_c, 9, 42, 0
1, 168960, Note_on_c, 9, 54, 63
1, 168960, Note_on_c, 9, 42, 91
1, 168960, Note_on_c, 9, 36, 127
1, 169199, Note_on_c, 9, 54, 0
1, 169199, Note_on_c, 9, 42, 0
1, 169200, Note_on_c, 9, 54, 71
1, 169200, Note_on_c, 9, 42, 65
1, 169319, Note_on_c, 9, 36, 0
1, 169319, Note_on_c, 9, 54, 0
1, 169319, Note_on_c, 9, 42, 0
1, 169335, Note_on_c, 9, 46, 68
1, 169335, Note_on_c, 9, 44, 28
1, 169335, Note_on_c, 9, 36, 122
1, 169379, Note_on_c, 9, 46, 0
1, 169379, Note_on_c, 9, 44, 0
1, 169379, Note_on_c, 9, 36, 0
1, 169440, Note_on_c, 9, 38, 94
1, 169440, Note_on_c, 9, 54, 95
1, 169440, Note_on_c, 9, 62, 127
1, 169440, Note_on_c, 9, 42, 83
1, 169559, Note_on_c, 9, 38, 0
1, 169559, Note_on_c, 9, 54, 0
1, 169559, Note_on_c, 9, 62, 0
1, 169559, Note_on_c, 9, 42, 0
1, 169575, Note_on_c, 9, 42, 83
1, 169619, Note_on_c, 9, 42, 0
1, 169680, Note_on_c, 9, 54, 46
1, 169680, Note_on_c, 9, 42, 95
1, 169680, Note_on_c, 9, 36, 127
1, 169799, Note_on_c, 9, 54, 0
1, 169799, Note_on_c, 9, 42, 0
1, 169815, Note_on_c, 9, 42, 95
1, 169859, Note_on_c, 9, 42, 0
1, 169919, Note_on_c, 9, 36, 0
1, 169920, Note_on_c, 9, 54, 73
1, 169920, Note_on_c, 9, 42, 87
1, 169920, Note_on_c, 9, 36, 97
1, 170159, Note_on_c, 9, 54, 0
1, 170159, Note_on_c, 9, 42, 0
1, 170159, Note_on_c, 9, 36, 0
1, 170160, Note_on_c, 9, 54, 71
1, 170160, Note_on_c, 9, 42, 87
1, 170160, Note_on_c, 9, 36, 127
1, 170279, Note_on_c, 9, 54, 0
1, 170279, Note_on_c, 9, 42, 0
1, 170295, Note_on_c, 9, 42, 100
1, 170339, Note_on_c, 9, 42, 0
1, 170399, Note_on_c, 9, 36, 0
1, 170400, Note_on_c, 9, 38, 127
1, 170400, Note_on_c, 9, 54, 41
1, 170400, Note_on_c, 9, 62, 127
1, 170400, Note_on_c, 9, 42, 87
1, 170519, Note_on_c, 9, 38, 0
1, 170519, Note_on_c, 9, 54, 0
1, 170519, Note_on_c, 9, 62, 0
1, 170519, Note_on_c, 9, 42, 0
1, 170535, Note_on_c, 9, 42, 100
1, 170579, Note_on_c, 9, 42, 0
1, 170640, Note_on_c, 9, 54, 38
1, 170640, Note_on_c, 9, 46, 110
1, 170640, Note_on_c, 9, 42, 95
1, 170759, Note_on_c, 9, 54, 0
1, 170759, Note_on_c, 9, 46, 0
1, 170759, Note_on_c, 9, 42, 0
1, 170775, Note_on_c, 9, 42, 100
1, 170819, Note_on_c, 9, 42, 0
1, 170880, Note_on_c, 9, 54, 63
1, 170880, Note_on_c, 9, 42, 91
1, 170880, Note_on_c, 9, 36, 127
1, 171119, Note_on_c, 9, 54, 0
1, 171119, Note_on_c, 9, 42, 0
1, 171120, Note_on_c, 9, 54, 71
1, 171120, Note_on_c, 9, 42, 65
1, 171239, Note_on_c, 9, 36, 0
1, 171239, Note_on_c, 9, 54, 0
1, 171239, Note_on_c, 9, 42, 0
1, 171255, Note_on_c, 9, 46, 68
1, 171255, Note_on_c, 9, 44, 28
1, 171255, Note_on_c, 9, 36, 122
1, 171299, Note_on_c, 9, 46, 0
1, 171299, Note_on_c, 9, 44, 0
1, 171299, Note_on_c, 9, 36, 0
1, 171360, Note_on_c, 9, 38, 94
1, 171360, Note_on_c, 9, 54, 95
1, 171360, Note_on_c, 9, 62, 127
1, 171360, Note_on_c, 9, 42, 83
1, 171479, Note_on_c, 9, 38, 0
1, 171479, Note_on_c, 9, 54, 0
1, 171479, Note_on_c, 9, 62, 0
1, 171479, Note_on_c, 9, 42, 0
1, 171495, Note_on_c, 9, 42, 83
1, 171539, Note_on_c, 9, 42, 0
1, 171600, Note_on_c, 9, 54, 46
1, 171600, Note_on_c, 9, 42, 95
1, 171600, Note_on_c, 9, 36, 127
1, 171719, Note_on_c, 9, 54, 0
1, 171719, Note_on_c, 9, 42, 0
1, 171735, Note_on_c, 9, 42, 95
1, 171779, Note_on_c, 9, 42, 0
1, 171839, Note_on_c, 9, 36, 0
1, 171840, Note_on_c, 9, 54, 73
1, 171840, Note_on_c, 9, 42, 87
1, 171840, Note_on_c, 9, 36, 88
1, 172079, Note_on_c, 9, 54, 0
1, 172079, Note_on_c, 9, 42, 0
1, 172079, Note_on_c, 9, 36, 0
1, 172080, Note_on_c, 9, 54, 71
1, 172080, Note_on_c, 9, 42, 87
1, 172080, Note_on_c, 9, 36, 127
1, 172199, Note_on_c, 9, 54, 0
1, 172199, Note_on_c, 9, 42, 0
1, 172215, Note_on_c, 9, 42, 100
1, 172259, Note_on_c, 9, 42, 0
1, 172319, Note_on_c, 9, 36, 0
1, 172320, Note_on_c, 9, 38, 127
1, 172320, Note_on_c, 9, 54, 41
1, 172320, Note_on_c, 9, 62, 127
1, 172320, Note_on_c, 9, 42, 87
1, 172439, Note_on_c, 9, 38, 0
1, 172439, Note_on_c, 9, 54, 0
1, 172439, Note_on_c, 9, 62, 0
1, 172439, Note_on_c, 9, 42, 0
1, 172455, Note_on_c, 9, 42, 100
1, 172499, Note_on_c, 9, 42, 0
1, 172560, Note_on_c, 9, 54, 38
1, 172560, Note_on_c, 9, 46, 110
1, 172560, Note_on_c, 9, 42, 95
1, 172679, Note_on_c, 9, 54, 0
1, 172679, Note_on_c, 9, 46, 0
1, 172679, Note_on_c, 9, 42, 0
1, 172695, Note_on_c, 9, 42, 100
1, 172739, Note_on_c, 9, 42, 0
1, 172800, Note_on_c, 9, 54, 63
1, 172800, Note_on_c, 9, 42, 91
1, 172800, Note_on_c, 9, 36, 127
1, 173039, Note_on_c, 9, 54, 0
1, 173039, Note_on_c, 9, 42, 0
1, 173040, Note_on_c, 9, 54, 71
1, 173040, Note_on_c, 9, 42, 65
1, 173159, Note_on_c, 9, 36, 0
1, 173159, Note_on_c, 9, 54, 0
1, 173159, Note_on_c, 9, 42, 0
1, 173175, Note_on_c, 9, 46, 68
1, 173175, Note_on_c, 9, 44, 28
1, 173175, Note_on_c, 9, 36, 122
1, 173219, Note_on_c, 9, 46, 0
1, 173219, Note_on_c, 9, 44, 0
1, 173219, Note_on_c, 9, 36, 0
1, 173280, Note_on_c, 9, 38, 94
1, 173280, Note_on_c, 9, 54, 95
1, 173280, Note_on_c, 9, 62, 127
1, 173280, Note_on_c, 9, 42, 83
1, 173399, Note_on_c, 9, 38, 0
1, 173399, Note_on_c, 9, 54, 0
1, 173399, Note_on_c, 9, 62, 0
1, 173399, Note_on_c, 9, 42, 0
1, 173415, Note_on_c, 9, 42, 83
1, 173459, Note_on_c, 9, 42, 0
1, 173520, Note_on_c, 9, 54, 46
1, 173520, Note_on_c, 9, 42, 95
1, 173520, Note_on_c, 9, 36, 127
1, 173639, Note_on_c, 9, 54, 0
1, 173639, Note_on_c, 9, 42, 0
1, 173655, Note_on_c, 9, 42, 95
1, 173699, Note_on_c, 9, 42, 0
1, 173759, Note_on_c, 9, 36, 0
1, 173760, Note_on_c, 9, 54, 73
1, 173760, Note_on_c, 9, 42, 87
1, 173760, Note_on_c, 9, 36, 94
1, 173999, Note_on_c, 9, 54, 0
1, 173999, Note_on_c, 9, 42, 0
1, 173999, Note_on_c, 9, 36, 0
1, 174000, Note_on_c, 9, 54, 71
1, 174000, Note_on_c, 9, 42, 87
1, 174000, Note_on_c, 9, 36, 127
1, 174119, Note_on_c, 9, 54, 0
1, 174119, Note_on_c, 9, 42, 0
1, 174135, Note_on_c, 9, 42, 100
1, 174179, Note_on_c, 9, 42, 0
1, 174239, Note_on_c, 9, 36, 0
1, 174240, Note_on_c, 9, 38, 127
1, 174240, Note_on_c, 9, 54, 41
1, 174240, Note_on_c, 9, 62, 127
1, 174240, Note_on_c, 9, 42, 87
1, 174359, Note_on_c, 9, 38, 0
1, 174359, Note_on_c, 9, 54, 0
1, 174359, Note_on_c, 9, 62, 0
1, 174359, Note_on_c, 9, 42, 0
1, 174375, Note_on_c, 9, 42, 100
1, 174419, Note_on_c, 9, 42, 0
1, 174480, Note_on_c, 9, 54, 38
1, 174480, Note_on_c, 9, 46, 110
1, 174480, Note_on_c, 9, 42, 95
1, 174599, Note_on_c, 9, 54, 0
1, 174599, Note_on_c, 9, 46, 0
1, 174599, Note_on_c, 9, 42, 0
1, 174615, Note_on_c, 9, 42, 100
1, 174659, Note_on_c, 9, 42, 0
1, 174720, Note_on_c, 9, 54, 63
1, 174720, Note_on_c, 9, 42, 91
1, 174720, Note_on_c, 9, 52, 104
1, 174720, Note_on_c, 9, 36, 107
1, 174959, Note_on_c, 9, 54, 0
1, 174959, Note_on_c, 9, 42, 0
1, 174959, Note_on_c, 9, 52, 0
1, 174960, Note_on_c, 9, 54, 71
1, 174960, Note_on_c, 9, 42, 65
1, 175079, Note_on_c, 9, 36, 0
1, 175079, Note_on_c, 9, 54, 0
1, 175079, Note_on_c, 9, 42, 0
1, 175095, Note_on_c, 9, 46, 68
1, 175095, Note_on_c, 9, 44, 28
1, 175095, Note_on_c, 9, 36, 122
1, 175139, Note_on_c, 9, 46, 0
1, 175139, Note_on_c, 9, 44, 0
1, 175139, Note_on_c, 9, 36, 0
1, 175200, Note_on_c, 9, 38, 94
1, 175200, Note_on_c, 9, 54, 95
1, 175200, Note_on_c, 9, 62, 127
1, 175200, Note_on_c, 9, 42, 83
1, 175319, Note_on_c, 9, 38, 0
1, 175319, Note_on_c, 9, 54, 0
1, 175319, Note_on_c, 9, 62, 0
1, 175319, Note_on_c, 9, 42, 0
1, 175335, Note_on_c, 9, 42, 83
1, 175379, Note_on_c, 9, 42, 0
1, 175440, Note_on_c, 9, 54, 46
1, 175440, Note_on_c, 9, 42, 95
1, 175440, Note_on_c, 9, 36, 127
1, 175559, Note_on_c, 9, 54, 0
1, 175559, Note_on_c, 9, 42, 0
1, 175575, Note_on_c, 9, 42, 95
1, 175619, Note_on_c, 9, 42, 0
1, 175679, Note_on_c, 9, 36, 0
1, 175680, Note_on_c, 9, 54, 73
1, 175680, Note_on_c, 9, 42, 87
1, 175680, Note_on_c, 9, 36, 79
1, 175919, Note_on_c, 9, 54, 0
1, 175919, Note_on_c, 9, 42, 0
1, 175919, Note_on_c, 9, 36, 0
1, 175920, Note_on_c, 9, 54, 71
1, 175920, Note_on_c, 9, 42, 87
1, 175920, Note_on_c, 9, 36, 127
1, 176039, Note_on_c, 9, 54, 0
1, 176039, Note_on_c, 9, 42, 0
1, 176055, Note_on_c, 9, 42, 100
1, 176099, Note_on_c, 9, 42, 0
1, 176159, Note_on_c, 9, 36, 0
1, 176160, Note_on_c, 9, 38, 127
1, 176160, Note_on_c, 9, 54, 41
1, 176160, Note_on_c, 9, 62, 127
1, 176160, Note_on_c, 9, 42, 87
1, 176279, Note_on_c, 9, 38, 0
1, 176279, Note_on_c, 9, 54, 0
1, 176279, Note_on_c, 9, 62, 0
1, 176279, Note_on_c, 9, 42, 0
1, 176295, Note_on_c, 9, 42, 100
1, 176339, Note_on_c, 9, 42, 0
1, 176400, Note_on_c, 9, 54, 38
1, 176400, Note_on_c, 9, 46, 110
1, 176400, Note_on_c, 9, 42, 95
1, 176519, Note_on_c, 9, 54, 0
1, 176519, Note_on_c, 9, 46, 0
1, 176519, Note_on_c, 9, 42, 0
1, 176535, Note_on_c, 9, 42, 100
1, 176579, Note_on_c, 9, 42, 0
1, 176640, Note_on_c, 9, 54, 63
1, 176640, Note_on_c, 9, 42, 91
1, 176640, Note_on_c, 9, 36, 127
1, 176879, Note_on_c, 9, 54, 0
1, 176879, Note_on_c, 9, 42, 0
1, 176880, Note_on_c, 9, 54, 71
1, 176880, Note_on_c, 9, 42, 65
1, 176999, Note_on_c, 9, 36, 0
1, 176999, Note_on_c, 9, 54, 0
1, 176999, Note_on_c, 9, 42, 0
1, 177015, Note_on_c, 9, 46, 68
1, 177015, Note_on_c, 9, 44, 28
1, 177015, Note_on_c, 9, 36, 122
1, 177059, Note_on_c, 9, 46, 0
1, 177059, Note_on_c, 9, 44, 0
1, 177059, Note_on_c, 9, 36, 0
1, 177120, Note_on_c, 9, 38, 94
1, 177120, Note_on_c, 9, 54, 95
1, 177120, Note_on_c, 9, 62, 127
1, 177120, Note_on_c, 9, 42, 83
1, 177239, Note_on_c, 9, 38, 0
1, 177239, Note_on_c, 9, 54, 0
1, 177239, Note_on_c, 9, 62, 0
1, 177239, Note_on_c, 9, 42, 0
1, 177255, Note_on_c, 9, 42, 83
1, 177299, Note_on_c, 9, 42, 0
1, 177360, Note_on_c, 9, 54, 46
1, 177360, Note_on_c, 9, 42, 95
1, 177360, Note_on_c, 9, 36, 127
1, 177479, Note_on_c, 9, 54, 0
1, 177479, Note_on_c, 9, 42, 0
1, 177495, Note_on_c, 9, 42, 95
1, 177539, Note_on_c, 9, 42, 0
1, 177599, Note_on_c, 9, 36, 0
1, 177600, Note_on_c, 9, 54, 73
1, 177600, Note_on_c, 9, 42, 87
1, 177600, Note_on_c, 9, 36, 97
1, 177839, Note_on_c, 9, 54, 0
1, 177839, Note_on_c, 9, 42, 0
1, 177839, Note_on_c, 9, 36, 0
1, 177840, Note_on_c, 9, 54, 71
1, 177840, Note_on_c, 9, 42, 87
1, 177840, Note_on_c, 9, 36, 127
1, 177959, Note_on_c, 9, 54, 0
1, 177959, Note_on_c, 9, 42, 0
1, 177975, Note_on_c, 9, 42, 100
1, 178019, Note_on_c, 9, 42, 0
1, 178079, Note_on_c, 9, 36, 0
1, 178080, Note_on_c, 9, 38, 127
1, 178080, Note_on_c, 9, 54, 41
1, 178080, Note_on_c, 9, 62, 127
1, 178080, Note_on_c, 9, 42, 87
1, 178199, Note_on_c, 9, 38, 0
1, 178199, Note_on_c, 9, 54, 0
1, 178199, Note_on_c, 9, 62, 0
1, 178199, Note_on_c, 9, 42, 0
1, 178215, Note_on_c, 9, 42, 100
1, 178259, Note_on_c, 9, 42, 0
1, 178320, Note_on_c, 9, 54, 38
1, 178320, Note_on_c, 9, 46, 110
1, 178320, Note_on_c, 9, 42, 95
1, 178439, Note_on_c, 9, 54, 0
1, 178439, Note_on_c, 9, 46, 0
1, 178439, Note_on_c, 9, 42, 0
1, 178455, Note_on_c, 9, 42, 100
1, 178499, Note_on_c, 9, 42, 0
1, 178560, Note_on_c, 9, 54, 63
1, 178560, Note_on_c, 9, 42, 91
1, 178560, Note_on_c, 9, 36, 127
1, 178799, Note_on_c, 9, 54, 0
1, 178799, Note_on_c, 9, 42, 0
1, 178800, Note_on_c, 9, 54, 71
1, 178800, Note_on_c, 9, 42, 65
1, 178919, Note_on_c, 9, 36, 0
1, 178919, Note_on_c, 9, 54, 0
1, 178919, Note_on_c, 9, 42, 0
1, 178935, Note_on_c, 9, 46, 68
1, 178935, Note_on_c, 9, 44, 28
1, 178935, Note_on_c, 9, 36, 122
1, 178979, Note_on_c, 9, 46, 0
1, 178979, Note_on_c, 9, 44, 0
1, 178979, Note_on_c, 9, 36, 0
1, 179040, Note_on_c, 9, 38, 94
1, 179040, Note_on_c, 9, 54, 95
1, 179040, Note_on_c, 9, 62, 127
1, 179040, Note_on_c, 9, 42, 83
1, 179159, Note_on_c, 9, 38, 0
1, 179159, Note_on_c, 9, 54, 0
1, 179159, Note_on_c, 9, 62, 0
1, 179159, Note_on_c, 9, 42, 0
1, 179175, Note_on_c, 9, 42, 83
1, 179219, Note_on_c, 9, 42, 0
1, 179280, Note_on_c, 9, 54, 46
1, 179280, Note_on_c, 9, 42, 95
1, 179280, Note_on_c, 9, 36, 127
1, 179399, Note_on_c, 9, 54, 0
1, 179399, Note_on_c, 9, 42, 0
1, 179415, Note_on_c, 9, 42, 95
1, 179459, Note_on_c, 9, 42, 0
1, 179519, Note_on_c, 9, 36, 0
1, 179520, Note_on_c, 9, 54, 73
1, 179520, Note_on_c, 9, 42, 87
1, 179520, Note_on_c, 9, 36, 88
1, 179759, Note_on_c, 9, 54, 0
1, 179759, Note_on_c, 9, 42, 0
1, 179759, Note_on_c, 9, 36, 0
1, 179760, Note_on_c, 9, 54, 71
1, 179760, Note_on_c, 9, 42, 87
1, 179760, Note_on_c, 9, 36, 127
1, 179879, Note_on_c, 9, 54, 0
1, 179879, Note_on_c, 9, 42, 0
1, 179895, Note_on_c, 9, 42, 100
1, 179939, Note_on_c, 9, 42, 0
1, 179999, Note_on_c, 9, 36, 0
1, 180000, Note_on_c, 9, 38, 127
1, 180000, Note_on_c, 9, 54, 41
1, 180000, Note_on_c, 9, 62, 127
1, 180000, Note_on_c, 9, 42, 87
1, 180119, Note_on_c, 9, 38, 0
1, 180119, Note_on_c, 9, 54, 0
1, 180119, Note_on_c, 9, 62, 0
1, 180119, Note_on_c, 9, 42, 0
1, 180135, Note_on_c, 9, 42, 100
1, 180179, Note_on_c, 9, 42, 0
1, 180240, Note_on_c, 9, 54, 38
1, 180240, Note_on_c, 9, 46, 110
1, 180240, Note_on_c, 9, 42, 95
1, 180359, Note_on_c, 9, 54, 0
1, 180359, Note_on_c, 9, 46, 0
1, 180359, Note_on_c, 9, 42, 0
1, 180375, Note_on_c, 9, 42, 100
1, 180419, Note_on_c, 9, 42, 0
1, 180480, Note_on_c, 9, 54, 63
1, 180480, Note_on_c, 9, 42, 91
1, 180480, Note_on_c, 9, 36, 127
1, 180719, Note_on_c, 9, 54, 0
1, 180719, Note_on_c, 9, 42, 0
1, 180720, Note_on_c, 9, 54, 71
1, 180720, Note_on_c, 9, 42, 65
1, 180839, Note_on_c, 9, 36, 0
1, 180839, Note_on_c, 9, 54, 0
1, 180839, Note_on_c, 9, 42, 0
1, 180855, Note_on_c, 9, 46, 68
1, 180855, Note_on_c, 9, 44, 28
1, 180855, Note_on_c, 9, 36, 122
1, 180899, Note_on_c, 9, 46, 0
1, 180899, Note_on_c, 9, 44, 0
1, 180899, Note_on_c, 9, 36, 0
1, 180960, Note_on_c, 9, 38, 94
1, 180960, Note_on_c, 9, 54, 95
1, 180960, Note_on_c, 9, 62, 127
1, 180960, Note_on_c, 9, 42, 83
1, 181079, Note_on_c, 9, 38, 0
1, 181079, Note_on_c, 9, 54, 0
1, 181079, Note_on_c, 9, 62, 0
1, 181079, Note_on_c, 9, 42, 0
1, 181095, Note_on_c, 9, 42, 83
1, 181139, Note_on_c, 9, 42, 0
1, 181200, Note_on_c, 9, 54, 46
1, 181200, Note_on_c, 9, 42, 95
1, 181200, Note_on_c, 9, 36, 127
1, 181319, Note_on_c, 9, 54, 0
1, 181319, Note_on_c, 9, 42, 0
1, 181335, Note_on_c, 9, 42, 95
1, 181379, Note_on_c, 9, 42, 0
1, 181439, Note_on_c, 9, 36, 0
1, 181440, Note_on_c, 9, 54, 73
1, 181440, Note_on_c, 9, 42, 87
1, 181440, Note_on_c, 9, 36, 94
1, 181679, Note_on_c, 9, 54, 0
1, 181679, Note_on_c, 9, 42, 0
1, 181679, Note_on_c, 9, 36, 0
1, 181680, Note_on_c, 9, 54, 71
1, 181680, Note_on_c, 9, 42, 87
1, 181680, Note_on_c, 9, 36, 127
1, 181799, Note_on_c, 9, 54, 0
1, 181799, Note_on_c, 9, 42, 0
1, 181815, Note_on_c, 9, 42, 100
1, 181859, Note_on_c, 9, 42, 0
1, 181919, Note_on_c, 9, 36, 0
1, 181920, Note_on_c, 9, 38, 127
1, 181920, Note_on_c, 9, 54, 41
1, 181920, Note_on_c, 9, 62, 127
1, 181920, Note_on_c, 9, 42, 87
1, 182039, Note_on_c, 9, 38, 0
1, 182039, Note_on_c, 9, 54, 0
1, 182039, Note_on_c, 9, 62, 0
1, 182039, Note_on_c, 9, 42, 0
1, 182055, Note_on_c, 9, 42, 100
1, 182099, Note_on_c, 9, 42, 0
1, 182160, Note_on_c, 9, 54, 38
1, 182160, Note_on_c, 9, 46, 110
1, 182160, Note_on_c, 9, 42, 95
1, 182279, Note_on_c, 9, 54, 0
1, 182279, Note_on_c, 9, 46, 0
1, 182279, Note_on_c, 9, 42, 0
1, 182295, Note_on_c, 9, 42, 100
1, 182339, Note_on_c, 9, 42, 0
1, 182400, Note_on_c, 9, 54, 58
1, 182400, Note_on_c, 9, 42, 86
1, 182400, Note_on_c, 9, 36, 122
1, 182639, Note_on_c, 9, 54, 0
1, 182639, Note_on_c, 9, 42, 0
1, 182640, Note_on_c, 9, 54, 66
1, 182640, Note_on_c, 9, 42, 60
1, 182759, Note_on_c, 9, 36, 0
1, 182759, Note_on_c, 9, 54, 0
1, 182759, Note_on_c, 9, 42, 0
1, 182775, Note_on_c, 9, 46, 63
1, 182775, Note_on_c, 9, 44, 23
1, 182775, Note_on_c, 9, 36, 117
1, 182819, Note_on_c, 9, 46, 0
1, 182819, Note_on_c, 9, 44, 0
1, 182819, Note_on_c, 9, 36, 0
1, 182880, Note_on_c, 9, 38, 89
1, 182880, Note_on_c, 9, 54, 90
1, 182880, Note_on_c, 9, 62, 122
1, 182880, Note_on_c, 9, 42, 78
1, 182999, Note_on_c, 9, 38, 0
1, 182999, Note_on_c, 9, 54, 0
1, 182999, Note_on_c, 9, 62, 0
1, 182999, Note_on_c, 9, 42, 0
1, 183015, Note_on_c, 9, 42, 78
1, 183059, Note_on_c, 9, 42, 0
1, 183120, Note_on_c, 9, 54, 41
1, 183120, Note_on_c, 9, 42, 90
1, 183120, Note_on_c, 9, 36, 122
1, 183239, Note_on_c, 9, 54, 0
1, 183239, Note_on_c, 9, 42, 0
1, 183255, Note_on_c, 9, 42, 90
1, 183299, Note_on_c, 9, 42, 0
1, 183359, Note_on_c, 9, 36, 0
1, 183360, Note_on_c, 9, 54, 68
1, 183360, Note_on_c, 9, 42, 82
1, 183360, Note_on_c, 9, 36, 89
1, 183599, Note_on_c, 9, 54, 0
1, 183599, Note_on_c, 9, 42, 0
1, 183599, Note_on_c, 9, 36, 0
1, 183600, Note_on_c, 9, 54, 66
1, 183600, Note_on_c, 9, 42, 82
1, 183600, Note_on_c, 9, 36, 122
1, 183719, Note_on_c, 9, 54, 0
1, 183719, Note_on_c, 9, 42, 0
1, 183735, Note_on_c, 9, 42, 95
1, 183779, Note_on_c, 9, 42, 0
1, 183839, Note_on_c, 9, 36, 0
1, 183840, Note_on_c, 9, 38, 122
1, 183840, Note_on_c, 9, 54, 36
1, 183840, Note_on_c, 9, 62, 122
1, 183840, Note_on_c, 9, 42, 82
1, 183959, Note_on_c, 9, 38, 0
1, 183959, Note_on_c, 9, 54, 0
1, 183959, Note_on_c, 9, 62, 0
1, 183959, Note_on_c, 9, 42, 0
1, 183975, Note_on_c, 9, 42, 95
1, 184019, Note_on_c, 9, 42, 0
1, 184080, Note_on_c, 9, 54, 33
1, 184080, Note_on_c, 9, 46, 105
1, 184080, Note_on_c, 9, 42, 90
1, 184199, Note_on_c, 9, 54, 0
1, 184199, Note_on_c, 9, 46, 0
1, 184199, Note_on_c, 9, 42, 0
1, 184215, Note_on_c, 9, 42, 95
1, 184259, Note_on_c, 9, 42, 0
1, 184320, Note_on_c, 9, 54, 58
1, 184320, Note_on_c, 9, 42, 86
1, 184320, Note_on_c, 9, 36, 122
1, 184559, Note_on_c, 9, 54, 0
1, 184559, Note_on_c, 9, 42, 0
1, 184560, Note_on_c, 9, 54, 66
1, 184560, Note_on_c, 9, 42, 60
1, 184679, Note_on_c, 9, 36, 0
1, 184679, Note_on_c, 9, 54, 0
1, 184679, Note_on_c, 9, 42, 0
1, 184695, Note_on_c, 9, 46, 63
1, 184695, Note_on_c, 9, 44, 23
1, 184695, Note_on_c, 9, 36, 117
1, 184739, Note_on_c, 9, 46, 0
1, 184739, Note_on_c, 9, 44, 0
1, 184739, Note_on_c, 9, 36, 0
1, 184800, Note_on_c, 9, 38, 89
1, 184800, Note_on_c, 9, 54, 90
1, 184800, Note_on_c, 9, 62, 122
1, 184800, Note_on_c, 9, 42, 78
1, 184919, Note_on_c, 9, 38, 0
1, 184919, Note_on_c, 9, 54, 0
1, 184919, Note_on_c, 9, 62, 0
1, 184919, Note_on_c, 9, 42, 0
1, 184935, Note_on_c, 9, 42, 78
1, 184979, Note_on_c, 9, 42, 0
1, 185040, Note_on_c, 9, 54, 41
1, 185040, Note_on_c, 9, 42, 90
1, 185040, Note_on_c, 9, 36, 122
1, 185159, Note_on_c, 9, 54, 0
1, 185159, Note_on_c, 9, 42, 0
1, 185175, Note_on_c, 9, 42, 90
1, 185219, Note_on_c, 9, 42, 0
1, 185279, Note_on_c, 9, 36, 0
1, 185280, Note_on_c, 9, 54, 68
1, 185280, Note_on_c, 9, 42, 82
1, 185280, Note_on_c, 9, 36, 86
1, 185519, Note_on_c, 9, 54, 0
1, 185519, Note_on_c, 9, 42, 0
1, 185519, Note_on_c, 9, 36, 0
1, 185520, Note_on_c, 9, 54, 66
1, 185520, Note_on_c, 9, 42, 82
1, 185520, Note_on_c, 9, 36, 122
1, 185639, Note_on_c, 9, 54, 0
1, 185639, Note_on_c, 9, 42, 0
1, 185655, Note_on_c, 9, 42, 95
1, 185699, Note_on_c, 9, 42, 0
1, 185759, Note_on_c, 9, 36, 0
1, 185760, Note_on_c, 9, 38, 122
1, 185760, Note_on_c, 9, 54, 36
1, 185760, Note_on_c, 9, 62, 122
1, 185760, Note_on_c, 9, 42, 82
1, 185879, Note_on_c, 9, 38, 0
1, 185879, Note_on_c, 9, 54, 0
1, 185879, Note_on_c, 9, 62, 0
1, 185879, Note_on_c, 9, 42, 0
1, 185895, Note_on_c, 9, 42, 95
1, 185939, Note_on_c, 9, 42, 0
1, 186000, Note_on_c, 9, 54, 33
1, 186000, Note_on_c, 9, 46, 105
1, 186000, Note_on_c, 9, 42, 90
1, 186119, Note_on_c, 9, 54, 0
1, 186119, Note_on_c, 9, 46, 0
1, 186119, Note_on_c, 9, 42, 0
1, 186135, Note_on_c, 9, 42, 95
1, 186179, Note_on_c, 9, 42, 0
1, 186240, Note_on_c, 9, 54, 58
1, 186240, Note_on_c, 9, 42, 86
1, 186240, Note_on_c, 9, 36, 122
1, 186479, Note_on_c, 9, 54, 0
1, 186479, Note_on_c, 9, 42, 0
1, 186480, Note_on_c, 9, 54, 66
1, 186480, Note_on_c, 9, 42, 60
1, 186599, Note_on_c, 9, 36, 0
1, 186599, Note_on_c, 9, 54, 0
1, 186599, Note_on_c, 9, 42, 0
1, 186615, Note_on_c, 9, 46, 63
1, 186615, Note_on_c, 9, 44, 23
1, 186615, Note_on_c, 9, 36, 117
1, 186659, Note_on_c, 9, 46, 0
1, 186659, Note_on_c, 9, 44, 0
1, 186659, Note_on_c, 9, 36, 0
1, 186720, Note_on_c, 9, 38, 89
1, 186720, Note_on_c, 9, 54, 90
1, 186720, Note_on_c, 9, 62, 122
1, 186720, Note_on_c, 9, 42, 78
1, 186839, Note_on_c, 9, 38, 0
1, 186839, Note_on_c, 9, 54, 0
1, 186839, Note_on_c, 9, 62, 0
1, 186839, Note_on_c, 9, 42, 0
1, 186855, Note_on_c, 9, 42, 78
1, 186899, Note_on_c, 9, 42, 0
1, 186960, Note_on_c, 9, 54, 41
1, 186960, Note_on_c, 9, 42, 90
1, 186960, Note_on_c, 9, 36, 122
1, 187079, Note_on_c, 9, 54, 0
1, 187079, Note_on_c, 9, 42, 0
1, 187095, Note_on_c, 9, 42, 90
1, 187139, Note_on_c, 9, 42, 0
1, 187199, Note_on_c, 9, 36, 0
1, 187200, Note_on_c, 9, 54, 68
1, 187200, Note_on_c, 9, 42, 82
1, 187439, Note_on_c, 9, 54, 0
1, 187439, Note_on_c, 9, 42, 0
1, 187440, Note_on_c, 9, 54, 66
1, 187440, Note_on_c, 9, 42, 82
1, 187440, Note_on_c, 9, 36, 122
1, 187559, Note_on_c, 9, 54, 0
1, 187559, Note_on_c, 9, 42, 0
1, 187575, Note_on_c, 9, 42, 95
1, 187619, Note_on_c, 9, 42, 0
1, 187679, Note_on_c, 9, 36, 0
1, 187680, Note_on_c, 9, 38, 122
1, 187680, Note_on_c, 9, 54, 36
1, 187680, Note_on_c, 9, 62, 122
1, 187680, Note_on_c, 9, 42, 82
1, 187799, Note_on_c, 9, 38, 0
1, 187799, Note_on_c, 9, 54, 0
1, 187799, Note_on_c, 9, 62, 0
1, 187799, Note_on_c, 9, 42, 0
1, 187815, Note_on_c, 9, 42, 95
1, 187859, Note_on_c, 9, 42, 0
1, 187920, Note_on_c, 9, 54, 33
1, 187920, Note_on_c, 9, 46, 105
1, 187920, Note_on_c, 9, 42, 90
1, 188039, Note_on_c, 9, 54, 0
1, 188039, Note_on_c, 9, 46, 0
1, 188039, Note_on_c, 9, 42, 0
1, 188055, Note_on_c, 9, 42, 95
1, 188099, Note_on_c, 9, 42, 0
1, 188160, Note_on_c, 9, 54, 58
1, 188160, Note_on_c, 9, 42, 86
1, 188160, Note_on_c, 9, 36, 122
1, 188399, Note_on_c, 9, 54, 0
1, 188399, Note_on_c, 9, 42, 0
1, 188400, Note_on_c, 9, 54, 66
1, 188400, Note_on_c, 9, 42, 60
1, 188519, Note_on_c, 9, 36, 0
1, 188519, Note_on_c, 9, 54, 0
1, 188519, Note_on_c, 9, 42, 0
1, 188535, Note_on_c, 9, 46, 63
1, 188535, Note_on_c, 9, 44, 23
1, 188535, Note_on_c, 9, 36, 117
1, 188579, Note_on_c, 9, 46, 0
1, 188579, Note_on_c, 9, 44, 0
1, 188579, Note_on_c, 9, 36, 0
1, 188640, Note_on_c, 9, 38, 89
1, 188640, Note_on_c, 9, 54, 90
1, 188640, Note_on_c, 9, 62, 122
1, 188640, Note_on_c, 9, 42, 78
1, 188759, Note_on_c, 9, 38, 0
1, 188759, Note_on_c, 9, 54, 0
1, 188759, Note_on_c, 9, 62, 0
1, 188759, Note_on_c, 9, 42, 0
1, 188775, Note_on_c, 9, 42, 78
1, 188819, Note_on_c, 9, 42, 0
1, 188880, Note_on_c, 9, 54, 41
1, 188880, Note_on_c, 9, 42, 90
1, 188880, Note_on_c, 9, 36, 122
1, 188999, Note_on_c, 9, 54, 0
1, 188999, Note_on_c, 9, 42, 0
1, 189015, Note_on_c, 9, 42, 90
1, 189059, Note_on_c, 9, 42, 0
1, 189119, Note_on_c, 9, 36, 0
1, 189120, Note_on_c, 9, 54, 68
1, 189120, Note_on_c, 9, 42, 82
1, 189120, Note_on_c, 9, 36, 74
1, 189359, Note_on_c, 9, 54, 0
1, 189359, Note_on_c, 9, 42, 0
1, 189359, Note_on_c, 9, 36, 0
1, 189360, Note_on_c, 9, 54, 66
1, 189360, Note_on_c, 9, 42, 82
1, 189360, Note_on_c, 9, 36, 122
1, 189479, Note_on_c, 9, 54, 0
1, 189479, Note_on_c, 9, 42, 0
1, 189495, Note_on_c, 9, 42, 95
1, 189539, Note_on_c, 9, 42, 0
1, 189599, Note_on_c, 9, 36, 0
1, 189600, Note_on_c, 9, 38, 122
1, 189600, Note_on_c, 9, 54, 36
1, 189600, Note_on_c, 9, 62, 122
1, 189600, Note_on_c, 9, 42, 82
1, 189719, Note_on_c, 9, 38, 0
1, 189719, Note_on_c, 9, 54, 0
1, 189719, Note_on_c, 9, 62, 0
1, 189719, Note_on_c, 9, 42, 0
1, 189735, Note_on_c, 9, 42, 95
1, 189779, Note_on_c, 9, 42, 0
1, 189840, Note_on_c, 9, 54, 33
1, 189840, Note_on_c, 9, 46, 105
1, 189840, Note_on_c, 9, 42, 90
1, 189959, Note_on_c, 9, 54, 0
1, 189959, Note_on_c, 9, 46, 0
1, 189959, Note_on_c, 9, 42, 0
1, 189975, Note_on_c, 9, 42, 95
1, 190019, Note_on_c, 9, 42, 0
1, 190080, Note_on_c, 9, 54, 95
1, 190319, Note_on_c, 9, 54, 0
1, 190320, Note_on_c, 9, 54, 44
1, 190559, Note_on_c, 9, 54, 0
1, 190560, Note_on_c, 9, 54, 87
1, 190799, Note_on_c, 9, 54, 0
1, 190800, Note_on_c, 9, 54, 36
1, 191039, Note_on_c, 9, 54, 0
1, 191040, Note_on_c, 9, 54, 55
1, 191279, Note_on_c, 9, 54, 0
1, 191280, Note_on_c, 9, 54, 76
1, 191519, Note_on_c, 9, 54, 0
1, 191520, Note_on_c, 9, 54, 41
1, 191759, Note_on_c, 9, 54, 0
1, 191760, Note_on_c, 9, 54, 68
1, 191999, Note_on_c, 9, 54, 0
1, 192000, Note_on_c, 9, 54, 38
1, 192239, Note_on_c, 9, 54, 0
1, 192240, Note_on_c, 9, 54, 35
1, 192479, Note_on_c, 9, 54, 0
1, 192480, Note_on_c, 9, 54, 83
1, 192719, Note_on_c, 9, 54, 0
1, 192720, Note_on_c, 9, 54, 33
1, 192959, Note_on_c, 9, 54, 0
1, 192960, Note_on_c, 9, 54, 61
1, 193199, Note_on_c, 9, 54, 0
1, 193200, Note_on_c, 9, 54, 71
1, 193439, Note_on_c, 9, 54, 0
1, 193440, Note_on_c, 9, 54, 31
1, 193679, Note_on_c, 9, 54, 0
1, 193680, Note_on_c, 9, 54, 38
1, 193919, Note_on_c, 9, 54, 0
1, 193920, Note_on_c, 9, 54, 37
1, 194159, Note_on_c, 9, 54, 0
1, 194160, Note_on_c, 9, 54, 34
1, 194399, Note_on_c, 9, 54, 0
1, 194400, Note_on_c, 9, 54, 80
1, 194639, Note_on_c, 9, 54, 0
1, 194640, Note_on_c, 9, 54, 31
1, 194879, Note_on_c, 9, 54, 0
1, 194880, Note_on_c, 9, 54, 63
1, 195119, Note_on_c, 9, 54, 0
1, 195120, Note_on_c, 9, 54, 76
1, 195359, Note_on_c, 9, 54, 0
1, 195360, Note_on_c, 9, 54, 35
1, 195599, Note_on_c, 9, 54, 0
1, 195600, Note_on_c, 9, 54, 32
1, 195839, Note_on_c, 9, 54, 0
1, 195840, Note_on_c, 9, 54, 30
1, 196079, Note_on_c, 9, 54, 0
1, 196080, Note_on_c, 9, 54, 65
1, 196319, Note_on_c, 9, 54, 0
1, 196320, Note_on_c, 9, 54, 73
1, 196559, Note_on_c, 9, 54, 0
1, 196560, Note_on_c, 9, 54, 28
1, 196799, Note_on_c, 9, 54, 0
1, 196800, Note_on_c, 9, 54, 55
1, 197039, Note_on_c, 9, 54, 0
1, 197040, Note_on_c, 9, 54, 76
1, 197279, Note_on_c, 9, 54, 0
1, 197280, Note_on_c, 9, 54, 26
1, 197759, Note_on_c, 9, 54, 0
1, 197760, End_track
2, 0, Start_track
2, 0, Key_signature, 0, "major"
2, 0, Control_c, 15, 121, 0
2, 0, Program_c, 15, 48
2, 0, Control_c, 15, 7, 100
2, 0, Control_c, 15, 10, 64
2, 0, Control_c, 15, 91, 0
2, 0, Control_c, 15, 93, 0
2, 0, MIDI_port, 0
2, 67200, Note_on_c, 15, 36, 127
2, 67439, Note_on_c, 15, 36, 0
2, 67920, Note_on_c, 15, 36, 112
2, 68039, Note_on_c, 15, 36, 0
2, 69120, Note_on_c, 15, 36, 127
2, 69359, Note_on_c, 15, 36, 0
2, 69840, Note_on_c, 15, 36, 112
2, 69959, Note_on_c, 15, 36, 0
2, 71040, Note_on_c, 15, 36, 127
2, 71279, Note_on_c, 15, 36, 0
2, 71760, Note_on_c, 15, 36, 112
2, 71879, Note_on_c, 15, 36, 0
2, 72960, Note_on_c, 15, 36, 127
2, 73199, Note_on_c, 15, 36, 0
2, 73680, Note_on_c, 15, 36, 112
2, 73799, Note_on_c, 15, 36, 0
2, 74880, Note_on_c, 15, 36, 127
2, 75119, Note_on_c, 15, 36, 0
2, 75600, Note_on_c, 15, 36, 112
2, 75719, Note_on_c, 15, 36, 0
2, 76800, Note_on_c, 15, 36, 127
2, 77039, Note_on_c, 15, 36, 0
2, 77520, Note_on_c, 15, 36, 112
2, 77639, Note_on_c, 15, 36, 0
2, 78720, Note_on_c, 15, 36, 127
2, 78959, Note_on_c, 15, 36, 0
2, 79440, Note_on_c, 15, 36, 112
2, 79559, Note_on_c, 15, 36, 0
2, 80640, Note_on_c, 15, 36, 127
2, 80879, Note_on_c, 15, 36, 0
2, 81360, Note_on_c, 15, 36, 112
2, 81479, Note_on_c, 15, 36, 0
2, 82560, Note_on_c, 15, 36, 127
2, 82799, Note_on_c, 15, 36, 0
2, 83280, Note_on_c, 15, 36, 112
2, 83399, Note_on_c, 15, 36, 0
2, 84480, Note_on_c, 15, 36, 127
2, 84719, Note_on_c, 15, 36, 0
2, 85200, Note_on_c, 15, 36, 112
2, 85319, Note_on_c, 15, 36, 0
2, 86400, Note_on_c, 15, 36, 127
2, 86639, Note_on_c, 15, 36, 0
2, 87120, Note_on_c, 15, 36, 112
2, 87239, Note_on_c, 15, 36, 0
2, 88320, Note_on_c, 15, 36, 127
2, 88559, Note_on_c, 15, 36, 0
2, 89040, Note_on_c, 15, 36, 112
2, 89159, Note_on_c, 15, 36, 0
2, 90240, Note_on_c, 15, 36, 127
2, 90479, Note_on_c, 15, 36, 0
2, 90960, Note_on_c, 15, 36, 112
2, 91079, Note_on_c, 15, 36, 0
2, 92160, Note_on_c, 15, 36, 127
2, 92399, Note_on_c, 15, 36, 0
2, 92880, Note_on_c, 15, 36, 112
2, 92999, Note_on_c, 15, 36, 0
2, 94080, Note_on_c, 15, 36, 127
2, 94319, Note_on_c, 15, 36, 0
2, 94800, Note_on_c, 15, 36, 112
2, 94919, Note_on_c, 15, 36, 0
2, 96000, Note_on_c, 15, 36, 127
2, 96239, Note_on_c, 15, 36, 0
2, 96720, Note_on_c, 15, 36, 112
2, 96839, Note_on_c, 15, 36, 0
2, 97920, Note_on_c, 15, 36, 127
2, 98159, Note_on_c, 15, 36, 0
2, 98640, Note_on_c, 15, 36, 112
2, 98759, Note_on_c, 15, 36, 0
2, 99840, Note_on_c, 15, 36, 127
2, 100079, Note_on_c, 15, 36, 0
2, 100560, Note_on_c, 15, 36, 112
2, 100679, Note_on_c, 15, 36, 0
2, 101760, Note_on_c, 15, 36, 127
2, 101999, Note_on_c, 15, 36, 0
2, 102480, Note_on_c, 15, 36, 112
2, 102599, Note_on_c, 15, 36, 0
2, 103680, Note_on_c, 15, 36, 127
2, 103919, Note_on_c, 15, 36, 0
2, 104400, Note_on_c, 15, 36, 112
2, 104519, Note_on_c, 15, 36, 0
2, 105600, Note_on_c, 15, 36, 127
2, 105839, Note_on_c, 15, 36, 0
2, 106320, Note_on_c, 15, 36, 112
2, 106439, Note_on_c, 15, 36, 0
2, 107520, Note_on_c, 15, 36, 127
2, 107759, Note_on_c, 15, 36, 0
2, 108240, Note_on_c, 15, 36, 112
2, 108359, Note_on_c, 15, 36, 0
2, 109440, Note_on_c, 15, 36, 127
2, 109679, Note_on_c, 15, 36, 0
2, 110160, Note_on_c, 15, 36, 112
2, 110279, Note_on_c, 15, 36, 0
2, 111360, Note_on_c, 15, 36, 127
2, 111599, Note_on_c, 15, 36, 0
2, 112080, Note_on_c, 15, 36, 112
2, 112199, Note_on_c, 15, 36, 0
2, 113280, Note_on_c, 15, 36, 122
2, 113519, Note_on_c, 15, 36, 0
2, 114000, Note_on_c, 15, 36, 112
2, 114119, Note_on_c, 15, 36, 0
2, 115200, Note_on_c, 15, 36, 121
2, 115439, Note_on_c, 15, 36, 0
2, 115920, Note_on_c, 15, 36, 112
2, 116039, Note_on_c, 15, 36, 0
2, 117120, Note_on_c, 15, 36, 121
2, 117359, Note_on_c, 15, 36, 0
2, 117840, Note_on_c, 15, 36, 112
2, 117959, Note_on_c, 15, 36, 0
2, 136320, Note_on_c, 15, 36, 127
2, 136559, Note_on_c, 15, 36, 0
2, 137040, Note_on_c, 15, 36, 112
2, 137159, Note_on_c, 15, 36, 0
2, 138240, Note_on_c, 15, 36, 127
2, 138479, Note_on_c, 15, 36, 0
2, 138960, Note_on_c, 15, 36, 112
2, 139079, Note_on_c, 15, 36, 0
2, 140160, Note_on_c, 15, 36, 127
2, 140399, Note_on_c, 15, 36, 0
2, 140880, Note_on_c, 15, 36, 112
2, 140999, Note_on_c, 15, 36, 0
2, 142080, Note_on_c, 15, 36, 127
2, 142319, Note_on_c, 15, 36, 0
2, 142800, Note_on_c, 15, 36, 112
2, 142919, Note_on_c, 15, 36, 0
2, 144000, Note_on_c, 15, 36, 127
2, 144239, Note_on_c, 15, 36, 0
2, 144720, Note_on_c, 15, 36, 112
2, 144839, Note_on_c, 15, 36, 0
2, 145920, Note_on_c, 15, 36, 127
2, 146159, Note_on_c, 15, 36, 0
2, 146640, Note_on_c, 15, 36, 112
2, 146759, Note_on_c, 15, 36, 0
2, 147840, Note_on_c, 15, 36, 127
2, 148079, Note_on_c, 15, 36, 0
2, 148560, Note_on_c, 15, 36, 112
2, 148679, Note_on_c, 15, 36, 0
2, 149760, Note_on_c, 15, 36, 127
2, 149999, Note_on_c, 15, 36, 0
2, 150480, Note_on_c, 15, 36, 112
2, 150599, Note_on_c, 15, 36, 0
2, 151680, Note_on_c, 15, 36, 127
2, 151919, Note_on_c, 15, 36, 0
2, 152400, Note_on_c, 15, 36, 112
2, 152519, Note_on_c, 15, 36, 0
2, 153600, Note_on_c, 15, 36, 127
2, 153839, Note_on_c, 15, 36, 0
2, 154320, Note_on_c, 15, 36, 112
2, 154439, Note_on_c, 15, 36, 0
2, 155520, Note_on_c, 15, 36, 127
2, 155759, Note_on_c, 15, 36, 0
2, 156240, Note_on_c, 15, 36, 112
2, 156359, Note_on_c, 15, 36, 0
2, 157440, Note_on_c, 15, 36, 127
2, 157679, Note_on_c, 15, 36, 0
2, 158160, Note_on_c, 15, 36, 112
2, 158279, Note_on_c, 15, 36, 0
2, 159360, Note_on_c, 15, 36, 127
2, 159599, Note_on_c, 15, 36, 0
2, 160080, Note_on_c, 15, 36, 127
2, 160199, Note_on_c, 15, 36, 0
2, 160560, Note_on_c, 15, 36, 127
2, 160679, Note_on_c, 15, 36, 0
2, 161280, Note_on_c, 15, 36, 127
2, 161459, Note_on_c, 15, 36, 0
2, 161655, Note_on_c, 15, 36, 127
2, 161676, Note_on_c, 15, 36, 0
2, 162000, Note_on_c, 15, 36, 127
2, 162119, Note_on_c, 15, 36, 0
2, 162480, Note_on_c, 15, 36, 126
2, 162599, Note_on_c, 15, 36, 0
2, 163200, Note_on_c, 15, 36, 127
2, 163379, Note_on_c, 15, 36, 0
2, 163575, Note_on_c, 15, 36, 101
2, 163596, Note_on_c, 15, 36, 0
2, 163920, Note_on_c, 15, 36, 127
2, 164039, Note_on_c, 15, 36, 0
2, 164400, Note_on_c, 15, 36, 109
2, 164519, Note_on_c, 15, 36, 0
2, 165120, Note_on_c, 15, 36, 127
2, 165299, Note_on_c, 15, 36, 0
2, 165495, Note_on_c, 15, 36, 127
2, 165516, Note_on_c, 15, 36, 0
2, 165840, Note_on_c, 15, 36, 127
2, 165959, Note_on_c, 15, 36, 0
2, 166320, Note_on_c, 15, 36, 127
2, 166439, Note_on_c, 15, 36, 0
2, 167040, Note_on_c, 15, 36, 127
2, 167279, Note_on_c, 15, 36, 0
2, 167760, Note_on_c, 15, 36, 112
2, 167879, Note_on_c, 15, 36, 0
2, 168960, Note_on_c, 15, 36, 127
2, 169199, Note_on_c, 15, 36, 0
2, 169680, Note_on_c, 15, 36, 112
2, 169799, Note_on_c, 15, 36, 0
2, 170880, Note_on_c, 15, 36, 127
2, 171119, Note_on_c, 15, 36, 0
2, 171600, Note_on_c, 15, 36, 112
2, 171719, Note_on_c, 15, 36, 0
2, 172800, Note_on_c, 15, 36, 127
2, 173039, Note_on_c, 15, 36, 0
2, 173520, Note_on_c, 15, 36, 112
2, 173639, Note_on_c, 15, 36, 0
2, 174720, Note_on_c, 15, 36, 126
2, 174959, Note_on_c, 15, 36, 0
2, 175440, Note_on_c, 15, 36, 107
2, 175559, Note_on_c, 15, 36, 0
2, 176640, Note_on_c, 15, 36, 126
2, 176879, Note_on_c, 15, 36, 0
2, 177360, Note_on_c, 15, 36, 107
2, 177479, Note_on_c, 15, 36, 0
2, 178560, Note_on_c, 15, 36, 126
2, 178799, Note_on_c, 15, 36, 0
2, 179280, Note_on_c, 15, 36, 107
2, 179399, Note_on_c, 15, 36, 0
2, 180480, Note_on_c, 15, 36, 126
2, 180719, Note_on_c, 15, 36, 0
2, 181200, Note_on_c, 15, 36, 107
2, 181319, Note_on_c, 15, 36, 0
2, 182400, Note_on_c, 15, 36, 127
2, 182639, Note_on_c, 15, 36, 0
2, 183120, Note_on_c, 15, 36, 112
2, 183239, Note_on_c, 15, 36, 0
2, 184320, Note_on_c, 15, 36, 127
2, 184559, Note_on_c, 15, 36, 0
2, 185040, Note_on_c, 15, 36, 112
2, 185159, Note_on_c, 15, 36, 0
2, 186240, Note_on_c, 15, 36, 127
2, 186479, Note_on_c, 15, 36, 0
2, 186960, Note_on_c, 15, 36, 112
2, 187079, Note_on_c, 15, 36, 0
2, 188160, Note_on_c, 15, 36, 127
2, 188399, Note_on_c, 15, 36, 0
2, 188880, Note_on_c, 15, 36, 112
2, 188999, Note_on_c, 15, 36, 0
2, 190080, Note_on_c, 15, 36, 85
2, 190319, Note_on_c, 15, 36, 0
2, 190800, Note_on_c, 15, 36, 90
2, 190919, Note_on_c, 15, 36, 0
2, 192000, Note_on_c, 15, 36, 86
2, 192239, Note_on_c, 15, 36, 0
2, 192720, Note_on_c, 15, 36, 90
2, 192839, Note_on_c, 15, 36, 0
2, 193920, Note_on_c, 15, 36, 85
2, 194159, Note_on_c, 15, 36, 0
2, 194640, Note_on_c, 15, 36, 86
2, 194759, Note_on_c, 15, 36, 0
2, 195840, Note_on_c, 15, 36, 81
2, 196079, Note_on_c, 15, 36, 0
2, 196560, Note_on_c, 15, 36, 86
2, 196679, Note_on_c, 15, 36, 0
2, 197760, Note_on_c, 15, 36, 85
2, 197999, Note_on_c, 15, 36, 0
2, 198480, Note_on_c, 15, 36, 84
2, 198599, Note_on_c, 15, 36, 0
2, 199680, Note_on_c, 15, 36, 83
2, 199919, Note_on_c, 15, 36, 0
2, 200400, Note_on_c, 15, 36, 86
2, 200519, Note_on_c, 15, 36, 0
2, 201600, Note_on_c, 15, 36, 86
2, 201839, Note_on_c, 15, 36, 0
2, 202320, Note_on_c, 15, 36, 84
2, 202439, Note_on_c, 15, 36, 0
2, 203520, Note_on_c, 15, 36, 83
2, 203759, Note_on_c, 15, 36, 0
2, 204240, Note_on_c, 15, 36, 85
2, 204359, Note_on_c, 15, 36, 0
2, 204360, End_track
0, 0, End_of_file
