0, 0, Header, 1, 1, 480
1, 0, Start_track
1, 0, Time_signature, 4, 2, 24, 8
1, 0, Key_signature, 0, "major"
1, 0, Tempo, 500000
1, 0, Control_c, 9, 121, 0
1, 0, Program_c, 9, 0
1, 0, Control_c, 9, 7, 100
1, 0, Control_c, 9, 10, 64
1, 0, Control_c, 9, 91, 0
1, 0, Control_c, 9, 93, 0
1, 0, MIDI_port, 0
1, 1920, Note_on_c, 9, 42, 81
1, 2159, Note_on_c, 9, 42, 0
1, 2160, Note_on_c, 9, 42, 57
1, 2399, Note_on_c, 9, 42, 0
1, 2400, Note_on_c, 9, 42, 89
1, 2639, Note_on_c, 9, 42, 0
1, 2640, Note_on_c, 9, 42, 45
1, 2879, Note_on_c, 9, 42, 0
1, 2880, Note_on_c, 9, 42, 89
1, 3119, Note_on_c, 9, 42, 0
1, 3120, Note_on_c, 9, 42, 45
1, 3359, Note_on_c, 9, 42, 0
1, 3360, Note_on_c, 9, 42, 89
1, 3599, Note_on_c, 9, 42, 0
1, 3600, Note_on_c, 9, 42, 45
1, 3839, Note_on_c, 9, 42, 0
1, 3840, Note_on_c, 9, 51, 81
1, 3840, Note_on_c, 9, 36, 120
1, 4079, Note_on_c, 9, 51, 0
1, 4080, Note_on_c, 9, 51, 57
1, 4319, Note_on_c, 9, 36, 0
1, 4319, Note_on_c, 9, 51, 0
1, 4320, Note_on_c, 9, 38, 121
1, 4320, Note_on_c, 9, 39, 120
1, 4320, Note_on_c, 9, 51, 89
1, 4559, Note_on_c, 9, 38, 0
1, 4559, Note_on_c, 9, 39, 0
1, 4559, Note_on_c, 9, 51, 0
1, 4560, Note_on_c, 9, 51, 45
1, 4560, Note_on_c, 9, 36, 120
1, 4799, Note_on_c, 9, 51, 0
1, 4799, Note_on_c, 9, 36, 0
1, 4800, Note_on_c, 9, 51, 89
1, 4800, Note_on_c, 9, 36, 120
1, 5039, Note_on_c, 9, 51, 0
1, 5040, Note_on_c, 9, 51, 45
1, 5279, Note_on_c, 9, 36, 0
1, 5279, Note_on_c, 9, 51, 0
1, 5280, Note_on_c, 9, 38, 121
1, 5280, Note_on_c, 9, 39, 120
1, 5280, Note_on_c, 9, 51, 89
1, 5519, Note_on_c, 9, 38, 0
1, 5519, Note_on_c, 9, 39, 0
1, 5519, Note_on_c, 9, 51, 0
1, 5520, Note_on_c, 9, 51, 45
1, 5520, Note_on_c, 9, 36, 120
1, 5759, Note_on_c, 9, 51, 0
1, 5759, Note_on_c, 9, 36, 0
1, 5760, Note_on_c, 9, 51, 101
1, 5760, Note_on_c, 9, 36, 120
1, 5999, Note_on_c, 9, 51, 0
1, 6000, Note_on_c, 9, 51, 45
1, 6239, Note_on_c, 9, 36, 0
1, 6239, Note_on_c, 9, 51, 0
1, 6240, Note_on_c, 9, 38, 120
1, 6240, Note_on_c, 9, 39, 120
1, 6240, Note_on_c, 9, 51, 113
1, 6479, Note_on_c, 9, 38, 0
1, 6479, Note_on_c, 9, 39, 0
1, 6479, Note_on_c, 9, 51, 0
1, 6480, Note_on_c, 9, 51, 41
1, 6480, Note_on_c, 9, 36, 120
1, 6719, Note_on_c, 9, 51, 0
1, 6719, Note_on_c, 9, 36, 0
1, 6720, Note_on_c, 9, 51, 101
1, 6720, Note_on_c, 9, 36, 120
1, 6959, Note_on_c, 9, 51, 0
1, 6960, Note_on_c, 9, 51, 37
1, 7199, Note_on_c, 9, 36, 0
1, 7199, Note_on_c, 9, 51, 0
1, 7200, Note_on_c, 9, 38, 120
1, 7200, Note_on_c, 9, 39, 120
1, 7200, Note_on_c, 9, 51, 101
1, 7439, Note_on_c, 9, 38, 0
1, 7439, Note_on_c, 9, 39, 0
1, 7439, Note_on_c, 9, 51, 0
1, 7440, Note_on_c, 9, 51, 41
1, 7440, Note_on_c, 9, 36, 120
1, 7679, Note_on_c, 9, 51, 0
1, 7679, Note_on_c, 9, 36, 0
1, 7680, Note_on_c, 9, 51, 81
1, 7680, Note_on_c, 9, 36, 120
1, 7919, Note_on_c, 9, 51, 0
1, 7920, Note_on_c, 9, 51, 41
1, 8159, Note_on_c, 9, 36, 0
1, 8159, Note_on_c, 9, 51, 0
1, 8160, Note_on_c, 9, 38, 121
1, 8160, Note_on_c, 9, 39, 120
1, 8160, Note_on_c, 9, 51, 101
1, 8399, Note_on_c, 9, 38, 0
1, 8399, Note_on_c, 9, 39, 0
1, 8399, Note_on_c, 9, 51, 0
1, 8400, Note_on_c, 9, 51, 49
1, 8400, Note_on_c, 9, 36, 120
1, 8639, Note_on_c, 9, 51, 0
1, 8639, Note_on_c, 9, 36, 0
1, 8640, Note_on_c, 9, 51, 101
1, 8640, Note_on_c, 9, 36, 120
1, 8879, Note_on_c, 9, 51, 0
1, 8880, Note_on_c, 9, 51, 45
1, 9119, Note_on_c, 9, 36, 0
1, 9119, Note_on_c, 9, 51, 0
1, 9120, Note_on_c, 9, 38, 121
1, 9120, Note_on_c, 9, 39, 120
1, 9120, Note_on_c, 9, 51, 101
1, 9359, Note_on_c, 9, 38, 0
1, 9359, Note_on_c, 9, 39, 0
1, 9359, Note_on_c, 9, 51, 0
1, 9360, Note_on_c, 9, 51, 45
1, 9360, Note_on_c, 9, 36, 120
1, 9599, Note_on_c, 9, 51, 0
1, 9599, Note_on_c, 9, 36, 0
1, 9600, Note_on_c, 9, 51, 89
1, 9600, Note_on_c, 9, 36, 120
1, 9839, Note_on_c, 9, 51, 0
1, 9840, Note_on_c, 9, 51, 41
1, 10079, Note_on_c, 9, 36, 0
1, 10079, Note_on_c, 9, 51, 0
1, 10080, Note_on_c, 9, 38, 121
1, 10080, Note_on_c, 9, 39, 120
1, 10080, Note_on_c, 9, 51, 101
1, 10319, Note_on_c, 9, 38, 0
1, 10319, Note_on_c, 9, 39, 0
1, 10319, Note_on_c, 9, 51, 0
1, 10320, Note_on_c, 9, 51, 45
1, 10320, Note_on_c, 9, 36, 120
1, 10559, Note_on_c, 9, 51, 0
1, 10559, Note_on_c, 9, 36, 0
1, 10560, Note_on_c, 9, 51, 89
1, 10560, Note_on_c, 9, 36, 120
1, 10799, Note_on_c, 9, 51, 0
1, 10800, Note_on_c, 9, 51, 41
1, 11039, Note_on_c, 9, 36, 0
1, 11039, Note_on_c, 9, 51, 0
1, 11040, Note_on_c, 9, 38, 127
1, 11040, Note_on_c, 9, 39, 120
1, 11040, Note_on_c, 9, 51, 101
1, 11279, Note_on_c, 9, 38, 0
1, 11279, Note_on_c, 9, 39, 0
1, 11279, Note_on_c, 9, 51, 0
1, 11280, Note_on_c, 9, 51, 45
1, 11280, Note_on_c, 9, 36, 120
1, 11519, Note_on_c, 9, 51, 0
1, 11519, Note_on_c, 9, 36, 0
1, 11520, Note_on_c, 9, 51, 81
1, 11520, Note_on_c, 9, 36, 120
1, 11759, Note_on_c, 9, 51, 0
1, 11760, Note_on_c, 9, 51, 57
1, 11999, Note_on_c, 9, 36, 0
1, 11999, Note_on_c, 9, 51, 0
1, 12000, Note_on_c, 9, 38, 121
1, 12000, Note_on_c, 9, 39, 120
1, 12000, Note_on_c, 9, 51, 89
1, 12239, Note_on_c, 9, 38, 0
1, 12239, Note_on_c, 9, 39, 0
1, 12239, Note_on_c, 9, 51, 0
1, 12240, Note_on_c, 9, 51, 45
1, 12240, Note_on_c, 9, 36, 120
1, 12479, Note_on_c, 9, 51, 0
1, 12479, Note_on_c, 9, 36, 0
1, 12480, Note_on_c, 9, 51, 89
1, 12480, Note_on_c, 9, 36, 120
1, 12719, Note_on_c, 9, 51, 0
1, 12720, Note_on_c, 9, 51, 45
1, 12959, Note_on_c, 9, 36, 0
1, 12959, Note_on_c, 9, 51, 0
1, 12960, Note_on_c, 9, 38, 121
1, 12960, Note_on_c, 9, 39, 120
1, 12960, Note_on_c, 9, 51, 89
1, 13199, Note_on_c, 9, 38, 0
1, 13199, Note_on_c, 9, 39, 0
1, 13199, Note_on_c, 9, 51, 0
1, 13200, Note_on_c, 9, 51, 45
1, 13200, Note_on_c, 9, 36, 120
1, 13439, Note_on_c, 9, 51, 0
1, 13439, Note_on_c, 9, 36, 0
1, 13440, Note_on_c, 9, 51, 101
1, 13440, Note_on_c, 9, 36, 120
1, 13679, Note_on_c, 9, 51, 0
1, 13680, Note_on_c, 9, 51, 45
1, 13919, Note_on_c, 9, 36, 0
1, 13919, Note_on_c, 9, 51, 0
1, 13920, Note_on_c, 9, 38, 120
1, 13920, Note_on_c, 9, 39, 120
1, 13920, Note_on_c, 9, 51, 113
1, 14159, Note_on_c, 9, 38, 0
1, 14159, Note_on_c, 9, 39, 0
1, 14159, Note_on_c, 9, 51, 0
1, 14160, Note_on_c, 9, 51, 41
1, 14160, Note_on_c, 9, 36, 120
1, 14399, Note_on_c, 9, 51, 0
1, 14399, Note_on_c, 9, 36, 0
1, 14400, Note_on_c, 9, 51, 101
1, 14400, Note_on_c, 9, 36, 120
1, 14639, Note_on_c, 9, 51, 0
1, 14640, Note_on_c, 9, 51, 37
1, 14879, Note_on_c, 9, 36, 0
1, 14879, Note_on_c, 9, 51, 0
1, 14880, Note_on_c, 9, 38, 120
1, 14880, Note_on_c, 9, 39, 120
1, 14880, Note_on_c, 9, 51, 101
1, 15119, Note_on_c, 9, 38, 0
1, 15119, Note_on_c, 9, 39, 0
1, 15119, Note_on_c, 9, 51, 0
1, 15120, Note_on_c, 9, 51, 41
1, 15120, Note_on_c, 9, 36, 120
1, 15359, Note_on_c, 9, 51, 0
1, 15359, Note_on_c, 9, 36, 0
1, 15360, Note_on_c, 9, 51, 81
1, 15360, Note_on_c, 9, 36, 120
1, 15599, Note_on_c, 9, 51, 0
1, 15600, Note_on_c, 9, 51, 41
1, 15839, Note_on_c, 9, 36, 0
1, 15839, Note_on_c, 9, 51, 0
1, 15840, Note_on_c, 9, 38, 121
1, 15840, Note_on_c, 9, 39, 120
1, 15840, Note_on_c, 9, 51, 101
1, 16079, Note_on_c, 9, 38, 0
1, 16079, Note_on_c, 9, 39, 0
1, 16079, Note_on_c, 9, 51, 0
1, 16080, Note_on_c, 9, 51, 49
1, 16080, Note_on_c, 9, 36, 120
1, 16319, Note_on_c, 9, 51, 0
1, 16319, Note_on_c, 9, 36, 0
1, 16320, Note_on_c, 9, 51, 101
1, 16320, Note_on_c, 9, 36, 120
1, 16559, Note_on_c, 9, 51, 0
1, 16560, Note_on_c, 9, 51, 45
1, 16799, Note_on_c, 9, 36, 0
1, 16799, Note_on_c, 9, 51, 0
1, 16800, Note_on_c, 9, 38, 121
1, 16800, Note_on_c, 9, 39, 120
1, 16800, Note_on_c, 9, 51, 101
1, 17039, Note_on_c, 9, 38, 0
1, 17039, Note_on_c, 9, 39, 0
1, 17039, Note_on_c, 9, 51, 0
1, 17040, Note_on_c, 9, 51, 45
1, 17040, Note_on_c, 9, 36, 120
1, 17279, Note_on_c, 9, 51, 0
1, 17279, Note_on_c, 9, 36, 0
1, 17280, Note_on_c, 9, 51, 89
1, 17280, Note_on_c, 9, 36, 120
1, 17519, Note_on_c, 9, 51, 0
1, 17520, Note_on_c, 9, 51, 41
1, 17759, Note_on_c, 9, 36, 0
1, 17759, Note_on_c, 9, 51, 0
1, 17760, Note_on_c, 9, 38, 121
1, 17760, Note_on_c, 9, 39, 120
1, 17760, Note_on_c, 9, 51, 101
1, 17999, Note_on_c, 9, 38, 0
1, 17999, Note_on_c, 9, 39, 0
1, 17999, Note_on_c, 9, 51, 0
1, 18000, Note_on_c, 9, 51, 45
1, 18000, Note_on_c, 9, 36, 120
1, 18239, Note_on_c, 9, 51, 0
1, 18239, Note_on_c, 9, 36, 0
1, 18240, Note_on_c, 9, 51, 89
1, 18240, Note_on_c, 9, 36, 120
1, 18479, Note_on_c, 9, 51, 0
1, 18480, Note_on_c, 9, 51, 41
1, 18719, Note_on_c, 9, 36, 0
1, 18719, Note_on_c, 9, 51, 0
1, 18720, Note_on_c, 9, 38, 127
1, 18720, Note_on_c, 9, 39, 120
1, 18720, Note_on_c, 9, 51, 101
1, 18959, Note_on_c, 9, 38, 0
1, 18959, Note_on_c, 9, 39, 0
1, 18959, Note_on_c, 9, 51, 0
1, 18960, Note_on_c, 9, 51, 45
1, 18960, Note_on_c, 9, 36, 120
1, 19199, Note_on_c, 9, 51, 0
1, 19199, Note_on_c, 9, 36, 0
1, 19200, Note_on_c, 9, 51, 81
1, 19200, Note_on_c, 9, 36, 120
1, 19439, Note_on_c, 9, 51, 0
1, 19440, Note_on_c, 9, 51, 57
1, 19679, Note_on_c, 9, 36, 0
1, 19679, Note_on_c, 9, 51, 0
1, 19680, Note_on_c, 9, 38, 121
1, 19680, Note_on_c, 9, 39, 120
1, 19680, Note_on_c, 9, 51, 89
1, 19919, Note_on_c, 9, 38, 0
1, 19919, Note_on_c, 9, 39, 0
1, 19919, Note_on_c, 9, 51, 0
1, 19920, Note_on_c, 9, 51, 45
1, 19920, Note_on_c, 9, 36, 120
1, 20159, Note_on_c, 9, 51, 0
1, 20159, Note_on_c, 9, 36, 0
1, 20160, Note_on_c, 9, 51, 89
1, 20160, Note_on_c, 9, 36, 120
1, 20399, Note_on_c, 9, 51, 0
1, 20400, Note_on_c, 9, 51, 45
1, 20639, Note_on_c, 9, 36, 0
1, 20639, Note_on_c, 9, 51, 0
1, 20640, Note_on_c, 9, 38, 121
1, 20640, Note_on_c, 9, 39, 120
1, 20640, Note_on_c, 9, 51, 89
1, 20879, Note_on_c, 9, 38, 0
1, 20879, Note_on_c, 9, 39, 0
1, 20879, Note_on_c, 9, 51, 0
1, 20880, Note_on_c, 9, 51, 45
1, 20880, Note_on_c, 9, 36, 120
1, 21119, Note_on_c, 9, 51, 0
1, 21119, Note_on_c, 9, 36, 0
1, 21120, Note_on_c, 9, 51, 101
1, 21120, Note_on_c, 9, 36, 120
1, 21359, Note_on_c, 9, 51, 0
1, 21360, Note_on_c, 9, 51, 45
1, 21599, Note_on_c, 9, 36, 0
1, 21599, Note_on_c, 9, 51, 0
1, 21600, Note_on_c, 9, 38, 120
1, 21600, Note_on_c, 9, 39, 120
1, 21600, Note_on_c, 9, 51, 113
1, 21839, Note_on_c, 9, 38, 0
1, 21839, Note_on_c, 9, 39, 0
1, 21839, Note_on_c, 9, 51, 0
1, 21840, Note_on_c, 9, 51, 41
1, 21840, Note_on_c, 9, 36, 120
1, 22079, Note_on_c, 9, 51, 0
1, 22079, Note_on_c, 9, 36, 0
1, 22080, Note_on_c, 9, 51, 101
1, 22080, Note_on_c, 9, 36, 120
1, 22319, Note_on_c, 9, 51, 0
1, 22320, Note_on_c, 9, 51, 37
1, 22559, Note_on_c, 9, 36, 0
1, 22559, Note_on_c, 9, 51, 0
1, 22560, Note_on_c, 9, 38, 120
1, 22560, Note_on_c, 9, 39, 120
1, 22560, Note_on_c, 9, 51, 101
1, 22799, Note_on_c, 9, 38, 0
1, 22799, Note_on_c, 9, 39, 0
1, 22799, Note_on_c, 9, 51, 0
1, 22800, Note_on_c, 9, 51, 41
1, 22800, Note_on_c, 9, 36, 120
1, 23039, Note_on_c, 9, 51, 0
1, 23039, Note_on_c, 9, 36, 0
1, 23040, Note_on_c, 9, 51, 81
1, 23040, Note_on_c, 9, 36, 120
1, 23279, Note_on_c, 9, 51, 0
1, 23280, Note_on_c, 9, 51, 41
1, 23519, Note_on_c, 9, 36, 0
1, 23519, Note_on_c, 9, 51, 0
1, 23520, Note_on_c, 9, 38, 121
1, 23520, Note_on_c, 9, 39, 120
1, 23520, Note_on_c, 9, 51, 101
1, 23759, Note_on_c, 9, 38, 0
1, 23759, Note_on_c, 9, 39, 0
1, 23759, Note_on_c, 9, 51, 0
1, 23760, Note_on_c, 9, 51, 49
1, 23760, Note_on_c, 9, 36, 120
1, 23999, Note_on_c, 9, 51, 0
1, 23999, Note_on_c, 9, 36, 0
1, 24000, Note_on_c, 9, 51, 101
1, 24000, Note_on_c, 9, 36, 120
1, 24239, Note_on_c, 9, 51, 0
1, 24240, Note_on_c, 9, 51, 45
1, 24479, Note_on_c, 9, 36, 0
1, 24479, Note_on_c, 9, 51, 0
1, 24480, Note_on_c, 9, 38, 121
1, 24480, Note_on_c, 9, 39, 120
1, 24480, Note_on_c, 9, 51, 101
1, 24719, Note_on_c, 9, 38, 0
1, 24719, Note_on_c, 9, 39, 0
1, 24719, Note_on_c, 9, 51, 0
1, 24720, Note_on_c, 9, 51, 45
1, 24720, Note_on_c, 9, 36, 120
1, 24959, Note_on_c, 9, 51, 0
1, 24959, Note_on_c, 9, 36, 0
1, 24960, Note_on_c, 9, 51, 89
1, 24960, Note_on_c, 9, 36, 120
1, 25199, Note_on_c, 9, 51, 0
1, 25200, Note_on_c, 9, 51, 41
1, 25439, Note_on_c, 9, 36, 0
1, 25439, Note_on_c, 9, 51, 0
1, 25440, Note_on_c, 9, 38, 121
1, 25440, Note_on_c, 9, 39, 120
1, 25440, Note_on_c, 9, 51, 101
1, 25679, Note_on_c, 9, 38, 0
1, 25679, Note_on_c, 9, 39, 0
1, 25679, Note_on_c, 9, 51, 0
1, 25680, Note_on_c, 9, 51, 45
1, 25680, Note_on_c, 9, 36, 120
1, 25919, Note_on_c, 9, 51, 0
1, 25919, Note_on_c, 9, 36, 0
1, 25920, Note_on_c, 9, 51, 89
1, 25920, Note_on_c, 9, 36, 120
1, 26159, Note_on_c, 9, 51, 0
1, 26160, Note_on_c, 9, 51, 41
1, 26399, Note_on_c, 9, 36, 0
1, 26399, Note_on_c, 9, 51, 0
1, 26400, Note_on_c, 9, 38, 127
1, 26400, Note_on_c, 9, 39, 120
1, 26400, Note_on_c, 9, 51, 101
1, 26639, Note_on_c, 9, 38, 0
1, 26639, Note_on_c, 9, 39, 0
1, 26639, Note_on_c, 9, 51, 0
1, 26640, Note_on_c, 9, 51, 45
1, 26640, Note_on_c, 9, 36, 120
1, 26879, Note_on_c, 9, 51, 0
1, 26879, Note_on_c, 9, 36, 0
1, 26880, Note_on_c, 9, 51, 81
1, 26880, Note_on_c, 9, 69, 101
1, 26880, Note_on_c, 9, 36, 120
1, 26999, Note_on_c, 9, 51, 0
1, 26999, Note_on_c, 9, 69, 0
1, 27000, Note_on_c, 9, 69, 49
1, 27119, Note_on_c, 9, 69, 0
1, 27120, Note_on_c, 9, 51, 57
1, 27120, Note_on_c, 9, 69, 45
1, 27239, Note_on_c, 9, 51, 0
1, 27239, Note_on_c, 9, 69, 0
1, 27240, Note_on_c, 9, 69, 41
1, 27359, Note_on_c, 9, 36, 0
1, 27359, Note_on_c, 9, 69, 0
1, 27360, Note_on_c, 9, 38, 121
1, 27360, Note_on_c, 9, 39, 120
1, 27360, Note_on_c, 9, 51, 89
1, 27360, Note_on_c, 9, 69, 113
1, 27479, Note_on_c, 9, 38, 0
1, 27479, Note_on_c, 9, 39, 0
1, 27479, Note_on_c, 9, 51, 0
1, 27479, Note_on_c, 9, 69, 0
1, 27480, Note_on_c, 9, 69, 65
1, 27599, Note_on_c, 9, 69, 0
1, 27600, Note_on_c, 9, 51, 45
1, 27600, Note_on_c, 9, 69, 41
1, 27600, Note_on_c, 9, 36, 120
1, 27719, Note_on_c, 9, 51, 0
1, 27719, Note_on_c, 9, 69, 0
1, 27720, Note_on_c, 9, 69, 41
1, 27839, Note_on_c, 9, 36, 0
1, 27839, Note_on_c, 9, 69, 0
1, 27840, Note_on_c, 9, 51, 89
1, 27840, Note_on_c, 9, 69, 113
1, 27840, Note_on_c, 9, 36, 120
1, 27959, Note_on_c, 9, 51, 0
1, 27959, Note_on_c, 9, 69, 0
1, 27960, Note_on_c, 9, 69, 49
1, 28079, Note_on_c, 9, 69, 0
1, 28080, Note_on_c, 9, 51, 45
1, 28080, Note_on_c, 9, 69, 37
1, 28199, Note_on_c, 9, 51, 0
1, 28199, Note_on_c, 9, 69, 0
1, 28200, Note_on_c, 9, 69, 41
1, 28319, Note_on_c, 9, 36, 0
1, 28319, Note_on_c, 9, 69, 0
1, 28320, Note_on_c, 9, 38, 121
1, 28320, Note_on_c, 9, 39, 120
1, 28320, Note_on_c, 9, 51, 89
1, 28320, Note_on_c, 9, 69, 113
1, 28439, Note_on_c, 9, 38, 0
1, 28439, Note_on_c, 9, 39, 0
1, 28439, Note_on_c, 9, 51, 0
1, 28439, Note_on_c, 9, 69, 0
1, 28440, Note_on_c, 9, 69, 57
1, 28559, Note_on_c, 9, 69, 0
1, 28560, Note_on_c, 9, 51, 45
1, 28560, Note_on_c, 9, 69, 37
1, 28560, Note_on_c, 9, 36, 120
1, 28679, Note_on_c, 9, 51, 0
1, 28679, Note_on_c, 9, 69, 0
1, 28680, Note_on_c, 9, 69, 45
1, 28799, Note_on_c, 9, 36, 0
1, 28799, Note_on_c, 9, 69, 0
1, 28800, Note_on_c, 9, 51, 101
1, 28800, Note_on_c, 9, 69, 101
1, 28800, Note_on_c, 9, 36, 120
1, 28919, Note_on_c, 9, 51, 0
1, 28919, Note_on_c, 9, 69, 0
1, 28920, Note_on_c, 9, 69, 45
1, 29039, Note_on_c, 9, 69, 0
1, 29040, Note_on_c, 9, 51, 45
1, 29040, Note_on_c, 9, 69, 41
1, 29159, Note_on_c, 9, 51, 0
1, 29159, Note_on_c, 9, 69, 0
1, 29160, Note_on_c, 9, 69, 41
1, 29279, Note_on_c, 9, 36, 0
1, 29279, Note_on_c, 9, 69, 0
1, 29280, Note_on_c, 9, 38, 120
1, 29280, Note_on_c, 9, 39, 120
1, 29280, Note_on_c, 9, 51, 113
1, 29280, Note_on_c, 9, 69, 113
1, 29399, Note_on_c, 9, 38, 0
1, 29399, Note_on_c, 9, 39, 0
1, 29399, Note_on_c, 9, 51, 0
1, 29399, Note_on_c, 9, 69, 0
1, 29400, Note_on_c, 9, 69, 45
1, 29519, Note_on_c, 9, 69, 0
1, 29520, Note_on_c, 9, 51, 41
1, 29520, Note_on_c, 9, 69, 45
1, 29520, Note_on_c, 9, 36, 120
1, 29639, Note_on_c, 9, 51, 0
1, 29639, Note_on_c, 9, 69, 0
1, 29640, Note_on_c, 9, 69, 41
1, 29759, Note_on_c, 9, 36, 0
1, 29759, Note_on_c, 9, 69, 0
1, 29760, Note_on_c, 9, 51, 101
1, 29760, Note_on_c, 9, 69, 113
1, 29760, Note_on_c, 9, 36, 120
1, 29879, Note_on_c, 9, 51, 0
1, 29879, Note_on_c, 9, 69, 0
1, 29880, Note_on_c, 9, 69, 57
1, 29999, Note_on_c, 9, 69, 0
1, 30000, Note_on_c, 9, 51, 37
1, 30000, Note_on_c, 9, 69, 45
1, 30119, Note_on_c, 9, 51, 0
1, 30119, Note_on_c, 9, 69, 0
1, 30120, Note_on_c, 9, 69, 45
1, 30239, Note_on_c, 9, 36, 0
1, 30239, Note_on_c, 9, 69, 0
1, 30240, Note_on_c, 9, 38, 120
1, 30240, Note_on_c, 9, 39, 120
1, 30240, Note_on_c, 9, 51, 101
1, 30240, Note_on_c, 9, 69, 101
1, 30359, Note_on_c, 9, 38, 0
1, 30359, Note_on_c, 9, 39, 0
1, 30359, Note_on_c, 9, 51, 0
1, 30359, Note_on_c, 9, 69, 0
1, 30360, Note_on_c, 9, 69, 57
1, 30479, Note_on_c, 9, 69, 0
1, 30480, Note_on_c, 9, 51, 41
1, 30480, Note_on_c, 9, 69, 41
1, 30480, Note_on_c, 9, 36, 120
1, 30599, Note_on_c, 9, 51, 0
1, 30599, Note_on_c, 9, 69, 0
1, 30600, Note_on_c, 9, 69, 57
1, 30719, Note_on_c, 9, 36, 0
1, 30719, Note_on_c, 9, 69, 0
1, 30720, Note_on_c, 9, 51, 81
1, 30720, Note_on_c, 9, 69, 113
1, 30720, Note_on_c, 9, 36, 120
1, 30839, Note_on_c, 9, 51, 0
1, 30839, Note_on_c, 9, 69, 0
1, 30840, Note_on_c, 9, 69, 73
1, 30959, Note_on_c, 9, 69, 0
1, 30960, Note_on_c, 9, 51, 41
1, 30960, Note_on_c, 9, 69, 41
1, 31079, Note_on_c, 9, 51, 0
1, 31079, Note_on_c, 9, 69, 0
1, 31080, Note_on_c, 9, 69, 45
1, 31199, Note_on_c, 9, 36, 0
1, 31199, Note_on_c, 9, 69, 0
1, 31200, Note_on_c, 9, 38, 121
1, 31200, Note_on_c, 9, 39, 120
1, 31200, Note_on_c, 9, 51, 101
1, 31200, Note_on_c, 9, 69, 101
1, 31319, Note_on_c, 9, 38, 0
1, 31319, Note_on_c, 9, 39, 0
1, 31319, Note_on_c, 9, 51, 0
1, 31319, Note_on_c, 9, 69, 0
1, 31320, Note_on_c, 9, 69, 65
1, 31439, Note_on_c, 9, 69, 0
1, 31440, Note_on_c, 9, 51, 49
1, 31440, Note_on_c, 9, 69, 33
1, 31440, Note_on_c, 9, 36, 120
1, 31559, Note_on_c, 9, 51, 0
1, 31559, Note_on_c, 9, 69, 0
1, 31560, Note_on_c, 9, 69, 45
1, 31679, Note_on_c, 9, 36, 0
1, 31679, Note_on_c, 9, 69, 0
1, 31680, Note_on_c, 9, 51, 101
1, 31680, Note_on_c, 9, 69, 89
1, 31680, Note_on_c, 9, 36, 120
1, 31799, Note_on_c, 9, 51, 0
1, 31799, Note_on_c, 9, 69, 0
1, 31800, Note_on_c, 9, 69, 57
1, 31919, Note_on_c, 9, 69, 0
1, 31920, Note_on_c, 9, 51, 45
1, 31920, Note_on_c, 9, 69, 45
1, 32039, Note_on_c, 9, 51, 0
1, 32039, Note_on_c, 9, 69, 0
1, 32040, Note_on_c, 9, 69, 45
1, 32159, Note_on_c, 9, 36, 0
1, 32159, Note_on_c, 9, 69, 0
1, 32160, Note_on_c, 9, 38, 121
1, 32160, Note_on_c, 9, 39, 120
1, 32160, Note_on_c, 9, 51, 101
1, 32160, Note_on_c, 9, 69, 113
1, 32279, Note_on_c, 9, 38, 0
1, 32279, Note_on_c, 9, 39, 0
1, 32279, Note_on_c, 9, 51, 0
1, 32279, Note_on_c, 9, 69, 0
1, 32280, Note_on_c, 9, 69, 73
1, 32399, Note_on_c, 9, 69, 0
1, 32400, Note_on_c, 9, 51, 45
1, 32400, Note_on_c, 9, 69, 57
1, 32400, Note_on_c, 9, 36, 120
1, 32519, Note_on_c, 9, 51, 0
1, 32519, Note_on_c, 9, 69, 0
1, 32520, Note_on_c, 9, 69, 65
1, 32639, Note_on_c, 9, 36, 0
1, 32639, Note_on_c, 9, 69, 0
1, 32640, Note_on_c, 9, 51, 89
1, 32640, Note_on_c, 9, 69, 113
1, 32640, Note_on_c, 9, 36, 120
1, 32759, Note_on_c, 9, 51, 0
1, 32759, Note_on_c, 9, 69, 0
1, 32760, Note_on_c, 9, 69, 45
1, 32879, Note_on_c, 9, 69, 0
1, 32880, Note_on_c, 9, 51, 41
1, 32880, Note_on_c, 9, 69, 41
1, 32999, Note_on_c, 9, 51, 0
1, 32999, Note_on_c, 9, 69, 0
1, 33000, Note_on_c, 9, 69, 41
1, 33119, Note_on_c, 9, 36, 0
1, 33119, Note_on_c, 9, 69, 0
1, 33120, Note_on_c, 9, 38, 121
1, 33120, Note_on_c, 9, 39, 120
1, 33120, Note_on_c, 9, 51, 101
1, 33120, Note_on_c, 9, 69, 113
1, 33239, Note_on_c, 9, 38, 0
1, 33239, Note_on_c, 9, 39, 0
1, 33239, Note_on_c, 9, 51, 0
1, 33239, Note_on_c, 9, 69, 0
1, 33240, Note_on_c, 9, 69, 57
1, 33359, Note_on_c, 9, 69, 0
1, 33360, Note_on_c, 9, 51, 45
1, 33360, Note_on_c, 9, 69, 45
1, 33360, Note_on_c, 9, 36, 120
1, 33479, Note_on_c, 9, 51, 0
1, 33479, Note_on_c, 9, 69, 0
1, 33480, Note_on_c, 9, 69, 49
1, 33599, Note_on_c, 9, 36, 0
1, 33599, Note_on_c, 9, 69, 0
1, 33600, Note_on_c, 9, 51, 89
1, 33600, Note_on_c, 9, 69, 101
1, 33600, Note_on_c, 9, 36, 120
1, 33719, Note_on_c, 9, 51, 0
1, 33719, Note_on_c, 9, 69, 0
1, 33720, Note_on_c, 9, 69, 65
1, 33839, Note_on_c, 9, 69, 0
1, 33840, Note_on_c, 9, 51, 41
1, 33840, Note_on_c, 9, 69, 49
1, 33959, Note_on_c, 9, 51, 0
1, 33959, Note_on_c, 9, 69, 0
1, 33960, Note_on_c, 9, 69, 73
1, 34079, Note_on_c, 9, 36, 0
1, 34079, Note_on_c, 9, 69, 0
1, 34080, Note_on_c, 9, 38, 127
1, 34080, Note_on_c, 9, 39, 120
1, 34080, Note_on_c, 9, 51, 101
1, 34080, Note_on_c, 9, 69, 113
1, 34199, Note_on_c, 9, 38, 0
1, 34199, Note_on_c, 9, 39, 0
1, 34199, Note_on_c, 9, 51, 0
1, 34199, Note_on_c, 9, 69, 0
1, 34200, Note_on_c, 9, 69, 65
1, 34319, Note_on_c, 9, 69, 0
1, 34320, Note_on_c, 9, 51, 45
1, 34320, Note_on_c, 9, 69, 57
1, 34320, Note_on_c, 9, 36, 120
1, 34439, Note_on_c, 9, 51, 0
1, 34439, Note_on_c, 9, 69, 0
1, 34440, Note_on_c, 9, 69, 73
1, 34559, Note_on_c, 9, 36, 0
1, 34559, Note_on_c, 9, 69, 0
1, 34560, Note_on_c, 9, 51, 81
1, 34560, Note_on_c, 9, 69, 101
1, 34560, Note_on_c, 9, 36, 120
1, 34679, Note_on_c, 9, 51, 0
1, 34679, Note_on_c, 9, 69, 0
1, 34680, Note_on_c, 9, 69, 49
1, 34799, Note_on_c, 9, 69, 0
1, 34800, Note_on_c, 9, 51, 57
1, 34800, Note_on_c, 9, 69, 45
1, 34919, Note_on_c, 9, 51, 0
1, 34919, Note_on_c, 9, 69, 0
1, 34920, Note_on_c, 9, 69, 41
1, 35039, Note_on_c, 9, 36, 0
1, 35039, Note_on_c, 9, 69, 0
1, 35040, Note_on_c, 9, 38, 121
1, 35040, Note_on_c, 9, 39, 120
1, 35040, Note_on_c, 9, 51, 89
1, 35040, Note_on_c, 9, 69, 113
1, 35159, Note_on_c, 9, 38, 0
1, 35159, Note_on_c, 9, 39, 0
1, 35159, Note_on_c, 9, 51, 0
1, 35159, Note_on_c, 9, 69, 0
1, 35160, Note_on_c, 9, 69, 65
1, 35279, Note_on_c, 9, 69, 0
1, 35280, Note_on_c, 9, 51, 45
1, 35280, Note_on_c, 9, 69, 41
1, 35280, Note_on_c, 9, 36, 120
1, 35399, Note_on_c, 9, 51, 0
1, 35399, Note_on_c, 9, 69, 0
1, 35400, Note_on_c, 9, 69, 41
1, 35519, Note_on_c, 9, 36, 0
1, 35519, Note_on_c, 9, 69, 0
1, 35520, Note_on_c, 9, 51, 89
1, 35520, Note_on_c, 9, 69, 113
1, 35520, Note_on_c, 9, 36, 120
1, 35639, Note_on_c, 9, 51, 0
1, 35639, Note_on_c, 9, 69, 0
1, 35640, Note_on_c, 9, 69, 49
1, 35759, Note_on_c, 9, 69, 0
1, 35760, Note_on_c, 9, 51, 45
1, 35760, Note_on_c, 9, 69, 37
1, 35879, Note_on_c, 9, 51, 0
1, 35879, Note_on_c, 9, 69, 0
1, 35880, Note_on_c, 9, 69, 41
1, 35999, Note_on_c, 9, 36, 0
1, 35999, Note_on_c, 9, 69, 0
1, 36000, Note_on_c, 9, 38, 121
1, 36000, Note_on_c, 9, 39, 120
1, 36000, Note_on_c, 9, 51, 89
1, 36000, Note_on_c, 9, 69, 113
1, 36119, Note_on_c, 9, 38, 0
1, 36119, Note_on_c, 9, 39, 0
1, 36119, Note_on_c, 9, 51, 0
1, 36119, Note_on_c, 9, 69, 0
1, 36120, Note_on_c, 9, 69, 57
1, 36239, Note_on_c, 9, 69, 0
1, 36240, Note_on_c, 9, 51, 45
1, 36240, Note_on_c, 9, 69, 37
1, 36240, Note_on_c, 9, 36, 120
1, 36359, Note_on_c, 9, 51, 0
1, 36359, Note_on_c, 9, 69, 0
1, 36360, Note_on_c, 9, 69, 45
1, 36479, Note_on_c, 9, 36, 0
1, 36479, Note_on_c, 9, 69, 0
1, 36480, Note_on_c, 9, 51, 101
1, 36480, Note_on_c, 9, 69, 101
1, 36480, Note_on_c, 9, 36, 120
1, 36599, Note_on_c, 9, 51, 0
1, 36599, Note_on_c, 9, 69, 0
1, 36600, Note_on_c, 9, 69, 45
1, 36719, Note_on_c, 9, 69, 0
1, 36720, Note_on_c, 9, 51, 45
1, 36720, Note_on_c, 9, 69, 41
1, 36839, Note_on_c, 9, 51, 0
1, 36839, Note_on_c, 9, 69, 0
1, 36840, Note_on_c, 9, 69, 41
1, 36959, Note_on_c, 9, 36, 0
1, 36959, Note_on_c, 9, 69, 0
1, 36960, Note_on_c, 9, 38, 120
1, 36960, Note_on_c, 9, 39, 120
1, 36960, Note_on_c, 9, 51, 113
1, 36960, Note_on_c, 9, 69, 113
1, 37079, Note_on_c, 9, 38, 0
1, 37079, Note_on_c, 9, 39, 0
1, 37079, Note_on_c, 9, 51, 0
1, 37079, Note_on_c, 9, 69, 0
1, 37080, Note_on_c, 9, 69, 45
1, 37199, Note_on_c, 9, 69, 0
1, 37200, Note_on_c, 9, 51, 41
1, 37200, Note_on_c, 9, 69, 45
1, 37200, Note_on_c, 9, 36, 120
1, 37319, Note_on_c, 9, 51, 0
1, 37319, Note_on_c, 9, 69, 0
1, 37320, Note_on_c, 9, 69, 41
1, 37439, Note_on_c, 9, 36, 0
1, 37439, Note_on_c, 9, 69, 0
1, 37440, Note_on_c, 9, 51, 101
1, 37440, Note_on_c, 9, 69, 113
1, 37440, Note_on_c, 9, 36, 120
1, 37559, Note_on_c, 9, 51, 0
1, 37559, Note_on_c, 9, 69, 0
1, 37560, Note_on_c, 9, 69, 57
1, 37679, Note_on_c, 9, 69, 0
1, 37680, Note_on_c, 9, 51, 37
1, 37680, Note_on_c, 9, 69, 45
1, 37799, Note_on_c, 9, 51, 0
1, 37799, Note_on_c, 9, 69, 0
1, 37800, Note_on_c, 9, 69, 45
1, 37919, Note_on_c, 9, 36, 0
1, 37919, Note_on_c, 9, 69, 0
1, 37920, Note_on_c, 9, 38, 120
1, 37920, Note_on_c, 9, 39, 120
1, 37920, Note_on_c, 9, 51, 101
1, 37920, Note_on_c, 9, 69, 101
1, 38039, Note_on_c, 9, 38, 0
1, 38039, Note_on_c, 9, 39, 0
1, 38039, Note_on_c, 9, 51, 0
1, 38039, Note_on_c, 9, 69, 0
1, 38040, Note_on_c, 9, 69, 57
1, 38159, Note_on_c, 9, 69, 0
1, 38160, Note_on_c, 9, 51, 41
1, 38160, Note_on_c, 9, 69, 41
1, 38160, Note_on_c, 9, 36, 120
1, 38279, Note_on_c, 9, 51, 0
1, 38279, Note_on_c, 9, 69, 0
1, 38280, Note_on_c, 9, 69, 57
1, 38399, Note_on_c, 9, 36, 0
1, 38399, Note_on_c, 9, 69, 0
1, 38400, Note_on_c, 9, 51, 81
1, 38400, Note_on_c, 9, 69, 113
1, 38400, Note_on_c, 9, 36, 120
1, 38519, Note_on_c, 9, 51, 0
1, 38519, Note_on_c, 9, 69, 0
1, 38520, Note_on_c, 9, 69, 73
1, 38639, Note_on_c, 9, 69, 0
1, 38640, Note_on_c, 9, 51, 41
1, 38640, Note_on_c, 9, 69, 41
1, 38759, Note_on_c, 9, 51, 0
1, 38759, Note_on_c, 9, 69, 0
1, 38760, Note_on_c, 9, 69, 45
1, 38879, Note_on_c, 9, 36, 0
1, 38879, Note_on_c, 9, 69, 0
1, 38880, Note_on_c, 9, 38, 121
1, 38880, Note_on_c, 9, 39, 120
1, 38880, Note_on_c, 9, 51, 101
1, 38880, Note_on_c, 9, 69, 101
1, 38999, Note_on_c, 9, 38, 0
1, 38999, Note_on_c, 9, 39, 0
1, 38999, Note_on_c, 9, 51, 0
1, 38999, Note_on_c, 9, 69, 0
1, 39000, Note_on_c, 9, 69, 65
1, 39119, Note_on_c, 9, 69, 0
1, 39120, Note_on_c, 9, 51, 49
1, 39120, Note_on_c, 9, 69, 33
1, 39120, Note_on_c, 9, 36, 120
1, 39239, Note_on_c, 9, 51, 0
1, 39239, Note_on_c, 9, 69, 0
1, 39240, Note_on_c, 9, 69, 45
1, 39359, Note_on_c, 9, 36, 0
1, 39359, Note_on_c, 9, 69, 0
1, 39360, Note_on_c, 9, 51, 101
1, 39360, Note_on_c, 9, 69, 89
1, 39360, Note_on_c, 9, 36, 120
1, 39479, Note_on_c, 9, 51, 0
1, 39479, Note_on_c, 9, 69, 0
1, 39480, Note_on_c, 9, 69, 57
1, 39599, Note_on_c, 9, 69, 0
1, 39600, Note_on_c, 9, 51, 45
1, 39600, Note_on_c, 9, 69, 45
1, 39719, Note_on_c, 9, 51, 0
1, 39719, Note_on_c, 9, 69, 0
1, 39720, Note_on_c, 9, 69, 45
1, 39839, Note_on_c, 9, 36, 0
1, 39839, Note_on_c, 9, 69, 0
1, 39840, Note_on_c, 9, 38, 121
1, 39840, Note_on_c, 9, 39, 120
1, 39840, Note_on_c, 9, 51, 101
1, 39840, Note_on_c, 9, 69, 113
1, 39959, Note_on_c, 9, 38, 0
1, 39959, Note_on_c, 9, 39, 0
1, 39959, Note_on_c, 9, 51, 0
1, 39959, Note_on_c, 9, 69, 0
1, 39960, Note_on_c, 9, 69, 73
1, 40079, Note_on_c, 9, 69, 0
1, 40080, Note_on_c, 9, 51, 45
1, 40080, Note_on_c, 9, 69, 57
1, 40080, Note_on_c, 9, 36, 120
1, 40199, Note_on_c, 9, 51, 0
1, 40199, Note_on_c, 9, 69, 0
1, 40200, Note_on_c, 9, 69, 65
1, 40319, Note_on_c, 9, 36, 0
1, 40319, Note_on_c, 9, 69, 0
1, 40320, Note_on_c, 9, 51, 89
1, 40320, Note_on_c, 9, 69, 113
1, 40320, Note_on_c, 9, 36, 120
1, 40439, Note_on_c, 9, 51, 0
1, 40439, Note_on_c, 9, 69, 0
1, 40440, Note_on_c, 9, 69, 45
1, 40559, Note_on_c, 9, 69, 0
1, 40560, Note_on_c, 9, 51, 41
1, 40560, Note_on_c, 9, 69, 41
1, 40679, Note_on_c, 9, 51, 0
1, 40679, Note_on_c, 9, 69, 0
1, 40680, Note_on_c, 9, 69, 41
1, 40799, Note_on_c, 9, 36, 0
1, 40799, Note_on_c, 9, 69, 0
1, 40800, Note_on_c, 9, 38, 121
1, 40800, Note_on_c, 9, 39, 120
1, 40800, Note_on_c, 9, 51, 101
1, 40800, Note_on_c, 9, 69, 113
1, 40919, Note_on_c, 9, 38, 0
1, 40919, Note_on_c, 9, 39, 0
1, 40919, Note_on_c, 9, 51, 0
1, 40919, Note_on_c, 9, 69, 0
1, 40920, Note_on_c, 9, 69, 57
1, 41039, Note_on_c, 9, 69, 0
1, 41040, Note_on_c, 9, 51, 45
1, 41040, Note_on_c, 9, 69, 45
1, 41040, Note_on_c, 9, 36, 120
1, 41159, Note_on_c, 9, 51, 0
1, 41159, Note_on_c, 9, 69, 0
1, 41160, Note_on_c, 9, 69, 49
1, 41279, Note_on_c, 9, 36, 0
1, 41279, Note_on_c, 9, 69, 0
1, 41280, Note_on_c, 9, 51, 89
1, 41280, Note_on_c, 9, 69, 101
1, 41280, Note_on_c, 9, 36, 120
1, 41399, Note_on_c, 9, 51, 0
1, 41399, Note_on_c, 9, 69, 0
1, 41400, Note_on_c, 9, 69, 65
1, 41519, Note_on_c, 9, 69, 0
1, 41520, Note_on_c, 9, 51, 41
1, 41520, Note_on_c, 9, 69, 49
1, 41639, Note_on_c, 9, 51, 0
1, 41639, Note_on_c, 9, 69, 0
1, 41640, Note_on_c, 9, 69, 73
1, 41759, Note_on_c, 9, 36, 0
1, 41759, Note_on_c, 9, 69, 0
1, 41760, Note_on_c, 9, 38, 127
1, 41760, Note_on_c, 9, 39, 120
1, 41760, Note_on_c, 9, 51, 101
1, 41760, Note_on_c, 9, 69, 113
1, 41879, Note_on_c, 9, 38, 0
1, 41879, Note_on_c, 9, 39, 0
1, 41879, Note_on_c, 9, 51, 0
1, 41879, Note_on_c, 9, 69, 0
1, 41880, Note_on_c, 9, 69, 65
1, 41999, Note_on_c, 9, 69, 0
1, 42000, Note_on_c, 9, 51, 45
1, 42000, Note_on_c, 9, 69, 57
1, 42000, Note_on_c, 9, 36, 120
1, 42119, Note_on_c, 9, 51, 0
1, 42119, Note_on_c, 9, 69, 0
1, 42120, Note_on_c, 9, 69, 73
1, 42239, Note_on_c, 9, 36, 0
1, 42239, Note_on_c, 9, 69, 0
1, 42240, Note_on_c, 9, 42, 81
1, 42240, Note_on_c, 9, 36, 120
1, 42479, Note_on_c, 9, 42, 0
1, 42480, Note_on_c, 9, 42, 57
1, 42719, Note_on_c, 9, 36, 0
1, 42719, Note_on_c, 9, 42, 0
1, 42720, Note_on_c, 9, 38, 121
1, 42720, Note_on_c, 9, 39, 120
1, 42720, Note_on_c, 9, 42, 89
1, 42959, Note_on_c, 9, 38, 0
1, 42959, Note_on_c, 9, 39, 0
1, 42959, Note_on_c, 9, 42, 0
1, 42960, Note_on_c, 9, 42, 45
1, 42960, Note_on_c, 9, 36, 120
1, 43199, Note_on_c, 9, 42, 0
1, 43199, Note_on_c, 9, 36, 0
1, 43200, Note_on_c, 9, 42, 89
1, 43200, Note_on_c, 9, 36, 120
1, 43439, Note_on_c, 9, 42, 0
1, 43440, Note_on_c, 9, 42, 45
1, 43679, Note_on_c, 9, 36, 0
1, 43679, Note_on_c, 9, 42, 0
1, 43680, Note_on_c, 9, 38, 121
1, 43680, Note_on_c, 9, 39, 120
1, 43680, Note_on_c, 9, 42, 89
1, 43919, Note_on_c, 9, 38, 0
1, 43919, Note_on_c, 9, 39, 0
1, 43919, Note_on_c, 9, 42, 0
1, 43920, Note_on_c, 9, 42, 45
1, 43920, Note_on_c, 9, 36, 120
1, 44159, Note_on_c, 9, 42, 0
1, 44159, Note_on_c, 9, 36, 0
1, 44160, Note_on_c, 9, 42, 101
1, 44160, Note_on_c, 9, 36, 120
1, 44399, Note_on_c, 9, 42, 0
1, 44400, Note_on_c, 9, 42, 45
1, 44639, Note_on_c, 9, 36, 0
1, 44639, Note_on_c, 9, 42, 0
1, 44640, Note_on_c, 9, 38, 120
1, 44640, Note_on_c, 9, 39, 120
1, 44640, Note_on_c, 9, 42, 113
1, 44879, Note_on_c, 9, 38, 0
1, 44879, Note_on_c, 9, 39, 0
1, 44879, Note_on_c, 9, 42, 0
1, 44880, Note_on_c, 9, 42, 41
1, 44880, Note_on_c, 9, 36, 120
1, 45119, Note_on_c, 9, 42, 0
1, 45119, Note_on_c, 9, 36, 0
1, 45120, Note_on_c, 9, 42, 101
1, 45120, Note_on_c, 9, 36, 120
1, 45359, Note_on_c, 9, 42, 0
1, 45360, Note_on_c, 9, 42, 37
1, 45599, Note_on_c, 9, 36, 0
1, 45599, Note_on_c, 9, 42, 0
1, 45600, Note_on_c, 9, 38, 120
1, 45600, Note_on_c, 9, 39, 120
1, 45600, Note_on_c, 9, 42, 101
1, 45839, Note_on_c, 9, 38, 0
1, 45839, Note_on_c, 9, 39, 0
1, 45839, Note_on_c, 9, 42, 0
1, 45840, Note_on_c, 9, 42, 41
1, 45840, Note_on_c, 9, 36, 120
1, 46079, Note_on_c, 9, 42, 0
1, 46079, Note_on_c, 9, 36, 0
1, 46080, Note_on_c, 9, 42, 81
1, 46080, Note_on_c, 9, 36, 120
1, 46319, Note_on_c, 9, 42, 0
1, 46320, Note_on_c, 9, 42, 41
1, 46559, Note_on_c, 9, 36, 0
1, 46559, Note_on_c, 9, 42, 0
1, 46560, Note_on_c, 9, 38, 121
1, 46560, Note_on_c, 9, 39, 120
1, 46560, Note_on_c, 9, 42, 101
1, 46799, Note_on_c, 9, 38, 0
1, 46799, Note_on_c, 9, 39, 0
1, 46799, Note_on_c, 9, 42, 0
1, 46800, Note_on_c, 9, 42, 49
1, 46800, Note_on_c, 9, 36, 120
1, 47039, Note_on_c, 9, 42, 0
1, 47039, Note_on_c, 9, 36, 0
1, 47040, Note_on_c, 9, 42, 101
1, 47040, Note_on_c, 9, 36, 120
1, 47279, Note_on_c, 9, 42, 0
1, 47280, Note_on_c, 9, 42, 45
1, 47519, Note_on_c, 9, 36, 0
1, 47519, Note_on_c, 9, 42, 0
1, 47520, Note_on_c, 9, 38, 121
1, 47520, Note_on_c, 9, 39, 120
1, 47520, Note_on_c, 9, 42, 101
1, 47759, Note_on_c, 9, 38, 0
1, 47759, Note_on_c, 9, 39, 0
1, 47759, Note_on_c, 9, 42, 0
1, 47760, Note_on_c, 9, 42, 45
1, 47760, Note_on_c, 9, 36, 120
1, 47999, Note_on_c, 9, 42, 0
1, 47999, Note_on_c, 9, 36, 0
1, 48000, Note_on_c, 9, 42, 89
1, 48000, Note_on_c, 9, 36, 120
1, 48239, Note_on_c, 9, 42, 0
1, 48240, Note_on_c, 9, 42, 41
1, 48479, Note_on_c, 9, 36, 0
1, 48479, Note_on_c, 9, 42, 0
1, 48480, Note_on_c, 9, 38, 121
1, 48480, Note_on_c, 9, 39, 120
1, 48480, Note_on_c, 9, 42, 101
1, 48719, Note_on_c, 9, 38, 0
1, 48719, Note_on_c, 9, 39, 0
1, 48719, Note_on_c, 9, 42, 0
1, 48720, Note_on_c, 9, 42, 45
1, 48720, Note_on_c, 9, 36, 120
1, 48959, Note_on_c, 9, 42, 0
1, 48959, Note_on_c, 9, 36, 0
1, 48960, Note_on_c, 9, 42, 89
1, 48960, Note_on_c, 9, 36, 120
1, 49199, Note_on_c, 9, 42, 0
1, 49200, Note_on_c, 9, 42, 41
1, 49439, Note_on_c, 9, 36, 0
1, 49439, Note_on_c, 9, 42, 0
1, 49440, Note_on_c, 9, 38, 127
1, 49440, Note_on_c, 9, 39, 120
1, 49440, Note_on_c, 9, 42, 101
1, 49679, Note_on_c, 9, 38, 0
1, 49679, Note_on_c, 9, 39, 0
1, 49679, Note_on_c, 9, 42, 0
1, 49680, Note_on_c, 9, 42, 45
1, 49680, Note_on_c, 9, 36, 120
1, 49919, Note_on_c, 9, 42, 0
1, 49919, Note_on_c, 9, 36, 0
1, 49920, Note_on_c, 9, 42, 81
1, 49920, Note_on_c, 9, 36, 120
1, 50159, Note_on_c, 9, 42, 0
1, 50160, Note_on_c, 9, 42, 57
1, 50399, Note_on_c, 9, 36, 0
1, 50399, Note_on_c, 9, 42, 0
1, 50400, Note_on_c, 9, 38, 121
1, 50400, Note_on_c, 9, 39, 120
1, 50400, Note_on_c, 9, 42, 89
1, 50639, Note_on_c, 9, 38, 0
1, 50639, Note_on_c, 9, 39, 0
1, 50639, Note_on_c, 9, 42, 0
1, 50640, Note_on_c, 9, 42, 45
1, 50640, Note_on_c, 9, 36, 120
1, 50879, Note_on_c, 9, 42, 0
1, 50879, Note_on_c, 9, 36, 0
1, 50880, Note_on_c, 9, 42, 89
1, 50880, Note_on_c, 9, 36, 120
1, 51119, Note_on_c, 9, 42, 0
1, 51120, Note_on_c, 9, 42, 45
1, 51359, Note_on_c, 9, 36, 0
1, 51359, Note_on_c, 9, 42, 0
1, 51360, Note_on_c, 9, 38, 121
1, 51360, Note_on_c, 9, 39, 120
1, 51360, Note_on_c, 9, 42, 89
1, 51599, Note_on_c, 9, 38, 0
1, 51599, Note_on_c, 9, 39, 0
1, 51599, Note_on_c, 9, 42, 0
1, 51600, Note_on_c, 9, 42, 45
1, 51600, Note_on_c, 9, 36, 120
1, 51839, Note_on_c, 9, 42, 0
1, 51839, Note_on_c, 9, 36, 0
1, 51840, Note_on_c, 9, 42, 101
1, 51840, Note_on_c, 9, 36, 120
1, 52079, Note_on_c, 9, 42, 0
1, 52080, Note_on_c, 9, 42, 45
1, 52319, Note_on_c, 9, 36, 0
1, 52319, Note_on_c, 9, 42, 0
1, 52320, Note_on_c, 9, 38, 120
1, 52320, Note_on_c, 9, 39, 120
1, 52320, Note_on_c, 9, 42, 113
1, 52559, Note_on_c, 9, 38, 0
1, 52559, Note_on_c, 9, 39, 0
1, 52559, Note_on_c, 9, 42, 0
1, 52560, Note_on_c, 9, 42, 41
1, 52560, Note_on_c, 9, 36, 120
1, 52799, Note_on_c, 9, 42, 0
1, 52799, Note_on_c, 9, 36, 0
1, 52800, Note_on_c, 9, 42, 101
1, 52800, Note_on_c, 9, 36, 120
1, 53039, Note_on_c, 9, 42, 0
1, 53040, Note_on_c, 9, 42, 37
1, 53279, Note_on_c, 9, 36, 0
1, 53279, Note_on_c, 9, 42, 0
1, 53280, Note_on_c, 9, 38, 120
1, 53280, Note_on_c, 9, 39, 120
1, 53280, Note_on_c, 9, 42, 101
1, 53519, Note_on_c, 9, 38, 0
1, 53519, Note_on_c, 9, 39, 0
1, 53519, Note_on_c, 9, 42, 0
1, 53520, Note_on_c, 9, 42, 41
1, 53520, Note_on_c, 9, 36, 120
1, 53759, Note_on_c, 9, 42, 0
1, 53759, Note_on_c, 9, 36, 0
1, 53760, Note_on_c, 9, 42, 81
1, 53760, Note_on_c, 9, 36, 120
1, 53999, Note_on_c, 9, 42, 0
1, 54000, Note_on_c, 9, 42, 41
1, 54239, Note_on_c, 9, 36, 0
1, 54239, Note_on_c, 9, 42, 0
1, 54240, Note_on_c, 9, 38, 121
1, 54240, Note_on_c, 9, 39, 120
1, 54240, Note_on_c, 9, 42, 101
1, 54479, Note_on_c, 9, 38, 0
1, 54479, Note_on_c, 9, 39, 0
1, 54479, Note_on_c, 9, 42, 0
1, 54480, Note_on_c, 9, 42, 49
1, 54480, Note_on_c, 9, 36, 120
1, 54719, Note_on_c, 9, 42, 0
1, 54719, Note_on_c, 9, 36, 0
1, 54720, Note_on_c, 9, 42, 101
1, 54720, Note_on_c, 9, 36, 120
1, 54959, Note_on_c, 9, 42, 0
1, 54960, Note_on_c, 9, 42, 45
1, 55199, Note_on_c, 9, 36, 0
1, 55199, Note_on_c, 9, 42, 0
1, 55200, Note_on_c, 9, 38, 121
1, 55200, Note_on_c, 9, 39, 120
1, 55200, Note_on_c, 9, 42, 101
1, 55439, Note_on_c, 9, 38, 0
1, 55439, Note_on_c, 9, 39, 0
1, 55439, Note_on_c, 9, 42, 0
1, 55440, Note_on_c, 9, 42, 45
1, 55440, Note_on_c, 9, 36, 120
1, 55679, Note_on_c, 9, 42, 0
1, 55679, Note_on_c, 9, 36, 0
1, 55680, Note_on_c, 9, 42, 89
1, 55680, Note_on_c, 9, 36, 120
1, 55919, Note_on_c, 9, 42, 0
1, 55920, Note_on_c, 9, 42, 41
1, 56159, Note_on_c, 9, 36, 0
1, 56159, Note_on_c, 9, 42, 0
1, 56160, Note_on_c, 9, 38, 121
1, 56160, Note_on_c, 9, 39, 120
1, 56160, Note_on_c, 9, 42, 101
1, 56399, Note_on_c, 9, 38, 0
1, 56399, Note_on_c, 9, 39, 0
1, 56399, Note_on_c, 9, 42, 0
1, 56400, Note_on_c, 9, 42, 45
1, 56400, Note_on_c, 9, 36, 120
1, 56639, Note_on_c, 9, 42, 0
1, 56639, Note_on_c, 9, 36, 0
1, 56640, Note_on_c, 9, 38, 121
1, 56640, Note_on_c, 9, 42, 89
1, 56640, Note_on_c, 9, 36, 120
1, 56879, Note_on_c, 9, 38, 0
1, 56879, Note_on_c, 9, 42, 0
1, 56880, Note_on_c, 9, 42, 41
1, 56999, Note_on_c, 9, 42, 0
1, 57000, Note_on_c, 9, 38, 121
1, 57119, Note_on_c, 9, 36, 0
1, 57119, Note_on_c, 9, 38, 0
1, 57120, Note_on_c, 9, 38, 121
1, 57120, Note_on_c, 9, 39, 120
1, 57120, Note_on_c, 9, 42, 101
1, 57359, Note_on_c, 9, 38, 0
1, 57359, Note_on_c, 9, 39, 0
1, 57359, Note_on_c, 9, 42, 0
1, 57360, Note_on_c, 9, 38, 127
1, 57360, Note_on_c, 9, 42, 45
1, 57360, Note_on_c, 9, 36, 120
1, 57599, Note_on_c, 9, 38, 0
1, 57599, Note_on_c, 9, 42, 0
1, 57599, Note_on_c, 9, 36, 0
1, 57600, Note_on_c, 9, 51, 81
1, 57600, Note_on_c, 9, 69, 101
1, 57600, Note_on_c, 9, 36, 120
1, 57719, Note_on_c, 9, 51, 0
1, 57719, Note_on_c, 9, 69, 0
1, 57720, Note_on_c, 9, 69, 49
1, 57839, Note_on_c, 9, 69, 0
1, 57840, Note_on_c, 9, 51, 57
1, 57840, Note_on_c, 9, 69, 45
1, 57959, Note_on_c, 9, 51, 0
1, 57959, Note_on_c, 9, 69, 0
1, 57960, Note_on_c, 9, 69, 41
1, 58079, Note_on_c, 9, 36, 0
1, 58079, Note_on_c, 9, 69, 0
1, 58080, Note_on_c, 9, 38, 121
1, 58080, Note_on_c, 9, 39, 120
1, 58080, Note_on_c, 9, 51, 89
1, 58080, Note_on_c, 9, 69, 113
1, 58199, Note_on_c, 9, 38, 0
1, 58199, Note_on_c, 9, 39, 0
1, 58199, Note_on_c, 9, 51, 0
1, 58199, Note_on_c, 9, 69, 0
1, 58200, Note_on_c, 9, 69, 65
1, 58319, Note_on_c, 9, 69, 0
1, 58320, Note_on_c, 9, 51, 45
1, 58320, Note_on_c, 9, 69, 41
1, 58320, Note_on_c, 9, 36, 120
1, 58439, Note_on_c, 9, 51, 0
1, 58439, Note_on_c, 9, 69, 0
1, 58440, Note_on_c, 9, 69, 41
1, 58559, Note_on_c, 9, 36, 0
1, 58559, Note_on_c, 9, 69, 0
1, 58560, Note_on_c, 9, 51, 89
1, 58560, Note_on_c, 9, 69, 113
1, 58560, Note_on_c, 9, 36, 120
1, 58679, Note_on_c, 9, 51, 0
1, 58679, Note_on_c, 9, 69, 0
1, 58680, Note_on_c, 9, 69, 49
1, 58799, Note_on_c, 9, 69, 0
1, 58800, Note_on_c, 9, 51, 45
1, 58800, Note_on_c, 9, 69, 37
1, 58919, Note_on_c, 9, 51, 0
1, 58919, Note_on_c, 9, 69, 0
1, 58920, Note_on_c, 9, 69, 41
1, 59039, Note_on_c, 9, 36, 0
1, 59039, Note_on_c, 9, 69, 0
1, 59040, Note_on_c, 9, 38, 121
1, 59040, Note_on_c, 9, 39, 120
1, 59040, Note_on_c, 9, 51, 89
1, 59040, Note_on_c, 9, 69, 113
1, 59159, Note_on_c, 9, 38, 0
1, 59159, Note_on_c, 9, 39, 0
1, 59159, Note_on_c, 9, 51, 0
1, 59159, Note_on_c, 9, 69, 0
1, 59160, Note_on_c, 9, 69, 57
1, 59279, Note_on_c, 9, 69, 0
1, 59280, Note_on_c, 9, 51, 45
1, 59280, Note_on_c, 9, 69, 37
1, 59280, Note_on_c, 9, 36, 120
1, 59399, Note_on_c, 9, 51, 0
1, 59399, Note_on_c, 9, 69, 0
1, 59400, Note_on_c, 9, 69, 45
1, 59519, Note_on_c, 9, 36, 0
1, 59519, Note_on_c, 9, 69, 0
1, 59520, Note_on_c, 9, 51, 101
1, 59520, Note_on_c, 9, 69, 101
1, 59520, Note_on_c, 9, 36, 120
1, 59639, Note_on_c, 9, 51, 0
1, 59639, Note_on_c, 9, 69, 0
1, 59640, Note_on_c, 9, 69, 45
1, 59759, Note_on_c, 9, 69, 0
1, 59760, Note_on_c, 9, 51, 45
1, 59760, Note_on_c, 9, 69, 41
1, 59879, Note_on_c, 9, 51, 0
1, 59879, Note_on_c, 9, 69, 0
1, 59880, Note_on_c, 9, 69, 41
1, 59999, Note_on_c, 9, 36, 0
1, 59999, Note_on_c, 9, 69, 0
1, 60000, Note_on_c, 9, 38, 120
1, 60000, Note_on_c, 9, 39, 120
1, 60000, Note_on_c, 9, 51, 113
1, 60000, Note_on_c, 9, 69, 113
1, 60119, Note_on_c, 9, 38, 0
1, 60119, Note_on_c, 9, 39, 0
1, 60119, Note_on_c, 9, 51, 0
1, 60119, Note_on_c, 9, 69, 0
1, 60120, Note_on_c, 9, 69, 45
1, 60239, Note_on_c, 9, 69, 0
1, 60240, Note_on_c, 9, 51, 41
1, 60240, Note_on_c, 9, 69, 45
1, 60240, Note_on_c, 9, 36, 120
1, 60359, Note_on_c, 9, 51, 0
1, 60359, Note_on_c, 9, 69, 0
1, 60360, Note_on_c, 9, 69, 41
1, 60479, Note_on_c, 9, 36, 0
1, 60479, Note_on_c, 9, 69, 0
1, 60480, Note_on_c, 9, 51, 101
1, 60480, Note_on_c, 9, 69, 113
1, 60480, Note_on_c, 9, 36, 120
1, 60599, Note_on_c, 9, 51, 0
1, 60599, Note_on_c, 9, 69, 0
1, 60600, Note_on_c, 9, 69, 57
1, 60719, Note_on_c, 9, 69, 0
1, 60720, Note_on_c, 9, 51, 37
1, 60720, Note_on_c, 9, 69, 45
1, 60839, Note_on_c, 9, 51, 0
1, 60839, Note_on_c, 9, 69, 0
1, 60840, Note_on_c, 9, 69, 45
1, 60959, Note_on_c, 9, 36, 0
1, 60959, Note_on_c, 9, 69, 0
1, 60960, Note_on_c, 9, 38, 120
1, 60960, Note_on_c, 9, 39, 120
1, 60960, Note_on_c, 9, 51, 101
1, 60960, Note_on_c, 9, 69, 101
1, 61079, Note_on_c, 9, 38, 0
1, 61079, Note_on_c, 9, 39, 0
1, 61079, Note_on_c, 9, 51, 0
1, 61079, Note_on_c, 9, 69, 0
1, 61080, Note_on_c, 9, 69, 57
1, 61199, Note_on_c, 9, 69, 0
1, 61200, Note_on_c, 9, 51, 41
1, 61200, Note_on_c, 9, 69, 41
1, 61200, Note_on_c, 9, 36, 120
1, 61319, Note_on_c, 9, 51, 0
1, 61319, Note_on_c, 9, 69, 0
1, 61320, Note_on_c, 9, 69, 57
1, 61439, Note_on_c, 9, 36, 0
1, 61439, Note_on_c, 9, 69, 0
1, 61440, Note_on_c, 9, 51, 81
1, 61440, Note_on_c, 9, 69, 101
1, 61440, Note_on_c, 9, 36, 120
1, 61559, Note_on_c, 9, 51, 0
1, 61559, Note_on_c, 9, 69, 0
1, 61560, Note_on_c, 9, 69, 49
1, 61679, Note_on_c, 9, 69, 0
1, 61680, Note_on_c, 9, 51, 41
1, 61680, Note_on_c, 9, 69, 45
1, 61799, Note_on_c, 9, 51, 0
1, 61799, Note_on_c, 9, 69, 0
1, 61800, Note_on_c, 9, 69, 41
1, 61919, Note_on_c, 9, 36, 0
1, 61919, Note_on_c, 9, 69, 0
1, 61920, Note_on_c, 9, 38, 121
1, 61920, Note_on_c, 9, 39, 120
1, 61920, Note_on_c, 9, 51, 101
1, 61920, Note_on_c, 9, 69, 113
1, 62039, Note_on_c, 9, 38, 0
1, 62039, Note_on_c, 9, 39, 0
1, 62039, Note_on_c, 9, 51, 0
1, 62039, Note_on_c, 9, 69, 0
1, 62040, Note_on_c, 9, 69, 65
1, 62159, Note_on_c, 9, 69, 0
1, 62160, Note_on_c, 9, 51, 49
1, 62160, Note_on_c, 9, 69, 41
1, 62160, Note_on_c, 9, 36, 120
1, 62279, Note_on_c, 9, 51, 0
1, 62279, Note_on_c, 9, 69, 0
1, 62280, Note_on_c, 9, 69, 41
1, 62399, Note_on_c, 9, 36, 0
1, 62399, Note_on_c, 9, 69, 0
1, 62400, Note_on_c, 9, 51, 101
1, 62400, Note_on_c, 9, 69, 113
1, 62400, Note_on_c, 9, 36, 120
1, 62519, Note_on_c, 9, 51, 0
1, 62519, Note_on_c, 9, 69, 0
1, 62520, Note_on_c, 9, 69, 49
1, 62639, Note_on_c, 9, 69, 0
1, 62640, Note_on_c, 9, 51, 45
1, 62640, Note_on_c, 9, 69, 37
1, 62759, Note_on_c, 9, 51, 0
1, 62759, Note_on_c, 9, 69, 0
1, 62760, Note_on_c, 9, 69, 41
1, 62879, Note_on_c, 9, 36, 0
1, 62879, Note_on_c, 9, 69, 0
1, 62880, Note_on_c, 9, 38, 121
1, 62880, Note_on_c, 9, 39, 120
1, 62880, Note_on_c, 9, 51, 101
1, 62880, Note_on_c, 9, 69, 113
1, 62999, Note_on_c, 9, 38, 0
1, 62999, Note_on_c, 9, 39, 0
1, 62999, Note_on_c, 9, 51, 0
1, 62999, Note_on_c, 9, 69, 0
1, 63000, Note_on_c, 9, 69, 57
1, 63119, Note_on_c, 9, 69, 0
1, 63120, Note_on_c, 9, 51, 45
1, 63120, Note_on_c, 9, 69, 37
1, 63120, Note_on_c, 9, 36, 120
1, 63239, Note_on_c, 9, 51, 0
1, 63239, Note_on_c, 9, 69, 0
1, 63240, Note_on_c, 9, 69, 45
1, 63359, Note_on_c, 9, 36, 0
1, 63359, Note_on_c, 9, 69, 0
1, 63360, Note_on_c, 9, 51, 89
1, 63360, Note_on_c, 9, 69, 101
1, 63360, Note_on_c, 9, 36, 120
1, 63479, Note_on_c, 9, 51, 0
1, 63479, Note_on_c, 9, 69, 0
1, 63480, Note_on_c, 9, 69, 45
1, 63599, Note_on_c, 9, 69, 0
1, 63600, Note_on_c, 9, 51, 41
1, 63600, Note_on_c, 9, 69, 41
1, 63719, Note_on_c, 9, 51, 0
1, 63719, Note_on_c, 9, 69, 0
1, 63720, Note_on_c, 9, 69, 41
1, 63839, Note_on_c, 9, 36, 0
1, 63839, Note_on_c, 9, 69, 0
1, 63840, Note_on_c, 9, 38, 121
1, 63840, Note_on_c, 9, 39, 120
1, 63840, Note_on_c, 9, 51, 101
1, 63840, Note_on_c, 9, 69, 113
1, 63959, Note_on_c, 9, 38, 0
1, 63959, Note_on_c, 9, 39, 0
1, 63959, Note_on_c, 9, 51, 0
1, 63959, Note_on_c, 9, 69, 0
1, 63960, Note_on_c, 9, 69, 45
1, 64079, Note_on_c, 9, 69, 0
1, 64080, Note_on_c, 9, 51, 45
1, 64080, Note_on_c, 9, 69, 45
1, 64080, Note_on_c, 9, 36, 120
1, 64199, Note_on_c, 9, 51, 0
1, 64199, Note_on_c, 9, 69, 0
1, 64200, Note_on_c, 9, 69, 41
1, 64319, Note_on_c, 9, 36, 0
1, 64319, Note_on_c, 9, 69, 0
1, 64320, Note_on_c, 9, 51, 89
1, 64320, Note_on_c, 9, 69, 113
1, 64320, Note_on_c, 9, 36, 120
1, 64439, Note_on_c, 9, 51, 0
1, 64439, Note_on_c, 9, 69, 0
1, 64440, Note_on_c, 9, 69, 57
1, 64559, Note_on_c, 9, 69, 0
1, 64560, Note_on_c, 9, 51, 41
1, 64560, Note_on_c, 9, 69, 45
1, 64679, Note_on_c, 9, 51, 0
1, 64679, Note_on_c, 9, 69, 0
1, 64680, Note_on_c, 9, 69, 45
1, 64799, Note_on_c, 9, 36, 0
1, 64799, Note_on_c, 9, 69, 0
1, 64800, Note_on_c, 9, 38, 127
1, 64800, Note_on_c, 9, 39, 120
1, 64800, Note_on_c, 9, 51, 101
1, 64800, Note_on_c, 9, 69, 101
1, 64919, Note_on_c, 9, 38, 0
1, 64919, Note_on_c, 9, 39, 0
1, 64919, Note_on_c, 9, 51, 0
1, 64919, Note_on_c, 9, 69, 0
1, 64920, Note_on_c, 9, 69, 57
1, 65039, Note_on_c, 9, 69, 0
1, 65040, Note_on_c, 9, 51, 45
1, 65040, Note_on_c, 9, 69, 41
1, 65040, Note_on_c, 9, 36, 120
1, 65159, Note_on_c, 9, 51, 0
1, 65159, Note_on_c, 9, 69, 0
1, 65160, Note_on_c, 9, 69, 57
1, 65279, Note_on_c, 9, 36, 0
1, 65279, Note_on_c, 9, 69, 0
1, 65280, Note_on_c, 9, 51, 81
1, 65280, Note_on_c, 9, 69, 101
1, 65280, Note_on_c, 9, 36, 120
1, 65399, Note_on_c, 9, 51, 0
1, 65399, Note_on_c, 9, 69, 0
1, 65400, Note_on_c, 9, 69, 49
1, 65519, Note_on_c, 9, 69, 0
1, 65520, Note_on_c, 9, 51, 57
1, 65520, Note_on_c, 9, 69, 45
1, 65639, Note_on_c, 9, 51, 0
1, 65639, Note_on_c, 9, 69, 0
1, 65640, Note_on_c, 9, 69, 41
1, 65759, Note_on_c, 9, 36, 0
1, 65759, Note_on_c, 9, 69, 0
1, 65760, Note_on_c, 9, 38, 121
1, 65760, Note_on_c, 9, 39, 120
1, 65760, Note_on_c, 9, 51, 89
1, 65760, Note_on_c, 9, 69, 113
1, 65879, Note_on_c, 9, 38, 0
1, 65879, Note_on_c, 9, 39, 0
1, 65879, Note_on_c, 9, 51, 0
1, 65879, Note_on_c, 9, 69, 0
1, 65880, Note_on_c, 9, 69, 65
1, 65999, Note_on_c, 9, 69, 0
1, 66000, Note_on_c, 9, 51, 45
1, 66000, Note_on_c, 9, 69, 41
1, 66000, Note_on_c, 9, 36, 120
1, 66119, Note_on_c, 9, 51, 0
1, 66119, Note_on_c, 9, 69, 0
1, 66120, Note_on_c, 9, 69, 41
1, 66239, Note_on_c, 9, 36, 0
1, 66239, Note_on_c, 9, 69, 0
1, 66240, Note_on_c, 9, 51, 89
1, 66240, Note_on_c, 9, 69, 113
1, 66240, Note_on_c, 9, 36, 120
1, 66359, Note_on_c, 9, 51, 0
1, 66359, Note_on_c, 9, 69, 0
1, 66360, Note_on_c, 9, 69, 49
1, 66479, Note_on_c, 9, 69, 0
1, 66480, Note_on_c, 9, 51, 45
1, 66480, Note_on_c, 9, 69, 37
1, 66599, Note_on_c, 9, 51, 0
1, 66599, Note_on_c, 9, 69, 0
1, 66600, Note_on_c, 9, 69, 41
1, 66719, Note_on_c, 9, 36, 0
1, 66719, Note_on_c, 9, 69, 0
1, 66720, Note_on_c, 9, 38, 121
1, 66720, Note_on_c, 9, 39, 120
1, 66720, Note_on_c, 9, 51, 89
1, 66720, Note_on_c, 9, 69, 113
1, 66839, Note_on_c, 9, 38, 0
1, 66839, Note_on_c, 9, 39, 0
1, 66839, Note_on_c, 9, 51, 0
1, 66839, Note_on_c, 9, 69, 0
1, 66840, Note_on_c, 9, 69, 57
1, 66959, Note_on_c, 9, 69, 0
1, 66960, Note_on_c, 9, 51, 45
1, 66960, Note_on_c, 9, 69, 37
1, 66960, Note_on_c, 9, 36, 120
1, 67079, Note_on_c, 9, 51, 0
1, 67079, Note_on_c, 9, 69, 0
1, 67080, Note_on_c, 9, 69, 45
1, 67199, Note_on_c, 9, 36, 0
1, 67199, Note_on_c, 9, 69, 0
1, 67200, Note_on_c, 9, 51, 101
1, 67200, Note_on_c, 9, 69, 101
1, 67200, Note_on_c, 9, 36, 120
1, 67319, Note_on_c, 9, 51, 0
1, 67319, Note_on_c, 9, 69, 0
1, 67320, Note_on_c, 9, 69, 45
1, 67439, Note_on_c, 9, 69, 0
1, 67440, Note_on_c, 9, 51, 45
1, 67440, Note_on_c, 9, 69, 41
1, 67559, Note_on_c, 9, 51, 0
1, 67559, Note_on_c, 9, 69, 0
1, 67560, Note_on_c, 9, 69, 41
1, 67679, Note_on_c, 9, 36, 0
1, 67679, Note_on_c, 9, 69, 0
1, 67680, Note_on_c, 9, 38, 120
1, 67680, Note_on_c, 9, 39, 120
1, 67680, Note_on_c, 9, 51, 113
1, 67680, Note_on_c, 9, 69, 113
1, 67799, Note_on_c, 9, 38, 0
1, 67799, Note_on_c, 9, 39, 0
1, 67799, Note_on_c, 9, 51, 0
1, 67799, Note_on_c, 9, 69, 0
1, 67800, Note_on_c, 9, 69, 45
1, 67919, Note_on_c, 9, 69, 0
1, 67920, Note_on_c, 9, 51, 41
1, 67920, Note_on_c, 9, 69, 45
1, 67920, Note_on_c, 9, 36, 120
1, 68039, Note_on_c, 9, 51, 0
1, 68039, Note_on_c, 9, 69, 0
1, 68040, Note_on_c, 9, 69, 41
1, 68159, Note_on_c, 9, 36, 0
1, 68159, Note_on_c, 9, 69, 0
1, 68160, Note_on_c, 9, 51, 101
1, 68160, Note_on_c, 9, 69, 113
1, 68160, Note_on_c, 9, 36, 120
1, 68279, Note_on_c, 9, 51, 0
1, 68279, Note_on_c, 9, 69, 0
1, 68280, Note_on_c, 9, 69, 57
1, 68399, Note_on_c, 9, 69, 0
1, 68400, Note_on_c, 9, 51, 37
1, 68400, Note_on_c, 9, 69, 45
1, 68519, Note_on_c, 9, 51, 0
1, 68519, Note_on_c, 9, 69, 0
1, 68520, Note_on_c, 9, 69, 45
1, 68639, Note_on_c, 9, 36, 0
1, 68639, Note_on_c, 9, 69, 0
1, 68640, Note_on_c, 9, 38, 120
1, 68640, Note_on_c, 9, 39, 120
1, 68640, Note_on_c, 9, 51, 101
1, 68640, Note_on_c, 9, 69, 101
1, 68759, Note_on_c, 9, 38, 0
1, 68759, Note_on_c, 9, 39, 0
1, 68759, Note_on_c, 9, 51, 0
1, 68759, Note_on_c, 9, 69, 0
1, 68760, Note_on_c, 9, 69, 57
1, 68879, Note_on_c, 9, 69, 0
1, 68880, Note_on_c, 9, 51, 41
1, 68880, Note_on_c, 9, 69, 41
1, 68880, Note_on_c, 9, 36, 120
1, 68999, Note_on_c, 9, 51, 0
1, 68999, Note_on_c, 9, 69, 0
1, 69000, Note_on_c, 9, 69, 57
1, 69119, Note_on_c, 9, 36, 0
1, 69119, Note_on_c, 9, 69, 0
1, 69120, Note_on_c, 9, 51, 81
1, 69120, Note_on_c, 9, 69, 101
1, 69120, Note_on_c, 9, 36, 120
1, 69239, Note_on_c, 9, 51, 0
1, 69239, Note_on_c, 9, 69, 0
1, 69240, Note_on_c, 9, 69, 49
1, 69359, Note_on_c, 9, 69, 0
1, 69360, Note_on_c, 9, 51, 41
1, 69360, Note_on_c, 9, 69, 45
1, 69479, Note_on_c, 9, 51, 0
1, 69479, Note_on_c, 9, 69, 0
1, 69480, Note_on_c, 9, 69, 41
1, 69599, Note_on_c, 9, 36, 0
1, 69599, Note_on_c, 9, 69, 0
1, 69600, Note_on_c, 9, 38, 121
1, 69600, Note_on_c, 9, 39, 120
1, 69600, Note_on_c, 9, 51, 101
1, 69600, Note_on_c, 9, 69, 113
1, 69719, Note_on_c, 9, 38, 0
1, 69719, Note_on_c, 9, 39, 0
1, 69719, Note_on_c, 9, 51, 0
1, 69719, Note_on_c, 9, 69, 0
1, 69720, Note_on_c, 9, 69, 65
1, 69839, Note_on_c, 9, 69, 0
1, 69840, Note_on_c, 9, 51, 49
1, 69840, Note_on_c, 9, 69, 41
1, 69840, Note_on_c, 9, 36, 120
1, 69959, Note_on_c, 9, 51, 0
1, 69959, Note_on_c, 9, 69, 0
1, 69960, Note_on_c, 9, 69, 41
1, 70079, Note_on_c, 9, 36, 0
1, 70079, Note_on_c, 9, 69, 0
1, 70080, Note_on_c, 9, 51, 101
1, 70080, Note_on_c, 9, 69, 113
1, 70080, Note_on_c, 9, 36, 120
1, 70199, Note_on_c, 9, 51, 0
1, 70199, Note_on_c, 9, 69, 0
1, 70200, Note_on_c, 9, 69, 49
1, 70319, Note_on_c, 9, 69, 0
1, 70320, Note_on_c, 9, 51, 45
1, 70320, Note_on_c, 9, 69, 37
1, 70439, Note_on_c, 9, 51, 0
1, 70439, Note_on_c, 9, 69, 0
1, 70440, Note_on_c, 9, 69, 41
1, 70559, Note_on_c, 9, 36, 0
1, 70559, Note_on_c, 9, 69, 0
1, 70560, Note_on_c, 9, 38, 121
1, 70560, Note_on_c, 9, 39, 120
1, 70560, Note_on_c, 9, 51, 101
1, 70560, Note_on_c, 9, 69, 113
1, 70679, Note_on_c, 9, 38, 0
1, 70679, Note_on_c, 9, 39, 0
1, 70679, Note_on_c, 9, 51, 0
1, 70679, Note_on_c, 9, 69, 0
1, 70680, Note_on_c, 9, 69, 57
1, 70799, Note_on_c, 9, 69, 0
1, 70800, Note_on_c, 9, 51, 45
1, 70800, Note_on_c, 9, 69, 37
1, 70800, Note_on_c, 9, 36, 120
1, 70919, Note_on_c, 9, 51, 0
1, 70919, Note_on_c, 9, 69, 0
1, 70920, Note_on_c, 9, 69, 45
1, 71039, Note_on_c, 9, 36, 0
1, 71039, Note_on_c, 9, 69, 0
1, 71040, Note_on_c, 9, 51, 89
1, 71040, Note_on_c, 9, 69, 101
1, 71040, Note_on_c, 9, 36, 120
1, 71159, Note_on_c, 9, 51, 0
1, 71159, Note_on_c, 9, 69, 0
1, 71160, Note_on_c, 9, 69, 45
1, 71279, Note_on_c, 9, 69, 0
1, 71280, Note_on_c, 9, 51, 41
1, 71280, Note_on_c, 9, 69, 41
1, 71399, Note_on_c, 9, 51, 0
1, 71399, Note_on_c, 9, 69, 0
1, 71400, Note_on_c, 9, 69, 41
1, 71519, Note_on_c, 9, 36, 0
1, 71519, Note_on_c, 9, 69, 0
1, 71520, Note_on_c, 9, 38, 121
1, 71520, Note_on_c, 9, 39, 120
1, 71520, Note_on_c, 9, 51, 101
1, 71520, Note_on_c, 9, 69, 113
1, 71639, Note_on_c, 9, 38, 0
1, 71639, Note_on_c, 9, 39, 0
1, 71639, Note_on_c, 9, 51, 0
1, 71639, Note_on_c, 9, 69, 0
1, 71640, Note_on_c, 9, 69, 45
1, 71759, Note_on_c, 9, 69, 0
1, 71760, Note_on_c, 9, 51, 45
1, 71760, Note_on_c, 9, 69, 45
1, 71760, Note_on_c, 9, 36, 120
1, 71879, Note_on_c, 9, 51, 0
1, 71879, Note_on_c, 9, 69, 0
1, 71880, Note_on_c, 9, 69, 41
1, 71999, Note_on_c, 9, 36, 0
1, 71999, Note_on_c, 9, 69, 0
1, 72000, Note_on_c, 9, 51, 89
1, 72000, Note_on_c, 9, 69, 113
1, 72000, Note_on_c, 9, 36, 120
1, 72119, Note_on_c, 9, 51, 0
1, 72119, Note_on_c, 9, 69, 0
1, 72120, Note_on_c, 9, 69, 57
1, 72239, Note_on_c, 9, 69, 0
1, 72240, Note_on_c, 9, 51, 41
1, 72240, Note_on_c, 9, 69, 45
1, 72359, Note_on_c, 9, 51, 0
1, 72359, Note_on_c, 9, 69, 0
1, 72360, Note_on_c, 9, 69, 45
1, 72479, Note_on_c, 9, 36, 0
1, 72479, Note_on_c, 9, 69, 0
1, 72480, Note_on_c, 9, 38, 127
1, 72480, Note_on_c, 9, 39, 120
1, 72480, Note_on_c, 9, 51, 101
1, 72480, Note_on_c, 9, 69, 101
1, 72599, Note_on_c, 9, 38, 0
1, 72599, Note_on_c, 9, 39, 0
1, 72599, Note_on_c, 9, 51, 0
1, 72599, Note_on_c, 9, 69, 0
1, 72600, Note_on_c, 9, 69, 57
1, 72719, Note_on_c, 9, 69, 0
1, 72720, Note_on_c, 9, 51, 45
1, 72720, Note_on_c, 9, 69, 41
1, 72720, Note_on_c, 9, 36, 120
1, 72839, Note_on_c, 9, 51, 0
1, 72839, Note_on_c, 9, 69, 0
1, 72840, Note_on_c, 9, 69, 57
1, 72959, Note_on_c, 9, 36, 0
1, 72959, Note_on_c, 9, 69, 0
1, 72960, Note_on_c, 9, 51, 81
1, 72960, Note_on_c, 9, 69, 101
1, 72960, Note_on_c, 9, 36, 120
1, 73079, Note_on_c, 9, 51, 0
1, 73079, Note_on_c, 9, 69, 0
1, 73080, Note_on_c, 9, 69, 49
1, 73199, Note_on_c, 9, 69, 0
1, 73200, Note_on_c, 9, 51, 57
1, 73200, Note_on_c, 9, 69, 45
1, 73319, Note_on_c, 9, 51, 0
1, 73319, Note_on_c, 9, 69, 0
1, 73320, Note_on_c, 9, 69, 41
1, 73439, Note_on_c, 9, 36, 0
1, 73439, Note_on_c, 9, 69, 0
1, 73440, Note_on_c, 9, 38, 121
1, 73440, Note_on_c, 9, 54, 125
1, 73440, Note_on_c, 9, 39, 120
1, 73440, Note_on_c, 9, 51, 89
1, 73440, Note_on_c, 9, 69, 113
1, 73559, Note_on_c, 9, 38, 0
1, 73559, Note_on_c, 9, 54, 0
1, 73559, Note_on_c, 9, 39, 0
1, 73559, Note_on_c, 9, 51, 0
1, 73559, Note_on_c, 9, 69, 0
1, 73560, Note_on_c, 9, 69, 65
1, 73679, Note_on_c, 9, 69, 0
1, 73680, Note_on_c, 9, 51, 45
1, 73680, Note_on_c, 9, 69, 41
1, 73680, Note_on_c, 9, 36, 120
1, 73799, Note_on_c, 9, 51, 0
1, 73799, Note_on_c, 9, 69, 0
1, 73800, Note_on_c, 9, 69, 41
1, 73919, Note_on_c, 9, 36, 0
1, 73919, Note_on_c, 9, 69, 0
1, 73920, Note_on_c, 9, 51, 89
1, 73920, Note_on_c, 9, 69, 113
1, 73920, Note_on_c, 9, 36, 120
1, 74039, Note_on_c, 9, 51, 0
1, 74039, Note_on_c, 9, 69, 0
1, 74040, Note_on_c, 9, 69, 49
1, 74159, Note_on_c, 9, 69, 0
1, 74160, Note_on_c, 9, 51, 45
1, 74160, Note_on_c, 9, 69, 37
1, 74279, Note_on_c, 9, 51, 0
1, 74279, Note_on_c, 9, 69, 0
1, 74280, Note_on_c, 9, 69, 41
1, 74399, Note_on_c, 9, 36, 0
1, 74399, Note_on_c, 9, 69, 0
1, 74400, Note_on_c, 9, 38, 121
1, 74400, Note_on_c, 9, 54, 125
1, 74400, Note_on_c, 9, 39, 120
1, 74400, Note_on_c, 9, 51, 89
1, 74400, Note_on_c, 9, 69, 113
1, 74519, Note_on_c, 9, 38, 0
1, 74519, Note_on_c, 9, 54, 0
1, 74519, Note_on_c, 9, 39, 0
1, 74519, Note_on_c, 9, 51, 0
1, 74519, Note_on_c, 9, 69, 0
1, 74520, Note_on_c, 9, 69, 57
1, 74639, Note_on_c, 9, 69, 0
1, 74640, Note_on_c, 9, 51, 45
1, 74640, Note_on_c, 9, 69, 37
1, 74640, Note_on_c, 9, 36, 120
1, 74759, Note_on_c, 9, 51, 0
1, 74759, Note_on_c, 9, 69, 0
1, 74760, Note_on_c, 9, 69, 45
1, 74879, Note_on_c, 9, 36, 0
1, 74879, Note_on_c, 9, 69, 0
1, 74880, Note_on_c, 9, 51, 101
1, 74880, Note_on_c, 9, 69, 101
1, 74880, Note_on_c, 9, 36, 120
1, 74999, Note_on_c, 9, 51, 0
1, 74999, Note_on_c, 9, 69, 0
1, 75000, Note_on_c, 9, 69, 45
1, 75119, Note_on_c, 9, 69, 0
1, 75120, Note_on_c, 9, 51, 45
1, 75120, Note_on_c, 9, 69, 41
1, 75239, Note_on_c, 9, 51, 0
1, 75239, Note_on_c, 9, 69, 0
1, 75240, Note_on_c, 9, 69, 41
1, 75359, Note_on_c, 9, 36, 0
1, 75359, Note_on_c, 9, 69, 0
1, 75360, Note_on_c, 9, 38, 120
1, 75360, Note_on_c, 9, 54, 113
1, 75360, Note_on_c, 9, 39, 120
1, 75360, Note_on_c, 9, 51, 113
1, 75360, Note_on_c, 9, 69, 113
1, 75479, Note_on_c, 9, 38, 0
1, 75479, Note_on_c, 9, 54, 0
1, 75479, Note_on_c, 9, 39, 0
1, 75479, Note_on_c, 9, 51, 0
1, 75479, Note_on_c, 9, 69, 0
1, 75480, Note_on_c, 9, 69, 45
1, 75599, Note_on_c, 9, 69, 0
1, 75600, Note_on_c, 9, 51, 41
1, 75600, Note_on_c, 9, 69, 45
1, 75600, Note_on_c, 9, 36, 120
1, 75719, Note_on_c, 9, 51, 0
1, 75719, Note_on_c, 9, 69, 0
1, 75720, Note_on_c, 9, 69, 41
1, 75839, Note_on_c, 9, 36, 0
1, 75839, Note_on_c, 9, 69, 0
1, 75840, Note_on_c, 9, 51, 101
1, 75840, Note_on_c, 9, 69, 113
1, 75840, Note_on_c, 9, 36, 120
1, 75959, Note_on_c, 9, 51, 0
1, 75959, Note_on_c, 9, 69, 0
1, 75960, Note_on_c, 9, 69, 57
1, 76079, Note_on_c, 9, 69, 0
1, 76080, Note_on_c, 9, 51, 37
1, 76080, Note_on_c, 9, 69, 45
1, 76199, Note_on_c, 9, 51, 0
1, 76199, Note_on_c, 9, 69, 0
1, 76200, Note_on_c, 9, 69, 45
1, 76319, Note_on_c, 9, 36, 0
1, 76319, Note_on_c, 9, 69, 0
1, 76320, Note_on_c, 9, 38, 120
1, 76320, Note_on_c, 9, 54, 113
1, 76320, Note_on_c, 9, 39, 120
1, 76320, Note_on_c, 9, 51, 101
1, 76320, Note_on_c, 9, 69, 101
1, 76439, Note_on_c, 9, 38, 0
1, 76439, Note_on_c, 9, 54, 0
1, 76439, Note_on_c, 9, 39, 0
1, 76439, Note_on_c, 9, 51, 0
1, 76439, Note_on_c, 9, 69, 0
1, 76440, Note_on_c, 9, 69, 57
1, 76559, Note_on_c, 9, 69, 0
1, 76560, Note_on_c, 9, 51, 41
1, 76560, Note_on_c, 9, 69, 41
1, 76560, Note_on_c, 9, 36, 120
1, 76679, Note_on_c, 9, 51, 0
1, 76679, Note_on_c, 9, 69, 0
1, 76680, Note_on_c, 9, 69, 57
1, 76799, Note_on_c, 9, 36, 0
1, 76799, Note_on_c, 9, 69, 0
1, 76800, Note_on_c, 9, 51, 81
1, 76800, Note_on_c, 9, 69, 113
1, 76800, Note_on_c, 9, 36, 120
1, 76919, Note_on_c, 9, 51, 0
1, 76919, Note_on_c, 9, 69, 0
1, 76920, Note_on_c, 9, 69, 73
1, 77039, Note_on_c, 9, 69, 0
1, 77040, Note_on_c, 9, 51, 41
1, 77040, Note_on_c, 9, 69, 41
1, 77159, Note_on_c, 9, 51, 0
1, 77159, Note_on_c, 9, 69, 0
1, 77160, Note_on_c, 9, 69, 45
1, 77279, Note_on_c, 9, 36, 0
1, 77279, Note_on_c, 9, 69, 0
1, 77280, Note_on_c, 9, 38, 121
1, 77280, Note_on_c, 9, 54, 113
1, 77280, Note_on_c, 9, 39, 120
1, 77280, Note_on_c, 9, 51, 101
1, 77280, Note_on_c, 9, 69, 101
1, 77399, Note_on_c, 9, 38, 0
1, 77399, Note_on_c, 9, 54, 0
1, 77399, Note_on_c, 9, 39, 0
1, 77399, Note_on_c, 9, 51, 0
1, 77399, Note_on_c, 9, 69, 0
1, 77400, Note_on_c, 9, 69, 65
1, 77519, Note_on_c, 9, 69, 0
1, 77520, Note_on_c, 9, 51, 49
1, 77520, Note_on_c, 9, 69, 33
1, 77520, Note_on_c, 9, 36, 120
1, 77639, Note_on_c, 9, 51, 0
1, 77639, Note_on_c, 9, 69, 0
1, 77640, Note_on_c, 9, 69, 45
1, 77759, Note_on_c, 9, 36, 0
1, 77759, Note_on_c, 9, 69, 0
1, 77760, Note_on_c, 9, 51, 101
1, 77760, Note_on_c, 9, 69, 89
1, 77760, Note_on_c, 9, 36, 120
1, 77879, Note_on_c, 9, 51, 0
1, 77879, Note_on_c, 9, 69, 0
1, 77880, Note_on_c, 9, 69, 57
1, 77999, Note_on_c, 9, 69, 0
1, 78000, Note_on_c, 9, 51, 45
1, 78000, Note_on_c, 9, 69, 45
1, 78119, Note_on_c, 9, 51, 0
1, 78119, Note_on_c, 9, 69, 0
1, 78120, Note_on_c, 9, 69, 45
1, 78239, Note_on_c, 9, 36, 0
1, 78239, Note_on_c, 9, 69, 0
1, 78240, Note_on_c, 9, 38, 121
1, 78240, Note_on_c, 9, 54, 101
1, 78240, Note_on_c, 9, 39, 120
1, 78240, Note_on_c, 9, 51, 101
1, 78240, Note_on_c, 9, 69, 113
1, 78359, Note_on_c, 9, 38, 0
1, 78359, Note_on_c, 9, 54, 0
1, 78359, Note_on_c, 9, 39, 0
1, 78359, Note_on_c, 9, 51, 0
1, 78359, Note_on_c, 9, 69, 0
1, 78360, Note_on_c, 9, 69, 73
1, 78479, Note_on_c, 9, 69, 0
1, 78480, Note_on_c, 9, 51, 45
1, 78480, Note_on_c, 9, 69, 57
1, 78480, Note_on_c, 9, 36, 120
1, 78599, Note_on_c, 9, 51, 0
1, 78599, Note_on_c, 9, 69, 0
1, 78600, Note_on_c, 9, 69, 65
1, 78719, Note_on_c, 9, 36, 0
1, 78719, Note_on_c, 9, 69, 0
1, 78720, Note_on_c, 9, 51, 89
1, 78720, Note_on_c, 9, 69, 113
1, 78720, Note_on_c, 9, 36, 120
1, 78839, Note_on_c, 9, 51, 0
1, 78839, Note_on_c, 9, 69, 0
1, 78840, Note_on_c, 9, 69, 45
1, 78959, Note_on_c, 9, 69, 0
1, 78960, Note_on_c, 9, 51, 41
1, 78960, Note_on_c, 9, 69, 41
1, 79079, Note_on_c, 9, 51, 0
1, 79079, Note_on_c, 9, 69, 0
1, 79080, Note_on_c, 9, 69, 41
1, 79199, Note_on_c, 9, 36, 0
1, 79199, Note_on_c, 9, 69, 0
1, 79200, Note_on_c, 9, 38, 121
1, 79200, Note_on_c, 9, 54, 101
1, 79200, Note_on_c, 9, 39, 120
1, 79200, Note_on_c, 9, 51, 101
1, 79200, Note_on_c, 9, 69, 113
1, 79319, Note_on_c, 9, 38, 0
1, 79319, Note_on_c, 9, 54, 0
1, 79319, Note_on_c, 9, 39, 0
1, 79319, Note_on_c, 9, 51, 0
1, 79319, Note_on_c, 9, 69, 0
1, 79320, Note_on_c, 9, 69, 57
1, 79439, Note_on_c, 9, 69, 0
1, 79440, Note_on_c, 9, 51, 45
1, 79440, Note_on_c, 9, 69, 45
1, 79440, Note_on_c, 9, 36, 120
1, 79559, Note_on_c, 9, 51, 0
1, 79559, Note_on_c, 9, 69, 0
1, 79560, Note_on_c, 9, 69, 49
1, 79679, Note_on_c, 9, 36, 0
1, 79679, Note_on_c, 9, 69, 0
1, 79680, Note_on_c, 9, 51, 89
1, 79680, Note_on_c, 9, 69, 101
1, 79680, Note_on_c, 9, 36, 120
1, 79799, Note_on_c, 9, 51, 0
1, 79799, Note_on_c, 9, 69, 0
1, 79800, Note_on_c, 9, 69, 65
1, 79919, Note_on_c, 9, 69, 0
1, 79920, Note_on_c, 9, 51, 41
1, 79920, Note_on_c, 9, 69, 49
1, 80039, Note_on_c, 9, 51, 0
1, 80039, Note_on_c, 9, 69, 0
1, 80040, Note_on_c, 9, 69, 73
1, 80159, Note_on_c, 9, 36, 0
1, 80159, Note_on_c, 9, 69, 0
1, 80160, Note_on_c, 9, 38, 127
1, 80160, Note_on_c, 9, 54, 101
1, 80160, Note_on_c, 9, 39, 120
1, 80160, Note_on_c, 9, 51, 101
1, 80160, Note_on_c, 9, 69, 113
1, 80279, Note_on_c, 9, 38, 0
1, 80279, Note_on_c, 9, 54, 0
1, 80279, Note_on_c, 9, 39, 0
1, 80279, Note_on_c, 9, 51, 0
1, 80279, Note_on_c, 9, 69, 0
1, 80280, Note_on_c, 9, 69, 65
1, 80399, Note_on_c, 9, 69, 0
1, 80400, Note_on_c, 9, 51, 45
1, 80400, Note_on_c, 9, 69, 57
1, 80400, Note_on_c, 9, 36, 120
1, 80519, Note_on_c, 9, 51, 0
1, 80519, Note_on_c, 9, 69, 0
1, 80520, Note_on_c, 9, 69, 73
1, 80639, Note_on_c, 9, 36, 0
1, 80639, Note_on_c, 9, 69, 0
1, 80640, Note_on_c, 9, 51, 81
1, 80640, Note_on_c, 9, 69, 101
1, 80640, Note_on_c, 9, 36, 120
1, 80759, Note_on_c, 9, 51, 0
1, 80759, Note_on_c, 9, 69, 0
1, 80760, Note_on_c, 9, 69, 49
1, 80879, Note_on_c, 9, 69, 0
1, 80880, Note_on_c, 9, 51, 57
1, 80880, Note_on_c, 9, 69, 45
1, 80999, Note_on_c, 9, 51, 0
1, 80999, Note_on_c, 9, 69, 0
1, 81000, Note_on_c, 9, 69, 41
1, 81119, Note_on_c, 9, 36, 0
1, 81119, Note_on_c, 9, 69, 0
1, 81120, Note_on_c, 9, 38, 121
1, 81120, Note_on_c, 9, 54, 113
1, 81120, Note_on_c, 9, 39, 120
1, 81120, Note_on_c, 9, 51, 89
1, 81120, Note_on_c, 9, 69, 113
1, 81239, Note_on_c, 9, 38, 0
1, 81239, Note_on_c, 9, 54, 0
1, 81239, Note_on_c, 9, 39, 0
1, 81239, Note_on_c, 9, 51, 0
1, 81239, Note_on_c, 9, 69, 0
1, 81240, Note_on_c, 9, 69, 65
1, 81359, Note_on_c, 9, 69, 0
1, 81360, Note_on_c, 9, 51, 45
1, 81360, Note_on_c, 9, 69, 41
1, 81360, Note_on_c, 9, 36, 120
1, 81479, Note_on_c, 9, 51, 0
1, 81479, Note_on_c, 9, 69, 0
1, 81480, Note_on_c, 9, 69, 41
1, 81599, Note_on_c, 9, 36, 0
1, 81599, Note_on_c, 9, 69, 0
1, 81600, Note_on_c, 9, 51, 89
1, 81600, Note_on_c, 9, 69, 113
1, 81600, Note_on_c, 9, 36, 120
1, 81719, Note_on_c, 9, 51, 0
1, 81719, Note_on_c, 9, 69, 0
1, 81720, Note_on_c, 9, 69, 49
1, 81839, Note_on_c, 9, 69, 0
1, 81840, Note_on_c, 9, 51, 45
1, 81840, Note_on_c, 9, 69, 37
1, 81959, Note_on_c, 9, 51, 0
1, 81959, Note_on_c, 9, 69, 0
1, 81960, Note_on_c, 9, 69, 41
1, 82079, Note_on_c, 9, 36, 0
1, 82079, Note_on_c, 9, 69, 0
1, 82080, Note_on_c, 9, 38, 121
1, 82080, Note_on_c, 9, 54, 101
1, 82080, Note_on_c, 9, 39, 120
1, 82080, Note_on_c, 9, 51, 89
1, 82080, Note_on_c, 9, 69, 113
1, 82199, Note_on_c, 9, 38, 0
1, 82199, Note_on_c, 9, 54, 0
1, 82199, Note_on_c, 9, 39, 0
1, 82199, Note_on_c, 9, 51, 0
1, 82199, Note_on_c, 9, 69, 0
1, 82200, Note_on_c, 9, 69, 57
1, 82319, Note_on_c, 9, 69, 0
1, 82320, Note_on_c, 9, 51, 45
1, 82320, Note_on_c, 9, 69, 37
1, 82320, Note_on_c, 9, 36, 120
1, 82439, Note_on_c, 9, 51, 0
1, 82439, Note_on_c, 9, 69, 0
1, 82440, Note_on_c, 9, 69, 45
1, 82559, Note_on_c, 9, 36, 0
1, 82559, Note_on_c, 9, 69, 0
1, 82560, Note_on_c, 9, 51, 101
1, 82560, Note_on_c, 9, 69, 101
1, 82560, Note_on_c, 9, 36, 120
1, 82679, Note_on_c, 9, 51, 0
1, 82679, Note_on_c, 9, 69, 0
1, 82680, Note_on_c, 9, 69, 45
1, 82799, Note_on_c, 9, 69, 0
1, 82800, Note_on_c, 9, 51, 45
1, 82800, Note_on_c, 9, 69, 41
1, 82919, Note_on_c, 9, 51, 0
1, 82919, Note_on_c, 9, 69, 0
1, 82920, Note_on_c, 9, 69, 41
1, 83039, Note_on_c, 9, 36, 0
1, 83039, Note_on_c, 9, 69, 0
1, 83040, Note_on_c, 9, 38, 120
1, 83040, Note_on_c, 9, 54, 89
1, 83040, Note_on_c, 9, 39, 120
1, 83040, Note_on_c, 9, 51, 113
1, 83040, Note_on_c, 9, 69, 113
1, 83159, Note_on_c, 9, 38, 0
1, 83159, Note_on_c, 9, 54, 0
1, 83159, Note_on_c, 9, 39, 0
1, 83159, Note_on_c, 9, 51, 0
1, 83159, Note_on_c, 9, 69, 0
1, 83160, Note_on_c, 9, 69, 45
1, 83279, Note_on_c, 9, 69, 0
1, 83280, Note_on_c, 9, 51, 41
1, 83280, Note_on_c, 9, 69, 45
1, 83280, Note_on_c, 9, 36, 120
1, 83399, Note_on_c, 9, 51, 0
1, 83399, Note_on_c, 9, 69, 0
1, 83400, Note_on_c, 9, 69, 41
1, 83519, Note_on_c, 9, 36, 0
1, 83519, Note_on_c, 9, 69, 0
1, 83520, Note_on_c, 9, 51, 101
1, 83520, Note_on_c, 9, 69, 113
1, 83520, Note_on_c, 9, 36, 120
1, 83639, Note_on_c, 9, 51, 0
1, 83639, Note_on_c, 9, 69, 0
1, 83640, Note_on_c, 9, 69, 57
1, 83759, Note_on_c, 9, 69, 0
1, 83760, Note_on_c, 9, 51, 37
1, 83760, Note_on_c, 9, 69, 45
1, 83879, Note_on_c, 9, 51, 0
1, 83879, Note_on_c, 9, 69, 0
1, 83880, Note_on_c, 9, 69, 45
1, 83999, Note_on_c, 9, 36, 0
1, 83999, Note_on_c, 9, 69, 0
1, 84000, Note_on_c, 9, 38, 120
1, 84000, Note_on_c, 9, 54, 113
1, 84000, Note_on_c, 9, 39, 120
1, 84000, Note_on_c, 9, 51, 101
1, 84000, Note_on_c, 9, 69, 101
1, 84119, Note_on_c, 9, 38, 0
1, 84119, Note_on_c, 9, 54, 0
1, 84119, Note_on_c, 9, 39, 0
1, 84119, Note_on_c, 9, 51, 0
1, 84119, Note_on_c, 9, 69, 0
1, 84120, Note_on_c, 9, 69, 57
1, 84239, Note_on_c, 9, 69, 0
1, 84240, Note_on_c, 9, 51, 41
1, 84240, Note_on_c, 9, 69, 41
1, 84240, Note_on_c, 9, 36, 120
1, 84359, Note_on_c, 9, 51, 0
1, 84359, Note_on_c, 9, 69, 0
1, 84360, Note_on_c, 9, 69, 57
1, 84479, Note_on_c, 9, 36, 0
1, 84479, Note_on_c, 9, 69, 0
1, 84480, Note_on_c, 9, 51, 81
1, 84480, Note_on_c, 9, 69, 113
1, 84480, Note_on_c, 9, 36, 120
1, 84599, Note_on_c, 9, 51, 0
1, 84599, Note_on_c, 9, 69, 0
1, 84600, Note_on_c, 9, 69, 73
1, 84719, Note_on_c, 9, 69, 0
1, 84720, Note_on_c, 9, 51, 41
1, 84720, Note_on_c, 9, 69, 41
1, 84839, Note_on_c, 9, 51, 0
1, 84839, Note_on_c, 9, 69, 0
1, 84840, Note_on_c, 9, 69, 45
1, 84959, Note_on_c, 9, 36, 0
1, 84959, Note_on_c, 9, 69, 0
1, 84960, Note_on_c, 9, 38, 121
1, 84960, Note_on_c, 9, 54, 113
1, 84960, Note_on_c, 9, 39, 120
1, 84960, Note_on_c, 9, 51, 101
1, 84960, Note_on_c, 9, 69, 101
1, 85079, Note_on_c, 9, 38, 0
1, 85079, Note_on_c, 9, 54, 0
1, 85079, Note_on_c, 9, 39, 0
1, 85079, Note_on_c, 9, 51, 0
1, 85079, Note_on_c, 9, 69, 0
1, 85080, Note_on_c, 9, 69, 65
1, 85199, Note_on_c, 9, 69, 0
1, 85200, Note_on_c, 9, 51, 49
1, 85200, Note_on_c, 9, 69, 33
1, 85200, Note_on_c, 9, 36, 120
1, 85319, Note_on_c, 9, 51, 0
1, 85319, Note_on_c, 9, 69, 0
1, 85320, Note_on_c, 9, 69, 45
1, 85439, Note_on_c, 9, 36, 0
1, 85439, Note_on_c, 9, 69, 0
1, 85440, Note_on_c, 9, 51, 101
1, 85440, Note_on_c, 9, 69, 89
1, 85440, Note_on_c, 9, 36, 120
1, 85559, Note_on_c, 9, 51, 0
1, 85559, Note_on_c, 9, 69, 0
1, 85560, Note_on_c, 9, 69, 57
1, 85679, Note_on_c, 9, 69, 0
1, 85680, Note_on_c, 9, 51, 45
1, 85680, Note_on_c, 9, 69, 45
1, 85799, Note_on_c, 9, 51, 0
1, 85799, Note_on_c, 9, 69, 0
1, 85800, Note_on_c, 9, 69, 45
1, 85919, Note_on_c, 9, 36, 0
1, 85919, Note_on_c, 9, 69, 0
1, 85920, Note_on_c, 9, 38, 121
1, 85920, Note_on_c, 9, 54, 101
1, 85920, Note_on_c, 9, 39, 120
1, 85920, Note_on_c, 9, 51, 101
1, 85920, Note_on_c, 9, 69, 113
1, 86039, Note_on_c, 9, 38, 0
1, 86039, Note_on_c, 9, 54, 0
1, 86039, Note_on_c, 9, 39, 0
1, 86039, Note_on_c, 9, 51, 0
1, 86039, Note_on_c, 9, 69, 0
1, 86040, Note_on_c, 9, 69, 73
1, 86159, Note_on_c, 9, 69, 0
1, 86160, Note_on_c, 9, 51, 45
1, 86160, Note_on_c, 9, 69, 57
1, 86160, Note_on_c, 9, 36, 120
1, 86279, Note_on_c, 9, 51, 0
1, 86279, Note_on_c, 9, 69, 0
1, 86280, Note_on_c, 9, 69, 65
1, 86399, Note_on_c, 9, 36, 0
1, 86399, Note_on_c, 9, 69, 0
1, 86400, Note_on_c, 9, 51, 89
1, 86400, Note_on_c, 9, 69, 113
1, 86400, Note_on_c, 9, 36, 120
1, 86519, Note_on_c, 9, 51, 0
1, 86519, Note_on_c, 9, 69, 0
1, 86520, Note_on_c, 9, 69, 45
1, 86639, Note_on_c, 9, 69, 0
1, 86640, Note_on_c, 9, 51, 41
1, 86640, Note_on_c, 9, 69, 41
1, 86759, Note_on_c, 9, 51, 0
1, 86759, Note_on_c, 9, 69, 0
1, 86760, Note_on_c, 9, 69, 41
1, 86879, Note_on_c, 9, 36, 0
1, 86879, Note_on_c, 9, 69, 0
1, 86880, Note_on_c, 9, 38, 121
1, 86880, Note_on_c, 9, 54, 125
1, 86880, Note_on_c, 9, 39, 120
1, 86880, Note_on_c, 9, 51, 101
1, 86880, Note_on_c, 9, 69, 113
1, 86999, Note_on_c, 9, 38, 0
1, 86999, Note_on_c, 9, 54, 0
1, 86999, Note_on_c, 9, 39, 0
1, 86999, Note_on_c, 9, 51, 0
1, 86999, Note_on_c, 9, 69, 0
1, 87000, Note_on_c, 9, 69, 57
1, 87119, Note_on_c, 9, 69, 0
1, 87120, Note_on_c, 9, 51, 45
1, 87120, Note_on_c, 9, 69, 45
1, 87120, Note_on_c, 9, 36, 120
1, 87239, Note_on_c, 9, 51, 0
1, 87239, Note_on_c, 9, 69, 0
1, 87240, Note_on_c, 9, 69, 49
1, 87359, Note_on_c, 9, 36, 0
1, 87359, Note_on_c, 9, 69, 0
1, 87360, Note_on_c, 9, 51, 89
1, 87360, Note_on_c, 9, 69, 101
1, 87360, Note_on_c, 9, 36, 120
1, 87479, Note_on_c, 9, 51, 0
1, 87479, Note_on_c, 9, 69, 0
1, 87480, Note_on_c, 9, 69, 65
1, 87599, Note_on_c, 9, 69, 0
1, 87600, Note_on_c, 9, 51, 41
1, 87600, Note_on_c, 9, 69, 49
1, 87719, Note_on_c, 9, 51, 0
1, 87719, Note_on_c, 9, 69, 0
1, 87720, Note_on_c, 9, 69, 73
1, 87839, Note_on_c, 9, 36, 0
1, 87839, Note_on_c, 9, 69, 0
1, 87840, Note_on_c, 9, 38, 127
1, 87840, Note_on_c, 9, 54, 113
1, 87840, Note_on_c, 9, 39, 120
1, 87840, Note_on_c, 9, 51, 101
1, 87840, Note_on_c, 9, 69, 113
1, 87959, Note_on_c, 9, 38, 0
1, 87959, Note_on_c, 9, 54, 0
1, 87959, Note_on_c, 9, 39, 0
1, 87959, Note_on_c, 9, 51, 0
1, 87959, Note_on_c, 9, 69, 0
1, 87960, Note_on_c, 9, 69, 65
1, 88079, Note_on_c, 9, 69, 0
1, 88080, Note_on_c, 9, 51, 45
1, 88080, Note_on_c, 9, 69, 57
1, 88080, Note_on_c, 9, 36, 120
1, 88199, Note_on_c, 9, 51, 0
1, 88199, Note_on_c, 9, 69, 0
1, 88200, Note_on_c, 9, 69, 73
1, 88319, Note_on_c, 9, 36, 0
1, 88319, Note_on_c, 9, 69, 0
1, 88320, Note_on_c, 9, 42, 81
1, 88320, Note_on_c, 9, 36, 120
1, 88559, Note_on_c, 9, 42, 0
1, 88560, Note_on_c, 9, 42, 57
1, 88799, Note_on_c, 9, 36, 0
1, 88799, Note_on_c, 9, 42, 0
1, 88800, Note_on_c, 9, 38, 121
1, 88800, Note_on_c, 9, 39, 120
1, 88800, Note_on_c, 9, 42, 89
1, 89039, Note_on_c, 9, 38, 0
1, 89039, Note_on_c, 9, 39, 0
1, 89039, Note_on_c, 9, 42, 0
1, 89040, Note_on_c, 9, 42, 45
1, 89040, Note_on_c, 9, 36, 120
1, 89279, Note_on_c, 9, 42, 0
1, 89279, Note_on_c, 9, 36, 0
1, 89280, Note_on_c, 9, 42, 89
1, 89280, Note_on_c, 9, 36, 120
1, 89519, Note_on_c, 9, 42, 0
1, 89520, Note_on_c, 9, 42, 45
1, 89759, Note_on_c, 9, 36, 0
1, 89759, Note_on_c, 9, 42, 0
1, 89760, Note_on_c, 9, 38, 121
1, 89760, Note_on_c, 9, 39, 120
1, 89760, Note_on_c, 9, 42, 89
1, 89999, Note_on_c, 9, 38, 0
1, 89999, Note_on_c, 9, 39, 0
1, 89999, Note_on_c, 9, 42, 0
1, 90000, Note_on_c, 9, 42, 45
1, 90000, Note_on_c, 9, 36, 120
1, 90239, Note_on_c, 9, 42, 0
1, 90239, Note_on_c, 9, 36, 0
1, 90240, Note_on_c, 9, 42, 101
1, 90240, Note_on_c, 9, 36, 120
1, 90479, Note_on_c, 9, 42, 0
1, 90480, Note_on_c, 9, 42, 45
1, 90719, Note_on_c, 9, 36, 0
1, 90719, Note_on_c, 9, 42, 0
1, 90720, Note_on_c, 9, 38, 120
1, 90720, Note_on_c, 9, 39, 120
1, 90720, Note_on_c, 9, 42, 113
1, 90959, Note_on_c, 9, 38, 0
1, 90959, Note_on_c, 9, 39, 0
1, 90959, Note_on_c, 9, 42, 0
1, 90960, Note_on_c, 9, 42, 41
1, 90960, Note_on_c, 9, 36, 120
1, 91199, Note_on_c, 9, 42, 0
1, 91199, Note_on_c, 9, 36, 0
1, 91200, Note_on_c, 9, 42, 101
1, 91200, Note_on_c, 9, 36, 120
1, 91439, Note_on_c, 9, 42, 0
1, 91440, Note_on_c, 9, 42, 37
1, 91679, Note_on_c, 9, 36, 0
1, 91679, Note_on_c, 9, 42, 0
1, 91680, Note_on_c, 9, 38, 120
1, 91680, Note_on_c, 9, 39, 120
1, 91680, Note_on_c, 9, 42, 101
1, 91919, Note_on_c, 9, 38, 0
1, 91919, Note_on_c, 9, 39, 0
1, 91919, Note_on_c, 9, 42, 0
1, 91920, Note_on_c, 9, 42, 41
1, 91920, Note_on_c, 9, 36, 120
1, 92159, Note_on_c, 9, 42, 0
1, 92159, Note_on_c, 9, 36, 0
1, 92160, Note_on_c, 9, 42, 81
1, 92160, Note_on_c, 9, 36, 120
1, 92399, Note_on_c, 9, 42, 0
1, 92400, Note_on_c, 9, 42, 41
1, 92639, Note_on_c, 9, 36, 0
1, 92639, Note_on_c, 9, 42, 0
1, 92640, Note_on_c, 9, 38, 121
1, 92640, Note_on_c, 9, 39, 120
1, 92640, Note_on_c, 9, 42, 101
1, 92879, Note_on_c, 9, 38, 0
1, 92879, Note_on_c, 9, 39, 0
1, 92879, Note_on_c, 9, 42, 0
1, 92880, Note_on_c, 9, 42, 49
1, 92880, Note_on_c, 9, 36, 120
1, 93119, Note_on_c, 9, 42, 0
1, 93119, Note_on_c, 9, 36, 0
1, 93120, Note_on_c, 9, 42, 101
1, 93120, Note_on_c, 9, 36, 120
1, 93359, Note_on_c, 9, 42, 0
1, 93360, Note_on_c, 9, 42, 45
1, 93599, Note_on_c, 9, 36, 0
1, 93599, Note_on_c, 9, 42, 0
1, 93600, Note_on_c, 9, 38, 121
1, 93600, Note_on_c, 9, 39, 120
1, 93600, Note_on_c, 9, 42, 101
1, 93839, Note_on_c, 9, 38, 0
1, 93839, Note_on_c, 9, 39, 0
1, 93839, Note_on_c, 9, 42, 0
1, 93840, Note_on_c, 9, 42, 45
1, 93840, Note_on_c, 9, 36, 120
1, 94079, Note_on_c, 9, 42, 0
1, 94079, Note_on_c, 9, 36, 0
1, 94080, Note_on_c, 9, 42, 89
1, 94080, Note_on_c, 9, 36, 120
1, 94319, Note_on_c, 9, 42, 0
1, 94320, Note_on_c, 9, 42, 41
1, 94559, Note_on_c, 9, 36, 0
1, 94559, Note_on_c, 9, 42, 0
1, 94560, Note_on_c, 9, 38, 121
1, 94560, Note_on_c, 9, 39, 120
1, 94560, Note_on_c, 9, 42, 101
1, 94799, Note_on_c, 9, 38, 0
1, 94799, Note_on_c, 9, 39, 0
1, 94799, Note_on_c, 9, 42, 0
1, 94800, Note_on_c, 9, 42, 45
1, 94800, Note_on_c, 9, 36, 120
1, 95039, Note_on_c, 9, 42, 0
1, 95039, Note_on_c, 9, 36, 0
1, 95040, Note_on_c, 9, 42, 89
1, 95040, Note_on_c, 9, 36, 120
1, 95279, Note_on_c, 9, 42, 0
1, 95280, Note_on_c, 9, 42, 41
1, 95519, Note_on_c, 9, 36, 0
1, 95519, Note_on_c, 9, 42, 0
1, 95520, Note_on_c, 9, 38, 127
1, 95520, Note_on_c, 9, 39, 120
1, 95520, Note_on_c, 9, 42, 101
1, 95759, Note_on_c, 9, 38, 0
1, 95759, Note_on_c, 9, 39, 0
1, 95759, Note_on_c, 9, 42, 0
1, 95760, Note_on_c, 9, 42, 45
1, 95760, Note_on_c, 9, 36, 120
1, 95999, Note_on_c, 9, 42, 0
1, 95999, Note_on_c, 9, 36, 0
1, 96000, Note_on_c, 9, 42, 81
1, 96000, Note_on_c, 9, 36, 120
1, 96239, Note_on_c, 9, 42, 0
1, 96240, Note_on_c, 9, 42, 57
1, 96479, Note_on_c, 9, 36, 0
1, 96479, Note_on_c, 9, 42, 0
1, 96480, Note_on_c, 9, 38, 121
1, 96480, Note_on_c, 9, 39, 120
1, 96480, Note_on_c, 9, 42, 89
1, 96719, Note_on_c, 9, 38, 0
1, 96719, Note_on_c, 9, 39, 0
1, 96719, Note_on_c, 9, 42, 0
1, 96720, Note_on_c, 9, 42, 45
1, 96720, Note_on_c, 9, 36, 120
1, 96959, Note_on_c, 9, 42, 0
1, 96959, Note_on_c, 9, 36, 0
1, 96960, Note_on_c, 9, 42, 89
1, 96960, Note_on_c, 9, 36, 120
1, 97199, Note_on_c, 9, 42, 0
1, 97200, Note_on_c, 9, 42, 45
1, 97439, Note_on_c, 9, 36, 0
1, 97439, Note_on_c, 9, 42, 0
1, 97440, Note_on_c, 9, 38, 121
1, 97440, Note_on_c, 9, 39, 120
1, 97440, Note_on_c, 9, 42, 89
1, 97679, Note_on_c, 9, 38, 0
1, 97679, Note_on_c, 9, 39, 0
1, 97679, Note_on_c, 9, 42, 0
1, 97680, Note_on_c, 9, 42, 45
1, 97680, Note_on_c, 9, 36, 120
1, 97919, Note_on_c, 9, 42, 0
1, 97919, Note_on_c, 9, 36, 0
1, 97920, Note_on_c, 9, 42, 101
1, 97920, Note_on_c, 9, 36, 120
1, 98159, Note_on_c, 9, 42, 0
1, 98160, Note_on_c, 9, 42, 45
1, 98399, Note_on_c, 9, 36, 0
1, 98399, Note_on_c, 9, 42, 0
1, 98400, Note_on_c, 9, 38, 120
1, 98400, Note_on_c, 9, 39, 120
1, 98400, Note_on_c, 9, 42, 113
1, 98639, Note_on_c, 9, 38, 0
1, 98639, Note_on_c, 9, 39, 0
1, 98639, Note_on_c, 9, 42, 0
1, 98640, Note_on_c, 9, 42, 41
1, 98640, Note_on_c, 9, 36, 120
1, 98879, Note_on_c, 9, 42, 0
1, 98879, Note_on_c, 9, 36, 0
1, 98880, Note_on_c, 9, 42, 101
1, 98880, Note_on_c, 9, 36, 120
1, 99119, Note_on_c, 9, 42, 0
1, 99120, Note_on_c, 9, 42, 37
1, 99359, Note_on_c, 9, 36, 0
1, 99359, Note_on_c, 9, 42, 0
1, 99360, Note_on_c, 9, 38, 120
1, 99360, Note_on_c, 9, 39, 120
1, 99360, Note_on_c, 9, 42, 101
1, 99599, Note_on_c, 9, 38, 0
1, 99599, Note_on_c, 9, 39, 0
1, 99599, Note_on_c, 9, 42, 0
1, 99600, Note_on_c, 9, 42, 41
1, 99600, Note_on_c, 9, 36, 120
1, 99839, Note_on_c, 9, 42, 0
1, 99839, Note_on_c, 9, 36, 0
1, 99840, Note_on_c, 9, 42, 81
1, 99840, Note_on_c, 9, 36, 120
1, 100079, Note_on_c, 9, 42, 0
1, 100080, Note_on_c, 9, 42, 41
1, 100319, Note_on_c, 9, 36, 0
1, 100319, Note_on_c, 9, 42, 0
1, 100320, Note_on_c, 9, 38, 121
1, 100320, Note_on_c, 9, 39, 120
1, 100320, Note_on_c, 9, 42, 101
1, 100559, Note_on_c, 9, 38, 0
1, 100559, Note_on_c, 9, 39, 0
1, 100559, Note_on_c, 9, 42, 0
1, 100560, Note_on_c, 9, 42, 49
1, 100560, Note_on_c, 9, 36, 120
1, 100799, Note_on_c, 9, 42, 0
1, 100799, Note_on_c, 9, 36, 0
1, 100800, Note_on_c, 9, 42, 101
1, 100800, Note_on_c, 9, 36, 120
1, 101039, Note_on_c, 9, 42, 0
1, 101040, Note_on_c, 9, 42, 45
1, 101279, Note_on_c, 9, 36, 0
1, 101279, Note_on_c, 9, 42, 0
1, 101280, Note_on_c, 9, 38, 121
1, 101280, Note_on_c, 9, 39, 120
1, 101280, Note_on_c, 9, 42, 101
1, 101519, Note_on_c, 9, 38, 0
1, 101519, Note_on_c, 9, 39, 0
1, 101519, Note_on_c, 9, 42, 0
1, 101520, Note_on_c, 9, 42, 45
1, 101520, Note_on_c, 9, 36, 120
1, 101759, Note_on_c, 9, 42, 0
1, 101759, Note_on_c, 9, 36, 0
1, 101760, Note_on_c, 9, 42, 89
1, 101760, Note_on_c, 9, 36, 120
1, 101999, Note_on_c, 9, 42, 0
1, 102000, Note_on_c, 9, 42, 41
1, 102239, Note_on_c, 9, 36, 0
1, 102239, Note_on_c, 9, 42, 0
1, 102240, Note_on_c, 9, 38, 121
1, 102240, Note_on_c, 9, 39, 120
1, 102240, Note_on_c, 9, 42, 101
1, 102479, Note_on_c, 9, 38, 0
1, 102479, Note_on_c, 9, 39, 0
1, 102479, Note_on_c, 9, 42, 0
1, 102480, Note_on_c, 9, 42, 45
1, 102480, Note_on_c, 9, 36, 120
1, 102719, Note_on_c, 9, 42, 0
1, 102719, Note_on_c, 9, 36, 0
1, 102720, Note_on_c, 9, 38, 121
1, 102720, Note_on_c, 9, 42, 89
1, 102720, Note_on_c, 9, 36, 120
1, 102959, Note_on_c, 9, 38, 0
1, 102959, Note_on_c, 9, 42, 0
1, 102960, Note_on_c, 9, 42, 41
1, 103079, Note_on_c, 9, 42, 0
1, 103080, Note_on_c, 9, 38, 121
1, 103199, Note_on_c, 9, 36, 0
1, 103199, Note_on_c, 9, 38, 0
1, 103200, Note_on_c, 9, 38, 121
1, 103200, Note_on_c, 9, 39, 120
1, 103200, Note_on_c, 9, 42, 101
1, 103439, Note_on_c, 9, 38, 0
1, 103439, Note_on_c, 9, 39, 0
1, 103439, Note_on_c, 9, 42, 0
1, 103440, Note_on_c, 9, 38, 127
1, 103440, Note_on_c, 9, 42, 45
1, 103440, Note_on_c, 9, 36, 120
1, 103679, Note_on_c, 9, 38, 0
1, 103679, Note_on_c, 9, 42, 0
1, 103679, Note_on_c, 9, 36, 0
1, 103680, Note_on_c, 9, 51, 81
1, 103680, Note_on_c, 9, 69, 101
1, 103680, Note_on_c, 9, 36, 120
1, 103799, Note_on_c, 9, 51, 0
1, 103799, Note_on_c, 9, 69, 0
1, 103800, Note_on_c, 9, 69, 49
1, 103919, Note_on_c, 9, 69, 0
1, 103920, Note_on_c, 9, 51, 57
1, 103920, Note_on_c, 9, 69, 45
1, 104039, Note_on_c, 9, 51, 0
1, 104039, Note_on_c, 9, 69, 0
1, 104040, Note_on_c, 9, 69, 41
1, 104159, Note_on_c, 9, 36, 0
1, 104159, Note_on_c, 9, 69, 0
1, 104160, Note_on_c, 9, 38, 121
1, 104160, Note_on_c, 9, 54, 125
1, 104160, Note_on_c, 9, 39, 120
1, 104160, Note_on_c, 9, 51, 89
1, 104160, Note_on_c, 9, 69, 113
1, 104279, Note_on_c, 9, 38, 0
1, 104279, Note_on_c, 9, 54, 0
1, 104279, Note_on_c, 9, 39, 0
1, 104279, Note_on_c, 9, 51, 0
1, 104279, Note_on_c, 9, 69, 0
1, 104280, Note_on_c, 9, 69, 65
1, 104399, Note_on_c, 9, 69, 0
1, 104400, Note_on_c, 9, 51, 45
1, 104400, Note_on_c, 9, 69, 41
1, 104400, Note_on_c, 9, 36, 120
1, 104519, Note_on_c, 9, 51, 0
1, 104519, Note_on_c, 9, 69, 0
1, 104520, Note_on_c, 9, 69, 41
1, 104639, Note_on_c, 9, 36, 0
1, 104639, Note_on_c, 9, 69, 0
1, 104640, Note_on_c, 9, 51, 89
1, 104640, Note_on_c, 9, 69, 113
1, 104640, Note_on_c, 9, 36, 120
1, 104759, Note_on_c, 9, 51, 0
1, 104759, Note_on_c, 9, 69, 0
1, 104760, Note_on_c, 9, 69, 49
1, 104879, Note_on_c, 9, 69, 0
1, 104880, Note_on_c, 9, 51, 45
1, 104880, Note_on_c, 9, 69, 37
1, 104999, Note_on_c, 9, 51, 0
1, 104999, Note_on_c, 9, 69, 0
1, 105000, Note_on_c, 9, 69, 41
1, 105119, Note_on_c, 9, 36, 0
1, 105119, Note_on_c, 9, 69, 0
1, 105120, Note_on_c, 9, 38, 121
1, 105120, Note_on_c, 9, 54, 125
1, 105120, Note_on_c, 9, 39, 120
1, 105120, Note_on_c, 9, 51, 89
1, 105120, Note_on_c, 9, 69, 113
1, 105239, Note_on_c, 9, 38, 0
1, 105239, Note_on_c, 9, 54, 0
1, 105239, Note_on_c, 9, 39, 0
1, 105239, Note_on_c, 9, 51, 0
1, 105239, Note_on_c, 9, 69, 0
1, 105240, Note_on_c, 9, 69, 57
1, 105359, Note_on_c, 9, 69, 0
1, 105360, Note_on_c, 9, 51, 45
1, 105360, Note_on_c, 9, 69, 37
1, 105360, Note_on_c, 9, 36, 120
1, 105479, Note_on_c, 9, 51, 0
1, 105479, Note_on_c, 9, 69, 0
1, 105480, Note_on_c, 9, 69, 45
1, 105599, Note_on_c, 9, 36, 0
1, 105599, Note_on_c, 9, 69, 0
1, 105600, Note_on_c, 9, 51, 101
1, 105600, Note_on_c, 9, 69, 101
1, 105600, Note_on_c, 9, 36, 120
1, 105719, Note_on_c, 9, 51, 0
1, 105719, Note_on_c, 9, 69, 0
1, 105720, Note_on_c, 9, 69, 45
1, 105839, Note_on_c, 9, 69, 0
1, 105840, Note_on_c, 9, 51, 45
1, 105840, Note_on_c, 9, 69, 41
1, 105959, Note_on_c, 9, 51, 0
1, 105959, Note_on_c, 9, 69, 0
1, 105960, Note_on_c, 9, 69, 41
1, 106079, Note_on_c, 9, 36, 0
1, 106079, Note_on_c, 9, 69, 0
1, 106080, Note_on_c, 9, 38, 120
1, 106080, Note_on_c, 9, 54, 113
1, 106080, Note_on_c, 9, 39, 120
1, 106080, Note_on_c, 9, 51, 113
1, 106080, Note_on_c, 9, 69, 113
1, 106199, Note_on_c, 9, 38, 0
1, 106199, Note_on_c, 9, 54, 0
1, 106199, Note_on_c, 9, 39, 0
1, 106199, Note_on_c, 9, 51, 0
1, 106199, Note_on_c, 9, 69, 0
1, 106200, Note_on_c, 9, 69, 45
1, 106319, Note_on_c, 9, 69, 0
1, 106320, Note_on_c, 9, 51, 41
1, 106320, Note_on_c, 9, 69, 45
1, 106320, Note_on_c, 9, 36, 120
1, 106439, Note_on_c, 9, 51, 0
1, 106439, Note_on_c, 9, 69, 0
1, 106440, Note_on_c, 9, 69, 41
1, 106559, Note_on_c, 9, 36, 0
1, 106559, Note_on_c, 9, 69, 0
1, 106560, Note_on_c, 9, 51, 101
1, 106560, Note_on_c, 9, 69, 113
1, 106560, Note_on_c, 9, 36, 120
1, 106679, Note_on_c, 9, 51, 0
1, 106679, Note_on_c, 9, 69, 0
1, 106680, Note_on_c, 9, 69, 57
1, 106799, Note_on_c, 9, 69, 0
1, 106800, Note_on_c, 9, 51, 37
1, 106800, Note_on_c, 9, 69, 45
1, 106919, Note_on_c, 9, 51, 0
1, 106919, Note_on_c, 9, 69, 0
1, 106920, Note_on_c, 9, 69, 45
1, 107039, Note_on_c, 9, 36, 0
1, 107039, Note_on_c, 9, 69, 0
1, 107040, Note_on_c, 9, 38, 120
1, 107040, Note_on_c, 9, 54, 113
1, 107040, Note_on_c, 9, 39, 120
1, 107040, Note_on_c, 9, 51, 101
1, 107040, Note_on_c, 9, 69, 101
1, 107159, Note_on_c, 9, 38, 0
1, 107159, Note_on_c, 9, 54, 0
1, 107159, Note_on_c, 9, 39, 0
1, 107159, Note_on_c, 9, 51, 0
1, 107159, Note_on_c, 9, 69, 0
1, 107160, Note_on_c, 9, 69, 57
1, 107279, Note_on_c, 9, 69, 0
1, 107280, Note_on_c, 9, 51, 41
1, 107280, Note_on_c, 9, 69, 41
1, 107280, Note_on_c, 9, 36, 120
1, 107399, Note_on_c, 9, 51, 0
1, 107399, Note_on_c, 9, 69, 0
1, 107400, Note_on_c, 9, 69, 57
1, 107519, Note_on_c, 9, 36, 0
1, 107519, Note_on_c, 9, 69, 0
1, 107520, Note_on_c, 9, 51, 81
1, 107520, Note_on_c, 9, 69, 101
1, 107520, Note_on_c, 9, 36, 120
1, 107639, Note_on_c, 9, 51, 0
1, 107639, Note_on_c, 9, 69, 0
1, 107640, Note_on_c, 9, 69, 49
1, 107759, Note_on_c, 9, 69, 0
1, 107760, Note_on_c, 9, 51, 41
1, 107760, Note_on_c, 9, 69, 45
1, 107879, Note_on_c, 9, 51, 0
1, 107879, Note_on_c, 9, 69, 0
1, 107880, Note_on_c, 9, 69, 41
1, 107999, Note_on_c, 9, 36, 0
1, 107999, Note_on_c, 9, 69, 0
1, 108000, Note_on_c, 9, 38, 121
1, 108000, Note_on_c, 9, 54, 125
1, 108000, Note_on_c, 9, 39, 120
1, 108000, Note_on_c, 9, 51, 101
1, 108000, Note_on_c, 9, 69, 113
1, 108119, Note_on_c, 9, 38, 0
1, 108119, Note_on_c, 9, 54, 0
1, 108119, Note_on_c, 9, 39, 0
1, 108119, Note_on_c, 9, 51, 0
1, 108119, Note_on_c, 9, 69, 0
1, 108120, Note_on_c, 9, 69, 65
1, 108239, Note_on_c, 9, 69, 0
1, 108240, Note_on_c, 9, 51, 49
1, 108240, Note_on_c, 9, 69, 41
1, 108240, Note_on_c, 9, 36, 120
1, 108359, Note_on_c, 9, 51, 0
1, 108359, Note_on_c, 9, 69, 0
1, 108360, Note_on_c, 9, 69, 41
1, 108479, Note_on_c, 9, 36, 0
1, 108479, Note_on_c, 9, 69, 0
1, 108480, Note_on_c, 9, 51, 101
1, 108480, Note_on_c, 9, 69, 113
1, 108480, Note_on_c, 9, 36, 120
1, 108599, Note_on_c, 9, 51, 0
1, 108599, Note_on_c, 9, 69, 0
1, 108600, Note_on_c, 9, 69, 49
1, 108719, Note_on_c, 9, 69, 0
1, 108720, Note_on_c, 9, 51, 45
1, 108720, Note_on_c, 9, 69, 37
1, 108839, Note_on_c, 9, 51, 0
1, 108839, Note_on_c, 9, 69, 0
1, 108840, Note_on_c, 9, 69, 41
1, 108959, Note_on_c, 9, 36, 0
1, 108959, Note_on_c, 9, 69, 0
1, 108960, Note_on_c, 9, 38, 121
1, 108960, Note_on_c, 9, 54, 125
1, 108960, Note_on_c, 9, 39, 120
1, 108960, Note_on_c, 9, 51, 101
1, 108960, Note_on_c, 9, 69, 113
1, 109079, Note_on_c, 9, 38, 0
1, 109079, Note_on_c, 9, 54, 0
1, 109079, Note_on_c, 9, 39, 0
1, 109079, Note_on_c, 9, 51, 0
1, 109079, Note_on_c, 9, 69, 0
1, 109080, Note_on_c, 9, 69, 57
1, 109199, Note_on_c, 9, 69, 0
1, 109200, Note_on_c, 9, 51, 45
1, 109200, Note_on_c, 9, 69, 37
1, 109200, Note_on_c, 9, 36, 120
1, 109319, Note_on_c, 9, 51, 0
1, 109319, Note_on_c, 9, 69, 0
1, 109320, Note_on_c, 9, 69, 45
1, 109439, Note_on_c, 9, 36, 0
1, 109439, Note_on_c, 9, 69, 0
1, 109440, Note_on_c, 9, 51, 89
1, 109440, Note_on_c, 9, 69, 101
1, 109440, Note_on_c, 9, 36, 120
1, 109559, Note_on_c, 9, 51, 0
1, 109559, Note_on_c, 9, 69, 0
1, 109560, Note_on_c, 9, 69, 45
1, 109679, Note_on_c, 9, 69, 0
1, 109680, Note_on_c, 9, 51, 41
1, 109680, Note_on_c, 9, 69, 41
1, 109799, Note_on_c, 9, 51, 0
1, 109799, Note_on_c, 9, 69, 0
1, 109800, Note_on_c, 9, 69, 41
1, 109919, Note_on_c, 9, 36, 0
1, 109919, Note_on_c, 9, 69, 0
1, 109920, Note_on_c, 9, 38, 121
1, 109920, Note_on_c, 9, 54, 113
1, 109920, Note_on_c, 9, 39, 120
1, 109920, Note_on_c, 9, 51, 101
1, 109920, Note_on_c, 9, 69, 113
1, 110039, Note_on_c, 9, 38, 0
1, 110039, Note_on_c, 9, 54, 0
1, 110039, Note_on_c, 9, 39, 0
1, 110039, Note_on_c, 9, 51, 0
1, 110039, Note_on_c, 9, 69, 0
1, 110040, Note_on_c, 9, 69, 45
1, 110159, Note_on_c, 9, 69, 0
1, 110160, Note_on_c, 9, 51, 45
1, 110160, Note_on_c, 9, 69, 45
1, 110160, Note_on_c, 9, 36, 120
1, 110279, Note_on_c, 9, 51, 0
1, 110279, Note_on_c, 9, 69, 0
1, 110280, Note_on_c, 9, 69, 41
1, 110399, Note_on_c, 9, 36, 0
1, 110399, Note_on_c, 9, 69, 0
1, 110400, Note_on_c, 9, 51, 89
1, 110400, Note_on_c, 9, 69, 113
1, 110400, Note_on_c, 9, 36, 120
1, 110519, Note_on_c, 9, 51, 0
1, 110519, Note_on_c, 9, 69, 0
1, 110520, Note_on_c, 9, 69, 57
1, 110639, Note_on_c, 9, 69, 0
1, 110640, Note_on_c, 9, 51, 41
1, 110640, Note_on_c, 9, 69, 45
1, 110759, Note_on_c, 9, 51, 0
1, 110759, Note_on_c, 9, 69, 0
1, 110760, Note_on_c, 9, 69, 45
1, 110879, Note_on_c, 9, 36, 0
1, 110879, Note_on_c, 9, 69, 0
1, 110880, Note_on_c, 9, 38, 127
1, 110880, Note_on_c, 9, 54, 113
1, 110880, Note_on_c, 9, 39, 120
1, 110880, Note_on_c, 9, 51, 101
1, 110880, Note_on_c, 9, 69, 101
1, 110999, Note_on_c, 9, 38, 0
1, 110999, Note_on_c, 9, 54, 0
1, 110999, Note_on_c, 9, 39, 0
1, 110999, Note_on_c, 9, 51, 0
1, 110999, Note_on_c, 9, 69, 0
1, 111000, Note_on_c, 9, 69, 57
1, 111119, Note_on_c, 9, 69, 0
1, 111120, Note_on_c, 9, 51, 45
1, 111120, Note_on_c, 9, 69, 41
1, 111120, Note_on_c, 9, 36, 120
1, 111239, Note_on_c, 9, 51, 0
1, 111239, Note_on_c, 9, 69, 0
1, 111240, Note_on_c, 9, 69, 57
1, 111359, Note_on_c, 9, 36, 0
1, 111359, Note_on_c, 9, 69, 0
1, 111360, Note_on_c, 9, 51, 81
1, 111360, Note_on_c, 9, 69, 101
1, 111360, Note_on_c, 9, 36, 120
1, 111479, Note_on_c, 9, 51, 0
1, 111479, Note_on_c, 9, 69, 0
1, 111480, Note_on_c, 9, 69, 49
1, 111599, Note_on_c, 9, 69, 0
1, 111600, Note_on_c, 9, 51, 57
1, 111600, Note_on_c, 9, 69, 45
1, 111719, Note_on_c, 9, 51, 0
1, 111719, Note_on_c, 9, 69, 0
1, 111720, Note_on_c, 9, 69, 41
1, 111839, Note_on_c, 9, 36, 0
1, 111839, Note_on_c, 9, 69, 0
1, 111840, Note_on_c, 9, 38, 121
1, 111840, Note_on_c, 9, 54, 125
1, 111840, Note_on_c, 9, 39, 120
1, 111840, Note_on_c, 9, 51, 89
1, 111840, Note_on_c, 9, 69, 113
1, 111959, Note_on_c, 9, 38, 0
1, 111959, Note_on_c, 9, 54, 0
1, 111959, Note_on_c, 9, 39, 0
1, 111959, Note_on_c, 9, 51, 0
1, 111959, Note_on_c, 9, 69, 0
1, 111960, Note_on_c, 9, 69, 65
1, 112079, Note_on_c, 9, 69, 0
1, 112080, Note_on_c, 9, 51, 45
1, 112080, Note_on_c, 9, 69, 41
1, 112080, Note_on_c, 9, 36, 120
1, 112199, Note_on_c, 9, 51, 0
1, 112199, Note_on_c, 9, 69, 0
1, 112200, Note_on_c, 9, 69, 41
1, 112319, Note_on_c, 9, 36, 0
1, 112319, Note_on_c, 9, 69, 0
1, 112320, Note_on_c, 9, 51, 89
1, 112320, Note_on_c, 9, 69, 113
1, 112320, Note_on_c, 9, 36, 120
1, 112439, Note_on_c, 9, 51, 0
1, 112439, Note_on_c, 9, 69, 0
1, 112440, Note_on_c, 9, 69, 49
1, 112559, Note_on_c, 9, 69, 0
1, 112560, Note_on_c, 9, 51, 45
1, 112560, Note_on_c, 9, 69, 37
1, 112679, Note_on_c, 9, 51, 0
1, 112679, Note_on_c, 9, 69, 0
1, 112680, Note_on_c, 9, 69, 41
1, 112799, Note_on_c, 9, 36, 0
1, 112799, Note_on_c, 9, 69, 0
1, 112800, Note_on_c, 9, 38, 121
1, 112800, Note_on_c, 9, 54, 125
1, 112800, Note_on_c, 9, 39, 120
1, 112800, Note_on_c, 9, 51, 89
1, 112800, Note_on_c, 9, 69, 113
1, 112919, Note_on_c, 9, 38, 0
1, 112919, Note_on_c, 9, 54, 0
1, 112919, Note_on_c, 9, 39, 0
1, 112919, Note_on_c, 9, 51, 0
1, 112919, Note_on_c, 9, 69, 0
1, 112920, Note_on_c, 9, 69, 57
1, 113039, Note_on_c, 9, 69, 0
1, 113040, Note_on_c, 9, 51, 45
1, 113040, Note_on_c, 9, 69, 37
1, 113040, Note_on_c, 9, 36, 120
1, 113159, Note_on_c, 9, 51, 0
1, 113159, Note_on_c, 9, 69, 0
1, 113160, Note_on_c, 9, 69, 45
1, 113279, Note_on_c, 9, 36, 0
1, 113279, Note_on_c, 9, 69, 0
1, 113280, Note_on_c, 9, 51, 101
1, 113280, Note_on_c, 9, 69, 101
1, 113280, Note_on_c, 9, 36, 120
1, 113399, Note_on_c, 9, 51, 0
1, 113399, Note_on_c, 9, 69, 0
1, 113400, Note_on_c, 9, 69, 45
1, 113519, Note_on_c, 9, 69, 0
1, 113520, Note_on_c, 9, 51, 45
1, 113520, Note_on_c, 9, 69, 41
1, 113639, Note_on_c, 9, 51, 0
1, 113639, Note_on_c, 9, 69, 0
1, 113640, Note_on_c, 9, 69, 41
1, 113759, Note_on_c, 9, 36, 0
1, 113759, Note_on_c, 9, 69, 0
1, 113760, Note_on_c, 9, 38, 120
1, 113760, Note_on_c, 9, 54, 113
1, 113760, Note_on_c, 9, 39, 120
1, 113760, Note_on_c, 9, 51, 113
1, 113760, Note_on_c, 9, 69, 113
1, 113879, Note_on_c, 9, 38, 0
1, 113879, Note_on_c, 9, 54, 0
1, 113879, Note_on_c, 9, 39, 0
1, 113879, Note_on_c, 9, 51, 0
1, 113879, Note_on_c, 9, 69, 0
1, 113880, Note_on_c, 9, 69, 45
1, 113999, Note_on_c, 9, 69, 0
1, 114000, Note_on_c, 9, 51, 41
1, 114000, Note_on_c, 9, 69, 45
1, 114000, Note_on_c, 9, 36, 120
1, 114119, Note_on_c, 9, 51, 0
1, 114119, Note_on_c, 9, 69, 0
1, 114120, Note_on_c, 9, 69, 41
1, 114239, Note_on_c, 9, 36, 0
1, 114239, Note_on_c, 9, 69, 0
1, 114240, Note_on_c, 9, 51, 101
1, 114240, Note_on_c, 9, 69, 113
1, 114240, Note_on_c, 9, 36, 120
1, 114359, Note_on_c, 9, 51, 0
1, 114359, Note_on_c, 9, 69, 0
1, 114360, Note_on_c, 9, 69, 57
1, 114479, Note_on_c, 9, 69, 0
1, 114480, Note_on_c, 9, 51, 37
1, 114480, Note_on_c, 9, 69, 45
1, 114599, Note_on_c, 9, 51, 0
1, 114599, Note_on_c, 9, 69, 0
1, 114600, Note_on_c, 9, 69, 45
1, 114719, Note_on_c, 9, 36, 0
1, 114719, Note_on_c, 9, 69, 0
1, 114720, Note_on_c, 9, 38, 120
1, 114720, Note_on_c, 9, 54, 113
1, 114720, Note_on_c, 9, 39, 120
1, 114720, Note_on_c, 9, 51, 101
1, 114720, Note_on_c, 9, 69, 101
1, 114839, Note_on_c, 9, 38, 0
1, 114839, Note_on_c, 9, 54, 0
1, 114839, Note_on_c, 9, 39, 0
1, 114839, Note_on_c, 9, 51, 0
1, 114839, Note_on_c, 9, 69, 0
1, 114840, Note_on_c, 9, 69, 57
1, 114959, Note_on_c, 9, 69, 0
1, 114960, Note_on_c, 9, 51, 41
1, 114960, Note_on_c, 9, 69, 41
1, 114960, Note_on_c, 9, 36, 120
1, 115079, Note_on_c, 9, 51, 0
1, 115079, Note_on_c, 9, 69, 0
1, 115080, Note_on_c, 9, 69, 57
1, 115199, Note_on_c, 9, 36, 0
1, 115199, Note_on_c, 9, 69, 0
1, 115200, Note_on_c, 9, 51, 81
1, 115200, Note_on_c, 9, 69, 101
1, 115200, Note_on_c, 9, 36, 120
1, 115319, Note_on_c, 9, 51, 0
1, 115319, Note_on_c, 9, 69, 0
1, 115320, Note_on_c, 9, 69, 49
1, 115439, Note_on_c, 9, 69, 0
1, 115440, Note_on_c, 9, 51, 41
1, 115440, Note_on_c, 9, 69, 45
1, 115559, Note_on_c, 9, 51, 0
1, 115559, Note_on_c, 9, 69, 0
1, 115560, Note_on_c, 9, 69, 41
1, 115679, Note_on_c, 9, 36, 0
1, 115679, Note_on_c, 9, 69, 0
1, 115680, Note_on_c, 9, 38, 121
1, 115680, Note_on_c, 9, 54, 125
1, 115680, Note_on_c, 9, 39, 120
1, 115680, Note_on_c, 9, 51, 101
1, 115680, Note_on_c, 9, 69, 113
1, 115799, Note_on_c, 9, 38, 0
1, 115799, Note_on_c, 9, 54, 0
1, 115799, Note_on_c, 9, 39, 0
1, 115799, Note_on_c, 9, 51, 0
1, 115799, Note_on_c, 9, 69, 0
1, 115800, Note_on_c, 9, 69, 65
1, 115919, Note_on_c, 9, 69, 0
1, 115920, Note_on_c, 9, 51, 49
1, 115920, Note_on_c, 9, 69, 41
1, 115920, Note_on_c, 9, 36, 120
1, 116039, Note_on_c, 9, 51, 0
1, 116039, Note_on_c, 9, 69, 0
1, 116040, Note_on_c, 9, 69, 41
1, 116159, Note_on_c, 9, 36, 0
1, 116159, Note_on_c, 9, 69, 0
1, 116160, Note_on_c, 9, 51, 101
1, 116160, Note_on_c, 9, 69, 113
1, 116160, Note_on_c, 9, 36, 120
1, 116279, Note_on_c, 9, 51, 0
1, 116279, Note_on_c, 9, 69, 0
1, 116280, Note_on_c, 9, 69, 49
1, 116399, Note_on_c, 9, 69, 0
1, 116400, Note_on_c, 9, 51, 45
1, 116400, Note_on_c, 9, 69, 37
1, 116519, Note_on_c, 9, 51, 0
1, 116519, Note_on_c, 9, 69, 0
1, 116520, Note_on_c, 9, 69, 41
1, 116639, Note_on_c, 9, 36, 0
1, 116639, Note_on_c, 9, 69, 0
1, 116640, Note_on_c, 9, 38, 121
1, 116640, Note_on_c, 9, 54, 125
1, 116640, Note_on_c, 9, 39, 120
1, 116640, Note_on_c, 9, 51, 101
1, 116640, Note_on_c, 9, 69, 113
1, 116759, Note_on_c, 9, 38, 0
1, 116759, Note_on_c, 9, 54, 0
1, 116759, Note_on_c, 9, 39, 0
1, 116759, Note_on_c, 9, 51, 0
1, 116759, Note_on_c, 9, 69, 0
1, 116760, Note_on_c, 9, 69, 57
1, 116879, Note_on_c, 9, 69, 0
1, 116880, Note_on_c, 9, 51, 45
1, 116880, Note_on_c, 9, 69, 37
1, 116880, Note_on_c, 9, 36, 120
1, 116999, Note_on_c, 9, 51, 0
1, 116999, Note_on_c, 9, 69, 0
1, 117000, Note_on_c, 9, 69, 45
1, 117119, Note_on_c, 9, 36, 0
1, 117119, Note_on_c, 9, 69, 0
1, 117120, Note_on_c, 9, 51, 89
1, 117120, Note_on_c, 9, 69, 101
1, 117120, Note_on_c, 9, 36, 120
1, 117239, Note_on_c, 9, 51, 0
1, 117239, Note_on_c, 9, 69, 0
1, 117240, Note_on_c, 9, 69, 45
1, 117359, Note_on_c, 9, 69, 0
1, 117360, Note_on_c, 9, 51, 41
1, 117360, Note_on_c, 9, 69, 41
1, 117479, Note_on_c, 9, 51, 0
1, 117479, Note_on_c, 9, 69, 0
1, 117480, Note_on_c, 9, 69, 41
1, 117599, Note_on_c, 9, 36, 0
1, 117599, Note_on_c, 9, 69, 0
1, 117600, Note_on_c, 9, 38, 121
1, 117600, Note_on_c, 9, 54, 113
1, 117600, Note_on_c, 9, 39, 120
1, 117600, Note_on_c, 9, 51, 101
1, 117600, Note_on_c, 9, 69, 113
1, 117719, Note_on_c, 9, 38, 0
1, 117719, Note_on_c, 9, 54, 0
1, 117719, Note_on_c, 9, 39, 0
1, 117719, Note_on_c, 9, 51, 0
1, 117719, Note_on_c, 9, 69, 0
1, 117720, Note_on_c, 9, 69, 45
1, 117839, Note_on_c, 9, 69, 0
1, 117840, Note_on_c, 9, 51, 45
1, 117840, Note_on_c, 9, 69, 45
1, 117840, Note_on_c, 9, 36, 120
1, 117959, Note_on_c, 9, 51, 0
1, 117959, Note_on_c, 9, 69, 0
1, 117960, Note_on_c, 9, 69, 41
1, 118079, Note_on_c, 9, 36, 0
1, 118079, Note_on_c, 9, 69, 0
1, 118080, Note_on_c, 9, 51, 89
1, 118080, Note_on_c, 9, 69, 113
1, 118080, Note_on_c, 9, 36, 120
1, 118199, Note_on_c, 9, 51, 0
1, 118199, Note_on_c, 9, 69, 0
1, 118200, Note_on_c, 9, 69, 57
1, 118319, Note_on_c, 9, 69, 0
1, 118320, Note_on_c, 9, 51, 41
1, 118320, Note_on_c, 9, 69, 45
1, 118439, Note_on_c, 9, 51, 0
1, 118439, Note_on_c, 9, 69, 0
1, 118440, Note_on_c, 9, 69, 45
1, 118559, Note_on_c, 9, 36, 0
1, 118559, Note_on_c, 9, 69, 0
1, 118560, Note_on_c, 9, 38, 127
1, 118560, Note_on_c, 9, 54, 113
1, 118560, Note_on_c, 9, 39, 120
1, 118560, Note_on_c, 9, 51, 101
1, 118560, Note_on_c, 9, 69, 101
1, 118679, Note_on_c, 9, 38, 0
1, 118679, Note_on_c, 9, 54, 0
1, 118679, Note_on_c, 9, 39, 0
1, 118679, Note_on_c, 9, 51, 0
1, 118679, Note_on_c, 9, 69, 0
1, 118680, Note_on_c, 9, 69, 57
1, 118799, Note_on_c, 9, 69, 0
1, 118800, Note_on_c, 9, 51, 45
1, 118800, Note_on_c, 9, 69, 41
1, 118800, Note_on_c, 9, 36, 120
1, 118919, Note_on_c, 9, 51, 0
1, 118919, Note_on_c, 9, 69, 0
1, 118920, Note_on_c, 9, 69, 57
1, 119039, Note_on_c, 9, 36, 0
1, 119039, Note_on_c, 9, 69, 0
1, 119040, Note_on_c, 9, 51, 81
1, 119040, Note_on_c, 9, 69, 101
1, 119040, Note_on_c, 9, 36, 120
1, 119159, Note_on_c, 9, 51, 0
1, 119159, Note_on_c, 9, 69, 0
1, 119160, Note_on_c, 9, 69, 49
1, 119279, Note_on_c, 9, 69, 0
1, 119280, Note_on_c, 9, 51, 57
1, 119280, Note_on_c, 9, 69, 45
1, 119399, Note_on_c, 9, 51, 0
1, 119399, Note_on_c, 9, 69, 0
1, 119400, Note_on_c, 9, 69, 41
1, 119519, Note_on_c, 9, 36, 0
1, 119519, Note_on_c, 9, 69, 0
1, 119520, Note_on_c, 9, 38, 121
1, 119520, Note_on_c, 9, 54, 125
1, 119520, Note_on_c, 9, 39, 120
1, 119520, Note_on_c, 9, 51, 89
1, 119520, Note_on_c, 9, 69, 113
1, 119639, Note_on_c, 9, 38, 0
1, 119639, Note_on_c, 9, 54, 0
1, 119639, Note_on_c, 9, 39, 0
1, 119639, Note_on_c, 9, 51, 0
1, 119639, Note_on_c, 9, 69, 0
1, 119640, Note_on_c, 9, 69, 65
1, 119759, Note_on_c, 9, 69, 0
1, 119760, Note_on_c, 9, 51, 45
1, 119760, Note_on_c, 9, 69, 41
1, 119760, Note_on_c, 9, 36, 120
1, 119879, Note_on_c, 9, 51, 0
1, 119879, Note_on_c, 9, 69, 0
1, 119880, Note_on_c, 9, 69, 41
1, 119999, Note_on_c, 9, 36, 0
1, 119999, Note_on_c, 9, 69, 0
1, 120000, Note_on_c, 9, 51, 89
1, 120000, Note_on_c, 9, 69, 113
1, 120000, Note_on_c, 9, 36, 120
1, 120119, Note_on_c, 9, 51, 0
1, 120119, Note_on_c, 9, 69, 0
1, 120120, Note_on_c, 9, 69, 49
1, 120239, Note_on_c, 9, 69, 0
1, 120240, Note_on_c, 9, 51, 45
1, 120240, Note_on_c, 9, 69, 37
1, 120359, Note_on_c, 9, 51, 0
1, 120359, Note_on_c, 9, 69, 0
1, 120360, Note_on_c, 9, 69, 41
1, 120479, Note_on_c, 9, 36, 0
1, 120479, Note_on_c, 9, 69, 0
1, 120480, Note_on_c, 9, 38, 121
1, 120480, Note_on_c, 9, 54, 125
1, 120480, Note_on_c, 9, 39, 120
1, 120480, Note_on_c, 9, 51, 89
1, 120480, Note_on_c, 9, 69, 113
1, 120599, Note_on_c, 9, 38, 0
1, 120599, Note_on_c, 9, 54, 0
1, 120599, Note_on_c, 9, 39, 0
1, 120599, Note_on_c, 9, 51, 0
1, 120599, Note_on_c, 9, 69, 0
1, 120600, Note_on_c, 9, 69, 57
1, 120719, Note_on_c, 9, 69, 0
1, 120720, Note_on_c, 9, 51, 45
1, 120720, Note_on_c, 9, 69, 37
1, 120720, Note_on_c, 9, 36, 120
1, 120839, Note_on_c, 9, 51, 0
1, 120839, Note_on_c, 9, 69, 0
1, 120840, Note_on_c, 9, 69, 45
1, 120959, Note_on_c, 9, 36, 0
1, 120959, Note_on_c, 9, 69, 0
1, 120960, Note_on_c, 9, 51, 101
1, 120960, Note_on_c, 9, 69, 101
1, 120960, Note_on_c, 9, 36, 120
1, 121079, Note_on_c, 9, 51, 0
1, 121079, Note_on_c, 9, 69, 0
1, 121080, Note_on_c, 9, 69, 45
1, 121199, Note_on_c, 9, 69, 0
1, 121200, Note_on_c, 9, 51, 45
1, 121200, Note_on_c, 9, 69, 41
1, 121319, Note_on_c, 9, 51, 0
1, 121319, Note_on_c, 9, 69, 0
1, 121320, Note_on_c, 9, 69, 41
1, 121439, Note_on_c, 9, 36, 0
1, 121439, Note_on_c, 9, 69, 0
1, 121440, Note_on_c, 9, 38, 120
1, 121440, Note_on_c, 9, 54, 113
1, 121440, Note_on_c, 9, 39, 120
1, 121440, Note_on_c, 9, 51, 113
1, 121440, Note_on_c, 9, 69, 113
1, 121559, Note_on_c, 9, 38, 0
1, 121559, Note_on_c, 9, 54, 0
1, 121559, Note_on_c, 9, 39, 0
1, 121559, Note_on_c, 9, 51, 0
1, 121559, Note_on_c, 9, 69, 0
1, 121560, Note_on_c, 9, 69, 45
1, 121679, Note_on_c, 9, 69, 0
1, 121680, Note_on_c, 9, 51, 41
1, 121680, Note_on_c, 9, 69, 45
1, 121680, Note_on_c, 9, 36, 120
1, 121799, Note_on_c, 9, 51, 0
1, 121799, Note_on_c, 9, 69, 0
1, 121800, Note_on_c, 9, 69, 41
1, 121919, Note_on_c, 9, 36, 0
1, 121919, Note_on_c, 9, 69, 0
1, 121920, Note_on_c, 9, 51, 101
1, 121920, Note_on_c, 9, 69, 113
1, 121920, Note_on_c, 9, 36, 120
1, 122039, Note_on_c, 9, 51, 0
1, 122039, Note_on_c, 9, 69, 0
1, 122040, Note_on_c, 9, 69, 57
1, 122159, Note_on_c, 9, 69, 0
1, 122160, Note_on_c, 9, 51, 37
1, 122160, Note_on_c, 9, 69, 45
1, 122279, Note_on_c, 9, 51, 0
1, 122279, Note_on_c, 9, 69, 0
1, 122280, Note_on_c, 9, 69, 45
1, 122399, Note_on_c, 9, 36, 0
1, 122399, Note_on_c, 9, 69, 0
1, 122400, Note_on_c, 9, 38, 120
1, 122400, Note_on_c, 9, 54, 113
1, 122400, Note_on_c, 9, 39, 120
1, 122400, Note_on_c, 9, 51, 101
1, 122400, Note_on_c, 9, 69, 101
1, 122519, Note_on_c, 9, 38, 0
1, 122519, Note_on_c, 9, 54, 0
1, 122519, Note_on_c, 9, 39, 0
1, 122519, Note_on_c, 9, 51, 0
1, 122519, Note_on_c, 9, 69, 0
1, 122520, Note_on_c, 9, 69, 57
1, 122639, Note_on_c, 9, 69, 0
1, 122640, Note_on_c, 9, 51, 41
1, 122640, Note_on_c, 9, 69, 41
1, 122640, Note_on_c, 9, 36, 120
1, 122759, Note_on_c, 9, 51, 0
1, 122759, Note_on_c, 9, 69, 0
1, 122760, Note_on_c, 9, 69, 57
1, 122879, Note_on_c, 9, 36, 0
1, 122879, Note_on_c, 9, 69, 0
1, 122880, Note_on_c, 9, 51, 81
1, 122880, Note_on_c, 9, 69, 113
1, 122880, Note_on_c, 9, 36, 120
1, 122999, Note_on_c, 9, 51, 0
1, 122999, Note_on_c, 9, 69, 0
1, 123000, Note_on_c, 9, 69, 73
1, 123119, Note_on_c, 9, 69, 0
1, 123120, Note_on_c, 9, 51, 41
1, 123120, Note_on_c, 9, 69, 41
1, 123239, Note_on_c, 9, 51, 0
1, 123239, Note_on_c, 9, 69, 0
1, 123240, Note_on_c, 9, 69, 45
1, 123359, Note_on_c, 9, 36, 0
1, 123359, Note_on_c, 9, 69, 0
1, 123360, Note_on_c, 9, 38, 121
1, 123360, Note_on_c, 9, 54, 113
1, 123360, Note_on_c, 9, 39, 120
1, 123360, Note_on_c, 9, 51, 101
1, 123360, Note_on_c, 9, 69, 101
1, 123479, Note_on_c, 9, 38, 0
1, 123479, Note_on_c, 9, 54, 0
1, 123479, Note_on_c, 9, 39, 0
1, 123479, Note_on_c, 9, 51, 0
1, 123479, Note_on_c, 9, 69, 0
1, 123480, Note_on_c, 9, 69, 65
1, 123599, Note_on_c, 9, 69, 0
1, 123600, Note_on_c, 9, 51, 49
1, 123600, Note_on_c, 9, 69, 33
1, 123600, Note_on_c, 9, 36, 120
1, 123719, Note_on_c, 9, 51, 0
1, 123719, Note_on_c, 9, 69, 0
1, 123720, Note_on_c, 9, 69, 45
1, 123839, Note_on_c, 9, 36, 0
1, 123839, Note_on_c, 9, 69, 0
1, 123840, Note_on_c, 9, 51, 101
1, 123840, Note_on_c, 9, 69, 89
1, 123840, Note_on_c, 9, 36, 120
1, 123959, Note_on_c, 9, 51, 0
1, 123959, Note_on_c, 9, 69, 0
1, 123960, Note_on_c, 9, 69, 57
1, 124079, Note_on_c, 9, 69, 0
1, 124080, Note_on_c, 9, 51, 45
1, 124080, Note_on_c, 9, 69, 45
1, 124199, Note_on_c, 9, 51, 0
1, 124199, Note_on_c, 9, 69, 0
1, 124200, Note_on_c, 9, 69, 45
1, 124319, Note_on_c, 9, 36, 0
1, 124319, Note_on_c, 9, 69, 0
1, 124320, Note_on_c, 9, 38, 121
1, 124320, Note_on_c, 9, 54, 101
1, 124320, Note_on_c, 9, 39, 120
1, 124320, Note_on_c, 9, 51, 101
1, 124320, Note_on_c, 9, 69, 113
1, 124439, Note_on_c, 9, 38, 0
1, 124439, Note_on_c, 9, 54, 0
1, 124439, Note_on_c, 9, 39, 0
1, 124439, Note_on_c, 9, 51, 0
1, 124439, Note_on_c, 9, 69, 0
1, 124440, Note_on_c, 9, 69, 73
1, 124559, Note_on_c, 9, 69, 0
1, 124560, Note_on_c, 9, 51, 45
1, 124560, Note_on_c, 9, 69, 57
1, 124560, Note_on_c, 9, 36, 120
1, 124679, Note_on_c, 9, 51, 0
1, 124679, Note_on_c, 9, 69, 0
1, 124680, Note_on_c, 9, 69, 65
1, 124799, Note_on_c, 9, 36, 0
1, 124799, Note_on_c, 9, 69, 0
1, 124800, Note_on_c, 9, 51, 89
1, 124800, Note_on_c, 9, 69, 113
1, 124800, Note_on_c, 9, 36, 120
1, 124919, Note_on_c, 9, 51, 0
1, 124919, Note_on_c, 9, 69, 0
1, 124920, Note_on_c, 9, 69, 45
1, 125039, Note_on_c, 9, 69, 0
1, 125040, Note_on_c, 9, 51, 41
1, 125040, Note_on_c, 9, 69, 41
1, 125159, Note_on_c, 9, 51, 0
1, 125159, Note_on_c, 9, 69, 0
1, 125160, Note_on_c, 9, 69, 41
1, 125279, Note_on_c, 9, 36, 0
1, 125279, Note_on_c, 9, 69, 0
1, 125280, Note_on_c, 9, 38, 121
1, 125280, Note_on_c, 9, 54, 101
1, 125280, Note_on_c, 9, 39, 120
1, 125280, Note_on_c, 9, 51, 101
1, 125280, Note_on_c, 9, 69, 113
1, 125399, Note_on_c, 9, 38, 0
1, 125399, Note_on_c, 9, 54, 0
1, 125399, Note_on_c, 9, 39, 0
1, 125399, Note_on_c, 9, 51, 0
1, 125399, Note_on_c, 9, 69, 0
1, 125400, Note_on_c, 9, 69, 57
1, 125519, Note_on_c, 9, 69, 0
1, 125520, Note_on_c, 9, 51, 45
1, 125520, Note_on_c, 9, 69, 45
1, 125520, Note_on_c, 9, 36, 120
1, 125639, Note_on_c, 9, 51, 0
1, 125639, Note_on_c, 9, 69, 0
1, 125640, Note_on_c, 9, 69, 49
1, 125759, Note_on_c, 9, 36, 0
1, 125759, Note_on_c, 9, 69, 0
1, 125760, Note_on_c, 9, 51, 89
1, 125760, Note_on_c, 9, 69, 101
1, 125760, Note_on_c, 9, 36, 120
1, 125879, Note_on_c, 9, 51, 0
1, 125879, Note_on_c, 9, 69, 0
1, 125880, Note_on_c, 9, 69, 65
1, 125999, Note_on_c, 9, 69, 0
1, 126000, Note_on_c, 9, 51, 41
1, 126000, Note_on_c, 9, 69, 49
1, 126119, Note_on_c, 9, 51, 0
1, 126119, Note_on_c, 9, 69, 0
1, 126120, Note_on_c, 9, 69, 73
1, 126239, Note_on_c, 9, 36, 0
1, 126239, Note_on_c, 9, 69, 0
1, 126240, Note_on_c, 9, 38, 127
1, 126240, Note_on_c, 9, 54, 101
1, 126240, Note_on_c, 9, 39, 120
1, 126240, Note_on_c, 9, 51, 101
1, 126240, Note_on_c, 9, 69, 113
1, 126359, Note_on_c, 9, 38, 0
1, 126359, Note_on_c, 9, 54, 0
1, 126359, Note_on_c, 9, 39, 0
1, 126359, Note_on_c, 9, 51, 0
1, 126359, Note_on_c, 9, 69, 0
1, 126360, Note_on_c, 9, 69, 65
1, 126479, Note_on_c, 9, 69, 0
1, 126480, Note_on_c, 9, 51, 45
1, 126480, Note_on_c, 9, 69, 57
1, 126480, Note_on_c, 9, 36, 120
1, 126599, Note_on_c, 9, 51, 0
1, 126599, Note_on_c, 9, 69, 0
1, 126600, Note_on_c, 9, 69, 73
1, 126719, Note_on_c, 9, 36, 0
1, 126719, Note_on_c, 9, 69, 0
1, 126720, Note_on_c, 9, 51, 81
1, 126720, Note_on_c, 9, 69, 101
1, 126720, Note_on_c, 9, 36, 120
1, 126839, Note_on_c, 9, 51, 0
1, 126839, Note_on_c, 9, 69, 0
1, 126840, Note_on_c, 9, 69, 49
1, 126959, Note_on_c, 9, 69, 0
1, 126960, Note_on_c, 9, 51, 57
1, 126960, Note_on_c, 9, 69, 45
1, 127079, Note_on_c, 9, 51, 0
1, 127079, Note_on_c, 9, 69, 0
1, 127080, Note_on_c, 9, 69, 41
1, 127199, Note_on_c, 9, 36, 0
1, 127199, Note_on_c, 9, 69, 0
1, 127200, Note_on_c, 9, 38, 121
1, 127200, Note_on_c, 9, 54, 113
1, 127200, Note_on_c, 9, 39, 120
1, 127200, Note_on_c, 9, 51, 89
1, 127200, Note_on_c, 9, 69, 113
1, 127319, Note_on_c, 9, 38, 0
1, 127319, Note_on_c, 9, 54, 0
1, 127319, Note_on_c, 9, 39, 0
1, 127319, Note_on_c, 9, 51, 0
1, 127319, Note_on_c, 9, 69, 0
1, 127320, Note_on_c, 9, 69, 65
1, 127439, Note_on_c, 9, 69, 0
1, 127440, Note_on_c, 9, 51, 45
1, 127440, Note_on_c, 9, 69, 41
1, 127440, Note_on_c, 9, 36, 120
1, 127559, Note_on_c, 9, 51, 0
1, 127559, Note_on_c, 9, 69, 0
1, 127560, Note_on_c, 9, 69, 41
1, 127679, Note_on_c, 9, 36, 0
1, 127679, Note_on_c, 9, 69, 0
1, 127680, Note_on_c, 9, 51, 89
1, 127680, Note_on_c, 9, 69, 113
1, 127680, Note_on_c, 9, 36, 120
1, 127799, Note_on_c, 9, 51, 0
1, 127799, Note_on_c, 9, 69, 0
1, 127800, Note_on_c, 9, 69, 49
1, 127919, Note_on_c, 9, 69, 0
1, 127920, Note_on_c, 9, 51, 45
1, 127920, Note_on_c, 9, 69, 37
1, 128039, Note_on_c, 9, 51, 0
1, 128039, Note_on_c, 9, 69, 0
1, 128040, Note_on_c, 9, 69, 41
1, 128159, Note_on_c, 9, 36, 0
1, 128159, Note_on_c, 9, 69, 0
1, 128160, Note_on_c, 9, 38, 121
1, 128160, Note_on_c, 9, 54, 101
1, 128160, Note_on_c, 9, 39, 120
1, 128160, Note_on_c, 9, 51, 89
1, 128160, Note_on_c, 9, 69, 113
1, 128279, Note_on_c, 9, 38, 0
1, 128279, Note_on_c, 9, 54, 0
1, 128279, Note_on_c, 9, 39, 0
1, 128279, Note_on_c, 9, 51, 0
1, 128279, Note_on_c, 9, 69, 0
1, 128280, Note_on_c, 9, 69, 57
1, 128399, Note_on_c, 9, 69, 0
1, 128400, Note_on_c, 9, 51, 45
1, 128400, Note_on_c, 9, 69, 37
1, 128400, Note_on_c, 9, 36, 120
1, 128519, Note_on_c, 9, 51, 0
1, 128519, Note_on_c, 9, 69, 0
1, 128520, Note_on_c, 9, 69, 45
1, 128639, Note_on_c, 9, 36, 0
1, 128639, Note_on_c, 9, 69, 0
1, 128640, Note_on_c, 9, 51, 101
1, 128640, Note_on_c, 9, 69, 101
1, 128640, Note_on_c, 9, 36, 120
1, 128759, Note_on_c, 9, 51, 0
1, 128759, Note_on_c, 9, 69, 0
1, 128760, Note_on_c, 9, 69, 45
1, 128879, Note_on_c, 9, 69, 0
1, 128880, Note_on_c, 9, 51, 45
1, 128880, Note_on_c, 9, 69, 41
1, 128999, Note_on_c, 9, 51, 0
1, 128999, Note_on_c, 9, 69, 0
1, 129000, Note_on_c, 9, 69, 41
1, 129119, Note_on_c, 9, 36, 0
1, 129119, Note_on_c, 9, 69, 0
1, 129120, Note_on_c, 9, 38, 120
1, 129120, Note_on_c, 9, 54, 89
1, 129120, Note_on_c, 9, 39, 120
1, 129120, Note_on_c, 9, 51, 113
1, 129120, Note_on_c, 9, 69, 113
1, 129239, Note_on_c, 9, 38, 0
1, 129239, Note_on_c, 9, 54, 0
1, 129239, Note_on_c, 9, 39, 0
1, 129239, Note_on_c, 9, 51, 0
1, 129239, Note_on_c, 9, 69, 0
1, 129240, Note_on_c, 9, 69, 45
1, 129359, Note_on_c, 9, 69, 0
1, 129360, Note_on_c, 9, 51, 41
1, 129360, Note_on_c, 9, 69, 45
1, 129360, Note_on_c, 9, 36, 120
1, 129479, Note_on_c, 9, 51, 0
1, 129479, Note_on_c, 9, 69, 0
1, 129480, Note_on_c, 9, 69, 41
1, 129599, Note_on_c, 9, 36, 0
1, 129599, Note_on_c, 9, 69, 0
1, 129600, Note_on_c, 9, 51, 101
1, 129600, Note_on_c, 9, 69, 113
1, 129600, Note_on_c, 9, 36, 120
1, 129719, Note_on_c, 9, 51, 0
1, 129719, Note_on_c, 9, 69, 0
1, 129720, Note_on_c, 9, 69, 57
1, 129839, Note_on_c, 9, 69, 0
1, 129840, Note_on_c, 9, 51, 37
1, 129840, Note_on_c, 9, 69, 45
1, 129959, Note_on_c, 9, 51, 0
1, 129959, Note_on_c, 9, 69, 0
1, 129960, Note_on_c, 9, 69, 45
1, 130079, Note_on_c, 9, 36, 0
1, 130079, Note_on_c, 9, 69, 0
1, 130080, Note_on_c, 9, 38, 120
1, 130080, Note_on_c, 9, 54, 113
1, 130080, Note_on_c, 9, 39, 120
1, 130080, Note_on_c, 9, 51, 101
1, 130080, Note_on_c, 9, 69, 101
1, 130199, Note_on_c, 9, 38, 0
1, 130199, Note_on_c, 9, 54, 0
1, 130199, Note_on_c, 9, 39, 0
1, 130199, Note_on_c, 9, 51, 0
1, 130199, Note_on_c, 9, 69, 0
1, 130200, Note_on_c, 9, 69, 57
1, 130319, Note_on_c, 9, 69, 0
1, 130320, Note_on_c, 9, 51, 41
1, 130320, Note_on_c, 9, 69, 41
1, 130320, Note_on_c, 9, 36, 120
1, 130439, Note_on_c, 9, 51, 0
1, 130439, Note_on_c, 9, 69, 0
1, 130440, Note_on_c, 9, 69, 57
1, 130559, Note_on_c, 9, 36, 0
1, 130559, Note_on_c, 9, 69, 0
1, 130560, Note_on_c, 9, 51, 81
1, 130560, Note_on_c, 9, 69, 113
1, 130560, Note_on_c, 9, 36, 120
1, 130679, Note_on_c, 9, 51, 0
1, 130679, Note_on_c, 9, 69, 0
1, 130680, Note_on_c, 9, 69, 73
1, 130799, Note_on_c, 9, 69, 0
1, 130800, Note_on_c, 9, 51, 41
1, 130800, Note_on_c, 9, 69, 41
1, 130919, Note_on_c, 9, 51, 0
1, 130919, Note_on_c, 9, 69, 0
1, 130920, Note_on_c, 9, 69, 45
1, 131039, Note_on_c, 9, 36, 0
1, 131039, Note_on_c, 9, 69, 0
1, 131040, Note_on_c, 9, 38, 121
1, 131040, Note_on_c, 9, 54, 113
1, 131040, Note_on_c, 9, 39, 120
1, 131040, Note_on_c, 9, 51, 101
1, 131040, Note_on_c, 9, 69, 101
1, 131159, Note_on_c, 9, 38, 0
1, 131159, Note_on_c, 9, 54, 0
1, 131159, Note_on_c, 9, 39, 0
1, 131159, Note_on_c, 9, 51, 0
1, 131159, Note_on_c, 9, 69, 0
1, 131160, Note_on_c, 9, 69, 65
1, 131279, Note_on_c, 9, 69, 0
1, 131280, Note_on_c, 9, 51, 49
1, 131280, Note_on_c, 9, 69, 33
1, 131280, Note_on_c, 9, 36, 120
1, 131399, Note_on_c, 9, 51, 0
1, 131399, Note_on_c, 9, 69, 0
1, 131400, Note_on_c, 9, 69, 45
1, 131519, Note_on_c, 9, 36, 0
1, 131519, Note_on_c, 9, 69, 0
1, 131520, Note_on_c, 9, 51, 101
1, 131520, Note_on_c, 9, 69, 89
1, 131520, Note_on_c, 9, 36, 120
1, 131639, Note_on_c, 9, 51, 0
1, 131639, Note_on_c, 9, 69, 0
1, 131640, Note_on_c, 9, 69, 57
1, 131759, Note_on_c, 9, 69, 0
1, 131760, Note_on_c, 9, 51, 45
1, 131760, Note_on_c, 9, 69, 45
1, 131879, Note_on_c, 9, 51, 0
1, 131879, Note_on_c, 9, 69, 0
1, 131880, Note_on_c, 9, 69, 45
1, 131999, Note_on_c, 9, 36, 0
1, 131999, Note_on_c, 9, 69, 0
1, 132000, Note_on_c, 9, 38, 121
1, 132000, Note_on_c, 9, 54, 101
1, 132000, Note_on_c, 9, 39, 120
1, 132000, Note_on_c, 9, 51, 101
1, 132000, Note_on_c, 9, 69, 113
1, 132119, Note_on_c, 9, 38, 0
1, 132119, Note_on_c, 9, 54, 0
1, 132119, Note_on_c, 9, 39, 0
1, 132119, Note_on_c, 9, 51, 0
1, 132119, Note_on_c, 9, 69, 0
1, 132120, Note_on_c, 9, 69, 73
1, 132239, Note_on_c, 9, 69, 0
1, 132240, Note_on_c, 9, 51, 45
1, 132240, Note_on_c, 9, 69, 57
1, 132240, Note_on_c, 9, 36, 120
1, 132359, Note_on_c, 9, 51, 0
1, 132359, Note_on_c, 9, 69, 0
1, 132360, Note_on_c, 9, 69, 65
1, 132479, Note_on_c, 9, 36, 0
1, 132479, Note_on_c, 9, 69, 0
1, 132480, Note_on_c, 9, 51, 89
1, 132480, Note_on_c, 9, 69, 113
1, 132480, Note_on_c, 9, 36, 120
1, 132599, Note_on_c, 9, 51, 0
1, 132599, Note_on_c, 9, 69, 0
1, 132600, Note_on_c, 9, 69, 45
1, 132719, Note_on_c, 9, 69, 0
1, 132720, Note_on_c, 9, 51, 41
1, 132720, Note_on_c, 9, 69, 41
1, 132839, Note_on_c, 9, 51, 0
1, 132839, Note_on_c, 9, 69, 0
1, 132840, Note_on_c, 9, 69, 41
1, 132959, Note_on_c, 9, 36, 0
1, 132959, Note_on_c, 9, 69, 0
1, 132960, Note_on_c, 9, 38, 121
1, 132960, Note_on_c, 9, 54, 125
1, 132960, Note_on_c, 9, 39, 120
1, 132960, Note_on_c, 9, 51, 101
1, 132960, Note_on_c, 9, 69, 113
1, 133079, Note_on_c, 9, 38, 0
1, 133079, Note_on_c, 9, 54, 0
1, 133079, Note_on_c, 9, 39, 0
1, 133079, Note_on_c, 9, 51, 0
1, 133079, Note_on_c, 9, 69, 0
1, 133080, Note_on_c, 9, 69, 57
1, 133199, Note_on_c, 9, 69, 0
1, 133200, Note_on_c, 9, 51, 45
1, 133200, Note_on_c, 9, 69, 45
1, 133200, Note_on_c, 9, 36, 120
1, 133319, Note_on_c, 9, 51, 0
1, 133319, Note_on_c, 9, 69, 0
1, 133320, Note_on_c, 9, 69, 49
1, 133439, Note_on_c, 9, 36, 0
1, 133439, Note_on_c, 9, 69, 0
1, 133440, Note_on_c, 9, 38, 121
1, 133440, Note_on_c, 9, 51, 89
1, 133440, Note_on_c, 9, 69, 101
1, 133440, Note_on_c, 9, 36, 120
1, 133559, Note_on_c, 9, 38, 0
1, 133559, Note_on_c, 9, 51, 0
1, 133559, Note_on_c, 9, 69, 0
1, 133560, Note_on_c, 9, 69, 65
1, 133679, Note_on_c, 9, 69, 0
1, 133680, Note_on_c, 9, 51, 41
1, 133680, Note_on_c, 9, 69, 49
1, 133799, Note_on_c, 9, 51, 0
1, 133799, Note_on_c, 9, 69, 0
1, 133800, Note_on_c, 9, 38, 121
1, 133800, Note_on_c, 9, 69, 73
1, 133919, Note_on_c, 9, 36, 0
1, 133919, Note_on_c, 9, 38, 0
1, 133919, Note_on_c, 9, 69, 0
1, 133920, Note_on_c, 9, 38, 121
1, 133920, Note_on_c, 9, 54, 113
1, 133920, Note_on_c, 9, 39, 120
1, 133920, Note_on_c, 9, 51, 101
1, 133920, Note_on_c, 9, 69, 113
1, 134039, Note_on_c, 9, 38, 0
1, 134039, Note_on_c, 9, 54, 0
1, 134039, Note_on_c, 9, 39, 0
1, 134039, Note_on_c, 9, 51, 0
1, 134039, Note_on_c, 9, 69, 0
1, 134040, Note_on_c, 9, 69, 65
1, 134159, Note_on_c, 9, 69, 0
1, 134160, Note_on_c, 9, 38, 127
1, 134160, Note_on_c, 9, 51, 45
1, 134160, Note_on_c, 9, 69, 57
1, 134160, Note_on_c, 9, 36, 120
1, 134279, Note_on_c, 9, 38, 0
1, 134279, Note_on_c, 9, 51, 0
1, 134279, Note_on_c, 9, 69, 0
1, 134280, Note_on_c, 9, 69, 73
1, 134399, Note_on_c, 9, 36, 0
1, 134399, Note_on_c, 9, 69, 0
1, 134400, Note_on_c, 9, 51, 81
1, 134400, Note_on_c, 9, 69, 101
1, 134400, Note_on_c, 9, 36, 120
1, 134519, Note_on_c, 9, 51, 0
1, 134519, Note_on_c, 9, 69, 0
1, 134520, Note_on_c, 9, 69, 49
1, 134639, Note_on_c, 9, 69, 0
1, 134640, Note_on_c, 9, 51, 57
1, 134640, Note_on_c, 9, 69, 45
1, 134759, Note_on_c, 9, 51, 0
1, 134759, Note_on_c, 9, 69, 0
1, 134760, Note_on_c, 9, 69, 41
1, 134879, Note_on_c, 9, 36, 0
1, 134879, Note_on_c, 9, 69, 0
1, 134880, Note_on_c, 9, 38, 121
1, 134880, Note_on_c, 9, 54, 125
1, 134880, Note_on_c, 9, 39, 120
1, 134880, Note_on_c, 9, 51, 89
1, 134880, Note_on_c, 9, 69, 113
1, 134999, Note_on_c, 9, 38, 0
1, 134999, Note_on_c, 9, 54, 0
1, 134999, Note_on_c, 9, 39, 0
1, 134999, Note_on_c, 9, 51, 0
1, 134999, Note_on_c, 9, 69, 0
1, 135000, Note_on_c, 9, 69, 65
1, 135119, Note_on_c, 9, 69, 0
1, 135120, Note_on_c, 9, 51, 45
1, 135120, Note_on_c, 9, 69, 41
1, 135120, Note_on_c, 9, 36, 120
1, 135239, Note_on_c, 9, 51, 0
1, 135239, Note_on_c, 9, 69, 0
1, 135240, Note_on_c, 9, 69, 41
1, 135359, Note_on_c, 9, 36, 0
1, 135359, Note_on_c, 9, 69, 0
1, 135360, Note_on_c, 9, 51, 89
1, 135360, Note_on_c, 9, 69, 113
1, 135360, Note_on_c, 9, 36, 120
1, 135479, Note_on_c, 9, 51, 0
1, 135479, Note_on_c, 9, 69, 0
1, 135480, Note_on_c, 9, 69, 49
1, 135599, Note_on_c, 9, 69, 0
1, 135600, Note_on_c, 9, 51, 45
1, 135600, Note_on_c, 9, 69, 37
1, 135719, Note_on_c, 9, 51, 0
1, 135719, Note_on_c, 9, 69, 0
1, 135720, Note_on_c, 9, 69, 41
1, 135839, Note_on_c, 9, 36, 0
1, 135839, Note_on_c, 9, 69, 0
1, 135840, Note_on_c, 9, 38, 121
1, 135840, Note_on_c, 9, 54, 125
1, 135840, Note_on_c, 9, 39, 120
1, 135840, Note_on_c, 9, 51, 89
1, 135840, Note_on_c, 9, 69, 113
1, 135959, Note_on_c, 9, 38, 0
1, 135959, Note_on_c, 9, 54, 0
1, 135959, Note_on_c, 9, 39, 0
1, 135959, Note_on_c, 9, 51, 0
1, 135959, Note_on_c, 9, 69, 0
1, 135960, Note_on_c, 9, 69, 57
1, 136079, Note_on_c, 9, 69, 0
1, 136080, Note_on_c, 9, 51, 45
1, 136080, Note_on_c, 9, 69, 37
1, 136080, Note_on_c, 9, 36, 120
1, 136199, Note_on_c, 9, 51, 0
1, 136199, Note_on_c, 9, 69, 0
1, 136200, Note_on_c, 9, 69, 45
1, 136319, Note_on_c, 9, 36, 0
1, 136319, Note_on_c, 9, 69, 0
1, 136320, Note_on_c, 9, 51, 101
1, 136320, Note_on_c, 9, 69, 101
1, 136320, Note_on_c, 9, 36, 120
1, 136439, Note_on_c, 9, 51, 0
1, 136439, Note_on_c, 9, 69, 0
1, 136440, Note_on_c, 9, 69, 45
1, 136559, Note_on_c, 9, 69, 0
1, 136560, Note_on_c, 9, 51, 45
1, 136560, Note_on_c, 9, 69, 41
1, 136679, Note_on_c, 9, 51, 0
1, 136679, Note_on_c, 9, 69, 0
1, 136680, Note_on_c, 9, 69, 41
1, 136799, Note_on_c, 9, 36, 0
1, 136799, Note_on_c, 9, 69, 0
1, 136800, Note_on_c, 9, 38, 120
1, 136800, Note_on_c, 9, 54, 113
1, 136800, Note_on_c, 9, 39, 120
1, 136800, Note_on_c, 9, 51, 113
1, 136800, Note_on_c, 9, 69, 113
1, 136919, Note_on_c, 9, 38, 0
1, 136919, Note_on_c, 9, 54, 0
1, 136919, Note_on_c, 9, 39, 0
1, 136919, Note_on_c, 9, 51, 0
1, 136919, Note_on_c, 9, 69, 0
1, 136920, Note_on_c, 9, 69, 45
1, 137039, Note_on_c, 9, 69, 0
1, 137040, Note_on_c, 9, 51, 41
1, 137040, Note_on_c, 9, 69, 45
1, 137040, Note_on_c, 9, 36, 120
1, 137159, Note_on_c, 9, 51, 0
1, 137159, Note_on_c, 9, 69, 0
1, 137160, Note_on_c, 9, 69, 41
1, 137279, Note_on_c, 9, 36, 0
1, 137279, Note_on_c, 9, 69, 0
1, 137280, Note_on_c, 9, 51, 101
1, 137280, Note_on_c, 9, 69, 113
1, 137280, Note_on_c, 9, 36, 120
1, 137399, Note_on_c, 9, 51, 0
1, 137399, Note_on_c, 9, 69, 0
1, 137400, Note_on_c, 9, 69, 57
1, 137519, Note_on_c, 9, 69, 0
1, 137520, Note_on_c, 9, 51, 37
1, 137520, Note_on_c, 9, 69, 45
1, 137639, Note_on_c, 9, 51, 0
1, 137639, Note_on_c, 9, 69, 0
1, 137640, Note_on_c, 9, 69, 45
1, 137759, Note_on_c, 9, 36, 0
1, 137759, Note_on_c, 9, 69, 0
1, 137760, Note_on_c, 9, 38, 120
1, 137760, Note_on_c, 9, 54, 113
1, 137760, Note_on_c, 9, 39, 120
1, 137760, Note_on_c, 9, 51, 101
1, 137760, Note_on_c, 9, 69, 101
1, 137879, Note_on_c, 9, 38, 0
1, 137879, Note_on_c, 9, 54, 0
1, 137879, Note_on_c, 9, 39, 0
1, 137879, Note_on_c, 9, 51, 0
1, 137879, Note_on_c, 9, 69, 0
1, 137880, Note_on_c, 9, 69, 57
1, 137999, Note_on_c, 9, 69, 0
1, 138000, Note_on_c, 9, 51, 41
1, 138000, Note_on_c, 9, 69, 41
1, 138000, Note_on_c, 9, 36, 120
1, 138119, Note_on_c, 9, 51, 0
1, 138119, Note_on_c, 9, 69, 0
1, 138120, Note_on_c, 9, 69, 57
1, 138239, Note_on_c, 9, 36, 0
1, 138239, Note_on_c, 9, 69, 0
1, 138240, Note_on_c, 9, 51, 81
1, 138240, Note_on_c, 9, 69, 101
1, 138240, Note_on_c, 9, 36, 120
1, 138359, Note_on_c, 9, 51, 0
1, 138359, Note_on_c, 9, 69, 0
1, 138360, Note_on_c, 9, 69, 49
1, 138479, Note_on_c, 9, 69, 0
1, 138480, Note_on_c, 9, 51, 41
1, 138480, Note_on_c, 9, 69, 45
1, 138599, Note_on_c, 9, 51, 0
1, 138599, Note_on_c, 9, 69, 0
1, 138600, Note_on_c, 9, 69, 41
1, 138719, Note_on_c, 9, 36, 0
1, 138719, Note_on_c, 9, 69, 0
1, 138720, Note_on_c, 9, 38, 121
1, 138720, Note_on_c, 9, 54, 125
1, 138720, Note_on_c, 9, 39, 120
1, 138720, Note_on_c, 9, 51, 101
1, 138720, Note_on_c, 9, 69, 113
1, 138839, Note_on_c, 9, 38, 0
1, 138839, Note_on_c, 9, 54, 0
1, 138839, Note_on_c, 9, 39, 0
1, 138839, Note_on_c, 9, 51, 0
1, 138839, Note_on_c, 9, 69, 0
1, 138840, Note_on_c, 9, 69, 65
1, 138959, Note_on_c, 9, 69, 0
1, 138960, Note_on_c, 9, 51, 49
1, 138960, Note_on_c, 9, 69, 41
1, 138960, Note_on_c, 9, 36, 120
1, 139079, Note_on_c, 9, 51, 0
1, 139079, Note_on_c, 9, 69, 0
1, 139080, Note_on_c, 9, 69, 41
1, 139199, Note_on_c, 9, 36, 0
1, 139199, Note_on_c, 9, 69, 0
1, 139200, Note_on_c, 9, 51, 101
1, 139200, Note_on_c, 9, 69, 113
1, 139200, Note_on_c, 9, 36, 120
1, 139319, Note_on_c, 9, 51, 0
1, 139319, Note_on_c, 9, 69, 0
1, 139320, Note_on_c, 9, 69, 49
1, 139439, Note_on_c, 9, 69, 0
1, 139440, Note_on_c, 9, 51, 45
1, 139440, Note_on_c, 9, 69, 37
1, 139559, Note_on_c, 9, 51, 0
1, 139559, Note_on_c, 9, 69, 0
1, 139560, Note_on_c, 9, 69, 41
1, 139679, Note_on_c, 9, 36, 0
1, 139679, Note_on_c, 9, 69, 0
1, 139680, Note_on_c, 9, 38, 121
1, 139680, Note_on_c, 9, 54, 125
1, 139680, Note_on_c, 9, 39, 120
1, 139680, Note_on_c, 9, 51, 101
1, 139680, Note_on_c, 9, 69, 113
1, 139799, Note_on_c, 9, 38, 0
1, 139799, Note_on_c, 9, 54, 0
1, 139799, Note_on_c, 9, 39, 0
1, 139799, Note_on_c, 9, 51, 0
1, 139799, Note_on_c, 9, 69, 0
1, 139800, Note_on_c, 9, 69, 57
1, 139919, Note_on_c, 9, 69, 0
1, 139920, Note_on_c, 9, 51, 45
1, 139920, Note_on_c, 9, 69, 37
1, 139920, Note_on_c, 9, 36, 120
1, 140039, Note_on_c, 9, 51, 0
1, 140039, Note_on_c, 9, 69, 0
1, 140040, Note_on_c, 9, 69, 45
1, 140159, Note_on_c, 9, 36, 0
1, 140159, Note_on_c, 9, 69, 0
1, 140160, Note_on_c, 9, 51, 89
1, 140160, Note_on_c, 9, 69, 101
1, 140160, Note_on_c, 9, 36, 120
1, 140279, Note_on_c, 9, 51, 0
1, 140279, Note_on_c, 9, 69, 0
1, 140280, Note_on_c, 9, 69, 45
1, 140399, Note_on_c, 9, 69, 0
1, 140400, Note_on_c, 9, 51, 41
1, 140400, Note_on_c, 9, 69, 41
1, 140519, Note_on_c, 9, 51, 0
1, 140519, Note_on_c, 9, 69, 0
1, 140520, Note_on_c, 9, 69, 41
1, 140639, Note_on_c, 9, 36, 0
1, 140639, Note_on_c, 9, 69, 0
1, 140640, Note_on_c, 9, 38, 121
1, 140640, Note_on_c, 9, 54, 113
1, 140640, Note_on_c, 9, 39, 120
1, 140640, Note_on_c, 9, 51, 101
1, 140640, Note_on_c, 9, 69, 113
1, 140759, Note_on_c, 9, 38, 0
1, 140759, Note_on_c, 9, 54, 0
1, 140759, Note_on_c, 9, 39, 0
1, 140759, Note_on_c, 9, 51, 0
1, 140759, Note_on_c, 9, 69, 0
1, 140760, Note_on_c, 9, 69, 45
1, 140879, Note_on_c, 9, 69, 0
1, 140880, Note_on_c, 9, 51, 45
1, 140880, Note_on_c, 9, 69, 45
1, 140880, Note_on_c, 9, 36, 120
1, 140999, Note_on_c, 9, 51, 0
1, 140999, Note_on_c, 9, 69, 0
1, 141000, Note_on_c, 9, 69, 41
1, 141119, Note_on_c, 9, 36, 0
1, 141119, Note_on_c, 9, 69, 0
1, 141120, Note_on_c, 9, 51, 89
1, 141120, Note_on_c, 9, 69, 113
1, 141120, Note_on_c, 9, 36, 120
1, 141239, Note_on_c, 9, 51, 0
1, 141239, Note_on_c, 9, 69, 0
1, 141240, Note_on_c, 9, 69, 57
1, 141359, Note_on_c, 9, 69, 0
1, 141360, Note_on_c, 9, 51, 41
1, 141360, Note_on_c, 9, 69, 45
1, 141479, Note_on_c, 9, 51, 0
1, 141479, Note_on_c, 9, 69, 0
1, 141480, Note_on_c, 9, 69, 45
1, 141599, Note_on_c, 9, 36, 0
1, 141599, Note_on_c, 9, 69, 0
1, 141600, Note_on_c, 9, 38, 127
1, 141600, Note_on_c, 9, 54, 113
1, 141600, Note_on_c, 9, 39, 120
1, 141600, Note_on_c, 9, 51, 101
1, 141600, Note_on_c, 9, 69, 101
1, 141719, Note_on_c, 9, 38, 0
1, 141719, Note_on_c, 9, 54, 0
1, 141719, Note_on_c, 9, 39, 0
1, 141719, Note_on_c, 9, 51, 0
1, 141719, Note_on_c, 9, 69, 0
1, 141720, Note_on_c, 9, 69, 57
1, 141839, Note_on_c, 9, 69, 0
1, 141840, Note_on_c, 9, 51, 45
1, 141840, Note_on_c, 9, 69, 41
1, 141840, Note_on_c, 9, 36, 120
1, 141959, Note_on_c, 9, 51, 0
1, 141959, Note_on_c, 9, 69, 0
1, 141960, Note_on_c, 9, 69, 57
1, 142079, Note_on_c, 9, 36, 0
1, 142079, Note_on_c, 9, 69, 0
1, 142080, Note_on_c, 9, 51, 81
1, 142080, Note_on_c, 9, 69, 101
1, 142080, Note_on_c, 9, 36, 120
1, 142199, Note_on_c, 9, 51, 0
1, 142199, Note_on_c, 9, 69, 0
1, 142200, Note_on_c, 9, 69, 49
1, 142319, Note_on_c, 9, 69, 0
1, 142320, Note_on_c, 9, 51, 57
1, 142320, Note_on_c, 9, 69, 45
1, 142439, Note_on_c, 9, 51, 0
1, 142439, Note_on_c, 9, 69, 0
1, 142440, Note_on_c, 9, 69, 41
1, 142559, Note_on_c, 9, 36, 0
1, 142559, Note_on_c, 9, 69, 0
1, 142560, Note_on_c, 9, 38, 121
1, 142560, Note_on_c, 9, 54, 125
1, 142560, Note_on_c, 9, 39, 120
1, 142560, Note_on_c, 9, 51, 89
1, 142560, Note_on_c, 9, 69, 113
1, 142679, Note_on_c, 9, 38, 0
1, 142679, Note_on_c, 9, 54, 0
1, 142679, Note_on_c, 9, 39, 0
1, 142679, Note_on_c, 9, 51, 0
1, 142679, Note_on_c, 9, 69, 0
1, 142680, Note_on_c, 9, 69, 65
1, 142799, Note_on_c, 9, 69, 0
1, 142800, Note_on_c, 9, 51, 45
1, 142800, Note_on_c, 9, 69, 41
1, 142800, Note_on_c, 9, 36, 120
1, 142919, Note_on_c, 9, 51, 0
1, 142919, Note_on_c, 9, 69, 0
1, 142920, Note_on_c, 9, 69, 41
1, 143039, Note_on_c, 9, 36, 0
1, 143039, Note_on_c, 9, 69, 0
1, 143040, Note_on_c, 9, 51, 89
1, 143040, Note_on_c, 9, 69, 113
1, 143040, Note_on_c, 9, 36, 120
1, 143159, Note_on_c, 9, 51, 0
1, 143159, Note_on_c, 9, 69, 0
1, 143160, Note_on_c, 9, 69, 49
1, 143279, Note_on_c, 9, 69, 0
1, 143280, Note_on_c, 9, 51, 45
1, 143280, Note_on_c, 9, 69, 37
1, 143399, Note_on_c, 9, 51, 0
1, 143399, Note_on_c, 9, 69, 0
1, 143400, Note_on_c, 9, 69, 41
1, 143519, Note_on_c, 9, 36, 0
1, 143519, Note_on_c, 9, 69, 0
1, 143520, Note_on_c, 9, 38, 121
1, 143520, Note_on_c, 9, 54, 125
1, 143520, Note_on_c, 9, 39, 120
1, 143520, Note_on_c, 9, 51, 89
1, 143520, Note_on_c, 9, 69, 113
1, 143639, Note_on_c, 9, 38, 0
1, 143639, Note_on_c, 9, 54, 0
1, 143639, Note_on_c, 9, 39, 0
1, 143639, Note_on_c, 9, 51, 0
1, 143639, Note_on_c, 9, 69, 0
1, 143640, Note_on_c, 9, 69, 57
1, 143759, Note_on_c, 9, 69, 0
1, 143760, Note_on_c, 9, 51, 45
1, 143760, Note_on_c, 9, 69, 37
1, 143760, Note_on_c, 9, 36, 120
1, 143879, Note_on_c, 9, 51, 0
1, 143879, Note_on_c, 9, 69, 0
1, 143880, Note_on_c, 9, 69, 45
1, 143999, Note_on_c, 9, 36, 0
1, 143999, Note_on_c, 9, 69, 0
1, 144000, Note_on_c, 9, 51, 101
1, 144000, Note_on_c, 9, 69, 101
1, 144000, Note_on_c, 9, 36, 120
1, 144119, Note_on_c, 9, 51, 0
1, 144119, Note_on_c, 9, 69, 0
1, 144120, Note_on_c, 9, 69, 45
1, 144239, Note_on_c, 9, 69, 0
1, 144240, Note_on_c, 9, 51, 45
1, 144240, Note_on_c, 9, 69, 41
1, 144359, Note_on_c, 9, 51, 0
1, 144359, Note_on_c, 9, 69, 0
1, 144360, Note_on_c, 9, 69, 41
1, 144479, Note_on_c, 9, 36, 0
1, 144479, Note_on_c, 9, 69, 0
1, 144480, Note_on_c, 9, 38, 120
1, 144480, Note_on_c, 9, 54, 113
1, 144480, Note_on_c, 9, 39, 120
1, 144480, Note_on_c, 9, 51, 113
1, 144480, Note_on_c, 9, 69, 113
1, 144599, Note_on_c, 9, 38, 0
1, 144599, Note_on_c, 9, 54, 0
1, 144599, Note_on_c, 9, 39, 0
1, 144599, Note_on_c, 9, 51, 0
1, 144599, Note_on_c, 9, 69, 0
1, 144600, Note_on_c, 9, 69, 45
1, 144719, Note_on_c, 9, 69, 0
1, 144720, Note_on_c, 9, 51, 41
1, 144720, Note_on_c, 9, 69, 45
1, 144720, Note_on_c, 9, 36, 120
1, 144839, Note_on_c, 9, 51, 0
1, 144839, Note_on_c, 9, 69, 0
1, 144840, Note_on_c, 9, 69, 41
1, 144959, Note_on_c, 9, 36, 0
1, 144959, Note_on_c, 9, 69, 0
1, 144960, Note_on_c, 9, 51, 101
1, 144960, Note_on_c, 9, 69, 113
1, 144960, Note_on_c, 9, 36, 120
1, 145079, Note_on_c, 9, 51, 0
1, 145079, Note_on_c, 9, 69, 0
1, 145080, Note_on_c, 9, 69, 57
1, 145199, Note_on_c, 9, 69, 0
1, 145200, Note_on_c, 9, 51, 37
1, 145200, Note_on_c, 9, 69, 45
1, 145319, Note_on_c, 9, 51, 0
1, 145319, Note_on_c, 9, 69, 0
1, 145320, Note_on_c, 9, 69, 45
1, 145439, Note_on_c, 9, 36, 0
1, 145439, Note_on_c, 9, 69, 0
1, 145440, Note_on_c, 9, 38, 120
1, 145440, Note_on_c, 9, 54, 113
1, 145440, Note_on_c, 9, 39, 120
1, 145440, Note_on_c, 9, 51, 101
1, 145440, Note_on_c, 9, 69, 101
1, 145559, Note_on_c, 9, 38, 0
1, 145559, Note_on_c, 9, 54, 0
1, 145559, Note_on_c, 9, 39, 0
1, 145559, Note_on_c, 9, 51, 0
1, 145559, Note_on_c, 9, 69, 0
1, 145560, Note_on_c, 9, 69, 57
1, 145679, Note_on_c, 9, 69, 0
1, 145680, Note_on_c, 9, 51, 41
1, 145680, Note_on_c, 9, 69, 41
1, 145680, Note_on_c, 9, 36, 120
1, 145799, Note_on_c, 9, 51, 0
1, 145799, Note_on_c, 9, 69, 0
1, 145800, Note_on_c, 9, 69, 57
1, 145919, Note_on_c, 9, 36, 0
1, 145919, Note_on_c, 9, 69, 0
1, 145920, Note_on_c, 9, 51, 81
1, 145920, Note_on_c, 9, 69, 101
1, 145920, Note_on_c, 9, 36, 120
1, 146039, Note_on_c, 9, 51, 0
1, 146039, Note_on_c, 9, 69, 0
1, 146040, Note_on_c, 9, 69, 49
1, 146159, Note_on_c, 9, 69, 0
1, 146160, Note_on_c, 9, 51, 41
1, 146160, Note_on_c, 9, 69, 45
1, 146279, Note_on_c, 9, 51, 0
1, 146279, Note_on_c, 9, 69, 0
1, 146280, Note_on_c, 9, 69, 41
1, 146399, Note_on_c, 9, 36, 0
1, 146399, Note_on_c, 9, 69, 0
1, 146400, Note_on_c, 9, 38, 121
1, 146400, Note_on_c, 9, 54, 125
1, 146400, Note_on_c, 9, 39, 120
1, 146400, Note_on_c, 9, 51, 101
1, 146400, Note_on_c, 9, 69, 113
1, 146519, Note_on_c, 9, 38, 0
1, 146519, Note_on_c, 9, 54, 0
1, 146519, Note_on_c, 9, 39, 0
1, 146519, Note_on_c, 9, 51, 0
1, 146519, Note_on_c, 9, 69, 0
1, 146520, Note_on_c, 9, 69, 65
1, 146639, Note_on_c, 9, 69, 0
1, 146640, Note_on_c, 9, 51, 49
1, 146640, Note_on_c, 9, 69, 41
1, 146640, Note_on_c, 9, 36, 120
1, 146759, Note_on_c, 9, 51, 0
1, 146759, Note_on_c, 9, 69, 0
1, 146760, Note_on_c, 9, 69, 41
1, 146879, Note_on_c, 9, 36, 0
1, 146879, Note_on_c, 9, 69, 0
1, 146880, Note_on_c, 9, 51, 101
1, 146880, Note_on_c, 9, 69, 113
1, 146880, Note_on_c, 9, 36, 120
1, 146999, Note_on_c, 9, 51, 0
1, 146999, Note_on_c, 9, 69, 0
1, 147000, Note_on_c, 9, 69, 49
1, 147119, Note_on_c, 9, 69, 0
1, 147120, Note_on_c, 9, 51, 45
1, 147120, Note_on_c, 9, 69, 37
1, 147239, Note_on_c, 9, 51, 0
1, 147239, Note_on_c, 9, 69, 0
1, 147240, Note_on_c, 9, 69, 41
1, 147359, Note_on_c, 9, 36, 0
1, 147359, Note_on_c, 9, 69, 0
1, 147360, Note_on_c, 9, 38, 121
1, 147360, Note_on_c, 9, 54, 125
1, 147360, Note_on_c, 9, 39, 120
1, 147360, Note_on_c, 9, 51, 101
1, 147360, Note_on_c, 9, 69, 113
1, 147479, Note_on_c, 9, 38, 0
1, 147479, Note_on_c, 9, 54, 0
1, 147479, Note_on_c, 9, 39, 0
1, 147479, Note_on_c, 9, 51, 0
1, 147479, Note_on_c, 9, 69, 0
1, 147480, Note_on_c, 9, 69, 57
1, 147599, Note_on_c, 9, 69, 0
1, 147600, Note_on_c, 9, 51, 45
1, 147600, Note_on_c, 9, 69, 37
1, 147600, Note_on_c, 9, 36, 120
1, 147719, Note_on_c, 9, 51, 0
1, 147719, Note_on_c, 9, 69, 0
1, 147720, Note_on_c, 9, 69, 45
1, 147839, Note_on_c, 9, 36, 0
1, 147839, Note_on_c, 9, 69, 0
1, 147840, Note_on_c, 9, 51, 89
1, 147840, Note_on_c, 9, 69, 101
1, 147840, Note_on_c, 9, 36, 120
1, 147959, Note_on_c, 9, 51, 0
1, 147959, Note_on_c, 9, 69, 0
1, 147960, Note_on_c, 9, 69, 45
1, 148079, Note_on_c, 9, 69, 0
1, 148080, Note_on_c, 9, 51, 41
1, 148080, Note_on_c, 9, 69, 41
1, 148199, Note_on_c, 9, 51, 0
1, 148199, Note_on_c, 9, 69, 0
1, 148200, Note_on_c, 9, 69, 41
1, 148319, Note_on_c, 9, 36, 0
1, 148319, Note_on_c, 9, 69, 0
1, 148320, Note_on_c, 9, 38, 121
1, 148320, Note_on_c, 9, 54, 113
1, 148320, Note_on_c, 9, 39, 120
1, 148320, Note_on_c, 9, 51, 101
1, 148320, Note_on_c, 9, 69, 113
1, 148439, Note_on_c, 9, 38, 0
1, 148439, Note_on_c, 9, 54, 0
1, 148439, Note_on_c, 9, 39, 0
1, 148439, Note_on_c, 9, 51, 0
1, 148439, Note_on_c, 9, 69, 0
1, 148440, Note_on_c, 9, 69, 45
1, 148559, Note_on_c, 9, 69, 0
1, 148560, Note_on_c, 9, 51, 45
1, 148560, Note_on_c, 9, 69, 45
1, 148560, Note_on_c, 9, 36, 120
1, 148679, Note_on_c, 9, 51, 0
1, 148679, Note_on_c, 9, 69, 0
1, 148680, Note_on_c, 9, 69, 41
1, 148799, Note_on_c, 9, 36, 0
1, 148799, Note_on_c, 9, 69, 0
1, 148800, Note_on_c, 9, 51, 89
1, 148800, Note_on_c, 9, 69, 113
1, 148800, Note_on_c, 9, 36, 120
1, 148919, Note_on_c, 9, 51, 0
1, 148919, Note_on_c, 9, 69, 0
1, 148920, Note_on_c, 9, 69, 57
1, 149039, Note_on_c, 9, 69, 0
1, 149040, Note_on_c, 9, 51, 41
1, 149040, Note_on_c, 9, 69, 45
1, 149159, Note_on_c, 9, 51, 0
1, 149159, Note_on_c, 9, 69, 0
1, 149160, Note_on_c, 9, 69, 45
1, 149279, Note_on_c, 9, 36, 0
1, 149279, Note_on_c, 9, 69, 0
1, 149280, Note_on_c, 9, 38, 127
1, 149280, Note_on_c, 9, 54, 113
1, 149280, Note_on_c, 9, 39, 120
1, 149280, Note_on_c, 9, 51, 101
1, 149280, Note_on_c, 9, 69, 101
1, 149399, Note_on_c, 9, 38, 0
1, 149399, Note_on_c, 9, 54, 0
1, 149399, Note_on_c, 9, 39, 0
1, 149399, Note_on_c, 9, 51, 0
1, 149399, Note_on_c, 9, 69, 0
1, 149400, Note_on_c, 9, 69, 57
1, 149519, Note_on_c, 9, 69, 0
1, 149520, Note_on_c, 9, 51, 45
1, 149520, Note_on_c, 9, 69, 41
1, 149520, Note_on_c, 9, 36, 120
1, 149639, Note_on_c, 9, 51, 0
1, 149639, Note_on_c, 9, 69, 0
1, 149640, Note_on_c, 9, 69, 57
1, 149759, Note_on_c, 9, 36, 0
1, 149759, Note_on_c, 9, 69, 0
1, 149760, Note_on_c, 9, 51, 81
1, 149760, Note_on_c, 9, 69, 101
1, 149760, Note_on_c, 9, 36, 120
1, 149879, Note_on_c, 9, 51, 0
1, 149879, Note_on_c, 9, 69, 0
1, 149880, Note_on_c, 9, 69, 49
1, 149999, Note_on_c, 9, 69, 0
1, 150000, Note_on_c, 9, 51, 57
1, 150000, Note_on_c, 9, 69, 45
1, 150119, Note_on_c, 9, 51, 0
1, 150119, Note_on_c, 9, 69, 0
1, 150120, Note_on_c, 9, 69, 41
1, 150239, Note_on_c, 9, 36, 0
1, 150239, Note_on_c, 9, 69, 0
1, 150240, Note_on_c, 9, 38, 121
1, 150240, Note_on_c, 9, 54, 125
1, 150240, Note_on_c, 9, 39, 120
1, 150240, Note_on_c, 9, 51, 89
1, 150240, Note_on_c, 9, 69, 113
1, 150359, Note_on_c, 9, 38, 0
1, 150359, Note_on_c, 9, 54, 0
1, 150359, Note_on_c, 9, 39, 0
1, 150359, Note_on_c, 9, 51, 0
1, 150359, Note_on_c, 9, 69, 0
1, 150360, Note_on_c, 9, 69, 65
1, 150479, Note_on_c, 9, 69, 0
1, 150480, Note_on_c, 9, 51, 45
1, 150480, Note_on_c, 9, 69, 41
1, 150480, Note_on_c, 9, 36, 120
1, 150599, Note_on_c, 9, 51, 0
1, 150599, Note_on_c, 9, 69, 0
1, 150600, Note_on_c, 9, 69, 41
1, 150719, Note_on_c, 9, 36, 0
1, 150719, Note_on_c, 9, 69, 0
1, 150720, Note_on_c, 9, 51, 89
1, 150720, Note_on_c, 9, 69, 113
1, 150720, Note_on_c, 9, 36, 120
1, 150839, Note_on_c, 9, 51, 0
1, 150839, Note_on_c, 9, 69, 0
1, 150840, Note_on_c, 9, 69, 49
1, 150959, Note_on_c, 9, 69, 0
1, 150960, Note_on_c, 9, 51, 45
1, 150960, Note_on_c, 9, 69, 37
1, 151079, Note_on_c, 9, 51, 0
1, 151079, Note_on_c, 9, 69, 0
1, 151080, Note_on_c, 9, 69, 41
1, 151199, Note_on_c, 9, 36, 0
1, 151199, Note_on_c, 9, 69, 0
1, 151200, Note_on_c, 9, 38, 121
1, 151200, Note_on_c, 9, 54, 125
1, 151200, Note_on_c, 9, 39, 120
1, 151200, Note_on_c, 9, 51, 89
1, 151200, Note_on_c, 9, 69, 113
1, 151319, Note_on_c, 9, 38, 0
1, 151319, Note_on_c, 9, 54, 0
1, 151319, Note_on_c, 9, 39, 0
1, 151319, Note_on_c, 9, 51, 0
1, 151319, Note_on_c, 9, 69, 0
1, 151320, Note_on_c, 9, 69, 57
1, 151439, Note_on_c, 9, 69, 0
1, 151440, Note_on_c, 9, 51, 45
1, 151440, Note_on_c, 9, 69, 37
1, 151440, Note_on_c, 9, 36, 120
1, 151559, Note_on_c, 9, 51, 0
1, 151559, Note_on_c, 9, 69, 0
1, 151560, Note_on_c, 9, 69, 45
1, 151679, Note_on_c, 9, 36, 0
1, 151679, Note_on_c, 9, 69, 0
1, 151680, Note_on_c, 9, 51, 101
1, 151680, Note_on_c, 9, 69, 101
1, 151680, Note_on_c, 9, 36, 120
1, 151799, Note_on_c, 9, 51, 0
1, 151799, Note_on_c, 9, 69, 0
1, 151800, Note_on_c, 9, 69, 45
1, 151919, Note_on_c, 9, 69, 0
1, 151920, Note_on_c, 9, 51, 45
1, 151920, Note_on_c, 9, 69, 41
1, 152039, Note_on_c, 9, 51, 0
1, 152039, Note_on_c, 9, 69, 0
1, 152040, Note_on_c, 9, 69, 41
1, 152159, Note_on_c, 9, 36, 0
1, 152159, Note_on_c, 9, 69, 0
1, 152160, Note_on_c, 9, 38, 120
1, 152160, Note_on_c, 9, 54, 113
1, 152160, Note_on_c, 9, 39, 120
1, 152160, Note_on_c, 9, 51, 113
1, 152160, Note_on_c, 9, 69, 113
1, 152279, Note_on_c, 9, 38, 0
1, 152279, Note_on_c, 9, 54, 0
1, 152279, Note_on_c, 9, 39, 0
1, 152279, Note_on_c, 9, 51, 0
1, 152279, Note_on_c, 9, 69, 0
1, 152280, Note_on_c, 9, 69, 45
1, 152399, Note_on_c, 9, 69, 0
1, 152400, Note_on_c, 9, 51, 41
1, 152400, Note_on_c, 9, 69, 45
1, 152400, Note_on_c, 9, 36, 120
1, 152519, Note_on_c, 9, 51, 0
1, 152519, Note_on_c, 9, 69, 0
1, 152520, Note_on_c, 9, 69, 41
1, 152639, Note_on_c, 9, 36, 0
1, 152639, Note_on_c, 9, 69, 0
1, 152640, Note_on_c, 9, 51, 101
1, 152640, Note_on_c, 9, 69, 113
1, 152640, Note_on_c, 9, 36, 120
1, 152759, Note_on_c, 9, 51, 0
1, 152759, Note_on_c, 9, 69, 0
1, 152760, Note_on_c, 9, 69, 57
1, 152879, Note_on_c, 9, 69, 0
1, 152880, Note_on_c, 9, 51, 37
1, 152880, Note_on_c, 9, 69, 45
1, 152999, Note_on_c, 9, 51, 0
1, 152999, Note_on_c, 9, 69, 0
1, 153000, Note_on_c, 9, 69, 45
1, 153119, Note_on_c, 9, 36, 0
1, 153119, Note_on_c, 9, 69, 0
1, 153120, Note_on_c, 9, 38, 120
1, 153120, Note_on_c, 9, 54, 113
1, 153120, Note_on_c, 9, 39, 120
1, 153120, Note_on_c, 9, 51, 101
1, 153120, Note_on_c, 9, 69, 101
1, 153239, Note_on_c, 9, 38, 0
1, 153239, Note_on_c, 9, 54, 0
1, 153239, Note_on_c, 9, 39, 0
1, 153239, Note_on_c, 9, 51, 0
1, 153239, Note_on_c, 9, 69, 0
1, 153240, Note_on_c, 9, 69, 57
1, 153359, Note_on_c, 9, 69, 0
1, 153360, Note_on_c, 9, 51, 41
1, 153360, Note_on_c, 9, 69, 41
1, 153360, Note_on_c, 9, 36, 120
1, 153479, Note_on_c, 9, 51, 0
1, 153479, Note_on_c, 9, 69, 0
1, 153480, Note_on_c, 9, 69, 57
1, 153599, Note_on_c, 9, 36, 0
1, 153599, Note_on_c, 9, 69, 0
1, 153600, Note_on_c, 9, 51, 81
1, 153600, Note_on_c, 9, 69, 113
1, 153600, Note_on_c, 9, 36, 120
1, 153719, Note_on_c, 9, 51, 0
1, 153719, Note_on_c, 9, 69, 0
1, 153720, Note_on_c, 9, 69, 73
1, 153839, Note_on_c, 9, 69, 0
1, 153840, Note_on_c, 9, 51, 41
1, 153840, Note_on_c, 9, 69, 41
1, 153959, Note_on_c, 9, 51, 0
1, 153959, Note_on_c, 9, 69, 0
1, 153960, Note_on_c, 9, 69, 45
1, 154079, Note_on_c, 9, 36, 0
1, 154079, Note_on_c, 9, 69, 0
1, 154080, Note_on_c, 9, 38, 121
1, 154080, Note_on_c, 9, 54, 113
1, 154080, Note_on_c, 9, 39, 120
1, 154080, Note_on_c, 9, 51, 101
1, 154080, Note_on_c, 9, 69, 101
1, 154199, Note_on_c, 9, 38, 0
1, 154199, Note_on_c, 9, 54, 0
1, 154199, Note_on_c, 9, 39, 0
1, 154199, Note_on_c, 9, 51, 0
1, 154199, Note_on_c, 9, 69, 0
1, 154200, Note_on_c, 9, 69, 65
1, 154319, Note_on_c, 9, 69, 0
1, 154320, Note_on_c, 9, 51, 49
1, 154320, Note_on_c, 9, 69, 33
1, 154320, Note_on_c, 9, 36, 120
1, 154439, Note_on_c, 9, 51, 0
1, 154439, Note_on_c, 9, 69, 0
1, 154440, Note_on_c, 9, 69, 45
1, 154559, Note_on_c, 9, 36, 0
1, 154559, Note_on_c, 9, 69, 0
1, 154560, Note_on_c, 9, 51, 101
1, 154560, Note_on_c, 9, 69, 89
1, 154560, Note_on_c, 9, 36, 120
1, 154679, Note_on_c, 9, 51, 0
1, 154679, Note_on_c, 9, 69, 0
1, 154680, Note_on_c, 9, 69, 57
1, 154799, Note_on_c, 9, 69, 0
1, 154800, Note_on_c, 9, 51, 45
1, 154800, Note_on_c, 9, 69, 45
1, 154919, Note_on_c, 9, 51, 0
1, 154919, Note_on_c, 9, 69, 0
1, 154920, Note_on_c, 9, 69, 45
1, 155039, Note_on_c, 9, 36, 0
1, 155039, Note_on_c, 9, 69, 0
1, 155040, Note_on_c, 9, 38, 121
1, 155040, Note_on_c, 9, 54, 101
1, 155040, Note_on_c, 9, 39, 120
1, 155040, Note_on_c, 9, 51, 101
1, 155040, Note_on_c, 9, 69, 113
1, 155159, Note_on_c, 9, 38, 0
1, 155159, Note_on_c, 9, 54, 0
1, 155159, Note_on_c, 9, 39, 0
1, 155159, Note_on_c, 9, 51, 0
1, 155159, Note_on_c, 9, 69, 0
1, 155160, Note_on_c, 9, 69, 73
1, 155279, Note_on_c, 9, 69, 0
1, 155280, Note_on_c, 9, 51, 45
1, 155280, Note_on_c, 9, 69, 57
1, 155280, Note_on_c, 9, 36, 120
1, 155399, Note_on_c, 9, 51, 0
1, 155399, Note_on_c, 9, 69, 0
1, 155400, Note_on_c, 9, 69, 65
1, 155519, Note_on_c, 9, 36, 0
1, 155519, Note_on_c, 9, 69, 0
1, 155520, Note_on_c, 9, 51, 89
1, 155520, Note_on_c, 9, 69, 113
1, 155520, Note_on_c, 9, 36, 120
1, 155639, Note_on_c, 9, 51, 0
1, 155639, Note_on_c, 9, 69, 0
1, 155640, Note_on_c, 9, 69, 45
1, 155759, Note_on_c, 9, 69, 0
1, 155760, Note_on_c, 9, 51, 41
1, 155760, Note_on_c, 9, 69, 41
1, 155879, Note_on_c, 9, 51, 0
1, 155879, Note_on_c, 9, 69, 0
1, 155880, Note_on_c, 9, 69, 41
1, 155999, Note_on_c, 9, 36, 0
1, 155999, Note_on_c, 9, 69, 0
1, 156000, Note_on_c, 9, 38, 121
1, 156000, Note_on_c, 9, 54, 101
1, 156000, Note_on_c, 9, 39, 120
1, 156000, Note_on_c, 9, 51, 101
1, 156000, Note_on_c, 9, 69, 113
1, 156119, Note_on_c, 9, 38, 0
1, 156119, Note_on_c, 9, 54, 0
1, 156119, Note_on_c, 9, 39, 0
1, 156119, Note_on_c, 9, 51, 0
1, 156119, Note_on_c, 9, 69, 0
1, 156120, Note_on_c, 9, 69, 57
1, 156239, Note_on_c, 9, 69, 0
1, 156240, Note_on_c, 9, 51, 45
1, 156240, Note_on_c, 9, 69, 45
1, 156240, Note_on_c, 9, 36, 120
1, 156359, Note_on_c, 9, 51, 0
1, 156359, Note_on_c, 9, 69, 0
1, 156360, Note_on_c, 9, 69, 49
1, 156479, Note_on_c, 9, 36, 0
1, 156479, Note_on_c, 9, 69, 0
1, 156480, Note_on_c, 9, 51, 89
1, 156480, Note_on_c, 9, 69, 101
1, 156480, Note_on_c, 9, 36, 120
1, 156599, Note_on_c, 9, 51, 0
1, 156599, Note_on_c, 9, 69, 0
1, 156600, Note_on_c, 9, 69, 65
1, 156719, Note_on_c, 9, 69, 0
1, 156720, Note_on_c, 9, 51, 41
1, 156720, Note_on_c, 9, 69, 49
1, 156839, Note_on_c, 9, 51, 0
1, 156839, Note_on_c, 9, 69, 0
1, 156840, Note_on_c, 9, 69, 73
1, 156959, Note_on_c, 9, 36, 0
1, 156959, Note_on_c, 9, 69, 0
1, 156960, Note_on_c, 9, 38, 127
1, 156960, Note_on_c, 9, 54, 101
1, 156960, Note_on_c, 9, 39, 120
1, 156960, Note_on_c, 9, 51, 101
1, 156960, Note_on_c, 9, 69, 113
1, 157079, Note_on_c, 9, 38, 0
1, 157079, Note_on_c, 9, 54, 0
1, 157079, Note_on_c, 9, 39, 0
1, 157079, Note_on_c, 9, 51, 0
1, 157079, Note_on_c, 9, 69, 0
1, 157080, Note_on_c, 9, 69, 65
1, 157199, Note_on_c, 9, 69, 0
1, 157200, Note_on_c, 9, 51, 45
1, 157200, Note_on_c, 9, 69, 57
1, 157200, Note_on_c, 9, 36, 120
1, 157319, Note_on_c, 9, 51, 0
1, 157319, Note_on_c, 9, 69, 0
1, 157320, Note_on_c, 9, 69, 73
1, 157439, Note_on_c, 9, 36, 0
1, 157439, Note_on_c, 9, 69, 0
1, 157440, Note_on_c, 9, 51, 81
1, 157440, Note_on_c, 9, 69, 101
1, 157440, Note_on_c, 9, 36, 120
1, 157559, Note_on_c, 9, 51, 0
1, 157559, Note_on_c, 9, 69, 0
1, 157560, Note_on_c, 9, 69, 49
1, 157679, Note_on_c, 9, 69, 0
1, 157680, Note_on_c, 9, 51, 57
1, 157680, Note_on_c, 9, 69, 45
1, 157799, Note_on_c, 9, 51, 0
1, 157799, Note_on_c, 9, 69, 0
1, 157800, Note_on_c, 9, 69, 41
1, 157919, Note_on_c, 9, 36, 0
1, 157919, Note_on_c, 9, 69, 0
1, 157920, Note_on_c, 9, 38, 121
1, 157920, Note_on_c, 9, 54, 113
1, 157920, Note_on_c, 9, 39, 120
1, 157920, Note_on_c, 9, 51, 89
1, 157920, Note_on_c, 9, 69, 113
1, 158039, Note_on_c, 9, 38, 0
1, 158039, Note_on_c, 9, 54, 0
1, 158039, Note_on_c, 9, 39, 0
1, 158039, Note_on_c, 9, 51, 0
1, 158039, Note_on_c, 9, 69, 0
1, 158040, Note_on_c, 9, 69, 65
1, 158159, Note_on_c, 9, 69, 0
1, 158160, Note_on_c, 9, 51, 45
1, 158160, Note_on_c, 9, 69, 41
1, 158160, Note_on_c, 9, 36, 120
1, 158279, Note_on_c, 9, 51, 0
1, 158279, Note_on_c, 9, 69, 0
1, 158280, Note_on_c, 9, 69, 41
1, 158399, Note_on_c, 9, 36, 0
1, 158399, Note_on_c, 9, 69, 0
1, 158400, Note_on_c, 9, 51, 89
1, 158400, Note_on_c, 9, 69, 113
1, 158400, Note_on_c, 9, 36, 120
1, 158519, Note_on_c, 9, 51, 0
1, 158519, Note_on_c, 9, 69, 0
1, 158520, Note_on_c, 9, 69, 49
1, 158639, Note_on_c, 9, 69, 0
1, 158640, Note_on_c, 9, 51, 45
1, 158640, Note_on_c, 9, 69, 37
1, 158759, Note_on_c, 9, 51, 0
1, 158759, Note_on_c, 9, 69, 0
1, 158760, Note_on_c, 9, 69, 41
1, 158879, Note_on_c, 9, 36, 0
1, 158879, Note_on_c, 9, 69, 0
1, 158880, Note_on_c, 9, 38, 121
1, 158880, Note_on_c, 9, 54, 101
1, 158880, Note_on_c, 9, 39, 120
1, 158880, Note_on_c, 9, 51, 89
1, 158880, Note_on_c, 9, 69, 113
1, 158999, Note_on_c, 9, 38, 0
1, 158999, Note_on_c, 9, 54, 0
1, 158999, Note_on_c, 9, 39, 0
1, 158999, Note_on_c, 9, 51, 0
1, 158999, Note_on_c, 9, 69, 0
1, 159000, Note_on_c, 9, 69, 57
1, 159119, Note_on_c, 9, 69, 0
1, 159120, Note_on_c, 9, 51, 45
1, 159120, Note_on_c, 9, 69, 37
1, 159120, Note_on_c, 9, 36, 120
1, 159239, Note_on_c, 9, 51, 0
1, 159239, Note_on_c, 9, 69, 0
1, 159240, Note_on_c, 9, 69, 45
1, 159359, Note_on_c, 9, 36, 0
1, 159359, Note_on_c, 9, 69, 0
1, 159360, Note_on_c, 9, 51, 101
1, 159360, Note_on_c, 9, 69, 101
1, 159360, Note_on_c, 9, 36, 120
1, 159479, Note_on_c, 9, 51, 0
1, 159479, Note_on_c, 9, 69, 0
1, 159480, Note_on_c, 9, 69, 45
1, 159599, Note_on_c, 9, 69, 0
1, 159600, Note_on_c, 9, 51, 45
1, 159600, Note_on_c, 9, 69, 41
1, 159719, Note_on_c, 9, 51, 0
1, 159719, Note_on_c, 9, 69, 0
1, 159720, Note_on_c, 9, 69, 41
1, 159839, Note_on_c, 9, 36, 0
1, 159839, Note_on_c, 9, 69, 0
1, 159840, Note_on_c, 9, 38, 120
1, 159840, Note_on_c, 9, 54, 89
1, 159840, Note_on_c, 9, 39, 120
1, 159840, Note_on_c, 9, 51, 113
1, 159840, Note_on_c, 9, 69, 113
1, 159959, Note_on_c, 9, 38, 0
1, 159959, Note_on_c, 9, 54, 0
1, 159959, Note_on_c, 9, 39, 0
1, 159959, Note_on_c, 9, 51, 0
1, 159959, Note_on_c, 9, 69, 0
1, 159960, Note_on_c, 9, 69, 45
1, 160079, Note_on_c, 9, 69, 0
1, 160080, Note_on_c, 9, 51, 41
1, 160080, Note_on_c, 9, 69, 45
1, 160080, Note_on_c, 9, 36, 120
1, 160199, Note_on_c, 9, 51, 0
1, 160199, Note_on_c, 9, 69, 0
1, 160200, Note_on_c, 9, 69, 41
1, 160319, Note_on_c, 9, 36, 0
1, 160319, Note_on_c, 9, 69, 0
1, 160320, Note_on_c, 9, 51, 101
1, 160320, Note_on_c, 9, 69, 113
1, 160320, Note_on_c, 9, 36, 120
1, 160439, Note_on_c, 9, 51, 0
1, 160439, Note_on_c, 9, 69, 0
1, 160440, Note_on_c, 9, 69, 57
1, 160559, Note_on_c, 9, 69, 0
1, 160560, Note_on_c, 9, 51, 37
1, 160560, Note_on_c, 9, 69, 45
1, 160679, Note_on_c, 9, 51, 0
1, 160679, Note_on_c, 9, 69, 0
1, 160680, Note_on_c, 9, 69, 45
1, 160799, Note_on_c, 9, 36, 0
1, 160799, Note_on_c, 9, 69, 0
1, 160800, Note_on_c, 9, 38, 120
1, 160800, Note_on_c, 9, 54, 113
1, 160800, Note_on_c, 9, 39, 120
1, 160800, Note_on_c, 9, 51, 101
1, 160800, Note_on_c, 9, 69, 101
1, 160919, Note_on_c, 9, 38, 0
1, 160919, Note_on_c, 9, 54, 0
1, 160919, Note_on_c, 9, 39, 0
1, 160919, Note_on_c, 9, 51, 0
1, 160919, Note_on_c, 9, 69, 0
1, 160920, Note_on_c, 9, 69, 57
1, 161039, Note_on_c, 9, 69, 0
1, 161040, Note_on_c, 9, 51, 41
1, 161040, Note_on_c, 9, 69, 41
1, 161040, Note_on_c, 9, 36, 120
1, 161159, Note_on_c, 9, 51, 0
1, 161159, Note_on_c, 9, 69, 0
1, 161160, Note_on_c, 9, 69, 57
1, 161279, Note_on_c, 9, 36, 0
1, 161279, Note_on_c, 9, 69, 0
1, 161280, Note_on_c, 9, 51, 81
1, 161280, Note_on_c, 9, 69, 113
1, 161280, Note_on_c, 9, 36, 120
1, 161399, Note_on_c, 9, 51, 0
1, 161399, Note_on_c, 9, 69, 0
1, 161400, Note_on_c, 9, 69, 73
1, 161519, Note_on_c, 9, 69, 0
1, 161520, Note_on_c, 9, 51, 41
1, 161520, Note_on_c, 9, 69, 41
1, 161639, Note_on_c, 9, 51, 0
1, 161639, Note_on_c, 9, 69, 0
1, 161640, Note_on_c, 9, 69, 45
1, 161759, Note_on_c, 9, 36, 0
1, 161759, Note_on_c, 9, 69, 0
1, 161760, Note_on_c, 9, 38, 121
1, 161760, Note_on_c, 9, 54, 113
1, 161760, Note_on_c, 9, 39, 120
1, 161760, Note_on_c, 9, 51, 101
1, 161760, Note_on_c, 9, 69, 101
1, 161879, Note_on_c, 9, 38, 0
1, 161879, Note_on_c, 9, 54, 0
1, 161879, Note_on_c, 9, 39, 0
1, 161879, Note_on_c, 9, 51, 0
1, 161879, Note_on_c, 9, 69, 0
1, 161880, Note_on_c, 9, 69, 65
1, 161999, Note_on_c, 9, 69, 0
1, 162000, Note_on_c, 9, 51, 49
1, 162000, Note_on_c, 9, 69, 33
1, 162000, Note_on_c, 9, 36, 120
1, 162119, Note_on_c, 9, 51, 0
1, 162119, Note_on_c, 9, 69, 0
1, 162120, Note_on_c, 9, 69, 45
1, 162239, Note_on_c, 9, 36, 0
1, 162239, Note_on_c, 9, 69, 0
1, 162240, Note_on_c, 9, 51, 101
1, 162240, Note_on_c, 9, 69, 89
1, 162240, Note_on_c, 9, 36, 120
1, 162359, Note_on_c, 9, 51, 0
1, 162359, Note_on_c, 9, 69, 0
1, 162360, Note_on_c, 9, 69, 57
1, 162479, Note_on_c, 9, 69, 0
1, 162480, Note_on_c, 9, 51, 45
1, 162480, Note_on_c, 9, 69, 45
1, 162599, Note_on_c, 9, 51, 0
1, 162599, Note_on_c, 9, 69, 0
1, 162600, Note_on_c, 9, 69, 45
1, 162719, Note_on_c, 9, 36, 0
1, 162719, Note_on_c, 9, 69, 0
1, 162720, Note_on_c, 9, 38, 121
1, 162720, Note_on_c, 9, 54, 101
1, 162720, Note_on_c, 9, 39, 120
1, 162720, Note_on_c, 9, 51, 101
1, 162720, Note_on_c, 9, 69, 113
1, 162839, Note_on_c, 9, 38, 0
1, 162839, Note_on_c, 9, 54, 0
1, 162839, Note_on_c, 9, 39, 0
1, 162839, Note_on_c, 9, 51, 0
1, 162839, Note_on_c, 9, 69, 0
1, 162840, Note_on_c, 9, 69, 73
1, 162959, Note_on_c, 9, 69, 0
1, 162960, Note_on_c, 9, 51, 45
1, 162960, Note_on_c, 9, 69, 57
1, 162960, Note_on_c, 9, 36, 120
1, 163079, Note_on_c, 9, 51, 0
1, 163079, Note_on_c, 9, 69, 0
1, 163080, Note_on_c, 9, 69, 65
1, 163199, Note_on_c, 9, 36, 0
1, 163199, Note_on_c, 9, 69, 0
1, 163200, Note_on_c, 9, 51, 89
1, 163200, Note_on_c, 9, 69, 113
1, 163200, Note_on_c, 9, 36, 120
1, 163319, Note_on_c, 9, 51, 0
1, 163319, Note_on_c, 9, 69, 0
1, 163320, Note_on_c, 9, 69, 45
1, 163439, Note_on_c, 9, 69, 0
1, 163440, Note_on_c, 9, 51, 41
1, 163440, Note_on_c, 9, 69, 41
1, 163559, Note_on_c, 9, 51, 0
1, 163559, Note_on_c, 9, 69, 0
1, 163560, Note_on_c, 9, 69, 41
1, 163679, Note_on_c, 9, 36, 0
1, 163679, Note_on_c, 9, 69, 0
1, 163680, Note_on_c, 9, 38, 121
1, 163680, Note_on_c, 9, 54, 125
1, 163680, Note_on_c, 9, 39, 120
1, 163680, Note_on_c, 9, 51, 101
1, 163680, Note_on_c, 9, 69, 113
1, 163799, Note_on_c, 9, 38, 0
1, 163799, Note_on_c, 9, 54, 0
1, 163799, Note_on_c, 9, 39, 0
1, 163799, Note_on_c, 9, 51, 0
1, 163799, Note_on_c, 9, 69, 0
1, 163800, Note_on_c, 9, 69, 57
1, 163919, Note_on_c, 9, 69, 0
1, 163920, Note_on_c, 9, 51, 45
1, 163920, Note_on_c, 9, 69, 45
1, 163920, Note_on_c, 9, 36, 120
1, 164039, Note_on_c, 9, 51, 0
1, 164039, Note_on_c, 9, 69, 0
1, 164040, Note_on_c, 9, 69, 49
1, 164159, Note_on_c, 9, 36, 0
1, 164159, Note_on_c, 9, 69, 0
1, 164160, Note_on_c, 9, 38, 121
1, 164160, Note_on_c, 9, 51, 89
1, 164160, Note_on_c, 9, 69, 101
1, 164160, Note_on_c, 9, 36, 120
1, 164279, Note_on_c, 9, 38, 0
1, 164279, Note_on_c, 9, 51, 0
1, 164279, Note_on_c, 9, 69, 0
1, 164280, Note_on_c, 9, 69, 65
1, 164399, Note_on_c, 9, 69, 0
1, 164400, Note_on_c, 9, 51, 41
1, 164400, Note_on_c, 9, 69, 49
1, 164519, Note_on_c, 9, 51, 0
1, 164519, Note_on_c, 9, 69, 0
1, 164520, Note_on_c, 9, 38, 121
1, 164520, Note_on_c, 9, 69, 73
1, 164639, Note_on_c, 9, 36, 0
1, 164639, Note_on_c, 9, 38, 0
1, 164639, Note_on_c, 9, 69, 0
1, 164640, Note_on_c, 9, 38, 121
1, 164640, Note_on_c, 9, 54, 113
1, 164640, Note_on_c, 9, 39, 120
1, 164640, Note_on_c, 9, 51, 101
1, 164640, Note_on_c, 9, 69, 113
1, 164759, Note_on_c, 9, 38, 0
1, 164759, Note_on_c, 9, 54, 0
1, 164759, Note_on_c, 9, 39, 0
1, 164759, Note_on_c, 9, 51, 0
1, 164759, Note_on_c, 9, 69, 0
1, 164760, Note_on_c, 9, 69, 65
1, 164879, Note_on_c, 9, 69, 0
1, 164880, Note_on_c, 9, 38, 127
1, 164880, Note_on_c, 9, 51, 45
1, 164880, Note_on_c, 9, 69, 57
1, 164880, Note_on_c, 9, 36, 120
1, 164999, Note_on_c, 9, 38, 0
1, 164999, Note_on_c, 9, 51, 0
1, 164999, Note_on_c, 9, 69, 0
1, 165000, Note_on_c, 9, 69, 73
1, 165119, Note_on_c, 9, 36, 0
1, 165119, Note_on_c, 9, 69, 0
1, 165120, Note_on_c, 9, 51, 81
1, 165120, Note_on_c, 9, 69, 101
1, 165120, Note_on_c, 9, 36, 120
1, 165239, Note_on_c, 9, 51, 0
1, 165239, Note_on_c, 9, 69, 0
1, 165240, Note_on_c, 9, 69, 49
1, 165359, Note_on_c, 9, 69, 0
1, 165360, Note_on_c, 9, 51, 57
1, 165360, Note_on_c, 9, 69, 45
1, 165479, Note_on_c, 9, 51, 0
1, 165479, Note_on_c, 9, 69, 0
1, 165480, Note_on_c, 9, 69, 41
1, 165599, Note_on_c, 9, 36, 0
1, 165599, Note_on_c, 9, 69, 0
1, 165600, Note_on_c, 9, 38, 121
1, 165600, Note_on_c, 9, 54, 125
1, 165600, Note_on_c, 9, 39, 120
1, 165600, Note_on_c, 9, 51, 89
1, 165600, Note_on_c, 9, 69, 113
1, 165719, Note_on_c, 9, 38, 0
1, 165719, Note_on_c, 9, 54, 0
1, 165719, Note_on_c, 9, 39, 0
1, 165719, Note_on_c, 9, 51, 0
1, 165719, Note_on_c, 9, 69, 0
1, 165720, Note_on_c, 9, 69, 65
1, 165839, Note_on_c, 9, 69, 0
1, 165840, Note_on_c, 9, 51, 45
1, 165840, Note_on_c, 9, 69, 41
1, 165840, Note_on_c, 9, 36, 120
1, 165959, Note_on_c, 9, 51, 0
1, 165959, Note_on_c, 9, 69, 0
1, 165960, Note_on_c, 9, 69, 41
1, 166079, Note_on_c, 9, 36, 0
1, 166079, Note_on_c, 9, 69, 0
1, 166080, Note_on_c, 9, 51, 89
1, 166080, Note_on_c, 9, 69, 113
1, 166080, Note_on_c, 9, 36, 120
1, 166199, Note_on_c, 9, 51, 0
1, 166199, Note_on_c, 9, 69, 0
1, 166200, Note_on_c, 9, 69, 49
1, 166319, Note_on_c, 9, 69, 0
1, 166320, Note_on_c, 9, 51, 45
1, 166320, Note_on_c, 9, 69, 37
1, 166439, Note_on_c, 9, 51, 0
1, 166439, Note_on_c, 9, 69, 0
1, 166440, Note_on_c, 9, 69, 41
1, 166559, Note_on_c, 9, 36, 0
1, 166559, Note_on_c, 9, 69, 0
1, 166560, Note_on_c, 9, 38, 121
1, 166560, Note_on_c, 9, 54, 125
1, 166560, Note_on_c, 9, 39, 120
1, 166560, Note_on_c, 9, 51, 89
1, 166560, Note_on_c, 9, 69, 113
1, 166679, Note_on_c, 9, 38, 0
1, 166679, Note_on_c, 9, 54, 0
1, 166679, Note_on_c, 9, 39, 0
1, 166679, Note_on_c, 9, 51, 0
1, 166679, Note_on_c, 9, 69, 0
1, 166680, Note_on_c, 9, 69, 57
1, 166799, Note_on_c, 9, 69, 0
1, 166800, Note_on_c, 9, 51, 45
1, 166800, Note_on_c, 9, 69, 37
1, 166800, Note_on_c, 9, 36, 120
1, 166919, Note_on_c, 9, 51, 0
1, 166919, Note_on_c, 9, 69, 0
1, 166920, Note_on_c, 9, 69, 45
1, 167039, Note_on_c, 9, 36, 0
1, 167039, Note_on_c, 9, 69, 0
1, 167040, Note_on_c, 9, 51, 101
1, 167040, Note_on_c, 9, 69, 101
1, 167040, Note_on_c, 9, 36, 120
1, 167159, Note_on_c, 9, 51, 0
1, 167159, Note_on_c, 9, 69, 0
1, 167160, Note_on_c, 9, 69, 45
1, 167279, Note_on_c, 9, 69, 0
1, 167280, Note_on_c, 9, 51, 45
1, 167280, Note_on_c, 9, 69, 41
1, 167399, Note_on_c, 9, 51, 0
1, 167399, Note_on_c, 9, 69, 0
1, 167400, Note_on_c, 9, 69, 41
1, 167519, Note_on_c, 9, 36, 0
1, 167519, Note_on_c, 9, 69, 0
1, 167520, Note_on_c, 9, 38, 120
1, 167520, Note_on_c, 9, 54, 113
1, 167520, Note_on_c, 9, 39, 120
1, 167520, Note_on_c, 9, 51, 113
1, 167520, Note_on_c, 9, 69, 113
1, 167639, Note_on_c, 9, 38, 0
1, 167639, Note_on_c, 9, 54, 0
1, 167639, Note_on_c, 9, 39, 0
1, 167639, Note_on_c, 9, 51, 0
1, 167639, Note_on_c, 9, 69, 0
1, 167640, Note_on_c, 9, 69, 45
1, 167759, Note_on_c, 9, 69, 0
1, 167760, Note_on_c, 9, 51, 41
1, 167760, Note_on_c, 9, 69, 45
1, 167760, Note_on_c, 9, 36, 120
1, 167879, Note_on_c, 9, 51, 0
1, 167879, Note_on_c, 9, 69, 0
1, 167880, Note_on_c, 9, 69, 41
1, 167999, Note_on_c, 9, 36, 0
1, 167999, Note_on_c, 9, 69, 0
1, 168000, Note_on_c, 9, 51, 101
1, 168000, Note_on_c, 9, 69, 113
1, 168000, Note_on_c, 9, 36, 120
1, 168119, Note_on_c, 9, 51, 0
1, 168119, Note_on_c, 9, 69, 0
1, 168120, Note_on_c, 9, 69, 57
1, 168239, Note_on_c, 9, 69, 0
1, 168240, Note_on_c, 9, 51, 37
1, 168240, Note_on_c, 9, 69, 45
1, 168359, Note_on_c, 9, 51, 0
1, 168359, Note_on_c, 9, 69, 0
1, 168360, Note_on_c, 9, 69, 45
1, 168479, Note_on_c, 9, 36, 0
1, 168479, Note_on_c, 9, 69, 0
1, 168480, Note_on_c, 9, 38, 120
1, 168480, Note_on_c, 9, 54, 113
1, 168480, Note_on_c, 9, 39, 120
1, 168480, Note_on_c, 9, 51, 101
1, 168480, Note_on_c, 9, 69, 101
1, 168599, Note_on_c, 9, 38, 0
1, 168599, Note_on_c, 9, 54, 0
1, 168599, Note_on_c, 9, 39, 0
1, 168599, Note_on_c, 9, 51, 0
1, 168599, Note_on_c, 9, 69, 0
1, 168600, Note_on_c, 9, 69, 57
1, 168719, Note_on_c, 9, 69, 0
1, 168720, Note_on_c, 9, 51, 41
1, 168720, Note_on_c, 9, 69, 41
1, 168720, Note_on_c, 9, 36, 120
1, 168839, Note_on_c, 9, 51, 0
1, 168839, Note_on_c, 9, 69, 0
1, 168840, Note_on_c, 9, 69, 57
1, 168959, Note_on_c, 9, 36, 0
1, 168959, Note_on_c, 9, 69, 0
1, 168960, Note_on_c, 9, 51, 81
1, 168960, Note_on_c, 9, 69, 101
1, 168960, Note_on_c, 9, 36, 120
1, 169079, Note_on_c, 9, 51, 0
1, 169079, Note_on_c, 9, 69, 0
1, 169080, Note_on_c, 9, 69, 49
1, 169199, Note_on_c, 9, 69, 0
1, 169200, Note_on_c, 9, 51, 41
1, 169200, Note_on_c, 9, 69, 45
1, 169319, Note_on_c, 9, 51, 0
1, 169319, Note_on_c, 9, 69, 0
1, 169320, Note_on_c, 9, 69, 41
1, 169439, Note_on_c, 9, 36, 0
1, 169439, Note_on_c, 9, 69, 0
1, 169440, Note_on_c, 9, 38, 121
1, 169440, Note_on_c, 9, 54, 125
1, 169440, Note_on_c, 9, 39, 120
1, 169440, Note_on_c, 9, 51, 101
1, 169440, Note_on_c, 9, 69, 113
1, 169559, Note_on_c, 9, 38, 0
1, 169559, Note_on_c, 9, 54, 0
1, 169559, Note_on_c, 9, 39, 0
1, 169559, Note_on_c, 9, 51, 0
1, 169559, Note_on_c, 9, 69, 0
1, 169560, Note_on_c, 9, 69, 65
1, 169679, Note_on_c, 9, 69, 0
1, 169680, Note_on_c, 9, 51, 49
1, 169680, Note_on_c, 9, 69, 41
1, 169680, Note_on_c, 9, 36, 120
1, 169799, Note_on_c, 9, 51, 0
1, 169799, Note_on_c, 9, 69, 0
1, 169800, Note_on_c, 9, 69, 41
1, 169919, Note_on_c, 9, 36, 0
1, 169919, Note_on_c, 9, 69, 0
1, 169920, Note_on_c, 9, 51, 101
1, 169920, Note_on_c, 9, 69, 113
1, 169920, Note_on_c, 9, 36, 120
1, 170039, Note_on_c, 9, 51, 0
1, 170039, Note_on_c, 9, 69, 0
1, 170040, Note_on_c, 9, 69, 49
1, 170159, Note_on_c, 9, 69, 0
1, 170160, Note_on_c, 9, 51, 45
1, 170160, Note_on_c, 9, 69, 37
1, 170279, Note_on_c, 9, 51, 0
1, 170279, Note_on_c, 9, 69, 0
1, 170280, Note_on_c, 9, 69, 41
1, 170399, Note_on_c, 9, 36, 0
1, 170399, Note_on_c, 9, 69, 0
1, 170400, Note_on_c, 9, 38, 121
1, 170400, Note_on_c, 9, 54, 125
1, 170400, Note_on_c, 9, 39, 120
1, 170400, Note_on_c, 9, 51, 101
1, 170400, Note_on_c, 9, 69, 113
1, 170519, Note_on_c, 9, 38, 0
1, 170519, Note_on_c, 9, 54, 0
1, 170519, Note_on_c, 9, 39, 0
1, 170519, Note_on_c, 9, 51, 0
1, 170519, Note_on_c, 9, 69, 0
1, 170520, Note_on_c, 9, 69, 57
1, 170639, Note_on_c, 9, 69, 0
1, 170640, Note_on_c, 9, 51, 45
1, 170640, Note_on_c, 9, 69, 37
1, 170640, Note_on_c, 9, 36, 120
1, 170759, Note_on_c, 9, 51, 0
1, 170759, Note_on_c, 9, 69, 0
1, 170760, Note_on_c, 9, 69, 45
1, 170879, Note_on_c, 9, 36, 0
1, 170879, Note_on_c, 9, 69, 0
1, 170880, Note_on_c, 9, 51, 89
1, 170880, Note_on_c, 9, 69, 101
1, 170880, Note_on_c, 9, 36, 120
1, 170999, Note_on_c, 9, 51, 0
1, 170999, Note_on_c, 9, 69, 0
1, 171000, Note_on_c, 9, 69, 45
1, 171119, Note_on_c, 9, 69, 0
1, 171120, Note_on_c, 9, 51, 41
1, 171120, Note_on_c, 9, 69, 41
1, 171239, Note_on_c, 9, 51, 0
1, 171239, Note_on_c, 9, 69, 0
1, 171240, Note_on_c, 9, 69, 41
1, 171359, Note_on_c, 9, 36, 0
1, 171359, Note_on_c, 9, 69, 0
1, 171360, Note_on_c, 9, 38, 120
1, 171360, Note_on_c, 9, 54, 113
1, 171360, Note_on_c, 9, 39, 120
1, 171360, Note_on_c, 9, 51, 101
1, 171360, Note_on_c, 9, 69, 113
1, 171479, Note_on_c, 9, 38, 0
1, 171479, Note_on_c, 9, 54, 0
1, 171479, Note_on_c, 9, 39, 0
1, 171479, Note_on_c, 9, 51, 0
1, 171479, Note_on_c, 9, 69, 0
1, 171480, Note_on_c, 9, 69, 45
1, 171599, Note_on_c, 9, 69, 0
1, 171600, Note_on_c, 9, 51, 45
1, 171600, Note_on_c, 9, 69, 45
1, 171600, Note_on_c, 9, 36, 120
1, 171719, Note_on_c, 9, 51, 0
1, 171719, Note_on_c, 9, 69, 0
1, 171720, Note_on_c, 9, 69, 41
1, 171839, Note_on_c, 9, 36, 0
1, 171839, Note_on_c, 9, 69, 0
1, 171840, Note_on_c, 9, 51, 89
1, 171840, Note_on_c, 9, 69, 113
1, 171840, Note_on_c, 9, 36, 120
1, 171959, Note_on_c, 9, 51, 0
1, 171959, Note_on_c, 9, 69, 0
1, 171960, Note_on_c, 9, 69, 57
1, 172079, Note_on_c, 9, 69, 0
1, 172080, Note_on_c, 9, 51, 41
1, 172080, Note_on_c, 9, 69, 45
1, 172199, Note_on_c, 9, 51, 0
1, 172199, Note_on_c, 9, 69, 0
1, 172200, Note_on_c, 9, 69, 45
1, 172319, Note_on_c, 9, 36, 0
1, 172319, Note_on_c, 9, 69, 0
1, 172320, Note_on_c, 9, 38, 120
1, 172320, Note_on_c, 9, 54, 113
1, 172320, Note_on_c, 9, 39, 120
1, 172320, Note_on_c, 9, 51, 101
1, 172320, Note_on_c, 9, 69, 101
1, 172439, Note_on_c, 9, 38, 0
1, 172439, Note_on_c, 9, 54, 0
1, 172439, Note_on_c, 9, 39, 0
1, 172439, Note_on_c, 9, 51, 0
1, 172439, Note_on_c, 9, 69, 0
1, 172440, Note_on_c, 9, 69, 57
1, 172559, Note_on_c, 9, 69, 0
1, 172560, Note_on_c, 9, 51, 45
1, 172560, Note_on_c, 9, 69, 41
1, 172560, Note_on_c, 9, 36, 120
1, 172679, Note_on_c, 9, 51, 0
1, 172679, Note_on_c, 9, 69, 0
1, 172680, Note_on_c, 9, 69, 57
1, 172799, Note_on_c, 9, 36, 0
1, 172799, Note_on_c, 9, 69, 0
1, 172800, Note_on_c, 9, 51, 81
1, 172800, Note_on_c, 9, 69, 101
1, 172800, Note_on_c, 9, 36, 120
1, 172919, Note_on_c, 9, 51, 0
1, 172919, Note_on_c, 9, 69, 0
1, 172920, Note_on_c, 9, 69, 49
1, 173039, Note_on_c, 9, 69, 0
1, 173040, Note_on_c, 9, 51, 57
1, 173040, Note_on_c, 9, 69, 45
1, 173159, Note_on_c, 9, 51, 0
1, 173159, Note_on_c, 9, 69, 0
1, 173160, Note_on_c, 9, 69, 41
1, 173279, Note_on_c, 9, 36, 0
1, 173279, Note_on_c, 9, 69, 0
1, 173280, Note_on_c, 9, 38, 121
1, 173280, Note_on_c, 9, 54, 125
1, 173280, Note_on_c, 9, 39, 120
1, 173280, Note_on_c, 9, 51, 89
1, 173280, Note_on_c, 9, 69, 113
1, 173399, Note_on_c, 9, 38, 0
1, 173399, Note_on_c, 9, 54, 0
1, 173399, Note_on_c, 9, 39, 0
1, 173399, Note_on_c, 9, 51, 0
1, 173399, Note_on_c, 9, 69, 0
1, 173400, Note_on_c, 9, 69, 65
1, 173519, Note_on_c, 9, 69, 0
1, 173520, Note_on_c, 9, 51, 45
1, 173520, Note_on_c, 9, 69, 41
1, 173520, Note_on_c, 9, 36, 120
1, 173639, Note_on_c, 9, 51, 0
1, 173639, Note_on_c, 9, 69, 0
1, 173640, Note_on_c, 9, 69, 41
1, 173759, Note_on_c, 9, 36, 0
1, 173759, Note_on_c, 9, 69, 0
1, 173760, Note_on_c, 9, 51, 89
1, 173760, Note_on_c, 9, 69, 113
1, 173760, Note_on_c, 9, 36, 120
1, 173879, Note_on_c, 9, 51, 0
1, 173879, Note_on_c, 9, 69, 0
1, 173880, Note_on_c, 9, 69, 49
1, 173999, Note_on_c, 9, 69, 0
1, 174000, Note_on_c, 9, 51, 45
1, 174000, Note_on_c, 9, 69, 37
1, 174119, Note_on_c, 9, 51, 0
1, 174119, Note_on_c, 9, 69, 0
1, 174120, Note_on_c, 9, 69, 41
1, 174239, Note_on_c, 9, 36, 0
1, 174239, Note_on_c, 9, 69, 0
1, 174240, Note_on_c, 9, 38, 121
1, 174240, Note_on_c, 9, 54, 125
1, 174240, Note_on_c, 9, 39, 120
1, 174240, Note_on_c, 9, 51, 89
1, 174240, Note_on_c, 9, 69, 113
1, 174359, Note_on_c, 9, 38, 0
1, 174359, Note_on_c, 9, 54, 0
1, 174359, Note_on_c, 9, 39, 0
1, 174359, Note_on_c, 9, 51, 0
1, 174359, Note_on_c, 9, 69, 0
1, 174360, Note_on_c, 9, 69, 57
1, 174479, Note_on_c, 9, 69, 0
1, 174480, Note_on_c, 9, 51, 45
1, 174480, Note_on_c, 9, 69, 37
1, 174480, Note_on_c, 9, 36, 120
1, 174599, Note_on_c, 9, 51, 0
1, 174599, Note_on_c, 9, 69, 0
1, 174600, Note_on_c, 9, 69, 45
1, 174719, Note_on_c, 9, 36, 0
1, 174719, Note_on_c, 9, 69, 0
1, 174720, Note_on_c, 9, 51, 101
1, 174720, Note_on_c, 9, 69, 101
1, 174720, Note_on_c, 9, 36, 120
1, 174839, Note_on_c, 9, 51, 0
1, 174839, Note_on_c, 9, 69, 0
1, 174840, Note_on_c, 9, 69, 45
1, 174959, Note_on_c, 9, 69, 0
1, 174960, Note_on_c, 9, 51, 45
1, 174960, Note_on_c, 9, 69, 41
1, 175079, Note_on_c, 9, 51, 0
1, 175079, Note_on_c, 9, 69, 0
1, 175080, Note_on_c, 9, 69, 41
1, 175199, Note_on_c, 9, 36, 0
1, 175199, Note_on_c, 9, 69, 0
1, 175200, Note_on_c, 9, 38, 121
1, 175200, Note_on_c, 9, 54, 113
1, 175200, Note_on_c, 9, 39, 120
1, 175200, Note_on_c, 9, 51, 113
1, 175200, Note_on_c, 9, 69, 113
1, 175319, Note_on_c, 9, 38, 0
1, 175319, Note_on_c, 9, 54, 0
1, 175319, Note_on_c, 9, 39, 0
1, 175319, Note_on_c, 9, 51, 0
1, 175319, Note_on_c, 9, 69, 0
1, 175320, Note_on_c, 9, 69, 45
1, 175439, Note_on_c, 9, 69, 0
1, 175440, Note_on_c, 9, 51, 41
1, 175440, Note_on_c, 9, 69, 45
1, 175440, Note_on_c, 9, 36, 120
1, 175559, Note_on_c, 9, 51, 0
1, 175559, Note_on_c, 9, 69, 0
1, 175560, Note_on_c, 9, 69, 41
1, 175679, Note_on_c, 9, 36, 0
1, 175679, Note_on_c, 9, 69, 0
1, 175680, Note_on_c, 9, 51, 101
1, 175680, Note_on_c, 9, 69, 113
1, 175680, Note_on_c, 9, 36, 120
1, 175799, Note_on_c, 9, 51, 0
1, 175799, Note_on_c, 9, 69, 0
1, 175800, Note_on_c, 9, 69, 57
1, 175919, Note_on_c, 9, 69, 0
1, 175920, Note_on_c, 9, 51, 37
1, 175920, Note_on_c, 9, 69, 45
1, 176039, Note_on_c, 9, 51, 0
1, 176039, Note_on_c, 9, 69, 0
1, 176040, Note_on_c, 9, 69, 45
1, 176159, Note_on_c, 9, 36, 0
1, 176159, Note_on_c, 9, 69, 0
1, 176160, Note_on_c, 9, 38, 121
1, 176160, Note_on_c, 9, 54, 113
1, 176160, Note_on_c, 9, 39, 120
1, 176160, Note_on_c, 9, 51, 101
1, 176160, Note_on_c, 9, 69, 101
1, 176279, Note_on_c, 9, 38, 0
1, 176279, Note_on_c, 9, 54, 0
1, 176279, Note_on_c, 9, 39, 0
1, 176279, Note_on_c, 9, 51, 0
1, 176279, Note_on_c, 9, 69, 0
1, 176280, Note_on_c, 9, 69, 57
1, 176399, Note_on_c, 9, 69, 0
1, 176400, Note_on_c, 9, 51, 41
1, 176400, Note_on_c, 9, 69, 41
1, 176400, Note_on_c, 9, 36, 120
1, 176519, Note_on_c, 9, 51, 0
1, 176519, Note_on_c, 9, 69, 0
1, 176520, Note_on_c, 9, 69, 57
1, 176639, Note_on_c, 9, 36, 0
1, 176639, Note_on_c, 9, 69, 0
1, 176640, Note_on_c, 9, 51, 81
1, 176640, Note_on_c, 9, 69, 101
1, 176640, Note_on_c, 9, 36, 120
1, 176759, Note_on_c, 9, 51, 0
1, 176759, Note_on_c, 9, 69, 0
1, 176760, Note_on_c, 9, 69, 49
1, 176879, Note_on_c, 9, 69, 0
1, 176880, Note_on_c, 9, 51, 41
1, 176880, Note_on_c, 9, 69, 45
1, 176999, Note_on_c, 9, 51, 0
1, 176999, Note_on_c, 9, 69, 0
1, 177000, Note_on_c, 9, 69, 41
1, 177119, Note_on_c, 9, 36, 0
1, 177119, Note_on_c, 9, 69, 0
1, 177120, Note_on_c, 9, 38, 120
1, 177120, Note_on_c, 9, 54, 125
1, 177120, Note_on_c, 9, 39, 120
1, 177120, Note_on_c, 9, 51, 101
1, 177120, Note_on_c, 9, 69, 113
1, 177239, Note_on_c, 9, 38, 0
1, 177239, Note_on_c, 9, 54, 0
1, 177239, Note_on_c, 9, 39, 0
1, 177239, Note_on_c, 9, 51, 0
1, 177239, Note_on_c, 9, 69, 0
1, 177240, Note_on_c, 9, 69, 65
1, 177359, Note_on_c, 9, 69, 0
1, 177360, Note_on_c, 9, 51, 49
1, 177360, Note_on_c, 9, 69, 41
1, 177360, Note_on_c, 9, 36, 120
1, 177479, Note_on_c, 9, 51, 0
1, 177479, Note_on_c, 9, 69, 0
1, 177480, Note_on_c, 9, 69, 41
1, 177599, Note_on_c, 9, 36, 0
1, 177599, Note_on_c, 9, 69, 0
1, 177600, Note_on_c, 9, 51, 101
1, 177600, Note_on_c, 9, 69, 113
1, 177600, Note_on_c, 9, 36, 120
1, 177719, Note_on_c, 9, 51, 0
1, 177719, Note_on_c, 9, 69, 0
1, 177720, Note_on_c, 9, 69, 49
1, 177839, Note_on_c, 9, 69, 0
1, 177840, Note_on_c, 9, 51, 45
1, 177840, Note_on_c, 9, 69, 37
1, 177959, Note_on_c, 9, 51, 0
1, 177959, Note_on_c, 9, 69, 0
1, 177960, Note_on_c, 9, 69, 41
1, 178079, Note_on_c, 9, 36, 0
1, 178079, Note_on_c, 9, 69, 0
1, 178080, Note_on_c, 9, 38, 120
1, 178080, Note_on_c, 9, 54, 125
1, 178080, Note_on_c, 9, 39, 120
1, 178080, Note_on_c, 9, 51, 101
1, 178080, Note_on_c, 9, 69, 113
1, 178199, Note_on_c, 9, 38, 0
1, 178199, Note_on_c, 9, 54, 0
1, 178199, Note_on_c, 9, 39, 0
1, 178199, Note_on_c, 9, 51, 0
1, 178199, Note_on_c, 9, 69, 0
1, 178200, Note_on_c, 9, 69, 57
1, 178319, Note_on_c, 9, 69, 0
1, 178320, Note_on_c, 9, 51, 45
1, 178320, Note_on_c, 9, 69, 37
1, 178320, Note_on_c, 9, 36, 120
1, 178439, Note_on_c, 9, 51, 0
1, 178439, Note_on_c, 9, 69, 0
1, 178440, Note_on_c, 9, 69, 45
1, 178559, Note_on_c, 9, 36, 0
1, 178559, Note_on_c, 9, 69, 0
1, 178560, Note_on_c, 9, 51, 89
1, 178560, Note_on_c, 9, 69, 101
1, 178560, Note_on_c, 9, 36, 120
1, 178679, Note_on_c, 9, 51, 0
1, 178679, Note_on_c, 9, 69, 0
1, 178680, Note_on_c, 9, 69, 45
1, 178799, Note_on_c, 9, 69, 0
1, 178800, Note_on_c, 9, 51, 41
1, 178800, Note_on_c, 9, 69, 41
1, 178919, Note_on_c, 9, 51, 0
1, 178919, Note_on_c, 9, 69, 0
1, 178920, Note_on_c, 9, 69, 41
1, 179039, Note_on_c, 9, 36, 0
1, 179039, Note_on_c, 9, 69, 0
1, 179040, Note_on_c, 9, 38, 121
1, 179040, Note_on_c, 9, 54, 113
1, 179040, Note_on_c, 9, 39, 120
1, 179040, Note_on_c, 9, 51, 101
1, 179040, Note_on_c, 9, 69, 113
1, 179159, Note_on_c, 9, 38, 0
1, 179159, Note_on_c, 9, 54, 0
1, 179159, Note_on_c, 9, 39, 0
1, 179159, Note_on_c, 9, 51, 0
1, 179159, Note_on_c, 9, 69, 0
1, 179160, Note_on_c, 9, 69, 45
1, 179279, Note_on_c, 9, 69, 0
1, 179280, Note_on_c, 9, 51, 45
1, 179280, Note_on_c, 9, 69, 45
1, 179280, Note_on_c, 9, 36, 120
1, 179399, Note_on_c, 9, 51, 0
1, 179399, Note_on_c, 9, 69, 0
1, 179400, Note_on_c, 9, 69, 41
1, 179519, Note_on_c, 9, 36, 0
1, 179519, Note_on_c, 9, 69, 0
1, 179520, Note_on_c, 9, 38, 121
1, 179520, Note_on_c, 9, 51, 89
1, 179520, Note_on_c, 9, 69, 113
1, 179520, Note_on_c, 9, 36, 120
1, 179639, Note_on_c, 9, 38, 0
1, 179639, Note_on_c, 9, 51, 0
1, 179639, Note_on_c, 9, 69, 0
1, 179640, Note_on_c, 9, 69, 57
1, 179759, Note_on_c, 9, 69, 0
1, 179760, Note_on_c, 9, 51, 41
1, 179760, Note_on_c, 9, 69, 45
1, 179879, Note_on_c, 9, 51, 0
1, 179879, Note_on_c, 9, 69, 0
1, 179880, Note_on_c, 9, 38, 121
1, 179880, Note_on_c, 9, 69, 45
1, 179999, Note_on_c, 9, 36, 0
1, 179999, Note_on_c, 9, 38, 0
1, 179999, Note_on_c, 9, 69, 0
1, 180000, Note_on_c, 9, 38, 121
1, 180000, Note_on_c, 9, 54, 113
1, 180000, Note_on_c, 9, 39, 120
1, 180000, Note_on_c, 9, 51, 101
1, 180000, Note_on_c, 9, 69, 101
1, 180119, Note_on_c, 9, 38, 0
1, 180119, Note_on_c, 9, 54, 0
1, 180119, Note_on_c, 9, 39, 0
1, 180119, Note_on_c, 9, 51, 0
1, 180119, Note_on_c, 9, 69, 0
1, 180120, Note_on_c, 9, 69, 57
1, 180239, Note_on_c, 9, 69, 0
1, 180240, Note_on_c, 9, 38, 127
1, 180240, Note_on_c, 9, 51, 45
1, 180240, Note_on_c, 9, 69, 41
1, 180240, Note_on_c, 9, 36, 120
1, 180359, Note_on_c, 9, 38, 0
1, 180359, Note_on_c, 9, 51, 0
1, 180359, Note_on_c, 9, 69, 0
1, 180360, Note_on_c, 9, 69, 57
1, 180479, Note_on_c, 9, 36, 0
1, 180479, Note_on_c, 9, 69, 0
1, 180480, Note_on_c, 9, 51, 81
1, 180480, Note_on_c, 9, 69, 101
1, 180480, Note_on_c, 9, 36, 120
1, 180599, Note_on_c, 9, 51, 0
1, 180599, Note_on_c, 9, 69, 0
1, 180600, Note_on_c, 9, 69, 49
1, 180719, Note_on_c, 9, 69, 0
1, 180720, Note_on_c, 9, 51, 57
1, 180720, Note_on_c, 9, 69, 45
1, 180839, Note_on_c, 9, 51, 0
1, 180839, Note_on_c, 9, 69, 0
1, 180840, Note_on_c, 9, 69, 41
1, 180959, Note_on_c, 9, 36, 0
1, 180959, Note_on_c, 9, 69, 0
1, 180960, Note_on_c, 9, 38, 121
1, 180960, Note_on_c, 9, 54, 125
1, 180960, Note_on_c, 9, 39, 120
1, 180960, Note_on_c, 9, 51, 89
1, 180960, Note_on_c, 9, 69, 113
1, 181079, Note_on_c, 9, 38, 0
1, 181079, Note_on_c, 9, 54, 0
1, 181079, Note_on_c, 9, 39, 0
1, 181079, Note_on_c, 9, 51, 0
1, 181079, Note_on_c, 9, 69, 0
1, 181080, Note_on_c, 9, 69, 65
1, 181199, Note_on_c, 9, 69, 0
1, 181200, Note_on_c, 9, 51, 45
1, 181200, Note_on_c, 9, 69, 41
1, 181200, Note_on_c, 9, 36, 120
1, 181319, Note_on_c, 9, 51, 0
1, 181319, Note_on_c, 9, 69, 0
1, 181320, Note_on_c, 9, 69, 41
1, 181439, Note_on_c, 9, 36, 0
1, 181439, Note_on_c, 9, 69, 0
1, 181440, Note_on_c, 9, 51, 89
1, 181440, Note_on_c, 9, 69, 113
1, 181440, Note_on_c, 9, 36, 120
1, 181559, Note_on_c, 9, 51, 0
1, 181559, Note_on_c, 9, 69, 0
1, 181560, Note_on_c, 9, 69, 49
1, 181679, Note_on_c, 9, 69, 0
1, 181680, Note_on_c, 9, 51, 45
1, 181680, Note_on_c, 9, 69, 37
1, 181799, Note_on_c, 9, 51, 0
1, 181799, Note_on_c, 9, 69, 0
1, 181800, Note_on_c, 9, 69, 41
1, 181919, Note_on_c, 9, 36, 0
1, 181919, Note_on_c, 9, 69, 0
1, 181920, Note_on_c, 9, 38, 121
1, 181920, Note_on_c, 9, 54, 125
1, 181920, Note_on_c, 9, 39, 120
1, 181920, Note_on_c, 9, 51, 89
1, 181920, Note_on_c, 9, 69, 113
1, 182039, Note_on_c, 9, 38, 0
1, 182039, Note_on_c, 9, 54, 0
1, 182039, Note_on_c, 9, 39, 0
1, 182039, Note_on_c, 9, 51, 0
1, 182039, Note_on_c, 9, 69, 0
1, 182040, Note_on_c, 9, 69, 57
1, 182159, Note_on_c, 9, 69, 0
1, 182160, Note_on_c, 9, 51, 45
1, 182160, Note_on_c, 9, 69, 37
1, 182160, Note_on_c, 9, 36, 120
1, 182279, Note_on_c, 9, 51, 0
1, 182279, Note_on_c, 9, 69, 0
1, 182280, Note_on_c, 9, 69, 45
1, 182399, Note_on_c, 9, 36, 0
1, 182399, Note_on_c, 9, 69, 0
1, 182400, Note_on_c, 9, 51, 101
1, 182400, Note_on_c, 9, 69, 101
1, 182400, Note_on_c, 9, 36, 120
1, 182519, Note_on_c, 9, 51, 0
1, 182519, Note_on_c, 9, 69, 0
1, 182520, Note_on_c, 9, 69, 45
1, 182639, Note_on_c, 9, 69, 0
1, 182640, Note_on_c, 9, 51, 45
1, 182640, Note_on_c, 9, 69, 41
1, 182759, Note_on_c, 9, 51, 0
1, 182759, Note_on_c, 9, 69, 0
1, 182760, Note_on_c, 9, 69, 41
1, 182879, Note_on_c, 9, 36, 0
1, 182879, Note_on_c, 9, 69, 0
1, 182880, Note_on_c, 9, 38, 120
1, 182880, Note_on_c, 9, 54, 113
1, 182880, Note_on_c, 9, 39, 120
1, 182880, Note_on_c, 9, 51, 113
1, 182880, Note_on_c, 9, 69, 113
1, 182999, Note_on_c, 9, 38, 0
1, 182999, Note_on_c, 9, 54, 0
1, 182999, Note_on_c, 9, 39, 0
1, 182999, Note_on_c, 9, 51, 0
1, 182999, Note_on_c, 9, 69, 0
1, 183000, Note_on_c, 9, 69, 45
1, 183119, Note_on_c, 9, 69, 0
1, 183120, Note_on_c, 9, 51, 41
1, 183120, Note_on_c, 9, 69, 45
1, 183120, Note_on_c, 9, 36, 120
1, 183239, Note_on_c, 9, 51, 0
1, 183239, Note_on_c, 9, 69, 0
1, 183240, Note_on_c, 9, 69, 41
1, 183359, Note_on_c, 9, 36, 0
1, 183359, Note_on_c, 9, 69, 0
1, 183360, Note_on_c, 9, 51, 101
1, 183360, Note_on_c, 9, 69, 113
1, 183360, Note_on_c, 9, 36, 120
1, 183479, Note_on_c, 9, 51, 0
1, 183479, Note_on_c, 9, 69, 0
1, 183480, Note_on_c, 9, 69, 57
1, 183599, Note_on_c, 9, 69, 0
1, 183600, Note_on_c, 9, 51, 37
1, 183600, Note_on_c, 9, 69, 45
1, 183719, Note_on_c, 9, 51, 0
1, 183719, Note_on_c, 9, 69, 0
1, 183720, Note_on_c, 9, 69, 45
1, 183839, Note_on_c, 9, 36, 0
1, 183839, Note_on_c, 9, 69, 0
1, 183840, Note_on_c, 9, 38, 120
1, 183840, Note_on_c, 9, 54, 113
1, 183840, Note_on_c, 9, 39, 120
1, 183840, Note_on_c, 9, 51, 101
1, 183840, Note_on_c, 9, 69, 101
1, 183959, Note_on_c, 9, 38, 0
1, 183959, Note_on_c, 9, 54, 0
1, 183959, Note_on_c, 9, 39, 0
1, 183959, Note_on_c, 9, 51, 0
1, 183959, Note_on_c, 9, 69, 0
1, 183960, Note_on_c, 9, 69, 57
1, 184079, Note_on_c, 9, 69, 0
1, 184080, Note_on_c, 9, 51, 41
1, 184080, Note_on_c, 9, 69, 41
1, 184080, Note_on_c, 9, 36, 120
1, 184199, Note_on_c, 9, 51, 0
1, 184199, Note_on_c, 9, 69, 0
1, 184200, Note_on_c, 9, 69, 57
1, 184319, Note_on_c, 9, 36, 0
1, 184319, Note_on_c, 9, 69, 0
1, 184320, Note_on_c, 9, 51, 81
1, 184320, Note_on_c, 9, 69, 113
1, 184320, Note_on_c, 9, 36, 120
1, 184439, Note_on_c, 9, 51, 0
1, 184439, Note_on_c, 9, 69, 0
1, 184440, Note_on_c, 9, 69, 73
1, 184559, Note_on_c, 9, 69, 0
1, 184560, Note_on_c, 9, 51, 41
1, 184560, Note_on_c, 9, 69, 41
1, 184679, Note_on_c, 9, 51, 0
1, 184679, Note_on_c, 9, 69, 0
1, 184680, Note_on_c, 9, 69, 45
1, 184799, Note_on_c, 9, 36, 0
1, 184799, Note_on_c, 9, 69, 0
1, 184800, Note_on_c, 9, 38, 121
1, 184800, Note_on_c, 9, 54, 113
1, 184800, Note_on_c, 9, 39, 120
1, 184800, Note_on_c, 9, 51, 101
1, 184800, Note_on_c, 9, 69, 101
1, 184919, Note_on_c, 9, 38, 0
1, 184919, Note_on_c, 9, 54, 0
1, 184919, Note_on_c, 9, 39, 0
1, 184919, Note_on_c, 9, 51, 0
1, 184919, Note_on_c, 9, 69, 0
1, 184920, Note_on_c, 9, 69, 65
1, 185039, Note_on_c, 9, 69, 0
1, 185040, Note_on_c, 9, 51, 49
1, 185040, Note_on_c, 9, 69, 33
1, 185040, Note_on_c, 9, 36, 120
1, 185159, Note_on_c, 9, 51, 0
1, 185159, Note_on_c, 9, 69, 0
1, 185160, Note_on_c, 9, 69, 45
1, 185279, Note_on_c, 9, 36, 0
1, 185279, Note_on_c, 9, 69, 0
1, 185280, Note_on_c, 9, 51, 101
1, 185280, Note_on_c, 9, 69, 89
1, 185280, Note_on_c, 9, 36, 120
1, 185399, Note_on_c, 9, 51, 0
1, 185399, Note_on_c, 9, 69, 0
1, 185400, Note_on_c, 9, 69, 57
1, 185519, Note_on_c, 9, 69, 0
1, 185520, Note_on_c, 9, 51, 45
1, 185520, Note_on_c, 9, 69, 45
1, 185639, Note_on_c, 9, 51, 0
1, 185639, Note_on_c, 9, 69, 0
1, 185640, Note_on_c, 9, 69, 45
1, 185759, Note_on_c, 9, 36, 0
1, 185759, Note_on_c, 9, 69, 0
1, 185760, Note_on_c, 9, 38, 121
1, 185760, Note_on_c, 9, 54, 101
1, 185760, Note_on_c, 9, 39, 120
1, 185760, Note_on_c, 9, 51, 101
1, 185760, Note_on_c, 9, 69, 113
1, 185879, Note_on_c, 9, 38, 0
1, 185879, Note_on_c, 9, 54, 0
1, 185879, Note_on_c, 9, 39, 0
1, 185879, Note_on_c, 9, 51, 0
1, 185879, Note_on_c, 9, 69, 0
1, 185880, Note_on_c, 9, 69, 73
1, 185999, Note_on_c, 9, 69, 0
1, 186000, Note_on_c, 9, 51, 45
1, 186000, Note_on_c, 9, 69, 57
1, 186000, Note_on_c, 9, 36, 120
1, 186119, Note_on_c, 9, 51, 0
1, 186119, Note_on_c, 9, 69, 0
1, 186120, Note_on_c, 9, 69, 65
1, 186239, Note_on_c, 9, 36, 0
1, 186239, Note_on_c, 9, 69, 0
1, 186240, Note_on_c, 9, 51, 89
1, 186240, Note_on_c, 9, 69, 113
1, 186240, Note_on_c, 9, 36, 120
1, 186359, Note_on_c, 9, 51, 0
1, 186359, Note_on_c, 9, 69, 0
1, 186360, Note_on_c, 9, 69, 45
1, 186479, Note_on_c, 9, 69, 0
1, 186480, Note_on_c, 9, 51, 41
1, 186480, Note_on_c, 9, 69, 41
1, 186599, Note_on_c, 9, 51, 0
1, 186599, Note_on_c, 9, 69, 0
1, 186600, Note_on_c, 9, 69, 41
1, 186719, Note_on_c, 9, 36, 0
1, 186719, Note_on_c, 9, 69, 0
1, 186720, Note_on_c, 9, 38, 121
1, 186720, Note_on_c, 9, 54, 101
1, 186720, Note_on_c, 9, 39, 120
1, 186720, Note_on_c, 9, 51, 101
1, 186720, Note_on_c, 9, 69, 113
1, 186839, Note_on_c, 9, 38, 0
1, 186839, Note_on_c, 9, 54, 0
1, 186839, Note_on_c, 9, 39, 0
1, 186839, Note_on_c, 9, 51, 0
1, 186839, Note_on_c, 9, 69, 0
1, 186840, Note_on_c, 9, 69, 57
1, 186959, Note_on_c, 9, 69, 0
1, 186960, Note_on_c, 9, 51, 45
1, 186960, Note_on_c, 9, 69, 45
1, 186960, Note_on_c, 9, 36, 120
1, 187079, Note_on_c, 9, 51, 0
1, 187079, Note_on_c, 9, 69, 0
1, 187080, Note_on_c, 9, 69, 49
1, 187199, Note_on_c, 9, 36, 0
1, 187199, Note_on_c, 9, 69, 0
1, 187200, Note_on_c, 9, 51, 89
1, 187200, Note_on_c, 9, 69, 101
1, 187200, Note_on_c, 9, 36, 120
1, 187319, Note_on_c, 9, 51, 0
1, 187319, Note_on_c, 9, 69, 0
1, 187320, Note_on_c, 9, 69, 65
1, 187439, Note_on_c, 9, 69, 0
1, 187440, Note_on_c, 9, 51, 41
1, 187440, Note_on_c, 9, 69, 49
1, 187559, Note_on_c, 9, 51, 0
1, 187559, Note_on_c, 9, 69, 0
1, 187560, Note_on_c, 9, 69, 73
1, 187679, Note_on_c, 9, 36, 0
1, 187679, Note_on_c, 9, 69, 0
1, 187680, Note_on_c, 9, 38, 127
1, 187680, Note_on_c, 9, 54, 101
1, 187680, Note_on_c, 9, 39, 120
1, 187680, Note_on_c, 9, 51, 101
1, 187680, Note_on_c, 9, 69, 113
1, 187799, Note_on_c, 9, 38, 0
1, 187799, Note_on_c, 9, 54, 0
1, 187799, Note_on_c, 9, 39, 0
1, 187799, Note_on_c, 9, 51, 0
1, 187799, Note_on_c, 9, 69, 0
1, 187800, Note_on_c, 9, 69, 65
1, 187919, Note_on_c, 9, 69, 0
1, 187920, Note_on_c, 9, 51, 45
1, 187920, Note_on_c, 9, 69, 57
1, 187920, Note_on_c, 9, 36, 120
1, 188039, Note_on_c, 9, 51, 0
1, 188039, Note_on_c, 9, 69, 0
1, 188040, Note_on_c, 9, 69, 73
1, 188159, Note_on_c, 9, 36, 0
1, 188159, Note_on_c, 9, 69, 0
1, 188160, Note_on_c, 9, 51, 81
1, 188160, Note_on_c, 9, 69, 101
1, 188160, Note_on_c, 9, 36, 120
1, 188279, Note_on_c, 9, 51, 0
1, 188279, Note_on_c, 9, 69, 0
1, 188280, Note_on_c, 9, 69, 49
1, 188399, Note_on_c, 9, 69, 0
1, 188400, Note_on_c, 9, 51, 57
1, 188400, Note_on_c, 9, 69, 45
1, 188519, Note_on_c, 9, 51, 0
1, 188519, Note_on_c, 9, 69, 0
1, 188520, Note_on_c, 9, 69, 41
1, 188639, Note_on_c, 9, 36, 0
1, 188639, Note_on_c, 9, 69, 0
1, 188640, Note_on_c, 9, 38, 121
1, 188640, Note_on_c, 9, 54, 113
1, 188640, Note_on_c, 9, 39, 120
1, 188640, Note_on_c, 9, 51, 89
1, 188640, Note_on_c, 9, 69, 113
1, 188759, Note_on_c, 9, 38, 0
1, 188759, Note_on_c, 9, 54, 0
1, 188759, Note_on_c, 9, 39, 0
1, 188759, Note_on_c, 9, 51, 0
1, 188759, Note_on_c, 9, 69, 0
1, 188760, Note_on_c, 9, 69, 65
1, 188879, Note_on_c, 9, 69, 0
1, 188880, Note_on_c, 9, 51, 45
1, 188880, Note_on_c, 9, 69, 41
1, 188880, Note_on_c, 9, 36, 120
1, 188999, Note_on_c, 9, 51, 0
1, 188999, Note_on_c, 9, 69, 0
1, 189000, Note_on_c, 9, 69, 41
1, 189119, Note_on_c, 9, 36, 0
1, 189119, Note_on_c, 9, 69, 0
1, 189120, Note_on_c, 9, 51, 89
1, 189120, Note_on_c, 9, 69, 113
1, 189120, Note_on_c, 9, 36, 120
1, 189239, Note_on_c, 9, 51, 0
1, 189239, Note_on_c, 9, 69, 0
1, 189240, Note_on_c, 9, 69, 49
1, 189359, Note_on_c, 9, 69, 0
1, 189360, Note_on_c, 9, 51, 45
1, 189360, Note_on_c, 9, 69, 37
1, 189479, Note_on_c, 9, 51, 0
1, 189479, Note_on_c, 9, 69, 0
1, 189480, Note_on_c, 9, 69, 41
1, 189599, Note_on_c, 9, 36, 0
1, 189599, Note_on_c, 9, 69, 0
1, 189600, Note_on_c, 9, 38, 121
1, 189600, Note_on_c, 9, 54, 101
1, 189600, Note_on_c, 9, 39, 120
1, 189600, Note_on_c, 9, 51, 89
1, 189600, Note_on_c, 9, 69, 113
1, 189719, Note_on_c, 9, 38, 0
1, 189719, Note_on_c, 9, 54, 0
1, 189719, Note_on_c, 9, 39, 0
1, 189719, Note_on_c, 9, 51, 0
1, 189719, Note_on_c, 9, 69, 0
1, 189720, Note_on_c, 9, 69, 57
1, 189839, Note_on_c, 9, 69, 0
1, 189840, Note_on_c, 9, 51, 45
1, 189840, Note_on_c, 9, 69, 37
1, 189840, Note_on_c, 9, 36, 120
1, 189959, Note_on_c, 9, 51, 0
1, 189959, Note_on_c, 9, 69, 0
1, 189960, Note_on_c, 9, 69, 45
1, 190079, Note_on_c, 9, 36, 0
1, 190079, Note_on_c, 9, 69, 0
1, 190080, Note_on_c, 9, 51, 101
1, 190080, Note_on_c, 9, 69, 101
1, 190080, Note_on_c, 9, 36, 120
1, 190199, Note_on_c, 9, 51, 0
1, 190199, Note_on_c, 9, 69, 0
1, 190200, Note_on_c, 9, 69, 45
1, 190319, Note_on_c, 9, 69, 0
1, 190320, Note_on_c, 9, 51, 45
1, 190320, Note_on_c, 9, 69, 41
1, 190439, Note_on_c, 9, 51, 0
1, 190439, Note_on_c, 9, 69, 0
1, 190440, Note_on_c, 9, 69, 41
1, 190559, Note_on_c, 9, 36, 0
1, 190559, Note_on_c, 9, 69, 0
1, 190560, Note_on_c, 9, 38, 120
1, 190560, Note_on_c, 9, 54, 89
1, 190560, Note_on_c, 9, 39, 120
1, 190560, Note_on_c, 9, 51, 113
1, 190560, Note_on_c, 9, 69, 113
1, 190679, Note_on_c, 9, 38, 0
1, 190679, Note_on_c, 9, 54, 0
1, 190679, Note_on_c, 9, 39, 0
1, 190679, Note_on_c, 9, 51, 0
1, 190679, Note_on_c, 9, 69, 0
1, 190680, Note_on_c, 9, 69, 45
1, 190799, Note_on_c, 9, 69, 0
1, 190800, Note_on_c, 9, 51, 41
1, 190800, Note_on_c, 9, 69, 45
1, 190800, Note_on_c, 9, 36, 120
1, 190919, Note_on_c, 9, 51, 0
1, 190919, Note_on_c, 9, 69, 0
1, 190920, Note_on_c, 9, 69, 41
1, 191039, Note_on_c, 9, 36, 0
1, 191039, Note_on_c, 9, 69, 0
1, 191040, Note_on_c, 9, 51, 101
1, 191040, Note_on_c, 9, 69, 113
1, 191040, Note_on_c, 9, 36, 120
1, 191159, Note_on_c, 9, 51, 0
1, 191159, Note_on_c, 9, 69, 0
1, 191160, Note_on_c, 9, 69, 57
1, 191279, Note_on_c, 9, 69, 0
1, 191280, Note_on_c, 9, 51, 37
1, 191280, Note_on_c, 9, 69, 45
1, 191399, Note_on_c, 9, 51, 0
1, 191399, Note_on_c, 9, 69, 0
1, 191400, Note_on_c, 9, 69, 45
1, 191519, Note_on_c, 9, 36, 0
1, 191519, Note_on_c, 9, 69, 0
1, 191520, Note_on_c, 9, 38, 120
1, 191520, Note_on_c, 9, 54, 113
1, 191520, Note_on_c, 9, 39, 120
1, 191520, Note_on_c, 9, 51, 101
1, 191520, Note_on_c, 9, 69, 101
1, 191639, Note_on_c, 9, 38, 0
1, 191639, Note_on_c, 9, 54, 0
1, 191639, Note_on_c, 9, 39, 0
1, 191639, Note_on_c, 9, 51, 0
1, 191639, Note_on_c, 9, 69, 0
1, 191640, Note_on_c, 9, 69, 57
1, 191759, Note_on_c, 9, 69, 0
1, 191760, Note_on_c, 9, 51, 41
1, 191760, Note_on_c, 9, 69, 41
1, 191760, Note_on_c, 9, 36, 120
1, 191879, Note_on_c, 9, 51, 0
1, 191879, Note_on_c, 9, 69, 0
1, 191880, Note_on_c, 9, 69, 57
1, 191999, Note_on_c, 9, 36, 0
1, 191999, Note_on_c, 9, 69, 0
1, 192000, Note_on_c, 9, 51, 81
1, 192000, Note_on_c, 9, 69, 113
1, 192000, Note_on_c, 9, 36, 120
1, 192119, Note_on_c, 9, 51, 0
1, 192119, Note_on_c, 9, 69, 0
1, 192120, Note_on_c, 9, 69, 73
1, 192239, Note_on_c, 9, 69, 0
1, 192240, Note_on_c, 9, 51, 41
1, 192240, Note_on_c, 9, 69, 41
1, 192359, Note_on_c, 9, 51, 0
1, 192359, Note_on_c, 9, 69, 0
1, 192360, Note_on_c, 9, 69, 45
1, 192479, Note_on_c, 9, 36, 0
1, 192479, Note_on_c, 9, 69, 0
1, 192480, Note_on_c, 9, 38, 121
1, 192480, Note_on_c, 9, 54, 113
1, 192480, Note_on_c, 9, 39, 120
1, 192480, Note_on_c, 9, 51, 101
1, 192480, Note_on_c, 9, 69, 101
1, 192599, Note_on_c, 9, 38, 0
1, 192599, Note_on_c, 9, 54, 0
1, 192599, Note_on_c, 9, 39, 0
1, 192599, Note_on_c, 9, 51, 0
1, 192599, Note_on_c, 9, 69, 0
1, 192600, Note_on_c, 9, 69, 65
1, 192719, Note_on_c, 9, 69, 0
1, 192720, Note_on_c, 9, 51, 49
1, 192720, Note_on_c, 9, 69, 33
1, 192720, Note_on_c, 9, 36, 120
1, 192839, Note_on_c, 9, 51, 0
1, 192839, Note_on_c, 9, 69, 0
1, 192840, Note_on_c, 9, 69, 45
1, 192959, Note_on_c, 9, 36, 0
1, 192959, Note_on_c, 9, 69, 0
1, 192960, Note_on_c, 9, 51, 101
1, 192960, Note_on_c, 9, 69, 89
1, 192960, Note_on_c, 9, 36, 120
1, 193079, Note_on_c, 9, 51, 0
1, 193079, Note_on_c, 9, 69, 0
1, 193080, Note_on_c, 9, 69, 57
1, 193199, Note_on_c, 9, 69, 0
1, 193200, Note_on_c, 9, 51, 45
1, 193200, Note_on_c, 9, 69, 45
1, 193319, Note_on_c, 9, 51, 0
1, 193319, Note_on_c, 9, 69, 0
1, 193320, Note_on_c, 9, 69, 45
1, 193439, Note_on_c, 9, 36, 0
1, 193439, Note_on_c, 9, 69, 0
1, 193440, Note_on_c, 9, 38, 121
1, 193440, Note_on_c, 9, 54, 101
1, 193440, Note_on_c, 9, 39, 120
1, 193440, Note_on_c, 9, 51, 101
1, 193440, Note_on_c, 9, 69, 113
1, 193559, Note_on_c, 9, 38, 0
1, 193559, Note_on_c, 9, 54, 0
1, 193559, Note_on_c, 9, 39, 0
1, 193559, Note_on_c, 9, 51, 0
1, 193559, Note_on_c, 9, 69, 0
1, 193560, Note_on_c, 9, 69, 73
1, 193679, Note_on_c, 9, 69, 0
1, 193680, Note_on_c, 9, 51, 45
1, 193680, Note_on_c, 9, 69, 57
1, 193680, Note_on_c, 9, 36, 120
1, 193799, Note_on_c, 9, 51, 0
1, 193799, Note_on_c, 9, 69, 0
1, 193800, Note_on_c, 9, 69, 65
1, 193919, Note_on_c, 9, 36, 0
1, 193919, Note_on_c, 9, 69, 0
1, 193920, Note_on_c, 9, 51, 89
1, 193920, Note_on_c, 9, 69, 113
1, 193920, Note_on_c, 9, 36, 120
1, 194039, Note_on_c, 9, 51, 0
1, 194039, Note_on_c, 9, 69, 0
1, 194040, Note_on_c, 9, 69, 45
1, 194159, Note_on_c, 9, 69, 0
1, 194160, Note_on_c, 9, 51, 41
1, 194160, Note_on_c, 9, 69, 41
1, 194279, Note_on_c, 9, 51, 0
1, 194279, Note_on_c, 9, 69, 0
1, 194280, Note_on_c, 9, 69, 41
1, 194399, Note_on_c, 9, 36, 0
1, 194399, Note_on_c, 9, 69, 0
1, 194400, Note_on_c, 9, 38, 121
1, 194400, Note_on_c, 9, 54, 125
1, 194400, Note_on_c, 9, 39, 120
1, 194400, Note_on_c, 9, 51, 101
1, 194400, Note_on_c, 9, 69, 113
1, 194519, Note_on_c, 9, 38, 0
1, 194519, Note_on_c, 9, 54, 0
1, 194519, Note_on_c, 9, 39, 0
1, 194519, Note_on_c, 9, 51, 0
1, 194519, Note_on_c, 9, 69, 0
1, 194520, Note_on_c, 9, 69, 57
1, 194639, Note_on_c, 9, 69, 0
1, 194640, Note_on_c, 9, 51, 45
1, 194640, Note_on_c, 9, 69, 45
1, 194640, Note_on_c, 9, 36, 120
1, 194759, Note_on_c, 9, 51, 0
1, 194759, Note_on_c, 9, 69, 0
1, 194760, Note_on_c, 9, 69, 49
1, 194879, Note_on_c, 9, 36, 0
1, 194879, Note_on_c, 9, 69, 0
1, 194880, Note_on_c, 9, 38, 121
1, 194880, Note_on_c, 9, 51, 89
1, 194880, Note_on_c, 9, 69, 101
1, 194880, Note_on_c, 9, 36, 120
1, 194999, Note_on_c, 9, 38, 0
1, 194999, Note_on_c, 9, 51, 0
1, 194999, Note_on_c, 9, 69, 0
1, 195000, Note_on_c, 9, 69, 65
1, 195119, Note_on_c, 9, 69, 0
1, 195120, Note_on_c, 9, 51, 41
1, 195120, Note_on_c, 9, 69, 49
1, 195239, Note_on_c, 9, 51, 0
1, 195239, Note_on_c, 9, 69, 0
1, 195240, Note_on_c, 9, 38, 121
1, 195240, Note_on_c, 9, 69, 73
1, 195359, Note_on_c, 9, 36, 0
1, 195359, Note_on_c, 9, 38, 0
1, 195359, Note_on_c, 9, 69, 0
1, 195360, Note_on_c, 9, 38, 121
1, 195360, Note_on_c, 9, 54, 113
1, 195360, Note_on_c, 9, 39, 120
1, 195360, Note_on_c, 9, 51, 101
1, 195360, Note_on_c, 9, 69, 113
1, 195479, Note_on_c, 9, 38, 0
1, 195479, Note_on_c, 9, 54, 0
1, 195479, Note_on_c, 9, 39, 0
1, 195479, Note_on_c, 9, 51, 0
1, 195479, Note_on_c, 9, 69, 0
1, 195480, Note_on_c, 9, 69, 65
1, 195599, Note_on_c, 9, 69, 0
1, 195600, Note_on_c, 9, 38, 127
1, 195600, Note_on_c, 9, 51, 45
1, 195600, Note_on_c, 9, 69, 57
1, 195600, Note_on_c, 9, 36, 120
1, 195719, Note_on_c, 9, 38, 0
1, 195719, Note_on_c, 9, 51, 0
1, 195719, Note_on_c, 9, 69, 0
1, 195720, Note_on_c, 9, 69, 73
1, 195839, Note_on_c, 9, 36, 0
1, 195839, Note_on_c, 9, 69, 0
1, 195840, Note_on_c, 9, 49, 120
1, 195840, Note_on_c, 9, 36, 120
1, 196319, Note_on_c, 9, 49, 0
1, 196319, Note_on_c, 9, 36, 0
1, 196320, End_track
0, 0, End_of_file
