0, 0, Header, 1, 1, 480
1, 0, Start_track
1, 0, Time_signature, 4, 2, 24, 8
1, 0, Key_signature, 0, "major"
1, 0, Tempo, 600000
1, 0, Control_c, 9, 121, 0
1, 0, Program_c, 9, 0
1, 0, Control_c, 9, 7, 80
1, 0, Control_c, 9, 10, 64
1, 0, Control_c, 9, 91, 0
1, 0, Control_c, 9, 93, 0
1, 0, MIDI_port, 0
1, 1920, Note_on_c, 9, 42, 100
1, 1920, Note_on_c, 9, 49, 90
1, 1920, Note_on_c, 9, 35, 70
1, 2159, Note_on_c, 9, 42, 0
1, 2159, Note_on_c, 9, 49, 0
1, 2240, Note_on_c, 9, 38, 20
1, 2399, Note_on_c, 9, 35, 0
1, 2399, Note_on_c, 9, 38, 0
1, 2400, Note_on_c, 9, 38, 90
1, 2400, Note_on_c, 9, 42, 115
1, 2639, Note_on_c, 9, 38, 0
1, 2639, Note_on_c, 9, 42, 0
1, 2720, Note_on_c, 9, 38, 30
1, 2879, Note_on_c, 9, 38, 0
1, 2880, Note_on_c, 9, 42, 100
1, 2880, Note_on_c, 9, 35, 70
1, 3119, Note_on_c, 9, 42, 0
1, 3200, Note_on_c, 9, 38, 30
1, 3359, Note_on_c, 9, 35, 0
1, 3359, Note_on_c, 9, 38, 0
1, 3360, Note_on_c, 9, 38, 90
1, 3360, Note_on_c, 9, 42, 115
1, 3599, Note_on_c, 9, 38, 0
1, 3599, Note_on_c, 9, 42, 0
1, 3680, Note_on_c, 9, 38, 40
1, 3680, Note_on_c, 9, 42, 100
1, 3839, Note_on_c, 9, 38, 0
1, 3839, Note_on_c, 9, 42, 0
1, 3840, Note_on_c, 9, 42, 100
1, 3840, Note_on_c, 9, 35, 70
1, 4079, Note_on_c, 9, 42, 0
1, 4160, Note_on_c, 9, 38, 20
1, 4319, Note_on_c, 9, 35, 0
1, 4319, Note_on_c, 9, 38, 0
1, 4320, Note_on_c, 9, 38, 90
1, 4320, Note_on_c, 9, 42, 115
1, 4559, Note_on_c, 9, 38, 0
1, 4559, Note_on_c, 9, 42, 0
1, 4640, Note_on_c, 9, 38, 30
1, 4799, Note_on_c, 9, 38, 0
1, 4800, Note_on_c, 9, 42, 100
1, 4800, Note_on_c, 9, 35, 70
1, 4959, Note_on_c, 9, 42, 0
1, 4960, Note_on_c, 9, 42, 50
1, 5039, Note_on_c, 9, 35, 0
1, 5119, Note_on_c, 9, 42, 0
1, 5120, Note_on_c, 9, 38, 30
1, 5120, Note_on_c, 9, 35, 60
1, 5279, Note_on_c, 9, 38, 0
1, 5279, Note_on_c, 9, 35, 0
1, 5280, Note_on_c, 9, 38, 90
1, 5280, Note_on_c, 9, 42, 115
1, 5519, Note_on_c, 9, 38, 0
1, 5519, Note_on_c, 9, 42, 0
1, 5600, Note_on_c, 9, 46, 72
1, 5759, Note_on_c, 9, 46, 0
1, 5760, Note_on_c, 9, 42, 100
1, 5760, Note_on_c, 9, 49, 90
1, 5760, Note_on_c, 9, 35, 70
1, 5999, Note_on_c, 9, 42, 0
1, 5999, Note_on_c, 9, 49, 0
1, 6080, Note_on_c, 9, 38, 18
1, 6239, Note_on_c, 9, 35, 0
1, 6239, Note_on_c, 9, 38, 0
1, 6240, Note_on_c, 9, 38, 90
1, 6240, Note_on_c, 9, 42, 115
1, 6479, Note_on_c, 9, 38, 0
1, 6479, Note_on_c, 9, 42, 0
1, 6560, Note_on_c, 9, 38, 18
1, 6719, Note_on_c, 9, 38, 0
1, 6720, Note_on_c, 9, 42, 100
1, 6720, Note_on_c, 9, 35, 70
1, 6959, Note_on_c, 9, 42, 0
1, 6959, Note_on_c, 9, 35, 0
1, 7040, Note_on_c, 9, 38, 30
1, 7040, Note_on_c, 9, 35, 60
1, 7199, Note_on_c, 9, 38, 0
1, 7199, Note_on_c, 9, 35, 0
1, 7200, Note_on_c, 9, 38, 90
1, 7200, Note_on_c, 9, 42, 115
1, 7439, Note_on_c, 9, 38, 0
1, 7439, Note_on_c, 9, 42, 0
1, 7520, Note_on_c, 9, 46, 72
1, 7679, Note_on_c, 9, 46, 0
1, 7680, Note_on_c, 9, 49, 90
1, 7680, Note_on_c, 9, 35, 90
1, 7919, Note_on_c, 9, 49, 0
1, 8000, Note_on_c, 9, 38, 60
1, 8159, Note_on_c, 9, 35, 0
1, 8159, Note_on_c, 9, 38, 0
1, 8160, Note_on_c, 9, 38, 100
1, 8319, Note_on_c, 9, 38, 0
1, 8320, Note_on_c, 9, 38, 50
1, 8479, Note_on_c, 9, 38, 0
1, 8480, Note_on_c, 9, 41, 100
1, 8639, Note_on_c, 9, 41, 0
1, 8640, Note_on_c, 9, 38, 50
1, 8799, Note_on_c, 9, 38, 0
1, 8800, Note_on_c, 9, 38, 70
1, 8959, Note_on_c, 9, 38, 0
1, 8960, Note_on_c, 9, 48, 100
1, 9119, Note_on_c, 9, 48, 0
1, 9120, Note_on_c, 9, 38, 50
1, 9279, Note_on_c, 9, 38, 0
1, 9280, Note_on_c, 9, 45, 100
1, 9439, Note_on_c, 9, 45, 0
1, 9440, Note_on_c, 9, 41, 115
1, 9599, Note_on_c, 9, 41, 0
1, 9600, Note_on_c, 9, 42, 100
1, 9600, Note_on_c, 9, 49, 90
1, 9600, Note_on_c, 9, 35, 70
1, 9839, Note_on_c, 9, 42, 0
1, 9839, Note_on_c, 9, 49, 0
1, 9920, Note_on_c, 9, 38, 20
1, 10079, Note_on_c, 9, 35, 0
1, 10079, Note_on_c, 9, 38, 0
1, 10080, Note_on_c, 9, 38, 90
1, 10080, Note_on_c, 9, 42, 115
1, 10319, Note_on_c, 9, 38, 0
1, 10319, Note_on_c, 9, 42, 0
1, 10400, Note_on_c, 9, 38, 30
1, 10559, Note_on_c, 9, 38, 0
1, 10560, Note_on_c, 9, 42, 100
1, 10560, Note_on_c, 9, 35, 70
1, 10799, Note_on_c, 9, 42, 0
1, 10880, Note_on_c, 9, 38, 30
1, 11039, Note_on_c, 9, 35, 0
1, 11039, Note_on_c, 9, 38, 0
1, 11040, Note_on_c, 9, 38, 90
1, 11040, Note_on_c, 9, 42, 115
1, 11279, Note_on_c, 9, 38, 0
1, 11279, Note_on_c, 9, 42, 0
1, 11360, Note_on_c, 9, 38, 40
1, 11360, Note_on_c, 9, 35, 60
1, 11519, Note_on_c, 9, 38, 0
1, 11519, Note_on_c, 9, 35, 0
1, 11520, Note_on_c, 9, 42, 100
1, 11520, Note_on_c, 9, 35, 70
1, 11759, Note_on_c, 9, 42, 0
1, 11840, Note_on_c, 9, 38, 20
1, 11999, Note_on_c, 9, 35, 0
1, 11999, Note_on_c, 9, 38, 0
1, 12000, Note_on_c, 9, 38, 90
1, 12000, Note_on_c, 9, 42, 115
1, 12239, Note_on_c, 9, 38, 0
1, 12239, Note_on_c, 9, 42, 0
1, 12320, Note_on_c, 9, 38, 30
1, 12479, Note_on_c, 9, 38, 0
1, 12480, Note_on_c, 9, 42, 100
1, 12480, Note_on_c, 9, 35, 70
1, 12719, Note_on_c, 9, 42, 0
1, 12800, Note_on_c, 9, 38, 54
1, 12959, Note_on_c, 9, 35, 0
1, 12959, Note_on_c, 9, 38, 0
1, 12960, Note_on_c, 9, 38, 90
1, 12960, Note_on_c, 9, 42, 115
1, 13199, Note_on_c, 9, 38, 0
1, 13199, Note_on_c, 9, 42, 0
1, 13280, Note_on_c, 9, 46, 72
1, 13280, Note_on_c, 9, 35, 60
1, 13439, Note_on_c, 9, 46, 0
1, 13439, Note_on_c, 9, 35, 0
1, 13440, Note_on_c, 9, 42, 100
1, 13440, Note_on_c, 9, 35, 70
1, 13679, Note_on_c, 9, 42, 0
1, 13760, Note_on_c, 9, 38, 18
1, 13919, Note_on_c, 9, 35, 0
1, 13919, Note_on_c, 9, 38, 0
1, 13920, Note_on_c, 9, 38, 90
1, 13920, Note_on_c, 9, 42, 115
1, 14159, Note_on_c, 9, 38, 0
1, 14159, Note_on_c, 9, 42, 0
1, 14240, Note_on_c, 9, 38, 30
1, 14399, Note_on_c, 9, 38, 0
1, 14400, Note_on_c, 9, 42, 100
1, 14400, Note_on_c, 9, 35, 70
1, 14639, Note_on_c, 9, 42, 0
1, 14720, Note_on_c, 9, 38, 30
1, 14879, Note_on_c, 9, 35, 0
1, 14879, Note_on_c, 9, 38, 0
1, 14880, Note_on_c, 9, 38, 90
1, 14880, Note_on_c, 9, 42, 115
1, 15119, Note_on_c, 9, 38, 0
1, 15119, Note_on_c, 9, 42, 0
1, 15200, Note_on_c, 9, 38, 40
1, 15200, Note_on_c, 9, 42, 100
1, 15359, Note_on_c, 9, 38, 0
1, 15359, Note_on_c, 9, 42, 0
1, 15360, Note_on_c, 9, 38, 90
1, 15360, Note_on_c, 9, 35, 70
1, 15839, Note_on_c, 9, 38, 0
1, 15839, Note_on_c, 9, 35, 0
1, 16000, Note_on_c, 9, 38, 60
1, 16159, Note_on_c, 9, 38, 0
1, 16160, Note_on_c, 9, 38, 80
1, 16319, Note_on_c, 9, 38, 0
1, 16320, Note_on_c, 9, 48, 90
1, 16320, Note_on_c, 9, 35, 70
1, 16559, Note_on_c, 9, 48, 0
1, 16640, Note_on_c, 9, 45, 80
1, 16799, Note_on_c, 9, 35, 0
1, 16799, Note_on_c, 9, 45, 0
1, 16960, Note_on_c, 9, 41, 70
1, 17119, Note_on_c, 9, 41, 0
1, 17120, Note_on_c, 9, 41, 100
1, 17279, Note_on_c, 9, 41, 0
1, 17280, Note_on_c, 9, 42, 100
1, 17280, Note_on_c, 9, 49, 90
1, 17280, Note_on_c, 9, 35, 70
1, 17519, Note_on_c, 9, 42, 0
1, 17519, Note_on_c, 9, 49, 0
1, 17600, Note_on_c, 9, 38, 20
1, 17759, Note_on_c, 9, 35, 0
1, 17759, Note_on_c, 9, 38, 0
1, 17760, Note_on_c, 9, 38, 90
1, 17760, Note_on_c, 9, 42, 115
1, 17999, Note_on_c, 9, 38, 0
1, 17999, Note_on_c, 9, 42, 0
1, 18080, Note_on_c, 9, 38, 30
1, 18239, Note_on_c, 9, 38, 0
1, 18240, Note_on_c, 9, 42, 100
1, 18240, Note_on_c, 9, 35, 70
1, 18479, Note_on_c, 9, 42, 0
1, 18479, Note_on_c, 9, 35, 0
1, 18560, Note_on_c, 9, 38, 30
1, 18560, Note_on_c, 9, 35, 60
1, 18719, Note_on_c, 9, 38, 0
1, 18719, Note_on_c, 9, 35, 0
1, 18720, Note_on_c, 9, 38, 90
1, 18720, Note_on_c, 9, 42, 115
1, 18879, Note_on_c, 9, 38, 0
1, 18879, Note_on_c, 9, 42, 0
1, 18880, Note_on_c, 9, 42, 90
1, 19039, Note_on_c, 9, 42, 0
1, 19040, Note_on_c, 9, 38, 40
1, 19040, Note_on_c, 9, 35, 60
1, 19199, Note_on_c, 9, 38, 0
1, 19199, Note_on_c, 9, 35, 0
1, 19200, Note_on_c, 9, 42, 100
1, 19200, Note_on_c, 9, 35, 70
1, 19439, Note_on_c, 9, 42, 0
1, 19520, Note_on_c, 9, 38, 20
1, 19679, Note_on_c, 9, 35, 0
1, 19679, Note_on_c, 9, 38, 0
1, 19680, Note_on_c, 9, 38, 90
1, 19680, Note_on_c, 9, 42, 115
1, 19919, Note_on_c, 9, 38, 0
1, 19919, Note_on_c, 9, 42, 0
1, 20000, Note_on_c, 9, 38, 18
1, 20159, Note_on_c, 9, 38, 0
1, 20160, Note_on_c, 9, 42, 100
1, 20160, Note_on_c, 9, 35, 70
1, 20399, Note_on_c, 9, 42, 0
1, 20399, Note_on_c, 9, 35, 0
1, 20480, Note_on_c, 9, 38, 30
1, 20480, Note_on_c, 9, 35, 60
1, 20639, Note_on_c, 9, 38, 0
1, 20639, Note_on_c, 9, 35, 0
1, 20640, Note_on_c, 9, 38, 90
1, 20640, Note_on_c, 9, 42, 115
1, 20879, Note_on_c, 9, 38, 0
1, 20879, Note_on_c, 9, 42, 0
1, 20960, Note_on_c, 9, 46, 72
1, 21119, Note_on_c, 9, 46, 0
1, 21120, Note_on_c, 9, 42, 100
1, 21120, Note_on_c, 9, 35, 70
1, 21359, Note_on_c, 9, 42, 0
1, 21440, Note_on_c, 9, 38, 20
1, 21599, Note_on_c, 9, 35, 0
1, 21599, Note_on_c, 9, 38, 0
1, 21600, Note_on_c, 9, 38, 90
1, 21600, Note_on_c, 9, 42, 115
1, 21839, Note_on_c, 9, 38, 0
1, 21839, Note_on_c, 9, 42, 0
1, 21920, Note_on_c, 9, 38, 30
1, 22079, Note_on_c, 9, 38, 0
1, 22080, Note_on_c, 9, 42, 100
1, 22080, Note_on_c, 9, 35, 70
1, 22239, Note_on_c, 9, 42, 0
1, 22240, Note_on_c, 9, 42, 50
1, 22399, Note_on_c, 9, 42, 0
1, 22400, Note_on_c, 9, 38, 54
1, 22559, Note_on_c, 9, 35, 0
1, 22559, Note_on_c, 9, 38, 0
1, 22560, Note_on_c, 9, 38, 90
1, 22560, Note_on_c, 9, 42, 115
1, 22799, Note_on_c, 9, 38, 0
1, 22799, Note_on_c, 9, 42, 0
1, 22880, Note_on_c, 9, 38, 40
1, 22880, Note_on_c, 9, 35, 60
1, 23039, Note_on_c, 9, 38, 0
1, 23039, Note_on_c, 9, 35, 0
1, 23040, Note_on_c, 9, 38, 40
1, 23040, Note_on_c, 9, 35, 80
1, 23199, Note_on_c, 9, 38, 0
1, 23200, Note_on_c, 9, 38, 50
1, 23359, Note_on_c, 9, 38, 0
1, 23360, Note_on_c, 9, 38, 100
1, 23519, Note_on_c, 9, 35, 0
1, 23519, Note_on_c, 9, 38, 0
1, 23520, Note_on_c, 9, 38, 100
1, 23679, Note_on_c, 9, 38, 0
1, 23680, Note_on_c, 9, 38, 40
1, 23839, Note_on_c, 9, 38, 0
1, 23840, Note_on_c, 9, 38, 100
1, 23999, Note_on_c, 9, 38, 0
1, 24000, Note_on_c, 9, 38, 50
1, 24000, Note_on_c, 9, 35, 80
1, 24159, Note_on_c, 9, 38, 0
1, 24160, Note_on_c, 9, 38, 115
1, 24319, Note_on_c, 9, 38, 0
1, 24320, Note_on_c, 9, 38, 70
1, 24479, Note_on_c, 9, 35, 0
1, 24479, Note_on_c, 9, 38, 0
1, 24480, Note_on_c, 9, 38, 90
1, 24639, Note_on_c, 9, 38, 0
1, 24640, Note_on_c, 9, 38, 100
1, 24799, Note_on_c, 9, 38, 0
1, 24800, Note_on_c, 9, 38, 127
1, 24959, Note_on_c, 9, 38, 0
1, 24960, Note_on_c, 9, 42, 100
1, 24960, Note_on_c, 9, 49, 90
1, 24960, Note_on_c, 9, 35, 70
1, 25199, Note_on_c, 9, 42, 0
1, 25199, Note_on_c, 9, 49, 0
1, 25280, Note_on_c, 9, 38, 20
1, 25439, Note_on_c, 9, 35, 0
1, 25439, Note_on_c, 9, 38, 0
1, 25440, Note_on_c, 9, 38, 90
1, 25440, Note_on_c, 9, 42, 115
1, 25679, Note_on_c, 9, 38, 0
1, 25679, Note_on_c, 9, 42, 0
1, 25760, Note_on_c, 9, 38, 30
1, 25919, Note_on_c, 9, 38, 0
1, 25920, Note_on_c, 9, 42, 100
1, 25920, Note_on_c, 9, 35, 70
1, 26159, Note_on_c, 9, 42, 0
1, 26159, Note_on_c, 9, 35, 0
1, 26240, Note_on_c, 9, 38, 30
1, 26240, Note_on_c, 9, 35, 60
1, 26399, Note_on_c, 9, 38, 0
1, 26399, Note_on_c, 9, 35, 0
1, 26400, Note_on_c, 9, 38, 90
1, 26400, Note_on_c, 9, 42, 115
1, 26639, Note_on_c, 9, 38, 0
1, 26639, Note_on_c, 9, 42, 0
1, 26720, Note_on_c, 9, 38, 40
1, 26720, Note_on_c, 9, 35, 60
1, 26879, Note_on_c, 9, 38, 0
1, 26879, Note_on_c, 9, 35, 0
1, 26880, Note_on_c, 9, 42, 100
1, 26880, Note_on_c, 9, 35, 70
1, 27119, Note_on_c, 9, 42, 0
1, 27200, Note_on_c, 9, 38, 18
1, 27359, Note_on_c, 9, 35, 0
1, 27359, Note_on_c, 9, 38, 0
1, 27360, Note_on_c, 9, 38, 90
1, 27360, Note_on_c, 9, 42, 115
1, 27599, Note_on_c, 9, 38, 0
1, 27599, Note_on_c, 9, 42, 0
1, 27680, Note_on_c, 9, 38, 30
1, 27839, Note_on_c, 9, 38, 0
1, 27840, Note_on_c, 9, 42, 100
1, 27840, Note_on_c, 9, 35, 70
1, 28079, Note_on_c, 9, 42, 0
1, 28160, Note_on_c, 9, 38, 54
1, 28319, Note_on_c, 9, 35, 0
1, 28319, Note_on_c, 9, 38, 0
1, 28320, Note_on_c, 9, 38, 90
1, 28320, Note_on_c, 9, 42, 115
1, 28559, Note_on_c, 9, 38, 0
1, 28559, Note_on_c, 9, 42, 0
1, 28640, Note_on_c, 9, 38, 40
1, 28799, Note_on_c, 9, 38, 0
1, 28800, Note_on_c, 9, 42, 100
1, 28800, Note_on_c, 9, 35, 70
1, 29039, Note_on_c, 9, 42, 0
1, 29120, Note_on_c, 9, 38, 20
1, 29279, Note_on_c, 9, 35, 0
1, 29279, Note_on_c, 9, 38, 0
1, 29280, Note_on_c, 9, 38, 90
1, 29280, Note_on_c, 9, 42, 115
1, 29519, Note_on_c, 9, 38, 0
1, 29519, Note_on_c, 9, 42, 0
1, 29600, Note_on_c, 9, 38, 18
1, 29759, Note_on_c, 9, 38, 0
1, 29760, Note_on_c, 9, 42, 100
1, 29760, Note_on_c, 9, 35, 70
1, 29919, Note_on_c, 9, 42, 0
1, 29920, Note_on_c, 9, 42, 50
1, 30079, Note_on_c, 9, 42, 0
1, 30080, Note_on_c, 9, 38, 30
1, 30239, Note_on_c, 9, 35, 0
1, 30239, Note_on_c, 9, 38, 0
1, 30240, Note_on_c, 9, 38, 90
1, 30240, Note_on_c, 9, 42, 115
1, 30479, Note_on_c, 9, 38, 0
1, 30479, Note_on_c, 9, 42, 0
1, 30560, Note_on_c, 9, 38, 40
1, 30719, Note_on_c, 9, 38, 0
1, 30720, Note_on_c, 9, 49, 90
1, 30720, Note_on_c, 9, 35, 90
1, 30959, Note_on_c, 9, 49, 0
1, 31040, Note_on_c, 9, 38, 60
1, 31199, Note_on_c, 9, 35, 0
1, 31199, Note_on_c, 9, 38, 0
1, 31200, Note_on_c, 9, 38, 100
1, 31359, Note_on_c, 9, 38, 0
1, 31360, Note_on_c, 9, 38, 50
1, 31519, Note_on_c, 9, 38, 0
1, 31520, Note_on_c, 9, 41, 100
1, 31679, Note_on_c, 9, 41, 0
1, 31680, Note_on_c, 9, 38, 50
1, 31839, Note_on_c, 9, 38, 0
1, 31840, Note_on_c, 9, 38, 70
1, 31999, Note_on_c, 9, 38, 0
1, 32000, Note_on_c, 9, 48, 100
1, 32159, Note_on_c, 9, 48, 0
1, 32160, Note_on_c, 9, 38, 50
1, 32319, Note_on_c, 9, 38, 0
1, 32320, Note_on_c, 9, 45, 100
1, 32479, Note_on_c, 9, 45, 0
1, 32480, Note_on_c, 9, 41, 115
1, 32639, Note_on_c, 9, 41, 0
1, 32640, Note_on_c, 9, 42, 100
1, 32640, Note_on_c, 9, 49, 90
1, 32640, Note_on_c, 9, 35, 70
1, 32879, Note_on_c, 9, 42, 0
1, 32879, Note_on_c, 9, 49, 0
1, 32960, Note_on_c, 9, 38, 20
1, 33119, Note_on_c, 9, 35, 0
1, 33119, Note_on_c, 9, 38, 0
1, 33120, Note_on_c, 9, 38, 90
1, 33120, Note_on_c, 9, 42, 115
1, 33359, Note_on_c, 9, 38, 0
1, 33359, Note_on_c, 9, 42, 0
1, 33440, Note_on_c, 9, 38, 18
1, 33599, Note_on_c, 9, 38, 0
1, 33600, Note_on_c, 9, 42, 100
1, 33600, Note_on_c, 9, 35, 70
1, 33839, Note_on_c, 9, 42, 0
1, 33920, Note_on_c, 9, 38, 54
1, 34079, Note_on_c, 9, 35, 0
1, 34079, Note_on_c, 9, 38, 0
1, 34080, Note_on_c, 9, 38, 90
1, 34080, Note_on_c, 9, 42, 115
1, 34319, Note_on_c, 9, 38, 0
1, 34319, Note_on_c, 9, 42, 0
1, 34400, Note_on_c, 9, 38, 40
1, 34559, Note_on_c, 9, 38, 0
1, 34560, Note_on_c, 9, 42, 100
1, 34560, Note_on_c, 9, 35, 70
1, 34719, Note_on_c, 9, 42, 0
1, 34720, Note_on_c, 9, 42, 60
1, 34879, Note_on_c, 9, 42, 0
1, 34880, Note_on_c, 9, 38, 20
1, 35039, Note_on_c, 9, 35, 0
1, 35039, Note_on_c, 9, 38, 0
1, 35040, Note_on_c, 9, 38, 90
1, 35040, Note_on_c, 9, 42, 115
1, 35279, Note_on_c, 9, 38, 0
1, 35279, Note_on_c, 9, 42, 0
1, 35360, Note_on_c, 9, 38, 18
1, 35519, Note_on_c, 9, 38, 0
1, 35520, Note_on_c, 9, 42, 100
1, 35520, Note_on_c, 9, 35, 70
1, 35759, Note_on_c, 9, 42, 0
1, 35759, Note_on_c, 9, 35, 0
1, 35840, Note_on_c, 9, 38, 54
1, 35840, Note_on_c, 9, 35, 60
1, 35999, Note_on_c, 9, 38, 0
1, 35999, Note_on_c, 9, 35, 0
1, 36000, Note_on_c, 9, 38, 90
1, 36000, Note_on_c, 9, 42, 115
1, 36239, Note_on_c, 9, 38, 0
1, 36239, Note_on_c, 9, 42, 0
1, 36320, Note_on_c, 9, 38, 40
1, 36320, Note_on_c, 9, 35, 60
1, 36479, Note_on_c, 9, 38, 0
1, 36479, Note_on_c, 9, 35, 0
1, 36480, Note_on_c, 9, 42, 100
1, 36480, Note_on_c, 9, 35, 70
1, 36719, Note_on_c, 9, 42, 0
1, 36800, Note_on_c, 9, 38, 18
1, 36959, Note_on_c, 9, 35, 0
1, 36959, Note_on_c, 9, 38, 0
1, 36960, Note_on_c, 9, 38, 90
1, 36960, Note_on_c, 9, 42, 115
1, 37199, Note_on_c, 9, 38, 0
1, 37199, Note_on_c, 9, 42, 0
1, 37280, Note_on_c, 9, 38, 18
1, 37439, Note_on_c, 9, 38, 0
1, 37440, Note_on_c, 9, 42, 100
1, 37440, Note_on_c, 9, 35, 70
1, 37679, Note_on_c, 9, 42, 0
1, 37760, Note_on_c, 9, 38, 30
1, 37919, Note_on_c, 9, 35, 0
1, 37919, Note_on_c, 9, 38, 0
1, 37920, Note_on_c, 9, 38, 90
1, 37920, Note_on_c, 9, 42, 115
1, 38159, Note_on_c, 9, 38, 0
1, 38159, Note_on_c, 9, 42, 0
1, 38240, Note_on_c, 9, 38, 40
1, 38399, Note_on_c, 9, 38, 0
1, 38400, Note_on_c, 9, 38, 90
1, 38400, Note_on_c, 9, 35, 70
1, 38879, Note_on_c, 9, 38, 0
1, 38879, Note_on_c, 9, 35, 0
1, 39040, Note_on_c, 9, 38, 60
1, 39199, Note_on_c, 9, 38, 0
1, 39200, Note_on_c, 9, 38, 80
1, 39359, Note_on_c, 9, 38, 0
1, 39360, Note_on_c, 9, 48, 90
1, 39360, Note_on_c, 9, 35, 70
1, 39599, Note_on_c, 9, 48, 0
1, 39680, Note_on_c, 9, 45, 80
1, 39839, Note_on_c, 9, 35, 0
1, 39839, Note_on_c, 9, 45, 0
1, 40000, Note_on_c, 9, 41, 70
1, 40159, Note_on_c, 9, 41, 0
1, 40160, Note_on_c, 9, 41, 100
1, 40319, Note_on_c, 9, 41, 0
1, 40320, Note_on_c, 9, 51, 90
1, 40320, Note_on_c, 9, 49, 90
1, 40320, Note_on_c, 9, 35, 80
1, 40559, Note_on_c, 9, 51, 0
1, 40559, Note_on_c, 9, 49, 0
1, 40640, Note_on_c, 9, 38, 30
1, 40799, Note_on_c, 9, 35, 0
1, 40799, Note_on_c, 9, 38, 0
1, 40800, Note_on_c, 9, 38, 100
1, 40800, Note_on_c, 9, 51, 115
1, 41039, Note_on_c, 9, 38, 0
1, 41039, Note_on_c, 9, 51, 0
1, 41120, Note_on_c, 9, 38, 40
1, 41279, Note_on_c, 9, 38, 0
1, 41280, Note_on_c, 9, 51, 90
1, 41280, Note_on_c, 9, 35, 80
1, 41519, Note_on_c, 9, 51, 0
1, 41600, Note_on_c, 9, 38, 30
1, 41759, Note_on_c, 9, 35, 0
1, 41759, Note_on_c, 9, 38, 0
1, 41760, Note_on_c, 9, 38, 100
1, 41760, Note_on_c, 9, 51, 115
1, 41999, Note_on_c, 9, 38, 0
1, 41999, Note_on_c, 9, 51, 0
1, 42080, Note_on_c, 9, 51, 108
1, 42080, Note_on_c, 9, 35, 60
1, 42239, Note_on_c, 9, 51, 0
1, 42239, Note_on_c, 9, 35, 0
1, 42240, Note_on_c, 9, 51, 90
1, 42240, Note_on_c, 9, 35, 80
1, 42479, Note_on_c, 9, 51, 0
1, 42560, Note_on_c, 9, 38, 30
1, 42719, Note_on_c, 9, 35, 0
1, 42719, Note_on_c, 9, 38, 0
1, 42720, Note_on_c, 9, 38, 100
1, 42720, Note_on_c, 9, 51, 115
1, 42959, Note_on_c, 9, 38, 0
1, 42959, Note_on_c, 9, 51, 0
1, 43040, Note_on_c, 9, 38, 40
1, 43040, Note_on_c, 9, 51, 100
1, 43199, Note_on_c, 9, 38, 0
1, 43199, Note_on_c, 9, 51, 0
1, 43200, Note_on_c, 9, 35, 80
1, 43360, Note_on_c, 9, 51, 100
1, 43519, Note_on_c, 9, 51, 0
1, 43520, Note_on_c, 9, 38, 30
1, 43679, Note_on_c, 9, 35, 0
1, 43679, Note_on_c, 9, 38, 0
1, 43680, Note_on_c, 9, 38, 100
1, 43680, Note_on_c, 9, 51, 90
1, 43919, Note_on_c, 9, 38, 0
1, 43919, Note_on_c, 9, 51, 0
1, 44000, Note_on_c, 9, 51, 108
1, 44159, Note_on_c, 9, 51, 0
1, 44160, Note_on_c, 9, 51, 90
1, 44160, Note_on_c, 9, 35, 80
1, 44399, Note_on_c, 9, 51, 0
1, 44480, Note_on_c, 9, 38, 30
1, 44639, Note_on_c, 9, 35, 0
1, 44639, Note_on_c, 9, 38, 0
1, 44640, Note_on_c, 9, 38, 100
1, 44640, Note_on_c, 9, 51, 115
1, 44879, Note_on_c, 9, 38, 0
1, 44879, Note_on_c, 9, 51, 0
1, 44960, Note_on_c, 9, 38, 40
1, 45119, Note_on_c, 9, 38, 0
1, 45120, Note_on_c, 9, 51, 90
1, 45120, Note_on_c, 9, 35, 80
1, 45359, Note_on_c, 9, 51, 0
1, 45440, Note_on_c, 9, 38, 30
1, 45599, Note_on_c, 9, 35, 0
1, 45599, Note_on_c, 9, 38, 0
1, 45600, Note_on_c, 9, 38, 100
1, 45600, Note_on_c, 9, 51, 115
1, 45839, Note_on_c, 9, 38, 0
1, 45839, Note_on_c, 9, 51, 0
1, 45920, Note_on_c, 9, 38, 40
1, 45920, Note_on_c, 9, 35, 60
1, 46079, Note_on_c, 9, 38, 0
1, 46079, Note_on_c, 9, 35, 0
1, 46080, Note_on_c, 9, 38, 90
1, 46080, Note_on_c, 9, 35, 70
1, 46559, Note_on_c, 9, 38, 0
1, 46559, Note_on_c, 9, 35, 0
1, 46720, Note_on_c, 9, 38, 60
1, 46879, Note_on_c, 9, 38, 0
1, 46880, Note_on_c, 9, 38, 80
1, 47039, Note_on_c, 9, 38, 0
1, 47040, Note_on_c, 9, 48, 90
1, 47040, Note_on_c, 9, 35, 70
1, 47279, Note_on_c, 9, 48, 0
1, 47360, Note_on_c, 9, 45, 80
1, 47519, Note_on_c, 9, 35, 0
1, 47519, Note_on_c, 9, 45, 0
1, 47680, Note_on_c, 9, 41, 70
1, 47839, Note_on_c, 9, 41, 0
1, 47840, Note_on_c, 9, 41, 100
1, 47999, Note_on_c, 9, 41, 0
1, 48000, Note_on_c, 9, 51, 90
1, 48000, Note_on_c, 9, 49, 90
1, 48000, Note_on_c, 9, 35, 80
1, 48239, Note_on_c, 9, 51, 0
1, 48239, Note_on_c, 9, 49, 0
1, 48320, Note_on_c, 9, 38, 30
1, 48479, Note_on_c, 9, 35, 0
1, 48479, Note_on_c, 9, 38, 0
1, 48480, Note_on_c, 9, 38, 100
1, 48480, Note_on_c, 9, 51, 115
1, 48719, Note_on_c, 9, 38, 0
1, 48719, Note_on_c, 9, 51, 0
1, 48800, Note_on_c, 9, 38, 40
1, 48959, Note_on_c, 9, 38, 0
1, 48960, Note_on_c, 9, 51, 90
1, 48960, Note_on_c, 9, 35, 80
1, 49199, Note_on_c, 9, 51, 0
1, 49280, Note_on_c, 9, 38, 30
1, 49439, Note_on_c, 9, 35, 0
1, 49439, Note_on_c, 9, 38, 0
1, 49440, Note_on_c, 9, 38, 100
1, 49440, Note_on_c, 9, 51, 115
1, 49679, Note_on_c, 9, 38, 0
1, 49679, Note_on_c, 9, 51, 0
1, 49760, Note_on_c, 9, 38, 40
1, 49919, Note_on_c, 9, 38, 0
1, 49920, Note_on_c, 9, 51, 90
1, 49920, Note_on_c, 9, 35, 80
1, 50159, Note_on_c, 9, 51, 0
1, 50240, Note_on_c, 9, 38, 30
1, 50399, Note_on_c, 9, 35, 0
1, 50399, Note_on_c, 9, 38, 0
1, 50400, Note_on_c, 9, 38, 100
1, 50400, Note_on_c, 9, 51, 115
1, 50639, Note_on_c, 9, 38, 0
1, 50639, Note_on_c, 9, 51, 0
1, 50720, Note_on_c, 9, 38, 40
1, 50720, Note_on_c, 9, 51, 100
1, 50879, Note_on_c, 9, 38, 0
1, 50879, Note_on_c, 9, 51, 0
1, 50880, Note_on_c, 9, 35, 80
1, 51040, Note_on_c, 9, 51, 100
1, 51199, Note_on_c, 9, 51, 0
1, 51200, Note_on_c, 9, 38, 30
1, 51359, Note_on_c, 9, 35, 0
1, 51359, Note_on_c, 9, 38, 0
1, 51360, Note_on_c, 9, 38, 100
1, 51360, Note_on_c, 9, 51, 90
1, 51599, Note_on_c, 9, 38, 0
1, 51599, Note_on_c, 9, 51, 0
1, 51680, Note_on_c, 9, 51, 108
1, 51680, Note_on_c, 9, 35, 60
1, 51839, Note_on_c, 9, 51, 0
1, 51839, Note_on_c, 9, 35, 0
1, 51840, Note_on_c, 9, 51, 90
1, 51840, Note_on_c, 9, 35, 80
1, 52079, Note_on_c, 9, 51, 0
1, 52160, Note_on_c, 9, 38, 30
1, 52319, Note_on_c, 9, 35, 0
1, 52319, Note_on_c, 9, 38, 0
1, 52320, Note_on_c, 9, 38, 100
1, 52320, Note_on_c, 9, 51, 115
1, 52559, Note_on_c, 9, 38, 0
1, 52559, Note_on_c, 9, 51, 0
1, 52640, Note_on_c, 9, 38, 40
1, 52799, Note_on_c, 9, 38, 0
1, 52800, Note_on_c, 9, 51, 90
1, 52800, Note_on_c, 9, 35, 80
1, 53039, Note_on_c, 9, 51, 0
1, 53120, Note_on_c, 9, 38, 30
1, 53279, Note_on_c, 9, 35, 0
1, 53279, Note_on_c, 9, 38, 0
1, 53280, Note_on_c, 9, 38, 100
1, 53280, Note_on_c, 9, 51, 115
1, 53519, Note_on_c, 9, 38, 0
1, 53519, Note_on_c, 9, 51, 0
1, 53600, Note_on_c, 9, 38, 40
1, 53600, Note_on_c, 9, 35, 60
1, 53759, Note_on_c, 9, 38, 0
1, 53759, Note_on_c, 9, 35, 0
1, 53760, Note_on_c, 9, 49, 90
1, 53760, Note_on_c, 9, 35, 90
1, 53999, Note_on_c, 9, 49, 0
1, 54080, Note_on_c, 9, 38, 60
1, 54239, Note_on_c, 9, 35, 0
1, 54239, Note_on_c, 9, 38, 0
1, 54240, Note_on_c, 9, 38, 100
1, 54399, Note_on_c, 9, 38, 0
1, 54400, Note_on_c, 9, 38, 50
1, 54559, Note_on_c, 9, 38, 0
1, 54560, Note_on_c, 9, 41, 100
1, 54719, Note_on_c, 9, 41, 0
1, 54720, Note_on_c, 9, 38, 50
1, 54879, Note_on_c, 9, 38, 0
1, 54880, Note_on_c, 9, 38, 70
1, 55039, Note_on_c, 9, 38, 0
1, 55040, Note_on_c, 9, 48, 100
1, 55199, Note_on_c, 9, 48, 0
1, 55200, Note_on_c, 9, 38, 50
1, 55359, Note_on_c, 9, 38, 0
1, 55360, Note_on_c, 9, 45, 100
1, 55519, Note_on_c, 9, 45, 0
1, 55520, Note_on_c, 9, 41, 115
1, 55679, Note_on_c, 9, 41, 0
1, 55680, Note_on_c, 9, 51, 90
1, 55680, Note_on_c, 9, 49, 90
1, 55680, Note_on_c, 9, 35, 80
1, 55919, Note_on_c, 9, 51, 0
1, 55919, Note_on_c, 9, 49, 0
1, 56000, Note_on_c, 9, 38, 30
1, 56159, Note_on_c, 9, 35, 0
1, 56159, Note_on_c, 9, 38, 0
1, 56160, Note_on_c, 9, 38, 100
1, 56160, Note_on_c, 9, 51, 115
1, 56399, Note_on_c, 9, 38, 0
1, 56399, Note_on_c, 9, 51, 0
1, 56480, Note_on_c, 9, 38, 40
1, 56639, Note_on_c, 9, 38, 0
1, 56640, Note_on_c, 9, 51, 90
1, 56640, Note_on_c, 9, 35, 80
1, 56879, Note_on_c, 9, 51, 0
1, 56960, Note_on_c, 9, 38, 30
1, 57119, Note_on_c, 9, 35, 0
1, 57119, Note_on_c, 9, 38, 0
1, 57120, Note_on_c, 9, 38, 100
1, 57120, Note_on_c, 9, 51, 115
1, 57359, Note_on_c, 9, 38, 0
1, 57359, Note_on_c, 9, 51, 0
1, 57440, Note_on_c, 9, 38, 40
1, 57599, Note_on_c, 9, 38, 0
1, 57600, Note_on_c, 9, 51, 90
1, 57600, Note_on_c, 9, 35, 80
1, 57839, Note_on_c, 9, 51, 0
1, 57920, Note_on_c, 9, 38, 30
1, 58079, Note_on_c, 9, 35, 0
1, 58079, Note_on_c, 9, 38, 0
1, 58080, Note_on_c, 9, 38, 100
1, 58080, Note_on_c, 9, 51, 115
1, 58319, Note_on_c, 9, 38, 0
1, 58319, Note_on_c, 9, 51, 0
1, 58400, Note_on_c, 9, 38, 40
1, 58559, Note_on_c, 9, 38, 0
1, 58560, Note_on_c, 9, 35, 80
1, 58720, Note_on_c, 9, 51, 100
1, 58879, Note_on_c, 9, 51, 0
1, 58880, Note_on_c, 9, 38, 30
1, 59039, Note_on_c, 9, 35, 0
1, 59039, Note_on_c, 9, 38, 0
1, 59040, Note_on_c, 9, 38, 100
1, 59040, Note_on_c, 9, 51, 90
1, 59279, Note_on_c, 9, 38, 0
1, 59279, Note_on_c, 9, 51, 0
1, 59360, Note_on_c, 9, 38, 40
1, 59360, Note_on_c, 9, 35, 60
1, 59519, Note_on_c, 9, 38, 0
1, 59519, Note_on_c, 9, 35, 0
1, 59520, Note_on_c, 9, 51, 90
1, 59520, Note_on_c, 9, 35, 80
1, 59759, Note_on_c, 9, 51, 0
1, 59840, Note_on_c, 9, 38, 30
1, 59999, Note_on_c, 9, 35, 0
1, 59999, Note_on_c, 9, 38, 0
1, 60000, Note_on_c, 9, 38, 100
1, 60000, Note_on_c, 9, 51, 115
1, 60239, Note_on_c, 9, 38, 0
1, 60239, Note_on_c, 9, 51, 0
1, 60320, Note_on_c, 9, 38, 40
1, 60479, Note_on_c, 9, 38, 0
1, 60480, Note_on_c, 9, 51, 90
1, 60480, Note_on_c, 9, 35, 80
1, 60719, Note_on_c, 9, 51, 0
1, 60800, Note_on_c, 9, 38, 30
1, 60959, Note_on_c, 9, 35, 0
1, 60959, Note_on_c, 9, 38, 0
1, 60960, Note_on_c, 9, 38, 100
1, 60960, Note_on_c, 9, 51, 115
1, 61199, Note_on_c, 9, 38, 0
1, 61199, Note_on_c, 9, 51, 0
1, 61280, Note_on_c, 9, 51, 108
1, 61280, Note_on_c, 9, 35, 60
1, 61439, Note_on_c, 9, 51, 0
1, 61439, Note_on_c, 9, 35, 0
1, 61440, Note_on_c, 9, 38, 90
1, 61440, Note_on_c, 9, 35, 90
1, 61919, Note_on_c, 9, 38, 0
1, 61919, Note_on_c, 9, 35, 0
1, 61920, Note_on_c, 9, 38, 60
1, 62079, Note_on_c, 9, 38, 0
1, 62080, Note_on_c, 9, 38, 80
1, 62239, Note_on_c, 9, 38, 0
1, 62240, Note_on_c, 9, 38, 100
1, 62399, Note_on_c, 9, 38, 0
1, 62400, Note_on_c, 9, 35, 90
1, 62720, Note_on_c, 9, 38, 60
1, 62879, Note_on_c, 9, 35, 0
1, 62879, Note_on_c, 9, 38, 0
1, 62880, Note_on_c, 9, 38, 100
1, 63200, Note_on_c, 9, 35, 80
1, 63359, Note_on_c, 9, 38, 0
1, 63359, Note_on_c, 9, 35, 0
1, 63360, Note_on_c, 9, 51, 90
1, 63360, Note_on_c, 9, 49, 90
1, 63360, Note_on_c, 9, 35, 80
1, 63599, Note_on_c, 9, 51, 0
1, 63599, Note_on_c, 9, 49, 0
1, 63680, Note_on_c, 9, 38, 30
1, 63839, Note_on_c, 9, 35, 0
1, 63839, Note_on_c, 9, 38, 0
1, 63840, Note_on_c, 9, 38, 100
1, 63840, Note_on_c, 9, 51, 115
1, 64079, Note_on_c, 9, 38, 0
1, 64079, Note_on_c, 9, 51, 0
1, 64160, Note_on_c, 9, 38, 40
1, 64319, Note_on_c, 9, 38, 0
1, 64320, Note_on_c, 9, 51, 90
1, 64320, Note_on_c, 9, 35, 80
1, 64559, Note_on_c, 9, 51, 0
1, 64640, Note_on_c, 9, 38, 30
1, 64799, Note_on_c, 9, 35, 0
1, 64799, Note_on_c, 9, 38, 0
1, 64800, Note_on_c, 9, 38, 100
1, 64800, Note_on_c, 9, 51, 115
1, 65039, Note_on_c, 9, 38, 0
1, 65039, Note_on_c, 9, 51, 0
1, 65120, Note_on_c, 9, 38, 40
1, 65279, Note_on_c, 9, 38, 0
1, 65280, Note_on_c, 9, 51, 90
1, 65280, Note_on_c, 9, 35, 80
1, 65519, Note_on_c, 9, 51, 0
1, 65600, Note_on_c, 9, 38, 30
1, 65759, Note_on_c, 9, 35, 0
1, 65759, Note_on_c, 9, 38, 0
1, 65760, Note_on_c, 9, 38, 100
1, 65760, Note_on_c, 9, 51, 115
1, 65999, Note_on_c, 9, 38, 0
1, 65999, Note_on_c, 9, 51, 0
1, 66080, Note_on_c, 9, 38, 40
1, 66080, Note_on_c, 9, 51, 100
1, 66239, Note_on_c, 9, 38, 0
1, 66239, Note_on_c, 9, 51, 0
1, 66240, Note_on_c, 9, 35, 80
1, 66400, Note_on_c, 9, 51, 100
1, 66559, Note_on_c, 9, 51, 0
1, 66560, Note_on_c, 9, 38, 30
1, 66719, Note_on_c, 9, 35, 0
1, 66719, Note_on_c, 9, 38, 0
1, 66720, Note_on_c, 9, 38, 100
1, 66720, Note_on_c, 9, 51, 90
1, 66959, Note_on_c, 9, 38, 0
1, 66959, Note_on_c, 9, 51, 0
1, 67040, Note_on_c, 9, 38, 40
1, 67199, Note_on_c, 9, 38, 0
1, 67200, Note_on_c, 9, 51, 90
1, 67200, Note_on_c, 9, 35, 80
1, 67439, Note_on_c, 9, 51, 0
1, 67520, Note_on_c, 9, 38, 30
1, 67679, Note_on_c, 9, 35, 0
1, 67679, Note_on_c, 9, 38, 0
1, 67680, Note_on_c, 9, 38, 100
1, 67680, Note_on_c, 9, 51, 115
1, 67919, Note_on_c, 9, 38, 0
1, 67919, Note_on_c, 9, 51, 0
1, 68000, Note_on_c, 9, 38, 40
1, 68159, Note_on_c, 9, 38, 0
1, 68160, Note_on_c, 9, 51, 90
1, 68160, Note_on_c, 9, 35, 80
1, 68399, Note_on_c, 9, 51, 0
1, 68480, Note_on_c, 9, 38, 30
1, 68639, Note_on_c, 9, 35, 0
1, 68639, Note_on_c, 9, 38, 0
1, 68640, Note_on_c, 9, 38, 100
1, 68640, Note_on_c, 9, 51, 115
1, 68879, Note_on_c, 9, 38, 0
1, 68879, Note_on_c, 9, 51, 0
1, 68960, Note_on_c, 9, 51, 108
1, 69119, Note_on_c, 9, 51, 0
1, 69120, Note_on_c, 9, 38, 40
1, 69120, Note_on_c, 9, 35, 80
1, 69279, Note_on_c, 9, 38, 0
1, 69280, Note_on_c, 9, 38, 50
1, 69439, Note_on_c, 9, 38, 0
1, 69440, Note_on_c, 9, 38, 100
1, 69599, Note_on_c, 9, 35, 0
1, 69599, Note_on_c, 9, 38, 0
1, 69600, Note_on_c, 9, 38, 100
1, 69759, Note_on_c, 9, 38, 0
1, 69760, Note_on_c, 9, 38, 40
1, 69919, Note_on_c, 9, 38, 0
1, 69920, Note_on_c, 9, 38, 100
1, 70079, Note_on_c, 9, 38, 0
1, 70080, Note_on_c, 9, 38, 50
1, 70080, Note_on_c, 9, 35, 80
1, 70239, Note_on_c, 9, 38, 0
1, 70240, Note_on_c, 9, 38, 115
1, 70399, Note_on_c, 9, 38, 0
1, 70400, Note_on_c, 9, 38, 70
1, 70559, Note_on_c, 9, 35, 0
1, 70559, Note_on_c, 9, 38, 0
1, 70560, Note_on_c, 9, 38, 90
1, 70719, Note_on_c, 9, 38, 0
1, 70720, Note_on_c, 9, 38, 100
1, 70879, Note_on_c, 9, 38, 0
1, 70880, Note_on_c, 9, 38, 127
1, 71039, Note_on_c, 9, 38, 0
1, 71040, Note_on_c, 9, 51, 90
1, 71040, Note_on_c, 9, 49, 90
1, 71040, Note_on_c, 9, 35, 80
1, 71279, Note_on_c, 9, 51, 0
1, 71279, Note_on_c, 9, 49, 0
1, 71360, Note_on_c, 9, 38, 30
1, 71519, Note_on_c, 9, 35, 0
1, 71519, Note_on_c, 9, 38, 0
1, 71520, Note_on_c, 9, 38, 100
1, 71520, Note_on_c, 9, 51, 115
1, 71759, Note_on_c, 9, 38, 0
1, 71759, Note_on_c, 9, 51, 0
1, 71840, Note_on_c, 9, 38, 40
1, 71999, Note_on_c, 9, 38, 0
1, 72000, Note_on_c, 9, 51, 90
1, 72000, Note_on_c, 9, 35, 80
1, 72239, Note_on_c, 9, 51, 0
1, 72320, Note_on_c, 9, 38, 30
1, 72479, Note_on_c, 9, 35, 0
1, 72479, Note_on_c, 9, 38, 0
1, 72480, Note_on_c, 9, 38, 100
1, 72480, Note_on_c, 9, 51, 115
1, 72719, Note_on_c, 9, 38, 0
1, 72719, Note_on_c, 9, 51, 0
1, 72800, Note_on_c, 9, 38, 40
1, 72959, Note_on_c, 9, 38, 0
1, 72960, Note_on_c, 9, 51, 90
1, 72960, Note_on_c, 9, 35, 80
1, 73199, Note_on_c, 9, 51, 0
1, 73280, Note_on_c, 9, 38, 30
1, 73439, Note_on_c, 9, 35, 0
1, 73439, Note_on_c, 9, 38, 0
1, 73440, Note_on_c, 9, 38, 100
1, 73440, Note_on_c, 9, 51, 115
1, 73679, Note_on_c, 9, 38, 0
1, 73679, Note_on_c, 9, 51, 0
1, 73760, Note_on_c, 9, 38, 40
1, 73919, Note_on_c, 9, 38, 0
1, 73920, Note_on_c, 9, 51, 90
1, 73920, Note_on_c, 9, 35, 80
1, 74159, Note_on_c, 9, 51, 0
1, 74240, Note_on_c, 9, 38, 30
1, 74399, Note_on_c, 9, 35, 0
1, 74399, Note_on_c, 9, 38, 0
1, 74400, Note_on_c, 9, 38, 100
1, 74400, Note_on_c, 9, 51, 115
1, 74639, Note_on_c, 9, 38, 0
1, 74639, Note_on_c, 9, 51, 0
1, 74720, Note_on_c, 9, 51, 108
1, 74720, Note_on_c, 9, 35, 60
1, 74879, Note_on_c, 9, 51, 0
1, 74879, Note_on_c, 9, 35, 0
1, 74880, Note_on_c, 9, 51, 90
1, 74880, Note_on_c, 9, 35, 80
1, 75119, Note_on_c, 9, 51, 0
1, 75200, Note_on_c, 9, 38, 30
1, 75359, Note_on_c, 9, 35, 0
1, 75359, Note_on_c, 9, 38, 0
1, 75360, Note_on_c, 9, 38, 100
1, 75360, Note_on_c, 9, 51, 115
1, 75599, Note_on_c, 9, 38, 0
1, 75599, Note_on_c, 9, 51, 0
1, 75680, Note_on_c, 9, 38, 40
1, 75680, Note_on_c, 9, 51, 100
1, 75839, Note_on_c, 9, 38, 0
1, 75839, Note_on_c, 9, 51, 0
1, 75840, Note_on_c, 9, 35, 80
1, 76000, Note_on_c, 9, 51, 100
1, 76159, Note_on_c, 9, 51, 0
1, 76160, Note_on_c, 9, 38, 30
1, 76319, Note_on_c, 9, 35, 0
1, 76319, Note_on_c, 9, 38, 0
1, 76320, Note_on_c, 9, 38, 100
1, 76320, Note_on_c, 9, 51, 90
1, 76559, Note_on_c, 9, 38, 0
1, 76559, Note_on_c, 9, 51, 0
1, 76640, Note_on_c, 9, 38, 40
1, 76640, Note_on_c, 9, 35, 60
1, 76799, Note_on_c, 9, 38, 0
1, 76799, Note_on_c, 9, 35, 0
1, 76800, Note_on_c, 9, 38, 90
1, 76800, Note_on_c, 9, 35, 70
1, 77279, Note_on_c, 9, 38, 0
1, 77279, Note_on_c, 9, 35, 0
1, 77440, Note_on_c, 9, 38, 50
1, 77599, Note_on_c, 9, 38, 0
1, 77600, Note_on_c, 9, 38, 60
1, 77759, Note_on_c, 9, 38, 0
1, 77760, Note_on_c, 9, 38, 70
1, 77760, Note_on_c, 9, 35, 70
1, 77919, Note_on_c, 9, 38, 0
1, 77920, Note_on_c, 9, 38, 80
1, 78079, Note_on_c, 9, 38, 0
1, 78080, Note_on_c, 9, 38, 90
1, 78239, Note_on_c, 9, 35, 0
1, 78239, Note_on_c, 9, 38, 0
1, 78240, Note_on_c, 9, 38, 90
1, 78399, Note_on_c, 9, 38, 0
1, 78400, Note_on_c, 9, 38, 100
1, 78559, Note_on_c, 9, 38, 0
1, 78560, Note_on_c, 9, 38, 115
1, 78719, Note_on_c, 9, 38, 0
1, 78720, Note_on_c, 9, 51, 90
1, 78720, Note_on_c, 9, 49, 90
1, 78720, Note_on_c, 9, 35, 80
1, 78959, Note_on_c, 9, 51, 0
1, 78959, Note_on_c, 9, 49, 0
1, 79040, Note_on_c, 9, 38, 30
1, 79199, Note_on_c, 9, 35, 0
1, 79199, Note_on_c, 9, 38, 0
1, 79200, Note_on_c, 9, 38, 100
1, 79200, Note_on_c, 9, 51, 115
1, 79439, Note_on_c, 9, 38, 0
1, 79439, Note_on_c, 9, 51, 0
1, 79520, Note_on_c, 9, 38, 40
1, 79679, Note_on_c, 9, 38, 0
1, 79680, Note_on_c, 9, 51, 90
1, 79680, Note_on_c, 9, 35, 80
1, 79919, Note_on_c, 9, 51, 0
1, 80000, Note_on_c, 9, 38, 30
1, 80159, Note_on_c, 9, 35, 0
1, 80159, Note_on_c, 9, 38, 0
1, 80160, Note_on_c, 9, 38, 100
1, 80160, Note_on_c, 9, 51, 115
1, 80399, Note_on_c, 9, 38, 0
1, 80399, Note_on_c, 9, 51, 0
1, 80480, Note_on_c, 9, 51, 108
1, 80639, Note_on_c, 9, 51, 0
1, 80640, Note_on_c, 9, 51, 90
1, 80640, Note_on_c, 9, 35, 80
1, 80879, Note_on_c, 9, 51, 0
1, 80960, Note_on_c, 9, 38, 30
1, 81119, Note_on_c, 9, 35, 0
1, 81119, Note_on_c, 9, 38, 0
1, 81120, Note_on_c, 9, 38, 100
1, 81120, Note_on_c, 9, 51, 115
1, 81359, Note_on_c, 9, 38, 0
1, 81359, Note_on_c, 9, 51, 0
1, 81440, Note_on_c, 9, 38, 40
1, 81599, Note_on_c, 9, 38, 0
1, 81600, Note_on_c, 9, 51, 90
1, 81600, Note_on_c, 9, 35, 80
1, 81839, Note_on_c, 9, 51, 0
1, 81839, Note_on_c, 9, 35, 0
1, 81920, Note_on_c, 9, 38, 30
1, 81920, Note_on_c, 9, 35, 70
1, 82079, Note_on_c, 9, 38, 0
1, 82079, Note_on_c, 9, 35, 0
1, 82080, Note_on_c, 9, 38, 100
1, 82080, Note_on_c, 9, 51, 115
1, 82319, Note_on_c, 9, 38, 0
1, 82319, Note_on_c, 9, 51, 0
1, 82400, Note_on_c, 9, 38, 40
1, 82559, Note_on_c, 9, 38, 0
1, 82560, Note_on_c, 9, 51, 90
1, 82560, Note_on_c, 9, 35, 80
1, 82799, Note_on_c, 9, 51, 0
1, 82880, Note_on_c, 9, 38, 30
1, 83039, Note_on_c, 9, 35, 0
1, 83039, Note_on_c, 9, 38, 0
1, 83040, Note_on_c, 9, 38, 100
1, 83040, Note_on_c, 9, 51, 115
1, 83279, Note_on_c, 9, 38, 0
1, 83279, Note_on_c, 9, 51, 0
1, 83360, Note_on_c, 9, 38, 40
1, 83360, Note_on_c, 9, 51, 100
1, 83519, Note_on_c, 9, 38, 0
1, 83519, Note_on_c, 9, 51, 0
1, 83520, Note_on_c, 9, 35, 80
1, 83680, Note_on_c, 9, 51, 100
1, 83839, Note_on_c, 9, 51, 0
1, 83840, Note_on_c, 9, 38, 30
1, 83999, Note_on_c, 9, 35, 0
1, 83999, Note_on_c, 9, 38, 0
1, 84000, Note_on_c, 9, 38, 100
1, 84000, Note_on_c, 9, 51, 90
1, 84239, Note_on_c, 9, 38, 0
1, 84239, Note_on_c, 9, 51, 0
1, 84320, Note_on_c, 9, 38, 40
1, 84479, Note_on_c, 9, 38, 0
1, 84480, Note_on_c, 9, 38, 90
1, 84480, Note_on_c, 9, 35, 70
1, 84959, Note_on_c, 9, 38, 0
1, 84959, Note_on_c, 9, 35, 0
1, 85120, Note_on_c, 9, 38, 50
1, 85279, Note_on_c, 9, 38, 0
1, 85280, Note_on_c, 9, 38, 60
1, 85439, Note_on_c, 9, 38, 0
1, 85440, Note_on_c, 9, 38, 70
1, 85440, Note_on_c, 9, 35, 70
1, 85599, Note_on_c, 9, 38, 0
1, 85600, Note_on_c, 9, 38, 80
1, 85759, Note_on_c, 9, 38, 0
1, 85760, Note_on_c, 9, 38, 90
1, 85919, Note_on_c, 9, 35, 0
1, 85919, Note_on_c, 9, 38, 0
1, 85920, Note_on_c, 9, 38, 90
1, 86079, Note_on_c, 9, 38, 0
1, 86080, Note_on_c, 9, 38, 100
1, 86239, Note_on_c, 9, 38, 0
1, 86240, Note_on_c, 9, 38, 115
1, 86399, Note_on_c, 9, 38, 0
1, 86400, Note_on_c, 9, 51, 90
1, 86400, Note_on_c, 9, 49, 90
1, 86400, Note_on_c, 9, 35, 80
1, 86639, Note_on_c, 9, 51, 0
1, 86639, Note_on_c, 9, 49, 0
1, 86720, Note_on_c, 9, 38, 30
1, 86879, Note_on_c, 9, 35, 0
1, 86879, Note_on_c, 9, 38, 0
1, 86880, Note_on_c, 9, 38, 100
1, 86880, Note_on_c, 9, 51, 115
1, 87119, Note_on_c, 9, 38, 0
1, 87119, Note_on_c, 9, 51, 0
1, 87200, Note_on_c, 9, 38, 40
1, 87359, Note_on_c, 9, 38, 0
1, 87360, Note_on_c, 9, 51, 90
1, 87360, Note_on_c, 9, 35, 80
1, 87599, Note_on_c, 9, 51, 0
1, 87599, Note_on_c, 9, 35, 0
1, 87680, Note_on_c, 9, 38, 30
1, 87680, Note_on_c, 9, 35, 70
1, 87839, Note_on_c, 9, 38, 0
1, 87839, Note_on_c, 9, 35, 0
1, 87840, Note_on_c, 9, 38, 100
1, 87840, Note_on_c, 9, 51, 115
1, 88079, Note_on_c, 9, 38, 0
1, 88079, Note_on_c, 9, 51, 0
1, 88160, Note_on_c, 9, 38, 40
1, 88319, Note_on_c, 9, 38, 0
1, 88320, Note_on_c, 9, 51, 90
1, 88320, Note_on_c, 9, 35, 80
1, 88559, Note_on_c, 9, 51, 0
1, 88640, Note_on_c, 9, 38, 30
1, 88799, Note_on_c, 9, 35, 0
1, 88799, Note_on_c, 9, 38, 0
1, 88800, Note_on_c, 9, 38, 100
1, 88800, Note_on_c, 9, 51, 115
1, 89039, Note_on_c, 9, 38, 0
1, 89039, Note_on_c, 9, 51, 0
1, 89120, Note_on_c, 9, 38, 40
1, 89120, Note_on_c, 9, 51, 100
1, 89279, Note_on_c, 9, 38, 0
1, 89279, Note_on_c, 9, 51, 0
1, 89280, Note_on_c, 9, 35, 80
1, 89440, Note_on_c, 9, 51, 100
1, 89519, Note_on_c, 9, 35, 0
1, 89599, Note_on_c, 9, 51, 0
1, 89600, Note_on_c, 9, 38, 30
1, 89600, Note_on_c, 9, 35, 60
1, 89759, Note_on_c, 9, 38, 0
1, 89759, Note_on_c, 9, 35, 0
1, 89760, Note_on_c, 9, 38, 100
1, 89760, Note_on_c, 9, 51, 90
1, 89999, Note_on_c, 9, 38, 0
1, 89999, Note_on_c, 9, 51, 0
1, 90080, Note_on_c, 9, 38, 40
1, 90080, Note_on_c, 9, 35, 60
1, 90239, Note_on_c, 9, 38, 0
1, 90239, Note_on_c, 9, 35, 0
1, 90240, Note_on_c, 9, 51, 90
1, 90240, Note_on_c, 9, 35, 80
1, 90479, Note_on_c, 9, 51, 0
1, 90560, Note_on_c, 9, 38, 30
1, 90719, Note_on_c, 9, 35, 0
1, 90719, Note_on_c, 9, 38, 0
1, 90720, Note_on_c, 9, 38, 100
1, 90720, Note_on_c, 9, 51, 115
1, 90959, Note_on_c, 9, 38, 0
1, 90959, Note_on_c, 9, 51, 0
1, 91040, Note_on_c, 9, 38, 40
1, 91199, Note_on_c, 9, 38, 0
1, 91200, Note_on_c, 9, 35, 80
1, 91360, Note_on_c, 9, 51, 100
1, 91519, Note_on_c, 9, 51, 0
1, 91520, Note_on_c, 9, 38, 30
1, 91679, Note_on_c, 9, 35, 0
1, 91679, Note_on_c, 9, 38, 0
1, 91680, Note_on_c, 9, 38, 100
1, 91680, Note_on_c, 9, 51, 90
1, 91919, Note_on_c, 9, 38, 0
1, 91919, Note_on_c, 9, 51, 0
1, 92000, Note_on_c, 9, 38, 40
1, 92000, Note_on_c, 9, 35, 60
1, 92159, Note_on_c, 9, 38, 0
1, 92159, Note_on_c, 9, 35, 0
1, 92160, Note_on_c, 9, 38, 100
1, 92160, Note_on_c, 9, 35, 70
1, 92639, Note_on_c, 9, 38, 0
1, 92639, Note_on_c, 9, 35, 0
1, 92640, Note_on_c, 9, 38, 90
1, 92879, Note_on_c, 9, 38, 0
1, 92960, Note_on_c, 9, 38, 70
1, 93119, Note_on_c, 9, 38, 0
1, 93120, Note_on_c, 9, 38, 70
1, 93120, Note_on_c, 9, 35, 70
1, 93279, Note_on_c, 9, 38, 0
1, 93280, Note_on_c, 9, 38, 90
1, 93359, Note_on_c, 9, 38, 0
1, 93599, Note_on_c, 9, 35, 0
1, 93600, Note_on_c, 9, 38, 90
1, 93759, Note_on_c, 9, 38, 0
1, 93760, Note_on_c, 9, 38, 70
1, 93919, Note_on_c, 9, 38, 0
1, 93920, Note_on_c, 9, 38, 100
1, 94079, Note_on_c, 9, 38, 0
1, 94080, Note_on_c, 9, 51, 90
1, 94080, Note_on_c, 9, 49, 90
1, 94080, Note_on_c, 9, 35, 80
1, 94319, Note_on_c, 9, 51, 0
1, 94319, Note_on_c, 9, 49, 0
1, 94400, Note_on_c, 9, 38, 30
1, 94559, Note_on_c, 9, 35, 0
1, 94559, Note_on_c, 9, 38, 0
1, 94560, Note_on_c, 9, 38, 100
1, 94560, Note_on_c, 9, 51, 115
1, 94799, Note_on_c, 9, 38, 0
1, 94799, Note_on_c, 9, 51, 0
1, 94880, Note_on_c, 9, 38, 40
1, 95039, Note_on_c, 9, 38, 0
1, 95040, Note_on_c, 9, 51, 90
1, 95040, Note_on_c, 9, 35, 80
1, 95279, Note_on_c, 9, 51, 0
1, 95279, Note_on_c, 9, 35, 0
1, 95360, Note_on_c, 9, 38, 30
1, 95360, Note_on_c, 9, 35, 70
1, 95519, Note_on_c, 9, 38, 0
1, 95519, Note_on_c, 9, 35, 0
1, 95520, Note_on_c, 9, 38, 100
1, 95520, Note_on_c, 9, 51, 115
1, 95759, Note_on_c, 9, 38, 0
1, 95759, Note_on_c, 9, 51, 0
1, 95840, Note_on_c, 9, 38, 40
1, 95999, Note_on_c, 9, 38, 0
1, 96000, Note_on_c, 9, 51, 90
1, 96000, Note_on_c, 9, 35, 80
1, 96239, Note_on_c, 9, 51, 0
1, 96320, Note_on_c, 9, 38, 30
1, 96479, Note_on_c, 9, 35, 0
1, 96479, Note_on_c, 9, 38, 0
1, 96480, Note_on_c, 9, 38, 100
1, 96480, Note_on_c, 9, 51, 115
1, 96719, Note_on_c, 9, 38, 0
1, 96719, Note_on_c, 9, 51, 0
1, 96800, Note_on_c, 9, 38, 40
1, 96959, Note_on_c, 9, 38, 0
1, 96960, Note_on_c, 9, 35, 80
1, 97120, Note_on_c, 9, 51, 100
1, 97279, Note_on_c, 9, 51, 0
1, 97280, Note_on_c, 9, 38, 30
1, 97439, Note_on_c, 9, 35, 0
1, 97439, Note_on_c, 9, 38, 0
1, 97440, Note_on_c, 9, 38, 100
1, 97440, Note_on_c, 9, 51, 90
1, 97679, Note_on_c, 9, 38, 0
1, 97679, Note_on_c, 9, 51, 0
1, 97760, Note_on_c, 9, 38, 40
1, 97919, Note_on_c, 9, 38, 0
1, 97920, Note_on_c, 9, 51, 90
1, 97920, Note_on_c, 9, 35, 80
1, 98159, Note_on_c, 9, 51, 0
1, 98240, Note_on_c, 9, 38, 30
1, 98399, Note_on_c, 9, 35, 0
1, 98399, Note_on_c, 9, 38, 0
1, 98400, Note_on_c, 9, 38, 100
1, 98400, Note_on_c, 9, 51, 115
1, 98639, Note_on_c, 9, 38, 0
1, 98639, Note_on_c, 9, 51, 0
1, 98720, Note_on_c, 9, 38, 40
1, 98879, Note_on_c, 9, 38, 0
1, 98880, Note_on_c, 9, 51, 90
1, 98880, Note_on_c, 9, 35, 80
1, 99119, Note_on_c, 9, 51, 0
1, 99119, Note_on_c, 9, 35, 0
1, 99200, Note_on_c, 9, 38, 30
1, 99200, Note_on_c, 9, 35, 70
1, 99359, Note_on_c, 9, 38, 0
1, 99359, Note_on_c, 9, 35, 0
1, 99360, Note_on_c, 9, 38, 100
1, 99360, Note_on_c, 9, 51, 115
1, 99599, Note_on_c, 9, 38, 0
1, 99599, Note_on_c, 9, 51, 0
1, 99680, Note_on_c, 9, 51, 108
1, 99680, Note_on_c, 9, 35, 60
1, 99839, Note_on_c, 9, 51, 0
1, 99839, Note_on_c, 9, 35, 0
1, 99840, Note_on_c, 9, 38, 40
1, 99840, Note_on_c, 9, 35, 80
1, 99999, Note_on_c, 9, 38, 0
1, 100000, Note_on_c, 9, 38, 50
1, 100159, Note_on_c, 9, 38, 0
1, 100160, Note_on_c, 9, 38, 100
1, 100319, Note_on_c, 9, 35, 0
1, 100319, Note_on_c, 9, 38, 0
1, 100320, Note_on_c, 9, 38, 100
1, 100479, Note_on_c, 9, 38, 0
1, 100480, Note_on_c, 9, 38, 40
1, 100639, Note_on_c, 9, 38, 0
1, 100640, Note_on_c, 9, 38, 100
1, 100799, Note_on_c, 9, 38, 0
1, 100800, Note_on_c, 9, 38, 50
1, 100800, Note_on_c, 9, 35, 80
1, 100959, Note_on_c, 9, 38, 0
1, 100960, Note_on_c, 9, 38, 115
1, 101119, Note_on_c, 9, 38, 0
1, 101120, Note_on_c, 9, 38, 70
1, 101279, Note_on_c, 9, 35, 0
1, 101279, Note_on_c, 9, 38, 0
1, 101280, Note_on_c, 9, 38, 90
1, 101439, Note_on_c, 9, 38, 0
1, 101440, Note_on_c, 9, 38, 100
1, 101599, Note_on_c, 9, 38, 0
1, 101600, Note_on_c, 9, 38, 127
1, 101759, Note_on_c, 9, 38, 0
1, 101760, Note_on_c, 9, 51, 90
1, 101760, Note_on_c, 9, 49, 90
1, 101760, Note_on_c, 9, 35, 80
1, 101999, Note_on_c, 9, 51, 0
1, 101999, Note_on_c, 9, 49, 0
1, 102080, Note_on_c, 9, 38, 30
1, 102239, Note_on_c, 9, 35, 0
1, 102239, Note_on_c, 9, 38, 0
1, 102240, Note_on_c, 9, 38, 100
1, 102240, Note_on_c, 9, 51, 115
1, 102479, Note_on_c, 9, 38, 0
1, 102479, Note_on_c, 9, 51, 0
1, 102560, Note_on_c, 9, 38, 40
1, 102719, Note_on_c, 9, 38, 0
1, 102720, Note_on_c, 9, 51, 90
1, 102720, Note_on_c, 9, 35, 80
1, 102959, Note_on_c, 9, 51, 0
1, 102959, Note_on_c, 9, 35, 0
1, 103040, Note_on_c, 9, 38, 30
1, 103040, Note_on_c, 9, 35, 70
1, 103199, Note_on_c, 9, 38, 0
1, 103199, Note_on_c, 9, 35, 0
1, 103200, Note_on_c, 9, 38, 100
1, 103200, Note_on_c, 9, 51, 115
1, 103439, Note_on_c, 9, 38, 0
1, 103439, Note_on_c, 9, 51, 0
1, 103520, Note_on_c, 9, 51, 108
1, 103520, Note_on_c, 9, 35, 60
1, 103679, Note_on_c, 9, 51, 0
1, 103679, Note_on_c, 9, 35, 0
1, 103680, Note_on_c, 9, 51, 90
1, 103680, Note_on_c, 9, 35, 80
1, 103919, Note_on_c, 9, 51, 0
1, 104000, Note_on_c, 9, 38, 30
1, 104159, Note_on_c, 9, 35, 0
1, 104159, Note_on_c, 9, 38, 0
1, 104160, Note_on_c, 9, 38, 100
1, 104160, Note_on_c, 9, 51, 115
1, 104399, Note_on_c, 9, 38, 0
1, 104399, Note_on_c, 9, 51, 0
1, 104480, Note_on_c, 9, 38, 40
1, 104639, Note_on_c, 9, 38, 0
1, 104640, Note_on_c, 9, 51, 90
1, 104640, Note_on_c, 9, 35, 80
1, 104879, Note_on_c, 9, 51, 0
1, 104879, Note_on_c, 9, 35, 0
1, 104960, Note_on_c, 9, 38, 30
1, 104960, Note_on_c, 9, 35, 70
1, 105119, Note_on_c, 9, 38, 0
1, 105119, Note_on_c, 9, 35, 0
1, 105120, Note_on_c, 9, 38, 100
1, 105120, Note_on_c, 9, 51, 115
1, 105359, Note_on_c, 9, 38, 0
1, 105359, Note_on_c, 9, 51, 0
1, 105440, Note_on_c, 9, 51, 108
1, 105440, Note_on_c, 9, 35, 60
1, 105599, Note_on_c, 9, 51, 0
1, 105599, Note_on_c, 9, 35, 0
1, 105600, Note_on_c, 9, 51, 90
1, 105600, Note_on_c, 9, 35, 80
1, 105839, Note_on_c, 9, 51, 0
1, 105920, Note_on_c, 9, 38, 30
1, 106079, Note_on_c, 9, 35, 0
1, 106079, Note_on_c, 9, 38, 0
1, 106080, Note_on_c, 9, 38, 100
1, 106080, Note_on_c, 9, 51, 115
1, 106319, Note_on_c, 9, 38, 0
1, 106319, Note_on_c, 9, 51, 0
1, 106400, Note_on_c, 9, 38, 40
1, 106559, Note_on_c, 9, 38, 0
1, 106560, Note_on_c, 9, 51, 90
1, 106560, Note_on_c, 9, 35, 80
1, 106799, Note_on_c, 9, 51, 0
1, 106880, Note_on_c, 9, 38, 30
1, 107039, Note_on_c, 9, 35, 0
1, 107039, Note_on_c, 9, 38, 0
1, 107040, Note_on_c, 9, 38, 100
1, 107040, Note_on_c, 9, 51, 115
1, 107279, Note_on_c, 9, 38, 0
1, 107279, Note_on_c, 9, 51, 0
1, 107360, Note_on_c, 9, 38, 40
1, 107360, Note_on_c, 9, 35, 60
1, 107519, Note_on_c, 9, 38, 0
1, 107519, Note_on_c, 9, 35, 0
1, 107520, Note_on_c, 9, 38, 40
1, 107520, Note_on_c, 9, 35, 80
1, 107679, Note_on_c, 9, 38, 0
1, 107680, Note_on_c, 9, 38, 50
1, 107839, Note_on_c, 9, 38, 0
1, 107840, Note_on_c, 9, 38, 100
1, 107999, Note_on_c, 9, 35, 0
1, 107999, Note_on_c, 9, 38, 0
1, 108000, Note_on_c, 9, 38, 100
1, 108159, Note_on_c, 9, 38, 0
1, 108160, Note_on_c, 9, 38, 40
1, 108319, Note_on_c, 9, 38, 0
1, 108320, Note_on_c, 9, 38, 100
1, 108479, Note_on_c, 9, 38, 0
1, 108480, Note_on_c, 9, 38, 50
1, 108480, Note_on_c, 9, 35, 80
1, 108639, Note_on_c, 9, 38, 0
1, 108640, Note_on_c, 9, 38, 115
1, 108799, Note_on_c, 9, 38, 0
1, 108800, Note_on_c, 9, 38, 70
1, 108959, Note_on_c, 9, 35, 0
1, 108959, Note_on_c, 9, 38, 0
1, 108960, Note_on_c, 9, 38, 90
1, 109119, Note_on_c, 9, 38, 0
1, 109120, Note_on_c, 9, 38, 100
1, 109279, Note_on_c, 9, 38, 0
1, 109280, Note_on_c, 9, 38, 127
1, 109439, Note_on_c, 9, 38, 0
1, 109440, Note_on_c, 9, 51, 90
1, 109440, Note_on_c, 9, 49, 90
1, 109440, Note_on_c, 9, 35, 80
1, 109679, Note_on_c, 9, 51, 0
1, 109679, Note_on_c, 9, 49, 0
1, 109760, Note_on_c, 9, 38, 30
1, 109919, Note_on_c, 9, 35, 0
1, 109919, Note_on_c, 9, 38, 0
1, 109920, Note_on_c, 9, 38, 100
1, 109920, Note_on_c, 9, 51, 115
1, 110159, Note_on_c, 9, 38, 0
1, 110159, Note_on_c, 9, 51, 0
1, 110240, Note_on_c, 9, 38, 40
1, 110399, Note_on_c, 9, 38, 0
1, 110400, Note_on_c, 9, 51, 90
1, 110400, Note_on_c, 9, 35, 80
1, 110639, Note_on_c, 9, 51, 0
1, 110720, Note_on_c, 9, 38, 30
1, 110879, Note_on_c, 9, 35, 0
1, 110879, Note_on_c, 9, 38, 0
1, 110880, Note_on_c, 9, 38, 100
1, 110880, Note_on_c, 9, 51, 115
1, 111119, Note_on_c, 9, 38, 0
1, 111119, Note_on_c, 9, 51, 0
1, 111200, Note_on_c, 9, 38, 40
1, 111200, Note_on_c, 9, 35, 60
1, 111359, Note_on_c, 9, 38, 0
1, 111359, Note_on_c, 9, 35, 0
1, 111360, Note_on_c, 9, 51, 90
1, 111360, Note_on_c, 9, 35, 80
1, 111599, Note_on_c, 9, 51, 0
1, 111680, Note_on_c, 9, 38, 30
1, 111839, Note_on_c, 9, 35, 0
1, 111839, Note_on_c, 9, 38, 0
1, 111840, Note_on_c, 9, 38, 100
1, 111840, Note_on_c, 9, 51, 115
1, 112079, Note_on_c, 9, 38, 0
1, 112079, Note_on_c, 9, 51, 0
1, 112160, Note_on_c, 9, 38, 40
1, 112319, Note_on_c, 9, 38, 0
1, 112320, Note_on_c, 9, 51, 90
1, 112320, Note_on_c, 9, 35, 80
1, 112559, Note_on_c, 9, 51, 0
1, 112640, Note_on_c, 9, 38, 30
1, 112799, Note_on_c, 9, 35, 0
1, 112799, Note_on_c, 9, 38, 0
1, 112800, Note_on_c, 9, 38, 100
1, 112800, Note_on_c, 9, 51, 115
1, 113039, Note_on_c, 9, 38, 0
1, 113039, Note_on_c, 9, 51, 0
1, 113120, Note_on_c, 9, 51, 108
1, 113279, Note_on_c, 9, 51, 0
1, 113280, Note_on_c, 9, 51, 90
1, 113280, Note_on_c, 9, 35, 80
1, 113519, Note_on_c, 9, 51, 0
1, 113600, Note_on_c, 9, 38, 30
1, 113759, Note_on_c, 9, 35, 0
1, 113759, Note_on_c, 9, 38, 0
1, 113760, Note_on_c, 9, 38, 100
1, 113760, Note_on_c, 9, 51, 115
1, 113999, Note_on_c, 9, 38, 0
1, 113999, Note_on_c, 9, 51, 0
1, 114080, Note_on_c, 9, 38, 40
1, 114239, Note_on_c, 9, 38, 0
1, 114240, Note_on_c, 9, 35, 80
1, 114400, Note_on_c, 9, 51, 100
1, 114559, Note_on_c, 9, 51, 0
1, 114560, Note_on_c, 9, 38, 30
1, 114719, Note_on_c, 9, 35, 0
1, 114719, Note_on_c, 9, 38, 0
1, 114720, Note_on_c, 9, 38, 100
1, 114720, Note_on_c, 9, 51, 90
1, 114959, Note_on_c, 9, 38, 0
1, 114959, Note_on_c, 9, 51, 0
1, 115040, Note_on_c, 9, 38, 40
1, 115040, Note_on_c, 9, 35, 60
1, 115199, Note_on_c, 9, 38, 0
1, 115199, Note_on_c, 9, 35, 0
1, 115200, Note_on_c, 9, 38, 100
1, 115200, Note_on_c, 9, 35, 70
1, 115679, Note_on_c, 9, 38, 0
1, 115679, Note_on_c, 9, 35, 0
1, 115680, Note_on_c, 9, 38, 90
1, 115919, Note_on_c, 9, 38, 0
1, 116000, Note_on_c, 9, 38, 70
1, 116159, Note_on_c, 9, 38, 0
1, 116160, Note_on_c, 9, 38, 70
1, 116160, Note_on_c, 9, 35, 70
1, 116319, Note_on_c, 9, 38, 0
1, 116320, Note_on_c, 9, 38, 90
1, 116399, Note_on_c, 9, 38, 0
1, 116639, Note_on_c, 9, 35, 0
1, 116640, Note_on_c, 9, 38, 90
1, 116799, Note_on_c, 9, 38, 0
1, 116800, Note_on_c, 9, 38, 70
1, 116959, Note_on_c, 9, 38, 0
1, 116960, Note_on_c, 9, 38, 100
1, 117119, Note_on_c, 9, 38, 0
1, 117120, Note_on_c, 9, 51, 90
1, 117120, Note_on_c, 9, 49, 90
1, 117120, Note_on_c, 9, 35, 80
1, 117359, Note_on_c, 9, 51, 0
1, 117359, Note_on_c, 9, 49, 0
1, 117440, Note_on_c, 9, 38, 30
1, 117599, Note_on_c, 9, 35, 0
1, 117599, Note_on_c, 9, 38, 0
1, 117600, Note_on_c, 9, 38, 100
1, 117600, Note_on_c, 9, 51, 115
1, 117839, Note_on_c, 9, 38, 0
1, 117839, Note_on_c, 9, 51, 0
1, 117920, Note_on_c, 9, 38, 40
1, 118079, Note_on_c, 9, 38, 0
1, 118080, Note_on_c, 9, 51, 90
1, 118080, Note_on_c, 9, 35, 80
1, 118319, Note_on_c, 9, 51, 0
1, 118400, Note_on_c, 9, 38, 30
1, 118559, Note_on_c, 9, 35, 0
1, 118559, Note_on_c, 9, 38, 0
1, 118560, Note_on_c, 9, 38, 100
1, 118560, Note_on_c, 9, 51, 115
1, 118799, Note_on_c, 9, 38, 0
1, 118799, Note_on_c, 9, 51, 0
1, 118880, Note_on_c, 9, 38, 40
1, 119039, Note_on_c, 9, 38, 0
1, 119040, Note_on_c, 9, 51, 90
1, 119040, Note_on_c, 9, 35, 80
1, 119279, Note_on_c, 9, 51, 0
1, 119360, Note_on_c, 9, 38, 30
1, 119519, Note_on_c, 9, 35, 0
1, 119519, Note_on_c, 9, 38, 0
1, 119520, Note_on_c, 9, 38, 100
1, 119520, Note_on_c, 9, 51, 115
1, 119759, Note_on_c, 9, 38, 0
1, 119759, Note_on_c, 9, 51, 0
1, 119840, Note_on_c, 9, 38, 40
1, 119999, Note_on_c, 9, 38, 0
1, 120000, Note_on_c, 9, 51, 90
1, 120000, Note_on_c, 9, 35, 80
1, 120239, Note_on_c, 9, 51, 0
1, 120320, Note_on_c, 9, 38, 30
1, 120479, Note_on_c, 9, 35, 0
1, 120479, Note_on_c, 9, 38, 0
1, 120480, Note_on_c, 9, 38, 100
1, 120480, Note_on_c, 9, 51, 115
1, 120719, Note_on_c, 9, 38, 0
1, 120719, Note_on_c, 9, 51, 0
1, 120800, Note_on_c, 9, 38, 40
1, 120959, Note_on_c, 9, 38, 0
1, 120960, Note_on_c, 9, 51, 90
1, 120960, Note_on_c, 9, 35, 80
1, 121199, Note_on_c, 9, 51, 0
1, 121280, Note_on_c, 9, 38, 30
1, 121439, Note_on_c, 9, 35, 0
1, 121439, Note_on_c, 9, 38, 0
1, 121440, Note_on_c, 9, 38, 100
1, 121440, Note_on_c, 9, 51, 115
1, 121679, Note_on_c, 9, 38, 0
1, 121679, Note_on_c, 9, 51, 0
1, 121760, Note_on_c, 9, 38, 40
1, 121919, Note_on_c, 9, 38, 0
1, 121920, Note_on_c, 9, 35, 80
1, 122080, Note_on_c, 9, 51, 100
1, 122159, Note_on_c, 9, 35, 0
1, 122239, Note_on_c, 9, 51, 0
1, 122240, Note_on_c, 9, 38, 30
1, 122240, Note_on_c, 9, 35, 60
1, 122399, Note_on_c, 9, 38, 0
1, 122399, Note_on_c, 9, 35, 0
1, 122400, Note_on_c, 9, 38, 100
1, 122400, Note_on_c, 9, 51, 90
1, 122639, Note_on_c, 9, 38, 0
1, 122639, Note_on_c, 9, 51, 0
1, 122720, Note_on_c, 9, 38, 40
1, 122879, Note_on_c, 9, 38, 0
1, 122880, Note_on_c, 9, 38, 127
1, 122880, Note_on_c, 9, 35, 90
1, 123039, Note_on_c, 9, 38, 0
1, 123040, Note_on_c, 9, 38, 40
1, 123199, Note_on_c, 9, 38, 0
1, 123200, Note_on_c, 9, 38, 40
1, 123359, Note_on_c, 9, 35, 0
1, 123359, Note_on_c, 9, 38, 0
1, 123360, Note_on_c, 9, 41, 90
1, 123519, Note_on_c, 9, 41, 0
1, 123520, Note_on_c, 9, 38, 40
1, 123679, Note_on_c, 9, 38, 0
1, 123680, Note_on_c, 9, 38, 100
1, 123839, Note_on_c, 9, 38, 0
1, 123840, Note_on_c, 9, 38, 40
1, 123840, Note_on_c, 9, 35, 90
1, 123999, Note_on_c, 9, 38, 0
1, 124000, Note_on_c, 9, 38, 100
1, 124159, Note_on_c, 9, 38, 0
1, 124160, Note_on_c, 9, 38, 40
1, 124319, Note_on_c, 9, 35, 0
1, 124319, Note_on_c, 9, 38, 0
1, 124320, Note_on_c, 9, 38, 100
1, 124479, Note_on_c, 9, 38, 0
1, 124480, Note_on_c, 9, 45, 108
1, 124639, Note_on_c, 9, 45, 0
1, 124640, Note_on_c, 9, 41, 100
1, 124640, Note_on_c, 9, 35, 70
1, 124799, Note_on_c, 9, 41, 0
1, 124799, Note_on_c, 9, 35, 0
1, 124800, Note_on_c, 9, 51, 90
1, 124800, Note_on_c, 9, 49, 90
1, 124800, Note_on_c, 9, 35, 80
1, 125039, Note_on_c, 9, 51, 0
1, 125039, Note_on_c, 9, 49, 0
1, 125120, Note_on_c, 9, 38, 30
1, 125279, Note_on_c, 9, 35, 0
1, 125279, Note_on_c, 9, 38, 0
1, 125280, Note_on_c, 9, 38, 100
1, 125280, Note_on_c, 9, 51, 115
1, 125519, Note_on_c, 9, 38, 0
1, 125519, Note_on_c, 9, 51, 0
1, 125600, Note_on_c, 9, 38, 40
1, 125759, Note_on_c, 9, 38, 0
1, 125760, Note_on_c, 9, 51, 90
1, 125760, Note_on_c, 9, 35, 80
1, 125999, Note_on_c, 9, 51, 0
1, 126080, Note_on_c, 9, 38, 30
1, 126239, Note_on_c, 9, 35, 0
1, 126239, Note_on_c, 9, 38, 0
1, 126240, Note_on_c, 9, 38, 100
1, 126240, Note_on_c, 9, 51, 115
1, 126479, Note_on_c, 9, 38, 0
1, 126479, Note_on_c, 9, 51, 0
1, 126560, Note_on_c, 9, 38, 40
1, 126719, Note_on_c, 9, 38, 0
1, 126720, Note_on_c, 9, 51, 90
1, 126720, Note_on_c, 9, 35, 80
1, 126959, Note_on_c, 9, 51, 0
1, 127040, Note_on_c, 9, 38, 30
1, 127199, Note_on_c, 9, 35, 0
1, 127199, Note_on_c, 9, 38, 0
1, 127200, Note_on_c, 9, 38, 100
1, 127200, Note_on_c, 9, 51, 115
1, 127439, Note_on_c, 9, 38, 0
1, 127439, Note_on_c, 9, 51, 0
1, 127520, Note_on_c, 9, 38, 40
1, 127520, Note_on_c, 9, 51, 100
1, 127679, Note_on_c, 9, 38, 0
1, 127679, Note_on_c, 9, 51, 0
1, 127680, Note_on_c, 9, 35, 80
1, 127840, Note_on_c, 9, 51, 100
1, 127919, Note_on_c, 9, 35, 0
1, 127999, Note_on_c, 9, 51, 0
1, 128000, Note_on_c, 9, 38, 30
1, 128000, Note_on_c, 9, 35, 60
1, 128159, Note_on_c, 9, 38, 0
1, 128159, Note_on_c, 9, 35, 0
1, 128160, Note_on_c, 9, 38, 100
1, 128160, Note_on_c, 9, 51, 90
1, 128399, Note_on_c, 9, 38, 0
1, 128399, Note_on_c, 9, 51, 0
1, 128480, Note_on_c, 9, 38, 40
1, 128639, Note_on_c, 9, 38, 0
1, 128640, Note_on_c, 9, 51, 90
1, 128640, Note_on_c, 9, 35, 80
1, 128879, Note_on_c, 9, 51, 0
1, 128960, Note_on_c, 9, 38, 30
1, 129119, Note_on_c, 9, 35, 0
1, 129119, Note_on_c, 9, 38, 0
1, 129120, Note_on_c, 9, 38, 100
1, 129120, Note_on_c, 9, 51, 115
1, 129359, Note_on_c, 9, 38, 0
1, 129359, Note_on_c, 9, 51, 0
1, 129440, Note_on_c, 9, 38, 40
1, 129599, Note_on_c, 9, 38, 0
1, 129600, Note_on_c, 9, 35, 80
1, 129760, Note_on_c, 9, 51, 100
1, 129919, Note_on_c, 9, 51, 0
1, 129920, Note_on_c, 9, 38, 30
1, 130079, Note_on_c, 9, 35, 0
1, 130079, Note_on_c, 9, 38, 0
1, 130080, Note_on_c, 9, 38, 100
1, 130080, Note_on_c, 9, 51, 90
1, 130319, Note_on_c, 9, 38, 0
1, 130319, Note_on_c, 9, 51, 0
1, 130400, Note_on_c, 9, 38, 40
1, 130400, Note_on_c, 9, 35, 60
1, 130559, Note_on_c, 9, 38, 0
1, 130559, Note_on_c, 9, 35, 0
1, 130560, Note_on_c, 9, 49, 90
1, 130560, Note_on_c, 9, 35, 90
1, 130799, Note_on_c, 9, 49, 0
1, 130880, Note_on_c, 9, 38, 60
1, 131039, Note_on_c, 9, 35, 0
1, 131039, Note_on_c, 9, 38, 0
1, 131040, Note_on_c, 9, 38, 100
1, 131199, Note_on_c, 9, 38, 0
1, 131200, Note_on_c, 9, 38, 50
1, 131359, Note_on_c, 9, 38, 0
1, 131360, Note_on_c, 9, 41, 100
1, 131519, Note_on_c, 9, 41, 0
1, 131520, Note_on_c, 9, 38, 50
1, 131679, Note_on_c, 9, 38, 0
1, 131680, Note_on_c, 9, 38, 70
1, 131839, Note_on_c, 9, 38, 0
1, 131840, Note_on_c, 9, 48, 100
1, 131999, Note_on_c, 9, 48, 0
1, 132000, Note_on_c, 9, 38, 50
1, 132159, Note_on_c, 9, 38, 0
1, 132160, Note_on_c, 9, 45, 100
1, 132319, Note_on_c, 9, 45, 0
1, 132320, Note_on_c, 9, 41, 115
1, 132479, Note_on_c, 9, 41, 0
1, 132480, Note_on_c, 9, 42, 100
1, 132480, Note_on_c, 9, 49, 90
1, 132480, Note_on_c, 9, 35, 70
1, 132719, Note_on_c, 9, 42, 0
1, 132719, Note_on_c, 9, 49, 0
1, 132800, Note_on_c, 9, 38, 20
1, 132959, Note_on_c, 9, 35, 0
1, 132959, Note_on_c, 9, 38, 0
1, 132960, Note_on_c, 9, 38, 90
1, 132960, Note_on_c, 9, 42, 115
1, 133199, Note_on_c, 9, 38, 0
1, 133199, Note_on_c, 9, 42, 0
1, 133280, Note_on_c, 9, 38, 18
1, 133439, Note_on_c, 9, 38, 0
1, 133440, Note_on_c, 9, 42, 100
1, 133440, Note_on_c, 9, 35, 70
1, 133599, Note_on_c, 9, 42, 0
1, 133600, Note_on_c, 9, 42, 50
1, 133759, Note_on_c, 9, 42, 0
1, 133760, Note_on_c, 9, 38, 30
1, 133919, Note_on_c, 9, 35, 0
1, 133919, Note_on_c, 9, 38, 0
1, 133920, Note_on_c, 9, 38, 90
1, 133920, Note_on_c, 9, 42, 115
1, 134159, Note_on_c, 9, 38, 0
1, 134159, Note_on_c, 9, 42, 0
1, 134240, Note_on_c, 9, 38, 40
1, 134399, Note_on_c, 9, 38, 0
1, 134400, Note_on_c, 9, 42, 100
1, 134400, Note_on_c, 9, 35, 70
1, 134639, Note_on_c, 9, 42, 0
1, 134720, Note_on_c, 9, 38, 18
1, 134720, Note_on_c, 9, 42, 70
1, 134879, Note_on_c, 9, 35, 0
1, 134879, Note_on_c, 9, 38, 0
1, 134879, Note_on_c, 9, 42, 0
1, 134880, Note_on_c, 9, 38, 90
1, 134880, Note_on_c, 9, 42, 115
1, 135119, Note_on_c, 9, 38, 0
1, 135119, Note_on_c, 9, 42, 0
1, 135200, Note_on_c, 9, 38, 30
1, 135359, Note_on_c, 9, 38, 0
1, 135360, Note_on_c, 9, 42, 100
1, 135360, Note_on_c, 9, 35, 70
1, 135599, Note_on_c, 9, 42, 0
1, 135680, Note_on_c, 9, 38, 30
1, 135839, Note_on_c, 9, 35, 0
1, 135839, Note_on_c, 9, 38, 0
1, 135840, Note_on_c, 9, 38, 90
1, 135840, Note_on_c, 9, 42, 115
1, 136079, Note_on_c, 9, 38, 0
1, 136079, Note_on_c, 9, 42, 0
1, 136160, Note_on_c, 9, 38, 40
1, 136160, Note_on_c, 9, 42, 100
1, 136160, Note_on_c, 9, 35, 60
1, 136319, Note_on_c, 9, 38, 0
1, 136319, Note_on_c, 9, 42, 0
1, 136319, Note_on_c, 9, 35, 0
1, 136320, Note_on_c, 9, 42, 100
1, 136320, Note_on_c, 9, 35, 70
1, 136559, Note_on_c, 9, 42, 0
1, 136640, Note_on_c, 9, 38, 18
1, 136799, Note_on_c, 9, 35, 0
1, 136799, Note_on_c, 9, 38, 0
1, 136800, Note_on_c, 9, 38, 90
1, 136800, Note_on_c, 9, 42, 115
1, 137039, Note_on_c, 9, 38, 0
1, 137039, Note_on_c, 9, 42, 0
1, 137120, Note_on_c, 9, 38, 30
1, 137279, Note_on_c, 9, 38, 0
1, 137280, Note_on_c, 9, 42, 100
1, 137280, Note_on_c, 9, 35, 70
1, 137519, Note_on_c, 9, 42, 0
1, 137519, Note_on_c, 9, 35, 0
1, 137600, Note_on_c, 9, 38, 30
1, 137600, Note_on_c, 9, 35, 60
1, 137759, Note_on_c, 9, 38, 0
1, 137759, Note_on_c, 9, 35, 0
1, 137760, Note_on_c, 9, 38, 90
1, 137760, Note_on_c, 9, 42, 115
1, 137999, Note_on_c, 9, 38, 0
1, 137999, Note_on_c, 9, 42, 0
1, 138080, Note_on_c, 9, 38, 40
1, 138080, Note_on_c, 9, 35, 60
1, 138239, Note_on_c, 9, 38, 0
1, 138239, Note_on_c, 9, 35, 0
1, 138240, Note_on_c, 9, 38, 40
1, 138240, Note_on_c, 9, 35, 80
1, 138399, Note_on_c, 9, 38, 0
1, 138400, Note_on_c, 9, 38, 50
1, 138559, Note_on_c, 9, 38, 0
1, 138560, Note_on_c, 9, 38, 100
1, 138719, Note_on_c, 9, 35, 0
1, 138719, Note_on_c, 9, 38, 0
1, 138720, Note_on_c, 9, 38, 100
1, 138879, Note_on_c, 9, 38, 0
1, 138880, Note_on_c, 9, 38, 40
1, 139039, Note_on_c, 9, 38, 0
1, 139040, Note_on_c, 9, 38, 100
1, 139199, Note_on_c, 9, 38, 0
1, 139200, Note_on_c, 9, 38, 50
1, 139200, Note_on_c, 9, 35, 80
1, 139359, Note_on_c, 9, 38, 0
1, 139360, Note_on_c, 9, 38, 115
1, 139519, Note_on_c, 9, 38, 0
1, 139520, Note_on_c, 9, 38, 70
1, 139679, Note_on_c, 9, 35, 0
1, 139679, Note_on_c, 9, 38, 0
1, 139680, Note_on_c, 9, 38, 90
1, 139839, Note_on_c, 9, 38, 0
1, 139840, Note_on_c, 9, 38, 100
1, 139999, Note_on_c, 9, 38, 0
1, 140000, Note_on_c, 9, 38, 127
1, 140159, Note_on_c, 9, 38, 0
1, 140160, Note_on_c, 9, 42, 100
1, 140160, Note_on_c, 9, 49, 90
1, 140160, Note_on_c, 9, 35, 70
1, 140399, Note_on_c, 9, 42, 0
1, 140399, Note_on_c, 9, 49, 0
1, 140480, Note_on_c, 9, 38, 18
1, 140639, Note_on_c, 9, 35, 0
1, 140639, Note_on_c, 9, 38, 0
1, 140640, Note_on_c, 9, 38, 90
1, 140640, Note_on_c, 9, 42, 115
1, 140879, Note_on_c, 9, 38, 0
1, 140879, Note_on_c, 9, 42, 0
1, 140960, Note_on_c, 9, 38, 30
1, 141119, Note_on_c, 9, 38, 0
1, 141120, Note_on_c, 9, 42, 100
1, 141120, Note_on_c, 9, 35, 70
1, 141359, Note_on_c, 9, 42, 0
1, 141359, Note_on_c, 9, 35, 0
1, 141440, Note_on_c, 9, 38, 30
1, 141440, Note_on_c, 9, 35, 60
1, 141599, Note_on_c, 9, 38, 0
1, 141599, Note_on_c, 9, 35, 0
1, 141600, Note_on_c, 9, 38, 90
1, 141600, Note_on_c, 9, 42, 115
1, 141839, Note_on_c, 9, 38, 0
1, 141839, Note_on_c, 9, 42, 0
1, 141920, Note_on_c, 9, 38, 40
1, 141920, Note_on_c, 9, 35, 60
1, 142079, Note_on_c, 9, 38, 0
1, 142079, Note_on_c, 9, 35, 0
1, 142080, Note_on_c, 9, 42, 100
1, 142080, Note_on_c, 9, 35, 70
1, 142319, Note_on_c, 9, 42, 0
1, 142400, Note_on_c, 9, 38, 18
1, 142559, Note_on_c, 9, 35, 0
1, 142559, Note_on_c, 9, 38, 0
1, 142560, Note_on_c, 9, 38, 90
1, 142560, Note_on_c, 9, 42, 115
1, 142799, Note_on_c, 9, 38, 0
1, 142799, Note_on_c, 9, 42, 0
1, 142880, Note_on_c, 9, 38, 30
1, 143039, Note_on_c, 9, 38, 0
1, 143040, Note_on_c, 9, 42, 100
1, 143040, Note_on_c, 9, 35, 70
1, 143199, Note_on_c, 9, 42, 0
1, 143200, Note_on_c, 9, 42, 50
1, 143359, Note_on_c, 9, 42, 0
1, 143360, Note_on_c, 9, 38, 30
1, 143519, Note_on_c, 9, 35, 0
1, 143519, Note_on_c, 9, 38, 0
1, 143520, Note_on_c, 9, 38, 90
1, 143520, Note_on_c, 9, 42, 115
1, 143759, Note_on_c, 9, 38, 0
1, 143759, Note_on_c, 9, 42, 0
1, 143840, Note_on_c, 9, 46, 72
1, 143840, Note_on_c, 9, 42, 100
1, 143840, Note_on_c, 9, 35, 60
1, 143999, Note_on_c, 9, 46, 0
1, 143999, Note_on_c, 9, 42, 0
1, 143999, Note_on_c, 9, 35, 0
1, 144000, Note_on_c, 9, 42, 100
1, 144000, Note_on_c, 9, 35, 70
1, 144159, Note_on_c, 9, 42, 0
1, 144160, Note_on_c, 9, 42, 60
1, 144319, Note_on_c, 9, 42, 0
1, 144320, Note_on_c, 9, 38, 18
1, 144479, Note_on_c, 9, 35, 0
1, 144479, Note_on_c, 9, 38, 0
1, 144480, Note_on_c, 9, 38, 90
1, 144480, Note_on_c, 9, 42, 115
1, 144719, Note_on_c, 9, 38, 0
1, 144719, Note_on_c, 9, 42, 0
1, 144800, Note_on_c, 9, 38, 18
1, 144959, Note_on_c, 9, 38, 0
1, 144960, Note_on_c, 9, 42, 100
1, 144960, Note_on_c, 9, 35, 70
1, 145199, Note_on_c, 9, 42, 0
1, 145280, Note_on_c, 9, 38, 30
1, 145439, Note_on_c, 9, 35, 0
1, 145439, Note_on_c, 9, 38, 0
1, 145440, Note_on_c, 9, 38, 90
1, 145440, Note_on_c, 9, 42, 115
1, 145679, Note_on_c, 9, 38, 0
1, 145679, Note_on_c, 9, 42, 0
1, 145760, Note_on_c, 9, 38, 40
1, 145919, Note_on_c, 9, 38, 0
1, 145920, Note_on_c, 9, 49, 90
1, 145920, Note_on_c, 9, 35, 90
1, 146159, Note_on_c, 9, 49, 0
1, 146240, Note_on_c, 9, 38, 60
1, 146399, Note_on_c, 9, 35, 0
1, 146399, Note_on_c, 9, 38, 0
1, 146400, Note_on_c, 9, 38, 100
1, 146559, Note_on_c, 9, 38, 0
1, 146560, Note_on_c, 9, 38, 50
1, 146719, Note_on_c, 9, 38, 0
1, 146720, Note_on_c, 9, 41, 100
1, 146879, Note_on_c, 9, 41, 0
1, 146880, Note_on_c, 9, 38, 50
1, 147039, Note_on_c, 9, 38, 0
1, 147040, Note_on_c, 9, 38, 70
1, 147199, Note_on_c, 9, 38, 0
1, 147200, Note_on_c, 9, 48, 100
1, 147359, Note_on_c, 9, 48, 0
1, 147360, Note_on_c, 9, 38, 50
1, 147519, Note_on_c, 9, 38, 0
1, 147520, Note_on_c, 9, 45, 100
1, 147679, Note_on_c, 9, 45, 0
1, 147680, Note_on_c, 9, 41, 115
1, 147839, Note_on_c, 9, 41, 0
1, 147840, Note_on_c, 9, 42, 100
1, 147840, Note_on_c, 9, 49, 90
1, 147840, Note_on_c, 9, 35, 70
1, 148079, Note_on_c, 9, 42, 0
1, 148079, Note_on_c, 9, 49, 0
1, 148160, Note_on_c, 9, 38, 18
1, 148319, Note_on_c, 9, 35, 0
1, 148319, Note_on_c, 9, 38, 0
1, 148320, Note_on_c, 9, 38, 90
1, 148320, Note_on_c, 9, 42, 115
1, 148559, Note_on_c, 9, 38, 0
1, 148559, Note_on_c, 9, 42, 0
1, 148640, Note_on_c, 9, 38, 18
1, 148799, Note_on_c, 9, 38, 0
1, 148800, Note_on_c, 9, 42, 100
1, 148800, Note_on_c, 9, 35, 70
1, 149039, Note_on_c, 9, 42, 0
1, 149120, Note_on_c, 9, 38, 30
1, 149279, Note_on_c, 9, 35, 0
1, 149279, Note_on_c, 9, 38, 0
1, 149280, Note_on_c, 9, 38, 90
1, 149280, Note_on_c, 9, 42, 115
1, 149519, Note_on_c, 9, 38, 0
1, 149519, Note_on_c, 9, 42, 0
1, 149600, Note_on_c, 9, 38, 40
1, 149600, Note_on_c, 9, 42, 100
1, 149600, Note_on_c, 9, 35, 60
1, 149759, Note_on_c, 9, 38, 0
1, 149759, Note_on_c, 9, 42, 0
1, 149759, Note_on_c, 9, 35, 0
1, 149760, Note_on_c, 9, 42, 100
1, 149760, Note_on_c, 9, 35, 70
1, 149999, Note_on_c, 9, 42, 0
1, 150080, Note_on_c, 9, 38, 20
1, 150239, Note_on_c, 9, 35, 0
1, 150239, Note_on_c, 9, 38, 0
1, 150240, Note_on_c, 9, 38, 90
1, 150240, Note_on_c, 9, 42, 115
1, 150479, Note_on_c, 9, 38, 0
1, 150479, Note_on_c, 9, 42, 0
1, 150560, Note_on_c, 9, 38, 30
1, 150719, Note_on_c, 9, 38, 0
1, 150720, Note_on_c, 9, 42, 100
1, 150720, Note_on_c, 9, 35, 70
1, 150959, Note_on_c, 9, 42, 0
1, 151040, Note_on_c, 9, 38, 30
1, 151199, Note_on_c, 9, 35, 0
1, 151199, Note_on_c, 9, 38, 0
1, 151200, Note_on_c, 9, 38, 90
1, 151200, Note_on_c, 9, 42, 115
1, 151439, Note_on_c, 9, 38, 0
1, 151439, Note_on_c, 9, 42, 0
1, 151520, Note_on_c, 9, 38, 40
1, 151679, Note_on_c, 9, 38, 0
1, 151680, Note_on_c, 9, 42, 100
1, 151680, Note_on_c, 9, 35, 70
1, 151919, Note_on_c, 9, 42, 0
1, 152000, Note_on_c, 9, 38, 20
1, 152159, Note_on_c, 9, 35, 0
1, 152159, Note_on_c, 9, 38, 0
1, 152160, Note_on_c, 9, 38, 90
1, 152160, Note_on_c, 9, 42, 115
1, 152399, Note_on_c, 9, 38, 0
1, 152399, Note_on_c, 9, 42, 0
1, 152480, Note_on_c, 9, 38, 30
1, 152639, Note_on_c, 9, 38, 0
1, 152640, Note_on_c, 9, 42, 100
1, 152640, Note_on_c, 9, 35, 70
1, 152879, Note_on_c, 9, 42, 0
1, 152879, Note_on_c, 9, 35, 0
1, 152960, Note_on_c, 9, 38, 54
1, 152960, Note_on_c, 9, 35, 60
1, 153119, Note_on_c, 9, 38, 0
1, 153119, Note_on_c, 9, 35, 0
1, 153120, Note_on_c, 9, 38, 90
1, 153120, Note_on_c, 9, 42, 115
1, 153359, Note_on_c, 9, 38, 0
1, 153359, Note_on_c, 9, 42, 0
1, 153440, Note_on_c, 9, 38, 40
1, 153440, Note_on_c, 9, 35, 60
1, 153599, Note_on_c, 9, 38, 0
1, 153599, Note_on_c, 9, 35, 0
1, 153600, Note_on_c, 9, 38, 100
1, 153600, Note_on_c, 9, 35, 70
1, 154079, Note_on_c, 9, 38, 0
1, 154079, Note_on_c, 9, 35, 0
1, 154080, Note_on_c, 9, 38, 90
1, 154319, Note_on_c, 9, 38, 0
1, 154400, Note_on_c, 9, 38, 70
1, 154559, Note_on_c, 9, 38, 0
1, 154560, Note_on_c, 9, 38, 70
1, 154560, Note_on_c, 9, 35, 70
1, 154719, Note_on_c, 9, 38, 0
1, 154720, Note_on_c, 9, 38, 90
1, 154799, Note_on_c, 9, 38, 0
1, 155039, Note_on_c, 9, 35, 0
1, 155040, Note_on_c, 9, 38, 90
1, 155199, Note_on_c, 9, 38, 0
1, 155200, Note_on_c, 9, 38, 70
1, 155359, Note_on_c, 9, 38, 0
1, 155360, Note_on_c, 9, 38, 100
1, 155519, Note_on_c, 9, 38, 0
1, 155520, Note_on_c, 9, 42, 100
1, 155520, Note_on_c, 9, 49, 90
1, 155520, Note_on_c, 9, 35, 70
1, 155759, Note_on_c, 9, 42, 0
1, 155759, Note_on_c, 9, 49, 0
1, 155840, Note_on_c, 9, 38, 20
1, 155999, Note_on_c, 9, 35, 0
1, 155999, Note_on_c, 9, 38, 0
1, 156000, Note_on_c, 9, 38, 90
1, 156000, Note_on_c, 9, 42, 115
1, 156239, Note_on_c, 9, 38, 0
1, 156239, Note_on_c, 9, 42, 0
1, 156320, Note_on_c, 9, 38, 30
1, 156479, Note_on_c, 9, 38, 0
1, 156480, Note_on_c, 9, 42, 100
1, 156480, Note_on_c, 9, 35, 70
1, 156719, Note_on_c, 9, 42, 0
1, 156719, Note_on_c, 9, 35, 0
1, 156800, Note_on_c, 9, 38, 30
1, 156800, Note_on_c, 9, 35, 60
1, 156959, Note_on_c, 9, 38, 0
1, 156959, Note_on_c, 9, 35, 0
1, 156960, Note_on_c, 9, 38, 90
1, 156960, Note_on_c, 9, 42, 115
1, 157199, Note_on_c, 9, 38, 0
1, 157199, Note_on_c, 9, 42, 0
1, 157280, Note_on_c, 9, 38, 40
1, 157280, Note_on_c, 9, 35, 60
1, 157439, Note_on_c, 9, 38, 0
1, 157439, Note_on_c, 9, 35, 0
1, 157440, Note_on_c, 9, 38, 40
1, 157440, Note_on_c, 9, 35, 80
1, 157599, Note_on_c, 9, 38, 0
1, 157600, Note_on_c, 9, 38, 50
1, 157759, Note_on_c, 9, 38, 0
1, 157760, Note_on_c, 9, 38, 100
1, 157919, Note_on_c, 9, 35, 0
1, 157919, Note_on_c, 9, 38, 0
1, 157920, Note_on_c, 9, 38, 100
1, 158079, Note_on_c, 9, 38, 0
1, 158080, Note_on_c, 9, 38, 40
1, 158239, Note_on_c, 9, 38, 0
1, 158240, Note_on_c, 9, 38, 100
1, 158399, Note_on_c, 9, 38, 0
1, 158400, Note_on_c, 9, 38, 50
1, 158400, Note_on_c, 9, 35, 80
1, 158559, Note_on_c, 9, 38, 0
1, 158560, Note_on_c, 9, 38, 115
1, 158719, Note_on_c, 9, 38, 0
1, 158720, Note_on_c, 9, 38, 70
1, 158879, Note_on_c, 9, 35, 0
1, 158879, Note_on_c, 9, 38, 0
1, 158880, Note_on_c, 9, 38, 90
1, 159039, Note_on_c, 9, 38, 0
1, 159040, Note_on_c, 9, 38, 100
1, 159199, Note_on_c, 9, 38, 0
1, 159200, Note_on_c, 9, 38, 127
1, 159359, Note_on_c, 9, 38, 0
1, 159360, Note_on_c, 9, 42, 100
1, 159360, Note_on_c, 9, 49, 90
1, 159360, Note_on_c, 9, 35, 70
1, 159599, Note_on_c, 9, 42, 0
1, 159599, Note_on_c, 9, 49, 0
1, 159680, Note_on_c, 9, 38, 18
1, 159839, Note_on_c, 9, 35, 0
1, 159839, Note_on_c, 9, 38, 0
1, 159840, Note_on_c, 9, 38, 90
1, 159840, Note_on_c, 9, 42, 115
1, 160079, Note_on_c, 9, 38, 0
1, 160079, Note_on_c, 9, 42, 0
1, 160160, Note_on_c, 9, 38, 30
1, 160319, Note_on_c, 9, 38, 0
1, 160320, Note_on_c, 9, 42, 100
1, 160320, Note_on_c, 9, 35, 70
1, 160559, Note_on_c, 9, 42, 0
1, 160559, Note_on_c, 9, 35, 0
1, 160640, Note_on_c, 9, 38, 54
1, 160640, Note_on_c, 9, 35, 60
1, 160799, Note_on_c, 9, 38, 0
1, 160799, Note_on_c, 9, 35, 0
1, 160800, Note_on_c, 9, 38, 90
1, 160800, Note_on_c, 9, 42, 115
1, 161039, Note_on_c, 9, 38, 0
1, 161039, Note_on_c, 9, 42, 0
1, 161120, Note_on_c, 9, 38, 40
1, 161279, Note_on_c, 9, 38, 0
1, 161280, Note_on_c, 9, 42, 100
1, 161280, Note_on_c, 9, 35, 70
1, 161519, Note_on_c, 9, 42, 0
1, 161600, Note_on_c, 9, 38, 18
1, 161759, Note_on_c, 9, 35, 0
1, 161759, Note_on_c, 9, 38, 0
1, 161760, Note_on_c, 9, 38, 90
1, 161760, Note_on_c, 9, 42, 115
1, 161999, Note_on_c, 9, 38, 0
1, 161999, Note_on_c, 9, 42, 0
1, 162080, Note_on_c, 9, 38, 30
1, 162239, Note_on_c, 9, 38, 0
1, 162240, Note_on_c, 9, 42, 100
1, 162240, Note_on_c, 9, 35, 70
1, 162479, Note_on_c, 9, 42, 0
1, 162560, Note_on_c, 9, 38, 30
1, 162719, Note_on_c, 9, 35, 0
1, 162719, Note_on_c, 9, 38, 0
1, 162720, Note_on_c, 9, 38, 90
1, 162720, Note_on_c, 9, 42, 115
1, 162959, Note_on_c, 9, 38, 0
1, 162959, Note_on_c, 9, 42, 0
1, 163040, Note_on_c, 9, 38, 40
1, 163199, Note_on_c, 9, 38, 0
1, 163200, Note_on_c, 9, 35, 100
1, 163520, Note_on_c, 9, 38, 100
1, 163679, Note_on_c, 9, 35, 0
1, 163679, Note_on_c, 9, 38, 0
1, 164000, Note_on_c, 9, 38, 60
1, 164159, Note_on_c, 9, 38, 0
1, 164160, Note_on_c, 9, 38, 115
1, 164480, Note_on_c, 9, 35, 90
1, 164639, Note_on_c, 9, 38, 0
1, 164639, Note_on_c, 9, 35, 0
1, 164640, Note_on_c, 9, 38, 115
1, 165119, Note_on_c, 9, 38, 0
1, 165120, Note_on_c, 9, 38, 115
1, 165359, Note_on_c, 9, 38, 0
1, 165440, Note_on_c, 9, 38, 100
1, 165599, Note_on_c, 9, 38, 0
1, 165600, Note_on_c, 9, 35, 100
1, 165920, Note_on_c, 9, 38, 115
1, 166079, Note_on_c, 9, 35, 0
1, 166079, Note_on_c, 9, 38, 0
1, 166560, Note_on_c, 9, 49, 90
1, 166560, Note_on_c, 9, 35, 115
1, 167039, Note_on_c, 9, 49, 0
1, 167039, Note_on_c, 9, 35, 0
1, 167040, End_track
0, 0, End_of_file
