0, 0, Header, 1, 1, 480
1, 0, Start_track
1, 0, Time_signature, 4, 2, 24, 8
1, 0, Key_signature, 0, "major"
1, 0, Tempo, 495868
1, 0, Control_c, 9, 121, 0
1, 0, Program_c, 9, 0
1, 0, Control_c, 9, 7, 100
1, 0, Control_c, 9, 10, 64
1, 0, Control_c, 9, 91, 0
1, 0, Control_c, 9, 93, 0
1, 0, MIDI_port, 0
1, 10800, Note_on_c, 9, 41, 50
1, 10800, Note_on_c, 9, 45, 78
1, 10800, Note_on_c, 9, 48, 92
1, 10919, Note_on_c, 9, 41, 0
1, 10919, Note_on_c, 9, 45, 0
1, 10919, Note_on_c, 9, 48, 0
1, 10920, Note_on_c, 9, 41, 92
1, 10920, Note_on_c, 9, 45, 92
1, 11039, Note_on_c, 9, 41, 0
1, 11039, Note_on_c, 9, 45, 0
1, 11040, Note_on_c, 9, 41, 106
1, 11040, Note_on_c, 9, 36, 120
1, 11519, Note_on_c, 9, 41, 0
1, 11519, Note_on_c, 9, 36, 0
1, 11520, Note_on_c, 9, 56, 64
1, 11520, Note_on_c, 9, 49, 106
1, 11520, Note_on_c, 9, 36, 106
1, 11999, Note_on_c, 9, 56, 0
1, 11999, Note_on_c, 9, 49, 0
1, 11999, Note_on_c, 9, 36, 0
1, 12000, Note_on_c, 9, 56, 64
1, 12479, Note_on_c, 9, 56, 0
1, 12480, Note_on_c, 9, 56, 64
1, 12959, Note_on_c, 9, 56, 0
1, 12960, Note_on_c, 9, 56, 64
1, 13439, Note_on_c, 9, 56, 0
1, 13440, Note_on_c, 9, 56, 64
1, 13919, Note_on_c, 9, 56, 0
1, 13920, Note_on_c, 9, 56, 64
1, 14399, Note_on_c, 9, 56, 0
1, 14400, Note_on_c, 9, 56, 64
1, 14879, Note_on_c, 9, 56, 0
1, 14880, Note_on_c, 9, 56, 64
1, 15359, Note_on_c, 9, 56, 0
1, 15360, Note_on_c, 9, 56, 64
1, 15839, Note_on_c, 9, 56, 0
1, 15840, Note_on_c, 9, 56, 64
1, 16319, Note_on_c, 9, 56, 0
1, 16320, Note_on_c, 9, 56, 64
1, 16799, Note_on_c, 9, 56, 0
1, 16800, Note_on_c, 9, 56, 64
1, 17279, Note_on_c, 9, 56, 0
1, 17280, Note_on_c, 9, 56, 64
1, 17759, Note_on_c, 9, 56, 0
1, 17760, Note_on_c, 9, 56, 64
1, 18239, Note_on_c, 9, 56, 0
1, 18240, Note_on_c, 9, 56, 64
1, 18719, Note_on_c, 9, 56, 0
1, 18720, Note_on_c, 9, 41, 106
1, 18720, Note_on_c, 9, 38, 106
1, 18720, Note_on_c, 9, 36, 106
1, 18959, Note_on_c, 9, 41, 0
1, 18959, Note_on_c, 9, 38, 0
1, 18959, Note_on_c, 9, 36, 0
1, 18960, Note_on_c, 9, 41, 106
1, 18960, Note_on_c, 9, 38, 106
1, 18960, Note_on_c, 9, 36, 106
1, 19199, Note_on_c, 9, 41, 0
1, 19199, Note_on_c, 9, 38, 0
1, 19199, Note_on_c, 9, 36, 0
1, 19200, Note_on_c, 9, 56, 64
1, 19200, Note_on_c, 9, 49, 106
1, 19200, Note_on_c, 9, 36, 106
1, 19679, Note_on_c, 9, 56, 0
1, 19679, Note_on_c, 9, 49, 0
1, 19679, Note_on_c, 9, 36, 0
1, 19680, Note_on_c, 9, 56, 64
1, 20159, Note_on_c, 9, 56, 0
1, 20160, Note_on_c, 9, 56, 64
1, 20639, Note_on_c, 9, 56, 0
1, 20640, Note_on_c, 9, 56, 64
1, 21119, Note_on_c, 9, 56, 0
1, 21120, Note_on_c, 9, 56, 64
1, 21599, Note_on_c, 9, 56, 0
1, 21600, Note_on_c, 9, 56, 64
1, 22079, Note_on_c, 9, 56, 0
1, 22080, Note_on_c, 9, 56, 64
1, 22559, Note_on_c, 9, 56, 0
1, 22560, Note_on_c, 9, 56, 64
1, 23039, Note_on_c, 9, 56, 0
1, 23040, Note_on_c, 9, 56, 64
1, 23519, Note_on_c, 9, 56, 0
1, 23520, Note_on_c, 9, 56, 64
1, 23999, Note_on_c, 9, 56, 0
1, 24000, Note_on_c, 9, 56, 64
1, 24479, Note_on_c, 9, 56, 0
1, 24480, Note_on_c, 9, 56, 64
1, 24959, Note_on_c, 9, 56, 0
1, 24960, Note_on_c, 9, 56, 64
1, 25439, Note_on_c, 9, 56, 0
1, 25440, Note_on_c, 9, 56, 64
1, 25919, Note_on_c, 9, 56, 0
1, 25920, Note_on_c, 9, 56, 64
1, 26399, Note_on_c, 9, 56, 0
1, 26400, Note_on_c, 9, 56, 64
1, 26879, Note_on_c, 9, 56, 0
1, 26880, Tempo, 550459
1, 26880, Note_on_c, 9, 49, 106
1, 26880, Note_on_c, 9, 35, 120
1, 26880, Note_on_c, 9, 36, 120
1, 26999, Note_on_c, 9, 49, 0
1, 27000, Note_on_c, 9, 46, 80
1, 27059, Note_on_c, 9, 46, 0
1, 27060, Note_on_c, 9, 46, 79
1, 27119, Note_on_c, 9, 46, 0
1, 27120, Note_on_c, 9, 46, 78
1, 27179, Note_on_c, 9, 46, 0
1, 27180, Note_on_c, 9, 46, 77
1, 27239, Note_on_c, 9, 46, 0
1, 27240, Note_on_c, 9, 46, 76
1, 27299, Note_on_c, 9, 46, 0
1, 27300, Note_on_c, 9, 46, 75
1, 27359, Note_on_c, 9, 35, 0
1, 27359, Note_on_c, 9, 36, 0
1, 27359, Note_on_c, 9, 46, 0
1, 27360, Note_on_c, 9, 46, 74
1, 27419, Note_on_c, 9, 46, 0
1, 27420, Note_on_c, 9, 46, 73
1, 27479, Note_on_c, 9, 46, 0
1, 27480, Note_on_c, 9, 46, 72
1, 27539, Note_on_c, 9, 46, 0
1, 27540, Note_on_c, 9, 46, 71
1, 27599, Note_on_c, 9, 46, 0
1, 27600, Note_on_c, 9, 46, 70
1, 27659, Note_on_c, 9, 46, 0
1, 27660, Note_on_c, 9, 46, 70
1, 27719, Note_on_c, 9, 46, 0
1, 27720, Note_on_c, 9, 46, 70
1, 27779, Note_on_c, 9, 46, 0
1, 27780, Note_on_c, 9, 46, 70
1, 27839, Note_on_c, 9, 46, 0
1, 27840, Note_on_c, 9, 46, 70
1, 27899, Note_on_c, 9, 46, 0
1, 27900, Note_on_c, 9, 46, 70
1, 27959, Note_on_c, 9, 46, 0
1, 27960, Note_on_c, 9, 46, 70
1, 28019, Note_on_c, 9, 46, 0
1, 28020, Note_on_c, 9, 46, 70
1, 28079, Note_on_c, 9, 46, 0
1, 28080, Note_on_c, 9, 46, 70
1, 28139, Note_on_c, 9, 46, 0
1, 28140, Note_on_c, 9, 46, 70
1, 28199, Note_on_c, 9, 46, 0
1, 28200, Note_on_c, 9, 46, 70
1, 28259, Note_on_c, 9, 46, 0
1, 28260, Note_on_c, 9, 46, 70
1, 28319, Note_on_c, 9, 46, 0
1, 28320, Note_on_c, 9, 46, 70
1, 28379, Note_on_c, 9, 46, 0
1, 28380, Note_on_c, 9, 46, 70
1, 28439, Note_on_c, 9, 46, 0
1, 28440, Note_on_c, 9, 46, 70
1, 28499, Note_on_c, 9, 46, 0
1, 28500, Note_on_c, 9, 46, 70
1, 28559, Note_on_c, 9, 46, 0
1, 28560, Note_on_c, 9, 46, 70
1, 28619, Note_on_c, 9, 46, 0
1, 28620, Note_on_c, 9, 46, 70
1, 28679, Note_on_c, 9, 46, 0
1, 28680, Note_on_c, 9, 46, 70
1, 28739, Note_on_c, 9, 46, 0
1, 28740, Note_on_c, 9, 46, 70
1, 28799, Note_on_c, 9, 46, 0
1, 28800, Note_on_c, 9, 46, 70
1, 28859, Note_on_c, 9, 46, 0
1, 28860, Note_on_c, 9, 46, 70
1, 28919, Note_on_c, 9, 46, 0
1, 28920, Note_on_c, 9, 46, 70
1, 28979, Note_on_c, 9, 46, 0
1, 28980, Note_on_c, 9, 46, 70
1, 29039, Note_on_c, 9, 46, 0
1, 29040, Note_on_c, 9, 46, 70
1, 29099, Note_on_c, 9, 46, 0
1, 29100, Note_on_c, 9, 46, 70
1, 29159, Note_on_c, 9, 46, 0
1, 29160, Note_on_c, 9, 46, 70
1, 29219, Note_on_c, 9, 46, 0
1, 29220, Note_on_c, 9, 46, 70
1, 29279, Note_on_c, 9, 46, 0
1, 29280, Note_on_c, 9, 46, 70
1, 29339, Note_on_c, 9, 46, 0
1, 29340, Note_on_c, 9, 46, 70
1, 29399, Note_on_c, 9, 46, 0
1, 29400, Note_on_c, 9, 46, 70
1, 29459, Note_on_c, 9, 46, 0
1, 29460, Note_on_c, 9, 46, 70
1, 29519, Note_on_c, 9, 46, 0
1, 29520, Note_on_c, 9, 46, 70
1, 29579, Note_on_c, 9, 46, 0
1, 29580, Note_on_c, 9, 46, 70
1, 29639, Note_on_c, 9, 46, 0
1, 29640, Note_on_c, 9, 46, 70
1, 29699, Note_on_c, 9, 46, 0
1, 29700, Note_on_c, 9, 46, 70
1, 29759, Note_on_c, 9, 46, 0
1, 29760, Note_on_c, 9, 46, 70
1, 29819, Note_on_c, 9, 46, 0
1, 29820, Note_on_c, 9, 46, 70
1, 29879, Note_on_c, 9, 46, 0
1, 29880, Note_on_c, 9, 46, 70
1, 29939, Note_on_c, 9, 46, 0
1, 29940, Note_on_c, 9, 46, 70
1, 29999, Note_on_c, 9, 46, 0
1, 30000, Note_on_c, 9, 46, 70
1, 30059, Note_on_c, 9, 46, 0
1, 30060, Note_on_c, 9, 46, 70
1, 30119, Note_on_c, 9, 46, 0
1, 30120, Note_on_c, 9, 46, 70
1, 30179, Note_on_c, 9, 46, 0
1, 30180, Note_on_c, 9, 46, 70
1, 30239, Note_on_c, 9, 46, 0
1, 30240, Note_on_c, 9, 46, 70
1, 30299, Note_on_c, 9, 46, 0
1, 30300, Note_on_c, 9, 46, 71
1, 30359, Note_on_c, 9, 46, 0
1, 30360, Note_on_c, 9, 46, 72
1, 30419, Note_on_c, 9, 46, 0
1, 30420, Note_on_c, 9, 46, 74
1, 30479, Note_on_c, 9, 46, 0
1, 30480, Note_on_c, 9, 46, 76
1, 30539, Note_on_c, 9, 46, 0
1, 30540, Note_on_c, 9, 46, 81
1, 30599, Note_on_c, 9, 46, 0
1, 30600, Note_on_c, 9, 46, 87
1, 30659, Note_on_c, 9, 46, 0
1, 30660, Note_on_c, 9, 46, 99
1, 30719, Note_on_c, 9, 46, 0
1, 30720, Tempo, 495868
1, 30720, Note_on_c, 9, 46, 120
1, 30720, Note_on_c, 9, 36, 92
1, 30839, Note_on_c, 9, 46, 0
1, 30840, Note_on_c, 9, 42, 64
1, 31079, Note_on_c, 9, 42, 0
1, 31080, Note_on_c, 9, 42, 50
1, 31199, Note_on_c, 9, 36, 0
1, 31199, Note_on_c, 9, 42, 0
1, 31200, Note_on_c, 9, 46, 106
1, 31319, Note_on_c, 9, 46, 0
1, 31320, Note_on_c, 9, 42, 64
1, 31439, Note_on_c, 9, 42, 0
1, 31440, Note_on_c, 9, 42, 106
1, 31559, Note_on_c, 9, 42, 0
1, 31560, Note_on_c, 9, 42, 64
1, 31679, Note_on_c, 9, 42, 0
1, 31680, Note_on_c, 9, 42, 106
1, 31799, Note_on_c, 9, 42, 0
1, 31800, Note_on_c, 9, 42, 64
1, 31919, Note_on_c, 9, 42, 0
1, 31920, Note_on_c, 9, 42, 106
1, 32039, Note_on_c, 9, 42, 0
1, 32040, Note_on_c, 9, 42, 64
1, 32159, Note_on_c, 9, 42, 0
1, 32160, Note_on_c, 9, 46, 106
1, 32279, Note_on_c, 9, 46, 0
1, 32280, Note_on_c, 9, 42, 64
1, 32399, Note_on_c, 9, 42, 0
1, 32400, Note_on_c, 9, 42, 106
1, 32519, Note_on_c, 9, 42, 0
1, 32520, Note_on_c, 9, 42, 64
1, 32639, Note_on_c, 9, 42, 0
1, 32640, Note_on_c, 9, 42, 106
1, 32759, Note_on_c, 9, 42, 0
1, 32760, Note_on_c, 9, 42, 64
1, 32879, Note_on_c, 9, 42, 0
1, 32880, Note_on_c, 9, 42, 106
1, 32999, Note_on_c, 9, 42, 0
1, 33000, Note_on_c, 9, 42, 64
1, 33119, Note_on_c, 9, 42, 0
1, 33120, Note_on_c, 9, 46, 106
1, 33239, Note_on_c, 9, 46, 0
1, 33240, Note_on_c, 9, 42, 64
1, 33359, Note_on_c, 9, 42, 0
1, 33360, Note_on_c, 9, 42, 106
1, 33479, Note_on_c, 9, 42, 0
1, 33480, Note_on_c, 9, 42, 64
1, 33599, Note_on_c, 9, 42, 0
1, 33600, Note_on_c, 9, 42, 106
1, 33719, Note_on_c, 9, 42, 0
1, 33720, Note_on_c, 9, 42, 64
1, 33839, Note_on_c, 9, 42, 0
1, 33840, Note_on_c, 9, 42, 106
1, 33959, Note_on_c, 9, 42, 0
1, 33960, Note_on_c, 9, 42, 64
1, 34079, Note_on_c, 9, 42, 0
1, 34080, Note_on_c, 9, 46, 106
1, 34199, Note_on_c, 9, 46, 0
1, 34200, Note_on_c, 9, 42, 64
1, 34319, Note_on_c, 9, 42, 0
1, 34320, Note_on_c, 9, 42, 106
1, 34439, Note_on_c, 9, 42, 0
1, 34440, Note_on_c, 9, 42, 64
1, 34559, Note_on_c, 9, 42, 0
1, 34560, Note_on_c, 9, 42, 106
1, 34679, Note_on_c, 9, 42, 0
1, 34680, Note_on_c, 9, 42, 64
1, 34799, Note_on_c, 9, 42, 0
1, 34800, Note_on_c, 9, 42, 106
1, 34919, Note_on_c, 9, 42, 0
1, 34920, Note_on_c, 9, 42, 64
1, 35039, Note_on_c, 9, 42, 0
1, 35040, Note_on_c, 9, 46, 106
1, 35159, Note_on_c, 9, 46, 0
1, 35160, Note_on_c, 9, 42, 64
1, 35279, Note_on_c, 9, 42, 0
1, 35280, Note_on_c, 9, 42, 106
1, 35399, Note_on_c, 9, 42, 0
1, 35400, Note_on_c, 9, 42, 64
1, 35519, Note_on_c, 9, 42, 0
1, 35520, Note_on_c, 9, 42, 106
1, 35639, Note_on_c, 9, 42, 0
1, 35640, Note_on_c, 9, 42, 64
1, 35759, Note_on_c, 9, 42, 0
1, 35760, Note_on_c, 9, 42, 106
1, 35879, Note_on_c, 9, 42, 0
1, 35880, Note_on_c, 9, 42, 64
1, 35999, Note_on_c, 9, 42, 0
1, 36000, Note_on_c, 9, 46, 106
1, 36119, Note_on_c, 9, 46, 0
1, 36120, Note_on_c, 9, 42, 64
1, 36239, Note_on_c, 9, 42, 0
1, 36240, Note_on_c, 9, 42, 106
1, 36359, Note_on_c, 9, 42, 0
1, 36360, Note_on_c, 9, 42, 64
1, 36479, Note_on_c, 9, 42, 0
1, 36480, Note_on_c, 9, 42, 106
1, 36599, Note_on_c, 9, 42, 0
1, 36600, Note_on_c, 9, 42, 64
1, 36719, Note_on_c, 9, 42, 0
1, 36720, Note_on_c, 9, 42, 106
1, 36839, Note_on_c, 9, 42, 0
1, 36840, Note_on_c, 9, 42, 64
1, 36959, Note_on_c, 9, 42, 0
1, 36960, Note_on_c, 9, 46, 106
1, 37079, Note_on_c, 9, 46, 0
1, 37080, Note_on_c, 9, 42, 64
1, 37199, Note_on_c, 9, 42, 0
1, 37200, Note_on_c, 9, 42, 106
1, 37319, Note_on_c, 9, 42, 0
1, 37320, Note_on_c, 9, 42, 64
1, 37439, Note_on_c, 9, 42, 0
1, 37440, Note_on_c, 9, 42, 106
1, 37559, Note_on_c, 9, 42, 0
1, 37560, Note_on_c, 9, 42, 64
1, 37679, Note_on_c, 9, 42, 0
1, 37680, Note_on_c, 9, 42, 106
1, 37799, Note_on_c, 9, 42, 0
1, 37800, Note_on_c, 9, 42, 64
1, 37919, Note_on_c, 9, 42, 0
1, 37920, Note_on_c, 9, 46, 106
1, 38039, Note_on_c, 9, 46, 0
1, 38040, Note_on_c, 9, 42, 64
1, 38159, Note_on_c, 9, 42, 0
1, 38160, Note_on_c, 9, 42, 106
1, 38279, Note_on_c, 9, 42, 0
1, 38280, Note_on_c, 9, 42, 64
1, 38399, Note_on_c, 9, 42, 0
1, 38400, Note_on_c, 9, 42, 106
1, 38519, Note_on_c, 9, 42, 0
1, 38520, Note_on_c, 9, 42, 64
1, 38639, Note_on_c, 9, 42, 0
1, 38640, Note_on_c, 9, 42, 106
1, 38759, Note_on_c, 9, 42, 0
1, 38760, Note_on_c, 9, 42, 64
1, 38879, Note_on_c, 9, 42, 0
1, 38880, Note_on_c, 9, 46, 106
1, 38999, Note_on_c, 9, 46, 0
1, 39000, Note_on_c, 9, 42, 64
1, 39119, Note_on_c, 9, 42, 0
1, 39120, Note_on_c, 9, 42, 106
1, 39239, Note_on_c, 9, 42, 0
1, 39240, Note_on_c, 9, 42, 64
1, 39359, Note_on_c, 9, 42, 0
1, 39360, Note_on_c, 9, 42, 106
1, 39479, Note_on_c, 9, 42, 0
1, 39480, Note_on_c, 9, 42, 64
1, 39599, Note_on_c, 9, 42, 0
1, 39600, Note_on_c, 9, 42, 106
1, 39719, Note_on_c, 9, 42, 0
1, 39720, Note_on_c, 9, 42, 64
1, 39839, Note_on_c, 9, 42, 0
1, 39840, Note_on_c, 9, 46, 106
1, 39959, Note_on_c, 9, 46, 0
1, 39960, Note_on_c, 9, 42, 64
1, 40079, Note_on_c, 9, 42, 0
1, 40080, Note_on_c, 9, 42, 106
1, 40199, Note_on_c, 9, 42, 0
1, 40200, Note_on_c, 9, 42, 64
1, 40319, Note_on_c, 9, 42, 0
1, 40320, Note_on_c, 9, 42, 106
1, 40439, Note_on_c, 9, 42, 0
1, 40440, Note_on_c, 9, 42, 64
1, 40559, Note_on_c, 9, 42, 0
1, 40560, Note_on_c, 9, 42, 106
1, 40679, Note_on_c, 9, 42, 0
1, 40680, Note_on_c, 9, 42, 64
1, 40799, Note_on_c, 9, 42, 0
1, 40800, Note_on_c, 9, 46, 106
1, 40919, Note_on_c, 9, 46, 0
1, 40920, Note_on_c, 9, 42, 64
1, 41039, Note_on_c, 9, 42, 0
1, 41040, Note_on_c, 9, 42, 106
1, 41159, Note_on_c, 9, 42, 0
1, 41160, Note_on_c, 9, 42, 64
1, 41279, Note_on_c, 9, 42, 0
1, 41280, Note_on_c, 9, 42, 106
1, 41399, Note_on_c, 9, 42, 0
1, 41400, Note_on_c, 9, 42, 64
1, 41519, Note_on_c, 9, 42, 0
1, 41520, Note_on_c, 9, 42, 106
1, 41639, Note_on_c, 9, 42, 0
1, 41640, Note_on_c, 9, 42, 64
1, 41759, Note_on_c, 9, 42, 0
1, 41760, Note_on_c, 9, 46, 106
1, 41879, Note_on_c, 9, 46, 0
1, 41880, Note_on_c, 9, 42, 64
1, 41999, Note_on_c, 9, 42, 0
1, 42000, Note_on_c, 9, 42, 106
1, 42119, Note_on_c, 9, 42, 0
1, 42120, Note_on_c, 9, 42, 64
1, 42239, Note_on_c, 9, 42, 0
1, 42240, Note_on_c, 9, 42, 106
1, 42359, Note_on_c, 9, 42, 0
1, 42360, Note_on_c, 9, 42, 64
1, 42479, Note_on_c, 9, 42, 0
1, 42480, Note_on_c, 9, 42, 106
1, 42599, Note_on_c, 9, 42, 0
1, 42600, Note_on_c, 9, 42, 64
1, 42719, Note_on_c, 9, 42, 0
1, 42720, Note_on_c, 9, 46, 106
1, 42839, Note_on_c, 9, 46, 0
1, 42840, Note_on_c, 9, 42, 64
1, 42959, Note_on_c, 9, 42, 0
1, 42960, Note_on_c, 9, 42, 106
1, 43079, Note_on_c, 9, 42, 0
1, 43080, Note_on_c, 9, 42, 64
1, 43199, Note_on_c, 9, 42, 0
1, 43200, Note_on_c, 9, 42, 106
1, 43319, Note_on_c, 9, 42, 0
1, 43320, Note_on_c, 9, 42, 64
1, 43439, Note_on_c, 9, 42, 0
1, 43440, Note_on_c, 9, 42, 106
1, 43559, Note_on_c, 9, 42, 0
1, 43560, Note_on_c, 9, 42, 64
1, 43679, Note_on_c, 9, 42, 0
1, 43680, Note_on_c, 9, 46, 106
1, 43799, Note_on_c, 9, 46, 0
1, 43800, Note_on_c, 9, 42, 64
1, 43919, Note_on_c, 9, 42, 0
1, 43920, Note_on_c, 9, 42, 106
1, 44039, Note_on_c, 9, 42, 0
1, 44040, Note_on_c, 9, 42, 64
1, 44159, Note_on_c, 9, 42, 0
1, 44160, Note_on_c, 9, 42, 106
1, 44279, Note_on_c, 9, 42, 0
1, 44280, Note_on_c, 9, 42, 64
1, 44399, Note_on_c, 9, 42, 0
1, 44400, Note_on_c, 9, 42, 106
1, 44519, Note_on_c, 9, 42, 0
1, 44520, Note_on_c, 9, 42, 64
1, 44639, Note_on_c, 9, 42, 0
1, 44640, Note_on_c, 9, 46, 106
1, 44759, Note_on_c, 9, 46, 0
1, 44760, Note_on_c, 9, 42, 64
1, 44879, Note_on_c, 9, 42, 0
1, 44880, Note_on_c, 9, 42, 106
1, 44999, Note_on_c, 9, 42, 0
1, 45000, Note_on_c, 9, 42, 64
1, 45119, Note_on_c, 9, 42, 0
1, 45120, Note_on_c, 9, 42, 106
1, 45239, Note_on_c, 9, 42, 0
1, 45240, Note_on_c, 9, 42, 64
1, 45359, Note_on_c, 9, 42, 0
1, 45360, Note_on_c, 9, 42, 106
1, 45479, Note_on_c, 9, 42, 0
1, 45480, Note_on_c, 9, 42, 64
1, 45599, Note_on_c, 9, 42, 0
1, 45600, Note_on_c, 9, 46, 106
1, 45719, Note_on_c, 9, 46, 0
1, 45720, Note_on_c, 9, 42, 64
1, 45839, Note_on_c, 9, 42, 0
1, 45840, Note_on_c, 9, 42, 106
1, 45959, Note_on_c, 9, 42, 0
1, 45960, Note_on_c, 9, 42, 64
1, 46079, Note_on_c, 9, 42, 0
1, 46080, Note_on_c, 9, 42, 106
1, 46199, Note_on_c, 9, 42, 0
1, 46200, Note_on_c, 9, 42, 64
1, 46319, Note_on_c, 9, 42, 0
1, 46320, Note_on_c, 9, 42, 106
1, 46439, Note_on_c, 9, 42, 0
1, 46440, Note_on_c, 9, 42, 64
1, 46559, Note_on_c, 9, 42, 0
1, 46560, Note_on_c, 9, 46, 106
1, 46679, Note_on_c, 9, 46, 0
1, 46680, Note_on_c, 9, 42, 64
1, 46799, Note_on_c, 9, 42, 0
1, 46800, Note_on_c, 9, 42, 106
1, 46919, Note_on_c, 9, 42, 0
1, 46920, Note_on_c, 9, 42, 64
1, 47039, Note_on_c, 9, 42, 0
1, 47040, Note_on_c, 9, 42, 106
1, 47159, Note_on_c, 9, 42, 0
1, 47160, Note_on_c, 9, 42, 64
1, 47279, Note_on_c, 9, 42, 0
1, 47280, Note_on_c, 9, 42, 106
1, 47399, Note_on_c, 9, 42, 0
1, 47400, Note_on_c, 9, 42, 64
1, 47519, Note_on_c, 9, 42, 0
1, 47520, Note_on_c, 9, 46, 106
1, 47639, Note_on_c, 9, 46, 0
1, 47640, Note_on_c, 9, 42, 64
1, 47759, Note_on_c, 9, 42, 0
1, 47760, Note_on_c, 9, 42, 106
1, 47879, Note_on_c, 9, 42, 0
1, 47880, Note_on_c, 9, 42, 64
1, 47999, Note_on_c, 9, 42, 0
1, 48000, Note_on_c, 9, 42, 106
1, 48119, Note_on_c, 9, 42, 0
1, 48120, Note_on_c, 9, 42, 64
1, 48239, Note_on_c, 9, 42, 0
1, 48240, Note_on_c, 9, 42, 106
1, 48359, Note_on_c, 9, 42, 0
1, 48360, Note_on_c, 9, 42, 64
1, 48479, Note_on_c, 9, 42, 0
1, 48480, Note_on_c, 9, 46, 106
1, 48599, Note_on_c, 9, 46, 0
1, 48600, Note_on_c, 9, 42, 64
1, 48719, Note_on_c, 9, 42, 0
1, 48720, Note_on_c, 9, 42, 106
1, 48839, Note_on_c, 9, 42, 0
1, 48840, Note_on_c, 9, 42, 64
1, 48959, Note_on_c, 9, 42, 0
1, 48960, Note_on_c, 9, 42, 106
1, 49079, Note_on_c, 9, 42, 0
1, 49080, Note_on_c, 9, 42, 64
1, 49199, Note_on_c, 9, 42, 0
1, 49200, Note_on_c, 9, 42, 106
1, 49319, Note_on_c, 9, 42, 0
1, 49320, Note_on_c, 9, 42, 64
1, 49439, Note_on_c, 9, 42, 0
1, 49440, Note_on_c, 9, 46, 106
1, 49559, Note_on_c, 9, 46, 0
1, 49560, Note_on_c, 9, 42, 64
1, 49679, Note_on_c, 9, 42, 0
1, 49680, Note_on_c, 9, 42, 106
1, 49799, Note_on_c, 9, 42, 0
1, 49800, Note_on_c, 9, 42, 64
1, 49919, Note_on_c, 9, 42, 0
1, 49920, Note_on_c, 9, 42, 106
1, 50039, Note_on_c, 9, 42, 0
1, 50040, Note_on_c, 9, 42, 64
1, 50159, Note_on_c, 9, 42, 0
1, 50160, Note_on_c, 9, 42, 106
1, 50279, Note_on_c, 9, 42, 0
1, 50280, Note_on_c, 9, 42, 64
1, 50399, Note_on_c, 9, 42, 0
1, 50400, Note_on_c, 9, 46, 106
1, 50519, Note_on_c, 9, 46, 0
1, 50520, Note_on_c, 9, 42, 64
1, 50639, Note_on_c, 9, 42, 0
1, 50640, Note_on_c, 9, 42, 106
1, 50759, Note_on_c, 9, 42, 0
1, 50760, Note_on_c, 9, 42, 64
1, 50879, Note_on_c, 9, 42, 0
1, 50880, Note_on_c, 9, 42, 106
1, 50999, Note_on_c, 9, 42, 0
1, 51000, Note_on_c, 9, 42, 64
1, 51119, Note_on_c, 9, 42, 0
1, 51120, Note_on_c, 9, 42, 106
1, 51239, Note_on_c, 9, 42, 0
1, 51240, Note_on_c, 9, 42, 64
1, 51359, Note_on_c, 9, 42, 0
1, 51360, Note_on_c, 9, 46, 106
1, 51479, Note_on_c, 9, 46, 0
1, 51480, Note_on_c, 9, 42, 64
1, 51599, Note_on_c, 9, 42, 0
1, 51600, Note_on_c, 9, 42, 106
1, 51719, Note_on_c, 9, 42, 0
1, 51720, Note_on_c, 9, 42, 64
1, 51839, Note_on_c, 9, 42, 0
1, 51840, Note_on_c, 9, 42, 106
1, 51959, Note_on_c, 9, 42, 0
1, 51960, Note_on_c, 9, 42, 64
1, 52079, Note_on_c, 9, 42, 0
1, 52080, Note_on_c, 9, 46, 106
1, 52080, Note_on_c, 9, 36, 106
1, 52319, Note_on_c, 9, 46, 0
1, 52319, Note_on_c, 9, 36, 0
1, 52320, Note_on_c, 9, 42, 64
1, 52559, Note_on_c, 9, 42, 0
1, 52560, Note_on_c, 9, 46, 106
1, 52560, Note_on_c, 9, 36, 106
1, 52799, Note_on_c, 9, 46, 0
1, 52799, Note_on_c, 9, 36, 0
1, 52800, Note_on_c, 9, 42, 64
1, 53039, Note_on_c, 9, 42, 0
1, 53040, Note_on_c, 9, 46, 106
1, 53040, Note_on_c, 9, 36, 106
1, 53279, Note_on_c, 9, 46, 0
1, 53279, Note_on_c, 9, 36, 0
1, 53280, Note_on_c, 9, 42, 64
1, 53519, Note_on_c, 9, 42, 0
1, 53520, Note_on_c, 9, 46, 106
1, 53520, Note_on_c, 9, 36, 106
1, 53759, Note_on_c, 9, 46, 0
1, 53759, Note_on_c, 9, 36, 0
1, 53760, Note_on_c, 9, 46, 106
1, 53760, Note_on_c, 9, 36, 106
1, 53879, Note_on_c, 9, 46, 0
1, 53880, Note_on_c, 9, 42, 106
1, 53999, Note_on_c, 9, 42, 0
1, 54000, Note_on_c, 9, 42, 106
1, 54119, Note_on_c, 9, 42, 0
1, 54120, Note_on_c, 9, 42, 50
1, 54239, Note_on_c, 9, 36, 0
1, 54239, Note_on_c, 9, 42, 0
1, 54240, Note_on_c, 9, 38, 106
1, 54240, Note_on_c, 9, 42, 106
1, 54240, Note_on_c, 9, 36, 106
1, 54359, Note_on_c, 9, 38, 0
1, 54359, Note_on_c, 9, 42, 0
1, 54360, Note_on_c, 9, 42, 50
1, 54479, Note_on_c, 9, 42, 0
1, 54480, Note_on_c, 9, 42, 106
1, 54599, Note_on_c, 9, 42, 0
1, 54600, Note_on_c, 9, 42, 106
1, 54719, Note_on_c, 9, 36, 0
1, 54719, Note_on_c, 9, 42, 0
1, 54720, Note_on_c, 9, 46, 106
1, 54720, Note_on_c, 9, 36, 106
1, 54839, Note_on_c, 9, 46, 0
1, 54840, Note_on_c, 9, 42, 106
1, 54959, Note_on_c, 9, 42, 0
1, 54960, Note_on_c, 9, 42, 50
1, 55079, Note_on_c, 9, 42, 0
1, 55080, Note_on_c, 9, 42, 106
1, 55199, Note_on_c, 9, 36, 0
1, 55199, Note_on_c, 9, 42, 0
1, 55200, Note_on_c, 9, 38, 106
1, 55200, Note_on_c, 9, 42, 106
1, 55200, Note_on_c, 9, 36, 106
1, 55319, Note_on_c, 9, 38, 0
1, 55319, Note_on_c, 9, 42, 0
1, 55320, Note_on_c, 9, 42, 50
1, 55439, Note_on_c, 9, 42, 0
1, 55440, Note_on_c, 9, 42, 106
1, 55559, Note_on_c, 9, 42, 0
1, 55560, Note_on_c, 9, 42, 106
1, 55679, Note_on_c, 9, 36, 0
1, 55679, Note_on_c, 9, 42, 0
1, 55680, Note_on_c, 9, 46, 106
1, 55680, Note_on_c, 9, 36, 106
1, 55799, Note_on_c, 9, 46, 0
1, 55800, Note_on_c, 9, 42, 106
1, 55919, Note_on_c, 9, 42, 0
1, 55920, Note_on_c, 9, 42, 106
1, 56039, Note_on_c, 9, 42, 0
1, 56040, Note_on_c, 9, 42, 50
1, 56159, Note_on_c, 9, 36, 0
1, 56159, Note_on_c, 9, 42, 0
1, 56160, Note_on_c, 9, 38, 106
1, 56160, Note_on_c, 9, 42, 106
1, 56160, Note_on_c, 9, 36, 106
1, 56279, Note_on_c, 9, 38, 0
1, 56279, Note_on_c, 9, 42, 0
1, 56280, Note_on_c, 9, 42, 50
1, 56399, Note_on_c, 9, 42, 0
1, 56400, Note_on_c, 9, 42, 106
1, 56519, Note_on_c, 9, 42, 0
1, 56520, Note_on_c, 9, 42, 106
1, 56639, Note_on_c, 9, 36, 0
1, 56639, Note_on_c, 9, 42, 0
1, 56640, Note_on_c, 9, 46, 106
1, 56640, Note_on_c, 9, 36, 106
1, 56759, Note_on_c, 9, 46, 0
1, 56760, Note_on_c, 9, 42, 106
1, 56879, Note_on_c, 9, 42, 0
1, 56880, Note_on_c, 9, 42, 50
1, 56999, Note_on_c, 9, 42, 0
1, 57000, Note_on_c, 9, 42, 106
1, 57119, Note_on_c, 9, 36, 0
1, 57119, Note_on_c, 9, 42, 0
1, 57120, Note_on_c, 9, 38, 106
1, 57120, Note_on_c, 9, 42, 106
1, 57120, Note_on_c, 9, 36, 106
1, 57239, Note_on_c, 9, 38, 0
1, 57239, Note_on_c, 9, 42, 0
1, 57240, Note_on_c, 9, 42, 50
1, 57359, Note_on_c, 9, 42, 0
1, 57360, Note_on_c, 9, 42, 106
1, 57479, Note_on_c, 9, 42, 0
1, 57480, Note_on_c, 9, 42, 106
1, 57599, Note_on_c, 9, 36, 0
1, 57599, Note_on_c, 9, 42, 0
1, 57600, Note_on_c, 9, 46, 106
1, 57600, Note_on_c, 9, 36, 106
1, 57719, Note_on_c, 9, 46, 0
1, 57720, Note_on_c, 9, 42, 106
1, 57839, Note_on_c, 9, 42, 0
1, 57840, Note_on_c, 9, 42, 106
1, 57959, Note_on_c, 9, 42, 0
1, 57960, Note_on_c, 9, 42, 50
1, 58079, Note_on_c, 9, 36, 0
1, 58079, Note_on_c, 9, 42, 0
1, 58080, Note_on_c, 9, 38, 106
1, 58080, Note_on_c, 9, 42, 106
1, 58080, Note_on_c, 9, 36, 106
1, 58199, Note_on_c, 9, 38, 0
1, 58199, Note_on_c, 9, 42, 0
1, 58200, Note_on_c, 9, 42, 50
1, 58319, Note_on_c, 9, 42, 0
1, 58320, Note_on_c, 9, 42, 106
1, 58439, Note_on_c, 9, 42, 0
1, 58440, Note_on_c, 9, 42, 106
1, 58559, Note_on_c, 9, 36, 0
1, 58559, Note_on_c, 9, 42, 0
1, 58560, Note_on_c, 9, 46, 106
1, 58560, Note_on_c, 9, 36, 106
1, 58679, Note_on_c, 9, 46, 0
1, 58680, Note_on_c, 9, 42, 106
1, 58799, Note_on_c, 9, 42, 0
1, 58800, Note_on_c, 9, 42, 50
1, 58919, Note_on_c, 9, 42, 0
1, 58920, Note_on_c, 9, 42, 106
1, 59039, Note_on_c, 9, 36, 0
1, 59039, Note_on_c, 9, 42, 0
1, 59040, Note_on_c, 9, 38, 106
1, 59040, Note_on_c, 9, 42, 106
1, 59040, Note_on_c, 9, 36, 106
1, 59159, Note_on_c, 9, 38, 0
1, 59159, Note_on_c, 9, 42, 0
1, 59160, Note_on_c, 9, 42, 50
1, 59279, Note_on_c, 9, 42, 0
1, 59280, Note_on_c, 9, 42, 106
1, 59399, Note_on_c, 9, 42, 0
1, 59400, Note_on_c, 9, 42, 106
1, 59519, Note_on_c, 9, 36, 0
1, 59519, Note_on_c, 9, 42, 0
1, 59520, Note_on_c, 9, 46, 106
1, 59520, Note_on_c, 9, 36, 106
1, 59639, Note_on_c, 9, 46, 0
1, 59640, Note_on_c, 9, 42, 106
1, 59759, Note_on_c, 9, 42, 0
1, 59760, Note_on_c, 9, 42, 106
1, 59879, Note_on_c, 9, 42, 0
1, 59880, Note_on_c, 9, 42, 50
1, 59999, Note_on_c, 9, 36, 0
1, 59999, Note_on_c, 9, 42, 0
1, 60000, Note_on_c, 9, 38, 106
1, 60000, Note_on_c, 9, 42, 106
1, 60000, Note_on_c, 9, 36, 106
1, 60119, Note_on_c, 9, 38, 0
1, 60119, Note_on_c, 9, 42, 0
1, 60120, Note_on_c, 9, 42, 50
1, 60239, Note_on_c, 9, 42, 0
1, 60240, Note_on_c, 9, 42, 106
1, 60359, Note_on_c, 9, 42, 0
1, 60360, Note_on_c, 9, 42, 106
1, 60479, Note_on_c, 9, 36, 0
1, 60479, Note_on_c, 9, 42, 0
1, 60480, Note_on_c, 9, 46, 106
1, 60480, Note_on_c, 9, 36, 106
1, 60599, Note_on_c, 9, 46, 0
1, 60600, Note_on_c, 9, 42, 106
1, 60719, Note_on_c, 9, 42, 0
1, 60720, Note_on_c, 9, 42, 50
1, 60839, Note_on_c, 9, 42, 0
1, 60840, Note_on_c, 9, 42, 106
1, 60959, Note_on_c, 9, 36, 0
1, 60959, Note_on_c, 9, 42, 0
1, 60960, Note_on_c, 9, 38, 106
1, 60960, Note_on_c, 9, 42, 106
1, 60960, Note_on_c, 9, 36, 106
1, 61079, Note_on_c, 9, 38, 0
1, 61079, Note_on_c, 9, 42, 0
1, 61080, Note_on_c, 9, 42, 50
1, 61199, Note_on_c, 9, 42, 0
1, 61200, Note_on_c, 9, 42, 106
1, 61319, Note_on_c, 9, 42, 0
1, 61320, Note_on_c, 9, 42, 106
1, 61439, Note_on_c, 9, 36, 0
1, 61439, Note_on_c, 9, 42, 0
1, 61440, Note_on_c, 9, 46, 106
1, 61440, Note_on_c, 9, 36, 106
1, 61559, Note_on_c, 9, 46, 0
1, 61560, Note_on_c, 9, 42, 106
1, 61679, Note_on_c, 9, 42, 0
1, 61680, Note_on_c, 9, 42, 106
1, 61799, Note_on_c, 9, 42, 0
1, 61800, Note_on_c, 9, 42, 50
1, 61919, Note_on_c, 9, 36, 0
1, 61919, Note_on_c, 9, 42, 0
1, 61920, Note_on_c, 9, 38, 106
1, 61920, Note_on_c, 9, 42, 106
1, 61920, Note_on_c, 9, 36, 106
1, 62039, Note_on_c, 9, 38, 0
1, 62039, Note_on_c, 9, 42, 0
1, 62040, Note_on_c, 9, 42, 50
1, 62159, Note_on_c, 9, 42, 0
1, 62160, Note_on_c, 9, 42, 106
1, 62279, Note_on_c, 9, 42, 0
1, 62280, Note_on_c, 9, 42, 106
1, 62399, Note_on_c, 9, 36, 0
1, 62399, Note_on_c, 9, 42, 0
1, 62400, Note_on_c, 9, 46, 106
1, 62400, Note_on_c, 9, 36, 106
1, 62519, Note_on_c, 9, 46, 0
1, 62520, Note_on_c, 9, 42, 106
1, 62639, Note_on_c, 9, 42, 0
1, 62640, Note_on_c, 9, 42, 50
1, 62759, Note_on_c, 9, 42, 0
1, 62760, Note_on_c, 9, 42, 106
1, 62879, Note_on_c, 9, 36, 0
1, 62879, Note_on_c, 9, 42, 0
1, 62880, Note_on_c, 9, 38, 106
1, 62880, Note_on_c, 9, 42, 106
1, 62880, Note_on_c, 9, 36, 106
1, 62999, Note_on_c, 9, 38, 0
1, 62999, Note_on_c, 9, 42, 0
1, 63000, Note_on_c, 9, 42, 50
1, 63119, Note_on_c, 9, 42, 0
1, 63120, Note_on_c, 9, 42, 106
1, 63239, Note_on_c, 9, 42, 0
1, 63240, Note_on_c, 9, 42, 106
1, 63359, Note_on_c, 9, 36, 0
1, 63359, Note_on_c, 9, 42, 0
1, 63360, Note_on_c, 9, 46, 106
1, 63360, Note_on_c, 9, 36, 106
1, 63479, Note_on_c, 9, 46, 0
1, 63480, Note_on_c, 9, 42, 106
1, 63599, Note_on_c, 9, 42, 0
1, 63600, Note_on_c, 9, 42, 106
1, 63719, Note_on_c, 9, 42, 0
1, 63720, Note_on_c, 9, 42, 50
1, 63839, Note_on_c, 9, 36, 0
1, 63839, Note_on_c, 9, 42, 0
1, 63840, Note_on_c, 9, 38, 106
1, 63840, Note_on_c, 9, 42, 106
1, 63840, Note_on_c, 9, 36, 106
1, 63959, Note_on_c, 9, 38, 0
1, 63959, Note_on_c, 9, 42, 0
1, 63960, Note_on_c, 9, 42, 50
1, 64079, Note_on_c, 9, 42, 0
1, 64080, Note_on_c, 9, 42, 106
1, 64199, Note_on_c, 9, 42, 0
1, 64200, Note_on_c, 9, 42, 106
1, 64319, Note_on_c, 9, 36, 0
1, 64319, Note_on_c, 9, 42, 0
1, 64320, Note_on_c, 9, 46, 106
1, 64320, Note_on_c, 9, 36, 106
1, 64439, Note_on_c, 9, 46, 0
1, 64440, Note_on_c, 9, 42, 106
1, 64559, Note_on_c, 9, 42, 0
1, 64560, Note_on_c, 9, 42, 50
1, 64679, Note_on_c, 9, 42, 0
1, 64680, Note_on_c, 9, 42, 106
1, 64799, Note_on_c, 9, 36, 0
1, 64799, Note_on_c, 9, 42, 0
1, 64800, Note_on_c, 9, 38, 106
1, 64800, Note_on_c, 9, 42, 106
1, 64800, Note_on_c, 9, 36, 106
1, 64919, Note_on_c, 9, 38, 0
1, 64919, Note_on_c, 9, 42, 0
1, 64920, Note_on_c, 9, 42, 50
1, 65039, Note_on_c, 9, 42, 0
1, 65040, Note_on_c, 9, 42, 106
1, 65159, Note_on_c, 9, 42, 0
1, 65160, Note_on_c, 9, 42, 106
1, 65279, Note_on_c, 9, 36, 0
1, 65279, Note_on_c, 9, 42, 0
1, 65280, Note_on_c, 9, 46, 106
1, 65280, Note_on_c, 9, 36, 106
1, 65399, Note_on_c, 9, 46, 0
1, 65400, Note_on_c, 9, 42, 106
1, 65519, Note_on_c, 9, 42, 0
1, 65520, Note_on_c, 9, 42, 106
1, 65639, Note_on_c, 9, 42, 0
1, 65640, Note_on_c, 9, 42, 50
1, 65759, Note_on_c, 9, 36, 0
1, 65759, Note_on_c, 9, 42, 0
1, 65760, Note_on_c, 9, 38, 106
1, 65760, Note_on_c, 9, 42, 106
1, 65760, Note_on_c, 9, 36, 106
1, 65879, Note_on_c, 9, 38, 0
1, 65879, Note_on_c, 9, 42, 0
1, 65880, Note_on_c, 9, 42, 50
1, 65999, Note_on_c, 9, 42, 0
1, 66000, Note_on_c, 9, 42, 106
1, 66119, Note_on_c, 9, 42, 0
1, 66120, Note_on_c, 9, 42, 106
1, 66239, Note_on_c, 9, 36, 0
1, 66239, Note_on_c, 9, 42, 0
1, 66240, Note_on_c, 9, 46, 106
1, 66240, Note_on_c, 9, 36, 106
1, 66359, Note_on_c, 9, 46, 0
1, 66360, Note_on_c, 9, 42, 106
1, 66479, Note_on_c, 9, 42, 0
1, 66480, Note_on_c, 9, 42, 50
1, 66599, Note_on_c, 9, 42, 0
1, 66600, Note_on_c, 9, 42, 106
1, 66719, Note_on_c, 9, 36, 0
1, 66719, Note_on_c, 9, 42, 0
1, 66720, Note_on_c, 9, 38, 106
1, 66720, Note_on_c, 9, 42, 106
1, 66720, Note_on_c, 9, 36, 106
1, 66839, Note_on_c, 9, 38, 0
1, 66839, Note_on_c, 9, 42, 0
1, 66840, Note_on_c, 9, 42, 50
1, 66959, Note_on_c, 9, 42, 0
1, 66960, Note_on_c, 9, 42, 106
1, 67079, Note_on_c, 9, 42, 0
1, 67080, Note_on_c, 9, 42, 106
1, 67199, Note_on_c, 9, 36, 0
1, 67199, Note_on_c, 9, 42, 0
1, 67200, Note_on_c, 9, 46, 106
1, 67200, Note_on_c, 9, 36, 106
1, 67319, Note_on_c, 9, 46, 0
1, 67320, Note_on_c, 9, 42, 106
1, 67439, Note_on_c, 9, 42, 0
1, 67440, Note_on_c, 9, 42, 106
1, 67559, Note_on_c, 9, 42, 0
1, 67560, Note_on_c, 9, 42, 50
1, 67679, Note_on_c, 9, 36, 0
1, 67679, Note_on_c, 9, 42, 0
1, 67680, Note_on_c, 9, 38, 106
1, 67680, Note_on_c, 9, 42, 106
1, 67680, Note_on_c, 9, 36, 106
1, 67799, Note_on_c, 9, 38, 0
1, 67799, Note_on_c, 9, 42, 0
1, 67800, Note_on_c, 9, 42, 50
1, 67919, Note_on_c, 9, 42, 0
1, 67920, Note_on_c, 9, 42, 106
1, 68039, Note_on_c, 9, 42, 0
1, 68040, Note_on_c, 9, 42, 106
1, 68159, Note_on_c, 9, 36, 0
1, 68159, Note_on_c, 9, 42, 0
1, 68160, Note_on_c, 9, 46, 106
1, 68160, Note_on_c, 9, 36, 106
1, 68279, Note_on_c, 9, 46, 0
1, 68280, Note_on_c, 9, 42, 106
1, 68399, Note_on_c, 9, 42, 0
1, 68400, Note_on_c, 9, 42, 50
1, 68519, Note_on_c, 9, 42, 0
1, 68520, Note_on_c, 9, 42, 106
1, 68639, Note_on_c, 9, 36, 0
1, 68639, Note_on_c, 9, 42, 0
1, 68640, Note_on_c, 9, 38, 106
1, 68640, Note_on_c, 9, 42, 106
1, 68640, Note_on_c, 9, 36, 106
1, 68759, Note_on_c, 9, 38, 0
1, 68759, Note_on_c, 9, 42, 0
1, 68760, Note_on_c, 9, 42, 50
1, 68879, Note_on_c, 9, 42, 0
1, 68880, Note_on_c, 9, 42, 106
1, 68999, Note_on_c, 9, 42, 0
1, 69000, Note_on_c, 9, 42, 106
1, 69119, Note_on_c, 9, 36, 0
1, 69119, Note_on_c, 9, 42, 0
1, 69120, Note_on_c, 9, 46, 106
1, 69120, Note_on_c, 9, 36, 106
1, 69239, Note_on_c, 9, 46, 0
1, 69240, Note_on_c, 9, 42, 106
1, 69359, Note_on_c, 9, 42, 0
1, 69360, Note_on_c, 9, 42, 106
1, 69479, Note_on_c, 9, 42, 0
1, 69480, Note_on_c, 9, 42, 50
1, 69599, Note_on_c, 9, 36, 0
1, 69599, Note_on_c, 9, 42, 0
1, 69600, Note_on_c, 9, 38, 106
1, 69600, Note_on_c, 9, 42, 106
1, 69600, Note_on_c, 9, 36, 106
1, 69719, Note_on_c, 9, 38, 0
1, 69719, Note_on_c, 9, 42, 0
1, 69720, Note_on_c, 9, 42, 50
1, 69839, Note_on_c, 9, 42, 0
1, 69840, Note_on_c, 9, 42, 106
1, 69959, Note_on_c, 9, 42, 0
1, 69960, Note_on_c, 9, 42, 106
1, 70079, Note_on_c, 9, 36, 0
1, 70079, Note_on_c, 9, 42, 0
1, 70080, Note_on_c, 9, 46, 106
1, 70080, Note_on_c, 9, 36, 106
1, 70199, Note_on_c, 9, 46, 0
1, 70200, Note_on_c, 9, 42, 106
1, 70319, Note_on_c, 9, 42, 0
1, 70320, Note_on_c, 9, 42, 50
1, 70439, Note_on_c, 9, 42, 0
1, 70440, Note_on_c, 9, 42, 106
1, 70559, Note_on_c, 9, 36, 0
1, 70559, Note_on_c, 9, 42, 0
1, 70560, Note_on_c, 9, 38, 106
1, 70560, Note_on_c, 9, 42, 106
1, 70560, Note_on_c, 9, 36, 106
1, 70679, Note_on_c, 9, 38, 0
1, 70679, Note_on_c, 9, 42, 0
1, 70680, Note_on_c, 9, 42, 50
1, 70799, Note_on_c, 9, 42, 0
1, 70800, Note_on_c, 9, 42, 106
1, 70919, Note_on_c, 9, 42, 0
1, 70920, Note_on_c, 9, 42, 106
1, 71039, Note_on_c, 9, 36, 0
1, 71039, Note_on_c, 9, 42, 0
1, 71040, Note_on_c, 9, 46, 106
1, 71040, Note_on_c, 9, 36, 106
1, 71159, Note_on_c, 9, 46, 0
1, 71160, Note_on_c, 9, 42, 106
1, 71279, Note_on_c, 9, 42, 0
1, 71280, Note_on_c, 9, 42, 106
1, 71399, Note_on_c, 9, 42, 0
1, 71400, Note_on_c, 9, 42, 50
1, 71519, Note_on_c, 9, 36, 0
1, 71519, Note_on_c, 9, 42, 0
1, 71520, Note_on_c, 9, 38, 106
1, 71520, Note_on_c, 9, 42, 106
1, 71520, Note_on_c, 9, 36, 106
1, 71639, Note_on_c, 9, 38, 0
1, 71639, Note_on_c, 9, 42, 0
1, 71640, Note_on_c, 9, 42, 50
1, 71759, Note_on_c, 9, 42, 0
1, 71760, Note_on_c, 9, 42, 106
1, 71879, Note_on_c, 9, 42, 0
1, 71880, Note_on_c, 9, 42, 106
1, 71999, Note_on_c, 9, 36, 0
1, 71999, Note_on_c, 9, 42, 0
1, 72000, Note_on_c, 9, 46, 106
1, 72000, Note_on_c, 9, 36, 106
1, 72119, Note_on_c, 9, 46, 0
1, 72120, Note_on_c, 9, 42, 106
1, 72239, Note_on_c, 9, 42, 0
1, 72240, Note_on_c, 9, 42, 50
1, 72359, Note_on_c, 9, 42, 0
1, 72360, Note_on_c, 9, 42, 106
1, 72479, Note_on_c, 9, 36, 0
1, 72479, Note_on_c, 9, 42, 0
1, 72480, Note_on_c, 9, 38, 106
1, 72480, Note_on_c, 9, 42, 106
1, 72480, Note_on_c, 9, 36, 106
1, 72599, Note_on_c, 9, 38, 0
1, 72599, Note_on_c, 9, 42, 0
1, 72600, Note_on_c, 9, 42, 50
1, 72719, Note_on_c, 9, 42, 0
1, 72720, Note_on_c, 9, 42, 106
1, 72839, Note_on_c, 9, 42, 0
1, 72840, Note_on_c, 9, 42, 106
1, 72959, Note_on_c, 9, 36, 0
1, 72959, Note_on_c, 9, 42, 0
1, 72960, Note_on_c, 9, 46, 106
1, 72960, Note_on_c, 9, 36, 106
1, 73079, Note_on_c, 9, 46, 0
1, 73080, Note_on_c, 9, 42, 106
1, 73199, Note_on_c, 9, 42, 0
1, 73200, Note_on_c, 9, 42, 106
1, 73319, Note_on_c, 9, 42, 0
1, 73320, Note_on_c, 9, 42, 50
1, 73439, Note_on_c, 9, 36, 0
1, 73439, Note_on_c, 9, 42, 0
1, 73440, Note_on_c, 9, 38, 106
1, 73440, Note_on_c, 9, 42, 106
1, 73440, Note_on_c, 9, 36, 106
1, 73559, Note_on_c, 9, 38, 0
1, 73559, Note_on_c, 9, 42, 0
1, 73560, Note_on_c, 9, 42, 50
1, 73679, Note_on_c, 9, 42, 0
1, 73680, Note_on_c, 9, 42, 106
1, 73799, Note_on_c, 9, 42, 0
1, 73800, Note_on_c, 9, 42, 106
1, 73919, Note_on_c, 9, 36, 0
1, 73919, Note_on_c, 9, 42, 0
1, 73920, Note_on_c, 9, 46, 106
1, 73920, Note_on_c, 9, 36, 106
1, 74039, Note_on_c, 9, 46, 0
1, 74040, Note_on_c, 9, 42, 106
1, 74159, Note_on_c, 9, 42, 0
1, 74160, Note_on_c, 9, 42, 50
1, 74279, Note_on_c, 9, 42, 0
1, 74280, Note_on_c, 9, 42, 106
1, 74399, Note_on_c, 9, 36, 0
1, 74399, Note_on_c, 9, 42, 0
1, 74400, Note_on_c, 9, 38, 106
1, 74400, Note_on_c, 9, 42, 106
1, 74519, Note_on_c, 9, 38, 0
1, 74519, Note_on_c, 9, 42, 0
1, 74520, Note_on_c, 9, 42, 50
1, 74639, Note_on_c, 9, 42, 0
1, 74640, Note_on_c, 9, 38, 106
1, 74640, Note_on_c, 9, 42, 106
1, 74759, Note_on_c, 9, 38, 0
1, 74759, Note_on_c, 9, 42, 0
1, 74760, Note_on_c, 9, 38, 106
1, 74760, Note_on_c, 9, 46, 106
1, 74879, Note_on_c, 9, 38, 0
1, 74879, Note_on_c, 9, 46, 0
1, 74880, Note_on_c, 9, 38, 106
1, 74880, Note_on_c, 9, 36, 106
1, 74999, Note_on_c, 9, 38, 0
1, 75000, Note_on_c, 9, 42, 64
1, 75119, Note_on_c, 9, 36, 0
1, 75119, Note_on_c, 9, 42, 0
1, 75120, Note_on_c, 9, 41, 92
1, 75120, Note_on_c, 9, 46, 106
1, 75120, Note_on_c, 9, 36, 106
1, 75359, Note_on_c, 9, 41, 0
1, 75359, Note_on_c, 9, 46, 0
1, 75359, Note_on_c, 9, 36, 0
1, 75360, Note_on_c, 9, 42, 64
1, 75599, Note_on_c, 9, 42, 0
1, 75600, Note_on_c, 9, 41, 92
1, 75600, Note_on_c, 9, 46, 106
1, 75600, Note_on_c, 9, 36, 106
1, 75839, Note_on_c, 9, 41, 0
1, 75839, Note_on_c, 9, 46, 0
1, 75839, Note_on_c, 9, 36, 0
1, 75840, Note_on_c, 9, 42, 64
1, 76079, Note_on_c, 9, 42, 0
1, 76080, Note_on_c, 9, 41, 92
1, 76080, Note_on_c, 9, 46, 106
1, 76080, Note_on_c, 9, 36, 106
1, 76319, Note_on_c, 9, 41, 0
1, 76319, Note_on_c, 9, 46, 0
1, 76319, Note_on_c, 9, 36, 0
1, 76320, Note_on_c, 9, 42, 64
1, 76559, Note_on_c, 9, 42, 0
1, 76560, Note_on_c, 9, 41, 92
1, 76560, Note_on_c, 9, 46, 106
1, 76560, Note_on_c, 9, 36, 106
1, 76799, Note_on_c, 9, 41, 0
1, 76799, Note_on_c, 9, 46, 0
1, 76799, Note_on_c, 9, 36, 0
1, 76800, Note_on_c, 9, 49, 120
1, 76800, Note_on_c, 9, 36, 106
1, 77039, Note_on_c, 9, 49, 0
1, 77040, Note_on_c, 9, 42, 78
1, 77279, Note_on_c, 9, 36, 0
1, 77279, Note_on_c, 9, 42, 0
1, 77280, Note_on_c, 9, 38, 106
1, 77280, Note_on_c, 9, 42, 92
1, 77280, Note_on_c, 9, 36, 106
1, 77519, Note_on_c, 9, 38, 0
1, 77519, Note_on_c, 9, 42, 0
1, 77520, Note_on_c, 9, 42, 78
1, 77759, Note_on_c, 9, 36, 0
1, 77759, Note_on_c, 9, 42, 0
1, 77760, Note_on_c, 9, 42, 92
1, 77760, Note_on_c, 9, 36, 106
1, 77999, Note_on_c, 9, 42, 0
1, 78000, Note_on_c, 9, 42, 78
1, 78239, Note_on_c, 9, 36, 0
1, 78239, Note_on_c, 9, 42, 0
1, 78240, Note_on_c, 9, 38, 106
1, 78240, Note_on_c, 9, 42, 92
1, 78240, Note_on_c, 9, 36, 106
1, 78479, Note_on_c, 9, 38, 0
1, 78479, Note_on_c, 9, 42, 0
1, 78480, Note_on_c, 9, 42, 78
1, 78719, Note_on_c, 9, 36, 0
1, 78719, Note_on_c, 9, 42, 0
1, 78720, Note_on_c, 9, 42, 92
1, 78720, Note_on_c, 9, 36, 106
1, 78959, Note_on_c, 9, 42, 0
1, 78960, Note_on_c, 9, 42, 78
1, 79199, Note_on_c, 9, 36, 0
1, 79199, Note_on_c, 9, 42, 0
1, 79200, Note_on_c, 9, 38, 106
1, 79200, Note_on_c, 9, 42, 92
1, 79200, Note_on_c, 9, 36, 106
1, 79439, Note_on_c, 9, 38, 0
1, 79439, Note_on_c, 9, 42, 0
1, 79440, Note_on_c, 9, 42, 78
1, 79679, Note_on_c, 9, 36, 0
1, 79679, Note_on_c, 9, 42, 0
1, 79680, Note_on_c, 9, 42, 92
1, 79680, Note_on_c, 9, 36, 106
1, 79919, Note_on_c, 9, 42, 0
1, 79920, Note_on_c, 9, 42, 78
1, 80159, Note_on_c, 9, 36, 0
1, 80159, Note_on_c, 9, 42, 0
1, 80160, Note_on_c, 9, 38, 106
1, 80160, Note_on_c, 9, 42, 92
1, 80160, Note_on_c, 9, 36, 106
1, 80399, Note_on_c, 9, 38, 0
1, 80399, Note_on_c, 9, 42, 0
1, 80400, Note_on_c, 9, 42, 78
1, 80639, Note_on_c, 9, 36, 0
1, 80639, Note_on_c, 9, 42, 0
1, 80640, Note_on_c, 9, 42, 92
1, 80640, Note_on_c, 9, 36, 106
1, 80879, Note_on_c, 9, 42, 0
1, 80880, Note_on_c, 9, 42, 78
1, 81119, Note_on_c, 9, 36, 0
1, 81119, Note_on_c, 9, 42, 0
1, 81120, Note_on_c, 9, 38, 106
1, 81120, Note_on_c, 9, 42, 92
1, 81120, Note_on_c, 9, 36, 106
1, 81359, Note_on_c, 9, 38, 0
1, 81359, Note_on_c, 9, 42, 0
1, 81360, Note_on_c, 9, 42, 78
1, 81599, Note_on_c, 9, 36, 0
1, 81599, Note_on_c, 9, 42, 0
1, 81600, Note_on_c, 9, 42, 92
1, 81600, Note_on_c, 9, 36, 106
1, 81839, Note_on_c, 9, 42, 0
1, 81840, Note_on_c, 9, 42, 78
1, 82079, Note_on_c, 9, 36, 0
1, 82079, Note_on_c, 9, 42, 0
1, 82080, Note_on_c, 9, 38, 106
1, 82080, Note_on_c, 9, 42, 92
1, 82080, Note_on_c, 9, 36, 106
1, 82319, Note_on_c, 9, 38, 0
1, 82319, Note_on_c, 9, 42, 0
1, 82320, Note_on_c, 9, 42, 78
1, 82559, Note_on_c, 9, 36, 0
1, 82559, Note_on_c, 9, 42, 0
1, 82560, Note_on_c, 9, 42, 92
1, 82560, Note_on_c, 9, 36, 106
1, 82799, Note_on_c, 9, 42, 0
1, 82800, Note_on_c, 9, 42, 78
1, 83039, Note_on_c, 9, 36, 0
1, 83039, Note_on_c, 9, 42, 0
1, 83040, Note_on_c, 9, 38, 106
1, 83040, Note_on_c, 9, 42, 92
1, 83040, Note_on_c, 9, 36, 106
1, 83279, Note_on_c, 9, 38, 0
1, 83279, Note_on_c, 9, 42, 0
1, 83280, Note_on_c, 9, 42, 78
1, 83519, Note_on_c, 9, 36, 0
1, 83519, Note_on_c, 9, 42, 0
1, 83520, Note_on_c, 9, 42, 92
1, 83520, Note_on_c, 9, 36, 106
1, 83759, Note_on_c, 9, 42, 0
1, 83760, Note_on_c, 9, 42, 78
1, 83999, Note_on_c, 9, 36, 0
1, 83999, Note_on_c, 9, 42, 0
1, 84000, Note_on_c, 9, 38, 106
1, 84000, Note_on_c, 9, 42, 92
1, 84000, Note_on_c, 9, 36, 106
1, 84239, Note_on_c, 9, 38, 0
1, 84239, Note_on_c, 9, 42, 0
1, 84240, Note_on_c, 9, 42, 78
1, 84479, Note_on_c, 9, 36, 0
1, 84479, Note_on_c, 9, 42, 0
1, 84480, Note_on_c, 9, 42, 92
1, 84480, Note_on_c, 9, 36, 106
1, 84719, Note_on_c, 9, 42, 0
1, 84720, Note_on_c, 9, 42, 78
1, 84959, Note_on_c, 9, 36, 0
1, 84959, Note_on_c, 9, 42, 0
1, 84960, Note_on_c, 9, 38, 106
1, 84960, Note_on_c, 9, 42, 92
1, 84960, Note_on_c, 9, 36, 106
1, 85199, Note_on_c, 9, 38, 0
1, 85199, Note_on_c, 9, 42, 0
1, 85200, Note_on_c, 9, 42, 78
1, 85439, Note_on_c, 9, 36, 0
1, 85439, Note_on_c, 9, 42, 0
1, 85440, Note_on_c, 9, 42, 92
1, 85440, Note_on_c, 9, 36, 106
1, 85679, Note_on_c, 9, 42, 0
1, 85680, Note_on_c, 9, 42, 78
1, 85919, Note_on_c, 9, 36, 0
1, 85919, Note_on_c, 9, 42, 0
1, 85920, Note_on_c, 9, 38, 106
1, 85920, Note_on_c, 9, 42, 92
1, 85920, Note_on_c, 9, 36, 106
1, 86159, Note_on_c, 9, 38, 0
1, 86159, Note_on_c, 9, 42, 0
1, 86160, Note_on_c, 9, 42, 78
1, 86399, Note_on_c, 9, 36, 0
1, 86399, Note_on_c, 9, 42, 0
1, 86400, Note_on_c, 9, 42, 92
1, 86400, Note_on_c, 9, 36, 106
1, 86639, Note_on_c, 9, 42, 0
1, 86640, Note_on_c, 9, 42, 78
1, 86879, Note_on_c, 9, 36, 0
1, 86879, Note_on_c, 9, 42, 0
1, 86880, Note_on_c, 9, 38, 106
1, 86880, Note_on_c, 9, 42, 92
1, 86880, Note_on_c, 9, 36, 106
1, 87119, Note_on_c, 9, 38, 0
1, 87119, Note_on_c, 9, 42, 0
1, 87120, Note_on_c, 9, 42, 78
1, 87359, Note_on_c, 9, 36, 0
1, 87359, Note_on_c, 9, 42, 0
1, 87360, Note_on_c, 9, 42, 92
1, 87360, Note_on_c, 9, 36, 106
1, 87599, Note_on_c, 9, 42, 0
1, 87600, Note_on_c, 9, 42, 78
1, 87839, Note_on_c, 9, 36, 0
1, 87839, Note_on_c, 9, 42, 0
1, 87840, Note_on_c, 9, 38, 106
1, 87840, Note_on_c, 9, 42, 92
1, 87840, Note_on_c, 9, 36, 106
1, 88079, Note_on_c, 9, 38, 0
1, 88079, Note_on_c, 9, 42, 0
1, 88080, Note_on_c, 9, 42, 78
1, 88319, Note_on_c, 9, 36, 0
1, 88319, Note_on_c, 9, 42, 0
1, 88320, Note_on_c, 9, 42, 92
1, 88320, Note_on_c, 9, 36, 106
1, 88559, Note_on_c, 9, 42, 0
1, 88560, Note_on_c, 9, 42, 78
1, 88799, Note_on_c, 9, 36, 0
1, 88799, Note_on_c, 9, 42, 0
1, 88800, Note_on_c, 9, 38, 106
1, 88800, Note_on_c, 9, 42, 92
1, 88800, Note_on_c, 9, 36, 106
1, 89039, Note_on_c, 9, 38, 0
1, 89039, Note_on_c, 9, 42, 0
1, 89040, Note_on_c, 9, 42, 78
1, 89279, Note_on_c, 9, 36, 0
1, 89279, Note_on_c, 9, 42, 0
1, 89280, Note_on_c, 9, 42, 92
1, 89280, Note_on_c, 9, 36, 106
1, 89519, Note_on_c, 9, 42, 0
1, 89520, Note_on_c, 9, 42, 78
1, 89759, Note_on_c, 9, 36, 0
1, 89759, Note_on_c, 9, 42, 0
1, 89760, Note_on_c, 9, 38, 106
1, 89760, Note_on_c, 9, 42, 92
1, 89760, Note_on_c, 9, 36, 106
1, 89999, Note_on_c, 9, 38, 0
1, 89999, Note_on_c, 9, 42, 0
1, 90000, Note_on_c, 9, 42, 78
1, 90239, Note_on_c, 9, 36, 0
1, 90239, Note_on_c, 9, 42, 0
1, 90240, Note_on_c, 9, 42, 92
1, 90240, Note_on_c, 9, 36, 106
1, 90479, Note_on_c, 9, 42, 0
1, 90480, Note_on_c, 9, 42, 78
1, 90719, Note_on_c, 9, 36, 0
1, 90719, Note_on_c, 9, 42, 0
1, 90720, Note_on_c, 9, 38, 106
1, 90720, Note_on_c, 9, 42, 92
1, 90720, Note_on_c, 9, 36, 106
1, 90959, Note_on_c, 9, 38, 0
1, 90959, Note_on_c, 9, 42, 0
1, 90960, Note_on_c, 9, 42, 78
1, 91199, Note_on_c, 9, 36, 0
1, 91199, Note_on_c, 9, 42, 0
1, 91200, Note_on_c, 9, 42, 92
1, 91200, Note_on_c, 9, 36, 106
1, 91439, Note_on_c, 9, 42, 0
1, 91440, Note_on_c, 9, 42, 78
1, 91679, Note_on_c, 9, 36, 0
1, 91679, Note_on_c, 9, 42, 0
1, 91680, Note_on_c, 9, 38, 106
1, 91680, Note_on_c, 9, 42, 92
1, 91680, Note_on_c, 9, 36, 106
1, 91919, Note_on_c, 9, 38, 0
1, 91919, Note_on_c, 9, 42, 0
1, 91920, Note_on_c, 9, 42, 78
1, 92159, Note_on_c, 9, 36, 0
1, 92159, Note_on_c, 9, 42, 0
1, 92160, Note_on_c, 9, 42, 92
1, 92160, Note_on_c, 9, 36, 106
1, 92399, Note_on_c, 9, 42, 0
1, 92400, Note_on_c, 9, 42, 78
1, 92639, Note_on_c, 9, 36, 0
1, 92639, Note_on_c, 9, 42, 0
1, 92640, Note_on_c, 9, 38, 106
1, 92640, Note_on_c, 9, 42, 92
1, 92640, Note_on_c, 9, 36, 106
1, 92879, Note_on_c, 9, 38, 0
1, 92879, Note_on_c, 9, 42, 0
1, 92880, Note_on_c, 9, 42, 78
1, 93119, Note_on_c, 9, 36, 0
1, 93119, Note_on_c, 9, 42, 0
1, 93120, Note_on_c, 9, 42, 92
1, 93120, Note_on_c, 9, 36, 106
1, 93359, Note_on_c, 9, 42, 0
1, 93360, Note_on_c, 9, 46, 106
1, 93599, Note_on_c, 9, 36, 0
1, 93599, Note_on_c, 9, 46, 0
1, 93600, Note_on_c, 9, 38, 106
1, 93600, Note_on_c, 9, 36, 106
1, 93839, Note_on_c, 9, 38, 0
1, 93840, Note_on_c, 9, 38, 106
1, 93959, Note_on_c, 9, 38, 0
1, 93960, Note_on_c, 9, 38, 106
1, 94079, Note_on_c, 9, 36, 0
1, 94079, Note_on_c, 9, 38, 0
1, 94080, Note_on_c, 9, 49, 106
1, 94080, Note_on_c, 9, 36, 106
1, 94199, Note_on_c, 9, 49, 0
1, 94200, Note_on_c, 9, 46, 90
1, 94319, Note_on_c, 9, 46, 0
1, 94320, Note_on_c, 9, 46, 92
1, 94439, Note_on_c, 9, 46, 0
1, 94440, Note_on_c, 9, 46, 90
1, 94559, Note_on_c, 9, 36, 0
1, 94559, Note_on_c, 9, 46, 0
1, 94560, Note_on_c, 9, 46, 92
1, 94560, Note_on_c, 9, 36, 106
1, 94679, Note_on_c, 9, 46, 0
1, 94680, Note_on_c, 9, 46, 90
1, 94799, Note_on_c, 9, 46, 0
1, 94800, Note_on_c, 9, 46, 92
1, 94919, Note_on_c, 9, 46, 0
1, 94920, Note_on_c, 9, 46, 90
1, 95039, Note_on_c, 9, 36, 0
1, 95039, Note_on_c, 9, 46, 0
1, 95040, Note_on_c, 9, 46, 92
1, 95040, Note_on_c, 9, 36, 106
1, 95159, Note_on_c, 9, 46, 0
1, 95160, Note_on_c, 9, 46, 90
1, 95279, Note_on_c, 9, 46, 0
1, 95280, Note_on_c, 9, 46, 92
1, 95399, Note_on_c, 9, 46, 0
1, 95400, Note_on_c, 9, 46, 90
1, 95519, Note_on_c, 9, 36, 0
1, 95519, Note_on_c, 9, 46, 0
1, 95520, Note_on_c, 9, 46, 92
1, 95520, Note_on_c, 9, 36, 106
1, 95639, Note_on_c, 9, 46, 0
1, 95640, Note_on_c, 9, 46, 90
1, 95759, Note_on_c, 9, 46, 0
1, 95760, Note_on_c, 9, 46, 92
1, 95879, Note_on_c, 9, 46, 0
1, 95880, Note_on_c, 9, 46, 90
1, 95999, Note_on_c, 9, 36, 0
1, 95999, Note_on_c, 9, 46, 0
1, 96000, Note_on_c, 9, 46, 92
1, 96000, Note_on_c, 9, 36, 106
1, 96119, Note_on_c, 9, 46, 0
1, 96120, Note_on_c, 9, 46, 90
1, 96239, Note_on_c, 9, 46, 0
1, 96240, Note_on_c, 9, 46, 92
1, 96359, Note_on_c, 9, 46, 0
1, 96360, Note_on_c, 9, 46, 90
1, 96479, Note_on_c, 9, 36, 0
1, 96479, Note_on_c, 9, 46, 0
1, 96480, Note_on_c, 9, 46, 92
1, 96480, Note_on_c, 9, 36, 106
1, 96599, Note_on_c, 9, 46, 0
1, 96600, Note_on_c, 9, 46, 90
1, 96719, Note_on_c, 9, 46, 0
1, 96720, Note_on_c, 9, 46, 92
1, 96839, Note_on_c, 9, 46, 0
1, 96840, Note_on_c, 9, 46, 90
1, 96959, Note_on_c, 9, 36, 0
1, 96959, Note_on_c, 9, 46, 0
1, 96960, Note_on_c, 9, 46, 92
1, 96960, Note_on_c, 9, 36, 106
1, 97079, Note_on_c, 9, 46, 0
1, 97080, Note_on_c, 9, 46, 90
1, 97199, Note_on_c, 9, 46, 0
1, 97200, Note_on_c, 9, 46, 92
1, 97319, Note_on_c, 9, 46, 0
1, 97320, Note_on_c, 9, 46, 90
1, 97439, Note_on_c, 9, 36, 0
1, 97439, Note_on_c, 9, 46, 0
1, 97440, Note_on_c, 9, 49, 78
1, 97440, Note_on_c, 9, 36, 106
1, 97799, Note_on_c, 9, 49, 0
1, 97800, Note_on_c, 9, 40, 50
1, 97919, Note_on_c, 9, 36, 0
1, 97919, Note_on_c, 9, 40, 0
1, 97920, Tempo, 530973
1, 97920, Note_on_c, 9, 40, 92
1, 97920, Note_on_c, 9, 36, 92
1, 98399, Note_on_c, 9, 40, 0
1, 98399, Note_on_c, 9, 36, 0
1, 98400, Note_on_c, 9, 38, 106
1, 98400, Note_on_c, 9, 49, 106
1, 98400, Note_on_c, 9, 36, 64
1, 98759, Note_on_c, 9, 38, 0
1, 98759, Note_on_c, 9, 49, 0
1, 98760, Note_on_c, 9, 38, 64
1, 98879, Note_on_c, 9, 36, 0
1, 98879, Note_on_c, 9, 38, 0
1, 98880, Note_on_c, 9, 38, 106
1, 98880, Note_on_c, 9, 36, 92
1, 99359, Note_on_c, 9, 38, 0
1, 99359, Note_on_c, 9, 36, 0
1, 99360, Note_on_c, 9, 38, 106
1, 99360, Note_on_c, 9, 49, 106
1, 99360, Note_on_c, 9, 36, 64
1, 99719, Note_on_c, 9, 38, 0
1, 99719, Note_on_c, 9, 49, 0
1, 99720, Note_on_c, 9, 38, 64
1, 99839, Note_on_c, 9, 36, 0
1, 99839, Note_on_c, 9, 38, 0
1, 99840, Note_on_c, 9, 41, 78
1, 99840, Note_on_c, 9, 38, 106
1, 99840, Note_on_c, 9, 36, 92
1, 100319, Note_on_c, 9, 41, 0
1, 100319, Note_on_c, 9, 38, 0
1, 100319, Note_on_c, 9, 36, 0
1, 100320, Note_on_c, 9, 38, 120
1, 100320, Note_on_c, 9, 49, 106
1, 100320, Note_on_c, 9, 36, 64
1, 100679, Note_on_c, 9, 38, 0
1, 100679, Note_on_c, 9, 49, 0
1, 100680, Note_on_c, 9, 38, 78
1, 100799, Note_on_c, 9, 36, 0
1, 100799, Note_on_c, 9, 38, 0
1, 100800, Note_on_c, 9, 41, 78
1, 100800, Note_on_c, 9, 38, 106
1, 100800, Note_on_c, 9, 36, 92
1, 101279, Note_on_c, 9, 41, 0
1, 101279, Note_on_c, 9, 38, 0
1, 101279, Note_on_c, 9, 36, 0
1, 101280, Note_on_c, 9, 38, 120
1, 101280, Note_on_c, 9, 49, 106
1, 101280, Note_on_c, 9, 36, 64
1, 101759, Note_on_c, 9, 38, 0
1, 101759, Note_on_c, 9, 49, 0
1, 101759, Note_on_c, 9, 36, 0
1, 101760, Tempo, 495868
1, 101760, Note_on_c, 9, 49, 106
1, 101760, Note_on_c, 9, 36, 106
1, 101879, Note_on_c, 9, 49, 0
1, 101880, Note_on_c, 9, 46, 90
1, 101999, Note_on_c, 9, 46, 0
1, 102000, Note_on_c, 9, 46, 92
1, 102119, Note_on_c, 9, 46, 0
1, 102120, Note_on_c, 9, 46, 90
1, 102239, Note_on_c, 9, 36, 0
1, 102239, Note_on_c, 9, 46, 0
1, 102240, Note_on_c, 9, 46, 92
1, 102240, Note_on_c, 9, 36, 106
1, 102359, Note_on_c, 9, 46, 0
1, 102360, Note_on_c, 9, 46, 90
1, 102479, Note_on_c, 9, 46, 0
1, 102480, Note_on_c, 9, 46, 92
1, 102599, Note_on_c, 9, 46, 0
1, 102600, Note_on_c, 9, 46, 90
1, 102719, Note_on_c, 9, 36, 0
1, 102719, Note_on_c, 9, 46, 0
1, 102720, Note_on_c, 9, 46, 92
1, 102720, Note_on_c, 9, 36, 106
1, 102839, Note_on_c, 9, 46, 0
1, 102840, Note_on_c, 9, 46, 90
1, 102959, Note_on_c, 9, 46, 0
1, 102960, Note_on_c, 9, 46, 92
1, 103079, Note_on_c, 9, 46, 0
1, 103080, Note_on_c, 9, 46, 90
1, 103199, Note_on_c, 9, 36, 0
1, 103199, Note_on_c, 9, 46, 0
1, 103200, Note_on_c, 9, 46, 92
1, 103200, Note_on_c, 9, 36, 106
1, 103319, Note_on_c, 9, 46, 0
1, 103320, Note_on_c, 9, 46, 90
1, 103439, Note_on_c, 9, 46, 0
1, 103440, Note_on_c, 9, 46, 92
1, 103559, Note_on_c, 9, 46, 0
1, 103560, Note_on_c, 9, 46, 90
1, 103679, Note_on_c, 9, 36, 0
1, 103679, Note_on_c, 9, 46, 0
1, 103680, Note_on_c, 9, 46, 92
1, 103680, Note_on_c, 9, 36, 106
1, 103799, Note_on_c, 9, 46, 0
1, 103800, Note_on_c, 9, 46, 90
1, 103919, Note_on_c, 9, 46, 0
1, 103920, Note_on_c, 9, 46, 92
1, 104039, Note_on_c, 9, 46, 0
1, 104040, Note_on_c, 9, 46, 90
1, 104159, Note_on_c, 9, 36, 0
1, 104159, Note_on_c, 9, 46, 0
1, 104160, Note_on_c, 9, 46, 92
1, 104160, Note_on_c, 9, 36, 106
1, 104279, Note_on_c, 9, 46, 0
1, 104280, Note_on_c, 9, 46, 90
1, 104399, Note_on_c, 9, 46, 0
1, 104400, Note_on_c, 9, 46, 92
1, 104519, Note_on_c, 9, 46, 0
1, 104520, Note_on_c, 9, 46, 90
1, 104639, Note_on_c, 9, 36, 0
1, 104639, Note_on_c, 9, 46, 0
1, 104640, Note_on_c, 9, 46, 92
1, 104640, Note_on_c, 9, 36, 106
1, 104759, Note_on_c, 9, 46, 0
1, 104760, Note_on_c, 9, 46, 90
1, 104879, Note_on_c, 9, 46, 0
1, 104880, Note_on_c, 9, 46, 92
1, 104999, Note_on_c, 9, 46, 0
1, 105000, Note_on_c, 9, 46, 90
1, 105119, Note_on_c, 9, 36, 0
1, 105119, Note_on_c, 9, 46, 0
1, 105120, Note_on_c, 9, 38, 106
1, 105120, Note_on_c, 9, 46, 120
1, 105120, Note_on_c, 9, 36, 106
1, 105599, Note_on_c, 9, 38, 0
1, 105599, Note_on_c, 9, 46, 0
1, 105599, Note_on_c, 9, 36, 0
1, 105600, Note_on_c, 9, 46, 106
1, 105600, Note_on_c, 9, 36, 106
1, 105719, Note_on_c, 9, 46, 0
1, 105720, Note_on_c, 9, 42, 106
1, 105839, Note_on_c, 9, 42, 0
1, 105840, Note_on_c, 9, 42, 106
1, 105959, Note_on_c, 9, 42, 0
1, 105960, Note_on_c, 9, 42, 50
1, 106079, Note_on_c, 9, 36, 0
1, 106079, Note_on_c, 9, 42, 0
1, 106080, Note_on_c, 9, 38, 106
1, 106080, Note_on_c, 9, 42, 106
1, 106080, Note_on_c, 9, 36, 106
1, 106199, Note_on_c, 9, 38, 0
1, 106199, Note_on_c, 9, 42, 0
1, 106200, Note_on_c, 9, 42, 50
1, 106319, Note_on_c, 9, 42, 0
1, 106320, Note_on_c, 9, 42, 106
1, 106439, Note_on_c, 9, 42, 0
1, 106440, Note_on_c, 9, 42, 106
1, 106559, Note_on_c, 9, 36, 0
1, 106559, Note_on_c, 9, 42, 0
1, 106560, Note_on_c, 9, 46, 106
1, 106560, Note_on_c, 9, 36, 106
1, 106679, Note_on_c, 9, 46, 0
1, 106680, Note_on_c, 9, 42, 106
1, 106799, Note_on_c, 9, 42, 0
1, 106800, Note_on_c, 9, 42, 50
1, 106919, Note_on_c, 9, 42, 0
1, 106920, Note_on_c, 9, 42, 106
1, 107039, Note_on_c, 9, 36, 0
1, 107039, Note_on_c, 9, 42, 0
1, 107040, Note_on_c, 9, 38, 106
1, 107040, Note_on_c, 9, 42, 106
1, 107040, Note_on_c, 9, 36, 106
1, 107159, Note_on_c, 9, 38, 0
1, 107159, Note_on_c, 9, 42, 0
1, 107160, Note_on_c, 9, 42, 50
1, 107279, Note_on_c, 9, 42, 0
1, 107280, Note_on_c, 9, 42, 106
1, 107399, Note_on_c, 9, 42, 0
1, 107400, Note_on_c, 9, 42, 106
1, 107519, Note_on_c, 9, 36, 0
1, 107519, Note_on_c, 9, 42, 0
1, 107520, Note_on_c, 9, 46, 106
1, 107520, Note_on_c, 9, 36, 106
1, 107639, Note_on_c, 9, 46, 0
1, 107640, Note_on_c, 9, 42, 106
1, 107759, Note_on_c, 9, 42, 0
1, 107760, Note_on_c, 9, 42, 106
1, 107879, Note_on_c, 9, 42, 0
1, 107880, Note_on_c, 9, 42, 50
1, 107999, Note_on_c, 9, 36, 0
1, 107999, Note_on_c, 9, 42, 0
1, 108000, Note_on_c, 9, 38, 106
1, 108000, Note_on_c, 9, 42, 106
1, 108000, Note_on_c, 9, 36, 106
1, 108119, Note_on_c, 9, 38, 0
1, 108119, Note_on_c, 9, 42, 0
1, 108120, Note_on_c, 9, 42, 50
1, 108239, Note_on_c, 9, 42, 0
1, 108240, Note_on_c, 9, 42, 106
1, 108359, Note_on_c, 9, 42, 0
1, 108360, Note_on_c, 9, 42, 106
1, 108479, Note_on_c, 9, 36, 0
1, 108479, Note_on_c, 9, 42, 0
1, 108480, Note_on_c, 9, 46, 106
1, 108480, Note_on_c, 9, 36, 106
1, 108599, Note_on_c, 9, 46, 0
1, 108600, Note_on_c, 9, 42, 106
1, 108719, Note_on_c, 9, 42, 0
1, 108720, Note_on_c, 9, 42, 50
1, 108839, Note_on_c, 9, 42, 0
1, 108840, Note_on_c, 9, 42, 106
1, 108959, Note_on_c, 9, 36, 0
1, 108959, Note_on_c, 9, 42, 0
1, 108960, Note_on_c, 9, 38, 106
1, 108960, Note_on_c, 9, 42, 106
1, 108960, Note_on_c, 9, 36, 106
1, 109079, Note_on_c, 9, 38, 0
1, 109079, Note_on_c, 9, 42, 0
1, 109080, Note_on_c, 9, 42, 50
1, 109199, Note_on_c, 9, 42, 0
1, 109200, Note_on_c, 9, 42, 106
1, 109319, Note_on_c, 9, 42, 0
1, 109320, Note_on_c, 9, 42, 106
1, 109439, Note_on_c, 9, 36, 0
1, 109439, Note_on_c, 9, 42, 0
1, 109440, Note_on_c, 9, 46, 106
1, 109440, Note_on_c, 9, 36, 106
1, 109559, Note_on_c, 9, 46, 0
1, 109560, Note_on_c, 9, 42, 106
1, 109679, Note_on_c, 9, 42, 0
1, 109680, Note_on_c, 9, 42, 106
1, 109799, Note_on_c, 9, 42, 0
1, 109800, Note_on_c, 9, 42, 50
1, 109919, Note_on_c, 9, 36, 0
1, 109919, Note_on_c, 9, 42, 0
1, 109920, Note_on_c, 9, 38, 106
1, 109920, Note_on_c, 9, 42, 106
1, 109920, Note_on_c, 9, 36, 106
1, 110039, Note_on_c, 9, 38, 0
1, 110039, Note_on_c, 9, 42, 0
1, 110040, Note_on_c, 9, 42, 50
1, 110159, Note_on_c, 9, 42, 0
1, 110160, Note_on_c, 9, 42, 106
1, 110279, Note_on_c, 9, 42, 0
1, 110280, Note_on_c, 9, 42, 106
1, 110399, Note_on_c, 9, 36, 0
1, 110399, Note_on_c, 9, 42, 0
1, 110400, Note_on_c, 9, 46, 106
1, 110400, Note_on_c, 9, 36, 106
1, 110519, Note_on_c, 9, 46, 0
1, 110520, Note_on_c, 9, 42, 106
1, 110639, Note_on_c, 9, 42, 0
1, 110640, Note_on_c, 9, 42, 50
1, 110759, Note_on_c, 9, 42, 0
1, 110760, Note_on_c, 9, 42, 106
1, 110879, Note_on_c, 9, 36, 0
1, 110879, Note_on_c, 9, 42, 0
1, 110880, Note_on_c, 9, 38, 106
1, 110880, Note_on_c, 9, 42, 106
1, 110880, Note_on_c, 9, 36, 106
1, 110999, Note_on_c, 9, 38, 0
1, 110999, Note_on_c, 9, 42, 0
1, 111000, Note_on_c, 9, 42, 50
1, 111119, Note_on_c, 9, 42, 0
1, 111120, Note_on_c, 9, 42, 106
1, 111239, Note_on_c, 9, 42, 0
1, 111240, Note_on_c, 9, 42, 106
1, 111359, Note_on_c, 9, 36, 0
1, 111359, Note_on_c, 9, 42, 0
1, 111360, Note_on_c, 9, 46, 106
1, 111360, Note_on_c, 9, 36, 106
1, 111479, Note_on_c, 9, 46, 0
1, 111480, Note_on_c, 9, 42, 106
1, 111599, Note_on_c, 9, 42, 0
1, 111600, Note_on_c, 9, 42, 106
1, 111719, Note_on_c, 9, 42, 0
1, 111720, Note_on_c, 9, 42, 50
1, 111839, Note_on_c, 9, 36, 0
1, 111839, Note_on_c, 9, 42, 0
1, 111840, Note_on_c, 9, 38, 106
1, 111840, Note_on_c, 9, 42, 106
1, 111840, Note_on_c, 9, 36, 106
1, 111959, Note_on_c, 9, 38, 0
1, 111959, Note_on_c, 9, 42, 0
1, 111960, Note_on_c, 9, 42, 50
1, 112079, Note_on_c, 9, 42, 0
1, 112080, Note_on_c, 9, 42, 106
1, 112199, Note_on_c, 9, 42, 0
1, 112200, Note_on_c, 9, 42, 106
1, 112319, Note_on_c, 9, 36, 0
1, 112319, Note_on_c, 9, 42, 0
1, 112320, Note_on_c, 9, 46, 106
1, 112320, Note_on_c, 9, 36, 106
1, 112439, Note_on_c, 9, 46, 0
1, 112440, Note_on_c, 9, 42, 106
1, 112559, Note_on_c, 9, 42, 0
1, 112560, Note_on_c, 9, 42, 50
1, 112679, Note_on_c, 9, 42, 0
1, 112680, Note_on_c, 9, 42, 106
1, 112799, Note_on_c, 9, 36, 0
1, 112799, Note_on_c, 9, 42, 0
1, 112800, Note_on_c, 9, 38, 106
1, 112800, Note_on_c, 9, 42, 106
1, 112800, Note_on_c, 9, 36, 106
1, 112919, Note_on_c, 9, 38, 0
1, 112919, Note_on_c, 9, 42, 0
1, 112920, Note_on_c, 9, 42, 50
1, 113039, Note_on_c, 9, 42, 0
1, 113040, Note_on_c, 9, 42, 106
1, 113159, Note_on_c, 9, 42, 0
1, 113160, Note_on_c, 9, 42, 106
1, 113279, Note_on_c, 9, 36, 0
1, 113279, Note_on_c, 9, 42, 0
1, 113280, Note_on_c, 9, 46, 106
1, 113280, Note_on_c, 9, 36, 106
1, 113399, Note_on_c, 9, 46, 0
1, 113400, Note_on_c, 9, 42, 106
1, 113519, Note_on_c, 9, 42, 0
1, 113520, Note_on_c, 9, 42, 106
1, 113639, Note_on_c, 9, 42, 0
1, 113640, Note_on_c, 9, 42, 50
1, 113759, Note_on_c, 9, 36, 0
1, 113759, Note_on_c, 9, 42, 0
1, 113760, Note_on_c, 9, 38, 106
1, 113760, Note_on_c, 9, 42, 106
1, 113760, Note_on_c, 9, 36, 106
1, 113879, Note_on_c, 9, 38, 0
1, 113879, Note_on_c, 9, 42, 0
1, 113880, Note_on_c, 9, 42, 50
1, 113999, Note_on_c, 9, 42, 0
1, 114000, Note_on_c, 9, 42, 106
1, 114119, Note_on_c, 9, 42, 0
1, 114120, Note_on_c, 9, 42, 106
1, 114239, Note_on_c, 9, 36, 0
1, 114239, Note_on_c, 9, 42, 0
1, 114240, Note_on_c, 9, 46, 106
1, 114240, Note_on_c, 9, 36, 106
1, 114359, Note_on_c, 9, 46, 0
1, 114360, Note_on_c, 9, 42, 106
1, 114479, Note_on_c, 9, 42, 0
1, 114480, Note_on_c, 9, 42, 50
1, 114599, Note_on_c, 9, 42, 0
1, 114600, Note_on_c, 9, 42, 106
1, 114719, Note_on_c, 9, 36, 0
1, 114719, Note_on_c, 9, 42, 0
1, 114720, Note_on_c, 9, 38, 106
1, 114720, Note_on_c, 9, 42, 106
1, 114720, Note_on_c, 9, 36, 106
1, 114839, Note_on_c, 9, 38, 0
1, 114839, Note_on_c, 9, 42, 0
1, 114840, Note_on_c, 9, 42, 50
1, 114959, Note_on_c, 9, 42, 0
1, 114960, Note_on_c, 9, 42, 106
1, 115079, Note_on_c, 9, 42, 0
1, 115080, Note_on_c, 9, 42, 106
1, 115199, Note_on_c, 9, 36, 0
1, 115199, Note_on_c, 9, 42, 0
1, 115200, Note_on_c, 9, 46, 106
1, 115200, Note_on_c, 9, 36, 106
1, 115319, Note_on_c, 9, 46, 0
1, 115320, Note_on_c, 9, 42, 106
1, 115439, Note_on_c, 9, 42, 0
1, 115440, Note_on_c, 9, 42, 106
1, 115559, Note_on_c, 9, 42, 0
1, 115560, Note_on_c, 9, 42, 50
1, 115679, Note_on_c, 9, 36, 0
1, 115679, Note_on_c, 9, 42, 0
1, 115680, Note_on_c, 9, 38, 106
1, 115680, Note_on_c, 9, 42, 106
1, 115680, Note_on_c, 9, 36, 106
1, 115799, Note_on_c, 9, 38, 0
1, 115799, Note_on_c, 9, 42, 0
1, 115800, Note_on_c, 9, 42, 50
1, 115919, Note_on_c, 9, 42, 0
1, 115920, Note_on_c, 9, 42, 106
1, 116039, Note_on_c, 9, 42, 0
1, 116040, Note_on_c, 9, 42, 106
1, 116159, Note_on_c, 9, 36, 0
1, 116159, Note_on_c, 9, 42, 0
1, 116160, Note_on_c, 9, 46, 106
1, 116160, Note_on_c, 9, 36, 106
1, 116279, Note_on_c, 9, 46, 0
1, 116280, Note_on_c, 9, 42, 106
1, 116399, Note_on_c, 9, 42, 0
1, 116400, Note_on_c, 9, 42, 50
1, 116519, Note_on_c, 9, 42, 0
1, 116520, Note_on_c, 9, 42, 106
1, 116639, Note_on_c, 9, 36, 0
1, 116639, Note_on_c, 9, 42, 0
1, 116640, Note_on_c, 9, 38, 106
1, 116640, Note_on_c, 9, 42, 106
1, 116640, Note_on_c, 9, 36, 106
1, 116759, Note_on_c, 9, 38, 0
1, 116759, Note_on_c, 9, 42, 0
1, 116760, Note_on_c, 9, 42, 50
1, 116879, Note_on_c, 9, 42, 0
1, 116880, Note_on_c, 9, 42, 106
1, 116999, Note_on_c, 9, 42, 0
1, 117000, Note_on_c, 9, 42, 106
1, 117119, Note_on_c, 9, 36, 0
1, 117119, Note_on_c, 9, 42, 0
1, 117120, Note_on_c, 9, 46, 106
1, 117120, Note_on_c, 9, 36, 106
1, 117239, Note_on_c, 9, 46, 0
1, 117240, Note_on_c, 9, 42, 106
1, 117359, Note_on_c, 9, 42, 0
1, 117360, Note_on_c, 9, 42, 106
1, 117479, Note_on_c, 9, 42, 0
1, 117480, Note_on_c, 9, 42, 50
1, 117599, Note_on_c, 9, 36, 0
1, 117599, Note_on_c, 9, 42, 0
1, 117600, Note_on_c, 9, 38, 106
1, 117600, Note_on_c, 9, 42, 106
1, 117600, Note_on_c, 9, 36, 106
1, 117719, Note_on_c, 9, 38, 0
1, 117719, Note_on_c, 9, 42, 0
1, 117720, Note_on_c, 9, 42, 50
1, 117839, Note_on_c, 9, 42, 0
1, 117840, Note_on_c, 9, 42, 106
1, 117959, Note_on_c, 9, 42, 0
1, 117960, Note_on_c, 9, 42, 106
1, 118079, Note_on_c, 9, 36, 0
1, 118079, Note_on_c, 9, 42, 0
1, 118080, Note_on_c, 9, 46, 106
1, 118080, Note_on_c, 9, 36, 106
1, 118199, Note_on_c, 9, 46, 0
1, 118200, Note_on_c, 9, 42, 106
1, 118319, Note_on_c, 9, 42, 0
1, 118320, Note_on_c, 9, 42, 50
1, 118439, Note_on_c, 9, 42, 0
1, 118440, Note_on_c, 9, 42, 106
1, 118559, Note_on_c, 9, 36, 0
1, 118559, Note_on_c, 9, 42, 0
1, 118560, Note_on_c, 9, 38, 106
1, 118560, Note_on_c, 9, 42, 106
1, 118560, Note_on_c, 9, 36, 106
1, 118679, Note_on_c, 9, 38, 0
1, 118679, Note_on_c, 9, 42, 0
1, 118680, Note_on_c, 9, 42, 50
1, 118799, Note_on_c, 9, 42, 0
1, 118800, Note_on_c, 9, 42, 106
1, 118919, Note_on_c, 9, 42, 0
1, 118920, Note_on_c, 9, 42, 106
1, 119039, Note_on_c, 9, 36, 0
1, 119039, Note_on_c, 9, 42, 0
1, 119040, Note_on_c, 9, 46, 106
1, 119040, Note_on_c, 9, 36, 106
1, 119159, Note_on_c, 9, 46, 0
1, 119160, Note_on_c, 9, 42, 106
1, 119279, Note_on_c, 9, 42, 0
1, 119280, Note_on_c, 9, 42, 106
1, 119399, Note_on_c, 9, 42, 0
1, 119400, Note_on_c, 9, 42, 50
1, 119519, Note_on_c, 9, 36, 0
1, 119519, Note_on_c, 9, 42, 0
1, 119520, Note_on_c, 9, 38, 106
1, 119520, Note_on_c, 9, 42, 106
1, 119520, Note_on_c, 9, 36, 106
1, 119639, Note_on_c, 9, 38, 0
1, 119639, Note_on_c, 9, 42, 0
1, 119640, Note_on_c, 9, 42, 50
1, 119759, Note_on_c, 9, 42, 0
1, 119760, Note_on_c, 9, 42, 106
1, 119879, Note_on_c, 9, 42, 0
1, 119880, Note_on_c, 9, 42, 106
1, 119999, Note_on_c, 9, 36, 0
1, 119999, Note_on_c, 9, 42, 0
1, 120000, Note_on_c, 9, 46, 106
1, 120000, Note_on_c, 9, 36, 106
1, 120119, Note_on_c, 9, 46, 0
1, 120120, Note_on_c, 9, 42, 106
1, 120239, Note_on_c, 9, 42, 0
1, 120240, Note_on_c, 9, 42, 50
1, 120359, Note_on_c, 9, 42, 0
1, 120360, Note_on_c, 9, 42, 106
1, 120479, Note_on_c, 9, 36, 0
1, 120479, Note_on_c, 9, 42, 0
1, 120480, Note_on_c, 9, 38, 106
1, 120480, Note_on_c, 9, 42, 106
1, 120480, Note_on_c, 9, 36, 106
1, 120599, Note_on_c, 9, 38, 0
1, 120599, Note_on_c, 9, 42, 0
1, 120600, Note_on_c, 9, 42, 50
1, 120719, Note_on_c, 9, 42, 0
1, 120720, Note_on_c, 9, 42, 106
1, 120839, Note_on_c, 9, 42, 0
1, 120840, Note_on_c, 9, 42, 106
1, 120959, Note_on_c, 9, 36, 0
1, 120959, Note_on_c, 9, 42, 0
1, 120960, Note_on_c, 9, 46, 106
1, 120960, Note_on_c, 9, 36, 106
1, 121079, Note_on_c, 9, 46, 0
1, 121080, Note_on_c, 9, 42, 106
1, 121199, Note_on_c, 9, 42, 0
1, 121200, Note_on_c, 9, 42, 106
1, 121319, Note_on_c, 9, 42, 0
1, 121320, Note_on_c, 9, 42, 50
1, 121439, Note_on_c, 9, 36, 0
1, 121439, Note_on_c, 9, 42, 0
1, 121440, Note_on_c, 9, 38, 106
1, 121440, Note_on_c, 9, 42, 106
1, 121440, Note_on_c, 9, 36, 106
1, 121559, Note_on_c, 9, 38, 0
1, 121559, Note_on_c, 9, 42, 0
1, 121560, Note_on_c, 9, 42, 50
1, 121679, Note_on_c, 9, 42, 0
1, 121680, Note_on_c, 9, 42, 106
1, 121799, Note_on_c, 9, 42, 0
1, 121800, Note_on_c, 9, 42, 106
1, 121919, Note_on_c, 9, 36, 0
1, 121919, Note_on_c, 9, 42, 0
1, 121920, Note_on_c, 9, 46, 106
1, 121920, Note_on_c, 9, 36, 106
1, 122039, Note_on_c, 9, 46, 0
1, 122040, Note_on_c, 9, 42, 106
1, 122159, Note_on_c, 9, 42, 0
1, 122160, Note_on_c, 9, 42, 50
1, 122279, Note_on_c, 9, 42, 0
1, 122280, Note_on_c, 9, 42, 106
1, 122399, Note_on_c, 9, 36, 0
1, 122399, Note_on_c, 9, 42, 0
1, 122400, Note_on_c, 9, 38, 106
1, 122400, Note_on_c, 9, 42, 106
1, 122400, Note_on_c, 9, 36, 106
1, 122519, Note_on_c, 9, 38, 0
1, 122519, Note_on_c, 9, 42, 0
1, 122520, Note_on_c, 9, 42, 50
1, 122639, Note_on_c, 9, 42, 0
1, 122640, Note_on_c, 9, 42, 106
1, 122759, Note_on_c, 9, 42, 0
1, 122760, Note_on_c, 9, 42, 106
1, 122879, Note_on_c, 9, 36, 0
1, 122879, Note_on_c, 9, 42, 0
1, 122880, Note_on_c, 9, 46, 106
1, 122880, Note_on_c, 9, 36, 106
1, 122999, Note_on_c, 9, 46, 0
1, 123000, Note_on_c, 9, 42, 106
1, 123119, Note_on_c, 9, 42, 0
1, 123120, Note_on_c, 9, 42, 106
1, 123239, Note_on_c, 9, 42, 0
1, 123240, Note_on_c, 9, 42, 50
1, 123359, Note_on_c, 9, 36, 0
1, 123359, Note_on_c, 9, 42, 0
1, 123360, Note_on_c, 9, 38, 106
1, 123360, Note_on_c, 9, 42, 106
1, 123360, Note_on_c, 9, 36, 106
1, 123479, Note_on_c, 9, 38, 0
1, 123479, Note_on_c, 9, 42, 0
1, 123480, Note_on_c, 9, 42, 50
1, 123599, Note_on_c, 9, 42, 0
1, 123600, Note_on_c, 9, 42, 106
1, 123719, Note_on_c, 9, 42, 0
1, 123720, Note_on_c, 9, 42, 106
1, 123839, Note_on_c, 9, 36, 0
1, 123839, Note_on_c, 9, 42, 0
1, 123840, Note_on_c, 9, 46, 106
1, 123840, Note_on_c, 9, 36, 106
1, 123959, Note_on_c, 9, 46, 0
1, 123960, Note_on_c, 9, 42, 106
1, 124079, Note_on_c, 9, 42, 0
1, 124080, Note_on_c, 9, 42, 50
1, 124199, Note_on_c, 9, 42, 0
1, 124200, Note_on_c, 9, 42, 106
1, 124319, Note_on_c, 9, 36, 0
1, 124319, Note_on_c, 9, 42, 0
1, 124320, Note_on_c, 9, 38, 106
1, 124320, Note_on_c, 9, 42, 106
1, 124320, Note_on_c, 9, 36, 106
1, 124439, Note_on_c, 9, 38, 0
1, 124439, Note_on_c, 9, 42, 0
1, 124440, Note_on_c, 9, 42, 50
1, 124559, Note_on_c, 9, 42, 0
1, 124560, Note_on_c, 9, 42, 106
1, 124679, Note_on_c, 9, 42, 0
1, 124680, Note_on_c, 9, 42, 106
1, 124799, Note_on_c, 9, 36, 0
1, 124799, Note_on_c, 9, 42, 0
1, 124800, Note_on_c, 9, 46, 106
1, 124800, Note_on_c, 9, 36, 106
1, 124919, Note_on_c, 9, 46, 0
1, 124920, Note_on_c, 9, 42, 106
1, 125039, Note_on_c, 9, 42, 0
1, 125040, Note_on_c, 9, 42, 106
1, 125159, Note_on_c, 9, 42, 0
1, 125160, Note_on_c, 9, 42, 50
1, 125279, Note_on_c, 9, 36, 0
1, 125279, Note_on_c, 9, 42, 0
1, 125280, Note_on_c, 9, 38, 106
1, 125280, Note_on_c, 9, 42, 106
1, 125280, Note_on_c, 9, 36, 106
1, 125399, Note_on_c, 9, 38, 0
1, 125399, Note_on_c, 9, 42, 0
1, 125400, Note_on_c, 9, 42, 50
1, 125519, Note_on_c, 9, 42, 0
1, 125520, Note_on_c, 9, 42, 106
1, 125639, Note_on_c, 9, 42, 0
1, 125640, Note_on_c, 9, 42, 106
1, 125759, Note_on_c, 9, 36, 0
1, 125759, Note_on_c, 9, 42, 0
1, 125760, Note_on_c, 9, 46, 106
1, 125760, Note_on_c, 9, 36, 106
1, 125879, Note_on_c, 9, 46, 0
1, 125880, Note_on_c, 9, 42, 106
1, 125999, Note_on_c, 9, 42, 0
1, 126000, Note_on_c, 9, 42, 50
1, 126119, Note_on_c, 9, 42, 0
1, 126120, Note_on_c, 9, 42, 106
1, 126239, Note_on_c, 9, 36, 0
1, 126239, Note_on_c, 9, 42, 0
1, 126240, Note_on_c, 9, 38, 106
1, 126240, Note_on_c, 9, 42, 106
1, 126359, Note_on_c, 9, 38, 0
1, 126359, Note_on_c, 9, 42, 0
1, 126360, Note_on_c, 9, 42, 50
1, 126479, Note_on_c, 9, 42, 0
1, 126480, Note_on_c, 9, 38, 106
1, 126480, Note_on_c, 9, 42, 106
1, 126599, Note_on_c, 9, 38, 0
1, 126599, Note_on_c, 9, 42, 0
1, 126600, Note_on_c, 9, 38, 106
1, 126600, Note_on_c, 9, 46, 106
1, 126719, Note_on_c, 9, 38, 0
1, 126719, Note_on_c, 9, 46, 0
1, 126720, Note_on_c, 9, 38, 106
1, 126720, Note_on_c, 9, 36, 106
1, 126839, Note_on_c, 9, 38, 0
1, 126840, Note_on_c, 9, 42, 64
1, 126959, Note_on_c, 9, 36, 0
1, 126959, Note_on_c, 9, 42, 0
1, 126960, Note_on_c, 9, 41, 92
1, 126960, Note_on_c, 9, 46, 106
1, 126960, Note_on_c, 9, 36, 106
1, 127199, Note_on_c, 9, 41, 0
1, 127199, Note_on_c, 9, 46, 0
1, 127199, Note_on_c, 9, 36, 0
1, 127200, Note_on_c, 9, 42, 64
1, 127439, Note_on_c, 9, 42, 0
1, 127440, Note_on_c, 9, 41, 92
1, 127440, Note_on_c, 9, 46, 106
1, 127440, Note_on_c, 9, 36, 106
1, 127679, Note_on_c, 9, 41, 0
1, 127679, Note_on_c, 9, 46, 0
1, 127679, Note_on_c, 9, 36, 0
1, 127680, Note_on_c, 9, 42, 64
1, 127919, Note_on_c, 9, 42, 0
1, 127920, Note_on_c, 9, 41, 92
1, 127920, Note_on_c, 9, 46, 106
1, 127920, Note_on_c, 9, 36, 106
1, 128159, Note_on_c, 9, 41, 0
1, 128159, Note_on_c, 9, 46, 0
1, 128159, Note_on_c, 9, 36, 0
1, 128160, Note_on_c, 9, 42, 64
1, 128399, Note_on_c, 9, 42, 0
1, 128400, Note_on_c, 9, 41, 92
1, 128400, Note_on_c, 9, 46, 106
1, 128400, Note_on_c, 9, 36, 106
1, 128639, Note_on_c, 9, 41, 0
1, 128639, Note_on_c, 9, 46, 0
1, 128639, Note_on_c, 9, 36, 0
1, 128640, Note_on_c, 9, 56, 64
1, 128640, Note_on_c, 9, 49, 106
1, 128640, Note_on_c, 9, 36, 106
1, 129119, Note_on_c, 9, 56, 0
1, 129119, Note_on_c, 9, 49, 0
1, 129119, Note_on_c, 9, 36, 0
1, 129120, Note_on_c, 9, 56, 64
1, 129599, Note_on_c, 9, 56, 0
1, 129600, Note_on_c, 9, 56, 64
1, 130079, Note_on_c, 9, 56, 0
1, 130080, Note_on_c, 9, 56, 64
1, 130559, Note_on_c, 9, 56, 0
1, 130560, Note_on_c, 9, 56, 64
1, 131039, Note_on_c, 9, 56, 0
1, 131040, Note_on_c, 9, 56, 64
1, 131519, Note_on_c, 9, 56, 0
1, 131520, Note_on_c, 9, 56, 64
1, 131999, Note_on_c, 9, 56, 0
1, 132000, Note_on_c, 9, 56, 64
1, 132479, Note_on_c, 9, 56, 0
1, 132480, Note_on_c, 9, 56, 64
1, 132959, Note_on_c, 9, 56, 0
1, 132960, Note_on_c, 9, 56, 64
1, 133439, Note_on_c, 9, 56, 0
1, 133440, Note_on_c, 9, 56, 64
1, 133919, Note_on_c, 9, 56, 0
1, 133920, Note_on_c, 9, 56, 64
1, 134399, Note_on_c, 9, 56, 0
1, 134400, Note_on_c, 9, 56, 64
1, 134879, Note_on_c, 9, 56, 0
1, 134880, Note_on_c, 9, 56, 64
1, 135359, Note_on_c, 9, 56, 0
1, 135360, Note_on_c, 9, 56, 64
1, 135839, Note_on_c, 9, 56, 0
1, 135840, Note_on_c, 9, 41, 120
1, 135840, Note_on_c, 9, 38, 106
1, 135840, Note_on_c, 9, 36, 106
1, 136079, Note_on_c, 9, 41, 0
1, 136079, Note_on_c, 9, 38, 0
1, 136079, Note_on_c, 9, 36, 0
1, 136080, Note_on_c, 9, 41, 120
1, 136080, Note_on_c, 9, 38, 106
1, 136080, Note_on_c, 9, 36, 106
1, 136319, Note_on_c, 9, 41, 0
1, 136319, Note_on_c, 9, 38, 0
1, 136319, Note_on_c, 9, 36, 0
1, 136320, Note_on_c, 9, 56, 64
1, 136320, Note_on_c, 9, 49, 106
1, 136320, Note_on_c, 9, 36, 106
1, 136799, Note_on_c, 9, 56, 0
1, 136799, Note_on_c, 9, 49, 0
1, 136799, Note_on_c, 9, 36, 0
1, 136800, Note_on_c, 9, 56, 64
1, 137279, Note_on_c, 9, 56, 0
1, 137280, Note_on_c, 9, 56, 64
1, 137759, Note_on_c, 9, 56, 0
1, 137760, Note_on_c, 9, 56, 64
1, 138239, Note_on_c, 9, 56, 0
1, 138240, Note_on_c, 9, 56, 64
1, 138719, Note_on_c, 9, 56, 0
1, 138720, Note_on_c, 9, 56, 64
1, 139199, Note_on_c, 9, 56, 0
1, 139200, Note_on_c, 9, 56, 64
1, 139679, Note_on_c, 9, 56, 0
1, 139680, Note_on_c, 9, 56, 64
1, 140159, Note_on_c, 9, 56, 0
1, 140160, Note_on_c, 9, 56, 64
1, 140639, Note_on_c, 9, 56, 0
1, 140640, Note_on_c, 9, 56, 64
1, 141119, Note_on_c, 9, 56, 0
1, 141120, Note_on_c, 9, 56, 64
1, 141599, Note_on_c, 9, 56, 0
1, 141600, Note_on_c, 9, 56, 64
1, 141839, Note_on_c, 9, 56, 0
1, 141840, Note_on_c, 9, 42, 106
1, 141840, Note_on_c, 9, 36, 106
1, 142079, Note_on_c, 9, 42, 0
1, 142079, Note_on_c, 9, 36, 0
1, 142080, Note_on_c, 9, 49, 106
1, 142080, Note_on_c, 9, 36, 106
1, 142559, Note_on_c, 9, 49, 0
1, 142559, Note_on_c, 9, 36, 0
1, 142560, Note_on_c, 9, 38, 64
1, 142560, Note_on_c, 9, 46, 106
1, 142560, Note_on_c, 9, 36, 106
1, 143039, Note_on_c, 9, 38, 0
1, 143039, Note_on_c, 9, 46, 0
1, 143039, Note_on_c, 9, 36, 0
1, 143040, Note_on_c, 9, 38, 78
1, 143040, Note_on_c, 9, 46, 106
1, 143040, Note_on_c, 9, 36, 106
1, 143519, Note_on_c, 9, 38, 0
1, 143519, Note_on_c, 9, 46, 0
1, 143519, Note_on_c, 9, 36, 0
1, 143520, Note_on_c, 9, 38, 92
1, 143520, Note_on_c, 9, 46, 106
1, 143520, Note_on_c, 9, 36, 106
1, 143999, Note_on_c, 9, 38, 0
1, 143999, Note_on_c, 9, 46, 0
1, 143999, Note_on_c, 9, 36, 0
1, 144000, Note_on_c, 9, 49, 120
1, 144000, Note_on_c, 9, 36, 106
1, 144239, Note_on_c, 9, 49, 0
1, 144240, Note_on_c, 9, 42, 78
1, 144479, Note_on_c, 9, 36, 0
1, 144479, Note_on_c, 9, 42, 0
1, 144480, Note_on_c, 9, 38, 106
1, 144480, Note_on_c, 9, 42, 92
1, 144480, Note_on_c, 9, 36, 106
1, 144719, Note_on_c, 9, 38, 0
1, 144719, Note_on_c, 9, 42, 0
1, 144720, Note_on_c, 9, 42, 78
1, 144959, Note_on_c, 9, 36, 0
1, 144959, Note_on_c, 9, 42, 0
1, 144960, Note_on_c, 9, 42, 92
1, 144960, Note_on_c, 9, 36, 106
1, 145199, Note_on_c, 9, 42, 0
1, 145200, Note_on_c, 9, 42, 78
1, 145439, Note_on_c, 9, 36, 0
1, 145439, Note_on_c, 9, 42, 0
1, 145440, Note_on_c, 9, 38, 106
1, 145440, Note_on_c, 9, 42, 92
1, 145440, Note_on_c, 9, 36, 106
1, 145679, Note_on_c, 9, 38, 0
1, 145679, Note_on_c, 9, 42, 0
1, 145680, Note_on_c, 9, 42, 78
1, 145919, Note_on_c, 9, 36, 0
1, 145919, Note_on_c, 9, 42, 0
1, 145920, Note_on_c, 9, 42, 92
1, 145920, Note_on_c, 9, 36, 106
1, 146159, Note_on_c, 9, 42, 0
1, 146160, Note_on_c, 9, 42, 78
1, 146399, Note_on_c, 9, 36, 0
1, 146399, Note_on_c, 9, 42, 0
1, 146400, Note_on_c, 9, 38, 106
1, 146400, Note_on_c, 9, 42, 92
1, 146400, Note_on_c, 9, 36, 106
1, 146639, Note_on_c, 9, 38, 0
1, 146639, Note_on_c, 9, 42, 0
1, 146640, Note_on_c, 9, 42, 78
1, 146879, Note_on_c, 9, 36, 0
1, 146879, Note_on_c, 9, 42, 0
1, 146880, Note_on_c, 9, 42, 92
1, 146880, Note_on_c, 9, 36, 106
1, 147119, Note_on_c, 9, 42, 0
1, 147120, Note_on_c, 9, 42, 78
1, 147359, Note_on_c, 9, 36, 0
1, 147359, Note_on_c, 9, 42, 0
1, 147360, Note_on_c, 9, 38, 106
1, 147360, Note_on_c, 9, 42, 92
1, 147360, Note_on_c, 9, 36, 106
1, 147599, Note_on_c, 9, 38, 0
1, 147599, Note_on_c, 9, 42, 0
1, 147600, Note_on_c, 9, 42, 78
1, 147839, Note_on_c, 9, 36, 0
1, 147839, Note_on_c, 9, 42, 0
1, 147840, Note_on_c, 9, 42, 92
1, 147840, Note_on_c, 9, 36, 106
1, 148079, Note_on_c, 9, 42, 0
1, 148080, Note_on_c, 9, 42, 78
1, 148319, Note_on_c, 9, 36, 0
1, 148319, Note_on_c, 9, 42, 0
1, 148320, Note_on_c, 9, 38, 106
1, 148320, Note_on_c, 9, 42, 92
1, 148320, Note_on_c, 9, 36, 106
1, 148559, Note_on_c, 9, 38, 0
1, 148559, Note_on_c, 9, 42, 0
1, 148560, Note_on_c, 9, 42, 78
1, 148799, Note_on_c, 9, 36, 0
1, 148799, Note_on_c, 9, 42, 0
1, 148800, Note_on_c, 9, 42, 92
1, 148800, Note_on_c, 9, 36, 106
1, 149039, Note_on_c, 9, 42, 0
1, 149040, Note_on_c, 9, 42, 78
1, 149279, Note_on_c, 9, 36, 0
1, 149279, Note_on_c, 9, 42, 0
1, 149280, Note_on_c, 9, 38, 106
1, 149280, Note_on_c, 9, 42, 92
1, 149280, Note_on_c, 9, 36, 106
1, 149519, Note_on_c, 9, 38, 0
1, 149519, Note_on_c, 9, 42, 0
1, 149520, Note_on_c, 9, 42, 78
1, 149759, Note_on_c, 9, 36, 0
1, 149759, Note_on_c, 9, 42, 0
1, 149760, Note_on_c, 9, 42, 92
1, 149760, Note_on_c, 9, 36, 106
1, 149999, Note_on_c, 9, 42, 0
1, 150000, Note_on_c, 9, 42, 78
1, 150239, Note_on_c, 9, 36, 0
1, 150239, Note_on_c, 9, 42, 0
1, 150240, Note_on_c, 9, 38, 106
1, 150240, Note_on_c, 9, 42, 92
1, 150240, Note_on_c, 9, 36, 106
1, 150479, Note_on_c, 9, 38, 0
1, 150479, Note_on_c, 9, 42, 0
1, 150480, Note_on_c, 9, 42, 78
1, 150719, Note_on_c, 9, 36, 0
1, 150719, Note_on_c, 9, 42, 0
1, 150720, Note_on_c, 9, 42, 92
1, 150720, Note_on_c, 9, 36, 106
1, 150959, Note_on_c, 9, 42, 0
1, 150960, Note_on_c, 9, 42, 78
1, 151199, Note_on_c, 9, 36, 0
1, 151199, Note_on_c, 9, 42, 0
1, 151200, Note_on_c, 9, 38, 106
1, 151200, Note_on_c, 9, 42, 92
1, 151200, Note_on_c, 9, 36, 106
1, 151439, Note_on_c, 9, 38, 0
1, 151439, Note_on_c, 9, 42, 0
1, 151440, Note_on_c, 9, 42, 78
1, 151679, Note_on_c, 9, 36, 0
1, 151679, Note_on_c, 9, 42, 0
1, 151680, Note_on_c, 9, 42, 92
1, 151680, Note_on_c, 9, 36, 106
1, 151919, Note_on_c, 9, 42, 0
1, 151920, Note_on_c, 9, 42, 78
1, 152159, Note_on_c, 9, 36, 0
1, 152159, Note_on_c, 9, 42, 0
1, 152160, Note_on_c, 9, 38, 106
1, 152160, Note_on_c, 9, 42, 92
1, 152160, Note_on_c, 9, 36, 106
1, 152399, Note_on_c, 9, 38, 0
1, 152399, Note_on_c, 9, 42, 0
1, 152400, Note_on_c, 9, 42, 78
1, 152639, Note_on_c, 9, 36, 0
1, 152639, Note_on_c, 9, 42, 0
1, 152640, Note_on_c, 9, 42, 92
1, 152640, Note_on_c, 9, 36, 106
1, 152879, Note_on_c, 9, 42, 0
1, 152880, Note_on_c, 9, 42, 78
1, 153119, Note_on_c, 9, 36, 0
1, 153119, Note_on_c, 9, 42, 0
1, 153120, Note_on_c, 9, 38, 106
1, 153120, Note_on_c, 9, 42, 92
1, 153120, Note_on_c, 9, 36, 106
1, 153359, Note_on_c, 9, 38, 0
1, 153359, Note_on_c, 9, 42, 0
1, 153360, Note_on_c, 9, 42, 78
1, 153599, Note_on_c, 9, 36, 0
1, 153599, Note_on_c, 9, 42, 0
1, 153600, Note_on_c, 9, 42, 92
1, 153600, Note_on_c, 9, 36, 106
1, 153839, Note_on_c, 9, 42, 0
1, 153840, Note_on_c, 9, 42, 78
1, 154079, Note_on_c, 9, 36, 0
1, 154079, Note_on_c, 9, 42, 0
1, 154080, Note_on_c, 9, 38, 106
1, 154080, Note_on_c, 9, 42, 92
1, 154080, Note_on_c, 9, 36, 106
1, 154319, Note_on_c, 9, 38, 0
1, 154319, Note_on_c, 9, 42, 0
1, 154320, Note_on_c, 9, 42, 78
1, 154559, Note_on_c, 9, 36, 0
1, 154559, Note_on_c, 9, 42, 0
1, 154560, Note_on_c, 9, 42, 92
1, 154560, Note_on_c, 9, 36, 106
1, 154799, Note_on_c, 9, 42, 0
1, 154800, Note_on_c, 9, 42, 78
1, 155039, Note_on_c, 9, 36, 0
1, 155039, Note_on_c, 9, 42, 0
1, 155040, Note_on_c, 9, 38, 106
1, 155040, Note_on_c, 9, 42, 92
1, 155040, Note_on_c, 9, 36, 106
1, 155279, Note_on_c, 9, 38, 0
1, 155279, Note_on_c, 9, 42, 0
1, 155280, Note_on_c, 9, 42, 78
1, 155519, Note_on_c, 9, 36, 0
1, 155519, Note_on_c, 9, 42, 0
1, 155520, Note_on_c, 9, 42, 92
1, 155520, Note_on_c, 9, 36, 106
1, 155759, Note_on_c, 9, 42, 0
1, 155760, Note_on_c, 9, 42, 78
1, 155999, Note_on_c, 9, 36, 0
1, 155999, Note_on_c, 9, 42, 0
1, 156000, Note_on_c, 9, 38, 106
1, 156000, Note_on_c, 9, 42, 92
1, 156000, Note_on_c, 9, 36, 106
1, 156239, Note_on_c, 9, 38, 0
1, 156239, Note_on_c, 9, 42, 0
1, 156240, Note_on_c, 9, 42, 78
1, 156479, Note_on_c, 9, 36, 0
1, 156479, Note_on_c, 9, 42, 0
1, 156480, Note_on_c, 9, 42, 92
1, 156480, Note_on_c, 9, 36, 106
1, 156719, Note_on_c, 9, 42, 0
1, 156720, Note_on_c, 9, 42, 78
1, 156959, Note_on_c, 9, 36, 0
1, 156959, Note_on_c, 9, 42, 0
1, 156960, Note_on_c, 9, 38, 106
1, 156960, Note_on_c, 9, 42, 92
1, 156960, Note_on_c, 9, 36, 106
1, 157199, Note_on_c, 9, 38, 0
1, 157199, Note_on_c, 9, 42, 0
1, 157200, Note_on_c, 9, 42, 78
1, 157439, Note_on_c, 9, 36, 0
1, 157439, Note_on_c, 9, 42, 0
1, 157440, Note_on_c, 9, 42, 92
1, 157440, Note_on_c, 9, 36, 106
1, 157679, Note_on_c, 9, 42, 0
1, 157680, Note_on_c, 9, 42, 78
1, 157919, Note_on_c, 9, 36, 0
1, 157919, Note_on_c, 9, 42, 0
1, 157920, Note_on_c, 9, 38, 106
1, 157920, Note_on_c, 9, 42, 92
1, 157920, Note_on_c, 9, 36, 106
1, 158159, Note_on_c, 9, 38, 0
1, 158159, Note_on_c, 9, 42, 0
1, 158160, Note_on_c, 9, 42, 78
1, 158399, Note_on_c, 9, 36, 0
1, 158399, Note_on_c, 9, 42, 0
1, 158400, Note_on_c, 9, 42, 92
1, 158400, Note_on_c, 9, 36, 106
1, 158639, Note_on_c, 9, 42, 0
1, 158640, Note_on_c, 9, 42, 78
1, 158879, Note_on_c, 9, 36, 0
1, 158879, Note_on_c, 9, 42, 0
1, 158880, Note_on_c, 9, 38, 106
1, 158880, Note_on_c, 9, 42, 92
1, 158880, Note_on_c, 9, 36, 106
1, 159119, Note_on_c, 9, 38, 0
1, 159119, Note_on_c, 9, 42, 0
1, 159120, Note_on_c, 9, 42, 78
1, 159359, Note_on_c, 9, 36, 0
1, 159359, Note_on_c, 9, 42, 0
1, 159360, Note_on_c, 9, 42, 92
1, 159360, Note_on_c, 9, 36, 106
1, 159599, Note_on_c, 9, 42, 0
1, 159600, Note_on_c, 9, 42, 78
1, 159839, Note_on_c, 9, 36, 0
1, 159839, Note_on_c, 9, 42, 0
1, 159840, Note_on_c, 9, 38, 106
1, 159840, Note_on_c, 9, 46, 106
1, 159840, Note_on_c, 9, 36, 106
1, 160319, Note_on_c, 9, 38, 0
1, 160319, Note_on_c, 9, 46, 0
1, 160319, Note_on_c, 9, 36, 0
1, 160320, Note_on_c, 9, 38, 120
1, 160320, Note_on_c, 9, 36, 106
1, 160439, Note_on_c, 9, 38, 0
1, 160440, Note_on_c, 9, 38, 106
1, 160559, Note_on_c, 9, 38, 0
1, 160560, Note_on_c, 9, 38, 106
1, 160679, Note_on_c, 9, 38, 0
1, 160680, Note_on_c, 9, 38, 106
1, 160799, Note_on_c, 9, 36, 0
1, 160799, Note_on_c, 9, 38, 0
1, 160800, Note_on_c, 9, 38, 120
1, 160800, Note_on_c, 9, 36, 106
1, 160919, Note_on_c, 9, 38, 0
1, 160920, Note_on_c, 9, 38, 106
1, 161039, Note_on_c, 9, 38, 0
1, 161040, Note_on_c, 9, 38, 106
1, 161159, Note_on_c, 9, 38, 0
1, 161160, Note_on_c, 9, 38, 106
1, 161279, Note_on_c, 9, 36, 0
1, 161279, Note_on_c, 9, 38, 0
1, 161280, Tempo, 512821
1, 161280, Note_on_c, 9, 49, 120
1, 161280, Note_on_c, 9, 36, 106
1, 161759, Note_on_c, 9, 49, 0
1, 161759, Note_on_c, 9, 36, 0
1, 161760, Note_on_c, 9, 44, 64
1, 162239, Note_on_c, 9, 44, 0
1, 162240, Note_on_c, 9, 44, 106
1, 162719, Note_on_c, 9, 44, 0
1, 162720, Note_on_c, 9, 44, 64
1, 163199, Note_on_c, 9, 44, 0
1, 163200, Note_on_c, 9, 44, 106
1, 163679, Note_on_c, 9, 44, 0
1, 163680, Note_on_c, 9, 31, 76
1, 163680, Note_on_c, 9, 44, 64
1, 164159, Note_on_c, 9, 31, 0
1, 164159, Note_on_c, 9, 44, 0
1, 164160, Note_on_c, 9, 44, 106
1, 164639, Note_on_c, 9, 44, 0
1, 164640, Note_on_c, 9, 44, 64
1, 165119, Note_on_c, 9, 44, 0
1, 165120, Note_on_c, 9, 49, 120
1, 165120, Note_on_c, 9, 36, 106
1, 165599, Note_on_c, 9, 49, 0
1, 165599, Note_on_c, 9, 36, 0
1, 165600, Note_on_c, 9, 44, 64
1, 166079, Note_on_c, 9, 44, 0
1, 166080, Note_on_c, 9, 44, 106
1, 166559, Note_on_c, 9, 44, 0
1, 166560, Note_on_c, 9, 44, 64
1, 167039, Note_on_c, 9, 44, 0
1, 167040, Note_on_c, 9, 44, 106
1, 167519, Note_on_c, 9, 44, 0
1, 167520, Note_on_c, 9, 44, 64
1, 167999, Note_on_c, 9, 44, 0
1, 168000, Note_on_c, 9, 44, 106
1, 168479, Note_on_c, 9, 44, 0
1, 168480, Note_on_c, 9, 44, 64
1, 168959, Note_on_c, 9, 44, 0
1, 168960, Note_on_c, 9, 49, 120
1, 168960, Note_on_c, 9, 36, 106
1, 169439, Note_on_c, 9, 49, 0
1, 169439, Note_on_c, 9, 36, 0
1, 169440, Note_on_c, 9, 44, 64
1, 169919, Note_on_c, 9, 44, 0
1, 169920, Note_on_c, 9, 44, 106
1, 170399, Note_on_c, 9, 44, 0
1, 170400, Note_on_c, 9, 44, 64
1, 170879, Note_on_c, 9, 44, 0
1, 170880, Note_on_c, 9, 44, 106
1, 171359, Note_on_c, 9, 44, 0
1, 171360, Note_on_c, 9, 44, 64
1, 171839, Note_on_c, 9, 44, 0
1, 171840, Note_on_c, 9, 44, 106
1, 172319, Note_on_c, 9, 44, 0
1, 172320, Note_on_c, 9, 44, 64
1, 172799, Note_on_c, 9, 44, 0
1, 172800, Tempo, 495868
1, 172800, Note_on_c, 9, 41, 36
1, 172800, Note_on_c, 9, 49, 106
1, 172800, Note_on_c, 9, 36, 36
1, 173039, Note_on_c, 9, 41, 0
1, 173039, Note_on_c, 9, 49, 0
1, 173039, Note_on_c, 9, 36, 0
1, 173040, Note_on_c, 9, 41, 36
1, 173040, Note_on_c, 9, 36, 36
1, 173279, Note_on_c, 9, 41, 0
1, 173279, Note_on_c, 9, 36, 0
1, 173280, Note_on_c, 9, 41, 50
1, 173280, Note_on_c, 9, 36, 50
1, 173519, Note_on_c, 9, 41, 0
1, 173519, Note_on_c, 9, 36, 0
1, 173520, Note_on_c, 9, 41, 50
1, 173520, Note_on_c, 9, 36, 50
1, 173759, Note_on_c, 9, 41, 0
1, 173759, Note_on_c, 9, 36, 0
1, 173760, Note_on_c, 9, 41, 64
1, 173760, Note_on_c, 9, 36, 64
1, 173999, Note_on_c, 9, 41, 0
1, 173999, Note_on_c, 9, 36, 0
1, 174000, Note_on_c, 9, 41, 64
1, 174000, Note_on_c, 9, 36, 64
1, 174239, Note_on_c, 9, 41, 0
1, 174239, Note_on_c, 9, 36, 0
1, 174240, Note_on_c, 9, 41, 78
1, 174240, Note_on_c, 9, 36, 78
1, 174479, Note_on_c, 9, 41, 0
1, 174479, Note_on_c, 9, 36, 0
1, 174480, Note_on_c, 9, 41, 78
1, 174480, Note_on_c, 9, 36, 78
1, 174719, Note_on_c, 9, 41, 0
1, 174719, Note_on_c, 9, 36, 0
1, 174720, Note_on_c, 9, 41, 92
1, 174720, Note_on_c, 9, 36, 92
1, 174959, Note_on_c, 9, 41, 0
1, 174959, Note_on_c, 9, 36, 0
1, 174960, Note_on_c, 9, 41, 92
1, 174960, Note_on_c, 9, 36, 92
1, 175199, Note_on_c, 9, 41, 0
1, 175199, Note_on_c, 9, 36, 0
1, 175200, Note_on_c, 9, 41, 106
1, 175200, Note_on_c, 9, 36, 106
1, 175439, Note_on_c, 9, 41, 0
1, 175439, Note_on_c, 9, 36, 0
1, 175440, Note_on_c, 9, 41, 106
1, 175440, Note_on_c, 9, 36, 106
1, 175679, Note_on_c, 9, 41, 0
1, 175679, Note_on_c, 9, 36, 0
1, 175680, Note_on_c, 9, 41, 120
1, 175680, Note_on_c, 9, 36, 120
1, 175919, Note_on_c, 9, 41, 0
1, 175919, Note_on_c, 9, 36, 0
1, 175920, Note_on_c, 9, 41, 120
1, 175920, Note_on_c, 9, 36, 120
1, 176159, Note_on_c, 9, 41, 0
1, 176159, Note_on_c, 9, 36, 0
1, 176160, Note_on_c, 9, 41, 120
1, 176160, Note_on_c, 9, 45, 120
1, 176160, Note_on_c, 9, 36, 120
1, 176639, Note_on_c, 9, 41, 0
1, 176639, Note_on_c, 9, 45, 0
1, 176639, Note_on_c, 9, 36, 0
1, 176640, Tempo, 512821
1, 176640, Note_on_c, 9, 49, 120
1, 176640, Note_on_c, 9, 36, 120
1, 176759, Note_on_c, 9, 49, 0
1, 176760, Note_on_c, 9, 42, 64
1, 176879, Note_on_c, 9, 42, 0
1, 176880, Note_on_c, 9, 42, 106
1, 176999, Note_on_c, 9, 42, 0
1, 177000, Note_on_c, 9, 42, 64
1, 177119, Note_on_c, 9, 36, 0
1, 177119, Note_on_c, 9, 42, 0
1, 177120, Note_on_c, 9, 46, 106
1, 177239, Note_on_c, 9, 46, 0
1, 177240, Note_on_c, 9, 42, 64
1, 177359, Note_on_c, 9, 42, 0
1, 177360, Note_on_c, 9, 42, 106
1, 177479, Note_on_c, 9, 42, 0
1, 177480, Note_on_c, 9, 42, 64
1, 177599, Note_on_c, 9, 42, 0
1, 177600, Note_on_c, 9, 42, 106
1, 177719, Note_on_c, 9, 42, 0
1, 177720, Note_on_c, 9, 42, 64
1, 177839, Note_on_c, 9, 42, 0
1, 177840, Note_on_c, 9, 42, 106
1, 177959, Note_on_c, 9, 42, 0
1, 177960, Note_on_c, 9, 42, 64
1, 178079, Note_on_c, 9, 42, 0
1, 178080, Note_on_c, 9, 46, 106
1, 178199, Note_on_c, 9, 46, 0
1, 178200, Note_on_c, 9, 42, 64
1, 178319, Note_on_c, 9, 42, 0
1, 178320, Note_on_c, 9, 42, 106
1, 178439, Note_on_c, 9, 42, 0
1, 178440, Note_on_c, 9, 42, 64
1, 178559, Note_on_c, 9, 42, 0
1, 178560, Note_on_c, 9, 42, 106
1, 178679, Note_on_c, 9, 42, 0
1, 178680, Note_on_c, 9, 42, 64
1, 178799, Note_on_c, 9, 42, 0
1, 178800, Note_on_c, 9, 42, 106
1, 178919, Note_on_c, 9, 42, 0
1, 178920, Note_on_c, 9, 42, 64
1, 179039, Note_on_c, 9, 42, 0
1, 179040, Note_on_c, 9, 46, 106
1, 179159, Note_on_c, 9, 46, 0
1, 179160, Note_on_c, 9, 42, 64
1, 179279, Note_on_c, 9, 42, 0
1, 179280, Note_on_c, 9, 42, 106
1, 179399, Note_on_c, 9, 42, 0
1, 179400, Note_on_c, 9, 42, 64
1, 179519, Note_on_c, 9, 42, 0
1, 179520, Note_on_c, 9, 42, 106
1, 179639, Note_on_c, 9, 42, 0
1, 179640, Note_on_c, 9, 42, 64
1, 179759, Note_on_c, 9, 42, 0
1, 179760, Note_on_c, 9, 42, 106
1, 179879, Note_on_c, 9, 42, 0
1, 179880, Note_on_c, 9, 42, 64
1, 179999, Note_on_c, 9, 42, 0
1, 180000, Note_on_c, 9, 46, 106
1, 180119, Note_on_c, 9, 46, 0
1, 180120, Note_on_c, 9, 42, 64
1, 180239, Note_on_c, 9, 42, 0
1, 180240, Note_on_c, 9, 42, 106
1, 180359, Note_on_c, 9, 42, 0
1, 180360, Note_on_c, 9, 42, 64
1, 180479, Note_on_c, 9, 42, 0
1, 180480, Note_on_c, 9, 42, 106
1, 180599, Note_on_c, 9, 42, 0
1, 180600, Note_on_c, 9, 42, 64
1, 180719, Note_on_c, 9, 42, 0
1, 180720, Note_on_c, 9, 42, 106
1, 180839, Note_on_c, 9, 42, 0
1, 180840, Note_on_c, 9, 42, 64
1, 180959, Note_on_c, 9, 42, 0
1, 180960, Note_on_c, 9, 46, 106
1, 181079, Note_on_c, 9, 46, 0
1, 181080, Note_on_c, 9, 42, 64
1, 181199, Note_on_c, 9, 42, 0
1, 181200, Note_on_c, 9, 42, 106
1, 181319, Note_on_c, 9, 42, 0
1, 181320, Note_on_c, 9, 42, 64
1, 181439, Note_on_c, 9, 42, 0
1, 181440, Note_on_c, 9, 42, 106
1, 181559, Note_on_c, 9, 42, 0
1, 181560, Note_on_c, 9, 42, 64
1, 181679, Note_on_c, 9, 42, 0
1, 181680, Note_on_c, 9, 42, 106
1, 181799, Note_on_c, 9, 42, 0
1, 181800, Note_on_c, 9, 42, 64
1, 181919, Note_on_c, 9, 42, 0
1, 181920, Note_on_c, 9, 46, 106
1, 182039, Note_on_c, 9, 46, 0
1, 182040, Note_on_c, 9, 42, 64
1, 182159, Note_on_c, 9, 42, 0
1, 182160, Note_on_c, 9, 42, 106
1, 182279, Note_on_c, 9, 42, 0
1, 182280, Note_on_c, 9, 42, 64
1, 182399, Note_on_c, 9, 42, 0
1, 182400, Note_on_c, 9, 42, 106
1, 182519, Note_on_c, 9, 42, 0
1, 182520, Note_on_c, 9, 42, 64
1, 182639, Note_on_c, 9, 42, 0
1, 182640, Note_on_c, 9, 42, 106
1, 182759, Note_on_c, 9, 42, 0
1, 182760, Note_on_c, 9, 42, 64
1, 182879, Note_on_c, 9, 42, 0
1, 182880, Note_on_c, 9, 46, 106
1, 182999, Note_on_c, 9, 46, 0
1, 183000, Note_on_c, 9, 42, 64
1, 183119, Note_on_c, 9, 42, 0
1, 183120, Note_on_c, 9, 42, 106
1, 183239, Note_on_c, 9, 42, 0
1, 183240, Note_on_c, 9, 42, 64
1, 183359, Note_on_c, 9, 42, 0
1, 183360, Note_on_c, 9, 42, 106
1, 183479, Note_on_c, 9, 42, 0
1, 183480, Note_on_c, 9, 42, 64
1, 183599, Note_on_c, 9, 42, 0
1, 183600, Note_on_c, 9, 42, 106
1, 183719, Note_on_c, 9, 42, 0
1, 183720, Note_on_c, 9, 42, 64
1, 183839, Note_on_c, 9, 42, 0
1, 183840, Note_on_c, 9, 46, 106
1, 183959, Note_on_c, 9, 46, 0
1, 183960, Note_on_c, 9, 42, 64
1, 184079, Note_on_c, 9, 42, 0
1, 184080, Note_on_c, 9, 42, 106
1, 184199, Note_on_c, 9, 42, 0
1, 184200, Note_on_c, 9, 42, 64
1, 184319, Note_on_c, 9, 42, 0
1, 184320, Note_on_c, 9, 41, 92
1, 184320, Note_on_c, 9, 42, 106
1, 184320, Note_on_c, 9, 36, 120
1, 184439, Note_on_c, 9, 41, 0
1, 184439, Note_on_c, 9, 42, 0
1, 184440, Note_on_c, 9, 42, 64
1, 184559, Note_on_c, 9, 42, 0
1, 184560, Note_on_c, 9, 42, 106
1, 184679, Note_on_c, 9, 42, 0
1, 184680, Note_on_c, 9, 42, 64
1, 184799, Note_on_c, 9, 36, 0
1, 184799, Note_on_c, 9, 42, 0
1, 184800, Note_on_c, 9, 46, 106
1, 184919, Note_on_c, 9, 46, 0
1, 184920, Note_on_c, 9, 42, 64
1, 185039, Note_on_c, 9, 42, 0
1, 185040, Note_on_c, 9, 42, 106
1, 185159, Note_on_c, 9, 42, 0
1, 185160, Note_on_c, 9, 42, 64
1, 185279, Note_on_c, 9, 42, 0
1, 185280, Note_on_c, 9, 42, 106
1, 185399, Note_on_c, 9, 42, 0
1, 185400, Note_on_c, 9, 42, 64
1, 185519, Note_on_c, 9, 42, 0
1, 185520, Note_on_c, 9, 42, 106
1, 185639, Note_on_c, 9, 42, 0
1, 185640, Note_on_c, 9, 42, 64
1, 185759, Note_on_c, 9, 42, 0
1, 185760, Note_on_c, 9, 46, 106
1, 185879, Note_on_c, 9, 46, 0
1, 185880, Note_on_c, 9, 42, 64
1, 185999, Note_on_c, 9, 42, 0
1, 186000, Note_on_c, 9, 42, 106
1, 186119, Note_on_c, 9, 42, 0
1, 186120, Note_on_c, 9, 42, 64
1, 186239, Note_on_c, 9, 42, 0
1, 186240, Note_on_c, 9, 42, 106
1, 186359, Note_on_c, 9, 42, 0
1, 186360, Note_on_c, 9, 42, 64
1, 186479, Note_on_c, 9, 42, 0
1, 186480, Note_on_c, 9, 42, 106
1, 186599, Note_on_c, 9, 42, 0
1, 186600, Note_on_c, 9, 42, 64
1, 186719, Note_on_c, 9, 42, 0
1, 186720, Note_on_c, 9, 46, 106
1, 186839, Note_on_c, 9, 46, 0
1, 186840, Note_on_c, 9, 42, 64
1, 186959, Note_on_c, 9, 42, 0
1, 186960, Note_on_c, 9, 42, 106
1, 187079, Note_on_c, 9, 42, 0
1, 187080, Note_on_c, 9, 42, 64
1, 187199, Note_on_c, 9, 42, 0
1, 187200, Note_on_c, 9, 42, 106
1, 187319, Note_on_c, 9, 42, 0
1, 187320, Note_on_c, 9, 42, 64
1, 187439, Note_on_c, 9, 42, 0
1, 187440, Note_on_c, 9, 42, 106
1, 187559, Note_on_c, 9, 42, 0
1, 187560, Note_on_c, 9, 42, 64
1, 187679, Note_on_c, 9, 42, 0
1, 187680, Note_on_c, 9, 46, 106
1, 187799, Note_on_c, 9, 46, 0
1, 187800, Note_on_c, 9, 42, 64
1, 187919, Note_on_c, 9, 42, 0
1, 187920, Note_on_c, 9, 42, 106
1, 188039, Note_on_c, 9, 42, 0
1, 188040, Note_on_c, 9, 42, 64
1, 188159, Note_on_c, 9, 42, 0
1, 188160, Note_on_c, 9, 41, 92
1, 188160, Note_on_c, 9, 42, 106
1, 188160, Note_on_c, 9, 36, 120
1, 188279, Note_on_c, 9, 41, 0
1, 188279, Note_on_c, 9, 42, 0
1, 188280, Note_on_c, 9, 42, 64
1, 188399, Note_on_c, 9, 42, 0
1, 188400, Note_on_c, 9, 42, 106
1, 188519, Note_on_c, 9, 42, 0
1, 188520, Note_on_c, 9, 42, 64
1, 188639, Note_on_c, 9, 36, 0
1, 188639, Note_on_c, 9, 42, 0
1, 188640, Note_on_c, 9, 46, 106
1, 188759, Note_on_c, 9, 46, 0
1, 188760, Note_on_c, 9, 42, 64
1, 188879, Note_on_c, 9, 42, 0
1, 188880, Note_on_c, 9, 42, 106
1, 188999, Note_on_c, 9, 42, 0
1, 189000, Note_on_c, 9, 42, 64
1, 189119, Note_on_c, 9, 42, 0
1, 189120, Note_on_c, 9, 42, 106
1, 189239, Note_on_c, 9, 42, 0
1, 189240, Note_on_c, 9, 42, 64
1, 189359, Note_on_c, 9, 42, 0
1, 189360, Note_on_c, 9, 42, 106
1, 189479, Note_on_c, 9, 42, 0
1, 189480, Note_on_c, 9, 42, 64
1, 189599, Note_on_c, 9, 42, 0
1, 189600, Note_on_c, 9, 46, 106
1, 189719, Note_on_c, 9, 46, 0
1, 189720, Note_on_c, 9, 42, 64
1, 189839, Note_on_c, 9, 42, 0
1, 189840, Note_on_c, 9, 42, 106
1, 189959, Note_on_c, 9, 42, 0
1, 189960, Note_on_c, 9, 42, 64
1, 190079, Note_on_c, 9, 42, 0
1, 190080, Note_on_c, 9, 42, 106
1, 190199, Note_on_c, 9, 42, 0
1, 190200, Note_on_c, 9, 42, 64
1, 190319, Note_on_c, 9, 42, 0
1, 190320, Note_on_c, 9, 42, 106
1, 190439, Note_on_c, 9, 42, 0
1, 190440, Note_on_c, 9, 42, 64
1, 190559, Note_on_c, 9, 42, 0
1, 190560, Note_on_c, 9, 46, 106
1, 190679, Note_on_c, 9, 46, 0
1, 190680, Note_on_c, 9, 42, 64
1, 190799, Note_on_c, 9, 42, 0
1, 190800, Note_on_c, 9, 42, 106
1, 190919, Note_on_c, 9, 42, 0
1, 190920, Note_on_c, 9, 42, 64
1, 191039, Note_on_c, 9, 42, 0
1, 191040, Tempo, 495868
1, 191040, Note_on_c, 9, 38, 106
1, 191040, Note_on_c, 9, 36, 106
1, 191159, Note_on_c, 9, 38, 0
1, 191160, Note_on_c, 9, 38, 92
1, 191279, Note_on_c, 9, 38, 0
1, 191280, Note_on_c, 9, 38, 92
1, 191399, Note_on_c, 9, 38, 0
1, 191400, Note_on_c, 9, 38, 92
1, 191519, Note_on_c, 9, 36, 0
1, 191519, Note_on_c, 9, 38, 0
1, 191520, Note_on_c, 9, 38, 106
1, 191520, Note_on_c, 9, 36, 106
1, 191639, Note_on_c, 9, 38, 0
1, 191640, Note_on_c, 9, 38, 92
1, 191759, Note_on_c, 9, 38, 0
1, 191760, Note_on_c, 9, 38, 92
1, 191879, Note_on_c, 9, 38, 0
1, 191880, Note_on_c, 9, 38, 92
1, 191999, Note_on_c, 9, 36, 0
1, 191999, Note_on_c, 9, 38, 0
1, 192000, Note_on_c, 9, 49, 92
1, 192000, Note_on_c, 9, 36, 106
1, 192119, Note_on_c, 9, 49, 0
1, 192120, Note_on_c, 9, 42, 106
1, 192239, Note_on_c, 9, 42, 0
1, 192240, Note_on_c, 9, 42, 106
1, 192359, Note_on_c, 9, 42, 0
1, 192360, Note_on_c, 9, 42, 50
1, 192479, Note_on_c, 9, 36, 0
1, 192479, Note_on_c, 9, 42, 0
1, 192480, Note_on_c, 9, 38, 106
1, 192480, Note_on_c, 9, 42, 106
1, 192480, Note_on_c, 9, 36, 106
1, 192599, Note_on_c, 9, 38, 0
1, 192599, Note_on_c, 9, 42, 0
1, 192600, Note_on_c, 9, 42, 50
1, 192719, Note_on_c, 9, 42, 0
1, 192720, Note_on_c, 9, 42, 106
1, 192839, Note_on_c, 9, 42, 0
1, 192840, Note_on_c, 9, 42, 106
1, 192959, Note_on_c, 9, 36, 0
1, 192959, Note_on_c, 9, 42, 0
1, 192960, Note_on_c, 9, 46, 106
1, 192960, Note_on_c, 9, 36, 106
1, 193079, Note_on_c, 9, 46, 0
1, 193080, Note_on_c, 9, 42, 106
1, 193199, Note_on_c, 9, 42, 0
1, 193200, Note_on_c, 9, 42, 50
1, 193319, Note_on_c, 9, 42, 0
1, 193320, Note_on_c, 9, 42, 106
1, 193439, Note_on_c, 9, 36, 0
1, 193439, Note_on_c, 9, 42, 0
1, 193440, Note_on_c, 9, 38, 106
1, 193440, Note_on_c, 9, 42, 106
1, 193440, Note_on_c, 9, 36, 106
1, 193559, Note_on_c, 9, 38, 0
1, 193559, Note_on_c, 9, 42, 0
1, 193560, Note_on_c, 9, 42, 50
1, 193679, Note_on_c, 9, 42, 0
1, 193680, Note_on_c, 9, 42, 106
1, 193799, Note_on_c, 9, 42, 0
1, 193800, Note_on_c, 9, 42, 106
1, 193919, Note_on_c, 9, 36, 0
1, 193919, Note_on_c, 9, 42, 0
1, 193920, Note_on_c, 9, 46, 106
1, 193920, Note_on_c, 9, 36, 106
1, 194039, Note_on_c, 9, 46, 0
1, 194040, Note_on_c, 9, 42, 106
1, 194159, Note_on_c, 9, 42, 0
1, 194160, Note_on_c, 9, 42, 106
1, 194279, Note_on_c, 9, 42, 0
1, 194280, Note_on_c, 9, 42, 50
1, 194399, Note_on_c, 9, 36, 0
1, 194399, Note_on_c, 9, 42, 0
1, 194400, Note_on_c, 9, 38, 106
1, 194400, Note_on_c, 9, 42, 106
1, 194400, Note_on_c, 9, 36, 106
1, 194519, Note_on_c, 9, 38, 0
1, 194519, Note_on_c, 9, 42, 0
1, 194520, Note_on_c, 9, 42, 50
1, 194639, Note_on_c, 9, 42, 0
1, 194640, Note_on_c, 9, 42, 106
1, 194759, Note_on_c, 9, 42, 0
1, 194760, Note_on_c, 9, 42, 106
1, 194879, Note_on_c, 9, 36, 0
1, 194879, Note_on_c, 9, 42, 0
1, 194880, Note_on_c, 9, 46, 106
1, 194880, Note_on_c, 9, 36, 106
1, 194999, Note_on_c, 9, 46, 0
1, 195000, Note_on_c, 9, 42, 106
1, 195119, Note_on_c, 9, 42, 0
1, 195120, Note_on_c, 9, 42, 50
1, 195239, Note_on_c, 9, 42, 0
1, 195240, Note_on_c, 9, 42, 106
1, 195359, Note_on_c, 9, 36, 0
1, 195359, Note_on_c, 9, 42, 0
1, 195360, Note_on_c, 9, 38, 106
1, 195360, Note_on_c, 9, 42, 106
1, 195360, Note_on_c, 9, 36, 106
1, 195479, Note_on_c, 9, 38, 0
1, 195479, Note_on_c, 9, 42, 0
1, 195480, Note_on_c, 9, 42, 50
1, 195599, Note_on_c, 9, 42, 0
1, 195600, Note_on_c, 9, 42, 106
1, 195719, Note_on_c, 9, 42, 0
1, 195720, Note_on_c, 9, 42, 106
1, 195839, Note_on_c, 9, 36, 0
1, 195839, Note_on_c, 9, 42, 0
1, 195840, Note_on_c, 9, 46, 106
1, 195840, Note_on_c, 9, 36, 106
1, 195959, Note_on_c, 9, 46, 0
1, 195960, Note_on_c, 9, 42, 106
1, 196079, Note_on_c, 9, 42, 0
1, 196080, Note_on_c, 9, 42, 106
1, 196199, Note_on_c, 9, 42, 0
1, 196200, Note_on_c, 9, 42, 50
1, 196319, Note_on_c, 9, 36, 0
1, 196319, Note_on_c, 9, 42, 0
1, 196320, Note_on_c, 9, 38, 106
1, 196320, Note_on_c, 9, 42, 106
1, 196320, Note_on_c, 9, 36, 106
1, 196439, Note_on_c, 9, 38, 0
1, 196439, Note_on_c, 9, 42, 0
1, 196440, Note_on_c, 9, 42, 50
1, 196559, Note_on_c, 9, 42, 0
1, 196560, Note_on_c, 9, 42, 106
1, 196679, Note_on_c, 9, 42, 0
1, 196680, Note_on_c, 9, 42, 106
1, 196799, Note_on_c, 9, 36, 0
1, 196799, Note_on_c, 9, 42, 0
1, 196800, Note_on_c, 9, 46, 106
1, 196800, Note_on_c, 9, 36, 106
1, 196919, Note_on_c, 9, 46, 0
1, 196920, Note_on_c, 9, 42, 106
1, 197039, Note_on_c, 9, 42, 0
1, 197040, Note_on_c, 9, 42, 50
1, 197159, Note_on_c, 9, 42, 0
1, 197160, Note_on_c, 9, 42, 106
1, 197279, Note_on_c, 9, 36, 0
1, 197279, Note_on_c, 9, 42, 0
1, 197280, Note_on_c, 9, 38, 106
1, 197280, Note_on_c, 9, 42, 106
1, 197399, Note_on_c, 9, 38, 0
1, 197399, Note_on_c, 9, 42, 0
1, 197400, Note_on_c, 9, 42, 50
1, 197519, Note_on_c, 9, 42, 0
1, 197520, Note_on_c, 9, 38, 106
1, 197520, Note_on_c, 9, 42, 106
1, 197639, Note_on_c, 9, 38, 0
1, 197639, Note_on_c, 9, 42, 0
1, 197640, Note_on_c, 9, 38, 106
1, 197640, Note_on_c, 9, 46, 106
1, 197759, Note_on_c, 9, 38, 0
1, 197759, Note_on_c, 9, 46, 0
1, 197760, Note_on_c, 9, 38, 106
1, 197760, Note_on_c, 9, 36, 106
1, 197879, Note_on_c, 9, 38, 0
1, 197880, Note_on_c, 9, 42, 64
1, 197999, Note_on_c, 9, 36, 0
1, 197999, Note_on_c, 9, 42, 0
1, 198000, Note_on_c, 9, 41, 92
1, 198000, Note_on_c, 9, 46, 106
1, 198000, Note_on_c, 9, 51, 92
1, 198000, Note_on_c, 9, 36, 106
1, 198239, Note_on_c, 9, 41, 0
1, 198239, Note_on_c, 9, 46, 0
1, 198239, Note_on_c, 9, 51, 0
1, 198239, Note_on_c, 9, 36, 0
1, 198240, Note_on_c, 9, 42, 64
1, 198479, Note_on_c, 9, 42, 0
1, 198480, Note_on_c, 9, 41, 92
1, 198480, Note_on_c, 9, 46, 106
1, 198480, Note_on_c, 9, 51, 92
1, 198480, Note_on_c, 9, 36, 106
1, 198719, Note_on_c, 9, 41, 0
1, 198719, Note_on_c, 9, 46, 0
1, 198719, Note_on_c, 9, 51, 0
1, 198719, Note_on_c, 9, 36, 0
1, 198720, Note_on_c, 9, 42, 64
1, 198959, Note_on_c, 9, 42, 0
1, 198960, Note_on_c, 9, 41, 92
1, 198960, Note_on_c, 9, 46, 106
1, 198960, Note_on_c, 9, 51, 92
1, 198960, Note_on_c, 9, 36, 106
1, 199199, Note_on_c, 9, 41, 0
1, 199199, Note_on_c, 9, 46, 0
1, 199199, Note_on_c, 9, 51, 0
1, 199199, Note_on_c, 9, 36, 0
1, 199200, Note_on_c, 9, 42, 64
1, 199439, Note_on_c, 9, 42, 0
1, 199440, Note_on_c, 9, 41, 92
1, 199440, Note_on_c, 9, 46, 106
1, 199440, Note_on_c, 9, 51, 92
1, 199440, Note_on_c, 9, 36, 106
1, 199679, Note_on_c, 9, 41, 0
1, 199679, Note_on_c, 9, 46, 0
1, 199679, Note_on_c, 9, 51, 0
1, 199679, Note_on_c, 9, 36, 0
1, 199680, Note_on_c, 9, 49, 106
1, 199680, Note_on_c, 9, 36, 106
1, 199799, Note_on_c, 9, 49, 0
1, 199800, Note_on_c, 9, 42, 106
1, 199919, Note_on_c, 9, 42, 0
1, 199920, Note_on_c, 9, 42, 106
1, 200039, Note_on_c, 9, 42, 0
1, 200040, Note_on_c, 9, 42, 50
1, 200159, Note_on_c, 9, 36, 0
1, 200159, Note_on_c, 9, 42, 0
1, 200160, Note_on_c, 9, 38, 106
1, 200160, Note_on_c, 9, 42, 106
1, 200160, Note_on_c, 9, 36, 106
1, 200279, Note_on_c, 9, 38, 0
1, 200279, Note_on_c, 9, 42, 0
1, 200280, Note_on_c, 9, 42, 50
1, 200399, Note_on_c, 9, 42, 0
1, 200400, Note_on_c, 9, 42, 106
1, 200519, Note_on_c, 9, 42, 0
1, 200520, Note_on_c, 9, 42, 106
1, 200639, Note_on_c, 9, 36, 0
1, 200639, Note_on_c, 9, 42, 0
1, 200640, Note_on_c, 9, 46, 106
1, 200640, Note_on_c, 9, 36, 106
1, 200759, Note_on_c, 9, 46, 0
1, 200760, Note_on_c, 9, 42, 106
1, 200879, Note_on_c, 9, 42, 0
1, 200880, Note_on_c, 9, 42, 50
1, 200999, Note_on_c, 9, 42, 0
1, 201000, Note_on_c, 9, 42, 106
1, 201119, Note_on_c, 9, 36, 0
1, 201119, Note_on_c, 9, 42, 0
1, 201120, Note_on_c, 9, 38, 106
1, 201120, Note_on_c, 9, 42, 106
1, 201120, Note_on_c, 9, 36, 106
1, 201239, Note_on_c, 9, 38, 0
1, 201239, Note_on_c, 9, 42, 0
1, 201240, Note_on_c, 9, 42, 50
1, 201359, Note_on_c, 9, 42, 0
1, 201360, Note_on_c, 9, 42, 106
1, 201479, Note_on_c, 9, 42, 0
1, 201480, Note_on_c, 9, 42, 106
1, 201599, Note_on_c, 9, 36, 0
1, 201599, Note_on_c, 9, 42, 0
1, 201600, Note_on_c, 9, 46, 106
1, 201600, Note_on_c, 9, 36, 106
1, 201719, Note_on_c, 9, 46, 0
1, 201720, Note_on_c, 9, 42, 106
1, 201839, Note_on_c, 9, 42, 0
1, 201840, Note_on_c, 9, 42, 106
1, 201959, Note_on_c, 9, 42, 0
1, 201960, Note_on_c, 9, 42, 50
1, 202079, Note_on_c, 9, 36, 0
1, 202079, Note_on_c, 9, 42, 0
1, 202080, Note_on_c, 9, 38, 106
1, 202080, Note_on_c, 9, 42, 106
1, 202080, Note_on_c, 9, 36, 106
1, 202199, Note_on_c, 9, 38, 0
1, 202199, Note_on_c, 9, 42, 0
1, 202200, Note_on_c, 9, 42, 50
1, 202319, Note_on_c, 9, 42, 0
1, 202320, Note_on_c, 9, 42, 106
1, 202439, Note_on_c, 9, 42, 0
1, 202440, Note_on_c, 9, 42, 106
1, 202559, Note_on_c, 9, 36, 0
1, 202559, Note_on_c, 9, 42, 0
1, 202560, Note_on_c, 9, 46, 106
1, 202560, Note_on_c, 9, 36, 106
1, 202679, Note_on_c, 9, 46, 0
1, 202680, Note_on_c, 9, 42, 106
1, 202799, Note_on_c, 9, 42, 0
1, 202800, Note_on_c, 9, 42, 50
1, 202919, Note_on_c, 9, 42, 0
1, 202920, Note_on_c, 9, 42, 106
1, 203039, Note_on_c, 9, 36, 0
1, 203039, Note_on_c, 9, 42, 0
1, 203040, Note_on_c, 9, 38, 106
1, 203040, Note_on_c, 9, 42, 106
1, 203040, Note_on_c, 9, 36, 106
1, 203159, Note_on_c, 9, 38, 0
1, 203159, Note_on_c, 9, 42, 0
1, 203160, Note_on_c, 9, 42, 50
1, 203279, Note_on_c, 9, 42, 0
1, 203280, Note_on_c, 9, 42, 106
1, 203399, Note_on_c, 9, 42, 0
1, 203400, Note_on_c, 9, 42, 106
1, 203519, Note_on_c, 9, 36, 0
1, 203519, Note_on_c, 9, 42, 0
1, 203520, Note_on_c, 9, 46, 106
1, 203520, Note_on_c, 9, 36, 106
1, 203639, Note_on_c, 9, 46, 0
1, 203640, Note_on_c, 9, 42, 106
1, 203759, Note_on_c, 9, 42, 0
1, 203760, Note_on_c, 9, 42, 106
1, 203879, Note_on_c, 9, 42, 0
1, 203880, Note_on_c, 9, 42, 50
1, 203999, Note_on_c, 9, 36, 0
1, 203999, Note_on_c, 9, 42, 0
1, 204000, Note_on_c, 9, 38, 106
1, 204000, Note_on_c, 9, 42, 106
1, 204000, Note_on_c, 9, 36, 106
1, 204119, Note_on_c, 9, 38, 0
1, 204119, Note_on_c, 9, 42, 0
1, 204120, Note_on_c, 9, 42, 50
1, 204239, Note_on_c, 9, 42, 0
1, 204240, Note_on_c, 9, 42, 106
1, 204359, Note_on_c, 9, 42, 0
1, 204360, Note_on_c, 9, 42, 106
1, 204479, Note_on_c, 9, 36, 0
1, 204479, Note_on_c, 9, 42, 0
1, 204480, Note_on_c, 9, 46, 106
1, 204480, Note_on_c, 9, 36, 106
1, 204599, Note_on_c, 9, 46, 0
1, 204600, Note_on_c, 9, 42, 106
1, 204719, Note_on_c, 9, 42, 0
1, 204720, Note_on_c, 9, 42, 50
1, 204839, Note_on_c, 9, 42, 0
1, 204840, Note_on_c, 9, 42, 106
1, 204959, Note_on_c, 9, 36, 0
1, 204959, Note_on_c, 9, 42, 0
1, 204960, Note_on_c, 9, 38, 106
1, 204960, Note_on_c, 9, 42, 106
1, 204960, Note_on_c, 9, 36, 106
1, 205079, Note_on_c, 9, 38, 0
1, 205079, Note_on_c, 9, 42, 0
1, 205080, Note_on_c, 9, 42, 50
1, 205199, Note_on_c, 9, 42, 0
1, 205200, Note_on_c, 9, 42, 106
1, 205319, Note_on_c, 9, 42, 0
1, 205320, Note_on_c, 9, 42, 106
1, 205439, Note_on_c, 9, 36, 0
1, 205439, Note_on_c, 9, 42, 0
1, 205440, Note_on_c, 9, 46, 106
1, 205440, Note_on_c, 9, 36, 106
1, 205559, Note_on_c, 9, 46, 0
1, 205560, Note_on_c, 9, 42, 106
1, 205679, Note_on_c, 9, 42, 0
1, 205680, Note_on_c, 9, 42, 106
1, 205799, Note_on_c, 9, 42, 0
1, 205800, Note_on_c, 9, 42, 50
1, 205919, Note_on_c, 9, 36, 0
1, 205919, Note_on_c, 9, 42, 0
1, 205920, Note_on_c, 9, 38, 106
1, 205920, Note_on_c, 9, 42, 106
1, 205920, Note_on_c, 9, 36, 106
1, 206039, Note_on_c, 9, 38, 0
1, 206039, Note_on_c, 9, 42, 0
1, 206040, Note_on_c, 9, 42, 50
1, 206159, Note_on_c, 9, 42, 0
1, 206160, Note_on_c, 9, 42, 106
1, 206279, Note_on_c, 9, 42, 0
1, 206280, Note_on_c, 9, 42, 106
1, 206399, Note_on_c, 9, 36, 0
1, 206399, Note_on_c, 9, 42, 0
1, 206400, Note_on_c, 9, 46, 106
1, 206400, Note_on_c, 9, 36, 106
1, 206519, Note_on_c, 9, 46, 0
1, 206520, Note_on_c, 9, 42, 106
1, 206639, Note_on_c, 9, 42, 0
1, 206640, Note_on_c, 9, 42, 50
1, 206759, Note_on_c, 9, 42, 0
1, 206760, Note_on_c, 9, 42, 106
1, 206879, Note_on_c, 9, 36, 0
1, 206879, Note_on_c, 9, 42, 0
1, 206880, Note_on_c, 9, 38, 106
1, 206880, Note_on_c, 9, 42, 106
1, 206880, Note_on_c, 9, 36, 106
1, 206999, Note_on_c, 9, 38, 0
1, 206999, Note_on_c, 9, 42, 0
1, 207000, Note_on_c, 9, 42, 50
1, 207119, Note_on_c, 9, 42, 0
1, 207120, Note_on_c, 9, 42, 106
1, 207239, Note_on_c, 9, 42, 0
1, 207240, Note_on_c, 9, 42, 106
1, 207359, Note_on_c, 9, 36, 0
1, 207359, Note_on_c, 9, 42, 0
1, 207360, Note_on_c, 9, 46, 106
1, 207360, Note_on_c, 9, 36, 106
1, 207479, Note_on_c, 9, 46, 0
1, 207480, Note_on_c, 9, 42, 106
1, 207599, Note_on_c, 9, 42, 0
1, 207600, Note_on_c, 9, 42, 106
1, 207719, Note_on_c, 9, 42, 0
1, 207720, Note_on_c, 9, 42, 50
1, 207839, Note_on_c, 9, 36, 0
1, 207839, Note_on_c, 9, 42, 0
1, 207840, Note_on_c, 9, 38, 106
1, 207840, Note_on_c, 9, 42, 106
1, 207840, Note_on_c, 9, 36, 106
1, 207959, Note_on_c, 9, 38, 0
1, 207959, Note_on_c, 9, 42, 0
1, 207960, Note_on_c, 9, 42, 50
1, 208079, Note_on_c, 9, 42, 0
1, 208080, Note_on_c, 9, 42, 106
1, 208199, Note_on_c, 9, 42, 0
1, 208200, Note_on_c, 9, 42, 106
1, 208319, Note_on_c, 9, 36, 0
1, 208319, Note_on_c, 9, 42, 0
1, 208320, Note_on_c, 9, 46, 106
1, 208320, Note_on_c, 9, 36, 106
1, 208439, Note_on_c, 9, 46, 0
1, 208440, Note_on_c, 9, 42, 106
1, 208559, Note_on_c, 9, 42, 0
1, 208560, Note_on_c, 9, 42, 50
1, 208679, Note_on_c, 9, 42, 0
1, 208680, Note_on_c, 9, 42, 106
1, 208799, Note_on_c, 9, 36, 0
1, 208799, Note_on_c, 9, 42, 0
1, 208800, Note_on_c, 9, 38, 106
1, 208800, Note_on_c, 9, 42, 106
1, 208800, Note_on_c, 9, 36, 106
1, 208919, Note_on_c, 9, 38, 0
1, 208919, Note_on_c, 9, 42, 0
1, 208920, Note_on_c, 9, 42, 50
1, 209039, Note_on_c, 9, 42, 0
1, 209040, Note_on_c, 9, 42, 106
1, 209159, Note_on_c, 9, 42, 0
1, 209160, Note_on_c, 9, 42, 106
1, 209279, Note_on_c, 9, 36, 0
1, 209279, Note_on_c, 9, 42, 0
1, 209280, Note_on_c, 9, 46, 106
1, 209280, Note_on_c, 9, 36, 106
1, 209399, Note_on_c, 9, 46, 0
1, 209400, Note_on_c, 9, 42, 106
1, 209519, Note_on_c, 9, 42, 0
1, 209520, Note_on_c, 9, 42, 106
1, 209639, Note_on_c, 9, 42, 0
1, 209640, Note_on_c, 9, 42, 50
1, 209759, Note_on_c, 9, 36, 0
1, 209759, Note_on_c, 9, 42, 0
1, 209760, Note_on_c, 9, 38, 106
1, 209760, Note_on_c, 9, 42, 106
1, 209760, Note_on_c, 9, 36, 106
1, 209879, Note_on_c, 9, 38, 0
1, 209879, Note_on_c, 9, 42, 0
1, 209880, Note_on_c, 9, 42, 50
1, 209999, Note_on_c, 9, 42, 0
1, 210000, Note_on_c, 9, 42, 106
1, 210119, Note_on_c, 9, 42, 0
1, 210120, Note_on_c, 9, 42, 106
1, 210239, Note_on_c, 9, 36, 0
1, 210239, Note_on_c, 9, 42, 0
1, 210240, Note_on_c, 9, 46, 106
1, 210240, Note_on_c, 9, 36, 106
1, 210359, Note_on_c, 9, 46, 0
1, 210360, Note_on_c, 9, 42, 106
1, 210479, Note_on_c, 9, 42, 0
1, 210480, Note_on_c, 9, 42, 50
1, 210599, Note_on_c, 9, 42, 0
1, 210600, Note_on_c, 9, 42, 106
1, 210719, Note_on_c, 9, 36, 0
1, 210719, Note_on_c, 9, 42, 0
1, 210720, Note_on_c, 9, 38, 106
1, 210720, Note_on_c, 9, 42, 106
1, 210720, Note_on_c, 9, 36, 106
1, 210839, Note_on_c, 9, 38, 0
1, 210839, Note_on_c, 9, 42, 0
1, 210840, Note_on_c, 9, 42, 50
1, 210959, Note_on_c, 9, 42, 0
1, 210960, Note_on_c, 9, 42, 106
1, 211079, Note_on_c, 9, 42, 0
1, 211080, Note_on_c, 9, 42, 106
1, 211199, Note_on_c, 9, 36, 0
1, 211199, Note_on_c, 9, 42, 0
1, 211200, Note_on_c, 9, 46, 106
1, 211200, Note_on_c, 9, 36, 106
1, 211319, Note_on_c, 9, 46, 0
1, 211320, Note_on_c, 9, 42, 106
1, 211439, Note_on_c, 9, 42, 0
1, 211440, Note_on_c, 9, 42, 106
1, 211559, Note_on_c, 9, 42, 0
1, 211560, Note_on_c, 9, 42, 50
1, 211679, Note_on_c, 9, 36, 0
1, 211679, Note_on_c, 9, 42, 0
1, 211680, Note_on_c, 9, 38, 106
1, 211680, Note_on_c, 9, 42, 106
1, 211680, Note_on_c, 9, 36, 106
1, 211799, Note_on_c, 9, 38, 0
1, 211799, Note_on_c, 9, 42, 0
1, 211800, Note_on_c, 9, 42, 50
1, 211919, Note_on_c, 9, 42, 0
1, 211920, Note_on_c, 9, 42, 106
1, 212039, Note_on_c, 9, 42, 0
1, 212040, Note_on_c, 9, 42, 106
1, 212159, Note_on_c, 9, 36, 0
1, 212159, Note_on_c, 9, 42, 0
1, 212160, Note_on_c, 9, 46, 106
1, 212160, Note_on_c, 9, 36, 106
1, 212279, Note_on_c, 9, 46, 0
1, 212280, Note_on_c, 9, 42, 106
1, 212399, Note_on_c, 9, 42, 0
1, 212400, Note_on_c, 9, 42, 50
1, 212519, Note_on_c, 9, 42, 0
1, 212520, Note_on_c, 9, 42, 106
1, 212639, Note_on_c, 9, 36, 0
1, 212639, Note_on_c, 9, 42, 0
1, 212640, Note_on_c, 9, 38, 106
1, 212640, Note_on_c, 9, 42, 106
1, 212640, Note_on_c, 9, 36, 106
1, 212759, Note_on_c, 9, 38, 0
1, 212759, Note_on_c, 9, 42, 0
1, 212760, Note_on_c, 9, 42, 50
1, 212879, Note_on_c, 9, 42, 0
1, 212880, Note_on_c, 9, 42, 106
1, 212999, Note_on_c, 9, 42, 0
1, 213000, Note_on_c, 9, 42, 106
1, 213119, Note_on_c, 9, 36, 0
1, 213119, Note_on_c, 9, 42, 0
1, 213120, Note_on_c, 9, 46, 106
1, 213120, Note_on_c, 9, 36, 106
1, 213239, Note_on_c, 9, 46, 0
1, 213240, Note_on_c, 9, 42, 106
1, 213359, Note_on_c, 9, 42, 0
1, 213360, Note_on_c, 9, 42, 106
1, 213479, Note_on_c, 9, 42, 0
1, 213480, Note_on_c, 9, 42, 50
1, 213599, Note_on_c, 9, 36, 0
1, 213599, Note_on_c, 9, 42, 0
1, 213600, Note_on_c, 9, 38, 106
1, 213600, Note_on_c, 9, 42, 106
1, 213600, Note_on_c, 9, 36, 106
1, 213719, Note_on_c, 9, 38, 0
1, 213719, Note_on_c, 9, 42, 0
1, 213720, Note_on_c, 9, 42, 50
1, 213839, Note_on_c, 9, 42, 0
1, 213840, Note_on_c, 9, 42, 106
1, 213959, Note_on_c, 9, 42, 0
1, 213960, Note_on_c, 9, 42, 106
1, 214079, Note_on_c, 9, 36, 0
1, 214079, Note_on_c, 9, 42, 0
1, 214080, Note_on_c, 9, 46, 106
1, 214080, Note_on_c, 9, 36, 106
1, 214199, Note_on_c, 9, 46, 0
1, 214200, Note_on_c, 9, 42, 106
1, 214319, Note_on_c, 9, 42, 0
1, 214320, Note_on_c, 9, 42, 50
1, 214439, Note_on_c, 9, 42, 0
1, 214440, Note_on_c, 9, 42, 106
1, 214559, Note_on_c, 9, 36, 0
1, 214559, Note_on_c, 9, 42, 0
1, 214560, Note_on_c, 9, 38, 106
1, 214560, Note_on_c, 9, 42, 106
1, 214560, Note_on_c, 9, 36, 106
1, 214679, Note_on_c, 9, 38, 0
1, 214679, Note_on_c, 9, 42, 0
1, 214680, Note_on_c, 9, 42, 50
1, 214799, Note_on_c, 9, 42, 0
1, 214800, Note_on_c, 9, 42, 106
1, 214919, Note_on_c, 9, 42, 0
1, 214920, Note_on_c, 9, 42, 106
1, 215039, Note_on_c, 9, 36, 0
1, 215039, Note_on_c, 9, 42, 0
1, 215040, Note_on_c, 9, 46, 106
1, 215040, Note_on_c, 9, 36, 106
1, 215159, Note_on_c, 9, 46, 0
1, 215160, Note_on_c, 9, 42, 106
1, 215279, Note_on_c, 9, 42, 0
1, 215280, Note_on_c, 9, 42, 106
1, 215399, Note_on_c, 9, 42, 0
1, 215400, Note_on_c, 9, 42, 50
1, 215519, Note_on_c, 9, 36, 0
1, 215519, Note_on_c, 9, 42, 0
1, 215520, Note_on_c, 9, 38, 106
1, 215520, Note_on_c, 9, 42, 106
1, 215520, Note_on_c, 9, 36, 106
1, 215639, Note_on_c, 9, 38, 0
1, 215639, Note_on_c, 9, 42, 0
1, 215640, Note_on_c, 9, 42, 50
1, 215759, Note_on_c, 9, 42, 0
1, 215760, Note_on_c, 9, 42, 106
1, 215879, Note_on_c, 9, 42, 0
1, 215880, Note_on_c, 9, 42, 106
1, 215999, Note_on_c, 9, 36, 0
1, 215999, Note_on_c, 9, 42, 0
1, 216000, Note_on_c, 9, 46, 106
1, 216000, Note_on_c, 9, 36, 106
1, 216119, Note_on_c, 9, 46, 0
1, 216120, Note_on_c, 9, 42, 106
1, 216239, Note_on_c, 9, 42, 0
1, 216240, Note_on_c, 9, 42, 50
1, 216359, Note_on_c, 9, 42, 0
1, 216360, Note_on_c, 9, 42, 106
1, 216479, Note_on_c, 9, 36, 0
1, 216479, Note_on_c, 9, 42, 0
1, 216480, Note_on_c, 9, 38, 106
1, 216480, Note_on_c, 9, 42, 106
1, 216480, Note_on_c, 9, 36, 106
1, 216599, Note_on_c, 9, 38, 0
1, 216599, Note_on_c, 9, 42, 0
1, 216600, Note_on_c, 9, 42, 50
1, 216719, Note_on_c, 9, 42, 0
1, 216720, Note_on_c, 9, 42, 106
1, 216839, Note_on_c, 9, 42, 0
1, 216840, Note_on_c, 9, 42, 106
1, 216959, Note_on_c, 9, 36, 0
1, 216959, Note_on_c, 9, 42, 0
1, 216960, Note_on_c, 9, 46, 106
1, 216960, Note_on_c, 9, 36, 106
1, 217079, Note_on_c, 9, 46, 0
1, 217080, Note_on_c, 9, 42, 106
1, 217199, Note_on_c, 9, 42, 0
1, 217200, Note_on_c, 9, 42, 106
1, 217319, Note_on_c, 9, 42, 0
1, 217320, Note_on_c, 9, 42, 50
1, 217439, Note_on_c, 9, 36, 0
1, 217439, Note_on_c, 9, 42, 0
1, 217440, Note_on_c, 9, 38, 106
1, 217440, Note_on_c, 9, 42, 106
1, 217440, Note_on_c, 9, 36, 106
1, 217559, Note_on_c, 9, 38, 0
1, 217559, Note_on_c, 9, 42, 0
1, 217560, Note_on_c, 9, 42, 50
1, 217679, Note_on_c, 9, 42, 0
1, 217680, Note_on_c, 9, 42, 106
1, 217799, Note_on_c, 9, 42, 0
1, 217800, Note_on_c, 9, 42, 106
1, 217919, Note_on_c, 9, 36, 0
1, 217919, Note_on_c, 9, 42, 0
1, 217920, Note_on_c, 9, 46, 106
1, 217920, Note_on_c, 9, 36, 106
1, 218039, Note_on_c, 9, 46, 0
1, 218040, Note_on_c, 9, 42, 106
1, 218159, Note_on_c, 9, 42, 0
1, 218160, Note_on_c, 9, 42, 50
1, 218279, Note_on_c, 9, 42, 0
1, 218280, Note_on_c, 9, 42, 106
1, 218399, Note_on_c, 9, 36, 0
1, 218399, Note_on_c, 9, 42, 0
1, 218400, Note_on_c, 9, 38, 106
1, 218400, Note_on_c, 9, 42, 106
1, 218400, Note_on_c, 9, 36, 106
1, 218519, Note_on_c, 9, 38, 0
1, 218519, Note_on_c, 9, 42, 0
1, 218520, Note_on_c, 9, 42, 50
1, 218639, Note_on_c, 9, 42, 0
1, 218640, Note_on_c, 9, 42, 106
1, 218759, Note_on_c, 9, 42, 0
1, 218760, Note_on_c, 9, 42, 106
1, 218879, Note_on_c, 9, 36, 0
1, 218879, Note_on_c, 9, 42, 0
1, 218880, Note_on_c, 9, 46, 106
1, 218880, Note_on_c, 9, 36, 106
1, 218999, Note_on_c, 9, 46, 0
1, 219000, Note_on_c, 9, 42, 106
1, 219119, Note_on_c, 9, 42, 0
1, 219120, Note_on_c, 9, 42, 106
1, 219239, Note_on_c, 9, 42, 0
1, 219240, Note_on_c, 9, 42, 50
1, 219359, Note_on_c, 9, 36, 0
1, 219359, Note_on_c, 9, 42, 0
1, 219360, Note_on_c, 9, 38, 106
1, 219360, Note_on_c, 9, 42, 106
1, 219360, Note_on_c, 9, 36, 106
1, 219479, Note_on_c, 9, 38, 0
1, 219479, Note_on_c, 9, 42, 0
1, 219480, Note_on_c, 9, 42, 50
1, 219599, Note_on_c, 9, 42, 0
1, 219600, Note_on_c, 9, 42, 106
1, 219719, Note_on_c, 9, 42, 0
1, 219720, Note_on_c, 9, 42, 106
1, 219839, Note_on_c, 9, 36, 0
1, 219839, Note_on_c, 9, 42, 0
1, 219840, Note_on_c, 9, 46, 106
1, 219840, Note_on_c, 9, 36, 106
1, 219959, Note_on_c, 9, 46, 0
1, 219960, Note_on_c, 9, 42, 106
1, 220079, Note_on_c, 9, 42, 0
1, 220080, Note_on_c, 9, 42, 50
1, 220199, Note_on_c, 9, 42, 0
1, 220200, Note_on_c, 9, 42, 106
1, 220319, Note_on_c, 9, 36, 0
1, 220319, Note_on_c, 9, 42, 0
1, 220320, Note_on_c, 9, 38, 106
1, 220320, Note_on_c, 9, 42, 106
1, 220439, Note_on_c, 9, 38, 0
1, 220439, Note_on_c, 9, 42, 0
1, 220440, Note_on_c, 9, 42, 50
1, 220559, Note_on_c, 9, 42, 0
1, 220560, Note_on_c, 9, 38, 106
1, 220560, Note_on_c, 9, 42, 106
1, 220679, Note_on_c, 9, 38, 0
1, 220679, Note_on_c, 9, 42, 0
1, 220680, Note_on_c, 9, 38, 106
1, 220680, Note_on_c, 9, 46, 106
1, 220799, Note_on_c, 9, 38, 0
1, 220799, Note_on_c, 9, 46, 0
1, 220800, Note_on_c, 9, 38, 106
1, 220800, Note_on_c, 9, 36, 106
1, 220919, Note_on_c, 9, 38, 0
1, 220920, Note_on_c, 9, 42, 64
1, 221039, Note_on_c, 9, 36, 0
1, 221039, Note_on_c, 9, 42, 0
1, 221040, Note_on_c, 9, 41, 92
1, 221040, Note_on_c, 9, 46, 106
1, 221040, Note_on_c, 9, 51, 106
1, 221040, Note_on_c, 9, 36, 106
1, 221279, Note_on_c, 9, 41, 0
1, 221279, Note_on_c, 9, 46, 0
1, 221279, Note_on_c, 9, 51, 0
1, 221279, Note_on_c, 9, 36, 0
1, 221280, Note_on_c, 9, 42, 64
1, 221519, Note_on_c, 9, 42, 0
1, 221520, Note_on_c, 9, 41, 92
1, 221520, Note_on_c, 9, 46, 106
1, 221520, Note_on_c, 9, 51, 106
1, 221520, Note_on_c, 9, 36, 106
1, 221759, Note_on_c, 9, 41, 0
1, 221759, Note_on_c, 9, 46, 0
1, 221759, Note_on_c, 9, 51, 0
1, 221759, Note_on_c, 9, 36, 0
1, 221760, Note_on_c, 9, 42, 64
1, 221999, Note_on_c, 9, 42, 0
1, 222000, Note_on_c, 9, 41, 92
1, 222000, Note_on_c, 9, 46, 106
1, 222000, Note_on_c, 9, 51, 106
1, 222000, Note_on_c, 9, 36, 106
1, 222239, Note_on_c, 9, 41, 0
1, 222239, Note_on_c, 9, 46, 0
1, 222239, Note_on_c, 9, 51, 0
1, 222239, Note_on_c, 9, 36, 0
1, 222240, Note_on_c, 9, 42, 64
1, 222479, Note_on_c, 9, 42, 0
1, 222480, Note_on_c, 9, 41, 92
1, 222480, Note_on_c, 9, 46, 106
1, 222480, Note_on_c, 9, 51, 106
1, 222480, Note_on_c, 9, 36, 106
1, 222719, Note_on_c, 9, 41, 0
1, 222719, Note_on_c, 9, 46, 0
1, 222719, Note_on_c, 9, 51, 0
1, 222719, Note_on_c, 9, 36, 0
1, 222720, Note_on_c, 9, 38, 106
1, 222720, Note_on_c, 9, 36, 106
1, 222839, Note_on_c, 9, 38, 0
1, 222840, Note_on_c, 9, 42, 64
1, 222959, Note_on_c, 9, 36, 0
1, 222959, Note_on_c, 9, 42, 0
1, 222960, Note_on_c, 9, 41, 92
1, 222960, Note_on_c, 9, 46, 106
1, 222960, Note_on_c, 9, 51, 106
1, 222960, Note_on_c, 9, 36, 106
1, 223199, Note_on_c, 9, 41, 0
1, 223199, Note_on_c, 9, 46, 0
1, 223199, Note_on_c, 9, 51, 0
1, 223199, Note_on_c, 9, 36, 0
1, 223200, Note_on_c, 9, 42, 64
1, 223439, Note_on_c, 9, 42, 0
1, 223440, Note_on_c, 9, 41, 92
1, 223440, Note_on_c, 9, 46, 106
1, 223440, Note_on_c, 9, 51, 106
1, 223440, Note_on_c, 9, 36, 106
1, 223679, Note_on_c, 9, 41, 0
1, 223679, Note_on_c, 9, 46, 0
1, 223679, Note_on_c, 9, 51, 0
1, 223679, Note_on_c, 9, 36, 0
1, 223680, Note_on_c, 9, 42, 64
1, 223919, Note_on_c, 9, 42, 0
1, 223920, Note_on_c, 9, 41, 92
1, 223920, Note_on_c, 9, 46, 106
1, 223920, Note_on_c, 9, 51, 106
1, 223920, Note_on_c, 9, 36, 106
1, 224159, Note_on_c, 9, 41, 0
1, 224159, Note_on_c, 9, 46, 0
1, 224159, Note_on_c, 9, 51, 0
1, 224159, Note_on_c, 9, 36, 0
1, 224160, Note_on_c, 9, 42, 64
1, 224399, Note_on_c, 9, 42, 0
1, 224400, Note_on_c, 9, 41, 92
1, 224400, Note_on_c, 9, 46, 106
1, 224400, Note_on_c, 9, 51, 106
1, 224400, Note_on_c, 9, 36, 106
1, 224639, Note_on_c, 9, 41, 0
1, 224639, Note_on_c, 9, 46, 0
1, 224639, Note_on_c, 9, 51, 0
1, 224639, Note_on_c, 9, 36, 0
1, 224640, Note_on_c, 9, 49, 120
1, 224640, Note_on_c, 9, 36, 106
1, 224879, Note_on_c, 9, 49, 0
1, 224880, Note_on_c, 9, 42, 78
1, 225119, Note_on_c, 9, 36, 0
1, 225119, Note_on_c, 9, 42, 0
1, 225120, Note_on_c, 9, 38, 106
1, 225120, Note_on_c, 9, 42, 92
1, 225120, Note_on_c, 9, 36, 106
1, 225359, Note_on_c, 9, 38, 0
1, 225359, Note_on_c, 9, 42, 0
1, 225360, Note_on_c, 9, 42, 78
1, 225599, Note_on_c, 9, 36, 0
1, 225599, Note_on_c, 9, 42, 0
1, 225600, Note_on_c, 9, 42, 92
1, 225600, Note_on_c, 9, 36, 106
1, 225839, Note_on_c, 9, 42, 0
1, 225840, Note_on_c, 9, 42, 78
1, 226079, Note_on_c, 9, 36, 0
1, 226079, Note_on_c, 9, 42, 0
1, 226080, Note_on_c, 9, 38, 106
1, 226080, Note_on_c, 9, 42, 92
1, 226080, Note_on_c, 9, 36, 106
1, 226319, Note_on_c, 9, 38, 0
1, 226319, Note_on_c, 9, 42, 0
1, 226320, Note_on_c, 9, 42, 78
1, 226559, Note_on_c, 9, 36, 0
1, 226559, Note_on_c, 9, 42, 0
1, 226560, Note_on_c, 9, 42, 92
1, 226560, Note_on_c, 9, 36, 106
1, 226799, Note_on_c, 9, 42, 0
1, 226800, Note_on_c, 9, 42, 78
1, 227039, Note_on_c, 9, 36, 0
1, 227039, Note_on_c, 9, 42, 0
1, 227040, Note_on_c, 9, 38, 106
1, 227040, Note_on_c, 9, 42, 92
1, 227040, Note_on_c, 9, 36, 106
1, 227279, Note_on_c, 9, 38, 0
1, 227279, Note_on_c, 9, 42, 0
1, 227280, Note_on_c, 9, 42, 78
1, 227519, Note_on_c, 9, 36, 0
1, 227519, Note_on_c, 9, 42, 0
1, 227520, Note_on_c, 9, 42, 92
1, 227520, Note_on_c, 9, 36, 106
1, 227759, Note_on_c, 9, 42, 0
1, 227760, Note_on_c, 9, 42, 78
1, 227999, Note_on_c, 9, 36, 0
1, 227999, Note_on_c, 9, 42, 0
1, 228000, Note_on_c, 9, 38, 106
1, 228000, Note_on_c, 9, 42, 92
1, 228000, Note_on_c, 9, 36, 106
1, 228239, Note_on_c, 9, 38, 0
1, 228239, Note_on_c, 9, 42, 0
1, 228240, Note_on_c, 9, 42, 78
1, 228479, Note_on_c, 9, 36, 0
1, 228479, Note_on_c, 9, 42, 0
1, 228480, Note_on_c, 9, 42, 92
1, 228480, Note_on_c, 9, 36, 106
1, 228719, Note_on_c, 9, 42, 0
1, 228720, Note_on_c, 9, 42, 78
1, 228959, Note_on_c, 9, 36, 0
1, 228959, Note_on_c, 9, 42, 0
1, 228960, Note_on_c, 9, 38, 106
1, 228960, Note_on_c, 9, 42, 92
1, 228960, Note_on_c, 9, 36, 106
1, 229199, Note_on_c, 9, 38, 0
1, 229199, Note_on_c, 9, 42, 0
1, 229200, Note_on_c, 9, 42, 78
1, 229439, Note_on_c, 9, 36, 0
1, 229439, Note_on_c, 9, 42, 0
1, 229440, Note_on_c, 9, 42, 92
1, 229440, Note_on_c, 9, 36, 106
1, 229679, Note_on_c, 9, 42, 0
1, 229680, Note_on_c, 9, 42, 78
1, 229919, Note_on_c, 9, 36, 0
1, 229919, Note_on_c, 9, 42, 0
1, 229920, Note_on_c, 9, 38, 106
1, 229920, Note_on_c, 9, 42, 92
1, 229920, Note_on_c, 9, 36, 106
1, 230159, Note_on_c, 9, 38, 0
1, 230159, Note_on_c, 9, 42, 0
1, 230160, Note_on_c, 9, 42, 78
1, 230399, Note_on_c, 9, 36, 0
1, 230399, Note_on_c, 9, 42, 0
1, 230400, Note_on_c, 9, 42, 92
1, 230400, Note_on_c, 9, 36, 106
1, 230639, Note_on_c, 9, 42, 0
1, 230640, Note_on_c, 9, 42, 78
1, 230879, Note_on_c, 9, 36, 0
1, 230879, Note_on_c, 9, 42, 0
1, 230880, Note_on_c, 9, 38, 106
1, 230880, Note_on_c, 9, 42, 92
1, 230880, Note_on_c, 9, 36, 106
1, 231119, Note_on_c, 9, 38, 0
1, 231119, Note_on_c, 9, 42, 0
1, 231120, Note_on_c, 9, 42, 78
1, 231359, Note_on_c, 9, 36, 0
1, 231359, Note_on_c, 9, 42, 0
1, 231360, Note_on_c, 9, 42, 92
1, 231360, Note_on_c, 9, 36, 106
1, 231599, Note_on_c, 9, 42, 0
1, 231600, Note_on_c, 9, 42, 78
1, 231839, Note_on_c, 9, 36, 0
1, 231839, Note_on_c, 9, 42, 0
1, 231840, Note_on_c, 9, 38, 106
1, 231840, Note_on_c, 9, 42, 92
1, 231840, Note_on_c, 9, 36, 106
1, 232079, Note_on_c, 9, 38, 0
1, 232079, Note_on_c, 9, 42, 0
1, 232080, Note_on_c, 9, 42, 78
1, 232319, Note_on_c, 9, 36, 0
1, 232319, Note_on_c, 9, 42, 0
1, 232320, Note_on_c, 9, 42, 92
1, 232320, Note_on_c, 9, 36, 106
1, 232559, Note_on_c, 9, 42, 0
1, 232560, Note_on_c, 9, 42, 78
1, 232799, Note_on_c, 9, 36, 0
1, 232799, Note_on_c, 9, 42, 0
1, 232800, Note_on_c, 9, 38, 106
1, 232800, Note_on_c, 9, 42, 92
1, 232800, Note_on_c, 9, 36, 106
1, 233039, Note_on_c, 9, 38, 0
1, 233039, Note_on_c, 9, 42, 0
1, 233040, Note_on_c, 9, 42, 78
1, 233279, Note_on_c, 9, 36, 0
1, 233279, Note_on_c, 9, 42, 0
1, 233280, Note_on_c, 9, 42, 92
1, 233280, Note_on_c, 9, 36, 106
1, 233519, Note_on_c, 9, 42, 0
1, 233520, Note_on_c, 9, 42, 78
1, 233759, Note_on_c, 9, 36, 0
1, 233759, Note_on_c, 9, 42, 0
1, 233760, Note_on_c, 9, 38, 106
1, 233760, Note_on_c, 9, 42, 92
1, 233760, Note_on_c, 9, 36, 106
1, 233999, Note_on_c, 9, 38, 0
1, 233999, Note_on_c, 9, 42, 0
1, 234000, Note_on_c, 9, 42, 78
1, 234239, Note_on_c, 9, 36, 0
1, 234239, Note_on_c, 9, 42, 0
1, 234240, Note_on_c, 9, 42, 92
1, 234240, Note_on_c, 9, 36, 106
1, 234479, Note_on_c, 9, 42, 0
1, 234480, Note_on_c, 9, 42, 78
1, 234719, Note_on_c, 9, 36, 0
1, 234719, Note_on_c, 9, 42, 0
1, 234720, Note_on_c, 9, 38, 106
1, 234720, Note_on_c, 9, 42, 92
1, 234720, Note_on_c, 9, 36, 106
1, 234959, Note_on_c, 9, 38, 0
1, 234959, Note_on_c, 9, 42, 0
1, 234960, Note_on_c, 9, 42, 78
1, 235199, Note_on_c, 9, 36, 0
1, 235199, Note_on_c, 9, 42, 0
1, 235200, Note_on_c, 9, 42, 92
1, 235200, Note_on_c, 9, 36, 106
1, 235439, Note_on_c, 9, 42, 0
1, 235440, Note_on_c, 9, 42, 78
1, 235679, Note_on_c, 9, 36, 0
1, 235679, Note_on_c, 9, 42, 0
1, 235680, Note_on_c, 9, 38, 106
1, 235680, Note_on_c, 9, 42, 92
1, 235680, Note_on_c, 9, 36, 106
1, 235919, Note_on_c, 9, 38, 0
1, 235919, Note_on_c, 9, 42, 0
1, 235920, Note_on_c, 9, 42, 78
1, 236159, Note_on_c, 9, 36, 0
1, 236159, Note_on_c, 9, 42, 0
1, 236160, Note_on_c, 9, 42, 92
1, 236160, Note_on_c, 9, 36, 106
1, 236399, Note_on_c, 9, 42, 0
1, 236400, Note_on_c, 9, 42, 78
1, 236639, Note_on_c, 9, 36, 0
1, 236639, Note_on_c, 9, 42, 0
1, 236640, Note_on_c, 9, 38, 106
1, 236640, Note_on_c, 9, 42, 92
1, 236640, Note_on_c, 9, 36, 106
1, 236879, Note_on_c, 9, 38, 0
1, 236879, Note_on_c, 9, 42, 0
1, 236880, Note_on_c, 9, 42, 78
1, 237119, Note_on_c, 9, 36, 0
1, 237119, Note_on_c, 9, 42, 0
1, 237120, Note_on_c, 9, 42, 92
1, 237120, Note_on_c, 9, 36, 106
1, 237359, Note_on_c, 9, 42, 0
1, 237360, Note_on_c, 9, 42, 78
1, 237599, Note_on_c, 9, 36, 0
1, 237599, Note_on_c, 9, 42, 0
1, 237600, Note_on_c, 9, 38, 106
1, 237600, Note_on_c, 9, 42, 92
1, 237600, Note_on_c, 9, 36, 106
1, 237839, Note_on_c, 9, 38, 0
1, 237839, Note_on_c, 9, 42, 0
1, 237840, Note_on_c, 9, 42, 78
1, 238079, Note_on_c, 9, 36, 0
1, 238079, Note_on_c, 9, 42, 0
1, 238080, Note_on_c, 9, 42, 92
1, 238080, Note_on_c, 9, 36, 106
1, 238319, Note_on_c, 9, 42, 0
1, 238320, Note_on_c, 9, 42, 78
1, 238559, Note_on_c, 9, 36, 0
1, 238559, Note_on_c, 9, 42, 0
1, 238560, Note_on_c, 9, 38, 106
1, 238560, Note_on_c, 9, 42, 92
1, 238560, Note_on_c, 9, 36, 106
1, 238799, Note_on_c, 9, 38, 0
1, 238799, Note_on_c, 9, 42, 0
1, 238800, Note_on_c, 9, 42, 78
1, 239039, Note_on_c, 9, 36, 0
1, 239039, Note_on_c, 9, 42, 0
1, 239040, Note_on_c, 9, 42, 92
1, 239040, Note_on_c, 9, 36, 106
1, 239279, Note_on_c, 9, 42, 0
1, 239280, Note_on_c, 9, 42, 78
1, 239519, Note_on_c, 9, 36, 0
1, 239519, Note_on_c, 9, 42, 0
1, 239520, Note_on_c, 9, 38, 106
1, 239520, Note_on_c, 9, 42, 92
1, 239520, Note_on_c, 9, 36, 106
1, 239759, Note_on_c, 9, 38, 0
1, 239759, Note_on_c, 9, 42, 0
1, 239760, Note_on_c, 9, 42, 78
1, 239999, Note_on_c, 9, 36, 0
1, 239999, Note_on_c, 9, 42, 0
1, 240000, Note_on_c, 9, 42, 92
1, 240000, Note_on_c, 9, 36, 106
1, 240239, Note_on_c, 9, 42, 0
1, 240240, Note_on_c, 9, 42, 78
1, 240479, Note_on_c, 9, 36, 0
1, 240479, Note_on_c, 9, 42, 0
1, 240480, Note_on_c, 9, 38, 106
1, 240480, Note_on_c, 9, 42, 92
1, 240480, Note_on_c, 9, 36, 106
1, 240719, Note_on_c, 9, 38, 0
1, 240719, Note_on_c, 9, 42, 0
1, 240720, Note_on_c, 9, 42, 78
1, 240959, Note_on_c, 9, 36, 0
1, 240959, Note_on_c, 9, 42, 0
1, 240960, Note_on_c, 9, 42, 92
1, 240960, Note_on_c, 9, 36, 106
1, 241199, Note_on_c, 9, 42, 0
1, 241200, Note_on_c, 9, 46, 106
1, 241439, Note_on_c, 9, 36, 0
1, 241439, Note_on_c, 9, 46, 0
1, 241440, Note_on_c, 9, 38, 106
1, 241440, Note_on_c, 9, 36, 106
1, 241679, Note_on_c, 9, 38, 0
1, 241680, Note_on_c, 9, 38, 106
1, 241799, Note_on_c, 9, 38, 0
1, 241800, Note_on_c, 9, 38, 106
1, 241919, Note_on_c, 9, 36, 0
1, 241919, Note_on_c, 9, 38, 0
1, 241920, Note_on_c, 9, 49, 106
1, 241920, Note_on_c, 9, 36, 106
1, 242399, Note_on_c, 9, 49, 0
1, 242399, Note_on_c, 9, 36, 0
1, 242400, Note_on_c, 9, 46, 120
1, 242400, Note_on_c, 9, 36, 106
1, 242639, Note_on_c, 9, 46, 0
1, 242640, Note_on_c, 9, 46, 92
1, 242759, Note_on_c, 9, 46, 0
1, 242760, Note_on_c, 9, 46, 90
1, 242879, Note_on_c, 9, 36, 0
1, 242879, Note_on_c, 9, 46, 0
1, 242880, Note_on_c, 9, 46, 92
1, 242880, Note_on_c, 9, 36, 106
1, 242999, Note_on_c, 9, 46, 0
1, 243000, Note_on_c, 9, 46, 90
1, 243119, Note_on_c, 9, 46, 0
1, 243120, Note_on_c, 9, 46, 92
1, 243239, Note_on_c, 9, 46, 0
1, 243240, Note_on_c, 9, 46, 90
1, 243359, Note_on_c, 9, 36, 0
1, 243359, Note_on_c, 9, 46, 0
1, 243360, Note_on_c, 9, 46, 92
1, 243360, Note_on_c, 9, 36, 106
1, 243479, Note_on_c, 9, 46, 0
1, 243480, Note_on_c, 9, 46, 90
1, 243599, Note_on_c, 9, 46, 0
1, 243600, Note_on_c, 9, 46, 92
1, 243719, Note_on_c, 9, 46, 0
1, 243720, Note_on_c, 9, 46, 90
1, 243839, Note_on_c, 9, 36, 0
1, 243839, Note_on_c, 9, 46, 0
1, 243840, Note_on_c, 9, 46, 92
1, 243840, Note_on_c, 9, 36, 106
1, 243959, Note_on_c, 9, 46, 0
1, 243960, Note_on_c, 9, 46, 90
1, 244079, Note_on_c, 9, 46, 0
1, 244080, Note_on_c, 9, 46, 92
1, 244199, Note_on_c, 9, 46, 0
1, 244200, Note_on_c, 9, 46, 90
1, 244319, Note_on_c, 9, 36, 0
1, 244319, Note_on_c, 9, 46, 0
1, 244320, Note_on_c, 9, 46, 92
1, 244320, Note_on_c, 9, 36, 106
1, 244439, Note_on_c, 9, 46, 0
1, 244440, Note_on_c, 9, 46, 90
1, 244559, Note_on_c, 9, 46, 0
1, 244560, Note_on_c, 9, 46, 92
1, 244679, Note_on_c, 9, 46, 0
1, 244680, Note_on_c, 9, 46, 90
1, 244799, Note_on_c, 9, 36, 0
1, 244799, Note_on_c, 9, 46, 0
1, 244800, Note_on_c, 9, 46, 92
1, 244800, Note_on_c, 9, 36, 106
1, 244919, Note_on_c, 9, 46, 0
1, 244920, Note_on_c, 9, 46, 90
1, 245039, Note_on_c, 9, 46, 0
1, 245040, Note_on_c, 9, 46, 92
1, 245159, Note_on_c, 9, 46, 0
1, 245160, Note_on_c, 9, 46, 90
1, 245279, Note_on_c, 9, 36, 0
1, 245279, Note_on_c, 9, 46, 0
1, 245280, Note_on_c, 9, 49, 78
1, 245280, Note_on_c, 9, 36, 120
1, 245639, Note_on_c, 9, 49, 0
1, 245640, Note_on_c, 9, 40, 50
1, 245699, Note_on_c, 9, 40, 0
1, 245700, Note_on_c, 9, 40, 78
1, 245759, Note_on_c, 9, 36, 0
1, 245759, Note_on_c, 9, 40, 0
1, 245760, Tempo, 512821
1, 245760, Note_on_c, 9, 41, 92
1, 245760, Note_on_c, 9, 40, 106
1, 245760, Note_on_c, 9, 44, 106
1, 245760, Note_on_c, 9, 36, 78
1, 245879, Note_on_c, 9, 44, 0
1, 245879, Note_on_c, 9, 36, 0
1, 245880, Note_on_c, 9, 36, 92
1, 246239, Note_on_c, 9, 41, 0
1, 246239, Note_on_c, 9, 40, 0
1, 246239, Note_on_c, 9, 36, 0
1, 246240, Note_on_c, 9, 49, 120
1, 246479, Note_on_c, 9, 49, 0
1, 246480, Note_on_c, 9, 40, 36
1, 246599, Note_on_c, 9, 40, 0
1, 246600, Note_on_c, 9, 40, 64
1, 246719, Note_on_c, 9, 40, 0
1, 246720, Note_on_c, 9, 41, 106
1, 246720, Note_on_c, 9, 38, 120
1, 246720, Note_on_c, 9, 44, 106
1, 246720, Note_on_c, 9, 36, 78
1, 246839, Note_on_c, 9, 44, 0
1, 246839, Note_on_c, 9, 36, 0
1, 246840, Note_on_c, 9, 36, 92
1, 247199, Note_on_c, 9, 41, 0
1, 247199, Note_on_c, 9, 38, 0
1, 247199, Note_on_c, 9, 36, 0
1, 247200, Note_on_c, 9, 49, 120
1, 247439, Note_on_c, 9, 49, 0
1, 247440, Note_on_c, 9, 45, 50
1, 247559, Note_on_c, 9, 45, 0
1, 247560, Note_on_c, 9, 45, 78
1, 247679, Note_on_c, 9, 45, 0
1, 247680, Note_on_c, 9, 45, 36
1, 247680, Note_on_c, 9, 48, 78
1, 247680, Note_on_c, 9, 44, 106
1, 247680, Note_on_c, 9, 36, 78
1, 247719, Note_on_c, 9, 45, 0
1, 247719, Note_on_c, 9, 48, 0
1, 247720, Note_on_c, 9, 48, 50
1, 247739, Note_on_c, 9, 48, 0
1, 247760, Note_on_c, 9, 45, 50
1, 247760, Note_on_c, 9, 48, 78
1, 247799, Note_on_c, 9, 45, 0
1, 247799, Note_on_c, 9, 48, 0
1, 247800, Note_on_c, 9, 48, 50
1, 247839, Note_on_c, 9, 48, 0
1, 247840, Note_on_c, 9, 45, 78
1, 247840, Note_on_c, 9, 48, 78
1, 247859, Note_on_c, 9, 45, 0
1, 247859, Note_on_c, 9, 48, 0
1, 247880, Note_on_c, 9, 48, 50
1, 247919, Note_on_c, 9, 44, 0
1, 247919, Note_on_c, 9, 36, 0
1, 247919, Note_on_c, 9, 48, 0
1, 247920, Note_on_c, 9, 45, 106
1, 247920, Note_on_c, 9, 48, 106
1, 247920, Note_on_c, 9, 36, 106
1, 248159, Note_on_c, 9, 45, 0
1, 248159, Note_on_c, 9, 48, 0
1, 248159, Note_on_c, 9, 36, 0
1, 248160, Note_on_c, 9, 49, 120
1, 248399, Note_on_c, 9, 49, 0
1, 248400, Note_on_c, 9, 45, 50
1, 248519, Note_on_c, 9, 45, 0
1, 248520, Note_on_c, 9, 45, 64
1, 248639, Note_on_c, 9, 45, 0
1, 248640, Note_on_c, 9, 41, 36
1, 248640, Note_on_c, 9, 45, 78
1, 248640, Note_on_c, 9, 44, 106
1, 248640, Note_on_c, 9, 36, 78
1, 248679, Note_on_c, 9, 41, 0
1, 248679, Note_on_c, 9, 45, 0
1, 248680, Note_on_c, 9, 45, 50
1, 248699, Note_on_c, 9, 45, 0
1, 248720, Note_on_c, 9, 41, 50
1, 248720, Note_on_c, 9, 45, 78
1, 248759, Note_on_c, 9, 41, 0
1, 248759, Note_on_c, 9, 45, 0
1, 248760, Note_on_c, 9, 45, 50
1, 248799, Note_on_c, 9, 45, 0
1, 248800, Note_on_c, 9, 41, 78
1, 248800, Note_on_c, 9, 45, 78
1, 248819, Note_on_c, 9, 41, 0
1, 248819, Note_on_c, 9, 45, 0
1, 248840, Note_on_c, 9, 45, 50
1, 248879, Note_on_c, 9, 44, 0
1, 248879, Note_on_c, 9, 36, 0
1, 248879, Note_on_c, 9, 45, 0
1, 248880, Note_on_c, 9, 41, 106
1, 248880, Note_on_c, 9, 45, 106
1, 248880, Note_on_c, 9, 36, 106
1, 249119, Note_on_c, 9, 41, 0
1, 249119, Note_on_c, 9, 45, 0
1, 249119, Note_on_c, 9, 36, 0
1, 249120, Note_on_c, 9, 49, 120
1, 249599, Note_on_c, 9, 49, 0
1, 249600, Tempo, 495868
1, 249600, Note_on_c, 9, 49, 106
1, 249600, Note_on_c, 9, 36, 106
1, 249719, Note_on_c, 9, 49, 0
1, 249720, Note_on_c, 9, 46, 90
1, 249839, Note_on_c, 9, 46, 0
1, 249840, Note_on_c, 9, 46, 92
1, 249959, Note_on_c, 9, 46, 0
1, 249960, Note_on_c, 9, 46, 90
1, 250079, Note_on_c, 9, 36, 0
1, 250079, Note_on_c, 9, 46, 0
1, 250080, Note_on_c, 9, 46, 92
1, 250080, Note_on_c, 9, 36, 106
1, 250199, Note_on_c, 9, 46, 0
1, 250200, Note_on_c, 9, 46, 90
1, 250319, Note_on_c, 9, 46, 0
1, 250320, Note_on_c, 9, 46, 92
1, 250439, Note_on_c, 9, 46, 0
1, 250440, Note_on_c, 9, 46, 90
1, 250559, Note_on_c, 9, 36, 0
1, 250559, Note_on_c, 9, 46, 0
1, 250560, Note_on_c, 9, 46, 92
1, 250560, Note_on_c, 9, 36, 106
1, 250679, Note_on_c, 9, 46, 0
1, 250680, Note_on_c, 9, 46, 90
1, 250799, Note_on_c, 9, 46, 0
1, 250800, Note_on_c, 9, 46, 92
1, 250919, Note_on_c, 9, 46, 0
1, 250920, Note_on_c, 9, 46, 90
1, 251039, Note_on_c, 9, 36, 0
1, 251039, Note_on_c, 9, 46, 0
1, 251040, Note_on_c, 9, 46, 92
1, 251040, Note_on_c, 9, 36, 106
1, 251159, Note_on_c, 9, 46, 0
1, 251160, Note_on_c, 9, 46, 90
1, 251279, Note_on_c, 9, 46, 0
1, 251280, Note_on_c, 9, 46, 92
1, 251399, Note_on_c, 9, 46, 0
1, 251400, Note_on_c, 9, 46, 90
1, 251519, Note_on_c, 9, 36, 0
1, 251519, Note_on_c, 9, 46, 0
1, 251520, Note_on_c, 9, 46, 92
1, 251520, Note_on_c, 9, 36, 106
1, 251639, Note_on_c, 9, 46, 0
1, 251640, Note_on_c, 9, 46, 90
1, 251759, Note_on_c, 9, 46, 0
1, 251760, Note_on_c, 9, 46, 92
1, 251879, Note_on_c, 9, 46, 0
1, 251880, Note_on_c, 9, 46, 90
1, 251999, Note_on_c, 9, 36, 0
1, 251999, Note_on_c, 9, 46, 0
1, 252000, Note_on_c, 9, 46, 92
1, 252000, Note_on_c, 9, 36, 106
1, 252119, Note_on_c, 9, 46, 0
1, 252120, Note_on_c, 9, 46, 90
1, 252239, Note_on_c, 9, 46, 0
1, 252240, Note_on_c, 9, 46, 92
1, 252359, Note_on_c, 9, 46, 0
1, 252360, Note_on_c, 9, 46, 90
1, 252479, Note_on_c, 9, 36, 0
1, 252479, Note_on_c, 9, 46, 0
1, 252480, Note_on_c, 9, 46, 92
1, 252480, Note_on_c, 9, 36, 106
1, 252599, Note_on_c, 9, 46, 0
1, 252600, Note_on_c, 9, 46, 90
1, 252719, Note_on_c, 9, 46, 0
1, 252720, Note_on_c, 9, 46, 92
1, 252839, Note_on_c, 9, 46, 0
1, 252840, Note_on_c, 9, 46, 90
1, 252959, Note_on_c, 9, 36, 0
1, 252959, Note_on_c, 9, 46, 0
1, 252960, Note_on_c, 9, 38, 106
1, 252960, Note_on_c, 9, 46, 120
1, 252960, Note_on_c, 9, 36, 106
1, 253439, Note_on_c, 9, 38, 0
1, 253439, Note_on_c, 9, 46, 0
1, 253439, Note_on_c, 9, 36, 0
1, 253440, Note_on_c, 9, 46, 106
1, 253440, Note_on_c, 9, 36, 106
1, 253559, Note_on_c, 9, 46, 0
1, 253560, Note_on_c, 9, 42, 106
1, 253679, Note_on_c, 9, 42, 0
1, 253680, Note_on_c, 9, 42, 106
1, 253799, Note_on_c, 9, 42, 0
1, 253800, Note_on_c, 9, 42, 50
1, 253919, Note_on_c, 9, 36, 0
1, 253919, Note_on_c, 9, 42, 0
1, 253920, Note_on_c, 9, 38, 106
1, 253920, Note_on_c, 9, 42, 106
1, 253920, Note_on_c, 9, 36, 106
1, 254039, Note_on_c, 9, 38, 0
1, 254039, Note_on_c, 9, 42, 0
1, 254040, Note_on_c, 9, 42, 50
1, 254159, Note_on_c, 9, 42, 0
1, 254160, Note_on_c, 9, 42, 106
1, 254279, Note_on_c, 9, 42, 0
1, 254280, Note_on_c, 9, 42, 106
1, 254399, Note_on_c, 9, 36, 0
1, 254399, Note_on_c, 9, 42, 0
1, 254400, Note_on_c, 9, 46, 106
1, 254400, Note_on_c, 9, 36, 106
1, 254519, Note_on_c, 9, 46, 0
1, 254520, Note_on_c, 9, 42, 106
1, 254639, Note_on_c, 9, 42, 0
1, 254640, Note_on_c, 9, 42, 50
1, 254759, Note_on_c, 9, 42, 0
1, 254760, Note_on_c, 9, 42, 106
1, 254879, Note_on_c, 9, 36, 0
1, 254879, Note_on_c, 9, 42, 0
1, 254880, Note_on_c, 9, 38, 106
1, 254880, Note_on_c, 9, 42, 106
1, 254880, Note_on_c, 9, 36, 106
1, 254999, Note_on_c, 9, 38, 0
1, 254999, Note_on_c, 9, 42, 0
1, 255000, Note_on_c, 9, 42, 50
1, 255119, Note_on_c, 9, 42, 0
1, 255120, Note_on_c, 9, 42, 106
1, 255239, Note_on_c, 9, 42, 0
1, 255240, Note_on_c, 9, 42, 106
1, 255359, Note_on_c, 9, 36, 0
1, 255359, Note_on_c, 9, 42, 0
1, 255360, Note_on_c, 9, 46, 106
1, 255360, Note_on_c, 9, 36, 106
1, 255479, Note_on_c, 9, 46, 0
1, 255480, Note_on_c, 9, 42, 106
1, 255599, Note_on_c, 9, 42, 0
1, 255600, Note_on_c, 9, 42, 106
1, 255719, Note_on_c, 9, 42, 0
1, 255720, Note_on_c, 9, 42, 50
1, 255839, Note_on_c, 9, 36, 0
1, 255839, Note_on_c, 9, 42, 0
1, 255840, Note_on_c, 9, 38, 106
1, 255840, Note_on_c, 9, 42, 106
1, 255840, Note_on_c, 9, 36, 106
1, 255959, Note_on_c, 9, 38, 0
1, 255959, Note_on_c, 9, 42, 0
1, 255960, Note_on_c, 9, 42, 50
1, 256079, Note_on_c, 9, 42, 0
1, 256080, Note_on_c, 9, 42, 106
1, 256199, Note_on_c, 9, 42, 0
1, 256200, Note_on_c, 9, 42, 106
1, 256319, Note_on_c, 9, 36, 0
1, 256319, Note_on_c, 9, 42, 0
1, 256320, Note_on_c, 9, 46, 106
1, 256320, Note_on_c, 9, 36, 106
1, 256439, Note_on_c, 9, 46, 0
1, 256440, Note_on_c, 9, 42, 106
1, 256559, Note_on_c, 9, 42, 0
1, 256560, Note_on_c, 9, 42, 50
1, 256679, Note_on_c, 9, 42, 0
1, 256680, Note_on_c, 9, 42, 106
1, 256799, Note_on_c, 9, 36, 0
1, 256799, Note_on_c, 9, 42, 0
1, 256800, Note_on_c, 9, 38, 106
1, 256800, Note_on_c, 9, 42, 106
1, 256800, Note_on_c, 9, 36, 106
1, 256919, Note_on_c, 9, 38, 0
1, 256919, Note_on_c, 9, 42, 0
1, 256920, Note_on_c, 9, 42, 50
1, 257039, Note_on_c, 9, 42, 0
1, 257040, Note_on_c, 9, 41, 92
1, 257040, Note_on_c, 9, 42, 106
1, 257159, Note_on_c, 9, 41, 0
1, 257159, Note_on_c, 9, 42, 0
1, 257160, Note_on_c, 9, 42, 106
1, 257279, Note_on_c, 9, 36, 0
1, 257279, Note_on_c, 9, 42, 0
1, 257280, Note_on_c, 9, 46, 106
1, 257280, Note_on_c, 9, 36, 106
1, 257399, Note_on_c, 9, 46, 0
1, 257400, Note_on_c, 9, 42, 106
1, 257519, Note_on_c, 9, 42, 0
1, 257520, Note_on_c, 9, 42, 106
1, 257639, Note_on_c, 9, 42, 0
1, 257640, Note_on_c, 9, 42, 50
1, 257759, Note_on_c, 9, 36, 0
1, 257759, Note_on_c, 9, 42, 0
1, 257760, Note_on_c, 9, 38, 106
1, 257760, Note_on_c, 9, 42, 106
1, 257760, Note_on_c, 9, 36, 106
1, 257879, Note_on_c, 9, 38, 0
1, 257879, Note_on_c, 9, 42, 0
1, 257880, Note_on_c, 9, 42, 50
1, 257999, Note_on_c, 9, 42, 0
1, 258000, Note_on_c, 9, 42, 106
1, 258119, Note_on_c, 9, 42, 0
1, 258120, Note_on_c, 9, 42, 106
1, 258239, Note_on_c, 9, 36, 0
1, 258239, Note_on_c, 9, 42, 0
1, 258240, Note_on_c, 9, 46, 106
1, 258240, Note_on_c, 9, 36, 106
1, 258359, Note_on_c, 9, 46, 0
1, 258360, Note_on_c, 9, 42, 106
1, 258479, Note_on_c, 9, 42, 0
1, 258480, Note_on_c, 9, 42, 50
1, 258599, Note_on_c, 9, 42, 0
1, 258600, Note_on_c, 9, 42, 106
1, 258719, Note_on_c, 9, 36, 0
1, 258719, Note_on_c, 9, 42, 0
1, 258720, Note_on_c, 9, 38, 106
1, 258720, Note_on_c, 9, 42, 106
1, 258720, Note_on_c, 9, 36, 106
1, 258839, Note_on_c, 9, 38, 0
1, 258839, Note_on_c, 9, 42, 0
1, 258840, Note_on_c, 9, 42, 50
1, 258959, Note_on_c, 9, 42, 0
1, 258960, Note_on_c, 9, 42, 106
1, 259079, Note_on_c, 9, 42, 0
1, 259080, Note_on_c, 9, 42, 106
1, 259199, Note_on_c, 9, 36, 0
1, 259199, Note_on_c, 9, 42, 0
1, 259200, Note_on_c, 9, 46, 106
1, 259200, Note_on_c, 9, 36, 106
1, 259319, Note_on_c, 9, 46, 0
1, 259320, Note_on_c, 9, 42, 106
1, 259439, Note_on_c, 9, 42, 0
1, 259440, Note_on_c, 9, 42, 106
1, 259559, Note_on_c, 9, 42, 0
1, 259560, Note_on_c, 9, 42, 50
1, 259679, Note_on_c, 9, 36, 0
1, 259679, Note_on_c, 9, 42, 0
1, 259680, Note_on_c, 9, 38, 106
1, 259680, Note_on_c, 9, 42, 106
1, 259680, Note_on_c, 9, 36, 106
1, 259799, Note_on_c, 9, 38, 0
1, 259799, Note_on_c, 9, 42, 0
1, 259800, Note_on_c, 9, 42, 50
1, 259919, Note_on_c, 9, 42, 0
1, 259920, Note_on_c, 9, 42, 106
1, 260039, Note_on_c, 9, 42, 0
1, 260040, Note_on_c, 9, 42, 106
1, 260159, Note_on_c, 9, 36, 0
1, 260159, Note_on_c, 9, 42, 0
1, 260160, Note_on_c, 9, 46, 106
1, 260160, Note_on_c, 9, 36, 106
1, 260279, Note_on_c, 9, 46, 0
1, 260280, Note_on_c, 9, 42, 106
1, 260399, Note_on_c, 9, 42, 0
1, 260400, Note_on_c, 9, 42, 50
1, 260519, Note_on_c, 9, 42, 0
1, 260520, Note_on_c, 9, 42, 106
1, 260639, Note_on_c, 9, 36, 0
1, 260639, Note_on_c, 9, 42, 0
1, 260640, Note_on_c, 9, 38, 106
1, 260640, Note_on_c, 9, 42, 106
1, 260640, Note_on_c, 9, 36, 106
1, 260759, Note_on_c, 9, 38, 0
1, 260759, Note_on_c, 9, 42, 0
1, 260760, Note_on_c, 9, 42, 50
1, 260879, Note_on_c, 9, 42, 0
1, 260880, Note_on_c, 9, 41, 92
1, 260880, Note_on_c, 9, 42, 106
1, 260999, Note_on_c, 9, 41, 0
1, 260999, Note_on_c, 9, 42, 0
1, 261000, Note_on_c, 9, 42, 106
1, 261119, Note_on_c, 9, 36, 0
1, 261119, Note_on_c, 9, 42, 0
1, 261120, Note_on_c, 9, 46, 106
1, 261120, Note_on_c, 9, 36, 106
1, 261239, Note_on_c, 9, 46, 0
1, 261240, Note_on_c, 9, 42, 106
1, 261359, Note_on_c, 9, 42, 0
1, 261360, Note_on_c, 9, 42, 106
1, 261479, Note_on_c, 9, 42, 0
1, 261480, Note_on_c, 9, 42, 50
1, 261599, Note_on_c, 9, 36, 0
1, 261599, Note_on_c, 9, 42, 0
1, 261600, Note_on_c, 9, 38, 106
1, 261600, Note_on_c, 9, 42, 106
1, 261600, Note_on_c, 9, 36, 106
1, 261719, Note_on_c, 9, 38, 0
1, 261719, Note_on_c, 9, 42, 0
1, 261720, Note_on_c, 9, 42, 50
1, 261839, Note_on_c, 9, 42, 0
1, 261840, Note_on_c, 9, 42, 106
1, 261959, Note_on_c, 9, 42, 0
1, 261960, Note_on_c, 9, 42, 106
1, 262079, Note_on_c, 9, 36, 0
1, 262079, Note_on_c, 9, 42, 0
1, 262080, Note_on_c, 9, 46, 106
1, 262080, Note_on_c, 9, 36, 106
1, 262199, Note_on_c, 9, 46, 0
1, 262200, Note_on_c, 9, 42, 106
1, 262319, Note_on_c, 9, 42, 0
1, 262320, Note_on_c, 9, 42, 50
1, 262439, Note_on_c, 9, 42, 0
1, 262440, Note_on_c, 9, 42, 106
1, 262559, Note_on_c, 9, 36, 0
1, 262559, Note_on_c, 9, 42, 0
1, 262560, Note_on_c, 9, 38, 106
1, 262560, Note_on_c, 9, 42, 106
1, 262560, Note_on_c, 9, 36, 106
1, 262679, Note_on_c, 9, 38, 0
1, 262679, Note_on_c, 9, 42, 0
1, 262680, Note_on_c, 9, 42, 50
1, 262799, Note_on_c, 9, 42, 0
1, 262800, Note_on_c, 9, 42, 106
1, 262919, Note_on_c, 9, 42, 0
1, 262920, Note_on_c, 9, 42, 106
1, 263039, Note_on_c, 9, 36, 0
1, 263039, Note_on_c, 9, 42, 0
1, 263040, Note_on_c, 9, 46, 106
1, 263040, Note_on_c, 9, 36, 106
1, 263159, Note_on_c, 9, 46, 0
1, 263160, Note_on_c, 9, 42, 106
1, 263279, Note_on_c, 9, 42, 0
1, 263280, Note_on_c, 9, 42, 106
1, 263399, Note_on_c, 9, 42, 0
1, 263400, Note_on_c, 9, 42, 50
1, 263519, Note_on_c, 9, 36, 0
1, 263519, Note_on_c, 9, 42, 0
1, 263520, Note_on_c, 9, 38, 106
1, 263520, Note_on_c, 9, 42, 106
1, 263520, Note_on_c, 9, 36, 106
1, 263639, Note_on_c, 9, 38, 0
1, 263639, Note_on_c, 9, 42, 0
1, 263640, Note_on_c, 9, 42, 50
1, 263759, Note_on_c, 9, 42, 0
1, 263760, Note_on_c, 9, 42, 106
1, 263879, Note_on_c, 9, 42, 0
1, 263880, Note_on_c, 9, 42, 106
1, 263999, Note_on_c, 9, 36, 0
1, 263999, Note_on_c, 9, 42, 0
1, 264000, Note_on_c, 9, 46, 106
1, 264000, Note_on_c, 9, 36, 106
1, 264119, Note_on_c, 9, 46, 0
1, 264120, Note_on_c, 9, 42, 106
1, 264239, Note_on_c, 9, 42, 0
1, 264240, Note_on_c, 9, 42, 50
1, 264359, Note_on_c, 9, 42, 0
1, 264360, Note_on_c, 9, 42, 106
1, 264479, Note_on_c, 9, 36, 0
1, 264479, Note_on_c, 9, 42, 0
1, 264480, Note_on_c, 9, 38, 106
1, 264480, Note_on_c, 9, 42, 106
1, 264480, Note_on_c, 9, 36, 106
1, 264599, Note_on_c, 9, 38, 0
1, 264599, Note_on_c, 9, 42, 0
1, 264600, Note_on_c, 9, 42, 50
1, 264719, Note_on_c, 9, 42, 0
1, 264720, Note_on_c, 9, 41, 92
1, 264720, Note_on_c, 9, 42, 106
1, 264839, Note_on_c, 9, 41, 0
1, 264839, Note_on_c, 9, 42, 0
1, 264840, Note_on_c, 9, 42, 106
1, 264959, Note_on_c, 9, 36, 0
1, 264959, Note_on_c, 9, 42, 0
1, 264960, Note_on_c, 9, 46, 106
1, 264960, Note_on_c, 9, 36, 106
1, 265079, Note_on_c, 9, 46, 0
1, 265080, Note_on_c, 9, 42, 106
1, 265199, Note_on_c, 9, 42, 0
1, 265200, Note_on_c, 9, 42, 106
1, 265319, Note_on_c, 9, 42, 0
1, 265320, Note_on_c, 9, 42, 50
1, 265439, Note_on_c, 9, 36, 0
1, 265439, Note_on_c, 9, 42, 0
1, 265440, Note_on_c, 9, 38, 106
1, 265440, Note_on_c, 9, 42, 106
1, 265440, Note_on_c, 9, 36, 106
1, 265559, Note_on_c, 9, 38, 0
1, 265559, Note_on_c, 9, 42, 0
1, 265560, Note_on_c, 9, 42, 50
1, 265679, Note_on_c, 9, 42, 0
1, 265680, Note_on_c, 9, 42, 106
1, 265799, Note_on_c, 9, 42, 0
1, 265800, Note_on_c, 9, 42, 106
1, 265919, Note_on_c, 9, 36, 0
1, 265919, Note_on_c, 9, 42, 0
1, 265920, Note_on_c, 9, 46, 106
1, 265920, Note_on_c, 9, 36, 106
1, 266039, Note_on_c, 9, 46, 0
1, 266040, Note_on_c, 9, 42, 106
1, 266159, Note_on_c, 9, 42, 0
1, 266160, Note_on_c, 9, 42, 50
1, 266279, Note_on_c, 9, 42, 0
1, 266280, Note_on_c, 9, 42, 106
1, 266399, Note_on_c, 9, 36, 0
1, 266399, Note_on_c, 9, 42, 0
1, 266400, Note_on_c, 9, 38, 106
1, 266400, Note_on_c, 9, 42, 106
1, 266400, Note_on_c, 9, 36, 106
1, 266519, Note_on_c, 9, 38, 0
1, 266519, Note_on_c, 9, 42, 0
1, 266520, Note_on_c, 9, 42, 50
1, 266639, Note_on_c, 9, 42, 0
1, 266640, Note_on_c, 9, 42, 106
1, 266759, Note_on_c, 9, 42, 0
1, 266760, Note_on_c, 9, 42, 106
1, 266879, Note_on_c, 9, 36, 0
1, 266879, Note_on_c, 9, 42, 0
1, 266880, Note_on_c, 9, 46, 106
1, 266880, Note_on_c, 9, 36, 106
1, 266999, Note_on_c, 9, 46, 0
1, 267000, Note_on_c, 9, 42, 106
1, 267119, Note_on_c, 9, 42, 0
1, 267120, Note_on_c, 9, 42, 106
1, 267239, Note_on_c, 9, 42, 0
1, 267240, Note_on_c, 9, 42, 50
1, 267359, Note_on_c, 9, 36, 0
1, 267359, Note_on_c, 9, 42, 0
1, 267360, Note_on_c, 9, 38, 106
1, 267360, Note_on_c, 9, 42, 106
1, 267360, Note_on_c, 9, 36, 106
1, 267479, Note_on_c, 9, 38, 0
1, 267479, Note_on_c, 9, 42, 0
1, 267480, Note_on_c, 9, 42, 50
1, 267599, Note_on_c, 9, 42, 0
1, 267600, Note_on_c, 9, 42, 106
1, 267719, Note_on_c, 9, 42, 0
1, 267720, Note_on_c, 9, 42, 106
1, 267839, Note_on_c, 9, 36, 0
1, 267839, Note_on_c, 9, 42, 0
1, 267840, Note_on_c, 9, 46, 106
1, 267840, Note_on_c, 9, 36, 106
1, 267959, Note_on_c, 9, 46, 0
1, 267960, Note_on_c, 9, 42, 106
1, 268079, Note_on_c, 9, 42, 0
1, 268080, Note_on_c, 9, 42, 50
1, 268199, Note_on_c, 9, 42, 0
1, 268200, Note_on_c, 9, 42, 106
1, 268319, Note_on_c, 9, 36, 0
1, 268319, Note_on_c, 9, 42, 0
1, 268320, Note_on_c, 9, 38, 106
1, 268320, Note_on_c, 9, 42, 106
1, 268320, Note_on_c, 9, 36, 106
1, 268439, Note_on_c, 9, 38, 0
1, 268439, Note_on_c, 9, 42, 0
1, 268440, Note_on_c, 9, 42, 50
1, 268559, Note_on_c, 9, 42, 0
1, 268560, Note_on_c, 9, 41, 92
1, 268560, Note_on_c, 9, 42, 106
1, 268679, Note_on_c, 9, 41, 0
1, 268679, Note_on_c, 9, 42, 0
1, 268680, Note_on_c, 9, 42, 106
1, 268799, Note_on_c, 9, 36, 0
1, 268799, Note_on_c, 9, 42, 0
1, 268800, Note_on_c, 9, 46, 106
1, 268800, Note_on_c, 9, 36, 106
1, 268919, Note_on_c, 9, 46, 0
1, 268920, Note_on_c, 9, 42, 106
1, 269039, Note_on_c, 9, 42, 0
1, 269040, Note_on_c, 9, 42, 106
1, 269159, Note_on_c, 9, 42, 0
1, 269160, Note_on_c, 9, 42, 50
1, 269279, Note_on_c, 9, 36, 0
1, 269279, Note_on_c, 9, 42, 0
1, 269280, Note_on_c, 9, 38, 106
1, 269280, Note_on_c, 9, 42, 106
1, 269280, Note_on_c, 9, 36, 106
1, 269399, Note_on_c, 9, 38, 0
1, 269399, Note_on_c, 9, 42, 0
1, 269400, Note_on_c, 9, 42, 50
1, 269519, Note_on_c, 9, 42, 0
1, 269520, Note_on_c, 9, 42, 106
1, 269639, Note_on_c, 9, 42, 0
1, 269640, Note_on_c, 9, 42, 106
1, 269759, Note_on_c, 9, 36, 0
1, 269759, Note_on_c, 9, 42, 0
1, 269760, Note_on_c, 9, 46, 106
1, 269760, Note_on_c, 9, 36, 106
1, 269879, Note_on_c, 9, 46, 0
1, 269880, Note_on_c, 9, 42, 106
1, 269999, Note_on_c, 9, 42, 0
1, 270000, Note_on_c, 9, 42, 50
1, 270119, Note_on_c, 9, 42, 0
1, 270120, Note_on_c, 9, 42, 106
1, 270239, Note_on_c, 9, 36, 0
1, 270239, Note_on_c, 9, 42, 0
1, 270240, Note_on_c, 9, 38, 106
1, 270240, Note_on_c, 9, 42, 106
1, 270240, Note_on_c, 9, 36, 106
1, 270359, Note_on_c, 9, 38, 0
1, 270359, Note_on_c, 9, 42, 0
1, 270360, Note_on_c, 9, 42, 50
1, 270479, Note_on_c, 9, 42, 0
1, 270480, Note_on_c, 9, 42, 106
1, 270599, Note_on_c, 9, 42, 0
1, 270600, Note_on_c, 9, 42, 106
1, 270719, Note_on_c, 9, 36, 0
1, 270719, Note_on_c, 9, 42, 0
1, 270720, Note_on_c, 9, 46, 106
1, 270720, Note_on_c, 9, 36, 106
1, 270839, Note_on_c, 9, 46, 0
1, 270840, Note_on_c, 9, 42, 106
1, 270959, Note_on_c, 9, 42, 0
1, 270960, Note_on_c, 9, 42, 106
1, 271079, Note_on_c, 9, 42, 0
1, 271080, Note_on_c, 9, 42, 50
1, 271199, Note_on_c, 9, 36, 0
1, 271199, Note_on_c, 9, 42, 0
1, 271200, Note_on_c, 9, 38, 106
1, 271200, Note_on_c, 9, 42, 106
1, 271200, Note_on_c, 9, 36, 106
1, 271319, Note_on_c, 9, 38, 0
1, 271319, Note_on_c, 9, 42, 0
1, 271320, Note_on_c, 9, 42, 50
1, 271439, Note_on_c, 9, 42, 0
1, 271440, Note_on_c, 9, 42, 106
1, 271559, Note_on_c, 9, 42, 0
1, 271560, Note_on_c, 9, 42, 106
1, 271679, Note_on_c, 9, 36, 0
1, 271679, Note_on_c, 9, 42, 0
1, 271680, Note_on_c, 9, 46, 106
1, 271680, Note_on_c, 9, 36, 106
1, 271799, Note_on_c, 9, 46, 0
1, 271800, Note_on_c, 9, 42, 106
1, 271919, Note_on_c, 9, 42, 0
1, 271920, Note_on_c, 9, 42, 50
1, 272039, Note_on_c, 9, 42, 0
1, 272040, Note_on_c, 9, 42, 106
1, 272159, Note_on_c, 9, 36, 0
1, 272159, Note_on_c, 9, 42, 0
1, 272160, Note_on_c, 9, 38, 106
1, 272160, Note_on_c, 9, 42, 106
1, 272160, Note_on_c, 9, 36, 106
1, 272279, Note_on_c, 9, 38, 0
1, 272279, Note_on_c, 9, 42, 0
1, 272280, Note_on_c, 9, 42, 50
1, 272399, Note_on_c, 9, 42, 0
1, 272400, Note_on_c, 9, 41, 92
1, 272400, Note_on_c, 9, 42, 106
1, 272519, Note_on_c, 9, 41, 0
1, 272519, Note_on_c, 9, 42, 0
1, 272520, Note_on_c, 9, 42, 106
1, 272639, Note_on_c, 9, 36, 0
1, 272639, Note_on_c, 9, 42, 0
1, 272640, Note_on_c, 9, 46, 106
1, 272640, Note_on_c, 9, 36, 106
1, 272759, Note_on_c, 9, 46, 0
1, 272760, Note_on_c, 9, 42, 106
1, 272879, Note_on_c, 9, 42, 0
1, 272880, Note_on_c, 9, 42, 106
1, 272999, Note_on_c, 9, 42, 0
1, 273000, Note_on_c, 9, 42, 50
1, 273119, Note_on_c, 9, 36, 0
1, 273119, Note_on_c, 9, 42, 0
1, 273120, Note_on_c, 9, 38, 106
1, 273120, Note_on_c, 9, 42, 106
1, 273120, Note_on_c, 9, 36, 106
1, 273239, Note_on_c, 9, 38, 0
1, 273239, Note_on_c, 9, 42, 0
1, 273240, Note_on_c, 9, 42, 50
1, 273359, Note_on_c, 9, 42, 0
1, 273360, Note_on_c, 9, 42, 106
1, 273479, Note_on_c, 9, 42, 0
1, 273480, Note_on_c, 9, 42, 106
1, 273599, Note_on_c, 9, 36, 0
1, 273599, Note_on_c, 9, 42, 0
1, 273600, Note_on_c, 9, 46, 106
1, 273600, Note_on_c, 9, 36, 106
1, 273719, Note_on_c, 9, 46, 0
1, 273720, Note_on_c, 9, 42, 106
1, 273839, Note_on_c, 9, 42, 0
1, 273840, Note_on_c, 9, 42, 50
1, 273959, Note_on_c, 9, 42, 0
1, 273960, Note_on_c, 9, 42, 106
1, 274079, Note_on_c, 9, 36, 0
1, 274079, Note_on_c, 9, 42, 0
1, 274080, Note_on_c, 9, 38, 106
1, 274080, Note_on_c, 9, 42, 106
1, 274199, Note_on_c, 9, 38, 0
1, 274199, Note_on_c, 9, 42, 0
1, 274200, Note_on_c, 9, 42, 50
1, 274319, Note_on_c, 9, 42, 0
1, 274320, Note_on_c, 9, 38, 106
1, 274320, Note_on_c, 9, 42, 106
1, 274439, Note_on_c, 9, 38, 0
1, 274439, Note_on_c, 9, 42, 0
1, 274440, Note_on_c, 9, 38, 106
1, 274440, Note_on_c, 9, 46, 106
1, 274559, Note_on_c, 9, 38, 0
1, 274559, Note_on_c, 9, 46, 0
1, 274560, Note_on_c, 9, 38, 106
1, 274560, Note_on_c, 9, 36, 106
1, 274679, Note_on_c, 9, 38, 0
1, 274680, Note_on_c, 9, 42, 64
1, 274799, Note_on_c, 9, 36, 0
1, 274799, Note_on_c, 9, 42, 0
1, 274800, Note_on_c, 9, 41, 92
1, 274800, Note_on_c, 9, 46, 106
1, 274800, Note_on_c, 9, 51, 106
1, 274800, Note_on_c, 9, 36, 106
1, 275039, Note_on_c, 9, 41, 0
1, 275039, Note_on_c, 9, 46, 0
1, 275039, Note_on_c, 9, 51, 0
1, 275039, Note_on_c, 9, 36, 0
1, 275040, Note_on_c, 9, 42, 64
1, 275279, Note_on_c, 9, 42, 0
1, 275280, Note_on_c, 9, 41, 92
1, 275280, Note_on_c, 9, 46, 106
1, 275280, Note_on_c, 9, 51, 106
1, 275280, Note_on_c, 9, 36, 106
1, 275519, Note_on_c, 9, 41, 0
1, 275519, Note_on_c, 9, 46, 0
1, 275519, Note_on_c, 9, 51, 0
1, 275519, Note_on_c, 9, 36, 0
1, 275520, Note_on_c, 9, 42, 64
1, 275759, Note_on_c, 9, 42, 0
1, 275760, Note_on_c, 9, 41, 92
1, 275760, Note_on_c, 9, 46, 106
1, 275760, Note_on_c, 9, 51, 106
1, 275760, Note_on_c, 9, 36, 106
1, 275999, Note_on_c, 9, 41, 0
1, 275999, Note_on_c, 9, 46, 0
1, 275999, Note_on_c, 9, 51, 0
1, 275999, Note_on_c, 9, 36, 0
1, 276000, Note_on_c, 9, 42, 64
1, 276239, Note_on_c, 9, 42, 0
1, 276240, Note_on_c, 9, 41, 92
1, 276240, Note_on_c, 9, 46, 106
1, 276240, Note_on_c, 9, 51, 106
1, 276240, Note_on_c, 9, 36, 106
1, 276479, Note_on_c, 9, 41, 0
1, 276479, Note_on_c, 9, 46, 0
1, 276479, Note_on_c, 9, 51, 0
1, 276479, Note_on_c, 9, 36, 0
1, 276480, Note_on_c, 9, 49, 106
1, 276480, Note_on_c, 9, 36, 106
1, 276599, Note_on_c, 9, 49, 0
1, 276600, Note_on_c, 9, 42, 106
1, 276719, Note_on_c, 9, 42, 0
1, 276720, Note_on_c, 9, 42, 106
1, 276839, Note_on_c, 9, 42, 0
1, 276840, Note_on_c, 9, 42, 50
1, 276959, Note_on_c, 9, 36, 0
1, 276959, Note_on_c, 9, 42, 0
1, 276960, Note_on_c, 9, 38, 106
1, 276960, Note_on_c, 9, 42, 106
1, 276960, Note_on_c, 9, 36, 106
1, 277079, Note_on_c, 9, 38, 0
1, 277079, Note_on_c, 9, 42, 0
1, 277080, Note_on_c, 9, 42, 50
1, 277199, Note_on_c, 9, 42, 0
1, 277200, Note_on_c, 9, 42, 106
1, 277319, Note_on_c, 9, 42, 0
1, 277320, Note_on_c, 9, 42, 106
1, 277439, Note_on_c, 9, 36, 0
1, 277439, Note_on_c, 9, 42, 0
1, 277440, Note_on_c, 9, 46, 106
1, 277440, Note_on_c, 9, 36, 106
1, 277559, Note_on_c, 9, 46, 0
1, 277560, Note_on_c, 9, 42, 106
1, 277679, Note_on_c, 9, 42, 0
1, 277680, Note_on_c, 9, 42, 50
1, 277799, Note_on_c, 9, 42, 0
1, 277800, Note_on_c, 9, 42, 106
1, 277919, Note_on_c, 9, 36, 0
1, 277919, Note_on_c, 9, 42, 0
1, 277920, Note_on_c, 9, 38, 106
1, 277920, Note_on_c, 9, 42, 106
1, 277920, Note_on_c, 9, 36, 106
1, 278039, Note_on_c, 9, 38, 0
1, 278039, Note_on_c, 9, 42, 0
1, 278040, Note_on_c, 9, 42, 50
1, 278159, Note_on_c, 9, 42, 0
1, 278160, Note_on_c, 9, 42, 106
1, 278279, Note_on_c, 9, 42, 0
1, 278280, Note_on_c, 9, 42, 106
1, 278399, Note_on_c, 9, 36, 0
1, 278399, Note_on_c, 9, 42, 0
1, 278400, Note_on_c, 9, 46, 106
1, 278400, Note_on_c, 9, 36, 106
1, 278519, Note_on_c, 9, 46, 0
1, 278520, Note_on_c, 9, 42, 106
1, 278639, Note_on_c, 9, 42, 0
1, 278640, Note_on_c, 9, 42, 106
1, 278759, Note_on_c, 9, 42, 0
1, 278760, Note_on_c, 9, 42, 50
1, 278879, Note_on_c, 9, 36, 0
1, 278879, Note_on_c, 9, 42, 0
1, 278880, Note_on_c, 9, 38, 106
1, 278880, Note_on_c, 9, 42, 106
1, 278880, Note_on_c, 9, 36, 106
1, 278999, Note_on_c, 9, 38, 0
1, 278999, Note_on_c, 9, 42, 0
1, 279000, Note_on_c, 9, 42, 50
1, 279119, Note_on_c, 9, 42, 0
1, 279120, Note_on_c, 9, 42, 106
1, 279239, Note_on_c, 9, 42, 0
1, 279240, Note_on_c, 9, 42, 106
1, 279359, Note_on_c, 9, 36, 0
1, 279359, Note_on_c, 9, 42, 0
1, 279360, Note_on_c, 9, 46, 106
1, 279360, Note_on_c, 9, 36, 106
1, 279479, Note_on_c, 9, 46, 0
1, 279480, Note_on_c, 9, 42, 106
1, 279599, Note_on_c, 9, 42, 0
1, 279600, Note_on_c, 9, 42, 50
1, 279719, Note_on_c, 9, 42, 0
1, 279720, Note_on_c, 9, 42, 106
1, 279839, Note_on_c, 9, 36, 0
1, 279839, Note_on_c, 9, 42, 0
1, 279840, Note_on_c, 9, 38, 106
1, 279840, Note_on_c, 9, 42, 106
1, 279840, Note_on_c, 9, 36, 106
1, 279959, Note_on_c, 9, 38, 0
1, 279959, Note_on_c, 9, 42, 0
1, 279960, Note_on_c, 9, 42, 50
1, 280079, Note_on_c, 9, 42, 0
1, 280080, Note_on_c, 9, 41, 92
1, 280080, Note_on_c, 9, 42, 106
1, 280199, Note_on_c, 9, 41, 0
1, 280199, Note_on_c, 9, 42, 0
1, 280200, Note_on_c, 9, 42, 106
1, 280319, Note_on_c, 9, 36, 0
1, 280319, Note_on_c, 9, 42, 0
1, 280320, Note_on_c, 9, 46, 106
1, 280320, Note_on_c, 9, 36, 106
1, 280439, Note_on_c, 9, 46, 0
1, 280440, Note_on_c, 9, 42, 106
1, 280559, Note_on_c, 9, 42, 0
1, 280560, Note_on_c, 9, 42, 106
1, 280679, Note_on_c, 9, 42, 0
1, 280680, Note_on_c, 9, 42, 50
1, 280799, Note_on_c, 9, 36, 0
1, 280799, Note_on_c, 9, 42, 0
1, 280800, Note_on_c, 9, 38, 106
1, 280800, Note_on_c, 9, 42, 106
1, 280800, Note_on_c, 9, 36, 106
1, 280919, Note_on_c, 9, 38, 0
1, 280919, Note_on_c, 9, 42, 0
1, 280920, Note_on_c, 9, 42, 50
1, 281039, Note_on_c, 9, 42, 0
1, 281040, Note_on_c, 9, 42, 106
1, 281159, Note_on_c, 9, 42, 0
1, 281160, Note_on_c, 9, 42, 106
1, 281279, Note_on_c, 9, 36, 0
1, 281279, Note_on_c, 9, 42, 0
1, 281280, Note_on_c, 9, 46, 106
1, 281280, Note_on_c, 9, 36, 106
1, 281399, Note_on_c, 9, 46, 0
1, 281400, Note_on_c, 9, 42, 106
1, 281519, Note_on_c, 9, 42, 0
1, 281520, Note_on_c, 9, 42, 50
1, 281639, Note_on_c, 9, 42, 0
1, 281640, Note_on_c, 9, 42, 106
1, 281759, Note_on_c, 9, 36, 0
1, 281759, Note_on_c, 9, 42, 0
1, 281760, Note_on_c, 9, 38, 106
1, 281760, Note_on_c, 9, 42, 106
1, 281760, Note_on_c, 9, 36, 106
1, 281879, Note_on_c, 9, 38, 0
1, 281879, Note_on_c, 9, 42, 0
1, 281880, Note_on_c, 9, 42, 50
1, 281999, Note_on_c, 9, 42, 0
1, 282000, Note_on_c, 9, 42, 106
1, 282119, Note_on_c, 9, 42, 0
1, 282120, Note_on_c, 9, 42, 106
1, 282239, Note_on_c, 9, 36, 0
1, 282239, Note_on_c, 9, 42, 0
1, 282240, Note_on_c, 9, 46, 106
1, 282240, Note_on_c, 9, 36, 106
1, 282359, Note_on_c, 9, 46, 0
1, 282360, Note_on_c, 9, 42, 106
1, 282479, Note_on_c, 9, 42, 0
1, 282480, Note_on_c, 9, 42, 106
1, 282599, Note_on_c, 9, 42, 0
1, 282600, Note_on_c, 9, 42, 50
1, 282719, Note_on_c, 9, 36, 0
1, 282719, Note_on_c, 9, 42, 0
1, 282720, Note_on_c, 9, 38, 106
1, 282720, Note_on_c, 9, 42, 106
1, 282720, Note_on_c, 9, 36, 106
1, 282839, Note_on_c, 9, 38, 0
1, 282839, Note_on_c, 9, 42, 0
1, 282840, Note_on_c, 9, 42, 50
1, 282959, Note_on_c, 9, 42, 0
1, 282960, Note_on_c, 9, 42, 106
1, 283079, Note_on_c, 9, 42, 0
1, 283080, Note_on_c, 9, 42, 106
1, 283199, Note_on_c, 9, 36, 0
1, 283199, Note_on_c, 9, 42, 0
1, 283200, Note_on_c, 9, 46, 106
1, 283200, Note_on_c, 9, 36, 106
1, 283319, Note_on_c, 9, 46, 0
1, 283320, Note_on_c, 9, 42, 106
1, 283439, Note_on_c, 9, 42, 0
1, 283440, Note_on_c, 9, 42, 50
1, 283559, Note_on_c, 9, 42, 0
1, 283560, Note_on_c, 9, 42, 106
1, 283679, Note_on_c, 9, 36, 0
1, 283679, Note_on_c, 9, 42, 0
1, 283680, Note_on_c, 9, 38, 106
1, 283680, Note_on_c, 9, 42, 106
1, 283680, Note_on_c, 9, 36, 106
1, 283799, Note_on_c, 9, 38, 0
1, 283799, Note_on_c, 9, 42, 0
1, 283800, Note_on_c, 9, 42, 50
1, 283919, Note_on_c, 9, 42, 0
1, 283920, Note_on_c, 9, 41, 92
1, 283920, Note_on_c, 9, 42, 106
1, 284039, Note_on_c, 9, 41, 0
1, 284039, Note_on_c, 9, 42, 0
1, 284040, Note_on_c, 9, 42, 106
1, 284159, Note_on_c, 9, 36, 0
1, 284159, Note_on_c, 9, 42, 0
1, 284160, Note_on_c, 9, 46, 106
1, 284160, Note_on_c, 9, 36, 106
1, 284279, Note_on_c, 9, 46, 0
1, 284280, Note_on_c, 9, 42, 106
1, 284399, Note_on_c, 9, 42, 0
1, 284400, Note_on_c, 9, 42, 106
1, 284519, Note_on_c, 9, 42, 0
1, 284520, Note_on_c, 9, 42, 50
1, 284639, Note_on_c, 9, 36, 0
1, 284639, Note_on_c, 9, 42, 0
1, 284640, Note_on_c, 9, 38, 106
1, 284640, Note_on_c, 9, 42, 106
1, 284640, Note_on_c, 9, 36, 106
1, 284759, Note_on_c, 9, 38, 0
1, 284759, Note_on_c, 9, 42, 0
1, 284760, Note_on_c, 9, 42, 50
1, 284879, Note_on_c, 9, 42, 0
1, 284880, Note_on_c, 9, 42, 106
1, 284999, Note_on_c, 9, 42, 0
1, 285000, Note_on_c, 9, 42, 106
1, 285119, Note_on_c, 9, 36, 0
1, 285119, Note_on_c, 9, 42, 0
1, 285120, Note_on_c, 9, 46, 106
1, 285120, Note_on_c, 9, 36, 106
1, 285239, Note_on_c, 9, 46, 0
1, 285240, Note_on_c, 9, 42, 106
1, 285359, Note_on_c, 9, 42, 0
1, 285360, Note_on_c, 9, 42, 50
1, 285479, Note_on_c, 9, 42, 0
1, 285480, Note_on_c, 9, 42, 106
1, 285599, Note_on_c, 9, 36, 0
1, 285599, Note_on_c, 9, 42, 0
1, 285600, Note_on_c, 9, 38, 106
1, 285600, Note_on_c, 9, 42, 106
1, 285600, Note_on_c, 9, 36, 106
1, 285719, Note_on_c, 9, 38, 0
1, 285719, Note_on_c, 9, 42, 0
1, 285720, Note_on_c, 9, 42, 50
1, 285839, Note_on_c, 9, 42, 0
1, 285840, Note_on_c, 9, 42, 106
1, 285959, Note_on_c, 9, 42, 0
1, 285960, Note_on_c, 9, 42, 106
1, 286079, Note_on_c, 9, 36, 0
1, 286079, Note_on_c, 9, 42, 0
1, 286080, Note_on_c, 9, 46, 106
1, 286080, Note_on_c, 9, 36, 106
1, 286199, Note_on_c, 9, 46, 0
1, 286200, Note_on_c, 9, 42, 106
1, 286319, Note_on_c, 9, 42, 0
1, 286320, Note_on_c, 9, 42, 106
1, 286439, Note_on_c, 9, 42, 0
1, 286440, Note_on_c, 9, 42, 50
1, 286559, Note_on_c, 9, 36, 0
1, 286559, Note_on_c, 9, 42, 0
1, 286560, Note_on_c, 9, 38, 106
1, 286560, Note_on_c, 9, 42, 106
1, 286560, Note_on_c, 9, 36, 106
1, 286679, Note_on_c, 9, 38, 0
1, 286679, Note_on_c, 9, 42, 0
1, 286680, Note_on_c, 9, 42, 50
1, 286799, Note_on_c, 9, 42, 0
1, 286800, Note_on_c, 9, 42, 106
1, 286919, Note_on_c, 9, 42, 0
1, 286920, Note_on_c, 9, 42, 106
1, 287039, Note_on_c, 9, 36, 0
1, 287039, Note_on_c, 9, 42, 0
1, 287040, Note_on_c, 9, 46, 106
1, 287040, Note_on_c, 9, 36, 106
1, 287159, Note_on_c, 9, 46, 0
1, 287160, Note_on_c, 9, 42, 106
1, 287279, Note_on_c, 9, 42, 0
1, 287280, Note_on_c, 9, 42, 50
1, 287399, Note_on_c, 9, 42, 0
1, 287400, Note_on_c, 9, 42, 106
1, 287519, Note_on_c, 9, 36, 0
1, 287519, Note_on_c, 9, 42, 0
1, 287520, Note_on_c, 9, 38, 106
1, 287520, Note_on_c, 9, 42, 106
1, 287520, Note_on_c, 9, 36, 106
1, 287639, Note_on_c, 9, 38, 0
1, 287639, Note_on_c, 9, 42, 0
1, 287640, Note_on_c, 9, 42, 50
1, 287759, Note_on_c, 9, 42, 0
1, 287760, Note_on_c, 9, 41, 92
1, 287760, Note_on_c, 9, 42, 106
1, 287879, Note_on_c, 9, 41, 0
1, 287879, Note_on_c, 9, 42, 0
1, 287880, Note_on_c, 9, 42, 106
1, 287999, Note_on_c, 9, 36, 0
1, 287999, Note_on_c, 9, 42, 0
1, 288000, Note_on_c, 9, 46, 106
1, 288000, Note_on_c, 9, 36, 106
1, 288119, Note_on_c, 9, 46, 0
1, 288120, Note_on_c, 9, 42, 106
1, 288239, Note_on_c, 9, 42, 0
1, 288240, Note_on_c, 9, 42, 106
1, 288359, Note_on_c, 9, 42, 0
1, 288360, Note_on_c, 9, 42, 50
1, 288479, Note_on_c, 9, 36, 0
1, 288479, Note_on_c, 9, 42, 0
1, 288480, Note_on_c, 9, 38, 106
1, 288480, Note_on_c, 9, 42, 106
1, 288480, Note_on_c, 9, 36, 106
1, 288599, Note_on_c, 9, 38, 0
1, 288599, Note_on_c, 9, 42, 0
1, 288600, Note_on_c, 9, 42, 50
1, 288719, Note_on_c, 9, 42, 0
1, 288720, Note_on_c, 9, 42, 106
1, 288839, Note_on_c, 9, 42, 0
1, 288840, Note_on_c, 9, 42, 106
1, 288959, Note_on_c, 9, 36, 0
1, 288959, Note_on_c, 9, 42, 0
1, 288960, Note_on_c, 9, 46, 106
1, 288960, Note_on_c, 9, 36, 106
1, 289079, Note_on_c, 9, 46, 0
1, 289080, Note_on_c, 9, 42, 106
1, 289199, Note_on_c, 9, 42, 0
1, 289200, Note_on_c, 9, 42, 50
1, 289319, Note_on_c, 9, 42, 0
1, 289320, Note_on_c, 9, 42, 106
1, 289439, Note_on_c, 9, 36, 0
1, 289439, Note_on_c, 9, 42, 0
1, 289440, Note_on_c, 9, 38, 106
1, 289440, Note_on_c, 9, 42, 106
1, 289440, Note_on_c, 9, 36, 106
1, 289559, Note_on_c, 9, 38, 0
1, 289559, Note_on_c, 9, 42, 0
1, 289560, Note_on_c, 9, 42, 50
1, 289679, Note_on_c, 9, 42, 0
1, 289680, Note_on_c, 9, 42, 106
1, 289799, Note_on_c, 9, 42, 0
1, 289800, Note_on_c, 9, 42, 106
1, 289919, Note_on_c, 9, 36, 0
1, 289919, Note_on_c, 9, 42, 0
1, 289920, Note_on_c, 9, 46, 106
1, 289920, Note_on_c, 9, 36, 106
1, 290039, Note_on_c, 9, 46, 0
1, 290040, Note_on_c, 9, 42, 106
1, 290159, Note_on_c, 9, 42, 0
1, 290160, Note_on_c, 9, 42, 106
1, 290279, Note_on_c, 9, 42, 0
1, 290280, Note_on_c, 9, 42, 50
1, 290399, Note_on_c, 9, 36, 0
1, 290399, Note_on_c, 9, 42, 0
1, 290400, Note_on_c, 9, 38, 106
1, 290400, Note_on_c, 9, 42, 106
1, 290400, Note_on_c, 9, 36, 106
1, 290519, Note_on_c, 9, 38, 0
1, 290519, Note_on_c, 9, 42, 0
1, 290520, Note_on_c, 9, 42, 50
1, 290639, Note_on_c, 9, 42, 0
1, 290640, Note_on_c, 9, 42, 106
1, 290759, Note_on_c, 9, 42, 0
1, 290760, Note_on_c, 9, 42, 106
1, 290879, Note_on_c, 9, 36, 0
1, 290879, Note_on_c, 9, 42, 0
1, 290880, Note_on_c, 9, 46, 106
1, 290880, Note_on_c, 9, 36, 106
1, 290999, Note_on_c, 9, 46, 0
1, 291000, Note_on_c, 9, 42, 106
1, 291119, Note_on_c, 9, 42, 0
1, 291120, Note_on_c, 9, 42, 50
1, 291239, Note_on_c, 9, 42, 0
1, 291240, Note_on_c, 9, 42, 106
1, 291359, Note_on_c, 9, 36, 0
1, 291359, Note_on_c, 9, 42, 0
1, 291360, Note_on_c, 9, 38, 106
1, 291360, Note_on_c, 9, 42, 106
1, 291360, Note_on_c, 9, 36, 106
1, 291479, Note_on_c, 9, 38, 0
1, 291479, Note_on_c, 9, 42, 0
1, 291480, Note_on_c, 9, 42, 50
1, 291599, Note_on_c, 9, 42, 0
1, 291600, Note_on_c, 9, 41, 92
1, 291600, Note_on_c, 9, 42, 106
1, 291719, Note_on_c, 9, 41, 0
1, 291719, Note_on_c, 9, 42, 0
1, 291720, Note_on_c, 9, 42, 106
1, 291839, Note_on_c, 9, 36, 0
1, 291839, Note_on_c, 9, 42, 0
1, 291840, Note_on_c, 9, 46, 106
1, 291840, Note_on_c, 9, 36, 106
1, 291959, Note_on_c, 9, 46, 0
1, 291960, Note_on_c, 9, 42, 106
1, 292079, Note_on_c, 9, 42, 0
1, 292080, Note_on_c, 9, 42, 106
1, 292199, Note_on_c, 9, 42, 0
1, 292200, Note_on_c, 9, 42, 50
1, 292319, Note_on_c, 9, 36, 0
1, 292319, Note_on_c, 9, 42, 0
1, 292320, Note_on_c, 9, 38, 106
1, 292320, Note_on_c, 9, 42, 106
1, 292320, Note_on_c, 9, 36, 106
1, 292439, Note_on_c, 9, 38, 0
1, 292439, Note_on_c, 9, 42, 0
1, 292440, Note_on_c, 9, 42, 50
1, 292559, Note_on_c, 9, 42, 0
1, 292560, Note_on_c, 9, 42, 106
1, 292679, Note_on_c, 9, 42, 0
1, 292680, Note_on_c, 9, 42, 106
1, 292799, Note_on_c, 9, 36, 0
1, 292799, Note_on_c, 9, 42, 0
1, 292800, Note_on_c, 9, 46, 106
1, 292800, Note_on_c, 9, 36, 106
1, 292919, Note_on_c, 9, 46, 0
1, 292920, Note_on_c, 9, 42, 106
1, 293039, Note_on_c, 9, 42, 0
1, 293040, Note_on_c, 9, 42, 50
1, 293159, Note_on_c, 9, 42, 0
1, 293160, Note_on_c, 9, 42, 106
1, 293279, Note_on_c, 9, 36, 0
1, 293279, Note_on_c, 9, 42, 0
1, 293280, Note_on_c, 9, 38, 106
1, 293280, Note_on_c, 9, 42, 106
1, 293280, Note_on_c, 9, 36, 106
1, 293399, Note_on_c, 9, 38, 0
1, 293399, Note_on_c, 9, 42, 0
1, 293400, Note_on_c, 9, 42, 50
1, 293519, Note_on_c, 9, 42, 0
1, 293520, Note_on_c, 9, 42, 106
1, 293639, Note_on_c, 9, 42, 0
1, 293640, Note_on_c, 9, 42, 106
1, 293759, Note_on_c, 9, 36, 0
1, 293759, Note_on_c, 9, 42, 0
1, 293760, Note_on_c, 9, 46, 106
1, 293760, Note_on_c, 9, 36, 106
1, 293879, Note_on_c, 9, 46, 0
1, 293880, Note_on_c, 9, 42, 106
1, 293999, Note_on_c, 9, 42, 0
1, 294000, Note_on_c, 9, 42, 106
1, 294119, Note_on_c, 9, 42, 0
1, 294120, Note_on_c, 9, 42, 50
1, 294239, Note_on_c, 9, 36, 0
1, 294239, Note_on_c, 9, 42, 0
1, 294240, Note_on_c, 9, 38, 106
1, 294240, Note_on_c, 9, 42, 106
1, 294240, Note_on_c, 9, 36, 106
1, 294359, Note_on_c, 9, 38, 0
1, 294359, Note_on_c, 9, 42, 0
1, 294360, Note_on_c, 9, 42, 50
1, 294479, Note_on_c, 9, 42, 0
1, 294480, Note_on_c, 9, 42, 106
1, 294599, Note_on_c, 9, 42, 0
1, 294600, Note_on_c, 9, 42, 106
1, 294719, Note_on_c, 9, 36, 0
1, 294719, Note_on_c, 9, 42, 0
1, 294720, Note_on_c, 9, 46, 106
1, 294720, Note_on_c, 9, 36, 106
1, 294839, Note_on_c, 9, 46, 0
1, 294840, Note_on_c, 9, 42, 106
1, 294959, Note_on_c, 9, 42, 0
1, 294960, Note_on_c, 9, 42, 50
1, 295079, Note_on_c, 9, 42, 0
1, 295080, Note_on_c, 9, 42, 106
1, 295199, Note_on_c, 9, 36, 0
1, 295199, Note_on_c, 9, 42, 0
1, 295200, Note_on_c, 9, 38, 106
1, 295200, Note_on_c, 9, 42, 106
1, 295200, Note_on_c, 9, 36, 106
1, 295319, Note_on_c, 9, 38, 0
1, 295319, Note_on_c, 9, 42, 0
1, 295320, Note_on_c, 9, 42, 50
1, 295439, Note_on_c, 9, 42, 0
1, 295440, Note_on_c, 9, 41, 92
1, 295440, Note_on_c, 9, 42, 106
1, 295559, Note_on_c, 9, 41, 0
1, 295559, Note_on_c, 9, 42, 0
1, 295560, Note_on_c, 9, 42, 106
1, 295679, Note_on_c, 9, 36, 0
1, 295679, Note_on_c, 9, 42, 0
1, 295680, Note_on_c, 9, 46, 106
1, 295680, Note_on_c, 9, 36, 106
1, 295799, Note_on_c, 9, 46, 0
1, 295800, Note_on_c, 9, 42, 106
1, 295919, Note_on_c, 9, 42, 0
1, 295920, Note_on_c, 9, 42, 106
1, 296039, Note_on_c, 9, 42, 0
1, 296040, Note_on_c, 9, 42, 50
1, 296159, Note_on_c, 9, 36, 0
1, 296159, Note_on_c, 9, 42, 0
1, 296160, Note_on_c, 9, 38, 106
1, 296160, Note_on_c, 9, 42, 106
1, 296160, Note_on_c, 9, 36, 106
1, 296279, Note_on_c, 9, 38, 0
1, 296279, Note_on_c, 9, 42, 0
1, 296280, Note_on_c, 9, 42, 50
1, 296399, Note_on_c, 9, 42, 0
1, 296400, Note_on_c, 9, 42, 106
1, 296519, Note_on_c, 9, 42, 0
1, 296520, Note_on_c, 9, 42, 106
1, 296639, Note_on_c, 9, 36, 0
1, 296639, Note_on_c, 9, 42, 0
1, 296640, Note_on_c, 9, 46, 106
1, 296640, Note_on_c, 9, 36, 106
1, 296759, Note_on_c, 9, 46, 0
1, 296760, Note_on_c, 9, 42, 106
1, 296879, Note_on_c, 9, 42, 0
1, 296880, Note_on_c, 9, 42, 50
1, 296999, Note_on_c, 9, 42, 0
1, 297000, Note_on_c, 9, 42, 106
1, 297119, Note_on_c, 9, 36, 0
1, 297119, Note_on_c, 9, 42, 0
1, 297120, Note_on_c, 9, 38, 106
1, 297120, Note_on_c, 9, 42, 106
1, 297239, Note_on_c, 9, 38, 0
1, 297239, Note_on_c, 9, 42, 0
1, 297240, Note_on_c, 9, 42, 50
1, 297359, Note_on_c, 9, 42, 0
1, 297360, Note_on_c, 9, 38, 106
1, 297360, Note_on_c, 9, 42, 106
1, 297479, Note_on_c, 9, 38, 0
1, 297479, Note_on_c, 9, 42, 0
1, 297480, Note_on_c, 9, 38, 106
1, 297480, Note_on_c, 9, 46, 106
1, 297599, Note_on_c, 9, 38, 0
1, 297599, Note_on_c, 9, 46, 0
1, 297600, Note_on_c, 9, 38, 106
1, 297600, Note_on_c, 9, 36, 106
1, 297719, Note_on_c, 9, 38, 0
1, 297720, Note_on_c, 9, 42, 64
1, 297839, Note_on_c, 9, 36, 0
1, 297839, Note_on_c, 9, 42, 0
1, 297840, Note_on_c, 9, 41, 92
1, 297840, Note_on_c, 9, 46, 106
1, 297840, Note_on_c, 9, 51, 106
1, 297840, Note_on_c, 9, 36, 106
1, 298079, Note_on_c, 9, 41, 0
1, 298079, Note_on_c, 9, 46, 0
1, 298079, Note_on_c, 9, 51, 0
1, 298079, Note_on_c, 9, 36, 0
1, 298080, Note_on_c, 9, 42, 64
1, 298319, Note_on_c, 9, 42, 0
1, 298320, Note_on_c, 9, 41, 92
1, 298320, Note_on_c, 9, 46, 106
1, 298320, Note_on_c, 9, 51, 106
1, 298320, Note_on_c, 9, 36, 106
1, 298559, Note_on_c, 9, 41, 0
1, 298559, Note_on_c, 9, 46, 0
1, 298559, Note_on_c, 9, 51, 0
1, 298559, Note_on_c, 9, 36, 0
1, 298560, Note_on_c, 9, 42, 64
1, 298799, Note_on_c, 9, 42, 0
1, 298800, Note_on_c, 9, 41, 92
1, 298800, Note_on_c, 9, 46, 106
1, 298800, Note_on_c, 9, 51, 106
1, 298800, Note_on_c, 9, 36, 106
1, 299039, Note_on_c, 9, 41, 0
1, 299039, Note_on_c, 9, 46, 0
1, 299039, Note_on_c, 9, 51, 0
1, 299039, Note_on_c, 9, 36, 0
1, 299040, Note_on_c, 9, 42, 64
1, 299279, Note_on_c, 9, 42, 0
1, 299280, Note_on_c, 9, 41, 92
1, 299280, Note_on_c, 9, 46, 106
1, 299280, Note_on_c, 9, 51, 106
1, 299280, Note_on_c, 9, 36, 106
1, 299519, Note_on_c, 9, 41, 0
1, 299519, Note_on_c, 9, 46, 0
1, 299519, Note_on_c, 9, 51, 0
1, 299519, Note_on_c, 9, 36, 0
1, 299520, End_track
0, 0, End_of_file
