0, 0, Header, 1, 2, 480
1, 0, Start_track
1, 0, Time_signature, 4, 2, 24, 8
1, 0, Key_signature, 5, "major"
1, 0, Tempo, 250000
1, 0, Control_c, 8, 121, 0
1, 0, Program_c, 8, 48
1, 0, Control_c, 8, 7, 100
1, 0, Control_c, 8, 10, 64
1, 0, Control_c, 8, 91, 0
1, 0, Control_c, 8, 93, 0
1, 0, MIDI_port, 0
1, 11520, Note_on_c, 8, 71, 100
1, 11520, Note_on_c, 8, 73, 105
1, 11520, Note_on_c, 8, 76, 110
1, 11999, Note_on_c, 8, 71, 0
1, 11999, Note_on_c, 8, 73, 0
1, 11999, Note_on_c, 8, 76, 0
1, 12000, Note_on_c, 8, 69, 100
1, 12479, Note_on_c, 8, 69, 0
1, 12480, Note_on_c, 8, 71, 105
1, 12480, Note_on_c, 8, 73, 110
1, 12480, Note_on_c, 8, 76, 115
1, 12959, Note_on_c, 8, 71, 0
1, 12959, Note_on_c, 8, 73, 0
1, 12959, Note_on_c, 8, 76, 0
1, 12960, Note_on_c, 8, 69, 100
1, 13439, Note_on_c, 8, 69, 0
1, 13440, Note_on_c, 8, 71, 100
1, 13440, Note_on_c, 8, 76, 110
1, 13919, Note_on_c, 8, 71, 0
1, 13919, Note_on_c, 8, 76, 0
1, 13920, Note_on_c, 8, 69, 100
1, 14399, Note_on_c, 8, 69, 0
1, 14400, Note_on_c, 8, 71, 105
1, 14400, Note_on_c, 8, 76, 115
1, 14879, Note_on_c, 8, 71, 0
1, 14879, Note_on_c, 8, 76, 0
1, 14880, Note_on_c, 8, 69, 100
1, 15359, Note_on_c, 8, 69, 0
1, 15360, Note_on_c, 8, 68, 100
1, 15360, Note_on_c, 8, 69, 105
1, 15360, Note_on_c, 8, 73, 110
1, 15839, Note_on_c, 8, 68, 0
1, 15839, Note_on_c, 8, 69, 0
1, 15839, Note_on_c, 8, 73, 0
1, 15840, Note_on_c, 8, 66, 100
1, 16319, Note_on_c, 8, 66, 0
1, 16320, Note_on_c, 8, 68, 105
1, 16320, Note_on_c, 8, 69, 110
1, 16320, Note_on_c, 8, 73, 115
1, 16799, Note_on_c, 8, 68, 0
1, 16799, Note_on_c, 8, 69, 0
1, 16799, Note_on_c, 8, 73, 0
1, 16800, Note_on_c, 8, 66, 100
1, 17279, Note_on_c, 8, 66, 0
1, 17280, Note_on_c, 8, 68, 100
1, 17280, Note_on_c, 8, 69, 105
1, 17280, Note_on_c, 8, 73, 110
1, 17759, Note_on_c, 8, 68, 0
1, 17759, Note_on_c, 8, 69, 0
1, 17759, Note_on_c, 8, 73, 0
1, 17760, Note_on_c, 8, 66, 100
1, 18239, Note_on_c, 8, 66, 0
1, 18240, Note_on_c, 8, 68, 105
1, 18240, Note_on_c, 8, 69, 110
1, 18240, Note_on_c, 8, 73, 115
1, 18719, Note_on_c, 8, 68, 0
1, 18719, Note_on_c, 8, 69, 0
1, 18719, Note_on_c, 8, 73, 0
1, 18720, Note_on_c, 8, 66, 100
1, 19199, Note_on_c, 8, 66, 0
1, 19200, Note_on_c, 8, 71, 100
1, 19200, Note_on_c, 8, 74, 110
1, 19679, Note_on_c, 8, 71, 0
1, 19679, Note_on_c, 8, 74, 0
1, 19680, Note_on_c, 8, 66, 100
1, 20159, Note_on_c, 8, 66, 0
1, 20160, Note_on_c, 8, 71, 105
1, 20160, Note_on_c, 8, 74, 115
1, 20639, Note_on_c, 8, 71, 0
1, 20639, Note_on_c, 8, 74, 0
1, 20640, Note_on_c, 8, 66, 100
1, 21119, Note_on_c, 8, 66, 0
1, 21120, Note_on_c, 8, 69, 100
1, 21120, Note_on_c, 8, 73, 110
1, 21599, Note_on_c, 8, 69, 0
1, 21599, Note_on_c, 8, 73, 0
1, 21600, Note_on_c, 8, 66, 100
1, 22079, Note_on_c, 8, 66, 0
1, 22080, Note_on_c, 8, 69, 105
1, 22080, Note_on_c, 8, 73, 115
1, 22559, Note_on_c, 8, 69, 0
1, 22559, Note_on_c, 8, 73, 0
1, 22560, Note_on_c, 8, 66, 100
1, 23039, Note_on_c, 8, 66, 0
1, 23040, Note_on_c, 8, 68, 100
1, 23040, Note_on_c, 8, 71, 110
1, 23519, Note_on_c, 8, 68, 0
1, 23519, Note_on_c, 8, 71, 0
1, 23520, Note_on_c, 8, 64, 100
1, 23999, Note_on_c, 8, 64, 0
1, 24000, Note_on_c, 8, 68, 105
1, 24000, Note_on_c, 8, 71, 115
1, 24479, Note_on_c, 8, 68, 0
1, 24479, Note_on_c, 8, 71, 0
1, 24480, Note_on_c, 8, 66, 100
1, 24480, Note_on_c, 8, 69, 110
1, 24959, Note_on_c, 8, 66, 0
1, 24959, Note_on_c, 8, 69, 0
1, 24960, Note_on_c, 8, 64, 105
1, 24960, Note_on_c, 8, 68, 115
1, 26879, Note_on_c, 8, 64, 0
1, 26879, Note_on_c, 8, 68, 0
1, 42240, Note_on_c, 8, 76, 100
1, 42240, Note_on_c, 8, 80, 110
1, 42719, Note_on_c, 8, 76, 0
1, 42719, Note_on_c, 8, 80, 0
1, 42720, Note_on_c, 8, 71, 100
1, 43199, Note_on_c, 8, 71, 0
1, 43200, Note_on_c, 8, 76, 105
1, 43200, Note_on_c, 8, 80, 115
1, 43679, Note_on_c, 8, 76, 0
1, 43679, Note_on_c, 8, 80, 0
1, 43680, Note_on_c, 8, 71, 100
1, 44159, Note_on_c, 8, 71, 0
1, 44160, Note_on_c, 8, 75, 100
1, 44160, Note_on_c, 8, 78, 110
1, 44639, Note_on_c, 8, 75, 0
1, 44639, Note_on_c, 8, 78, 0
1, 44640, Note_on_c, 8, 72, 100
1, 45119, Note_on_c, 8, 72, 0
1, 45120, Note_on_c, 8, 75, 105
1, 45120, Note_on_c, 8, 78, 115
1, 45599, Note_on_c, 8, 75, 0
1, 45599, Note_on_c, 8, 78, 0
1, 45600, Note_on_c, 8, 72, 100
1, 46079, Note_on_c, 8, 72, 0
1, 46080, Note_on_c, 8, 75, 100
1, 46080, Note_on_c, 8, 76, 105
1, 46080, Note_on_c, 8, 80, 110
1, 46559, Note_on_c, 8, 75, 0
1, 46559, Note_on_c, 8, 76, 0
1, 46559, Note_on_c, 8, 80, 0
1, 46560, Note_on_c, 8, 73, 100
1, 47039, Note_on_c, 8, 73, 0
1, 47040, Note_on_c, 8, 75, 105
1, 47040, Note_on_c, 8, 76, 110
1, 47040, Note_on_c, 8, 80, 115
1, 47519, Note_on_c, 8, 75, 0
1, 47519, Note_on_c, 8, 76, 0
1, 47519, Note_on_c, 8, 80, 0
1, 47520, Note_on_c, 8, 73, 100
1, 47999, Note_on_c, 8, 73, 0
1, 48000, Note_on_c, 8, 71, 100
1, 48000, Note_on_c, 8, 73, 105
1, 48000, Note_on_c, 8, 76, 110
1, 48479, Note_on_c, 8, 71, 0
1, 48479, Note_on_c, 8, 73, 0
1, 48479, Note_on_c, 8, 76, 0
1, 48480, Note_on_c, 8, 69, 100
1, 48959, Note_on_c, 8, 69, 0
1, 48960, Note_on_c, 8, 71, 105
1, 48960, Note_on_c, 8, 73, 110
1, 48960, Note_on_c, 8, 76, 115
1, 49439, Note_on_c, 8, 71, 0
1, 49439, Note_on_c, 8, 73, 0
1, 49439, Note_on_c, 8, 76, 0
1, 49440, Note_on_c, 8, 69, 100
1, 49919, Note_on_c, 8, 69, 0
1, 49920, Note_on_c, 8, 76, 100
1, 49920, Note_on_c, 8, 80, 110
1, 50399, Note_on_c, 8, 76, 0
1, 50399, Note_on_c, 8, 80, 0
1, 50400, Note_on_c, 8, 71, 100
1, 50879, Note_on_c, 8, 71, 0
1, 50880, Note_on_c, 8, 76, 105
1, 50880, Note_on_c, 8, 80, 115
1, 51359, Note_on_c, 8, 76, 0
1, 51359, Note_on_c, 8, 80, 0
1, 51360, Note_on_c, 8, 71, 100
1, 51839, Note_on_c, 8, 71, 0
1, 51840, Note_on_c, 8, 75, 100
1, 51840, Note_on_c, 8, 78, 110
1, 52319, Note_on_c, 8, 75, 0
1, 52319, Note_on_c, 8, 78, 0
1, 52320, Note_on_c, 8, 71, 100
1, 52799, Note_on_c, 8, 71, 0
1, 52800, Note_on_c, 8, 75, 105
1, 52800, Note_on_c, 8, 78, 115
1, 53279, Note_on_c, 8, 75, 0
1, 53279, Note_on_c, 8, 78, 0
1, 53280, Note_on_c, 8, 71, 100
1, 53759, Note_on_c, 8, 71, 0
1, 53760, Note_on_c, 8, 76, 105
1, 53760, Note_on_c, 8, 80, 115
1, 55679, Note_on_c, 8, 76, 0
1, 55679, Note_on_c, 8, 80, 0
1, 134400, Note_on_c, 8, 73, 100
1, 134400, Note_on_c, 8, 75, 105
1, 134400, Note_on_c, 8, 78, 110
1, 134879, Note_on_c, 8, 73, 0
1, 134879, Note_on_c, 8, 75, 0
1, 134879, Note_on_c, 8, 78, 0
1, 134880, Note_on_c, 8, 71, 100
1, 135359, Note_on_c, 8, 71, 0
1, 135360, Note_on_c, 8, 73, 105
1, 135360, Note_on_c, 8, 75, 110
1, 135360, Note_on_c, 8, 78, 115
1, 135839, Note_on_c, 8, 73, 0
1, 135839, Note_on_c, 8, 75, 0
1, 135839, Note_on_c, 8, 78, 0
1, 135840, Note_on_c, 8, 71, 100
1, 136319, Note_on_c, 8, 71, 0
1, 136320, Note_on_c, 8, 73, 100
1, 136320, Note_on_c, 8, 78, 110
1, 136799, Note_on_c, 8, 73, 0
1, 136799, Note_on_c, 8, 78, 0
1, 136800, Note_on_c, 8, 71, 100
1, 137279, Note_on_c, 8, 71, 0
1, 137280, Note_on_c, 8, 73, 105
1, 137280, Note_on_c, 8, 78, 115
1, 137759, Note_on_c, 8, 73, 0
1, 137759, Note_on_c, 8, 78, 0
1, 137760, Note_on_c, 8, 71, 100
1, 138239, Note_on_c, 8, 71, 0
1, 138240, Note_on_c, 8, 70, 100
1, 138240, Note_on_c, 8, 71, 105
1, 138240, Note_on_c, 8, 75, 110
1, 138719, Note_on_c, 8, 70, 0
1, 138719, Note_on_c, 8, 71, 0
1, 138719, Note_on_c, 8, 75, 0
1, 138720, Note_on_c, 8, 68, 100
1, 139199, Note_on_c, 8, 68, 0
1, 139200, Note_on_c, 8, 70, 105
1, 139200, Note_on_c, 8, 71, 110
1, 139200, Note_on_c, 8, 75, 115
1, 139679, Note_on_c, 8, 70, 0
1, 139679, Note_on_c, 8, 71, 0
1, 139679, Note_on_c, 8, 75, 0
1, 139680, Note_on_c, 8, 68, 100
1, 140159, Note_on_c, 8, 68, 0
1, 140160, Note_on_c, 8, 70, 100
1, 140160, Note_on_c, 8, 71, 105
1, 140160, Note_on_c, 8, 75, 110
1, 140639, Note_on_c, 8, 70, 0
1, 140639, Note_on_c, 8, 71, 0
1, 140639, Note_on_c, 8, 75, 0
1, 140640, Note_on_c, 8, 68, 100
1, 141119, Note_on_c, 8, 68, 0
1, 141120, Note_on_c, 8, 70, 104
1, 141120, Note_on_c, 8, 71, 110
1, 141120, Note_on_c, 8, 75, 115
1, 141599, Note_on_c, 8, 70, 0
1, 141599, Note_on_c, 8, 71, 0
1, 141599, Note_on_c, 8, 75, 0
1, 141600, Note_on_c, 8, 68, 100
1, 142079, Note_on_c, 8, 68, 0
1, 142080, Note_on_c, 8, 73, 100
1, 142080, Note_on_c, 8, 76, 110
1, 142559, Note_on_c, 8, 73, 0
1, 142559, Note_on_c, 8, 76, 0
1, 142560, Note_on_c, 8, 68, 100
1, 143039, Note_on_c, 8, 68, 0
1, 143040, Note_on_c, 8, 73, 105
1, 143040, Note_on_c, 8, 76, 115
1, 143519, Note_on_c, 8, 73, 0
1, 143519, Note_on_c, 8, 76, 0
1, 143520, Note_on_c, 8, 68, 100
1, 143999, Note_on_c, 8, 68, 0
1, 144000, Note_on_c, 8, 71, 100
1, 144000, Note_on_c, 8, 75, 110
1, 144479, Note_on_c, 8, 71, 0
1, 144479, Note_on_c, 8, 75, 0
1, 144480, Note_on_c, 8, 68, 100
1, 144959, Note_on_c, 8, 68, 0
1, 144960, Note_on_c, 8, 71, 105
1, 144960, Note_on_c, 8, 75, 115
1, 145439, Note_on_c, 8, 71, 0
1, 145439, Note_on_c, 8, 75, 0
1, 145440, Note_on_c, 8, 68, 100
1, 145919, Note_on_c, 8, 68, 0
1, 145920, Note_on_c, 8, 70, 100
1, 145920, Note_on_c, 8, 73, 110
1, 146399, Note_on_c, 8, 70, 0
1, 146399, Note_on_c, 8, 73, 0
1, 146400, Note_on_c, 8, 66, 100
1, 146879, Note_on_c, 8, 66, 0
1, 146880, Note_on_c, 8, 70, 105
1, 146880, Note_on_c, 8, 73, 115
1, 147359, Note_on_c, 8, 70, 0
1, 147359, Note_on_c, 8, 73, 0
1, 147360, Note_on_c, 8, 68, 100
1, 147360, Note_on_c, 8, 71, 110
1, 147839, Note_on_c, 8, 68, 0
1, 147839, Note_on_c, 8, 71, 0
1, 147840, Note_on_c, 8, 66, 105
1, 147840, Note_on_c, 8, 70, 115
1, 149759, Note_on_c, 8, 66, 0
1, 149759, Note_on_c, 8, 70, 0
1, 203520, Note_on_c, 8, 30, 110
1, 203520, Note_on_c, 8, 42, 110
1, 203759, Note_on_c, 8, 30, 0
1, 203759, Note_on_c, 8, 42, 0
1, 203760, Note_on_c, 8, 30, 110
1, 203760, Note_on_c, 8, 42, 110
1, 203999, Note_on_c, 8, 30, 0
1, 203999, Note_on_c, 8, 42, 0
1, 204000, Note_on_c, 8, 30, 110
1, 204000, Note_on_c, 8, 42, 110
1, 204239, Note_on_c, 8, 30, 0
1, 204239, Note_on_c, 8, 42, 0
1, 204240, Note_on_c, 8, 30, 110
1, 204240, Note_on_c, 8, 42, 110
1, 204479, Note_on_c, 8, 30, 0
1, 204479, Note_on_c, 8, 42, 0
1, 204480, Note_on_c, 8, 30, 110
1, 204480, Note_on_c, 8, 42, 110
1, 205439, Note_on_c, 8, 30, 0
1, 205439, Note_on_c, 8, 42, 0
1, 205440, Note_on_c, 8, 38, 110
1, 205440, Note_on_c, 8, 50, 110
1, 205679, Note_on_c, 8, 38, 0
1, 205679, Note_on_c, 8, 50, 0
1, 205680, Note_on_c, 8, 38, 110
1, 205680, Note_on_c, 8, 50, 110
1, 205919, Note_on_c, 8, 38, 0
1, 205919, Note_on_c, 8, 50, 0
1, 205920, Note_on_c, 8, 38, 110
1, 205920, Note_on_c, 8, 50, 110
1, 206159, Note_on_c, 8, 38, 0
1, 206159, Note_on_c, 8, 50, 0
1, 206160, Note_on_c, 8, 38, 110
1, 206160, Note_on_c, 8, 50, 110
1, 206399, Note_on_c, 8, 38, 0
1, 206399, Note_on_c, 8, 50, 0
1, 206400, Note_on_c, 8, 38, 110
1, 206400, Note_on_c, 8, 50, 110
1, 207359, Note_on_c, 8, 38, 0
1, 207359, Note_on_c, 8, 50, 0
1, 207360, Note_on_c, 8, 39, 110
1, 207360, Note_on_c, 8, 51, 110
1, 207599, Note_on_c, 8, 39, 0
1, 207599, Note_on_c, 8, 51, 0
1, 207600, Note_on_c, 8, 39, 110
1, 207600, Note_on_c, 8, 51, 110
1, 207839, Note_on_c, 8, 39, 0
1, 207839, Note_on_c, 8, 51, 0
1, 207840, Note_on_c, 8, 39, 110
1, 207840, Note_on_c, 8, 51, 110
1, 208079, Note_on_c, 8, 39, 0
1, 208079, Note_on_c, 8, 51, 0
1, 208080, Note_on_c, 8, 39, 110
1, 208080, Note_on_c, 8, 51, 110
1, 208319, Note_on_c, 8, 39, 0
1, 208319, Note_on_c, 8, 51, 0
1, 208320, Note_on_c, 8, 39, 110
1, 208320, Note_on_c, 8, 51, 110
1, 209279, Note_on_c, 8, 39, 0
1, 209279, Note_on_c, 8, 51, 0
1, 209280, Note_on_c, 8, 35, 110
1, 209280, Note_on_c, 8, 47, 110
1, 209759, Note_on_c, 8, 35, 0
1, 209759, Note_on_c, 8, 47, 0
1, 209760, Note_on_c, 8, 34, 110
1, 209760, Note_on_c, 8, 46, 110
1, 210239, Note_on_c, 8, 34, 0
1, 210239, Note_on_c, 8, 46, 0
1, 210240, Note_on_c, 8, 35, 110
1, 210240, Note_on_c, 8, 47, 110
1, 210719, Note_on_c, 8, 35, 0
1, 210719, Note_on_c, 8, 47, 0
1, 210720, Note_on_c, 8, 36, 110
1, 210720, Note_on_c, 8, 48, 110
1, 211199, Note_on_c, 8, 36, 0
1, 211199, Note_on_c, 8, 48, 0
1, 211200, Note_on_c, 8, 30, 110
1, 211200, Note_on_c, 8, 42, 110
1, 211439, Note_on_c, 8, 30, 0
1, 211439, Note_on_c, 8, 42, 0
1, 211440, Note_on_c, 8, 30, 110
1, 211440, Note_on_c, 8, 42, 110
1, 211679, Note_on_c, 8, 30, 0
1, 211679, Note_on_c, 8, 42, 0
1, 211680, Note_on_c, 8, 30, 110
1, 211680, Note_on_c, 8, 42, 110
1, 211919, Note_on_c, 8, 30, 0
1, 211919, Note_on_c, 8, 42, 0
1, 211920, Note_on_c, 8, 30, 110
1, 211920, Note_on_c, 8, 42, 110
1, 212159, Note_on_c, 8, 30, 0
1, 212159, Note_on_c, 8, 42, 0
1, 212160, Note_on_c, 8, 30, 110
1, 212160, Note_on_c, 8, 42, 110
1, 213119, Note_on_c, 8, 30, 0
1, 213119, Note_on_c, 8, 42, 0
1, 213120, Note_on_c, 8, 38, 110
1, 213120, Note_on_c, 8, 50, 110
1, 213359, Note_on_c, 8, 38, 0
1, 213359, Note_on_c, 8, 50, 0
1, 213360, Note_on_c, 8, 38, 110
1, 213360, Note_on_c, 8, 50, 110
1, 213599, Note_on_c, 8, 38, 0
1, 213599, Note_on_c, 8, 50, 0
1, 213600, Note_on_c, 8, 38, 110
1, 213600, Note_on_c, 8, 50, 110
1, 213839, Note_on_c, 8, 38, 0
1, 213839, Note_on_c, 8, 50, 0
1, 213840, Note_on_c, 8, 38, 110
1, 213840, Note_on_c, 8, 50, 110
1, 214079, Note_on_c, 8, 38, 0
1, 214079, Note_on_c, 8, 50, 0
1, 214080, Note_on_c, 8, 38, 110
1, 214080, Note_on_c, 8, 50, 110
1, 215039, Note_on_c, 8, 38, 0
1, 215039, Note_on_c, 8, 50, 0
1, 215040, Note_on_c, 8, 39, 110
1, 215040, Note_on_c, 8, 51, 110
1, 215279, Note_on_c, 8, 39, 0
1, 215279, Note_on_c, 8, 51, 0
1, 215280, Note_on_c, 8, 39, 110
1, 215280, Note_on_c, 8, 51, 110
1, 215519, Note_on_c, 8, 39, 0
1, 215519, Note_on_c, 8, 51, 0
1, 215520, Note_on_c, 8, 39, 110
1, 215520, Note_on_c, 8, 51, 110
1, 215759, Note_on_c, 8, 39, 0
1, 215759, Note_on_c, 8, 51, 0
1, 215760, Note_on_c, 8, 39, 110
1, 215760, Note_on_c, 8, 51, 110
1, 215999, Note_on_c, 8, 39, 0
1, 215999, Note_on_c, 8, 51, 0
1, 216000, Note_on_c, 8, 39, 110
1, 216000, Note_on_c, 8, 51, 110
1, 216959, Note_on_c, 8, 39, 0
1, 216959, Note_on_c, 8, 51, 0
1, 216960, Note_on_c, 8, 35, 110
1, 216960, Note_on_c, 8, 47, 110
1, 217439, Note_on_c, 8, 35, 0
1, 217439, Note_on_c, 8, 47, 0
1, 217440, Note_on_c, 8, 34, 110
1, 217440, Note_on_c, 8, 46, 110
1, 217919, Note_on_c, 8, 34, 0
1, 217919, Note_on_c, 8, 46, 0
1, 217920, Note_on_c, 8, 35, 110
1, 217920, Note_on_c, 8, 47, 110
1, 218399, Note_on_c, 8, 35, 0
1, 218399, Note_on_c, 8, 47, 0
1, 218400, Note_on_c, 8, 36, 110
1, 218400, Note_on_c, 8, 48, 110
1, 218879, Note_on_c, 8, 36, 0
1, 218879, Note_on_c, 8, 48, 0
1, 218880, Note_on_c, 8, 30, 110
1, 218880, Note_on_c, 8, 42, 110
1, 219119, Note_on_c, 8, 30, 0
1, 219119, Note_on_c, 8, 42, 0
1, 219120, Note_on_c, 8, 30, 110
1, 219120, Note_on_c, 8, 42, 110
1, 219359, Note_on_c, 8, 30, 0
1, 219359, Note_on_c, 8, 42, 0
1, 219360, Note_on_c, 8, 30, 110
1, 219360, Note_on_c, 8, 42, 110
1, 219599, Note_on_c, 8, 30, 0
1, 219599, Note_on_c, 8, 42, 0
1, 219600, Note_on_c, 8, 30, 110
1, 219600, Note_on_c, 8, 42, 110
1, 219839, Note_on_c, 8, 30, 0
1, 219839, Note_on_c, 8, 42, 0
1, 219840, Note_on_c, 8, 30, 110
1, 219840, Note_on_c, 8, 42, 110
1, 220799, Note_on_c, 8, 30, 0
1, 220799, Note_on_c, 8, 42, 0
1, 220800, Note_on_c, 8, 38, 110
1, 220800, Note_on_c, 8, 50, 110
1, 221039, Note_on_c, 8, 38, 0
1, 221039, Note_on_c, 8, 50, 0
1, 221040, Note_on_c, 8, 38, 110
1, 221040, Note_on_c, 8, 50, 110
1, 221279, Note_on_c, 8, 38, 0
1, 221279, Note_on_c, 8, 50, 0
1, 221280, Note_on_c, 8, 38, 110
1, 221280, Note_on_c, 8, 50, 110
1, 221519, Note_on_c, 8, 38, 0
1, 221519, Note_on_c, 8, 50, 0
1, 221520, Note_on_c, 8, 38, 110
1, 221520, Note_on_c, 8, 50, 110
1, 221759, Note_on_c, 8, 38, 0
1, 221759, Note_on_c, 8, 50, 0
1, 221760, Note_on_c, 8, 38, 110
1, 221760, Note_on_c, 8, 50, 110
1, 222719, Note_on_c, 8, 38, 0
1, 222719, Note_on_c, 8, 50, 0
1, 230400, Note_on_c, 8, 46, 127
1, 231360, Note_on_c, 8, 47, 127
1, 231839, Note_on_c, 8, 46, 0
1, 233759, Note_on_c, 8, 47, 0
1, 233760, Note_on_c, 8, 49, 127
1, 234719, Note_on_c, 8, 49, 0
1, 234720, Note_on_c, 8, 49, 127
1, 235200, Note_on_c, 8, 50, 127
1, 235679, Note_on_c, 8, 49, 0
1, 237120, Note_on_c, 8, 51, 127
1, 237599, Note_on_c, 8, 50, 0
1, 240479, Note_on_c, 8, 51, 0
1, 240960, Note_on_c, 8, 51, 127
1, 241439, Note_on_c, 8, 51, 0
1, 241440, Note_on_c, 8, 35, 110
1, 241919, Note_on_c, 8, 35, 0
1, 241920, End_track
2, 0, Start_track
2, 0, Key_signature, 0, "major"
2, 0, Control_c, 9, 121, 0
2, 0, Program_c, 9, 0
2, 0, Control_c, 9, 7, 100
2, 0, Control_c, 9, 10, 64
2, 0, Control_c, 9, 91, 0
2, 0, Control_c, 9, 93, 0
2, 0, MIDI_port, 0
2, 24960, Note_on_c, 9, 48, 92
2, 25199, Note_on_c, 9, 48, 0
2, 25260, Note_on_c, 9, 48, 64
2, 25439, Note_on_c, 9, 48, 0
2, 25500, Note_on_c, 9, 48, 92
2, 25679, Note_on_c, 9, 48, 0
2, 25740, Note_on_c, 9, 45, 64
2, 25919, Note_on_c, 9, 45, 0
2, 25920, Note_on_c, 9, 45, 92
2, 26159, Note_on_c, 9, 45, 0
2, 26220, Note_on_c, 9, 45, 64
2, 26399, Note_on_c, 9, 45, 0
2, 26460, Note_on_c, 9, 45, 92
2, 26639, Note_on_c, 9, 45, 0
2, 26670, Note_on_c, 9, 45, 50
2, 26759, Note_on_c, 9, 45, 0
2, 26880, Note_on_c, 9, 41, 92
2, 26880, Note_on_c, 9, 36, 106
2, 27359, Note_on_c, 9, 41, 0
2, 27359, Note_on_c, 9, 36, 0
2, 33120, Note_on_c, 9, 45, 92
2, 33359, Note_on_c, 9, 45, 0
2, 33360, Note_on_c, 9, 45, 64
2, 33599, Note_on_c, 9, 45, 0
2, 34080, Note_on_c, 9, 41, 92
2, 34319, Note_on_c, 9, 41, 0
2, 34335, Note_on_c, 9, 41, 64
2, 34559, Note_on_c, 9, 41, 0
2, 37020, Note_on_c, 9, 48, 78
2, 37199, Note_on_c, 9, 48, 0
2, 37260, Note_on_c, 9, 48, 64
2, 37439, Note_on_c, 9, 48, 0
2, 37440, Note_on_c, 9, 48, 92
2, 37919, Note_on_c, 9, 48, 0
2, 37920, Note_on_c, 9, 45, 64
2, 38399, Note_on_c, 9, 45, 0
2, 41280, Note_on_c, 9, 41, 92
2, 41459, Note_on_c, 9, 41, 0
2, 41460, Note_on_c, 9, 41, 64
2, 41519, Note_on_c, 9, 41, 0
2, 41580, Note_on_c, 9, 41, 50
2, 41759, Note_on_c, 9, 41, 0
2, 41760, Note_on_c, 9, 41, 78
2, 41999, Note_on_c, 9, 41, 0
2, 42000, Note_on_c, 9, 41, 64
2, 42239, Note_on_c, 9, 41, 0
2, 45180, Note_on_c, 9, 48, 92
2, 45359, Note_on_c, 9, 48, 0
2, 45420, Note_on_c, 9, 48, 64
2, 45599, Note_on_c, 9, 48, 0
2, 48540, Note_on_c, 9, 48, 78
2, 48719, Note_on_c, 9, 48, 0
2, 48960, Note_on_c, 9, 45, 92
2, 49199, Note_on_c, 9, 45, 0
2, 49260, Note_on_c, 9, 45, 50
2, 49439, Note_on_c, 9, 45, 0
2, 49470, Note_on_c, 9, 45, 64
2, 49919, Note_on_c, 9, 45, 0
2, 49950, Note_on_c, 9, 41, 92
2, 50399, Note_on_c, 9, 41, 0
2, 54720, Note_on_c, 9, 48, 50
2, 54759, Note_on_c, 9, 48, 0
2, 54760, Note_on_c, 9, 48, 92
2, 54839, Note_on_c, 9, 48, 0
2, 55680, Note_on_c, 9, 48, 92
2, 56159, Note_on_c, 9, 48, 0
2, 56160, Note_on_c, 9, 48, 64
2, 56639, Note_on_c, 9, 48, 0
2, 56640, Note_on_c, 9, 48, 92
2, 56879, Note_on_c, 9, 48, 0
2, 56910, Note_on_c, 9, 48, 64
2, 56999, Note_on_c, 9, 48, 0
2, 57120, Note_on_c, 9, 45, 78
2, 57599, Note_on_c, 9, 45, 0
2, 57600, Note_on_c, 9, 49, 92
2, 57600, Note_on_c, 9, 36, 106
2, 58079, Note_on_c, 9, 49, 0
2, 58079, Note_on_c, 9, 36, 0
2, 58560, Note_on_c, 9, 38, 106
2, 58560, Note_on_c, 9, 46, 78
2, 59039, Note_on_c, 9, 38, 0
2, 59039, Note_on_c, 9, 46, 0
2, 59520, Note_on_c, 9, 42, 78
2, 59520, Note_on_c, 9, 36, 106
2, 59999, Note_on_c, 9, 42, 0
2, 59999, Note_on_c, 9, 36, 0
2, 60480, Note_on_c, 9, 38, 106
2, 60480, Note_on_c, 9, 46, 78
2, 60719, Note_on_c, 9, 38, 0
2, 60719, Note_on_c, 9, 46, 0
2, 60720, Note_on_c, 9, 48, 78
2, 60959, Note_on_c, 9, 48, 0
2, 60990, Note_on_c, 9, 45, 50
2, 61439, Note_on_c, 9, 45, 0
2, 61440, Note_on_c, 9, 42, 78
2, 61440, Note_on_c, 9, 36, 106
2, 61919, Note_on_c, 9, 42, 0
2, 61919, Note_on_c, 9, 36, 0
2, 62400, Note_on_c, 9, 38, 106
2, 62400, Note_on_c, 9, 46, 78
2, 62879, Note_on_c, 9, 38, 0
2, 62879, Note_on_c, 9, 46, 0
2, 63360, Note_on_c, 9, 42, 78
2, 63360, Note_on_c, 9, 36, 106
2, 63839, Note_on_c, 9, 42, 0
2, 63839, Note_on_c, 9, 36, 0
2, 64320, Note_on_c, 9, 38, 106
2, 64320, Note_on_c, 9, 46, 78
2, 64559, Note_on_c, 9, 38, 0
2, 64559, Note_on_c, 9, 46, 0
2, 64560, Note_on_c, 9, 48, 78
2, 64799, Note_on_c, 9, 48, 0
2, 64830, Note_on_c, 9, 45, 50
2, 65279, Note_on_c, 9, 45, 0
2, 65280, Note_on_c, 9, 42, 78
2, 65280, Note_on_c, 9, 36, 106
2, 65759, Note_on_c, 9, 42, 0
2, 65759, Note_on_c, 9, 36, 0
2, 66240, Note_on_c, 9, 38, 106
2, 66240, Note_on_c, 9, 46, 78
2, 66719, Note_on_c, 9, 38, 0
2, 66719, Note_on_c, 9, 46, 0
2, 67200, Note_on_c, 9, 42, 78
2, 67200, Note_on_c, 9, 36, 106
2, 67679, Note_on_c, 9, 42, 0
2, 67679, Note_on_c, 9, 36, 0
2, 68160, Note_on_c, 9, 38, 106
2, 68160, Note_on_c, 9, 46, 78
2, 68399, Note_on_c, 9, 38, 0
2, 68399, Note_on_c, 9, 46, 0
2, 68400, Note_on_c, 9, 48, 78
2, 68639, Note_on_c, 9, 48, 0
2, 68670, Note_on_c, 9, 45, 50
2, 69119, Note_on_c, 9, 45, 0
2, 69120, Note_on_c, 9, 42, 78
2, 69120, Note_on_c, 9, 36, 106
2, 69599, Note_on_c, 9, 42, 0
2, 69599, Note_on_c, 9, 36, 0
2, 70080, Note_on_c, 9, 38, 106
2, 70080, Note_on_c, 9, 46, 78
2, 70559, Note_on_c, 9, 38, 0
2, 70559, Note_on_c, 9, 46, 0
2, 70560, Note_on_c, 9, 38, 106
2, 70560, Note_on_c, 9, 46, 64
2, 71039, Note_on_c, 9, 38, 0
2, 71039, Note_on_c, 9, 46, 0
2, 71070, Note_on_c, 9, 48, 92
2, 71159, Note_on_c, 9, 48, 0
2, 71220, Note_on_c, 9, 48, 64
2, 71279, Note_on_c, 9, 48, 0
2, 71400, Note_on_c, 9, 48, 50
2, 71519, Note_on_c, 9, 48, 0
2, 71520, Note_on_c, 9, 48, 78
2, 71999, Note_on_c, 9, 48, 0
2, 72030, Note_on_c, 9, 41, 92
2, 72119, Note_on_c, 9, 41, 0
2, 72180, Note_on_c, 9, 41, 64
2, 72239, Note_on_c, 9, 41, 0
2, 72360, Note_on_c, 9, 41, 50
2, 72479, Note_on_c, 9, 41, 0
2, 72480, Note_on_c, 9, 41, 78
2, 72959, Note_on_c, 9, 41, 0
2, 72960, Note_on_c, 9, 49, 92
2, 72960, Note_on_c, 9, 36, 106
2, 73439, Note_on_c, 9, 49, 0
2, 73439, Note_on_c, 9, 36, 0
2, 73920, Note_on_c, 9, 38, 106
2, 73920, Note_on_c, 9, 49, 64
2, 74399, Note_on_c, 9, 38, 0
2, 74399, Note_on_c, 9, 49, 0
2, 74880, Note_on_c, 9, 42, 78
2, 74880, Note_on_c, 9, 36, 106
2, 75359, Note_on_c, 9, 42, 0
2, 75359, Note_on_c, 9, 36, 0
2, 75840, Note_on_c, 9, 38, 106
2, 75840, Note_on_c, 9, 46, 78
2, 76079, Note_on_c, 9, 38, 0
2, 76079, Note_on_c, 9, 46, 0
2, 76080, Note_on_c, 9, 48, 78
2, 76319, Note_on_c, 9, 48, 0
2, 76320, Note_on_c, 9, 45, 50
2, 76799, Note_on_c, 9, 45, 0
2, 76800, Note_on_c, 9, 42, 78
2, 76800, Note_on_c, 9, 36, 106
2, 77279, Note_on_c, 9, 42, 0
2, 77279, Note_on_c, 9, 36, 0
2, 77760, Note_on_c, 9, 38, 106
2, 77760, Note_on_c, 9, 46, 78
2, 78239, Note_on_c, 9, 38, 0
2, 78239, Note_on_c, 9, 46, 0
2, 78720, Note_on_c, 9, 42, 78
2, 78720, Note_on_c, 9, 36, 106
2, 79199, Note_on_c, 9, 42, 0
2, 79199, Note_on_c, 9, 36, 0
2, 79680, Note_on_c, 9, 38, 106
2, 79680, Note_on_c, 9, 46, 78
2, 79919, Note_on_c, 9, 38, 0
2, 79919, Note_on_c, 9, 46, 0
2, 79920, Note_on_c, 9, 48, 78
2, 80159, Note_on_c, 9, 48, 0
2, 80190, Note_on_c, 9, 45, 50
2, 80639, Note_on_c, 9, 45, 0
2, 80640, Note_on_c, 9, 42, 78
2, 80640, Note_on_c, 9, 36, 106
2, 81119, Note_on_c, 9, 42, 0
2, 81119, Note_on_c, 9, 36, 0
2, 81600, Note_on_c, 9, 38, 106
2, 81600, Note_on_c, 9, 46, 78
2, 82079, Note_on_c, 9, 38, 0
2, 82079, Note_on_c, 9, 46, 0
2, 82560, Note_on_c, 9, 42, 78
2, 82560, Note_on_c, 9, 36, 106
2, 83039, Note_on_c, 9, 42, 0
2, 83039, Note_on_c, 9, 36, 0
2, 83520, Note_on_c, 9, 38, 106
2, 83520, Note_on_c, 9, 46, 78
2, 83759, Note_on_c, 9, 38, 0
2, 83759, Note_on_c, 9, 46, 0
2, 83760, Note_on_c, 9, 48, 78
2, 83999, Note_on_c, 9, 48, 0
2, 84000, Note_on_c, 9, 45, 50
2, 84479, Note_on_c, 9, 45, 0
2, 84480, Note_on_c, 9, 36, 106
2, 84959, Note_on_c, 9, 36, 0
2, 85440, Note_on_c, 9, 38, 106
2, 85679, Note_on_c, 9, 38, 0
2, 85680, Note_on_c, 9, 48, 78
2, 85919, Note_on_c, 9, 48, 0
2, 85920, Note_on_c, 9, 45, 50
2, 86399, Note_on_c, 9, 45, 0
2, 86880, Note_on_c, 9, 45, 78
2, 87359, Note_on_c, 9, 45, 0
2, 87390, Note_on_c, 9, 45, 92
2, 87479, Note_on_c, 9, 45, 0
2, 87540, Note_on_c, 9, 45, 64
2, 87599, Note_on_c, 9, 45, 0
2, 87720, Note_on_c, 9, 45, 50
2, 87839, Note_on_c, 9, 45, 0
2, 87870, Note_on_c, 9, 41, 78
2, 87959, Note_on_c, 9, 41, 0
2, 88020, Note_on_c, 9, 41, 64
2, 88079, Note_on_c, 9, 41, 0
2, 88200, Note_on_c, 9, 41, 50
2, 88319, Note_on_c, 9, 41, 0
2, 88320, Note_on_c, 9, 49, 92
2, 88320, Note_on_c, 9, 36, 106
2, 88799, Note_on_c, 9, 49, 0
2, 88799, Note_on_c, 9, 36, 0
2, 89280, Note_on_c, 9, 38, 106
2, 89280, Note_on_c, 9, 42, 64
2, 89759, Note_on_c, 9, 38, 0
2, 89759, Note_on_c, 9, 42, 0
2, 89760, Note_on_c, 9, 42, 50
2, 90239, Note_on_c, 9, 42, 0
2, 90240, Note_on_c, 9, 42, 78
2, 90240, Note_on_c, 9, 36, 106
2, 90719, Note_on_c, 9, 42, 0
2, 90719, Note_on_c, 9, 36, 0
2, 90720, Note_on_c, 9, 42, 50
2, 90720, Note_on_c, 9, 36, 78
2, 91199, Note_on_c, 9, 42, 0
2, 91199, Note_on_c, 9, 36, 0
2, 91200, Note_on_c, 9, 38, 106
2, 91200, Note_on_c, 9, 42, 64
2, 91679, Note_on_c, 9, 38, 0
2, 91679, Note_on_c, 9, 42, 0
2, 91680, Note_on_c, 9, 42, 50
2, 92159, Note_on_c, 9, 42, 0
2, 92160, Note_on_c, 9, 42, 78
2, 92160, Note_on_c, 9, 36, 106
2, 92639, Note_on_c, 9, 42, 0
2, 92639, Note_on_c, 9, 36, 0
2, 92640, Note_on_c, 9, 42, 50
2, 93119, Note_on_c, 9, 42, 0
2, 93120, Note_on_c, 9, 38, 106
2, 93120, Note_on_c, 9, 42, 64
2, 93599, Note_on_c, 9, 38, 0
2, 93599, Note_on_c, 9, 42, 0
2, 93600, Note_on_c, 9, 42, 50
2, 94079, Note_on_c, 9, 42, 0
2, 94080, Note_on_c, 9, 42, 78
2, 94080, Note_on_c, 9, 36, 106
2, 94559, Note_on_c, 9, 42, 0
2, 94559, Note_on_c, 9, 36, 0
2, 94560, Note_on_c, 9, 42, 50
2, 94560, Note_on_c, 9, 36, 78
2, 95039, Note_on_c, 9, 42, 0
2, 95039, Note_on_c, 9, 36, 0
2, 95040, Note_on_c, 9, 38, 106
2, 95040, Note_on_c, 9, 42, 64
2, 95519, Note_on_c, 9, 38, 0
2, 95519, Note_on_c, 9, 42, 0
2, 95520, Note_on_c, 9, 42, 50
2, 95999, Note_on_c, 9, 42, 0
2, 96000, Note_on_c, 9, 49, 92
2, 96000, Note_on_c, 9, 36, 106
2, 96479, Note_on_c, 9, 49, 0
2, 96479, Note_on_c, 9, 36, 0
2, 96960, Note_on_c, 9, 38, 106
2, 96960, Note_on_c, 9, 42, 64
2, 97439, Note_on_c, 9, 38, 0
2, 97439, Note_on_c, 9, 42, 0
2, 97920, Note_on_c, 9, 42, 78
2, 97920, Note_on_c, 9, 36, 106
2, 98399, Note_on_c, 9, 42, 0
2, 98399, Note_on_c, 9, 36, 0
2, 98400, Note_on_c, 9, 36, 78
2, 98879, Note_on_c, 9, 36, 0
2, 98880, Note_on_c, 9, 38, 106
2, 98880, Note_on_c, 9, 42, 64
2, 99359, Note_on_c, 9, 38, 0
2, 99359, Note_on_c, 9, 42, 0
2, 99360, Note_on_c, 9, 42, 50
2, 99839, Note_on_c, 9, 42, 0
2, 99840, Note_on_c, 9, 49, 92
2, 99840, Note_on_c, 9, 36, 106
2, 100319, Note_on_c, 9, 49, 0
2, 100319, Note_on_c, 9, 36, 0
2, 100800, Note_on_c, 9, 38, 106
2, 100800, Note_on_c, 9, 42, 64
2, 101279, Note_on_c, 9, 38, 0
2, 101279, Note_on_c, 9, 42, 0
2, 101280, Note_on_c, 9, 42, 50
2, 101759, Note_on_c, 9, 42, 0
2, 101760, Note_on_c, 9, 48, 92
2, 101999, Note_on_c, 9, 48, 0
2, 102030, Note_on_c, 9, 48, 50
2, 102119, Note_on_c, 9, 48, 0
2, 102240, Note_on_c, 9, 48, 64
2, 102479, Note_on_c, 9, 48, 0
2, 102510, Note_on_c, 9, 48, 50
2, 102599, Note_on_c, 9, 48, 0
2, 102720, Note_on_c, 9, 45, 78
2, 102959, Note_on_c, 9, 45, 0
2, 102990, Note_on_c, 9, 45, 50
2, 103079, Note_on_c, 9, 45, 0
2, 103200, Note_on_c, 9, 41, 64
2, 103439, Note_on_c, 9, 41, 0
2, 103470, Note_on_c, 9, 41, 50
2, 103559, Note_on_c, 9, 41, 0
2, 103680, Note_on_c, 9, 49, 92
2, 103680, Note_on_c, 9, 36, 106
2, 104159, Note_on_c, 9, 49, 0
2, 104159, Note_on_c, 9, 36, 0
2, 104160, Note_on_c, 9, 36, 78
2, 104639, Note_on_c, 9, 36, 0
2, 104640, Note_on_c, 9, 38, 106
2, 104640, Note_on_c, 9, 51, 64
2, 105119, Note_on_c, 9, 38, 0
2, 105119, Note_on_c, 9, 51, 0
2, 105120, Note_on_c, 9, 51, 50
2, 105599, Note_on_c, 9, 51, 0
2, 105600, Note_on_c, 9, 51, 78
2, 105600, Note_on_c, 9, 36, 106
2, 106079, Note_on_c, 9, 51, 0
2, 106079, Note_on_c, 9, 36, 0
2, 106080, Note_on_c, 9, 51, 50
2, 106559, Note_on_c, 9, 51, 0
2, 106560, Note_on_c, 9, 38, 106
2, 106560, Note_on_c, 9, 51, 64
2, 107039, Note_on_c, 9, 38, 0
2, 107039, Note_on_c, 9, 51, 0
2, 107040, Note_on_c, 9, 51, 50
2, 107519, Note_on_c, 9, 51, 0
2, 107520, Note_on_c, 9, 51, 78
2, 107520, Note_on_c, 9, 36, 106
2, 107999, Note_on_c, 9, 51, 0
2, 107999, Note_on_c, 9, 36, 0
2, 108000, Note_on_c, 9, 51, 50
2, 108000, Note_on_c, 9, 36, 78
2, 108479, Note_on_c, 9, 51, 0
2, 108479, Note_on_c, 9, 36, 0
2, 108480, Note_on_c, 9, 38, 106
2, 108480, Note_on_c, 9, 51, 64
2, 108959, Note_on_c, 9, 38, 0
2, 108959, Note_on_c, 9, 51, 0
2, 108960, Note_on_c, 9, 51, 50
2, 109439, Note_on_c, 9, 51, 0
2, 109440, Note_on_c, 9, 51, 78
2, 109440, Note_on_c, 9, 36, 106
2, 109919, Note_on_c, 9, 51, 0
2, 109919, Note_on_c, 9, 36, 0
2, 109920, Note_on_c, 9, 48, 78
2, 110399, Note_on_c, 9, 48, 0
2, 110400, Note_on_c, 9, 48, 92
2, 110639, Note_on_c, 9, 48, 0
2, 110670, Note_on_c, 9, 48, 50
2, 110759, Note_on_c, 9, 48, 0
2, 110880, Note_on_c, 9, 45, 64
2, 111119, Note_on_c, 9, 45, 0
2, 111150, Note_on_c, 9, 45, 50
2, 111239, Note_on_c, 9, 45, 0
2, 111360, Note_on_c, 9, 49, 92
2, 111360, Note_on_c, 9, 36, 106
2, 111839, Note_on_c, 9, 49, 0
2, 111839, Note_on_c, 9, 36, 0
2, 112320, Note_on_c, 9, 38, 106
2, 112320, Note_on_c, 9, 51, 64
2, 112799, Note_on_c, 9, 38, 0
2, 112799, Note_on_c, 9, 51, 0
2, 112800, Note_on_c, 9, 51, 50
2, 113279, Note_on_c, 9, 51, 0
2, 113280, Note_on_c, 9, 51, 78
2, 113280, Note_on_c, 9, 36, 106
2, 113759, Note_on_c, 9, 51, 0
2, 113759, Note_on_c, 9, 36, 0
2, 113760, Note_on_c, 9, 51, 50
2, 113760, Note_on_c, 9, 36, 78
2, 114239, Note_on_c, 9, 51, 0
2, 114239, Note_on_c, 9, 36, 0
2, 114240, Note_on_c, 9, 38, 106
2, 114240, Note_on_c, 9, 51, 64
2, 114719, Note_on_c, 9, 38, 0
2, 114719, Note_on_c, 9, 51, 0
2, 114720, Note_on_c, 9, 51, 50
2, 115199, Note_on_c, 9, 51, 0
2, 115200, Note_on_c, 9, 51, 78
2, 115200, Note_on_c, 9, 36, 106
2, 115679, Note_on_c, 9, 51, 0
2, 115679, Note_on_c, 9, 36, 0
2, 115680, Note_on_c, 9, 51, 50
2, 116159, Note_on_c, 9, 51, 0
2, 116160, Note_on_c, 9, 38, 106
2, 116160, Note_on_c, 9, 51, 64
2, 116639, Note_on_c, 9, 38, 0
2, 116639, Note_on_c, 9, 51, 0
2, 116640, Note_on_c, 9, 51, 50
2, 117119, Note_on_c, 9, 51, 0
2, 117120, Note_on_c, 9, 48, 92
2, 117359, Note_on_c, 9, 48, 0
2, 117390, Note_on_c, 9, 48, 50
2, 117479, Note_on_c, 9, 48, 0
2, 117600, Note_on_c, 9, 48, 64
2, 117839, Note_on_c, 9, 48, 0
2, 117870, Note_on_c, 9, 48, 50
2, 117959, Note_on_c, 9, 48, 0
2, 118080, Note_on_c, 9, 45, 78
2, 118319, Note_on_c, 9, 45, 0
2, 118350, Note_on_c, 9, 45, 50
2, 118439, Note_on_c, 9, 45, 0
2, 118560, Note_on_c, 9, 41, 64
2, 119039, Note_on_c, 9, 41, 0
2, 119040, Note_on_c, 9, 49, 92
2, 119040, Note_on_c, 9, 36, 106
2, 119519, Note_on_c, 9, 49, 0
2, 119519, Note_on_c, 9, 36, 0
2, 120000, Note_on_c, 9, 38, 106
2, 120000, Note_on_c, 9, 51, 64
2, 120479, Note_on_c, 9, 38, 0
2, 120479, Note_on_c, 9, 51, 0
2, 120480, Note_on_c, 9, 51, 50
2, 120959, Note_on_c, 9, 51, 0
2, 120960, Note_on_c, 9, 51, 78
2, 120960, Note_on_c, 9, 36, 106
2, 121439, Note_on_c, 9, 51, 0
2, 121439, Note_on_c, 9, 36, 0
2, 121440, Note_on_c, 9, 51, 50
2, 121440, Note_on_c, 9, 36, 78
2, 121919, Note_on_c, 9, 51, 0
2, 121919, Note_on_c, 9, 36, 0
2, 121920, Note_on_c, 9, 38, 106
2, 121920, Note_on_c, 9, 51, 64
2, 122399, Note_on_c, 9, 38, 0
2, 122399, Note_on_c, 9, 51, 0
2, 122400, Note_on_c, 9, 51, 50
2, 122879, Note_on_c, 9, 51, 0
2, 122880, Note_on_c, 9, 51, 78
2, 122880, Note_on_c, 9, 36, 106
2, 123359, Note_on_c, 9, 51, 0
2, 123359, Note_on_c, 9, 36, 0
2, 123360, Note_on_c, 9, 51, 50
2, 123839, Note_on_c, 9, 51, 0
2, 123840, Note_on_c, 9, 38, 106
2, 123840, Note_on_c, 9, 51, 64
2, 124319, Note_on_c, 9, 38, 0
2, 124319, Note_on_c, 9, 51, 0
2, 124320, Note_on_c, 9, 51, 50
2, 124799, Note_on_c, 9, 51, 0
2, 124800, Note_on_c, 9, 51, 78
2, 124800, Note_on_c, 9, 36, 106
2, 125279, Note_on_c, 9, 51, 0
2, 125279, Note_on_c, 9, 36, 0
2, 125280, Note_on_c, 9, 51, 50
2, 125759, Note_on_c, 9, 51, 0
2, 125790, Note_on_c, 9, 38, 106
2, 125879, Note_on_c, 9, 38, 0
2, 126030, Note_on_c, 9, 38, 64
2, 126119, Note_on_c, 9, 38, 0
2, 126240, Note_on_c, 9, 38, 78
2, 126719, Note_on_c, 9, 38, 0
2, 126720, Note_on_c, 9, 49, 92
2, 126720, Note_on_c, 9, 36, 106
2, 127199, Note_on_c, 9, 49, 0
2, 127199, Note_on_c, 9, 36, 0
2, 127200, Note_on_c, 9, 48, 78
2, 127439, Note_on_c, 9, 48, 0
2, 127470, Note_on_c, 9, 48, 64
2, 127559, Note_on_c, 9, 48, 0
2, 127680, Note_on_c, 9, 48, 92
2, 127919, Note_on_c, 9, 48, 0
2, 127950, Note_on_c, 9, 45, 64
2, 128039, Note_on_c, 9, 45, 0
2, 128160, Note_on_c, 9, 45, 78
2, 128399, Note_on_c, 9, 45, 0
2, 128400, Note_on_c, 9, 45, 50
2, 128639, Note_on_c, 9, 45, 0
2, 128640, Note_on_c, 9, 45, 92
2, 129119, Note_on_c, 9, 45, 0
2, 129120, Note_on_c, 9, 41, 78
2, 129359, Note_on_c, 9, 41, 0
2, 129390, Note_on_c, 9, 41, 50
2, 129479, Note_on_c, 9, 41, 0
2, 129600, Note_on_c, 9, 41, 78
2, 129839, Note_on_c, 9, 41, 0
2, 129840, Note_on_c, 9, 41, 64
2, 130079, Note_on_c, 9, 41, 0
2, 130080, Note_on_c, 9, 41, 78
2, 130319, Note_on_c, 9, 41, 0
2, 130320, Note_on_c, 9, 41, 50
2, 130559, Note_on_c, 9, 41, 0
2, 130560, Note_on_c, 9, 49, 92
2, 130560, Note_on_c, 9, 36, 106
2, 131039, Note_on_c, 9, 49, 0
2, 131039, Note_on_c, 9, 36, 0
2, 131040, Note_on_c, 9, 38, 106
2, 131519, Note_on_c, 9, 38, 0
2, 131520, Note_on_c, 9, 48, 78
2, 131759, Note_on_c, 9, 48, 0
2, 131760, Note_on_c, 9, 48, 64
2, 131999, Note_on_c, 9, 48, 0
2, 132000, Note_on_c, 9, 46, 78
2, 132239, Note_on_c, 9, 46, 0
2, 132240, Note_on_c, 9, 48, 50
2, 132479, Note_on_c, 9, 48, 0
2, 132690, Note_on_c, 9, 45, 50
2, 132719, Note_on_c, 9, 45, 0
2, 132960, Note_on_c, 9, 45, 78
2, 133439, Note_on_c, 9, 45, 0
2, 133440, Note_on_c, 9, 41, 92
2, 133679, Note_on_c, 9, 41, 0
2, 133680, Note_on_c, 9, 41, 50
2, 133919, Note_on_c, 9, 41, 0
2, 133920, Note_on_c, 9, 41, 78
2, 134399, Note_on_c, 9, 41, 0
2, 134400, Note_on_c, 9, 42, 78
2, 134879, Note_on_c, 9, 42, 0
2, 145920, Note_on_c, 9, 36, 106
2, 146190, Note_on_c, 9, 48, 64
2, 146279, Note_on_c, 9, 48, 0
2, 146399, Note_on_c, 9, 36, 0
2, 146400, Note_on_c, 9, 48, 78
2, 146400, Note_on_c, 9, 36, 78
2, 146879, Note_on_c, 9, 48, 0
2, 146879, Note_on_c, 9, 36, 0
2, 146880, Note_on_c, 9, 48, 78
2, 147359, Note_on_c, 9, 48, 0
2, 147360, Note_on_c, 9, 45, 50
2, 147389, Note_on_c, 9, 45, 0
2, 147390, Note_on_c, 9, 45, 78
2, 147569, Note_on_c, 9, 45, 0
2, 147570, Note_on_c, 9, 45, 50
2, 147599, Note_on_c, 9, 45, 0
2, 147600, Note_on_c, 9, 45, 78
2, 147839, Note_on_c, 9, 45, 0
2, 148095, Note_on_c, 9, 41, 64
2, 148319, Note_on_c, 9, 41, 0
2, 148320, Note_on_c, 9, 41, 78
2, 148559, Note_on_c, 9, 41, 0
2, 148575, Note_on_c, 9, 41, 64
2, 148799, Note_on_c, 9, 41, 0
2, 148800, Note_on_c, 9, 41, 92
2, 149279, Note_on_c, 9, 41, 0
2, 149310, Note_on_c, 9, 41, 64
2, 149759, Note_on_c, 9, 41, 0
2, 149760, Note_on_c, 9, 49, 92
2, 149760, Note_on_c, 9, 36, 106
2, 150239, Note_on_c, 9, 49, 0
2, 150239, Note_on_c, 9, 36, 0
2, 150720, Note_on_c, 9, 38, 106
2, 150720, Note_on_c, 9, 42, 64
2, 151199, Note_on_c, 9, 38, 0
2, 151199, Note_on_c, 9, 42, 0
2, 151200, Note_on_c, 9, 42, 50
2, 151679, Note_on_c, 9, 42, 0
2, 151680, Note_on_c, 9, 42, 78
2, 151680, Note_on_c, 9, 36, 106
2, 152159, Note_on_c, 9, 42, 0
2, 152159, Note_on_c, 9, 36, 0
2, 152160, Note_on_c, 9, 42, 50
2, 152160, Note_on_c, 9, 36, 78
2, 152639, Note_on_c, 9, 42, 0
2, 152639, Note_on_c, 9, 36, 0
2, 152640, Note_on_c, 9, 38, 106
2, 152640, Note_on_c, 9, 42, 64
2, 153119, Note_on_c, 9, 38, 0
2, 153119, Note_on_c, 9, 42, 0
2, 153120, Note_on_c, 9, 42, 50
2, 153599, Note_on_c, 9, 42, 0
2, 153600, Note_on_c, 9, 42, 78
2, 153600, Note_on_c, 9, 36, 106
2, 154079, Note_on_c, 9, 42, 0
2, 154079, Note_on_c, 9, 36, 0
2, 154080, Note_on_c, 9, 42, 50
2, 154559, Note_on_c, 9, 42, 0
2, 154560, Note_on_c, 9, 38, 106
2, 154560, Note_on_c, 9, 42, 64
2, 155039, Note_on_c, 9, 38, 0
2, 155039, Note_on_c, 9, 42, 0
2, 155040, Note_on_c, 9, 42, 50
2, 155519, Note_on_c, 9, 42, 0
2, 155520, Note_on_c, 9, 42, 78
2, 155520, Note_on_c, 9, 36, 106
2, 155999, Note_on_c, 9, 42, 0
2, 155999, Note_on_c, 9, 36, 0
2, 156000, Note_on_c, 9, 42, 50
2, 156000, Note_on_c, 9, 36, 78
2, 156479, Note_on_c, 9, 42, 0
2, 156479, Note_on_c, 9, 36, 0
2, 156480, Note_on_c, 9, 38, 106
2, 156719, Note_on_c, 9, 38, 0
2, 156750, Note_on_c, 9, 48, 78
2, 156839, Note_on_c, 9, 48, 0
2, 156960, Note_on_c, 9, 45, 50
2, 157439, Note_on_c, 9, 45, 0
2, 157440, Note_on_c, 9, 49, 92
2, 157440, Note_on_c, 9, 36, 106
2, 157919, Note_on_c, 9, 49, 0
2, 157919, Note_on_c, 9, 36, 0
2, 158400, Note_on_c, 9, 38, 106
2, 158400, Note_on_c, 9, 42, 64
2, 158879, Note_on_c, 9, 38, 0
2, 158879, Note_on_c, 9, 42, 0
2, 158880, Note_on_c, 9, 42, 50
2, 159359, Note_on_c, 9, 42, 0
2, 159360, Note_on_c, 9, 42, 78
2, 159360, Note_on_c, 9, 36, 106
2, 159839, Note_on_c, 9, 42, 0
2, 159839, Note_on_c, 9, 36, 0
2, 159840, Note_on_c, 9, 42, 50
2, 159840, Note_on_c, 9, 36, 78
2, 160319, Note_on_c, 9, 42, 0
2, 160319, Note_on_c, 9, 36, 0
2, 160320, Note_on_c, 9, 38, 106
2, 160320, Note_on_c, 9, 42, 64
2, 160799, Note_on_c, 9, 38, 0
2, 160799, Note_on_c, 9, 42, 0
2, 160800, Note_on_c, 9, 42, 50
2, 161279, Note_on_c, 9, 42, 0
2, 161280, Note_on_c, 9, 42, 78
2, 161280, Note_on_c, 9, 36, 106
2, 161759, Note_on_c, 9, 42, 0
2, 161759, Note_on_c, 9, 36, 0
2, 161760, Note_on_c, 9, 42, 50
2, 162239, Note_on_c, 9, 42, 0
2, 162240, Note_on_c, 9, 38, 106
2, 162240, Note_on_c, 9, 42, 64
2, 162719, Note_on_c, 9, 38, 0
2, 162719, Note_on_c, 9, 42, 0
2, 162720, Note_on_c, 9, 42, 50
2, 163199, Note_on_c, 9, 42, 0
2, 163200, Note_on_c, 9, 42, 78
2, 163200, Note_on_c, 9, 36, 106
2, 163679, Note_on_c, 9, 42, 0
2, 163679, Note_on_c, 9, 36, 0
2, 163680, Note_on_c, 9, 38, 106
2, 163680, Note_on_c, 9, 42, 50
2, 164159, Note_on_c, 9, 38, 0
2, 164159, Note_on_c, 9, 42, 0
2, 164190, Note_on_c, 9, 38, 92
2, 164279, Note_on_c, 9, 38, 0
2, 164340, Note_on_c, 9, 38, 64
2, 164399, Note_on_c, 9, 38, 0
2, 164520, Note_on_c, 9, 38, 50
2, 164639, Note_on_c, 9, 38, 0
2, 164640, Note_on_c, 9, 38, 78
2, 165119, Note_on_c, 9, 38, 0
2, 165120, Note_on_c, 9, 49, 92
2, 165120, Note_on_c, 9, 36, 106
2, 165599, Note_on_c, 9, 49, 0
2, 165599, Note_on_c, 9, 36, 0
2, 166080, Note_on_c, 9, 38, 106
2, 166080, Note_on_c, 9, 42, 64
2, 166559, Note_on_c, 9, 38, 0
2, 166559, Note_on_c, 9, 42, 0
2, 166560, Note_on_c, 9, 42, 50
2, 167039, Note_on_c, 9, 42, 0
2, 167040, Note_on_c, 9, 42, 78
2, 167040, Note_on_c, 9, 36, 106
2, 167519, Note_on_c, 9, 42, 0
2, 167519, Note_on_c, 9, 36, 0
2, 167520, Note_on_c, 9, 42, 50
2, 167520, Note_on_c, 9, 36, 78
2, 167999, Note_on_c, 9, 42, 0
2, 167999, Note_on_c, 9, 36, 0
2, 168000, Note_on_c, 9, 38, 106
2, 168000, Note_on_c, 9, 42, 64
2, 168479, Note_on_c, 9, 38, 0
2, 168479, Note_on_c, 9, 42, 0
2, 168480, Note_on_c, 9, 42, 50
2, 168959, Note_on_c, 9, 42, 0
2, 168960, Note_on_c, 9, 49, 92
2, 168960, Note_on_c, 9, 36, 106
2, 169439, Note_on_c, 9, 49, 0
2, 169439, Note_on_c, 9, 36, 0
2, 169920, Note_on_c, 9, 38, 106
2, 169920, Note_on_c, 9, 42, 50
2, 170399, Note_on_c, 9, 38, 0
2, 170399, Note_on_c, 9, 42, 0
2, 170400, Note_on_c, 9, 42, 64
2, 170879, Note_on_c, 9, 42, 0
2, 170880, Note_on_c, 9, 42, 50
2, 170880, Note_on_c, 9, 36, 106
2, 171359, Note_on_c, 9, 42, 0
2, 171359, Note_on_c, 9, 36, 0
2, 171390, Note_on_c, 9, 48, 92
2, 171839, Note_on_c, 9, 48, 0
2, 171870, Note_on_c, 9, 48, 64
2, 171959, Note_on_c, 9, 48, 0
2, 172110, Note_on_c, 9, 48, 78
2, 172199, Note_on_c, 9, 48, 0
2, 172320, Note_on_c, 9, 48, 50
2, 172799, Note_on_c, 9, 48, 0
2, 172800, Note_on_c, 9, 49, 92
2, 172800, Note_on_c, 9, 36, 106
2, 173279, Note_on_c, 9, 49, 0
2, 173279, Note_on_c, 9, 36, 0
2, 173760, Note_on_c, 9, 38, 106
2, 173760, Note_on_c, 9, 42, 64
2, 174239, Note_on_c, 9, 38, 0
2, 174239, Note_on_c, 9, 42, 0
2, 174240, Note_on_c, 9, 42, 50
2, 174719, Note_on_c, 9, 42, 0
2, 174720, Note_on_c, 9, 42, 78
2, 174720, Note_on_c, 9, 36, 106
2, 175199, Note_on_c, 9, 42, 0
2, 175199, Note_on_c, 9, 36, 0
2, 175200, Note_on_c, 9, 42, 50
2, 175200, Note_on_c, 9, 36, 78
2, 175679, Note_on_c, 9, 42, 0
2, 175679, Note_on_c, 9, 36, 0
2, 175680, Note_on_c, 9, 38, 106
2, 175680, Note_on_c, 9, 46, 64
2, 176159, Note_on_c, 9, 38, 0
2, 176159, Note_on_c, 9, 46, 0
2, 176160, Note_on_c, 9, 46, 50
2, 176639, Note_on_c, 9, 46, 0
2, 176640, Note_on_c, 9, 42, 78
2, 176640, Note_on_c, 9, 36, 106
2, 177119, Note_on_c, 9, 42, 0
2, 177119, Note_on_c, 9, 36, 0
2, 177120, Note_on_c, 9, 42, 50
2, 177599, Note_on_c, 9, 42, 0
2, 177600, Note_on_c, 9, 38, 106
2, 177600, Note_on_c, 9, 46, 64
2, 178079, Note_on_c, 9, 38, 0
2, 178079, Note_on_c, 9, 46, 0
2, 178080, Note_on_c, 9, 46, 50
2, 178559, Note_on_c, 9, 46, 0
2, 178560, Note_on_c, 9, 45, 92
2, 178799, Note_on_c, 9, 45, 0
2, 178830, Note_on_c, 9, 45, 64
2, 178919, Note_on_c, 9, 45, 0
2, 179040, Note_on_c, 9, 45, 78
2, 179279, Note_on_c, 9, 45, 0
2, 179280, Note_on_c, 9, 41, 50
2, 179519, Note_on_c, 9, 41, 0
2, 179520, Note_on_c, 9, 41, 78
2, 179999, Note_on_c, 9, 41, 0
2, 180000, Note_on_c, 9, 38, 106
2, 180000, Note_on_c, 9, 46, 50
2, 180479, Note_on_c, 9, 38, 0
2, 180479, Note_on_c, 9, 46, 0
2, 180480, Note_on_c, 9, 49, 92
2, 180480, Note_on_c, 9, 36, 106
2, 180959, Note_on_c, 9, 49, 0
2, 180959, Note_on_c, 9, 36, 0
2, 181440, Note_on_c, 9, 38, 106
2, 181440, Note_on_c, 9, 46, 64
2, 181919, Note_on_c, 9, 38, 0
2, 181919, Note_on_c, 9, 46, 0
2, 181920, Note_on_c, 9, 38, 78
2, 181920, Note_on_c, 9, 46, 50
2, 182399, Note_on_c, 9, 38, 0
2, 182399, Note_on_c, 9, 46, 0
2, 182400, Note_on_c, 9, 38, 92
2, 182639, Note_on_c, 9, 38, 0
2, 182670, Note_on_c, 9, 38, 64
2, 182759, Note_on_c, 9, 38, 0
2, 182880, Note_on_c, 9, 38, 78
2, 183359, Note_on_c, 9, 38, 0
2, 183360, Note_on_c, 9, 41, 78
2, 183839, Note_on_c, 9, 41, 0
2, 183840, Note_on_c, 9, 38, 78
2, 183840, Note_on_c, 9, 46, 50
2, 184319, Note_on_c, 9, 38, 0
2, 184319, Note_on_c, 9, 46, 0
2, 184320, Note_on_c, 9, 49, 92
2, 184320, Note_on_c, 9, 36, 106
2, 184799, Note_on_c, 9, 49, 0
2, 184799, Note_on_c, 9, 36, 0
2, 185280, Note_on_c, 9, 38, 106
2, 185280, Note_on_c, 9, 46, 64
2, 185759, Note_on_c, 9, 38, 0
2, 185759, Note_on_c, 9, 46, 0
2, 185760, Note_on_c, 9, 38, 78
2, 185760, Note_on_c, 9, 46, 50
2, 186239, Note_on_c, 9, 38, 0
2, 186239, Note_on_c, 9, 46, 0
2, 186240, Note_on_c, 9, 38, 92
2, 186479, Note_on_c, 9, 38, 0
2, 186510, Note_on_c, 9, 38, 64
2, 186599, Note_on_c, 9, 38, 0
2, 186720, Note_on_c, 9, 38, 78
2, 187199, Note_on_c, 9, 38, 0
2, 187200, Note_on_c, 9, 41, 78
2, 187679, Note_on_c, 9, 41, 0
2, 187680, Note_on_c, 9, 38, 78
2, 187680, Note_on_c, 9, 46, 50
2, 188159, Note_on_c, 9, 38, 0
2, 188159, Note_on_c, 9, 46, 0
2, 188160, Note_on_c, 9, 49, 92
2, 188160, Note_on_c, 9, 36, 106
2, 188639, Note_on_c, 9, 49, 0
2, 188639, Note_on_c, 9, 36, 0
2, 189120, Note_on_c, 9, 38, 106
2, 189120, Note_on_c, 9, 49, 92
2, 189599, Note_on_c, 9, 38, 0
2, 189599, Note_on_c, 9, 49, 0
2, 190080, Note_on_c, 9, 49, 78
2, 190080, Note_on_c, 9, 36, 106
2, 190559, Note_on_c, 9, 49, 0
2, 190559, Note_on_c, 9, 36, 0
2, 190560, Note_on_c, 9, 38, 92
2, 190799, Note_on_c, 9, 38, 0
2, 190800, Note_on_c, 9, 38, 78
2, 191039, Note_on_c, 9, 38, 0
2, 191040, Note_on_c, 9, 38, 106
2, 191279, Note_on_c, 9, 38, 0
2, 191280, Note_on_c, 9, 38, 78
2, 191519, Note_on_c, 9, 38, 0
2, 191520, Note_on_c, 9, 38, 92
2, 191759, Note_on_c, 9, 38, 0
2, 191760, Note_on_c, 9, 38, 78
2, 191999, Note_on_c, 9, 38, 0
2, 192000, Note_on_c, 9, 49, 92
2, 192000, Note_on_c, 9, 36, 106
2, 192479, Note_on_c, 9, 49, 0
2, 192479, Note_on_c, 9, 36, 0
2, 192480, Note_on_c, 9, 42, 50
2, 192959, Note_on_c, 9, 42, 0
2, 192960, Note_on_c, 9, 38, 106
2, 192960, Note_on_c, 9, 42, 64
2, 193439, Note_on_c, 9, 38, 0
2, 193439, Note_on_c, 9, 42, 0
2, 193440, Note_on_c, 9, 42, 50
2, 193919, Note_on_c, 9, 42, 0
2, 193920, Note_on_c, 9, 42, 78
2, 193920, Note_on_c, 9, 36, 106
2, 194399, Note_on_c, 9, 42, 0
2, 194399, Note_on_c, 9, 36, 0
2, 194400, Note_on_c, 9, 42, 50
2, 194879, Note_on_c, 9, 42, 0
2, 194880, Note_on_c, 9, 38, 106
2, 194880, Note_on_c, 9, 42, 64
2, 195359, Note_on_c, 9, 38, 0
2, 195359, Note_on_c, 9, 42, 0
2, 195360, Note_on_c, 9, 42, 50
2, 195839, Note_on_c, 9, 42, 0
2, 195840, Note_on_c, 9, 42, 78
2, 195840, Note_on_c, 9, 36, 106
2, 196319, Note_on_c, 9, 42, 0
2, 196319, Note_on_c, 9, 36, 0
2, 196320, Note_on_c, 9, 42, 50
2, 196799, Note_on_c, 9, 42, 0
2, 196800, Note_on_c, 9, 38, 106
2, 196800, Note_on_c, 9, 42, 64
2, 197279, Note_on_c, 9, 38, 0
2, 197279, Note_on_c, 9, 42, 0
2, 197340, Note_on_c, 9, 42, 50
2, 197519, Note_on_c, 9, 42, 0
2, 197760, Note_on_c, 9, 36, 106
2, 198000, Note_on_c, 9, 48, 64
2, 198239, Note_on_c, 9, 36, 0
2, 198239, Note_on_c, 9, 48, 0
2, 198240, Note_on_c, 9, 48, 78
2, 198479, Note_on_c, 9, 48, 0
2, 198480, Note_on_c, 9, 48, 64
2, 198719, Note_on_c, 9, 48, 0
2, 198720, Note_on_c, 9, 45, 92
2, 198959, Note_on_c, 9, 45, 0
2, 198960, Note_on_c, 9, 45, 78
2, 199199, Note_on_c, 9, 45, 0
2, 199200, Note_on_c, 9, 41, 92
2, 199439, Note_on_c, 9, 41, 0
2, 199440, Note_on_c, 9, 41, 64
2, 199679, Note_on_c, 9, 41, 0
2, 199680, Note_on_c, 9, 36, 106
2, 200159, Note_on_c, 9, 36, 0
2, 200160, Note_on_c, 9, 45, 78
2, 200639, Note_on_c, 9, 45, 0
2, 200640, Note_on_c, 9, 45, 92
2, 201119, Note_on_c, 9, 45, 0
2, 201630, Note_on_c, 9, 41, 106
2, 201719, Note_on_c, 9, 41, 0
2, 201870, Note_on_c, 9, 41, 78
2, 201959, Note_on_c, 9, 41, 0
2, 202320, Note_on_c, 9, 41, 92
2, 202559, Note_on_c, 9, 41, 0
2, 202560, Note_on_c, 9, 41, 106
2, 202799, Note_on_c, 9, 41, 0
2, 202800, Note_on_c, 9, 41, 78
2, 203039, Note_on_c, 9, 41, 0
2, 203040, Note_on_c, 9, 41, 106
2, 203279, Note_on_c, 9, 41, 0
2, 203280, Note_on_c, 9, 41, 78
2, 203519, Note_on_c, 9, 41, 0
2, 203520, Note_on_c, 9, 49, 92
2, 203520, Note_on_c, 9, 36, 106
2, 203999, Note_on_c, 9, 49, 0
2, 203999, Note_on_c, 9, 36, 0
2, 204000, Note_on_c, 9, 49, 78
2, 204000, Note_on_c, 9, 36, 78
2, 204479, Note_on_c, 9, 49, 0
2, 204479, Note_on_c, 9, 36, 0
2, 204480, Note_on_c, 9, 38, 106
2, 204480, Note_on_c, 9, 42, 78
2, 204959, Note_on_c, 9, 38, 0
2, 204959, Note_on_c, 9, 42, 0
2, 204960, Note_on_c, 9, 42, 64
2, 205439, Note_on_c, 9, 42, 0
2, 205440, Note_on_c, 9, 42, 92
2, 205440, Note_on_c, 9, 36, 106
2, 205919, Note_on_c, 9, 42, 0
2, 205919, Note_on_c, 9, 36, 0
2, 205920, Note_on_c, 9, 42, 64
2, 205920, Note_on_c, 9, 36, 78
2, 206399, Note_on_c, 9, 42, 0
2, 206399, Note_on_c, 9, 36, 0
2, 206400, Note_on_c, 9, 38, 106
2, 206400, Note_on_c, 9, 42, 78
2, 206879, Note_on_c, 9, 38, 0
2, 206879, Note_on_c, 9, 42, 0
2, 206880, Note_on_c, 9, 42, 64
2, 207359, Note_on_c, 9, 42, 0
2, 207360, Note_on_c, 9, 41, 106
2, 207360, Note_on_c, 9, 36, 106
2, 207599, Note_on_c, 9, 41, 0
2, 207600, Note_on_c, 9, 41, 78
2, 207839, Note_on_c, 9, 36, 0
2, 207839, Note_on_c, 9, 41, 0
2, 207840, Note_on_c, 9, 41, 92
2, 207840, Note_on_c, 9, 36, 78
2, 208079, Note_on_c, 9, 41, 0
2, 208080, Note_on_c, 9, 41, 78
2, 208319, Note_on_c, 9, 36, 0
2, 208319, Note_on_c, 9, 41, 0
2, 208320, Note_on_c, 9, 38, 106
2, 208320, Note_on_c, 9, 49, 92
2, 208799, Note_on_c, 9, 38, 0
2, 208799, Note_on_c, 9, 49, 0
2, 208800, Note_on_c, 9, 45, 78
2, 209279, Note_on_c, 9, 45, 0
2, 209280, Note_on_c, 9, 41, 106
2, 209280, Note_on_c, 9, 36, 106
2, 209519, Note_on_c, 9, 41, 0
2, 209520, Note_on_c, 9, 41, 78
2, 209759, Note_on_c, 9, 36, 0
2, 209759, Note_on_c, 9, 41, 0
2, 209760, Note_on_c, 9, 41, 92
2, 209760, Note_on_c, 9, 36, 78
2, 209999, Note_on_c, 9, 41, 0
2, 210000, Note_on_c, 9, 41, 78
2, 210239, Note_on_c, 9, 36, 0
2, 210239, Note_on_c, 9, 41, 0
2, 210240, Note_on_c, 9, 41, 106
2, 210719, Note_on_c, 9, 41, 0
2, 210720, Note_on_c, 9, 38, 106
2, 211199, Note_on_c, 9, 38, 0
2, 211200, Note_on_c, 9, 49, 92
2, 211200, Note_on_c, 9, 36, 106
2, 211439, Note_on_c, 9, 49, 0
2, 211440, Note_on_c, 9, 41, 78
2, 211679, Note_on_c, 9, 36, 0
2, 211679, Note_on_c, 9, 41, 0
2, 211680, Note_on_c, 9, 41, 92
2, 211680, Note_on_c, 9, 36, 78
2, 211919, Note_on_c, 9, 41, 0
2, 211920, Note_on_c, 9, 41, 78
2, 212159, Note_on_c, 9, 36, 0
2, 212159, Note_on_c, 9, 41, 0
2, 212160, Note_on_c, 9, 38, 106
2, 212160, Note_on_c, 9, 49, 92
2, 212639, Note_on_c, 9, 38, 0
2, 212639, Note_on_c, 9, 49, 0
2, 212640, Note_on_c, 9, 49, 78
2, 213119, Note_on_c, 9, 49, 0
2, 213120, Note_on_c, 9, 41, 92
2, 213120, Note_on_c, 9, 36, 106
2, 213359, Note_on_c, 9, 41, 0
2, 213360, Note_on_c, 9, 41, 78
2, 213599, Note_on_c, 9, 36, 0
2, 213599, Note_on_c, 9, 41, 0
2, 213600, Note_on_c, 9, 41, 92
2, 213600, Note_on_c, 9, 36, 78
2, 213839, Note_on_c, 9, 41, 0
2, 213840, Note_on_c, 9, 41, 78
2, 214079, Note_on_c, 9, 36, 0
2, 214079, Note_on_c, 9, 41, 0
2, 214080, Note_on_c, 9, 38, 106
2, 214080, Note_on_c, 9, 49, 92
2, 214559, Note_on_c, 9, 38, 0
2, 214559, Note_on_c, 9, 49, 0
2, 214560, Note_on_c, 9, 38, 92
2, 214560, Note_on_c, 9, 49, 78
2, 215039, Note_on_c, 9, 38, 0
2, 215039, Note_on_c, 9, 49, 0
2, 215040, Note_on_c, 9, 41, 106
2, 215040, Note_on_c, 9, 36, 106
2, 215279, Note_on_c, 9, 41, 0
2, 215280, Note_on_c, 9, 41, 78
2, 215519, Note_on_c, 9, 36, 0
2, 215519, Note_on_c, 9, 41, 0
2, 215520, Note_on_c, 9, 41, 92
2, 215520, Note_on_c, 9, 36, 78
2, 215759, Note_on_c, 9, 41, 0
2, 215760, Note_on_c, 9, 41, 78
2, 215999, Note_on_c, 9, 36, 0
2, 215999, Note_on_c, 9, 41, 0
2, 216000, Note_on_c, 9, 41, 106
2, 216479, Note_on_c, 9, 41, 0
2, 216480, Note_on_c, 9, 41, 92
2, 216719, Note_on_c, 9, 41, 0
2, 216720, Note_on_c, 9, 41, 78
2, 216959, Note_on_c, 9, 41, 0
2, 216960, Note_on_c, 9, 41, 106
2, 217199, Note_on_c, 9, 41, 0
2, 217200, Note_on_c, 9, 41, 78
2, 217439, Note_on_c, 9, 41, 0
2, 217440, Note_on_c, 9, 41, 92
2, 217679, Note_on_c, 9, 41, 0
2, 217680, Note_on_c, 9, 41, 78
2, 217919, Note_on_c, 9, 41, 0
2, 217920, Note_on_c, 9, 41, 106
2, 218159, Note_on_c, 9, 41, 0
2, 218160, Note_on_c, 9, 41, 78
2, 218399, Note_on_c, 9, 41, 0
2, 218400, Note_on_c, 9, 41, 92
2, 218639, Note_on_c, 9, 41, 0
2, 218640, Note_on_c, 9, 41, 78
2, 218879, Note_on_c, 9, 41, 0
2, 218880, Note_on_c, 9, 49, 92
2, 218880, Note_on_c, 9, 36, 106
2, 219359, Note_on_c, 9, 49, 0
2, 219359, Note_on_c, 9, 36, 0
2, 219360, Note_on_c, 9, 49, 78
2, 219360, Note_on_c, 9, 36, 78
2, 219839, Note_on_c, 9, 49, 0
2, 219839, Note_on_c, 9, 36, 0
2, 219840, Note_on_c, 9, 38, 106
2, 219840, Note_on_c, 9, 42, 64
2, 220319, Note_on_c, 9, 38, 0
2, 220319, Note_on_c, 9, 42, 0
2, 220320, Note_on_c, 9, 42, 50
2, 220799, Note_on_c, 9, 42, 0
2, 220800, Note_on_c, 9, 42, 78
2, 220800, Note_on_c, 9, 36, 106
2, 221279, Note_on_c, 9, 42, 0
2, 221279, Note_on_c, 9, 36, 0
2, 221280, Note_on_c, 9, 42, 50
2, 221280, Note_on_c, 9, 36, 78
2, 221759, Note_on_c, 9, 42, 0
2, 221759, Note_on_c, 9, 36, 0
2, 221760, Note_on_c, 9, 38, 106
2, 221760, Note_on_c, 9, 42, 64
2, 222239, Note_on_c, 9, 38, 0
2, 222239, Note_on_c, 9, 42, 0
2, 222240, Note_on_c, 9, 42, 50
2, 222719, Note_on_c, 9, 42, 0
2, 222720, Note_on_c, 9, 49, 92
2, 222720, Note_on_c, 9, 36, 106
2, 223199, Note_on_c, 9, 49, 0
2, 223199, Note_on_c, 9, 36, 0
2, 223200, Note_on_c, 9, 42, 50
2, 223679, Note_on_c, 9, 42, 0
2, 223680, Note_on_c, 9, 38, 120
2, 223680, Note_on_c, 9, 42, 64
2, 224159, Note_on_c, 9, 38, 0
2, 224159, Note_on_c, 9, 42, 0
2, 224160, Note_on_c, 9, 38, 106
2, 224160, Note_on_c, 9, 42, 50
2, 224639, Note_on_c, 9, 38, 0
2, 224639, Note_on_c, 9, 42, 0
2, 224640, Note_on_c, 9, 42, 78
2, 224640, Note_on_c, 9, 36, 106
2, 224879, Note_on_c, 9, 42, 0
2, 224880, Note_on_c, 9, 45, 64
2, 225119, Note_on_c, 9, 36, 0
2, 225119, Note_on_c, 9, 45, 0
2, 225120, Note_on_c, 9, 45, 78
2, 225359, Note_on_c, 9, 45, 0
2, 225360, Note_on_c, 9, 45, 64
2, 225599, Note_on_c, 9, 45, 0
2, 225600, Note_on_c, 9, 45, 92
2, 225839, Note_on_c, 9, 45, 0
2, 225840, Note_on_c, 9, 45, 64
2, 226079, Note_on_c, 9, 45, 0
2, 226080, Note_on_c, 9, 41, 78
2, 226319, Note_on_c, 9, 41, 0
2, 226320, Note_on_c, 9, 41, 64
2, 226559, Note_on_c, 9, 41, 0
2, 226560, Note_on_c, 9, 49, 92
2, 226560, Note_on_c, 9, 36, 106
2, 227039, Note_on_c, 9, 49, 0
2, 227039, Note_on_c, 9, 36, 0
2, 227040, Note_on_c, 9, 49, 78
2, 227040, Note_on_c, 9, 36, 78
2, 227519, Note_on_c, 9, 49, 0
2, 227519, Note_on_c, 9, 36, 0
2, 227520, Note_on_c, 9, 38, 106
2, 227520, Note_on_c, 9, 42, 64
2, 227999, Note_on_c, 9, 38, 0
2, 227999, Note_on_c, 9, 42, 0
2, 228000, Note_on_c, 9, 42, 50
2, 228479, Note_on_c, 9, 42, 0
2, 228480, Note_on_c, 9, 48, 92
2, 228719, Note_on_c, 9, 48, 0
2, 228720, Note_on_c, 9, 48, 64
2, 228959, Note_on_c, 9, 48, 0
2, 228960, Note_on_c, 9, 48, 78
2, 229199, Note_on_c, 9, 48, 0
2, 229200, Note_on_c, 9, 45, 50
2, 229439, Note_on_c, 9, 45, 0
2, 229440, Note_on_c, 9, 45, 92
2, 229679, Note_on_c, 9, 45, 0
2, 229680, Note_on_c, 9, 45, 64
2, 229919, Note_on_c, 9, 45, 0
2, 229920, Note_on_c, 9, 41, 78
2, 230159, Note_on_c, 9, 41, 0
2, 230160, Note_on_c, 9, 41, 50
2, 230399, Note_on_c, 9, 41, 0
2, 230400, Note_on_c, 9, 49, 92
2, 230400, Note_on_c, 9, 36, 106
2, 230879, Note_on_c, 9, 49, 0
2, 230879, Note_on_c, 9, 36, 0
2, 231180, Note_on_c, 9, 36, 106
2, 231359, Note_on_c, 9, 36, 0
2, 231540, Note_on_c, 9, 48, 78
2, 231599, Note_on_c, 9, 48, 0
2, 231840, Note_on_c, 9, 36, 106
2, 232319, Note_on_c, 9, 36, 0
2, 232320, Note_on_c, 9, 48, 92
2, 232799, Note_on_c, 9, 48, 0
2, 233280, Note_on_c, 9, 48, 78
2, 233759, Note_on_c, 9, 48, 0
2, 233760, Note_on_c, 9, 49, 92
2, 233760, Note_on_c, 9, 36, 106
2, 234239, Note_on_c, 9, 49, 0
2, 234239, Note_on_c, 9, 36, 0
2, 234240, Note_on_c, 9, 48, 78
2, 234479, Note_on_c, 9, 48, 0
2, 234480, Note_on_c, 9, 48, 64
2, 234719, Note_on_c, 9, 48, 0
2, 234720, Note_on_c, 9, 48, 92
2, 234720, Note_on_c, 9, 36, 106
2, 235199, Note_on_c, 9, 48, 0
2, 235199, Note_on_c, 9, 36, 0
2, 235200, Note_on_c, 9, 48, 78
2, 235439, Note_on_c, 9, 48, 0
2, 235440, Note_on_c, 9, 48, 64
2, 235679, Note_on_c, 9, 48, 0
2, 235680, Note_on_c, 9, 36, 106
2, 236159, Note_on_c, 9, 36, 0
2, 236160, Note_on_c, 9, 45, 78
2, 236639, Note_on_c, 9, 45, 0
2, 236640, Note_on_c, 9, 45, 92
2, 236879, Note_on_c, 9, 45, 0
2, 236880, Note_on_c, 9, 45, 50
2, 237119, Note_on_c, 9, 45, 0
2, 237120, Note_on_c, 9, 45, 64
2, 237599, Note_on_c, 9, 45, 0
2, 237600, Note_on_c, 9, 49, 92
2, 237600, Note_on_c, 9, 36, 106
2, 238079, Note_on_c, 9, 49, 0
2, 238079, Note_on_c, 9, 36, 0
2, 240960, Note_on_c, 9, 49, 92
2, 240960, Note_on_c, 9, 36, 106
2, 241439, Note_on_c, 9, 49, 0
2, 241439, Note_on_c, 9, 36, 0
2, 241440, Note_on_c, 9, 49, 92
2, 241440, Note_on_c, 9, 36, 106
2, 241919, Note_on_c, 9, 49, 0
2, 241919, Note_on_c, 9, 36, 0
2, 241920, End_track
0, 0, End_of_file
