0, 0, Header, 1, 3, 480
1, 0, Start_track
1, 0, Time_signature, 4, 2, 24, 8
1, 0, Key_signature, 0, "major"
1, 0, Tempo, 461538
1, 0, Control_c, 9, 121, 0
1, 0, Program_c, 9, 0
1, 0, Control_c, 9, 7, 120
1, 0, Control_c, 9, 10, 64
1, 0, Control_c, 9, 91, 0
1, 0, Control_c, 9, 93, 0
1, 0, MIDI_port, 0
1, 1920, Note_on_c, 9, 42, 100
1, 2399, Note_on_c, 9, 42, 0
1, 2400, Note_on_c, 9, 42, 100
1, 2879, Note_on_c, 9, 42, 0
1, 2880, Note_on_c, 9, 42, 100
1, 3359, Note_on_c, 9, 42, 0
1, 3360, Note_on_c, 9, 42, 100
1, 3839, Note_on_c, 9, 42, 0
1, 3840, Note_on_c, 9, 49, 127
1, 4319, Note_on_c, 9, 49, 0
1, 4320, Note_on_c, 9, 42, 100
1, 4799, Note_on_c, 9, 42, 0
1, 4800, Note_on_c, 9, 42, 100
1, 5279, Note_on_c, 9, 42, 0
1, 5280, Note_on_c, 9, 42, 100
1, 5759, Note_on_c, 9, 42, 0
1, 5760, Note_on_c, 9, 42, 100
1, 6239, Note_on_c, 9, 42, 0
1, 6240, Note_on_c, 9, 42, 100
1, 6719, Note_on_c, 9, 42, 0
1, 6720, Note_on_c, 9, 42, 100
1, 7199, Note_on_c, 9, 42, 0
1, 7200, Note_on_c, 9, 42, 100
1, 7679, Note_on_c, 9, 42, 0
1, 7680, Note_on_c, 9, 49, 127
1, 8159, Note_on_c, 9, 49, 0
1, 8160, Note_on_c, 9, 42, 100
1, 8639, Note_on_c, 9, 42, 0
1, 8640, Note_on_c, 9, 42, 100
1, 9119, Note_on_c, 9, 42, 0
1, 9120, Note_on_c, 9, 42, 100
1, 9599, Note_on_c, 9, 42, 0
1, 9600, Note_on_c, 9, 42, 100
1, 10079, Note_on_c, 9, 42, 0
1, 10080, Note_on_c, 9, 42, 100
1, 10559, Note_on_c, 9, 42, 0
1, 10560, Note_on_c, 9, 42, 100
1, 11039, Note_on_c, 9, 42, 0
1, 11040, Note_on_c, 9, 42, 100
1, 11519, Note_on_c, 9, 42, 0
1, 11520, Note_on_c, 9, 42, 100
1, 11999, Note_on_c, 9, 42, 0
1, 12000, Note_on_c, 9, 42, 100
1, 12479, Note_on_c, 9, 42, 0
1, 12480, Note_on_c, 9, 42, 100
1, 12959, Note_on_c, 9, 42, 0
1, 12960, Note_on_c, 9, 42, 100
1, 13439, Note_on_c, 9, 42, 0
1, 13440, Note_on_c, 9, 42, 100
1, 13919, Note_on_c, 9, 42, 0
1, 13920, Note_on_c, 9, 42, 100
1, 14399, Note_on_c, 9, 42, 0
1, 14400, Note_on_c, 9, 42, 100
1, 14879, Note_on_c, 9, 42, 0
1, 14880, Note_on_c, 9, 42, 100
1, 15359, Note_on_c, 9, 42, 0
1, 15360, Note_on_c, 9, 42, 100
1, 15839, Note_on_c, 9, 42, 0
1, 15840, Note_on_c, 9, 42, 100
1, 16319, Note_on_c, 9, 42, 0
1, 16320, Note_on_c, 9, 42, 100
1, 16799, Note_on_c, 9, 42, 0
1, 16800, Note_on_c, 9, 42, 100
1, 17279, Note_on_c, 9, 42, 0
1, 17280, Note_on_c, 9, 42, 100
1, 17759, Note_on_c, 9, 42, 0
1, 17760, Note_on_c, 9, 42, 100
1, 18239, Note_on_c, 9, 42, 0
1, 18240, Note_on_c, 9, 42, 100
1, 18719, Note_on_c, 9, 42, 0
1, 18720, Note_on_c, 9, 42, 100
1, 19199, Note_on_c, 9, 42, 0
1, 19200, Note_on_c, 9, 42, 100
1, 19679, Note_on_c, 9, 42, 0
1, 19680, Note_on_c, 9, 42, 100
1, 20159, Note_on_c, 9, 42, 0
1, 20160, Note_on_c, 9, 42, 100
1, 20639, Note_on_c, 9, 42, 0
1, 20640, Note_on_c, 9, 42, 100
1, 21119, Note_on_c, 9, 42, 0
1, 21120, Note_on_c, 9, 42, 100
1, 21599, Note_on_c, 9, 42, 0
1, 21600, Note_on_c, 9, 42, 100
1, 22079, Note_on_c, 9, 42, 0
1, 22080, Note_on_c, 9, 42, 100
1, 22559, Note_on_c, 9, 42, 0
1, 22560, Note_on_c, 9, 42, 100
1, 23039, Note_on_c, 9, 42, 0
1, 23040, Note_on_c, 9, 42, 100
1, 23519, Note_on_c, 9, 42, 0
1, 23520, Note_on_c, 9, 42, 100
1, 23999, Note_on_c, 9, 42, 0
1, 24000, Note_on_c, 9, 42, 100
1, 24479, Note_on_c, 9, 42, 0
1, 24480, Note_on_c, 9, 42, 100
1, 24959, Note_on_c, 9, 42, 0
1, 24960, Note_on_c, 9, 42, 100
1, 25439, Note_on_c, 9, 42, 0
1, 25440, Note_on_c, 9, 42, 100
1, 25919, Note_on_c, 9, 42, 0
1, 25920, Note_on_c, 9, 42, 100
1, 26399, Note_on_c, 9, 42, 0
1, 26400, Note_on_c, 9, 42, 100
1, 26879, Note_on_c, 9, 42, 0
1, 26880, Note_on_c, 9, 42, 100
1, 27359, Note_on_c, 9, 42, 0
1, 27360, Note_on_c, 9, 42, 100
1, 27839, Note_on_c, 9, 42, 0
1, 27840, Note_on_c, 9, 42, 100
1, 28319, Note_on_c, 9, 42, 0
1, 28320, Note_on_c, 9, 42, 100
1, 28799, Note_on_c, 9, 42, 0
1, 28800, Note_on_c, 9, 42, 100
1, 29279, Note_on_c, 9, 42, 0
1, 29280, Note_on_c, 9, 42, 100
1, 29759, Note_on_c, 9, 42, 0
1, 29760, Note_on_c, 9, 42, 100
1, 30239, Note_on_c, 9, 42, 0
1, 30240, Note_on_c, 9, 42, 100
1, 30719, Note_on_c, 9, 42, 0
1, 30720, Note_on_c, 9, 42, 100
1, 31199, Note_on_c, 9, 42, 0
1, 31200, Note_on_c, 9, 42, 100
1, 31679, Note_on_c, 9, 42, 0
1, 31680, Note_on_c, 9, 42, 100
1, 32159, Note_on_c, 9, 42, 0
1, 32160, Note_on_c, 9, 42, 100
1, 32639, Note_on_c, 9, 42, 0
1, 32640, Note_on_c, 9, 42, 100
1, 33119, Note_on_c, 9, 42, 0
1, 33120, Note_on_c, 9, 42, 100
1, 33599, Note_on_c, 9, 42, 0
1, 33600, Note_on_c, 9, 42, 100
1, 34079, Note_on_c, 9, 42, 0
1, 34080, Note_on_c, 9, 42, 100
1, 34559, Note_on_c, 9, 42, 0
1, 34560, Note_on_c, 9, 42, 100
1, 35039, Note_on_c, 9, 42, 0
1, 35040, Note_on_c, 9, 42, 100
1, 35519, Note_on_c, 9, 42, 0
1, 35520, Note_on_c, 9, 42, 100
1, 35999, Note_on_c, 9, 42, 0
1, 36000, Note_on_c, 9, 42, 100
1, 36479, Note_on_c, 9, 42, 0
1, 36480, Note_on_c, 9, 42, 100
1, 36959, Note_on_c, 9, 42, 0
1, 36960, Note_on_c, 9, 42, 100
1, 37439, Note_on_c, 9, 42, 0
1, 37440, Note_on_c, 9, 42, 100
1, 37919, Note_on_c, 9, 42, 0
1, 37920, Note_on_c, 9, 42, 100
1, 38399, Note_on_c, 9, 42, 0
1, 38400, Note_on_c, 9, 42, 100
1, 38879, Note_on_c, 9, 42, 0
1, 38880, Note_on_c, 9, 42, 100
1, 39359, Note_on_c, 9, 42, 0
1, 39360, Note_on_c, 9, 42, 100
1, 39839, Note_on_c, 9, 42, 0
1, 39840, Note_on_c, 9, 42, 100
1, 40319, Note_on_c, 9, 42, 0
1, 40320, Note_on_c, 9, 42, 100
1, 40799, Note_on_c, 9, 42, 0
1, 40800, Note_on_c, 9, 42, 100
1, 41279, Note_on_c, 9, 42, 0
1, 41280, Note_on_c, 9, 42, 100
1, 41759, Note_on_c, 9, 42, 0
1, 41760, Note_on_c, 9, 42, 100
1, 42239, Note_on_c, 9, 42, 0
1, 42240, Note_on_c, 9, 42, 100
1, 42719, Note_on_c, 9, 42, 0
1, 42720, Note_on_c, 9, 42, 100
1, 43199, Note_on_c, 9, 42, 0
1, 43200, Note_on_c, 9, 42, 100
1, 43679, Note_on_c, 9, 42, 0
1, 43680, Note_on_c, 9, 42, 100
1, 44159, Note_on_c, 9, 42, 0
1, 44160, Note_on_c, 9, 42, 100
1, 44639, Note_on_c, 9, 42, 0
1, 44640, Note_on_c, 9, 42, 100
1, 45119, Note_on_c, 9, 42, 0
1, 45120, Note_on_c, 9, 42, 100
1, 45599, Note_on_c, 9, 42, 0
1, 45600, Note_on_c, 9, 42, 100
1, 46079, Note_on_c, 9, 42, 0
1, 46080, Note_on_c, 9, 42, 100
1, 46559, Note_on_c, 9, 42, 0
1, 46560, Note_on_c, 9, 42, 100
1, 47039, Note_on_c, 9, 42, 0
1, 47040, Note_on_c, 9, 42, 100
1, 47519, Note_on_c, 9, 42, 0
1, 47520, Note_on_c, 9, 42, 100
1, 47999, Note_on_c, 9, 42, 0
1, 48000, Note_on_c, 9, 42, 100
1, 48479, Note_on_c, 9, 42, 0
1, 48480, Note_on_c, 9, 42, 100
1, 48959, Note_on_c, 9, 42, 0
1, 48960, Note_on_c, 9, 42, 100
1, 49439, Note_on_c, 9, 42, 0
1, 49440, Note_on_c, 9, 42, 100
1, 49919, Note_on_c, 9, 42, 0
1, 49920, Note_on_c, 9, 46, 90
1, 50159, Note_on_c, 9, 46, 0
1, 50160, Note_on_c, 9, 46, 95
1, 50399, Note_on_c, 9, 46, 0
1, 50400, Note_on_c, 9, 46, 100
1, 50639, Note_on_c, 9, 46, 0
1, 50640, Note_on_c, 9, 46, 105
1, 50879, Note_on_c, 9, 46, 0
1, 50880, Note_on_c, 9, 46, 110
1, 51119, Note_on_c, 9, 46, 0
1, 51120, Note_on_c, 9, 46, 115
1, 51359, Note_on_c, 9, 46, 0
1, 51360, Note_on_c, 9, 46, 120
1, 51599, Note_on_c, 9, 46, 0
1, 51600, Note_on_c, 9, 46, 127
1, 51839, Note_on_c, 9, 46, 0
1, 51840, Note_on_c, 9, 42, 100
1, 52319, Note_on_c, 9, 42, 0
1, 52320, Note_on_c, 9, 42, 100
1, 52799, Note_on_c, 9, 42, 0
1, 52800, Note_on_c, 9, 42, 100
1, 53279, Note_on_c, 9, 42, 0
1, 53280, Note_on_c, 9, 42, 100
1, 53759, Note_on_c, 9, 42, 0
1, 53760, Note_on_c, 9, 49, 127
1, 54239, Note_on_c, 9, 49, 0
1, 54240, Note_on_c, 9, 42, 100
1, 54719, Note_on_c, 9, 42, 0
1, 54720, Note_on_c, 9, 42, 100
1, 55199, Note_on_c, 9, 42, 0
1, 55200, Note_on_c, 9, 42, 100
1, 55679, Note_on_c, 9, 42, 0
1, 55680, Note_on_c, 9, 42, 100
1, 56159, Note_on_c, 9, 42, 0
1, 56160, Note_on_c, 9, 42, 100
1, 56639, Note_on_c, 9, 42, 0
1, 56640, Note_on_c, 9, 42, 100
1, 57119, Note_on_c, 9, 42, 0
1, 57120, Note_on_c, 9, 42, 100
1, 57599, Note_on_c, 9, 42, 0
1, 57600, Note_on_c, 9, 49, 127
1, 58079, Note_on_c, 9, 49, 0
1, 58080, Note_on_c, 9, 42, 100
1, 58559, Note_on_c, 9, 42, 0
1, 58560, Note_on_c, 9, 42, 100
1, 59039, Note_on_c, 9, 42, 0
1, 59040, Note_on_c, 9, 42, 100
1, 59519, Note_on_c, 9, 42, 0
1, 59520, Note_on_c, 9, 42, 100
1, 59999, Note_on_c, 9, 42, 0
1, 60000, Note_on_c, 9, 42, 100
1, 60479, Note_on_c, 9, 42, 0
1, 60480, Note_on_c, 9, 42, 100
1, 60959, Note_on_c, 9, 42, 0
1, 60960, Note_on_c, 9, 42, 100
1, 61439, Note_on_c, 9, 42, 0
1, 61440, Note_on_c, 9, 42, 100
1, 61919, Note_on_c, 9, 42, 0
1, 61920, Note_on_c, 9, 42, 100
1, 62399, Note_on_c, 9, 42, 0
1, 62400, Note_on_c, 9, 42, 100
1, 62879, Note_on_c, 9, 42, 0
1, 62880, Note_on_c, 9, 42, 100
1, 63359, Note_on_c, 9, 42, 0
1, 63360, Note_on_c, 9, 42, 100
1, 63839, Note_on_c, 9, 42, 0
1, 63840, Note_on_c, 9, 42, 100
1, 64319, Note_on_c, 9, 42, 0
1, 64320, Note_on_c, 9, 42, 100
1, 64799, Note_on_c, 9, 42, 0
1, 64800, Note_on_c, 9, 42, 100
1, 65279, Note_on_c, 9, 42, 0
1, 65280, Note_on_c, 9, 42, 100
1, 65759, Note_on_c, 9, 42, 0
1, 65760, Note_on_c, 9, 42, 100
1, 66239, Note_on_c, 9, 42, 0
1, 66240, Note_on_c, 9, 42, 100
1, 66719, Note_on_c, 9, 42, 0
1, 66720, Note_on_c, 9, 42, 100
1, 67199, Note_on_c, 9, 42, 0
1, 67200, Note_on_c, 9, 42, 100
1, 67679, Note_on_c, 9, 42, 0
1, 67680, Note_on_c, 9, 42, 100
1, 68159, Note_on_c, 9, 42, 0
1, 68160, Note_on_c, 9, 42, 100
1, 68639, Note_on_c, 9, 42, 0
1, 68640, Note_on_c, 9, 42, 100
1, 69119, Note_on_c, 9, 42, 0
1, 69120, Note_on_c, 9, 42, 100
1, 69599, Note_on_c, 9, 42, 0
1, 69600, Note_on_c, 9, 42, 100
1, 70079, Note_on_c, 9, 42, 0
1, 70080, Note_on_c, 9, 42, 100
1, 70559, Note_on_c, 9, 42, 0
1, 70560, Note_on_c, 9, 42, 100
1, 71039, Note_on_c, 9, 42, 0
1, 71040, Note_on_c, 9, 42, 100
1, 71519, Note_on_c, 9, 42, 0
1, 71520, Note_on_c, 9, 42, 100
1, 71999, Note_on_c, 9, 42, 0
1, 72000, Note_on_c, 9, 42, 100
1, 72479, Note_on_c, 9, 42, 0
1, 72480, Note_on_c, 9, 42, 100
1, 72959, Note_on_c, 9, 42, 0
1, 72960, Note_on_c, 9, 42, 100
1, 73439, Note_on_c, 9, 42, 0
1, 73440, Note_on_c, 9, 42, 100
1, 73919, Note_on_c, 9, 42, 0
1, 73920, Note_on_c, 9, 42, 100
1, 74399, Note_on_c, 9, 42, 0
1, 74400, Note_on_c, 9, 42, 100
1, 74879, Note_on_c, 9, 42, 0
1, 74880, Note_on_c, 9, 42, 100
1, 75359, Note_on_c, 9, 42, 0
1, 75360, Note_on_c, 9, 42, 100
1, 75839, Note_on_c, 9, 42, 0
1, 75840, Note_on_c, 9, 42, 100
1, 76319, Note_on_c, 9, 42, 0
1, 76320, Note_on_c, 9, 42, 100
1, 76799, Note_on_c, 9, 42, 0
1, 76800, Note_on_c, 9, 42, 100
1, 77279, Note_on_c, 9, 42, 0
1, 77280, Note_on_c, 9, 42, 100
1, 77759, Note_on_c, 9, 42, 0
1, 77760, Note_on_c, 9, 42, 100
1, 78239, Note_on_c, 9, 42, 0
1, 78240, Note_on_c, 9, 42, 100
1, 78719, Note_on_c, 9, 42, 0
1, 78720, Note_on_c, 9, 42, 100
1, 79199, Note_on_c, 9, 42, 0
1, 79200, Note_on_c, 9, 42, 100
1, 79679, Note_on_c, 9, 42, 0
1, 79680, Note_on_c, 9, 42, 100
1, 80159, Note_on_c, 9, 42, 0
1, 80160, Note_on_c, 9, 42, 100
1, 80639, Note_on_c, 9, 42, 0
1, 80640, Note_on_c, 9, 42, 100
1, 81119, Note_on_c, 9, 42, 0
1, 81120, Note_on_c, 9, 42, 100
1, 81599, Note_on_c, 9, 42, 0
1, 81600, Note_on_c, 9, 42, 100
1, 82079, Note_on_c, 9, 42, 0
1, 82080, Note_on_c, 9, 42, 100
1, 82559, Note_on_c, 9, 42, 0
1, 82560, Note_on_c, 9, 42, 100
1, 83039, Note_on_c, 9, 42, 0
1, 83040, Note_on_c, 9, 42, 100
1, 83519, Note_on_c, 9, 42, 0
1, 83520, Note_on_c, 9, 42, 100
1, 83999, Note_on_c, 9, 42, 0
1, 84000, Note_on_c, 9, 42, 100
1, 84479, Note_on_c, 9, 42, 0
1, 84480, Note_on_c, 9, 42, 100
1, 84959, Note_on_c, 9, 42, 0
1, 84960, Note_on_c, 9, 42, 100
1, 85439, Note_on_c, 9, 42, 0
1, 85440, Note_on_c, 9, 42, 100
1, 85919, Note_on_c, 9, 42, 0
1, 85920, Note_on_c, 9, 42, 100
1, 86399, Note_on_c, 9, 42, 0
1, 86400, Note_on_c, 9, 42, 100
1, 86879, Note_on_c, 9, 42, 0
1, 86880, Note_on_c, 9, 42, 100
1, 87359, Note_on_c, 9, 42, 0
1, 87360, Note_on_c, 9, 42, 100
1, 87839, Note_on_c, 9, 42, 0
1, 87840, Note_on_c, 9, 42, 100
1, 88319, Note_on_c, 9, 42, 0
1, 88320, Note_on_c, 9, 42, 100
1, 88799, Note_on_c, 9, 42, 0
1, 88800, Note_on_c, 9, 42, 100
1, 89279, Note_on_c, 9, 42, 0
1, 89280, Note_on_c, 9, 42, 100
1, 89759, Note_on_c, 9, 42, 0
1, 89760, Note_on_c, 9, 42, 100
1, 90239, Note_on_c, 9, 42, 0
1, 90240, Note_on_c, 9, 42, 100
1, 90719, Note_on_c, 9, 42, 0
1, 90720, Note_on_c, 9, 42, 100
1, 91199, Note_on_c, 9, 42, 0
1, 91200, Note_on_c, 9, 42, 100
1, 91679, Note_on_c, 9, 42, 0
1, 91680, Note_on_c, 9, 42, 100
1, 92159, Note_on_c, 9, 42, 0
1, 92160, Note_on_c, 9, 42, 100
1, 92639, Note_on_c, 9, 42, 0
1, 92640, Note_on_c, 9, 42, 100
1, 93119, Note_on_c, 9, 42, 0
1, 93120, Note_on_c, 9, 42, 100
1, 93599, Note_on_c, 9, 42, 0
1, 93600, Note_on_c, 9, 42, 100
1, 94079, Note_on_c, 9, 42, 0
1, 94080, Note_on_c, 9, 42, 100
1, 94559, Note_on_c, 9, 42, 0
1, 94560, Note_on_c, 9, 42, 100
1, 95039, Note_on_c, 9, 42, 0
1, 95040, Note_on_c, 9, 42, 100
1, 95519, Note_on_c, 9, 42, 0
1, 95520, Note_on_c, 9, 42, 100
1, 95999, Note_on_c, 9, 42, 0
1, 96000, Note_on_c, 9, 42, 100
1, 96479, Note_on_c, 9, 42, 0
1, 96480, Note_on_c, 9, 42, 100
1, 96959, Note_on_c, 9, 42, 0
1, 96960, Note_on_c, 9, 42, 100
1, 97439, Note_on_c, 9, 42, 0
1, 97440, Note_on_c, 9, 42, 100
1, 97919, Note_on_c, 9, 42, 0
1, 97920, Note_on_c, 9, 42, 100
1, 98399, Note_on_c, 9, 42, 0
1, 98400, Note_on_c, 9, 42, 100
1, 98879, Note_on_c, 9, 42, 0
1, 98880, Note_on_c, 9, 42, 100
1, 99359, Note_on_c, 9, 42, 0
1, 99360, Note_on_c, 9, 42, 100
1, 99839, Note_on_c, 9, 42, 0
1, 99840, Note_on_c, 9, 46, 90
1, 100079, Note_on_c, 9, 46, 0
1, 100080, Note_on_c, 9, 46, 95
1, 100319, Note_on_c, 9, 46, 0
1, 100320, Note_on_c, 9, 46, 100
1, 100559, Note_on_c, 9, 46, 0
1, 100560, Note_on_c, 9, 46, 105
1, 100799, Note_on_c, 9, 46, 0
1, 100800, Note_on_c, 9, 46, 110
1, 101039, Note_on_c, 9, 46, 0
1, 101040, Note_on_c, 9, 46, 115
1, 101279, Note_on_c, 9, 46, 0
1, 101280, Note_on_c, 9, 46, 120
1, 101519, Note_on_c, 9, 46, 0
1, 101520, Note_on_c, 9, 46, 127
1, 101759, Note_on_c, 9, 46, 0
1, 101760, Note_on_c, 9, 42, 100
1, 102239, Note_on_c, 9, 42, 0
1, 102240, Note_on_c, 9, 42, 100
1, 102719, Note_on_c, 9, 42, 0
1, 102720, Note_on_c, 9, 42, 100
1, 103199, Note_on_c, 9, 42, 0
1, 103200, Note_on_c, 9, 42, 100
1, 103679, Note_on_c, 9, 42, 0
1, 103680, Note_on_c, 9, 49, 127
1, 104159, Note_on_c, 9, 49, 0
1, 104160, Note_on_c, 9, 42, 100
1, 104639, Note_on_c, 9, 42, 0
1, 104640, Note_on_c, 9, 42, 100
1, 105119, Note_on_c, 9, 42, 0
1, 105120, Note_on_c, 9, 42, 100
1, 105599, Note_on_c, 9, 42, 0
1, 105600, Note_on_c, 9, 42, 100
1, 106079, Note_on_c, 9, 42, 0
1, 106080, Note_on_c, 9, 42, 100
1, 106559, Note_on_c, 9, 42, 0
1, 106560, Note_on_c, 9, 42, 100
1, 107039, Note_on_c, 9, 42, 0
1, 107040, Note_on_c, 9, 42, 100
1, 107519, Note_on_c, 9, 42, 0
1, 107520, Note_on_c, 9, 49, 127
1, 107999, Note_on_c, 9, 49, 0
1, 108000, Note_on_c, 9, 42, 100
1, 108479, Note_on_c, 9, 42, 0
1, 108480, Note_on_c, 9, 42, 100
1, 108959, Note_on_c, 9, 42, 0
1, 108960, Note_on_c, 9, 42, 100
1, 109439, Note_on_c, 9, 42, 0
1, 109440, Note_on_c, 9, 42, 100
1, 109919, Note_on_c, 9, 42, 0
1, 109920, Note_on_c, 9, 42, 100
1, 110399, Note_on_c, 9, 42, 0
1, 110400, Note_on_c, 9, 42, 100
1, 110879, Note_on_c, 9, 42, 0
1, 110880, Note_on_c, 9, 42, 100
1, 111359, Note_on_c, 9, 42, 0
1, 111360, Note_on_c, 9, 49, 127
1, 111839, Note_on_c, 9, 49, 0
1, 111840, Note_on_c, 9, 42, 100
1, 112319, Note_on_c, 9, 42, 0
1, 112320, Note_on_c, 9, 42, 100
1, 112799, Note_on_c, 9, 42, 0
1, 112800, Note_on_c, 9, 42, 100
1, 113279, Note_on_c, 9, 42, 0
1, 113280, Note_on_c, 9, 42, 100
1, 113759, Note_on_c, 9, 42, 0
1, 113760, Note_on_c, 9, 42, 100
1, 114239, Note_on_c, 9, 42, 0
1, 114240, Note_on_c, 9, 42, 100
1, 114719, Note_on_c, 9, 42, 0
1, 114720, Note_on_c, 9, 46, 127
1, 115199, Note_on_c, 9, 46, 0
1, 115200, Note_on_c, 9, 42, 100
1, 115679, Note_on_c, 9, 42, 0
1, 115680, Note_on_c, 9, 42, 100
1, 116159, Note_on_c, 9, 42, 0
1, 116160, Note_on_c, 9, 42, 100
1, 116639, Note_on_c, 9, 42, 0
1, 116640, Note_on_c, 9, 46, 127
1, 117119, Note_on_c, 9, 46, 0
1, 117120, Note_on_c, 9, 42, 100
1, 117599, Note_on_c, 9, 42, 0
1, 117600, Note_on_c, 9, 42, 100
1, 118079, Note_on_c, 9, 42, 0
1, 118080, Note_on_c, 9, 42, 100
1, 118559, Note_on_c, 9, 42, 0
1, 118560, Note_on_c, 9, 46, 127
1, 119039, Note_on_c, 9, 46, 0
1, 119040, Note_on_c, 9, 42, 100
1, 119519, Note_on_c, 9, 42, 0
1, 119520, Note_on_c, 9, 42, 100
1, 119999, Note_on_c, 9, 42, 0
1, 120000, Note_on_c, 9, 42, 100
1, 120479, Note_on_c, 9, 42, 0
1, 120480, Note_on_c, 9, 46, 127
1, 120959, Note_on_c, 9, 46, 0
1, 120960, Note_on_c, 9, 42, 100
1, 121439, Note_on_c, 9, 42, 0
1, 121440, Note_on_c, 9, 42, 100
1, 121919, Note_on_c, 9, 42, 0
1, 121920, Note_on_c, 9, 42, 100
1, 122399, Note_on_c, 9, 42, 0
1, 122400, Note_on_c, 9, 46, 127
1, 122879, Note_on_c, 9, 46, 0
1, 122880, Note_on_c, 9, 42, 100
1, 123359, Note_on_c, 9, 42, 0
1, 123360, Note_on_c, 9, 42, 100
1, 123839, Note_on_c, 9, 42, 0
1, 123840, Note_on_c, 9, 42, 100
1, 124319, Note_on_c, 9, 42, 0
1, 124320, Note_on_c, 9, 46, 127
1, 124799, Note_on_c, 9, 46, 0
1, 124800, Note_on_c, 9, 49, 127
1, 125279, Note_on_c, 9, 49, 0
1, 125280, Note_on_c, 9, 42, 100
1, 125759, Note_on_c, 9, 42, 0
1, 125760, Note_on_c, 9, 42, 100
1, 126239, Note_on_c, 9, 42, 0
1, 126240, Note_on_c, 9, 42, 100
1, 126719, Note_on_c, 9, 42, 0
1, 126720, Note_on_c, 9, 42, 100
1, 127199, Note_on_c, 9, 42, 0
1, 127200, Note_on_c, 9, 42, 100
1, 127679, Note_on_c, 9, 42, 0
1, 127680, Note_on_c, 9, 42, 100
1, 128159, Note_on_c, 9, 42, 0
1, 128160, Note_on_c, 9, 42, 100
1, 128639, Note_on_c, 9, 42, 0
1, 128640, Note_on_c, 9, 49, 127
1, 129119, Note_on_c, 9, 49, 0
1, 129120, Note_on_c, 9, 42, 100
1, 129599, Note_on_c, 9, 42, 0
1, 129600, Note_on_c, 9, 42, 100
1, 130079, Note_on_c, 9, 42, 0
1, 130080, Note_on_c, 9, 42, 100
1, 130559, Note_on_c, 9, 42, 0
1, 130560, Note_on_c, 9, 42, 100
1, 131039, Note_on_c, 9, 42, 0
1, 131040, Note_on_c, 9, 42, 100
1, 131519, Note_on_c, 9, 42, 0
1, 131520, Note_on_c, 9, 42, 100
1, 131999, Note_on_c, 9, 42, 0
1, 132000, Note_on_c, 9, 46, 127
1, 132479, Note_on_c, 9, 46, 0
1, 132480, Note_on_c, 9, 42, 100
1, 132959, Note_on_c, 9, 42, 0
1, 132960, Note_on_c, 9, 42, 100
1, 133439, Note_on_c, 9, 42, 0
1, 133440, Note_on_c, 9, 42, 100
1, 133919, Note_on_c, 9, 42, 0
1, 133920, Note_on_c, 9, 46, 127
1, 134399, Note_on_c, 9, 46, 0
1, 134400, Note_on_c, 9, 42, 100
1, 134879, Note_on_c, 9, 42, 0
1, 134880, Note_on_c, 9, 42, 100
1, 135359, Note_on_c, 9, 42, 0
1, 135360, Note_on_c, 9, 42, 100
1, 135839, Note_on_c, 9, 42, 0
1, 135840, Note_on_c, 9, 46, 127
1, 136319, Note_on_c, 9, 46, 0
1, 136320, Note_on_c, 9, 42, 100
1, 136799, Note_on_c, 9, 42, 0
1, 136800, Note_on_c, 9, 42, 100
1, 137279, Note_on_c, 9, 42, 0
1, 137280, Note_on_c, 9, 42, 100
1, 137759, Note_on_c, 9, 42, 0
1, 137760, Note_on_c, 9, 46, 127
1, 138239, Note_on_c, 9, 46, 0
1, 138240, Note_on_c, 9, 42, 100
1, 138719, Note_on_c, 9, 42, 0
1, 138720, Note_on_c, 9, 42, 100
1, 139199, Note_on_c, 9, 42, 0
1, 139200, Note_on_c, 9, 42, 100
1, 139679, Note_on_c, 9, 42, 0
1, 139680, Note_on_c, 9, 46, 127
1, 140159, Note_on_c, 9, 46, 0
1, 140160, Note_on_c, 9, 42, 100
1, 140639, Note_on_c, 9, 42, 0
1, 140640, Note_on_c, 9, 42, 100
1, 141119, Note_on_c, 9, 42, 0
1, 141120, Note_on_c, 9, 42, 100
1, 141599, Note_on_c, 9, 42, 0
1, 141600, Note_on_c, 9, 46, 127
1, 142079, Note_on_c, 9, 46, 0
1, 142080, Note_on_c, 9, 49, 127
1, 142319, Note_on_c, 9, 49, 0
1, 142320, Note_on_c, 9, 51, 100
1, 142559, Note_on_c, 9, 51, 0
1, 142560, Note_on_c, 9, 51, 100
1, 142799, Note_on_c, 9, 51, 0
1, 142800, Note_on_c, 9, 51, 100
1, 143039, Note_on_c, 9, 51, 0
1, 143040, Note_on_c, 9, 51, 100
1, 143279, Note_on_c, 9, 51, 0
1, 143280, Note_on_c, 9, 51, 100
1, 143519, Note_on_c, 9, 51, 0
1, 143520, Note_on_c, 9, 49, 127
1, 143759, Note_on_c, 9, 49, 0
1, 143760, Note_on_c, 9, 51, 100
1, 143999, Note_on_c, 9, 51, 0
1, 144000, Note_on_c, 9, 51, 100
1, 144239, Note_on_c, 9, 51, 0
1, 144240, Note_on_c, 9, 51, 100
1, 144479, Note_on_c, 9, 51, 0
1, 144480, Note_on_c, 9, 51, 100
1, 144719, Note_on_c, 9, 51, 0
1, 144720, Note_on_c, 9, 51, 100
1, 144959, Note_on_c, 9, 51, 0
1, 144960, Note_on_c, 9, 51, 100
1, 145199, Note_on_c, 9, 51, 0
1, 145200, Note_on_c, 9, 51, 127
1, 145439, Note_on_c, 9, 51, 0
1, 145440, Note_on_c, 9, 51, 100
1, 145679, Note_on_c, 9, 51, 0
1, 145680, Note_on_c, 9, 51, 100
1, 145919, Note_on_c, 9, 51, 0
1, 145920, Note_on_c, 9, 49, 127
1, 146159, Note_on_c, 9, 49, 0
1, 146160, Note_on_c, 9, 51, 100
1, 146399, Note_on_c, 9, 51, 0
1, 146400, Note_on_c, 9, 51, 100
1, 146639, Note_on_c, 9, 51, 0
1, 146640, Note_on_c, 9, 51, 100
1, 146879, Note_on_c, 9, 51, 0
1, 146880, Note_on_c, 9, 51, 100
1, 147119, Note_on_c, 9, 51, 0
1, 147120, Note_on_c, 9, 51, 100
1, 147359, Note_on_c, 9, 51, 0
1, 147360, Note_on_c, 9, 51, 127
1, 147599, Note_on_c, 9, 51, 0
1, 147600, Note_on_c, 9, 51, 100
1, 147839, Note_on_c, 9, 51, 0
1, 147840, Note_on_c, 9, 51, 100
1, 148079, Note_on_c, 9, 51, 0
1, 148080, Note_on_c, 9, 51, 100
1, 148319, Note_on_c, 9, 51, 0
1, 148320, Note_on_c, 9, 51, 100
1, 148559, Note_on_c, 9, 51, 0
1, 148560, Note_on_c, 9, 51, 100
1, 148799, Note_on_c, 9, 51, 0
1, 148800, Note_on_c, 9, 51, 100
1, 149039, Note_on_c, 9, 51, 0
1, 149040, Note_on_c, 9, 51, 127
1, 149279, Note_on_c, 9, 51, 0
1, 149280, Note_on_c, 9, 51, 100
1, 149519, Note_on_c, 9, 51, 0
1, 149520, Note_on_c, 9, 51, 100
1, 149759, Note_on_c, 9, 51, 0
1, 149760, Note_on_c, 9, 49, 127
1, 149999, Note_on_c, 9, 49, 0
1, 150000, Note_on_c, 9, 51, 100
1, 150239, Note_on_c, 9, 51, 0
1, 150240, Note_on_c, 9, 51, 100
1, 150479, Note_on_c, 9, 51, 0
1, 150480, Note_on_c, 9, 51, 100
1, 150719, Note_on_c, 9, 51, 0
1, 150720, Note_on_c, 9, 51, 100
1, 150959, Note_on_c, 9, 51, 0
1, 150960, Note_on_c, 9, 51, 100
1, 151199, Note_on_c, 9, 51, 0
1, 151200, Note_on_c, 9, 51, 127
1, 151439, Note_on_c, 9, 51, 0
1, 151440, Note_on_c, 9, 51, 100
1, 151679, Note_on_c, 9, 51, 0
1, 151680, Note_on_c, 9, 51, 100
1, 151919, Note_on_c, 9, 51, 0
1, 151920, Note_on_c, 9, 51, 100
1, 152159, Note_on_c, 9, 51, 0
1, 152160, Note_on_c, 9, 51, 100
1, 152399, Note_on_c, 9, 51, 0
1, 152400, Note_on_c, 9, 51, 100
1, 152639, Note_on_c, 9, 51, 0
1, 152640, Note_on_c, 9, 51, 100
1, 152879, Note_on_c, 9, 51, 0
1, 152880, Note_on_c, 9, 51, 127
1, 153119, Note_on_c, 9, 51, 0
1, 153120, Note_on_c, 9, 51, 100
1, 153359, Note_on_c, 9, 51, 0
1, 153360, Note_on_c, 9, 51, 100
1, 153599, Note_on_c, 9, 51, 0
1, 153600, Note_on_c, 9, 49, 127
1, 153839, Note_on_c, 9, 49, 0
1, 153840, Note_on_c, 9, 51, 100
1, 154079, Note_on_c, 9, 51, 0
1, 154080, Note_on_c, 9, 51, 100
1, 154319, Note_on_c, 9, 51, 0
1, 154320, Note_on_c, 9, 51, 100
1, 154559, Note_on_c, 9, 51, 0
1, 154560, Note_on_c, 9, 51, 100
1, 154799, Note_on_c, 9, 51, 0
1, 154800, Note_on_c, 9, 51, 100
1, 155039, Note_on_c, 9, 51, 0
1, 155040, Note_on_c, 9, 49, 127
1, 155279, Note_on_c, 9, 49, 0
1, 155280, Note_on_c, 9, 51, 100
1, 155519, Note_on_c, 9, 51, 0
1, 159360, Note_on_c, 9, 42, 100
1, 159839, Note_on_c, 9, 42, 0
1, 159840, Note_on_c, 9, 42, 100
1, 160319, Note_on_c, 9, 42, 0
1, 160320, Note_on_c, 9, 42, 100
1, 160799, Note_on_c, 9, 42, 0
1, 160800, Note_on_c, 9, 42, 100
1, 161279, Note_on_c, 9, 42, 0
1, 161280, Note_on_c, 9, 42, 100
1, 161759, Note_on_c, 9, 42, 0
1, 161760, Note_on_c, 9, 42, 100
1, 162239, Note_on_c, 9, 42, 0
1, 162240, Note_on_c, 9, 42, 100
1, 162719, Note_on_c, 9, 42, 0
1, 162720, Note_on_c, 9, 42, 100
1, 163199, Note_on_c, 9, 42, 0
1, 163200, Note_on_c, 9, 42, 100
1, 163679, Note_on_c, 9, 42, 0
1, 163680, Note_on_c, 9, 42, 100
1, 164159, Note_on_c, 9, 42, 0
1, 164160, Note_on_c, 9, 42, 100
1, 164639, Note_on_c, 9, 42, 0
1, 164640, Note_on_c, 9, 42, 100
1, 165119, Note_on_c, 9, 42, 0
1, 165120, Note_on_c, 9, 42, 100
1, 165599, Note_on_c, 9, 42, 0
1, 165600, Note_on_c, 9, 42, 100
1, 166079, Note_on_c, 9, 42, 0
1, 166080, Note_on_c, 9, 42, 100
1, 166559, Note_on_c, 9, 42, 0
1, 166560, Note_on_c, 9, 42, 100
1, 167039, Note_on_c, 9, 42, 0
1, 167040, Note_on_c, 9, 42, 100
1, 167519, Note_on_c, 9, 42, 0
1, 167520, Note_on_c, 9, 42, 100
1, 167999, Note_on_c, 9, 42, 0
1, 168000, Note_on_c, 9, 42, 100
1, 168479, Note_on_c, 9, 42, 0
1, 168480, Note_on_c, 9, 42, 100
1, 168959, Note_on_c, 9, 42, 0
1, 168960, Note_on_c, 9, 42, 100
1, 169439, Note_on_c, 9, 42, 0
1, 169440, Note_on_c, 9, 42, 100
1, 169919, Note_on_c, 9, 42, 0
1, 169920, Note_on_c, 9, 42, 100
1, 170399, Note_on_c, 9, 42, 0
1, 170400, Note_on_c, 9, 42, 100
1, 170879, Note_on_c, 9, 42, 0
1, 170880, Note_on_c, 9, 42, 100
1, 171359, Note_on_c, 9, 42, 0
1, 171360, Note_on_c, 9, 42, 100
1, 171839, Note_on_c, 9, 42, 0
1, 171840, Note_on_c, 9, 42, 100
1, 172319, Note_on_c, 9, 42, 0
1, 172320, Note_on_c, 9, 42, 100
1, 172799, Note_on_c, 9, 42, 0
1, 172800, Note_on_c, 9, 42, 100
1, 173279, Note_on_c, 9, 42, 0
1, 173280, Note_on_c, 9, 42, 100
1, 173759, Note_on_c, 9, 42, 0
1, 173760, Note_on_c, 9, 42, 100
1, 174239, Note_on_c, 9, 42, 0
1, 174240, Note_on_c, 9, 42, 100
1, 174719, Note_on_c, 9, 42, 0
1, 174720, Note_on_c, 9, 42, 100
1, 175199, Note_on_c, 9, 42, 0
1, 175200, Note_on_c, 9, 42, 100
1, 175679, Note_on_c, 9, 42, 0
1, 175680, Note_on_c, 9, 42, 100
1, 176159, Note_on_c, 9, 42, 0
1, 176160, Note_on_c, 9, 42, 100
1, 176639, Note_on_c, 9, 42, 0
1, 176640, Note_on_c, 9, 42, 100
1, 177119, Note_on_c, 9, 42, 0
1, 177120, Note_on_c, 9, 42, 100
1, 177599, Note_on_c, 9, 42, 0
1, 177600, Note_on_c, 9, 42, 100
1, 178079, Note_on_c, 9, 42, 0
1, 178080, Note_on_c, 9, 42, 100
1, 178559, Note_on_c, 9, 42, 0
1, 178560, Note_on_c, 9, 42, 100
1, 179039, Note_on_c, 9, 42, 0
1, 179040, Note_on_c, 9, 42, 100
1, 179519, Note_on_c, 9, 42, 0
1, 179520, Note_on_c, 9, 42, 100
1, 179999, Note_on_c, 9, 42, 0
1, 180000, Note_on_c, 9, 42, 100
1, 180479, Note_on_c, 9, 42, 0
1, 180480, Note_on_c, 9, 42, 100
1, 180959, Note_on_c, 9, 42, 0
1, 180960, Note_on_c, 9, 42, 100
1, 181439, Note_on_c, 9, 42, 0
1, 181440, Note_on_c, 9, 42, 100
1, 181919, Note_on_c, 9, 42, 0
1, 181920, Note_on_c, 9, 42, 100
1, 182399, Note_on_c, 9, 42, 0
1, 182400, Note_on_c, 9, 42, 100
1, 182879, Note_on_c, 9, 42, 0
1, 182880, Note_on_c, 9, 42, 100
1, 183359, Note_on_c, 9, 42, 0
1, 183360, Note_on_c, 9, 42, 100
1, 183839, Note_on_c, 9, 42, 0
1, 183840, Note_on_c, 9, 42, 100
1, 184319, Note_on_c, 9, 42, 0
1, 184320, Note_on_c, 9, 42, 100
1, 184799, Note_on_c, 9, 42, 0
1, 184800, Note_on_c, 9, 42, 100
1, 185279, Note_on_c, 9, 42, 0
1, 185280, Note_on_c, 9, 42, 100
1, 185759, Note_on_c, 9, 42, 0
1, 185760, Note_on_c, 9, 42, 100
1, 186239, Note_on_c, 9, 42, 0
1, 186240, Note_on_c, 9, 42, 100
1, 186719, Note_on_c, 9, 42, 0
1, 186720, Note_on_c, 9, 42, 100
1, 187199, Note_on_c, 9, 42, 0
1, 187200, Note_on_c, 9, 42, 100
1, 187679, Note_on_c, 9, 42, 0
1, 187680, Note_on_c, 9, 42, 100
1, 188159, Note_on_c, 9, 42, 0
1, 188160, Note_on_c, 9, 42, 100
1, 188639, Note_on_c, 9, 42, 0
1, 188640, Note_on_c, 9, 42, 100
1, 189119, Note_on_c, 9, 42, 0
1, 189120, Note_on_c, 9, 42, 100
1, 189599, Note_on_c, 9, 42, 0
1, 189600, Note_on_c, 9, 42, 100
1, 190079, Note_on_c, 9, 42, 0
1, 190080, Note_on_c, 9, 42, 100
1, 190559, Note_on_c, 9, 42, 0
1, 190560, Note_on_c, 9, 42, 100
1, 191039, Note_on_c, 9, 42, 0
1, 191040, Note_on_c, 9, 42, 100
1, 191519, Note_on_c, 9, 42, 0
1, 191520, Note_on_c, 9, 42, 100
1, 191999, Note_on_c, 9, 42, 0
1, 192000, Note_on_c, 9, 42, 100
1, 192479, Note_on_c, 9, 42, 0
1, 192480, Note_on_c, 9, 42, 100
1, 192959, Note_on_c, 9, 42, 0
1, 192960, Note_on_c, 9, 42, 100
1, 193439, Note_on_c, 9, 42, 0
1, 193440, Note_on_c, 9, 42, 100
1, 193919, Note_on_c, 9, 42, 0
1, 193920, Note_on_c, 9, 42, 100
1, 194399, Note_on_c, 9, 42, 0
1, 194400, Note_on_c, 9, 42, 100
1, 194879, Note_on_c, 9, 42, 0
1, 194880, Note_on_c, 9, 42, 100
1, 195359, Note_on_c, 9, 42, 0
1, 195360, Note_on_c, 9, 42, 100
1, 195839, Note_on_c, 9, 42, 0
1, 195840, Note_on_c, 9, 42, 100
1, 196319, Note_on_c, 9, 42, 0
1, 196320, Note_on_c, 9, 42, 100
1, 196799, Note_on_c, 9, 42, 0
1, 196800, Note_on_c, 9, 42, 100
1, 197279, Note_on_c, 9, 42, 0
1, 197280, Note_on_c, 9, 42, 100
1, 197759, Note_on_c, 9, 42, 0
1, 197760, Note_on_c, 9, 46, 90
1, 197999, Note_on_c, 9, 46, 0
1, 198000, Note_on_c, 9, 46, 95
1, 198239, Note_on_c, 9, 46, 0
1, 198240, Note_on_c, 9, 46, 100
1, 198479, Note_on_c, 9, 46, 0
1, 198480, Note_on_c, 9, 46, 105
1, 198719, Note_on_c, 9, 46, 0
1, 198720, Note_on_c, 9, 46, 110
1, 198959, Note_on_c, 9, 46, 0
1, 198960, Note_on_c, 9, 46, 115
1, 199199, Note_on_c, 9, 46, 0
1, 199200, Note_on_c, 9, 46, 120
1, 199439, Note_on_c, 9, 46, 0
1, 199440, Note_on_c, 9, 46, 127
1, 199679, Note_on_c, 9, 46, 0
1, 199680, Note_on_c, 9, 42, 100
1, 200159, Note_on_c, 9, 42, 0
1, 200160, Note_on_c, 9, 42, 100
1, 200639, Note_on_c, 9, 42, 0
1, 200640, Note_on_c, 9, 42, 100
1, 201119, Note_on_c, 9, 42, 0
1, 201120, Note_on_c, 9, 42, 100
1, 201599, Note_on_c, 9, 42, 0
1, 201600, Note_on_c, 9, 49, 127
1, 202079, Note_on_c, 9, 49, 0
1, 205440, Note_on_c, 9, 49, 127
1, 205919, Note_on_c, 9, 49, 0
1, 209280, Tempo, 521739
1, 209280, Note_on_c, 9, 57, 127
1, 209759, Note_on_c, 9, 57, 0
1, 209760, End_track
2, 0, Start_track
2, 0, Key_signature, 0, "major"
2, 0, Control_c, 9, 121, 0
2, 0, Program_c, 9, 0
2, 0, Control_c, 9, 7, 120
2, 0, Control_c, 9, 10, 64
2, 0, Control_c, 9, 91, 0
2, 0, Control_c, 9, 93, 0
2, 0, MIDI_port, 0
2, 3840, Note_on_c, 9, 36, 80
2, 4319, Note_on_c, 9, 36, 0
2, 7680, Note_on_c, 9, 36, 80
2, 8159, Note_on_c, 9, 36, 0
2, 11040, Note_on_c, 9, 48, 127
2, 11519, Note_on_c, 9, 48, 0
2, 11520, Note_on_c, 9, 36, 80
2, 11999, Note_on_c, 9, 36, 0
2, 12240, Note_on_c, 9, 36, 80
2, 12479, Note_on_c, 9, 36, 0
2, 12480, Note_on_c, 9, 36, 80
2, 12959, Note_on_c, 9, 36, 0
2, 13440, Note_on_c, 9, 36, 80
2, 13919, Note_on_c, 9, 36, 0
2, 14160, Note_on_c, 9, 36, 80
2, 14399, Note_on_c, 9, 36, 0
2, 14400, Note_on_c, 9, 36, 80
2, 14879, Note_on_c, 9, 36, 0
2, 15360, Note_on_c, 9, 36, 80
2, 15839, Note_on_c, 9, 36, 0
2, 16080, Note_on_c, 9, 36, 80
2, 16319, Note_on_c, 9, 36, 0
2, 16320, Note_on_c, 9, 36, 80
2, 16799, Note_on_c, 9, 36, 0
2, 17280, Note_on_c, 9, 36, 80
2, 17759, Note_on_c, 9, 36, 0
2, 18000, Note_on_c, 9, 36, 80
2, 18239, Note_on_c, 9, 36, 0
2, 18240, Note_on_c, 9, 36, 80
2, 18719, Note_on_c, 9, 36, 0
2, 19200, Note_on_c, 9, 36, 80
2, 19679, Note_on_c, 9, 36, 0
2, 19920, Note_on_c, 9, 36, 80
2, 20159, Note_on_c, 9, 36, 0
2, 20160, Note_on_c, 9, 36, 80
2, 20639, Note_on_c, 9, 36, 0
2, 21120, Note_on_c, 9, 36, 80
2, 21599, Note_on_c, 9, 36, 0
2, 21840, Note_on_c, 9, 36, 80
2, 22079, Note_on_c, 9, 36, 0
2, 22080, Note_on_c, 9, 36, 80
2, 22559, Note_on_c, 9, 36, 0
2, 23040, Note_on_c, 9, 36, 80
2, 23519, Note_on_c, 9, 36, 0
2, 23760, Note_on_c, 9, 36, 80
2, 23999, Note_on_c, 9, 36, 0
2, 24000, Note_on_c, 9, 36, 80
2, 24479, Note_on_c, 9, 36, 0
2, 24960, Note_on_c, 9, 36, 80
2, 25439, Note_on_c, 9, 36, 0
2, 25680, Note_on_c, 9, 36, 80
2, 25919, Note_on_c, 9, 36, 0
2, 25920, Note_on_c, 9, 36, 80
2, 26399, Note_on_c, 9, 36, 0
2, 26400, Note_on_c, 9, 48, 127
2, 26879, Note_on_c, 9, 48, 0
2, 26880, Note_on_c, 9, 36, 80
2, 27359, Note_on_c, 9, 36, 0
2, 27600, Note_on_c, 9, 36, 80
2, 27839, Note_on_c, 9, 36, 0
2, 27840, Note_on_c, 9, 36, 80
2, 28319, Note_on_c, 9, 36, 0
2, 28800, Note_on_c, 9, 36, 80
2, 29279, Note_on_c, 9, 36, 0
2, 29520, Note_on_c, 9, 36, 80
2, 29759, Note_on_c, 9, 36, 0
2, 29760, Note_on_c, 9, 36, 80
2, 30239, Note_on_c, 9, 36, 0
2, 30720, Note_on_c, 9, 36, 80
2, 31199, Note_on_c, 9, 36, 0
2, 31440, Note_on_c, 9, 36, 80
2, 31679, Note_on_c, 9, 36, 0
2, 31680, Note_on_c, 9, 36, 80
2, 32159, Note_on_c, 9, 36, 0
2, 32640, Note_on_c, 9, 36, 80
2, 33119, Note_on_c, 9, 36, 0
2, 33360, Note_on_c, 9, 36, 80
2, 33599, Note_on_c, 9, 36, 0
2, 33600, Note_on_c, 9, 36, 80
2, 34079, Note_on_c, 9, 36, 0
2, 34560, Note_on_c, 9, 36, 80
2, 35039, Note_on_c, 9, 36, 0
2, 35280, Note_on_c, 9, 36, 80
2, 35519, Note_on_c, 9, 36, 0
2, 35520, Note_on_c, 9, 36, 80
2, 35999, Note_on_c, 9, 36, 0
2, 36480, Note_on_c, 9, 36, 80
2, 36959, Note_on_c, 9, 36, 0
2, 37200, Note_on_c, 9, 36, 80
2, 37439, Note_on_c, 9, 36, 0
2, 37440, Note_on_c, 9, 36, 80
2, 37919, Note_on_c, 9, 36, 0
2, 38400, Note_on_c, 9, 36, 80
2, 38879, Note_on_c, 9, 36, 0
2, 39120, Note_on_c, 9, 36, 80
2, 39359, Note_on_c, 9, 36, 0
2, 39360, Note_on_c, 9, 36, 80
2, 39839, Note_on_c, 9, 36, 0
2, 40320, Note_on_c, 9, 36, 80
2, 40799, Note_on_c, 9, 36, 0
2, 41040, Note_on_c, 9, 36, 80
2, 41279, Note_on_c, 9, 36, 0
2, 41280, Note_on_c, 9, 36, 80
2, 41759, Note_on_c, 9, 36, 0
2, 42240, Note_on_c, 9, 36, 80
2, 42719, Note_on_c, 9, 36, 0
2, 42960, Note_on_c, 9, 36, 80
2, 43199, Note_on_c, 9, 36, 0
2, 43200, Note_on_c, 9, 36, 80
2, 43679, Note_on_c, 9, 36, 0
2, 44160, Note_on_c, 9, 36, 80
2, 44639, Note_on_c, 9, 36, 0
2, 44880, Note_on_c, 9, 36, 80
2, 45119, Note_on_c, 9, 36, 0
2, 45120, Note_on_c, 9, 36, 80
2, 45599, Note_on_c, 9, 36, 0
2, 46080, Note_on_c, 9, 36, 80
2, 46559, Note_on_c, 9, 36, 0
2, 46800, Note_on_c, 9, 36, 80
2, 47039, Note_on_c, 9, 36, 0
2, 47040, Note_on_c, 9, 36, 80
2, 47519, Note_on_c, 9, 36, 0
2, 48000, Note_on_c, 9, 36, 80
2, 48479, Note_on_c, 9, 36, 0
2, 48720, Note_on_c, 9, 36, 80
2, 48959, Note_on_c, 9, 36, 0
2, 48960, Note_on_c, 9, 36, 80
2, 49439, Note_on_c, 9, 36, 0
2, 49920, Note_on_c, 9, 36, 80
2, 50399, Note_on_c, 9, 36, 0
2, 50640, Note_on_c, 9, 36, 80
2, 50879, Note_on_c, 9, 36, 0
2, 50880, Note_on_c, 9, 36, 80
2, 51359, Note_on_c, 9, 36, 0
2, 51840, Note_on_c, 9, 36, 80
2, 52319, Note_on_c, 9, 36, 0
2, 52560, Note_on_c, 9, 36, 80
2, 52799, Note_on_c, 9, 36, 0
2, 53760, Note_on_c, 9, 36, 80
2, 54239, Note_on_c, 9, 36, 0
2, 54480, Note_on_c, 9, 36, 80
2, 54719, Note_on_c, 9, 36, 0
2, 54720, Note_on_c, 9, 36, 80
2, 55199, Note_on_c, 9, 36, 0
2, 55680, Note_on_c, 9, 36, 80
2, 56159, Note_on_c, 9, 36, 0
2, 56400, Note_on_c, 9, 36, 80
2, 56639, Note_on_c, 9, 36, 0
2, 56640, Note_on_c, 9, 36, 80
2, 57119, Note_on_c, 9, 36, 0
2, 57600, Note_on_c, 9, 36, 80
2, 58079, Note_on_c, 9, 36, 0
2, 58320, Note_on_c, 9, 36, 80
2, 58559, Note_on_c, 9, 36, 0
2, 58560, Note_on_c, 9, 36, 80
2, 59039, Note_on_c, 9, 36, 0
2, 59520, Note_on_c, 9, 36, 80
2, 59999, Note_on_c, 9, 36, 0
2, 60240, Note_on_c, 9, 36, 80
2, 60479, Note_on_c, 9, 36, 0
2, 60480, Note_on_c, 9, 36, 80
2, 60959, Note_on_c, 9, 36, 0
2, 61440, Note_on_c, 9, 36, 80
2, 61919, Note_on_c, 9, 36, 0
2, 62160, Note_on_c, 9, 36, 80
2, 62399, Note_on_c, 9, 36, 0
2, 62400, Note_on_c, 9, 36, 80
2, 62879, Note_on_c, 9, 36, 0
2, 63360, Note_on_c, 9, 36, 80
2, 63839, Note_on_c, 9, 36, 0
2, 64080, Note_on_c, 9, 36, 80
2, 64319, Note_on_c, 9, 36, 0
2, 64320, Note_on_c, 9, 36, 80
2, 64799, Note_on_c, 9, 36, 0
2, 65280, Note_on_c, 9, 36, 80
2, 65759, Note_on_c, 9, 36, 0
2, 66000, Note_on_c, 9, 36, 80
2, 66239, Note_on_c, 9, 36, 0
2, 66240, Note_on_c, 9, 36, 80
2, 66719, Note_on_c, 9, 36, 0
2, 67200, Note_on_c, 9, 36, 80
2, 67679, Note_on_c, 9, 36, 0
2, 67920, Note_on_c, 9, 36, 80
2, 68159, Note_on_c, 9, 36, 0
2, 68160, Note_on_c, 9, 36, 80
2, 68639, Note_on_c, 9, 36, 0
2, 69120, Note_on_c, 9, 36, 80
2, 69599, Note_on_c, 9, 36, 0
2, 69840, Note_on_c, 9, 36, 80
2, 70079, Note_on_c, 9, 36, 0
2, 70080, Note_on_c, 9, 36, 80
2, 70559, Note_on_c, 9, 36, 0
2, 71040, Note_on_c, 9, 36, 80
2, 71519, Note_on_c, 9, 36, 0
2, 71760, Note_on_c, 9, 36, 80
2, 71999, Note_on_c, 9, 36, 0
2, 72000, Note_on_c, 9, 36, 80
2, 72479, Note_on_c, 9, 36, 0
2, 72960, Note_on_c, 9, 36, 80
2, 73439, Note_on_c, 9, 36, 0
2, 73680, Note_on_c, 9, 36, 80
2, 73919, Note_on_c, 9, 36, 0
2, 73920, Note_on_c, 9, 36, 80
2, 74399, Note_on_c, 9, 36, 0
2, 74880, Note_on_c, 9, 36, 80
2, 75359, Note_on_c, 9, 36, 0
2, 75600, Note_on_c, 9, 36, 80
2, 75839, Note_on_c, 9, 36, 0
2, 75840, Note_on_c, 9, 36, 80
2, 76319, Note_on_c, 9, 36, 0
2, 76800, Note_on_c, 9, 36, 80
2, 77279, Note_on_c, 9, 36, 0
2, 77520, Note_on_c, 9, 36, 80
2, 77759, Note_on_c, 9, 36, 0
2, 77760, Note_on_c, 9, 36, 80
2, 78239, Note_on_c, 9, 36, 0
2, 78720, Note_on_c, 9, 36, 80
2, 79199, Note_on_c, 9, 36, 0
2, 79440, Note_on_c, 9, 36, 80
2, 79679, Note_on_c, 9, 36, 0
2, 79680, Note_on_c, 9, 36, 80
2, 80159, Note_on_c, 9, 36, 0
2, 80640, Note_on_c, 9, 36, 80
2, 81119, Note_on_c, 9, 36, 0
2, 81360, Note_on_c, 9, 36, 80
2, 81599, Note_on_c, 9, 36, 0
2, 81600, Note_on_c, 9, 36, 80
2, 82079, Note_on_c, 9, 36, 0
2, 82560, Note_on_c, 9, 36, 80
2, 83039, Note_on_c, 9, 36, 0
2, 83280, Note_on_c, 9, 36, 80
2, 83519, Note_on_c, 9, 36, 0
2, 83520, Note_on_c, 9, 36, 80
2, 83999, Note_on_c, 9, 36, 0
2, 84480, Note_on_c, 9, 36, 80
2, 84959, Note_on_c, 9, 36, 0
2, 85200, Note_on_c, 9, 36, 80
2, 85439, Note_on_c, 9, 36, 0
2, 85440, Note_on_c, 9, 36, 80
2, 85919, Note_on_c, 9, 36, 0
2, 86400, Note_on_c, 9, 36, 80
2, 86879, Note_on_c, 9, 36, 0
2, 87120, Note_on_c, 9, 36, 80
2, 87359, Note_on_c, 9, 36, 0
2, 87360, Note_on_c, 9, 36, 80
2, 87839, Note_on_c, 9, 36, 0
2, 88320, Note_on_c, 9, 36, 80
2, 88799, Note_on_c, 9, 36, 0
2, 89040, Note_on_c, 9, 36, 80
2, 89279, Note_on_c, 9, 36, 0
2, 89280, Note_on_c, 9, 36, 80
2, 89759, Note_on_c, 9, 36, 0
2, 90240, Note_on_c, 9, 36, 80
2, 90719, Note_on_c, 9, 36, 0
2, 90960, Note_on_c, 9, 36, 80
2, 91199, Note_on_c, 9, 36, 0
2, 91200, Note_on_c, 9, 36, 80
2, 91679, Note_on_c, 9, 36, 0
2, 92160, Note_on_c, 9, 36, 80
2, 92639, Note_on_c, 9, 36, 0
2, 92880, Note_on_c, 9, 36, 80
2, 93119, Note_on_c, 9, 36, 0
2, 93120, Note_on_c, 9, 36, 80
2, 93599, Note_on_c, 9, 36, 0
2, 94080, Note_on_c, 9, 36, 80
2, 94559, Note_on_c, 9, 36, 0
2, 94800, Note_on_c, 9, 36, 80
2, 95039, Note_on_c, 9, 36, 0
2, 95040, Note_on_c, 9, 36, 80
2, 95519, Note_on_c, 9, 36, 0
2, 96000, Note_on_c, 9, 36, 80
2, 96479, Note_on_c, 9, 36, 0
2, 96720, Note_on_c, 9, 36, 80
2, 96959, Note_on_c, 9, 36, 0
2, 96960, Note_on_c, 9, 36, 80
2, 97439, Note_on_c, 9, 36, 0
2, 97920, Note_on_c, 9, 36, 80
2, 98399, Note_on_c, 9, 36, 0
2, 98640, Note_on_c, 9, 36, 80
2, 98879, Note_on_c, 9, 36, 0
2, 98880, Note_on_c, 9, 36, 80
2, 99359, Note_on_c, 9, 36, 0
2, 99840, Note_on_c, 9, 36, 80
2, 100319, Note_on_c, 9, 36, 0
2, 100560, Note_on_c, 9, 36, 80
2, 100799, Note_on_c, 9, 36, 0
2, 100800, Note_on_c, 9, 36, 80
2, 101279, Note_on_c, 9, 36, 0
2, 101760, Note_on_c, 9, 36, 80
2, 102239, Note_on_c, 9, 36, 0
2, 102480, Note_on_c, 9, 36, 80
2, 102719, Note_on_c, 9, 36, 0
2, 102720, Note_on_c, 9, 36, 80
2, 103199, Note_on_c, 9, 36, 0
2, 103680, Note_on_c, 9, 36, 80
2, 104159, Note_on_c, 9, 36, 0
2, 104400, Note_on_c, 9, 36, 80
2, 104639, Note_on_c, 9, 36, 0
2, 104640, Note_on_c, 9, 36, 80
2, 105119, Note_on_c, 9, 36, 0
2, 105600, Note_on_c, 9, 36, 80
2, 106079, Note_on_c, 9, 36, 0
2, 106320, Note_on_c, 9, 36, 80
2, 106559, Note_on_c, 9, 36, 0
2, 106560, Note_on_c, 9, 36, 80
2, 107039, Note_on_c, 9, 36, 0
2, 107520, Note_on_c, 9, 36, 80
2, 107999, Note_on_c, 9, 36, 0
2, 108240, Note_on_c, 9, 36, 80
2, 108479, Note_on_c, 9, 36, 0
2, 108480, Note_on_c, 9, 36, 80
2, 108959, Note_on_c, 9, 36, 0
2, 109440, Note_on_c, 9, 36, 80
2, 109919, Note_on_c, 9, 36, 0
2, 110160, Note_on_c, 9, 36, 80
2, 110399, Note_on_c, 9, 36, 0
2, 110400, Note_on_c, 9, 36, 80
2, 110879, Note_on_c, 9, 36, 0
2, 111360, Note_on_c, 9, 36, 90
2, 111839, Note_on_c, 9, 36, 0
2, 113280, Note_on_c, 9, 36, 90
2, 113759, Note_on_c, 9, 36, 0
2, 114240, Note_on_c, 9, 36, 90
2, 114479, Note_on_c, 9, 36, 0
2, 114480, Note_on_c, 9, 36, 90
2, 114719, Note_on_c, 9, 36, 0
2, 115200, Note_on_c, 9, 36, 90
2, 115679, Note_on_c, 9, 36, 0
2, 115920, Note_on_c, 9, 36, 90
2, 116159, Note_on_c, 9, 36, 0
2, 116400, Note_on_c, 9, 36, 90
2, 116639, Note_on_c, 9, 36, 0
2, 117120, Note_on_c, 9, 36, 90
2, 117599, Note_on_c, 9, 36, 0
2, 117840, Note_on_c, 9, 36, 90
2, 118079, Note_on_c, 9, 36, 0
2, 118320, Note_on_c, 9, 36, 90
2, 118559, Note_on_c, 9, 36, 0
2, 119040, Note_on_c, 9, 36, 90
2, 119519, Note_on_c, 9, 36, 0
2, 119760, Note_on_c, 9, 36, 90
2, 119999, Note_on_c, 9, 36, 0
2, 120240, Note_on_c, 9, 36, 90
2, 120479, Note_on_c, 9, 36, 0
2, 120960, Note_on_c, 9, 36, 90
2, 121439, Note_on_c, 9, 36, 0
2, 121680, Note_on_c, 9, 36, 90
2, 121919, Note_on_c, 9, 36, 0
2, 121920, Note_on_c, 9, 36, 90
2, 122399, Note_on_c, 9, 36, 0
2, 122880, Note_on_c, 9, 36, 90
2, 123359, Note_on_c, 9, 36, 0
2, 123600, Note_on_c, 9, 36, 90
2, 123839, Note_on_c, 9, 36, 0
2, 123840, Note_on_c, 9, 36, 90
2, 124319, Note_on_c, 9, 36, 0
2, 124800, Note_on_c, 9, 36, 80
2, 125279, Note_on_c, 9, 36, 0
2, 125520, Note_on_c, 9, 36, 80
2, 125759, Note_on_c, 9, 36, 0
2, 125760, Note_on_c, 9, 36, 80
2, 126239, Note_on_c, 9, 36, 0
2, 126720, Note_on_c, 9, 36, 80
2, 127199, Note_on_c, 9, 36, 0
2, 127440, Note_on_c, 9, 36, 80
2, 127679, Note_on_c, 9, 36, 0
2, 127680, Note_on_c, 9, 36, 80
2, 128159, Note_on_c, 9, 36, 0
2, 128640, Note_on_c, 9, 36, 90
2, 129119, Note_on_c, 9, 36, 0
2, 130560, Note_on_c, 9, 36, 90
2, 131039, Note_on_c, 9, 36, 0
2, 131520, Note_on_c, 9, 36, 90
2, 131759, Note_on_c, 9, 36, 0
2, 131760, Note_on_c, 9, 36, 90
2, 131999, Note_on_c, 9, 36, 0
2, 132480, Note_on_c, 9, 36, 90
2, 132959, Note_on_c, 9, 36, 0
2, 133200, Note_on_c, 9, 36, 90
2, 133439, Note_on_c, 9, 36, 0
2, 133680, Note_on_c, 9, 36, 90
2, 133919, Note_on_c, 9, 36, 0
2, 134400, Note_on_c, 9, 36, 90
2, 134879, Note_on_c, 9, 36, 0
2, 135120, Note_on_c, 9, 36, 90
2, 135359, Note_on_c, 9, 36, 0
2, 135600, Note_on_c, 9, 36, 90
2, 135839, Note_on_c, 9, 36, 0
2, 136320, Note_on_c, 9, 36, 90
2, 136799, Note_on_c, 9, 36, 0
2, 137040, Note_on_c, 9, 36, 90
2, 137279, Note_on_c, 9, 36, 0
2, 137520, Note_on_c, 9, 36, 90
2, 137759, Note_on_c, 9, 36, 0
2, 138240, Note_on_c, 9, 36, 90
2, 138719, Note_on_c, 9, 36, 0
2, 138960, Note_on_c, 9, 36, 90
2, 139199, Note_on_c, 9, 36, 0
2, 139200, Note_on_c, 9, 36, 90
2, 139679, Note_on_c, 9, 36, 0
2, 140160, Note_on_c, 9, 36, 90
2, 140639, Note_on_c, 9, 36, 0
2, 140880, Note_on_c, 9, 36, 90
2, 141119, Note_on_c, 9, 36, 0
2, 141120, Note_on_c, 9, 36, 90
2, 141599, Note_on_c, 9, 36, 0
2, 142080, Note_on_c, 9, 36, 80
2, 142559, Note_on_c, 9, 36, 0
2, 142800, Note_on_c, 9, 36, 80
2, 143039, Note_on_c, 9, 36, 0
2, 143040, Note_on_c, 9, 36, 80
2, 143519, Note_on_c, 9, 36, 0
2, 144000, Note_on_c, 9, 36, 80
2, 144479, Note_on_c, 9, 36, 0
2, 144720, Note_on_c, 9, 36, 80
2, 144959, Note_on_c, 9, 36, 0
2, 144960, Note_on_c, 9, 36, 80
2, 145439, Note_on_c, 9, 36, 0
2, 145920, Note_on_c, 9, 36, 80
2, 146399, Note_on_c, 9, 36, 0
2, 146640, Note_on_c, 9, 36, 80
2, 146879, Note_on_c, 9, 36, 0
2, 146880, Note_on_c, 9, 36, 80
2, 147359, Note_on_c, 9, 36, 0
2, 147840, Note_on_c, 9, 36, 80
2, 148319, Note_on_c, 9, 36, 0
2, 148560, Note_on_c, 9, 36, 80
2, 148799, Note_on_c, 9, 36, 0
2, 148800, Note_on_c, 9, 36, 80
2, 149279, Note_on_c, 9, 36, 0
2, 149760, Note_on_c, 9, 36, 80
2, 150239, Note_on_c, 9, 36, 0
2, 150480, Note_on_c, 9, 36, 80
2, 150719, Note_on_c, 9, 36, 0
2, 150720, Note_on_c, 9, 36, 80
2, 151199, Note_on_c, 9, 36, 0
2, 151680, Note_on_c, 9, 36, 80
2, 152159, Note_on_c, 9, 36, 0
2, 152400, Note_on_c, 9, 36, 80
2, 152639, Note_on_c, 9, 36, 0
2, 152640, Note_on_c, 9, 36, 80
2, 153119, Note_on_c, 9, 36, 0
2, 153600, Note_on_c, 9, 36, 80
2, 154079, Note_on_c, 9, 36, 0
2, 154320, Note_on_c, 9, 36, 80
2, 154559, Note_on_c, 9, 36, 0
2, 154560, Note_on_c, 9, 36, 80
2, 155039, Note_on_c, 9, 36, 0
2, 155520, Note_on_c, 9, 36, 80
2, 155999, Note_on_c, 9, 36, 0
2, 159360, Note_on_c, 9, 36, 80
2, 159839, Note_on_c, 9, 36, 0
2, 160080, Note_on_c, 9, 36, 80
2, 160319, Note_on_c, 9, 36, 0
2, 160320, Note_on_c, 9, 36, 80
2, 160799, Note_on_c, 9, 36, 0
2, 161280, Note_on_c, 9, 36, 80
2, 161759, Note_on_c, 9, 36, 0
2, 162000, Note_on_c, 9, 36, 80
2, 162239, Note_on_c, 9, 36, 0
2, 162240, Note_on_c, 9, 36, 80
2, 162719, Note_on_c, 9, 36, 0
2, 163200, Note_on_c, 9, 36, 80
2, 163679, Note_on_c, 9, 36, 0
2, 163920, Note_on_c, 9, 36, 80
2, 164159, Note_on_c, 9, 36, 0
2, 164160, Note_on_c, 9, 36, 80
2, 164639, Note_on_c, 9, 36, 0
2, 165120, Note_on_c, 9, 36, 80
2, 165599, Note_on_c, 9, 36, 0
2, 165840, Note_on_c, 9, 36, 80
2, 166079, Note_on_c, 9, 36, 0
2, 166080, Note_on_c, 9, 36, 80
2, 166559, Note_on_c, 9, 36, 0
2, 167040, Note_on_c, 9, 36, 80
2, 167519, Note_on_c, 9, 36, 0
2, 167760, Note_on_c, 9, 36, 80
2, 167999, Note_on_c, 9, 36, 0
2, 168000, Note_on_c, 9, 36, 80
2, 168479, Note_on_c, 9, 36, 0
2, 168960, Note_on_c, 9, 36, 80
2, 169439, Note_on_c, 9, 36, 0
2, 169680, Note_on_c, 9, 36, 80
2, 169919, Note_on_c, 9, 36, 0
2, 169920, Note_on_c, 9, 36, 80
2, 170399, Note_on_c, 9, 36, 0
2, 170880, Note_on_c, 9, 36, 80
2, 171359, Note_on_c, 9, 36, 0
2, 171600, Note_on_c, 9, 36, 80
2, 171839, Note_on_c, 9, 36, 0
2, 171840, Note_on_c, 9, 36, 80
2, 172319, Note_on_c, 9, 36, 0
2, 172800, Note_on_c, 9, 36, 80
2, 173279, Note_on_c, 9, 36, 0
2, 173520, Note_on_c, 9, 36, 80
2, 173759, Note_on_c, 9, 36, 0
2, 173760, Note_on_c, 9, 36, 80
2, 174239, Note_on_c, 9, 36, 0
2, 174720, Note_on_c, 9, 36, 80
2, 175199, Note_on_c, 9, 36, 0
2, 175440, Note_on_c, 9, 36, 80
2, 175679, Note_on_c, 9, 36, 0
2, 175680, Note_on_c, 9, 36, 80
2, 176159, Note_on_c, 9, 36, 0
2, 176640, Note_on_c, 9, 36, 80
2, 177119, Note_on_c, 9, 36, 0
2, 177360, Note_on_c, 9, 36, 80
2, 177599, Note_on_c, 9, 36, 0
2, 177600, Note_on_c, 9, 36, 80
2, 178079, Note_on_c, 9, 36, 0
2, 178560, Note_on_c, 9, 36, 80
2, 179039, Note_on_c, 9, 36, 0
2, 179280, Note_on_c, 9, 36, 80
2, 179519, Note_on_c, 9, 36, 0
2, 179520, Note_on_c, 9, 36, 80
2, 179999, Note_on_c, 9, 36, 0
2, 180480, Note_on_c, 9, 36, 80
2, 180959, Note_on_c, 9, 36, 0
2, 181200, Note_on_c, 9, 36, 80
2, 181439, Note_on_c, 9, 36, 0
2, 181440, Note_on_c, 9, 36, 80
2, 181919, Note_on_c, 9, 36, 0
2, 182400, Note_on_c, 9, 36, 80
2, 182879, Note_on_c, 9, 36, 0
2, 183120, Note_on_c, 9, 36, 80
2, 183359, Note_on_c, 9, 36, 0
2, 183360, Note_on_c, 9, 36, 80
2, 183839, Note_on_c, 9, 36, 0
2, 184320, Note_on_c, 9, 36, 80
2, 184799, Note_on_c, 9, 36, 0
2, 185040, Note_on_c, 9, 36, 80
2, 185279, Note_on_c, 9, 36, 0
2, 185280, Note_on_c, 9, 36, 80
2, 185759, Note_on_c, 9, 36, 0
2, 186240, Note_on_c, 9, 36, 80
2, 186719, Note_on_c, 9, 36, 0
2, 186960, Note_on_c, 9, 36, 80
2, 187199, Note_on_c, 9, 36, 0
2, 187200, Note_on_c, 9, 36, 80
2, 187679, Note_on_c, 9, 36, 0
2, 188160, Note_on_c, 9, 36, 80
2, 188639, Note_on_c, 9, 36, 0
2, 188880, Note_on_c, 9, 36, 80
2, 189119, Note_on_c, 9, 36, 0
2, 189120, Note_on_c, 9, 36, 80
2, 189599, Note_on_c, 9, 36, 0
2, 190080, Note_on_c, 9, 36, 80
2, 190559, Note_on_c, 9, 36, 0
2, 190800, Note_on_c, 9, 36, 80
2, 191039, Note_on_c, 9, 36, 0
2, 191040, Note_on_c, 9, 36, 80
2, 191519, Note_on_c, 9, 36, 0
2, 192000, Note_on_c, 9, 36, 80
2, 192479, Note_on_c, 9, 36, 0
2, 192720, Note_on_c, 9, 36, 80
2, 192959, Note_on_c, 9, 36, 0
2, 192960, Note_on_c, 9, 36, 80
2, 193439, Note_on_c, 9, 36, 0
2, 193920, Note_on_c, 9, 36, 80
2, 194399, Note_on_c, 9, 36, 0
2, 194640, Note_on_c, 9, 36, 80
2, 194879, Note_on_c, 9, 36, 0
2, 194880, Note_on_c, 9, 36, 80
2, 195359, Note_on_c, 9, 36, 0
2, 195840, Note_on_c, 9, 36, 80
2, 196319, Note_on_c, 9, 36, 0
2, 196560, Note_on_c, 9, 36, 80
2, 196799, Note_on_c, 9, 36, 0
2, 196800, Note_on_c, 9, 36, 80
2, 197279, Note_on_c, 9, 36, 0
2, 197760, Note_on_c, 9, 36, 80
2, 198239, Note_on_c, 9, 36, 0
2, 198480, Note_on_c, 9, 36, 80
2, 198719, Note_on_c, 9, 36, 0
2, 198720, Note_on_c, 9, 36, 80
2, 199199, Note_on_c, 9, 36, 0
2, 199680, Note_on_c, 9, 36, 80
2, 200159, Note_on_c, 9, 36, 0
2, 200400, Note_on_c, 9, 36, 80
2, 200639, Note_on_c, 9, 36, 0
2, 200640, Note_on_c, 9, 36, 80
2, 201119, Note_on_c, 9, 36, 0
2, 201600, Note_on_c, 9, 36, 80
2, 202079, Note_on_c, 9, 36, 0
2, 205440, Note_on_c, 9, 36, 127
2, 205919, Note_on_c, 9, 36, 0
2, 209280, Note_on_c, 9, 36, 127
2, 209759, Note_on_c, 9, 36, 0
2, 209760, End_track
3, 0, Start_track
3, 0, Key_signature, 0, "major"
3, 0, Control_c, 9, 121, 0
3, 0, Program_c, 9, 0
3, 0, Control_c, 9, 7, 122
3, 0, Control_c, 9, 10, 64
3, 0, Control_c, 9, 91, 0
3, 0, Control_c, 9, 93, 0
3, 0, MIDI_port, 0
3, 12960, Note_on_c, 9, 40, 127
3, 13439, Note_on_c, 9, 40, 0
3, 14880, Note_on_c, 9, 40, 127
3, 15359, Note_on_c, 9, 40, 0
3, 16800, Note_on_c, 9, 40, 127
3, 17279, Note_on_c, 9, 40, 0
3, 18720, Note_on_c, 9, 40, 127
3, 19199, Note_on_c, 9, 40, 0
3, 20640, Note_on_c, 9, 40, 127
3, 21119, Note_on_c, 9, 40, 0
3, 22560, Note_on_c, 9, 40, 127
3, 23039, Note_on_c, 9, 40, 0
3, 24480, Note_on_c, 9, 40, 127
3, 24959, Note_on_c, 9, 40, 0
3, 26400, Note_on_c, 9, 40, 127
3, 26879, Note_on_c, 9, 40, 0
3, 28320, Note_on_c, 9, 40, 127
3, 28799, Note_on_c, 9, 40, 0
3, 30240, Note_on_c, 9, 40, 127
3, 30719, Note_on_c, 9, 40, 0
3, 32160, Note_on_c, 9, 40, 127
3, 32639, Note_on_c, 9, 40, 0
3, 34080, Note_on_c, 9, 40, 127
3, 34559, Note_on_c, 9, 40, 0
3, 36000, Note_on_c, 9, 40, 112
3, 36479, Note_on_c, 9, 40, 0
3, 37920, Note_on_c, 9, 40, 127
3, 38399, Note_on_c, 9, 40, 0
3, 39840, Note_on_c, 9, 40, 127
3, 40319, Note_on_c, 9, 40, 0
3, 41760, Note_on_c, 9, 40, 127
3, 42239, Note_on_c, 9, 40, 0
3, 43680, Note_on_c, 9, 40, 127
3, 44159, Note_on_c, 9, 40, 0
3, 45600, Note_on_c, 9, 40, 127
3, 46079, Note_on_c, 9, 40, 0
3, 47520, Note_on_c, 9, 40, 127
3, 47999, Note_on_c, 9, 40, 0
3, 49440, Note_on_c, 9, 40, 127
3, 49919, Note_on_c, 9, 40, 0
3, 51840, Note_on_c, 9, 40, 127
3, 51959, Note_on_c, 9, 40, 0
3, 51960, Note_on_c, 9, 40, 127
3, 52079, Note_on_c, 9, 40, 0
3, 52080, Note_on_c, 9, 40, 127
3, 52199, Note_on_c, 9, 40, 0
3, 52200, Note_on_c, 9, 40, 127
3, 52319, Note_on_c, 9, 40, 0
3, 52320, Note_on_c, 9, 40, 127
3, 52799, Note_on_c, 9, 40, 0
3, 52800, Note_on_c, 9, 40, 127
3, 52919, Note_on_c, 9, 40, 0
3, 52920, Note_on_c, 9, 40, 127
3, 53039, Note_on_c, 9, 40, 0
3, 53040, Note_on_c, 9, 40, 127
3, 53159, Note_on_c, 9, 40, 0
3, 53160, Note_on_c, 9, 40, 127
3, 53279, Note_on_c, 9, 40, 0
3, 53280, Note_on_c, 9, 40, 127
3, 53519, Note_on_c, 9, 40, 0
3, 53520, Note_on_c, 9, 40, 127
3, 53759, Note_on_c, 9, 40, 0
3, 54240, Note_on_c, 9, 40, 127
3, 54719, Note_on_c, 9, 40, 0
3, 55200, Note_on_c, 9, 40, 127
3, 55679, Note_on_c, 9, 40, 0
3, 56160, Note_on_c, 9, 40, 127
3, 56639, Note_on_c, 9, 40, 0
3, 57120, Note_on_c, 9, 40, 127
3, 57599, Note_on_c, 9, 40, 0
3, 58080, Note_on_c, 9, 40, 127
3, 58559, Note_on_c, 9, 40, 0
3, 59040, Note_on_c, 9, 40, 127
3, 59519, Note_on_c, 9, 40, 0
3, 60000, Note_on_c, 9, 40, 127
3, 60479, Note_on_c, 9, 40, 0
3, 60960, Note_on_c, 9, 40, 127
3, 61439, Note_on_c, 9, 40, 0
3, 61920, Note_on_c, 9, 40, 127
3, 62399, Note_on_c, 9, 40, 0
3, 62880, Note_on_c, 9, 40, 127
3, 63359, Note_on_c, 9, 40, 0
3, 63840, Note_on_c, 9, 40, 127
3, 64319, Note_on_c, 9, 40, 0
3, 64800, Note_on_c, 9, 40, 127
3, 65279, Note_on_c, 9, 40, 0
3, 65760, Note_on_c, 9, 40, 127
3, 66239, Note_on_c, 9, 40, 0
3, 66720, Note_on_c, 9, 40, 127
3, 67199, Note_on_c, 9, 40, 0
3, 67680, Note_on_c, 9, 40, 127
3, 68159, Note_on_c, 9, 40, 0
3, 68640, Note_on_c, 9, 40, 127
3, 69119, Note_on_c, 9, 40, 0
3, 69600, Note_on_c, 9, 40, 127
3, 70079, Note_on_c, 9, 40, 0
3, 70560, Note_on_c, 9, 40, 127
3, 71039, Note_on_c, 9, 40, 0
3, 71520, Note_on_c, 9, 40, 127
3, 71999, Note_on_c, 9, 40, 0
3, 72480, Note_on_c, 9, 40, 127
3, 72959, Note_on_c, 9, 40, 0
3, 73440, Note_on_c, 9, 40, 127
3, 73919, Note_on_c, 9, 40, 0
3, 74400, Note_on_c, 9, 40, 127
3, 74879, Note_on_c, 9, 40, 0
3, 75360, Note_on_c, 9, 40, 127
3, 75839, Note_on_c, 9, 40, 0
3, 76320, Note_on_c, 9, 40, 127
3, 76439, Note_on_c, 9, 40, 0
3, 76440, Note_on_c, 9, 40, 127
3, 76559, Note_on_c, 9, 40, 0
3, 76560, Note_on_c, 9, 40, 127
3, 76799, Note_on_c, 9, 40, 0
3, 77280, Note_on_c, 9, 40, 127
3, 77759, Note_on_c, 9, 40, 0
3, 78240, Note_on_c, 9, 40, 127
3, 78719, Note_on_c, 9, 40, 0
3, 79200, Note_on_c, 9, 40, 127
3, 79679, Note_on_c, 9, 40, 0
3, 80160, Note_on_c, 9, 40, 127
3, 80639, Note_on_c, 9, 40, 0
3, 81120, Note_on_c, 9, 40, 127
3, 81599, Note_on_c, 9, 40, 0
3, 82080, Note_on_c, 9, 40, 127
3, 82559, Note_on_c, 9, 40, 0
3, 83040, Note_on_c, 9, 40, 127
3, 83519, Note_on_c, 9, 40, 0
3, 84000, Note_on_c, 9, 40, 127
3, 84479, Note_on_c, 9, 40, 0
3, 84960, Note_on_c, 9, 40, 127
3, 85439, Note_on_c, 9, 40, 0
3, 85920, Note_on_c, 9, 40, 127
3, 86399, Note_on_c, 9, 40, 0
3, 86880, Note_on_c, 9, 40, 127
3, 87359, Note_on_c, 9, 40, 0
3, 87840, Note_on_c, 9, 40, 127
3, 88319, Note_on_c, 9, 40, 0
3, 88800, Note_on_c, 9, 40, 127
3, 89279, Note_on_c, 9, 40, 0
3, 89760, Note_on_c, 9, 40, 127
3, 90239, Note_on_c, 9, 40, 0
3, 90720, Note_on_c, 9, 40, 127
3, 91199, Note_on_c, 9, 40, 0
3, 91680, Note_on_c, 9, 40, 127
3, 92159, Note_on_c, 9, 40, 0
3, 92640, Note_on_c, 9, 40, 127
3, 93119, Note_on_c, 9, 40, 0
3, 93600, Note_on_c, 9, 40, 127
3, 94079, Note_on_c, 9, 40, 0
3, 94560, Note_on_c, 9, 40, 127
3, 95039, Note_on_c, 9, 40, 0
3, 95280, Note_on_c, 9, 40, 127
3, 95519, Note_on_c, 9, 40, 0
3, 95520, Note_on_c, 9, 40, 127
3, 95639, Note_on_c, 9, 40, 0
3, 95640, Note_on_c, 9, 45, 127
3, 95760, Note_on_c, 9, 43, 127
3, 95999, Note_on_c, 9, 45, 0
3, 95999, Note_on_c, 9, 43, 0
3, 96480, Note_on_c, 9, 40, 127
3, 96959, Note_on_c, 9, 40, 0
3, 97440, Note_on_c, 9, 40, 127
3, 97919, Note_on_c, 9, 40, 0
3, 98400, Note_on_c, 9, 40, 127
3, 98879, Note_on_c, 9, 40, 0
3, 99360, Note_on_c, 9, 40, 127
3, 99839, Note_on_c, 9, 40, 0
3, 101760, Note_on_c, 9, 40, 127
3, 101879, Note_on_c, 9, 40, 0
3, 101880, Note_on_c, 9, 40, 127
3, 101999, Note_on_c, 9, 40, 0
3, 102000, Note_on_c, 9, 40, 127
3, 102119, Note_on_c, 9, 40, 0
3, 102120, Note_on_c, 9, 40, 127
3, 102239, Note_on_c, 9, 40, 0
3, 102240, Note_on_c, 9, 40, 127
3, 102719, Note_on_c, 9, 40, 0
3, 102720, Note_on_c, 9, 40, 127
3, 102839, Note_on_c, 9, 40, 0
3, 102840, Note_on_c, 9, 40, 127
3, 102959, Note_on_c, 9, 40, 0
3, 102960, Note_on_c, 9, 40, 127
3, 103079, Note_on_c, 9, 40, 0
3, 103080, Note_on_c, 9, 40, 127
3, 103199, Note_on_c, 9, 40, 0
3, 103200, Note_on_c, 9, 40, 127
3, 103439, Note_on_c, 9, 40, 0
3, 103440, Note_on_c, 9, 40, 127
3, 103679, Note_on_c, 9, 40, 0
3, 104160, Note_on_c, 9, 40, 127
3, 104639, Note_on_c, 9, 40, 0
3, 105120, Note_on_c, 9, 40, 127
3, 105599, Note_on_c, 9, 40, 0
3, 106080, Note_on_c, 9, 40, 127
3, 106559, Note_on_c, 9, 40, 0
3, 107040, Note_on_c, 9, 40, 127
3, 107519, Note_on_c, 9, 40, 0
3, 108000, Note_on_c, 9, 40, 127
3, 108479, Note_on_c, 9, 40, 0
3, 108960, Note_on_c, 9, 40, 127
3, 109439, Note_on_c, 9, 40, 0
3, 109440, Note_on_c, 9, 40, 127
3, 109559, Note_on_c, 9, 40, 0
3, 109560, Note_on_c, 9, 40, 127
3, 109679, Note_on_c, 9, 40, 0
3, 109680, Note_on_c, 9, 40, 127
3, 109799, Note_on_c, 9, 40, 0
3, 109800, Note_on_c, 9, 40, 127
3, 109919, Note_on_c, 9, 40, 0
3, 109920, Note_on_c, 9, 40, 127
3, 110399, Note_on_c, 9, 40, 0
3, 110400, Note_on_c, 9, 40, 127
3, 110519, Note_on_c, 9, 40, 0
3, 110520, Note_on_c, 9, 40, 127
3, 110639, Note_on_c, 9, 40, 0
3, 110640, Note_on_c, 9, 40, 127
3, 110759, Note_on_c, 9, 40, 0
3, 110760, Note_on_c, 9, 40, 127
3, 110879, Note_on_c, 9, 40, 0
3, 110880, Note_on_c, 9, 40, 127
3, 111119, Note_on_c, 9, 40, 0
3, 111120, Note_on_c, 9, 40, 127
3, 111359, Note_on_c, 9, 40, 0
3, 112800, Note_on_c, 9, 40, 127
3, 113279, Note_on_c, 9, 40, 0
3, 114720, Note_on_c, 9, 40, 127
3, 115199, Note_on_c, 9, 40, 0
3, 116640, Note_on_c, 9, 40, 127
3, 117119, Note_on_c, 9, 40, 0
3, 118560, Note_on_c, 9, 40, 115
3, 119039, Note_on_c, 9, 40, 0
3, 120480, Note_on_c, 9, 40, 127
3, 120959, Note_on_c, 9, 40, 0
3, 122400, Note_on_c, 9, 40, 127
3, 122879, Note_on_c, 9, 40, 0
3, 124320, Note_on_c, 9, 40, 127
3, 124799, Note_on_c, 9, 40, 0
3, 125280, Note_on_c, 9, 40, 127
3, 125759, Note_on_c, 9, 40, 0
3, 126240, Note_on_c, 9, 40, 127
3, 126719, Note_on_c, 9, 40, 0
3, 126720, Note_on_c, 9, 40, 127
3, 126839, Note_on_c, 9, 40, 0
3, 126840, Note_on_c, 9, 40, 127
3, 126959, Note_on_c, 9, 40, 0
3, 126960, Note_on_c, 9, 40, 127
3, 127079, Note_on_c, 9, 40, 0
3, 127080, Note_on_c, 9, 40, 127
3, 127199, Note_on_c, 9, 40, 0
3, 127200, Note_on_c, 9, 40, 127
3, 127679, Note_on_c, 9, 40, 0
3, 127680, Note_on_c, 9, 40, 127
3, 127799, Note_on_c, 9, 40, 0
3, 127800, Note_on_c, 9, 40, 127
3, 127919, Note_on_c, 9, 40, 0
3, 127920, Note_on_c, 9, 40, 127
3, 128039, Note_on_c, 9, 40, 0
3, 128040, Note_on_c, 9, 40, 127
3, 128159, Note_on_c, 9, 40, 0
3, 128160, Note_on_c, 9, 40, 127
3, 128399, Note_on_c, 9, 40, 0
3, 128400, Note_on_c, 9, 40, 127
3, 128639, Note_on_c, 9, 40, 0
3, 130080, Note_on_c, 9, 40, 127
3, 130559, Note_on_c, 9, 40, 0
3, 132000, Note_on_c, 9, 40, 127
3, 132479, Note_on_c, 9, 40, 0
3, 133920, Note_on_c, 9, 40, 127
3, 134399, Note_on_c, 9, 40, 0
3, 135840, Note_on_c, 9, 40, 115
3, 136319, Note_on_c, 9, 40, 0
3, 137760, Note_on_c, 9, 40, 127
3, 138239, Note_on_c, 9, 40, 0
3, 139680, Note_on_c, 9, 40, 127
3, 140159, Note_on_c, 9, 40, 0
3, 141600, Note_on_c, 9, 40, 127
3, 142079, Note_on_c, 9, 40, 0
3, 142560, Note_on_c, 9, 40, 127
3, 143039, Note_on_c, 9, 40, 0
3, 143520, Note_on_c, 9, 40, 127
3, 143999, Note_on_c, 9, 40, 0
3, 144480, Note_on_c, 9, 40, 127
3, 144959, Note_on_c, 9, 40, 0
3, 145440, Note_on_c, 9, 40, 127
3, 145919, Note_on_c, 9, 40, 0
3, 146400, Note_on_c, 9, 40, 127
3, 146879, Note_on_c, 9, 40, 0
3, 147360, Note_on_c, 9, 40, 127
3, 147839, Note_on_c, 9, 40, 0
3, 148320, Note_on_c, 9, 40, 127
3, 148799, Note_on_c, 9, 40, 0
3, 149280, Note_on_c, 9, 40, 127
3, 149759, Note_on_c, 9, 40, 0
3, 150240, Note_on_c, 9, 40, 127
3, 150719, Note_on_c, 9, 40, 0
3, 151200, Note_on_c, 9, 40, 127
3, 151679, Note_on_c, 9, 40, 0
3, 152160, Note_on_c, 9, 40, 127
3, 152639, Note_on_c, 9, 40, 0
3, 153120, Note_on_c, 9, 40, 127
3, 153599, Note_on_c, 9, 40, 0
3, 154080, Note_on_c, 9, 40, 127
3, 154559, Note_on_c, 9, 40, 0
3, 155040, Note_on_c, 9, 40, 127
3, 155519, Note_on_c, 9, 40, 0
3, 157440, Note_on_c, 9, 40, 127
3, 157559, Note_on_c, 9, 40, 0
3, 157560, Note_on_c, 9, 40, 127
3, 157679, Note_on_c, 9, 40, 0
3, 157680, Note_on_c, 9, 40, 127
3, 157799, Note_on_c, 9, 40, 0
3, 157800, Note_on_c, 9, 40, 127
3, 157919, Note_on_c, 9, 40, 0
3, 157920, Note_on_c, 9, 40, 127
3, 158039, Note_on_c, 9, 40, 0
3, 158040, Note_on_c, 9, 40, 127
3, 158159, Note_on_c, 9, 40, 0
3, 158160, Note_on_c, 9, 40, 127
3, 158279, Note_on_c, 9, 40, 0
3, 158280, Note_on_c, 9, 40, 127
3, 158399, Note_on_c, 9, 40, 0
3, 158400, Note_on_c, 9, 45, 127
3, 158519, Note_on_c, 9, 45, 0
3, 158520, Note_on_c, 9, 45, 127
3, 158639, Note_on_c, 9, 45, 0
3, 158640, Note_on_c, 9, 45, 127
3, 158760, Note_on_c, 9, 43, 127
3, 158879, Note_on_c, 9, 45, 0
3, 158879, Note_on_c, 9, 43, 0
3, 158880, Note_on_c, 9, 43, 127
3, 158999, Note_on_c, 9, 43, 0
3, 159000, Note_on_c, 9, 43, 127
3, 159120, Note_on_c, 9, 41, 127
3, 159239, Note_on_c, 9, 41, 0
3, 159240, Note_on_c, 9, 41, 127
3, 159359, Note_on_c, 9, 43, 0
3, 159359, Note_on_c, 9, 41, 0
3, 159840, Note_on_c, 9, 40, 127
3, 160319, Note_on_c, 9, 40, 0
3, 160800, Note_on_c, 9, 40, 127
3, 161279, Note_on_c, 9, 40, 0
3, 161760, Note_on_c, 9, 40, 127
3, 162239, Note_on_c, 9, 40, 0
3, 162720, Note_on_c, 9, 40, 127
3, 163199, Note_on_c, 9, 40, 0
3, 163680, Note_on_c, 9, 40, 127
3, 164159, Note_on_c, 9, 40, 0
3, 164640, Note_on_c, 9, 40, 127
3, 165119, Note_on_c, 9, 40, 0
3, 165600, Note_on_c, 9, 40, 127
3, 166079, Note_on_c, 9, 40, 0
3, 166560, Note_on_c, 9, 40, 127
3, 167039, Note_on_c, 9, 40, 0
3, 167520, Note_on_c, 9, 40, 127
3, 167999, Note_on_c, 9, 40, 0
3, 168480, Note_on_c, 9, 40, 127
3, 168959, Note_on_c, 9, 40, 0
3, 169440, Note_on_c, 9, 40, 127
3, 169919, Note_on_c, 9, 40, 0
3, 170400, Note_on_c, 9, 40, 127
3, 170879, Note_on_c, 9, 40, 0
3, 171360, Note_on_c, 9, 40, 127
3, 171839, Note_on_c, 9, 40, 0
3, 172320, Note_on_c, 9, 40, 127
3, 172799, Note_on_c, 9, 40, 0
3, 173280, Note_on_c, 9, 40, 127
3, 173759, Note_on_c, 9, 40, 0
3, 174240, Note_on_c, 9, 40, 127
3, 174359, Note_on_c, 9, 40, 0
3, 174360, Note_on_c, 9, 40, 127
3, 174479, Note_on_c, 9, 40, 0
3, 174480, Note_on_c, 9, 40, 127
3, 174719, Note_on_c, 9, 40, 0
3, 175200, Note_on_c, 9, 40, 127
3, 175679, Note_on_c, 9, 40, 0
3, 176160, Note_on_c, 9, 40, 127
3, 176639, Note_on_c, 9, 40, 0
3, 177120, Note_on_c, 9, 40, 127
3, 177599, Note_on_c, 9, 40, 0
3, 178080, Note_on_c, 9, 40, 127
3, 178559, Note_on_c, 9, 40, 0
3, 179040, Note_on_c, 9, 40, 127
3, 179519, Note_on_c, 9, 40, 0
3, 180000, Note_on_c, 9, 40, 127
3, 180479, Note_on_c, 9, 40, 0
3, 180960, Note_on_c, 9, 40, 127
3, 181439, Note_on_c, 9, 40, 0
3, 181920, Note_on_c, 9, 40, 127
3, 182399, Note_on_c, 9, 40, 0
3, 182880, Note_on_c, 9, 40, 127
3, 183359, Note_on_c, 9, 40, 0
3, 183840, Note_on_c, 9, 40, 127
3, 184319, Note_on_c, 9, 40, 0
3, 184800, Note_on_c, 9, 40, 127
3, 185279, Note_on_c, 9, 40, 0
3, 185760, Note_on_c, 9, 40, 127
3, 186239, Note_on_c, 9, 40, 0
3, 186720, Note_on_c, 9, 40, 127
3, 187199, Note_on_c, 9, 40, 0
3, 187680, Note_on_c, 9, 40, 127
3, 188159, Note_on_c, 9, 40, 0
3, 188640, Note_on_c, 9, 40, 127
3, 189119, Note_on_c, 9, 40, 0
3, 189600, Note_on_c, 9, 40, 127
3, 190079, Note_on_c, 9, 40, 0
3, 190560, Note_on_c, 9, 40, 127
3, 191039, Note_on_c, 9, 40, 0
3, 191520, Note_on_c, 9, 40, 127
3, 191999, Note_on_c, 9, 40, 0
3, 192480, Note_on_c, 9, 40, 127
3, 192959, Note_on_c, 9, 40, 0
3, 193440, Note_on_c, 9, 40, 127
3, 193559, Note_on_c, 9, 40, 0
3, 193560, Note_on_c, 9, 45, 102
3, 193680, Note_on_c, 9, 43, 127
3, 193799, Note_on_c, 9, 43, 0
3, 193800, Note_on_c, 9, 43, 127
3, 193919, Note_on_c, 9, 45, 0
3, 193919, Note_on_c, 9, 43, 0
3, 194400, Note_on_c, 9, 40, 127
3, 194879, Note_on_c, 9, 40, 0
3, 195360, Note_on_c, 9, 40, 127
3, 195839, Note_on_c, 9, 40, 0
3, 196320, Note_on_c, 9, 40, 127
3, 196799, Note_on_c, 9, 40, 0
3, 197280, Note_on_c, 9, 40, 127
3, 197759, Note_on_c, 9, 40, 0
3, 199680, Note_on_c, 9, 40, 127
3, 199799, Note_on_c, 9, 40, 0
3, 199800, Note_on_c, 9, 40, 127
3, 199919, Note_on_c, 9, 40, 0
3, 199920, Note_on_c, 9, 40, 127
3, 200039, Note_on_c, 9, 40, 0
3, 200040, Note_on_c, 9, 40, 127
3, 200159, Note_on_c, 9, 40, 0
3, 200160, Note_on_c, 9, 40, 127
3, 200639, Note_on_c, 9, 40, 0
3, 200640, Note_on_c, 9, 40, 127
3, 200759, Note_on_c, 9, 40, 0
3, 200760, Note_on_c, 9, 40, 127
3, 200879, Note_on_c, 9, 40, 0
3, 200880, Note_on_c, 9, 40, 127
3, 200999, Note_on_c, 9, 40, 0
3, 201000, Note_on_c, 9, 40, 127
3, 201119, Note_on_c, 9, 40, 0
3, 201120, Note_on_c, 9, 40, 127
3, 201359, Note_on_c, 9, 40, 0
3, 201360, Note_on_c, 9, 40, 127
3, 201599, Note_on_c, 9, 40, 0
3, 203520, Note_on_c, 9, 40, 127
3, 203639, Note_on_c, 9, 40, 0
3, 203640, Note_on_c, 9, 40, 127
3, 203759, Note_on_c, 9, 40, 0
3, 203760, Note_on_c, 9, 40, 127
3, 203879, Note_on_c, 9, 40, 0
3, 203880, Note_on_c, 9, 40, 127
3, 203999, Note_on_c, 9, 40, 0
3, 204000, Note_on_c, 9, 40, 127
3, 204119, Note_on_c, 9, 40, 0
3, 204120, Note_on_c, 9, 40, 127
3, 204239, Note_on_c, 9, 40, 0
3, 204240, Note_on_c, 9, 40, 127
3, 204359, Note_on_c, 9, 40, 0
3, 204360, Note_on_c, 9, 40, 127
3, 204479, Note_on_c, 9, 40, 0
3, 204480, Note_on_c, 9, 45, 127
3, 204599, Note_on_c, 9, 45, 0
3, 204600, Note_on_c, 9, 45, 127
3, 204719, Note_on_c, 9, 45, 0
3, 204720, Note_on_c, 9, 45, 127
3, 204840, Note_on_c, 9, 43, 127
3, 204959, Note_on_c, 9, 45, 0
3, 204959, Note_on_c, 9, 43, 0
3, 204960, Note_on_c, 9, 43, 127
3, 205079, Note_on_c, 9, 43, 0
3, 205080, Note_on_c, 9, 43, 127
3, 205200, Note_on_c, 9, 41, 127
3, 205319, Note_on_c, 9, 41, 0
3, 205320, Note_on_c, 9, 41, 127
3, 205439, Note_on_c, 9, 43, 0
3, 205439, Note_on_c, 9, 41, 0
3, 207360, Note_on_c, 9, 40, 127
3, 207479, Note_on_c, 9, 40, 0
3, 207480, Note_on_c, 9, 40, 127
3, 207599, Note_on_c, 9, 40, 0
3, 207600, Note_on_c, 9, 40, 127
3, 207719, Note_on_c, 9, 40, 0
3, 207720, Note_on_c, 9, 40, 127
3, 207839, Note_on_c, 9, 40, 0
3, 207840, Note_on_c, 9, 40, 127
3, 207959, Note_on_c, 9, 40, 0
3, 207960, Note_on_c, 9, 40, 127
3, 208079, Note_on_c, 9, 40, 0
3, 208080, Note_on_c, 9, 40, 127
3, 208199, Note_on_c, 9, 40, 0
3, 208200, Note_on_c, 9, 40, 127
3, 208319, Note_on_c, 9, 40, 0
3, 208320, Note_on_c, 9, 45, 127
3, 208439, Note_on_c, 9, 45, 0
3, 208440, Note_on_c, 9, 45, 127
3, 208559, Note_on_c, 9, 45, 0
3, 208560, Note_on_c, 9, 45, 127
3, 208680, Note_on_c, 9, 43, 127
3, 208799, Note_on_c, 9, 45, 0
3, 208799, Note_on_c, 9, 43, 0
3, 208800, Note_on_c, 9, 43, 127
3, 208919, Note_on_c, 9, 43, 0
3, 208920, Note_on_c, 9, 43, 127
3, 209040, Note_on_c, 9, 41, 127
3, 209159, Note_on_c, 9, 41, 0
3, 209160, Note_on_c, 9, 41, 127
3, 209279, Note_on_c, 9, 43, 0
3, 209279, Note_on_c, 9, 41, 0
3, 209280, End_track
0, 0, End_of_file
