0, 0, Header, 1, 2, 480
1, 0, Start_track
1, 0, Time_signature, 4, 2, 24, 8
1, 0, Key_signature, 0, "major"
1, 0, Tempo, 526316
1, 0, Control_c, 9, 121, 0
1, 0, Program_c, 9, 0
1, 0, Control_c, 9, 7, 116
1, 0, Control_c, 9, 10, 64
1, 0, Control_c, 9, 91, 0
1, 0, Control_c, 9, 93, 0
1, 0, MIDI_port, 0
1, 1920, Note_on_c, 9, 54, 100
1, 1920, Note_on_c, 9, 70, 100
1, 1920, Note_on_c, 9, 42, 90
1, 1920, Note_on_c, 9, 49, 90
1, 1920, Note_on_c, 9, 35, 100
1, 2159, Note_on_c, 9, 54, 0
1, 2159, Note_on_c, 9, 70, 0
1, 2159, Note_on_c, 9, 42, 0
1, 2159, Note_on_c, 9, 49, 0
1, 2159, Note_on_c, 9, 35, 0
1, 2160, Note_on_c, 9, 54, 70
1, 2160, Note_on_c, 9, 69, 80
1, 2160, Note_on_c, 9, 70, 60
1, 2160, Note_on_c, 9, 42, 70
1, 2160, Note_on_c, 9, 35, 90
1, 2399, Note_on_c, 9, 54, 0
1, 2399, Note_on_c, 9, 69, 0
1, 2399, Note_on_c, 9, 70, 0
1, 2399, Note_on_c, 9, 42, 0
1, 2399, Note_on_c, 9, 35, 0
1, 2400, Note_on_c, 9, 38, 100
1, 2400, Note_on_c, 9, 54, 127
1, 2400, Note_on_c, 9, 70, 100
1, 2400, Note_on_c, 9, 42, 100
1, 2639, Note_on_c, 9, 38, 0
1, 2639, Note_on_c, 9, 54, 0
1, 2639, Note_on_c, 9, 70, 0
1, 2639, Note_on_c, 9, 42, 0
1, 2640, Note_on_c, 9, 54, 90
1, 2640, Note_on_c, 9, 69, 80
1, 2640, Note_on_c, 9, 70, 60
1, 2640, Note_on_c, 9, 42, 70
1, 2640, Note_on_c, 9, 35, 70
1, 2879, Note_on_c, 9, 54, 0
1, 2879, Note_on_c, 9, 69, 0
1, 2879, Note_on_c, 9, 70, 0
1, 2879, Note_on_c, 9, 42, 0
1, 2879, Note_on_c, 9, 35, 0
1, 2880, Note_on_c, 9, 54, 100
1, 2880, Note_on_c, 9, 70, 100
1, 2880, Note_on_c, 9, 42, 90
1, 2880, Note_on_c, 9, 35, 100
1, 3119, Note_on_c, 9, 54, 0
1, 3119, Note_on_c, 9, 70, 0
1, 3119, Note_on_c, 9, 42, 0
1, 3119, Note_on_c, 9, 35, 0
1, 3120, Note_on_c, 9, 54, 70
1, 3120, Note_on_c, 9, 69, 80
1, 3120, Note_on_c, 9, 70, 60
1, 3120, Note_on_c, 9, 42, 70
1, 3120, Note_on_c, 9, 35, 90
1, 3359, Note_on_c, 9, 54, 0
1, 3359, Note_on_c, 9, 69, 0
1, 3359, Note_on_c, 9, 70, 0
1, 3359, Note_on_c, 9, 42, 0
1, 3359, Note_on_c, 9, 35, 0
1, 3360, Note_on_c, 9, 38, 100
1, 3360, Note_on_c, 9, 54, 127
1, 3360, Note_on_c, 9, 70, 100
1, 3360, Note_on_c, 9, 42, 100
1, 3599, Note_on_c, 9, 38, 0
1, 3599, Note_on_c, 9, 54, 0
1, 3599, Note_on_c, 9, 70, 0
1, 3599, Note_on_c, 9, 42, 0
1, 3600, Note_on_c, 9, 54, 90
1, 3600, Note_on_c, 9, 69, 80
1, 3600, Note_on_c, 9, 70, 60
1, 3600, Note_on_c, 9, 42, 70
1, 3600, Note_on_c, 9, 35, 75
1, 3839, Note_on_c, 9, 54, 0
1, 3839, Note_on_c, 9, 69, 0
1, 3839, Note_on_c, 9, 70, 0
1, 3839, Note_on_c, 9, 42, 0
1, 3839, Note_on_c, 9, 35, 0
1, 3840, Note_on_c, 9, 54, 100
1, 3840, Note_on_c, 9, 70, 100
1, 3840, Note_on_c, 9, 42, 90
1, 3840, Note_on_c, 9, 35, 100
1, 4079, Note_on_c, 9, 54, 0
1, 4079, Note_on_c, 9, 70, 0
1, 4079, Note_on_c, 9, 42, 0
1, 4079, Note_on_c, 9, 35, 0
1, 4080, Note_on_c, 9, 54, 70
1, 4080, Note_on_c, 9, 69, 80
1, 4080, Note_on_c, 9, 70, 60
1, 4080, Note_on_c, 9, 42, 70
1, 4080, Note_on_c, 9, 35, 90
1, 4319, Note_on_c, 9, 54, 0
1, 4319, Note_on_c, 9, 69, 0
1, 4319, Note_on_c, 9, 70, 0
1, 4319, Note_on_c, 9, 42, 0
1, 4319, Note_on_c, 9, 35, 0
1, 4320, Note_on_c, 9, 38, 100
1, 4320, Note_on_c, 9, 54, 127
1, 4320, Note_on_c, 9, 70, 100
1, 4320, Note_on_c, 9, 42, 100
1, 4559, Note_on_c, 9, 38, 0
1, 4559, Note_on_c, 9, 54, 0
1, 4559, Note_on_c, 9, 70, 0
1, 4559, Note_on_c, 9, 42, 0
1, 4560, Note_on_c, 9, 54, 90
1, 4560, Note_on_c, 9, 69, 80
1, 4560, Note_on_c, 9, 70, 60
1, 4560, Note_on_c, 9, 42, 70
1, 4560, Note_on_c, 9, 35, 70
1, 4799, Note_on_c, 9, 54, 0
1, 4799, Note_on_c, 9, 69, 0
1, 4799, Note_on_c, 9, 70, 0
1, 4799, Note_on_c, 9, 42, 0
1, 4799, Note_on_c, 9, 35, 0
1, 4800, Note_on_c, 9, 54, 100
1, 4800, Note_on_c, 9, 70, 100
1, 4800, Note_on_c, 9, 42, 90
1, 4800, Note_on_c, 9, 35, 100
1, 5039, Note_on_c, 9, 54, 0
1, 5039, Note_on_c, 9, 70, 0
1, 5039, Note_on_c, 9, 42, 0
1, 5039, Note_on_c, 9, 35, 0
1, 5040, Note_on_c, 9, 54, 70
1, 5040, Note_on_c, 9, 69, 80
1, 5040, Note_on_c, 9, 70, 60
1, 5040, Note_on_c, 9, 42, 70
1, 5040, Note_on_c, 9, 35, 90
1, 5279, Note_on_c, 9, 54, 0
1, 5279, Note_on_c, 9, 69, 0
1, 5279, Note_on_c, 9, 70, 0
1, 5279, Note_on_c, 9, 42, 0
1, 5279, Note_on_c, 9, 35, 0
1, 5280, Note_on_c, 9, 38, 100
1, 5280, Note_on_c, 9, 54, 127
1, 5280, Note_on_c, 9, 70, 100
1, 5280, Note_on_c, 9, 42, 100
1, 5519, Note_on_c, 9, 38, 0
1, 5519, Note_on_c, 9, 54, 0
1, 5519, Note_on_c, 9, 70, 0
1, 5519, Note_on_c, 9, 42, 0
1, 5520, Note_on_c, 9, 54, 90
1, 5520, Note_on_c, 9, 69, 80
1, 5520, Note_on_c, 9, 70, 60
1, 5520, Note_on_c, 9, 42, 70
1, 5520, Note_on_c, 9, 35, 75
1, 5639, Note_on_c, 9, 54, 0
1, 5639, Note_on_c, 9, 69, 0
1, 5639, Note_on_c, 9, 70, 0
1, 5639, Note_on_c, 9, 42, 0
1, 5640, Note_on_c, 9, 46, 100
1, 5759, Note_on_c, 9, 35, 0
1, 5759, Note_on_c, 9, 46, 0
1, 5760, Note_on_c, 9, 54, 100
1, 5760, Note_on_c, 9, 70, 100
1, 5760, Note_on_c, 9, 42, 90
1, 5760, Note_on_c, 9, 35, 100
1, 5999, Note_on_c, 9, 54, 0
1, 5999, Note_on_c, 9, 70, 0
1, 5999, Note_on_c, 9, 42, 0
1, 5999, Note_on_c, 9, 35, 0
1, 6000, Note_on_c, 9, 54, 70
1, 6000, Note_on_c, 9, 69, 80
1, 6000, Note_on_c, 9, 70, 60
1, 6000, Note_on_c, 9, 42, 70
1, 6000, Note_on_c, 9, 35, 90
1, 6239, Note_on_c, 9, 54, 0
1, 6239, Note_on_c, 9, 69, 0
1, 6239, Note_on_c, 9, 70, 0
1, 6239, Note_on_c, 9, 42, 0
1, 6239, Note_on_c, 9, 35, 0
1, 6240, Note_on_c, 9, 38, 100
1, 6240, Note_on_c, 9, 54, 127
1, 6240, Note_on_c, 9, 70, 100
1, 6240, Note_on_c, 9, 42, 100
1, 6479, Note_on_c, 9, 38, 0
1, 6479, Note_on_c, 9, 54, 0
1, 6479, Note_on_c, 9, 70, 0
1, 6479, Note_on_c, 9, 42, 0
1, 6480, Note_on_c, 9, 54, 90
1, 6480, Note_on_c, 9, 69, 80
1, 6480, Note_on_c, 9, 70, 60
1, 6480, Note_on_c, 9, 42, 70
1, 6480, Note_on_c, 9, 35, 70
1, 6719, Note_on_c, 9, 54, 0
1, 6719, Note_on_c, 9, 69, 0
1, 6719, Note_on_c, 9, 70, 0
1, 6719, Note_on_c, 9, 42, 0
1, 6719, Note_on_c, 9, 35, 0
1, 6720, Note_on_c, 9, 54, 100
1, 6720, Note_on_c, 9, 70, 100
1, 6720, Note_on_c, 9, 42, 90
1, 6720, Note_on_c, 9, 35, 100
1, 6959, Note_on_c, 9, 54, 0
1, 6959, Note_on_c, 9, 70, 0
1, 6959, Note_on_c, 9, 42, 0
1, 6959, Note_on_c, 9, 35, 0
1, 6960, Note_on_c, 9, 54, 70
1, 6960, Note_on_c, 9, 69, 80
1, 6960, Note_on_c, 9, 70, 60
1, 6960, Note_on_c, 9, 42, 70
1, 6960, Note_on_c, 9, 35, 90
1, 7199, Note_on_c, 9, 54, 0
1, 7199, Note_on_c, 9, 69, 0
1, 7199, Note_on_c, 9, 70, 0
1, 7199, Note_on_c, 9, 42, 0
1, 7199, Note_on_c, 9, 35, 0
1, 7200, Note_on_c, 9, 38, 100
1, 7200, Note_on_c, 9, 54, 127
1, 7200, Note_on_c, 9, 70, 100
1, 7200, Note_on_c, 9, 42, 100
1, 7439, Note_on_c, 9, 38, 0
1, 7439, Note_on_c, 9, 54, 0
1, 7439, Note_on_c, 9, 70, 0
1, 7439, Note_on_c, 9, 42, 0
1, 7440, Note_on_c, 9, 54, 90
1, 7440, Note_on_c, 9, 69, 80
1, 7440, Note_on_c, 9, 70, 60
1, 7440, Note_on_c, 9, 42, 70
1, 7440, Note_on_c, 9, 35, 75
1, 7679, Note_on_c, 9, 54, 0
1, 7679, Note_on_c, 9, 69, 0
1, 7679, Note_on_c, 9, 70, 0
1, 7679, Note_on_c, 9, 42, 0
1, 7679, Note_on_c, 9, 35, 0
1, 7680, Note_on_c, 9, 38, 100
1, 7680, Note_on_c, 9, 48, 100
1, 7920, Note_on_c, 9, 35, 90
1, 8159, Note_on_c, 9, 38, 0
1, 8159, Note_on_c, 9, 48, 0
1, 8159, Note_on_c, 9, 35, 0
1, 8160, Note_on_c, 9, 35, 100
1, 8400, Note_on_c, 9, 38, 115
1, 8400, Note_on_c, 9, 45, 100
1, 8639, Note_on_c, 9, 35, 0
1, 8639, Note_on_c, 9, 38, 0
1, 8639, Note_on_c, 9, 45, 0
1, 8640, Note_on_c, 9, 35, 90
1, 8879, Note_on_c, 9, 35, 0
1, 8880, Note_on_c, 9, 35, 115
1, 9119, Note_on_c, 9, 35, 0
1, 9120, Note_on_c, 9, 41, 115
1, 9120, Note_on_c, 9, 45, 100
1, 9359, Note_on_c, 9, 41, 0
1, 9359, Note_on_c, 9, 45, 0
1, 9360, Note_on_c, 9, 38, 115
1, 9599, Note_on_c, 9, 38, 0
1, 9600, Note_on_c, 9, 54, 100
1, 9600, Note_on_c, 9, 70, 100
1, 9600, Note_on_c, 9, 42, 90
1, 9600, Note_on_c, 9, 49, 90
1, 9600, Note_on_c, 9, 35, 100
1, 9839, Note_on_c, 9, 54, 0
1, 9839, Note_on_c, 9, 70, 0
1, 9839, Note_on_c, 9, 42, 0
1, 9839, Note_on_c, 9, 49, 0
1, 9839, Note_on_c, 9, 35, 0
1, 9840, Note_on_c, 9, 54, 70
1, 9840, Note_on_c, 9, 69, 80
1, 9840, Note_on_c, 9, 70, 60
1, 9840, Note_on_c, 9, 42, 70
1, 9840, Note_on_c, 9, 35, 90
1, 10079, Note_on_c, 9, 54, 0
1, 10079, Note_on_c, 9, 69, 0
1, 10079, Note_on_c, 9, 70, 0
1, 10079, Note_on_c, 9, 42, 0
1, 10079, Note_on_c, 9, 35, 0
1, 10080, Note_on_c, 9, 38, 100
1, 10080, Note_on_c, 9, 54, 127
1, 10080, Note_on_c, 9, 70, 100
1, 10080, Note_on_c, 9, 42, 100
1, 10319, Note_on_c, 9, 38, 0
1, 10319, Note_on_c, 9, 54, 0
1, 10319, Note_on_c, 9, 70, 0
1, 10319, Note_on_c, 9, 42, 0
1, 10320, Note_on_c, 9, 54, 90
1, 10320, Note_on_c, 9, 69, 80
1, 10320, Note_on_c, 9, 70, 60
1, 10320, Note_on_c, 9, 42, 70
1, 10320, Note_on_c, 9, 35, 70
1, 10559, Note_on_c, 9, 54, 0
1, 10559, Note_on_c, 9, 69, 0
1, 10559, Note_on_c, 9, 70, 0
1, 10559, Note_on_c, 9, 42, 0
1, 10559, Note_on_c, 9, 35, 0
1, 10560, Note_on_c, 9, 54, 100
1, 10560, Note_on_c, 9, 70, 100
1, 10560, Note_on_c, 9, 42, 90
1, 10560, Note_on_c, 9, 35, 100
1, 10799, Note_on_c, 9, 54, 0
1, 10799, Note_on_c, 9, 70, 0
1, 10799, Note_on_c, 9, 42, 0
1, 10799, Note_on_c, 9, 35, 0
1, 10800, Note_on_c, 9, 54, 70
1, 10800, Note_on_c, 9, 69, 80
1, 10800, Note_on_c, 9, 70, 60
1, 10800, Note_on_c, 9, 42, 70
1, 10800, Note_on_c, 9, 35, 90
1, 11039, Note_on_c, 9, 54, 0
1, 11039, Note_on_c, 9, 69, 0
1, 11039, Note_on_c, 9, 70, 0
1, 11039, Note_on_c, 9, 42, 0
1, 11039, Note_on_c, 9, 35, 0
1, 11040, Note_on_c, 9, 38, 100
1, 11040, Note_on_c, 9, 54, 127
1, 11040, Note_on_c, 9, 70, 100
1, 11040, Note_on_c, 9, 42, 100
1, 11279, Note_on_c, 9, 38, 0
1, 11279, Note_on_c, 9, 54, 0
1, 11279, Note_on_c, 9, 70, 0
1, 11279, Note_on_c, 9, 42, 0
1, 11280, Note_on_c, 9, 54, 90
1, 11280, Note_on_c, 9, 69, 80
1, 11280, Note_on_c, 9, 70, 60
1, 11280, Note_on_c, 9, 42, 70
1, 11280, Note_on_c, 9, 35, 75
1, 11519, Note_on_c, 9, 54, 0
1, 11519, Note_on_c, 9, 69, 0
1, 11519, Note_on_c, 9, 70, 0
1, 11519, Note_on_c, 9, 42, 0
1, 11519, Note_on_c, 9, 35, 0
1, 11520, Note_on_c, 9, 54, 100
1, 11520, Note_on_c, 9, 70, 100
1, 11520, Note_on_c, 9, 42, 90
1, 11520, Note_on_c, 9, 35, 100
1, 11759, Note_on_c, 9, 54, 0
1, 11759, Note_on_c, 9, 70, 0
1, 11759, Note_on_c, 9, 42, 0
1, 11759, Note_on_c, 9, 35, 0
1, 11760, Note_on_c, 9, 54, 70
1, 11760, Note_on_c, 9, 69, 80
1, 11760, Note_on_c, 9, 70, 60
1, 11760, Note_on_c, 9, 42, 70
1, 11760, Note_on_c, 9, 35, 90
1, 11999, Note_on_c, 9, 54, 0
1, 11999, Note_on_c, 9, 69, 0
1, 11999, Note_on_c, 9, 70, 0
1, 11999, Note_on_c, 9, 42, 0
1, 11999, Note_on_c, 9, 35, 0
1, 12000, Note_on_c, 9, 38, 100
1, 12000, Note_on_c, 9, 54, 127
1, 12000, Note_on_c, 9, 70, 100
1, 12000, Note_on_c, 9, 42, 100
1, 12239, Note_on_c, 9, 38, 0
1, 12239, Note_on_c, 9, 54, 0
1, 12239, Note_on_c, 9, 70, 0
1, 12239, Note_on_c, 9, 42, 0
1, 12240, Note_on_c, 9, 54, 90
1, 12240, Note_on_c, 9, 69, 80
1, 12240, Note_on_c, 9, 70, 60
1, 12240, Note_on_c, 9, 42, 70
1, 12240, Note_on_c, 9, 35, 70
1, 12479, Note_on_c, 9, 54, 0
1, 12479, Note_on_c, 9, 69, 0
1, 12479, Note_on_c, 9, 70, 0
1, 12479, Note_on_c, 9, 42, 0
1, 12479, Note_on_c, 9, 35, 0
1, 12480, Note_on_c, 9, 54, 100
1, 12480, Note_on_c, 9, 70, 100
1, 12480, Note_on_c, 9, 42, 90
1, 12480, Note_on_c, 9, 35, 100
1, 12719, Note_on_c, 9, 54, 0
1, 12719, Note_on_c, 9, 70, 0
1, 12719, Note_on_c, 9, 42, 0
1, 12719, Note_on_c, 9, 35, 0
1, 12720, Note_on_c, 9, 54, 70
1, 12720, Note_on_c, 9, 69, 80
1, 12720, Note_on_c, 9, 70, 60
1, 12720, Note_on_c, 9, 42, 70
1, 12720, Note_on_c, 9, 35, 90
1, 12959, Note_on_c, 9, 54, 0
1, 12959, Note_on_c, 9, 69, 0
1, 12959, Note_on_c, 9, 70, 0
1, 12959, Note_on_c, 9, 42, 0
1, 12959, Note_on_c, 9, 35, 0
1, 12960, Note_on_c, 9, 38, 100
1, 12960, Note_on_c, 9, 54, 127
1, 12960, Note_on_c, 9, 70, 100
1, 12960, Note_on_c, 9, 42, 100
1, 13199, Note_on_c, 9, 38, 0
1, 13199, Note_on_c, 9, 54, 0
1, 13199, Note_on_c, 9, 70, 0
1, 13199, Note_on_c, 9, 42, 0
1, 13200, Note_on_c, 9, 54, 90
1, 13200, Note_on_c, 9, 69, 80
1, 13200, Note_on_c, 9, 70, 60
1, 13200, Note_on_c, 9, 42, 70
1, 13200, Note_on_c, 9, 35, 75
1, 13439, Note_on_c, 9, 54, 0
1, 13439, Note_on_c, 9, 69, 0
1, 13439, Note_on_c, 9, 70, 0
1, 13439, Note_on_c, 9, 42, 0
1, 13439, Note_on_c, 9, 35, 0
1, 13440, Note_on_c, 9, 54, 100
1, 13440, Note_on_c, 9, 70, 100
1, 13440, Note_on_c, 9, 42, 90
1, 13440, Note_on_c, 9, 35, 100
1, 13679, Note_on_c, 9, 54, 0
1, 13679, Note_on_c, 9, 70, 0
1, 13679, Note_on_c, 9, 42, 0
1, 13679, Note_on_c, 9, 35, 0
1, 13680, Note_on_c, 9, 54, 70
1, 13680, Note_on_c, 9, 69, 80
1, 13680, Note_on_c, 9, 70, 60
1, 13680, Note_on_c, 9, 42, 70
1, 13680, Note_on_c, 9, 35, 90
1, 13919, Note_on_c, 9, 54, 0
1, 13919, Note_on_c, 9, 69, 0
1, 13919, Note_on_c, 9, 70, 0
1, 13919, Note_on_c, 9, 42, 0
1, 13919, Note_on_c, 9, 35, 0
1, 13920, Note_on_c, 9, 38, 100
1, 13920, Note_on_c, 9, 54, 127
1, 13920, Note_on_c, 9, 70, 100
1, 13920, Note_on_c, 9, 42, 100
1, 14159, Note_on_c, 9, 38, 0
1, 14159, Note_on_c, 9, 54, 0
1, 14159, Note_on_c, 9, 70, 0
1, 14159, Note_on_c, 9, 42, 0
1, 14160, Note_on_c, 9, 54, 90
1, 14160, Note_on_c, 9, 69, 80
1, 14160, Note_on_c, 9, 70, 60
1, 14160, Note_on_c, 9, 42, 70
1, 14160, Note_on_c, 9, 35, 70
1, 14399, Note_on_c, 9, 54, 0
1, 14399, Note_on_c, 9, 69, 0
1, 14399, Note_on_c, 9, 70, 0
1, 14399, Note_on_c, 9, 42, 0
1, 14399, Note_on_c, 9, 35, 0
1, 14400, Note_on_c, 9, 54, 100
1, 14400, Note_on_c, 9, 70, 100
1, 14400, Note_on_c, 9, 42, 90
1, 14400, Note_on_c, 9, 35, 100
1, 14639, Note_on_c, 9, 54, 0
1, 14639, Note_on_c, 9, 70, 0
1, 14639, Note_on_c, 9, 42, 0
1, 14639, Note_on_c, 9, 35, 0
1, 14640, Note_on_c, 9, 54, 70
1, 14640, Note_on_c, 9, 69, 80
1, 14640, Note_on_c, 9, 70, 60
1, 14640, Note_on_c, 9, 42, 70
1, 14640, Note_on_c, 9, 35, 90
1, 14879, Note_on_c, 9, 54, 0
1, 14879, Note_on_c, 9, 69, 0
1, 14879, Note_on_c, 9, 70, 0
1, 14879, Note_on_c, 9, 42, 0
1, 14879, Note_on_c, 9, 35, 0
1, 14880, Note_on_c, 9, 38, 100
1, 14880, Note_on_c, 9, 54, 127
1, 14880, Note_on_c, 9, 70, 100
1, 14880, Note_on_c, 9, 42, 100
1, 15119, Note_on_c, 9, 38, 0
1, 15119, Note_on_c, 9, 54, 0
1, 15119, Note_on_c, 9, 70, 0
1, 15119, Note_on_c, 9, 42, 0
1, 15120, Note_on_c, 9, 54, 90
1, 15120, Note_on_c, 9, 69, 80
1, 15120, Note_on_c, 9, 70, 60
1, 15120, Note_on_c, 9, 42, 70
1, 15120, Note_on_c, 9, 35, 75
1, 15359, Note_on_c, 9, 54, 0
1, 15359, Note_on_c, 9, 69, 0
1, 15359, Note_on_c, 9, 70, 0
1, 15359, Note_on_c, 9, 42, 0
1, 15359, Note_on_c, 9, 35, 0
1, 15360, Note_on_c, 9, 54, 100
1, 15360, Note_on_c, 9, 70, 100
1, 15360, Note_on_c, 9, 42, 90
1, 15360, Note_on_c, 9, 35, 100
1, 15599, Note_on_c, 9, 54, 0
1, 15599, Note_on_c, 9, 70, 0
1, 15599, Note_on_c, 9, 42, 0
1, 15599, Note_on_c, 9, 35, 0
1, 15600, Note_on_c, 9, 54, 70
1, 15600, Note_on_c, 9, 69, 80
1, 15600, Note_on_c, 9, 70, 60
1, 15600, Note_on_c, 9, 42, 70
1, 15600, Note_on_c, 9, 35, 90
1, 15839, Note_on_c, 9, 54, 0
1, 15839, Note_on_c, 9, 69, 0
1, 15839, Note_on_c, 9, 70, 0
1, 15839, Note_on_c, 9, 42, 0
1, 15839, Note_on_c, 9, 35, 0
1, 15840, Note_on_c, 9, 38, 100
1, 15840, Note_on_c, 9, 54, 127
1, 15840, Note_on_c, 9, 70, 100
1, 15840, Note_on_c, 9, 42, 100
1, 16079, Note_on_c, 9, 38, 0
1, 16079, Note_on_c, 9, 54, 0
1, 16079, Note_on_c, 9, 70, 0
1, 16079, Note_on_c, 9, 42, 0
1, 16080, Note_on_c, 9, 54, 90
1, 16080, Note_on_c, 9, 46, 100
1, 16080, Note_on_c, 9, 69, 80
1, 16080, Note_on_c, 9, 70, 60
1, 16080, Note_on_c, 9, 35, 70
1, 16319, Note_on_c, 9, 54, 0
1, 16319, Note_on_c, 9, 46, 0
1, 16319, Note_on_c, 9, 69, 0
1, 16319, Note_on_c, 9, 70, 0
1, 16319, Note_on_c, 9, 35, 0
1, 16320, Note_on_c, 9, 54, 100
1, 16320, Note_on_c, 9, 70, 100
1, 16320, Note_on_c, 9, 42, 90
1, 16320, Note_on_c, 9, 35, 100
1, 16559, Note_on_c, 9, 54, 0
1, 16559, Note_on_c, 9, 70, 0
1, 16559, Note_on_c, 9, 42, 0
1, 16559, Note_on_c, 9, 35, 0
1, 16560, Note_on_c, 9, 54, 70
1, 16560, Note_on_c, 9, 69, 80
1, 16560, Note_on_c, 9, 70, 60
1, 16560, Note_on_c, 9, 42, 70
1, 16560, Note_on_c, 9, 35, 90
1, 16799, Note_on_c, 9, 54, 0
1, 16799, Note_on_c, 9, 69, 0
1, 16799, Note_on_c, 9, 70, 0
1, 16799, Note_on_c, 9, 42, 0
1, 16799, Note_on_c, 9, 35, 0
1, 16800, Note_on_c, 9, 38, 100
1, 16800, Note_on_c, 9, 54, 127
1, 16800, Note_on_c, 9, 70, 100
1, 16800, Note_on_c, 9, 42, 100
1, 17039, Note_on_c, 9, 38, 0
1, 17039, Note_on_c, 9, 54, 0
1, 17039, Note_on_c, 9, 70, 0
1, 17039, Note_on_c, 9, 42, 0
1, 17040, Note_on_c, 9, 54, 90
1, 17040, Note_on_c, 9, 69, 80
1, 17040, Note_on_c, 9, 70, 60
1, 17040, Note_on_c, 9, 42, 70
1, 17040, Note_on_c, 9, 35, 75
1, 17279, Note_on_c, 9, 54, 0
1, 17279, Note_on_c, 9, 69, 0
1, 17279, Note_on_c, 9, 70, 0
1, 17279, Note_on_c, 9, 42, 0
1, 17279, Note_on_c, 9, 35, 0
1, 17280, Note_on_c, 9, 54, 100
1, 17280, Note_on_c, 9, 70, 100
1, 17280, Note_on_c, 9, 42, 90
1, 17280, Note_on_c, 9, 35, 100
1, 17519, Note_on_c, 9, 54, 0
1, 17519, Note_on_c, 9, 70, 0
1, 17519, Note_on_c, 9, 42, 0
1, 17519, Note_on_c, 9, 35, 0
1, 17520, Note_on_c, 9, 54, 70
1, 17520, Note_on_c, 9, 69, 80
1, 17520, Note_on_c, 9, 70, 60
1, 17520, Note_on_c, 9, 42, 70
1, 17520, Note_on_c, 9, 35, 90
1, 17759, Note_on_c, 9, 54, 0
1, 17759, Note_on_c, 9, 69, 0
1, 17759, Note_on_c, 9, 70, 0
1, 17759, Note_on_c, 9, 42, 0
1, 17759, Note_on_c, 9, 35, 0
1, 17760, Note_on_c, 9, 38, 100
1, 17760, Note_on_c, 9, 54, 127
1, 17760, Note_on_c, 9, 70, 100
1, 17760, Note_on_c, 9, 42, 100
1, 17999, Note_on_c, 9, 38, 0
1, 17999, Note_on_c, 9, 54, 0
1, 17999, Note_on_c, 9, 70, 0
1, 17999, Note_on_c, 9, 42, 0
1, 18000, Note_on_c, 9, 54, 90
1, 18000, Note_on_c, 9, 69, 80
1, 18000, Note_on_c, 9, 70, 60
1, 18000, Note_on_c, 9, 42, 70
1, 18000, Note_on_c, 9, 35, 70
1, 18239, Note_on_c, 9, 54, 0
1, 18239, Note_on_c, 9, 69, 0
1, 18239, Note_on_c, 9, 70, 0
1, 18239, Note_on_c, 9, 42, 0
1, 18239, Note_on_c, 9, 35, 0
1, 18240, Note_on_c, 9, 54, 100
1, 18240, Note_on_c, 9, 70, 100
1, 18240, Note_on_c, 9, 42, 90
1, 18240, Note_on_c, 9, 35, 100
1, 18479, Note_on_c, 9, 54, 0
1, 18479, Note_on_c, 9, 70, 0
1, 18479, Note_on_c, 9, 42, 0
1, 18479, Note_on_c, 9, 35, 0
1, 18480, Note_on_c, 9, 54, 70
1, 18480, Note_on_c, 9, 69, 80
1, 18480, Note_on_c, 9, 70, 60
1, 18480, Note_on_c, 9, 42, 70
1, 18480, Note_on_c, 9, 35, 90
1, 18719, Note_on_c, 9, 54, 0
1, 18719, Note_on_c, 9, 69, 0
1, 18719, Note_on_c, 9, 70, 0
1, 18719, Note_on_c, 9, 42, 0
1, 18719, Note_on_c, 9, 35, 0
1, 18720, Note_on_c, 9, 38, 100
1, 18720, Note_on_c, 9, 54, 127
1, 18720, Note_on_c, 9, 70, 100
1, 18720, Note_on_c, 9, 42, 100
1, 18959, Note_on_c, 9, 38, 0
1, 18959, Note_on_c, 9, 54, 0
1, 18959, Note_on_c, 9, 70, 0
1, 18959, Note_on_c, 9, 42, 0
1, 18960, Note_on_c, 9, 54, 90
1, 18960, Note_on_c, 9, 69, 80
1, 18960, Note_on_c, 9, 70, 60
1, 18960, Note_on_c, 9, 42, 70
1, 18960, Note_on_c, 9, 35, 75
1, 19199, Note_on_c, 9, 54, 0
1, 19199, Note_on_c, 9, 69, 0
1, 19199, Note_on_c, 9, 70, 0
1, 19199, Note_on_c, 9, 42, 0
1, 19199, Note_on_c, 9, 35, 0
1, 19200, Note_on_c, 9, 54, 100
1, 19200, Note_on_c, 9, 70, 100
1, 19200, Note_on_c, 9, 42, 90
1, 19200, Note_on_c, 9, 35, 100
1, 19439, Note_on_c, 9, 54, 0
1, 19439, Note_on_c, 9, 70, 0
1, 19439, Note_on_c, 9, 42, 0
1, 19439, Note_on_c, 9, 35, 0
1, 19440, Note_on_c, 9, 54, 70
1, 19440, Note_on_c, 9, 69, 80
1, 19440, Note_on_c, 9, 70, 60
1, 19440, Note_on_c, 9, 42, 70
1, 19440, Note_on_c, 9, 35, 90
1, 19679, Note_on_c, 9, 54, 0
1, 19679, Note_on_c, 9, 69, 0
1, 19679, Note_on_c, 9, 70, 0
1, 19679, Note_on_c, 9, 42, 0
1, 19679, Note_on_c, 9, 35, 0
1, 19680, Note_on_c, 9, 38, 100
1, 19680, Note_on_c, 9, 54, 127
1, 19680, Note_on_c, 9, 70, 100
1, 19680, Note_on_c, 9, 42, 100
1, 19919, Note_on_c, 9, 38, 0
1, 19919, Note_on_c, 9, 54, 0
1, 19919, Note_on_c, 9, 70, 0
1, 19919, Note_on_c, 9, 42, 0
1, 19920, Note_on_c, 9, 54, 90
1, 19920, Note_on_c, 9, 69, 80
1, 19920, Note_on_c, 9, 70, 60
1, 19920, Note_on_c, 9, 42, 70
1, 19920, Note_on_c, 9, 35, 70
1, 20159, Note_on_c, 9, 54, 0
1, 20159, Note_on_c, 9, 69, 0
1, 20159, Note_on_c, 9, 70, 0
1, 20159, Note_on_c, 9, 42, 0
1, 20159, Note_on_c, 9, 35, 0
1, 20160, Note_on_c, 9, 54, 100
1, 20160, Note_on_c, 9, 70, 100
1, 20160, Note_on_c, 9, 42, 90
1, 20160, Note_on_c, 9, 35, 100
1, 20399, Note_on_c, 9, 54, 0
1, 20399, Note_on_c, 9, 70, 0
1, 20399, Note_on_c, 9, 42, 0
1, 20399, Note_on_c, 9, 35, 0
1, 20400, Note_on_c, 9, 54, 70
1, 20400, Note_on_c, 9, 69, 80
1, 20400, Note_on_c, 9, 70, 60
1, 20400, Note_on_c, 9, 42, 70
1, 20400, Note_on_c, 9, 35, 90
1, 20639, Note_on_c, 9, 54, 0
1, 20639, Note_on_c, 9, 69, 0
1, 20639, Note_on_c, 9, 70, 0
1, 20639, Note_on_c, 9, 42, 0
1, 20639, Note_on_c, 9, 35, 0
1, 20640, Note_on_c, 9, 38, 100
1, 20640, Note_on_c, 9, 54, 127
1, 20640, Note_on_c, 9, 70, 100
1, 20640, Note_on_c, 9, 42, 100
1, 20879, Note_on_c, 9, 38, 0
1, 20879, Note_on_c, 9, 54, 0
1, 20879, Note_on_c, 9, 70, 0
1, 20879, Note_on_c, 9, 42, 0
1, 20880, Note_on_c, 9, 54, 90
1, 20880, Note_on_c, 9, 69, 80
1, 20880, Note_on_c, 9, 70, 60
1, 20880, Note_on_c, 9, 42, 70
1, 20880, Note_on_c, 9, 35, 75
1, 21119, Note_on_c, 9, 54, 0
1, 21119, Note_on_c, 9, 69, 0
1, 21119, Note_on_c, 9, 70, 0
1, 21119, Note_on_c, 9, 42, 0
1, 21119, Note_on_c, 9, 35, 0
1, 21120, Note_on_c, 9, 54, 100
1, 21120, Note_on_c, 9, 70, 100
1, 21120, Note_on_c, 9, 42, 90
1, 21120, Note_on_c, 9, 35, 100
1, 21359, Note_on_c, 9, 54, 0
1, 21359, Note_on_c, 9, 70, 0
1, 21359, Note_on_c, 9, 42, 0
1, 21359, Note_on_c, 9, 35, 0
1, 21360, Note_on_c, 9, 54, 70
1, 21360, Note_on_c, 9, 69, 80
1, 21360, Note_on_c, 9, 70, 60
1, 21360, Note_on_c, 9, 42, 70
1, 21360, Note_on_c, 9, 35, 90
1, 21599, Note_on_c, 9, 54, 0
1, 21599, Note_on_c, 9, 69, 0
1, 21599, Note_on_c, 9, 70, 0
1, 21599, Note_on_c, 9, 42, 0
1, 21599, Note_on_c, 9, 35, 0
1, 21600, Note_on_c, 9, 38, 100
1, 21600, Note_on_c, 9, 54, 127
1, 21600, Note_on_c, 9, 70, 100
1, 21600, Note_on_c, 9, 42, 100
1, 21839, Note_on_c, 9, 38, 0
1, 21839, Note_on_c, 9, 54, 0
1, 21839, Note_on_c, 9, 70, 0
1, 21839, Note_on_c, 9, 42, 0
1, 21840, Note_on_c, 9, 54, 90
1, 21840, Note_on_c, 9, 69, 80
1, 21840, Note_on_c, 9, 70, 60
1, 21840, Note_on_c, 9, 42, 70
1, 21840, Note_on_c, 9, 35, 70
1, 22079, Note_on_c, 9, 54, 0
1, 22079, Note_on_c, 9, 69, 0
1, 22079, Note_on_c, 9, 70, 0
1, 22079, Note_on_c, 9, 42, 0
1, 22079, Note_on_c, 9, 35, 0
1, 22080, Note_on_c, 9, 54, 100
1, 22080, Note_on_c, 9, 70, 100
1, 22080, Note_on_c, 9, 42, 90
1, 22080, Note_on_c, 9, 35, 100
1, 22319, Note_on_c, 9, 54, 0
1, 22319, Note_on_c, 9, 70, 0
1, 22319, Note_on_c, 9, 42, 0
1, 22319, Note_on_c, 9, 35, 0
1, 22320, Note_on_c, 9, 54, 70
1, 22320, Note_on_c, 9, 69, 80
1, 22320, Note_on_c, 9, 70, 60
1, 22320, Note_on_c, 9, 42, 70
1, 22320, Note_on_c, 9, 35, 90
1, 22559, Note_on_c, 9, 54, 0
1, 22559, Note_on_c, 9, 69, 0
1, 22559, Note_on_c, 9, 70, 0
1, 22559, Note_on_c, 9, 42, 0
1, 22559, Note_on_c, 9, 35, 0
1, 22560, Note_on_c, 9, 38, 100
1, 22560, Note_on_c, 9, 54, 127
1, 22560, Note_on_c, 9, 70, 100
1, 22560, Note_on_c, 9, 42, 100
1, 22799, Note_on_c, 9, 38, 0
1, 22799, Note_on_c, 9, 54, 0
1, 22799, Note_on_c, 9, 70, 0
1, 22799, Note_on_c, 9, 42, 0
1, 22800, Note_on_c, 9, 54, 90
1, 22800, Note_on_c, 9, 69, 80
1, 22800, Note_on_c, 9, 70, 60
1, 22800, Note_on_c, 9, 42, 70
1, 22800, Note_on_c, 9, 35, 75
1, 23039, Note_on_c, 9, 54, 0
1, 23039, Note_on_c, 9, 69, 0
1, 23039, Note_on_c, 9, 70, 0
1, 23039, Note_on_c, 9, 42, 0
1, 23039, Note_on_c, 9, 35, 0
1, 23040, Note_on_c, 9, 38, 100
1, 23040, Note_on_c, 9, 42, 90
1, 23159, Note_on_c, 9, 38, 0
1, 23159, Note_on_c, 9, 42, 0
1, 23160, Note_on_c, 9, 38, 80
1, 23399, Note_on_c, 9, 38, 0
1, 23400, Note_on_c, 9, 38, 80
1, 23519, Note_on_c, 9, 38, 0
1, 23520, Note_on_c, 9, 38, 100
1, 23520, Note_on_c, 9, 42, 90
1, 23759, Note_on_c, 9, 38, 0
1, 23759, Note_on_c, 9, 42, 0
1, 23760, Note_on_c, 9, 38, 100
1, 23879, Note_on_c, 9, 38, 0
1, 23880, Note_on_c, 9, 38, 100
1, 23999, Note_on_c, 9, 38, 0
1, 24000, Note_on_c, 9, 42, 90
1, 24120, Note_on_c, 9, 35, 90
1, 24239, Note_on_c, 9, 42, 0
1, 24240, Note_on_c, 9, 38, 115
1, 24359, Note_on_c, 9, 38, 0
1, 24360, Note_on_c, 9, 38, 100
1, 24479, Note_on_c, 9, 35, 0
1, 24479, Note_on_c, 9, 38, 0
1, 24480, Note_on_c, 9, 38, 115
1, 24480, Note_on_c, 9, 42, 90
1, 24599, Note_on_c, 9, 38, 0
1, 24599, Note_on_c, 9, 42, 0
1, 24600, Note_on_c, 9, 45, 100
1, 24719, Note_on_c, 9, 45, 0
1, 24720, Note_on_c, 9, 41, 100
1, 24959, Note_on_c, 9, 41, 0
1, 24960, Note_on_c, 9, 42, 90
1, 24960, Note_on_c, 9, 49, 90
1, 24960, Note_on_c, 9, 35, 90
1, 25199, Note_on_c, 9, 42, 0
1, 25199, Note_on_c, 9, 49, 0
1, 25200, Note_on_c, 9, 42, 70
1, 25439, Note_on_c, 9, 35, 0
1, 25439, Note_on_c, 9, 42, 0
1, 25440, Note_on_c, 9, 38, 100
1, 25440, Note_on_c, 9, 42, 100
1, 25679, Note_on_c, 9, 38, 0
1, 25679, Note_on_c, 9, 42, 0
1, 25680, Note_on_c, 9, 42, 70
1, 25680, Note_on_c, 9, 35, 80
1, 25919, Note_on_c, 9, 42, 0
1, 25919, Note_on_c, 9, 35, 0
1, 25920, Note_on_c, 9, 42, 90
1, 25920, Note_on_c, 9, 35, 100
1, 26159, Note_on_c, 9, 42, 0
1, 26160, Note_on_c, 9, 42, 70
1, 26399, Note_on_c, 9, 35, 0
1, 26399, Note_on_c, 9, 42, 0
1, 26400, Note_on_c, 9, 38, 100
1, 26400, Note_on_c, 9, 42, 100
1, 26639, Note_on_c, 9, 38, 0
1, 26639, Note_on_c, 9, 42, 0
1, 26640, Note_on_c, 9, 42, 70
1, 26640, Note_on_c, 9, 35, 70
1, 26879, Note_on_c, 9, 42, 0
1, 26879, Note_on_c, 9, 35, 0
1, 26880, Note_on_c, 9, 42, 90
1, 26880, Note_on_c, 9, 35, 90
1, 27119, Note_on_c, 9, 42, 0
1, 27120, Note_on_c, 9, 42, 70
1, 27359, Note_on_c, 9, 35, 0
1, 27359, Note_on_c, 9, 42, 0
1, 27360, Note_on_c, 9, 38, 100
1, 27360, Note_on_c, 9, 42, 100
1, 27599, Note_on_c, 9, 38, 0
1, 27599, Note_on_c, 9, 42, 0
1, 27600, Note_on_c, 9, 42, 100
1, 27600, Note_on_c, 9, 35, 80
1, 27839, Note_on_c, 9, 42, 0
1, 27839, Note_on_c, 9, 35, 0
1, 27840, Note_on_c, 9, 42, 90
1, 27840, Note_on_c, 9, 35, 100
1, 28079, Note_on_c, 9, 42, 0
1, 28079, Note_on_c, 9, 35, 0
1, 28080, Note_on_c, 9, 42, 70
1, 28080, Note_on_c, 9, 35, 90
1, 28319, Note_on_c, 9, 42, 0
1, 28319, Note_on_c, 9, 35, 0
1, 28320, Note_on_c, 9, 38, 100
1, 28320, Note_on_c, 9, 42, 100
1, 28559, Note_on_c, 9, 38, 0
1, 28559, Note_on_c, 9, 42, 0
1, 28560, Note_on_c, 9, 42, 70
1, 28560, Note_on_c, 9, 35, 70
1, 28799, Note_on_c, 9, 42, 0
1, 28799, Note_on_c, 9, 35, 0
1, 28800, Note_on_c, 9, 42, 90
1, 28800, Note_on_c, 9, 35, 90
1, 29039, Note_on_c, 9, 42, 0
1, 29040, Note_on_c, 9, 42, 70
1, 29279, Note_on_c, 9, 35, 0
1, 29279, Note_on_c, 9, 42, 0
1, 29280, Note_on_c, 9, 38, 100
1, 29280, Note_on_c, 9, 42, 100
1, 29519, Note_on_c, 9, 38, 0
1, 29519, Note_on_c, 9, 42, 0
1, 29520, Note_on_c, 9, 42, 70
1, 29520, Note_on_c, 9, 35, 80
1, 29759, Note_on_c, 9, 42, 0
1, 29759, Note_on_c, 9, 35, 0
1, 29760, Note_on_c, 9, 42, 90
1, 29760, Note_on_c, 9, 35, 100
1, 29999, Note_on_c, 9, 42, 0
1, 30000, Note_on_c, 9, 42, 70
1, 30239, Note_on_c, 9, 35, 0
1, 30239, Note_on_c, 9, 42, 0
1, 30240, Note_on_c, 9, 38, 100
1, 30240, Note_on_c, 9, 42, 100
1, 30479, Note_on_c, 9, 38, 0
1, 30479, Note_on_c, 9, 42, 0
1, 30480, Note_on_c, 9, 42, 70
1, 30480, Note_on_c, 9, 35, 70
1, 30719, Note_on_c, 9, 42, 0
1, 30719, Note_on_c, 9, 35, 0
1, 30720, Note_on_c, 9, 42, 90
1, 30720, Note_on_c, 9, 35, 90
1, 30959, Note_on_c, 9, 42, 0
1, 30960, Note_on_c, 9, 42, 70
1, 31199, Note_on_c, 9, 35, 0
1, 31199, Note_on_c, 9, 42, 0
1, 31200, Note_on_c, 9, 38, 100
1, 31200, Note_on_c, 9, 42, 100
1, 31439, Note_on_c, 9, 38, 0
1, 31439, Note_on_c, 9, 42, 0
1, 31440, Note_on_c, 9, 42, 100
1, 31440, Note_on_c, 9, 35, 80
1, 31679, Note_on_c, 9, 42, 0
1, 31679, Note_on_c, 9, 35, 0
1, 31680, Note_on_c, 9, 42, 90
1, 31680, Note_on_c, 9, 35, 100
1, 31919, Note_on_c, 9, 42, 0
1, 31919, Note_on_c, 9, 35, 0
1, 31920, Note_on_c, 9, 42, 70
1, 31920, Note_on_c, 9, 35, 90
1, 32159, Note_on_c, 9, 42, 0
1, 32159, Note_on_c, 9, 35, 0
1, 32160, Note_on_c, 9, 38, 100
1, 32160, Note_on_c, 9, 42, 100
1, 32399, Note_on_c, 9, 38, 0
1, 32399, Note_on_c, 9, 42, 0
1, 32400, Note_on_c, 9, 42, 70
1, 32400, Note_on_c, 9, 35, 70
1, 32639, Note_on_c, 9, 42, 0
1, 32639, Note_on_c, 9, 35, 0
1, 33840, Note_on_c, 9, 41, 90
1, 33840, Note_on_c, 9, 38, 100
1, 33840, Note_on_c, 9, 54, 70
1, 33840, Note_on_c, 9, 69, 80
1, 33840, Note_on_c, 9, 42, 70
1, 33840, Note_on_c, 9, 35, 90
1, 34079, Note_on_c, 9, 41, 0
1, 34079, Note_on_c, 9, 38, 0
1, 34079, Note_on_c, 9, 54, 0
1, 34079, Note_on_c, 9, 69, 0
1, 34079, Note_on_c, 9, 42, 0
1, 34079, Note_on_c, 9, 35, 0
1, 34080, Note_on_c, 9, 41, 100
1, 34080, Note_on_c, 9, 38, 115
1, 34080, Note_on_c, 9, 54, 127
1, 34080, Note_on_c, 9, 70, 100
1, 34080, Note_on_c, 9, 42, 100
1, 34319, Note_on_c, 9, 41, 0
1, 34319, Note_on_c, 9, 38, 0
1, 34319, Note_on_c, 9, 54, 0
1, 34319, Note_on_c, 9, 70, 0
1, 34319, Note_on_c, 9, 42, 0
1, 34320, Note_on_c, 9, 41, 115
1, 34320, Note_on_c, 9, 38, 127
1, 34320, Note_on_c, 9, 54, 90
1, 34320, Note_on_c, 9, 69, 80
1, 34320, Note_on_c, 9, 42, 70
1, 34320, Note_on_c, 9, 35, 75
1, 34559, Note_on_c, 9, 41, 0
1, 34559, Note_on_c, 9, 38, 0
1, 34559, Note_on_c, 9, 54, 0
1, 34559, Note_on_c, 9, 69, 0
1, 34559, Note_on_c, 9, 42, 0
1, 34559, Note_on_c, 9, 35, 0
1, 34560, Note_on_c, 9, 54, 100
1, 34560, Note_on_c, 9, 70, 100
1, 34560, Note_on_c, 9, 42, 90
1, 34560, Note_on_c, 9, 49, 90
1, 34560, Note_on_c, 9, 35, 100
1, 34799, Note_on_c, 9, 54, 0
1, 34799, Note_on_c, 9, 70, 0
1, 34799, Note_on_c, 9, 42, 0
1, 34799, Note_on_c, 9, 49, 0
1, 34799, Note_on_c, 9, 35, 0
1, 34800, Note_on_c, 9, 54, 70
1, 34800, Note_on_c, 9, 69, 80
1, 34800, Note_on_c, 9, 70, 60
1, 34800, Note_on_c, 9, 42, 70
1, 34800, Note_on_c, 9, 35, 90
1, 35039, Note_on_c, 9, 54, 0
1, 35039, Note_on_c, 9, 69, 0
1, 35039, Note_on_c, 9, 70, 0
1, 35039, Note_on_c, 9, 42, 0
1, 35039, Note_on_c, 9, 35, 0
1, 35040, Note_on_c, 9, 38, 100
1, 35040, Note_on_c, 9, 54, 127
1, 35040, Note_on_c, 9, 70, 100
1, 35040, Note_on_c, 9, 42, 100
1, 35279, Note_on_c, 9, 38, 0
1, 35279, Note_on_c, 9, 54, 0
1, 35279, Note_on_c, 9, 70, 0
1, 35279, Note_on_c, 9, 42, 0
1, 35280, Note_on_c, 9, 54, 90
1, 35280, Note_on_c, 9, 69, 80
1, 35280, Note_on_c, 9, 70, 60
1, 35280, Note_on_c, 9, 42, 70
1, 35280, Note_on_c, 9, 35, 70
1, 35519, Note_on_c, 9, 54, 0
1, 35519, Note_on_c, 9, 69, 0
1, 35519, Note_on_c, 9, 70, 0
1, 35519, Note_on_c, 9, 42, 0
1, 35519, Note_on_c, 9, 35, 0
1, 35520, Note_on_c, 9, 54, 100
1, 35520, Note_on_c, 9, 70, 100
1, 35520, Note_on_c, 9, 42, 90
1, 35520, Note_on_c, 9, 35, 100
1, 35759, Note_on_c, 9, 54, 0
1, 35759, Note_on_c, 9, 70, 0
1, 35759, Note_on_c, 9, 42, 0
1, 35759, Note_on_c, 9, 35, 0
1, 35760, Note_on_c, 9, 54, 70
1, 35760, Note_on_c, 9, 69, 80
1, 35760, Note_on_c, 9, 70, 60
1, 35760, Note_on_c, 9, 42, 70
1, 35760, Note_on_c, 9, 35, 90
1, 35999, Note_on_c, 9, 54, 0
1, 35999, Note_on_c, 9, 69, 0
1, 35999, Note_on_c, 9, 70, 0
1, 35999, Note_on_c, 9, 42, 0
1, 35999, Note_on_c, 9, 35, 0
1, 36000, Note_on_c, 9, 38, 100
1, 36000, Note_on_c, 9, 54, 127
1, 36000, Note_on_c, 9, 70, 100
1, 36000, Note_on_c, 9, 42, 100
1, 36239, Note_on_c, 9, 38, 0
1, 36239, Note_on_c, 9, 54, 0
1, 36239, Note_on_c, 9, 70, 0
1, 36239, Note_on_c, 9, 42, 0
1, 36240, Note_on_c, 9, 54, 90
1, 36240, Note_on_c, 9, 69, 80
1, 36240, Note_on_c, 9, 70, 60
1, 36240, Note_on_c, 9, 42, 70
1, 36240, Note_on_c, 9, 35, 75
1, 36479, Note_on_c, 9, 54, 0
1, 36479, Note_on_c, 9, 69, 0
1, 36479, Note_on_c, 9, 70, 0
1, 36479, Note_on_c, 9, 42, 0
1, 36479, Note_on_c, 9, 35, 0
1, 36480, Note_on_c, 9, 54, 100
1, 36480, Note_on_c, 9, 70, 100
1, 36480, Note_on_c, 9, 42, 90
1, 36480, Note_on_c, 9, 35, 100
1, 36719, Note_on_c, 9, 54, 0
1, 36719, Note_on_c, 9, 70, 0
1, 36719, Note_on_c, 9, 42, 0
1, 36719, Note_on_c, 9, 35, 0
1, 36720, Note_on_c, 9, 54, 70
1, 36720, Note_on_c, 9, 69, 80
1, 36720, Note_on_c, 9, 70, 60
1, 36720, Note_on_c, 9, 42, 70
1, 36720, Note_on_c, 9, 35, 90
1, 36959, Note_on_c, 9, 54, 0
1, 36959, Note_on_c, 9, 69, 0
1, 36959, Note_on_c, 9, 70, 0
1, 36959, Note_on_c, 9, 42, 0
1, 36959, Note_on_c, 9, 35, 0
1, 36960, Note_on_c, 9, 38, 100
1, 36960, Note_on_c, 9, 54, 127
1, 36960, Note_on_c, 9, 70, 100
1, 36960, Note_on_c, 9, 42, 100
1, 37199, Note_on_c, 9, 38, 0
1, 37199, Note_on_c, 9, 54, 0
1, 37199, Note_on_c, 9, 70, 0
1, 37199, Note_on_c, 9, 42, 0
1, 37200, Note_on_c, 9, 54, 90
1, 37200, Note_on_c, 9, 46, 100
1, 37200, Note_on_c, 9, 69, 80
1, 37200, Note_on_c, 9, 70, 60
1, 37200, Note_on_c, 9, 35, 70
1, 37439, Note_on_c, 9, 54, 0
1, 37439, Note_on_c, 9, 46, 0
1, 37439, Note_on_c, 9, 69, 0
1, 37439, Note_on_c, 9, 70, 0
1, 37439, Note_on_c, 9, 35, 0
1, 37440, Note_on_c, 9, 54, 100
1, 37440, Note_on_c, 9, 70, 100
1, 37440, Note_on_c, 9, 42, 90
1, 37440, Note_on_c, 9, 35, 100
1, 37679, Note_on_c, 9, 54, 0
1, 37679, Note_on_c, 9, 70, 0
1, 37679, Note_on_c, 9, 42, 0
1, 37679, Note_on_c, 9, 35, 0
1, 37680, Note_on_c, 9, 54, 70
1, 37680, Note_on_c, 9, 69, 80
1, 37680, Note_on_c, 9, 70, 60
1, 37680, Note_on_c, 9, 42, 70
1, 37680, Note_on_c, 9, 35, 90
1, 37919, Note_on_c, 9, 54, 0
1, 37919, Note_on_c, 9, 69, 0
1, 37919, Note_on_c, 9, 70, 0
1, 37919, Note_on_c, 9, 42, 0
1, 37919, Note_on_c, 9, 35, 0
1, 37920, Note_on_c, 9, 38, 100
1, 37920, Note_on_c, 9, 54, 127
1, 37920, Note_on_c, 9, 70, 100
1, 37920, Note_on_c, 9, 42, 100
1, 38159, Note_on_c, 9, 38, 0
1, 38159, Note_on_c, 9, 54, 0
1, 38159, Note_on_c, 9, 70, 0
1, 38159, Note_on_c, 9, 42, 0
1, 38160, Note_on_c, 9, 54, 90
1, 38160, Note_on_c, 9, 69, 80
1, 38160, Note_on_c, 9, 70, 60
1, 38160, Note_on_c, 9, 42, 70
1, 38160, Note_on_c, 9, 35, 75
1, 38399, Note_on_c, 9, 54, 0
1, 38399, Note_on_c, 9, 69, 0
1, 38399, Note_on_c, 9, 70, 0
1, 38399, Note_on_c, 9, 42, 0
1, 38399, Note_on_c, 9, 35, 0
1, 38400, Note_on_c, 9, 54, 100
1, 38400, Note_on_c, 9, 70, 100
1, 38400, Note_on_c, 9, 42, 90
1, 38400, Note_on_c, 9, 35, 100
1, 38639, Note_on_c, 9, 54, 0
1, 38639, Note_on_c, 9, 70, 0
1, 38639, Note_on_c, 9, 42, 0
1, 38639, Note_on_c, 9, 35, 0
1, 38640, Note_on_c, 9, 54, 70
1, 38640, Note_on_c, 9, 69, 80
1, 38640, Note_on_c, 9, 70, 60
1, 38640, Note_on_c, 9, 42, 70
1, 38640, Note_on_c, 9, 35, 90
1, 38879, Note_on_c, 9, 54, 0
1, 38879, Note_on_c, 9, 69, 0
1, 38879, Note_on_c, 9, 70, 0
1, 38879, Note_on_c, 9, 42, 0
1, 38879, Note_on_c, 9, 35, 0
1, 38880, Note_on_c, 9, 38, 100
1, 38880, Note_on_c, 9, 54, 127
1, 38880, Note_on_c, 9, 70, 100
1, 38880, Note_on_c, 9, 42, 100
1, 39119, Note_on_c, 9, 38, 0
1, 39119, Note_on_c, 9, 54, 0
1, 39119, Note_on_c, 9, 70, 0
1, 39119, Note_on_c, 9, 42, 0
1, 39120, Note_on_c, 9, 54, 90
1, 39120, Note_on_c, 9, 46, 100
1, 39120, Note_on_c, 9, 69, 80
1, 39120, Note_on_c, 9, 70, 60
1, 39120, Note_on_c, 9, 35, 70
1, 39359, Note_on_c, 9, 54, 0
1, 39359, Note_on_c, 9, 46, 0
1, 39359, Note_on_c, 9, 69, 0
1, 39359, Note_on_c, 9, 70, 0
1, 39359, Note_on_c, 9, 35, 0
1, 39360, Note_on_c, 9, 54, 100
1, 39360, Note_on_c, 9, 70, 100
1, 39360, Note_on_c, 9, 42, 90
1, 39360, Note_on_c, 9, 35, 100
1, 39599, Note_on_c, 9, 54, 0
1, 39599, Note_on_c, 9, 70, 0
1, 39599, Note_on_c, 9, 42, 0
1, 39599, Note_on_c, 9, 35, 0
1, 39600, Note_on_c, 9, 54, 70
1, 39600, Note_on_c, 9, 69, 80
1, 39600, Note_on_c, 9, 70, 60
1, 39600, Note_on_c, 9, 42, 70
1, 39600, Note_on_c, 9, 35, 90
1, 39839, Note_on_c, 9, 54, 0
1, 39839, Note_on_c, 9, 69, 0
1, 39839, Note_on_c, 9, 70, 0
1, 39839, Note_on_c, 9, 42, 0
1, 39839, Note_on_c, 9, 35, 0
1, 39840, Note_on_c, 9, 38, 100
1, 39840, Note_on_c, 9, 54, 127
1, 39840, Note_on_c, 9, 70, 100
1, 39840, Note_on_c, 9, 42, 100
1, 40079, Note_on_c, 9, 38, 0
1, 40079, Note_on_c, 9, 54, 0
1, 40079, Note_on_c, 9, 70, 0
1, 40079, Note_on_c, 9, 42, 0
1, 40080, Note_on_c, 9, 54, 90
1, 40080, Note_on_c, 9, 69, 80
1, 40080, Note_on_c, 9, 70, 60
1, 40080, Note_on_c, 9, 42, 70
1, 40080, Note_on_c, 9, 35, 75
1, 40319, Note_on_c, 9, 54, 0
1, 40319, Note_on_c, 9, 69, 0
1, 40319, Note_on_c, 9, 70, 0
1, 40319, Note_on_c, 9, 42, 0
1, 40319, Note_on_c, 9, 35, 0
1, 40320, Note_on_c, 9, 54, 100
1, 40320, Note_on_c, 9, 70, 100
1, 40320, Note_on_c, 9, 42, 90
1, 40320, Note_on_c, 9, 35, 100
1, 40559, Note_on_c, 9, 54, 0
1, 40559, Note_on_c, 9, 70, 0
1, 40559, Note_on_c, 9, 42, 0
1, 40559, Note_on_c, 9, 35, 0
1, 40560, Note_on_c, 9, 54, 70
1, 40560, Note_on_c, 9, 69, 80
1, 40560, Note_on_c, 9, 70, 60
1, 40560, Note_on_c, 9, 42, 70
1, 40560, Note_on_c, 9, 35, 90
1, 40799, Note_on_c, 9, 54, 0
1, 40799, Note_on_c, 9, 69, 0
1, 40799, Note_on_c, 9, 70, 0
1, 40799, Note_on_c, 9, 42, 0
1, 40799, Note_on_c, 9, 35, 0
1, 40800, Note_on_c, 9, 38, 100
1, 40800, Note_on_c, 9, 54, 127
1, 40800, Note_on_c, 9, 70, 100
1, 40800, Note_on_c, 9, 42, 100
1, 41039, Note_on_c, 9, 38, 0
1, 41039, Note_on_c, 9, 54, 0
1, 41039, Note_on_c, 9, 70, 0
1, 41039, Note_on_c, 9, 42, 0
1, 41040, Note_on_c, 9, 54, 90
1, 41040, Note_on_c, 9, 46, 100
1, 41040, Note_on_c, 9, 69, 80
1, 41040, Note_on_c, 9, 70, 60
1, 41040, Note_on_c, 9, 35, 70
1, 41279, Note_on_c, 9, 54, 0
1, 41279, Note_on_c, 9, 46, 0
1, 41279, Note_on_c, 9, 69, 0
1, 41279, Note_on_c, 9, 70, 0
1, 41279, Note_on_c, 9, 35, 0
1, 41280, Note_on_c, 9, 54, 100
1, 41280, Note_on_c, 9, 70, 100
1, 41280, Note_on_c, 9, 42, 90
1, 41280, Note_on_c, 9, 35, 100
1, 41519, Note_on_c, 9, 54, 0
1, 41519, Note_on_c, 9, 70, 0
1, 41519, Note_on_c, 9, 42, 0
1, 41519, Note_on_c, 9, 35, 0
1, 41520, Note_on_c, 9, 54, 70
1, 41520, Note_on_c, 9, 69, 80
1, 41520, Note_on_c, 9, 70, 60
1, 41520, Note_on_c, 9, 42, 70
1, 41520, Note_on_c, 9, 35, 90
1, 41759, Note_on_c, 9, 54, 0
1, 41759, Note_on_c, 9, 69, 0
1, 41759, Note_on_c, 9, 70, 0
1, 41759, Note_on_c, 9, 42, 0
1, 41759, Note_on_c, 9, 35, 0
1, 41760, Note_on_c, 9, 38, 100
1, 41760, Note_on_c, 9, 54, 127
1, 41760, Note_on_c, 9, 70, 100
1, 41760, Note_on_c, 9, 42, 100
1, 41999, Note_on_c, 9, 38, 0
1, 41999, Note_on_c, 9, 54, 0
1, 41999, Note_on_c, 9, 70, 0
1, 41999, Note_on_c, 9, 42, 0
1, 42000, Note_on_c, 9, 54, 90
1, 42000, Note_on_c, 9, 69, 80
1, 42000, Note_on_c, 9, 70, 60
1, 42000, Note_on_c, 9, 42, 70
1, 42000, Note_on_c, 9, 35, 75
1, 42239, Note_on_c, 9, 54, 0
1, 42239, Note_on_c, 9, 69, 0
1, 42239, Note_on_c, 9, 70, 0
1, 42239, Note_on_c, 9, 42, 0
1, 42239, Note_on_c, 9, 35, 0
1, 42240, Note_on_c, 9, 54, 100
1, 42240, Note_on_c, 9, 70, 100
1, 42240, Note_on_c, 9, 42, 90
1, 42240, Note_on_c, 9, 35, 100
1, 42479, Note_on_c, 9, 54, 0
1, 42479, Note_on_c, 9, 70, 0
1, 42479, Note_on_c, 9, 42, 0
1, 42479, Note_on_c, 9, 35, 0
1, 42480, Note_on_c, 9, 54, 70
1, 42480, Note_on_c, 9, 69, 80
1, 42480, Note_on_c, 9, 70, 60
1, 42480, Note_on_c, 9, 42, 70
1, 42480, Note_on_c, 9, 35, 90
1, 42719, Note_on_c, 9, 54, 0
1, 42719, Note_on_c, 9, 69, 0
1, 42719, Note_on_c, 9, 70, 0
1, 42719, Note_on_c, 9, 42, 0
1, 42719, Note_on_c, 9, 35, 0
1, 42720, Note_on_c, 9, 38, 100
1, 42720, Note_on_c, 9, 54, 127
1, 42720, Note_on_c, 9, 70, 100
1, 42720, Note_on_c, 9, 42, 100
1, 42959, Note_on_c, 9, 38, 0
1, 42959, Note_on_c, 9, 54, 0
1, 42959, Note_on_c, 9, 70, 0
1, 42959, Note_on_c, 9, 42, 0
1, 42960, Note_on_c, 9, 54, 90
1, 42960, Note_on_c, 9, 69, 80
1, 42960, Note_on_c, 9, 70, 60
1, 42960, Note_on_c, 9, 42, 70
1, 42960, Note_on_c, 9, 35, 70
1, 43199, Note_on_c, 9, 54, 0
1, 43199, Note_on_c, 9, 69, 0
1, 43199, Note_on_c, 9, 70, 0
1, 43199, Note_on_c, 9, 42, 0
1, 43199, Note_on_c, 9, 35, 0
1, 43200, Note_on_c, 9, 54, 100
1, 43200, Note_on_c, 9, 70, 100
1, 43200, Note_on_c, 9, 42, 90
1, 43200, Note_on_c, 9, 35, 100
1, 43439, Note_on_c, 9, 54, 0
1, 43439, Note_on_c, 9, 70, 0
1, 43439, Note_on_c, 9, 42, 0
1, 43439, Note_on_c, 9, 35, 0
1, 43440, Note_on_c, 9, 54, 70
1, 43440, Note_on_c, 9, 69, 80
1, 43440, Note_on_c, 9, 70, 60
1, 43440, Note_on_c, 9, 42, 70
1, 43440, Note_on_c, 9, 35, 90
1, 43679, Note_on_c, 9, 54, 0
1, 43679, Note_on_c, 9, 69, 0
1, 43679, Note_on_c, 9, 70, 0
1, 43679, Note_on_c, 9, 42, 0
1, 43679, Note_on_c, 9, 35, 0
1, 43680, Note_on_c, 9, 38, 100
1, 43680, Note_on_c, 9, 54, 127
1, 43680, Note_on_c, 9, 70, 100
1, 43680, Note_on_c, 9, 42, 100
1, 43919, Note_on_c, 9, 38, 0
1, 43919, Note_on_c, 9, 54, 0
1, 43919, Note_on_c, 9, 70, 0
1, 43919, Note_on_c, 9, 42, 0
1, 43920, Note_on_c, 9, 54, 90
1, 43920, Note_on_c, 9, 69, 80
1, 43920, Note_on_c, 9, 70, 60
1, 43920, Note_on_c, 9, 42, 70
1, 43920, Note_on_c, 9, 35, 75
1, 44039, Note_on_c, 9, 54, 0
1, 44039, Note_on_c, 9, 69, 0
1, 44039, Note_on_c, 9, 70, 0
1, 44039, Note_on_c, 9, 42, 0
1, 44040, Note_on_c, 9, 46, 100
1, 44159, Note_on_c, 9, 35, 0
1, 44159, Note_on_c, 9, 46, 0
1, 44160, Note_on_c, 9, 54, 100
1, 44160, Note_on_c, 9, 70, 100
1, 44160, Note_on_c, 9, 42, 90
1, 44160, Note_on_c, 9, 35, 100
1, 44399, Note_on_c, 9, 54, 0
1, 44399, Note_on_c, 9, 70, 0
1, 44399, Note_on_c, 9, 42, 0
1, 44399, Note_on_c, 9, 35, 0
1, 44400, Note_on_c, 9, 54, 70
1, 44400, Note_on_c, 9, 69, 80
1, 44400, Note_on_c, 9, 70, 60
1, 44400, Note_on_c, 9, 42, 70
1, 44400, Note_on_c, 9, 35, 90
1, 44639, Note_on_c, 9, 54, 0
1, 44639, Note_on_c, 9, 69, 0
1, 44639, Note_on_c, 9, 70, 0
1, 44639, Note_on_c, 9, 42, 0
1, 44639, Note_on_c, 9, 35, 0
1, 44640, Note_on_c, 9, 38, 100
1, 44640, Note_on_c, 9, 54, 127
1, 44640, Note_on_c, 9, 70, 100
1, 44640, Note_on_c, 9, 42, 100
1, 44879, Note_on_c, 9, 38, 0
1, 44879, Note_on_c, 9, 54, 0
1, 44879, Note_on_c, 9, 70, 0
1, 44879, Note_on_c, 9, 42, 0
1, 44880, Note_on_c, 9, 54, 90
1, 44880, Note_on_c, 9, 69, 80
1, 44880, Note_on_c, 9, 70, 60
1, 44880, Note_on_c, 9, 42, 70
1, 44880, Note_on_c, 9, 35, 70
1, 45119, Note_on_c, 9, 54, 0
1, 45119, Note_on_c, 9, 69, 0
1, 45119, Note_on_c, 9, 70, 0
1, 45119, Note_on_c, 9, 42, 0
1, 45119, Note_on_c, 9, 35, 0
1, 45120, Note_on_c, 9, 54, 100
1, 45120, Note_on_c, 9, 70, 100
1, 45120, Note_on_c, 9, 42, 90
1, 45120, Note_on_c, 9, 35, 100
1, 45359, Note_on_c, 9, 54, 0
1, 45359, Note_on_c, 9, 70, 0
1, 45359, Note_on_c, 9, 42, 0
1, 45359, Note_on_c, 9, 35, 0
1, 45360, Note_on_c, 9, 54, 70
1, 45360, Note_on_c, 9, 69, 80
1, 45360, Note_on_c, 9, 70, 60
1, 45360, Note_on_c, 9, 42, 70
1, 45360, Note_on_c, 9, 35, 90
1, 45599, Note_on_c, 9, 54, 0
1, 45599, Note_on_c, 9, 69, 0
1, 45599, Note_on_c, 9, 70, 0
1, 45599, Note_on_c, 9, 42, 0
1, 45599, Note_on_c, 9, 35, 0
1, 45600, Note_on_c, 9, 38, 100
1, 45600, Note_on_c, 9, 54, 127
1, 45600, Note_on_c, 9, 70, 100
1, 45600, Note_on_c, 9, 42, 100
1, 45839, Note_on_c, 9, 38, 0
1, 45839, Note_on_c, 9, 54, 0
1, 45839, Note_on_c, 9, 70, 0
1, 45839, Note_on_c, 9, 42, 0
1, 45840, Note_on_c, 9, 54, 90
1, 45840, Note_on_c, 9, 69, 80
1, 45840, Note_on_c, 9, 70, 60
1, 45840, Note_on_c, 9, 42, 70
1, 45840, Note_on_c, 9, 35, 75
1, 46079, Note_on_c, 9, 54, 0
1, 46079, Note_on_c, 9, 69, 0
1, 46079, Note_on_c, 9, 70, 0
1, 46079, Note_on_c, 9, 42, 0
1, 46079, Note_on_c, 9, 35, 0
1, 46080, Note_on_c, 9, 54, 100
1, 46080, Note_on_c, 9, 70, 100
1, 46080, Note_on_c, 9, 42, 90
1, 46080, Note_on_c, 9, 35, 100
1, 46319, Note_on_c, 9, 54, 0
1, 46319, Note_on_c, 9, 70, 0
1, 46319, Note_on_c, 9, 42, 0
1, 46319, Note_on_c, 9, 35, 0
1, 46320, Note_on_c, 9, 54, 70
1, 46320, Note_on_c, 9, 69, 80
1, 46320, Note_on_c, 9, 70, 60
1, 46320, Note_on_c, 9, 42, 70
1, 46320, Note_on_c, 9, 35, 90
1, 46559, Note_on_c, 9, 54, 0
1, 46559, Note_on_c, 9, 69, 0
1, 46559, Note_on_c, 9, 70, 0
1, 46559, Note_on_c, 9, 42, 0
1, 46559, Note_on_c, 9, 35, 0
1, 46560, Note_on_c, 9, 38, 100
1, 46560, Note_on_c, 9, 54, 127
1, 46560, Note_on_c, 9, 70, 100
1, 46560, Note_on_c, 9, 42, 100
1, 46799, Note_on_c, 9, 38, 0
1, 46799, Note_on_c, 9, 54, 0
1, 46799, Note_on_c, 9, 70, 0
1, 46799, Note_on_c, 9, 42, 0
1, 46800, Note_on_c, 9, 54, 90
1, 46800, Note_on_c, 9, 69, 80
1, 46800, Note_on_c, 9, 70, 60
1, 46800, Note_on_c, 9, 42, 70
1, 46800, Note_on_c, 9, 35, 70
1, 47039, Note_on_c, 9, 54, 0
1, 47039, Note_on_c, 9, 69, 0
1, 47039, Note_on_c, 9, 70, 0
1, 47039, Note_on_c, 9, 42, 0
1, 47039, Note_on_c, 9, 35, 0
1, 47040, Note_on_c, 9, 54, 100
1, 47040, Note_on_c, 9, 70, 100
1, 47040, Note_on_c, 9, 42, 90
1, 47040, Note_on_c, 9, 35, 100
1, 47279, Note_on_c, 9, 54, 0
1, 47279, Note_on_c, 9, 70, 0
1, 47279, Note_on_c, 9, 42, 0
1, 47279, Note_on_c, 9, 35, 0
1, 47280, Note_on_c, 9, 54, 70
1, 47280, Note_on_c, 9, 69, 80
1, 47280, Note_on_c, 9, 70, 60
1, 47280, Note_on_c, 9, 42, 70
1, 47280, Note_on_c, 9, 35, 90
1, 47519, Note_on_c, 9, 54, 0
1, 47519, Note_on_c, 9, 69, 0
1, 47519, Note_on_c, 9, 70, 0
1, 47519, Note_on_c, 9, 42, 0
1, 47519, Note_on_c, 9, 35, 0
1, 47520, Note_on_c, 9, 38, 100
1, 47520, Note_on_c, 9, 54, 127
1, 47520, Note_on_c, 9, 70, 100
1, 47520, Note_on_c, 9, 42, 100
1, 47759, Note_on_c, 9, 38, 0
1, 47759, Note_on_c, 9, 54, 0
1, 47759, Note_on_c, 9, 70, 0
1, 47759, Note_on_c, 9, 42, 0
1, 47760, Note_on_c, 9, 54, 90
1, 47760, Note_on_c, 9, 69, 80
1, 47760, Note_on_c, 9, 70, 60
1, 47760, Note_on_c, 9, 42, 70
1, 47760, Note_on_c, 9, 35, 75
1, 47999, Note_on_c, 9, 54, 0
1, 47999, Note_on_c, 9, 69, 0
1, 47999, Note_on_c, 9, 70, 0
1, 47999, Note_on_c, 9, 42, 0
1, 47999, Note_on_c, 9, 35, 0
1, 48000, Note_on_c, 9, 38, 100
1, 48240, Note_on_c, 9, 35, 100
1, 48479, Note_on_c, 9, 38, 0
1, 48479, Note_on_c, 9, 35, 0
1, 48480, Note_on_c, 9, 48, 90
1, 48719, Note_on_c, 9, 48, 0
1, 48720, Note_on_c, 9, 38, 115
1, 48959, Note_on_c, 9, 38, 0
1, 48960, Note_on_c, 9, 45, 100
1, 49199, Note_on_c, 9, 45, 0
1, 49200, Note_on_c, 9, 45, 100
1, 49439, Note_on_c, 9, 45, 0
1, 49440, Note_on_c, 9, 38, 115
1, 49679, Note_on_c, 9, 38, 0
1, 49680, Note_on_c, 9, 38, 100
1, 49919, Note_on_c, 9, 38, 0
1, 49920, Note_on_c, 9, 42, 90
1, 49920, Note_on_c, 9, 49, 90
1, 49920, Note_on_c, 9, 35, 90
1, 50159, Note_on_c, 9, 42, 0
1, 50159, Note_on_c, 9, 49, 0
1, 50160, Note_on_c, 9, 42, 70
1, 50399, Note_on_c, 9, 35, 0
1, 50399, Note_on_c, 9, 42, 0
1, 50400, Note_on_c, 9, 38, 100
1, 50400, Note_on_c, 9, 42, 100
1, 50639, Note_on_c, 9, 38, 0
1, 50639, Note_on_c, 9, 42, 0
1, 50640, Note_on_c, 9, 42, 70
1, 50640, Note_on_c, 9, 35, 80
1, 50879, Note_on_c, 9, 42, 0
1, 50879, Note_on_c, 9, 35, 0
1, 50880, Note_on_c, 9, 42, 90
1, 50880, Note_on_c, 9, 35, 100
1, 51119, Note_on_c, 9, 42, 0
1, 51120, Note_on_c, 9, 42, 70
1, 51359, Note_on_c, 9, 35, 0
1, 51359, Note_on_c, 9, 42, 0
1, 51360, Note_on_c, 9, 38, 100
1, 51360, Note_on_c, 9, 42, 100
1, 51599, Note_on_c, 9, 38, 0
1, 51599, Note_on_c, 9, 42, 0
1, 51600, Note_on_c, 9, 42, 70
1, 51600, Note_on_c, 9, 35, 70
1, 51839, Note_on_c, 9, 42, 0
1, 51839, Note_on_c, 9, 35, 0
1, 51840, Note_on_c, 9, 42, 90
1, 51840, Note_on_c, 9, 35, 90
1, 52079, Note_on_c, 9, 42, 0
1, 52080, Note_on_c, 9, 42, 70
1, 52319, Note_on_c, 9, 35, 0
1, 52319, Note_on_c, 9, 42, 0
1, 52320, Note_on_c, 9, 38, 100
1, 52320, Note_on_c, 9, 42, 100
1, 52559, Note_on_c, 9, 38, 0
1, 52559, Note_on_c, 9, 42, 0
1, 52560, Note_on_c, 9, 42, 100
1, 52560, Note_on_c, 9, 35, 80
1, 52799, Note_on_c, 9, 42, 0
1, 52799, Note_on_c, 9, 35, 0
1, 52800, Note_on_c, 9, 42, 90
1, 52800, Note_on_c, 9, 35, 100
1, 53039, Note_on_c, 9, 42, 0
1, 53039, Note_on_c, 9, 35, 0
1, 53040, Note_on_c, 9, 42, 70
1, 53040, Note_on_c, 9, 35, 90
1, 53279, Note_on_c, 9, 42, 0
1, 53279, Note_on_c, 9, 35, 0
1, 53280, Note_on_c, 9, 38, 100
1, 53280, Note_on_c, 9, 42, 100
1, 53519, Note_on_c, 9, 38, 0
1, 53519, Note_on_c, 9, 42, 0
1, 53520, Note_on_c, 9, 46, 80
1, 53520, Note_on_c, 9, 35, 70
1, 53759, Note_on_c, 9, 46, 0
1, 53759, Note_on_c, 9, 35, 0
1, 53760, Note_on_c, 9, 42, 90
1, 53760, Note_on_c, 9, 35, 90
1, 53879, Note_on_c, 9, 42, 0
1, 53880, Note_on_c, 9, 42, 70
1, 53999, Note_on_c, 9, 42, 0
1, 54000, Note_on_c, 9, 42, 70
1, 54239, Note_on_c, 9, 35, 0
1, 54239, Note_on_c, 9, 42, 0
1, 54240, Note_on_c, 9, 38, 100
1, 54240, Note_on_c, 9, 42, 100
1, 54479, Note_on_c, 9, 38, 0
1, 54479, Note_on_c, 9, 42, 0
1, 54480, Note_on_c, 9, 42, 70
1, 54480, Note_on_c, 9, 35, 80
1, 54719, Note_on_c, 9, 42, 0
1, 54719, Note_on_c, 9, 35, 0
1, 54720, Note_on_c, 9, 42, 90
1, 54720, Note_on_c, 9, 35, 100
1, 54959, Note_on_c, 9, 42, 0
1, 54960, Note_on_c, 9, 42, 70
1, 55199, Note_on_c, 9, 35, 0
1, 55199, Note_on_c, 9, 42, 0
1, 55200, Note_on_c, 9, 38, 100
1, 55200, Note_on_c, 9, 42, 100
1, 55439, Note_on_c, 9, 38, 0
1, 55439, Note_on_c, 9, 42, 0
1, 55440, Note_on_c, 9, 42, 70
1, 55440, Note_on_c, 9, 35, 70
1, 55559, Note_on_c, 9, 42, 0
1, 55560, Note_on_c, 9, 46, 70
1, 55679, Note_on_c, 9, 35, 0
1, 55679, Note_on_c, 9, 46, 0
1, 55680, Note_on_c, 9, 42, 90
1, 55680, Note_on_c, 9, 35, 90
1, 55919, Note_on_c, 9, 42, 0
1, 55920, Note_on_c, 9, 42, 70
1, 56159, Note_on_c, 9, 35, 0
1, 56159, Note_on_c, 9, 42, 0
1, 56160, Note_on_c, 9, 38, 100
1, 56160, Note_on_c, 9, 42, 100
1, 56399, Note_on_c, 9, 38, 0
1, 56399, Note_on_c, 9, 42, 0
1, 56400, Note_on_c, 9, 42, 100
1, 56400, Note_on_c, 9, 35, 80
1, 56639, Note_on_c, 9, 42, 0
1, 56639, Note_on_c, 9, 35, 0
1, 56640, Note_on_c, 9, 42, 90
1, 56640, Note_on_c, 9, 35, 100
1, 56879, Note_on_c, 9, 42, 0
1, 56879, Note_on_c, 9, 35, 0
1, 56880, Note_on_c, 9, 42, 70
1, 56880, Note_on_c, 9, 35, 90
1, 57119, Note_on_c, 9, 42, 0
1, 57119, Note_on_c, 9, 35, 0
1, 57120, Note_on_c, 9, 38, 100
1, 57120, Note_on_c, 9, 42, 100
1, 57359, Note_on_c, 9, 38, 0
1, 57359, Note_on_c, 9, 42, 0
1, 57360, Note_on_c, 9, 42, 70
1, 57360, Note_on_c, 9, 35, 70
1, 57599, Note_on_c, 9, 42, 0
1, 57599, Note_on_c, 9, 35, 0
1, 58920, Note_on_c, 9, 38, 127
1, 59039, Note_on_c, 9, 38, 0
1, 59040, Note_on_c, 9, 38, 115
1, 59279, Note_on_c, 9, 38, 0
1, 59280, Note_on_c, 9, 38, 100
1, 59519, Note_on_c, 9, 38, 0
1, 59520, Note_on_c, 9, 54, 100
1, 59520, Note_on_c, 9, 70, 100
1, 59520, Note_on_c, 9, 42, 90
1, 59520, Note_on_c, 9, 49, 90
1, 59520, Note_on_c, 9, 35, 100
1, 59759, Note_on_c, 9, 54, 0
1, 59759, Note_on_c, 9, 70, 0
1, 59759, Note_on_c, 9, 42, 0
1, 59759, Note_on_c, 9, 49, 0
1, 59759, Note_on_c, 9, 35, 0
1, 59760, Note_on_c, 9, 54, 70
1, 59760, Note_on_c, 9, 69, 80
1, 59760, Note_on_c, 9, 70, 60
1, 59760, Note_on_c, 9, 42, 70
1, 59760, Note_on_c, 9, 35, 90
1, 59999, Note_on_c, 9, 54, 0
1, 59999, Note_on_c, 9, 69, 0
1, 59999, Note_on_c, 9, 70, 0
1, 59999, Note_on_c, 9, 42, 0
1, 59999, Note_on_c, 9, 35, 0
1, 60000, Note_on_c, 9, 38, 100
1, 60000, Note_on_c, 9, 54, 127
1, 60000, Note_on_c, 9, 70, 100
1, 60000, Note_on_c, 9, 42, 100
1, 60239, Note_on_c, 9, 38, 0
1, 60239, Note_on_c, 9, 54, 0
1, 60239, Note_on_c, 9, 70, 0
1, 60239, Note_on_c, 9, 42, 0
1, 60240, Note_on_c, 9, 54, 90
1, 60240, Note_on_c, 9, 69, 80
1, 60240, Note_on_c, 9, 70, 60
1, 60240, Note_on_c, 9, 42, 70
1, 60240, Note_on_c, 9, 35, 70
1, 60479, Note_on_c, 9, 54, 0
1, 60479, Note_on_c, 9, 69, 0
1, 60479, Note_on_c, 9, 70, 0
1, 60479, Note_on_c, 9, 42, 0
1, 60479, Note_on_c, 9, 35, 0
1, 60480, Note_on_c, 9, 54, 100
1, 60480, Note_on_c, 9, 70, 100
1, 60480, Note_on_c, 9, 42, 90
1, 60480, Note_on_c, 9, 35, 100
1, 60719, Note_on_c, 9, 54, 0
1, 60719, Note_on_c, 9, 70, 0
1, 60719, Note_on_c, 9, 42, 0
1, 60719, Note_on_c, 9, 35, 0
1, 60720, Note_on_c, 9, 54, 70
1, 60720, Note_on_c, 9, 69, 80
1, 60720, Note_on_c, 9, 70, 60
1, 60720, Note_on_c, 9, 42, 70
1, 60720, Note_on_c, 9, 35, 90
1, 60959, Note_on_c, 9, 54, 0
1, 60959, Note_on_c, 9, 69, 0
1, 60959, Note_on_c, 9, 70, 0
1, 60959, Note_on_c, 9, 42, 0
1, 60959, Note_on_c, 9, 35, 0
1, 60960, Note_on_c, 9, 38, 100
1, 60960, Note_on_c, 9, 54, 127
1, 60960, Note_on_c, 9, 70, 100
1, 60960, Note_on_c, 9, 42, 100
1, 61199, Note_on_c, 9, 38, 0
1, 61199, Note_on_c, 9, 54, 0
1, 61199, Note_on_c, 9, 70, 0
1, 61199, Note_on_c, 9, 42, 0
1, 61200, Note_on_c, 9, 54, 90
1, 61200, Note_on_c, 9, 69, 80
1, 61200, Note_on_c, 9, 70, 60
1, 61200, Note_on_c, 9, 42, 70
1, 61200, Note_on_c, 9, 35, 75
1, 61439, Note_on_c, 9, 54, 0
1, 61439, Note_on_c, 9, 69, 0
1, 61439, Note_on_c, 9, 70, 0
1, 61439, Note_on_c, 9, 42, 0
1, 61439, Note_on_c, 9, 35, 0
1, 61440, Note_on_c, 9, 38, 100
1, 61559, Note_on_c, 9, 38, 0
1, 61560, Note_on_c, 9, 38, 100
1, 61679, Note_on_c, 9, 38, 0
1, 61680, Note_on_c, 9, 38, 115
1, 61919, Note_on_c, 9, 38, 0
1, 61920, Note_on_c, 9, 38, 115
1, 62159, Note_on_c, 9, 38, 0
1, 62160, Note_on_c, 9, 38, 100
1, 62399, Note_on_c, 9, 38, 0
1, 62400, Note_on_c, 9, 35, 100
1, 62639, Note_on_c, 9, 35, 0
1, 62640, Note_on_c, 9, 35, 100
1, 62879, Note_on_c, 9, 35, 0
1, 62880, Note_on_c, 9, 38, 115
1, 63359, Note_on_c, 9, 38, 0
1, 63360, Note_on_c, 9, 54, 100
1, 63360, Note_on_c, 9, 70, 100
1, 63360, Note_on_c, 9, 42, 90
1, 63360, Note_on_c, 9, 49, 90
1, 63360, Note_on_c, 9, 35, 100
1, 63599, Note_on_c, 9, 54, 0
1, 63599, Note_on_c, 9, 70, 0
1, 63599, Note_on_c, 9, 42, 0
1, 63599, Note_on_c, 9, 49, 0
1, 63599, Note_on_c, 9, 35, 0
1, 63600, Note_on_c, 9, 54, 70
1, 63600, Note_on_c, 9, 69, 80
1, 63600, Note_on_c, 9, 70, 60
1, 63600, Note_on_c, 9, 42, 70
1, 63600, Note_on_c, 9, 35, 90
1, 63839, Note_on_c, 9, 54, 0
1, 63839, Note_on_c, 9, 69, 0
1, 63839, Note_on_c, 9, 70, 0
1, 63839, Note_on_c, 9, 42, 0
1, 63839, Note_on_c, 9, 35, 0
1, 63840, Note_on_c, 9, 38, 100
1, 63840, Note_on_c, 9, 54, 127
1, 63840, Note_on_c, 9, 70, 100
1, 63840, Note_on_c, 9, 42, 100
1, 64079, Note_on_c, 9, 38, 0
1, 64079, Note_on_c, 9, 54, 0
1, 64079, Note_on_c, 9, 70, 0
1, 64079, Note_on_c, 9, 42, 0
1, 64080, Note_on_c, 9, 54, 90
1, 64080, Note_on_c, 9, 69, 80
1, 64080, Note_on_c, 9, 70, 60
1, 64080, Note_on_c, 9, 42, 70
1, 64080, Note_on_c, 9, 35, 70
1, 64319, Note_on_c, 9, 54, 0
1, 64319, Note_on_c, 9, 69, 0
1, 64319, Note_on_c, 9, 70, 0
1, 64319, Note_on_c, 9, 42, 0
1, 64319, Note_on_c, 9, 35, 0
1, 64320, Note_on_c, 9, 54, 100
1, 64320, Note_on_c, 9, 70, 100
1, 64320, Note_on_c, 9, 42, 90
1, 64320, Note_on_c, 9, 35, 100
1, 64559, Note_on_c, 9, 54, 0
1, 64559, Note_on_c, 9, 70, 0
1, 64559, Note_on_c, 9, 42, 0
1, 64559, Note_on_c, 9, 35, 0
1, 64560, Note_on_c, 9, 54, 70
1, 64560, Note_on_c, 9, 69, 80
1, 64560, Note_on_c, 9, 70, 60
1, 64560, Note_on_c, 9, 42, 70
1, 64560, Note_on_c, 9, 35, 90
1, 64799, Note_on_c, 9, 54, 0
1, 64799, Note_on_c, 9, 69, 0
1, 64799, Note_on_c, 9, 70, 0
1, 64799, Note_on_c, 9, 42, 0
1, 64799, Note_on_c, 9, 35, 0
1, 64800, Note_on_c, 9, 38, 100
1, 64800, Note_on_c, 9, 54, 127
1, 64800, Note_on_c, 9, 70, 100
1, 64800, Note_on_c, 9, 42, 100
1, 65039, Note_on_c, 9, 38, 0
1, 65039, Note_on_c, 9, 54, 0
1, 65039, Note_on_c, 9, 70, 0
1, 65039, Note_on_c, 9, 42, 0
1, 65040, Note_on_c, 9, 54, 90
1, 65040, Note_on_c, 9, 69, 80
1, 65040, Note_on_c, 9, 70, 60
1, 65040, Note_on_c, 9, 42, 70
1, 65040, Note_on_c, 9, 35, 75
1, 65279, Note_on_c, 9, 54, 0
1, 65279, Note_on_c, 9, 69, 0
1, 65279, Note_on_c, 9, 70, 0
1, 65279, Note_on_c, 9, 42, 0
1, 65279, Note_on_c, 9, 35, 0
1, 65280, Note_on_c, 9, 54, 100
1, 65280, Note_on_c, 9, 70, 100
1, 65280, Note_on_c, 9, 42, 90
1, 65280, Note_on_c, 9, 35, 100
1, 65519, Note_on_c, 9, 54, 0
1, 65519, Note_on_c, 9, 70, 0
1, 65519, Note_on_c, 9, 42, 0
1, 65519, Note_on_c, 9, 35, 0
1, 65520, Note_on_c, 9, 54, 70
1, 65520, Note_on_c, 9, 69, 80
1, 65520, Note_on_c, 9, 70, 60
1, 65520, Note_on_c, 9, 42, 70
1, 65520, Note_on_c, 9, 35, 90
1, 65759, Note_on_c, 9, 54, 0
1, 65759, Note_on_c, 9, 69, 0
1, 65759, Note_on_c, 9, 70, 0
1, 65759, Note_on_c, 9, 42, 0
1, 65759, Note_on_c, 9, 35, 0
1, 65760, Note_on_c, 9, 38, 100
1, 65760, Note_on_c, 9, 54, 127
1, 65760, Note_on_c, 9, 70, 100
1, 65760, Note_on_c, 9, 42, 100
1, 65999, Note_on_c, 9, 38, 0
1, 65999, Note_on_c, 9, 54, 0
1, 65999, Note_on_c, 9, 70, 0
1, 65999, Note_on_c, 9, 42, 0
1, 66000, Note_on_c, 9, 54, 90
1, 66000, Note_on_c, 9, 69, 80
1, 66000, Note_on_c, 9, 70, 60
1, 66000, Note_on_c, 9, 42, 70
1, 66000, Note_on_c, 9, 35, 70
1, 66239, Note_on_c, 9, 54, 0
1, 66239, Note_on_c, 9, 69, 0
1, 66239, Note_on_c, 9, 70, 0
1, 66239, Note_on_c, 9, 42, 0
1, 66239, Note_on_c, 9, 35, 0
1, 66240, Note_on_c, 9, 54, 100
1, 66240, Note_on_c, 9, 70, 100
1, 66240, Note_on_c, 9, 42, 90
1, 66240, Note_on_c, 9, 35, 100
1, 66479, Note_on_c, 9, 54, 0
1, 66479, Note_on_c, 9, 70, 0
1, 66479, Note_on_c, 9, 42, 0
1, 66479, Note_on_c, 9, 35, 0
1, 66480, Note_on_c, 9, 54, 70
1, 66480, Note_on_c, 9, 69, 80
1, 66480, Note_on_c, 9, 70, 60
1, 66480, Note_on_c, 9, 42, 70
1, 66480, Note_on_c, 9, 35, 90
1, 66719, Note_on_c, 9, 54, 0
1, 66719, Note_on_c, 9, 69, 0
1, 66719, Note_on_c, 9, 70, 0
1, 66719, Note_on_c, 9, 42, 0
1, 66719, Note_on_c, 9, 35, 0
1, 66720, Note_on_c, 9, 38, 100
1, 66720, Note_on_c, 9, 54, 127
1, 66720, Note_on_c, 9, 70, 100
1, 66720, Note_on_c, 9, 42, 100
1, 66959, Note_on_c, 9, 38, 0
1, 66959, Note_on_c, 9, 54, 0
1, 66959, Note_on_c, 9, 70, 0
1, 66959, Note_on_c, 9, 42, 0
1, 66960, Note_on_c, 9, 54, 90
1, 66960, Note_on_c, 9, 69, 80
1, 66960, Note_on_c, 9, 70, 60
1, 66960, Note_on_c, 9, 42, 70
1, 66960, Note_on_c, 9, 35, 75
1, 67199, Note_on_c, 9, 54, 0
1, 67199, Note_on_c, 9, 69, 0
1, 67199, Note_on_c, 9, 70, 0
1, 67199, Note_on_c, 9, 42, 0
1, 67199, Note_on_c, 9, 35, 0
1, 67200, Note_on_c, 9, 54, 100
1, 67200, Note_on_c, 9, 70, 100
1, 67200, Note_on_c, 9, 42, 90
1, 67200, Note_on_c, 9, 35, 100
1, 67439, Note_on_c, 9, 54, 0
1, 67439, Note_on_c, 9, 70, 0
1, 67439, Note_on_c, 9, 42, 0
1, 67439, Note_on_c, 9, 35, 0
1, 67440, Note_on_c, 9, 54, 70
1, 67440, Note_on_c, 9, 69, 80
1, 67440, Note_on_c, 9, 70, 60
1, 67440, Note_on_c, 9, 42, 70
1, 67440, Note_on_c, 9, 35, 90
1, 67679, Note_on_c, 9, 54, 0
1, 67679, Note_on_c, 9, 69, 0
1, 67679, Note_on_c, 9, 70, 0
1, 67679, Note_on_c, 9, 42, 0
1, 67679, Note_on_c, 9, 35, 0
1, 67680, Note_on_c, 9, 38, 100
1, 67680, Note_on_c, 9, 54, 127
1, 67680, Note_on_c, 9, 70, 100
1, 67680, Note_on_c, 9, 42, 100
1, 67919, Note_on_c, 9, 38, 0
1, 67919, Note_on_c, 9, 54, 0
1, 67919, Note_on_c, 9, 70, 0
1, 67919, Note_on_c, 9, 42, 0
1, 67920, Note_on_c, 9, 54, 90
1, 67920, Note_on_c, 9, 69, 80
1, 67920, Note_on_c, 9, 70, 60
1, 67920, Note_on_c, 9, 42, 70
1, 67920, Note_on_c, 9, 35, 70
1, 68159, Note_on_c, 9, 54, 0
1, 68159, Note_on_c, 9, 69, 0
1, 68159, Note_on_c, 9, 70, 0
1, 68159, Note_on_c, 9, 42, 0
1, 68159, Note_on_c, 9, 35, 0
1, 68160, Note_on_c, 9, 54, 100
1, 68160, Note_on_c, 9, 70, 100
1, 68160, Note_on_c, 9, 42, 90
1, 68160, Note_on_c, 9, 35, 100
1, 68399, Note_on_c, 9, 54, 0
1, 68399, Note_on_c, 9, 70, 0
1, 68399, Note_on_c, 9, 42, 0
1, 68399, Note_on_c, 9, 35, 0
1, 68400, Note_on_c, 9, 54, 70
1, 68400, Note_on_c, 9, 69, 80
1, 68400, Note_on_c, 9, 70, 60
1, 68400, Note_on_c, 9, 42, 70
1, 68400, Note_on_c, 9, 35, 90
1, 68639, Note_on_c, 9, 54, 0
1, 68639, Note_on_c, 9, 69, 0
1, 68639, Note_on_c, 9, 70, 0
1, 68639, Note_on_c, 9, 42, 0
1, 68639, Note_on_c, 9, 35, 0
1, 68640, Note_on_c, 9, 38, 100
1, 68640, Note_on_c, 9, 54, 127
1, 68640, Note_on_c, 9, 70, 100
1, 68640, Note_on_c, 9, 42, 100
1, 68879, Note_on_c, 9, 38, 0
1, 68879, Note_on_c, 9, 54, 0
1, 68879, Note_on_c, 9, 70, 0
1, 68879, Note_on_c, 9, 42, 0
1, 68880, Note_on_c, 9, 54, 90
1, 68880, Note_on_c, 9, 69, 80
1, 68880, Note_on_c, 9, 70, 60
1, 68880, Note_on_c, 9, 42, 70
1, 68880, Note_on_c, 9, 35, 75
1, 69119, Note_on_c, 9, 54, 0
1, 69119, Note_on_c, 9, 69, 0
1, 69119, Note_on_c, 9, 70, 0
1, 69119, Note_on_c, 9, 42, 0
1, 69119, Note_on_c, 9, 35, 0
1, 69120, Note_on_c, 9, 54, 100
1, 69120, Note_on_c, 9, 70, 100
1, 69120, Note_on_c, 9, 42, 90
1, 69120, Note_on_c, 9, 35, 100
1, 69359, Note_on_c, 9, 54, 0
1, 69359, Note_on_c, 9, 70, 0
1, 69359, Note_on_c, 9, 42, 0
1, 69359, Note_on_c, 9, 35, 0
1, 69360, Note_on_c, 9, 54, 70
1, 69360, Note_on_c, 9, 69, 80
1, 69360, Note_on_c, 9, 70, 60
1, 69360, Note_on_c, 9, 42, 70
1, 69360, Note_on_c, 9, 35, 90
1, 69599, Note_on_c, 9, 54, 0
1, 69599, Note_on_c, 9, 69, 0
1, 69599, Note_on_c, 9, 70, 0
1, 69599, Note_on_c, 9, 42, 0
1, 69599, Note_on_c, 9, 35, 0
1, 69600, Note_on_c, 9, 38, 100
1, 69600, Note_on_c, 9, 54, 127
1, 69600, Note_on_c, 9, 70, 100
1, 69600, Note_on_c, 9, 42, 100
1, 69839, Note_on_c, 9, 38, 0
1, 69839, Note_on_c, 9, 54, 0
1, 69839, Note_on_c, 9, 70, 0
1, 69839, Note_on_c, 9, 42, 0
1, 69840, Note_on_c, 9, 54, 90
1, 69840, Note_on_c, 9, 46, 100
1, 69840, Note_on_c, 9, 69, 80
1, 69840, Note_on_c, 9, 70, 60
1, 69840, Note_on_c, 9, 35, 70
1, 70079, Note_on_c, 9, 54, 0
1, 70079, Note_on_c, 9, 46, 0
1, 70079, Note_on_c, 9, 69, 0
1, 70079, Note_on_c, 9, 70, 0
1, 70079, Note_on_c, 9, 35, 0
1, 70080, Note_on_c, 9, 54, 100
1, 70080, Note_on_c, 9, 70, 100
1, 70080, Note_on_c, 9, 42, 90
1, 70080, Note_on_c, 9, 35, 100
1, 70319, Note_on_c, 9, 54, 0
1, 70319, Note_on_c, 9, 70, 0
1, 70319, Note_on_c, 9, 42, 0
1, 70319, Note_on_c, 9, 35, 0
1, 70320, Note_on_c, 9, 54, 70
1, 70320, Note_on_c, 9, 69, 80
1, 70320, Note_on_c, 9, 70, 60
1, 70320, Note_on_c, 9, 42, 70
1, 70320, Note_on_c, 9, 35, 90
1, 70559, Note_on_c, 9, 54, 0
1, 70559, Note_on_c, 9, 69, 0
1, 70559, Note_on_c, 9, 70, 0
1, 70559, Note_on_c, 9, 42, 0
1, 70559, Note_on_c, 9, 35, 0
1, 70560, Note_on_c, 9, 38, 100
1, 70560, Note_on_c, 9, 54, 127
1, 70560, Note_on_c, 9, 70, 100
1, 70560, Note_on_c, 9, 42, 100
1, 70799, Note_on_c, 9, 38, 0
1, 70799, Note_on_c, 9, 54, 0
1, 70799, Note_on_c, 9, 70, 0
1, 70799, Note_on_c, 9, 42, 0
1, 70800, Note_on_c, 9, 54, 90
1, 70800, Note_on_c, 9, 69, 80
1, 70800, Note_on_c, 9, 70, 60
1, 70800, Note_on_c, 9, 42, 70
1, 70800, Note_on_c, 9, 35, 75
1, 71039, Note_on_c, 9, 54, 0
1, 71039, Note_on_c, 9, 69, 0
1, 71039, Note_on_c, 9, 70, 0
1, 71039, Note_on_c, 9, 42, 0
1, 71039, Note_on_c, 9, 35, 0
1, 71040, Note_on_c, 9, 54, 100
1, 71040, Note_on_c, 9, 70, 100
1, 71040, Note_on_c, 9, 42, 90
1, 71040, Note_on_c, 9, 35, 100
1, 71279, Note_on_c, 9, 54, 0
1, 71279, Note_on_c, 9, 70, 0
1, 71279, Note_on_c, 9, 42, 0
1, 71279, Note_on_c, 9, 35, 0
1, 71280, Note_on_c, 9, 54, 70
1, 71280, Note_on_c, 9, 69, 80
1, 71280, Note_on_c, 9, 70, 60
1, 71280, Note_on_c, 9, 42, 70
1, 71280, Note_on_c, 9, 35, 90
1, 71519, Note_on_c, 9, 54, 0
1, 71519, Note_on_c, 9, 69, 0
1, 71519, Note_on_c, 9, 70, 0
1, 71519, Note_on_c, 9, 42, 0
1, 71519, Note_on_c, 9, 35, 0
1, 71520, Note_on_c, 9, 38, 100
1, 71520, Note_on_c, 9, 54, 127
1, 71520, Note_on_c, 9, 70, 100
1, 71520, Note_on_c, 9, 42, 100
1, 71759, Note_on_c, 9, 38, 0
1, 71759, Note_on_c, 9, 54, 0
1, 71759, Note_on_c, 9, 70, 0
1, 71759, Note_on_c, 9, 42, 0
1, 71760, Note_on_c, 9, 54, 90
1, 71760, Note_on_c, 9, 69, 80
1, 71760, Note_on_c, 9, 70, 60
1, 71760, Note_on_c, 9, 42, 70
1, 71760, Note_on_c, 9, 35, 70
1, 71999, Note_on_c, 9, 54, 0
1, 71999, Note_on_c, 9, 69, 0
1, 71999, Note_on_c, 9, 70, 0
1, 71999, Note_on_c, 9, 42, 0
1, 71999, Note_on_c, 9, 35, 0
1, 72000, Note_on_c, 9, 54, 100
1, 72000, Note_on_c, 9, 70, 100
1, 72000, Note_on_c, 9, 42, 90
1, 72000, Note_on_c, 9, 35, 100
1, 72239, Note_on_c, 9, 54, 0
1, 72239, Note_on_c, 9, 70, 0
1, 72239, Note_on_c, 9, 42, 0
1, 72239, Note_on_c, 9, 35, 0
1, 72240, Note_on_c, 9, 54, 70
1, 72240, Note_on_c, 9, 69, 80
1, 72240, Note_on_c, 9, 70, 60
1, 72240, Note_on_c, 9, 42, 70
1, 72240, Note_on_c, 9, 35, 90
1, 72479, Note_on_c, 9, 54, 0
1, 72479, Note_on_c, 9, 69, 0
1, 72479, Note_on_c, 9, 70, 0
1, 72479, Note_on_c, 9, 42, 0
1, 72479, Note_on_c, 9, 35, 0
1, 72480, Note_on_c, 9, 38, 100
1, 72480, Note_on_c, 9, 54, 127
1, 72480, Note_on_c, 9, 70, 100
1, 72480, Note_on_c, 9, 42, 100
1, 72719, Note_on_c, 9, 38, 0
1, 72719, Note_on_c, 9, 54, 0
1, 72719, Note_on_c, 9, 70, 0
1, 72719, Note_on_c, 9, 42, 0
1, 72720, Note_on_c, 9, 54, 90
1, 72720, Note_on_c, 9, 69, 80
1, 72720, Note_on_c, 9, 70, 60
1, 72720, Note_on_c, 9, 42, 70
1, 72720, Note_on_c, 9, 35, 75
1, 72839, Note_on_c, 9, 54, 0
1, 72839, Note_on_c, 9, 69, 0
1, 72839, Note_on_c, 9, 70, 0
1, 72839, Note_on_c, 9, 42, 0
1, 72840, Note_on_c, 9, 46, 100
1, 72959, Note_on_c, 9, 35, 0
1, 72959, Note_on_c, 9, 46, 0
1, 72960, Note_on_c, 9, 54, 100
1, 72960, Note_on_c, 9, 70, 100
1, 72960, Note_on_c, 9, 42, 90
1, 72960, Note_on_c, 9, 35, 100
1, 73199, Note_on_c, 9, 54, 0
1, 73199, Note_on_c, 9, 70, 0
1, 73199, Note_on_c, 9, 42, 0
1, 73199, Note_on_c, 9, 35, 0
1, 73200, Note_on_c, 9, 54, 70
1, 73200, Note_on_c, 9, 69, 80
1, 73200, Note_on_c, 9, 42, 70
1, 73200, Note_on_c, 9, 35, 90
1, 73439, Note_on_c, 9, 54, 0
1, 73439, Note_on_c, 9, 69, 0
1, 73439, Note_on_c, 9, 42, 0
1, 73439, Note_on_c, 9, 35, 0
1, 73440, Note_on_c, 9, 41, 50
1, 73440, Note_on_c, 9, 38, 100
1, 73440, Note_on_c, 9, 54, 127
1, 73440, Note_on_c, 9, 70, 100
1, 73440, Note_on_c, 9, 42, 100
1, 73679, Note_on_c, 9, 41, 0
1, 73679, Note_on_c, 9, 38, 0
1, 73679, Note_on_c, 9, 54, 0
1, 73679, Note_on_c, 9, 70, 0
1, 73679, Note_on_c, 9, 42, 0
1, 73680, Note_on_c, 9, 41, 70
1, 73680, Note_on_c, 9, 38, 50
1, 73680, Note_on_c, 9, 54, 90
1, 73680, Note_on_c, 9, 69, 80
1, 73680, Note_on_c, 9, 42, 70
1, 73680, Note_on_c, 9, 35, 70
1, 73919, Note_on_c, 9, 41, 0
1, 73919, Note_on_c, 9, 38, 0
1, 73919, Note_on_c, 9, 54, 0
1, 73919, Note_on_c, 9, 69, 0
1, 73919, Note_on_c, 9, 42, 0
1, 73919, Note_on_c, 9, 35, 0
1, 73920, Note_on_c, 9, 41, 80
1, 73920, Note_on_c, 9, 38, 80
1, 73920, Note_on_c, 9, 54, 100
1, 73920, Note_on_c, 9, 70, 100
1, 73920, Note_on_c, 9, 42, 90
1, 73920, Note_on_c, 9, 35, 100
1, 74159, Note_on_c, 9, 41, 0
1, 74159, Note_on_c, 9, 38, 0
1, 74159, Note_on_c, 9, 54, 0
1, 74159, Note_on_c, 9, 70, 0
1, 74159, Note_on_c, 9, 42, 0
1, 74159, Note_on_c, 9, 35, 0
1, 74160, Note_on_c, 9, 41, 90
1, 74160, Note_on_c, 9, 38, 100
1, 74160, Note_on_c, 9, 54, 70
1, 74160, Note_on_c, 9, 69, 80
1, 74160, Note_on_c, 9, 42, 70
1, 74160, Note_on_c, 9, 35, 90
1, 74399, Note_on_c, 9, 41, 0
1, 74399, Note_on_c, 9, 38, 0
1, 74399, Note_on_c, 9, 54, 0
1, 74399, Note_on_c, 9, 69, 0
1, 74399, Note_on_c, 9, 42, 0
1, 74399, Note_on_c, 9, 35, 0
1, 74400, Note_on_c, 9, 41, 100
1, 74400, Note_on_c, 9, 38, 115
1, 74400, Note_on_c, 9, 54, 127
1, 74400, Note_on_c, 9, 70, 100
1, 74400, Note_on_c, 9, 42, 100
1, 74639, Note_on_c, 9, 41, 0
1, 74639, Note_on_c, 9, 38, 0
1, 74639, Note_on_c, 9, 54, 0
1, 74639, Note_on_c, 9, 70, 0
1, 74639, Note_on_c, 9, 42, 0
1, 74640, Note_on_c, 9, 41, 115
1, 74640, Note_on_c, 9, 38, 127
1, 74640, Note_on_c, 9, 54, 90
1, 74640, Note_on_c, 9, 69, 80
1, 74640, Note_on_c, 9, 42, 70
1, 74640, Note_on_c, 9, 35, 75
1, 74879, Note_on_c, 9, 41, 0
1, 74879, Note_on_c, 9, 38, 0
1, 74879, Note_on_c, 9, 54, 0
1, 74879, Note_on_c, 9, 69, 0
1, 74879, Note_on_c, 9, 42, 0
1, 74879, Note_on_c, 9, 35, 0
1, 74880, Note_on_c, 9, 42, 90
1, 74880, Note_on_c, 9, 49, 90
1, 74880, Note_on_c, 9, 35, 90
1, 75119, Note_on_c, 9, 42, 0
1, 75119, Note_on_c, 9, 49, 0
1, 75120, Note_on_c, 9, 42, 70
1, 75359, Note_on_c, 9, 35, 0
1, 75359, Note_on_c, 9, 42, 0
1, 75360, Note_on_c, 9, 38, 100
1, 75360, Note_on_c, 9, 42, 100
1, 75599, Note_on_c, 9, 38, 0
1, 75599, Note_on_c, 9, 42, 0
1, 75600, Note_on_c, 9, 42, 70
1, 75600, Note_on_c, 9, 35, 80
1, 75839, Note_on_c, 9, 42, 0
1, 75839, Note_on_c, 9, 35, 0
1, 75840, Note_on_c, 9, 42, 90
1, 75840, Note_on_c, 9, 35, 100
1, 76079, Note_on_c, 9, 42, 0
1, 76080, Note_on_c, 9, 42, 70
1, 76319, Note_on_c, 9, 35, 0
1, 76319, Note_on_c, 9, 42, 0
1, 76320, Note_on_c, 9, 38, 100
1, 76320, Note_on_c, 9, 42, 100
1, 76559, Note_on_c, 9, 38, 0
1, 76559, Note_on_c, 9, 42, 0
1, 76560, Note_on_c, 9, 42, 70
1, 76560, Note_on_c, 9, 35, 70
1, 76799, Note_on_c, 9, 42, 0
1, 76799, Note_on_c, 9, 35, 0
1, 76800, Note_on_c, 9, 42, 90
1, 76800, Note_on_c, 9, 35, 90
1, 77039, Note_on_c, 9, 42, 0
1, 77040, Note_on_c, 9, 42, 70
1, 77279, Note_on_c, 9, 35, 0
1, 77279, Note_on_c, 9, 42, 0
1, 77280, Note_on_c, 9, 38, 100
1, 77280, Note_on_c, 9, 42, 100
1, 77519, Note_on_c, 9, 38, 0
1, 77519, Note_on_c, 9, 42, 0
1, 77520, Note_on_c, 9, 42, 100
1, 77520, Note_on_c, 9, 35, 80
1, 77759, Note_on_c, 9, 42, 0
1, 77759, Note_on_c, 9, 35, 0
1, 77760, Note_on_c, 9, 42, 90
1, 77760, Note_on_c, 9, 35, 100
1, 77999, Note_on_c, 9, 42, 0
1, 77999, Note_on_c, 9, 35, 0
1, 78000, Note_on_c, 9, 42, 70
1, 78000, Note_on_c, 9, 35, 90
1, 78239, Note_on_c, 9, 42, 0
1, 78239, Note_on_c, 9, 35, 0
1, 78240, Note_on_c, 9, 38, 100
1, 78240, Note_on_c, 9, 42, 100
1, 78479, Note_on_c, 9, 38, 0
1, 78479, Note_on_c, 9, 42, 0
1, 78480, Note_on_c, 9, 46, 80
1, 78480, Note_on_c, 9, 35, 70
1, 78719, Note_on_c, 9, 46, 0
1, 78719, Note_on_c, 9, 35, 0
1, 78720, Note_on_c, 9, 42, 90
1, 78720, Note_on_c, 9, 35, 90
1, 78959, Note_on_c, 9, 42, 0
1, 78960, Note_on_c, 9, 42, 70
1, 79199, Note_on_c, 9, 35, 0
1, 79199, Note_on_c, 9, 42, 0
1, 79200, Note_on_c, 9, 38, 100
1, 79200, Note_on_c, 9, 42, 100
1, 79439, Note_on_c, 9, 38, 0
1, 79439, Note_on_c, 9, 42, 0
1, 79440, Note_on_c, 9, 42, 70
1, 79440, Note_on_c, 9, 35, 80
1, 79679, Note_on_c, 9, 42, 0
1, 79679, Note_on_c, 9, 35, 0
1, 79680, Note_on_c, 9, 42, 90
1, 79680, Note_on_c, 9, 35, 100
1, 79919, Note_on_c, 9, 42, 0
1, 79920, Note_on_c, 9, 41, 72
1, 80159, Note_on_c, 9, 35, 0
1, 80159, Note_on_c, 9, 41, 0
1, 80160, Note_on_c, 9, 38, 100
1, 80160, Note_on_c, 9, 42, 100
1, 80399, Note_on_c, 9, 38, 0
1, 80399, Note_on_c, 9, 42, 0
1, 80400, Note_on_c, 9, 42, 70
1, 80400, Note_on_c, 9, 35, 70
1, 80639, Note_on_c, 9, 42, 0
1, 80639, Note_on_c, 9, 35, 0
1, 80640, Note_on_c, 9, 42, 90
1, 80640, Note_on_c, 9, 35, 90
1, 80879, Note_on_c, 9, 42, 0
1, 80880, Note_on_c, 9, 42, 70
1, 81119, Note_on_c, 9, 35, 0
1, 81119, Note_on_c, 9, 42, 0
1, 81120, Note_on_c, 9, 38, 100
1, 81120, Note_on_c, 9, 42, 100
1, 81359, Note_on_c, 9, 38, 0
1, 81359, Note_on_c, 9, 42, 0
1, 81360, Note_on_c, 9, 42, 100
1, 81360, Note_on_c, 9, 35, 80
1, 81599, Note_on_c, 9, 42, 0
1, 81599, Note_on_c, 9, 35, 0
1, 81600, Note_on_c, 9, 42, 90
1, 81600, Note_on_c, 9, 35, 100
1, 81839, Note_on_c, 9, 42, 0
1, 81839, Note_on_c, 9, 35, 0
1, 81840, Note_on_c, 9, 42, 70
1, 81840, Note_on_c, 9, 35, 90
1, 82079, Note_on_c, 9, 42, 0
1, 82079, Note_on_c, 9, 35, 0
1, 82080, Note_on_c, 9, 38, 100
1, 82080, Note_on_c, 9, 42, 100
1, 82319, Note_on_c, 9, 38, 0
1, 82319, Note_on_c, 9, 42, 0
1, 82320, Note_on_c, 9, 46, 80
1, 82320, Note_on_c, 9, 35, 70
1, 82559, Note_on_c, 9, 46, 0
1, 82559, Note_on_c, 9, 35, 0
1, 84000, Note_on_c, 9, 38, 115
1, 84000, Note_on_c, 9, 42, 90
1, 84119, Note_on_c, 9, 38, 0
1, 84119, Note_on_c, 9, 42, 0
1, 84120, Note_on_c, 9, 45, 100
1, 84239, Note_on_c, 9, 45, 0
1, 84240, Note_on_c, 9, 41, 100
1, 84479, Note_on_c, 9, 41, 0
1, 84480, Note_on_c, 9, 54, 100
1, 84480, Note_on_c, 9, 70, 100
1, 84480, Note_on_c, 9, 42, 90
1, 84480, Note_on_c, 9, 49, 90
1, 84480, Note_on_c, 9, 35, 100
1, 84719, Note_on_c, 9, 54, 0
1, 84719, Note_on_c, 9, 70, 0
1, 84719, Note_on_c, 9, 42, 0
1, 84719, Note_on_c, 9, 49, 0
1, 84719, Note_on_c, 9, 35, 0
1, 84720, Note_on_c, 9, 54, 70
1, 84720, Note_on_c, 9, 69, 80
1, 84720, Note_on_c, 9, 70, 60
1, 84720, Note_on_c, 9, 42, 70
1, 84720, Note_on_c, 9, 35, 90
1, 84959, Note_on_c, 9, 54, 0
1, 84959, Note_on_c, 9, 69, 0
1, 84959, Note_on_c, 9, 70, 0
1, 84959, Note_on_c, 9, 42, 0
1, 84959, Note_on_c, 9, 35, 0
1, 84960, Note_on_c, 9, 38, 100
1, 84960, Note_on_c, 9, 54, 127
1, 84960, Note_on_c, 9, 70, 100
1, 84960, Note_on_c, 9, 42, 100
1, 85199, Note_on_c, 9, 38, 0
1, 85199, Note_on_c, 9, 54, 0
1, 85199, Note_on_c, 9, 70, 0
1, 85199, Note_on_c, 9, 42, 0
1, 85200, Note_on_c, 9, 54, 90
1, 85200, Note_on_c, 9, 69, 80
1, 85200, Note_on_c, 9, 70, 60
1, 85200, Note_on_c, 9, 42, 70
1, 85200, Note_on_c, 9, 35, 70
1, 85439, Note_on_c, 9, 54, 0
1, 85439, Note_on_c, 9, 69, 0
1, 85439, Note_on_c, 9, 70, 0
1, 85439, Note_on_c, 9, 42, 0
1, 85439, Note_on_c, 9, 35, 0
1, 85440, Note_on_c, 9, 54, 100
1, 85440, Note_on_c, 9, 70, 100
1, 85440, Note_on_c, 9, 42, 90
1, 85440, Note_on_c, 9, 35, 100
1, 85679, Note_on_c, 9, 54, 0
1, 85679, Note_on_c, 9, 70, 0
1, 85679, Note_on_c, 9, 42, 0
1, 85679, Note_on_c, 9, 35, 0
1, 85680, Note_on_c, 9, 54, 70
1, 85680, Note_on_c, 9, 69, 80
1, 85680, Note_on_c, 9, 70, 60
1, 85680, Note_on_c, 9, 42, 70
1, 85680, Note_on_c, 9, 35, 90
1, 85919, Note_on_c, 9, 54, 0
1, 85919, Note_on_c, 9, 69, 0
1, 85919, Note_on_c, 9, 70, 0
1, 85919, Note_on_c, 9, 42, 0
1, 85919, Note_on_c, 9, 35, 0
1, 85920, Note_on_c, 9, 38, 100
1, 85920, Note_on_c, 9, 54, 127
1, 85920, Note_on_c, 9, 70, 100
1, 85920, Note_on_c, 9, 42, 100
1, 86159, Note_on_c, 9, 38, 0
1, 86159, Note_on_c, 9, 54, 0
1, 86159, Note_on_c, 9, 70, 0
1, 86159, Note_on_c, 9, 42, 0
1, 86160, Note_on_c, 9, 54, 90
1, 86160, Note_on_c, 9, 69, 80
1, 86160, Note_on_c, 9, 70, 60
1, 86160, Note_on_c, 9, 42, 70
1, 86160, Note_on_c, 9, 35, 75
1, 86399, Note_on_c, 9, 54, 0
1, 86399, Note_on_c, 9, 69, 0
1, 86399, Note_on_c, 9, 70, 0
1, 86399, Note_on_c, 9, 42, 0
1, 86399, Note_on_c, 9, 35, 0
1, 86400, Note_on_c, 9, 54, 100
1, 86400, Note_on_c, 9, 70, 100
1, 86400, Note_on_c, 9, 42, 90
1, 86400, Note_on_c, 9, 35, 100
1, 86639, Note_on_c, 9, 54, 0
1, 86639, Note_on_c, 9, 70, 0
1, 86639, Note_on_c, 9, 42, 0
1, 86639, Note_on_c, 9, 35, 0
1, 86640, Note_on_c, 9, 54, 70
1, 86640, Note_on_c, 9, 69, 80
1, 86640, Note_on_c, 9, 70, 60
1, 86640, Note_on_c, 9, 42, 70
1, 86640, Note_on_c, 9, 35, 90
1, 86879, Note_on_c, 9, 54, 0
1, 86879, Note_on_c, 9, 69, 0
1, 86879, Note_on_c, 9, 70, 0
1, 86879, Note_on_c, 9, 42, 0
1, 86879, Note_on_c, 9, 35, 0
1, 86880, Note_on_c, 9, 38, 100
1, 86880, Note_on_c, 9, 54, 127
1, 86880, Note_on_c, 9, 70, 100
1, 86880, Note_on_c, 9, 42, 100
1, 87119, Note_on_c, 9, 38, 0
1, 87119, Note_on_c, 9, 54, 0
1, 87119, Note_on_c, 9, 70, 0
1, 87119, Note_on_c, 9, 42, 0
1, 87120, Note_on_c, 9, 54, 90
1, 87120, Note_on_c, 9, 46, 100
1, 87120, Note_on_c, 9, 69, 80
1, 87120, Note_on_c, 9, 70, 60
1, 87120, Note_on_c, 9, 35, 70
1, 87359, Note_on_c, 9, 54, 0
1, 87359, Note_on_c, 9, 46, 0
1, 87359, Note_on_c, 9, 69, 0
1, 87359, Note_on_c, 9, 70, 0
1, 87359, Note_on_c, 9, 35, 0
1, 87360, Note_on_c, 9, 54, 100
1, 87360, Note_on_c, 9, 70, 100
1, 87360, Note_on_c, 9, 42, 90
1, 87360, Note_on_c, 9, 35, 100
1, 87599, Note_on_c, 9, 54, 0
1, 87599, Note_on_c, 9, 70, 0
1, 87599, Note_on_c, 9, 42, 0
1, 87599, Note_on_c, 9, 35, 0
1, 87600, Note_on_c, 9, 54, 70
1, 87600, Note_on_c, 9, 69, 80
1, 87600, Note_on_c, 9, 70, 60
1, 87600, Note_on_c, 9, 42, 70
1, 87600, Note_on_c, 9, 35, 90
1, 87839, Note_on_c, 9, 54, 0
1, 87839, Note_on_c, 9, 69, 0
1, 87839, Note_on_c, 9, 70, 0
1, 87839, Note_on_c, 9, 42, 0
1, 87839, Note_on_c, 9, 35, 0
1, 87840, Note_on_c, 9, 38, 100
1, 87840, Note_on_c, 9, 54, 127
1, 87840, Note_on_c, 9, 70, 100
1, 87840, Note_on_c, 9, 42, 100
1, 88079, Note_on_c, 9, 38, 0
1, 88079, Note_on_c, 9, 54, 0
1, 88079, Note_on_c, 9, 70, 0
1, 88079, Note_on_c, 9, 42, 0
1, 88080, Note_on_c, 9, 54, 90
1, 88080, Note_on_c, 9, 69, 80
1, 88080, Note_on_c, 9, 70, 60
1, 88080, Note_on_c, 9, 42, 70
1, 88080, Note_on_c, 9, 35, 75
1, 88319, Note_on_c, 9, 54, 0
1, 88319, Note_on_c, 9, 69, 0
1, 88319, Note_on_c, 9, 70, 0
1, 88319, Note_on_c, 9, 42, 0
1, 88319, Note_on_c, 9, 35, 0
1, 88320, Note_on_c, 9, 54, 100
1, 88320, Note_on_c, 9, 70, 100
1, 88320, Note_on_c, 9, 42, 90
1, 88320, Note_on_c, 9, 35, 100
1, 88559, Note_on_c, 9, 54, 0
1, 88559, Note_on_c, 9, 70, 0
1, 88559, Note_on_c, 9, 42, 0
1, 88559, Note_on_c, 9, 35, 0
1, 88560, Note_on_c, 9, 54, 70
1, 88560, Note_on_c, 9, 69, 80
1, 88560, Note_on_c, 9, 70, 60
1, 88560, Note_on_c, 9, 42, 70
1, 88560, Note_on_c, 9, 35, 90
1, 88799, Note_on_c, 9, 54, 0
1, 88799, Note_on_c, 9, 69, 0
1, 88799, Note_on_c, 9, 70, 0
1, 88799, Note_on_c, 9, 42, 0
1, 88799, Note_on_c, 9, 35, 0
1, 88800, Note_on_c, 9, 38, 100
1, 88800, Note_on_c, 9, 54, 127
1, 88800, Note_on_c, 9, 70, 100
1, 88800, Note_on_c, 9, 42, 100
1, 89039, Note_on_c, 9, 38, 0
1, 89039, Note_on_c, 9, 54, 0
1, 89039, Note_on_c, 9, 70, 0
1, 89039, Note_on_c, 9, 42, 0
1, 89040, Note_on_c, 9, 54, 90
1, 89040, Note_on_c, 9, 69, 80
1, 89040, Note_on_c, 9, 70, 60
1, 89040, Note_on_c, 9, 42, 70
1, 89040, Note_on_c, 9, 35, 70
1, 89279, Note_on_c, 9, 54, 0
1, 89279, Note_on_c, 9, 69, 0
1, 89279, Note_on_c, 9, 70, 0
1, 89279, Note_on_c, 9, 42, 0
1, 89279, Note_on_c, 9, 35, 0
1, 89280, Note_on_c, 9, 54, 100
1, 89280, Note_on_c, 9, 70, 100
1, 89280, Note_on_c, 9, 42, 90
1, 89280, Note_on_c, 9, 35, 100
1, 89519, Note_on_c, 9, 54, 0
1, 89519, Note_on_c, 9, 70, 0
1, 89519, Note_on_c, 9, 42, 0
1, 89519, Note_on_c, 9, 35, 0
1, 89520, Note_on_c, 9, 54, 70
1, 89520, Note_on_c, 9, 69, 80
1, 89520, Note_on_c, 9, 70, 60
1, 89520, Note_on_c, 9, 42, 70
1, 89520, Note_on_c, 9, 35, 90
1, 89759, Note_on_c, 9, 54, 0
1, 89759, Note_on_c, 9, 69, 0
1, 89759, Note_on_c, 9, 70, 0
1, 89759, Note_on_c, 9, 42, 0
1, 89759, Note_on_c, 9, 35, 0
1, 89760, Note_on_c, 9, 38, 100
1, 89760, Note_on_c, 9, 54, 127
1, 89760, Note_on_c, 9, 70, 100
1, 89760, Note_on_c, 9, 42, 100
1, 89999, Note_on_c, 9, 38, 0
1, 89999, Note_on_c, 9, 54, 0
1, 89999, Note_on_c, 9, 70, 0
1, 89999, Note_on_c, 9, 42, 0
1, 90000, Note_on_c, 9, 54, 90
1, 90000, Note_on_c, 9, 69, 80
1, 90000, Note_on_c, 9, 70, 60
1, 90000, Note_on_c, 9, 42, 70
1, 90000, Note_on_c, 9, 35, 75
1, 90239, Note_on_c, 9, 54, 0
1, 90239, Note_on_c, 9, 69, 0
1, 90239, Note_on_c, 9, 70, 0
1, 90239, Note_on_c, 9, 42, 0
1, 90239, Note_on_c, 9, 35, 0
1, 90240, Note_on_c, 9, 54, 100
1, 90240, Note_on_c, 9, 70, 100
1, 90240, Note_on_c, 9, 42, 90
1, 90240, Note_on_c, 9, 35, 100
1, 90479, Note_on_c, 9, 54, 0
1, 90479, Note_on_c, 9, 70, 0
1, 90479, Note_on_c, 9, 42, 0
1, 90479, Note_on_c, 9, 35, 0
1, 90480, Note_on_c, 9, 54, 70
1, 90480, Note_on_c, 9, 69, 80
1, 90480, Note_on_c, 9, 70, 60
1, 90480, Note_on_c, 9, 42, 70
1, 90480, Note_on_c, 9, 35, 90
1, 90719, Note_on_c, 9, 54, 0
1, 90719, Note_on_c, 9, 69, 0
1, 90719, Note_on_c, 9, 70, 0
1, 90719, Note_on_c, 9, 42, 0
1, 90719, Note_on_c, 9, 35, 0
1, 90720, Note_on_c, 9, 38, 100
1, 90720, Note_on_c, 9, 54, 127
1, 90720, Note_on_c, 9, 70, 100
1, 90720, Note_on_c, 9, 42, 100
1, 90959, Note_on_c, 9, 38, 0
1, 90959, Note_on_c, 9, 54, 0
1, 90959, Note_on_c, 9, 70, 0
1, 90959, Note_on_c, 9, 42, 0
1, 90960, Note_on_c, 9, 54, 90
1, 90960, Note_on_c, 9, 69, 80
1, 90960, Note_on_c, 9, 70, 60
1, 90960, Note_on_c, 9, 42, 70
1, 90960, Note_on_c, 9, 35, 70
1, 91199, Note_on_c, 9, 54, 0
1, 91199, Note_on_c, 9, 69, 0
1, 91199, Note_on_c, 9, 70, 0
1, 91199, Note_on_c, 9, 42, 0
1, 91199, Note_on_c, 9, 35, 0
1, 91200, Note_on_c, 9, 54, 100
1, 91200, Note_on_c, 9, 70, 100
1, 91200, Note_on_c, 9, 42, 90
1, 91200, Note_on_c, 9, 35, 100
1, 91439, Note_on_c, 9, 54, 0
1, 91439, Note_on_c, 9, 70, 0
1, 91439, Note_on_c, 9, 42, 0
1, 91439, Note_on_c, 9, 35, 0
1, 91440, Note_on_c, 9, 54, 70
1, 91440, Note_on_c, 9, 69, 80
1, 91440, Note_on_c, 9, 70, 60
1, 91440, Note_on_c, 9, 42, 70
1, 91440, Note_on_c, 9, 35, 90
1, 91679, Note_on_c, 9, 54, 0
1, 91679, Note_on_c, 9, 69, 0
1, 91679, Note_on_c, 9, 70, 0
1, 91679, Note_on_c, 9, 42, 0
1, 91679, Note_on_c, 9, 35, 0
1, 91680, Note_on_c, 9, 38, 100
1, 91680, Note_on_c, 9, 54, 127
1, 91680, Note_on_c, 9, 70, 100
1, 91680, Note_on_c, 9, 42, 100
1, 91919, Note_on_c, 9, 38, 0
1, 91919, Note_on_c, 9, 54, 0
1, 91919, Note_on_c, 9, 70, 0
1, 91919, Note_on_c, 9, 42, 0
1, 91920, Note_on_c, 9, 54, 90
1, 91920, Note_on_c, 9, 69, 80
1, 91920, Note_on_c, 9, 70, 60
1, 91920, Note_on_c, 9, 42, 70
1, 91920, Note_on_c, 9, 35, 75
1, 92039, Note_on_c, 9, 54, 0
1, 92039, Note_on_c, 9, 69, 0
1, 92039, Note_on_c, 9, 70, 0
1, 92039, Note_on_c, 9, 42, 0
1, 92040, Note_on_c, 9, 46, 100
1, 92159, Note_on_c, 9, 35, 0
1, 92159, Note_on_c, 9, 46, 0
1, 92160, Note_on_c, 9, 54, 100
1, 92160, Note_on_c, 9, 70, 100
1, 92160, Note_on_c, 9, 42, 90
1, 92160, Note_on_c, 9, 35, 100
1, 92399, Note_on_c, 9, 54, 0
1, 92399, Note_on_c, 9, 70, 0
1, 92399, Note_on_c, 9, 42, 0
1, 92399, Note_on_c, 9, 35, 0
1, 92400, Note_on_c, 9, 54, 70
1, 92400, Note_on_c, 9, 69, 80
1, 92400, Note_on_c, 9, 70, 60
1, 92400, Note_on_c, 9, 42, 70
1, 92400, Note_on_c, 9, 35, 90
1, 92639, Note_on_c, 9, 54, 0
1, 92639, Note_on_c, 9, 69, 0
1, 92639, Note_on_c, 9, 70, 0
1, 92639, Note_on_c, 9, 42, 0
1, 92639, Note_on_c, 9, 35, 0
1, 92640, Note_on_c, 9, 38, 100
1, 92640, Note_on_c, 9, 54, 127
1, 92640, Note_on_c, 9, 70, 100
1, 92640, Note_on_c, 9, 42, 100
1, 92879, Note_on_c, 9, 38, 0
1, 92879, Note_on_c, 9, 54, 0
1, 92879, Note_on_c, 9, 70, 0
1, 92879, Note_on_c, 9, 42, 0
1, 92880, Note_on_c, 9, 54, 90
1, 92880, Note_on_c, 9, 69, 80
1, 92880, Note_on_c, 9, 70, 60
1, 92880, Note_on_c, 9, 42, 70
1, 92880, Note_on_c, 9, 35, 70
1, 93119, Note_on_c, 9, 54, 0
1, 93119, Note_on_c, 9, 69, 0
1, 93119, Note_on_c, 9, 70, 0
1, 93119, Note_on_c, 9, 42, 0
1, 93119, Note_on_c, 9, 35, 0
1, 93120, Note_on_c, 9, 54, 100
1, 93120, Note_on_c, 9, 70, 100
1, 93120, Note_on_c, 9, 42, 90
1, 93120, Note_on_c, 9, 35, 100
1, 93359, Note_on_c, 9, 54, 0
1, 93359, Note_on_c, 9, 70, 0
1, 93359, Note_on_c, 9, 42, 0
1, 93359, Note_on_c, 9, 35, 0
1, 93360, Note_on_c, 9, 54, 70
1, 93360, Note_on_c, 9, 69, 80
1, 93360, Note_on_c, 9, 70, 60
1, 93360, Note_on_c, 9, 42, 70
1, 93360, Note_on_c, 9, 35, 90
1, 93599, Note_on_c, 9, 54, 0
1, 93599, Note_on_c, 9, 69, 0
1, 93599, Note_on_c, 9, 70, 0
1, 93599, Note_on_c, 9, 42, 0
1, 93599, Note_on_c, 9, 35, 0
1, 93600, Note_on_c, 9, 38, 100
1, 93600, Note_on_c, 9, 54, 127
1, 93600, Note_on_c, 9, 70, 100
1, 93600, Note_on_c, 9, 42, 100
1, 93839, Note_on_c, 9, 38, 0
1, 93839, Note_on_c, 9, 54, 0
1, 93839, Note_on_c, 9, 70, 0
1, 93839, Note_on_c, 9, 42, 0
1, 93840, Note_on_c, 9, 54, 90
1, 93840, Note_on_c, 9, 69, 80
1, 93840, Note_on_c, 9, 70, 60
1, 93840, Note_on_c, 9, 42, 70
1, 93840, Note_on_c, 9, 35, 75
1, 94079, Note_on_c, 9, 54, 0
1, 94079, Note_on_c, 9, 69, 0
1, 94079, Note_on_c, 9, 70, 0
1, 94079, Note_on_c, 9, 42, 0
1, 94079, Note_on_c, 9, 35, 0
1, 94080, Note_on_c, 9, 54, 100
1, 94080, Note_on_c, 9, 70, 100
1, 94080, Note_on_c, 9, 42, 90
1, 94080, Note_on_c, 9, 35, 100
1, 94319, Note_on_c, 9, 54, 0
1, 94319, Note_on_c, 9, 70, 0
1, 94319, Note_on_c, 9, 42, 0
1, 94319, Note_on_c, 9, 35, 0
1, 94320, Note_on_c, 9, 54, 70
1, 94320, Note_on_c, 9, 69, 80
1, 94320, Note_on_c, 9, 70, 60
1, 94320, Note_on_c, 9, 42, 70
1, 94320, Note_on_c, 9, 35, 90
1, 94559, Note_on_c, 9, 54, 0
1, 94559, Note_on_c, 9, 69, 0
1, 94559, Note_on_c, 9, 70, 0
1, 94559, Note_on_c, 9, 42, 0
1, 94559, Note_on_c, 9, 35, 0
1, 94560, Note_on_c, 9, 38, 100
1, 94560, Note_on_c, 9, 54, 127
1, 94560, Note_on_c, 9, 70, 100
1, 94560, Note_on_c, 9, 42, 100
1, 94799, Note_on_c, 9, 38, 0
1, 94799, Note_on_c, 9, 54, 0
1, 94799, Note_on_c, 9, 70, 0
1, 94799, Note_on_c, 9, 42, 0
1, 94800, Note_on_c, 9, 54, 90
1, 94800, Note_on_c, 9, 69, 80
1, 94800, Note_on_c, 9, 70, 60
1, 94800, Note_on_c, 9, 42, 70
1, 94800, Note_on_c, 9, 35, 70
1, 95039, Note_on_c, 9, 54, 0
1, 95039, Note_on_c, 9, 69, 0
1, 95039, Note_on_c, 9, 70, 0
1, 95039, Note_on_c, 9, 42, 0
1, 95039, Note_on_c, 9, 35, 0
1, 95040, Note_on_c, 9, 54, 100
1, 95040, Note_on_c, 9, 70, 100
1, 95040, Note_on_c, 9, 42, 90
1, 95040, Note_on_c, 9, 35, 100
1, 95279, Note_on_c, 9, 54, 0
1, 95279, Note_on_c, 9, 70, 0
1, 95279, Note_on_c, 9, 42, 0
1, 95279, Note_on_c, 9, 35, 0
1, 95280, Note_on_c, 9, 54, 70
1, 95280, Note_on_c, 9, 69, 80
1, 95280, Note_on_c, 9, 70, 60
1, 95280, Note_on_c, 9, 42, 70
1, 95280, Note_on_c, 9, 35, 90
1, 95519, Note_on_c, 9, 54, 0
1, 95519, Note_on_c, 9, 69, 0
1, 95519, Note_on_c, 9, 70, 0
1, 95519, Note_on_c, 9, 42, 0
1, 95519, Note_on_c, 9, 35, 0
1, 95520, Note_on_c, 9, 38, 100
1, 95520, Note_on_c, 9, 54, 127
1, 95520, Note_on_c, 9, 70, 100
1, 95520, Note_on_c, 9, 42, 100
1, 95759, Note_on_c, 9, 38, 0
1, 95759, Note_on_c, 9, 54, 0
1, 95759, Note_on_c, 9, 70, 0
1, 95759, Note_on_c, 9, 42, 0
1, 95760, Note_on_c, 9, 54, 90
1, 95760, Note_on_c, 9, 69, 80
1, 95760, Note_on_c, 9, 70, 60
1, 95760, Note_on_c, 9, 42, 70
1, 95760, Note_on_c, 9, 35, 75
1, 95879, Note_on_c, 9, 54, 0
1, 95879, Note_on_c, 9, 69, 0
1, 95879, Note_on_c, 9, 70, 0
1, 95879, Note_on_c, 9, 42, 0
1, 95880, Note_on_c, 9, 46, 100
1, 95999, Note_on_c, 9, 35, 0
1, 95999, Note_on_c, 9, 46, 0
1, 96000, Note_on_c, 9, 54, 100
1, 96000, Note_on_c, 9, 70, 100
1, 96000, Note_on_c, 9, 42, 90
1, 96000, Note_on_c, 9, 35, 100
1, 96239, Note_on_c, 9, 54, 0
1, 96239, Note_on_c, 9, 70, 0
1, 96239, Note_on_c, 9, 42, 0
1, 96239, Note_on_c, 9, 35, 0
1, 96240, Note_on_c, 9, 54, 70
1, 96240, Note_on_c, 9, 69, 80
1, 96240, Note_on_c, 9, 70, 60
1, 96240, Note_on_c, 9, 42, 70
1, 96240, Note_on_c, 9, 35, 90
1, 96479, Note_on_c, 9, 54, 0
1, 96479, Note_on_c, 9, 69, 0
1, 96479, Note_on_c, 9, 70, 0
1, 96479, Note_on_c, 9, 42, 0
1, 96479, Note_on_c, 9, 35, 0
1, 96480, Note_on_c, 9, 38, 100
1, 96480, Note_on_c, 9, 54, 127
1, 96480, Note_on_c, 9, 70, 100
1, 96480, Note_on_c, 9, 42, 100
1, 96719, Note_on_c, 9, 38, 0
1, 96719, Note_on_c, 9, 54, 0
1, 96719, Note_on_c, 9, 70, 0
1, 96719, Note_on_c, 9, 42, 0
1, 96720, Note_on_c, 9, 54, 90
1, 96720, Note_on_c, 9, 69, 80
1, 96720, Note_on_c, 9, 70, 60
1, 96720, Note_on_c, 9, 42, 70
1, 96720, Note_on_c, 9, 35, 70
1, 96959, Note_on_c, 9, 54, 0
1, 96959, Note_on_c, 9, 69, 0
1, 96959, Note_on_c, 9, 70, 0
1, 96959, Note_on_c, 9, 42, 0
1, 96959, Note_on_c, 9, 35, 0
1, 96960, Note_on_c, 9, 54, 100
1, 96960, Note_on_c, 9, 70, 100
1, 96960, Note_on_c, 9, 42, 90
1, 96960, Note_on_c, 9, 35, 100
1, 97199, Note_on_c, 9, 54, 0
1, 97199, Note_on_c, 9, 70, 0
1, 97199, Note_on_c, 9, 42, 0
1, 97199, Note_on_c, 9, 35, 0
1, 97200, Note_on_c, 9, 54, 70
1, 97200, Note_on_c, 9, 69, 80
1, 97200, Note_on_c, 9, 70, 60
1, 97200, Note_on_c, 9, 42, 70
1, 97200, Note_on_c, 9, 35, 90
1, 97439, Note_on_c, 9, 54, 0
1, 97439, Note_on_c, 9, 69, 0
1, 97439, Note_on_c, 9, 70, 0
1, 97439, Note_on_c, 9, 42, 0
1, 97439, Note_on_c, 9, 35, 0
1, 97440, Note_on_c, 9, 38, 100
1, 97440, Note_on_c, 9, 54, 127
1, 97440, Note_on_c, 9, 70, 100
1, 97440, Note_on_c, 9, 42, 100
1, 97679, Note_on_c, 9, 38, 0
1, 97679, Note_on_c, 9, 54, 0
1, 97679, Note_on_c, 9, 70, 0
1, 97679, Note_on_c, 9, 42, 0
1, 97680, Note_on_c, 9, 54, 90
1, 97680, Note_on_c, 9, 69, 80
1, 97680, Note_on_c, 9, 70, 60
1, 97680, Note_on_c, 9, 42, 70
1, 97680, Note_on_c, 9, 35, 75
1, 97919, Note_on_c, 9, 54, 0
1, 97919, Note_on_c, 9, 69, 0
1, 97919, Note_on_c, 9, 70, 0
1, 97919, Note_on_c, 9, 42, 0
1, 97919, Note_on_c, 9, 35, 0
1, 97920, Note_on_c, 9, 38, 100
1, 97920, Note_on_c, 9, 48, 100
1, 98160, Note_on_c, 9, 35, 90
1, 98399, Note_on_c, 9, 38, 0
1, 98399, Note_on_c, 9, 48, 0
1, 98399, Note_on_c, 9, 35, 0
1, 98400, Note_on_c, 9, 35, 100
1, 98640, Note_on_c, 9, 38, 115
1, 98640, Note_on_c, 9, 45, 100
1, 98879, Note_on_c, 9, 35, 0
1, 98879, Note_on_c, 9, 38, 0
1, 98879, Note_on_c, 9, 45, 0
1, 98880, Note_on_c, 9, 35, 90
1, 99119, Note_on_c, 9, 35, 0
1, 99120, Note_on_c, 9, 35, 115
1, 99359, Note_on_c, 9, 35, 0
1, 99360, Note_on_c, 9, 41, 115
1, 99360, Note_on_c, 9, 45, 100
1, 99599, Note_on_c, 9, 41, 0
1, 99599, Note_on_c, 9, 45, 0
1, 99600, Note_on_c, 9, 38, 115
1, 99839, Note_on_c, 9, 38, 0
1, 99840, Note_on_c, 9, 42, 90
1, 99840, Note_on_c, 9, 49, 90
1, 99840, Note_on_c, 9, 35, 90
1, 100319, Note_on_c, 9, 42, 0
1, 100319, Note_on_c, 9, 49, 0
1, 100319, Note_on_c, 9, 35, 0
1, 100320, End_track
2, 0, Start_track
2, 0, Key_signature, 0, "major"
2, 0, Control_c, 9, 121, 0
2, 0, Program_c, 9, 0
2, 0, Control_c, 9, 7, 116
2, 0, Control_c, 9, 10, 64
2, 0, Control_c, 9, 91, 0
2, 0, Control_c, 9, 93, 0
2, 0, MIDI_port, 0
2, 5760, Note_on_c, 9, 54, 114
2, 5999, Note_on_c, 9, 54, 0
2, 6000, Note_on_c, 9, 54, 104
2, 6239, Note_on_c, 9, 54, 0
2, 6240, Note_on_c, 9, 54, 127
2, 6479, Note_on_c, 9, 54, 0
2, 6480, Note_on_c, 9, 54, 106
2, 6719, Note_on_c, 9, 54, 0
2, 6720, Note_on_c, 9, 54, 112
2, 6959, Note_on_c, 9, 54, 0
2, 6960, Note_on_c, 9, 54, 114
2, 7199, Note_on_c, 9, 54, 0
2, 7200, Note_on_c, 9, 54, 127
2, 7439, Note_on_c, 9, 54, 0
2, 7440, Note_on_c, 9, 54, 102
2, 7679, Note_on_c, 9, 54, 0
2, 7680, Note_on_c, 9, 54, 106
2, 7919, Note_on_c, 9, 54, 0
2, 7920, Note_on_c, 9, 54, 98
2, 8159, Note_on_c, 9, 54, 0
2, 8160, Note_on_c, 9, 54, 127
2, 8399, Note_on_c, 9, 54, 0
2, 8400, Note_on_c, 9, 54, 96
2, 8639, Note_on_c, 9, 54, 0
2, 8640, Note_on_c, 9, 54, 116
2, 8879, Note_on_c, 9, 54, 0
2, 8880, Note_on_c, 9, 54, 112
2, 9119, Note_on_c, 9, 54, 0
2, 9120, Note_on_c, 9, 54, 126
2, 9359, Note_on_c, 9, 54, 0
2, 9360, Note_on_c, 9, 54, 108
2, 9599, Note_on_c, 9, 54, 0
2, 9600, Note_on_c, 9, 54, 121
2, 9839, Note_on_c, 9, 54, 0
2, 9840, Note_on_c, 9, 54, 98
2, 10079, Note_on_c, 9, 54, 0
2, 10080, Note_on_c, 9, 54, 126
2, 10319, Note_on_c, 9, 54, 0
2, 10320, Note_on_c, 9, 54, 104
2, 10559, Note_on_c, 9, 54, 0
2, 10560, Note_on_c, 9, 54, 114
2, 10799, Note_on_c, 9, 54, 0
2, 10800, Note_on_c, 9, 54, 108
2, 11039, Note_on_c, 9, 54, 0
2, 11040, Note_on_c, 9, 54, 127
2, 11279, Note_on_c, 9, 54, 0
2, 11280, Note_on_c, 9, 54, 104
2, 11519, Note_on_c, 9, 54, 0
2, 11520, Note_on_c, 9, 54, 116
2, 11759, Note_on_c, 9, 54, 0
2, 11760, Note_on_c, 9, 54, 104
2, 11999, Note_on_c, 9, 54, 0
2, 12000, Note_on_c, 9, 54, 126
2, 12239, Note_on_c, 9, 54, 0
2, 12240, Note_on_c, 9, 54, 104
2, 12479, Note_on_c, 9, 54, 0
2, 12480, Note_on_c, 9, 54, 106
2, 12719, Note_on_c, 9, 54, 0
2, 12720, Note_on_c, 9, 54, 100
2, 12959, Note_on_c, 9, 54, 0
2, 12960, Note_on_c, 9, 54, 127
2, 13199, Note_on_c, 9, 54, 0
2, 13200, Note_on_c, 9, 54, 94
2, 13439, Note_on_c, 9, 54, 0
2, 13440, Note_on_c, 9, 54, 112
2, 13679, Note_on_c, 9, 54, 0
2, 13680, Note_on_c, 9, 54, 108
2, 13919, Note_on_c, 9, 54, 0
2, 13920, Note_on_c, 9, 54, 127
2, 14159, Note_on_c, 9, 54, 0
2, 14160, Note_on_c, 9, 54, 98
2, 14399, Note_on_c, 9, 54, 0
2, 14400, Note_on_c, 9, 54, 116
2, 14639, Note_on_c, 9, 54, 0
2, 14640, Note_on_c, 9, 54, 112
2, 14879, Note_on_c, 9, 54, 0
2, 14880, Note_on_c, 9, 54, 126
2, 15119, Note_on_c, 9, 54, 0
2, 15120, Note_on_c, 9, 54, 87
2, 15359, Note_on_c, 9, 54, 0
2, 15360, Note_on_c, 9, 54, 116
2, 15599, Note_on_c, 9, 54, 0
2, 15600, Note_on_c, 9, 54, 94
2, 15839, Note_on_c, 9, 54, 0
2, 15840, Note_on_c, 9, 54, 126
2, 16079, Note_on_c, 9, 54, 0
2, 16080, Note_on_c, 9, 54, 100
2, 16319, Note_on_c, 9, 54, 0
2, 16320, Note_on_c, 9, 54, 104
2, 16559, Note_on_c, 9, 54, 0
2, 16560, Note_on_c, 9, 54, 102
2, 16799, Note_on_c, 9, 54, 0
2, 16800, Note_on_c, 9, 54, 127
2, 17039, Note_on_c, 9, 54, 0
2, 17040, Note_on_c, 9, 54, 96
2, 17279, Note_on_c, 9, 54, 0
2, 17280, Note_on_c, 9, 54, 112
2, 17519, Note_on_c, 9, 54, 0
2, 17520, Note_on_c, 9, 54, 87
2, 17759, Note_on_c, 9, 54, 0
2, 17760, Note_on_c, 9, 54, 123
2, 17999, Note_on_c, 9, 54, 0
2, 18000, Note_on_c, 9, 54, 87
2, 18239, Note_on_c, 9, 54, 0
2, 18240, Note_on_c, 9, 54, 106
2, 18479, Note_on_c, 9, 54, 0
2, 18480, Note_on_c, 9, 54, 98
2, 18719, Note_on_c, 9, 54, 0
2, 18720, Note_on_c, 9, 54, 127
2, 18959, Note_on_c, 9, 54, 0
2, 18960, Note_on_c, 9, 54, 94
2, 19199, Note_on_c, 9, 54, 0
2, 19200, Note_on_c, 9, 54, 116
2, 19439, Note_on_c, 9, 54, 0
2, 19440, Note_on_c, 9, 54, 102
2, 19679, Note_on_c, 9, 54, 0
2, 19680, Note_on_c, 9, 54, 123
2, 19919, Note_on_c, 9, 54, 0
2, 19920, Note_on_c, 9, 54, 96
2, 20159, Note_on_c, 9, 54, 0
2, 20160, Note_on_c, 9, 54, 110
2, 20399, Note_on_c, 9, 54, 0
2, 20400, Note_on_c, 9, 54, 104
2, 20639, Note_on_c, 9, 54, 0
2, 20640, Note_on_c, 9, 54, 126
2, 20879, Note_on_c, 9, 54, 0
2, 20880, Note_on_c, 9, 54, 92
2, 21119, Note_on_c, 9, 54, 0
2, 21120, Note_on_c, 9, 54, 114
2, 21359, Note_on_c, 9, 54, 0
2, 21360, Note_on_c, 9, 54, 100
2, 21599, Note_on_c, 9, 54, 0
2, 21600, Note_on_c, 9, 54, 126
2, 21839, Note_on_c, 9, 54, 0
2, 21840, Note_on_c, 9, 54, 108
2, 22079, Note_on_c, 9, 54, 0
2, 22080, Note_on_c, 9, 54, 114
2, 22319, Note_on_c, 9, 54, 0
2, 22320, Note_on_c, 9, 54, 100
2, 22559, Note_on_c, 9, 54, 0
2, 22560, Note_on_c, 9, 54, 127
2, 22799, Note_on_c, 9, 54, 0
2, 22800, Note_on_c, 9, 54, 104
2, 23039, Note_on_c, 9, 54, 0
2, 23100, Note_on_c, 9, 54, 118
2, 23279, Note_on_c, 9, 54, 0
2, 23280, Note_on_c, 9, 54, 96
2, 23519, Note_on_c, 9, 54, 0
2, 23520, Note_on_c, 9, 54, 123
2, 23759, Note_on_c, 9, 54, 0
2, 23760, Note_on_c, 9, 54, 100
2, 23999, Note_on_c, 9, 54, 0
2, 24000, Note_on_c, 9, 54, 106
2, 24239, Note_on_c, 9, 54, 0
2, 24240, Note_on_c, 9, 54, 102
2, 24479, Note_on_c, 9, 54, 0
2, 24480, Note_on_c, 9, 54, 123
2, 24719, Note_on_c, 9, 54, 0
2, 24720, Note_on_c, 9, 54, 102
2, 24959, Note_on_c, 9, 54, 0
2, 24960, Note_on_c, 9, 54, 112
2, 25199, Note_on_c, 9, 54, 0
2, 25200, Note_on_c, 9, 54, 110
2, 25439, Note_on_c, 9, 54, 0
2, 25440, Note_on_c, 9, 54, 127
2, 25679, Note_on_c, 9, 54, 0
2, 25680, Note_on_c, 9, 54, 102
2, 25919, Note_on_c, 9, 54, 0
2, 25920, Note_on_c, 9, 54, 108
2, 26159, Note_on_c, 9, 54, 0
2, 26160, Note_on_c, 9, 54, 104
2, 26399, Note_on_c, 9, 54, 0
2, 26400, Note_on_c, 9, 54, 127
2, 26639, Note_on_c, 9, 54, 0
2, 26640, Note_on_c, 9, 54, 106
2, 26879, Note_on_c, 9, 54, 0
2, 26880, Note_on_c, 9, 54, 104
2, 27119, Note_on_c, 9, 54, 0
2, 27120, Note_on_c, 9, 54, 100
2, 27359, Note_on_c, 9, 54, 0
2, 27360, Note_on_c, 9, 54, 127
2, 27599, Note_on_c, 9, 54, 0
2, 27600, Note_on_c, 9, 54, 102
2, 27839, Note_on_c, 9, 54, 0
2, 27840, Note_on_c, 9, 54, 108
2, 28079, Note_on_c, 9, 54, 0
2, 28080, Note_on_c, 9, 54, 100
2, 28319, Note_on_c, 9, 54, 0
2, 28320, Note_on_c, 9, 54, 126
2, 28559, Note_on_c, 9, 54, 0
2, 28560, Note_on_c, 9, 54, 100
2, 28799, Note_on_c, 9, 54, 0
2, 28800, Note_on_c, 9, 54, 108
2, 29039, Note_on_c, 9, 54, 0
2, 29040, Note_on_c, 9, 54, 102
2, 29279, Note_on_c, 9, 54, 0
2, 29280, Note_on_c, 9, 54, 127
2, 29519, Note_on_c, 9, 54, 0
2, 29520, Note_on_c, 9, 54, 89
2, 29759, Note_on_c, 9, 54, 0
2, 29760, Note_on_c, 9, 54, 110
2, 29999, Note_on_c, 9, 54, 0
2, 30000, Note_on_c, 9, 54, 100
2, 30239, Note_on_c, 9, 54, 0
2, 30240, Note_on_c, 9, 54, 123
2, 30479, Note_on_c, 9, 54, 0
2, 30480, Note_on_c, 9, 54, 96
2, 30719, Note_on_c, 9, 54, 0
2, 30720, Note_on_c, 9, 54, 112
2, 30959, Note_on_c, 9, 54, 0
2, 30960, Note_on_c, 9, 54, 92
2, 31199, Note_on_c, 9, 54, 0
2, 31200, Note_on_c, 9, 54, 126
2, 31439, Note_on_c, 9, 54, 0
2, 31440, Note_on_c, 9, 54, 92
2, 31679, Note_on_c, 9, 54, 0
2, 31680, Note_on_c, 9, 54, 108
2, 31919, Note_on_c, 9, 54, 0
2, 31920, Note_on_c, 9, 54, 102
2, 32159, Note_on_c, 9, 54, 0
2, 32160, Note_on_c, 9, 54, 114
2, 32399, Note_on_c, 9, 54, 0
2, 32400, Note_on_c, 9, 54, 102
2, 32579, Note_on_c, 9, 54, 0
2, 32580, Note_on_c, 9, 54, 118
2, 32639, Note_on_c, 9, 54, 0
2, 34620, Note_on_c, 9, 54, 123
2, 34799, Note_on_c, 9, 54, 0
2, 34800, Note_on_c, 9, 54, 104
2, 35039, Note_on_c, 9, 54, 0
2, 35040, Note_on_c, 9, 54, 127
2, 35279, Note_on_c, 9, 54, 0
2, 35280, Note_on_c, 9, 54, 102
2, 35519, Note_on_c, 9, 54, 0
2, 35520, Note_on_c, 9, 54, 116
2, 35759, Note_on_c, 9, 54, 0
2, 35760, Note_on_c, 9, 54, 108
2, 35999, Note_on_c, 9, 54, 0
2, 36000, Note_on_c, 9, 54, 127
2, 36239, Note_on_c, 9, 54, 0
2, 36240, Note_on_c, 9, 54, 100
2, 36479, Note_on_c, 9, 54, 0
2, 36480, Note_on_c, 9, 54, 114
2, 36719, Note_on_c, 9, 54, 0
2, 36720, Note_on_c, 9, 54, 104
2, 36959, Note_on_c, 9, 54, 0
2, 36960, Note_on_c, 9, 54, 126
2, 37199, Note_on_c, 9, 54, 0
2, 37200, Note_on_c, 9, 54, 100
2, 37439, Note_on_c, 9, 54, 0
2, 37440, Note_on_c, 9, 54, 108
2, 37679, Note_on_c, 9, 54, 0
2, 37680, Note_on_c, 9, 54, 110
2, 37919, Note_on_c, 9, 54, 0
2, 37920, Note_on_c, 9, 54, 127
2, 38159, Note_on_c, 9, 54, 0
2, 38160, Note_on_c, 9, 54, 96
2, 38399, Note_on_c, 9, 54, 0
2, 38400, Note_on_c, 9, 54, 121
2, 38639, Note_on_c, 9, 54, 0
2, 38640, Note_on_c, 9, 54, 96
2, 38879, Note_on_c, 9, 54, 0
2, 38880, Note_on_c, 9, 54, 127
2, 39119, Note_on_c, 9, 54, 0
2, 39120, Note_on_c, 9, 54, 106
2, 39359, Note_on_c, 9, 54, 0
2, 39360, Note_on_c, 9, 54, 98
2, 39599, Note_on_c, 9, 54, 0
2, 39600, Note_on_c, 9, 54, 106
2, 39839, Note_on_c, 9, 54, 0
2, 39840, Note_on_c, 9, 54, 127
2, 40079, Note_on_c, 9, 54, 0
2, 40080, Note_on_c, 9, 54, 104
2, 40319, Note_on_c, 9, 54, 0
2, 40320, Note_on_c, 9, 54, 102
2, 40559, Note_on_c, 9, 54, 0
2, 40560, Note_on_c, 9, 54, 104
2, 40799, Note_on_c, 9, 54, 0
2, 40800, Note_on_c, 9, 54, 127
2, 41039, Note_on_c, 9, 54, 0
2, 41040, Note_on_c, 9, 54, 94
2, 41279, Note_on_c, 9, 54, 0
2, 41280, Note_on_c, 9, 54, 104
2, 41519, Note_on_c, 9, 54, 0
2, 41520, Note_on_c, 9, 54, 112
2, 41759, Note_on_c, 9, 54, 0
2, 41760, Note_on_c, 9, 54, 127
2, 41999, Note_on_c, 9, 54, 0
2, 42000, Note_on_c, 9, 54, 96
2, 42239, Note_on_c, 9, 54, 0
2, 42240, Note_on_c, 9, 54, 110
2, 42479, Note_on_c, 9, 54, 0
2, 42480, Note_on_c, 9, 54, 96
2, 42719, Note_on_c, 9, 54, 0
2, 42720, Note_on_c, 9, 54, 127
2, 42959, Note_on_c, 9, 54, 0
2, 42960, Note_on_c, 9, 54, 81
2, 43199, Note_on_c, 9, 54, 0
2, 43200, Note_on_c, 9, 54, 112
2, 43439, Note_on_c, 9, 54, 0
2, 43440, Note_on_c, 9, 54, 91
2, 43679, Note_on_c, 9, 54, 0
2, 43680, Note_on_c, 9, 54, 127
2, 43919, Note_on_c, 9, 54, 0
2, 43920, Note_on_c, 9, 54, 96
2, 44159, Note_on_c, 9, 54, 0
2, 44160, Note_on_c, 9, 54, 104
2, 44399, Note_on_c, 9, 54, 0
2, 44400, Note_on_c, 9, 54, 100
2, 44639, Note_on_c, 9, 54, 0
2, 44640, Note_on_c, 9, 54, 126
2, 44879, Note_on_c, 9, 54, 0
2, 44880, Note_on_c, 9, 54, 86
2, 45119, Note_on_c, 9, 54, 0
2, 45120, Note_on_c, 9, 54, 112
2, 45359, Note_on_c, 9, 54, 0
2, 45360, Note_on_c, 9, 54, 104
2, 45599, Note_on_c, 9, 54, 0
2, 45600, Note_on_c, 9, 54, 126
2, 45839, Note_on_c, 9, 54, 0
2, 45840, Note_on_c, 9, 54, 87
2, 46079, Note_on_c, 9, 54, 0
2, 46080, Note_on_c, 9, 54, 108
2, 46319, Note_on_c, 9, 54, 0
2, 46320, Note_on_c, 9, 54, 102
2, 46559, Note_on_c, 9, 54, 0
2, 46560, Note_on_c, 9, 54, 126
2, 46799, Note_on_c, 9, 54, 0
2, 46800, Note_on_c, 9, 54, 72
2, 47039, Note_on_c, 9, 54, 0
2, 47040, Note_on_c, 9, 54, 114
2, 47279, Note_on_c, 9, 54, 0
2, 47280, Note_on_c, 9, 54, 102
2, 47519, Note_on_c, 9, 54, 0
2, 47580, Note_on_c, 9, 54, 127
2, 47759, Note_on_c, 9, 54, 0
2, 47820, Note_on_c, 9, 54, 66
2, 47999, Note_on_c, 9, 54, 0
2, 48000, Note_on_c, 9, 54, 116
2, 48239, Note_on_c, 9, 54, 0
2, 48240, Note_on_c, 9, 54, 84
2, 48479, Note_on_c, 9, 54, 0
2, 48480, Note_on_c, 9, 54, 123
2, 48719, Note_on_c, 9, 54, 0
2, 48720, Note_on_c, 9, 54, 82
2, 48959, Note_on_c, 9, 54, 0
2, 48960, Note_on_c, 9, 54, 96
2, 49199, Note_on_c, 9, 54, 0
2, 49200, Note_on_c, 9, 54, 98
2, 49439, Note_on_c, 9, 54, 0
2, 49440, Note_on_c, 9, 54, 126
2, 49679, Note_on_c, 9, 54, 0
2, 49680, Note_on_c, 9, 54, 67
2, 49919, Note_on_c, 9, 54, 0
2, 49920, Note_on_c, 9, 54, 106
2, 50099, Note_on_c, 9, 54, 0
2, 50100, Note_on_c, 9, 54, 102
2, 50159, Note_on_c, 9, 54, 0
2, 50400, Note_on_c, 9, 54, 127
2, 50579, Note_on_c, 9, 54, 0
2, 50580, Note_on_c, 9, 54, 106
2, 50819, Note_on_c, 9, 54, 0
2, 50820, Note_on_c, 9, 54, 123
2, 50879, Note_on_c, 9, 54, 0
2, 51120, Note_on_c, 9, 54, 71
2, 51359, Note_on_c, 9, 54, 0
2, 51360, Note_on_c, 9, 54, 127
2, 51599, Note_on_c, 9, 54, 0
2, 51600, Note_on_c, 9, 54, 102
2, 51839, Note_on_c, 9, 54, 0
2, 51900, Note_on_c, 9, 54, 104
2, 52079, Note_on_c, 9, 54, 0
2, 52080, Note_on_c, 9, 54, 75
2, 52319, Note_on_c, 9, 54, 0
2, 52380, Note_on_c, 9, 54, 126
2, 52559, Note_on_c, 9, 54, 0
2, 52560, Note_on_c, 9, 54, 118
2, 52799, Note_on_c, 9, 54, 0
2, 52800, Note_on_c, 9, 54, 87
2, 53039, Note_on_c, 9, 54, 0
2, 53040, Note_on_c, 9, 54, 102
2, 53279, Note_on_c, 9, 54, 0
2, 53280, Note_on_c, 9, 54, 127
2, 53519, Note_on_c, 9, 54, 0
2, 53520, Note_on_c, 9, 54, 100
2, 53759, Note_on_c, 9, 54, 0
2, 53820, Note_on_c, 9, 54, 96
2, 53999, Note_on_c, 9, 54, 0
2, 54000, Note_on_c, 9, 54, 79
2, 54239, Note_on_c, 9, 54, 0
2, 54240, Note_on_c, 9, 54, 126
2, 54299, Note_on_c, 9, 54, 0
2, 54300, Note_on_c, 9, 53, 55
2, 54479, Note_on_c, 9, 53, 0
2, 54480, Note_on_c, 9, 54, 116
2, 54719, Note_on_c, 9, 54, 0
2, 54780, Note_on_c, 9, 54, 59
2, 54959, Note_on_c, 9, 54, 0
2, 54960, Note_on_c, 9, 54, 89
2, 55199, Note_on_c, 9, 54, 0
2, 55200, Note_on_c, 9, 54, 127
2, 55439, Note_on_c, 9, 54, 0
2, 55500, Note_on_c, 9, 54, 89
2, 55679, Note_on_c, 9, 54, 0
2, 55740, Note_on_c, 9, 54, 79
2, 55919, Note_on_c, 9, 54, 0
2, 55920, Note_on_c, 9, 54, 91
2, 56159, Note_on_c, 9, 54, 0
2, 56160, Note_on_c, 9, 54, 126
2, 56399, Note_on_c, 9, 54, 0
2, 56400, Note_on_c, 9, 54, 108
2, 56639, Note_on_c, 9, 54, 0
2, 56640, Note_on_c, 9, 54, 127
2, 57119, Note_on_c, 9, 54, 0
2, 59520, Note_on_c, 9, 54, 116
2, 59759, Note_on_c, 9, 54, 0
2, 59760, Note_on_c, 9, 54, 94
2, 59999, Note_on_c, 9, 54, 0
2, 60000, Note_on_c, 9, 54, 126
2, 60239, Note_on_c, 9, 54, 0
2, 60240, Note_on_c, 9, 54, 102
2, 60479, Note_on_c, 9, 54, 0
2, 60480, Note_on_c, 9, 54, 110
2, 60719, Note_on_c, 9, 54, 0
2, 60720, Note_on_c, 9, 54, 98
2, 60959, Note_on_c, 9, 54, 0
2, 60960, Note_on_c, 9, 54, 126
2, 61199, Note_on_c, 9, 54, 0
2, 61200, Note_on_c, 9, 54, 104
2, 61439, Note_on_c, 9, 54, 0
2, 61440, Note_on_c, 9, 54, 102
2, 61679, Note_on_c, 9, 54, 0
2, 61680, Note_on_c, 9, 54, 100
2, 61919, Note_on_c, 9, 54, 0
2, 61920, Note_on_c, 9, 54, 118
2, 62159, Note_on_c, 9, 54, 0
2, 62160, Note_on_c, 9, 54, 102
2, 62399, Note_on_c, 9, 54, 0
2, 62400, Note_on_c, 9, 54, 96
2, 62639, Note_on_c, 9, 54, 0
2, 62640, Note_on_c, 9, 54, 94
2, 62879, Note_on_c, 9, 54, 0
2, 62880, Note_on_c, 9, 54, 121
2, 63119, Note_on_c, 9, 54, 0
2, 63120, Note_on_c, 9, 54, 98
2, 63359, Note_on_c, 9, 54, 0
2, 63360, Note_on_c, 9, 54, 106
2, 63599, Note_on_c, 9, 54, 0
2, 63600, Note_on_c, 9, 54, 87
2, 63839, Note_on_c, 9, 54, 0
2, 63840, Note_on_c, 9, 54, 121
2, 64079, Note_on_c, 9, 54, 0
2, 64080, Note_on_c, 9, 54, 106
2, 64319, Note_on_c, 9, 54, 0
2, 64320, Note_on_c, 9, 54, 100
2, 64559, Note_on_c, 9, 54, 0
2, 64560, Note_on_c, 9, 54, 104
2, 64799, Note_on_c, 9, 54, 0
2, 64800, Note_on_c, 9, 54, 123
2, 65039, Note_on_c, 9, 54, 0
2, 65100, Note_on_c, 9, 54, 100
2, 65279, Note_on_c, 9, 54, 0
2, 65280, Note_on_c, 9, 54, 108
2, 65519, Note_on_c, 9, 54, 0
2, 65520, Note_on_c, 9, 54, 100
2, 65759, Note_on_c, 9, 54, 0
2, 65820, Note_on_c, 9, 54, 121
2, 65999, Note_on_c, 9, 54, 0
2, 66060, Note_on_c, 9, 54, 91
2, 66239, Note_on_c, 9, 54, 0
2, 66240, Note_on_c, 9, 54, 108
2, 66479, Note_on_c, 9, 54, 0
2, 66480, Note_on_c, 9, 54, 92
2, 66719, Note_on_c, 9, 54, 0
2, 66720, Note_on_c, 9, 54, 121
2, 66959, Note_on_c, 9, 54, 0
2, 67020, Note_on_c, 9, 54, 104
2, 67199, Note_on_c, 9, 54, 0
2, 67260, Note_on_c, 9, 54, 108
2, 67439, Note_on_c, 9, 54, 0
2, 67440, Note_on_c, 9, 54, 104
2, 67679, Note_on_c, 9, 54, 0
2, 67680, Note_on_c, 9, 54, 126
2, 67919, Note_on_c, 9, 54, 0
2, 67920, Note_on_c, 9, 54, 94
2, 68159, Note_on_c, 9, 54, 0
2, 68160, Note_on_c, 9, 54, 106
2, 68399, Note_on_c, 9, 54, 0
2, 68400, Note_on_c, 9, 54, 94
2, 68639, Note_on_c, 9, 54, 0
2, 68640, Note_on_c, 9, 54, 121
2, 68879, Note_on_c, 9, 54, 0
2, 68880, Note_on_c, 9, 54, 100
2, 69119, Note_on_c, 9, 54, 0
2, 69120, Note_on_c, 9, 54, 106
2, 69359, Note_on_c, 9, 54, 0
2, 69360, Note_on_c, 9, 54, 91
2, 69599, Note_on_c, 9, 54, 0
2, 69600, Note_on_c, 9, 54, 123
2, 69839, Note_on_c, 9, 54, 0
2, 69900, Note_on_c, 9, 54, 94
2, 70079, Note_on_c, 9, 54, 0
2, 70080, Note_on_c, 9, 54, 104
2, 70319, Note_on_c, 9, 54, 0
2, 70320, Note_on_c, 9, 54, 96
2, 70559, Note_on_c, 9, 54, 0
2, 70620, Note_on_c, 9, 54, 121
2, 70799, Note_on_c, 9, 54, 0
2, 70860, Note_on_c, 9, 54, 100
2, 71039, Note_on_c, 9, 54, 0
2, 71100, Note_on_c, 9, 54, 114
2, 71279, Note_on_c, 9, 54, 0
2, 71280, Note_on_c, 9, 54, 94
2, 71519, Note_on_c, 9, 54, 0
2, 71520, Note_on_c, 9, 54, 126
2, 71759, Note_on_c, 9, 54, 0
2, 71820, Note_on_c, 9, 54, 91
2, 71999, Note_on_c, 9, 54, 0
2, 72000, Note_on_c, 9, 54, 104
2, 72239, Note_on_c, 9, 54, 0
2, 72240, Note_on_c, 9, 54, 104
2, 72479, Note_on_c, 9, 54, 0
2, 72480, Note_on_c, 9, 54, 121
2, 72719, Note_on_c, 9, 54, 0
2, 72720, Note_on_c, 9, 54, 87
2, 72959, Note_on_c, 9, 54, 0
2, 72960, Note_on_c, 9, 54, 110
2, 73199, Note_on_c, 9, 54, 0
2, 73200, Note_on_c, 9, 54, 108
2, 73439, Note_on_c, 9, 54, 0
2, 73440, Note_on_c, 9, 54, 123
2, 73679, Note_on_c, 9, 54, 0
2, 73680, Note_on_c, 9, 54, 91
2, 73919, Note_on_c, 9, 54, 0
2, 73920, Note_on_c, 9, 54, 102
2, 74159, Note_on_c, 9, 54, 0
2, 74160, Note_on_c, 9, 54, 91
2, 74399, Note_on_c, 9, 54, 0
2, 74400, Note_on_c, 9, 54, 121
2, 74639, Note_on_c, 9, 54, 0
2, 74700, Note_on_c, 9, 54, 100
2, 74879, Note_on_c, 9, 54, 0
2, 74940, Note_on_c, 9, 54, 108
2, 75119, Note_on_c, 9, 54, 0
2, 75120, Note_on_c, 9, 54, 100
2, 75359, Note_on_c, 9, 54, 0
2, 75420, Note_on_c, 9, 54, 126
2, 75599, Note_on_c, 9, 54, 0
2, 75660, Note_on_c, 9, 54, 100
2, 75839, Note_on_c, 9, 54, 0
2, 75840, Note_on_c, 9, 54, 102
2, 76079, Note_on_c, 9, 54, 0
2, 76080, Note_on_c, 9, 54, 100
2, 76319, Note_on_c, 9, 54, 0
2, 76320, Note_on_c, 9, 54, 123
2, 76559, Note_on_c, 9, 54, 0
2, 76560, Note_on_c, 9, 54, 91
2, 76799, Note_on_c, 9, 54, 0
2, 76800, Note_on_c, 9, 54, 106
2, 77039, Note_on_c, 9, 54, 0
2, 77040, Note_on_c, 9, 54, 100
2, 77279, Note_on_c, 9, 54, 0
2, 77280, Note_on_c, 9, 54, 127
2, 77519, Note_on_c, 9, 54, 0
2, 77520, Note_on_c, 9, 54, 106
2, 77759, Note_on_c, 9, 54, 0
2, 77820, Note_on_c, 9, 54, 104
2, 77999, Note_on_c, 9, 54, 0
2, 78000, Note_on_c, 9, 54, 87
2, 78239, Note_on_c, 9, 54, 0
2, 78240, Note_on_c, 9, 54, 126
2, 78479, Note_on_c, 9, 54, 0
2, 78540, Note_on_c, 9, 54, 98
2, 78719, Note_on_c, 9, 54, 0
2, 78780, Note_on_c, 9, 54, 110
2, 78959, Note_on_c, 9, 54, 0
2, 78960, Note_on_c, 9, 54, 106
2, 79199, Note_on_c, 9, 54, 0
2, 79200, Note_on_c, 9, 54, 121
2, 79439, Note_on_c, 9, 54, 0
2, 79440, Note_on_c, 9, 54, 102
2, 79679, Note_on_c, 9, 54, 0
2, 79680, Note_on_c, 9, 54, 106
2, 79919, Note_on_c, 9, 54, 0
2, 79920, Note_on_c, 9, 54, 96
2, 80159, Note_on_c, 9, 54, 0
2, 80160, Note_on_c, 9, 54, 123
2, 80399, Note_on_c, 9, 54, 0
2, 80400, Note_on_c, 9, 54, 96
2, 80639, Note_on_c, 9, 54, 0
2, 80640, Note_on_c, 9, 54, 110
2, 80879, Note_on_c, 9, 54, 0
2, 80880, Note_on_c, 9, 54, 100
2, 81119, Note_on_c, 9, 54, 0
2, 81120, Note_on_c, 9, 54, 114
2, 81359, Note_on_c, 9, 54, 0
2, 81360, Note_on_c, 9, 54, 106
2, 81599, Note_on_c, 9, 54, 0
2, 81600, Note_on_c, 9, 54, 123
2, 82079, Note_on_c, 9, 54, 0
2, 84540, Note_on_c, 9, 54, 116
2, 84719, Note_on_c, 9, 54, 0
2, 84720, Note_on_c, 9, 54, 104
2, 84959, Note_on_c, 9, 54, 0
2, 84960, Note_on_c, 9, 54, 126
2, 85199, Note_on_c, 9, 54, 0
2, 85200, Note_on_c, 9, 54, 94
2, 85439, Note_on_c, 9, 54, 0
2, 85440, Note_on_c, 9, 54, 112
2, 85679, Note_on_c, 9, 54, 0
2, 85680, Note_on_c, 9, 54, 92
2, 85919, Note_on_c, 9, 54, 0
2, 85920, Note_on_c, 9, 54, 126
2, 86159, Note_on_c, 9, 54, 0
2, 86220, Note_on_c, 9, 54, 77
2, 86399, Note_on_c, 9, 54, 0
2, 86460, Note_on_c, 9, 54, 114
2, 86639, Note_on_c, 9, 54, 0
2, 86640, Note_on_c, 9, 54, 94
2, 86879, Note_on_c, 9, 54, 0
2, 86880, Note_on_c, 9, 54, 121
2, 87119, Note_on_c, 9, 54, 0
2, 87120, Note_on_c, 9, 54, 102
2, 87359, Note_on_c, 9, 54, 0
2, 87360, Note_on_c, 9, 54, 108
2, 87599, Note_on_c, 9, 54, 0
2, 87600, Note_on_c, 9, 54, 110
2, 87839, Note_on_c, 9, 54, 0
2, 87900, Note_on_c, 9, 54, 123
2, 88079, Note_on_c, 9, 54, 0
2, 88140, Note_on_c, 9, 54, 98
2, 88319, Note_on_c, 9, 54, 0
2, 88320, Note_on_c, 9, 54, 112
2, 88559, Note_on_c, 9, 54, 0
2, 88560, Note_on_c, 9, 54, 104
2, 88799, Note_on_c, 9, 54, 0
2, 88800, Note_on_c, 9, 54, 126
2, 89039, Note_on_c, 9, 54, 0
2, 89040, Note_on_c, 9, 54, 84
2, 89279, Note_on_c, 9, 54, 0
2, 89280, Note_on_c, 9, 54, 106
2, 89519, Note_on_c, 9, 54, 0
2, 89520, Note_on_c, 9, 54, 106
2, 89759, Note_on_c, 9, 54, 0
2, 89760, Note_on_c, 9, 54, 121
2, 89999, Note_on_c, 9, 54, 0
2, 90000, Note_on_c, 9, 54, 106
2, 90239, Note_on_c, 9, 54, 0
2, 90240, Note_on_c, 9, 54, 110
2, 90479, Note_on_c, 9, 54, 0
2, 90480, Note_on_c, 9, 54, 102
2, 90719, Note_on_c, 9, 54, 0
2, 90720, Note_on_c, 9, 54, 126
2, 90959, Note_on_c, 9, 54, 0
2, 90960, Note_on_c, 9, 54, 92
2, 91199, Note_on_c, 9, 54, 0
2, 91200, Note_on_c, 9, 54, 110
2, 91439, Note_on_c, 9, 54, 0
2, 91440, Note_on_c, 9, 54, 100
2, 91679, Note_on_c, 9, 54, 0
2, 91680, Note_on_c, 9, 54, 123
2, 91919, Note_on_c, 9, 54, 0
2, 91920, Note_on_c, 9, 54, 106
2, 92159, Note_on_c, 9, 54, 0
2, 92220, Note_on_c, 9, 54, 116
2, 92399, Note_on_c, 9, 54, 0
2, 92400, Note_on_c, 9, 54, 102
2, 92639, Note_on_c, 9, 54, 0
2, 92640, Note_on_c, 9, 54, 123
2, 92879, Note_on_c, 9, 54, 0
2, 92880, Note_on_c, 9, 54, 96
2, 93119, Note_on_c, 9, 54, 0
2, 93120, Note_on_c, 9, 54, 112
2, 93359, Note_on_c, 9, 54, 0
2, 93360, Note_on_c, 9, 54, 94
2, 93599, Note_on_c, 9, 54, 0
2, 93600, Note_on_c, 9, 54, 116
2, 93839, Note_on_c, 9, 54, 0
2, 93840, Note_on_c, 9, 54, 100
2, 94079, Note_on_c, 9, 54, 0
2, 94080, Note_on_c, 9, 54, 106
2, 94319, Note_on_c, 9, 54, 0
2, 94320, Note_on_c, 9, 54, 94
2, 94559, Note_on_c, 9, 54, 0
2, 94560, Note_on_c, 9, 54, 123
2, 94799, Note_on_c, 9, 54, 0
2, 94800, Note_on_c, 9, 54, 98
2, 95039, Note_on_c, 9, 54, 0
2, 95040, Note_on_c, 9, 54, 91
2, 95279, Note_on_c, 9, 54, 0
2, 95280, Note_on_c, 9, 54, 106
2, 95519, Note_on_c, 9, 54, 0
2, 95520, Note_on_c, 9, 54, 126
2, 95759, Note_on_c, 9, 54, 0
2, 95760, Note_on_c, 9, 54, 92
2, 95999, Note_on_c, 9, 54, 0
2, 96000, Note_on_c, 9, 54, 108
2, 96239, Note_on_c, 9, 54, 0
2, 96240, Note_on_c, 9, 54, 70
2, 96479, Note_on_c, 9, 54, 0
2, 96480, Note_on_c, 9, 54, 116
2, 96719, Note_on_c, 9, 54, 0
2, 96720, Note_on_c, 9, 54, 100
2, 96959, Note_on_c, 9, 54, 0
2, 96960, Note_on_c, 9, 54, 112
2, 97199, Note_on_c, 9, 54, 0
2, 97200, Note_on_c, 9, 54, 100
2, 97439, Note_on_c, 9, 54, 0
2, 97440, Note_on_c, 9, 54, 118
2, 97679, Note_on_c, 9, 54, 0
2, 97680, Note_on_c, 9, 54, 102
2, 97919, Note_on_c, 9, 54, 0
2, 97920, Note_on_c, 9, 54, 112
2, 98159, Note_on_c, 9, 54, 0
2, 98160, Note_on_c, 9, 54, 102
2, 98399, Note_on_c, 9, 54, 0
2, 98400, Note_on_c, 9, 54, 123
2, 98639, Note_on_c, 9, 54, 0
2, 98640, Note_on_c, 9, 54, 92
2, 98879, Note_on_c, 9, 54, 0
2, 98880, Note_on_c, 9, 54, 116
2, 99119, Note_on_c, 9, 54, 0
2, 99120, Note_on_c, 9, 54, 102
2, 99359, Note_on_c, 9, 54, 0
2, 99420, Note_on_c, 9, 54, 123
2, 99599, Note_on_c, 9, 54, 0
2, 99600, Note_on_c, 9, 54, 94
2, 99839, Note_on_c, 9, 54, 0
2, 99840, Note_on_c, 9, 54, 116
2, 100319, Note_on_c, 9, 54, 0
2, 100320, End_track
0, 0, End_of_file
