0, 0, Header, 1, 3, 480
1, 0, Start_track
1, 0, Time_signature, 4, 2, 24, 8
1, 0, Key_signature, 0, "major"
1, 0, Tempo, 555556
1, 0, Control_c, 9, 121, 0
1, 0, Program_c, 9, 48
1, 0, Control_c, 9, 7, 120
1, 0, Control_c, 9, 10, 64
1, 0, Control_c, 9, 91, 0
1, 0, Control_c, 9, 93, 0
1, 0, MIDI_port, 0
1, 1440, Note_on_c, 9, 63, 110
1, 1919, Note_on_c, 9, 63, 0
1, 3360, Note_on_c, 9, 63, 110
1, 3839, Note_on_c, 9, 63, 0
1, 5280, Note_on_c, 9, 63, 110
1, 5759, Note_on_c, 9, 63, 0
1, 7200, Note_on_c, 9, 63, 110
1, 7679, Note_on_c, 9, 63, 0
1, 9120, Note_on_c, 9, 63, 110
1, 9599, Note_on_c, 9, 63, 0
1, 11040, Note_on_c, 9, 63, 110
1, 11519, Note_on_c, 9, 63, 0
1, 12960, Note_on_c, 9, 63, 110
1, 13439, Note_on_c, 9, 63, 0
1, 14880, Note_on_c, 9, 63, 110
1, 15359, Note_on_c, 9, 63, 0
1, 16800, Note_on_c, 9, 63, 110
1, 17279, Note_on_c, 9, 63, 0
1, 18720, Note_on_c, 9, 63, 110
1, 19199, Note_on_c, 9, 63, 0
1, 20640, Note_on_c, 9, 63, 110
1, 21119, Note_on_c, 9, 63, 0
1, 22560, Note_on_c, 9, 63, 110
1, 23039, Note_on_c, 9, 63, 0
1, 24480, Note_on_c, 9, 63, 110
1, 24959, Note_on_c, 9, 63, 0
1, 26400, Note_on_c, 9, 63, 110
1, 26879, Note_on_c, 9, 63, 0
1, 28320, Note_on_c, 9, 63, 110
1, 28799, Note_on_c, 9, 63, 0
1, 30240, Note_on_c, 9, 63, 110
1, 30719, Note_on_c, 9, 63, 0
1, 32160, Note_on_c, 9, 63, 110
1, 32639, Note_on_c, 9, 63, 0
1, 34080, Note_on_c, 9, 63, 110
1, 34559, Note_on_c, 9, 63, 0
1, 36000, Note_on_c, 9, 63, 110
1, 36479, Note_on_c, 9, 63, 0
1, 37920, Note_on_c, 9, 63, 110
1, 38399, Note_on_c, 9, 63, 0
1, 39840, Note_on_c, 9, 63, 110
1, 40319, Note_on_c, 9, 63, 0
1, 41760, Note_on_c, 9, 63, 110
1, 42239, Note_on_c, 9, 63, 0
1, 43680, Note_on_c, 9, 63, 110
1, 44159, Note_on_c, 9, 63, 0
1, 45600, Note_on_c, 9, 63, 110
1, 46079, Note_on_c, 9, 63, 0
1, 47520, Note_on_c, 9, 63, 110
1, 47999, Note_on_c, 9, 63, 0
1, 49440, Note_on_c, 9, 63, 110
1, 49919, Note_on_c, 9, 63, 0
1, 51360, Note_on_c, 9, 63, 110
1, 51839, Note_on_c, 9, 63, 0
1, 53280, Note_on_c, 9, 63, 110
1, 53759, Note_on_c, 9, 63, 0
1, 55200, Note_on_c, 9, 63, 110
1, 55679, Note_on_c, 9, 63, 0
1, 57120, Note_on_c, 9, 63, 110
1, 57599, Note_on_c, 9, 63, 0
1, 59040, Note_on_c, 9, 63, 110
1, 59519, Note_on_c, 9, 63, 0
1, 60960, Note_on_c, 9, 63, 110
1, 61439, Note_on_c, 9, 63, 0
1, 62880, Note_on_c, 9, 63, 110
1, 63359, Note_on_c, 9, 63, 0
1, 64800, Note_on_c, 9, 63, 110
1, 65279, Note_on_c, 9, 63, 0
1, 66720, Note_on_c, 9, 63, 110
1, 67199, Note_on_c, 9, 63, 0
1, 68640, Note_on_c, 9, 63, 110
1, 69119, Note_on_c, 9, 63, 0
1, 70560, Note_on_c, 9, 63, 110
1, 71039, Note_on_c, 9, 63, 0
1, 72480, Note_on_c, 9, 63, 110
1, 72959, Note_on_c, 9, 63, 0
1, 74400, Note_on_c, 9, 63, 110
1, 74879, Note_on_c, 9, 63, 0
1, 76320, Note_on_c, 9, 63, 110
1, 76799, Note_on_c, 9, 63, 0
1, 78240, Note_on_c, 9, 63, 110
1, 78719, Note_on_c, 9, 63, 0
1, 80160, Note_on_c, 9, 63, 110
1, 80639, Note_on_c, 9, 63, 0
1, 82080, Note_on_c, 9, 63, 110
1, 82559, Note_on_c, 9, 63, 0
1, 84000, Note_on_c, 9, 63, 110
1, 84479, Note_on_c, 9, 63, 0
1, 85920, Note_on_c, 9, 63, 110
1, 86399, Note_on_c, 9, 63, 0
1, 87840, Note_on_c, 9, 63, 110
1, 88319, Note_on_c, 9, 63, 0
1, 89760, Note_on_c, 9, 63, 110
1, 90239, Note_on_c, 9, 63, 0
1, 91680, Note_on_c, 9, 63, 110
1, 92159, Note_on_c, 9, 63, 0
1, 93600, Note_on_c, 9, 63, 110
1, 94079, Note_on_c, 9, 63, 0
1, 95520, Note_on_c, 9, 63, 110
1, 95999, Note_on_c, 9, 63, 0
1, 97440, Note_on_c, 9, 63, 110
1, 97919, Note_on_c, 9, 63, 0
1, 99360, Note_on_c, 9, 63, 110
1, 99839, Note_on_c, 9, 63, 0
1, 101280, Note_on_c, 9, 63, 110
1, 101759, Note_on_c, 9, 63, 0
1, 103200, Note_on_c, 9, 63, 110
1, 103679, Note_on_c, 9, 63, 0
1, 105120, Note_on_c, 9, 63, 110
1, 105599, Note_on_c, 9, 63, 0
1, 107040, Note_on_c, 9, 63, 110
1, 107519, Note_on_c, 9, 63, 0
1, 108960, Note_on_c, 9, 63, 110
1, 109439, Note_on_c, 9, 63, 0
1, 110880, Note_on_c, 9, 63, 110
1, 111359, Note_on_c, 9, 63, 0
1, 112800, Note_on_c, 9, 63, 110
1, 113279, Note_on_c, 9, 63, 0
1, 114720, Note_on_c, 9, 63, 110
1, 115199, Note_on_c, 9, 63, 0
1, 116640, Note_on_c, 9, 63, 110
1, 117119, Note_on_c, 9, 63, 0
1, 118560, Note_on_c, 9, 63, 110
1, 119039, Note_on_c, 9, 63, 0
1, 120480, Note_on_c, 9, 63, 110
1, 120959, Note_on_c, 9, 63, 0
1, 122400, Note_on_c, 9, 63, 110
1, 122879, Note_on_c, 9, 63, 0
1, 124320, Note_on_c, 9, 63, 110
1, 124799, Note_on_c, 9, 63, 0
1, 126240, Note_on_c, 9, 63, 110
1, 126719, Note_on_c, 9, 63, 0
1, 128160, Note_on_c, 9, 63, 110
1, 128639, Note_on_c, 9, 63, 0
1, 130080, Note_on_c, 9, 63, 110
1, 130559, Note_on_c, 9, 63, 0
1, 132000, Note_on_c, 9, 63, 110
1, 132479, Note_on_c, 9, 63, 0
1, 133920, Note_on_c, 9, 63, 110
1, 134399, Note_on_c, 9, 63, 0
1, 135840, Note_on_c, 9, 63, 110
1, 136319, Note_on_c, 9, 63, 0
1, 137760, Note_on_c, 9, 63, 110
1, 138239, Note_on_c, 9, 63, 0
1, 139680, Note_on_c, 9, 63, 110
1, 140159, Note_on_c, 9, 63, 0
1, 141600, Note_on_c, 9, 63, 110
1, 142079, Note_on_c, 9, 63, 0
1, 143520, Note_on_c, 9, 63, 110
1, 143999, Note_on_c, 9, 63, 0
1, 145440, Note_on_c, 9, 63, 110
1, 145919, Note_on_c, 9, 63, 0
1, 147360, Note_on_c, 9, 63, 110
1, 147839, Note_on_c, 9, 63, 0
1, 149280, Note_on_c, 9, 63, 110
1, 149759, Note_on_c, 9, 63, 0
1, 151200, Note_on_c, 9, 63, 110
1, 151679, Note_on_c, 9, 63, 0
1, 153120, Note_on_c, 9, 63, 110
1, 153599, Note_on_c, 9, 63, 0
1, 155040, Note_on_c, 9, 63, 110
1, 155519, Note_on_c, 9, 63, 0
1, 156960, Note_on_c, 9, 63, 110
1, 157439, Note_on_c, 9, 63, 0
1, 158880, Note_on_c, 9, 63, 110
1, 159359, Note_on_c, 9, 63, 0
1, 160800, Note_on_c, 9, 63, 110
1, 161279, Note_on_c, 9, 63, 0
1, 162720, Note_on_c, 9, 63, 110
1, 163199, Note_on_c, 9, 63, 0
1, 164640, Note_on_c, 9, 63, 110
1, 165119, Note_on_c, 9, 63, 0
1, 166560, Note_on_c, 9, 63, 110
1, 167039, Note_on_c, 9, 63, 0
1, 168480, Note_on_c, 9, 63, 110
1, 168959, Note_on_c, 9, 63, 0
1, 170400, Note_on_c, 9, 63, 110
1, 170879, Note_on_c, 9, 63, 0
1, 172320, Note_on_c, 9, 63, 110
1, 172799, Note_on_c, 9, 63, 0
1, 174240, Note_on_c, 9, 63, 110
1, 174719, Note_on_c, 9, 63, 0
1, 176160, Note_on_c, 9, 63, 110
1, 176639, Note_on_c, 9, 63, 0
1, 178080, Note_on_c, 9, 63, 110
1, 178559, Note_on_c, 9, 63, 0
1, 180000, Note_on_c, 9, 63, 110
1, 180479, Note_on_c, 9, 63, 0
1, 181920, Note_on_c, 9, 63, 110
1, 182399, Note_on_c, 9, 63, 0
1, 183840, Note_on_c, 9, 63, 110
1, 184319, Note_on_c, 9, 63, 0
1, 185760, Note_on_c, 9, 63, 110
1, 186239, Note_on_c, 9, 63, 0
1, 187680, Note_on_c, 9, 63, 110
1, 188159, Note_on_c, 9, 63, 0
1, 189600, Note_on_c, 9, 63, 110
1, 190079, Note_on_c, 9, 63, 0
1, 191520, Note_on_c, 9, 63, 110
1, 191999, Note_on_c, 9, 63, 0
1, 193440, Note_on_c, 9, 63, 110
1, 193919, Note_on_c, 9, 63, 0
1, 195360, Note_on_c, 9, 63, 110
1, 195839, Note_on_c, 9, 63, 0
1, 195840, End_track
2, 0, Start_track
2, 0, Key_signature, 0, "major"
2, 0, Control_c, 9, 121, 0
2, 0, Program_c, 9, 48
2, 0, Control_c, 9, 7, 120
2, 0, Control_c, 9, 10, 64
2, 0, Control_c, 9, 91, 0
2, 0, Control_c, 9, 93, 0
2, 0, MIDI_port, 0
2, 0, Note_on_c, 9, 39, 110
2, 0, Note_on_c, 9, 35, 110
2, 479, Note_on_c, 9, 39, 0
2, 479, Note_on_c, 9, 35, 0
2, 480, Note_on_c, 9, 35, 110
2, 959, Note_on_c, 9, 35, 0
2, 960, Note_on_c, 9, 35, 110
2, 1439, Note_on_c, 9, 35, 0
2, 1440, Note_on_c, 9, 35, 110
2, 1919, Note_on_c, 9, 35, 0
2, 1920, Note_on_c, 9, 39, 110
2, 1920, Note_on_c, 9, 35, 110
2, 2399, Note_on_c, 9, 39, 0
2, 2399, Note_on_c, 9, 35, 0
2, 2400, Note_on_c, 9, 35, 110
2, 2879, Note_on_c, 9, 35, 0
2, 2880, Note_on_c, 9, 35, 110
2, 3359, Note_on_c, 9, 35, 0
2, 3360, Note_on_c, 9, 35, 110
2, 3839, Note_on_c, 9, 35, 0
2, 3840, Note_on_c, 9, 39, 110
2, 3840, Note_on_c, 9, 35, 110
2, 4319, Note_on_c, 9, 39, 0
2, 4319, Note_on_c, 9, 35, 0
2, 4320, Note_on_c, 9, 35, 110
2, 4799, Note_on_c, 9, 35, 0
2, 4800, Note_on_c, 9, 35, 110
2, 5279, Note_on_c, 9, 35, 0
2, 5280, Note_on_c, 9, 35, 110
2, 5759, Note_on_c, 9, 35, 0
2, 5760, Note_on_c, 9, 39, 110
2, 5760, Note_on_c, 9, 35, 110
2, 6239, Note_on_c, 9, 39, 0
2, 6239, Note_on_c, 9, 35, 0
2, 6240, Note_on_c, 9, 35, 110
2, 6719, Note_on_c, 9, 35, 0
2, 6720, Note_on_c, 9, 35, 110
2, 7199, Note_on_c, 9, 35, 0
2, 7200, Note_on_c, 9, 35, 110
2, 7679, Note_on_c, 9, 35, 0
2, 7680, Note_on_c, 9, 39, 110
2, 7680, Note_on_c, 9, 35, 110
2, 8159, Note_on_c, 9, 39, 0
2, 8159, Note_on_c, 9, 35, 0
2, 8160, Note_on_c, 9, 35, 110
2, 8639, Note_on_c, 9, 35, 0
2, 8640, Note_on_c, 9, 35, 110
2, 9119, Note_on_c, 9, 35, 0
2, 9120, Note_on_c, 9, 35, 110
2, 9599, Note_on_c, 9, 35, 0
2, 9600, Note_on_c, 9, 39, 110
2, 9600, Note_on_c, 9, 35, 110
2, 10079, Note_on_c, 9, 39, 0
2, 10079, Note_on_c, 9, 35, 0
2, 10080, Note_on_c, 9, 35, 110
2, 10559, Note_on_c, 9, 35, 0
2, 10560, Note_on_c, 9, 35, 110
2, 11039, Note_on_c, 9, 35, 0
2, 11040, Note_on_c, 9, 35, 110
2, 11519, Note_on_c, 9, 35, 0
2, 11520, Note_on_c, 9, 39, 110
2, 11520, Note_on_c, 9, 35, 110
2, 11999, Note_on_c, 9, 39, 0
2, 11999, Note_on_c, 9, 35, 0
2, 12000, Note_on_c, 9, 35, 110
2, 12479, Note_on_c, 9, 35, 0
2, 12480, Note_on_c, 9, 35, 110
2, 12959, Note_on_c, 9, 35, 0
2, 12960, Note_on_c, 9, 35, 110
2, 13439, Note_on_c, 9, 35, 0
2, 13440, Note_on_c, 9, 39, 110
2, 13440, Note_on_c, 9, 35, 110
2, 13919, Note_on_c, 9, 39, 0
2, 13919, Note_on_c, 9, 35, 0
2, 13920, Note_on_c, 9, 35, 110
2, 14399, Note_on_c, 9, 35, 0
2, 14400, Note_on_c, 9, 35, 110
2, 14879, Note_on_c, 9, 35, 0
2, 14880, Note_on_c, 9, 35, 110
2, 15359, Note_on_c, 9, 35, 0
2, 15360, Note_on_c, 9, 39, 110
2, 15360, Note_on_c, 9, 35, 110
2, 15839, Note_on_c, 9, 39, 0
2, 15839, Note_on_c, 9, 35, 0
2, 15840, Note_on_c, 9, 35, 110
2, 16319, Note_on_c, 9, 35, 0
2, 16320, Note_on_c, 9, 35, 110
2, 16799, Note_on_c, 9, 35, 0
2, 16800, Note_on_c, 9, 35, 110
2, 17279, Note_on_c, 9, 35, 0
2, 17280, Note_on_c, 9, 39, 110
2, 17280, Note_on_c, 9, 35, 110
2, 17759, Note_on_c, 9, 39, 0
2, 17759, Note_on_c, 9, 35, 0
2, 17760, Note_on_c, 9, 35, 110
2, 18239, Note_on_c, 9, 35, 0
2, 18240, Note_on_c, 9, 35, 110
2, 18719, Note_on_c, 9, 35, 0
2, 18720, Note_on_c, 9, 35, 110
2, 19199, Note_on_c, 9, 35, 0
2, 19200, Note_on_c, 9, 39, 110
2, 19200, Note_on_c, 9, 35, 110
2, 19679, Note_on_c, 9, 39, 0
2, 19679, Note_on_c, 9, 35, 0
2, 19680, Note_on_c, 9, 35, 110
2, 20159, Note_on_c, 9, 35, 0
2, 20160, Note_on_c, 9, 35, 110
2, 20639, Note_on_c, 9, 35, 0
2, 20640, Note_on_c, 9, 35, 110
2, 21119, Note_on_c, 9, 35, 0
2, 21120, Note_on_c, 9, 39, 110
2, 21120, Note_on_c, 9, 35, 110
2, 21599, Note_on_c, 9, 39, 0
2, 21599, Note_on_c, 9, 35, 0
2, 21600, Note_on_c, 9, 35, 110
2, 22079, Note_on_c, 9, 35, 0
2, 22080, Note_on_c, 9, 35, 110
2, 22559, Note_on_c, 9, 35, 0
2, 22560, Note_on_c, 9, 35, 110
2, 23039, Note_on_c, 9, 35, 0
2, 23040, Note_on_c, 9, 39, 110
2, 23040, Note_on_c, 9, 35, 110
2, 23519, Note_on_c, 9, 39, 0
2, 23519, Note_on_c, 9, 35, 0
2, 23520, Note_on_c, 9, 35, 110
2, 23999, Note_on_c, 9, 35, 0
2, 24000, Note_on_c, 9, 35, 110
2, 24479, Note_on_c, 9, 35, 0
2, 24480, Note_on_c, 9, 35, 110
2, 24959, Note_on_c, 9, 35, 0
2, 24960, Note_on_c, 9, 39, 110
2, 24960, Note_on_c, 9, 35, 110
2, 25439, Note_on_c, 9, 39, 0
2, 25439, Note_on_c, 9, 35, 0
2, 25440, Note_on_c, 9, 35, 110
2, 25919, Note_on_c, 9, 35, 0
2, 25920, Note_on_c, 9, 35, 110
2, 26399, Note_on_c, 9, 35, 0
2, 26400, Note_on_c, 9, 35, 110
2, 26879, Note_on_c, 9, 35, 0
2, 26880, Note_on_c, 9, 39, 110
2, 26880, Note_on_c, 9, 35, 110
2, 27359, Note_on_c, 9, 39, 0
2, 27359, Note_on_c, 9, 35, 0
2, 27360, Note_on_c, 9, 35, 110
2, 27839, Note_on_c, 9, 35, 0
2, 27840, Note_on_c, 9, 35, 110
2, 28319, Note_on_c, 9, 35, 0
2, 28320, Note_on_c, 9, 35, 110
2, 28799, Note_on_c, 9, 35, 0
2, 28800, Note_on_c, 9, 39, 110
2, 28800, Note_on_c, 9, 35, 110
2, 29279, Note_on_c, 9, 39, 0
2, 29279, Note_on_c, 9, 35, 0
2, 29280, Note_on_c, 9, 35, 110
2, 29759, Note_on_c, 9, 35, 0
2, 29760, Note_on_c, 9, 35, 110
2, 30239, Note_on_c, 9, 35, 0
2, 30240, Note_on_c, 9, 35, 110
2, 30719, Note_on_c, 9, 35, 0
2, 30720, Note_on_c, 9, 39, 110
2, 30720, Note_on_c, 9, 35, 110
2, 31199, Note_on_c, 9, 39, 0
2, 31199, Note_on_c, 9, 35, 0
2, 31200, Note_on_c, 9, 35, 110
2, 31679, Note_on_c, 9, 35, 0
2, 31680, Note_on_c, 9, 35, 110
2, 32159, Note_on_c, 9, 35, 0
2, 32160, Note_on_c, 9, 35, 110
2, 32639, Note_on_c, 9, 35, 0
2, 32640, Note_on_c, 9, 39, 110
2, 32640, Note_on_c, 9, 35, 110
2, 33119, Note_on_c, 9, 39, 0
2, 33119, Note_on_c, 9, 35, 0
2, 33120, Note_on_c, 9, 35, 110
2, 33599, Note_on_c, 9, 35, 0
2, 33600, Note_on_c, 9, 35, 110
2, 34079, Note_on_c, 9, 35, 0
2, 34080, Note_on_c, 9, 35, 110
2, 34559, Note_on_c, 9, 35, 0
2, 34560, Note_on_c, 9, 39, 110
2, 34560, Note_on_c, 9, 35, 110
2, 35039, Note_on_c, 9, 39, 0
2, 35039, Note_on_c, 9, 35, 0
2, 35040, Note_on_c, 9, 35, 110
2, 35519, Note_on_c, 9, 35, 0
2, 35520, Note_on_c, 9, 35, 110
2, 35999, Note_on_c, 9, 35, 0
2, 36000, Note_on_c, 9, 35, 110
2, 36479, Note_on_c, 9, 35, 0
2, 36480, Note_on_c, 9, 39, 110
2, 36480, Note_on_c, 9, 35, 110
2, 36959, Note_on_c, 9, 39, 0
2, 36959, Note_on_c, 9, 35, 0
2, 36960, Note_on_c, 9, 35, 110
2, 37439, Note_on_c, 9, 35, 0
2, 37440, Note_on_c, 9, 35, 110
2, 37919, Note_on_c, 9, 35, 0
2, 37920, Note_on_c, 9, 35, 110
2, 38399, Note_on_c, 9, 35, 0
2, 38400, Note_on_c, 9, 39, 110
2, 38400, Note_on_c, 9, 35, 110
2, 38879, Note_on_c, 9, 39, 0
2, 38879, Note_on_c, 9, 35, 0
2, 38880, Note_on_c, 9, 35, 110
2, 39359, Note_on_c, 9, 35, 0
2, 39360, Note_on_c, 9, 35, 110
2, 39839, Note_on_c, 9, 35, 0
2, 39840, Note_on_c, 9, 35, 110
2, 40319, Note_on_c, 9, 35, 0
2, 40320, Note_on_c, 9, 39, 110
2, 40320, Note_on_c, 9, 35, 110
2, 40799, Note_on_c, 9, 39, 0
2, 40799, Note_on_c, 9, 35, 0
2, 40800, Note_on_c, 9, 35, 110
2, 41279, Note_on_c, 9, 35, 0
2, 41280, Note_on_c, 9, 35, 110
2, 41759, Note_on_c, 9, 35, 0
2, 41760, Note_on_c, 9, 35, 110
2, 42239, Note_on_c, 9, 35, 0
2, 42240, Note_on_c, 9, 39, 110
2, 42240, Note_on_c, 9, 35, 110
2, 42719, Note_on_c, 9, 39, 0
2, 42719, Note_on_c, 9, 35, 0
2, 42720, Note_on_c, 9, 35, 110
2, 43199, Note_on_c, 9, 35, 0
2, 43200, Note_on_c, 9, 35, 110
2, 43679, Note_on_c, 9, 35, 0
2, 43680, Note_on_c, 9, 35, 110
2, 44159, Note_on_c, 9, 35, 0
2, 44160, Note_on_c, 9, 39, 110
2, 44160, Note_on_c, 9, 35, 110
2, 44639, Note_on_c, 9, 39, 0
2, 44639, Note_on_c, 9, 35, 0
2, 44640, Note_on_c, 9, 35, 110
2, 45119, Note_on_c, 9, 35, 0
2, 45120, Note_on_c, 9, 35, 110
2, 45599, Note_on_c, 9, 35, 0
2, 45600, Note_on_c, 9, 35, 110
2, 46079, Note_on_c, 9, 35, 0
2, 46080, Note_on_c, 9, 39, 110
2, 46080, Note_on_c, 9, 35, 110
2, 46559, Note_on_c, 9, 39, 0
2, 46559, Note_on_c, 9, 35, 0
2, 46560, Note_on_c, 9, 35, 110
2, 47039, Note_on_c, 9, 35, 0
2, 47040, Note_on_c, 9, 35, 110
2, 47519, Note_on_c, 9, 35, 0
2, 47520, Note_on_c, 9, 35, 110
2, 47999, Note_on_c, 9, 35, 0
2, 48000, Note_on_c, 9, 39, 110
2, 48000, Note_on_c, 9, 35, 110
2, 48479, Note_on_c, 9, 39, 0
2, 48479, Note_on_c, 9, 35, 0
2, 48480, Note_on_c, 9, 35, 110
2, 48959, Note_on_c, 9, 35, 0
2, 48960, Note_on_c, 9, 35, 110
2, 49439, Note_on_c, 9, 35, 0
2, 49440, Note_on_c, 9, 35, 110
2, 49919, Note_on_c, 9, 35, 0
2, 49920, Note_on_c, 9, 39, 110
2, 49920, Note_on_c, 9, 35, 110
2, 50399, Note_on_c, 9, 39, 0
2, 50399, Note_on_c, 9, 35, 0
2, 50400, Note_on_c, 9, 35, 110
2, 50879, Note_on_c, 9, 35, 0
2, 50880, Note_on_c, 9, 35, 110
2, 51359, Note_on_c, 9, 35, 0
2, 51360, Note_on_c, 9, 35, 110
2, 51839, Note_on_c, 9, 35, 0
2, 51840, Note_on_c, 9, 39, 110
2, 51840, Note_on_c, 9, 35, 110
2, 52319, Note_on_c, 9, 39, 0
2, 52319, Note_on_c, 9, 35, 0
2, 52320, Note_on_c, 9, 35, 110
2, 52799, Note_on_c, 9, 35, 0
2, 52800, Note_on_c, 9, 35, 110
2, 53279, Note_on_c, 9, 35, 0
2, 53280, Note_on_c, 9, 35, 110
2, 53759, Note_on_c, 9, 35, 0
2, 53760, Note_on_c, 9, 39, 110
2, 53760, Note_on_c, 9, 35, 110
2, 54239, Note_on_c, 9, 39, 0
2, 54239, Note_on_c, 9, 35, 0
2, 54240, Note_on_c, 9, 35, 110
2, 54719, Note_on_c, 9, 35, 0
2, 54720, Note_on_c, 9, 35, 110
2, 55199, Note_on_c, 9, 35, 0
2, 55200, Note_on_c, 9, 35, 110
2, 55679, Note_on_c, 9, 35, 0
2, 55680, Note_on_c, 9, 39, 110
2, 55680, Note_on_c, 9, 35, 110
2, 56159, Note_on_c, 9, 39, 0
2, 56159, Note_on_c, 9, 35, 0
2, 56160, Note_on_c, 9, 35, 110
2, 56639, Note_on_c, 9, 35, 0
2, 56640, Note_on_c, 9, 35, 110
2, 57119, Note_on_c, 9, 35, 0
2, 57120, Note_on_c, 9, 35, 110
2, 57599, Note_on_c, 9, 35, 0
2, 57600, Note_on_c, 9, 39, 110
2, 57600, Note_on_c, 9, 35, 110
2, 58079, Note_on_c, 9, 39, 0
2, 58079, Note_on_c, 9, 35, 0
2, 58080, Note_on_c, 9, 35, 110
2, 58559, Note_on_c, 9, 35, 0
2, 58560, Note_on_c, 9, 35, 110
2, 59039, Note_on_c, 9, 35, 0
2, 59040, Note_on_c, 9, 35, 110
2, 59519, Note_on_c, 9, 35, 0
2, 59520, Note_on_c, 9, 39, 110
2, 59520, Note_on_c, 9, 35, 110
2, 59999, Note_on_c, 9, 39, 0
2, 59999, Note_on_c, 9, 35, 0
2, 60000, Note_on_c, 9, 35, 110
2, 60479, Note_on_c, 9, 35, 0
2, 60480, Note_on_c, 9, 35, 110
2, 60959, Note_on_c, 9, 35, 0
2, 60960, Note_on_c, 9, 35, 110
2, 61439, Note_on_c, 9, 35, 0
2, 61440, Note_on_c, 9, 39, 110
2, 61440, Note_on_c, 9, 35, 110
2, 61919, Note_on_c, 9, 39, 0
2, 61919, Note_on_c, 9, 35, 0
2, 61920, Note_on_c, 9, 35, 110
2, 62399, Note_on_c, 9, 35, 0
2, 62400, Note_on_c, 9, 35, 110
2, 62879, Note_on_c, 9, 35, 0
2, 62880, Note_on_c, 9, 35, 110
2, 63359, Note_on_c, 9, 35, 0
2, 63360, Note_on_c, 9, 39, 110
2, 63360, Note_on_c, 9, 35, 110
2, 63839, Note_on_c, 9, 39, 0
2, 63839, Note_on_c, 9, 35, 0
2, 63840, Note_on_c, 9, 35, 110
2, 64319, Note_on_c, 9, 35, 0
2, 64320, Note_on_c, 9, 35, 110
2, 64799, Note_on_c, 9, 35, 0
2, 64800, Note_on_c, 9, 35, 110
2, 65279, Note_on_c, 9, 35, 0
2, 65280, Note_on_c, 9, 39, 110
2, 65280, Note_on_c, 9, 35, 110
2, 65759, Note_on_c, 9, 39, 0
2, 65759, Note_on_c, 9, 35, 0
2, 65760, Note_on_c, 9, 35, 110
2, 66239, Note_on_c, 9, 35, 0
2, 66240, Note_on_c, 9, 35, 110
2, 66719, Note_on_c, 9, 35, 0
2, 66720, Note_on_c, 9, 35, 110
2, 67199, Note_on_c, 9, 35, 0
2, 67200, Note_on_c, 9, 39, 110
2, 67200, Note_on_c, 9, 35, 110
2, 67679, Note_on_c, 9, 39, 0
2, 67679, Note_on_c, 9, 35, 0
2, 67680, Note_on_c, 9, 35, 110
2, 68159, Note_on_c, 9, 35, 0
2, 68160, Note_on_c, 9, 35, 110
2, 68639, Note_on_c, 9, 35, 0
2, 68640, Note_on_c, 9, 35, 110
2, 69119, Note_on_c, 9, 35, 0
2, 69120, Note_on_c, 9, 39, 110
2, 69120, Note_on_c, 9, 35, 110
2, 69599, Note_on_c, 9, 39, 0
2, 69599, Note_on_c, 9, 35, 0
2, 69600, Note_on_c, 9, 35, 110
2, 70079, Note_on_c, 9, 35, 0
2, 70080, Note_on_c, 9, 35, 110
2, 70559, Note_on_c, 9, 35, 0
2, 70560, Note_on_c, 9, 35, 110
2, 71039, Note_on_c, 9, 35, 0
2, 71040, Note_on_c, 9, 39, 110
2, 71040, Note_on_c, 9, 35, 110
2, 71519, Note_on_c, 9, 39, 0
2, 71519, Note_on_c, 9, 35, 0
2, 71520, Note_on_c, 9, 35, 110
2, 71999, Note_on_c, 9, 35, 0
2, 72000, Note_on_c, 9, 35, 110
2, 72479, Note_on_c, 9, 35, 0
2, 72480, Note_on_c, 9, 35, 110
2, 72959, Note_on_c, 9, 35, 0
2, 72960, Note_on_c, 9, 39, 110
2, 72960, Note_on_c, 9, 35, 110
2, 73439, Note_on_c, 9, 39, 0
2, 73439, Note_on_c, 9, 35, 0
2, 73440, Note_on_c, 9, 35, 110
2, 73919, Note_on_c, 9, 35, 0
2, 73920, Note_on_c, 9, 35, 110
2, 74399, Note_on_c, 9, 35, 0
2, 74400, Note_on_c, 9, 35, 110
2, 74879, Note_on_c, 9, 35, 0
2, 74880, Note_on_c, 9, 39, 110
2, 74880, Note_on_c, 9, 35, 110
2, 75359, Note_on_c, 9, 39, 0
2, 75359, Note_on_c, 9, 35, 0
2, 75360, Note_on_c, 9, 35, 110
2, 75839, Note_on_c, 9, 35, 0
2, 75840, Note_on_c, 9, 35, 110
2, 76319, Note_on_c, 9, 35, 0
2, 76320, Note_on_c, 9, 35, 110
2, 76799, Note_on_c, 9, 35, 0
2, 76800, Note_on_c, 9, 39, 110
2, 76800, Note_on_c, 9, 35, 110
2, 77279, Note_on_c, 9, 39, 0
2, 77279, Note_on_c, 9, 35, 0
2, 77280, Note_on_c, 9, 35, 110
2, 77759, Note_on_c, 9, 35, 0
2, 77760, Note_on_c, 9, 35, 110
2, 78239, Note_on_c, 9, 35, 0
2, 78240, Note_on_c, 9, 35, 110
2, 78719, Note_on_c, 9, 35, 0
2, 78720, Note_on_c, 9, 39, 110
2, 78720, Note_on_c, 9, 35, 110
2, 79199, Note_on_c, 9, 39, 0
2, 79199, Note_on_c, 9, 35, 0
2, 79200, Note_on_c, 9, 35, 110
2, 79679, Note_on_c, 9, 35, 0
2, 79680, Note_on_c, 9, 35, 110
2, 80159, Note_on_c, 9, 35, 0
2, 80160, Note_on_c, 9, 35, 110
2, 80639, Note_on_c, 9, 35, 0
2, 80640, Note_on_c, 9, 39, 110
2, 80640, Note_on_c, 9, 35, 110
2, 81119, Note_on_c, 9, 39, 0
2, 81119, Note_on_c, 9, 35, 0
2, 81120, Note_on_c, 9, 35, 110
2, 81599, Note_on_c, 9, 35, 0
2, 81600, Note_on_c, 9, 35, 110
2, 82079, Note_on_c, 9, 35, 0
2, 82080, Note_on_c, 9, 35, 110
2, 82559, Note_on_c, 9, 35, 0
2, 82560, Note_on_c, 9, 39, 110
2, 82560, Note_on_c, 9, 35, 110
2, 83039, Note_on_c, 9, 39, 0
2, 83039, Note_on_c, 9, 35, 0
2, 83040, Note_on_c, 9, 35, 110
2, 83519, Note_on_c, 9, 35, 0
2, 83520, Note_on_c, 9, 35, 110
2, 83999, Note_on_c, 9, 35, 0
2, 84000, Note_on_c, 9, 35, 110
2, 84479, Note_on_c, 9, 35, 0
2, 84480, Note_on_c, 9, 39, 110
2, 84480, Note_on_c, 9, 35, 110
2, 84959, Note_on_c, 9, 39, 0
2, 84959, Note_on_c, 9, 35, 0
2, 84960, Note_on_c, 9, 35, 110
2, 85439, Note_on_c, 9, 35, 0
2, 85440, Note_on_c, 9, 35, 110
2, 85919, Note_on_c, 9, 35, 0
2, 85920, Note_on_c, 9, 35, 110
2, 86399, Note_on_c, 9, 35, 0
2, 86400, Note_on_c, 9, 39, 110
2, 86400, Note_on_c, 9, 35, 110
2, 86879, Note_on_c, 9, 39, 0
2, 86879, Note_on_c, 9, 35, 0
2, 86880, Note_on_c, 9, 35, 110
2, 87359, Note_on_c, 9, 35, 0
2, 87360, Note_on_c, 9, 35, 110
2, 87839, Note_on_c, 9, 35, 0
2, 87840, Note_on_c, 9, 35, 110
2, 88319, Note_on_c, 9, 35, 0
2, 88320, Note_on_c, 9, 39, 110
2, 88320, Note_on_c, 9, 35, 110
2, 88799, Note_on_c, 9, 39, 0
2, 88799, Note_on_c, 9, 35, 0
2, 88800, Note_on_c, 9, 35, 110
2, 89279, Note_on_c, 9, 35, 0
2, 89280, Note_on_c, 9, 35, 110
2, 89759, Note_on_c, 9, 35, 0
2, 89760, Note_on_c, 9, 35, 110
2, 90239, Note_on_c, 9, 35, 0
2, 90240, Note_on_c, 9, 39, 110
2, 90240, Note_on_c, 9, 35, 110
2, 90719, Note_on_c, 9, 39, 0
2, 90719, Note_on_c, 9, 35, 0
2, 90720, Note_on_c, 9, 35, 110
2, 91199, Note_on_c, 9, 35, 0
2, 91200, Note_on_c, 9, 35, 110
2, 91679, Note_on_c, 9, 35, 0
2, 91680, Note_on_c, 9, 35, 110
2, 92159, Note_on_c, 9, 35, 0
2, 92160, Note_on_c, 9, 39, 110
2, 92160, Note_on_c, 9, 35, 110
2, 92639, Note_on_c, 9, 39, 0
2, 92639, Note_on_c, 9, 35, 0
2, 92640, Note_on_c, 9, 35, 110
2, 93119, Note_on_c, 9, 35, 0
2, 93120, Note_on_c, 9, 35, 110
2, 93599, Note_on_c, 9, 35, 0
2, 93600, Note_on_c, 9, 35, 110
2, 94079, Note_on_c, 9, 35, 0
2, 94080, Note_on_c, 9, 39, 110
2, 94080, Note_on_c, 9, 35, 110
2, 94559, Note_on_c, 9, 39, 0
2, 94559, Note_on_c, 9, 35, 0
2, 94560, Note_on_c, 9, 35, 110
2, 95039, Note_on_c, 9, 35, 0
2, 95040, Note_on_c, 9, 35, 110
2, 95519, Note_on_c, 9, 35, 0
2, 95520, Note_on_c, 9, 35, 110
2, 95999, Note_on_c, 9, 35, 0
2, 96000, Note_on_c, 9, 39, 110
2, 96000, Note_on_c, 9, 35, 110
2, 96479, Note_on_c, 9, 39, 0
2, 96479, Note_on_c, 9, 35, 0
2, 96480, Note_on_c, 9, 35, 110
2, 96959, Note_on_c, 9, 35, 0
2, 96960, Note_on_c, 9, 35, 110
2, 97439, Note_on_c, 9, 35, 0
2, 97440, Note_on_c, 9, 35, 110
2, 97919, Note_on_c, 9, 35, 0
2, 97920, Note_on_c, 9, 39, 110
2, 97920, Note_on_c, 9, 35, 110
2, 98399, Note_on_c, 9, 39, 0
2, 98399, Note_on_c, 9, 35, 0
2, 98400, Note_on_c, 9, 35, 110
2, 98879, Note_on_c, 9, 35, 0
2, 98880, Note_on_c, 9, 35, 110
2, 99359, Note_on_c, 9, 35, 0
2, 99360, Note_on_c, 9, 35, 110
2, 99839, Note_on_c, 9, 35, 0
2, 99840, Note_on_c, 9, 39, 110
2, 99840, Note_on_c, 9, 35, 110
2, 100319, Note_on_c, 9, 39, 0
2, 100319, Note_on_c, 9, 35, 0
2, 100320, Note_on_c, 9, 35, 110
2, 100799, Note_on_c, 9, 35, 0
2, 100800, Note_on_c, 9, 35, 110
2, 101279, Note_on_c, 9, 35, 0
2, 101280, Note_on_c, 9, 35, 110
2, 101759, Note_on_c, 9, 35, 0
2, 101760, Note_on_c, 9, 39, 110
2, 101760, Note_on_c, 9, 35, 110
2, 102239, Note_on_c, 9, 39, 0
2, 102239, Note_on_c, 9, 35, 0
2, 102240, Note_on_c, 9, 35, 110
2, 102719, Note_on_c, 9, 35, 0
2, 102720, Note_on_c, 9, 35, 110
2, 103199, Note_on_c, 9, 35, 0
2, 103200, Note_on_c, 9, 35, 110
2, 103679, Note_on_c, 9, 35, 0
2, 103680, Note_on_c, 9, 39, 110
2, 103680, Note_on_c, 9, 35, 110
2, 104159, Note_on_c, 9, 39, 0
2, 104159, Note_on_c, 9, 35, 0
2, 104160, Note_on_c, 9, 35, 110
2, 104639, Note_on_c, 9, 35, 0
2, 104640, Note_on_c, 9, 35, 110
2, 105119, Note_on_c, 9, 35, 0
2, 105120, Note_on_c, 9, 35, 110
2, 105599, Note_on_c, 9, 35, 0
2, 105600, Note_on_c, 9, 39, 110
2, 105600, Note_on_c, 9, 35, 110
2, 106079, Note_on_c, 9, 39, 0
2, 106079, Note_on_c, 9, 35, 0
2, 106080, Note_on_c, 9, 35, 110
2, 106559, Note_on_c, 9, 35, 0
2, 106560, Note_on_c, 9, 35, 110
2, 107039, Note_on_c, 9, 35, 0
2, 107040, Note_on_c, 9, 35, 110
2, 107519, Note_on_c, 9, 35, 0
2, 107520, Note_on_c, 9, 39, 110
2, 107520, Note_on_c, 9, 35, 110
2, 107999, Note_on_c, 9, 39, 0
2, 107999, Note_on_c, 9, 35, 0
2, 108000, Note_on_c, 9, 35, 110
2, 108479, Note_on_c, 9, 35, 0
2, 108480, Note_on_c, 9, 35, 110
2, 108959, Note_on_c, 9, 35, 0
2, 108960, Note_on_c, 9, 35, 110
2, 109439, Note_on_c, 9, 35, 0
2, 109440, Note_on_c, 9, 39, 110
2, 109440, Note_on_c, 9, 35, 110
2, 109919, Note_on_c, 9, 39, 0
2, 109919, Note_on_c, 9, 35, 0
2, 109920, Note_on_c, 9, 35, 110
2, 110399, Note_on_c, 9, 35, 0
2, 110400, Note_on_c, 9, 35, 110
2, 110879, Note_on_c, 9, 35, 0
2, 110880, Note_on_c, 9, 35, 110
2, 111359, Note_on_c, 9, 35, 0
2, 111360, Note_on_c, 9, 39, 110
2, 111360, Note_on_c, 9, 35, 110
2, 111839, Note_on_c, 9, 39, 0
2, 111839, Note_on_c, 9, 35, 0
2, 111840, Note_on_c, 9, 35, 110
2, 112319, Note_on_c, 9, 35, 0
2, 112320, Note_on_c, 9, 35, 110
2, 112799, Note_on_c, 9, 35, 0
2, 112800, Note_on_c, 9, 35, 110
2, 113279, Note_on_c, 9, 35, 0
2, 113280, Note_on_c, 9, 39, 110
2, 113280, Note_on_c, 9, 35, 110
2, 113759, Note_on_c, 9, 39, 0
2, 113759, Note_on_c, 9, 35, 0
2, 113760, Note_on_c, 9, 35, 110
2, 114239, Note_on_c, 9, 35, 0
2, 114240, Note_on_c, 9, 35, 110
2, 114719, Note_on_c, 9, 35, 0
2, 114720, Note_on_c, 9, 35, 110
2, 115199, Note_on_c, 9, 35, 0
2, 115200, Note_on_c, 9, 39, 110
2, 115200, Note_on_c, 9, 35, 110
2, 115679, Note_on_c, 9, 39, 0
2, 115679, Note_on_c, 9, 35, 0
2, 115680, Note_on_c, 9, 35, 110
2, 116159, Note_on_c, 9, 35, 0
2, 116160, Note_on_c, 9, 35, 110
2, 116639, Note_on_c, 9, 35, 0
2, 116640, Note_on_c, 9, 35, 110
2, 117119, Note_on_c, 9, 35, 0
2, 117120, Note_on_c, 9, 39, 110
2, 117120, Note_on_c, 9, 35, 110
2, 117599, Note_on_c, 9, 39, 0
2, 117599, Note_on_c, 9, 35, 0
2, 117600, Note_on_c, 9, 35, 110
2, 118079, Note_on_c, 9, 35, 0
2, 118080, Note_on_c, 9, 35, 110
2, 118559, Note_on_c, 9, 35, 0
2, 118560, Note_on_c, 9, 35, 110
2, 119039, Note_on_c, 9, 35, 0
2, 119040, Note_on_c, 9, 39, 110
2, 119040, Note_on_c, 9, 35, 110
2, 119519, Note_on_c, 9, 39, 0
2, 119519, Note_on_c, 9, 35, 0
2, 119520, Note_on_c, 9, 35, 110
2, 119999, Note_on_c, 9, 35, 0
2, 120000, Note_on_c, 9, 35, 110
2, 120479, Note_on_c, 9, 35, 0
2, 120480, Note_on_c, 9, 35, 110
2, 120959, Note_on_c, 9, 35, 0
2, 120960, Note_on_c, 9, 39, 110
2, 120960, Note_on_c, 9, 35, 110
2, 121439, Note_on_c, 9, 39, 0
2, 121439, Note_on_c, 9, 35, 0
2, 121440, Note_on_c, 9, 35, 110
2, 121919, Note_on_c, 9, 35, 0
2, 121920, Note_on_c, 9, 35, 110
2, 122399, Note_on_c, 9, 35, 0
2, 122400, Note_on_c, 9, 35, 110
2, 122879, Note_on_c, 9, 35, 0
2, 122880, Note_on_c, 9, 39, 110
2, 122880, Note_on_c, 9, 35, 110
2, 123359, Note_on_c, 9, 39, 0
2, 123359, Note_on_c, 9, 35, 0
2, 123360, Note_on_c, 9, 35, 110
2, 123839, Note_on_c, 9, 35, 0
2, 123840, Note_on_c, 9, 35, 110
2, 124319, Note_on_c, 9, 35, 0
2, 124320, Note_on_c, 9, 35, 110
2, 124799, Note_on_c, 9, 35, 0
2, 124800, Note_on_c, 9, 39, 110
2, 124800, Note_on_c, 9, 35, 110
2, 125279, Note_on_c, 9, 39, 0
2, 125279, Note_on_c, 9, 35, 0
2, 125280, Note_on_c, 9, 35, 110
2, 125759, Note_on_c, 9, 35, 0
2, 125760, Note_on_c, 9, 35, 110
2, 126239, Note_on_c, 9, 35, 0
2, 126240, Note_on_c, 9, 35, 110
2, 126719, Note_on_c, 9, 35, 0
2, 126720, Note_on_c, 9, 39, 110
2, 126720, Note_on_c, 9, 35, 110
2, 127199, Note_on_c, 9, 39, 0
2, 127199, Note_on_c, 9, 35, 0
2, 127200, Note_on_c, 9, 35, 110
2, 127679, Note_on_c, 9, 35, 0
2, 127680, Note_on_c, 9, 35, 110
2, 128159, Note_on_c, 9, 35, 0
2, 128160, Note_on_c, 9, 35, 110
2, 128639, Note_on_c, 9, 35, 0
2, 128640, Note_on_c, 9, 39, 110
2, 128640, Note_on_c, 9, 35, 110
2, 129119, Note_on_c, 9, 39, 0
2, 129119, Note_on_c, 9, 35, 0
2, 129120, Note_on_c, 9, 35, 110
2, 129599, Note_on_c, 9, 35, 0
2, 129600, Note_on_c, 9, 35, 110
2, 130079, Note_on_c, 9, 35, 0
2, 130080, Note_on_c, 9, 35, 110
2, 130559, Note_on_c, 9, 35, 0
2, 130560, Note_on_c, 9, 39, 110
2, 130560, Note_on_c, 9, 35, 110
2, 131039, Note_on_c, 9, 39, 0
2, 131039, Note_on_c, 9, 35, 0
2, 131040, Note_on_c, 9, 35, 110
2, 131519, Note_on_c, 9, 35, 0
2, 131520, Note_on_c, 9, 35, 110
2, 131999, Note_on_c, 9, 35, 0
2, 132000, Note_on_c, 9, 35, 110
2, 132479, Note_on_c, 9, 35, 0
2, 132480, Note_on_c, 9, 39, 110
2, 132480, Note_on_c, 9, 35, 110
2, 132959, Note_on_c, 9, 39, 0
2, 132959, Note_on_c, 9, 35, 0
2, 132960, Note_on_c, 9, 35, 110
2, 133439, Note_on_c, 9, 35, 0
2, 133440, Note_on_c, 9, 35, 110
2, 133919, Note_on_c, 9, 35, 0
2, 133920, Note_on_c, 9, 35, 110
2, 134399, Note_on_c, 9, 35, 0
2, 134400, Note_on_c, 9, 39, 110
2, 134400, Note_on_c, 9, 35, 110
2, 134879, Note_on_c, 9, 39, 0
2, 134879, Note_on_c, 9, 35, 0
2, 134880, Note_on_c, 9, 35, 110
2, 135359, Note_on_c, 9, 35, 0
2, 135360, Note_on_c, 9, 35, 110
2, 135839, Note_on_c, 9, 35, 0
2, 135840, Note_on_c, 9, 35, 110
2, 136319, Note_on_c, 9, 35, 0
2, 136320, Note_on_c, 9, 39, 110
2, 136320, Note_on_c, 9, 35, 110
2, 136799, Note_on_c, 9, 39, 0
2, 136799, Note_on_c, 9, 35, 0
2, 136800, Note_on_c, 9, 35, 110
2, 137279, Note_on_c, 9, 35, 0
2, 137280, Note_on_c, 9, 35, 110
2, 137759, Note_on_c, 9, 35, 0
2, 137760, Note_on_c, 9, 35, 110
2, 138239, Note_on_c, 9, 35, 0
2, 138240, Note_on_c, 9, 39, 110
2, 138240, Note_on_c, 9, 35, 110
2, 138719, Note_on_c, 9, 39, 0
2, 138719, Note_on_c, 9, 35, 0
2, 138720, Note_on_c, 9, 35, 110
2, 139199, Note_on_c, 9, 35, 0
2, 139200, Note_on_c, 9, 35, 110
2, 139679, Note_on_c, 9, 35, 0
2, 139680, Note_on_c, 9, 35, 110
2, 140159, Note_on_c, 9, 35, 0
2, 140160, Note_on_c, 9, 39, 110
2, 140160, Note_on_c, 9, 35, 110
2, 140639, Note_on_c, 9, 39, 0
2, 140639, Note_on_c, 9, 35, 0
2, 140640, Note_on_c, 9, 35, 110
2, 141119, Note_on_c, 9, 35, 0
2, 141120, Note_on_c, 9, 35, 110
2, 141599, Note_on_c, 9, 35, 0
2, 141600, Note_on_c, 9, 35, 110
2, 142079, Note_on_c, 9, 35, 0
2, 142080, Note_on_c, 9, 39, 110
2, 142080, Note_on_c, 9, 35, 110
2, 142559, Note_on_c, 9, 39, 0
2, 142559, Note_on_c, 9, 35, 0
2, 142560, Note_on_c, 9, 35, 110
2, 143039, Note_on_c, 9, 35, 0
2, 143040, Note_on_c, 9, 35, 110
2, 143519, Note_on_c, 9, 35, 0
2, 143520, Note_on_c, 9, 35, 110
2, 143999, Note_on_c, 9, 35, 0
2, 144000, Note_on_c, 9, 39, 110
2, 144000, Note_on_c, 9, 35, 110
2, 144479, Note_on_c, 9, 39, 0
2, 144479, Note_on_c, 9, 35, 0
2, 144480, Note_on_c, 9, 35, 110
2, 144959, Note_on_c, 9, 35, 0
2, 144960, Note_on_c, 9, 35, 110
2, 145439, Note_on_c, 9, 35, 0
2, 145440, Note_on_c, 9, 35, 110
2, 145919, Note_on_c, 9, 35, 0
2, 145920, Note_on_c, 9, 39, 110
2, 145920, Note_on_c, 9, 35, 110
2, 146399, Note_on_c, 9, 39, 0
2, 146399, Note_on_c, 9, 35, 0
2, 146400, Note_on_c, 9, 35, 110
2, 146879, Note_on_c, 9, 35, 0
2, 146880, Note_on_c, 9, 35, 110
2, 147359, Note_on_c, 9, 35, 0
2, 147360, Note_on_c, 9, 35, 110
2, 147839, Note_on_c, 9, 35, 0
2, 147840, Note_on_c, 9, 39, 110
2, 147840, Note_on_c, 9, 35, 110
2, 148319, Note_on_c, 9, 39, 0
2, 148319, Note_on_c, 9, 35, 0
2, 148320, Note_on_c, 9, 35, 110
2, 148799, Note_on_c, 9, 35, 0
2, 148800, Note_on_c, 9, 35, 110
2, 149279, Note_on_c, 9, 35, 0
2, 149280, Note_on_c, 9, 35, 110
2, 149759, Note_on_c, 9, 35, 0
2, 149760, Note_on_c, 9, 39, 110
2, 149760, Note_on_c, 9, 35, 110
2, 150239, Note_on_c, 9, 39, 0
2, 150239, Note_on_c, 9, 35, 0
2, 150240, Note_on_c, 9, 35, 110
2, 150719, Note_on_c, 9, 35, 0
2, 150720, Note_on_c, 9, 35, 110
2, 151199, Note_on_c, 9, 35, 0
2, 151200, Note_on_c, 9, 35, 110
2, 151679, Note_on_c, 9, 35, 0
2, 151680, Note_on_c, 9, 39, 110
2, 151680, Note_on_c, 9, 35, 110
2, 152159, Note_on_c, 9, 39, 0
2, 152159, Note_on_c, 9, 35, 0
2, 152160, Note_on_c, 9, 35, 110
2, 152639, Note_on_c, 9, 35, 0
2, 152640, Note_on_c, 9, 35, 110
2, 153119, Note_on_c, 9, 35, 0
2, 153120, Note_on_c, 9, 35, 110
2, 153599, Note_on_c, 9, 35, 0
2, 153600, Note_on_c, 9, 39, 110
2, 153600, Note_on_c, 9, 35, 110
2, 154079, Note_on_c, 9, 39, 0
2, 154079, Note_on_c, 9, 35, 0
2, 154080, Note_on_c, 9, 35, 110
2, 154559, Note_on_c, 9, 35, 0
2, 154560, Note_on_c, 9, 35, 110
2, 155039, Note_on_c, 9, 35, 0
2, 155040, Note_on_c, 9, 35, 110
2, 155519, Note_on_c, 9, 35, 0
2, 155520, Note_on_c, 9, 39, 110
2, 155520, Note_on_c, 9, 35, 110
2, 155999, Note_on_c, 9, 39, 0
2, 155999, Note_on_c, 9, 35, 0
2, 156000, Note_on_c, 9, 35, 110
2, 156479, Note_on_c, 9, 35, 0
2, 156480, Note_on_c, 9, 35, 110
2, 156959, Note_on_c, 9, 35, 0
2, 156960, Note_on_c, 9, 35, 110
2, 157439, Note_on_c, 9, 35, 0
2, 157440, Note_on_c, 9, 39, 110
2, 157440, Note_on_c, 9, 35, 110
2, 157919, Note_on_c, 9, 39, 0
2, 157919, Note_on_c, 9, 35, 0
2, 157920, Note_on_c, 9, 35, 110
2, 158399, Note_on_c, 9, 35, 0
2, 158400, Note_on_c, 9, 35, 110
2, 158879, Note_on_c, 9, 35, 0
2, 158880, Note_on_c, 9, 35, 110
2, 159359, Note_on_c, 9, 35, 0
2, 159360, Note_on_c, 9, 39, 110
2, 159360, Note_on_c, 9, 35, 110
2, 159839, Note_on_c, 9, 39, 0
2, 159839, Note_on_c, 9, 35, 0
2, 159840, Note_on_c, 9, 35, 110
2, 160319, Note_on_c, 9, 35, 0
2, 160320, Note_on_c, 9, 35, 110
2, 160799, Note_on_c, 9, 35, 0
2, 160800, Note_on_c, 9, 35, 110
2, 161279, Note_on_c, 9, 35, 0
2, 161280, Note_on_c, 9, 39, 110
2, 161280, Note_on_c, 9, 35, 110
2, 161759, Note_on_c, 9, 39, 0
2, 161759, Note_on_c, 9, 35, 0
2, 161760, Note_on_c, 9, 35, 110
2, 162239, Note_on_c, 9, 35, 0
2, 162240, Note_on_c, 9, 35, 110
2, 162719, Note_on_c, 9, 35, 0
2, 162720, Note_on_c, 9, 35, 110
2, 163199, Note_on_c, 9, 35, 0
2, 163200, Note_on_c, 9, 39, 110
2, 163200, Note_on_c, 9, 35, 110
2, 163679, Note_on_c, 9, 39, 0
2, 163679, Note_on_c, 9, 35, 0
2, 163680, Note_on_c, 9, 35, 110
2, 164159, Note_on_c, 9, 35, 0
2, 164160, Note_on_c, 9, 35, 110
2, 164639, Note_on_c, 9, 35, 0
2, 164640, Note_on_c, 9, 35, 110
2, 165119, Note_on_c, 9, 35, 0
2, 165120, Note_on_c, 9, 39, 110
2, 165120, Note_on_c, 9, 35, 110
2, 165599, Note_on_c, 9, 39, 0
2, 165599, Note_on_c, 9, 35, 0
2, 165600, Note_on_c, 9, 35, 110
2, 166079, Note_on_c, 9, 35, 0
2, 166080, Note_on_c, 9, 35, 110
2, 166559, Note_on_c, 9, 35, 0
2, 166560, Note_on_c, 9, 35, 110
2, 167039, Note_on_c, 9, 35, 0
2, 167040, Note_on_c, 9, 39, 110
2, 167040, Note_on_c, 9, 35, 110
2, 167519, Note_on_c, 9, 39, 0
2, 167519, Note_on_c, 9, 35, 0
2, 167520, Note_on_c, 9, 35, 110
2, 167999, Note_on_c, 9, 35, 0
2, 168000, Note_on_c, 9, 35, 110
2, 168479, Note_on_c, 9, 35, 0
2, 168480, Note_on_c, 9, 35, 110
2, 168959, Note_on_c, 9, 35, 0
2, 168960, Note_on_c, 9, 39, 110
2, 168960, Note_on_c, 9, 35, 110
2, 169439, Note_on_c, 9, 39, 0
2, 169439, Note_on_c, 9, 35, 0
2, 169440, Note_on_c, 9, 35, 110
2, 169919, Note_on_c, 9, 35, 0
2, 169920, Note_on_c, 9, 35, 110
2, 170399, Note_on_c, 9, 35, 0
2, 170400, Note_on_c, 9, 35, 110
2, 170879, Note_on_c, 9, 35, 0
2, 170880, Note_on_c, 9, 39, 110
2, 170880, Note_on_c, 9, 35, 110
2, 171359, Note_on_c, 9, 39, 0
2, 171359, Note_on_c, 9, 35, 0
2, 171360, Note_on_c, 9, 35, 110
2, 171839, Note_on_c, 9, 35, 0
2, 171840, Note_on_c, 9, 35, 110
2, 172319, Note_on_c, 9, 35, 0
2, 172320, Note_on_c, 9, 35, 110
2, 172799, Note_on_c, 9, 35, 0
2, 172800, Note_on_c, 9, 39, 110
2, 172800, Note_on_c, 9, 35, 110
2, 173279, Note_on_c, 9, 39, 0
2, 173279, Note_on_c, 9, 35, 0
2, 173280, Note_on_c, 9, 35, 110
2, 173759, Note_on_c, 9, 35, 0
2, 173760, Note_on_c, 9, 35, 110
2, 174239, Note_on_c, 9, 35, 0
2, 174240, Note_on_c, 9, 35, 110
2, 174719, Note_on_c, 9, 35, 0
2, 174720, Note_on_c, 9, 39, 110
2, 174720, Note_on_c, 9, 35, 110
2, 175199, Note_on_c, 9, 39, 0
2, 175199, Note_on_c, 9, 35, 0
2, 175200, Note_on_c, 9, 35, 110
2, 175679, Note_on_c, 9, 35, 0
2, 175680, Note_on_c, 9, 35, 110
2, 176159, Note_on_c, 9, 35, 0
2, 176160, Note_on_c, 9, 35, 110
2, 176639, Note_on_c, 9, 35, 0
2, 176640, Note_on_c, 9, 39, 110
2, 176640, Note_on_c, 9, 35, 110
2, 177119, Note_on_c, 9, 39, 0
2, 177119, Note_on_c, 9, 35, 0
2, 177120, Note_on_c, 9, 35, 110
2, 177599, Note_on_c, 9, 35, 0
2, 177600, Note_on_c, 9, 35, 110
2, 178079, Note_on_c, 9, 35, 0
2, 178080, Note_on_c, 9, 35, 110
2, 178559, Note_on_c, 9, 35, 0
2, 178560, Note_on_c, 9, 39, 110
2, 178560, Note_on_c, 9, 35, 110
2, 179039, Note_on_c, 9, 39, 0
2, 179039, Note_on_c, 9, 35, 0
2, 179040, Note_on_c, 9, 35, 110
2, 179519, Note_on_c, 9, 35, 0
2, 179520, Note_on_c, 9, 35, 110
2, 179999, Note_on_c, 9, 35, 0
2, 180000, Note_on_c, 9, 35, 110
2, 180479, Note_on_c, 9, 35, 0
2, 180480, Note_on_c, 9, 39, 110
2, 180480, Note_on_c, 9, 35, 110
2, 180959, Note_on_c, 9, 39, 0
2, 180959, Note_on_c, 9, 35, 0
2, 180960, Note_on_c, 9, 35, 110
2, 181439, Note_on_c, 9, 35, 0
2, 181440, Note_on_c, 9, 35, 110
2, 181919, Note_on_c, 9, 35, 0
2, 181920, Note_on_c, 9, 35, 110
2, 182399, Note_on_c, 9, 35, 0
2, 182400, Note_on_c, 9, 39, 110
2, 182400, Note_on_c, 9, 35, 110
2, 182879, Note_on_c, 9, 39, 0
2, 182879, Note_on_c, 9, 35, 0
2, 182880, Note_on_c, 9, 35, 110
2, 183359, Note_on_c, 9, 35, 0
2, 183360, Note_on_c, 9, 35, 110
2, 183839, Note_on_c, 9, 35, 0
2, 183840, Note_on_c, 9, 35, 110
2, 184319, Note_on_c, 9, 35, 0
2, 184320, Note_on_c, 9, 39, 110
2, 184320, Note_on_c, 9, 35, 110
2, 184799, Note_on_c, 9, 39, 0
2, 184799, Note_on_c, 9, 35, 0
2, 184800, Note_on_c, 9, 35, 110
2, 185279, Note_on_c, 9, 35, 0
2, 185280, Note_on_c, 9, 35, 110
2, 185759, Note_on_c, 9, 35, 0
2, 185760, Note_on_c, 9, 35, 110
2, 186239, Note_on_c, 9, 35, 0
2, 186240, Note_on_c, 9, 39, 110
2, 186240, Note_on_c, 9, 35, 110
2, 186719, Note_on_c, 9, 39, 0
2, 186719, Note_on_c, 9, 35, 0
2, 186720, Note_on_c, 9, 35, 110
2, 187199, Note_on_c, 9, 35, 0
2, 187200, Note_on_c, 9, 35, 110
2, 187679, Note_on_c, 9, 35, 0
2, 187680, Note_on_c, 9, 35, 110
2, 188159, Note_on_c, 9, 35, 0
2, 188160, Note_on_c, 9, 39, 110
2, 188160, Note_on_c, 9, 35, 110
2, 188639, Note_on_c, 9, 39, 0
2, 188639, Note_on_c, 9, 35, 0
2, 188640, Note_on_c, 9, 35, 110
2, 189119, Note_on_c, 9, 35, 0
2, 189120, Note_on_c, 9, 35, 110
2, 189599, Note_on_c, 9, 35, 0
2, 189600, Note_on_c, 9, 35, 110
2, 190079, Note_on_c, 9, 35, 0
2, 190080, Note_on_c, 9, 39, 110
2, 190080, Note_on_c, 9, 35, 110
2, 190559, Note_on_c, 9, 39, 0
2, 190559, Note_on_c, 9, 35, 0
2, 190560, Note_on_c, 9, 35, 110
2, 191039, Note_on_c, 9, 35, 0
2, 191040, Note_on_c, 9, 35, 110
2, 191519, Note_on_c, 9, 35, 0
2, 191520, Note_on_c, 9, 35, 110
2, 191999, Note_on_c, 9, 35, 0
2, 192000, Note_on_c, 9, 39, 110
2, 192000, Note_on_c, 9, 35, 110
2, 192479, Note_on_c, 9, 39, 0
2, 192479, Note_on_c, 9, 35, 0
2, 192480, Note_on_c, 9, 35, 110
2, 192959, Note_on_c, 9, 35, 0
2, 192960, Note_on_c, 9, 35, 110
2, 193439, Note_on_c, 9, 35, 0
2, 193440, Note_on_c, 9, 35, 110
2, 193919, Note_on_c, 9, 35, 0
2, 193920, Note_on_c, 9, 39, 110
2, 193920, Note_on_c, 9, 35, 110
2, 194399, Note_on_c, 9, 39, 0
2, 194399, Note_on_c, 9, 35, 0
2, 194400, Note_on_c, 9, 35, 110
2, 194879, Note_on_c, 9, 35, 0
2, 194880, Note_on_c, 9, 35, 110
2, 195359, Note_on_c, 9, 35, 0
2, 195360, Note_on_c, 9, 35, 110
2, 195839, Note_on_c, 9, 35, 0
2, 195840, End_track
3, 0, Start_track
3, 0, Key_signature, 0, "major"
3, 0, Control_c, 9, 121, 0
3, 0, Program_c, 9, 48
3, 0, Control_c, 9, 7, 120
3, 0, Control_c, 9, 10, 64
3, 0, Control_c, 9, 91, 0
3, 0, Control_c, 9, 93, 0
3, 0, MIDI_port, 0
3, 0, Note_on_c, 9, 56, 110
3, 479, Note_on_c, 9, 56, 0
3, 960, Note_on_c, 9, 56, 110
3, 1199, Note_on_c, 9, 56, 0
3, 1200, Note_on_c, 9, 56, 110
3, 1439, Note_on_c, 9, 56, 0
3, 1680, Note_on_c, 9, 56, 110
3, 1799, Note_on_c, 9, 56, 0
3, 1800, Note_on_c, 9, 56, 110
3, 1919, Note_on_c, 9, 56, 0
3, 1920, Note_on_c, 9, 56, 110
3, 2399, Note_on_c, 9, 56, 0
3, 2880, Note_on_c, 9, 56, 110
3, 3119, Note_on_c, 9, 56, 0
3, 3120, Note_on_c, 9, 56, 110
3, 3359, Note_on_c, 9, 56, 0
3, 3600, Note_on_c, 9, 56, 110
3, 3719, Note_on_c, 9, 56, 0
3, 3720, Note_on_c, 9, 56, 110
3, 3839, Note_on_c, 9, 56, 0
3, 3840, Note_on_c, 9, 56, 110
3, 4319, Note_on_c, 9, 56, 0
3, 4800, Note_on_c, 9, 56, 110
3, 5039, Note_on_c, 9, 56, 0
3, 5040, Note_on_c, 9, 56, 110
3, 5279, Note_on_c, 9, 56, 0
3, 5520, Note_on_c, 9, 56, 110
3, 5639, Note_on_c, 9, 56, 0
3, 5640, Note_on_c, 9, 56, 110
3, 5759, Note_on_c, 9, 56, 0
3, 5760, Note_on_c, 9, 56, 110
3, 6239, Note_on_c, 9, 56, 0
3, 6720, Note_on_c, 9, 56, 110
3, 6959, Note_on_c, 9, 56, 0
3, 6960, Note_on_c, 9, 56, 110
3, 7199, Note_on_c, 9, 56, 0
3, 7440, Note_on_c, 9, 56, 110
3, 7559, Note_on_c, 9, 56, 0
3, 7560, Note_on_c, 9, 56, 110
3, 7679, Note_on_c, 9, 56, 0
3, 7680, Note_on_c, 9, 56, 110
3, 8159, Note_on_c, 9, 56, 0
3, 8640, Note_on_c, 9, 56, 110
3, 8879, Note_on_c, 9, 56, 0
3, 8880, Note_on_c, 9, 56, 110
3, 9119, Note_on_c, 9, 56, 0
3, 9360, Note_on_c, 9, 56, 110
3, 9479, Note_on_c, 9, 56, 0
3, 9480, Note_on_c, 9, 56, 110
3, 9599, Note_on_c, 9, 56, 0
3, 9600, Note_on_c, 9, 56, 110
3, 10079, Note_on_c, 9, 56, 0
3, 10560, Note_on_c, 9, 56, 110
3, 10799, Note_on_c, 9, 56, 0
3, 10800, Note_on_c, 9, 56, 110
3, 11039, Note_on_c, 9, 56, 0
3, 11280, Note_on_c, 9, 56, 110
3, 11399, Note_on_c, 9, 56, 0
3, 11400, Note_on_c, 9, 56, 110
3, 11519, Note_on_c, 9, 56, 0
3, 11520, Note_on_c, 9, 56, 110
3, 11999, Note_on_c, 9, 56, 0
3, 12480, Note_on_c, 9, 56, 110
3, 12719, Note_on_c, 9, 56, 0
3, 12720, Note_on_c, 9, 56, 110
3, 12959, Note_on_c, 9, 56, 0
3, 13200, Note_on_c, 9, 56, 110
3, 13319, Note_on_c, 9, 56, 0
3, 13320, Note_on_c, 9, 56, 110
3, 13439, Note_on_c, 9, 56, 0
3, 13440, Note_on_c, 9, 56, 110
3, 13919, Note_on_c, 9, 56, 0
3, 14400, Note_on_c, 9, 56, 110
3, 14639, Note_on_c, 9, 56, 0
3, 14640, Note_on_c, 9, 56, 110
3, 14879, Note_on_c, 9, 56, 0
3, 15120, Note_on_c, 9, 56, 110
3, 15239, Note_on_c, 9, 56, 0
3, 15240, Note_on_c, 9, 56, 110
3, 15359, Note_on_c, 9, 56, 0
3, 15360, Note_on_c, 9, 56, 110
3, 15839, Note_on_c, 9, 56, 0
3, 16320, Note_on_c, 9, 56, 110
3, 16559, Note_on_c, 9, 56, 0
3, 16560, Note_on_c, 9, 56, 110
3, 16799, Note_on_c, 9, 56, 0
3, 17040, Note_on_c, 9, 56, 110
3, 17159, Note_on_c, 9, 56, 0
3, 17160, Note_on_c, 9, 56, 110
3, 17279, Note_on_c, 9, 56, 0
3, 17280, Note_on_c, 9, 56, 110
3, 17759, Note_on_c, 9, 56, 0
3, 18240, Note_on_c, 9, 56, 110
3, 18479, Note_on_c, 9, 56, 0
3, 18480, Note_on_c, 9, 56, 110
3, 18719, Note_on_c, 9, 56, 0
3, 18960, Note_on_c, 9, 56, 110
3, 19079, Note_on_c, 9, 56, 0
3, 19080, Note_on_c, 9, 56, 110
3, 19199, Note_on_c, 9, 56, 0
3, 19200, Note_on_c, 9, 56, 110
3, 19679, Note_on_c, 9, 56, 0
3, 20160, Note_on_c, 9, 56, 110
3, 20399, Note_on_c, 9, 56, 0
3, 20400, Note_on_c, 9, 56, 110
3, 20639, Note_on_c, 9, 56, 0
3, 20880, Note_on_c, 9, 56, 110
3, 20999, Note_on_c, 9, 56, 0
3, 21000, Note_on_c, 9, 56, 110
3, 21119, Note_on_c, 9, 56, 0
3, 21120, Note_on_c, 9, 56, 110
3, 21599, Note_on_c, 9, 56, 0
3, 22080, Note_on_c, 9, 56, 110
3, 22319, Note_on_c, 9, 56, 0
3, 22320, Note_on_c, 9, 56, 110
3, 22559, Note_on_c, 9, 56, 0
3, 22800, Note_on_c, 9, 56, 110
3, 22919, Note_on_c, 9, 56, 0
3, 22920, Note_on_c, 9, 56, 110
3, 23039, Note_on_c, 9, 56, 0
3, 23040, Note_on_c, 9, 56, 110
3, 23519, Note_on_c, 9, 56, 0
3, 24000, Note_on_c, 9, 56, 110
3, 24239, Note_on_c, 9, 56, 0
3, 24240, Note_on_c, 9, 56, 110
3, 24479, Note_on_c, 9, 56, 0
3, 24720, Note_on_c, 9, 56, 110
3, 24839, Note_on_c, 9, 56, 0
3, 24840, Note_on_c, 9, 56, 110
3, 24959, Note_on_c, 9, 56, 0
3, 24960, Note_on_c, 9, 56, 110
3, 25439, Note_on_c, 9, 56, 0
3, 25920, Note_on_c, 9, 56, 110
3, 26159, Note_on_c, 9, 56, 0
3, 26160, Note_on_c, 9, 56, 110
3, 26399, Note_on_c, 9, 56, 0
3, 26640, Note_on_c, 9, 56, 110
3, 26759, Note_on_c, 9, 56, 0
3, 26760, Note_on_c, 9, 56, 110
3, 26879, Note_on_c, 9, 56, 0
3, 26880, Note_on_c, 9, 56, 110
3, 27359, Note_on_c, 9, 56, 0
3, 27840, Note_on_c, 9, 56, 110
3, 28079, Note_on_c, 9, 56, 0
3, 28080, Note_on_c, 9, 56, 110
3, 28319, Note_on_c, 9, 56, 0
3, 28560, Note_on_c, 9, 56, 110
3, 28679, Note_on_c, 9, 56, 0
3, 28680, Note_on_c, 9, 56, 110
3, 28799, Note_on_c, 9, 56, 0
3, 28800, Note_on_c, 9, 56, 110
3, 29279, Note_on_c, 9, 56, 0
3, 29760, Note_on_c, 9, 56, 110
3, 29999, Note_on_c, 9, 56, 0
3, 30000, Note_on_c, 9, 56, 110
3, 30239, Note_on_c, 9, 56, 0
3, 30480, Note_on_c, 9, 56, 110
3, 30599, Note_on_c, 9, 56, 0
3, 30600, Note_on_c, 9, 56, 110
3, 30719, Note_on_c, 9, 56, 0
3, 30720, Note_on_c, 9, 56, 110
3, 31199, Note_on_c, 9, 56, 0
3, 31680, Note_on_c, 9, 56, 110
3, 31919, Note_on_c, 9, 56, 0
3, 31920, Note_on_c, 9, 56, 110
3, 32159, Note_on_c, 9, 56, 0
3, 32400, Note_on_c, 9, 56, 110
3, 32519, Note_on_c, 9, 56, 0
3, 32520, Note_on_c, 9, 56, 110
3, 32639, Note_on_c, 9, 56, 0
3, 32640, Note_on_c, 9, 56, 110
3, 33119, Note_on_c, 9, 56, 0
3, 33600, Note_on_c, 9, 56, 110
3, 33839, Note_on_c, 9, 56, 0
3, 33840, Note_on_c, 9, 56, 110
3, 34079, Note_on_c, 9, 56, 0
3, 34320, Note_on_c, 9, 56, 110
3, 34439, Note_on_c, 9, 56, 0
3, 34440, Note_on_c, 9, 56, 110
3, 34559, Note_on_c, 9, 56, 0
3, 34560, Note_on_c, 9, 56, 110
3, 35039, Note_on_c, 9, 56, 0
3, 35520, Note_on_c, 9, 56, 110
3, 35759, Note_on_c, 9, 56, 0
3, 35760, Note_on_c, 9, 56, 110
3, 35999, Note_on_c, 9, 56, 0
3, 36240, Note_on_c, 9, 56, 110
3, 36359, Note_on_c, 9, 56, 0
3, 36360, Note_on_c, 9, 56, 110
3, 36479, Note_on_c, 9, 56, 0
3, 36480, Note_on_c, 9, 56, 110
3, 36959, Note_on_c, 9, 56, 0
3, 37440, Note_on_c, 9, 56, 110
3, 37679, Note_on_c, 9, 56, 0
3, 37680, Note_on_c, 9, 56, 110
3, 37919, Note_on_c, 9, 56, 0
3, 38160, Note_on_c, 9, 56, 110
3, 38279, Note_on_c, 9, 56, 0
3, 38280, Note_on_c, 9, 56, 110
3, 38399, Note_on_c, 9, 56, 0
3, 38400, Note_on_c, 9, 56, 110
3, 38879, Note_on_c, 9, 56, 0
3, 39360, Note_on_c, 9, 56, 110
3, 39599, Note_on_c, 9, 56, 0
3, 39600, Note_on_c, 9, 56, 110
3, 39839, Note_on_c, 9, 56, 0
3, 40080, Note_on_c, 9, 56, 110
3, 40199, Note_on_c, 9, 56, 0
3, 40200, Note_on_c, 9, 56, 110
3, 40319, Note_on_c, 9, 56, 0
3, 40320, Note_on_c, 9, 56, 110
3, 40799, Note_on_c, 9, 56, 0
3, 41280, Note_on_c, 9, 56, 110
3, 41519, Note_on_c, 9, 56, 0
3, 41520, Note_on_c, 9, 56, 110
3, 41759, Note_on_c, 9, 56, 0
3, 42000, Note_on_c, 9, 56, 110
3, 42119, Note_on_c, 9, 56, 0
3, 42120, Note_on_c, 9, 56, 110
3, 42239, Note_on_c, 9, 56, 0
3, 42240, Note_on_c, 9, 56, 110
3, 42719, Note_on_c, 9, 56, 0
3, 43200, Note_on_c, 9, 56, 110
3, 43439, Note_on_c, 9, 56, 0
3, 43440, Note_on_c, 9, 56, 110
3, 43679, Note_on_c, 9, 56, 0
3, 43920, Note_on_c, 9, 56, 110
3, 44039, Note_on_c, 9, 56, 0
3, 44040, Note_on_c, 9, 56, 110
3, 44159, Note_on_c, 9, 56, 0
3, 44160, Note_on_c, 9, 56, 110
3, 44639, Note_on_c, 9, 56, 0
3, 45120, Note_on_c, 9, 56, 110
3, 45359, Note_on_c, 9, 56, 0
3, 45360, Note_on_c, 9, 56, 110
3, 45599, Note_on_c, 9, 56, 0
3, 45840, Note_on_c, 9, 56, 110
3, 45959, Note_on_c, 9, 56, 0
3, 45960, Note_on_c, 9, 56, 110
3, 46079, Note_on_c, 9, 56, 0
3, 46080, Note_on_c, 9, 56, 110
3, 46559, Note_on_c, 9, 56, 0
3, 47040, Note_on_c, 9, 56, 110
3, 47279, Note_on_c, 9, 56, 0
3, 47280, Note_on_c, 9, 56, 110
3, 47519, Note_on_c, 9, 56, 0
3, 47760, Note_on_c, 9, 56, 110
3, 47879, Note_on_c, 9, 56, 0
3, 47880, Note_on_c, 9, 56, 110
3, 47999, Note_on_c, 9, 56, 0
3, 48000, Note_on_c, 9, 56, 110
3, 48479, Note_on_c, 9, 56, 0
3, 48960, Note_on_c, 9, 56, 110
3, 49199, Note_on_c, 9, 56, 0
3, 49200, Note_on_c, 9, 56, 110
3, 49439, Note_on_c, 9, 56, 0
3, 49680, Note_on_c, 9, 56, 110
3, 49799, Note_on_c, 9, 56, 0
3, 49800, Note_on_c, 9, 56, 110
3, 49919, Note_on_c, 9, 56, 0
3, 49920, Note_on_c, 9, 56, 110
3, 50399, Note_on_c, 9, 56, 0
3, 50880, Note_on_c, 9, 56, 110
3, 51119, Note_on_c, 9, 56, 0
3, 51120, Note_on_c, 9, 56, 110
3, 51359, Note_on_c, 9, 56, 0
3, 51600, Note_on_c, 9, 56, 110
3, 51719, Note_on_c, 9, 56, 0
3, 51720, Note_on_c, 9, 56, 110
3, 51839, Note_on_c, 9, 56, 0
3, 51840, Note_on_c, 9, 56, 110
3, 52319, Note_on_c, 9, 56, 0
3, 52800, Note_on_c, 9, 56, 110
3, 53039, Note_on_c, 9, 56, 0
3, 53040, Note_on_c, 9, 56, 110
3, 53279, Note_on_c, 9, 56, 0
3, 53520, Note_on_c, 9, 56, 110
3, 53639, Note_on_c, 9, 56, 0
3, 53640, Note_on_c, 9, 56, 110
3, 53759, Note_on_c, 9, 56, 0
3, 53760, Note_on_c, 9, 56, 110
3, 54239, Note_on_c, 9, 56, 0
3, 54720, Note_on_c, 9, 56, 110
3, 54959, Note_on_c, 9, 56, 0
3, 54960, Note_on_c, 9, 56, 110
3, 55199, Note_on_c, 9, 56, 0
3, 55440, Note_on_c, 9, 56, 110
3, 55559, Note_on_c, 9, 56, 0
3, 55560, Note_on_c, 9, 56, 110
3, 55679, Note_on_c, 9, 56, 0
3, 55680, Note_on_c, 9, 56, 110
3, 56159, Note_on_c, 9, 56, 0
3, 56640, Note_on_c, 9, 56, 110
3, 56879, Note_on_c, 9, 56, 0
3, 56880, Note_on_c, 9, 56, 110
3, 57119, Note_on_c, 9, 56, 0
3, 57360, Note_on_c, 9, 56, 110
3, 57479, Note_on_c, 9, 56, 0
3, 57480, Note_on_c, 9, 56, 110
3, 57599, Note_on_c, 9, 56, 0
3, 57600, Note_on_c, 9, 56, 110
3, 58079, Note_on_c, 9, 56, 0
3, 58560, Note_on_c, 9, 56, 110
3, 58799, Note_on_c, 9, 56, 0
3, 58800, Note_on_c, 9, 56, 110
3, 59039, Note_on_c, 9, 56, 0
3, 59280, Note_on_c, 9, 56, 110
3, 59399, Note_on_c, 9, 56, 0
3, 59400, Note_on_c, 9, 56, 110
3, 59519, Note_on_c, 9, 56, 0
3, 59520, Note_on_c, 9, 56, 110
3, 59999, Note_on_c, 9, 56, 0
3, 60480, Note_on_c, 9, 56, 110
3, 60719, Note_on_c, 9, 56, 0
3, 60720, Note_on_c, 9, 56, 110
3, 60959, Note_on_c, 9, 56, 0
3, 61200, Note_on_c, 9, 56, 110
3, 61319, Note_on_c, 9, 56, 0
3, 61320, Note_on_c, 9, 56, 110
3, 61439, Note_on_c, 9, 56, 0
3, 61440, Note_on_c, 9, 56, 110
3, 61919, Note_on_c, 9, 56, 0
3, 62400, Note_on_c, 9, 56, 110
3, 62639, Note_on_c, 9, 56, 0
3, 62640, Note_on_c, 9, 56, 110
3, 62879, Note_on_c, 9, 56, 0
3, 63120, Note_on_c, 9, 56, 110
3, 63239, Note_on_c, 9, 56, 0
3, 63240, Note_on_c, 9, 56, 110
3, 63359, Note_on_c, 9, 56, 0
3, 63360, Note_on_c, 9, 56, 110
3, 63839, Note_on_c, 9, 56, 0
3, 64320, Note_on_c, 9, 56, 110
3, 64559, Note_on_c, 9, 56, 0
3, 64560, Note_on_c, 9, 56, 110
3, 64799, Note_on_c, 9, 56, 0
3, 65040, Note_on_c, 9, 56, 110
3, 65159, Note_on_c, 9, 56, 0
3, 65160, Note_on_c, 9, 56, 110
3, 65279, Note_on_c, 9, 56, 0
3, 65280, Note_on_c, 9, 56, 110
3, 65759, Note_on_c, 9, 56, 0
3, 66240, Note_on_c, 9, 56, 110
3, 66479, Note_on_c, 9, 56, 0
3, 66480, Note_on_c, 9, 56, 110
3, 66719, Note_on_c, 9, 56, 0
3, 66960, Note_on_c, 9, 56, 110
3, 67079, Note_on_c, 9, 56, 0
3, 67080, Note_on_c, 9, 56, 110
3, 67199, Note_on_c, 9, 56, 0
3, 67200, Note_on_c, 9, 56, 110
3, 67679, Note_on_c, 9, 56, 0
3, 68160, Note_on_c, 9, 56, 110
3, 68399, Note_on_c, 9, 56, 0
3, 68400, Note_on_c, 9, 56, 110
3, 68639, Note_on_c, 9, 56, 0
3, 68880, Note_on_c, 9, 56, 110
3, 68999, Note_on_c, 9, 56, 0
3, 69000, Note_on_c, 9, 56, 110
3, 69119, Note_on_c, 9, 56, 0
3, 69120, Note_on_c, 9, 56, 110
3, 69599, Note_on_c, 9, 56, 0
3, 70080, Note_on_c, 9, 56, 110
3, 70319, Note_on_c, 9, 56, 0
3, 70320, Note_on_c, 9, 56, 110
3, 70559, Note_on_c, 9, 56, 0
3, 70800, Note_on_c, 9, 56, 110
3, 70919, Note_on_c, 9, 56, 0
3, 70920, Note_on_c, 9, 56, 110
3, 71039, Note_on_c, 9, 56, 0
3, 71040, Note_on_c, 9, 56, 110
3, 71519, Note_on_c, 9, 56, 0
3, 72000, Note_on_c, 9, 56, 110
3, 72239, Note_on_c, 9, 56, 0
3, 72240, Note_on_c, 9, 56, 110
3, 72479, Note_on_c, 9, 56, 0
3, 72720, Note_on_c, 9, 56, 110
3, 72839, Note_on_c, 9, 56, 0
3, 72840, Note_on_c, 9, 56, 110
3, 72959, Note_on_c, 9, 56, 0
3, 72960, Note_on_c, 9, 56, 110
3, 73439, Note_on_c, 9, 56, 0
3, 73920, Note_on_c, 9, 56, 110
3, 74159, Note_on_c, 9, 56, 0
3, 74160, Note_on_c, 9, 56, 110
3, 74399, Note_on_c, 9, 56, 0
3, 74640, Note_on_c, 9, 56, 110
3, 74759, Note_on_c, 9, 56, 0
3, 74760, Note_on_c, 9, 56, 110
3, 74879, Note_on_c, 9, 56, 0
3, 74880, Note_on_c, 9, 56, 110
3, 75359, Note_on_c, 9, 56, 0
3, 75840, Note_on_c, 9, 56, 110
3, 76079, Note_on_c, 9, 56, 0
3, 76080, Note_on_c, 9, 56, 110
3, 76319, Note_on_c, 9, 56, 0
3, 76560, Note_on_c, 9, 56, 110
3, 76679, Note_on_c, 9, 56, 0
3, 76680, Note_on_c, 9, 56, 110
3, 76799, Note_on_c, 9, 56, 0
3, 76800, Note_on_c, 9, 56, 110
3, 77279, Note_on_c, 9, 56, 0
3, 77760, Note_on_c, 9, 56, 110
3, 77999, Note_on_c, 9, 56, 0
3, 78000, Note_on_c, 9, 56, 110
3, 78239, Note_on_c, 9, 56, 0
3, 78480, Note_on_c, 9, 56, 110
3, 78599, Note_on_c, 9, 56, 0
3, 78600, Note_on_c, 9, 56, 110
3, 78719, Note_on_c, 9, 56, 0
3, 78720, Note_on_c, 9, 56, 110
3, 79199, Note_on_c, 9, 56, 0
3, 79680, Note_on_c, 9, 56, 110
3, 79919, Note_on_c, 9, 56, 0
3, 79920, Note_on_c, 9, 56, 110
3, 80159, Note_on_c, 9, 56, 0
3, 80400, Note_on_c, 9, 56, 110
3, 80519, Note_on_c, 9, 56, 0
3, 80520, Note_on_c, 9, 56, 110
3, 80639, Note_on_c, 9, 56, 0
3, 80640, Note_on_c, 9, 56, 110
3, 81119, Note_on_c, 9, 56, 0
3, 81600, Note_on_c, 9, 56, 110
3, 81839, Note_on_c, 9, 56, 0
3, 81840, Note_on_c, 9, 56, 110
3, 82079, Note_on_c, 9, 56, 0
3, 82320, Note_on_c, 9, 56, 110
3, 82439, Note_on_c, 9, 56, 0
3, 82440, Note_on_c, 9, 56, 110
3, 82559, Note_on_c, 9, 56, 0
3, 82560, Note_on_c, 9, 56, 110
3, 83039, Note_on_c, 9, 56, 0
3, 83520, Note_on_c, 9, 56, 110
3, 83759, Note_on_c, 9, 56, 0
3, 83760, Note_on_c, 9, 56, 110
3, 83999, Note_on_c, 9, 56, 0
3, 84240, Note_on_c, 9, 56, 110
3, 84359, Note_on_c, 9, 56, 0
3, 84360, Note_on_c, 9, 56, 110
3, 84479, Note_on_c, 9, 56, 0
3, 84480, Note_on_c, 9, 56, 110
3, 84959, Note_on_c, 9, 56, 0
3, 85440, Note_on_c, 9, 56, 110
3, 85679, Note_on_c, 9, 56, 0
3, 85680, Note_on_c, 9, 56, 110
3, 85919, Note_on_c, 9, 56, 0
3, 86160, Note_on_c, 9, 56, 110
3, 86279, Note_on_c, 9, 56, 0
3, 86280, Note_on_c, 9, 56, 110
3, 86399, Note_on_c, 9, 56, 0
3, 86400, Note_on_c, 9, 56, 110
3, 86879, Note_on_c, 9, 56, 0
3, 87360, Note_on_c, 9, 56, 110
3, 87599, Note_on_c, 9, 56, 0
3, 87600, Note_on_c, 9, 56, 110
3, 87839, Note_on_c, 9, 56, 0
3, 88080, Note_on_c, 9, 56, 110
3, 88199, Note_on_c, 9, 56, 0
3, 88200, Note_on_c, 9, 56, 110
3, 88319, Note_on_c, 9, 56, 0
3, 88320, Note_on_c, 9, 56, 110
3, 88799, Note_on_c, 9, 56, 0
3, 89280, Note_on_c, 9, 56, 110
3, 89519, Note_on_c, 9, 56, 0
3, 89520, Note_on_c, 9, 56, 110
3, 89759, Note_on_c, 9, 56, 0
3, 90000, Note_on_c, 9, 56, 110
3, 90119, Note_on_c, 9, 56, 0
3, 90120, Note_on_c, 9, 56, 110
3, 90239, Note_on_c, 9, 56, 0
3, 90240, Note_on_c, 9, 56, 110
3, 90719, Note_on_c, 9, 56, 0
3, 91200, Note_on_c, 9, 56, 110
3, 91439, Note_on_c, 9, 56, 0
3, 91440, Note_on_c, 9, 56, 110
3, 91679, Note_on_c, 9, 56, 0
3, 91920, Note_on_c, 9, 56, 110
3, 92039, Note_on_c, 9, 56, 0
3, 92040, Note_on_c, 9, 56, 110
3, 92159, Note_on_c, 9, 56, 0
3, 92160, Note_on_c, 9, 56, 110
3, 92639, Note_on_c, 9, 56, 0
3, 93120, Note_on_c, 9, 56, 110
3, 93359, Note_on_c, 9, 56, 0
3, 93360, Note_on_c, 9, 56, 110
3, 93599, Note_on_c, 9, 56, 0
3, 93840, Note_on_c, 9, 56, 110
3, 93959, Note_on_c, 9, 56, 0
3, 93960, Note_on_c, 9, 56, 110
3, 94079, Note_on_c, 9, 56, 0
3, 94080, Note_on_c, 9, 56, 110
3, 94559, Note_on_c, 9, 56, 0
3, 95040, Note_on_c, 9, 56, 110
3, 95279, Note_on_c, 9, 56, 0
3, 95280, Note_on_c, 9, 56, 110
3, 95519, Note_on_c, 9, 56, 0
3, 95760, Note_on_c, 9, 56, 110
3, 95879, Note_on_c, 9, 56, 0
3, 95880, Note_on_c, 9, 56, 110
3, 95999, Note_on_c, 9, 56, 0
3, 96000, Note_on_c, 9, 56, 110
3, 96479, Note_on_c, 9, 56, 0
3, 96960, Note_on_c, 9, 56, 110
3, 97199, Note_on_c, 9, 56, 0
3, 97200, Note_on_c, 9, 56, 110
3, 97439, Note_on_c, 9, 56, 0
3, 97680, Note_on_c, 9, 56, 110
3, 97799, Note_on_c, 9, 56, 0
3, 97800, Note_on_c, 9, 56, 110
3, 97919, Note_on_c, 9, 56, 0
3, 97920, Note_on_c, 9, 56, 110
3, 98399, Note_on_c, 9, 56, 0
3, 98880, Note_on_c, 9, 56, 110
3, 99119, Note_on_c, 9, 56, 0
3, 99120, Note_on_c, 9, 56, 110
3, 99359, Note_on_c, 9, 56, 0
3, 99600, Note_on_c, 9, 56, 110
3, 99719, Note_on_c, 9, 56, 0
3, 99720, Note_on_c, 9, 56, 110
3, 99839, Note_on_c, 9, 56, 0
3, 99840, Note_on_c, 9, 56, 110
3, 100319, Note_on_c, 9, 56, 0
3, 100800, Note_on_c, 9, 56, 110
3, 101039, Note_on_c, 9, 56, 0
3, 101040, Note_on_c, 9, 56, 110
3, 101279, Note_on_c, 9, 56, 0
3, 101520, Note_on_c, 9, 56, 110
3, 101639, Note_on_c, 9, 56, 0
3, 101640, Note_on_c, 9, 56, 110
3, 101759, Note_on_c, 9, 56, 0
3, 101760, Note_on_c, 9, 56, 110
3, 102239, Note_on_c, 9, 56, 0
3, 102720, Note_on_c, 9, 56, 110
3, 102959, Note_on_c, 9, 56, 0
3, 102960, Note_on_c, 9, 56, 110
3, 103199, Note_on_c, 9, 56, 0
3, 103440, Note_on_c, 9, 56, 110
3, 103559, Note_on_c, 9, 56, 0
3, 103560, Note_on_c, 9, 56, 110
3, 103679, Note_on_c, 9, 56, 0
3, 103680, Note_on_c, 9, 56, 110
3, 104159, Note_on_c, 9, 56, 0
3, 104640, Note_on_c, 9, 56, 110
3, 104879, Note_on_c, 9, 56, 0
3, 104880, Note_on_c, 9, 56, 110
3, 105119, Note_on_c, 9, 56, 0
3, 105360, Note_on_c, 9, 56, 110
3, 105479, Note_on_c, 9, 56, 0
3, 105480, Note_on_c, 9, 56, 110
3, 105599, Note_on_c, 9, 56, 0
3, 105600, Note_on_c, 9, 56, 110
3, 106079, Note_on_c, 9, 56, 0
3, 106560, Note_on_c, 9, 56, 110
3, 106799, Note_on_c, 9, 56, 0
3, 106800, Note_on_c, 9, 56, 110
3, 107039, Note_on_c, 9, 56, 0
3, 107280, Note_on_c, 9, 56, 110
3, 107399, Note_on_c, 9, 56, 0
3, 107400, Note_on_c, 9, 56, 110
3, 107519, Note_on_c, 9, 56, 0
3, 107520, Note_on_c, 9, 56, 110
3, 107999, Note_on_c, 9, 56, 0
3, 108480, Note_on_c, 9, 56, 110
3, 108719, Note_on_c, 9, 56, 0
3, 108720, Note_on_c, 9, 56, 110
3, 108959, Note_on_c, 9, 56, 0
3, 109200, Note_on_c, 9, 56, 110
3, 109319, Note_on_c, 9, 56, 0
3, 109320, Note_on_c, 9, 56, 110
3, 109439, Note_on_c, 9, 56, 0
3, 109440, Note_on_c, 9, 56, 110
3, 109919, Note_on_c, 9, 56, 0
3, 110400, Note_on_c, 9, 56, 110
3, 110639, Note_on_c, 9, 56, 0
3, 110640, Note_on_c, 9, 56, 110
3, 110879, Note_on_c, 9, 56, 0
3, 111120, Note_on_c, 9, 56, 110
3, 111239, Note_on_c, 9, 56, 0
3, 111240, Note_on_c, 9, 56, 110
3, 111359, Note_on_c, 9, 56, 0
3, 111360, Note_on_c, 9, 56, 110
3, 111839, Note_on_c, 9, 56, 0
3, 112320, Note_on_c, 9, 56, 110
3, 112559, Note_on_c, 9, 56, 0
3, 112560, Note_on_c, 9, 56, 110
3, 112799, Note_on_c, 9, 56, 0
3, 113040, Note_on_c, 9, 56, 110
3, 113159, Note_on_c, 9, 56, 0
3, 113160, Note_on_c, 9, 56, 110
3, 113279, Note_on_c, 9, 56, 0
3, 113280, Note_on_c, 9, 56, 110
3, 113759, Note_on_c, 9, 56, 0
3, 114240, Note_on_c, 9, 56, 110
3, 114479, Note_on_c, 9, 56, 0
3, 114480, Note_on_c, 9, 56, 110
3, 114719, Note_on_c, 9, 56, 0
3, 114960, Note_on_c, 9, 56, 110
3, 115079, Note_on_c, 9, 56, 0
3, 115080, Note_on_c, 9, 56, 110
3, 115199, Note_on_c, 9, 56, 0
3, 115200, Note_on_c, 9, 56, 110
3, 115679, Note_on_c, 9, 56, 0
3, 116160, Note_on_c, 9, 56, 110
3, 116399, Note_on_c, 9, 56, 0
3, 116400, Note_on_c, 9, 56, 110
3, 116639, Note_on_c, 9, 56, 0
3, 116880, Note_on_c, 9, 56, 110
3, 116999, Note_on_c, 9, 56, 0
3, 117000, Note_on_c, 9, 56, 110
3, 117119, Note_on_c, 9, 56, 0
3, 117120, Note_on_c, 9, 56, 110
3, 117599, Note_on_c, 9, 56, 0
3, 118080, Note_on_c, 9, 56, 110
3, 118319, Note_on_c, 9, 56, 0
3, 118320, Note_on_c, 9, 56, 110
3, 118559, Note_on_c, 9, 56, 0
3, 118800, Note_on_c, 9, 56, 110
3, 118919, Note_on_c, 9, 56, 0
3, 118920, Note_on_c, 9, 56, 110
3, 119039, Note_on_c, 9, 56, 0
3, 119040, Note_on_c, 9, 56, 110
3, 119519, Note_on_c, 9, 56, 0
3, 120000, Note_on_c, 9, 56, 110
3, 120239, Note_on_c, 9, 56, 0
3, 120240, Note_on_c, 9, 56, 110
3, 120479, Note_on_c, 9, 56, 0
3, 120720, Note_on_c, 9, 56, 110
3, 120839, Note_on_c, 9, 56, 0
3, 120840, Note_on_c, 9, 56, 110
3, 120959, Note_on_c, 9, 56, 0
3, 120960, Note_on_c, 9, 56, 110
3, 121439, Note_on_c, 9, 56, 0
3, 121920, Note_on_c, 9, 56, 110
3, 122159, Note_on_c, 9, 56, 0
3, 122160, Note_on_c, 9, 56, 110
3, 122399, Note_on_c, 9, 56, 0
3, 122640, Note_on_c, 9, 56, 110
3, 122759, Note_on_c, 9, 56, 0
3, 122760, Note_on_c, 9, 56, 110
3, 122879, Note_on_c, 9, 56, 0
3, 122880, Note_on_c, 9, 56, 110
3, 123359, Note_on_c, 9, 56, 0
3, 123840, Note_on_c, 9, 56, 110
3, 124079, Note_on_c, 9, 56, 0
3, 124080, Note_on_c, 9, 56, 110
3, 124319, Note_on_c, 9, 56, 0
3, 124560, Note_on_c, 9, 56, 110
3, 124679, Note_on_c, 9, 56, 0
3, 124680, Note_on_c, 9, 56, 110
3, 124799, Note_on_c, 9, 56, 0
3, 124800, Note_on_c, 9, 56, 110
3, 125279, Note_on_c, 9, 56, 0
3, 125760, Note_on_c, 9, 56, 110
3, 125999, Note_on_c, 9, 56, 0
3, 126000, Note_on_c, 9, 56, 110
3, 126239, Note_on_c, 9, 56, 0
3, 126480, Note_on_c, 9, 56, 110
3, 126599, Note_on_c, 9, 56, 0
3, 126600, Note_on_c, 9, 56, 110
3, 126719, Note_on_c, 9, 56, 0
3, 126720, Note_on_c, 9, 56, 110
3, 127199, Note_on_c, 9, 56, 0
3, 127680, Note_on_c, 9, 56, 110
3, 127919, Note_on_c, 9, 56, 0
3, 127920, Note_on_c, 9, 56, 110
3, 128159, Note_on_c, 9, 56, 0
3, 128400, Note_on_c, 9, 56, 110
3, 128519, Note_on_c, 9, 56, 0
3, 128520, Note_on_c, 9, 56, 110
3, 128639, Note_on_c, 9, 56, 0
3, 128640, Note_on_c, 9, 56, 110
3, 129119, Note_on_c, 9, 56, 0
3, 129600, Note_on_c, 9, 56, 110
3, 129839, Note_on_c, 9, 56, 0
3, 129840, Note_on_c, 9, 56, 110
3, 130079, Note_on_c, 9, 56, 0
3, 130320, Note_on_c, 9, 56, 110
3, 130439, Note_on_c, 9, 56, 0
3, 130440, Note_on_c, 9, 56, 110
3, 130559, Note_on_c, 9, 56, 0
3, 130560, Note_on_c, 9, 56, 110
3, 131039, Note_on_c, 9, 56, 0
3, 131520, Note_on_c, 9, 56, 110
3, 131759, Note_on_c, 9, 56, 0
3, 131760, Note_on_c, 9, 56, 110
3, 131999, Note_on_c, 9, 56, 0
3, 132240, Note_on_c, 9, 56, 110
3, 132359, Note_on_c, 9, 56, 0
3, 132360, Note_on_c, 9, 56, 110
3, 132479, Note_on_c, 9, 56, 0
3, 132480, Note_on_c, 9, 56, 110
3, 132959, Note_on_c, 9, 56, 0
3, 133440, Note_on_c, 9, 56, 110
3, 133679, Note_on_c, 9, 56, 0
3, 133680, Note_on_c, 9, 56, 110
3, 133919, Note_on_c, 9, 56, 0
3, 134160, Note_on_c, 9, 56, 110
3, 134279, Note_on_c, 9, 56, 0
3, 134280, Note_on_c, 9, 56, 110
3, 134399, Note_on_c, 9, 56, 0
3, 134400, Note_on_c, 9, 56, 110
3, 134879, Note_on_c, 9, 56, 0
3, 135360, Note_on_c, 9, 56, 110
3, 135599, Note_on_c, 9, 56, 0
3, 135600, Note_on_c, 9, 56, 110
3, 135839, Note_on_c, 9, 56, 0
3, 136080, Note_on_c, 9, 56, 110
3, 136199, Note_on_c, 9, 56, 0
3, 136200, Note_on_c, 9, 56, 110
3, 136319, Note_on_c, 9, 56, 0
3, 136320, Note_on_c, 9, 56, 110
3, 136799, Note_on_c, 9, 56, 0
3, 137280, Note_on_c, 9, 56, 110
3, 137519, Note_on_c, 9, 56, 0
3, 137520, Note_on_c, 9, 56, 110
3, 137759, Note_on_c, 9, 56, 0
3, 138000, Note_on_c, 9, 56, 110
3, 138119, Note_on_c, 9, 56, 0
3, 138120, Note_on_c, 9, 56, 110
3, 138239, Note_on_c, 9, 56, 0
3, 138240, Note_on_c, 9, 56, 110
3, 138719, Note_on_c, 9, 56, 0
3, 139200, Note_on_c, 9, 56, 110
3, 139439, Note_on_c, 9, 56, 0
3, 139440, Note_on_c, 9, 56, 110
3, 139679, Note_on_c, 9, 56, 0
3, 139920, Note_on_c, 9, 56, 110
3, 140039, Note_on_c, 9, 56, 0
3, 140040, Note_on_c, 9, 56, 110
3, 140159, Note_on_c, 9, 56, 0
3, 140160, Note_on_c, 9, 56, 110
3, 140639, Note_on_c, 9, 56, 0
3, 141120, Note_on_c, 9, 56, 110
3, 141359, Note_on_c, 9, 56, 0
3, 141360, Note_on_c, 9, 56, 110
3, 141599, Note_on_c, 9, 56, 0
3, 141840, Note_on_c, 9, 56, 110
3, 141959, Note_on_c, 9, 56, 0
3, 141960, Note_on_c, 9, 56, 110
3, 142079, Note_on_c, 9, 56, 0
3, 142080, Note_on_c, 9, 56, 110
3, 142559, Note_on_c, 9, 56, 0
3, 143040, Note_on_c, 9, 56, 110
3, 143279, Note_on_c, 9, 56, 0
3, 143280, Note_on_c, 9, 56, 110
3, 143519, Note_on_c, 9, 56, 0
3, 143760, Note_on_c, 9, 56, 110
3, 143879, Note_on_c, 9, 56, 0
3, 143880, Note_on_c, 9, 56, 110
3, 143999, Note_on_c, 9, 56, 0
3, 144000, Note_on_c, 9, 56, 110
3, 144479, Note_on_c, 9, 56, 0
3, 144960, Note_on_c, 9, 56, 110
3, 145199, Note_on_c, 9, 56, 0
3, 145200, Note_on_c, 9, 56, 110
3, 145439, Note_on_c, 9, 56, 0
3, 145680, Note_on_c, 9, 56, 110
3, 145799, Note_on_c, 9, 56, 0
3, 145800, Note_on_c, 9, 56, 110
3, 145919, Note_on_c, 9, 56, 0
3, 145920, Note_on_c, 9, 56, 110
3, 146399, Note_on_c, 9, 56, 0
3, 146880, Note_on_c, 9, 56, 110
3, 147119, Note_on_c, 9, 56, 0
3, 147120, Note_on_c, 9, 56, 110
3, 147359, Note_on_c, 9, 56, 0
3, 147600, Note_on_c, 9, 56, 110
3, 147719, Note_on_c, 9, 56, 0
3, 147720, Note_on_c, 9, 56, 110
3, 147839, Note_on_c, 9, 56, 0
3, 147840, Note_on_c, 9, 56, 110
3, 148319, Note_on_c, 9, 56, 0
3, 148800, Note_on_c, 9, 56, 110
3, 149039, Note_on_c, 9, 56, 0
3, 149040, Note_on_c, 9, 56, 110
3, 149279, Note_on_c, 9, 56, 0
3, 149520, Note_on_c, 9, 56, 110
3, 149639, Note_on_c, 9, 56, 0
3, 149640, Note_on_c, 9, 56, 110
3, 149759, Note_on_c, 9, 56, 0
3, 149760, Note_on_c, 9, 56, 110
3, 150239, Note_on_c, 9, 56, 0
3, 150720, Note_on_c, 9, 56, 110
3, 150959, Note_on_c, 9, 56, 0
3, 150960, Note_on_c, 9, 56, 110
3, 151199, Note_on_c, 9, 56, 0
3, 151440, Note_on_c, 9, 56, 110
3, 151559, Note_on_c, 9, 56, 0
3, 151560, Note_on_c, 9, 56, 110
3, 151679, Note_on_c, 9, 56, 0
3, 151680, Note_on_c, 9, 56, 110
3, 152159, Note_on_c, 9, 56, 0
3, 152640, Note_on_c, 9, 56, 110
3, 152879, Note_on_c, 9, 56, 0
3, 152880, Note_on_c, 9, 56, 110
3, 153119, Note_on_c, 9, 56, 0
3, 153360, Note_on_c, 9, 56, 110
3, 153479, Note_on_c, 9, 56, 0
3, 153480, Note_on_c, 9, 56, 110
3, 153599, Note_on_c, 9, 56, 0
3, 153600, Note_on_c, 9, 56, 110
3, 154079, Note_on_c, 9, 56, 0
3, 154560, Note_on_c, 9, 56, 110
3, 154799, Note_on_c, 9, 56, 0
3, 154800, Note_on_c, 9, 56, 110
3, 155039, Note_on_c, 9, 56, 0
3, 155280, Note_on_c, 9, 56, 110
3, 155399, Note_on_c, 9, 56, 0
3, 155400, Note_on_c, 9, 56, 110
3, 155519, Note_on_c, 9, 56, 0
3, 155520, Note_on_c, 9, 56, 110
3, 155999, Note_on_c, 9, 56, 0
3, 156480, Note_on_c, 9, 56, 110
3, 156719, Note_on_c, 9, 56, 0
3, 156720, Note_on_c, 9, 56, 110
3, 156959, Note_on_c, 9, 56, 0
3, 157200, Note_on_c, 9, 56, 110
3, 157319, Note_on_c, 9, 56, 0
3, 157320, Note_on_c, 9, 56, 110
3, 157439, Note_on_c, 9, 56, 0
3, 157440, Note_on_c, 9, 56, 110
3, 157919, Note_on_c, 9, 56, 0
3, 158400, Note_on_c, 9, 56, 110
3, 158639, Note_on_c, 9, 56, 0
3, 158640, Note_on_c, 9, 56, 110
3, 158879, Note_on_c, 9, 56, 0
3, 159120, Note_on_c, 9, 56, 110
3, 159239, Note_on_c, 9, 56, 0
3, 159240, Note_on_c, 9, 56, 110
3, 159359, Note_on_c, 9, 56, 0
3, 159360, Note_on_c, 9, 56, 110
3, 159839, Note_on_c, 9, 56, 0
3, 160320, Note_on_c, 9, 56, 110
3, 160559, Note_on_c, 9, 56, 0
3, 160560, Note_on_c, 9, 56, 110
3, 160799, Note_on_c, 9, 56, 0
3, 161040, Note_on_c, 9, 56, 110
3, 161159, Note_on_c, 9, 56, 0
3, 161160, Note_on_c, 9, 56, 110
3, 161279, Note_on_c, 9, 56, 0
3, 161280, Note_on_c, 9, 56, 110
3, 161759, Note_on_c, 9, 56, 0
3, 162240, Note_on_c, 9, 56, 110
3, 162479, Note_on_c, 9, 56, 0
3, 162480, Note_on_c, 9, 56, 110
3, 162719, Note_on_c, 9, 56, 0
3, 162960, Note_on_c, 9, 56, 110
3, 163079, Note_on_c, 9, 56, 0
3, 163080, Note_on_c, 9, 56, 110
3, 163199, Note_on_c, 9, 56, 0
3, 163200, Note_on_c, 9, 56, 110
3, 163679, Note_on_c, 9, 56, 0
3, 164160, Note_on_c, 9, 56, 110
3, 164399, Note_on_c, 9, 56, 0
3, 164400, Note_on_c, 9, 56, 110
3, 164639, Note_on_c, 9, 56, 0
3, 164880, Note_on_c, 9, 56, 110
3, 164999, Note_on_c, 9, 56, 0
3, 165000, Note_on_c, 9, 56, 110
3, 165119, Note_on_c, 9, 56, 0
3, 165120, Note_on_c, 9, 56, 110
3, 165599, Note_on_c, 9, 56, 0
3, 166080, Note_on_c, 9, 56, 110
3, 166319, Note_on_c, 9, 56, 0
3, 166320, Note_on_c, 9, 56, 110
3, 166559, Note_on_c, 9, 56, 0
3, 166800, Note_on_c, 9, 56, 110
3, 166919, Note_on_c, 9, 56, 0
3, 166920, Note_on_c, 9, 56, 110
3, 167039, Note_on_c, 9, 56, 0
3, 167040, Note_on_c, 9, 56, 110
3, 167519, Note_on_c, 9, 56, 0
3, 168000, Note_on_c, 9, 56, 110
3, 168239, Note_on_c, 9, 56, 0
3, 168240, Note_on_c, 9, 56, 110
3, 168479, Note_on_c, 9, 56, 0
3, 168720, Note_on_c, 9, 56, 110
3, 168839, Note_on_c, 9, 56, 0
3, 168840, Note_on_c, 9, 56, 110
3, 168959, Note_on_c, 9, 56, 0
3, 168960, Note_on_c, 9, 56, 110
3, 169439, Note_on_c, 9, 56, 0
3, 169920, Note_on_c, 9, 56, 110
3, 170159, Note_on_c, 9, 56, 0
3, 170160, Note_on_c, 9, 56, 110
3, 170399, Note_on_c, 9, 56, 0
3, 170640, Note_on_c, 9, 56, 110
3, 170759, Note_on_c, 9, 56, 0
3, 170760, Note_on_c, 9, 56, 110
3, 170879, Note_on_c, 9, 56, 0
3, 170880, Note_on_c, 9, 56, 110
3, 171359, Note_on_c, 9, 56, 0
3, 171840, Note_on_c, 9, 56, 110
3, 172079, Note_on_c, 9, 56, 0
3, 172080, Note_on_c, 9, 56, 110
3, 172319, Note_on_c, 9, 56, 0
3, 172560, Note_on_c, 9, 56, 110
3, 172679, Note_on_c, 9, 56, 0
3, 172680, Note_on_c, 9, 56, 110
3, 172799, Note_on_c, 9, 56, 0
3, 172800, Note_on_c, 9, 56, 110
3, 173279, Note_on_c, 9, 56, 0
3, 173760, Note_on_c, 9, 56, 110
3, 173999, Note_on_c, 9, 56, 0
3, 174000, Note_on_c, 9, 56, 110
3, 174239, Note_on_c, 9, 56, 0
3, 174480, Note_on_c, 9, 56, 110
3, 174599, Note_on_c, 9, 56, 0
3, 174600, Note_on_c, 9, 56, 110
3, 174719, Note_on_c, 9, 56, 0
3, 174720, Note_on_c, 9, 56, 110
3, 175199, Note_on_c, 9, 56, 0
3, 175680, Note_on_c, 9, 56, 110
3, 175919, Note_on_c, 9, 56, 0
3, 175920, Note_on_c, 9, 56, 110
3, 176159, Note_on_c, 9, 56, 0
3, 176400, Note_on_c, 9, 56, 110
3, 176519, Note_on_c, 9, 56, 0
3, 176520, Note_on_c, 9, 56, 110
3, 176639, Note_on_c, 9, 56, 0
3, 176640, Note_on_c, 9, 56, 110
3, 177119, Note_on_c, 9, 56, 0
3, 177600, Note_on_c, 9, 56, 110
3, 177839, Note_on_c, 9, 56, 0
3, 177840, Note_on_c, 9, 56, 110
3, 178079, Note_on_c, 9, 56, 0
3, 178320, Note_on_c, 9, 56, 110
3, 178439, Note_on_c, 9, 56, 0
3, 178440, Note_on_c, 9, 56, 110
3, 178559, Note_on_c, 9, 56, 0
3, 178560, Note_on_c, 9, 56, 110
3, 179039, Note_on_c, 9, 56, 0
3, 179520, Note_on_c, 9, 56, 110
3, 179759, Note_on_c, 9, 56, 0
3, 179760, Note_on_c, 9, 56, 110
3, 179999, Note_on_c, 9, 56, 0
3, 180240, Note_on_c, 9, 56, 110
3, 180359, Note_on_c, 9, 56, 0
3, 180360, Note_on_c, 9, 56, 110
3, 180479, Note_on_c, 9, 56, 0
3, 180480, Note_on_c, 9, 56, 110
3, 180959, Note_on_c, 9, 56, 0
3, 181440, Note_on_c, 9, 56, 110
3, 181679, Note_on_c, 9, 56, 0
3, 181680, Note_on_c, 9, 56, 110
3, 181919, Note_on_c, 9, 56, 0
3, 182160, Note_on_c, 9, 56, 110
3, 182279, Note_on_c, 9, 56, 0
3, 182280, Note_on_c, 9, 56, 110
3, 182399, Note_on_c, 9, 56, 0
3, 182400, Note_on_c, 9, 56, 110
3, 182879, Note_on_c, 9, 56, 0
3, 183360, Note_on_c, 9, 56, 110
3, 183599, Note_on_c, 9, 56, 0
3, 183600, Note_on_c, 9, 56, 110
3, 183839, Note_on_c, 9, 56, 0
3, 184080, Note_on_c, 9, 56, 110
3, 184199, Note_on_c, 9, 56, 0
3, 184200, Note_on_c, 9, 56, 110
3, 184319, Note_on_c, 9, 56, 0
3, 184320, Note_on_c, 9, 56, 110
3, 184799, Note_on_c, 9, 56, 0
3, 185280, Note_on_c, 9, 56, 110
3, 185519, Note_on_c, 9, 56, 0
3, 185520, Note_on_c, 9, 56, 110
3, 185759, Note_on_c, 9, 56, 0
3, 186000, Note_on_c, 9, 56, 110
3, 186119, Note_on_c, 9, 56, 0
3, 186120, Note_on_c, 9, 56, 110
3, 186239, Note_on_c, 9, 56, 0
3, 186240, Note_on_c, 9, 56, 110
3, 186719, Note_on_c, 9, 56, 0
3, 187200, Note_on_c, 9, 56, 110
3, 187439, Note_on_c, 9, 56, 0
3, 187440, Note_on_c, 9, 56, 110
3, 187679, Note_on_c, 9, 56, 0
3, 187920, Note_on_c, 9, 56, 110
3, 188039, Note_on_c, 9, 56, 0
3, 188040, Note_on_c, 9, 56, 110
3, 188159, Note_on_c, 9, 56, 0
3, 188160, Note_on_c, 9, 56, 110
3, 188639, Note_on_c, 9, 56, 0
3, 189120, Note_on_c, 9, 56, 110
3, 189359, Note_on_c, 9, 56, 0
3, 189360, Note_on_c, 9, 56, 110
3, 189599, Note_on_c, 9, 56, 0
3, 189840, Note_on_c, 9, 56, 110
3, 189959, Note_on_c, 9, 56, 0
3, 189960, Note_on_c, 9, 56, 110
3, 190079, Note_on_c, 9, 56, 0
3, 190080, Note_on_c, 9, 56, 110
3, 190559, Note_on_c, 9, 56, 0
3, 191040, Note_on_c, 9, 56, 110
3, 191279, Note_on_c, 9, 56, 0
3, 191280, Note_on_c, 9, 56, 110
3, 191519, Note_on_c, 9, 56, 0
3, 191760, Note_on_c, 9, 56, 110
3, 191879, Note_on_c, 9, 56, 0
3, 191880, Note_on_c, 9, 56, 110
3, 191999, Note_on_c, 9, 56, 0
3, 192000, Note_on_c, 9, 56, 110
3, 192479, Note_on_c, 9, 56, 0
3, 192960, Note_on_c, 9, 56, 110
3, 193199, Note_on_c, 9, 56, 0
3, 193200, Note_on_c, 9, 56, 110
3, 193439, Note_on_c, 9, 56, 0
3, 193680, Note_on_c, 9, 56, 110
3, 193799, Note_on_c, 9, 56, 0
3, 193800, Note_on_c, 9, 56, 110
3, 193919, Note_on_c, 9, 56, 0
3, 193920, Note_on_c, 9, 56, 110
3, 194399, Note_on_c, 9, 56, 0
3, 194880, Note_on_c, 9, 56, 110
3, 195119, Note_on_c, 9, 56, 0
3, 195120, Note_on_c, 9, 56, 110
3, 195359, Note_on_c, 9, 56, 0
3, 195600, Note_on_c, 9, 56, 110
3, 195719, Note_on_c, 9, 56, 0
3, 195720, Note_on_c, 9, 56, 110
3, 195839, Note_on_c, 9, 56, 0
3, 195840, Note_on_c, 9, 56, 110
3, 196319, Note_on_c, 9, 56, 0
3, 196800, Note_on_c, 9, 56, 110
3, 197039, Note_on_c, 9, 56, 0
3, 197040, Note_on_c, 9, 56, 110
3, 197279, Note_on_c, 9, 56, 0
3, 197520, Note_on_c, 9, 56, 110
3, 197639, Note_on_c, 9, 56, 0
3, 197640, Note_on_c, 9, 56, 110
3, 197759, Note_on_c, 9, 56, 0
3, 197760, End_track
0, 0, End_of_file
