0, 0, Header, 1, 4, 480
1, 0, Start_track
1, 0, Time_signature, 4, 2, 24, 8
1, 0, Key_signature, 0, "major"
1, 0, Tempo, 468750
1, 0, Control_c, 9, 121, 0
1, 0, Program_c, 9, 0
1, 0, Control_c, 9, 7, 119
1, 0, Control_c, 9, 10, 64
1, 0, Control_c, 9, 91, 0
1, 0, Control_c, 9, 93, 0
1, 0, MIDI_port, 0
1, 5280, Note_on_c, 9, 38, 80
1, 5759, Note_on_c, 9, 38, 0
1, 5760, Note_on_c, 9, 36, 80
1, 6239, Note_on_c, 9, 36, 0
1, 6240, Note_on_c, 9, 38, 80
1, 6240, Note_on_c, 9, 36, 80
1, 6719, Note_on_c, 9, 38, 0
1, 6719, Note_on_c, 9, 36, 0
1, 6720, Note_on_c, 9, 36, 80
1, 7199, Note_on_c, 9, 36, 0
1, 7200, Note_on_c, 9, 38, 80
1, 7200, Note_on_c, 9, 36, 80
1, 7679, Note_on_c, 9, 38, 0
1, 7679, Note_on_c, 9, 36, 0
1, 7680, Note_on_c, 9, 36, 80
1, 8159, Note_on_c, 9, 36, 0
1, 8160, Note_on_c, 9, 38, 80
1, 8160, Note_on_c, 9, 36, 80
1, 8639, Note_on_c, 9, 38, 0
1, 8639, Note_on_c, 9, 36, 0
1, 8640, Note_on_c, 9, 36, 80
1, 9119, Note_on_c, 9, 36, 0
1, 9120, Note_on_c, 9, 38, 80
1, 9120, Note_on_c, 9, 36, 80
1, 9599, Note_on_c, 9, 38, 0
1, 9599, Note_on_c, 9, 36, 0
1, 9600, Note_on_c, 9, 36, 80
1, 10079, Note_on_c, 9, 36, 0
1, 10080, Note_on_c, 9, 36, 80
1, 10559, Note_on_c, 9, 36, 0
1, 10560, Note_on_c, 9, 36, 80
1, 11039, Note_on_c, 9, 36, 0
1, 11040, Note_on_c, 9, 36, 80
1, 11519, Note_on_c, 9, 36, 0
1, 11520, Note_on_c, 9, 36, 80
1, 11999, Note_on_c, 9, 36, 0
1, 12000, Note_on_c, 9, 36, 80
1, 12479, Note_on_c, 9, 36, 0
1, 12480, Note_on_c, 9, 36, 80
1, 12959, Note_on_c, 9, 36, 0
1, 12960, Note_on_c, 9, 38, 80
1, 12960, Note_on_c, 9, 36, 80
1, 13079, Note_on_c, 9, 38, 0
1, 13080, Note_on_c, 9, 38, 80
1, 13199, Note_on_c, 9, 38, 0
1, 13200, Note_on_c, 9, 38, 80
1, 13439, Note_on_c, 9, 36, 0
1, 13439, Note_on_c, 9, 38, 0
1, 13440, Note_on_c, 9, 36, 80
1, 13919, Note_on_c, 9, 36, 0
1, 13920, Note_on_c, 9, 38, 80
1, 13920, Note_on_c, 9, 36, 80
1, 14399, Note_on_c, 9, 38, 0
1, 14399, Note_on_c, 9, 36, 0
1, 14400, Note_on_c, 9, 36, 80
1, 14879, Note_on_c, 9, 36, 0
1, 14880, Note_on_c, 9, 38, 80
1, 14880, Note_on_c, 9, 36, 80
1, 15359, Note_on_c, 9, 38, 0
1, 15359, Note_on_c, 9, 36, 0
1, 15360, Note_on_c, 9, 36, 80
1, 15839, Note_on_c, 9, 36, 0
1, 15840, Note_on_c, 9, 38, 80
1, 15840, Note_on_c, 9, 36, 80
1, 16319, Note_on_c, 9, 38, 0
1, 16319, Note_on_c, 9, 36, 0
1, 16320, Note_on_c, 9, 36, 80
1, 16799, Note_on_c, 9, 36, 0
1, 16800, Note_on_c, 9, 38, 80
1, 16800, Note_on_c, 9, 36, 80
1, 17279, Note_on_c, 9, 38, 0
1, 17279, Note_on_c, 9, 36, 0
1, 17280, Note_on_c, 9, 36, 80
1, 17759, Note_on_c, 9, 36, 0
1, 17760, Note_on_c, 9, 38, 80
1, 17760, Note_on_c, 9, 36, 80
1, 18239, Note_on_c, 9, 38, 0
1, 18239, Note_on_c, 9, 36, 0
1, 18240, Note_on_c, 9, 36, 80
1, 18719, Note_on_c, 9, 36, 0
1, 18720, Note_on_c, 9, 38, 80
1, 18720, Note_on_c, 9, 36, 80
1, 19199, Note_on_c, 9, 38, 0
1, 19199, Note_on_c, 9, 36, 0
1, 19200, Note_on_c, 9, 36, 80
1, 19679, Note_on_c, 9, 36, 0
1, 19680, Note_on_c, 9, 38, 80
1, 19680, Note_on_c, 9, 36, 80
1, 20159, Note_on_c, 9, 38, 0
1, 20159, Note_on_c, 9, 36, 0
1, 20160, Note_on_c, 9, 36, 80
1, 20639, Note_on_c, 9, 36, 0
1, 20640, Note_on_c, 9, 38, 80
1, 20640, Note_on_c, 9, 36, 80
1, 20759, Note_on_c, 9, 38, 0
1, 20760, Note_on_c, 9, 38, 80
1, 20879, Note_on_c, 9, 38, 0
1, 20880, Note_on_c, 9, 38, 80
1, 20999, Note_on_c, 9, 38, 0
1, 21000, Note_on_c, 9, 38, 80
1, 21119, Note_on_c, 9, 36, 0
1, 21119, Note_on_c, 9, 38, 0
1, 21120, Note_on_c, 9, 36, 80
1, 21599, Note_on_c, 9, 36, 0
1, 21600, Note_on_c, 9, 38, 80
1, 21600, Note_on_c, 9, 36, 80
1, 22079, Note_on_c, 9, 38, 0
1, 22079, Note_on_c, 9, 36, 0
1, 22080, Note_on_c, 9, 36, 80
1, 22559, Note_on_c, 9, 36, 0
1, 22560, Note_on_c, 9, 38, 80
1, 22560, Note_on_c, 9, 36, 80
1, 23039, Note_on_c, 9, 38, 0
1, 23039, Note_on_c, 9, 36, 0
1, 23040, Note_on_c, 9, 36, 80
1, 23519, Note_on_c, 9, 36, 0
1, 23520, Note_on_c, 9, 38, 80
1, 23520, Note_on_c, 9, 36, 80
1, 23999, Note_on_c, 9, 38, 0
1, 23999, Note_on_c, 9, 36, 0
1, 24000, Note_on_c, 9, 36, 80
1, 24479, Note_on_c, 9, 36, 0
1, 24480, Note_on_c, 9, 38, 80
1, 24480, Note_on_c, 9, 36, 80
1, 24959, Note_on_c, 9, 38, 0
1, 24959, Note_on_c, 9, 36, 0
1, 24960, Note_on_c, 9, 36, 80
1, 25439, Note_on_c, 9, 36, 0
1, 25440, Note_on_c, 9, 38, 80
1, 25440, Note_on_c, 9, 36, 80
1, 25919, Note_on_c, 9, 38, 0
1, 25919, Note_on_c, 9, 36, 0
1, 25920, Note_on_c, 9, 36, 80
1, 26399, Note_on_c, 9, 36, 0
1, 26400, Note_on_c, 9, 38, 80
1, 26400, Note_on_c, 9, 36, 80
1, 26879, Note_on_c, 9, 38, 0
1, 26879, Note_on_c, 9, 36, 0
1, 26880, Note_on_c, 9, 36, 80
1, 27359, Note_on_c, 9, 36, 0
1, 27360, Note_on_c, 9, 38, 80
1, 27360, Note_on_c, 9, 36, 80
1, 27839, Note_on_c, 9, 38, 0
1, 27839, Note_on_c, 9, 36, 0
1, 27840, Note_on_c, 9, 36, 80
1, 28080, Note_on_c, 9, 38, 80
1, 28319, Note_on_c, 9, 36, 0
1, 28319, Note_on_c, 9, 38, 0
1, 28320, Note_on_c, 9, 38, 80
1, 28320, Note_on_c, 9, 36, 80
1, 28799, Note_on_c, 9, 38, 0
1, 28799, Note_on_c, 9, 36, 0
1, 28800, Note_on_c, 9, 36, 80
1, 29279, Note_on_c, 9, 36, 0
1, 29280, Note_on_c, 9, 38, 80
1, 29280, Note_on_c, 9, 36, 80
1, 29759, Note_on_c, 9, 38, 0
1, 29759, Note_on_c, 9, 36, 0
1, 29760, Note_on_c, 9, 36, 80
1, 30239, Note_on_c, 9, 36, 0
1, 30240, Note_on_c, 9, 38, 80
1, 30240, Note_on_c, 9, 36, 80
1, 30719, Note_on_c, 9, 38, 0
1, 30719, Note_on_c, 9, 36, 0
1, 30720, Note_on_c, 9, 36, 80
1, 31199, Note_on_c, 9, 36, 0
1, 31200, Note_on_c, 9, 38, 80
1, 31200, Note_on_c, 9, 36, 80
1, 31679, Note_on_c, 9, 38, 0
1, 31679, Note_on_c, 9, 36, 0
1, 31680, Note_on_c, 9, 36, 80
1, 32159, Note_on_c, 9, 36, 0
1, 32160, Note_on_c, 9, 38, 80
1, 32160, Note_on_c, 9, 36, 80
1, 32639, Note_on_c, 9, 38, 0
1, 32639, Note_on_c, 9, 36, 0
1, 32640, Note_on_c, 9, 36, 80
1, 33119, Note_on_c, 9, 36, 0
1, 33120, Note_on_c, 9, 38, 80
1, 33120, Note_on_c, 9, 36, 80
1, 33599, Note_on_c, 9, 38, 0
1, 33599, Note_on_c, 9, 36, 0
1, 33600, Note_on_c, 9, 36, 80
1, 34079, Note_on_c, 9, 36, 0
1, 34080, Note_on_c, 9, 38, 80
1, 34080, Note_on_c, 9, 36, 80
1, 34559, Note_on_c, 9, 38, 0
1, 34559, Note_on_c, 9, 36, 0
1, 34560, Note_on_c, 9, 38, 80
1, 34560, Note_on_c, 9, 40, 80
1, 34560, Note_on_c, 9, 36, 80
1, 35039, Note_on_c, 9, 38, 0
1, 35039, Note_on_c, 9, 40, 0
1, 35039, Note_on_c, 9, 36, 0
1, 35040, Note_on_c, 9, 36, 80
1, 35519, Note_on_c, 9, 36, 0
1, 35520, Note_on_c, 9, 36, 80
1, 35999, Note_on_c, 9, 36, 0
1, 36000, Note_on_c, 9, 36, 80
1, 36479, Note_on_c, 9, 36, 0
1, 36480, Note_on_c, 9, 36, 80
1, 36959, Note_on_c, 9, 36, 0
1, 36960, Note_on_c, 9, 38, 80
1, 36960, Note_on_c, 9, 36, 80
1, 37439, Note_on_c, 9, 38, 0
1, 37439, Note_on_c, 9, 36, 0
1, 37440, Note_on_c, 9, 36, 80
1, 37919, Note_on_c, 9, 36, 0
1, 37920, Note_on_c, 9, 38, 80
1, 37920, Note_on_c, 9, 36, 80
1, 38399, Note_on_c, 9, 38, 0
1, 38399, Note_on_c, 9, 36, 0
1, 38400, Note_on_c, 9, 36, 80
1, 38879, Note_on_c, 9, 36, 0
1, 38880, Note_on_c, 9, 38, 80
1, 38880, Note_on_c, 9, 36, 80
1, 39359, Note_on_c, 9, 38, 0
1, 39359, Note_on_c, 9, 36, 0
1, 39360, Note_on_c, 9, 36, 80
1, 39839, Note_on_c, 9, 36, 0
1, 39840, Note_on_c, 9, 38, 80
1, 39840, Note_on_c, 9, 36, 80
1, 40319, Note_on_c, 9, 38, 0
1, 40319, Note_on_c, 9, 36, 0
1, 40320, Note_on_c, 9, 36, 80
1, 40799, Note_on_c, 9, 36, 0
1, 40800, Note_on_c, 9, 38, 80
1, 40800, Note_on_c, 9, 36, 80
1, 41279, Note_on_c, 9, 38, 0
1, 41279, Note_on_c, 9, 36, 0
1, 41280, Note_on_c, 9, 36, 80
1, 41759, Note_on_c, 9, 36, 0
1, 41760, Note_on_c, 9, 38, 80
1, 41760, Note_on_c, 9, 36, 80
1, 42239, Note_on_c, 9, 38, 0
1, 42239, Note_on_c, 9, 36, 0
1, 42240, Note_on_c, 9, 36, 80
1, 42719, Note_on_c, 9, 36, 0
1, 42720, Note_on_c, 9, 38, 80
1, 42720, Note_on_c, 9, 36, 80
1, 43199, Note_on_c, 9, 38, 0
1, 43199, Note_on_c, 9, 36, 0
1, 43200, Note_on_c, 9, 36, 80
1, 43679, Note_on_c, 9, 36, 0
1, 43680, Note_on_c, 9, 38, 80
1, 43680, Note_on_c, 9, 36, 80
1, 43799, Note_on_c, 9, 38, 0
1, 43800, Note_on_c, 9, 38, 80
1, 43919, Note_on_c, 9, 38, 0
1, 43920, Note_on_c, 9, 38, 80
1, 44039, Note_on_c, 9, 38, 0
1, 44040, Note_on_c, 9, 38, 80
1, 44159, Note_on_c, 9, 36, 0
1, 44159, Note_on_c, 9, 38, 0
1, 44160, Note_on_c, 9, 36, 80
1, 44639, Note_on_c, 9, 36, 0
1, 44640, Note_on_c, 9, 38, 80
1, 44640, Note_on_c, 9, 36, 80
1, 45119, Note_on_c, 9, 38, 0
1, 45119, Note_on_c, 9, 36, 0
1, 45120, Note_on_c, 9, 36, 80
1, 45599, Note_on_c, 9, 36, 0
1, 45600, Note_on_c, 9, 38, 80
1, 45600, Note_on_c, 9, 36, 80
1, 46079, Note_on_c, 9, 38, 0
1, 46079, Note_on_c, 9, 36, 0
1, 46080, Note_on_c, 9, 36, 80
1, 46559, Note_on_c, 9, 36, 0
1, 46560, Note_on_c, 9, 38, 80
1, 46560, Note_on_c, 9, 36, 80
1, 47039, Note_on_c, 9, 38, 0
1, 47039, Note_on_c, 9, 36, 0
1, 47040, Note_on_c, 9, 36, 80
1, 47279, Note_on_c, 9, 36, 0
1, 47280, Note_on_c, 9, 36, 80
1, 47399, Note_on_c, 9, 36, 0
1, 47400, Note_on_c, 9, 36, 80
1, 47519, Note_on_c, 9, 36, 0
1, 47520, Note_on_c, 9, 38, 80
1, 47520, Note_on_c, 9, 36, 80
1, 47639, Note_on_c, 9, 36, 0
1, 47640, Note_on_c, 9, 36, 80
1, 47759, Note_on_c, 9, 36, 0
1, 47760, Note_on_c, 9, 36, 80
1, 47879, Note_on_c, 9, 36, 0
1, 47880, Note_on_c, 9, 36, 80
1, 47999, Note_on_c, 9, 38, 0
1, 47999, Note_on_c, 9, 36, 0
1, 48000, Note_on_c, 9, 36, 80
1, 48479, Note_on_c, 9, 36, 0
1, 48480, Note_on_c, 9, 38, 80
1, 48480, Note_on_c, 9, 36, 80
1, 48959, Note_on_c, 9, 38, 0
1, 48959, Note_on_c, 9, 36, 0
1, 48960, Note_on_c, 9, 36, 80
1, 49439, Note_on_c, 9, 36, 0
1, 49440, Note_on_c, 9, 38, 80
1, 49440, Note_on_c, 9, 36, 80
1, 49919, Note_on_c, 9, 38, 0
1, 49919, Note_on_c, 9, 36, 0
1, 49920, Note_on_c, 9, 36, 80
1, 50399, Note_on_c, 9, 36, 0
1, 50400, Note_on_c, 9, 38, 80
1, 50400, Note_on_c, 9, 36, 80
1, 50879, Note_on_c, 9, 38, 0
1, 50879, Note_on_c, 9, 36, 0
1, 50880, Note_on_c, 9, 36, 80
1, 51359, Note_on_c, 9, 36, 0
1, 51360, Note_on_c, 9, 38, 80
1, 51360, Note_on_c, 9, 36, 80
1, 51479, Note_on_c, 9, 38, 0
1, 51480, Note_on_c, 9, 38, 80
1, 51599, Note_on_c, 9, 38, 0
1, 51600, Note_on_c, 9, 38, 80
1, 51719, Note_on_c, 9, 38, 0
1, 51720, Note_on_c, 9, 38, 80
1, 51839, Note_on_c, 9, 36, 0
1, 51839, Note_on_c, 9, 38, 0
1, 51840, Note_on_c, 9, 36, 80
1, 52319, Note_on_c, 9, 36, 0
1, 52320, Note_on_c, 9, 38, 80
1, 52320, Note_on_c, 9, 36, 80
1, 52799, Note_on_c, 9, 38, 0
1, 52799, Note_on_c, 9, 36, 0
1, 52800, Note_on_c, 9, 36, 80
1, 53279, Note_on_c, 9, 36, 0
1, 53280, Note_on_c, 9, 38, 80
1, 53280, Note_on_c, 9, 36, 80
1, 53759, Note_on_c, 9, 38, 0
1, 53759, Note_on_c, 9, 36, 0
1, 53760, Note_on_c, 9, 36, 80
1, 54239, Note_on_c, 9, 36, 0
1, 54240, Note_on_c, 9, 38, 80
1, 54240, Note_on_c, 9, 36, 80
1, 54719, Note_on_c, 9, 38, 0
1, 54719, Note_on_c, 9, 36, 0
1, 54720, Note_on_c, 9, 36, 80
1, 54959, Note_on_c, 9, 36, 0
1, 54960, Note_on_c, 9, 36, 80
1, 55079, Note_on_c, 9, 36, 0
1, 55080, Note_on_c, 9, 36, 80
1, 55199, Note_on_c, 9, 36, 0
1, 55200, Note_on_c, 9, 38, 80
1, 55200, Note_on_c, 9, 36, 80
1, 55319, Note_on_c, 9, 36, 0
1, 55320, Note_on_c, 9, 36, 80
1, 55439, Note_on_c, 9, 36, 0
1, 55440, Note_on_c, 9, 36, 80
1, 55559, Note_on_c, 9, 36, 0
1, 55560, Note_on_c, 9, 36, 80
1, 55679, Note_on_c, 9, 38, 0
1, 55679, Note_on_c, 9, 36, 0
1, 55680, Note_on_c, 9, 36, 80
1, 56159, Note_on_c, 9, 36, 0
1, 56160, Note_on_c, 9, 38, 80
1, 56160, Note_on_c, 9, 36, 80
1, 56639, Note_on_c, 9, 38, 0
1, 56639, Note_on_c, 9, 36, 0
1, 56640, Note_on_c, 9, 36, 80
1, 57119, Note_on_c, 9, 36, 0
1, 57120, Note_on_c, 9, 38, 80
1, 57120, Note_on_c, 9, 36, 80
1, 57599, Note_on_c, 9, 38, 0
1, 57599, Note_on_c, 9, 36, 0
1, 57600, Note_on_c, 9, 36, 80
1, 58079, Note_on_c, 9, 36, 0
1, 58080, Note_on_c, 9, 38, 80
1, 58080, Note_on_c, 9, 36, 80
1, 58559, Note_on_c, 9, 38, 0
1, 58559, Note_on_c, 9, 36, 0
1, 58560, Note_on_c, 9, 36, 80
1, 59039, Note_on_c, 9, 36, 0
1, 59040, Note_on_c, 9, 38, 80
1, 59040, Note_on_c, 9, 36, 80
1, 59159, Note_on_c, 9, 38, 0
1, 59160, Note_on_c, 9, 38, 80
1, 59279, Note_on_c, 9, 38, 0
1, 59280, Note_on_c, 9, 38, 80
1, 59399, Note_on_c, 9, 38, 0
1, 59400, Note_on_c, 9, 38, 80
1, 59519, Note_on_c, 9, 36, 0
1, 59519, Note_on_c, 9, 38, 0
1, 59520, Note_on_c, 9, 36, 80
1, 59999, Note_on_c, 9, 36, 0
1, 60000, Note_on_c, 9, 38, 80
1, 60000, Note_on_c, 9, 36, 80
1, 60479, Note_on_c, 9, 38, 0
1, 60479, Note_on_c, 9, 36, 0
1, 60480, Note_on_c, 9, 36, 80
1, 60959, Note_on_c, 9, 36, 0
1, 60960, Note_on_c, 9, 38, 80
1, 60960, Note_on_c, 9, 36, 80
1, 61439, Note_on_c, 9, 38, 0
1, 61439, Note_on_c, 9, 36, 0
1, 61440, Note_on_c, 9, 36, 80
1, 61919, Note_on_c, 9, 36, 0
1, 61920, Note_on_c, 9, 38, 80
1, 61920, Note_on_c, 9, 36, 80
1, 62399, Note_on_c, 9, 38, 0
1, 62399, Note_on_c, 9, 36, 0
1, 62400, Note_on_c, 9, 36, 80
1, 62879, Note_on_c, 9, 36, 0
1, 62880, Note_on_c, 9, 38, 80
1, 62880, Note_on_c, 9, 36, 80
1, 63359, Note_on_c, 9, 38, 0
1, 63359, Note_on_c, 9, 36, 0
1, 63360, Note_on_c, 9, 36, 80
1, 63839, Note_on_c, 9, 36, 0
1, 63840, Note_on_c, 9, 38, 80
1, 63840, Note_on_c, 9, 36, 80
1, 64319, Note_on_c, 9, 38, 0
1, 64319, Note_on_c, 9, 36, 0
1, 64320, Note_on_c, 9, 36, 80
1, 64799, Note_on_c, 9, 36, 0
1, 64800, Note_on_c, 9, 38, 80
1, 64800, Note_on_c, 9, 36, 80
1, 65279, Note_on_c, 9, 38, 0
1, 65279, Note_on_c, 9, 36, 0
1, 65280, Note_on_c, 9, 36, 80
1, 65759, Note_on_c, 9, 36, 0
1, 65760, Note_on_c, 9, 38, 80
1, 65760, Note_on_c, 9, 36, 80
1, 66239, Note_on_c, 9, 38, 0
1, 66239, Note_on_c, 9, 36, 0
1, 66240, Note_on_c, 9, 36, 80
1, 66480, Note_on_c, 9, 38, 80
1, 66719, Note_on_c, 9, 36, 0
1, 66719, Note_on_c, 9, 38, 0
1, 66720, Note_on_c, 9, 38, 80
1, 66720, Note_on_c, 9, 36, 80
1, 67199, Note_on_c, 9, 38, 0
1, 67199, Note_on_c, 9, 36, 0
1, 67200, Note_on_c, 9, 36, 80
1, 67679, Note_on_c, 9, 36, 0
1, 67680, Note_on_c, 9, 38, 80
1, 67680, Note_on_c, 9, 36, 80
1, 68159, Note_on_c, 9, 38, 0
1, 68159, Note_on_c, 9, 36, 0
1, 68160, Note_on_c, 9, 36, 80
1, 68639, Note_on_c, 9, 36, 0
1, 68640, Note_on_c, 9, 38, 80
1, 68640, Note_on_c, 9, 36, 80
1, 69119, Note_on_c, 9, 38, 0
1, 69119, Note_on_c, 9, 36, 0
1, 69120, Note_on_c, 9, 36, 80
1, 69599, Note_on_c, 9, 36, 0
1, 69600, Note_on_c, 9, 38, 80
1, 69600, Note_on_c, 9, 36, 80
1, 70079, Note_on_c, 9, 38, 0
1, 70079, Note_on_c, 9, 36, 0
1, 70080, Note_on_c, 9, 36, 80
1, 70559, Note_on_c, 9, 36, 0
1, 70560, Note_on_c, 9, 38, 80
1, 70560, Note_on_c, 9, 36, 80
1, 71039, Note_on_c, 9, 38, 0
1, 71039, Note_on_c, 9, 36, 0
1, 71040, Note_on_c, 9, 36, 80
1, 71519, Note_on_c, 9, 36, 0
1, 71520, Note_on_c, 9, 38, 80
1, 71520, Note_on_c, 9, 36, 80
1, 71999, Note_on_c, 9, 38, 0
1, 71999, Note_on_c, 9, 36, 0
1, 72000, Note_on_c, 9, 36, 80
1, 72479, Note_on_c, 9, 36, 0
1, 72480, Note_on_c, 9, 38, 80
1, 72480, Note_on_c, 9, 36, 80
1, 72959, Note_on_c, 9, 38, 0
1, 72959, Note_on_c, 9, 36, 0
1, 72960, Note_on_c, 9, 38, 80
1, 72960, Note_on_c, 9, 40, 80
1, 72960, Note_on_c, 9, 36, 80
1, 73439, Note_on_c, 9, 38, 0
1, 73439, Note_on_c, 9, 40, 0
1, 73439, Note_on_c, 9, 36, 0
1, 73440, Note_on_c, 9, 36, 80
1, 73919, Note_on_c, 9, 36, 0
1, 73920, Note_on_c, 9, 36, 80
1, 74399, Note_on_c, 9, 36, 0
1, 74400, Note_on_c, 9, 36, 80
1, 74879, Note_on_c, 9, 36, 0
1, 74880, Note_on_c, 9, 36, 80
1, 75359, Note_on_c, 9, 36, 0
1, 75360, Note_on_c, 9, 38, 80
1, 75360, Note_on_c, 9, 36, 80
1, 75839, Note_on_c, 9, 38, 0
1, 75839, Note_on_c, 9, 36, 0
1, 75840, Note_on_c, 9, 36, 80
1, 76319, Note_on_c, 9, 36, 0
1, 76320, Note_on_c, 9, 38, 80
1, 76320, Note_on_c, 9, 36, 80
1, 76799, Note_on_c, 9, 38, 0
1, 76799, Note_on_c, 9, 36, 0
1, 76800, Note_on_c, 9, 36, 80
1, 77279, Note_on_c, 9, 36, 0
1, 77280, Note_on_c, 9, 38, 80
1, 77280, Note_on_c, 9, 36, 80
1, 77759, Note_on_c, 9, 38, 0
1, 77759, Note_on_c, 9, 36, 0
1, 77760, Note_on_c, 9, 36, 80
1, 78239, Note_on_c, 9, 36, 0
1, 78240, Note_on_c, 9, 38, 80
1, 78240, Note_on_c, 9, 36, 80
1, 78719, Note_on_c, 9, 38, 0
1, 78719, Note_on_c, 9, 36, 0
1, 78720, Note_on_c, 9, 36, 80
1, 79199, Note_on_c, 9, 36, 0
1, 79200, Note_on_c, 9, 38, 80
1, 79200, Note_on_c, 9, 36, 80
1, 79679, Note_on_c, 9, 38, 0
1, 79679, Note_on_c, 9, 36, 0
1, 79680, Note_on_c, 9, 36, 80
1, 80159, Note_on_c, 9, 36, 0
1, 80160, Note_on_c, 9, 38, 80
1, 80160, Note_on_c, 9, 36, 80
1, 80639, Note_on_c, 9, 38, 0
1, 80639, Note_on_c, 9, 36, 0
1, 80640, Note_on_c, 9, 36, 80
1, 81119, Note_on_c, 9, 36, 0
1, 81120, Note_on_c, 9, 38, 80
1, 81120, Note_on_c, 9, 36, 80
1, 81599, Note_on_c, 9, 38, 0
1, 81599, Note_on_c, 9, 36, 0
1, 81600, Note_on_c, 9, 36, 80
1, 82079, Note_on_c, 9, 36, 0
1, 82080, Note_on_c, 9, 38, 80
1, 82080, Note_on_c, 9, 36, 80
1, 82199, Note_on_c, 9, 38, 0
1, 82200, Note_on_c, 9, 38, 80
1, 82319, Note_on_c, 9, 38, 0
1, 82320, Note_on_c, 9, 38, 80
1, 82439, Note_on_c, 9, 38, 0
1, 82440, Note_on_c, 9, 38, 80
1, 82559, Note_on_c, 9, 36, 0
1, 82559, Note_on_c, 9, 38, 0
1, 82560, Note_on_c, 9, 36, 80
1, 83039, Note_on_c, 9, 36, 0
1, 83040, Note_on_c, 9, 38, 80
1, 83040, Note_on_c, 9, 36, 80
1, 83519, Note_on_c, 9, 38, 0
1, 83519, Note_on_c, 9, 36, 0
1, 83520, Note_on_c, 9, 36, 80
1, 83999, Note_on_c, 9, 36, 0
1, 84000, Note_on_c, 9, 38, 80
1, 84000, Note_on_c, 9, 36, 80
1, 84479, Note_on_c, 9, 38, 0
1, 84479, Note_on_c, 9, 36, 0
1, 84480, Note_on_c, 9, 36, 80
1, 84959, Note_on_c, 9, 36, 0
1, 84960, Note_on_c, 9, 38, 80
1, 84960, Note_on_c, 9, 36, 80
1, 85439, Note_on_c, 9, 38, 0
1, 85439, Note_on_c, 9, 36, 0
1, 85440, Note_on_c, 9, 36, 80
1, 85679, Note_on_c, 9, 36, 0
1, 85680, Note_on_c, 9, 36, 80
1, 85799, Note_on_c, 9, 36, 0
1, 85800, Note_on_c, 9, 36, 80
1, 85919, Note_on_c, 9, 36, 0
1, 85920, Note_on_c, 9, 38, 80
1, 85920, Note_on_c, 9, 36, 80
1, 86039, Note_on_c, 9, 36, 0
1, 86040, Note_on_c, 9, 36, 80
1, 86159, Note_on_c, 9, 36, 0
1, 86160, Note_on_c, 9, 36, 80
1, 86279, Note_on_c, 9, 36, 0
1, 86280, Note_on_c, 9, 36, 80
1, 86399, Note_on_c, 9, 38, 0
1, 86399, Note_on_c, 9, 36, 0
1, 86400, Note_on_c, 9, 36, 80
1, 86879, Note_on_c, 9, 36, 0
1, 86880, Note_on_c, 9, 38, 80
1, 86880, Note_on_c, 9, 36, 80
1, 87359, Note_on_c, 9, 38, 0
1, 87359, Note_on_c, 9, 36, 0
1, 87360, Note_on_c, 9, 36, 80
1, 87839, Note_on_c, 9, 36, 0
1, 87840, Note_on_c, 9, 38, 80
1, 87840, Note_on_c, 9, 36, 80
1, 88319, Note_on_c, 9, 38, 0
1, 88319, Note_on_c, 9, 36, 0
1, 88320, Note_on_c, 9, 36, 80
1, 88799, Note_on_c, 9, 36, 0
1, 88800, Note_on_c, 9, 38, 80
1, 88800, Note_on_c, 9, 36, 80
1, 89279, Note_on_c, 9, 38, 0
1, 89279, Note_on_c, 9, 36, 0
1, 89280, Note_on_c, 9, 36, 80
1, 89759, Note_on_c, 9, 36, 0
1, 89760, Note_on_c, 9, 38, 80
1, 89760, Note_on_c, 9, 36, 80
1, 89879, Note_on_c, 9, 38, 0
1, 89880, Note_on_c, 9, 38, 80
1, 89999, Note_on_c, 9, 38, 0
1, 90000, Note_on_c, 9, 38, 80
1, 90119, Note_on_c, 9, 38, 0
1, 90120, Note_on_c, 9, 38, 80
1, 90239, Note_on_c, 9, 36, 0
1, 90239, Note_on_c, 9, 38, 0
1, 90240, Note_on_c, 9, 36, 80
1, 90719, Note_on_c, 9, 36, 0
1, 90720, Note_on_c, 9, 38, 80
1, 90720, Note_on_c, 9, 36, 80
1, 91199, Note_on_c, 9, 38, 0
1, 91199, Note_on_c, 9, 36, 0
1, 91200, Note_on_c, 9, 36, 80
1, 91679, Note_on_c, 9, 36, 0
1, 91680, Note_on_c, 9, 38, 80
1, 91680, Note_on_c, 9, 36, 80
1, 92159, Note_on_c, 9, 38, 0
1, 92159, Note_on_c, 9, 36, 0
1, 92160, Note_on_c, 9, 36, 80
1, 92639, Note_on_c, 9, 36, 0
1, 92640, Note_on_c, 9, 38, 80
1, 92640, Note_on_c, 9, 36, 80
1, 93119, Note_on_c, 9, 38, 0
1, 93119, Note_on_c, 9, 36, 0
1, 93120, Note_on_c, 9, 36, 80
1, 93359, Note_on_c, 9, 36, 0
1, 93360, Note_on_c, 9, 36, 80
1, 93479, Note_on_c, 9, 36, 0
1, 93480, Note_on_c, 9, 36, 80
1, 93599, Note_on_c, 9, 36, 0
1, 93600, Note_on_c, 9, 38, 80
1, 93600, Note_on_c, 9, 36, 80
1, 93719, Note_on_c, 9, 36, 0
1, 93720, Note_on_c, 9, 36, 80
1, 93839, Note_on_c, 9, 36, 0
1, 93840, Note_on_c, 9, 36, 80
1, 93959, Note_on_c, 9, 36, 0
1, 93960, Note_on_c, 9, 36, 80
1, 94079, Note_on_c, 9, 38, 0
1, 94079, Note_on_c, 9, 36, 0
1, 94080, Note_on_c, 9, 36, 80
1, 94559, Note_on_c, 9, 36, 0
1, 94560, Note_on_c, 9, 38, 80
1, 94560, Note_on_c, 9, 36, 80
1, 95039, Note_on_c, 9, 38, 0
1, 95039, Note_on_c, 9, 36, 0
1, 95040, Note_on_c, 9, 36, 80
1, 95519, Note_on_c, 9, 36, 0
1, 95520, Note_on_c, 9, 38, 80
1, 95520, Note_on_c, 9, 36, 80
1, 95999, Note_on_c, 9, 38, 0
1, 95999, Note_on_c, 9, 36, 0
1, 96000, Note_on_c, 9, 36, 80
1, 96479, Note_on_c, 9, 36, 0
1, 96480, Note_on_c, 9, 38, 80
1, 96480, Note_on_c, 9, 36, 80
1, 96959, Note_on_c, 9, 38, 0
1, 96959, Note_on_c, 9, 36, 0
1, 96960, Note_on_c, 9, 36, 80
1, 97439, Note_on_c, 9, 36, 0
1, 97440, Note_on_c, 9, 38, 80
1, 97440, Note_on_c, 9, 36, 80
1, 97559, Note_on_c, 9, 38, 0
1, 97560, Note_on_c, 9, 38, 80
1, 97679, Note_on_c, 9, 38, 0
1, 97680, Note_on_c, 9, 38, 80
1, 97799, Note_on_c, 9, 38, 0
1, 97800, Note_on_c, 9, 38, 80
1, 97919, Note_on_c, 9, 36, 0
1, 97919, Note_on_c, 9, 38, 0
1, 97920, Note_on_c, 9, 36, 80
1, 98399, Note_on_c, 9, 36, 0
1, 98400, Note_on_c, 9, 36, 80
1, 98879, Note_on_c, 9, 36, 0
1, 98880, Note_on_c, 9, 36, 80
1, 99359, Note_on_c, 9, 36, 0
1, 99360, Note_on_c, 9, 36, 80
1, 99839, Note_on_c, 9, 36, 0
1, 99840, Note_on_c, 9, 36, 80
1, 100319, Note_on_c, 9, 36, 0
1, 100320, Note_on_c, 9, 36, 80
1, 100799, Note_on_c, 9, 36, 0
1, 100800, Note_on_c, 9, 36, 80
1, 101040, Note_on_c, 9, 38, 80
1, 101279, Note_on_c, 9, 36, 0
1, 101279, Note_on_c, 9, 38, 0
1, 101280, Note_on_c, 9, 38, 80
1, 101280, Note_on_c, 9, 36, 80
1, 101519, Note_on_c, 9, 38, 0
1, 101520, Note_on_c, 9, 38, 80
1, 101759, Note_on_c, 9, 36, 0
1, 101759, Note_on_c, 9, 38, 0
1, 101760, Note_on_c, 9, 36, 80
1, 102239, Note_on_c, 9, 36, 0
1, 102240, Note_on_c, 9, 38, 80
1, 102240, Note_on_c, 9, 36, 80
1, 102719, Note_on_c, 9, 38, 0
1, 102719, Note_on_c, 9, 36, 0
1, 102720, Note_on_c, 9, 36, 80
1, 103199, Note_on_c, 9, 36, 0
1, 103200, Note_on_c, 9, 38, 80
1, 103200, Note_on_c, 9, 36, 80
1, 103679, Note_on_c, 9, 38, 0
1, 103679, Note_on_c, 9, 36, 0
1, 103680, Note_on_c, 9, 36, 80
1, 104159, Note_on_c, 9, 36, 0
1, 104160, Note_on_c, 9, 38, 80
1, 104160, Note_on_c, 9, 36, 80
1, 104639, Note_on_c, 9, 38, 0
1, 104639, Note_on_c, 9, 36, 0
1, 104640, Note_on_c, 9, 36, 80
1, 105119, Note_on_c, 9, 36, 0
1, 105120, Note_on_c, 9, 38, 80
1, 105120, Note_on_c, 9, 36, 80
1, 105599, Note_on_c, 9, 38, 0
1, 105599, Note_on_c, 9, 36, 0
1, 105600, Note_on_c, 9, 36, 80
1, 106079, Note_on_c, 9, 36, 0
1, 106080, Note_on_c, 9, 38, 80
1, 106080, Note_on_c, 9, 36, 80
1, 106559, Note_on_c, 9, 38, 0
1, 106559, Note_on_c, 9, 36, 0
1, 106560, Note_on_c, 9, 36, 80
1, 107039, Note_on_c, 9, 36, 0
1, 107040, Note_on_c, 9, 38, 80
1, 107040, Note_on_c, 9, 36, 80
1, 107519, Note_on_c, 9, 38, 0
1, 107519, Note_on_c, 9, 36, 0
1, 107520, Note_on_c, 9, 36, 80
1, 107999, Note_on_c, 9, 36, 0
1, 108000, Note_on_c, 9, 38, 80
1, 108000, Note_on_c, 9, 36, 80
1, 108479, Note_on_c, 9, 38, 0
1, 108479, Note_on_c, 9, 36, 0
1, 108480, Note_on_c, 9, 36, 80
1, 108720, Note_on_c, 9, 38, 80
1, 108959, Note_on_c, 9, 36, 0
1, 108959, Note_on_c, 9, 38, 0
1, 108960, Note_on_c, 9, 38, 80
1, 108960, Note_on_c, 9, 36, 80
1, 109199, Note_on_c, 9, 38, 0
1, 109200, Note_on_c, 9, 38, 80
1, 109439, Note_on_c, 9, 36, 0
1, 109439, Note_on_c, 9, 38, 0
1, 109440, Note_on_c, 9, 36, 80
1, 109919, Note_on_c, 9, 36, 0
1, 109920, Note_on_c, 9, 38, 80
1, 109920, Note_on_c, 9, 36, 80
1, 110399, Note_on_c, 9, 38, 0
1, 110399, Note_on_c, 9, 36, 0
1, 110400, Note_on_c, 9, 36, 80
1, 110879, Note_on_c, 9, 36, 0
1, 110880, Note_on_c, 9, 38, 80
1, 110880, Note_on_c, 9, 36, 80
1, 111359, Note_on_c, 9, 38, 0
1, 111359, Note_on_c, 9, 36, 0
1, 111360, Note_on_c, 9, 36, 80
1, 111839, Note_on_c, 9, 36, 0
1, 111840, Note_on_c, 9, 38, 80
1, 111840, Note_on_c, 9, 36, 80
1, 112319, Note_on_c, 9, 38, 0
1, 112319, Note_on_c, 9, 36, 0
1, 112320, Note_on_c, 9, 36, 80
1, 112799, Note_on_c, 9, 36, 0
1, 112800, Note_on_c, 9, 38, 80
1, 112800, Note_on_c, 9, 36, 80
1, 113279, Note_on_c, 9, 38, 0
1, 113279, Note_on_c, 9, 36, 0
1, 113280, Note_on_c, 9, 36, 80
1, 113759, Note_on_c, 9, 36, 0
1, 113760, Note_on_c, 9, 38, 80
1, 113760, Note_on_c, 9, 36, 80
1, 114239, Note_on_c, 9, 38, 0
1, 114239, Note_on_c, 9, 36, 0
1, 114240, Note_on_c, 9, 36, 80
1, 114719, Note_on_c, 9, 36, 0
1, 114720, Note_on_c, 9, 38, 80
1, 114720, Note_on_c, 9, 36, 80
1, 115199, Note_on_c, 9, 38, 0
1, 115199, Note_on_c, 9, 36, 0
1, 115200, Note_on_c, 9, 38, 80
1, 115200, Note_on_c, 9, 40, 80
1, 115200, Note_on_c, 9, 36, 80
1, 115679, Note_on_c, 9, 38, 0
1, 115679, Note_on_c, 9, 40, 0
1, 115679, Note_on_c, 9, 36, 0
1, 115680, Note_on_c, 9, 36, 80
1, 116159, Note_on_c, 9, 36, 0
1, 116160, Note_on_c, 9, 36, 80
1, 116639, Note_on_c, 9, 36, 0
1, 116640, Note_on_c, 9, 36, 80
1, 117119, Note_on_c, 9, 36, 0
1, 117120, Note_on_c, 9, 36, 80
1, 117599, Note_on_c, 9, 36, 0
1, 117600, Note_on_c, 9, 38, 80
1, 117600, Note_on_c, 9, 36, 80
1, 118079, Note_on_c, 9, 38, 0
1, 118079, Note_on_c, 9, 36, 0
1, 118080, Note_on_c, 9, 36, 80
1, 118559, Note_on_c, 9, 36, 0
1, 118560, Note_on_c, 9, 38, 80
1, 118560, Note_on_c, 9, 36, 80
1, 119039, Note_on_c, 9, 38, 0
1, 119039, Note_on_c, 9, 36, 0
1, 119040, Note_on_c, 9, 36, 80
1, 119519, Note_on_c, 9, 36, 0
1, 119520, Note_on_c, 9, 38, 80
1, 119520, Note_on_c, 9, 36, 80
1, 119999, Note_on_c, 9, 38, 0
1, 119999, Note_on_c, 9, 36, 0
1, 120000, Note_on_c, 9, 36, 80
1, 120479, Note_on_c, 9, 36, 0
1, 120480, Note_on_c, 9, 38, 80
1, 120480, Note_on_c, 9, 36, 80
1, 120959, Note_on_c, 9, 38, 0
1, 120959, Note_on_c, 9, 36, 0
1, 120960, Note_on_c, 9, 36, 80
1, 121439, Note_on_c, 9, 36, 0
1, 121440, Note_on_c, 9, 38, 80
1, 121440, Note_on_c, 9, 36, 80
1, 121919, Note_on_c, 9, 38, 0
1, 121919, Note_on_c, 9, 36, 0
1, 121920, Note_on_c, 9, 36, 80
1, 122399, Note_on_c, 9, 36, 0
1, 122400, Note_on_c, 9, 38, 80
1, 122400, Note_on_c, 9, 36, 80
1, 122879, Note_on_c, 9, 38, 0
1, 122879, Note_on_c, 9, 36, 0
1, 122880, Note_on_c, 9, 36, 80
1, 123359, Note_on_c, 9, 36, 0
1, 123360, Note_on_c, 9, 38, 80
1, 123360, Note_on_c, 9, 36, 80
1, 123839, Note_on_c, 9, 38, 0
1, 123839, Note_on_c, 9, 36, 0
1, 123840, Note_on_c, 9, 36, 80
1, 124319, Note_on_c, 9, 36, 0
1, 124320, Note_on_c, 9, 38, 80
1, 124320, Note_on_c, 9, 36, 80
1, 124439, Note_on_c, 9, 38, 0
1, 124440, Note_on_c, 9, 38, 80
1, 124559, Note_on_c, 9, 38, 0
1, 124560, Note_on_c, 9, 38, 80
1, 124679, Note_on_c, 9, 38, 0
1, 124680, Note_on_c, 9, 38, 80
1, 124799, Note_on_c, 9, 36, 0
1, 124799, Note_on_c, 9, 38, 0
1, 124800, Note_on_c, 9, 36, 80
1, 125279, Note_on_c, 9, 36, 0
1, 125280, Note_on_c, 9, 38, 80
1, 125280, Note_on_c, 9, 36, 80
1, 125759, Note_on_c, 9, 38, 0
1, 125759, Note_on_c, 9, 36, 0
1, 125760, Note_on_c, 9, 36, 80
1, 126239, Note_on_c, 9, 36, 0
1, 126240, Note_on_c, 9, 38, 80
1, 126240, Note_on_c, 9, 36, 80
1, 126719, Note_on_c, 9, 38, 0
1, 126719, Note_on_c, 9, 36, 0
1, 126720, Note_on_c, 9, 36, 80
1, 127199, Note_on_c, 9, 36, 0
1, 127200, Note_on_c, 9, 38, 80
1, 127200, Note_on_c, 9, 36, 80
1, 127679, Note_on_c, 9, 38, 0
1, 127679, Note_on_c, 9, 36, 0
1, 127680, Note_on_c, 9, 36, 80
1, 127919, Note_on_c, 9, 36, 0
1, 127920, Note_on_c, 9, 36, 80
1, 128039, Note_on_c, 9, 36, 0
1, 128040, Note_on_c, 9, 36, 80
1, 128159, Note_on_c, 9, 36, 0
1, 128160, Note_on_c, 9, 38, 80
1, 128160, Note_on_c, 9, 36, 80
1, 128279, Note_on_c, 9, 36, 0
1, 128280, Note_on_c, 9, 36, 80
1, 128399, Note_on_c, 9, 36, 0
1, 128400, Note_on_c, 9, 36, 80
1, 128519, Note_on_c, 9, 36, 0
1, 128520, Note_on_c, 9, 36, 80
1, 128639, Note_on_c, 9, 38, 0
1, 128639, Note_on_c, 9, 36, 0
1, 128640, Note_on_c, 9, 36, 80
1, 129119, Note_on_c, 9, 36, 0
1, 129120, Note_on_c, 9, 38, 80
1, 129120, Note_on_c, 9, 36, 80
1, 129599, Note_on_c, 9, 38, 0
1, 129599, Note_on_c, 9, 36, 0
1, 129600, Note_on_c, 9, 36, 80
1, 130079, Note_on_c, 9, 36, 0
1, 130080, Note_on_c, 9, 38, 80
1, 130080, Note_on_c, 9, 36, 80
1, 130559, Note_on_c, 9, 38, 0
1, 130559, Note_on_c, 9, 36, 0
1, 130560, Note_on_c, 9, 36, 80
1, 131039, Note_on_c, 9, 36, 0
1, 131040, Note_on_c, 9, 38, 80
1, 131040, Note_on_c, 9, 36, 80
1, 131519, Note_on_c, 9, 38, 0
1, 131519, Note_on_c, 9, 36, 0
1, 131520, Note_on_c, 9, 36, 80
1, 131999, Note_on_c, 9, 36, 0
1, 132000, Note_on_c, 9, 38, 80
1, 132000, Note_on_c, 9, 36, 80
1, 132119, Note_on_c, 9, 38, 0
1, 132120, Note_on_c, 9, 38, 80
1, 132239, Note_on_c, 9, 38, 0
1, 132240, Note_on_c, 9, 38, 80
1, 132359, Note_on_c, 9, 38, 0
1, 132360, Note_on_c, 9, 38, 80
1, 132479, Note_on_c, 9, 36, 0
1, 132479, Note_on_c, 9, 38, 0
1, 132480, Note_on_c, 9, 36, 80
1, 132959, Note_on_c, 9, 36, 0
1, 132960, Note_on_c, 9, 38, 80
1, 132960, Note_on_c, 9, 36, 80
1, 133439, Note_on_c, 9, 38, 0
1, 133439, Note_on_c, 9, 36, 0
1, 133440, Note_on_c, 9, 36, 80
1, 133919, Note_on_c, 9, 36, 0
1, 133920, Note_on_c, 9, 38, 80
1, 133920, Note_on_c, 9, 36, 80
1, 134399, Note_on_c, 9, 38, 0
1, 134399, Note_on_c, 9, 36, 0
1, 134400, Note_on_c, 9, 36, 80
1, 134879, Note_on_c, 9, 36, 0
1, 134880, Note_on_c, 9, 38, 80
1, 134880, Note_on_c, 9, 36, 80
1, 135359, Note_on_c, 9, 38, 0
1, 135359, Note_on_c, 9, 36, 0
1, 135360, Note_on_c, 9, 36, 80
1, 135599, Note_on_c, 9, 36, 0
1, 135600, Note_on_c, 9, 36, 80
1, 135719, Note_on_c, 9, 36, 0
1, 135720, Note_on_c, 9, 36, 80
1, 135839, Note_on_c, 9, 36, 0
1, 135840, Note_on_c, 9, 38, 80
1, 135840, Note_on_c, 9, 36, 80
1, 135959, Note_on_c, 9, 36, 0
1, 135960, Note_on_c, 9, 36, 80
1, 136079, Note_on_c, 9, 36, 0
1, 136080, Note_on_c, 9, 36, 80
1, 136199, Note_on_c, 9, 36, 0
1, 136200, Note_on_c, 9, 36, 80
1, 136319, Note_on_c, 9, 38, 0
1, 136319, Note_on_c, 9, 36, 0
1, 136320, Note_on_c, 9, 36, 80
1, 136799, Note_on_c, 9, 36, 0
1, 136800, Note_on_c, 9, 38, 80
1, 136800, Note_on_c, 9, 36, 80
1, 137279, Note_on_c, 9, 38, 0
1, 137279, Note_on_c, 9, 36, 0
1, 137280, Note_on_c, 9, 36, 80
1, 137759, Note_on_c, 9, 36, 0
1, 137760, Note_on_c, 9, 38, 80
1, 137760, Note_on_c, 9, 36, 80
1, 138239, Note_on_c, 9, 38, 0
1, 138239, Note_on_c, 9, 36, 0
1, 138240, Note_on_c, 9, 36, 80
1, 138719, Note_on_c, 9, 36, 0
1, 138720, Note_on_c, 9, 38, 80
1, 138720, Note_on_c, 9, 36, 80
1, 139199, Note_on_c, 9, 38, 0
1, 139199, Note_on_c, 9, 36, 0
1, 139200, Note_on_c, 9, 36, 80
1, 139679, Note_on_c, 9, 36, 0
1, 139680, Note_on_c, 9, 38, 80
1, 139680, Note_on_c, 9, 36, 80
1, 139799, Note_on_c, 9, 38, 0
1, 139800, Note_on_c, 9, 38, 80
1, 139919, Note_on_c, 9, 38, 0
1, 139920, Note_on_c, 9, 38, 80
1, 140039, Note_on_c, 9, 38, 0
1, 140040, Note_on_c, 9, 38, 80
1, 140159, Note_on_c, 9, 36, 0
1, 140159, Note_on_c, 9, 38, 0
1, 140160, Note_on_c, 9, 36, 80
1, 140639, Note_on_c, 9, 36, 0
1, 140640, Note_on_c, 9, 36, 80
1, 141119, Note_on_c, 9, 36, 0
1, 141120, Note_on_c, 9, 36, 80
1, 141599, Note_on_c, 9, 36, 0
1, 141600, Note_on_c, 9, 36, 80
1, 142079, Note_on_c, 9, 36, 0
1, 142080, Note_on_c, 9, 36, 80
1, 142559, Note_on_c, 9, 36, 0
1, 142560, Note_on_c, 9, 36, 80
1, 143039, Note_on_c, 9, 36, 0
1, 143040, Note_on_c, 9, 36, 80
1, 143519, Note_on_c, 9, 36, 0
1, 143520, Note_on_c, 9, 36, 80
1, 143999, Note_on_c, 9, 36, 0
1, 144000, Note_on_c, 9, 36, 80
1, 144479, Note_on_c, 9, 36, 0
1, 144480, Note_on_c, 9, 36, 80
1, 144959, Note_on_c, 9, 36, 0
1, 144960, Note_on_c, 9, 36, 80
1, 145439, Note_on_c, 9, 36, 0
1, 145440, Note_on_c, 9, 36, 80
1, 145919, Note_on_c, 9, 36, 0
1, 145920, Note_on_c, 9, 36, 80
1, 146399, Note_on_c, 9, 36, 0
1, 146400, Note_on_c, 9, 36, 80
1, 146879, Note_on_c, 9, 36, 0
1, 146880, Note_on_c, 9, 36, 80
1, 147359, Note_on_c, 9, 36, 0
1, 147360, Note_on_c, 9, 36, 80
1, 147839, Note_on_c, 9, 36, 0
1, 147840, Note_on_c, 9, 36, 80
1, 148319, Note_on_c, 9, 36, 0
1, 148320, Note_on_c, 9, 36, 80
1, 148799, Note_on_c, 9, 36, 0
1, 148800, Note_on_c, 9, 36, 80
1, 149279, Note_on_c, 9, 36, 0
1, 149280, Note_on_c, 9, 36, 80
1, 149759, Note_on_c, 9, 36, 0
1, 149760, Note_on_c, 9, 36, 80
1, 150239, Note_on_c, 9, 36, 0
1, 150240, Note_on_c, 9, 36, 80
1, 150719, Note_on_c, 9, 36, 0
1, 150720, Note_on_c, 9, 36, 80
1, 151199, Note_on_c, 9, 36, 0
1, 151200, Note_on_c, 9, 36, 80
1, 151679, Note_on_c, 9, 36, 0
1, 151680, Note_on_c, 9, 36, 80
1, 152159, Note_on_c, 9, 36, 0
1, 152160, Note_on_c, 9, 36, 80
1, 152639, Note_on_c, 9, 36, 0
1, 152640, Note_on_c, 9, 36, 80
1, 153119, Note_on_c, 9, 36, 0
1, 153120, Note_on_c, 9, 36, 80
1, 153359, Note_on_c, 9, 36, 0
1, 153360, Note_on_c, 9, 36, 80
1, 153479, Note_on_c, 9, 36, 0
1, 153480, Note_on_c, 9, 36, 80
1, 153599, Note_on_c, 9, 36, 0
1, 153600, Note_on_c, 9, 36, 80
1, 154079, Note_on_c, 9, 36, 0
1, 154080, Note_on_c, 9, 36, 80
1, 154559, Note_on_c, 9, 36, 0
1, 154560, Note_on_c, 9, 36, 80
1, 155039, Note_on_c, 9, 36, 0
1, 155040, Note_on_c, 9, 36, 80
1, 155519, Note_on_c, 9, 36, 0
1, 155520, Note_on_c, 9, 36, 80
1, 155999, Note_on_c, 9, 36, 0
1, 156000, Note_on_c, 9, 38, 80
1, 156000, Note_on_c, 9, 36, 80
1, 156479, Note_on_c, 9, 38, 0
1, 156479, Note_on_c, 9, 36, 0
1, 156480, Note_on_c, 9, 36, 80
1, 156959, Note_on_c, 9, 36, 0
1, 156960, Note_on_c, 9, 38, 80
1, 156960, Note_on_c, 9, 36, 80
1, 157439, Note_on_c, 9, 38, 0
1, 157439, Note_on_c, 9, 36, 0
1, 157440, Note_on_c, 9, 36, 80
1, 157919, Note_on_c, 9, 36, 0
1, 157920, Note_on_c, 9, 38, 80
1, 157920, Note_on_c, 9, 36, 80
1, 158399, Note_on_c, 9, 38, 0
1, 158399, Note_on_c, 9, 36, 0
1, 158400, Note_on_c, 9, 36, 80
1, 158879, Note_on_c, 9, 36, 0
1, 158880, Note_on_c, 9, 38, 80
1, 158880, Note_on_c, 9, 36, 80
1, 159359, Note_on_c, 9, 38, 0
1, 159359, Note_on_c, 9, 36, 0
1, 159360, Note_on_c, 9, 36, 80
1, 159839, Note_on_c, 9, 36, 0
1, 159840, Note_on_c, 9, 38, 80
1, 159840, Note_on_c, 9, 36, 80
1, 160319, Note_on_c, 9, 38, 0
1, 160319, Note_on_c, 9, 36, 0
1, 160320, Note_on_c, 9, 36, 80
1, 160799, Note_on_c, 9, 36, 0
1, 160800, Note_on_c, 9, 38, 80
1, 160800, Note_on_c, 9, 36, 80
1, 161279, Note_on_c, 9, 38, 0
1, 161279, Note_on_c, 9, 36, 0
1, 161280, Note_on_c, 9, 36, 80
1, 161759, Note_on_c, 9, 36, 0
1, 161760, Note_on_c, 9, 38, 80
1, 161760, Note_on_c, 9, 36, 80
1, 162239, Note_on_c, 9, 38, 0
1, 162239, Note_on_c, 9, 36, 0
1, 162240, Note_on_c, 9, 36, 80
1, 162719, Note_on_c, 9, 36, 0
1, 162720, Note_on_c, 9, 38, 80
1, 162720, Note_on_c, 9, 36, 80
1, 162839, Note_on_c, 9, 38, 0
1, 162840, Note_on_c, 9, 38, 80
1, 162959, Note_on_c, 9, 38, 0
1, 162960, Note_on_c, 9, 38, 80
1, 163079, Note_on_c, 9, 38, 0
1, 163080, Note_on_c, 9, 38, 80
1, 163199, Note_on_c, 9, 36, 0
1, 163199, Note_on_c, 9, 38, 0
1, 163200, Note_on_c, 9, 36, 80
1, 163679, Note_on_c, 9, 36, 0
1, 163680, Note_on_c, 9, 38, 80
1, 163680, Note_on_c, 9, 36, 80
1, 164159, Note_on_c, 9, 38, 0
1, 164159, Note_on_c, 9, 36, 0
1, 164160, Note_on_c, 9, 36, 80
1, 164639, Note_on_c, 9, 36, 0
1, 164640, Note_on_c, 9, 38, 80
1, 164640, Note_on_c, 9, 36, 80
1, 165119, Note_on_c, 9, 38, 0
1, 165119, Note_on_c, 9, 36, 0
1, 165120, Note_on_c, 9, 36, 80
1, 165599, Note_on_c, 9, 36, 0
1, 165600, Note_on_c, 9, 38, 80
1, 165600, Note_on_c, 9, 36, 80
1, 166079, Note_on_c, 9, 38, 0
1, 166079, Note_on_c, 9, 36, 0
1, 166080, Note_on_c, 9, 36, 80
1, 166319, Note_on_c, 9, 36, 0
1, 166320, Note_on_c, 9, 36, 80
1, 166439, Note_on_c, 9, 36, 0
1, 166440, Note_on_c, 9, 36, 80
1, 166559, Note_on_c, 9, 36, 0
1, 166560, Note_on_c, 9, 38, 80
1, 166560, Note_on_c, 9, 36, 80
1, 166679, Note_on_c, 9, 36, 0
1, 166680, Note_on_c, 9, 36, 80
1, 166799, Note_on_c, 9, 36, 0
1, 166800, Note_on_c, 9, 36, 80
1, 166919, Note_on_c, 9, 36, 0
1, 166920, Note_on_c, 9, 36, 80
1, 167039, Note_on_c, 9, 38, 0
1, 167039, Note_on_c, 9, 36, 0
1, 167040, Note_on_c, 9, 36, 80
1, 167519, Note_on_c, 9, 36, 0
1, 167520, Note_on_c, 9, 38, 80
1, 167520, Note_on_c, 9, 36, 80
1, 167999, Note_on_c, 9, 38, 0
1, 167999, Note_on_c, 9, 36, 0
1, 168000, Note_on_c, 9, 36, 80
1, 168479, Note_on_c, 9, 36, 0
1, 168480, Note_on_c, 9, 38, 80
1, 168480, Note_on_c, 9, 36, 80
1, 168959, Note_on_c, 9, 38, 0
1, 168959, Note_on_c, 9, 36, 0
1, 168960, Note_on_c, 9, 36, 80
1, 169439, Note_on_c, 9, 36, 0
1, 169440, Note_on_c, 9, 38, 80
1, 169440, Note_on_c, 9, 36, 80
1, 169919, Note_on_c, 9, 38, 0
1, 169919, Note_on_c, 9, 36, 0
1, 169920, Note_on_c, 9, 36, 80
1, 170399, Note_on_c, 9, 36, 0
1, 170400, Note_on_c, 9, 38, 80
1, 170400, Note_on_c, 9, 36, 80
1, 170519, Note_on_c, 9, 38, 0
1, 170520, Note_on_c, 9, 38, 80
1, 170639, Note_on_c, 9, 38, 0
1, 170640, Note_on_c, 9, 38, 80
1, 170759, Note_on_c, 9, 38, 0
1, 170760, Note_on_c, 9, 38, 80
1, 170879, Note_on_c, 9, 36, 0
1, 170879, Note_on_c, 9, 38, 0
1, 170880, Note_on_c, 9, 36, 80
1, 171359, Note_on_c, 9, 36, 0
1, 171360, Note_on_c, 9, 38, 80
1, 171360, Note_on_c, 9, 36, 80
1, 171839, Note_on_c, 9, 38, 0
1, 171839, Note_on_c, 9, 36, 0
1, 171840, Note_on_c, 9, 36, 80
1, 172319, Note_on_c, 9, 36, 0
1, 172320, Note_on_c, 9, 38, 80
1, 172320, Note_on_c, 9, 36, 80
1, 172799, Note_on_c, 9, 38, 0
1, 172799, Note_on_c, 9, 36, 0
1, 172800, Note_on_c, 9, 36, 80
1, 173279, Note_on_c, 9, 36, 0
1, 173280, Note_on_c, 9, 38, 80
1, 173280, Note_on_c, 9, 36, 80
1, 173759, Note_on_c, 9, 38, 0
1, 173759, Note_on_c, 9, 36, 0
1, 173760, Note_on_c, 9, 36, 80
1, 173999, Note_on_c, 9, 36, 0
1, 174000, Note_on_c, 9, 36, 80
1, 174119, Note_on_c, 9, 36, 0
1, 174120, Note_on_c, 9, 36, 80
1, 174239, Note_on_c, 9, 36, 0
1, 174240, Note_on_c, 9, 38, 80
1, 174240, Note_on_c, 9, 36, 80
1, 174359, Note_on_c, 9, 36, 0
1, 174360, Note_on_c, 9, 36, 80
1, 174479, Note_on_c, 9, 36, 0
1, 174480, Note_on_c, 9, 36, 80
1, 174599, Note_on_c, 9, 36, 0
1, 174600, Note_on_c, 9, 36, 80
1, 174719, Note_on_c, 9, 38, 0
1, 174719, Note_on_c, 9, 36, 0
1, 174720, Note_on_c, 9, 36, 80
1, 175199, Note_on_c, 9, 36, 0
1, 175200, Note_on_c, 9, 38, 80
1, 175200, Note_on_c, 9, 36, 80
1, 175679, Note_on_c, 9, 38, 0
1, 175679, Note_on_c, 9, 36, 0
1, 175680, Note_on_c, 9, 36, 80
1, 176159, Note_on_c, 9, 36, 0
1, 176160, Note_on_c, 9, 38, 80
1, 176160, Note_on_c, 9, 36, 80
1, 176639, Note_on_c, 9, 38, 0
1, 176639, Note_on_c, 9, 36, 0
1, 176640, Note_on_c, 9, 36, 80
1, 177119, Note_on_c, 9, 36, 0
1, 177120, Note_on_c, 9, 38, 80
1, 177120, Note_on_c, 9, 36, 80
1, 177599, Note_on_c, 9, 38, 0
1, 177599, Note_on_c, 9, 36, 0
1, 177600, Note_on_c, 9, 36, 80
1, 178079, Note_on_c, 9, 36, 0
1, 178080, Note_on_c, 9, 38, 80
1, 178080, Note_on_c, 9, 36, 80
1, 178199, Note_on_c, 9, 38, 0
1, 178200, Note_on_c, 9, 38, 80
1, 178319, Note_on_c, 9, 38, 0
1, 178320, Note_on_c, 9, 38, 80
1, 178439, Note_on_c, 9, 38, 0
1, 178440, Note_on_c, 9, 38, 80
1, 178559, Note_on_c, 9, 36, 0
1, 178559, Note_on_c, 9, 38, 0
1, 186240, Note_on_c, 9, 36, 80
1, 186719, Note_on_c, 9, 36, 0
1, 186720, Note_on_c, 9, 38, 80
1, 186720, Note_on_c, 9, 36, 80
1, 187199, Note_on_c, 9, 38, 0
1, 187199, Note_on_c, 9, 36, 0
1, 187200, Note_on_c, 9, 36, 80
1, 187679, Note_on_c, 9, 36, 0
1, 187680, Note_on_c, 9, 38, 80
1, 187680, Note_on_c, 9, 36, 80
1, 188159, Note_on_c, 9, 38, 0
1, 188159, Note_on_c, 9, 36, 0
1, 188160, Note_on_c, 9, 36, 80
1, 188639, Note_on_c, 9, 36, 0
1, 188640, Note_on_c, 9, 38, 80
1, 188640, Note_on_c, 9, 36, 80
1, 189119, Note_on_c, 9, 38, 0
1, 189119, Note_on_c, 9, 36, 0
1, 189120, Note_on_c, 9, 36, 80
1, 189599, Note_on_c, 9, 36, 0
1, 189600, Note_on_c, 9, 38, 80
1, 189600, Note_on_c, 9, 36, 80
1, 190079, Note_on_c, 9, 38, 0
1, 190079, Note_on_c, 9, 36, 0
1, 190080, Note_on_c, 9, 36, 80
1, 190559, Note_on_c, 9, 36, 0
1, 190560, Note_on_c, 9, 38, 80
1, 190560, Note_on_c, 9, 36, 80
1, 191039, Note_on_c, 9, 38, 0
1, 191039, Note_on_c, 9, 36, 0
1, 191040, Note_on_c, 9, 36, 80
1, 191519, Note_on_c, 9, 36, 0
1, 191520, Note_on_c, 9, 38, 80
1, 191520, Note_on_c, 9, 36, 80
1, 191999, Note_on_c, 9, 38, 0
1, 191999, Note_on_c, 9, 36, 0
1, 192000, Note_on_c, 9, 36, 80
1, 192479, Note_on_c, 9, 36, 0
1, 192480, Note_on_c, 9, 38, 80
1, 192480, Note_on_c, 9, 36, 80
1, 192959, Note_on_c, 9, 38, 0
1, 192959, Note_on_c, 9, 36, 0
1, 192960, Note_on_c, 9, 36, 80
1, 193439, Note_on_c, 9, 36, 0
1, 193440, Note_on_c, 9, 38, 80
1, 193440, Note_on_c, 9, 36, 80
1, 193559, Note_on_c, 9, 38, 0
1, 193560, Note_on_c, 9, 38, 80
1, 193679, Note_on_c, 9, 38, 0
1, 193680, Note_on_c, 9, 38, 80
1, 193799, Note_on_c, 9, 38, 0
1, 193800, Note_on_c, 9, 38, 80
1, 193919, Note_on_c, 9, 36, 0
1, 193919, Note_on_c, 9, 38, 0
1, 193920, Note_on_c, 9, 36, 80
1, 194399, Note_on_c, 9, 36, 0
1, 194400, Note_on_c, 9, 38, 80
1, 194400, Note_on_c, 9, 36, 80
1, 194879, Note_on_c, 9, 38, 0
1, 194879, Note_on_c, 9, 36, 0
1, 194880, Note_on_c, 9, 36, 80
1, 195359, Note_on_c, 9, 36, 0
1, 195360, Note_on_c, 9, 38, 80
1, 195360, Note_on_c, 9, 36, 80
1, 195839, Note_on_c, 9, 38, 0
1, 195839, Note_on_c, 9, 36, 0
1, 195840, Note_on_c, 9, 36, 80
1, 196319, Note_on_c, 9, 36, 0
1, 196320, Note_on_c, 9, 38, 80
1, 196320, Note_on_c, 9, 36, 80
1, 196799, Note_on_c, 9, 38, 0
1, 196799, Note_on_c, 9, 36, 0
1, 196800, Note_on_c, 9, 36, 80
1, 197279, Note_on_c, 9, 36, 0
1, 197280, Note_on_c, 9, 38, 80
1, 197280, Note_on_c, 9, 36, 80
1, 197759, Note_on_c, 9, 38, 0
1, 197759, Note_on_c, 9, 36, 0
1, 197760, Note_on_c, 9, 36, 80
1, 198239, Note_on_c, 9, 36, 0
1, 198240, Note_on_c, 9, 38, 80
1, 198240, Note_on_c, 9, 36, 80
1, 198719, Note_on_c, 9, 38, 0
1, 198719, Note_on_c, 9, 36, 0
1, 198720, Note_on_c, 9, 36, 80
1, 199199, Note_on_c, 9, 36, 0
1, 199200, Note_on_c, 9, 38, 80
1, 199200, Note_on_c, 9, 36, 80
1, 199679, Note_on_c, 9, 38, 0
1, 199679, Note_on_c, 9, 36, 0
1, 199680, Note_on_c, 9, 36, 80
1, 200159, Note_on_c, 9, 36, 0
1, 200160, Note_on_c, 9, 38, 80
1, 200160, Note_on_c, 9, 36, 80
1, 200639, Note_on_c, 9, 38, 0
1, 200639, Note_on_c, 9, 36, 0
1, 200640, Note_on_c, 9, 36, 80
1, 201119, Note_on_c, 9, 36, 0
1, 201120, Note_on_c, 9, 38, 80
1, 201120, Note_on_c, 9, 36, 80
1, 201359, Note_on_c, 9, 36, 0
1, 201360, Note_on_c, 9, 36, 80
1, 201479, Note_on_c, 9, 36, 0
1, 201480, Note_on_c, 9, 36, 80
1, 201599, Note_on_c, 9, 38, 0
1, 201599, Note_on_c, 9, 36, 0
1, 201600, Note_on_c, 9, 36, 80
1, 202079, Note_on_c, 9, 36, 0
1, 202080, Note_on_c, 9, 38, 80
1, 202080, Note_on_c, 9, 36, 80
1, 202559, Note_on_c, 9, 38, 0
1, 202559, Note_on_c, 9, 36, 0
1, 202560, Note_on_c, 9, 36, 80
1, 203039, Note_on_c, 9, 36, 0
1, 203040, Note_on_c, 9, 38, 80
1, 203040, Note_on_c, 9, 36, 80
1, 203519, Note_on_c, 9, 38, 0
1, 203519, Note_on_c, 9, 36, 0
1, 203520, Note_on_c, 9, 36, 80
1, 203999, Note_on_c, 9, 36, 0
1, 204000, Note_on_c, 9, 38, 80
1, 204000, Note_on_c, 9, 36, 80
1, 204479, Note_on_c, 9, 38, 0
1, 204479, Note_on_c, 9, 36, 0
1, 204480, Note_on_c, 9, 36, 80
1, 204959, Note_on_c, 9, 36, 0
1, 204960, Note_on_c, 9, 38, 80
1, 204960, Note_on_c, 9, 36, 80
1, 205439, Note_on_c, 9, 38, 0
1, 205439, Note_on_c, 9, 36, 0
1, 205440, Note_on_c, 9, 36, 80
1, 205919, Note_on_c, 9, 36, 0
1, 205920, Note_on_c, 9, 38, 80
1, 205920, Note_on_c, 9, 36, 80
1, 206399, Note_on_c, 9, 38, 0
1, 206399, Note_on_c, 9, 36, 0
1, 206400, Note_on_c, 9, 36, 80
1, 206879, Note_on_c, 9, 36, 0
1, 206880, Note_on_c, 9, 38, 80
1, 206880, Note_on_c, 9, 36, 80
1, 207359, Note_on_c, 9, 38, 0
1, 207359, Note_on_c, 9, 36, 0
1, 207360, Note_on_c, 9, 36, 80
1, 207839, Note_on_c, 9, 36, 0
1, 207840, Note_on_c, 9, 38, 80
1, 207840, Note_on_c, 9, 36, 80
1, 208319, Note_on_c, 9, 38, 0
1, 208319, Note_on_c, 9, 36, 0
1, 208320, Note_on_c, 9, 36, 80
1, 208799, Note_on_c, 9, 36, 0
1, 208800, Note_on_c, 9, 38, 80
1, 208800, Note_on_c, 9, 36, 80
1, 208919, Note_on_c, 9, 38, 0
1, 208920, Note_on_c, 9, 38, 80
1, 209039, Note_on_c, 9, 38, 0
1, 209040, Note_on_c, 9, 38, 80
1, 209159, Note_on_c, 9, 38, 0
1, 209160, Note_on_c, 9, 38, 80
1, 209279, Note_on_c, 9, 36, 0
1, 209279, Note_on_c, 9, 38, 0
1, 209280, Note_on_c, 9, 36, 80
1, 209759, Note_on_c, 9, 36, 0
1, 209760, Note_on_c, 9, 38, 80
1, 209760, Note_on_c, 9, 36, 80
1, 210239, Note_on_c, 9, 38, 0
1, 210239, Note_on_c, 9, 36, 0
1, 210240, Note_on_c, 9, 36, 80
1, 210719, Note_on_c, 9, 36, 0
1, 210720, Note_on_c, 9, 38, 80
1, 210720, Note_on_c, 9, 36, 80
1, 211199, Note_on_c, 9, 38, 0
1, 211199, Note_on_c, 9, 36, 0
1, 211200, Note_on_c, 9, 36, 80
1, 211679, Note_on_c, 9, 36, 0
1, 211680, Note_on_c, 9, 38, 80
1, 211680, Note_on_c, 9, 36, 80
1, 212159, Note_on_c, 9, 38, 0
1, 212159, Note_on_c, 9, 36, 0
1, 212160, Note_on_c, 9, 36, 80
1, 212639, Note_on_c, 9, 36, 0
1, 212640, Note_on_c, 9, 38, 80
1, 212640, Note_on_c, 9, 36, 80
1, 213119, Note_on_c, 9, 38, 0
1, 213119, Note_on_c, 9, 36, 0
1, 213120, Note_on_c, 9, 36, 80
1, 213599, Note_on_c, 9, 36, 0
1, 213600, Note_on_c, 9, 38, 80
1, 213600, Note_on_c, 9, 36, 80
1, 214079, Note_on_c, 9, 38, 0
1, 214079, Note_on_c, 9, 36, 0
1, 214080, Note_on_c, 9, 36, 80
1, 214559, Note_on_c, 9, 36, 0
1, 214560, Note_on_c, 9, 38, 80
1, 214560, Note_on_c, 9, 36, 80
1, 215039, Note_on_c, 9, 38, 0
1, 215039, Note_on_c, 9, 36, 0
1, 215040, Note_on_c, 9, 36, 80
1, 215519, Note_on_c, 9, 36, 0
1, 215520, Note_on_c, 9, 38, 80
1, 215520, Note_on_c, 9, 36, 80
1, 215999, Note_on_c, 9, 38, 0
1, 215999, Note_on_c, 9, 36, 0
1, 216000, Note_on_c, 9, 36, 80
1, 216479, Note_on_c, 9, 36, 0
1, 216480, Note_on_c, 9, 38, 80
1, 216480, Note_on_c, 9, 36, 80
1, 216719, Note_on_c, 9, 36, 0
1, 216720, Note_on_c, 9, 36, 80
1, 216839, Note_on_c, 9, 36, 0
1, 216840, Note_on_c, 9, 36, 80
1, 216959, Note_on_c, 9, 38, 0
1, 216959, Note_on_c, 9, 36, 0
1, 216960, Note_on_c, 9, 36, 80
1, 217439, Note_on_c, 9, 36, 0
1, 217440, Note_on_c, 9, 38, 80
1, 217440, Note_on_c, 9, 36, 80
1, 217919, Note_on_c, 9, 38, 0
1, 217919, Note_on_c, 9, 36, 0
1, 217920, Note_on_c, 9, 36, 80
1, 218399, Note_on_c, 9, 36, 0
1, 218400, Note_on_c, 9, 38, 80
1, 218400, Note_on_c, 9, 36, 80
1, 218879, Note_on_c, 9, 38, 0
1, 218879, Note_on_c, 9, 36, 0
1, 218880, Note_on_c, 9, 36, 80
1, 219359, Note_on_c, 9, 36, 0
1, 219360, Note_on_c, 9, 38, 80
1, 219360, Note_on_c, 9, 36, 80
1, 219839, Note_on_c, 9, 38, 0
1, 219839, Note_on_c, 9, 36, 0
1, 219840, Note_on_c, 9, 36, 80
1, 220319, Note_on_c, 9, 36, 0
1, 220320, Note_on_c, 9, 38, 80
1, 220320, Note_on_c, 9, 36, 80
1, 220799, Note_on_c, 9, 38, 0
1, 220799, Note_on_c, 9, 36, 0
1, 220800, Note_on_c, 9, 36, 80
1, 221279, Note_on_c, 9, 36, 0
1, 221280, Note_on_c, 9, 38, 80
1, 221280, Note_on_c, 9, 36, 80
1, 221759, Note_on_c, 9, 38, 0
1, 221759, Note_on_c, 9, 36, 0
1, 221760, Note_on_c, 9, 36, 80
1, 222239, Note_on_c, 9, 36, 0
1, 222240, Note_on_c, 9, 38, 80
1, 222240, Note_on_c, 9, 36, 80
1, 222719, Note_on_c, 9, 38, 0
1, 222719, Note_on_c, 9, 36, 0
1, 222720, Note_on_c, 9, 36, 80
1, 223199, Note_on_c, 9, 36, 0
1, 223200, Note_on_c, 9, 38, 80
1, 223200, Note_on_c, 9, 36, 80
1, 223679, Note_on_c, 9, 38, 0
1, 223679, Note_on_c, 9, 36, 0
1, 223680, Note_on_c, 9, 36, 80
1, 224159, Note_on_c, 9, 36, 0
1, 224160, Note_on_c, 9, 38, 80
1, 224160, Note_on_c, 9, 36, 80
1, 224279, Note_on_c, 9, 38, 0
1, 224280, Note_on_c, 9, 38, 80
1, 224399, Note_on_c, 9, 38, 0
1, 224400, Note_on_c, 9, 38, 80
1, 224519, Note_on_c, 9, 38, 0
1, 224520, Note_on_c, 9, 38, 80
1, 224639, Note_on_c, 9, 36, 0
1, 224639, Note_on_c, 9, 38, 0
1, 224640, Note_on_c, 9, 36, 80
1, 225119, Note_on_c, 9, 36, 0
1, 225120, Note_on_c, 9, 38, 80
1, 225120, Note_on_c, 9, 36, 80
1, 225599, Note_on_c, 9, 38, 0
1, 225599, Note_on_c, 9, 36, 0
1, 225600, Note_on_c, 9, 36, 80
1, 226079, Note_on_c, 9, 36, 0
1, 226080, Note_on_c, 9, 38, 80
1, 226080, Note_on_c, 9, 36, 80
1, 226559, Note_on_c, 9, 38, 0
1, 226559, Note_on_c, 9, 36, 0
1, 226560, Note_on_c, 9, 36, 80
1, 227039, Note_on_c, 9, 36, 0
1, 227040, Note_on_c, 9, 38, 80
1, 227040, Note_on_c, 9, 36, 80
1, 227519, Note_on_c, 9, 38, 0
1, 227519, Note_on_c, 9, 36, 0
1, 227520, Note_on_c, 9, 36, 80
1, 227999, Note_on_c, 9, 36, 0
1, 228000, Note_on_c, 9, 38, 80
1, 228000, Note_on_c, 9, 36, 80
1, 228479, Note_on_c, 9, 38, 0
1, 228479, Note_on_c, 9, 36, 0
1, 228480, Note_on_c, 9, 36, 80
1, 228959, Note_on_c, 9, 36, 0
1, 228960, Note_on_c, 9, 38, 80
1, 228960, Note_on_c, 9, 36, 80
1, 229439, Note_on_c, 9, 38, 0
1, 229439, Note_on_c, 9, 36, 0
1, 229440, Note_on_c, 9, 36, 80
1, 229919, Note_on_c, 9, 36, 0
1, 229920, Note_on_c, 9, 38, 80
1, 229920, Note_on_c, 9, 36, 80
1, 230399, Note_on_c, 9, 38, 0
1, 230399, Note_on_c, 9, 36, 0
1, 230400, Note_on_c, 9, 36, 80
1, 230879, Note_on_c, 9, 36, 0
1, 230880, Note_on_c, 9, 38, 80
1, 230880, Note_on_c, 9, 36, 80
1, 231359, Note_on_c, 9, 38, 0
1, 231359, Note_on_c, 9, 36, 0
1, 231360, Note_on_c, 9, 36, 80
1, 231839, Note_on_c, 9, 36, 0
1, 231840, Note_on_c, 9, 38, 80
1, 231840, Note_on_c, 9, 36, 80
1, 232079, Note_on_c, 9, 36, 0
1, 232080, Note_on_c, 9, 36, 80
1, 232199, Note_on_c, 9, 36, 0
1, 232200, Note_on_c, 9, 36, 80
1, 232319, Note_on_c, 9, 38, 0
1, 232319, Note_on_c, 9, 36, 0
1, 232320, Note_on_c, 9, 36, 80
1, 232799, Note_on_c, 9, 36, 0
1, 232800, Note_on_c, 9, 38, 80
1, 232800, Note_on_c, 9, 36, 80
1, 233279, Note_on_c, 9, 38, 0
1, 233279, Note_on_c, 9, 36, 0
1, 233280, Note_on_c, 9, 36, 80
1, 233759, Note_on_c, 9, 36, 0
1, 233760, Note_on_c, 9, 38, 80
1, 233760, Note_on_c, 9, 36, 80
1, 234239, Note_on_c, 9, 38, 0
1, 234239, Note_on_c, 9, 36, 0
1, 234240, Note_on_c, 9, 36, 80
1, 234719, Note_on_c, 9, 36, 0
1, 234720, Note_on_c, 9, 38, 80
1, 234720, Note_on_c, 9, 36, 80
1, 235199, Note_on_c, 9, 38, 0
1, 235199, Note_on_c, 9, 36, 0
1, 235200, Note_on_c, 9, 36, 80
1, 235679, Note_on_c, 9, 36, 0
1, 235680, Note_on_c, 9, 38, 80
1, 235680, Note_on_c, 9, 36, 80
1, 236159, Note_on_c, 9, 38, 0
1, 236159, Note_on_c, 9, 36, 0
1, 236160, Note_on_c, 9, 36, 80
1, 236639, Note_on_c, 9, 36, 0
1, 236640, Note_on_c, 9, 38, 80
1, 236640, Note_on_c, 9, 36, 80
1, 237119, Note_on_c, 9, 38, 0
1, 237119, Note_on_c, 9, 36, 0
1, 237120, Note_on_c, 9, 36, 80
1, 237599, Note_on_c, 9, 36, 0
1, 237600, Note_on_c, 9, 38, 80
1, 237600, Note_on_c, 9, 36, 80
1, 238079, Note_on_c, 9, 38, 0
1, 238079, Note_on_c, 9, 36, 0
1, 238080, Note_on_c, 9, 36, 80
1, 238559, Note_on_c, 9, 36, 0
1, 238560, Note_on_c, 9, 38, 80
1, 238560, Note_on_c, 9, 36, 80
1, 239039, Note_on_c, 9, 38, 0
1, 239039, Note_on_c, 9, 36, 0
1, 239040, Note_on_c, 9, 36, 80
1, 239519, Note_on_c, 9, 36, 0
1, 239520, Note_on_c, 9, 38, 80
1, 239520, Note_on_c, 9, 36, 80
1, 239639, Note_on_c, 9, 38, 0
1, 239640, Note_on_c, 9, 38, 80
1, 239759, Note_on_c, 9, 38, 0
1, 239760, Note_on_c, 9, 38, 80
1, 239879, Note_on_c, 9, 38, 0
1, 239880, Note_on_c, 9, 38, 80
1, 239999, Note_on_c, 9, 36, 0
1, 239999, Note_on_c, 9, 38, 0
1, 240000, Note_on_c, 9, 36, 80
1, 240479, Note_on_c, 9, 36, 0
1, 240480, Note_on_c, 9, 38, 80
1, 240480, Note_on_c, 9, 36, 80
1, 240959, Note_on_c, 9, 38, 0
1, 240959, Note_on_c, 9, 36, 0
1, 240960, Note_on_c, 9, 36, 80
1, 241439, Note_on_c, 9, 36, 0
1, 241440, Note_on_c, 9, 38, 80
1, 241440, Note_on_c, 9, 36, 80
1, 241919, Note_on_c, 9, 38, 0
1, 241919, Note_on_c, 9, 36, 0
1, 241920, Note_on_c, 9, 36, 80
1, 242399, Note_on_c, 9, 36, 0
1, 242400, Note_on_c, 9, 38, 80
1, 242400, Note_on_c, 9, 36, 80
1, 242879, Note_on_c, 9, 38, 0
1, 242879, Note_on_c, 9, 36, 0
1, 242880, Note_on_c, 9, 36, 80
1, 243359, Note_on_c, 9, 36, 0
1, 243360, Note_on_c, 9, 38, 80
1, 243360, Note_on_c, 9, 36, 80
1, 243839, Note_on_c, 9, 38, 0
1, 243839, Note_on_c, 9, 36, 0
1, 243840, Note_on_c, 9, 36, 80
1, 244319, Note_on_c, 9, 36, 0
1, 244320, Note_on_c, 9, 38, 80
1, 244320, Note_on_c, 9, 36, 80
1, 244799, Note_on_c, 9, 38, 0
1, 244799, Note_on_c, 9, 36, 0
1, 244800, Note_on_c, 9, 36, 80
1, 245279, Note_on_c, 9, 36, 0
1, 245280, Note_on_c, 9, 38, 80
1, 245280, Note_on_c, 9, 36, 80
1, 245759, Note_on_c, 9, 38, 0
1, 245759, Note_on_c, 9, 36, 0
1, 245760, Note_on_c, 9, 36, 80
1, 246239, Note_on_c, 9, 36, 0
1, 246240, Note_on_c, 9, 38, 80
1, 246240, Note_on_c, 9, 36, 80
1, 246719, Note_on_c, 9, 38, 0
1, 246719, Note_on_c, 9, 36, 0
1, 246720, Note_on_c, 9, 36, 80
1, 247199, Note_on_c, 9, 36, 0
1, 247200, Note_on_c, 9, 38, 80
1, 247200, Note_on_c, 9, 36, 80
1, 247439, Note_on_c, 9, 36, 0
1, 247440, Note_on_c, 9, 36, 80
1, 247559, Note_on_c, 9, 36, 0
1, 247560, Note_on_c, 9, 36, 80
1, 247679, Note_on_c, 9, 38, 0
1, 247679, Note_on_c, 9, 36, 0
1, 247680, End_track
2, 0, Start_track
2, 0, Key_signature, 0, "major"
2, 0, Control_c, 9, 121, 0
2, 0, Program_c, 9, 0
2, 0, Control_c, 9, 7, 100
2, 0, Control_c, 9, 10, 64
2, 0, Control_c, 9, 91, 0
2, 0, Control_c, 9, 93, 0
2, 0, MIDI_port, 1
2, 5760, Note_on_c, 9, 42, 80
2, 5999, Note_on_c, 9, 42, 0
2, 6000, Note_on_c, 9, 42, 80
2, 6119, Note_on_c, 9, 42, 0
2, 6120, Note_on_c, 9, 42, 80
2, 6239, Note_on_c, 9, 42, 0
2, 6240, Note_on_c, 9, 42, 80
2, 6479, Note_on_c, 9, 42, 0
2, 6480, Note_on_c, 9, 42, 80
2, 6599, Note_on_c, 9, 42, 0
2, 6600, Note_on_c, 9, 42, 80
2, 6719, Note_on_c, 9, 42, 0
2, 6720, Note_on_c, 9, 42, 80
2, 6959, Note_on_c, 9, 42, 0
2, 6960, Note_on_c, 9, 42, 80
2, 7079, Note_on_c, 9, 42, 0
2, 7080, Note_on_c, 9, 42, 80
2, 7199, Note_on_c, 9, 42, 0
2, 7200, Note_on_c, 9, 42, 80
2, 7439, Note_on_c, 9, 42, 0
2, 7440, Note_on_c, 9, 42, 80
2, 7559, Note_on_c, 9, 42, 0
2, 7560, Note_on_c, 9, 42, 80
2, 7679, Note_on_c, 9, 42, 0
2, 7680, Note_on_c, 9, 42, 80
2, 7919, Note_on_c, 9, 42, 0
2, 7920, Note_on_c, 9, 42, 80
2, 8039, Note_on_c, 9, 42, 0
2, 8040, Note_on_c, 9, 42, 80
2, 8159, Note_on_c, 9, 42, 0
2, 8160, Note_on_c, 9, 42, 80
2, 8399, Note_on_c, 9, 42, 0
2, 8400, Note_on_c, 9, 42, 80
2, 8519, Note_on_c, 9, 42, 0
2, 8520, Note_on_c, 9, 42, 80
2, 8639, Note_on_c, 9, 42, 0
2, 8640, Note_on_c, 9, 42, 80
2, 8879, Note_on_c, 9, 42, 0
2, 8880, Note_on_c, 9, 42, 80
2, 8999, Note_on_c, 9, 42, 0
2, 9000, Note_on_c, 9, 42, 80
2, 9119, Note_on_c, 9, 42, 0
2, 9120, Note_on_c, 9, 42, 80
2, 9359, Note_on_c, 9, 42, 0
2, 9360, Note_on_c, 9, 42, 80
2, 9479, Note_on_c, 9, 42, 0
2, 9480, Note_on_c, 9, 46, 80
2, 9599, Note_on_c, 9, 46, 0
2, 13440, Note_on_c, 9, 42, 80
2, 13679, Note_on_c, 9, 42, 0
2, 13680, Note_on_c, 9, 42, 80
2, 13799, Note_on_c, 9, 42, 0
2, 13800, Note_on_c, 9, 42, 80
2, 13919, Note_on_c, 9, 42, 0
2, 13920, Note_on_c, 9, 42, 80
2, 14159, Note_on_c, 9, 42, 0
2, 14160, Note_on_c, 9, 42, 80
2, 14279, Note_on_c, 9, 42, 0
2, 14280, Note_on_c, 9, 42, 80
2, 14399, Note_on_c, 9, 42, 0
2, 14400, Note_on_c, 9, 42, 80
2, 14639, Note_on_c, 9, 42, 0
2, 14640, Note_on_c, 9, 42, 80
2, 14759, Note_on_c, 9, 42, 0
2, 14760, Note_on_c, 9, 42, 80
2, 14879, Note_on_c, 9, 42, 0
2, 14880, Note_on_c, 9, 42, 80
2, 15119, Note_on_c, 9, 42, 0
2, 15120, Note_on_c, 9, 42, 80
2, 15239, Note_on_c, 9, 42, 0
2, 15240, Note_on_c, 9, 42, 80
2, 15359, Note_on_c, 9, 42, 0
2, 15360, Note_on_c, 9, 42, 80
2, 15599, Note_on_c, 9, 42, 0
2, 15600, Note_on_c, 9, 42, 80
2, 15719, Note_on_c, 9, 42, 0
2, 15720, Note_on_c, 9, 42, 80
2, 15839, Note_on_c, 9, 42, 0
2, 15840, Note_on_c, 9, 42, 80
2, 16079, Note_on_c, 9, 42, 0
2, 16080, Note_on_c, 9, 42, 80
2, 16199, Note_on_c, 9, 42, 0
2, 16200, Note_on_c, 9, 42, 80
2, 16319, Note_on_c, 9, 42, 0
2, 16320, Note_on_c, 9, 42, 80
2, 16559, Note_on_c, 9, 42, 0
2, 16560, Note_on_c, 9, 42, 80
2, 16679, Note_on_c, 9, 42, 0
2, 16680, Note_on_c, 9, 42, 80
2, 16799, Note_on_c, 9, 42, 0
2, 16800, Note_on_c, 9, 42, 80
2, 17039, Note_on_c, 9, 42, 0
2, 17040, Note_on_c, 9, 42, 80
2, 17159, Note_on_c, 9, 42, 0
2, 17160, Note_on_c, 9, 46, 80
2, 17279, Note_on_c, 9, 46, 0
2, 17280, Note_on_c, 9, 42, 80
2, 17519, Note_on_c, 9, 42, 0
2, 17520, Note_on_c, 9, 42, 80
2, 17639, Note_on_c, 9, 42, 0
2, 17640, Note_on_c, 9, 42, 80
2, 17759, Note_on_c, 9, 42, 0
2, 17760, Note_on_c, 9, 42, 80
2, 17999, Note_on_c, 9, 42, 0
2, 18000, Note_on_c, 9, 42, 80
2, 18119, Note_on_c, 9, 42, 0
2, 18120, Note_on_c, 9, 42, 80
2, 18239, Note_on_c, 9, 42, 0
2, 18240, Note_on_c, 9, 42, 80
2, 18479, Note_on_c, 9, 42, 0
2, 18480, Note_on_c, 9, 42, 80
2, 18599, Note_on_c, 9, 42, 0
2, 18600, Note_on_c, 9, 42, 80
2, 18719, Note_on_c, 9, 42, 0
2, 18720, Note_on_c, 9, 42, 80
2, 18959, Note_on_c, 9, 42, 0
2, 18960, Note_on_c, 9, 42, 80
2, 19079, Note_on_c, 9, 42, 0
2, 19080, Note_on_c, 9, 42, 80
2, 19199, Note_on_c, 9, 42, 0
2, 19200, Note_on_c, 9, 42, 80
2, 19439, Note_on_c, 9, 42, 0
2, 19440, Note_on_c, 9, 42, 80
2, 19559, Note_on_c, 9, 42, 0
2, 19560, Note_on_c, 9, 42, 80
2, 19679, Note_on_c, 9, 42, 0
2, 19680, Note_on_c, 9, 42, 80
2, 19919, Note_on_c, 9, 42, 0
2, 19920, Note_on_c, 9, 42, 80
2, 20039, Note_on_c, 9, 42, 0
2, 20040, Note_on_c, 9, 42, 80
2, 20159, Note_on_c, 9, 42, 0
2, 20160, Note_on_c, 9, 42, 80
2, 20399, Note_on_c, 9, 42, 0
2, 20400, Note_on_c, 9, 42, 80
2, 20519, Note_on_c, 9, 42, 0
2, 20520, Note_on_c, 9, 42, 80
2, 20639, Note_on_c, 9, 42, 0
2, 20640, Note_on_c, 9, 42, 80
2, 20879, Note_on_c, 9, 42, 0
2, 20880, Note_on_c, 9, 42, 80
2, 20999, Note_on_c, 9, 42, 0
2, 21000, Note_on_c, 9, 46, 80
2, 21119, Note_on_c, 9, 46, 0
2, 21120, Note_on_c, 9, 42, 80
2, 21359, Note_on_c, 9, 42, 0
2, 21360, Note_on_c, 9, 42, 80
2, 21479, Note_on_c, 9, 42, 0
2, 21480, Note_on_c, 9, 42, 80
2, 21599, Note_on_c, 9, 42, 0
2, 21600, Note_on_c, 9, 42, 80
2, 21839, Note_on_c, 9, 42, 0
2, 21840, Note_on_c, 9, 42, 80
2, 21959, Note_on_c, 9, 42, 0
2, 21960, Note_on_c, 9, 42, 80
2, 22079, Note_on_c, 9, 42, 0
2, 22080, Note_on_c, 9, 42, 80
2, 22319, Note_on_c, 9, 42, 0
2, 22320, Note_on_c, 9, 42, 80
2, 22439, Note_on_c, 9, 42, 0
2, 22440, Note_on_c, 9, 42, 80
2, 22559, Note_on_c, 9, 42, 0
2, 22560, Note_on_c, 9, 42, 80
2, 22799, Note_on_c, 9, 42, 0
2, 22800, Note_on_c, 9, 42, 80
2, 22919, Note_on_c, 9, 42, 0
2, 22920, Note_on_c, 9, 42, 80
2, 23039, Note_on_c, 9, 42, 0
2, 23040, Note_on_c, 9, 42, 80
2, 23279, Note_on_c, 9, 42, 0
2, 23280, Note_on_c, 9, 42, 80
2, 23399, Note_on_c, 9, 42, 0
2, 23400, Note_on_c, 9, 42, 80
2, 23519, Note_on_c, 9, 42, 0
2, 23520, Note_on_c, 9, 42, 80
2, 23759, Note_on_c, 9, 42, 0
2, 23760, Note_on_c, 9, 42, 80
2, 23879, Note_on_c, 9, 42, 0
2, 23880, Note_on_c, 9, 42, 80
2, 23999, Note_on_c, 9, 42, 0
2, 24000, Note_on_c, 9, 42, 80
2, 24239, Note_on_c, 9, 42, 0
2, 24240, Note_on_c, 9, 42, 80
2, 24359, Note_on_c, 9, 42, 0
2, 24360, Note_on_c, 9, 42, 80
2, 24479, Note_on_c, 9, 42, 0
2, 24480, Note_on_c, 9, 42, 80
2, 24719, Note_on_c, 9, 42, 0
2, 24720, Note_on_c, 9, 42, 80
2, 24839, Note_on_c, 9, 42, 0
2, 24840, Note_on_c, 9, 46, 80
2, 24959, Note_on_c, 9, 46, 0
2, 24960, Note_on_c, 9, 42, 80
2, 25199, Note_on_c, 9, 42, 0
2, 25200, Note_on_c, 9, 42, 80
2, 25319, Note_on_c, 9, 42, 0
2, 25320, Note_on_c, 9, 42, 80
2, 25439, Note_on_c, 9, 42, 0
2, 25440, Note_on_c, 9, 42, 80
2, 25679, Note_on_c, 9, 42, 0
2, 25680, Note_on_c, 9, 42, 80
2, 25799, Note_on_c, 9, 42, 0
2, 25800, Note_on_c, 9, 42, 80
2, 25919, Note_on_c, 9, 42, 0
2, 25920, Note_on_c, 9, 42, 80
2, 26159, Note_on_c, 9, 42, 0
2, 26160, Note_on_c, 9, 42, 80
2, 26279, Note_on_c, 9, 42, 0
2, 26280, Note_on_c, 9, 42, 80
2, 26399, Note_on_c, 9, 42, 0
2, 26400, Note_on_c, 9, 42, 80
2, 26639, Note_on_c, 9, 42, 0
2, 26640, Note_on_c, 9, 42, 80
2, 26759, Note_on_c, 9, 42, 0
2, 26760, Note_on_c, 9, 42, 80
2, 26879, Note_on_c, 9, 42, 0
2, 26880, Note_on_c, 9, 42, 80
2, 27119, Note_on_c, 9, 42, 0
2, 27120, Note_on_c, 9, 42, 80
2, 27239, Note_on_c, 9, 42, 0
2, 27240, Note_on_c, 9, 42, 80
2, 27359, Note_on_c, 9, 42, 0
2, 27360, Note_on_c, 9, 42, 80
2, 27599, Note_on_c, 9, 42, 0
2, 27600, Note_on_c, 9, 42, 80
2, 27719, Note_on_c, 9, 42, 0
2, 27720, Note_on_c, 9, 42, 80
2, 27839, Note_on_c, 9, 42, 0
2, 27840, Note_on_c, 9, 42, 80
2, 28079, Note_on_c, 9, 42, 0
2, 28080, Note_on_c, 9, 42, 80
2, 28199, Note_on_c, 9, 42, 0
2, 28200, Note_on_c, 9, 42, 80
2, 28319, Note_on_c, 9, 42, 0
2, 28320, Note_on_c, 9, 42, 80
2, 28559, Note_on_c, 9, 42, 0
2, 28560, Note_on_c, 9, 42, 80
2, 28679, Note_on_c, 9, 42, 0
2, 28680, Note_on_c, 9, 46, 80
2, 28799, Note_on_c, 9, 46, 0
2, 28800, Note_on_c, 9, 42, 80
2, 29039, Note_on_c, 9, 42, 0
2, 29040, Note_on_c, 9, 42, 80
2, 29159, Note_on_c, 9, 42, 0
2, 29160, Note_on_c, 9, 42, 80
2, 29279, Note_on_c, 9, 42, 0
2, 29280, Note_on_c, 9, 42, 80
2, 29519, Note_on_c, 9, 42, 0
2, 29520, Note_on_c, 9, 42, 80
2, 29639, Note_on_c, 9, 42, 0
2, 29640, Note_on_c, 9, 42, 80
2, 29759, Note_on_c, 9, 42, 0
2, 29760, Note_on_c, 9, 42, 80
2, 29999, Note_on_c, 9, 42, 0
2, 30000, Note_on_c, 9, 42, 80
2, 30119, Note_on_c, 9, 42, 0
2, 30120, Note_on_c, 9, 42, 80
2, 30239, Note_on_c, 9, 42, 0
2, 30240, Note_on_c, 9, 42, 80
2, 30479, Note_on_c, 9, 42, 0
2, 30480, Note_on_c, 9, 42, 80
2, 30599, Note_on_c, 9, 42, 0
2, 30600, Note_on_c, 9, 42, 80
2, 30719, Note_on_c, 9, 42, 0
2, 30720, Note_on_c, 9, 42, 80
2, 30959, Note_on_c, 9, 42, 0
2, 30960, Note_on_c, 9, 42, 80
2, 31079, Note_on_c, 9, 42, 0
2, 31080, Note_on_c, 9, 42, 80
2, 31199, Note_on_c, 9, 42, 0
2, 31200, Note_on_c, 9, 42, 80
2, 31439, Note_on_c, 9, 42, 0
2, 31440, Note_on_c, 9, 42, 80
2, 31559, Note_on_c, 9, 42, 0
2, 31560, Note_on_c, 9, 42, 80
2, 31679, Note_on_c, 9, 42, 0
2, 31680, Note_on_c, 9, 42, 80
2, 31919, Note_on_c, 9, 42, 0
2, 31920, Note_on_c, 9, 42, 80
2, 32039, Note_on_c, 9, 42, 0
2, 32040, Note_on_c, 9, 42, 80
2, 32159, Note_on_c, 9, 42, 0
2, 32160, Note_on_c, 9, 42, 80
2, 32399, Note_on_c, 9, 42, 0
2, 32400, Note_on_c, 9, 42, 80
2, 32519, Note_on_c, 9, 42, 0
2, 32520, Note_on_c, 9, 46, 80
2, 32639, Note_on_c, 9, 46, 0
2, 32640, Note_on_c, 9, 42, 80
2, 32879, Note_on_c, 9, 42, 0
2, 32880, Note_on_c, 9, 42, 80
2, 32999, Note_on_c, 9, 42, 0
2, 33000, Note_on_c, 9, 42, 80
2, 33119, Note_on_c, 9, 42, 0
2, 33120, Note_on_c, 9, 42, 80
2, 33359, Note_on_c, 9, 42, 0
2, 33360, Note_on_c, 9, 42, 80
2, 33479, Note_on_c, 9, 42, 0
2, 33480, Note_on_c, 9, 42, 80
2, 33599, Note_on_c, 9, 42, 0
2, 33600, Note_on_c, 9, 42, 80
2, 33839, Note_on_c, 9, 42, 0
2, 33840, Note_on_c, 9, 42, 80
2, 33959, Note_on_c, 9, 42, 0
2, 33960, Note_on_c, 9, 42, 80
2, 34079, Note_on_c, 9, 42, 0
2, 34080, Note_on_c, 9, 42, 80
2, 34319, Note_on_c, 9, 42, 0
2, 34320, Note_on_c, 9, 42, 80
2, 34439, Note_on_c, 9, 42, 0
2, 34440, Note_on_c, 9, 42, 80
2, 34559, Note_on_c, 9, 42, 0
2, 36480, Note_on_c, 9, 42, 80
2, 36719, Note_on_c, 9, 42, 0
2, 36720, Note_on_c, 9, 42, 80
2, 36839, Note_on_c, 9, 42, 0
2, 36840, Note_on_c, 9, 42, 80
2, 36959, Note_on_c, 9, 42, 0
2, 36960, Note_on_c, 9, 42, 80
2, 37199, Note_on_c, 9, 42, 0
2, 37200, Note_on_c, 9, 42, 80
2, 37319, Note_on_c, 9, 42, 0
2, 37320, Note_on_c, 9, 42, 80
2, 37439, Note_on_c, 9, 42, 0
2, 37440, Note_on_c, 9, 42, 80
2, 37679, Note_on_c, 9, 42, 0
2, 37680, Note_on_c, 9, 42, 80
2, 37799, Note_on_c, 9, 42, 0
2, 37800, Note_on_c, 9, 42, 80
2, 37919, Note_on_c, 9, 42, 0
2, 37920, Note_on_c, 9, 42, 80
2, 38159, Note_on_c, 9, 42, 0
2, 38160, Note_on_c, 9, 42, 80
2, 38279, Note_on_c, 9, 42, 0
2, 38280, Note_on_c, 9, 42, 80
2, 38399, Note_on_c, 9, 42, 0
2, 38400, Note_on_c, 9, 42, 80
2, 38639, Note_on_c, 9, 42, 0
2, 38640, Note_on_c, 9, 42, 80
2, 38759, Note_on_c, 9, 42, 0
2, 38760, Note_on_c, 9, 42, 80
2, 38879, Note_on_c, 9, 42, 0
2, 38880, Note_on_c, 9, 42, 80
2, 39119, Note_on_c, 9, 42, 0
2, 39120, Note_on_c, 9, 42, 80
2, 39239, Note_on_c, 9, 42, 0
2, 39240, Note_on_c, 9, 42, 80
2, 39359, Note_on_c, 9, 42, 0
2, 39360, Note_on_c, 9, 42, 80
2, 39599, Note_on_c, 9, 42, 0
2, 39600, Note_on_c, 9, 42, 80
2, 39719, Note_on_c, 9, 42, 0
2, 39720, Note_on_c, 9, 42, 80
2, 39839, Note_on_c, 9, 42, 0
2, 39840, Note_on_c, 9, 42, 80
2, 40079, Note_on_c, 9, 42, 0
2, 40080, Note_on_c, 9, 42, 80
2, 40199, Note_on_c, 9, 42, 0
2, 40200, Note_on_c, 9, 46, 80
2, 40319, Note_on_c, 9, 46, 0
2, 40320, Note_on_c, 9, 42, 80
2, 40559, Note_on_c, 9, 42, 0
2, 40560, Note_on_c, 9, 42, 80
2, 40679, Note_on_c, 9, 42, 0
2, 40680, Note_on_c, 9, 42, 80
2, 40799, Note_on_c, 9, 42, 0
2, 40800, Note_on_c, 9, 42, 80
2, 41039, Note_on_c, 9, 42, 0
2, 41040, Note_on_c, 9, 42, 80
2, 41159, Note_on_c, 9, 42, 0
2, 41160, Note_on_c, 9, 42, 80
2, 41279, Note_on_c, 9, 42, 0
2, 41280, Note_on_c, 9, 42, 80
2, 41519, Note_on_c, 9, 42, 0
2, 41520, Note_on_c, 9, 42, 80
2, 41639, Note_on_c, 9, 42, 0
2, 41640, Note_on_c, 9, 42, 80
2, 41759, Note_on_c, 9, 42, 0
2, 41760, Note_on_c, 9, 42, 80
2, 41999, Note_on_c, 9, 42, 0
2, 42000, Note_on_c, 9, 42, 80
2, 42119, Note_on_c, 9, 42, 0
2, 42120, Note_on_c, 9, 42, 80
2, 42239, Note_on_c, 9, 42, 0
2, 42240, Note_on_c, 9, 42, 80
2, 42479, Note_on_c, 9, 42, 0
2, 42480, Note_on_c, 9, 42, 80
2, 42599, Note_on_c, 9, 42, 0
2, 42600, Note_on_c, 9, 42, 80
2, 42719, Note_on_c, 9, 42, 0
2, 42720, Note_on_c, 9, 42, 80
2, 42959, Note_on_c, 9, 42, 0
2, 42960, Note_on_c, 9, 42, 80
2, 43079, Note_on_c, 9, 42, 0
2, 43080, Note_on_c, 9, 42, 80
2, 43199, Note_on_c, 9, 42, 0
2, 43200, Note_on_c, 9, 42, 80
2, 43439, Note_on_c, 9, 42, 0
2, 43440, Note_on_c, 9, 42, 80
2, 43559, Note_on_c, 9, 42, 0
2, 43560, Note_on_c, 9, 42, 80
2, 43679, Note_on_c, 9, 42, 0
2, 43680, Note_on_c, 9, 42, 80
2, 43919, Note_on_c, 9, 42, 0
2, 43920, Note_on_c, 9, 42, 80
2, 44039, Note_on_c, 9, 42, 0
2, 44040, Note_on_c, 9, 46, 80
2, 44159, Note_on_c, 9, 46, 0
2, 44160, Note_on_c, 9, 42, 80
2, 44399, Note_on_c, 9, 42, 0
2, 44400, Note_on_c, 9, 42, 80
2, 44519, Note_on_c, 9, 42, 0
2, 44520, Note_on_c, 9, 42, 80
2, 44639, Note_on_c, 9, 42, 0
2, 44640, Note_on_c, 9, 42, 80
2, 44879, Note_on_c, 9, 42, 0
2, 44880, Note_on_c, 9, 42, 80
2, 44999, Note_on_c, 9, 42, 0
2, 45000, Note_on_c, 9, 42, 80
2, 45119, Note_on_c, 9, 42, 0
2, 45120, Note_on_c, 9, 42, 80
2, 45359, Note_on_c, 9, 42, 0
2, 45360, Note_on_c, 9, 42, 80
2, 45479, Note_on_c, 9, 42, 0
2, 45480, Note_on_c, 9, 42, 80
2, 45599, Note_on_c, 9, 42, 0
2, 45600, Note_on_c, 9, 42, 80
2, 45839, Note_on_c, 9, 42, 0
2, 45840, Note_on_c, 9, 42, 80
2, 45959, Note_on_c, 9, 42, 0
2, 45960, Note_on_c, 9, 42, 80
2, 46079, Note_on_c, 9, 42, 0
2, 46080, Note_on_c, 9, 42, 80
2, 46319, Note_on_c, 9, 42, 0
2, 46320, Note_on_c, 9, 42, 80
2, 46439, Note_on_c, 9, 42, 0
2, 46440, Note_on_c, 9, 42, 80
2, 46559, Note_on_c, 9, 42, 0
2, 46560, Note_on_c, 9, 42, 80
2, 46799, Note_on_c, 9, 42, 0
2, 46800, Note_on_c, 9, 42, 80
2, 46919, Note_on_c, 9, 42, 0
2, 46920, Note_on_c, 9, 42, 80
2, 47039, Note_on_c, 9, 42, 0
2, 47040, Note_on_c, 9, 42, 80
2, 47279, Note_on_c, 9, 42, 0
2, 47280, Note_on_c, 9, 42, 80
2, 47399, Note_on_c, 9, 42, 0
2, 47400, Note_on_c, 9, 42, 80
2, 47519, Note_on_c, 9, 42, 0
2, 47520, Note_on_c, 9, 42, 80
2, 47759, Note_on_c, 9, 42, 0
2, 47760, Note_on_c, 9, 42, 80
2, 47879, Note_on_c, 9, 42, 0
2, 47880, Note_on_c, 9, 46, 80
2, 47999, Note_on_c, 9, 46, 0
2, 48000, Note_on_c, 9, 42, 80
2, 48239, Note_on_c, 9, 42, 0
2, 48240, Note_on_c, 9, 42, 80
2, 48359, Note_on_c, 9, 42, 0
2, 48360, Note_on_c, 9, 42, 80
2, 48479, Note_on_c, 9, 42, 0
2, 48480, Note_on_c, 9, 42, 80
2, 48719, Note_on_c, 9, 42, 0
2, 48720, Note_on_c, 9, 42, 80
2, 48839, Note_on_c, 9, 42, 0
2, 48840, Note_on_c, 9, 42, 80
2, 48959, Note_on_c, 9, 42, 0
2, 48960, Note_on_c, 9, 42, 80
2, 49199, Note_on_c, 9, 42, 0
2, 49200, Note_on_c, 9, 42, 80
2, 49319, Note_on_c, 9, 42, 0
2, 49320, Note_on_c, 9, 42, 80
2, 49439, Note_on_c, 9, 42, 0
2, 49440, Note_on_c, 9, 42, 80
2, 49679, Note_on_c, 9, 42, 0
2, 49680, Note_on_c, 9, 42, 80
2, 49799, Note_on_c, 9, 42, 0
2, 49800, Note_on_c, 9, 42, 80
2, 49919, Note_on_c, 9, 42, 0
2, 49920, Note_on_c, 9, 42, 80
2, 50159, Note_on_c, 9, 42, 0
2, 50160, Note_on_c, 9, 42, 80
2, 50279, Note_on_c, 9, 42, 0
2, 50280, Note_on_c, 9, 42, 80
2, 50399, Note_on_c, 9, 42, 0
2, 50400, Note_on_c, 9, 42, 80
2, 50639, Note_on_c, 9, 42, 0
2, 50640, Note_on_c, 9, 42, 80
2, 50759, Note_on_c, 9, 42, 0
2, 50760, Note_on_c, 9, 42, 80
2, 50879, Note_on_c, 9, 42, 0
2, 50880, Note_on_c, 9, 42, 80
2, 51119, Note_on_c, 9, 42, 0
2, 51120, Note_on_c, 9, 42, 80
2, 51239, Note_on_c, 9, 42, 0
2, 51240, Note_on_c, 9, 42, 80
2, 51359, Note_on_c, 9, 42, 0
2, 51360, Note_on_c, 9, 42, 80
2, 51599, Note_on_c, 9, 42, 0
2, 51600, Note_on_c, 9, 42, 80
2, 51719, Note_on_c, 9, 42, 0
2, 51720, Note_on_c, 9, 46, 80
2, 51839, Note_on_c, 9, 46, 0
2, 51840, Note_on_c, 9, 42, 80
2, 52079, Note_on_c, 9, 42, 0
2, 52080, Note_on_c, 9, 42, 80
2, 52199, Note_on_c, 9, 42, 0
2, 52200, Note_on_c, 9, 42, 80
2, 52319, Note_on_c, 9, 42, 0
2, 52320, Note_on_c, 9, 42, 80
2, 52559, Note_on_c, 9, 42, 0
2, 52560, Note_on_c, 9, 42, 80
2, 52679, Note_on_c, 9, 42, 0
2, 52680, Note_on_c, 9, 42, 80
2, 52799, Note_on_c, 9, 42, 0
2, 52800, Note_on_c, 9, 42, 80
2, 53039, Note_on_c, 9, 42, 0
2, 53040, Note_on_c, 9, 42, 80
2, 53159, Note_on_c, 9, 42, 0
2, 53160, Note_on_c, 9, 42, 80
2, 53279, Note_on_c, 9, 42, 0
2, 53280, Note_on_c, 9, 42, 80
2, 53519, Note_on_c, 9, 42, 0
2, 53520, Note_on_c, 9, 42, 80
2, 53639, Note_on_c, 9, 42, 0
2, 53640, Note_on_c, 9, 42, 80
2, 53759, Note_on_c, 9, 42, 0
2, 53760, Note_on_c, 9, 42, 80
2, 53999, Note_on_c, 9, 42, 0
2, 54000, Note_on_c, 9, 42, 80
2, 54119, Note_on_c, 9, 42, 0
2, 54120, Note_on_c, 9, 42, 80
2, 54239, Note_on_c, 9, 42, 0
2, 54240, Note_on_c, 9, 42, 80
2, 54479, Note_on_c, 9, 42, 0
2, 54480, Note_on_c, 9, 42, 80
2, 54599, Note_on_c, 9, 42, 0
2, 54600, Note_on_c, 9, 42, 80
2, 54719, Note_on_c, 9, 42, 0
2, 54720, Note_on_c, 9, 42, 80
2, 54959, Note_on_c, 9, 42, 0
2, 54960, Note_on_c, 9, 42, 80
2, 55079, Note_on_c, 9, 42, 0
2, 55080, Note_on_c, 9, 42, 80
2, 55199, Note_on_c, 9, 42, 0
2, 55200, Note_on_c, 9, 42, 80
2, 55439, Note_on_c, 9, 42, 0
2, 55440, Note_on_c, 9, 42, 80
2, 55559, Note_on_c, 9, 42, 0
2, 55560, Note_on_c, 9, 46, 80
2, 55679, Note_on_c, 9, 46, 0
2, 55680, Note_on_c, 9, 42, 80
2, 55919, Note_on_c, 9, 42, 0
2, 55920, Note_on_c, 9, 42, 80
2, 56039, Note_on_c, 9, 42, 0
2, 56040, Note_on_c, 9, 42, 80
2, 56159, Note_on_c, 9, 42, 0
2, 56160, Note_on_c, 9, 42, 80
2, 56399, Note_on_c, 9, 42, 0
2, 56400, Note_on_c, 9, 42, 80
2, 56519, Note_on_c, 9, 42, 0
2, 56520, Note_on_c, 9, 42, 80
2, 56639, Note_on_c, 9, 42, 0
2, 56640, Note_on_c, 9, 42, 80
2, 56879, Note_on_c, 9, 42, 0
2, 56880, Note_on_c, 9, 42, 80
2, 56999, Note_on_c, 9, 42, 0
2, 57000, Note_on_c, 9, 42, 80
2, 57119, Note_on_c, 9, 42, 0
2, 57120, Note_on_c, 9, 42, 80
2, 57359, Note_on_c, 9, 42, 0
2, 57360, Note_on_c, 9, 42, 80
2, 57479, Note_on_c, 9, 42, 0
2, 57480, Note_on_c, 9, 42, 80
2, 57599, Note_on_c, 9, 42, 0
2, 57600, Note_on_c, 9, 42, 80
2, 57839, Note_on_c, 9, 42, 0
2, 57840, Note_on_c, 9, 42, 80
2, 57959, Note_on_c, 9, 42, 0
2, 57960, Note_on_c, 9, 42, 80
2, 58079, Note_on_c, 9, 42, 0
2, 58080, Note_on_c, 9, 42, 80
2, 58319, Note_on_c, 9, 42, 0
2, 58320, Note_on_c, 9, 42, 80
2, 58439, Note_on_c, 9, 42, 0
2, 58440, Note_on_c, 9, 42, 80
2, 58559, Note_on_c, 9, 42, 0
2, 58560, Note_on_c, 9, 42, 80
2, 58799, Note_on_c, 9, 42, 0
2, 58800, Note_on_c, 9, 42, 80
2, 58919, Note_on_c, 9, 42, 0
2, 58920, Note_on_c, 9, 42, 80
2, 59039, Note_on_c, 9, 42, 0
2, 59040, Note_on_c, 9, 42, 80
2, 59279, Note_on_c, 9, 42, 0
2, 59280, Note_on_c, 9, 42, 80
2, 59399, Note_on_c, 9, 42, 0
2, 59400, Note_on_c, 9, 46, 80
2, 59519, Note_on_c, 9, 46, 0
2, 59520, Note_on_c, 9, 42, 80
2, 59759, Note_on_c, 9, 42, 0
2, 59760, Note_on_c, 9, 42, 80
2, 59879, Note_on_c, 9, 42, 0
2, 59880, Note_on_c, 9, 42, 80
2, 59999, Note_on_c, 9, 42, 0
2, 60000, Note_on_c, 9, 42, 80
2, 60239, Note_on_c, 9, 42, 0
2, 60240, Note_on_c, 9, 42, 80
2, 60359, Note_on_c, 9, 42, 0
2, 60360, Note_on_c, 9, 42, 80
2, 60479, Note_on_c, 9, 42, 0
2, 60480, Note_on_c, 9, 42, 80
2, 60719, Note_on_c, 9, 42, 0
2, 60720, Note_on_c, 9, 42, 80
2, 60839, Note_on_c, 9, 42, 0
2, 60840, Note_on_c, 9, 42, 80
2, 60959, Note_on_c, 9, 42, 0
2, 60960, Note_on_c, 9, 42, 80
2, 61199, Note_on_c, 9, 42, 0
2, 61200, Note_on_c, 9, 42, 80
2, 61319, Note_on_c, 9, 42, 0
2, 61320, Note_on_c, 9, 42, 80
2, 61439, Note_on_c, 9, 42, 0
2, 61440, Note_on_c, 9, 42, 80
2, 61679, Note_on_c, 9, 42, 0
2, 61680, Note_on_c, 9, 42, 80
2, 61799, Note_on_c, 9, 42, 0
2, 61800, Note_on_c, 9, 42, 80
2, 61919, Note_on_c, 9, 42, 0
2, 61920, Note_on_c, 9, 42, 80
2, 62159, Note_on_c, 9, 42, 0
2, 62160, Note_on_c, 9, 42, 80
2, 62279, Note_on_c, 9, 42, 0
2, 62280, Note_on_c, 9, 42, 80
2, 62399, Note_on_c, 9, 42, 0
2, 62400, Note_on_c, 9, 42, 80
2, 62639, Note_on_c, 9, 42, 0
2, 62640, Note_on_c, 9, 42, 80
2, 62759, Note_on_c, 9, 42, 0
2, 62760, Note_on_c, 9, 42, 80
2, 62879, Note_on_c, 9, 42, 0
2, 62880, Note_on_c, 9, 42, 80
2, 63119, Note_on_c, 9, 42, 0
2, 63120, Note_on_c, 9, 42, 80
2, 63239, Note_on_c, 9, 42, 0
2, 63240, Note_on_c, 9, 46, 80
2, 63359, Note_on_c, 9, 46, 0
2, 63360, Note_on_c, 9, 42, 80
2, 63599, Note_on_c, 9, 42, 0
2, 63600, Note_on_c, 9, 42, 80
2, 63719, Note_on_c, 9, 42, 0
2, 63720, Note_on_c, 9, 42, 80
2, 63839, Note_on_c, 9, 42, 0
2, 63840, Note_on_c, 9, 42, 80
2, 64079, Note_on_c, 9, 42, 0
2, 64080, Note_on_c, 9, 42, 80
2, 64199, Note_on_c, 9, 42, 0
2, 64200, Note_on_c, 9, 42, 80
2, 64319, Note_on_c, 9, 42, 0
2, 64320, Note_on_c, 9, 42, 80
2, 64559, Note_on_c, 9, 42, 0
2, 64560, Note_on_c, 9, 42, 80
2, 64679, Note_on_c, 9, 42, 0
2, 64680, Note_on_c, 9, 42, 80
2, 64799, Note_on_c, 9, 42, 0
2, 64800, Note_on_c, 9, 42, 80
2, 65039, Note_on_c, 9, 42, 0
2, 65040, Note_on_c, 9, 42, 80
2, 65159, Note_on_c, 9, 42, 0
2, 65160, Note_on_c, 9, 42, 80
2, 65279, Note_on_c, 9, 42, 0
2, 65280, Note_on_c, 9, 42, 80
2, 65519, Note_on_c, 9, 42, 0
2, 65520, Note_on_c, 9, 42, 80
2, 65639, Note_on_c, 9, 42, 0
2, 65640, Note_on_c, 9, 42, 80
2, 65759, Note_on_c, 9, 42, 0
2, 65760, Note_on_c, 9, 42, 80
2, 65999, Note_on_c, 9, 42, 0
2, 66000, Note_on_c, 9, 42, 80
2, 66119, Note_on_c, 9, 42, 0
2, 66120, Note_on_c, 9, 42, 80
2, 66239, Note_on_c, 9, 42, 0
2, 66240, Note_on_c, 9, 42, 80
2, 66479, Note_on_c, 9, 42, 0
2, 66480, Note_on_c, 9, 42, 80
2, 66599, Note_on_c, 9, 42, 0
2, 66600, Note_on_c, 9, 42, 80
2, 66719, Note_on_c, 9, 42, 0
2, 66720, Note_on_c, 9, 42, 80
2, 66959, Note_on_c, 9, 42, 0
2, 66960, Note_on_c, 9, 42, 80
2, 67079, Note_on_c, 9, 42, 0
2, 67080, Note_on_c, 9, 46, 80
2, 67199, Note_on_c, 9, 46, 0
2, 67200, Note_on_c, 9, 42, 80
2, 67439, Note_on_c, 9, 42, 0
2, 67440, Note_on_c, 9, 42, 80
2, 67559, Note_on_c, 9, 42, 0
2, 67560, Note_on_c, 9, 42, 80
2, 67679, Note_on_c, 9, 42, 0
2, 67680, Note_on_c, 9, 42, 80
2, 67919, Note_on_c, 9, 42, 0
2, 67920, Note_on_c, 9, 42, 80
2, 68039, Note_on_c, 9, 42, 0
2, 68040, Note_on_c, 9, 42, 80
2, 68159, Note_on_c, 9, 42, 0
2, 68160, Note_on_c, 9, 42, 80
2, 68399, Note_on_c, 9, 42, 0
2, 68400, Note_on_c, 9, 42, 80
2, 68519, Note_on_c, 9, 42, 0
2, 68520, Note_on_c, 9, 42, 80
2, 68639, Note_on_c, 9, 42, 0
2, 68640, Note_on_c, 9, 42, 80
2, 68879, Note_on_c, 9, 42, 0
2, 68880, Note_on_c, 9, 42, 80
2, 68999, Note_on_c, 9, 42, 0
2, 69000, Note_on_c, 9, 42, 80
2, 69119, Note_on_c, 9, 42, 0
2, 69120, Note_on_c, 9, 42, 80
2, 69359, Note_on_c, 9, 42, 0
2, 69360, Note_on_c, 9, 42, 80
2, 69479, Note_on_c, 9, 42, 0
2, 69480, Note_on_c, 9, 42, 80
2, 69599, Note_on_c, 9, 42, 0
2, 69600, Note_on_c, 9, 42, 80
2, 69839, Note_on_c, 9, 42, 0
2, 69840, Note_on_c, 9, 42, 80
2, 69959, Note_on_c, 9, 42, 0
2, 69960, Note_on_c, 9, 42, 80
2, 70079, Note_on_c, 9, 42, 0
2, 70080, Note_on_c, 9, 42, 80
2, 70319, Note_on_c, 9, 42, 0
2, 70320, Note_on_c, 9, 42, 80
2, 70439, Note_on_c, 9, 42, 0
2, 70440, Note_on_c, 9, 42, 80
2, 70559, Note_on_c, 9, 42, 0
2, 70560, Note_on_c, 9, 42, 80
2, 70799, Note_on_c, 9, 42, 0
2, 70800, Note_on_c, 9, 42, 80
2, 70919, Note_on_c, 9, 42, 0
2, 70920, Note_on_c, 9, 46, 80
2, 71039, Note_on_c, 9, 46, 0
2, 71040, Note_on_c, 9, 42, 80
2, 71279, Note_on_c, 9, 42, 0
2, 71280, Note_on_c, 9, 42, 80
2, 71399, Note_on_c, 9, 42, 0
2, 71400, Note_on_c, 9, 42, 80
2, 71519, Note_on_c, 9, 42, 0
2, 71520, Note_on_c, 9, 42, 80
2, 71759, Note_on_c, 9, 42, 0
2, 71760, Note_on_c, 9, 42, 80
2, 71879, Note_on_c, 9, 42, 0
2, 71880, Note_on_c, 9, 42, 80
2, 71999, Note_on_c, 9, 42, 0
2, 72000, Note_on_c, 9, 42, 80
2, 72239, Note_on_c, 9, 42, 0
2, 72240, Note_on_c, 9, 42, 80
2, 72359, Note_on_c, 9, 42, 0
2, 72360, Note_on_c, 9, 42, 80
2, 72479, Note_on_c, 9, 42, 0
2, 72480, Note_on_c, 9, 42, 80
2, 72719, Note_on_c, 9, 42, 0
2, 72720, Note_on_c, 9, 42, 80
2, 72839, Note_on_c, 9, 42, 0
2, 72840, Note_on_c, 9, 42, 80
2, 72959, Note_on_c, 9, 42, 0
2, 74880, Note_on_c, 9, 42, 80
2, 75119, Note_on_c, 9, 42, 0
2, 75120, Note_on_c, 9, 42, 80
2, 75239, Note_on_c, 9, 42, 0
2, 75240, Note_on_c, 9, 42, 80
2, 75359, Note_on_c, 9, 42, 0
2, 75360, Note_on_c, 9, 42, 80
2, 75599, Note_on_c, 9, 42, 0
2, 75600, Note_on_c, 9, 42, 80
2, 75719, Note_on_c, 9, 42, 0
2, 75720, Note_on_c, 9, 42, 80
2, 75839, Note_on_c, 9, 42, 0
2, 75840, Note_on_c, 9, 42, 80
2, 76079, Note_on_c, 9, 42, 0
2, 76080, Note_on_c, 9, 42, 80
2, 76199, Note_on_c, 9, 42, 0
2, 76200, Note_on_c, 9, 42, 80
2, 76319, Note_on_c, 9, 42, 0
2, 76320, Note_on_c, 9, 42, 80
2, 76559, Note_on_c, 9, 42, 0
2, 76560, Note_on_c, 9, 42, 80
2, 76679, Note_on_c, 9, 42, 0
2, 76680, Note_on_c, 9, 42, 80
2, 76799, Note_on_c, 9, 42, 0
2, 76800, Note_on_c, 9, 42, 80
2, 77039, Note_on_c, 9, 42, 0
2, 77040, Note_on_c, 9, 42, 80
2, 77159, Note_on_c, 9, 42, 0
2, 77160, Note_on_c, 9, 42, 80
2, 77279, Note_on_c, 9, 42, 0
2, 77280, Note_on_c, 9, 42, 80
2, 77519, Note_on_c, 9, 42, 0
2, 77520, Note_on_c, 9, 42, 80
2, 77639, Note_on_c, 9, 42, 0
2, 77640, Note_on_c, 9, 42, 80
2, 77759, Note_on_c, 9, 42, 0
2, 77760, Note_on_c, 9, 42, 80
2, 77999, Note_on_c, 9, 42, 0
2, 78000, Note_on_c, 9, 42, 80
2, 78119, Note_on_c, 9, 42, 0
2, 78120, Note_on_c, 9, 42, 80
2, 78239, Note_on_c, 9, 42, 0
2, 78240, Note_on_c, 9, 42, 80
2, 78479, Note_on_c, 9, 42, 0
2, 78480, Note_on_c, 9, 42, 80
2, 78599, Note_on_c, 9, 42, 0
2, 78600, Note_on_c, 9, 46, 80
2, 78719, Note_on_c, 9, 46, 0
2, 78720, Note_on_c, 9, 42, 80
2, 78959, Note_on_c, 9, 42, 0
2, 78960, Note_on_c, 9, 42, 80
2, 79079, Note_on_c, 9, 42, 0
2, 79080, Note_on_c, 9, 42, 80
2, 79199, Note_on_c, 9, 42, 0
2, 79200, Note_on_c, 9, 42, 80
2, 79439, Note_on_c, 9, 42, 0
2, 79440, Note_on_c, 9, 42, 80
2, 79559, Note_on_c, 9, 42, 0
2, 79560, Note_on_c, 9, 42, 80
2, 79679, Note_on_c, 9, 42, 0
2, 79680, Note_on_c, 9, 42, 80
2, 79919, Note_on_c, 9, 42, 0
2, 79920, Note_on_c, 9, 42, 80
2, 80039, Note_on_c, 9, 42, 0
2, 80040, Note_on_c, 9, 42, 80
2, 80159, Note_on_c, 9, 42, 0
2, 80160, Note_on_c, 9, 42, 80
2, 80399, Note_on_c, 9, 42, 0
2, 80400, Note_on_c, 9, 42, 80
2, 80519, Note_on_c, 9, 42, 0
2, 80520, Note_on_c, 9, 42, 80
2, 80639, Note_on_c, 9, 42, 0
2, 80640, Note_on_c, 9, 42, 80
2, 80879, Note_on_c, 9, 42, 0
2, 80880, Note_on_c, 9, 42, 80
2, 80999, Note_on_c, 9, 42, 0
2, 81000, Note_on_c, 9, 42, 80
2, 81119, Note_on_c, 9, 42, 0
2, 81120, Note_on_c, 9, 42, 80
2, 81359, Note_on_c, 9, 42, 0
2, 81360, Note_on_c, 9, 42, 80
2, 81479, Note_on_c, 9, 42, 0
2, 81480, Note_on_c, 9, 42, 80
2, 81599, Note_on_c, 9, 42, 0
2, 81600, Note_on_c, 9, 42, 80
2, 81839, Note_on_c, 9, 42, 0
2, 81840, Note_on_c, 9, 42, 80
2, 81959, Note_on_c, 9, 42, 0
2, 81960, Note_on_c, 9, 42, 80
2, 82079, Note_on_c, 9, 42, 0
2, 82080, Note_on_c, 9, 42, 80
2, 82319, Note_on_c, 9, 42, 0
2, 82320, Note_on_c, 9, 42, 80
2, 82439, Note_on_c, 9, 42, 0
2, 82440, Note_on_c, 9, 46, 80
2, 82559, Note_on_c, 9, 46, 0
2, 82560, Note_on_c, 9, 42, 80
2, 82799, Note_on_c, 9, 42, 0
2, 82800, Note_on_c, 9, 42, 80
2, 82919, Note_on_c, 9, 42, 0
2, 82920, Note_on_c, 9, 42, 80
2, 83039, Note_on_c, 9, 42, 0
2, 83040, Note_on_c, 9, 42, 80
2, 83279, Note_on_c, 9, 42, 0
2, 83280, Note_on_c, 9, 42, 80
2, 83399, Note_on_c, 9, 42, 0
2, 83400, Note_on_c, 9, 42, 80
2, 83519, Note_on_c, 9, 42, 0
2, 83520, Note_on_c, 9, 42, 80
2, 83759, Note_on_c, 9, 42, 0
2, 83760, Note_on_c, 9, 42, 80
2, 83879, Note_on_c, 9, 42, 0
2, 83880, Note_on_c, 9, 42, 80
2, 83999, Note_on_c, 9, 42, 0
2, 84000, Note_on_c, 9, 42, 80
2, 84239, Note_on_c, 9, 42, 0
2, 84240, Note_on_c, 9, 42, 80
2, 84359, Note_on_c, 9, 42, 0
2, 84360, Note_on_c, 9, 42, 80
2, 84479, Note_on_c, 9, 42, 0
2, 84480, Note_on_c, 9, 42, 80
2, 84719, Note_on_c, 9, 42, 0
2, 84720, Note_on_c, 9, 42, 80
2, 84839, Note_on_c, 9, 42, 0
2, 84840, Note_on_c, 9, 42, 80
2, 84959, Note_on_c, 9, 42, 0
2, 84960, Note_on_c, 9, 42, 80
2, 85199, Note_on_c, 9, 42, 0
2, 85200, Note_on_c, 9, 42, 80
2, 85319, Note_on_c, 9, 42, 0
2, 85320, Note_on_c, 9, 42, 80
2, 85439, Note_on_c, 9, 42, 0
2, 85440, Note_on_c, 9, 42, 80
2, 85679, Note_on_c, 9, 42, 0
2, 85680, Note_on_c, 9, 42, 80
2, 85799, Note_on_c, 9, 42, 0
2, 85800, Note_on_c, 9, 42, 80
2, 85919, Note_on_c, 9, 42, 0
2, 85920, Note_on_c, 9, 42, 80
2, 86159, Note_on_c, 9, 42, 0
2, 86160, Note_on_c, 9, 42, 80
2, 86279, Note_on_c, 9, 42, 0
2, 86280, Note_on_c, 9, 46, 80
2, 86399, Note_on_c, 9, 46, 0
2, 86400, Note_on_c, 9, 42, 80
2, 86639, Note_on_c, 9, 42, 0
2, 86640, Note_on_c, 9, 42, 80
2, 86759, Note_on_c, 9, 42, 0
2, 86760, Note_on_c, 9, 42, 80
2, 86879, Note_on_c, 9, 42, 0
2, 86880, Note_on_c, 9, 42, 80
2, 87119, Note_on_c, 9, 42, 0
2, 87120, Note_on_c, 9, 42, 80
2, 87239, Note_on_c, 9, 42, 0
2, 87240, Note_on_c, 9, 42, 80
2, 87359, Note_on_c, 9, 42, 0
2, 87360, Note_on_c, 9, 42, 80
2, 87599, Note_on_c, 9, 42, 0
2, 87600, Note_on_c, 9, 42, 80
2, 87719, Note_on_c, 9, 42, 0
2, 87720, Note_on_c, 9, 42, 80
2, 87839, Note_on_c, 9, 42, 0
2, 87840, Note_on_c, 9, 42, 80
2, 88079, Note_on_c, 9, 42, 0
2, 88080, Note_on_c, 9, 42, 80
2, 88199, Note_on_c, 9, 42, 0
2, 88200, Note_on_c, 9, 42, 80
2, 88319, Note_on_c, 9, 42, 0
2, 88320, Note_on_c, 9, 42, 80
2, 88559, Note_on_c, 9, 42, 0
2, 88560, Note_on_c, 9, 42, 80
2, 88679, Note_on_c, 9, 42, 0
2, 88680, Note_on_c, 9, 42, 80
2, 88799, Note_on_c, 9, 42, 0
2, 88800, Note_on_c, 9, 42, 80
2, 89039, Note_on_c, 9, 42, 0
2, 89040, Note_on_c, 9, 42, 80
2, 89159, Note_on_c, 9, 42, 0
2, 89160, Note_on_c, 9, 42, 80
2, 89279, Note_on_c, 9, 42, 0
2, 89280, Note_on_c, 9, 42, 80
2, 89519, Note_on_c, 9, 42, 0
2, 89520, Note_on_c, 9, 42, 80
2, 89639, Note_on_c, 9, 42, 0
2, 89640, Note_on_c, 9, 42, 80
2, 89759, Note_on_c, 9, 42, 0
2, 89760, Note_on_c, 9, 42, 80
2, 89999, Note_on_c, 9, 42, 0
2, 90000, Note_on_c, 9, 42, 80
2, 90119, Note_on_c, 9, 42, 0
2, 90120, Note_on_c, 9, 46, 80
2, 90239, Note_on_c, 9, 46, 0
2, 90240, Note_on_c, 9, 42, 80
2, 90479, Note_on_c, 9, 42, 0
2, 90480, Note_on_c, 9, 42, 80
2, 90599, Note_on_c, 9, 42, 0
2, 90600, Note_on_c, 9, 42, 80
2, 90719, Note_on_c, 9, 42, 0
2, 90720, Note_on_c, 9, 42, 80
2, 90959, Note_on_c, 9, 42, 0
2, 90960, Note_on_c, 9, 42, 80
2, 91079, Note_on_c, 9, 42, 0
2, 91080, Note_on_c, 9, 42, 80
2, 91199, Note_on_c, 9, 42, 0
2, 91200, Note_on_c, 9, 42, 80
2, 91439, Note_on_c, 9, 42, 0
2, 91440, Note_on_c, 9, 42, 80
2, 91559, Note_on_c, 9, 42, 0
2, 91560, Note_on_c, 9, 42, 80
2, 91679, Note_on_c, 9, 42, 0
2, 91680, Note_on_c, 9, 42, 80
2, 91919, Note_on_c, 9, 42, 0
2, 91920, Note_on_c, 9, 42, 80
2, 92039, Note_on_c, 9, 42, 0
2, 92040, Note_on_c, 9, 42, 80
2, 92159, Note_on_c, 9, 42, 0
2, 92160, Note_on_c, 9, 42, 80
2, 92399, Note_on_c, 9, 42, 0
2, 92400, Note_on_c, 9, 42, 80
2, 92519, Note_on_c, 9, 42, 0
2, 92520, Note_on_c, 9, 42, 80
2, 92639, Note_on_c, 9, 42, 0
2, 92640, Note_on_c, 9, 42, 80
2, 92879, Note_on_c, 9, 42, 0
2, 92880, Note_on_c, 9, 42, 80
2, 92999, Note_on_c, 9, 42, 0
2, 93000, Note_on_c, 9, 42, 80
2, 93119, Note_on_c, 9, 42, 0
2, 93120, Note_on_c, 9, 42, 80
2, 93359, Note_on_c, 9, 42, 0
2, 93360, Note_on_c, 9, 42, 80
2, 93479, Note_on_c, 9, 42, 0
2, 93480, Note_on_c, 9, 42, 80
2, 93599, Note_on_c, 9, 42, 0
2, 93600, Note_on_c, 9, 42, 80
2, 93839, Note_on_c, 9, 42, 0
2, 93840, Note_on_c, 9, 42, 80
2, 93959, Note_on_c, 9, 42, 0
2, 93960, Note_on_c, 9, 46, 80
2, 94079, Note_on_c, 9, 46, 0
2, 94080, Note_on_c, 9, 42, 80
2, 94319, Note_on_c, 9, 42, 0
2, 94320, Note_on_c, 9, 42, 80
2, 94439, Note_on_c, 9, 42, 0
2, 94440, Note_on_c, 9, 42, 80
2, 94559, Note_on_c, 9, 42, 0
2, 94560, Note_on_c, 9, 42, 80
2, 94799, Note_on_c, 9, 42, 0
2, 94800, Note_on_c, 9, 42, 80
2, 94919, Note_on_c, 9, 42, 0
2, 94920, Note_on_c, 9, 42, 80
2, 95039, Note_on_c, 9, 42, 0
2, 95040, Note_on_c, 9, 42, 80
2, 95279, Note_on_c, 9, 42, 0
2, 95280, Note_on_c, 9, 42, 80
2, 95399, Note_on_c, 9, 42, 0
2, 95400, Note_on_c, 9, 42, 80
2, 95519, Note_on_c, 9, 42, 0
2, 95520, Note_on_c, 9, 42, 80
2, 95759, Note_on_c, 9, 42, 0
2, 95760, Note_on_c, 9, 42, 80
2, 95879, Note_on_c, 9, 42, 0
2, 95880, Note_on_c, 9, 42, 80
2, 95999, Note_on_c, 9, 42, 0
2, 96000, Note_on_c, 9, 42, 80
2, 96239, Note_on_c, 9, 42, 0
2, 96240, Note_on_c, 9, 42, 80
2, 96359, Note_on_c, 9, 42, 0
2, 96360, Note_on_c, 9, 42, 80
2, 96479, Note_on_c, 9, 42, 0
2, 96480, Note_on_c, 9, 42, 80
2, 96719, Note_on_c, 9, 42, 0
2, 96720, Note_on_c, 9, 42, 80
2, 96839, Note_on_c, 9, 42, 0
2, 96840, Note_on_c, 9, 42, 80
2, 96959, Note_on_c, 9, 42, 0
2, 96960, Note_on_c, 9, 42, 80
2, 97199, Note_on_c, 9, 42, 0
2, 97200, Note_on_c, 9, 42, 80
2, 97319, Note_on_c, 9, 42, 0
2, 97320, Note_on_c, 9, 42, 80
2, 97439, Note_on_c, 9, 42, 0
2, 97440, Note_on_c, 9, 42, 80
2, 97679, Note_on_c, 9, 42, 0
2, 97680, Note_on_c, 9, 42, 80
2, 97799, Note_on_c, 9, 42, 0
2, 97800, Note_on_c, 9, 46, 80
2, 97919, Note_on_c, 9, 46, 0
2, 97920, Note_on_c, 9, 41, 80
2, 98399, Note_on_c, 9, 41, 0
2, 98880, Note_on_c, 9, 41, 80
2, 99359, Note_on_c, 9, 41, 0
2, 99840, Note_on_c, 9, 41, 80
2, 100319, Note_on_c, 9, 41, 0
2, 101040, Note_on_c, 9, 40, 80
2, 101040, Note_on_c, 9, 39, 80
2, 101040, Note_on_c, 9, 50, 80
2, 101279, Note_on_c, 9, 40, 0
2, 101279, Note_on_c, 9, 39, 0
2, 101279, Note_on_c, 9, 50, 0
2, 101280, Note_on_c, 9, 40, 80
2, 101280, Note_on_c, 9, 39, 80
2, 101280, Note_on_c, 9, 48, 80
2, 101519, Note_on_c, 9, 40, 0
2, 101519, Note_on_c, 9, 39, 0
2, 101519, Note_on_c, 9, 48, 0
2, 101520, Note_on_c, 9, 40, 80
2, 101520, Note_on_c, 9, 47, 80
2, 101520, Note_on_c, 9, 39, 80
2, 101759, Note_on_c, 9, 40, 0
2, 101759, Note_on_c, 9, 47, 0
2, 101759, Note_on_c, 9, 39, 0
2, 101760, Note_on_c, 9, 42, 80
2, 101999, Note_on_c, 9, 42, 0
2, 102000, Note_on_c, 9, 42, 80
2, 102119, Note_on_c, 9, 42, 0
2, 102120, Note_on_c, 9, 42, 80
2, 102239, Note_on_c, 9, 42, 0
2, 102240, Note_on_c, 9, 42, 80
2, 102479, Note_on_c, 9, 42, 0
2, 102480, Note_on_c, 9, 42, 80
2, 102599, Note_on_c, 9, 42, 0
2, 102600, Note_on_c, 9, 42, 80
2, 102719, Note_on_c, 9, 42, 0
2, 102720, Note_on_c, 9, 42, 80
2, 102959, Note_on_c, 9, 42, 0
2, 102960, Note_on_c, 9, 42, 80
2, 103079, Note_on_c, 9, 42, 0
2, 103080, Note_on_c, 9, 42, 80
2, 103199, Note_on_c, 9, 42, 0
2, 103200, Note_on_c, 9, 42, 80
2, 103439, Note_on_c, 9, 42, 0
2, 103440, Note_on_c, 9, 42, 80
2, 103559, Note_on_c, 9, 42, 0
2, 103560, Note_on_c, 9, 42, 80
2, 103679, Note_on_c, 9, 42, 0
2, 103680, Note_on_c, 9, 42, 80
2, 103919, Note_on_c, 9, 42, 0
2, 103920, Note_on_c, 9, 42, 80
2, 104039, Note_on_c, 9, 42, 0
2, 104040, Note_on_c, 9, 42, 80
2, 104159, Note_on_c, 9, 42, 0
2, 104160, Note_on_c, 9, 42, 80
2, 104399, Note_on_c, 9, 42, 0
2, 104400, Note_on_c, 9, 42, 80
2, 104519, Note_on_c, 9, 42, 0
2, 104520, Note_on_c, 9, 42, 80
2, 104639, Note_on_c, 9, 42, 0
2, 104640, Note_on_c, 9, 42, 80
2, 104879, Note_on_c, 9, 42, 0
2, 104880, Note_on_c, 9, 42, 80
2, 104999, Note_on_c, 9, 42, 0
2, 105000, Note_on_c, 9, 42, 80
2, 105119, Note_on_c, 9, 42, 0
2, 105120, Note_on_c, 9, 42, 80
2, 105359, Note_on_c, 9, 42, 0
2, 105360, Note_on_c, 9, 42, 80
2, 105479, Note_on_c, 9, 42, 0
2, 105480, Note_on_c, 9, 46, 80
2, 105599, Note_on_c, 9, 46, 0
2, 105600, Note_on_c, 9, 42, 80
2, 105839, Note_on_c, 9, 42, 0
2, 105840, Note_on_c, 9, 42, 80
2, 105959, Note_on_c, 9, 42, 0
2, 105960, Note_on_c, 9, 42, 80
2, 106079, Note_on_c, 9, 42, 0
2, 106080, Note_on_c, 9, 42, 80
2, 106319, Note_on_c, 9, 42, 0
2, 106320, Note_on_c, 9, 42, 80
2, 106439, Note_on_c, 9, 42, 0
2, 106440, Note_on_c, 9, 42, 80
2, 106559, Note_on_c, 9, 42, 0
2, 106560, Note_on_c, 9, 42, 80
2, 106799, Note_on_c, 9, 42, 0
2, 106800, Note_on_c, 9, 42, 80
2, 106919, Note_on_c, 9, 42, 0
2, 106920, Note_on_c, 9, 42, 80
2, 107039, Note_on_c, 9, 42, 0
2, 107040, Note_on_c, 9, 42, 80
2, 107279, Note_on_c, 9, 42, 0
2, 107280, Note_on_c, 9, 42, 80
2, 107399, Note_on_c, 9, 42, 0
2, 107400, Note_on_c, 9, 42, 80
2, 107519, Note_on_c, 9, 42, 0
2, 107520, Note_on_c, 9, 42, 80
2, 107759, Note_on_c, 9, 42, 0
2, 107760, Note_on_c, 9, 42, 80
2, 107879, Note_on_c, 9, 42, 0
2, 107880, Note_on_c, 9, 42, 80
2, 107999, Note_on_c, 9, 42, 0
2, 108000, Note_on_c, 9, 42, 80
2, 108239, Note_on_c, 9, 42, 0
2, 108240, Note_on_c, 9, 42, 80
2, 108359, Note_on_c, 9, 42, 0
2, 108360, Note_on_c, 9, 42, 80
2, 108479, Note_on_c, 9, 42, 0
2, 108480, Note_on_c, 9, 42, 80
2, 108719, Note_on_c, 9, 42, 0
2, 108720, Note_on_c, 9, 42, 80
2, 108839, Note_on_c, 9, 42, 0
2, 108840, Note_on_c, 9, 42, 80
2, 108959, Note_on_c, 9, 42, 0
2, 108960, Note_on_c, 9, 42, 80
2, 109199, Note_on_c, 9, 42, 0
2, 109200, Note_on_c, 9, 42, 80
2, 109319, Note_on_c, 9, 42, 0
2, 109320, Note_on_c, 9, 46, 80
2, 109439, Note_on_c, 9, 46, 0
2, 109440, Note_on_c, 9, 42, 80
2, 109679, Note_on_c, 9, 42, 0
2, 109680, Note_on_c, 9, 42, 80
2, 109799, Note_on_c, 9, 42, 0
2, 109800, Note_on_c, 9, 42, 80
2, 109919, Note_on_c, 9, 42, 0
2, 109920, Note_on_c, 9, 42, 80
2, 110159, Note_on_c, 9, 42, 0
2, 110160, Note_on_c, 9, 42, 80
2, 110279, Note_on_c, 9, 42, 0
2, 110280, Note_on_c, 9, 42, 80
2, 110399, Note_on_c, 9, 42, 0
2, 110400, Note_on_c, 9, 42, 80
2, 110639, Note_on_c, 9, 42, 0
2, 110640, Note_on_c, 9, 42, 80
2, 110759, Note_on_c, 9, 42, 0
2, 110760, Note_on_c, 9, 42, 80
2, 110879, Note_on_c, 9, 42, 0
2, 110880, Note_on_c, 9, 42, 80
2, 111119, Note_on_c, 9, 42, 0
2, 111120, Note_on_c, 9, 42, 80
2, 111239, Note_on_c, 9, 42, 0
2, 111240, Note_on_c, 9, 42, 80
2, 111359, Note_on_c, 9, 42, 0
2, 111360, Note_on_c, 9, 42, 80
2, 111599, Note_on_c, 9, 42, 0
2, 111600, Note_on_c, 9, 42, 80
2, 111719, Note_on_c, 9, 42, 0
2, 111720, Note_on_c, 9, 42, 80
2, 111839, Note_on_c, 9, 42, 0
2, 111840, Note_on_c, 9, 42, 80
2, 112079, Note_on_c, 9, 42, 0
2, 112080, Note_on_c, 9, 42, 80
2, 112199, Note_on_c, 9, 42, 0
2, 112200, Note_on_c, 9, 42, 80
2, 112319, Note_on_c, 9, 42, 0
2, 112320, Note_on_c, 9, 42, 80
2, 112559, Note_on_c, 9, 42, 0
2, 112560, Note_on_c, 9, 42, 80
2, 112679, Note_on_c, 9, 42, 0
2, 112680, Note_on_c, 9, 42, 80
2, 112799, Note_on_c, 9, 42, 0
2, 112800, Note_on_c, 9, 42, 80
2, 113039, Note_on_c, 9, 42, 0
2, 113040, Note_on_c, 9, 42, 80
2, 113159, Note_on_c, 9, 42, 0
2, 113160, Note_on_c, 9, 46, 80
2, 113279, Note_on_c, 9, 46, 0
2, 113280, Note_on_c, 9, 42, 80
2, 113519, Note_on_c, 9, 42, 0
2, 113520, Note_on_c, 9, 42, 80
2, 113639, Note_on_c, 9, 42, 0
2, 113640, Note_on_c, 9, 42, 80
2, 113759, Note_on_c, 9, 42, 0
2, 113760, Note_on_c, 9, 42, 80
2, 113999, Note_on_c, 9, 42, 0
2, 114000, Note_on_c, 9, 42, 80
2, 114119, Note_on_c, 9, 42, 0
2, 114120, Note_on_c, 9, 42, 80
2, 114239, Note_on_c, 9, 42, 0
2, 114240, Note_on_c, 9, 42, 80
2, 114479, Note_on_c, 9, 42, 0
2, 114480, Note_on_c, 9, 42, 80
2, 114599, Note_on_c, 9, 42, 0
2, 114600, Note_on_c, 9, 42, 80
2, 114719, Note_on_c, 9, 42, 0
2, 114720, Note_on_c, 9, 42, 80
2, 114959, Note_on_c, 9, 42, 0
2, 114960, Note_on_c, 9, 42, 80
2, 115079, Note_on_c, 9, 42, 0
2, 115080, Note_on_c, 9, 42, 80
2, 115199, Note_on_c, 9, 42, 0
2, 115200, Note_on_c, 9, 42, 80
2, 115439, Note_on_c, 9, 42, 0
2, 115440, Note_on_c, 9, 42, 80
2, 115559, Note_on_c, 9, 42, 0
2, 115560, Note_on_c, 9, 42, 80
2, 115679, Note_on_c, 9, 42, 0
2, 115680, Note_on_c, 9, 42, 80
2, 115919, Note_on_c, 9, 42, 0
2, 115920, Note_on_c, 9, 42, 80
2, 116039, Note_on_c, 9, 42, 0
2, 116040, Note_on_c, 9, 42, 80
2, 116159, Note_on_c, 9, 42, 0
2, 116160, Note_on_c, 9, 42, 80
2, 116399, Note_on_c, 9, 42, 0
2, 116400, Note_on_c, 9, 42, 80
2, 116519, Note_on_c, 9, 42, 0
2, 116520, Note_on_c, 9, 42, 80
2, 116639, Note_on_c, 9, 42, 0
2, 116640, Note_on_c, 9, 42, 80
2, 116879, Note_on_c, 9, 42, 0
2, 116880, Note_on_c, 9, 42, 80
2, 116999, Note_on_c, 9, 42, 0
2, 117000, Note_on_c, 9, 42, 80
2, 117119, Note_on_c, 9, 42, 0
2, 117120, Note_on_c, 9, 42, 80
2, 117359, Note_on_c, 9, 42, 0
2, 117360, Note_on_c, 9, 42, 80
2, 117479, Note_on_c, 9, 42, 0
2, 117480, Note_on_c, 9, 42, 80
2, 117599, Note_on_c, 9, 42, 0
2, 117600, Note_on_c, 9, 42, 80
2, 117839, Note_on_c, 9, 42, 0
2, 117840, Note_on_c, 9, 42, 80
2, 117959, Note_on_c, 9, 42, 0
2, 117960, Note_on_c, 9, 42, 80
2, 118079, Note_on_c, 9, 42, 0
2, 118080, Note_on_c, 9, 42, 80
2, 118319, Note_on_c, 9, 42, 0
2, 118320, Note_on_c, 9, 42, 80
2, 118439, Note_on_c, 9, 42, 0
2, 118440, Note_on_c, 9, 42, 80
2, 118559, Note_on_c, 9, 42, 0
2, 118560, Note_on_c, 9, 42, 80
2, 118799, Note_on_c, 9, 42, 0
2, 118800, Note_on_c, 9, 42, 80
2, 118919, Note_on_c, 9, 42, 0
2, 118920, Note_on_c, 9, 42, 80
2, 119039, Note_on_c, 9, 42, 0
2, 119040, Note_on_c, 9, 42, 80
2, 119279, Note_on_c, 9, 42, 0
2, 119280, Note_on_c, 9, 42, 80
2, 119399, Note_on_c, 9, 42, 0
2, 119400, Note_on_c, 9, 42, 80
2, 119519, Note_on_c, 9, 42, 0
2, 119520, Note_on_c, 9, 42, 80
2, 119759, Note_on_c, 9, 42, 0
2, 119760, Note_on_c, 9, 42, 80
2, 119879, Note_on_c, 9, 42, 0
2, 119880, Note_on_c, 9, 42, 80
2, 119999, Note_on_c, 9, 42, 0
2, 120000, Note_on_c, 9, 42, 80
2, 120239, Note_on_c, 9, 42, 0
2, 120240, Note_on_c, 9, 42, 80
2, 120359, Note_on_c, 9, 42, 0
2, 120360, Note_on_c, 9, 42, 80
2, 120479, Note_on_c, 9, 42, 0
2, 120480, Note_on_c, 9, 42, 80
2, 120719, Note_on_c, 9, 42, 0
2, 120720, Note_on_c, 9, 42, 80
2, 120839, Note_on_c, 9, 42, 0
2, 120840, Note_on_c, 9, 46, 80
2, 120959, Note_on_c, 9, 46, 0
2, 120960, Note_on_c, 9, 42, 80
2, 121199, Note_on_c, 9, 42, 0
2, 121200, Note_on_c, 9, 42, 80
2, 121319, Note_on_c, 9, 42, 0
2, 121320, Note_on_c, 9, 42, 80
2, 121439, Note_on_c, 9, 42, 0
2, 121440, Note_on_c, 9, 42, 80
2, 121679, Note_on_c, 9, 42, 0
2, 121680, Note_on_c, 9, 42, 80
2, 121799, Note_on_c, 9, 42, 0
2, 121800, Note_on_c, 9, 42, 80
2, 121919, Note_on_c, 9, 42, 0
2, 121920, Note_on_c, 9, 42, 80
2, 122159, Note_on_c, 9, 42, 0
2, 122160, Note_on_c, 9, 42, 80
2, 122279, Note_on_c, 9, 42, 0
2, 122280, Note_on_c, 9, 42, 80
2, 122399, Note_on_c, 9, 42, 0
2, 122400, Note_on_c, 9, 42, 80
2, 122639, Note_on_c, 9, 42, 0
2, 122640, Note_on_c, 9, 42, 80
2, 122759, Note_on_c, 9, 42, 0
2, 122760, Note_on_c, 9, 42, 80
2, 122879, Note_on_c, 9, 42, 0
2, 122880, Note_on_c, 9, 42, 80
2, 123119, Note_on_c, 9, 42, 0
2, 123120, Note_on_c, 9, 42, 80
2, 123239, Note_on_c, 9, 42, 0
2, 123240, Note_on_c, 9, 42, 80
2, 123359, Note_on_c, 9, 42, 0
2, 123360, Note_on_c, 9, 42, 80
2, 123599, Note_on_c, 9, 42, 0
2, 123600, Note_on_c, 9, 42, 80
2, 123719, Note_on_c, 9, 42, 0
2, 123720, Note_on_c, 9, 42, 80
2, 123839, Note_on_c, 9, 42, 0
2, 123840, Note_on_c, 9, 42, 80
2, 124079, Note_on_c, 9, 42, 0
2, 124080, Note_on_c, 9, 42, 80
2, 124199, Note_on_c, 9, 42, 0
2, 124200, Note_on_c, 9, 42, 80
2, 124319, Note_on_c, 9, 42, 0
2, 124320, Note_on_c, 9, 42, 80
2, 124559, Note_on_c, 9, 42, 0
2, 124560, Note_on_c, 9, 42, 80
2, 124679, Note_on_c, 9, 42, 0
2, 124680, Note_on_c, 9, 46, 80
2, 124799, Note_on_c, 9, 46, 0
2, 124800, Note_on_c, 9, 42, 80
2, 125039, Note_on_c, 9, 42, 0
2, 125040, Note_on_c, 9, 42, 80
2, 125159, Note_on_c, 9, 42, 0
2, 125160, Note_on_c, 9, 42, 80
2, 125279, Note_on_c, 9, 42, 0
2, 125280, Note_on_c, 9, 42, 80
2, 125519, Note_on_c, 9, 42, 0
2, 125520, Note_on_c, 9, 42, 80
2, 125639, Note_on_c, 9, 42, 0
2, 125640, Note_on_c, 9, 42, 80
2, 125759, Note_on_c, 9, 42, 0
2, 125760, Note_on_c, 9, 42, 80
2, 125999, Note_on_c, 9, 42, 0
2, 126000, Note_on_c, 9, 42, 80
2, 126119, Note_on_c, 9, 42, 0
2, 126120, Note_on_c, 9, 42, 80
2, 126239, Note_on_c, 9, 42, 0
2, 126240, Note_on_c, 9, 42, 80
2, 126479, Note_on_c, 9, 42, 0
2, 126480, Note_on_c, 9, 42, 80
2, 126599, Note_on_c, 9, 42, 0
2, 126600, Note_on_c, 9, 42, 80
2, 126719, Note_on_c, 9, 42, 0
2, 126720, Note_on_c, 9, 42, 80
2, 126959, Note_on_c, 9, 42, 0
2, 126960, Note_on_c, 9, 42, 80
2, 127079, Note_on_c, 9, 42, 0
2, 127080, Note_on_c, 9, 42, 80
2, 127199, Note_on_c, 9, 42, 0
2, 127200, Note_on_c, 9, 42, 80
2, 127439, Note_on_c, 9, 42, 0
2, 127440, Note_on_c, 9, 42, 80
2, 127559, Note_on_c, 9, 42, 0
2, 127560, Note_on_c, 9, 42, 80
2, 127679, Note_on_c, 9, 42, 0
2, 127680, Note_on_c, 9, 42, 80
2, 127919, Note_on_c, 9, 42, 0
2, 127920, Note_on_c, 9, 42, 80
2, 128039, Note_on_c, 9, 42, 0
2, 128040, Note_on_c, 9, 42, 80
2, 128159, Note_on_c, 9, 42, 0
2, 128160, Note_on_c, 9, 42, 80
2, 128399, Note_on_c, 9, 42, 0
2, 128400, Note_on_c, 9, 42, 80
2, 128519, Note_on_c, 9, 42, 0
2, 128520, Note_on_c, 9, 46, 80
2, 128639, Note_on_c, 9, 46, 0
2, 128640, Note_on_c, 9, 42, 80
2, 128879, Note_on_c, 9, 42, 0
2, 128880, Note_on_c, 9, 42, 80
2, 128999, Note_on_c, 9, 42, 0
2, 129000, Note_on_c, 9, 42, 80
2, 129119, Note_on_c, 9, 42, 0
2, 129120, Note_on_c, 9, 42, 80
2, 129359, Note_on_c, 9, 42, 0
2, 129360, Note_on_c, 9, 42, 80
2, 129479, Note_on_c, 9, 42, 0
2, 129480, Note_on_c, 9, 42, 80
2, 129599, Note_on_c, 9, 42, 0
2, 129600, Note_on_c, 9, 42, 80
2, 129839, Note_on_c, 9, 42, 0
2, 129840, Note_on_c, 9, 42, 80
2, 129959, Note_on_c, 9, 42, 0
2, 129960, Note_on_c, 9, 42, 80
2, 130079, Note_on_c, 9, 42, 0
2, 130080, Note_on_c, 9, 42, 80
2, 130319, Note_on_c, 9, 42, 0
2, 130320, Note_on_c, 9, 42, 80
2, 130439, Note_on_c, 9, 42, 0
2, 130440, Note_on_c, 9, 42, 80
2, 130559, Note_on_c, 9, 42, 0
2, 130560, Note_on_c, 9, 42, 80
2, 130799, Note_on_c, 9, 42, 0
2, 130800, Note_on_c, 9, 42, 80
2, 130919, Note_on_c, 9, 42, 0
2, 130920, Note_on_c, 9, 42, 80
2, 131039, Note_on_c, 9, 42, 0
2, 131040, Note_on_c, 9, 42, 80
2, 131279, Note_on_c, 9, 42, 0
2, 131280, Note_on_c, 9, 42, 80
2, 131399, Note_on_c, 9, 42, 0
2, 131400, Note_on_c, 9, 42, 80
2, 131519, Note_on_c, 9, 42, 0
2, 131520, Note_on_c, 9, 42, 80
2, 131759, Note_on_c, 9, 42, 0
2, 131760, Note_on_c, 9, 42, 80
2, 131879, Note_on_c, 9, 42, 0
2, 131880, Note_on_c, 9, 42, 80
2, 131999, Note_on_c, 9, 42, 0
2, 132000, Note_on_c, 9, 42, 80
2, 132239, Note_on_c, 9, 42, 0
2, 132240, Note_on_c, 9, 42, 80
2, 132359, Note_on_c, 9, 42, 0
2, 132360, Note_on_c, 9, 46, 80
2, 132479, Note_on_c, 9, 46, 0
2, 132480, Note_on_c, 9, 42, 80
2, 132719, Note_on_c, 9, 42, 0
2, 132720, Note_on_c, 9, 42, 80
2, 132839, Note_on_c, 9, 42, 0
2, 132840, Note_on_c, 9, 42, 80
2, 132959, Note_on_c, 9, 42, 0
2, 132960, Note_on_c, 9, 42, 80
2, 133199, Note_on_c, 9, 42, 0
2, 133200, Note_on_c, 9, 42, 80
2, 133319, Note_on_c, 9, 42, 0
2, 133320, Note_on_c, 9, 42, 80
2, 133439, Note_on_c, 9, 42, 0
2, 133440, Note_on_c, 9, 42, 80
2, 133679, Note_on_c, 9, 42, 0
2, 133680, Note_on_c, 9, 42, 80
2, 133799, Note_on_c, 9, 42, 0
2, 133800, Note_on_c, 9, 42, 80
2, 133919, Note_on_c, 9, 42, 0
2, 133920, Note_on_c, 9, 42, 80
2, 134159, Note_on_c, 9, 42, 0
2, 134160, Note_on_c, 9, 42, 80
2, 134279, Note_on_c, 9, 42, 0
2, 134280, Note_on_c, 9, 42, 80
2, 134399, Note_on_c, 9, 42, 0
2, 134400, Note_on_c, 9, 42, 80
2, 134639, Note_on_c, 9, 42, 0
2, 134640, Note_on_c, 9, 42, 80
2, 134759, Note_on_c, 9, 42, 0
2, 134760, Note_on_c, 9, 42, 80
2, 134879, Note_on_c, 9, 42, 0
2, 134880, Note_on_c, 9, 42, 80
2, 135119, Note_on_c, 9, 42, 0
2, 135120, Note_on_c, 9, 42, 80
2, 135239, Note_on_c, 9, 42, 0
2, 135240, Note_on_c, 9, 42, 80
2, 135359, Note_on_c, 9, 42, 0
2, 135360, Note_on_c, 9, 42, 80
2, 135599, Note_on_c, 9, 42, 0
2, 135600, Note_on_c, 9, 42, 80
2, 135719, Note_on_c, 9, 42, 0
2, 135720, Note_on_c, 9, 42, 80
2, 135839, Note_on_c, 9, 42, 0
2, 135840, Note_on_c, 9, 42, 80
2, 136079, Note_on_c, 9, 42, 0
2, 136080, Note_on_c, 9, 42, 80
2, 136199, Note_on_c, 9, 42, 0
2, 136200, Note_on_c, 9, 46, 80
2, 136319, Note_on_c, 9, 46, 0
2, 136320, Note_on_c, 9, 42, 80
2, 136559, Note_on_c, 9, 42, 0
2, 136560, Note_on_c, 9, 42, 80
2, 136679, Note_on_c, 9, 42, 0
2, 136680, Note_on_c, 9, 42, 80
2, 136799, Note_on_c, 9, 42, 0
2, 136800, Note_on_c, 9, 42, 80
2, 137039, Note_on_c, 9, 42, 0
2, 137040, Note_on_c, 9, 42, 80
2, 137159, Note_on_c, 9, 42, 0
2, 137160, Note_on_c, 9, 42, 80
2, 137279, Note_on_c, 9, 42, 0
2, 137280, Note_on_c, 9, 42, 80
2, 137519, Note_on_c, 9, 42, 0
2, 137520, Note_on_c, 9, 42, 80
2, 137639, Note_on_c, 9, 42, 0
2, 137640, Note_on_c, 9, 42, 80
2, 137759, Note_on_c, 9, 42, 0
2, 137760, Note_on_c, 9, 42, 80
2, 137999, Note_on_c, 9, 42, 0
2, 138000, Note_on_c, 9, 42, 80
2, 138119, Note_on_c, 9, 42, 0
2, 138120, Note_on_c, 9, 42, 80
2, 138239, Note_on_c, 9, 42, 0
2, 138240, Note_on_c, 9, 42, 80
2, 138479, Note_on_c, 9, 42, 0
2, 138480, Note_on_c, 9, 42, 80
2, 138599, Note_on_c, 9, 42, 0
2, 138600, Note_on_c, 9, 42, 80
2, 138719, Note_on_c, 9, 42, 0
2, 138720, Note_on_c, 9, 42, 80
2, 138959, Note_on_c, 9, 42, 0
2, 138960, Note_on_c, 9, 42, 80
2, 139079, Note_on_c, 9, 42, 0
2, 139080, Note_on_c, 9, 42, 80
2, 139199, Note_on_c, 9, 42, 0
2, 139200, Note_on_c, 9, 42, 80
2, 139439, Note_on_c, 9, 42, 0
2, 139440, Note_on_c, 9, 42, 80
2, 139559, Note_on_c, 9, 42, 0
2, 139560, Note_on_c, 9, 42, 80
2, 139679, Note_on_c, 9, 42, 0
2, 139680, Note_on_c, 9, 42, 80
2, 139919, Note_on_c, 9, 42, 0
2, 139920, Note_on_c, 9, 42, 80
2, 140039, Note_on_c, 9, 42, 0
2, 140040, Note_on_c, 9, 46, 80
2, 140159, Note_on_c, 9, 46, 0
2, 155520, Note_on_c, 9, 42, 80
2, 155759, Note_on_c, 9, 42, 0
2, 155760, Note_on_c, 9, 42, 80
2, 155879, Note_on_c, 9, 42, 0
2, 155880, Note_on_c, 9, 42, 80
2, 155999, Note_on_c, 9, 42, 0
2, 156000, Note_on_c, 9, 42, 80
2, 156239, Note_on_c, 9, 42, 0
2, 156240, Note_on_c, 9, 42, 80
2, 156359, Note_on_c, 9, 42, 0
2, 156360, Note_on_c, 9, 42, 80
2, 156479, Note_on_c, 9, 42, 0
2, 156480, Note_on_c, 9, 42, 80
2, 156719, Note_on_c, 9, 42, 0
2, 156720, Note_on_c, 9, 42, 80
2, 156839, Note_on_c, 9, 42, 0
2, 156840, Note_on_c, 9, 42, 80
2, 156959, Note_on_c, 9, 42, 0
2, 156960, Note_on_c, 9, 42, 80
2, 157199, Note_on_c, 9, 42, 0
2, 157200, Note_on_c, 9, 42, 80
2, 157319, Note_on_c, 9, 42, 0
2, 157320, Note_on_c, 9, 42, 80
2, 157439, Note_on_c, 9, 42, 0
2, 157440, Note_on_c, 9, 42, 80
2, 157679, Note_on_c, 9, 42, 0
2, 157680, Note_on_c, 9, 42, 80
2, 157799, Note_on_c, 9, 42, 0
2, 157800, Note_on_c, 9, 42, 80
2, 157919, Note_on_c, 9, 42, 0
2, 157920, Note_on_c, 9, 42, 80
2, 158159, Note_on_c, 9, 42, 0
2, 158160, Note_on_c, 9, 42, 80
2, 158279, Note_on_c, 9, 42, 0
2, 158280, Note_on_c, 9, 42, 80
2, 158399, Note_on_c, 9, 42, 0
2, 158400, Note_on_c, 9, 42, 80
2, 158639, Note_on_c, 9, 42, 0
2, 158640, Note_on_c, 9, 42, 80
2, 158759, Note_on_c, 9, 42, 0
2, 158760, Note_on_c, 9, 42, 80
2, 158879, Note_on_c, 9, 42, 0
2, 158880, Note_on_c, 9, 42, 80
2, 159119, Note_on_c, 9, 42, 0
2, 159120, Note_on_c, 9, 42, 80
2, 159239, Note_on_c, 9, 42, 0
2, 159240, Note_on_c, 9, 46, 80
2, 159359, Note_on_c, 9, 46, 0
2, 159360, Note_on_c, 9, 42, 80
2, 159599, Note_on_c, 9, 42, 0
2, 159600, Note_on_c, 9, 42, 80
2, 159719, Note_on_c, 9, 42, 0
2, 159720, Note_on_c, 9, 42, 80
2, 159839, Note_on_c, 9, 42, 0
2, 159840, Note_on_c, 9, 42, 80
2, 160079, Note_on_c, 9, 42, 0
2, 160080, Note_on_c, 9, 42, 80
2, 160199, Note_on_c, 9, 42, 0
2, 160200, Note_on_c, 9, 42, 80
2, 160319, Note_on_c, 9, 42, 0
2, 160320, Note_on_c, 9, 42, 80
2, 160559, Note_on_c, 9, 42, 0
2, 160560, Note_on_c, 9, 42, 80
2, 160679, Note_on_c, 9, 42, 0
2, 160680, Note_on_c, 9, 42, 80
2, 160799, Note_on_c, 9, 42, 0
2, 160800, Note_on_c, 9, 42, 80
2, 161039, Note_on_c, 9, 42, 0
2, 161040, Note_on_c, 9, 42, 80
2, 161159, Note_on_c, 9, 42, 0
2, 161160, Note_on_c, 9, 42, 80
2, 161279, Note_on_c, 9, 42, 0
2, 161280, Note_on_c, 9, 42, 80
2, 161519, Note_on_c, 9, 42, 0
2, 161520, Note_on_c, 9, 42, 80
2, 161639, Note_on_c, 9, 42, 0
2, 161640, Note_on_c, 9, 42, 80
2, 161759, Note_on_c, 9, 42, 0
2, 161760, Note_on_c, 9, 42, 80
2, 161999, Note_on_c, 9, 42, 0
2, 162000, Note_on_c, 9, 42, 80
2, 162119, Note_on_c, 9, 42, 0
2, 162120, Note_on_c, 9, 42, 80
2, 162239, Note_on_c, 9, 42, 0
2, 162240, Note_on_c, 9, 42, 80
2, 162479, Note_on_c, 9, 42, 0
2, 162480, Note_on_c, 9, 42, 80
2, 162599, Note_on_c, 9, 42, 0
2, 162600, Note_on_c, 9, 42, 80
2, 162719, Note_on_c, 9, 42, 0
2, 162720, Note_on_c, 9, 42, 80
2, 162959, Note_on_c, 9, 42, 0
2, 162960, Note_on_c, 9, 42, 80
2, 163079, Note_on_c, 9, 42, 0
2, 163080, Note_on_c, 9, 46, 80
2, 163199, Note_on_c, 9, 46, 0
2, 163200, Note_on_c, 9, 42, 80
2, 163439, Note_on_c, 9, 42, 0
2, 163440, Note_on_c, 9, 42, 80
2, 163559, Note_on_c, 9, 42, 0
2, 163560, Note_on_c, 9, 42, 80
2, 163679, Note_on_c, 9, 42, 0
2, 163680, Note_on_c, 9, 42, 80
2, 163919, Note_on_c, 9, 42, 0
2, 163920, Note_on_c, 9, 42, 80
2, 164039, Note_on_c, 9, 42, 0
2, 164040, Note_on_c, 9, 42, 80
2, 164159, Note_on_c, 9, 42, 0
2, 164160, Note_on_c, 9, 42, 80
2, 164399, Note_on_c, 9, 42, 0
2, 164400, Note_on_c, 9, 42, 80
2, 164519, Note_on_c, 9, 42, 0
2, 164520, Note_on_c, 9, 42, 80
2, 164639, Note_on_c, 9, 42, 0
2, 164640, Note_on_c, 9, 42, 80
2, 164879, Note_on_c, 9, 42, 0
2, 164880, Note_on_c, 9, 42, 80
2, 164999, Note_on_c, 9, 42, 0
2, 165000, Note_on_c, 9, 42, 80
2, 165119, Note_on_c, 9, 42, 0
2, 165120, Note_on_c, 9, 42, 80
2, 165359, Note_on_c, 9, 42, 0
2, 165360, Note_on_c, 9, 42, 80
2, 165479, Note_on_c, 9, 42, 0
2, 165480, Note_on_c, 9, 42, 80
2, 165599, Note_on_c, 9, 42, 0
2, 165600, Note_on_c, 9, 42, 80
2, 165839, Note_on_c, 9, 42, 0
2, 165840, Note_on_c, 9, 42, 80
2, 165959, Note_on_c, 9, 42, 0
2, 165960, Note_on_c, 9, 42, 80
2, 166079, Note_on_c, 9, 42, 0
2, 166080, Note_on_c, 9, 42, 80
2, 166319, Note_on_c, 9, 42, 0
2, 166320, Note_on_c, 9, 42, 80
2, 166439, Note_on_c, 9, 42, 0
2, 166440, Note_on_c, 9, 42, 80
2, 166559, Note_on_c, 9, 42, 0
2, 166560, Note_on_c, 9, 42, 80
2, 166799, Note_on_c, 9, 42, 0
2, 166800, Note_on_c, 9, 42, 80
2, 166919, Note_on_c, 9, 42, 0
2, 166920, Note_on_c, 9, 46, 80
2, 167039, Note_on_c, 9, 46, 0
2, 167040, Note_on_c, 9, 42, 80
2, 167279, Note_on_c, 9, 42, 0
2, 167280, Note_on_c, 9, 42, 80
2, 167399, Note_on_c, 9, 42, 0
2, 167400, Note_on_c, 9, 42, 80
2, 167519, Note_on_c, 9, 42, 0
2, 167520, Note_on_c, 9, 42, 80
2, 167759, Note_on_c, 9, 42, 0
2, 167760, Note_on_c, 9, 42, 80
2, 167879, Note_on_c, 9, 42, 0
2, 167880, Note_on_c, 9, 42, 80
2, 167999, Note_on_c, 9, 42, 0
2, 168000, Note_on_c, 9, 42, 80
2, 168239, Note_on_c, 9, 42, 0
2, 168240, Note_on_c, 9, 42, 80
2, 168359, Note_on_c, 9, 42, 0
2, 168360, Note_on_c, 9, 42, 80
2, 168479, Note_on_c, 9, 42, 0
2, 168480, Note_on_c, 9, 42, 80
2, 168719, Note_on_c, 9, 42, 0
2, 168720, Note_on_c, 9, 42, 80
2, 168839, Note_on_c, 9, 42, 0
2, 168840, Note_on_c, 9, 42, 80
2, 168959, Note_on_c, 9, 42, 0
2, 168960, Note_on_c, 9, 42, 80
2, 169199, Note_on_c, 9, 42, 0
2, 169200, Note_on_c, 9, 42, 80
2, 169319, Note_on_c, 9, 42, 0
2, 169320, Note_on_c, 9, 42, 80
2, 169439, Note_on_c, 9, 42, 0
2, 169440, Note_on_c, 9, 42, 80
2, 169679, Note_on_c, 9, 42, 0
2, 169680, Note_on_c, 9, 42, 80
2, 169799, Note_on_c, 9, 42, 0
2, 169800, Note_on_c, 9, 42, 80
2, 169919, Note_on_c, 9, 42, 0
2, 169920, Note_on_c, 9, 42, 80
2, 170159, Note_on_c, 9, 42, 0
2, 170160, Note_on_c, 9, 42, 80
2, 170279, Note_on_c, 9, 42, 0
2, 170280, Note_on_c, 9, 42, 80
2, 170399, Note_on_c, 9, 42, 0
2, 170400, Note_on_c, 9, 42, 80
2, 170639, Note_on_c, 9, 42, 0
2, 170640, Note_on_c, 9, 42, 80
2, 170759, Note_on_c, 9, 42, 0
2, 170760, Note_on_c, 9, 46, 80
2, 170879, Note_on_c, 9, 46, 0
2, 170880, Note_on_c, 9, 42, 80
2, 171119, Note_on_c, 9, 42, 0
2, 171120, Note_on_c, 9, 42, 80
2, 171239, Note_on_c, 9, 42, 0
2, 171240, Note_on_c, 9, 42, 80
2, 171359, Note_on_c, 9, 42, 0
2, 171360, Note_on_c, 9, 42, 80
2, 171599, Note_on_c, 9, 42, 0
2, 171600, Note_on_c, 9, 42, 80
2, 171719, Note_on_c, 9, 42, 0
2, 171720, Note_on_c, 9, 42, 80
2, 171839, Note_on_c, 9, 42, 0
2, 171840, Note_on_c, 9, 42, 80
2, 172079, Note_on_c, 9, 42, 0
2, 172080, Note_on_c, 9, 42, 80
2, 172199, Note_on_c, 9, 42, 0
2, 172200, Note_on_c, 9, 42, 80
2, 172319, Note_on_c, 9, 42, 0
2, 172320, Note_on_c, 9, 42, 80
2, 172559, Note_on_c, 9, 42, 0
2, 172560, Note_on_c, 9, 42, 80
2, 172679, Note_on_c, 9, 42, 0
2, 172680, Note_on_c, 9, 42, 80
2, 172799, Note_on_c, 9, 42, 0
2, 172800, Note_on_c, 9, 42, 80
2, 173039, Note_on_c, 9, 42, 0
2, 173040, Note_on_c, 9, 42, 80
2, 173159, Note_on_c, 9, 42, 0
2, 173160, Note_on_c, 9, 42, 80
2, 173279, Note_on_c, 9, 42, 0
2, 173280, Note_on_c, 9, 42, 80
2, 173519, Note_on_c, 9, 42, 0
2, 173520, Note_on_c, 9, 42, 80
2, 173639, Note_on_c, 9, 42, 0
2, 173640, Note_on_c, 9, 42, 80
2, 173759, Note_on_c, 9, 42, 0
2, 173760, Note_on_c, 9, 42, 80
2, 173999, Note_on_c, 9, 42, 0
2, 174000, Note_on_c, 9, 42, 80
2, 174119, Note_on_c, 9, 42, 0
2, 174120, Note_on_c, 9, 42, 80
2, 174239, Note_on_c, 9, 42, 0
2, 174240, Note_on_c, 9, 42, 80
2, 174479, Note_on_c, 9, 42, 0
2, 174480, Note_on_c, 9, 42, 80
2, 174599, Note_on_c, 9, 42, 0
2, 174600, Note_on_c, 9, 46, 80
2, 174719, Note_on_c, 9, 46, 0
2, 174720, Note_on_c, 9, 42, 80
2, 174959, Note_on_c, 9, 42, 0
2, 174960, Note_on_c, 9, 42, 80
2, 175079, Note_on_c, 9, 42, 0
2, 175080, Note_on_c, 9, 42, 80
2, 175199, Note_on_c, 9, 42, 0
2, 175200, Note_on_c, 9, 42, 80
2, 175439, Note_on_c, 9, 42, 0
2, 175440, Note_on_c, 9, 42, 80
2, 175559, Note_on_c, 9, 42, 0
2, 175560, Note_on_c, 9, 42, 80
2, 175679, Note_on_c, 9, 42, 0
2, 175680, Note_on_c, 9, 42, 80
2, 175919, Note_on_c, 9, 42, 0
2, 175920, Note_on_c, 9, 42, 80
2, 176039, Note_on_c, 9, 42, 0
2, 176040, Note_on_c, 9, 42, 80
2, 176159, Note_on_c, 9, 42, 0
2, 176160, Note_on_c, 9, 42, 80
2, 176399, Note_on_c, 9, 42, 0
2, 176400, Note_on_c, 9, 42, 80
2, 176519, Note_on_c, 9, 42, 0
2, 176520, Note_on_c, 9, 42, 80
2, 176639, Note_on_c, 9, 42, 0
2, 176640, Note_on_c, 9, 42, 80
2, 176879, Note_on_c, 9, 42, 0
2, 176880, Note_on_c, 9, 42, 80
2, 176999, Note_on_c, 9, 42, 0
2, 177000, Note_on_c, 9, 42, 80
2, 177119, Note_on_c, 9, 42, 0
2, 177120, Note_on_c, 9, 42, 80
2, 177359, Note_on_c, 9, 42, 0
2, 177360, Note_on_c, 9, 42, 80
2, 177479, Note_on_c, 9, 42, 0
2, 177480, Note_on_c, 9, 42, 80
2, 177599, Note_on_c, 9, 42, 0
2, 177600, Note_on_c, 9, 42, 80
2, 177839, Note_on_c, 9, 42, 0
2, 177840, Note_on_c, 9, 42, 80
2, 177959, Note_on_c, 9, 42, 0
2, 177960, Note_on_c, 9, 42, 80
2, 178079, Note_on_c, 9, 42, 0
2, 178080, Note_on_c, 9, 42, 80
2, 178319, Note_on_c, 9, 42, 0
2, 178320, Note_on_c, 9, 42, 80
2, 178439, Note_on_c, 9, 42, 0
2, 178440, Note_on_c, 9, 46, 80
2, 178559, Note_on_c, 9, 46, 0
2, 178560, Note_on_c, 9, 36, 80
2, 179039, Note_on_c, 9, 36, 0
2, 179040, Note_on_c, 9, 36, 80
2, 179519, Note_on_c, 9, 36, 0
2, 179520, Note_on_c, 9, 36, 80
2, 179999, Note_on_c, 9, 36, 0
2, 180000, Note_on_c, 9, 36, 80
2, 180479, Note_on_c, 9, 36, 0
2, 180480, Note_on_c, 9, 36, 80
2, 180959, Note_on_c, 9, 36, 0
2, 180960, Note_on_c, 9, 36, 80
2, 181439, Note_on_c, 9, 36, 0
2, 181440, Note_on_c, 9, 36, 80
2, 181919, Note_on_c, 9, 36, 0
2, 181920, Note_on_c, 9, 36, 80
2, 182399, Note_on_c, 9, 36, 0
2, 182400, Note_on_c, 9, 36, 80
2, 182879, Note_on_c, 9, 36, 0
2, 182880, Note_on_c, 9, 36, 80
2, 183359, Note_on_c, 9, 36, 0
2, 183360, Note_on_c, 9, 36, 80
2, 183839, Note_on_c, 9, 36, 0
2, 183840, Note_on_c, 9, 36, 80
2, 184319, Note_on_c, 9, 36, 0
2, 184320, Note_on_c, 9, 36, 80
2, 184799, Note_on_c, 9, 36, 0
2, 184800, Note_on_c, 9, 36, 80
2, 185279, Note_on_c, 9, 36, 0
2, 185280, Note_on_c, 9, 36, 80
2, 185520, Note_on_c, 9, 38, 80
2, 185759, Note_on_c, 9, 36, 0
2, 185759, Note_on_c, 9, 38, 0
2, 185760, Note_on_c, 9, 38, 80
2, 185760, Note_on_c, 9, 36, 80
2, 185999, Note_on_c, 9, 38, 0
2, 186000, Note_on_c, 9, 38, 80
2, 186119, Note_on_c, 9, 38, 0
2, 186120, Note_on_c, 9, 38, 80
2, 186239, Note_on_c, 9, 36, 0
2, 186239, Note_on_c, 9, 38, 0
2, 186240, Note_on_c, 9, 42, 80
2, 186479, Note_on_c, 9, 42, 0
2, 186480, Note_on_c, 9, 42, 80
2, 186599, Note_on_c, 9, 42, 0
2, 186600, Note_on_c, 9, 42, 80
2, 186719, Note_on_c, 9, 42, 0
2, 186720, Note_on_c, 9, 42, 80
2, 186959, Note_on_c, 9, 42, 0
2, 186960, Note_on_c, 9, 42, 80
2, 187079, Note_on_c, 9, 42, 0
2, 187080, Note_on_c, 9, 42, 80
2, 187199, Note_on_c, 9, 42, 0
2, 187200, Note_on_c, 9, 42, 80
2, 187439, Note_on_c, 9, 42, 0
2, 187440, Note_on_c, 9, 42, 80
2, 187559, Note_on_c, 9, 42, 0
2, 187560, Note_on_c, 9, 42, 80
2, 187679, Note_on_c, 9, 42, 0
2, 187680, Note_on_c, 9, 42, 80
2, 187919, Note_on_c, 9, 42, 0
2, 187920, Note_on_c, 9, 42, 80
2, 188039, Note_on_c, 9, 42, 0
2, 188040, Note_on_c, 9, 42, 80
2, 188159, Note_on_c, 9, 42, 0
2, 188160, Note_on_c, 9, 42, 80
2, 188399, Note_on_c, 9, 42, 0
2, 188400, Note_on_c, 9, 42, 80
2, 188519, Note_on_c, 9, 42, 0
2, 188520, Note_on_c, 9, 42, 80
2, 188639, Note_on_c, 9, 42, 0
2, 188640, Note_on_c, 9, 42, 80
2, 188879, Note_on_c, 9, 42, 0
2, 188880, Note_on_c, 9, 42, 80
2, 188999, Note_on_c, 9, 42, 0
2, 189000, Note_on_c, 9, 42, 80
2, 189119, Note_on_c, 9, 42, 0
2, 189120, Note_on_c, 9, 42, 80
2, 189359, Note_on_c, 9, 42, 0
2, 189360, Note_on_c, 9, 42, 80
2, 189479, Note_on_c, 9, 42, 0
2, 189480, Note_on_c, 9, 42, 80
2, 189599, Note_on_c, 9, 42, 0
2, 189600, Note_on_c, 9, 42, 80
2, 189839, Note_on_c, 9, 42, 0
2, 189840, Note_on_c, 9, 42, 80
2, 189959, Note_on_c, 9, 42, 0
2, 189960, Note_on_c, 9, 46, 80
2, 190079, Note_on_c, 9, 46, 0
2, 190080, Note_on_c, 9, 42, 80
2, 190319, Note_on_c, 9, 42, 0
2, 190320, Note_on_c, 9, 42, 80
2, 190439, Note_on_c, 9, 42, 0
2, 190440, Note_on_c, 9, 42, 80
2, 190559, Note_on_c, 9, 42, 0
2, 190560, Note_on_c, 9, 42, 80
2, 190799, Note_on_c, 9, 42, 0
2, 190800, Note_on_c, 9, 42, 80
2, 190919, Note_on_c, 9, 42, 0
2, 190920, Note_on_c, 9, 42, 80
2, 191039, Note_on_c, 9, 42, 0
2, 191040, Note_on_c, 9, 42, 80
2, 191279, Note_on_c, 9, 42, 0
2, 191280, Note_on_c, 9, 42, 80
2, 191399, Note_on_c, 9, 42, 0
2, 191400, Note_on_c, 9, 42, 80
2, 191519, Note_on_c, 9, 42, 0
2, 191520, Note_on_c, 9, 42, 80
2, 191759, Note_on_c, 9, 42, 0
2, 191760, Note_on_c, 9, 42, 80
2, 191879, Note_on_c, 9, 42, 0
2, 191880, Note_on_c, 9, 42, 80
2, 191999, Note_on_c, 9, 42, 0
2, 192000, Note_on_c, 9, 42, 80
2, 192239, Note_on_c, 9, 42, 0
2, 192240, Note_on_c, 9, 42, 80
2, 192359, Note_on_c, 9, 42, 0
2, 192360, Note_on_c, 9, 42, 80
2, 192479, Note_on_c, 9, 42, 0
2, 192480, Note_on_c, 9, 42, 80
2, 192719, Note_on_c, 9, 42, 0
2, 192720, Note_on_c, 9, 42, 80
2, 192839, Note_on_c, 9, 42, 0
2, 192840, Note_on_c, 9, 42, 80
2, 192959, Note_on_c, 9, 42, 0
2, 192960, Note_on_c, 9, 42, 80
2, 193199, Note_on_c, 9, 42, 0
2, 193200, Note_on_c, 9, 42, 80
2, 193319, Note_on_c, 9, 42, 0
2, 193320, Note_on_c, 9, 42, 80
2, 193439, Note_on_c, 9, 42, 0
2, 193440, Note_on_c, 9, 42, 80
2, 193679, Note_on_c, 9, 42, 0
2, 193680, Note_on_c, 9, 42, 80
2, 193799, Note_on_c, 9, 42, 0
2, 193800, Note_on_c, 9, 46, 80
2, 193919, Note_on_c, 9, 46, 0
2, 193920, Note_on_c, 9, 42, 80
2, 194159, Note_on_c, 9, 42, 0
2, 194160, Note_on_c, 9, 42, 80
2, 194279, Note_on_c, 9, 42, 0
2, 194280, Note_on_c, 9, 42, 80
2, 194399, Note_on_c, 9, 42, 0
2, 194400, Note_on_c, 9, 42, 80
2, 194639, Note_on_c, 9, 42, 0
2, 194640, Note_on_c, 9, 42, 80
2, 194759, Note_on_c, 9, 42, 0
2, 194760, Note_on_c, 9, 42, 80
2, 194879, Note_on_c, 9, 42, 0
2, 194880, Note_on_c, 9, 42, 80
2, 195119, Note_on_c, 9, 42, 0
2, 195120, Note_on_c, 9, 42, 80
2, 195239, Note_on_c, 9, 42, 0
2, 195240, Note_on_c, 9, 42, 80
2, 195359, Note_on_c, 9, 42, 0
2, 195360, Note_on_c, 9, 42, 80
2, 195599, Note_on_c, 9, 42, 0
2, 195600, Note_on_c, 9, 42, 80
2, 195719, Note_on_c, 9, 42, 0
2, 195720, Note_on_c, 9, 42, 80
2, 195839, Note_on_c, 9, 42, 0
2, 195840, Note_on_c, 9, 42, 80
2, 196079, Note_on_c, 9, 42, 0
2, 196080, Note_on_c, 9, 42, 80
2, 196199, Note_on_c, 9, 42, 0
2, 196200, Note_on_c, 9, 42, 80
2, 196319, Note_on_c, 9, 42, 0
2, 196320, Note_on_c, 9, 42, 80
2, 196559, Note_on_c, 9, 42, 0
2, 196560, Note_on_c, 9, 42, 80
2, 196679, Note_on_c, 9, 42, 0
2, 196680, Note_on_c, 9, 42, 80
2, 196799, Note_on_c, 9, 42, 0
2, 196800, Note_on_c, 9, 42, 80
2, 197039, Note_on_c, 9, 42, 0
2, 197040, Note_on_c, 9, 42, 80
2, 197159, Note_on_c, 9, 42, 0
2, 197160, Note_on_c, 9, 42, 80
2, 197279, Note_on_c, 9, 42, 0
2, 197280, Note_on_c, 9, 42, 80
2, 197519, Note_on_c, 9, 42, 0
2, 197520, Note_on_c, 9, 42, 80
2, 197639, Note_on_c, 9, 42, 0
2, 197640, Note_on_c, 9, 46, 80
2, 197759, Note_on_c, 9, 46, 0
2, 197760, Note_on_c, 9, 42, 80
2, 197999, Note_on_c, 9, 42, 0
2, 198000, Note_on_c, 9, 42, 80
2, 198119, Note_on_c, 9, 42, 0
2, 198120, Note_on_c, 9, 42, 80
2, 198239, Note_on_c, 9, 42, 0
2, 198240, Note_on_c, 9, 42, 80
2, 198479, Note_on_c, 9, 42, 0
2, 198480, Note_on_c, 9, 42, 80
2, 198599, Note_on_c, 9, 42, 0
2, 198600, Note_on_c, 9, 42, 80
2, 198719, Note_on_c, 9, 42, 0
2, 198720, Note_on_c, 9, 42, 80
2, 198959, Note_on_c, 9, 42, 0
2, 198960, Note_on_c, 9, 42, 80
2, 199079, Note_on_c, 9, 42, 0
2, 199080, Note_on_c, 9, 42, 80
2, 199199, Note_on_c, 9, 42, 0
2, 199200, Note_on_c, 9, 42, 80
2, 199439, Note_on_c, 9, 42, 0
2, 199440, Note_on_c, 9, 42, 80
2, 199559, Note_on_c, 9, 42, 0
2, 199560, Note_on_c, 9, 42, 80
2, 199679, Note_on_c, 9, 42, 0
2, 199680, Note_on_c, 9, 42, 80
2, 199919, Note_on_c, 9, 42, 0
2, 199920, Note_on_c, 9, 42, 80
2, 200039, Note_on_c, 9, 42, 0
2, 200040, Note_on_c, 9, 42, 80
2, 200159, Note_on_c, 9, 42, 0
2, 200160, Note_on_c, 9, 42, 80
2, 200399, Note_on_c, 9, 42, 0
2, 200400, Note_on_c, 9, 42, 80
2, 200519, Note_on_c, 9, 42, 0
2, 200520, Note_on_c, 9, 42, 80
2, 200639, Note_on_c, 9, 42, 0
2, 200640, Note_on_c, 9, 42, 80
2, 200879, Note_on_c, 9, 42, 0
2, 200880, Note_on_c, 9, 42, 80
2, 200999, Note_on_c, 9, 42, 0
2, 201000, Note_on_c, 9, 42, 80
2, 201119, Note_on_c, 9, 42, 0
2, 201120, Note_on_c, 9, 42, 80
2, 201359, Note_on_c, 9, 42, 0
2, 201360, Note_on_c, 9, 42, 80
2, 201479, Note_on_c, 9, 42, 0
2, 201480, Note_on_c, 9, 46, 80
2, 201599, Note_on_c, 9, 46, 0
2, 201600, Note_on_c, 9, 42, 80
2, 201839, Note_on_c, 9, 42, 0
2, 201840, Note_on_c, 9, 42, 80
2, 201959, Note_on_c, 9, 42, 0
2, 201960, Note_on_c, 9, 42, 80
2, 202079, Note_on_c, 9, 42, 0
2, 202080, Note_on_c, 9, 42, 80
2, 202319, Note_on_c, 9, 42, 0
2, 202320, Note_on_c, 9, 42, 80
2, 202439, Note_on_c, 9, 42, 0
2, 202440, Note_on_c, 9, 42, 80
2, 202559, Note_on_c, 9, 42, 0
2, 202560, Note_on_c, 9, 42, 80
2, 202799, Note_on_c, 9, 42, 0
2, 202800, Note_on_c, 9, 42, 80
2, 202919, Note_on_c, 9, 42, 0
2, 202920, Note_on_c, 9, 42, 80
2, 203039, Note_on_c, 9, 42, 0
2, 203040, Note_on_c, 9, 42, 80
2, 203279, Note_on_c, 9, 42, 0
2, 203280, Note_on_c, 9, 42, 80
2, 203399, Note_on_c, 9, 42, 0
2, 203400, Note_on_c, 9, 42, 80
2, 203519, Note_on_c, 9, 42, 0
2, 203520, Note_on_c, 9, 42, 80
2, 203759, Note_on_c, 9, 42, 0
2, 203760, Note_on_c, 9, 42, 80
2, 203879, Note_on_c, 9, 42, 0
2, 203880, Note_on_c, 9, 42, 80
2, 203999, Note_on_c, 9, 42, 0
2, 204000, Note_on_c, 9, 42, 80
2, 204239, Note_on_c, 9, 42, 0
2, 204240, Note_on_c, 9, 42, 80
2, 204359, Note_on_c, 9, 42, 0
2, 204360, Note_on_c, 9, 42, 80
2, 204479, Note_on_c, 9, 42, 0
2, 204480, Note_on_c, 9, 42, 80
2, 204719, Note_on_c, 9, 42, 0
2, 204720, Note_on_c, 9, 42, 80
2, 204839, Note_on_c, 9, 42, 0
2, 204840, Note_on_c, 9, 42, 80
2, 204959, Note_on_c, 9, 42, 0
2, 204960, Note_on_c, 9, 42, 80
2, 205199, Note_on_c, 9, 42, 0
2, 205200, Note_on_c, 9, 42, 80
2, 205319, Note_on_c, 9, 42, 0
2, 205320, Note_on_c, 9, 46, 80
2, 205439, Note_on_c, 9, 46, 0
2, 205440, Note_on_c, 9, 42, 80
2, 205679, Note_on_c, 9, 42, 0
2, 205680, Note_on_c, 9, 42, 80
2, 205799, Note_on_c, 9, 42, 0
2, 205800, Note_on_c, 9, 42, 80
2, 205919, Note_on_c, 9, 42, 0
2, 205920, Note_on_c, 9, 42, 80
2, 206159, Note_on_c, 9, 42, 0
2, 206160, Note_on_c, 9, 42, 80
2, 206279, Note_on_c, 9, 42, 0
2, 206280, Note_on_c, 9, 42, 80
2, 206399, Note_on_c, 9, 42, 0
2, 206400, Note_on_c, 9, 42, 80
2, 206639, Note_on_c, 9, 42, 0
2, 206640, Note_on_c, 9, 42, 80
2, 206759, Note_on_c, 9, 42, 0
2, 206760, Note_on_c, 9, 42, 80
2, 206879, Note_on_c, 9, 42, 0
2, 206880, Note_on_c, 9, 42, 80
2, 207119, Note_on_c, 9, 42, 0
2, 207120, Note_on_c, 9, 42, 80
2, 207239, Note_on_c, 9, 42, 0
2, 207240, Note_on_c, 9, 42, 80
2, 207359, Note_on_c, 9, 42, 0
2, 207360, Note_on_c, 9, 42, 80
2, 207599, Note_on_c, 9, 42, 0
2, 207600, Note_on_c, 9, 42, 80
2, 207719, Note_on_c, 9, 42, 0
2, 207720, Note_on_c, 9, 42, 80
2, 207839, Note_on_c, 9, 42, 0
2, 207840, Note_on_c, 9, 42, 80
2, 208079, Note_on_c, 9, 42, 0
2, 208080, Note_on_c, 9, 42, 80
2, 208199, Note_on_c, 9, 42, 0
2, 208200, Note_on_c, 9, 42, 80
2, 208319, Note_on_c, 9, 42, 0
2, 208320, Note_on_c, 9, 42, 80
2, 208559, Note_on_c, 9, 42, 0
2, 208560, Note_on_c, 9, 42, 80
2, 208679, Note_on_c, 9, 42, 0
2, 208680, Note_on_c, 9, 42, 80
2, 208799, Note_on_c, 9, 42, 0
2, 208800, Note_on_c, 9, 42, 80
2, 209039, Note_on_c, 9, 42, 0
2, 209040, Note_on_c, 9, 42, 80
2, 209159, Note_on_c, 9, 42, 0
2, 209160, Note_on_c, 9, 46, 80
2, 209279, Note_on_c, 9, 46, 0
2, 209280, Note_on_c, 9, 42, 80
2, 209519, Note_on_c, 9, 42, 0
2, 209520, Note_on_c, 9, 42, 80
2, 209639, Note_on_c, 9, 42, 0
2, 209640, Note_on_c, 9, 42, 80
2, 209759, Note_on_c, 9, 42, 0
2, 209760, Note_on_c, 9, 42, 80
2, 209999, Note_on_c, 9, 42, 0
2, 210000, Note_on_c, 9, 42, 80
2, 210119, Note_on_c, 9, 42, 0
2, 210120, Note_on_c, 9, 42, 80
2, 210239, Note_on_c, 9, 42, 0
2, 210240, Note_on_c, 9, 42, 80
2, 210479, Note_on_c, 9, 42, 0
2, 210480, Note_on_c, 9, 42, 80
2, 210599, Note_on_c, 9, 42, 0
2, 210600, Note_on_c, 9, 42, 80
2, 210719, Note_on_c, 9, 42, 0
2, 210720, Note_on_c, 9, 42, 80
2, 210959, Note_on_c, 9, 42, 0
2, 210960, Note_on_c, 9, 42, 80
2, 211079, Note_on_c, 9, 42, 0
2, 211080, Note_on_c, 9, 42, 80
2, 211199, Note_on_c, 9, 42, 0
2, 211200, Note_on_c, 9, 42, 80
2, 211439, Note_on_c, 9, 42, 0
2, 211440, Note_on_c, 9, 42, 80
2, 211559, Note_on_c, 9, 42, 0
2, 211560, Note_on_c, 9, 42, 80
2, 211679, Note_on_c, 9, 42, 0
2, 211680, Note_on_c, 9, 42, 80
2, 211919, Note_on_c, 9, 42, 0
2, 211920, Note_on_c, 9, 42, 80
2, 212039, Note_on_c, 9, 42, 0
2, 212040, Note_on_c, 9, 42, 80
2, 212159, Note_on_c, 9, 42, 0
2, 212160, Note_on_c, 9, 42, 80
2, 212399, Note_on_c, 9, 42, 0
2, 212400, Note_on_c, 9, 42, 80
2, 212519, Note_on_c, 9, 42, 0
2, 212520, Note_on_c, 9, 42, 80
2, 212639, Note_on_c, 9, 42, 0
2, 212640, Note_on_c, 9, 42, 80
2, 212879, Note_on_c, 9, 42, 0
2, 212880, Note_on_c, 9, 42, 80
2, 212999, Note_on_c, 9, 42, 0
2, 213000, Note_on_c, 9, 46, 80
2, 213119, Note_on_c, 9, 46, 0
2, 213120, Note_on_c, 9, 42, 80
2, 213359, Note_on_c, 9, 42, 0
2, 213360, Note_on_c, 9, 42, 80
2, 213479, Note_on_c, 9, 42, 0
2, 213480, Note_on_c, 9, 42, 80
2, 213599, Note_on_c, 9, 42, 0
2, 213600, Note_on_c, 9, 42, 80
2, 213839, Note_on_c, 9, 42, 0
2, 213840, Note_on_c, 9, 42, 80
2, 213959, Note_on_c, 9, 42, 0
2, 213960, Note_on_c, 9, 42, 80
2, 214079, Note_on_c, 9, 42, 0
2, 214080, Note_on_c, 9, 42, 80
2, 214319, Note_on_c, 9, 42, 0
2, 214320, Note_on_c, 9, 42, 80
2, 214439, Note_on_c, 9, 42, 0
2, 214440, Note_on_c, 9, 42, 80
2, 214559, Note_on_c, 9, 42, 0
2, 214560, Note_on_c, 9, 42, 80
2, 214799, Note_on_c, 9, 42, 0
2, 214800, Note_on_c, 9, 42, 80
2, 214919, Note_on_c, 9, 42, 0
2, 214920, Note_on_c, 9, 42, 80
2, 215039, Note_on_c, 9, 42, 0
2, 215040, Note_on_c, 9, 42, 80
2, 215279, Note_on_c, 9, 42, 0
2, 215280, Note_on_c, 9, 42, 80
2, 215399, Note_on_c, 9, 42, 0
2, 215400, Note_on_c, 9, 42, 80
2, 215519, Note_on_c, 9, 42, 0
2, 215520, Note_on_c, 9, 42, 80
2, 215759, Note_on_c, 9, 42, 0
2, 215760, Note_on_c, 9, 42, 80
2, 215879, Note_on_c, 9, 42, 0
2, 215880, Note_on_c, 9, 42, 80
2, 215999, Note_on_c, 9, 42, 0
2, 216000, Note_on_c, 9, 42, 80
2, 216239, Note_on_c, 9, 42, 0
2, 216240, Note_on_c, 9, 42, 80
2, 216359, Note_on_c, 9, 42, 0
2, 216360, Note_on_c, 9, 42, 80
2, 216479, Note_on_c, 9, 42, 0
2, 216480, Note_on_c, 9, 42, 80
2, 216719, Note_on_c, 9, 42, 0
2, 216720, Note_on_c, 9, 42, 80
2, 216839, Note_on_c, 9, 42, 0
2, 216840, Note_on_c, 9, 46, 80
2, 216959, Note_on_c, 9, 46, 0
2, 216960, Note_on_c, 9, 42, 80
2, 217199, Note_on_c, 9, 42, 0
2, 217200, Note_on_c, 9, 42, 80
2, 217319, Note_on_c, 9, 42, 0
2, 217320, Note_on_c, 9, 42, 80
2, 217439, Note_on_c, 9, 42, 0
2, 217440, Note_on_c, 9, 42, 80
2, 217679, Note_on_c, 9, 42, 0
2, 217680, Note_on_c, 9, 42, 80
2, 217799, Note_on_c, 9, 42, 0
2, 217800, Note_on_c, 9, 42, 80
2, 217919, Note_on_c, 9, 42, 0
2, 217920, Note_on_c, 9, 42, 80
2, 218159, Note_on_c, 9, 42, 0
2, 218160, Note_on_c, 9, 42, 80
2, 218279, Note_on_c, 9, 42, 0
2, 218280, Note_on_c, 9, 42, 80
2, 218399, Note_on_c, 9, 42, 0
2, 218400, Note_on_c, 9, 42, 80
2, 218639, Note_on_c, 9, 42, 0
2, 218640, Note_on_c, 9, 42, 80
2, 218759, Note_on_c, 9, 42, 0
2, 218760, Note_on_c, 9, 42, 80
2, 218879, Note_on_c, 9, 42, 0
2, 218880, Note_on_c, 9, 42, 80
2, 219119, Note_on_c, 9, 42, 0
2, 219120, Note_on_c, 9, 42, 80
2, 219239, Note_on_c, 9, 42, 0
2, 219240, Note_on_c, 9, 42, 80
2, 219359, Note_on_c, 9, 42, 0
2, 219360, Note_on_c, 9, 42, 80
2, 219599, Note_on_c, 9, 42, 0
2, 219600, Note_on_c, 9, 42, 80
2, 219719, Note_on_c, 9, 42, 0
2, 219720, Note_on_c, 9, 42, 80
2, 219839, Note_on_c, 9, 42, 0
2, 219840, Note_on_c, 9, 42, 80
2, 220079, Note_on_c, 9, 42, 0
2, 220080, Note_on_c, 9, 42, 80
2, 220199, Note_on_c, 9, 42, 0
2, 220200, Note_on_c, 9, 42, 80
2, 220319, Note_on_c, 9, 42, 0
2, 220320, Note_on_c, 9, 42, 80
2, 220559, Note_on_c, 9, 42, 0
2, 220560, Note_on_c, 9, 42, 80
2, 220679, Note_on_c, 9, 42, 0
2, 220680, Note_on_c, 9, 46, 80
2, 220799, Note_on_c, 9, 46, 0
2, 220800, Note_on_c, 9, 42, 80
2, 221039, Note_on_c, 9, 42, 0
2, 221040, Note_on_c, 9, 42, 80
2, 221159, Note_on_c, 9, 42, 0
2, 221160, Note_on_c, 9, 42, 80
2, 221279, Note_on_c, 9, 42, 0
2, 221280, Note_on_c, 9, 42, 80
2, 221519, Note_on_c, 9, 42, 0
2, 221520, Note_on_c, 9, 42, 80
2, 221639, Note_on_c, 9, 42, 0
2, 221640, Note_on_c, 9, 42, 80
2, 221759, Note_on_c, 9, 42, 0
2, 221760, Note_on_c, 9, 42, 80
2, 221999, Note_on_c, 9, 42, 0
2, 222000, Note_on_c, 9, 42, 80
2, 222119, Note_on_c, 9, 42, 0
2, 222120, Note_on_c, 9, 42, 80
2, 222239, Note_on_c, 9, 42, 0
2, 222240, Note_on_c, 9, 42, 80
2, 222479, Note_on_c, 9, 42, 0
2, 222480, Note_on_c, 9, 42, 80
2, 222599, Note_on_c, 9, 42, 0
2, 222600, Note_on_c, 9, 42, 80
2, 222719, Note_on_c, 9, 42, 0
2, 222720, Note_on_c, 9, 42, 80
2, 222959, Note_on_c, 9, 42, 0
2, 222960, Note_on_c, 9, 42, 80
2, 223079, Note_on_c, 9, 42, 0
2, 223080, Note_on_c, 9, 42, 80
2, 223199, Note_on_c, 9, 42, 0
2, 223200, Note_on_c, 9, 42, 80
2, 223439, Note_on_c, 9, 42, 0
2, 223440, Note_on_c, 9, 42, 80
2, 223559, Note_on_c, 9, 42, 0
2, 223560, Note_on_c, 9, 42, 80
2, 223679, Note_on_c, 9, 42, 0
2, 223680, Note_on_c, 9, 42, 80
2, 223919, Note_on_c, 9, 42, 0
2, 223920, Note_on_c, 9, 42, 80
2, 224039, Note_on_c, 9, 42, 0
2, 224040, Note_on_c, 9, 42, 80
2, 224159, Note_on_c, 9, 42, 0
2, 224160, Note_on_c, 9, 42, 80
2, 224399, Note_on_c, 9, 42, 0
2, 224400, Note_on_c, 9, 42, 80
2, 224519, Note_on_c, 9, 42, 0
2, 224520, Note_on_c, 9, 46, 80
2, 224639, Note_on_c, 9, 46, 0
2, 224640, Note_on_c, 9, 42, 80
2, 224879, Note_on_c, 9, 42, 0
2, 224880, Note_on_c, 9, 42, 80
2, 224999, Note_on_c, 9, 42, 0
2, 225000, Note_on_c, 9, 42, 80
2, 225119, Note_on_c, 9, 42, 0
2, 225120, Note_on_c, 9, 42, 80
2, 225359, Note_on_c, 9, 42, 0
2, 225360, Note_on_c, 9, 42, 80
2, 225479, Note_on_c, 9, 42, 0
2, 225480, Note_on_c, 9, 42, 80
2, 225599, Note_on_c, 9, 42, 0
2, 225600, Note_on_c, 9, 42, 80
2, 225839, Note_on_c, 9, 42, 0
2, 225840, Note_on_c, 9, 42, 80
2, 225959, Note_on_c, 9, 42, 0
2, 225960, Note_on_c, 9, 42, 80
2, 226079, Note_on_c, 9, 42, 0
2, 226080, Note_on_c, 9, 42, 80
2, 226319, Note_on_c, 9, 42, 0
2, 226320, Note_on_c, 9, 42, 80
2, 226439, Note_on_c, 9, 42, 0
2, 226440, Note_on_c, 9, 42, 80
2, 226559, Note_on_c, 9, 42, 0
2, 226560, Note_on_c, 9, 42, 80
2, 226799, Note_on_c, 9, 42, 0
2, 226800, Note_on_c, 9, 42, 80
2, 226919, Note_on_c, 9, 42, 0
2, 226920, Note_on_c, 9, 42, 80
2, 227039, Note_on_c, 9, 42, 0
2, 227040, Note_on_c, 9, 42, 80
2, 227279, Note_on_c, 9, 42, 0
2, 227280, Note_on_c, 9, 42, 80
2, 227399, Note_on_c, 9, 42, 0
2, 227400, Note_on_c, 9, 42, 80
2, 227519, Note_on_c, 9, 42, 0
2, 227520, Note_on_c, 9, 42, 80
2, 227759, Note_on_c, 9, 42, 0
2, 227760, Note_on_c, 9, 42, 80
2, 227879, Note_on_c, 9, 42, 0
2, 227880, Note_on_c, 9, 42, 80
2, 227999, Note_on_c, 9, 42, 0
2, 228000, Note_on_c, 9, 42, 80
2, 228239, Note_on_c, 9, 42, 0
2, 228240, Note_on_c, 9, 42, 80
2, 228359, Note_on_c, 9, 42, 0
2, 228360, Note_on_c, 9, 46, 80
2, 228479, Note_on_c, 9, 46, 0
2, 228480, Note_on_c, 9, 42, 80
2, 228719, Note_on_c, 9, 42, 0
2, 228720, Note_on_c, 9, 42, 80
2, 228839, Note_on_c, 9, 42, 0
2, 228840, Note_on_c, 9, 42, 80
2, 228959, Note_on_c, 9, 42, 0
2, 228960, Note_on_c, 9, 42, 80
2, 229199, Note_on_c, 9, 42, 0
2, 229200, Note_on_c, 9, 42, 80
2, 229319, Note_on_c, 9, 42, 0
2, 229320, Note_on_c, 9, 42, 80
2, 229439, Note_on_c, 9, 42, 0
2, 229440, Note_on_c, 9, 42, 80
2, 229679, Note_on_c, 9, 42, 0
2, 229680, Note_on_c, 9, 42, 80
2, 229799, Note_on_c, 9, 42, 0
2, 229800, Note_on_c, 9, 42, 80
2, 229919, Note_on_c, 9, 42, 0
2, 229920, Note_on_c, 9, 42, 80
2, 230159, Note_on_c, 9, 42, 0
2, 230160, Note_on_c, 9, 42, 80
2, 230279, Note_on_c, 9, 42, 0
2, 230280, Note_on_c, 9, 42, 80
2, 230399, Note_on_c, 9, 42, 0
2, 230400, Note_on_c, 9, 42, 80
2, 230639, Note_on_c, 9, 42, 0
2, 230640, Note_on_c, 9, 42, 80
2, 230759, Note_on_c, 9, 42, 0
2, 230760, Note_on_c, 9, 42, 80
2, 230879, Note_on_c, 9, 42, 0
2, 230880, Note_on_c, 9, 42, 80
2, 231119, Note_on_c, 9, 42, 0
2, 231120, Note_on_c, 9, 42, 80
2, 231239, Note_on_c, 9, 42, 0
2, 231240, Note_on_c, 9, 42, 80
2, 231359, Note_on_c, 9, 42, 0
2, 231360, Note_on_c, 9, 42, 80
2, 231599, Note_on_c, 9, 42, 0
2, 231600, Note_on_c, 9, 42, 80
2, 231719, Note_on_c, 9, 42, 0
2, 231720, Note_on_c, 9, 42, 80
2, 231839, Note_on_c, 9, 42, 0
2, 231840, Note_on_c, 9, 42, 80
2, 232079, Note_on_c, 9, 42, 0
2, 232080, Note_on_c, 9, 42, 80
2, 232199, Note_on_c, 9, 42, 0
2, 232200, Note_on_c, 9, 46, 80
2, 232319, Note_on_c, 9, 46, 0
2, 232320, Note_on_c, 9, 42, 80
2, 232559, Note_on_c, 9, 42, 0
2, 232560, Note_on_c, 9, 42, 80
2, 232679, Note_on_c, 9, 42, 0
2, 232680, Note_on_c, 9, 42, 80
2, 232799, Note_on_c, 9, 42, 0
2, 232800, Note_on_c, 9, 42, 80
2, 233039, Note_on_c, 9, 42, 0
2, 233040, Note_on_c, 9, 42, 80
2, 233159, Note_on_c, 9, 42, 0
2, 233160, Note_on_c, 9, 42, 80
2, 233279, Note_on_c, 9, 42, 0
2, 233280, Note_on_c, 9, 42, 80
2, 233519, Note_on_c, 9, 42, 0
2, 233520, Note_on_c, 9, 42, 80
2, 233639, Note_on_c, 9, 42, 0
2, 233640, Note_on_c, 9, 42, 80
2, 233759, Note_on_c, 9, 42, 0
2, 233760, Note_on_c, 9, 42, 80
2, 233999, Note_on_c, 9, 42, 0
2, 234000, Note_on_c, 9, 42, 80
2, 234119, Note_on_c, 9, 42, 0
2, 234120, Note_on_c, 9, 42, 80
2, 234239, Note_on_c, 9, 42, 0
2, 234240, Note_on_c, 9, 42, 80
2, 234479, Note_on_c, 9, 42, 0
2, 234480, Note_on_c, 9, 42, 80
2, 234599, Note_on_c, 9, 42, 0
2, 234600, Note_on_c, 9, 42, 80
2, 234719, Note_on_c, 9, 42, 0
2, 234720, Note_on_c, 9, 42, 80
2, 234959, Note_on_c, 9, 42, 0
2, 234960, Note_on_c, 9, 42, 80
2, 235079, Note_on_c, 9, 42, 0
2, 235080, Note_on_c, 9, 42, 80
2, 235199, Note_on_c, 9, 42, 0
2, 235200, Note_on_c, 9, 42, 80
2, 235439, Note_on_c, 9, 42, 0
2, 235440, Note_on_c, 9, 42, 80
2, 235559, Note_on_c, 9, 42, 0
2, 235560, Note_on_c, 9, 42, 80
2, 235679, Note_on_c, 9, 42, 0
2, 235680, Note_on_c, 9, 42, 80
2, 235919, Note_on_c, 9, 42, 0
2, 235920, Note_on_c, 9, 42, 80
2, 236039, Note_on_c, 9, 42, 0
2, 236040, Note_on_c, 9, 46, 80
2, 236159, Note_on_c, 9, 46, 0
2, 236160, Note_on_c, 9, 42, 80
2, 236399, Note_on_c, 9, 42, 0
2, 236400, Note_on_c, 9, 42, 80
2, 236519, Note_on_c, 9, 42, 0
2, 236520, Note_on_c, 9, 42, 80
2, 236639, Note_on_c, 9, 42, 0
2, 236640, Note_on_c, 9, 42, 80
2, 236879, Note_on_c, 9, 42, 0
2, 236880, Note_on_c, 9, 42, 80
2, 236999, Note_on_c, 9, 42, 0
2, 237000, Note_on_c, 9, 42, 80
2, 237119, Note_on_c, 9, 42, 0
2, 237120, Note_on_c, 9, 42, 80
2, 237359, Note_on_c, 9, 42, 0
2, 237360, Note_on_c, 9, 42, 80
2, 237479, Note_on_c, 9, 42, 0
2, 237480, Note_on_c, 9, 42, 80
2, 237599, Note_on_c, 9, 42, 0
2, 237600, Note_on_c, 9, 42, 80
2, 237839, Note_on_c, 9, 42, 0
2, 237840, Note_on_c, 9, 42, 80
2, 237959, Note_on_c, 9, 42, 0
2, 237960, Note_on_c, 9, 42, 80
2, 238079, Note_on_c, 9, 42, 0
2, 238080, Note_on_c, 9, 42, 80
2, 238319, Note_on_c, 9, 42, 0
2, 238320, Note_on_c, 9, 42, 80
2, 238439, Note_on_c, 9, 42, 0
2, 238440, Note_on_c, 9, 42, 80
2, 238559, Note_on_c, 9, 42, 0
2, 238560, Note_on_c, 9, 42, 80
2, 238799, Note_on_c, 9, 42, 0
2, 238800, Note_on_c, 9, 42, 80
2, 238919, Note_on_c, 9, 42, 0
2, 238920, Note_on_c, 9, 42, 80
2, 239039, Note_on_c, 9, 42, 0
2, 239040, Note_on_c, 9, 42, 80
2, 239279, Note_on_c, 9, 42, 0
2, 239280, Note_on_c, 9, 42, 80
2, 239399, Note_on_c, 9, 42, 0
2, 239400, Note_on_c, 9, 42, 80
2, 239519, Note_on_c, 9, 42, 0
2, 239520, Note_on_c, 9, 42, 80
2, 239759, Note_on_c, 9, 42, 0
2, 239760, Note_on_c, 9, 42, 80
2, 239879, Note_on_c, 9, 42, 0
2, 239880, Note_on_c, 9, 46, 80
2, 239999, Note_on_c, 9, 46, 0
2, 240000, Note_on_c, 9, 42, 80
2, 240239, Note_on_c, 9, 42, 0
2, 240240, Note_on_c, 9, 42, 80
2, 240359, Note_on_c, 9, 42, 0
2, 240360, Note_on_c, 9, 42, 80
2, 240479, Note_on_c, 9, 42, 0
2, 240480, Note_on_c, 9, 42, 80
2, 240719, Note_on_c, 9, 42, 0
2, 240720, Note_on_c, 9, 42, 80
2, 240839, Note_on_c, 9, 42, 0
2, 240840, Note_on_c, 9, 42, 80
2, 240959, Note_on_c, 9, 42, 0
2, 240960, Note_on_c, 9, 42, 80
2, 241199, Note_on_c, 9, 42, 0
2, 241200, Note_on_c, 9, 42, 80
2, 241319, Note_on_c, 9, 42, 0
2, 241320, Note_on_c, 9, 42, 80
2, 241439, Note_on_c, 9, 42, 0
2, 241440, Note_on_c, 9, 42, 80
2, 241679, Note_on_c, 9, 42, 0
2, 241680, Note_on_c, 9, 42, 80
2, 241799, Note_on_c, 9, 42, 0
2, 241800, Note_on_c, 9, 42, 80
2, 241919, Note_on_c, 9, 42, 0
2, 241920, Note_on_c, 9, 42, 80
2, 242159, Note_on_c, 9, 42, 0
2, 242160, Note_on_c, 9, 42, 80
2, 242279, Note_on_c, 9, 42, 0
2, 242280, Note_on_c, 9, 42, 80
2, 242399, Note_on_c, 9, 42, 0
2, 242400, Note_on_c, 9, 42, 80
2, 242639, Note_on_c, 9, 42, 0
2, 242640, Note_on_c, 9, 42, 80
2, 242759, Note_on_c, 9, 42, 0
2, 242760, Note_on_c, 9, 42, 80
2, 242879, Note_on_c, 9, 42, 0
2, 242880, Note_on_c, 9, 42, 80
2, 243119, Note_on_c, 9, 42, 0
2, 243120, Note_on_c, 9, 42, 80
2, 243239, Note_on_c, 9, 42, 0
2, 243240, Note_on_c, 9, 42, 80
2, 243359, Note_on_c, 9, 42, 0
2, 243360, Note_on_c, 9, 42, 80
2, 243599, Note_on_c, 9, 42, 0
2, 243600, Note_on_c, 9, 42, 80
2, 243719, Note_on_c, 9, 42, 0
2, 243720, Note_on_c, 9, 46, 80
2, 243839, Note_on_c, 9, 46, 0
2, 243840, Note_on_c, 9, 42, 80
2, 244079, Note_on_c, 9, 42, 0
2, 244080, Note_on_c, 9, 42, 80
2, 244199, Note_on_c, 9, 42, 0
2, 244200, Note_on_c, 9, 42, 80
2, 244319, Note_on_c, 9, 42, 0
2, 244320, Note_on_c, 9, 42, 80
2, 244559, Note_on_c, 9, 42, 0
2, 244560, Note_on_c, 9, 42, 80
2, 244679, Note_on_c, 9, 42, 0
2, 244680, Note_on_c, 9, 42, 80
2, 244799, Note_on_c, 9, 42, 0
2, 244800, Note_on_c, 9, 42, 80
2, 245039, Note_on_c, 9, 42, 0
2, 245040, Note_on_c, 9, 42, 80
2, 245159, Note_on_c, 9, 42, 0
2, 245160, Note_on_c, 9, 42, 80
2, 245279, Note_on_c, 9, 42, 0
2, 245280, Note_on_c, 9, 42, 80
2, 245519, Note_on_c, 9, 42, 0
2, 245520, Note_on_c, 9, 42, 80
2, 245639, Note_on_c, 9, 42, 0
2, 245640, Note_on_c, 9, 42, 80
2, 245759, Note_on_c, 9, 42, 0
2, 245760, Note_on_c, 9, 42, 80
2, 245999, Note_on_c, 9, 42, 0
2, 246000, Note_on_c, 9, 42, 80
2, 246119, Note_on_c, 9, 42, 0
2, 246120, Note_on_c, 9, 42, 80
2, 246239, Note_on_c, 9, 42, 0
2, 246240, Note_on_c, 9, 42, 80
2, 246479, Note_on_c, 9, 42, 0
2, 246480, Note_on_c, 9, 42, 80
2, 246599, Note_on_c, 9, 42, 0
2, 246600, Note_on_c, 9, 42, 80
2, 246719, Note_on_c, 9, 42, 0
2, 246720, Note_on_c, 9, 42, 80
2, 246959, Note_on_c, 9, 42, 0
2, 246960, Note_on_c, 9, 42, 80
2, 247079, Note_on_c, 9, 42, 0
2, 247080, Note_on_c, 9, 42, 80
2, 247199, Note_on_c, 9, 42, 0
2, 247200, Note_on_c, 9, 42, 80
2, 247439, Note_on_c, 9, 42, 0
2, 247440, Note_on_c, 9, 42, 80
2, 247559, Note_on_c, 9, 42, 0
2, 247560, Note_on_c, 9, 46, 80
2, 247679, Note_on_c, 9, 46, 0
2, 247680, Note_on_c, 9, 42, 80
2, 248159, Note_on_c, 9, 42, 0
2, 248160, End_track
3, 0, Start_track
3, 0, Key_signature, 0, "major"
3, 0, Control_c, 9, 121, 0
3, 0, Program_c, 9, 0
3, 0, Control_c, 9, 7, 100
3, 0, Control_c, 9, 10, 64
3, 0, Control_c, 9, 91, 0
3, 0, Control_c, 9, 93, 0
3, 0, MIDI_port, 2
3, 15600, Note_on_c, 9, 40, 80
3, 15600, Note_on_c, 9, 47, 80
3, 15600, Note_on_c, 9, 48, 80
3, 15839, Note_on_c, 9, 40, 0
3, 15839, Note_on_c, 9, 47, 0
3, 15839, Note_on_c, 9, 48, 0
3, 16320, Note_on_c, 9, 40, 80
3, 16320, Note_on_c, 9, 45, 80
3, 16320, Note_on_c, 9, 43, 80
3, 16799, Note_on_c, 9, 40, 0
3, 16799, Note_on_c, 9, 45, 0
3, 16799, Note_on_c, 9, 43, 0
3, 16800, Note_on_c, 9, 40, 80
3, 16800, Note_on_c, 9, 43, 80
3, 17039, Note_on_c, 9, 40, 0
3, 17040, Note_on_c, 9, 41, 80
3, 17040, Note_on_c, 9, 40, 80
3, 17279, Note_on_c, 9, 43, 0
3, 17279, Note_on_c, 9, 41, 0
3, 17279, Note_on_c, 9, 40, 0
3, 19440, Note_on_c, 9, 40, 80
3, 19440, Note_on_c, 9, 47, 80
3, 19440, Note_on_c, 9, 48, 80
3, 19679, Note_on_c, 9, 40, 0
3, 19679, Note_on_c, 9, 47, 0
3, 19679, Note_on_c, 9, 48, 0
3, 20160, Note_on_c, 9, 40, 80
3, 20160, Note_on_c, 9, 45, 80
3, 20160, Note_on_c, 9, 43, 80
3, 20639, Note_on_c, 9, 40, 0
3, 20639, Note_on_c, 9, 45, 0
3, 20639, Note_on_c, 9, 43, 0
3, 20640, Note_on_c, 9, 40, 80
3, 20640, Note_on_c, 9, 43, 80
3, 20879, Note_on_c, 9, 40, 0
3, 20880, Note_on_c, 9, 41, 80
3, 20880, Note_on_c, 9, 40, 80
3, 21119, Note_on_c, 9, 43, 0
3, 21119, Note_on_c, 9, 41, 0
3, 21119, Note_on_c, 9, 40, 0
3, 27120, Note_on_c, 9, 47, 80
3, 27359, Note_on_c, 9, 47, 0
3, 27360, Note_on_c, 9, 45, 80
3, 27839, Note_on_c, 9, 45, 0
3, 28080, Note_on_c, 9, 43, 80
3, 28319, Note_on_c, 9, 43, 0
3, 28320, Note_on_c, 9, 41, 80
3, 28799, Note_on_c, 9, 41, 0
3, 34560, Note_on_c, 9, 48, 80
3, 34560, Note_on_c, 9, 50, 80
3, 35039, Note_on_c, 9, 48, 0
3, 35039, Note_on_c, 9, 50, 0
3, 38640, Note_on_c, 9, 40, 80
3, 38640, Note_on_c, 9, 47, 80
3, 38640, Note_on_c, 9, 48, 80
3, 38879, Note_on_c, 9, 40, 0
3, 38879, Note_on_c, 9, 47, 0
3, 38879, Note_on_c, 9, 48, 0
3, 39360, Note_on_c, 9, 40, 80
3, 39360, Note_on_c, 9, 45, 80
3, 39360, Note_on_c, 9, 43, 80
3, 39839, Note_on_c, 9, 40, 0
3, 39839, Note_on_c, 9, 45, 0
3, 39839, Note_on_c, 9, 43, 0
3, 39840, Note_on_c, 9, 40, 80
3, 39840, Note_on_c, 9, 43, 80
3, 40079, Note_on_c, 9, 40, 0
3, 40080, Note_on_c, 9, 41, 80
3, 40080, Note_on_c, 9, 40, 80
3, 40319, Note_on_c, 9, 43, 0
3, 40319, Note_on_c, 9, 41, 0
3, 40319, Note_on_c, 9, 40, 0
3, 42480, Note_on_c, 9, 40, 80
3, 42480, Note_on_c, 9, 47, 80
3, 42480, Note_on_c, 9, 48, 80
3, 42719, Note_on_c, 9, 40, 0
3, 42719, Note_on_c, 9, 47, 0
3, 42719, Note_on_c, 9, 48, 0
3, 43200, Note_on_c, 9, 40, 80
3, 43200, Note_on_c, 9, 45, 80
3, 43200, Note_on_c, 9, 43, 80
3, 43679, Note_on_c, 9, 40, 0
3, 43679, Note_on_c, 9, 45, 0
3, 43679, Note_on_c, 9, 43, 0
3, 43680, Note_on_c, 9, 40, 80
3, 43680, Note_on_c, 9, 43, 80
3, 43919, Note_on_c, 9, 40, 0
3, 43920, Note_on_c, 9, 41, 80
3, 43920, Note_on_c, 9, 40, 80
3, 44159, Note_on_c, 9, 43, 0
3, 44159, Note_on_c, 9, 41, 0
3, 44159, Note_on_c, 9, 40, 0
3, 48240, Note_on_c, 9, 39, 80
3, 48479, Note_on_c, 9, 39, 0
3, 48480, Note_on_c, 9, 39, 80
3, 48719, Note_on_c, 9, 39, 0
3, 48720, Note_on_c, 9, 39, 80
3, 48959, Note_on_c, 9, 39, 0
3, 48960, Note_on_c, 9, 39, 80
3, 49199, Note_on_c, 9, 39, 0
3, 49200, Note_on_c, 9, 39, 80
3, 49319, Note_on_c, 9, 39, 0
3, 49320, Note_on_c, 9, 39, 80
3, 49439, Note_on_c, 9, 39, 0
3, 49560, Note_on_c, 9, 39, 80
3, 49679, Note_on_c, 9, 39, 0
3, 49680, Note_on_c, 9, 39, 80
3, 49919, Note_on_c, 9, 39, 0
3, 50160, Note_on_c, 9, 40, 80
3, 50160, Note_on_c, 9, 47, 80
3, 50160, Note_on_c, 9, 39, 80
3, 50160, Note_on_c, 9, 48, 80
3, 50399, Note_on_c, 9, 40, 0
3, 50399, Note_on_c, 9, 47, 0
3, 50399, Note_on_c, 9, 39, 0
3, 50399, Note_on_c, 9, 48, 0
3, 50400, Note_on_c, 9, 39, 80
3, 50639, Note_on_c, 9, 39, 0
3, 50640, Note_on_c, 9, 39, 80
3, 50879, Note_on_c, 9, 39, 0
3, 50880, Note_on_c, 9, 40, 80
3, 50880, Note_on_c, 9, 45, 80
3, 50880, Note_on_c, 9, 39, 80
3, 50880, Note_on_c, 9, 43, 80
3, 51119, Note_on_c, 9, 40, 0
3, 51119, Note_on_c, 9, 45, 0
3, 51119, Note_on_c, 9, 39, 0
3, 51120, Note_on_c, 9, 39, 80
3, 51239, Note_on_c, 9, 39, 0
3, 51240, Note_on_c, 9, 39, 80
3, 51359, Note_on_c, 9, 43, 0
3, 51359, Note_on_c, 9, 39, 0
3, 51360, Note_on_c, 9, 40, 80
3, 51360, Note_on_c, 9, 43, 80
3, 51599, Note_on_c, 9, 40, 0
3, 51600, Note_on_c, 9, 41, 80
3, 51600, Note_on_c, 9, 40, 80
3, 51839, Note_on_c, 9, 43, 0
3, 51839, Note_on_c, 9, 41, 0
3, 51839, Note_on_c, 9, 40, 0
3, 55920, Note_on_c, 9, 39, 80
3, 56159, Note_on_c, 9, 39, 0
3, 56160, Note_on_c, 9, 39, 80
3, 56399, Note_on_c, 9, 39, 0
3, 56400, Note_on_c, 9, 39, 80
3, 56639, Note_on_c, 9, 39, 0
3, 56640, Note_on_c, 9, 39, 80
3, 56879, Note_on_c, 9, 39, 0
3, 56880, Note_on_c, 9, 39, 80
3, 56999, Note_on_c, 9, 39, 0
3, 57000, Note_on_c, 9, 39, 80
3, 57119, Note_on_c, 9, 39, 0
3, 57240, Note_on_c, 9, 39, 80
3, 57359, Note_on_c, 9, 39, 0
3, 57360, Note_on_c, 9, 39, 80
3, 57599, Note_on_c, 9, 39, 0
3, 57840, Note_on_c, 9, 40, 80
3, 57840, Note_on_c, 9, 47, 80
3, 57840, Note_on_c, 9, 39, 80
3, 57840, Note_on_c, 9, 48, 80
3, 58079, Note_on_c, 9, 40, 0
3, 58079, Note_on_c, 9, 47, 0
3, 58079, Note_on_c, 9, 39, 0
3, 58079, Note_on_c, 9, 48, 0
3, 58080, Note_on_c, 9, 39, 80
3, 58319, Note_on_c, 9, 39, 0
3, 58320, Note_on_c, 9, 39, 80
3, 58559, Note_on_c, 9, 39, 0
3, 58560, Note_on_c, 9, 40, 80
3, 58560, Note_on_c, 9, 45, 80
3, 58560, Note_on_c, 9, 39, 80
3, 58560, Note_on_c, 9, 43, 80
3, 58799, Note_on_c, 9, 40, 0
3, 58799, Note_on_c, 9, 45, 0
3, 58799, Note_on_c, 9, 39, 0
3, 58800, Note_on_c, 9, 39, 80
3, 58919, Note_on_c, 9, 39, 0
3, 58920, Note_on_c, 9, 39, 80
3, 59039, Note_on_c, 9, 43, 0
3, 59039, Note_on_c, 9, 39, 0
3, 59040, Note_on_c, 9, 40, 80
3, 59040, Note_on_c, 9, 43, 80
3, 59279, Note_on_c, 9, 40, 0
3, 59280, Note_on_c, 9, 41, 80
3, 59280, Note_on_c, 9, 40, 80
3, 59519, Note_on_c, 9, 43, 0
3, 59519, Note_on_c, 9, 41, 0
3, 59519, Note_on_c, 9, 40, 0
3, 65520, Note_on_c, 9, 47, 80
3, 65759, Note_on_c, 9, 47, 0
3, 65760, Note_on_c, 9, 45, 80
3, 66239, Note_on_c, 9, 45, 0
3, 66480, Note_on_c, 9, 43, 80
3, 66719, Note_on_c, 9, 43, 0
3, 66720, Note_on_c, 9, 41, 80
3, 67199, Note_on_c, 9, 41, 0
3, 72960, Note_on_c, 9, 48, 80
3, 72960, Note_on_c, 9, 50, 80
3, 73439, Note_on_c, 9, 48, 0
3, 73439, Note_on_c, 9, 50, 0
3, 77040, Note_on_c, 9, 40, 80
3, 77040, Note_on_c, 9, 47, 80
3, 77040, Note_on_c, 9, 48, 80
3, 77279, Note_on_c, 9, 40, 0
3, 77279, Note_on_c, 9, 47, 0
3, 77279, Note_on_c, 9, 48, 0
3, 77760, Note_on_c, 9, 40, 80
3, 77760, Note_on_c, 9, 45, 80
3, 77760, Note_on_c, 9, 43, 80
3, 78239, Note_on_c, 9, 40, 0
3, 78239, Note_on_c, 9, 45, 0
3, 78239, Note_on_c, 9, 43, 0
3, 78240, Note_on_c, 9, 40, 80
3, 78240, Note_on_c, 9, 43, 80
3, 78479, Note_on_c, 9, 40, 0
3, 78480, Note_on_c, 9, 41, 80
3, 78480, Note_on_c, 9, 40, 80
3, 78719, Note_on_c, 9, 43, 0
3, 78719, Note_on_c, 9, 41, 0
3, 78719, Note_on_c, 9, 40, 0
3, 80880, Note_on_c, 9, 40, 80
3, 80880, Note_on_c, 9, 47, 80
3, 80880, Note_on_c, 9, 48, 80
3, 81119, Note_on_c, 9, 40, 0
3, 81119, Note_on_c, 9, 47, 0
3, 81119, Note_on_c, 9, 48, 0
3, 81600, Note_on_c, 9, 40, 80
3, 81600, Note_on_c, 9, 45, 80
3, 81600, Note_on_c, 9, 43, 80
3, 82079, Note_on_c, 9, 40, 0
3, 82079, Note_on_c, 9, 45, 0
3, 82079, Note_on_c, 9, 43, 0
3, 82080, Note_on_c, 9, 40, 80
3, 82080, Note_on_c, 9, 43, 80
3, 82319, Note_on_c, 9, 40, 0
3, 82320, Note_on_c, 9, 41, 80
3, 82320, Note_on_c, 9, 40, 80
3, 82559, Note_on_c, 9, 43, 0
3, 82559, Note_on_c, 9, 41, 0
3, 82559, Note_on_c, 9, 40, 0
3, 86640, Note_on_c, 9, 39, 80
3, 86879, Note_on_c, 9, 39, 0
3, 86880, Note_on_c, 9, 39, 80
3, 87119, Note_on_c, 9, 39, 0
3, 87120, Note_on_c, 9, 39, 80
3, 87359, Note_on_c, 9, 39, 0
3, 87360, Note_on_c, 9, 39, 80
3, 87599, Note_on_c, 9, 39, 0
3, 87600, Note_on_c, 9, 39, 80
3, 87719, Note_on_c, 9, 39, 0
3, 87720, Note_on_c, 9, 39, 80
3, 87839, Note_on_c, 9, 39, 0
3, 87960, Note_on_c, 9, 39, 80
3, 88079, Note_on_c, 9, 39, 0
3, 88080, Note_on_c, 9, 39, 80
3, 88319, Note_on_c, 9, 39, 0
3, 88560, Note_on_c, 9, 40, 80
3, 88560, Note_on_c, 9, 47, 80
3, 88560, Note_on_c, 9, 39, 80
3, 88560, Note_on_c, 9, 48, 80
3, 88799, Note_on_c, 9, 40, 0
3, 88799, Note_on_c, 9, 47, 0
3, 88799, Note_on_c, 9, 39, 0
3, 88799, Note_on_c, 9, 48, 0
3, 88800, Note_on_c, 9, 39, 80
3, 89039, Note_on_c, 9, 39, 0
3, 89040, Note_on_c, 9, 39, 80
3, 89279, Note_on_c, 9, 39, 0
3, 89280, Note_on_c, 9, 40, 80
3, 89280, Note_on_c, 9, 45, 80
3, 89280, Note_on_c, 9, 39, 80
3, 89280, Note_on_c, 9, 43, 80
3, 89519, Note_on_c, 9, 40, 0
3, 89519, Note_on_c, 9, 45, 0
3, 89519, Note_on_c, 9, 39, 0
3, 89520, Note_on_c, 9, 39, 80
3, 89639, Note_on_c, 9, 39, 0
3, 89640, Note_on_c, 9, 39, 80
3, 89759, Note_on_c, 9, 43, 0
3, 89759, Note_on_c, 9, 39, 0
3, 89760, Note_on_c, 9, 40, 80
3, 89760, Note_on_c, 9, 43, 80
3, 89999, Note_on_c, 9, 40, 0
3, 90000, Note_on_c, 9, 41, 80
3, 90000, Note_on_c, 9, 40, 80
3, 90239, Note_on_c, 9, 43, 0
3, 90239, Note_on_c, 9, 41, 0
3, 90239, Note_on_c, 9, 40, 0
3, 94320, Note_on_c, 9, 39, 80
3, 94559, Note_on_c, 9, 39, 0
3, 94560, Note_on_c, 9, 39, 80
3, 94799, Note_on_c, 9, 39, 0
3, 94800, Note_on_c, 9, 39, 80
3, 95039, Note_on_c, 9, 39, 0
3, 95040, Note_on_c, 9, 39, 80
3, 95279, Note_on_c, 9, 39, 0
3, 95280, Note_on_c, 9, 39, 80
3, 95399, Note_on_c, 9, 39, 0
3, 95400, Note_on_c, 9, 39, 80
3, 95519, Note_on_c, 9, 39, 0
3, 95640, Note_on_c, 9, 39, 80
3, 95759, Note_on_c, 9, 39, 0
3, 95760, Note_on_c, 9, 39, 80
3, 95999, Note_on_c, 9, 39, 0
3, 96240, Note_on_c, 9, 40, 80
3, 96240, Note_on_c, 9, 47, 80
3, 96240, Note_on_c, 9, 39, 80
3, 96240, Note_on_c, 9, 48, 80
3, 96479, Note_on_c, 9, 40, 0
3, 96479, Note_on_c, 9, 47, 0
3, 96479, Note_on_c, 9, 39, 0
3, 96479, Note_on_c, 9, 48, 0
3, 96480, Note_on_c, 9, 39, 80
3, 96719, Note_on_c, 9, 39, 0
3, 96720, Note_on_c, 9, 39, 80
3, 96959, Note_on_c, 9, 39, 0
3, 96960, Note_on_c, 9, 40, 80
3, 96960, Note_on_c, 9, 45, 80
3, 96960, Note_on_c, 9, 39, 80
3, 96960, Note_on_c, 9, 43, 80
3, 97199, Note_on_c, 9, 40, 0
3, 97199, Note_on_c, 9, 45, 0
3, 97199, Note_on_c, 9, 39, 0
3, 97200, Note_on_c, 9, 39, 80
3, 97319, Note_on_c, 9, 39, 0
3, 97320, Note_on_c, 9, 39, 80
3, 97439, Note_on_c, 9, 43, 0
3, 97439, Note_on_c, 9, 39, 0
3, 97440, Note_on_c, 9, 40, 80
3, 97440, Note_on_c, 9, 43, 80
3, 97679, Note_on_c, 9, 40, 0
3, 97680, Note_on_c, 9, 41, 80
3, 97680, Note_on_c, 9, 40, 80
3, 97919, Note_on_c, 9, 43, 0
3, 97919, Note_on_c, 9, 41, 0
3, 97919, Note_on_c, 9, 40, 0
3, 107760, Note_on_c, 9, 47, 80
3, 107999, Note_on_c, 9, 47, 0
3, 108000, Note_on_c, 9, 45, 80
3, 108479, Note_on_c, 9, 45, 0
3, 108720, Note_on_c, 9, 39, 80
3, 108720, Note_on_c, 9, 43, 80
3, 108959, Note_on_c, 9, 39, 0
3, 108959, Note_on_c, 9, 43, 0
3, 108960, Note_on_c, 9, 41, 80
3, 108960, Note_on_c, 9, 39, 80
3, 109199, Note_on_c, 9, 41, 0
3, 109199, Note_on_c, 9, 39, 0
3, 109200, Note_on_c, 9, 39, 80
3, 109439, Note_on_c, 9, 39, 0
3, 115200, Note_on_c, 9, 48, 80
3, 115200, Note_on_c, 9, 50, 80
3, 115679, Note_on_c, 9, 48, 0
3, 115679, Note_on_c, 9, 50, 0
3, 119280, Note_on_c, 9, 40, 80
3, 119280, Note_on_c, 9, 47, 80
3, 119280, Note_on_c, 9, 48, 80
3, 119519, Note_on_c, 9, 40, 0
3, 119519, Note_on_c, 9, 47, 0
3, 119519, Note_on_c, 9, 48, 0
3, 120000, Note_on_c, 9, 40, 80
3, 120000, Note_on_c, 9, 45, 80
3, 120000, Note_on_c, 9, 43, 80
3, 120479, Note_on_c, 9, 40, 0
3, 120479, Note_on_c, 9, 45, 0
3, 120479, Note_on_c, 9, 43, 0
3, 120480, Note_on_c, 9, 40, 80
3, 120480, Note_on_c, 9, 43, 80
3, 120719, Note_on_c, 9, 40, 0
3, 120720, Note_on_c, 9, 41, 80
3, 120720, Note_on_c, 9, 40, 80
3, 120959, Note_on_c, 9, 43, 0
3, 120959, Note_on_c, 9, 41, 0
3, 120959, Note_on_c, 9, 40, 0
3, 123120, Note_on_c, 9, 40, 80
3, 123120, Note_on_c, 9, 47, 80
3, 123120, Note_on_c, 9, 48, 80
3, 123359, Note_on_c, 9, 40, 0
3, 123359, Note_on_c, 9, 47, 0
3, 123359, Note_on_c, 9, 48, 0
3, 123840, Note_on_c, 9, 40, 80
3, 123840, Note_on_c, 9, 45, 80
3, 123840, Note_on_c, 9, 43, 80
3, 124319, Note_on_c, 9, 40, 0
3, 124319, Note_on_c, 9, 45, 0
3, 124319, Note_on_c, 9, 43, 0
3, 124320, Note_on_c, 9, 40, 80
3, 124320, Note_on_c, 9, 43, 80
3, 124559, Note_on_c, 9, 40, 0
3, 124560, Note_on_c, 9, 41, 80
3, 124560, Note_on_c, 9, 40, 80
3, 124799, Note_on_c, 9, 43, 0
3, 124799, Note_on_c, 9, 41, 0
3, 124799, Note_on_c, 9, 40, 0
3, 128880, Note_on_c, 9, 39, 80
3, 129119, Note_on_c, 9, 39, 0
3, 129120, Note_on_c, 9, 39, 80
3, 129359, Note_on_c, 9, 39, 0
3, 129360, Note_on_c, 9, 39, 80
3, 129599, Note_on_c, 9, 39, 0
3, 129600, Note_on_c, 9, 39, 80
3, 129839, Note_on_c, 9, 39, 0
3, 129840, Note_on_c, 9, 39, 80
3, 129959, Note_on_c, 9, 39, 0
3, 129960, Note_on_c, 9, 39, 80
3, 130079, Note_on_c, 9, 39, 0
3, 130200, Note_on_c, 9, 39, 80
3, 130319, Note_on_c, 9, 39, 0
3, 130320, Note_on_c, 9, 39, 80
3, 130559, Note_on_c, 9, 39, 0
3, 130800, Note_on_c, 9, 40, 80
3, 130800, Note_on_c, 9, 47, 80
3, 130800, Note_on_c, 9, 39, 80
3, 130800, Note_on_c, 9, 48, 80
3, 131039, Note_on_c, 9, 40, 0
3, 131039, Note_on_c, 9, 47, 0
3, 131039, Note_on_c, 9, 39, 0
3, 131039, Note_on_c, 9, 48, 0
3, 131040, Note_on_c, 9, 39, 80
3, 131279, Note_on_c, 9, 39, 0
3, 131280, Note_on_c, 9, 39, 80
3, 131519, Note_on_c, 9, 39, 0
3, 131520, Note_on_c, 9, 40, 80
3, 131520, Note_on_c, 9, 45, 80
3, 131520, Note_on_c, 9, 39, 80
3, 131520, Note_on_c, 9, 43, 80
3, 131759, Note_on_c, 9, 40, 0
3, 131759, Note_on_c, 9, 45, 0
3, 131759, Note_on_c, 9, 39, 0
3, 131760, Note_on_c, 9, 39, 80
3, 131879, Note_on_c, 9, 39, 0
3, 131880, Note_on_c, 9, 39, 80
3, 131999, Note_on_c, 9, 43, 0
3, 131999, Note_on_c, 9, 39, 0
3, 132000, Note_on_c, 9, 40, 80
3, 132000, Note_on_c, 9, 43, 80
3, 132239, Note_on_c, 9, 40, 0
3, 132240, Note_on_c, 9, 41, 80
3, 132240, Note_on_c, 9, 40, 80
3, 132479, Note_on_c, 9, 43, 0
3, 132479, Note_on_c, 9, 41, 0
3, 132479, Note_on_c, 9, 40, 0
3, 136560, Note_on_c, 9, 39, 80
3, 136799, Note_on_c, 9, 39, 0
3, 136800, Note_on_c, 9, 39, 80
3, 137039, Note_on_c, 9, 39, 0
3, 137040, Note_on_c, 9, 39, 80
3, 137279, Note_on_c, 9, 39, 0
3, 137280, Note_on_c, 9, 39, 80
3, 137519, Note_on_c, 9, 39, 0
3, 137520, Note_on_c, 9, 39, 80
3, 137639, Note_on_c, 9, 39, 0
3, 137640, Note_on_c, 9, 39, 80
3, 137759, Note_on_c, 9, 39, 0
3, 137880, Note_on_c, 9, 39, 80
3, 137999, Note_on_c, 9, 39, 0
3, 138000, Note_on_c, 9, 39, 80
3, 138239, Note_on_c, 9, 39, 0
3, 138480, Note_on_c, 9, 40, 80
3, 138480, Note_on_c, 9, 47, 80
3, 138480, Note_on_c, 9, 39, 80
3, 138480, Note_on_c, 9, 48, 80
3, 138719, Note_on_c, 9, 40, 0
3, 138719, Note_on_c, 9, 47, 0
3, 138719, Note_on_c, 9, 39, 0
3, 138719, Note_on_c, 9, 48, 0
3, 138720, Note_on_c, 9, 39, 80
3, 138959, Note_on_c, 9, 39, 0
3, 138960, Note_on_c, 9, 39, 80
3, 139199, Note_on_c, 9, 39, 0
3, 139200, Note_on_c, 9, 40, 80
3, 139200, Note_on_c, 9, 45, 80
3, 139200, Note_on_c, 9, 39, 80
3, 139200, Note_on_c, 9, 43, 80
3, 139439, Note_on_c, 9, 40, 0
3, 139439, Note_on_c, 9, 45, 0
3, 139439, Note_on_c, 9, 39, 0
3, 139440, Note_on_c, 9, 39, 80
3, 139559, Note_on_c, 9, 39, 0
3, 139560, Note_on_c, 9, 39, 80
3, 139679, Note_on_c, 9, 43, 0
3, 139679, Note_on_c, 9, 39, 0
3, 139680, Note_on_c, 9, 40, 80
3, 139680, Note_on_c, 9, 43, 80
3, 139919, Note_on_c, 9, 40, 0
3, 139920, Note_on_c, 9, 41, 80
3, 139920, Note_on_c, 9, 40, 80
3, 140159, Note_on_c, 9, 43, 0
3, 140159, Note_on_c, 9, 41, 0
3, 140159, Note_on_c, 9, 40, 0
3, 157680, Note_on_c, 9, 40, 80
3, 157680, Note_on_c, 9, 47, 80
3, 157680, Note_on_c, 9, 48, 80
3, 157919, Note_on_c, 9, 40, 0
3, 157919, Note_on_c, 9, 47, 0
3, 157919, Note_on_c, 9, 48, 0
3, 158400, Note_on_c, 9, 40, 80
3, 158400, Note_on_c, 9, 45, 80
3, 158400, Note_on_c, 9, 43, 80
3, 158879, Note_on_c, 9, 40, 0
3, 158879, Note_on_c, 9, 45, 0
3, 158879, Note_on_c, 9, 43, 0
3, 158880, Note_on_c, 9, 40, 80
3, 158880, Note_on_c, 9, 43, 80
3, 159119, Note_on_c, 9, 40, 0
3, 159120, Note_on_c, 9, 41, 80
3, 159120, Note_on_c, 9, 40, 80
3, 159359, Note_on_c, 9, 43, 0
3, 159359, Note_on_c, 9, 41, 0
3, 159359, Note_on_c, 9, 40, 0
3, 161520, Note_on_c, 9, 40, 80
3, 161520, Note_on_c, 9, 47, 80
3, 161520, Note_on_c, 9, 48, 80
3, 161759, Note_on_c, 9, 40, 0
3, 161759, Note_on_c, 9, 47, 0
3, 161759, Note_on_c, 9, 48, 0
3, 162240, Note_on_c, 9, 40, 80
3, 162240, Note_on_c, 9, 45, 80
3, 162240, Note_on_c, 9, 43, 80
3, 162719, Note_on_c, 9, 40, 0
3, 162719, Note_on_c, 9, 45, 0
3, 162719, Note_on_c, 9, 43, 0
3, 162720, Note_on_c, 9, 40, 80
3, 162720, Note_on_c, 9, 43, 80
3, 162959, Note_on_c, 9, 40, 0
3, 162960, Note_on_c, 9, 41, 80
3, 162960, Note_on_c, 9, 40, 80
3, 163199, Note_on_c, 9, 43, 0
3, 163199, Note_on_c, 9, 41, 0
3, 163199, Note_on_c, 9, 40, 0
3, 167280, Note_on_c, 9, 39, 80
3, 167519, Note_on_c, 9, 39, 0
3, 167520, Note_on_c, 9, 39, 80
3, 167759, Note_on_c, 9, 39, 0
3, 167760, Note_on_c, 9, 39, 80
3, 167999, Note_on_c, 9, 39, 0
3, 168000, Note_on_c, 9, 39, 80
3, 168239, Note_on_c, 9, 39, 0
3, 168240, Note_on_c, 9, 39, 80
3, 168359, Note_on_c, 9, 39, 0
3, 168360, Note_on_c, 9, 39, 80
3, 168479, Note_on_c, 9, 39, 0
3, 168600, Note_on_c, 9, 39, 80
3, 168719, Note_on_c, 9, 39, 0
3, 168720, Note_on_c, 9, 39, 80
3, 168959, Note_on_c, 9, 39, 0
3, 169200, Note_on_c, 9, 40, 80
3, 169200, Note_on_c, 9, 47, 80
3, 169200, Note_on_c, 9, 39, 80
3, 169200, Note_on_c, 9, 48, 80
3, 169439, Note_on_c, 9, 40, 0
3, 169439, Note_on_c, 9, 47, 0
3, 169439, Note_on_c, 9, 39, 0
3, 169439, Note_on_c, 9, 48, 0
3, 169440, Note_on_c, 9, 39, 80
3, 169679, Note_on_c, 9, 39, 0
3, 169680, Note_on_c, 9, 39, 80
3, 169919, Note_on_c, 9, 39, 0
3, 169920, Note_on_c, 9, 40, 80
3, 169920, Note_on_c, 9, 45, 80
3, 169920, Note_on_c, 9, 39, 80
3, 169920, Note_on_c, 9, 43, 80
3, 170159, Note_on_c, 9, 40, 0
3, 170159, Note_on_c, 9, 45, 0
3, 170159, Note_on_c, 9, 39, 0
3, 170160, Note_on_c, 9, 39, 80
3, 170279, Note_on_c, 9, 39, 0
3, 170280, Note_on_c, 9, 39, 80
3, 170399, Note_on_c, 9, 43, 0
3, 170399, Note_on_c, 9, 39, 0
3, 170400, Note_on_c, 9, 40, 80
3, 170400, Note_on_c, 9, 43, 80
3, 170639, Note_on_c, 9, 40, 0
3, 170640, Note_on_c, 9, 41, 80
3, 170640, Note_on_c, 9, 40, 80
3, 170879, Note_on_c, 9, 43, 0
3, 170879, Note_on_c, 9, 41, 0
3, 170879, Note_on_c, 9, 40, 0
3, 174960, Note_on_c, 9, 39, 80
3, 175199, Note_on_c, 9, 39, 0
3, 175200, Note_on_c, 9, 39, 80
3, 175439, Note_on_c, 9, 39, 0
3, 175440, Note_on_c, 9, 39, 80
3, 175679, Note_on_c, 9, 39, 0
3, 175680, Note_on_c, 9, 39, 80
3, 175919, Note_on_c, 9, 39, 0
3, 175920, Note_on_c, 9, 39, 80
3, 176039, Note_on_c, 9, 39, 0
3, 176040, Note_on_c, 9, 39, 80
3, 176159, Note_on_c, 9, 39, 0
3, 176280, Note_on_c, 9, 39, 80
3, 176399, Note_on_c, 9, 39, 0
3, 176400, Note_on_c, 9, 39, 80
3, 176639, Note_on_c, 9, 39, 0
3, 176880, Note_on_c, 9, 40, 80
3, 176880, Note_on_c, 9, 47, 80
3, 176880, Note_on_c, 9, 39, 80
3, 176880, Note_on_c, 9, 48, 80
3, 177119, Note_on_c, 9, 40, 0
3, 177119, Note_on_c, 9, 47, 0
3, 177119, Note_on_c, 9, 39, 0
3, 177119, Note_on_c, 9, 48, 0
3, 177120, Note_on_c, 9, 39, 80
3, 177359, Note_on_c, 9, 39, 0
3, 177360, Note_on_c, 9, 39, 80
3, 177599, Note_on_c, 9, 39, 0
3, 177600, Note_on_c, 9, 40, 80
3, 177600, Note_on_c, 9, 45, 80
3, 177600, Note_on_c, 9, 39, 80
3, 177600, Note_on_c, 9, 43, 80
3, 177839, Note_on_c, 9, 40, 0
3, 177839, Note_on_c, 9, 45, 0
3, 177839, Note_on_c, 9, 39, 0
3, 177840, Note_on_c, 9, 39, 80
3, 177959, Note_on_c, 9, 39, 0
3, 177960, Note_on_c, 9, 39, 80
3, 178079, Note_on_c, 9, 43, 0
3, 178079, Note_on_c, 9, 39, 0
3, 178080, Note_on_c, 9, 40, 80
3, 178080, Note_on_c, 9, 43, 80
3, 178319, Note_on_c, 9, 40, 0
3, 178320, Note_on_c, 9, 41, 80
3, 178320, Note_on_c, 9, 40, 80
3, 178559, Note_on_c, 9, 43, 0
3, 178559, Note_on_c, 9, 41, 0
3, 178559, Note_on_c, 9, 40, 0
3, 178560, Note_on_c, 9, 41, 80
3, 179039, Note_on_c, 9, 41, 0
3, 179520, Note_on_c, 9, 41, 80
3, 179999, Note_on_c, 9, 41, 0
3, 180480, Note_on_c, 9, 41, 80
3, 180959, Note_on_c, 9, 41, 0
3, 181440, Note_on_c, 9, 41, 80
3, 181919, Note_on_c, 9, 41, 0
3, 182640, Note_on_c, 9, 37, 80
3, 182879, Note_on_c, 9, 37, 0
3, 182880, Note_on_c, 9, 37, 80
3, 183119, Note_on_c, 9, 37, 0
3, 183120, Note_on_c, 9, 37, 80
3, 183359, Note_on_c, 9, 37, 0
3, 185520, Note_on_c, 9, 39, 80
3, 185520, Note_on_c, 9, 50, 80
3, 185759, Note_on_c, 9, 39, 0
3, 185759, Note_on_c, 9, 50, 0
3, 185760, Note_on_c, 9, 39, 80
3, 185760, Note_on_c, 9, 48, 80
3, 185760, Note_on_c, 9, 50, 80
3, 185999, Note_on_c, 9, 39, 0
3, 185999, Note_on_c, 9, 48, 0
3, 185999, Note_on_c, 9, 50, 0
3, 186000, Note_on_c, 9, 47, 80
3, 186000, Note_on_c, 9, 39, 80
3, 186000, Note_on_c, 9, 50, 80
3, 186239, Note_on_c, 9, 47, 0
3, 186239, Note_on_c, 9, 39, 0
3, 186239, Note_on_c, 9, 50, 0
3, 186480, Note_on_c, 9, 39, 80
3, 186719, Note_on_c, 9, 39, 0
3, 186720, Note_on_c, 9, 39, 80
3, 186959, Note_on_c, 9, 39, 0
3, 186960, Note_on_c, 9, 39, 80
3, 187199, Note_on_c, 9, 39, 0
3, 187200, Note_on_c, 9, 39, 80
3, 187439, Note_on_c, 9, 39, 0
3, 187440, Note_on_c, 9, 39, 80
3, 187559, Note_on_c, 9, 39, 0
3, 187560, Note_on_c, 9, 39, 80
3, 187679, Note_on_c, 9, 39, 0
3, 187800, Note_on_c, 9, 39, 80
3, 187919, Note_on_c, 9, 39, 0
3, 187920, Note_on_c, 9, 39, 80
3, 188159, Note_on_c, 9, 39, 0
3, 188400, Note_on_c, 9, 47, 80
3, 188400, Note_on_c, 9, 39, 80
3, 188400, Note_on_c, 9, 48, 80
3, 188639, Note_on_c, 9, 47, 0
3, 188639, Note_on_c, 9, 39, 0
3, 188639, Note_on_c, 9, 48, 0
3, 188640, Note_on_c, 9, 39, 80
3, 188879, Note_on_c, 9, 39, 0
3, 188880, Note_on_c, 9, 39, 80
3, 189119, Note_on_c, 9, 39, 0
3, 189120, Note_on_c, 9, 45, 80
3, 189120, Note_on_c, 9, 39, 80
3, 189120, Note_on_c, 9, 43, 80
3, 189359, Note_on_c, 9, 45, 0
3, 189359, Note_on_c, 9, 39, 0
3, 189360, Note_on_c, 9, 39, 80
3, 189479, Note_on_c, 9, 39, 0
3, 189480, Note_on_c, 9, 39, 80
3, 189599, Note_on_c, 9, 43, 0
3, 189599, Note_on_c, 9, 39, 0
3, 189600, Note_on_c, 9, 43, 80
3, 189720, Note_on_c, 9, 39, 80
3, 189839, Note_on_c, 9, 39, 0
3, 189840, Note_on_c, 9, 41, 80
3, 189840, Note_on_c, 9, 39, 80
3, 189959, Note_on_c, 9, 41, 0
3, 189959, Note_on_c, 9, 39, 0
3, 189960, Note_on_c, 9, 39, 80
3, 190079, Note_on_c, 9, 43, 0
3, 190079, Note_on_c, 9, 39, 0
3, 190320, Note_on_c, 9, 39, 80
3, 190559, Note_on_c, 9, 39, 0
3, 190560, Note_on_c, 9, 39, 80
3, 190799, Note_on_c, 9, 39, 0
3, 190800, Note_on_c, 9, 39, 80
3, 191039, Note_on_c, 9, 39, 0
3, 191040, Note_on_c, 9, 39, 80
3, 191279, Note_on_c, 9, 39, 0
3, 191280, Note_on_c, 9, 39, 80
3, 191399, Note_on_c, 9, 39, 0
3, 191400, Note_on_c, 9, 39, 80
3, 191519, Note_on_c, 9, 39, 0
3, 191640, Note_on_c, 9, 39, 80
3, 191759, Note_on_c, 9, 39, 0
3, 191760, Note_on_c, 9, 39, 80
3, 191999, Note_on_c, 9, 39, 0
3, 192240, Note_on_c, 9, 47, 80
3, 192240, Note_on_c, 9, 39, 80
3, 192240, Note_on_c, 9, 48, 80
3, 192479, Note_on_c, 9, 47, 0
3, 192479, Note_on_c, 9, 39, 0
3, 192479, Note_on_c, 9, 48, 0
3, 192480, Note_on_c, 9, 39, 80
3, 192719, Note_on_c, 9, 39, 0
3, 192720, Note_on_c, 9, 39, 80
3, 192959, Note_on_c, 9, 39, 0
3, 192960, Note_on_c, 9, 45, 80
3, 192960, Note_on_c, 9, 39, 80
3, 192960, Note_on_c, 9, 43, 80
3, 193199, Note_on_c, 9, 45, 0
3, 193199, Note_on_c, 9, 39, 0
3, 193200, Note_on_c, 9, 39, 80
3, 193319, Note_on_c, 9, 39, 0
3, 193320, Note_on_c, 9, 39, 80
3, 193439, Note_on_c, 9, 43, 0
3, 193439, Note_on_c, 9, 39, 0
3, 193440, Note_on_c, 9, 43, 80
3, 193560, Note_on_c, 9, 39, 80
3, 193679, Note_on_c, 9, 39, 0
3, 193680, Note_on_c, 9, 41, 80
3, 193680, Note_on_c, 9, 39, 80
3, 193799, Note_on_c, 9, 41, 0
3, 193799, Note_on_c, 9, 39, 0
3, 193800, Note_on_c, 9, 39, 80
3, 193919, Note_on_c, 9, 43, 0
3, 193919, Note_on_c, 9, 39, 0
3, 194160, Note_on_c, 9, 39, 80
3, 194399, Note_on_c, 9, 39, 0
3, 194400, Note_on_c, 9, 39, 80
3, 194639, Note_on_c, 9, 39, 0
3, 194640, Note_on_c, 9, 39, 80
3, 194879, Note_on_c, 9, 39, 0
3, 194880, Note_on_c, 9, 39, 80
3, 195119, Note_on_c, 9, 39, 0
3, 195120, Note_on_c, 9, 39, 80
3, 195239, Note_on_c, 9, 39, 0
3, 195240, Note_on_c, 9, 39, 80
3, 195359, Note_on_c, 9, 39, 0
3, 195480, Note_on_c, 9, 39, 80
3, 195599, Note_on_c, 9, 39, 0
3, 195600, Note_on_c, 9, 39, 80
3, 195839, Note_on_c, 9, 39, 0
3, 196080, Note_on_c, 9, 40, 80
3, 196080, Note_on_c, 9, 47, 80
3, 196080, Note_on_c, 9, 39, 80
3, 196080, Note_on_c, 9, 48, 80
3, 196319, Note_on_c, 9, 40, 0
3, 196319, Note_on_c, 9, 47, 0
3, 196319, Note_on_c, 9, 39, 0
3, 196319, Note_on_c, 9, 48, 0
3, 196320, Note_on_c, 9, 39, 80
3, 196559, Note_on_c, 9, 39, 0
3, 196560, Note_on_c, 9, 39, 80
3, 196799, Note_on_c, 9, 39, 0
3, 196800, Note_on_c, 9, 40, 80
3, 196800, Note_on_c, 9, 45, 80
3, 196800, Note_on_c, 9, 39, 80
3, 196800, Note_on_c, 9, 43, 80
3, 197039, Note_on_c, 9, 40, 0
3, 197039, Note_on_c, 9, 45, 0
3, 197039, Note_on_c, 9, 39, 0
3, 197040, Note_on_c, 9, 39, 80
3, 197159, Note_on_c, 9, 39, 0
3, 197160, Note_on_c, 9, 39, 80
3, 197279, Note_on_c, 9, 43, 0
3, 197279, Note_on_c, 9, 39, 0
3, 197280, Note_on_c, 9, 40, 80
3, 197280, Note_on_c, 9, 43, 80
3, 197399, Note_on_c, 9, 40, 0
3, 197400, Note_on_c, 9, 39, 80
3, 197519, Note_on_c, 9, 39, 0
3, 197520, Note_on_c, 9, 41, 80
3, 197520, Note_on_c, 9, 40, 80
3, 197520, Note_on_c, 9, 39, 80
3, 197639, Note_on_c, 9, 41, 0
3, 197639, Note_on_c, 9, 40, 0
3, 197639, Note_on_c, 9, 39, 0
3, 197640, Note_on_c, 9, 39, 80
3, 197759, Note_on_c, 9, 43, 0
3, 197759, Note_on_c, 9, 39, 0
3, 198000, Note_on_c, 9, 39, 80
3, 198239, Note_on_c, 9, 39, 0
3, 198240, Note_on_c, 9, 39, 80
3, 198479, Note_on_c, 9, 39, 0
3, 198480, Note_on_c, 9, 39, 80
3, 198719, Note_on_c, 9, 39, 0
3, 198720, Note_on_c, 9, 39, 80
3, 198959, Note_on_c, 9, 39, 0
3, 198960, Note_on_c, 9, 39, 80
3, 199079, Note_on_c, 9, 39, 0
3, 199080, Note_on_c, 9, 39, 80
3, 199199, Note_on_c, 9, 39, 0
3, 199320, Note_on_c, 9, 39, 80
3, 199439, Note_on_c, 9, 39, 0
3, 199440, Note_on_c, 9, 39, 80
3, 199679, Note_on_c, 9, 39, 0
3, 199920, Note_on_c, 9, 40, 80
3, 199920, Note_on_c, 9, 47, 80
3, 199920, Note_on_c, 9, 39, 80
3, 199920, Note_on_c, 9, 48, 80
3, 200159, Note_on_c, 9, 40, 0
3, 200159, Note_on_c, 9, 47, 0
3, 200159, Note_on_c, 9, 39, 0
3, 200159, Note_on_c, 9, 48, 0
3, 200160, Note_on_c, 9, 39, 80
3, 200399, Note_on_c, 9, 39, 0
3, 200400, Note_on_c, 9, 39, 80
3, 200639, Note_on_c, 9, 39, 0
3, 200640, Note_on_c, 9, 40, 80
3, 200640, Note_on_c, 9, 45, 80
3, 200640, Note_on_c, 9, 39, 80
3, 200640, Note_on_c, 9, 43, 80
3, 200879, Note_on_c, 9, 40, 0
3, 200879, Note_on_c, 9, 45, 0
3, 200879, Note_on_c, 9, 39, 0
3, 200880, Note_on_c, 9, 39, 80
3, 200999, Note_on_c, 9, 39, 0
3, 201000, Note_on_c, 9, 39, 80
3, 201119, Note_on_c, 9, 43, 0
3, 201119, Note_on_c, 9, 39, 0
3, 201120, Note_on_c, 9, 40, 80
3, 201120, Note_on_c, 9, 43, 80
3, 201239, Note_on_c, 9, 40, 0
3, 201240, Note_on_c, 9, 39, 80
3, 201359, Note_on_c, 9, 39, 0
3, 201360, Note_on_c, 9, 41, 80
3, 201360, Note_on_c, 9, 40, 80
3, 201360, Note_on_c, 9, 39, 80
3, 201479, Note_on_c, 9, 41, 0
3, 201479, Note_on_c, 9, 40, 0
3, 201479, Note_on_c, 9, 39, 0
3, 201480, Note_on_c, 9, 39, 80
3, 201599, Note_on_c, 9, 43, 0
3, 201599, Note_on_c, 9, 39, 0
3, 201840, Note_on_c, 9, 39, 80
3, 202079, Note_on_c, 9, 39, 0
3, 202080, Note_on_c, 9, 39, 80
3, 202319, Note_on_c, 9, 39, 0
3, 202320, Note_on_c, 9, 39, 80
3, 202559, Note_on_c, 9, 39, 0
3, 202560, Note_on_c, 9, 39, 80
3, 202799, Note_on_c, 9, 39, 0
3, 202800, Note_on_c, 9, 39, 80
3, 202919, Note_on_c, 9, 39, 0
3, 202920, Note_on_c, 9, 39, 80
3, 203039, Note_on_c, 9, 39, 0
3, 203160, Note_on_c, 9, 39, 80
3, 203279, Note_on_c, 9, 39, 0
3, 203280, Note_on_c, 9, 39, 80
3, 203519, Note_on_c, 9, 39, 0
3, 203760, Note_on_c, 9, 40, 80
3, 203760, Note_on_c, 9, 47, 80
3, 203760, Note_on_c, 9, 39, 80
3, 203760, Note_on_c, 9, 48, 80
3, 203999, Note_on_c, 9, 40, 0
3, 203999, Note_on_c, 9, 47, 0
3, 203999, Note_on_c, 9, 39, 0
3, 203999, Note_on_c, 9, 48, 0
3, 204000, Note_on_c, 9, 39, 80
3, 204239, Note_on_c, 9, 39, 0
3, 204240, Note_on_c, 9, 39, 80
3, 204479, Note_on_c, 9, 39, 0
3, 204480, Note_on_c, 9, 40, 80
3, 204480, Note_on_c, 9, 45, 80
3, 204480, Note_on_c, 9, 39, 80
3, 204480, Note_on_c, 9, 43, 80
3, 204719, Note_on_c, 9, 40, 0
3, 204719, Note_on_c, 9, 45, 0
3, 204719, Note_on_c, 9, 39, 0
3, 204720, Note_on_c, 9, 39, 80
3, 204839, Note_on_c, 9, 39, 0
3, 204840, Note_on_c, 9, 39, 80
3, 204959, Note_on_c, 9, 43, 0
3, 204959, Note_on_c, 9, 39, 0
3, 204960, Note_on_c, 9, 40, 80
3, 204960, Note_on_c, 9, 43, 80
3, 205079, Note_on_c, 9, 40, 0
3, 205080, Note_on_c, 9, 39, 80
3, 205199, Note_on_c, 9, 39, 0
3, 205200, Note_on_c, 9, 41, 80
3, 205200, Note_on_c, 9, 40, 80
3, 205200, Note_on_c, 9, 39, 80
3, 205319, Note_on_c, 9, 41, 0
3, 205319, Note_on_c, 9, 40, 0
3, 205319, Note_on_c, 9, 39, 0
3, 205320, Note_on_c, 9, 39, 80
3, 205439, Note_on_c, 9, 43, 0
3, 205439, Note_on_c, 9, 39, 0
3, 205680, Note_on_c, 9, 39, 80
3, 205919, Note_on_c, 9, 39, 0
3, 205920, Note_on_c, 9, 39, 80
3, 206159, Note_on_c, 9, 39, 0
3, 206160, Note_on_c, 9, 39, 80
3, 206399, Note_on_c, 9, 39, 0
3, 206400, Note_on_c, 9, 39, 80
3, 206639, Note_on_c, 9, 39, 0
3, 206640, Note_on_c, 9, 39, 80
3, 206759, Note_on_c, 9, 39, 0
3, 206760, Note_on_c, 9, 39, 80
3, 206879, Note_on_c, 9, 39, 0
3, 207000, Note_on_c, 9, 39, 80
3, 207119, Note_on_c, 9, 39, 0
3, 207120, Note_on_c, 9, 39, 80
3, 207359, Note_on_c, 9, 39, 0
3, 207600, Note_on_c, 9, 40, 80
3, 207600, Note_on_c, 9, 47, 80
3, 207600, Note_on_c, 9, 39, 80
3, 207600, Note_on_c, 9, 48, 80
3, 207839, Note_on_c, 9, 40, 0
3, 207839, Note_on_c, 9, 47, 0
3, 207839, Note_on_c, 9, 39, 0
3, 207839, Note_on_c, 9, 48, 0
3, 207840, Note_on_c, 9, 39, 80
3, 208079, Note_on_c, 9, 39, 0
3, 208080, Note_on_c, 9, 39, 80
3, 208319, Note_on_c, 9, 39, 0
3, 208320, Note_on_c, 9, 40, 80
3, 208320, Note_on_c, 9, 45, 80
3, 208320, Note_on_c, 9, 39, 80
3, 208320, Note_on_c, 9, 43, 80
3, 208559, Note_on_c, 9, 40, 0
3, 208559, Note_on_c, 9, 45, 0
3, 208559, Note_on_c, 9, 39, 0
3, 208560, Note_on_c, 9, 39, 80
3, 208679, Note_on_c, 9, 39, 0
3, 208680, Note_on_c, 9, 39, 80
3, 208799, Note_on_c, 9, 43, 0
3, 208799, Note_on_c, 9, 39, 0
3, 208800, Note_on_c, 9, 40, 80
3, 208800, Note_on_c, 9, 43, 80
3, 208919, Note_on_c, 9, 40, 0
3, 208920, Note_on_c, 9, 39, 80
3, 209039, Note_on_c, 9, 39, 0
3, 209040, Note_on_c, 9, 41, 80
3, 209040, Note_on_c, 9, 40, 80
3, 209040, Note_on_c, 9, 39, 80
3, 209159, Note_on_c, 9, 41, 0
3, 209159, Note_on_c, 9, 40, 0
3, 209159, Note_on_c, 9, 39, 0
3, 209160, Note_on_c, 9, 39, 80
3, 209279, Note_on_c, 9, 43, 0
3, 209279, Note_on_c, 9, 39, 0
3, 209520, Note_on_c, 9, 39, 80
3, 209759, Note_on_c, 9, 39, 0
3, 209760, Note_on_c, 9, 39, 80
3, 209999, Note_on_c, 9, 39, 0
3, 210000, Note_on_c, 9, 39, 80
3, 210239, Note_on_c, 9, 39, 0
3, 210240, Note_on_c, 9, 39, 80
3, 210479, Note_on_c, 9, 39, 0
3, 210480, Note_on_c, 9, 39, 80
3, 210599, Note_on_c, 9, 39, 0
3, 210600, Note_on_c, 9, 39, 80
3, 210719, Note_on_c, 9, 39, 0
3, 210840, Note_on_c, 9, 39, 80
3, 210959, Note_on_c, 9, 39, 0
3, 210960, Note_on_c, 9, 39, 80
3, 211199, Note_on_c, 9, 39, 0
3, 211440, Note_on_c, 9, 40, 80
3, 211440, Note_on_c, 9, 47, 80
3, 211440, Note_on_c, 9, 39, 80
3, 211440, Note_on_c, 9, 48, 80
3, 211679, Note_on_c, 9, 40, 0
3, 211679, Note_on_c, 9, 47, 0
3, 211679, Note_on_c, 9, 39, 0
3, 211679, Note_on_c, 9, 48, 0
3, 211680, Note_on_c, 9, 39, 80
3, 211919, Note_on_c, 9, 39, 0
3, 211920, Note_on_c, 9, 39, 80
3, 212159, Note_on_c, 9, 39, 0
3, 212160, Note_on_c, 9, 40, 80
3, 212160, Note_on_c, 9, 45, 80
3, 212160, Note_on_c, 9, 39, 80
3, 212160, Note_on_c, 9, 43, 80
3, 212399, Note_on_c, 9, 40, 0
3, 212399, Note_on_c, 9, 45, 0
3, 212399, Note_on_c, 9, 39, 0
3, 212400, Note_on_c, 9, 39, 80
3, 212519, Note_on_c, 9, 39, 0
3, 212520, Note_on_c, 9, 39, 80
3, 212639, Note_on_c, 9, 43, 0
3, 212639, Note_on_c, 9, 39, 0
3, 212640, Note_on_c, 9, 40, 80
3, 212640, Note_on_c, 9, 43, 80
3, 212759, Note_on_c, 9, 40, 0
3, 212760, Note_on_c, 9, 39, 80
3, 212879, Note_on_c, 9, 39, 0
3, 212880, Note_on_c, 9, 41, 80
3, 212880, Note_on_c, 9, 40, 80
3, 212880, Note_on_c, 9, 39, 80
3, 212999, Note_on_c, 9, 41, 0
3, 212999, Note_on_c, 9, 40, 0
3, 212999, Note_on_c, 9, 39, 0
3, 213000, Note_on_c, 9, 39, 80
3, 213119, Note_on_c, 9, 43, 0
3, 213119, Note_on_c, 9, 39, 0
3, 213360, Note_on_c, 9, 39, 80
3, 213599, Note_on_c, 9, 39, 0
3, 213600, Note_on_c, 9, 39, 80
3, 213839, Note_on_c, 9, 39, 0
3, 213840, Note_on_c, 9, 39, 80
3, 214079, Note_on_c, 9, 39, 0
3, 214080, Note_on_c, 9, 39, 80
3, 214319, Note_on_c, 9, 39, 0
3, 214320, Note_on_c, 9, 39, 80
3, 214439, Note_on_c, 9, 39, 0
3, 214440, Note_on_c, 9, 39, 80
3, 214559, Note_on_c, 9, 39, 0
3, 214680, Note_on_c, 9, 39, 80
3, 214799, Note_on_c, 9, 39, 0
3, 214800, Note_on_c, 9, 39, 80
3, 215039, Note_on_c, 9, 39, 0
3, 215280, Note_on_c, 9, 40, 80
3, 215280, Note_on_c, 9, 47, 80
3, 215280, Note_on_c, 9, 39, 80
3, 215280, Note_on_c, 9, 48, 80
3, 215519, Note_on_c, 9, 40, 0
3, 215519, Note_on_c, 9, 47, 0
3, 215519, Note_on_c, 9, 39, 0
3, 215519, Note_on_c, 9, 48, 0
3, 215520, Note_on_c, 9, 39, 80
3, 215759, Note_on_c, 9, 39, 0
3, 215760, Note_on_c, 9, 39, 80
3, 215999, Note_on_c, 9, 39, 0
3, 216000, Note_on_c, 9, 40, 80
3, 216000, Note_on_c, 9, 45, 80
3, 216000, Note_on_c, 9, 39, 80
3, 216000, Note_on_c, 9, 43, 80
3, 216239, Note_on_c, 9, 40, 0
3, 216239, Note_on_c, 9, 45, 0
3, 216239, Note_on_c, 9, 39, 0
3, 216240, Note_on_c, 9, 39, 80
3, 216359, Note_on_c, 9, 39, 0
3, 216360, Note_on_c, 9, 39, 80
3, 216479, Note_on_c, 9, 43, 0
3, 216479, Note_on_c, 9, 39, 0
3, 216480, Note_on_c, 9, 40, 80
3, 216480, Note_on_c, 9, 43, 80
3, 216599, Note_on_c, 9, 40, 0
3, 216600, Note_on_c, 9, 39, 80
3, 216719, Note_on_c, 9, 39, 0
3, 216720, Note_on_c, 9, 41, 80
3, 216720, Note_on_c, 9, 40, 80
3, 216720, Note_on_c, 9, 39, 80
3, 216839, Note_on_c, 9, 41, 0
3, 216839, Note_on_c, 9, 40, 0
3, 216839, Note_on_c, 9, 39, 0
3, 216840, Note_on_c, 9, 39, 80
3, 216959, Note_on_c, 9, 43, 0
3, 216959, Note_on_c, 9, 39, 0
3, 217200, Note_on_c, 9, 39, 80
3, 217439, Note_on_c, 9, 39, 0
3, 217440, Note_on_c, 9, 39, 80
3, 217679, Note_on_c, 9, 39, 0
3, 217680, Note_on_c, 9, 39, 80
3, 217919, Note_on_c, 9, 39, 0
3, 217920, Note_on_c, 9, 39, 80
3, 218159, Note_on_c, 9, 39, 0
3, 218160, Note_on_c, 9, 39, 80
3, 218279, Note_on_c, 9, 39, 0
3, 218280, Note_on_c, 9, 39, 80
3, 218399, Note_on_c, 9, 39, 0
3, 218520, Note_on_c, 9, 39, 80
3, 218639, Note_on_c, 9, 39, 0
3, 218640, Note_on_c, 9, 39, 80
3, 218879, Note_on_c, 9, 39, 0
3, 219120, Note_on_c, 9, 47, 80
3, 219120, Note_on_c, 9, 39, 80
3, 219120, Note_on_c, 9, 48, 80
3, 219359, Note_on_c, 9, 47, 0
3, 219359, Note_on_c, 9, 39, 0
3, 219359, Note_on_c, 9, 48, 0
3, 219360, Note_on_c, 9, 39, 80
3, 219599, Note_on_c, 9, 39, 0
3, 219600, Note_on_c, 9, 39, 80
3, 219839, Note_on_c, 9, 39, 0
3, 219840, Note_on_c, 9, 45, 80
3, 219840, Note_on_c, 9, 39, 80
3, 219840, Note_on_c, 9, 43, 80
3, 220079, Note_on_c, 9, 45, 0
3, 220079, Note_on_c, 9, 39, 0
3, 220080, Note_on_c, 9, 39, 80
3, 220199, Note_on_c, 9, 39, 0
3, 220200, Note_on_c, 9, 39, 80
3, 220319, Note_on_c, 9, 43, 0
3, 220319, Note_on_c, 9, 39, 0
3, 220320, Note_on_c, 9, 43, 80
3, 220440, Note_on_c, 9, 39, 80
3, 220559, Note_on_c, 9, 39, 0
3, 220560, Note_on_c, 9, 41, 80
3, 220560, Note_on_c, 9, 39, 80
3, 220679, Note_on_c, 9, 41, 0
3, 220679, Note_on_c, 9, 39, 0
3, 220680, Note_on_c, 9, 39, 80
3, 220799, Note_on_c, 9, 43, 0
3, 220799, Note_on_c, 9, 39, 0
3, 221040, Note_on_c, 9, 39, 80
3, 221279, Note_on_c, 9, 39, 0
3, 221280, Note_on_c, 9, 39, 80
3, 221519, Note_on_c, 9, 39, 0
3, 221520, Note_on_c, 9, 39, 80
3, 221759, Note_on_c, 9, 39, 0
3, 221760, Note_on_c, 9, 39, 80
3, 221999, Note_on_c, 9, 39, 0
3, 222000, Note_on_c, 9, 39, 80
3, 222119, Note_on_c, 9, 39, 0
3, 222120, Note_on_c, 9, 39, 80
3, 222239, Note_on_c, 9, 39, 0
3, 222360, Note_on_c, 9, 39, 80
3, 222479, Note_on_c, 9, 39, 0
3, 222480, Note_on_c, 9, 39, 80
3, 222719, Note_on_c, 9, 39, 0
3, 222960, Note_on_c, 9, 47, 80
3, 222960, Note_on_c, 9, 39, 80
3, 222960, Note_on_c, 9, 48, 80
3, 223199, Note_on_c, 9, 47, 0
3, 223199, Note_on_c, 9, 39, 0
3, 223199, Note_on_c, 9, 48, 0
3, 223200, Note_on_c, 9, 39, 80
3, 223439, Note_on_c, 9, 39, 0
3, 223440, Note_on_c, 9, 39, 80
3, 223679, Note_on_c, 9, 39, 0
3, 223680, Note_on_c, 9, 45, 80
3, 223680, Note_on_c, 9, 39, 80
3, 223680, Note_on_c, 9, 43, 80
3, 223919, Note_on_c, 9, 45, 0
3, 223919, Note_on_c, 9, 39, 0
3, 223920, Note_on_c, 9, 39, 80
3, 224039, Note_on_c, 9, 39, 0
3, 224040, Note_on_c, 9, 39, 80
3, 224159, Note_on_c, 9, 43, 0
3, 224159, Note_on_c, 9, 39, 0
3, 224160, Note_on_c, 9, 43, 80
3, 224280, Note_on_c, 9, 39, 80
3, 224399, Note_on_c, 9, 39, 0
3, 224400, Note_on_c, 9, 41, 80
3, 224400, Note_on_c, 9, 39, 80
3, 224519, Note_on_c, 9, 41, 0
3, 224519, Note_on_c, 9, 39, 0
3, 224520, Note_on_c, 9, 39, 80
3, 224639, Note_on_c, 9, 43, 0
3, 224639, Note_on_c, 9, 39, 0
3, 224880, Note_on_c, 9, 39, 80
3, 225119, Note_on_c, 9, 39, 0
3, 225120, Note_on_c, 9, 39, 80
3, 225359, Note_on_c, 9, 39, 0
3, 225360, Note_on_c, 9, 39, 80
3, 225599, Note_on_c, 9, 39, 0
3, 225600, Note_on_c, 9, 39, 80
3, 225839, Note_on_c, 9, 39, 0
3, 225840, Note_on_c, 9, 39, 80
3, 225959, Note_on_c, 9, 39, 0
3, 225960, Note_on_c, 9, 39, 80
3, 226079, Note_on_c, 9, 39, 0
3, 226200, Note_on_c, 9, 39, 80
3, 226319, Note_on_c, 9, 39, 0
3, 226320, Note_on_c, 9, 39, 80
3, 226559, Note_on_c, 9, 39, 0
3, 226800, Note_on_c, 9, 40, 80
3, 226800, Note_on_c, 9, 47, 80
3, 226800, Note_on_c, 9, 39, 80
3, 226800, Note_on_c, 9, 48, 80
3, 227039, Note_on_c, 9, 40, 0
3, 227039, Note_on_c, 9, 47, 0
3, 227039, Note_on_c, 9, 39, 0
3, 227039, Note_on_c, 9, 48, 0
3, 227040, Note_on_c, 9, 39, 80
3, 227279, Note_on_c, 9, 39, 0
3, 227280, Note_on_c, 9, 39, 80
3, 227519, Note_on_c, 9, 39, 0
3, 227520, Note_on_c, 9, 40, 80
3, 227520, Note_on_c, 9, 45, 80
3, 227520, Note_on_c, 9, 39, 80
3, 227520, Note_on_c, 9, 43, 80
3, 227759, Note_on_c, 9, 40, 0
3, 227759, Note_on_c, 9, 45, 0
3, 227759, Note_on_c, 9, 39, 0
3, 227760, Note_on_c, 9, 39, 80
3, 227879, Note_on_c, 9, 39, 0
3, 227880, Note_on_c, 9, 39, 80
3, 227999, Note_on_c, 9, 43, 0
3, 227999, Note_on_c, 9, 39, 0
3, 228000, Note_on_c, 9, 40, 80
3, 228000, Note_on_c, 9, 43, 80
3, 228119, Note_on_c, 9, 40, 0
3, 228120, Note_on_c, 9, 39, 80
3, 228239, Note_on_c, 9, 39, 0
3, 228240, Note_on_c, 9, 41, 80
3, 228240, Note_on_c, 9, 40, 80
3, 228240, Note_on_c, 9, 39, 80
3, 228359, Note_on_c, 9, 41, 0
3, 228359, Note_on_c, 9, 40, 0
3, 228359, Note_on_c, 9, 39, 0
3, 228360, Note_on_c, 9, 39, 80
3, 228479, Note_on_c, 9, 43, 0
3, 228479, Note_on_c, 9, 39, 0
3, 228720, Note_on_c, 9, 39, 80
3, 228959, Note_on_c, 9, 39, 0
3, 228960, Note_on_c, 9, 39, 80
3, 229199, Note_on_c, 9, 39, 0
3, 229200, Note_on_c, 9, 39, 80
3, 229439, Note_on_c, 9, 39, 0
3, 229440, Note_on_c, 9, 39, 80
3, 229679, Note_on_c, 9, 39, 0
3, 229680, Note_on_c, 9, 39, 80
3, 229799, Note_on_c, 9, 39, 0
3, 229800, Note_on_c, 9, 39, 80
3, 229919, Note_on_c, 9, 39, 0
3, 230040, Note_on_c, 9, 39, 80
3, 230159, Note_on_c, 9, 39, 0
3, 230160, Note_on_c, 9, 39, 80
3, 230399, Note_on_c, 9, 39, 0
3, 230640, Note_on_c, 9, 40, 80
3, 230640, Note_on_c, 9, 47, 80
3, 230640, Note_on_c, 9, 39, 80
3, 230640, Note_on_c, 9, 48, 80
3, 230879, Note_on_c, 9, 40, 0
3, 230879, Note_on_c, 9, 47, 0
3, 230879, Note_on_c, 9, 39, 0
3, 230879, Note_on_c, 9, 48, 0
3, 230880, Note_on_c, 9, 39, 80
3, 231119, Note_on_c, 9, 39, 0
3, 231120, Note_on_c, 9, 39, 80
3, 231359, Note_on_c, 9, 39, 0
3, 231360, Note_on_c, 9, 40, 80
3, 231360, Note_on_c, 9, 45, 80
3, 231360, Note_on_c, 9, 39, 80
3, 231360, Note_on_c, 9, 43, 80
3, 231599, Note_on_c, 9, 40, 0
3, 231599, Note_on_c, 9, 45, 0
3, 231599, Note_on_c, 9, 39, 0
3, 231600, Note_on_c, 9, 39, 80
3, 231719, Note_on_c, 9, 39, 0
3, 231720, Note_on_c, 9, 39, 80
3, 231839, Note_on_c, 9, 43, 0
3, 231839, Note_on_c, 9, 39, 0
3, 231840, Note_on_c, 9, 40, 80
3, 231840, Note_on_c, 9, 43, 80
3, 231959, Note_on_c, 9, 40, 0
3, 231960, Note_on_c, 9, 39, 80
3, 232079, Note_on_c, 9, 39, 0
3, 232080, Note_on_c, 9, 41, 80
3, 232080, Note_on_c, 9, 40, 80
3, 232080, Note_on_c, 9, 39, 80
3, 232199, Note_on_c, 9, 41, 0
3, 232199, Note_on_c, 9, 40, 0
3, 232199, Note_on_c, 9, 39, 0
3, 232200, Note_on_c, 9, 39, 80
3, 232319, Note_on_c, 9, 43, 0
3, 232319, Note_on_c, 9, 39, 0
3, 232560, Note_on_c, 9, 39, 80
3, 232799, Note_on_c, 9, 39, 0
3, 232800, Note_on_c, 9, 39, 80
3, 233039, Note_on_c, 9, 39, 0
3, 233040, Note_on_c, 9, 39, 80
3, 233279, Note_on_c, 9, 39, 0
3, 233280, Note_on_c, 9, 39, 80
3, 233519, Note_on_c, 9, 39, 0
3, 233520, Note_on_c, 9, 39, 80
3, 233639, Note_on_c, 9, 39, 0
3, 233640, Note_on_c, 9, 39, 80
3, 233759, Note_on_c, 9, 39, 0
3, 233880, Note_on_c, 9, 39, 80
3, 233999, Note_on_c, 9, 39, 0
3, 234000, Note_on_c, 9, 39, 80
3, 234239, Note_on_c, 9, 39, 0
3, 234480, Note_on_c, 9, 40, 80
3, 234480, Note_on_c, 9, 47, 80
3, 234480, Note_on_c, 9, 39, 80
3, 234480, Note_on_c, 9, 48, 80
3, 234719, Note_on_c, 9, 40, 0
3, 234719, Note_on_c, 9, 47, 0
3, 234719, Note_on_c, 9, 39, 0
3, 234719, Note_on_c, 9, 48, 0
3, 234720, Note_on_c, 9, 39, 80
3, 234959, Note_on_c, 9, 39, 0
3, 234960, Note_on_c, 9, 39, 80
3, 235199, Note_on_c, 9, 39, 0
3, 235200, Note_on_c, 9, 40, 80
3, 235200, Note_on_c, 9, 45, 80
3, 235200, Note_on_c, 9, 39, 80
3, 235200, Note_on_c, 9, 43, 80
3, 235439, Note_on_c, 9, 40, 0
3, 235439, Note_on_c, 9, 45, 0
3, 235439, Note_on_c, 9, 39, 0
3, 235440, Note_on_c, 9, 39, 80
3, 235559, Note_on_c, 9, 39, 0
3, 235560, Note_on_c, 9, 39, 80
3, 235679, Note_on_c, 9, 43, 0
3, 235679, Note_on_c, 9, 39, 0
3, 235680, Note_on_c, 9, 40, 80
3, 235680, Note_on_c, 9, 43, 80
3, 235799, Note_on_c, 9, 40, 0
3, 235800, Note_on_c, 9, 39, 80
3, 235919, Note_on_c, 9, 39, 0
3, 235920, Note_on_c, 9, 41, 80
3, 235920, Note_on_c, 9, 40, 80
3, 235920, Note_on_c, 9, 39, 80
3, 236039, Note_on_c, 9, 41, 0
3, 236039, Note_on_c, 9, 40, 0
3, 236039, Note_on_c, 9, 39, 0
3, 236040, Note_on_c, 9, 39, 80
3, 236159, Note_on_c, 9, 43, 0
3, 236159, Note_on_c, 9, 39, 0
3, 236400, Note_on_c, 9, 39, 80
3, 236639, Note_on_c, 9, 39, 0
3, 236640, Note_on_c, 9, 39, 80
3, 236879, Note_on_c, 9, 39, 0
3, 236880, Note_on_c, 9, 39, 80
3, 237119, Note_on_c, 9, 39, 0
3, 237120, Note_on_c, 9, 39, 80
3, 237359, Note_on_c, 9, 39, 0
3, 237360, Note_on_c, 9, 39, 80
3, 237479, Note_on_c, 9, 39, 0
3, 237480, Note_on_c, 9, 39, 80
3, 237599, Note_on_c, 9, 39, 0
3, 237720, Note_on_c, 9, 39, 80
3, 237839, Note_on_c, 9, 39, 0
3, 237840, Note_on_c, 9, 39, 80
3, 238079, Note_on_c, 9, 39, 0
3, 238320, Note_on_c, 9, 40, 80
3, 238320, Note_on_c, 9, 47, 80
3, 238320, Note_on_c, 9, 39, 80
3, 238320, Note_on_c, 9, 48, 80
3, 238559, Note_on_c, 9, 40, 0
3, 238559, Note_on_c, 9, 47, 0
3, 238559, Note_on_c, 9, 39, 0
3, 238559, Note_on_c, 9, 48, 0
3, 238560, Note_on_c, 9, 39, 80
3, 238799, Note_on_c, 9, 39, 0
3, 238800, Note_on_c, 9, 39, 80
3, 239039, Note_on_c, 9, 39, 0
3, 239040, Note_on_c, 9, 40, 80
3, 239040, Note_on_c, 9, 45, 80
3, 239040, Note_on_c, 9, 39, 80
3, 239040, Note_on_c, 9, 43, 80
3, 239279, Note_on_c, 9, 40, 0
3, 239279, Note_on_c, 9, 45, 0
3, 239279, Note_on_c, 9, 39, 0
3, 239280, Note_on_c, 9, 39, 80
3, 239399, Note_on_c, 9, 39, 0
3, 239400, Note_on_c, 9, 39, 80
3, 239519, Note_on_c, 9, 43, 0
3, 239519, Note_on_c, 9, 39, 0
3, 239520, Note_on_c, 9, 40, 80
3, 239520, Note_on_c, 9, 43, 80
3, 239639, Note_on_c, 9, 40, 0
3, 239640, Note_on_c, 9, 39, 80
3, 239759, Note_on_c, 9, 39, 0
3, 239760, Note_on_c, 9, 41, 80
3, 239760, Note_on_c, 9, 40, 80
3, 239760, Note_on_c, 9, 39, 80
3, 239879, Note_on_c, 9, 41, 0
3, 239879, Note_on_c, 9, 40, 0
3, 239879, Note_on_c, 9, 39, 0
3, 239880, Note_on_c, 9, 39, 80
3, 239999, Note_on_c, 9, 43, 0
3, 239999, Note_on_c, 9, 39, 0
3, 240240, Note_on_c, 9, 39, 80
3, 240479, Note_on_c, 9, 39, 0
3, 240480, Note_on_c, 9, 39, 80
3, 240719, Note_on_c, 9, 39, 0
3, 240720, Note_on_c, 9, 39, 80
3, 240959, Note_on_c, 9, 39, 0
3, 240960, Note_on_c, 9, 39, 80
3, 241199, Note_on_c, 9, 39, 0
3, 241200, Note_on_c, 9, 39, 80
3, 241319, Note_on_c, 9, 39, 0
3, 241320, Note_on_c, 9, 39, 80
3, 241439, Note_on_c, 9, 39, 0
3, 241560, Note_on_c, 9, 39, 80
3, 241679, Note_on_c, 9, 39, 0
3, 241680, Note_on_c, 9, 39, 80
3, 241919, Note_on_c, 9, 39, 0
3, 242160, Note_on_c, 9, 40, 80
3, 242160, Note_on_c, 9, 47, 80
3, 242160, Note_on_c, 9, 39, 80
3, 242160, Note_on_c, 9, 48, 80
3, 242399, Note_on_c, 9, 40, 0
3, 242399, Note_on_c, 9, 47, 0
3, 242399, Note_on_c, 9, 39, 0
3, 242399, Note_on_c, 9, 48, 0
3, 242400, Note_on_c, 9, 39, 80
3, 242639, Note_on_c, 9, 39, 0
3, 242640, Note_on_c, 9, 39, 80
3, 242879, Note_on_c, 9, 39, 0
3, 242880, Note_on_c, 9, 40, 80
3, 242880, Note_on_c, 9, 45, 80
3, 242880, Note_on_c, 9, 39, 80
3, 242880, Note_on_c, 9, 43, 80
3, 243119, Note_on_c, 9, 40, 0
3, 243119, Note_on_c, 9, 45, 0
3, 243119, Note_on_c, 9, 39, 0
3, 243120, Note_on_c, 9, 39, 80
3, 243239, Note_on_c, 9, 39, 0
3, 243240, Note_on_c, 9, 39, 80
3, 243359, Note_on_c, 9, 43, 0
3, 243359, Note_on_c, 9, 39, 0
3, 243360, Note_on_c, 9, 40, 80
3, 243360, Note_on_c, 9, 43, 80
3, 243479, Note_on_c, 9, 40, 0
3, 243480, Note_on_c, 9, 39, 80
3, 243599, Note_on_c, 9, 39, 0
3, 243600, Note_on_c, 9, 41, 80
3, 243600, Note_on_c, 9, 40, 80
3, 243600, Note_on_c, 9, 39, 80
3, 243719, Note_on_c, 9, 41, 0
3, 243719, Note_on_c, 9, 40, 0
3, 243719, Note_on_c, 9, 39, 0
3, 243720, Note_on_c, 9, 39, 80
3, 243839, Note_on_c, 9, 43, 0
3, 243839, Note_on_c, 9, 39, 0
3, 244080, Note_on_c, 9, 39, 80
3, 244319, Note_on_c, 9, 39, 0
3, 244320, Note_on_c, 9, 39, 80
3, 244559, Note_on_c, 9, 39, 0
3, 244560, Note_on_c, 9, 39, 80
3, 244799, Note_on_c, 9, 39, 0
3, 244800, Note_on_c, 9, 39, 80
3, 245039, Note_on_c, 9, 39, 0
3, 245040, Note_on_c, 9, 39, 80
3, 245159, Note_on_c, 9, 39, 0
3, 245160, Note_on_c, 9, 39, 80
3, 245279, Note_on_c, 9, 39, 0
3, 245400, Note_on_c, 9, 39, 80
3, 245519, Note_on_c, 9, 39, 0
3, 245520, Note_on_c, 9, 39, 80
3, 245759, Note_on_c, 9, 39, 0
3, 246000, Note_on_c, 9, 40, 80
3, 246000, Note_on_c, 9, 47, 80
3, 246000, Note_on_c, 9, 39, 80
3, 246000, Note_on_c, 9, 48, 80
3, 246239, Note_on_c, 9, 40, 0
3, 246239, Note_on_c, 9, 47, 0
3, 246239, Note_on_c, 9, 39, 0
3, 246239, Note_on_c, 9, 48, 0
3, 246240, Note_on_c, 9, 39, 80
3, 246479, Note_on_c, 9, 39, 0
3, 246480, Note_on_c, 9, 39, 80
3, 246719, Note_on_c, 9, 39, 0
3, 246720, Note_on_c, 9, 40, 80
3, 246720, Note_on_c, 9, 45, 80
3, 246720, Note_on_c, 9, 39, 80
3, 246720, Note_on_c, 9, 43, 80
3, 246959, Note_on_c, 9, 40, 0
3, 246959, Note_on_c, 9, 45, 0
3, 246959, Note_on_c, 9, 39, 0
3, 246960, Note_on_c, 9, 39, 80
3, 247079, Note_on_c, 9, 39, 0
3, 247080, Note_on_c, 9, 39, 80
3, 247199, Note_on_c, 9, 43, 0
3, 247199, Note_on_c, 9, 39, 0
3, 247200, Note_on_c, 9, 40, 80
3, 247200, Note_on_c, 9, 43, 80
3, 247319, Note_on_c, 9, 40, 0
3, 247320, Note_on_c, 9, 39, 80
3, 247439, Note_on_c, 9, 39, 0
3, 247440, Note_on_c, 9, 41, 80
3, 247440, Note_on_c, 9, 40, 80
3, 247440, Note_on_c, 9, 39, 80
3, 247559, Note_on_c, 9, 41, 0
3, 247559, Note_on_c, 9, 40, 0
3, 247559, Note_on_c, 9, 39, 0
3, 247560, Note_on_c, 9, 39, 80
3, 247679, Note_on_c, 9, 43, 0
3, 247679, Note_on_c, 9, 39, 0
3, 247680, Note_on_c, 9, 39, 80
3, 247919, Note_on_c, 9, 39, 0
3, 247920, Note_on_c, 9, 39, 80
3, 248159, Note_on_c, 9, 39, 0
3, 248160, Note_on_c, 9, 39, 80
3, 248399, Note_on_c, 9, 39, 0
3, 248400, Note_on_c, 9, 39, 80
3, 248639, Note_on_c, 9, 39, 0
3, 248640, Note_on_c, 9, 39, 80
3, 248879, Note_on_c, 9, 39, 0
3, 248880, Note_on_c, 9, 39, 80
3, 248999, Note_on_c, 9, 39, 0
3, 249000, Note_on_c, 9, 39, 80
3, 249119, Note_on_c, 9, 39, 0
3, 249240, Note_on_c, 9, 39, 80
3, 249359, Note_on_c, 9, 39, 0
3, 249360, Note_on_c, 9, 39, 80
3, 249599, Note_on_c, 9, 39, 0
3, 249600, End_track
4, 0, Start_track
4, 0, Key_signature, 0, "major"
4, 0, Control_c, 9, 121, 0
4, 0, Program_c, 9, 0
4, 0, Control_c, 9, 7, 100
4, 0, Control_c, 9, 10, 64
4, 0, Control_c, 9, 91, 0
4, 0, Control_c, 9, 93, 0
4, 0, MIDI_port, 3
4, 13440, Note_on_c, 9, 70, 64
4, 13440, Note_on_c, 9, 77, 64
4, 13679, Note_on_c, 9, 70, 0
4, 13679, Note_on_c, 9, 77, 0
4, 13680, Note_on_c, 9, 70, 64
4, 13680, Note_on_c, 9, 77, 64
4, 13799, Note_on_c, 9, 70, 0
4, 13799, Note_on_c, 9, 77, 0
4, 13800, Note_on_c, 9, 70, 64
4, 13919, Note_on_c, 9, 70, 0
4, 13920, Note_on_c, 9, 70, 64
4, 13920, Note_on_c, 9, 77, 64
4, 14159, Note_on_c, 9, 70, 0
4, 14159, Note_on_c, 9, 77, 0
4, 14160, Note_on_c, 9, 70, 64
4, 14160, Note_on_c, 9, 77, 64
4, 14279, Note_on_c, 9, 70, 0
4, 14279, Note_on_c, 9, 77, 0
4, 14280, Note_on_c, 9, 70, 64
4, 14399, Note_on_c, 9, 70, 0
4, 14400, Note_on_c, 9, 70, 64
4, 14400, Note_on_c, 9, 77, 64
4, 14639, Note_on_c, 9, 70, 0
4, 14639, Note_on_c, 9, 77, 0
4, 14640, Note_on_c, 9, 70, 64
4, 14640, Note_on_c, 9, 77, 64
4, 14759, Note_on_c, 9, 70, 0
4, 14759, Note_on_c, 9, 77, 0
4, 14760, Note_on_c, 9, 70, 64
4, 14760, Note_on_c, 9, 77, 64
4, 14879, Note_on_c, 9, 70, 0
4, 14879, Note_on_c, 9, 77, 0
4, 14880, Note_on_c, 9, 70, 64
4, 14999, Note_on_c, 9, 70, 0
4, 15000, Note_on_c, 9, 77, 64
4, 15119, Note_on_c, 9, 77, 0
4, 15120, Note_on_c, 9, 70, 64
4, 15120, Note_on_c, 9, 77, 64
4, 15239, Note_on_c, 9, 70, 0
4, 15239, Note_on_c, 9, 77, 0
4, 15240, Note_on_c, 9, 70, 64
4, 15359, Note_on_c, 9, 70, 0
4, 15360, Note_on_c, 9, 70, 64
4, 15360, Note_on_c, 9, 77, 64
4, 15599, Note_on_c, 9, 70, 0
4, 15599, Note_on_c, 9, 77, 0
4, 15600, Note_on_c, 9, 70, 64
4, 15600, Note_on_c, 9, 77, 64
4, 15719, Note_on_c, 9, 70, 0
4, 15719, Note_on_c, 9, 77, 0
4, 15720, Note_on_c, 9, 70, 64
4, 15839, Note_on_c, 9, 70, 0
4, 15840, Note_on_c, 9, 70, 64
4, 15840, Note_on_c, 9, 77, 64
4, 16079, Note_on_c, 9, 70, 0
4, 16079, Note_on_c, 9, 77, 0
4, 16080, Note_on_c, 9, 70, 64
4, 16080, Note_on_c, 9, 77, 64
4, 16199, Note_on_c, 9, 70, 0
4, 16199, Note_on_c, 9, 77, 0
4, 16200, Note_on_c, 9, 70, 64
4, 16319, Note_on_c, 9, 70, 0
4, 16320, Note_on_c, 9, 70, 64
4, 16320, Note_on_c, 9, 77, 64
4, 16559, Note_on_c, 9, 70, 0
4, 16559, Note_on_c, 9, 77, 0
4, 16560, Note_on_c, 9, 70, 64
4, 16560, Note_on_c, 9, 77, 64
4, 16679, Note_on_c, 9, 70, 0
4, 16679, Note_on_c, 9, 77, 0
4, 16680, Note_on_c, 9, 70, 64
4, 16680, Note_on_c, 9, 77, 64
4, 16799, Note_on_c, 9, 70, 0
4, 16799, Note_on_c, 9, 77, 0
4, 16800, Note_on_c, 9, 70, 64
4, 16919, Note_on_c, 9, 70, 0
4, 16920, Note_on_c, 9, 77, 64
4, 17039, Note_on_c, 9, 77, 0
4, 17040, Note_on_c, 9, 70, 64
4, 17040, Note_on_c, 9, 77, 64
4, 17159, Note_on_c, 9, 70, 0
4, 17159, Note_on_c, 9, 77, 0
4, 17160, Note_on_c, 9, 70, 64
4, 17160, Note_on_c, 9, 77, 64
4, 17279, Note_on_c, 9, 70, 0
4, 17279, Note_on_c, 9, 77, 0
4, 17280, Note_on_c, 9, 70, 64
4, 17280, Note_on_c, 9, 77, 64
4, 17519, Note_on_c, 9, 70, 0
4, 17519, Note_on_c, 9, 77, 0
4, 17520, Note_on_c, 9, 70, 64
4, 17520, Note_on_c, 9, 77, 64
4, 17639, Note_on_c, 9, 70, 0
4, 17639, Note_on_c, 9, 77, 0
4, 17640, Note_on_c, 9, 70, 64
4, 17759, Note_on_c, 9, 70, 0
4, 17760, Note_on_c, 9, 70, 64
4, 17760, Note_on_c, 9, 77, 64
4, 17999, Note_on_c, 9, 70, 0
4, 17999, Note_on_c, 9, 77, 0
4, 18000, Note_on_c, 9, 70, 64
4, 18000, Note_on_c, 9, 77, 64
4, 18119, Note_on_c, 9, 70, 0
4, 18119, Note_on_c, 9, 77, 0
4, 18120, Note_on_c, 9, 70, 64
4, 18239, Note_on_c, 9, 70, 0
4, 18240, Note_on_c, 9, 70, 64
4, 18240, Note_on_c, 9, 77, 64
4, 18479, Note_on_c, 9, 70, 0
4, 18479, Note_on_c, 9, 77, 0
4, 18480, Note_on_c, 9, 70, 64
4, 18480, Note_on_c, 9, 77, 64
4, 18599, Note_on_c, 9, 70, 0
4, 18599, Note_on_c, 9, 77, 0
4, 18600, Note_on_c, 9, 70, 64
4, 18600, Note_on_c, 9, 77, 64
4, 18719, Note_on_c, 9, 70, 0
4, 18719, Note_on_c, 9, 77, 0
4, 18720, Note_on_c, 9, 70, 64
4, 18839, Note_on_c, 9, 70, 0
4, 18840, Note_on_c, 9, 77, 64
4, 18959, Note_on_c, 9, 77, 0
4, 18960, Note_on_c, 9, 70, 64
4, 18960, Note_on_c, 9, 77, 64
4, 19079, Note_on_c, 9, 70, 0
4, 19079, Note_on_c, 9, 77, 0
4, 19080, Note_on_c, 9, 70, 64
4, 19199, Note_on_c, 9, 70, 0
4, 19200, Note_on_c, 9, 70, 64
4, 19200, Note_on_c, 9, 77, 64
4, 19439, Note_on_c, 9, 70, 0
4, 19439, Note_on_c, 9, 77, 0
4, 19440, Note_on_c, 9, 70, 64
4, 19440, Note_on_c, 9, 77, 64
4, 19559, Note_on_c, 9, 70, 0
4, 19559, Note_on_c, 9, 77, 0
4, 19560, Note_on_c, 9, 70, 64
4, 19679, Note_on_c, 9, 70, 0
4, 19680, Note_on_c, 9, 70, 64
4, 19680, Note_on_c, 9, 77, 64
4, 19919, Note_on_c, 9, 70, 0
4, 19919, Note_on_c, 9, 77, 0
4, 19920, Note_on_c, 9, 70, 64
4, 19920, Note_on_c, 9, 77, 64
4, 20039, Note_on_c, 9, 70, 0
4, 20039, Note_on_c, 9, 77, 0
4, 20040, Note_on_c, 9, 70, 64
4, 20159, Note_on_c, 9, 70, 0
4, 20160, Note_on_c, 9, 70, 64
4, 20160, Note_on_c, 9, 77, 64
4, 20399, Note_on_c, 9, 70, 0
4, 20399, Note_on_c, 9, 77, 0
4, 20400, Note_on_c, 9, 70, 64
4, 20400, Note_on_c, 9, 77, 64
4, 20519, Note_on_c, 9, 70, 0
4, 20519, Note_on_c, 9, 77, 0
4, 20520, Note_on_c, 9, 70, 64
4, 20520, Note_on_c, 9, 77, 64
4, 20639, Note_on_c, 9, 70, 0
4, 20639, Note_on_c, 9, 77, 0
4, 20640, Note_on_c, 9, 70, 64
4, 20759, Note_on_c, 9, 70, 0
4, 20760, Note_on_c, 9, 77, 64
4, 20879, Note_on_c, 9, 77, 0
4, 20880, Note_on_c, 9, 70, 64
4, 20880, Note_on_c, 9, 77, 64
4, 20999, Note_on_c, 9, 70, 0
4, 20999, Note_on_c, 9, 77, 0
4, 21000, Note_on_c, 9, 70, 64
4, 21000, Note_on_c, 9, 77, 64
4, 21119, Note_on_c, 9, 70, 0
4, 21119, Note_on_c, 9, 77, 0
4, 21120, Note_on_c, 9, 70, 64
4, 21120, Note_on_c, 9, 77, 64
4, 21359, Note_on_c, 9, 70, 0
4, 21359, Note_on_c, 9, 77, 0
4, 21360, Note_on_c, 9, 70, 64
4, 21360, Note_on_c, 9, 77, 64
4, 21479, Note_on_c, 9, 70, 0
4, 21479, Note_on_c, 9, 77, 0
4, 21480, Note_on_c, 9, 70, 64
4, 21599, Note_on_c, 9, 70, 0
4, 21600, Note_on_c, 9, 70, 64
4, 21600, Note_on_c, 9, 77, 64
4, 21839, Note_on_c, 9, 70, 0
4, 21839, Note_on_c, 9, 77, 0
4, 21840, Note_on_c, 9, 70, 64
4, 21840, Note_on_c, 9, 77, 64
4, 21959, Note_on_c, 9, 70, 0
4, 21959, Note_on_c, 9, 77, 0
4, 21960, Note_on_c, 9, 70, 64
4, 22079, Note_on_c, 9, 70, 0
4, 22080, Note_on_c, 9, 70, 64
4, 22080, Note_on_c, 9, 77, 64
4, 22319, Note_on_c, 9, 70, 0
4, 22319, Note_on_c, 9, 77, 0
4, 22320, Note_on_c, 9, 70, 64
4, 22320, Note_on_c, 9, 77, 64
4, 22439, Note_on_c, 9, 70, 0
4, 22439, Note_on_c, 9, 77, 0
4, 22440, Note_on_c, 9, 70, 64
4, 22440, Note_on_c, 9, 77, 64
4, 22559, Note_on_c, 9, 70, 0
4, 22559, Note_on_c, 9, 77, 0
4, 22560, Note_on_c, 9, 70, 64
4, 22679, Note_on_c, 9, 70, 0
4, 22680, Note_on_c, 9, 77, 64
4, 22799, Note_on_c, 9, 77, 0
4, 22800, Note_on_c, 9, 70, 64
4, 22800, Note_on_c, 9, 77, 64
4, 22919, Note_on_c, 9, 70, 0
4, 22919, Note_on_c, 9, 77, 0
4, 22920, Note_on_c, 9, 70, 64
4, 23039, Note_on_c, 9, 70, 0
4, 23040, Note_on_c, 9, 70, 64
4, 23040, Note_on_c, 9, 77, 64
4, 23279, Note_on_c, 9, 70, 0
4, 23279, Note_on_c, 9, 77, 0
4, 23280, Note_on_c, 9, 70, 64
4, 23280, Note_on_c, 9, 77, 64
4, 23399, Note_on_c, 9, 70, 0
4, 23399, Note_on_c, 9, 77, 0
4, 23400, Note_on_c, 9, 70, 64
4, 23519, Note_on_c, 9, 70, 0
4, 23520, Note_on_c, 9, 70, 64
4, 23520, Note_on_c, 9, 77, 64
4, 23759, Note_on_c, 9, 70, 0
4, 23759, Note_on_c, 9, 77, 0
4, 23760, Note_on_c, 9, 68, 64
4, 23760, Note_on_c, 9, 70, 64
4, 23760, Note_on_c, 9, 77, 64
4, 23879, Note_on_c, 9, 68, 0
4, 23879, Note_on_c, 9, 70, 0
4, 23879, Note_on_c, 9, 77, 0
4, 23880, Note_on_c, 9, 67, 64
4, 23880, Note_on_c, 9, 70, 64
4, 23999, Note_on_c, 9, 67, 0
4, 23999, Note_on_c, 9, 70, 0
4, 24000, Note_on_c, 9, 67, 64
4, 24000, Note_on_c, 9, 70, 64
4, 24000, Note_on_c, 9, 77, 64
4, 24239, Note_on_c, 9, 67, 0
4, 24239, Note_on_c, 9, 70, 0
4, 24239, Note_on_c, 9, 77, 0
4, 24240, Note_on_c, 9, 67, 64
4, 24240, Note_on_c, 9, 70, 64
4, 24240, Note_on_c, 9, 77, 64
4, 24359, Note_on_c, 9, 67, 0
4, 24359, Note_on_c, 9, 70, 0
4, 24359, Note_on_c, 9, 77, 0
4, 24360, Note_on_c, 9, 70, 64
4, 24360, Note_on_c, 9, 77, 64
4, 24479, Note_on_c, 9, 70, 0
4, 24479, Note_on_c, 9, 77, 0
4, 24480, Note_on_c, 9, 67, 64
4, 24480, Note_on_c, 9, 70, 64
4, 24599, Note_on_c, 9, 67, 0
4, 24599, Note_on_c, 9, 70, 0
4, 24600, Note_on_c, 9, 77, 64
4, 24719, Note_on_c, 9, 77, 0
4, 24720, Note_on_c, 9, 70, 64
4, 24720, Note_on_c, 9, 77, 64
4, 24839, Note_on_c, 9, 70, 0
4, 24839, Note_on_c, 9, 77, 0
4, 24840, Note_on_c, 9, 70, 64
4, 24840, Note_on_c, 9, 77, 64
4, 24959, Note_on_c, 9, 70, 0
4, 24959, Note_on_c, 9, 77, 0
4, 24960, Note_on_c, 9, 70, 64
4, 24960, Note_on_c, 9, 77, 64
4, 25199, Note_on_c, 9, 70, 0
4, 25199, Note_on_c, 9, 77, 0
4, 25200, Note_on_c, 9, 70, 64
4, 25200, Note_on_c, 9, 77, 64
4, 25319, Note_on_c, 9, 70, 0
4, 25319, Note_on_c, 9, 77, 0
4, 25320, Note_on_c, 9, 70, 64
4, 25439, Note_on_c, 9, 70, 0
4, 25440, Note_on_c, 9, 70, 64
4, 25440, Note_on_c, 9, 77, 64
4, 25679, Note_on_c, 9, 70, 0
4, 25679, Note_on_c, 9, 77, 0
4, 25680, Note_on_c, 9, 70, 64
4, 25680, Note_on_c, 9, 77, 64
4, 25799, Note_on_c, 9, 70, 0
4, 25799, Note_on_c, 9, 77, 0
4, 25800, Note_on_c, 9, 70, 64
4, 25919, Note_on_c, 9, 70, 0
4, 25920, Note_on_c, 9, 70, 64
4, 25920, Note_on_c, 9, 77, 64
4, 26159, Note_on_c, 9, 70, 0
4, 26159, Note_on_c, 9, 77, 0
4, 26160, Note_on_c, 9, 70, 64
4, 26160, Note_on_c, 9, 77, 64
4, 26279, Note_on_c, 9, 70, 0
4, 26279, Note_on_c, 9, 77, 0
4, 26280, Note_on_c, 9, 70, 64
4, 26280, Note_on_c, 9, 77, 64
4, 26399, Note_on_c, 9, 70, 0
4, 26399, Note_on_c, 9, 77, 0
4, 26400, Note_on_c, 9, 70, 64
4, 26519, Note_on_c, 9, 70, 0
4, 26520, Note_on_c, 9, 77, 64
4, 26639, Note_on_c, 9, 77, 0
4, 26640, Note_on_c, 9, 70, 64
4, 26640, Note_on_c, 9, 77, 64
4, 26759, Note_on_c, 9, 70, 0
4, 26759, Note_on_c, 9, 77, 0
4, 26760, Note_on_c, 9, 70, 64
4, 26879, Note_on_c, 9, 70, 0
4, 26880, Note_on_c, 9, 70, 64
4, 26880, Note_on_c, 9, 77, 64
4, 27119, Note_on_c, 9, 70, 0
4, 27119, Note_on_c, 9, 77, 0
4, 27120, Note_on_c, 9, 70, 64
4, 27120, Note_on_c, 9, 77, 64
4, 27239, Note_on_c, 9, 70, 0
4, 27239, Note_on_c, 9, 77, 0
4, 27240, Note_on_c, 9, 70, 64
4, 27359, Note_on_c, 9, 70, 0
4, 27360, Note_on_c, 9, 70, 64
4, 27360, Note_on_c, 9, 77, 64
4, 27599, Note_on_c, 9, 70, 0
4, 27599, Note_on_c, 9, 77, 0
4, 27600, Note_on_c, 9, 70, 64
4, 27600, Note_on_c, 9, 77, 64
4, 27719, Note_on_c, 9, 70, 0
4, 27719, Note_on_c, 9, 77, 0
4, 27720, Note_on_c, 9, 70, 64
4, 27839, Note_on_c, 9, 70, 0
4, 27840, Note_on_c, 9, 70, 64
4, 27840, Note_on_c, 9, 77, 64
4, 28079, Note_on_c, 9, 70, 0
4, 28079, Note_on_c, 9, 77, 0
4, 28080, Note_on_c, 9, 70, 64
4, 28080, Note_on_c, 9, 77, 64
4, 28199, Note_on_c, 9, 70, 0
4, 28199, Note_on_c, 9, 77, 0
4, 28200, Note_on_c, 9, 70, 64
4, 28200, Note_on_c, 9, 77, 64
4, 28319, Note_on_c, 9, 70, 0
4, 28319, Note_on_c, 9, 77, 0
4, 28320, Note_on_c, 9, 70, 64
4, 28439, Note_on_c, 9, 70, 0
4, 28440, Note_on_c, 9, 77, 64
4, 28559, Note_on_c, 9, 77, 0
4, 28560, Note_on_c, 9, 70, 64
4, 28560, Note_on_c, 9, 77, 64
4, 28679, Note_on_c, 9, 70, 0
4, 28679, Note_on_c, 9, 77, 0
4, 28680, Note_on_c, 9, 70, 64
4, 28680, Note_on_c, 9, 77, 64
4, 28799, Note_on_c, 9, 70, 0
4, 28799, Note_on_c, 9, 77, 0
4, 28800, Note_on_c, 9, 70, 64
4, 28800, Note_on_c, 9, 77, 64
4, 29039, Note_on_c, 9, 70, 0
4, 29039, Note_on_c, 9, 77, 0
4, 29040, Note_on_c, 9, 70, 64
4, 29040, Note_on_c, 9, 77, 64
4, 29159, Note_on_c, 9, 70, 0
4, 29159, Note_on_c, 9, 77, 0
4, 29160, Note_on_c, 9, 70, 64
4, 29279, Note_on_c, 9, 70, 0
4, 29280, Note_on_c, 9, 70, 64
4, 29280, Note_on_c, 9, 77, 64
4, 29519, Note_on_c, 9, 70, 0
4, 29519, Note_on_c, 9, 77, 0
4, 29520, Note_on_c, 9, 70, 64
4, 29520, Note_on_c, 9, 77, 64
4, 29639, Note_on_c, 9, 70, 0
4, 29639, Note_on_c, 9, 77, 0
4, 29640, Note_on_c, 9, 70, 64
4, 29759, Note_on_c, 9, 70, 0
4, 29760, Note_on_c, 9, 70, 64
4, 29760, Note_on_c, 9, 77, 64
4, 29999, Note_on_c, 9, 70, 0
4, 29999, Note_on_c, 9, 77, 0
4, 30000, Note_on_c, 9, 70, 64
4, 30000, Note_on_c, 9, 77, 64
4, 30119, Note_on_c, 9, 70, 0
4, 30119, Note_on_c, 9, 77, 0
4, 30120, Note_on_c, 9, 70, 64
4, 30120, Note_on_c, 9, 77, 64
4, 30239, Note_on_c, 9, 70, 0
4, 30239, Note_on_c, 9, 77, 0
4, 30240, Note_on_c, 9, 70, 64
4, 30359, Note_on_c, 9, 70, 0
4, 30360, Note_on_c, 9, 77, 64
4, 30479, Note_on_c, 9, 77, 0
4, 30480, Note_on_c, 9, 70, 64
4, 30480, Note_on_c, 9, 77, 64
4, 30599, Note_on_c, 9, 70, 0
4, 30599, Note_on_c, 9, 77, 0
4, 30600, Note_on_c, 9, 70, 64
4, 30719, Note_on_c, 9, 70, 0
4, 30720, Note_on_c, 9, 70, 64
4, 30720, Note_on_c, 9, 77, 64
4, 30959, Note_on_c, 9, 70, 0
4, 30959, Note_on_c, 9, 77, 0
4, 30960, Note_on_c, 9, 70, 64
4, 30960, Note_on_c, 9, 77, 64
4, 31079, Note_on_c, 9, 70, 0
4, 31079, Note_on_c, 9, 77, 0
4, 31080, Note_on_c, 9, 70, 64
4, 31199, Note_on_c, 9, 70, 0
4, 31200, Note_on_c, 9, 70, 64
4, 31200, Note_on_c, 9, 77, 64
4, 31439, Note_on_c, 9, 70, 0
4, 31439, Note_on_c, 9, 77, 0
4, 31440, Note_on_c, 9, 68, 64
4, 31440, Note_on_c, 9, 70, 64
4, 31440, Note_on_c, 9, 77, 64
4, 31559, Note_on_c, 9, 68, 0
4, 31559, Note_on_c, 9, 70, 0
4, 31559, Note_on_c, 9, 77, 0
4, 31560, Note_on_c, 9, 67, 64
4, 31560, Note_on_c, 9, 70, 64
4, 31679, Note_on_c, 9, 67, 0
4, 31679, Note_on_c, 9, 70, 0
4, 31680, Note_on_c, 9, 67, 64
4, 31680, Note_on_c, 9, 70, 64
4, 31680, Note_on_c, 9, 77, 64
4, 31919, Note_on_c, 9, 67, 0
4, 31919, Note_on_c, 9, 70, 0
4, 31919, Note_on_c, 9, 77, 0
4, 31920, Note_on_c, 9, 67, 64
4, 31920, Note_on_c, 9, 70, 64
4, 31920, Note_on_c, 9, 77, 64
4, 32039, Note_on_c, 9, 67, 0
4, 32039, Note_on_c, 9, 70, 0
4, 32039, Note_on_c, 9, 77, 0
4, 32040, Note_on_c, 9, 70, 64
4, 32040, Note_on_c, 9, 77, 64
4, 32159, Note_on_c, 9, 70, 0
4, 32159, Note_on_c, 9, 77, 0
4, 32160, Note_on_c, 9, 67, 64
4, 32160, Note_on_c, 9, 70, 64
4, 32279, Note_on_c, 9, 67, 0
4, 32279, Note_on_c, 9, 70, 0
4, 32280, Note_on_c, 9, 77, 64
4, 32399, Note_on_c, 9, 77, 0
4, 32400, Note_on_c, 9, 70, 64
4, 32400, Note_on_c, 9, 77, 64
4, 32519, Note_on_c, 9, 70, 0
4, 32519, Note_on_c, 9, 77, 0
4, 32520, Note_on_c, 9, 70, 64
4, 32520, Note_on_c, 9, 77, 64
4, 32639, Note_on_c, 9, 70, 0
4, 32639, Note_on_c, 9, 77, 0
4, 32640, Note_on_c, 9, 70, 64
4, 32640, Note_on_c, 9, 77, 64
4, 32879, Note_on_c, 9, 70, 0
4, 32879, Note_on_c, 9, 77, 0
4, 32880, Note_on_c, 9, 70, 64
4, 32880, Note_on_c, 9, 77, 64
4, 32999, Note_on_c, 9, 70, 0
4, 32999, Note_on_c, 9, 77, 0
4, 33000, Note_on_c, 9, 70, 64
4, 33119, Note_on_c, 9, 70, 0
4, 33120, Note_on_c, 9, 70, 64
4, 33120, Note_on_c, 9, 77, 64
4, 33359, Note_on_c, 9, 70, 0
4, 33359, Note_on_c, 9, 77, 0
4, 33360, Note_on_c, 9, 70, 64
4, 33360, Note_on_c, 9, 77, 64
4, 33479, Note_on_c, 9, 70, 0
4, 33479, Note_on_c, 9, 77, 0
4, 33480, Note_on_c, 9, 70, 64
4, 33599, Note_on_c, 9, 70, 0
4, 33600, Note_on_c, 9, 70, 64
4, 33600, Note_on_c, 9, 77, 64
4, 33839, Note_on_c, 9, 70, 0
4, 33839, Note_on_c, 9, 77, 0
4, 33840, Note_on_c, 9, 70, 64
4, 33840, Note_on_c, 9, 77, 64
4, 33959, Note_on_c, 9, 70, 0
4, 33959, Note_on_c, 9, 77, 0
4, 33960, Note_on_c, 9, 70, 64
4, 33960, Note_on_c, 9, 77, 64
4, 34079, Note_on_c, 9, 70, 0
4, 34079, Note_on_c, 9, 77, 0
4, 34080, Note_on_c, 9, 70, 64
4, 34199, Note_on_c, 9, 70, 0
4, 34200, Note_on_c, 9, 77, 64
4, 34319, Note_on_c, 9, 77, 0
4, 34320, Note_on_c, 9, 70, 64
4, 34320, Note_on_c, 9, 77, 64
4, 34439, Note_on_c, 9, 70, 0
4, 34439, Note_on_c, 9, 77, 0
4, 34440, Note_on_c, 9, 70, 64
4, 34559, Note_on_c, 9, 70, 0
4, 36480, Note_on_c, 9, 70, 64
4, 36480, Note_on_c, 9, 77, 64
4, 36719, Note_on_c, 9, 70, 0
4, 36719, Note_on_c, 9, 77, 0
4, 36720, Note_on_c, 9, 70, 64
4, 36720, Note_on_c, 9, 77, 64
4, 36839, Note_on_c, 9, 70, 0
4, 36839, Note_on_c, 9, 77, 0
4, 36840, Note_on_c, 9, 70, 64
4, 36959, Note_on_c, 9, 70, 0
4, 36960, Note_on_c, 9, 70, 64
4, 36960, Note_on_c, 9, 77, 64
4, 37199, Note_on_c, 9, 70, 0
4, 37199, Note_on_c, 9, 77, 0
4, 37200, Note_on_c, 9, 70, 64
4, 37200, Note_on_c, 9, 77, 64
4, 37319, Note_on_c, 9, 70, 0
4, 37319, Note_on_c, 9, 77, 0
4, 37320, Note_on_c, 9, 70, 64
4, 37439, Note_on_c, 9, 70, 0
4, 37440, Note_on_c, 9, 70, 64
4, 37440, Note_on_c, 9, 77, 64
4, 37679, Note_on_c, 9, 70, 0
4, 37679, Note_on_c, 9, 77, 0
4, 37680, Note_on_c, 9, 70, 64
4, 37680, Note_on_c, 9, 77, 64
4, 37799, Note_on_c, 9, 70, 0
4, 37799, Note_on_c, 9, 77, 0
4, 37800, Note_on_c, 9, 70, 64
4, 37800, Note_on_c, 9, 77, 64
4, 37919, Note_on_c, 9, 70, 0
4, 37919, Note_on_c, 9, 77, 0
4, 37920, Note_on_c, 9, 70, 64
4, 38039, Note_on_c, 9, 70, 0
4, 38040, Note_on_c, 9, 77, 64
4, 38159, Note_on_c, 9, 77, 0
4, 38160, Note_on_c, 9, 70, 64
4, 38160, Note_on_c, 9, 77, 64
4, 38279, Note_on_c, 9, 70, 0
4, 38279, Note_on_c, 9, 77, 0
4, 38280, Note_on_c, 9, 70, 64
4, 38399, Note_on_c, 9, 70, 0
4, 38400, Note_on_c, 9, 70, 64
4, 38400, Note_on_c, 9, 77, 64
4, 38639, Note_on_c, 9, 70, 0
4, 38639, Note_on_c, 9, 77, 0
4, 38640, Note_on_c, 9, 70, 64
4, 38640, Note_on_c, 9, 77, 64
4, 38759, Note_on_c, 9, 70, 0
4, 38759, Note_on_c, 9, 77, 0
4, 38760, Note_on_c, 9, 70, 64
4, 38879, Note_on_c, 9, 70, 0
4, 38880, Note_on_c, 9, 70, 64
4, 38880, Note_on_c, 9, 77, 64
4, 39119, Note_on_c, 9, 70, 0
4, 39119, Note_on_c, 9, 77, 0
4, 39120, Note_on_c, 9, 70, 64
4, 39120, Note_on_c, 9, 77, 64
4, 39239, Note_on_c, 9, 70, 0
4, 39239, Note_on_c, 9, 77, 0
4, 39240, Note_on_c, 9, 70, 64
4, 39359, Note_on_c, 9, 70, 0
4, 39360, Note_on_c, 9, 70, 64
4, 39360, Note_on_c, 9, 77, 64
4, 39599, Note_on_c, 9, 70, 0
4, 39599, Note_on_c, 9, 77, 0
4, 39600, Note_on_c, 9, 70, 64
4, 39600, Note_on_c, 9, 77, 64
4, 39719, Note_on_c, 9, 70, 0
4, 39719, Note_on_c, 9, 77, 0
4, 39720, Note_on_c, 9, 70, 64
4, 39720, Note_on_c, 9, 77, 64
4, 39839, Note_on_c, 9, 70, 0
4, 39839, Note_on_c, 9, 77, 0
4, 39840, Note_on_c, 9, 70, 64
4, 39959, Note_on_c, 9, 70, 0
4, 39960, Note_on_c, 9, 77, 64
4, 40079, Note_on_c, 9, 77, 0
4, 40080, Note_on_c, 9, 70, 64
4, 40080, Note_on_c, 9, 77, 64
4, 40199, Note_on_c, 9, 70, 0
4, 40199, Note_on_c, 9, 77, 0
4, 40200, Note_on_c, 9, 70, 64
4, 40200, Note_on_c, 9, 77, 64
4, 40319, Note_on_c, 9, 70, 0
4, 40319, Note_on_c, 9, 77, 0
4, 40320, Note_on_c, 9, 70, 64
4, 40320, Note_on_c, 9, 77, 64
4, 40559, Note_on_c, 9, 70, 0
4, 40559, Note_on_c, 9, 77, 0
4, 40560, Note_on_c, 9, 70, 64
4, 40560, Note_on_c, 9, 77, 64
4, 40679, Note_on_c, 9, 70, 0
4, 40679, Note_on_c, 9, 77, 0
4, 40680, Note_on_c, 9, 70, 64
4, 40799, Note_on_c, 9, 70, 0
4, 40800, Note_on_c, 9, 70, 64
4, 40800, Note_on_c, 9, 77, 64
4, 41039, Note_on_c, 9, 70, 0
4, 41039, Note_on_c, 9, 77, 0
4, 41040, Note_on_c, 9, 70, 64
4, 41040, Note_on_c, 9, 77, 64
4, 41159, Note_on_c, 9, 70, 0
4, 41159, Note_on_c, 9, 77, 0
4, 41160, Note_on_c, 9, 70, 64
4, 41279, Note_on_c, 9, 70, 0
4, 41280, Note_on_c, 9, 70, 64
4, 41280, Note_on_c, 9, 77, 64
4, 41519, Note_on_c, 9, 70, 0
4, 41519, Note_on_c, 9, 77, 0
4, 41520, Note_on_c, 9, 70, 64
4, 41520, Note_on_c, 9, 77, 64
4, 41639, Note_on_c, 9, 70, 0
4, 41639, Note_on_c, 9, 77, 0
4, 41640, Note_on_c, 9, 70, 64
4, 41640, Note_on_c, 9, 77, 64
4, 41759, Note_on_c, 9, 70, 0
4, 41759, Note_on_c, 9, 77, 0
4, 41760, Note_on_c, 9, 70, 64
4, 41879, Note_on_c, 9, 70, 0
4, 41880, Note_on_c, 9, 77, 64
4, 41999, Note_on_c, 9, 77, 0
4, 42000, Note_on_c, 9, 70, 64
4, 42000, Note_on_c, 9, 77, 64
4, 42119, Note_on_c, 9, 70, 0
4, 42119, Note_on_c, 9, 77, 0
4, 42120, Note_on_c, 9, 70, 64
4, 42239, Note_on_c, 9, 70, 0
4, 42240, Note_on_c, 9, 70, 64
4, 42240, Note_on_c, 9, 77, 64
4, 42479, Note_on_c, 9, 70, 0
4, 42479, Note_on_c, 9, 77, 0
4, 42480, Note_on_c, 9, 70, 64
4, 42480, Note_on_c, 9, 77, 64
4, 42599, Note_on_c, 9, 70, 0
4, 42599, Note_on_c, 9, 77, 0
4, 42600, Note_on_c, 9, 70, 64
4, 42719, Note_on_c, 9, 70, 0
4, 42720, Note_on_c, 9, 70, 64
4, 42720, Note_on_c, 9, 77, 64
4, 42959, Note_on_c, 9, 70, 0
4, 42959, Note_on_c, 9, 77, 0
4, 42960, Note_on_c, 9, 70, 64
4, 42960, Note_on_c, 9, 77, 64
4, 43079, Note_on_c, 9, 70, 0
4, 43079, Note_on_c, 9, 77, 0
4, 43080, Note_on_c, 9, 70, 64
4, 43199, Note_on_c, 9, 70, 0
4, 43200, Note_on_c, 9, 70, 64
4, 43200, Note_on_c, 9, 77, 64
4, 43439, Note_on_c, 9, 70, 0
4, 43439, Note_on_c, 9, 77, 0
4, 43440, Note_on_c, 9, 70, 64
4, 43440, Note_on_c, 9, 77, 64
4, 43559, Note_on_c, 9, 70, 0
4, 43559, Note_on_c, 9, 77, 0
4, 43560, Note_on_c, 9, 70, 64
4, 43560, Note_on_c, 9, 77, 64
4, 43679, Note_on_c, 9, 70, 0
4, 43679, Note_on_c, 9, 77, 0
4, 43680, Note_on_c, 9, 70, 64
4, 43799, Note_on_c, 9, 70, 0
4, 43800, Note_on_c, 9, 77, 64
4, 43919, Note_on_c, 9, 77, 0
4, 43920, Note_on_c, 9, 70, 64
4, 43920, Note_on_c, 9, 77, 64
4, 44039, Note_on_c, 9, 70, 0
4, 44039, Note_on_c, 9, 77, 0
4, 44040, Note_on_c, 9, 70, 64
4, 44040, Note_on_c, 9, 77, 64
4, 44159, Note_on_c, 9, 70, 0
4, 44159, Note_on_c, 9, 77, 0
4, 44160, Note_on_c, 9, 70, 64
4, 44160, Note_on_c, 9, 77, 64
4, 44399, Note_on_c, 9, 70, 0
4, 44399, Note_on_c, 9, 77, 0
4, 44400, Note_on_c, 9, 70, 64
4, 44400, Note_on_c, 9, 77, 64
4, 44519, Note_on_c, 9, 70, 0
4, 44519, Note_on_c, 9, 77, 0
4, 44520, Note_on_c, 9, 70, 64
4, 44639, Note_on_c, 9, 70, 0
4, 44640, Note_on_c, 9, 70, 64
4, 44640, Note_on_c, 9, 77, 64
4, 44879, Note_on_c, 9, 70, 0
4, 44879, Note_on_c, 9, 77, 0
4, 44880, Note_on_c, 9, 70, 64
4, 44880, Note_on_c, 9, 77, 64
4, 44999, Note_on_c, 9, 70, 0
4, 44999, Note_on_c, 9, 77, 0
4, 45000, Note_on_c, 9, 70, 64
4, 45119, Note_on_c, 9, 70, 0
4, 45120, Note_on_c, 9, 70, 64
4, 45120, Note_on_c, 9, 77, 64
4, 45359, Note_on_c, 9, 70, 0
4, 45359, Note_on_c, 9, 77, 0
4, 45360, Note_on_c, 9, 70, 64
4, 45360, Note_on_c, 9, 77, 64
4, 45479, Note_on_c, 9, 70, 0
4, 45479, Note_on_c, 9, 77, 0
4, 45480, Note_on_c, 9, 70, 64
4, 45480, Note_on_c, 9, 77, 64
4, 45599, Note_on_c, 9, 70, 0
4, 45599, Note_on_c, 9, 77, 0
4, 45600, Note_on_c, 9, 70, 64
4, 45719, Note_on_c, 9, 70, 0
4, 45720, Note_on_c, 9, 77, 64
4, 45839, Note_on_c, 9, 77, 0
4, 45840, Note_on_c, 9, 70, 64
4, 45840, Note_on_c, 9, 77, 64
4, 45959, Note_on_c, 9, 70, 0
4, 45959, Note_on_c, 9, 77, 0
4, 45960, Note_on_c, 9, 70, 64
4, 46079, Note_on_c, 9, 70, 0
4, 46080, Note_on_c, 9, 70, 64
4, 46080, Note_on_c, 9, 77, 64
4, 46319, Note_on_c, 9, 70, 0
4, 46319, Note_on_c, 9, 77, 0
4, 46320, Note_on_c, 9, 70, 64
4, 46320, Note_on_c, 9, 77, 64
4, 46439, Note_on_c, 9, 70, 0
4, 46439, Note_on_c, 9, 77, 0
4, 46440, Note_on_c, 9, 70, 64
4, 46559, Note_on_c, 9, 70, 0
4, 46560, Note_on_c, 9, 70, 64
4, 46560, Note_on_c, 9, 77, 64
4, 46799, Note_on_c, 9, 70, 0
4, 46799, Note_on_c, 9, 77, 0
4, 46800, Note_on_c, 9, 70, 64
4, 46800, Note_on_c, 9, 77, 64
4, 46919, Note_on_c, 9, 70, 0
4, 46919, Note_on_c, 9, 77, 0
4, 46920, Note_on_c, 9, 70, 64
4, 47039, Note_on_c, 9, 70, 0
4, 47040, Note_on_c, 9, 70, 64
4, 47040, Note_on_c, 9, 77, 64
4, 47279, Note_on_c, 9, 70, 0
4, 47279, Note_on_c, 9, 77, 0
4, 47280, Note_on_c, 9, 70, 64
4, 47280, Note_on_c, 9, 77, 64
4, 47399, Note_on_c, 9, 70, 0
4, 47399, Note_on_c, 9, 77, 0
4, 47400, Note_on_c, 9, 70, 64
4, 47400, Note_on_c, 9, 77, 64
4, 47519, Note_on_c, 9, 70, 0
4, 47519, Note_on_c, 9, 77, 0
4, 47520, Note_on_c, 9, 70, 64
4, 47639, Note_on_c, 9, 70, 0
4, 47640, Note_on_c, 9, 77, 64
4, 47759, Note_on_c, 9, 77, 0
4, 47760, Note_on_c, 9, 70, 64
4, 47760, Note_on_c, 9, 77, 64
4, 47879, Note_on_c, 9, 70, 0
4, 47879, Note_on_c, 9, 77, 0
4, 47880, Note_on_c, 9, 70, 64
4, 47880, Note_on_c, 9, 77, 64
4, 47999, Note_on_c, 9, 70, 0
4, 47999, Note_on_c, 9, 77, 0
4, 48000, Note_on_c, 9, 70, 64
4, 48000, Note_on_c, 9, 77, 64
4, 48239, Note_on_c, 9, 70, 0
4, 48239, Note_on_c, 9, 77, 0
4, 48240, Note_on_c, 9, 70, 64
4, 48240, Note_on_c, 9, 77, 64
4, 48359, Note_on_c, 9, 70, 0
4, 48359, Note_on_c, 9, 77, 0
4, 48360, Note_on_c, 9, 70, 64
4, 48479, Note_on_c, 9, 70, 0
4, 48480, Note_on_c, 9, 70, 64
4, 48480, Note_on_c, 9, 77, 64
4, 48719, Note_on_c, 9, 70, 0
4, 48719, Note_on_c, 9, 77, 0
4, 48720, Note_on_c, 9, 70, 64
4, 48720, Note_on_c, 9, 77, 64
4, 48839, Note_on_c, 9, 70, 0
4, 48839, Note_on_c, 9, 77, 0
4, 48840, Note_on_c, 9, 70, 64
4, 48959, Note_on_c, 9, 70, 0
4, 48960, Note_on_c, 9, 70, 64
4, 48960, Note_on_c, 9, 77, 64
4, 49199, Note_on_c, 9, 70, 0
4, 49199, Note_on_c, 9, 77, 0
4, 49200, Note_on_c, 9, 70, 64
4, 49200, Note_on_c, 9, 77, 64
4, 49319, Note_on_c, 9, 70, 0
4, 49319, Note_on_c, 9, 77, 0
4, 49320, Note_on_c, 9, 70, 64
4, 49320, Note_on_c, 9, 77, 64
4, 49439, Note_on_c, 9, 70, 0
4, 49439, Note_on_c, 9, 77, 0
4, 49440, Note_on_c, 9, 70, 64
4, 49559, Note_on_c, 9, 70, 0
4, 49560, Note_on_c, 9, 77, 64
4, 49679, Note_on_c, 9, 77, 0
4, 49680, Note_on_c, 9, 70, 64
4, 49680, Note_on_c, 9, 77, 64
4, 49799, Note_on_c, 9, 70, 0
4, 49799, Note_on_c, 9, 77, 0
4, 49800, Note_on_c, 9, 70, 64
4, 49919, Note_on_c, 9, 70, 0
4, 49920, Note_on_c, 9, 70, 64
4, 49920, Note_on_c, 9, 77, 64
4, 50159, Note_on_c, 9, 70, 0
4, 50159, Note_on_c, 9, 77, 0
4, 50160, Note_on_c, 9, 70, 64
4, 50160, Note_on_c, 9, 77, 64
4, 50279, Note_on_c, 9, 70, 0
4, 50279, Note_on_c, 9, 77, 0
4, 50280, Note_on_c, 9, 70, 64
4, 50399, Note_on_c, 9, 70, 0
4, 50400, Note_on_c, 9, 70, 64
4, 50400, Note_on_c, 9, 77, 64
4, 50639, Note_on_c, 9, 70, 0
4, 50639, Note_on_c, 9, 77, 0
4, 50640, Note_on_c, 9, 70, 64
4, 50640, Note_on_c, 9, 77, 64
4, 50759, Note_on_c, 9, 70, 0
4, 50759, Note_on_c, 9, 77, 0
4, 50760, Note_on_c, 9, 70, 64
4, 50879, Note_on_c, 9, 70, 0
4, 50880, Note_on_c, 9, 70, 64
4, 50880, Note_on_c, 9, 77, 64
4, 51119, Note_on_c, 9, 70, 0
4, 51119, Note_on_c, 9, 77, 0
4, 51120, Note_on_c, 9, 70, 64
4, 51120, Note_on_c, 9, 77, 64
4, 51239, Note_on_c, 9, 70, 0
4, 51239, Note_on_c, 9, 77, 0
4, 51240, Note_on_c, 9, 70, 64
4, 51240, Note_on_c, 9, 77, 64
4, 51359, Note_on_c, 9, 70, 0
4, 51359, Note_on_c, 9, 77, 0
4, 51360, Note_on_c, 9, 70, 64
4, 51479, Note_on_c, 9, 70, 0
4, 51480, Note_on_c, 9, 77, 64
4, 51599, Note_on_c, 9, 77, 0
4, 51600, Note_on_c, 9, 70, 64
4, 51600, Note_on_c, 9, 77, 64
4, 51719, Note_on_c, 9, 70, 0
4, 51719, Note_on_c, 9, 77, 0
4, 51720, Note_on_c, 9, 70, 64
4, 51720, Note_on_c, 9, 77, 64
4, 51839, Note_on_c, 9, 70, 0
4, 51839, Note_on_c, 9, 77, 0
4, 51840, Note_on_c, 9, 70, 64
4, 51840, Note_on_c, 9, 77, 64
4, 52079, Note_on_c, 9, 70, 0
4, 52079, Note_on_c, 9, 77, 0
4, 52080, Note_on_c, 9, 70, 64
4, 52080, Note_on_c, 9, 77, 64
4, 52199, Note_on_c, 9, 70, 0
4, 52199, Note_on_c, 9, 77, 0
4, 52200, Note_on_c, 9, 70, 64
4, 52319, Note_on_c, 9, 70, 0
4, 52320, Note_on_c, 9, 70, 64
4, 52320, Note_on_c, 9, 77, 64
4, 52559, Note_on_c, 9, 70, 0
4, 52559, Note_on_c, 9, 77, 0
4, 52560, Note_on_c, 9, 70, 64
4, 52560, Note_on_c, 9, 77, 64
4, 52679, Note_on_c, 9, 70, 0
4, 52679, Note_on_c, 9, 77, 0
4, 52680, Note_on_c, 9, 70, 64
4, 52799, Note_on_c, 9, 70, 0
4, 52800, Note_on_c, 9, 70, 64
4, 52800, Note_on_c, 9, 77, 64
4, 53039, Note_on_c, 9, 70, 0
4, 53039, Note_on_c, 9, 77, 0
4, 53040, Note_on_c, 9, 70, 64
4, 53040, Note_on_c, 9, 77, 64
4, 53159, Note_on_c, 9, 70, 0
4, 53159, Note_on_c, 9, 77, 0
4, 53160, Note_on_c, 9, 70, 64
4, 53160, Note_on_c, 9, 77, 64
4, 53279, Note_on_c, 9, 70, 0
4, 53279, Note_on_c, 9, 77, 0
4, 53280, Note_on_c, 9, 70, 64
4, 53399, Note_on_c, 9, 70, 0
4, 53400, Note_on_c, 9, 77, 64
4, 53519, Note_on_c, 9, 77, 0
4, 53520, Note_on_c, 9, 70, 64
4, 53520, Note_on_c, 9, 77, 64
4, 53639, Note_on_c, 9, 70, 0
4, 53639, Note_on_c, 9, 77, 0
4, 53640, Note_on_c, 9, 70, 64
4, 53759, Note_on_c, 9, 70, 0
4, 53760, Note_on_c, 9, 70, 64
4, 53760, Note_on_c, 9, 77, 64
4, 53999, Note_on_c, 9, 70, 0
4, 53999, Note_on_c, 9, 77, 0
4, 54000, Note_on_c, 9, 70, 64
4, 54000, Note_on_c, 9, 77, 64
4, 54119, Note_on_c, 9, 70, 0
4, 54119, Note_on_c, 9, 77, 0
4, 54120, Note_on_c, 9, 70, 64
4, 54239, Note_on_c, 9, 70, 0
4, 54240, Note_on_c, 9, 70, 64
4, 54240, Note_on_c, 9, 77, 64
4, 54479, Note_on_c, 9, 70, 0
4, 54479, Note_on_c, 9, 77, 0
4, 54480, Note_on_c, 9, 70, 64
4, 54480, Note_on_c, 9, 77, 64
4, 54599, Note_on_c, 9, 70, 0
4, 54599, Note_on_c, 9, 77, 0
4, 54600, Note_on_c, 9, 70, 64
4, 54719, Note_on_c, 9, 70, 0
4, 54720, Note_on_c, 9, 70, 64
4, 54720, Note_on_c, 9, 77, 64
4, 54959, Note_on_c, 9, 70, 0
4, 54959, Note_on_c, 9, 77, 0
4, 54960, Note_on_c, 9, 70, 64
4, 54960, Note_on_c, 9, 77, 64
4, 55079, Note_on_c, 9, 70, 0
4, 55079, Note_on_c, 9, 77, 0
4, 55080, Note_on_c, 9, 70, 64
4, 55080, Note_on_c, 9, 77, 64
4, 55199, Note_on_c, 9, 70, 0
4, 55199, Note_on_c, 9, 77, 0
4, 55200, Note_on_c, 9, 70, 64
4, 55319, Note_on_c, 9, 70, 0
4, 55320, Note_on_c, 9, 77, 64
4, 55439, Note_on_c, 9, 77, 0
4, 55440, Note_on_c, 9, 70, 64
4, 55440, Note_on_c, 9, 77, 64
4, 55559, Note_on_c, 9, 70, 0
4, 55559, Note_on_c, 9, 77, 0
4, 55560, Note_on_c, 9, 70, 64
4, 55560, Note_on_c, 9, 77, 64
4, 55679, Note_on_c, 9, 70, 0
4, 55679, Note_on_c, 9, 77, 0
4, 55680, Note_on_c, 9, 70, 64
4, 55680, Note_on_c, 9, 77, 64
4, 55919, Note_on_c, 9, 70, 0
4, 55919, Note_on_c, 9, 77, 0
4, 55920, Note_on_c, 9, 70, 64
4, 55920, Note_on_c, 9, 77, 64
4, 56039, Note_on_c, 9, 70, 0
4, 56039, Note_on_c, 9, 77, 0
4, 56040, Note_on_c, 9, 70, 64
4, 56159, Note_on_c, 9, 70, 0
4, 56160, Note_on_c, 9, 70, 64
4, 56160, Note_on_c, 9, 77, 64
4, 56399, Note_on_c, 9, 70, 0
4, 56399, Note_on_c, 9, 77, 0
4, 56400, Note_on_c, 9, 70, 64
4, 56400, Note_on_c, 9, 77, 64
4, 56519, Note_on_c, 9, 70, 0
4, 56519, Note_on_c, 9, 77, 0
4, 56520, Note_on_c, 9, 70, 64
4, 56639, Note_on_c, 9, 70, 0
4, 56640, Note_on_c, 9, 70, 64
4, 56640, Note_on_c, 9, 77, 64
4, 56879, Note_on_c, 9, 70, 0
4, 56879, Note_on_c, 9, 77, 0
4, 56880, Note_on_c, 9, 70, 64
4, 56880, Note_on_c, 9, 77, 64
4, 56999, Note_on_c, 9, 70, 0
4, 56999, Note_on_c, 9, 77, 0
4, 57000, Note_on_c, 9, 70, 64
4, 57000, Note_on_c, 9, 77, 64
4, 57119, Note_on_c, 9, 70, 0
4, 57119, Note_on_c, 9, 77, 0
4, 57120, Note_on_c, 9, 70, 64
4, 57239, Note_on_c, 9, 70, 0
4, 57240, Note_on_c, 9, 77, 64
4, 57359, Note_on_c, 9, 77, 0
4, 57360, Note_on_c, 9, 70, 64
4, 57360, Note_on_c, 9, 77, 64
4, 57479, Note_on_c, 9, 70, 0
4, 57479, Note_on_c, 9, 77, 0
4, 57480, Note_on_c, 9, 70, 64
4, 57599, Note_on_c, 9, 70, 0
4, 57600, Note_on_c, 9, 70, 64
4, 57600, Note_on_c, 9, 77, 64
4, 57839, Note_on_c, 9, 70, 0
4, 57839, Note_on_c, 9, 77, 0
4, 57840, Note_on_c, 9, 70, 64
4, 57840, Note_on_c, 9, 77, 64
4, 57959, Note_on_c, 9, 70, 0
4, 57959, Note_on_c, 9, 77, 0
4, 57960, Note_on_c, 9, 70, 64
4, 58079, Note_on_c, 9, 70, 0
4, 58080, Note_on_c, 9, 70, 64
4, 58080, Note_on_c, 9, 77, 64
4, 58319, Note_on_c, 9, 70, 0
4, 58319, Note_on_c, 9, 77, 0
4, 58320, Note_on_c, 9, 70, 64
4, 58320, Note_on_c, 9, 77, 64
4, 58439, Note_on_c, 9, 70, 0
4, 58439, Note_on_c, 9, 77, 0
4, 58440, Note_on_c, 9, 70, 64
4, 58559, Note_on_c, 9, 70, 0
4, 58560, Note_on_c, 9, 70, 64
4, 58560, Note_on_c, 9, 77, 64
4, 58799, Note_on_c, 9, 70, 0
4, 58799, Note_on_c, 9, 77, 0
4, 58800, Note_on_c, 9, 70, 64
4, 58800, Note_on_c, 9, 77, 64
4, 58919, Note_on_c, 9, 70, 0
4, 58919, Note_on_c, 9, 77, 0
4, 58920, Note_on_c, 9, 70, 64
4, 58920, Note_on_c, 9, 77, 64
4, 59039, Note_on_c, 9, 70, 0
4, 59039, Note_on_c, 9, 77, 0
4, 59040, Note_on_c, 9, 70, 64
4, 59159, Note_on_c, 9, 70, 0
4, 59160, Note_on_c, 9, 77, 64
4, 59279, Note_on_c, 9, 77, 0
4, 59280, Note_on_c, 9, 70, 64
4, 59280, Note_on_c, 9, 77, 64
4, 59399, Note_on_c, 9, 70, 0
4, 59399, Note_on_c, 9, 77, 0
4, 59400, Note_on_c, 9, 70, 64
4, 59400, Note_on_c, 9, 77, 64
4, 59519, Note_on_c, 9, 70, 0
4, 59519, Note_on_c, 9, 77, 0
4, 59520, Note_on_c, 9, 70, 64
4, 59520, Note_on_c, 9, 77, 64
4, 59759, Note_on_c, 9, 70, 0
4, 59759, Note_on_c, 9, 77, 0
4, 59760, Note_on_c, 9, 70, 64
4, 59760, Note_on_c, 9, 77, 64
4, 59879, Note_on_c, 9, 70, 0
4, 59879, Note_on_c, 9, 77, 0
4, 59880, Note_on_c, 9, 70, 64
4, 59999, Note_on_c, 9, 70, 0
4, 60000, Note_on_c, 9, 70, 64
4, 60000, Note_on_c, 9, 77, 64
4, 60239, Note_on_c, 9, 70, 0
4, 60239, Note_on_c, 9, 77, 0
4, 60240, Note_on_c, 9, 70, 64
4, 60240, Note_on_c, 9, 77, 64
4, 60359, Note_on_c, 9, 70, 0
4, 60359, Note_on_c, 9, 77, 0
4, 60360, Note_on_c, 9, 70, 64
4, 60479, Note_on_c, 9, 70, 0
4, 60480, Note_on_c, 9, 70, 64
4, 60480, Note_on_c, 9, 77, 64
4, 60719, Note_on_c, 9, 70, 0
4, 60719, Note_on_c, 9, 77, 0
4, 60720, Note_on_c, 9, 70, 64
4, 60720, Note_on_c, 9, 77, 64
4, 60839, Note_on_c, 9, 70, 0
4, 60839, Note_on_c, 9, 77, 0
4, 60840, Note_on_c, 9, 70, 64
4, 60840, Note_on_c, 9, 77, 64
4, 60959, Note_on_c, 9, 70, 0
4, 60959, Note_on_c, 9, 77, 0
4, 60960, Note_on_c, 9, 70, 64
4, 61079, Note_on_c, 9, 70, 0
4, 61080, Note_on_c, 9, 77, 64
4, 61199, Note_on_c, 9, 77, 0
4, 61200, Note_on_c, 9, 70, 64
4, 61200, Note_on_c, 9, 77, 64
4, 61319, Note_on_c, 9, 70, 0
4, 61319, Note_on_c, 9, 77, 0
4, 61320, Note_on_c, 9, 70, 64
4, 61439, Note_on_c, 9, 70, 0
4, 61440, Note_on_c, 9, 70, 64
4, 61440, Note_on_c, 9, 77, 64
4, 61679, Note_on_c, 9, 70, 0
4, 61679, Note_on_c, 9, 77, 0
4, 61680, Note_on_c, 9, 70, 64
4, 61680, Note_on_c, 9, 77, 64
4, 61799, Note_on_c, 9, 70, 0
4, 61799, Note_on_c, 9, 77, 0
4, 61800, Note_on_c, 9, 70, 64
4, 61919, Note_on_c, 9, 70, 0
4, 61920, Note_on_c, 9, 70, 64
4, 61920, Note_on_c, 9, 77, 64
4, 62159, Note_on_c, 9, 70, 0
4, 62159, Note_on_c, 9, 77, 0
4, 62160, Note_on_c, 9, 68, 64
4, 62160, Note_on_c, 9, 70, 64
4, 62160, Note_on_c, 9, 77, 64
4, 62279, Note_on_c, 9, 68, 0
4, 62279, Note_on_c, 9, 70, 0
4, 62279, Note_on_c, 9, 77, 0
4, 62280, Note_on_c, 9, 67, 64
4, 62280, Note_on_c, 9, 70, 64
4, 62399, Note_on_c, 9, 67, 0
4, 62399, Note_on_c, 9, 70, 0
4, 62400, Note_on_c, 9, 67, 64
4, 62400, Note_on_c, 9, 70, 64
4, 62400, Note_on_c, 9, 77, 64
4, 62639, Note_on_c, 9, 67, 0
4, 62639, Note_on_c, 9, 70, 0
4, 62639, Note_on_c, 9, 77, 0
4, 62640, Note_on_c, 9, 67, 64
4, 62640, Note_on_c, 9, 70, 64
4, 62640, Note_on_c, 9, 77, 64
4, 62759, Note_on_c, 9, 67, 0
4, 62759, Note_on_c, 9, 70, 0
4, 62759, Note_on_c, 9, 77, 0
4, 62760, Note_on_c, 9, 70, 64
4, 62760, Note_on_c, 9, 77, 64
4, 62879, Note_on_c, 9, 70, 0
4, 62879, Note_on_c, 9, 77, 0
4, 62880, Note_on_c, 9, 67, 64
4, 62880, Note_on_c, 9, 70, 64
4, 62999, Note_on_c, 9, 67, 0
4, 62999, Note_on_c, 9, 70, 0
4, 63000, Note_on_c, 9, 77, 64
4, 63119, Note_on_c, 9, 77, 0
4, 63120, Note_on_c, 9, 70, 64
4, 63120, Note_on_c, 9, 77, 64
4, 63239, Note_on_c, 9, 70, 0
4, 63239, Note_on_c, 9, 77, 0
4, 63240, Note_on_c, 9, 70, 64
4, 63240, Note_on_c, 9, 77, 64
4, 63359, Note_on_c, 9, 70, 0
4, 63359, Note_on_c, 9, 77, 0
4, 63360, Note_on_c, 9, 70, 64
4, 63360, Note_on_c, 9, 77, 64
4, 63599, Note_on_c, 9, 70, 0
4, 63599, Note_on_c, 9, 77, 0
4, 63600, Note_on_c, 9, 70, 64
4, 63600, Note_on_c, 9, 77, 64
4, 63719, Note_on_c, 9, 70, 0
4, 63719, Note_on_c, 9, 77, 0
4, 63720, Note_on_c, 9, 70, 64
4, 63839, Note_on_c, 9, 70, 0
4, 63840, Note_on_c, 9, 70, 64
4, 63840, Note_on_c, 9, 77, 64
4, 64079, Note_on_c, 9, 70, 0
4, 64079, Note_on_c, 9, 77, 0
4, 64080, Note_on_c, 9, 70, 64
4, 64080, Note_on_c, 9, 77, 64
4, 64199, Note_on_c, 9, 70, 0
4, 64199, Note_on_c, 9, 77, 0
4, 64200, Note_on_c, 9, 70, 64
4, 64319, Note_on_c, 9, 70, 0
4, 64320, Note_on_c, 9, 70, 64
4, 64320, Note_on_c, 9, 77, 64
4, 64559, Note_on_c, 9, 70, 0
4, 64559, Note_on_c, 9, 77, 0
4, 64560, Note_on_c, 9, 70, 64
4, 64560, Note_on_c, 9, 77, 64
4, 64679, Note_on_c, 9, 70, 0
4, 64679, Note_on_c, 9, 77, 0
4, 64680, Note_on_c, 9, 70, 64
4, 64680, Note_on_c, 9, 77, 64
4, 64799, Note_on_c, 9, 70, 0
4, 64799, Note_on_c, 9, 77, 0
4, 64800, Note_on_c, 9, 70, 64
4, 64919, Note_on_c, 9, 70, 0
4, 64920, Note_on_c, 9, 77, 64
4, 65039, Note_on_c, 9, 77, 0
4, 65040, Note_on_c, 9, 70, 64
4, 65040, Note_on_c, 9, 77, 64
4, 65159, Note_on_c, 9, 70, 0
4, 65159, Note_on_c, 9, 77, 0
4, 65160, Note_on_c, 9, 70, 64
4, 65279, Note_on_c, 9, 70, 0
4, 65280, Note_on_c, 9, 70, 64
4, 65280, Note_on_c, 9, 77, 64
4, 65519, Note_on_c, 9, 70, 0
4, 65519, Note_on_c, 9, 77, 0
4, 65520, Note_on_c, 9, 70, 64
4, 65520, Note_on_c, 9, 77, 64
4, 65639, Note_on_c, 9, 70, 0
4, 65639, Note_on_c, 9, 77, 0
4, 65640, Note_on_c, 9, 70, 64
4, 65759, Note_on_c, 9, 70, 0
4, 65760, Note_on_c, 9, 70, 64
4, 65760, Note_on_c, 9, 77, 64
4, 65999, Note_on_c, 9, 70, 0
4, 65999, Note_on_c, 9, 77, 0
4, 66000, Note_on_c, 9, 70, 64
4, 66000, Note_on_c, 9, 77, 64
4, 66119, Note_on_c, 9, 70, 0
4, 66119, Note_on_c, 9, 77, 0
4, 66120, Note_on_c, 9, 70, 64
4, 66239, Note_on_c, 9, 70, 0
4, 66240, Note_on_c, 9, 70, 64
4, 66240, Note_on_c, 9, 77, 64
4, 66479, Note_on_c, 9, 70, 0
4, 66479, Note_on_c, 9, 77, 0
4, 66480, Note_on_c, 9, 70, 64
4, 66480, Note_on_c, 9, 77, 64
4, 66599, Note_on_c, 9, 70, 0
4, 66599, Note_on_c, 9, 77, 0
4, 66600, Note_on_c, 9, 70, 64
4, 66600, Note_on_c, 9, 77, 64
4, 66719, Note_on_c, 9, 70, 0
4, 66719, Note_on_c, 9, 77, 0
4, 66720, Note_on_c, 9, 70, 64
4, 66839, Note_on_c, 9, 70, 0
4, 66840, Note_on_c, 9, 77, 64
4, 66959, Note_on_c, 9, 77, 0
4, 66960, Note_on_c, 9, 70, 64
4, 66960, Note_on_c, 9, 77, 64
4, 67079, Note_on_c, 9, 70, 0
4, 67079, Note_on_c, 9, 77, 0
4, 67080, Note_on_c, 9, 70, 64
4, 67080, Note_on_c, 9, 77, 64
4, 67199, Note_on_c, 9, 70, 0
4, 67199, Note_on_c, 9, 77, 0
4, 67200, Note_on_c, 9, 70, 64
4, 67200, Note_on_c, 9, 77, 64
4, 67439, Note_on_c, 9, 70, 0
4, 67439, Note_on_c, 9, 77, 0
4, 67440, Note_on_c, 9, 70, 64
4, 67440, Note_on_c, 9, 77, 64
4, 67559, Note_on_c, 9, 70, 0
4, 67559, Note_on_c, 9, 77, 0
4, 67560, Note_on_c, 9, 70, 64
4, 67679, Note_on_c, 9, 70, 0
4, 67680, Note_on_c, 9, 70, 64
4, 67680, Note_on_c, 9, 77, 64
4, 67919, Note_on_c, 9, 70, 0
4, 67919, Note_on_c, 9, 77, 0
4, 67920, Note_on_c, 9, 70, 64
4, 67920, Note_on_c, 9, 77, 64
4, 68039, Note_on_c, 9, 70, 0
4, 68039, Note_on_c, 9, 77, 0
4, 68040, Note_on_c, 9, 70, 64
4, 68159, Note_on_c, 9, 70, 0
4, 68160, Note_on_c, 9, 70, 64
4, 68160, Note_on_c, 9, 77, 64
4, 68399, Note_on_c, 9, 70, 0
4, 68399, Note_on_c, 9, 77, 0
4, 68400, Note_on_c, 9, 70, 64
4, 68400, Note_on_c, 9, 77, 64
4, 68519, Note_on_c, 9, 70, 0
4, 68519, Note_on_c, 9, 77, 0
4, 68520, Note_on_c, 9, 70, 64
4, 68520, Note_on_c, 9, 77, 64
4, 68639, Note_on_c, 9, 70, 0
4, 68639, Note_on_c, 9, 77, 0
4, 68640, Note_on_c, 9, 70, 64
4, 68759, Note_on_c, 9, 70, 0
4, 68760, Note_on_c, 9, 77, 64
4, 68879, Note_on_c, 9, 77, 0
4, 68880, Note_on_c, 9, 70, 64
4, 68880, Note_on_c, 9, 77, 64
4, 68999, Note_on_c, 9, 70, 0
4, 68999, Note_on_c, 9, 77, 0
4, 69000, Note_on_c, 9, 70, 64
4, 69119, Note_on_c, 9, 70, 0
4, 69120, Note_on_c, 9, 70, 64
4, 69120, Note_on_c, 9, 77, 64
4, 69359, Note_on_c, 9, 70, 0
4, 69359, Note_on_c, 9, 77, 0
4, 69360, Note_on_c, 9, 70, 64
4, 69360, Note_on_c, 9, 77, 64
4, 69479, Note_on_c, 9, 70, 0
4, 69479, Note_on_c, 9, 77, 0
4, 69480, Note_on_c, 9, 70, 64
4, 69599, Note_on_c, 9, 70, 0
4, 69600, Note_on_c, 9, 70, 64
4, 69600, Note_on_c, 9, 77, 64
4, 69839, Note_on_c, 9, 70, 0
4, 69839, Note_on_c, 9, 77, 0
4, 69840, Note_on_c, 9, 68, 64
4, 69840, Note_on_c, 9, 70, 64
4, 69840, Note_on_c, 9, 77, 64
4, 69959, Note_on_c, 9, 68, 0
4, 69959, Note_on_c, 9, 70, 0
4, 69959, Note_on_c, 9, 77, 0
4, 69960, Note_on_c, 9, 67, 64
4, 69960, Note_on_c, 9, 70, 64
4, 70079, Note_on_c, 9, 67, 0
4, 70079, Note_on_c, 9, 70, 0
4, 70080, Note_on_c, 9, 67, 64
4, 70080, Note_on_c, 9, 70, 64
4, 70080, Note_on_c, 9, 77, 64
4, 70319, Note_on_c, 9, 67, 0
4, 70319, Note_on_c, 9, 70, 0
4, 70319, Note_on_c, 9, 77, 0
4, 70320, Note_on_c, 9, 67, 64
4, 70320, Note_on_c, 9, 70, 64
4, 70320, Note_on_c, 9, 77, 64
4, 70439, Note_on_c, 9, 67, 0
4, 70439, Note_on_c, 9, 70, 0
4, 70439, Note_on_c, 9, 77, 0
4, 70440, Note_on_c, 9, 70, 64
4, 70440, Note_on_c, 9, 77, 64
4, 70559, Note_on_c, 9, 70, 0
4, 70559, Note_on_c, 9, 77, 0
4, 70560, Note_on_c, 9, 67, 64
4, 70560, Note_on_c, 9, 70, 64
4, 70679, Note_on_c, 9, 67, 0
4, 70679, Note_on_c, 9, 70, 0
4, 70680, Note_on_c, 9, 77, 64
4, 70799, Note_on_c, 9, 77, 0
4, 70800, Note_on_c, 9, 70, 64
4, 70800, Note_on_c, 9, 77, 64
4, 70919, Note_on_c, 9, 70, 0
4, 70919, Note_on_c, 9, 77, 0
4, 70920, Note_on_c, 9, 70, 64
4, 70920, Note_on_c, 9, 77, 64
4, 71039, Note_on_c, 9, 70, 0
4, 71039, Note_on_c, 9, 77, 0
4, 71040, Note_on_c, 9, 70, 64
4, 71040, Note_on_c, 9, 77, 64
4, 71279, Note_on_c, 9, 70, 0
4, 71279, Note_on_c, 9, 77, 0
4, 71280, Note_on_c, 9, 70, 64
4, 71280, Note_on_c, 9, 77, 64
4, 71399, Note_on_c, 9, 70, 0
4, 71399, Note_on_c, 9, 77, 0
4, 71400, Note_on_c, 9, 70, 64
4, 71519, Note_on_c, 9, 70, 0
4, 71520, Note_on_c, 9, 70, 64
4, 71520, Note_on_c, 9, 77, 64
4, 71759, Note_on_c, 9, 70, 0
4, 71759, Note_on_c, 9, 77, 0
4, 71760, Note_on_c, 9, 70, 64
4, 71760, Note_on_c, 9, 77, 64
4, 71879, Note_on_c, 9, 70, 0
4, 71879, Note_on_c, 9, 77, 0
4, 71880, Note_on_c, 9, 70, 64
4, 71999, Note_on_c, 9, 70, 0
4, 72000, Note_on_c, 9, 70, 64
4, 72000, Note_on_c, 9, 77, 64
4, 72239, Note_on_c, 9, 70, 0
4, 72239, Note_on_c, 9, 77, 0
4, 72240, Note_on_c, 9, 70, 64
4, 72240, Note_on_c, 9, 77, 64
4, 72359, Note_on_c, 9, 70, 0
4, 72359, Note_on_c, 9, 77, 0
4, 72360, Note_on_c, 9, 70, 64
4, 72360, Note_on_c, 9, 77, 64
4, 72479, Note_on_c, 9, 70, 0
4, 72479, Note_on_c, 9, 77, 0
4, 72480, Note_on_c, 9, 70, 64
4, 72599, Note_on_c, 9, 70, 0
4, 72600, Note_on_c, 9, 77, 64
4, 72719, Note_on_c, 9, 77, 0
4, 72720, Note_on_c, 9, 70, 64
4, 72720, Note_on_c, 9, 77, 64
4, 72839, Note_on_c, 9, 70, 0
4, 72839, Note_on_c, 9, 77, 0
4, 72840, Note_on_c, 9, 70, 64
4, 72959, Note_on_c, 9, 70, 0
4, 74880, Note_on_c, 9, 70, 64
4, 74880, Note_on_c, 9, 77, 64
4, 75119, Note_on_c, 9, 70, 0
4, 75119, Note_on_c, 9, 77, 0
4, 75120, Note_on_c, 9, 70, 64
4, 75120, Note_on_c, 9, 77, 64
4, 75239, Note_on_c, 9, 70, 0
4, 75239, Note_on_c, 9, 77, 0
4, 75240, Note_on_c, 9, 70, 64
4, 75359, Note_on_c, 9, 70, 0
4, 75360, Note_on_c, 9, 70, 64
4, 75360, Note_on_c, 9, 77, 64
4, 75599, Note_on_c, 9, 70, 0
4, 75599, Note_on_c, 9, 77, 0
4, 75600, Note_on_c, 9, 70, 64
4, 75600, Note_on_c, 9, 77, 64
4, 75719, Note_on_c, 9, 70, 0
4, 75719, Note_on_c, 9, 77, 0
4, 75720, Note_on_c, 9, 70, 64
4, 75839, Note_on_c, 9, 70, 0
4, 75840, Note_on_c, 9, 70, 64
4, 75840, Note_on_c, 9, 77, 64
4, 76079, Note_on_c, 9, 70, 0
4, 76079, Note_on_c, 9, 77, 0
4, 76080, Note_on_c, 9, 70, 64
4, 76080, Note_on_c, 9, 77, 64
4, 76199, Note_on_c, 9, 70, 0
4, 76199, Note_on_c, 9, 77, 0
4, 76200, Note_on_c, 9, 70, 64
4, 76200, Note_on_c, 9, 77, 64
4, 76319, Note_on_c, 9, 70, 0
4, 76319, Note_on_c, 9, 77, 0
4, 76320, Note_on_c, 9, 70, 64
4, 76439, Note_on_c, 9, 70, 0
4, 76440, Note_on_c, 9, 77, 64
4, 76559, Note_on_c, 9, 77, 0
4, 76560, Note_on_c, 9, 70, 64
4, 76560, Note_on_c, 9, 77, 64
4, 76679, Note_on_c, 9, 70, 0
4, 76679, Note_on_c, 9, 77, 0
4, 76680, Note_on_c, 9, 70, 64
4, 76799, Note_on_c, 9, 70, 0
4, 76800, Note_on_c, 9, 70, 64
4, 76800, Note_on_c, 9, 77, 64
4, 77039, Note_on_c, 9, 70, 0
4, 77039, Note_on_c, 9, 77, 0
4, 77040, Note_on_c, 9, 70, 64
4, 77040, Note_on_c, 9, 77, 64
4, 77159, Note_on_c, 9, 70, 0
4, 77159, Note_on_c, 9, 77, 0
4, 77160, Note_on_c, 9, 70, 64
4, 77279, Note_on_c, 9, 70, 0
4, 77280, Note_on_c, 9, 70, 64
4, 77280, Note_on_c, 9, 77, 64
4, 77519, Note_on_c, 9, 70, 0
4, 77519, Note_on_c, 9, 77, 0
4, 77520, Note_on_c, 9, 70, 64
4, 77520, Note_on_c, 9, 77, 64
4, 77639, Note_on_c, 9, 70, 0
4, 77639, Note_on_c, 9, 77, 0
4, 77640, Note_on_c, 9, 70, 64
4, 77759, Note_on_c, 9, 70, 0
4, 77760, Note_on_c, 9, 70, 64
4, 77760, Note_on_c, 9, 77, 64
4, 77999, Note_on_c, 9, 70, 0
4, 77999, Note_on_c, 9, 77, 0
4, 78000, Note_on_c, 9, 70, 64
4, 78000, Note_on_c, 9, 77, 64
4, 78119, Note_on_c, 9, 70, 0
4, 78119, Note_on_c, 9, 77, 0
4, 78120, Note_on_c, 9, 70, 64
4, 78120, Note_on_c, 9, 77, 64
4, 78239, Note_on_c, 9, 70, 0
4, 78239, Note_on_c, 9, 77, 0
4, 78240, Note_on_c, 9, 70, 64
4, 78359, Note_on_c, 9, 70, 0
4, 78360, Note_on_c, 9, 77, 64
4, 78479, Note_on_c, 9, 77, 0
4, 78480, Note_on_c, 9, 70, 64
4, 78480, Note_on_c, 9, 77, 64
4, 78599, Note_on_c, 9, 70, 0
4, 78599, Note_on_c, 9, 77, 0
4, 78600, Note_on_c, 9, 70, 64
4, 78600, Note_on_c, 9, 77, 64
4, 78719, Note_on_c, 9, 70, 0
4, 78719, Note_on_c, 9, 77, 0
4, 78720, Note_on_c, 9, 70, 64
4, 78720, Note_on_c, 9, 77, 64
4, 78959, Note_on_c, 9, 70, 0
4, 78959, Note_on_c, 9, 77, 0
4, 78960, Note_on_c, 9, 70, 64
4, 78960, Note_on_c, 9, 77, 64
4, 79079, Note_on_c, 9, 70, 0
4, 79079, Note_on_c, 9, 77, 0
4, 79080, Note_on_c, 9, 70, 64
4, 79199, Note_on_c, 9, 70, 0
4, 79200, Note_on_c, 9, 70, 64
4, 79200, Note_on_c, 9, 77, 64
4, 79439, Note_on_c, 9, 70, 0
4, 79439, Note_on_c, 9, 77, 0
4, 79440, Note_on_c, 9, 70, 64
4, 79440, Note_on_c, 9, 77, 64
4, 79559, Note_on_c, 9, 70, 0
4, 79559, Note_on_c, 9, 77, 0
4, 79560, Note_on_c, 9, 70, 64
4, 79679, Note_on_c, 9, 70, 0
4, 79680, Note_on_c, 9, 70, 64
4, 79680, Note_on_c, 9, 77, 64
4, 79919, Note_on_c, 9, 70, 0
4, 79919, Note_on_c, 9, 77, 0
4, 79920, Note_on_c, 9, 70, 64
4, 79920, Note_on_c, 9, 77, 64
4, 80039, Note_on_c, 9, 70, 0
4, 80039, Note_on_c, 9, 77, 0
4, 80040, Note_on_c, 9, 70, 64
4, 80040, Note_on_c, 9, 77, 64
4, 80159, Note_on_c, 9, 70, 0
4, 80159, Note_on_c, 9, 77, 0
4, 80160, Note_on_c, 9, 70, 64
4, 80279, Note_on_c, 9, 70, 0
4, 80280, Note_on_c, 9, 77, 64
4, 80399, Note_on_c, 9, 77, 0
4, 80400, Note_on_c, 9, 70, 64
4, 80400, Note_on_c, 9, 77, 64
4, 80519, Note_on_c, 9, 70, 0
4, 80519, Note_on_c, 9, 77, 0
4, 80520, Note_on_c, 9, 70, 64
4, 80639, Note_on_c, 9, 70, 0
4, 80640, Note_on_c, 9, 70, 64
4, 80640, Note_on_c, 9, 77, 64
4, 80879, Note_on_c, 9, 70, 0
4, 80879, Note_on_c, 9, 77, 0
4, 80880, Note_on_c, 9, 70, 64
4, 80880, Note_on_c, 9, 77, 64
4, 80999, Note_on_c, 9, 70, 0
4, 80999, Note_on_c, 9, 77, 0
4, 81000, Note_on_c, 9, 70, 64
4, 81119, Note_on_c, 9, 70, 0
4, 81120, Note_on_c, 9, 70, 64
4, 81120, Note_on_c, 9, 77, 64
4, 81359, Note_on_c, 9, 70, 0
4, 81359, Note_on_c, 9, 77, 0
4, 81360, Note_on_c, 9, 70, 64
4, 81360, Note_on_c, 9, 77, 64
4, 81479, Note_on_c, 9, 70, 0
4, 81479, Note_on_c, 9, 77, 0
4, 81480, Note_on_c, 9, 70, 64
4, 81599, Note_on_c, 9, 70, 0
4, 81600, Note_on_c, 9, 70, 64
4, 81600, Note_on_c, 9, 77, 64
4, 81839, Note_on_c, 9, 70, 0
4, 81839, Note_on_c, 9, 77, 0
4, 81840, Note_on_c, 9, 70, 64
4, 81840, Note_on_c, 9, 77, 64
4, 81959, Note_on_c, 9, 70, 0
4, 81959, Note_on_c, 9, 77, 0
4, 81960, Note_on_c, 9, 70, 64
4, 81960, Note_on_c, 9, 77, 64
4, 82079, Note_on_c, 9, 70, 0
4, 82079, Note_on_c, 9, 77, 0
4, 82080, Note_on_c, 9, 70, 64
4, 82199, Note_on_c, 9, 70, 0
4, 82200, Note_on_c, 9, 77, 64
4, 82319, Note_on_c, 9, 77, 0
4, 82320, Note_on_c, 9, 70, 64
4, 82320, Note_on_c, 9, 77, 64
4, 82439, Note_on_c, 9, 70, 0
4, 82439, Note_on_c, 9, 77, 0
4, 82440, Note_on_c, 9, 70, 64
4, 82440, Note_on_c, 9, 77, 64
4, 82559, Note_on_c, 9, 70, 0
4, 82559, Note_on_c, 9, 77, 0
4, 82560, Note_on_c, 9, 70, 64
4, 82560, Note_on_c, 9, 77, 64
4, 82799, Note_on_c, 9, 70, 0
4, 82799, Note_on_c, 9, 77, 0
4, 82800, Note_on_c, 9, 70, 64
4, 82800, Note_on_c, 9, 77, 64
4, 82919, Note_on_c, 9, 70, 0
4, 82919, Note_on_c, 9, 77, 0
4, 82920, Note_on_c, 9, 70, 64
4, 83039, Note_on_c, 9, 70, 0
4, 83040, Note_on_c, 9, 70, 64
4, 83040, Note_on_c, 9, 77, 64
4, 83279, Note_on_c, 9, 70, 0
4, 83279, Note_on_c, 9, 77, 0
4, 83280, Note_on_c, 9, 70, 64
4, 83280, Note_on_c, 9, 77, 64
4, 83399, Note_on_c, 9, 70, 0
4, 83399, Note_on_c, 9, 77, 0
4, 83400, Note_on_c, 9, 70, 64
4, 83519, Note_on_c, 9, 70, 0
4, 83520, Note_on_c, 9, 70, 64
4, 83520, Note_on_c, 9, 77, 64
4, 83759, Note_on_c, 9, 70, 0
4, 83759, Note_on_c, 9, 77, 0
4, 83760, Note_on_c, 9, 70, 64
4, 83760, Note_on_c, 9, 77, 64
4, 83879, Note_on_c, 9, 70, 0
4, 83879, Note_on_c, 9, 77, 0
4, 83880, Note_on_c, 9, 70, 64
4, 83880, Note_on_c, 9, 77, 64
4, 83999, Note_on_c, 9, 70, 0
4, 83999, Note_on_c, 9, 77, 0
4, 84000, Note_on_c, 9, 70, 64
4, 84119, Note_on_c, 9, 70, 0
4, 84120, Note_on_c, 9, 77, 64
4, 84239, Note_on_c, 9, 77, 0
4, 84240, Note_on_c, 9, 70, 64
4, 84240, Note_on_c, 9, 77, 64
4, 84359, Note_on_c, 9, 70, 0
4, 84359, Note_on_c, 9, 77, 0
4, 84360, Note_on_c, 9, 70, 64
4, 84479, Note_on_c, 9, 70, 0
4, 84480, Note_on_c, 9, 70, 64
4, 84480, Note_on_c, 9, 77, 64
4, 84719, Note_on_c, 9, 70, 0
4, 84719, Note_on_c, 9, 77, 0
4, 84720, Note_on_c, 9, 70, 64
4, 84720, Note_on_c, 9, 77, 64
4, 84839, Note_on_c, 9, 70, 0
4, 84839, Note_on_c, 9, 77, 0
4, 84840, Note_on_c, 9, 70, 64
4, 84959, Note_on_c, 9, 70, 0
4, 84960, Note_on_c, 9, 70, 64
4, 84960, Note_on_c, 9, 77, 64
4, 85199, Note_on_c, 9, 70, 0
4, 85199, Note_on_c, 9, 77, 0
4, 85200, Note_on_c, 9, 70, 64
4, 85200, Note_on_c, 9, 77, 64
4, 85319, Note_on_c, 9, 70, 0
4, 85319, Note_on_c, 9, 77, 0
4, 85320, Note_on_c, 9, 70, 64
4, 85439, Note_on_c, 9, 70, 0
4, 85440, Note_on_c, 9, 70, 64
4, 85440, Note_on_c, 9, 77, 64
4, 85679, Note_on_c, 9, 70, 0
4, 85679, Note_on_c, 9, 77, 0
4, 85680, Note_on_c, 9, 70, 64
4, 85680, Note_on_c, 9, 77, 64
4, 85799, Note_on_c, 9, 70, 0
4, 85799, Note_on_c, 9, 77, 0
4, 85800, Note_on_c, 9, 70, 64
4, 85800, Note_on_c, 9, 77, 64
4, 85919, Note_on_c, 9, 70, 0
4, 85919, Note_on_c, 9, 77, 0
4, 85920, Note_on_c, 9, 70, 64
4, 86039, Note_on_c, 9, 70, 0
4, 86040, Note_on_c, 9, 77, 64
4, 86159, Note_on_c, 9, 77, 0
4, 86160, Note_on_c, 9, 70, 64
4, 86160, Note_on_c, 9, 77, 64
4, 86279, Note_on_c, 9, 70, 0
4, 86279, Note_on_c, 9, 77, 0
4, 86280, Note_on_c, 9, 70, 64
4, 86280, Note_on_c, 9, 77, 64
4, 86399, Note_on_c, 9, 70, 0
4, 86399, Note_on_c, 9, 77, 0
4, 86400, Note_on_c, 9, 70, 64
4, 86400, Note_on_c, 9, 77, 64
4, 86639, Note_on_c, 9, 70, 0
4, 86639, Note_on_c, 9, 77, 0
4, 86640, Note_on_c, 9, 70, 64
4, 86640, Note_on_c, 9, 77, 64
4, 86759, Note_on_c, 9, 70, 0
4, 86759, Note_on_c, 9, 77, 0
4, 86760, Note_on_c, 9, 70, 64
4, 86879, Note_on_c, 9, 70, 0
4, 86880, Note_on_c, 9, 70, 64
4, 86880, Note_on_c, 9, 77, 64
4, 87119, Note_on_c, 9, 70, 0
4, 87119, Note_on_c, 9, 77, 0
4, 87120, Note_on_c, 9, 70, 64
4, 87120, Note_on_c, 9, 77, 64
4, 87239, Note_on_c, 9, 70, 0
4, 87239, Note_on_c, 9, 77, 0
4, 87240, Note_on_c, 9, 70, 64
4, 87359, Note_on_c, 9, 70, 0
4, 87360, Note_on_c, 9, 70, 64
4, 87360, Note_on_c, 9, 77, 64
4, 87599, Note_on_c, 9, 70, 0
4, 87599, Note_on_c, 9, 77, 0
4, 87600, Note_on_c, 9, 70, 64
4, 87600, Note_on_c, 9, 77, 64
4, 87719, Note_on_c, 9, 70, 0
4, 87719, Note_on_c, 9, 77, 0
4, 87720, Note_on_c, 9, 70, 64
4, 87720, Note_on_c, 9, 77, 64
4, 87839, Note_on_c, 9, 70, 0
4, 87839, Note_on_c, 9, 77, 0
4, 87840, Note_on_c, 9, 70, 64
4, 87959, Note_on_c, 9, 70, 0
4, 87960, Note_on_c, 9, 77, 64
4, 88079, Note_on_c, 9, 77, 0
4, 88080, Note_on_c, 9, 70, 64
4, 88080, Note_on_c, 9, 77, 64
4, 88199, Note_on_c, 9, 70, 0
4, 88199, Note_on_c, 9, 77, 0
4, 88200, Note_on_c, 9, 70, 64
4, 88319, Note_on_c, 9, 70, 0
4, 88320, Note_on_c, 9, 70, 64
4, 88320, Note_on_c, 9, 77, 64
4, 88559, Note_on_c, 9, 70, 0
4, 88559, Note_on_c, 9, 77, 0
4, 88560, Note_on_c, 9, 70, 64
4, 88560, Note_on_c, 9, 77, 64
4, 88679, Note_on_c, 9, 70, 0
4, 88679, Note_on_c, 9, 77, 0
4, 88680, Note_on_c, 9, 70, 64
4, 88799, Note_on_c, 9, 70, 0
4, 88800, Note_on_c, 9, 70, 64
4, 88800, Note_on_c, 9, 77, 64
4, 89039, Note_on_c, 9, 70, 0
4, 89039, Note_on_c, 9, 77, 0
4, 89040, Note_on_c, 9, 70, 64
4, 89040, Note_on_c, 9, 77, 64
4, 89159, Note_on_c, 9, 70, 0
4, 89159, Note_on_c, 9, 77, 0
4, 89160, Note_on_c, 9, 70, 64
4, 89279, Note_on_c, 9, 70, 0
4, 89280, Note_on_c, 9, 70, 64
4, 89280, Note_on_c, 9, 77, 64
4, 89519, Note_on_c, 9, 70, 0
4, 89519, Note_on_c, 9, 77, 0
4, 89520, Note_on_c, 9, 70, 64
4, 89520, Note_on_c, 9, 77, 64
4, 89639, Note_on_c, 9, 70, 0
4, 89639, Note_on_c, 9, 77, 0
4, 89640, Note_on_c, 9, 70, 64
4, 89640, Note_on_c, 9, 77, 64
4, 89759, Note_on_c, 9, 70, 0
4, 89759, Note_on_c, 9, 77, 0
4, 89760, Note_on_c, 9, 70, 64
4, 89879, Note_on_c, 9, 70, 0
4, 89880, Note_on_c, 9, 77, 64
4, 89999, Note_on_c, 9, 77, 0
4, 90000, Note_on_c, 9, 70, 64
4, 90000, Note_on_c, 9, 77, 64
4, 90119, Note_on_c, 9, 70, 0
4, 90119, Note_on_c, 9, 77, 0
4, 90120, Note_on_c, 9, 70, 64
4, 90120, Note_on_c, 9, 77, 64
4, 90239, Note_on_c, 9, 70, 0
4, 90239, Note_on_c, 9, 77, 0
4, 90240, Note_on_c, 9, 70, 64
4, 90240, Note_on_c, 9, 77, 64
4, 90479, Note_on_c, 9, 70, 0
4, 90479, Note_on_c, 9, 77, 0
4, 90480, Note_on_c, 9, 70, 64
4, 90480, Note_on_c, 9, 77, 64
4, 90599, Note_on_c, 9, 70, 0
4, 90599, Note_on_c, 9, 77, 0
4, 90600, Note_on_c, 9, 70, 64
4, 90719, Note_on_c, 9, 70, 0
4, 90720, Note_on_c, 9, 70, 64
4, 90720, Note_on_c, 9, 77, 64
4, 90959, Note_on_c, 9, 70, 0
4, 90959, Note_on_c, 9, 77, 0
4, 90960, Note_on_c, 9, 70, 64
4, 90960, Note_on_c, 9, 77, 64
4, 91079, Note_on_c, 9, 70, 0
4, 91079, Note_on_c, 9, 77, 0
4, 91080, Note_on_c, 9, 70, 64
4, 91199, Note_on_c, 9, 70, 0
4, 91200, Note_on_c, 9, 70, 64
4, 91200, Note_on_c, 9, 77, 64
4, 91439, Note_on_c, 9, 70, 0
4, 91439, Note_on_c, 9, 77, 0
4, 91440, Note_on_c, 9, 70, 64
4, 91440, Note_on_c, 9, 77, 64
4, 91559, Note_on_c, 9, 70, 0
4, 91559, Note_on_c, 9, 77, 0
4, 91560, Note_on_c, 9, 70, 64
4, 91560, Note_on_c, 9, 77, 64
4, 91679, Note_on_c, 9, 70, 0
4, 91679, Note_on_c, 9, 77, 0
4, 91680, Note_on_c, 9, 70, 64
4, 91799, Note_on_c, 9, 70, 0
4, 91800, Note_on_c, 9, 77, 64
4, 91919, Note_on_c, 9, 77, 0
4, 91920, Note_on_c, 9, 70, 64
4, 91920, Note_on_c, 9, 77, 64
4, 92039, Note_on_c, 9, 70, 0
4, 92039, Note_on_c, 9, 77, 0
4, 92040, Note_on_c, 9, 70, 64
4, 92159, Note_on_c, 9, 70, 0
4, 92160, Note_on_c, 9, 70, 64
4, 92160, Note_on_c, 9, 77, 64
4, 92399, Note_on_c, 9, 70, 0
4, 92399, Note_on_c, 9, 77, 0
4, 92400, Note_on_c, 9, 70, 64
4, 92400, Note_on_c, 9, 77, 64
4, 92519, Note_on_c, 9, 70, 0
4, 92519, Note_on_c, 9, 77, 0
4, 92520, Note_on_c, 9, 70, 64
4, 92639, Note_on_c, 9, 70, 0
4, 92640, Note_on_c, 9, 70, 64
4, 92640, Note_on_c, 9, 77, 64
4, 92879, Note_on_c, 9, 70, 0
4, 92879, Note_on_c, 9, 77, 0
4, 92880, Note_on_c, 9, 70, 64
4, 92880, Note_on_c, 9, 77, 64
4, 92999, Note_on_c, 9, 70, 0
4, 92999, Note_on_c, 9, 77, 0
4, 93000, Note_on_c, 9, 70, 64
4, 93119, Note_on_c, 9, 70, 0
4, 93120, Note_on_c, 9, 70, 64
4, 93120, Note_on_c, 9, 77, 64
4, 93359, Note_on_c, 9, 70, 0
4, 93359, Note_on_c, 9, 77, 0
4, 93360, Note_on_c, 9, 70, 64
4, 93360, Note_on_c, 9, 77, 64
4, 93479, Note_on_c, 9, 70, 0
4, 93479, Note_on_c, 9, 77, 0
4, 93480, Note_on_c, 9, 70, 64
4, 93480, Note_on_c, 9, 77, 64
4, 93599, Note_on_c, 9, 70, 0
4, 93599, Note_on_c, 9, 77, 0
4, 93600, Note_on_c, 9, 70, 64
4, 93719, Note_on_c, 9, 70, 0
4, 93720, Note_on_c, 9, 77, 64
4, 93839, Note_on_c, 9, 77, 0
4, 93840, Note_on_c, 9, 70, 64
4, 93840, Note_on_c, 9, 77, 64
4, 93959, Note_on_c, 9, 70, 0
4, 93959, Note_on_c, 9, 77, 0
4, 93960, Note_on_c, 9, 70, 64
4, 93960, Note_on_c, 9, 77, 64
4, 94079, Note_on_c, 9, 70, 0
4, 94079, Note_on_c, 9, 77, 0
4, 94080, Note_on_c, 9, 70, 64
4, 94080, Note_on_c, 9, 77, 64
4, 94319, Note_on_c, 9, 70, 0
4, 94319, Note_on_c, 9, 77, 0
4, 94320, Note_on_c, 9, 70, 64
4, 94320, Note_on_c, 9, 77, 64
4, 94439, Note_on_c, 9, 70, 0
4, 94439, Note_on_c, 9, 77, 0
4, 94440, Note_on_c, 9, 70, 64
4, 94559, Note_on_c, 9, 70, 0
4, 94560, Note_on_c, 9, 70, 64
4, 94560, Note_on_c, 9, 77, 64
4, 94799, Note_on_c, 9, 70, 0
4, 94799, Note_on_c, 9, 77, 0
4, 94800, Note_on_c, 9, 70, 64
4, 94800, Note_on_c, 9, 77, 64
4, 94919, Note_on_c, 9, 70, 0
4, 94919, Note_on_c, 9, 77, 0
4, 94920, Note_on_c, 9, 70, 64
4, 95039, Note_on_c, 9, 70, 0
4, 95040, Note_on_c, 9, 70, 64
4, 95040, Note_on_c, 9, 77, 64
4, 95279, Note_on_c, 9, 70, 0
4, 95279, Note_on_c, 9, 77, 0
4, 95280, Note_on_c, 9, 70, 64
4, 95280, Note_on_c, 9, 77, 64
4, 95399, Note_on_c, 9, 70, 0
4, 95399, Note_on_c, 9, 77, 0
4, 95400, Note_on_c, 9, 70, 64
4, 95400, Note_on_c, 9, 77, 64
4, 95519, Note_on_c, 9, 70, 0
4, 95519, Note_on_c, 9, 77, 0
4, 95520, Note_on_c, 9, 70, 64
4, 95639, Note_on_c, 9, 70, 0
4, 95640, Note_on_c, 9, 77, 64
4, 95759, Note_on_c, 9, 77, 0
4, 95760, Note_on_c, 9, 70, 64
4, 95760, Note_on_c, 9, 77, 64
4, 95879, Note_on_c, 9, 70, 0
4, 95879, Note_on_c, 9, 77, 0
4, 95880, Note_on_c, 9, 70, 64
4, 95999, Note_on_c, 9, 70, 0
4, 96000, Note_on_c, 9, 70, 64
4, 96000, Note_on_c, 9, 77, 64
4, 96239, Note_on_c, 9, 70, 0
4, 96239, Note_on_c, 9, 77, 0
4, 96240, Note_on_c, 9, 70, 64
4, 96240, Note_on_c, 9, 77, 64
4, 96359, Note_on_c, 9, 70, 0
4, 96359, Note_on_c, 9, 77, 0
4, 96360, Note_on_c, 9, 70, 64
4, 96479, Note_on_c, 9, 70, 0
4, 96480, Note_on_c, 9, 70, 64
4, 96480, Note_on_c, 9, 77, 64
4, 96719, Note_on_c, 9, 70, 0
4, 96719, Note_on_c, 9, 77, 0
4, 96720, Note_on_c, 9, 70, 64
4, 96720, Note_on_c, 9, 77, 64
4, 96839, Note_on_c, 9, 70, 0
4, 96839, Note_on_c, 9, 77, 0
4, 96840, Note_on_c, 9, 70, 64
4, 96959, Note_on_c, 9, 70, 0
4, 96960, Note_on_c, 9, 70, 64
4, 96960, Note_on_c, 9, 77, 64
4, 97199, Note_on_c, 9, 70, 0
4, 97199, Note_on_c, 9, 77, 0
4, 97200, Note_on_c, 9, 70, 64
4, 97200, Note_on_c, 9, 77, 64
4, 97319, Note_on_c, 9, 70, 0
4, 97319, Note_on_c, 9, 77, 0
4, 97320, Note_on_c, 9, 70, 64
4, 97320, Note_on_c, 9, 77, 64
4, 97439, Note_on_c, 9, 70, 0
4, 97439, Note_on_c, 9, 77, 0
4, 97440, Note_on_c, 9, 70, 64
4, 97559, Note_on_c, 9, 70, 0
4, 97560, Note_on_c, 9, 77, 64
4, 97679, Note_on_c, 9, 77, 0
4, 97680, Note_on_c, 9, 70, 64
4, 97680, Note_on_c, 9, 77, 64
4, 97799, Note_on_c, 9, 70, 0
4, 97799, Note_on_c, 9, 77, 0
4, 97800, Note_on_c, 9, 70, 64
4, 97800, Note_on_c, 9, 77, 64
4, 97919, Note_on_c, 9, 70, 0
4, 97919, Note_on_c, 9, 77, 0
4, 101760, Note_on_c, 9, 70, 64
4, 101760, Note_on_c, 9, 77, 64
4, 101999, Note_on_c, 9, 70, 0
4, 101999, Note_on_c, 9, 77, 0
4, 102000, Note_on_c, 9, 70, 64
4, 102000, Note_on_c, 9, 77, 64
4, 102119, Note_on_c, 9, 70, 0
4, 102119, Note_on_c, 9, 77, 0
4, 102120, Note_on_c, 9, 70, 64
4, 102239, Note_on_c, 9, 70, 0
4, 102240, Note_on_c, 9, 70, 64
4, 102240, Note_on_c, 9, 77, 64
4, 102479, Note_on_c, 9, 70, 0
4, 102479, Note_on_c, 9, 77, 0
4, 102480, Note_on_c, 9, 70, 64
4, 102480, Note_on_c, 9, 77, 64
4, 102599, Note_on_c, 9, 70, 0
4, 102599, Note_on_c, 9, 77, 0
4, 102600, Note_on_c, 9, 70, 64
4, 102719, Note_on_c, 9, 70, 0
4, 102720, Note_on_c, 9, 70, 64
4, 102720, Note_on_c, 9, 77, 64
4, 102959, Note_on_c, 9, 70, 0
4, 102959, Note_on_c, 9, 77, 0
4, 102960, Note_on_c, 9, 70, 64
4, 102960, Note_on_c, 9, 77, 64
4, 103079, Note_on_c, 9, 70, 0
4, 103079, Note_on_c, 9, 77, 0
4, 103080, Note_on_c, 9, 70, 64
4, 103080, Note_on_c, 9, 77, 64
4, 103199, Note_on_c, 9, 70, 0
4, 103199, Note_on_c, 9, 77, 0
4, 103200, Note_on_c, 9, 70, 64
4, 103319, Note_on_c, 9, 70, 0
4, 103320, Note_on_c, 9, 77, 64
4, 103439, Note_on_c, 9, 77, 0
4, 103440, Note_on_c, 9, 70, 64
4, 103440, Note_on_c, 9, 77, 64
4, 103559, Note_on_c, 9, 70, 0
4, 103559, Note_on_c, 9, 77, 0
4, 103560, Note_on_c, 9, 70, 64
4, 103679, Note_on_c, 9, 70, 0
4, 103680, Note_on_c, 9, 70, 64
4, 103680, Note_on_c, 9, 77, 64
4, 103919, Note_on_c, 9, 70, 0
4, 103919, Note_on_c, 9, 77, 0
4, 103920, Note_on_c, 9, 70, 64
4, 103920, Note_on_c, 9, 77, 64
4, 104039, Note_on_c, 9, 70, 0
4, 104039, Note_on_c, 9, 77, 0
4, 104040, Note_on_c, 9, 70, 64
4, 104159, Note_on_c, 9, 70, 0
4, 104160, Note_on_c, 9, 70, 64
4, 104160, Note_on_c, 9, 77, 64
4, 104399, Note_on_c, 9, 70, 0
4, 104399, Note_on_c, 9, 77, 0
4, 104400, Note_on_c, 9, 68, 64
4, 104400, Note_on_c, 9, 70, 64
4, 104400, Note_on_c, 9, 77, 64
4, 104519, Note_on_c, 9, 68, 0
4, 104519, Note_on_c, 9, 70, 0
4, 104519, Note_on_c, 9, 77, 0
4, 104520, Note_on_c, 9, 67, 64
4, 104520, Note_on_c, 9, 70, 64
4, 104639, Note_on_c, 9, 67, 0
4, 104639, Note_on_c, 9, 70, 0
4, 104640, Note_on_c, 9, 67, 64
4, 104640, Note_on_c, 9, 70, 64
4, 104640, Note_on_c, 9, 77, 64
4, 104879, Note_on_c, 9, 67, 0
4, 104879, Note_on_c, 9, 70, 0
4, 104879, Note_on_c, 9, 77, 0
4, 104880, Note_on_c, 9, 67, 64
4, 104880, Note_on_c, 9, 70, 64
4, 104880, Note_on_c, 9, 77, 64
4, 104999, Note_on_c, 9, 67, 0
4, 104999, Note_on_c, 9, 70, 0
4, 104999, Note_on_c, 9, 77, 0
4, 105000, Note_on_c, 9, 70, 64
4, 105000, Note_on_c, 9, 77, 64
4, 105119, Note_on_c, 9, 70, 0
4, 105119, Note_on_c, 9, 77, 0
4, 105120, Note_on_c, 9, 67, 64
4, 105120, Note_on_c, 9, 70, 64
4, 105239, Note_on_c, 9, 67, 0
4, 105239, Note_on_c, 9, 70, 0
4, 105240, Note_on_c, 9, 77, 64
4, 105359, Note_on_c, 9, 77, 0
4, 105360, Note_on_c, 9, 70, 64
4, 105360, Note_on_c, 9, 77, 64
4, 105479, Note_on_c, 9, 70, 0
4, 105479, Note_on_c, 9, 77, 0
4, 105480, Note_on_c, 9, 70, 64
4, 105480, Note_on_c, 9, 77, 64
4, 105599, Note_on_c, 9, 70, 0
4, 105599, Note_on_c, 9, 77, 0
4, 105600, Note_on_c, 9, 70, 64
4, 105600, Note_on_c, 9, 77, 64
4, 105839, Note_on_c, 9, 70, 0
4, 105839, Note_on_c, 9, 77, 0
4, 105840, Note_on_c, 9, 70, 64
4, 105840, Note_on_c, 9, 77, 64
4, 105959, Note_on_c, 9, 70, 0
4, 105959, Note_on_c, 9, 77, 0
4, 105960, Note_on_c, 9, 70, 64
4, 106079, Note_on_c, 9, 70, 0
4, 106080, Note_on_c, 9, 70, 64
4, 106080, Note_on_c, 9, 77, 64
4, 106319, Note_on_c, 9, 70, 0
4, 106319, Note_on_c, 9, 77, 0
4, 106320, Note_on_c, 9, 70, 64
4, 106320, Note_on_c, 9, 77, 64
4, 106439, Note_on_c, 9, 70, 0
4, 106439, Note_on_c, 9, 77, 0
4, 106440, Note_on_c, 9, 70, 64
4, 106559, Note_on_c, 9, 70, 0
4, 106560, Note_on_c, 9, 70, 64
4, 106560, Note_on_c, 9, 77, 64
4, 106799, Note_on_c, 9, 70, 0
4, 106799, Note_on_c, 9, 77, 0
4, 106800, Note_on_c, 9, 70, 64
4, 106800, Note_on_c, 9, 77, 64
4, 106919, Note_on_c, 9, 70, 0
4, 106919, Note_on_c, 9, 77, 0
4, 106920, Note_on_c, 9, 70, 64
4, 106920, Note_on_c, 9, 77, 64
4, 107039, Note_on_c, 9, 70, 0
4, 107039, Note_on_c, 9, 77, 0
4, 107040, Note_on_c, 9, 70, 64
4, 107159, Note_on_c, 9, 70, 0
4, 107160, Note_on_c, 9, 77, 64
4, 107279, Note_on_c, 9, 77, 0
4, 107280, Note_on_c, 9, 70, 64
4, 107280, Note_on_c, 9, 77, 64
4, 107399, Note_on_c, 9, 70, 0
4, 107399, Note_on_c, 9, 77, 0
4, 107400, Note_on_c, 9, 70, 64
4, 107519, Note_on_c, 9, 70, 0
4, 107520, Note_on_c, 9, 70, 64
4, 107520, Note_on_c, 9, 77, 64
4, 107759, Note_on_c, 9, 70, 0
4, 107759, Note_on_c, 9, 77, 0
4, 107760, Note_on_c, 9, 70, 64
4, 107760, Note_on_c, 9, 77, 64
4, 107879, Note_on_c, 9, 70, 0
4, 107879, Note_on_c, 9, 77, 0
4, 107880, Note_on_c, 9, 70, 64
4, 107999, Note_on_c, 9, 70, 0
4, 108000, Note_on_c, 9, 70, 64
4, 108000, Note_on_c, 9, 77, 64
4, 108239, Note_on_c, 9, 70, 0
4, 108239, Note_on_c, 9, 77, 0
4, 108240, Note_on_c, 9, 70, 64
4, 108240, Note_on_c, 9, 77, 64
4, 108359, Note_on_c, 9, 70, 0
4, 108359, Note_on_c, 9, 77, 0
4, 108360, Note_on_c, 9, 70, 64
4, 108479, Note_on_c, 9, 70, 0
4, 108480, Note_on_c, 9, 70, 64
4, 108480, Note_on_c, 9, 77, 64
4, 108719, Note_on_c, 9, 70, 0
4, 108719, Note_on_c, 9, 77, 0
4, 108720, Note_on_c, 9, 70, 64
4, 108720, Note_on_c, 9, 77, 64
4, 108839, Note_on_c, 9, 70, 0
4, 108839, Note_on_c, 9, 77, 0
4, 108840, Note_on_c, 9, 70, 64
4, 108840, Note_on_c, 9, 77, 64
4, 108959, Note_on_c, 9, 70, 0
4, 108959, Note_on_c, 9, 77, 0
4, 108960, Note_on_c, 9, 70, 64
4, 109079, Note_on_c, 9, 70, 0
4, 109080, Note_on_c, 9, 77, 64
4, 109199, Note_on_c, 9, 77, 0
4, 109200, Note_on_c, 9, 70, 64
4, 109200, Note_on_c, 9, 77, 64
4, 109319, Note_on_c, 9, 70, 0
4, 109319, Note_on_c, 9, 77, 0
4, 109320, Note_on_c, 9, 70, 64
4, 109320, Note_on_c, 9, 77, 64
4, 109439, Note_on_c, 9, 70, 0
4, 109439, Note_on_c, 9, 77, 0
4, 109440, Note_on_c, 9, 70, 64
4, 109440, Note_on_c, 9, 77, 64
4, 109679, Note_on_c, 9, 70, 0
4, 109679, Note_on_c, 9, 77, 0
4, 109680, Note_on_c, 9, 70, 64
4, 109680, Note_on_c, 9, 77, 64
4, 109799, Note_on_c, 9, 70, 0
4, 109799, Note_on_c, 9, 77, 0
4, 109800, Note_on_c, 9, 70, 64
4, 109919, Note_on_c, 9, 70, 0
4, 109920, Note_on_c, 9, 70, 64
4, 109920, Note_on_c, 9, 77, 64
4, 110159, Note_on_c, 9, 70, 0
4, 110159, Note_on_c, 9, 77, 0
4, 110160, Note_on_c, 9, 70, 64
4, 110160, Note_on_c, 9, 77, 64
4, 110279, Note_on_c, 9, 70, 0
4, 110279, Note_on_c, 9, 77, 0
4, 110280, Note_on_c, 9, 70, 64
4, 110399, Note_on_c, 9, 70, 0
4, 110400, Note_on_c, 9, 70, 64
4, 110400, Note_on_c, 9, 77, 64
4, 110639, Note_on_c, 9, 70, 0
4, 110639, Note_on_c, 9, 77, 0
4, 110640, Note_on_c, 9, 70, 64
4, 110640, Note_on_c, 9, 77, 64
4, 110759, Note_on_c, 9, 70, 0
4, 110759, Note_on_c, 9, 77, 0
4, 110760, Note_on_c, 9, 70, 64
4, 110760, Note_on_c, 9, 77, 64
4, 110879, Note_on_c, 9, 70, 0
4, 110879, Note_on_c, 9, 77, 0
4, 110880, Note_on_c, 9, 70, 64
4, 110999, Note_on_c, 9, 70, 0
4, 111000, Note_on_c, 9, 77, 64
4, 111119, Note_on_c, 9, 77, 0
4, 111120, Note_on_c, 9, 70, 64
4, 111120, Note_on_c, 9, 77, 64
4, 111239, Note_on_c, 9, 70, 0
4, 111239, Note_on_c, 9, 77, 0
4, 111240, Note_on_c, 9, 70, 64
4, 111359, Note_on_c, 9, 70, 0
4, 111360, Note_on_c, 9, 70, 64
4, 111360, Note_on_c, 9, 77, 64
4, 111599, Note_on_c, 9, 70, 0
4, 111599, Note_on_c, 9, 77, 0
4, 111600, Note_on_c, 9, 70, 64
4, 111600, Note_on_c, 9, 77, 64
4, 111719, Note_on_c, 9, 70, 0
4, 111719, Note_on_c, 9, 77, 0
4, 111720, Note_on_c, 9, 70, 64
4, 111839, Note_on_c, 9, 70, 0
4, 111840, Note_on_c, 9, 70, 64
4, 111840, Note_on_c, 9, 77, 64
4, 112079, Note_on_c, 9, 70, 0
4, 112079, Note_on_c, 9, 77, 0
4, 112080, Note_on_c, 9, 68, 64
4, 112080, Note_on_c, 9, 70, 64
4, 112080, Note_on_c, 9, 77, 64
4, 112199, Note_on_c, 9, 68, 0
4, 112199, Note_on_c, 9, 70, 0
4, 112199, Note_on_c, 9, 77, 0
4, 112200, Note_on_c, 9, 67, 64
4, 112200, Note_on_c, 9, 70, 64
4, 112319, Note_on_c, 9, 67, 0
4, 112319, Note_on_c, 9, 70, 0
4, 112320, Note_on_c, 9, 67, 64
4, 112320, Note_on_c, 9, 70, 64
4, 112320, Note_on_c, 9, 77, 64
4, 112559, Note_on_c, 9, 67, 0
4, 112559, Note_on_c, 9, 70, 0
4, 112559, Note_on_c, 9, 77, 0
4, 112560, Note_on_c, 9, 67, 64
4, 112560, Note_on_c, 9, 70, 64
4, 112560, Note_on_c, 9, 77, 64
4, 112679, Note_on_c, 9, 67, 0
4, 112679, Note_on_c, 9, 70, 0
4, 112679, Note_on_c, 9, 77, 0
4, 112680, Note_on_c, 9, 70, 64
4, 112680, Note_on_c, 9, 77, 64
4, 112799, Note_on_c, 9, 70, 0
4, 112799, Note_on_c, 9, 77, 0
4, 112800, Note_on_c, 9, 67, 64
4, 112800, Note_on_c, 9, 70, 64
4, 112919, Note_on_c, 9, 67, 0
4, 112919, Note_on_c, 9, 70, 0
4, 112920, Note_on_c, 9, 77, 64
4, 113039, Note_on_c, 9, 77, 0
4, 113040, Note_on_c, 9, 70, 64
4, 113040, Note_on_c, 9, 77, 64
4, 113159, Note_on_c, 9, 70, 0
4, 113159, Note_on_c, 9, 77, 0
4, 113160, Note_on_c, 9, 70, 64
4, 113160, Note_on_c, 9, 77, 64
4, 113279, Note_on_c, 9, 70, 0
4, 113279, Note_on_c, 9, 77, 0
4, 113280, Note_on_c, 9, 70, 64
4, 113280, Note_on_c, 9, 77, 64
4, 113519, Note_on_c, 9, 70, 0
4, 113519, Note_on_c, 9, 77, 0
4, 113520, Note_on_c, 9, 70, 64
4, 113520, Note_on_c, 9, 77, 64
4, 113639, Note_on_c, 9, 70, 0
4, 113639, Note_on_c, 9, 77, 0
4, 113640, Note_on_c, 9, 70, 64
4, 113759, Note_on_c, 9, 70, 0
4, 113760, Note_on_c, 9, 70, 64
4, 113760, Note_on_c, 9, 77, 64
4, 113999, Note_on_c, 9, 70, 0
4, 113999, Note_on_c, 9, 77, 0
4, 114000, Note_on_c, 9, 70, 64
4, 114000, Note_on_c, 9, 77, 64
4, 114119, Note_on_c, 9, 70, 0
4, 114119, Note_on_c, 9, 77, 0
4, 114120, Note_on_c, 9, 70, 64
4, 114239, Note_on_c, 9, 70, 0
4, 114240, Note_on_c, 9, 70, 64
4, 114240, Note_on_c, 9, 77, 64
4, 114479, Note_on_c, 9, 70, 0
4, 114479, Note_on_c, 9, 77, 0
4, 114480, Note_on_c, 9, 70, 64
4, 114480, Note_on_c, 9, 77, 64
4, 114599, Note_on_c, 9, 70, 0
4, 114599, Note_on_c, 9, 77, 0
4, 114600, Note_on_c, 9, 70, 64
4, 114600, Note_on_c, 9, 77, 64
4, 114719, Note_on_c, 9, 70, 0
4, 114719, Note_on_c, 9, 77, 0
4, 114720, Note_on_c, 9, 70, 64
4, 114839, Note_on_c, 9, 70, 0
4, 114840, Note_on_c, 9, 77, 64
4, 114959, Note_on_c, 9, 77, 0
4, 114960, Note_on_c, 9, 70, 64
4, 114960, Note_on_c, 9, 77, 64
4, 115079, Note_on_c, 9, 70, 0
4, 115079, Note_on_c, 9, 77, 0
4, 115080, Note_on_c, 9, 70, 64
4, 115199, Note_on_c, 9, 70, 0
4, 117120, Note_on_c, 9, 70, 64
4, 117120, Note_on_c, 9, 77, 64
4, 117359, Note_on_c, 9, 70, 0
4, 117359, Note_on_c, 9, 77, 0
4, 117360, Note_on_c, 9, 70, 64
4, 117360, Note_on_c, 9, 77, 64
4, 117479, Note_on_c, 9, 70, 0
4, 117479, Note_on_c, 9, 77, 0
4, 117480, Note_on_c, 9, 70, 64
4, 117599, Note_on_c, 9, 70, 0
4, 117600, Note_on_c, 9, 70, 64
4, 117600, Note_on_c, 9, 77, 64
4, 117839, Note_on_c, 9, 70, 0
4, 117839, Note_on_c, 9, 77, 0
4, 117840, Note_on_c, 9, 70, 64
4, 117840, Note_on_c, 9, 77, 64
4, 117959, Note_on_c, 9, 70, 0
4, 117959, Note_on_c, 9, 77, 0
4, 117960, Note_on_c, 9, 70, 64
4, 118079, Note_on_c, 9, 70, 0
4, 118080, Note_on_c, 9, 70, 64
4, 118080, Note_on_c, 9, 77, 64
4, 118319, Note_on_c, 9, 70, 0
4, 118319, Note_on_c, 9, 77, 0
4, 118320, Note_on_c, 9, 70, 64
4, 118320, Note_on_c, 9, 77, 64
4, 118439, Note_on_c, 9, 70, 0
4, 118439, Note_on_c, 9, 77, 0
4, 118440, Note_on_c, 9, 70, 64
4, 118440, Note_on_c, 9, 77, 64
4, 118559, Note_on_c, 9, 70, 0
4, 118559, Note_on_c, 9, 77, 0
4, 118560, Note_on_c, 9, 70, 64
4, 118679, Note_on_c, 9, 70, 0
4, 118680, Note_on_c, 9, 77, 64
4, 118799, Note_on_c, 9, 77, 0
4, 118800, Note_on_c, 9, 70, 64
4, 118800, Note_on_c, 9, 77, 64
4, 118919, Note_on_c, 9, 70, 0
4, 118919, Note_on_c, 9, 77, 0
4, 118920, Note_on_c, 9, 70, 64
4, 119039, Note_on_c, 9, 70, 0
4, 119040, Note_on_c, 9, 70, 64
4, 119040, Note_on_c, 9, 77, 64
4, 119279, Note_on_c, 9, 70, 0
4, 119279, Note_on_c, 9, 77, 0
4, 119280, Note_on_c, 9, 70, 64
4, 119280, Note_on_c, 9, 77, 64
4, 119399, Note_on_c, 9, 70, 0
4, 119399, Note_on_c, 9, 77, 0
4, 119400, Note_on_c, 9, 70, 64
4, 119519, Note_on_c, 9, 70, 0
4, 119520, Note_on_c, 9, 70, 64
4, 119520, Note_on_c, 9, 77, 64
4, 119759, Note_on_c, 9, 70, 0
4, 119759, Note_on_c, 9, 77, 0
4, 119760, Note_on_c, 9, 70, 64
4, 119760, Note_on_c, 9, 77, 64
4, 119879, Note_on_c, 9, 70, 0
4, 119879, Note_on_c, 9, 77, 0
4, 119880, Note_on_c, 9, 70, 64
4, 119999, Note_on_c, 9, 70, 0
4, 120000, Note_on_c, 9, 70, 64
4, 120000, Note_on_c, 9, 77, 64
4, 120239, Note_on_c, 9, 70, 0
4, 120239, Note_on_c, 9, 77, 0
4, 120240, Note_on_c, 9, 70, 64
4, 120240, Note_on_c, 9, 77, 64
4, 120359, Note_on_c, 9, 70, 0
4, 120359, Note_on_c, 9, 77, 0
4, 120360, Note_on_c, 9, 70, 64
4, 120360, Note_on_c, 9, 77, 64
4, 120479, Note_on_c, 9, 70, 0
4, 120479, Note_on_c, 9, 77, 0
4, 120480, Note_on_c, 9, 70, 64
4, 120599, Note_on_c, 9, 70, 0
4, 120600, Note_on_c, 9, 77, 64
4, 120719, Note_on_c, 9, 77, 0
4, 120720, Note_on_c, 9, 70, 64
4, 120720, Note_on_c, 9, 77, 64
4, 120839, Note_on_c, 9, 70, 0
4, 120839, Note_on_c, 9, 77, 0
4, 120840, Note_on_c, 9, 70, 64
4, 120840, Note_on_c, 9, 77, 64
4, 120959, Note_on_c, 9, 70, 0
4, 120959, Note_on_c, 9, 77, 0
4, 120960, Note_on_c, 9, 70, 64
4, 120960, Note_on_c, 9, 77, 64
4, 121199, Note_on_c, 9, 70, 0
4, 121199, Note_on_c, 9, 77, 0
4, 121200, Note_on_c, 9, 70, 64
4, 121200, Note_on_c, 9, 77, 64
4, 121319, Note_on_c, 9, 70, 0
4, 121319, Note_on_c, 9, 77, 0
4, 121320, Note_on_c, 9, 70, 64
4, 121439, Note_on_c, 9, 70, 0
4, 121440, Note_on_c, 9, 70, 64
4, 121440, Note_on_c, 9, 77, 64
4, 121679, Note_on_c, 9, 70, 0
4, 121679, Note_on_c, 9, 77, 0
4, 121680, Note_on_c, 9, 70, 64
4, 121680, Note_on_c, 9, 77, 64
4, 121799, Note_on_c, 9, 70, 0
4, 121799, Note_on_c, 9, 77, 0
4, 121800, Note_on_c, 9, 70, 64
4, 121919, Note_on_c, 9, 70, 0
4, 121920, Note_on_c, 9, 70, 64
4, 121920, Note_on_c, 9, 77, 64
4, 122159, Note_on_c, 9, 70, 0
4, 122159, Note_on_c, 9, 77, 0
4, 122160, Note_on_c, 9, 70, 64
4, 122160, Note_on_c, 9, 77, 64
4, 122279, Note_on_c, 9, 70, 0
4, 122279, Note_on_c, 9, 77, 0
4, 122280, Note_on_c, 9, 70, 64
4, 122280, Note_on_c, 9, 77, 64
4, 122399, Note_on_c, 9, 70, 0
4, 122399, Note_on_c, 9, 77, 0
4, 122400, Note_on_c, 9, 70, 64
4, 122519, Note_on_c, 9, 70, 0
4, 122520, Note_on_c, 9, 77, 64
4, 122639, Note_on_c, 9, 77, 0
4, 122640, Note_on_c, 9, 70, 64
4, 122640, Note_on_c, 9, 77, 64
4, 122759, Note_on_c, 9, 70, 0
4, 122759, Note_on_c, 9, 77, 0
4, 122760, Note_on_c, 9, 70, 64
4, 122879, Note_on_c, 9, 70, 0
4, 122880, Note_on_c, 9, 70, 64
4, 122880, Note_on_c, 9, 77, 64
4, 123119, Note_on_c, 9, 70, 0
4, 123119, Note_on_c, 9, 77, 0
4, 123120, Note_on_c, 9, 70, 64
4, 123120, Note_on_c, 9, 77, 64
4, 123239, Note_on_c, 9, 70, 0
4, 123239, Note_on_c, 9, 77, 0
4, 123240, Note_on_c, 9, 70, 64
4, 123359, Note_on_c, 9, 70, 0
4, 123360, Note_on_c, 9, 70, 64
4, 123360, Note_on_c, 9, 77, 64
4, 123599, Note_on_c, 9, 70, 0
4, 123599, Note_on_c, 9, 77, 0
4, 123600, Note_on_c, 9, 70, 64
4, 123600, Note_on_c, 9, 77, 64
4, 123719, Note_on_c, 9, 70, 0
4, 123719, Note_on_c, 9, 77, 0
4, 123720, Note_on_c, 9, 70, 64
4, 123839, Note_on_c, 9, 70, 0
4, 123840, Note_on_c, 9, 70, 64
4, 123840, Note_on_c, 9, 77, 64
4, 124079, Note_on_c, 9, 70, 0
4, 124079, Note_on_c, 9, 77, 0
4, 124080, Note_on_c, 9, 70, 64
4, 124080, Note_on_c, 9, 77, 64
4, 124199, Note_on_c, 9, 70, 0
4, 124199, Note_on_c, 9, 77, 0
4, 124200, Note_on_c, 9, 70, 64
4, 124200, Note_on_c, 9, 77, 64
4, 124319, Note_on_c, 9, 70, 0
4, 124319, Note_on_c, 9, 77, 0
4, 124320, Note_on_c, 9, 70, 64
4, 124439, Note_on_c, 9, 70, 0
4, 124440, Note_on_c, 9, 77, 64
4, 124559, Note_on_c, 9, 77, 0
4, 124560, Note_on_c, 9, 70, 64
4, 124560, Note_on_c, 9, 77, 64
4, 124679, Note_on_c, 9, 70, 0
4, 124679, Note_on_c, 9, 77, 0
4, 124680, Note_on_c, 9, 70, 64
4, 124680, Note_on_c, 9, 77, 64
4, 124799, Note_on_c, 9, 70, 0
4, 124799, Note_on_c, 9, 77, 0
4, 124800, Note_on_c, 9, 70, 64
4, 124800, Note_on_c, 9, 77, 64
4, 125039, Note_on_c, 9, 70, 0
4, 125039, Note_on_c, 9, 77, 0
4, 125040, Note_on_c, 9, 70, 64
4, 125040, Note_on_c, 9, 77, 64
4, 125159, Note_on_c, 9, 70, 0
4, 125159, Note_on_c, 9, 77, 0
4, 125160, Note_on_c, 9, 70, 64
4, 125279, Note_on_c, 9, 70, 0
4, 125280, Note_on_c, 9, 70, 64
4, 125280, Note_on_c, 9, 77, 64
4, 125519, Note_on_c, 9, 70, 0
4, 125519, Note_on_c, 9, 77, 0
4, 125520, Note_on_c, 9, 70, 64
4, 125520, Note_on_c, 9, 77, 64
4, 125639, Note_on_c, 9, 70, 0
4, 125639, Note_on_c, 9, 77, 0
4, 125640, Note_on_c, 9, 70, 64
4, 125759, Note_on_c, 9, 70, 0
4, 125760, Note_on_c, 9, 70, 64
4, 125760, Note_on_c, 9, 77, 64
4, 125999, Note_on_c, 9, 70, 0
4, 125999, Note_on_c, 9, 77, 0
4, 126000, Note_on_c, 9, 70, 64
4, 126000, Note_on_c, 9, 77, 64
4, 126119, Note_on_c, 9, 70, 0
4, 126119, Note_on_c, 9, 77, 0
4, 126120, Note_on_c, 9, 70, 64
4, 126120, Note_on_c, 9, 77, 64
4, 126239, Note_on_c, 9, 70, 0
4, 126239, Note_on_c, 9, 77, 0
4, 126240, Note_on_c, 9, 70, 64
4, 126359, Note_on_c, 9, 70, 0
4, 126360, Note_on_c, 9, 77, 64
4, 126479, Note_on_c, 9, 77, 0
4, 126480, Note_on_c, 9, 70, 64
4, 126480, Note_on_c, 9, 77, 64
4, 126599, Note_on_c, 9, 70, 0
4, 126599, Note_on_c, 9, 77, 0
4, 126600, Note_on_c, 9, 70, 64
4, 126719, Note_on_c, 9, 70, 0
4, 126720, Note_on_c, 9, 70, 64
4, 126720, Note_on_c, 9, 77, 64
4, 126959, Note_on_c, 9, 70, 0
4, 126959, Note_on_c, 9, 77, 0
4, 126960, Note_on_c, 9, 70, 64
4, 126960, Note_on_c, 9, 77, 64
4, 127079, Note_on_c, 9, 70, 0
4, 127079, Note_on_c, 9, 77, 0
4, 127080, Note_on_c, 9, 70, 64
4, 127199, Note_on_c, 9, 70, 0
4, 127200, Note_on_c, 9, 70, 64
4, 127200, Note_on_c, 9, 77, 64
4, 127439, Note_on_c, 9, 70, 0
4, 127439, Note_on_c, 9, 77, 0
4, 127440, Note_on_c, 9, 70, 64
4, 127440, Note_on_c, 9, 77, 64
4, 127559, Note_on_c, 9, 70, 0
4, 127559, Note_on_c, 9, 77, 0
4, 127560, Note_on_c, 9, 70, 64
4, 127679, Note_on_c, 9, 70, 0
4, 127680, Note_on_c, 9, 70, 64
4, 127680, Note_on_c, 9, 77, 64
4, 127919, Note_on_c, 9, 70, 0
4, 127919, Note_on_c, 9, 77, 0
4, 127920, Note_on_c, 9, 70, 64
4, 127920, Note_on_c, 9, 77, 64
4, 128039, Note_on_c, 9, 70, 0
4, 128039, Note_on_c, 9, 77, 0
4, 128040, Note_on_c, 9, 70, 64
4, 128040, Note_on_c, 9, 77, 64
4, 128159, Note_on_c, 9, 70, 0
4, 128159, Note_on_c, 9, 77, 0
4, 128160, Note_on_c, 9, 70, 64
4, 128279, Note_on_c, 9, 70, 0
4, 128280, Note_on_c, 9, 77, 64
4, 128399, Note_on_c, 9, 77, 0
4, 128400, Note_on_c, 9, 70, 64
4, 128400, Note_on_c, 9, 77, 64
4, 128519, Note_on_c, 9, 70, 0
4, 128519, Note_on_c, 9, 77, 0
4, 128520, Note_on_c, 9, 70, 64
4, 128520, Note_on_c, 9, 77, 64
4, 128639, Note_on_c, 9, 70, 0
4, 128639, Note_on_c, 9, 77, 0
4, 128640, Note_on_c, 9, 70, 64
4, 128640, Note_on_c, 9, 77, 64
4, 128879, Note_on_c, 9, 70, 0
4, 128879, Note_on_c, 9, 77, 0
4, 128880, Note_on_c, 9, 70, 64
4, 128880, Note_on_c, 9, 77, 64
4, 128999, Note_on_c, 9, 70, 0
4, 128999, Note_on_c, 9, 77, 0
4, 129000, Note_on_c, 9, 70, 64
4, 129119, Note_on_c, 9, 70, 0
4, 129120, Note_on_c, 9, 70, 64
4, 129120, Note_on_c, 9, 77, 64
4, 129359, Note_on_c, 9, 70, 0
4, 129359, Note_on_c, 9, 77, 0
4, 129360, Note_on_c, 9, 70, 64
4, 129360, Note_on_c, 9, 77, 64
4, 129479, Note_on_c, 9, 70, 0
4, 129479, Note_on_c, 9, 77, 0
4, 129480, Note_on_c, 9, 70, 64
4, 129599, Note_on_c, 9, 70, 0
4, 129600, Note_on_c, 9, 70, 64
4, 129600, Note_on_c, 9, 77, 64
4, 129839, Note_on_c, 9, 70, 0
4, 129839, Note_on_c, 9, 77, 0
4, 129840, Note_on_c, 9, 70, 64
4, 129840, Note_on_c, 9, 77, 64
4, 129959, Note_on_c, 9, 70, 0
4, 129959, Note_on_c, 9, 77, 0
4, 129960, Note_on_c, 9, 70, 64
4, 129960, Note_on_c, 9, 77, 64
4, 130079, Note_on_c, 9, 70, 0
4, 130079, Note_on_c, 9, 77, 0
4, 130080, Note_on_c, 9, 70, 64
4, 130199, Note_on_c, 9, 70, 0
4, 130200, Note_on_c, 9, 77, 64
4, 130319, Note_on_c, 9, 77, 0
4, 130320, Note_on_c, 9, 70, 64
4, 130320, Note_on_c, 9, 77, 64
4, 130439, Note_on_c, 9, 70, 0
4, 130439, Note_on_c, 9, 77, 0
4, 130440, Note_on_c, 9, 70, 64
4, 130559, Note_on_c, 9, 70, 0
4, 130560, Note_on_c, 9, 70, 64
4, 130560, Note_on_c, 9, 77, 64
4, 130799, Note_on_c, 9, 70, 0
4, 130799, Note_on_c, 9, 77, 0
4, 130800, Note_on_c, 9, 70, 64
4, 130800, Note_on_c, 9, 77, 64
4, 130919, Note_on_c, 9, 70, 0
4, 130919, Note_on_c, 9, 77, 0
4, 130920, Note_on_c, 9, 70, 64
4, 131039, Note_on_c, 9, 70, 0
4, 131040, Note_on_c, 9, 70, 64
4, 131040, Note_on_c, 9, 77, 64
4, 131279, Note_on_c, 9, 70, 0
4, 131279, Note_on_c, 9, 77, 0
4, 131280, Note_on_c, 9, 70, 64
4, 131280, Note_on_c, 9, 77, 64
4, 131399, Note_on_c, 9, 70, 0
4, 131399, Note_on_c, 9, 77, 0
4, 131400, Note_on_c, 9, 70, 64
4, 131519, Note_on_c, 9, 70, 0
4, 131520, Note_on_c, 9, 70, 64
4, 131520, Note_on_c, 9, 77, 64
4, 131759, Note_on_c, 9, 70, 0
4, 131759, Note_on_c, 9, 77, 0
4, 131760, Note_on_c, 9, 70, 64
4, 131760, Note_on_c, 9, 77, 64
4, 131879, Note_on_c, 9, 70, 0
4, 131879, Note_on_c, 9, 77, 0
4, 131880, Note_on_c, 9, 70, 64
4, 131880, Note_on_c, 9, 77, 64
4, 131999, Note_on_c, 9, 70, 0
4, 131999, Note_on_c, 9, 77, 0
4, 132000, Note_on_c, 9, 70, 64
4, 132119, Note_on_c, 9, 70, 0
4, 132120, Note_on_c, 9, 77, 64
4, 132239, Note_on_c, 9, 77, 0
4, 132240, Note_on_c, 9, 70, 64
4, 132240, Note_on_c, 9, 77, 64
4, 132359, Note_on_c, 9, 70, 0
4, 132359, Note_on_c, 9, 77, 0
4, 132360, Note_on_c, 9, 70, 64
4, 132360, Note_on_c, 9, 77, 64
4, 132479, Note_on_c, 9, 70, 0
4, 132479, Note_on_c, 9, 77, 0
4, 132480, Note_on_c, 9, 70, 64
4, 132480, Note_on_c, 9, 77, 64
4, 132719, Note_on_c, 9, 70, 0
4, 132719, Note_on_c, 9, 77, 0
4, 132720, Note_on_c, 9, 70, 64
4, 132720, Note_on_c, 9, 77, 64
4, 132839, Note_on_c, 9, 70, 0
4, 132839, Note_on_c, 9, 77, 0
4, 132840, Note_on_c, 9, 70, 64
4, 132959, Note_on_c, 9, 70, 0
4, 132960, Note_on_c, 9, 70, 64
4, 132960, Note_on_c, 9, 77, 64
4, 133199, Note_on_c, 9, 70, 0
4, 133199, Note_on_c, 9, 77, 0
4, 133200, Note_on_c, 9, 70, 64
4, 133200, Note_on_c, 9, 77, 64
4, 133319, Note_on_c, 9, 70, 0
4, 133319, Note_on_c, 9, 77, 0
4, 133320, Note_on_c, 9, 70, 64
4, 133439, Note_on_c, 9, 70, 0
4, 133440, Note_on_c, 9, 70, 64
4, 133440, Note_on_c, 9, 77, 64
4, 133679, Note_on_c, 9, 70, 0
4, 133679, Note_on_c, 9, 77, 0
4, 133680, Note_on_c, 9, 70, 64
4, 133680, Note_on_c, 9, 77, 64
4, 133799, Note_on_c, 9, 70, 0
4, 133799, Note_on_c, 9, 77, 0
4, 133800, Note_on_c, 9, 70, 64
4, 133800, Note_on_c, 9, 77, 64
4, 133919, Note_on_c, 9, 70, 0
4, 133919, Note_on_c, 9, 77, 0
4, 133920, Note_on_c, 9, 70, 64
4, 134039, Note_on_c, 9, 70, 0
4, 134040, Note_on_c, 9, 77, 64
4, 134159, Note_on_c, 9, 77, 0
4, 134160, Note_on_c, 9, 70, 64
4, 134160, Note_on_c, 9, 77, 64
4, 134279, Note_on_c, 9, 70, 0
4, 134279, Note_on_c, 9, 77, 0
4, 134280, Note_on_c, 9, 70, 64
4, 134399, Note_on_c, 9, 70, 0
4, 134400, Note_on_c, 9, 70, 64
4, 134400, Note_on_c, 9, 77, 64
4, 134639, Note_on_c, 9, 70, 0
4, 134639, Note_on_c, 9, 77, 0
4, 134640, Note_on_c, 9, 70, 64
4, 134640, Note_on_c, 9, 77, 64
4, 134759, Note_on_c, 9, 70, 0
4, 134759, Note_on_c, 9, 77, 0
4, 134760, Note_on_c, 9, 70, 64
4, 134879, Note_on_c, 9, 70, 0
4, 134880, Note_on_c, 9, 70, 64
4, 134880, Note_on_c, 9, 77, 64
4, 135119, Note_on_c, 9, 70, 0
4, 135119, Note_on_c, 9, 77, 0
4, 135120, Note_on_c, 9, 70, 64
4, 135120, Note_on_c, 9, 77, 64
4, 135239, Note_on_c, 9, 70, 0
4, 135239, Note_on_c, 9, 77, 0
4, 135240, Note_on_c, 9, 70, 64
4, 135359, Note_on_c, 9, 70, 0
4, 135360, Note_on_c, 9, 70, 64
4, 135360, Note_on_c, 9, 77, 64
4, 135599, Note_on_c, 9, 70, 0
4, 135599, Note_on_c, 9, 77, 0
4, 135600, Note_on_c, 9, 70, 64
4, 135600, Note_on_c, 9, 77, 64
4, 135719, Note_on_c, 9, 70, 0
4, 135719, Note_on_c, 9, 77, 0
4, 135720, Note_on_c, 9, 70, 64
4, 135720, Note_on_c, 9, 77, 64
4, 135839, Note_on_c, 9, 70, 0
4, 135839, Note_on_c, 9, 77, 0
4, 135840, Note_on_c, 9, 70, 64
4, 135959, Note_on_c, 9, 70, 0
4, 135960, Note_on_c, 9, 77, 64
4, 136079, Note_on_c, 9, 77, 0
4, 136080, Note_on_c, 9, 70, 64
4, 136080, Note_on_c, 9, 77, 64
4, 136199, Note_on_c, 9, 70, 0
4, 136199, Note_on_c, 9, 77, 0
4, 136200, Note_on_c, 9, 70, 64
4, 136200, Note_on_c, 9, 77, 64
4, 136319, Note_on_c, 9, 70, 0
4, 136319, Note_on_c, 9, 77, 0
4, 136320, Note_on_c, 9, 70, 64
4, 136320, Note_on_c, 9, 77, 64
4, 136559, Note_on_c, 9, 70, 0
4, 136559, Note_on_c, 9, 77, 0
4, 136560, Note_on_c, 9, 70, 64
4, 136560, Note_on_c, 9, 77, 64
4, 136679, Note_on_c, 9, 70, 0
4, 136679, Note_on_c, 9, 77, 0
4, 136680, Note_on_c, 9, 70, 64
4, 136799, Note_on_c, 9, 70, 0
4, 136800, Note_on_c, 9, 70, 64
4, 136800, Note_on_c, 9, 77, 64
4, 137039, Note_on_c, 9, 70, 0
4, 137039, Note_on_c, 9, 77, 0
4, 137040, Note_on_c, 9, 70, 64
4, 137040, Note_on_c, 9, 77, 64
4, 137159, Note_on_c, 9, 70, 0
4, 137159, Note_on_c, 9, 77, 0
4, 137160, Note_on_c, 9, 70, 64
4, 137279, Note_on_c, 9, 70, 0
4, 137280, Note_on_c, 9, 70, 64
4, 137280, Note_on_c, 9, 77, 64
4, 137519, Note_on_c, 9, 70, 0
4, 137519, Note_on_c, 9, 77, 0
4, 137520, Note_on_c, 9, 70, 64
4, 137520, Note_on_c, 9, 77, 64
4, 137639, Note_on_c, 9, 70, 0
4, 137639, Note_on_c, 9, 77, 0
4, 137640, Note_on_c, 9, 70, 64
4, 137640, Note_on_c, 9, 77, 64
4, 137759, Note_on_c, 9, 70, 0
4, 137759, Note_on_c, 9, 77, 0
4, 137760, Note_on_c, 9, 70, 64
4, 137879, Note_on_c, 9, 70, 0
4, 137880, Note_on_c, 9, 77, 64
4, 137999, Note_on_c, 9, 77, 0
4, 138000, Note_on_c, 9, 70, 64
4, 138000, Note_on_c, 9, 77, 64
4, 138119, Note_on_c, 9, 70, 0
4, 138119, Note_on_c, 9, 77, 0
4, 138120, Note_on_c, 9, 70, 64
4, 138239, Note_on_c, 9, 70, 0
4, 138240, Note_on_c, 9, 70, 64
4, 138240, Note_on_c, 9, 77, 64
4, 138479, Note_on_c, 9, 70, 0
4, 138479, Note_on_c, 9, 77, 0
4, 138480, Note_on_c, 9, 70, 64
4, 138480, Note_on_c, 9, 77, 64
4, 138599, Note_on_c, 9, 70, 0
4, 138599, Note_on_c, 9, 77, 0
4, 138600, Note_on_c, 9, 70, 64
4, 138719, Note_on_c, 9, 70, 0
4, 138720, Note_on_c, 9, 70, 64
4, 138720, Note_on_c, 9, 77, 64
4, 138959, Note_on_c, 9, 70, 0
4, 138959, Note_on_c, 9, 77, 0
4, 138960, Note_on_c, 9, 70, 64
4, 138960, Note_on_c, 9, 77, 64
4, 139079, Note_on_c, 9, 70, 0
4, 139079, Note_on_c, 9, 77, 0
4, 139080, Note_on_c, 9, 70, 64
4, 139199, Note_on_c, 9, 70, 0
4, 139200, Note_on_c, 9, 70, 64
4, 139200, Note_on_c, 9, 77, 64
4, 139439, Note_on_c, 9, 70, 0
4, 139439, Note_on_c, 9, 77, 0
4, 139440, Note_on_c, 9, 70, 64
4, 139440, Note_on_c, 9, 77, 64
4, 139559, Note_on_c, 9, 70, 0
4, 139559, Note_on_c, 9, 77, 0
4, 139560, Note_on_c, 9, 70, 64
4, 139560, Note_on_c, 9, 77, 64
4, 139679, Note_on_c, 9, 70, 0
4, 139679, Note_on_c, 9, 77, 0
4, 139680, Note_on_c, 9, 70, 64
4, 139799, Note_on_c, 9, 70, 0
4, 139800, Note_on_c, 9, 77, 64
4, 139919, Note_on_c, 9, 77, 0
4, 139920, Note_on_c, 9, 70, 64
4, 139920, Note_on_c, 9, 77, 64
4, 140039, Note_on_c, 9, 70, 0
4, 140039, Note_on_c, 9, 77, 0
4, 140040, Note_on_c, 9, 70, 64
4, 140040, Note_on_c, 9, 77, 64
4, 140159, Note_on_c, 9, 70, 0
4, 140159, Note_on_c, 9, 77, 0
4, 155520, Note_on_c, 9, 70, 64
4, 155520, Note_on_c, 9, 77, 64
4, 155759, Note_on_c, 9, 70, 0
4, 155759, Note_on_c, 9, 77, 0
4, 155760, Note_on_c, 9, 70, 64
4, 155760, Note_on_c, 9, 77, 64
4, 155879, Note_on_c, 9, 70, 0
4, 155879, Note_on_c, 9, 77, 0
4, 155880, Note_on_c, 9, 70, 64
4, 155999, Note_on_c, 9, 70, 0
4, 156000, Note_on_c, 9, 70, 64
4, 156000, Note_on_c, 9, 77, 64
4, 156239, Note_on_c, 9, 70, 0
4, 156239, Note_on_c, 9, 77, 0
4, 156240, Note_on_c, 9, 70, 64
4, 156240, Note_on_c, 9, 77, 64
4, 156359, Note_on_c, 9, 70, 0
4, 156359, Note_on_c, 9, 77, 0
4, 156360, Note_on_c, 9, 70, 64
4, 156479, Note_on_c, 9, 70, 0
4, 156480, Note_on_c, 9, 70, 64
4, 156480, Note_on_c, 9, 77, 64
4, 156719, Note_on_c, 9, 70, 0
4, 156719, Note_on_c, 9, 77, 0
4, 156720, Note_on_c, 9, 70, 64
4, 156720, Note_on_c, 9, 77, 64
4, 156839, Note_on_c, 9, 70, 0
4, 156839, Note_on_c, 9, 77, 0
4, 156840, Note_on_c, 9, 70, 64
4, 156840, Note_on_c, 9, 77, 64
4, 156959, Note_on_c, 9, 70, 0
4, 156959, Note_on_c, 9, 77, 0
4, 156960, Note_on_c, 9, 70, 64
4, 157079, Note_on_c, 9, 70, 0
4, 157080, Note_on_c, 9, 77, 64
4, 157199, Note_on_c, 9, 77, 0
4, 157200, Note_on_c, 9, 70, 64
4, 157200, Note_on_c, 9, 77, 64
4, 157319, Note_on_c, 9, 70, 0
4, 157319, Note_on_c, 9, 77, 0
4, 157320, Note_on_c, 9, 70, 64
4, 157439, Note_on_c, 9, 70, 0
4, 157440, Note_on_c, 9, 70, 64
4, 157440, Note_on_c, 9, 77, 64
4, 157679, Note_on_c, 9, 70, 0
4, 157679, Note_on_c, 9, 77, 0
4, 157680, Note_on_c, 9, 70, 64
4, 157680, Note_on_c, 9, 77, 64
4, 157799, Note_on_c, 9, 70, 0
4, 157799, Note_on_c, 9, 77, 0
4, 157800, Note_on_c, 9, 70, 64
4, 157919, Note_on_c, 9, 70, 0
4, 157920, Note_on_c, 9, 70, 64
4, 157920, Note_on_c, 9, 77, 64
4, 158159, Note_on_c, 9, 70, 0
4, 158159, Note_on_c, 9, 77, 0
4, 158160, Note_on_c, 9, 70, 64
4, 158160, Note_on_c, 9, 77, 64
4, 158279, Note_on_c, 9, 70, 0
4, 158279, Note_on_c, 9, 77, 0
4, 158280, Note_on_c, 9, 70, 64
4, 158399, Note_on_c, 9, 70, 0
4, 158400, Note_on_c, 9, 70, 64
4, 158400, Note_on_c, 9, 77, 64
4, 158639, Note_on_c, 9, 70, 0
4, 158639, Note_on_c, 9, 77, 0
4, 158640, Note_on_c, 9, 70, 64
4, 158640, Note_on_c, 9, 77, 64
4, 158759, Note_on_c, 9, 70, 0
4, 158759, Note_on_c, 9, 77, 0
4, 158760, Note_on_c, 9, 70, 64
4, 158760, Note_on_c, 9, 77, 64
4, 158879, Note_on_c, 9, 70, 0
4, 158879, Note_on_c, 9, 77, 0
4, 158880, Note_on_c, 9, 70, 64
4, 158999, Note_on_c, 9, 70, 0
4, 159000, Note_on_c, 9, 77, 64
4, 159119, Note_on_c, 9, 77, 0
4, 159120, Note_on_c, 9, 70, 64
4, 159120, Note_on_c, 9, 77, 64
4, 159239, Note_on_c, 9, 70, 0
4, 159239, Note_on_c, 9, 77, 0
4, 159240, Note_on_c, 9, 70, 64
4, 159240, Note_on_c, 9, 77, 64
4, 159359, Note_on_c, 9, 70, 0
4, 159359, Note_on_c, 9, 77, 0
4, 159360, Note_on_c, 9, 70, 64
4, 159360, Note_on_c, 9, 77, 64
4, 159599, Note_on_c, 9, 70, 0
4, 159599, Note_on_c, 9, 77, 0
4, 159600, Note_on_c, 9, 70, 64
4, 159600, Note_on_c, 9, 77, 64
4, 159719, Note_on_c, 9, 70, 0
4, 159719, Note_on_c, 9, 77, 0
4, 159720, Note_on_c, 9, 70, 64
4, 159839, Note_on_c, 9, 70, 0
4, 159840, Note_on_c, 9, 70, 64
4, 159840, Note_on_c, 9, 77, 64
4, 160079, Note_on_c, 9, 70, 0
4, 160079, Note_on_c, 9, 77, 0
4, 160080, Note_on_c, 9, 70, 64
4, 160080, Note_on_c, 9, 77, 64
4, 160199, Note_on_c, 9, 70, 0
4, 160199, Note_on_c, 9, 77, 0
4, 160200, Note_on_c, 9, 70, 64
4, 160319, Note_on_c, 9, 70, 0
4, 160320, Note_on_c, 9, 70, 64
4, 160320, Note_on_c, 9, 77, 64
4, 160559, Note_on_c, 9, 70, 0
4, 160559, Note_on_c, 9, 77, 0
4, 160560, Note_on_c, 9, 70, 64
4, 160560, Note_on_c, 9, 77, 64
4, 160679, Note_on_c, 9, 70, 0
4, 160679, Note_on_c, 9, 77, 0
4, 160680, Note_on_c, 9, 70, 64
4, 160680, Note_on_c, 9, 77, 64
4, 160799, Note_on_c, 9, 70, 0
4, 160799, Note_on_c, 9, 77, 0
4, 160800, Note_on_c, 9, 70, 64
4, 160919, Note_on_c, 9, 70, 0
4, 160920, Note_on_c, 9, 77, 64
4, 161039, Note_on_c, 9, 77, 0
4, 161040, Note_on_c, 9, 70, 64
4, 161040, Note_on_c, 9, 77, 64
4, 161159, Note_on_c, 9, 70, 0
4, 161159, Note_on_c, 9, 77, 0
4, 161160, Note_on_c, 9, 70, 64
4, 161279, Note_on_c, 9, 70, 0
4, 161280, Note_on_c, 9, 70, 64
4, 161280, Note_on_c, 9, 77, 64
4, 161519, Note_on_c, 9, 70, 0
4, 161519, Note_on_c, 9, 77, 0
4, 161520, Note_on_c, 9, 70, 64
4, 161520, Note_on_c, 9, 77, 64
4, 161639, Note_on_c, 9, 70, 0
4, 161639, Note_on_c, 9, 77, 0
4, 161640, Note_on_c, 9, 70, 64
4, 161759, Note_on_c, 9, 70, 0
4, 161760, Note_on_c, 9, 70, 64
4, 161760, Note_on_c, 9, 77, 64
4, 161999, Note_on_c, 9, 70, 0
4, 161999, Note_on_c, 9, 77, 0
4, 162000, Note_on_c, 9, 70, 64
4, 162000, Note_on_c, 9, 77, 64
4, 162119, Note_on_c, 9, 70, 0
4, 162119, Note_on_c, 9, 77, 0
4, 162120, Note_on_c, 9, 70, 64
4, 162239, Note_on_c, 9, 70, 0
4, 162240, Note_on_c, 9, 70, 64
4, 162240, Note_on_c, 9, 77, 64
4, 162479, Note_on_c, 9, 70, 0
4, 162479, Note_on_c, 9, 77, 0
4, 162480, Note_on_c, 9, 70, 64
4, 162480, Note_on_c, 9, 77, 64
4, 162599, Note_on_c, 9, 70, 0
4, 162599, Note_on_c, 9, 77, 0
4, 162600, Note_on_c, 9, 70, 64
4, 162600, Note_on_c, 9, 77, 64
4, 162719, Note_on_c, 9, 70, 0
4, 162719, Note_on_c, 9, 77, 0
4, 162720, Note_on_c, 9, 70, 64
4, 162839, Note_on_c, 9, 70, 0
4, 162840, Note_on_c, 9, 77, 64
4, 162959, Note_on_c, 9, 77, 0
4, 162960, Note_on_c, 9, 70, 64
4, 162960, Note_on_c, 9, 77, 64
4, 163079, Note_on_c, 9, 70, 0
4, 163079, Note_on_c, 9, 77, 0
4, 163080, Note_on_c, 9, 70, 64
4, 163080, Note_on_c, 9, 77, 64
4, 163199, Note_on_c, 9, 70, 0
4, 163199, Note_on_c, 9, 77, 0
4, 163200, Note_on_c, 9, 70, 64
4, 163200, Note_on_c, 9, 77, 64
4, 163439, Note_on_c, 9, 70, 0
4, 163439, Note_on_c, 9, 77, 0
4, 163440, Note_on_c, 9, 70, 64
4, 163440, Note_on_c, 9, 77, 64
4, 163559, Note_on_c, 9, 70, 0
4, 163559, Note_on_c, 9, 77, 0
4, 163560, Note_on_c, 9, 70, 64
4, 163679, Note_on_c, 9, 70, 0
4, 163680, Note_on_c, 9, 70, 64
4, 163680, Note_on_c, 9, 77, 64
4, 163919, Note_on_c, 9, 70, 0
4, 163919, Note_on_c, 9, 77, 0
4, 163920, Note_on_c, 9, 70, 64
4, 163920, Note_on_c, 9, 77, 64
4, 164039, Note_on_c, 9, 70, 0
4, 164039, Note_on_c, 9, 77, 0
4, 164040, Note_on_c, 9, 70, 64
4, 164159, Note_on_c, 9, 70, 0
4, 164160, Note_on_c, 9, 70, 64
4, 164160, Note_on_c, 9, 77, 64
4, 164399, Note_on_c, 9, 70, 0
4, 164399, Note_on_c, 9, 77, 0
4, 164400, Note_on_c, 9, 70, 64
4, 164400, Note_on_c, 9, 77, 64
4, 164519, Note_on_c, 9, 70, 0
4, 164519, Note_on_c, 9, 77, 0
4, 164520, Note_on_c, 9, 70, 64
4, 164520, Note_on_c, 9, 77, 64
4, 164639, Note_on_c, 9, 70, 0
4, 164639, Note_on_c, 9, 77, 0
4, 164640, Note_on_c, 9, 70, 64
4, 164759, Note_on_c, 9, 70, 0
4, 164760, Note_on_c, 9, 77, 64
4, 164879, Note_on_c, 9, 77, 0
4, 164880, Note_on_c, 9, 70, 64
4, 164880, Note_on_c, 9, 77, 64
4, 164999, Note_on_c, 9, 70, 0
4, 164999, Note_on_c, 9, 77, 0
4, 165000, Note_on_c, 9, 70, 64
4, 165119, Note_on_c, 9, 70, 0
4, 165120, Note_on_c, 9, 70, 64
4, 165120, Note_on_c, 9, 77, 64
4, 165359, Note_on_c, 9, 70, 0
4, 165359, Note_on_c, 9, 77, 0
4, 165360, Note_on_c, 9, 70, 64
4, 165360, Note_on_c, 9, 77, 64
4, 165479, Note_on_c, 9, 70, 0
4, 165479, Note_on_c, 9, 77, 0
4, 165480, Note_on_c, 9, 70, 64
4, 165599, Note_on_c, 9, 70, 0
4, 165600, Note_on_c, 9, 70, 64
4, 165600, Note_on_c, 9, 77, 64
4, 165839, Note_on_c, 9, 70, 0
4, 165839, Note_on_c, 9, 77, 0
4, 165840, Note_on_c, 9, 70, 64
4, 165840, Note_on_c, 9, 77, 64
4, 165959, Note_on_c, 9, 70, 0
4, 165959, Note_on_c, 9, 77, 0
4, 165960, Note_on_c, 9, 70, 64
4, 166079, Note_on_c, 9, 70, 0
4, 166080, Note_on_c, 9, 70, 64
4, 166080, Note_on_c, 9, 77, 64
4, 166319, Note_on_c, 9, 70, 0
4, 166319, Note_on_c, 9, 77, 0
4, 166320, Note_on_c, 9, 70, 64
4, 166320, Note_on_c, 9, 77, 64
4, 166439, Note_on_c, 9, 70, 0
4, 166439, Note_on_c, 9, 77, 0
4, 166440, Note_on_c, 9, 70, 64
4, 166440, Note_on_c, 9, 77, 64
4, 166559, Note_on_c, 9, 70, 0
4, 166559, Note_on_c, 9, 77, 0
4, 166560, Note_on_c, 9, 70, 64
4, 166679, Note_on_c, 9, 70, 0
4, 166680, Note_on_c, 9, 77, 64
4, 166799, Note_on_c, 9, 77, 0
4, 166800, Note_on_c, 9, 70, 64
4, 166800, Note_on_c, 9, 77, 64
4, 166919, Note_on_c, 9, 70, 0
4, 166919, Note_on_c, 9, 77, 0
4, 166920, Note_on_c, 9, 70, 64
4, 166920, Note_on_c, 9, 77, 64
4, 167039, Note_on_c, 9, 70, 0
4, 167039, Note_on_c, 9, 77, 0
4, 167040, Note_on_c, 9, 70, 64
4, 167040, Note_on_c, 9, 77, 64
4, 167279, Note_on_c, 9, 70, 0
4, 167279, Note_on_c, 9, 77, 0
4, 167280, Note_on_c, 9, 70, 64
4, 167280, Note_on_c, 9, 77, 64
4, 167399, Note_on_c, 9, 70, 0
4, 167399, Note_on_c, 9, 77, 0
4, 167400, Note_on_c, 9, 70, 64
4, 167519, Note_on_c, 9, 70, 0
4, 167520, Note_on_c, 9, 70, 64
4, 167520, Note_on_c, 9, 77, 64
4, 167759, Note_on_c, 9, 70, 0
4, 167759, Note_on_c, 9, 77, 0
4, 167760, Note_on_c, 9, 70, 64
4, 167760, Note_on_c, 9, 77, 64
4, 167879, Note_on_c, 9, 70, 0
4, 167879, Note_on_c, 9, 77, 0
4, 167880, Note_on_c, 9, 70, 64
4, 167999, Note_on_c, 9, 70, 0
4, 168000, Note_on_c, 9, 70, 64
4, 168000, Note_on_c, 9, 77, 64
4, 168239, Note_on_c, 9, 70, 0
4, 168239, Note_on_c, 9, 77, 0
4, 168240, Note_on_c, 9, 70, 64
4, 168240, Note_on_c, 9, 77, 64
4, 168359, Note_on_c, 9, 70, 0
4, 168359, Note_on_c, 9, 77, 0
4, 168360, Note_on_c, 9, 70, 64
4, 168360, Note_on_c, 9, 77, 64
4, 168479, Note_on_c, 9, 70, 0
4, 168479, Note_on_c, 9, 77, 0
4, 168480, Note_on_c, 9, 70, 64
4, 168599, Note_on_c, 9, 70, 0
4, 168600, Note_on_c, 9, 77, 64
4, 168719, Note_on_c, 9, 77, 0
4, 168720, Note_on_c, 9, 70, 64
4, 168720, Note_on_c, 9, 77, 64
4, 168839, Note_on_c, 9, 70, 0
4, 168839, Note_on_c, 9, 77, 0
4, 168840, Note_on_c, 9, 70, 64
4, 168959, Note_on_c, 9, 70, 0
4, 168960, Note_on_c, 9, 70, 64
4, 168960, Note_on_c, 9, 77, 64
4, 169199, Note_on_c, 9, 70, 0
4, 169199, Note_on_c, 9, 77, 0
4, 169200, Note_on_c, 9, 70, 64
4, 169200, Note_on_c, 9, 77, 64
4, 169319, Note_on_c, 9, 70, 0
4, 169319, Note_on_c, 9, 77, 0
4, 169320, Note_on_c, 9, 70, 64
4, 169439, Note_on_c, 9, 70, 0
4, 169440, Note_on_c, 9, 70, 64
4, 169440, Note_on_c, 9, 77, 64
4, 169679, Note_on_c, 9, 70, 0
4, 169679, Note_on_c, 9, 77, 0
4, 169680, Note_on_c, 9, 70, 64
4, 169680, Note_on_c, 9, 77, 64
4, 169799, Note_on_c, 9, 70, 0
4, 169799, Note_on_c, 9, 77, 0
4, 169800, Note_on_c, 9, 70, 64
4, 169919, Note_on_c, 9, 70, 0
4, 169920, Note_on_c, 9, 70, 64
4, 169920, Note_on_c, 9, 77, 64
4, 170159, Note_on_c, 9, 70, 0
4, 170159, Note_on_c, 9, 77, 0
4, 170160, Note_on_c, 9, 70, 64
4, 170160, Note_on_c, 9, 77, 64
4, 170279, Note_on_c, 9, 70, 0
4, 170279, Note_on_c, 9, 77, 0
4, 170280, Note_on_c, 9, 70, 64
4, 170280, Note_on_c, 9, 77, 64
4, 170399, Note_on_c, 9, 70, 0
4, 170399, Note_on_c, 9, 77, 0
4, 170400, Note_on_c, 9, 70, 64
4, 170519, Note_on_c, 9, 70, 0
4, 170520, Note_on_c, 9, 77, 64
4, 170639, Note_on_c, 9, 77, 0
4, 170640, Note_on_c, 9, 70, 64
4, 170640, Note_on_c, 9, 77, 64
4, 170759, Note_on_c, 9, 70, 0
4, 170759, Note_on_c, 9, 77, 0
4, 170760, Note_on_c, 9, 70, 64
4, 170760, Note_on_c, 9, 77, 64
4, 170879, Note_on_c, 9, 70, 0
4, 170879, Note_on_c, 9, 77, 0
4, 170880, Note_on_c, 9, 70, 64
4, 170880, Note_on_c, 9, 77, 64
4, 171119, Note_on_c, 9, 70, 0
4, 171119, Note_on_c, 9, 77, 0
4, 171120, Note_on_c, 9, 70, 64
4, 171120, Note_on_c, 9, 77, 64
4, 171239, Note_on_c, 9, 70, 0
4, 171239, Note_on_c, 9, 77, 0
4, 171240, Note_on_c, 9, 70, 64
4, 171359, Note_on_c, 9, 70, 0
4, 171360, Note_on_c, 9, 70, 64
4, 171360, Note_on_c, 9, 77, 64
4, 171599, Note_on_c, 9, 70, 0
4, 171599, Note_on_c, 9, 77, 0
4, 171600, Note_on_c, 9, 70, 64
4, 171600, Note_on_c, 9, 77, 64
4, 171719, Note_on_c, 9, 70, 0
4, 171719, Note_on_c, 9, 77, 0
4, 171720, Note_on_c, 9, 70, 64
4, 171839, Note_on_c, 9, 70, 0
4, 171840, Note_on_c, 9, 70, 64
4, 171840, Note_on_c, 9, 77, 64
4, 172079, Note_on_c, 9, 70, 0
4, 172079, Note_on_c, 9, 77, 0
4, 172080, Note_on_c, 9, 70, 64
4, 172080, Note_on_c, 9, 77, 64
4, 172199, Note_on_c, 9, 70, 0
4, 172199, Note_on_c, 9, 77, 0
4, 172200, Note_on_c, 9, 70, 64
4, 172200, Note_on_c, 9, 77, 64
4, 172319, Note_on_c, 9, 70, 0
4, 172319, Note_on_c, 9, 77, 0
4, 172320, Note_on_c, 9, 70, 64
4, 172439, Note_on_c, 9, 70, 0
4, 172440, Note_on_c, 9, 77, 64
4, 172559, Note_on_c, 9, 77, 0
4, 172560, Note_on_c, 9, 70, 64
4, 172560, Note_on_c, 9, 77, 64
4, 172679, Note_on_c, 9, 70, 0
4, 172679, Note_on_c, 9, 77, 0
4, 172680, Note_on_c, 9, 70, 64
4, 172799, Note_on_c, 9, 70, 0
4, 172800, Note_on_c, 9, 70, 64
4, 172800, Note_on_c, 9, 77, 64
4, 173039, Note_on_c, 9, 70, 0
4, 173039, Note_on_c, 9, 77, 0
4, 173040, Note_on_c, 9, 70, 64
4, 173040, Note_on_c, 9, 77, 64
4, 173159, Note_on_c, 9, 70, 0
4, 173159, Note_on_c, 9, 77, 0
4, 173160, Note_on_c, 9, 70, 64
4, 173279, Note_on_c, 9, 70, 0
4, 173280, Note_on_c, 9, 70, 64
4, 173280, Note_on_c, 9, 77, 64
4, 173519, Note_on_c, 9, 70, 0
4, 173519, Note_on_c, 9, 77, 0
4, 173520, Note_on_c, 9, 70, 64
4, 173520, Note_on_c, 9, 77, 64
4, 173639, Note_on_c, 9, 70, 0
4, 173639, Note_on_c, 9, 77, 0
4, 173640, Note_on_c, 9, 70, 64
4, 173759, Note_on_c, 9, 70, 0
4, 173760, Note_on_c, 9, 70, 64
4, 173760, Note_on_c, 9, 77, 64
4, 173999, Note_on_c, 9, 70, 0
4, 173999, Note_on_c, 9, 77, 0
4, 174000, Note_on_c, 9, 70, 64
4, 174000, Note_on_c, 9, 77, 64
4, 174119, Note_on_c, 9, 70, 0
4, 174119, Note_on_c, 9, 77, 0
4, 174120, Note_on_c, 9, 70, 64
4, 174120, Note_on_c, 9, 77, 64
4, 174239, Note_on_c, 9, 70, 0
4, 174239, Note_on_c, 9, 77, 0
4, 174240, Note_on_c, 9, 70, 64
4, 174359, Note_on_c, 9, 70, 0
4, 174360, Note_on_c, 9, 77, 64
4, 174479, Note_on_c, 9, 77, 0
4, 174480, Note_on_c, 9, 70, 64
4, 174480, Note_on_c, 9, 77, 64
4, 174599, Note_on_c, 9, 70, 0
4, 174599, Note_on_c, 9, 77, 0
4, 174600, Note_on_c, 9, 70, 64
4, 174600, Note_on_c, 9, 77, 64
4, 174719, Note_on_c, 9, 70, 0
4, 174719, Note_on_c, 9, 77, 0
4, 174720, Note_on_c, 9, 70, 64
4, 174720, Note_on_c, 9, 77, 64
4, 174959, Note_on_c, 9, 70, 0
4, 174959, Note_on_c, 9, 77, 0
4, 174960, Note_on_c, 9, 70, 64
4, 174960, Note_on_c, 9, 77, 64
4, 175079, Note_on_c, 9, 70, 0
4, 175079, Note_on_c, 9, 77, 0
4, 175080, Note_on_c, 9, 70, 64
4, 175199, Note_on_c, 9, 70, 0
4, 175200, Note_on_c, 9, 70, 64
4, 175200, Note_on_c, 9, 77, 64
4, 175439, Note_on_c, 9, 70, 0
4, 175439, Note_on_c, 9, 77, 0
4, 175440, Note_on_c, 9, 70, 64
4, 175440, Note_on_c, 9, 77, 64
4, 175559, Note_on_c, 9, 70, 0
4, 175559, Note_on_c, 9, 77, 0
4, 175560, Note_on_c, 9, 70, 64
4, 175679, Note_on_c, 9, 70, 0
4, 175680, Note_on_c, 9, 70, 64
4, 175680, Note_on_c, 9, 77, 64
4, 175919, Note_on_c, 9, 70, 0
4, 175919, Note_on_c, 9, 77, 0
4, 175920, Note_on_c, 9, 70, 64
4, 175920, Note_on_c, 9, 77, 64
4, 176039, Note_on_c, 9, 70, 0
4, 176039, Note_on_c, 9, 77, 0
4, 176040, Note_on_c, 9, 70, 64
4, 176040, Note_on_c, 9, 77, 64
4, 176159, Note_on_c, 9, 70, 0
4, 176159, Note_on_c, 9, 77, 0
4, 176160, Note_on_c, 9, 70, 64
4, 176279, Note_on_c, 9, 70, 0
4, 176280, Note_on_c, 9, 77, 64
4, 176399, Note_on_c, 9, 77, 0
4, 176400, Note_on_c, 9, 70, 64
4, 176400, Note_on_c, 9, 77, 64
4, 176519, Note_on_c, 9, 70, 0
4, 176519, Note_on_c, 9, 77, 0
4, 176520, Note_on_c, 9, 70, 64
4, 176639, Note_on_c, 9, 70, 0
4, 176640, Note_on_c, 9, 70, 64
4, 176640, Note_on_c, 9, 77, 64
4, 176879, Note_on_c, 9, 70, 0
4, 176879, Note_on_c, 9, 77, 0
4, 176880, Note_on_c, 9, 70, 64
4, 176880, Note_on_c, 9, 77, 64
4, 176999, Note_on_c, 9, 70, 0
4, 176999, Note_on_c, 9, 77, 0
4, 177000, Note_on_c, 9, 70, 64
4, 177119, Note_on_c, 9, 70, 0
4, 177120, Note_on_c, 9, 70, 64
4, 177120, Note_on_c, 9, 77, 64
4, 177359, Note_on_c, 9, 70, 0
4, 177359, Note_on_c, 9, 77, 0
4, 177360, Note_on_c, 9, 70, 64
4, 177360, Note_on_c, 9, 77, 64
4, 177479, Note_on_c, 9, 70, 0
4, 177479, Note_on_c, 9, 77, 0
4, 177480, Note_on_c, 9, 70, 64
4, 177599, Note_on_c, 9, 70, 0
4, 177600, Note_on_c, 9, 70, 64
4, 177600, Note_on_c, 9, 77, 64
4, 177839, Note_on_c, 9, 70, 0
4, 177839, Note_on_c, 9, 77, 0
4, 177840, Note_on_c, 9, 70, 64
4, 177840, Note_on_c, 9, 77, 64
4, 177959, Note_on_c, 9, 70, 0
4, 177959, Note_on_c, 9, 77, 0
4, 177960, Note_on_c, 9, 70, 64
4, 177960, Note_on_c, 9, 77, 64
4, 178079, Note_on_c, 9, 70, 0
4, 178079, Note_on_c, 9, 77, 0
4, 178080, Note_on_c, 9, 70, 64
4, 178199, Note_on_c, 9, 70, 0
4, 178200, Note_on_c, 9, 77, 64
4, 178319, Note_on_c, 9, 77, 0
4, 178320, Note_on_c, 9, 70, 64
4, 178320, Note_on_c, 9, 77, 64
4, 178439, Note_on_c, 9, 70, 0
4, 178439, Note_on_c, 9, 77, 0
4, 178440, Note_on_c, 9, 70, 64
4, 178440, Note_on_c, 9, 77, 64
4, 178559, Note_on_c, 9, 70, 0
4, 178559, Note_on_c, 9, 77, 0
4, 182640, Note_on_c, 9, 62, 64
4, 182879, Note_on_c, 9, 62, 0
4, 182880, Note_on_c, 9, 62, 64
4, 183119, Note_on_c, 9, 62, 0
4, 183120, Note_on_c, 9, 62, 64
4, 183359, Note_on_c, 9, 62, 0
4, 183360, Note_on_c, 9, 62, 64
4, 183599, Note_on_c, 9, 62, 0
4, 183600, Note_on_c, 9, 62, 64
4, 183719, Note_on_c, 9, 62, 0
4, 183720, Note_on_c, 9, 62, 64
4, 183839, Note_on_c, 9, 62, 0
4, 183960, Note_on_c, 9, 62, 64
4, 184079, Note_on_c, 9, 62, 0
4, 184080, Note_on_c, 9, 62, 64
4, 184319, Note_on_c, 9, 62, 0
4, 184560, Note_on_c, 9, 62, 64
4, 184799, Note_on_c, 9, 62, 0
4, 184800, Note_on_c, 9, 62, 64
4, 185039, Note_on_c, 9, 62, 0
4, 185040, Note_on_c, 9, 62, 64
4, 185279, Note_on_c, 9, 62, 0
4, 185280, Note_on_c, 9, 62, 64
4, 185519, Note_on_c, 9, 62, 0
4, 185520, Note_on_c, 9, 62, 64
4, 185639, Note_on_c, 9, 62, 0
4, 185640, Note_on_c, 9, 62, 64
4, 185759, Note_on_c, 9, 62, 0
4, 185880, Note_on_c, 9, 62, 64
4, 185999, Note_on_c, 9, 62, 0
4, 186000, Note_on_c, 9, 62, 64
4, 186119, Note_on_c, 9, 62, 0
4, 186120, Note_on_c, 9, 62, 64
4, 186239, Note_on_c, 9, 62, 0
4, 186240, Note_on_c, 9, 70, 64
4, 186240, Note_on_c, 9, 77, 64
4, 186479, Note_on_c, 9, 70, 0
4, 186479, Note_on_c, 9, 77, 0
4, 186480, Note_on_c, 9, 70, 64
4, 186480, Note_on_c, 9, 77, 64
4, 186599, Note_on_c, 9, 70, 0
4, 186599, Note_on_c, 9, 77, 0
4, 186600, Note_on_c, 9, 70, 64
4, 186719, Note_on_c, 9, 70, 0
4, 186720, Note_on_c, 9, 70, 64
4, 186720, Note_on_c, 9, 77, 64
4, 186959, Note_on_c, 9, 70, 0
4, 186959, Note_on_c, 9, 77, 0
4, 186960, Note_on_c, 9, 70, 64
4, 186960, Note_on_c, 9, 77, 64
4, 187079, Note_on_c, 9, 70, 0
4, 187079, Note_on_c, 9, 77, 0
4, 187080, Note_on_c, 9, 70, 64
4, 187199, Note_on_c, 9, 70, 0
4, 187200, Note_on_c, 9, 70, 64
4, 187200, Note_on_c, 9, 77, 64
4, 187439, Note_on_c, 9, 70, 0
4, 187439, Note_on_c, 9, 77, 0
4, 187440, Note_on_c, 9, 70, 64
4, 187440, Note_on_c, 9, 77, 64
4, 187559, Note_on_c, 9, 70, 0
4, 187559, Note_on_c, 9, 77, 0
4, 187560, Note_on_c, 9, 70, 64
4, 187560, Note_on_c, 9, 77, 64
4, 187679, Note_on_c, 9, 70, 0
4, 187679, Note_on_c, 9, 77, 0
4, 187680, Note_on_c, 9, 70, 64
4, 187799, Note_on_c, 9, 70, 0
4, 187800, Note_on_c, 9, 77, 64
4, 187919, Note_on_c, 9, 77, 0
4, 187920, Note_on_c, 9, 70, 64
4, 187920, Note_on_c, 9, 77, 64
4, 188039, Note_on_c, 9, 70, 0
4, 188039, Note_on_c, 9, 77, 0
4, 188040, Note_on_c, 9, 70, 64
4, 188159, Note_on_c, 9, 70, 0
4, 188160, Note_on_c, 9, 70, 64
4, 188160, Note_on_c, 9, 77, 64
4, 188399, Note_on_c, 9, 70, 0
4, 188399, Note_on_c, 9, 77, 0
4, 188400, Note_on_c, 9, 70, 64
4, 188400, Note_on_c, 9, 77, 64
4, 188519, Note_on_c, 9, 70, 0
4, 188519, Note_on_c, 9, 77, 0
4, 188520, Note_on_c, 9, 70, 64
4, 188639, Note_on_c, 9, 70, 0
4, 188640, Note_on_c, 9, 70, 64
4, 188640, Note_on_c, 9, 77, 64
4, 188879, Note_on_c, 9, 70, 0
4, 188879, Note_on_c, 9, 77, 0
4, 188880, Note_on_c, 9, 70, 64
4, 188880, Note_on_c, 9, 77, 64
4, 188999, Note_on_c, 9, 70, 0
4, 188999, Note_on_c, 9, 77, 0
4, 189000, Note_on_c, 9, 70, 64
4, 189119, Note_on_c, 9, 70, 0
4, 189120, Note_on_c, 9, 70, 64
4, 189120, Note_on_c, 9, 77, 64
4, 189359, Note_on_c, 9, 70, 0
4, 189359, Note_on_c, 9, 77, 0
4, 189360, Note_on_c, 9, 70, 64
4, 189360, Note_on_c, 9, 77, 64
4, 189479, Note_on_c, 9, 70, 0
4, 189479, Note_on_c, 9, 77, 0
4, 189480, Note_on_c, 9, 70, 64
4, 189480, Note_on_c, 9, 77, 64
4, 189599, Note_on_c, 9, 70, 0
4, 189599, Note_on_c, 9, 77, 0
4, 189600, Note_on_c, 9, 70, 64
4, 189719, Note_on_c, 9, 70, 0
4, 189720, Note_on_c, 9, 77, 64
4, 189839, Note_on_c, 9, 77, 0
4, 189840, Note_on_c, 9, 70, 64
4, 189840, Note_on_c, 9, 77, 64
4, 189959, Note_on_c, 9, 70, 0
4, 189959, Note_on_c, 9, 77, 0
4, 189960, Note_on_c, 9, 70, 64
4, 189960, Note_on_c, 9, 77, 64
4, 190079, Note_on_c, 9, 70, 0
4, 190079, Note_on_c, 9, 77, 0
4, 190080, Note_on_c, 9, 70, 64
4, 190080, Note_on_c, 9, 77, 64
4, 190319, Note_on_c, 9, 70, 0
4, 190319, Note_on_c, 9, 77, 0
4, 190320, Note_on_c, 9, 70, 64
4, 190320, Note_on_c, 9, 77, 64
4, 190439, Note_on_c, 9, 70, 0
4, 190439, Note_on_c, 9, 77, 0
4, 190440, Note_on_c, 9, 70, 64
4, 190559, Note_on_c, 9, 70, 0
4, 190560, Note_on_c, 9, 70, 64
4, 190560, Note_on_c, 9, 77, 64
4, 190799, Note_on_c, 9, 70, 0
4, 190799, Note_on_c, 9, 77, 0
4, 190800, Note_on_c, 9, 70, 64
4, 190800, Note_on_c, 9, 77, 64
4, 190919, Note_on_c, 9, 70, 0
4, 190919, Note_on_c, 9, 77, 0
4, 190920, Note_on_c, 9, 70, 64
4, 191039, Note_on_c, 9, 70, 0
4, 191040, Note_on_c, 9, 70, 64
4, 191040, Note_on_c, 9, 77, 64
4, 191279, Note_on_c, 9, 70, 0
4, 191279, Note_on_c, 9, 77, 0
4, 191280, Note_on_c, 9, 70, 64
4, 191280, Note_on_c, 9, 77, 64
4, 191399, Note_on_c, 9, 70, 0
4, 191399, Note_on_c, 9, 77, 0
4, 191400, Note_on_c, 9, 70, 64
4, 191400, Note_on_c, 9, 77, 64
4, 191519, Note_on_c, 9, 70, 0
4, 191519, Note_on_c, 9, 77, 0
4, 191520, Note_on_c, 9, 70, 64
4, 191639, Note_on_c, 9, 70, 0
4, 191640, Note_on_c, 9, 77, 64
4, 191759, Note_on_c, 9, 77, 0
4, 191760, Note_on_c, 9, 70, 64
4, 191760, Note_on_c, 9, 77, 64
4, 191879, Note_on_c, 9, 70, 0
4, 191879, Note_on_c, 9, 77, 0
4, 191880, Note_on_c, 9, 70, 64
4, 191999, Note_on_c, 9, 70, 0
4, 192000, Note_on_c, 9, 70, 64
4, 192000, Note_on_c, 9, 77, 64
4, 192239, Note_on_c, 9, 70, 0
4, 192239, Note_on_c, 9, 77, 0
4, 192240, Note_on_c, 9, 70, 64
4, 192240, Note_on_c, 9, 77, 64
4, 192359, Note_on_c, 9, 70, 0
4, 192359, Note_on_c, 9, 77, 0
4, 192360, Note_on_c, 9, 70, 64
4, 192479, Note_on_c, 9, 70, 0
4, 192480, Note_on_c, 9, 70, 64
4, 192480, Note_on_c, 9, 77, 64
4, 192719, Note_on_c, 9, 70, 0
4, 192719, Note_on_c, 9, 77, 0
4, 192720, Note_on_c, 9, 70, 64
4, 192720, Note_on_c, 9, 77, 64
4, 192839, Note_on_c, 9, 70, 0
4, 192839, Note_on_c, 9, 77, 0
4, 192840, Note_on_c, 9, 70, 64
4, 192959, Note_on_c, 9, 70, 0
4, 192960, Note_on_c, 9, 70, 64
4, 192960, Note_on_c, 9, 77, 64
4, 193199, Note_on_c, 9, 70, 0
4, 193199, Note_on_c, 9, 77, 0
4, 193200, Note_on_c, 9, 70, 64
4, 193200, Note_on_c, 9, 77, 64
4, 193319, Note_on_c, 9, 70, 0
4, 193319, Note_on_c, 9, 77, 0
4, 193320, Note_on_c, 9, 70, 64
4, 193320, Note_on_c, 9, 77, 64
4, 193439, Note_on_c, 9, 70, 0
4, 193439, Note_on_c, 9, 77, 0
4, 193440, Note_on_c, 9, 70, 64
4, 193559, Note_on_c, 9, 70, 0
4, 193560, Note_on_c, 9, 77, 64
4, 193679, Note_on_c, 9, 77, 0
4, 193680, Note_on_c, 9, 70, 64
4, 193680, Note_on_c, 9, 77, 64
4, 193799, Note_on_c, 9, 70, 0
4, 193799, Note_on_c, 9, 77, 0
4, 193800, Note_on_c, 9, 70, 64
4, 193800, Note_on_c, 9, 77, 64
4, 193919, Note_on_c, 9, 70, 0
4, 193919, Note_on_c, 9, 77, 0
4, 193920, Note_on_c, 9, 70, 64
4, 193920, Note_on_c, 9, 77, 64
4, 194159, Note_on_c, 9, 70, 0
4, 194159, Note_on_c, 9, 77, 0
4, 194160, Note_on_c, 9, 70, 64
4, 194160, Note_on_c, 9, 77, 64
4, 194279, Note_on_c, 9, 70, 0
4, 194279, Note_on_c, 9, 77, 0
4, 194280, Note_on_c, 9, 70, 64
4, 194399, Note_on_c, 9, 70, 0
4, 194400, Note_on_c, 9, 70, 64
4, 194400, Note_on_c, 9, 77, 64
4, 194639, Note_on_c, 9, 70, 0
4, 194639, Note_on_c, 9, 77, 0
4, 194640, Note_on_c, 9, 70, 64
4, 194640, Note_on_c, 9, 77, 64
4, 194759, Note_on_c, 9, 70, 0
4, 194759, Note_on_c, 9, 77, 0
4, 194760, Note_on_c, 9, 70, 64
4, 194879, Note_on_c, 9, 70, 0
4, 194880, Note_on_c, 9, 70, 64
4, 194880, Note_on_c, 9, 77, 64
4, 195119, Note_on_c, 9, 70, 0
4, 195119, Note_on_c, 9, 77, 0
4, 195120, Note_on_c, 9, 70, 64
4, 195120, Note_on_c, 9, 77, 64
4, 195239, Note_on_c, 9, 70, 0
4, 195239, Note_on_c, 9, 77, 0
4, 195240, Note_on_c, 9, 70, 64
4, 195240, Note_on_c, 9, 77, 64
4, 195359, Note_on_c, 9, 70, 0
4, 195359, Note_on_c, 9, 77, 0
4, 195360, Note_on_c, 9, 70, 64
4, 195479, Note_on_c, 9, 70, 0
4, 195480, Note_on_c, 9, 77, 64
4, 195599, Note_on_c, 9, 77, 0
4, 195600, Note_on_c, 9, 70, 64
4, 195600, Note_on_c, 9, 77, 64
4, 195719, Note_on_c, 9, 70, 0
4, 195719, Note_on_c, 9, 77, 0
4, 195720, Note_on_c, 9, 70, 64
4, 195839, Note_on_c, 9, 70, 0
4, 195840, Note_on_c, 9, 70, 64
4, 195840, Note_on_c, 9, 77, 64
4, 196079, Note_on_c, 9, 70, 0
4, 196079, Note_on_c, 9, 77, 0
4, 196080, Note_on_c, 9, 70, 64
4, 196080, Note_on_c, 9, 77, 64
4, 196199, Note_on_c, 9, 70, 0
4, 196199, Note_on_c, 9, 77, 0
4, 196200, Note_on_c, 9, 70, 64
4, 196319, Note_on_c, 9, 70, 0
4, 196320, Note_on_c, 9, 70, 64
4, 196320, Note_on_c, 9, 77, 64
4, 196559, Note_on_c, 9, 70, 0
4, 196559, Note_on_c, 9, 77, 0
4, 196560, Note_on_c, 9, 70, 64
4, 196560, Note_on_c, 9, 77, 64
4, 196679, Note_on_c, 9, 70, 0
4, 196679, Note_on_c, 9, 77, 0
4, 196680, Note_on_c, 9, 70, 64
4, 196799, Note_on_c, 9, 70, 0
4, 196800, Note_on_c, 9, 70, 64
4, 196800, Note_on_c, 9, 77, 64
4, 197039, Note_on_c, 9, 70, 0
4, 197039, Note_on_c, 9, 77, 0
4, 197040, Note_on_c, 9, 70, 64
4, 197040, Note_on_c, 9, 77, 64
4, 197159, Note_on_c, 9, 70, 0
4, 197159, Note_on_c, 9, 77, 0
4, 197160, Note_on_c, 9, 70, 64
4, 197160, Note_on_c, 9, 77, 64
4, 197279, Note_on_c, 9, 70, 0
4, 197279, Note_on_c, 9, 77, 0
4, 197280, Note_on_c, 9, 70, 64
4, 197399, Note_on_c, 9, 70, 0
4, 197400, Note_on_c, 9, 77, 64
4, 197519, Note_on_c, 9, 77, 0
4, 197520, Note_on_c, 9, 70, 64
4, 197520, Note_on_c, 9, 77, 64
4, 197639, Note_on_c, 9, 70, 0
4, 197639, Note_on_c, 9, 77, 0
4, 197640, Note_on_c, 9, 70, 64
4, 197640, Note_on_c, 9, 77, 64
4, 197759, Note_on_c, 9, 70, 0
4, 197759, Note_on_c, 9, 77, 0
4, 197760, Note_on_c, 9, 70, 64
4, 197760, Note_on_c, 9, 77, 64
4, 197999, Note_on_c, 9, 70, 0
4, 197999, Note_on_c, 9, 77, 0
4, 198000, Note_on_c, 9, 70, 64
4, 198000, Note_on_c, 9, 77, 64
4, 198119, Note_on_c, 9, 70, 0
4, 198119, Note_on_c, 9, 77, 0
4, 198120, Note_on_c, 9, 70, 64
4, 198239, Note_on_c, 9, 70, 0
4, 198240, Note_on_c, 9, 70, 64
4, 198240, Note_on_c, 9, 77, 64
4, 198479, Note_on_c, 9, 70, 0
4, 198479, Note_on_c, 9, 77, 0
4, 198480, Note_on_c, 9, 70, 64
4, 198480, Note_on_c, 9, 77, 64
4, 198599, Note_on_c, 9, 70, 0
4, 198599, Note_on_c, 9, 77, 0
4, 198600, Note_on_c, 9, 70, 64
4, 198719, Note_on_c, 9, 70, 0
4, 198720, Note_on_c, 9, 70, 64
4, 198720, Note_on_c, 9, 77, 64
4, 198959, Note_on_c, 9, 70, 0
4, 198959, Note_on_c, 9, 77, 0
4, 198960, Note_on_c, 9, 70, 64
4, 198960, Note_on_c, 9, 77, 64
4, 199079, Note_on_c, 9, 70, 0
4, 199079, Note_on_c, 9, 77, 0
4, 199080, Note_on_c, 9, 70, 64
4, 199080, Note_on_c, 9, 77, 64
4, 199199, Note_on_c, 9, 70, 0
4, 199199, Note_on_c, 9, 77, 0
4, 199200, Note_on_c, 9, 70, 64
4, 199319, Note_on_c, 9, 70, 0
4, 199320, Note_on_c, 9, 77, 64
4, 199439, Note_on_c, 9, 77, 0
4, 199440, Note_on_c, 9, 70, 64
4, 199440, Note_on_c, 9, 77, 64
4, 199559, Note_on_c, 9, 70, 0
4, 199559, Note_on_c, 9, 77, 0
4, 199560, Note_on_c, 9, 70, 64
4, 199679, Note_on_c, 9, 70, 0
4, 199680, Note_on_c, 9, 70, 64
4, 199680, Note_on_c, 9, 77, 64
4, 199919, Note_on_c, 9, 70, 0
4, 199919, Note_on_c, 9, 77, 0
4, 199920, Note_on_c, 9, 70, 64
4, 199920, Note_on_c, 9, 77, 64
4, 200039, Note_on_c, 9, 70, 0
4, 200039, Note_on_c, 9, 77, 0
4, 200040, Note_on_c, 9, 70, 64
4, 200159, Note_on_c, 9, 70, 0
4, 200160, Note_on_c, 9, 70, 64
4, 200160, Note_on_c, 9, 77, 64
4, 200399, Note_on_c, 9, 70, 0
4, 200399, Note_on_c, 9, 77, 0
4, 200400, Note_on_c, 9, 70, 64
4, 200400, Note_on_c, 9, 77, 64
4, 200519, Note_on_c, 9, 70, 0
4, 200519, Note_on_c, 9, 77, 0
4, 200520, Note_on_c, 9, 70, 64
4, 200639, Note_on_c, 9, 70, 0
4, 200640, Note_on_c, 9, 70, 64
4, 200640, Note_on_c, 9, 77, 64
4, 200879, Note_on_c, 9, 70, 0
4, 200879, Note_on_c, 9, 77, 0
4, 200880, Note_on_c, 9, 70, 64
4, 200880, Note_on_c, 9, 77, 64
4, 200999, Note_on_c, 9, 70, 0
4, 200999, Note_on_c, 9, 77, 0
4, 201000, Note_on_c, 9, 70, 64
4, 201000, Note_on_c, 9, 77, 64
4, 201119, Note_on_c, 9, 70, 0
4, 201119, Note_on_c, 9, 77, 0
4, 201120, Note_on_c, 9, 70, 64
4, 201239, Note_on_c, 9, 70, 0
4, 201240, Note_on_c, 9, 77, 64
4, 201359, Note_on_c, 9, 77, 0
4, 201360, Note_on_c, 9, 70, 64
4, 201360, Note_on_c, 9, 77, 64
4, 201479, Note_on_c, 9, 70, 0
4, 201479, Note_on_c, 9, 77, 0
4, 201480, Note_on_c, 9, 70, 64
4, 201480, Note_on_c, 9, 77, 64
4, 201599, Note_on_c, 9, 70, 0
4, 201599, Note_on_c, 9, 77, 0
4, 201600, Note_on_c, 9, 70, 64
4, 201600, Note_on_c, 9, 77, 64
4, 201839, Note_on_c, 9, 70, 0
4, 201839, Note_on_c, 9, 77, 0
4, 201840, Note_on_c, 9, 70, 64
4, 201840, Note_on_c, 9, 77, 64
4, 201959, Note_on_c, 9, 70, 0
4, 201959, Note_on_c, 9, 77, 0
4, 201960, Note_on_c, 9, 70, 64
4, 202079, Note_on_c, 9, 70, 0
4, 202080, Note_on_c, 9, 70, 64
4, 202080, Note_on_c, 9, 77, 64
4, 202319, Note_on_c, 9, 70, 0
4, 202319, Note_on_c, 9, 77, 0
4, 202320, Note_on_c, 9, 70, 64
4, 202320, Note_on_c, 9, 77, 64
4, 202439, Note_on_c, 9, 70, 0
4, 202439, Note_on_c, 9, 77, 0
4, 202440, Note_on_c, 9, 70, 64
4, 202559, Note_on_c, 9, 70, 0
4, 202560, Note_on_c, 9, 70, 64
4, 202560, Note_on_c, 9, 77, 64
4, 202799, Note_on_c, 9, 70, 0
4, 202799, Note_on_c, 9, 77, 0
4, 202800, Note_on_c, 9, 70, 64
4, 202800, Note_on_c, 9, 77, 64
4, 202919, Note_on_c, 9, 70, 0
4, 202919, Note_on_c, 9, 77, 0
4, 202920, Note_on_c, 9, 70, 64
4, 202920, Note_on_c, 9, 77, 64
4, 203039, Note_on_c, 9, 70, 0
4, 203039, Note_on_c, 9, 77, 0
4, 203040, Note_on_c, 9, 70, 64
4, 203159, Note_on_c, 9, 70, 0
4, 203160, Note_on_c, 9, 77, 64
4, 203279, Note_on_c, 9, 77, 0
4, 203280, Note_on_c, 9, 70, 64
4, 203280, Note_on_c, 9, 77, 64
4, 203399, Note_on_c, 9, 70, 0
4, 203399, Note_on_c, 9, 77, 0
4, 203400, Note_on_c, 9, 70, 64
4, 203519, Note_on_c, 9, 70, 0
4, 203520, Note_on_c, 9, 70, 64
4, 203520, Note_on_c, 9, 77, 64
4, 203759, Note_on_c, 9, 70, 0
4, 203759, Note_on_c, 9, 77, 0
4, 203760, Note_on_c, 9, 70, 64
4, 203760, Note_on_c, 9, 77, 64
4, 203879, Note_on_c, 9, 70, 0
4, 203879, Note_on_c, 9, 77, 0
4, 203880, Note_on_c, 9, 70, 64
4, 203999, Note_on_c, 9, 70, 0
4, 204000, Note_on_c, 9, 70, 64
4, 204000, Note_on_c, 9, 77, 64
4, 204239, Note_on_c, 9, 70, 0
4, 204239, Note_on_c, 9, 77, 0
4, 204240, Note_on_c, 9, 70, 64
4, 204240, Note_on_c, 9, 77, 64
4, 204359, Note_on_c, 9, 70, 0
4, 204359, Note_on_c, 9, 77, 0
4, 204360, Note_on_c, 9, 70, 64
4, 204479, Note_on_c, 9, 70, 0
4, 204480, Note_on_c, 9, 70, 64
4, 204480, Note_on_c, 9, 77, 64
4, 204719, Note_on_c, 9, 70, 0
4, 204719, Note_on_c, 9, 77, 0
4, 204720, Note_on_c, 9, 70, 64
4, 204720, Note_on_c, 9, 77, 64
4, 204839, Note_on_c, 9, 70, 0
4, 204839, Note_on_c, 9, 77, 0
4, 204840, Note_on_c, 9, 70, 64
4, 204840, Note_on_c, 9, 77, 64
4, 204959, Note_on_c, 9, 70, 0
4, 204959, Note_on_c, 9, 77, 0
4, 204960, Note_on_c, 9, 70, 64
4, 205079, Note_on_c, 9, 70, 0
4, 205080, Note_on_c, 9, 77, 64
4, 205199, Note_on_c, 9, 77, 0
4, 205200, Note_on_c, 9, 70, 64
4, 205200, Note_on_c, 9, 77, 64
4, 205319, Note_on_c, 9, 70, 0
4, 205319, Note_on_c, 9, 77, 0
4, 205320, Note_on_c, 9, 70, 64
4, 205320, Note_on_c, 9, 77, 64
4, 205439, Note_on_c, 9, 70, 0
4, 205439, Note_on_c, 9, 77, 0
4, 205440, Note_on_c, 9, 70, 64
4, 205440, Note_on_c, 9, 77, 64
4, 205679, Note_on_c, 9, 70, 0
4, 205679, Note_on_c, 9, 77, 0
4, 205680, Note_on_c, 9, 70, 64
4, 205680, Note_on_c, 9, 77, 64
4, 205799, Note_on_c, 9, 70, 0
4, 205799, Note_on_c, 9, 77, 0
4, 205800, Note_on_c, 9, 70, 64
4, 205919, Note_on_c, 9, 70, 0
4, 205920, Note_on_c, 9, 70, 64
4, 205920, Note_on_c, 9, 77, 64
4, 206159, Note_on_c, 9, 70, 0
4, 206159, Note_on_c, 9, 77, 0
4, 206160, Note_on_c, 9, 70, 64
4, 206160, Note_on_c, 9, 77, 64
4, 206279, Note_on_c, 9, 70, 0
4, 206279, Note_on_c, 9, 77, 0
4, 206280, Note_on_c, 9, 70, 64
4, 206399, Note_on_c, 9, 70, 0
4, 206400, Note_on_c, 9, 70, 64
4, 206400, Note_on_c, 9, 77, 64
4, 206639, Note_on_c, 9, 70, 0
4, 206639, Note_on_c, 9, 77, 0
4, 206640, Note_on_c, 9, 70, 64
4, 206640, Note_on_c, 9, 77, 64
4, 206759, Note_on_c, 9, 70, 0
4, 206759, Note_on_c, 9, 77, 0
4, 206760, Note_on_c, 9, 70, 64
4, 206760, Note_on_c, 9, 77, 64
4, 206879, Note_on_c, 9, 70, 0
4, 206879, Note_on_c, 9, 77, 0
4, 206880, Note_on_c, 9, 70, 64
4, 206999, Note_on_c, 9, 70, 0
4, 207000, Note_on_c, 9, 77, 64
4, 207119, Note_on_c, 9, 77, 0
4, 207120, Note_on_c, 9, 70, 64
4, 207120, Note_on_c, 9, 77, 64
4, 207239, Note_on_c, 9, 70, 0
4, 207239, Note_on_c, 9, 77, 0
4, 207240, Note_on_c, 9, 70, 64
4, 207359, Note_on_c, 9, 70, 0
4, 207360, Note_on_c, 9, 70, 64
4, 207360, Note_on_c, 9, 77, 64
4, 207599, Note_on_c, 9, 70, 0
4, 207599, Note_on_c, 9, 77, 0
4, 207600, Note_on_c, 9, 70, 64
4, 207600, Note_on_c, 9, 77, 64
4, 207719, Note_on_c, 9, 70, 0
4, 207719, Note_on_c, 9, 77, 0
4, 207720, Note_on_c, 9, 70, 64
4, 207839, Note_on_c, 9, 70, 0
4, 207840, Note_on_c, 9, 70, 64
4, 207840, Note_on_c, 9, 77, 64
4, 208079, Note_on_c, 9, 70, 0
4, 208079, Note_on_c, 9, 77, 0
4, 208080, Note_on_c, 9, 70, 64
4, 208080, Note_on_c, 9, 77, 64
4, 208199, Note_on_c, 9, 70, 0
4, 208199, Note_on_c, 9, 77, 0
4, 208200, Note_on_c, 9, 70, 64
4, 208319, Note_on_c, 9, 70, 0
4, 208320, Note_on_c, 9, 70, 64
4, 208320, Note_on_c, 9, 77, 64
4, 208559, Note_on_c, 9, 70, 0
4, 208559, Note_on_c, 9, 77, 0
4, 208560, Note_on_c, 9, 70, 64
4, 208560, Note_on_c, 9, 77, 64
4, 208679, Note_on_c, 9, 70, 0
4, 208679, Note_on_c, 9, 77, 0
4, 208680, Note_on_c, 9, 70, 64
4, 208680, Note_on_c, 9, 77, 64
4, 208799, Note_on_c, 9, 70, 0
4, 208799, Note_on_c, 9, 77, 0
4, 208800, Note_on_c, 9, 70, 64
4, 208919, Note_on_c, 9, 70, 0
4, 208920, Note_on_c, 9, 77, 64
4, 209039, Note_on_c, 9, 77, 0
4, 209040, Note_on_c, 9, 70, 64
4, 209040, Note_on_c, 9, 77, 64
4, 209159, Note_on_c, 9, 70, 0
4, 209159, Note_on_c, 9, 77, 0
4, 209160, Note_on_c, 9, 70, 64
4, 209160, Note_on_c, 9, 77, 64
4, 209279, Note_on_c, 9, 70, 0
4, 209279, Note_on_c, 9, 77, 0
4, 209280, Note_on_c, 9, 70, 64
4, 209280, Note_on_c, 9, 77, 64
4, 209519, Note_on_c, 9, 70, 0
4, 209519, Note_on_c, 9, 77, 0
4, 209520, Note_on_c, 9, 70, 64
4, 209520, Note_on_c, 9, 77, 64
4, 209639, Note_on_c, 9, 70, 0
4, 209639, Note_on_c, 9, 77, 0
4, 209640, Note_on_c, 9, 70, 64
4, 209759, Note_on_c, 9, 70, 0
4, 209760, Note_on_c, 9, 70, 64
4, 209760, Note_on_c, 9, 77, 64
4, 209999, Note_on_c, 9, 70, 0
4, 209999, Note_on_c, 9, 77, 0
4, 210000, Note_on_c, 9, 70, 64
4, 210000, Note_on_c, 9, 77, 64
4, 210119, Note_on_c, 9, 70, 0
4, 210119, Note_on_c, 9, 77, 0
4, 210120, Note_on_c, 9, 70, 64
4, 210239, Note_on_c, 9, 70, 0
4, 210240, Note_on_c, 9, 70, 64
4, 210240, Note_on_c, 9, 77, 64
4, 210479, Note_on_c, 9, 70, 0
4, 210479, Note_on_c, 9, 77, 0
4, 210480, Note_on_c, 9, 70, 64
4, 210480, Note_on_c, 9, 77, 64
4, 210599, Note_on_c, 9, 70, 0
4, 210599, Note_on_c, 9, 77, 0
4, 210600, Note_on_c, 9, 70, 64
4, 210600, Note_on_c, 9, 77, 64
4, 210719, Note_on_c, 9, 70, 0
4, 210719, Note_on_c, 9, 77, 0
4, 210720, Note_on_c, 9, 70, 64
4, 210839, Note_on_c, 9, 70, 0
4, 210840, Note_on_c, 9, 77, 64
4, 210959, Note_on_c, 9, 77, 0
4, 210960, Note_on_c, 9, 70, 64
4, 210960, Note_on_c, 9, 77, 64
4, 211079, Note_on_c, 9, 70, 0
4, 211079, Note_on_c, 9, 77, 0
4, 211080, Note_on_c, 9, 70, 64
4, 211199, Note_on_c, 9, 70, 0
4, 211200, Note_on_c, 9, 70, 64
4, 211200, Note_on_c, 9, 77, 64
4, 211439, Note_on_c, 9, 70, 0
4, 211439, Note_on_c, 9, 77, 0
4, 211440, Note_on_c, 9, 70, 64
4, 211440, Note_on_c, 9, 77, 64
4, 211559, Note_on_c, 9, 70, 0
4, 211559, Note_on_c, 9, 77, 0
4, 211560, Note_on_c, 9, 70, 64
4, 211679, Note_on_c, 9, 70, 0
4, 211680, Note_on_c, 9, 70, 64
4, 211680, Note_on_c, 9, 77, 64
4, 211919, Note_on_c, 9, 70, 0
4, 211919, Note_on_c, 9, 77, 0
4, 211920, Note_on_c, 9, 70, 64
4, 211920, Note_on_c, 9, 77, 64
4, 212039, Note_on_c, 9, 70, 0
4, 212039, Note_on_c, 9, 77, 0
4, 212040, Note_on_c, 9, 70, 64
4, 212159, Note_on_c, 9, 70, 0
4, 212160, Note_on_c, 9, 70, 64
4, 212160, Note_on_c, 9, 77, 64
4, 212399, Note_on_c, 9, 70, 0
4, 212399, Note_on_c, 9, 77, 0
4, 212400, Note_on_c, 9, 70, 64
4, 212400, Note_on_c, 9, 77, 64
4, 212519, Note_on_c, 9, 70, 0
4, 212519, Note_on_c, 9, 77, 0
4, 212520, Note_on_c, 9, 70, 64
4, 212520, Note_on_c, 9, 77, 64
4, 212639, Note_on_c, 9, 70, 0
4, 212639, Note_on_c, 9, 77, 0
4, 212640, Note_on_c, 9, 70, 64
4, 212759, Note_on_c, 9, 70, 0
4, 212760, Note_on_c, 9, 77, 64
4, 212879, Note_on_c, 9, 77, 0
4, 212880, Note_on_c, 9, 70, 64
4, 212880, Note_on_c, 9, 77, 64
4, 212999, Note_on_c, 9, 70, 0
4, 212999, Note_on_c, 9, 77, 0
4, 213000, Note_on_c, 9, 70, 64
4, 213000, Note_on_c, 9, 77, 64
4, 213119, Note_on_c, 9, 70, 0
4, 213119, Note_on_c, 9, 77, 0
4, 213120, Note_on_c, 9, 70, 64
4, 213120, Note_on_c, 9, 77, 64
4, 213359, Note_on_c, 9, 70, 0
4, 213359, Note_on_c, 9, 77, 0
4, 213360, Note_on_c, 9, 70, 64
4, 213360, Note_on_c, 9, 77, 64
4, 213479, Note_on_c, 9, 70, 0
4, 213479, Note_on_c, 9, 77, 0
4, 213480, Note_on_c, 9, 70, 64
4, 213599, Note_on_c, 9, 70, 0
4, 213600, Note_on_c, 9, 70, 64
4, 213600, Note_on_c, 9, 77, 64
4, 213839, Note_on_c, 9, 70, 0
4, 213839, Note_on_c, 9, 77, 0
4, 213840, Note_on_c, 9, 70, 64
4, 213840, Note_on_c, 9, 77, 64
4, 213959, Note_on_c, 9, 70, 0
4, 213959, Note_on_c, 9, 77, 0
4, 213960, Note_on_c, 9, 70, 64
4, 214079, Note_on_c, 9, 70, 0
4, 214080, Note_on_c, 9, 70, 64
4, 214080, Note_on_c, 9, 77, 64
4, 214319, Note_on_c, 9, 70, 0
4, 214319, Note_on_c, 9, 77, 0
4, 214320, Note_on_c, 9, 70, 64
4, 214320, Note_on_c, 9, 77, 64
4, 214439, Note_on_c, 9, 70, 0
4, 214439, Note_on_c, 9, 77, 0
4, 214440, Note_on_c, 9, 70, 64
4, 214440, Note_on_c, 9, 77, 64
4, 214559, Note_on_c, 9, 70, 0
4, 214559, Note_on_c, 9, 77, 0
4, 214560, Note_on_c, 9, 70, 64
4, 214679, Note_on_c, 9, 70, 0
4, 214680, Note_on_c, 9, 77, 64
4, 214799, Note_on_c, 9, 77, 0
4, 214800, Note_on_c, 9, 70, 64
4, 214800, Note_on_c, 9, 77, 64
4, 214919, Note_on_c, 9, 70, 0
4, 214919, Note_on_c, 9, 77, 0
4, 214920, Note_on_c, 9, 70, 64
4, 215039, Note_on_c, 9, 70, 0
4, 215040, Note_on_c, 9, 70, 64
4, 215040, Note_on_c, 9, 77, 64
4, 215279, Note_on_c, 9, 70, 0
4, 215279, Note_on_c, 9, 77, 0
4, 215280, Note_on_c, 9, 70, 64
4, 215280, Note_on_c, 9, 77, 64
4, 215399, Note_on_c, 9, 70, 0
4, 215399, Note_on_c, 9, 77, 0
4, 215400, Note_on_c, 9, 70, 64
4, 215519, Note_on_c, 9, 70, 0
4, 215520, Note_on_c, 9, 70, 64
4, 215520, Note_on_c, 9, 77, 64
4, 215759, Note_on_c, 9, 70, 0
4, 215759, Note_on_c, 9, 77, 0
4, 215760, Note_on_c, 9, 70, 64
4, 215760, Note_on_c, 9, 77, 64
4, 215879, Note_on_c, 9, 70, 0
4, 215879, Note_on_c, 9, 77, 0
4, 215880, Note_on_c, 9, 70, 64
4, 215999, Note_on_c, 9, 70, 0
4, 216000, Note_on_c, 9, 70, 64
4, 216000, Note_on_c, 9, 77, 64
4, 216239, Note_on_c, 9, 70, 0
4, 216239, Note_on_c, 9, 77, 0
4, 216240, Note_on_c, 9, 70, 64
4, 216240, Note_on_c, 9, 77, 64
4, 216359, Note_on_c, 9, 70, 0
4, 216359, Note_on_c, 9, 77, 0
4, 216360, Note_on_c, 9, 70, 64
4, 216360, Note_on_c, 9, 77, 64
4, 216479, Note_on_c, 9, 70, 0
4, 216479, Note_on_c, 9, 77, 0
4, 216480, Note_on_c, 9, 70, 64
4, 216599, Note_on_c, 9, 70, 0
4, 216600, Note_on_c, 9, 77, 64
4, 216719, Note_on_c, 9, 77, 0
4, 216720, Note_on_c, 9, 70, 64
4, 216720, Note_on_c, 9, 77, 64
4, 216839, Note_on_c, 9, 70, 0
4, 216839, Note_on_c, 9, 77, 0
4, 216840, Note_on_c, 9, 70, 64
4, 216840, Note_on_c, 9, 77, 64
4, 216959, Note_on_c, 9, 70, 0
4, 216959, Note_on_c, 9, 77, 0
4, 216960, Note_on_c, 9, 70, 64
4, 216960, Note_on_c, 9, 77, 64
4, 217199, Note_on_c, 9, 70, 0
4, 217199, Note_on_c, 9, 77, 0
4, 217200, Note_on_c, 9, 70, 64
4, 217200, Note_on_c, 9, 77, 64
4, 217319, Note_on_c, 9, 70, 0
4, 217319, Note_on_c, 9, 77, 0
4, 217320, Note_on_c, 9, 70, 64
4, 217439, Note_on_c, 9, 70, 0
4, 217440, Note_on_c, 9, 70, 64
4, 217440, Note_on_c, 9, 77, 64
4, 217679, Note_on_c, 9, 70, 0
4, 217679, Note_on_c, 9, 77, 0
4, 217680, Note_on_c, 9, 70, 64
4, 217680, Note_on_c, 9, 77, 64
4, 217799, Note_on_c, 9, 70, 0
4, 217799, Note_on_c, 9, 77, 0
4, 217800, Note_on_c, 9, 70, 64
4, 217919, Note_on_c, 9, 70, 0
4, 217920, Note_on_c, 9, 70, 64
4, 217920, Note_on_c, 9, 77, 64
4, 218159, Note_on_c, 9, 70, 0
4, 218159, Note_on_c, 9, 77, 0
4, 218160, Note_on_c, 9, 70, 64
4, 218160, Note_on_c, 9, 77, 64
4, 218279, Note_on_c, 9, 70, 0
4, 218279, Note_on_c, 9, 77, 0
4, 218280, Note_on_c, 9, 70, 64
4, 218280, Note_on_c, 9, 77, 64
4, 218399, Note_on_c, 9, 70, 0
4, 218399, Note_on_c, 9, 77, 0
4, 218400, Note_on_c, 9, 70, 64
4, 218519, Note_on_c, 9, 70, 0
4, 218520, Note_on_c, 9, 77, 64
4, 218639, Note_on_c, 9, 77, 0
4, 218640, Note_on_c, 9, 70, 64
4, 218640, Note_on_c, 9, 77, 64
4, 218759, Note_on_c, 9, 70, 0
4, 218759, Note_on_c, 9, 77, 0
4, 218760, Note_on_c, 9, 70, 64
4, 218879, Note_on_c, 9, 70, 0
4, 218880, Note_on_c, 9, 70, 64
4, 218880, Note_on_c, 9, 77, 64
4, 219119, Note_on_c, 9, 70, 0
4, 219119, Note_on_c, 9, 77, 0
4, 219120, Note_on_c, 9, 70, 64
4, 219120, Note_on_c, 9, 77, 64
4, 219239, Note_on_c, 9, 70, 0
4, 219239, Note_on_c, 9, 77, 0
4, 219240, Note_on_c, 9, 70, 64
4, 219359, Note_on_c, 9, 70, 0
4, 219360, Note_on_c, 9, 70, 64
4, 219360, Note_on_c, 9, 77, 64
4, 219599, Note_on_c, 9, 70, 0
4, 219599, Note_on_c, 9, 77, 0
4, 219600, Note_on_c, 9, 70, 64
4, 219600, Note_on_c, 9, 77, 64
4, 219719, Note_on_c, 9, 70, 0
4, 219719, Note_on_c, 9, 77, 0
4, 219720, Note_on_c, 9, 70, 64
4, 219839, Note_on_c, 9, 70, 0
4, 219840, Note_on_c, 9, 70, 64
4, 219840, Note_on_c, 9, 77, 64
4, 220079, Note_on_c, 9, 70, 0
4, 220079, Note_on_c, 9, 77, 0
4, 220080, Note_on_c, 9, 70, 64
4, 220080, Note_on_c, 9, 77, 64
4, 220199, Note_on_c, 9, 70, 0
4, 220199, Note_on_c, 9, 77, 0
4, 220200, Note_on_c, 9, 70, 64
4, 220200, Note_on_c, 9, 77, 64
4, 220319, Note_on_c, 9, 70, 0
4, 220319, Note_on_c, 9, 77, 0
4, 220320, Note_on_c, 9, 70, 64
4, 220439, Note_on_c, 9, 70, 0
4, 220440, Note_on_c, 9, 77, 64
4, 220559, Note_on_c, 9, 77, 0
4, 220560, Note_on_c, 9, 70, 64
4, 220560, Note_on_c, 9, 77, 64
4, 220679, Note_on_c, 9, 70, 0
4, 220679, Note_on_c, 9, 77, 0
4, 220680, Note_on_c, 9, 70, 64
4, 220680, Note_on_c, 9, 77, 64
4, 220799, Note_on_c, 9, 70, 0
4, 220799, Note_on_c, 9, 77, 0
4, 220800, Note_on_c, 9, 70, 64
4, 220800, Note_on_c, 9, 77, 64
4, 221039, Note_on_c, 9, 70, 0
4, 221039, Note_on_c, 9, 77, 0
4, 221040, Note_on_c, 9, 70, 64
4, 221040, Note_on_c, 9, 77, 64
4, 221159, Note_on_c, 9, 70, 0
4, 221159, Note_on_c, 9, 77, 0
4, 221160, Note_on_c, 9, 70, 64
4, 221279, Note_on_c, 9, 70, 0
4, 221280, Note_on_c, 9, 70, 64
4, 221280, Note_on_c, 9, 77, 64
4, 221519, Note_on_c, 9, 70, 0
4, 221519, Note_on_c, 9, 77, 0
4, 221520, Note_on_c, 9, 70, 64
4, 221520, Note_on_c, 9, 77, 64
4, 221639, Note_on_c, 9, 70, 0
4, 221639, Note_on_c, 9, 77, 0
4, 221640, Note_on_c, 9, 70, 64
4, 221759, Note_on_c, 9, 70, 0
4, 221760, Note_on_c, 9, 70, 64
4, 221760, Note_on_c, 9, 77, 64
4, 221999, Note_on_c, 9, 70, 0
4, 221999, Note_on_c, 9, 77, 0
4, 222000, Note_on_c, 9, 70, 64
4, 222000, Note_on_c, 9, 77, 64
4, 222119, Note_on_c, 9, 70, 0
4, 222119, Note_on_c, 9, 77, 0
4, 222120, Note_on_c, 9, 70, 64
4, 222120, Note_on_c, 9, 77, 64
4, 222239, Note_on_c, 9, 70, 0
4, 222239, Note_on_c, 9, 77, 0
4, 222240, Note_on_c, 9, 70, 64
4, 222359, Note_on_c, 9, 70, 0
4, 222360, Note_on_c, 9, 77, 64
4, 222479, Note_on_c, 9, 77, 0
4, 222480, Note_on_c, 9, 70, 64
4, 222480, Note_on_c, 9, 77, 64
4, 222599, Note_on_c, 9, 70, 0
4, 222599, Note_on_c, 9, 77, 0
4, 222600, Note_on_c, 9, 70, 64
4, 222719, Note_on_c, 9, 70, 0
4, 222720, Note_on_c, 9, 70, 64
4, 222720, Note_on_c, 9, 77, 64
4, 222959, Note_on_c, 9, 70, 0
4, 222959, Note_on_c, 9, 77, 0
4, 222960, Note_on_c, 9, 70, 64
4, 222960, Note_on_c, 9, 77, 64
4, 223079, Note_on_c, 9, 70, 0
4, 223079, Note_on_c, 9, 77, 0
4, 223080, Note_on_c, 9, 70, 64
4, 223199, Note_on_c, 9, 70, 0
4, 223200, Note_on_c, 9, 70, 64
4, 223200, Note_on_c, 9, 77, 64
4, 223439, Note_on_c, 9, 70, 0
4, 223439, Note_on_c, 9, 77, 0
4, 223440, Note_on_c, 9, 70, 64
4, 223440, Note_on_c, 9, 77, 64
4, 223559, Note_on_c, 9, 70, 0
4, 223559, Note_on_c, 9, 77, 0
4, 223560, Note_on_c, 9, 70, 64
4, 223679, Note_on_c, 9, 70, 0
4, 223680, Note_on_c, 9, 70, 64
4, 223680, Note_on_c, 9, 77, 64
4, 223919, Note_on_c, 9, 70, 0
4, 223919, Note_on_c, 9, 77, 0
4, 223920, Note_on_c, 9, 70, 64
4, 223920, Note_on_c, 9, 77, 64
4, 224039, Note_on_c, 9, 70, 0
4, 224039, Note_on_c, 9, 77, 0
4, 224040, Note_on_c, 9, 70, 64
4, 224040, Note_on_c, 9, 77, 64
4, 224159, Note_on_c, 9, 70, 0
4, 224159, Note_on_c, 9, 77, 0
4, 224160, Note_on_c, 9, 70, 64
4, 224279, Note_on_c, 9, 70, 0
4, 224280, Note_on_c, 9, 77, 64
4, 224399, Note_on_c, 9, 77, 0
4, 224400, Note_on_c, 9, 70, 64
4, 224400, Note_on_c, 9, 77, 64
4, 224519, Note_on_c, 9, 70, 0
4, 224519, Note_on_c, 9, 77, 0
4, 224520, Note_on_c, 9, 70, 64
4, 224520, Note_on_c, 9, 77, 64
4, 224639, Note_on_c, 9, 70, 0
4, 224639, Note_on_c, 9, 77, 0
4, 224640, Note_on_c, 9, 70, 64
4, 224640, Note_on_c, 9, 77, 64
4, 224879, Note_on_c, 9, 70, 0
4, 224879, Note_on_c, 9, 77, 0
4, 224880, Note_on_c, 9, 70, 64
4, 224880, Note_on_c, 9, 77, 64
4, 224999, Note_on_c, 9, 70, 0
4, 224999, Note_on_c, 9, 77, 0
4, 225000, Note_on_c, 9, 70, 64
4, 225119, Note_on_c, 9, 70, 0
4, 225120, Note_on_c, 9, 70, 64
4, 225120, Note_on_c, 9, 77, 64
4, 225359, Note_on_c, 9, 70, 0
4, 225359, Note_on_c, 9, 77, 0
4, 225360, Note_on_c, 9, 70, 64
4, 225360, Note_on_c, 9, 77, 64
4, 225479, Note_on_c, 9, 70, 0
4, 225479, Note_on_c, 9, 77, 0
4, 225480, Note_on_c, 9, 70, 64
4, 225599, Note_on_c, 9, 70, 0
4, 225600, Note_on_c, 9, 70, 64
4, 225600, Note_on_c, 9, 77, 64
4, 225839, Note_on_c, 9, 70, 0
4, 225839, Note_on_c, 9, 77, 0
4, 225840, Note_on_c, 9, 70, 64
4, 225840, Note_on_c, 9, 77, 64
4, 225959, Note_on_c, 9, 70, 0
4, 225959, Note_on_c, 9, 77, 0
4, 225960, Note_on_c, 9, 70, 64
4, 225960, Note_on_c, 9, 77, 64
4, 226079, Note_on_c, 9, 70, 0
4, 226079, Note_on_c, 9, 77, 0
4, 226080, Note_on_c, 9, 70, 64
4, 226199, Note_on_c, 9, 70, 0
4, 226200, Note_on_c, 9, 77, 64
4, 226319, Note_on_c, 9, 77, 0
4, 226320, Note_on_c, 9, 70, 64
4, 226320, Note_on_c, 9, 77, 64
4, 226439, Note_on_c, 9, 70, 0
4, 226439, Note_on_c, 9, 77, 0
4, 226440, Note_on_c, 9, 70, 64
4, 226559, Note_on_c, 9, 70, 0
4, 226560, Note_on_c, 9, 70, 64
4, 226560, Note_on_c, 9, 77, 64
4, 226799, Note_on_c, 9, 70, 0
4, 226799, Note_on_c, 9, 77, 0
4, 226800, Note_on_c, 9, 70, 64
4, 226800, Note_on_c, 9, 77, 64
4, 226919, Note_on_c, 9, 70, 0
4, 226919, Note_on_c, 9, 77, 0
4, 226920, Note_on_c, 9, 70, 64
4, 227039, Note_on_c, 9, 70, 0
4, 227040, Note_on_c, 9, 70, 64
4, 227040, Note_on_c, 9, 77, 64
4, 227279, Note_on_c, 9, 70, 0
4, 227279, Note_on_c, 9, 77, 0
4, 227280, Note_on_c, 9, 70, 64
4, 227280, Note_on_c, 9, 77, 64
4, 227399, Note_on_c, 9, 70, 0
4, 227399, Note_on_c, 9, 77, 0
4, 227400, Note_on_c, 9, 70, 64
4, 227519, Note_on_c, 9, 70, 0
4, 227520, Note_on_c, 9, 70, 64
4, 227520, Note_on_c, 9, 77, 64
4, 227759, Note_on_c, 9, 70, 0
4, 227759, Note_on_c, 9, 77, 0
4, 227760, Note_on_c, 9, 70, 64
4, 227760, Note_on_c, 9, 77, 64
4, 227879, Note_on_c, 9, 70, 0
4, 227879, Note_on_c, 9, 77, 0
4, 227880, Note_on_c, 9, 70, 64
4, 227880, Note_on_c, 9, 77, 64
4, 227999, Note_on_c, 9, 70, 0
4, 227999, Note_on_c, 9, 77, 0
4, 228000, Note_on_c, 9, 70, 64
4, 228119, Note_on_c, 9, 70, 0
4, 228120, Note_on_c, 9, 77, 64
4, 228239, Note_on_c, 9, 77, 0
4, 228240, Note_on_c, 9, 70, 64
4, 228240, Note_on_c, 9, 77, 64
4, 228359, Note_on_c, 9, 70, 0
4, 228359, Note_on_c, 9, 77, 0
4, 228360, Note_on_c, 9, 70, 64
4, 228360, Note_on_c, 9, 77, 64
4, 228479, Note_on_c, 9, 70, 0
4, 228479, Note_on_c, 9, 77, 0
4, 228480, Note_on_c, 9, 70, 64
4, 228480, Note_on_c, 9, 77, 64
4, 228719, Note_on_c, 9, 70, 0
4, 228719, Note_on_c, 9, 77, 0
4, 228720, Note_on_c, 9, 70, 64
4, 228720, Note_on_c, 9, 77, 64
4, 228839, Note_on_c, 9, 70, 0
4, 228839, Note_on_c, 9, 77, 0
4, 228840, Note_on_c, 9, 70, 64
4, 228959, Note_on_c, 9, 70, 0
4, 228960, Note_on_c, 9, 70, 64
4, 228960, Note_on_c, 9, 77, 64
4, 229199, Note_on_c, 9, 70, 0
4, 229199, Note_on_c, 9, 77, 0
4, 229200, Note_on_c, 9, 70, 64
4, 229200, Note_on_c, 9, 77, 64
4, 229319, Note_on_c, 9, 70, 0
4, 229319, Note_on_c, 9, 77, 0
4, 229320, Note_on_c, 9, 70, 64
4, 229439, Note_on_c, 9, 70, 0
4, 229440, Note_on_c, 9, 70, 64
4, 229440, Note_on_c, 9, 77, 64
4, 229679, Note_on_c, 9, 70, 0
4, 229679, Note_on_c, 9, 77, 0
4, 229680, Note_on_c, 9, 70, 64
4, 229680, Note_on_c, 9, 77, 64
4, 229799, Note_on_c, 9, 70, 0
4, 229799, Note_on_c, 9, 77, 0
4, 229800, Note_on_c, 9, 70, 64
4, 229800, Note_on_c, 9, 77, 64
4, 229919, Note_on_c, 9, 70, 0
4, 229919, Note_on_c, 9, 77, 0
4, 229920, Note_on_c, 9, 70, 64
4, 230039, Note_on_c, 9, 70, 0
4, 230040, Note_on_c, 9, 77, 64
4, 230159, Note_on_c, 9, 77, 0
4, 230160, Note_on_c, 9, 70, 64
4, 230160, Note_on_c, 9, 77, 64
4, 230279, Note_on_c, 9, 70, 0
4, 230279, Note_on_c, 9, 77, 0
4, 230280, Note_on_c, 9, 70, 64
4, 230399, Note_on_c, 9, 70, 0
4, 230400, Note_on_c, 9, 70, 64
4, 230400, Note_on_c, 9, 77, 64
4, 230639, Note_on_c, 9, 70, 0
4, 230639, Note_on_c, 9, 77, 0
4, 230640, Note_on_c, 9, 70, 64
4, 230640, Note_on_c, 9, 77, 64
4, 230759, Note_on_c, 9, 70, 0
4, 230759, Note_on_c, 9, 77, 0
4, 230760, Note_on_c, 9, 70, 64
4, 230879, Note_on_c, 9, 70, 0
4, 230880, Note_on_c, 9, 70, 64
4, 230880, Note_on_c, 9, 77, 64
4, 231119, Note_on_c, 9, 70, 0
4, 231119, Note_on_c, 9, 77, 0
4, 231120, Note_on_c, 9, 70, 64
4, 231120, Note_on_c, 9, 77, 64
4, 231239, Note_on_c, 9, 70, 0
4, 231239, Note_on_c, 9, 77, 0
4, 231240, Note_on_c, 9, 70, 64
4, 231359, Note_on_c, 9, 70, 0
4, 231360, Note_on_c, 9, 70, 64
4, 231360, Note_on_c, 9, 77, 64
4, 231599, Note_on_c, 9, 70, 0
4, 231599, Note_on_c, 9, 77, 0
4, 231600, Note_on_c, 9, 70, 64
4, 231600, Note_on_c, 9, 77, 64
4, 231719, Note_on_c, 9, 70, 0
4, 231719, Note_on_c, 9, 77, 0
4, 231720, Note_on_c, 9, 70, 64
4, 231720, Note_on_c, 9, 77, 64
4, 231839, Note_on_c, 9, 70, 0
4, 231839, Note_on_c, 9, 77, 0
4, 231840, Note_on_c, 9, 70, 64
4, 231959, Note_on_c, 9, 70, 0
4, 231960, Note_on_c, 9, 77, 64
4, 232079, Note_on_c, 9, 77, 0
4, 232080, Note_on_c, 9, 70, 64
4, 232080, Note_on_c, 9, 77, 64
4, 232199, Note_on_c, 9, 70, 0
4, 232199, Note_on_c, 9, 77, 0
4, 232200, Note_on_c, 9, 70, 64
4, 232200, Note_on_c, 9, 77, 64
4, 232319, Note_on_c, 9, 70, 0
4, 232319, Note_on_c, 9, 77, 0
4, 232320, Note_on_c, 9, 70, 64
4, 232320, Note_on_c, 9, 77, 64
4, 232559, Note_on_c, 9, 70, 0
4, 232559, Note_on_c, 9, 77, 0
4, 232560, Note_on_c, 9, 70, 64
4, 232560, Note_on_c, 9, 77, 64
4, 232679, Note_on_c, 9, 70, 0
4, 232679, Note_on_c, 9, 77, 0
4, 232680, Note_on_c, 9, 70, 64
4, 232799, Note_on_c, 9, 70, 0
4, 232800, Note_on_c, 9, 70, 64
4, 232800, Note_on_c, 9, 77, 64
4, 233039, Note_on_c, 9, 70, 0
4, 233039, Note_on_c, 9, 77, 0
4, 233040, Note_on_c, 9, 70, 64
4, 233040, Note_on_c, 9, 77, 64
4, 233159, Note_on_c, 9, 70, 0
4, 233159, Note_on_c, 9, 77, 0
4, 233160, Note_on_c, 9, 70, 64
4, 233279, Note_on_c, 9, 70, 0
4, 233280, Note_on_c, 9, 70, 64
4, 233280, Note_on_c, 9, 77, 64
4, 233519, Note_on_c, 9, 70, 0
4, 233519, Note_on_c, 9, 77, 0
4, 233520, Note_on_c, 9, 70, 64
4, 233520, Note_on_c, 9, 77, 64
4, 233639, Note_on_c, 9, 70, 0
4, 233639, Note_on_c, 9, 77, 0
4, 233640, Note_on_c, 9, 70, 64
4, 233640, Note_on_c, 9, 77, 64
4, 233759, Note_on_c, 9, 70, 0
4, 233759, Note_on_c, 9, 77, 0
4, 233760, Note_on_c, 9, 70, 64
4, 233879, Note_on_c, 9, 70, 0
4, 233880, Note_on_c, 9, 77, 64
4, 233999, Note_on_c, 9, 77, 0
4, 234000, Note_on_c, 9, 70, 64
4, 234000, Note_on_c, 9, 77, 64
4, 234119, Note_on_c, 9, 70, 0
4, 234119, Note_on_c, 9, 77, 0
4, 234120, Note_on_c, 9, 70, 64
4, 234239, Note_on_c, 9, 70, 0
4, 234240, Note_on_c, 9, 70, 64
4, 234240, Note_on_c, 9, 77, 64
4, 234479, Note_on_c, 9, 70, 0
4, 234479, Note_on_c, 9, 77, 0
4, 234480, Note_on_c, 9, 70, 64
4, 234480, Note_on_c, 9, 77, 64
4, 234599, Note_on_c, 9, 70, 0
4, 234599, Note_on_c, 9, 77, 0
4, 234600, Note_on_c, 9, 70, 64
4, 234719, Note_on_c, 9, 70, 0
4, 234720, Note_on_c, 9, 70, 64
4, 234720, Note_on_c, 9, 77, 64
4, 234959, Note_on_c, 9, 70, 0
4, 234959, Note_on_c, 9, 77, 0
4, 234960, Note_on_c, 9, 70, 64
4, 234960, Note_on_c, 9, 77, 64
4, 235079, Note_on_c, 9, 70, 0
4, 235079, Note_on_c, 9, 77, 0
4, 235080, Note_on_c, 9, 70, 64
4, 235199, Note_on_c, 9, 70, 0
4, 235200, Note_on_c, 9, 70, 64
4, 235200, Note_on_c, 9, 77, 64
4, 235439, Note_on_c, 9, 70, 0
4, 235439, Note_on_c, 9, 77, 0
4, 235440, Note_on_c, 9, 70, 64
4, 235440, Note_on_c, 9, 77, 64
4, 235559, Note_on_c, 9, 70, 0
4, 235559, Note_on_c, 9, 77, 0
4, 235560, Note_on_c, 9, 70, 64
4, 235560, Note_on_c, 9, 77, 64
4, 235679, Note_on_c, 9, 70, 0
4, 235679, Note_on_c, 9, 77, 0
4, 235680, Note_on_c, 9, 70, 64
4, 235799, Note_on_c, 9, 70, 0
4, 235800, Note_on_c, 9, 77, 64
4, 235919, Note_on_c, 9, 77, 0
4, 235920, Note_on_c, 9, 70, 64
4, 235920, Note_on_c, 9, 77, 64
4, 236039, Note_on_c, 9, 70, 0
4, 236039, Note_on_c, 9, 77, 0
4, 236040, Note_on_c, 9, 70, 64
4, 236040, Note_on_c, 9, 77, 64
4, 236159, Note_on_c, 9, 70, 0
4, 236159, Note_on_c, 9, 77, 0
4, 236160, Note_on_c, 9, 70, 64
4, 236160, Note_on_c, 9, 77, 64
4, 236399, Note_on_c, 9, 70, 0
4, 236399, Note_on_c, 9, 77, 0
4, 236400, Note_on_c, 9, 70, 64
4, 236400, Note_on_c, 9, 77, 64
4, 236519, Note_on_c, 9, 70, 0
4, 236519, Note_on_c, 9, 77, 0
4, 236520, Note_on_c, 9, 70, 64
4, 236639, Note_on_c, 9, 70, 0
4, 236640, Note_on_c, 9, 70, 64
4, 236640, Note_on_c, 9, 77, 64
4, 236879, Note_on_c, 9, 70, 0
4, 236879, Note_on_c, 9, 77, 0
4, 236880, Note_on_c, 9, 70, 64
4, 236880, Note_on_c, 9, 77, 64
4, 236999, Note_on_c, 9, 70, 0
4, 236999, Note_on_c, 9, 77, 0
4, 237000, Note_on_c, 9, 70, 64
4, 237119, Note_on_c, 9, 70, 0
4, 237120, Note_on_c, 9, 70, 64
4, 237120, Note_on_c, 9, 77, 64
4, 237359, Note_on_c, 9, 70, 0
4, 237359, Note_on_c, 9, 77, 0
4, 237360, Note_on_c, 9, 70, 64
4, 237360, Note_on_c, 9, 77, 64
4, 237479, Note_on_c, 9, 70, 0
4, 237479, Note_on_c, 9, 77, 0
4, 237480, Note_on_c, 9, 70, 64
4, 237480, Note_on_c, 9, 77, 64
4, 237599, Note_on_c, 9, 70, 0
4, 237599, Note_on_c, 9, 77, 0
4, 237600, Note_on_c, 9, 70, 64
4, 237719, Note_on_c, 9, 70, 0
4, 237720, Note_on_c, 9, 77, 64
4, 237839, Note_on_c, 9, 77, 0
4, 237840, Note_on_c, 9, 70, 64
4, 237840, Note_on_c, 9, 77, 64
4, 237959, Note_on_c, 9, 70, 0
4, 237959, Note_on_c, 9, 77, 0
4, 237960, Note_on_c, 9, 70, 64
4, 238079, Note_on_c, 9, 70, 0
4, 238080, Note_on_c, 9, 70, 64
4, 238080, Note_on_c, 9, 77, 64
4, 238319, Note_on_c, 9, 70, 0
4, 238319, Note_on_c, 9, 77, 0
4, 238320, Note_on_c, 9, 70, 64
4, 238320, Note_on_c, 9, 77, 64
4, 238439, Note_on_c, 9, 70, 0
4, 238439, Note_on_c, 9, 77, 0
4, 238440, Note_on_c, 9, 70, 64
4, 238559, Note_on_c, 9, 70, 0
4, 238560, Note_on_c, 9, 70, 64
4, 238560, Note_on_c, 9, 77, 64
4, 238799, Note_on_c, 9, 70, 0
4, 238799, Note_on_c, 9, 77, 0
4, 238800, Note_on_c, 9, 70, 64
4, 238800, Note_on_c, 9, 77, 64
4, 238919, Note_on_c, 9, 70, 0
4, 238919, Note_on_c, 9, 77, 0
4, 238920, Note_on_c, 9, 70, 64
4, 239039, Note_on_c, 9, 70, 0
4, 239040, Note_on_c, 9, 70, 64
4, 239040, Note_on_c, 9, 77, 64
4, 239279, Note_on_c, 9, 70, 0
4, 239279, Note_on_c, 9, 77, 0
4, 239280, Note_on_c, 9, 70, 64
4, 239280, Note_on_c, 9, 77, 64
4, 239399, Note_on_c, 9, 70, 0
4, 239399, Note_on_c, 9, 77, 0
4, 239400, Note_on_c, 9, 70, 64
4, 239400, Note_on_c, 9, 77, 64
4, 239519, Note_on_c, 9, 70, 0
4, 239519, Note_on_c, 9, 77, 0
4, 239520, Note_on_c, 9, 70, 64
4, 239639, Note_on_c, 9, 70, 0
4, 239640, Note_on_c, 9, 77, 64
4, 239759, Note_on_c, 9, 77, 0
4, 239760, Note_on_c, 9, 70, 64
4, 239760, Note_on_c, 9, 77, 64
4, 239879, Note_on_c, 9, 70, 0
4, 239879, Note_on_c, 9, 77, 0
4, 239880, Note_on_c, 9, 70, 64
4, 239880, Note_on_c, 9, 77, 64
4, 239999, Note_on_c, 9, 70, 0
4, 239999, Note_on_c, 9, 77, 0
4, 240000, Note_on_c, 9, 70, 64
4, 240000, Note_on_c, 9, 77, 64
4, 240239, Note_on_c, 9, 70, 0
4, 240239, Note_on_c, 9, 77, 0
4, 240240, Note_on_c, 9, 70, 64
4, 240240, Note_on_c, 9, 77, 64
4, 240359, Note_on_c, 9, 70, 0
4, 240359, Note_on_c, 9, 77, 0
4, 240360, Note_on_c, 9, 70, 64
4, 240479, Note_on_c, 9, 70, 0
4, 240480, Note_on_c, 9, 70, 64
4, 240480, Note_on_c, 9, 77, 64
4, 240719, Note_on_c, 9, 70, 0
4, 240719, Note_on_c, 9, 77, 0
4, 240720, Note_on_c, 9, 70, 64
4, 240720, Note_on_c, 9, 77, 64
4, 240839, Note_on_c, 9, 70, 0
4, 240839, Note_on_c, 9, 77, 0
4, 240840, Note_on_c, 9, 70, 64
4, 240959, Note_on_c, 9, 70, 0
4, 240960, Note_on_c, 9, 70, 64
4, 240960, Note_on_c, 9, 77, 64
4, 241199, Note_on_c, 9, 70, 0
4, 241199, Note_on_c, 9, 77, 0
4, 241200, Note_on_c, 9, 70, 64
4, 241200, Note_on_c, 9, 77, 64
4, 241319, Note_on_c, 9, 70, 0
4, 241319, Note_on_c, 9, 77, 0
4, 241320, Note_on_c, 9, 70, 64
4, 241320, Note_on_c, 9, 77, 64
4, 241439, Note_on_c, 9, 70, 0
4, 241439, Note_on_c, 9, 77, 0
4, 241440, Note_on_c, 9, 70, 64
4, 241559, Note_on_c, 9, 70, 0
4, 241560, Note_on_c, 9, 77, 64
4, 241679, Note_on_c, 9, 77, 0
4, 241680, Note_on_c, 9, 70, 64
4, 241680, Note_on_c, 9, 77, 64
4, 241799, Note_on_c, 9, 70, 0
4, 241799, Note_on_c, 9, 77, 0
4, 241800, Note_on_c, 9, 70, 64
4, 241919, Note_on_c, 9, 70, 0
4, 241920, Note_on_c, 9, 70, 64
4, 241920, Note_on_c, 9, 77, 64
4, 242159, Note_on_c, 9, 70, 0
4, 242159, Note_on_c, 9, 77, 0
4, 242160, Note_on_c, 9, 70, 64
4, 242160, Note_on_c, 9, 77, 64
4, 242279, Note_on_c, 9, 70, 0
4, 242279, Note_on_c, 9, 77, 0
4, 242280, Note_on_c, 9, 70, 64
4, 242399, Note_on_c, 9, 70, 0
4, 242400, Note_on_c, 9, 70, 64
4, 242400, Note_on_c, 9, 77, 64
4, 242639, Note_on_c, 9, 70, 0
4, 242639, Note_on_c, 9, 77, 0
4, 242640, Note_on_c, 9, 70, 64
4, 242640, Note_on_c, 9, 77, 64
4, 242759, Note_on_c, 9, 70, 0
4, 242759, Note_on_c, 9, 77, 0
4, 242760, Note_on_c, 9, 70, 64
4, 242879, Note_on_c, 9, 70, 0
4, 242880, Note_on_c, 9, 70, 64
4, 242880, Note_on_c, 9, 77, 64
4, 243119, Note_on_c, 9, 70, 0
4, 243119, Note_on_c, 9, 77, 0
4, 243120, Note_on_c, 9, 70, 64
4, 243120, Note_on_c, 9, 77, 64
4, 243239, Note_on_c, 9, 70, 0
4, 243239, Note_on_c, 9, 77, 0
4, 243240, Note_on_c, 9, 70, 64
4, 243240, Note_on_c, 9, 77, 64
4, 243359, Note_on_c, 9, 70, 0
4, 243359, Note_on_c, 9, 77, 0
4, 243360, Note_on_c, 9, 70, 64
4, 243479, Note_on_c, 9, 70, 0
4, 243480, Note_on_c, 9, 77, 64
4, 243599, Note_on_c, 9, 77, 0
4, 243600, Note_on_c, 9, 70, 64
4, 243600, Note_on_c, 9, 77, 64
4, 243719, Note_on_c, 9, 70, 0
4, 243719, Note_on_c, 9, 77, 0
4, 243720, Note_on_c, 9, 70, 64
4, 243720, Note_on_c, 9, 77, 64
4, 243839, Note_on_c, 9, 70, 0
4, 243839, Note_on_c, 9, 77, 0
4, 243840, Note_on_c, 9, 70, 64
4, 243840, Note_on_c, 9, 77, 64
4, 244079, Note_on_c, 9, 70, 0
4, 244079, Note_on_c, 9, 77, 0
4, 244080, Note_on_c, 9, 70, 64
4, 244080, Note_on_c, 9, 77, 64
4, 244199, Note_on_c, 9, 70, 0
4, 244199, Note_on_c, 9, 77, 0
4, 244200, Note_on_c, 9, 70, 64
4, 244319, Note_on_c, 9, 70, 0
4, 244320, Note_on_c, 9, 70, 64
4, 244320, Note_on_c, 9, 77, 64
4, 244559, Note_on_c, 9, 70, 0
4, 244559, Note_on_c, 9, 77, 0
4, 244560, Note_on_c, 9, 70, 64
4, 244560, Note_on_c, 9, 77, 64
4, 244679, Note_on_c, 9, 70, 0
4, 244679, Note_on_c, 9, 77, 0
4, 244680, Note_on_c, 9, 70, 64
4, 244799, Note_on_c, 9, 70, 0
4, 244800, Note_on_c, 9, 70, 64
4, 244800, Note_on_c, 9, 77, 64
4, 245039, Note_on_c, 9, 70, 0
4, 245039, Note_on_c, 9, 77, 0
4, 245040, Note_on_c, 9, 70, 64
4, 245040, Note_on_c, 9, 77, 64
4, 245159, Note_on_c, 9, 70, 0
4, 245159, Note_on_c, 9, 77, 0
4, 245160, Note_on_c, 9, 70, 64
4, 245160, Note_on_c, 9, 77, 64
4, 245279, Note_on_c, 9, 70, 0
4, 245279, Note_on_c, 9, 77, 0
4, 245280, Note_on_c, 9, 70, 64
4, 245399, Note_on_c, 9, 70, 0
4, 245400, Note_on_c, 9, 77, 64
4, 245519, Note_on_c, 9, 77, 0
4, 245520, Note_on_c, 9, 70, 64
4, 245520, Note_on_c, 9, 77, 64
4, 245639, Note_on_c, 9, 70, 0
4, 245639, Note_on_c, 9, 77, 0
4, 245640, Note_on_c, 9, 70, 64
4, 245759, Note_on_c, 9, 70, 0
4, 245760, Note_on_c, 9, 70, 64
4, 245760, Note_on_c, 9, 77, 64
4, 245999, Note_on_c, 9, 70, 0
4, 245999, Note_on_c, 9, 77, 0
4, 246000, Note_on_c, 9, 70, 64
4, 246000, Note_on_c, 9, 77, 64
4, 246119, Note_on_c, 9, 70, 0
4, 246119, Note_on_c, 9, 77, 0
4, 246120, Note_on_c, 9, 70, 64
4, 246239, Note_on_c, 9, 70, 0
4, 246240, Note_on_c, 9, 70, 64
4, 246240, Note_on_c, 9, 77, 64
4, 246479, Note_on_c, 9, 70, 0
4, 246479, Note_on_c, 9, 77, 0
4, 246480, Note_on_c, 9, 70, 64
4, 246480, Note_on_c, 9, 77, 64
4, 246599, Note_on_c, 9, 70, 0
4, 246599, Note_on_c, 9, 77, 0
4, 246600, Note_on_c, 9, 70, 64
4, 246719, Note_on_c, 9, 70, 0
4, 246720, Note_on_c, 9, 70, 64
4, 246720, Note_on_c, 9, 77, 64
4, 246959, Note_on_c, 9, 70, 0
4, 246959, Note_on_c, 9, 77, 0
4, 246960, Note_on_c, 9, 70, 64
4, 246960, Note_on_c, 9, 77, 64
4, 247079, Note_on_c, 9, 70, 0
4, 247079, Note_on_c, 9, 77, 0
4, 247080, Note_on_c, 9, 70, 64
4, 247080, Note_on_c, 9, 77, 64
4, 247199, Note_on_c, 9, 70, 0
4, 247199, Note_on_c, 9, 77, 0
4, 247200, Note_on_c, 9, 70, 64
4, 247319, Note_on_c, 9, 70, 0
4, 247320, Note_on_c, 9, 77, 64
4, 247439, Note_on_c, 9, 77, 0
4, 247440, Note_on_c, 9, 70, 64
4, 247440, Note_on_c, 9, 77, 64
4, 247559, Note_on_c, 9, 70, 0
4, 247559, Note_on_c, 9, 77, 0
4, 247560, Note_on_c, 9, 70, 64
4, 247560, Note_on_c, 9, 77, 64
4, 247679, Note_on_c, 9, 70, 0
4, 247679, Note_on_c, 9, 77, 0
4, 247680, End_track
0, 0, End_of_file
