0, 0, Header, 1, 1, 480
1, 0, Start_track
1, 0, Time_signature, 4, 2, 24, 8
1, 0, Key_signature, 0, "major"
1, 0, Tempo, 666667
1, 0, Control_c, 9, 121, 0
1, 0, Program_c, 9, 0
1, 0, Control_c, 9, 7, 127
1, 0, Control_c, 9, 10, 64
1, 0, Control_c, 9, 91, 0
1, 0, Control_c, 9, 93, 0
1, 0, MIDI_port, 0
1, 11520, Tempo, 375000
1, 11520, Note_on_c, 9, 42, 90
1, 11520, Note_on_c, 9, 35, 90
1, 11759, Note_on_c, 9, 42, 0
1, 11760, Note_on_c, 9, 42, 70
1, 11999, Note_on_c, 9, 35, 0
1, 11999, Note_on_c, 9, 42, 0
1, 12000, Note_on_c, 9, 38, 100
1, 12000, Note_on_c, 9, 42, 115
1, 12239, Note_on_c, 9, 38, 0
1, 12239, Note_on_c, 9, 42, 0
1, 12240, Note_on_c, 9, 42, 80
1, 12240, Note_on_c, 9, 35, 80
1, 12479, Note_on_c, 9, 42, 0
1, 12479, Note_on_c, 9, 35, 0
1, 12480, Note_on_c, 9, 42, 90
1, 12480, Note_on_c, 9, 35, 100
1, 12719, Note_on_c, 9, 42, 0
1, 12720, Note_on_c, 9, 42, 70
1, 12959, Note_on_c, 9, 35, 0
1, 12959, Note_on_c, 9, 42, 0
1, 12960, Note_on_c, 9, 38, 100
1, 12960, Note_on_c, 9, 54, 115
1, 12960, Note_on_c, 9, 42, 100
1, 13199, Note_on_c, 9, 38, 0
1, 13199, Note_on_c, 9, 54, 0
1, 13199, Note_on_c, 9, 42, 0
1, 13200, Note_on_c, 9, 42, 70
1, 13200, Note_on_c, 9, 35, 70
1, 13439, Note_on_c, 9, 42, 0
1, 13439, Note_on_c, 9, 35, 0
1, 13440, Note_on_c, 9, 42, 90
1, 13440, Note_on_c, 9, 35, 90
1, 13679, Note_on_c, 9, 42, 0
1, 13680, Note_on_c, 9, 42, 70
1, 13919, Note_on_c, 9, 35, 0
1, 13919, Note_on_c, 9, 42, 0
1, 13920, Note_on_c, 9, 38, 100
1, 13920, Note_on_c, 9, 42, 115
1, 14159, Note_on_c, 9, 38, 0
1, 14159, Note_on_c, 9, 42, 0
1, 14160, Note_on_c, 9, 42, 70
1, 14160, Note_on_c, 9, 35, 80
1, 14399, Note_on_c, 9, 42, 0
1, 14399, Note_on_c, 9, 35, 0
1, 14400, Note_on_c, 9, 42, 90
1, 14400, Note_on_c, 9, 35, 100
1, 14639, Note_on_c, 9, 42, 0
1, 14640, Note_on_c, 9, 38, 90
1, 14759, Note_on_c, 9, 38, 0
1, 14760, Note_on_c, 9, 38, 70
1, 14879, Note_on_c, 9, 35, 0
1, 14879, Note_on_c, 9, 38, 0
1, 14880, Note_on_c, 9, 38, 100
1, 15119, Note_on_c, 9, 38, 0
1, 15120, Note_on_c, 9, 38, 100
1, 15120, Note_on_c, 9, 42, 70
1, 15359, Note_on_c, 9, 38, 0
1, 15359, Note_on_c, 9, 42, 0
1, 15360, Note_on_c, 9, 42, 90
1, 15360, Note_on_c, 9, 49, 90
1, 15360, Note_on_c, 9, 35, 90
1, 15599, Note_on_c, 9, 42, 0
1, 15599, Note_on_c, 9, 49, 0
1, 15600, Note_on_c, 9, 42, 70
1, 15839, Note_on_c, 9, 35, 0
1, 15839, Note_on_c, 9, 42, 0
1, 15840, Note_on_c, 9, 38, 100
1, 15840, Note_on_c, 9, 42, 115
1, 16079, Note_on_c, 9, 38, 0
1, 16079, Note_on_c, 9, 42, 0
1, 16080, Note_on_c, 9, 42, 70
1, 16080, Note_on_c, 9, 35, 80
1, 16319, Note_on_c, 9, 42, 0
1, 16319, Note_on_c, 9, 35, 0
1, 16320, Note_on_c, 9, 42, 90
1, 16320, Note_on_c, 9, 35, 100
1, 16559, Note_on_c, 9, 42, 0
1, 16560, Note_on_c, 9, 42, 70
1, 16799, Note_on_c, 9, 35, 0
1, 16799, Note_on_c, 9, 42, 0
1, 16800, Note_on_c, 9, 38, 100
1, 16800, Note_on_c, 9, 42, 100
1, 17039, Note_on_c, 9, 38, 0
1, 17039, Note_on_c, 9, 42, 0
1, 17040, Note_on_c, 9, 42, 70
1, 17279, Note_on_c, 9, 42, 0
1, 17280, Note_on_c, 9, 42, 90
1, 17280, Note_on_c, 9, 35, 90
1, 17519, Note_on_c, 9, 42, 0
1, 17520, Note_on_c, 9, 42, 70
1, 17759, Note_on_c, 9, 35, 0
1, 17759, Note_on_c, 9, 42, 0
1, 17760, Note_on_c, 9, 38, 100
1, 17760, Note_on_c, 9, 42, 115
1, 17999, Note_on_c, 9, 38, 0
1, 17999, Note_on_c, 9, 42, 0
1, 18000, Note_on_c, 9, 42, 75
1, 18000, Note_on_c, 9, 35, 80
1, 18239, Note_on_c, 9, 42, 0
1, 18239, Note_on_c, 9, 35, 0
1, 18240, Note_on_c, 9, 42, 90
1, 18240, Note_on_c, 9, 35, 100
1, 18479, Note_on_c, 9, 42, 0
1, 18480, Note_on_c, 9, 42, 70
1, 18719, Note_on_c, 9, 35, 0
1, 18719, Note_on_c, 9, 42, 0
1, 18720, Note_on_c, 9, 38, 100
1, 18720, Note_on_c, 9, 54, 115
1, 18720, Note_on_c, 9, 42, 100
1, 18959, Note_on_c, 9, 38, 0
1, 18959, Note_on_c, 9, 54, 0
1, 18959, Note_on_c, 9, 42, 0
1, 18960, Note_on_c, 9, 46, 80
1, 18960, Note_on_c, 9, 35, 70
1, 19199, Note_on_c, 9, 46, 0
1, 19199, Note_on_c, 9, 35, 0
1, 19200, Note_on_c, 9, 42, 90
1, 19200, Note_on_c, 9, 35, 90
1, 19439, Note_on_c, 9, 42, 0
1, 19440, Note_on_c, 9, 42, 70
1, 19679, Note_on_c, 9, 35, 0
1, 19679, Note_on_c, 9, 42, 0
1, 19680, Note_on_c, 9, 38, 100
1, 19680, Note_on_c, 9, 42, 115
1, 19919, Note_on_c, 9, 38, 0
1, 19919, Note_on_c, 9, 42, 0
1, 19920, Note_on_c, 9, 42, 70
1, 19920, Note_on_c, 9, 35, 80
1, 20159, Note_on_c, 9, 42, 0
1, 20159, Note_on_c, 9, 35, 0
1, 20160, Note_on_c, 9, 42, 90
1, 20160, Note_on_c, 9, 35, 100
1, 20399, Note_on_c, 9, 42, 0
1, 20400, Note_on_c, 9, 42, 70
1, 20639, Note_on_c, 9, 35, 0
1, 20639, Note_on_c, 9, 42, 0
1, 20640, Note_on_c, 9, 38, 100
1, 20640, Note_on_c, 9, 42, 100
1, 20879, Note_on_c, 9, 38, 0
1, 20879, Note_on_c, 9, 42, 0
1, 20880, Note_on_c, 9, 42, 70
1, 21119, Note_on_c, 9, 42, 0
1, 21120, Note_on_c, 9, 42, 90
1, 21120, Note_on_c, 9, 35, 90
1, 21359, Note_on_c, 9, 42, 0
1, 21360, Note_on_c, 9, 42, 70
1, 21599, Note_on_c, 9, 35, 0
1, 21599, Note_on_c, 9, 42, 0
1, 21600, Note_on_c, 9, 38, 100
1, 21600, Note_on_c, 9, 42, 115
1, 21839, Note_on_c, 9, 38, 0
1, 21839, Note_on_c, 9, 42, 0
1, 21840, Note_on_c, 9, 42, 75
1, 21840, Note_on_c, 9, 35, 80
1, 22079, Note_on_c, 9, 42, 0
1, 22079, Note_on_c, 9, 35, 0
1, 22080, Note_on_c, 9, 42, 90
1, 22080, Note_on_c, 9, 35, 100
1, 22319, Note_on_c, 9, 42, 0
1, 22320, Note_on_c, 9, 42, 70
1, 22559, Note_on_c, 9, 35, 0
1, 22559, Note_on_c, 9, 42, 0
1, 22560, Note_on_c, 9, 38, 100
1, 22560, Note_on_c, 9, 54, 115
1, 22560, Note_on_c, 9, 42, 100
1, 22799, Note_on_c, 9, 38, 0
1, 22799, Note_on_c, 9, 54, 0
1, 22799, Note_on_c, 9, 42, 0
1, 22800, Note_on_c, 9, 46, 80
1, 22800, Note_on_c, 9, 35, 70
1, 23039, Note_on_c, 9, 46, 0
1, 23039, Note_on_c, 9, 35, 0
1, 23040, Note_on_c, 9, 42, 90
1, 23040, Note_on_c, 9, 35, 90
1, 23279, Note_on_c, 9, 42, 0
1, 23280, Note_on_c, 9, 42, 70
1, 23519, Note_on_c, 9, 35, 0
1, 23519, Note_on_c, 9, 42, 0
1, 23520, Note_on_c, 9, 38, 100
1, 23520, Note_on_c, 9, 42, 115
1, 23759, Note_on_c, 9, 38, 0
1, 23759, Note_on_c, 9, 42, 0
1, 23760, Note_on_c, 9, 42, 70
1, 23760, Note_on_c, 9, 35, 80
1, 23999, Note_on_c, 9, 42, 0
1, 23999, Note_on_c, 9, 35, 0
1, 24000, Note_on_c, 9, 42, 90
1, 24000, Note_on_c, 9, 35, 100
1, 24239, Note_on_c, 9, 42, 0
1, 24240, Note_on_c, 9, 42, 70
1, 24479, Note_on_c, 9, 35, 0
1, 24479, Note_on_c, 9, 42, 0
1, 24480, Note_on_c, 9, 38, 100
1, 24480, Note_on_c, 9, 42, 100
1, 24719, Note_on_c, 9, 38, 0
1, 24719, Note_on_c, 9, 42, 0
1, 24720, Note_on_c, 9, 42, 70
1, 24959, Note_on_c, 9, 42, 0
1, 24960, Note_on_c, 9, 42, 90
1, 24960, Note_on_c, 9, 35, 90
1, 25199, Note_on_c, 9, 42, 0
1, 25200, Note_on_c, 9, 42, 70
1, 25439, Note_on_c, 9, 35, 0
1, 25439, Note_on_c, 9, 42, 0
1, 25440, Note_on_c, 9, 38, 100
1, 25440, Note_on_c, 9, 42, 115
1, 25679, Note_on_c, 9, 38, 0
1, 25679, Note_on_c, 9, 42, 0
1, 25680, Note_on_c, 9, 42, 75
1, 25680, Note_on_c, 9, 35, 80
1, 25919, Note_on_c, 9, 42, 0
1, 25919, Note_on_c, 9, 35, 0
1, 25920, Note_on_c, 9, 42, 90
1, 25920, Note_on_c, 9, 35, 100
1, 26159, Note_on_c, 9, 42, 0
1, 26160, Note_on_c, 9, 42, 70
1, 26399, Note_on_c, 9, 35, 0
1, 26399, Note_on_c, 9, 42, 0
1, 26400, Note_on_c, 9, 38, 100
1, 26400, Note_on_c, 9, 54, 115
1, 26400, Note_on_c, 9, 42, 100
1, 26639, Note_on_c, 9, 38, 0
1, 26639, Note_on_c, 9, 54, 0
1, 26639, Note_on_c, 9, 42, 0
1, 26640, Note_on_c, 9, 46, 80
1, 26640, Note_on_c, 9, 35, 70
1, 26879, Note_on_c, 9, 46, 0
1, 26879, Note_on_c, 9, 35, 0
1, 26880, Note_on_c, 9, 42, 90
1, 26880, Note_on_c, 9, 35, 90
1, 27119, Note_on_c, 9, 42, 0
1, 27120, Note_on_c, 9, 42, 70
1, 27359, Note_on_c, 9, 35, 0
1, 27359, Note_on_c, 9, 42, 0
1, 27360, Note_on_c, 9, 38, 100
1, 27360, Note_on_c, 9, 42, 115
1, 27599, Note_on_c, 9, 38, 0
1, 27599, Note_on_c, 9, 42, 0
1, 27600, Note_on_c, 9, 42, 70
1, 27600, Note_on_c, 9, 35, 80
1, 27839, Note_on_c, 9, 42, 0
1, 27839, Note_on_c, 9, 35, 0
1, 27840, Note_on_c, 9, 42, 90
1, 27840, Note_on_c, 9, 35, 100
1, 28079, Note_on_c, 9, 42, 0
1, 28080, Note_on_c, 9, 42, 70
1, 28319, Note_on_c, 9, 35, 0
1, 28319, Note_on_c, 9, 42, 0
1, 28320, Note_on_c, 9, 38, 100
1, 28320, Note_on_c, 9, 42, 100
1, 28559, Note_on_c, 9, 38, 0
1, 28559, Note_on_c, 9, 42, 0
1, 28560, Note_on_c, 9, 42, 70
1, 28799, Note_on_c, 9, 42, 0
1, 28800, Note_on_c, 9, 42, 90
1, 28800, Note_on_c, 9, 35, 90
1, 29039, Note_on_c, 9, 42, 0
1, 29040, Note_on_c, 9, 42, 70
1, 29279, Note_on_c, 9, 35, 0
1, 29279, Note_on_c, 9, 42, 0
1, 29280, Note_on_c, 9, 38, 100
1, 29280, Note_on_c, 9, 42, 115
1, 29519, Note_on_c, 9, 38, 0
1, 29519, Note_on_c, 9, 42, 0
1, 29520, Note_on_c, 9, 42, 70
1, 29520, Note_on_c, 9, 35, 80
1, 29759, Note_on_c, 9, 42, 0
1, 29759, Note_on_c, 9, 35, 0
1, 29760, Note_on_c, 9, 38, 100
1, 29760, Note_on_c, 9, 42, 90
1, 29760, Note_on_c, 9, 35, 100
1, 29879, Note_on_c, 9, 38, 0
1, 29879, Note_on_c, 9, 42, 0
1, 29880, Note_on_c, 9, 38, 70
1, 29999, Note_on_c, 9, 38, 0
1, 30000, Note_on_c, 9, 38, 90
1, 30119, Note_on_c, 9, 38, 0
1, 30120, Note_on_c, 9, 38, 70
1, 30239, Note_on_c, 9, 35, 0
1, 30239, Note_on_c, 9, 38, 0
1, 30240, Note_on_c, 9, 45, 90
1, 30359, Note_on_c, 9, 45, 0
1, 30360, Note_on_c, 9, 45, 80
1, 30479, Note_on_c, 9, 45, 0
1, 30480, Note_on_c, 9, 45, 100
1, 30599, Note_on_c, 9, 45, 0
1, 30600, Note_on_c, 9, 45, 80
1, 30719, Note_on_c, 9, 45, 0
1, 30720, Note_on_c, 9, 42, 90
1, 30720, Note_on_c, 9, 49, 90
1, 30720, Note_on_c, 9, 35, 90
1, 30959, Note_on_c, 9, 42, 0
1, 30959, Note_on_c, 9, 49, 0
1, 30960, Note_on_c, 9, 42, 70
1, 31199, Note_on_c, 9, 35, 0
1, 31199, Note_on_c, 9, 42, 0
1, 31200, Note_on_c, 9, 38, 100
1, 31200, Note_on_c, 9, 42, 115
1, 31439, Note_on_c, 9, 38, 0
1, 31439, Note_on_c, 9, 42, 0
1, 31440, Note_on_c, 9, 42, 70
1, 31440, Note_on_c, 9, 35, 80
1, 31679, Note_on_c, 9, 42, 0
1, 31679, Note_on_c, 9, 35, 0
1, 31680, Note_on_c, 9, 42, 90
1, 31680, Note_on_c, 9, 35, 100
1, 31919, Note_on_c, 9, 42, 0
1, 31920, Note_on_c, 9, 42, 70
1, 32159, Note_on_c, 9, 35, 0
1, 32159, Note_on_c, 9, 42, 0
1, 32160, Note_on_c, 9, 38, 100
1, 32160, Note_on_c, 9, 42, 100
1, 32399, Note_on_c, 9, 38, 0
1, 32399, Note_on_c, 9, 42, 0
1, 32400, Note_on_c, 9, 42, 70
1, 32639, Note_on_c, 9, 42, 0
1, 32640, Note_on_c, 9, 42, 90
1, 32640, Note_on_c, 9, 35, 90
1, 32879, Note_on_c, 9, 42, 0
1, 32880, Note_on_c, 9, 42, 70
1, 33119, Note_on_c, 9, 35, 0
1, 33119, Note_on_c, 9, 42, 0
1, 33120, Note_on_c, 9, 38, 100
1, 33120, Note_on_c, 9, 42, 115
1, 33359, Note_on_c, 9, 38, 0
1, 33359, Note_on_c, 9, 42, 0
1, 33360, Note_on_c, 9, 42, 75
1, 33360, Note_on_c, 9, 35, 80
1, 33599, Note_on_c, 9, 42, 0
1, 33599, Note_on_c, 9, 35, 0
1, 33600, Note_on_c, 9, 42, 90
1, 33600, Note_on_c, 9, 35, 100
1, 33839, Note_on_c, 9, 42, 0
1, 33840, Note_on_c, 9, 42, 70
1, 34079, Note_on_c, 9, 35, 0
1, 34079, Note_on_c, 9, 42, 0
1, 34080, Note_on_c, 9, 38, 100
1, 34080, Note_on_c, 9, 54, 115
1, 34080, Note_on_c, 9, 42, 100
1, 34319, Note_on_c, 9, 38, 0
1, 34319, Note_on_c, 9, 54, 0
1, 34319, Note_on_c, 9, 42, 0
1, 34320, Note_on_c, 9, 46, 80
1, 34320, Note_on_c, 9, 35, 70
1, 34559, Note_on_c, 9, 46, 0
1, 34559, Note_on_c, 9, 35, 0
1, 34560, Note_on_c, 9, 42, 100
1, 34560, Note_on_c, 9, 35, 90
1, 34799, Note_on_c, 9, 42, 0
1, 34800, Note_on_c, 9, 42, 70
1, 35039, Note_on_c, 9, 35, 0
1, 35039, Note_on_c, 9, 42, 0
1, 35040, Note_on_c, 9, 38, 100
1, 35040, Note_on_c, 9, 42, 115
1, 35279, Note_on_c, 9, 38, 0
1, 35279, Note_on_c, 9, 42, 0
1, 35280, Note_on_c, 9, 42, 70
1, 35280, Note_on_c, 9, 35, 80
1, 35519, Note_on_c, 9, 42, 0
1, 35519, Note_on_c, 9, 35, 0
1, 35520, Note_on_c, 9, 42, 90
1, 35520, Note_on_c, 9, 35, 100
1, 35759, Note_on_c, 9, 42, 0
1, 35760, Note_on_c, 9, 42, 70
1, 35999, Note_on_c, 9, 35, 0
1, 35999, Note_on_c, 9, 42, 0
1, 36000, Note_on_c, 9, 38, 100
1, 36000, Note_on_c, 9, 42, 100
1, 36239, Note_on_c, 9, 38, 0
1, 36239, Note_on_c, 9, 42, 0
1, 36240, Note_on_c, 9, 42, 70
1, 36479, Note_on_c, 9, 42, 0
1, 36480, Note_on_c, 9, 42, 90
1, 36480, Note_on_c, 9, 35, 90
1, 36719, Note_on_c, 9, 42, 0
1, 36720, Note_on_c, 9, 42, 70
1, 36959, Note_on_c, 9, 35, 0
1, 36959, Note_on_c, 9, 42, 0
1, 36960, Note_on_c, 9, 38, 100
1, 36960, Note_on_c, 9, 42, 115
1, 37199, Note_on_c, 9, 38, 0
1, 37199, Note_on_c, 9, 42, 0
1, 37200, Note_on_c, 9, 42, 80
1, 37200, Note_on_c, 9, 35, 80
1, 37439, Note_on_c, 9, 42, 0
1, 37439, Note_on_c, 9, 35, 0
1, 37440, Note_on_c, 9, 42, 90
1, 37440, Note_on_c, 9, 35, 100
1, 37679, Note_on_c, 9, 42, 0
1, 37680, Note_on_c, 9, 42, 70
1, 37919, Note_on_c, 9, 35, 0
1, 37919, Note_on_c, 9, 42, 0
1, 37920, Note_on_c, 9, 38, 100
1, 37920, Note_on_c, 9, 54, 115
1, 37920, Note_on_c, 9, 42, 100
1, 38159, Note_on_c, 9, 38, 0
1, 38159, Note_on_c, 9, 54, 0
1, 38159, Note_on_c, 9, 42, 0
1, 38160, Note_on_c, 9, 42, 70
1, 38160, Note_on_c, 9, 35, 70
1, 38399, Note_on_c, 9, 42, 0
1, 38399, Note_on_c, 9, 35, 0
1, 38400, Note_on_c, 9, 42, 90
1, 38400, Note_on_c, 9, 35, 90
1, 38519, Note_on_c, 9, 42, 0
1, 38520, Note_on_c, 9, 42, 60
1, 38639, Note_on_c, 9, 42, 0
1, 38640, Note_on_c, 9, 42, 70
1, 38879, Note_on_c, 9, 35, 0
1, 38879, Note_on_c, 9, 42, 0
1, 38880, Note_on_c, 9, 38, 100
1, 38880, Note_on_c, 9, 42, 115
1, 39119, Note_on_c, 9, 38, 0
1, 39119, Note_on_c, 9, 42, 0
1, 39120, Note_on_c, 9, 42, 70
1, 39120, Note_on_c, 9, 35, 80
1, 39359, Note_on_c, 9, 42, 0
1, 39359, Note_on_c, 9, 35, 0
1, 39360, Note_on_c, 9, 42, 90
1, 39360, Note_on_c, 9, 35, 100
1, 39599, Note_on_c, 9, 42, 0
1, 39600, Note_on_c, 9, 42, 70
1, 39839, Note_on_c, 9, 35, 0
1, 39839, Note_on_c, 9, 42, 0
1, 39840, Note_on_c, 9, 38, 100
1, 39840, Note_on_c, 9, 42, 100
1, 40079, Note_on_c, 9, 38, 0
1, 40079, Note_on_c, 9, 42, 0
1, 40080, Note_on_c, 9, 42, 70
1, 40199, Note_on_c, 9, 42, 0
1, 40200, Note_on_c, 9, 46, 60
1, 40319, Note_on_c, 9, 46, 0
1, 40320, Note_on_c, 9, 42, 90
1, 40320, Note_on_c, 9, 35, 90
1, 40559, Note_on_c, 9, 42, 0
1, 40560, Note_on_c, 9, 42, 70
1, 40799, Note_on_c, 9, 35, 0
1, 40799, Note_on_c, 9, 42, 0
1, 40800, Note_on_c, 9, 38, 100
1, 40800, Note_on_c, 9, 42, 115
1, 41039, Note_on_c, 9, 38, 0
1, 41039, Note_on_c, 9, 42, 0
1, 41040, Note_on_c, 9, 42, 75
1, 41040, Note_on_c, 9, 35, 80
1, 41279, Note_on_c, 9, 42, 0
1, 41279, Note_on_c, 9, 35, 0
1, 41280, Note_on_c, 9, 42, 90
1, 41280, Note_on_c, 9, 35, 100
1, 41519, Note_on_c, 9, 42, 0
1, 41520, Note_on_c, 9, 42, 70
1, 41759, Note_on_c, 9, 35, 0
1, 41759, Note_on_c, 9, 42, 0
1, 41760, Note_on_c, 9, 38, 100
1, 41760, Note_on_c, 9, 54, 115
1, 41760, Note_on_c, 9, 42, 100
1, 41999, Note_on_c, 9, 38, 0
1, 41999, Note_on_c, 9, 54, 0
1, 41999, Note_on_c, 9, 42, 0
1, 42000, Note_on_c, 9, 46, 80
1, 42000, Note_on_c, 9, 35, 70
1, 42239, Note_on_c, 9, 46, 0
1, 42239, Note_on_c, 9, 35, 0
1, 42240, Note_on_c, 9, 42, 90
1, 42240, Note_on_c, 9, 35, 90
1, 42479, Note_on_c, 9, 42, 0
1, 42480, Note_on_c, 9, 42, 70
1, 42719, Note_on_c, 9, 35, 0
1, 42719, Note_on_c, 9, 42, 0
1, 42720, Note_on_c, 9, 38, 100
1, 42720, Note_on_c, 9, 42, 115
1, 42959, Note_on_c, 9, 38, 0
1, 42959, Note_on_c, 9, 42, 0
1, 42960, Note_on_c, 9, 42, 70
1, 42960, Note_on_c, 9, 35, 80
1, 43199, Note_on_c, 9, 42, 0
1, 43199, Note_on_c, 9, 35, 0
1, 43200, Note_on_c, 9, 42, 90
1, 43200, Note_on_c, 9, 35, 100
1, 43439, Note_on_c, 9, 42, 0
1, 43440, Note_on_c, 9, 42, 70
1, 43679, Note_on_c, 9, 35, 0
1, 43679, Note_on_c, 9, 42, 0
1, 43680, Note_on_c, 9, 38, 100
1, 43680, Note_on_c, 9, 42, 100
1, 43919, Note_on_c, 9, 38, 0
1, 43919, Note_on_c, 9, 42, 0
1, 43920, Note_on_c, 9, 42, 70
1, 44159, Note_on_c, 9, 42, 0
1, 44160, Note_on_c, 9, 42, 90
1, 44160, Note_on_c, 9, 35, 90
1, 44399, Note_on_c, 9, 42, 0
1, 44400, Note_on_c, 9, 42, 70
1, 44639, Note_on_c, 9, 35, 0
1, 44639, Note_on_c, 9, 42, 0
1, 44640, Note_on_c, 9, 38, 100
1, 44640, Note_on_c, 9, 42, 115
1, 44879, Note_on_c, 9, 38, 0
1, 44879, Note_on_c, 9, 42, 0
1, 44880, Note_on_c, 9, 42, 70
1, 44880, Note_on_c, 9, 35, 80
1, 45119, Note_on_c, 9, 42, 0
1, 45119, Note_on_c, 9, 35, 0
1, 45120, Note_on_c, 9, 42, 90
1, 45120, Note_on_c, 9, 35, 100
1, 45359, Note_on_c, 9, 42, 0
1, 45360, Note_on_c, 9, 38, 90
1, 45479, Note_on_c, 9, 38, 0
1, 45480, Note_on_c, 9, 38, 70
1, 45599, Note_on_c, 9, 35, 0
1, 45599, Note_on_c, 9, 38, 0
1, 45600, Note_on_c, 9, 38, 100
1, 45839, Note_on_c, 9, 38, 0
1, 45840, Note_on_c, 9, 38, 100
1, 45840, Note_on_c, 9, 42, 70
1, 46079, Note_on_c, 9, 38, 0
1, 46079, Note_on_c, 9, 42, 0
1, 46080, Note_on_c, 9, 42, 90
1, 46080, Note_on_c, 9, 49, 90
1, 46080, Note_on_c, 9, 35, 90
1, 46319, Note_on_c, 9, 42, 0
1, 46319, Note_on_c, 9, 49, 0
1, 46320, Note_on_c, 9, 42, 70
1, 46559, Note_on_c, 9, 35, 0
1, 46559, Note_on_c, 9, 42, 0
1, 46560, Note_on_c, 9, 38, 100
1, 46560, Note_on_c, 9, 42, 115
1, 46799, Note_on_c, 9, 38, 0
1, 46799, Note_on_c, 9, 42, 0
1, 46800, Note_on_c, 9, 42, 70
1, 46800, Note_on_c, 9, 35, 80
1, 47039, Note_on_c, 9, 42, 0
1, 47039, Note_on_c, 9, 35, 0
1, 47040, Note_on_c, 9, 42, 90
1, 47040, Note_on_c, 9, 35, 100
1, 47279, Note_on_c, 9, 42, 0
1, 47280, Note_on_c, 9, 42, 70
1, 47519, Note_on_c, 9, 35, 0
1, 47519, Note_on_c, 9, 42, 0
1, 47520, Note_on_c, 9, 38, 100
1, 47520, Note_on_c, 9, 42, 100
1, 47759, Note_on_c, 9, 38, 0
1, 47759, Note_on_c, 9, 42, 0
1, 47760, Note_on_c, 9, 42, 70
1, 47999, Note_on_c, 9, 42, 0
1, 48000, Note_on_c, 9, 42, 90
1, 48000, Note_on_c, 9, 35, 90
1, 48239, Note_on_c, 9, 42, 0
1, 48240, Note_on_c, 9, 42, 70
1, 48479, Note_on_c, 9, 35, 0
1, 48479, Note_on_c, 9, 42, 0
1, 48480, Note_on_c, 9, 38, 100
1, 48480, Note_on_c, 9, 42, 115
1, 48719, Note_on_c, 9, 38, 0
1, 48719, Note_on_c, 9, 42, 0
1, 48720, Note_on_c, 9, 42, 80
1, 48720, Note_on_c, 9, 35, 80
1, 48959, Note_on_c, 9, 42, 0
1, 48959, Note_on_c, 9, 35, 0
1, 48960, Note_on_c, 9, 42, 90
1, 48960, Note_on_c, 9, 35, 100
1, 49199, Note_on_c, 9, 42, 0
1, 49200, Note_on_c, 9, 42, 70
1, 49439, Note_on_c, 9, 35, 0
1, 49439, Note_on_c, 9, 42, 0
1, 49440, Note_on_c, 9, 38, 100
1, 49440, Note_on_c, 9, 54, 115
1, 49440, Note_on_c, 9, 42, 100
1, 49679, Note_on_c, 9, 38, 0
1, 49679, Note_on_c, 9, 54, 0
1, 49679, Note_on_c, 9, 42, 0
1, 49680, Note_on_c, 9, 42, 70
1, 49680, Note_on_c, 9, 35, 70
1, 49919, Note_on_c, 9, 42, 0
1, 49919, Note_on_c, 9, 35, 0
1, 49920, Note_on_c, 9, 42, 90
1, 49920, Note_on_c, 9, 35, 90
1, 50039, Note_on_c, 9, 42, 0
1, 50040, Note_on_c, 9, 42, 60
1, 50159, Note_on_c, 9, 42, 0
1, 50160, Note_on_c, 9, 42, 70
1, 50399, Note_on_c, 9, 35, 0
1, 50399, Note_on_c, 9, 42, 0
1, 50400, Note_on_c, 9, 38, 100
1, 50400, Note_on_c, 9, 42, 115
1, 50639, Note_on_c, 9, 38, 0
1, 50639, Note_on_c, 9, 42, 0
1, 50640, Note_on_c, 9, 42, 70
1, 50640, Note_on_c, 9, 35, 80
1, 50879, Note_on_c, 9, 42, 0
1, 50879, Note_on_c, 9, 35, 0
1, 50880, Note_on_c, 9, 42, 90
1, 50880, Note_on_c, 9, 35, 100
1, 51119, Note_on_c, 9, 42, 0
1, 51120, Note_on_c, 9, 42, 70
1, 51359, Note_on_c, 9, 35, 0
1, 51359, Note_on_c, 9, 42, 0
1, 51360, Note_on_c, 9, 38, 100
1, 51360, Note_on_c, 9, 42, 100
1, 51599, Note_on_c, 9, 38, 0
1, 51599, Note_on_c, 9, 42, 0
1, 51600, Note_on_c, 9, 42, 110
1, 51839, Note_on_c, 9, 42, 0
1, 51840, Note_on_c, 9, 42, 90
1, 51840, Note_on_c, 9, 35, 90
1, 52079, Note_on_c, 9, 42, 0
1, 52080, Note_on_c, 9, 42, 70
1, 52319, Note_on_c, 9, 35, 0
1, 52319, Note_on_c, 9, 42, 0
1, 52320, Note_on_c, 9, 38, 100
1, 52320, Note_on_c, 9, 42, 115
1, 52559, Note_on_c, 9, 38, 0
1, 52559, Note_on_c, 9, 42, 0
1, 52560, Note_on_c, 9, 42, 80
1, 52560, Note_on_c, 9, 35, 80
1, 52799, Note_on_c, 9, 42, 0
1, 52799, Note_on_c, 9, 35, 0
1, 52800, Note_on_c, 9, 42, 90
1, 52800, Note_on_c, 9, 35, 100
1, 53039, Note_on_c, 9, 42, 0
1, 53040, Note_on_c, 9, 42, 70
1, 53279, Note_on_c, 9, 35, 0
1, 53279, Note_on_c, 9, 42, 0
1, 53280, Note_on_c, 9, 38, 100
1, 53280, Note_on_c, 9, 54, 115
1, 53280, Note_on_c, 9, 42, 100
1, 53519, Note_on_c, 9, 38, 0
1, 53519, Note_on_c, 9, 54, 0
1, 53519, Note_on_c, 9, 42, 0
1, 53520, Note_on_c, 9, 42, 70
1, 53520, Note_on_c, 9, 35, 70
1, 53759, Note_on_c, 9, 42, 0
1, 53759, Note_on_c, 9, 35, 0
1, 53760, Note_on_c, 9, 42, 90
1, 53760, Note_on_c, 9, 35, 90
1, 53999, Note_on_c, 9, 42, 0
1, 54000, Note_on_c, 9, 42, 70
1, 54239, Note_on_c, 9, 35, 0
1, 54239, Note_on_c, 9, 42, 0
1, 54240, Note_on_c, 9, 38, 100
1, 54240, Note_on_c, 9, 42, 115
1, 54479, Note_on_c, 9, 38, 0
1, 54479, Note_on_c, 9, 42, 0
1, 54480, Note_on_c, 9, 42, 70
1, 54480, Note_on_c, 9, 35, 80
1, 54719, Note_on_c, 9, 42, 0
1, 54719, Note_on_c, 9, 35, 0
1, 54720, Note_on_c, 9, 42, 90
1, 54720, Note_on_c, 9, 35, 100
1, 54959, Note_on_c, 9, 42, 0
1, 54960, Note_on_c, 9, 42, 70
1, 55199, Note_on_c, 9, 35, 0
1, 55199, Note_on_c, 9, 42, 0
1, 55200, Note_on_c, 9, 38, 100
1, 55200, Note_on_c, 9, 42, 100
1, 55439, Note_on_c, 9, 38, 0
1, 55439, Note_on_c, 9, 42, 0
1, 55440, Note_on_c, 9, 42, 70
1, 55679, Note_on_c, 9, 42, 0
1, 55680, Note_on_c, 9, 42, 90
1, 55680, Note_on_c, 9, 35, 90
1, 55919, Note_on_c, 9, 42, 0
1, 55920, Note_on_c, 9, 42, 70
1, 56159, Note_on_c, 9, 35, 0
1, 56159, Note_on_c, 9, 42, 0
1, 56160, Note_on_c, 9, 38, 100
1, 56160, Note_on_c, 9, 42, 115
1, 56399, Note_on_c, 9, 38, 0
1, 56399, Note_on_c, 9, 42, 0
1, 56400, Note_on_c, 9, 42, 75
1, 56400, Note_on_c, 9, 35, 80
1, 56639, Note_on_c, 9, 42, 0
1, 56639, Note_on_c, 9, 35, 0
1, 56640, Note_on_c, 9, 42, 90
1, 56640, Note_on_c, 9, 35, 100
1, 56879, Note_on_c, 9, 42, 0
1, 56880, Note_on_c, 9, 42, 70
1, 57119, Note_on_c, 9, 35, 0
1, 57119, Note_on_c, 9, 42, 0
1, 57120, Note_on_c, 9, 38, 100
1, 57120, Note_on_c, 9, 54, 115
1, 57120, Note_on_c, 9, 42, 100
1, 57359, Note_on_c, 9, 38, 0
1, 57359, Note_on_c, 9, 54, 0
1, 57359, Note_on_c, 9, 42, 0
1, 57360, Note_on_c, 9, 46, 80
1, 57360, Note_on_c, 9, 35, 70
1, 57599, Note_on_c, 9, 46, 0
1, 57599, Note_on_c, 9, 35, 0
1, 57600, Note_on_c, 9, 42, 90
1, 57600, Note_on_c, 9, 35, 90
1, 57719, Note_on_c, 9, 42, 0
1, 57720, Note_on_c, 9, 42, 60
1, 57839, Note_on_c, 9, 42, 0
1, 57840, Note_on_c, 9, 42, 70
1, 58079, Note_on_c, 9, 35, 0
1, 58079, Note_on_c, 9, 42, 0
1, 58080, Note_on_c, 9, 38, 100
1, 58080, Note_on_c, 9, 42, 115
1, 58319, Note_on_c, 9, 38, 0
1, 58319, Note_on_c, 9, 42, 0
1, 58320, Note_on_c, 9, 42, 70
1, 58320, Note_on_c, 9, 35, 80
1, 58559, Note_on_c, 9, 42, 0
1, 58559, Note_on_c, 9, 35, 0
1, 58560, Note_on_c, 9, 42, 90
1, 58560, Note_on_c, 9, 35, 100
1, 58799, Note_on_c, 9, 42, 0
1, 58800, Note_on_c, 9, 42, 70
1, 59039, Note_on_c, 9, 35, 0
1, 59039, Note_on_c, 9, 42, 0
1, 59040, Note_on_c, 9, 38, 100
1, 59040, Note_on_c, 9, 42, 100
1, 59279, Note_on_c, 9, 38, 0
1, 59279, Note_on_c, 9, 42, 0
1, 59280, Note_on_c, 9, 42, 70
1, 59519, Note_on_c, 9, 42, 0
1, 59520, Note_on_c, 9, 42, 90
1, 59520, Note_on_c, 9, 35, 90
1, 59759, Note_on_c, 9, 42, 0
1, 59760, Note_on_c, 9, 42, 70
1, 59999, Note_on_c, 9, 35, 0
1, 59999, Note_on_c, 9, 42, 0
1, 60000, Note_on_c, 9, 38, 100
1, 60000, Note_on_c, 9, 42, 115
1, 60239, Note_on_c, 9, 38, 0
1, 60239, Note_on_c, 9, 42, 0
1, 60240, Note_on_c, 9, 42, 70
1, 60240, Note_on_c, 9, 35, 80
1, 60479, Note_on_c, 9, 42, 0
1, 60479, Note_on_c, 9, 35, 0
1, 60480, Note_on_c, 9, 42, 90
1, 60480, Note_on_c, 9, 35, 100
1, 60719, Note_on_c, 9, 42, 0
1, 60720, Note_on_c, 9, 38, 90
1, 60839, Note_on_c, 9, 38, 0
1, 60840, Note_on_c, 9, 38, 70
1, 60959, Note_on_c, 9, 35, 0
1, 60959, Note_on_c, 9, 38, 0
1, 60960, Note_on_c, 9, 38, 100
1, 61199, Note_on_c, 9, 38, 0
1, 61200, Note_on_c, 9, 38, 100
1, 61200, Note_on_c, 9, 42, 70
1, 61439, Note_on_c, 9, 38, 0
1, 61439, Note_on_c, 9, 42, 0
1, 61440, Note_on_c, 9, 42, 90
1, 61440, Note_on_c, 9, 49, 90
1, 61440, Note_on_c, 9, 35, 90
1, 61679, Note_on_c, 9, 42, 0
1, 61679, Note_on_c, 9, 49, 0
1, 61680, Note_on_c, 9, 42, 70
1, 61919, Note_on_c, 9, 35, 0
1, 61919, Note_on_c, 9, 42, 0
1, 61920, Note_on_c, 9, 38, 100
1, 61920, Note_on_c, 9, 42, 115
1, 62159, Note_on_c, 9, 38, 0
1, 62159, Note_on_c, 9, 42, 0
1, 62160, Note_on_c, 9, 42, 70
1, 62160, Note_on_c, 9, 35, 80
1, 62399, Note_on_c, 9, 42, 0
1, 62399, Note_on_c, 9, 35, 0
1, 62400, Note_on_c, 9, 42, 90
1, 62400, Note_on_c, 9, 35, 100
1, 62639, Note_on_c, 9, 42, 0
1, 62640, Note_on_c, 9, 42, 70
1, 62879, Note_on_c, 9, 35, 0
1, 62879, Note_on_c, 9, 42, 0
1, 62880, Note_on_c, 9, 38, 100
1, 62880, Note_on_c, 9, 42, 100
1, 63119, Note_on_c, 9, 38, 0
1, 63119, Note_on_c, 9, 42, 0
1, 63120, Note_on_c, 9, 42, 70
1, 63359, Note_on_c, 9, 42, 0
1, 63360, Note_on_c, 9, 42, 90
1, 63360, Note_on_c, 9, 35, 90
1, 63599, Note_on_c, 9, 42, 0
1, 63600, Note_on_c, 9, 42, 70
1, 63839, Note_on_c, 9, 35, 0
1, 63839, Note_on_c, 9, 42, 0
1, 63840, Note_on_c, 9, 38, 100
1, 63840, Note_on_c, 9, 42, 115
1, 64079, Note_on_c, 9, 38, 0
1, 64079, Note_on_c, 9, 42, 0
1, 64080, Note_on_c, 9, 42, 80
1, 64080, Note_on_c, 9, 35, 80
1, 64319, Note_on_c, 9, 42, 0
1, 64319, Note_on_c, 9, 35, 0
1, 64320, Note_on_c, 9, 42, 90
1, 64320, Note_on_c, 9, 35, 100
1, 64559, Note_on_c, 9, 42, 0
1, 64560, Note_on_c, 9, 42, 70
1, 64799, Note_on_c, 9, 35, 0
1, 64799, Note_on_c, 9, 42, 0
1, 64800, Note_on_c, 9, 38, 100
1, 64800, Note_on_c, 9, 54, 115
1, 64800, Note_on_c, 9, 42, 100
1, 65039, Note_on_c, 9, 38, 0
1, 65039, Note_on_c, 9, 54, 0
1, 65039, Note_on_c, 9, 42, 0
1, 65040, Note_on_c, 9, 42, 70
1, 65040, Note_on_c, 9, 35, 70
1, 65279, Note_on_c, 9, 42, 0
1, 65279, Note_on_c, 9, 35, 0
1, 65280, Note_on_c, 9, 42, 90
1, 65280, Note_on_c, 9, 35, 90
1, 65519, Note_on_c, 9, 42, 0
1, 65520, Note_on_c, 9, 42, 70
1, 65759, Note_on_c, 9, 35, 0
1, 65759, Note_on_c, 9, 42, 0
1, 65760, Note_on_c, 9, 38, 100
1, 65760, Note_on_c, 9, 42, 115
1, 65999, Note_on_c, 9, 38, 0
1, 65999, Note_on_c, 9, 42, 0
1, 66000, Note_on_c, 9, 42, 70
1, 66000, Note_on_c, 9, 35, 80
1, 66239, Note_on_c, 9, 42, 0
1, 66239, Note_on_c, 9, 35, 0
1, 66240, Note_on_c, 9, 42, 90
1, 66240, Note_on_c, 9, 35, 100
1, 66479, Note_on_c, 9, 42, 0
1, 66480, Note_on_c, 9, 42, 70
1, 66719, Note_on_c, 9, 35, 0
1, 66719, Note_on_c, 9, 42, 0
1, 66720, Note_on_c, 9, 38, 100
1, 66720, Note_on_c, 9, 42, 100
1, 66959, Note_on_c, 9, 38, 0
1, 66959, Note_on_c, 9, 42, 0
1, 66960, Note_on_c, 9, 42, 70
1, 67199, Note_on_c, 9, 42, 0
1, 67200, Note_on_c, 9, 42, 90
1, 67200, Note_on_c, 9, 35, 90
1, 67439, Note_on_c, 9, 42, 0
1, 67440, Note_on_c, 9, 42, 70
1, 67679, Note_on_c, 9, 35, 0
1, 67679, Note_on_c, 9, 42, 0
1, 67680, Note_on_c, 9, 38, 100
1, 67680, Note_on_c, 9, 42, 115
1, 67919, Note_on_c, 9, 38, 0
1, 67919, Note_on_c, 9, 42, 0
1, 67920, Note_on_c, 9, 42, 75
1, 67920, Note_on_c, 9, 35, 80
1, 68159, Note_on_c, 9, 42, 0
1, 68159, Note_on_c, 9, 35, 0
1, 68160, Note_on_c, 9, 42, 90
1, 68160, Note_on_c, 9, 35, 100
1, 68399, Note_on_c, 9, 42, 0
1, 68400, Note_on_c, 9, 42, 70
1, 68639, Note_on_c, 9, 35, 0
1, 68639, Note_on_c, 9, 42, 0
1, 68640, Note_on_c, 9, 38, 100
1, 68640, Note_on_c, 9, 54, 115
1, 68640, Note_on_c, 9, 42, 100
1, 68879, Note_on_c, 9, 38, 0
1, 68879, Note_on_c, 9, 54, 0
1, 68879, Note_on_c, 9, 42, 0
1, 68880, Note_on_c, 9, 46, 80
1, 68880, Note_on_c, 9, 35, 70
1, 69119, Note_on_c, 9, 46, 0
1, 69119, Note_on_c, 9, 35, 0
1, 69120, Note_on_c, 9, 42, 90
1, 69120, Note_on_c, 9, 35, 90
1, 69359, Note_on_c, 9, 42, 0
1, 69360, Note_on_c, 9, 42, 70
1, 69599, Note_on_c, 9, 35, 0
1, 69599, Note_on_c, 9, 42, 0
1, 69600, Note_on_c, 9, 38, 100
1, 69600, Note_on_c, 9, 42, 115
1, 69839, Note_on_c, 9, 38, 0
1, 69839, Note_on_c, 9, 42, 0
1, 69840, Note_on_c, 9, 42, 70
1, 69840, Note_on_c, 9, 35, 80
1, 70079, Note_on_c, 9, 42, 0
1, 70079, Note_on_c, 9, 35, 0
1, 70080, Note_on_c, 9, 42, 90
1, 70080, Note_on_c, 9, 35, 100
1, 70319, Note_on_c, 9, 42, 0
1, 70320, Note_on_c, 9, 42, 70
1, 70559, Note_on_c, 9, 35, 0
1, 70559, Note_on_c, 9, 42, 0
1, 70560, Note_on_c, 9, 38, 100
1, 70560, Note_on_c, 9, 42, 100
1, 70799, Note_on_c, 9, 38, 0
1, 70799, Note_on_c, 9, 42, 0
1, 70800, Note_on_c, 9, 42, 70
1, 71039, Note_on_c, 9, 42, 0
1, 71040, Note_on_c, 9, 42, 90
1, 71040, Note_on_c, 9, 35, 90
1, 71279, Note_on_c, 9, 42, 0
1, 71280, Note_on_c, 9, 42, 70
1, 71519, Note_on_c, 9, 35, 0
1, 71519, Note_on_c, 9, 42, 0
1, 71520, Note_on_c, 9, 38, 100
1, 71520, Note_on_c, 9, 42, 115
1, 71759, Note_on_c, 9, 38, 0
1, 71759, Note_on_c, 9, 42, 0
1, 71760, Note_on_c, 9, 42, 75
1, 71760, Note_on_c, 9, 35, 80
1, 71999, Note_on_c, 9, 42, 0
1, 71999, Note_on_c, 9, 35, 0
1, 72000, Note_on_c, 9, 42, 90
1, 72000, Note_on_c, 9, 35, 100
1, 72239, Note_on_c, 9, 42, 0
1, 72240, Note_on_c, 9, 42, 70
1, 72479, Note_on_c, 9, 35, 0
1, 72479, Note_on_c, 9, 42, 0
1, 72480, Note_on_c, 9, 38, 100
1, 72480, Note_on_c, 9, 54, 115
1, 72480, Note_on_c, 9, 42, 100
1, 72719, Note_on_c, 9, 38, 0
1, 72719, Note_on_c, 9, 54, 0
1, 72719, Note_on_c, 9, 42, 0
1, 72720, Note_on_c, 9, 46, 80
1, 72720, Note_on_c, 9, 35, 70
1, 72959, Note_on_c, 9, 46, 0
1, 72959, Note_on_c, 9, 35, 0
1, 72960, Note_on_c, 9, 42, 90
1, 72960, Note_on_c, 9, 35, 90
1, 73199, Note_on_c, 9, 42, 0
1, 73200, Note_on_c, 9, 42, 70
1, 73439, Note_on_c, 9, 35, 0
1, 73439, Note_on_c, 9, 42, 0
1, 73440, Note_on_c, 9, 38, 100
1, 73440, Note_on_c, 9, 42, 115
1, 73679, Note_on_c, 9, 38, 0
1, 73679, Note_on_c, 9, 42, 0
1, 73680, Note_on_c, 9, 42, 70
1, 73680, Note_on_c, 9, 35, 80
1, 73919, Note_on_c, 9, 42, 0
1, 73919, Note_on_c, 9, 35, 0
1, 73920, Note_on_c, 9, 42, 90
1, 73920, Note_on_c, 9, 35, 100
1, 74159, Note_on_c, 9, 42, 0
1, 74160, Note_on_c, 9, 42, 70
1, 74399, Note_on_c, 9, 35, 0
1, 74399, Note_on_c, 9, 42, 0
1, 74400, Note_on_c, 9, 38, 100
1, 74400, Note_on_c, 9, 42, 100
1, 74639, Note_on_c, 9, 38, 0
1, 74639, Note_on_c, 9, 42, 0
1, 74640, Note_on_c, 9, 42, 70
1, 74879, Note_on_c, 9, 42, 0
1, 74880, Note_on_c, 9, 42, 90
1, 74880, Note_on_c, 9, 35, 90
1, 75119, Note_on_c, 9, 42, 0
1, 75120, Note_on_c, 9, 42, 70
1, 75359, Note_on_c, 9, 35, 0
1, 75359, Note_on_c, 9, 42, 0
1, 75360, Note_on_c, 9, 38, 100
1, 75360, Note_on_c, 9, 42, 115
1, 75599, Note_on_c, 9, 38, 0
1, 75599, Note_on_c, 9, 42, 0
1, 75600, Note_on_c, 9, 42, 70
1, 75600, Note_on_c, 9, 35, 80
1, 75839, Note_on_c, 9, 42, 0
1, 75839, Note_on_c, 9, 35, 0
1, 75840, Note_on_c, 9, 42, 90
1, 75840, Note_on_c, 9, 35, 100
1, 76079, Note_on_c, 9, 42, 0
1, 76080, Note_on_c, 9, 38, 90
1, 76199, Note_on_c, 9, 38, 0
1, 76200, Note_on_c, 9, 38, 70
1, 76319, Note_on_c, 9, 35, 0
1, 76319, Note_on_c, 9, 38, 0
1, 76320, Note_on_c, 9, 38, 100
1, 76559, Note_on_c, 9, 38, 0
1, 76560, Note_on_c, 9, 38, 100
1, 76560, Note_on_c, 9, 46, 90
1, 76799, Note_on_c, 9, 38, 0
1, 76799, Note_on_c, 9, 46, 0
1, 76800, Note_on_c, 9, 42, 90
1, 76800, Note_on_c, 9, 49, 90
1, 76800, Note_on_c, 9, 35, 90
1, 77039, Note_on_c, 9, 42, 0
1, 77039, Note_on_c, 9, 49, 0
1, 77040, Note_on_c, 9, 42, 70
1, 77279, Note_on_c, 9, 35, 0
1, 77279, Note_on_c, 9, 42, 0
1, 77280, Note_on_c, 9, 38, 100
1, 77280, Note_on_c, 9, 42, 115
1, 77519, Note_on_c, 9, 38, 0
1, 77519, Note_on_c, 9, 42, 0
1, 77520, Note_on_c, 9, 42, 70
1, 77520, Note_on_c, 9, 35, 80
1, 77759, Note_on_c, 9, 42, 0
1, 77759, Note_on_c, 9, 35, 0
1, 77760, Note_on_c, 9, 42, 90
1, 77760, Note_on_c, 9, 35, 100
1, 77999, Note_on_c, 9, 42, 0
1, 78000, Note_on_c, 9, 42, 70
1, 78239, Note_on_c, 9, 35, 0
1, 78239, Note_on_c, 9, 42, 0
1, 78240, Note_on_c, 9, 38, 100
1, 78240, Note_on_c, 9, 42, 100
1, 78479, Note_on_c, 9, 38, 0
1, 78479, Note_on_c, 9, 42, 0
1, 78480, Note_on_c, 9, 42, 70
1, 78719, Note_on_c, 9, 42, 0
1, 78720, Note_on_c, 9, 42, 90
1, 78720, Note_on_c, 9, 35, 90
1, 78959, Note_on_c, 9, 42, 0
1, 78960, Note_on_c, 9, 42, 70
1, 79199, Note_on_c, 9, 35, 0
1, 79199, Note_on_c, 9, 42, 0
1, 79200, Note_on_c, 9, 38, 100
1, 79200, Note_on_c, 9, 42, 115
1, 79439, Note_on_c, 9, 38, 0
1, 79439, Note_on_c, 9, 42, 0
1, 79440, Note_on_c, 9, 42, 75
1, 79440, Note_on_c, 9, 35, 80
1, 79679, Note_on_c, 9, 42, 0
1, 79679, Note_on_c, 9, 35, 0
1, 79680, Note_on_c, 9, 42, 90
1, 79680, Note_on_c, 9, 35, 100
1, 79919, Note_on_c, 9, 42, 0
1, 79920, Note_on_c, 9, 42, 70
1, 80159, Note_on_c, 9, 35, 0
1, 80159, Note_on_c, 9, 42, 0
1, 80160, Note_on_c, 9, 38, 100
1, 80160, Note_on_c, 9, 54, 115
1, 80160, Note_on_c, 9, 42, 100
1, 80399, Note_on_c, 9, 38, 0
1, 80399, Note_on_c, 9, 54, 0
1, 80399, Note_on_c, 9, 42, 0
1, 80400, Note_on_c, 9, 46, 80
1, 80400, Note_on_c, 9, 35, 70
1, 80639, Note_on_c, 9, 46, 0
1, 80639, Note_on_c, 9, 35, 0
1, 80640, Note_on_c, 9, 42, 90
1, 80640, Note_on_c, 9, 35, 90
1, 80759, Note_on_c, 9, 42, 0
1, 80760, Note_on_c, 9, 42, 60
1, 80879, Note_on_c, 9, 42, 0
1, 80880, Note_on_c, 9, 42, 70
1, 81119, Note_on_c, 9, 35, 0
1, 81119, Note_on_c, 9, 42, 0
1, 81120, Note_on_c, 9, 38, 100
1, 81120, Note_on_c, 9, 42, 115
1, 81359, Note_on_c, 9, 38, 0
1, 81359, Note_on_c, 9, 42, 0
1, 81360, Note_on_c, 9, 42, 70
1, 81360, Note_on_c, 9, 35, 80
1, 81599, Note_on_c, 9, 42, 0
1, 81599, Note_on_c, 9, 35, 0
1, 81600, Note_on_c, 9, 42, 90
1, 81600, Note_on_c, 9, 35, 100
1, 81839, Note_on_c, 9, 42, 0
1, 81840, Note_on_c, 9, 42, 70
1, 82079, Note_on_c, 9, 35, 0
1, 82079, Note_on_c, 9, 42, 0
1, 82080, Note_on_c, 9, 38, 100
1, 82080, Note_on_c, 9, 42, 100
1, 82319, Note_on_c, 9, 38, 0
1, 82319, Note_on_c, 9, 42, 0
1, 82320, Note_on_c, 9, 42, 70
1, 82559, Note_on_c, 9, 42, 0
1, 82560, Note_on_c, 9, 42, 90
1, 82560, Note_on_c, 9, 35, 90
1, 82799, Note_on_c, 9, 42, 0
1, 82800, Note_on_c, 9, 42, 70
1, 83039, Note_on_c, 9, 35, 0
1, 83039, Note_on_c, 9, 42, 0
1, 83040, Note_on_c, 9, 38, 100
1, 83040, Note_on_c, 9, 42, 115
1, 83279, Note_on_c, 9, 38, 0
1, 83279, Note_on_c, 9, 42, 0
1, 83280, Note_on_c, 9, 42, 75
1, 83280, Note_on_c, 9, 35, 80
1, 83519, Note_on_c, 9, 42, 0
1, 83519, Note_on_c, 9, 35, 0
1, 83520, Note_on_c, 9, 42, 90
1, 83520, Note_on_c, 9, 35, 100
1, 83759, Note_on_c, 9, 42, 0
1, 83760, Note_on_c, 9, 42, 70
1, 83999, Note_on_c, 9, 35, 0
1, 83999, Note_on_c, 9, 42, 0
1, 84000, Note_on_c, 9, 38, 100
1, 84000, Note_on_c, 9, 54, 115
1, 84000, Note_on_c, 9, 42, 100
1, 84239, Note_on_c, 9, 38, 0
1, 84239, Note_on_c, 9, 54, 0
1, 84239, Note_on_c, 9, 42, 0
1, 84240, Note_on_c, 9, 46, 80
1, 84240, Note_on_c, 9, 35, 70
1, 84479, Note_on_c, 9, 46, 0
1, 84479, Note_on_c, 9, 35, 0
1, 84480, Note_on_c, 9, 42, 100
1, 84480, Note_on_c, 9, 35, 90
1, 84719, Note_on_c, 9, 42, 0
1, 84720, Note_on_c, 9, 42, 70
1, 84959, Note_on_c, 9, 35, 0
1, 84959, Note_on_c, 9, 42, 0
1, 84960, Note_on_c, 9, 38, 100
1, 84960, Note_on_c, 9, 42, 115
1, 85079, Note_on_c, 9, 38, 0
1, 85079, Note_on_c, 9, 42, 0
1, 85080, Note_on_c, 9, 42, 60
1, 85199, Note_on_c, 9, 42, 0
1, 85200, Note_on_c, 9, 42, 70
1, 85200, Note_on_c, 9, 35, 80
1, 85439, Note_on_c, 9, 42, 0
1, 85439, Note_on_c, 9, 35, 0
1, 85440, Note_on_c, 9, 42, 90
1, 85440, Note_on_c, 9, 35, 100
1, 85679, Note_on_c, 9, 42, 0
1, 85680, Note_on_c, 9, 42, 70
1, 85919, Note_on_c, 9, 35, 0
1, 85919, Note_on_c, 9, 42, 0
1, 85920, Note_on_c, 9, 38, 100
1, 85920, Note_on_c, 9, 42, 100
1, 86159, Note_on_c, 9, 38, 0
1, 86159, Note_on_c, 9, 42, 0
1, 86160, Note_on_c, 9, 42, 70
1, 86399, Note_on_c, 9, 42, 0
1, 86400, Note_on_c, 9, 42, 90
1, 86400, Note_on_c, 9, 35, 90
1, 86639, Note_on_c, 9, 42, 0
1, 86640, Note_on_c, 9, 42, 70
1, 86879, Note_on_c, 9, 35, 0
1, 86879, Note_on_c, 9, 42, 0
1, 86880, Note_on_c, 9, 38, 100
1, 86880, Note_on_c, 9, 42, 115
1, 87119, Note_on_c, 9, 38, 0
1, 87119, Note_on_c, 9, 42, 0
1, 87120, Note_on_c, 9, 42, 80
1, 87120, Note_on_c, 9, 35, 80
1, 87359, Note_on_c, 9, 42, 0
1, 87359, Note_on_c, 9, 35, 0
1, 87360, Note_on_c, 9, 42, 90
1, 87360, Note_on_c, 9, 35, 100
1, 87599, Note_on_c, 9, 42, 0
1, 87600, Note_on_c, 9, 42, 70
1, 87839, Note_on_c, 9, 35, 0
1, 87839, Note_on_c, 9, 42, 0
1, 87840, Note_on_c, 9, 38, 100
1, 87840, Note_on_c, 9, 54, 115
1, 87840, Note_on_c, 9, 42, 100
1, 88079, Note_on_c, 9, 38, 0
1, 88079, Note_on_c, 9, 54, 0
1, 88079, Note_on_c, 9, 42, 0
1, 88080, Note_on_c, 9, 42, 70
1, 88080, Note_on_c, 9, 35, 70
1, 88319, Note_on_c, 9, 42, 0
1, 88319, Note_on_c, 9, 35, 0
1, 88320, Note_on_c, 9, 42, 90
1, 88320, Note_on_c, 9, 35, 90
1, 88559, Note_on_c, 9, 42, 0
1, 88560, Note_on_c, 9, 42, 70
1, 88799, Note_on_c, 9, 35, 0
1, 88799, Note_on_c, 9, 42, 0
1, 88800, Note_on_c, 9, 38, 100
1, 88800, Note_on_c, 9, 42, 115
1, 89039, Note_on_c, 9, 38, 0
1, 89039, Note_on_c, 9, 42, 0
1, 89040, Note_on_c, 9, 42, 70
1, 89040, Note_on_c, 9, 35, 80
1, 89279, Note_on_c, 9, 42, 0
1, 89279, Note_on_c, 9, 35, 0
1, 89280, Note_on_c, 9, 42, 90
1, 89280, Note_on_c, 9, 35, 100
1, 89519, Note_on_c, 9, 42, 0
1, 89520, Note_on_c, 9, 42, 70
1, 89759, Note_on_c, 9, 35, 0
1, 89759, Note_on_c, 9, 42, 0
1, 89760, Note_on_c, 9, 38, 100
1, 89760, Note_on_c, 9, 42, 100
1, 89999, Note_on_c, 9, 38, 0
1, 89999, Note_on_c, 9, 42, 0
1, 90000, Note_on_c, 9, 42, 70
1, 90239, Note_on_c, 9, 42, 0
1, 90240, Note_on_c, 9, 42, 90
1, 90240, Note_on_c, 9, 35, 90
1, 90479, Note_on_c, 9, 42, 0
1, 90480, Note_on_c, 9, 42, 70
1, 90719, Note_on_c, 9, 35, 0
1, 90719, Note_on_c, 9, 42, 0
1, 90720, Note_on_c, 9, 38, 100
1, 90720, Note_on_c, 9, 42, 115
1, 90959, Note_on_c, 9, 38, 0
1, 90959, Note_on_c, 9, 42, 0
1, 90960, Note_on_c, 9, 42, 70
1, 90960, Note_on_c, 9, 35, 80
1, 91199, Note_on_c, 9, 42, 0
1, 91199, Note_on_c, 9, 35, 0
1, 91200, Note_on_c, 9, 42, 90
1, 91200, Note_on_c, 9, 35, 100
1, 91439, Note_on_c, 9, 42, 0
1, 91440, Note_on_c, 9, 38, 90
1, 91559, Note_on_c, 9, 38, 0
1, 91560, Note_on_c, 9, 38, 60
1, 91679, Note_on_c, 9, 35, 0
1, 91679, Note_on_c, 9, 38, 0
1, 91680, Note_on_c, 9, 38, 100
1, 91799, Note_on_c, 9, 38, 0
1, 91800, Note_on_c, 9, 38, 70
1, 91919, Note_on_c, 9, 38, 0
1, 91920, Note_on_c, 9, 38, 100
1, 92039, Note_on_c, 9, 38, 0
1, 92040, Note_on_c, 9, 38, 115
1, 92159, Note_on_c, 9, 38, 0
1, 92160, Note_on_c, 9, 42, 90
1, 92160, Note_on_c, 9, 49, 90
1, 92160, Note_on_c, 9, 35, 90
1, 92399, Note_on_c, 9, 42, 0
1, 92399, Note_on_c, 9, 49, 0
1, 92400, Note_on_c, 9, 42, 70
1, 92639, Note_on_c, 9, 35, 0
1, 92639, Note_on_c, 9, 42, 0
1, 92640, Note_on_c, 9, 38, 100
1, 92640, Note_on_c, 9, 42, 115
1, 92879, Note_on_c, 9, 38, 0
1, 92879, Note_on_c, 9, 42, 0
1, 92880, Note_on_c, 9, 42, 70
1, 92880, Note_on_c, 9, 35, 80
1, 93119, Note_on_c, 9, 42, 0
1, 93119, Note_on_c, 9, 35, 0
1, 93120, Note_on_c, 9, 42, 90
1, 93120, Note_on_c, 9, 35, 100
1, 93359, Note_on_c, 9, 42, 0
1, 93360, Note_on_c, 9, 42, 70
1, 93599, Note_on_c, 9, 35, 0
1, 93599, Note_on_c, 9, 42, 0
1, 93600, Note_on_c, 9, 38, 100
1, 93600, Note_on_c, 9, 42, 100
1, 93839, Note_on_c, 9, 38, 0
1, 93839, Note_on_c, 9, 42, 0
1, 93840, Note_on_c, 9, 42, 70
1, 94079, Note_on_c, 9, 42, 0
1, 94080, Note_on_c, 9, 42, 90
1, 94080, Note_on_c, 9, 35, 90
1, 94319, Note_on_c, 9, 42, 0
1, 94320, Note_on_c, 9, 42, 70
1, 94559, Note_on_c, 9, 35, 0
1, 94559, Note_on_c, 9, 42, 0
1, 94560, Note_on_c, 9, 38, 100
1, 94560, Note_on_c, 9, 42, 115
1, 94799, Note_on_c, 9, 38, 0
1, 94799, Note_on_c, 9, 42, 0
1, 94800, Note_on_c, 9, 42, 75
1, 94800, Note_on_c, 9, 35, 80
1, 95039, Note_on_c, 9, 42, 0
1, 95039, Note_on_c, 9, 35, 0
1, 95040, Note_on_c, 9, 42, 90
1, 95040, Note_on_c, 9, 35, 100
1, 95279, Note_on_c, 9, 42, 0
1, 95280, Note_on_c, 9, 42, 70
1, 95519, Note_on_c, 9, 35, 0
1, 95519, Note_on_c, 9, 42, 0
1, 95520, Note_on_c, 9, 38, 100
1, 95520, Note_on_c, 9, 54, 115
1, 95520, Note_on_c, 9, 42, 100
1, 95759, Note_on_c, 9, 38, 0
1, 95759, Note_on_c, 9, 54, 0
1, 95759, Note_on_c, 9, 42, 0
1, 95760, Note_on_c, 9, 46, 80
1, 95760, Note_on_c, 9, 35, 70
1, 95999, Note_on_c, 9, 46, 0
1, 95999, Note_on_c, 9, 35, 0
1, 96000, Note_on_c, 9, 42, 90
1, 96000, Note_on_c, 9, 35, 90
1, 96239, Note_on_c, 9, 42, 0
1, 96240, Note_on_c, 9, 42, 70
1, 96479, Note_on_c, 9, 35, 0
1, 96479, Note_on_c, 9, 42, 0
1, 96480, Note_on_c, 9, 38, 100
1, 96480, Note_on_c, 9, 42, 115
1, 96719, Note_on_c, 9, 38, 0
1, 96719, Note_on_c, 9, 42, 0
1, 96720, Note_on_c, 9, 42, 70
1, 96720, Note_on_c, 9, 35, 80
1, 96959, Note_on_c, 9, 42, 0
1, 96959, Note_on_c, 9, 35, 0
1, 96960, Note_on_c, 9, 42, 90
1, 96960, Note_on_c, 9, 35, 100
1, 97199, Note_on_c, 9, 42, 0
1, 97200, Note_on_c, 9, 42, 70
1, 97439, Note_on_c, 9, 35, 0
1, 97439, Note_on_c, 9, 42, 0
1, 97440, Note_on_c, 9, 38, 100
1, 97440, Note_on_c, 9, 42, 100
1, 97679, Note_on_c, 9, 38, 0
1, 97679, Note_on_c, 9, 42, 0
1, 97680, Note_on_c, 9, 42, 70
1, 97919, Note_on_c, 9, 42, 0
1, 97920, Note_on_c, 9, 42, 90
1, 97920, Note_on_c, 9, 35, 90
1, 98159, Note_on_c, 9, 42, 0
1, 98160, Note_on_c, 9, 42, 70
1, 98399, Note_on_c, 9, 35, 0
1, 98399, Note_on_c, 9, 42, 0
1, 98400, Note_on_c, 9, 38, 100
1, 98400, Note_on_c, 9, 42, 115
1, 98639, Note_on_c, 9, 38, 0
1, 98639, Note_on_c, 9, 42, 0
1, 98640, Note_on_c, 9, 42, 75
1, 98640, Note_on_c, 9, 35, 80
1, 98879, Note_on_c, 9, 42, 0
1, 98879, Note_on_c, 9, 35, 0
1, 98880, Note_on_c, 9, 42, 90
1, 98880, Note_on_c, 9, 35, 100
1, 99119, Note_on_c, 9, 42, 0
1, 99120, Note_on_c, 9, 42, 70
1, 99359, Note_on_c, 9, 35, 0
1, 99359, Note_on_c, 9, 42, 0
1, 99360, Note_on_c, 9, 38, 100
1, 99360, Note_on_c, 9, 54, 115
1, 99360, Note_on_c, 9, 42, 100
1, 99599, Note_on_c, 9, 38, 0
1, 99599, Note_on_c, 9, 54, 0
1, 99599, Note_on_c, 9, 42, 0
1, 99600, Note_on_c, 9, 46, 80
1, 99600, Note_on_c, 9, 35, 70
1, 99839, Note_on_c, 9, 46, 0
1, 99839, Note_on_c, 9, 35, 0
1, 99840, Note_on_c, 9, 42, 100
1, 99840, Note_on_c, 9, 35, 90
1, 100079, Note_on_c, 9, 42, 0
1, 100080, Note_on_c, 9, 42, 70
1, 100319, Note_on_c, 9, 35, 0
1, 100319, Note_on_c, 9, 42, 0
1, 100320, Note_on_c, 9, 38, 100
1, 100320, Note_on_c, 9, 42, 115
1, 100559, Note_on_c, 9, 38, 0
1, 100559, Note_on_c, 9, 42, 0
1, 100560, Note_on_c, 9, 42, 70
1, 100560, Note_on_c, 9, 35, 80
1, 100799, Note_on_c, 9, 42, 0
1, 100799, Note_on_c, 9, 35, 0
1, 100800, Note_on_c, 9, 42, 90
1, 100800, Note_on_c, 9, 35, 100
1, 101039, Note_on_c, 9, 42, 0
1, 101040, Note_on_c, 9, 42, 70
1, 101279, Note_on_c, 9, 35, 0
1, 101279, Note_on_c, 9, 42, 0
1, 101280, Note_on_c, 9, 38, 100
1, 101280, Note_on_c, 9, 42, 100
1, 101519, Note_on_c, 9, 38, 0
1, 101519, Note_on_c, 9, 42, 0
1, 101520, Note_on_c, 9, 42, 70
1, 101759, Note_on_c, 9, 42, 0
1, 101760, Note_on_c, 9, 42, 90
1, 101760, Note_on_c, 9, 35, 90
1, 101999, Note_on_c, 9, 42, 0
1, 102000, Note_on_c, 9, 42, 70
1, 102239, Note_on_c, 9, 35, 0
1, 102239, Note_on_c, 9, 42, 0
1, 102240, Note_on_c, 9, 38, 100
1, 102240, Note_on_c, 9, 42, 115
1, 102479, Note_on_c, 9, 38, 0
1, 102479, Note_on_c, 9, 42, 0
1, 102480, Note_on_c, 9, 42, 75
1, 102480, Note_on_c, 9, 35, 80
1, 102719, Note_on_c, 9, 42, 0
1, 102719, Note_on_c, 9, 35, 0
1, 102720, Note_on_c, 9, 42, 90
1, 102720, Note_on_c, 9, 35, 100
1, 102959, Note_on_c, 9, 42, 0
1, 102960, Note_on_c, 9, 42, 70
1, 103199, Note_on_c, 9, 35, 0
1, 103199, Note_on_c, 9, 42, 0
1, 103200, Note_on_c, 9, 38, 100
1, 103200, Note_on_c, 9, 54, 115
1, 103200, Note_on_c, 9, 42, 100
1, 103439, Note_on_c, 9, 38, 0
1, 103439, Note_on_c, 9, 54, 0
1, 103439, Note_on_c, 9, 42, 0
1, 103440, Note_on_c, 9, 46, 80
1, 103440, Note_on_c, 9, 35, 70
1, 103679, Note_on_c, 9, 46, 0
1, 103679, Note_on_c, 9, 35, 0
1, 103680, Note_on_c, 9, 42, 90
1, 103680, Note_on_c, 9, 35, 90
1, 103799, Note_on_c, 9, 42, 0
1, 103800, Note_on_c, 9, 42, 60
1, 103919, Note_on_c, 9, 42, 0
1, 103920, Note_on_c, 9, 42, 70
1, 104159, Note_on_c, 9, 35, 0
1, 104159, Note_on_c, 9, 42, 0
1, 104160, Note_on_c, 9, 38, 100
1, 104160, Note_on_c, 9, 42, 115
1, 104399, Note_on_c, 9, 38, 0
1, 104399, Note_on_c, 9, 42, 0
1, 104400, Note_on_c, 9, 42, 70
1, 104400, Note_on_c, 9, 35, 80
1, 104639, Note_on_c, 9, 42, 0
1, 104639, Note_on_c, 9, 35, 0
1, 104640, Note_on_c, 9, 42, 90
1, 104640, Note_on_c, 9, 35, 100
1, 104879, Note_on_c, 9, 42, 0
1, 104880, Note_on_c, 9, 42, 70
1, 105119, Note_on_c, 9, 35, 0
1, 105119, Note_on_c, 9, 42, 0
1, 105120, Note_on_c, 9, 38, 100
1, 105120, Note_on_c, 9, 42, 100
1, 105359, Note_on_c, 9, 38, 0
1, 105359, Note_on_c, 9, 42, 0
1, 105360, Note_on_c, 9, 42, 70
1, 105599, Note_on_c, 9, 42, 0
1, 105600, Note_on_c, 9, 42, 90
1, 105600, Note_on_c, 9, 35, 90
1, 105839, Note_on_c, 9, 42, 0
1, 105840, Note_on_c, 9, 42, 70
1, 105959, Note_on_c, 9, 42, 0
1, 105960, Note_on_c, 9, 42, 80
1, 106079, Note_on_c, 9, 35, 0
1, 106079, Note_on_c, 9, 42, 0
1, 106080, Note_on_c, 9, 38, 100
1, 106080, Note_on_c, 9, 46, 115
1, 106319, Note_on_c, 9, 38, 0
1, 106319, Note_on_c, 9, 46, 0
1, 106320, Note_on_c, 9, 45, 100
1, 106320, Note_on_c, 9, 35, 80
1, 106559, Note_on_c, 9, 45, 0
1, 106559, Note_on_c, 9, 35, 0
1, 106560, Note_on_c, 9, 48, 100
1, 106560, Note_on_c, 9, 35, 100
1, 106799, Note_on_c, 9, 48, 0
1, 106800, Note_on_c, 9, 45, 100
1, 107039, Note_on_c, 9, 35, 0
1, 107039, Note_on_c, 9, 45, 0
1, 107040, Note_on_c, 9, 45, 100
1, 107040, Note_on_c, 9, 42, 100
1, 107279, Note_on_c, 9, 45, 0
1, 107279, Note_on_c, 9, 42, 0
1, 107280, Note_on_c, 9, 41, 100
1, 107280, Note_on_c, 9, 46, 90
1, 107519, Note_on_c, 9, 41, 0
1, 107519, Note_on_c, 9, 46, 0
1, 107520, Note_on_c, 9, 42, 90
1, 107520, Note_on_c, 9, 49, 90
1, 107520, Note_on_c, 9, 35, 90
1, 107759, Note_on_c, 9, 42, 0
1, 107759, Note_on_c, 9, 49, 0
1, 107760, Note_on_c, 9, 42, 70
1, 107999, Note_on_c, 9, 35, 0
1, 107999, Note_on_c, 9, 42, 0
1, 108000, Note_on_c, 9, 38, 100
1, 108000, Note_on_c, 9, 42, 115
1, 108239, Note_on_c, 9, 38, 0
1, 108239, Note_on_c, 9, 42, 0
1, 108240, Note_on_c, 9, 42, 70
1, 108240, Note_on_c, 9, 35, 80
1, 108479, Note_on_c, 9, 42, 0
1, 108479, Note_on_c, 9, 35, 0
1, 108480, Note_on_c, 9, 42, 90
1, 108480, Note_on_c, 9, 35, 100
1, 108719, Note_on_c, 9, 42, 0
1, 108720, Note_on_c, 9, 42, 70
1, 108959, Note_on_c, 9, 35, 0
1, 108959, Note_on_c, 9, 42, 0
1, 108960, Note_on_c, 9, 38, 100
1, 108960, Note_on_c, 9, 42, 100
1, 109199, Note_on_c, 9, 38, 0
1, 109199, Note_on_c, 9, 42, 0
1, 109200, Note_on_c, 9, 42, 70
1, 109439, Note_on_c, 9, 42, 0
1, 109440, Note_on_c, 9, 42, 90
1, 109440, Note_on_c, 9, 35, 90
1, 109679, Note_on_c, 9, 42, 0
1, 109680, Note_on_c, 9, 42, 70
1, 109919, Note_on_c, 9, 35, 0
1, 109919, Note_on_c, 9, 42, 0
1, 109920, Note_on_c, 9, 38, 100
1, 109920, Note_on_c, 9, 42, 115
1, 110159, Note_on_c, 9, 38, 0
1, 110159, Note_on_c, 9, 42, 0
1, 110160, Note_on_c, 9, 42, 75
1, 110160, Note_on_c, 9, 35, 80
1, 110399, Note_on_c, 9, 42, 0
1, 110399, Note_on_c, 9, 35, 0
1, 110400, Note_on_c, 9, 42, 90
1, 110400, Note_on_c, 9, 35, 100
1, 110639, Note_on_c, 9, 42, 0
1, 110640, Note_on_c, 9, 42, 70
1, 110879, Note_on_c, 9, 35, 0
1, 110879, Note_on_c, 9, 42, 0
1, 110880, Note_on_c, 9, 38, 100
1, 110880, Note_on_c, 9, 54, 115
1, 110880, Note_on_c, 9, 42, 100
1, 111119, Note_on_c, 9, 38, 0
1, 111119, Note_on_c, 9, 54, 0
1, 111119, Note_on_c, 9, 42, 0
1, 111120, Note_on_c, 9, 46, 80
1, 111120, Note_on_c, 9, 35, 70
1, 111359, Note_on_c, 9, 46, 0
1, 111359, Note_on_c, 9, 35, 0
1, 111360, Note_on_c, 9, 42, 90
1, 111360, Note_on_c, 9, 35, 90
1, 111599, Note_on_c, 9, 42, 0
1, 111600, Note_on_c, 9, 42, 70
1, 111839, Note_on_c, 9, 35, 0
1, 111839, Note_on_c, 9, 42, 0
1, 111840, Note_on_c, 9, 38, 100
1, 111840, Note_on_c, 9, 42, 115
1, 112079, Note_on_c, 9, 38, 0
1, 112079, Note_on_c, 9, 42, 0
1, 112080, Note_on_c, 9, 42, 70
1, 112080, Note_on_c, 9, 35, 80
1, 112319, Note_on_c, 9, 42, 0
1, 112319, Note_on_c, 9, 35, 0
1, 112320, Note_on_c, 9, 42, 90
1, 112320, Note_on_c, 9, 35, 100
1, 112559, Note_on_c, 9, 42, 0
1, 112560, Note_on_c, 9, 42, 70
1, 112799, Note_on_c, 9, 35, 0
1, 112799, Note_on_c, 9, 42, 0
1, 112800, Note_on_c, 9, 38, 100
1, 112800, Note_on_c, 9, 42, 100
1, 113039, Note_on_c, 9, 38, 0
1, 113039, Note_on_c, 9, 42, 0
1, 113040, Note_on_c, 9, 42, 110
1, 113279, Note_on_c, 9, 42, 0
1, 113280, Note_on_c, 9, 42, 90
1, 113280, Note_on_c, 9, 35, 90
1, 113519, Note_on_c, 9, 42, 0
1, 113520, Note_on_c, 9, 42, 70
1, 113759, Note_on_c, 9, 35, 0
1, 113759, Note_on_c, 9, 42, 0
1, 113760, Note_on_c, 9, 38, 100
1, 113760, Note_on_c, 9, 42, 115
1, 113999, Note_on_c, 9, 38, 0
1, 113999, Note_on_c, 9, 42, 0
1, 114000, Note_on_c, 9, 42, 80
1, 114000, Note_on_c, 9, 35, 80
1, 114239, Note_on_c, 9, 42, 0
1, 114239, Note_on_c, 9, 35, 0
1, 114240, Note_on_c, 9, 42, 90
1, 114240, Note_on_c, 9, 35, 100
1, 114479, Note_on_c, 9, 42, 0
1, 114480, Note_on_c, 9, 42, 70
1, 114719, Note_on_c, 9, 35, 0
1, 114719, Note_on_c, 9, 42, 0
1, 114720, Note_on_c, 9, 38, 100
1, 114720, Note_on_c, 9, 54, 115
1, 114720, Note_on_c, 9, 42, 100
1, 114959, Note_on_c, 9, 38, 0
1, 114959, Note_on_c, 9, 54, 0
1, 114959, Note_on_c, 9, 42, 0
1, 114960, Note_on_c, 9, 42, 70
1, 114960, Note_on_c, 9, 35, 70
1, 115199, Note_on_c, 9, 42, 0
1, 115199, Note_on_c, 9, 35, 0
1, 115200, Note_on_c, 9, 42, 100
1, 115200, Note_on_c, 9, 35, 90
1, 115439, Note_on_c, 9, 42, 0
1, 115440, Note_on_c, 9, 42, 70
1, 115679, Note_on_c, 9, 35, 0
1, 115679, Note_on_c, 9, 42, 0
1, 115680, Note_on_c, 9, 38, 100
1, 115680, Note_on_c, 9, 42, 115
1, 115799, Note_on_c, 9, 38, 0
1, 115799, Note_on_c, 9, 42, 0
1, 115800, Note_on_c, 9, 42, 60
1, 115919, Note_on_c, 9, 42, 0
1, 115920, Note_on_c, 9, 42, 70
1, 115920, Note_on_c, 9, 35, 80
1, 116159, Note_on_c, 9, 42, 0
1, 116159, Note_on_c, 9, 35, 0
1, 116160, Note_on_c, 9, 42, 90
1, 116160, Note_on_c, 9, 35, 100
1, 116399, Note_on_c, 9, 42, 0
1, 116400, Note_on_c, 9, 42, 70
1, 116639, Note_on_c, 9, 35, 0
1, 116639, Note_on_c, 9, 42, 0
1, 116640, Note_on_c, 9, 38, 100
1, 116640, Note_on_c, 9, 42, 100
1, 116879, Note_on_c, 9, 38, 0
1, 116879, Note_on_c, 9, 42, 0
1, 116880, Note_on_c, 9, 42, 70
1, 117119, Note_on_c, 9, 42, 0
1, 117120, Note_on_c, 9, 42, 90
1, 117120, Note_on_c, 9, 35, 90
1, 117359, Note_on_c, 9, 42, 0
1, 117360, Note_on_c, 9, 42, 70
1, 117599, Note_on_c, 9, 35, 0
1, 117599, Note_on_c, 9, 42, 0
1, 117600, Note_on_c, 9, 38, 100
1, 117600, Note_on_c, 9, 42, 115
1, 117839, Note_on_c, 9, 38, 0
1, 117839, Note_on_c, 9, 42, 0
1, 117840, Note_on_c, 9, 42, 75
1, 117840, Note_on_c, 9, 35, 80
1, 118079, Note_on_c, 9, 42, 0
1, 118079, Note_on_c, 9, 35, 0
1, 118080, Note_on_c, 9, 42, 90
1, 118080, Note_on_c, 9, 35, 100
1, 118319, Note_on_c, 9, 42, 0
1, 118320, Note_on_c, 9, 42, 70
1, 118559, Note_on_c, 9, 35, 0
1, 118559, Note_on_c, 9, 42, 0
1, 118560, Note_on_c, 9, 38, 100
1, 118560, Note_on_c, 9, 54, 115
1, 118560, Note_on_c, 9, 42, 100
1, 118799, Note_on_c, 9, 38, 0
1, 118799, Note_on_c, 9, 54, 0
1, 118799, Note_on_c, 9, 42, 0
1, 118800, Note_on_c, 9, 46, 80
1, 118800, Note_on_c, 9, 35, 70
1, 119039, Note_on_c, 9, 46, 0
1, 119039, Note_on_c, 9, 35, 0
1, 119040, Note_on_c, 9, 42, 90
1, 119040, Note_on_c, 9, 35, 90
1, 119279, Note_on_c, 9, 42, 0
1, 119280, Note_on_c, 9, 42, 70
1, 119519, Note_on_c, 9, 35, 0
1, 119519, Note_on_c, 9, 42, 0
1, 119520, Note_on_c, 9, 38, 100
1, 119520, Note_on_c, 9, 42, 115
1, 119759, Note_on_c, 9, 38, 0
1, 119759, Note_on_c, 9, 42, 0
1, 119760, Note_on_c, 9, 42, 70
1, 119760, Note_on_c, 9, 35, 80
1, 119999, Note_on_c, 9, 42, 0
1, 119999, Note_on_c, 9, 35, 0
1, 120000, Note_on_c, 9, 42, 90
1, 120000, Note_on_c, 9, 35, 100
1, 120239, Note_on_c, 9, 42, 0
1, 120240, Note_on_c, 9, 42, 70
1, 120479, Note_on_c, 9, 35, 0
1, 120479, Note_on_c, 9, 42, 0
1, 120480, Note_on_c, 9, 38, 100
1, 120480, Note_on_c, 9, 42, 100
1, 120719, Note_on_c, 9, 38, 0
1, 120719, Note_on_c, 9, 42, 0
1, 120720, Note_on_c, 9, 42, 70
1, 120959, Note_on_c, 9, 42, 0
1, 120960, Note_on_c, 9, 42, 90
1, 120960, Note_on_c, 9, 35, 90
1, 121199, Note_on_c, 9, 42, 0
1, 121200, Note_on_c, 9, 42, 70
1, 121439, Note_on_c, 9, 35, 0
1, 121439, Note_on_c, 9, 42, 0
1, 121440, Note_on_c, 9, 38, 100
1, 121440, Note_on_c, 9, 42, 115
1, 121679, Note_on_c, 9, 38, 0
1, 121679, Note_on_c, 9, 42, 0
1, 121680, Note_on_c, 9, 42, 70
1, 121680, Note_on_c, 9, 35, 80
1, 121919, Note_on_c, 9, 42, 0
1, 121919, Note_on_c, 9, 35, 0
1, 121920, Note_on_c, 9, 42, 90
1, 121920, Note_on_c, 9, 35, 100
1, 122159, Note_on_c, 9, 42, 0
1, 122160, Note_on_c, 9, 38, 90
1, 122279, Note_on_c, 9, 38, 0
1, 122280, Note_on_c, 9, 38, 70
1, 122399, Note_on_c, 9, 35, 0
1, 122399, Note_on_c, 9, 38, 0
1, 122400, Note_on_c, 9, 38, 100
1, 122639, Note_on_c, 9, 38, 0
1, 122640, Note_on_c, 9, 38, 100
1, 122640, Note_on_c, 9, 42, 70
1, 122879, Note_on_c, 9, 38, 0
1, 122879, Note_on_c, 9, 42, 0
1, 122880, Note_on_c, 9, 42, 90
1, 122880, Note_on_c, 9, 49, 90
1, 122880, Note_on_c, 9, 35, 90
1, 123119, Note_on_c, 9, 42, 0
1, 123119, Note_on_c, 9, 49, 0
1, 123120, Note_on_c, 9, 42, 70
1, 123359, Note_on_c, 9, 35, 0
1, 123359, Note_on_c, 9, 42, 0
1, 123360, Note_on_c, 9, 38, 100
1, 123360, Note_on_c, 9, 42, 115
1, 123599, Note_on_c, 9, 38, 0
1, 123599, Note_on_c, 9, 42, 0
1, 123600, Note_on_c, 9, 42, 70
1, 123600, Note_on_c, 9, 35, 80
1, 123839, Note_on_c, 9, 42, 0
1, 123839, Note_on_c, 9, 35, 0
1, 123840, Note_on_c, 9, 42, 90
1, 123840, Note_on_c, 9, 35, 100
1, 124079, Note_on_c, 9, 42, 0
1, 124080, Note_on_c, 9, 42, 70
1, 124319, Note_on_c, 9, 35, 0
1, 124319, Note_on_c, 9, 42, 0
1, 124320, Note_on_c, 9, 38, 100
1, 124320, Note_on_c, 9, 42, 100
1, 124559, Note_on_c, 9, 38, 0
1, 124559, Note_on_c, 9, 42, 0
1, 124560, Note_on_c, 9, 42, 70
1, 124799, Note_on_c, 9, 42, 0
1, 124800, Note_on_c, 9, 42, 90
1, 124800, Note_on_c, 9, 35, 90
1, 125039, Note_on_c, 9, 42, 0
1, 125040, Note_on_c, 9, 42, 70
1, 125279, Note_on_c, 9, 35, 0
1, 125279, Note_on_c, 9, 42, 0
1, 125280, Note_on_c, 9, 38, 100
1, 125280, Note_on_c, 9, 42, 115
1, 125519, Note_on_c, 9, 38, 0
1, 125519, Note_on_c, 9, 42, 0
1, 125520, Note_on_c, 9, 42, 80
1, 125520, Note_on_c, 9, 35, 80
1, 125759, Note_on_c, 9, 42, 0
1, 125759, Note_on_c, 9, 35, 0
1, 125760, Note_on_c, 9, 42, 90
1, 125760, Note_on_c, 9, 35, 100
1, 125999, Note_on_c, 9, 42, 0
1, 126000, Note_on_c, 9, 42, 70
1, 126239, Note_on_c, 9, 35, 0
1, 126239, Note_on_c, 9, 42, 0
1, 126240, Note_on_c, 9, 38, 100
1, 126240, Note_on_c, 9, 54, 115
1, 126240, Note_on_c, 9, 42, 100
1, 126479, Note_on_c, 9, 38, 0
1, 126479, Note_on_c, 9, 54, 0
1, 126479, Note_on_c, 9, 42, 0
1, 126480, Note_on_c, 9, 42, 70
1, 126480, Note_on_c, 9, 35, 70
1, 126719, Note_on_c, 9, 42, 0
1, 126719, Note_on_c, 9, 35, 0
1, 126720, Note_on_c, 9, 42, 100
1, 126720, Note_on_c, 9, 35, 90
1, 126959, Note_on_c, 9, 42, 0
1, 126960, Note_on_c, 9, 42, 70
1, 127199, Note_on_c, 9, 35, 0
1, 127199, Note_on_c, 9, 42, 0
1, 127200, Note_on_c, 9, 38, 100
1, 127200, Note_on_c, 9, 42, 115
1, 127319, Note_on_c, 9, 38, 0
1, 127319, Note_on_c, 9, 42, 0
1, 127320, Note_on_c, 9, 42, 60
1, 127439, Note_on_c, 9, 42, 0
1, 127440, Note_on_c, 9, 42, 70
1, 127440, Note_on_c, 9, 35, 80
1, 127679, Note_on_c, 9, 42, 0
1, 127679, Note_on_c, 9, 35, 0
1, 127680, Note_on_c, 9, 42, 90
1, 127680, Note_on_c, 9, 35, 100
1, 127919, Note_on_c, 9, 42, 0
1, 127920, Note_on_c, 9, 42, 70
1, 128159, Note_on_c, 9, 35, 0
1, 128159, Note_on_c, 9, 42, 0
1, 128160, Note_on_c, 9, 38, 100
1, 128160, Note_on_c, 9, 42, 100
1, 128399, Note_on_c, 9, 38, 0
1, 128399, Note_on_c, 9, 42, 0
1, 128400, Note_on_c, 9, 42, 70
1, 128639, Note_on_c, 9, 42, 0
1, 128640, Note_on_c, 9, 42, 90
1, 128640, Note_on_c, 9, 35, 90
1, 128879, Note_on_c, 9, 42, 0
1, 128880, Note_on_c, 9, 42, 70
1, 129119, Note_on_c, 9, 35, 0
1, 129119, Note_on_c, 9, 42, 0
1, 129120, Note_on_c, 9, 38, 100
1, 129120, Note_on_c, 9, 42, 115
1, 129359, Note_on_c, 9, 38, 0
1, 129359, Note_on_c, 9, 42, 0
1, 129360, Note_on_c, 9, 42, 80
1, 129360, Note_on_c, 9, 35, 80
1, 129599, Note_on_c, 9, 42, 0
1, 129599, Note_on_c, 9, 35, 0
1, 129600, Note_on_c, 9, 42, 90
1, 129600, Note_on_c, 9, 35, 100
1, 129839, Note_on_c, 9, 42, 0
1, 129840, Note_on_c, 9, 42, 70
1, 130079, Note_on_c, 9, 35, 0
1, 130079, Note_on_c, 9, 42, 0
1, 130080, Note_on_c, 9, 38, 100
1, 130080, Note_on_c, 9, 54, 115
1, 130080, Note_on_c, 9, 42, 100
1, 130319, Note_on_c, 9, 38, 0
1, 130319, Note_on_c, 9, 54, 0
1, 130319, Note_on_c, 9, 42, 0
1, 130320, Note_on_c, 9, 42, 70
1, 130320, Note_on_c, 9, 35, 70
1, 130559, Note_on_c, 9, 42, 0
1, 130559, Note_on_c, 9, 35, 0
1, 130560, Note_on_c, 9, 42, 90
1, 130560, Note_on_c, 9, 35, 90
1, 130679, Note_on_c, 9, 42, 0
1, 130680, Note_on_c, 9, 42, 60
1, 130799, Note_on_c, 9, 42, 0
1, 130800, Note_on_c, 9, 42, 70
1, 131039, Note_on_c, 9, 35, 0
1, 131039, Note_on_c, 9, 42, 0
1, 131040, Note_on_c, 9, 38, 100
1, 131040, Note_on_c, 9, 42, 115
1, 131279, Note_on_c, 9, 38, 0
1, 131279, Note_on_c, 9, 42, 0
1, 131280, Note_on_c, 9, 42, 70
1, 131280, Note_on_c, 9, 35, 80
1, 131519, Note_on_c, 9, 42, 0
1, 131519, Note_on_c, 9, 35, 0
1, 131520, Note_on_c, 9, 42, 90
1, 131520, Note_on_c, 9, 35, 100
1, 131759, Note_on_c, 9, 42, 0
1, 131760, Note_on_c, 9, 42, 70
1, 131999, Note_on_c, 9, 35, 0
1, 131999, Note_on_c, 9, 42, 0
1, 132000, Note_on_c, 9, 38, 100
1, 132000, Note_on_c, 9, 42, 100
1, 132239, Note_on_c, 9, 38, 0
1, 132239, Note_on_c, 9, 42, 0
1, 132240, Note_on_c, 9, 42, 70
1, 132479, Note_on_c, 9, 42, 0
1, 132480, Note_on_c, 9, 42, 90
1, 132480, Note_on_c, 9, 35, 90
1, 132719, Note_on_c, 9, 42, 0
1, 132720, Note_on_c, 9, 42, 70
1, 132959, Note_on_c, 9, 35, 0
1, 132959, Note_on_c, 9, 42, 0
1, 132960, Note_on_c, 9, 38, 100
1, 132960, Note_on_c, 9, 42, 115
1, 133199, Note_on_c, 9, 38, 0
1, 133199, Note_on_c, 9, 42, 0
1, 133200, Note_on_c, 9, 42, 80
1, 133200, Note_on_c, 9, 35, 80
1, 133439, Note_on_c, 9, 42, 0
1, 133439, Note_on_c, 9, 35, 0
1, 133440, Note_on_c, 9, 42, 90
1, 133440, Note_on_c, 9, 35, 100
1, 133679, Note_on_c, 9, 42, 0
1, 133680, Note_on_c, 9, 42, 70
1, 133919, Note_on_c, 9, 35, 0
1, 133919, Note_on_c, 9, 42, 0
1, 133920, Note_on_c, 9, 38, 100
1, 133920, Note_on_c, 9, 54, 115
1, 133920, Note_on_c, 9, 42, 100
1, 134159, Note_on_c, 9, 38, 0
1, 134159, Note_on_c, 9, 54, 0
1, 134159, Note_on_c, 9, 42, 0
1, 134160, Note_on_c, 9, 42, 70
1, 134160, Note_on_c, 9, 35, 70
1, 134399, Note_on_c, 9, 42, 0
1, 134399, Note_on_c, 9, 35, 0
1, 134400, Note_on_c, 9, 42, 90
1, 134400, Note_on_c, 9, 49, 90
1, 134400, Note_on_c, 9, 35, 90
1, 134639, Note_on_c, 9, 42, 0
1, 134639, Note_on_c, 9, 49, 0
1, 134640, Note_on_c, 9, 42, 70
1, 134879, Note_on_c, 9, 35, 0
1, 134879, Note_on_c, 9, 42, 0
1, 134880, Note_on_c, 9, 38, 100
1, 134880, Note_on_c, 9, 42, 115
1, 135119, Note_on_c, 9, 38, 0
1, 135119, Note_on_c, 9, 42, 0
1, 135120, Note_on_c, 9, 42, 70
1, 135120, Note_on_c, 9, 35, 80
1, 135359, Note_on_c, 9, 42, 0
1, 135359, Note_on_c, 9, 35, 0
1, 135360, Note_on_c, 9, 42, 90
1, 135360, Note_on_c, 9, 35, 100
1, 135599, Note_on_c, 9, 42, 0
1, 135600, Note_on_c, 9, 42, 70
1, 135839, Note_on_c, 9, 35, 0
1, 135839, Note_on_c, 9, 42, 0
1, 135840, Note_on_c, 9, 38, 100
1, 135840, Note_on_c, 9, 42, 100
1, 136079, Note_on_c, 9, 38, 0
1, 136079, Note_on_c, 9, 42, 0
1, 136080, Note_on_c, 9, 42, 70
1, 136319, Note_on_c, 9, 42, 0
1, 136320, Note_on_c, 9, 42, 90
1, 136320, Note_on_c, 9, 35, 90
1, 136559, Note_on_c, 9, 42, 0
1, 136560, Note_on_c, 9, 42, 70
1, 136799, Note_on_c, 9, 35, 0
1, 136799, Note_on_c, 9, 42, 0
1, 136800, Note_on_c, 9, 38, 100
1, 136800, Note_on_c, 9, 42, 115
1, 137039, Note_on_c, 9, 38, 0
1, 137039, Note_on_c, 9, 42, 0
1, 137040, Note_on_c, 9, 42, 70
1, 137040, Note_on_c, 9, 35, 80
1, 137279, Note_on_c, 9, 42, 0
1, 137279, Note_on_c, 9, 35, 0
1, 137280, Note_on_c, 9, 42, 90
1, 137280, Note_on_c, 9, 35, 100
1, 137759, Note_on_c, 9, 42, 0
1, 137759, Note_on_c, 9, 35, 0
1, 137760, End_track
0, 0, End_of_file
