0, 0, Header, 1, 2, 480
1, 0, Start_track
1, 0, Time_signature, 4, 2, 24, 8
1, 0, Key_signature, 0, "major"
1, 0, Tempo, 500000
1, 0, Control_c, 9, 121, 0
1, 0, Program_c, 9, 0
1, 0, Control_c, 9, 7, 117
1, 0, Control_c, 9, 10, 64
1, 0, Control_c, 9, 91, 0
1, 0, Control_c, 9, 93, 0
1, 0, MIDI_port, 0
1, 7680, Note_on_c, 9, 42, 114
1, 7680, Note_on_c, 9, 36, 117
1, 7919, Note_on_c, 9, 42, 0
1, 7950, Note_on_c, 9, 42, 84
1, 8039, Note_on_c, 9, 42, 0
1, 8159, Note_on_c, 9, 36, 0
1, 8160, Note_on_c, 9, 38, 127
1, 8160, Note_on_c, 9, 42, 119
1, 8399, Note_on_c, 9, 38, 0
1, 8399, Note_on_c, 9, 42, 0
1, 8415, Note_on_c, 9, 42, 79
1, 8639, Note_on_c, 9, 42, 0
1, 8640, Note_on_c, 9, 42, 107
1, 8640, Note_on_c, 9, 36, 117
1, 8879, Note_on_c, 9, 42, 0
1, 8880, Note_on_c, 9, 42, 90
1, 9119, Note_on_c, 9, 36, 0
1, 9119, Note_on_c, 9, 42, 0
1, 9120, Note_on_c, 9, 38, 127
1, 9120, Note_on_c, 9, 42, 117
1, 9359, Note_on_c, 9, 38, 0
1, 9359, Note_on_c, 9, 42, 0
1, 9360, Note_on_c, 9, 42, 91
1, 9599, Note_on_c, 9, 42, 0
1, 9600, Note_on_c, 9, 42, 114
1, 9600, Note_on_c, 9, 36, 124
1, 9839, Note_on_c, 9, 42, 0
1, 9840, Note_on_c, 9, 42, 84
1, 10079, Note_on_c, 9, 36, 0
1, 10079, Note_on_c, 9, 42, 0
1, 10080, Note_on_c, 9, 38, 127
1, 10080, Note_on_c, 9, 42, 106
1, 10319, Note_on_c, 9, 38, 0
1, 10319, Note_on_c, 9, 42, 0
1, 10320, Note_on_c, 9, 42, 86
1, 10559, Note_on_c, 9, 42, 0
1, 10560, Note_on_c, 9, 42, 117
1, 10560, Note_on_c, 9, 36, 121
1, 10799, Note_on_c, 9, 42, 0
1, 10800, Note_on_c, 9, 42, 92
1, 11039, Note_on_c, 9, 36, 0
1, 11039, Note_on_c, 9, 42, 0
1, 11040, Note_on_c, 9, 38, 127
1, 11040, Note_on_c, 9, 42, 104
1, 11279, Note_on_c, 9, 38, 0
1, 11279, Note_on_c, 9, 42, 0
1, 11295, Note_on_c, 9, 42, 90
1, 11519, Note_on_c, 9, 42, 0
1, 11520, Note_on_c, 9, 42, 104
1, 11520, Note_on_c, 9, 36, 119
1, 11759, Note_on_c, 9, 42, 0
1, 11760, Note_on_c, 9, 42, 83
1, 11999, Note_on_c, 9, 36, 0
1, 11999, Note_on_c, 9, 42, 0
1, 12000, Note_on_c, 9, 38, 127
1, 12000, Note_on_c, 9, 42, 107
1, 12239, Note_on_c, 9, 38, 0
1, 12239, Note_on_c, 9, 42, 0
1, 12240, Note_on_c, 9, 42, 91
1, 12479, Note_on_c, 9, 42, 0
1, 12480, Note_on_c, 9, 42, 114
1, 12480, Note_on_c, 9, 36, 119
1, 12719, Note_on_c, 9, 42, 0
1, 12720, Note_on_c, 9, 42, 91
1, 12959, Note_on_c, 9, 36, 0
1, 12959, Note_on_c, 9, 42, 0
1, 12960, Note_on_c, 9, 38, 127
1, 12960, Note_on_c, 9, 42, 112
1, 13199, Note_on_c, 9, 38, 0
1, 13199, Note_on_c, 9, 42, 0
1, 13215, Note_on_c, 9, 42, 86
1, 13439, Note_on_c, 9, 42, 0
1, 13440, Note_on_c, 9, 42, 95
1, 13440, Note_on_c, 9, 36, 116
1, 13679, Note_on_c, 9, 42, 0
1, 13680, Note_on_c, 9, 42, 82
1, 13919, Note_on_c, 9, 36, 0
1, 13919, Note_on_c, 9, 42, 0
1, 13920, Note_on_c, 9, 38, 127
1, 13920, Note_on_c, 9, 42, 106
1, 14159, Note_on_c, 9, 38, 0
1, 14159, Note_on_c, 9, 42, 0
1, 14160, Note_on_c, 9, 42, 90
1, 14399, Note_on_c, 9, 42, 0
1, 14400, Note_on_c, 9, 42, 114
1, 14400, Note_on_c, 9, 36, 117
1, 14639, Note_on_c, 9, 42, 0
1, 14639, Note_on_c, 9, 36, 0
1, 14640, Note_on_c, 9, 42, 107
1, 14640, Note_on_c, 9, 36, 119
1, 14879, Note_on_c, 9, 42, 0
1, 14879, Note_on_c, 9, 36, 0
1, 14880, Note_on_c, 9, 38, 127
1, 14880, Note_on_c, 9, 42, 122
1, 15119, Note_on_c, 9, 38, 0
1, 15119, Note_on_c, 9, 42, 0
1, 15120, Note_on_c, 9, 42, 101
1, 15359, Note_on_c, 9, 42, 0
1, 15360, Note_on_c, 9, 42, 109
1, 15360, Note_on_c, 9, 36, 117
1, 15599, Note_on_c, 9, 42, 0
1, 15600, Note_on_c, 9, 42, 94
1, 15839, Note_on_c, 9, 36, 0
1, 15839, Note_on_c, 9, 42, 0
1, 15840, Note_on_c, 9, 38, 127
1, 15840, Note_on_c, 9, 42, 114
1, 16079, Note_on_c, 9, 38, 0
1, 16079, Note_on_c, 9, 42, 0
1, 16095, Note_on_c, 9, 42, 101
1, 16319, Note_on_c, 9, 42, 0
1, 16320, Note_on_c, 9, 42, 109
1, 16320, Note_on_c, 9, 36, 122
1, 16559, Note_on_c, 9, 42, 0
1, 16559, Note_on_c, 9, 36, 0
1, 16560, Note_on_c, 9, 42, 106
1, 16560, Note_on_c, 9, 36, 113
1, 16799, Note_on_c, 9, 42, 0
1, 16799, Note_on_c, 9, 36, 0
1, 16800, Note_on_c, 9, 38, 127
1, 16800, Note_on_c, 9, 42, 117
1, 17039, Note_on_c, 9, 38, 0
1, 17039, Note_on_c, 9, 42, 0
1, 17040, Note_on_c, 9, 42, 99
1, 17279, Note_on_c, 9, 42, 0
1, 17280, Note_on_c, 9, 42, 117
1, 17280, Note_on_c, 9, 36, 119
1, 17519, Note_on_c, 9, 42, 0
1, 17520, Note_on_c, 9, 42, 98
1, 17759, Note_on_c, 9, 36, 0
1, 17759, Note_on_c, 9, 42, 0
1, 17760, Note_on_c, 9, 38, 127
1, 17760, Note_on_c, 9, 42, 117
1, 17999, Note_on_c, 9, 38, 0
1, 17999, Note_on_c, 9, 42, 0
1, 18030, Note_on_c, 9, 42, 99
1, 18119, Note_on_c, 9, 42, 0
1, 18240, Note_on_c, 9, 42, 117
1, 18240, Note_on_c, 9, 36, 116
1, 18479, Note_on_c, 9, 42, 0
1, 18495, Note_on_c, 9, 42, 104
1, 18719, Note_on_c, 9, 36, 0
1, 18719, Note_on_c, 9, 42, 0
1, 18720, Note_on_c, 9, 38, 127
1, 18720, Note_on_c, 9, 42, 114
1, 18959, Note_on_c, 9, 38, 0
1, 18959, Note_on_c, 9, 42, 0
1, 18975, Note_on_c, 9, 42, 92
1, 19199, Note_on_c, 9, 42, 0
1, 19200, Note_on_c, 9, 42, 109
1, 19200, Note_on_c, 9, 36, 117
1, 19439, Note_on_c, 9, 42, 0
1, 19440, Note_on_c, 9, 42, 97
1, 19679, Note_on_c, 9, 36, 0
1, 19679, Note_on_c, 9, 42, 0
1, 19695, Note_on_c, 9, 38, 127
1, 19695, Note_on_c, 9, 42, 114
1, 19754, Note_on_c, 9, 38, 0
1, 19919, Note_on_c, 9, 42, 0
1, 19920, Note_on_c, 9, 42, 95
1, 20159, Note_on_c, 9, 42, 0
1, 20160, Note_on_c, 9, 42, 117
1, 20160, Note_on_c, 9, 36, 117
1, 20399, Note_on_c, 9, 42, 0
1, 20399, Note_on_c, 9, 36, 0
1, 20400, Note_on_c, 9, 42, 109
1, 20400, Note_on_c, 9, 36, 117
1, 20639, Note_on_c, 9, 42, 0
1, 20639, Note_on_c, 9, 36, 0
1, 20640, Note_on_c, 9, 38, 127
1, 20640, Note_on_c, 9, 42, 122
1, 20879, Note_on_c, 9, 38, 0
1, 20879, Note_on_c, 9, 42, 0
1, 20895, Note_on_c, 9, 42, 94
1, 21119, Note_on_c, 9, 42, 0
1, 21120, Note_on_c, 9, 42, 117
1, 21150, Note_on_c, 9, 36, 121
1, 21209, Note_on_c, 9, 36, 0
1, 21359, Note_on_c, 9, 42, 0
1, 21375, Note_on_c, 9, 42, 93
1, 21599, Note_on_c, 9, 42, 0
1, 21600, Note_on_c, 9, 38, 127
1, 21600, Note_on_c, 9, 42, 109
1, 21839, Note_on_c, 9, 38, 0
1, 21839, Note_on_c, 9, 42, 0
1, 21840, Note_on_c, 9, 42, 94
1, 22079, Note_on_c, 9, 42, 0
1, 22080, Note_on_c, 9, 42, 109
1, 22080, Note_on_c, 9, 36, 116
1, 22319, Note_on_c, 9, 42, 0
1, 22319, Note_on_c, 9, 36, 0
1, 22320, Note_on_c, 9, 42, 106
1, 22320, Note_on_c, 9, 36, 114
1, 22559, Note_on_c, 9, 42, 0
1, 22559, Note_on_c, 9, 36, 0
1, 22560, Note_on_c, 9, 38, 127
1, 22560, Note_on_c, 9, 42, 117
1, 22799, Note_on_c, 9, 38, 0
1, 22799, Note_on_c, 9, 42, 0
1, 22815, Note_on_c, 9, 42, 94
1, 23039, Note_on_c, 9, 42, 0
1, 23040, Note_on_c, 9, 36, 122
1, 23070, Note_on_c, 9, 42, 117
1, 23159, Note_on_c, 9, 42, 0
1, 23295, Note_on_c, 9, 42, 89
1, 23519, Note_on_c, 9, 36, 0
1, 23519, Note_on_c, 9, 42, 0
1, 23520, Note_on_c, 9, 38, 127
1, 23520, Note_on_c, 9, 42, 114
1, 23759, Note_on_c, 9, 38, 0
1, 23759, Note_on_c, 9, 42, 0
1, 23760, Note_on_c, 9, 42, 85
1, 23999, Note_on_c, 9, 42, 0
1, 24000, Note_on_c, 9, 42, 104
1, 24000, Note_on_c, 9, 36, 110
1, 24239, Note_on_c, 9, 42, 0
1, 24239, Note_on_c, 9, 36, 0
1, 24240, Note_on_c, 9, 42, 106
1, 24240, Note_on_c, 9, 36, 119
1, 24479, Note_on_c, 9, 42, 0
1, 24479, Note_on_c, 9, 36, 0
1, 24480, Note_on_c, 9, 38, 127
1, 24480, Note_on_c, 9, 42, 107
1, 24719, Note_on_c, 9, 38, 0
1, 24719, Note_on_c, 9, 42, 0
1, 24735, Note_on_c, 9, 42, 97
1, 24959, Note_on_c, 9, 42, 0
1, 24960, Note_on_c, 9, 42, 95
1, 24960, Note_on_c, 9, 36, 108
1, 25199, Note_on_c, 9, 42, 0
1, 25200, Note_on_c, 9, 42, 90
1, 25439, Note_on_c, 9, 36, 0
1, 25439, Note_on_c, 9, 42, 0
1, 25440, Note_on_c, 9, 38, 127
1, 25440, Note_on_c, 9, 42, 109
1, 25679, Note_on_c, 9, 38, 0
1, 25679, Note_on_c, 9, 42, 0
1, 25695, Note_on_c, 9, 42, 84
1, 25919, Note_on_c, 9, 42, 0
1, 25920, Note_on_c, 9, 42, 112
1, 25920, Note_on_c, 9, 36, 124
1, 26159, Note_on_c, 9, 42, 0
1, 26175, Note_on_c, 9, 42, 97
1, 26399, Note_on_c, 9, 36, 0
1, 26399, Note_on_c, 9, 42, 0
1, 26400, Note_on_c, 9, 38, 127
1, 26400, Note_on_c, 9, 42, 109
1, 26639, Note_on_c, 9, 38, 0
1, 26639, Note_on_c, 9, 42, 0
1, 26640, Note_on_c, 9, 42, 90
1, 26879, Note_on_c, 9, 42, 0
1, 26880, Note_on_c, 9, 42, 107
1, 26880, Note_on_c, 9, 36, 117
1, 27119, Note_on_c, 9, 42, 0
1, 27120, Note_on_c, 9, 42, 92
1, 27359, Note_on_c, 9, 36, 0
1, 27359, Note_on_c, 9, 42, 0
1, 27375, Note_on_c, 9, 38, 127
1, 27375, Note_on_c, 9, 42, 107
1, 27434, Note_on_c, 9, 38, 0
1, 27599, Note_on_c, 9, 42, 0
1, 27600, Note_on_c, 9, 42, 104
1, 27839, Note_on_c, 9, 42, 0
1, 27840, Note_on_c, 9, 42, 117
1, 27840, Note_on_c, 9, 36, 117
1, 28079, Note_on_c, 9, 42, 0
1, 28095, Note_on_c, 9, 42, 97
1, 28319, Note_on_c, 9, 36, 0
1, 28319, Note_on_c, 9, 42, 0
1, 28320, Note_on_c, 9, 38, 127
1, 28320, Note_on_c, 9, 42, 117
1, 28559, Note_on_c, 9, 38, 0
1, 28559, Note_on_c, 9, 42, 0
1, 28560, Note_on_c, 9, 42, 91
1, 28799, Note_on_c, 9, 42, 0
1, 28800, Note_on_c, 9, 42, 109
1, 28800, Note_on_c, 9, 36, 114
1, 29039, Note_on_c, 9, 42, 0
1, 29055, Note_on_c, 9, 42, 94
1, 29279, Note_on_c, 9, 36, 0
1, 29279, Note_on_c, 9, 42, 0
1, 29280, Note_on_c, 9, 38, 127
1, 29280, Note_on_c, 9, 42, 107
1, 29519, Note_on_c, 9, 38, 0
1, 29519, Note_on_c, 9, 42, 0
1, 29535, Note_on_c, 9, 42, 104
1, 29759, Note_on_c, 9, 42, 0
1, 29760, Note_on_c, 9, 42, 109
1, 29760, Note_on_c, 9, 36, 122
1, 29999, Note_on_c, 9, 42, 0
1, 29999, Note_on_c, 9, 36, 0
1, 30000, Note_on_c, 9, 42, 109
1, 30000, Note_on_c, 9, 36, 119
1, 30239, Note_on_c, 9, 42, 0
1, 30239, Note_on_c, 9, 36, 0
1, 30240, Note_on_c, 9, 38, 126
1, 30240, Note_on_c, 9, 42, 122
1, 30479, Note_on_c, 9, 38, 0
1, 30479, Note_on_c, 9, 42, 0
1, 30495, Note_on_c, 9, 42, 95
1, 30719, Note_on_c, 9, 42, 0
1, 30720, Note_on_c, 9, 36, 119
1, 30735, Note_on_c, 9, 42, 117
1, 30959, Note_on_c, 9, 42, 0
1, 30960, Note_on_c, 9, 42, 98
1, 31199, Note_on_c, 9, 36, 0
1, 31199, Note_on_c, 9, 42, 0
1, 31200, Note_on_c, 9, 38, 127
1, 31200, Note_on_c, 9, 42, 109
1, 31439, Note_on_c, 9, 38, 0
1, 31439, Note_on_c, 9, 42, 0
1, 31440, Note_on_c, 9, 42, 94
1, 31679, Note_on_c, 9, 42, 0
1, 31680, Note_on_c, 9, 42, 109
1, 31680, Note_on_c, 9, 36, 119
1, 31919, Note_on_c, 9, 42, 0
1, 31919, Note_on_c, 9, 36, 0
1, 31920, Note_on_c, 9, 42, 107
1, 31920, Note_on_c, 9, 36, 116
1, 32159, Note_on_c, 9, 42, 0
1, 32159, Note_on_c, 9, 36, 0
1, 32160, Note_on_c, 9, 38, 126
1, 32160, Note_on_c, 9, 42, 114
1, 32399, Note_on_c, 9, 38, 0
1, 32399, Note_on_c, 9, 42, 0
1, 32400, Note_on_c, 9, 42, 95
1, 32639, Note_on_c, 9, 42, 0
1, 32640, Note_on_c, 9, 42, 109
1, 32640, Note_on_c, 9, 36, 111
1, 32879, Note_on_c, 9, 42, 0
1, 32910, Note_on_c, 9, 42, 94
1, 32999, Note_on_c, 9, 42, 0
1, 33119, Note_on_c, 9, 36, 0
1, 33120, Note_on_c, 9, 38, 127
1, 33120, Note_on_c, 9, 42, 117
1, 33359, Note_on_c, 9, 38, 0
1, 33359, Note_on_c, 9, 42, 0
1, 33405, Note_on_c, 9, 42, 94
1, 33599, Note_on_c, 9, 42, 0
1, 33600, Note_on_c, 9, 42, 107
1, 33600, Note_on_c, 9, 36, 105
1, 33839, Note_on_c, 9, 42, 0
1, 33855, Note_on_c, 9, 42, 106
1, 34079, Note_on_c, 9, 36, 0
1, 34079, Note_on_c, 9, 42, 0
1, 34080, Note_on_c, 9, 38, 127
1, 34080, Note_on_c, 9, 42, 109
1, 34319, Note_on_c, 9, 38, 0
1, 34319, Note_on_c, 9, 42, 0
1, 34335, Note_on_c, 9, 42, 101
1, 34559, Note_on_c, 9, 42, 0
1, 34560, Note_on_c, 9, 42, 107
1, 34560, Note_on_c, 9, 36, 117
1, 34799, Note_on_c, 9, 42, 0
1, 34815, Note_on_c, 9, 42, 98
1, 35039, Note_on_c, 9, 36, 0
1, 35039, Note_on_c, 9, 42, 0
1, 35040, Note_on_c, 9, 38, 127
1, 35040, Note_on_c, 9, 42, 114
1, 35279, Note_on_c, 9, 38, 0
1, 35279, Note_on_c, 9, 42, 0
1, 35310, Note_on_c, 9, 42, 104
1, 35399, Note_on_c, 9, 42, 0
1, 35520, Note_on_c, 9, 42, 117
1, 35520, Note_on_c, 9, 36, 121
1, 35759, Note_on_c, 9, 42, 0
1, 35760, Note_on_c, 9, 42, 99
1, 35999, Note_on_c, 9, 36, 0
1, 35999, Note_on_c, 9, 42, 0
1, 36000, Note_on_c, 9, 38, 127
1, 36000, Note_on_c, 9, 42, 119
1, 36239, Note_on_c, 9, 38, 0
1, 36239, Note_on_c, 9, 42, 0
1, 36255, Note_on_c, 9, 42, 101
1, 36479, Note_on_c, 9, 42, 0
1, 36480, Note_on_c, 9, 42, 112
1, 36480, Note_on_c, 9, 36, 111
1, 36719, Note_on_c, 9, 42, 0
1, 36735, Note_on_c, 9, 42, 99
1, 36959, Note_on_c, 9, 36, 0
1, 36959, Note_on_c, 9, 42, 0
1, 36975, Note_on_c, 9, 38, 127
1, 36975, Note_on_c, 9, 42, 119
1, 37199, Note_on_c, 9, 42, 0
1, 37214, Note_on_c, 9, 38, 0
1, 37215, Note_on_c, 9, 42, 109
1, 37439, Note_on_c, 9, 42, 0
1, 37440, Note_on_c, 9, 42, 122
1, 37440, Note_on_c, 9, 36, 113
1, 37679, Note_on_c, 9, 42, 0
1, 37679, Note_on_c, 9, 36, 0
1, 37680, Note_on_c, 9, 36, 122
1, 37695, Note_on_c, 9, 42, 107
1, 37919, Note_on_c, 9, 36, 0
1, 37919, Note_on_c, 9, 42, 0
1, 37920, Note_on_c, 9, 38, 127
1, 37920, Note_on_c, 9, 42, 125
1, 38159, Note_on_c, 9, 38, 0
1, 38159, Note_on_c, 9, 42, 0
1, 38175, Note_on_c, 9, 42, 102
1, 38399, Note_on_c, 9, 42, 0
1, 38400, Note_on_c, 9, 42, 109
1, 38400, Note_on_c, 9, 36, 127
1, 38639, Note_on_c, 9, 42, 0
1, 38655, Note_on_c, 9, 42, 99
1, 38879, Note_on_c, 9, 36, 0
1, 38879, Note_on_c, 9, 42, 0
1, 38880, Note_on_c, 9, 38, 127
1, 38880, Note_on_c, 9, 42, 119
1, 39119, Note_on_c, 9, 38, 0
1, 39119, Note_on_c, 9, 42, 0
1, 39120, Note_on_c, 9, 42, 98
1, 39359, Note_on_c, 9, 42, 0
1, 39360, Note_on_c, 9, 42, 117
1, 39360, Note_on_c, 9, 36, 126
1, 39599, Note_on_c, 9, 42, 0
1, 39599, Note_on_c, 9, 36, 0
1, 39600, Note_on_c, 9, 42, 112
1, 39600, Note_on_c, 9, 36, 111
1, 39839, Note_on_c, 9, 42, 0
1, 39839, Note_on_c, 9, 36, 0
1, 39840, Note_on_c, 9, 38, 127
1, 39840, Note_on_c, 9, 42, 119
1, 40079, Note_on_c, 9, 38, 0
1, 40079, Note_on_c, 9, 42, 0
1, 40080, Note_on_c, 9, 42, 104
1, 40319, Note_on_c, 9, 42, 0
1, 40320, Note_on_c, 9, 42, 119
1, 40320, Note_on_c, 9, 36, 119
1, 40559, Note_on_c, 9, 42, 0
1, 40590, Note_on_c, 9, 42, 102
1, 40679, Note_on_c, 9, 42, 0
1, 40799, Note_on_c, 9, 36, 0
1, 40800, Note_on_c, 9, 38, 127
1, 40800, Note_on_c, 9, 42, 107
1, 41039, Note_on_c, 9, 38, 0
1, 41039, Note_on_c, 9, 42, 0
1, 41100, Note_on_c, 9, 42, 101
1, 41279, Note_on_c, 9, 42, 0
1, 41280, Note_on_c, 9, 42, 107
1, 41280, Note_on_c, 9, 36, 119
1, 41519, Note_on_c, 9, 42, 0
1, 41520, Note_on_c, 9, 42, 98
1, 41759, Note_on_c, 9, 36, 0
1, 41759, Note_on_c, 9, 42, 0
1, 41775, Note_on_c, 9, 38, 127
1, 41775, Note_on_c, 9, 42, 114
1, 41999, Note_on_c, 9, 42, 0
1, 42014, Note_on_c, 9, 38, 0
1, 42015, Note_on_c, 9, 42, 104
1, 42239, Note_on_c, 9, 42, 0
1, 42240, Note_on_c, 9, 42, 119
1, 42240, Note_on_c, 9, 36, 122
1, 42479, Note_on_c, 9, 42, 0
1, 42495, Note_on_c, 9, 42, 99
1, 42719, Note_on_c, 9, 36, 0
1, 42719, Note_on_c, 9, 42, 0
1, 42720, Note_on_c, 9, 38, 127
1, 42720, Note_on_c, 9, 42, 119
1, 42959, Note_on_c, 9, 38, 0
1, 42959, Note_on_c, 9, 42, 0
1, 43005, Note_on_c, 9, 42, 102
1, 43199, Note_on_c, 9, 42, 0
1, 43260, Note_on_c, 9, 42, 117
1, 43260, Note_on_c, 9, 36, 122
1, 43439, Note_on_c, 9, 42, 0
1, 43439, Note_on_c, 9, 36, 0
1, 43500, Note_on_c, 9, 42, 102
1, 43679, Note_on_c, 9, 42, 0
1, 43680, Note_on_c, 9, 38, 127
1, 43680, Note_on_c, 9, 42, 112
1, 43919, Note_on_c, 9, 38, 0
1, 43919, Note_on_c, 9, 42, 0
1, 43935, Note_on_c, 9, 42, 106
1, 44159, Note_on_c, 9, 42, 0
1, 44160, Note_on_c, 9, 42, 122
1, 44160, Note_on_c, 9, 36, 119
1, 44399, Note_on_c, 9, 42, 0
1, 44400, Note_on_c, 9, 42, 101
1, 44639, Note_on_c, 9, 36, 0
1, 44639, Note_on_c, 9, 42, 0
1, 44640, Note_on_c, 9, 38, 124
1, 44640, Note_on_c, 9, 42, 117
1, 44879, Note_on_c, 9, 38, 0
1, 44879, Note_on_c, 9, 42, 0
1, 44925, Note_on_c, 9, 42, 95
1, 45119, Note_on_c, 9, 42, 0
1, 45120, Note_on_c, 9, 36, 127
1, 45150, Note_on_c, 9, 42, 119
1, 45239, Note_on_c, 9, 42, 0
1, 45359, Note_on_c, 9, 36, 0
1, 45360, Note_on_c, 9, 42, 119
1, 45360, Note_on_c, 9, 36, 124
1, 45599, Note_on_c, 9, 42, 0
1, 45599, Note_on_c, 9, 36, 0
1, 45600, Note_on_c, 9, 38, 127
1, 45600, Note_on_c, 9, 42, 127
1, 45839, Note_on_c, 9, 38, 0
1, 45839, Note_on_c, 9, 42, 0
1, 45840, Note_on_c, 9, 42, 117
1, 46079, Note_on_c, 9, 42, 0
1, 46080, Note_on_c, 9, 36, 127
1, 46110, Note_on_c, 9, 42, 125
1, 46199, Note_on_c, 9, 42, 0
1, 46320, Note_on_c, 9, 42, 94
1, 46559, Note_on_c, 9, 36, 0
1, 46559, Note_on_c, 9, 42, 0
1, 46560, Note_on_c, 9, 38, 127
1, 46560, Note_on_c, 9, 42, 122
1, 46799, Note_on_c, 9, 38, 0
1, 46799, Note_on_c, 9, 42, 0
1, 46800, Note_on_c, 9, 42, 91
1, 47039, Note_on_c, 9, 42, 0
1, 47040, Note_on_c, 9, 42, 114
1, 47040, Note_on_c, 9, 36, 126
1, 47279, Note_on_c, 9, 42, 0
1, 47279, Note_on_c, 9, 36, 0
1, 47280, Note_on_c, 9, 36, 122
1, 47295, Note_on_c, 9, 42, 114
1, 47519, Note_on_c, 9, 36, 0
1, 47519, Note_on_c, 9, 42, 0
1, 47520, Note_on_c, 9, 38, 127
1, 47520, Note_on_c, 9, 42, 125
1, 47759, Note_on_c, 9, 38, 0
1, 47759, Note_on_c, 9, 42, 0
1, 47775, Note_on_c, 9, 42, 104
1, 47999, Note_on_c, 9, 42, 0
1, 48000, Note_on_c, 9, 42, 122
1, 48000, Note_on_c, 9, 36, 121
1, 48239, Note_on_c, 9, 42, 0
1, 48240, Note_on_c, 9, 42, 97
1, 48479, Note_on_c, 9, 36, 0
1, 48479, Note_on_c, 9, 42, 0
1, 48480, Note_on_c, 9, 38, 127
1, 48480, Note_on_c, 9, 42, 122
1, 48719, Note_on_c, 9, 38, 0
1, 48719, Note_on_c, 9, 42, 0
1, 48720, Note_on_c, 9, 42, 104
1, 48959, Note_on_c, 9, 42, 0
1, 48960, Note_on_c, 9, 42, 119
1, 48960, Note_on_c, 9, 36, 121
1, 49199, Note_on_c, 9, 42, 0
1, 49199, Note_on_c, 9, 36, 0
1, 49200, Note_on_c, 9, 42, 112
1, 49200, Note_on_c, 9, 36, 124
1, 49439, Note_on_c, 9, 42, 0
1, 49439, Note_on_c, 9, 36, 0
1, 49440, Note_on_c, 9, 38, 127
1, 49440, Note_on_c, 9, 42, 125
1, 49679, Note_on_c, 9, 38, 0
1, 49679, Note_on_c, 9, 42, 0
1, 49695, Note_on_c, 9, 42, 101
1, 49919, Note_on_c, 9, 42, 0
1, 49920, Note_on_c, 9, 42, 119
1, 49920, Note_on_c, 9, 36, 127
1, 50159, Note_on_c, 9, 42, 0
1, 50175, Note_on_c, 9, 42, 93
1, 50399, Note_on_c, 9, 36, 0
1, 50399, Note_on_c, 9, 42, 0
1, 50400, Note_on_c, 9, 38, 127
1, 50400, Note_on_c, 9, 42, 114
1, 50639, Note_on_c, 9, 38, 0
1, 50639, Note_on_c, 9, 42, 0
1, 50655, Note_on_c, 9, 42, 94
1, 50879, Note_on_c, 9, 42, 0
1, 50880, Note_on_c, 9, 42, 109
1, 50880, Note_on_c, 9, 36, 126
1, 51119, Note_on_c, 9, 42, 0
1, 51119, Note_on_c, 9, 36, 0
1, 51120, Note_on_c, 9, 42, 107
1, 51120, Note_on_c, 9, 36, 121
1, 51359, Note_on_c, 9, 42, 0
1, 51359, Note_on_c, 9, 36, 0
1, 51360, Note_on_c, 9, 38, 127
1, 51360, Note_on_c, 9, 42, 119
1, 51599, Note_on_c, 9, 38, 0
1, 51599, Note_on_c, 9, 42, 0
1, 51600, Note_on_c, 9, 42, 104
1, 51839, Note_on_c, 9, 42, 0
1, 51840, Note_on_c, 9, 42, 119
1, 51840, Note_on_c, 9, 36, 127
1, 52079, Note_on_c, 9, 42, 0
1, 52080, Note_on_c, 9, 42, 97
1, 52319, Note_on_c, 9, 36, 0
1, 52319, Note_on_c, 9, 42, 0
1, 52320, Note_on_c, 9, 38, 127
1, 52320, Note_on_c, 9, 42, 125
1, 52559, Note_on_c, 9, 38, 0
1, 52559, Note_on_c, 9, 42, 0
1, 52560, Note_on_c, 9, 42, 93
1, 52799, Note_on_c, 9, 42, 0
1, 52800, Note_on_c, 9, 36, 122
1, 52815, Note_on_c, 9, 42, 117
1, 53039, Note_on_c, 9, 36, 0
1, 53039, Note_on_c, 9, 42, 0
1, 53040, Note_on_c, 9, 42, 112
1, 53040, Note_on_c, 9, 36, 121
1, 53279, Note_on_c, 9, 42, 0
1, 53279, Note_on_c, 9, 36, 0
1, 53280, Note_on_c, 9, 38, 127
1, 53280, Note_on_c, 9, 42, 125
1, 53519, Note_on_c, 9, 38, 0
1, 53519, Note_on_c, 9, 42, 0
1, 53520, Note_on_c, 9, 42, 94
1, 53759, Note_on_c, 9, 42, 0
1, 53760, Note_on_c, 9, 42, 117
1, 53760, Note_on_c, 9, 36, 127
1, 53999, Note_on_c, 9, 42, 0
1, 54015, Note_on_c, 9, 42, 98
1, 54239, Note_on_c, 9, 36, 0
1, 54239, Note_on_c, 9, 42, 0
1, 54240, Note_on_c, 9, 38, 127
1, 54240, Note_on_c, 9, 42, 125
1, 54479, Note_on_c, 9, 38, 0
1, 54479, Note_on_c, 9, 42, 0
1, 54525, Note_on_c, 9, 42, 92
1, 54719, Note_on_c, 9, 42, 0
1, 54720, Note_on_c, 9, 42, 117
1, 54720, Note_on_c, 9, 36, 127
1, 54959, Note_on_c, 9, 42, 0
1, 54959, Note_on_c, 9, 36, 0
1, 54960, Note_on_c, 9, 42, 104
1, 54960, Note_on_c, 9, 36, 117
1, 55199, Note_on_c, 9, 42, 0
1, 55199, Note_on_c, 9, 36, 0
1, 55200, Note_on_c, 9, 38, 127
1, 55200, Note_on_c, 9, 42, 114
1, 55439, Note_on_c, 9, 38, 0
1, 55439, Note_on_c, 9, 42, 0
1, 55440, Note_on_c, 9, 42, 104
1, 55679, Note_on_c, 9, 42, 0
1, 55680, Note_on_c, 9, 42, 122
1, 55680, Note_on_c, 9, 36, 127
1, 55919, Note_on_c, 9, 42, 0
1, 55950, Note_on_c, 9, 42, 104
1, 56039, Note_on_c, 9, 42, 0
1, 56159, Note_on_c, 9, 36, 0
1, 56160, Note_on_c, 9, 38, 127
1, 56160, Note_on_c, 9, 42, 117
1, 56399, Note_on_c, 9, 38, 0
1, 56399, Note_on_c, 9, 42, 0
1, 56400, Note_on_c, 9, 42, 93
1, 56639, Note_on_c, 9, 42, 0
1, 56640, Note_on_c, 9, 42, 107
1, 56640, Note_on_c, 9, 36, 127
1, 56879, Note_on_c, 9, 42, 0
1, 56879, Note_on_c, 9, 36, 0
1, 56880, Note_on_c, 9, 42, 114
1, 56880, Note_on_c, 9, 36, 124
1, 57119, Note_on_c, 9, 42, 0
1, 57119, Note_on_c, 9, 36, 0
1, 57120, Note_on_c, 9, 38, 127
1, 57120, Note_on_c, 9, 42, 125
1, 57359, Note_on_c, 9, 38, 0
1, 57359, Note_on_c, 9, 42, 0
1, 57360, Note_on_c, 9, 42, 102
1, 57599, Note_on_c, 9, 42, 0
1, 57600, Note_on_c, 9, 42, 122
1, 57600, Note_on_c, 9, 36, 127
1, 57839, Note_on_c, 9, 42, 0
1, 57840, Note_on_c, 9, 42, 94
1, 58079, Note_on_c, 9, 36, 0
1, 58079, Note_on_c, 9, 42, 0
1, 58080, Note_on_c, 9, 38, 127
1, 58080, Note_on_c, 9, 42, 119
1, 58319, Note_on_c, 9, 38, 0
1, 58319, Note_on_c, 9, 42, 0
1, 58320, Note_on_c, 9, 42, 107
1, 58559, Note_on_c, 9, 42, 0
1, 58560, Note_on_c, 9, 42, 117
1, 58560, Note_on_c, 9, 36, 127
1, 58799, Note_on_c, 9, 42, 0
1, 58800, Note_on_c, 9, 42, 102
1, 59039, Note_on_c, 9, 36, 0
1, 59039, Note_on_c, 9, 42, 0
1, 59070, Note_on_c, 9, 38, 127
1, 59070, Note_on_c, 9, 42, 122
1, 59129, Note_on_c, 9, 38, 0
1, 59129, Note_on_c, 9, 42, 0
1, 59280, Note_on_c, 9, 42, 99
1, 59519, Note_on_c, 9, 42, 0
1, 59520, Note_on_c, 9, 42, 119
1, 59520, Note_on_c, 9, 36, 127
1, 59759, Note_on_c, 9, 42, 0
1, 59760, Note_on_c, 9, 42, 102
1, 59999, Note_on_c, 9, 36, 0
1, 59999, Note_on_c, 9, 42, 0
1, 60080, Note_on_c, 9, 38, 127
1, 60080, Note_on_c, 9, 42, 119
1, 60319, Note_on_c, 9, 38, 0
1, 60319, Note_on_c, 9, 42, 0
1, 60320, Note_on_c, 9, 42, 106
1, 60479, Note_on_c, 9, 42, 0
1, 60540, Note_on_c, 9, 42, 125
1, 60540, Note_on_c, 9, 36, 127
1, 60719, Note_on_c, 9, 42, 0
1, 60719, Note_on_c, 9, 36, 0
1, 60735, Note_on_c, 9, 42, 102
1, 60959, Note_on_c, 9, 42, 0
1, 60960, Note_on_c, 9, 38, 127
1, 60960, Note_on_c, 9, 42, 125
1, 61199, Note_on_c, 9, 38, 0
1, 61199, Note_on_c, 9, 42, 0
1, 61200, Note_on_c, 9, 42, 99
1, 61439, Note_on_c, 9, 42, 0
1, 61440, Note_on_c, 9, 42, 119
1, 61440, Note_on_c, 9, 36, 127
1, 61679, Note_on_c, 9, 42, 0
1, 61680, Note_on_c, 9, 42, 83
1, 61919, Note_on_c, 9, 36, 0
1, 61919, Note_on_c, 9, 42, 0
1, 61920, Note_on_c, 9, 38, 127
1, 61920, Note_on_c, 9, 42, 125
1, 62159, Note_on_c, 9, 38, 0
1, 62159, Note_on_c, 9, 42, 0
1, 62160, Note_on_c, 9, 42, 95
1, 62399, Note_on_c, 9, 42, 0
1, 62400, Note_on_c, 9, 42, 117
1, 62400, Note_on_c, 9, 36, 124
1, 62639, Note_on_c, 9, 42, 0
1, 62639, Note_on_c, 9, 36, 0
1, 62640, Note_on_c, 9, 42, 109
1, 62640, Note_on_c, 9, 36, 126
1, 62879, Note_on_c, 9, 42, 0
1, 62879, Note_on_c, 9, 36, 0
1, 62880, Note_on_c, 9, 38, 127
1, 62880, Note_on_c, 9, 42, 122
1, 63119, Note_on_c, 9, 38, 0
1, 63119, Note_on_c, 9, 42, 0
1, 63120, Note_on_c, 9, 42, 112
1, 63359, Note_on_c, 9, 42, 0
1, 63360, Note_on_c, 9, 42, 114
1, 63360, Note_on_c, 9, 36, 127
1, 63599, Note_on_c, 9, 42, 0
1, 63599, Note_on_c, 9, 36, 0
1, 63600, Note_on_c, 9, 42, 109
1, 63600, Note_on_c, 9, 36, 126
1, 63839, Note_on_c, 9, 42, 0
1, 63839, Note_on_c, 9, 36, 0
1, 63840, Note_on_c, 9, 38, 127
1, 63840, Note_on_c, 9, 42, 122
1, 64079, Note_on_c, 9, 38, 0
1, 64079, Note_on_c, 9, 42, 0
1, 64095, Note_on_c, 9, 42, 90
1, 64319, Note_on_c, 9, 42, 0
1, 64320, Note_on_c, 9, 42, 119
1, 64320, Note_on_c, 9, 36, 127
1, 64559, Note_on_c, 9, 42, 0
1, 64560, Note_on_c, 9, 42, 104
1, 64799, Note_on_c, 9, 36, 0
1, 64799, Note_on_c, 9, 42, 0
1, 64800, Note_on_c, 9, 38, 127
1, 64800, Note_on_c, 9, 42, 122
1, 65039, Note_on_c, 9, 38, 0
1, 65039, Note_on_c, 9, 42, 0
1, 65040, Note_on_c, 9, 42, 104
1, 65279, Note_on_c, 9, 42, 0
1, 65280, Note_on_c, 9, 42, 122
1, 65280, Note_on_c, 9, 36, 127
1, 65519, Note_on_c, 9, 42, 0
1, 65550, Note_on_c, 9, 42, 91
1, 65639, Note_on_c, 9, 42, 0
1, 65759, Note_on_c, 9, 36, 0
1, 65760, Note_on_c, 9, 38, 127
1, 65760, Note_on_c, 9, 42, 125
1, 65999, Note_on_c, 9, 38, 0
1, 65999, Note_on_c, 9, 42, 0
1, 66000, Note_on_c, 9, 42, 92
1, 66239, Note_on_c, 9, 42, 0
1, 66240, Note_on_c, 9, 42, 112
1, 66240, Note_on_c, 9, 36, 127
1, 66479, Note_on_c, 9, 42, 0
1, 66479, Note_on_c, 9, 36, 0
1, 66480, Note_on_c, 9, 42, 109
1, 66480, Note_on_c, 9, 36, 126
1, 66719, Note_on_c, 9, 42, 0
1, 66719, Note_on_c, 9, 36, 0
1, 66720, Note_on_c, 9, 38, 127
1, 66720, Note_on_c, 9, 42, 119
1, 66959, Note_on_c, 9, 38, 0
1, 66959, Note_on_c, 9, 42, 0
1, 66960, Note_on_c, 9, 42, 107
1, 67199, Note_on_c, 9, 42, 0
1, 67200, Note_on_c, 9, 42, 114
1, 67200, Note_on_c, 9, 36, 124
1, 67439, Note_on_c, 9, 42, 0
1, 67439, Note_on_c, 9, 36, 0
1, 67440, Note_on_c, 9, 42, 112
1, 67440, Note_on_c, 9, 36, 127
1, 67679, Note_on_c, 9, 42, 0
1, 67679, Note_on_c, 9, 36, 0
1, 67680, Note_on_c, 9, 38, 127
1, 67680, Note_on_c, 9, 42, 122
1, 67919, Note_on_c, 9, 38, 0
1, 67919, Note_on_c, 9, 42, 0
1, 67920, Note_on_c, 9, 42, 93
1, 68159, Note_on_c, 9, 42, 0
1, 68160, Note_on_c, 9, 42, 119
1, 68160, Note_on_c, 9, 36, 127
1, 68399, Note_on_c, 9, 42, 0
1, 68399, Note_on_c, 9, 36, 0
1, 68400, Note_on_c, 9, 42, 109
1, 68400, Note_on_c, 9, 36, 127
1, 68639, Note_on_c, 9, 42, 0
1, 68639, Note_on_c, 9, 36, 0
1, 68640, Note_on_c, 9, 38, 127
1, 68640, Note_on_c, 9, 42, 122
1, 68879, Note_on_c, 9, 38, 0
1, 68879, Note_on_c, 9, 42, 0
1, 68895, Note_on_c, 9, 42, 109
1, 69119, Note_on_c, 9, 42, 0
1, 69120, Note_on_c, 9, 42, 125
1, 69120, Note_on_c, 9, 36, 127
1, 69359, Note_on_c, 9, 42, 0
1, 69375, Note_on_c, 9, 42, 97
1, 69599, Note_on_c, 9, 36, 0
1, 69599, Note_on_c, 9, 42, 0
1, 69600, Note_on_c, 9, 38, 127
1, 69600, Note_on_c, 9, 42, 127
1, 69839, Note_on_c, 9, 38, 0
1, 69839, Note_on_c, 9, 42, 0
1, 69855, Note_on_c, 9, 42, 94
1, 70079, Note_on_c, 9, 42, 0
1, 70080, Note_on_c, 9, 42, 125
1, 70080, Note_on_c, 9, 36, 127
1, 70319, Note_on_c, 9, 42, 0
1, 70319, Note_on_c, 9, 36, 0
1, 70320, Note_on_c, 9, 36, 127
1, 70335, Note_on_c, 9, 42, 112
1, 70559, Note_on_c, 9, 36, 0
1, 70559, Note_on_c, 9, 42, 0
1, 70560, Note_on_c, 9, 38, 127
1, 70560, Note_on_c, 9, 42, 122
1, 70799, Note_on_c, 9, 38, 0
1, 70799, Note_on_c, 9, 42, 0
1, 70800, Note_on_c, 9, 42, 104
1, 71039, Note_on_c, 9, 42, 0
1, 71040, Note_on_c, 9, 42, 125
1, 71040, Note_on_c, 9, 36, 127
1, 71279, Note_on_c, 9, 42, 0
1, 71279, Note_on_c, 9, 36, 0
1, 71280, Note_on_c, 9, 42, 114
1, 71280, Note_on_c, 9, 36, 127
1, 71519, Note_on_c, 9, 42, 0
1, 71519, Note_on_c, 9, 36, 0
1, 71520, Note_on_c, 9, 38, 127
1, 71520, Note_on_c, 9, 42, 125
1, 71759, Note_on_c, 9, 38, 0
1, 71759, Note_on_c, 9, 42, 0
1, 71760, Note_on_c, 9, 42, 101
1, 71999, Note_on_c, 9, 42, 0
1, 72000, Note_on_c, 9, 42, 122
1, 72000, Note_on_c, 9, 36, 127
1, 72239, Note_on_c, 9, 42, 0
1, 72240, Note_on_c, 9, 42, 95
1, 72479, Note_on_c, 9, 36, 0
1, 72479, Note_on_c, 9, 42, 0
1, 72480, Note_on_c, 9, 38, 127
1, 72480, Note_on_c, 9, 42, 122
1, 72719, Note_on_c, 9, 38, 0
1, 72719, Note_on_c, 9, 42, 0
1, 72720, Note_on_c, 9, 42, 98
1, 72959, Note_on_c, 9, 42, 0
1, 72960, Note_on_c, 9, 42, 122
1, 72960, Note_on_c, 9, 36, 124
1, 73199, Note_on_c, 9, 42, 0
1, 73215, Note_on_c, 9, 42, 94
1, 73439, Note_on_c, 9, 36, 0
1, 73439, Note_on_c, 9, 42, 0
1, 73440, Note_on_c, 9, 38, 127
1, 73440, Note_on_c, 9, 42, 125
1, 73679, Note_on_c, 9, 38, 0
1, 73679, Note_on_c, 9, 42, 0
1, 73680, Note_on_c, 9, 42, 109
1, 73919, Note_on_c, 9, 42, 0
1, 73920, Note_on_c, 9, 42, 119
1, 73920, Note_on_c, 9, 36, 127
1, 74159, Note_on_c, 9, 42, 0
1, 74175, Note_on_c, 9, 42, 98
1, 74399, Note_on_c, 9, 36, 0
1, 74399, Note_on_c, 9, 42, 0
1, 74400, Note_on_c, 9, 38, 127
1, 74400, Note_on_c, 9, 42, 122
1, 74639, Note_on_c, 9, 38, 0
1, 74639, Note_on_c, 9, 42, 0
1, 74655, Note_on_c, 9, 42, 101
1, 74879, Note_on_c, 9, 42, 0
1, 74880, Note_on_c, 9, 42, 122
1, 74880, Note_on_c, 9, 36, 127
1, 75119, Note_on_c, 9, 42, 0
1, 75120, Note_on_c, 9, 42, 99
1, 75359, Note_on_c, 9, 36, 0
1, 75359, Note_on_c, 9, 42, 0
1, 75360, Note_on_c, 9, 38, 127
1, 75360, Note_on_c, 9, 42, 125
1, 75599, Note_on_c, 9, 38, 0
1, 75599, Note_on_c, 9, 42, 0
1, 75615, Note_on_c, 9, 42, 117
1, 75839, Note_on_c, 9, 42, 0
1, 75840, Note_on_c, 9, 42, 122
1, 75840, Note_on_c, 9, 36, 126
1, 75959, Note_on_c, 9, 42, 0
1, 75960, Note_on_c, 9, 38, 127
1, 76079, Note_on_c, 9, 38, 0
1, 76080, Note_on_c, 9, 42, 106
1, 76199, Note_on_c, 9, 36, 0
1, 76200, Note_on_c, 9, 36, 127
1, 76319, Note_on_c, 9, 42, 0
1, 76319, Note_on_c, 9, 36, 0
1, 76320, Note_on_c, 9, 38, 127
1, 76320, Note_on_c, 9, 42, 127
1, 76559, Note_on_c, 9, 38, 0
1, 76559, Note_on_c, 9, 42, 0
1, 76575, Note_on_c, 9, 42, 101
1, 76799, Note_on_c, 9, 42, 0
1, 76800, Note_on_c, 9, 42, 127
1, 76800, Note_on_c, 9, 36, 127
1, 77039, Note_on_c, 9, 42, 0
1, 77040, Note_on_c, 9, 42, 95
1, 77279, Note_on_c, 9, 36, 0
1, 77279, Note_on_c, 9, 42, 0
1, 77280, Note_on_c, 9, 38, 127
1, 77280, Note_on_c, 9, 42, 127
1, 77519, Note_on_c, 9, 38, 0
1, 77519, Note_on_c, 9, 42, 0
1, 77520, Note_on_c, 9, 42, 101
1, 77759, Note_on_c, 9, 42, 0
1, 77760, Note_on_c, 9, 42, 119
1, 77760, Note_on_c, 9, 36, 127
1, 77999, Note_on_c, 9, 42, 0
1, 78015, Note_on_c, 9, 42, 95
1, 78239, Note_on_c, 9, 36, 0
1, 78239, Note_on_c, 9, 42, 0
1, 78240, Note_on_c, 9, 38, 127
1, 78240, Note_on_c, 9, 42, 109
1, 78479, Note_on_c, 9, 38, 0
1, 78479, Note_on_c, 9, 42, 0
1, 78495, Note_on_c, 9, 42, 107
1, 78719, Note_on_c, 9, 42, 0
1, 78720, Note_on_c, 9, 42, 122
1, 78720, Note_on_c, 9, 36, 127
1, 78959, Note_on_c, 9, 42, 0
1, 78960, Note_on_c, 9, 42, 104
1, 79199, Note_on_c, 9, 36, 0
1, 79199, Note_on_c, 9, 42, 0
1, 79200, Note_on_c, 9, 38, 127
1, 79200, Note_on_c, 9, 42, 122
1, 79439, Note_on_c, 9, 38, 0
1, 79439, Note_on_c, 9, 42, 0
1, 79440, Note_on_c, 9, 42, 106
1, 79679, Note_on_c, 9, 42, 0
1, 79680, Note_on_c, 9, 42, 119
1, 79680, Note_on_c, 9, 36, 124
1, 79919, Note_on_c, 9, 42, 0
1, 79919, Note_on_c, 9, 36, 0
1, 79920, Note_on_c, 9, 42, 119
1, 79920, Note_on_c, 9, 36, 127
1, 80159, Note_on_c, 9, 42, 0
1, 80159, Note_on_c, 9, 36, 0
1, 80160, Note_on_c, 9, 38, 127
1, 80160, Note_on_c, 9, 42, 122
1, 80399, Note_on_c, 9, 38, 0
1, 80399, Note_on_c, 9, 42, 0
1, 80415, Note_on_c, 9, 42, 101
1, 80639, Note_on_c, 9, 42, 0
1, 80640, Note_on_c, 9, 42, 125
1, 80640, Note_on_c, 9, 36, 124
1, 80879, Note_on_c, 9, 42, 0
1, 80880, Note_on_c, 9, 42, 97
1, 81119, Note_on_c, 9, 36, 0
1, 81119, Note_on_c, 9, 42, 0
1, 81120, Note_on_c, 9, 38, 127
1, 81120, Note_on_c, 9, 42, 125
1, 81359, Note_on_c, 9, 38, 0
1, 81359, Note_on_c, 9, 42, 0
1, 81360, Note_on_c, 9, 42, 106
1, 81599, Note_on_c, 9, 42, 0
1, 81600, Note_on_c, 9, 42, 119
1, 81600, Note_on_c, 9, 36, 126
1, 81839, Note_on_c, 9, 42, 0
1, 81840, Note_on_c, 9, 42, 117
1, 82079, Note_on_c, 9, 36, 0
1, 82079, Note_on_c, 9, 42, 0
1, 82080, Note_on_c, 9, 38, 127
1, 82080, Note_on_c, 9, 42, 125
1, 82319, Note_on_c, 9, 38, 0
1, 82319, Note_on_c, 9, 42, 0
1, 82335, Note_on_c, 9, 42, 106
1, 82559, Note_on_c, 9, 42, 0
1, 82560, Note_on_c, 9, 42, 119
1, 82560, Note_on_c, 9, 36, 127
1, 82799, Note_on_c, 9, 42, 0
1, 82815, Note_on_c, 9, 42, 98
1, 83039, Note_on_c, 9, 36, 0
1, 83039, Note_on_c, 9, 42, 0
1, 83040, Note_on_c, 9, 38, 127
1, 83040, Note_on_c, 9, 42, 125
1, 83279, Note_on_c, 9, 38, 0
1, 83279, Note_on_c, 9, 42, 0
1, 83280, Note_on_c, 9, 42, 107
1, 83519, Note_on_c, 9, 42, 0
1, 83520, Note_on_c, 9, 42, 119
1, 83550, Note_on_c, 9, 36, 121
1, 83609, Note_on_c, 9, 36, 0
1, 83759, Note_on_c, 9, 42, 0
1, 83760, Note_on_c, 9, 42, 112
1, 83760, Note_on_c, 9, 36, 119
1, 83999, Note_on_c, 9, 42, 0
1, 83999, Note_on_c, 9, 36, 0
1, 84000, Note_on_c, 9, 38, 127
1, 84000, Note_on_c, 9, 42, 122
1, 84239, Note_on_c, 9, 38, 0
1, 84239, Note_on_c, 9, 42, 0
1, 84255, Note_on_c, 9, 42, 104
1, 84479, Note_on_c, 9, 42, 0
1, 84480, Note_on_c, 9, 42, 119
1, 84480, Note_on_c, 9, 36, 126
1, 84719, Note_on_c, 9, 42, 0
1, 84735, Note_on_c, 9, 42, 102
1, 84959, Note_on_c, 9, 36, 0
1, 84959, Note_on_c, 9, 42, 0
1, 84960, Note_on_c, 9, 38, 127
1, 84960, Note_on_c, 9, 42, 119
1, 85199, Note_on_c, 9, 38, 0
1, 85199, Note_on_c, 9, 42, 0
1, 85215, Note_on_c, 9, 42, 94
1, 85439, Note_on_c, 9, 42, 0
1, 85440, Note_on_c, 9, 42, 119
1, 85440, Note_on_c, 9, 36, 127
1, 85679, Note_on_c, 9, 42, 0
1, 85680, Note_on_c, 9, 42, 102
1, 85919, Note_on_c, 9, 36, 0
1, 85919, Note_on_c, 9, 42, 0
1, 85920, Note_on_c, 9, 38, 127
1, 85920, Note_on_c, 9, 42, 119
1, 86159, Note_on_c, 9, 38, 0
1, 86159, Note_on_c, 9, 42, 0
1, 86205, Note_on_c, 9, 42, 93
1, 86399, Note_on_c, 9, 42, 0
1, 86400, Note_on_c, 9, 42, 119
1, 86430, Note_on_c, 9, 36, 127
1, 86489, Note_on_c, 9, 36, 0
1, 86639, Note_on_c, 9, 42, 0
1, 86670, Note_on_c, 9, 42, 95
1, 86759, Note_on_c, 9, 42, 0
1, 86880, Note_on_c, 9, 38, 127
1, 86880, Note_on_c, 9, 42, 114
1, 87119, Note_on_c, 9, 38, 0
1, 87119, Note_on_c, 9, 42, 0
1, 87135, Note_on_c, 9, 42, 93
1, 87359, Note_on_c, 9, 42, 0
1, 87360, Note_on_c, 9, 42, 114
1, 87360, Note_on_c, 9, 36, 124
1, 87599, Note_on_c, 9, 42, 0
1, 87599, Note_on_c, 9, 36, 0
1, 87600, Note_on_c, 9, 42, 107
1, 87600, Note_on_c, 9, 36, 122
1, 87839, Note_on_c, 9, 42, 0
1, 87839, Note_on_c, 9, 36, 0
1, 87870, Note_on_c, 9, 38, 127
1, 87870, Note_on_c, 9, 42, 114
1, 87929, Note_on_c, 9, 38, 0
1, 87959, Note_on_c, 9, 42, 0
1, 88095, Note_on_c, 9, 42, 101
1, 88319, Note_on_c, 9, 42, 0
1, 88320, Note_on_c, 9, 42, 119
1, 88320, Note_on_c, 9, 36, 127
1, 88559, Note_on_c, 9, 42, 0
1, 88575, Note_on_c, 9, 42, 95
1, 88799, Note_on_c, 9, 36, 0
1, 88799, Note_on_c, 9, 42, 0
1, 88800, Note_on_c, 9, 38, 127
1, 88800, Note_on_c, 9, 42, 119
1, 89039, Note_on_c, 9, 38, 0
1, 89039, Note_on_c, 9, 42, 0
1, 89070, Note_on_c, 9, 42, 92
1, 89159, Note_on_c, 9, 42, 0
1, 89280, Note_on_c, 9, 42, 114
1, 89280, Note_on_c, 9, 36, 124
1, 89519, Note_on_c, 9, 42, 0
1, 89535, Note_on_c, 9, 42, 106
1, 89759, Note_on_c, 9, 36, 0
1, 89759, Note_on_c, 9, 42, 0
1, 89760, Note_on_c, 9, 38, 127
1, 89760, Note_on_c, 9, 42, 119
1, 89999, Note_on_c, 9, 38, 0
1, 89999, Note_on_c, 9, 42, 0
1, 90000, Note_on_c, 9, 42, 95
1, 90239, Note_on_c, 9, 42, 0
1, 90240, Note_on_c, 9, 42, 119
1, 90240, Note_on_c, 9, 36, 127
1, 90479, Note_on_c, 9, 42, 0
1, 90480, Note_on_c, 9, 42, 98
1, 90719, Note_on_c, 9, 36, 0
1, 90719, Note_on_c, 9, 42, 0
1, 90720, Note_on_c, 9, 38, 127
1, 90720, Note_on_c, 9, 42, 117
1, 90959, Note_on_c, 9, 38, 0
1, 90959, Note_on_c, 9, 42, 0
1, 90990, Note_on_c, 9, 42, 104
1, 91079, Note_on_c, 9, 42, 0
1, 91200, Note_on_c, 9, 42, 122
1, 91200, Note_on_c, 9, 36, 126
1, 91439, Note_on_c, 9, 42, 0
1, 91439, Note_on_c, 9, 36, 0
1, 91440, Note_on_c, 9, 36, 119
1, 91455, Note_on_c, 9, 42, 114
1, 91679, Note_on_c, 9, 36, 0
1, 91679, Note_on_c, 9, 42, 0
1, 91680, Note_on_c, 9, 38, 127
1, 91680, Note_on_c, 9, 42, 127
1, 91919, Note_on_c, 9, 38, 0
1, 91919, Note_on_c, 9, 42, 0
1, 91920, Note_on_c, 9, 42, 107
1, 92159, Note_on_c, 9, 42, 0
1, 92160, Note_on_c, 9, 42, 119
1, 92190, Note_on_c, 9, 36, 127
1, 92249, Note_on_c, 9, 36, 0
1, 92399, Note_on_c, 9, 42, 0
1, 92430, Note_on_c, 9, 42, 106
1, 92519, Note_on_c, 9, 42, 0
1, 92640, Note_on_c, 9, 38, 127
1, 92640, Note_on_c, 9, 42, 125
1, 92879, Note_on_c, 9, 38, 0
1, 92879, Note_on_c, 9, 42, 0
1, 92880, Note_on_c, 9, 42, 109
1, 93119, Note_on_c, 9, 42, 0
1, 93120, Note_on_c, 9, 42, 119
1, 93120, Note_on_c, 9, 36, 126
1, 93359, Note_on_c, 9, 42, 0
1, 93360, Note_on_c, 9, 42, 109
1, 93599, Note_on_c, 9, 36, 0
1, 93599, Note_on_c, 9, 42, 0
1, 93600, Note_on_c, 9, 38, 127
1, 93600, Note_on_c, 9, 42, 119
1, 93839, Note_on_c, 9, 38, 0
1, 93839, Note_on_c, 9, 42, 0
1, 93870, Note_on_c, 9, 42, 106
1, 93959, Note_on_c, 9, 42, 0
1, 94080, Note_on_c, 9, 42, 122
1, 94080, Note_on_c, 9, 36, 122
1, 94319, Note_on_c, 9, 42, 0
1, 94335, Note_on_c, 9, 42, 106
1, 94559, Note_on_c, 9, 36, 0
1, 94559, Note_on_c, 9, 42, 0
1, 94560, Note_on_c, 9, 38, 127
1, 94560, Note_on_c, 9, 42, 122
1, 94799, Note_on_c, 9, 38, 0
1, 94799, Note_on_c, 9, 42, 0
1, 94815, Note_on_c, 9, 42, 114
1, 95039, Note_on_c, 9, 42, 0
1, 95040, Note_on_c, 9, 42, 119
1, 95040, Note_on_c, 9, 36, 121
1, 95279, Note_on_c, 9, 42, 0
1, 95295, Note_on_c, 9, 42, 107
1, 95519, Note_on_c, 9, 36, 0
1, 95519, Note_on_c, 9, 42, 0
1, 95520, Note_on_c, 9, 38, 127
1, 95520, Note_on_c, 9, 42, 127
1, 95759, Note_on_c, 9, 38, 0
1, 95759, Note_on_c, 9, 42, 0
1, 95760, Note_on_c, 9, 42, 107
1, 95999, Note_on_c, 9, 42, 0
1, 96000, Note_on_c, 9, 42, 122
1, 96000, Note_on_c, 9, 36, 127
1, 96239, Note_on_c, 9, 42, 0
1, 96255, Note_on_c, 9, 42, 97
1, 96479, Note_on_c, 9, 36, 0
1, 96479, Note_on_c, 9, 42, 0
1, 96480, Note_on_c, 9, 38, 127
1, 96480, Note_on_c, 9, 42, 125
1, 96719, Note_on_c, 9, 38, 0
1, 96719, Note_on_c, 9, 42, 0
1, 96735, Note_on_c, 9, 42, 104
1, 96959, Note_on_c, 9, 42, 0
1, 96960, Note_on_c, 9, 42, 119
1, 96960, Note_on_c, 9, 36, 122
1, 97199, Note_on_c, 9, 42, 0
1, 97215, Note_on_c, 9, 42, 106
1, 97439, Note_on_c, 9, 36, 0
1, 97439, Note_on_c, 9, 42, 0
1, 97440, Note_on_c, 9, 38, 127
1, 97440, Note_on_c, 9, 42, 125
1, 97679, Note_on_c, 9, 38, 0
1, 97679, Note_on_c, 9, 42, 0
1, 97680, Note_on_c, 9, 42, 107
1, 97919, Note_on_c, 9, 42, 0
1, 97920, Note_on_c, 9, 42, 122
1, 97920, Note_on_c, 9, 36, 127
1, 98159, Note_on_c, 9, 42, 0
1, 98175, Note_on_c, 9, 42, 107
1, 98399, Note_on_c, 9, 36, 0
1, 98399, Note_on_c, 9, 42, 0
1, 98400, Note_on_c, 9, 38, 127
1, 98400, Note_on_c, 9, 42, 122
1, 98639, Note_on_c, 9, 38, 0
1, 98639, Note_on_c, 9, 42, 0
1, 98640, Note_on_c, 9, 42, 112
1, 98879, Note_on_c, 9, 42, 0
1, 98880, Note_on_c, 9, 36, 127
1, 98895, Note_on_c, 9, 42, 119
1, 99119, Note_on_c, 9, 36, 0
1, 99119, Note_on_c, 9, 42, 0
1, 99120, Note_on_c, 9, 42, 117
1, 99120, Note_on_c, 9, 36, 127
1, 99359, Note_on_c, 9, 42, 0
1, 99359, Note_on_c, 9, 36, 0
1, 99360, Note_on_c, 9, 38, 127
1, 99360, Note_on_c, 9, 42, 127
1, 99599, Note_on_c, 9, 38, 0
1, 99599, Note_on_c, 9, 42, 0
1, 99615, Note_on_c, 9, 42, 104
1, 99839, Note_on_c, 9, 42, 0
1, 99840, Note_on_c, 9, 42, 125
1, 99840, Note_on_c, 9, 36, 127
1, 100079, Note_on_c, 9, 42, 0
1, 100080, Note_on_c, 9, 42, 95
1, 100319, Note_on_c, 9, 36, 0
1, 100319, Note_on_c, 9, 42, 0
1, 100320, Note_on_c, 9, 38, 127
1, 100320, Note_on_c, 9, 42, 125
1, 100559, Note_on_c, 9, 38, 0
1, 100559, Note_on_c, 9, 42, 0
1, 100560, Note_on_c, 9, 42, 109
1, 100799, Note_on_c, 9, 42, 0
1, 100800, Note_on_c, 9, 42, 125
1, 100830, Note_on_c, 9, 36, 127
1, 100889, Note_on_c, 9, 36, 0
1, 101039, Note_on_c, 9, 42, 0
1, 101070, Note_on_c, 9, 42, 109
1, 101159, Note_on_c, 9, 42, 0
1, 101280, Note_on_c, 9, 38, 127
1, 101280, Note_on_c, 9, 42, 119
1, 101519, Note_on_c, 9, 38, 0
1, 101519, Note_on_c, 9, 42, 0
1, 101535, Note_on_c, 9, 42, 104
1, 101759, Note_on_c, 9, 42, 0
1, 101760, Note_on_c, 9, 42, 117
1, 101760, Note_on_c, 9, 36, 122
1, 101999, Note_on_c, 9, 42, 0
1, 102000, Note_on_c, 9, 42, 101
1, 102239, Note_on_c, 9, 36, 0
1, 102239, Note_on_c, 9, 42, 0
1, 102240, Note_on_c, 9, 38, 127
1, 102240, Note_on_c, 9, 42, 125
1, 102479, Note_on_c, 9, 38, 0
1, 102479, Note_on_c, 9, 42, 0
1, 102510, Note_on_c, 9, 42, 99
1, 102599, Note_on_c, 9, 42, 0
1, 102720, Note_on_c, 9, 42, 122
1, 102720, Note_on_c, 9, 36, 126
1, 102959, Note_on_c, 9, 42, 0
1, 102990, Note_on_c, 9, 42, 104
1, 103079, Note_on_c, 9, 42, 0
1, 103199, Note_on_c, 9, 36, 0
1, 103200, Note_on_c, 9, 38, 127
1, 103200, Note_on_c, 9, 42, 125
1, 103439, Note_on_c, 9, 38, 0
1, 103439, Note_on_c, 9, 42, 0
1, 103485, Note_on_c, 9, 42, 106
1, 103679, Note_on_c, 9, 42, 0
1, 103680, Note_on_c, 9, 42, 119
1, 103710, Note_on_c, 9, 36, 127
1, 103769, Note_on_c, 9, 36, 0
1, 103919, Note_on_c, 9, 42, 0
1, 103950, Note_on_c, 9, 42, 107
1, 104039, Note_on_c, 9, 42, 0
1, 104160, Note_on_c, 9, 38, 127
1, 104160, Note_on_c, 9, 42, 122
1, 104399, Note_on_c, 9, 38, 0
1, 104399, Note_on_c, 9, 42, 0
1, 104415, Note_on_c, 9, 42, 106
1, 104639, Note_on_c, 9, 42, 0
1, 104640, Note_on_c, 9, 42, 125
1, 104640, Note_on_c, 9, 36, 126
1, 104879, Note_on_c, 9, 42, 0
1, 104879, Note_on_c, 9, 36, 0
1, 104880, Note_on_c, 9, 42, 117
1, 104880, Note_on_c, 9, 36, 124
1, 105119, Note_on_c, 9, 42, 0
1, 105119, Note_on_c, 9, 36, 0
1, 105120, Note_on_c, 9, 38, 127
1, 105120, Note_on_c, 9, 42, 125
1, 105359, Note_on_c, 9, 38, 0
1, 105359, Note_on_c, 9, 42, 0
1, 105375, Note_on_c, 9, 42, 106
1, 105599, Note_on_c, 9, 42, 0
1, 105600, Note_on_c, 9, 42, 127
1, 105600, Note_on_c, 9, 36, 127
1, 105839, Note_on_c, 9, 42, 0
1, 105900, Note_on_c, 9, 42, 85
1, 106079, Note_on_c, 9, 36, 0
1, 106079, Note_on_c, 9, 42, 0
1, 106080, Note_on_c, 9, 38, 127
1, 106080, Note_on_c, 9, 42, 125
1, 106319, Note_on_c, 9, 38, 0
1, 106319, Note_on_c, 9, 42, 0
1, 106350, Note_on_c, 9, 42, 104
1, 106439, Note_on_c, 9, 42, 0
1, 106560, Note_on_c, 9, 42, 122
1, 106560, Note_on_c, 9, 36, 127
1, 106799, Note_on_c, 9, 42, 0
1, 106799, Note_on_c, 9, 36, 0
1, 106800, Note_on_c, 9, 42, 119
1, 106800, Note_on_c, 9, 36, 126
1, 107039, Note_on_c, 9, 42, 0
1, 107039, Note_on_c, 9, 36, 0
1, 107070, Note_on_c, 9, 38, 127
1, 107070, Note_on_c, 9, 42, 127
1, 107129, Note_on_c, 9, 38, 0
1, 107159, Note_on_c, 9, 42, 0
1, 107295, Note_on_c, 9, 42, 112
1, 107519, Note_on_c, 9, 42, 0
1, 107520, Note_on_c, 9, 42, 125
1, 107520, Note_on_c, 9, 36, 127
1, 107759, Note_on_c, 9, 42, 0
1, 107760, Note_on_c, 9, 42, 76
1, 107999, Note_on_c, 9, 36, 0
1, 107999, Note_on_c, 9, 42, 0
1, 108000, Note_on_c, 9, 38, 127
1, 108000, Note_on_c, 9, 42, 122
1, 108239, Note_on_c, 9, 38, 0
1, 108239, Note_on_c, 9, 42, 0
1, 108240, Note_on_c, 9, 42, 112
1, 108479, Note_on_c, 9, 42, 0
1, 108480, Note_on_c, 9, 42, 122
1, 108480, Note_on_c, 9, 36, 126
1, 108719, Note_on_c, 9, 42, 0
1, 108720, Note_on_c, 9, 42, 114
1, 108959, Note_on_c, 9, 36, 0
1, 108959, Note_on_c, 9, 42, 0
1, 108960, Note_on_c, 9, 38, 127
1, 108960, Note_on_c, 9, 42, 127
1, 109199, Note_on_c, 9, 38, 0
1, 109199, Note_on_c, 9, 42, 0
1, 109200, Note_on_c, 9, 42, 114
1, 109439, Note_on_c, 9, 42, 0
1, 109440, Note_on_c, 9, 42, 122
1, 109440, Note_on_c, 9, 36, 127
1, 109679, Note_on_c, 9, 42, 0
1, 109680, Note_on_c, 9, 42, 107
1, 109919, Note_on_c, 9, 36, 0
1, 109919, Note_on_c, 9, 42, 0
1, 109920, Note_on_c, 9, 38, 127
1, 109920, Note_on_c, 9, 42, 122
1, 110159, Note_on_c, 9, 38, 0
1, 110159, Note_on_c, 9, 42, 0
1, 110160, Note_on_c, 9, 42, 109
1, 110399, Note_on_c, 9, 42, 0
1, 110400, Note_on_c, 9, 42, 119
1, 110400, Note_on_c, 9, 36, 127
1, 110639, Note_on_c, 9, 42, 0
1, 110639, Note_on_c, 9, 36, 0
1, 110640, Note_on_c, 9, 42, 114
1, 110640, Note_on_c, 9, 36, 121
1, 110879, Note_on_c, 9, 42, 0
1, 110879, Note_on_c, 9, 36, 0
1, 110880, Note_on_c, 9, 38, 127
1, 110880, Note_on_c, 9, 42, 122
1, 111119, Note_on_c, 9, 38, 0
1, 111119, Note_on_c, 9, 42, 0
1, 111120, Note_on_c, 9, 42, 107
1, 111359, Note_on_c, 9, 42, 0
1, 111360, Note_on_c, 9, 42, 119
1, 111360, Note_on_c, 9, 36, 122
1, 111599, Note_on_c, 9, 42, 0
1, 111615, Note_on_c, 9, 42, 104
1, 111839, Note_on_c, 9, 36, 0
1, 111839, Note_on_c, 9, 42, 0
1, 111840, Note_on_c, 9, 38, 127
1, 111840, Note_on_c, 9, 42, 122
1, 112079, Note_on_c, 9, 38, 0
1, 112079, Note_on_c, 9, 42, 0
1, 112095, Note_on_c, 9, 42, 107
1, 112319, Note_on_c, 9, 42, 0
1, 112320, Note_on_c, 9, 36, 122
1, 112335, Note_on_c, 9, 42, 119
1, 112559, Note_on_c, 9, 36, 0
1, 112559, Note_on_c, 9, 42, 0
1, 112560, Note_on_c, 9, 42, 119
1, 112560, Note_on_c, 9, 36, 122
1, 112799, Note_on_c, 9, 42, 0
1, 112799, Note_on_c, 9, 36, 0
1, 112800, Note_on_c, 9, 38, 127
1, 112800, Note_on_c, 9, 42, 122
1, 113039, Note_on_c, 9, 38, 0
1, 113039, Note_on_c, 9, 42, 0
1, 113040, Note_on_c, 9, 42, 106
1, 113279, Note_on_c, 9, 42, 0
1, 113280, Note_on_c, 9, 42, 122
1, 113310, Note_on_c, 9, 36, 127
1, 113369, Note_on_c, 9, 36, 0
1, 113519, Note_on_c, 9, 42, 0
1, 113520, Note_on_c, 9, 42, 101
1, 113759, Note_on_c, 9, 42, 0
1, 113760, Note_on_c, 9, 38, 127
1, 113760, Note_on_c, 9, 42, 122
1, 113999, Note_on_c, 9, 38, 0
1, 113999, Note_on_c, 9, 42, 0
1, 114030, Note_on_c, 9, 42, 97
1, 114119, Note_on_c, 9, 42, 0
1, 114240, Note_on_c, 9, 36, 127
1, 114270, Note_on_c, 9, 42, 119
1, 114359, Note_on_c, 9, 42, 0
1, 114479, Note_on_c, 9, 36, 0
1, 114480, Note_on_c, 9, 42, 109
1, 114480, Note_on_c, 9, 36, 124
1, 114719, Note_on_c, 9, 42, 0
1, 114719, Note_on_c, 9, 36, 0
1, 114720, Note_on_c, 9, 38, 127
1, 114720, Note_on_c, 9, 42, 122
1, 114959, Note_on_c, 9, 38, 0
1, 114959, Note_on_c, 9, 42, 0
1, 114960, Note_on_c, 9, 42, 99
1, 115199, Note_on_c, 9, 42, 0
1, 115200, Note_on_c, 9, 42, 125
1, 115200, Note_on_c, 9, 36, 127
1, 115439, Note_on_c, 9, 42, 0
1, 115500, Note_on_c, 9, 42, 95
1, 115679, Note_on_c, 9, 36, 0
1, 115679, Note_on_c, 9, 42, 0
1, 115740, Note_on_c, 9, 38, 127
1, 115740, Note_on_c, 9, 42, 122
1, 115919, Note_on_c, 9, 38, 0
1, 115919, Note_on_c, 9, 42, 0
1, 115950, Note_on_c, 9, 42, 95
1, 116039, Note_on_c, 9, 42, 0
1, 116160, Note_on_c, 9, 42, 122
1, 116160, Note_on_c, 9, 36, 127
1, 116399, Note_on_c, 9, 42, 0
1, 116399, Note_on_c, 9, 36, 0
1, 116400, Note_on_c, 9, 42, 109
1, 116400, Note_on_c, 9, 36, 126
1, 116639, Note_on_c, 9, 42, 0
1, 116639, Note_on_c, 9, 36, 0
1, 116640, Note_on_c, 9, 38, 127
1, 116640, Note_on_c, 9, 42, 122
1, 116879, Note_on_c, 9, 38, 0
1, 116879, Note_on_c, 9, 42, 0
1, 116880, Note_on_c, 9, 42, 107
1, 117119, Note_on_c, 9, 42, 0
1, 117120, Note_on_c, 9, 42, 122
1, 117120, Note_on_c, 9, 36, 127
1, 117359, Note_on_c, 9, 42, 0
1, 117360, Note_on_c, 9, 42, 107
1, 117599, Note_on_c, 9, 36, 0
1, 117599, Note_on_c, 9, 42, 0
1, 117600, Note_on_c, 9, 38, 127
1, 117600, Note_on_c, 9, 42, 109
1, 117839, Note_on_c, 9, 38, 0
1, 117839, Note_on_c, 9, 42, 0
1, 117855, Note_on_c, 9, 42, 95
1, 118079, Note_on_c, 9, 42, 0
1, 118080, Note_on_c, 9, 42, 119
1, 118080, Note_on_c, 9, 36, 127
1, 118319, Note_on_c, 9, 42, 0
1, 118319, Note_on_c, 9, 36, 0
1, 118320, Note_on_c, 9, 42, 114
1, 118320, Note_on_c, 9, 36, 126
1, 118559, Note_on_c, 9, 42, 0
1, 118559, Note_on_c, 9, 36, 0
1, 118560, Note_on_c, 9, 38, 127
1, 118560, Note_on_c, 9, 42, 125
1, 118799, Note_on_c, 9, 38, 0
1, 118799, Note_on_c, 9, 42, 0
1, 118800, Note_on_c, 9, 42, 98
1, 119039, Note_on_c, 9, 42, 0
1, 119040, Note_on_c, 9, 42, 125
1, 119040, Note_on_c, 9, 36, 127
1, 119279, Note_on_c, 9, 42, 0
1, 119295, Note_on_c, 9, 42, 101
1, 119519, Note_on_c, 9, 36, 0
1, 119519, Note_on_c, 9, 42, 0
1, 119520, Note_on_c, 9, 38, 127
1, 119520, Note_on_c, 9, 42, 125
1, 119759, Note_on_c, 9, 38, 0
1, 119759, Note_on_c, 9, 42, 0
1, 119760, Note_on_c, 9, 42, 99
1, 119999, Note_on_c, 9, 42, 0
1, 120000, Note_on_c, 9, 42, 112
1, 120000, Note_on_c, 9, 36, 127
1, 120239, Note_on_c, 9, 42, 0
1, 120240, Note_on_c, 9, 42, 99
1, 120479, Note_on_c, 9, 36, 0
1, 120479, Note_on_c, 9, 42, 0
1, 120480, Note_on_c, 9, 38, 127
1, 120480, Note_on_c, 9, 42, 119
1, 120719, Note_on_c, 9, 38, 0
1, 120719, Note_on_c, 9, 42, 0
1, 120720, Note_on_c, 9, 42, 104
1, 120959, Note_on_c, 9, 42, 0
1, 120960, Note_on_c, 9, 42, 122
1, 120960, Note_on_c, 9, 36, 127
1, 121199, Note_on_c, 9, 42, 0
1, 121200, Note_on_c, 9, 42, 109
1, 121439, Note_on_c, 9, 36, 0
1, 121439, Note_on_c, 9, 42, 0
1, 121440, Note_on_c, 9, 38, 127
1, 121440, Note_on_c, 9, 42, 125
1, 121679, Note_on_c, 9, 38, 0
1, 121679, Note_on_c, 9, 42, 0
1, 121710, Note_on_c, 9, 42, 109
1, 121799, Note_on_c, 9, 42, 0
1, 121920, Note_on_c, 9, 42, 125
1, 121920, Note_on_c, 9, 36, 127
1, 122159, Note_on_c, 9, 42, 0
1, 122160, Note_on_c, 9, 42, 114
1, 122399, Note_on_c, 9, 36, 0
1, 122399, Note_on_c, 9, 42, 0
1, 122460, Note_on_c, 9, 38, 127
1, 122460, Note_on_c, 9, 42, 125
1, 122639, Note_on_c, 9, 38, 0
1, 122639, Note_on_c, 9, 42, 0
1, 122700, Note_on_c, 9, 42, 112
1, 122879, Note_on_c, 9, 42, 0
1, 122880, Note_on_c, 9, 42, 125
1, 122880, Note_on_c, 9, 36, 127
1, 123119, Note_on_c, 9, 42, 0
1, 123150, Note_on_c, 9, 42, 74
1, 123239, Note_on_c, 9, 42, 0
1, 123359, Note_on_c, 9, 36, 0
1, 123360, Note_on_c, 9, 38, 127
1, 123360, Note_on_c, 9, 42, 125
1, 123599, Note_on_c, 9, 38, 0
1, 123599, Note_on_c, 9, 42, 0
1, 123600, Note_on_c, 9, 42, 101
1, 123839, Note_on_c, 9, 42, 0
1, 123840, Note_on_c, 9, 42, 122
1, 123840, Note_on_c, 9, 36, 127
1, 124079, Note_on_c, 9, 42, 0
1, 124080, Note_on_c, 9, 42, 107
1, 124319, Note_on_c, 9, 36, 0
1, 124319, Note_on_c, 9, 42, 0
1, 124320, Note_on_c, 9, 38, 127
1, 124320, Note_on_c, 9, 42, 125
1, 124559, Note_on_c, 9, 38, 0
1, 124559, Note_on_c, 9, 42, 0
1, 124560, Note_on_c, 9, 42, 109
1, 124799, Note_on_c, 9, 42, 0
1, 124800, Note_on_c, 9, 42, 122
1, 124800, Note_on_c, 9, 36, 127
1, 125039, Note_on_c, 9, 42, 0
1, 125040, Note_on_c, 9, 42, 109
1, 125279, Note_on_c, 9, 36, 0
1, 125279, Note_on_c, 9, 42, 0
1, 125280, Note_on_c, 9, 38, 127
1, 125280, Note_on_c, 9, 42, 125
1, 125519, Note_on_c, 9, 38, 0
1, 125519, Note_on_c, 9, 42, 0
1, 125520, Note_on_c, 9, 42, 109
1, 125759, Note_on_c, 9, 42, 0
1, 125760, Note_on_c, 9, 42, 127
1, 125760, Note_on_c, 9, 36, 127
1, 125999, Note_on_c, 9, 42, 0
1, 126000, Note_on_c, 9, 42, 117
1, 126239, Note_on_c, 9, 36, 0
1, 126239, Note_on_c, 9, 42, 0
1, 126240, Note_on_c, 9, 38, 127
1, 126240, Note_on_c, 9, 42, 122
1, 126479, Note_on_c, 9, 38, 0
1, 126479, Note_on_c, 9, 42, 0
1, 126480, Note_on_c, 9, 42, 117
1, 126719, Note_on_c, 9, 42, 0
1, 126720, Note_on_c, 9, 42, 122
1, 126720, Note_on_c, 9, 36, 127
1, 126959, Note_on_c, 9, 42, 0
1, 126960, Note_on_c, 9, 42, 101
1, 127199, Note_on_c, 9, 36, 0
1, 127199, Note_on_c, 9, 42, 0
1, 127200, Note_on_c, 9, 38, 127
1, 127200, Note_on_c, 9, 42, 125
1, 127439, Note_on_c, 9, 38, 0
1, 127439, Note_on_c, 9, 42, 0
1, 127455, Note_on_c, 9, 42, 104
1, 127679, Note_on_c, 9, 42, 0
1, 127680, Note_on_c, 9, 42, 125
1, 127680, Note_on_c, 9, 36, 127
1, 127919, Note_on_c, 9, 42, 0
1, 127920, Note_on_c, 9, 42, 106
1, 128159, Note_on_c, 9, 36, 0
1, 128159, Note_on_c, 9, 42, 0
1, 128160, Note_on_c, 9, 38, 127
1, 128160, Note_on_c, 9, 42, 122
1, 128399, Note_on_c, 9, 38, 0
1, 128399, Note_on_c, 9, 42, 0
1, 128400, Note_on_c, 9, 42, 122
1, 128639, Note_on_c, 9, 42, 0
1, 128640, Note_on_c, 9, 42, 122
1, 128640, Note_on_c, 9, 36, 127
1, 128879, Note_on_c, 9, 42, 0
1, 128880, Note_on_c, 9, 42, 107
1, 129119, Note_on_c, 9, 36, 0
1, 129119, Note_on_c, 9, 42, 0
1, 129120, Note_on_c, 9, 38, 127
1, 129120, Note_on_c, 9, 42, 127
1, 129359, Note_on_c, 9, 38, 0
1, 129359, Note_on_c, 9, 42, 0
1, 129360, Note_on_c, 9, 42, 106
1, 129599, Note_on_c, 9, 42, 0
1, 129600, Note_on_c, 9, 42, 125
1, 129600, Note_on_c, 9, 36, 127
1, 129839, Note_on_c, 9, 42, 0
1, 129840, Note_on_c, 9, 42, 109
1, 130079, Note_on_c, 9, 36, 0
1, 130079, Note_on_c, 9, 42, 0
1, 130080, Note_on_c, 9, 38, 127
1, 130080, Note_on_c, 9, 42, 122
1, 130319, Note_on_c, 9, 38, 0
1, 130319, Note_on_c, 9, 42, 0
1, 130320, Note_on_c, 9, 42, 117
1, 130559, Note_on_c, 9, 42, 0
1, 130560, Note_on_c, 9, 42, 125
1, 130560, Note_on_c, 9, 36, 127
1, 130799, Note_on_c, 9, 42, 0
1, 130830, Note_on_c, 9, 42, 106
1, 130919, Note_on_c, 9, 42, 0
1, 131039, Note_on_c, 9, 36, 0
1, 131040, Note_on_c, 9, 38, 127
1, 131040, Note_on_c, 9, 42, 122
1, 131279, Note_on_c, 9, 38, 0
1, 131279, Note_on_c, 9, 42, 0
1, 131295, Note_on_c, 9, 42, 107
1, 131519, Note_on_c, 9, 42, 0
1, 131520, Note_on_c, 9, 42, 122
1, 131520, Note_on_c, 9, 36, 124
1, 131759, Note_on_c, 9, 42, 0
1, 131760, Note_on_c, 9, 42, 109
1, 131999, Note_on_c, 9, 36, 0
1, 131999, Note_on_c, 9, 42, 0
1, 132000, Note_on_c, 9, 38, 127
1, 132000, Note_on_c, 9, 42, 125
1, 132239, Note_on_c, 9, 38, 0
1, 132239, Note_on_c, 9, 42, 0
1, 132240, Note_on_c, 9, 42, 106
1, 132479, Note_on_c, 9, 42, 0
1, 132480, Note_on_c, 9, 42, 122
1, 132480, Note_on_c, 9, 36, 127
1, 132719, Note_on_c, 9, 42, 0
1, 132720, Note_on_c, 9, 42, 102
1, 132959, Note_on_c, 9, 36, 0
1, 132959, Note_on_c, 9, 42, 0
1, 132960, Note_on_c, 9, 38, 127
1, 132960, Note_on_c, 9, 42, 127
1, 133199, Note_on_c, 9, 38, 0
1, 133199, Note_on_c, 9, 42, 0
1, 133200, Note_on_c, 9, 42, 107
1, 133439, Note_on_c, 9, 42, 0
1, 133440, Note_on_c, 9, 42, 125
1, 133440, Note_on_c, 9, 36, 127
1, 133679, Note_on_c, 9, 42, 0
1, 133679, Note_on_c, 9, 36, 0
1, 133680, Note_on_c, 9, 42, 114
1, 133680, Note_on_c, 9, 36, 127
1, 133919, Note_on_c, 9, 42, 0
1, 133919, Note_on_c, 9, 36, 0
1, 133920, Note_on_c, 9, 38, 127
1, 133920, Note_on_c, 9, 42, 122
1, 134159, Note_on_c, 9, 38, 0
1, 134159, Note_on_c, 9, 42, 0
1, 134160, Note_on_c, 9, 42, 102
1, 134399, Note_on_c, 9, 42, 0
1, 134400, Note_on_c, 9, 42, 122
1, 134400, Note_on_c, 9, 36, 127
1, 134639, Note_on_c, 9, 42, 0
1, 134640, Note_on_c, 9, 42, 106
1, 134879, Note_on_c, 9, 36, 0
1, 134879, Note_on_c, 9, 42, 0
1, 134880, Note_on_c, 9, 38, 127
1, 134880, Note_on_c, 9, 42, 127
1, 135119, Note_on_c, 9, 38, 0
1, 135119, Note_on_c, 9, 42, 0
1, 135120, Note_on_c, 9, 42, 99
1, 135359, Note_on_c, 9, 42, 0
1, 135360, Note_on_c, 9, 42, 122
1, 135360, Note_on_c, 9, 36, 126
1, 135599, Note_on_c, 9, 42, 0
1, 135599, Note_on_c, 9, 36, 0
1, 135600, Note_on_c, 9, 42, 114
1, 135600, Note_on_c, 9, 36, 117
1, 135839, Note_on_c, 9, 42, 0
1, 135839, Note_on_c, 9, 36, 0
1, 135855, Note_on_c, 9, 38, 127
1, 135855, Note_on_c, 9, 40, 127
1, 135855, Note_on_c, 9, 42, 122
1, 136079, Note_on_c, 9, 40, 0
1, 136094, Note_on_c, 9, 38, 0
1, 136094, Note_on_c, 9, 42, 0
1, 136095, Note_on_c, 9, 42, 106
1, 136319, Note_on_c, 9, 42, 0
1, 136320, Note_on_c, 9, 42, 125
1, 136320, Note_on_c, 9, 36, 127
1, 136559, Note_on_c, 9, 42, 0
1, 136575, Note_on_c, 9, 42, 102
1, 136799, Note_on_c, 9, 36, 0
1, 136799, Note_on_c, 9, 42, 0
1, 136800, Note_on_c, 9, 38, 127
1, 136800, Note_on_c, 9, 42, 127
1, 137039, Note_on_c, 9, 38, 0
1, 137039, Note_on_c, 9, 42, 0
1, 137070, Note_on_c, 9, 42, 112
1, 137159, Note_on_c, 9, 42, 0
1, 137280, Note_on_c, 9, 42, 122
1, 137280, Note_on_c, 9, 36, 127
1, 137519, Note_on_c, 9, 42, 0
1, 137520, Note_on_c, 9, 42, 117
1, 137759, Note_on_c, 9, 36, 0
1, 137759, Note_on_c, 9, 42, 0
1, 137760, Note_on_c, 9, 38, 127
1, 137760, Note_on_c, 9, 42, 127
1, 137999, Note_on_c, 9, 38, 0
1, 137999, Note_on_c, 9, 42, 0
1, 138000, Note_on_c, 9, 42, 109
1, 138239, Note_on_c, 9, 42, 0
1, 138240, Note_on_c, 9, 42, 122
1, 138240, Note_on_c, 9, 36, 127
1, 138479, Note_on_c, 9, 42, 0
1, 138495, Note_on_c, 9, 42, 107
1, 138719, Note_on_c, 9, 36, 0
1, 138719, Note_on_c, 9, 42, 0
1, 138720, Note_on_c, 9, 38, 127
1, 138720, Note_on_c, 9, 42, 125
1, 138959, Note_on_c, 9, 38, 0
1, 138959, Note_on_c, 9, 42, 0
1, 138960, Note_on_c, 9, 42, 109
1, 139199, Note_on_c, 9, 42, 0
1, 139200, Note_on_c, 9, 42, 114
1, 139200, Note_on_c, 9, 36, 127
1, 139439, Note_on_c, 9, 42, 0
1, 139440, Note_on_c, 9, 42, 112
1, 139679, Note_on_c, 9, 36, 0
1, 139679, Note_on_c, 9, 42, 0
1, 139680, Note_on_c, 9, 38, 127
1, 139680, Note_on_c, 9, 42, 127
1, 139919, Note_on_c, 9, 38, 0
1, 139919, Note_on_c, 9, 42, 0
1, 139920, Note_on_c, 9, 42, 99
1, 140159, Note_on_c, 9, 42, 0
1, 140160, Note_on_c, 9, 42, 125
1, 140160, Note_on_c, 9, 36, 127
1, 140399, Note_on_c, 9, 42, 0
1, 140400, Note_on_c, 9, 42, 114
1, 140639, Note_on_c, 9, 36, 0
1, 140639, Note_on_c, 9, 42, 0
1, 140640, Note_on_c, 9, 38, 127
1, 140640, Note_on_c, 9, 42, 127
1, 140879, Note_on_c, 9, 38, 0
1, 140879, Note_on_c, 9, 42, 0
1, 140880, Note_on_c, 9, 42, 114
1, 141119, Note_on_c, 9, 42, 0
1, 141120, Note_on_c, 9, 42, 127
1, 141120, Note_on_c, 9, 36, 127
1, 141359, Note_on_c, 9, 42, 0
1, 141359, Note_on_c, 9, 36, 0
1, 141360, Note_on_c, 9, 42, 125
1, 141360, Note_on_c, 9, 36, 127
1, 141599, Note_on_c, 9, 42, 0
1, 141599, Note_on_c, 9, 36, 0
1, 141600, Note_on_c, 9, 38, 127
1, 141600, Note_on_c, 9, 42, 127
1, 141839, Note_on_c, 9, 38, 0
1, 141839, Note_on_c, 9, 42, 0
1, 141840, Note_on_c, 9, 42, 107
1, 142079, Note_on_c, 9, 42, 0
1, 142080, Note_on_c, 9, 36, 127
1, 142110, Note_on_c, 9, 49, 125
1, 142559, Note_on_c, 9, 36, 0
1, 142559, Note_on_c, 9, 49, 0
1, 149760, Note_on_c, 9, 36, 111
1, 149790, Note_on_c, 9, 42, 125
1, 149849, Note_on_c, 9, 42, 0
1, 150000, Note_on_c, 9, 42, 90
1, 150239, Note_on_c, 9, 36, 0
1, 150239, Note_on_c, 9, 42, 0
1, 150240, Note_on_c, 9, 40, 127
1, 150240, Note_on_c, 9, 42, 119
1, 150479, Note_on_c, 9, 40, 0
1, 150479, Note_on_c, 9, 42, 0
1, 150480, Note_on_c, 9, 42, 93
1, 150719, Note_on_c, 9, 42, 0
1, 150720, Note_on_c, 9, 42, 112
1, 150720, Note_on_c, 9, 36, 119
1, 150959, Note_on_c, 9, 42, 0
1, 150960, Note_on_c, 9, 42, 95
1, 151199, Note_on_c, 9, 36, 0
1, 151199, Note_on_c, 9, 42, 0
1, 151200, Note_on_c, 9, 40, 127
1, 151200, Note_on_c, 9, 42, 122
1, 151439, Note_on_c, 9, 40, 0
1, 151439, Note_on_c, 9, 42, 0
1, 151440, Note_on_c, 9, 42, 90
1, 151679, Note_on_c, 9, 42, 0
1, 151680, Note_on_c, 9, 42, 119
1, 151680, Note_on_c, 9, 36, 127
1, 151919, Note_on_c, 9, 42, 0
1, 151920, Note_on_c, 9, 42, 101
1, 152159, Note_on_c, 9, 36, 0
1, 152159, Note_on_c, 9, 42, 0
1, 152160, Note_on_c, 9, 38, 127
1, 152160, Note_on_c, 9, 42, 117
1, 152399, Note_on_c, 9, 38, 0
1, 152399, Note_on_c, 9, 42, 0
1, 152400, Note_on_c, 9, 42, 102
1, 152639, Note_on_c, 9, 42, 0
1, 152640, Note_on_c, 9, 42, 117
1, 152640, Note_on_c, 9, 36, 121
1, 152879, Note_on_c, 9, 42, 0
1, 152880, Note_on_c, 9, 42, 106
1, 153119, Note_on_c, 9, 36, 0
1, 153119, Note_on_c, 9, 42, 0
1, 153120, Note_on_c, 9, 38, 127
1, 153120, Note_on_c, 9, 42, 125
1, 153359, Note_on_c, 9, 38, 0
1, 153359, Note_on_c, 9, 42, 0
1, 153360, Note_on_c, 9, 42, 98
1, 153599, Note_on_c, 9, 42, 0
1, 153600, Note_on_c, 9, 36, 127
1, 153630, Note_on_c, 9, 42, 122
1, 153869, Note_on_c, 9, 42, 0
1, 153885, Note_on_c, 9, 42, 101
1, 154079, Note_on_c, 9, 36, 0
1, 154079, Note_on_c, 9, 42, 0
1, 154110, Note_on_c, 9, 38, 127
1, 154110, Note_on_c, 9, 42, 122
1, 154169, Note_on_c, 9, 38, 0
1, 154169, Note_on_c, 9, 42, 0
1, 154320, Note_on_c, 9, 42, 95
1, 154559, Note_on_c, 9, 42, 0
1, 154560, Note_on_c, 9, 42, 122
1, 154560, Note_on_c, 9, 36, 127
1, 154799, Note_on_c, 9, 42, 0
1, 154800, Note_on_c, 9, 42, 93
1, 155039, Note_on_c, 9, 36, 0
1, 155039, Note_on_c, 9, 42, 0
1, 155040, Note_on_c, 9, 38, 127
1, 155040, Note_on_c, 9, 42, 125
1, 155279, Note_on_c, 9, 38, 0
1, 155279, Note_on_c, 9, 42, 0
1, 155280, Note_on_c, 9, 42, 91
1, 155519, Note_on_c, 9, 42, 0
1, 155520, Note_on_c, 9, 42, 125
1, 155520, Note_on_c, 9, 36, 127
1, 155999, Note_on_c, 9, 42, 0
1, 155999, Note_on_c, 9, 36, 0
1, 156000, End_track
2, 0, Start_track
2, 0, Key_signature, 0, "major"
2, 0, Control_c, 9, 121, 0
2, 0, Program_c, 9, 0
2, 0, Control_c, 9, 7, 100
2, 0, Control_c, 9, 10, 64
2, 0, Control_c, 9, 91, 0
2, 0, Control_c, 9, 93, 0
2, 0, MIDI_port, 0
2, 0, Note_on_c, 9, 49, 127
2, 0, Note_on_c, 9, 36, 127
2, 479, Note_on_c, 9, 49, 0
2, 479, Note_on_c, 9, 36, 0
2, 960, Note_on_c, 9, 52, 127
2, 1439, Note_on_c, 9, 52, 0
2, 2400, Note_on_c, 9, 47, 127
2, 2519, Note_on_c, 9, 47, 0
2, 2550, Note_on_c, 9, 47, 109
2, 2609, Note_on_c, 9, 47, 0
2, 2820, Note_on_c, 9, 45, 127
2, 2879, Note_on_c, 9, 45, 0
2, 3180, Note_on_c, 9, 45, 105
2, 3359, Note_on_c, 9, 45, 0
2, 3360, Note_on_c, 9, 43, 127
2, 3839, Note_on_c, 9, 43, 0
2, 4320, Note_on_c, 9, 56, 127
2, 4799, Note_on_c, 9, 56, 0
2, 4800, Note_on_c, 9, 56, 127
2, 5279, Note_on_c, 9, 56, 0
2, 5280, Note_on_c, 9, 56, 127
2, 5519, Note_on_c, 9, 56, 0
2, 5520, Note_on_c, 9, 48, 127
2, 5759, Note_on_c, 9, 48, 0
2, 5760, Note_on_c, 9, 48, 127
2, 6239, Note_on_c, 9, 48, 0
2, 6240, Note_on_c, 9, 56, 127
2, 6479, Note_on_c, 9, 56, 0
2, 6480, Note_on_c, 9, 45, 127
2, 6719, Note_on_c, 9, 45, 0
2, 6720, Note_on_c, 9, 56, 127
2, 6959, Note_on_c, 9, 56, 0
2, 6960, Note_on_c, 9, 47, 127
2, 7199, Note_on_c, 9, 47, 0
2, 7200, Note_on_c, 9, 47, 127
2, 7319, Note_on_c, 9, 47, 0
2, 7320, Note_on_c, 9, 45, 83
2, 7440, Note_on_c, 9, 43, 93
2, 7679, Note_on_c, 9, 45, 0
2, 7679, Note_on_c, 9, 43, 0
2, 12015, Note_on_c, 9, 63, 90
2, 12239, Note_on_c, 9, 63, 0
2, 12240, Note_on_c, 9, 63, 84
2, 12479, Note_on_c, 9, 63, 0
2, 12960, Note_on_c, 9, 64, 102
2, 13199, Note_on_c, 9, 64, 0
2, 13200, Note_on_c, 9, 64, 92
2, 13439, Note_on_c, 9, 64, 0
2, 13920, Note_on_c, 9, 63, 87
2, 14159, Note_on_c, 9, 63, 0
2, 14160, Note_on_c, 9, 63, 73
2, 14399, Note_on_c, 9, 63, 0
2, 14910, Note_on_c, 9, 64, 81
2, 14999, Note_on_c, 9, 64, 0
2, 15120, Note_on_c, 9, 64, 94
2, 15359, Note_on_c, 9, 64, 0
2, 15840, Note_on_c, 9, 63, 97
2, 16079, Note_on_c, 9, 63, 0
2, 16080, Note_on_c, 9, 63, 91
2, 16319, Note_on_c, 9, 63, 0
2, 16800, Note_on_c, 9, 64, 92
2, 17039, Note_on_c, 9, 64, 0
2, 17040, Note_on_c, 9, 64, 92
2, 17279, Note_on_c, 9, 64, 0
2, 17760, Note_on_c, 9, 63, 97
2, 17999, Note_on_c, 9, 63, 0
2, 18000, Note_on_c, 9, 63, 92
2, 18239, Note_on_c, 9, 63, 0
2, 18720, Note_on_c, 9, 64, 98
2, 18959, Note_on_c, 9, 64, 0
2, 18960, Note_on_c, 9, 64, 94
2, 19199, Note_on_c, 9, 64, 0
2, 19680, Note_on_c, 9, 63, 92
2, 19919, Note_on_c, 9, 63, 0
2, 19920, Note_on_c, 9, 63, 84
2, 20159, Note_on_c, 9, 63, 0
2, 20400, Note_on_c, 9, 64, 95
2, 20639, Note_on_c, 9, 64, 0
2, 20880, Note_on_c, 9, 64, 97
2, 21119, Note_on_c, 9, 64, 0
2, 21600, Note_on_c, 9, 63, 91
2, 21839, Note_on_c, 9, 63, 0
2, 21840, Note_on_c, 9, 63, 95
2, 22079, Note_on_c, 9, 63, 0
2, 22560, Note_on_c, 9, 64, 89
2, 22799, Note_on_c, 9, 64, 0
2, 22800, Note_on_c, 9, 64, 100
2, 23039, Note_on_c, 9, 64, 0
2, 23520, Note_on_c, 9, 63, 101
2, 23759, Note_on_c, 9, 63, 0
2, 23760, Note_on_c, 9, 63, 88
2, 23999, Note_on_c, 9, 63, 0
2, 24480, Note_on_c, 9, 64, 103
2, 24719, Note_on_c, 9, 64, 0
2, 24720, Note_on_c, 9, 64, 93
2, 24959, Note_on_c, 9, 64, 0
2, 25470, Note_on_c, 9, 63, 91
2, 25559, Note_on_c, 9, 63, 0
2, 25680, Note_on_c, 9, 63, 98
2, 25919, Note_on_c, 9, 63, 0
2, 26400, Note_on_c, 9, 64, 103
2, 26639, Note_on_c, 9, 64, 0
2, 26640, Note_on_c, 9, 64, 102
2, 26879, Note_on_c, 9, 64, 0
2, 27360, Note_on_c, 9, 63, 91
2, 27599, Note_on_c, 9, 63, 0
2, 27600, Note_on_c, 9, 63, 102
2, 27839, Note_on_c, 9, 63, 0
2, 28320, Note_on_c, 9, 64, 95
2, 28559, Note_on_c, 9, 64, 0
2, 28560, Note_on_c, 9, 64, 103
2, 28799, Note_on_c, 9, 64, 0
2, 29280, Note_on_c, 9, 63, 99
2, 29519, Note_on_c, 9, 63, 0
2, 29520, Note_on_c, 9, 63, 90
2, 29759, Note_on_c, 9, 63, 0
2, 30240, Note_on_c, 9, 64, 99
2, 30479, Note_on_c, 9, 64, 0
2, 30480, Note_on_c, 9, 64, 98
2, 30719, Note_on_c, 9, 64, 0
2, 31200, Note_on_c, 9, 63, 87
2, 31439, Note_on_c, 9, 63, 0
2, 31440, Note_on_c, 9, 63, 92
2, 31679, Note_on_c, 9, 63, 0
2, 32160, Note_on_c, 9, 64, 98
2, 32399, Note_on_c, 9, 64, 0
2, 32400, Note_on_c, 9, 64, 93
2, 32639, Note_on_c, 9, 64, 0
2, 33120, Note_on_c, 9, 63, 104
2, 33359, Note_on_c, 9, 63, 0
2, 33360, Note_on_c, 9, 63, 94
2, 33599, Note_on_c, 9, 63, 0
2, 34080, Note_on_c, 9, 64, 106
2, 34319, Note_on_c, 9, 64, 0
2, 34320, Note_on_c, 9, 64, 92
2, 34559, Note_on_c, 9, 64, 0
2, 35040, Note_on_c, 9, 63, 106
2, 35279, Note_on_c, 9, 63, 0
2, 35280, Note_on_c, 9, 63, 94
2, 35519, Note_on_c, 9, 63, 0
2, 36000, Note_on_c, 9, 64, 100
2, 36239, Note_on_c, 9, 64, 0
2, 36240, Note_on_c, 9, 64, 96
2, 36479, Note_on_c, 9, 64, 0
2, 36960, Note_on_c, 9, 63, 104
2, 37199, Note_on_c, 9, 63, 0
2, 37200, Note_on_c, 9, 63, 95
2, 37439, Note_on_c, 9, 63, 0
2, 37920, Note_on_c, 9, 64, 96
2, 38159, Note_on_c, 9, 64, 0
2, 38160, Note_on_c, 9, 64, 100
2, 38399, Note_on_c, 9, 64, 0
2, 38910, Note_on_c, 9, 63, 107
2, 38999, Note_on_c, 9, 63, 0
2, 39120, Note_on_c, 9, 63, 102
2, 39359, Note_on_c, 9, 63, 0
2, 39840, Note_on_c, 9, 64, 103
2, 40079, Note_on_c, 9, 64, 0
2, 40080, Note_on_c, 9, 64, 96
2, 40319, Note_on_c, 9, 64, 0
2, 40800, Note_on_c, 9, 63, 99
2, 41039, Note_on_c, 9, 63, 0
2, 41040, Note_on_c, 9, 63, 101
2, 41279, Note_on_c, 9, 63, 0
2, 41760, Note_on_c, 9, 64, 100
2, 41999, Note_on_c, 9, 64, 0
2, 42000, Note_on_c, 9, 64, 98
2, 42239, Note_on_c, 9, 64, 0
2, 42720, Note_on_c, 9, 63, 95
2, 42959, Note_on_c, 9, 63, 0
2, 42960, Note_on_c, 9, 63, 99
2, 43199, Note_on_c, 9, 63, 0
2, 43695, Note_on_c, 9, 64, 84
2, 43919, Note_on_c, 9, 64, 0
2, 43920, Note_on_c, 9, 64, 98
2, 44159, Note_on_c, 9, 64, 0
2, 44655, Note_on_c, 9, 63, 93
2, 44879, Note_on_c, 9, 63, 0
2, 44895, Note_on_c, 9, 63, 101
2, 45119, Note_on_c, 9, 63, 0
2, 45600, Note_on_c, 9, 64, 103
2, 45839, Note_on_c, 9, 64, 0
2, 45840, Note_on_c, 9, 64, 87
2, 46079, Note_on_c, 9, 64, 0
2, 46080, Note_on_c, 9, 58, 127
2, 46319, Note_on_c, 9, 58, 0
2, 46350, Note_on_c, 9, 63, 78
2, 46439, Note_on_c, 9, 63, 0
2, 46560, Note_on_c, 9, 61, 119
2, 46799, Note_on_c, 9, 61, 0
2, 46830, Note_on_c, 9, 63, 81
2, 46919, Note_on_c, 9, 63, 0
2, 47295, Note_on_c, 9, 63, 85
2, 47519, Note_on_c, 9, 63, 0
2, 47520, Note_on_c, 9, 61, 104
2, 47759, Note_on_c, 9, 61, 0
2, 47760, Note_on_c, 9, 63, 84
2, 47999, Note_on_c, 9, 63, 0
2, 48240, Note_on_c, 9, 63, 87
2, 48479, Note_on_c, 9, 63, 0
2, 48480, Note_on_c, 9, 61, 127
2, 48719, Note_on_c, 9, 61, 0
2, 48765, Note_on_c, 9, 63, 90
2, 48959, Note_on_c, 9, 63, 0
2, 48960, Note_on_c, 9, 54, 127
2, 49199, Note_on_c, 9, 54, 0
2, 49245, Note_on_c, 9, 63, 57
2, 49439, Note_on_c, 9, 63, 0
2, 49470, Note_on_c, 9, 61, 127
2, 49529, Note_on_c, 9, 61, 0
2, 49920, Note_on_c, 9, 64, 77
2, 50159, Note_on_c, 9, 64, 0
2, 50160, Note_on_c, 9, 61, 84
2, 50399, Note_on_c, 9, 61, 0
2, 50400, Note_on_c, 9, 63, 98
2, 50639, Note_on_c, 9, 63, 0
2, 50640, Note_on_c, 9, 61, 102
2, 50879, Note_on_c, 9, 61, 0
2, 50880, Note_on_c, 9, 64, 75
2, 51359, Note_on_c, 9, 64, 0
2, 51600, Note_on_c, 9, 64, 109
2, 51839, Note_on_c, 9, 64, 0
2, 51840, Note_on_c, 9, 64, 114
2, 52079, Note_on_c, 9, 64, 0
2, 52080, Note_on_c, 9, 63, 91
2, 52319, Note_on_c, 9, 63, 0
2, 52320, Note_on_c, 9, 61, 125
2, 52559, Note_on_c, 9, 61, 0
2, 52560, Note_on_c, 9, 64, 121
2, 52799, Note_on_c, 9, 64, 0
2, 52800, Note_on_c, 9, 54, 127
2, 53039, Note_on_c, 9, 54, 0
2, 53040, Note_on_c, 9, 64, 117
2, 53279, Note_on_c, 9, 64, 0
2, 53280, Note_on_c, 9, 63, 107
2, 53519, Note_on_c, 9, 63, 0
2, 53520, Note_on_c, 9, 61, 125
2, 53759, Note_on_c, 9, 61, 0
2, 53760, Note_on_c, 9, 64, 127
2, 54239, Note_on_c, 9, 64, 0
2, 54240, Note_on_c, 9, 64, 109
2, 54479, Note_on_c, 9, 64, 0
2, 54480, Note_on_c, 9, 63, 97
2, 54719, Note_on_c, 9, 63, 0
2, 54750, Note_on_c, 9, 61, 125
2, 54839, Note_on_c, 9, 61, 0
2, 54960, Note_on_c, 9, 64, 98
2, 55199, Note_on_c, 9, 64, 0
2, 55470, Note_on_c, 9, 64, 103
2, 55559, Note_on_c, 9, 64, 0
2, 55725, Note_on_c, 9, 63, 102
2, 55919, Note_on_c, 9, 63, 0
2, 55920, Note_on_c, 9, 61, 117
2, 56159, Note_on_c, 9, 61, 0
2, 56160, Note_on_c, 9, 64, 110
2, 56639, Note_on_c, 9, 64, 0
2, 56640, Note_on_c, 9, 64, 111
2, 56640, Note_on_c, 9, 54, 127
2, 56879, Note_on_c, 9, 64, 0
2, 56879, Note_on_c, 9, 54, 0
2, 56910, Note_on_c, 9, 63, 91
2, 56999, Note_on_c, 9, 63, 0
2, 57120, Note_on_c, 9, 61, 122
2, 57599, Note_on_c, 9, 61, 0
2, 58080, Note_on_c, 9, 63, 98
2, 58319, Note_on_c, 9, 63, 0
2, 58320, Note_on_c, 9, 63, 106
2, 58559, Note_on_c, 9, 63, 0
2, 59040, Note_on_c, 9, 64, 105
2, 59279, Note_on_c, 9, 64, 0
2, 59280, Note_on_c, 9, 64, 104
2, 59519, Note_on_c, 9, 64, 0
2, 60000, Note_on_c, 9, 63, 117
2, 60239, Note_on_c, 9, 63, 0
2, 60300, Note_on_c, 9, 63, 114
2, 60479, Note_on_c, 9, 63, 0
2, 60960, Note_on_c, 9, 64, 105
2, 61199, Note_on_c, 9, 64, 0
2, 61200, Note_on_c, 9, 64, 106
2, 61439, Note_on_c, 9, 64, 0
2, 61920, Note_on_c, 9, 63, 99
2, 62159, Note_on_c, 9, 63, 0
2, 62160, Note_on_c, 9, 63, 102
2, 62399, Note_on_c, 9, 63, 0
2, 62880, Note_on_c, 9, 64, 100
2, 63119, Note_on_c, 9, 64, 0
2, 63120, Note_on_c, 9, 64, 107
2, 63359, Note_on_c, 9, 64, 0
2, 63840, Note_on_c, 9, 63, 104
2, 64079, Note_on_c, 9, 63, 0
2, 64080, Note_on_c, 9, 63, 106
2, 64319, Note_on_c, 9, 63, 0
2, 64800, Note_on_c, 9, 64, 98
2, 65039, Note_on_c, 9, 64, 0
2, 65040, Note_on_c, 9, 64, 103
2, 65279, Note_on_c, 9, 64, 0
2, 65760, Note_on_c, 9, 63, 107
2, 66239, Note_on_c, 9, 63, 0
2, 66720, Note_on_c, 9, 64, 104
2, 66959, Note_on_c, 9, 64, 0
2, 66960, Note_on_c, 9, 64, 104
2, 67199, Note_on_c, 9, 64, 0
2, 67680, Note_on_c, 9, 63, 122
2, 67919, Note_on_c, 9, 63, 0
2, 67920, Note_on_c, 9, 63, 106
2, 68159, Note_on_c, 9, 63, 0
2, 68640, Note_on_c, 9, 64, 102
2, 68879, Note_on_c, 9, 64, 0
2, 68880, Note_on_c, 9, 64, 106
2, 69119, Note_on_c, 9, 64, 0
2, 69600, Note_on_c, 9, 63, 106
2, 69839, Note_on_c, 9, 63, 0
2, 69840, Note_on_c, 9, 63, 114
2, 70079, Note_on_c, 9, 63, 0
2, 70560, Note_on_c, 9, 64, 107
2, 70799, Note_on_c, 9, 64, 0
2, 70800, Note_on_c, 9, 64, 105
2, 71039, Note_on_c, 9, 64, 0
2, 71535, Note_on_c, 9, 63, 112
2, 71759, Note_on_c, 9, 63, 0
2, 71760, Note_on_c, 9, 63, 114
2, 71999, Note_on_c, 9, 63, 0
2, 72480, Note_on_c, 9, 64, 104
2, 72719, Note_on_c, 9, 64, 0
2, 72720, Note_on_c, 9, 64, 102
2, 72959, Note_on_c, 9, 64, 0
2, 73440, Note_on_c, 9, 63, 106
2, 73679, Note_on_c, 9, 63, 0
2, 73680, Note_on_c, 9, 63, 106
2, 73919, Note_on_c, 9, 63, 0
2, 74400, Note_on_c, 9, 64, 103
2, 74639, Note_on_c, 9, 64, 0
2, 74640, Note_on_c, 9, 64, 103
2, 74879, Note_on_c, 9, 64, 0
2, 75360, Note_on_c, 9, 63, 117
2, 75599, Note_on_c, 9, 63, 0
2, 75600, Note_on_c, 9, 63, 114
2, 75839, Note_on_c, 9, 63, 0
2, 76440, Note_on_c, 9, 64, 95
2, 76799, Note_on_c, 9, 64, 0
2, 76800, Note_on_c, 9, 56, 127
2, 77279, Note_on_c, 9, 56, 0
2, 77280, Note_on_c, 9, 63, 95
2, 77280, Note_on_c, 9, 56, 119
2, 77519, Note_on_c, 9, 63, 0
2, 77519, Note_on_c, 9, 56, 0
2, 77520, Note_on_c, 9, 63, 94
2, 77759, Note_on_c, 9, 63, 0
2, 77760, Note_on_c, 9, 56, 127
2, 78239, Note_on_c, 9, 56, 0
2, 78240, Note_on_c, 9, 64, 100
2, 78240, Note_on_c, 9, 56, 127
2, 78479, Note_on_c, 9, 64, 0
2, 78479, Note_on_c, 9, 56, 0
2, 78480, Note_on_c, 9, 64, 103
2, 78719, Note_on_c, 9, 64, 0
2, 78720, Note_on_c, 9, 56, 127
2, 79199, Note_on_c, 9, 56, 0
2, 79200, Note_on_c, 9, 63, 101
2, 79200, Note_on_c, 9, 56, 127
2, 79439, Note_on_c, 9, 63, 0
2, 79439, Note_on_c, 9, 56, 0
2, 79440, Note_on_c, 9, 63, 93
2, 79679, Note_on_c, 9, 63, 0
2, 79680, Note_on_c, 9, 56, 127
2, 80159, Note_on_c, 9, 56, 0
2, 80160, Note_on_c, 9, 64, 94
2, 80160, Note_on_c, 9, 56, 127
2, 80399, Note_on_c, 9, 64, 0
2, 80399, Note_on_c, 9, 56, 0
2, 80400, Note_on_c, 9, 64, 98
2, 80639, Note_on_c, 9, 64, 0
2, 80640, Note_on_c, 9, 56, 127
2, 81119, Note_on_c, 9, 56, 0
2, 81120, Note_on_c, 9, 63, 102
2, 81120, Note_on_c, 9, 56, 127
2, 81359, Note_on_c, 9, 63, 0
2, 81359, Note_on_c, 9, 56, 0
2, 81375, Note_on_c, 9, 63, 89
2, 81599, Note_on_c, 9, 63, 0
2, 81600, Note_on_c, 9, 56, 114
2, 82079, Note_on_c, 9, 56, 0
2, 82080, Note_on_c, 9, 64, 92
2, 82080, Note_on_c, 9, 56, 127
2, 82319, Note_on_c, 9, 64, 0
2, 82319, Note_on_c, 9, 56, 0
2, 82320, Note_on_c, 9, 64, 92
2, 82559, Note_on_c, 9, 64, 0
2, 82560, Note_on_c, 9, 56, 127
2, 83039, Note_on_c, 9, 56, 0
2, 83040, Note_on_c, 9, 63, 102
2, 83040, Note_on_c, 9, 56, 127
2, 83279, Note_on_c, 9, 63, 0
2, 83279, Note_on_c, 9, 56, 0
2, 83280, Note_on_c, 9, 63, 97
2, 83519, Note_on_c, 9, 63, 0
2, 83520, Note_on_c, 9, 56, 127
2, 83999, Note_on_c, 9, 56, 0
2, 84000, Note_on_c, 9, 64, 95
2, 84000, Note_on_c, 9, 56, 127
2, 84239, Note_on_c, 9, 64, 0
2, 84239, Note_on_c, 9, 56, 0
2, 84240, Note_on_c, 9, 64, 99
2, 84479, Note_on_c, 9, 64, 0
2, 84480, Note_on_c, 9, 56, 127
2, 84959, Note_on_c, 9, 56, 0
2, 84975, Note_on_c, 9, 63, 93
2, 84975, Note_on_c, 9, 56, 127
2, 85199, Note_on_c, 9, 63, 0
2, 85199, Note_on_c, 9, 56, 0
2, 85200, Note_on_c, 9, 63, 99
2, 85439, Note_on_c, 9, 63, 0
2, 85440, Note_on_c, 9, 56, 127
2, 85919, Note_on_c, 9, 56, 0
2, 85920, Note_on_c, 9, 64, 109
2, 85920, Note_on_c, 9, 56, 127
2, 86159, Note_on_c, 9, 64, 0
2, 86159, Note_on_c, 9, 56, 0
2, 86160, Note_on_c, 9, 64, 98
2, 86399, Note_on_c, 9, 64, 0
2, 86400, Note_on_c, 9, 56, 127
2, 86879, Note_on_c, 9, 56, 0
2, 86880, Note_on_c, 9, 63, 99
2, 86880, Note_on_c, 9, 56, 127
2, 87119, Note_on_c, 9, 63, 0
2, 87119, Note_on_c, 9, 56, 0
2, 87120, Note_on_c, 9, 63, 101
2, 87359, Note_on_c, 9, 63, 0
2, 87360, Note_on_c, 9, 56, 127
2, 87839, Note_on_c, 9, 56, 0
2, 87840, Note_on_c, 9, 64, 100
2, 87884, Note_on_c, 9, 64, 0
2, 87885, Note_on_c, 9, 56, 127
2, 88079, Note_on_c, 9, 56, 0
2, 88080, Note_on_c, 9, 64, 99
2, 88319, Note_on_c, 9, 64, 0
2, 88350, Note_on_c, 9, 56, 127
2, 88799, Note_on_c, 9, 56, 0
2, 88800, Note_on_c, 9, 63, 102
2, 88800, Note_on_c, 9, 56, 127
2, 89039, Note_on_c, 9, 63, 0
2, 89039, Note_on_c, 9, 56, 0
2, 89070, Note_on_c, 9, 63, 102
2, 89159, Note_on_c, 9, 63, 0
2, 89280, Note_on_c, 9, 56, 127
2, 89759, Note_on_c, 9, 56, 0
2, 89775, Note_on_c, 9, 64, 108
2, 89775, Note_on_c, 9, 56, 127
2, 89999, Note_on_c, 9, 64, 0
2, 89999, Note_on_c, 9, 56, 0
2, 90000, Note_on_c, 9, 64, 96
2, 90239, Note_on_c, 9, 64, 0
2, 90240, Note_on_c, 9, 56, 127
2, 90719, Note_on_c, 9, 56, 0
2, 90720, Note_on_c, 9, 63, 104
2, 90720, Note_on_c, 9, 56, 127
2, 90959, Note_on_c, 9, 63, 0
2, 90959, Note_on_c, 9, 56, 0
2, 90960, Note_on_c, 9, 63, 101
2, 91199, Note_on_c, 9, 63, 0
2, 91245, Note_on_c, 9, 56, 127
2, 91439, Note_on_c, 9, 56, 0
2, 91680, Note_on_c, 9, 64, 113
2, 91680, Note_on_c, 9, 56, 127
2, 91919, Note_on_c, 9, 64, 0
2, 91919, Note_on_c, 9, 56, 0
2, 91920, Note_on_c, 9, 64, 99
2, 92159, Note_on_c, 9, 64, 0
2, 92160, Note_on_c, 9, 56, 127
2, 92639, Note_on_c, 9, 56, 0
2, 92640, Note_on_c, 9, 63, 112
2, 92640, Note_on_c, 9, 56, 127
2, 92879, Note_on_c, 9, 63, 0
2, 92879, Note_on_c, 9, 56, 0
2, 92895, Note_on_c, 9, 63, 112
2, 93119, Note_on_c, 9, 63, 0
2, 93120, Note_on_c, 9, 56, 127
2, 93599, Note_on_c, 9, 56, 0
2, 93600, Note_on_c, 9, 64, 105
2, 93600, Note_on_c, 9, 56, 127
2, 93839, Note_on_c, 9, 64, 0
2, 93839, Note_on_c, 9, 56, 0
2, 93840, Note_on_c, 9, 64, 100
2, 94079, Note_on_c, 9, 64, 0
2, 94080, Note_on_c, 9, 56, 127
2, 94559, Note_on_c, 9, 56, 0
2, 94560, Note_on_c, 9, 63, 106
2, 94560, Note_on_c, 9, 56, 127
2, 94799, Note_on_c, 9, 63, 0
2, 94799, Note_on_c, 9, 56, 0
2, 94800, Note_on_c, 9, 63, 98
2, 95039, Note_on_c, 9, 63, 0
2, 95055, Note_on_c, 9, 56, 127
2, 95279, Note_on_c, 9, 56, 0
2, 95520, Note_on_c, 9, 64, 92
2, 95520, Note_on_c, 9, 56, 127
2, 95759, Note_on_c, 9, 64, 0
2, 95759, Note_on_c, 9, 56, 0
2, 95760, Note_on_c, 9, 64, 99
2, 95999, Note_on_c, 9, 64, 0
2, 96045, Note_on_c, 9, 56, 127
2, 96239, Note_on_c, 9, 56, 0
2, 96480, Note_on_c, 9, 56, 127
2, 96524, Note_on_c, 9, 56, 0
2, 96525, Note_on_c, 9, 63, 109
2, 96719, Note_on_c, 9, 63, 0
2, 96720, Note_on_c, 9, 63, 94
2, 96959, Note_on_c, 9, 63, 0
2, 96960, Note_on_c, 9, 56, 127
2, 97439, Note_on_c, 9, 56, 0
2, 97455, Note_on_c, 9, 64, 104
2, 97455, Note_on_c, 9, 56, 127
2, 97514, Note_on_c, 9, 64, 0
2, 97679, Note_on_c, 9, 56, 0
2, 97680, Note_on_c, 9, 64, 107
2, 97919, Note_on_c, 9, 64, 0
2, 97980, Note_on_c, 9, 56, 127
2, 98159, Note_on_c, 9, 56, 0
2, 98400, Note_on_c, 9, 63, 101
2, 98459, Note_on_c, 9, 63, 0
2, 98460, Note_on_c, 9, 56, 127
2, 98639, Note_on_c, 9, 56, 0
2, 98640, Note_on_c, 9, 63, 99
2, 98879, Note_on_c, 9, 63, 0
2, 98880, Note_on_c, 9, 60, 127
2, 98880, Note_on_c, 9, 62, 127
2, 99119, Note_on_c, 9, 60, 0
2, 99119, Note_on_c, 9, 62, 0
2, 99120, Note_on_c, 9, 60, 127
2, 99120, Note_on_c, 9, 62, 127
2, 99359, Note_on_c, 9, 60, 0
2, 99359, Note_on_c, 9, 62, 0
2, 99360, Note_on_c, 9, 60, 127
2, 99360, Note_on_c, 9, 62, 127
2, 99599, Note_on_c, 9, 60, 0
2, 99599, Note_on_c, 9, 62, 0
2, 99600, Note_on_c, 9, 60, 127
2, 99600, Note_on_c, 9, 62, 127
2, 99839, Note_on_c, 9, 60, 0
2, 99839, Note_on_c, 9, 62, 0
2, 99840, Note_on_c, 9, 56, 127
2, 100319, Note_on_c, 9, 56, 0
2, 100350, Note_on_c, 9, 63, 97
2, 100350, Note_on_c, 9, 56, 127
2, 100409, Note_on_c, 9, 63, 0
2, 100439, Note_on_c, 9, 56, 0
2, 100560, Note_on_c, 9, 63, 89
2, 100799, Note_on_c, 9, 63, 0
2, 100815, Note_on_c, 9, 56, 125
2, 101039, Note_on_c, 9, 56, 0
2, 101295, Note_on_c, 9, 64, 103
2, 101295, Note_on_c, 9, 56, 127
2, 101519, Note_on_c, 9, 64, 0
2, 101519, Note_on_c, 9, 56, 0
2, 101520, Note_on_c, 9, 64, 106
2, 101759, Note_on_c, 9, 64, 0
2, 101760, Note_on_c, 9, 56, 127
2, 102239, Note_on_c, 9, 56, 0
2, 102255, Note_on_c, 9, 63, 95
2, 102255, Note_on_c, 9, 56, 127
2, 102479, Note_on_c, 9, 63, 0
2, 102479, Note_on_c, 9, 56, 0
2, 102480, Note_on_c, 9, 63, 90
2, 102719, Note_on_c, 9, 63, 0
2, 102750, Note_on_c, 9, 56, 127
2, 103199, Note_on_c, 9, 56, 0
2, 103200, Note_on_c, 9, 64, 100
2, 103200, Note_on_c, 9, 56, 127
2, 103439, Note_on_c, 9, 64, 0
2, 103439, Note_on_c, 9, 56, 0
2, 103455, Note_on_c, 9, 64, 95
2, 103679, Note_on_c, 9, 64, 0
2, 103695, Note_on_c, 9, 56, 127
2, 103919, Note_on_c, 9, 56, 0
2, 104160, Note_on_c, 9, 63, 101
2, 104160, Note_on_c, 9, 56, 127
2, 104399, Note_on_c, 9, 63, 0
2, 104399, Note_on_c, 9, 56, 0
2, 104415, Note_on_c, 9, 63, 93
2, 104639, Note_on_c, 9, 63, 0
2, 104685, Note_on_c, 9, 56, 127
2, 104879, Note_on_c, 9, 56, 0
2, 105165, Note_on_c, 9, 64, 98
2, 105165, Note_on_c, 9, 56, 127
2, 105224, Note_on_c, 9, 56, 0
2, 105359, Note_on_c, 9, 64, 0
2, 105360, Note_on_c, 9, 64, 95
2, 105599, Note_on_c, 9, 64, 0
2, 105600, Note_on_c, 9, 56, 127
2, 106079, Note_on_c, 9, 56, 0
2, 106095, Note_on_c, 9, 63, 93
2, 106095, Note_on_c, 9, 56, 127
2, 106334, Note_on_c, 9, 56, 0
2, 106364, Note_on_c, 9, 63, 0
2, 106365, Note_on_c, 9, 63, 93
2, 106559, Note_on_c, 9, 63, 0
2, 106620, Note_on_c, 9, 56, 127
2, 106799, Note_on_c, 9, 56, 0
2, 107040, Note_on_c, 9, 64, 103
2, 107040, Note_on_c, 9, 56, 127
2, 107279, Note_on_c, 9, 64, 0
2, 107279, Note_on_c, 9, 56, 0
2, 107295, Note_on_c, 9, 64, 104
2, 107519, Note_on_c, 9, 64, 0
2, 107520, Note_on_c, 9, 64, 110
2, 107520, Note_on_c, 9, 58, 127
2, 107999, Note_on_c, 9, 64, 0
2, 107999, Note_on_c, 9, 58, 0
2, 108300, Note_on_c, 9, 63, 88
2, 108479, Note_on_c, 9, 63, 0
2, 108525, Note_on_c, 9, 61, 107
2, 108719, Note_on_c, 9, 61, 0
2, 108990, Note_on_c, 9, 63, 90
2, 109079, Note_on_c, 9, 63, 0
2, 109200, Note_on_c, 9, 63, 85
2, 109439, Note_on_c, 9, 63, 0
2, 109470, Note_on_c, 9, 64, 102
2, 109919, Note_on_c, 9, 64, 0
2, 109920, Note_on_c, 9, 63, 119
2, 110159, Note_on_c, 9, 63, 0
2, 110160, Note_on_c, 9, 61, 122
2, 110399, Note_on_c, 9, 61, 0
2, 110445, Note_on_c, 9, 64, 116
2, 110639, Note_on_c, 9, 64, 0
2, 110880, Note_on_c, 9, 63, 107
2, 110880, Note_on_c, 9, 54, 127
2, 111119, Note_on_c, 9, 63, 0
2, 111119, Note_on_c, 9, 54, 0
2, 111120, Note_on_c, 9, 63, 107
2, 111359, Note_on_c, 9, 63, 0
2, 111360, Note_on_c, 9, 61, 119
2, 111599, Note_on_c, 9, 61, 0
2, 111600, Note_on_c, 9, 64, 102
2, 111839, Note_on_c, 9, 64, 0
2, 111870, Note_on_c, 9, 64, 119
2, 112319, Note_on_c, 9, 64, 0
2, 112320, Note_on_c, 9, 63, 94
2, 112559, Note_on_c, 9, 63, 0
2, 112560, Note_on_c, 9, 63, 99
2, 112799, Note_on_c, 9, 63, 0
2, 112800, Note_on_c, 9, 61, 117
2, 113039, Note_on_c, 9, 61, 0
2, 113040, Note_on_c, 9, 64, 110
2, 113279, Note_on_c, 9, 64, 0
2, 113520, Note_on_c, 9, 63, 102
2, 113759, Note_on_c, 9, 63, 0
2, 113760, Note_on_c, 9, 60, 124
2, 114239, Note_on_c, 9, 60, 0
2, 114240, Note_on_c, 9, 60, 105
2, 114479, Note_on_c, 9, 60, 0
2, 114480, Note_on_c, 9, 63, 101
2, 114719, Note_on_c, 9, 63, 0
2, 114720, Note_on_c, 9, 54, 127
2, 114720, Note_on_c, 9, 61, 125
2, 114959, Note_on_c, 9, 54, 0
2, 114959, Note_on_c, 9, 61, 0
2, 114975, Note_on_c, 9, 64, 107
2, 115199, Note_on_c, 9, 64, 0
2, 115245, Note_on_c, 9, 63, 97
2, 115439, Note_on_c, 9, 63, 0
2, 115440, Note_on_c, 9, 61, 106
2, 115679, Note_on_c, 9, 61, 0
2, 115740, Note_on_c, 9, 63, 109
2, 115919, Note_on_c, 9, 63, 0
2, 115920, Note_on_c, 9, 64, 111
2, 116159, Note_on_c, 9, 64, 0
2, 116415, Note_on_c, 9, 64, 95
2, 116639, Note_on_c, 9, 64, 0
2, 116640, Note_on_c, 9, 63, 114
2, 116879, Note_on_c, 9, 63, 0
2, 116880, Note_on_c, 9, 61, 114
2, 117119, Note_on_c, 9, 61, 0
2, 117390, Note_on_c, 9, 64, 103
2, 117479, Note_on_c, 9, 64, 0
2, 117630, Note_on_c, 9, 63, 68
2, 117719, Note_on_c, 9, 63, 0
2, 117855, Note_on_c, 9, 61, 114
2, 118079, Note_on_c, 9, 61, 0
2, 118580, Note_on_c, 9, 63, 71
2, 118599, Note_on_c, 9, 63, 0
2, 118600, Note_on_c, 9, 54, 127
2, 118679, Note_on_c, 9, 54, 0
2, 118800, Note_on_c, 9, 61, 112
2, 119039, Note_on_c, 9, 61, 0
2, 119040, Note_on_c, 9, 64, 126
2, 119519, Note_on_c, 9, 64, 0
2, 119760, Note_on_c, 9, 63, 90
2, 119999, Note_on_c, 9, 63, 0
2, 120480, Note_on_c, 9, 64, 110
2, 120719, Note_on_c, 9, 64, 0
2, 120720, Note_on_c, 9, 64, 127
2, 120959, Note_on_c, 9, 64, 0
2, 121440, Note_on_c, 9, 63, 122
2, 121679, Note_on_c, 9, 63, 0
2, 121695, Note_on_c, 9, 63, 106
2, 121919, Note_on_c, 9, 63, 0
2, 122475, Note_on_c, 9, 64, 124
2, 122519, Note_on_c, 9, 64, 0
2, 122640, Note_on_c, 9, 64, 117
2, 122879, Note_on_c, 9, 64, 0
2, 122880, Note_on_c, 9, 55, 127
2, 123359, Note_on_c, 9, 55, 0
2, 123375, Note_on_c, 9, 63, 122
2, 123599, Note_on_c, 9, 63, 0
2, 123615, Note_on_c, 9, 63, 117
2, 123839, Note_on_c, 9, 63, 0
2, 124320, Note_on_c, 9, 64, 122
2, 124559, Note_on_c, 9, 64, 0
2, 124560, Note_on_c, 9, 64, 119
2, 124799, Note_on_c, 9, 64, 0
2, 125280, Note_on_c, 9, 63, 122
2, 125519, Note_on_c, 9, 63, 0
2, 125520, Note_on_c, 9, 63, 125
2, 125759, Note_on_c, 9, 63, 0
2, 126270, Note_on_c, 9, 64, 127
2, 126359, Note_on_c, 9, 64, 0
2, 126480, Note_on_c, 9, 64, 127
2, 126719, Note_on_c, 9, 64, 0
2, 127200, Note_on_c, 9, 63, 127
2, 127439, Note_on_c, 9, 63, 0
2, 127440, Note_on_c, 9, 63, 127
2, 127679, Note_on_c, 9, 63, 0
2, 128160, Note_on_c, 9, 64, 122
2, 128399, Note_on_c, 9, 64, 0
2, 128415, Note_on_c, 9, 64, 127
2, 128639, Note_on_c, 9, 64, 0
2, 129150, Note_on_c, 9, 63, 127
2, 129239, Note_on_c, 9, 63, 0
2, 129360, Note_on_c, 9, 63, 127
2, 129599, Note_on_c, 9, 63, 0
2, 130080, Note_on_c, 9, 64, 124
2, 130319, Note_on_c, 9, 64, 0
2, 130350, Note_on_c, 9, 64, 127
2, 130439, Note_on_c, 9, 64, 0
2, 131055, Note_on_c, 9, 63, 119
2, 131279, Note_on_c, 9, 63, 0
2, 131280, Note_on_c, 9, 63, 122
2, 131519, Note_on_c, 9, 63, 0
2, 132000, Note_on_c, 9, 64, 127
2, 132239, Note_on_c, 9, 64, 0
2, 132240, Note_on_c, 9, 64, 119
2, 132479, Note_on_c, 9, 64, 0
2, 132960, Note_on_c, 9, 63, 122
2, 133199, Note_on_c, 9, 63, 0
2, 133200, Note_on_c, 9, 63, 122
2, 133439, Note_on_c, 9, 63, 0
2, 133920, Note_on_c, 9, 64, 127
2, 134159, Note_on_c, 9, 64, 0
2, 134160, Note_on_c, 9, 64, 127
2, 134399, Note_on_c, 9, 64, 0
2, 134910, Note_on_c, 9, 63, 127
2, 134999, Note_on_c, 9, 63, 0
2, 135120, Note_on_c, 9, 63, 119
2, 135359, Note_on_c, 9, 63, 0
2, 135840, Note_on_c, 9, 64, 116
2, 136079, Note_on_c, 9, 64, 0
2, 136080, Note_on_c, 9, 64, 126
2, 136319, Note_on_c, 9, 64, 0
2, 136800, Note_on_c, 9, 63, 125
2, 137039, Note_on_c, 9, 63, 0
2, 137040, Note_on_c, 9, 63, 122
2, 137279, Note_on_c, 9, 63, 0
2, 137760, Note_on_c, 9, 64, 121
2, 137999, Note_on_c, 9, 64, 0
2, 138000, Note_on_c, 9, 64, 121
2, 138239, Note_on_c, 9, 64, 0
2, 138720, Note_on_c, 9, 63, 119
2, 138959, Note_on_c, 9, 63, 0
2, 138960, Note_on_c, 9, 63, 114
2, 139199, Note_on_c, 9, 63, 0
2, 139680, Note_on_c, 9, 64, 122
2, 139919, Note_on_c, 9, 64, 0
2, 139920, Note_on_c, 9, 64, 127
2, 140159, Note_on_c, 9, 64, 0
2, 140640, Note_on_c, 9, 63, 127
2, 140879, Note_on_c, 9, 63, 0
2, 140880, Note_on_c, 9, 63, 119
2, 141119, Note_on_c, 9, 63, 0
2, 141600, Note_on_c, 9, 64, 127
2, 141839, Note_on_c, 9, 64, 0
2, 141840, Note_on_c, 9, 55, 127
2, 141899, Note_on_c, 9, 55, 0
2, 141900, Note_on_c, 9, 64, 124
2, 142079, Note_on_c, 9, 64, 0
2, 143040, Note_on_c, 9, 52, 127
2, 143519, Note_on_c, 9, 52, 0
2, 143520, Note_on_c, 9, 47, 127
2, 143999, Note_on_c, 9, 47, 0
2, 144000, Note_on_c, 9, 45, 127
2, 144119, Note_on_c, 9, 45, 0
2, 144120, Note_on_c, 9, 52, 106
2, 144359, Note_on_c, 9, 52, 0
2, 144420, Note_on_c, 9, 45, 110
2, 144479, Note_on_c, 9, 45, 0
2, 144480, Note_on_c, 9, 51, 127
2, 144719, Note_on_c, 9, 51, 0
2, 144720, Note_on_c, 9, 51, 117
2, 144959, Note_on_c, 9, 51, 0
2, 144960, Note_on_c, 9, 47, 127
2, 144960, Note_on_c, 9, 51, 119
2, 145199, Note_on_c, 9, 47, 0
2, 145199, Note_on_c, 9, 51, 0
2, 145200, Note_on_c, 9, 45, 110
2, 145439, Note_on_c, 9, 45, 0
2, 145500, Note_on_c, 9, 51, 119
2, 145500, Note_on_c, 9, 43, 127
2, 145559, Note_on_c, 9, 51, 0
2, 145559, Note_on_c, 9, 43, 0
2, 145560, Note_on_c, 9, 43, 35
2, 145590, Note_on_c, 9, 41, 84
2, 145889, Note_on_c, 9, 41, 0
2, 145890, Note_on_c, 9, 56, 127
2, 145919, Note_on_c, 9, 43, 0
2, 146369, Note_on_c, 9, 56, 0
2, 146400, Note_on_c, 9, 56, 127
2, 146639, Note_on_c, 9, 56, 0
2, 146640, Note_on_c, 9, 47, 127
2, 146879, Note_on_c, 9, 47, 0
2, 146880, Note_on_c, 9, 56, 127
2, 147119, Note_on_c, 9, 56, 0
2, 147120, Note_on_c, 9, 45, 127
2, 147359, Note_on_c, 9, 45, 0
2, 147360, Note_on_c, 9, 56, 127
2, 147600, Note_on_c, 9, 43, 127
2, 147839, Note_on_c, 9, 56, 0
2, 147839, Note_on_c, 9, 43, 0
2, 147840, Note_on_c, 9, 56, 127
2, 148319, Note_on_c, 9, 56, 0
2, 148320, Note_on_c, 9, 56, 127
2, 148559, Note_on_c, 9, 56, 0
2, 148560, Note_on_c, 9, 50, 127
2, 148799, Note_on_c, 9, 50, 0
2, 148800, Note_on_c, 9, 50, 127
2, 148919, Note_on_c, 9, 50, 0
2, 148935, Note_on_c, 9, 48, 127
2, 148979, Note_on_c, 9, 48, 0
2, 149040, Note_on_c, 9, 48, 127
2, 149159, Note_on_c, 9, 48, 0
2, 149160, Note_on_c, 9, 47, 127
2, 149279, Note_on_c, 9, 47, 0
2, 149280, Note_on_c, 9, 45, 126
2, 149280, Note_on_c, 9, 47, 127
2, 149400, Note_on_c, 9, 43, 127
2, 149519, Note_on_c, 9, 45, 0
2, 149519, Note_on_c, 9, 47, 0
2, 149520, Note_on_c, 9, 45, 127
2, 149759, Note_on_c, 9, 43, 0
2, 149759, Note_on_c, 9, 45, 0
2, 149760, Note_on_c, 9, 49, 127
2, 149760, Note_on_c, 9, 36, 127
2, 150239, Note_on_c, 9, 49, 0
2, 150239, Note_on_c, 9, 36, 0
2, 150960, Note_on_c, 9, 64, 127
2, 151199, Note_on_c, 9, 64, 0
2, 151200, Note_on_c, 9, 63, 122
2, 151439, Note_on_c, 9, 63, 0
2, 151440, Note_on_c, 9, 63, 127
2, 151679, Note_on_c, 9, 63, 0
2, 152160, Note_on_c, 9, 63, 127
2, 152399, Note_on_c, 9, 63, 0
2, 152430, Note_on_c, 9, 63, 119
2, 152519, Note_on_c, 9, 63, 0
2, 153120, Note_on_c, 9, 64, 127
2, 153359, Note_on_c, 9, 64, 0
2, 153360, Note_on_c, 9, 64, 127
2, 153599, Note_on_c, 9, 64, 0
2, 154110, Note_on_c, 9, 63, 127
2, 154199, Note_on_c, 9, 63, 0
2, 154320, Note_on_c, 9, 63, 127
2, 154559, Note_on_c, 9, 63, 0
2, 155040, Note_on_c, 9, 64, 127
2, 155279, Note_on_c, 9, 64, 0
2, 155280, Note_on_c, 9, 64, 122
2, 155519, Note_on_c, 9, 64, 0
2, 155520, End_track
0, 0, End_of_file
