0, 0, Header, 1, 1, 480
1, 0, Start_track
1, 0, Time_signature, 4, 2, 24, 8
1, 0, Key_signature, 0, "major"
1, 0, Tempo, 582524
1, 0, Control_c, 9, 121, 0
1, 0, Program_c, 9, 0
1, 0, Control_c, 9, 7, 100
1, 0, Control_c, 9, 10, 64
1, 0, Control_c, 9, 91, 0
1, 0, Control_c, 9, 93, 0
1, 0, MIDI_port, 0
1, 1920, Note_on_c, 9, 36, 113
1, 2399, Note_on_c, 9, 36, 0
1, 2400, Note_on_c, 9, 36, 105
1, 2879, Note_on_c, 9, 36, 0
1, 2880, Note_on_c, 9, 37, 81
1, 3120, Note_on_c, 9, 36, 95
1, 3359, Note_on_c, 9, 37, 0
1, 3359, Note_on_c, 9, 36, 0
1, 3360, Note_on_c, 9, 36, 92
1, 3599, Note_on_c, 9, 36, 0
1, 3600, Note_on_c, 9, 46, 89
1, 3600, Note_on_c, 9, 36, 106
1, 3839, Note_on_c, 9, 46, 0
1, 3839, Note_on_c, 9, 36, 0
1, 3840, Note_on_c, 9, 49, 97
1, 3840, Note_on_c, 9, 36, 96
1, 4079, Note_on_c, 9, 49, 0
1, 4080, Note_on_c, 9, 42, 70
1, 4304, Note_on_c, 9, 42, 0
1, 4305, Note_on_c, 9, 42, 95
1, 4319, Note_on_c, 9, 36, 0
1, 4320, Note_on_c, 9, 40, 112
1, 4559, Note_on_c, 9, 42, 0
1, 4559, Note_on_c, 9, 40, 0
1, 4560, Note_on_c, 9, 42, 67
1, 4710, Note_on_c, 9, 36, 66
1, 4799, Note_on_c, 9, 42, 0
1, 4799, Note_on_c, 9, 36, 0
1, 4800, Note_on_c, 9, 42, 85
1, 4800, Note_on_c, 9, 36, 94
1, 5039, Note_on_c, 9, 42, 0
1, 5040, Note_on_c, 9, 42, 54
1, 5279, Note_on_c, 9, 36, 0
1, 5279, Note_on_c, 9, 42, 0
1, 5280, Note_on_c, 9, 40, 120
1, 5280, Note_on_c, 9, 42, 103
1, 5519, Note_on_c, 9, 40, 0
1, 5519, Note_on_c, 9, 42, 0
1, 5520, Note_on_c, 9, 42, 63
1, 5639, Note_on_c, 9, 42, 0
1, 5670, Note_on_c, 9, 42, 70
1, 5670, Note_on_c, 9, 36, 68
1, 5759, Note_on_c, 9, 42, 0
1, 5759, Note_on_c, 9, 36, 0
1, 5760, Note_on_c, 9, 42, 75
1, 5760, Note_on_c, 9, 36, 98
1, 5999, Note_on_c, 9, 42, 0
1, 6000, Note_on_c, 9, 42, 52
1, 6239, Note_on_c, 9, 36, 0
1, 6239, Note_on_c, 9, 42, 0
1, 6240, Note_on_c, 9, 40, 112
1, 6254, Note_on_c, 9, 40, 0
1, 6255, Note_on_c, 9, 42, 97
1, 6479, Note_on_c, 9, 42, 0
1, 6480, Note_on_c, 9, 42, 63
1, 6630, Note_on_c, 9, 36, 65
1, 6719, Note_on_c, 9, 42, 0
1, 6719, Note_on_c, 9, 36, 0
1, 6720, Note_on_c, 9, 42, 75
1, 6720, Note_on_c, 9, 36, 98
1, 6959, Note_on_c, 9, 42, 0
1, 6960, Note_on_c, 9, 42, 55
1, 7184, Note_on_c, 9, 42, 0
1, 7185, Note_on_c, 9, 42, 97
1, 7199, Note_on_c, 9, 36, 0
1, 7200, Note_on_c, 9, 40, 120
1, 7439, Note_on_c, 9, 42, 0
1, 7439, Note_on_c, 9, 40, 0
1, 7440, Note_on_c, 9, 42, 67
1, 7559, Note_on_c, 9, 42, 0
1, 7590, Note_on_c, 9, 42, 45
1, 7590, Note_on_c, 9, 36, 60
1, 7679, Note_on_c, 9, 42, 0
1, 7679, Note_on_c, 9, 36, 0
1, 7680, Note_on_c, 9, 42, 74
1, 7680, Note_on_c, 9, 36, 96
1, 7919, Note_on_c, 9, 42, 0
1, 7920, Note_on_c, 9, 42, 56
1, 8144, Note_on_c, 9, 42, 0
1, 8145, Note_on_c, 9, 42, 100
1, 8159, Note_on_c, 9, 36, 0
1, 8160, Note_on_c, 9, 40, 112
1, 8399, Note_on_c, 9, 42, 0
1, 8399, Note_on_c, 9, 40, 0
1, 8400, Note_on_c, 9, 42, 50
1, 8540, Note_on_c, 9, 36, 66
1, 8579, Note_on_c, 9, 36, 0
1, 8639, Note_on_c, 9, 42, 0
1, 8640, Note_on_c, 9, 42, 77
1, 8640, Note_on_c, 9, 36, 94
1, 8879, Note_on_c, 9, 42, 0
1, 8880, Note_on_c, 9, 42, 52
1, 9104, Note_on_c, 9, 42, 0
1, 9105, Note_on_c, 9, 42, 103
1, 9119, Note_on_c, 9, 36, 0
1, 9120, Note_on_c, 9, 40, 120
1, 9359, Note_on_c, 9, 42, 0
1, 9359, Note_on_c, 9, 40, 0
1, 9360, Note_on_c, 9, 42, 68
1, 9479, Note_on_c, 9, 42, 0
1, 9510, Note_on_c, 9, 42, 42
1, 9510, Note_on_c, 9, 36, 68
1, 9599, Note_on_c, 9, 42, 0
1, 9599, Note_on_c, 9, 36, 0
1, 9600, Note_on_c, 9, 42, 77
1, 9600, Note_on_c, 9, 36, 96
1, 9839, Note_on_c, 9, 42, 0
1, 9840, Note_on_c, 9, 42, 55
1, 10064, Note_on_c, 9, 42, 0
1, 10065, Note_on_c, 9, 42, 97
1, 10079, Note_on_c, 9, 36, 0
1, 10080, Note_on_c, 9, 40, 112
1, 10319, Note_on_c, 9, 42, 0
1, 10319, Note_on_c, 9, 40, 0
1, 10320, Note_on_c, 9, 42, 40
1, 10460, Note_on_c, 9, 36, 66
1, 10499, Note_on_c, 9, 36, 0
1, 10559, Note_on_c, 9, 42, 0
1, 10560, Note_on_c, 9, 42, 76
1, 10560, Note_on_c, 9, 36, 94
1, 10799, Note_on_c, 9, 42, 0
1, 10800, Note_on_c, 9, 42, 51
1, 11039, Note_on_c, 9, 36, 0
1, 11039, Note_on_c, 9, 42, 0
1, 11040, Note_on_c, 9, 40, 120
1, 11040, Note_on_c, 9, 42, 95
1, 11279, Note_on_c, 9, 40, 0
1, 11279, Note_on_c, 9, 42, 0
1, 11280, Note_on_c, 9, 42, 57
1, 11399, Note_on_c, 9, 42, 0
1, 11430, Note_on_c, 9, 42, 68
1, 11430, Note_on_c, 9, 36, 68
1, 11519, Note_on_c, 9, 42, 0
1, 11519, Note_on_c, 9, 36, 0
1, 11520, Note_on_c, 9, 42, 76
1, 11520, Note_on_c, 9, 36, 96
1, 11759, Note_on_c, 9, 42, 0
1, 11760, Note_on_c, 9, 42, 54
1, 11999, Note_on_c, 9, 36, 0
1, 11999, Note_on_c, 9, 42, 0
1, 12000, Note_on_c, 9, 40, 112
1, 12000, Note_on_c, 9, 42, 103
1, 12239, Note_on_c, 9, 40, 0
1, 12239, Note_on_c, 9, 42, 0
1, 12240, Note_on_c, 9, 42, 50
1, 12380, Note_on_c, 9, 36, 66
1, 12419, Note_on_c, 9, 36, 0
1, 12479, Note_on_c, 9, 42, 0
1, 12480, Note_on_c, 9, 42, 75
1, 12480, Note_on_c, 9, 36, 94
1, 12719, Note_on_c, 9, 42, 0
1, 12720, Note_on_c, 9, 42, 46
1, 12959, Note_on_c, 9, 36, 0
1, 12959, Note_on_c, 9, 42, 0
1, 12960, Note_on_c, 9, 40, 120
1, 12960, Note_on_c, 9, 42, 103
1, 13199, Note_on_c, 9, 40, 0
1, 13199, Note_on_c, 9, 42, 0
1, 13200, Note_on_c, 9, 42, 64
1, 13319, Note_on_c, 9, 42, 0
1, 13350, Note_on_c, 9, 42, 57
1, 13350, Note_on_c, 9, 36, 68
1, 13439, Note_on_c, 9, 42, 0
1, 13439, Note_on_c, 9, 36, 0
1, 13440, Note_on_c, 9, 42, 80
1, 13440, Note_on_c, 9, 36, 96
1, 13679, Note_on_c, 9, 42, 0
1, 13680, Note_on_c, 9, 42, 57
1, 13904, Note_on_c, 9, 42, 0
1, 13905, Note_on_c, 9, 42, 97
1, 13919, Note_on_c, 9, 36, 0
1, 13920, Note_on_c, 9, 40, 112
1, 14159, Note_on_c, 9, 42, 0
1, 14159, Note_on_c, 9, 40, 0
1, 14160, Note_on_c, 9, 42, 49
1, 14300, Note_on_c, 9, 36, 66
1, 14339, Note_on_c, 9, 36, 0
1, 14399, Note_on_c, 9, 42, 0
1, 14400, Note_on_c, 9, 42, 78
1, 14400, Note_on_c, 9, 36, 94
1, 14639, Note_on_c, 9, 42, 0
1, 14640, Note_on_c, 9, 42, 47
1, 14864, Note_on_c, 9, 42, 0
1, 14865, Note_on_c, 9, 42, 106
1, 14879, Note_on_c, 9, 36, 0
1, 14880, Note_on_c, 9, 40, 120
1, 15119, Note_on_c, 9, 42, 0
1, 15119, Note_on_c, 9, 40, 0
1, 15120, Note_on_c, 9, 42, 68
1, 15239, Note_on_c, 9, 42, 0
1, 15270, Note_on_c, 9, 42, 75
1, 15270, Note_on_c, 9, 36, 68
1, 15359, Note_on_c, 9, 42, 0
1, 15359, Note_on_c, 9, 36, 0
1, 15360, Note_on_c, 9, 42, 75
1, 15360, Note_on_c, 9, 36, 96
1, 15599, Note_on_c, 9, 42, 0
1, 15600, Note_on_c, 9, 42, 38
1, 15839, Note_on_c, 9, 36, 0
1, 15839, Note_on_c, 9, 42, 0
1, 15840, Note_on_c, 9, 40, 112
1, 15840, Note_on_c, 9, 42, 91
1, 16079, Note_on_c, 9, 40, 0
1, 16079, Note_on_c, 9, 42, 0
1, 16080, Note_on_c, 9, 42, 47
1, 16220, Note_on_c, 9, 36, 66
1, 16259, Note_on_c, 9, 36, 0
1, 16319, Note_on_c, 9, 42, 0
1, 16320, Note_on_c, 9, 42, 75
1, 16320, Note_on_c, 9, 36, 94
1, 16559, Note_on_c, 9, 42, 0
1, 16560, Note_on_c, 9, 42, 48
1, 16784, Note_on_c, 9, 42, 0
1, 16785, Note_on_c, 9, 42, 97
1, 16799, Note_on_c, 9, 36, 0
1, 16800, Note_on_c, 9, 40, 120
1, 17039, Note_on_c, 9, 42, 0
1, 17039, Note_on_c, 9, 40, 0
1, 17040, Note_on_c, 9, 42, 62
1, 17159, Note_on_c, 9, 42, 0
1, 17190, Note_on_c, 9, 42, 64
1, 17190, Note_on_c, 9, 36, 68
1, 17279, Note_on_c, 9, 42, 0
1, 17279, Note_on_c, 9, 36, 0
1, 17280, Note_on_c, 9, 42, 77
1, 17280, Note_on_c, 9, 36, 98
1, 17519, Note_on_c, 9, 42, 0
1, 17520, Note_on_c, 9, 42, 46
1, 17759, Note_on_c, 9, 36, 0
1, 17759, Note_on_c, 9, 42, 0
1, 17760, Note_on_c, 9, 40, 112
1, 17774, Note_on_c, 9, 40, 0
1, 17775, Note_on_c, 9, 46, 100
1, 17999, Note_on_c, 9, 46, 0
1, 18120, Note_on_c, 9, 36, 65
1, 18239, Note_on_c, 9, 36, 0
1, 18240, Note_on_c, 9, 46, 100
1, 18240, Note_on_c, 9, 36, 98
1, 18479, Note_on_c, 9, 46, 0
1, 18479, Note_on_c, 9, 36, 0
1, 18480, Note_on_c, 9, 46, 92
1, 18480, Note_on_c, 9, 36, 72
1, 18719, Note_on_c, 9, 46, 0
1, 18719, Note_on_c, 9, 36, 0
1, 18720, Note_on_c, 9, 40, 120
1, 18720, Note_on_c, 9, 46, 109
1, 18720, Note_on_c, 9, 36, 83
1, 18959, Note_on_c, 9, 40, 0
1, 18959, Note_on_c, 9, 46, 0
1, 18959, Note_on_c, 9, 36, 0
1, 18960, Note_on_c, 9, 46, 113
1, 18960, Note_on_c, 9, 36, 85
1, 19199, Note_on_c, 9, 46, 0
1, 19199, Note_on_c, 9, 36, 0
1, 19200, Note_on_c, 9, 49, 77
1, 19200, Note_on_c, 9, 36, 96
1, 19439, Note_on_c, 9, 49, 0
1, 19440, Note_on_c, 9, 42, 51
1, 19559, Note_on_c, 9, 36, 0
1, 19559, Note_on_c, 9, 42, 0
1, 19590, Note_on_c, 9, 42, 31
1, 19590, Note_on_c, 9, 36, 69
1, 19679, Note_on_c, 9, 42, 0
1, 19679, Note_on_c, 9, 36, 0
1, 19680, Note_on_c, 9, 40, 112
1, 19694, Note_on_c, 9, 40, 0
1, 19695, Note_on_c, 9, 42, 84
1, 19919, Note_on_c, 9, 42, 0
1, 19920, Note_on_c, 9, 42, 39
1, 20039, Note_on_c, 9, 42, 0
1, 20070, Note_on_c, 9, 42, 31
1, 20070, Note_on_c, 9, 36, 57
1, 20159, Note_on_c, 9, 42, 0
1, 20159, Note_on_c, 9, 36, 0
1, 20160, Note_on_c, 9, 42, 63
1, 20160, Note_on_c, 9, 36, 81
1, 20399, Note_on_c, 9, 42, 0
1, 20400, Note_on_c, 9, 42, 38
1, 20519, Note_on_c, 9, 36, 0
1, 20519, Note_on_c, 9, 42, 0
1, 20540, Note_on_c, 9, 36, 74
1, 20550, Note_on_c, 9, 42, 24
1, 20579, Note_on_c, 9, 36, 0
1, 20639, Note_on_c, 9, 42, 0
1, 20640, Note_on_c, 9, 40, 120
1, 20640, Note_on_c, 9, 42, 87
1, 20879, Note_on_c, 9, 40, 0
1, 20879, Note_on_c, 9, 42, 0
1, 20880, Note_on_c, 9, 42, 53
1, 20999, Note_on_c, 9, 42, 0
1, 21030, Note_on_c, 9, 42, 24
1, 21030, Note_on_c, 9, 36, 53
1, 21119, Note_on_c, 9, 42, 0
1, 21119, Note_on_c, 9, 36, 0
1, 21120, Note_on_c, 9, 42, 63
1, 21120, Note_on_c, 9, 36, 96
1, 21359, Note_on_c, 9, 42, 0
1, 21360, Note_on_c, 9, 42, 52
1, 21479, Note_on_c, 9, 36, 0
1, 21479, Note_on_c, 9, 42, 0
1, 21510, Note_on_c, 9, 42, 24
1, 21510, Note_on_c, 9, 36, 69
1, 21569, Note_on_c, 9, 42, 0
1, 21585, Note_on_c, 9, 42, 91
1, 21599, Note_on_c, 9, 36, 0
1, 21600, Note_on_c, 9, 40, 112
1, 21840, Note_on_c, 9, 43, 53
1, 21959, Note_on_c, 9, 42, 0
1, 21959, Note_on_c, 9, 40, 0
1, 21959, Note_on_c, 9, 43, 0
1, 21990, Note_on_c, 9, 42, 24
1, 21990, Note_on_c, 9, 36, 57
1, 22079, Note_on_c, 9, 42, 0
1, 22079, Note_on_c, 9, 36, 0
1, 22080, Note_on_c, 9, 42, 69
1, 22080, Note_on_c, 9, 36, 81
1, 22319, Note_on_c, 9, 42, 0
1, 22320, Note_on_c, 9, 42, 52
1, 22439, Note_on_c, 9, 36, 0
1, 22439, Note_on_c, 9, 42, 0
1, 22470, Note_on_c, 9, 36, 74
1, 22480, Note_on_c, 9, 42, 24
1, 22499, Note_on_c, 9, 42, 0
1, 22559, Note_on_c, 9, 36, 0
1, 22560, Note_on_c, 9, 40, 120
1, 22574, Note_on_c, 9, 40, 0
1, 22575, Note_on_c, 9, 42, 85
1, 22799, Note_on_c, 9, 42, 0
1, 22800, Note_on_c, 9, 42, 53
1, 22919, Note_on_c, 9, 42, 0
1, 22950, Note_on_c, 9, 42, 29
1, 22950, Note_on_c, 9, 36, 53
1, 23039, Note_on_c, 9, 42, 0
1, 23039, Note_on_c, 9, 36, 0
1, 23040, Note_on_c, 9, 42, 63
1, 23040, Note_on_c, 9, 36, 96
1, 23279, Note_on_c, 9, 42, 0
1, 23280, Note_on_c, 9, 42, 52
1, 23399, Note_on_c, 9, 36, 0
1, 23399, Note_on_c, 9, 42, 0
1, 23430, Note_on_c, 9, 42, 24
1, 23430, Note_on_c, 9, 36, 69
1, 23489, Note_on_c, 9, 42, 0
1, 23505, Note_on_c, 9, 42, 91
1, 23519, Note_on_c, 9, 36, 0
1, 23520, Note_on_c, 9, 40, 112
1, 23759, Note_on_c, 9, 42, 0
1, 23759, Note_on_c, 9, 40, 0
1, 23760, Note_on_c, 9, 42, 53
1, 23879, Note_on_c, 9, 42, 0
1, 23900, Note_on_c, 9, 36, 57
1, 23910, Note_on_c, 9, 42, 24
1, 23939, Note_on_c, 9, 36, 0
1, 23999, Note_on_c, 9, 42, 0
1, 24000, Note_on_c, 9, 42, 69
1, 24000, Note_on_c, 9, 36, 81
1, 24239, Note_on_c, 9, 42, 0
1, 24240, Note_on_c, 9, 42, 52
1, 24359, Note_on_c, 9, 36, 0
1, 24359, Note_on_c, 9, 42, 0
1, 24390, Note_on_c, 9, 36, 74
1, 24400, Note_on_c, 9, 42, 24
1, 24419, Note_on_c, 9, 42, 0
1, 24479, Note_on_c, 9, 36, 0
1, 24480, Note_on_c, 9, 40, 120
1, 24494, Note_on_c, 9, 40, 0
1, 24495, Note_on_c, 9, 42, 85
1, 24719, Note_on_c, 9, 42, 0
1, 24720, Note_on_c, 9, 42, 53
1, 24839, Note_on_c, 9, 42, 0
1, 24870, Note_on_c, 9, 42, 29
1, 24870, Note_on_c, 9, 36, 53
1, 24959, Note_on_c, 9, 42, 0
1, 24959, Note_on_c, 9, 36, 0
1, 24960, Note_on_c, 9, 42, 63
1, 24960, Note_on_c, 9, 36, 96
1, 25199, Note_on_c, 9, 42, 0
1, 25200, Note_on_c, 9, 42, 52
1, 25319, Note_on_c, 9, 36, 0
1, 25319, Note_on_c, 9, 42, 0
1, 25350, Note_on_c, 9, 42, 24
1, 25350, Note_on_c, 9, 36, 69
1, 25409, Note_on_c, 9, 42, 0
1, 25425, Note_on_c, 9, 42, 91
1, 25439, Note_on_c, 9, 36, 0
1, 25440, Note_on_c, 9, 40, 112
1, 25679, Note_on_c, 9, 42, 0
1, 25679, Note_on_c, 9, 40, 0
1, 25680, Note_on_c, 9, 42, 53
1, 25799, Note_on_c, 9, 42, 0
1, 25830, Note_on_c, 9, 42, 24
1, 25830, Note_on_c, 9, 36, 57
1, 25919, Note_on_c, 9, 42, 0
1, 25919, Note_on_c, 9, 36, 0
1, 25920, Note_on_c, 9, 42, 69
1, 25920, Note_on_c, 9, 36, 81
1, 26159, Note_on_c, 9, 42, 0
1, 26160, Note_on_c, 9, 42, 52
1, 26279, Note_on_c, 9, 36, 0
1, 26279, Note_on_c, 9, 42, 0
1, 26300, Note_on_c, 9, 36, 74
1, 26320, Note_on_c, 9, 42, 24
1, 26339, Note_on_c, 9, 36, 0
1, 26339, Note_on_c, 9, 42, 0
1, 26400, Note_on_c, 9, 40, 120
1, 26414, Note_on_c, 9, 40, 0
1, 26415, Note_on_c, 9, 42, 85
1, 26639, Note_on_c, 9, 42, 0
1, 26640, Note_on_c, 9, 42, 53
1, 26759, Note_on_c, 9, 42, 0
1, 26790, Note_on_c, 9, 42, 29
1, 26790, Note_on_c, 9, 36, 53
1, 26879, Note_on_c, 9, 42, 0
1, 26879, Note_on_c, 9, 36, 0
1, 26880, Note_on_c, 9, 42, 63
1, 26880, Note_on_c, 9, 36, 96
1, 27119, Note_on_c, 9, 42, 0
1, 27120, Note_on_c, 9, 42, 52
1, 27239, Note_on_c, 9, 36, 0
1, 27239, Note_on_c, 9, 42, 0
1, 27270, Note_on_c, 9, 42, 24
1, 27270, Note_on_c, 9, 36, 69
1, 27329, Note_on_c, 9, 42, 0
1, 27345, Note_on_c, 9, 42, 91
1, 27359, Note_on_c, 9, 36, 0
1, 27360, Note_on_c, 9, 40, 112
1, 27599, Note_on_c, 9, 42, 0
1, 27599, Note_on_c, 9, 40, 0
1, 27600, Note_on_c, 9, 42, 53
1, 27719, Note_on_c, 9, 42, 0
1, 27750, Note_on_c, 9, 42, 24
1, 27750, Note_on_c, 9, 36, 57
1, 27839, Note_on_c, 9, 42, 0
1, 27839, Note_on_c, 9, 36, 0
1, 27840, Note_on_c, 9, 42, 69
1, 27840, Note_on_c, 9, 36, 81
1, 28079, Note_on_c, 9, 42, 0
1, 28080, Note_on_c, 9, 42, 52
1, 28199, Note_on_c, 9, 36, 0
1, 28199, Note_on_c, 9, 42, 0
1, 28230, Note_on_c, 9, 36, 74
1, 28240, Note_on_c, 9, 42, 24
1, 28259, Note_on_c, 9, 42, 0
1, 28319, Note_on_c, 9, 36, 0
1, 28320, Note_on_c, 9, 40, 120
1, 28334, Note_on_c, 9, 40, 0
1, 28335, Note_on_c, 9, 42, 85
1, 28559, Note_on_c, 9, 42, 0
1, 28560, Note_on_c, 9, 42, 53
1, 28679, Note_on_c, 9, 42, 0
1, 28710, Note_on_c, 9, 42, 29
1, 28710, Note_on_c, 9, 36, 53
1, 28799, Note_on_c, 9, 42, 0
1, 28799, Note_on_c, 9, 36, 0
1, 28800, Note_on_c, 9, 42, 63
1, 28800, Note_on_c, 9, 36, 96
1, 29039, Note_on_c, 9, 42, 0
1, 29040, Note_on_c, 9, 42, 52
1, 29159, Note_on_c, 9, 36, 0
1, 29159, Note_on_c, 9, 42, 0
1, 29190, Note_on_c, 9, 42, 24
1, 29190, Note_on_c, 9, 36, 69
1, 29249, Note_on_c, 9, 42, 0
1, 29265, Note_on_c, 9, 42, 91
1, 29279, Note_on_c, 9, 36, 0
1, 29280, Note_on_c, 9, 40, 112
1, 29519, Note_on_c, 9, 42, 0
1, 29519, Note_on_c, 9, 40, 0
1, 29520, Note_on_c, 9, 42, 53
1, 29639, Note_on_c, 9, 42, 0
1, 29670, Note_on_c, 9, 42, 24
1, 29670, Note_on_c, 9, 36, 57
1, 29759, Note_on_c, 9, 42, 0
1, 29759, Note_on_c, 9, 36, 0
1, 29760, Note_on_c, 9, 42, 69
1, 29760, Note_on_c, 9, 36, 81
1, 29999, Note_on_c, 9, 42, 0
1, 30000, Note_on_c, 9, 42, 52
1, 30119, Note_on_c, 9, 36, 0
1, 30119, Note_on_c, 9, 42, 0
1, 30140, Note_on_c, 9, 36, 74
1, 30160, Note_on_c, 9, 42, 24
1, 30179, Note_on_c, 9, 36, 0
1, 30179, Note_on_c, 9, 42, 0
1, 30240, Note_on_c, 9, 40, 120
1, 30254, Note_on_c, 9, 40, 0
1, 30255, Note_on_c, 9, 42, 85
1, 30479, Note_on_c, 9, 42, 0
1, 30480, Note_on_c, 9, 42, 53
1, 30599, Note_on_c, 9, 42, 0
1, 30630, Note_on_c, 9, 42, 29
1, 30630, Note_on_c, 9, 36, 53
1, 30719, Note_on_c, 9, 42, 0
1, 30719, Note_on_c, 9, 36, 0
1, 30720, Note_on_c, 9, 42, 63
1, 30720, Note_on_c, 9, 36, 96
1, 30959, Note_on_c, 9, 42, 0
1, 30960, Note_on_c, 9, 42, 52
1, 31079, Note_on_c, 9, 36, 0
1, 31079, Note_on_c, 9, 42, 0
1, 31100, Note_on_c, 9, 36, 69
1, 31110, Note_on_c, 9, 42, 24
1, 31139, Note_on_c, 9, 36, 0
1, 31169, Note_on_c, 9, 42, 0
1, 31185, Note_on_c, 9, 42, 91
1, 31200, Note_on_c, 9, 40, 112
1, 31439, Note_on_c, 9, 42, 0
1, 31439, Note_on_c, 9, 40, 0
1, 31440, Note_on_c, 9, 42, 53
1, 31559, Note_on_c, 9, 42, 0
1, 31590, Note_on_c, 9, 42, 24
1, 31590, Note_on_c, 9, 36, 57
1, 31679, Note_on_c, 9, 42, 0
1, 31679, Note_on_c, 9, 36, 0
1, 31680, Note_on_c, 9, 42, 69
1, 31680, Note_on_c, 9, 36, 81
1, 31919, Note_on_c, 9, 42, 0
1, 31920, Note_on_c, 9, 42, 52
1, 32039, Note_on_c, 9, 36, 0
1, 32039, Note_on_c, 9, 42, 0
1, 32070, Note_on_c, 9, 36, 74
1, 32080, Note_on_c, 9, 42, 24
1, 32099, Note_on_c, 9, 42, 0
1, 32159, Note_on_c, 9, 36, 0
1, 32160, Note_on_c, 9, 40, 120
1, 32174, Note_on_c, 9, 40, 0
1, 32175, Note_on_c, 9, 46, 102
1, 32399, Note_on_c, 9, 46, 0
1, 32480, Note_on_c, 9, 40, 77
1, 32519, Note_on_c, 9, 40, 0
1, 32550, Note_on_c, 9, 40, 56
1, 32639, Note_on_c, 9, 40, 0
1, 32640, Note_on_c, 9, 36, 103
1, 33119, Note_on_c, 9, 36, 0
1, 33120, Note_on_c, 9, 36, 95
1, 33599, Note_on_c, 9, 36, 0
1, 33600, Note_on_c, 9, 36, 81
1, 33839, Note_on_c, 9, 36, 0
1, 33840, Note_on_c, 9, 36, 95
1, 34079, Note_on_c, 9, 36, 0
1, 34080, Note_on_c, 9, 36, 92
1, 34319, Note_on_c, 9, 36, 0
1, 34320, Note_on_c, 9, 36, 106
1, 34559, Note_on_c, 9, 36, 0
1, 34560, Note_on_c, 9, 49, 97
1, 34560, Note_on_c, 9, 36, 96
1, 34799, Note_on_c, 9, 49, 0
1, 34800, Note_on_c, 9, 42, 70
1, 35024, Note_on_c, 9, 42, 0
1, 35025, Note_on_c, 9, 42, 95
1, 35039, Note_on_c, 9, 36, 0
1, 35040, Note_on_c, 9, 40, 112
1, 35279, Note_on_c, 9, 42, 0
1, 35279, Note_on_c, 9, 40, 0
1, 35280, Note_on_c, 9, 42, 67
1, 35430, Note_on_c, 9, 36, 66
1, 35519, Note_on_c, 9, 42, 0
1, 35519, Note_on_c, 9, 36, 0
1, 35520, Note_on_c, 9, 42, 85
1, 35520, Note_on_c, 9, 36, 94
1, 35759, Note_on_c, 9, 42, 0
1, 35760, Note_on_c, 9, 42, 54
1, 35999, Note_on_c, 9, 36, 0
1, 35999, Note_on_c, 9, 42, 0
1, 36000, Note_on_c, 9, 40, 120
1, 36000, Note_on_c, 9, 42, 103
1, 36239, Note_on_c, 9, 40, 0
1, 36239, Note_on_c, 9, 42, 0
1, 36240, Note_on_c, 9, 42, 63
1, 36359, Note_on_c, 9, 42, 0
1, 36390, Note_on_c, 9, 42, 70
1, 36390, Note_on_c, 9, 36, 68
1, 36479, Note_on_c, 9, 42, 0
1, 36479, Note_on_c, 9, 36, 0
1, 36480, Note_on_c, 9, 42, 75
1, 36480, Note_on_c, 9, 36, 98
1, 36719, Note_on_c, 9, 42, 0
1, 36720, Note_on_c, 9, 42, 52
1, 36959, Note_on_c, 9, 36, 0
1, 36959, Note_on_c, 9, 42, 0
1, 36960, Note_on_c, 9, 40, 112
1, 36974, Note_on_c, 9, 40, 0
1, 36975, Note_on_c, 9, 42, 97
1, 37199, Note_on_c, 9, 42, 0
1, 37200, Note_on_c, 9, 42, 63
1, 37350, Note_on_c, 9, 36, 65
1, 37439, Note_on_c, 9, 42, 0
1, 37439, Note_on_c, 9, 36, 0
1, 37440, Note_on_c, 9, 42, 75
1, 37440, Note_on_c, 9, 36, 98
1, 37679, Note_on_c, 9, 42, 0
1, 37680, Note_on_c, 9, 42, 55
1, 37904, Note_on_c, 9, 42, 0
1, 37905, Note_on_c, 9, 42, 97
1, 37919, Note_on_c, 9, 36, 0
1, 37920, Note_on_c, 9, 40, 120
1, 38159, Note_on_c, 9, 42, 0
1, 38159, Note_on_c, 9, 40, 0
1, 38160, Note_on_c, 9, 42, 67
1, 38279, Note_on_c, 9, 42, 0
1, 38310, Note_on_c, 9, 42, 45
1, 38310, Note_on_c, 9, 36, 60
1, 38399, Note_on_c, 9, 42, 0
1, 38399, Note_on_c, 9, 36, 0
1, 38400, Note_on_c, 9, 42, 74
1, 38400, Note_on_c, 9, 36, 96
1, 38639, Note_on_c, 9, 42, 0
1, 38640, Note_on_c, 9, 42, 56
1, 38864, Note_on_c, 9, 42, 0
1, 38865, Note_on_c, 9, 42, 100
1, 38879, Note_on_c, 9, 36, 0
1, 38880, Note_on_c, 9, 40, 112
1, 39119, Note_on_c, 9, 42, 0
1, 39119, Note_on_c, 9, 40, 0
1, 39120, Note_on_c, 9, 42, 50
1, 39270, Note_on_c, 9, 36, 66
1, 39359, Note_on_c, 9, 42, 0
1, 39359, Note_on_c, 9, 36, 0
1, 39360, Note_on_c, 9, 42, 77
1, 39360, Note_on_c, 9, 36, 94
1, 39599, Note_on_c, 9, 42, 0
1, 39600, Note_on_c, 9, 42, 52
1, 39824, Note_on_c, 9, 42, 0
1, 39825, Note_on_c, 9, 42, 103
1, 39839, Note_on_c, 9, 36, 0
1, 39840, Note_on_c, 9, 40, 120
1, 40079, Note_on_c, 9, 42, 0
1, 40079, Note_on_c, 9, 40, 0
1, 40080, Note_on_c, 9, 42, 68
1, 40199, Note_on_c, 9, 42, 0
1, 40230, Note_on_c, 9, 42, 42
1, 40230, Note_on_c, 9, 36, 68
1, 40319, Note_on_c, 9, 42, 0
1, 40319, Note_on_c, 9, 36, 0
1, 40320, Note_on_c, 9, 42, 77
1, 40320, Note_on_c, 9, 36, 96
1, 40559, Note_on_c, 9, 42, 0
1, 40560, Note_on_c, 9, 42, 55
1, 40784, Note_on_c, 9, 42, 0
1, 40785, Note_on_c, 9, 42, 97
1, 40799, Note_on_c, 9, 36, 0
1, 40800, Note_on_c, 9, 40, 112
1, 41039, Note_on_c, 9, 42, 0
1, 41039, Note_on_c, 9, 40, 0
1, 41040, Note_on_c, 9, 42, 40
1, 41190, Note_on_c, 9, 36, 66
1, 41279, Note_on_c, 9, 42, 0
1, 41279, Note_on_c, 9, 36, 0
1, 41280, Note_on_c, 9, 42, 76
1, 41280, Note_on_c, 9, 36, 94
1, 41519, Note_on_c, 9, 42, 0
1, 41520, Note_on_c, 9, 42, 51
1, 41759, Note_on_c, 9, 36, 0
1, 41759, Note_on_c, 9, 42, 0
1, 41760, Note_on_c, 9, 40, 120
1, 41760, Note_on_c, 9, 42, 95
1, 41999, Note_on_c, 9, 40, 0
1, 41999, Note_on_c, 9, 42, 0
1, 42000, Note_on_c, 9, 42, 57
1, 42119, Note_on_c, 9, 42, 0
1, 42150, Note_on_c, 9, 42, 68
1, 42150, Note_on_c, 9, 36, 68
1, 42239, Note_on_c, 9, 42, 0
1, 42239, Note_on_c, 9, 36, 0
1, 42240, Note_on_c, 9, 42, 76
1, 42240, Note_on_c, 9, 36, 96
1, 42479, Note_on_c, 9, 42, 0
1, 42480, Note_on_c, 9, 42, 54
1, 42719, Note_on_c, 9, 36, 0
1, 42719, Note_on_c, 9, 42, 0
1, 42720, Note_on_c, 9, 40, 112
1, 42720, Note_on_c, 9, 42, 103
1, 42959, Note_on_c, 9, 40, 0
1, 42959, Note_on_c, 9, 42, 0
1, 42960, Note_on_c, 9, 42, 50
1, 43110, Note_on_c, 9, 36, 66
1, 43199, Note_on_c, 9, 42, 0
1, 43199, Note_on_c, 9, 36, 0
1, 43200, Note_on_c, 9, 42, 75
1, 43200, Note_on_c, 9, 36, 94
1, 43439, Note_on_c, 9, 42, 0
1, 43440, Note_on_c, 9, 42, 46
1, 43679, Note_on_c, 9, 36, 0
1, 43679, Note_on_c, 9, 42, 0
1, 43680, Note_on_c, 9, 40, 120
1, 43680, Note_on_c, 9, 42, 103
1, 43919, Note_on_c, 9, 40, 0
1, 43919, Note_on_c, 9, 42, 0
1, 43920, Note_on_c, 9, 42, 64
1, 44039, Note_on_c, 9, 42, 0
1, 44070, Note_on_c, 9, 42, 57
1, 44070, Note_on_c, 9, 36, 68
1, 44159, Note_on_c, 9, 42, 0
1, 44159, Note_on_c, 9, 36, 0
1, 44160, Note_on_c, 9, 42, 80
1, 44160, Note_on_c, 9, 36, 96
1, 44399, Note_on_c, 9, 42, 0
1, 44400, Note_on_c, 9, 42, 57
1, 44624, Note_on_c, 9, 42, 0
1, 44625, Note_on_c, 9, 42, 97
1, 44639, Note_on_c, 9, 36, 0
1, 44640, Note_on_c, 9, 40, 112
1, 44879, Note_on_c, 9, 42, 0
1, 44879, Note_on_c, 9, 40, 0
1, 44880, Note_on_c, 9, 42, 49
1, 45030, Note_on_c, 9, 36, 66
1, 45119, Note_on_c, 9, 42, 0
1, 45119, Note_on_c, 9, 36, 0
1, 45120, Note_on_c, 9, 42, 78
1, 45120, Note_on_c, 9, 36, 94
1, 45359, Note_on_c, 9, 42, 0
1, 45360, Note_on_c, 9, 42, 47
1, 45584, Note_on_c, 9, 42, 0
1, 45585, Note_on_c, 9, 42, 106
1, 45599, Note_on_c, 9, 36, 0
1, 45600, Note_on_c, 9, 40, 120
1, 45839, Note_on_c, 9, 42, 0
1, 45839, Note_on_c, 9, 40, 0
1, 45840, Note_on_c, 9, 42, 68
1, 45959, Note_on_c, 9, 42, 0
1, 45990, Note_on_c, 9, 42, 75
1, 45990, Note_on_c, 9, 36, 68
1, 46079, Note_on_c, 9, 42, 0
1, 46079, Note_on_c, 9, 36, 0
1, 46080, Note_on_c, 9, 42, 75
1, 46080, Note_on_c, 9, 36, 96
1, 46319, Note_on_c, 9, 42, 0
1, 46320, Note_on_c, 9, 42, 38
1, 46559, Note_on_c, 9, 36, 0
1, 46559, Note_on_c, 9, 42, 0
1, 46560, Note_on_c, 9, 40, 112
1, 46560, Note_on_c, 9, 42, 91
1, 46799, Note_on_c, 9, 40, 0
1, 46799, Note_on_c, 9, 42, 0
1, 46800, Note_on_c, 9, 42, 47
1, 46950, Note_on_c, 9, 36, 66
1, 47039, Note_on_c, 9, 42, 0
1, 47039, Note_on_c, 9, 36, 0
1, 47040, Note_on_c, 9, 42, 75
1, 47040, Note_on_c, 9, 36, 94
1, 47279, Note_on_c, 9, 42, 0
1, 47280, Note_on_c, 9, 42, 48
1, 47504, Note_on_c, 9, 42, 0
1, 47505, Note_on_c, 9, 42, 97
1, 47519, Note_on_c, 9, 36, 0
1, 47520, Note_on_c, 9, 40, 120
1, 47759, Note_on_c, 9, 42, 0
1, 47759, Note_on_c, 9, 40, 0
1, 47760, Note_on_c, 9, 42, 62
1, 47879, Note_on_c, 9, 42, 0
1, 47910, Note_on_c, 9, 42, 64
1, 47910, Note_on_c, 9, 36, 68
1, 47999, Note_on_c, 9, 42, 0
1, 47999, Note_on_c, 9, 36, 0
1, 48000, Note_on_c, 9, 42, 89
1, 48000, Note_on_c, 9, 36, 98
1, 48239, Note_on_c, 9, 42, 0
1, 48240, Note_on_c, 9, 42, 80
1, 48479, Note_on_c, 9, 36, 0
1, 48479, Note_on_c, 9, 42, 0
1, 48480, Note_on_c, 9, 40, 112
1, 48494, Note_on_c, 9, 40, 0
1, 48495, Note_on_c, 9, 46, 97
1, 48719, Note_on_c, 9, 46, 0
1, 48870, Note_on_c, 9, 36, 65
1, 48959, Note_on_c, 9, 36, 0
1, 48960, Note_on_c, 9, 46, 85
1, 48960, Note_on_c, 9, 36, 98
1, 49199, Note_on_c, 9, 46, 0
1, 49199, Note_on_c, 9, 36, 0
1, 49200, Note_on_c, 9, 46, 70
1, 49200, Note_on_c, 9, 36, 72
1, 49424, Note_on_c, 9, 46, 0
1, 49425, Note_on_c, 9, 46, 115
1, 49439, Note_on_c, 9, 36, 0
1, 49440, Note_on_c, 9, 40, 120
1, 49440, Note_on_c, 9, 36, 83
1, 49679, Note_on_c, 9, 46, 0
1, 49679, Note_on_c, 9, 40, 0
1, 49679, Note_on_c, 9, 36, 0
1, 49680, Note_on_c, 9, 46, 112
1, 49680, Note_on_c, 9, 36, 85
1, 49919, Note_on_c, 9, 46, 0
1, 49919, Note_on_c, 9, 36, 0
1, 49920, Note_on_c, 9, 49, 77
1, 49920, Note_on_c, 9, 36, 96
1, 50159, Note_on_c, 9, 49, 0
1, 50160, Note_on_c, 9, 42, 51
1, 50279, Note_on_c, 9, 36, 0
1, 50279, Note_on_c, 9, 42, 0
1, 50310, Note_on_c, 9, 42, 31
1, 50310, Note_on_c, 9, 36, 69
1, 50399, Note_on_c, 9, 42, 0
1, 50399, Note_on_c, 9, 36, 0
1, 50400, Note_on_c, 9, 40, 112
1, 50400, Note_on_c, 9, 36, 47
1, 50414, Note_on_c, 9, 40, 0
1, 50415, Note_on_c, 9, 42, 84
1, 50639, Note_on_c, 9, 42, 0
1, 50640, Note_on_c, 9, 42, 39
1, 50759, Note_on_c, 9, 36, 0
1, 50759, Note_on_c, 9, 42, 0
1, 50790, Note_on_c, 9, 42, 31
1, 50790, Note_on_c, 9, 36, 57
1, 50879, Note_on_c, 9, 42, 0
1, 50879, Note_on_c, 9, 36, 0
1, 50880, Note_on_c, 9, 42, 63
1, 50880, Note_on_c, 9, 36, 81
1, 51119, Note_on_c, 9, 42, 0
1, 51120, Note_on_c, 9, 42, 38
1, 51239, Note_on_c, 9, 36, 0
1, 51239, Note_on_c, 9, 42, 0
1, 51270, Note_on_c, 9, 42, 24
1, 51270, Note_on_c, 9, 36, 74
1, 51359, Note_on_c, 9, 42, 0
1, 51359, Note_on_c, 9, 36, 0
1, 51360, Note_on_c, 9, 40, 120
1, 51360, Note_on_c, 9, 42, 87
1, 51360, Note_on_c, 9, 36, 50
1, 51599, Note_on_c, 9, 40, 0
1, 51599, Note_on_c, 9, 42, 0
1, 51600, Note_on_c, 9, 42, 53
1, 51719, Note_on_c, 9, 36, 0
1, 51719, Note_on_c, 9, 42, 0
1, 51750, Note_on_c, 9, 42, 24
1, 51750, Note_on_c, 9, 36, 53
1, 51839, Note_on_c, 9, 42, 0
1, 51839, Note_on_c, 9, 36, 0
1, 51840, Note_on_c, 9, 42, 63
1, 51840, Note_on_c, 9, 36, 96
1, 52079, Note_on_c, 9, 42, 0
1, 52080, Note_on_c, 9, 42, 52
1, 52199, Note_on_c, 9, 36, 0
1, 52199, Note_on_c, 9, 42, 0
1, 52230, Note_on_c, 9, 42, 24
1, 52230, Note_on_c, 9, 36, 69
1, 52289, Note_on_c, 9, 42, 0
1, 52305, Note_on_c, 9, 42, 91
1, 52319, Note_on_c, 9, 36, 0
1, 52320, Note_on_c, 9, 40, 112
1, 52320, Note_on_c, 9, 36, 47
1, 52559, Note_on_c, 9, 42, 0
1, 52559, Note_on_c, 9, 40, 0
1, 52560, Note_on_c, 9, 42, 53
1, 52679, Note_on_c, 9, 36, 0
1, 52679, Note_on_c, 9, 42, 0
1, 52710, Note_on_c, 9, 42, 24
1, 52710, Note_on_c, 9, 36, 57
1, 52799, Note_on_c, 9, 42, 0
1, 52799, Note_on_c, 9, 36, 0
1, 52800, Note_on_c, 9, 42, 69
1, 52800, Note_on_c, 9, 36, 81
1, 53039, Note_on_c, 9, 42, 0
1, 53040, Note_on_c, 9, 42, 52
1, 53159, Note_on_c, 9, 36, 0
1, 53159, Note_on_c, 9, 42, 0
1, 53190, Note_on_c, 9, 36, 74
1, 53200, Note_on_c, 9, 42, 24
1, 53219, Note_on_c, 9, 42, 0
1, 53279, Note_on_c, 9, 36, 0
1, 53280, Note_on_c, 9, 40, 120
1, 53280, Note_on_c, 9, 36, 50
1, 53294, Note_on_c, 9, 40, 0
1, 53295, Note_on_c, 9, 42, 85
1, 53519, Note_on_c, 9, 42, 0
1, 53520, Note_on_c, 9, 42, 53
1, 53639, Note_on_c, 9, 36, 0
1, 53639, Note_on_c, 9, 42, 0
1, 53670, Note_on_c, 9, 42, 29
1, 53670, Note_on_c, 9, 36, 53
1, 53759, Note_on_c, 9, 42, 0
1, 53759, Note_on_c, 9, 36, 0
1, 53760, Note_on_c, 9, 42, 63
1, 53760, Note_on_c, 9, 36, 96
1, 53999, Note_on_c, 9, 42, 0
1, 54000, Note_on_c, 9, 42, 52
1, 54119, Note_on_c, 9, 36, 0
1, 54119, Note_on_c, 9, 42, 0
1, 54150, Note_on_c, 9, 42, 24
1, 54150, Note_on_c, 9, 36, 69
1, 54209, Note_on_c, 9, 42, 0
1, 54225, Note_on_c, 9, 42, 91
1, 54239, Note_on_c, 9, 36, 0
1, 54240, Note_on_c, 9, 40, 112
1, 54240, Note_on_c, 9, 36, 47
1, 54479, Note_on_c, 9, 42, 0
1, 54479, Note_on_c, 9, 40, 0
1, 54480, Note_on_c, 9, 42, 53
1, 54599, Note_on_c, 9, 36, 0
1, 54599, Note_on_c, 9, 42, 0
1, 54630, Note_on_c, 9, 42, 24
1, 54630, Note_on_c, 9, 36, 57
1, 54719, Note_on_c, 9, 42, 0
1, 54719, Note_on_c, 9, 36, 0
1, 54720, Note_on_c, 9, 42, 69
1, 54720, Note_on_c, 9, 36, 81
1, 54959, Note_on_c, 9, 42, 0
1, 54960, Note_on_c, 9, 42, 52
1, 55079, Note_on_c, 9, 36, 0
1, 55079, Note_on_c, 9, 42, 0
1, 55110, Note_on_c, 9, 36, 74
1, 55120, Note_on_c, 9, 42, 24
1, 55139, Note_on_c, 9, 42, 0
1, 55199, Note_on_c, 9, 36, 0
1, 55200, Note_on_c, 9, 40, 120
1, 55200, Note_on_c, 9, 36, 50
1, 55214, Note_on_c, 9, 40, 0
1, 55215, Note_on_c, 9, 42, 85
1, 55439, Note_on_c, 9, 42, 0
1, 55440, Note_on_c, 9, 42, 53
1, 55559, Note_on_c, 9, 36, 0
1, 55559, Note_on_c, 9, 42, 0
1, 55590, Note_on_c, 9, 42, 29
1, 55590, Note_on_c, 9, 36, 53
1, 55679, Note_on_c, 9, 42, 0
1, 55679, Note_on_c, 9, 36, 0
1, 55680, Note_on_c, 9, 42, 63
1, 55680, Note_on_c, 9, 36, 96
1, 55919, Note_on_c, 9, 42, 0
1, 55920, Note_on_c, 9, 42, 52
1, 56039, Note_on_c, 9, 36, 0
1, 56039, Note_on_c, 9, 42, 0
1, 56070, Note_on_c, 9, 42, 24
1, 56070, Note_on_c, 9, 36, 69
1, 56129, Note_on_c, 9, 42, 0
1, 56145, Note_on_c, 9, 42, 91
1, 56159, Note_on_c, 9, 36, 0
1, 56160, Note_on_c, 9, 40, 112
1, 56160, Note_on_c, 9, 36, 47
1, 56399, Note_on_c, 9, 42, 0
1, 56399, Note_on_c, 9, 40, 0
1, 56400, Note_on_c, 9, 42, 53
1, 56519, Note_on_c, 9, 36, 0
1, 56519, Note_on_c, 9, 42, 0
1, 56550, Note_on_c, 9, 42, 24
1, 56550, Note_on_c, 9, 36, 57
1, 56639, Note_on_c, 9, 42, 0
1, 56639, Note_on_c, 9, 36, 0
1, 56640, Note_on_c, 9, 42, 69
1, 56640, Note_on_c, 9, 36, 81
1, 56879, Note_on_c, 9, 42, 0
1, 56880, Note_on_c, 9, 42, 52
1, 56999, Note_on_c, 9, 36, 0
1, 56999, Note_on_c, 9, 42, 0
1, 57030, Note_on_c, 9, 36, 74
1, 57040, Note_on_c, 9, 42, 24
1, 57059, Note_on_c, 9, 42, 0
1, 57119, Note_on_c, 9, 36, 0
1, 57120, Note_on_c, 9, 40, 120
1, 57120, Note_on_c, 9, 36, 50
1, 57134, Note_on_c, 9, 40, 0
1, 57135, Note_on_c, 9, 42, 85
1, 57359, Note_on_c, 9, 42, 0
1, 57360, Note_on_c, 9, 42, 53
1, 57479, Note_on_c, 9, 36, 0
1, 57479, Note_on_c, 9, 42, 0
1, 57510, Note_on_c, 9, 42, 29
1, 57510, Note_on_c, 9, 36, 53
1, 57599, Note_on_c, 9, 42, 0
1, 57599, Note_on_c, 9, 36, 0
1, 57600, Note_on_c, 9, 42, 63
1, 57600, Note_on_c, 9, 36, 96
1, 57839, Note_on_c, 9, 42, 0
1, 57840, Note_on_c, 9, 42, 52
1, 57959, Note_on_c, 9, 36, 0
1, 57959, Note_on_c, 9, 42, 0
1, 57990, Note_on_c, 9, 42, 24
1, 57990, Note_on_c, 9, 36, 69
1, 58049, Note_on_c, 9, 42, 0
1, 58065, Note_on_c, 9, 42, 91
1, 58079, Note_on_c, 9, 36, 0
1, 58080, Note_on_c, 9, 40, 112
1, 58080, Note_on_c, 9, 36, 47
1, 58319, Note_on_c, 9, 42, 0
1, 58319, Note_on_c, 9, 40, 0
1, 58320, Note_on_c, 9, 42, 53
1, 58439, Note_on_c, 9, 36, 0
1, 58439, Note_on_c, 9, 42, 0
1, 58470, Note_on_c, 9, 42, 24
1, 58470, Note_on_c, 9, 36, 57
1, 58559, Note_on_c, 9, 42, 0
1, 58559, Note_on_c, 9, 36, 0
1, 58560, Note_on_c, 9, 42, 69
1, 58560, Note_on_c, 9, 36, 81
1, 58799, Note_on_c, 9, 42, 0
1, 58800, Note_on_c, 9, 42, 52
1, 58919, Note_on_c, 9, 36, 0
1, 58919, Note_on_c, 9, 42, 0
1, 58950, Note_on_c, 9, 36, 74
1, 58960, Note_on_c, 9, 42, 24
1, 58979, Note_on_c, 9, 42, 0
1, 59039, Note_on_c, 9, 36, 0
1, 59040, Note_on_c, 9, 40, 120
1, 59040, Note_on_c, 9, 36, 50
1, 59054, Note_on_c, 9, 40, 0
1, 59055, Note_on_c, 9, 42, 85
1, 59279, Note_on_c, 9, 42, 0
1, 59280, Note_on_c, 9, 42, 53
1, 59399, Note_on_c, 9, 36, 0
1, 59399, Note_on_c, 9, 42, 0
1, 59430, Note_on_c, 9, 42, 29
1, 59430, Note_on_c, 9, 36, 53
1, 59519, Note_on_c, 9, 42, 0
1, 59519, Note_on_c, 9, 36, 0
1, 59520, Note_on_c, 9, 42, 63
1, 59520, Note_on_c, 9, 36, 96
1, 59759, Note_on_c, 9, 42, 0
1, 59760, Note_on_c, 9, 42, 52
1, 59879, Note_on_c, 9, 36, 0
1, 59879, Note_on_c, 9, 42, 0
1, 59910, Note_on_c, 9, 42, 24
1, 59910, Note_on_c, 9, 36, 69
1, 59969, Note_on_c, 9, 42, 0
1, 59985, Note_on_c, 9, 42, 91
1, 59999, Note_on_c, 9, 36, 0
1, 60000, Note_on_c, 9, 40, 112
1, 60000, Note_on_c, 9, 36, 47
1, 60239, Note_on_c, 9, 42, 0
1, 60239, Note_on_c, 9, 40, 0
1, 60240, Note_on_c, 9, 42, 53
1, 60359, Note_on_c, 9, 36, 0
1, 60359, Note_on_c, 9, 42, 0
1, 60390, Note_on_c, 9, 42, 24
1, 60390, Note_on_c, 9, 36, 57
1, 60479, Note_on_c, 9, 42, 0
1, 60479, Note_on_c, 9, 36, 0
1, 60480, Note_on_c, 9, 42, 69
1, 60480, Note_on_c, 9, 36, 81
1, 60719, Note_on_c, 9, 42, 0
1, 60720, Note_on_c, 9, 42, 52
1, 60839, Note_on_c, 9, 36, 0
1, 60839, Note_on_c, 9, 42, 0
1, 60870, Note_on_c, 9, 36, 74
1, 60880, Note_on_c, 9, 42, 24
1, 60899, Note_on_c, 9, 42, 0
1, 60959, Note_on_c, 9, 36, 0
1, 60960, Note_on_c, 9, 40, 120
1, 60960, Note_on_c, 9, 36, 50
1, 60974, Note_on_c, 9, 40, 0
1, 60975, Note_on_c, 9, 42, 85
1, 61199, Note_on_c, 9, 42, 0
1, 61200, Note_on_c, 9, 42, 53
1, 61319, Note_on_c, 9, 36, 0
1, 61319, Note_on_c, 9, 42, 0
1, 61350, Note_on_c, 9, 42, 29
1, 61350, Note_on_c, 9, 36, 53
1, 61439, Note_on_c, 9, 42, 0
1, 61439, Note_on_c, 9, 36, 0
1, 61440, Note_on_c, 9, 42, 63
1, 61440, Note_on_c, 9, 36, 96
1, 61679, Note_on_c, 9, 42, 0
1, 61680, Note_on_c, 9, 42, 52
1, 61799, Note_on_c, 9, 36, 0
1, 61799, Note_on_c, 9, 42, 0
1, 61830, Note_on_c, 9, 42, 24
1, 61830, Note_on_c, 9, 36, 69
1, 61889, Note_on_c, 9, 42, 0
1, 61905, Note_on_c, 9, 42, 91
1, 61919, Note_on_c, 9, 36, 0
1, 61920, Note_on_c, 9, 40, 112
1, 61920, Note_on_c, 9, 36, 47
1, 62159, Note_on_c, 9, 42, 0
1, 62159, Note_on_c, 9, 40, 0
1, 62160, Note_on_c, 9, 42, 53
1, 62279, Note_on_c, 9, 36, 0
1, 62279, Note_on_c, 9, 42, 0
1, 62310, Note_on_c, 9, 42, 24
1, 62310, Note_on_c, 9, 36, 57
1, 62399, Note_on_c, 9, 42, 0
1, 62399, Note_on_c, 9, 36, 0
1, 62400, Note_on_c, 9, 42, 69
1, 62400, Note_on_c, 9, 36, 81
1, 62639, Note_on_c, 9, 42, 0
1, 62640, Note_on_c, 9, 42, 52
1, 62759, Note_on_c, 9, 36, 0
1, 62759, Note_on_c, 9, 42, 0
1, 62790, Note_on_c, 9, 36, 74
1, 62800, Note_on_c, 9, 42, 24
1, 62819, Note_on_c, 9, 42, 0
1, 62879, Note_on_c, 9, 36, 0
1, 62880, Note_on_c, 9, 40, 120
1, 62880, Note_on_c, 9, 36, 50
1, 62894, Note_on_c, 9, 40, 0
1, 62895, Note_on_c, 9, 46, 102
1, 63119, Note_on_c, 9, 46, 0
1, 63195, Note_on_c, 9, 40, 109
1, 63239, Note_on_c, 9, 36, 0
1, 63239, Note_on_c, 9, 40, 0
1, 63270, Note_on_c, 9, 40, 88
1, 63270, Note_on_c, 9, 36, 53
1, 63359, Note_on_c, 9, 40, 0
1, 63359, Note_on_c, 9, 36, 0
1, 63360, Note_on_c, 9, 36, 98
1, 63839, Note_on_c, 9, 36, 0
1, 63840, Note_on_c, 9, 36, 75
1, 64319, Note_on_c, 9, 36, 0
1, 64320, Note_on_c, 9, 36, 84
1, 64559, Note_on_c, 9, 36, 0
1, 64560, Note_on_c, 9, 36, 72
1, 64799, Note_on_c, 9, 36, 0
1, 64800, Note_on_c, 9, 36, 83
1, 65039, Note_on_c, 9, 36, 0
1, 65040, Note_on_c, 9, 36, 85
1, 65279, Note_on_c, 9, 36, 0
1, 65280, Note_on_c, 9, 49, 97
1, 65280, Note_on_c, 9, 36, 96
1, 65519, Note_on_c, 9, 49, 0
1, 65520, Note_on_c, 9, 42, 70
1, 65744, Note_on_c, 9, 42, 0
1, 65745, Note_on_c, 9, 42, 95
1, 65759, Note_on_c, 9, 36, 0
1, 65760, Note_on_c, 9, 40, 112
1, 65999, Note_on_c, 9, 42, 0
1, 65999, Note_on_c, 9, 40, 0
1, 66000, Note_on_c, 9, 42, 67
1, 66150, Note_on_c, 9, 36, 66
1, 66239, Note_on_c, 9, 42, 0
1, 66239, Note_on_c, 9, 36, 0
1, 66240, Note_on_c, 9, 42, 85
1, 66240, Note_on_c, 9, 36, 94
1, 66479, Note_on_c, 9, 42, 0
1, 66480, Note_on_c, 9, 42, 54
1, 66719, Note_on_c, 9, 36, 0
1, 66719, Note_on_c, 9, 42, 0
1, 66720, Note_on_c, 9, 40, 120
1, 66720, Note_on_c, 9, 42, 103
1, 66959, Note_on_c, 9, 40, 0
1, 66959, Note_on_c, 9, 42, 0
1, 66960, Note_on_c, 9, 42, 63
1, 67079, Note_on_c, 9, 42, 0
1, 67110, Note_on_c, 9, 42, 70
1, 67110, Note_on_c, 9, 36, 68
1, 67199, Note_on_c, 9, 42, 0
1, 67199, Note_on_c, 9, 36, 0
1, 67200, Note_on_c, 9, 42, 75
1, 67200, Note_on_c, 9, 36, 98
1, 67439, Note_on_c, 9, 42, 0
1, 67440, Note_on_c, 9, 42, 52
1, 67679, Note_on_c, 9, 36, 0
1, 67679, Note_on_c, 9, 42, 0
1, 67680, Note_on_c, 9, 40, 112
1, 67694, Note_on_c, 9, 40, 0
1, 67695, Note_on_c, 9, 42, 97
1, 67919, Note_on_c, 9, 42, 0
1, 67920, Note_on_c, 9, 42, 63
1, 68070, Note_on_c, 9, 36, 65
1, 68159, Note_on_c, 9, 42, 0
1, 68159, Note_on_c, 9, 36, 0
1, 68160, Note_on_c, 9, 42, 75
1, 68160, Note_on_c, 9, 36, 98
1, 68399, Note_on_c, 9, 42, 0
1, 68400, Note_on_c, 9, 42, 55
1, 68624, Note_on_c, 9, 42, 0
1, 68625, Note_on_c, 9, 42, 97
1, 68639, Note_on_c, 9, 36, 0
1, 68640, Note_on_c, 9, 40, 120
1, 68879, Note_on_c, 9, 42, 0
1, 68879, Note_on_c, 9, 40, 0
1, 68880, Note_on_c, 9, 42, 67
1, 68999, Note_on_c, 9, 42, 0
1, 69030, Note_on_c, 9, 42, 45
1, 69030, Note_on_c, 9, 36, 60
1, 69119, Note_on_c, 9, 42, 0
1, 69119, Note_on_c, 9, 36, 0
1, 69120, Note_on_c, 9, 42, 74
1, 69120, Note_on_c, 9, 36, 96
1, 69359, Note_on_c, 9, 42, 0
1, 69360, Note_on_c, 9, 42, 56
1, 69584, Note_on_c, 9, 42, 0
1, 69585, Note_on_c, 9, 42, 100
1, 69599, Note_on_c, 9, 36, 0
1, 69600, Note_on_c, 9, 40, 112
1, 69839, Note_on_c, 9, 42, 0
1, 69839, Note_on_c, 9, 40, 0
1, 69840, Note_on_c, 9, 42, 50
1, 69990, Note_on_c, 9, 36, 66
1, 70079, Note_on_c, 9, 42, 0
1, 70079, Note_on_c, 9, 36, 0
1, 70080, Note_on_c, 9, 42, 77
1, 70080, Note_on_c, 9, 36, 94
1, 70319, Note_on_c, 9, 42, 0
1, 70320, Note_on_c, 9, 42, 52
1, 70544, Note_on_c, 9, 42, 0
1, 70545, Note_on_c, 9, 42, 103
1, 70559, Note_on_c, 9, 36, 0
1, 70560, Note_on_c, 9, 40, 120
1, 70799, Note_on_c, 9, 42, 0
1, 70799, Note_on_c, 9, 40, 0
1, 70800, Note_on_c, 9, 42, 68
1, 70919, Note_on_c, 9, 42, 0
1, 70950, Note_on_c, 9, 42, 42
1, 70950, Note_on_c, 9, 36, 68
1, 71039, Note_on_c, 9, 42, 0
1, 71039, Note_on_c, 9, 36, 0
1, 71040, Note_on_c, 9, 42, 75
1, 71040, Note_on_c, 9, 36, 96
1, 71279, Note_on_c, 9, 42, 0
1, 71280, Note_on_c, 9, 42, 80
1, 71519, Note_on_c, 9, 36, 0
1, 71519, Note_on_c, 9, 42, 0
1, 71520, Note_on_c, 9, 40, 112
1, 71534, Note_on_c, 9, 40, 0
1, 71535, Note_on_c, 9, 42, 95
1, 71759, Note_on_c, 9, 42, 0
1, 71760, Note_on_c, 9, 42, 59
1, 71879, Note_on_c, 9, 42, 0
1, 71900, Note_on_c, 9, 40, 127
1, 71910, Note_on_c, 9, 36, 66
1, 71939, Note_on_c, 9, 40, 0
1, 71999, Note_on_c, 9, 36, 0
1, 72000, Note_on_c, 9, 40, 107
1, 72000, Note_on_c, 9, 42, 93
1, 72119, Note_on_c, 9, 40, 0
1, 72119, Note_on_c, 9, 42, 0
1, 72120, Note_on_c, 9, 46, 119
1, 72120, Note_on_c, 9, 36, 111
1, 72239, Note_on_c, 9, 46, 0
1, 72240, Note_on_c, 9, 42, 64
1, 72359, Note_on_c, 9, 42, 0
1, 72380, Note_on_c, 9, 40, 127
1, 72419, Note_on_c, 9, 40, 0
1, 72479, Note_on_c, 9, 36, 0
1, 72480, Note_on_c, 9, 40, 120
1, 72480, Note_on_c, 9, 42, 97
1, 72599, Note_on_c, 9, 40, 0
1, 72599, Note_on_c, 9, 42, 0
1, 72600, Note_on_c, 9, 46, 122
1, 72600, Note_on_c, 9, 36, 109
1, 72719, Note_on_c, 9, 46, 0
1, 72720, Note_on_c, 9, 42, 56
1, 72839, Note_on_c, 9, 42, 0
1, 72860, Note_on_c, 9, 40, 80
1, 72899, Note_on_c, 9, 40, 0
1, 72959, Note_on_c, 9, 36, 0
1, 72960, Note_on_c, 9, 49, 76
1, 72960, Note_on_c, 9, 36, 96
1, 73199, Note_on_c, 9, 49, 0
1, 73200, Note_on_c, 9, 42, 80
1, 73439, Note_on_c, 9, 36, 0
1, 73439, Note_on_c, 9, 42, 0
1, 73440, Note_on_c, 9, 40, 112
1, 73454, Note_on_c, 9, 40, 0
1, 73455, Note_on_c, 9, 42, 95
1, 73679, Note_on_c, 9, 42, 0
1, 73680, Note_on_c, 9, 42, 59
1, 73820, Note_on_c, 9, 36, 66
1, 73859, Note_on_c, 9, 36, 0
1, 73919, Note_on_c, 9, 42, 0
1, 73920, Note_on_c, 9, 42, 76
1, 73920, Note_on_c, 9, 36, 94
1, 74159, Note_on_c, 9, 42, 0
1, 74160, Note_on_c, 9, 42, 64
1, 74399, Note_on_c, 9, 36, 0
1, 74399, Note_on_c, 9, 42, 0
1, 74400, Note_on_c, 9, 40, 120
1, 74400, Note_on_c, 9, 42, 97
1, 74639, Note_on_c, 9, 40, 0
1, 74639, Note_on_c, 9, 42, 0
1, 74640, Note_on_c, 9, 42, 56
1, 74759, Note_on_c, 9, 42, 0
1, 74790, Note_on_c, 9, 42, 46
1, 74790, Note_on_c, 9, 36, 68
1, 74879, Note_on_c, 9, 42, 0
1, 74879, Note_on_c, 9, 36, 0
1, 74880, Note_on_c, 9, 42, 79
1, 74880, Note_on_c, 9, 36, 96
1, 75119, Note_on_c, 9, 42, 0
1, 75120, Note_on_c, 9, 42, 80
1, 75359, Note_on_c, 9, 36, 0
1, 75359, Note_on_c, 9, 42, 0
1, 75360, Note_on_c, 9, 40, 112
1, 75374, Note_on_c, 9, 40, 0
1, 75375, Note_on_c, 9, 42, 95
1, 75599, Note_on_c, 9, 42, 0
1, 75600, Note_on_c, 9, 42, 59
1, 75750, Note_on_c, 9, 36, 66
1, 75839, Note_on_c, 9, 42, 0
1, 75839, Note_on_c, 9, 36, 0
1, 75840, Note_on_c, 9, 42, 77
1, 75840, Note_on_c, 9, 36, 94
1, 76079, Note_on_c, 9, 42, 0
1, 76080, Note_on_c, 9, 42, 64
1, 76319, Note_on_c, 9, 36, 0
1, 76319, Note_on_c, 9, 42, 0
1, 76320, Note_on_c, 9, 40, 120
1, 76320, Note_on_c, 9, 42, 97
1, 76559, Note_on_c, 9, 40, 0
1, 76559, Note_on_c, 9, 42, 0
1, 76560, Note_on_c, 9, 42, 56
1, 76679, Note_on_c, 9, 42, 0
1, 76710, Note_on_c, 9, 42, 46
1, 76710, Note_on_c, 9, 36, 68
1, 76799, Note_on_c, 9, 42, 0
1, 76799, Note_on_c, 9, 36, 0
1, 76800, Note_on_c, 9, 42, 77
1, 76800, Note_on_c, 9, 36, 96
1, 77039, Note_on_c, 9, 42, 0
1, 77040, Note_on_c, 9, 42, 80
1, 77279, Note_on_c, 9, 36, 0
1, 77279, Note_on_c, 9, 42, 0
1, 77280, Note_on_c, 9, 40, 112
1, 77294, Note_on_c, 9, 40, 0
1, 77295, Note_on_c, 9, 42, 95
1, 77519, Note_on_c, 9, 42, 0
1, 77520, Note_on_c, 9, 42, 59
1, 77670, Note_on_c, 9, 36, 66
1, 77759, Note_on_c, 9, 42, 0
1, 77759, Note_on_c, 9, 36, 0
1, 77760, Note_on_c, 9, 42, 77
1, 77760, Note_on_c, 9, 36, 94
1, 77999, Note_on_c, 9, 42, 0
1, 78000, Note_on_c, 9, 42, 64
1, 78239, Note_on_c, 9, 36, 0
1, 78239, Note_on_c, 9, 42, 0
1, 78240, Note_on_c, 9, 40, 120
1, 78240, Note_on_c, 9, 42, 97
1, 78479, Note_on_c, 9, 40, 0
1, 78479, Note_on_c, 9, 42, 0
1, 78480, Note_on_c, 9, 42, 56
1, 78599, Note_on_c, 9, 42, 0
1, 78630, Note_on_c, 9, 42, 46
1, 78630, Note_on_c, 9, 36, 68
1, 78719, Note_on_c, 9, 42, 0
1, 78719, Note_on_c, 9, 36, 0
1, 78720, Note_on_c, 9, 42, 77
1, 78720, Note_on_c, 9, 36, 98
1, 78959, Note_on_c, 9, 42, 0
1, 78960, Note_on_c, 9, 42, 80
1, 79199, Note_on_c, 9, 36, 0
1, 79199, Note_on_c, 9, 42, 0
1, 79200, Note_on_c, 9, 40, 112
1, 79214, Note_on_c, 9, 40, 0
1, 79215, Note_on_c, 9, 46, 107
1, 79439, Note_on_c, 9, 46, 0
1, 79590, Note_on_c, 9, 36, 65
1, 79679, Note_on_c, 9, 36, 0
1, 79680, Note_on_c, 9, 46, 76
1, 79680, Note_on_c, 9, 36, 98
1, 79919, Note_on_c, 9, 46, 0
1, 79919, Note_on_c, 9, 36, 0
1, 79920, Note_on_c, 9, 46, 92
1, 79920, Note_on_c, 9, 36, 72
1, 80159, Note_on_c, 9, 46, 0
1, 80159, Note_on_c, 9, 36, 0
1, 80160, Note_on_c, 9, 46, 111
1, 80160, Note_on_c, 9, 36, 83
1, 80399, Note_on_c, 9, 46, 0
1, 80399, Note_on_c, 9, 36, 0
1, 80400, Note_on_c, 9, 40, 120
1, 80400, Note_on_c, 9, 36, 85
1, 80414, Note_on_c, 9, 40, 0
1, 80415, Note_on_c, 9, 46, 118
1, 80639, Note_on_c, 9, 36, 0
1, 80639, Note_on_c, 9, 46, 0
1, 80640, Note_on_c, 9, 49, 77
1, 80640, Note_on_c, 9, 36, 96
1, 80879, Note_on_c, 9, 49, 0
1, 80880, Note_on_c, 9, 42, 51
1, 80999, Note_on_c, 9, 36, 0
1, 80999, Note_on_c, 9, 42, 0
1, 81030, Note_on_c, 9, 42, 31
1, 81030, Note_on_c, 9, 36, 69
1, 81119, Note_on_c, 9, 42, 0
1, 81119, Note_on_c, 9, 36, 0
1, 81120, Note_on_c, 9, 40, 112
1, 81120, Note_on_c, 9, 36, 47
1, 81134, Note_on_c, 9, 40, 0
1, 81135, Note_on_c, 9, 42, 84
1, 81359, Note_on_c, 9, 42, 0
1, 81360, Note_on_c, 9, 42, 39
1, 81479, Note_on_c, 9, 36, 0
1, 81479, Note_on_c, 9, 42, 0
1, 81510, Note_on_c, 9, 42, 31
1, 81510, Note_on_c, 9, 36, 57
1, 81599, Note_on_c, 9, 42, 0
1, 81599, Note_on_c, 9, 36, 0
1, 81600, Note_on_c, 9, 42, 63
1, 81600, Note_on_c, 9, 36, 81
1, 81839, Note_on_c, 9, 42, 0
1, 81840, Note_on_c, 9, 42, 38
1, 81959, Note_on_c, 9, 36, 0
1, 81959, Note_on_c, 9, 42, 0
1, 81990, Note_on_c, 9, 42, 24
1, 81990, Note_on_c, 9, 36, 74
1, 82079, Note_on_c, 9, 42, 0
1, 82079, Note_on_c, 9, 36, 0
1, 82080, Note_on_c, 9, 40, 120
1, 82080, Note_on_c, 9, 42, 87
1, 82080, Note_on_c, 9, 36, 50
1, 82319, Note_on_c, 9, 40, 0
1, 82319, Note_on_c, 9, 42, 0
1, 82320, Note_on_c, 9, 42, 53
1, 82439, Note_on_c, 9, 36, 0
1, 82439, Note_on_c, 9, 42, 0
1, 82470, Note_on_c, 9, 42, 24
1, 82470, Note_on_c, 9, 36, 53
1, 82559, Note_on_c, 9, 42, 0
1, 82559, Note_on_c, 9, 36, 0
1, 82560, Note_on_c, 9, 42, 63
1, 82560, Note_on_c, 9, 36, 96
1, 82799, Note_on_c, 9, 42, 0
1, 82800, Note_on_c, 9, 42, 52
1, 82919, Note_on_c, 9, 36, 0
1, 82919, Note_on_c, 9, 42, 0
1, 82950, Note_on_c, 9, 42, 24
1, 82950, Note_on_c, 9, 36, 69
1, 83009, Note_on_c, 9, 42, 0
1, 83025, Note_on_c, 9, 42, 91
1, 83039, Note_on_c, 9, 36, 0
1, 83040, Note_on_c, 9, 40, 112
1, 83040, Note_on_c, 9, 36, 47
1, 83279, Note_on_c, 9, 42, 0
1, 83279, Note_on_c, 9, 40, 0
1, 83280, Note_on_c, 9, 42, 53
1, 83399, Note_on_c, 9, 36, 0
1, 83399, Note_on_c, 9, 42, 0
1, 83430, Note_on_c, 9, 42, 24
1, 83430, Note_on_c, 9, 36, 57
1, 83519, Note_on_c, 9, 42, 0
1, 83519, Note_on_c, 9, 36, 0
1, 83520, Note_on_c, 9, 42, 69
1, 83520, Note_on_c, 9, 36, 81
1, 83759, Note_on_c, 9, 42, 0
1, 83760, Note_on_c, 9, 42, 52
1, 83879, Note_on_c, 9, 36, 0
1, 83879, Note_on_c, 9, 42, 0
1, 83910, Note_on_c, 9, 36, 74
1, 83920, Note_on_c, 9, 42, 24
1, 83939, Note_on_c, 9, 42, 0
1, 83999, Note_on_c, 9, 36, 0
1, 84000, Note_on_c, 9, 40, 120
1, 84000, Note_on_c, 9, 36, 50
1, 84014, Note_on_c, 9, 40, 0
1, 84015, Note_on_c, 9, 42, 85
1, 84239, Note_on_c, 9, 42, 0
1, 84240, Note_on_c, 9, 42, 53
1, 84359, Note_on_c, 9, 36, 0
1, 84359, Note_on_c, 9, 42, 0
1, 84390, Note_on_c, 9, 42, 29
1, 84390, Note_on_c, 9, 36, 53
1, 84479, Note_on_c, 9, 42, 0
1, 84479, Note_on_c, 9, 36, 0
1, 84480, Note_on_c, 9, 42, 63
1, 84480, Note_on_c, 9, 36, 96
1, 84719, Note_on_c, 9, 42, 0
1, 84720, Note_on_c, 9, 42, 52
1, 84839, Note_on_c, 9, 36, 0
1, 84839, Note_on_c, 9, 42, 0
1, 84870, Note_on_c, 9, 42, 24
1, 84870, Note_on_c, 9, 36, 69
1, 84929, Note_on_c, 9, 42, 0
1, 84945, Note_on_c, 9, 42, 91
1, 84959, Note_on_c, 9, 36, 0
1, 84960, Note_on_c, 9, 40, 112
1, 84960, Note_on_c, 9, 36, 47
1, 85199, Note_on_c, 9, 42, 0
1, 85199, Note_on_c, 9, 40, 0
1, 85200, Note_on_c, 9, 42, 53
1, 85319, Note_on_c, 9, 36, 0
1, 85319, Note_on_c, 9, 42, 0
1, 85350, Note_on_c, 9, 42, 24
1, 85350, Note_on_c, 9, 36, 57
1, 85439, Note_on_c, 9, 42, 0
1, 85439, Note_on_c, 9, 36, 0
1, 85440, Note_on_c, 9, 42, 69
1, 85440, Note_on_c, 9, 36, 81
1, 85679, Note_on_c, 9, 42, 0
1, 85680, Note_on_c, 9, 42, 52
1, 85799, Note_on_c, 9, 36, 0
1, 85799, Note_on_c, 9, 42, 0
1, 85830, Note_on_c, 9, 36, 74
1, 85840, Note_on_c, 9, 42, 24
1, 85859, Note_on_c, 9, 42, 0
1, 85919, Note_on_c, 9, 36, 0
1, 85920, Note_on_c, 9, 40, 120
1, 85920, Note_on_c, 9, 36, 50
1, 85934, Note_on_c, 9, 40, 0
1, 85935, Note_on_c, 9, 42, 85
1, 86159, Note_on_c, 9, 42, 0
1, 86160, Note_on_c, 9, 42, 53
1, 86279, Note_on_c, 9, 36, 0
1, 86279, Note_on_c, 9, 42, 0
1, 86310, Note_on_c, 9, 42, 29
1, 86310, Note_on_c, 9, 36, 53
1, 86399, Note_on_c, 9, 42, 0
1, 86399, Note_on_c, 9, 36, 0
1, 86400, Note_on_c, 9, 42, 63
1, 86400, Note_on_c, 9, 36, 96
1, 86639, Note_on_c, 9, 42, 0
1, 86640, Note_on_c, 9, 42, 52
1, 86759, Note_on_c, 9, 36, 0
1, 86759, Note_on_c, 9, 42, 0
1, 86790, Note_on_c, 9, 42, 24
1, 86790, Note_on_c, 9, 36, 69
1, 86849, Note_on_c, 9, 42, 0
1, 86865, Note_on_c, 9, 42, 91
1, 86879, Note_on_c, 9, 36, 0
1, 86880, Note_on_c, 9, 40, 112
1, 86880, Note_on_c, 9, 36, 47
1, 87119, Note_on_c, 9, 42, 0
1, 87119, Note_on_c, 9, 40, 0
1, 87120, Note_on_c, 9, 42, 53
1, 87239, Note_on_c, 9, 36, 0
1, 87239, Note_on_c, 9, 42, 0
1, 87270, Note_on_c, 9, 42, 24
1, 87270, Note_on_c, 9, 36, 57
1, 87359, Note_on_c, 9, 42, 0
1, 87359, Note_on_c, 9, 36, 0
1, 87360, Note_on_c, 9, 42, 69
1, 87360, Note_on_c, 9, 36, 81
1, 87599, Note_on_c, 9, 42, 0
1, 87600, Note_on_c, 9, 42, 52
1, 87719, Note_on_c, 9, 36, 0
1, 87719, Note_on_c, 9, 42, 0
1, 87750, Note_on_c, 9, 36, 74
1, 87760, Note_on_c, 9, 42, 24
1, 87779, Note_on_c, 9, 42, 0
1, 87839, Note_on_c, 9, 36, 0
1, 87840, Note_on_c, 9, 40, 120
1, 87840, Note_on_c, 9, 36, 50
1, 87854, Note_on_c, 9, 40, 0
1, 87855, Note_on_c, 9, 42, 85
1, 88079, Note_on_c, 9, 42, 0
1, 88080, Note_on_c, 9, 42, 53
1, 88199, Note_on_c, 9, 36, 0
1, 88199, Note_on_c, 9, 42, 0
1, 88230, Note_on_c, 9, 42, 29
1, 88230, Note_on_c, 9, 36, 53
1, 88319, Note_on_c, 9, 42, 0
1, 88319, Note_on_c, 9, 36, 0
1, 88320, Note_on_c, 9, 42, 63
1, 88320, Note_on_c, 9, 36, 96
1, 88559, Note_on_c, 9, 42, 0
1, 88560, Note_on_c, 9, 42, 52
1, 88679, Note_on_c, 9, 36, 0
1, 88679, Note_on_c, 9, 42, 0
1, 88710, Note_on_c, 9, 42, 24
1, 88710, Note_on_c, 9, 36, 69
1, 88769, Note_on_c, 9, 42, 0
1, 88785, Note_on_c, 9, 42, 91
1, 88799, Note_on_c, 9, 36, 0
1, 88800, Note_on_c, 9, 40, 112
1, 88800, Note_on_c, 9, 36, 47
1, 89039, Note_on_c, 9, 42, 0
1, 89039, Note_on_c, 9, 40, 0
1, 89040, Note_on_c, 9, 42, 53
1, 89159, Note_on_c, 9, 36, 0
1, 89159, Note_on_c, 9, 42, 0
1, 89190, Note_on_c, 9, 42, 24
1, 89190, Note_on_c, 9, 36, 57
1, 89279, Note_on_c, 9, 42, 0
1, 89279, Note_on_c, 9, 36, 0
1, 89280, Note_on_c, 9, 42, 69
1, 89280, Note_on_c, 9, 36, 81
1, 89519, Note_on_c, 9, 42, 0
1, 89520, Note_on_c, 9, 42, 52
1, 89639, Note_on_c, 9, 36, 0
1, 89639, Note_on_c, 9, 42, 0
1, 89670, Note_on_c, 9, 36, 74
1, 89680, Note_on_c, 9, 42, 24
1, 89699, Note_on_c, 9, 42, 0
1, 89759, Note_on_c, 9, 36, 0
1, 89760, Note_on_c, 9, 40, 120
1, 89760, Note_on_c, 9, 36, 50
1, 89774, Note_on_c, 9, 40, 0
1, 89775, Note_on_c, 9, 42, 85
1, 89999, Note_on_c, 9, 42, 0
1, 90000, Note_on_c, 9, 42, 53
1, 90119, Note_on_c, 9, 36, 0
1, 90119, Note_on_c, 9, 42, 0
1, 90150, Note_on_c, 9, 42, 29
1, 90150, Note_on_c, 9, 36, 53
1, 90239, Note_on_c, 9, 42, 0
1, 90239, Note_on_c, 9, 36, 0
1, 90240, Note_on_c, 9, 42, 63
1, 90240, Note_on_c, 9, 36, 96
1, 90479, Note_on_c, 9, 42, 0
1, 90480, Note_on_c, 9, 42, 52
1, 90599, Note_on_c, 9, 36, 0
1, 90599, Note_on_c, 9, 42, 0
1, 90630, Note_on_c, 9, 42, 24
1, 90630, Note_on_c, 9, 36, 69
1, 90689, Note_on_c, 9, 42, 0
1, 90705, Note_on_c, 9, 42, 91
1, 90719, Note_on_c, 9, 36, 0
1, 90720, Note_on_c, 9, 40, 112
1, 90720, Note_on_c, 9, 36, 47
1, 90959, Note_on_c, 9, 42, 0
1, 90959, Note_on_c, 9, 40, 0
1, 90960, Note_on_c, 9, 42, 53
1, 91079, Note_on_c, 9, 36, 0
1, 91079, Note_on_c, 9, 42, 0
1, 91110, Note_on_c, 9, 42, 24
1, 91110, Note_on_c, 9, 36, 57
1, 91199, Note_on_c, 9, 42, 0
1, 91199, Note_on_c, 9, 36, 0
1, 91200, Note_on_c, 9, 42, 69
1, 91200, Note_on_c, 9, 36, 81
1, 91439, Note_on_c, 9, 42, 0
1, 91440, Note_on_c, 9, 42, 52
1, 91559, Note_on_c, 9, 36, 0
1, 91559, Note_on_c, 9, 42, 0
1, 91590, Note_on_c, 9, 36, 74
1, 91600, Note_on_c, 9, 42, 24
1, 91619, Note_on_c, 9, 42, 0
1, 91679, Note_on_c, 9, 36, 0
1, 91680, Note_on_c, 9, 40, 120
1, 91680, Note_on_c, 9, 36, 50
1, 91694, Note_on_c, 9, 40, 0
1, 91695, Note_on_c, 9, 42, 85
1, 91919, Note_on_c, 9, 42, 0
1, 91920, Note_on_c, 9, 42, 53
1, 92039, Note_on_c, 9, 36, 0
1, 92039, Note_on_c, 9, 42, 0
1, 92070, Note_on_c, 9, 42, 29
1, 92070, Note_on_c, 9, 36, 53
1, 92159, Note_on_c, 9, 42, 0
1, 92159, Note_on_c, 9, 36, 0
1, 92160, Note_on_c, 9, 42, 63
1, 92160, Note_on_c, 9, 36, 96
1, 92399, Note_on_c, 9, 42, 0
1, 92400, Note_on_c, 9, 42, 52
1, 92519, Note_on_c, 9, 36, 0
1, 92519, Note_on_c, 9, 42, 0
1, 92550, Note_on_c, 9, 42, 24
1, 92550, Note_on_c, 9, 36, 69
1, 92609, Note_on_c, 9, 42, 0
1, 92625, Note_on_c, 9, 42, 91
1, 92639, Note_on_c, 9, 36, 0
1, 92640, Note_on_c, 9, 40, 112
1, 92640, Note_on_c, 9, 36, 47
1, 92879, Note_on_c, 9, 42, 0
1, 92879, Note_on_c, 9, 40, 0
1, 92880, Note_on_c, 9, 42, 53
1, 92999, Note_on_c, 9, 36, 0
1, 92999, Note_on_c, 9, 42, 0
1, 93030, Note_on_c, 9, 42, 24
1, 93030, Note_on_c, 9, 36, 57
1, 93119, Note_on_c, 9, 42, 0
1, 93119, Note_on_c, 9, 36, 0
1, 93120, Note_on_c, 9, 42, 69
1, 93120, Note_on_c, 9, 36, 81
1, 93359, Note_on_c, 9, 42, 0
1, 93360, Note_on_c, 9, 42, 52
1, 93479, Note_on_c, 9, 36, 0
1, 93479, Note_on_c, 9, 42, 0
1, 93510, Note_on_c, 9, 36, 74
1, 93520, Note_on_c, 9, 42, 24
1, 93539, Note_on_c, 9, 42, 0
1, 93599, Note_on_c, 9, 36, 0
1, 93600, Note_on_c, 9, 40, 120
1, 93600, Note_on_c, 9, 36, 50
1, 93614, Note_on_c, 9, 40, 0
1, 93615, Note_on_c, 9, 46, 102
1, 93839, Note_on_c, 9, 46, 0
1, 93915, Note_on_c, 9, 40, 82
1, 93959, Note_on_c, 9, 36, 0
1, 93959, Note_on_c, 9, 40, 0
1, 93990, Note_on_c, 9, 40, 58
1, 93990, Note_on_c, 9, 36, 53
1, 94079, Note_on_c, 9, 40, 0
1, 94079, Note_on_c, 9, 36, 0
1, 94080, Note_on_c, 9, 36, 98
1, 94559, Note_on_c, 9, 36, 0
1, 94560, Note_on_c, 9, 36, 75
1, 95039, Note_on_c, 9, 36, 0
1, 95040, Note_on_c, 9, 36, 84
1, 95279, Note_on_c, 9, 36, 0
1, 95280, Note_on_c, 9, 36, 72
1, 95519, Note_on_c, 9, 36, 0
1, 95520, Note_on_c, 9, 36, 83
1, 95759, Note_on_c, 9, 36, 0
1, 95760, Note_on_c, 9, 36, 85
1, 95999, Note_on_c, 9, 36, 0
1, 96000, Note_on_c, 9, 49, 89
1, 96000, Note_on_c, 9, 36, 96
1, 96239, Note_on_c, 9, 49, 0
1, 96240, Note_on_c, 9, 42, 80
1, 96359, Note_on_c, 9, 36, 0
1, 96390, Note_on_c, 9, 36, 56
1, 96479, Note_on_c, 9, 42, 0
1, 96479, Note_on_c, 9, 36, 0
1, 96480, Note_on_c, 9, 40, 112
1, 96480, Note_on_c, 9, 36, 52
1, 96494, Note_on_c, 9, 40, 0
1, 96495, Note_on_c, 9, 42, 95
1, 96719, Note_on_c, 9, 42, 0
1, 96720, Note_on_c, 9, 42, 59
1, 96839, Note_on_c, 9, 36, 0
1, 96870, Note_on_c, 9, 36, 66
1, 96959, Note_on_c, 9, 42, 0
1, 96959, Note_on_c, 9, 36, 0
1, 96960, Note_on_c, 9, 42, 93
1, 96960, Note_on_c, 9, 36, 94
1, 97199, Note_on_c, 9, 42, 0
1, 97200, Note_on_c, 9, 42, 64
1, 97319, Note_on_c, 9, 36, 0
1, 97350, Note_on_c, 9, 36, 66
1, 97439, Note_on_c, 9, 42, 0
1, 97439, Note_on_c, 9, 36, 0
1, 97440, Note_on_c, 9, 40, 120
1, 97440, Note_on_c, 9, 42, 97
1, 97440, Note_on_c, 9, 36, 55
1, 97679, Note_on_c, 9, 40, 0
1, 97679, Note_on_c, 9, 42, 0
1, 97680, Note_on_c, 9, 42, 56
1, 97799, Note_on_c, 9, 36, 0
1, 97799, Note_on_c, 9, 42, 0
1, 97830, Note_on_c, 9, 42, 46
1, 97830, Note_on_c, 9, 36, 68
1, 97919, Note_on_c, 9, 42, 0
1, 97919, Note_on_c, 9, 36, 0
1, 97920, Note_on_c, 9, 42, 89
1, 97920, Note_on_c, 9, 36, 96
1, 98159, Note_on_c, 9, 42, 0
1, 98160, Note_on_c, 9, 42, 80
1, 98279, Note_on_c, 9, 36, 0
1, 98310, Note_on_c, 9, 36, 56
1, 98399, Note_on_c, 9, 42, 0
1, 98399, Note_on_c, 9, 36, 0
1, 98400, Note_on_c, 9, 40, 112
1, 98400, Note_on_c, 9, 36, 52
1, 98414, Note_on_c, 9, 40, 0
1, 98415, Note_on_c, 9, 42, 95
1, 98639, Note_on_c, 9, 42, 0
1, 98640, Note_on_c, 9, 42, 59
1, 98759, Note_on_c, 9, 36, 0
1, 98790, Note_on_c, 9, 36, 66
1, 98879, Note_on_c, 9, 42, 0
1, 98879, Note_on_c, 9, 36, 0
1, 98880, Note_on_c, 9, 42, 93
1, 98880, Note_on_c, 9, 36, 94
1, 99119, Note_on_c, 9, 42, 0
1, 99120, Note_on_c, 9, 42, 64
1, 99239, Note_on_c, 9, 36, 0
1, 99270, Note_on_c, 9, 36, 66
1, 99359, Note_on_c, 9, 42, 0
1, 99359, Note_on_c, 9, 36, 0
1, 99360, Note_on_c, 9, 40, 120
1, 99360, Note_on_c, 9, 42, 97
1, 99360, Note_on_c, 9, 36, 55
1, 99599, Note_on_c, 9, 40, 0
1, 99599, Note_on_c, 9, 42, 0
1, 99600, Note_on_c, 9, 42, 56
1, 99719, Note_on_c, 9, 36, 0
1, 99719, Note_on_c, 9, 42, 0
1, 99750, Note_on_c, 9, 42, 46
1, 99750, Note_on_c, 9, 36, 68
1, 99839, Note_on_c, 9, 42, 0
1, 99839, Note_on_c, 9, 36, 0
1, 99840, Note_on_c, 9, 42, 89
1, 99840, Note_on_c, 9, 36, 96
1, 100079, Note_on_c, 9, 42, 0
1, 100080, Note_on_c, 9, 42, 80
1, 100199, Note_on_c, 9, 36, 0
1, 100230, Note_on_c, 9, 36, 56
1, 100319, Note_on_c, 9, 42, 0
1, 100319, Note_on_c, 9, 36, 0
1, 100320, Note_on_c, 9, 40, 112
1, 100320, Note_on_c, 9, 36, 52
1, 100334, Note_on_c, 9, 40, 0
1, 100335, Note_on_c, 9, 42, 95
1, 100559, Note_on_c, 9, 42, 0
1, 100560, Note_on_c, 9, 42, 59
1, 100679, Note_on_c, 9, 36, 0
1, 100710, Note_on_c, 9, 36, 66
1, 100799, Note_on_c, 9, 42, 0
1, 100799, Note_on_c, 9, 36, 0
1, 100800, Note_on_c, 9, 42, 93
1, 100800, Note_on_c, 9, 36, 94
1, 101039, Note_on_c, 9, 42, 0
1, 101040, Note_on_c, 9, 42, 64
1, 101159, Note_on_c, 9, 36, 0
1, 101190, Note_on_c, 9, 36, 66
1, 101279, Note_on_c, 9, 42, 0
1, 101279, Note_on_c, 9, 36, 0
1, 101280, Note_on_c, 9, 40, 120
1, 101280, Note_on_c, 9, 42, 97
1, 101280, Note_on_c, 9, 36, 55
1, 101519, Note_on_c, 9, 40, 0
1, 101519, Note_on_c, 9, 42, 0
1, 101520, Note_on_c, 9, 42, 56
1, 101639, Note_on_c, 9, 36, 0
1, 101639, Note_on_c, 9, 42, 0
1, 101670, Note_on_c, 9, 42, 46
1, 101670, Note_on_c, 9, 36, 68
1, 101759, Note_on_c, 9, 42, 0
1, 101759, Note_on_c, 9, 36, 0
1, 101760, Note_on_c, 9, 42, 89
1, 101760, Note_on_c, 9, 36, 96
1, 101999, Note_on_c, 9, 42, 0
1, 102000, Note_on_c, 9, 42, 80
1, 102119, Note_on_c, 9, 36, 0
1, 102150, Note_on_c, 9, 36, 56
1, 102239, Note_on_c, 9, 42, 0
1, 102239, Note_on_c, 9, 36, 0
1, 102240, Note_on_c, 9, 40, 112
1, 102240, Note_on_c, 9, 36, 52
1, 102254, Note_on_c, 9, 40, 0
1, 102255, Note_on_c, 9, 42, 95
1, 102479, Note_on_c, 9, 42, 0
1, 102480, Note_on_c, 9, 42, 59
1, 102599, Note_on_c, 9, 36, 0
1, 102630, Note_on_c, 9, 36, 66
1, 102719, Note_on_c, 9, 42, 0
1, 102719, Note_on_c, 9, 36, 0
1, 102720, Note_on_c, 9, 42, 93
1, 102720, Note_on_c, 9, 36, 94
1, 102959, Note_on_c, 9, 42, 0
1, 102960, Note_on_c, 9, 42, 64
1, 103079, Note_on_c, 9, 36, 0
1, 103110, Note_on_c, 9, 36, 66
1, 103199, Note_on_c, 9, 42, 0
1, 103199, Note_on_c, 9, 36, 0
1, 103200, Note_on_c, 9, 40, 120
1, 103200, Note_on_c, 9, 42, 97
1, 103200, Note_on_c, 9, 36, 55
1, 103439, Note_on_c, 9, 40, 0
1, 103439, Note_on_c, 9, 42, 0
1, 103440, Note_on_c, 9, 42, 56
1, 103559, Note_on_c, 9, 36, 0
1, 103559, Note_on_c, 9, 42, 0
1, 103590, Note_on_c, 9, 42, 46
1, 103590, Note_on_c, 9, 36, 68
1, 103679, Note_on_c, 9, 42, 0
1, 103679, Note_on_c, 9, 36, 0
1, 103680, Note_on_c, 9, 42, 89
1, 103680, Note_on_c, 9, 36, 96
1, 103919, Note_on_c, 9, 42, 0
1, 103920, Note_on_c, 9, 42, 80
1, 104039, Note_on_c, 9, 36, 0
1, 104070, Note_on_c, 9, 36, 56
1, 104159, Note_on_c, 9, 42, 0
1, 104159, Note_on_c, 9, 36, 0
1, 104160, Note_on_c, 9, 40, 112
1, 104160, Note_on_c, 9, 36, 52
1, 104174, Note_on_c, 9, 40, 0
1, 104175, Note_on_c, 9, 42, 95
1, 104399, Note_on_c, 9, 42, 0
1, 104400, Note_on_c, 9, 42, 59
1, 104519, Note_on_c, 9, 36, 0
1, 104550, Note_on_c, 9, 36, 66
1, 104639, Note_on_c, 9, 42, 0
1, 104639, Note_on_c, 9, 36, 0
1, 104640, Note_on_c, 9, 42, 93
1, 104640, Note_on_c, 9, 36, 94
1, 104879, Note_on_c, 9, 42, 0
1, 104880, Note_on_c, 9, 42, 64
1, 104999, Note_on_c, 9, 36, 0
1, 105030, Note_on_c, 9, 36, 66
1, 105119, Note_on_c, 9, 42, 0
1, 105119, Note_on_c, 9, 36, 0
1, 105120, Note_on_c, 9, 40, 120
1, 105120, Note_on_c, 9, 42, 97
1, 105120, Note_on_c, 9, 36, 55
1, 105359, Note_on_c, 9, 40, 0
1, 105359, Note_on_c, 9, 42, 0
1, 105360, Note_on_c, 9, 42, 56
1, 105479, Note_on_c, 9, 36, 0
1, 105479, Note_on_c, 9, 42, 0
1, 105510, Note_on_c, 9, 42, 46
1, 105510, Note_on_c, 9, 36, 68
1, 105599, Note_on_c, 9, 42, 0
1, 105599, Note_on_c, 9, 36, 0
1, 105600, Note_on_c, 9, 42, 89
1, 105600, Note_on_c, 9, 36, 96
1, 105839, Note_on_c, 9, 42, 0
1, 105840, Note_on_c, 9, 42, 80
1, 105959, Note_on_c, 9, 36, 0
1, 105990, Note_on_c, 9, 36, 56
1, 106079, Note_on_c, 9, 42, 0
1, 106079, Note_on_c, 9, 36, 0
1, 106080, Note_on_c, 9, 40, 112
1, 106080, Note_on_c, 9, 36, 52
1, 106094, Note_on_c, 9, 40, 0
1, 106095, Note_on_c, 9, 42, 95
1, 106319, Note_on_c, 9, 42, 0
1, 106320, Note_on_c, 9, 42, 59
1, 106439, Note_on_c, 9, 36, 0
1, 106470, Note_on_c, 9, 36, 66
1, 106559, Note_on_c, 9, 42, 0
1, 106559, Note_on_c, 9, 36, 0
1, 106560, Note_on_c, 9, 42, 93
1, 106560, Note_on_c, 9, 36, 94
1, 106799, Note_on_c, 9, 42, 0
1, 106800, Note_on_c, 9, 42, 64
1, 106919, Note_on_c, 9, 36, 0
1, 106950, Note_on_c, 9, 36, 66
1, 107039, Note_on_c, 9, 42, 0
1, 107039, Note_on_c, 9, 36, 0
1, 107040, Note_on_c, 9, 40, 120
1, 107040, Note_on_c, 9, 42, 97
1, 107040, Note_on_c, 9, 36, 55
1, 107279, Note_on_c, 9, 40, 0
1, 107279, Note_on_c, 9, 42, 0
1, 107280, Note_on_c, 9, 42, 56
1, 107399, Note_on_c, 9, 36, 0
1, 107399, Note_on_c, 9, 42, 0
1, 107430, Note_on_c, 9, 42, 46
1, 107430, Note_on_c, 9, 36, 68
1, 107519, Note_on_c, 9, 42, 0
1, 107519, Note_on_c, 9, 36, 0
1, 107520, Note_on_c, 9, 42, 89
1, 107520, Note_on_c, 9, 36, 96
1, 107759, Note_on_c, 9, 42, 0
1, 107760, Note_on_c, 9, 42, 80
1, 107879, Note_on_c, 9, 36, 0
1, 107910, Note_on_c, 9, 36, 56
1, 107999, Note_on_c, 9, 42, 0
1, 107999, Note_on_c, 9, 36, 0
1, 108000, Note_on_c, 9, 40, 112
1, 108000, Note_on_c, 9, 36, 52
1, 108014, Note_on_c, 9, 40, 0
1, 108015, Note_on_c, 9, 42, 95
1, 108239, Note_on_c, 9, 42, 0
1, 108240, Note_on_c, 9, 42, 59
1, 108359, Note_on_c, 9, 36, 0
1, 108390, Note_on_c, 9, 36, 66
1, 108479, Note_on_c, 9, 42, 0
1, 108479, Note_on_c, 9, 36, 0
1, 108480, Note_on_c, 9, 42, 93
1, 108480, Note_on_c, 9, 36, 94
1, 108719, Note_on_c, 9, 42, 0
1, 108720, Note_on_c, 9, 42, 64
1, 108839, Note_on_c, 9, 36, 0
1, 108870, Note_on_c, 9, 36, 66
1, 108959, Note_on_c, 9, 42, 0
1, 108959, Note_on_c, 9, 36, 0
1, 108960, Note_on_c, 9, 40, 120
1, 108960, Note_on_c, 9, 42, 97
1, 108960, Note_on_c, 9, 36, 55
1, 109199, Note_on_c, 9, 40, 0
1, 109199, Note_on_c, 9, 42, 0
1, 109200, Note_on_c, 9, 42, 56
1, 109319, Note_on_c, 9, 36, 0
1, 109319, Note_on_c, 9, 42, 0
1, 109350, Note_on_c, 9, 42, 46
1, 109350, Note_on_c, 9, 36, 68
1, 109439, Note_on_c, 9, 42, 0
1, 109439, Note_on_c, 9, 36, 0
1, 109440, Note_on_c, 9, 42, 89
1, 109440, Note_on_c, 9, 36, 96
1, 109679, Note_on_c, 9, 42, 0
1, 109680, Note_on_c, 9, 42, 80
1, 109799, Note_on_c, 9, 36, 0
1, 109830, Note_on_c, 9, 36, 56
1, 109919, Note_on_c, 9, 42, 0
1, 109919, Note_on_c, 9, 36, 0
1, 109920, Note_on_c, 9, 40, 112
1, 109920, Note_on_c, 9, 36, 52
1, 109934, Note_on_c, 9, 40, 0
1, 109935, Note_on_c, 9, 42, 95
1, 110159, Note_on_c, 9, 42, 0
1, 110160, Note_on_c, 9, 42, 59
1, 110279, Note_on_c, 9, 36, 0
1, 110310, Note_on_c, 9, 36, 66
1, 110399, Note_on_c, 9, 42, 0
1, 110399, Note_on_c, 9, 36, 0
1, 110400, Note_on_c, 9, 42, 93
1, 110400, Note_on_c, 9, 36, 94
1, 110639, Note_on_c, 9, 42, 0
1, 110640, Note_on_c, 9, 42, 64
1, 110759, Note_on_c, 9, 36, 0
1, 110790, Note_on_c, 9, 36, 66
1, 110879, Note_on_c, 9, 42, 0
1, 110879, Note_on_c, 9, 36, 0
1, 110880, Note_on_c, 9, 40, 120
1, 110880, Note_on_c, 9, 42, 97
1, 110880, Note_on_c, 9, 36, 55
1, 111119, Note_on_c, 9, 40, 0
1, 111119, Note_on_c, 9, 42, 0
1, 111120, Note_on_c, 9, 46, 113
1, 111239, Note_on_c, 9, 36, 0
1, 111270, Note_on_c, 9, 36, 68
1, 111359, Note_on_c, 9, 46, 0
1, 111359, Note_on_c, 9, 36, 0
1, 111360, Note_on_c, 9, 49, 77
1, 111360, Note_on_c, 9, 36, 96
1, 111599, Note_on_c, 9, 49, 0
1, 111600, Note_on_c, 9, 42, 51
1, 111719, Note_on_c, 9, 36, 0
1, 111719, Note_on_c, 9, 42, 0
1, 111750, Note_on_c, 9, 42, 31
1, 111750, Note_on_c, 9, 36, 56
1, 111839, Note_on_c, 9, 42, 0
1, 111839, Note_on_c, 9, 36, 0
1, 111840, Note_on_c, 9, 40, 112
1, 111840, Note_on_c, 9, 36, 52
1, 111854, Note_on_c, 9, 40, 0
1, 111855, Note_on_c, 9, 42, 84
1, 112079, Note_on_c, 9, 42, 0
1, 112080, Note_on_c, 9, 42, 39
1, 112199, Note_on_c, 9, 36, 0
1, 112199, Note_on_c, 9, 42, 0
1, 112230, Note_on_c, 9, 42, 31
1, 112230, Note_on_c, 9, 36, 66
1, 112319, Note_on_c, 9, 42, 0
1, 112319, Note_on_c, 9, 36, 0
1, 112320, Note_on_c, 9, 42, 63
1, 112320, Note_on_c, 9, 36, 94
1, 112559, Note_on_c, 9, 42, 0
1, 112560, Note_on_c, 9, 42, 38
1, 112679, Note_on_c, 9, 36, 0
1, 112679, Note_on_c, 9, 42, 0
1, 112710, Note_on_c, 9, 42, 24
1, 112710, Note_on_c, 9, 36, 66
1, 112799, Note_on_c, 9, 42, 0
1, 112799, Note_on_c, 9, 36, 0
1, 112800, Note_on_c, 9, 40, 120
1, 112800, Note_on_c, 9, 42, 87
1, 112800, Note_on_c, 9, 36, 55
1, 113039, Note_on_c, 9, 40, 0
1, 113039, Note_on_c, 9, 42, 0
1, 113040, Note_on_c, 9, 42, 53
1, 113159, Note_on_c, 9, 36, 0
1, 113159, Note_on_c, 9, 42, 0
1, 113190, Note_on_c, 9, 42, 24
1, 113190, Note_on_c, 9, 36, 68
1, 113279, Note_on_c, 9, 42, 0
1, 113279, Note_on_c, 9, 36, 0
1, 113280, Note_on_c, 9, 42, 63
1, 113280, Note_on_c, 9, 36, 96
1, 113519, Note_on_c, 9, 42, 0
1, 113520, Note_on_c, 9, 42, 52
1, 113639, Note_on_c, 9, 36, 0
1, 113639, Note_on_c, 9, 42, 0
1, 113670, Note_on_c, 9, 42, 24
1, 113670, Note_on_c, 9, 36, 56
1, 113729, Note_on_c, 9, 42, 0
1, 113745, Note_on_c, 9, 42, 91
1, 113759, Note_on_c, 9, 36, 0
1, 113760, Note_on_c, 9, 40, 112
1, 113760, Note_on_c, 9, 36, 52
1, 113999, Note_on_c, 9, 42, 0
1, 113999, Note_on_c, 9, 40, 0
1, 114000, Note_on_c, 9, 42, 53
1, 114119, Note_on_c, 9, 36, 0
1, 114119, Note_on_c, 9, 42, 0
1, 114150, Note_on_c, 9, 42, 24
1, 114150, Note_on_c, 9, 36, 66
1, 114239, Note_on_c, 9, 42, 0
1, 114239, Note_on_c, 9, 36, 0
1, 114240, Note_on_c, 9, 42, 69
1, 114240, Note_on_c, 9, 36, 94
1, 114479, Note_on_c, 9, 42, 0
1, 114480, Note_on_c, 9, 42, 52
1, 114599, Note_on_c, 9, 36, 0
1, 114599, Note_on_c, 9, 42, 0
1, 114630, Note_on_c, 9, 36, 66
1, 114640, Note_on_c, 9, 42, 24
1, 114659, Note_on_c, 9, 42, 0
1, 114719, Note_on_c, 9, 36, 0
1, 114720, Note_on_c, 9, 40, 120
1, 114720, Note_on_c, 9, 36, 55
1, 114734, Note_on_c, 9, 40, 0
1, 114735, Note_on_c, 9, 42, 85
1, 114959, Note_on_c, 9, 42, 0
1, 114960, Note_on_c, 9, 42, 53
1, 115079, Note_on_c, 9, 36, 0
1, 115079, Note_on_c, 9, 42, 0
1, 115110, Note_on_c, 9, 42, 29
1, 115110, Note_on_c, 9, 36, 68
1, 115199, Note_on_c, 9, 42, 0
1, 115199, Note_on_c, 9, 36, 0
1, 115200, Note_on_c, 9, 42, 63
1, 115200, Note_on_c, 9, 36, 96
1, 115439, Note_on_c, 9, 42, 0
1, 115440, Note_on_c, 9, 42, 52
1, 115559, Note_on_c, 9, 36, 0
1, 115559, Note_on_c, 9, 42, 0
1, 115590, Note_on_c, 9, 42, 24
1, 115590, Note_on_c, 9, 36, 56
1, 115649, Note_on_c, 9, 42, 0
1, 115665, Note_on_c, 9, 42, 91
1, 115679, Note_on_c, 9, 36, 0
1, 115680, Note_on_c, 9, 40, 112
1, 115680, Note_on_c, 9, 36, 52
1, 115919, Note_on_c, 9, 42, 0
1, 115919, Note_on_c, 9, 40, 0
1, 115920, Note_on_c, 9, 42, 53
1, 116039, Note_on_c, 9, 36, 0
1, 116039, Note_on_c, 9, 42, 0
1, 116070, Note_on_c, 9, 42, 24
1, 116070, Note_on_c, 9, 36, 66
1, 116159, Note_on_c, 9, 42, 0
1, 116159, Note_on_c, 9, 36, 0
1, 116160, Note_on_c, 9, 42, 69
1, 116160, Note_on_c, 9, 36, 94
1, 116399, Note_on_c, 9, 42, 0
1, 116400, Note_on_c, 9, 42, 52
1, 116519, Note_on_c, 9, 36, 0
1, 116519, Note_on_c, 9, 42, 0
1, 116550, Note_on_c, 9, 36, 66
1, 116560, Note_on_c, 9, 42, 24
1, 116579, Note_on_c, 9, 42, 0
1, 116639, Note_on_c, 9, 36, 0
1, 116640, Note_on_c, 9, 40, 120
1, 116640, Note_on_c, 9, 36, 55
1, 116654, Note_on_c, 9, 40, 0
1, 116655, Note_on_c, 9, 42, 85
1, 116879, Note_on_c, 9, 42, 0
1, 116880, Note_on_c, 9, 42, 53
1, 116999, Note_on_c, 9, 36, 0
1, 116999, Note_on_c, 9, 42, 0
1, 117030, Note_on_c, 9, 42, 29
1, 117030, Note_on_c, 9, 36, 68
1, 117119, Note_on_c, 9, 42, 0
1, 117119, Note_on_c, 9, 36, 0
1, 117120, Note_on_c, 9, 42, 63
1, 117120, Note_on_c, 9, 36, 96
1, 117359, Note_on_c, 9, 42, 0
1, 117360, Note_on_c, 9, 42, 52
1, 117479, Note_on_c, 9, 36, 0
1, 117479, Note_on_c, 9, 42, 0
1, 117510, Note_on_c, 9, 42, 24
1, 117510, Note_on_c, 9, 36, 56
1, 117569, Note_on_c, 9, 42, 0
1, 117585, Note_on_c, 9, 42, 91
1, 117599, Note_on_c, 9, 36, 0
1, 117600, Note_on_c, 9, 40, 112
1, 117600, Note_on_c, 9, 36, 52
1, 117839, Note_on_c, 9, 42, 0
1, 117839, Note_on_c, 9, 40, 0
1, 117840, Note_on_c, 9, 42, 53
1, 117959, Note_on_c, 9, 36, 0
1, 117959, Note_on_c, 9, 42, 0
1, 117990, Note_on_c, 9, 42, 24
1, 117990, Note_on_c, 9, 36, 66
1, 118079, Note_on_c, 9, 42, 0
1, 118079, Note_on_c, 9, 36, 0
1, 118080, Note_on_c, 9, 42, 69
1, 118080, Note_on_c, 9, 36, 94
1, 118319, Note_on_c, 9, 42, 0
1, 118320, Note_on_c, 9, 42, 52
1, 118439, Note_on_c, 9, 36, 0
1, 118439, Note_on_c, 9, 42, 0
1, 118470, Note_on_c, 9, 36, 66
1, 118480, Note_on_c, 9, 42, 24
1, 118499, Note_on_c, 9, 42, 0
1, 118559, Note_on_c, 9, 36, 0
1, 118560, Note_on_c, 9, 40, 120
1, 118560, Note_on_c, 9, 36, 55
1, 118574, Note_on_c, 9, 40, 0
1, 118575, Note_on_c, 9, 42, 85
1, 118799, Note_on_c, 9, 42, 0
1, 118800, Note_on_c, 9, 42, 53
1, 118919, Note_on_c, 9, 36, 0
1, 118919, Note_on_c, 9, 42, 0
1, 118950, Note_on_c, 9, 42, 29
1, 118950, Note_on_c, 9, 36, 68
1, 119039, Note_on_c, 9, 42, 0
1, 119039, Note_on_c, 9, 36, 0
1, 119040, Note_on_c, 9, 42, 63
1, 119040, Note_on_c, 9, 36, 96
1, 119279, Note_on_c, 9, 42, 0
1, 119280, Note_on_c, 9, 42, 52
1, 119399, Note_on_c, 9, 36, 0
1, 119399, Note_on_c, 9, 42, 0
1, 119430, Note_on_c, 9, 42, 24
1, 119430, Note_on_c, 9, 36, 56
1, 119489, Note_on_c, 9, 42, 0
1, 119505, Note_on_c, 9, 42, 91
1, 119519, Note_on_c, 9, 36, 0
1, 119520, Note_on_c, 9, 40, 112
1, 119520, Note_on_c, 9, 36, 52
1, 119759, Note_on_c, 9, 42, 0
1, 119759, Note_on_c, 9, 40, 0
1, 119760, Note_on_c, 9, 42, 53
1, 119879, Note_on_c, 9, 36, 0
1, 119879, Note_on_c, 9, 42, 0
1, 119910, Note_on_c, 9, 42, 24
1, 119910, Note_on_c, 9, 36, 66
1, 119999, Note_on_c, 9, 42, 0
1, 119999, Note_on_c, 9, 36, 0
1, 120000, Note_on_c, 9, 42, 69
1, 120000, Note_on_c, 9, 36, 94
1, 120239, Note_on_c, 9, 42, 0
1, 120240, Note_on_c, 9, 42, 52
1, 120359, Note_on_c, 9, 36, 0
1, 120359, Note_on_c, 9, 42, 0
1, 120390, Note_on_c, 9, 36, 66
1, 120400, Note_on_c, 9, 42, 24
1, 120419, Note_on_c, 9, 42, 0
1, 120479, Note_on_c, 9, 36, 0
1, 120480, Note_on_c, 9, 40, 120
1, 120480, Note_on_c, 9, 36, 55
1, 120494, Note_on_c, 9, 40, 0
1, 120495, Note_on_c, 9, 42, 85
1, 120719, Note_on_c, 9, 42, 0
1, 120720, Note_on_c, 9, 42, 53
1, 120839, Note_on_c, 9, 36, 0
1, 120839, Note_on_c, 9, 42, 0
1, 120870, Note_on_c, 9, 42, 29
1, 120870, Note_on_c, 9, 36, 68
1, 120959, Note_on_c, 9, 42, 0
1, 120959, Note_on_c, 9, 36, 0
1, 120960, Note_on_c, 9, 42, 63
1, 120960, Note_on_c, 9, 36, 96
1, 121199, Note_on_c, 9, 42, 0
1, 121200, Note_on_c, 9, 42, 52
1, 121319, Note_on_c, 9, 36, 0
1, 121319, Note_on_c, 9, 42, 0
1, 121350, Note_on_c, 9, 42, 24
1, 121350, Note_on_c, 9, 36, 56
1, 121409, Note_on_c, 9, 42, 0
1, 121425, Note_on_c, 9, 42, 91
1, 121439, Note_on_c, 9, 36, 0
1, 121440, Note_on_c, 9, 40, 112
1, 121440, Note_on_c, 9, 36, 52
1, 121679, Note_on_c, 9, 42, 0
1, 121679, Note_on_c, 9, 40, 0
1, 121680, Note_on_c, 9, 42, 53
1, 121799, Note_on_c, 9, 36, 0
1, 121799, Note_on_c, 9, 42, 0
1, 121830, Note_on_c, 9, 42, 24
1, 121830, Note_on_c, 9, 36, 66
1, 121919, Note_on_c, 9, 42, 0
1, 121919, Note_on_c, 9, 36, 0
1, 121920, Note_on_c, 9, 42, 69
1, 121920, Note_on_c, 9, 36, 94
1, 122159, Note_on_c, 9, 42, 0
1, 122160, Note_on_c, 9, 42, 52
1, 122279, Note_on_c, 9, 36, 0
1, 122279, Note_on_c, 9, 42, 0
1, 122310, Note_on_c, 9, 36, 66
1, 122320, Note_on_c, 9, 42, 24
1, 122339, Note_on_c, 9, 42, 0
1, 122399, Note_on_c, 9, 36, 0
1, 122400, Note_on_c, 9, 40, 120
1, 122400, Note_on_c, 9, 36, 55
1, 122414, Note_on_c, 9, 40, 0
1, 122415, Note_on_c, 9, 42, 85
1, 122639, Note_on_c, 9, 42, 0
1, 122640, Note_on_c, 9, 42, 53
1, 122759, Note_on_c, 9, 36, 0
1, 122759, Note_on_c, 9, 42, 0
1, 122790, Note_on_c, 9, 42, 29
1, 122790, Note_on_c, 9, 36, 68
1, 122879, Note_on_c, 9, 42, 0
1, 122879, Note_on_c, 9, 36, 0
1, 122880, Note_on_c, 9, 42, 63
1, 122880, Note_on_c, 9, 36, 96
1, 123119, Note_on_c, 9, 42, 0
1, 123120, Note_on_c, 9, 42, 52
1, 123239, Note_on_c, 9, 36, 0
1, 123239, Note_on_c, 9, 42, 0
1, 123270, Note_on_c, 9, 42, 24
1, 123270, Note_on_c, 9, 36, 69
1, 123329, Note_on_c, 9, 42, 0
1, 123345, Note_on_c, 9, 42, 91
1, 123359, Note_on_c, 9, 36, 0
1, 123360, Note_on_c, 9, 40, 112
1, 123360, Note_on_c, 9, 36, 47
1, 123599, Note_on_c, 9, 42, 0
1, 123599, Note_on_c, 9, 40, 0
1, 123600, Note_on_c, 9, 42, 53
1, 123719, Note_on_c, 9, 36, 0
1, 123719, Note_on_c, 9, 42, 0
1, 123750, Note_on_c, 9, 42, 24
1, 123750, Note_on_c, 9, 36, 57
1, 123839, Note_on_c, 9, 42, 0
1, 123839, Note_on_c, 9, 36, 0
1, 123840, Note_on_c, 9, 42, 69
1, 123840, Note_on_c, 9, 36, 81
1, 124079, Note_on_c, 9, 42, 0
1, 124080, Note_on_c, 9, 42, 52
1, 124199, Note_on_c, 9, 36, 0
1, 124199, Note_on_c, 9, 42, 0
1, 124230, Note_on_c, 9, 36, 74
1, 124240, Note_on_c, 9, 42, 24
1, 124259, Note_on_c, 9, 42, 0
1, 124319, Note_on_c, 9, 36, 0
1, 124320, Note_on_c, 9, 40, 120
1, 124320, Note_on_c, 9, 36, 50
1, 124334, Note_on_c, 9, 40, 0
1, 124335, Note_on_c, 9, 46, 102
1, 124559, Note_on_c, 9, 46, 0
1, 124660, Note_on_c, 9, 40, 64
1, 124679, Note_on_c, 9, 36, 0
1, 124679, Note_on_c, 9, 40, 0
1, 124710, Note_on_c, 9, 36, 53
1, 124725, Note_on_c, 9, 40, 89
1, 124739, Note_on_c, 9, 40, 0
1, 124799, Note_on_c, 9, 36, 0
1, 124800, Note_on_c, 9, 40, 111
1, 124800, Note_on_c, 9, 42, 89
1, 124800, Note_on_c, 9, 36, 98
1, 125039, Note_on_c, 9, 40, 0
1, 125039, Note_on_c, 9, 42, 0
1, 125040, Note_on_c, 9, 42, 80
1, 125279, Note_on_c, 9, 36, 0
1, 125279, Note_on_c, 9, 42, 0
1, 125280, Note_on_c, 9, 42, 95
1, 125280, Note_on_c, 9, 36, 75
1, 125519, Note_on_c, 9, 42, 0
1, 125520, Note_on_c, 9, 42, 59
1, 125759, Note_on_c, 9, 36, 0
1, 125759, Note_on_c, 9, 42, 0
1, 125760, Note_on_c, 9, 42, 93
1, 125760, Note_on_c, 9, 36, 84
1, 125999, Note_on_c, 9, 42, 0
1, 125999, Note_on_c, 9, 36, 0
1, 126000, Note_on_c, 9, 42, 64
1, 126000, Note_on_c, 9, 36, 72
1, 126239, Note_on_c, 9, 42, 0
1, 126239, Note_on_c, 9, 36, 0
1, 126240, Note_on_c, 9, 42, 97
1, 126240, Note_on_c, 9, 36, 83
1, 126479, Note_on_c, 9, 42, 0
1, 126479, Note_on_c, 9, 36, 0
1, 126480, Note_on_c, 9, 46, 113
1, 126480, Note_on_c, 9, 36, 85
1, 126719, Note_on_c, 9, 46, 0
1, 126719, Note_on_c, 9, 36, 0
1, 126720, Note_on_c, 9, 49, 89
1, 126720, Note_on_c, 9, 36, 96
1, 126959, Note_on_c, 9, 49, 0
1, 126960, Note_on_c, 9, 42, 80
1, 127199, Note_on_c, 9, 36, 0
1, 127199, Note_on_c, 9, 42, 0
1, 127200, Note_on_c, 9, 40, 112
1, 127214, Note_on_c, 9, 40, 0
1, 127215, Note_on_c, 9, 42, 95
1, 127439, Note_on_c, 9, 42, 0
1, 127440, Note_on_c, 9, 42, 59
1, 127590, Note_on_c, 9, 36, 66
1, 127679, Note_on_c, 9, 42, 0
1, 127679, Note_on_c, 9, 36, 0
1, 127680, Note_on_c, 9, 42, 93
1, 127680, Note_on_c, 9, 36, 94
1, 127919, Note_on_c, 9, 42, 0
1, 127920, Note_on_c, 9, 42, 64
1, 128159, Note_on_c, 9, 36, 0
1, 128159, Note_on_c, 9, 42, 0
1, 128160, Note_on_c, 9, 40, 120
1, 128160, Note_on_c, 9, 42, 97
1, 128399, Note_on_c, 9, 40, 0
1, 128399, Note_on_c, 9, 42, 0
1, 128400, Note_on_c, 9, 42, 56
1, 128519, Note_on_c, 9, 42, 0
1, 128550, Note_on_c, 9, 42, 46
1, 128550, Note_on_c, 9, 36, 68
1, 128639, Note_on_c, 9, 42, 0
1, 128639, Note_on_c, 9, 36, 0
1, 128640, Note_on_c, 9, 42, 89
1, 128640, Note_on_c, 9, 36, 98
1, 128879, Note_on_c, 9, 42, 0
1, 128880, Note_on_c, 9, 42, 80
1, 129119, Note_on_c, 9, 36, 0
1, 129119, Note_on_c, 9, 42, 0
1, 129120, Note_on_c, 9, 40, 112
1, 129134, Note_on_c, 9, 40, 0
1, 129135, Note_on_c, 9, 42, 95
1, 129359, Note_on_c, 9, 42, 0
1, 129360, Note_on_c, 9, 42, 59
1, 129510, Note_on_c, 9, 36, 65
1, 129599, Note_on_c, 9, 42, 0
1, 129599, Note_on_c, 9, 36, 0
1, 129600, Note_on_c, 9, 42, 93
1, 129600, Note_on_c, 9, 36, 98
1, 129839, Note_on_c, 9, 42, 0
1, 129840, Note_on_c, 9, 42, 64
1, 130079, Note_on_c, 9, 36, 0
1, 130079, Note_on_c, 9, 42, 0
1, 130080, Note_on_c, 9, 40, 120
1, 130080, Note_on_c, 9, 42, 97
1, 130319, Note_on_c, 9, 40, 0
1, 130319, Note_on_c, 9, 42, 0
1, 130320, Note_on_c, 9, 42, 56
1, 130439, Note_on_c, 9, 42, 0
1, 130470, Note_on_c, 9, 42, 46
1, 130470, Note_on_c, 9, 36, 60
1, 130559, Note_on_c, 9, 42, 0
1, 130559, Note_on_c, 9, 36, 0
1, 130560, Note_on_c, 9, 42, 89
1, 130560, Note_on_c, 9, 36, 96
1, 130799, Note_on_c, 9, 42, 0
1, 130800, Note_on_c, 9, 42, 80
1, 131039, Note_on_c, 9, 36, 0
1, 131039, Note_on_c, 9, 42, 0
1, 131040, Note_on_c, 9, 40, 112
1, 131054, Note_on_c, 9, 40, 0
1, 131055, Note_on_c, 9, 42, 95
1, 131279, Note_on_c, 9, 42, 0
1, 131280, Note_on_c, 9, 42, 59
1, 131430, Note_on_c, 9, 36, 66
1, 131519, Note_on_c, 9, 42, 0
1, 131519, Note_on_c, 9, 36, 0
1, 131520, Note_on_c, 9, 42, 93
1, 131520, Note_on_c, 9, 36, 94
1, 131759, Note_on_c, 9, 42, 0
1, 131760, Note_on_c, 9, 42, 64
1, 131999, Note_on_c, 9, 36, 0
1, 131999, Note_on_c, 9, 42, 0
1, 132000, Note_on_c, 9, 40, 120
1, 132000, Note_on_c, 9, 42, 97
1, 132239, Note_on_c, 9, 40, 0
1, 132239, Note_on_c, 9, 42, 0
1, 132240, Note_on_c, 9, 42, 56
1, 132359, Note_on_c, 9, 42, 0
1, 132390, Note_on_c, 9, 42, 46
1, 132390, Note_on_c, 9, 36, 68
1, 132479, Note_on_c, 9, 42, 0
1, 132479, Note_on_c, 9, 36, 0
1, 132480, Note_on_c, 9, 42, 89
1, 132480, Note_on_c, 9, 36, 96
1, 132719, Note_on_c, 9, 42, 0
1, 132720, Note_on_c, 9, 42, 80
1, 132959, Note_on_c, 9, 36, 0
1, 132959, Note_on_c, 9, 42, 0
1, 132960, Note_on_c, 9, 40, 112
1, 132974, Note_on_c, 9, 40, 0
1, 132975, Note_on_c, 9, 42, 95
1, 133199, Note_on_c, 9, 42, 0
1, 133200, Note_on_c, 9, 42, 59
1, 133319, Note_on_c, 9, 42, 0
1, 133340, Note_on_c, 9, 40, 127
1, 133350, Note_on_c, 9, 36, 66
1, 133379, Note_on_c, 9, 40, 0
1, 133439, Note_on_c, 9, 36, 0
1, 133440, Note_on_c, 9, 40, 107
1, 133440, Note_on_c, 9, 42, 93
1, 133559, Note_on_c, 9, 40, 0
1, 133559, Note_on_c, 9, 42, 0
1, 133560, Note_on_c, 9, 46, 119
1, 133560, Note_on_c, 9, 36, 111
1, 133679, Note_on_c, 9, 46, 0
1, 133680, Note_on_c, 9, 42, 64
1, 133799, Note_on_c, 9, 42, 0
1, 133820, Note_on_c, 9, 40, 127
1, 133859, Note_on_c, 9, 40, 0
1, 133919, Note_on_c, 9, 36, 0
1, 133920, Note_on_c, 9, 40, 120
1, 133920, Note_on_c, 9, 42, 97
1, 134039, Note_on_c, 9, 40, 0
1, 134039, Note_on_c, 9, 42, 0
1, 134040, Note_on_c, 9, 46, 122
1, 134040, Note_on_c, 9, 36, 109
1, 134159, Note_on_c, 9, 46, 0
1, 134160, Note_on_c, 9, 42, 56
1, 134279, Note_on_c, 9, 42, 0
1, 134295, Note_on_c, 9, 40, 80
1, 134309, Note_on_c, 9, 40, 0
1, 134310, Note_on_c, 9, 42, 46
1, 134399, Note_on_c, 9, 36, 0
1, 134399, Note_on_c, 9, 42, 0
1, 134400, Note_on_c, 9, 49, 89
1, 134400, Note_on_c, 9, 36, 96
1, 134639, Note_on_c, 9, 49, 0
1, 134640, Note_on_c, 9, 42, 80
1, 134879, Note_on_c, 9, 36, 0
1, 134879, Note_on_c, 9, 42, 0
1, 134880, Note_on_c, 9, 40, 112
1, 134894, Note_on_c, 9, 40, 0
1, 134895, Note_on_c, 9, 42, 95
1, 135119, Note_on_c, 9, 42, 0
1, 135120, Note_on_c, 9, 42, 59
1, 135270, Note_on_c, 9, 36, 66
1, 135359, Note_on_c, 9, 42, 0
1, 135359, Note_on_c, 9, 36, 0
1, 135360, Note_on_c, 9, 42, 93
1, 135360, Note_on_c, 9, 36, 94
1, 135599, Note_on_c, 9, 42, 0
1, 135600, Note_on_c, 9, 42, 64
1, 135839, Note_on_c, 9, 36, 0
1, 135839, Note_on_c, 9, 42, 0
1, 135840, Note_on_c, 9, 40, 120
1, 135840, Note_on_c, 9, 42, 97
1, 136079, Note_on_c, 9, 40, 0
1, 136079, Note_on_c, 9, 42, 0
1, 136080, Note_on_c, 9, 42, 56
1, 136199, Note_on_c, 9, 42, 0
1, 136230, Note_on_c, 9, 42, 46
1, 136230, Note_on_c, 9, 36, 68
1, 136319, Note_on_c, 9, 42, 0
1, 136319, Note_on_c, 9, 36, 0
1, 136320, Note_on_c, 9, 42, 89
1, 136320, Note_on_c, 9, 36, 96
1, 136559, Note_on_c, 9, 42, 0
1, 136560, Note_on_c, 9, 42, 80
1, 136799, Note_on_c, 9, 36, 0
1, 136799, Note_on_c, 9, 42, 0
1, 136800, Note_on_c, 9, 40, 112
1, 136814, Note_on_c, 9, 40, 0
1, 136815, Note_on_c, 9, 42, 95
1, 137039, Note_on_c, 9, 42, 0
1, 137040, Note_on_c, 9, 42, 59
1, 137190, Note_on_c, 9, 36, 66
1, 137279, Note_on_c, 9, 42, 0
1, 137279, Note_on_c, 9, 36, 0
1, 137280, Note_on_c, 9, 42, 93
1, 137280, Note_on_c, 9, 36, 94
1, 137519, Note_on_c, 9, 42, 0
1, 137520, Note_on_c, 9, 42, 64
1, 137759, Note_on_c, 9, 36, 0
1, 137759, Note_on_c, 9, 42, 0
1, 137760, Note_on_c, 9, 40, 120
1, 137760, Note_on_c, 9, 42, 97
1, 137999, Note_on_c, 9, 40, 0
1, 137999, Note_on_c, 9, 42, 0
1, 138000, Note_on_c, 9, 42, 56
1, 138119, Note_on_c, 9, 42, 0
1, 138150, Note_on_c, 9, 42, 46
1, 138150, Note_on_c, 9, 36, 68
1, 138239, Note_on_c, 9, 42, 0
1, 138239, Note_on_c, 9, 36, 0
1, 138240, Note_on_c, 9, 42, 89
1, 138240, Note_on_c, 9, 36, 96
1, 138479, Note_on_c, 9, 42, 0
1, 138480, Note_on_c, 9, 42, 80
1, 138719, Note_on_c, 9, 36, 0
1, 138719, Note_on_c, 9, 42, 0
1, 138720, Note_on_c, 9, 40, 112
1, 138734, Note_on_c, 9, 40, 0
1, 138735, Note_on_c, 9, 42, 95
1, 138959, Note_on_c, 9, 42, 0
1, 138960, Note_on_c, 9, 42, 59
1, 139110, Note_on_c, 9, 36, 66
1, 139199, Note_on_c, 9, 42, 0
1, 139199, Note_on_c, 9, 36, 0
1, 139200, Note_on_c, 9, 42, 93
1, 139200, Note_on_c, 9, 36, 94
1, 139439, Note_on_c, 9, 42, 0
1, 139440, Note_on_c, 9, 42, 64
1, 139679, Note_on_c, 9, 36, 0
1, 139679, Note_on_c, 9, 42, 0
1, 139680, Note_on_c, 9, 40, 120
1, 139680, Note_on_c, 9, 42, 97
1, 139919, Note_on_c, 9, 40, 0
1, 139919, Note_on_c, 9, 42, 0
1, 139920, Note_on_c, 9, 42, 56
1, 140039, Note_on_c, 9, 42, 0
1, 140070, Note_on_c, 9, 42, 46
1, 140070, Note_on_c, 9, 36, 68
1, 140159, Note_on_c, 9, 42, 0
1, 140159, Note_on_c, 9, 36, 0
1, 140160, Note_on_c, 9, 46, 114
1, 140160, Note_on_c, 9, 36, 98
1, 140519, Note_on_c, 9, 46, 0
1, 140540, Note_on_c, 9, 40, 61
1, 140579, Note_on_c, 9, 40, 0
1, 140600, Note_on_c, 9, 40, 86
1, 140639, Note_on_c, 9, 36, 0
1, 140639, Note_on_c, 9, 40, 0
1, 140640, Note_on_c, 9, 40, 102
1, 140759, Note_on_c, 9, 40, 0
1, 140760, Note_on_c, 9, 40, 115
1, 140879, Note_on_c, 9, 40, 0
1, 140880, Note_on_c, 9, 40, 124
1, 140999, Note_on_c, 9, 40, 0
1, 141000, Note_on_c, 9, 40, 127
1, 141119, Note_on_c, 9, 40, 0
1, 141120, Note_on_c, 9, 57, 105
1, 141120, Note_on_c, 9, 36, 105
1, 141599, Note_on_c, 9, 57, 0
1, 141599, Note_on_c, 9, 36, 0
1, 141600, Note_on_c, 9, 49, 101
1, 141600, Note_on_c, 9, 36, 106
1, 142079, Note_on_c, 9, 49, 0
1, 142079, Note_on_c, 9, 36, 0
1, 142080, Note_on_c, 9, 49, 77
1, 142080, Note_on_c, 9, 36, 96
1, 142319, Note_on_c, 9, 49, 0
1, 142320, Note_on_c, 9, 42, 51
1, 142439, Note_on_c, 9, 36, 0
1, 142439, Note_on_c, 9, 42, 0
1, 142470, Note_on_c, 9, 42, 31
1, 142470, Note_on_c, 9, 36, 56
1, 142559, Note_on_c, 9, 42, 0
1, 142559, Note_on_c, 9, 36, 0
1, 142560, Note_on_c, 9, 40, 112
1, 142560, Note_on_c, 9, 36, 52
1, 142574, Note_on_c, 9, 40, 0
1, 142575, Note_on_c, 9, 42, 84
1, 142799, Note_on_c, 9, 42, 0
1, 142800, Note_on_c, 9, 42, 39
1, 142919, Note_on_c, 9, 36, 0
1, 142919, Note_on_c, 9, 42, 0
1, 142950, Note_on_c, 9, 42, 31
1, 142950, Note_on_c, 9, 36, 66
1, 143039, Note_on_c, 9, 42, 0
1, 143039, Note_on_c, 9, 36, 0
1, 143040, Note_on_c, 9, 42, 63
1, 143040, Note_on_c, 9, 36, 94
1, 143279, Note_on_c, 9, 42, 0
1, 143280, Note_on_c, 9, 42, 38
1, 143399, Note_on_c, 9, 36, 0
1, 143399, Note_on_c, 9, 42, 0
1, 143430, Note_on_c, 9, 42, 24
1, 143430, Note_on_c, 9, 36, 66
1, 143519, Note_on_c, 9, 42, 0
1, 143519, Note_on_c, 9, 36, 0
1, 143520, Note_on_c, 9, 40, 120
1, 143520, Note_on_c, 9, 42, 87
1, 143520, Note_on_c, 9, 36, 55
1, 143759, Note_on_c, 9, 40, 0
1, 143759, Note_on_c, 9, 42, 0
1, 143760, Note_on_c, 9, 42, 53
1, 143879, Note_on_c, 9, 36, 0
1, 143879, Note_on_c, 9, 42, 0
1, 143910, Note_on_c, 9, 42, 24
1, 143910, Note_on_c, 9, 36, 68
1, 143999, Note_on_c, 9, 42, 0
1, 143999, Note_on_c, 9, 36, 0
1, 144000, Note_on_c, 9, 42, 63
1, 144000, Note_on_c, 9, 36, 96
1, 144239, Note_on_c, 9, 42, 0
1, 144240, Note_on_c, 9, 42, 52
1, 144359, Note_on_c, 9, 36, 0
1, 144359, Note_on_c, 9, 42, 0
1, 144390, Note_on_c, 9, 42, 24
1, 144390, Note_on_c, 9, 36, 56
1, 144449, Note_on_c, 9, 42, 0
1, 144465, Note_on_c, 9, 42, 91
1, 144479, Note_on_c, 9, 36, 0
1, 144480, Note_on_c, 9, 40, 112
1, 144480, Note_on_c, 9, 36, 52
1, 144719, Note_on_c, 9, 42, 0
1, 144719, Note_on_c, 9, 40, 0
1, 144720, Note_on_c, 9, 42, 53
1, 144839, Note_on_c, 9, 36, 0
1, 144839, Note_on_c, 9, 42, 0
1, 144870, Note_on_c, 9, 42, 24
1, 144870, Note_on_c, 9, 36, 66
1, 144959, Note_on_c, 9, 42, 0
1, 144959, Note_on_c, 9, 36, 0
1, 144960, Note_on_c, 9, 42, 69
1, 144960, Note_on_c, 9, 36, 94
1, 145199, Note_on_c, 9, 42, 0
1, 145200, Note_on_c, 9, 42, 52
1, 145319, Note_on_c, 9, 36, 0
1, 145319, Note_on_c, 9, 42, 0
1, 145350, Note_on_c, 9, 36, 66
1, 145360, Note_on_c, 9, 42, 24
1, 145379, Note_on_c, 9, 42, 0
1, 145439, Note_on_c, 9, 36, 0
1, 145440, Note_on_c, 9, 40, 120
1, 145440, Note_on_c, 9, 36, 55
1, 145454, Note_on_c, 9, 40, 0
1, 145455, Note_on_c, 9, 42, 85
1, 145679, Note_on_c, 9, 42, 0
1, 145680, Note_on_c, 9, 42, 53
1, 145799, Note_on_c, 9, 36, 0
1, 145799, Note_on_c, 9, 42, 0
1, 145830, Note_on_c, 9, 42, 29
1, 145830, Note_on_c, 9, 36, 68
1, 145919, Note_on_c, 9, 42, 0
1, 145919, Note_on_c, 9, 36, 0
1, 145920, Note_on_c, 9, 42, 63
1, 145920, Note_on_c, 9, 36, 96
1, 146159, Note_on_c, 9, 42, 0
1, 146160, Note_on_c, 9, 42, 52
1, 146279, Note_on_c, 9, 36, 0
1, 146279, Note_on_c, 9, 42, 0
1, 146310, Note_on_c, 9, 42, 24
1, 146310, Note_on_c, 9, 36, 56
1, 146369, Note_on_c, 9, 42, 0
1, 146385, Note_on_c, 9, 42, 91
1, 146399, Note_on_c, 9, 36, 0
1, 146400, Note_on_c, 9, 40, 112
1, 146400, Note_on_c, 9, 36, 52
1, 146639, Note_on_c, 9, 42, 0
1, 146639, Note_on_c, 9, 40, 0
1, 146640, Note_on_c, 9, 42, 53
1, 146759, Note_on_c, 9, 36, 0
1, 146759, Note_on_c, 9, 42, 0
1, 146790, Note_on_c, 9, 42, 24
1, 146790, Note_on_c, 9, 36, 66
1, 146879, Note_on_c, 9, 42, 0
1, 146879, Note_on_c, 9, 36, 0
1, 146880, Note_on_c, 9, 42, 69
1, 146880, Note_on_c, 9, 36, 94
1, 147119, Note_on_c, 9, 42, 0
1, 147120, Note_on_c, 9, 42, 52
1, 147239, Note_on_c, 9, 36, 0
1, 147239, Note_on_c, 9, 42, 0
1, 147270, Note_on_c, 9, 36, 66
1, 147280, Note_on_c, 9, 42, 24
1, 147299, Note_on_c, 9, 42, 0
1, 147359, Note_on_c, 9, 36, 0
1, 147360, Note_on_c, 9, 40, 120
1, 147360, Note_on_c, 9, 36, 55
1, 147374, Note_on_c, 9, 40, 0
1, 147375, Note_on_c, 9, 42, 85
1, 147599, Note_on_c, 9, 42, 0
1, 147600, Note_on_c, 9, 42, 53
1, 147719, Note_on_c, 9, 36, 0
1, 147719, Note_on_c, 9, 42, 0
1, 147750, Note_on_c, 9, 42, 29
1, 147750, Note_on_c, 9, 36, 68
1, 147839, Note_on_c, 9, 42, 0
1, 147839, Note_on_c, 9, 36, 0
1, 147840, Note_on_c, 9, 42, 63
1, 147840, Note_on_c, 9, 36, 96
1, 148079, Note_on_c, 9, 42, 0
1, 148080, Note_on_c, 9, 42, 52
1, 148199, Note_on_c, 9, 36, 0
1, 148199, Note_on_c, 9, 42, 0
1, 148230, Note_on_c, 9, 42, 24
1, 148230, Note_on_c, 9, 36, 56
1, 148289, Note_on_c, 9, 42, 0
1, 148305, Note_on_c, 9, 42, 91
1, 148319, Note_on_c, 9, 36, 0
1, 148320, Note_on_c, 9, 40, 112
1, 148320, Note_on_c, 9, 36, 52
1, 148559, Note_on_c, 9, 42, 0
1, 148559, Note_on_c, 9, 40, 0
1, 148560, Note_on_c, 9, 42, 53
1, 148679, Note_on_c, 9, 36, 0
1, 148679, Note_on_c, 9, 42, 0
1, 148700, Note_on_c, 9, 40, 78
1, 148710, Note_on_c, 9, 36, 66
1, 148719, Note_on_c, 9, 40, 0
1, 148720, Note_on_c, 9, 42, 24
1, 148739, Note_on_c, 9, 42, 0
1, 148799, Note_on_c, 9, 36, 0
1, 148800, Note_on_c, 9, 40, 88
1, 148800, Note_on_c, 9, 36, 94
1, 148814, Note_on_c, 9, 40, 0
1, 148815, Note_on_c, 9, 46, 111
1, 148859, Note_on_c, 9, 46, 0
1, 148920, Note_on_c, 9, 40, 98
1, 149039, Note_on_c, 9, 40, 0
1, 149040, Note_on_c, 9, 40, 112
1, 149159, Note_on_c, 9, 36, 0
1, 149159, Note_on_c, 9, 40, 0
1, 149160, Note_on_c, 9, 40, 127
1, 149190, Note_on_c, 9, 36, 66
1, 149279, Note_on_c, 9, 40, 0
1, 149279, Note_on_c, 9, 36, 0
1, 149280, Note_on_c, 9, 41, 75
1, 149280, Note_on_c, 9, 36, 55
1, 149399, Note_on_c, 9, 41, 0
1, 149400, Note_on_c, 9, 41, 99
1, 149519, Note_on_c, 9, 41, 0
1, 149520, Note_on_c, 9, 41, 116
1, 149639, Note_on_c, 9, 36, 0
1, 149639, Note_on_c, 9, 41, 0
1, 149640, Note_on_c, 9, 41, 125
1, 149670, Note_on_c, 9, 36, 68
1, 149759, Note_on_c, 9, 41, 0
1, 149759, Note_on_c, 9, 36, 0
1, 149760, Note_on_c, 9, 49, 102
1, 149760, Note_on_c, 9, 36, 96
1, 149999, Note_on_c, 9, 49, 0
1, 150000, Note_on_c, 9, 42, 52
1, 150119, Note_on_c, 9, 36, 0
1, 150119, Note_on_c, 9, 42, 0
1, 150150, Note_on_c, 9, 42, 24
1, 150150, Note_on_c, 9, 36, 56
1, 150209, Note_on_c, 9, 42, 0
1, 150225, Note_on_c, 9, 42, 91
1, 150239, Note_on_c, 9, 36, 0
1, 150240, Note_on_c, 9, 40, 112
1, 150240, Note_on_c, 9, 36, 52
1, 150479, Note_on_c, 9, 42, 0
1, 150479, Note_on_c, 9, 40, 0
1, 150480, Note_on_c, 9, 42, 53
1, 150599, Note_on_c, 9, 36, 0
1, 150599, Note_on_c, 9, 42, 0
1, 150630, Note_on_c, 9, 42, 24
1, 150630, Note_on_c, 9, 36, 66
1, 150719, Note_on_c, 9, 42, 0
1, 150719, Note_on_c, 9, 36, 0
1, 150720, Note_on_c, 9, 42, 69
1, 150720, Note_on_c, 9, 36, 94
1, 150959, Note_on_c, 9, 42, 0
1, 150960, Note_on_c, 9, 42, 52
1, 151079, Note_on_c, 9, 36, 0
1, 151079, Note_on_c, 9, 42, 0
1, 151110, Note_on_c, 9, 36, 66
1, 151120, Note_on_c, 9, 42, 24
1, 151139, Note_on_c, 9, 42, 0
1, 151199, Note_on_c, 9, 36, 0
1, 151200, Note_on_c, 9, 40, 120
1, 151200, Note_on_c, 9, 36, 55
1, 151214, Note_on_c, 9, 40, 0
1, 151215, Note_on_c, 9, 42, 85
1, 151439, Note_on_c, 9, 42, 0
1, 151440, Note_on_c, 9, 42, 53
1, 151559, Note_on_c, 9, 36, 0
1, 151559, Note_on_c, 9, 42, 0
1, 151590, Note_on_c, 9, 42, 29
1, 151590, Note_on_c, 9, 36, 68
1, 151679, Note_on_c, 9, 42, 0
1, 151679, Note_on_c, 9, 36, 0
1, 151680, Note_on_c, 9, 42, 63
1, 151680, Note_on_c, 9, 36, 96
1, 151919, Note_on_c, 9, 42, 0
1, 151920, Note_on_c, 9, 42, 52
1, 152039, Note_on_c, 9, 36, 0
1, 152039, Note_on_c, 9, 42, 0
1, 152070, Note_on_c, 9, 42, 24
1, 152070, Note_on_c, 9, 36, 56
1, 152129, Note_on_c, 9, 42, 0
1, 152145, Note_on_c, 9, 42, 91
1, 152159, Note_on_c, 9, 36, 0
1, 152160, Note_on_c, 9, 40, 112
1, 152160, Note_on_c, 9, 36, 52
1, 152399, Note_on_c, 9, 42, 0
1, 152399, Note_on_c, 9, 40, 0
1, 152400, Note_on_c, 9, 42, 53
1, 152519, Note_on_c, 9, 36, 0
1, 152519, Note_on_c, 9, 42, 0
1, 152550, Note_on_c, 9, 42, 24
1, 152550, Note_on_c, 9, 36, 66
1, 152639, Note_on_c, 9, 42, 0
1, 152639, Note_on_c, 9, 36, 0
1, 152640, Note_on_c, 9, 42, 69
1, 152640, Note_on_c, 9, 36, 94
1, 152879, Note_on_c, 9, 42, 0
1, 152880, Note_on_c, 9, 42, 52
1, 152999, Note_on_c, 9, 36, 0
1, 152999, Note_on_c, 9, 42, 0
1, 153030, Note_on_c, 9, 36, 66
1, 153040, Note_on_c, 9, 42, 24
1, 153059, Note_on_c, 9, 42, 0
1, 153119, Note_on_c, 9, 36, 0
1, 153120, Note_on_c, 9, 40, 120
1, 153120, Note_on_c, 9, 36, 55
1, 153134, Note_on_c, 9, 40, 0
1, 153135, Note_on_c, 9, 42, 85
1, 153359, Note_on_c, 9, 42, 0
1, 153360, Note_on_c, 9, 42, 53
1, 153479, Note_on_c, 9, 36, 0
1, 153479, Note_on_c, 9, 42, 0
1, 153510, Note_on_c, 9, 42, 29
1, 153510, Note_on_c, 9, 36, 68
1, 153599, Note_on_c, 9, 42, 0
1, 153599, Note_on_c, 9, 36, 0
1, 153600, Note_on_c, 9, 42, 63
1, 153600, Note_on_c, 9, 36, 96
1, 153839, Note_on_c, 9, 42, 0
1, 153840, Note_on_c, 9, 42, 52
1, 153959, Note_on_c, 9, 36, 0
1, 153959, Note_on_c, 9, 42, 0
1, 153990, Note_on_c, 9, 42, 24
1, 153990, Note_on_c, 9, 36, 69
1, 154049, Note_on_c, 9, 42, 0
1, 154065, Note_on_c, 9, 42, 91
1, 154079, Note_on_c, 9, 36, 0
1, 154080, Note_on_c, 9, 40, 112
1, 154080, Note_on_c, 9, 36, 47
1, 154319, Note_on_c, 9, 42, 0
1, 154319, Note_on_c, 9, 40, 0
1, 154320, Note_on_c, 9, 42, 53
1, 154439, Note_on_c, 9, 36, 0
1, 154439, Note_on_c, 9, 42, 0
1, 154470, Note_on_c, 9, 42, 24
1, 154470, Note_on_c, 9, 36, 57
1, 154559, Note_on_c, 9, 42, 0
1, 154559, Note_on_c, 9, 36, 0
1, 154560, Note_on_c, 9, 42, 69
1, 154560, Note_on_c, 9, 36, 81
1, 154799, Note_on_c, 9, 42, 0
1, 154800, Note_on_c, 9, 42, 52
1, 154919, Note_on_c, 9, 36, 0
1, 154919, Note_on_c, 9, 42, 0
1, 154950, Note_on_c, 9, 36, 74
1, 154960, Note_on_c, 9, 42, 24
1, 154979, Note_on_c, 9, 42, 0
1, 155039, Note_on_c, 9, 36, 0
1, 155040, Note_on_c, 9, 40, 120
1, 155040, Note_on_c, 9, 36, 50
1, 155054, Note_on_c, 9, 40, 0
1, 155055, Note_on_c, 9, 46, 102
1, 155279, Note_on_c, 9, 46, 0
1, 155380, Note_on_c, 9, 40, 64
1, 155399, Note_on_c, 9, 36, 0
1, 155399, Note_on_c, 9, 40, 0
1, 155430, Note_on_c, 9, 36, 53
1, 155445, Note_on_c, 9, 40, 89
1, 155459, Note_on_c, 9, 40, 0
1, 155519, Note_on_c, 9, 36, 0
1, 155520, Note_on_c, 9, 40, 111
1, 155520, Note_on_c, 9, 42, 89
1, 155520, Note_on_c, 9, 36, 98
1, 155759, Note_on_c, 9, 40, 0
1, 155759, Note_on_c, 9, 42, 0
1, 155760, Note_on_c, 9, 42, 80
1, 155999, Note_on_c, 9, 36, 0
1, 155999, Note_on_c, 9, 42, 0
1, 156000, Note_on_c, 9, 42, 95
1, 156000, Note_on_c, 9, 36, 75
1, 156239, Note_on_c, 9, 42, 0
1, 156240, Note_on_c, 9, 42, 59
1, 156479, Note_on_c, 9, 36, 0
1, 156479, Note_on_c, 9, 42, 0
1, 156480, Note_on_c, 9, 42, 93
1, 156480, Note_on_c, 9, 36, 84
1, 156719, Note_on_c, 9, 42, 0
1, 156719, Note_on_c, 9, 36, 0
1, 156720, Note_on_c, 9, 42, 64
1, 156720, Note_on_c, 9, 36, 72
1, 156959, Note_on_c, 9, 42, 0
1, 156959, Note_on_c, 9, 36, 0
1, 156960, Note_on_c, 9, 42, 97
1, 156960, Note_on_c, 9, 36, 83
1, 157199, Note_on_c, 9, 42, 0
1, 157199, Note_on_c, 9, 36, 0
1, 157200, Note_on_c, 9, 46, 113
1, 157200, Note_on_c, 9, 36, 85
1, 157439, Note_on_c, 9, 46, 0
1, 157439, Note_on_c, 9, 36, 0
1, 157440, Note_on_c, 9, 49, 89
1, 157440, Note_on_c, 9, 36, 96
1, 157679, Note_on_c, 9, 49, 0
1, 157680, Note_on_c, 9, 42, 80
1, 157799, Note_on_c, 9, 36, 0
1, 157830, Note_on_c, 9, 36, 56
1, 157919, Note_on_c, 9, 42, 0
1, 157919, Note_on_c, 9, 36, 0
1, 157920, Note_on_c, 9, 40, 112
1, 157920, Note_on_c, 9, 36, 52
1, 157934, Note_on_c, 9, 40, 0
1, 157935, Note_on_c, 9, 42, 95
1, 158159, Note_on_c, 9, 42, 0
1, 158160, Note_on_c, 9, 42, 59
1, 158279, Note_on_c, 9, 36, 0
1, 158310, Note_on_c, 9, 36, 66
1, 158399, Note_on_c, 9, 42, 0
1, 158399, Note_on_c, 9, 36, 0
1, 158400, Note_on_c, 9, 42, 93
1, 158400, Note_on_c, 9, 36, 94
1, 158639, Note_on_c, 9, 42, 0
1, 158640, Note_on_c, 9, 42, 64
1, 158759, Note_on_c, 9, 36, 0
1, 158790, Note_on_c, 9, 36, 66
1, 158879, Note_on_c, 9, 42, 0
1, 158879, Note_on_c, 9, 36, 0
1, 158880, Note_on_c, 9, 40, 120
1, 158880, Note_on_c, 9, 42, 97
1, 158880, Note_on_c, 9, 36, 55
1, 159119, Note_on_c, 9, 40, 0
1, 159119, Note_on_c, 9, 42, 0
1, 159120, Note_on_c, 9, 46, 109
1, 159239, Note_on_c, 9, 36, 0
1, 159270, Note_on_c, 9, 36, 68
1, 159359, Note_on_c, 9, 46, 0
1, 159359, Note_on_c, 9, 36, 0
1, 159360, Note_on_c, 9, 42, 89
1, 159360, Note_on_c, 9, 36, 96
1, 159599, Note_on_c, 9, 42, 0
1, 159600, Note_on_c, 9, 42, 80
1, 159719, Note_on_c, 9, 36, 0
1, 159750, Note_on_c, 9, 36, 56
1, 159839, Note_on_c, 9, 42, 0
1, 159839, Note_on_c, 9, 36, 0
1, 159840, Note_on_c, 9, 40, 112
1, 159840, Note_on_c, 9, 36, 52
1, 159854, Note_on_c, 9, 40, 0
1, 159855, Note_on_c, 9, 42, 95
1, 160079, Note_on_c, 9, 42, 0
1, 160080, Note_on_c, 9, 42, 59
1, 160199, Note_on_c, 9, 36, 0
1, 160230, Note_on_c, 9, 36, 66
1, 160319, Note_on_c, 9, 42, 0
1, 160319, Note_on_c, 9, 36, 0
1, 160320, Note_on_c, 9, 42, 93
1, 160320, Note_on_c, 9, 36, 94
1, 160559, Note_on_c, 9, 42, 0
1, 160560, Note_on_c, 9, 42, 64
1, 160679, Note_on_c, 9, 36, 0
1, 160710, Note_on_c, 9, 36, 66
1, 160799, Note_on_c, 9, 42, 0
1, 160799, Note_on_c, 9, 36, 0
1, 160800, Note_on_c, 9, 40, 120
1, 160800, Note_on_c, 9, 42, 97
1, 160800, Note_on_c, 9, 36, 55
1, 161039, Note_on_c, 9, 40, 0
1, 161039, Note_on_c, 9, 42, 0
1, 161040, Note_on_c, 9, 46, 109
1, 161159, Note_on_c, 9, 36, 0
1, 161190, Note_on_c, 9, 36, 68
1, 161279, Note_on_c, 9, 46, 0
1, 161279, Note_on_c, 9, 36, 0
1, 161280, Note_on_c, 9, 42, 89
1, 161280, Note_on_c, 9, 36, 96
1, 161519, Note_on_c, 9, 42, 0
1, 161520, Note_on_c, 9, 42, 80
1, 161639, Note_on_c, 9, 36, 0
1, 161670, Note_on_c, 9, 36, 56
1, 161759, Note_on_c, 9, 42, 0
1, 161759, Note_on_c, 9, 36, 0
1, 161760, Note_on_c, 9, 40, 112
1, 161760, Note_on_c, 9, 36, 52
1, 161774, Note_on_c, 9, 40, 0
1, 161775, Note_on_c, 9, 42, 95
1, 161999, Note_on_c, 9, 42, 0
1, 162000, Note_on_c, 9, 42, 59
1, 162119, Note_on_c, 9, 36, 0
1, 162150, Note_on_c, 9, 36, 66
1, 162239, Note_on_c, 9, 42, 0
1, 162239, Note_on_c, 9, 36, 0
1, 162240, Note_on_c, 9, 42, 93
1, 162240, Note_on_c, 9, 36, 94
1, 162479, Note_on_c, 9, 42, 0
1, 162480, Note_on_c, 9, 42, 64
1, 162599, Note_on_c, 9, 36, 0
1, 162630, Note_on_c, 9, 36, 66
1, 162719, Note_on_c, 9, 42, 0
1, 162719, Note_on_c, 9, 36, 0
1, 162720, Note_on_c, 9, 40, 120
1, 162720, Note_on_c, 9, 42, 97
1, 162720, Note_on_c, 9, 36, 55
1, 162959, Note_on_c, 9, 40, 0
1, 162959, Note_on_c, 9, 42, 0
1, 162960, Note_on_c, 9, 46, 107
1, 163079, Note_on_c, 9, 36, 0
1, 163110, Note_on_c, 9, 36, 68
1, 163199, Note_on_c, 9, 46, 0
1, 163199, Note_on_c, 9, 36, 0
1, 163200, Note_on_c, 9, 42, 89
1, 163200, Note_on_c, 9, 36, 96
1, 163439, Note_on_c, 9, 42, 0
1, 163440, Note_on_c, 9, 42, 80
1, 163559, Note_on_c, 9, 36, 0
1, 163590, Note_on_c, 9, 36, 56
1, 163679, Note_on_c, 9, 42, 0
1, 163679, Note_on_c, 9, 36, 0
1, 163680, Note_on_c, 9, 40, 112
1, 163680, Note_on_c, 9, 36, 52
1, 163694, Note_on_c, 9, 40, 0
1, 163695, Note_on_c, 9, 42, 95
1, 163919, Note_on_c, 9, 42, 0
1, 163920, Note_on_c, 9, 42, 59
1, 164039, Note_on_c, 9, 36, 0
1, 164070, Note_on_c, 9, 36, 66
1, 164159, Note_on_c, 9, 42, 0
1, 164159, Note_on_c, 9, 36, 0
1, 164160, Note_on_c, 9, 42, 93
1, 164160, Note_on_c, 9, 36, 94
1, 164399, Note_on_c, 9, 42, 0
1, 164400, Note_on_c, 9, 42, 64
1, 164639, Note_on_c, 9, 36, 0
1, 164639, Note_on_c, 9, 42, 0
1, 164640, Note_on_c, 9, 40, 120
1, 164640, Note_on_c, 9, 42, 97
1, 164640, Note_on_c, 9, 36, 55
1, 164879, Note_on_c, 9, 40, 0
1, 164879, Note_on_c, 9, 42, 0
1, 164880, Note_on_c, 9, 46, 107
1, 164999, Note_on_c, 9, 36, 0
1, 165030, Note_on_c, 9, 36, 68
1, 165119, Note_on_c, 9, 46, 0
1, 165119, Note_on_c, 9, 36, 0
1, 165120, Note_on_c, 9, 42, 72
1, 165120, Note_on_c, 9, 36, 96
1, 165359, Note_on_c, 9, 42, 0
1, 165360, Note_on_c, 9, 42, 80
1, 165479, Note_on_c, 9, 36, 0
1, 165510, Note_on_c, 9, 36, 56
1, 165599, Note_on_c, 9, 42, 0
1, 165599, Note_on_c, 9, 36, 0
1, 165600, Note_on_c, 9, 40, 112
1, 165600, Note_on_c, 9, 36, 52
1, 165614, Note_on_c, 9, 40, 0
1, 165615, Note_on_c, 9, 42, 95
1, 165839, Note_on_c, 9, 42, 0
1, 165840, Note_on_c, 9, 42, 59
1, 165959, Note_on_c, 9, 36, 0
1, 165990, Note_on_c, 9, 36, 66
1, 166079, Note_on_c, 9, 42, 0
1, 166079, Note_on_c, 9, 36, 0
1, 166080, Note_on_c, 9, 42, 93
1, 166080, Note_on_c, 9, 36, 94
1, 166319, Note_on_c, 9, 42, 0
1, 166320, Note_on_c, 9, 42, 64
1, 166439, Note_on_c, 9, 36, 0
1, 166470, Note_on_c, 9, 36, 66
1, 166559, Note_on_c, 9, 42, 0
1, 166559, Note_on_c, 9, 36, 0
1, 166560, Note_on_c, 9, 40, 120
1, 166560, Note_on_c, 9, 42, 97
1, 166560, Note_on_c, 9, 36, 55
1, 166799, Note_on_c, 9, 40, 0
1, 166799, Note_on_c, 9, 42, 0
1, 166800, Note_on_c, 9, 42, 56
1, 166919, Note_on_c, 9, 36, 0
1, 166919, Note_on_c, 9, 42, 0
1, 166950, Note_on_c, 9, 42, 46
1, 166950, Note_on_c, 9, 36, 68
1, 167039, Note_on_c, 9, 42, 0
1, 167039, Note_on_c, 9, 36, 0
1, 167040, Note_on_c, 9, 42, 89
1, 167040, Note_on_c, 9, 36, 96
1, 167279, Note_on_c, 9, 42, 0
1, 167280, Note_on_c, 9, 42, 80
1, 167399, Note_on_c, 9, 36, 0
1, 167430, Note_on_c, 9, 36, 56
1, 167519, Note_on_c, 9, 42, 0
1, 167519, Note_on_c, 9, 36, 0
1, 167520, Note_on_c, 9, 40, 112
1, 167520, Note_on_c, 9, 36, 52
1, 167534, Note_on_c, 9, 40, 0
1, 167535, Note_on_c, 9, 42, 95
1, 167759, Note_on_c, 9, 42, 0
1, 167760, Note_on_c, 9, 42, 59
1, 167879, Note_on_c, 9, 36, 0
1, 167910, Note_on_c, 9, 36, 66
1, 167999, Note_on_c, 9, 42, 0
1, 167999, Note_on_c, 9, 36, 0
1, 168000, Note_on_c, 9, 42, 93
1, 168000, Note_on_c, 9, 36, 94
1, 168239, Note_on_c, 9, 42, 0
1, 168240, Note_on_c, 9, 42, 64
1, 168359, Note_on_c, 9, 36, 0
1, 168390, Note_on_c, 9, 36, 66
1, 168479, Note_on_c, 9, 42, 0
1, 168479, Note_on_c, 9, 36, 0
1, 168480, Note_on_c, 9, 40, 120
1, 168480, Note_on_c, 9, 42, 97
1, 168480, Note_on_c, 9, 36, 55
1, 168719, Note_on_c, 9, 40, 0
1, 168719, Note_on_c, 9, 42, 0
1, 168720, Note_on_c, 9, 42, 56
1, 168839, Note_on_c, 9, 36, 0
1, 168839, Note_on_c, 9, 42, 0
1, 168870, Note_on_c, 9, 42, 46
1, 168870, Note_on_c, 9, 36, 68
1, 168959, Note_on_c, 9, 42, 0
1, 168959, Note_on_c, 9, 36, 0
1, 168960, Note_on_c, 9, 42, 89
1, 168960, Note_on_c, 9, 36, 96
1, 169199, Note_on_c, 9, 42, 0
1, 169200, Note_on_c, 9, 42, 80
1, 169319, Note_on_c, 9, 36, 0
1, 169350, Note_on_c, 9, 36, 69
1, 169439, Note_on_c, 9, 42, 0
1, 169439, Note_on_c, 9, 36, 0
1, 169440, Note_on_c, 9, 40, 112
1, 169440, Note_on_c, 9, 36, 47
1, 169454, Note_on_c, 9, 40, 0
1, 169455, Note_on_c, 9, 42, 95
1, 169679, Note_on_c, 9, 42, 0
1, 169680, Note_on_c, 9, 42, 59
1, 169799, Note_on_c, 9, 36, 0
1, 169830, Note_on_c, 9, 36, 57
1, 169919, Note_on_c, 9, 42, 0
1, 169919, Note_on_c, 9, 36, 0
1, 169920, Note_on_c, 9, 42, 93
1, 169920, Note_on_c, 9, 36, 81
1, 170159, Note_on_c, 9, 42, 0
1, 170160, Note_on_c, 9, 42, 64
1, 170279, Note_on_c, 9, 36, 0
1, 170310, Note_on_c, 9, 36, 74
1, 170399, Note_on_c, 9, 42, 0
1, 170399, Note_on_c, 9, 36, 0
1, 170400, Note_on_c, 9, 40, 120
1, 170400, Note_on_c, 9, 42, 97
1, 170400, Note_on_c, 9, 36, 50
1, 170639, Note_on_c, 9, 40, 0
1, 170639, Note_on_c, 9, 42, 0
1, 170640, Note_on_c, 9, 42, 56
1, 170699, Note_on_c, 9, 42, 0
1, 170740, Note_on_c, 9, 40, 64
1, 170759, Note_on_c, 9, 36, 0
1, 170759, Note_on_c, 9, 40, 0
1, 170790, Note_on_c, 9, 42, 46
1, 170790, Note_on_c, 9, 36, 53
1, 170804, Note_on_c, 9, 42, 0
1, 170805, Note_on_c, 9, 40, 89
1, 170819, Note_on_c, 9, 40, 0
1, 170879, Note_on_c, 9, 36, 0
1, 170880, Note_on_c, 9, 40, 111
1, 170880, Note_on_c, 9, 42, 89
1, 170880, Note_on_c, 9, 36, 98
1, 171119, Note_on_c, 9, 40, 0
1, 171119, Note_on_c, 9, 42, 0
1, 171120, Note_on_c, 9, 42, 80
1, 171359, Note_on_c, 9, 36, 0
1, 171359, Note_on_c, 9, 42, 0
1, 171360, Note_on_c, 9, 42, 95
1, 171360, Note_on_c, 9, 36, 75
1, 171599, Note_on_c, 9, 42, 0
1, 171600, Note_on_c, 9, 42, 59
1, 171839, Note_on_c, 9, 36, 0
1, 171839, Note_on_c, 9, 42, 0
1, 171840, Note_on_c, 9, 42, 93
1, 171840, Note_on_c, 9, 36, 84
1, 172079, Note_on_c, 9, 42, 0
1, 172079, Note_on_c, 9, 36, 0
1, 172080, Note_on_c, 9, 42, 64
1, 172080, Note_on_c, 9, 36, 72
1, 172319, Note_on_c, 9, 42, 0
1, 172319, Note_on_c, 9, 36, 0
1, 172320, Note_on_c, 9, 42, 97
1, 172320, Note_on_c, 9, 36, 83
1, 172559, Note_on_c, 9, 42, 0
1, 172559, Note_on_c, 9, 36, 0
1, 172560, Note_on_c, 9, 46, 113
1, 172560, Note_on_c, 9, 36, 85
1, 172799, Note_on_c, 9, 46, 0
1, 172799, Note_on_c, 9, 36, 0
1, 173040, Note_on_c, 9, 49, 103
1, 173040, Note_on_c, 9, 36, 112
1, 173279, Note_on_c, 9, 49, 0
1, 173279, Note_on_c, 9, 36, 0
1, 173280, End_track
0, 0, End_of_file
