0, 0, Header, 1, 1, 480
1, 0, Start_track
1, 0, Time_signature, 4, 2, 24, 8
1, 0, Key_signature, 0, "major"
1, 0, Tempo, 500000
1, 0, Control_c, 9, 121, 0
1, 0, Program_c, 9, 0
1, 0, Control_c, 9, 7, 100
1, 0, Control_c, 9, 10, 64
1, 0, Control_c, 9, 91, 0
1, 0, Control_c, 9, 93, 0
1, 0, MIDI_port, 0
1, 3840, Note_on_c, 9, 42, 82
1, 3840, Note_on_c, 9, 35, 119
1, 4079, Note_on_c, 9, 42, 0
1, 4080, Note_on_c, 9, 42, 50
1, 4319, Note_on_c, 9, 35, 0
1, 4319, Note_on_c, 9, 42, 0
1, 4320, Note_on_c, 9, 42, 96
1, 4320, Note_on_c, 9, 35, 116
1, 4559, Note_on_c, 9, 42, 0
1, 4560, Note_on_c, 9, 42, 53
1, 4799, Note_on_c, 9, 35, 0
1, 4799, Note_on_c, 9, 42, 0
1, 4800, Note_on_c, 9, 42, 73
1, 4800, Note_on_c, 9, 35, 117
1, 5039, Note_on_c, 9, 42, 0
1, 5040, Note_on_c, 9, 42, 44
1, 5279, Note_on_c, 9, 35, 0
1, 5279, Note_on_c, 9, 42, 0
1, 5280, Note_on_c, 9, 42, 100
1, 5280, Note_on_c, 9, 35, 114
1, 5519, Note_on_c, 9, 42, 0
1, 5520, Note_on_c, 9, 42, 46
1, 5759, Note_on_c, 9, 35, 0
1, 5759, Note_on_c, 9, 42, 0
1, 5760, Note_on_c, 9, 42, 81
1, 5760, Note_on_c, 9, 35, 118
1, 5999, Note_on_c, 9, 42, 0
1, 6000, Note_on_c, 9, 42, 41
1, 6239, Note_on_c, 9, 35, 0
1, 6239, Note_on_c, 9, 42, 0
1, 6240, Note_on_c, 9, 42, 95
1, 6240, Note_on_c, 9, 35, 114
1, 6479, Note_on_c, 9, 42, 0
1, 6480, Note_on_c, 9, 42, 51
1, 6719, Note_on_c, 9, 35, 0
1, 6719, Note_on_c, 9, 42, 0
1, 6720, Note_on_c, 9, 42, 69
1, 6720, Note_on_c, 9, 35, 117
1, 6959, Note_on_c, 9, 42, 0
1, 6960, Note_on_c, 9, 42, 41
1, 7199, Note_on_c, 9, 35, 0
1, 7199, Note_on_c, 9, 42, 0
1, 7200, Note_on_c, 9, 42, 102
1, 7200, Note_on_c, 9, 35, 115
1, 7439, Note_on_c, 9, 42, 0
1, 7440, Note_on_c, 9, 42, 37
1, 7679, Note_on_c, 9, 35, 0
1, 7679, Note_on_c, 9, 42, 0
1, 7680, Note_on_c, 9, 42, 76
1, 7680, Note_on_c, 9, 35, 119
1, 7919, Note_on_c, 9, 42, 0
1, 7920, Note_on_c, 9, 42, 45
1, 8159, Note_on_c, 9, 35, 0
1, 8159, Note_on_c, 9, 42, 0
1, 8160, Note_on_c, 9, 42, 96
1, 8160, Note_on_c, 9, 35, 115
1, 8399, Note_on_c, 9, 42, 0
1, 8400, Note_on_c, 9, 42, 55
1, 8639, Note_on_c, 9, 35, 0
1, 8639, Note_on_c, 9, 42, 0
1, 8640, Note_on_c, 9, 42, 65
1, 8640, Note_on_c, 9, 35, 117
1, 8879, Note_on_c, 9, 42, 0
1, 8880, Note_on_c, 9, 42, 39
1, 9119, Note_on_c, 9, 35, 0
1, 9119, Note_on_c, 9, 42, 0
1, 9120, Note_on_c, 9, 42, 104
1, 9120, Note_on_c, 9, 35, 114
1, 9359, Note_on_c, 9, 42, 0
1, 9360, Note_on_c, 9, 42, 43
1, 9599, Note_on_c, 9, 35, 0
1, 9599, Note_on_c, 9, 42, 0
1, 9600, Note_on_c, 9, 42, 81
1, 9600, Note_on_c, 9, 35, 118
1, 9839, Note_on_c, 9, 42, 0
1, 9840, Note_on_c, 9, 42, 44
1, 10079, Note_on_c, 9, 35, 0
1, 10079, Note_on_c, 9, 42, 0
1, 10080, Note_on_c, 9, 42, 100
1, 10080, Note_on_c, 9, 35, 115
1, 10319, Note_on_c, 9, 42, 0
1, 10320, Note_on_c, 9, 42, 53
1, 10559, Note_on_c, 9, 35, 0
1, 10559, Note_on_c, 9, 42, 0
1, 10560, Note_on_c, 9, 42, 62
1, 10560, Note_on_c, 9, 35, 117
1, 10799, Note_on_c, 9, 42, 0
1, 10800, Note_on_c, 9, 42, 44
1, 11039, Note_on_c, 9, 35, 0
1, 11039, Note_on_c, 9, 42, 0
1, 11040, Note_on_c, 9, 38, 126
1, 11040, Note_on_c, 9, 42, 102
1, 11279, Note_on_c, 9, 38, 0
1, 11279, Note_on_c, 9, 42, 0
1, 11280, Note_on_c, 9, 46, 69
1, 11519, Note_on_c, 9, 46, 0
1, 11520, Note_on_c, 9, 42, 85
1, 11520, Note_on_c, 9, 35, 119
1, 11759, Note_on_c, 9, 42, 0
1, 11760, Note_on_c, 9, 42, 41
1, 11999, Note_on_c, 9, 35, 0
1, 11999, Note_on_c, 9, 42, 0
1, 12000, Note_on_c, 9, 42, 94
1, 12000, Note_on_c, 9, 35, 116
1, 12239, Note_on_c, 9, 42, 0
1, 12240, Note_on_c, 9, 42, 40
1, 12479, Note_on_c, 9, 35, 0
1, 12479, Note_on_c, 9, 42, 0
1, 12480, Note_on_c, 9, 42, 55
1, 12480, Note_on_c, 9, 35, 117
1, 12719, Note_on_c, 9, 42, 0
1, 12720, Note_on_c, 9, 42, 42
1, 12959, Note_on_c, 9, 35, 0
1, 12959, Note_on_c, 9, 42, 0
1, 12960, Note_on_c, 9, 42, 92
1, 12960, Note_on_c, 9, 35, 114
1, 13199, Note_on_c, 9, 42, 0
1, 13200, Note_on_c, 9, 42, 59
1, 13439, Note_on_c, 9, 35, 0
1, 13439, Note_on_c, 9, 42, 0
1, 13440, Note_on_c, 9, 42, 73
1, 13440, Note_on_c, 9, 35, 118
1, 13679, Note_on_c, 9, 42, 0
1, 13680, Note_on_c, 9, 42, 57
1, 13919, Note_on_c, 9, 35, 0
1, 13919, Note_on_c, 9, 42, 0
1, 13920, Note_on_c, 9, 42, 94
1, 13920, Note_on_c, 9, 35, 114
1, 14159, Note_on_c, 9, 42, 0
1, 14160, Note_on_c, 9, 42, 54
1, 14399, Note_on_c, 9, 35, 0
1, 14399, Note_on_c, 9, 42, 0
1, 14400, Note_on_c, 9, 42, 62
1, 14400, Note_on_c, 9, 35, 117
1, 14639, Note_on_c, 9, 42, 0
1, 14640, Note_on_c, 9, 42, 35
1, 14879, Note_on_c, 9, 35, 0
1, 14879, Note_on_c, 9, 42, 0
1, 14880, Note_on_c, 9, 42, 88
1, 14880, Note_on_c, 9, 35, 115
1, 15119, Note_on_c, 9, 42, 0
1, 15120, Note_on_c, 9, 42, 58
1, 15359, Note_on_c, 9, 35, 0
1, 15359, Note_on_c, 9, 42, 0
1, 15360, Note_on_c, 9, 42, 80
1, 15360, Note_on_c, 9, 35, 119
1, 15599, Note_on_c, 9, 42, 0
1, 15600, Note_on_c, 9, 42, 50
1, 15839, Note_on_c, 9, 35, 0
1, 15839, Note_on_c, 9, 42, 0
1, 15840, Note_on_c, 9, 42, 90
1, 15840, Note_on_c, 9, 35, 115
1, 16079, Note_on_c, 9, 42, 0
1, 16080, Note_on_c, 9, 42, 44
1, 16319, Note_on_c, 9, 35, 0
1, 16319, Note_on_c, 9, 42, 0
1, 16320, Note_on_c, 9, 42, 56
1, 16320, Note_on_c, 9, 35, 117
1, 16559, Note_on_c, 9, 42, 0
1, 16560, Note_on_c, 9, 42, 47
1, 16799, Note_on_c, 9, 35, 0
1, 16799, Note_on_c, 9, 42, 0
1, 16800, Note_on_c, 9, 42, 92
1, 16800, Note_on_c, 9, 35, 114
1, 17039, Note_on_c, 9, 42, 0
1, 17040, Note_on_c, 9, 42, 49
1, 17279, Note_on_c, 9, 35, 0
1, 17279, Note_on_c, 9, 42, 0
1, 17280, Note_on_c, 9, 42, 68
1, 17280, Note_on_c, 9, 35, 118
1, 17519, Note_on_c, 9, 42, 0
1, 17520, Note_on_c, 9, 42, 59
1, 17759, Note_on_c, 9, 35, 0
1, 17759, Note_on_c, 9, 42, 0
1, 17760, Note_on_c, 9, 42, 92
1, 17760, Note_on_c, 9, 35, 115
1, 17999, Note_on_c, 9, 42, 0
1, 18000, Note_on_c, 9, 42, 51
1, 18239, Note_on_c, 9, 35, 0
1, 18239, Note_on_c, 9, 42, 0
1, 18240, Note_on_c, 9, 42, 57
1, 18240, Note_on_c, 9, 35, 117
1, 18479, Note_on_c, 9, 42, 0
1, 18480, Note_on_c, 9, 42, 45
1, 18719, Note_on_c, 9, 35, 0
1, 18719, Note_on_c, 9, 42, 0
1, 18720, Note_on_c, 9, 38, 121
1, 18720, Note_on_c, 9, 42, 88
1, 18959, Note_on_c, 9, 38, 0
1, 18959, Note_on_c, 9, 42, 0
1, 18960, Note_on_c, 9, 46, 61
1, 19199, Note_on_c, 9, 46, 0
1, 19200, Note_on_c, 9, 42, 82
1, 19200, Note_on_c, 9, 35, 119
1, 19439, Note_on_c, 9, 42, 0
1, 19440, Note_on_c, 9, 42, 50
1, 19679, Note_on_c, 9, 35, 0
1, 19679, Note_on_c, 9, 42, 0
1, 19680, Note_on_c, 9, 42, 96
1, 19680, Note_on_c, 9, 35, 116
1, 19919, Note_on_c, 9, 42, 0
1, 19920, Note_on_c, 9, 42, 53
1, 20159, Note_on_c, 9, 35, 0
1, 20159, Note_on_c, 9, 42, 0
1, 20160, Note_on_c, 9, 42, 73
1, 20160, Note_on_c, 9, 35, 117
1, 20399, Note_on_c, 9, 42, 0
1, 20400, Note_on_c, 9, 42, 44
1, 20639, Note_on_c, 9, 35, 0
1, 20639, Note_on_c, 9, 42, 0
1, 20640, Note_on_c, 9, 42, 100
1, 20640, Note_on_c, 9, 35, 114
1, 20879, Note_on_c, 9, 42, 0
1, 20880, Note_on_c, 9, 42, 46
1, 21119, Note_on_c, 9, 35, 0
1, 21119, Note_on_c, 9, 42, 0
1, 21120, Note_on_c, 9, 42, 81
1, 21120, Note_on_c, 9, 35, 118
1, 21359, Note_on_c, 9, 42, 0
1, 21360, Note_on_c, 9, 42, 41
1, 21599, Note_on_c, 9, 35, 0
1, 21599, Note_on_c, 9, 42, 0
1, 21600, Note_on_c, 9, 42, 95
1, 21600, Note_on_c, 9, 35, 114
1, 21839, Note_on_c, 9, 42, 0
1, 21840, Note_on_c, 9, 42, 51
1, 22079, Note_on_c, 9, 35, 0
1, 22079, Note_on_c, 9, 42, 0
1, 22080, Note_on_c, 9, 42, 69
1, 22080, Note_on_c, 9, 35, 117
1, 22319, Note_on_c, 9, 42, 0
1, 22320, Note_on_c, 9, 42, 41
1, 22559, Note_on_c, 9, 35, 0
1, 22559, Note_on_c, 9, 42, 0
1, 22560, Note_on_c, 9, 42, 102
1, 22560, Note_on_c, 9, 35, 115
1, 22799, Note_on_c, 9, 42, 0
1, 22800, Note_on_c, 9, 42, 37
1, 23039, Note_on_c, 9, 35, 0
1, 23039, Note_on_c, 9, 42, 0
1, 23040, Note_on_c, 9, 42, 76
1, 23040, Note_on_c, 9, 35, 119
1, 23279, Note_on_c, 9, 42, 0
1, 23280, Note_on_c, 9, 42, 45
1, 23519, Note_on_c, 9, 35, 0
1, 23519, Note_on_c, 9, 42, 0
1, 23520, Note_on_c, 9, 42, 96
1, 23520, Note_on_c, 9, 35, 115
1, 23759, Note_on_c, 9, 42, 0
1, 23760, Note_on_c, 9, 42, 55
1, 23999, Note_on_c, 9, 35, 0
1, 23999, Note_on_c, 9, 42, 0
1, 24000, Note_on_c, 9, 42, 65
1, 24000, Note_on_c, 9, 35, 117
1, 24239, Note_on_c, 9, 42, 0
1, 24240, Note_on_c, 9, 42, 39
1, 24479, Note_on_c, 9, 35, 0
1, 24479, Note_on_c, 9, 42, 0
1, 24480, Note_on_c, 9, 42, 104
1, 24480, Note_on_c, 9, 35, 114
1, 24719, Note_on_c, 9, 42, 0
1, 24720, Note_on_c, 9, 42, 43
1, 24959, Note_on_c, 9, 35, 0
1, 24959, Note_on_c, 9, 42, 0
1, 24960, Note_on_c, 9, 42, 81
1, 24960, Note_on_c, 9, 35, 118
1, 25199, Note_on_c, 9, 42, 0
1, 25200, Note_on_c, 9, 42, 44
1, 25439, Note_on_c, 9, 35, 0
1, 25439, Note_on_c, 9, 42, 0
1, 25440, Note_on_c, 9, 42, 100
1, 25440, Note_on_c, 9, 35, 115
1, 25679, Note_on_c, 9, 42, 0
1, 25680, Note_on_c, 9, 42, 53
1, 25919, Note_on_c, 9, 35, 0
1, 25919, Note_on_c, 9, 42, 0
1, 25920, Note_on_c, 9, 42, 62
1, 25920, Note_on_c, 9, 35, 117
1, 26159, Note_on_c, 9, 42, 0
1, 26160, Note_on_c, 9, 42, 44
1, 26399, Note_on_c, 9, 35, 0
1, 26399, Note_on_c, 9, 42, 0
1, 26400, Note_on_c, 9, 38, 123
1, 26400, Note_on_c, 9, 42, 102
1, 26639, Note_on_c, 9, 38, 0
1, 26639, Note_on_c, 9, 42, 0
1, 26640, Note_on_c, 9, 46, 74
1, 26879, Note_on_c, 9, 46, 0
1, 26880, Note_on_c, 9, 42, 85
1, 26880, Note_on_c, 9, 35, 120
1, 27119, Note_on_c, 9, 42, 0
1, 27120, Note_on_c, 9, 42, 41
1, 27359, Note_on_c, 9, 35, 0
1, 27359, Note_on_c, 9, 42, 0
1, 27360, Note_on_c, 9, 38, 127
1, 27360, Note_on_c, 9, 42, 94
1, 27599, Note_on_c, 9, 38, 0
1, 27599, Note_on_c, 9, 42, 0
1, 27600, Note_on_c, 9, 42, 40
1, 27839, Note_on_c, 9, 42, 0
1, 27840, Note_on_c, 9, 42, 55
1, 27840, Note_on_c, 9, 35, 118
1, 28079, Note_on_c, 9, 42, 0
1, 28080, Note_on_c, 9, 42, 42
1, 28319, Note_on_c, 9, 35, 0
1, 28319, Note_on_c, 9, 42, 0
1, 28320, Note_on_c, 9, 38, 125
1, 28320, Note_on_c, 9, 42, 92
1, 28559, Note_on_c, 9, 38, 0
1, 28559, Note_on_c, 9, 42, 0
1, 28560, Note_on_c, 9, 42, 59
1, 28799, Note_on_c, 9, 42, 0
1, 28800, Note_on_c, 9, 42, 73
1, 28800, Note_on_c, 9, 35, 119
1, 29039, Note_on_c, 9, 42, 0
1, 29040, Note_on_c, 9, 42, 57
1, 29279, Note_on_c, 9, 35, 0
1, 29279, Note_on_c, 9, 42, 0
1, 29280, Note_on_c, 9, 38, 127
1, 29280, Note_on_c, 9, 42, 94
1, 29519, Note_on_c, 9, 38, 0
1, 29519, Note_on_c, 9, 42, 0
1, 29520, Note_on_c, 9, 42, 54
1, 29759, Note_on_c, 9, 42, 0
1, 29760, Note_on_c, 9, 42, 62
1, 29760, Note_on_c, 9, 35, 120
1, 29999, Note_on_c, 9, 42, 0
1, 30000, Note_on_c, 9, 42, 35
1, 30239, Note_on_c, 9, 35, 0
1, 30239, Note_on_c, 9, 42, 0
1, 30240, Note_on_c, 9, 38, 127
1, 30240, Note_on_c, 9, 42, 88
1, 30479, Note_on_c, 9, 38, 0
1, 30479, Note_on_c, 9, 42, 0
1, 30480, Note_on_c, 9, 42, 58
1, 30719, Note_on_c, 9, 42, 0
1, 30720, Note_on_c, 9, 42, 80
1, 30720, Note_on_c, 9, 35, 120
1, 30959, Note_on_c, 9, 42, 0
1, 30960, Note_on_c, 9, 42, 50
1, 31199, Note_on_c, 9, 35, 0
1, 31199, Note_on_c, 9, 42, 0
1, 31200, Note_on_c, 9, 38, 127
1, 31200, Note_on_c, 9, 42, 90
1, 31439, Note_on_c, 9, 38, 0
1, 31439, Note_on_c, 9, 42, 0
1, 31440, Note_on_c, 9, 42, 44
1, 31679, Note_on_c, 9, 42, 0
1, 31680, Note_on_c, 9, 42, 56
1, 31680, Note_on_c, 9, 35, 117
1, 31919, Note_on_c, 9, 42, 0
1, 31920, Note_on_c, 9, 42, 47
1, 32159, Note_on_c, 9, 35, 0
1, 32159, Note_on_c, 9, 42, 0
1, 32160, Note_on_c, 9, 38, 125
1, 32160, Note_on_c, 9, 42, 92
1, 32399, Note_on_c, 9, 38, 0
1, 32399, Note_on_c, 9, 42, 0
1, 32400, Note_on_c, 9, 42, 49
1, 32639, Note_on_c, 9, 42, 0
1, 32640, Note_on_c, 9, 42, 68
1, 32640, Note_on_c, 9, 35, 118
1, 32879, Note_on_c, 9, 42, 0
1, 32880, Note_on_c, 9, 42, 59
1, 33119, Note_on_c, 9, 35, 0
1, 33119, Note_on_c, 9, 42, 0
1, 33120, Note_on_c, 9, 38, 125
1, 33120, Note_on_c, 9, 42, 92
1, 33359, Note_on_c, 9, 38, 0
1, 33359, Note_on_c, 9, 42, 0
1, 33360, Note_on_c, 9, 42, 51
1, 33599, Note_on_c, 9, 42, 0
1, 33600, Note_on_c, 9, 42, 57
1, 33600, Note_on_c, 9, 35, 118
1, 33839, Note_on_c, 9, 42, 0
1, 33840, Note_on_c, 9, 42, 45
1, 34064, Note_on_c, 9, 42, 0
1, 34065, Note_on_c, 9, 38, 127
1, 34079, Note_on_c, 9, 35, 0
1, 34080, Note_on_c, 9, 42, 88
1, 34319, Note_on_c, 9, 38, 0
1, 34319, Note_on_c, 9, 42, 0
1, 34320, Note_on_c, 9, 46, 70
1, 34559, Note_on_c, 9, 46, 0
1, 34560, Note_on_c, 9, 42, 82
1, 34560, Note_on_c, 9, 35, 118
1, 34799, Note_on_c, 9, 42, 0
1, 34800, Note_on_c, 9, 42, 50
1, 35039, Note_on_c, 9, 35, 0
1, 35039, Note_on_c, 9, 42, 0
1, 35040, Note_on_c, 9, 38, 125
1, 35040, Note_on_c, 9, 42, 96
1, 35279, Note_on_c, 9, 38, 0
1, 35279, Note_on_c, 9, 42, 0
1, 35280, Note_on_c, 9, 42, 53
1, 35519, Note_on_c, 9, 42, 0
1, 35520, Note_on_c, 9, 42, 73
1, 35520, Note_on_c, 9, 35, 118
1, 35759, Note_on_c, 9, 42, 0
1, 35760, Note_on_c, 9, 42, 44
1, 35999, Note_on_c, 9, 35, 0
1, 35999, Note_on_c, 9, 42, 0
1, 36000, Note_on_c, 9, 38, 127
1, 36000, Note_on_c, 9, 42, 100
1, 36239, Note_on_c, 9, 38, 0
1, 36239, Note_on_c, 9, 42, 0
1, 36240, Note_on_c, 9, 42, 46
1, 36479, Note_on_c, 9, 42, 0
1, 36480, Note_on_c, 9, 42, 81
1, 36480, Note_on_c, 9, 35, 118
1, 36719, Note_on_c, 9, 42, 0
1, 36720, Note_on_c, 9, 42, 41
1, 36959, Note_on_c, 9, 35, 0
1, 36959, Note_on_c, 9, 42, 0
1, 36960, Note_on_c, 9, 38, 125
1, 36960, Note_on_c, 9, 42, 95
1, 37199, Note_on_c, 9, 38, 0
1, 37199, Note_on_c, 9, 42, 0
1, 37200, Note_on_c, 9, 42, 51
1, 37439, Note_on_c, 9, 42, 0
1, 37440, Note_on_c, 9, 42, 69
1, 37440, Note_on_c, 9, 35, 119
1, 37679, Note_on_c, 9, 42, 0
1, 37680, Note_on_c, 9, 42, 41
1, 37919, Note_on_c, 9, 35, 0
1, 37919, Note_on_c, 9, 42, 0
1, 37920, Note_on_c, 9, 38, 119
1, 37920, Note_on_c, 9, 42, 102
1, 38159, Note_on_c, 9, 38, 0
1, 38159, Note_on_c, 9, 42, 0
1, 38160, Note_on_c, 9, 42, 37
1, 38279, Note_on_c, 9, 42, 0
1, 38280, Note_on_c, 9, 38, 102
1, 38399, Note_on_c, 9, 38, 0
1, 38400, Note_on_c, 9, 42, 76
1, 38400, Note_on_c, 9, 35, 119
1, 38639, Note_on_c, 9, 42, 0
1, 38640, Note_on_c, 9, 42, 45
1, 38879, Note_on_c, 9, 35, 0
1, 38879, Note_on_c, 9, 42, 0
1, 38880, Note_on_c, 9, 38, 126
1, 38880, Note_on_c, 9, 42, 96
1, 39119, Note_on_c, 9, 38, 0
1, 39119, Note_on_c, 9, 42, 0
1, 39120, Note_on_c, 9, 42, 55
1, 39359, Note_on_c, 9, 42, 0
1, 39360, Note_on_c, 9, 42, 65
1, 39360, Note_on_c, 9, 35, 116
1, 39599, Note_on_c, 9, 42, 0
1, 39600, Note_on_c, 9, 42, 39
1, 39839, Note_on_c, 9, 35, 0
1, 39839, Note_on_c, 9, 42, 0
1, 39840, Note_on_c, 9, 38, 127
1, 39840, Note_on_c, 9, 42, 104
1, 40079, Note_on_c, 9, 38, 0
1, 40079, Note_on_c, 9, 42, 0
1, 40080, Note_on_c, 9, 42, 43
1, 40319, Note_on_c, 9, 42, 0
1, 40320, Note_on_c, 9, 42, 81
1, 40320, Note_on_c, 9, 35, 121
1, 40559, Note_on_c, 9, 42, 0
1, 40560, Note_on_c, 9, 42, 44
1, 40799, Note_on_c, 9, 35, 0
1, 40799, Note_on_c, 9, 42, 0
1, 40800, Note_on_c, 9, 38, 127
1, 40800, Note_on_c, 9, 42, 100
1, 41039, Note_on_c, 9, 38, 0
1, 41039, Note_on_c, 9, 42, 0
1, 41040, Note_on_c, 9, 42, 53
1, 41279, Note_on_c, 9, 42, 0
1, 41280, Note_on_c, 9, 42, 62
1, 41280, Note_on_c, 9, 35, 117
1, 41399, Note_on_c, 9, 42, 0
1, 41400, Note_on_c, 9, 38, 127
1, 41519, Note_on_c, 9, 38, 0
1, 41520, Note_on_c, 9, 38, 127
1, 41639, Note_on_c, 9, 35, 0
1, 41640, Note_on_c, 9, 35, 123
1, 41759, Note_on_c, 9, 38, 0
1, 41759, Note_on_c, 9, 35, 0
1, 41760, Note_on_c, 9, 42, 102
1, 41879, Note_on_c, 9, 42, 0
1, 41880, Note_on_c, 9, 38, 101
1, 41999, Note_on_c, 9, 38, 0
1, 42000, Note_on_c, 9, 38, 115
1, 42119, Note_on_c, 9, 38, 0
1, 42120, Note_on_c, 9, 38, 127
1, 42239, Note_on_c, 9, 38, 0
1, 42240, Note_on_c, 9, 49, 87
1, 42240, Note_on_c, 9, 35, 122
1, 42359, Note_on_c, 9, 49, 0
1, 42360, Note_on_c, 9, 42, 78
1, 42479, Note_on_c, 9, 42, 0
1, 42480, Note_on_c, 9, 42, 116
1, 42599, Note_on_c, 9, 42, 0
1, 42600, Note_on_c, 9, 42, 87
1, 42719, Note_on_c, 9, 35, 0
1, 42719, Note_on_c, 9, 42, 0
1, 42720, Note_on_c, 9, 38, 127
1, 42734, Note_on_c, 9, 38, 0
1, 42735, Note_on_c, 9, 42, 61
1, 42779, Note_on_c, 9, 42, 0
1, 42840, Note_on_c, 9, 42, 75
1, 42959, Note_on_c, 9, 42, 0
1, 42960, Note_on_c, 9, 42, 119
1, 43079, Note_on_c, 9, 42, 0
1, 43080, Note_on_c, 9, 42, 80
1, 43199, Note_on_c, 9, 42, 0
1, 43200, Note_on_c, 9, 42, 67
1, 43200, Note_on_c, 9, 35, 122
1, 43319, Note_on_c, 9, 42, 0
1, 43320, Note_on_c, 9, 42, 81
1, 43439, Note_on_c, 9, 42, 0
1, 43440, Note_on_c, 9, 42, 122
1, 43529, Note_on_c, 9, 42, 0
1, 43545, Note_on_c, 9, 42, 76
1, 43559, Note_on_c, 9, 35, 0
1, 43560, Note_on_c, 9, 39, 121
1, 43560, Note_on_c, 9, 35, 117
1, 43679, Note_on_c, 9, 42, 0
1, 43679, Note_on_c, 9, 39, 0
1, 43679, Note_on_c, 9, 35, 0
1, 43680, Note_on_c, 9, 38, 127
1, 43680, Note_on_c, 9, 42, 67
1, 43799, Note_on_c, 9, 38, 0
1, 43799, Note_on_c, 9, 42, 0
1, 43800, Note_on_c, 9, 42, 70
1, 43800, Note_on_c, 9, 35, 122
1, 43919, Note_on_c, 9, 42, 0
1, 43920, Note_on_c, 9, 42, 122
1, 44039, Note_on_c, 9, 42, 0
1, 44040, Note_on_c, 9, 46, 76
1, 44159, Note_on_c, 9, 35, 0
1, 44159, Note_on_c, 9, 46, 0
1, 44160, Note_on_c, 9, 42, 59
1, 44160, Note_on_c, 9, 35, 122
1, 44279, Note_on_c, 9, 42, 0
1, 44280, Note_on_c, 9, 42, 73
1, 44399, Note_on_c, 9, 42, 0
1, 44400, Note_on_c, 9, 42, 122
1, 44519, Note_on_c, 9, 42, 0
1, 44520, Note_on_c, 9, 42, 74
1, 44639, Note_on_c, 9, 35, 0
1, 44639, Note_on_c, 9, 42, 0
1, 44640, Note_on_c, 9, 42, 61
1, 44654, Note_on_c, 9, 42, 0
1, 44655, Note_on_c, 9, 38, 127
1, 44699, Note_on_c, 9, 38, 0
1, 44760, Note_on_c, 9, 42, 70
1, 44879, Note_on_c, 9, 42, 0
1, 44880, Note_on_c, 9, 42, 118
1, 44999, Note_on_c, 9, 42, 0
1, 45000, Note_on_c, 9, 42, 75
1, 45119, Note_on_c, 9, 42, 0
1, 45120, Note_on_c, 9, 42, 59
1, 45120, Note_on_c, 9, 35, 116
1, 45239, Note_on_c, 9, 42, 0
1, 45240, Note_on_c, 9, 42, 75
1, 45359, Note_on_c, 9, 42, 0
1, 45360, Note_on_c, 9, 42, 119
1, 45479, Note_on_c, 9, 35, 0
1, 45479, Note_on_c, 9, 42, 0
1, 45480, Note_on_c, 9, 42, 70
1, 45480, Note_on_c, 9, 35, 115
1, 45494, Note_on_c, 9, 42, 0
1, 45495, Note_on_c, 9, 39, 122
1, 45539, Note_on_c, 9, 39, 0
1, 45599, Note_on_c, 9, 35, 0
1, 45600, Note_on_c, 9, 38, 127
1, 45600, Note_on_c, 9, 42, 60
1, 45719, Note_on_c, 9, 38, 0
1, 45719, Note_on_c, 9, 42, 0
1, 45720, Note_on_c, 9, 42, 75
1, 45720, Note_on_c, 9, 35, 121
1, 45839, Note_on_c, 9, 42, 0
1, 45840, Note_on_c, 9, 42, 116
1, 45959, Note_on_c, 9, 42, 0
1, 45960, Note_on_c, 9, 42, 74
1, 46079, Note_on_c, 9, 35, 0
1, 46079, Note_on_c, 9, 42, 0
1, 46080, Note_on_c, 9, 42, 50
1, 46080, Note_on_c, 9, 35, 120
1, 46199, Note_on_c, 9, 42, 0
1, 46200, Note_on_c, 9, 42, 70
1, 46319, Note_on_c, 9, 42, 0
1, 46320, Note_on_c, 9, 42, 116
1, 46439, Note_on_c, 9, 42, 0
1, 46440, Note_on_c, 9, 42, 70
1, 46559, Note_on_c, 9, 35, 0
1, 46559, Note_on_c, 9, 42, 0
1, 46560, Note_on_c, 9, 42, 57
1, 46574, Note_on_c, 9, 42, 0
1, 46575, Note_on_c, 9, 38, 125
1, 46619, Note_on_c, 9, 38, 0
1, 46680, Note_on_c, 9, 42, 66
1, 46799, Note_on_c, 9, 42, 0
1, 46800, Note_on_c, 9, 42, 113
1, 46919, Note_on_c, 9, 42, 0
1, 46920, Note_on_c, 9, 42, 71
1, 47039, Note_on_c, 9, 42, 0
1, 47040, Note_on_c, 9, 42, 56
1, 47040, Note_on_c, 9, 35, 119
1, 47159, Note_on_c, 9, 42, 0
1, 47160, Note_on_c, 9, 42, 68
1, 47279, Note_on_c, 9, 42, 0
1, 47280, Note_on_c, 9, 42, 119
1, 47369, Note_on_c, 9, 42, 0
1, 47385, Note_on_c, 9, 42, 71
1, 47399, Note_on_c, 9, 35, 0
1, 47400, Note_on_c, 9, 39, 121
1, 47400, Note_on_c, 9, 35, 116
1, 47519, Note_on_c, 9, 42, 0
1, 47519, Note_on_c, 9, 39, 0
1, 47519, Note_on_c, 9, 35, 0
1, 47520, Note_on_c, 9, 38, 127
1, 47520, Note_on_c, 9, 42, 62
1, 47639, Note_on_c, 9, 38, 0
1, 47639, Note_on_c, 9, 42, 0
1, 47640, Note_on_c, 9, 42, 73
1, 47640, Note_on_c, 9, 35, 122
1, 47759, Note_on_c, 9, 42, 0
1, 47760, Note_on_c, 9, 42, 119
1, 47879, Note_on_c, 9, 42, 0
1, 47880, Note_on_c, 9, 42, 70
1, 47999, Note_on_c, 9, 35, 0
1, 47999, Note_on_c, 9, 42, 0
1, 48000, Note_on_c, 9, 42, 59
1, 48000, Note_on_c, 9, 35, 121
1, 48119, Note_on_c, 9, 42, 0
1, 48120, Note_on_c, 9, 42, 71
1, 48239, Note_on_c, 9, 42, 0
1, 48240, Note_on_c, 9, 42, 114
1, 48359, Note_on_c, 9, 42, 0
1, 48360, Note_on_c, 9, 42, 73
1, 48449, Note_on_c, 9, 42, 0
1, 48465, Note_on_c, 9, 42, 58
1, 48479, Note_on_c, 9, 35, 0
1, 48480, Note_on_c, 9, 38, 127
1, 48599, Note_on_c, 9, 42, 0
1, 48599, Note_on_c, 9, 38, 0
1, 48600, Note_on_c, 9, 42, 73
1, 48719, Note_on_c, 9, 42, 0
1, 48720, Note_on_c, 9, 42, 116
1, 48839, Note_on_c, 9, 42, 0
1, 48840, Note_on_c, 9, 42, 68
1, 48959, Note_on_c, 9, 42, 0
1, 48960, Note_on_c, 9, 38, 119
1, 48960, Note_on_c, 9, 39, 119
1, 48960, Note_on_c, 9, 42, 56
1, 49079, Note_on_c, 9, 38, 0
1, 49079, Note_on_c, 9, 39, 0
1, 49079, Note_on_c, 9, 42, 0
1, 49080, Note_on_c, 9, 42, 63
1, 49199, Note_on_c, 9, 42, 0
1, 49200, Note_on_c, 9, 38, 123
1, 49200, Note_on_c, 9, 39, 124
1, 49319, Note_on_c, 9, 38, 0
1, 49319, Note_on_c, 9, 39, 0
1, 49320, Note_on_c, 9, 42, 71
1, 49320, Note_on_c, 9, 35, 118
1, 49409, Note_on_c, 9, 42, 0
1, 49425, Note_on_c, 9, 38, 125
1, 49425, Note_on_c, 9, 39, 127
1, 49439, Note_on_c, 9, 35, 0
1, 49440, Note_on_c, 9, 42, 57
1, 49560, Note_on_c, 9, 35, 121
1, 49679, Note_on_c, 9, 38, 0
1, 49679, Note_on_c, 9, 39, 0
1, 49679, Note_on_c, 9, 42, 0
1, 49680, Note_on_c, 9, 38, 113
1, 49680, Note_on_c, 9, 42, 110
1, 49799, Note_on_c, 9, 38, 0
1, 49799, Note_on_c, 9, 42, 0
1, 49800, Note_on_c, 9, 38, 127
1, 49800, Note_on_c, 9, 46, 66
1, 49800, Note_on_c, 9, 39, 126
1, 49919, Note_on_c, 9, 35, 0
1, 49919, Note_on_c, 9, 38, 0
1, 49919, Note_on_c, 9, 46, 0
1, 49919, Note_on_c, 9, 39, 0
1, 49920, Note_on_c, 9, 57, 86
1, 49920, Note_on_c, 9, 35, 122
1, 50039, Note_on_c, 9, 57, 0
1, 50040, Note_on_c, 9, 42, 78
1, 50159, Note_on_c, 9, 42, 0
1, 50160, Note_on_c, 9, 42, 116
1, 50279, Note_on_c, 9, 42, 0
1, 50280, Note_on_c, 9, 42, 87
1, 50399, Note_on_c, 9, 35, 0
1, 50399, Note_on_c, 9, 42, 0
1, 50400, Note_on_c, 9, 38, 127
1, 50414, Note_on_c, 9, 38, 0
1, 50415, Note_on_c, 9, 41, 125
1, 50415, Note_on_c, 9, 39, 127
1, 50415, Note_on_c, 9, 42, 61
1, 50415, Note_on_c, 9, 52, 125
1, 50459, Note_on_c, 9, 41, 0
1, 50459, Note_on_c, 9, 39, 0
1, 50459, Note_on_c, 9, 42, 0
1, 50459, Note_on_c, 9, 52, 0
1, 50520, Note_on_c, 9, 42, 75
1, 50639, Note_on_c, 9, 42, 0
1, 50640, Note_on_c, 9, 42, 119
1, 50759, Note_on_c, 9, 42, 0
1, 50760, Note_on_c, 9, 42, 80
1, 50879, Note_on_c, 9, 42, 0
1, 50880, Note_on_c, 9, 42, 67
1, 50880, Note_on_c, 9, 35, 120
1, 50999, Note_on_c, 9, 42, 0
1, 51000, Note_on_c, 9, 42, 81
1, 51119, Note_on_c, 9, 42, 0
1, 51120, Note_on_c, 9, 42, 122
1, 51239, Note_on_c, 9, 42, 0
1, 51240, Note_on_c, 9, 42, 76
1, 51359, Note_on_c, 9, 35, 0
1, 51359, Note_on_c, 9, 42, 0
1, 51360, Note_on_c, 9, 38, 123
1, 51360, Note_on_c, 9, 42, 67
1, 51479, Note_on_c, 9, 38, 0
1, 51479, Note_on_c, 9, 42, 0
1, 51480, Note_on_c, 9, 42, 70
1, 51599, Note_on_c, 9, 42, 0
1, 51600, Note_on_c, 9, 42, 122
1, 51719, Note_on_c, 9, 42, 0
1, 51720, Note_on_c, 9, 42, 76
1, 51839, Note_on_c, 9, 42, 0
1, 51840, Note_on_c, 9, 42, 59
1, 51840, Note_on_c, 9, 35, 119
1, 51959, Note_on_c, 9, 42, 0
1, 51960, Note_on_c, 9, 42, 73
1, 52079, Note_on_c, 9, 42, 0
1, 52080, Note_on_c, 9, 42, 122
1, 52199, Note_on_c, 9, 42, 0
1, 52200, Note_on_c, 9, 42, 74
1, 52289, Note_on_c, 9, 42, 0
1, 52305, Note_on_c, 9, 38, 127
1, 52305, Note_on_c, 9, 42, 61
1, 52319, Note_on_c, 9, 35, 0
1, 52320, Note_on_c, 9, 41, 125
1, 52320, Note_on_c, 9, 52, 125
1, 52334, Note_on_c, 9, 38, 0
1, 52334, Note_on_c, 9, 42, 0
1, 52334, Note_on_c, 9, 41, 0
1, 52334, Note_on_c, 9, 52, 0
1, 52335, Note_on_c, 9, 39, 127
1, 52379, Note_on_c, 9, 39, 0
1, 52440, Note_on_c, 9, 42, 70
1, 52559, Note_on_c, 9, 42, 0
1, 52560, Note_on_c, 9, 42, 118
1, 52679, Note_on_c, 9, 42, 0
1, 52680, Note_on_c, 9, 42, 75
1, 52799, Note_on_c, 9, 42, 0
1, 52800, Note_on_c, 9, 42, 59
1, 52800, Note_on_c, 9, 35, 119
1, 52919, Note_on_c, 9, 42, 0
1, 52920, Note_on_c, 9, 42, 75
1, 53039, Note_on_c, 9, 42, 0
1, 53040, Note_on_c, 9, 42, 119
1, 53159, Note_on_c, 9, 42, 0
1, 53160, Note_on_c, 9, 42, 70
1, 53279, Note_on_c, 9, 35, 0
1, 53279, Note_on_c, 9, 42, 0
1, 53280, Note_on_c, 9, 38, 123
1, 53280, Note_on_c, 9, 42, 60
1, 53399, Note_on_c, 9, 38, 0
1, 53399, Note_on_c, 9, 42, 0
1, 53400, Note_on_c, 9, 42, 75
1, 53519, Note_on_c, 9, 42, 0
1, 53520, Note_on_c, 9, 42, 116
1, 53639, Note_on_c, 9, 42, 0
1, 53640, Note_on_c, 9, 42, 74
1, 53759, Note_on_c, 9, 42, 0
1, 53760, Note_on_c, 9, 42, 50
1, 53760, Note_on_c, 9, 35, 119
1, 53774, Note_on_c, 9, 42, 0
1, 53775, Note_on_c, 9, 69, 95
1, 53819, Note_on_c, 9, 69, 0
1, 53880, Note_on_c, 9, 69, 79
1, 53880, Note_on_c, 9, 42, 70
1, 53999, Note_on_c, 9, 69, 0
1, 53999, Note_on_c, 9, 42, 0
1, 54000, Note_on_c, 9, 42, 116
1, 54119, Note_on_c, 9, 42, 0
1, 54120, Note_on_c, 9, 42, 70
1, 54134, Note_on_c, 9, 42, 0
1, 54135, Note_on_c, 9, 70, 104
1, 54179, Note_on_c, 9, 70, 0
1, 54239, Note_on_c, 9, 35, 0
1, 54240, Note_on_c, 9, 38, 125
1, 54240, Note_on_c, 9, 39, 100
1, 54240, Note_on_c, 9, 42, 57
1, 54359, Note_on_c, 9, 38, 0
1, 54359, Note_on_c, 9, 39, 0
1, 54359, Note_on_c, 9, 42, 0
1, 54360, Note_on_c, 9, 42, 66
1, 54479, Note_on_c, 9, 42, 0
1, 54480, Note_on_c, 9, 42, 113
1, 54599, Note_on_c, 9, 42, 0
1, 54600, Note_on_c, 9, 42, 71
1, 54689, Note_on_c, 9, 42, 0
1, 54705, Note_on_c, 9, 42, 56
1, 54720, Note_on_c, 9, 69, 68
1, 54720, Note_on_c, 9, 35, 119
1, 54809, Note_on_c, 9, 42, 0
1, 54809, Note_on_c, 9, 69, 0
1, 54825, Note_on_c, 9, 69, 68
1, 54840, Note_on_c, 9, 42, 68
1, 54929, Note_on_c, 9, 69, 0
1, 54929, Note_on_c, 9, 42, 0
1, 54945, Note_on_c, 9, 42, 119
1, 54960, Note_on_c, 9, 69, 92
1, 55079, Note_on_c, 9, 42, 0
1, 55079, Note_on_c, 9, 69, 0
1, 55080, Note_on_c, 9, 69, 83
1, 55080, Note_on_c, 9, 42, 71
1, 55199, Note_on_c, 9, 35, 0
1, 55199, Note_on_c, 9, 69, 0
1, 55199, Note_on_c, 9, 42, 0
1, 55200, Note_on_c, 9, 38, 127
1, 55200, Note_on_c, 9, 42, 62
1, 55214, Note_on_c, 9, 38, 0
1, 55214, Note_on_c, 9, 42, 0
1, 55215, Note_on_c, 9, 39, 97
1, 55259, Note_on_c, 9, 39, 0
1, 55320, Note_on_c, 9, 42, 73
1, 55439, Note_on_c, 9, 42, 0
1, 55440, Note_on_c, 9, 42, 119
1, 55559, Note_on_c, 9, 42, 0
1, 55560, Note_on_c, 9, 42, 70
1, 55679, Note_on_c, 9, 42, 0
1, 55680, Note_on_c, 9, 42, 59
1, 55680, Note_on_c, 9, 35, 121
1, 55694, Note_on_c, 9, 42, 0
1, 55695, Note_on_c, 9, 69, 95
1, 55739, Note_on_c, 9, 69, 0
1, 55800, Note_on_c, 9, 69, 79
1, 55800, Note_on_c, 9, 42, 71
1, 55919, Note_on_c, 9, 69, 0
1, 55919, Note_on_c, 9, 42, 0
1, 55920, Note_on_c, 9, 42, 114
1, 56039, Note_on_c, 9, 42, 0
1, 56040, Note_on_c, 9, 42, 73
1, 56054, Note_on_c, 9, 42, 0
1, 56055, Note_on_c, 9, 70, 104
1, 56099, Note_on_c, 9, 70, 0
1, 56159, Note_on_c, 9, 35, 0
1, 56160, Note_on_c, 9, 38, 127
1, 56160, Note_on_c, 9, 39, 98
1, 56160, Note_on_c, 9, 42, 58
1, 56279, Note_on_c, 9, 38, 0
1, 56279, Note_on_c, 9, 39, 0
1, 56279, Note_on_c, 9, 42, 0
1, 56280, Note_on_c, 9, 42, 73
1, 56399, Note_on_c, 9, 42, 0
1, 56400, Note_on_c, 9, 42, 116
1, 56519, Note_on_c, 9, 42, 0
1, 56520, Note_on_c, 9, 42, 68
1, 56609, Note_on_c, 9, 42, 0
1, 56625, Note_on_c, 9, 42, 56
1, 56640, Note_on_c, 9, 69, 68
1, 56640, Note_on_c, 9, 35, 120
1, 56759, Note_on_c, 9, 42, 0
1, 56759, Note_on_c, 9, 69, 0
1, 56760, Note_on_c, 9, 69, 68
1, 56760, Note_on_c, 9, 42, 63
1, 56849, Note_on_c, 9, 69, 0
1, 56849, Note_on_c, 9, 42, 0
1, 56865, Note_on_c, 9, 42, 113
1, 56880, Note_on_c, 9, 69, 92
1, 56969, Note_on_c, 9, 42, 0
1, 56969, Note_on_c, 9, 69, 0
1, 56985, Note_on_c, 9, 69, 83
1, 57000, Note_on_c, 9, 42, 71
1, 57089, Note_on_c, 9, 69, 0
1, 57089, Note_on_c, 9, 42, 0
1, 57105, Note_on_c, 9, 38, 127
1, 57119, Note_on_c, 9, 35, 0
1, 57120, Note_on_c, 9, 42, 57
1, 57239, Note_on_c, 9, 38, 0
1, 57239, Note_on_c, 9, 42, 0
1, 57240, Note_on_c, 9, 42, 75
1, 57359, Note_on_c, 9, 42, 0
1, 57360, Note_on_c, 9, 38, 118
1, 57360, Note_on_c, 9, 42, 110
1, 57449, Note_on_c, 9, 38, 0
1, 57449, Note_on_c, 9, 42, 0
1, 57465, Note_on_c, 9, 38, 127
1, 57479, Note_on_c, 9, 38, 0
1, 57480, Note_on_c, 9, 39, 113
1, 57480, Note_on_c, 9, 42, 66
1, 57599, Note_on_c, 9, 39, 0
1, 57599, Note_on_c, 9, 42, 0
1, 57600, Note_on_c, 9, 55, 120
1, 57600, Note_on_c, 9, 35, 122
1, 57719, Note_on_c, 9, 55, 0
1, 57720, Note_on_c, 9, 42, 78
1, 57839, Note_on_c, 9, 42, 0
1, 57840, Note_on_c, 9, 42, 116
1, 57959, Note_on_c, 9, 42, 0
1, 57960, Note_on_c, 9, 42, 87
1, 58049, Note_on_c, 9, 42, 0
1, 58065, Note_on_c, 9, 38, 127
1, 58079, Note_on_c, 9, 35, 0
1, 58080, Note_on_c, 9, 41, 125
1, 58080, Note_on_c, 9, 39, 127
1, 58080, Note_on_c, 9, 42, 61
1, 58080, Note_on_c, 9, 52, 125
1, 58199, Note_on_c, 9, 38, 0
1, 58199, Note_on_c, 9, 41, 0
1, 58199, Note_on_c, 9, 39, 0
1, 58199, Note_on_c, 9, 42, 0
1, 58199, Note_on_c, 9, 52, 0
1, 58200, Note_on_c, 9, 42, 75
1, 58319, Note_on_c, 9, 42, 0
1, 58320, Note_on_c, 9, 42, 119
1, 58439, Note_on_c, 9, 42, 0
1, 58440, Note_on_c, 9, 42, 80
1, 58559, Note_on_c, 9, 42, 0
1, 58560, Note_on_c, 9, 42, 67
1, 58560, Note_on_c, 9, 35, 119
1, 58679, Note_on_c, 9, 42, 0
1, 58680, Note_on_c, 9, 42, 81
1, 58799, Note_on_c, 9, 42, 0
1, 58800, Note_on_c, 9, 42, 122
1, 58919, Note_on_c, 9, 42, 0
1, 58920, Note_on_c, 9, 42, 76
1, 59039, Note_on_c, 9, 35, 0
1, 59039, Note_on_c, 9, 42, 0
1, 59040, Note_on_c, 9, 38, 125
1, 59040, Note_on_c, 9, 42, 67
1, 59159, Note_on_c, 9, 38, 0
1, 59159, Note_on_c, 9, 42, 0
1, 59160, Note_on_c, 9, 42, 70
1, 59279, Note_on_c, 9, 42, 0
1, 59280, Note_on_c, 9, 42, 122
1, 59399, Note_on_c, 9, 42, 0
1, 59400, Note_on_c, 9, 42, 76
1, 59519, Note_on_c, 9, 42, 0
1, 59520, Note_on_c, 9, 42, 59
1, 59520, Note_on_c, 9, 35, 122
1, 59639, Note_on_c, 9, 42, 0
1, 59640, Note_on_c, 9, 42, 73
1, 59759, Note_on_c, 9, 42, 0
1, 59760, Note_on_c, 9, 42, 122
1, 59879, Note_on_c, 9, 42, 0
1, 59880, Note_on_c, 9, 42, 74
1, 59999, Note_on_c, 9, 35, 0
1, 59999, Note_on_c, 9, 42, 0
1, 60000, Note_on_c, 9, 41, 120
1, 60000, Note_on_c, 9, 38, 127
1, 60000, Note_on_c, 9, 42, 61
1, 60000, Note_on_c, 9, 52, 120
1, 60014, Note_on_c, 9, 41, 0
1, 60014, Note_on_c, 9, 38, 0
1, 60014, Note_on_c, 9, 42, 0
1, 60014, Note_on_c, 9, 52, 0
1, 60015, Note_on_c, 9, 39, 127
1, 60059, Note_on_c, 9, 39, 0
1, 60120, Note_on_c, 9, 42, 70
1, 60239, Note_on_c, 9, 42, 0
1, 60240, Note_on_c, 9, 42, 118
1, 60359, Note_on_c, 9, 42, 0
1, 60360, Note_on_c, 9, 42, 75
1, 60479, Note_on_c, 9, 42, 0
1, 60480, Note_on_c, 9, 42, 59
1, 60480, Note_on_c, 9, 35, 121
1, 60599, Note_on_c, 9, 42, 0
1, 60600, Note_on_c, 9, 42, 75
1, 60719, Note_on_c, 9, 42, 0
1, 60720, Note_on_c, 9, 42, 119
1, 60839, Note_on_c, 9, 42, 0
1, 60840, Note_on_c, 9, 42, 70
1, 60959, Note_on_c, 9, 35, 0
1, 60959, Note_on_c, 9, 42, 0
1, 60960, Note_on_c, 9, 38, 123
1, 60960, Note_on_c, 9, 42, 60
1, 61079, Note_on_c, 9, 38, 0
1, 61079, Note_on_c, 9, 42, 0
1, 61080, Note_on_c, 9, 42, 75
1, 61199, Note_on_c, 9, 42, 0
1, 61200, Note_on_c, 9, 42, 116
1, 61319, Note_on_c, 9, 42, 0
1, 61320, Note_on_c, 9, 42, 74
1, 61439, Note_on_c, 9, 42, 0
1, 61440, Note_on_c, 9, 57, 90
1, 61440, Note_on_c, 9, 35, 118
1, 61679, Note_on_c, 9, 57, 0
1, 61680, Note_on_c, 9, 42, 50
1, 61919, Note_on_c, 9, 35, 0
1, 61919, Note_on_c, 9, 42, 0
1, 61920, Note_on_c, 9, 42, 96
1, 61920, Note_on_c, 9, 35, 120
1, 62159, Note_on_c, 9, 42, 0
1, 62160, Note_on_c, 9, 42, 53
1, 62399, Note_on_c, 9, 35, 0
1, 62399, Note_on_c, 9, 42, 0
1, 62400, Note_on_c, 9, 42, 73
1, 62400, Note_on_c, 9, 35, 118
1, 62639, Note_on_c, 9, 42, 0
1, 62640, Note_on_c, 9, 42, 44
1, 62879, Note_on_c, 9, 35, 0
1, 62879, Note_on_c, 9, 42, 0
1, 62880, Note_on_c, 9, 42, 100
1, 62880, Note_on_c, 9, 35, 120
1, 63119, Note_on_c, 9, 42, 0
1, 63120, Note_on_c, 9, 42, 46
1, 63359, Note_on_c, 9, 35, 0
1, 63359, Note_on_c, 9, 42, 0
1, 63360, Note_on_c, 9, 42, 81
1, 63360, Note_on_c, 9, 35, 116
1, 63599, Note_on_c, 9, 42, 0
1, 63600, Note_on_c, 9, 42, 41
1, 63839, Note_on_c, 9, 35, 0
1, 63839, Note_on_c, 9, 42, 0
1, 63840, Note_on_c, 9, 42, 95
1, 63840, Note_on_c, 9, 35, 120
1, 64079, Note_on_c, 9, 42, 0
1, 64080, Note_on_c, 9, 42, 51
1, 64319, Note_on_c, 9, 35, 0
1, 64319, Note_on_c, 9, 42, 0
1, 64320, Note_on_c, 9, 42, 69
1, 64320, Note_on_c, 9, 35, 117
1, 64559, Note_on_c, 9, 42, 0
1, 64560, Note_on_c, 9, 42, 41
1, 64799, Note_on_c, 9, 35, 0
1, 64799, Note_on_c, 9, 42, 0
1, 64800, Note_on_c, 9, 42, 102
1, 64800, Note_on_c, 9, 35, 116
1, 65039, Note_on_c, 9, 42, 0
1, 65040, Note_on_c, 9, 42, 37
1, 65279, Note_on_c, 9, 35, 0
1, 65279, Note_on_c, 9, 42, 0
1, 65280, Note_on_c, 9, 42, 76
1, 65280, Note_on_c, 9, 35, 120
1, 65519, Note_on_c, 9, 42, 0
1, 65520, Note_on_c, 9, 42, 45
1, 65759, Note_on_c, 9, 35, 0
1, 65759, Note_on_c, 9, 42, 0
1, 65760, Note_on_c, 9, 42, 96
1, 65760, Note_on_c, 9, 35, 120
1, 65999, Note_on_c, 9, 42, 0
1, 66000, Note_on_c, 9, 42, 55
1, 66239, Note_on_c, 9, 35, 0
1, 66239, Note_on_c, 9, 42, 0
1, 66240, Note_on_c, 9, 42, 65
1, 66240, Note_on_c, 9, 35, 119
1, 66479, Note_on_c, 9, 42, 0
1, 66480, Note_on_c, 9, 42, 39
1, 66719, Note_on_c, 9, 35, 0
1, 66719, Note_on_c, 9, 42, 0
1, 66720, Note_on_c, 9, 42, 104
1, 66720, Note_on_c, 9, 35, 120
1, 66959, Note_on_c, 9, 42, 0
1, 66960, Note_on_c, 9, 42, 43
1, 67199, Note_on_c, 9, 35, 0
1, 67199, Note_on_c, 9, 42, 0
1, 67200, Note_on_c, 9, 42, 81
1, 67200, Note_on_c, 9, 35, 118
1, 67439, Note_on_c, 9, 42, 0
1, 67440, Note_on_c, 9, 42, 44
1, 67679, Note_on_c, 9, 35, 0
1, 67679, Note_on_c, 9, 42, 0
1, 67680, Note_on_c, 9, 42, 100
1, 67680, Note_on_c, 9, 35, 118
1, 67919, Note_on_c, 9, 42, 0
1, 67920, Note_on_c, 9, 42, 53
1, 68159, Note_on_c, 9, 35, 0
1, 68159, Note_on_c, 9, 42, 0
1, 68160, Note_on_c, 9, 42, 62
1, 68160, Note_on_c, 9, 35, 120
1, 68399, Note_on_c, 9, 42, 0
1, 68400, Note_on_c, 9, 42, 44
1, 68624, Note_on_c, 9, 42, 0
1, 68625, Note_on_c, 9, 38, 127
1, 68639, Note_on_c, 9, 35, 0
1, 68640, Note_on_c, 9, 42, 102
1, 68879, Note_on_c, 9, 38, 0
1, 68879, Note_on_c, 9, 42, 0
1, 68880, Note_on_c, 9, 46, 69
1, 69119, Note_on_c, 9, 46, 0
1, 69120, Note_on_c, 9, 42, 85
1, 69120, Note_on_c, 9, 35, 120
1, 69359, Note_on_c, 9, 42, 0
1, 69360, Note_on_c, 9, 42, 41
1, 69599, Note_on_c, 9, 35, 0
1, 69599, Note_on_c, 9, 42, 0
1, 69600, Note_on_c, 9, 38, 127
1, 69600, Note_on_c, 9, 42, 94
1, 69839, Note_on_c, 9, 38, 0
1, 69839, Note_on_c, 9, 42, 0
1, 69840, Note_on_c, 9, 42, 40
1, 70079, Note_on_c, 9, 42, 0
1, 70080, Note_on_c, 9, 42, 55
1, 70080, Note_on_c, 9, 35, 118
1, 70319, Note_on_c, 9, 42, 0
1, 70320, Note_on_c, 9, 42, 42
1, 70559, Note_on_c, 9, 35, 0
1, 70559, Note_on_c, 9, 42, 0
1, 70560, Note_on_c, 9, 38, 125
1, 70560, Note_on_c, 9, 42, 92
1, 70799, Note_on_c, 9, 38, 0
1, 70799, Note_on_c, 9, 42, 0
1, 70800, Note_on_c, 9, 42, 59
1, 71039, Note_on_c, 9, 42, 0
1, 71040, Note_on_c, 9, 42, 73
1, 71040, Note_on_c, 9, 35, 119
1, 71279, Note_on_c, 9, 42, 0
1, 71280, Note_on_c, 9, 42, 57
1, 71519, Note_on_c, 9, 35, 0
1, 71519, Note_on_c, 9, 42, 0
1, 71520, Note_on_c, 9, 38, 127
1, 71520, Note_on_c, 9, 42, 94
1, 71759, Note_on_c, 9, 38, 0
1, 71759, Note_on_c, 9, 42, 0
1, 71760, Note_on_c, 9, 42, 54
1, 71999, Note_on_c, 9, 42, 0
1, 72000, Note_on_c, 9, 42, 62
1, 72000, Note_on_c, 9, 35, 120
1, 72239, Note_on_c, 9, 42, 0
1, 72240, Note_on_c, 9, 42, 35
1, 72479, Note_on_c, 9, 35, 0
1, 72479, Note_on_c, 9, 42, 0
1, 72480, Note_on_c, 9, 38, 127
1, 72480, Note_on_c, 9, 42, 88
1, 72719, Note_on_c, 9, 38, 0
1, 72719, Note_on_c, 9, 42, 0
1, 72720, Note_on_c, 9, 42, 58
1, 72959, Note_on_c, 9, 42, 0
1, 72960, Note_on_c, 9, 42, 80
1, 72960, Note_on_c, 9, 35, 120
1, 73199, Note_on_c, 9, 42, 0
1, 73200, Note_on_c, 9, 42, 50
1, 73439, Note_on_c, 9, 35, 0
1, 73439, Note_on_c, 9, 42, 0
1, 73440, Note_on_c, 9, 38, 127
1, 73440, Note_on_c, 9, 42, 90
1, 73679, Note_on_c, 9, 38, 0
1, 73679, Note_on_c, 9, 42, 0
1, 73680, Note_on_c, 9, 42, 44
1, 73919, Note_on_c, 9, 42, 0
1, 73920, Note_on_c, 9, 42, 56
1, 73920, Note_on_c, 9, 35, 117
1, 74159, Note_on_c, 9, 42, 0
1, 74160, Note_on_c, 9, 42, 47
1, 74399, Note_on_c, 9, 35, 0
1, 74399, Note_on_c, 9, 42, 0
1, 74400, Note_on_c, 9, 38, 125
1, 74400, Note_on_c, 9, 42, 92
1, 74639, Note_on_c, 9, 38, 0
1, 74639, Note_on_c, 9, 42, 0
1, 74640, Note_on_c, 9, 42, 49
1, 74879, Note_on_c, 9, 42, 0
1, 74880, Note_on_c, 9, 42, 68
1, 74880, Note_on_c, 9, 35, 118
1, 75119, Note_on_c, 9, 42, 0
1, 75120, Note_on_c, 9, 42, 59
1, 75359, Note_on_c, 9, 35, 0
1, 75359, Note_on_c, 9, 42, 0
1, 75360, Note_on_c, 9, 38, 125
1, 75360, Note_on_c, 9, 42, 92
1, 75599, Note_on_c, 9, 38, 0
1, 75599, Note_on_c, 9, 42, 0
1, 75600, Note_on_c, 9, 42, 51
1, 75839, Note_on_c, 9, 42, 0
1, 75840, Note_on_c, 9, 42, 57
1, 75840, Note_on_c, 9, 35, 118
1, 76079, Note_on_c, 9, 42, 0
1, 76080, Note_on_c, 9, 42, 45
1, 76304, Note_on_c, 9, 42, 0
1, 76305, Note_on_c, 9, 38, 127
1, 76319, Note_on_c, 9, 35, 0
1, 76320, Note_on_c, 9, 42, 88
1, 76559, Note_on_c, 9, 38, 0
1, 76559, Note_on_c, 9, 42, 0
1, 76560, Note_on_c, 9, 46, 70
1, 76799, Note_on_c, 9, 46, 0
1, 76800, Note_on_c, 9, 42, 85
1, 76800, Note_on_c, 9, 35, 120
1, 77039, Note_on_c, 9, 42, 0
1, 77040, Note_on_c, 9, 42, 41
1, 77279, Note_on_c, 9, 35, 0
1, 77279, Note_on_c, 9, 42, 0
1, 77280, Note_on_c, 9, 38, 127
1, 77280, Note_on_c, 9, 42, 94
1, 77519, Note_on_c, 9, 38, 0
1, 77519, Note_on_c, 9, 42, 0
1, 77520, Note_on_c, 9, 42, 40
1, 77759, Note_on_c, 9, 42, 0
1, 77760, Note_on_c, 9, 42, 55
1, 77760, Note_on_c, 9, 35, 118
1, 77999, Note_on_c, 9, 42, 0
1, 78000, Note_on_c, 9, 42, 42
1, 78239, Note_on_c, 9, 35, 0
1, 78239, Note_on_c, 9, 42, 0
1, 78240, Note_on_c, 9, 38, 125
1, 78240, Note_on_c, 9, 42, 92
1, 78479, Note_on_c, 9, 38, 0
1, 78479, Note_on_c, 9, 42, 0
1, 78480, Note_on_c, 9, 42, 59
1, 78719, Note_on_c, 9, 42, 0
1, 78720, Note_on_c, 9, 42, 73
1, 78720, Note_on_c, 9, 35, 119
1, 78959, Note_on_c, 9, 42, 0
1, 78960, Note_on_c, 9, 42, 57
1, 79199, Note_on_c, 9, 35, 0
1, 79199, Note_on_c, 9, 42, 0
1, 79200, Note_on_c, 9, 38, 127
1, 79200, Note_on_c, 9, 42, 94
1, 79439, Note_on_c, 9, 38, 0
1, 79439, Note_on_c, 9, 42, 0
1, 79440, Note_on_c, 9, 42, 54
1, 79679, Note_on_c, 9, 42, 0
1, 79680, Note_on_c, 9, 42, 62
1, 79680, Note_on_c, 9, 35, 120
1, 79919, Note_on_c, 9, 42, 0
1, 79920, Note_on_c, 9, 42, 35
1, 80159, Note_on_c, 9, 35, 0
1, 80159, Note_on_c, 9, 42, 0
1, 80160, Note_on_c, 9, 38, 127
1, 80160, Note_on_c, 9, 42, 88
1, 80399, Note_on_c, 9, 38, 0
1, 80399, Note_on_c, 9, 42, 0
1, 80400, Note_on_c, 9, 42, 58
1, 80639, Note_on_c, 9, 42, 0
1, 80640, Note_on_c, 9, 42, 80
1, 80640, Note_on_c, 9, 35, 120
1, 80879, Note_on_c, 9, 42, 0
1, 80880, Note_on_c, 9, 42, 50
1, 81119, Note_on_c, 9, 35, 0
1, 81119, Note_on_c, 9, 42, 0
1, 81120, Note_on_c, 9, 38, 127
1, 81120, Note_on_c, 9, 42, 90
1, 81359, Note_on_c, 9, 38, 0
1, 81359, Note_on_c, 9, 42, 0
1, 81360, Note_on_c, 9, 42, 44
1, 81599, Note_on_c, 9, 42, 0
1, 81600, Note_on_c, 9, 42, 56
1, 81600, Note_on_c, 9, 35, 117
1, 81839, Note_on_c, 9, 42, 0
1, 81840, Note_on_c, 9, 42, 47
1, 82079, Note_on_c, 9, 35, 0
1, 82079, Note_on_c, 9, 42, 0
1, 82080, Note_on_c, 9, 38, 125
1, 82080, Note_on_c, 9, 42, 92
1, 82319, Note_on_c, 9, 38, 0
1, 82319, Note_on_c, 9, 42, 0
1, 82320, Note_on_c, 9, 42, 49
1, 82559, Note_on_c, 9, 42, 0
1, 82560, Note_on_c, 9, 42, 68
1, 82560, Note_on_c, 9, 35, 118
1, 82799, Note_on_c, 9, 42, 0
1, 82800, Note_on_c, 9, 42, 59
1, 83039, Note_on_c, 9, 35, 0
1, 83039, Note_on_c, 9, 42, 0
1, 83040, Note_on_c, 9, 38, 125
1, 83040, Note_on_c, 9, 42, 92
1, 83279, Note_on_c, 9, 38, 0
1, 83279, Note_on_c, 9, 42, 0
1, 83280, Note_on_c, 9, 42, 51
1, 83519, Note_on_c, 9, 42, 0
1, 83520, Note_on_c, 9, 42, 57
1, 83520, Note_on_c, 9, 35, 118
1, 83759, Note_on_c, 9, 42, 0
1, 83760, Note_on_c, 9, 42, 45
1, 83984, Note_on_c, 9, 42, 0
1, 83985, Note_on_c, 9, 38, 127
1, 83999, Note_on_c, 9, 35, 0
1, 84000, Note_on_c, 9, 42, 88
1, 84239, Note_on_c, 9, 38, 0
1, 84239, Note_on_c, 9, 42, 0
1, 84240, Note_on_c, 9, 46, 70
1, 84479, Note_on_c, 9, 46, 0
1, 84480, Note_on_c, 9, 42, 82
1, 84480, Note_on_c, 9, 35, 118
1, 84719, Note_on_c, 9, 42, 0
1, 84720, Note_on_c, 9, 42, 50
1, 84959, Note_on_c, 9, 35, 0
1, 84959, Note_on_c, 9, 42, 0
1, 84960, Note_on_c, 9, 38, 125
1, 84960, Note_on_c, 9, 42, 96
1, 85199, Note_on_c, 9, 38, 0
1, 85199, Note_on_c, 9, 42, 0
1, 85200, Note_on_c, 9, 42, 53
1, 85439, Note_on_c, 9, 42, 0
1, 85440, Note_on_c, 9, 42, 73
1, 85440, Note_on_c, 9, 35, 118
1, 85679, Note_on_c, 9, 42, 0
1, 85680, Note_on_c, 9, 42, 44
1, 85919, Note_on_c, 9, 35, 0
1, 85919, Note_on_c, 9, 42, 0
1, 85920, Note_on_c, 9, 38, 127
1, 85920, Note_on_c, 9, 42, 100
1, 86159, Note_on_c, 9, 38, 0
1, 86159, Note_on_c, 9, 42, 0
1, 86160, Note_on_c, 9, 42, 46
1, 86399, Note_on_c, 9, 42, 0
1, 86400, Note_on_c, 9, 42, 81
1, 86400, Note_on_c, 9, 35, 118
1, 86639, Note_on_c, 9, 42, 0
1, 86640, Note_on_c, 9, 42, 41
1, 86879, Note_on_c, 9, 35, 0
1, 86879, Note_on_c, 9, 42, 0
1, 86880, Note_on_c, 9, 38, 125
1, 86880, Note_on_c, 9, 42, 95
1, 87119, Note_on_c, 9, 38, 0
1, 87119, Note_on_c, 9, 42, 0
1, 87120, Note_on_c, 9, 42, 51
1, 87359, Note_on_c, 9, 42, 0
1, 87360, Note_on_c, 9, 42, 69
1, 87360, Note_on_c, 9, 35, 119
1, 87599, Note_on_c, 9, 42, 0
1, 87600, Note_on_c, 9, 42, 41
1, 87839, Note_on_c, 9, 35, 0
1, 87839, Note_on_c, 9, 42, 0
1, 87840, Note_on_c, 9, 38, 119
1, 87840, Note_on_c, 9, 42, 102
1, 88079, Note_on_c, 9, 38, 0
1, 88079, Note_on_c, 9, 42, 0
1, 88080, Note_on_c, 9, 42, 37
1, 88199, Note_on_c, 9, 42, 0
1, 88200, Note_on_c, 9, 38, 102
1, 88319, Note_on_c, 9, 38, 0
1, 88320, Note_on_c, 9, 42, 76
1, 88320, Note_on_c, 9, 35, 119
1, 88559, Note_on_c, 9, 42, 0
1, 88560, Note_on_c, 9, 42, 45
1, 88799, Note_on_c, 9, 35, 0
1, 88799, Note_on_c, 9, 42, 0
1, 88800, Note_on_c, 9, 38, 126
1, 88800, Note_on_c, 9, 42, 96
1, 89039, Note_on_c, 9, 38, 0
1, 89039, Note_on_c, 9, 42, 0
1, 89040, Note_on_c, 9, 42, 55
1, 89279, Note_on_c, 9, 42, 0
1, 89280, Note_on_c, 9, 42, 65
1, 89280, Note_on_c, 9, 35, 116
1, 89519, Note_on_c, 9, 42, 0
1, 89520, Note_on_c, 9, 42, 39
1, 89759, Note_on_c, 9, 35, 0
1, 89759, Note_on_c, 9, 42, 0
1, 89760, Note_on_c, 9, 38, 127
1, 89760, Note_on_c, 9, 42, 104
1, 89999, Note_on_c, 9, 38, 0
1, 89999, Note_on_c, 9, 42, 0
1, 90000, Note_on_c, 9, 42, 43
1, 90239, Note_on_c, 9, 42, 0
1, 90240, Note_on_c, 9, 42, 81
1, 90240, Note_on_c, 9, 35, 121
1, 90479, Note_on_c, 9, 42, 0
1, 90480, Note_on_c, 9, 42, 44
1, 90719, Note_on_c, 9, 35, 0
1, 90719, Note_on_c, 9, 42, 0
1, 90720, Note_on_c, 9, 38, 127
1, 90720, Note_on_c, 9, 42, 100
1, 90959, Note_on_c, 9, 38, 0
1, 90959, Note_on_c, 9, 42, 0
1, 90960, Note_on_c, 9, 42, 53
1, 91199, Note_on_c, 9, 42, 0
1, 91200, Note_on_c, 9, 42, 62
1, 91200, Note_on_c, 9, 35, 117
1, 91319, Note_on_c, 9, 42, 0
1, 91320, Note_on_c, 9, 38, 127
1, 91439, Note_on_c, 9, 38, 0
1, 91440, Note_on_c, 9, 38, 127
1, 91559, Note_on_c, 9, 35, 0
1, 91560, Note_on_c, 9, 35, 123
1, 91679, Note_on_c, 9, 38, 0
1, 91679, Note_on_c, 9, 35, 0
1, 91680, Note_on_c, 9, 42, 102
1, 91799, Note_on_c, 9, 42, 0
1, 91800, Note_on_c, 9, 38, 101
1, 91919, Note_on_c, 9, 38, 0
1, 91920, Note_on_c, 9, 38, 115
1, 92039, Note_on_c, 9, 38, 0
1, 92040, Note_on_c, 9, 38, 127
1, 92159, Note_on_c, 9, 38, 0
1, 92160, Note_on_c, 9, 49, 87
1, 92160, Note_on_c, 9, 35, 122
1, 92279, Note_on_c, 9, 49, 0
1, 92280, Note_on_c, 9, 42, 78
1, 92399, Note_on_c, 9, 42, 0
1, 92400, Note_on_c, 9, 42, 116
1, 92519, Note_on_c, 9, 42, 0
1, 92520, Note_on_c, 9, 42, 87
1, 92639, Note_on_c, 9, 35, 0
1, 92639, Note_on_c, 9, 42, 0
1, 92640, Note_on_c, 9, 38, 127
1, 92654, Note_on_c, 9, 38, 0
1, 92655, Note_on_c, 9, 42, 61
1, 92699, Note_on_c, 9, 42, 0
1, 92760, Note_on_c, 9, 42, 75
1, 92879, Note_on_c, 9, 42, 0
1, 92880, Note_on_c, 9, 42, 119
1, 92999, Note_on_c, 9, 42, 0
1, 93000, Note_on_c, 9, 42, 80
1, 93119, Note_on_c, 9, 42, 0
1, 93120, Note_on_c, 9, 42, 67
1, 93120, Note_on_c, 9, 35, 122
1, 93239, Note_on_c, 9, 42, 0
1, 93240, Note_on_c, 9, 42, 81
1, 93359, Note_on_c, 9, 42, 0
1, 93360, Note_on_c, 9, 42, 122
1, 93449, Note_on_c, 9, 42, 0
1, 93465, Note_on_c, 9, 42, 76
1, 93479, Note_on_c, 9, 35, 0
1, 93480, Note_on_c, 9, 39, 111
1, 93480, Note_on_c, 9, 35, 117
1, 93599, Note_on_c, 9, 42, 0
1, 93599, Note_on_c, 9, 39, 0
1, 93599, Note_on_c, 9, 35, 0
1, 93600, Note_on_c, 9, 38, 127
1, 93600, Note_on_c, 9, 42, 67
1, 93719, Note_on_c, 9, 38, 0
1, 93719, Note_on_c, 9, 42, 0
1, 93720, Note_on_c, 9, 42, 70
1, 93720, Note_on_c, 9, 35, 122
1, 93839, Note_on_c, 9, 42, 0
1, 93840, Note_on_c, 9, 42, 122
1, 93959, Note_on_c, 9, 42, 0
1, 93960, Note_on_c, 9, 46, 76
1, 94079, Note_on_c, 9, 35, 0
1, 94079, Note_on_c, 9, 46, 0
1, 94080, Note_on_c, 9, 42, 59
1, 94080, Note_on_c, 9, 35, 122
1, 94199, Note_on_c, 9, 42, 0
1, 94200, Note_on_c, 9, 42, 73
1, 94319, Note_on_c, 9, 42, 0
1, 94320, Note_on_c, 9, 42, 122
1, 94439, Note_on_c, 9, 42, 0
1, 94440, Note_on_c, 9, 42, 74
1, 94559, Note_on_c, 9, 35, 0
1, 94559, Note_on_c, 9, 42, 0
1, 94560, Note_on_c, 9, 42, 61
1, 94574, Note_on_c, 9, 42, 0
1, 94575, Note_on_c, 9, 38, 127
1, 94619, Note_on_c, 9, 38, 0
1, 94680, Note_on_c, 9, 42, 70
1, 94799, Note_on_c, 9, 42, 0
1, 94800, Note_on_c, 9, 42, 118
1, 94919, Note_on_c, 9, 42, 0
1, 94920, Note_on_c, 9, 42, 75
1, 95039, Note_on_c, 9, 42, 0
1, 95040, Note_on_c, 9, 42, 59
1, 95040, Note_on_c, 9, 35, 116
1, 95159, Note_on_c, 9, 42, 0
1, 95160, Note_on_c, 9, 42, 75
1, 95279, Note_on_c, 9, 42, 0
1, 95280, Note_on_c, 9, 42, 119
1, 95399, Note_on_c, 9, 35, 0
1, 95399, Note_on_c, 9, 42, 0
1, 95400, Note_on_c, 9, 42, 70
1, 95400, Note_on_c, 9, 35, 115
1, 95414, Note_on_c, 9, 42, 0
1, 95415, Note_on_c, 9, 39, 112
1, 95459, Note_on_c, 9, 39, 0
1, 95519, Note_on_c, 9, 35, 0
1, 95520, Note_on_c, 9, 38, 127
1, 95520, Note_on_c, 9, 42, 60
1, 95639, Note_on_c, 9, 38, 0
1, 95639, Note_on_c, 9, 42, 0
1, 95640, Note_on_c, 9, 42, 75
1, 95640, Note_on_c, 9, 35, 121
1, 95759, Note_on_c, 9, 42, 0
1, 95760, Note_on_c, 9, 42, 116
1, 95879, Note_on_c, 9, 42, 0
1, 95880, Note_on_c, 9, 42, 74
1, 95999, Note_on_c, 9, 35, 0
1, 95999, Note_on_c, 9, 42, 0
1, 96000, Note_on_c, 9, 42, 50
1, 96000, Note_on_c, 9, 35, 120
1, 96119, Note_on_c, 9, 42, 0
1, 96120, Note_on_c, 9, 42, 70
1, 96239, Note_on_c, 9, 42, 0
1, 96240, Note_on_c, 9, 42, 116
1, 96359, Note_on_c, 9, 42, 0
1, 96360, Note_on_c, 9, 42, 70
1, 96479, Note_on_c, 9, 35, 0
1, 96479, Note_on_c, 9, 42, 0
1, 96480, Note_on_c, 9, 42, 57
1, 96494, Note_on_c, 9, 42, 0
1, 96495, Note_on_c, 9, 38, 125
1, 96539, Note_on_c, 9, 38, 0
1, 96600, Note_on_c, 9, 42, 66
1, 96719, Note_on_c, 9, 42, 0
1, 96720, Note_on_c, 9, 42, 113
1, 96839, Note_on_c, 9, 42, 0
1, 96840, Note_on_c, 9, 42, 71
1, 96959, Note_on_c, 9, 42, 0
1, 96960, Note_on_c, 9, 42, 56
1, 96960, Note_on_c, 9, 35, 119
1, 97079, Note_on_c, 9, 42, 0
1, 97080, Note_on_c, 9, 42, 68
1, 97199, Note_on_c, 9, 42, 0
1, 97200, Note_on_c, 9, 42, 119
1, 97289, Note_on_c, 9, 42, 0
1, 97305, Note_on_c, 9, 42, 71
1, 97319, Note_on_c, 9, 35, 0
1, 97320, Note_on_c, 9, 39, 107
1, 97320, Note_on_c, 9, 35, 116
1, 97439, Note_on_c, 9, 42, 0
1, 97439, Note_on_c, 9, 39, 0
1, 97439, Note_on_c, 9, 35, 0
1, 97440, Note_on_c, 9, 38, 127
1, 97440, Note_on_c, 9, 42, 62
1, 97559, Note_on_c, 9, 38, 0
1, 97559, Note_on_c, 9, 42, 0
1, 97560, Note_on_c, 9, 42, 73
1, 97560, Note_on_c, 9, 35, 122
1, 97679, Note_on_c, 9, 42, 0
1, 97680, Note_on_c, 9, 42, 119
1, 97799, Note_on_c, 9, 42, 0
1, 97800, Note_on_c, 9, 42, 70
1, 97919, Note_on_c, 9, 35, 0
1, 97919, Note_on_c, 9, 42, 0
1, 97920, Note_on_c, 9, 42, 59
1, 97920, Note_on_c, 9, 35, 121
1, 98039, Note_on_c, 9, 42, 0
1, 98040, Note_on_c, 9, 42, 71
1, 98159, Note_on_c, 9, 42, 0
1, 98160, Note_on_c, 9, 42, 114
1, 98279, Note_on_c, 9, 42, 0
1, 98280, Note_on_c, 9, 42, 73
1, 98369, Note_on_c, 9, 42, 0
1, 98385, Note_on_c, 9, 42, 58
1, 98399, Note_on_c, 9, 35, 0
1, 98400, Note_on_c, 9, 38, 127
1, 98519, Note_on_c, 9, 42, 0
1, 98519, Note_on_c, 9, 38, 0
1, 98520, Note_on_c, 9, 42, 73
1, 98639, Note_on_c, 9, 42, 0
1, 98640, Note_on_c, 9, 42, 116
1, 98759, Note_on_c, 9, 42, 0
1, 98760, Note_on_c, 9, 42, 68
1, 98879, Note_on_c, 9, 42, 0
1, 98880, Note_on_c, 9, 38, 119
1, 98880, Note_on_c, 9, 39, 89
1, 98880, Note_on_c, 9, 42, 56
1, 98999, Note_on_c, 9, 38, 0
1, 98999, Note_on_c, 9, 39, 0
1, 98999, Note_on_c, 9, 42, 0
1, 99000, Note_on_c, 9, 42, 63
1, 99119, Note_on_c, 9, 42, 0
1, 99120, Note_on_c, 9, 38, 123
1, 99120, Note_on_c, 9, 39, 104
1, 99239, Note_on_c, 9, 38, 0
1, 99239, Note_on_c, 9, 39, 0
1, 99240, Note_on_c, 9, 42, 71
1, 99240, Note_on_c, 9, 35, 118
1, 99329, Note_on_c, 9, 42, 0
1, 99345, Note_on_c, 9, 38, 125
1, 99345, Note_on_c, 9, 39, 119
1, 99359, Note_on_c, 9, 35, 0
1, 99360, Note_on_c, 9, 42, 57
1, 99480, Note_on_c, 9, 35, 121
1, 99599, Note_on_c, 9, 38, 0
1, 99599, Note_on_c, 9, 39, 0
1, 99599, Note_on_c, 9, 42, 0
1, 99600, Note_on_c, 9, 38, 113
1, 99600, Note_on_c, 9, 42, 110
1, 99689, Note_on_c, 9, 38, 0
1, 99689, Note_on_c, 9, 42, 0
1, 99705, Note_on_c, 9, 39, 116
1, 99719, Note_on_c, 9, 39, 0
1, 99720, Note_on_c, 9, 38, 127
1, 99720, Note_on_c, 9, 46, 66
1, 99809, Note_on_c, 9, 38, 0
1, 99809, Note_on_c, 9, 46, 0
1, 99825, Note_on_c, 9, 57, 86
1, 99839, Note_on_c, 9, 35, 0
1, 99839, Note_on_c, 9, 57, 0
1, 99840, Note_on_c, 9, 35, 122
1, 99960, Note_on_c, 9, 42, 78
1, 100079, Note_on_c, 9, 42, 0
1, 100080, Note_on_c, 9, 42, 116
1, 100199, Note_on_c, 9, 42, 0
1, 100200, Note_on_c, 9, 42, 87
1, 100319, Note_on_c, 9, 35, 0
1, 100319, Note_on_c, 9, 42, 0
1, 100320, Note_on_c, 9, 38, 127
1, 100334, Note_on_c, 9, 38, 0
1, 100335, Note_on_c, 9, 41, 125
1, 100335, Note_on_c, 9, 39, 127
1, 100335, Note_on_c, 9, 42, 61
1, 100335, Note_on_c, 9, 52, 125
1, 100379, Note_on_c, 9, 41, 0
1, 100379, Note_on_c, 9, 39, 0
1, 100379, Note_on_c, 9, 42, 0
1, 100379, Note_on_c, 9, 52, 0
1, 100440, Note_on_c, 9, 42, 75
1, 100559, Note_on_c, 9, 42, 0
1, 100560, Note_on_c, 9, 42, 119
1, 100679, Note_on_c, 9, 42, 0
1, 100680, Note_on_c, 9, 42, 80
1, 100799, Note_on_c, 9, 42, 0
1, 100800, Note_on_c, 9, 42, 67
1, 100800, Note_on_c, 9, 35, 120
1, 100919, Note_on_c, 9, 42, 0
1, 100920, Note_on_c, 9, 42, 81
1, 101039, Note_on_c, 9, 42, 0
1, 101040, Note_on_c, 9, 42, 122
1, 101159, Note_on_c, 9, 42, 0
1, 101160, Note_on_c, 9, 42, 76
1, 101279, Note_on_c, 9, 35, 0
1, 101279, Note_on_c, 9, 42, 0
1, 101280, Note_on_c, 9, 38, 123
1, 101280, Note_on_c, 9, 42, 67
1, 101399, Note_on_c, 9, 38, 0
1, 101399, Note_on_c, 9, 42, 0
1, 101400, Note_on_c, 9, 42, 70
1, 101519, Note_on_c, 9, 42, 0
1, 101520, Note_on_c, 9, 42, 122
1, 101639, Note_on_c, 9, 42, 0
1, 101640, Note_on_c, 9, 42, 76
1, 101759, Note_on_c, 9, 42, 0
1, 101760, Note_on_c, 9, 42, 59
1, 101760, Note_on_c, 9, 35, 119
1, 101879, Note_on_c, 9, 42, 0
1, 101880, Note_on_c, 9, 42, 73
1, 101999, Note_on_c, 9, 42, 0
1, 102000, Note_on_c, 9, 42, 122
1, 102119, Note_on_c, 9, 42, 0
1, 102120, Note_on_c, 9, 42, 74
1, 102209, Note_on_c, 9, 42, 0
1, 102225, Note_on_c, 9, 38, 127
1, 102225, Note_on_c, 9, 42, 61
1, 102239, Note_on_c, 9, 35, 0
1, 102240, Note_on_c, 9, 41, 125
1, 102240, Note_on_c, 9, 52, 125
1, 102254, Note_on_c, 9, 38, 0
1, 102254, Note_on_c, 9, 42, 0
1, 102254, Note_on_c, 9, 41, 0
1, 102254, Note_on_c, 9, 52, 0
1, 102255, Note_on_c, 9, 39, 127
1, 102299, Note_on_c, 9, 39, 0
1, 102360, Note_on_c, 9, 42, 70
1, 102479, Note_on_c, 9, 42, 0
1, 102480, Note_on_c, 9, 42, 118
1, 102599, Note_on_c, 9, 42, 0
1, 102600, Note_on_c, 9, 42, 75
1, 102719, Note_on_c, 9, 42, 0
1, 102720, Note_on_c, 9, 42, 59
1, 102720, Note_on_c, 9, 35, 119
1, 102839, Note_on_c, 9, 42, 0
1, 102840, Note_on_c, 9, 42, 75
1, 102959, Note_on_c, 9, 42, 0
1, 102960, Note_on_c, 9, 42, 119
1, 103079, Note_on_c, 9, 42, 0
1, 103080, Note_on_c, 9, 42, 70
1, 103199, Note_on_c, 9, 35, 0
1, 103199, Note_on_c, 9, 42, 0
1, 103200, Note_on_c, 9, 38, 123
1, 103200, Note_on_c, 9, 42, 60
1, 103319, Note_on_c, 9, 38, 0
1, 103319, Note_on_c, 9, 42, 0
1, 103320, Note_on_c, 9, 42, 75
1, 103439, Note_on_c, 9, 42, 0
1, 103440, Note_on_c, 9, 42, 116
1, 103559, Note_on_c, 9, 42, 0
1, 103560, Note_on_c, 9, 42, 74
1, 103679, Note_on_c, 9, 42, 0
1, 103680, Note_on_c, 9, 42, 50
1, 103680, Note_on_c, 9, 35, 119
1, 103694, Note_on_c, 9, 42, 0
1, 103695, Note_on_c, 9, 69, 95
1, 103739, Note_on_c, 9, 69, 0
1, 103800, Note_on_c, 9, 69, 79
1, 103800, Note_on_c, 9, 42, 70
1, 103919, Note_on_c, 9, 69, 0
1, 103919, Note_on_c, 9, 42, 0
1, 103920, Note_on_c, 9, 42, 116
1, 104039, Note_on_c, 9, 42, 0
1, 104040, Note_on_c, 9, 42, 70
1, 104054, Note_on_c, 9, 42, 0
1, 104055, Note_on_c, 9, 70, 104
1, 104099, Note_on_c, 9, 70, 0
1, 104159, Note_on_c, 9, 35, 0
1, 104160, Note_on_c, 9, 38, 125
1, 104160, Note_on_c, 9, 39, 100
1, 104160, Note_on_c, 9, 42, 57
1, 104279, Note_on_c, 9, 38, 0
1, 104279, Note_on_c, 9, 39, 0
1, 104279, Note_on_c, 9, 42, 0
1, 104280, Note_on_c, 9, 42, 66
1, 104399, Note_on_c, 9, 42, 0
1, 104400, Note_on_c, 9, 42, 113
1, 104519, Note_on_c, 9, 42, 0
1, 104520, Note_on_c, 9, 42, 71
1, 104609, Note_on_c, 9, 42, 0
1, 104625, Note_on_c, 9, 42, 56
1, 104640, Note_on_c, 9, 69, 68
1, 104640, Note_on_c, 9, 35, 119
1, 104729, Note_on_c, 9, 42, 0
1, 104729, Note_on_c, 9, 69, 0
1, 104745, Note_on_c, 9, 69, 68
1, 104760, Note_on_c, 9, 42, 68
1, 104849, Note_on_c, 9, 69, 0
1, 104849, Note_on_c, 9, 42, 0
1, 104865, Note_on_c, 9, 42, 119
1, 104880, Note_on_c, 9, 69, 92
1, 104999, Note_on_c, 9, 42, 0
1, 104999, Note_on_c, 9, 69, 0
1, 105000, Note_on_c, 9, 69, 83
1, 105000, Note_on_c, 9, 42, 71
1, 105119, Note_on_c, 9, 35, 0
1, 105119, Note_on_c, 9, 69, 0
1, 105119, Note_on_c, 9, 42, 0
1, 105120, Note_on_c, 9, 38, 127
1, 105120, Note_on_c, 9, 39, 97
1, 105120, Note_on_c, 9, 42, 62
1, 105239, Note_on_c, 9, 38, 0
1, 105239, Note_on_c, 9, 39, 0
1, 105239, Note_on_c, 9, 42, 0
1, 105240, Note_on_c, 9, 42, 73
1, 105359, Note_on_c, 9, 42, 0
1, 105360, Note_on_c, 9, 42, 119
1, 105479, Note_on_c, 9, 42, 0
1, 105480, Note_on_c, 9, 42, 70
1, 105599, Note_on_c, 9, 42, 0
1, 105600, Note_on_c, 9, 42, 59
1, 105600, Note_on_c, 9, 35, 121
1, 105614, Note_on_c, 9, 42, 0
1, 105615, Note_on_c, 9, 69, 95
1, 105659, Note_on_c, 9, 69, 0
1, 105720, Note_on_c, 9, 69, 79
1, 105720, Note_on_c, 9, 42, 71
1, 105839, Note_on_c, 9, 69, 0
1, 105839, Note_on_c, 9, 42, 0
1, 105840, Note_on_c, 9, 42, 114
1, 105959, Note_on_c, 9, 42, 0
1, 105960, Note_on_c, 9, 42, 73
1, 105974, Note_on_c, 9, 42, 0
1, 105975, Note_on_c, 9, 70, 104
1, 106019, Note_on_c, 9, 70, 0
1, 106079, Note_on_c, 9, 35, 0
1, 106080, Note_on_c, 9, 38, 127
1, 106080, Note_on_c, 9, 39, 98
1, 106080, Note_on_c, 9, 42, 58
1, 106199, Note_on_c, 9, 38, 0
1, 106199, Note_on_c, 9, 39, 0
1, 106199, Note_on_c, 9, 42, 0
1, 106200, Note_on_c, 9, 42, 73
1, 106319, Note_on_c, 9, 42, 0
1, 106320, Note_on_c, 9, 42, 116
1, 106439, Note_on_c, 9, 42, 0
1, 106440, Note_on_c, 9, 42, 68
1, 106529, Note_on_c, 9, 42, 0
1, 106545, Note_on_c, 9, 42, 56
1, 106560, Note_on_c, 9, 69, 68
1, 106560, Note_on_c, 9, 35, 120
1, 106679, Note_on_c, 9, 42, 0
1, 106679, Note_on_c, 9, 69, 0
1, 106680, Note_on_c, 9, 69, 68
1, 106680, Note_on_c, 9, 42, 63
1, 106769, Note_on_c, 9, 69, 0
1, 106769, Note_on_c, 9, 42, 0
1, 106785, Note_on_c, 9, 42, 113
1, 106800, Note_on_c, 9, 69, 92
1, 106889, Note_on_c, 9, 42, 0
1, 106889, Note_on_c, 9, 69, 0
1, 106905, Note_on_c, 9, 69, 83
1, 106920, Note_on_c, 9, 42, 71
1, 107009, Note_on_c, 9, 69, 0
1, 107009, Note_on_c, 9, 42, 0
1, 107025, Note_on_c, 9, 38, 127
1, 107039, Note_on_c, 9, 35, 0
1, 107040, Note_on_c, 9, 42, 57
1, 107159, Note_on_c, 9, 38, 0
1, 107159, Note_on_c, 9, 42, 0
1, 107160, Note_on_c, 9, 42, 75
1, 107249, Note_on_c, 9, 42, 0
1, 107265, Note_on_c, 9, 42, 110
1, 107280, Note_on_c, 9, 38, 118
1, 107369, Note_on_c, 9, 42, 0
1, 107369, Note_on_c, 9, 38, 0
1, 107385, Note_on_c, 9, 38, 127
1, 107385, Note_on_c, 9, 39, 113
1, 107399, Note_on_c, 9, 38, 0
1, 107399, Note_on_c, 9, 39, 0
1, 107400, Note_on_c, 9, 42, 66
1, 107489, Note_on_c, 9, 42, 0
1, 107505, Note_on_c, 9, 55, 110
1, 107519, Note_on_c, 9, 55, 0
1, 107520, Note_on_c, 9, 35, 122
1, 107640, Note_on_c, 9, 42, 78
1, 107759, Note_on_c, 9, 42, 0
1, 107760, Note_on_c, 9, 42, 116
1, 107879, Note_on_c, 9, 42, 0
1, 107880, Note_on_c, 9, 42, 87
1, 107969, Note_on_c, 9, 42, 0
1, 107985, Note_on_c, 9, 38, 127
1, 107999, Note_on_c, 9, 35, 0
1, 108000, Note_on_c, 9, 41, 125
1, 108000, Note_on_c, 9, 39, 127
1, 108000, Note_on_c, 9, 42, 61
1, 108000, Note_on_c, 9, 52, 125
1, 108119, Note_on_c, 9, 38, 0
1, 108119, Note_on_c, 9, 41, 0
1, 108119, Note_on_c, 9, 39, 0
1, 108119, Note_on_c, 9, 42, 0
1, 108119, Note_on_c, 9, 52, 0
1, 108120, Note_on_c, 9, 42, 75
1, 108239, Note_on_c, 9, 42, 0
1, 108240, Note_on_c, 9, 42, 119
1, 108359, Note_on_c, 9, 42, 0
1, 108360, Note_on_c, 9, 42, 80
1, 108479, Note_on_c, 9, 42, 0
1, 108480, Note_on_c, 9, 42, 67
1, 108480, Note_on_c, 9, 35, 119
1, 108599, Note_on_c, 9, 42, 0
1, 108600, Note_on_c, 9, 42, 81
1, 108719, Note_on_c, 9, 42, 0
1, 108720, Note_on_c, 9, 42, 122
1, 108839, Note_on_c, 9, 42, 0
1, 108840, Note_on_c, 9, 42, 76
1, 108959, Note_on_c, 9, 35, 0
1, 108959, Note_on_c, 9, 42, 0
1, 108960, Note_on_c, 9, 38, 125
1, 108960, Note_on_c, 9, 42, 67
1, 109079, Note_on_c, 9, 38, 0
1, 109079, Note_on_c, 9, 42, 0
1, 109080, Note_on_c, 9, 42, 70
1, 109199, Note_on_c, 9, 42, 0
1, 109200, Note_on_c, 9, 42, 122
1, 109319, Note_on_c, 9, 42, 0
1, 109320, Note_on_c, 9, 42, 76
1, 109439, Note_on_c, 9, 42, 0
1, 109440, Note_on_c, 9, 42, 59
1, 109440, Note_on_c, 9, 35, 122
1, 109559, Note_on_c, 9, 42, 0
1, 109560, Note_on_c, 9, 42, 73
1, 109679, Note_on_c, 9, 42, 0
1, 109680, Note_on_c, 9, 42, 122
1, 109799, Note_on_c, 9, 42, 0
1, 109800, Note_on_c, 9, 42, 74
1, 109919, Note_on_c, 9, 35, 0
1, 109919, Note_on_c, 9, 42, 0
1, 109920, Note_on_c, 9, 41, 120
1, 109920, Note_on_c, 9, 38, 127
1, 109920, Note_on_c, 9, 42, 61
1, 109920, Note_on_c, 9, 52, 120
1, 109934, Note_on_c, 9, 41, 0
1, 109934, Note_on_c, 9, 38, 0
1, 109934, Note_on_c, 9, 42, 0
1, 109934, Note_on_c, 9, 52, 0
1, 109935, Note_on_c, 9, 39, 127
1, 109979, Note_on_c, 9, 39, 0
1, 110040, Note_on_c, 9, 42, 70
1, 110159, Note_on_c, 9, 42, 0
1, 110160, Note_on_c, 9, 42, 118
1, 110279, Note_on_c, 9, 42, 0
1, 110280, Note_on_c, 9, 42, 75
1, 110399, Note_on_c, 9, 42, 0
1, 110400, Note_on_c, 9, 42, 59
1, 110400, Note_on_c, 9, 35, 121
1, 110519, Note_on_c, 9, 42, 0
1, 110520, Note_on_c, 9, 42, 75
1, 110639, Note_on_c, 9, 42, 0
1, 110640, Note_on_c, 9, 42, 119
1, 110759, Note_on_c, 9, 42, 0
1, 110760, Note_on_c, 9, 42, 70
1, 110879, Note_on_c, 9, 35, 0
1, 110879, Note_on_c, 9, 42, 0
1, 110880, Note_on_c, 9, 38, 123
1, 110880, Note_on_c, 9, 42, 60
1, 110999, Note_on_c, 9, 38, 0
1, 110999, Note_on_c, 9, 42, 0
1, 111000, Note_on_c, 9, 42, 75
1, 111119, Note_on_c, 9, 42, 0
1, 111120, Note_on_c, 9, 42, 116
1, 111239, Note_on_c, 9, 42, 0
1, 111240, Note_on_c, 9, 42, 74
1, 111359, Note_on_c, 9, 42, 0
1, 111360, Note_on_c, 9, 57, 90
1, 111360, Note_on_c, 9, 35, 118
1, 111839, Note_on_c, 9, 57, 0
1, 111839, Note_on_c, 9, 35, 0
1, 111840, Note_on_c, 9, 39, 123
1, 112319, Note_on_c, 9, 39, 0
1, 112320, Note_on_c, 9, 39, 119
1, 112769, Note_on_c, 9, 39, 0
1, 112785, Note_on_c, 9, 39, 116
1, 112800, Note_on_c, 9, 69, 93
1, 112919, Note_on_c, 9, 39, 0
1, 112919, Note_on_c, 9, 69, 0
1, 112920, Note_on_c, 9, 69, 73
1, 113039, Note_on_c, 9, 69, 0
1, 113040, Note_on_c, 9, 69, 86
1, 113159, Note_on_c, 9, 69, 0
1, 113160, Note_on_c, 9, 69, 106
1, 113279, Note_on_c, 9, 69, 0
1, 113280, Note_on_c, 9, 39, 113
1, 113759, Note_on_c, 9, 39, 0
1, 113760, Note_on_c, 9, 39, 116
1, 114239, Note_on_c, 9, 39, 0
1, 114240, Note_on_c, 9, 39, 116
1, 114689, Note_on_c, 9, 39, 0
1, 114705, Note_on_c, 9, 39, 116
1, 114720, Note_on_c, 9, 69, 89
1, 114839, Note_on_c, 9, 39, 0
1, 114839, Note_on_c, 9, 69, 0
1, 114840, Note_on_c, 9, 69, 62
1, 114959, Note_on_c, 9, 69, 0
1, 114960, Note_on_c, 9, 69, 73
1, 115079, Note_on_c, 9, 69, 0
1, 115080, Note_on_c, 9, 69, 92
1, 115199, Note_on_c, 9, 69, 0
1, 115200, Note_on_c, 9, 69, 100
1, 115200, Note_on_c, 9, 35, 121
1, 115319, Note_on_c, 9, 69, 0
1, 115320, Note_on_c, 9, 42, 78
1, 115439, Note_on_c, 9, 35, 0
1, 115439, Note_on_c, 9, 42, 0
1, 115440, Note_on_c, 9, 39, 116
1, 115440, Note_on_c, 9, 42, 116
1, 115440, Note_on_c, 9, 35, 122
1, 115559, Note_on_c, 9, 39, 0
1, 115559, Note_on_c, 9, 42, 0
1, 115560, Note_on_c, 9, 42, 87
1, 115679, Note_on_c, 9, 35, 0
1, 115679, Note_on_c, 9, 42, 0
1, 115680, Note_on_c, 9, 38, 127
1, 115680, Note_on_c, 9, 42, 61
1, 115799, Note_on_c, 9, 38, 0
1, 115799, Note_on_c, 9, 42, 0
1, 115800, Note_on_c, 9, 42, 75
1, 115919, Note_on_c, 9, 42, 0
1, 115920, Note_on_c, 9, 42, 119
1, 115920, Note_on_c, 9, 35, 115
1, 116039, Note_on_c, 9, 42, 0
1, 116039, Note_on_c, 9, 35, 0
1, 116040, Note_on_c, 9, 42, 80
1, 116040, Note_on_c, 9, 35, 119
1, 116054, Note_on_c, 9, 42, 0
1, 116055, Note_on_c, 9, 39, 107
1, 116099, Note_on_c, 9, 39, 0
1, 116159, Note_on_c, 9, 35, 0
1, 116160, Note_on_c, 9, 42, 67
1, 116279, Note_on_c, 9, 42, 0
1, 116280, Note_on_c, 9, 42, 81
1, 116280, Note_on_c, 9, 35, 119
1, 116294, Note_on_c, 9, 42, 0
1, 116295, Note_on_c, 9, 39, 116
1, 116339, Note_on_c, 9, 39, 0
1, 116400, Note_on_c, 9, 42, 122
1, 116519, Note_on_c, 9, 35, 0
1, 116519, Note_on_c, 9, 42, 0
1, 116520, Note_on_c, 9, 42, 76
1, 116520, Note_on_c, 9, 35, 117
1, 116609, Note_on_c, 9, 42, 0
1, 116625, Note_on_c, 9, 42, 67
1, 116639, Note_on_c, 9, 35, 0
1, 116640, Note_on_c, 9, 38, 127
1, 116759, Note_on_c, 9, 42, 0
1, 116759, Note_on_c, 9, 38, 0
1, 116760, Note_on_c, 9, 42, 70
1, 116879, Note_on_c, 9, 42, 0
1, 116880, Note_on_c, 9, 42, 122
1, 116880, Note_on_c, 9, 35, 113
1, 116999, Note_on_c, 9, 42, 0
1, 116999, Note_on_c, 9, 35, 0
1, 117000, Note_on_c, 9, 42, 76
1, 117000, Note_on_c, 9, 35, 119
1, 117119, Note_on_c, 9, 42, 0
1, 117119, Note_on_c, 9, 35, 0
1, 117120, Note_on_c, 9, 42, 59
1, 117120, Note_on_c, 9, 35, 120
1, 117239, Note_on_c, 9, 42, 0
1, 117240, Note_on_c, 9, 42, 73
1, 117359, Note_on_c, 9, 35, 0
1, 117359, Note_on_c, 9, 42, 0
1, 117360, Note_on_c, 9, 39, 116
1, 117360, Note_on_c, 9, 42, 122
1, 117360, Note_on_c, 9, 35, 119
1, 117479, Note_on_c, 9, 39, 0
1, 117479, Note_on_c, 9, 42, 0
1, 117480, Note_on_c, 9, 42, 74
1, 117599, Note_on_c, 9, 35, 0
1, 117599, Note_on_c, 9, 42, 0
1, 117600, Note_on_c, 9, 42, 61
1, 117614, Note_on_c, 9, 42, 0
1, 117615, Note_on_c, 9, 38, 125
1, 117659, Note_on_c, 9, 38, 0
1, 117720, Note_on_c, 9, 39, 67
1, 117720, Note_on_c, 9, 42, 70
1, 117809, Note_on_c, 9, 39, 0
1, 117809, Note_on_c, 9, 42, 0
1, 117825, Note_on_c, 9, 42, 118
1, 117840, Note_on_c, 9, 39, 72
1, 117840, Note_on_c, 9, 35, 116
1, 117929, Note_on_c, 9, 42, 0
1, 117929, Note_on_c, 9, 39, 0
1, 117945, Note_on_c, 9, 42, 75
1, 117959, Note_on_c, 9, 35, 0
1, 117960, Note_on_c, 9, 39, 85
1, 117960, Note_on_c, 9, 35, 118
1, 118049, Note_on_c, 9, 42, 0
1, 118049, Note_on_c, 9, 39, 0
1, 118065, Note_on_c, 9, 39, 110
1, 118079, Note_on_c, 9, 35, 0
1, 118080, Note_on_c, 9, 42, 59
1, 118199, Note_on_c, 9, 39, 0
1, 118199, Note_on_c, 9, 42, 0
1, 118200, Note_on_c, 9, 39, 87
1, 118200, Note_on_c, 9, 42, 75
1, 118200, Note_on_c, 9, 35, 118
1, 118289, Note_on_c, 9, 39, 0
1, 118289, Note_on_c, 9, 42, 0
1, 118305, Note_on_c, 9, 42, 119
1, 118320, Note_on_c, 9, 39, 93
1, 118439, Note_on_c, 9, 35, 0
1, 118439, Note_on_c, 9, 42, 0
1, 118439, Note_on_c, 9, 39, 0
1, 118440, Note_on_c, 9, 42, 70
1, 118440, Note_on_c, 9, 35, 116
1, 118454, Note_on_c, 9, 42, 0
1, 118455, Note_on_c, 9, 39, 95
1, 118544, Note_on_c, 9, 39, 0
1, 118545, Note_on_c, 9, 42, 60
1, 118559, Note_on_c, 9, 35, 0
1, 118560, Note_on_c, 9, 38, 119
1, 118574, Note_on_c, 9, 42, 0
1, 118574, Note_on_c, 9, 38, 0
1, 118575, Note_on_c, 9, 39, 113
1, 118619, Note_on_c, 9, 39, 0
1, 118680, Note_on_c, 9, 42, 75
1, 118694, Note_on_c, 9, 42, 0
1, 118695, Note_on_c, 9, 39, 87
1, 118784, Note_on_c, 9, 39, 0
1, 118785, Note_on_c, 9, 42, 116
1, 118800, Note_on_c, 9, 39, 91
1, 118800, Note_on_c, 9, 35, 115
1, 118889, Note_on_c, 9, 42, 0
1, 118889, Note_on_c, 9, 39, 0
1, 118905, Note_on_c, 9, 42, 74
1, 118919, Note_on_c, 9, 35, 0
1, 118920, Note_on_c, 9, 39, 113
1, 118920, Note_on_c, 9, 35, 118
1, 119039, Note_on_c, 9, 42, 0
1, 119039, Note_on_c, 9, 39, 0
1, 119039, Note_on_c, 9, 35, 0
1, 119040, Note_on_c, 9, 42, 50
1, 119040, Note_on_c, 9, 35, 119
1, 119159, Note_on_c, 9, 42, 0
1, 119160, Note_on_c, 9, 42, 70
1, 119249, Note_on_c, 9, 42, 0
1, 119265, Note_on_c, 9, 42, 116
1, 119279, Note_on_c, 9, 35, 0
1, 119280, Note_on_c, 9, 39, 116
1, 119280, Note_on_c, 9, 35, 120
1, 119399, Note_on_c, 9, 42, 0
1, 119399, Note_on_c, 9, 39, 0
1, 119400, Note_on_c, 9, 42, 70
1, 119519, Note_on_c, 9, 35, 0
1, 119519, Note_on_c, 9, 42, 0
1, 119520, Note_on_c, 9, 42, 57
1, 119534, Note_on_c, 9, 42, 0
1, 119535, Note_on_c, 9, 38, 127
1, 119579, Note_on_c, 9, 38, 0
1, 119640, Note_on_c, 9, 42, 66
1, 119759, Note_on_c, 9, 42, 0
1, 119760, Note_on_c, 9, 42, 113
1, 119760, Note_on_c, 9, 35, 116
1, 119879, Note_on_c, 9, 42, 0
1, 119879, Note_on_c, 9, 35, 0
1, 119880, Note_on_c, 9, 39, 99
1, 119880, Note_on_c, 9, 42, 71
1, 119880, Note_on_c, 9, 35, 120
1, 119999, Note_on_c, 9, 39, 0
1, 119999, Note_on_c, 9, 42, 0
1, 119999, Note_on_c, 9, 35, 0
1, 120000, Note_on_c, 9, 42, 56
1, 120089, Note_on_c, 9, 42, 0
1, 120105, Note_on_c, 9, 39, 116
1, 120120, Note_on_c, 9, 42, 68
1, 120120, Note_on_c, 9, 35, 118
1, 120239, Note_on_c, 9, 39, 0
1, 120239, Note_on_c, 9, 42, 0
1, 120240, Note_on_c, 9, 42, 119
1, 120359, Note_on_c, 9, 35, 0
1, 120359, Note_on_c, 9, 42, 0
1, 120360, Note_on_c, 9, 42, 71
1, 120360, Note_on_c, 9, 35, 118
1, 120449, Note_on_c, 9, 42, 0
1, 120465, Note_on_c, 9, 42, 62
1, 120479, Note_on_c, 9, 35, 0
1, 120480, Note_on_c, 9, 38, 125
1, 120599, Note_on_c, 9, 42, 0
1, 120599, Note_on_c, 9, 38, 0
1, 120600, Note_on_c, 9, 42, 73
1, 120719, Note_on_c, 9, 42, 0
1, 120720, Note_on_c, 9, 42, 119
1, 120720, Note_on_c, 9, 35, 114
1, 120839, Note_on_c, 9, 42, 0
1, 120839, Note_on_c, 9, 35, 0
1, 120840, Note_on_c, 9, 42, 70
1, 120840, Note_on_c, 9, 35, 118
1, 120959, Note_on_c, 9, 42, 0
1, 120959, Note_on_c, 9, 35, 0
1, 120960, Note_on_c, 9, 42, 59
1, 120960, Note_on_c, 9, 35, 120
1, 121079, Note_on_c, 9, 42, 0
1, 121080, Note_on_c, 9, 42, 71
1, 121199, Note_on_c, 9, 35, 0
1, 121199, Note_on_c, 9, 42, 0
1, 121200, Note_on_c, 9, 39, 110
1, 121200, Note_on_c, 9, 42, 114
1, 121200, Note_on_c, 9, 35, 119
1, 121319, Note_on_c, 9, 39, 0
1, 121319, Note_on_c, 9, 42, 0
1, 121320, Note_on_c, 9, 42, 73
1, 121439, Note_on_c, 9, 35, 0
1, 121439, Note_on_c, 9, 42, 0
1, 121440, Note_on_c, 9, 42, 58
1, 121454, Note_on_c, 9, 42, 0
1, 121455, Note_on_c, 9, 38, 123
1, 121499, Note_on_c, 9, 38, 0
1, 121560, Note_on_c, 9, 42, 73
1, 121679, Note_on_c, 9, 42, 0
1, 121680, Note_on_c, 9, 42, 116
1, 121680, Note_on_c, 9, 35, 115
1, 121799, Note_on_c, 9, 42, 0
1, 121799, Note_on_c, 9, 35, 0
1, 121800, Note_on_c, 9, 39, 99
1, 121800, Note_on_c, 9, 42, 68
1, 121800, Note_on_c, 9, 35, 119
1, 121919, Note_on_c, 9, 39, 0
1, 121919, Note_on_c, 9, 42, 0
1, 121919, Note_on_c, 9, 35, 0
1, 121920, Note_on_c, 9, 39, 89
1, 121920, Note_on_c, 9, 42, 56
1, 122039, Note_on_c, 9, 39, 0
1, 122039, Note_on_c, 9, 42, 0
1, 122040, Note_on_c, 9, 39, 71
1, 122040, Note_on_c, 9, 42, 63
1, 122040, Note_on_c, 9, 35, 118
1, 122159, Note_on_c, 9, 39, 0
1, 122159, Note_on_c, 9, 42, 0
1, 122160, Note_on_c, 9, 39, 74
1, 122160, Note_on_c, 9, 42, 113
1, 122249, Note_on_c, 9, 39, 0
1, 122249, Note_on_c, 9, 42, 0
1, 122265, Note_on_c, 9, 39, 87
1, 122279, Note_on_c, 9, 35, 0
1, 122280, Note_on_c, 9, 42, 71
1, 122280, Note_on_c, 9, 35, 118
1, 122369, Note_on_c, 9, 39, 0
1, 122369, Note_on_c, 9, 42, 0
1, 122385, Note_on_c, 9, 38, 118
1, 122385, Note_on_c, 9, 39, 110
1, 122399, Note_on_c, 9, 35, 0
1, 122400, Note_on_c, 9, 42, 57
1, 122519, Note_on_c, 9, 38, 0
1, 122519, Note_on_c, 9, 39, 0
1, 122519, Note_on_c, 9, 42, 0
1, 122520, Note_on_c, 9, 42, 75
1, 122534, Note_on_c, 9, 42, 0
1, 122535, Note_on_c, 9, 39, 123
1, 122579, Note_on_c, 9, 39, 0
1, 122640, Note_on_c, 9, 42, 110
1, 122640, Note_on_c, 9, 35, 112
1, 122759, Note_on_c, 9, 42, 0
1, 122759, Note_on_c, 9, 35, 0
1, 122760, Note_on_c, 9, 42, 66
1, 122760, Note_on_c, 9, 35, 116
1, 122879, Note_on_c, 9, 42, 0
1, 122879, Note_on_c, 9, 35, 0
1, 122880, Note_on_c, 9, 35, 118
1, 123000, Note_on_c, 9, 42, 78
1, 123089, Note_on_c, 9, 42, 0
1, 123105, Note_on_c, 9, 39, 123
1, 123119, Note_on_c, 9, 35, 0
1, 123120, Note_on_c, 9, 42, 116
1, 123120, Note_on_c, 9, 35, 118
1, 123239, Note_on_c, 9, 39, 0
1, 123239, Note_on_c, 9, 42, 0
1, 123240, Note_on_c, 9, 42, 87
1, 123359, Note_on_c, 9, 35, 0
1, 123359, Note_on_c, 9, 42, 0
1, 123360, Note_on_c, 9, 38, 123
1, 123360, Note_on_c, 9, 42, 61
1, 123479, Note_on_c, 9, 38, 0
1, 123479, Note_on_c, 9, 42, 0
1, 123480, Note_on_c, 9, 42, 75
1, 123599, Note_on_c, 9, 42, 0
1, 123600, Note_on_c, 9, 42, 119
1, 123600, Note_on_c, 9, 35, 115
1, 123689, Note_on_c, 9, 42, 0
1, 123705, Note_on_c, 9, 39, 84
1, 123719, Note_on_c, 9, 35, 0
1, 123720, Note_on_c, 9, 42, 80
1, 123720, Note_on_c, 9, 35, 118
1, 123839, Note_on_c, 9, 39, 0
1, 123839, Note_on_c, 9, 42, 0
1, 123839, Note_on_c, 9, 35, 0
1, 123840, Note_on_c, 9, 42, 67
1, 123929, Note_on_c, 9, 42, 0
1, 123945, Note_on_c, 9, 39, 116
1, 123960, Note_on_c, 9, 42, 81
1, 123960, Note_on_c, 9, 35, 118
1, 124079, Note_on_c, 9, 39, 0
1, 124079, Note_on_c, 9, 42, 0
1, 124080, Note_on_c, 9, 42, 122
1, 124199, Note_on_c, 9, 35, 0
1, 124199, Note_on_c, 9, 42, 0
1, 124200, Note_on_c, 9, 42, 76
1, 124200, Note_on_c, 9, 35, 117
1, 124319, Note_on_c, 9, 42, 0
1, 124319, Note_on_c, 9, 35, 0
1, 124320, Note_on_c, 9, 38, 125
1, 124320, Note_on_c, 9, 42, 67
1, 124439, Note_on_c, 9, 38, 0
1, 124439, Note_on_c, 9, 42, 0
1, 124440, Note_on_c, 9, 42, 70
1, 124559, Note_on_c, 9, 42, 0
1, 124560, Note_on_c, 9, 42, 122
1, 124560, Note_on_c, 9, 35, 116
1, 124679, Note_on_c, 9, 42, 0
1, 124679, Note_on_c, 9, 35, 0
1, 124680, Note_on_c, 9, 42, 76
1, 124680, Note_on_c, 9, 35, 117
1, 124799, Note_on_c, 9, 42, 0
1, 124799, Note_on_c, 9, 35, 0
1, 124800, Note_on_c, 9, 42, 59
1, 124800, Note_on_c, 9, 35, 115
1, 124919, Note_on_c, 9, 42, 0
1, 124920, Note_on_c, 9, 42, 73
1, 125039, Note_on_c, 9, 35, 0
1, 125039, Note_on_c, 9, 42, 0
1, 125040, Note_on_c, 9, 39, 119
1, 125040, Note_on_c, 9, 42, 122
1, 125040, Note_on_c, 9, 35, 120
1, 125159, Note_on_c, 9, 39, 0
1, 125159, Note_on_c, 9, 42, 0
1, 125160, Note_on_c, 9, 42, 74
1, 125279, Note_on_c, 9, 35, 0
1, 125279, Note_on_c, 9, 42, 0
1, 125280, Note_on_c, 9, 42, 61
1, 125294, Note_on_c, 9, 42, 0
1, 125295, Note_on_c, 9, 38, 119
1, 125339, Note_on_c, 9, 38, 0
1, 125400, Note_on_c, 9, 42, 70
1, 125519, Note_on_c, 9, 42, 0
1, 125520, Note_on_c, 9, 42, 118
1, 125520, Note_on_c, 9, 35, 115
1, 125639, Note_on_c, 9, 42, 0
1, 125639, Note_on_c, 9, 35, 0
1, 125640, Note_on_c, 9, 39, 113
1, 125640, Note_on_c, 9, 42, 75
1, 125640, Note_on_c, 9, 35, 118
1, 125759, Note_on_c, 9, 39, 0
1, 125759, Note_on_c, 9, 42, 0
1, 125759, Note_on_c, 9, 35, 0
1, 125760, Note_on_c, 9, 42, 59
1, 125849, Note_on_c, 9, 42, 0
1, 125865, Note_on_c, 9, 39, 84
1, 125880, Note_on_c, 9, 42, 75
1, 125880, Note_on_c, 9, 35, 118
1, 125999, Note_on_c, 9, 39, 0
1, 125999, Note_on_c, 9, 42, 0
1, 126000, Note_on_c, 9, 39, 87
1, 126000, Note_on_c, 9, 42, 119
1, 126119, Note_on_c, 9, 35, 0
1, 126119, Note_on_c, 9, 39, 0
1, 126119, Note_on_c, 9, 42, 0
1, 126120, Note_on_c, 9, 42, 70
1, 126120, Note_on_c, 9, 35, 117
1, 126134, Note_on_c, 9, 42, 0
1, 126135, Note_on_c, 9, 39, 99
1, 126179, Note_on_c, 9, 39, 0
1, 126239, Note_on_c, 9, 35, 0
1, 126240, Note_on_c, 9, 38, 114
1, 126240, Note_on_c, 9, 39, 104
1, 126240, Note_on_c, 9, 42, 60
1, 126329, Note_on_c, 9, 38, 0
1, 126329, Note_on_c, 9, 39, 0
1, 126329, Note_on_c, 9, 42, 0
1, 126345, Note_on_c, 9, 39, 72
1, 126360, Note_on_c, 9, 42, 75
1, 126449, Note_on_c, 9, 39, 0
1, 126449, Note_on_c, 9, 42, 0
1, 126465, Note_on_c, 9, 42, 116
1, 126480, Note_on_c, 9, 39, 97
1, 126480, Note_on_c, 9, 35, 118
1, 126599, Note_on_c, 9, 42, 0
1, 126599, Note_on_c, 9, 39, 0
1, 126599, Note_on_c, 9, 35, 0
1, 126600, Note_on_c, 9, 42, 74
1, 126600, Note_on_c, 9, 35, 118
1, 126614, Note_on_c, 9, 42, 0
1, 126615, Note_on_c, 9, 39, 107
1, 126659, Note_on_c, 9, 39, 0
1, 126719, Note_on_c, 9, 35, 0
1, 126720, Note_on_c, 9, 42, 50
1, 126720, Note_on_c, 9, 35, 116
1, 126839, Note_on_c, 9, 42, 0
1, 126840, Note_on_c, 9, 42, 70
1, 126929, Note_on_c, 9, 42, 0
1, 126945, Note_on_c, 9, 42, 116
1, 126959, Note_on_c, 9, 35, 0
1, 126960, Note_on_c, 9, 39, 119
1, 126960, Note_on_c, 9, 35, 120
1, 127079, Note_on_c, 9, 42, 0
1, 127079, Note_on_c, 9, 39, 0
1, 127080, Note_on_c, 9, 42, 70
1, 127169, Note_on_c, 9, 42, 0
1, 127185, Note_on_c, 9, 42, 57
1, 127199, Note_on_c, 9, 35, 0
1, 127200, Note_on_c, 9, 38, 123
1, 127319, Note_on_c, 9, 42, 0
1, 127319, Note_on_c, 9, 38, 0
1, 127320, Note_on_c, 9, 42, 66
1, 127439, Note_on_c, 9, 42, 0
1, 127440, Note_on_c, 9, 42, 113
1, 127440, Note_on_c, 9, 35, 115
1, 127529, Note_on_c, 9, 42, 0
1, 127545, Note_on_c, 9, 42, 71
1, 127559, Note_on_c, 9, 35, 0
1, 127560, Note_on_c, 9, 39, 104
1, 127560, Note_on_c, 9, 35, 117
1, 127679, Note_on_c, 9, 42, 0
1, 127679, Note_on_c, 9, 39, 0
1, 127679, Note_on_c, 9, 35, 0
1, 127680, Note_on_c, 9, 42, 56
1, 127769, Note_on_c, 9, 42, 0
1, 127785, Note_on_c, 9, 39, 113
1, 127800, Note_on_c, 9, 42, 68
1, 127800, Note_on_c, 9, 35, 119
1, 127919, Note_on_c, 9, 39, 0
1, 127919, Note_on_c, 9, 42, 0
1, 127920, Note_on_c, 9, 42, 119
1, 128039, Note_on_c, 9, 35, 0
1, 128039, Note_on_c, 9, 42, 0
1, 128040, Note_on_c, 9, 42, 71
1, 128040, Note_on_c, 9, 35, 118
1, 128159, Note_on_c, 9, 42, 0
1, 128159, Note_on_c, 9, 35, 0
1, 128160, Note_on_c, 9, 38, 121
1, 128160, Note_on_c, 9, 42, 62
1, 128279, Note_on_c, 9, 38, 0
1, 128279, Note_on_c, 9, 42, 0
1, 128280, Note_on_c, 9, 42, 73
1, 128399, Note_on_c, 9, 42, 0
1, 128400, Note_on_c, 9, 42, 119
1, 128400, Note_on_c, 9, 35, 117
1, 128519, Note_on_c, 9, 42, 0
1, 128519, Note_on_c, 9, 35, 0
1, 128520, Note_on_c, 9, 42, 70
1, 128520, Note_on_c, 9, 35, 118
1, 128639, Note_on_c, 9, 42, 0
1, 128639, Note_on_c, 9, 35, 0
1, 128640, Note_on_c, 9, 42, 59
1, 128640, Note_on_c, 9, 35, 118
1, 128759, Note_on_c, 9, 42, 0
1, 128760, Note_on_c, 9, 42, 71
1, 128879, Note_on_c, 9, 35, 0
1, 128879, Note_on_c, 9, 42, 0
1, 128880, Note_on_c, 9, 39, 104
1, 128880, Note_on_c, 9, 42, 114
1, 128880, Note_on_c, 9, 35, 122
1, 128999, Note_on_c, 9, 39, 0
1, 128999, Note_on_c, 9, 42, 0
1, 129000, Note_on_c, 9, 42, 73
1, 129089, Note_on_c, 9, 42, 0
1, 129105, Note_on_c, 9, 42, 58
1, 129119, Note_on_c, 9, 35, 0
1, 129120, Note_on_c, 9, 38, 116
1, 129239, Note_on_c, 9, 42, 0
1, 129239, Note_on_c, 9, 38, 0
1, 129240, Note_on_c, 9, 42, 73
1, 129359, Note_on_c, 9, 42, 0
1, 129360, Note_on_c, 9, 42, 116
1, 129360, Note_on_c, 9, 35, 114
1, 129449, Note_on_c, 9, 42, 0
1, 129465, Note_on_c, 9, 42, 68
1, 129479, Note_on_c, 9, 35, 0
1, 129480, Note_on_c, 9, 39, 113
1, 129480, Note_on_c, 9, 35, 118
1, 129599, Note_on_c, 9, 42, 0
1, 129599, Note_on_c, 9, 39, 0
1, 129599, Note_on_c, 9, 35, 0
1, 129600, Note_on_c, 9, 42, 56
1, 129689, Note_on_c, 9, 42, 0
1, 129705, Note_on_c, 9, 42, 63
1, 129720, Note_on_c, 9, 39, 110
1, 129720, Note_on_c, 9, 35, 117
1, 129839, Note_on_c, 9, 42, 0
1, 129839, Note_on_c, 9, 39, 0
1, 129840, Note_on_c, 9, 42, 113
1, 129959, Note_on_c, 9, 35, 0
1, 129959, Note_on_c, 9, 42, 0
1, 129960, Note_on_c, 9, 42, 71
1, 129960, Note_on_c, 9, 35, 117
1, 130049, Note_on_c, 9, 42, 0
1, 130065, Note_on_c, 9, 38, 116
1, 130079, Note_on_c, 9, 35, 0
1, 130080, Note_on_c, 9, 42, 57
1, 130199, Note_on_c, 9, 38, 0
1, 130199, Note_on_c, 9, 42, 0
1, 130200, Note_on_c, 9, 42, 75
1, 130319, Note_on_c, 9, 42, 0
1, 130320, Note_on_c, 9, 42, 110
1, 130320, Note_on_c, 9, 35, 115
1, 130439, Note_on_c, 9, 42, 0
1, 130439, Note_on_c, 9, 35, 0
1, 130440, Note_on_c, 9, 42, 66
1, 130440, Note_on_c, 9, 35, 123
1, 130559, Note_on_c, 9, 42, 0
1, 130559, Note_on_c, 9, 35, 0
1, 130560, Note_on_c, 9, 35, 120
1, 130679, Note_on_c, 9, 35, 0
1, 130680, Note_on_c, 9, 36, 93
1, 130799, Note_on_c, 9, 36, 0
1, 130800, Note_on_c, 9, 36, 70
1, 130919, Note_on_c, 9, 36, 0
1, 130920, Note_on_c, 9, 36, 82
1, 131039, Note_on_c, 9, 36, 0
1, 131040, Note_on_c, 9, 36, 63
1, 131159, Note_on_c, 9, 36, 0
1, 131160, Note_on_c, 9, 36, 76
1, 131279, Note_on_c, 9, 36, 0
1, 131280, Note_on_c, 9, 36, 53
1, 131399, Note_on_c, 9, 36, 0
1, 131400, Note_on_c, 9, 36, 72
1, 131519, Note_on_c, 9, 36, 0
1, 131520, Note_on_c, 9, 36, 51
1, 131639, Note_on_c, 9, 36, 0
1, 131640, Note_on_c, 9, 36, 69
1, 131759, Note_on_c, 9, 36, 0
1, 131760, Note_on_c, 9, 36, 49
1, 131879, Note_on_c, 9, 36, 0
1, 131880, Note_on_c, 9, 36, 67
1, 131999, Note_on_c, 9, 36, 0
1, 132000, Note_on_c, 9, 36, 45
1, 132119, Note_on_c, 9, 36, 0
1, 132120, Note_on_c, 9, 36, 64
1, 132239, Note_on_c, 9, 36, 0
1, 132240, Note_on_c, 9, 36, 43
1, 132359, Note_on_c, 9, 36, 0
1, 132360, Note_on_c, 9, 36, 61
1, 132479, Note_on_c, 9, 36, 0
1, 132480, Note_on_c, 9, 49, 87
1, 132480, Note_on_c, 9, 35, 119
1, 132494, Note_on_c, 9, 49, 0
1, 132495, Note_on_c, 9, 69, 108
1, 132539, Note_on_c, 9, 69, 0
1, 132600, Note_on_c, 9, 42, 78
1, 132719, Note_on_c, 9, 42, 0
1, 132720, Note_on_c, 9, 42, 116
1, 132839, Note_on_c, 9, 42, 0
1, 132840, Note_on_c, 9, 42, 87
1, 132959, Note_on_c, 9, 35, 0
1, 132959, Note_on_c, 9, 42, 0
1, 132960, Note_on_c, 9, 69, 104
1, 132960, Note_on_c, 9, 42, 61
1, 132960, Note_on_c, 9, 35, 116
1, 133079, Note_on_c, 9, 69, 0
1, 133079, Note_on_c, 9, 42, 0
1, 133080, Note_on_c, 9, 42, 75
1, 133199, Note_on_c, 9, 42, 0
1, 133200, Note_on_c, 9, 42, 119
1, 133319, Note_on_c, 9, 42, 0
1, 133320, Note_on_c, 9, 42, 80
1, 133409, Note_on_c, 9, 42, 0
1, 133425, Note_on_c, 9, 69, 85
1, 133439, Note_on_c, 9, 35, 0
1, 133440, Note_on_c, 9, 42, 67
1, 133440, Note_on_c, 9, 35, 117
1, 133559, Note_on_c, 9, 69, 0
1, 133559, Note_on_c, 9, 42, 0
1, 133560, Note_on_c, 9, 42, 81
1, 133679, Note_on_c, 9, 42, 0
1, 133680, Note_on_c, 9, 42, 122
1, 133799, Note_on_c, 9, 42, 0
1, 133800, Note_on_c, 9, 42, 76
1, 133889, Note_on_c, 9, 42, 0
1, 133905, Note_on_c, 9, 42, 67
1, 133919, Note_on_c, 9, 35, 0
1, 133920, Note_on_c, 9, 69, 91
1, 133920, Note_on_c, 9, 35, 114
1, 134039, Note_on_c, 9, 42, 0
1, 134039, Note_on_c, 9, 69, 0
1, 134040, Note_on_c, 9, 42, 70
1, 134159, Note_on_c, 9, 42, 0
1, 134160, Note_on_c, 9, 42, 122
1, 134279, Note_on_c, 9, 42, 0
1, 134280, Note_on_c, 9, 42, 76
1, 134399, Note_on_c, 9, 35, 0
1, 134399, Note_on_c, 9, 42, 0
1, 134400, Note_on_c, 9, 42, 59
1, 134400, Note_on_c, 9, 35, 118
1, 134414, Note_on_c, 9, 42, 0
1, 134415, Note_on_c, 9, 69, 97
1, 134459, Note_on_c, 9, 69, 0
1, 134520, Note_on_c, 9, 42, 73
1, 134639, Note_on_c, 9, 42, 0
1, 134640, Note_on_c, 9, 42, 122
1, 134759, Note_on_c, 9, 42, 0
1, 134760, Note_on_c, 9, 42, 74
1, 134879, Note_on_c, 9, 35, 0
1, 134879, Note_on_c, 9, 42, 0
1, 134880, Note_on_c, 9, 42, 61
1, 134880, Note_on_c, 9, 35, 114
1, 134894, Note_on_c, 9, 42, 0
1, 134895, Note_on_c, 9, 69, 95
1, 134939, Note_on_c, 9, 69, 0
1, 135000, Note_on_c, 9, 42, 70
1, 135119, Note_on_c, 9, 42, 0
1, 135120, Note_on_c, 9, 42, 118
1, 135239, Note_on_c, 9, 42, 0
1, 135240, Note_on_c, 9, 42, 75
1, 135329, Note_on_c, 9, 42, 0
1, 135345, Note_on_c, 9, 69, 95
1, 135359, Note_on_c, 9, 35, 0
1, 135360, Note_on_c, 9, 42, 59
1, 135360, Note_on_c, 9, 35, 117
1, 135479, Note_on_c, 9, 69, 0
1, 135479, Note_on_c, 9, 42, 0
1, 135480, Note_on_c, 9, 42, 75
1, 135599, Note_on_c, 9, 42, 0
1, 135600, Note_on_c, 9, 42, 119
1, 135719, Note_on_c, 9, 42, 0
1, 135720, Note_on_c, 9, 42, 70
1, 135809, Note_on_c, 9, 42, 0
1, 135825, Note_on_c, 9, 42, 60
1, 135839, Note_on_c, 9, 35, 0
1, 135840, Note_on_c, 9, 69, 102
1, 135840, Note_on_c, 9, 35, 115
1, 135959, Note_on_c, 9, 42, 0
1, 135959, Note_on_c, 9, 69, 0
1, 135960, Note_on_c, 9, 42, 75
1, 136079, Note_on_c, 9, 42, 0
1, 136080, Note_on_c, 9, 42, 116
1, 136199, Note_on_c, 9, 42, 0
1, 136200, Note_on_c, 9, 42, 74
1, 136319, Note_on_c, 9, 35, 0
1, 136319, Note_on_c, 9, 42, 0
1, 136320, Note_on_c, 9, 42, 50
1, 136320, Note_on_c, 9, 35, 119
1, 136334, Note_on_c, 9, 42, 0
1, 136335, Note_on_c, 9, 69, 108
1, 136379, Note_on_c, 9, 69, 0
1, 136440, Note_on_c, 9, 42, 70
1, 136559, Note_on_c, 9, 42, 0
1, 136560, Note_on_c, 9, 42, 116
1, 136679, Note_on_c, 9, 42, 0
1, 136680, Note_on_c, 9, 42, 70
1, 136799, Note_on_c, 9, 35, 0
1, 136799, Note_on_c, 9, 42, 0
1, 136800, Note_on_c, 9, 42, 57
1, 136800, Note_on_c, 9, 35, 115
1, 136814, Note_on_c, 9, 42, 0
1, 136815, Note_on_c, 9, 69, 104
1, 136859, Note_on_c, 9, 69, 0
1, 136920, Note_on_c, 9, 42, 66
1, 137039, Note_on_c, 9, 42, 0
1, 137040, Note_on_c, 9, 42, 113
1, 137159, Note_on_c, 9, 42, 0
1, 137160, Note_on_c, 9, 42, 71
1, 137279, Note_on_c, 9, 35, 0
1, 137279, Note_on_c, 9, 42, 0
1, 137280, Note_on_c, 9, 69, 85
1, 137280, Note_on_c, 9, 42, 56
1, 137280, Note_on_c, 9, 35, 117
1, 137399, Note_on_c, 9, 69, 0
1, 137399, Note_on_c, 9, 42, 0
1, 137400, Note_on_c, 9, 42, 68
1, 137519, Note_on_c, 9, 42, 0
1, 137520, Note_on_c, 9, 42, 119
1, 137639, Note_on_c, 9, 42, 0
1, 137640, Note_on_c, 9, 42, 71
1, 137729, Note_on_c, 9, 42, 0
1, 137745, Note_on_c, 9, 42, 62
1, 137759, Note_on_c, 9, 35, 0
1, 137760, Note_on_c, 9, 69, 91
1, 137760, Note_on_c, 9, 35, 114
1, 137879, Note_on_c, 9, 42, 0
1, 137879, Note_on_c, 9, 69, 0
1, 137880, Note_on_c, 9, 42, 73
1, 137999, Note_on_c, 9, 42, 0
1, 138000, Note_on_c, 9, 42, 119
1, 138119, Note_on_c, 9, 42, 0
1, 138120, Note_on_c, 9, 42, 70
1, 138239, Note_on_c, 9, 35, 0
1, 138239, Note_on_c, 9, 42, 0
1, 138240, Note_on_c, 9, 42, 59
1, 138240, Note_on_c, 9, 35, 118
1, 138254, Note_on_c, 9, 42, 0
1, 138255, Note_on_c, 9, 69, 97
1, 138299, Note_on_c, 9, 69, 0
1, 138360, Note_on_c, 9, 42, 71
1, 138479, Note_on_c, 9, 42, 0
1, 138480, Note_on_c, 9, 42, 114
1, 138599, Note_on_c, 9, 42, 0
1, 138600, Note_on_c, 9, 42, 73
1, 138719, Note_on_c, 9, 35, 0
1, 138719, Note_on_c, 9, 42, 0
1, 138720, Note_on_c, 9, 42, 58
1, 138720, Note_on_c, 9, 35, 115
1, 138734, Note_on_c, 9, 42, 0
1, 138735, Note_on_c, 9, 69, 95
1, 138779, Note_on_c, 9, 69, 0
1, 138840, Note_on_c, 9, 42, 73
1, 138959, Note_on_c, 9, 42, 0
1, 138960, Note_on_c, 9, 42, 116
1, 139079, Note_on_c, 9, 42, 0
1, 139080, Note_on_c, 9, 42, 68
1, 139199, Note_on_c, 9, 35, 0
1, 139199, Note_on_c, 9, 42, 0
1, 139200, Note_on_c, 9, 69, 95
1, 139200, Note_on_c, 9, 42, 56
1, 139200, Note_on_c, 9, 35, 117
1, 139319, Note_on_c, 9, 69, 0
1, 139319, Note_on_c, 9, 42, 0
1, 139320, Note_on_c, 9, 42, 63
1, 139439, Note_on_c, 9, 42, 0
1, 139440, Note_on_c, 9, 42, 116
1, 139559, Note_on_c, 9, 42, 0
1, 139560, Note_on_c, 9, 42, 71
1, 139679, Note_on_c, 9, 35, 0
1, 139679, Note_on_c, 9, 42, 0
1, 139680, Note_on_c, 9, 42, 57
1, 139680, Note_on_c, 9, 35, 116
1, 139694, Note_on_c, 9, 42, 0
1, 139695, Note_on_c, 9, 69, 102
1, 139739, Note_on_c, 9, 69, 0
1, 139800, Note_on_c, 9, 42, 71
1, 139919, Note_on_c, 9, 42, 0
1, 139920, Note_on_c, 9, 42, 110
1, 140039, Note_on_c, 9, 42, 0
1, 140040, Note_on_c, 9, 42, 66
1, 140159, Note_on_c, 9, 35, 0
1, 140159, Note_on_c, 9, 42, 0
1, 140160, Note_on_c, 9, 57, 86
1, 140160, Note_on_c, 9, 35, 122
1, 140639, Note_on_c, 9, 57, 0
1, 140639, Note_on_c, 9, 35, 0
1, 140640, Note_on_c, 9, 38, 127
1, 140654, Note_on_c, 9, 38, 0
1, 140655, Note_on_c, 9, 42, 61
1, 140879, Note_on_c, 9, 42, 0
1, 141000, Note_on_c, 9, 35, 118
1, 141119, Note_on_c, 9, 35, 0
1, 141120, Note_on_c, 9, 42, 67
1, 141240, Note_on_c, 9, 35, 117
1, 141359, Note_on_c, 9, 35, 0
1, 141360, Note_on_c, 9, 35, 119
1, 141569, Note_on_c, 9, 42, 0
1, 141585, Note_on_c, 9, 42, 67
1, 141599, Note_on_c, 9, 35, 0
1, 141600, Note_on_c, 9, 41, 114
1, 141600, Note_on_c, 9, 38, 127
1, 141600, Note_on_c, 9, 39, 127
1, 141600, Note_on_c, 9, 52, 114
1, 141839, Note_on_c, 9, 42, 0
1, 141839, Note_on_c, 9, 41, 0
1, 141839, Note_on_c, 9, 38, 0
1, 141839, Note_on_c, 9, 39, 0
1, 141839, Note_on_c, 9, 52, 0
1, 141840, Note_on_c, 9, 38, 86
1, 141959, Note_on_c, 9, 38, 0
1, 141960, Note_on_c, 9, 38, 127
1, 142079, Note_on_c, 9, 38, 0
1, 142080, Note_on_c, 9, 42, 59
1, 142080, Note_on_c, 9, 35, 123
1, 142529, Note_on_c, 9, 42, 0
1, 142545, Note_on_c, 9, 42, 61
1, 142559, Note_on_c, 9, 35, 0
1, 142560, Note_on_c, 9, 38, 127
1, 142920, Note_on_c, 9, 35, 119
1, 143039, Note_on_c, 9, 42, 0
1, 143039, Note_on_c, 9, 38, 0
1, 143039, Note_on_c, 9, 35, 0
1, 143040, Note_on_c, 9, 42, 59
1, 143160, Note_on_c, 9, 35, 116
1, 143279, Note_on_c, 9, 35, 0
1, 143280, Note_on_c, 9, 35, 120
1, 143489, Note_on_c, 9, 42, 0
1, 143505, Note_on_c, 9, 38, 127
1, 143505, Note_on_c, 9, 42, 60
1, 143519, Note_on_c, 9, 35, 0
1, 143520, Note_on_c, 9, 41, 122
1, 143520, Note_on_c, 9, 39, 123
1, 143520, Note_on_c, 9, 52, 122
1, 143759, Note_on_c, 9, 38, 0
1, 143759, Note_on_c, 9, 42, 0
1, 143759, Note_on_c, 9, 41, 0
1, 143759, Note_on_c, 9, 39, 0
1, 143759, Note_on_c, 9, 52, 0
1, 143760, Note_on_c, 9, 38, 100
1, 143879, Note_on_c, 9, 38, 0
1, 143880, Note_on_c, 9, 38, 127
1, 143999, Note_on_c, 9, 38, 0
1, 144000, Note_on_c, 9, 49, 87
1, 144000, Note_on_c, 9, 35, 120
1, 144119, Note_on_c, 9, 49, 0
1, 144120, Note_on_c, 9, 42, 78
1, 144239, Note_on_c, 9, 42, 0
1, 144240, Note_on_c, 9, 42, 116
1, 144359, Note_on_c, 9, 42, 0
1, 144360, Note_on_c, 9, 42, 87
1, 144449, Note_on_c, 9, 42, 0
1, 144465, Note_on_c, 9, 38, 127
1, 144479, Note_on_c, 9, 35, 0
1, 144480, Note_on_c, 9, 39, 101
1, 144494, Note_on_c, 9, 38, 0
1, 144494, Note_on_c, 9, 39, 0
1, 144495, Note_on_c, 9, 42, 61
1, 144539, Note_on_c, 9, 42, 0
1, 144600, Note_on_c, 9, 42, 75
1, 144719, Note_on_c, 9, 42, 0
1, 144720, Note_on_c, 9, 42, 119
1, 144839, Note_on_c, 9, 42, 0
1, 144840, Note_on_c, 9, 42, 80
1, 144959, Note_on_c, 9, 42, 0
1, 144960, Note_on_c, 9, 42, 67
1, 144960, Note_on_c, 9, 35, 118
1, 145079, Note_on_c, 9, 42, 0
1, 145080, Note_on_c, 9, 42, 81
1, 145199, Note_on_c, 9, 42, 0
1, 145200, Note_on_c, 9, 42, 122
1, 145319, Note_on_c, 9, 42, 0
1, 145320, Note_on_c, 9, 42, 76
1, 145439, Note_on_c, 9, 35, 0
1, 145439, Note_on_c, 9, 42, 0
1, 145440, Note_on_c, 9, 38, 125
1, 145440, Note_on_c, 9, 42, 67
1, 145559, Note_on_c, 9, 38, 0
1, 145559, Note_on_c, 9, 42, 0
1, 145560, Note_on_c, 9, 42, 70
1, 145679, Note_on_c, 9, 42, 0
1, 145680, Note_on_c, 9, 42, 122
1, 145799, Note_on_c, 9, 42, 0
1, 145800, Note_on_c, 9, 42, 76
1, 145919, Note_on_c, 9, 42, 0
1, 145920, Note_on_c, 9, 42, 59
1, 145920, Note_on_c, 9, 35, 119
1, 146039, Note_on_c, 9, 42, 0
1, 146040, Note_on_c, 9, 42, 73
1, 146159, Note_on_c, 9, 42, 0
1, 146160, Note_on_c, 9, 42, 122
1, 146279, Note_on_c, 9, 42, 0
1, 146280, Note_on_c, 9, 42, 74
1, 146399, Note_on_c, 9, 35, 0
1, 146399, Note_on_c, 9, 42, 0
1, 146400, Note_on_c, 9, 38, 127
1, 146400, Note_on_c, 9, 39, 95
1, 146400, Note_on_c, 9, 42, 61
1, 146519, Note_on_c, 9, 38, 0
1, 146519, Note_on_c, 9, 39, 0
1, 146519, Note_on_c, 9, 42, 0
1, 146520, Note_on_c, 9, 42, 70
1, 146639, Note_on_c, 9, 42, 0
1, 146640, Note_on_c, 9, 42, 118
1, 146759, Note_on_c, 9, 42, 0
1, 146760, Note_on_c, 9, 42, 75
1, 146879, Note_on_c, 9, 42, 0
1, 146880, Note_on_c, 9, 42, 59
1, 146880, Note_on_c, 9, 35, 120
1, 146999, Note_on_c, 9, 42, 0
1, 147000, Note_on_c, 9, 42, 75
1, 147119, Note_on_c, 9, 42, 0
1, 147120, Note_on_c, 9, 42, 119
1, 147239, Note_on_c, 9, 42, 0
1, 147240, Note_on_c, 9, 42, 70
1, 147359, Note_on_c, 9, 35, 0
1, 147359, Note_on_c, 9, 42, 0
1, 147360, Note_on_c, 9, 38, 127
1, 147360, Note_on_c, 9, 42, 60
1, 147479, Note_on_c, 9, 38, 0
1, 147479, Note_on_c, 9, 42, 0
1, 147480, Note_on_c, 9, 42, 75
1, 147599, Note_on_c, 9, 42, 0
1, 147600, Note_on_c, 9, 42, 116
1, 147719, Note_on_c, 9, 42, 0
1, 147720, Note_on_c, 9, 42, 74
1, 147839, Note_on_c, 9, 42, 0
1, 147840, Note_on_c, 9, 57, 90
1, 147840, Note_on_c, 9, 35, 120
1, 147959, Note_on_c, 9, 57, 0
1, 147960, Note_on_c, 9, 42, 70
1, 148079, Note_on_c, 9, 42, 0
1, 148080, Note_on_c, 9, 42, 116
1, 148199, Note_on_c, 9, 42, 0
1, 148200, Note_on_c, 9, 42, 70
1, 148319, Note_on_c, 9, 35, 0
1, 148319, Note_on_c, 9, 42, 0
1, 148320, Note_on_c, 9, 41, 122
1, 148320, Note_on_c, 9, 38, 127
1, 148320, Note_on_c, 9, 39, 127
1, 148320, Note_on_c, 9, 42, 57
1, 148320, Note_on_c, 9, 52, 122
1, 148439, Note_on_c, 9, 41, 0
1, 148439, Note_on_c, 9, 38, 0
1, 148439, Note_on_c, 9, 39, 0
1, 148439, Note_on_c, 9, 42, 0
1, 148439, Note_on_c, 9, 52, 0
1, 148440, Note_on_c, 9, 42, 66
1, 148559, Note_on_c, 9, 42, 0
1, 148560, Note_on_c, 9, 42, 113
1, 148679, Note_on_c, 9, 42, 0
1, 148680, Note_on_c, 9, 42, 71
1, 148799, Note_on_c, 9, 42, 0
1, 148800, Note_on_c, 9, 42, 56
1, 148800, Note_on_c, 9, 35, 117
1, 148919, Note_on_c, 9, 42, 0
1, 148920, Note_on_c, 9, 42, 68
1, 149039, Note_on_c, 9, 42, 0
1, 149040, Note_on_c, 9, 42, 119
1, 149159, Note_on_c, 9, 42, 0
1, 149160, Note_on_c, 9, 42, 71
1, 149279, Note_on_c, 9, 35, 0
1, 149279, Note_on_c, 9, 42, 0
1, 149280, Note_on_c, 9, 38, 125
1, 149280, Note_on_c, 9, 42, 62
1, 149399, Note_on_c, 9, 38, 0
1, 149399, Note_on_c, 9, 42, 0
1, 149400, Note_on_c, 9, 42, 73
1, 149519, Note_on_c, 9, 42, 0
1, 149520, Note_on_c, 9, 42, 119
1, 149639, Note_on_c, 9, 42, 0
1, 149640, Note_on_c, 9, 42, 70
1, 149759, Note_on_c, 9, 42, 0
1, 149760, Note_on_c, 9, 42, 59
1, 149760, Note_on_c, 9, 35, 118
1, 149879, Note_on_c, 9, 42, 0
1, 149880, Note_on_c, 9, 42, 71
1, 149999, Note_on_c, 9, 42, 0
1, 150000, Note_on_c, 9, 42, 114
1, 150119, Note_on_c, 9, 42, 0
1, 150120, Note_on_c, 9, 42, 73
1, 150239, Note_on_c, 9, 35, 0
1, 150239, Note_on_c, 9, 42, 0
1, 150240, Note_on_c, 9, 41, 114
1, 150240, Note_on_c, 9, 38, 125
1, 150240, Note_on_c, 9, 39, 127
1, 150240, Note_on_c, 9, 42, 58
1, 150240, Note_on_c, 9, 52, 114
1, 150359, Note_on_c, 9, 41, 0
1, 150359, Note_on_c, 9, 38, 0
1, 150359, Note_on_c, 9, 39, 0
1, 150359, Note_on_c, 9, 42, 0
1, 150359, Note_on_c, 9, 52, 0
1, 150360, Note_on_c, 9, 42, 73
1, 150479, Note_on_c, 9, 42, 0
1, 150480, Note_on_c, 9, 42, 116
1, 150599, Note_on_c, 9, 42, 0
1, 150600, Note_on_c, 9, 42, 68
1, 150719, Note_on_c, 9, 42, 0
1, 150720, Note_on_c, 9, 42, 56
1, 150720, Note_on_c, 9, 35, 118
1, 150839, Note_on_c, 9, 42, 0
1, 150840, Note_on_c, 9, 42, 63
1, 150959, Note_on_c, 9, 42, 0
1, 150960, Note_on_c, 9, 42, 116
1, 151079, Note_on_c, 9, 42, 0
1, 151080, Note_on_c, 9, 42, 87
1, 151169, Note_on_c, 9, 42, 0
1, 151185, Note_on_c, 9, 38, 127
1, 151199, Note_on_c, 9, 35, 0
1, 151200, Note_on_c, 9, 42, 61
1, 151319, Note_on_c, 9, 38, 0
1, 151319, Note_on_c, 9, 42, 0
1, 151320, Note_on_c, 9, 42, 75
1, 151439, Note_on_c, 9, 42, 0
1, 151440, Note_on_c, 9, 42, 119
1, 151559, Note_on_c, 9, 42, 0
1, 151560, Note_on_c, 9, 42, 80
1, 151679, Note_on_c, 9, 42, 0
1, 151680, Note_on_c, 9, 69, 79
1, 151680, Note_on_c, 9, 42, 67
1, 151680, Note_on_c, 9, 35, 118
1, 151799, Note_on_c, 9, 69, 0
1, 151799, Note_on_c, 9, 42, 0
1, 151800, Note_on_c, 9, 69, 85
1, 151800, Note_on_c, 9, 42, 78
1, 151919, Note_on_c, 9, 69, 0
1, 151919, Note_on_c, 9, 42, 0
1, 151920, Note_on_c, 9, 42, 116
1, 152039, Note_on_c, 9, 42, 0
1, 152040, Note_on_c, 9, 70, 79
1, 152040, Note_on_c, 9, 42, 87
1, 152129, Note_on_c, 9, 70, 0
1, 152129, Note_on_c, 9, 42, 0
1, 152145, Note_on_c, 9, 38, 125
1, 152159, Note_on_c, 9, 35, 0
1, 152160, Note_on_c, 9, 42, 61
1, 152279, Note_on_c, 9, 38, 0
1, 152279, Note_on_c, 9, 42, 0
1, 152280, Note_on_c, 9, 42, 75
1, 152399, Note_on_c, 9, 42, 0
1, 152400, Note_on_c, 9, 42, 119
1, 152519, Note_on_c, 9, 42, 0
1, 152520, Note_on_c, 9, 42, 80
1, 152609, Note_on_c, 9, 42, 0
1, 152625, Note_on_c, 9, 69, 39
1, 152640, Note_on_c, 9, 42, 67
1, 152640, Note_on_c, 9, 35, 118
1, 152729, Note_on_c, 9, 69, 0
1, 152729, Note_on_c, 9, 42, 0
1, 152745, Note_on_c, 9, 69, 74
1, 152760, Note_on_c, 9, 42, 81
1, 152879, Note_on_c, 9, 69, 0
1, 152879, Note_on_c, 9, 42, 0
1, 152880, Note_on_c, 9, 69, 87
1, 152880, Note_on_c, 9, 42, 122
1, 152999, Note_on_c, 9, 69, 0
1, 152999, Note_on_c, 9, 42, 0
1, 153000, Note_on_c, 9, 69, 108
1, 153000, Note_on_c, 9, 42, 76
1, 153119, Note_on_c, 9, 35, 0
1, 153119, Note_on_c, 9, 69, 0
1, 153119, Note_on_c, 9, 42, 0
1, 153120, Note_on_c, 9, 38, 127
1, 153120, Note_on_c, 9, 42, 67
1, 153239, Note_on_c, 9, 38, 0
1, 153239, Note_on_c, 9, 42, 0
1, 153240, Note_on_c, 9, 42, 70
1, 153359, Note_on_c, 9, 42, 0
1, 153360, Note_on_c, 9, 42, 122
1, 153479, Note_on_c, 9, 42, 0
1, 153480, Note_on_c, 9, 42, 76
1, 153599, Note_on_c, 9, 42, 0
1, 153600, Note_on_c, 9, 42, 59
1, 153600, Note_on_c, 9, 35, 118
1, 153614, Note_on_c, 9, 42, 0
1, 153615, Note_on_c, 9, 69, 79
1, 153659, Note_on_c, 9, 69, 0
1, 153720, Note_on_c, 9, 42, 73
1, 153734, Note_on_c, 9, 42, 0
1, 153735, Note_on_c, 9, 69, 85
1, 153779, Note_on_c, 9, 69, 0
1, 153840, Note_on_c, 9, 42, 122
1, 153929, Note_on_c, 9, 42, 0
1, 153945, Note_on_c, 9, 42, 74
1, 153960, Note_on_c, 9, 70, 79
1, 154079, Note_on_c, 9, 35, 0
1, 154079, Note_on_c, 9, 42, 0
1, 154079, Note_on_c, 9, 70, 0
1, 154080, Note_on_c, 9, 38, 125
1, 154080, Note_on_c, 9, 42, 61
1, 154199, Note_on_c, 9, 38, 0
1, 154199, Note_on_c, 9, 42, 0
1, 154200, Note_on_c, 9, 42, 70
1, 154319, Note_on_c, 9, 42, 0
1, 154320, Note_on_c, 9, 42, 118
1, 154439, Note_on_c, 9, 42, 0
1, 154440, Note_on_c, 9, 42, 75
1, 154529, Note_on_c, 9, 42, 0
1, 154545, Note_on_c, 9, 69, 39
1, 154560, Note_on_c, 9, 42, 59
1, 154560, Note_on_c, 9, 35, 119
1, 154649, Note_on_c, 9, 69, 0
1, 154649, Note_on_c, 9, 42, 0
1, 154665, Note_on_c, 9, 69, 74
1, 154680, Note_on_c, 9, 42, 75
1, 154799, Note_on_c, 9, 69, 0
1, 154799, Note_on_c, 9, 42, 0
1, 154800, Note_on_c, 9, 69, 87
1, 154800, Note_on_c, 9, 42, 119
1, 154889, Note_on_c, 9, 69, 0
1, 154889, Note_on_c, 9, 42, 0
1, 154905, Note_on_c, 9, 69, 108
1, 154920, Note_on_c, 9, 42, 70
1, 155039, Note_on_c, 9, 35, 0
1, 155039, Note_on_c, 9, 69, 0
1, 155039, Note_on_c, 9, 42, 0
1, 155040, Note_on_c, 9, 38, 119
1, 155040, Note_on_c, 9, 42, 60
1, 155159, Note_on_c, 9, 38, 0
1, 155159, Note_on_c, 9, 42, 0
1, 155160, Note_on_c, 9, 42, 75
1, 155279, Note_on_c, 9, 42, 0
1, 155280, Note_on_c, 9, 38, 102
1, 155280, Note_on_c, 9, 42, 116
1, 155399, Note_on_c, 9, 38, 0
1, 155399, Note_on_c, 9, 42, 0
1, 155400, Note_on_c, 9, 38, 127
1, 155400, Note_on_c, 9, 42, 74
1, 155489, Note_on_c, 9, 38, 0
1, 155489, Note_on_c, 9, 42, 0
1, 155505, Note_on_c, 9, 57, 90
1, 155519, Note_on_c, 9, 57, 0
1, 155520, Note_on_c, 9, 35, 120
1, 155640, Note_on_c, 9, 42, 70
1, 155759, Note_on_c, 9, 42, 0
1, 155760, Note_on_c, 9, 42, 116
1, 155879, Note_on_c, 9, 42, 0
1, 155880, Note_on_c, 9, 42, 70
1, 155999, Note_on_c, 9, 35, 0
1, 155999, Note_on_c, 9, 42, 0
1, 156000, Note_on_c, 9, 41, 122
1, 156000, Note_on_c, 9, 38, 127
1, 156000, Note_on_c, 9, 39, 127
1, 156000, Note_on_c, 9, 42, 57
1, 156000, Note_on_c, 9, 52, 122
1, 156119, Note_on_c, 9, 41, 0
1, 156119, Note_on_c, 9, 38, 0
1, 156119, Note_on_c, 9, 39, 0
1, 156119, Note_on_c, 9, 42, 0
1, 156119, Note_on_c, 9, 52, 0
1, 156120, Note_on_c, 9, 42, 66
1, 156239, Note_on_c, 9, 42, 0
1, 156240, Note_on_c, 9, 42, 113
1, 156359, Note_on_c, 9, 42, 0
1, 156360, Note_on_c, 9, 42, 71
1, 156479, Note_on_c, 9, 42, 0
1, 156480, Note_on_c, 9, 42, 56
1, 156480, Note_on_c, 9, 35, 117
1, 156599, Note_on_c, 9, 42, 0
1, 156600, Note_on_c, 9, 42, 68
1, 156719, Note_on_c, 9, 42, 0
1, 156720, Note_on_c, 9, 42, 119
1, 156839, Note_on_c, 9, 42, 0
1, 156840, Note_on_c, 9, 42, 71
1, 156959, Note_on_c, 9, 35, 0
1, 156959, Note_on_c, 9, 42, 0
1, 156960, Note_on_c, 9, 38, 125
1, 156960, Note_on_c, 9, 42, 62
1, 157079, Note_on_c, 9, 38, 0
1, 157079, Note_on_c, 9, 42, 0
1, 157080, Note_on_c, 9, 42, 73
1, 157199, Note_on_c, 9, 42, 0
1, 157200, Note_on_c, 9, 42, 119
1, 157319, Note_on_c, 9, 42, 0
1, 157320, Note_on_c, 9, 42, 70
1, 157439, Note_on_c, 9, 42, 0
1, 157440, Note_on_c, 9, 42, 59
1, 157440, Note_on_c, 9, 35, 118
1, 157559, Note_on_c, 9, 42, 0
1, 157560, Note_on_c, 9, 42, 71
1, 157679, Note_on_c, 9, 42, 0
1, 157680, Note_on_c, 9, 42, 114
1, 157799, Note_on_c, 9, 42, 0
1, 157800, Note_on_c, 9, 42, 73
1, 157919, Note_on_c, 9, 35, 0
1, 157919, Note_on_c, 9, 42, 0
1, 157920, Note_on_c, 9, 41, 114
1, 157920, Note_on_c, 9, 38, 125
1, 157920, Note_on_c, 9, 39, 127
1, 157920, Note_on_c, 9, 42, 58
1, 157920, Note_on_c, 9, 52, 114
1, 158039, Note_on_c, 9, 41, 0
1, 158039, Note_on_c, 9, 38, 0
1, 158039, Note_on_c, 9, 39, 0
1, 158039, Note_on_c, 9, 42, 0
1, 158039, Note_on_c, 9, 52, 0
1, 158040, Note_on_c, 9, 42, 73
1, 158159, Note_on_c, 9, 42, 0
1, 158160, Note_on_c, 9, 42, 116
1, 158279, Note_on_c, 9, 42, 0
1, 158280, Note_on_c, 9, 42, 68
1, 158399, Note_on_c, 9, 42, 0
1, 158400, Note_on_c, 9, 42, 56
1, 158400, Note_on_c, 9, 35, 118
1, 158519, Note_on_c, 9, 42, 0
1, 158520, Note_on_c, 9, 42, 63
1, 158639, Note_on_c, 9, 42, 0
1, 158640, Note_on_c, 9, 42, 116
1, 158759, Note_on_c, 9, 42, 0
1, 158760, Note_on_c, 9, 42, 87
1, 158849, Note_on_c, 9, 42, 0
1, 158865, Note_on_c, 9, 38, 127
1, 158879, Note_on_c, 9, 35, 0
1, 158880, Note_on_c, 9, 42, 61
1, 158999, Note_on_c, 9, 38, 0
1, 158999, Note_on_c, 9, 42, 0
1, 159000, Note_on_c, 9, 42, 75
1, 159119, Note_on_c, 9, 42, 0
1, 159120, Note_on_c, 9, 42, 119
1, 159239, Note_on_c, 9, 42, 0
1, 159240, Note_on_c, 9, 42, 80
1, 159359, Note_on_c, 9, 42, 0
1, 159360, Note_on_c, 9, 69, 79
1, 159360, Note_on_c, 9, 42, 67
1, 159360, Note_on_c, 9, 35, 118
1, 159479, Note_on_c, 9, 69, 0
1, 159479, Note_on_c, 9, 42, 0
1, 159480, Note_on_c, 9, 69, 85
1, 159480, Note_on_c, 9, 42, 78
1, 159599, Note_on_c, 9, 69, 0
1, 159599, Note_on_c, 9, 42, 0
1, 159600, Note_on_c, 9, 42, 116
1, 159719, Note_on_c, 9, 42, 0
1, 159720, Note_on_c, 9, 70, 79
1, 159720, Note_on_c, 9, 42, 87
1, 159809, Note_on_c, 9, 70, 0
1, 159809, Note_on_c, 9, 42, 0
1, 159825, Note_on_c, 9, 38, 125
1, 159839, Note_on_c, 9, 35, 0
1, 159840, Note_on_c, 9, 42, 61
1, 159959, Note_on_c, 9, 38, 0
1, 159959, Note_on_c, 9, 42, 0
1, 159960, Note_on_c, 9, 42, 75
1, 160079, Note_on_c, 9, 42, 0
1, 160080, Note_on_c, 9, 42, 119
1, 160199, Note_on_c, 9, 42, 0
1, 160200, Note_on_c, 9, 42, 80
1, 160289, Note_on_c, 9, 42, 0
1, 160305, Note_on_c, 9, 69, 39
1, 160320, Note_on_c, 9, 42, 67
1, 160320, Note_on_c, 9, 35, 118
1, 160409, Note_on_c, 9, 69, 0
1, 160409, Note_on_c, 9, 42, 0
1, 160425, Note_on_c, 9, 69, 74
1, 160440, Note_on_c, 9, 42, 81
1, 160559, Note_on_c, 9, 69, 0
1, 160559, Note_on_c, 9, 42, 0
1, 160560, Note_on_c, 9, 69, 87
1, 160560, Note_on_c, 9, 42, 122
1, 160679, Note_on_c, 9, 69, 0
1, 160679, Note_on_c, 9, 42, 0
1, 160680, Note_on_c, 9, 69, 108
1, 160680, Note_on_c, 9, 42, 76
1, 160799, Note_on_c, 9, 35, 0
1, 160799, Note_on_c, 9, 69, 0
1, 160799, Note_on_c, 9, 42, 0
1, 160800, Note_on_c, 9, 38, 127
1, 160800, Note_on_c, 9, 42, 67
1, 160919, Note_on_c, 9, 38, 0
1, 160919, Note_on_c, 9, 42, 0
1, 160920, Note_on_c, 9, 42, 70
1, 161039, Note_on_c, 9, 42, 0
1, 161040, Note_on_c, 9, 42, 122
1, 161159, Note_on_c, 9, 42, 0
1, 161160, Note_on_c, 9, 42, 76
1, 161279, Note_on_c, 9, 42, 0
1, 161280, Note_on_c, 9, 42, 59
1, 161280, Note_on_c, 9, 35, 118
1, 161294, Note_on_c, 9, 42, 0
1, 161295, Note_on_c, 9, 69, 79
1, 161339, Note_on_c, 9, 69, 0
1, 161400, Note_on_c, 9, 42, 73
1, 161414, Note_on_c, 9, 42, 0
1, 161415, Note_on_c, 9, 69, 85
1, 161459, Note_on_c, 9, 69, 0
1, 161520, Note_on_c, 9, 42, 122
1, 161609, Note_on_c, 9, 42, 0
1, 161625, Note_on_c, 9, 42, 74
1, 161640, Note_on_c, 9, 70, 79
1, 161759, Note_on_c, 9, 35, 0
1, 161759, Note_on_c, 9, 42, 0
1, 161759, Note_on_c, 9, 70, 0
1, 161760, Note_on_c, 9, 38, 125
1, 161760, Note_on_c, 9, 42, 61
1, 161879, Note_on_c, 9, 38, 0
1, 161879, Note_on_c, 9, 42, 0
1, 161880, Note_on_c, 9, 42, 70
1, 161999, Note_on_c, 9, 42, 0
1, 162000, Note_on_c, 9, 42, 118
1, 162119, Note_on_c, 9, 42, 0
1, 162120, Note_on_c, 9, 42, 75
1, 162209, Note_on_c, 9, 42, 0
1, 162225, Note_on_c, 9, 69, 39
1, 162240, Note_on_c, 9, 42, 59
1, 162240, Note_on_c, 9, 35, 119
1, 162329, Note_on_c, 9, 69, 0
1, 162329, Note_on_c, 9, 42, 0
1, 162345, Note_on_c, 9, 69, 74
1, 162360, Note_on_c, 9, 42, 75
1, 162479, Note_on_c, 9, 69, 0
1, 162479, Note_on_c, 9, 42, 0
1, 162480, Note_on_c, 9, 69, 87
1, 162480, Note_on_c, 9, 42, 119
1, 162569, Note_on_c, 9, 69, 0
1, 162569, Note_on_c, 9, 42, 0
1, 162585, Note_on_c, 9, 69, 108
1, 162600, Note_on_c, 9, 42, 70
1, 162719, Note_on_c, 9, 35, 0
1, 162719, Note_on_c, 9, 69, 0
1, 162719, Note_on_c, 9, 42, 0
1, 162720, Note_on_c, 9, 38, 119
1, 162720, Note_on_c, 9, 42, 60
1, 162839, Note_on_c, 9, 38, 0
1, 162839, Note_on_c, 9, 42, 0
1, 162840, Note_on_c, 9, 42, 75
1, 162959, Note_on_c, 9, 42, 0
1, 162960, Note_on_c, 9, 38, 102
1, 162960, Note_on_c, 9, 42, 116
1, 163079, Note_on_c, 9, 38, 0
1, 163079, Note_on_c, 9, 42, 0
1, 163080, Note_on_c, 9, 38, 127
1, 163080, Note_on_c, 9, 42, 74
1, 163199, Note_on_c, 9, 38, 0
1, 163199, Note_on_c, 9, 42, 0
1, 163200, Note_on_c, 9, 57, 90
1, 163200, Note_on_c, 9, 35, 120
1, 163319, Note_on_c, 9, 57, 0
1, 163320, Note_on_c, 9, 42, 70
1, 163439, Note_on_c, 9, 42, 0
1, 163440, Note_on_c, 9, 42, 116
1, 163559, Note_on_c, 9, 42, 0
1, 163560, Note_on_c, 9, 42, 70
1, 163679, Note_on_c, 9, 35, 0
1, 163679, Note_on_c, 9, 42, 0
1, 163680, Note_on_c, 9, 41, 122
1, 163680, Note_on_c, 9, 38, 127
1, 163680, Note_on_c, 9, 39, 127
1, 163680, Note_on_c, 9, 42, 57
1, 163680, Note_on_c, 9, 52, 122
1, 163799, Note_on_c, 9, 41, 0
1, 163799, Note_on_c, 9, 38, 0
1, 163799, Note_on_c, 9, 39, 0
1, 163799, Note_on_c, 9, 42, 0
1, 163799, Note_on_c, 9, 52, 0
1, 163800, Note_on_c, 9, 42, 66
1, 163919, Note_on_c, 9, 42, 0
1, 163920, Note_on_c, 9, 42, 113
1, 164039, Note_on_c, 9, 42, 0
1, 164040, Note_on_c, 9, 42, 71
1, 164159, Note_on_c, 9, 42, 0
1, 164160, Note_on_c, 9, 42, 56
1, 164160, Note_on_c, 9, 35, 117
1, 164279, Note_on_c, 9, 42, 0
1, 164280, Note_on_c, 9, 42, 68
1, 164399, Note_on_c, 9, 42, 0
1, 164400, Note_on_c, 9, 42, 119
1, 164519, Note_on_c, 9, 42, 0
1, 164520, Note_on_c, 9, 42, 71
1, 164639, Note_on_c, 9, 35, 0
1, 164639, Note_on_c, 9, 42, 0
1, 164640, Note_on_c, 9, 38, 125
1, 164640, Note_on_c, 9, 42, 62
1, 164759, Note_on_c, 9, 38, 0
1, 164759, Note_on_c, 9, 42, 0
1, 164760, Note_on_c, 9, 42, 73
1, 164879, Note_on_c, 9, 42, 0
1, 164880, Note_on_c, 9, 42, 119
1, 164999, Note_on_c, 9, 42, 0
1, 165000, Note_on_c, 9, 42, 70
1, 165119, Note_on_c, 9, 42, 0
1, 165120, Note_on_c, 9, 42, 59
1, 165120, Note_on_c, 9, 35, 118
1, 165239, Note_on_c, 9, 42, 0
1, 165240, Note_on_c, 9, 42, 71
1, 165359, Note_on_c, 9, 42, 0
1, 165360, Note_on_c, 9, 42, 114
1, 165479, Note_on_c, 9, 42, 0
1, 165480, Note_on_c, 9, 42, 73
1, 165599, Note_on_c, 9, 35, 0
1, 165599, Note_on_c, 9, 42, 0
1, 165600, Note_on_c, 9, 41, 114
1, 165600, Note_on_c, 9, 38, 125
1, 165600, Note_on_c, 9, 39, 127
1, 165600, Note_on_c, 9, 42, 58
1, 165600, Note_on_c, 9, 52, 114
1, 165719, Note_on_c, 9, 41, 0
1, 165719, Note_on_c, 9, 38, 0
1, 165719, Note_on_c, 9, 39, 0
1, 165719, Note_on_c, 9, 42, 0
1, 165719, Note_on_c, 9, 52, 0
1, 165720, Note_on_c, 9, 42, 73
1, 165839, Note_on_c, 9, 42, 0
1, 165840, Note_on_c, 9, 42, 116
1, 165959, Note_on_c, 9, 42, 0
1, 165960, Note_on_c, 9, 42, 68
1, 166079, Note_on_c, 9, 42, 0
1, 166080, Note_on_c, 9, 42, 56
1, 166080, Note_on_c, 9, 35, 118
1, 166199, Note_on_c, 9, 42, 0
1, 166200, Note_on_c, 9, 42, 63
1, 166319, Note_on_c, 9, 42, 0
1, 166320, Note_on_c, 9, 42, 116
1, 166439, Note_on_c, 9, 42, 0
1, 166440, Note_on_c, 9, 42, 87
1, 166529, Note_on_c, 9, 42, 0
1, 166545, Note_on_c, 9, 38, 127
1, 166559, Note_on_c, 9, 35, 0
1, 166560, Note_on_c, 9, 42, 61
1, 166679, Note_on_c, 9, 38, 0
1, 166679, Note_on_c, 9, 42, 0
1, 166680, Note_on_c, 9, 42, 75
1, 166799, Note_on_c, 9, 42, 0
1, 166800, Note_on_c, 9, 42, 119
1, 166919, Note_on_c, 9, 42, 0
1, 166920, Note_on_c, 9, 42, 80
1, 167039, Note_on_c, 9, 42, 0
1, 167040, Note_on_c, 9, 69, 79
1, 167040, Note_on_c, 9, 42, 67
1, 167040, Note_on_c, 9, 35, 118
1, 167159, Note_on_c, 9, 69, 0
1, 167159, Note_on_c, 9, 42, 0
1, 167160, Note_on_c, 9, 69, 85
1, 167160, Note_on_c, 9, 42, 78
1, 167279, Note_on_c, 9, 69, 0
1, 167279, Note_on_c, 9, 42, 0
1, 167280, Note_on_c, 9, 42, 116
1, 167399, Note_on_c, 9, 42, 0
1, 167400, Note_on_c, 9, 70, 79
1, 167400, Note_on_c, 9, 42, 87
1, 167489, Note_on_c, 9, 70, 0
1, 167489, Note_on_c, 9, 42, 0
1, 167505, Note_on_c, 9, 38, 125
1, 167519, Note_on_c, 9, 35, 0
1, 167520, Note_on_c, 9, 42, 61
1, 167639, Note_on_c, 9, 38, 0
1, 167639, Note_on_c, 9, 42, 0
1, 167640, Note_on_c, 9, 42, 75
1, 167759, Note_on_c, 9, 42, 0
1, 167760, Note_on_c, 9, 42, 119
1, 167879, Note_on_c, 9, 42, 0
1, 167880, Note_on_c, 9, 42, 80
1, 167969, Note_on_c, 9, 42, 0
1, 167985, Note_on_c, 9, 69, 39
1, 168000, Note_on_c, 9, 42, 67
1, 168000, Note_on_c, 9, 35, 118
1, 168089, Note_on_c, 9, 69, 0
1, 168089, Note_on_c, 9, 42, 0
1, 168105, Note_on_c, 9, 69, 74
1, 168120, Note_on_c, 9, 42, 81
1, 168239, Note_on_c, 9, 69, 0
1, 168239, Note_on_c, 9, 42, 0
1, 168240, Note_on_c, 9, 69, 87
1, 168240, Note_on_c, 9, 42, 122
1, 168359, Note_on_c, 9, 69, 0
1, 168359, Note_on_c, 9, 42, 0
1, 168360, Note_on_c, 9, 69, 108
1, 168360, Note_on_c, 9, 42, 76
1, 168479, Note_on_c, 9, 35, 0
1, 168479, Note_on_c, 9, 69, 0
1, 168479, Note_on_c, 9, 42, 0
1, 168480, Note_on_c, 9, 38, 127
1, 168480, Note_on_c, 9, 42, 67
1, 168599, Note_on_c, 9, 38, 0
1, 168599, Note_on_c, 9, 42, 0
1, 168600, Note_on_c, 9, 42, 70
1, 168719, Note_on_c, 9, 42, 0
1, 168720, Note_on_c, 9, 42, 122
1, 168839, Note_on_c, 9, 42, 0
1, 168840, Note_on_c, 9, 42, 76
1, 168959, Note_on_c, 9, 42, 0
1, 168960, Note_on_c, 9, 42, 59
1, 168960, Note_on_c, 9, 35, 118
1, 168974, Note_on_c, 9, 42, 0
1, 168975, Note_on_c, 9, 69, 79
1, 169019, Note_on_c, 9, 69, 0
1, 169080, Note_on_c, 9, 42, 73
1, 169094, Note_on_c, 9, 42, 0
1, 169095, Note_on_c, 9, 69, 85
1, 169139, Note_on_c, 9, 69, 0
1, 169200, Note_on_c, 9, 42, 122
1, 169289, Note_on_c, 9, 42, 0
1, 169305, Note_on_c, 9, 42, 74
1, 169320, Note_on_c, 9, 70, 79
1, 169439, Note_on_c, 9, 35, 0
1, 169439, Note_on_c, 9, 42, 0
1, 169439, Note_on_c, 9, 70, 0
1, 169440, Note_on_c, 9, 38, 125
1, 169440, Note_on_c, 9, 42, 61
1, 169559, Note_on_c, 9, 38, 0
1, 169559, Note_on_c, 9, 42, 0
1, 169560, Note_on_c, 9, 42, 70
1, 169679, Note_on_c, 9, 42, 0
1, 169680, Note_on_c, 9, 42, 118
1, 169799, Note_on_c, 9, 42, 0
1, 169800, Note_on_c, 9, 42, 75
1, 169889, Note_on_c, 9, 42, 0
1, 169905, Note_on_c, 9, 69, 39
1, 169920, Note_on_c, 9, 42, 59
1, 169920, Note_on_c, 9, 35, 119
1, 170009, Note_on_c, 9, 69, 0
1, 170009, Note_on_c, 9, 42, 0
1, 170025, Note_on_c, 9, 69, 74
1, 170040, Note_on_c, 9, 42, 75
1, 170159, Note_on_c, 9, 69, 0
1, 170159, Note_on_c, 9, 42, 0
1, 170160, Note_on_c, 9, 69, 87
1, 170160, Note_on_c, 9, 42, 119
1, 170249, Note_on_c, 9, 69, 0
1, 170249, Note_on_c, 9, 42, 0
1, 170265, Note_on_c, 9, 69, 108
1, 170280, Note_on_c, 9, 42, 70
1, 170399, Note_on_c, 9, 35, 0
1, 170399, Note_on_c, 9, 69, 0
1, 170399, Note_on_c, 9, 42, 0
1, 170400, Note_on_c, 9, 38, 119
1, 170400, Note_on_c, 9, 42, 60
1, 170519, Note_on_c, 9, 38, 0
1, 170519, Note_on_c, 9, 42, 0
1, 170520, Note_on_c, 9, 42, 75
1, 170639, Note_on_c, 9, 42, 0
1, 170640, Note_on_c, 9, 38, 102
1, 170640, Note_on_c, 9, 42, 116
1, 170759, Note_on_c, 9, 38, 0
1, 170759, Note_on_c, 9, 42, 0
1, 170760, Note_on_c, 9, 38, 127
1, 170760, Note_on_c, 9, 42, 74
1, 170879, Note_on_c, 9, 38, 0
1, 170879, Note_on_c, 9, 42, 0
1, 170880, Note_on_c, 9, 57, 90
1, 170880, Note_on_c, 9, 35, 120
1, 170999, Note_on_c, 9, 57, 0
1, 171000, Note_on_c, 9, 42, 70
1, 171119, Note_on_c, 9, 42, 0
1, 171120, Note_on_c, 9, 42, 116
1, 171239, Note_on_c, 9, 42, 0
1, 171240, Note_on_c, 9, 42, 70
1, 171359, Note_on_c, 9, 35, 0
1, 171359, Note_on_c, 9, 42, 0
1, 171360, Note_on_c, 9, 41, 122
1, 171360, Note_on_c, 9, 38, 127
1, 171360, Note_on_c, 9, 39, 127
1, 171360, Note_on_c, 9, 42, 57
1, 171360, Note_on_c, 9, 52, 122
1, 171479, Note_on_c, 9, 41, 0
1, 171479, Note_on_c, 9, 38, 0
1, 171479, Note_on_c, 9, 39, 0
1, 171479, Note_on_c, 9, 42, 0
1, 171479, Note_on_c, 9, 52, 0
1, 171480, Note_on_c, 9, 42, 66
1, 171599, Note_on_c, 9, 42, 0
1, 171600, Note_on_c, 9, 42, 113
1, 171719, Note_on_c, 9, 42, 0
1, 171720, Note_on_c, 9, 42, 71
1, 171839, Note_on_c, 9, 42, 0
1, 171840, Note_on_c, 9, 42, 56
1, 171840, Note_on_c, 9, 35, 117
1, 171959, Note_on_c, 9, 42, 0
1, 171960, Note_on_c, 9, 42, 68
1, 172079, Note_on_c, 9, 42, 0
1, 172080, Note_on_c, 9, 42, 119
1, 172199, Note_on_c, 9, 42, 0
1, 172200, Note_on_c, 9, 42, 71
1, 172319, Note_on_c, 9, 35, 0
1, 172319, Note_on_c, 9, 42, 0
1, 172320, Note_on_c, 9, 38, 125
1, 172320, Note_on_c, 9, 42, 62
1, 172439, Note_on_c, 9, 38, 0
1, 172439, Note_on_c, 9, 42, 0
1, 172440, Note_on_c, 9, 42, 73
1, 172559, Note_on_c, 9, 42, 0
1, 172560, Note_on_c, 9, 42, 119
1, 172679, Note_on_c, 9, 42, 0
1, 172680, Note_on_c, 9, 42, 70
1, 172799, Note_on_c, 9, 42, 0
1, 172800, Note_on_c, 9, 42, 59
1, 172800, Note_on_c, 9, 35, 118
1, 172919, Note_on_c, 9, 42, 0
1, 172920, Note_on_c, 9, 42, 71
1, 173039, Note_on_c, 9, 42, 0
1, 173040, Note_on_c, 9, 42, 114
1, 173159, Note_on_c, 9, 42, 0
1, 173160, Note_on_c, 9, 42, 73
1, 173279, Note_on_c, 9, 35, 0
1, 173279, Note_on_c, 9, 42, 0
1, 173280, Note_on_c, 9, 41, 114
1, 173280, Note_on_c, 9, 38, 125
1, 173280, Note_on_c, 9, 39, 127
1, 173280, Note_on_c, 9, 42, 58
1, 173280, Note_on_c, 9, 52, 114
1, 173399, Note_on_c, 9, 41, 0
1, 173399, Note_on_c, 9, 38, 0
1, 173399, Note_on_c, 9, 39, 0
1, 173399, Note_on_c, 9, 42, 0
1, 173399, Note_on_c, 9, 52, 0
1, 173400, Note_on_c, 9, 42, 73
1, 173519, Note_on_c, 9, 42, 0
1, 173520, Note_on_c, 9, 42, 116
1, 173639, Note_on_c, 9, 42, 0
1, 173640, Note_on_c, 9, 42, 68
1, 173759, Note_on_c, 9, 42, 0
1, 173760, Note_on_c, 9, 42, 56
1, 173760, Note_on_c, 9, 35, 118
1, 173879, Note_on_c, 9, 42, 0
1, 173880, Note_on_c, 9, 42, 63
1, 173999, Note_on_c, 9, 42, 0
1, 174000, Note_on_c, 9, 42, 116
1, 174119, Note_on_c, 9, 42, 0
1, 174120, Note_on_c, 9, 42, 87
1, 174209, Note_on_c, 9, 42, 0
1, 174225, Note_on_c, 9, 38, 127
1, 174239, Note_on_c, 9, 35, 0
1, 174240, Note_on_c, 9, 42, 61
1, 174359, Note_on_c, 9, 38, 0
1, 174359, Note_on_c, 9, 42, 0
1, 174360, Note_on_c, 9, 42, 75
1, 174479, Note_on_c, 9, 42, 0
1, 174480, Note_on_c, 9, 42, 119
1, 174599, Note_on_c, 9, 42, 0
1, 174600, Note_on_c, 9, 42, 80
1, 174719, Note_on_c, 9, 42, 0
1, 174720, Note_on_c, 9, 69, 79
1, 174720, Note_on_c, 9, 42, 67
1, 174720, Note_on_c, 9, 35, 118
1, 174839, Note_on_c, 9, 69, 0
1, 174839, Note_on_c, 9, 42, 0
1, 174840, Note_on_c, 9, 69, 85
1, 174840, Note_on_c, 9, 42, 78
1, 174959, Note_on_c, 9, 69, 0
1, 174959, Note_on_c, 9, 42, 0
1, 174960, Note_on_c, 9, 42, 116
1, 175079, Note_on_c, 9, 42, 0
1, 175080, Note_on_c, 9, 70, 79
1, 175080, Note_on_c, 9, 42, 87
1, 175169, Note_on_c, 9, 70, 0
1, 175169, Note_on_c, 9, 42, 0
1, 175185, Note_on_c, 9, 38, 125
1, 175199, Note_on_c, 9, 35, 0
1, 175200, Note_on_c, 9, 42, 61
1, 175319, Note_on_c, 9, 38, 0
1, 175319, Note_on_c, 9, 42, 0
1, 175320, Note_on_c, 9, 42, 75
1, 175439, Note_on_c, 9, 42, 0
1, 175440, Note_on_c, 9, 42, 119
1, 175559, Note_on_c, 9, 42, 0
1, 175560, Note_on_c, 9, 42, 80
1, 175649, Note_on_c, 9, 42, 0
1, 175665, Note_on_c, 9, 69, 39
1, 175680, Note_on_c, 9, 42, 67
1, 175680, Note_on_c, 9, 35, 118
1, 175769, Note_on_c, 9, 69, 0
1, 175769, Note_on_c, 9, 42, 0
1, 175785, Note_on_c, 9, 69, 74
1, 175800, Note_on_c, 9, 42, 81
1, 175919, Note_on_c, 9, 69, 0
1, 175919, Note_on_c, 9, 42, 0
1, 175920, Note_on_c, 9, 69, 87
1, 175920, Note_on_c, 9, 42, 122
1, 176039, Note_on_c, 9, 69, 0
1, 176039, Note_on_c, 9, 42, 0
1, 176040, Note_on_c, 9, 69, 108
1, 176040, Note_on_c, 9, 42, 76
1, 176159, Note_on_c, 9, 35, 0
1, 176159, Note_on_c, 9, 69, 0
1, 176159, Note_on_c, 9, 42, 0
1, 176160, Note_on_c, 9, 38, 127
1, 176160, Note_on_c, 9, 42, 67
1, 176279, Note_on_c, 9, 38, 0
1, 176279, Note_on_c, 9, 42, 0
1, 176280, Note_on_c, 9, 42, 70
1, 176399, Note_on_c, 9, 42, 0
1, 176400, Note_on_c, 9, 42, 122
1, 176519, Note_on_c, 9, 42, 0
1, 176520, Note_on_c, 9, 42, 76
1, 176639, Note_on_c, 9, 42, 0
1, 176640, Note_on_c, 9, 42, 59
1, 176640, Note_on_c, 9, 35, 118
1, 176654, Note_on_c, 9, 42, 0
1, 176655, Note_on_c, 9, 69, 79
1, 176699, Note_on_c, 9, 69, 0
1, 176760, Note_on_c, 9, 42, 73
1, 176774, Note_on_c, 9, 42, 0
1, 176775, Note_on_c, 9, 69, 85
1, 176819, Note_on_c, 9, 69, 0
1, 176880, Note_on_c, 9, 42, 122
1, 176969, Note_on_c, 9, 42, 0
1, 176985, Note_on_c, 9, 42, 74
1, 177000, Note_on_c, 9, 70, 79
1, 177119, Note_on_c, 9, 35, 0
1, 177119, Note_on_c, 9, 42, 0
1, 177119, Note_on_c, 9, 70, 0
1, 177120, Note_on_c, 9, 38, 125
1, 177120, Note_on_c, 9, 42, 61
1, 177239, Note_on_c, 9, 38, 0
1, 177239, Note_on_c, 9, 42, 0
1, 177240, Note_on_c, 9, 42, 70
1, 177359, Note_on_c, 9, 42, 0
1, 177360, Note_on_c, 9, 42, 118
1, 177479, Note_on_c, 9, 42, 0
1, 177480, Note_on_c, 9, 42, 75
1, 177569, Note_on_c, 9, 42, 0
1, 177585, Note_on_c, 9, 69, 39
1, 177600, Note_on_c, 9, 42, 59
1, 177600, Note_on_c, 9, 35, 119
1, 177689, Note_on_c, 9, 69, 0
1, 177689, Note_on_c, 9, 42, 0
1, 177705, Note_on_c, 9, 69, 74
1, 177720, Note_on_c, 9, 42, 75
1, 177839, Note_on_c, 9, 69, 0
1, 177839, Note_on_c, 9, 42, 0
1, 177840, Note_on_c, 9, 69, 87
1, 177840, Note_on_c, 9, 42, 119
1, 177929, Note_on_c, 9, 69, 0
1, 177929, Note_on_c, 9, 42, 0
1, 177945, Note_on_c, 9, 69, 108
1, 177960, Note_on_c, 9, 42, 70
1, 178079, Note_on_c, 9, 35, 0
1, 178079, Note_on_c, 9, 69, 0
1, 178079, Note_on_c, 9, 42, 0
1, 178080, Note_on_c, 9, 38, 119
1, 178080, Note_on_c, 9, 42, 60
1, 178199, Note_on_c, 9, 38, 0
1, 178199, Note_on_c, 9, 42, 0
1, 178200, Note_on_c, 9, 42, 75
1, 178319, Note_on_c, 9, 42, 0
1, 178320, Note_on_c, 9, 38, 102
1, 178320, Note_on_c, 9, 42, 116
1, 178439, Note_on_c, 9, 38, 0
1, 178439, Note_on_c, 9, 42, 0
1, 178440, Note_on_c, 9, 38, 127
1, 178440, Note_on_c, 9, 42, 74
1, 178559, Note_on_c, 9, 38, 0
1, 178559, Note_on_c, 9, 42, 0
1, 178560, End_track
0, 0, End_of_file
