0, 0, Header, 1, 1, 480
1, 0, Start_track
1, 0, Time_signature, 4, 2, 24, 8
1, 0, Key_signature, 0, "major"
1, 0, Tempo, 495868
1, 0, Control_c, 9, 121, 0
1, 0, Program_c, 9, 0
1, 0, Control_c, 9, 7, 100
1, 0, Control_c, 9, 10, 64
1, 0, Control_c, 9, 91, 0
1, 0, Control_c, 9, 93, 0
1, 0, MIDI_port, 0
1, 13800, Note_on_c, 9, 47, 16
1, 13814, Note_on_c, 9, 47, 0
1, 13815, Note_on_c, 9, 41, 16
1, 13859, Note_on_c, 9, 41, 0
1, 14025, Note_on_c, 9, 41, 21
1, 14039, Note_on_c, 9, 41, 0
1, 14040, Note_on_c, 9, 47, 21
1, 14279, Note_on_c, 9, 47, 0
1, 14280, Note_on_c, 9, 41, 22
1, 14280, Note_on_c, 9, 47, 22
1, 14399, Note_on_c, 9, 41, 0
1, 14399, Note_on_c, 9, 47, 0
1, 14520, Note_on_c, 9, 41, 25
1, 14520, Note_on_c, 9, 47, 25
1, 14729, Note_on_c, 9, 41, 0
1, 14729, Note_on_c, 9, 47, 0
1, 14745, Note_on_c, 9, 47, 27
1, 14759, Note_on_c, 9, 47, 0
1, 14760, Note_on_c, 9, 41, 27
1, 14879, Note_on_c, 9, 41, 0
1, 15000, Note_on_c, 9, 41, 30
1, 15014, Note_on_c, 9, 41, 0
1, 15015, Note_on_c, 9, 47, 30
1, 15059, Note_on_c, 9, 47, 0
1, 15255, Note_on_c, 9, 41, 31
1, 15269, Note_on_c, 9, 41, 0
1, 15270, Note_on_c, 9, 47, 32
1, 15359, Note_on_c, 9, 47, 0
1, 15510, Note_on_c, 9, 41, 33
1, 15510, Note_on_c, 9, 47, 33
1, 15599, Note_on_c, 9, 41, 0
1, 15599, Note_on_c, 9, 47, 0
1, 15735, Note_on_c, 9, 47, 35
1, 15749, Note_on_c, 9, 47, 0
1, 15750, Note_on_c, 9, 41, 35
1, 15839, Note_on_c, 9, 41, 0
1, 15975, Note_on_c, 9, 41, 38
1, 15975, Note_on_c, 9, 47, 38
1, 16019, Note_on_c, 9, 41, 0
1, 16019, Note_on_c, 9, 47, 0
1, 16215, Note_on_c, 9, 41, 41
1, 16215, Note_on_c, 9, 47, 41
1, 16259, Note_on_c, 9, 41, 0
1, 16259, Note_on_c, 9, 47, 0
1, 16440, Note_on_c, 9, 41, 43
1, 16440, Note_on_c, 9, 47, 43
1, 16679, Note_on_c, 9, 41, 0
1, 16679, Note_on_c, 9, 47, 0
1, 16680, Note_on_c, 9, 41, 47
1, 16680, Note_on_c, 9, 47, 47
1, 16799, Note_on_c, 9, 41, 0
1, 16799, Note_on_c, 9, 47, 0
1, 16905, Note_on_c, 9, 41, 50
1, 16905, Note_on_c, 9, 47, 50
1, 17159, Note_on_c, 9, 41, 0
1, 17159, Note_on_c, 9, 47, 0
1, 17160, Note_on_c, 9, 41, 53
1, 17160, Note_on_c, 9, 47, 53
1, 17279, Note_on_c, 9, 41, 0
1, 17279, Note_on_c, 9, 47, 0
1, 17400, Note_on_c, 9, 41, 56
1, 17400, Note_on_c, 9, 47, 56
1, 17639, Note_on_c, 9, 41, 0
1, 17639, Note_on_c, 9, 47, 0
1, 17640, Note_on_c, 9, 41, 60
1, 17640, Note_on_c, 9, 47, 60
1, 17759, Note_on_c, 9, 41, 0
1, 17759, Note_on_c, 9, 47, 0
1, 17880, Note_on_c, 9, 41, 65
1, 17880, Note_on_c, 9, 47, 65
1, 18119, Note_on_c, 9, 41, 0
1, 18119, Note_on_c, 9, 47, 0
1, 18120, Note_on_c, 9, 47, 69
1, 18134, Note_on_c, 9, 47, 0
1, 18135, Note_on_c, 9, 41, 69
1, 18179, Note_on_c, 9, 41, 0
1, 18360, Note_on_c, 9, 47, 74
1, 18374, Note_on_c, 9, 47, 0
1, 18375, Note_on_c, 9, 41, 74
1, 18419, Note_on_c, 9, 41, 0
1, 18600, Note_on_c, 9, 47, 79
1, 18600, Note_on_c, 9, 35, 118
1, 18629, Note_on_c, 9, 47, 0
1, 18630, Note_on_c, 9, 41, 80
1, 18719, Note_on_c, 9, 35, 0
1, 18719, Note_on_c, 9, 41, 0
1, 18825, Note_on_c, 9, 38, 126
1, 18839, Note_on_c, 9, 38, 0
1, 18855, Note_on_c, 9, 47, 87
1, 18869, Note_on_c, 9, 47, 0
1, 18870, Note_on_c, 9, 41, 87
1, 18870, Note_on_c, 9, 38, 126
1, 18959, Note_on_c, 9, 41, 0
1, 18959, Note_on_c, 9, 38, 0
1, 19095, Note_on_c, 9, 47, 94
1, 19109, Note_on_c, 9, 47, 0
1, 19110, Note_on_c, 9, 41, 94
1, 19199, Note_on_c, 9, 41, 0
1, 19305, Note_on_c, 9, 49, 87
1, 19319, Note_on_c, 9, 49, 0
1, 19320, Note_on_c, 9, 41, 79
1, 19320, Note_on_c, 9, 47, 89
1, 19320, Note_on_c, 9, 35, 116
1, 19439, Note_on_c, 9, 41, 0
1, 19439, Note_on_c, 9, 47, 0
1, 19515, Note_on_c, 9, 42, 98
1, 19529, Note_on_c, 9, 42, 0
1, 19530, Note_on_c, 9, 41, 70
1, 19530, Note_on_c, 9, 47, 92
1, 19559, Note_on_c, 9, 41, 0
1, 19559, Note_on_c, 9, 47, 0
1, 19679, Note_on_c, 9, 35, 0
1, 19740, Note_on_c, 9, 38, 126
1, 19740, Note_on_c, 9, 42, 87
1, 19919, Note_on_c, 9, 38, 0
1, 19919, Note_on_c, 9, 42, 0
1, 19950, Note_on_c, 9, 42, 75
1, 19964, Note_on_c, 9, 42, 0
1, 19965, Note_on_c, 9, 41, 79
1, 19965, Note_on_c, 9, 47, 97
1, 20159, Note_on_c, 9, 41, 0
1, 20159, Note_on_c, 9, 47, 0
1, 20160, Note_on_c, 9, 42, 91
1, 20175, Note_on_c, 9, 35, 116
1, 20399, Note_on_c, 9, 42, 0
1, 20399, Note_on_c, 9, 35, 0
1, 20400, Note_on_c, 9, 42, 73
1, 20414, Note_on_c, 9, 42, 0
1, 20415, Note_on_c, 9, 41, 70
1, 20415, Note_on_c, 9, 47, 92
1, 20639, Note_on_c, 9, 41, 0
1, 20639, Note_on_c, 9, 47, 0
1, 20640, Note_on_c, 9, 42, 79
1, 20654, Note_on_c, 9, 42, 0
1, 20655, Note_on_c, 9, 41, 75
1, 20655, Note_on_c, 9, 38, 126
1, 20879, Note_on_c, 9, 41, 0
1, 20879, Note_on_c, 9, 38, 0
1, 20880, Note_on_c, 9, 42, 78
1, 21119, Note_on_c, 9, 42, 0
1, 21135, Note_on_c, 9, 41, 77
1, 21135, Note_on_c, 9, 47, 85
1, 21135, Note_on_c, 9, 49, 93
1, 21135, Note_on_c, 9, 35, 116
1, 21359, Note_on_c, 9, 41, 0
1, 21359, Note_on_c, 9, 47, 0
1, 21359, Note_on_c, 9, 49, 0
1, 21359, Note_on_c, 9, 35, 0
1, 21360, Note_on_c, 9, 41, 63
1, 21360, Note_on_c, 9, 42, 79
1, 21374, Note_on_c, 9, 41, 0
1, 21374, Note_on_c, 9, 42, 0
1, 21375, Note_on_c, 9, 47, 85
1, 21599, Note_on_c, 9, 47, 0
1, 21600, Note_on_c, 9, 38, 119
1, 21600, Note_on_c, 9, 42, 78
1, 21839, Note_on_c, 9, 38, 0
1, 21839, Note_on_c, 9, 42, 0
1, 21855, Note_on_c, 9, 42, 76
1, 22079, Note_on_c, 9, 42, 0
1, 22080, Note_on_c, 9, 41, 81
1, 22080, Note_on_c, 9, 47, 102
1, 22094, Note_on_c, 9, 41, 0
1, 22094, Note_on_c, 9, 47, 0
1, 22095, Note_on_c, 9, 42, 73
1, 22095, Note_on_c, 9, 35, 112
1, 22319, Note_on_c, 9, 42, 0
1, 22319, Note_on_c, 9, 35, 0
1, 22320, Note_on_c, 9, 41, 63
1, 22320, Note_on_c, 9, 47, 79
1, 22320, Note_on_c, 9, 42, 75
1, 22559, Note_on_c, 9, 41, 0
1, 22559, Note_on_c, 9, 47, 0
1, 22559, Note_on_c, 9, 42, 0
1, 22560, Note_on_c, 9, 41, 85
1, 22560, Note_on_c, 9, 38, 117
1, 22560, Note_on_c, 9, 42, 79
1, 22799, Note_on_c, 9, 41, 0
1, 22799, Note_on_c, 9, 38, 0
1, 22799, Note_on_c, 9, 42, 0
1, 22800, Note_on_c, 9, 42, 81
1, 23039, Note_on_c, 9, 42, 0
1, 23055, Note_on_c, 9, 41, 72
1, 23055, Note_on_c, 9, 47, 95
1, 23055, Note_on_c, 9, 42, 41
1, 23055, Note_on_c, 9, 49, 91
1, 23055, Note_on_c, 9, 35, 111
1, 23279, Note_on_c, 9, 41, 0
1, 23279, Note_on_c, 9, 47, 0
1, 23279, Note_on_c, 9, 42, 0
1, 23279, Note_on_c, 9, 49, 0
1, 23279, Note_on_c, 9, 35, 0
1, 23280, Note_on_c, 9, 42, 72
1, 23294, Note_on_c, 9, 42, 0
1, 23295, Note_on_c, 9, 41, 72
1, 23295, Note_on_c, 9, 47, 87
1, 23519, Note_on_c, 9, 41, 0
1, 23519, Note_on_c, 9, 47, 0
1, 23520, Note_on_c, 9, 38, 115
1, 23520, Note_on_c, 9, 42, 68
1, 23759, Note_on_c, 9, 38, 0
1, 23759, Note_on_c, 9, 42, 0
1, 23760, Note_on_c, 9, 42, 66
1, 23774, Note_on_c, 9, 42, 0
1, 23775, Note_on_c, 9, 41, 83
1, 23775, Note_on_c, 9, 47, 102
1, 23999, Note_on_c, 9, 41, 0
1, 23999, Note_on_c, 9, 47, 0
1, 24000, Note_on_c, 9, 42, 73
1, 24000, Note_on_c, 9, 35, 111
1, 24239, Note_on_c, 9, 42, 0
1, 24240, Note_on_c, 9, 41, 60
1, 24240, Note_on_c, 9, 47, 85
1, 24240, Note_on_c, 9, 42, 67
1, 24479, Note_on_c, 9, 35, 0
1, 24479, Note_on_c, 9, 41, 0
1, 24479, Note_on_c, 9, 47, 0
1, 24479, Note_on_c, 9, 42, 0
1, 24480, Note_on_c, 9, 41, 79
1, 24480, Note_on_c, 9, 38, 115
1, 24480, Note_on_c, 9, 42, 72
1, 24719, Note_on_c, 9, 41, 0
1, 24719, Note_on_c, 9, 38, 0
1, 24719, Note_on_c, 9, 42, 0
1, 24735, Note_on_c, 9, 42, 76
1, 24959, Note_on_c, 9, 42, 0
1, 24990, Note_on_c, 9, 41, 65
1, 24990, Note_on_c, 9, 47, 81
1, 24990, Note_on_c, 9, 49, 93
1, 25005, Note_on_c, 9, 35, 111
1, 25019, Note_on_c, 9, 41, 0
1, 25019, Note_on_c, 9, 47, 0
1, 25019, Note_on_c, 9, 49, 0
1, 25020, Note_on_c, 9, 42, 45
1, 25199, Note_on_c, 9, 35, 0
1, 25199, Note_on_c, 9, 42, 0
1, 25215, Note_on_c, 9, 41, 66
1, 25215, Note_on_c, 9, 47, 77
1, 25229, Note_on_c, 9, 41, 0
1, 25229, Note_on_c, 9, 47, 0
1, 25230, Note_on_c, 9, 42, 71
1, 25319, Note_on_c, 9, 42, 0
1, 25440, Note_on_c, 9, 38, 122
1, 25440, Note_on_c, 9, 42, 66
1, 25679, Note_on_c, 9, 38, 0
1, 25679, Note_on_c, 9, 42, 0
1, 25695, Note_on_c, 9, 42, 68
1, 25919, Note_on_c, 9, 42, 0
1, 25920, Note_on_c, 9, 41, 79
1, 25920, Note_on_c, 9, 47, 81
1, 25920, Note_on_c, 9, 42, 66
1, 25935, Note_on_c, 9, 35, 112
1, 26159, Note_on_c, 9, 41, 0
1, 26159, Note_on_c, 9, 47, 0
1, 26159, Note_on_c, 9, 42, 0
1, 26159, Note_on_c, 9, 35, 0
1, 26175, Note_on_c, 9, 41, 61
1, 26175, Note_on_c, 9, 47, 89
1, 26175, Note_on_c, 9, 42, 66
1, 26399, Note_on_c, 9, 41, 0
1, 26399, Note_on_c, 9, 47, 0
1, 26399, Note_on_c, 9, 42, 0
1, 26415, Note_on_c, 9, 41, 70
1, 26415, Note_on_c, 9, 42, 66
1, 26429, Note_on_c, 9, 41, 0
1, 26429, Note_on_c, 9, 42, 0
1, 26430, Note_on_c, 9, 38, 117
1, 26519, Note_on_c, 9, 38, 0
1, 26670, Note_on_c, 9, 42, 76
1, 26759, Note_on_c, 9, 42, 0
1, 26925, Note_on_c, 9, 41, 73
1, 26925, Note_on_c, 9, 47, 92
1, 26925, Note_on_c, 9, 49, 87
1, 26925, Note_on_c, 9, 35, 112
1, 26939, Note_on_c, 9, 41, 0
1, 26939, Note_on_c, 9, 47, 0
1, 26939, Note_on_c, 9, 49, 0
1, 26940, Note_on_c, 9, 42, 55
1, 27119, Note_on_c, 9, 35, 0
1, 27119, Note_on_c, 9, 42, 0
1, 27150, Note_on_c, 9, 41, 62
1, 27150, Note_on_c, 9, 47, 87
1, 27150, Note_on_c, 9, 42, 76
1, 27239, Note_on_c, 9, 41, 0
1, 27239, Note_on_c, 9, 47, 0
1, 27239, Note_on_c, 9, 42, 0
1, 27360, Note_on_c, 9, 38, 113
1, 27360, Note_on_c, 9, 42, 61
1, 27599, Note_on_c, 9, 38, 0
1, 27599, Note_on_c, 9, 42, 0
1, 27615, Note_on_c, 9, 41, 83
1, 27615, Note_on_c, 9, 42, 75
1, 27629, Note_on_c, 9, 41, 0
1, 27629, Note_on_c, 9, 42, 0
1, 27630, Note_on_c, 9, 47, 102
1, 27719, Note_on_c, 9, 47, 0
1, 27855, Note_on_c, 9, 42, 68
1, 27855, Note_on_c, 9, 35, 109
1, 28079, Note_on_c, 9, 42, 0
1, 28079, Note_on_c, 9, 35, 0
1, 28080, Note_on_c, 9, 41, 63
1, 28080, Note_on_c, 9, 47, 89
1, 28080, Note_on_c, 9, 42, 65
1, 28319, Note_on_c, 9, 41, 0
1, 28319, Note_on_c, 9, 47, 0
1, 28319, Note_on_c, 9, 42, 0
1, 28320, Note_on_c, 9, 41, 81
1, 28320, Note_on_c, 9, 42, 68
1, 28334, Note_on_c, 9, 41, 0
1, 28334, Note_on_c, 9, 42, 0
1, 28335, Note_on_c, 9, 38, 119
1, 28559, Note_on_c, 9, 38, 0
1, 28590, Note_on_c, 9, 42, 72
1, 28679, Note_on_c, 9, 42, 0
1, 28845, Note_on_c, 9, 41, 72
1, 28845, Note_on_c, 9, 47, 92
1, 28845, Note_on_c, 9, 49, 91
1, 28845, Note_on_c, 9, 35, 111
1, 29039, Note_on_c, 9, 41, 0
1, 29039, Note_on_c, 9, 47, 0
1, 29039, Note_on_c, 9, 49, 0
1, 29039, Note_on_c, 9, 35, 0
1, 29070, Note_on_c, 9, 41, 75
1, 29070, Note_on_c, 9, 47, 89
1, 29070, Note_on_c, 9, 42, 83
1, 29159, Note_on_c, 9, 41, 0
1, 29159, Note_on_c, 9, 47, 0
1, 29159, Note_on_c, 9, 42, 0
1, 29280, Note_on_c, 9, 38, 117
1, 29280, Note_on_c, 9, 42, 67
1, 29519, Note_on_c, 9, 38, 0
1, 29519, Note_on_c, 9, 42, 0
1, 29535, Note_on_c, 9, 42, 76
1, 29759, Note_on_c, 9, 42, 0
1, 29775, Note_on_c, 9, 41, 70
1, 29775, Note_on_c, 9, 47, 89
1, 29775, Note_on_c, 9, 42, 72
1, 29775, Note_on_c, 9, 35, 112
1, 29999, Note_on_c, 9, 41, 0
1, 29999, Note_on_c, 9, 47, 0
1, 29999, Note_on_c, 9, 42, 0
1, 29999, Note_on_c, 9, 35, 0
1, 30000, Note_on_c, 9, 42, 64
1, 30014, Note_on_c, 9, 42, 0
1, 30015, Note_on_c, 9, 41, 63
1, 30015, Note_on_c, 9, 47, 79
1, 30239, Note_on_c, 9, 41, 0
1, 30239, Note_on_c, 9, 47, 0
1, 30240, Note_on_c, 9, 41, 79
1, 30240, Note_on_c, 9, 38, 113
1, 30240, Note_on_c, 9, 42, 68
1, 30479, Note_on_c, 9, 41, 0
1, 30479, Note_on_c, 9, 38, 0
1, 30479, Note_on_c, 9, 42, 0
1, 30510, Note_on_c, 9, 42, 79
1, 30599, Note_on_c, 9, 42, 0
1, 30765, Note_on_c, 9, 41, 77
1, 30765, Note_on_c, 9, 47, 92
1, 30765, Note_on_c, 9, 35, 111
1, 30779, Note_on_c, 9, 41, 0
1, 30779, Note_on_c, 9, 47, 0
1, 30780, Note_on_c, 9, 49, 93
1, 30959, Note_on_c, 9, 35, 0
1, 30959, Note_on_c, 9, 49, 0
1, 30975, Note_on_c, 9, 42, 59
1, 30989, Note_on_c, 9, 42, 0
1, 30990, Note_on_c, 9, 41, 73
1, 30990, Note_on_c, 9, 47, 92
1, 31079, Note_on_c, 9, 41, 0
1, 31079, Note_on_c, 9, 47, 0
1, 31200, Note_on_c, 9, 38, 113
1, 31200, Note_on_c, 9, 42, 67
1, 31439, Note_on_c, 9, 38, 0
1, 31439, Note_on_c, 9, 42, 0
1, 31440, Note_on_c, 9, 42, 67
1, 31454, Note_on_c, 9, 42, 0
1, 31455, Note_on_c, 9, 41, 83
1, 31455, Note_on_c, 9, 47, 102
1, 31679, Note_on_c, 9, 41, 0
1, 31679, Note_on_c, 9, 47, 0
1, 31680, Note_on_c, 9, 42, 68
1, 31680, Note_on_c, 9, 35, 111
1, 31919, Note_on_c, 9, 42, 0
1, 31920, Note_on_c, 9, 41, 61
1, 31920, Note_on_c, 9, 47, 83
1, 31920, Note_on_c, 9, 42, 65
1, 32159, Note_on_c, 9, 35, 0
1, 32159, Note_on_c, 9, 41, 0
1, 32159, Note_on_c, 9, 47, 0
1, 32159, Note_on_c, 9, 42, 0
1, 32160, Note_on_c, 9, 41, 85
1, 32160, Note_on_c, 9, 38, 125
1, 32160, Note_on_c, 9, 42, 66
1, 32399, Note_on_c, 9, 41, 0
1, 32399, Note_on_c, 9, 38, 0
1, 32399, Note_on_c, 9, 42, 0
1, 32400, Note_on_c, 9, 42, 73
1, 32639, Note_on_c, 9, 42, 0
1, 32640, Note_on_c, 9, 35, 113
1, 32655, Note_on_c, 9, 41, 75
1, 32655, Note_on_c, 9, 47, 100
1, 32655, Note_on_c, 9, 49, 85
1, 32669, Note_on_c, 9, 41, 0
1, 32669, Note_on_c, 9, 47, 0
1, 32669, Note_on_c, 9, 49, 0
1, 32670, Note_on_c, 9, 42, 50
1, 32759, Note_on_c, 9, 42, 0
1, 32880, Note_on_c, 9, 38, 126
1, 32894, Note_on_c, 9, 38, 0
1, 32895, Note_on_c, 9, 41, 73
1, 32895, Note_on_c, 9, 47, 100
1, 32895, Note_on_c, 9, 42, 78
1, 33119, Note_on_c, 9, 35, 0
1, 33119, Note_on_c, 9, 41, 0
1, 33119, Note_on_c, 9, 47, 0
1, 33119, Note_on_c, 9, 42, 0
1, 33120, Note_on_c, 9, 38, 126
1, 33134, Note_on_c, 9, 38, 0
1, 33135, Note_on_c, 9, 42, 68
1, 33359, Note_on_c, 9, 42, 0
1, 33375, Note_on_c, 9, 42, 72
1, 33599, Note_on_c, 9, 42, 0
1, 33600, Note_on_c, 9, 41, 81
1, 33600, Note_on_c, 9, 38, 126
1, 33600, Note_on_c, 9, 47, 102
1, 33614, Note_on_c, 9, 41, 0
1, 33614, Note_on_c, 9, 38, 0
1, 33614, Note_on_c, 9, 47, 0
1, 33615, Note_on_c, 9, 42, 69
1, 33615, Note_on_c, 9, 35, 107
1, 33839, Note_on_c, 9, 42, 0
1, 33839, Note_on_c, 9, 35, 0
1, 33840, Note_on_c, 9, 42, 75
1, 34079, Note_on_c, 9, 42, 0
1, 34080, Note_on_c, 9, 41, 87
1, 34080, Note_on_c, 9, 42, 75
1, 34094, Note_on_c, 9, 41, 0
1, 34094, Note_on_c, 9, 42, 0
1, 34095, Note_on_c, 9, 38, 126
1, 34319, Note_on_c, 9, 38, 0
1, 34335, Note_on_c, 9, 41, 92
1, 34335, Note_on_c, 9, 38, 126
1, 34335, Note_on_c, 9, 42, 83
1, 34559, Note_on_c, 9, 41, 0
1, 34559, Note_on_c, 9, 38, 0
1, 34559, Note_on_c, 9, 42, 0
1, 34590, Note_on_c, 9, 35, 118
1, 34605, Note_on_c, 9, 49, 77
1, 34799, Note_on_c, 9, 49, 0
1, 34815, Note_on_c, 9, 42, 91
1, 35039, Note_on_c, 9, 35, 0
1, 35039, Note_on_c, 9, 42, 0
1, 35040, Note_on_c, 9, 38, 125
1, 35040, Note_on_c, 9, 42, 75
1, 35279, Note_on_c, 9, 38, 0
1, 35279, Note_on_c, 9, 42, 0
1, 35280, Note_on_c, 9, 42, 66
1, 35519, Note_on_c, 9, 42, 0
1, 35520, Note_on_c, 9, 42, 79
1, 35520, Note_on_c, 9, 35, 112
1, 35759, Note_on_c, 9, 42, 0
1, 35760, Note_on_c, 9, 42, 75
1, 35999, Note_on_c, 9, 35, 0
1, 35999, Note_on_c, 9, 42, 0
1, 36000, Note_on_c, 9, 42, 71
1, 36014, Note_on_c, 9, 42, 0
1, 36015, Note_on_c, 9, 38, 126
1, 36239, Note_on_c, 9, 38, 0
1, 36240, Note_on_c, 9, 42, 76
1, 36479, Note_on_c, 9, 42, 0
1, 36480, Note_on_c, 9, 42, 68
1, 36510, Note_on_c, 9, 35, 111
1, 36719, Note_on_c, 9, 42, 0
1, 36720, Note_on_c, 9, 42, 81
1, 36959, Note_on_c, 9, 35, 0
1, 36959, Note_on_c, 9, 42, 0
1, 36960, Note_on_c, 9, 42, 76
1, 36974, Note_on_c, 9, 42, 0
1, 36975, Note_on_c, 9, 38, 126
1, 37199, Note_on_c, 9, 38, 0
1, 37215, Note_on_c, 9, 42, 79
1, 37439, Note_on_c, 9, 42, 0
1, 37455, Note_on_c, 9, 42, 72
1, 37485, Note_on_c, 9, 35, 113
1, 37679, Note_on_c, 9, 42, 0
1, 37679, Note_on_c, 9, 35, 0
1, 37680, Note_on_c, 9, 42, 76
1, 37919, Note_on_c, 9, 42, 0
1, 37920, Note_on_c, 9, 42, 81
1, 37934, Note_on_c, 9, 42, 0
1, 37935, Note_on_c, 9, 38, 125
1, 38204, Note_on_c, 9, 38, 0
1, 38205, Note_on_c, 9, 42, 75
1, 38399, Note_on_c, 9, 42, 0
1, 38460, Note_on_c, 9, 42, 69
1, 38475, Note_on_c, 9, 35, 112
1, 38639, Note_on_c, 9, 42, 0
1, 38670, Note_on_c, 9, 42, 68
1, 38759, Note_on_c, 9, 42, 0
1, 38879, Note_on_c, 9, 35, 0
1, 38880, Note_on_c, 9, 42, 69
1, 38894, Note_on_c, 9, 42, 0
1, 38895, Note_on_c, 9, 38, 122
1, 39119, Note_on_c, 9, 38, 0
1, 39120, Note_on_c, 9, 42, 76
1, 39359, Note_on_c, 9, 42, 0
1, 39360, Note_on_c, 9, 42, 69
1, 39390, Note_on_c, 9, 35, 111
1, 39599, Note_on_c, 9, 42, 0
1, 39600, Note_on_c, 9, 42, 72
1, 39839, Note_on_c, 9, 35, 0
1, 39839, Note_on_c, 9, 42, 0
1, 39840, Note_on_c, 9, 42, 72
1, 39854, Note_on_c, 9, 42, 0
1, 39855, Note_on_c, 9, 38, 122
1, 40079, Note_on_c, 9, 38, 0
1, 40110, Note_on_c, 9, 42, 68
1, 40199, Note_on_c, 9, 42, 0
1, 40365, Note_on_c, 9, 42, 75
1, 40380, Note_on_c, 9, 35, 111
1, 40559, Note_on_c, 9, 35, 0
1, 40604, Note_on_c, 9, 42, 0
1, 40605, Note_on_c, 9, 42, 72
1, 40799, Note_on_c, 9, 42, 0
1, 40830, Note_on_c, 9, 38, 117
1, 40830, Note_on_c, 9, 42, 69
1, 40919, Note_on_c, 9, 38, 0
1, 40919, Note_on_c, 9, 42, 0
1, 41055, Note_on_c, 9, 42, 73
1, 41279, Note_on_c, 9, 42, 0
1, 41280, Note_on_c, 9, 42, 75
1, 41280, Note_on_c, 9, 35, 111
1, 41519, Note_on_c, 9, 42, 0
1, 41520, Note_on_c, 9, 42, 76
1, 41759, Note_on_c, 9, 35, 0
1, 41759, Note_on_c, 9, 42, 0
1, 41760, Note_on_c, 9, 42, 75
1, 41774, Note_on_c, 9, 42, 0
1, 41775, Note_on_c, 9, 38, 122
1, 41999, Note_on_c, 9, 38, 0
1, 42030, Note_on_c, 9, 42, 67
1, 42119, Note_on_c, 9, 42, 0
1, 42240, Note_on_c, 9, 49, 73
1, 42300, Note_on_c, 9, 35, 111
1, 42479, Note_on_c, 9, 49, 0
1, 42479, Note_on_c, 9, 35, 0
1, 42495, Note_on_c, 9, 42, 85
1, 42719, Note_on_c, 9, 42, 0
1, 42720, Note_on_c, 9, 42, 71
1, 42734, Note_on_c, 9, 42, 0
1, 42735, Note_on_c, 9, 38, 122
1, 42959, Note_on_c, 9, 38, 0
1, 42960, Note_on_c, 9, 42, 73
1, 43199, Note_on_c, 9, 42, 0
1, 43200, Note_on_c, 9, 42, 72
1, 43200, Note_on_c, 9, 35, 111
1, 43439, Note_on_c, 9, 42, 0
1, 43440, Note_on_c, 9, 42, 66
1, 43679, Note_on_c, 9, 35, 0
1, 43679, Note_on_c, 9, 42, 0
1, 43680, Note_on_c, 9, 38, 122
1, 43680, Note_on_c, 9, 42, 76
1, 43919, Note_on_c, 9, 38, 0
1, 43919, Note_on_c, 9, 42, 0
1, 43935, Note_on_c, 9, 42, 81
1, 44159, Note_on_c, 9, 42, 0
1, 44190, Note_on_c, 9, 42, 81
1, 44190, Note_on_c, 9, 35, 111
1, 44279, Note_on_c, 9, 42, 0
1, 44415, Note_on_c, 9, 42, 69
1, 44639, Note_on_c, 9, 35, 0
1, 44639, Note_on_c, 9, 42, 0
1, 44640, Note_on_c, 9, 42, 83
1, 44654, Note_on_c, 9, 42, 0
1, 44655, Note_on_c, 9, 38, 122
1, 44879, Note_on_c, 9, 38, 0
1, 44880, Note_on_c, 9, 42, 66
1, 45119, Note_on_c, 9, 42, 0
1, 45120, Note_on_c, 9, 42, 76
1, 45135, Note_on_c, 9, 35, 111
1, 45359, Note_on_c, 9, 42, 0
1, 45359, Note_on_c, 9, 35, 0
1, 45360, Note_on_c, 9, 42, 73
1, 45599, Note_on_c, 9, 42, 0
1, 45600, Note_on_c, 9, 38, 122
1, 45600, Note_on_c, 9, 42, 73
1, 45839, Note_on_c, 9, 38, 0
1, 45839, Note_on_c, 9, 42, 0
1, 45855, Note_on_c, 9, 42, 81
1, 46079, Note_on_c, 9, 42, 0
1, 46110, Note_on_c, 9, 42, 73
1, 46110, Note_on_c, 9, 35, 111
1, 46199, Note_on_c, 9, 42, 0
1, 46335, Note_on_c, 9, 42, 71
1, 46559, Note_on_c, 9, 35, 0
1, 46559, Note_on_c, 9, 42, 0
1, 46560, Note_on_c, 9, 38, 119
1, 46560, Note_on_c, 9, 42, 73
1, 46799, Note_on_c, 9, 38, 0
1, 46799, Note_on_c, 9, 42, 0
1, 46800, Note_on_c, 9, 42, 71
1, 47039, Note_on_c, 9, 42, 0
1, 47040, Note_on_c, 9, 42, 78
1, 47040, Note_on_c, 9, 35, 109
1, 47279, Note_on_c, 9, 42, 0
1, 47295, Note_on_c, 9, 42, 76
1, 47519, Note_on_c, 9, 35, 0
1, 47519, Note_on_c, 9, 42, 0
1, 47520, Note_on_c, 9, 38, 122
1, 47520, Note_on_c, 9, 42, 75
1, 47759, Note_on_c, 9, 38, 0
1, 47759, Note_on_c, 9, 42, 0
1, 47775, Note_on_c, 9, 42, 75
1, 47999, Note_on_c, 9, 42, 0
1, 48000, Note_on_c, 9, 35, 106
1, 48015, Note_on_c, 9, 42, 78
1, 48239, Note_on_c, 9, 42, 0
1, 48240, Note_on_c, 9, 38, 117
1, 48254, Note_on_c, 9, 38, 0
1, 48255, Note_on_c, 9, 42, 79
1, 48479, Note_on_c, 9, 35, 0
1, 48479, Note_on_c, 9, 42, 0
1, 48480, Note_on_c, 9, 38, 126
1, 48494, Note_on_c, 9, 38, 0
1, 48495, Note_on_c, 9, 42, 75
1, 48719, Note_on_c, 9, 42, 0
1, 48735, Note_on_c, 9, 42, 81
1, 48959, Note_on_c, 9, 42, 0
1, 48960, Note_on_c, 9, 38, 126
1, 48974, Note_on_c, 9, 38, 0
1, 48975, Note_on_c, 9, 42, 79
1, 49199, Note_on_c, 9, 42, 0
1, 49215, Note_on_c, 9, 42, 76
1, 49439, Note_on_c, 9, 42, 0
1, 49440, Note_on_c, 9, 35, 118
1, 49455, Note_on_c, 9, 42, 85
1, 49679, Note_on_c, 9, 42, 0
1, 49695, Note_on_c, 9, 46, 103
1, 49709, Note_on_c, 9, 46, 0
1, 49710, Note_on_c, 9, 38, 124
1, 49799, Note_on_c, 9, 38, 0
1, 49919, Note_on_c, 9, 35, 0
1, 49920, Note_on_c, 9, 35, 117
1, 49950, Note_on_c, 9, 42, 89
1, 50039, Note_on_c, 9, 42, 0
1, 50190, Note_on_c, 9, 42, 61
1, 50279, Note_on_c, 9, 42, 0
1, 50399, Note_on_c, 9, 35, 0
1, 50415, Note_on_c, 9, 38, 119
1, 50415, Note_on_c, 9, 42, 78
1, 50639, Note_on_c, 9, 38, 0
1, 50639, Note_on_c, 9, 42, 0
1, 50655, Note_on_c, 9, 42, 76
1, 50879, Note_on_c, 9, 42, 0
1, 50895, Note_on_c, 9, 35, 110
1, 50910, Note_on_c, 9, 42, 73
1, 51119, Note_on_c, 9, 35, 0
1, 51164, Note_on_c, 9, 42, 0
1, 51165, Note_on_c, 9, 42, 71
1, 51359, Note_on_c, 9, 42, 0
1, 51405, Note_on_c, 9, 38, 125
1, 51419, Note_on_c, 9, 38, 0
1, 51420, Note_on_c, 9, 42, 71
1, 51644, Note_on_c, 9, 42, 0
1, 51645, Note_on_c, 9, 42, 72
1, 51839, Note_on_c, 9, 42, 0
1, 51870, Note_on_c, 9, 35, 112
1, 51885, Note_on_c, 9, 42, 78
1, 52079, Note_on_c, 9, 42, 0
1, 52110, Note_on_c, 9, 42, 71
1, 52199, Note_on_c, 9, 42, 0
1, 52319, Note_on_c, 9, 35, 0
1, 52335, Note_on_c, 9, 38, 117
1, 52349, Note_on_c, 9, 38, 0
1, 52350, Note_on_c, 9, 42, 78
1, 52439, Note_on_c, 9, 42, 0
1, 52575, Note_on_c, 9, 42, 71
1, 52799, Note_on_c, 9, 42, 0
1, 52815, Note_on_c, 9, 42, 73
1, 52815, Note_on_c, 9, 35, 112
1, 53039, Note_on_c, 9, 42, 0
1, 53039, Note_on_c, 9, 35, 0
1, 53055, Note_on_c, 9, 42, 69
1, 53279, Note_on_c, 9, 42, 0
1, 53310, Note_on_c, 9, 42, 73
1, 53324, Note_on_c, 9, 42, 0
1, 53325, Note_on_c, 9, 38, 117
1, 53519, Note_on_c, 9, 38, 0
1, 53550, Note_on_c, 9, 42, 68
1, 53639, Note_on_c, 9, 42, 0
1, 53775, Note_on_c, 9, 42, 66
1, 53790, Note_on_c, 9, 35, 112
1, 53999, Note_on_c, 9, 42, 0
1, 54000, Note_on_c, 9, 42, 65
1, 54239, Note_on_c, 9, 35, 0
1, 54239, Note_on_c, 9, 42, 0
1, 54240, Note_on_c, 9, 42, 71
1, 54254, Note_on_c, 9, 42, 0
1, 54255, Note_on_c, 9, 38, 115
1, 54479, Note_on_c, 9, 38, 0
1, 54495, Note_on_c, 9, 42, 61
1, 54719, Note_on_c, 9, 42, 0
1, 54735, Note_on_c, 9, 42, 73
1, 54735, Note_on_c, 9, 35, 111
1, 54959, Note_on_c, 9, 42, 0
1, 54959, Note_on_c, 9, 35, 0
1, 54975, Note_on_c, 9, 42, 62
1, 55199, Note_on_c, 9, 42, 0
1, 55215, Note_on_c, 9, 38, 115
1, 55215, Note_on_c, 9, 42, 71
1, 55439, Note_on_c, 9, 38, 0
1, 55439, Note_on_c, 9, 42, 0
1, 55440, Note_on_c, 9, 42, 65
1, 55679, Note_on_c, 9, 42, 0
1, 55680, Note_on_c, 9, 42, 66
1, 55680, Note_on_c, 9, 35, 112
1, 55919, Note_on_c, 9, 42, 0
1, 55920, Note_on_c, 9, 42, 61
1, 56159, Note_on_c, 9, 35, 0
1, 56159, Note_on_c, 9, 42, 0
1, 56175, Note_on_c, 9, 38, 111
1, 56175, Note_on_c, 9, 42, 73
1, 56399, Note_on_c, 9, 38, 0
1, 56399, Note_on_c, 9, 42, 0
1, 56400, Note_on_c, 9, 42, 66
1, 56639, Note_on_c, 9, 42, 0
1, 56640, Note_on_c, 9, 42, 71
1, 56655, Note_on_c, 9, 35, 113
1, 56879, Note_on_c, 9, 42, 0
1, 56879, Note_on_c, 9, 35, 0
1, 56880, Note_on_c, 9, 42, 61
1, 57119, Note_on_c, 9, 42, 0
1, 57135, Note_on_c, 9, 38, 111
1, 57135, Note_on_c, 9, 42, 75
1, 57359, Note_on_c, 9, 38, 0
1, 57359, Note_on_c, 9, 42, 0
1, 57375, Note_on_c, 9, 42, 66
1, 57599, Note_on_c, 9, 42, 0
1, 57615, Note_on_c, 9, 42, 73
1, 57615, Note_on_c, 9, 35, 111
1, 57839, Note_on_c, 9, 42, 0
1, 57839, Note_on_c, 9, 35, 0
1, 57855, Note_on_c, 9, 42, 73
1, 58079, Note_on_c, 9, 42, 0
1, 58080, Note_on_c, 9, 38, 109
1, 58094, Note_on_c, 9, 38, 0
1, 58095, Note_on_c, 9, 42, 72
1, 58319, Note_on_c, 9, 42, 0
1, 58335, Note_on_c, 9, 42, 71
1, 58559, Note_on_c, 9, 42, 0
1, 58575, Note_on_c, 9, 42, 71
1, 58575, Note_on_c, 9, 35, 110
1, 58799, Note_on_c, 9, 42, 0
1, 58799, Note_on_c, 9, 35, 0
1, 58800, Note_on_c, 9, 42, 69
1, 59039, Note_on_c, 9, 42, 0
1, 59040, Note_on_c, 9, 38, 109
1, 59054, Note_on_c, 9, 38, 0
1, 59055, Note_on_c, 9, 42, 75
1, 59279, Note_on_c, 9, 42, 0
1, 59295, Note_on_c, 9, 42, 69
1, 59519, Note_on_c, 9, 42, 0
1, 59535, Note_on_c, 9, 42, 75
1, 59535, Note_on_c, 9, 35, 111
1, 59759, Note_on_c, 9, 42, 0
1, 59759, Note_on_c, 9, 35, 0
1, 59775, Note_on_c, 9, 42, 66
1, 59999, Note_on_c, 9, 42, 0
1, 60000, Note_on_c, 9, 42, 68
1, 60014, Note_on_c, 9, 42, 0
1, 60015, Note_on_c, 9, 38, 111
1, 60239, Note_on_c, 9, 38, 0
1, 60255, Note_on_c, 9, 42, 64
1, 60479, Note_on_c, 9, 42, 0
1, 60480, Note_on_c, 9, 42, 68
1, 60510, Note_on_c, 9, 35, 112
1, 60719, Note_on_c, 9, 42, 0
1, 60735, Note_on_c, 9, 42, 68
1, 60959, Note_on_c, 9, 35, 0
1, 60959, Note_on_c, 9, 42, 0
1, 60975, Note_on_c, 9, 38, 111
1, 60975, Note_on_c, 9, 42, 65
1, 61199, Note_on_c, 9, 38, 0
1, 61199, Note_on_c, 9, 42, 0
1, 61215, Note_on_c, 9, 42, 61
1, 61439, Note_on_c, 9, 42, 0
1, 61455, Note_on_c, 9, 42, 68
1, 61455, Note_on_c, 9, 35, 111
1, 61679, Note_on_c, 9, 42, 0
1, 61679, Note_on_c, 9, 35, 0
1, 61695, Note_on_c, 9, 42, 60
1, 61919, Note_on_c, 9, 42, 0
1, 61935, Note_on_c, 9, 38, 113
1, 61935, Note_on_c, 9, 42, 66
1, 62159, Note_on_c, 9, 38, 0
1, 62159, Note_on_c, 9, 42, 0
1, 62175, Note_on_c, 9, 42, 65
1, 62399, Note_on_c, 9, 42, 0
1, 62415, Note_on_c, 9, 42, 68
1, 62415, Note_on_c, 9, 35, 112
1, 62639, Note_on_c, 9, 42, 0
1, 62639, Note_on_c, 9, 35, 0
1, 62655, Note_on_c, 9, 42, 66
1, 62879, Note_on_c, 9, 42, 0
1, 62895, Note_on_c, 9, 38, 113
1, 62895, Note_on_c, 9, 42, 69
1, 63119, Note_on_c, 9, 38, 0
1, 63119, Note_on_c, 9, 42, 0
1, 63135, Note_on_c, 9, 42, 64
1, 63359, Note_on_c, 9, 42, 0
1, 63360, Note_on_c, 9, 42, 71
1, 63375, Note_on_c, 9, 35, 112
1, 63599, Note_on_c, 9, 42, 0
1, 63599, Note_on_c, 9, 35, 0
1, 63600, Note_on_c, 9, 42, 65
1, 63839, Note_on_c, 9, 42, 0
1, 63840, Note_on_c, 9, 42, 68
1, 63854, Note_on_c, 9, 42, 0
1, 63855, Note_on_c, 9, 38, 113
1, 64079, Note_on_c, 9, 38, 0
1, 64110, Note_on_c, 9, 42, 65
1, 64199, Note_on_c, 9, 42, 0
1, 64320, Note_on_c, 9, 49, 99
1, 64380, Note_on_c, 9, 35, 112
1, 64559, Note_on_c, 9, 35, 0
1, 64799, Note_on_c, 9, 49, 0
1, 64800, Note_on_c, 9, 57, 90
1, 64829, Note_on_c, 9, 57, 0
1, 64830, Note_on_c, 9, 38, 113
1, 65279, Note_on_c, 9, 38, 0
1, 65280, Note_on_c, 9, 49, 96
1, 65310, Note_on_c, 9, 35, 109
1, 65519, Note_on_c, 9, 49, 0
1, 65550, Note_on_c, 9, 42, 76
1, 65639, Note_on_c, 9, 42, 0
1, 65759, Note_on_c, 9, 35, 0
1, 65790, Note_on_c, 9, 38, 109
1, 65790, Note_on_c, 9, 42, 71
1, 65879, Note_on_c, 9, 38, 0
1, 65879, Note_on_c, 9, 42, 0
1, 66015, Note_on_c, 9, 42, 66
1, 66239, Note_on_c, 9, 42, 0
1, 66255, Note_on_c, 9, 42, 73
1, 66270, Note_on_c, 9, 35, 112
1, 66479, Note_on_c, 9, 42, 0
1, 66495, Note_on_c, 9, 42, 64
1, 66719, Note_on_c, 9, 35, 0
1, 66719, Note_on_c, 9, 42, 0
1, 66735, Note_on_c, 9, 38, 109
1, 66735, Note_on_c, 9, 42, 69
1, 66959, Note_on_c, 9, 38, 0
1, 66959, Note_on_c, 9, 42, 0
1, 66975, Note_on_c, 9, 42, 64
1, 67199, Note_on_c, 9, 42, 0
1, 67215, Note_on_c, 9, 42, 65
1, 67215, Note_on_c, 9, 35, 112
1, 67439, Note_on_c, 9, 42, 0
1, 67439, Note_on_c, 9, 35, 0
1, 67455, Note_on_c, 9, 42, 60
1, 67679, Note_on_c, 9, 42, 0
1, 67695, Note_on_c, 9, 38, 113
1, 67695, Note_on_c, 9, 42, 72
1, 67919, Note_on_c, 9, 38, 0
1, 67919, Note_on_c, 9, 42, 0
1, 67935, Note_on_c, 9, 42, 66
1, 68159, Note_on_c, 9, 42, 0
1, 68175, Note_on_c, 9, 42, 67
1, 68190, Note_on_c, 9, 35, 109
1, 68399, Note_on_c, 9, 42, 0
1, 68415, Note_on_c, 9, 42, 64
1, 68639, Note_on_c, 9, 35, 0
1, 68639, Note_on_c, 9, 42, 0
1, 68655, Note_on_c, 9, 38, 111
1, 68655, Note_on_c, 9, 42, 64
1, 68879, Note_on_c, 9, 38, 0
1, 68879, Note_on_c, 9, 42, 0
1, 68895, Note_on_c, 9, 42, 62
1, 69119, Note_on_c, 9, 42, 0
1, 69135, Note_on_c, 9, 42, 65
1, 69135, Note_on_c, 9, 35, 111
1, 69359, Note_on_c, 9, 42, 0
1, 69359, Note_on_c, 9, 35, 0
1, 69375, Note_on_c, 9, 42, 72
1, 69599, Note_on_c, 9, 42, 0
1, 69615, Note_on_c, 9, 38, 111
1, 69615, Note_on_c, 9, 42, 68
1, 69839, Note_on_c, 9, 38, 0
1, 69839, Note_on_c, 9, 42, 0
1, 69855, Note_on_c, 9, 42, 64
1, 70079, Note_on_c, 9, 42, 0
1, 70095, Note_on_c, 9, 42, 71
1, 70095, Note_on_c, 9, 35, 108
1, 70319, Note_on_c, 9, 42, 0
1, 70319, Note_on_c, 9, 35, 0
1, 70335, Note_on_c, 9, 42, 68
1, 70559, Note_on_c, 9, 42, 0
1, 70560, Note_on_c, 9, 38, 109
1, 70560, Note_on_c, 9, 42, 73
1, 70799, Note_on_c, 9, 38, 0
1, 70799, Note_on_c, 9, 42, 0
1, 70800, Note_on_c, 9, 42, 67
1, 71039, Note_on_c, 9, 42, 0
1, 71040, Note_on_c, 9, 42, 69
1, 71055, Note_on_c, 9, 35, 112
1, 71279, Note_on_c, 9, 42, 0
1, 71279, Note_on_c, 9, 35, 0
1, 71295, Note_on_c, 9, 42, 66
1, 71519, Note_on_c, 9, 42, 0
1, 71535, Note_on_c, 9, 42, 65
1, 71549, Note_on_c, 9, 42, 0
1, 71550, Note_on_c, 9, 38, 107
1, 71639, Note_on_c, 9, 38, 0
1, 71775, Note_on_c, 9, 42, 72
1, 71999, Note_on_c, 9, 42, 0
1, 72015, Note_on_c, 9, 42, 66
1, 72015, Note_on_c, 9, 35, 110
1, 72239, Note_on_c, 9, 42, 0
1, 72239, Note_on_c, 9, 35, 0
1, 72255, Note_on_c, 9, 42, 64
1, 72479, Note_on_c, 9, 42, 0
1, 72495, Note_on_c, 9, 38, 109
1, 72495, Note_on_c, 9, 42, 71
1, 72719, Note_on_c, 9, 38, 0
1, 72719, Note_on_c, 9, 42, 0
1, 72735, Note_on_c, 9, 42, 72
1, 72959, Note_on_c, 9, 42, 0
1, 72975, Note_on_c, 9, 42, 65
1, 72975, Note_on_c, 9, 35, 111
1, 73199, Note_on_c, 9, 42, 0
1, 73199, Note_on_c, 9, 35, 0
1, 73200, Note_on_c, 9, 42, 67
1, 73439, Note_on_c, 9, 42, 0
1, 73455, Note_on_c, 9, 38, 111
1, 73455, Note_on_c, 9, 42, 69
1, 73679, Note_on_c, 9, 38, 0
1, 73679, Note_on_c, 9, 42, 0
1, 73680, Note_on_c, 9, 42, 66
1, 73919, Note_on_c, 9, 42, 0
1, 73935, Note_on_c, 9, 42, 61
1, 73935, Note_on_c, 9, 35, 108
1, 74159, Note_on_c, 9, 42, 0
1, 74159, Note_on_c, 9, 35, 0
1, 74160, Note_on_c, 9, 42, 61
1, 74399, Note_on_c, 9, 42, 0
1, 74400, Note_on_c, 9, 42, 61
1, 74414, Note_on_c, 9, 42, 0
1, 74415, Note_on_c, 9, 38, 111
1, 74639, Note_on_c, 9, 38, 0
1, 74655, Note_on_c, 9, 42, 66
1, 74879, Note_on_c, 9, 42, 0
1, 74895, Note_on_c, 9, 42, 68
1, 74910, Note_on_c, 9, 35, 107
1, 75119, Note_on_c, 9, 42, 0
1, 75135, Note_on_c, 9, 42, 69
1, 75359, Note_on_c, 9, 35, 0
1, 75359, Note_on_c, 9, 42, 0
1, 75375, Note_on_c, 9, 38, 109
1, 75375, Note_on_c, 9, 42, 68
1, 75599, Note_on_c, 9, 38, 0
1, 75599, Note_on_c, 9, 42, 0
1, 75630, Note_on_c, 9, 42, 61
1, 75719, Note_on_c, 9, 42, 0
1, 75870, Note_on_c, 9, 42, 61
1, 75870, Note_on_c, 9, 35, 110
1, 75959, Note_on_c, 9, 42, 0
1, 76110, Note_on_c, 9, 42, 72
1, 76199, Note_on_c, 9, 42, 0
1, 76319, Note_on_c, 9, 35, 0
1, 76350, Note_on_c, 9, 38, 113
1, 76350, Note_on_c, 9, 42, 65
1, 76439, Note_on_c, 9, 38, 0
1, 76439, Note_on_c, 9, 42, 0
1, 76575, Note_on_c, 9, 42, 62
1, 76799, Note_on_c, 9, 42, 0
1, 76800, Note_on_c, 9, 42, 61
1, 76830, Note_on_c, 9, 35, 112
1, 77039, Note_on_c, 9, 42, 0
1, 77055, Note_on_c, 9, 42, 61
1, 77279, Note_on_c, 9, 35, 0
1, 77279, Note_on_c, 9, 42, 0
1, 77295, Note_on_c, 9, 42, 65
1, 77309, Note_on_c, 9, 42, 0
1, 77310, Note_on_c, 9, 38, 109
1, 77399, Note_on_c, 9, 38, 0
1, 77535, Note_on_c, 9, 42, 62
1, 77759, Note_on_c, 9, 42, 0
1, 77775, Note_on_c, 9, 42, 59
1, 77790, Note_on_c, 9, 35, 112
1, 77999, Note_on_c, 9, 42, 0
1, 78015, Note_on_c, 9, 42, 62
1, 78239, Note_on_c, 9, 35, 0
1, 78239, Note_on_c, 9, 42, 0
1, 78255, Note_on_c, 9, 38, 109
1, 78255, Note_on_c, 9, 42, 61
1, 78479, Note_on_c, 9, 38, 0
1, 78479, Note_on_c, 9, 42, 0
1, 78495, Note_on_c, 9, 42, 55
1, 78719, Note_on_c, 9, 42, 0
1, 78750, Note_on_c, 9, 42, 65
1, 78750, Note_on_c, 9, 35, 111
1, 78839, Note_on_c, 9, 42, 0
1, 78975, Note_on_c, 9, 41, 73
1, 78975, Note_on_c, 9, 38, 126
1, 78975, Note_on_c, 9, 47, 83
1, 78975, Note_on_c, 9, 42, 66
1, 79199, Note_on_c, 9, 35, 0
1, 79199, Note_on_c, 9, 41, 0
1, 79199, Note_on_c, 9, 38, 0
1, 79199, Note_on_c, 9, 47, 0
1, 79199, Note_on_c, 9, 42, 0
1, 79200, Note_on_c, 9, 38, 115
1, 79214, Note_on_c, 9, 38, 0
1, 79215, Note_on_c, 9, 41, 77
1, 79215, Note_on_c, 9, 47, 87
1, 79215, Note_on_c, 9, 42, 65
1, 79439, Note_on_c, 9, 41, 0
1, 79439, Note_on_c, 9, 47, 0
1, 79439, Note_on_c, 9, 42, 0
1, 79455, Note_on_c, 9, 42, 61
1, 79679, Note_on_c, 9, 42, 0
1, 79680, Note_on_c, 9, 38, 122
1, 79694, Note_on_c, 9, 38, 0
1, 79695, Note_on_c, 9, 47, 81
1, 79695, Note_on_c, 9, 42, 67
1, 79709, Note_on_c, 9, 47, 0
1, 79709, Note_on_c, 9, 42, 0
1, 79710, Note_on_c, 9, 41, 83
1, 79799, Note_on_c, 9, 41, 0
1, 79950, Note_on_c, 9, 38, 105
1, 79964, Note_on_c, 9, 38, 0
1, 79965, Note_on_c, 9, 42, 64
1, 79979, Note_on_c, 9, 42, 0
1, 79980, Note_on_c, 9, 41, 63
1, 79980, Note_on_c, 9, 47, 83
1, 80159, Note_on_c, 9, 41, 0
1, 80159, Note_on_c, 9, 47, 0
1, 80220, Note_on_c, 9, 42, 71
1, 80220, Note_on_c, 9, 35, 112
1, 80234, Note_on_c, 9, 42, 0
1, 80235, Note_on_c, 9, 41, 63
1, 80235, Note_on_c, 9, 47, 81
1, 80279, Note_on_c, 9, 41, 0
1, 80279, Note_on_c, 9, 47, 0
1, 80399, Note_on_c, 9, 35, 0
1, 80430, Note_on_c, 9, 46, 61
1, 80444, Note_on_c, 9, 46, 0
1, 80445, Note_on_c, 9, 38, 126
1, 80459, Note_on_c, 9, 38, 0
1, 80460, Note_on_c, 9, 41, 79
1, 80460, Note_on_c, 9, 47, 89
1, 80639, Note_on_c, 9, 41, 0
1, 80639, Note_on_c, 9, 47, 0
1, 80670, Note_on_c, 9, 49, 105
1, 80685, Note_on_c, 9, 35, 117
1, 80759, Note_on_c, 9, 49, 0
1, 80879, Note_on_c, 9, 35, 0
1, 80895, Note_on_c, 9, 42, 85
1, 81119, Note_on_c, 9, 42, 0
1, 81120, Note_on_c, 9, 38, 125
1, 81120, Note_on_c, 9, 42, 69
1, 81359, Note_on_c, 9, 38, 0
1, 81359, Note_on_c, 9, 42, 0
1, 81360, Note_on_c, 9, 42, 69
1, 81599, Note_on_c, 9, 42, 0
1, 81600, Note_on_c, 9, 42, 58
1, 81600, Note_on_c, 9, 35, 112
1, 81839, Note_on_c, 9, 42, 0
1, 81840, Note_on_c, 9, 42, 69
1, 82079, Note_on_c, 9, 35, 0
1, 82079, Note_on_c, 9, 42, 0
1, 82080, Note_on_c, 9, 42, 75
1, 82094, Note_on_c, 9, 42, 0
1, 82095, Note_on_c, 9, 38, 115
1, 82319, Note_on_c, 9, 38, 0
1, 82335, Note_on_c, 9, 42, 72
1, 82559, Note_on_c, 9, 42, 0
1, 82575, Note_on_c, 9, 42, 83
1, 82590, Note_on_c, 9, 35, 109
1, 82799, Note_on_c, 9, 42, 0
1, 82800, Note_on_c, 9, 42, 75
1, 83039, Note_on_c, 9, 35, 0
1, 83039, Note_on_c, 9, 42, 0
1, 83040, Note_on_c, 9, 42, 79
1, 83054, Note_on_c, 9, 42, 0
1, 83055, Note_on_c, 9, 38, 117
1, 83279, Note_on_c, 9, 38, 0
1, 83295, Note_on_c, 9, 42, 79
1, 83519, Note_on_c, 9, 42, 0
1, 83550, Note_on_c, 9, 42, 75
1, 83550, Note_on_c, 9, 35, 107
1, 83639, Note_on_c, 9, 42, 0
1, 83775, Note_on_c, 9, 42, 68
1, 83999, Note_on_c, 9, 35, 0
1, 83999, Note_on_c, 9, 42, 0
1, 84000, Note_on_c, 9, 38, 125
1, 84000, Note_on_c, 9, 42, 81
1, 84239, Note_on_c, 9, 38, 0
1, 84284, Note_on_c, 9, 42, 0
1, 84285, Note_on_c, 9, 42, 85
1, 84479, Note_on_c, 9, 42, 0
1, 84540, Note_on_c, 9, 49, 99
1, 84555, Note_on_c, 9, 35, 107
1, 84719, Note_on_c, 9, 49, 0
1, 84780, Note_on_c, 9, 42, 61
1, 84959, Note_on_c, 9, 35, 0
1, 84959, Note_on_c, 9, 42, 0
1, 84990, Note_on_c, 9, 38, 119
1, 84990, Note_on_c, 9, 42, 61
1, 85079, Note_on_c, 9, 38, 0
1, 85079, Note_on_c, 9, 42, 0
1, 85215, Note_on_c, 9, 42, 58
1, 85439, Note_on_c, 9, 42, 0
1, 85440, Note_on_c, 9, 42, 72
1, 85455, Note_on_c, 9, 35, 111
1, 85679, Note_on_c, 9, 42, 0
1, 85679, Note_on_c, 9, 35, 0
1, 85695, Note_on_c, 9, 42, 72
1, 85919, Note_on_c, 9, 42, 0
1, 85935, Note_on_c, 9, 38, 115
1, 85935, Note_on_c, 9, 42, 83
1, 86159, Note_on_c, 9, 38, 0
1, 86159, Note_on_c, 9, 42, 0
1, 86175, Note_on_c, 9, 42, 71
1, 86399, Note_on_c, 9, 42, 0
1, 86415, Note_on_c, 9, 42, 73
1, 86430, Note_on_c, 9, 35, 109
1, 86639, Note_on_c, 9, 42, 0
1, 86640, Note_on_c, 9, 42, 66
1, 86879, Note_on_c, 9, 35, 0
1, 86879, Note_on_c, 9, 42, 0
1, 86880, Note_on_c, 9, 42, 73
1, 86894, Note_on_c, 9, 42, 0
1, 86895, Note_on_c, 9, 38, 117
1, 87119, Note_on_c, 9, 38, 0
1, 87120, Note_on_c, 9, 42, 69
1, 87359, Note_on_c, 9, 42, 0
1, 87360, Note_on_c, 9, 42, 76
1, 87375, Note_on_c, 9, 35, 109
1, 87599, Note_on_c, 9, 42, 0
1, 87599, Note_on_c, 9, 35, 0
1, 87600, Note_on_c, 9, 42, 68
1, 87839, Note_on_c, 9, 42, 0
1, 87840, Note_on_c, 9, 38, 117
1, 87840, Note_on_c, 9, 42, 72
1, 88079, Note_on_c, 9, 38, 0
1, 88079, Note_on_c, 9, 42, 0
1, 88080, Note_on_c, 9, 42, 75
1, 88319, Note_on_c, 9, 42, 0
1, 88335, Note_on_c, 9, 49, 85
1, 88335, Note_on_c, 9, 35, 106
1, 88559, Note_on_c, 9, 49, 0
1, 88559, Note_on_c, 9, 35, 0
1, 88575, Note_on_c, 9, 42, 71
1, 88799, Note_on_c, 9, 42, 0
1, 88800, Note_on_c, 9, 38, 117
1, 88800, Note_on_c, 9, 42, 69
1, 89039, Note_on_c, 9, 38, 0
1, 89039, Note_on_c, 9, 42, 0
1, 89040, Note_on_c, 9, 42, 69
1, 89279, Note_on_c, 9, 42, 0
1, 89295, Note_on_c, 9, 42, 72
1, 89295, Note_on_c, 9, 35, 111
1, 89519, Note_on_c, 9, 42, 0
1, 89519, Note_on_c, 9, 35, 0
1, 89535, Note_on_c, 9, 42, 69
1, 89759, Note_on_c, 9, 42, 0
1, 89760, Note_on_c, 9, 38, 117
1, 89774, Note_on_c, 9, 38, 0
1, 89775, Note_on_c, 9, 42, 73
1, 89999, Note_on_c, 9, 42, 0
1, 90015, Note_on_c, 9, 42, 69
1, 90239, Note_on_c, 9, 42, 0
1, 90270, Note_on_c, 9, 42, 69
1, 90270, Note_on_c, 9, 35, 109
1, 90359, Note_on_c, 9, 42, 0
1, 90495, Note_on_c, 9, 42, 72
1, 90719, Note_on_c, 9, 35, 0
1, 90719, Note_on_c, 9, 42, 0
1, 90720, Note_on_c, 9, 38, 113
1, 90720, Note_on_c, 9, 42, 67
1, 90959, Note_on_c, 9, 38, 0
1, 90959, Note_on_c, 9, 42, 0
1, 90960, Note_on_c, 9, 42, 61
1, 91199, Note_on_c, 9, 42, 0
1, 91200, Note_on_c, 9, 42, 64
1, 91215, Note_on_c, 9, 35, 111
1, 91439, Note_on_c, 9, 42, 0
1, 91439, Note_on_c, 9, 35, 0
1, 91440, Note_on_c, 9, 42, 67
1, 91679, Note_on_c, 9, 42, 0
1, 91680, Note_on_c, 9, 38, 113
1, 91694, Note_on_c, 9, 38, 0
1, 91695, Note_on_c, 9, 42, 67
1, 91919, Note_on_c, 9, 42, 0
1, 91950, Note_on_c, 9, 42, 69
1, 92039, Note_on_c, 9, 42, 0
1, 92175, Note_on_c, 9, 49, 89
1, 92190, Note_on_c, 9, 35, 106
1, 92399, Note_on_c, 9, 49, 0
1, 92415, Note_on_c, 9, 42, 61
1, 92639, Note_on_c, 9, 35, 0
1, 92639, Note_on_c, 9, 42, 0
1, 92640, Note_on_c, 9, 42, 69
1, 92654, Note_on_c, 9, 42, 0
1, 92655, Note_on_c, 9, 38, 119
1, 92879, Note_on_c, 9, 38, 0
1, 92880, Note_on_c, 9, 42, 69
1, 93119, Note_on_c, 9, 42, 0
1, 93135, Note_on_c, 9, 42, 69
1, 93150, Note_on_c, 9, 35, 112
1, 93359, Note_on_c, 9, 42, 0
1, 93360, Note_on_c, 9, 42, 61
1, 93599, Note_on_c, 9, 35, 0
1, 93599, Note_on_c, 9, 42, 0
1, 93615, Note_on_c, 9, 38, 119
1, 93615, Note_on_c, 9, 42, 71
1, 93839, Note_on_c, 9, 38, 0
1, 93839, Note_on_c, 9, 42, 0
1, 93855, Note_on_c, 9, 42, 69
1, 94079, Note_on_c, 9, 42, 0
1, 94095, Note_on_c, 9, 42, 64
1, 94095, Note_on_c, 9, 35, 111
1, 94319, Note_on_c, 9, 42, 0
1, 94319, Note_on_c, 9, 35, 0
1, 94320, Note_on_c, 9, 38, 117
1, 94334, Note_on_c, 9, 38, 0
1, 94335, Note_on_c, 9, 41, 73
1, 94335, Note_on_c, 9, 47, 81
1, 94335, Note_on_c, 9, 42, 67
1, 94559, Note_on_c, 9, 41, 0
1, 94559, Note_on_c, 9, 47, 0
1, 94559, Note_on_c, 9, 42, 0
1, 94560, Note_on_c, 9, 38, 126
1, 94560, Note_on_c, 9, 42, 73
1, 94574, Note_on_c, 9, 38, 0
1, 94574, Note_on_c, 9, 42, 0
1, 94575, Note_on_c, 9, 41, 72
1, 94575, Note_on_c, 9, 47, 81
1, 94799, Note_on_c, 9, 41, 0
1, 94799, Note_on_c, 9, 47, 0
1, 94815, Note_on_c, 9, 42, 78
1, 95039, Note_on_c, 9, 42, 0
1, 95055, Note_on_c, 9, 41, 85
1, 95055, Note_on_c, 9, 38, 126
1, 95055, Note_on_c, 9, 47, 89
1, 95055, Note_on_c, 9, 42, 81
1, 95279, Note_on_c, 9, 41, 0
1, 95279, Note_on_c, 9, 38, 0
1, 95279, Note_on_c, 9, 47, 0
1, 95279, Note_on_c, 9, 42, 0
1, 95295, Note_on_c, 9, 42, 83
1, 95519, Note_on_c, 9, 42, 0
1, 95535, Note_on_c, 9, 42, 87
1, 95759, Note_on_c, 9, 42, 0
1, 95775, Note_on_c, 9, 38, 126
1, 95775, Note_on_c, 9, 46, 81
1, 95789, Note_on_c, 9, 38, 0
1, 95789, Note_on_c, 9, 46, 0
1, 95790, Note_on_c, 9, 41, 92
1, 95790, Note_on_c, 9, 47, 95
1, 95879, Note_on_c, 9, 41, 0
1, 95879, Note_on_c, 9, 47, 0
1, 96000, Note_on_c, 9, 42, 76
1, 96000, Note_on_c, 9, 35, 113
1, 96239, Note_on_c, 9, 42, 0
1, 96255, Note_on_c, 9, 42, 57
1, 96479, Note_on_c, 9, 35, 0
1, 96479, Note_on_c, 9, 42, 0
1, 96495, Note_on_c, 9, 38, 126
1, 96495, Note_on_c, 9, 42, 71
1, 96719, Note_on_c, 9, 38, 0
1, 96719, Note_on_c, 9, 42, 0
1, 96720, Note_on_c, 9, 42, 62
1, 96959, Note_on_c, 9, 42, 0
1, 96960, Note_on_c, 9, 42, 68
1, 96975, Note_on_c, 9, 35, 115
1, 97199, Note_on_c, 9, 42, 0
1, 97199, Note_on_c, 9, 35, 0
1, 97230, Note_on_c, 9, 42, 73
1, 97319, Note_on_c, 9, 42, 0
1, 97485, Note_on_c, 9, 38, 126
1, 97485, Note_on_c, 9, 42, 71
1, 97679, Note_on_c, 9, 38, 0
1, 97679, Note_on_c, 9, 42, 0
1, 97710, Note_on_c, 9, 42, 69
1, 97799, Note_on_c, 9, 42, 0
1, 97935, Note_on_c, 9, 42, 59
1, 97950, Note_on_c, 9, 35, 107
1, 98159, Note_on_c, 9, 42, 0
1, 98175, Note_on_c, 9, 42, 73
1, 98399, Note_on_c, 9, 35, 0
1, 98399, Note_on_c, 9, 42, 0
1, 98415, Note_on_c, 9, 42, 76
1, 98429, Note_on_c, 9, 42, 0
1, 98430, Note_on_c, 9, 38, 126
1, 98519, Note_on_c, 9, 38, 0
1, 98655, Note_on_c, 9, 42, 71
1, 98879, Note_on_c, 9, 42, 0
1, 98895, Note_on_c, 9, 42, 72
1, 98895, Note_on_c, 9, 35, 104
1, 99119, Note_on_c, 9, 42, 0
1, 99119, Note_on_c, 9, 35, 0
1, 99135, Note_on_c, 9, 42, 68
1, 99359, Note_on_c, 9, 42, 0
1, 99390, Note_on_c, 9, 42, 75
1, 99404, Note_on_c, 9, 42, 0
1, 99405, Note_on_c, 9, 38, 126
1, 99599, Note_on_c, 9, 38, 0
1, 99615, Note_on_c, 9, 42, 69
1, 99839, Note_on_c, 9, 42, 0
1, 99855, Note_on_c, 9, 42, 73
1, 99870, Note_on_c, 9, 35, 111
1, 100079, Note_on_c, 9, 42, 0
1, 100095, Note_on_c, 9, 42, 68
1, 100319, Note_on_c, 9, 35, 0
1, 100319, Note_on_c, 9, 42, 0
1, 100335, Note_on_c, 9, 38, 119
1, 100335, Note_on_c, 9, 42, 72
1, 100559, Note_on_c, 9, 38, 0
1, 100559, Note_on_c, 9, 42, 0
1, 100575, Note_on_c, 9, 42, 66
1, 100799, Note_on_c, 9, 42, 0
1, 100815, Note_on_c, 9, 42, 69
1, 100830, Note_on_c, 9, 35, 112
1, 101039, Note_on_c, 9, 42, 0
1, 101055, Note_on_c, 9, 42, 68
1, 101279, Note_on_c, 9, 35, 0
1, 101279, Note_on_c, 9, 42, 0
1, 101295, Note_on_c, 9, 38, 115
1, 101295, Note_on_c, 9, 42, 69
1, 101519, Note_on_c, 9, 38, 0
1, 101519, Note_on_c, 9, 42, 0
1, 101520, Note_on_c, 9, 42, 71
1, 101759, Note_on_c, 9, 42, 0
1, 101760, Note_on_c, 9, 42, 66
1, 101760, Note_on_c, 9, 35, 112
1, 101999, Note_on_c, 9, 42, 0
1, 102000, Note_on_c, 9, 42, 67
1, 102239, Note_on_c, 9, 35, 0
1, 102239, Note_on_c, 9, 42, 0
1, 102240, Note_on_c, 9, 42, 69
1, 102254, Note_on_c, 9, 42, 0
1, 102255, Note_on_c, 9, 38, 113
1, 102479, Note_on_c, 9, 38, 0
1, 102480, Note_on_c, 9, 42, 67
1, 102719, Note_on_c, 9, 42, 0
1, 102720, Note_on_c, 9, 42, 72
1, 102735, Note_on_c, 9, 35, 109
1, 102959, Note_on_c, 9, 42, 0
1, 102959, Note_on_c, 9, 35, 0
1, 102960, Note_on_c, 9, 42, 67
1, 103199, Note_on_c, 9, 42, 0
1, 103215, Note_on_c, 9, 42, 71
1, 103229, Note_on_c, 9, 42, 0
1, 103230, Note_on_c, 9, 38, 113
1, 103319, Note_on_c, 9, 38, 0
1, 103455, Note_on_c, 9, 42, 68
1, 103679, Note_on_c, 9, 42, 0
1, 103695, Note_on_c, 9, 42, 65
1, 103710, Note_on_c, 9, 35, 111
1, 103919, Note_on_c, 9, 42, 0
1, 103935, Note_on_c, 9, 42, 67
1, 104159, Note_on_c, 9, 35, 0
1, 104159, Note_on_c, 9, 42, 0
1, 104175, Note_on_c, 9, 38, 113
1, 104175, Note_on_c, 9, 42, 61
1, 104399, Note_on_c, 9, 38, 0
1, 104399, Note_on_c, 9, 42, 0
1, 104415, Note_on_c, 9, 42, 68
1, 104639, Note_on_c, 9, 42, 0
1, 104655, Note_on_c, 9, 42, 64
1, 104670, Note_on_c, 9, 35, 111
1, 104879, Note_on_c, 9, 42, 0
1, 104895, Note_on_c, 9, 42, 65
1, 105119, Note_on_c, 9, 35, 0
1, 105119, Note_on_c, 9, 42, 0
1, 105135, Note_on_c, 9, 38, 113
1, 105135, Note_on_c, 9, 42, 68
1, 105359, Note_on_c, 9, 38, 0
1, 105359, Note_on_c, 9, 42, 0
1, 105375, Note_on_c, 9, 42, 66
1, 105599, Note_on_c, 9, 42, 0
1, 105615, Note_on_c, 9, 42, 66
1, 105615, Note_on_c, 9, 35, 112
1, 105839, Note_on_c, 9, 42, 0
1, 105839, Note_on_c, 9, 35, 0
1, 105855, Note_on_c, 9, 42, 69
1, 106079, Note_on_c, 9, 42, 0
1, 106095, Note_on_c, 9, 38, 111
1, 106095, Note_on_c, 9, 42, 71
1, 106319, Note_on_c, 9, 38, 0
1, 106319, Note_on_c, 9, 42, 0
1, 106335, Note_on_c, 9, 42, 72
1, 106559, Note_on_c, 9, 42, 0
1, 106575, Note_on_c, 9, 42, 68
1, 106575, Note_on_c, 9, 35, 106
1, 106799, Note_on_c, 9, 42, 0
1, 106799, Note_on_c, 9, 35, 0
1, 106815, Note_on_c, 9, 42, 73
1, 107039, Note_on_c, 9, 42, 0
1, 107055, Note_on_c, 9, 42, 68
1, 107069, Note_on_c, 9, 42, 0
1, 107070, Note_on_c, 9, 38, 115
1, 107159, Note_on_c, 9, 38, 0
1, 107295, Note_on_c, 9, 42, 67
1, 107519, Note_on_c, 9, 42, 0
1, 107520, Note_on_c, 9, 42, 72
1, 107535, Note_on_c, 9, 35, 106
1, 107759, Note_on_c, 9, 42, 0
1, 107759, Note_on_c, 9, 35, 0
1, 107775, Note_on_c, 9, 42, 65
1, 107999, Note_on_c, 9, 42, 0
1, 108015, Note_on_c, 9, 38, 107
1, 108015, Note_on_c, 9, 42, 68
1, 108239, Note_on_c, 9, 38, 0
1, 108239, Note_on_c, 9, 42, 0
1, 108255, Note_on_c, 9, 42, 61
1, 108479, Note_on_c, 9, 42, 0
1, 108495, Note_on_c, 9, 42, 61
1, 108495, Note_on_c, 9, 35, 108
1, 108719, Note_on_c, 9, 42, 0
1, 108719, Note_on_c, 9, 35, 0
1, 108735, Note_on_c, 9, 42, 68
1, 108959, Note_on_c, 9, 42, 0
1, 108975, Note_on_c, 9, 38, 111
1, 108975, Note_on_c, 9, 42, 72
1, 109199, Note_on_c, 9, 38, 0
1, 109199, Note_on_c, 9, 42, 0
1, 109200, Note_on_c, 9, 42, 71
1, 109439, Note_on_c, 9, 42, 0
1, 109440, Note_on_c, 9, 42, 73
1, 109455, Note_on_c, 9, 35, 111
1, 109679, Note_on_c, 9, 42, 0
1, 109679, Note_on_c, 9, 35, 0
1, 109680, Note_on_c, 9, 42, 75
1, 109919, Note_on_c, 9, 42, 0
1, 109935, Note_on_c, 9, 38, 109
1, 109935, Note_on_c, 9, 42, 81
1, 110159, Note_on_c, 9, 38, 0
1, 110159, Note_on_c, 9, 42, 0
1, 110175, Note_on_c, 9, 42, 72
1, 110399, Note_on_c, 9, 42, 0
1, 110400, Note_on_c, 9, 49, 96
1, 110445, Note_on_c, 9, 35, 109
1, 110639, Note_on_c, 9, 35, 0
1, 110879, Note_on_c, 9, 49, 0
1, 110880, Note_on_c, 9, 57, 98
1, 110909, Note_on_c, 9, 57, 0
1, 110910, Note_on_c, 9, 38, 109
1, 111359, Note_on_c, 9, 38, 0
1, 111390, Note_on_c, 9, 49, 93
1, 111390, Note_on_c, 9, 35, 108
1, 111644, Note_on_c, 9, 49, 0
1, 111645, Note_on_c, 9, 42, 68
1, 111839, Note_on_c, 9, 35, 0
1, 111839, Note_on_c, 9, 42, 0
1, 111870, Note_on_c, 9, 38, 107
1, 111884, Note_on_c, 9, 38, 0
1, 111885, Note_on_c, 9, 42, 67
1, 112079, Note_on_c, 9, 42, 0
1, 112110, Note_on_c, 9, 42, 67
1, 112199, Note_on_c, 9, 42, 0
1, 112335, Note_on_c, 9, 42, 62
1, 112350, Note_on_c, 9, 35, 112
1, 112559, Note_on_c, 9, 42, 0
1, 112575, Note_on_c, 9, 42, 73
1, 112799, Note_on_c, 9, 35, 0
1, 112799, Note_on_c, 9, 42, 0
1, 112815, Note_on_c, 9, 42, 69
1, 112829, Note_on_c, 9, 42, 0
1, 112830, Note_on_c, 9, 38, 109
1, 112919, Note_on_c, 9, 38, 0
1, 113055, Note_on_c, 9, 42, 61
1, 113279, Note_on_c, 9, 42, 0
1, 113295, Note_on_c, 9, 42, 61
1, 113310, Note_on_c, 9, 35, 112
1, 113519, Note_on_c, 9, 42, 0
1, 113535, Note_on_c, 9, 42, 72
1, 113759, Note_on_c, 9, 35, 0
1, 113759, Note_on_c, 9, 42, 0
1, 113775, Note_on_c, 9, 42, 67
1, 113789, Note_on_c, 9, 42, 0
1, 113790, Note_on_c, 9, 38, 107
1, 113879, Note_on_c, 9, 38, 0
1, 114030, Note_on_c, 9, 42, 67
1, 114119, Note_on_c, 9, 42, 0
1, 114270, Note_on_c, 9, 42, 66
1, 114285, Note_on_c, 9, 35, 106
1, 114359, Note_on_c, 9, 42, 0
1, 114479, Note_on_c, 9, 35, 0
1, 114495, Note_on_c, 9, 42, 75
1, 114719, Note_on_c, 9, 42, 0
1, 114735, Note_on_c, 9, 42, 67
1, 114749, Note_on_c, 9, 42, 0
1, 114750, Note_on_c, 9, 38, 109
1, 114839, Note_on_c, 9, 38, 0
1, 114975, Note_on_c, 9, 42, 69
1, 115199, Note_on_c, 9, 42, 0
1, 115215, Note_on_c, 9, 42, 67
1, 115215, Note_on_c, 9, 35, 109
1, 115439, Note_on_c, 9, 42, 0
1, 115439, Note_on_c, 9, 35, 0
1, 115455, Note_on_c, 9, 42, 68
1, 115679, Note_on_c, 9, 42, 0
1, 115695, Note_on_c, 9, 38, 105
1, 115695, Note_on_c, 9, 42, 69
1, 115919, Note_on_c, 9, 38, 0
1, 115919, Note_on_c, 9, 42, 0
1, 115920, Note_on_c, 9, 42, 67
1, 116159, Note_on_c, 9, 42, 0
1, 116175, Note_on_c, 9, 42, 69
1, 116175, Note_on_c, 9, 35, 110
1, 116399, Note_on_c, 9, 42, 0
1, 116399, Note_on_c, 9, 35, 0
1, 116400, Note_on_c, 9, 42, 73
1, 116639, Note_on_c, 9, 42, 0
1, 116640, Note_on_c, 9, 42, 71
1, 116654, Note_on_c, 9, 42, 0
1, 116655, Note_on_c, 9, 38, 111
1, 116879, Note_on_c, 9, 38, 0
1, 116880, Note_on_c, 9, 42, 76
1, 117119, Note_on_c, 9, 42, 0
1, 117120, Note_on_c, 9, 42, 72
1, 117135, Note_on_c, 9, 35, 109
1, 117359, Note_on_c, 9, 42, 0
1, 117359, Note_on_c, 9, 35, 0
1, 117360, Note_on_c, 9, 42, 69
1, 117599, Note_on_c, 9, 42, 0
1, 117615, Note_on_c, 9, 42, 79
1, 117629, Note_on_c, 9, 42, 0
1, 117630, Note_on_c, 9, 38, 107
1, 117719, Note_on_c, 9, 38, 0
1, 117840, Note_on_c, 9, 42, 73
1, 118079, Note_on_c, 9, 42, 0
1, 118095, Note_on_c, 9, 42, 73
1, 118095, Note_on_c, 9, 35, 109
1, 118319, Note_on_c, 9, 42, 0
1, 118319, Note_on_c, 9, 35, 0
1, 118335, Note_on_c, 9, 42, 66
1, 118559, Note_on_c, 9, 42, 0
1, 118575, Note_on_c, 9, 38, 105
1, 118575, Note_on_c, 9, 42, 78
1, 118799, Note_on_c, 9, 38, 0
1, 118799, Note_on_c, 9, 42, 0
1, 118815, Note_on_c, 9, 42, 68
1, 119039, Note_on_c, 9, 42, 0
1, 119055, Note_on_c, 9, 42, 71
1, 119055, Note_on_c, 9, 35, 108
1, 119279, Note_on_c, 9, 42, 0
1, 119279, Note_on_c, 9, 35, 0
1, 119295, Note_on_c, 9, 42, 61
1, 119519, Note_on_c, 9, 42, 0
1, 119535, Note_on_c, 9, 38, 105
1, 119535, Note_on_c, 9, 42, 68
1, 119759, Note_on_c, 9, 38, 0
1, 119759, Note_on_c, 9, 42, 0
1, 119775, Note_on_c, 9, 42, 66
1, 119999, Note_on_c, 9, 42, 0
1, 120000, Note_on_c, 9, 42, 68
1, 120015, Note_on_c, 9, 35, 106
1, 120239, Note_on_c, 9, 42, 0
1, 120239, Note_on_c, 9, 35, 0
1, 120240, Note_on_c, 9, 42, 83
1, 120479, Note_on_c, 9, 42, 0
1, 120495, Note_on_c, 9, 38, 107
1, 120495, Note_on_c, 9, 42, 76
1, 120719, Note_on_c, 9, 38, 0
1, 120719, Note_on_c, 9, 42, 0
1, 120735, Note_on_c, 9, 42, 71
1, 120959, Note_on_c, 9, 42, 0
1, 120975, Note_on_c, 9, 42, 61
1, 120975, Note_on_c, 9, 35, 108
1, 121199, Note_on_c, 9, 42, 0
1, 121199, Note_on_c, 9, 35, 0
1, 121200, Note_on_c, 9, 42, 62
1, 121439, Note_on_c, 9, 42, 0
1, 121440, Note_on_c, 9, 42, 61
1, 121454, Note_on_c, 9, 42, 0
1, 121455, Note_on_c, 9, 38, 107
1, 121679, Note_on_c, 9, 38, 0
1, 121695, Note_on_c, 9, 42, 73
1, 121919, Note_on_c, 9, 42, 0
1, 121920, Note_on_c, 9, 42, 66
1, 121950, Note_on_c, 9, 35, 110
1, 122159, Note_on_c, 9, 42, 0
1, 122175, Note_on_c, 9, 42, 75
1, 122399, Note_on_c, 9, 35, 0
1, 122399, Note_on_c, 9, 42, 0
1, 122415, Note_on_c, 9, 42, 66
1, 122429, Note_on_c, 9, 42, 0
1, 122430, Note_on_c, 9, 38, 107
1, 122519, Note_on_c, 9, 38, 0
1, 122655, Note_on_c, 9, 42, 72
1, 122879, Note_on_c, 9, 42, 0
1, 122895, Note_on_c, 9, 42, 72
1, 122910, Note_on_c, 9, 35, 110
1, 123119, Note_on_c, 9, 42, 0
1, 123135, Note_on_c, 9, 42, 66
1, 123359, Note_on_c, 9, 35, 0
1, 123359, Note_on_c, 9, 42, 0
1, 123375, Note_on_c, 9, 42, 69
1, 123389, Note_on_c, 9, 42, 0
1, 123390, Note_on_c, 9, 38, 111
1, 123479, Note_on_c, 9, 38, 0
1, 123615, Note_on_c, 9, 42, 67
1, 123839, Note_on_c, 9, 42, 0
1, 123855, Note_on_c, 9, 42, 69
1, 123855, Note_on_c, 9, 35, 108
1, 124079, Note_on_c, 9, 42, 0
1, 124079, Note_on_c, 9, 35, 0
1, 124095, Note_on_c, 9, 42, 72
1, 124319, Note_on_c, 9, 42, 0
1, 124335, Note_on_c, 9, 38, 113
1, 124335, Note_on_c, 9, 42, 71
1, 124559, Note_on_c, 9, 38, 0
1, 124559, Note_on_c, 9, 42, 0
1, 124575, Note_on_c, 9, 42, 69
1, 124799, Note_on_c, 9, 42, 0
1, 124815, Note_on_c, 9, 41, 83
1, 124815, Note_on_c, 9, 47, 100
1, 124815, Note_on_c, 9, 42, 81
1, 124830, Note_on_c, 9, 35, 111
1, 125039, Note_on_c, 9, 41, 0
1, 125039, Note_on_c, 9, 47, 0
1, 125039, Note_on_c, 9, 42, 0
1, 125040, Note_on_c, 9, 41, 55
1, 125040, Note_on_c, 9, 47, 81
1, 125054, Note_on_c, 9, 41, 0
1, 125054, Note_on_c, 9, 47, 0
1, 125055, Note_on_c, 9, 38, 109
1, 125055, Note_on_c, 9, 42, 79
1, 125279, Note_on_c, 9, 35, 0
1, 125279, Note_on_c, 9, 38, 0
1, 125279, Note_on_c, 9, 42, 0
1, 125280, Note_on_c, 9, 41, 62
1, 125280, Note_on_c, 9, 47, 85
1, 125294, Note_on_c, 9, 41, 0
1, 125294, Note_on_c, 9, 47, 0
1, 125295, Note_on_c, 9, 38, 95
1, 125295, Note_on_c, 9, 42, 79
1, 125519, Note_on_c, 9, 38, 0
1, 125519, Note_on_c, 9, 42, 0
1, 125520, Note_on_c, 9, 41, 73
1, 125520, Note_on_c, 9, 47, 92
1, 125534, Note_on_c, 9, 41, 0
1, 125534, Note_on_c, 9, 47, 0
1, 125535, Note_on_c, 9, 38, 105
1, 125535, Note_on_c, 9, 42, 75
1, 125759, Note_on_c, 9, 38, 0
1, 125759, Note_on_c, 9, 42, 0
1, 125760, Note_on_c, 9, 41, 77
1, 125760, Note_on_c, 9, 47, 102
1, 125774, Note_on_c, 9, 41, 0
1, 125774, Note_on_c, 9, 47, 0
1, 125775, Note_on_c, 9, 38, 111
1, 125775, Note_on_c, 9, 42, 76
1, 125999, Note_on_c, 9, 38, 0
1, 125999, Note_on_c, 9, 42, 0
1, 126030, Note_on_c, 9, 41, 77
1, 126030, Note_on_c, 9, 47, 97
1, 126044, Note_on_c, 9, 41, 0
1, 126044, Note_on_c, 9, 47, 0
1, 126045, Note_on_c, 9, 38, 126
1, 126045, Note_on_c, 9, 42, 78
1, 126239, Note_on_c, 9, 38, 0
1, 126239, Note_on_c, 9, 42, 0
1, 126300, Note_on_c, 9, 41, 79
1, 126300, Note_on_c, 9, 38, 126
1, 126300, Note_on_c, 9, 47, 100
1, 126300, Note_on_c, 9, 42, 81
1, 126524, Note_on_c, 9, 41, 0
1, 126524, Note_on_c, 9, 38, 0
1, 126524, Note_on_c, 9, 47, 0
1, 126524, Note_on_c, 9, 42, 0
1, 126525, Note_on_c, 9, 41, 81
1, 126525, Note_on_c, 9, 38, 126
1, 126525, Note_on_c, 9, 47, 102
1, 126539, Note_on_c, 9, 41, 0
1, 126539, Note_on_c, 9, 38, 0
1, 126539, Note_on_c, 9, 47, 0
1, 126540, Note_on_c, 9, 46, 73
1, 126719, Note_on_c, 9, 46, 0
1, 126765, Note_on_c, 9, 49, 102
1, 126765, Note_on_c, 9, 35, 113
1, 126959, Note_on_c, 9, 49, 0
1, 126959, Note_on_c, 9, 35, 0
1, 126990, Note_on_c, 9, 42, 62
1, 127079, Note_on_c, 9, 42, 0
1, 127215, Note_on_c, 9, 38, 122
1, 127215, Note_on_c, 9, 42, 62
1, 127439, Note_on_c, 9, 38, 0
1, 127439, Note_on_c, 9, 42, 0
1, 127455, Note_on_c, 9, 42, 72
1, 127679, Note_on_c, 9, 42, 0
1, 127710, Note_on_c, 9, 42, 75
1, 127710, Note_on_c, 9, 35, 111
1, 127799, Note_on_c, 9, 42, 0
1, 127950, Note_on_c, 9, 42, 69
1, 128039, Note_on_c, 9, 42, 0
1, 128159, Note_on_c, 9, 35, 0
1, 128190, Note_on_c, 9, 38, 111
1, 128190, Note_on_c, 9, 42, 72
1, 128279, Note_on_c, 9, 38, 0
1, 128279, Note_on_c, 9, 42, 0
1, 128430, Note_on_c, 9, 42, 68
1, 128519, Note_on_c, 9, 42, 0
1, 128670, Note_on_c, 9, 42, 73
1, 128670, Note_on_c, 9, 35, 111
1, 128759, Note_on_c, 9, 42, 0
1, 128895, Note_on_c, 9, 42, 72
1, 129119, Note_on_c, 9, 35, 0
1, 129119, Note_on_c, 9, 42, 0
1, 129120, Note_on_c, 9, 38, 115
1, 129120, Note_on_c, 9, 42, 66
1, 129359, Note_on_c, 9, 38, 0
1, 129359, Note_on_c, 9, 42, 0
1, 129375, Note_on_c, 9, 42, 72
1, 129599, Note_on_c, 9, 42, 0
1, 129630, Note_on_c, 9, 42, 71
1, 129630, Note_on_c, 9, 35, 110
1, 129719, Note_on_c, 9, 42, 0
1, 129855, Note_on_c, 9, 42, 66
1, 130079, Note_on_c, 9, 35, 0
1, 130079, Note_on_c, 9, 42, 0
1, 130080, Note_on_c, 9, 38, 113
1, 130080, Note_on_c, 9, 42, 67
1, 130319, Note_on_c, 9, 38, 0
1, 130319, Note_on_c, 9, 42, 0
1, 130380, Note_on_c, 9, 42, 72
1, 130559, Note_on_c, 9, 42, 0
1, 130620, Note_on_c, 9, 49, 83
1, 130635, Note_on_c, 9, 35, 107
1, 130799, Note_on_c, 9, 49, 0
1, 130860, Note_on_c, 9, 42, 73
1, 131039, Note_on_c, 9, 35, 0
1, 131039, Note_on_c, 9, 42, 0
1, 131070, Note_on_c, 9, 42, 73
1, 131084, Note_on_c, 9, 42, 0
1, 131085, Note_on_c, 9, 38, 115
1, 131279, Note_on_c, 9, 38, 0
1, 131295, Note_on_c, 9, 42, 73
1, 131519, Note_on_c, 9, 42, 0
1, 131520, Note_on_c, 9, 42, 69
1, 131535, Note_on_c, 9, 35, 110
1, 131759, Note_on_c, 9, 42, 0
1, 131759, Note_on_c, 9, 35, 0
1, 131775, Note_on_c, 9, 42, 71
1, 131999, Note_on_c, 9, 42, 0
1, 132000, Note_on_c, 9, 42, 69
1, 132014, Note_on_c, 9, 42, 0
1, 132015, Note_on_c, 9, 38, 111
1, 132239, Note_on_c, 9, 38, 0
1, 132255, Note_on_c, 9, 42, 72
1, 132479, Note_on_c, 9, 42, 0
1, 132495, Note_on_c, 9, 42, 67
1, 132510, Note_on_c, 9, 35, 111
1, 132719, Note_on_c, 9, 42, 0
1, 132720, Note_on_c, 9, 42, 66
1, 132959, Note_on_c, 9, 35, 0
1, 132959, Note_on_c, 9, 42, 0
1, 132960, Note_on_c, 9, 38, 115
1, 132960, Note_on_c, 9, 42, 75
1, 133199, Note_on_c, 9, 38, 0
1, 133199, Note_on_c, 9, 42, 0
1, 133200, Note_on_c, 9, 42, 68
1, 133439, Note_on_c, 9, 42, 0
1, 133440, Note_on_c, 9, 42, 65
1, 133455, Note_on_c, 9, 35, 107
1, 133679, Note_on_c, 9, 42, 0
1, 133679, Note_on_c, 9, 35, 0
1, 133680, Note_on_c, 9, 42, 62
1, 133919, Note_on_c, 9, 42, 0
1, 133920, Note_on_c, 9, 42, 66
1, 133934, Note_on_c, 9, 42, 0
1, 133935, Note_on_c, 9, 38, 109
1, 134159, Note_on_c, 9, 38, 0
1, 134160, Note_on_c, 9, 42, 75
1, 134399, Note_on_c, 9, 42, 0
1, 134415, Note_on_c, 9, 49, 79
1, 134415, Note_on_c, 9, 35, 110
1, 134639, Note_on_c, 9, 49, 0
1, 134639, Note_on_c, 9, 35, 0
1, 134655, Note_on_c, 9, 42, 69
1, 134879, Note_on_c, 9, 42, 0
1, 134880, Note_on_c, 9, 38, 111
1, 134880, Note_on_c, 9, 42, 68
1, 135119, Note_on_c, 9, 38, 0
1, 135119, Note_on_c, 9, 42, 0
1, 135120, Note_on_c, 9, 42, 62
1, 135359, Note_on_c, 9, 42, 0
1, 135375, Note_on_c, 9, 42, 75
1, 135375, Note_on_c, 9, 35, 110
1, 135599, Note_on_c, 9, 42, 0
1, 135599, Note_on_c, 9, 35, 0
1, 135600, Note_on_c, 9, 42, 64
1, 135839, Note_on_c, 9, 42, 0
1, 135840, Note_on_c, 9, 38, 109
1, 135840, Note_on_c, 9, 42, 67
1, 136079, Note_on_c, 9, 38, 0
1, 136079, Note_on_c, 9, 42, 0
1, 136095, Note_on_c, 9, 42, 65
1, 136319, Note_on_c, 9, 42, 0
1, 136335, Note_on_c, 9, 42, 66
1, 136350, Note_on_c, 9, 35, 110
1, 136559, Note_on_c, 9, 42, 0
1, 136560, Note_on_c, 9, 42, 68
1, 136799, Note_on_c, 9, 35, 0
1, 136799, Note_on_c, 9, 42, 0
1, 136800, Note_on_c, 9, 38, 109
1, 136800, Note_on_c, 9, 42, 67
1, 137039, Note_on_c, 9, 38, 0
1, 137039, Note_on_c, 9, 42, 0
1, 137040, Note_on_c, 9, 42, 68
1, 137279, Note_on_c, 9, 42, 0
1, 137280, Note_on_c, 9, 35, 106
1, 137295, Note_on_c, 9, 42, 71
1, 137519, Note_on_c, 9, 42, 0
1, 137535, Note_on_c, 9, 42, 65
1, 137759, Note_on_c, 9, 35, 0
1, 137759, Note_on_c, 9, 42, 0
1, 137760, Note_on_c, 9, 38, 109
1, 137760, Note_on_c, 9, 42, 66
1, 137999, Note_on_c, 9, 38, 0
1, 137999, Note_on_c, 9, 42, 0
1, 138015, Note_on_c, 9, 42, 69
1, 138239, Note_on_c, 9, 42, 0
1, 138270, Note_on_c, 9, 49, 77
1, 138270, Note_on_c, 9, 35, 110
1, 138359, Note_on_c, 9, 49, 0
1, 138495, Note_on_c, 9, 42, 73
1, 138719, Note_on_c, 9, 35, 0
1, 138719, Note_on_c, 9, 42, 0
1, 138720, Note_on_c, 9, 38, 111
1, 138734, Note_on_c, 9, 38, 0
1, 138735, Note_on_c, 9, 42, 69
1, 138959, Note_on_c, 9, 42, 0
1, 138975, Note_on_c, 9, 42, 64
1, 139199, Note_on_c, 9, 42, 0
1, 139215, Note_on_c, 9, 42, 51
1, 139230, Note_on_c, 9, 35, 112
1, 139439, Note_on_c, 9, 42, 0
1, 139455, Note_on_c, 9, 42, 59
1, 139679, Note_on_c, 9, 35, 0
1, 139679, Note_on_c, 9, 42, 0
1, 139680, Note_on_c, 9, 38, 111
1, 139680, Note_on_c, 9, 42, 66
1, 139919, Note_on_c, 9, 38, 0
1, 139919, Note_on_c, 9, 42, 0
1, 139935, Note_on_c, 9, 42, 68
1, 140159, Note_on_c, 9, 42, 0
1, 140175, Note_on_c, 9, 42, 68
1, 140175, Note_on_c, 9, 35, 106
1, 140399, Note_on_c, 9, 42, 0
1, 140399, Note_on_c, 9, 35, 0
1, 140400, Note_on_c, 9, 41, 59
1, 140400, Note_on_c, 9, 47, 75
1, 140414, Note_on_c, 9, 41, 0
1, 140414, Note_on_c, 9, 47, 0
1, 140415, Note_on_c, 9, 38, 126
1, 140415, Note_on_c, 9, 42, 69
1, 140639, Note_on_c, 9, 38, 0
1, 140639, Note_on_c, 9, 42, 0
1, 140640, Note_on_c, 9, 41, 73
1, 140640, Note_on_c, 9, 47, 92
1, 140640, Note_on_c, 9, 42, 72
1, 140654, Note_on_c, 9, 41, 0
1, 140654, Note_on_c, 9, 47, 0
1, 140654, Note_on_c, 9, 42, 0
1, 140655, Note_on_c, 9, 38, 111
1, 140879, Note_on_c, 9, 38, 0
1, 140895, Note_on_c, 9, 42, 66
1, 141119, Note_on_c, 9, 42, 0
1, 141120, Note_on_c, 9, 41, 87
1, 141120, Note_on_c, 9, 47, 95
1, 141134, Note_on_c, 9, 41, 0
1, 141134, Note_on_c, 9, 47, 0
1, 141135, Note_on_c, 9, 38, 126
1, 141135, Note_on_c, 9, 42, 75
1, 141359, Note_on_c, 9, 38, 0
1, 141359, Note_on_c, 9, 42, 0
1, 141360, Note_on_c, 9, 42, 69
1, 141599, Note_on_c, 9, 42, 0
1, 141600, Note_on_c, 9, 42, 72
1, 141614, Note_on_c, 9, 42, 0
1, 141615, Note_on_c, 9, 41, 69
1, 141615, Note_on_c, 9, 38, 126
1, 141615, Note_on_c, 9, 47, 85
1, 141839, Note_on_c, 9, 41, 0
1, 141839, Note_on_c, 9, 38, 0
1, 141839, Note_on_c, 9, 47, 0
1, 141855, Note_on_c, 9, 42, 73
1, 141869, Note_on_c, 9, 42, 0
1, 141870, Note_on_c, 9, 41, 66
1, 141870, Note_on_c, 9, 38, 122
1, 141870, Note_on_c, 9, 47, 75
1, 141959, Note_on_c, 9, 41, 0
1, 141959, Note_on_c, 9, 38, 0
1, 141959, Note_on_c, 9, 47, 0
1, 142110, Note_on_c, 9, 35, 116
1, 142125, Note_on_c, 9, 49, 83
1, 142319, Note_on_c, 9, 49, 0
1, 142335, Note_on_c, 9, 42, 75
1, 142559, Note_on_c, 9, 35, 0
1, 142559, Note_on_c, 9, 42, 0
1, 142560, Note_on_c, 9, 38, 126
1, 142560, Note_on_c, 9, 42, 69
1, 142799, Note_on_c, 9, 38, 0
1, 142799, Note_on_c, 9, 42, 0
1, 142800, Note_on_c, 9, 42, 71
1, 143039, Note_on_c, 9, 42, 0
1, 143040, Note_on_c, 9, 42, 69
1, 143040, Note_on_c, 9, 35, 111
1, 143279, Note_on_c, 9, 42, 0
1, 143295, Note_on_c, 9, 42, 71
1, 143519, Note_on_c, 9, 35, 0
1, 143519, Note_on_c, 9, 42, 0
1, 143535, Note_on_c, 9, 42, 66
1, 143549, Note_on_c, 9, 42, 0
1, 143550, Note_on_c, 9, 38, 125
1, 143639, Note_on_c, 9, 38, 0
1, 143775, Note_on_c, 9, 42, 66
1, 143999, Note_on_c, 9, 42, 0
1, 144015, Note_on_c, 9, 42, 66
1, 144015, Note_on_c, 9, 35, 110
1, 144239, Note_on_c, 9, 42, 0
1, 144239, Note_on_c, 9, 35, 0
1, 144240, Note_on_c, 9, 42, 66
1, 144479, Note_on_c, 9, 42, 0
1, 144480, Note_on_c, 9, 38, 126
1, 144480, Note_on_c, 9, 42, 61
1, 144719, Note_on_c, 9, 38, 0
1, 144719, Note_on_c, 9, 42, 0
1, 144735, Note_on_c, 9, 42, 69
1, 144959, Note_on_c, 9, 42, 0
1, 144990, Note_on_c, 9, 42, 72
1, 144990, Note_on_c, 9, 35, 112
1, 145079, Note_on_c, 9, 42, 0
1, 145215, Note_on_c, 9, 42, 67
1, 145439, Note_on_c, 9, 35, 0
1, 145439, Note_on_c, 9, 42, 0
1, 145440, Note_on_c, 9, 38, 126
1, 145440, Note_on_c, 9, 42, 65
1, 145679, Note_on_c, 9, 38, 0
1, 145724, Note_on_c, 9, 42, 0
1, 145725, Note_on_c, 9, 42, 68
1, 145919, Note_on_c, 9, 42, 0
1, 145980, Note_on_c, 9, 49, 79
1, 145980, Note_on_c, 9, 35, 112
1, 146159, Note_on_c, 9, 49, 0
1, 146159, Note_on_c, 9, 35, 0
1, 146190, Note_on_c, 9, 42, 65
1, 146369, Note_on_c, 9, 42, 0
1, 146385, Note_on_c, 9, 42, 66
1, 146399, Note_on_c, 9, 42, 0
1, 146415, Note_on_c, 9, 38, 122
1, 146639, Note_on_c, 9, 38, 0
1, 146640, Note_on_c, 9, 42, 68
1, 146879, Note_on_c, 9, 42, 0
1, 146880, Note_on_c, 9, 42, 61
1, 146880, Note_on_c, 9, 35, 113
1, 147119, Note_on_c, 9, 42, 0
1, 147120, Note_on_c, 9, 42, 66
1, 147359, Note_on_c, 9, 35, 0
1, 147359, Note_on_c, 9, 42, 0
1, 147375, Note_on_c, 9, 38, 122
1, 147375, Note_on_c, 9, 42, 65
1, 147599, Note_on_c, 9, 38, 0
1, 147599, Note_on_c, 9, 42, 0
1, 147630, Note_on_c, 9, 42, 68
1, 147719, Note_on_c, 9, 42, 0
1, 147885, Note_on_c, 9, 42, 65
1, 147885, Note_on_c, 9, 35, 110
1, 148079, Note_on_c, 9, 42, 0
1, 148079, Note_on_c, 9, 35, 0
1, 148110, Note_on_c, 9, 42, 68
1, 148289, Note_on_c, 9, 42, 0
1, 148305, Note_on_c, 9, 38, 117
1, 148305, Note_on_c, 9, 42, 68
1, 148319, Note_on_c, 9, 38, 0
1, 148319, Note_on_c, 9, 42, 0
1, 148560, Note_on_c, 9, 42, 67
1, 148799, Note_on_c, 9, 42, 0
1, 148815, Note_on_c, 9, 42, 68
1, 148815, Note_on_c, 9, 35, 109
1, 149039, Note_on_c, 9, 42, 0
1, 149039, Note_on_c, 9, 35, 0
1, 149055, Note_on_c, 9, 42, 66
1, 149279, Note_on_c, 9, 42, 0
1, 149280, Note_on_c, 9, 38, 117
1, 149280, Note_on_c, 9, 42, 67
1, 149519, Note_on_c, 9, 38, 0
1, 149519, Note_on_c, 9, 42, 0
1, 149535, Note_on_c, 9, 42, 66
1, 149759, Note_on_c, 9, 42, 0
1, 149775, Note_on_c, 9, 49, 77
1, 149775, Note_on_c, 9, 35, 111
1, 149999, Note_on_c, 9, 49, 0
1, 149999, Note_on_c, 9, 35, 0
1, 150000, Note_on_c, 9, 42, 75
1, 150239, Note_on_c, 9, 42, 0
1, 150240, Note_on_c, 9, 38, 119
1, 150240, Note_on_c, 9, 42, 62
1, 150479, Note_on_c, 9, 38, 0
1, 150479, Note_on_c, 9, 42, 0
1, 150480, Note_on_c, 9, 42, 71
1, 150719, Note_on_c, 9, 42, 0
1, 150720, Note_on_c, 9, 42, 62
1, 150720, Note_on_c, 9, 35, 110
1, 150959, Note_on_c, 9, 42, 0
1, 150975, Note_on_c, 9, 42, 72
1, 151199, Note_on_c, 9, 35, 0
1, 151199, Note_on_c, 9, 42, 0
1, 151200, Note_on_c, 9, 38, 119
1, 151214, Note_on_c, 9, 38, 0
1, 151215, Note_on_c, 9, 42, 68
1, 151439, Note_on_c, 9, 42, 0
1, 151455, Note_on_c, 9, 42, 67
1, 151679, Note_on_c, 9, 42, 0
1, 151710, Note_on_c, 9, 42, 72
1, 151710, Note_on_c, 9, 35, 110
1, 151799, Note_on_c, 9, 42, 0
1, 151935, Note_on_c, 9, 42, 64
1, 152159, Note_on_c, 9, 35, 0
1, 152159, Note_on_c, 9, 42, 0
1, 152160, Note_on_c, 9, 38, 115
1, 152160, Note_on_c, 9, 42, 69
1, 152399, Note_on_c, 9, 38, 0
1, 152399, Note_on_c, 9, 42, 0
1, 152415, Note_on_c, 9, 42, 68
1, 152639, Note_on_c, 9, 42, 0
1, 152655, Note_on_c, 9, 42, 67
1, 152655, Note_on_c, 9, 35, 112
1, 152879, Note_on_c, 9, 42, 0
1, 152879, Note_on_c, 9, 35, 0
1, 152895, Note_on_c, 9, 42, 68
1, 153119, Note_on_c, 9, 42, 0
1, 153120, Note_on_c, 9, 38, 113
1, 153134, Note_on_c, 9, 38, 0
1, 153135, Note_on_c, 9, 42, 66
1, 153359, Note_on_c, 9, 42, 0
1, 153375, Note_on_c, 9, 42, 76
1, 153599, Note_on_c, 9, 42, 0
1, 153615, Note_on_c, 9, 49, 81
1, 153630, Note_on_c, 9, 35, 110
1, 153839, Note_on_c, 9, 49, 0
1, 153855, Note_on_c, 9, 42, 73
1, 154079, Note_on_c, 9, 35, 0
1, 154079, Note_on_c, 9, 42, 0
1, 154080, Note_on_c, 9, 38, 117
1, 154080, Note_on_c, 9, 42, 75
1, 154319, Note_on_c, 9, 38, 0
1, 154319, Note_on_c, 9, 42, 0
1, 154335, Note_on_c, 9, 42, 69
1, 154559, Note_on_c, 9, 42, 0
1, 154575, Note_on_c, 9, 42, 67
1, 154575, Note_on_c, 9, 35, 108
1, 154799, Note_on_c, 9, 42, 0
1, 154799, Note_on_c, 9, 35, 0
1, 154815, Note_on_c, 9, 42, 72
1, 155039, Note_on_c, 9, 42, 0
1, 155040, Note_on_c, 9, 38, 125
1, 155054, Note_on_c, 9, 38, 0
1, 155055, Note_on_c, 9, 42, 72
1, 155279, Note_on_c, 9, 42, 0
1, 155310, Note_on_c, 9, 42, 79
1, 155399, Note_on_c, 9, 42, 0
1, 155535, Note_on_c, 9, 38, 117
1, 155549, Note_on_c, 9, 38, 0
1, 155550, Note_on_c, 9, 41, 95
1, 155550, Note_on_c, 9, 40, 126
1, 155550, Note_on_c, 9, 47, 100
1, 155760, Note_on_c, 9, 35, 110
1, 155999, Note_on_c, 9, 41, 0
1, 155999, Note_on_c, 9, 40, 0
1, 155999, Note_on_c, 9, 47, 0
1, 155999, Note_on_c, 9, 35, 0
1, 156000, Note_on_c, 9, 35, 100
1, 156240, Note_on_c, 9, 38, 126
1, 156254, Note_on_c, 9, 38, 0
1, 156255, Note_on_c, 9, 41, 85
1, 156255, Note_on_c, 9, 40, 126
1, 156255, Note_on_c, 9, 47, 92
1, 156479, Note_on_c, 9, 35, 0
1, 156479, Note_on_c, 9, 41, 0
1, 156479, Note_on_c, 9, 40, 0
1, 156479, Note_on_c, 9, 47, 0
1, 156480, Note_on_c, 9, 35, 110
1, 156719, Note_on_c, 9, 35, 0
1, 156735, Note_on_c, 9, 35, 105
1, 156959, Note_on_c, 9, 35, 0
1, 156975, Note_on_c, 9, 38, 122
1, 156989, Note_on_c, 9, 38, 0
1, 156990, Note_on_c, 9, 41, 95
1, 156990, Note_on_c, 9, 47, 102
1, 157004, Note_on_c, 9, 41, 0
1, 157004, Note_on_c, 9, 47, 0
1, 157005, Note_on_c, 9, 40, 126
1, 157199, Note_on_c, 9, 40, 0
1, 157215, Note_on_c, 9, 35, 112
1, 157439, Note_on_c, 9, 35, 0
1, 157440, Note_on_c, 9, 38, 93
1, 157454, Note_on_c, 9, 38, 0
1, 157455, Note_on_c, 9, 49, 89
1, 157455, Note_on_c, 9, 35, 118
1, 157679, Note_on_c, 9, 49, 0
1, 157679, Note_on_c, 9, 35, 0
1, 157695, Note_on_c, 9, 38, 77
1, 157919, Note_on_c, 9, 38, 0
1, 157920, Note_on_c, 9, 38, 90
1, 157920, Note_on_c, 9, 40, 95
1, 158159, Note_on_c, 9, 38, 0
1, 158159, Note_on_c, 9, 40, 0
1, 158175, Note_on_c, 9, 38, 77
1, 158399, Note_on_c, 9, 38, 0
1, 158415, Note_on_c, 9, 38, 72
1, 158415, Note_on_c, 9, 35, 118
1, 158639, Note_on_c, 9, 38, 0
1, 158639, Note_on_c, 9, 35, 0
1, 158655, Note_on_c, 9, 38, 59
1, 158879, Note_on_c, 9, 38, 0
1, 158895, Note_on_c, 9, 38, 98
1, 158895, Note_on_c, 9, 40, 102
1, 159119, Note_on_c, 9, 38, 0
1, 159119, Note_on_c, 9, 40, 0
1, 159135, Note_on_c, 9, 38, 66
1, 159359, Note_on_c, 9, 38, 0
1, 159360, Note_on_c, 9, 38, 70
1, 159360, Note_on_c, 9, 35, 113
1, 159599, Note_on_c, 9, 38, 0
1, 159600, Note_on_c, 9, 38, 67
1, 159839, Note_on_c, 9, 35, 0
1, 159839, Note_on_c, 9, 38, 0
1, 159840, Note_on_c, 9, 38, 100
1, 159840, Note_on_c, 9, 40, 102
1, 160079, Note_on_c, 9, 38, 0
1, 160079, Note_on_c, 9, 40, 0
1, 160080, Note_on_c, 9, 38, 68
1, 160319, Note_on_c, 9, 38, 0
1, 160320, Note_on_c, 9, 38, 64
1, 160320, Note_on_c, 9, 35, 112
1, 160559, Note_on_c, 9, 38, 0
1, 160575, Note_on_c, 9, 38, 68
1, 160799, Note_on_c, 9, 35, 0
1, 160799, Note_on_c, 9, 38, 0
1, 160815, Note_on_c, 9, 38, 98
1, 160815, Note_on_c, 9, 40, 96
1, 161039, Note_on_c, 9, 38, 0
1, 161039, Note_on_c, 9, 40, 0
1, 161055, Note_on_c, 9, 38, 70
1, 161279, Note_on_c, 9, 38, 0
1, 161295, Note_on_c, 9, 38, 68
1, 161295, Note_on_c, 9, 35, 110
1, 161519, Note_on_c, 9, 38, 0
1, 161519, Note_on_c, 9, 35, 0
1, 161535, Note_on_c, 9, 38, 65
1, 161759, Note_on_c, 9, 38, 0
1, 161775, Note_on_c, 9, 38, 102
1, 161775, Note_on_c, 9, 40, 96
1, 161999, Note_on_c, 9, 38, 0
1, 161999, Note_on_c, 9, 40, 0
1, 162015, Note_on_c, 9, 38, 77
1, 162239, Note_on_c, 9, 38, 0
1, 162255, Note_on_c, 9, 38, 67
1, 162270, Note_on_c, 9, 35, 111
1, 162479, Note_on_c, 9, 38, 0
1, 162495, Note_on_c, 9, 38, 59
1, 162719, Note_on_c, 9, 35, 0
1, 162719, Note_on_c, 9, 38, 0
1, 162735, Note_on_c, 9, 38, 104
1, 162735, Note_on_c, 9, 40, 100
1, 162959, Note_on_c, 9, 38, 0
1, 162959, Note_on_c, 9, 40, 0
1, 162975, Note_on_c, 9, 38, 76
1, 163199, Note_on_c, 9, 38, 0
1, 163215, Note_on_c, 9, 38, 68
1, 163215, Note_on_c, 9, 35, 110
1, 163439, Note_on_c, 9, 38, 0
1, 163439, Note_on_c, 9, 35, 0
1, 163455, Note_on_c, 9, 38, 67
1, 163679, Note_on_c, 9, 38, 0
1, 163680, Note_on_c, 9, 38, 104
1, 163694, Note_on_c, 9, 38, 0
1, 163695, Note_on_c, 9, 40, 100
1, 163919, Note_on_c, 9, 40, 0
1, 163935, Note_on_c, 9, 38, 73
1, 164159, Note_on_c, 9, 38, 0
1, 164175, Note_on_c, 9, 38, 68
1, 164205, Note_on_c, 9, 35, 107
1, 164399, Note_on_c, 9, 35, 0
1, 164444, Note_on_c, 9, 38, 0
1, 164445, Note_on_c, 9, 38, 64
1, 164639, Note_on_c, 9, 38, 0
1, 164715, Note_on_c, 9, 38, 102
1, 164715, Note_on_c, 9, 40, 100
1, 164924, Note_on_c, 9, 38, 0
1, 164924, Note_on_c, 9, 40, 0
1, 164925, Note_on_c, 9, 38, 62
1, 165119, Note_on_c, 9, 38, 0
1, 165150, Note_on_c, 9, 38, 77
1, 165150, Note_on_c, 9, 49, 71
1, 165150, Note_on_c, 9, 35, 102
1, 165239, Note_on_c, 9, 38, 0
1, 165239, Note_on_c, 9, 49, 0
1, 165390, Note_on_c, 9, 38, 63
1, 165479, Note_on_c, 9, 38, 0
1, 165599, Note_on_c, 9, 35, 0
1, 165615, Note_on_c, 9, 38, 105
1, 165615, Note_on_c, 9, 40, 95
1, 165839, Note_on_c, 9, 38, 0
1, 165839, Note_on_c, 9, 40, 0
1, 165855, Note_on_c, 9, 38, 68
1, 166079, Note_on_c, 9, 38, 0
1, 166095, Note_on_c, 9, 38, 66
1, 166095, Note_on_c, 9, 35, 102
1, 166319, Note_on_c, 9, 38, 0
1, 166319, Note_on_c, 9, 35, 0
1, 166350, Note_on_c, 9, 38, 61
1, 166439, Note_on_c, 9, 38, 0
1, 166590, Note_on_c, 9, 38, 102
1, 166590, Note_on_c, 9, 40, 104
1, 166679, Note_on_c, 9, 38, 0
1, 166679, Note_on_c, 9, 40, 0
1, 166815, Note_on_c, 9, 38, 70
1, 167039, Note_on_c, 9, 38, 0
1, 167055, Note_on_c, 9, 38, 59
1, 167070, Note_on_c, 9, 35, 106
1, 167279, Note_on_c, 9, 38, 0
1, 167310, Note_on_c, 9, 38, 62
1, 167399, Note_on_c, 9, 38, 0
1, 167519, Note_on_c, 9, 35, 0
1, 167550, Note_on_c, 9, 38, 102
1, 167550, Note_on_c, 9, 40, 100
1, 167804, Note_on_c, 9, 38, 0
1, 167804, Note_on_c, 9, 40, 0
1, 167805, Note_on_c, 9, 38, 72
1, 167999, Note_on_c, 9, 38, 0
1, 168060, Note_on_c, 9, 38, 64
1, 168075, Note_on_c, 9, 35, 102
1, 168239, Note_on_c, 9, 38, 0
1, 168270, Note_on_c, 9, 38, 62
1, 168359, Note_on_c, 9, 38, 0
1, 168479, Note_on_c, 9, 35, 0
1, 168495, Note_on_c, 9, 38, 105
1, 168495, Note_on_c, 9, 40, 100
1, 168764, Note_on_c, 9, 38, 0
1, 168764, Note_on_c, 9, 40, 0
1, 168765, Note_on_c, 9, 38, 65
1, 168959, Note_on_c, 9, 38, 0
1, 169035, Note_on_c, 9, 38, 72
1, 169035, Note_on_c, 9, 40, 62
1, 169050, Note_on_c, 9, 35, 102
1, 169079, Note_on_c, 9, 38, 0
1, 169079, Note_on_c, 9, 40, 0
1, 169275, Note_on_c, 9, 38, 68
1, 169319, Note_on_c, 9, 38, 0
1, 169439, Note_on_c, 9, 35, 0
1, 169500, Note_on_c, 9, 38, 100
1, 169500, Note_on_c, 9, 40, 102
1, 169724, Note_on_c, 9, 38, 0
1, 169724, Note_on_c, 9, 40, 0
1, 169725, Note_on_c, 9, 38, 66
1, 169919, Note_on_c, 9, 38, 0
1, 169935, Note_on_c, 9, 35, 102
1, 169950, Note_on_c, 9, 38, 67
1, 170039, Note_on_c, 9, 38, 0
1, 170159, Note_on_c, 9, 35, 0
1, 170175, Note_on_c, 9, 38, 62
1, 170399, Note_on_c, 9, 38, 0
1, 170415, Note_on_c, 9, 38, 102
1, 170415, Note_on_c, 9, 40, 100
1, 170639, Note_on_c, 9, 38, 0
1, 170639, Note_on_c, 9, 40, 0
1, 170655, Note_on_c, 9, 38, 68
1, 170879, Note_on_c, 9, 38, 0
1, 170895, Note_on_c, 9, 38, 68
1, 170895, Note_on_c, 9, 35, 101
1, 171119, Note_on_c, 9, 38, 0
1, 171119, Note_on_c, 9, 35, 0
1, 171120, Note_on_c, 9, 38, 60
1, 171359, Note_on_c, 9, 38, 0
1, 171360, Note_on_c, 9, 38, 100
1, 171360, Note_on_c, 9, 40, 100
1, 171599, Note_on_c, 9, 38, 0
1, 171599, Note_on_c, 9, 40, 0
1, 171615, Note_on_c, 9, 38, 77
1, 171839, Note_on_c, 9, 38, 0
1, 171855, Note_on_c, 9, 38, 70
1, 171885, Note_on_c, 9, 35, 103
1, 172079, Note_on_c, 9, 38, 0
1, 172079, Note_on_c, 9, 35, 0
1, 172095, Note_on_c, 9, 38, 66
1, 172319, Note_on_c, 9, 38, 0
1, 172335, Note_on_c, 9, 38, 102
1, 172335, Note_on_c, 9, 40, 102
1, 172559, Note_on_c, 9, 38, 0
1, 172559, Note_on_c, 9, 40, 0
1, 172590, Note_on_c, 9, 38, 71
1, 172679, Note_on_c, 9, 38, 0
1, 172800, Note_on_c, 9, 49, 81
1, 172829, Note_on_c, 9, 49, 0
1, 172830, Note_on_c, 9, 38, 68
1, 172845, Note_on_c, 9, 35, 105
1, 172919, Note_on_c, 9, 38, 0
1, 173039, Note_on_c, 9, 35, 0
1, 173070, Note_on_c, 9, 38, 72
1, 173159, Note_on_c, 9, 38, 0
1, 173295, Note_on_c, 9, 38, 102
1, 173295, Note_on_c, 9, 40, 102
1, 173519, Note_on_c, 9, 38, 0
1, 173519, Note_on_c, 9, 40, 0
1, 173535, Note_on_c, 9, 38, 70
1, 173759, Note_on_c, 9, 38, 0
1, 173760, Note_on_c, 9, 35, 104
1, 173775, Note_on_c, 9, 38, 68
1, 173999, Note_on_c, 9, 38, 0
1, 174000, Note_on_c, 9, 38, 64
1, 174239, Note_on_c, 9, 35, 0
1, 174239, Note_on_c, 9, 38, 0
1, 174240, Note_on_c, 9, 38, 100
1, 174254, Note_on_c, 9, 38, 0
1, 174255, Note_on_c, 9, 40, 96
1, 174479, Note_on_c, 9, 40, 0
1, 174480, Note_on_c, 9, 38, 75
1, 174719, Note_on_c, 9, 38, 0
1, 174720, Note_on_c, 9, 38, 70
1, 174765, Note_on_c, 9, 35, 99
1, 174959, Note_on_c, 9, 38, 0
1, 174959, Note_on_c, 9, 35, 0
1, 174960, Note_on_c, 9, 38, 66
1, 175199, Note_on_c, 9, 38, 0
1, 175200, Note_on_c, 9, 38, 100
1, 175200, Note_on_c, 9, 40, 98
1, 175439, Note_on_c, 9, 38, 0
1, 175439, Note_on_c, 9, 40, 0
1, 175440, Note_on_c, 9, 38, 70
1, 175679, Note_on_c, 9, 38, 0
1, 175680, Note_on_c, 9, 38, 70
1, 175710, Note_on_c, 9, 35, 102
1, 175919, Note_on_c, 9, 38, 0
1, 175920, Note_on_c, 9, 38, 66
1, 176159, Note_on_c, 9, 35, 0
1, 176159, Note_on_c, 9, 38, 0
1, 176160, Note_on_c, 9, 38, 102
1, 176174, Note_on_c, 9, 38, 0
1, 176175, Note_on_c, 9, 40, 100
1, 176399, Note_on_c, 9, 40, 0
1, 176415, Note_on_c, 9, 38, 67
1, 176639, Note_on_c, 9, 38, 0
1, 176640, Note_on_c, 9, 35, 101
1, 176655, Note_on_c, 9, 38, 77
1, 176879, Note_on_c, 9, 38, 0
1, 176895, Note_on_c, 9, 38, 67
1, 177119, Note_on_c, 9, 35, 0
1, 177119, Note_on_c, 9, 38, 0
1, 177135, Note_on_c, 9, 38, 96
1, 177135, Note_on_c, 9, 40, 93
1, 177359, Note_on_c, 9, 38, 0
1, 177359, Note_on_c, 9, 40, 0
1, 177375, Note_on_c, 9, 38, 70
1, 177599, Note_on_c, 9, 38, 0
1, 177630, Note_on_c, 9, 38, 74
1, 177645, Note_on_c, 9, 35, 104
1, 177839, Note_on_c, 9, 35, 0
1, 177884, Note_on_c, 9, 38, 0
1, 177885, Note_on_c, 9, 38, 61
1, 178079, Note_on_c, 9, 38, 0
1, 178125, Note_on_c, 9, 38, 104
1, 178125, Note_on_c, 9, 40, 96
1, 178319, Note_on_c, 9, 38, 0
1, 178319, Note_on_c, 9, 40, 0
1, 178350, Note_on_c, 9, 38, 70
1, 178439, Note_on_c, 9, 38, 0
1, 178575, Note_on_c, 9, 38, 77
1, 178590, Note_on_c, 9, 35, 102
1, 178799, Note_on_c, 9, 38, 0
1, 178830, Note_on_c, 9, 38, 66
1, 178919, Note_on_c, 9, 38, 0
1, 179039, Note_on_c, 9, 35, 0
1, 179055, Note_on_c, 9, 38, 98
1, 179055, Note_on_c, 9, 40, 96
1, 179279, Note_on_c, 9, 38, 0
1, 179279, Note_on_c, 9, 40, 0
1, 179295, Note_on_c, 9, 38, 73
1, 179519, Note_on_c, 9, 38, 0
1, 179520, Note_on_c, 9, 35, 104
1, 179535, Note_on_c, 9, 38, 70
1, 179759, Note_on_c, 9, 38, 0
1, 179775, Note_on_c, 9, 38, 63
1, 179999, Note_on_c, 9, 35, 0
1, 179999, Note_on_c, 9, 38, 0
1, 180000, Note_on_c, 9, 38, 96
1, 180014, Note_on_c, 9, 38, 0
1, 180015, Note_on_c, 9, 40, 95
1, 180239, Note_on_c, 9, 40, 0
1, 180255, Note_on_c, 9, 38, 67
1, 180479, Note_on_c, 9, 38, 0
1, 180480, Note_on_c, 9, 35, 104
1, 180495, Note_on_c, 9, 38, 70
1, 180495, Note_on_c, 9, 49, 79
1, 180764, Note_on_c, 9, 38, 0
1, 180764, Note_on_c, 9, 49, 0
1, 180765, Note_on_c, 9, 38, 63
1, 180959, Note_on_c, 9, 35, 0
1, 180959, Note_on_c, 9, 38, 0
1, 181020, Note_on_c, 9, 38, 96
1, 181034, Note_on_c, 9, 38, 0
1, 181035, Note_on_c, 9, 40, 92
1, 181289, Note_on_c, 9, 40, 0
1, 181290, Note_on_c, 9, 38, 69
1, 181319, Note_on_c, 9, 38, 0
1, 181545, Note_on_c, 9, 38, 71
1, 181545, Note_on_c, 9, 35, 104
1, 181799, Note_on_c, 9, 38, 0
1, 181815, Note_on_c, 9, 38, 66
1, 181859, Note_on_c, 9, 38, 0
1, 181919, Note_on_c, 9, 35, 0
1, 182070, Note_on_c, 9, 38, 102
1, 182070, Note_on_c, 9, 40, 98
1, 182339, Note_on_c, 9, 38, 0
1, 182339, Note_on_c, 9, 40, 0
1, 182340, Note_on_c, 9, 38, 70
1, 182399, Note_on_c, 9, 38, 0
1, 182610, Note_on_c, 9, 38, 73
1, 182610, Note_on_c, 9, 35, 103
1, 182639, Note_on_c, 9, 38, 0
1, 182639, Note_on_c, 9, 35, 0
1, 182895, Note_on_c, 9, 38, 63
1, 183119, Note_on_c, 9, 38, 0
1, 183150, Note_on_c, 9, 38, 98
1, 183150, Note_on_c, 9, 40, 95
1, 183239, Note_on_c, 9, 38, 0
1, 183239, Note_on_c, 9, 40, 0
1, 183420, Note_on_c, 9, 38, 73
1, 183599, Note_on_c, 9, 38, 0
1, 183660, Note_on_c, 9, 38, 63
1, 183705, Note_on_c, 9, 35, 102
1, 183719, Note_on_c, 9, 35, 0
1, 183839, Note_on_c, 9, 38, 0
1, 183960, Note_on_c, 9, 38, 63
1, 184199, Note_on_c, 9, 38, 0
1, 184215, Note_on_c, 9, 38, 102
1, 184215, Note_on_c, 9, 40, 98
1, 184259, Note_on_c, 9, 38, 0
1, 184259, Note_on_c, 9, 40, 0
1, 184485, Note_on_c, 9, 38, 68
1, 184739, Note_on_c, 9, 38, 0
1, 184770, Note_on_c, 9, 38, 63
1, 184770, Note_on_c, 9, 35, 103
1, 184799, Note_on_c, 9, 38, 0
1, 184799, Note_on_c, 9, 35, 0
1, 185025, Note_on_c, 9, 38, 62
1, 185039, Note_on_c, 9, 38, 0
1, 185280, Note_on_c, 9, 38, 98
1, 185294, Note_on_c, 9, 38, 0
1, 185295, Note_on_c, 9, 40, 96
1, 185519, Note_on_c, 9, 40, 0
1, 185520, Note_on_c, 9, 38, 69
1, 185759, Note_on_c, 9, 38, 0
1, 185775, Note_on_c, 9, 38, 61
1, 185775, Note_on_c, 9, 35, 101
1, 185999, Note_on_c, 9, 38, 0
1, 185999, Note_on_c, 9, 35, 0
1, 186015, Note_on_c, 9, 38, 126
1, 186015, Note_on_c, 9, 40, 126
1, 186239, Note_on_c, 9, 38, 0
1, 186239, Note_on_c, 9, 40, 0
1, 186240, Note_on_c, 9, 35, 112
1, 186479, Note_on_c, 9, 35, 0
1, 186480, Note_on_c, 9, 35, 102
1, 186719, Note_on_c, 9, 35, 0
1, 186720, Note_on_c, 9, 38, 126
1, 186720, Note_on_c, 9, 40, 126
1, 187199, Note_on_c, 9, 38, 0
1, 187199, Note_on_c, 9, 40, 0
1, 187920, Note_on_c, 9, 35, 118
1, 188159, Note_on_c, 9, 35, 0
1, 188160, Note_on_c, 9, 38, 126
1, 188160, Note_on_c, 9, 40, 126
1, 188639, Note_on_c, 9, 38, 0
1, 188639, Note_on_c, 9, 40, 0
1, 188655, Note_on_c, 9, 49, 108
1, 188670, Note_on_c, 9, 35, 115
1, 188879, Note_on_c, 9, 49, 0
1, 188910, Note_on_c, 9, 42, 80
1, 188999, Note_on_c, 9, 42, 0
1, 189119, Note_on_c, 9, 35, 0
1, 189150, Note_on_c, 9, 38, 126
1, 189164, Note_on_c, 9, 38, 0
1, 189165, Note_on_c, 9, 42, 80
1, 189359, Note_on_c, 9, 42, 0
1, 189390, Note_on_c, 9, 42, 89
1, 189479, Note_on_c, 9, 42, 0
1, 189615, Note_on_c, 9, 35, 112
1, 189630, Note_on_c, 9, 42, 87
1, 189719, Note_on_c, 9, 42, 0
1, 189839, Note_on_c, 9, 35, 0
1, 189870, Note_on_c, 9, 42, 86
1, 189959, Note_on_c, 9, 42, 0
1, 190125, Note_on_c, 9, 38, 119
1, 190125, Note_on_c, 9, 42, 90
1, 190319, Note_on_c, 9, 38, 0
1, 190319, Note_on_c, 9, 42, 0
1, 190350, Note_on_c, 9, 42, 82
1, 190439, Note_on_c, 9, 42, 0
1, 190590, Note_on_c, 9, 42, 83
1, 190590, Note_on_c, 9, 35, 112
1, 190679, Note_on_c, 9, 42, 0
1, 190830, Note_on_c, 9, 42, 76
1, 190919, Note_on_c, 9, 42, 0
1, 191039, Note_on_c, 9, 35, 0
1, 191055, Note_on_c, 9, 42, 87
1, 191069, Note_on_c, 9, 42, 0
1, 191070, Note_on_c, 9, 38, 111
1, 191159, Note_on_c, 9, 38, 0
1, 191310, Note_on_c, 9, 42, 77
1, 191399, Note_on_c, 9, 42, 0
1, 191535, Note_on_c, 9, 35, 112
1, 191550, Note_on_c, 9, 42, 83
1, 191759, Note_on_c, 9, 35, 0
1, 191804, Note_on_c, 9, 42, 0
1, 191805, Note_on_c, 9, 42, 80
1, 191999, Note_on_c, 9, 42, 0
1, 192045, Note_on_c, 9, 38, 111
1, 192045, Note_on_c, 9, 42, 87
1, 192239, Note_on_c, 9, 38, 0
1, 192239, Note_on_c, 9, 42, 0
1, 192270, Note_on_c, 9, 42, 86
1, 192359, Note_on_c, 9, 42, 0
1, 192510, Note_on_c, 9, 42, 86
1, 192510, Note_on_c, 9, 35, 110
1, 192599, Note_on_c, 9, 42, 0
1, 192750, Note_on_c, 9, 42, 76
1, 192839, Note_on_c, 9, 42, 0
1, 192959, Note_on_c, 9, 35, 0
1, 192975, Note_on_c, 9, 38, 115
1, 192989, Note_on_c, 9, 38, 0
1, 192990, Note_on_c, 9, 42, 89
1, 193079, Note_on_c, 9, 42, 0
1, 193230, Note_on_c, 9, 42, 76
1, 193319, Note_on_c, 9, 42, 0
1, 193470, Note_on_c, 9, 42, 72
1, 193470, Note_on_c, 9, 35, 109
1, 193559, Note_on_c, 9, 42, 0
1, 193710, Note_on_c, 9, 42, 66
1, 193799, Note_on_c, 9, 42, 0
1, 193919, Note_on_c, 9, 35, 0
1, 193935, Note_on_c, 9, 38, 113
1, 193949, Note_on_c, 9, 38, 0
1, 193950, Note_on_c, 9, 42, 79
1, 194039, Note_on_c, 9, 42, 0
1, 194175, Note_on_c, 9, 42, 80
1, 194399, Note_on_c, 9, 42, 0
1, 194415, Note_on_c, 9, 42, 82
1, 194415, Note_on_c, 9, 35, 108
1, 194639, Note_on_c, 9, 42, 0
1, 194639, Note_on_c, 9, 35, 0
1, 194655, Note_on_c, 9, 42, 82
1, 194879, Note_on_c, 9, 42, 0
1, 194895, Note_on_c, 9, 38, 113
1, 194895, Note_on_c, 9, 42, 84
1, 195119, Note_on_c, 9, 38, 0
1, 195119, Note_on_c, 9, 42, 0
1, 195150, Note_on_c, 9, 42, 77
1, 195239, Note_on_c, 9, 42, 0
1, 195390, Note_on_c, 9, 42, 83
1, 195390, Note_on_c, 9, 35, 106
1, 195479, Note_on_c, 9, 42, 0
1, 195630, Note_on_c, 9, 42, 78
1, 195719, Note_on_c, 9, 42, 0
1, 195839, Note_on_c, 9, 35, 0
1, 195855, Note_on_c, 9, 38, 113
1, 195855, Note_on_c, 9, 42, 78
1, 196079, Note_on_c, 9, 38, 0
1, 196079, Note_on_c, 9, 42, 0
1, 196095, Note_on_c, 9, 42, 78
1, 196319, Note_on_c, 9, 42, 0
1, 196335, Note_on_c, 9, 42, 78
1, 196335, Note_on_c, 9, 35, 112
1, 196559, Note_on_c, 9, 42, 0
1, 196559, Note_on_c, 9, 35, 0
1, 196575, Note_on_c, 9, 42, 76
1, 196799, Note_on_c, 9, 42, 0
1, 196800, Note_on_c, 9, 42, 78
1, 196814, Note_on_c, 9, 42, 0
1, 196815, Note_on_c, 9, 38, 111
1, 197039, Note_on_c, 9, 38, 0
1, 197040, Note_on_c, 9, 42, 72
1, 197279, Note_on_c, 9, 42, 0
1, 197280, Note_on_c, 9, 42, 82
1, 197295, Note_on_c, 9, 35, 111
1, 197519, Note_on_c, 9, 42, 0
1, 197519, Note_on_c, 9, 35, 0
1, 197520, Note_on_c, 9, 42, 76
1, 197759, Note_on_c, 9, 42, 0
1, 197760, Note_on_c, 9, 42, 79
1, 197774, Note_on_c, 9, 42, 0
1, 197775, Note_on_c, 9, 38, 109
1, 197999, Note_on_c, 9, 38, 0
1, 198015, Note_on_c, 9, 42, 77
1, 198239, Note_on_c, 9, 42, 0
1, 198255, Note_on_c, 9, 42, 82
1, 198255, Note_on_c, 9, 35, 109
1, 198479, Note_on_c, 9, 42, 0
1, 198479, Note_on_c, 9, 35, 0
1, 198495, Note_on_c, 9, 42, 73
1, 198719, Note_on_c, 9, 42, 0
1, 198735, Note_on_c, 9, 38, 111
1, 198735, Note_on_c, 9, 42, 77
1, 198959, Note_on_c, 9, 38, 0
1, 198959, Note_on_c, 9, 42, 0
1, 198975, Note_on_c, 9, 42, 78
1, 199199, Note_on_c, 9, 42, 0
1, 199215, Note_on_c, 9, 42, 83
1, 199215, Note_on_c, 9, 35, 110
1, 199439, Note_on_c, 9, 42, 0
1, 199439, Note_on_c, 9, 35, 0
1, 199470, Note_on_c, 9, 42, 79
1, 199559, Note_on_c, 9, 42, 0
1, 199695, Note_on_c, 9, 38, 111
1, 199709, Note_on_c, 9, 38, 0
1, 199710, Note_on_c, 9, 42, 84
1, 199799, Note_on_c, 9, 42, 0
1, 199950, Note_on_c, 9, 42, 77
1, 200039, Note_on_c, 9, 42, 0
1, 200205, Note_on_c, 9, 42, 79
1, 200205, Note_on_c, 9, 35, 109
1, 200399, Note_on_c, 9, 42, 0
1, 200399, Note_on_c, 9, 35, 0
1, 200430, Note_on_c, 9, 42, 77
1, 200519, Note_on_c, 9, 42, 0
1, 200655, Note_on_c, 9, 38, 107
1, 200655, Note_on_c, 9, 42, 79
1, 200879, Note_on_c, 9, 38, 0
1, 200879, Note_on_c, 9, 42, 0
1, 200895, Note_on_c, 9, 42, 73
1, 201119, Note_on_c, 9, 42, 0
1, 201135, Note_on_c, 9, 42, 77
1, 201150, Note_on_c, 9, 35, 112
1, 201359, Note_on_c, 9, 42, 0
1, 201375, Note_on_c, 9, 42, 72
1, 201599, Note_on_c, 9, 35, 0
1, 201599, Note_on_c, 9, 42, 0
1, 201615, Note_on_c, 9, 38, 113
1, 201615, Note_on_c, 9, 42, 82
1, 201839, Note_on_c, 9, 38, 0
1, 201839, Note_on_c, 9, 42, 0
1, 201855, Note_on_c, 9, 42, 75
1, 202079, Note_on_c, 9, 42, 0
1, 202095, Note_on_c, 9, 42, 75
1, 202095, Note_on_c, 9, 35, 110
1, 202319, Note_on_c, 9, 42, 0
1, 202319, Note_on_c, 9, 35, 0
1, 202335, Note_on_c, 9, 42, 79
1, 202559, Note_on_c, 9, 42, 0
1, 202575, Note_on_c, 9, 38, 113
1, 202575, Note_on_c, 9, 42, 80
1, 202799, Note_on_c, 9, 38, 0
1, 202799, Note_on_c, 9, 42, 0
1, 202830, Note_on_c, 9, 42, 80
1, 202919, Note_on_c, 9, 42, 0
1, 203055, Note_on_c, 9, 49, 96
1, 203070, Note_on_c, 9, 35, 109
1, 203279, Note_on_c, 9, 49, 0
1, 203519, Note_on_c, 9, 35, 0
1, 203550, Note_on_c, 9, 38, 109
1, 203550, Note_on_c, 9, 57, 92
1, 203999, Note_on_c, 9, 38, 0
1, 203999, Note_on_c, 9, 57, 0
1, 204030, Note_on_c, 9, 49, 83
1, 204030, Note_on_c, 9, 35, 110
1, 204119, Note_on_c, 9, 49, 0
1, 204270, Note_on_c, 9, 42, 71
1, 204359, Note_on_c, 9, 42, 0
1, 204479, Note_on_c, 9, 35, 0
1, 204495, Note_on_c, 9, 42, 89
1, 204524, Note_on_c, 9, 42, 0
1, 204525, Note_on_c, 9, 38, 105
1, 204719, Note_on_c, 9, 38, 0
1, 204750, Note_on_c, 9, 42, 57
1, 204839, Note_on_c, 9, 42, 0
1, 204975, Note_on_c, 9, 42, 61
1, 204990, Note_on_c, 9, 35, 108
1, 205199, Note_on_c, 9, 42, 0
1, 205215, Note_on_c, 9, 42, 62
1, 205439, Note_on_c, 9, 35, 0
1, 205439, Note_on_c, 9, 42, 0
1, 205440, Note_on_c, 9, 42, 73
1, 205454, Note_on_c, 9, 42, 0
1, 205455, Note_on_c, 9, 38, 113
1, 205679, Note_on_c, 9, 38, 0
1, 205695, Note_on_c, 9, 42, 72
1, 205919, Note_on_c, 9, 42, 0
1, 205935, Note_on_c, 9, 42, 76
1, 205935, Note_on_c, 9, 35, 107
1, 206159, Note_on_c, 9, 42, 0
1, 206159, Note_on_c, 9, 35, 0
1, 206175, Note_on_c, 9, 42, 72
1, 206399, Note_on_c, 9, 42, 0
1, 206415, Note_on_c, 9, 38, 111
1, 206415, Note_on_c, 9, 42, 89
1, 206639, Note_on_c, 9, 38, 0
1, 206639, Note_on_c, 9, 42, 0
1, 206670, Note_on_c, 9, 42, 86
1, 206759, Note_on_c, 9, 42, 0
1, 206910, Note_on_c, 9, 42, 83
1, 206925, Note_on_c, 9, 35, 111
1, 206999, Note_on_c, 9, 42, 0
1, 207119, Note_on_c, 9, 35, 0
1, 207135, Note_on_c, 9, 42, 77
1, 207359, Note_on_c, 9, 42, 0
1, 207375, Note_on_c, 9, 42, 84
1, 207389, Note_on_c, 9, 42, 0
1, 207390, Note_on_c, 9, 38, 111
1, 207479, Note_on_c, 9, 38, 0
1, 207615, Note_on_c, 9, 42, 83
1, 207839, Note_on_c, 9, 42, 0
1, 207855, Note_on_c, 9, 42, 86
1, 207855, Note_on_c, 9, 35, 111
1, 208079, Note_on_c, 9, 42, 0
1, 208079, Note_on_c, 9, 35, 0
1, 208095, Note_on_c, 9, 42, 78
1, 208319, Note_on_c, 9, 42, 0
1, 208335, Note_on_c, 9, 38, 109
1, 208335, Note_on_c, 9, 42, 83
1, 208559, Note_on_c, 9, 38, 0
1, 208559, Note_on_c, 9, 42, 0
1, 208575, Note_on_c, 9, 42, 86
1, 208799, Note_on_c, 9, 42, 0
1, 208815, Note_on_c, 9, 35, 106
1, 208830, Note_on_c, 9, 42, 83
1, 208919, Note_on_c, 9, 42, 0
1, 209039, Note_on_c, 9, 35, 0
1, 209055, Note_on_c, 9, 42, 78
1, 209279, Note_on_c, 9, 42, 0
1, 209295, Note_on_c, 9, 38, 111
1, 209295, Note_on_c, 9, 42, 78
1, 209519, Note_on_c, 9, 38, 0
1, 209519, Note_on_c, 9, 42, 0
1, 209520, Note_on_c, 9, 42, 83
1, 209759, Note_on_c, 9, 42, 0
1, 209760, Note_on_c, 9, 42, 79
1, 209760, Note_on_c, 9, 35, 108
1, 209999, Note_on_c, 9, 42, 0
1, 210015, Note_on_c, 9, 42, 78
1, 210239, Note_on_c, 9, 35, 0
1, 210239, Note_on_c, 9, 42, 0
1, 210255, Note_on_c, 9, 38, 111
1, 210255, Note_on_c, 9, 42, 80
1, 210479, Note_on_c, 9, 38, 0
1, 210479, Note_on_c, 9, 42, 0
1, 210495, Note_on_c, 9, 42, 79
1, 210719, Note_on_c, 9, 42, 0
1, 210735, Note_on_c, 9, 42, 77
1, 210750, Note_on_c, 9, 35, 106
1, 210959, Note_on_c, 9, 42, 0
1, 210975, Note_on_c, 9, 42, 79
1, 211199, Note_on_c, 9, 35, 0
1, 211199, Note_on_c, 9, 42, 0
1, 211215, Note_on_c, 9, 42, 80
1, 211229, Note_on_c, 9, 42, 0
1, 211230, Note_on_c, 9, 38, 111
1, 211319, Note_on_c, 9, 38, 0
1, 211455, Note_on_c, 9, 42, 76
1, 211679, Note_on_c, 9, 42, 0
1, 211695, Note_on_c, 9, 42, 76
1, 211710, Note_on_c, 9, 35, 107
1, 211919, Note_on_c, 9, 42, 0
1, 211935, Note_on_c, 9, 42, 73
1, 212159, Note_on_c, 9, 35, 0
1, 212159, Note_on_c, 9, 42, 0
1, 212175, Note_on_c, 9, 38, 109
1, 212175, Note_on_c, 9, 42, 72
1, 212399, Note_on_c, 9, 38, 0
1, 212399, Note_on_c, 9, 42, 0
1, 212415, Note_on_c, 9, 42, 78
1, 212639, Note_on_c, 9, 42, 0
1, 212655, Note_on_c, 9, 42, 83
1, 212670, Note_on_c, 9, 35, 109
1, 212879, Note_on_c, 9, 42, 0
1, 212895, Note_on_c, 9, 42, 71
1, 213119, Note_on_c, 9, 35, 0
1, 213119, Note_on_c, 9, 42, 0
1, 213135, Note_on_c, 9, 38, 109
1, 213135, Note_on_c, 9, 42, 76
1, 213359, Note_on_c, 9, 38, 0
1, 213359, Note_on_c, 9, 42, 0
1, 213375, Note_on_c, 9, 42, 72
1, 213599, Note_on_c, 9, 42, 0
1, 213615, Note_on_c, 9, 42, 71
1, 213615, Note_on_c, 9, 35, 110
1, 213839, Note_on_c, 9, 42, 0
1, 213839, Note_on_c, 9, 35, 0
1, 213855, Note_on_c, 9, 42, 75
1, 214079, Note_on_c, 9, 42, 0
1, 214095, Note_on_c, 9, 38, 109
1, 214095, Note_on_c, 9, 42, 77
1, 214319, Note_on_c, 9, 38, 0
1, 214319, Note_on_c, 9, 42, 0
1, 214335, Note_on_c, 9, 42, 76
1, 214559, Note_on_c, 9, 42, 0
1, 214575, Note_on_c, 9, 42, 72
1, 214575, Note_on_c, 9, 35, 106
1, 214799, Note_on_c, 9, 42, 0
1, 214799, Note_on_c, 9, 35, 0
1, 214830, Note_on_c, 9, 42, 84
1, 214919, Note_on_c, 9, 42, 0
1, 215070, Note_on_c, 9, 38, 111
1, 215070, Note_on_c, 9, 42, 77
1, 215159, Note_on_c, 9, 38, 0
1, 215159, Note_on_c, 9, 42, 0
1, 215310, Note_on_c, 9, 42, 76
1, 215399, Note_on_c, 9, 42, 0
1, 215535, Note_on_c, 9, 42, 77
1, 215535, Note_on_c, 9, 35, 108
1, 215759, Note_on_c, 9, 42, 0
1, 215759, Note_on_c, 9, 35, 0
1, 215790, Note_on_c, 9, 42, 79
1, 215879, Note_on_c, 9, 42, 0
1, 216030, Note_on_c, 9, 38, 109
1, 216030, Note_on_c, 9, 42, 79
1, 216119, Note_on_c, 9, 38, 0
1, 216119, Note_on_c, 9, 42, 0
1, 216255, Note_on_c, 9, 42, 76
1, 216479, Note_on_c, 9, 42, 0
1, 216495, Note_on_c, 9, 42, 76
1, 216495, Note_on_c, 9, 35, 108
1, 216719, Note_on_c, 9, 42, 0
1, 216719, Note_on_c, 9, 35, 0
1, 216750, Note_on_c, 9, 42, 72
1, 216839, Note_on_c, 9, 42, 0
1, 216990, Note_on_c, 9, 38, 122
1, 216990, Note_on_c, 9, 42, 76
1, 217079, Note_on_c, 9, 38, 0
1, 217079, Note_on_c, 9, 42, 0
1, 217215, Note_on_c, 9, 42, 75
1, 217439, Note_on_c, 9, 42, 0
1, 217455, Note_on_c, 9, 42, 80
1, 217469, Note_on_c, 9, 42, 0
1, 217470, Note_on_c, 9, 41, 72
1, 217470, Note_on_c, 9, 38, 125
1, 217470, Note_on_c, 9, 47, 89
1, 217470, Note_on_c, 9, 35, 109
1, 217559, Note_on_c, 9, 41, 0
1, 217559, Note_on_c, 9, 38, 0
1, 217559, Note_on_c, 9, 47, 0
1, 217695, Note_on_c, 9, 41, 51
1, 217695, Note_on_c, 9, 47, 81
1, 217695, Note_on_c, 9, 42, 77
1, 217709, Note_on_c, 9, 41, 0
1, 217709, Note_on_c, 9, 47, 0
1, 217709, Note_on_c, 9, 42, 0
1, 217710, Note_on_c, 9, 38, 111
1, 217799, Note_on_c, 9, 38, 0
1, 217919, Note_on_c, 9, 35, 0
1, 217920, Note_on_c, 9, 42, 83
1, 217934, Note_on_c, 9, 42, 0
1, 217935, Note_on_c, 9, 41, 45
1, 217935, Note_on_c, 9, 38, 93
1, 217935, Note_on_c, 9, 47, 60
1, 218159, Note_on_c, 9, 41, 0
1, 218159, Note_on_c, 9, 38, 0
1, 218159, Note_on_c, 9, 47, 0
1, 218160, Note_on_c, 9, 42, 76
1, 218174, Note_on_c, 9, 42, 0
1, 218175, Note_on_c, 9, 41, 62
1, 218175, Note_on_c, 9, 38, 95
1, 218175, Note_on_c, 9, 47, 83
1, 218399, Note_on_c, 9, 41, 0
1, 218399, Note_on_c, 9, 38, 0
1, 218399, Note_on_c, 9, 47, 0
1, 218400, Note_on_c, 9, 38, 125
1, 218400, Note_on_c, 9, 42, 72
1, 218400, Note_on_c, 9, 35, 112
1, 218414, Note_on_c, 9, 38, 0
1, 218415, Note_on_c, 9, 41, 60
1, 218415, Note_on_c, 9, 47, 85
1, 218639, Note_on_c, 9, 42, 0
1, 218639, Note_on_c, 9, 41, 0
1, 218639, Note_on_c, 9, 47, 0
1, 218670, Note_on_c, 9, 38, 99
1, 218684, Note_on_c, 9, 38, 0
1, 218685, Note_on_c, 9, 41, 73
1, 218685, Note_on_c, 9, 47, 92
1, 218685, Note_on_c, 9, 42, 89
1, 218879, Note_on_c, 9, 35, 0
1, 218879, Note_on_c, 9, 41, 0
1, 218879, Note_on_c, 9, 47, 0
1, 218879, Note_on_c, 9, 42, 0
1, 218940, Note_on_c, 9, 41, 81
1, 218940, Note_on_c, 9, 38, 99
1, 218940, Note_on_c, 9, 47, 95
1, 218940, Note_on_c, 9, 42, 86
1, 219164, Note_on_c, 9, 41, 0
1, 219164, Note_on_c, 9, 38, 0
1, 219164, Note_on_c, 9, 47, 0
1, 219164, Note_on_c, 9, 42, 0
1, 219165, Note_on_c, 9, 42, 106
1, 219179, Note_on_c, 9, 42, 0
1, 219180, Note_on_c, 9, 41, 79
1, 219180, Note_on_c, 9, 38, 122
1, 219180, Note_on_c, 9, 47, 100
1, 219359, Note_on_c, 9, 41, 0
1, 219359, Note_on_c, 9, 38, 0
1, 219359, Note_on_c, 9, 47, 0
1, 219390, Note_on_c, 9, 35, 108
1, 219405, Note_on_c, 9, 49, 102
1, 219644, Note_on_c, 9, 49, 0
1, 219645, Note_on_c, 9, 42, 84
1, 219839, Note_on_c, 9, 35, 0
1, 219839, Note_on_c, 9, 42, 0
1, 219855, Note_on_c, 9, 38, 115
1, 219855, Note_on_c, 9, 42, 78
1, 220079, Note_on_c, 9, 38, 0
1, 220079, Note_on_c, 9, 42, 0
1, 220095, Note_on_c, 9, 42, 61
1, 220319, Note_on_c, 9, 42, 0
1, 220335, Note_on_c, 9, 42, 83
1, 220350, Note_on_c, 9, 35, 111
1, 220559, Note_on_c, 9, 42, 0
1, 220590, Note_on_c, 9, 42, 78
1, 220679, Note_on_c, 9, 42, 0
1, 220799, Note_on_c, 9, 35, 0
1, 220815, Note_on_c, 9, 42, 78
1, 220829, Note_on_c, 9, 42, 0
1, 220830, Note_on_c, 9, 38, 107
1, 220919, Note_on_c, 9, 38, 0
1, 221055, Note_on_c, 9, 42, 75
1, 221279, Note_on_c, 9, 42, 0
1, 221295, Note_on_c, 9, 42, 82
1, 221310, Note_on_c, 9, 35, 111
1, 221519, Note_on_c, 9, 42, 0
1, 221520, Note_on_c, 9, 42, 76
1, 221759, Note_on_c, 9, 35, 0
1, 221759, Note_on_c, 9, 42, 0
1, 221760, Note_on_c, 9, 38, 113
1, 221760, Note_on_c, 9, 42, 87
1, 221999, Note_on_c, 9, 38, 0
1, 221999, Note_on_c, 9, 42, 0
1, 222015, Note_on_c, 9, 42, 72
1, 222239, Note_on_c, 9, 42, 0
1, 222270, Note_on_c, 9, 42, 78
1, 222285, Note_on_c, 9, 35, 108
1, 222359, Note_on_c, 9, 42, 0
1, 222479, Note_on_c, 9, 35, 0
1, 222495, Note_on_c, 9, 42, 72
1, 222719, Note_on_c, 9, 42, 0
1, 222720, Note_on_c, 9, 38, 111
1, 222720, Note_on_c, 9, 42, 77
1, 222959, Note_on_c, 9, 38, 0
1, 222959, Note_on_c, 9, 42, 0
1, 223005, Note_on_c, 9, 42, 69
1, 223199, Note_on_c, 9, 42, 0
1, 223275, Note_on_c, 9, 49, 91
1, 223275, Note_on_c, 9, 35, 111
1, 223484, Note_on_c, 9, 49, 0
1, 223485, Note_on_c, 9, 42, 54
1, 223679, Note_on_c, 9, 35, 0
1, 223679, Note_on_c, 9, 42, 0
1, 223710, Note_on_c, 9, 38, 109
1, 223710, Note_on_c, 9, 42, 78
1, 223799, Note_on_c, 9, 38, 0
1, 223799, Note_on_c, 9, 42, 0
1, 223935, Note_on_c, 9, 42, 68
1, 224159, Note_on_c, 9, 42, 0
1, 224160, Note_on_c, 9, 42, 76
1, 224160, Note_on_c, 9, 35, 105
1, 224399, Note_on_c, 9, 42, 0
1, 224400, Note_on_c, 9, 42, 63
1, 224639, Note_on_c, 9, 35, 0
1, 224639, Note_on_c, 9, 42, 0
1, 224640, Note_on_c, 9, 42, 62
1, 224654, Note_on_c, 9, 42, 0
1, 224655, Note_on_c, 9, 38, 111
1, 224924, Note_on_c, 9, 38, 0
1, 224925, Note_on_c, 9, 42, 67
1, 225119, Note_on_c, 9, 42, 0
1, 225180, Note_on_c, 9, 42, 73
1, 225180, Note_on_c, 9, 35, 105
1, 225359, Note_on_c, 9, 42, 0
1, 225359, Note_on_c, 9, 35, 0
1, 225375, Note_on_c, 9, 42, 66
1, 225584, Note_on_c, 9, 42, 0
1, 225585, Note_on_c, 9, 42, 67
1, 225599, Note_on_c, 9, 42, 0
1, 225600, Note_on_c, 9, 38, 111
1, 225839, Note_on_c, 9, 38, 0
1, 225855, Note_on_c, 9, 42, 73
1, 226079, Note_on_c, 9, 42, 0
1, 226095, Note_on_c, 9, 42, 72
1, 226110, Note_on_c, 9, 35, 107
1, 226319, Note_on_c, 9, 42, 0
1, 226335, Note_on_c, 9, 42, 73
1, 226559, Note_on_c, 9, 35, 0
1, 226559, Note_on_c, 9, 42, 0
1, 226560, Note_on_c, 9, 38, 111
1, 226560, Note_on_c, 9, 42, 73
1, 226799, Note_on_c, 9, 38, 0
1, 226799, Note_on_c, 9, 42, 0
1, 226815, Note_on_c, 9, 42, 79
1, 227039, Note_on_c, 9, 42, 0
1, 227055, Note_on_c, 9, 49, 77
1, 227070, Note_on_c, 9, 35, 104
1, 227279, Note_on_c, 9, 49, 0
1, 227295, Note_on_c, 9, 42, 94
1, 227519, Note_on_c, 9, 35, 0
1, 227519, Note_on_c, 9, 42, 0
1, 227520, Note_on_c, 9, 38, 109
1, 227520, Note_on_c, 9, 42, 76
1, 227759, Note_on_c, 9, 38, 0
1, 227759, Note_on_c, 9, 42, 0
1, 227775, Note_on_c, 9, 42, 72
1, 227999, Note_on_c, 9, 42, 0
1, 228015, Note_on_c, 9, 42, 76
1, 228015, Note_on_c, 9, 35, 104
1, 228239, Note_on_c, 9, 42, 0
1, 228239, Note_on_c, 9, 35, 0
1, 228255, Note_on_c, 9, 42, 72
1, 228479, Note_on_c, 9, 42, 0
1, 228495, Note_on_c, 9, 38, 113
1, 228495, Note_on_c, 9, 42, 70
1, 228719, Note_on_c, 9, 38, 0
1, 228719, Note_on_c, 9, 42, 0
1, 228750, Note_on_c, 9, 42, 72
1, 228839, Note_on_c, 9, 42, 0
1, 228990, Note_on_c, 9, 42, 70
1, 228990, Note_on_c, 9, 35, 111
1, 229079, Note_on_c, 9, 42, 0
1, 229215, Note_on_c, 9, 42, 72
1, 229439, Note_on_c, 9, 35, 0
1, 229439, Note_on_c, 9, 42, 0
1, 229440, Note_on_c, 9, 38, 111
1, 229440, Note_on_c, 9, 42, 73
1, 229679, Note_on_c, 9, 38, 0
1, 229679, Note_on_c, 9, 42, 0
1, 229680, Note_on_c, 9, 42, 69
1, 229919, Note_on_c, 9, 42, 0
1, 229920, Note_on_c, 9, 42, 73
1, 229935, Note_on_c, 9, 35, 106
1, 230159, Note_on_c, 9, 42, 0
1, 230159, Note_on_c, 9, 35, 0
1, 230160, Note_on_c, 9, 42, 71
1, 230399, Note_on_c, 9, 42, 0
1, 230400, Note_on_c, 9, 38, 109
1, 230400, Note_on_c, 9, 42, 72
1, 230639, Note_on_c, 9, 38, 0
1, 230639, Note_on_c, 9, 42, 0
1, 230670, Note_on_c, 9, 42, 75
1, 230759, Note_on_c, 9, 42, 0
1, 230940, Note_on_c, 9, 49, 83
1, 230940, Note_on_c, 9, 35, 107
1, 231119, Note_on_c, 9, 49, 0
1, 231119, Note_on_c, 9, 35, 0
1, 231150, Note_on_c, 9, 42, 72
1, 231239, Note_on_c, 9, 42, 0
1, 231360, Note_on_c, 9, 38, 107
1, 231360, Note_on_c, 9, 42, 72
1, 231599, Note_on_c, 9, 38, 0
1, 231599, Note_on_c, 9, 42, 0
1, 231600, Note_on_c, 9, 42, 71
1, 231839, Note_on_c, 9, 42, 0
1, 231855, Note_on_c, 9, 42, 69
1, 231855, Note_on_c, 9, 35, 107
1, 232079, Note_on_c, 9, 42, 0
1, 232079, Note_on_c, 9, 35, 0
1, 232095, Note_on_c, 9, 42, 67
1, 232319, Note_on_c, 9, 42, 0
1, 232320, Note_on_c, 9, 38, 109
1, 232320, Note_on_c, 9, 42, 72
1, 232559, Note_on_c, 9, 38, 0
1, 232559, Note_on_c, 9, 42, 0
1, 232575, Note_on_c, 9, 42, 71
1, 232799, Note_on_c, 9, 42, 0
1, 232815, Note_on_c, 9, 35, 111
1, 232830, Note_on_c, 9, 42, 57
1, 232919, Note_on_c, 9, 42, 0
1, 233039, Note_on_c, 9, 35, 0
1, 233055, Note_on_c, 9, 42, 70
1, 233279, Note_on_c, 9, 42, 0
1, 233280, Note_on_c, 9, 38, 122
1, 233280, Note_on_c, 9, 42, 70
1, 233519, Note_on_c, 9, 38, 0
1, 233519, Note_on_c, 9, 42, 0
1, 233535, Note_on_c, 9, 42, 72
1, 233759, Note_on_c, 9, 42, 0
1, 233760, Note_on_c, 9, 41, 59
1, 233760, Note_on_c, 9, 38, 107
1, 233760, Note_on_c, 9, 47, 73
1, 233774, Note_on_c, 9, 41, 0
1, 233774, Note_on_c, 9, 38, 0
1, 233774, Note_on_c, 9, 47, 0
1, 233775, Note_on_c, 9, 42, 73
1, 233999, Note_on_c, 9, 42, 0
1, 234000, Note_on_c, 9, 41, 61
1, 234000, Note_on_c, 9, 38, 102
1, 234000, Note_on_c, 9, 47, 81
1, 234029, Note_on_c, 9, 41, 0
1, 234029, Note_on_c, 9, 38, 0
1, 234029, Note_on_c, 9, 47, 0
1, 234030, Note_on_c, 9, 42, 70
1, 234119, Note_on_c, 9, 42, 0
1, 234240, Note_on_c, 9, 41, 67
1, 234240, Note_on_c, 9, 38, 126
1, 234240, Note_on_c, 9, 47, 89
1, 234269, Note_on_c, 9, 41, 0
1, 234269, Note_on_c, 9, 38, 0
1, 234269, Note_on_c, 9, 47, 0
1, 234270, Note_on_c, 9, 42, 78
1, 234359, Note_on_c, 9, 42, 0
1, 234495, Note_on_c, 9, 41, 89
1, 234495, Note_on_c, 9, 38, 126
1, 234495, Note_on_c, 9, 47, 100
1, 234524, Note_on_c, 9, 41, 0
1, 234524, Note_on_c, 9, 38, 0
1, 234524, Note_on_c, 9, 47, 0
1, 234525, Note_on_c, 9, 42, 84
1, 234719, Note_on_c, 9, 42, 0
1, 234750, Note_on_c, 9, 49, 105
1, 234765, Note_on_c, 9, 35, 111
1, 234959, Note_on_c, 9, 35, 0
1, 235004, Note_on_c, 9, 49, 0
1, 235005, Note_on_c, 9, 42, 78
1, 235199, Note_on_c, 9, 42, 0
1, 235200, Note_on_c, 9, 38, 126
1, 235214, Note_on_c, 9, 38, 0
1, 235215, Note_on_c, 9, 42, 79
1, 235439, Note_on_c, 9, 42, 0
1, 235455, Note_on_c, 9, 42, 73
1, 235679, Note_on_c, 9, 42, 0
1, 235695, Note_on_c, 9, 42, 73
1, 235695, Note_on_c, 9, 35, 108
1, 235919, Note_on_c, 9, 42, 0
1, 235919, Note_on_c, 9, 35, 0
1, 235935, Note_on_c, 9, 42, 59
1, 236159, Note_on_c, 9, 42, 0
1, 236175, Note_on_c, 9, 38, 115
1, 236175, Note_on_c, 9, 42, 75
1, 236399, Note_on_c, 9, 38, 0
1, 236399, Note_on_c, 9, 42, 0
1, 236415, Note_on_c, 9, 42, 71
1, 236639, Note_on_c, 9, 42, 0
1, 236655, Note_on_c, 9, 42, 73
1, 236670, Note_on_c, 9, 35, 109
1, 236879, Note_on_c, 9, 42, 0
1, 236895, Note_on_c, 9, 42, 71
1, 237119, Note_on_c, 9, 35, 0
1, 237119, Note_on_c, 9, 42, 0
1, 237120, Note_on_c, 9, 42, 75
1, 237134, Note_on_c, 9, 42, 0
1, 237135, Note_on_c, 9, 38, 113
1, 237359, Note_on_c, 9, 38, 0
1, 237375, Note_on_c, 9, 42, 72
1, 237599, Note_on_c, 9, 42, 0
1, 237615, Note_on_c, 9, 42, 68
1, 237630, Note_on_c, 9, 35, 110
1, 237839, Note_on_c, 9, 42, 0
1, 237855, Note_on_c, 9, 42, 72
1, 238079, Note_on_c, 9, 35, 0
1, 238079, Note_on_c, 9, 42, 0
1, 238080, Note_on_c, 9, 38, 113
1, 238080, Note_on_c, 9, 42, 72
1, 238319, Note_on_c, 9, 38, 0
1, 238364, Note_on_c, 9, 42, 0
1, 238365, Note_on_c, 9, 42, 64
1, 238559, Note_on_c, 9, 42, 0
1, 238620, Note_on_c, 9, 35, 105
1, 238635, Note_on_c, 9, 49, 89
1, 238679, Note_on_c, 9, 49, 0
1, 238799, Note_on_c, 9, 35, 0
1, 238830, Note_on_c, 9, 42, 71
1, 238919, Note_on_c, 9, 42, 0
1, 239070, Note_on_c, 9, 38, 109
1, 239070, Note_on_c, 9, 42, 79
1, 239159, Note_on_c, 9, 38, 0
1, 239159, Note_on_c, 9, 42, 0
1, 239295, Note_on_c, 9, 42, 66
1, 239519, Note_on_c, 9, 42, 0
1, 239520, Note_on_c, 9, 42, 73
1, 239520, Note_on_c, 9, 35, 107
1, 239759, Note_on_c, 9, 42, 0
1, 239760, Note_on_c, 9, 42, 68
1, 239999, Note_on_c, 9, 35, 0
1, 239999, Note_on_c, 9, 42, 0
1, 240015, Note_on_c, 9, 38, 111
1, 240015, Note_on_c, 9, 42, 72
1, 240239, Note_on_c, 9, 38, 0
1, 240239, Note_on_c, 9, 42, 0
1, 240255, Note_on_c, 9, 42, 71
1, 240479, Note_on_c, 9, 42, 0
1, 240495, Note_on_c, 9, 42, 72
1, 240495, Note_on_c, 9, 35, 103
1, 240719, Note_on_c, 9, 42, 0
1, 240719, Note_on_c, 9, 35, 0
1, 240735, Note_on_c, 9, 42, 70
1, 240959, Note_on_c, 9, 42, 0
1, 240960, Note_on_c, 9, 38, 109
1, 240960, Note_on_c, 9, 42, 72
1, 241199, Note_on_c, 9, 38, 0
1, 241199, Note_on_c, 9, 42, 0
1, 241215, Note_on_c, 9, 42, 76
1, 241439, Note_on_c, 9, 42, 0
1, 241455, Note_on_c, 9, 42, 72
1, 241455, Note_on_c, 9, 35, 105
1, 241679, Note_on_c, 9, 42, 0
1, 241679, Note_on_c, 9, 35, 0
1, 241680, Note_on_c, 9, 42, 67
1, 241919, Note_on_c, 9, 42, 0
1, 241920, Note_on_c, 9, 38, 109
1, 241920, Note_on_c, 9, 42, 76
1, 242159, Note_on_c, 9, 38, 0
1, 242159, Note_on_c, 9, 42, 0
1, 242175, Note_on_c, 9, 42, 75
1, 242399, Note_on_c, 9, 42, 0
1, 242415, Note_on_c, 9, 49, 81
1, 242430, Note_on_c, 9, 35, 105
1, 242639, Note_on_c, 9, 49, 0
1, 242640, Note_on_c, 9, 42, 82
1, 242879, Note_on_c, 9, 35, 0
1, 242879, Note_on_c, 9, 42, 0
1, 242880, Note_on_c, 9, 38, 111
1, 242880, Note_on_c, 9, 42, 73
1, 243119, Note_on_c, 9, 38, 0
1, 243119, Note_on_c, 9, 42, 0
1, 243120, Note_on_c, 9, 42, 69
1, 243359, Note_on_c, 9, 42, 0
1, 243360, Note_on_c, 9, 42, 68
1, 243375, Note_on_c, 9, 35, 105
1, 243599, Note_on_c, 9, 42, 0
1, 243599, Note_on_c, 9, 35, 0
1, 243600, Note_on_c, 9, 42, 72
1, 243839, Note_on_c, 9, 42, 0
1, 243840, Note_on_c, 9, 38, 113
1, 243840, Note_on_c, 9, 42, 72
1, 244079, Note_on_c, 9, 38, 0
1, 244079, Note_on_c, 9, 42, 0
1, 244095, Note_on_c, 9, 42, 66
1, 244319, Note_on_c, 9, 42, 0
1, 244350, Note_on_c, 9, 42, 72
1, 244350, Note_on_c, 9, 35, 106
1, 244439, Note_on_c, 9, 42, 0
1, 244575, Note_on_c, 9, 42, 66
1, 244799, Note_on_c, 9, 35, 0
1, 244799, Note_on_c, 9, 42, 0
1, 244800, Note_on_c, 9, 38, 111
1, 244800, Note_on_c, 9, 42, 71
1, 245039, Note_on_c, 9, 38, 0
1, 245039, Note_on_c, 9, 42, 0
1, 245040, Note_on_c, 9, 42, 68
1, 245279, Note_on_c, 9, 42, 0
1, 245280, Note_on_c, 9, 42, 68
1, 245280, Note_on_c, 9, 35, 105
1, 245519, Note_on_c, 9, 42, 0
1, 245520, Note_on_c, 9, 42, 72
1, 245759, Note_on_c, 9, 35, 0
1, 245759, Note_on_c, 9, 42, 0
1, 245760, Note_on_c, 9, 38, 109
1, 245760, Note_on_c, 9, 42, 72
1, 245999, Note_on_c, 9, 42, 0
1, 246044, Note_on_c, 9, 38, 0
1, 246045, Note_on_c, 9, 42, 72
1, 246239, Note_on_c, 9, 42, 0
1, 246285, Note_on_c, 9, 35, 107
1, 246300, Note_on_c, 9, 49, 81
1, 246479, Note_on_c, 9, 35, 0
1, 246479, Note_on_c, 9, 49, 0
1, 246495, Note_on_c, 9, 42, 79
1, 246704, Note_on_c, 9, 42, 0
1, 246705, Note_on_c, 9, 38, 111
1, 246719, Note_on_c, 9, 38, 0
1, 246720, Note_on_c, 9, 42, 72
1, 246959, Note_on_c, 9, 42, 0
1, 246975, Note_on_c, 9, 42, 66
1, 247199, Note_on_c, 9, 42, 0
1, 247200, Note_on_c, 9, 35, 107
1, 247215, Note_on_c, 9, 42, 72
1, 247439, Note_on_c, 9, 42, 0
1, 247470, Note_on_c, 9, 42, 66
1, 247559, Note_on_c, 9, 42, 0
1, 247679, Note_on_c, 9, 35, 0
1, 247710, Note_on_c, 9, 38, 115
1, 247710, Note_on_c, 9, 42, 68
1, 247799, Note_on_c, 9, 38, 0
1, 247799, Note_on_c, 9, 42, 0
1, 247980, Note_on_c, 9, 42, 63
1, 248159, Note_on_c, 9, 42, 0
1, 248235, Note_on_c, 9, 35, 111
1, 248250, Note_on_c, 9, 42, 69
1, 248279, Note_on_c, 9, 35, 0
1, 248279, Note_on_c, 9, 42, 0
1, 248430, Note_on_c, 9, 38, 84
1, 248430, Note_on_c, 9, 47, 46
1, 248430, Note_on_c, 9, 43, 43
1, 248519, Note_on_c, 9, 38, 0
1, 248519, Note_on_c, 9, 47, 0
1, 248519, Note_on_c, 9, 43, 0
1, 248640, Note_on_c, 9, 38, 78
1, 248640, Note_on_c, 9, 47, 45
1, 248640, Note_on_c, 9, 43, 37
1, 248879, Note_on_c, 9, 38, 0
1, 248879, Note_on_c, 9, 47, 0
1, 248879, Note_on_c, 9, 43, 0
1, 248880, Note_on_c, 9, 38, 103
1, 248880, Note_on_c, 9, 47, 55
1, 248880, Note_on_c, 9, 43, 49
1, 249119, Note_on_c, 9, 38, 0
1, 249119, Note_on_c, 9, 47, 0
1, 249119, Note_on_c, 9, 43, 0
1, 249120, Note_on_c, 9, 38, 115
1, 249134, Note_on_c, 9, 38, 0
1, 249135, Note_on_c, 9, 47, 73
1, 249135, Note_on_c, 9, 43, 70
1, 249359, Note_on_c, 9, 47, 0
1, 249359, Note_on_c, 9, 43, 0
1, 249360, Note_on_c, 9, 38, 126
1, 249374, Note_on_c, 9, 38, 0
1, 249375, Note_on_c, 9, 47, 72
1, 249375, Note_on_c, 9, 43, 67
1, 249599, Note_on_c, 9, 47, 0
1, 249599, Note_on_c, 9, 43, 0
1, 249615, Note_on_c, 9, 38, 126
1, 249615, Note_on_c, 9, 47, 83
1, 249615, Note_on_c, 9, 43, 79
1, 249839, Note_on_c, 9, 38, 0
1, 249839, Note_on_c, 9, 47, 0
1, 249839, Note_on_c, 9, 43, 0
1, 249855, Note_on_c, 9, 38, 126
1, 249869, Note_on_c, 9, 38, 0
1, 249870, Note_on_c, 9, 47, 102
1, 249870, Note_on_c, 9, 43, 100
1, 249959, Note_on_c, 9, 47, 0
1, 249959, Note_on_c, 9, 43, 0
1, 250110, Note_on_c, 9, 41, 69
1, 250110, Note_on_c, 9, 47, 70
1, 250110, Note_on_c, 9, 49, 87
1, 250110, Note_on_c, 9, 35, 112
1, 250289, Note_on_c, 9, 41, 0
1, 250289, Note_on_c, 9, 47, 0
1, 250289, Note_on_c, 9, 49, 0
1, 250305, Note_on_c, 9, 42, 79
1, 250319, Note_on_c, 9, 42, 0
1, 250350, Note_on_c, 9, 41, 55
1, 250350, Note_on_c, 9, 47, 70
1, 250439, Note_on_c, 9, 41, 0
1, 250439, Note_on_c, 9, 47, 0
1, 250559, Note_on_c, 9, 35, 0
1, 250560, Note_on_c, 9, 42, 83
1, 250589, Note_on_c, 9, 42, 0
1, 250590, Note_on_c, 9, 38, 125
1, 250679, Note_on_c, 9, 38, 0
1, 250800, Note_on_c, 9, 42, 68
1, 250829, Note_on_c, 9, 42, 0
1, 250830, Note_on_c, 9, 41, 83
1, 250830, Note_on_c, 9, 47, 81
1, 250919, Note_on_c, 9, 41, 0
1, 250919, Note_on_c, 9, 47, 0
1, 251040, Note_on_c, 9, 42, 78
1, 251070, Note_on_c, 9, 35, 103
1, 251279, Note_on_c, 9, 42, 0
1, 251280, Note_on_c, 9, 42, 65
1, 251324, Note_on_c, 9, 42, 0
1, 251325, Note_on_c, 9, 41, 66
1, 251325, Note_on_c, 9, 47, 69
1, 251519, Note_on_c, 9, 35, 0
1, 251519, Note_on_c, 9, 41, 0
1, 251519, Note_on_c, 9, 47, 0
1, 251520, Note_on_c, 9, 42, 78
1, 251549, Note_on_c, 9, 42, 0
1, 251550, Note_on_c, 9, 41, 87
1, 251550, Note_on_c, 9, 38, 122
1, 251639, Note_on_c, 9, 41, 0
1, 251639, Note_on_c, 9, 38, 0
1, 251760, Note_on_c, 9, 42, 68
1, 251999, Note_on_c, 9, 42, 0
1, 252000, Note_on_c, 9, 42, 71
1, 252029, Note_on_c, 9, 42, 0
1, 252030, Note_on_c, 9, 41, 73
1, 252030, Note_on_c, 9, 47, 77
1, 252030, Note_on_c, 9, 35, 110
1, 252119, Note_on_c, 9, 41, 0
1, 252119, Note_on_c, 9, 47, 0
1, 252240, Note_on_c, 9, 42, 66
1, 252269, Note_on_c, 9, 42, 0
1, 252270, Note_on_c, 9, 41, 66
1, 252270, Note_on_c, 9, 47, 81
1, 252359, Note_on_c, 9, 41, 0
1, 252359, Note_on_c, 9, 47, 0
1, 252479, Note_on_c, 9, 35, 0
1, 252495, Note_on_c, 9, 38, 109
1, 252495, Note_on_c, 9, 42, 73
1, 252719, Note_on_c, 9, 38, 0
1, 252719, Note_on_c, 9, 42, 0
1, 252720, Note_on_c, 9, 42, 62
1, 252959, Note_on_c, 9, 42, 0
1, 252975, Note_on_c, 9, 41, 73
1, 252975, Note_on_c, 9, 47, 87
1, 252975, Note_on_c, 9, 42, 69
1, 252975, Note_on_c, 9, 35, 105
1, 253199, Note_on_c, 9, 41, 0
1, 253199, Note_on_c, 9, 47, 0
1, 253199, Note_on_c, 9, 42, 0
1, 253199, Note_on_c, 9, 35, 0
1, 253200, Note_on_c, 9, 42, 64
1, 253214, Note_on_c, 9, 42, 0
1, 253215, Note_on_c, 9, 41, 60
1, 253215, Note_on_c, 9, 47, 79
1, 253439, Note_on_c, 9, 41, 0
1, 253439, Note_on_c, 9, 47, 0
1, 253440, Note_on_c, 9, 42, 73
1, 253454, Note_on_c, 9, 42, 0
1, 253455, Note_on_c, 9, 41, 77
1, 253455, Note_on_c, 9, 38, 109
1, 253679, Note_on_c, 9, 41, 0
1, 253679, Note_on_c, 9, 38, 0
1, 253680, Note_on_c, 9, 42, 67
1, 253919, Note_on_c, 9, 42, 0
1, 253920, Note_on_c, 9, 42, 68
1, 253935, Note_on_c, 9, 35, 110
1, 253949, Note_on_c, 9, 42, 0
1, 253950, Note_on_c, 9, 41, 79
1, 253950, Note_on_c, 9, 47, 81
1, 254129, Note_on_c, 9, 41, 0
1, 254129, Note_on_c, 9, 47, 0
1, 254145, Note_on_c, 9, 42, 56
1, 254159, Note_on_c, 9, 35, 0
1, 254159, Note_on_c, 9, 42, 0
1, 254175, Note_on_c, 9, 41, 70
1, 254189, Note_on_c, 9, 41, 0
1, 254190, Note_on_c, 9, 47, 85
1, 254279, Note_on_c, 9, 47, 0
1, 254400, Note_on_c, 9, 42, 66
1, 254414, Note_on_c, 9, 42, 0
1, 254415, Note_on_c, 9, 38, 107
1, 254639, Note_on_c, 9, 38, 0
1, 254640, Note_on_c, 9, 42, 65
1, 254654, Note_on_c, 9, 42, 0
1, 254655, Note_on_c, 9, 41, 75
1, 254655, Note_on_c, 9, 47, 89
1, 254879, Note_on_c, 9, 41, 0
1, 254879, Note_on_c, 9, 47, 0
1, 254880, Note_on_c, 9, 42, 65
1, 254895, Note_on_c, 9, 35, 103
1, 255119, Note_on_c, 9, 42, 0
1, 255119, Note_on_c, 9, 35, 0
1, 255120, Note_on_c, 9, 41, 62
1, 255120, Note_on_c, 9, 47, 83
1, 255120, Note_on_c, 9, 42, 71
1, 255359, Note_on_c, 9, 41, 0
1, 255359, Note_on_c, 9, 47, 0
1, 255359, Note_on_c, 9, 42, 0
1, 255360, Note_on_c, 9, 41, 77
1, 255360, Note_on_c, 9, 42, 75
1, 255374, Note_on_c, 9, 41, 0
1, 255374, Note_on_c, 9, 42, 0
1, 255375, Note_on_c, 9, 38, 111
1, 255599, Note_on_c, 9, 38, 0
1, 255600, Note_on_c, 9, 42, 71
1, 255839, Note_on_c, 9, 42, 0
1, 255840, Note_on_c, 9, 42, 52
1, 255869, Note_on_c, 9, 42, 0
1, 255870, Note_on_c, 9, 41, 73
1, 255870, Note_on_c, 9, 47, 85
1, 255870, Note_on_c, 9, 35, 103
1, 255959, Note_on_c, 9, 41, 0
1, 255959, Note_on_c, 9, 47, 0
1, 256080, Note_on_c, 9, 42, 61
1, 256094, Note_on_c, 9, 42, 0
1, 256095, Note_on_c, 9, 41, 72
1, 256109, Note_on_c, 9, 41, 0
1, 256110, Note_on_c, 9, 47, 85
1, 256199, Note_on_c, 9, 47, 0
1, 256319, Note_on_c, 9, 35, 0
1, 256320, Note_on_c, 9, 42, 79
1, 256334, Note_on_c, 9, 42, 0
1, 256335, Note_on_c, 9, 38, 111
1, 256559, Note_on_c, 9, 38, 0
1, 256560, Note_on_c, 9, 42, 61
1, 256799, Note_on_c, 9, 42, 0
1, 256800, Note_on_c, 9, 42, 66
1, 256814, Note_on_c, 9, 42, 0
1, 256815, Note_on_c, 9, 47, 85
1, 256815, Note_on_c, 9, 35, 103
1, 256829, Note_on_c, 9, 47, 0
1, 256830, Note_on_c, 9, 41, 72
1, 256919, Note_on_c, 9, 41, 0
1, 257039, Note_on_c, 9, 35, 0
1, 257040, Note_on_c, 9, 42, 61
1, 257054, Note_on_c, 9, 42, 0
1, 257055, Note_on_c, 9, 41, 67
1, 257055, Note_on_c, 9, 47, 79
1, 257279, Note_on_c, 9, 41, 0
1, 257279, Note_on_c, 9, 47, 0
1, 257280, Note_on_c, 9, 42, 73
1, 257294, Note_on_c, 9, 42, 0
1, 257295, Note_on_c, 9, 41, 72
1, 257295, Note_on_c, 9, 38, 113
1, 257519, Note_on_c, 9, 41, 0
1, 257519, Note_on_c, 9, 38, 0
1, 257535, Note_on_c, 9, 42, 72
1, 257759, Note_on_c, 9, 42, 0
1, 257760, Note_on_c, 9, 42, 66
1, 257789, Note_on_c, 9, 42, 0
1, 257790, Note_on_c, 9, 41, 81
1, 257790, Note_on_c, 9, 47, 87
1, 257790, Note_on_c, 9, 35, 110
1, 257879, Note_on_c, 9, 41, 0
1, 257879, Note_on_c, 9, 47, 0
1, 258000, Note_on_c, 9, 42, 69
1, 258014, Note_on_c, 9, 42, 0
1, 258015, Note_on_c, 9, 41, 63
1, 258015, Note_on_c, 9, 47, 87
1, 258239, Note_on_c, 9, 35, 0
1, 258239, Note_on_c, 9, 41, 0
1, 258239, Note_on_c, 9, 47, 0
1, 258255, Note_on_c, 9, 38, 111
1, 258255, Note_on_c, 9, 42, 75
1, 258479, Note_on_c, 9, 38, 0
1, 258479, Note_on_c, 9, 42, 0
1, 258495, Note_on_c, 9, 41, 81
1, 258495, Note_on_c, 9, 47, 97
1, 258495, Note_on_c, 9, 42, 75
1, 258719, Note_on_c, 9, 41, 0
1, 258719, Note_on_c, 9, 47, 0
1, 258719, Note_on_c, 9, 42, 0
1, 258735, Note_on_c, 9, 42, 78
1, 258735, Note_on_c, 9, 35, 103
1, 258959, Note_on_c, 9, 42, 0
1, 258959, Note_on_c, 9, 35, 0
1, 258960, Note_on_c, 9, 41, 63
1, 258960, Note_on_c, 9, 47, 83
1, 258989, Note_on_c, 9, 41, 0
1, 258989, Note_on_c, 9, 47, 0
1, 258990, Note_on_c, 9, 42, 78
1, 259079, Note_on_c, 9, 42, 0
1, 259200, Note_on_c, 9, 41, 69
1, 259200, Note_on_c, 9, 38, 109
1, 259229, Note_on_c, 9, 41, 0
1, 259229, Note_on_c, 9, 38, 0
1, 259230, Note_on_c, 9, 42, 78
1, 259484, Note_on_c, 9, 42, 0
1, 259485, Note_on_c, 9, 42, 72
1, 259679, Note_on_c, 9, 42, 0
1, 259710, Note_on_c, 9, 41, 75
1, 259710, Note_on_c, 9, 47, 87
1, 259710, Note_on_c, 9, 35, 108
1, 259724, Note_on_c, 9, 41, 0
1, 259724, Note_on_c, 9, 47, 0
1, 259725, Note_on_c, 9, 42, 71
1, 259919, Note_on_c, 9, 42, 0
1, 259935, Note_on_c, 9, 41, 69
1, 259935, Note_on_c, 9, 47, 87
1, 259949, Note_on_c, 9, 41, 0
1, 259949, Note_on_c, 9, 47, 0
1, 259950, Note_on_c, 9, 42, 68
1, 260039, Note_on_c, 9, 42, 0
1, 260159, Note_on_c, 9, 35, 0
1, 260160, Note_on_c, 9, 38, 115
1, 260174, Note_on_c, 9, 38, 0
1, 260175, Note_on_c, 9, 42, 75
1, 260399, Note_on_c, 9, 42, 0
1, 260415, Note_on_c, 9, 42, 72
1, 260639, Note_on_c, 9, 42, 0
1, 260640, Note_on_c, 9, 41, 75
1, 260640, Note_on_c, 9, 46, 94
1, 260640, Note_on_c, 9, 47, 97
1, 260640, Note_on_c, 9, 35, 110
1, 260879, Note_on_c, 9, 41, 0
1, 260879, Note_on_c, 9, 46, 0
1, 260879, Note_on_c, 9, 47, 0
1, 260910, Note_on_c, 9, 38, 125
1, 260924, Note_on_c, 9, 38, 0
1, 260925, Note_on_c, 9, 41, 65
1, 260925, Note_on_c, 9, 47, 85
1, 261119, Note_on_c, 9, 35, 0
1, 261119, Note_on_c, 9, 41, 0
1, 261119, Note_on_c, 9, 47, 0
1, 261180, Note_on_c, 9, 41, 72
1, 261180, Note_on_c, 9, 38, 125
1, 261359, Note_on_c, 9, 41, 0
1, 261359, Note_on_c, 9, 38, 0
1, 261390, Note_on_c, 9, 35, 110
1, 261479, Note_on_c, 9, 35, 0
1, 261615, Note_on_c, 9, 35, 111
1, 261630, Note_on_c, 9, 49, 96
1, 261719, Note_on_c, 9, 49, 0
1, 261839, Note_on_c, 9, 35, 0
1, 261840, Note_on_c, 9, 49, 1
1, 262079, Note_on_c, 9, 49, 0
1, 262080, Note_on_c, 9, 35, 110
1, 262319, Note_on_c, 9, 35, 0
1, 262320, Note_on_c, 9, 49, 96
1, 262320, Note_on_c, 9, 35, 111
1, 262559, Note_on_c, 9, 49, 0
1, 262559, Note_on_c, 9, 35, 0
1, 262560, Note_on_c, 9, 49, 1
1, 262800, Note_on_c, 9, 35, 110
1, 263039, Note_on_c, 9, 49, 0
1, 263039, Note_on_c, 9, 35, 0
1, 263055, Note_on_c, 9, 35, 111
1, 263070, Note_on_c, 9, 49, 96
1, 263159, Note_on_c, 9, 49, 0
1, 263279, Note_on_c, 9, 35, 0
1, 263310, Note_on_c, 9, 49, 1
1, 263399, Note_on_c, 9, 49, 0
1, 263520, Note_on_c, 9, 35, 110
1, 263759, Note_on_c, 9, 35, 0
1, 263760, Note_on_c, 9, 49, 96
1, 263760, Note_on_c, 9, 35, 111
1, 263999, Note_on_c, 9, 49, 0
1, 263999, Note_on_c, 9, 35, 0
1, 264000, Note_on_c, 9, 49, 1
1, 264240, Note_on_c, 9, 35, 110
1, 264479, Note_on_c, 9, 49, 0
1, 264479, Note_on_c, 9, 35, 0
1, 264495, Note_on_c, 9, 35, 111
1, 264510, Note_on_c, 9, 49, 96
1, 264599, Note_on_c, 9, 49, 0
1, 264719, Note_on_c, 9, 35, 0
1, 264750, Note_on_c, 9, 49, 1
1, 264839, Note_on_c, 9, 49, 0
1, 264960, Note_on_c, 9, 35, 110
1, 265199, Note_on_c, 9, 35, 0
1, 265200, Note_on_c, 9, 49, 96
1, 265200, Note_on_c, 9, 35, 111
1, 265439, Note_on_c, 9, 49, 0
1, 265439, Note_on_c, 9, 35, 0
1, 265440, Note_on_c, 9, 49, 1
1, 265680, Note_on_c, 9, 35, 110
1, 265919, Note_on_c, 9, 49, 0
1, 265919, Note_on_c, 9, 35, 0
1, 265935, Note_on_c, 9, 35, 111
1, 265950, Note_on_c, 9, 49, 96
1, 266039, Note_on_c, 9, 49, 0
1, 266159, Note_on_c, 9, 35, 0
1, 266190, Note_on_c, 9, 49, 1
1, 266279, Note_on_c, 9, 49, 0
1, 266400, Note_on_c, 9, 35, 110
1, 266639, Note_on_c, 9, 35, 0
1, 266640, Note_on_c, 9, 49, 96
1, 266640, Note_on_c, 9, 35, 111
1, 266879, Note_on_c, 9, 49, 0
1, 266879, Note_on_c, 9, 35, 0
1, 266880, Note_on_c, 9, 49, 1
1, 267120, Note_on_c, 9, 35, 110
1, 267359, Note_on_c, 9, 49, 0
1, 267359, Note_on_c, 9, 35, 0
1, 267360, Note_on_c, 9, 35, 111
1, 267405, Note_on_c, 9, 49, 96
1, 267599, Note_on_c, 9, 49, 0
1, 267660, Note_on_c, 9, 49, 1
1, 267839, Note_on_c, 9, 35, 0
1, 267839, Note_on_c, 9, 49, 0
1, 267840, End_track
0, 0, End_of_file
