0, 0, Header, 1, 1, 480
1, 0, Start_track
1, 0, Time_signature, 4, 2, 24, 8
1, 0, Key_signature, 0, "major"
1, 0, Tempo, 500000
1, 0, Control_c, 9, 121, 0
1, 0, Program_c, 9, 0
1, 0, Control_c, 9, 7, 100
1, 0, Control_c, 9, 10, 64
1, 0, Control_c, 9, 91, 0
1, 0, Control_c, 9, 93, 0
1, 0, MIDI_port, 0
1, 3120, Note_on_c, 9, 69, 88
1, 3239, Note_on_c, 9, 69, 0
1, 3240, Note_on_c, 9, 69, 75
1, 3359, Note_on_c, 9, 69, 0
1, 3360, Note_on_c, 9, 69, 90
1, 3599, Note_on_c, 9, 69, 0
1, 3600, Note_on_c, 9, 73, 107
1, 3719, Note_on_c, 9, 73, 0
1, 3720, Note_on_c, 9, 73, 95
1, 3839, Note_on_c, 9, 73, 0
1, 3840, Note_on_c, 9, 73, 107
1, 4319, Note_on_c, 9, 73, 0
1, 6960, Note_on_c, 9, 69, 100
1, 7079, Note_on_c, 9, 69, 0
1, 7080, Note_on_c, 9, 69, 90
1, 7199, Note_on_c, 9, 69, 0
1, 7200, Note_on_c, 9, 69, 91
1, 7200, Note_on_c, 9, 42, 98
1, 7439, Note_on_c, 9, 69, 0
1, 7439, Note_on_c, 9, 42, 0
1, 7440, Note_on_c, 9, 46, 95
1, 7440, Note_on_c, 9, 73, 113
1, 7559, Note_on_c, 9, 46, 0
1, 7559, Note_on_c, 9, 73, 0
1, 7560, Note_on_c, 9, 73, 97
1, 7679, Note_on_c, 9, 73, 0
1, 7680, Note_on_c, 9, 73, 101
1, 7680, Note_on_c, 9, 42, 86
1, 7680, Note_on_c, 9, 35, 114
1, 7919, Note_on_c, 9, 73, 0
1, 7919, Note_on_c, 9, 42, 0
1, 7920, Note_on_c, 9, 42, 72
1, 8159, Note_on_c, 9, 35, 0
1, 8159, Note_on_c, 9, 42, 0
1, 8160, Note_on_c, 9, 42, 83
1, 8160, Note_on_c, 9, 35, 110
1, 8399, Note_on_c, 9, 42, 0
1, 8400, Note_on_c, 9, 42, 72
1, 8639, Note_on_c, 9, 35, 0
1, 8639, Note_on_c, 9, 42, 0
1, 8640, Note_on_c, 9, 42, 81
1, 8640, Note_on_c, 9, 35, 109
1, 8879, Note_on_c, 9, 42, 0
1, 8880, Note_on_c, 9, 42, 73
1, 9119, Note_on_c, 9, 35, 0
1, 9119, Note_on_c, 9, 42, 0
1, 9120, Note_on_c, 9, 42, 85
1, 9120, Note_on_c, 9, 35, 110
1, 9359, Note_on_c, 9, 42, 0
1, 9375, Note_on_c, 9, 42, 78
1, 9599, Note_on_c, 9, 35, 0
1, 9599, Note_on_c, 9, 42, 0
1, 9615, Note_on_c, 9, 42, 88
1, 9615, Note_on_c, 9, 35, 109
1, 9839, Note_on_c, 9, 42, 0
1, 9839, Note_on_c, 9, 35, 0
1, 9855, Note_on_c, 9, 42, 72
1, 10079, Note_on_c, 9, 42, 0
1, 10080, Note_on_c, 9, 42, 84
1, 10080, Note_on_c, 9, 35, 108
1, 10319, Note_on_c, 9, 42, 0
1, 10320, Note_on_c, 9, 42, 77
1, 10559, Note_on_c, 9, 35, 0
1, 10559, Note_on_c, 9, 42, 0
1, 10560, Note_on_c, 9, 42, 82
1, 10560, Note_on_c, 9, 35, 109
1, 10799, Note_on_c, 9, 42, 0
1, 10800, Note_on_c, 9, 69, 91
1, 10800, Note_on_c, 9, 42, 75
1, 10919, Note_on_c, 9, 69, 0
1, 10919, Note_on_c, 9, 42, 0
1, 10920, Note_on_c, 9, 69, 78
1, 11039, Note_on_c, 9, 35, 0
1, 11039, Note_on_c, 9, 69, 0
1, 11040, Note_on_c, 9, 69, 68
1, 11040, Note_on_c, 9, 42, 84
1, 11040, Note_on_c, 9, 35, 110
1, 11279, Note_on_c, 9, 69, 0
1, 11279, Note_on_c, 9, 42, 0
1, 11295, Note_on_c, 9, 73, 93
1, 11295, Note_on_c, 9, 42, 77
1, 11339, Note_on_c, 9, 73, 0
1, 11339, Note_on_c, 9, 42, 0
1, 11400, Note_on_c, 9, 73, 85
1, 11519, Note_on_c, 9, 35, 0
1, 11519, Note_on_c, 9, 73, 0
1, 11535, Note_on_c, 9, 73, 70
1, 11535, Note_on_c, 9, 42, 82
1, 11535, Note_on_c, 9, 35, 110
1, 11759, Note_on_c, 9, 73, 0
1, 11759, Note_on_c, 9, 42, 0
1, 11759, Note_on_c, 9, 35, 0
1, 11760, Note_on_c, 9, 42, 72
1, 11999, Note_on_c, 9, 42, 0
1, 12000, Note_on_c, 9, 42, 82
1, 12000, Note_on_c, 9, 35, 112
1, 12239, Note_on_c, 9, 42, 0
1, 12240, Note_on_c, 9, 42, 78
1, 12479, Note_on_c, 9, 35, 0
1, 12479, Note_on_c, 9, 42, 0
1, 12480, Note_on_c, 9, 42, 82
1, 12480, Note_on_c, 9, 35, 109
1, 12719, Note_on_c, 9, 42, 0
1, 12720, Note_on_c, 9, 42, 72
1, 12959, Note_on_c, 9, 35, 0
1, 12959, Note_on_c, 9, 42, 0
1, 12960, Note_on_c, 9, 42, 78
1, 12960, Note_on_c, 9, 35, 109
1, 13199, Note_on_c, 9, 42, 0
1, 13200, Note_on_c, 9, 42, 74
1, 13439, Note_on_c, 9, 35, 0
1, 13439, Note_on_c, 9, 42, 0
1, 13440, Note_on_c, 9, 42, 81
1, 13440, Note_on_c, 9, 35, 109
1, 13679, Note_on_c, 9, 42, 0
1, 13680, Note_on_c, 9, 42, 73
1, 13919, Note_on_c, 9, 35, 0
1, 13919, Note_on_c, 9, 42, 0
1, 13920, Note_on_c, 9, 42, 82
1, 13920, Note_on_c, 9, 35, 109
1, 14159, Note_on_c, 9, 42, 0
1, 14160, Note_on_c, 9, 42, 78
1, 14399, Note_on_c, 9, 35, 0
1, 14399, Note_on_c, 9, 42, 0
1, 14400, Note_on_c, 9, 42, 84
1, 14400, Note_on_c, 9, 35, 111
1, 14639, Note_on_c, 9, 42, 0
1, 14640, Note_on_c, 9, 42, 78
1, 14654, Note_on_c, 9, 42, 0
1, 14655, Note_on_c, 9, 69, 94
1, 14699, Note_on_c, 9, 69, 0
1, 14760, Note_on_c, 9, 69, 94
1, 14879, Note_on_c, 9, 35, 0
1, 14879, Note_on_c, 9, 69, 0
1, 14880, Note_on_c, 9, 69, 80
1, 14880, Note_on_c, 9, 42, 90
1, 14880, Note_on_c, 9, 35, 111
1, 15119, Note_on_c, 9, 69, 0
1, 15119, Note_on_c, 9, 42, 0
1, 15120, Note_on_c, 9, 46, 79
1, 15120, Note_on_c, 9, 73, 87
1, 15239, Note_on_c, 9, 46, 0
1, 15239, Note_on_c, 9, 73, 0
1, 15240, Note_on_c, 9, 73, 82
1, 15359, Note_on_c, 9, 35, 0
1, 15359, Note_on_c, 9, 73, 0
1, 15360, Note_on_c, 9, 73, 81
1, 15360, Note_on_c, 9, 42, 89
1, 15360, Note_on_c, 9, 35, 111
1, 15599, Note_on_c, 9, 73, 0
1, 15599, Note_on_c, 9, 42, 0
1, 15600, Note_on_c, 9, 42, 75
1, 15839, Note_on_c, 9, 35, 0
1, 15839, Note_on_c, 9, 42, 0
1, 15840, Note_on_c, 9, 42, 81
1, 15840, Note_on_c, 9, 35, 109
1, 16079, Note_on_c, 9, 42, 0
1, 16080, Note_on_c, 9, 42, 79
1, 16319, Note_on_c, 9, 35, 0
1, 16319, Note_on_c, 9, 42, 0
1, 16320, Note_on_c, 9, 42, 82
1, 16320, Note_on_c, 9, 35, 109
1, 16544, Note_on_c, 9, 42, 0
1, 16545, Note_on_c, 9, 42, 79
1, 16559, Note_on_c, 9, 42, 0
1, 16799, Note_on_c, 9, 35, 0
1, 16800, Note_on_c, 9, 42, 78
1, 16800, Note_on_c, 9, 35, 109
1, 17039, Note_on_c, 9, 42, 0
1, 17040, Note_on_c, 9, 42, 77
1, 17279, Note_on_c, 9, 35, 0
1, 17279, Note_on_c, 9, 42, 0
1, 17280, Note_on_c, 9, 42, 81
1, 17280, Note_on_c, 9, 35, 109
1, 17519, Note_on_c, 9, 42, 0
1, 17520, Note_on_c, 9, 42, 78
1, 17759, Note_on_c, 9, 35, 0
1, 17759, Note_on_c, 9, 42, 0
1, 17760, Note_on_c, 9, 42, 85
1, 17760, Note_on_c, 9, 35, 110
1, 17984, Note_on_c, 9, 42, 0
1, 17985, Note_on_c, 9, 42, 75
1, 17999, Note_on_c, 9, 42, 0
1, 18239, Note_on_c, 9, 35, 0
1, 18240, Note_on_c, 9, 42, 81
1, 18240, Note_on_c, 9, 35, 111
1, 18479, Note_on_c, 9, 42, 0
1, 18480, Note_on_c, 9, 69, 91
1, 18480, Note_on_c, 9, 42, 76
1, 18599, Note_on_c, 9, 69, 0
1, 18599, Note_on_c, 9, 42, 0
1, 18600, Note_on_c, 9, 69, 84
1, 18719, Note_on_c, 9, 35, 0
1, 18719, Note_on_c, 9, 69, 0
1, 18720, Note_on_c, 9, 69, 80
1, 18720, Note_on_c, 9, 42, 86
1, 18720, Note_on_c, 9, 35, 109
1, 18959, Note_on_c, 9, 69, 0
1, 18959, Note_on_c, 9, 42, 0
1, 18975, Note_on_c, 9, 73, 85
1, 18975, Note_on_c, 9, 42, 70
1, 19019, Note_on_c, 9, 73, 0
1, 19019, Note_on_c, 9, 42, 0
1, 19080, Note_on_c, 9, 73, 72
1, 19199, Note_on_c, 9, 35, 0
1, 19199, Note_on_c, 9, 73, 0
1, 19215, Note_on_c, 9, 73, 78
1, 19215, Note_on_c, 9, 42, 81
1, 19215, Note_on_c, 9, 35, 109
1, 19439, Note_on_c, 9, 73, 0
1, 19439, Note_on_c, 9, 42, 0
1, 19439, Note_on_c, 9, 35, 0
1, 19440, Note_on_c, 9, 42, 72
1, 19679, Note_on_c, 9, 42, 0
1, 19680, Note_on_c, 9, 42, 86
1, 19680, Note_on_c, 9, 35, 109
1, 19919, Note_on_c, 9, 42, 0
1, 19920, Note_on_c, 9, 42, 72
1, 20159, Note_on_c, 9, 35, 0
1, 20159, Note_on_c, 9, 42, 0
1, 20160, Note_on_c, 9, 42, 81
1, 20160, Note_on_c, 9, 35, 110
1, 20399, Note_on_c, 9, 42, 0
1, 20400, Note_on_c, 9, 42, 77
1, 20639, Note_on_c, 9, 35, 0
1, 20639, Note_on_c, 9, 42, 0
1, 20640, Note_on_c, 9, 42, 88
1, 20640, Note_on_c, 9, 35, 110
1, 20879, Note_on_c, 9, 42, 0
1, 20880, Note_on_c, 9, 42, 73
1, 21119, Note_on_c, 9, 35, 0
1, 21119, Note_on_c, 9, 42, 0
1, 21120, Note_on_c, 9, 42, 82
1, 21120, Note_on_c, 9, 35, 108
1, 21359, Note_on_c, 9, 42, 0
1, 21360, Note_on_c, 9, 42, 76
1, 21599, Note_on_c, 9, 35, 0
1, 21599, Note_on_c, 9, 42, 0
1, 21600, Note_on_c, 9, 42, 81
1, 21600, Note_on_c, 9, 35, 111
1, 21839, Note_on_c, 9, 42, 0
1, 21870, Note_on_c, 9, 42, 78
1, 21959, Note_on_c, 9, 42, 0
1, 22079, Note_on_c, 9, 35, 0
1, 22110, Note_on_c, 9, 42, 84
1, 22110, Note_on_c, 9, 35, 109
1, 22199, Note_on_c, 9, 42, 0
1, 22335, Note_on_c, 9, 69, 87
1, 22335, Note_on_c, 9, 42, 78
1, 22379, Note_on_c, 9, 69, 0
1, 22379, Note_on_c, 9, 42, 0
1, 22440, Note_on_c, 9, 69, 91
1, 22559, Note_on_c, 9, 35, 0
1, 22559, Note_on_c, 9, 69, 0
1, 22560, Note_on_c, 9, 69, 77
1, 22560, Note_on_c, 9, 42, 90
1, 22560, Note_on_c, 9, 35, 109
1, 22799, Note_on_c, 9, 69, 0
1, 22799, Note_on_c, 9, 42, 0
1, 22800, Note_on_c, 9, 46, 79
1, 22800, Note_on_c, 9, 73, 89
1, 22919, Note_on_c, 9, 46, 0
1, 22919, Note_on_c, 9, 73, 0
1, 22920, Note_on_c, 9, 73, 72
1, 23039, Note_on_c, 9, 35, 0
1, 23039, Note_on_c, 9, 73, 0
1, 23040, Note_on_c, 9, 73, 79
1, 23040, Note_on_c, 9, 42, 90
1, 23040, Note_on_c, 9, 35, 109
1, 23279, Note_on_c, 9, 73, 0
1, 23279, Note_on_c, 9, 42, 0
1, 23280, Note_on_c, 9, 42, 75
1, 23519, Note_on_c, 9, 35, 0
1, 23519, Note_on_c, 9, 42, 0
1, 23520, Note_on_c, 9, 42, 86
1, 23520, Note_on_c, 9, 35, 110
1, 23759, Note_on_c, 9, 42, 0
1, 23775, Note_on_c, 9, 42, 73
1, 23999, Note_on_c, 9, 35, 0
1, 23999, Note_on_c, 9, 42, 0
1, 24030, Note_on_c, 9, 42, 88
1, 24030, Note_on_c, 9, 35, 109
1, 24119, Note_on_c, 9, 42, 0
1, 24255, Note_on_c, 9, 42, 77
1, 24479, Note_on_c, 9, 35, 0
1, 24479, Note_on_c, 9, 42, 0
1, 24480, Note_on_c, 9, 42, 78
1, 24480, Note_on_c, 9, 35, 105
1, 24719, Note_on_c, 9, 42, 0
1, 24735, Note_on_c, 9, 42, 77
1, 24959, Note_on_c, 9, 35, 0
1, 24959, Note_on_c, 9, 42, 0
1, 24975, Note_on_c, 9, 42, 83
1, 24975, Note_on_c, 9, 35, 110
1, 25199, Note_on_c, 9, 42, 0
1, 25199, Note_on_c, 9, 35, 0
1, 25215, Note_on_c, 9, 42, 75
1, 25439, Note_on_c, 9, 42, 0
1, 25440, Note_on_c, 9, 42, 84
1, 25440, Note_on_c, 9, 35, 109
1, 25679, Note_on_c, 9, 42, 0
1, 25680, Note_on_c, 9, 42, 77
1, 25919, Note_on_c, 9, 35, 0
1, 25919, Note_on_c, 9, 42, 0
1, 25920, Note_on_c, 9, 42, 85
1, 25920, Note_on_c, 9, 35, 109
1, 26159, Note_on_c, 9, 42, 0
1, 26160, Note_on_c, 9, 69, 67
1, 26160, Note_on_c, 9, 42, 81
1, 26279, Note_on_c, 9, 69, 0
1, 26279, Note_on_c, 9, 42, 0
1, 26280, Note_on_c, 9, 69, 81
1, 26399, Note_on_c, 9, 35, 0
1, 26399, Note_on_c, 9, 69, 0
1, 26400, Note_on_c, 9, 69, 84
1, 26400, Note_on_c, 9, 42, 83
1, 26400, Note_on_c, 9, 35, 110
1, 26639, Note_on_c, 9, 69, 0
1, 26639, Note_on_c, 9, 42, 0
1, 26640, Note_on_c, 9, 42, 81
1, 26654, Note_on_c, 9, 42, 0
1, 26655, Note_on_c, 9, 73, 85
1, 26699, Note_on_c, 9, 73, 0
1, 26760, Note_on_c, 9, 73, 79
1, 26879, Note_on_c, 9, 35, 0
1, 26879, Note_on_c, 9, 73, 0
1, 26880, Note_on_c, 9, 73, 79
1, 26880, Note_on_c, 9, 42, 84
1, 26880, Note_on_c, 9, 35, 110
1, 27119, Note_on_c, 9, 73, 0
1, 27119, Note_on_c, 9, 42, 0
1, 27120, Note_on_c, 9, 42, 78
1, 27359, Note_on_c, 9, 35, 0
1, 27359, Note_on_c, 9, 42, 0
1, 27360, Note_on_c, 9, 42, 82
1, 27360, Note_on_c, 9, 35, 107
1, 27599, Note_on_c, 9, 42, 0
1, 27600, Note_on_c, 9, 42, 78
1, 27839, Note_on_c, 9, 35, 0
1, 27839, Note_on_c, 9, 42, 0
1, 27855, Note_on_c, 9, 42, 86
1, 27855, Note_on_c, 9, 35, 108
1, 28079, Note_on_c, 9, 42, 0
1, 28079, Note_on_c, 9, 35, 0
1, 28095, Note_on_c, 9, 42, 78
1, 28319, Note_on_c, 9, 42, 0
1, 28350, Note_on_c, 9, 42, 83
1, 28350, Note_on_c, 9, 35, 109
1, 28439, Note_on_c, 9, 42, 0
1, 28575, Note_on_c, 9, 42, 81
1, 28799, Note_on_c, 9, 35, 0
1, 28799, Note_on_c, 9, 42, 0
1, 28815, Note_on_c, 9, 42, 82
1, 28815, Note_on_c, 9, 35, 111
1, 29039, Note_on_c, 9, 42, 0
1, 29039, Note_on_c, 9, 35, 0
1, 29040, Note_on_c, 9, 42, 78
1, 29279, Note_on_c, 9, 42, 0
1, 29280, Note_on_c, 9, 42, 82
1, 29280, Note_on_c, 9, 35, 110
1, 29519, Note_on_c, 9, 42, 0
1, 29520, Note_on_c, 9, 42, 79
1, 29759, Note_on_c, 9, 35, 0
1, 29759, Note_on_c, 9, 42, 0
1, 29760, Note_on_c, 9, 42, 84
1, 29760, Note_on_c, 9, 35, 114
1, 29999, Note_on_c, 9, 42, 0
1, 30000, Note_on_c, 9, 69, 97
1, 30000, Note_on_c, 9, 42, 81
1, 30119, Note_on_c, 9, 69, 0
1, 30119, Note_on_c, 9, 42, 0
1, 30120, Note_on_c, 9, 69, 73
1, 30239, Note_on_c, 9, 35, 0
1, 30239, Note_on_c, 9, 69, 0
1, 30240, Note_on_c, 9, 69, 68
1, 30240, Note_on_c, 9, 42, 95
1, 30240, Note_on_c, 9, 35, 112
1, 30479, Note_on_c, 9, 69, 0
1, 30479, Note_on_c, 9, 42, 0
1, 30480, Note_on_c, 9, 46, 84
1, 30494, Note_on_c, 9, 46, 0
1, 30495, Note_on_c, 9, 73, 79
1, 30539, Note_on_c, 9, 73, 0
1, 30600, Note_on_c, 9, 73, 79
1, 30719, Note_on_c, 9, 35, 0
1, 30719, Note_on_c, 9, 73, 0
1, 30735, Note_on_c, 9, 73, 79
1, 30735, Note_on_c, 9, 42, 85
1, 30735, Note_on_c, 9, 35, 122
1, 30959, Note_on_c, 9, 73, 0
1, 30959, Note_on_c, 9, 42, 0
1, 30959, Note_on_c, 9, 35, 0
1, 30975, Note_on_c, 9, 42, 81
1, 31199, Note_on_c, 9, 42, 0
1, 31215, Note_on_c, 9, 38, 125
1, 31215, Note_on_c, 9, 42, 82
1, 31439, Note_on_c, 9, 38, 0
1, 31439, Note_on_c, 9, 42, 0
1, 31455, Note_on_c, 9, 42, 78
1, 31679, Note_on_c, 9, 42, 0
1, 31695, Note_on_c, 9, 42, 78
1, 31695, Note_on_c, 9, 35, 107
1, 31919, Note_on_c, 9, 42, 0
1, 31919, Note_on_c, 9, 35, 0
1, 31935, Note_on_c, 9, 42, 78
1, 32159, Note_on_c, 9, 42, 0
1, 32175, Note_on_c, 9, 38, 127
1, 32175, Note_on_c, 9, 42, 81
1, 32399, Note_on_c, 9, 38, 0
1, 32399, Note_on_c, 9, 42, 0
1, 32430, Note_on_c, 9, 42, 77
1, 32519, Note_on_c, 9, 42, 0
1, 32670, Note_on_c, 9, 42, 78
1, 32670, Note_on_c, 9, 35, 116
1, 32759, Note_on_c, 9, 42, 0
1, 32895, Note_on_c, 9, 42, 73
1, 33119, Note_on_c, 9, 35, 0
1, 33119, Note_on_c, 9, 42, 0
1, 33120, Note_on_c, 9, 38, 122
1, 33120, Note_on_c, 9, 42, 84
1, 33359, Note_on_c, 9, 38, 0
1, 33359, Note_on_c, 9, 42, 0
1, 33375, Note_on_c, 9, 42, 70
1, 33599, Note_on_c, 9, 42, 0
1, 33615, Note_on_c, 9, 42, 78
1, 33615, Note_on_c, 9, 35, 113
1, 33839, Note_on_c, 9, 42, 0
1, 33839, Note_on_c, 9, 35, 0
1, 33855, Note_on_c, 9, 69, 84
1, 33855, Note_on_c, 9, 42, 72
1, 33899, Note_on_c, 9, 69, 0
1, 33899, Note_on_c, 9, 42, 0
1, 33975, Note_on_c, 9, 69, 79
1, 34019, Note_on_c, 9, 69, 0
1, 34080, Note_on_c, 9, 38, 127
1, 34080, Note_on_c, 9, 69, 76
1, 34080, Note_on_c, 9, 42, 85
1, 34319, Note_on_c, 9, 38, 0
1, 34319, Note_on_c, 9, 69, 0
1, 34319, Note_on_c, 9, 42, 0
1, 34320, Note_on_c, 9, 42, 72
1, 34334, Note_on_c, 9, 42, 0
1, 34335, Note_on_c, 9, 73, 81
1, 34379, Note_on_c, 9, 73, 0
1, 34440, Note_on_c, 9, 73, 67
1, 34559, Note_on_c, 9, 73, 0
1, 34560, Note_on_c, 9, 73, 81
1, 34574, Note_on_c, 9, 73, 0
1, 34575, Note_on_c, 9, 42, 79
1, 34575, Note_on_c, 9, 35, 114
1, 34799, Note_on_c, 9, 42, 0
1, 34799, Note_on_c, 9, 35, 0
1, 34800, Note_on_c, 9, 42, 69
1, 35039, Note_on_c, 9, 42, 0
1, 35040, Note_on_c, 9, 38, 125
1, 35040, Note_on_c, 9, 42, 81
1, 35279, Note_on_c, 9, 38, 0
1, 35279, Note_on_c, 9, 42, 0
1, 35280, Note_on_c, 9, 42, 78
1, 35519, Note_on_c, 9, 42, 0
1, 35535, Note_on_c, 9, 42, 78
1, 35535, Note_on_c, 9, 35, 115
1, 35759, Note_on_c, 9, 42, 0
1, 35759, Note_on_c, 9, 35, 0
1, 35775, Note_on_c, 9, 42, 73
1, 35999, Note_on_c, 9, 42, 0
1, 36015, Note_on_c, 9, 38, 127
1, 36015, Note_on_c, 9, 42, 85
1, 36239, Note_on_c, 9, 38, 0
1, 36239, Note_on_c, 9, 42, 0
1, 36240, Note_on_c, 9, 42, 78
1, 36479, Note_on_c, 9, 42, 0
1, 36495, Note_on_c, 9, 42, 81
1, 36495, Note_on_c, 9, 35, 117
1, 36719, Note_on_c, 9, 42, 0
1, 36719, Note_on_c, 9, 35, 0
1, 36720, Note_on_c, 9, 42, 78
1, 36959, Note_on_c, 9, 42, 0
1, 36975, Note_on_c, 9, 38, 127
1, 36975, Note_on_c, 9, 42, 82
1, 37199, Note_on_c, 9, 38, 0
1, 37199, Note_on_c, 9, 42, 0
1, 37215, Note_on_c, 9, 42, 74
1, 37439, Note_on_c, 9, 42, 0
1, 37455, Note_on_c, 9, 42, 81
1, 37455, Note_on_c, 9, 35, 115
1, 37679, Note_on_c, 9, 42, 0
1, 37679, Note_on_c, 9, 35, 0
1, 37695, Note_on_c, 9, 69, 88
1, 37695, Note_on_c, 9, 42, 78
1, 37739, Note_on_c, 9, 69, 0
1, 37739, Note_on_c, 9, 42, 0
1, 37815, Note_on_c, 9, 69, 76
1, 37859, Note_on_c, 9, 69, 0
1, 37935, Note_on_c, 9, 38, 124
1, 37935, Note_on_c, 9, 69, 86
1, 37935, Note_on_c, 9, 42, 89
1, 38159, Note_on_c, 9, 38, 0
1, 38159, Note_on_c, 9, 69, 0
1, 38159, Note_on_c, 9, 42, 0
1, 38160, Note_on_c, 9, 46, 84
1, 38174, Note_on_c, 9, 46, 0
1, 38175, Note_on_c, 9, 73, 89
1, 38219, Note_on_c, 9, 73, 0
1, 38295, Note_on_c, 9, 73, 75
1, 38339, Note_on_c, 9, 73, 0
1, 38415, Note_on_c, 9, 73, 82
1, 38415, Note_on_c, 9, 42, 88
1, 38415, Note_on_c, 9, 35, 118
1, 38639, Note_on_c, 9, 73, 0
1, 38639, Note_on_c, 9, 42, 0
1, 38639, Note_on_c, 9, 35, 0
1, 38640, Note_on_c, 9, 42, 78
1, 38879, Note_on_c, 9, 42, 0
1, 38895, Note_on_c, 9, 38, 125
1, 38895, Note_on_c, 9, 42, 89
1, 39119, Note_on_c, 9, 38, 0
1, 39119, Note_on_c, 9, 42, 0
1, 39135, Note_on_c, 9, 42, 78
1, 39359, Note_on_c, 9, 42, 0
1, 39375, Note_on_c, 9, 42, 82
1, 39375, Note_on_c, 9, 35, 116
1, 39599, Note_on_c, 9, 42, 0
1, 39599, Note_on_c, 9, 35, 0
1, 39615, Note_on_c, 9, 42, 76
1, 39839, Note_on_c, 9, 42, 0
1, 39855, Note_on_c, 9, 38, 122
1, 39855, Note_on_c, 9, 42, 83
1, 40079, Note_on_c, 9, 38, 0
1, 40079, Note_on_c, 9, 42, 0
1, 40095, Note_on_c, 9, 42, 72
1, 40319, Note_on_c, 9, 42, 0
1, 40335, Note_on_c, 9, 42, 84
1, 40335, Note_on_c, 9, 35, 115
1, 40559, Note_on_c, 9, 42, 0
1, 40559, Note_on_c, 9, 35, 0
1, 40575, Note_on_c, 9, 42, 74
1, 40799, Note_on_c, 9, 42, 0
1, 40815, Note_on_c, 9, 38, 125
1, 40815, Note_on_c, 9, 42, 85
1, 41039, Note_on_c, 9, 38, 0
1, 41039, Note_on_c, 9, 42, 0
1, 41070, Note_on_c, 9, 42, 78
1, 41159, Note_on_c, 9, 42, 0
1, 41325, Note_on_c, 9, 42, 78
1, 41325, Note_on_c, 9, 35, 115
1, 41519, Note_on_c, 9, 42, 0
1, 41519, Note_on_c, 9, 35, 0
1, 41535, Note_on_c, 9, 69, 88
1, 41549, Note_on_c, 9, 69, 0
1, 41550, Note_on_c, 9, 42, 78
1, 41639, Note_on_c, 9, 42, 0
1, 41640, Note_on_c, 9, 69, 75
1, 41759, Note_on_c, 9, 69, 0
1, 41760, Note_on_c, 9, 69, 90
1, 41774, Note_on_c, 9, 69, 0
1, 41775, Note_on_c, 9, 38, 123
1, 41775, Note_on_c, 9, 42, 83
1, 41999, Note_on_c, 9, 38, 0
1, 41999, Note_on_c, 9, 42, 0
1, 42015, Note_on_c, 9, 73, 107
1, 42015, Note_on_c, 9, 42, 76
1, 42059, Note_on_c, 9, 73, 0
1, 42059, Note_on_c, 9, 42, 0
1, 42135, Note_on_c, 9, 73, 95
1, 42179, Note_on_c, 9, 73, 0
1, 42255, Note_on_c, 9, 73, 107
1, 42255, Note_on_c, 9, 42, 81
1, 42255, Note_on_c, 9, 35, 116
1, 42479, Note_on_c, 9, 73, 0
1, 42479, Note_on_c, 9, 42, 0
1, 42479, Note_on_c, 9, 35, 0
1, 42495, Note_on_c, 9, 42, 78
1, 42719, Note_on_c, 9, 42, 0
1, 42735, Note_on_c, 9, 38, 125
1, 42735, Note_on_c, 9, 42, 81
1, 42959, Note_on_c, 9, 38, 0
1, 42959, Note_on_c, 9, 42, 0
1, 42975, Note_on_c, 9, 42, 77
1, 43199, Note_on_c, 9, 42, 0
1, 43215, Note_on_c, 9, 42, 84
1, 43215, Note_on_c, 9, 35, 117
1, 43439, Note_on_c, 9, 42, 0
1, 43439, Note_on_c, 9, 35, 0
1, 43455, Note_on_c, 9, 42, 79
1, 43679, Note_on_c, 9, 42, 0
1, 43695, Note_on_c, 9, 38, 125
1, 43695, Note_on_c, 9, 42, 83
1, 43919, Note_on_c, 9, 38, 0
1, 43919, Note_on_c, 9, 42, 0
1, 43920, Note_on_c, 9, 42, 74
1, 44159, Note_on_c, 9, 42, 0
1, 44160, Note_on_c, 9, 42, 85
1, 44160, Note_on_c, 9, 35, 117
1, 44399, Note_on_c, 9, 42, 0
1, 44415, Note_on_c, 9, 42, 77
1, 44639, Note_on_c, 9, 35, 0
1, 44639, Note_on_c, 9, 42, 0
1, 44640, Note_on_c, 9, 38, 125
1, 44640, Note_on_c, 9, 42, 83
1, 44879, Note_on_c, 9, 38, 0
1, 44879, Note_on_c, 9, 42, 0
1, 44895, Note_on_c, 9, 42, 82
1, 45119, Note_on_c, 9, 42, 0
1, 45120, Note_on_c, 9, 42, 88
1, 45120, Note_on_c, 9, 35, 116
1, 45359, Note_on_c, 9, 42, 0
1, 45359, Note_on_c, 9, 35, 0
1, 45360, Note_on_c, 9, 69, 100
1, 45374, Note_on_c, 9, 69, 0
1, 45375, Note_on_c, 9, 38, 127
1, 45375, Note_on_c, 9, 42, 78
1, 45375, Note_on_c, 9, 43, 106
1, 45419, Note_on_c, 9, 38, 0
1, 45419, Note_on_c, 9, 42, 0
1, 45480, Note_on_c, 9, 69, 90
1, 45599, Note_on_c, 9, 43, 0
1, 45599, Note_on_c, 9, 69, 0
1, 45600, Note_on_c, 9, 69, 91
1, 45614, Note_on_c, 9, 69, 0
1, 45615, Note_on_c, 9, 42, 86
1, 45839, Note_on_c, 9, 42, 0
1, 45870, Note_on_c, 9, 38, 127
1, 45870, Note_on_c, 9, 46, 88
1, 45870, Note_on_c, 9, 73, 113
1, 45870, Note_on_c, 9, 43, 106
1, 45959, Note_on_c, 9, 38, 0
1, 45959, Note_on_c, 9, 46, 0
1, 45959, Note_on_c, 9, 73, 0
1, 45959, Note_on_c, 9, 43, 0
1, 45990, Note_on_c, 9, 73, 97
1, 46079, Note_on_c, 9, 73, 0
1, 46125, Note_on_c, 9, 73, 101
1, 46125, Note_on_c, 9, 49, 89
1, 46125, Note_on_c, 9, 44, 93
1, 46125, Note_on_c, 9, 35, 119
1, 46319, Note_on_c, 9, 73, 0
1, 46319, Note_on_c, 9, 49, 0
1, 46319, Note_on_c, 9, 44, 0
1, 46319, Note_on_c, 9, 35, 0
1, 46350, Note_on_c, 9, 42, 77
1, 46439, Note_on_c, 9, 42, 0
1, 46560, Note_on_c, 9, 38, 123
1, 46560, Note_on_c, 9, 42, 56
1, 46799, Note_on_c, 9, 38, 0
1, 46799, Note_on_c, 9, 42, 0
1, 46830, Note_on_c, 9, 42, 65
1, 46919, Note_on_c, 9, 42, 0
1, 47055, Note_on_c, 9, 42, 69
1, 47055, Note_on_c, 9, 35, 114
1, 47279, Note_on_c, 9, 42, 0
1, 47279, Note_on_c, 9, 35, 0
1, 47310, Note_on_c, 9, 42, 75
1, 47399, Note_on_c, 9, 42, 0
1, 47535, Note_on_c, 9, 38, 127
1, 47535, Note_on_c, 9, 42, 76
1, 47759, Note_on_c, 9, 38, 0
1, 47759, Note_on_c, 9, 42, 0
1, 47775, Note_on_c, 9, 42, 68
1, 47999, Note_on_c, 9, 42, 0
1, 48045, Note_on_c, 9, 42, 77
1, 48045, Note_on_c, 9, 35, 115
1, 48239, Note_on_c, 9, 42, 0
1, 48239, Note_on_c, 9, 35, 0
1, 48255, Note_on_c, 9, 42, 69
1, 48479, Note_on_c, 9, 42, 0
1, 48495, Note_on_c, 9, 38, 126
1, 48495, Note_on_c, 9, 42, 78
1, 48719, Note_on_c, 9, 38, 0
1, 48719, Note_on_c, 9, 42, 0
1, 48735, Note_on_c, 9, 42, 74
1, 48959, Note_on_c, 9, 42, 0
1, 48975, Note_on_c, 9, 42, 78
1, 48975, Note_on_c, 9, 35, 118
1, 49199, Note_on_c, 9, 42, 0
1, 49199, Note_on_c, 9, 35, 0
1, 49215, Note_on_c, 9, 69, 91
1, 49215, Note_on_c, 9, 42, 71
1, 49259, Note_on_c, 9, 69, 0
1, 49259, Note_on_c, 9, 42, 0
1, 49335, Note_on_c, 9, 69, 78
1, 49379, Note_on_c, 9, 69, 0
1, 49455, Note_on_c, 9, 38, 126
1, 49455, Note_on_c, 9, 69, 68
1, 49455, Note_on_c, 9, 42, 79
1, 49679, Note_on_c, 9, 38, 0
1, 49679, Note_on_c, 9, 69, 0
1, 49679, Note_on_c, 9, 42, 0
1, 49695, Note_on_c, 9, 73, 93
1, 49695, Note_on_c, 9, 42, 66
1, 49739, Note_on_c, 9, 73, 0
1, 49739, Note_on_c, 9, 42, 0
1, 49815, Note_on_c, 9, 73, 85
1, 49859, Note_on_c, 9, 73, 0
1, 49935, Note_on_c, 9, 73, 70
1, 49935, Note_on_c, 9, 42, 78
1, 49935, Note_on_c, 9, 35, 117
1, 50159, Note_on_c, 9, 73, 0
1, 50159, Note_on_c, 9, 42, 0
1, 50159, Note_on_c, 9, 35, 0
1, 50175, Note_on_c, 9, 42, 69
1, 50399, Note_on_c, 9, 42, 0
1, 50415, Note_on_c, 9, 38, 127
1, 50415, Note_on_c, 9, 42, 78
1, 50639, Note_on_c, 9, 38, 0
1, 50639, Note_on_c, 9, 42, 0
1, 50640, Note_on_c, 9, 42, 72
1, 50879, Note_on_c, 9, 42, 0
1, 50895, Note_on_c, 9, 42, 74
1, 50895, Note_on_c, 9, 35, 118
1, 51119, Note_on_c, 9, 42, 0
1, 51119, Note_on_c, 9, 35, 0
1, 51120, Note_on_c, 9, 42, 70
1, 51359, Note_on_c, 9, 42, 0
1, 51375, Note_on_c, 9, 38, 124
1, 51375, Note_on_c, 9, 42, 76
1, 51599, Note_on_c, 9, 38, 0
1, 51599, Note_on_c, 9, 42, 0
1, 51615, Note_on_c, 9, 42, 70
1, 51839, Note_on_c, 9, 42, 0
1, 51870, Note_on_c, 9, 42, 78
1, 51870, Note_on_c, 9, 35, 116
1, 51959, Note_on_c, 9, 42, 0
1, 52095, Note_on_c, 9, 42, 67
1, 52319, Note_on_c, 9, 35, 0
1, 52319, Note_on_c, 9, 42, 0
1, 52335, Note_on_c, 9, 38, 126
1, 52335, Note_on_c, 9, 42, 79
1, 52559, Note_on_c, 9, 38, 0
1, 52559, Note_on_c, 9, 42, 0
1, 52575, Note_on_c, 9, 42, 71
1, 52799, Note_on_c, 9, 42, 0
1, 52800, Note_on_c, 9, 42, 74
1, 52800, Note_on_c, 9, 35, 110
1, 53039, Note_on_c, 9, 42, 0
1, 53039, Note_on_c, 9, 35, 0
1, 53055, Note_on_c, 9, 38, 127
1, 53055, Note_on_c, 9, 69, 94
1, 53055, Note_on_c, 9, 42, 77
1, 53055, Note_on_c, 9, 43, 105
1, 53099, Note_on_c, 9, 38, 0
1, 53099, Note_on_c, 9, 69, 0
1, 53099, Note_on_c, 9, 42, 0
1, 53175, Note_on_c, 9, 69, 94
1, 53219, Note_on_c, 9, 69, 0
1, 53279, Note_on_c, 9, 43, 0
1, 53280, Note_on_c, 9, 69, 80
1, 53294, Note_on_c, 9, 69, 0
1, 53295, Note_on_c, 9, 38, 127
1, 53295, Note_on_c, 9, 42, 86
1, 53295, Note_on_c, 9, 43, 106
1, 53519, Note_on_c, 9, 38, 0
1, 53519, Note_on_c, 9, 42, 0
1, 53519, Note_on_c, 9, 43, 0
1, 53535, Note_on_c, 9, 38, 127
1, 53535, Note_on_c, 9, 46, 88
1, 53535, Note_on_c, 9, 73, 87
1, 53535, Note_on_c, 9, 43, 106
1, 53579, Note_on_c, 9, 38, 0
1, 53579, Note_on_c, 9, 46, 0
1, 53579, Note_on_c, 9, 73, 0
1, 53655, Note_on_c, 9, 73, 82
1, 53699, Note_on_c, 9, 73, 0
1, 53759, Note_on_c, 9, 43, 0
1, 53775, Note_on_c, 9, 73, 81
1, 53775, Note_on_c, 9, 49, 87
1, 53775, Note_on_c, 9, 44, 78
1, 53789, Note_on_c, 9, 44, 0
1, 53790, Note_on_c, 9, 35, 118
1, 53999, Note_on_c, 9, 73, 0
1, 53999, Note_on_c, 9, 49, 0
1, 54000, Note_on_c, 9, 42, 78
1, 54239, Note_on_c, 9, 35, 0
1, 54239, Note_on_c, 9, 42, 0
1, 54240, Note_on_c, 9, 38, 122
1, 54240, Note_on_c, 9, 42, 72
1, 54479, Note_on_c, 9, 38, 0
1, 54479, Note_on_c, 9, 42, 0
1, 54480, Note_on_c, 9, 42, 69
1, 54719, Note_on_c, 9, 42, 0
1, 54720, Note_on_c, 9, 42, 76
1, 54720, Note_on_c, 9, 35, 114
1, 54959, Note_on_c, 9, 42, 0
1, 54975, Note_on_c, 9, 42, 72
1, 55199, Note_on_c, 9, 35, 0
1, 55199, Note_on_c, 9, 42, 0
1, 55215, Note_on_c, 9, 38, 123
1, 55215, Note_on_c, 9, 42, 82
1, 55439, Note_on_c, 9, 38, 0
1, 55439, Note_on_c, 9, 42, 0
1, 55440, Note_on_c, 9, 42, 69
1, 55679, Note_on_c, 9, 42, 0
1, 55680, Note_on_c, 9, 42, 78
1, 55680, Note_on_c, 9, 35, 117
1, 55919, Note_on_c, 9, 42, 0
1, 55920, Note_on_c, 9, 42, 69
1, 56159, Note_on_c, 9, 35, 0
1, 56159, Note_on_c, 9, 42, 0
1, 56175, Note_on_c, 9, 38, 125
1, 56175, Note_on_c, 9, 42, 78
1, 56399, Note_on_c, 9, 38, 0
1, 56399, Note_on_c, 9, 42, 0
1, 56400, Note_on_c, 9, 42, 64
1, 56639, Note_on_c, 9, 42, 0
1, 56640, Note_on_c, 9, 42, 74
1, 56640, Note_on_c, 9, 35, 115
1, 56879, Note_on_c, 9, 42, 0
1, 56880, Note_on_c, 9, 69, 91
1, 56880, Note_on_c, 9, 42, 71
1, 56999, Note_on_c, 9, 69, 0
1, 56999, Note_on_c, 9, 42, 0
1, 57000, Note_on_c, 9, 69, 84
1, 57119, Note_on_c, 9, 35, 0
1, 57119, Note_on_c, 9, 69, 0
1, 57120, Note_on_c, 9, 38, 124
1, 57120, Note_on_c, 9, 69, 80
1, 57120, Note_on_c, 9, 42, 81
1, 57359, Note_on_c, 9, 38, 0
1, 57359, Note_on_c, 9, 69, 0
1, 57359, Note_on_c, 9, 42, 0
1, 57360, Note_on_c, 9, 73, 85
1, 57360, Note_on_c, 9, 42, 73
1, 57479, Note_on_c, 9, 73, 0
1, 57479, Note_on_c, 9, 42, 0
1, 57480, Note_on_c, 9, 73, 72
1, 57599, Note_on_c, 9, 73, 0
1, 57600, Note_on_c, 9, 73, 78
1, 57600, Note_on_c, 9, 42, 78
1, 57600, Note_on_c, 9, 35, 118
1, 57839, Note_on_c, 9, 73, 0
1, 57839, Note_on_c, 9, 42, 0
1, 57840, Note_on_c, 9, 42, 72
1, 58079, Note_on_c, 9, 35, 0
1, 58079, Note_on_c, 9, 42, 0
1, 58080, Note_on_c, 9, 38, 125
1, 58080, Note_on_c, 9, 42, 79
1, 58319, Note_on_c, 9, 38, 0
1, 58319, Note_on_c, 9, 42, 0
1, 58320, Note_on_c, 9, 42, 73
1, 58559, Note_on_c, 9, 42, 0
1, 58575, Note_on_c, 9, 42, 75
1, 58575, Note_on_c, 9, 35, 113
1, 58799, Note_on_c, 9, 42, 0
1, 58799, Note_on_c, 9, 35, 0
1, 58815, Note_on_c, 9, 42, 68
1, 59039, Note_on_c, 9, 42, 0
1, 59055, Note_on_c, 9, 38, 126
1, 59055, Note_on_c, 9, 42, 78
1, 59279, Note_on_c, 9, 38, 0
1, 59279, Note_on_c, 9, 42, 0
1, 59280, Note_on_c, 9, 42, 69
1, 59519, Note_on_c, 9, 42, 0
1, 59535, Note_on_c, 9, 42, 76
1, 59535, Note_on_c, 9, 35, 117
1, 59759, Note_on_c, 9, 42, 0
1, 59759, Note_on_c, 9, 35, 0
1, 59775, Note_on_c, 9, 42, 74
1, 59999, Note_on_c, 9, 42, 0
1, 60015, Note_on_c, 9, 38, 123
1, 60015, Note_on_c, 9, 42, 78
1, 60239, Note_on_c, 9, 38, 0
1, 60239, Note_on_c, 9, 42, 0
1, 60240, Note_on_c, 9, 42, 71
1, 60479, Note_on_c, 9, 42, 0
1, 60495, Note_on_c, 9, 42, 82
1, 60495, Note_on_c, 9, 35, 118
1, 60719, Note_on_c, 9, 42, 0
1, 60719, Note_on_c, 9, 35, 0
1, 60735, Note_on_c, 9, 69, 87
1, 60735, Note_on_c, 9, 42, 75
1, 60779, Note_on_c, 9, 69, 0
1, 60779, Note_on_c, 9, 42, 0
1, 60840, Note_on_c, 9, 69, 91
1, 60959, Note_on_c, 9, 69, 0
1, 60960, Note_on_c, 9, 69, 77
1, 60974, Note_on_c, 9, 69, 0
1, 60975, Note_on_c, 9, 38, 127
1, 60975, Note_on_c, 9, 42, 89
1, 60975, Note_on_c, 9, 43, 104
1, 61199, Note_on_c, 9, 38, 0
1, 61199, Note_on_c, 9, 42, 0
1, 61199, Note_on_c, 9, 43, 0
1, 61215, Note_on_c, 9, 38, 127
1, 61215, Note_on_c, 9, 46, 82
1, 61215, Note_on_c, 9, 73, 89
1, 61215, Note_on_c, 9, 43, 106
1, 61259, Note_on_c, 9, 38, 0
1, 61259, Note_on_c, 9, 46, 0
1, 61259, Note_on_c, 9, 73, 0
1, 61320, Note_on_c, 9, 73, 72
1, 61439, Note_on_c, 9, 43, 0
1, 61439, Note_on_c, 9, 73, 0
1, 61440, Note_on_c, 9, 49, 67
1, 61454, Note_on_c, 9, 49, 0
1, 61455, Note_on_c, 9, 73, 79
1, 61455, Note_on_c, 9, 44, 85
1, 61455, Note_on_c, 9, 35, 119
1, 61679, Note_on_c, 9, 73, 0
1, 61679, Note_on_c, 9, 44, 0
1, 61679, Note_on_c, 9, 35, 0
1, 61695, Note_on_c, 9, 42, 65
1, 61919, Note_on_c, 9, 42, 0
1, 61935, Note_on_c, 9, 38, 122
1, 61935, Note_on_c, 9, 42, 83
1, 62159, Note_on_c, 9, 38, 0
1, 62159, Note_on_c, 9, 42, 0
1, 62175, Note_on_c, 9, 42, 75
1, 62399, Note_on_c, 9, 42, 0
1, 62415, Note_on_c, 9, 42, 79
1, 62415, Note_on_c, 9, 35, 116
1, 62639, Note_on_c, 9, 42, 0
1, 62639, Note_on_c, 9, 35, 0
1, 62655, Note_on_c, 9, 42, 72
1, 62879, Note_on_c, 9, 42, 0
1, 62895, Note_on_c, 9, 38, 126
1, 62895, Note_on_c, 9, 42, 82
1, 63119, Note_on_c, 9, 38, 0
1, 63119, Note_on_c, 9, 42, 0
1, 63135, Note_on_c, 9, 42, 72
1, 63359, Note_on_c, 9, 42, 0
1, 63375, Note_on_c, 9, 42, 81
1, 63375, Note_on_c, 9, 35, 117
1, 63599, Note_on_c, 9, 42, 0
1, 63599, Note_on_c, 9, 35, 0
1, 63600, Note_on_c, 9, 42, 71
1, 63839, Note_on_c, 9, 42, 0
1, 63855, Note_on_c, 9, 38, 126
1, 63855, Note_on_c, 9, 42, 82
1, 64079, Note_on_c, 9, 38, 0
1, 64079, Note_on_c, 9, 42, 0
1, 64080, Note_on_c, 9, 42, 71
1, 64319, Note_on_c, 9, 42, 0
1, 64335, Note_on_c, 9, 42, 78
1, 64335, Note_on_c, 9, 35, 120
1, 64559, Note_on_c, 9, 42, 0
1, 64559, Note_on_c, 9, 35, 0
1, 64560, Note_on_c, 9, 42, 74
1, 64574, Note_on_c, 9, 42, 0
1, 64575, Note_on_c, 9, 69, 67
1, 64619, Note_on_c, 9, 69, 0
1, 64680, Note_on_c, 9, 69, 81
1, 64799, Note_on_c, 9, 69, 0
1, 64800, Note_on_c, 9, 69, 84
1, 64814, Note_on_c, 9, 69, 0
1, 64815, Note_on_c, 9, 38, 126
1, 64815, Note_on_c, 9, 42, 82
1, 65039, Note_on_c, 9, 38, 0
1, 65039, Note_on_c, 9, 42, 0
1, 65055, Note_on_c, 9, 73, 85
1, 65055, Note_on_c, 9, 42, 73
1, 65099, Note_on_c, 9, 73, 0
1, 65099, Note_on_c, 9, 42, 0
1, 65175, Note_on_c, 9, 73, 79
1, 65219, Note_on_c, 9, 73, 0
1, 65295, Note_on_c, 9, 73, 79
1, 65295, Note_on_c, 9, 42, 81
1, 65295, Note_on_c, 9, 35, 114
1, 65519, Note_on_c, 9, 73, 0
1, 65519, Note_on_c, 9, 42, 0
1, 65519, Note_on_c, 9, 35, 0
1, 65535, Note_on_c, 9, 42, 76
1, 65759, Note_on_c, 9, 42, 0
1, 65760, Note_on_c, 9, 38, 121
1, 65760, Note_on_c, 9, 42, 81
1, 65999, Note_on_c, 9, 38, 0
1, 65999, Note_on_c, 9, 42, 0
1, 66000, Note_on_c, 9, 42, 77
1, 66239, Note_on_c, 9, 42, 0
1, 66255, Note_on_c, 9, 42, 79
1, 66255, Note_on_c, 9, 35, 118
1, 66479, Note_on_c, 9, 42, 0
1, 66479, Note_on_c, 9, 35, 0
1, 66480, Note_on_c, 9, 42, 77
1, 66719, Note_on_c, 9, 42, 0
1, 66735, Note_on_c, 9, 38, 125
1, 66735, Note_on_c, 9, 42, 81
1, 66959, Note_on_c, 9, 38, 0
1, 66959, Note_on_c, 9, 42, 0
1, 66960, Note_on_c, 9, 42, 71
1, 67199, Note_on_c, 9, 42, 0
1, 67200, Note_on_c, 9, 42, 78
1, 67215, Note_on_c, 9, 35, 116
1, 67439, Note_on_c, 9, 42, 0
1, 67439, Note_on_c, 9, 35, 0
1, 67455, Note_on_c, 9, 42, 75
1, 67679, Note_on_c, 9, 42, 0
1, 67695, Note_on_c, 9, 38, 126
1, 67695, Note_on_c, 9, 42, 78
1, 67919, Note_on_c, 9, 38, 0
1, 67919, Note_on_c, 9, 42, 0
1, 67935, Note_on_c, 9, 42, 77
1, 68159, Note_on_c, 9, 42, 0
1, 68175, Note_on_c, 9, 38, 125
1, 68175, Note_on_c, 9, 42, 84
1, 68175, Note_on_c, 9, 35, 119
1, 68175, Note_on_c, 9, 43, 100
1, 68399, Note_on_c, 9, 38, 0
1, 68399, Note_on_c, 9, 42, 0
1, 68399, Note_on_c, 9, 35, 0
1, 68399, Note_on_c, 9, 43, 0
1, 68400, Note_on_c, 9, 38, 119
1, 68400, Note_on_c, 9, 69, 97
1, 68400, Note_on_c, 9, 43, 94
1, 68519, Note_on_c, 9, 38, 0
1, 68519, Note_on_c, 9, 69, 0
1, 68535, Note_on_c, 9, 69, 73
1, 68579, Note_on_c, 9, 69, 0
1, 68639, Note_on_c, 9, 43, 0
1, 68640, Note_on_c, 9, 38, 123
1, 68640, Note_on_c, 9, 69, 68
1, 68640, Note_on_c, 9, 43, 98
1, 68879, Note_on_c, 9, 38, 0
1, 68879, Note_on_c, 9, 69, 0
1, 68879, Note_on_c, 9, 43, 0
1, 68895, Note_on_c, 9, 38, 127
1, 68895, Note_on_c, 9, 46, 95
1, 68895, Note_on_c, 9, 73, 79
1, 68895, Note_on_c, 9, 43, 106
1, 68939, Note_on_c, 9, 38, 0
1, 68939, Note_on_c, 9, 46, 0
1, 68939, Note_on_c, 9, 73, 0
1, 69015, Note_on_c, 9, 73, 79
1, 69059, Note_on_c, 9, 73, 0
1, 69119, Note_on_c, 9, 43, 0
1, 69150, Note_on_c, 9, 73, 79
1, 69150, Note_on_c, 9, 49, 81
1, 69150, Note_on_c, 9, 44, 89
1, 69150, Note_on_c, 9, 35, 120
1, 69239, Note_on_c, 9, 73, 0
1, 69239, Note_on_c, 9, 49, 0
1, 69375, Note_on_c, 9, 42, 74
1, 69599, Note_on_c, 9, 44, 0
1, 69599, Note_on_c, 9, 35, 0
1, 69599, Note_on_c, 9, 42, 0
1, 69600, Note_on_c, 9, 38, 122
1, 69600, Note_on_c, 9, 42, 74
1, 69839, Note_on_c, 9, 38, 0
1, 69839, Note_on_c, 9, 42, 0
1, 69840, Note_on_c, 9, 42, 70
1, 70079, Note_on_c, 9, 42, 0
1, 70080, Note_on_c, 9, 42, 74
1, 70080, Note_on_c, 9, 35, 110
1, 70319, Note_on_c, 9, 42, 0
1, 70320, Note_on_c, 9, 42, 69
1, 70559, Note_on_c, 9, 35, 0
1, 70559, Note_on_c, 9, 42, 0
1, 70575, Note_on_c, 9, 38, 120
1, 70575, Note_on_c, 9, 42, 78
1, 70799, Note_on_c, 9, 38, 0
1, 70799, Note_on_c, 9, 42, 0
1, 70830, Note_on_c, 9, 42, 74
1, 70919, Note_on_c, 9, 42, 0
1, 71085, Note_on_c, 9, 42, 78
1, 71085, Note_on_c, 9, 35, 112
1, 71279, Note_on_c, 9, 42, 0
1, 71279, Note_on_c, 9, 35, 0
1, 71340, Note_on_c, 9, 42, 71
1, 71519, Note_on_c, 9, 42, 0
1, 71580, Note_on_c, 9, 38, 119
1, 71580, Note_on_c, 9, 42, 78
1, 71759, Note_on_c, 9, 38, 0
1, 71759, Note_on_c, 9, 42, 0
1, 71790, Note_on_c, 9, 42, 71
1, 71969, Note_on_c, 9, 42, 0
1, 71985, Note_on_c, 9, 42, 89
1, 71985, Note_on_c, 9, 35, 113
1, 71999, Note_on_c, 9, 42, 0
1, 71999, Note_on_c, 9, 35, 0
1, 72240, Note_on_c, 9, 46, 90
1, 72240, Note_on_c, 9, 69, 84
1, 72359, Note_on_c, 9, 46, 0
1, 72359, Note_on_c, 9, 69, 0
1, 72375, Note_on_c, 9, 69, 79
1, 72419, Note_on_c, 9, 69, 0
1, 72495, Note_on_c, 9, 38, 123
1, 72495, Note_on_c, 9, 69, 76
1, 72495, Note_on_c, 9, 42, 77
1, 72719, Note_on_c, 9, 38, 0
1, 72719, Note_on_c, 9, 69, 0
1, 72719, Note_on_c, 9, 42, 0
1, 72720, Note_on_c, 9, 46, 83
1, 72734, Note_on_c, 9, 46, 0
1, 72735, Note_on_c, 9, 73, 81
1, 72779, Note_on_c, 9, 73, 0
1, 72855, Note_on_c, 9, 73, 67
1, 72899, Note_on_c, 9, 73, 0
1, 72975, Note_on_c, 9, 73, 81
1, 72975, Note_on_c, 9, 42, 81
1, 72975, Note_on_c, 9, 35, 111
1, 73199, Note_on_c, 9, 73, 0
1, 73199, Note_on_c, 9, 42, 0
1, 73199, Note_on_c, 9, 35, 0
1, 73200, Note_on_c, 9, 42, 69
1, 73439, Note_on_c, 9, 42, 0
1, 73440, Note_on_c, 9, 38, 118
1, 73440, Note_on_c, 9, 42, 78
1, 73679, Note_on_c, 9, 38, 0
1, 73679, Note_on_c, 9, 42, 0
1, 73695, Note_on_c, 9, 42, 75
1, 73919, Note_on_c, 9, 42, 0
1, 73935, Note_on_c, 9, 42, 75
1, 73935, Note_on_c, 9, 35, 114
1, 74159, Note_on_c, 9, 42, 0
1, 74159, Note_on_c, 9, 35, 0
1, 74160, Note_on_c, 9, 42, 71
1, 74399, Note_on_c, 9, 42, 0
1, 74400, Note_on_c, 9, 38, 119
1, 74400, Note_on_c, 9, 42, 74
1, 74639, Note_on_c, 9, 38, 0
1, 74639, Note_on_c, 9, 42, 0
1, 74640, Note_on_c, 9, 42, 76
1, 74879, Note_on_c, 9, 42, 0
1, 74925, Note_on_c, 9, 42, 79
1, 74925, Note_on_c, 9, 35, 109
1, 75119, Note_on_c, 9, 42, 0
1, 75119, Note_on_c, 9, 35, 0
1, 75135, Note_on_c, 9, 42, 72
1, 75359, Note_on_c, 9, 42, 0
1, 75360, Note_on_c, 9, 38, 119
1, 75360, Note_on_c, 9, 42, 78
1, 75599, Note_on_c, 9, 38, 0
1, 75599, Note_on_c, 9, 42, 0
1, 75600, Note_on_c, 9, 42, 77
1, 75839, Note_on_c, 9, 42, 0
1, 75840, Note_on_c, 9, 42, 82
1, 75840, Note_on_c, 9, 35, 110
1, 76079, Note_on_c, 9, 42, 0
1, 76080, Note_on_c, 9, 46, 82
1, 76080, Note_on_c, 9, 69, 88
1, 76199, Note_on_c, 9, 46, 0
1, 76199, Note_on_c, 9, 69, 0
1, 76200, Note_on_c, 9, 69, 76
1, 76319, Note_on_c, 9, 35, 0
1, 76319, Note_on_c, 9, 69, 0
1, 76320, Note_on_c, 9, 38, 121
1, 76320, Note_on_c, 9, 69, 86
1, 76320, Note_on_c, 9, 42, 83
1, 76559, Note_on_c, 9, 38, 0
1, 76559, Note_on_c, 9, 69, 0
1, 76559, Note_on_c, 9, 42, 0
1, 76575, Note_on_c, 9, 46, 78
1, 76589, Note_on_c, 9, 46, 0
1, 76590, Note_on_c, 9, 73, 89
1, 76679, Note_on_c, 9, 73, 0
1, 76710, Note_on_c, 9, 73, 75
1, 76799, Note_on_c, 9, 73, 0
1, 76815, Note_on_c, 9, 73, 82
1, 76815, Note_on_c, 9, 42, 85
1, 76815, Note_on_c, 9, 35, 112
1, 77039, Note_on_c, 9, 73, 0
1, 77039, Note_on_c, 9, 42, 0
1, 77039, Note_on_c, 9, 35, 0
1, 77055, Note_on_c, 9, 42, 73
1, 77279, Note_on_c, 9, 42, 0
1, 77280, Note_on_c, 9, 38, 120
1, 77280, Note_on_c, 9, 42, 82
1, 77519, Note_on_c, 9, 38, 0
1, 77519, Note_on_c, 9, 42, 0
1, 77535, Note_on_c, 9, 42, 73
1, 77759, Note_on_c, 9, 42, 0
1, 77775, Note_on_c, 9, 42, 78
1, 77775, Note_on_c, 9, 35, 112
1, 77999, Note_on_c, 9, 42, 0
1, 77999, Note_on_c, 9, 35, 0
1, 78000, Note_on_c, 9, 42, 72
1, 78239, Note_on_c, 9, 42, 0
1, 78240, Note_on_c, 9, 38, 118
1, 78240, Note_on_c, 9, 42, 84
1, 78479, Note_on_c, 9, 38, 0
1, 78479, Note_on_c, 9, 42, 0
1, 78495, Note_on_c, 9, 42, 78
1, 78719, Note_on_c, 9, 42, 0
1, 78750, Note_on_c, 9, 42, 81
1, 78750, Note_on_c, 9, 35, 113
1, 78839, Note_on_c, 9, 42, 0
1, 78975, Note_on_c, 9, 42, 70
1, 79199, Note_on_c, 9, 35, 0
1, 79199, Note_on_c, 9, 42, 0
1, 79215, Note_on_c, 9, 38, 118
1, 79215, Note_on_c, 9, 42, 84
1, 79439, Note_on_c, 9, 38, 0
1, 79439, Note_on_c, 9, 42, 0
1, 79440, Note_on_c, 9, 42, 78
1, 79679, Note_on_c, 9, 42, 0
1, 79680, Note_on_c, 9, 42, 88
1, 79680, Note_on_c, 9, 35, 113
1, 79919, Note_on_c, 9, 42, 0
1, 79920, Note_on_c, 9, 46, 86
1, 79920, Note_on_c, 9, 69, 88
1, 80039, Note_on_c, 9, 46, 0
1, 80039, Note_on_c, 9, 69, 0
1, 80040, Note_on_c, 9, 69, 75
1, 80159, Note_on_c, 9, 35, 0
1, 80159, Note_on_c, 9, 69, 0
1, 80160, Note_on_c, 9, 69, 90
1, 80174, Note_on_c, 9, 69, 0
1, 80175, Note_on_c, 9, 38, 120
1, 80175, Note_on_c, 9, 42, 83
1, 80399, Note_on_c, 9, 38, 0
1, 80399, Note_on_c, 9, 42, 0
1, 80415, Note_on_c, 9, 46, 83
1, 80415, Note_on_c, 9, 73, 107
1, 80459, Note_on_c, 9, 46, 0
1, 80459, Note_on_c, 9, 73, 0
1, 80535, Note_on_c, 9, 73, 95
1, 80579, Note_on_c, 9, 73, 0
1, 80655, Note_on_c, 9, 73, 107
1, 80655, Note_on_c, 9, 42, 85
1, 80655, Note_on_c, 9, 35, 112
1, 80879, Note_on_c, 9, 73, 0
1, 80879, Note_on_c, 9, 42, 0
1, 80879, Note_on_c, 9, 35, 0
1, 80895, Note_on_c, 9, 42, 73
1, 81119, Note_on_c, 9, 42, 0
1, 81120, Note_on_c, 9, 38, 119
1, 81120, Note_on_c, 9, 42, 79
1, 81359, Note_on_c, 9, 38, 0
1, 81359, Note_on_c, 9, 42, 0
1, 81360, Note_on_c, 9, 42, 78
1, 81599, Note_on_c, 9, 42, 0
1, 81615, Note_on_c, 9, 42, 78
1, 81615, Note_on_c, 9, 35, 114
1, 81839, Note_on_c, 9, 42, 0
1, 81839, Note_on_c, 9, 35, 0
1, 81840, Note_on_c, 9, 42, 72
1, 82079, Note_on_c, 9, 42, 0
1, 82095, Note_on_c, 9, 38, 121
1, 82095, Note_on_c, 9, 42, 78
1, 82319, Note_on_c, 9, 38, 0
1, 82319, Note_on_c, 9, 42, 0
1, 82335, Note_on_c, 9, 42, 73
1, 82559, Note_on_c, 9, 42, 0
1, 82590, Note_on_c, 9, 42, 79
1, 82590, Note_on_c, 9, 35, 119
1, 82679, Note_on_c, 9, 42, 0
1, 82679, Note_on_c, 9, 35, 0
1, 82815, Note_on_c, 9, 38, 123
1, 82815, Note_on_c, 9, 42, 72
1, 82815, Note_on_c, 9, 43, 98
1, 83039, Note_on_c, 9, 38, 0
1, 83039, Note_on_c, 9, 42, 0
1, 83039, Note_on_c, 9, 43, 0
1, 83040, Note_on_c, 9, 42, 84
1, 83279, Note_on_c, 9, 42, 0
1, 83295, Note_on_c, 9, 38, 113
1, 83295, Note_on_c, 9, 42, 78
1, 83295, Note_on_c, 9, 43, 88
1, 83519, Note_on_c, 9, 38, 0
1, 83519, Note_on_c, 9, 42, 0
1, 83519, Note_on_c, 9, 43, 0
1, 83535, Note_on_c, 9, 38, 127
1, 83535, Note_on_c, 9, 42, 81
1, 83535, Note_on_c, 9, 43, 106
1, 83759, Note_on_c, 9, 38, 0
1, 83759, Note_on_c, 9, 42, 0
1, 83759, Note_on_c, 9, 43, 0
1, 83775, Note_on_c, 9, 69, 100
1, 83775, Note_on_c, 9, 42, 67
1, 83819, Note_on_c, 9, 69, 0
1, 83819, Note_on_c, 9, 42, 0
1, 83880, Note_on_c, 9, 69, 90
1, 83999, Note_on_c, 9, 69, 0
1, 84000, Note_on_c, 9, 69, 91
1, 84014, Note_on_c, 9, 69, 0
1, 84015, Note_on_c, 9, 38, 118
1, 84015, Note_on_c, 9, 42, 78
1, 84015, Note_on_c, 9, 43, 93
1, 84239, Note_on_c, 9, 38, 0
1, 84239, Note_on_c, 9, 42, 0
1, 84239, Note_on_c, 9, 43, 0
1, 84240, Note_on_c, 9, 42, 67
1, 84254, Note_on_c, 9, 42, 0
1, 84255, Note_on_c, 9, 38, 127
1, 84255, Note_on_c, 9, 73, 113
1, 84255, Note_on_c, 9, 43, 104
1, 84299, Note_on_c, 9, 38, 0
1, 84299, Note_on_c, 9, 73, 0
1, 84375, Note_on_c, 9, 73, 97
1, 84419, Note_on_c, 9, 73, 0
1, 84479, Note_on_c, 9, 43, 0
1, 84495, Note_on_c, 9, 73, 101
1, 84495, Note_on_c, 9, 42, 74
1, 84495, Note_on_c, 9, 35, 114
1, 84719, Note_on_c, 9, 73, 0
1, 84719, Note_on_c, 9, 42, 0
1, 84719, Note_on_c, 9, 35, 0
1, 84720, Note_on_c, 9, 42, 69
1, 84959, Note_on_c, 9, 42, 0
1, 84960, Note_on_c, 9, 42, 77
1, 84975, Note_on_c, 9, 35, 111
1, 85199, Note_on_c, 9, 42, 0
1, 85199, Note_on_c, 9, 35, 0
1, 85200, Note_on_c, 9, 42, 72
1, 85439, Note_on_c, 9, 42, 0
1, 85455, Note_on_c, 9, 42, 71
1, 85455, Note_on_c, 9, 35, 114
1, 85679, Note_on_c, 9, 42, 0
1, 85679, Note_on_c, 9, 35, 0
1, 85680, Note_on_c, 9, 42, 67
1, 85919, Note_on_c, 9, 42, 0
1, 85920, Note_on_c, 9, 42, 77
1, 85920, Note_on_c, 9, 35, 111
1, 86159, Note_on_c, 9, 42, 0
1, 86160, Note_on_c, 9, 42, 72
1, 86399, Note_on_c, 9, 35, 0
1, 86399, Note_on_c, 9, 42, 0
1, 86415, Note_on_c, 9, 42, 78
1, 86415, Note_on_c, 9, 35, 111
1, 86639, Note_on_c, 9, 42, 0
1, 86639, Note_on_c, 9, 35, 0
1, 86655, Note_on_c, 9, 42, 71
1, 86879, Note_on_c, 9, 42, 0
1, 86910, Note_on_c, 9, 42, 78
1, 86910, Note_on_c, 9, 35, 115
1, 86999, Note_on_c, 9, 42, 0
1, 87135, Note_on_c, 9, 42, 66
1, 87359, Note_on_c, 9, 35, 0
1, 87359, Note_on_c, 9, 42, 0
1, 87375, Note_on_c, 9, 42, 72
1, 87375, Note_on_c, 9, 35, 114
1, 87599, Note_on_c, 9, 42, 0
1, 87599, Note_on_c, 9, 35, 0
1, 87600, Note_on_c, 9, 69, 91
1, 87600, Note_on_c, 9, 42, 66
1, 87719, Note_on_c, 9, 69, 0
1, 87719, Note_on_c, 9, 42, 0
1, 87720, Note_on_c, 9, 69, 78
1, 87839, Note_on_c, 9, 69, 0
1, 87840, Note_on_c, 9, 69, 68
1, 87854, Note_on_c, 9, 69, 0
1, 87855, Note_on_c, 9, 42, 76
1, 87855, Note_on_c, 9, 35, 115
1, 88079, Note_on_c, 9, 42, 0
1, 88079, Note_on_c, 9, 35, 0
1, 88080, Note_on_c, 9, 42, 69
1, 88094, Note_on_c, 9, 42, 0
1, 88095, Note_on_c, 9, 73, 93
1, 88139, Note_on_c, 9, 73, 0
1, 88200, Note_on_c, 9, 73, 85
1, 88319, Note_on_c, 9, 73, 0
1, 88335, Note_on_c, 9, 73, 70
1, 88335, Note_on_c, 9, 42, 78
1, 88335, Note_on_c, 9, 35, 110
1, 88559, Note_on_c, 9, 73, 0
1, 88559, Note_on_c, 9, 42, 0
1, 88559, Note_on_c, 9, 35, 0
1, 88560, Note_on_c, 9, 42, 71
1, 88799, Note_on_c, 9, 42, 0
1, 88800, Note_on_c, 9, 42, 75
1, 88800, Note_on_c, 9, 35, 114
1, 89039, Note_on_c, 9, 42, 0
1, 89040, Note_on_c, 9, 42, 68
1, 89279, Note_on_c, 9, 35, 0
1, 89279, Note_on_c, 9, 42, 0
1, 89280, Note_on_c, 9, 42, 73
1, 89280, Note_on_c, 9, 35, 109
1, 89519, Note_on_c, 9, 42, 0
1, 89520, Note_on_c, 9, 42, 69
1, 89759, Note_on_c, 9, 35, 0
1, 89759, Note_on_c, 9, 42, 0
1, 89775, Note_on_c, 9, 42, 76
1, 89775, Note_on_c, 9, 35, 114
1, 89999, Note_on_c, 9, 42, 0
1, 89999, Note_on_c, 9, 35, 0
1, 90015, Note_on_c, 9, 42, 67
1, 90239, Note_on_c, 9, 42, 0
1, 90255, Note_on_c, 9, 42, 74
1, 90255, Note_on_c, 9, 35, 110
1, 90479, Note_on_c, 9, 42, 0
1, 90479, Note_on_c, 9, 35, 0
1, 90495, Note_on_c, 9, 42, 64
1, 90719, Note_on_c, 9, 42, 0
1, 90735, Note_on_c, 9, 42, 72
1, 90735, Note_on_c, 9, 35, 113
1, 90959, Note_on_c, 9, 42, 0
1, 90959, Note_on_c, 9, 35, 0
1, 90975, Note_on_c, 9, 42, 67
1, 91199, Note_on_c, 9, 42, 0
1, 91215, Note_on_c, 9, 42, 71
1, 91215, Note_on_c, 9, 35, 112
1, 91439, Note_on_c, 9, 42, 0
1, 91439, Note_on_c, 9, 35, 0
1, 91440, Note_on_c, 9, 42, 65
1, 91454, Note_on_c, 9, 42, 0
1, 91455, Note_on_c, 9, 69, 94
1, 91499, Note_on_c, 9, 69, 0
1, 91560, Note_on_c, 9, 69, 94
1, 91679, Note_on_c, 9, 69, 0
1, 91680, Note_on_c, 9, 69, 80
1, 91680, Note_on_c, 9, 42, 78
1, 91680, Note_on_c, 9, 35, 112
1, 91919, Note_on_c, 9, 69, 0
1, 91919, Note_on_c, 9, 42, 0
1, 91920, Note_on_c, 9, 46, 77
1, 91934, Note_on_c, 9, 46, 0
1, 91935, Note_on_c, 9, 73, 87
1, 91979, Note_on_c, 9, 73, 0
1, 92055, Note_on_c, 9, 73, 82
1, 92099, Note_on_c, 9, 73, 0
1, 92159, Note_on_c, 9, 35, 0
1, 92175, Note_on_c, 9, 73, 81
1, 92175, Note_on_c, 9, 42, 78
1, 92175, Note_on_c, 9, 35, 113
1, 92399, Note_on_c, 9, 73, 0
1, 92399, Note_on_c, 9, 42, 0
1, 92399, Note_on_c, 9, 35, 0
1, 92400, Note_on_c, 9, 42, 72
1, 92639, Note_on_c, 9, 42, 0
1, 92640, Note_on_c, 9, 42, 75
1, 92640, Note_on_c, 9, 35, 110
1, 92879, Note_on_c, 9, 42, 0
1, 92880, Note_on_c, 9, 42, 66
1, 93119, Note_on_c, 9, 35, 0
1, 93119, Note_on_c, 9, 42, 0
1, 93120, Note_on_c, 9, 42, 75
1, 93120, Note_on_c, 9, 35, 110
1, 93359, Note_on_c, 9, 42, 0
1, 93360, Note_on_c, 9, 42, 73
1, 93599, Note_on_c, 9, 35, 0
1, 93599, Note_on_c, 9, 42, 0
1, 93600, Note_on_c, 9, 42, 71
1, 93615, Note_on_c, 9, 35, 111
1, 93839, Note_on_c, 9, 42, 0
1, 93839, Note_on_c, 9, 35, 0
1, 93855, Note_on_c, 9, 42, 72
1, 94079, Note_on_c, 9, 42, 0
1, 94095, Note_on_c, 9, 42, 78
1, 94095, Note_on_c, 9, 35, 109
1, 94319, Note_on_c, 9, 42, 0
1, 94319, Note_on_c, 9, 35, 0
1, 94335, Note_on_c, 9, 42, 66
1, 94559, Note_on_c, 9, 42, 0
1, 94560, Note_on_c, 9, 42, 78
1, 94560, Note_on_c, 9, 35, 112
1, 94799, Note_on_c, 9, 42, 0
1, 94800, Note_on_c, 9, 42, 65
1, 95039, Note_on_c, 9, 35, 0
1, 95039, Note_on_c, 9, 42, 0
1, 95040, Note_on_c, 9, 42, 76
1, 95040, Note_on_c, 9, 35, 109
1, 95279, Note_on_c, 9, 42, 0
1, 95280, Note_on_c, 9, 42, 67
1, 95294, Note_on_c, 9, 42, 0
1, 95295, Note_on_c, 9, 69, 91
1, 95339, Note_on_c, 9, 69, 0
1, 95415, Note_on_c, 9, 69, 84
1, 95459, Note_on_c, 9, 69, 0
1, 95519, Note_on_c, 9, 35, 0
1, 95535, Note_on_c, 9, 69, 80
1, 95535, Note_on_c, 9, 42, 78
1, 95535, Note_on_c, 9, 35, 112
1, 95759, Note_on_c, 9, 69, 0
1, 95759, Note_on_c, 9, 42, 0
1, 95759, Note_on_c, 9, 35, 0
1, 95775, Note_on_c, 9, 73, 85
1, 95775, Note_on_c, 9, 42, 68
1, 95819, Note_on_c, 9, 73, 0
1, 95819, Note_on_c, 9, 42, 0
1, 95880, Note_on_c, 9, 73, 72
1, 95999, Note_on_c, 9, 73, 0
1, 96015, Note_on_c, 9, 73, 78
1, 96015, Note_on_c, 9, 42, 72
1, 96015, Note_on_c, 9, 35, 114
1, 96239, Note_on_c, 9, 73, 0
1, 96239, Note_on_c, 9, 42, 0
1, 96239, Note_on_c, 9, 35, 0
1, 96240, Note_on_c, 9, 42, 72
1, 96479, Note_on_c, 9, 42, 0
1, 96480, Note_on_c, 9, 42, 78
1, 96480, Note_on_c, 9, 35, 110
1, 96719, Note_on_c, 9, 42, 0
1, 96720, Note_on_c, 9, 42, 72
1, 96959, Note_on_c, 9, 35, 0
1, 96959, Note_on_c, 9, 42, 0
1, 96975, Note_on_c, 9, 42, 78
1, 96975, Note_on_c, 9, 35, 111
1, 97199, Note_on_c, 9, 42, 0
1, 97199, Note_on_c, 9, 35, 0
1, 97215, Note_on_c, 9, 42, 70
1, 97439, Note_on_c, 9, 42, 0
1, 97455, Note_on_c, 9, 42, 78
1, 97455, Note_on_c, 9, 35, 116
1, 97679, Note_on_c, 9, 42, 0
1, 97679, Note_on_c, 9, 35, 0
1, 97695, Note_on_c, 9, 42, 72
1, 97919, Note_on_c, 9, 42, 0
1, 97935, Note_on_c, 9, 42, 78
1, 97950, Note_on_c, 9, 35, 114
1, 98159, Note_on_c, 9, 42, 0
1, 98175, Note_on_c, 9, 42, 70
1, 98399, Note_on_c, 9, 35, 0
1, 98399, Note_on_c, 9, 42, 0
1, 98415, Note_on_c, 9, 42, 77
1, 98415, Note_on_c, 9, 35, 116
1, 98639, Note_on_c, 9, 42, 0
1, 98639, Note_on_c, 9, 35, 0
1, 98655, Note_on_c, 9, 42, 69
1, 98879, Note_on_c, 9, 42, 0
1, 98910, Note_on_c, 9, 42, 73
1, 98910, Note_on_c, 9, 35, 113
1, 98999, Note_on_c, 9, 42, 0
1, 99135, Note_on_c, 9, 69, 87
1, 99149, Note_on_c, 9, 69, 0
1, 99150, Note_on_c, 9, 42, 72
1, 99239, Note_on_c, 9, 42, 0
1, 99240, Note_on_c, 9, 69, 91
1, 99359, Note_on_c, 9, 35, 0
1, 99359, Note_on_c, 9, 69, 0
1, 99360, Note_on_c, 9, 69, 77
1, 99374, Note_on_c, 9, 69, 0
1, 99375, Note_on_c, 9, 42, 85
1, 99375, Note_on_c, 9, 35, 118
1, 99599, Note_on_c, 9, 42, 0
1, 99599, Note_on_c, 9, 35, 0
1, 99615, Note_on_c, 9, 46, 72
1, 99615, Note_on_c, 9, 73, 89
1, 99659, Note_on_c, 9, 46, 0
1, 99659, Note_on_c, 9, 73, 0
1, 99735, Note_on_c, 9, 73, 72
1, 99779, Note_on_c, 9, 73, 0
1, 99855, Note_on_c, 9, 73, 79
1, 99855, Note_on_c, 9, 42, 82
1, 99855, Note_on_c, 9, 35, 116
1, 100079, Note_on_c, 9, 73, 0
1, 100079, Note_on_c, 9, 42, 0
1, 100079, Note_on_c, 9, 35, 0
1, 100080, Note_on_c, 9, 42, 76
1, 100319, Note_on_c, 9, 42, 0
1, 100320, Note_on_c, 9, 38, 127
1, 100320, Note_on_c, 9, 42, 78
1, 100559, Note_on_c, 9, 38, 0
1, 100559, Note_on_c, 9, 42, 0
1, 100560, Note_on_c, 9, 42, 69
1, 100799, Note_on_c, 9, 42, 0
1, 100800, Note_on_c, 9, 42, 72
1, 100800, Note_on_c, 9, 35, 116
1, 101039, Note_on_c, 9, 42, 0
1, 101055, Note_on_c, 9, 42, 72
1, 101279, Note_on_c, 9, 35, 0
1, 101279, Note_on_c, 9, 42, 0
1, 101295, Note_on_c, 9, 38, 123
1, 101295, Note_on_c, 9, 42, 79
1, 101519, Note_on_c, 9, 38, 0
1, 101519, Note_on_c, 9, 42, 0
1, 101520, Note_on_c, 9, 42, 72
1, 101759, Note_on_c, 9, 42, 0
1, 101775, Note_on_c, 9, 42, 85
1, 101775, Note_on_c, 9, 35, 114
1, 101999, Note_on_c, 9, 42, 0
1, 101999, Note_on_c, 9, 35, 0
1, 102000, Note_on_c, 9, 42, 72
1, 102239, Note_on_c, 9, 42, 0
1, 102255, Note_on_c, 9, 38, 122
1, 102255, Note_on_c, 9, 42, 81
1, 102479, Note_on_c, 9, 38, 0
1, 102479, Note_on_c, 9, 42, 0
1, 102480, Note_on_c, 9, 42, 76
1, 102719, Note_on_c, 9, 42, 0
1, 102735, Note_on_c, 9, 42, 79
1, 102735, Note_on_c, 9, 35, 118
1, 102959, Note_on_c, 9, 42, 0
1, 102959, Note_on_c, 9, 35, 0
1, 102960, Note_on_c, 9, 42, 69
1, 102974, Note_on_c, 9, 42, 0
1, 102975, Note_on_c, 9, 69, 67
1, 103019, Note_on_c, 9, 69, 0
1, 103095, Note_on_c, 9, 69, 81
1, 103139, Note_on_c, 9, 69, 0
1, 103215, Note_on_c, 9, 38, 121
1, 103215, Note_on_c, 9, 69, 84
1, 103215, Note_on_c, 9, 42, 78
1, 103439, Note_on_c, 9, 38, 0
1, 103439, Note_on_c, 9, 69, 0
1, 103439, Note_on_c, 9, 42, 0
1, 103455, Note_on_c, 9, 42, 72
1, 103469, Note_on_c, 9, 42, 0
1, 103470, Note_on_c, 9, 73, 85
1, 103559, Note_on_c, 9, 73, 0
1, 103575, Note_on_c, 9, 73, 79
1, 103619, Note_on_c, 9, 73, 0
1, 103695, Note_on_c, 9, 73, 79
1, 103709, Note_on_c, 9, 73, 0
1, 103710, Note_on_c, 9, 42, 77
1, 103710, Note_on_c, 9, 35, 117
1, 103799, Note_on_c, 9, 42, 0
1, 103935, Note_on_c, 9, 42, 77
1, 104159, Note_on_c, 9, 35, 0
1, 104159, Note_on_c, 9, 42, 0
1, 104175, Note_on_c, 9, 38, 120
1, 104175, Note_on_c, 9, 42, 81
1, 104399, Note_on_c, 9, 38, 0
1, 104399, Note_on_c, 9, 42, 0
1, 104400, Note_on_c, 9, 42, 75
1, 104639, Note_on_c, 9, 42, 0
1, 104640, Note_on_c, 9, 42, 82
1, 104640, Note_on_c, 9, 35, 115
1, 104879, Note_on_c, 9, 42, 0
1, 104880, Note_on_c, 9, 42, 71
1, 105119, Note_on_c, 9, 35, 0
1, 105119, Note_on_c, 9, 42, 0
1, 105135, Note_on_c, 9, 38, 118
1, 105135, Note_on_c, 9, 42, 78
1, 105359, Note_on_c, 9, 38, 0
1, 105359, Note_on_c, 9, 42, 0
1, 105360, Note_on_c, 9, 42, 69
1, 105599, Note_on_c, 9, 42, 0
1, 105600, Note_on_c, 9, 42, 76
1, 105600, Note_on_c, 9, 35, 113
1, 105839, Note_on_c, 9, 42, 0
1, 105855, Note_on_c, 9, 42, 72
1, 106079, Note_on_c, 9, 35, 0
1, 106079, Note_on_c, 9, 42, 0
1, 106080, Note_on_c, 9, 38, 121
1, 106080, Note_on_c, 9, 42, 78
1, 106319, Note_on_c, 9, 38, 0
1, 106319, Note_on_c, 9, 42, 0
1, 106320, Note_on_c, 9, 42, 71
1, 106559, Note_on_c, 9, 42, 0
1, 106575, Note_on_c, 9, 42, 77
1, 106575, Note_on_c, 9, 35, 112
1, 106799, Note_on_c, 9, 42, 0
1, 106799, Note_on_c, 9, 35, 0
1, 106800, Note_on_c, 9, 42, 78
1, 106814, Note_on_c, 9, 42, 0
1, 106815, Note_on_c, 9, 69, 97
1, 106859, Note_on_c, 9, 69, 0
1, 106935, Note_on_c, 9, 69, 73
1, 106979, Note_on_c, 9, 69, 0
1, 107055, Note_on_c, 9, 38, 121
1, 107055, Note_on_c, 9, 69, 68
1, 107055, Note_on_c, 9, 42, 82
1, 107279, Note_on_c, 9, 38, 0
1, 107279, Note_on_c, 9, 69, 0
1, 107279, Note_on_c, 9, 42, 0
1, 107280, Note_on_c, 9, 46, 81
1, 107294, Note_on_c, 9, 46, 0
1, 107295, Note_on_c, 9, 73, 79
1, 107339, Note_on_c, 9, 73, 0
1, 107415, Note_on_c, 9, 73, 79
1, 107459, Note_on_c, 9, 73, 0
1, 107535, Note_on_c, 9, 73, 79
1, 107535, Note_on_c, 9, 42, 83
1, 107535, Note_on_c, 9, 35, 115
1, 107759, Note_on_c, 9, 73, 0
1, 107759, Note_on_c, 9, 42, 0
1, 107759, Note_on_c, 9, 35, 0
1, 107775, Note_on_c, 9, 42, 78
1, 107999, Note_on_c, 9, 42, 0
1, 108000, Note_on_c, 9, 38, 119
1, 108000, Note_on_c, 9, 42, 84
1, 108239, Note_on_c, 9, 38, 0
1, 108239, Note_on_c, 9, 42, 0
1, 108255, Note_on_c, 9, 42, 59
1, 108479, Note_on_c, 9, 42, 0
1, 108495, Note_on_c, 9, 42, 81
1, 108495, Note_on_c, 9, 35, 111
1, 108719, Note_on_c, 9, 42, 0
1, 108719, Note_on_c, 9, 35, 0
1, 108735, Note_on_c, 9, 42, 72
1, 108959, Note_on_c, 9, 42, 0
1, 108975, Note_on_c, 9, 38, 120
1, 108975, Note_on_c, 9, 42, 83
1, 109199, Note_on_c, 9, 38, 0
1, 109199, Note_on_c, 9, 42, 0
1, 109200, Note_on_c, 9, 42, 73
1, 109439, Note_on_c, 9, 42, 0
1, 109455, Note_on_c, 9, 42, 79
1, 109455, Note_on_c, 9, 35, 113
1, 109679, Note_on_c, 9, 42, 0
1, 109679, Note_on_c, 9, 35, 0
1, 109680, Note_on_c, 9, 42, 73
1, 109919, Note_on_c, 9, 42, 0
1, 109935, Note_on_c, 9, 38, 120
1, 109935, Note_on_c, 9, 42, 83
1, 110159, Note_on_c, 9, 38, 0
1, 110159, Note_on_c, 9, 42, 0
1, 110175, Note_on_c, 9, 42, 69
1, 110399, Note_on_c, 9, 42, 0
1, 110430, Note_on_c, 9, 42, 79
1, 110430, Note_on_c, 9, 35, 113
1, 110519, Note_on_c, 9, 42, 0
1, 110655, Note_on_c, 9, 69, 84
1, 110655, Note_on_c, 9, 42, 75
1, 110699, Note_on_c, 9, 69, 0
1, 110699, Note_on_c, 9, 42, 0
1, 110775, Note_on_c, 9, 69, 79
1, 110819, Note_on_c, 9, 69, 0
1, 110879, Note_on_c, 9, 35, 0
1, 110880, Note_on_c, 9, 38, 121
1, 110880, Note_on_c, 9, 69, 76
1, 110880, Note_on_c, 9, 42, 83
1, 111119, Note_on_c, 9, 38, 0
1, 111119, Note_on_c, 9, 69, 0
1, 111119, Note_on_c, 9, 42, 0
1, 111135, Note_on_c, 9, 73, 81
1, 111135, Note_on_c, 9, 42, 75
1, 111179, Note_on_c, 9, 73, 0
1, 111179, Note_on_c, 9, 42, 0
1, 111255, Note_on_c, 9, 73, 67
1, 111299, Note_on_c, 9, 73, 0
1, 111375, Note_on_c, 9, 73, 81
1, 111389, Note_on_c, 9, 73, 0
1, 111390, Note_on_c, 9, 42, 82
1, 111390, Note_on_c, 9, 35, 114
1, 111479, Note_on_c, 9, 42, 0
1, 111600, Note_on_c, 9, 42, 74
1, 111839, Note_on_c, 9, 35, 0
1, 111839, Note_on_c, 9, 42, 0
1, 111840, Note_on_c, 9, 38, 121
1, 111840, Note_on_c, 9, 42, 84
1, 112079, Note_on_c, 9, 38, 0
1, 112079, Note_on_c, 9, 42, 0
1, 112080, Note_on_c, 9, 42, 78
1, 112319, Note_on_c, 9, 42, 0
1, 112320, Note_on_c, 9, 42, 79
1, 112320, Note_on_c, 9, 35, 116
1, 112559, Note_on_c, 9, 42, 0
1, 112560, Note_on_c, 9, 42, 78
1, 112799, Note_on_c, 9, 35, 0
1, 112799, Note_on_c, 9, 42, 0
1, 112800, Note_on_c, 9, 38, 121
1, 112800, Note_on_c, 9, 42, 82
1, 113039, Note_on_c, 9, 38, 0
1, 113039, Note_on_c, 9, 42, 0
1, 113040, Note_on_c, 9, 42, 72
1, 113279, Note_on_c, 9, 42, 0
1, 113280, Note_on_c, 9, 42, 82
1, 113280, Note_on_c, 9, 35, 114
1, 113519, Note_on_c, 9, 42, 0
1, 113520, Note_on_c, 9, 42, 72
1, 113759, Note_on_c, 9, 35, 0
1, 113759, Note_on_c, 9, 42, 0
1, 113760, Note_on_c, 9, 38, 125
1, 113760, Note_on_c, 9, 42, 78
1, 113999, Note_on_c, 9, 38, 0
1, 113999, Note_on_c, 9, 42, 0
1, 114000, Note_on_c, 9, 42, 79
1, 114239, Note_on_c, 9, 42, 0
1, 114255, Note_on_c, 9, 42, 82
1, 114255, Note_on_c, 9, 35, 102
1, 114479, Note_on_c, 9, 42, 0
1, 114479, Note_on_c, 9, 35, 0
1, 114480, Note_on_c, 9, 69, 88
1, 114494, Note_on_c, 9, 69, 0
1, 114495, Note_on_c, 9, 38, 127
1, 114495, Note_on_c, 9, 45, 127
1, 114495, Note_on_c, 9, 42, 78
1, 114495, Note_on_c, 9, 43, 127
1, 114539, Note_on_c, 9, 38, 0
1, 114539, Note_on_c, 9, 45, 0
1, 114539, Note_on_c, 9, 42, 0
1, 114600, Note_on_c, 9, 69, 76
1, 114719, Note_on_c, 9, 43, 0
1, 114719, Note_on_c, 9, 69, 0
1, 114720, Note_on_c, 9, 69, 86
1, 114720, Note_on_c, 9, 42, 77
1, 114959, Note_on_c, 9, 69, 0
1, 114959, Note_on_c, 9, 42, 0
1, 114960, Note_on_c, 9, 38, 125
1, 114960, Note_on_c, 9, 45, 127
1, 114974, Note_on_c, 9, 38, 0
1, 114974, Note_on_c, 9, 45, 0
1, 114975, Note_on_c, 9, 46, 69
1, 114975, Note_on_c, 9, 73, 89
1, 115019, Note_on_c, 9, 46, 0
1, 115019, Note_on_c, 9, 73, 0
1, 115095, Note_on_c, 9, 73, 75
1, 115139, Note_on_c, 9, 73, 0
1, 115200, Note_on_c, 9, 73, 82
1, 115200, Note_on_c, 9, 49, 99
1, 115200, Note_on_c, 9, 44, 75
1, 115214, Note_on_c, 9, 44, 0
1, 115215, Note_on_c, 9, 35, 122
1, 115439, Note_on_c, 9, 73, 0
1, 115439, Note_on_c, 9, 49, 0
1, 115439, Note_on_c, 9, 35, 0
1, 115440, Note_on_c, 9, 42, 75
1, 115679, Note_on_c, 9, 42, 0
1, 115680, Note_on_c, 9, 38, 123
1, 115680, Note_on_c, 9, 42, 73
1, 115919, Note_on_c, 9, 38, 0
1, 115919, Note_on_c, 9, 42, 0
1, 115920, Note_on_c, 9, 42, 68
1, 116159, Note_on_c, 9, 42, 0
1, 116160, Note_on_c, 9, 42, 73
1, 116160, Note_on_c, 9, 35, 112
1, 116399, Note_on_c, 9, 42, 0
1, 116400, Note_on_c, 9, 42, 69
1, 116639, Note_on_c, 9, 35, 0
1, 116639, Note_on_c, 9, 42, 0
1, 116640, Note_on_c, 9, 38, 126
1, 116640, Note_on_c, 9, 42, 78
1, 116879, Note_on_c, 9, 38, 0
1, 116879, Note_on_c, 9, 42, 0
1, 116895, Note_on_c, 9, 42, 72
1, 117119, Note_on_c, 9, 42, 0
1, 117135, Note_on_c, 9, 42, 78
1, 117135, Note_on_c, 9, 35, 115
1, 117359, Note_on_c, 9, 42, 0
1, 117359, Note_on_c, 9, 35, 0
1, 117375, Note_on_c, 9, 42, 72
1, 117599, Note_on_c, 9, 42, 0
1, 117600, Note_on_c, 9, 38, 121
1, 117600, Note_on_c, 9, 42, 79
1, 117839, Note_on_c, 9, 38, 0
1, 117839, Note_on_c, 9, 42, 0
1, 117840, Note_on_c, 9, 42, 72
1, 118079, Note_on_c, 9, 42, 0
1, 118080, Note_on_c, 9, 42, 78
1, 118080, Note_on_c, 9, 35, 118
1, 118319, Note_on_c, 9, 42, 0
1, 118320, Note_on_c, 9, 69, 88
1, 118320, Note_on_c, 9, 42, 73
1, 118439, Note_on_c, 9, 69, 0
1, 118439, Note_on_c, 9, 42, 0
1, 118440, Note_on_c, 9, 69, 75
1, 118559, Note_on_c, 9, 35, 0
1, 118559, Note_on_c, 9, 69, 0
1, 118560, Note_on_c, 9, 69, 90
1, 118589, Note_on_c, 9, 69, 0
1, 118590, Note_on_c, 9, 38, 127
1, 118590, Note_on_c, 9, 42, 76
1, 118844, Note_on_c, 9, 38, 0
1, 118844, Note_on_c, 9, 42, 0
1, 118845, Note_on_c, 9, 73, 107
1, 118845, Note_on_c, 9, 42, 74
1, 118979, Note_on_c, 9, 73, 0
1, 118979, Note_on_c, 9, 42, 0
1, 118980, Note_on_c, 9, 73, 95
1, 119039, Note_on_c, 9, 73, 0
1, 119100, Note_on_c, 9, 73, 107
1, 119100, Note_on_c, 9, 42, 79
1, 119100, Note_on_c, 9, 35, 118
1, 119279, Note_on_c, 9, 73, 0
1, 119279, Note_on_c, 9, 42, 0
1, 119279, Note_on_c, 9, 35, 0
1, 119310, Note_on_c, 9, 42, 72
1, 119399, Note_on_c, 9, 42, 0
1, 119520, Note_on_c, 9, 38, 122
1, 119520, Note_on_c, 9, 42, 78
1, 119759, Note_on_c, 9, 38, 0
1, 119759, Note_on_c, 9, 42, 0
1, 119760, Note_on_c, 9, 42, 69
1, 119999, Note_on_c, 9, 42, 0
1, 120000, Note_on_c, 9, 42, 76
1, 120000, Note_on_c, 9, 35, 113
1, 120239, Note_on_c, 9, 42, 0
1, 120240, Note_on_c, 9, 42, 74
1, 120479, Note_on_c, 9, 35, 0
1, 120479, Note_on_c, 9, 42, 0
1, 120495, Note_on_c, 9, 38, 125
1, 120495, Note_on_c, 9, 42, 75
1, 120719, Note_on_c, 9, 38, 0
1, 120719, Note_on_c, 9, 42, 0
1, 120735, Note_on_c, 9, 42, 72
1, 120959, Note_on_c, 9, 42, 0
1, 120975, Note_on_c, 9, 42, 76
1, 120975, Note_on_c, 9, 35, 114
1, 121199, Note_on_c, 9, 42, 0
1, 121199, Note_on_c, 9, 35, 0
1, 121200, Note_on_c, 9, 42, 72
1, 121439, Note_on_c, 9, 42, 0
1, 121455, Note_on_c, 9, 38, 127
1, 121455, Note_on_c, 9, 42, 76
1, 121679, Note_on_c, 9, 38, 0
1, 121679, Note_on_c, 9, 42, 0
1, 121680, Note_on_c, 9, 42, 71
1, 121919, Note_on_c, 9, 42, 0
1, 121935, Note_on_c, 9, 42, 76
1, 121935, Note_on_c, 9, 35, 113
1, 122159, Note_on_c, 9, 42, 0
1, 122159, Note_on_c, 9, 35, 0
1, 122160, Note_on_c, 9, 69, 100
1, 122174, Note_on_c, 9, 69, 0
1, 122175, Note_on_c, 9, 38, 127
1, 122175, Note_on_c, 9, 42, 75
1, 122175, Note_on_c, 9, 43, 106
1, 122219, Note_on_c, 9, 38, 0
1, 122219, Note_on_c, 9, 42, 0
1, 122280, Note_on_c, 9, 69, 90
1, 122399, Note_on_c, 9, 43, 0
1, 122399, Note_on_c, 9, 69, 0
1, 122400, Note_on_c, 9, 38, 127
1, 122400, Note_on_c, 9, 69, 91
1, 122400, Note_on_c, 9, 42, 78
1, 122400, Note_on_c, 9, 43, 105
1, 122639, Note_on_c, 9, 38, 0
1, 122639, Note_on_c, 9, 69, 0
1, 122639, Note_on_c, 9, 42, 0
1, 122639, Note_on_c, 9, 43, 0
1, 122640, Note_on_c, 9, 46, 85
1, 122654, Note_on_c, 9, 46, 0
1, 122655, Note_on_c, 9, 73, 113
1, 122655, Note_on_c, 9, 35, 117
1, 122699, Note_on_c, 9, 73, 0
1, 122775, Note_on_c, 9, 73, 97
1, 122819, Note_on_c, 9, 73, 0
1, 122879, Note_on_c, 9, 35, 0
1, 122880, Note_on_c, 9, 49, 78
1, 122894, Note_on_c, 9, 49, 0
1, 122895, Note_on_c, 9, 73, 101
1, 122895, Note_on_c, 9, 44, 70
1, 122895, Note_on_c, 9, 35, 115
1, 123119, Note_on_c, 9, 73, 0
1, 123119, Note_on_c, 9, 44, 0
1, 123119, Note_on_c, 9, 35, 0
1, 123120, Note_on_c, 9, 42, 72
1, 123359, Note_on_c, 9, 42, 0
1, 123375, Note_on_c, 9, 38, 120
1, 123375, Note_on_c, 9, 42, 72
1, 123599, Note_on_c, 9, 38, 0
1, 123599, Note_on_c, 9, 42, 0
1, 123615, Note_on_c, 9, 42, 68
1, 123839, Note_on_c, 9, 42, 0
1, 123855, Note_on_c, 9, 42, 78
1, 123855, Note_on_c, 9, 35, 107
1, 124079, Note_on_c, 9, 42, 0
1, 124079, Note_on_c, 9, 35, 0
1, 124095, Note_on_c, 9, 42, 70
1, 124319, Note_on_c, 9, 42, 0
1, 124335, Note_on_c, 9, 38, 120
1, 124335, Note_on_c, 9, 42, 76
1, 124559, Note_on_c, 9, 38, 0
1, 124559, Note_on_c, 9, 42, 0
1, 124560, Note_on_c, 9, 42, 70
1, 124799, Note_on_c, 9, 42, 0
1, 124800, Note_on_c, 9, 42, 72
1, 124800, Note_on_c, 9, 35, 114
1, 125039, Note_on_c, 9, 42, 0
1, 125040, Note_on_c, 9, 42, 69
1, 125279, Note_on_c, 9, 35, 0
1, 125279, Note_on_c, 9, 42, 0
1, 125295, Note_on_c, 9, 38, 119
1, 125295, Note_on_c, 9, 42, 78
1, 125519, Note_on_c, 9, 38, 0
1, 125519, Note_on_c, 9, 42, 0
1, 125535, Note_on_c, 9, 42, 69
1, 125759, Note_on_c, 9, 42, 0
1, 125775, Note_on_c, 9, 42, 72
1, 125775, Note_on_c, 9, 35, 110
1, 125999, Note_on_c, 9, 42, 0
1, 125999, Note_on_c, 9, 35, 0
1, 126015, Note_on_c, 9, 69, 91
1, 126015, Note_on_c, 9, 42, 67
1, 126059, Note_on_c, 9, 69, 0
1, 126059, Note_on_c, 9, 42, 0
1, 126135, Note_on_c, 9, 69, 78
1, 126179, Note_on_c, 9, 69, 0
1, 126255, Note_on_c, 9, 38, 122
1, 126255, Note_on_c, 9, 69, 68
1, 126255, Note_on_c, 9, 42, 75
1, 126479, Note_on_c, 9, 38, 0
1, 126479, Note_on_c, 9, 69, 0
1, 126479, Note_on_c, 9, 42, 0
1, 126480, Note_on_c, 9, 42, 69
1, 126494, Note_on_c, 9, 42, 0
1, 126495, Note_on_c, 9, 73, 93
1, 126539, Note_on_c, 9, 73, 0
1, 126600, Note_on_c, 9, 73, 85
1, 126719, Note_on_c, 9, 73, 0
1, 126735, Note_on_c, 9, 73, 70
1, 126735, Note_on_c, 9, 42, 74
1, 126735, Note_on_c, 9, 35, 114
1, 126959, Note_on_c, 9, 73, 0
1, 126959, Note_on_c, 9, 42, 0
1, 126959, Note_on_c, 9, 35, 0
1, 126960, Note_on_c, 9, 42, 71
1, 127199, Note_on_c, 9, 42, 0
1, 127200, Note_on_c, 9, 38, 121
1, 127200, Note_on_c, 9, 42, 81
1, 127439, Note_on_c, 9, 38, 0
1, 127439, Note_on_c, 9, 42, 0
1, 127455, Note_on_c, 9, 42, 69
1, 127679, Note_on_c, 9, 42, 0
1, 127695, Note_on_c, 9, 42, 78
1, 127695, Note_on_c, 9, 35, 107
1, 127919, Note_on_c, 9, 42, 0
1, 127919, Note_on_c, 9, 35, 0
1, 127920, Note_on_c, 9, 42, 68
1, 128159, Note_on_c, 9, 42, 0
1, 128160, Note_on_c, 9, 38, 121
1, 128160, Note_on_c, 9, 42, 78
1, 128399, Note_on_c, 9, 38, 0
1, 128399, Note_on_c, 9, 42, 0
1, 128415, Note_on_c, 9, 42, 75
1, 128639, Note_on_c, 9, 42, 0
1, 128655, Note_on_c, 9, 42, 78
1, 128655, Note_on_c, 9, 35, 117
1, 128879, Note_on_c, 9, 42, 0
1, 128879, Note_on_c, 9, 35, 0
1, 128895, Note_on_c, 9, 42, 70
1, 129119, Note_on_c, 9, 42, 0
1, 129135, Note_on_c, 9, 38, 120
1, 129135, Note_on_c, 9, 42, 78
1, 129359, Note_on_c, 9, 38, 0
1, 129359, Note_on_c, 9, 42, 0
1, 129375, Note_on_c, 9, 42, 72
1, 129599, Note_on_c, 9, 42, 0
1, 129615, Note_on_c, 9, 42, 75
1, 129615, Note_on_c, 9, 35, 114
1, 129839, Note_on_c, 9, 42, 0
1, 129839, Note_on_c, 9, 35, 0
1, 129855, Note_on_c, 9, 69, 94
1, 129855, Note_on_c, 9, 42, 74
1, 129899, Note_on_c, 9, 69, 0
1, 129899, Note_on_c, 9, 42, 0
1, 129960, Note_on_c, 9, 69, 94
1, 130079, Note_on_c, 9, 69, 0
1, 130080, Note_on_c, 9, 38, 120
1, 130080, Note_on_c, 9, 69, 80
1, 130080, Note_on_c, 9, 42, 79
1, 130080, Note_on_c, 9, 43, 95
1, 130319, Note_on_c, 9, 38, 0
1, 130319, Note_on_c, 9, 69, 0
1, 130319, Note_on_c, 9, 42, 0
1, 130319, Note_on_c, 9, 43, 0
1, 130335, Note_on_c, 9, 38, 123
1, 130335, Note_on_c, 9, 46, 85
1, 130335, Note_on_c, 9, 73, 87
1, 130335, Note_on_c, 9, 43, 98
1, 130379, Note_on_c, 9, 38, 0
1, 130379, Note_on_c, 9, 46, 0
1, 130379, Note_on_c, 9, 73, 0
1, 130455, Note_on_c, 9, 73, 82
1, 130499, Note_on_c, 9, 73, 0
1, 130559, Note_on_c, 9, 43, 0
1, 130560, Note_on_c, 9, 73, 81
1, 130574, Note_on_c, 9, 73, 0
1, 130575, Note_on_c, 9, 49, 79
1, 130575, Note_on_c, 9, 44, 76
1, 130575, Note_on_c, 9, 35, 111
1, 130799, Note_on_c, 9, 49, 0
1, 130799, Note_on_c, 9, 44, 0
1, 130799, Note_on_c, 9, 35, 0
1, 130815, Note_on_c, 9, 44, 59
1, 131039, Note_on_c, 9, 44, 0
1, 131040, Note_on_c, 9, 38, 120
1, 131040, Note_on_c, 9, 42, 79
1, 131279, Note_on_c, 9, 38, 0
1, 131279, Note_on_c, 9, 42, 0
1, 131280, Note_on_c, 9, 42, 69
1, 131519, Note_on_c, 9, 42, 0
1, 131520, Note_on_c, 9, 42, 71
1, 131520, Note_on_c, 9, 35, 111
1, 131759, Note_on_c, 9, 42, 0
1, 131760, Note_on_c, 9, 42, 65
1, 131999, Note_on_c, 9, 35, 0
1, 131999, Note_on_c, 9, 42, 0
1, 132000, Note_on_c, 9, 38, 122
1, 132000, Note_on_c, 9, 42, 78
1, 132239, Note_on_c, 9, 38, 0
1, 132239, Note_on_c, 9, 42, 0
1, 132240, Note_on_c, 9, 42, 67
1, 132479, Note_on_c, 9, 42, 0
1, 132480, Note_on_c, 9, 42, 72
1, 132480, Note_on_c, 9, 35, 111
1, 132719, Note_on_c, 9, 42, 0
1, 132720, Note_on_c, 9, 42, 67
1, 132959, Note_on_c, 9, 35, 0
1, 132959, Note_on_c, 9, 42, 0
1, 132960, Note_on_c, 9, 38, 120
1, 132960, Note_on_c, 9, 42, 77
1, 133199, Note_on_c, 9, 38, 0
1, 133199, Note_on_c, 9, 42, 0
1, 133215, Note_on_c, 9, 42, 66
1, 133439, Note_on_c, 9, 42, 0
1, 133440, Note_on_c, 9, 42, 76
1, 133440, Note_on_c, 9, 35, 111
1, 133679, Note_on_c, 9, 42, 0
1, 133680, Note_on_c, 9, 69, 91
1, 133680, Note_on_c, 9, 42, 67
1, 133799, Note_on_c, 9, 69, 0
1, 133799, Note_on_c, 9, 42, 0
1, 133800, Note_on_c, 9, 69, 84
1, 133919, Note_on_c, 9, 35, 0
1, 133919, Note_on_c, 9, 69, 0
1, 133920, Note_on_c, 9, 38, 120
1, 133920, Note_on_c, 9, 69, 80
1, 133920, Note_on_c, 9, 42, 73
1, 134159, Note_on_c, 9, 38, 0
1, 134159, Note_on_c, 9, 69, 0
1, 134159, Note_on_c, 9, 42, 0
1, 134160, Note_on_c, 9, 42, 72
1, 134174, Note_on_c, 9, 42, 0
1, 134175, Note_on_c, 9, 73, 85
1, 134219, Note_on_c, 9, 73, 0
1, 134280, Note_on_c, 9, 73, 72
1, 134399, Note_on_c, 9, 73, 0
1, 134415, Note_on_c, 9, 73, 78
1, 134415, Note_on_c, 9, 42, 77
1, 134415, Note_on_c, 9, 35, 112
1, 134639, Note_on_c, 9, 73, 0
1, 134639, Note_on_c, 9, 42, 0
1, 134639, Note_on_c, 9, 35, 0
1, 134655, Note_on_c, 9, 42, 72
1, 134879, Note_on_c, 9, 42, 0
1, 134895, Note_on_c, 9, 38, 122
1, 134895, Note_on_c, 9, 42, 81
1, 135119, Note_on_c, 9, 38, 0
1, 135119, Note_on_c, 9, 42, 0
1, 135120, Note_on_c, 9, 42, 71
1, 135359, Note_on_c, 9, 42, 0
1, 135360, Note_on_c, 9, 42, 78
1, 135360, Note_on_c, 9, 35, 111
1, 135599, Note_on_c, 9, 42, 0
1, 135600, Note_on_c, 9, 42, 71
1, 135839, Note_on_c, 9, 35, 0
1, 135839, Note_on_c, 9, 42, 0
1, 135840, Note_on_c, 9, 38, 123
1, 135840, Note_on_c, 9, 42, 77
1, 136079, Note_on_c, 9, 38, 0
1, 136079, Note_on_c, 9, 42, 0
1, 136095, Note_on_c, 9, 42, 73
1, 136319, Note_on_c, 9, 42, 0
1, 136335, Note_on_c, 9, 42, 82
1, 136335, Note_on_c, 9, 35, 116
1, 136559, Note_on_c, 9, 42, 0
1, 136559, Note_on_c, 9, 35, 0
1, 136575, Note_on_c, 9, 42, 72
1, 136799, Note_on_c, 9, 42, 0
1, 136815, Note_on_c, 9, 38, 121
1, 136815, Note_on_c, 9, 42, 79
1, 137039, Note_on_c, 9, 38, 0
1, 137039, Note_on_c, 9, 42, 0
1, 137040, Note_on_c, 9, 42, 78
1, 137279, Note_on_c, 9, 42, 0
1, 137295, Note_on_c, 9, 38, 118
1, 137295, Note_on_c, 9, 42, 77
1, 137295, Note_on_c, 9, 35, 111
1, 137295, Note_on_c, 9, 43, 93
1, 137519, Note_on_c, 9, 38, 0
1, 137519, Note_on_c, 9, 42, 0
1, 137519, Note_on_c, 9, 35, 0
1, 137519, Note_on_c, 9, 43, 0
1, 137520, Note_on_c, 9, 38, 120
1, 137520, Note_on_c, 9, 42, 73
1, 137520, Note_on_c, 9, 43, 95
1, 137534, Note_on_c, 9, 38, 0
1, 137534, Note_on_c, 9, 42, 0
1, 137535, Note_on_c, 9, 69, 87
1, 137579, Note_on_c, 9, 69, 0
1, 137640, Note_on_c, 9, 69, 91
1, 137759, Note_on_c, 9, 43, 0
1, 137759, Note_on_c, 9, 69, 0
1, 137760, Note_on_c, 9, 38, 126
1, 137760, Note_on_c, 9, 69, 77
1, 137760, Note_on_c, 9, 43, 101
1, 137999, Note_on_c, 9, 38, 0
1, 137999, Note_on_c, 9, 69, 0
1, 137999, Note_on_c, 9, 43, 0
1, 138015, Note_on_c, 9, 38, 119
1, 138015, Note_on_c, 9, 46, 84
1, 138015, Note_on_c, 9, 73, 89
1, 138015, Note_on_c, 9, 43, 94
1, 138059, Note_on_c, 9, 38, 0
1, 138059, Note_on_c, 9, 46, 0
1, 138059, Note_on_c, 9, 73, 0
1, 138135, Note_on_c, 9, 73, 72
1, 138179, Note_on_c, 9, 73, 0
1, 138239, Note_on_c, 9, 43, 0
1, 138255, Note_on_c, 9, 49, 81
1, 138269, Note_on_c, 9, 49, 0
1, 138270, Note_on_c, 9, 73, 79
1, 138270, Note_on_c, 9, 44, 83
1, 138270, Note_on_c, 9, 35, 119
1, 138359, Note_on_c, 9, 73, 0
1, 138495, Note_on_c, 9, 42, 74
1, 138719, Note_on_c, 9, 44, 0
1, 138719, Note_on_c, 9, 35, 0
1, 138719, Note_on_c, 9, 42, 0
1, 138720, Note_on_c, 9, 38, 118
1, 138720, Note_on_c, 9, 42, 78
1, 138959, Note_on_c, 9, 38, 0
1, 138959, Note_on_c, 9, 42, 0
1, 138960, Note_on_c, 9, 42, 73
1, 139199, Note_on_c, 9, 42, 0
1, 139215, Note_on_c, 9, 42, 75
1, 139215, Note_on_c, 9, 35, 113
1, 139439, Note_on_c, 9, 42, 0
1, 139439, Note_on_c, 9, 35, 0
1, 139470, Note_on_c, 9, 42, 73
1, 139559, Note_on_c, 9, 42, 0
1, 139695, Note_on_c, 9, 38, 121
1, 139695, Note_on_c, 9, 42, 83
1, 139919, Note_on_c, 9, 38, 0
1, 139919, Note_on_c, 9, 42, 0
1, 139935, Note_on_c, 9, 42, 74
1, 140159, Note_on_c, 9, 42, 0
1, 140190, Note_on_c, 9, 42, 78
1, 140190, Note_on_c, 9, 35, 108
1, 140279, Note_on_c, 9, 42, 0
1, 140415, Note_on_c, 9, 42, 71
1, 140639, Note_on_c, 9, 35, 0
1, 140639, Note_on_c, 9, 42, 0
1, 140655, Note_on_c, 9, 38, 117
1, 140655, Note_on_c, 9, 42, 78
1, 140879, Note_on_c, 9, 38, 0
1, 140879, Note_on_c, 9, 42, 0
1, 140895, Note_on_c, 9, 42, 73
1, 141119, Note_on_c, 9, 42, 0
1, 141135, Note_on_c, 9, 42, 75
1, 141135, Note_on_c, 9, 35, 110
1, 141359, Note_on_c, 9, 42, 0
1, 141359, Note_on_c, 9, 35, 0
1, 141360, Note_on_c, 9, 42, 73
1, 141374, Note_on_c, 9, 42, 0
1, 141375, Note_on_c, 9, 69, 67
1, 141419, Note_on_c, 9, 69, 0
1, 141480, Note_on_c, 9, 69, 81
1, 141599, Note_on_c, 9, 69, 0
1, 141600, Note_on_c, 9, 69, 84
1, 141614, Note_on_c, 9, 69, 0
1, 141615, Note_on_c, 9, 38, 118
1, 141615, Note_on_c, 9, 42, 76
1, 141839, Note_on_c, 9, 38, 0
1, 141839, Note_on_c, 9, 42, 0
1, 141855, Note_on_c, 9, 73, 85
1, 141855, Note_on_c, 9, 42, 71
1, 141899, Note_on_c, 9, 73, 0
1, 141899, Note_on_c, 9, 42, 0
1, 141975, Note_on_c, 9, 73, 79
1, 142019, Note_on_c, 9, 73, 0
1, 142095, Note_on_c, 9, 73, 79
1, 142095, Note_on_c, 9, 42, 77
1, 142095, Note_on_c, 9, 35, 110
1, 142319, Note_on_c, 9, 73, 0
1, 142319, Note_on_c, 9, 42, 0
1, 142319, Note_on_c, 9, 35, 0
1, 142335, Note_on_c, 9, 42, 73
1, 142559, Note_on_c, 9, 42, 0
1, 142560, Note_on_c, 9, 38, 119
1, 142560, Note_on_c, 9, 42, 78
1, 142799, Note_on_c, 9, 38, 0
1, 142799, Note_on_c, 9, 42, 0
1, 142815, Note_on_c, 9, 42, 71
1, 143039, Note_on_c, 9, 42, 0
1, 143040, Note_on_c, 9, 42, 78
1, 143040, Note_on_c, 9, 35, 111
1, 143279, Note_on_c, 9, 42, 0
1, 143280, Note_on_c, 9, 42, 65
1, 143519, Note_on_c, 9, 35, 0
1, 143519, Note_on_c, 9, 42, 0
1, 143520, Note_on_c, 9, 38, 118
1, 143520, Note_on_c, 9, 42, 77
1, 143759, Note_on_c, 9, 38, 0
1, 143759, Note_on_c, 9, 42, 0
1, 143775, Note_on_c, 9, 42, 68
1, 143999, Note_on_c, 9, 42, 0
1, 144015, Note_on_c, 9, 42, 78
1, 144015, Note_on_c, 9, 35, 111
1, 144239, Note_on_c, 9, 42, 0
1, 144239, Note_on_c, 9, 35, 0
1, 144255, Note_on_c, 9, 42, 69
1, 144479, Note_on_c, 9, 42, 0
1, 144495, Note_on_c, 9, 38, 120
1, 144495, Note_on_c, 9, 42, 81
1, 144719, Note_on_c, 9, 38, 0
1, 144719, Note_on_c, 9, 42, 0
1, 144735, Note_on_c, 9, 42, 74
1, 144959, Note_on_c, 9, 42, 0
1, 144975, Note_on_c, 9, 42, 78
1, 144975, Note_on_c, 9, 35, 111
1, 145199, Note_on_c, 9, 42, 0
1, 145199, Note_on_c, 9, 35, 0
1, 145215, Note_on_c, 9, 38, 118
1, 145215, Note_on_c, 9, 69, 97
1, 145215, Note_on_c, 9, 42, 78
1, 145215, Note_on_c, 9, 43, 93
1, 145259, Note_on_c, 9, 38, 0
1, 145259, Note_on_c, 9, 69, 0
1, 145259, Note_on_c, 9, 42, 0
1, 145335, Note_on_c, 9, 69, 73
1, 145379, Note_on_c, 9, 69, 0
1, 145439, Note_on_c, 9, 43, 0
1, 145455, Note_on_c, 9, 38, 123
1, 145455, Note_on_c, 9, 69, 68
1, 145455, Note_on_c, 9, 42, 84
1, 145455, Note_on_c, 9, 43, 98
1, 145679, Note_on_c, 9, 38, 0
1, 145679, Note_on_c, 9, 69, 0
1, 145679, Note_on_c, 9, 42, 0
1, 145679, Note_on_c, 9, 43, 0
1, 145695, Note_on_c, 9, 38, 126
1, 145695, Note_on_c, 9, 46, 84
1, 145695, Note_on_c, 9, 73, 79
1, 145695, Note_on_c, 9, 43, 101
1, 145739, Note_on_c, 9, 38, 0
1, 145739, Note_on_c, 9, 46, 0
1, 145739, Note_on_c, 9, 73, 0
1, 145800, Note_on_c, 9, 73, 79
1, 145919, Note_on_c, 9, 43, 0
1, 145919, Note_on_c, 9, 73, 0
1, 145920, Note_on_c, 9, 44, 92
1, 145934, Note_on_c, 9, 44, 0
1, 145935, Note_on_c, 9, 73, 79
1, 145935, Note_on_c, 9, 49, 67
1, 145935, Note_on_c, 9, 35, 113
1, 146159, Note_on_c, 9, 73, 0
1, 146159, Note_on_c, 9, 49, 0
1, 146159, Note_on_c, 9, 35, 0
1, 146160, Note_on_c, 9, 42, 72
1, 146399, Note_on_c, 9, 42, 0
1, 146400, Note_on_c, 9, 38, 120
1, 146400, Note_on_c, 9, 42, 73
1, 146639, Note_on_c, 9, 38, 0
1, 146639, Note_on_c, 9, 42, 0
1, 146655, Note_on_c, 9, 42, 71
1, 146879, Note_on_c, 9, 42, 0
1, 146895, Note_on_c, 9, 42, 74
1, 146895, Note_on_c, 9, 35, 107
1, 147119, Note_on_c, 9, 42, 0
1, 147119, Note_on_c, 9, 35, 0
1, 147135, Note_on_c, 9, 42, 70
1, 147359, Note_on_c, 9, 42, 0
1, 147360, Note_on_c, 9, 38, 118
1, 147360, Note_on_c, 9, 42, 78
1, 147599, Note_on_c, 9, 38, 0
1, 147599, Note_on_c, 9, 42, 0
1, 147615, Note_on_c, 9, 42, 74
1, 147839, Note_on_c, 9, 42, 0
1, 147855, Note_on_c, 9, 42, 78
1, 147855, Note_on_c, 9, 35, 113
1, 148079, Note_on_c, 9, 42, 0
1, 148079, Note_on_c, 9, 35, 0
1, 148095, Note_on_c, 9, 42, 72
1, 148319, Note_on_c, 9, 42, 0
1, 148335, Note_on_c, 9, 38, 117
1, 148335, Note_on_c, 9, 42, 78
1, 148559, Note_on_c, 9, 38, 0
1, 148559, Note_on_c, 9, 42, 0
1, 148575, Note_on_c, 9, 42, 74
1, 148799, Note_on_c, 9, 42, 0
1, 148815, Note_on_c, 9, 42, 72
1, 148815, Note_on_c, 9, 35, 118
1, 149039, Note_on_c, 9, 42, 0
1, 149039, Note_on_c, 9, 35, 0
1, 149055, Note_on_c, 9, 42, 70
1, 149069, Note_on_c, 9, 42, 0
1, 149070, Note_on_c, 9, 69, 84
1, 149159, Note_on_c, 9, 69, 0
1, 149190, Note_on_c, 9, 69, 79
1, 149279, Note_on_c, 9, 69, 0
1, 149295, Note_on_c, 9, 38, 116
1, 149295, Note_on_c, 9, 69, 76
1, 149295, Note_on_c, 9, 42, 77
1, 149519, Note_on_c, 9, 38, 0
1, 149519, Note_on_c, 9, 69, 0
1, 149519, Note_on_c, 9, 42, 0
1, 149535, Note_on_c, 9, 42, 71
1, 149549, Note_on_c, 9, 42, 0
1, 149550, Note_on_c, 9, 73, 81
1, 149639, Note_on_c, 9, 73, 0
1, 149655, Note_on_c, 9, 73, 67
1, 149699, Note_on_c, 9, 73, 0
1, 149775, Note_on_c, 9, 73, 81
1, 149775, Note_on_c, 9, 42, 78
1, 149775, Note_on_c, 9, 35, 113
1, 149999, Note_on_c, 9, 73, 0
1, 149999, Note_on_c, 9, 42, 0
1, 149999, Note_on_c, 9, 35, 0
1, 150015, Note_on_c, 9, 42, 73
1, 150239, Note_on_c, 9, 42, 0
1, 150255, Note_on_c, 9, 38, 116
1, 150255, Note_on_c, 9, 42, 78
1, 150479, Note_on_c, 9, 38, 0
1, 150479, Note_on_c, 9, 42, 0
1, 150495, Note_on_c, 9, 42, 74
1, 150719, Note_on_c, 9, 42, 0
1, 150735, Note_on_c, 9, 42, 78
1, 150735, Note_on_c, 9, 35, 110
1, 150959, Note_on_c, 9, 42, 0
1, 150959, Note_on_c, 9, 35, 0
1, 150975, Note_on_c, 9, 42, 70
1, 151199, Note_on_c, 9, 42, 0
1, 151215, Note_on_c, 9, 38, 119
1, 151215, Note_on_c, 9, 42, 78
1, 151439, Note_on_c, 9, 38, 0
1, 151439, Note_on_c, 9, 42, 0
1, 151455, Note_on_c, 9, 42, 72
1, 151679, Note_on_c, 9, 42, 0
1, 151695, Note_on_c, 9, 42, 78
1, 151695, Note_on_c, 9, 35, 116
1, 151919, Note_on_c, 9, 42, 0
1, 151919, Note_on_c, 9, 35, 0
1, 151935, Note_on_c, 9, 42, 72
1, 152159, Note_on_c, 9, 42, 0
1, 152175, Note_on_c, 9, 38, 119
1, 152175, Note_on_c, 9, 42, 78
1, 152399, Note_on_c, 9, 38, 0
1, 152399, Note_on_c, 9, 42, 0
1, 152415, Note_on_c, 9, 42, 76
1, 152639, Note_on_c, 9, 42, 0
1, 152655, Note_on_c, 9, 42, 78
1, 152655, Note_on_c, 9, 35, 114
1, 152879, Note_on_c, 9, 42, 0
1, 152879, Note_on_c, 9, 35, 0
1, 152895, Note_on_c, 9, 38, 118
1, 152895, Note_on_c, 9, 69, 88
1, 152895, Note_on_c, 9, 42, 77
1, 152895, Note_on_c, 9, 43, 93
1, 152939, Note_on_c, 9, 38, 0
1, 152939, Note_on_c, 9, 69, 0
1, 152939, Note_on_c, 9, 42, 0
1, 153015, Note_on_c, 9, 69, 76
1, 153059, Note_on_c, 9, 69, 0
1, 153119, Note_on_c, 9, 43, 0
1, 153135, Note_on_c, 9, 38, 121
1, 153135, Note_on_c, 9, 69, 86
1, 153135, Note_on_c, 9, 42, 84
1, 153135, Note_on_c, 9, 43, 96
1, 153359, Note_on_c, 9, 38, 0
1, 153359, Note_on_c, 9, 69, 0
1, 153359, Note_on_c, 9, 42, 0
1, 153359, Note_on_c, 9, 43, 0
1, 153375, Note_on_c, 9, 38, 127
1, 153375, Note_on_c, 9, 46, 82
1, 153375, Note_on_c, 9, 43, 103
1, 153389, Note_on_c, 9, 38, 0
1, 153389, Note_on_c, 9, 46, 0
1, 153390, Note_on_c, 9, 73, 89
1, 153479, Note_on_c, 9, 73, 0
1, 153510, Note_on_c, 9, 73, 75
1, 153599, Note_on_c, 9, 43, 0
1, 153599, Note_on_c, 9, 73, 0
1, 153615, Note_on_c, 9, 73, 82
1, 153615, Note_on_c, 9, 49, 79
1, 153615, Note_on_c, 9, 44, 85
1, 153615, Note_on_c, 9, 35, 117
1, 153839, Note_on_c, 9, 73, 0
1, 153839, Note_on_c, 9, 49, 0
1, 153839, Note_on_c, 9, 44, 0
1, 153839, Note_on_c, 9, 35, 0
1, 153840, Note_on_c, 9, 42, 72
1, 154079, Note_on_c, 9, 42, 0
1, 154080, Note_on_c, 9, 38, 119
1, 154080, Note_on_c, 9, 42, 76
1, 154319, Note_on_c, 9, 38, 0
1, 154319, Note_on_c, 9, 42, 0
1, 154320, Note_on_c, 9, 42, 75
1, 154559, Note_on_c, 9, 42, 0
1, 154560, Note_on_c, 9, 42, 78
1, 154560, Note_on_c, 9, 35, 112
1, 154799, Note_on_c, 9, 42, 0
1, 154800, Note_on_c, 9, 42, 69
1, 155039, Note_on_c, 9, 35, 0
1, 155039, Note_on_c, 9, 42, 0
1, 155040, Note_on_c, 9, 38, 121
1, 155040, Note_on_c, 9, 42, 78
1, 155279, Note_on_c, 9, 38, 0
1, 155279, Note_on_c, 9, 42, 0
1, 155280, Note_on_c, 9, 42, 72
1, 155519, Note_on_c, 9, 42, 0
1, 155535, Note_on_c, 9, 42, 78
1, 155535, Note_on_c, 9, 35, 112
1, 155759, Note_on_c, 9, 42, 0
1, 155759, Note_on_c, 9, 35, 0
1, 155760, Note_on_c, 9, 42, 69
1, 155999, Note_on_c, 9, 42, 0
1, 156015, Note_on_c, 9, 38, 119
1, 156015, Note_on_c, 9, 42, 78
1, 156239, Note_on_c, 9, 38, 0
1, 156239, Note_on_c, 9, 42, 0
1, 156255, Note_on_c, 9, 42, 69
1, 156479, Note_on_c, 9, 42, 0
1, 156510, Note_on_c, 9, 42, 77
1, 156510, Note_on_c, 9, 35, 112
1, 156599, Note_on_c, 9, 42, 0
1, 156720, Note_on_c, 9, 69, 88
1, 156734, Note_on_c, 9, 69, 0
1, 156735, Note_on_c, 9, 42, 66
1, 156779, Note_on_c, 9, 42, 0
1, 156840, Note_on_c, 9, 69, 75
1, 156959, Note_on_c, 9, 35, 0
1, 156959, Note_on_c, 9, 69, 0
1, 156960, Note_on_c, 9, 69, 90
1, 156974, Note_on_c, 9, 69, 0
1, 156975, Note_on_c, 9, 38, 115
1, 156975, Note_on_c, 9, 42, 78
1, 157199, Note_on_c, 9, 38, 0
1, 157199, Note_on_c, 9, 42, 0
1, 157215, Note_on_c, 9, 73, 107
1, 157215, Note_on_c, 9, 42, 72
1, 157259, Note_on_c, 9, 73, 0
1, 157259, Note_on_c, 9, 42, 0
1, 157335, Note_on_c, 9, 73, 95
1, 157379, Note_on_c, 9, 73, 0
1, 157455, Note_on_c, 9, 73, 107
1, 157455, Note_on_c, 9, 42, 78
1, 157455, Note_on_c, 9, 35, 110
1, 157679, Note_on_c, 9, 73, 0
1, 157679, Note_on_c, 9, 42, 0
1, 157679, Note_on_c, 9, 35, 0
1, 157695, Note_on_c, 9, 42, 68
1, 157919, Note_on_c, 9, 42, 0
1, 157935, Note_on_c, 9, 38, 116
1, 157935, Note_on_c, 9, 42, 81
1, 158159, Note_on_c, 9, 38, 0
1, 158159, Note_on_c, 9, 42, 0
1, 158175, Note_on_c, 9, 42, 69
1, 158399, Note_on_c, 9, 42, 0
1, 158415, Note_on_c, 9, 42, 78
1, 158415, Note_on_c, 9, 35, 111
1, 158639, Note_on_c, 9, 42, 0
1, 158639, Note_on_c, 9, 35, 0
1, 158655, Note_on_c, 9, 42, 69
1, 158879, Note_on_c, 9, 42, 0
1, 158895, Note_on_c, 9, 38, 117
1, 158895, Note_on_c, 9, 42, 81
1, 159119, Note_on_c, 9, 38, 0
1, 159119, Note_on_c, 9, 42, 0
1, 159120, Note_on_c, 9, 42, 69
1, 159359, Note_on_c, 9, 42, 0
1, 159375, Note_on_c, 9, 42, 78
1, 159375, Note_on_c, 9, 35, 112
1, 159599, Note_on_c, 9, 42, 0
1, 159599, Note_on_c, 9, 35, 0
1, 159600, Note_on_c, 9, 42, 72
1, 159839, Note_on_c, 9, 42, 0
1, 159840, Note_on_c, 9, 38, 121
1, 159840, Note_on_c, 9, 42, 82
1, 160079, Note_on_c, 9, 38, 0
1, 160079, Note_on_c, 9, 42, 0
1, 160080, Note_on_c, 9, 42, 78
1, 160319, Note_on_c, 9, 42, 0
1, 160320, Note_on_c, 9, 42, 85
1, 160320, Note_on_c, 9, 35, 115
1, 160559, Note_on_c, 9, 42, 0
1, 160559, Note_on_c, 9, 35, 0
1, 160560, Note_on_c, 9, 38, 111
1, 160560, Note_on_c, 9, 69, 100
1, 160560, Note_on_c, 9, 42, 89
1, 160560, Note_on_c, 9, 43, 86
1, 160679, Note_on_c, 9, 38, 0
1, 160679, Note_on_c, 9, 69, 0
1, 160679, Note_on_c, 9, 42, 0
1, 160680, Note_on_c, 9, 69, 90
1, 160799, Note_on_c, 9, 43, 0
1, 160799, Note_on_c, 9, 69, 0
1, 160800, Note_on_c, 9, 69, 91
1, 160814, Note_on_c, 9, 69, 0
1, 160815, Note_on_c, 9, 38, 123
1, 160815, Note_on_c, 9, 42, 86
1, 160815, Note_on_c, 9, 43, 98
1, 161039, Note_on_c, 9, 38, 0
1, 161039, Note_on_c, 9, 42, 0
1, 161039, Note_on_c, 9, 43, 0
1, 161040, Note_on_c, 9, 38, 123
1, 161040, Note_on_c, 9, 46, 74
1, 161040, Note_on_c, 9, 73, 113
1, 161040, Note_on_c, 9, 43, 98
1, 161159, Note_on_c, 9, 38, 0
1, 161159, Note_on_c, 9, 46, 0
1, 161159, Note_on_c, 9, 73, 0
1, 161160, Note_on_c, 9, 73, 97
1, 161279, Note_on_c, 9, 43, 0
1, 161279, Note_on_c, 9, 73, 0
1, 161280, Note_on_c, 9, 73, 101
1, 161280, Note_on_c, 9, 49, 74
1, 161280, Note_on_c, 9, 44, 85
1, 161294, Note_on_c, 9, 44, 0
1, 161295, Note_on_c, 9, 35, 113
1, 161519, Note_on_c, 9, 73, 0
1, 161519, Note_on_c, 9, 49, 0
1, 161519, Note_on_c, 9, 35, 0
1, 161520, Note_on_c, 9, 42, 76
1, 161759, Note_on_c, 9, 42, 0
1, 161760, Note_on_c, 9, 38, 120
1, 161760, Note_on_c, 9, 42, 75
1, 161999, Note_on_c, 9, 38, 0
1, 161999, Note_on_c, 9, 42, 0
1, 162015, Note_on_c, 9, 42, 73
1, 162239, Note_on_c, 9, 42, 0
1, 162255, Note_on_c, 9, 42, 78
1, 162255, Note_on_c, 9, 35, 117
1, 162479, Note_on_c, 9, 42, 0
1, 162479, Note_on_c, 9, 35, 0
1, 162480, Note_on_c, 9, 42, 69
1, 162719, Note_on_c, 9, 42, 0
1, 162720, Note_on_c, 9, 38, 118
1, 162720, Note_on_c, 9, 42, 81
1, 162959, Note_on_c, 9, 38, 0
1, 162959, Note_on_c, 9, 42, 0
1, 162975, Note_on_c, 9, 42, 72
1, 163199, Note_on_c, 9, 42, 0
1, 163215, Note_on_c, 9, 42, 79
1, 163215, Note_on_c, 9, 35, 112
1, 163439, Note_on_c, 9, 42, 0
1, 163439, Note_on_c, 9, 35, 0
1, 163455, Note_on_c, 9, 42, 72
1, 163679, Note_on_c, 9, 42, 0
1, 163695, Note_on_c, 9, 38, 115
1, 163695, Note_on_c, 9, 42, 83
1, 163919, Note_on_c, 9, 38, 0
1, 163919, Note_on_c, 9, 42, 0
1, 163935, Note_on_c, 9, 42, 69
1, 164159, Note_on_c, 9, 42, 0
1, 164160, Note_on_c, 9, 42, 78
1, 164160, Note_on_c, 9, 35, 113
1, 164399, Note_on_c, 9, 42, 0
1, 164400, Note_on_c, 9, 69, 91
1, 164400, Note_on_c, 9, 42, 72
1, 164519, Note_on_c, 9, 69, 0
1, 164519, Note_on_c, 9, 42, 0
1, 164520, Note_on_c, 9, 69, 78
1, 164639, Note_on_c, 9, 35, 0
1, 164639, Note_on_c, 9, 69, 0
1, 164640, Note_on_c, 9, 38, 115
1, 164640, Note_on_c, 9, 69, 68
1, 164640, Note_on_c, 9, 42, 86
1, 164879, Note_on_c, 9, 38, 0
1, 164879, Note_on_c, 9, 69, 0
1, 164879, Note_on_c, 9, 42, 0
1, 164895, Note_on_c, 9, 73, 93
1, 164895, Note_on_c, 9, 42, 73
1, 164939, Note_on_c, 9, 73, 0
1, 164939, Note_on_c, 9, 42, 0
1, 165015, Note_on_c, 9, 73, 85
1, 165059, Note_on_c, 9, 73, 0
1, 165135, Note_on_c, 9, 73, 70
1, 165135, Note_on_c, 9, 42, 82
1, 165135, Note_on_c, 9, 35, 114
1, 165359, Note_on_c, 9, 73, 0
1, 165359, Note_on_c, 9, 42, 0
1, 165359, Note_on_c, 9, 35, 0
1, 165390, Note_on_c, 9, 42, 72
1, 165479, Note_on_c, 9, 42, 0
1, 165615, Note_on_c, 9, 38, 118
1, 165615, Note_on_c, 9, 42, 84
1, 165839, Note_on_c, 9, 38, 0
1, 165839, Note_on_c, 9, 42, 0
1, 165840, Note_on_c, 9, 42, 76
1, 166079, Note_on_c, 9, 42, 0
1, 166080, Note_on_c, 9, 42, 79
1, 166080, Note_on_c, 9, 35, 111
1, 166319, Note_on_c, 9, 42, 0
1, 166335, Note_on_c, 9, 42, 70
1, 166559, Note_on_c, 9, 35, 0
1, 166559, Note_on_c, 9, 42, 0
1, 166575, Note_on_c, 9, 38, 115
1, 166575, Note_on_c, 9, 42, 78
1, 166799, Note_on_c, 9, 38, 0
1, 166799, Note_on_c, 9, 42, 0
1, 166800, Note_on_c, 9, 42, 67
1, 167039, Note_on_c, 9, 42, 0
1, 167055, Note_on_c, 9, 42, 81
1, 167055, Note_on_c, 9, 35, 112
1, 167279, Note_on_c, 9, 42, 0
1, 167279, Note_on_c, 9, 35, 0
1, 167280, Note_on_c, 9, 42, 72
1, 167519, Note_on_c, 9, 42, 0
1, 167535, Note_on_c, 9, 38, 120
1, 167535, Note_on_c, 9, 42, 82
1, 167759, Note_on_c, 9, 38, 0
1, 167759, Note_on_c, 9, 42, 0
1, 167760, Note_on_c, 9, 42, 76
1, 167999, Note_on_c, 9, 42, 0
1, 168000, Note_on_c, 9, 42, 81
1, 168000, Note_on_c, 9, 35, 109
1, 168239, Note_on_c, 9, 42, 0
1, 168239, Note_on_c, 9, 35, 0
1, 168240, Note_on_c, 9, 38, 113
1, 168240, Note_on_c, 9, 42, 79
1, 168240, Note_on_c, 9, 43, 88
1, 168254, Note_on_c, 9, 38, 0
1, 168254, Note_on_c, 9, 42, 0
1, 168255, Note_on_c, 9, 69, 94
1, 168299, Note_on_c, 9, 69, 0
1, 168360, Note_on_c, 9, 69, 94
1, 168479, Note_on_c, 9, 43, 0
1, 168479, Note_on_c, 9, 69, 0
1, 168480, Note_on_c, 9, 38, 122
1, 168480, Note_on_c, 9, 69, 80
1, 168480, Note_on_c, 9, 42, 85
1, 168480, Note_on_c, 9, 43, 97
1, 168719, Note_on_c, 9, 38, 0
1, 168719, Note_on_c, 9, 69, 0
1, 168719, Note_on_c, 9, 42, 0
1, 168719, Note_on_c, 9, 43, 0
1, 168735, Note_on_c, 9, 38, 126
1, 168735, Note_on_c, 9, 46, 89
1, 168735, Note_on_c, 9, 73, 87
1, 168735, Note_on_c, 9, 43, 101
1, 168779, Note_on_c, 9, 38, 0
1, 168779, Note_on_c, 9, 46, 0
1, 168779, Note_on_c, 9, 73, 0
1, 168855, Note_on_c, 9, 73, 82
1, 168899, Note_on_c, 9, 73, 0
1, 168959, Note_on_c, 9, 43, 0
1, 168960, Note_on_c, 9, 73, 81
1, 168960, Note_on_c, 9, 49, 87
1, 168975, Note_on_c, 9, 44, 88
1, 168975, Note_on_c, 9, 35, 116
1, 169199, Note_on_c, 9, 73, 0
1, 169199, Note_on_c, 9, 49, 0
1, 169199, Note_on_c, 9, 44, 0
1, 169199, Note_on_c, 9, 35, 0
1, 169200, Note_on_c, 9, 42, 70
1, 169439, Note_on_c, 9, 42, 0
1, 169440, Note_on_c, 9, 38, 120
1, 169440, Note_on_c, 9, 42, 78
1, 169679, Note_on_c, 9, 38, 0
1, 169679, Note_on_c, 9, 42, 0
1, 169680, Note_on_c, 9, 42, 70
1, 169919, Note_on_c, 9, 42, 0
1, 169920, Note_on_c, 9, 42, 76
1, 169920, Note_on_c, 9, 35, 117
1, 170159, Note_on_c, 9, 42, 0
1, 170160, Note_on_c, 9, 42, 72
1, 170399, Note_on_c, 9, 35, 0
1, 170399, Note_on_c, 9, 42, 0
1, 170415, Note_on_c, 9, 38, 120
1, 170415, Note_on_c, 9, 42, 78
1, 170639, Note_on_c, 9, 38, 0
1, 170639, Note_on_c, 9, 42, 0
1, 170640, Note_on_c, 9, 42, 74
1, 170879, Note_on_c, 9, 42, 0
1, 170895, Note_on_c, 9, 42, 76
1, 170895, Note_on_c, 9, 35, 112
1, 171119, Note_on_c, 9, 42, 0
1, 171119, Note_on_c, 9, 35, 0
1, 171135, Note_on_c, 9, 42, 69
1, 171359, Note_on_c, 9, 42, 0
1, 171360, Note_on_c, 9, 38, 119
1, 171360, Note_on_c, 9, 42, 78
1, 171599, Note_on_c, 9, 38, 0
1, 171599, Note_on_c, 9, 42, 0
1, 171600, Note_on_c, 9, 42, 72
1, 171839, Note_on_c, 9, 42, 0
1, 171855, Note_on_c, 9, 42, 78
1, 171855, Note_on_c, 9, 35, 111
1, 172079, Note_on_c, 9, 42, 0
1, 172079, Note_on_c, 9, 35, 0
1, 172080, Note_on_c, 9, 69, 91
1, 172080, Note_on_c, 9, 42, 72
1, 172199, Note_on_c, 9, 69, 0
1, 172199, Note_on_c, 9, 42, 0
1, 172200, Note_on_c, 9, 69, 84
1, 172319, Note_on_c, 9, 69, 0
1, 172320, Note_on_c, 9, 38, 117
1, 172320, Note_on_c, 9, 69, 80
1, 172320, Note_on_c, 9, 42, 83
1, 172559, Note_on_c, 9, 38, 0
1, 172559, Note_on_c, 9, 69, 0
1, 172559, Note_on_c, 9, 42, 0
1, 172575, Note_on_c, 9, 73, 85
1, 172575, Note_on_c, 9, 42, 72
1, 172619, Note_on_c, 9, 73, 0
1, 172619, Note_on_c, 9, 42, 0
1, 172680, Note_on_c, 9, 73, 72
1, 172799, Note_on_c, 9, 73, 0
1, 172815, Note_on_c, 9, 73, 78
1, 172815, Note_on_c, 9, 42, 82
1, 172815, Note_on_c, 9, 35, 111
1, 173039, Note_on_c, 9, 73, 0
1, 173039, Note_on_c, 9, 42, 0
1, 173039, Note_on_c, 9, 35, 0
1, 173055, Note_on_c, 9, 42, 72
1, 173279, Note_on_c, 9, 42, 0
1, 173280, Note_on_c, 9, 38, 118
1, 173280, Note_on_c, 9, 42, 84
1, 173519, Note_on_c, 9, 38, 0
1, 173519, Note_on_c, 9, 42, 0
1, 173520, Note_on_c, 9, 42, 73
1, 173759, Note_on_c, 9, 42, 0
1, 173760, Note_on_c, 9, 42, 83
1, 173760, Note_on_c, 9, 35, 109
1, 173999, Note_on_c, 9, 42, 0
1, 174000, Note_on_c, 9, 42, 76
1, 174239, Note_on_c, 9, 35, 0
1, 174239, Note_on_c, 9, 42, 0
1, 174255, Note_on_c, 9, 38, 119
1, 174255, Note_on_c, 9, 42, 83
1, 174479, Note_on_c, 9, 38, 0
1, 174479, Note_on_c, 9, 42, 0
1, 174495, Note_on_c, 9, 42, 72
1, 174719, Note_on_c, 9, 42, 0
1, 174735, Note_on_c, 9, 42, 77
1, 174735, Note_on_c, 9, 35, 113
1, 174959, Note_on_c, 9, 42, 0
1, 174959, Note_on_c, 9, 35, 0
1, 174960, Note_on_c, 9, 42, 69
1, 175199, Note_on_c, 9, 42, 0
1, 175200, Note_on_c, 9, 38, 118
1, 175200, Note_on_c, 9, 42, 78
1, 175439, Note_on_c, 9, 38, 0
1, 175439, Note_on_c, 9, 42, 0
1, 175440, Note_on_c, 9, 42, 75
1, 175679, Note_on_c, 9, 42, 0
1, 175680, Note_on_c, 9, 42, 78
1, 175680, Note_on_c, 9, 35, 112
1, 175919, Note_on_c, 9, 42, 0
1, 175919, Note_on_c, 9, 35, 0
1, 175935, Note_on_c, 9, 38, 114
1, 175935, Note_on_c, 9, 69, 87
1, 175935, Note_on_c, 9, 42, 78
1, 175935, Note_on_c, 9, 43, 89
1, 175979, Note_on_c, 9, 38, 0
1, 175979, Note_on_c, 9, 69, 0
1, 175979, Note_on_c, 9, 42, 0
1, 176040, Note_on_c, 9, 69, 91
1, 176159, Note_on_c, 9, 43, 0
1, 176159, Note_on_c, 9, 69, 0
1, 176160, Note_on_c, 9, 69, 77
1, 176174, Note_on_c, 9, 69, 0
1, 176175, Note_on_c, 9, 38, 126
1, 176175, Note_on_c, 9, 42, 86
1, 176175, Note_on_c, 9, 43, 101
1, 176399, Note_on_c, 9, 38, 0
1, 176399, Note_on_c, 9, 42, 0
1, 176399, Note_on_c, 9, 43, 0
1, 176415, Note_on_c, 9, 38, 127
1, 176415, Note_on_c, 9, 46, 92
1, 176415, Note_on_c, 9, 73, 89
1, 176415, Note_on_c, 9, 43, 106
1, 176459, Note_on_c, 9, 38, 0
1, 176459, Note_on_c, 9, 46, 0
1, 176459, Note_on_c, 9, 73, 0
1, 176535, Note_on_c, 9, 73, 72
1, 176579, Note_on_c, 9, 73, 0
1, 176639, Note_on_c, 9, 43, 0
1, 176655, Note_on_c, 9, 73, 79
1, 176655, Note_on_c, 9, 49, 82
1, 176655, Note_on_c, 9, 44, 81
1, 176655, Note_on_c, 9, 35, 118
1, 176879, Note_on_c, 9, 73, 0
1, 176879, Note_on_c, 9, 49, 0
1, 176879, Note_on_c, 9, 44, 0
1, 176879, Note_on_c, 9, 35, 0
1, 176895, Note_on_c, 9, 42, 72
1, 177119, Note_on_c, 9, 42, 0
1, 177135, Note_on_c, 9, 38, 118
1, 177135, Note_on_c, 9, 42, 78
1, 177359, Note_on_c, 9, 38, 0
1, 177359, Note_on_c, 9, 42, 0
1, 177360, Note_on_c, 9, 42, 72
1, 177599, Note_on_c, 9, 42, 0
1, 177615, Note_on_c, 9, 42, 78
1, 177615, Note_on_c, 9, 35, 112
1, 177839, Note_on_c, 9, 42, 0
1, 177839, Note_on_c, 9, 35, 0
1, 177855, Note_on_c, 9, 42, 72
1, 178079, Note_on_c, 9, 42, 0
1, 178110, Note_on_c, 9, 38, 121
1, 178110, Note_on_c, 9, 42, 78
1, 178199, Note_on_c, 9, 38, 0
1, 178199, Note_on_c, 9, 42, 0
1, 178335, Note_on_c, 9, 42, 74
1, 178559, Note_on_c, 9, 42, 0
1, 178575, Note_on_c, 9, 42, 85
1, 178575, Note_on_c, 9, 35, 112
1, 178799, Note_on_c, 9, 42, 0
1, 178799, Note_on_c, 9, 35, 0
1, 178815, Note_on_c, 9, 42, 73
1, 179039, Note_on_c, 9, 42, 0
1, 179055, Note_on_c, 9, 38, 120
1, 179055, Note_on_c, 9, 42, 81
1, 179279, Note_on_c, 9, 38, 0
1, 179279, Note_on_c, 9, 42, 0
1, 179280, Note_on_c, 9, 42, 69
1, 179519, Note_on_c, 9, 42, 0
1, 179520, Note_on_c, 9, 42, 81
1, 179520, Note_on_c, 9, 35, 113
1, 179759, Note_on_c, 9, 42, 0
1, 179760, Note_on_c, 9, 42, 69
1, 179774, Note_on_c, 9, 42, 0
1, 179775, Note_on_c, 9, 69, 67
1, 179819, Note_on_c, 9, 69, 0
1, 179880, Note_on_c, 9, 69, 81
1, 179999, Note_on_c, 9, 35, 0
1, 179999, Note_on_c, 9, 69, 0
1, 180000, Note_on_c, 9, 38, 119
1, 180000, Note_on_c, 9, 69, 84
1, 180000, Note_on_c, 9, 42, 78
1, 180239, Note_on_c, 9, 38, 0
1, 180239, Note_on_c, 9, 69, 0
1, 180239, Note_on_c, 9, 42, 0
1, 180255, Note_on_c, 9, 73, 85
1, 180255, Note_on_c, 9, 42, 70
1, 180299, Note_on_c, 9, 73, 0
1, 180299, Note_on_c, 9, 42, 0
1, 180375, Note_on_c, 9, 73, 79
1, 180419, Note_on_c, 9, 73, 0
1, 180495, Note_on_c, 9, 73, 79
1, 180495, Note_on_c, 9, 42, 82
1, 180495, Note_on_c, 9, 35, 113
1, 180719, Note_on_c, 9, 73, 0
1, 180719, Note_on_c, 9, 42, 0
1, 180719, Note_on_c, 9, 35, 0
1, 180720, Note_on_c, 9, 42, 72
1, 180959, Note_on_c, 9, 42, 0
1, 180960, Note_on_c, 9, 38, 120
1, 180960, Note_on_c, 9, 42, 81
1, 181199, Note_on_c, 9, 38, 0
1, 181199, Note_on_c, 9, 42, 0
1, 181215, Note_on_c, 9, 42, 71
1, 181439, Note_on_c, 9, 42, 0
1, 181455, Note_on_c, 9, 42, 75
1, 181455, Note_on_c, 9, 35, 108
1, 181679, Note_on_c, 9, 42, 0
1, 181679, Note_on_c, 9, 35, 0
1, 181680, Note_on_c, 9, 42, 67
1, 181919, Note_on_c, 9, 42, 0
1, 181935, Note_on_c, 9, 38, 119
1, 181935, Note_on_c, 9, 42, 84
1, 182159, Note_on_c, 9, 38, 0
1, 182159, Note_on_c, 9, 42, 0
1, 182160, Note_on_c, 9, 42, 72
1, 182399, Note_on_c, 9, 42, 0
1, 182415, Note_on_c, 9, 42, 79
1, 182415, Note_on_c, 9, 35, 112
1, 182639, Note_on_c, 9, 42, 0
1, 182639, Note_on_c, 9, 35, 0
1, 182640, Note_on_c, 9, 42, 74
1, 182879, Note_on_c, 9, 42, 0
1, 182880, Note_on_c, 9, 38, 119
1, 182880, Note_on_c, 9, 42, 82
1, 183119, Note_on_c, 9, 38, 0
1, 183119, Note_on_c, 9, 42, 0
1, 183135, Note_on_c, 9, 42, 81
1, 183359, Note_on_c, 9, 42, 0
1, 183390, Note_on_c, 9, 42, 81
1, 183390, Note_on_c, 9, 35, 116
1, 183479, Note_on_c, 9, 42, 0
1, 183615, Note_on_c, 9, 69, 97
1, 183615, Note_on_c, 9, 42, 81
1, 183659, Note_on_c, 9, 69, 0
1, 183659, Note_on_c, 9, 42, 0
1, 183735, Note_on_c, 9, 69, 73
1, 183779, Note_on_c, 9, 69, 0
1, 183839, Note_on_c, 9, 35, 0
1, 183840, Note_on_c, 9, 38, 117
1, 183840, Note_on_c, 9, 42, 86
1, 183840, Note_on_c, 9, 43, 92
1, 183854, Note_on_c, 9, 38, 0
1, 183854, Note_on_c, 9, 42, 0
1, 183855, Note_on_c, 9, 69, 68
1, 184079, Note_on_c, 9, 43, 0
1, 184079, Note_on_c, 9, 69, 0
1, 184080, Note_on_c, 9, 38, 127
1, 184080, Note_on_c, 9, 46, 88
1, 184080, Note_on_c, 9, 43, 106
1, 184094, Note_on_c, 9, 38, 0
1, 184094, Note_on_c, 9, 46, 0
1, 184095, Note_on_c, 9, 73, 79
1, 184139, Note_on_c, 9, 73, 0
1, 184200, Note_on_c, 9, 73, 79
1, 184319, Note_on_c, 9, 43, 0
1, 184319, Note_on_c, 9, 73, 0
1, 184320, Note_on_c, 9, 49, 87
1, 184334, Note_on_c, 9, 49, 0
1, 184335, Note_on_c, 9, 73, 79
1, 184335, Note_on_c, 9, 44, 85
1, 184335, Note_on_c, 9, 35, 109
1, 184559, Note_on_c, 9, 73, 0
1, 184559, Note_on_c, 9, 44, 0
1, 184559, Note_on_c, 9, 35, 0
1, 184575, Note_on_c, 9, 42, 71
1, 184799, Note_on_c, 9, 42, 0
1, 184815, Note_on_c, 9, 38, 120
1, 184815, Note_on_c, 9, 42, 78
1, 185039, Note_on_c, 9, 38, 0
1, 185039, Note_on_c, 9, 42, 0
1, 185055, Note_on_c, 9, 42, 72
1, 185279, Note_on_c, 9, 42, 0
1, 185295, Note_on_c, 9, 42, 77
1, 185295, Note_on_c, 9, 35, 111
1, 185519, Note_on_c, 9, 42, 0
1, 185519, Note_on_c, 9, 35, 0
1, 185520, Note_on_c, 9, 42, 73
1, 185759, Note_on_c, 9, 42, 0
1, 185760, Note_on_c, 9, 38, 119
1, 185760, Note_on_c, 9, 42, 84
1, 185999, Note_on_c, 9, 38, 0
1, 185999, Note_on_c, 9, 42, 0
1, 186000, Note_on_c, 9, 42, 75
1, 186239, Note_on_c, 9, 42, 0
1, 186255, Note_on_c, 9, 42, 78
1, 186255, Note_on_c, 9, 35, 112
1, 186479, Note_on_c, 9, 42, 0
1, 186479, Note_on_c, 9, 35, 0
1, 186480, Note_on_c, 9, 42, 69
1, 186719, Note_on_c, 9, 42, 0
1, 186735, Note_on_c, 9, 38, 119
1, 186735, Note_on_c, 9, 42, 84
1, 186959, Note_on_c, 9, 38, 0
1, 186959, Note_on_c, 9, 42, 0
1, 186960, Note_on_c, 9, 42, 70
1, 187199, Note_on_c, 9, 42, 0
1, 187200, Note_on_c, 9, 42, 78
1, 187200, Note_on_c, 9, 35, 109
1, 187439, Note_on_c, 9, 42, 0
1, 187440, Note_on_c, 9, 42, 71
1, 187454, Note_on_c, 9, 42, 0
1, 187455, Note_on_c, 9, 69, 84
1, 187499, Note_on_c, 9, 69, 0
1, 187575, Note_on_c, 9, 69, 79
1, 187619, Note_on_c, 9, 69, 0
1, 187679, Note_on_c, 9, 35, 0
1, 187695, Note_on_c, 9, 38, 119
1, 187695, Note_on_c, 9, 69, 76
1, 187695, Note_on_c, 9, 42, 82
1, 187919, Note_on_c, 9, 38, 0
1, 187919, Note_on_c, 9, 69, 0
1, 187919, Note_on_c, 9, 42, 0
1, 187935, Note_on_c, 9, 42, 72
1, 187949, Note_on_c, 9, 42, 0
1, 187950, Note_on_c, 9, 73, 81
1, 188039, Note_on_c, 9, 73, 0
1, 188055, Note_on_c, 9, 73, 67
1, 188099, Note_on_c, 9, 73, 0
1, 188190, Note_on_c, 9, 73, 81
1, 188190, Note_on_c, 9, 42, 84
1, 188190, Note_on_c, 9, 35, 110
1, 188279, Note_on_c, 9, 73, 0
1, 188279, Note_on_c, 9, 42, 0
1, 188430, Note_on_c, 9, 42, 69
1, 188519, Note_on_c, 9, 42, 0
1, 188639, Note_on_c, 9, 35, 0
1, 188670, Note_on_c, 9, 38, 117
1, 188670, Note_on_c, 9, 42, 84
1, 188759, Note_on_c, 9, 38, 0
1, 188759, Note_on_c, 9, 42, 0
1, 188910, Note_on_c, 9, 42, 71
1, 188999, Note_on_c, 9, 42, 0
1, 189150, Note_on_c, 9, 42, 82
1, 189150, Note_on_c, 9, 35, 113
1, 189239, Note_on_c, 9, 42, 0
1, 189375, Note_on_c, 9, 42, 74
1, 189599, Note_on_c, 9, 35, 0
1, 189599, Note_on_c, 9, 42, 0
1, 189615, Note_on_c, 9, 38, 116
1, 189615, Note_on_c, 9, 42, 81
1, 189839, Note_on_c, 9, 38, 0
1, 189839, Note_on_c, 9, 42, 0
1, 189855, Note_on_c, 9, 42, 72
1, 190079, Note_on_c, 9, 42, 0
1, 190110, Note_on_c, 9, 42, 84
1, 190110, Note_on_c, 9, 35, 112
1, 190199, Note_on_c, 9, 42, 0
1, 190335, Note_on_c, 9, 42, 72
1, 190559, Note_on_c, 9, 35, 0
1, 190559, Note_on_c, 9, 42, 0
1, 190575, Note_on_c, 9, 38, 120
1, 190575, Note_on_c, 9, 42, 85
1, 190799, Note_on_c, 9, 38, 0
1, 190799, Note_on_c, 9, 42, 0
1, 190815, Note_on_c, 9, 42, 78
1, 191039, Note_on_c, 9, 42, 0
1, 191055, Note_on_c, 9, 42, 83
1, 191055, Note_on_c, 9, 35, 107
1, 191279, Note_on_c, 9, 42, 0
1, 191279, Note_on_c, 9, 35, 0
1, 191295, Note_on_c, 9, 69, 88
1, 191295, Note_on_c, 9, 42, 77
1, 191339, Note_on_c, 9, 69, 0
1, 191339, Note_on_c, 9, 42, 0
1, 191415, Note_on_c, 9, 69, 76
1, 191459, Note_on_c, 9, 69, 0
1, 191535, Note_on_c, 9, 38, 121
1, 191535, Note_on_c, 9, 69, 86
1, 191535, Note_on_c, 9, 42, 83
1, 191535, Note_on_c, 9, 43, 96
1, 191759, Note_on_c, 9, 38, 0
1, 191759, Note_on_c, 9, 69, 0
1, 191759, Note_on_c, 9, 42, 0
1, 191759, Note_on_c, 9, 43, 0
1, 191760, Note_on_c, 9, 38, 123
1, 191760, Note_on_c, 9, 43, 98
1, 191774, Note_on_c, 9, 38, 0
1, 191775, Note_on_c, 9, 46, 78
1, 191775, Note_on_c, 9, 73, 89
1, 191819, Note_on_c, 9, 46, 0
1, 191819, Note_on_c, 9, 73, 0
1, 191895, Note_on_c, 9, 73, 75
1, 191939, Note_on_c, 9, 73, 0
1, 191999, Note_on_c, 9, 43, 0
1, 192000, Note_on_c, 9, 49, 84
1, 192000, Note_on_c, 9, 44, 86
1, 192014, Note_on_c, 9, 49, 0
1, 192014, Note_on_c, 9, 44, 0
1, 192015, Note_on_c, 9, 73, 82
1, 192015, Note_on_c, 9, 35, 114
1, 192239, Note_on_c, 9, 73, 0
1, 192239, Note_on_c, 9, 35, 0
1, 192255, Note_on_c, 9, 42, 77
1, 192479, Note_on_c, 9, 42, 0
1, 192510, Note_on_c, 9, 38, 121
1, 192510, Note_on_c, 9, 42, 81
1, 192599, Note_on_c, 9, 38, 0
1, 192599, Note_on_c, 9, 42, 0
1, 192735, Note_on_c, 9, 42, 68
1, 192959, Note_on_c, 9, 42, 0
1, 192975, Note_on_c, 9, 42, 78
1, 192975, Note_on_c, 9, 35, 111
1, 193199, Note_on_c, 9, 42, 0
1, 193199, Note_on_c, 9, 35, 0
1, 193215, Note_on_c, 9, 42, 70
1, 193439, Note_on_c, 9, 42, 0
1, 193455, Note_on_c, 9, 38, 117
1, 193455, Note_on_c, 9, 42, 79
1, 193679, Note_on_c, 9, 38, 0
1, 193679, Note_on_c, 9, 42, 0
1, 193680, Note_on_c, 9, 42, 74
1, 193919, Note_on_c, 9, 42, 0
1, 193935, Note_on_c, 9, 42, 83
1, 193935, Note_on_c, 9, 35, 114
1, 194159, Note_on_c, 9, 42, 0
1, 194159, Note_on_c, 9, 35, 0
1, 194175, Note_on_c, 9, 42, 72
1, 194399, Note_on_c, 9, 42, 0
1, 194430, Note_on_c, 9, 38, 116
1, 194430, Note_on_c, 9, 42, 82
1, 194519, Note_on_c, 9, 38, 0
1, 194519, Note_on_c, 9, 42, 0
1, 194640, Note_on_c, 9, 42, 72
1, 194879, Note_on_c, 9, 42, 0
1, 194895, Note_on_c, 9, 42, 81
1, 194895, Note_on_c, 9, 35, 108
1, 195119, Note_on_c, 9, 42, 0
1, 195119, Note_on_c, 9, 35, 0
1, 195120, Note_on_c, 9, 69, 88
1, 195134, Note_on_c, 9, 69, 0
1, 195135, Note_on_c, 9, 42, 74
1, 195179, Note_on_c, 9, 42, 0
1, 195240, Note_on_c, 9, 69, 75
1, 195359, Note_on_c, 9, 69, 0
1, 195360, Note_on_c, 9, 69, 90
1, 195374, Note_on_c, 9, 69, 0
1, 195375, Note_on_c, 9, 38, 120
1, 195375, Note_on_c, 9, 42, 81
1, 195599, Note_on_c, 9, 38, 0
1, 195599, Note_on_c, 9, 42, 0
1, 195615, Note_on_c, 9, 73, 107
1, 195615, Note_on_c, 9, 42, 74
1, 195659, Note_on_c, 9, 73, 0
1, 195659, Note_on_c, 9, 42, 0
1, 195720, Note_on_c, 9, 73, 95
1, 195839, Note_on_c, 9, 73, 0
1, 195840, Note_on_c, 9, 73, 107
1, 195840, Note_on_c, 9, 42, 78
1, 195840, Note_on_c, 9, 35, 112
1, 196079, Note_on_c, 9, 73, 0
1, 196079, Note_on_c, 9, 42, 0
1, 196080, Note_on_c, 9, 42, 74
1, 196319, Note_on_c, 9, 35, 0
1, 196319, Note_on_c, 9, 42, 0
1, 196335, Note_on_c, 9, 38, 118
1, 196335, Note_on_c, 9, 42, 74
1, 196559, Note_on_c, 9, 38, 0
1, 196559, Note_on_c, 9, 42, 0
1, 196575, Note_on_c, 9, 42, 70
1, 196799, Note_on_c, 9, 42, 0
1, 196815, Note_on_c, 9, 42, 78
1, 196815, Note_on_c, 9, 35, 109
1, 197039, Note_on_c, 9, 42, 0
1, 197039, Note_on_c, 9, 35, 0
1, 197040, Note_on_c, 9, 42, 75
1, 197279, Note_on_c, 9, 42, 0
1, 197280, Note_on_c, 9, 38, 119
1, 197280, Note_on_c, 9, 42, 78
1, 197519, Note_on_c, 9, 38, 0
1, 197519, Note_on_c, 9, 42, 0
1, 197520, Note_on_c, 9, 42, 70
1, 197759, Note_on_c, 9, 42, 0
1, 197775, Note_on_c, 9, 42, 78
1, 197775, Note_on_c, 9, 35, 113
1, 197999, Note_on_c, 9, 42, 0
1, 197999, Note_on_c, 9, 35, 0
1, 198015, Note_on_c, 9, 42, 72
1, 198239, Note_on_c, 9, 42, 0
1, 198255, Note_on_c, 9, 38, 121
1, 198255, Note_on_c, 9, 42, 74
1, 198479, Note_on_c, 9, 38, 0
1, 198479, Note_on_c, 9, 42, 0
1, 198495, Note_on_c, 9, 42, 75
1, 198719, Note_on_c, 9, 42, 0
1, 198720, Note_on_c, 9, 38, 125
1, 198720, Note_on_c, 9, 43, 100
1, 198735, Note_on_c, 9, 42, 79
1, 198735, Note_on_c, 9, 35, 113
1, 198959, Note_on_c, 9, 38, 0
1, 198959, Note_on_c, 9, 43, 0
1, 199004, Note_on_c, 9, 42, 0
1, 199004, Note_on_c, 9, 35, 0
1, 199005, Note_on_c, 9, 38, 113
1, 199005, Note_on_c, 9, 69, 100
1, 199005, Note_on_c, 9, 42, 76
1, 199005, Note_on_c, 9, 43, 88
1, 199139, Note_on_c, 9, 38, 0
1, 199139, Note_on_c, 9, 69, 0
1, 199139, Note_on_c, 9, 42, 0
1, 199140, Note_on_c, 9, 69, 90
1, 199199, Note_on_c, 9, 43, 0
1, 199199, Note_on_c, 9, 69, 0
1, 199260, Note_on_c, 9, 38, 122
1, 199260, Note_on_c, 9, 69, 91
1, 199260, Note_on_c, 9, 42, 86
1, 199260, Note_on_c, 9, 35, 114
1, 199260, Note_on_c, 9, 43, 97
1, 199439, Note_on_c, 9, 38, 0
1, 199439, Note_on_c, 9, 69, 0
1, 199439, Note_on_c, 9, 42, 0
1, 199470, Note_on_c, 9, 46, 88
1, 199470, Note_on_c, 9, 73, 113
1, 199484, Note_on_c, 9, 35, 0
1, 199484, Note_on_c, 9, 43, 0
1, 199484, Note_on_c, 9, 46, 0
1, 199484, Note_on_c, 9, 73, 0
1, 199485, Note_on_c, 9, 38, 115
1, 199485, Note_on_c, 9, 43, 90
1, 199499, Note_on_c, 9, 38, 0
1, 199575, Note_on_c, 9, 73, 97
1, 199619, Note_on_c, 9, 73, 0
1, 199679, Note_on_c, 9, 43, 0
1, 199680, Note_on_c, 9, 73, 101
1, 199680, Note_on_c, 9, 49, 87
1, 199680, Note_on_c, 9, 44, 78
1, 199694, Note_on_c, 9, 44, 0
1, 199695, Note_on_c, 9, 35, 116
1, 199919, Note_on_c, 9, 73, 0
1, 199919, Note_on_c, 9, 49, 0
1, 199919, Note_on_c, 9, 35, 0
1, 199935, Note_on_c, 9, 42, 76
1, 200159, Note_on_c, 9, 42, 0
1, 200160, Note_on_c, 9, 38, 117
1, 200160, Note_on_c, 9, 42, 78
1, 200399, Note_on_c, 9, 38, 0
1, 200399, Note_on_c, 9, 42, 0
1, 200400, Note_on_c, 9, 42, 70
1, 200639, Note_on_c, 9, 42, 0
1, 200640, Note_on_c, 9, 42, 71
1, 200640, Note_on_c, 9, 35, 110
1, 200879, Note_on_c, 9, 42, 0
1, 200880, Note_on_c, 9, 42, 72
1, 201119, Note_on_c, 9, 35, 0
1, 201119, Note_on_c, 9, 42, 0
1, 201120, Note_on_c, 9, 38, 120
1, 201120, Note_on_c, 9, 42, 76
1, 201359, Note_on_c, 9, 38, 0
1, 201359, Note_on_c, 9, 42, 0
1, 201375, Note_on_c, 9, 42, 67
1, 201599, Note_on_c, 9, 42, 0
1, 201630, Note_on_c, 9, 42, 78
1, 201630, Note_on_c, 9, 35, 109
1, 201719, Note_on_c, 9, 42, 0
1, 201855, Note_on_c, 9, 42, 69
1, 202079, Note_on_c, 9, 35, 0
1, 202079, Note_on_c, 9, 42, 0
1, 202095, Note_on_c, 9, 38, 115
1, 202095, Note_on_c, 9, 42, 81
1, 202319, Note_on_c, 9, 38, 0
1, 202319, Note_on_c, 9, 42, 0
1, 202335, Note_on_c, 9, 42, 68
1, 202559, Note_on_c, 9, 42, 0
1, 202605, Note_on_c, 9, 42, 82
1, 202605, Note_on_c, 9, 35, 106
1, 202799, Note_on_c, 9, 42, 0
1, 202799, Note_on_c, 9, 35, 0
1, 202815, Note_on_c, 9, 42, 71
1, 202829, Note_on_c, 9, 42, 0
1, 202830, Note_on_c, 9, 69, 91
1, 202919, Note_on_c, 9, 69, 0
1, 202935, Note_on_c, 9, 69, 78
1, 202979, Note_on_c, 9, 69, 0
1, 203055, Note_on_c, 9, 38, 115
1, 203055, Note_on_c, 9, 69, 68
1, 203055, Note_on_c, 9, 42, 82
1, 203279, Note_on_c, 9, 38, 0
1, 203279, Note_on_c, 9, 69, 0
1, 203279, Note_on_c, 9, 42, 0
1, 203310, Note_on_c, 9, 73, 93
1, 203310, Note_on_c, 9, 42, 66
1, 203399, Note_on_c, 9, 73, 0
1, 203399, Note_on_c, 9, 42, 0
1, 203430, Note_on_c, 9, 73, 85
1, 203519, Note_on_c, 9, 73, 0
1, 203565, Note_on_c, 9, 73, 70
1, 203565, Note_on_c, 9, 42, 74
1, 203565, Note_on_c, 9, 35, 108
1, 203759, Note_on_c, 9, 73, 0
1, 203759, Note_on_c, 9, 42, 0
1, 203759, Note_on_c, 9, 35, 0
1, 203775, Note_on_c, 9, 42, 69
1, 203999, Note_on_c, 9, 42, 0
1, 204015, Note_on_c, 9, 38, 117
1, 204015, Note_on_c, 9, 42, 81
1, 204239, Note_on_c, 9, 38, 0
1, 204239, Note_on_c, 9, 42, 0
1, 204240, Note_on_c, 9, 42, 72
1, 204479, Note_on_c, 9, 42, 0
1, 204495, Note_on_c, 9, 42, 76
1, 204495, Note_on_c, 9, 35, 111
1, 204719, Note_on_c, 9, 35, 0
1, 204764, Note_on_c, 9, 42, 0
1, 204765, Note_on_c, 9, 42, 72
1, 204959, Note_on_c, 9, 42, 0
1, 205020, Note_on_c, 9, 38, 119
1, 205020, Note_on_c, 9, 42, 78
1, 205199, Note_on_c, 9, 38, 0
1, 205199, Note_on_c, 9, 42, 0
1, 205215, Note_on_c, 9, 42, 69
1, 205424, Note_on_c, 9, 42, 0
1, 205425, Note_on_c, 9, 42, 73
1, 205425, Note_on_c, 9, 35, 112
1, 205439, Note_on_c, 9, 42, 0
1, 205439, Note_on_c, 9, 35, 0
1, 205680, Note_on_c, 9, 42, 70
1, 205919, Note_on_c, 9, 42, 0
1, 205935, Note_on_c, 9, 38, 119
1, 205935, Note_on_c, 9, 42, 78
1, 206159, Note_on_c, 9, 38, 0
1, 206159, Note_on_c, 9, 42, 0
1, 206175, Note_on_c, 9, 42, 69
1, 206399, Note_on_c, 9, 42, 0
1, 206430, Note_on_c, 9, 42, 78
1, 206430, Note_on_c, 9, 35, 109
1, 206519, Note_on_c, 9, 42, 0
1, 206519, Note_on_c, 9, 35, 0
1, 206655, Note_on_c, 9, 38, 109
1, 206655, Note_on_c, 9, 42, 73
1, 206655, Note_on_c, 9, 43, 84
1, 206669, Note_on_c, 9, 38, 0
1, 206669, Note_on_c, 9, 42, 0
1, 206670, Note_on_c, 9, 69, 94
1, 206759, Note_on_c, 9, 69, 0
1, 206775, Note_on_c, 9, 69, 94
1, 206819, Note_on_c, 9, 69, 0
1, 206879, Note_on_c, 9, 43, 0
1, 206880, Note_on_c, 9, 69, 80
1, 206894, Note_on_c, 9, 69, 0
1, 206895, Note_on_c, 9, 38, 116
1, 206895, Note_on_c, 9, 42, 83
1, 206895, Note_on_c, 9, 43, 91
1, 207119, Note_on_c, 9, 38, 0
1, 207119, Note_on_c, 9, 42, 0
1, 207119, Note_on_c, 9, 43, 0
1, 207135, Note_on_c, 9, 38, 127
1, 207135, Note_on_c, 9, 46, 88
1, 207135, Note_on_c, 9, 73, 87
1, 207135, Note_on_c, 9, 43, 103
1, 207179, Note_on_c, 9, 38, 0
1, 207179, Note_on_c, 9, 46, 0
1, 207179, Note_on_c, 9, 73, 0
1, 207255, Note_on_c, 9, 73, 82
1, 207299, Note_on_c, 9, 73, 0
1, 207359, Note_on_c, 9, 43, 0
1, 207360, Note_on_c, 9, 73, 81
1, 207360, Note_on_c, 9, 44, 90
1, 207374, Note_on_c, 9, 73, 0
1, 207374, Note_on_c, 9, 44, 0
1, 207375, Note_on_c, 9, 49, 85
1, 207375, Note_on_c, 9, 35, 107
1, 207599, Note_on_c, 9, 49, 0
1, 207599, Note_on_c, 9, 35, 0
1, 207600, Note_on_c, 9, 42, 73
1, 207839, Note_on_c, 9, 42, 0
1, 207840, Note_on_c, 9, 38, 120
1, 207840, Note_on_c, 9, 42, 78
1, 208079, Note_on_c, 9, 38, 0
1, 208079, Note_on_c, 9, 42, 0
1, 208080, Note_on_c, 9, 42, 74
1, 208319, Note_on_c, 9, 42, 0
1, 208320, Note_on_c, 9, 42, 81
1, 208320, Note_on_c, 9, 35, 111
1, 208559, Note_on_c, 9, 42, 0
1, 208560, Note_on_c, 9, 42, 73
1, 208799, Note_on_c, 9, 35, 0
1, 208799, Note_on_c, 9, 42, 0
1, 208815, Note_on_c, 9, 38, 120
1, 208815, Note_on_c, 9, 42, 84
1, 209039, Note_on_c, 9, 38, 0
1, 209039, Note_on_c, 9, 42, 0
1, 209055, Note_on_c, 9, 42, 75
1, 209279, Note_on_c, 9, 42, 0
1, 209295, Note_on_c, 9, 42, 78
1, 209295, Note_on_c, 9, 35, 113
1, 209519, Note_on_c, 9, 42, 0
1, 209519, Note_on_c, 9, 35, 0
1, 209520, Note_on_c, 9, 42, 67
1, 209759, Note_on_c, 9, 42, 0
1, 209775, Note_on_c, 9, 38, 118
1, 209775, Note_on_c, 9, 42, 85
1, 209999, Note_on_c, 9, 38, 0
1, 209999, Note_on_c, 9, 42, 0
1, 210015, Note_on_c, 9, 42, 72
1, 210239, Note_on_c, 9, 42, 0
1, 210255, Note_on_c, 9, 42, 82
1, 210255, Note_on_c, 9, 35, 111
1, 210479, Note_on_c, 9, 42, 0
1, 210479, Note_on_c, 9, 35, 0
1, 210495, Note_on_c, 9, 69, 91
1, 210495, Note_on_c, 9, 42, 66
1, 210539, Note_on_c, 9, 69, 0
1, 210539, Note_on_c, 9, 42, 0
1, 210615, Note_on_c, 9, 69, 84
1, 210659, Note_on_c, 9, 69, 0
1, 210735, Note_on_c, 9, 38, 117
1, 210735, Note_on_c, 9, 69, 80
1, 210735, Note_on_c, 9, 42, 79
1, 210959, Note_on_c, 9, 38, 0
1, 210959, Note_on_c, 9, 69, 0
1, 210959, Note_on_c, 9, 42, 0
1, 210975, Note_on_c, 9, 73, 85
1, 210975, Note_on_c, 9, 42, 71
1, 211019, Note_on_c, 9, 73, 0
1, 211019, Note_on_c, 9, 42, 0
1, 211095, Note_on_c, 9, 73, 72
1, 211139, Note_on_c, 9, 73, 0
1, 211215, Note_on_c, 9, 73, 78
1, 211215, Note_on_c, 9, 42, 77
1, 211215, Note_on_c, 9, 35, 110
1, 211439, Note_on_c, 9, 73, 0
1, 211439, Note_on_c, 9, 42, 0
1, 211439, Note_on_c, 9, 35, 0
1, 211440, Note_on_c, 9, 42, 70
1, 211679, Note_on_c, 9, 42, 0
1, 211680, Note_on_c, 9, 38, 116
1, 211680, Note_on_c, 9, 42, 79
1, 211919, Note_on_c, 9, 38, 0
1, 211919, Note_on_c, 9, 42, 0
1, 211920, Note_on_c, 9, 42, 69
1, 212159, Note_on_c, 9, 42, 0
1, 212175, Note_on_c, 9, 42, 82
1, 212175, Note_on_c, 9, 35, 107
1, 212399, Note_on_c, 9, 42, 0
1, 212399, Note_on_c, 9, 35, 0
1, 212415, Note_on_c, 9, 42, 70
1, 212639, Note_on_c, 9, 42, 0
1, 212655, Note_on_c, 9, 38, 119
1, 212655, Note_on_c, 9, 42, 78
1, 212879, Note_on_c, 9, 38, 0
1, 212879, Note_on_c, 9, 42, 0
1, 212895, Note_on_c, 9, 42, 72
1, 213119, Note_on_c, 9, 42, 0
1, 213135, Note_on_c, 9, 42, 78
1, 213135, Note_on_c, 9, 35, 109
1, 213359, Note_on_c, 9, 42, 0
1, 213359, Note_on_c, 9, 35, 0
1, 213360, Note_on_c, 9, 42, 71
1, 213599, Note_on_c, 9, 42, 0
1, 213615, Note_on_c, 9, 38, 120
1, 213615, Note_on_c, 9, 42, 77
1, 213839, Note_on_c, 9, 38, 0
1, 213839, Note_on_c, 9, 42, 0
1, 213840, Note_on_c, 9, 42, 70
1, 214079, Note_on_c, 9, 42, 0
1, 214095, Note_on_c, 9, 42, 78
1, 214095, Note_on_c, 9, 35, 111
1, 214319, Note_on_c, 9, 42, 0
1, 214319, Note_on_c, 9, 35, 0
1, 214335, Note_on_c, 9, 38, 105
1, 214335, Note_on_c, 9, 69, 87
1, 214335, Note_on_c, 9, 42, 74
1, 214335, Note_on_c, 9, 43, 80
1, 214379, Note_on_c, 9, 38, 0
1, 214379, Note_on_c, 9, 69, 0
1, 214379, Note_on_c, 9, 42, 0
1, 214440, Note_on_c, 9, 69, 91
1, 214559, Note_on_c, 9, 43, 0
1, 214559, Note_on_c, 9, 69, 0
1, 214560, Note_on_c, 9, 69, 77
1, 214560, Note_on_c, 9, 42, 82
1, 214589, Note_on_c, 9, 69, 0
1, 214589, Note_on_c, 9, 42, 0
1, 214590, Note_on_c, 9, 38, 114
1, 214590, Note_on_c, 9, 43, 89
1, 214679, Note_on_c, 9, 38, 0
1, 214679, Note_on_c, 9, 43, 0
1, 214815, Note_on_c, 9, 46, 84
1, 214815, Note_on_c, 9, 73, 89
1, 214829, Note_on_c, 9, 46, 0
1, 214829, Note_on_c, 9, 73, 0
1, 214830, Note_on_c, 9, 38, 123
1, 214830, Note_on_c, 9, 43, 98
1, 214919, Note_on_c, 9, 38, 0
1, 214919, Note_on_c, 9, 43, 0
1, 214935, Note_on_c, 9, 73, 72
1, 214979, Note_on_c, 9, 73, 0
1, 215040, Note_on_c, 9, 44, 78
1, 215055, Note_on_c, 9, 73, 79
1, 215055, Note_on_c, 9, 49, 82
1, 215069, Note_on_c, 9, 44, 0
1, 215070, Note_on_c, 9, 35, 107
1, 215279, Note_on_c, 9, 73, 0
1, 215279, Note_on_c, 9, 49, 0
1, 215280, Note_on_c, 9, 42, 75
1, 215519, Note_on_c, 9, 35, 0
1, 215519, Note_on_c, 9, 42, 0
1, 215535, Note_on_c, 9, 38, 118
1, 215535, Note_on_c, 9, 42, 78
1, 215759, Note_on_c, 9, 38, 0
1, 215759, Note_on_c, 9, 42, 0
1, 215760, Note_on_c, 9, 42, 62
1, 215999, Note_on_c, 9, 42, 0
1, 216000, Note_on_c, 9, 42, 81
1, 216000, Note_on_c, 9, 35, 109
1, 216224, Note_on_c, 9, 42, 0
1, 216225, Note_on_c, 9, 42, 73
1, 216239, Note_on_c, 9, 42, 0
1, 216479, Note_on_c, 9, 35, 0
1, 216480, Note_on_c, 9, 38, 119
1, 216480, Note_on_c, 9, 42, 88
1, 216719, Note_on_c, 9, 38, 0
1, 216719, Note_on_c, 9, 42, 0
1, 216720, Note_on_c, 9, 42, 77
1, 216959, Note_on_c, 9, 42, 0
1, 216960, Note_on_c, 9, 42, 78
1, 216960, Note_on_c, 9, 35, 107
1, 217199, Note_on_c, 9, 42, 0
1, 217200, Note_on_c, 9, 42, 78
1, 217439, Note_on_c, 9, 35, 0
1, 217439, Note_on_c, 9, 42, 0
1, 217440, Note_on_c, 9, 38, 115
1, 217440, Note_on_c, 9, 42, 82
1, 217679, Note_on_c, 9, 38, 0
1, 217679, Note_on_c, 9, 42, 0
1, 217680, Note_on_c, 9, 42, 78
1, 217919, Note_on_c, 9, 42, 0
1, 217920, Note_on_c, 9, 42, 78
1, 217920, Note_on_c, 9, 35, 105
1, 218159, Note_on_c, 9, 42, 0
1, 218160, Note_on_c, 9, 69, 67
1, 218160, Note_on_c, 9, 42, 71
1, 218279, Note_on_c, 9, 69, 0
1, 218279, Note_on_c, 9, 42, 0
1, 218280, Note_on_c, 9, 69, 81
1, 218399, Note_on_c, 9, 35, 0
1, 218399, Note_on_c, 9, 69, 0
1, 218400, Note_on_c, 9, 38, 115
1, 218400, Note_on_c, 9, 69, 84
1, 218400, Note_on_c, 9, 42, 78
1, 218639, Note_on_c, 9, 38, 0
1, 218639, Note_on_c, 9, 69, 0
1, 218639, Note_on_c, 9, 42, 0
1, 218655, Note_on_c, 9, 73, 85
1, 218655, Note_on_c, 9, 42, 66
1, 218699, Note_on_c, 9, 73, 0
1, 218699, Note_on_c, 9, 42, 0
1, 218775, Note_on_c, 9, 73, 79
1, 218819, Note_on_c, 9, 73, 0
1, 218895, Note_on_c, 9, 73, 79
1, 218895, Note_on_c, 9, 42, 81
1, 218895, Note_on_c, 9, 35, 108
1, 219119, Note_on_c, 9, 73, 0
1, 219119, Note_on_c, 9, 42, 0
1, 219119, Note_on_c, 9, 35, 0
1, 219135, Note_on_c, 9, 42, 74
1, 219359, Note_on_c, 9, 42, 0
1, 219360, Note_on_c, 9, 38, 116
1, 219360, Note_on_c, 9, 42, 86
1, 219599, Note_on_c, 9, 38, 0
1, 219599, Note_on_c, 9, 42, 0
1, 219600, Note_on_c, 9, 42, 77
1, 219839, Note_on_c, 9, 42, 0
1, 219855, Note_on_c, 9, 42, 83
1, 219855, Note_on_c, 9, 35, 108
1, 220079, Note_on_c, 9, 42, 0
1, 220079, Note_on_c, 9, 35, 0
1, 220080, Note_on_c, 9, 42, 78
1, 220319, Note_on_c, 9, 42, 0
1, 220320, Note_on_c, 9, 38, 115
1, 220320, Note_on_c, 9, 42, 82
1, 220559, Note_on_c, 9, 38, 0
1, 220559, Note_on_c, 9, 42, 0
1, 220575, Note_on_c, 9, 42, 78
1, 220799, Note_on_c, 9, 42, 0
1, 220815, Note_on_c, 9, 42, 83
1, 220815, Note_on_c, 9, 35, 109
1, 221039, Note_on_c, 9, 42, 0
1, 221039, Note_on_c, 9, 35, 0
1, 221040, Note_on_c, 9, 42, 74
1, 221279, Note_on_c, 9, 42, 0
1, 221280, Note_on_c, 9, 38, 119
1, 221280, Note_on_c, 9, 42, 83
1, 221519, Note_on_c, 9, 38, 0
1, 221519, Note_on_c, 9, 42, 0
1, 221520, Note_on_c, 9, 42, 78
1, 221759, Note_on_c, 9, 42, 0
1, 221775, Note_on_c, 9, 42, 81
1, 221775, Note_on_c, 9, 35, 111
1, 221999, Note_on_c, 9, 42, 0
1, 221999, Note_on_c, 9, 35, 0
1, 222015, Note_on_c, 9, 38, 105
1, 222015, Note_on_c, 9, 69, 97
1, 222015, Note_on_c, 9, 42, 78
1, 222015, Note_on_c, 9, 43, 80
1, 222059, Note_on_c, 9, 38, 0
1, 222059, Note_on_c, 9, 69, 0
1, 222059, Note_on_c, 9, 42, 0
1, 222135, Note_on_c, 9, 69, 73
1, 222179, Note_on_c, 9, 69, 0
1, 222239, Note_on_c, 9, 43, 0
1, 222255, Note_on_c, 9, 38, 109
1, 222255, Note_on_c, 9, 69, 68
1, 222255, Note_on_c, 9, 42, 88
1, 222255, Note_on_c, 9, 43, 84
1, 222479, Note_on_c, 9, 38, 0
1, 222479, Note_on_c, 9, 69, 0
1, 222479, Note_on_c, 9, 42, 0
1, 222479, Note_on_c, 9, 43, 0
1, 222480, Note_on_c, 9, 38, 126
1, 222480, Note_on_c, 9, 46, 84
1, 222480, Note_on_c, 9, 43, 101
1, 222494, Note_on_c, 9, 38, 0
1, 222494, Note_on_c, 9, 46, 0
1, 222495, Note_on_c, 9, 73, 79
1, 222539, Note_on_c, 9, 73, 0
1, 222600, Note_on_c, 9, 73, 79
1, 222719, Note_on_c, 9, 43, 0
1, 222719, Note_on_c, 9, 73, 0
1, 222720, Note_on_c, 9, 73, 79
1, 222720, Note_on_c, 9, 49, 87
1, 222720, Note_on_c, 9, 44, 79
1, 222734, Note_on_c, 9, 44, 0
1, 222735, Note_on_c, 9, 35, 107
1, 222959, Note_on_c, 9, 73, 0
1, 222959, Note_on_c, 9, 49, 0
1, 222959, Note_on_c, 9, 35, 0
1, 222960, Note_on_c, 9, 42, 71
1, 223199, Note_on_c, 9, 42, 0
1, 223200, Note_on_c, 9, 38, 119
1, 223200, Note_on_c, 9, 42, 82
1, 223439, Note_on_c, 9, 38, 0
1, 223439, Note_on_c, 9, 42, 0
1, 223440, Note_on_c, 9, 42, 70
1, 223679, Note_on_c, 9, 42, 0
1, 223680, Note_on_c, 9, 42, 82
1, 223680, Note_on_c, 9, 35, 107
1, 223919, Note_on_c, 9, 42, 0
1, 223920, Note_on_c, 9, 42, 76
1, 224159, Note_on_c, 9, 35, 0
1, 224159, Note_on_c, 9, 42, 0
1, 224160, Note_on_c, 9, 38, 117
1, 224160, Note_on_c, 9, 42, 84
1, 224399, Note_on_c, 9, 38, 0
1, 224399, Note_on_c, 9, 42, 0
1, 224400, Note_on_c, 9, 42, 76
1, 224639, Note_on_c, 9, 42, 0
1, 224640, Note_on_c, 9, 42, 78
1, 224640, Note_on_c, 9, 35, 111
1, 224879, Note_on_c, 9, 42, 0
1, 224880, Note_on_c, 9, 42, 74
1, 225119, Note_on_c, 9, 35, 0
1, 225119, Note_on_c, 9, 42, 0
1, 225120, Note_on_c, 9, 38, 115
1, 225120, Note_on_c, 9, 42, 84
1, 225359, Note_on_c, 9, 38, 0
1, 225359, Note_on_c, 9, 42, 0
1, 225375, Note_on_c, 9, 42, 75
1, 225599, Note_on_c, 9, 42, 0
1, 225615, Note_on_c, 9, 42, 79
1, 225615, Note_on_c, 9, 35, 113
1, 225839, Note_on_c, 9, 42, 0
1, 225839, Note_on_c, 9, 35, 0
1, 225855, Note_on_c, 9, 69, 84
1, 225855, Note_on_c, 9, 42, 72
1, 225899, Note_on_c, 9, 69, 0
1, 225899, Note_on_c, 9, 42, 0
1, 225990, Note_on_c, 9, 69, 79
1, 226079, Note_on_c, 9, 69, 0
1, 226095, Note_on_c, 9, 38, 116
1, 226095, Note_on_c, 9, 69, 76
1, 226095, Note_on_c, 9, 42, 78
1, 226319, Note_on_c, 9, 38, 0
1, 226319, Note_on_c, 9, 69, 0
1, 226319, Note_on_c, 9, 42, 0
1, 226335, Note_on_c, 9, 42, 75
1, 226349, Note_on_c, 9, 42, 0
1, 226350, Note_on_c, 9, 73, 81
1, 226439, Note_on_c, 9, 73, 0
1, 226470, Note_on_c, 9, 73, 67
1, 226559, Note_on_c, 9, 73, 0
1, 226590, Note_on_c, 9, 73, 81
1, 226590, Note_on_c, 9, 42, 79
1, 226590, Note_on_c, 9, 35, 110
1, 226679, Note_on_c, 9, 73, 0
1, 226679, Note_on_c, 9, 42, 0
1, 226815, Note_on_c, 9, 42, 72
1, 227039, Note_on_c, 9, 35, 0
1, 227039, Note_on_c, 9, 42, 0
1, 227055, Note_on_c, 9, 38, 115
1, 227055, Note_on_c, 9, 42, 81
1, 227279, Note_on_c, 9, 38, 0
1, 227279, Note_on_c, 9, 42, 0
1, 227280, Note_on_c, 9, 42, 72
1, 227519, Note_on_c, 9, 42, 0
1, 227535, Note_on_c, 9, 42, 78
1, 227535, Note_on_c, 9, 35, 107
1, 227759, Note_on_c, 9, 42, 0
1, 227759, Note_on_c, 9, 35, 0
1, 227760, Note_on_c, 9, 42, 78
1, 227999, Note_on_c, 9, 42, 0
1, 228000, Note_on_c, 9, 38, 116
1, 228000, Note_on_c, 9, 42, 82
1, 228239, Note_on_c, 9, 38, 0
1, 228239, Note_on_c, 9, 42, 0
1, 228240, Note_on_c, 9, 42, 74
1, 228479, Note_on_c, 9, 42, 0
1, 228495, Note_on_c, 9, 42, 77
1, 228495, Note_on_c, 9, 35, 106
1, 228719, Note_on_c, 9, 42, 0
1, 228719, Note_on_c, 9, 35, 0
1, 228735, Note_on_c, 9, 42, 74
1, 228959, Note_on_c, 9, 42, 0
1, 228975, Note_on_c, 9, 38, 117
1, 228975, Note_on_c, 9, 42, 78
1, 229199, Note_on_c, 9, 38, 0
1, 229199, Note_on_c, 9, 42, 0
1, 229215, Note_on_c, 9, 42, 72
1, 229439, Note_on_c, 9, 42, 0
1, 229455, Note_on_c, 9, 42, 82
1, 229455, Note_on_c, 9, 35, 109
1, 229679, Note_on_c, 9, 42, 0
1, 229679, Note_on_c, 9, 35, 0
1, 229680, Note_on_c, 9, 38, 103
1, 229680, Note_on_c, 9, 42, 81
1, 229680, Note_on_c, 9, 43, 78
1, 229694, Note_on_c, 9, 38, 0
1, 229694, Note_on_c, 9, 42, 0
1, 229695, Note_on_c, 9, 69, 88
1, 229739, Note_on_c, 9, 69, 0
1, 229815, Note_on_c, 9, 69, 76
1, 229859, Note_on_c, 9, 69, 0
1, 229919, Note_on_c, 9, 43, 0
1, 229935, Note_on_c, 9, 38, 113
1, 229935, Note_on_c, 9, 69, 86
1, 229935, Note_on_c, 9, 42, 89
1, 229935, Note_on_c, 9, 43, 88
1, 230159, Note_on_c, 9, 38, 0
1, 230159, Note_on_c, 9, 69, 0
1, 230159, Note_on_c, 9, 42, 0
1, 230159, Note_on_c, 9, 43, 0
1, 230160, Note_on_c, 9, 46, 81
1, 230174, Note_on_c, 9, 46, 0
1, 230175, Note_on_c, 9, 38, 124
1, 230175, Note_on_c, 9, 73, 89
1, 230175, Note_on_c, 9, 43, 99
1, 230219, Note_on_c, 9, 38, 0
1, 230219, Note_on_c, 9, 73, 0
1, 230295, Note_on_c, 9, 73, 75
1, 230339, Note_on_c, 9, 73, 0
1, 230399, Note_on_c, 9, 43, 0
1, 230400, Note_on_c, 9, 73, 82
1, 230400, Note_on_c, 9, 49, 82
1, 230415, Note_on_c, 9, 35, 106
1, 230639, Note_on_c, 9, 35, 0
1, 230879, Note_on_c, 9, 73, 0
1, 230879, Note_on_c, 9, 49, 0
1, 230880, End_track
0, 0, End_of_file
