0, 0, Header, 1, 14, 480
1, 0, Start_track
1, 0, Time_signature, 4, 2, 24, 8
1, 0, Key_signature, 0, "major"
1, 0, Tempo, 500000
1, 0, Control_c, 9, 121, 0
1, 0, Program_c, 9, 48
1, 0, Control_c, 9, 7, 100
1, 0, Control_c, 9, 10, 64
1, 0, Control_c, 9, 91, 0
1, 0, Control_c, 9, 93, 0
1, 0, MIDI_port, 1
1, 19520, Note_on_c, 9, 40, 92
1, 19559, Note_on_c, 9, 40, 0
1, 19880, Note_on_c, 9, 40, 92
1, 19919, Note_on_c, 9, 40, 0
1, 23360, Note_on_c, 9, 40, 92
1, 23399, Note_on_c, 9, 40, 0
1, 23480, Note_on_c, 9, 40, 92
1, 23519, Note_on_c, 9, 40, 0
1, 23600, Note_on_c, 9, 40, 92
1, 23639, Note_on_c, 9, 40, 0
1, 24320, Note_on_c, 9, 40, 92
1, 24359, Note_on_c, 9, 40, 0
1, 24560, Note_on_c, 9, 40, 92
1, 24599, Note_on_c, 9, 40, 0
1, 24800, Note_on_c, 9, 40, 92
1, 24839, Note_on_c, 9, 40, 0
1, 25520, Note_on_c, 9, 40, 92
1, 25559, Note_on_c, 9, 40, 0
1, 26480, Note_on_c, 9, 40, 92
1, 26519, Note_on_c, 9, 40, 0
1, 27440, Note_on_c, 9, 40, 92
1, 27479, Note_on_c, 9, 40, 0
1, 28400, Note_on_c, 9, 40, 92
1, 28439, Note_on_c, 9, 40, 0
1, 29360, Note_on_c, 9, 40, 92
1, 29399, Note_on_c, 9, 40, 0
1, 30320, Note_on_c, 9, 40, 92
1, 30359, Note_on_c, 9, 40, 0
1, 31280, Note_on_c, 9, 40, 92
1, 31319, Note_on_c, 9, 40, 0
1, 32000, Note_on_c, 9, 40, 92
1, 32039, Note_on_c, 9, 40, 0
1, 32240, Note_on_c, 9, 40, 92
1, 32279, Note_on_c, 9, 40, 0
1, 32480, Note_on_c, 9, 40, 92
1, 32519, Note_on_c, 9, 40, 0
1, 33200, Note_on_c, 9, 40, 92
1, 33239, Note_on_c, 9, 40, 0
1, 34160, Note_on_c, 9, 40, 92
1, 34199, Note_on_c, 9, 40, 0
1, 35120, Note_on_c, 9, 40, 92
1, 35159, Note_on_c, 9, 40, 0
1, 36080, Note_on_c, 9, 40, 92
1, 36119, Note_on_c, 9, 40, 0
1, 37040, Note_on_c, 9, 40, 92
1, 37079, Note_on_c, 9, 40, 0
1, 38000, Note_on_c, 9, 40, 92
1, 38039, Note_on_c, 9, 40, 0
1, 38960, Note_on_c, 9, 40, 92
1, 38999, Note_on_c, 9, 40, 0
1, 39920, Note_on_c, 9, 40, 92
1, 39959, Note_on_c, 9, 40, 0
1, 40880, Note_on_c, 9, 40, 92
1, 40919, Note_on_c, 9, 40, 0
1, 41840, Note_on_c, 9, 40, 92
1, 41879, Note_on_c, 9, 40, 0
1, 42800, Note_on_c, 9, 40, 92
1, 42839, Note_on_c, 9, 40, 0
1, 43760, Note_on_c, 9, 40, 92
1, 43799, Note_on_c, 9, 40, 0
1, 44720, Note_on_c, 9, 40, 92
1, 44759, Note_on_c, 9, 40, 0
1, 45680, Note_on_c, 9, 40, 92
1, 45719, Note_on_c, 9, 40, 0
1, 46640, Note_on_c, 9, 40, 92
1, 46679, Note_on_c, 9, 40, 0
1, 47360, Note_on_c, 9, 40, 92
1, 47399, Note_on_c, 9, 40, 0
1, 47600, Note_on_c, 9, 40, 92
1, 47639, Note_on_c, 9, 40, 0
1, 47840, Note_on_c, 9, 40, 92
1, 47879, Note_on_c, 9, 40, 0
1, 48560, Note_on_c, 9, 40, 92
1, 48599, Note_on_c, 9, 40, 0
1, 49520, Note_on_c, 9, 40, 92
1, 49559, Note_on_c, 9, 40, 0
1, 50480, Note_on_c, 9, 40, 92
1, 50519, Note_on_c, 9, 40, 0
1, 51440, Note_on_c, 9, 40, 92
1, 51479, Note_on_c, 9, 40, 0
1, 52400, Note_on_c, 9, 40, 92
1, 52439, Note_on_c, 9, 40, 0
1, 53360, Note_on_c, 9, 40, 92
1, 53399, Note_on_c, 9, 40, 0
1, 54320, Note_on_c, 9, 40, 92
1, 54359, Note_on_c, 9, 40, 0
1, 55280, Note_on_c, 9, 40, 92
1, 55319, Note_on_c, 9, 40, 0
1, 56240, Note_on_c, 9, 40, 92
1, 56279, Note_on_c, 9, 40, 0
1, 57200, Note_on_c, 9, 40, 92
1, 57239, Note_on_c, 9, 40, 0
1, 58160, Note_on_c, 9, 40, 92
1, 58199, Note_on_c, 9, 40, 0
1, 59120, Note_on_c, 9, 40, 92
1, 59159, Note_on_c, 9, 40, 0
1, 60080, Note_on_c, 9, 40, 92
1, 60119, Note_on_c, 9, 40, 0
1, 61040, Note_on_c, 9, 40, 92
1, 61079, Note_on_c, 9, 40, 0
1, 62000, Note_on_c, 9, 40, 92
1, 62039, Note_on_c, 9, 40, 0
1, 62720, Note_on_c, 9, 40, 92
1, 62759, Note_on_c, 9, 40, 0
1, 63200, Note_on_c, 9, 40, 92
1, 63239, Note_on_c, 9, 40, 0
1, 63440, Note_on_c, 9, 40, 92
1, 63479, Note_on_c, 9, 40, 0
1, 63920, Note_on_c, 9, 40, 92
1, 63959, Note_on_c, 9, 40, 0
1, 65840, Note_on_c, 9, 40, 92
1, 65879, Note_on_c, 9, 40, 0
1, 66800, Note_on_c, 9, 40, 92
1, 66839, Note_on_c, 9, 40, 0
1, 67760, Note_on_c, 9, 40, 92
1, 67799, Note_on_c, 9, 40, 0
1, 68720, Note_on_c, 9, 40, 92
1, 68759, Note_on_c, 9, 40, 0
1, 69680, Note_on_c, 9, 40, 92
1, 69719, Note_on_c, 9, 40, 0
1, 70640, Note_on_c, 9, 40, 92
1, 70679, Note_on_c, 9, 40, 0
1, 71600, Note_on_c, 9, 40, 92
1, 71639, Note_on_c, 9, 40, 0
1, 72560, Note_on_c, 9, 40, 92
1, 72599, Note_on_c, 9, 40, 0
1, 73520, Note_on_c, 9, 40, 92
1, 73559, Note_on_c, 9, 40, 0
1, 74480, Note_on_c, 9, 40, 92
1, 74519, Note_on_c, 9, 40, 0
1, 75440, Note_on_c, 9, 40, 92
1, 75479, Note_on_c, 9, 40, 0
1, 76400, Note_on_c, 9, 40, 92
1, 76439, Note_on_c, 9, 40, 0
1, 77360, Note_on_c, 9, 40, 92
1, 77399, Note_on_c, 9, 40, 0
1, 78320, Note_on_c, 9, 40, 92
1, 78359, Note_on_c, 9, 40, 0
1, 79280, Note_on_c, 9, 40, 92
1, 79319, Note_on_c, 9, 40, 0
1, 80240, Note_on_c, 9, 40, 92
1, 80279, Note_on_c, 9, 40, 0
1, 81200, Note_on_c, 9, 40, 92
1, 81239, Note_on_c, 9, 40, 0
1, 82160, Note_on_c, 9, 40, 92
1, 82199, Note_on_c, 9, 40, 0
1, 83120, Note_on_c, 9, 40, 92
1, 83159, Note_on_c, 9, 40, 0
1, 84080, Note_on_c, 9, 40, 92
1, 84119, Note_on_c, 9, 40, 0
1, 85040, Note_on_c, 9, 40, 92
1, 85079, Note_on_c, 9, 40, 0
1, 86000, Note_on_c, 9, 40, 92
1, 86039, Note_on_c, 9, 40, 0
1, 86960, Note_on_c, 9, 40, 92
1, 86999, Note_on_c, 9, 40, 0
1, 87920, Note_on_c, 9, 40, 92
1, 87959, Note_on_c, 9, 40, 0
1, 88880, Note_on_c, 9, 40, 92
1, 88919, Note_on_c, 9, 40, 0
1, 89840, Note_on_c, 9, 40, 92
1, 89879, Note_on_c, 9, 40, 0
1, 90800, Note_on_c, 9, 40, 92
1, 90839, Note_on_c, 9, 40, 0
1, 91520, Note_on_c, 9, 40, 92
1, 91559, Note_on_c, 9, 40, 0
1, 91760, Note_on_c, 9, 40, 92
1, 91799, Note_on_c, 9, 40, 0
1, 92000, Note_on_c, 9, 40, 92
1, 92039, Note_on_c, 9, 40, 0
1, 92720, Note_on_c, 9, 40, 92
1, 92759, Note_on_c, 9, 40, 0
1, 93680, Note_on_c, 9, 40, 92
1, 93719, Note_on_c, 9, 40, 0
1, 94640, Note_on_c, 9, 40, 92
1, 94679, Note_on_c, 9, 40, 0
1, 95600, Note_on_c, 9, 40, 92
1, 95639, Note_on_c, 9, 40, 0
1, 96560, Note_on_c, 9, 40, 92
1, 96599, Note_on_c, 9, 40, 0
1, 97520, Note_on_c, 9, 40, 92
1, 97559, Note_on_c, 9, 40, 0
1, 98240, Note_on_c, 9, 40, 92
1, 98279, Note_on_c, 9, 40, 0
1, 98360, Note_on_c, 9, 40, 92
1, 98399, Note_on_c, 9, 40, 0
1, 98480, Note_on_c, 9, 40, 92
1, 98519, Note_on_c, 9, 40, 0
1, 99200, Note_on_c, 9, 40, 92
1, 99239, Note_on_c, 9, 40, 0
1, 99440, Note_on_c, 9, 40, 92
1, 99479, Note_on_c, 9, 40, 0
1, 99680, Note_on_c, 9, 40, 92
1, 99719, Note_on_c, 9, 40, 0
1, 100400, Note_on_c, 9, 40, 92
1, 100439, Note_on_c, 9, 40, 0
1, 101360, Note_on_c, 9, 40, 92
1, 101399, Note_on_c, 9, 40, 0
1, 102320, Note_on_c, 9, 40, 92
1, 102359, Note_on_c, 9, 40, 0
1, 103280, Note_on_c, 9, 40, 92
1, 103319, Note_on_c, 9, 40, 0
1, 104240, Note_on_c, 9, 40, 92
1, 104279, Note_on_c, 9, 40, 0
1, 105200, Note_on_c, 9, 40, 92
1, 105239, Note_on_c, 9, 40, 0
1, 106160, Note_on_c, 9, 40, 92
1, 106199, Note_on_c, 9, 40, 0
1, 107120, Note_on_c, 9, 40, 92
1, 107159, Note_on_c, 9, 40, 0
1, 108080, Note_on_c, 9, 40, 92
1, 108119, Note_on_c, 9, 40, 0
1, 109040, Note_on_c, 9, 40, 92
1, 109079, Note_on_c, 9, 40, 0
1, 110000, Note_on_c, 9, 40, 92
1, 110039, Note_on_c, 9, 40, 0
1, 110960, Note_on_c, 9, 40, 92
1, 110999, Note_on_c, 9, 40, 0
1, 111920, Note_on_c, 9, 40, 92
1, 111959, Note_on_c, 9, 40, 0
1, 112880, Note_on_c, 9, 40, 92
1, 112919, Note_on_c, 9, 40, 0
1, 113840, Note_on_c, 9, 40, 92
1, 113879, Note_on_c, 9, 40, 0
1, 114560, Note_on_c, 9, 40, 92
1, 114599, Note_on_c, 9, 40, 0
1, 114800, Note_on_c, 9, 40, 92
1, 114839, Note_on_c, 9, 40, 0
1, 115040, Note_on_c, 9, 40, 92
1, 115079, Note_on_c, 9, 40, 0
1, 115760, Note_on_c, 9, 40, 92
1, 115799, Note_on_c, 9, 40, 0
1, 116720, Note_on_c, 9, 40, 92
1, 116759, Note_on_c, 9, 40, 0
1, 117680, Note_on_c, 9, 40, 92
1, 117719, Note_on_c, 9, 40, 0
1, 118640, Note_on_c, 9, 40, 92
1, 118679, Note_on_c, 9, 40, 0
1, 119600, Note_on_c, 9, 40, 92
1, 119639, Note_on_c, 9, 40, 0
1, 120560, Note_on_c, 9, 40, 92
1, 120599, Note_on_c, 9, 40, 0
1, 121520, Note_on_c, 9, 40, 92
1, 121559, Note_on_c, 9, 40, 0
1, 122480, Note_on_c, 9, 40, 92
1, 122519, Note_on_c, 9, 40, 0
1, 123440, Note_on_c, 9, 40, 92
1, 123479, Note_on_c, 9, 40, 0
1, 124400, Note_on_c, 9, 40, 92
1, 124439, Note_on_c, 9, 40, 0
1, 125360, Note_on_c, 9, 40, 92
1, 125399, Note_on_c, 9, 40, 0
1, 126320, Note_on_c, 9, 40, 92
1, 126359, Note_on_c, 9, 40, 0
1, 127280, Note_on_c, 9, 40, 92
1, 127319, Note_on_c, 9, 40, 0
1, 128240, Note_on_c, 9, 40, 92
1, 128279, Note_on_c, 9, 40, 0
1, 129200, Note_on_c, 9, 40, 92
1, 129239, Note_on_c, 9, 40, 0
1, 129920, Note_on_c, 9, 40, 92
1, 129959, Note_on_c, 9, 40, 0
1, 130400, Note_on_c, 9, 40, 92
1, 130439, Note_on_c, 9, 40, 0
1, 130640, Note_on_c, 9, 40, 92
1, 130679, Note_on_c, 9, 40, 0
1, 131120, Note_on_c, 9, 40, 92
1, 131159, Note_on_c, 9, 40, 0
1, 133040, Note_on_c, 9, 40, 92
1, 133079, Note_on_c, 9, 40, 0
1, 134000, Note_on_c, 9, 40, 92
1, 134039, Note_on_c, 9, 40, 0
1, 134960, Note_on_c, 9, 40, 92
1, 134999, Note_on_c, 9, 40, 0
1, 135920, Note_on_c, 9, 40, 92
1, 135959, Note_on_c, 9, 40, 0
1, 136880, Note_on_c, 9, 40, 92
1, 136919, Note_on_c, 9, 40, 0
1, 137840, Note_on_c, 9, 40, 92
1, 137879, Note_on_c, 9, 40, 0
1, 138800, Note_on_c, 9, 40, 92
1, 138839, Note_on_c, 9, 40, 0
1, 139760, Note_on_c, 9, 40, 92
1, 139799, Note_on_c, 9, 40, 0
1, 140720, Note_on_c, 9, 40, 92
1, 140759, Note_on_c, 9, 40, 0
1, 141680, Note_on_c, 9, 40, 92
1, 141719, Note_on_c, 9, 40, 0
1, 142640, Note_on_c, 9, 40, 92
1, 142679, Note_on_c, 9, 40, 0
1, 143600, Note_on_c, 9, 40, 92
1, 143639, Note_on_c, 9, 40, 0
1, 144560, Note_on_c, 9, 40, 92
1, 144599, Note_on_c, 9, 40, 0
1, 145520, Note_on_c, 9, 40, 92
1, 145559, Note_on_c, 9, 40, 0
1, 146480, Note_on_c, 9, 40, 92
1, 146519, Note_on_c, 9, 40, 0
1, 147440, Note_on_c, 9, 40, 92
1, 147479, Note_on_c, 9, 40, 0
1, 148400, Note_on_c, 9, 40, 92
1, 148439, Note_on_c, 9, 40, 0
1, 149360, Note_on_c, 9, 40, 92
1, 149399, Note_on_c, 9, 40, 0
1, 150320, Note_on_c, 9, 40, 92
1, 150359, Note_on_c, 9, 40, 0
1, 151280, Note_on_c, 9, 40, 92
1, 151319, Note_on_c, 9, 40, 0
1, 152240, Note_on_c, 9, 40, 92
1, 152279, Note_on_c, 9, 40, 0
1, 153200, Note_on_c, 9, 40, 92
1, 153239, Note_on_c, 9, 40, 0
1, 154160, Note_on_c, 9, 40, 92
1, 154199, Note_on_c, 9, 40, 0
1, 155120, Note_on_c, 9, 40, 92
1, 155159, Note_on_c, 9, 40, 0
1, 156080, Note_on_c, 9, 40, 92
1, 156119, Note_on_c, 9, 40, 0
1, 157040, Note_on_c, 9, 40, 92
1, 157079, Note_on_c, 9, 40, 0
1, 158000, Note_on_c, 9, 40, 92
1, 158039, Note_on_c, 9, 40, 0
1, 158960, Note_on_c, 9, 40, 92
1, 158999, Note_on_c, 9, 40, 0
1, 175280, Note_on_c, 9, 40, 92
1, 175319, Note_on_c, 9, 40, 0
1, 176240, Note_on_c, 9, 40, 92
1, 176279, Note_on_c, 9, 40, 0
1, 177200, Note_on_c, 9, 40, 92
1, 177239, Note_on_c, 9, 40, 0
1, 178160, Note_on_c, 9, 40, 92
1, 178199, Note_on_c, 9, 40, 0
1, 179120, Note_on_c, 9, 40, 92
1, 179159, Note_on_c, 9, 40, 0
1, 180080, Note_on_c, 9, 40, 92
1, 180119, Note_on_c, 9, 40, 0
1, 181040, Note_on_c, 9, 40, 92
1, 181079, Note_on_c, 9, 40, 0
1, 182000, Note_on_c, 9, 40, 92
1, 182039, Note_on_c, 9, 40, 0
1, 182240, Note_on_c, 9, 40, 92
1, 182279, Note_on_c, 9, 40, 0
1, 182360, Note_on_c, 9, 40, 92
1, 182399, Note_on_c, 9, 40, 0
1, 182960, Note_on_c, 9, 40, 92
1, 182999, Note_on_c, 9, 40, 0
1, 183920, Note_on_c, 9, 40, 92
1, 183959, Note_on_c, 9, 40, 0
1, 184880, Note_on_c, 9, 40, 92
1, 184919, Note_on_c, 9, 40, 0
1, 185840, Note_on_c, 9, 40, 92
1, 185879, Note_on_c, 9, 40, 0
1, 186800, Note_on_c, 9, 40, 92
1, 186839, Note_on_c, 9, 40, 0
1, 187760, Note_on_c, 9, 40, 92
1, 187799, Note_on_c, 9, 40, 0
1, 188480, Note_on_c, 9, 40, 92
1, 188519, Note_on_c, 9, 40, 0
1, 188600, Note_on_c, 9, 40, 92
1, 188639, Note_on_c, 9, 40, 0
1, 188720, Note_on_c, 9, 40, 92
1, 188759, Note_on_c, 9, 40, 0
1, 189440, Note_on_c, 9, 40, 92
1, 189479, Note_on_c, 9, 40, 0
1, 189680, Note_on_c, 9, 40, 92
1, 189719, Note_on_c, 9, 40, 0
1, 189920, Note_on_c, 9, 40, 92
1, 189959, Note_on_c, 9, 40, 0
1, 190640, Note_on_c, 9, 40, 92
1, 190679, Note_on_c, 9, 40, 0
1, 191600, Note_on_c, 9, 40, 92
1, 191639, Note_on_c, 9, 40, 0
1, 192560, Note_on_c, 9, 40, 92
1, 192599, Note_on_c, 9, 40, 0
1, 193520, Note_on_c, 9, 40, 92
1, 193559, Note_on_c, 9, 40, 0
1, 194480, Note_on_c, 9, 40, 92
1, 194519, Note_on_c, 9, 40, 0
1, 195440, Note_on_c, 9, 40, 92
1, 195479, Note_on_c, 9, 40, 0
1, 196400, Note_on_c, 9, 40, 92
1, 196439, Note_on_c, 9, 40, 0
1, 197360, Note_on_c, 9, 40, 92
1, 197399, Note_on_c, 9, 40, 0
1, 198320, Note_on_c, 9, 40, 92
1, 198359, Note_on_c, 9, 40, 0
1, 199280, Note_on_c, 9, 40, 92
1, 199319, Note_on_c, 9, 40, 0
1, 200240, Note_on_c, 9, 40, 92
1, 200279, Note_on_c, 9, 40, 0
1, 201200, Note_on_c, 9, 40, 92
1, 201239, Note_on_c, 9, 40, 0
1, 202160, Note_on_c, 9, 40, 92
1, 202199, Note_on_c, 9, 40, 0
1, 203120, Note_on_c, 9, 40, 92
1, 203159, Note_on_c, 9, 40, 0
1, 204080, Note_on_c, 9, 40, 92
1, 204119, Note_on_c, 9, 40, 0
1, 204800, Note_on_c, 9, 40, 92
1, 204839, Note_on_c, 9, 40, 0
1, 205280, Note_on_c, 9, 40, 92
1, 205319, Note_on_c, 9, 40, 0
1, 205520, Note_on_c, 9, 40, 92
1, 205559, Note_on_c, 9, 40, 0
1, 206000, Note_on_c, 9, 40, 92
1, 206039, Note_on_c, 9, 40, 0
1, 209360, Note_on_c, 9, 40, 92
1, 209399, Note_on_c, 9, 40, 0
1, 209840, Note_on_c, 9, 40, 92
1, 209879, Note_on_c, 9, 40, 0
1, 211760, Note_on_c, 9, 40, 92
1, 211799, Note_on_c, 9, 40, 0
1, 212720, Note_on_c, 9, 40, 92
1, 212759, Note_on_c, 9, 40, 0
1, 213680, Note_on_c, 9, 40, 92
1, 213719, Note_on_c, 9, 40, 0
1, 214640, Note_on_c, 9, 40, 92
1, 214679, Note_on_c, 9, 40, 0
1, 215600, Note_on_c, 9, 40, 92
1, 215639, Note_on_c, 9, 40, 0
1, 216560, Note_on_c, 9, 40, 92
1, 216599, Note_on_c, 9, 40, 0
1, 217520, Note_on_c, 9, 40, 92
1, 217559, Note_on_c, 9, 40, 0
1, 218480, Note_on_c, 9, 40, 92
1, 218519, Note_on_c, 9, 40, 0
1, 219440, Note_on_c, 9, 40, 92
1, 219479, Note_on_c, 9, 40, 0
1, 220400, Note_on_c, 9, 40, 92
1, 220439, Note_on_c, 9, 40, 0
1, 221360, Note_on_c, 9, 40, 92
1, 221399, Note_on_c, 9, 40, 0
1, 222320, Note_on_c, 9, 40, 92
1, 222359, Note_on_c, 9, 40, 0
1, 223280, Note_on_c, 9, 40, 92
1, 223319, Note_on_c, 9, 40, 0
1, 224240, Note_on_c, 9, 40, 92
1, 224279, Note_on_c, 9, 40, 0
1, 225200, Note_on_c, 9, 40, 92
1, 225239, Note_on_c, 9, 40, 0
1, 226160, Note_on_c, 9, 40, 92
1, 226199, Note_on_c, 9, 40, 0
1, 227120, Note_on_c, 9, 40, 92
1, 227159, Note_on_c, 9, 40, 0
1, 228080, Note_on_c, 9, 40, 92
1, 228119, Note_on_c, 9, 40, 0
1, 229040, Note_on_c, 9, 40, 92
1, 229079, Note_on_c, 9, 40, 0
1, 230000, Note_on_c, 9, 40, 92
1, 230039, Note_on_c, 9, 40, 0
1, 230960, Note_on_c, 9, 40, 92
1, 230999, Note_on_c, 9, 40, 0
1, 231920, Note_on_c, 9, 40, 92
1, 231959, Note_on_c, 9, 40, 0
1, 232880, Note_on_c, 9, 40, 92
1, 232919, Note_on_c, 9, 40, 0
1, 233840, Note_on_c, 9, 40, 92
1, 233879, Note_on_c, 9, 40, 0
1, 234800, Note_on_c, 9, 40, 92
1, 234839, Note_on_c, 9, 40, 0
1, 235760, Note_on_c, 9, 40, 92
1, 235799, Note_on_c, 9, 40, 0
1, 236720, Note_on_c, 9, 40, 92
1, 236759, Note_on_c, 9, 40, 0
1, 237440, Note_on_c, 9, 40, 92
1, 237479, Note_on_c, 9, 40, 0
1, 237680, Note_on_c, 9, 40, 92
1, 237719, Note_on_c, 9, 40, 0
1, 238640, Note_on_c, 9, 40, 92
1, 238679, Note_on_c, 9, 40, 0
1, 239600, Note_on_c, 9, 40, 92
1, 239639, Note_on_c, 9, 40, 0
1, 240560, Note_on_c, 9, 40, 92
1, 240599, Note_on_c, 9, 40, 0
1, 241280, Note_on_c, 9, 40, 92
1, 241319, Note_on_c, 9, 40, 0
1, 241520, Note_on_c, 9, 40, 92
1, 241559, Note_on_c, 9, 40, 0
1, 242480, Note_on_c, 9, 40, 92
1, 242519, Note_on_c, 9, 40, 0
1, 243440, Note_on_c, 9, 40, 92
1, 243479, Note_on_c, 9, 40, 0
1, 243920, Note_on_c, 9, 40, 92
1, 243959, Note_on_c, 9, 40, 0
1, 244400, Note_on_c, 9, 40, 92
1, 244439, Note_on_c, 9, 40, 0
1, 245240, Note_on_c, 9, 40, 92
1, 245279, Note_on_c, 9, 40, 0
1, 245360, Note_on_c, 9, 40, 92
1, 245399, Note_on_c, 9, 40, 0
1, 245600, Note_on_c, 9, 40, 92
1, 245639, Note_on_c, 9, 40, 0
1, 246320, Note_on_c, 9, 40, 92
1, 246359, Note_on_c, 9, 40, 0
1, 247280, Note_on_c, 9, 40, 92
1, 247319, Note_on_c, 9, 40, 0
1, 248240, Note_on_c, 9, 40, 92
1, 248279, Note_on_c, 9, 40, 0
1, 249200, Note_on_c, 9, 40, 92
1, 249239, Note_on_c, 9, 40, 0
1, 250160, Note_on_c, 9, 40, 92
1, 250199, Note_on_c, 9, 40, 0
1, 251120, Note_on_c, 9, 40, 92
1, 251159, Note_on_c, 9, 40, 0
1, 252080, Note_on_c, 9, 40, 92
1, 252119, Note_on_c, 9, 40, 0
1, 253040, Note_on_c, 9, 40, 92
1, 253079, Note_on_c, 9, 40, 0
1, 254000, Note_on_c, 9, 40, 92
1, 254039, Note_on_c, 9, 40, 0
1, 254960, Note_on_c, 9, 40, 92
1, 254999, Note_on_c, 9, 40, 0
1, 255920, Note_on_c, 9, 40, 92
1, 255959, Note_on_c, 9, 40, 0
1, 256880, Note_on_c, 9, 40, 92
1, 256919, Note_on_c, 9, 40, 0
1, 257840, Note_on_c, 9, 40, 92
1, 257879, Note_on_c, 9, 40, 0
1, 258800, Note_on_c, 9, 40, 92
1, 258839, Note_on_c, 9, 40, 0
1, 259760, Note_on_c, 9, 40, 92
1, 259799, Note_on_c, 9, 40, 0
1, 260720, Note_on_c, 9, 40, 92
1, 260759, Note_on_c, 9, 40, 0
1, 261680, Note_on_c, 9, 40, 92
1, 261719, Note_on_c, 9, 40, 0
1, 262640, Note_on_c, 9, 40, 92
1, 262679, Note_on_c, 9, 40, 0
1, 263600, Note_on_c, 9, 40, 92
1, 263639, Note_on_c, 9, 40, 0
1, 264560, Note_on_c, 9, 40, 92
1, 264599, Note_on_c, 9, 40, 0
1, 265520, Note_on_c, 9, 40, 92
1, 265559, Note_on_c, 9, 40, 0
1, 266480, Note_on_c, 9, 40, 92
1, 266519, Note_on_c, 9, 40, 0
1, 267440, Note_on_c, 9, 40, 92
1, 267479, Note_on_c, 9, 40, 0
1, 268400, Note_on_c, 9, 40, 92
1, 268439, Note_on_c, 9, 40, 0
1, 269360, Note_on_c, 9, 40, 92
1, 269399, Note_on_c, 9, 40, 0
1, 270320, Note_on_c, 9, 40, 92
1, 270359, Note_on_c, 9, 40, 0
1, 271280, Note_on_c, 9, 40, 92
1, 271319, Note_on_c, 9, 40, 0
1, 272240, Note_on_c, 9, 40, 92
1, 272279, Note_on_c, 9, 40, 0
1, 273200, Note_on_c, 9, 40, 92
1, 273239, Note_on_c, 9, 40, 0
1, 274160, Note_on_c, 9, 40, 92
1, 274199, Note_on_c, 9, 40, 0
1, 275120, Note_on_c, 9, 40, 92
1, 275159, Note_on_c, 9, 40, 0
1, 276080, Note_on_c, 9, 40, 92
1, 276119, Note_on_c, 9, 40, 0
1, 277040, Note_on_c, 9, 40, 92
1, 277079, Note_on_c, 9, 40, 0
1, 278000, Note_on_c, 9, 40, 92
1, 278039, Note_on_c, 9, 40, 0
1, 278480, Note_on_c, 9, 40, 92
1, 278519, Note_on_c, 9, 40, 0
1, 278960, Note_on_c, 9, 40, 92
1, 278999, Note_on_c, 9, 40, 0
1, 279800, Note_on_c, 9, 40, 92
1, 279839, Note_on_c, 9, 40, 0
1, 279920, Note_on_c, 9, 40, 92
1, 279959, Note_on_c, 9, 40, 0
1, 280160, Note_on_c, 9, 40, 92
1, 280199, Note_on_c, 9, 40, 0
1, 280400, Note_on_c, 9, 40, 85
1, 280439, Note_on_c, 9, 40, 0
1, 280640, Note_on_c, 9, 40, 103
1, 280679, Note_on_c, 9, 40, 0
1, 280680, End_track
2, 0, Start_track
2, 0, Key_signature, 0, "major"
2, 0, Control_c, 9, 121, 0
2, 0, Program_c, 9, 48
2, 0, Control_c, 9, 7, 100
2, 0, Control_c, 9, 10, 64
2, 0, Control_c, 9, 91, 0
2, 0, Control_c, 9, 93, 0
2, 0, MIDI_port, 1
2, 160080, Note_on_c, 9, 40, 106
2, 160319, Note_on_c, 9, 40, 0
2, 160560, Note_on_c, 9, 40, 106
2, 160799, Note_on_c, 9, 40, 0
2, 162000, Note_on_c, 9, 40, 106
2, 162239, Note_on_c, 9, 40, 0
2, 162480, Note_on_c, 9, 40, 106
2, 162719, Note_on_c, 9, 40, 0
2, 163920, Note_on_c, 9, 40, 106
2, 164159, Note_on_c, 9, 40, 0
2, 164400, Note_on_c, 9, 40, 106
2, 164639, Note_on_c, 9, 40, 0
2, 165840, Note_on_c, 9, 40, 106
2, 166079, Note_on_c, 9, 40, 0
2, 166320, Note_on_c, 9, 40, 106
2, 166559, Note_on_c, 9, 40, 0
2, 167760, Note_on_c, 9, 40, 106
2, 167999, Note_on_c, 9, 40, 0
2, 168240, Note_on_c, 9, 40, 106
2, 168479, Note_on_c, 9, 40, 0
2, 168600, Note_on_c, 9, 40, 106
2, 168719, Note_on_c, 9, 40, 0
2, 168720, Note_on_c, 9, 40, 106
2, 168959, Note_on_c, 9, 40, 0
2, 169680, Note_on_c, 9, 40, 106
2, 169919, Note_on_c, 9, 40, 0
2, 170160, Note_on_c, 9, 40, 106
2, 170399, Note_on_c, 9, 40, 0
2, 170640, Note_on_c, 9, 40, 106
2, 170879, Note_on_c, 9, 40, 0
2, 171600, Note_on_c, 9, 40, 106
2, 171839, Note_on_c, 9, 40, 0
2, 172080, Note_on_c, 9, 40, 106
2, 172319, Note_on_c, 9, 40, 0
2, 172440, Note_on_c, 9, 40, 106
2, 172559, Note_on_c, 9, 40, 0
2, 172560, Note_on_c, 9, 40, 106
2, 172799, Note_on_c, 9, 40, 0
2, 173520, Note_on_c, 9, 40, 106
2, 173759, Note_on_c, 9, 40, 0
2, 174000, Note_on_c, 9, 40, 106
2, 174239, Note_on_c, 9, 40, 0
2, 174480, Note_on_c, 9, 40, 106
2, 174719, Note_on_c, 9, 40, 0
2, 174720, End_track
3, 0, Start_track
3, 0, Key_signature, 0, "major"
3, 0, Control_c, 9, 121, 0
3, 0, Program_c, 9, 48
3, 0, Control_c, 9, 7, 100
3, 0, Control_c, 9, 10, 64
3, 0, Control_c, 9, 91, 0
3, 0, Control_c, 9, 93, 0
3, 0, MIDI_port, 1
3, 4080, Note_on_c, 9, 45, 106
3, 4319, Note_on_c, 9, 45, 0
3, 7920, Note_on_c, 9, 45, 106
3, 8159, Note_on_c, 9, 45, 0
3, 11760, Note_on_c, 9, 45, 106
3, 11999, Note_on_c, 9, 45, 0
3, 15600, Note_on_c, 9, 45, 106
3, 15839, Note_on_c, 9, 45, 0
3, 22080, Note_on_c, 9, 45, 106
3, 22559, Note_on_c, 9, 45, 0
3, 22560, Note_on_c, 9, 45, 106
3, 23039, Note_on_c, 9, 45, 0
3, 23040, Note_on_c, 9, 45, 106
3, 23519, Note_on_c, 9, 45, 0
3, 161760, Note_on_c, 9, 45, 106
3, 162239, Note_on_c, 9, 45, 0
3, 165600, Note_on_c, 9, 45, 106
3, 166079, Note_on_c, 9, 45, 0
3, 167040, Note_on_c, 9, 45, 106
3, 167279, Note_on_c, 9, 45, 0
3, 167280, Note_on_c, 9, 45, 106
3, 167369, Note_on_c, 9, 45, 0
3, 167385, Note_on_c, 9, 45, 106
3, 167399, Note_on_c, 9, 45, 0
3, 168000, Note_on_c, 9, 45, 106
3, 168239, Note_on_c, 9, 45, 0
3, 168240, Note_on_c, 9, 45, 106
3, 168359, Note_on_c, 9, 45, 0
3, 168360, Note_on_c, 9, 45, 106
3, 168479, Note_on_c, 9, 45, 0
3, 168960, Note_on_c, 9, 45, 106
3, 169199, Note_on_c, 9, 45, 0
3, 169200, Note_on_c, 9, 45, 106
3, 169319, Note_on_c, 9, 45, 0
3, 169320, Note_on_c, 9, 45, 106
3, 169439, Note_on_c, 9, 45, 0
3, 169920, Note_on_c, 9, 45, 106
3, 170159, Note_on_c, 9, 45, 0
3, 170160, Note_on_c, 9, 45, 106
3, 170279, Note_on_c, 9, 45, 0
3, 170280, Note_on_c, 9, 45, 106
3, 170399, Note_on_c, 9, 45, 0
3, 170880, Note_on_c, 9, 45, 106
3, 171119, Note_on_c, 9, 45, 0
3, 171120, Note_on_c, 9, 45, 106
3, 171239, Note_on_c, 9, 45, 0
3, 171240, Note_on_c, 9, 45, 106
3, 171359, Note_on_c, 9, 45, 0
3, 171840, Note_on_c, 9, 45, 106
3, 172079, Note_on_c, 9, 45, 0
3, 172080, Note_on_c, 9, 45, 106
3, 172199, Note_on_c, 9, 45, 0
3, 172200, Note_on_c, 9, 45, 106
3, 172319, Note_on_c, 9, 45, 0
3, 172800, Note_on_c, 9, 45, 106
3, 173039, Note_on_c, 9, 45, 0
3, 173040, Note_on_c, 9, 45, 106
3, 173159, Note_on_c, 9, 45, 0
3, 173160, Note_on_c, 9, 45, 106
3, 173279, Note_on_c, 9, 45, 0
3, 173760, Note_on_c, 9, 45, 106
3, 173999, Note_on_c, 9, 45, 0
3, 174000, Note_on_c, 9, 45, 106
3, 174119, Note_on_c, 9, 45, 0
3, 174120, Note_on_c, 9, 45, 106
3, 174239, Note_on_c, 9, 45, 0
3, 174240, End_track
4, 0, Start_track
4, 0, Key_signature, 0, "major"
4, 0, Control_c, 9, 121, 0
4, 0, Program_c, 9, 48
4, 0, Control_c, 9, 7, 100
4, 0, Control_c, 9, 10, 64
4, 0, Control_c, 9, 91, 0
4, 0, Control_c, 9, 93, 0
4, 0, MIDI_port, 1
4, 22200, Note_on_c, 9, 50, 106
4, 22439, Note_on_c, 9, 50, 0
4, 22440, Note_on_c, 9, 50, 106
4, 22559, Note_on_c, 9, 50, 0
4, 22800, Note_on_c, 9, 50, 106
4, 22919, Note_on_c, 9, 50, 0
4, 22920, Note_on_c, 9, 50, 106
4, 23039, Note_on_c, 9, 50, 0
4, 161520, Note_on_c, 9, 50, 106
4, 161639, Note_on_c, 9, 50, 0
4, 161640, Note_on_c, 9, 50, 106
4, 161759, Note_on_c, 9, 50, 0
4, 161880, Note_on_c, 9, 50, 106
4, 162239, Note_on_c, 9, 50, 0
4, 165360, Note_on_c, 9, 50, 106
4, 165479, Note_on_c, 9, 50, 0
4, 165480, Note_on_c, 9, 50, 106
4, 165599, Note_on_c, 9, 50, 0
4, 165720, Note_on_c, 9, 50, 106
4, 166079, Note_on_c, 9, 50, 0
4, 167520, Note_on_c, 9, 50, 106
4, 167999, Note_on_c, 9, 50, 0
4, 168480, Note_on_c, 9, 50, 106
4, 168959, Note_on_c, 9, 50, 0
4, 169440, Note_on_c, 9, 50, 106
4, 169919, Note_on_c, 9, 50, 0
4, 170400, Note_on_c, 9, 50, 106
4, 170879, Note_on_c, 9, 50, 0
4, 171360, Note_on_c, 9, 50, 106
4, 171839, Note_on_c, 9, 50, 0
4, 172320, Note_on_c, 9, 50, 106
4, 172799, Note_on_c, 9, 50, 0
4, 173280, Note_on_c, 9, 50, 106
4, 173759, Note_on_c, 9, 50, 0
4, 174240, Note_on_c, 9, 50, 106
4, 174719, Note_on_c, 9, 50, 0
4, 174720, End_track
5, 0, Start_track
5, 0, Key_signature, 0, "major"
5, 0, Control_c, 9, 121, 0
5, 0, Program_c, 9, 48
5, 0, Control_c, 9, 7, 100
5, 0, Control_c, 9, 10, 64
5, 0, Control_c, 9, 91, 0
5, 0, Control_c, 9, 93, 0
5, 0, MIDI_port, 1
5, 22320, Note_on_c, 9, 48, 102
5, 22559, Note_on_c, 9, 48, 0
5, 162000, Note_on_c, 9, 48, 102
5, 162239, Note_on_c, 9, 48, 0
5, 165840, Note_on_c, 9, 48, 102
5, 166079, Note_on_c, 9, 48, 0
5, 167640, Note_on_c, 9, 48, 102
5, 167999, Note_on_c, 9, 48, 0
5, 168600, Note_on_c, 9, 48, 102
5, 168959, Note_on_c, 9, 48, 0
5, 169560, Note_on_c, 9, 48, 102
5, 169919, Note_on_c, 9, 48, 0
5, 170520, Note_on_c, 9, 48, 102
5, 170879, Note_on_c, 9, 48, 0
5, 171480, Note_on_c, 9, 48, 102
5, 171839, Note_on_c, 9, 48, 0
5, 172440, Note_on_c, 9, 48, 102
5, 172799, Note_on_c, 9, 48, 0
5, 173400, Note_on_c, 9, 48, 102
5, 173759, Note_on_c, 9, 48, 0
5, 174360, Note_on_c, 9, 48, 102
5, 174719, Note_on_c, 9, 48, 0
5, 174720, End_track
6, 0, Start_track
6, 0, Key_signature, 0, "major"
6, 0, Control_c, 9, 121, 0
6, 0, Program_c, 9, 48
6, 0, Control_c, 9, 7, 100
6, 0, Control_c, 9, 10, 64
6, 0, Control_c, 9, 91, 0
6, 0, Control_c, 9, 93, 0
6, 0, MIDI_port, 1
6, 24960, Note_on_c, 9, 62, 98
6, 25439, Note_on_c, 9, 62, 0
6, 25440, Note_on_c, 9, 62, 98
6, 25919, Note_on_c, 9, 62, 0
6, 25920, Note_on_c, 9, 62, 98
6, 26399, Note_on_c, 9, 62, 0
6, 26400, Note_on_c, 9, 62, 98
6, 26879, Note_on_c, 9, 62, 0
6, 26880, Note_on_c, 9, 62, 98
6, 27359, Note_on_c, 9, 62, 0
6, 27360, Note_on_c, 9, 62, 98
6, 27839, Note_on_c, 9, 62, 0
6, 28320, Note_on_c, 9, 62, 98
6, 28799, Note_on_c, 9, 62, 0
6, 28800, Note_on_c, 9, 62, 98
6, 29279, Note_on_c, 9, 62, 0
6, 29280, Note_on_c, 9, 62, 98
6, 29759, Note_on_c, 9, 62, 0
6, 29760, Note_on_c, 9, 62, 98
6, 30239, Note_on_c, 9, 62, 0
6, 30240, Note_on_c, 9, 62, 98
6, 30719, Note_on_c, 9, 62, 0
6, 30720, Note_on_c, 9, 62, 98
6, 31199, Note_on_c, 9, 62, 0
6, 31200, Note_on_c, 9, 62, 98
6, 31679, Note_on_c, 9, 62, 0
6, 32160, Note_on_c, 9, 62, 98
6, 32639, Note_on_c, 9, 62, 0
6, 32640, Note_on_c, 9, 62, 98
6, 33119, Note_on_c, 9, 62, 0
6, 33120, Note_on_c, 9, 62, 98
6, 33599, Note_on_c, 9, 62, 0
6, 33600, Note_on_c, 9, 62, 98
6, 34079, Note_on_c, 9, 62, 0
6, 34080, Note_on_c, 9, 62, 98
6, 34559, Note_on_c, 9, 62, 0
6, 34560, Note_on_c, 9, 62, 98
6, 35039, Note_on_c, 9, 62, 0
6, 35040, Note_on_c, 9, 62, 98
6, 35519, Note_on_c, 9, 62, 0
6, 36000, Note_on_c, 9, 62, 98
6, 36479, Note_on_c, 9, 62, 0
6, 36480, Note_on_c, 9, 62, 98
6, 36959, Note_on_c, 9, 62, 0
6, 36960, Note_on_c, 9, 62, 98
6, 37439, Note_on_c, 9, 62, 0
6, 37440, Note_on_c, 9, 62, 98
6, 37919, Note_on_c, 9, 62, 0
6, 37920, Note_on_c, 9, 62, 98
6, 38399, Note_on_c, 9, 62, 0
6, 38400, Note_on_c, 9, 62, 98
6, 38879, Note_on_c, 9, 62, 0
6, 38880, Note_on_c, 9, 62, 98
6, 39359, Note_on_c, 9, 62, 0
6, 39840, Note_on_c, 9, 62, 98
6, 40319, Note_on_c, 9, 62, 0
6, 40320, Note_on_c, 9, 62, 98
6, 40799, Note_on_c, 9, 62, 0
6, 40800, Note_on_c, 9, 62, 98
6, 41279, Note_on_c, 9, 62, 0
6, 41280, Note_on_c, 9, 62, 98
6, 41759, Note_on_c, 9, 62, 0
6, 41760, Note_on_c, 9, 62, 98
6, 42239, Note_on_c, 9, 62, 0
6, 42240, Note_on_c, 9, 62, 98
6, 42719, Note_on_c, 9, 62, 0
6, 42720, Note_on_c, 9, 62, 98
6, 43199, Note_on_c, 9, 62, 0
6, 43680, Note_on_c, 9, 62, 98
6, 44159, Note_on_c, 9, 62, 0
6, 44160, Note_on_c, 9, 62, 98
6, 44639, Note_on_c, 9, 62, 0
6, 44640, Note_on_c, 9, 62, 98
6, 45119, Note_on_c, 9, 62, 0
6, 45120, Note_on_c, 9, 62, 98
6, 45599, Note_on_c, 9, 62, 0
6, 45600, Note_on_c, 9, 62, 98
6, 46079, Note_on_c, 9, 62, 0
6, 46080, Note_on_c, 9, 62, 98
6, 46559, Note_on_c, 9, 62, 0
6, 46560, Note_on_c, 9, 62, 98
6, 47039, Note_on_c, 9, 62, 0
6, 47520, Note_on_c, 9, 62, 98
6, 47999, Note_on_c, 9, 62, 0
6, 48000, Note_on_c, 9, 62, 98
6, 48479, Note_on_c, 9, 62, 0
6, 48480, Note_on_c, 9, 62, 98
6, 48959, Note_on_c, 9, 62, 0
6, 48960, Note_on_c, 9, 62, 98
6, 49439, Note_on_c, 9, 62, 0
6, 49440, Note_on_c, 9, 62, 98
6, 49919, Note_on_c, 9, 62, 0
6, 49920, Note_on_c, 9, 62, 98
6, 50399, Note_on_c, 9, 62, 0
6, 50400, Note_on_c, 9, 62, 98
6, 50879, Note_on_c, 9, 62, 0
6, 51360, Note_on_c, 9, 62, 98
6, 51839, Note_on_c, 9, 62, 0
6, 51840, Note_on_c, 9, 62, 98
6, 52319, Note_on_c, 9, 62, 0
6, 52320, Note_on_c, 9, 62, 98
6, 52799, Note_on_c, 9, 62, 0
6, 52800, Note_on_c, 9, 62, 98
6, 53279, Note_on_c, 9, 62, 0
6, 53280, Note_on_c, 9, 62, 98
6, 53759, Note_on_c, 9, 62, 0
6, 53760, Note_on_c, 9, 62, 98
6, 54239, Note_on_c, 9, 62, 0
6, 54240, Note_on_c, 9, 62, 98
6, 54719, Note_on_c, 9, 62, 0
6, 55200, Note_on_c, 9, 62, 98
6, 55679, Note_on_c, 9, 62, 0
6, 55680, Note_on_c, 9, 62, 98
6, 56159, Note_on_c, 9, 62, 0
6, 56160, Note_on_c, 9, 62, 98
6, 56639, Note_on_c, 9, 62, 0
6, 56640, Note_on_c, 9, 62, 98
6, 57119, Note_on_c, 9, 62, 0
6, 57120, Note_on_c, 9, 62, 98
6, 57599, Note_on_c, 9, 62, 0
6, 57600, Note_on_c, 9, 62, 98
6, 58079, Note_on_c, 9, 62, 0
6, 58080, Note_on_c, 9, 62, 98
6, 58559, Note_on_c, 9, 62, 0
6, 59040, Note_on_c, 9, 62, 98
6, 59519, Note_on_c, 9, 62, 0
6, 59520, Note_on_c, 9, 62, 98
6, 59999, Note_on_c, 9, 62, 0
6, 60000, Note_on_c, 9, 62, 98
6, 60479, Note_on_c, 9, 62, 0
6, 60480, Note_on_c, 9, 62, 98
6, 60959, Note_on_c, 9, 62, 0
6, 60960, Note_on_c, 9, 62, 98
6, 61439, Note_on_c, 9, 62, 0
6, 61440, Note_on_c, 9, 62, 98
6, 61919, Note_on_c, 9, 62, 0
6, 61920, Note_on_c, 9, 62, 98
6, 62399, Note_on_c, 9, 62, 0
6, 62880, Note_on_c, 9, 62, 98
6, 63359, Note_on_c, 9, 62, 0
6, 92160, Note_on_c, 9, 62, 98
6, 92639, Note_on_c, 9, 62, 0
6, 92640, Note_on_c, 9, 62, 98
6, 93119, Note_on_c, 9, 62, 0
6, 93120, Note_on_c, 9, 62, 98
6, 93599, Note_on_c, 9, 62, 0
6, 93600, Note_on_c, 9, 62, 98
6, 94079, Note_on_c, 9, 62, 0
6, 94080, Note_on_c, 9, 62, 98
6, 94559, Note_on_c, 9, 62, 0
6, 94560, Note_on_c, 9, 62, 98
6, 95039, Note_on_c, 9, 62, 0
6, 95520, Note_on_c, 9, 62, 98
6, 95999, Note_on_c, 9, 62, 0
6, 96000, Note_on_c, 9, 62, 98
6, 96479, Note_on_c, 9, 62, 0
6, 96480, Note_on_c, 9, 62, 98
6, 96959, Note_on_c, 9, 62, 0
6, 96960, Note_on_c, 9, 62, 98
6, 97439, Note_on_c, 9, 62, 0
6, 97440, Note_on_c, 9, 62, 98
6, 97919, Note_on_c, 9, 62, 0
6, 97920, Note_on_c, 9, 62, 98
6, 98399, Note_on_c, 9, 62, 0
6, 98400, Note_on_c, 9, 62, 98
6, 98879, Note_on_c, 9, 62, 0
6, 99360, Note_on_c, 9, 62, 98
6, 99839, Note_on_c, 9, 62, 0
6, 99840, Note_on_c, 9, 62, 98
6, 100319, Note_on_c, 9, 62, 0
6, 100320, Note_on_c, 9, 62, 98
6, 100799, Note_on_c, 9, 62, 0
6, 100800, Note_on_c, 9, 62, 98
6, 101279, Note_on_c, 9, 62, 0
6, 101280, Note_on_c, 9, 62, 98
6, 101759, Note_on_c, 9, 62, 0
6, 101760, Note_on_c, 9, 62, 98
6, 102239, Note_on_c, 9, 62, 0
6, 102240, Note_on_c, 9, 62, 98
6, 102719, Note_on_c, 9, 62, 0
6, 103200, Note_on_c, 9, 62, 98
6, 103679, Note_on_c, 9, 62, 0
6, 103680, Note_on_c, 9, 62, 98
6, 104159, Note_on_c, 9, 62, 0
6, 104160, Note_on_c, 9, 62, 98
6, 104639, Note_on_c, 9, 62, 0
6, 104640, Note_on_c, 9, 62, 98
6, 105119, Note_on_c, 9, 62, 0
6, 105120, Note_on_c, 9, 62, 98
6, 105599, Note_on_c, 9, 62, 0
6, 105600, Note_on_c, 9, 62, 98
6, 106079, Note_on_c, 9, 62, 0
6, 106080, Note_on_c, 9, 62, 98
6, 106559, Note_on_c, 9, 62, 0
6, 107040, Note_on_c, 9, 62, 98
6, 107519, Note_on_c, 9, 62, 0
6, 107520, Note_on_c, 9, 62, 98
6, 107999, Note_on_c, 9, 62, 0
6, 108000, Note_on_c, 9, 62, 98
6, 108479, Note_on_c, 9, 62, 0
6, 108480, Note_on_c, 9, 62, 98
6, 108959, Note_on_c, 9, 62, 0
6, 108960, Note_on_c, 9, 62, 98
6, 109439, Note_on_c, 9, 62, 0
6, 109440, Note_on_c, 9, 62, 98
6, 109919, Note_on_c, 9, 62, 0
6, 109920, Note_on_c, 9, 62, 98
6, 110399, Note_on_c, 9, 62, 0
6, 110880, Note_on_c, 9, 62, 98
6, 111359, Note_on_c, 9, 62, 0
6, 111360, Note_on_c, 9, 62, 98
6, 111839, Note_on_c, 9, 62, 0
6, 111840, Note_on_c, 9, 62, 98
6, 112319, Note_on_c, 9, 62, 0
6, 112320, Note_on_c, 9, 62, 98
6, 112799, Note_on_c, 9, 62, 0
6, 112800, Note_on_c, 9, 62, 98
6, 113279, Note_on_c, 9, 62, 0
6, 113280, Note_on_c, 9, 62, 98
6, 113759, Note_on_c, 9, 62, 0
6, 113760, Note_on_c, 9, 62, 98
6, 114239, Note_on_c, 9, 62, 0
6, 114720, Note_on_c, 9, 62, 98
6, 115199, Note_on_c, 9, 62, 0
6, 115200, Note_on_c, 9, 62, 98
6, 115679, Note_on_c, 9, 62, 0
6, 115680, Note_on_c, 9, 62, 98
6, 116159, Note_on_c, 9, 62, 0
6, 116160, Note_on_c, 9, 62, 98
6, 116639, Note_on_c, 9, 62, 0
6, 116640, Note_on_c, 9, 62, 98
6, 117119, Note_on_c, 9, 62, 0
6, 117120, Note_on_c, 9, 62, 98
6, 117599, Note_on_c, 9, 62, 0
6, 117600, Note_on_c, 9, 62, 98
6, 118079, Note_on_c, 9, 62, 0
6, 118560, Note_on_c, 9, 62, 98
6, 119039, Note_on_c, 9, 62, 0
6, 119040, Note_on_c, 9, 62, 98
6, 119519, Note_on_c, 9, 62, 0
6, 119520, Note_on_c, 9, 62, 98
6, 119999, Note_on_c, 9, 62, 0
6, 120000, Note_on_c, 9, 62, 98
6, 120479, Note_on_c, 9, 62, 0
6, 120480, Note_on_c, 9, 62, 98
6, 120959, Note_on_c, 9, 62, 0
6, 120960, Note_on_c, 9, 62, 98
6, 121439, Note_on_c, 9, 62, 0
6, 121440, Note_on_c, 9, 62, 98
6, 121919, Note_on_c, 9, 62, 0
6, 122400, Note_on_c, 9, 62, 98
6, 122879, Note_on_c, 9, 62, 0
6, 122880, Note_on_c, 9, 62, 98
6, 123359, Note_on_c, 9, 62, 0
6, 123360, Note_on_c, 9, 62, 98
6, 123839, Note_on_c, 9, 62, 0
6, 123840, Note_on_c, 9, 62, 98
6, 124319, Note_on_c, 9, 62, 0
6, 124320, Note_on_c, 9, 62, 98
6, 124799, Note_on_c, 9, 62, 0
6, 124800, Note_on_c, 9, 62, 98
6, 125279, Note_on_c, 9, 62, 0
6, 125280, Note_on_c, 9, 62, 98
6, 125759, Note_on_c, 9, 62, 0
6, 126240, Note_on_c, 9, 62, 98
6, 126719, Note_on_c, 9, 62, 0
6, 126720, Note_on_c, 9, 62, 98
6, 127199, Note_on_c, 9, 62, 0
6, 127200, Note_on_c, 9, 62, 98
6, 127679, Note_on_c, 9, 62, 0
6, 127680, Note_on_c, 9, 62, 98
6, 128159, Note_on_c, 9, 62, 0
6, 128160, Note_on_c, 9, 62, 98
6, 128639, Note_on_c, 9, 62, 0
6, 128640, Note_on_c, 9, 62, 98
6, 129119, Note_on_c, 9, 62, 0
6, 129120, Note_on_c, 9, 62, 98
6, 129599, Note_on_c, 9, 62, 0
6, 130080, Note_on_c, 9, 62, 98
6, 130559, Note_on_c, 9, 62, 0
6, 174720, Note_on_c, 9, 62, 98
6, 175199, Note_on_c, 9, 62, 0
6, 175200, Note_on_c, 9, 62, 98
6, 175679, Note_on_c, 9, 62, 0
6, 175680, Note_on_c, 9, 62, 98
6, 176159, Note_on_c, 9, 62, 0
6, 176160, Note_on_c, 9, 62, 98
6, 176639, Note_on_c, 9, 62, 0
6, 176640, Note_on_c, 9, 62, 98
6, 177119, Note_on_c, 9, 62, 0
6, 177120, Note_on_c, 9, 62, 98
6, 177599, Note_on_c, 9, 62, 0
6, 178080, Note_on_c, 9, 62, 98
6, 178559, Note_on_c, 9, 62, 0
6, 178560, Note_on_c, 9, 62, 98
6, 179039, Note_on_c, 9, 62, 0
6, 179040, Note_on_c, 9, 62, 98
6, 179519, Note_on_c, 9, 62, 0
6, 179520, Note_on_c, 9, 62, 98
6, 179999, Note_on_c, 9, 62, 0
6, 180000, Note_on_c, 9, 62, 98
6, 180479, Note_on_c, 9, 62, 0
6, 180480, Note_on_c, 9, 62, 98
6, 180959, Note_on_c, 9, 62, 0
6, 180960, Note_on_c, 9, 62, 98
6, 181439, Note_on_c, 9, 62, 0
6, 181920, Note_on_c, 9, 62, 98
6, 182399, Note_on_c, 9, 62, 0
6, 182400, Note_on_c, 9, 62, 98
6, 182879, Note_on_c, 9, 62, 0
6, 182880, Note_on_c, 9, 62, 98
6, 183359, Note_on_c, 9, 62, 0
6, 183360, Note_on_c, 9, 62, 98
6, 183839, Note_on_c, 9, 62, 0
6, 183840, Note_on_c, 9, 62, 98
6, 184319, Note_on_c, 9, 62, 0
6, 184320, Note_on_c, 9, 62, 98
6, 184799, Note_on_c, 9, 62, 0
6, 184800, Note_on_c, 9, 62, 98
6, 185279, Note_on_c, 9, 62, 0
6, 185760, Note_on_c, 9, 62, 98
6, 186239, Note_on_c, 9, 62, 0
6, 186240, Note_on_c, 9, 62, 98
6, 186719, Note_on_c, 9, 62, 0
6, 186720, Note_on_c, 9, 62, 98
6, 187199, Note_on_c, 9, 62, 0
6, 187200, Note_on_c, 9, 62, 98
6, 187679, Note_on_c, 9, 62, 0
6, 187680, Note_on_c, 9, 62, 98
6, 188159, Note_on_c, 9, 62, 0
6, 188160, Note_on_c, 9, 62, 98
6, 188639, Note_on_c, 9, 62, 0
6, 188640, Note_on_c, 9, 62, 98
6, 189119, Note_on_c, 9, 62, 0
6, 189600, Note_on_c, 9, 62, 98
6, 190079, Note_on_c, 9, 62, 0
6, 190080, Note_on_c, 9, 62, 98
6, 190559, Note_on_c, 9, 62, 0
6, 190560, Note_on_c, 9, 62, 98
6, 191039, Note_on_c, 9, 62, 0
6, 191040, Note_on_c, 9, 62, 98
6, 191519, Note_on_c, 9, 62, 0
6, 191520, Note_on_c, 9, 62, 98
6, 191999, Note_on_c, 9, 62, 0
6, 192000, Note_on_c, 9, 62, 98
6, 192479, Note_on_c, 9, 62, 0
6, 192480, Note_on_c, 9, 62, 98
6, 192959, Note_on_c, 9, 62, 0
6, 193440, Note_on_c, 9, 62, 98
6, 193919, Note_on_c, 9, 62, 0
6, 193920, Note_on_c, 9, 62, 98
6, 194399, Note_on_c, 9, 62, 0
6, 194400, Note_on_c, 9, 62, 98
6, 194879, Note_on_c, 9, 62, 0
6, 194880, Note_on_c, 9, 62, 98
6, 195359, Note_on_c, 9, 62, 0
6, 195360, Note_on_c, 9, 62, 98
6, 195839, Note_on_c, 9, 62, 0
6, 195840, Note_on_c, 9, 62, 98
6, 196319, Note_on_c, 9, 62, 0
6, 196320, Note_on_c, 9, 62, 98
6, 196799, Note_on_c, 9, 62, 0
6, 197280, Note_on_c, 9, 62, 98
6, 197759, Note_on_c, 9, 62, 0
6, 197760, Note_on_c, 9, 62, 98
6, 198239, Note_on_c, 9, 62, 0
6, 198240, Note_on_c, 9, 62, 98
6, 198719, Note_on_c, 9, 62, 0
6, 198720, Note_on_c, 9, 62, 98
6, 199199, Note_on_c, 9, 62, 0
6, 199200, Note_on_c, 9, 62, 98
6, 199679, Note_on_c, 9, 62, 0
6, 199680, Note_on_c, 9, 62, 98
6, 200159, Note_on_c, 9, 62, 0
6, 200160, Note_on_c, 9, 62, 98
6, 200639, Note_on_c, 9, 62, 0
6, 201120, Note_on_c, 9, 62, 98
6, 201599, Note_on_c, 9, 62, 0
6, 201600, Note_on_c, 9, 62, 98
6, 202079, Note_on_c, 9, 62, 0
6, 202080, Note_on_c, 9, 62, 98
6, 202559, Note_on_c, 9, 62, 0
6, 202560, Note_on_c, 9, 62, 98
6, 203039, Note_on_c, 9, 62, 0
6, 203040, Note_on_c, 9, 62, 98
6, 203519, Note_on_c, 9, 62, 0
6, 203520, Note_on_c, 9, 62, 98
6, 203999, Note_on_c, 9, 62, 0
6, 204000, Note_on_c, 9, 62, 98
6, 204479, Note_on_c, 9, 62, 0
6, 204960, Note_on_c, 9, 62, 98
6, 205439, Note_on_c, 9, 62, 0
6, 205440, End_track
7, 0, Start_track
7, 0, Key_signature, 0, "major"
7, 0, Control_c, 9, 121, 0
7, 0, Program_c, 9, 48
7, 0, Control_c, 9, 7, 100
7, 0, Control_c, 9, 10, 64
7, 0, Control_c, 9, 91, 0
7, 0, Control_c, 9, 93, 0
7, 0, MIDI_port, 1
7, 3840, Note_on_c, 9, 54, 92
7, 4319, Note_on_c, 9, 54, 0
7, 4320, Note_on_c, 9, 54, 92
7, 4799, Note_on_c, 9, 54, 0
7, 4800, Note_on_c, 9, 54, 92
7, 5279, Note_on_c, 9, 54, 0
7, 5280, Note_on_c, 9, 54, 92
7, 5639, Note_on_c, 9, 54, 0
7, 5660, Note_on_c, 9, 54, 92
7, 5699, Note_on_c, 9, 54, 0
7, 5760, Note_on_c, 9, 54, 92
7, 6239, Note_on_c, 9, 54, 0
7, 6240, Note_on_c, 9, 54, 92
7, 6719, Note_on_c, 9, 54, 0
7, 6720, Note_on_c, 9, 54, 92
7, 7199, Note_on_c, 9, 54, 0
7, 7200, Note_on_c, 9, 54, 92
7, 7679, Note_on_c, 9, 54, 0
7, 7680, Note_on_c, 9, 54, 92
7, 8159, Note_on_c, 9, 54, 0
7, 8160, Note_on_c, 9, 54, 92
7, 8639, Note_on_c, 9, 54, 0
7, 8640, Note_on_c, 9, 54, 92
7, 9119, Note_on_c, 9, 54, 0
7, 9120, Note_on_c, 9, 54, 92
7, 9479, Note_on_c, 9, 54, 0
7, 9500, Note_on_c, 9, 54, 92
7, 9539, Note_on_c, 9, 54, 0
7, 9600, Note_on_c, 9, 54, 92
7, 10079, Note_on_c, 9, 54, 0
7, 10080, Note_on_c, 9, 54, 92
7, 10559, Note_on_c, 9, 54, 0
7, 10560, Note_on_c, 9, 54, 92
7, 11039, Note_on_c, 9, 54, 0
7, 11040, Note_on_c, 9, 54, 92
7, 11519, Note_on_c, 9, 54, 0
7, 11520, Note_on_c, 9, 54, 92
7, 11999, Note_on_c, 9, 54, 0
7, 12000, Note_on_c, 9, 54, 92
7, 12479, Note_on_c, 9, 54, 0
7, 12480, Note_on_c, 9, 54, 92
7, 12959, Note_on_c, 9, 54, 0
7, 12960, Note_on_c, 9, 54, 92
7, 13319, Note_on_c, 9, 54, 0
7, 13340, Note_on_c, 9, 54, 92
7, 13379, Note_on_c, 9, 54, 0
7, 13440, Note_on_c, 9, 54, 92
7, 13919, Note_on_c, 9, 54, 0
7, 13920, Note_on_c, 9, 54, 92
7, 14399, Note_on_c, 9, 54, 0
7, 14400, Note_on_c, 9, 54, 92
7, 14879, Note_on_c, 9, 54, 0
7, 14880, Note_on_c, 9, 54, 92
7, 15359, Note_on_c, 9, 54, 0
7, 15360, Note_on_c, 9, 54, 92
7, 15839, Note_on_c, 9, 54, 0
7, 15840, Note_on_c, 9, 54, 92
7, 16319, Note_on_c, 9, 54, 0
7, 16320, Note_on_c, 9, 54, 92
7, 16799, Note_on_c, 9, 54, 0
7, 16800, Note_on_c, 9, 54, 92
7, 17159, Note_on_c, 9, 54, 0
7, 17180, Note_on_c, 9, 54, 92
7, 17219, Note_on_c, 9, 54, 0
7, 17280, Note_on_c, 9, 54, 92
7, 17759, Note_on_c, 9, 54, 0
7, 17760, Note_on_c, 9, 54, 92
7, 18239, Note_on_c, 9, 54, 0
7, 18240, Note_on_c, 9, 54, 92
7, 18719, Note_on_c, 9, 54, 0
7, 18720, Note_on_c, 9, 54, 92
7, 19199, Note_on_c, 9, 54, 0
7, 20160, Note_on_c, 9, 54, 92
7, 20639, Note_on_c, 9, 54, 0
7, 20640, Note_on_c, 9, 54, 92
7, 21119, Note_on_c, 9, 54, 0
7, 21120, Note_on_c, 9, 54, 92
7, 21599, Note_on_c, 9, 54, 0
7, 21600, Note_on_c, 9, 54, 92
7, 22079, Note_on_c, 9, 54, 0
7, 22080, Note_on_c, 9, 54, 92
7, 22559, Note_on_c, 9, 54, 0
7, 22560, Note_on_c, 9, 54, 92
7, 23039, Note_on_c, 9, 54, 0
7, 23040, Note_on_c, 9, 54, 92
7, 23519, Note_on_c, 9, 54, 0
7, 23520, Note_on_c, 9, 54, 92
7, 23999, Note_on_c, 9, 54, 0
7, 159360, Note_on_c, 9, 54, 92
7, 159839, Note_on_c, 9, 54, 0
7, 159840, Note_on_c, 9, 54, 92
7, 160319, Note_on_c, 9, 54, 0
7, 160320, Note_on_c, 9, 54, 92
7, 160799, Note_on_c, 9, 54, 0
7, 160800, Note_on_c, 9, 54, 92
7, 161279, Note_on_c, 9, 54, 0
7, 161280, Note_on_c, 9, 54, 92
7, 161759, Note_on_c, 9, 54, 0
7, 161760, Note_on_c, 9, 54, 92
7, 162239, Note_on_c, 9, 54, 0
7, 162240, Note_on_c, 9, 54, 92
7, 162719, Note_on_c, 9, 54, 0
7, 162720, Note_on_c, 9, 54, 92
7, 163199, Note_on_c, 9, 54, 0
7, 163200, Note_on_c, 9, 54, 92
7, 163679, Note_on_c, 9, 54, 0
7, 163680, Note_on_c, 9, 54, 92
7, 164159, Note_on_c, 9, 54, 0
7, 164160, Note_on_c, 9, 54, 92
7, 164639, Note_on_c, 9, 54, 0
7, 164640, Note_on_c, 9, 54, 92
7, 165119, Note_on_c, 9, 54, 0
7, 165120, Note_on_c, 9, 54, 92
7, 165599, Note_on_c, 9, 54, 0
7, 165600, Note_on_c, 9, 54, 92
7, 166079, Note_on_c, 9, 54, 0
7, 166080, Note_on_c, 9, 54, 92
7, 166559, Note_on_c, 9, 54, 0
7, 166560, Note_on_c, 9, 54, 92
7, 167039, Note_on_c, 9, 54, 0
7, 167280, Note_on_c, 9, 54, 92
7, 167369, Note_on_c, 9, 54, 0
7, 167385, Note_on_c, 9, 54, 92
7, 167399, Note_on_c, 9, 54, 0
7, 167520, Note_on_c, 9, 54, 92
7, 167639, Note_on_c, 9, 54, 0
7, 167640, Note_on_c, 9, 54, 92
7, 167999, Note_on_c, 9, 54, 0
7, 168240, Note_on_c, 9, 54, 92
7, 168359, Note_on_c, 9, 54, 0
7, 168360, Note_on_c, 9, 54, 92
7, 168479, Note_on_c, 9, 54, 0
7, 168480, Note_on_c, 9, 54, 92
7, 168599, Note_on_c, 9, 54, 0
7, 168600, Note_on_c, 9, 54, 92
7, 168959, Note_on_c, 9, 54, 0
7, 169200, Note_on_c, 9, 54, 92
7, 169319, Note_on_c, 9, 54, 0
7, 169320, Note_on_c, 9, 54, 92
7, 169439, Note_on_c, 9, 54, 0
7, 169440, Note_on_c, 9, 54, 92
7, 169559, Note_on_c, 9, 54, 0
7, 169560, Note_on_c, 9, 54, 92
7, 169919, Note_on_c, 9, 54, 0
7, 170160, Note_on_c, 9, 54, 92
7, 170279, Note_on_c, 9, 54, 0
7, 170280, Note_on_c, 9, 54, 92
7, 170399, Note_on_c, 9, 54, 0
7, 170520, Note_on_c, 9, 54, 92
7, 170879, Note_on_c, 9, 54, 0
7, 171120, Note_on_c, 9, 54, 92
7, 171239, Note_on_c, 9, 54, 0
7, 171240, Note_on_c, 9, 54, 92
7, 171359, Note_on_c, 9, 54, 0
7, 171360, Note_on_c, 9, 54, 92
7, 171479, Note_on_c, 9, 54, 0
7, 171480, Note_on_c, 9, 54, 92
7, 171839, Note_on_c, 9, 54, 0
7, 172080, Note_on_c, 9, 54, 92
7, 172199, Note_on_c, 9, 54, 0
7, 172200, Note_on_c, 9, 54, 92
7, 172319, Note_on_c, 9, 54, 0
7, 172320, Note_on_c, 9, 54, 92
7, 172439, Note_on_c, 9, 54, 0
7, 172440, Note_on_c, 9, 54, 92
7, 172799, Note_on_c, 9, 54, 0
7, 173040, Note_on_c, 9, 54, 92
7, 173159, Note_on_c, 9, 54, 0
7, 173160, Note_on_c, 9, 54, 92
7, 173279, Note_on_c, 9, 54, 0
7, 173280, Note_on_c, 9, 54, 92
7, 173399, Note_on_c, 9, 54, 0
7, 173400, Note_on_c, 9, 54, 92
7, 173759, Note_on_c, 9, 54, 0
7, 174000, Note_on_c, 9, 54, 92
7, 174119, Note_on_c, 9, 54, 0
7, 174120, Note_on_c, 9, 54, 92
7, 174239, Note_on_c, 9, 54, 0
7, 174360, Note_on_c, 9, 54, 92
7, 174719, Note_on_c, 9, 54, 0
7, 174720, End_track
8, 0, Start_track
8, 0, Key_signature, 0, "major"
8, 0, Control_c, 9, 121, 0
8, 0, Program_c, 9, 48
8, 0, Control_c, 9, 7, 100
8, 0, Control_c, 9, 10, 64
8, 0, Control_c, 9, 91, 0
8, 0, Control_c, 9, 93, 0
8, 0, MIDI_port, 1
8, 960, Note_on_c, 9, 56, 76
8, 1439, Note_on_c, 9, 56, 0
8, 1920, Note_on_c, 9, 56, 76
8, 2159, Note_on_c, 9, 56, 0
8, 2160, Note_on_c, 9, 56, 76
8, 2399, Note_on_c, 9, 56, 0
8, 2400, Note_on_c, 9, 56, 76
8, 2879, Note_on_c, 9, 56, 0
8, 2880, Note_on_c, 9, 56, 76
8, 3359, Note_on_c, 9, 56, 0
8, 4080, Note_on_c, 9, 56, 76
8, 4199, Note_on_c, 9, 56, 0
8, 4200, Note_on_c, 9, 56, 76
8, 4319, Note_on_c, 9, 56, 0
8, 4560, Note_on_c, 9, 56, 76
8, 4679, Note_on_c, 9, 56, 0
8, 4680, Note_on_c, 9, 56, 76
8, 4799, Note_on_c, 9, 56, 0
8, 5040, Note_on_c, 9, 56, 76
8, 5159, Note_on_c, 9, 56, 0
8, 5160, Note_on_c, 9, 56, 76
8, 5279, Note_on_c, 9, 56, 0
8, 5520, Note_on_c, 9, 56, 76
8, 5639, Note_on_c, 9, 56, 0
8, 5640, Note_on_c, 9, 56, 76
8, 5759, Note_on_c, 9, 56, 0
8, 6000, Note_on_c, 9, 56, 76
8, 6119, Note_on_c, 9, 56, 0
8, 6120, Note_on_c, 9, 56, 76
8, 6239, Note_on_c, 9, 56, 0
8, 6480, Note_on_c, 9, 56, 76
8, 6599, Note_on_c, 9, 56, 0
8, 6600, Note_on_c, 9, 56, 76
8, 6719, Note_on_c, 9, 56, 0
8, 6960, Note_on_c, 9, 56, 76
8, 7079, Note_on_c, 9, 56, 0
8, 7080, Note_on_c, 9, 56, 76
8, 7199, Note_on_c, 9, 56, 0
8, 7440, Note_on_c, 9, 56, 76
8, 7559, Note_on_c, 9, 56, 0
8, 7560, Note_on_c, 9, 56, 76
8, 7679, Note_on_c, 9, 56, 0
8, 7920, Note_on_c, 9, 56, 76
8, 8039, Note_on_c, 9, 56, 0
8, 8040, Note_on_c, 9, 56, 76
8, 8159, Note_on_c, 9, 56, 0
8, 8400, Note_on_c, 9, 56, 76
8, 8519, Note_on_c, 9, 56, 0
8, 8520, Note_on_c, 9, 56, 76
8, 8639, Note_on_c, 9, 56, 0
8, 8880, Note_on_c, 9, 56, 76
8, 8999, Note_on_c, 9, 56, 0
8, 9000, Note_on_c, 9, 56, 76
8, 9119, Note_on_c, 9, 56, 0
8, 9360, Note_on_c, 9, 56, 76
8, 9479, Note_on_c, 9, 56, 0
8, 9480, Note_on_c, 9, 56, 76
8, 9599, Note_on_c, 9, 56, 0
8, 9840, Note_on_c, 9, 56, 76
8, 9959, Note_on_c, 9, 56, 0
8, 9960, Note_on_c, 9, 56, 76
8, 10079, Note_on_c, 9, 56, 0
8, 10320, Note_on_c, 9, 56, 76
8, 10439, Note_on_c, 9, 56, 0
8, 10440, Note_on_c, 9, 56, 76
8, 10559, Note_on_c, 9, 56, 0
8, 10800, Note_on_c, 9, 56, 76
8, 10919, Note_on_c, 9, 56, 0
8, 10920, Note_on_c, 9, 56, 76
8, 11039, Note_on_c, 9, 56, 0
8, 11280, Note_on_c, 9, 56, 76
8, 11399, Note_on_c, 9, 56, 0
8, 11400, Note_on_c, 9, 56, 76
8, 11519, Note_on_c, 9, 56, 0
8, 11760, Note_on_c, 9, 56, 76
8, 11879, Note_on_c, 9, 56, 0
8, 11880, Note_on_c, 9, 56, 76
8, 11999, Note_on_c, 9, 56, 0
8, 12240, Note_on_c, 9, 56, 76
8, 12359, Note_on_c, 9, 56, 0
8, 12360, Note_on_c, 9, 56, 76
8, 12479, Note_on_c, 9, 56, 0
8, 12720, Note_on_c, 9, 56, 76
8, 12839, Note_on_c, 9, 56, 0
8, 12840, Note_on_c, 9, 56, 76
8, 12959, Note_on_c, 9, 56, 0
8, 13200, Note_on_c, 9, 56, 76
8, 13319, Note_on_c, 9, 56, 0
8, 13320, Note_on_c, 9, 56, 76
8, 13439, Note_on_c, 9, 56, 0
8, 13680, Note_on_c, 9, 56, 76
8, 13799, Note_on_c, 9, 56, 0
8, 13800, Note_on_c, 9, 56, 76
8, 13919, Note_on_c, 9, 56, 0
8, 14160, Note_on_c, 9, 56, 76
8, 14279, Note_on_c, 9, 56, 0
8, 14280, Note_on_c, 9, 56, 76
8, 14399, Note_on_c, 9, 56, 0
8, 14640, Note_on_c, 9, 56, 76
8, 14759, Note_on_c, 9, 56, 0
8, 14760, Note_on_c, 9, 56, 76
8, 14879, Note_on_c, 9, 56, 0
8, 15120, Note_on_c, 9, 56, 76
8, 15239, Note_on_c, 9, 56, 0
8, 15240, Note_on_c, 9, 56, 76
8, 15359, Note_on_c, 9, 56, 0
8, 15600, Note_on_c, 9, 56, 76
8, 15719, Note_on_c, 9, 56, 0
8, 15720, Note_on_c, 9, 56, 76
8, 15839, Note_on_c, 9, 56, 0
8, 16080, Note_on_c, 9, 56, 76
8, 16199, Note_on_c, 9, 56, 0
8, 16200, Note_on_c, 9, 56, 76
8, 16319, Note_on_c, 9, 56, 0
8, 16560, Note_on_c, 9, 56, 76
8, 16679, Note_on_c, 9, 56, 0
8, 16680, Note_on_c, 9, 56, 76
8, 16799, Note_on_c, 9, 56, 0
8, 17040, Note_on_c, 9, 56, 76
8, 17159, Note_on_c, 9, 56, 0
8, 17160, Note_on_c, 9, 56, 76
8, 17279, Note_on_c, 9, 56, 0
8, 17520, Note_on_c, 9, 56, 76
8, 17639, Note_on_c, 9, 56, 0
8, 17640, Note_on_c, 9, 56, 76
8, 17759, Note_on_c, 9, 56, 0
8, 18000, Note_on_c, 9, 56, 76
8, 18119, Note_on_c, 9, 56, 0
8, 18120, Note_on_c, 9, 56, 76
8, 18239, Note_on_c, 9, 56, 0
8, 18480, Note_on_c, 9, 56, 76
8, 18599, Note_on_c, 9, 56, 0
8, 18600, Note_on_c, 9, 56, 76
8, 18719, Note_on_c, 9, 56, 0
8, 18960, Note_on_c, 9, 56, 76
8, 19079, Note_on_c, 9, 56, 0
8, 19080, Note_on_c, 9, 56, 76
8, 19199, Note_on_c, 9, 56, 0
8, 20400, Note_on_c, 9, 56, 76
8, 20519, Note_on_c, 9, 56, 0
8, 20520, Note_on_c, 9, 56, 76
8, 20639, Note_on_c, 9, 56, 0
8, 20880, Note_on_c, 9, 56, 76
8, 20999, Note_on_c, 9, 56, 0
8, 21000, Note_on_c, 9, 56, 76
8, 21119, Note_on_c, 9, 56, 0
8, 21360, Note_on_c, 9, 56, 76
8, 21479, Note_on_c, 9, 56, 0
8, 21480, Note_on_c, 9, 56, 76
8, 21599, Note_on_c, 9, 56, 0
8, 21840, Note_on_c, 9, 56, 76
8, 21959, Note_on_c, 9, 56, 0
8, 21960, Note_on_c, 9, 56, 76
8, 22079, Note_on_c, 9, 56, 0
8, 22320, Note_on_c, 9, 56, 76
8, 22439, Note_on_c, 9, 56, 0
8, 22440, Note_on_c, 9, 56, 76
8, 22559, Note_on_c, 9, 56, 0
8, 22800, Note_on_c, 9, 56, 76
8, 22919, Note_on_c, 9, 56, 0
8, 22920, Note_on_c, 9, 56, 76
8, 23039, Note_on_c, 9, 56, 0
8, 23280, Note_on_c, 9, 56, 76
8, 23399, Note_on_c, 9, 56, 0
8, 23400, Note_on_c, 9, 56, 76
8, 23519, Note_on_c, 9, 56, 0
8, 23760, Note_on_c, 9, 56, 76
8, 23879, Note_on_c, 9, 56, 0
8, 23880, Note_on_c, 9, 56, 76
8, 23999, Note_on_c, 9, 56, 0
8, 25200, Note_on_c, 9, 56, 76
8, 25319, Note_on_c, 9, 56, 0
8, 25320, Note_on_c, 9, 56, 76
8, 25439, Note_on_c, 9, 56, 0
8, 25680, Note_on_c, 9, 56, 76
8, 25799, Note_on_c, 9, 56, 0
8, 25800, Note_on_c, 9, 56, 76
8, 25919, Note_on_c, 9, 56, 0
8, 26160, Note_on_c, 9, 56, 76
8, 26279, Note_on_c, 9, 56, 0
8, 26280, Note_on_c, 9, 56, 76
8, 26399, Note_on_c, 9, 56, 0
8, 26640, Note_on_c, 9, 56, 76
8, 26759, Note_on_c, 9, 56, 0
8, 26760, Note_on_c, 9, 56, 76
8, 26879, Note_on_c, 9, 56, 0
8, 27120, Note_on_c, 9, 56, 76
8, 27239, Note_on_c, 9, 56, 0
8, 27240, Note_on_c, 9, 56, 76
8, 27359, Note_on_c, 9, 56, 0
8, 27600, Note_on_c, 9, 56, 76
8, 27719, Note_on_c, 9, 56, 0
8, 27720, Note_on_c, 9, 56, 76
8, 27839, Note_on_c, 9, 56, 0
8, 28080, Note_on_c, 9, 56, 76
8, 28199, Note_on_c, 9, 56, 0
8, 28200, Note_on_c, 9, 56, 76
8, 28319, Note_on_c, 9, 56, 0
8, 28560, Note_on_c, 9, 56, 76
8, 28679, Note_on_c, 9, 56, 0
8, 28680, Note_on_c, 9, 56, 76
8, 28799, Note_on_c, 9, 56, 0
8, 29040, Note_on_c, 9, 56, 76
8, 29159, Note_on_c, 9, 56, 0
8, 29160, Note_on_c, 9, 56, 76
8, 29279, Note_on_c, 9, 56, 0
8, 29520, Note_on_c, 9, 56, 76
8, 29639, Note_on_c, 9, 56, 0
8, 29640, Note_on_c, 9, 56, 76
8, 29759, Note_on_c, 9, 56, 0
8, 30000, Note_on_c, 9, 56, 76
8, 30119, Note_on_c, 9, 56, 0
8, 30120, Note_on_c, 9, 56, 76
8, 30239, Note_on_c, 9, 56, 0
8, 30480, Note_on_c, 9, 56, 76
8, 30599, Note_on_c, 9, 56, 0
8, 30600, Note_on_c, 9, 56, 76
8, 30719, Note_on_c, 9, 56, 0
8, 30960, Note_on_c, 9, 56, 76
8, 31079, Note_on_c, 9, 56, 0
8, 31080, Note_on_c, 9, 56, 76
8, 31199, Note_on_c, 9, 56, 0
8, 31440, Note_on_c, 9, 56, 76
8, 31559, Note_on_c, 9, 56, 0
8, 31560, Note_on_c, 9, 56, 76
8, 31679, Note_on_c, 9, 56, 0
8, 31920, Note_on_c, 9, 56, 76
8, 32039, Note_on_c, 9, 56, 0
8, 32040, Note_on_c, 9, 56, 76
8, 32159, Note_on_c, 9, 56, 0
8, 32400, Note_on_c, 9, 56, 76
8, 32519, Note_on_c, 9, 56, 0
8, 32520, Note_on_c, 9, 56, 76
8, 32639, Note_on_c, 9, 56, 0
8, 32880, Note_on_c, 9, 56, 76
8, 32999, Note_on_c, 9, 56, 0
8, 33000, Note_on_c, 9, 56, 76
8, 33119, Note_on_c, 9, 56, 0
8, 33360, Note_on_c, 9, 56, 76
8, 33479, Note_on_c, 9, 56, 0
8, 33480, Note_on_c, 9, 56, 76
8, 33599, Note_on_c, 9, 56, 0
8, 33840, Note_on_c, 9, 56, 76
8, 33959, Note_on_c, 9, 56, 0
8, 33960, Note_on_c, 9, 56, 76
8, 34079, Note_on_c, 9, 56, 0
8, 34320, Note_on_c, 9, 56, 76
8, 34439, Note_on_c, 9, 56, 0
8, 34440, Note_on_c, 9, 56, 76
8, 34559, Note_on_c, 9, 56, 0
8, 34800, Note_on_c, 9, 56, 76
8, 34919, Note_on_c, 9, 56, 0
8, 34920, Note_on_c, 9, 56, 76
8, 35039, Note_on_c, 9, 56, 0
8, 35280, Note_on_c, 9, 56, 76
8, 35399, Note_on_c, 9, 56, 0
8, 35400, Note_on_c, 9, 56, 76
8, 35519, Note_on_c, 9, 56, 0
8, 35760, Note_on_c, 9, 56, 76
8, 35879, Note_on_c, 9, 56, 0
8, 35880, Note_on_c, 9, 56, 76
8, 35999, Note_on_c, 9, 56, 0
8, 36240, Note_on_c, 9, 56, 76
8, 36359, Note_on_c, 9, 56, 0
8, 36360, Note_on_c, 9, 56, 76
8, 36479, Note_on_c, 9, 56, 0
8, 36720, Note_on_c, 9, 56, 76
8, 36839, Note_on_c, 9, 56, 0
8, 36840, Note_on_c, 9, 56, 76
8, 36959, Note_on_c, 9, 56, 0
8, 37200, Note_on_c, 9, 56, 76
8, 37319, Note_on_c, 9, 56, 0
8, 37320, Note_on_c, 9, 56, 76
8, 37439, Note_on_c, 9, 56, 0
8, 37680, Note_on_c, 9, 56, 76
8, 37799, Note_on_c, 9, 56, 0
8, 37800, Note_on_c, 9, 56, 76
8, 37919, Note_on_c, 9, 56, 0
8, 38160, Note_on_c, 9, 56, 76
8, 38279, Note_on_c, 9, 56, 0
8, 38280, Note_on_c, 9, 56, 76
8, 38399, Note_on_c, 9, 56, 0
8, 38640, Note_on_c, 9, 56, 76
8, 38759, Note_on_c, 9, 56, 0
8, 38760, Note_on_c, 9, 56, 76
8, 38879, Note_on_c, 9, 56, 0
8, 39120, Note_on_c, 9, 56, 76
8, 39239, Note_on_c, 9, 56, 0
8, 39240, Note_on_c, 9, 56, 76
8, 39359, Note_on_c, 9, 56, 0
8, 39600, Note_on_c, 9, 56, 76
8, 39719, Note_on_c, 9, 56, 0
8, 39720, Note_on_c, 9, 56, 76
8, 39839, Note_on_c, 9, 56, 0
8, 40080, Note_on_c, 9, 56, 76
8, 40199, Note_on_c, 9, 56, 0
8, 40200, Note_on_c, 9, 56, 76
8, 40319, Note_on_c, 9, 56, 0
8, 40560, Note_on_c, 9, 56, 76
8, 40679, Note_on_c, 9, 56, 0
8, 40680, Note_on_c, 9, 56, 76
8, 40799, Note_on_c, 9, 56, 0
8, 41040, Note_on_c, 9, 56, 76
8, 41159, Note_on_c, 9, 56, 0
8, 41160, Note_on_c, 9, 56, 76
8, 41279, Note_on_c, 9, 56, 0
8, 41520, Note_on_c, 9, 56, 76
8, 41639, Note_on_c, 9, 56, 0
8, 41640, Note_on_c, 9, 56, 76
8, 41759, Note_on_c, 9, 56, 0
8, 42000, Note_on_c, 9, 56, 76
8, 42119, Note_on_c, 9, 56, 0
8, 42120, Note_on_c, 9, 56, 76
8, 42239, Note_on_c, 9, 56, 0
8, 42480, Note_on_c, 9, 56, 76
8, 42599, Note_on_c, 9, 56, 0
8, 42600, Note_on_c, 9, 56, 76
8, 42719, Note_on_c, 9, 56, 0
8, 42960, Note_on_c, 9, 56, 76
8, 43079, Note_on_c, 9, 56, 0
8, 43080, Note_on_c, 9, 56, 76
8, 43199, Note_on_c, 9, 56, 0
8, 43440, Note_on_c, 9, 56, 76
8, 43559, Note_on_c, 9, 56, 0
8, 43560, Note_on_c, 9, 56, 76
8, 43679, Note_on_c, 9, 56, 0
8, 43920, Note_on_c, 9, 56, 76
8, 44039, Note_on_c, 9, 56, 0
8, 44040, Note_on_c, 9, 56, 76
8, 44159, Note_on_c, 9, 56, 0
8, 44400, Note_on_c, 9, 56, 76
8, 44519, Note_on_c, 9, 56, 0
8, 44520, Note_on_c, 9, 56, 76
8, 44639, Note_on_c, 9, 56, 0
8, 44880, Note_on_c, 9, 56, 76
8, 44999, Note_on_c, 9, 56, 0
8, 45000, Note_on_c, 9, 56, 76
8, 45119, Note_on_c, 9, 56, 0
8, 45360, Note_on_c, 9, 56, 76
8, 45479, Note_on_c, 9, 56, 0
8, 45480, Note_on_c, 9, 56, 76
8, 45599, Note_on_c, 9, 56, 0
8, 45840, Note_on_c, 9, 56, 76
8, 45959, Note_on_c, 9, 56, 0
8, 45960, Note_on_c, 9, 56, 76
8, 46079, Note_on_c, 9, 56, 0
8, 46320, Note_on_c, 9, 56, 76
8, 46439, Note_on_c, 9, 56, 0
8, 46440, Note_on_c, 9, 56, 76
8, 46559, Note_on_c, 9, 56, 0
8, 46800, Note_on_c, 9, 56, 76
8, 46919, Note_on_c, 9, 56, 0
8, 46920, Note_on_c, 9, 56, 76
8, 47039, Note_on_c, 9, 56, 0
8, 47280, Note_on_c, 9, 56, 76
8, 47399, Note_on_c, 9, 56, 0
8, 47400, Note_on_c, 9, 56, 76
8, 47519, Note_on_c, 9, 56, 0
8, 47760, Note_on_c, 9, 56, 76
8, 47879, Note_on_c, 9, 56, 0
8, 47880, Note_on_c, 9, 56, 76
8, 47999, Note_on_c, 9, 56, 0
8, 48240, Note_on_c, 9, 56, 76
8, 48359, Note_on_c, 9, 56, 0
8, 48360, Note_on_c, 9, 56, 76
8, 48479, Note_on_c, 9, 56, 0
8, 48720, Note_on_c, 9, 56, 76
8, 48839, Note_on_c, 9, 56, 0
8, 48840, Note_on_c, 9, 56, 76
8, 48959, Note_on_c, 9, 56, 0
8, 49200, Note_on_c, 9, 56, 76
8, 49319, Note_on_c, 9, 56, 0
8, 49320, Note_on_c, 9, 56, 76
8, 49439, Note_on_c, 9, 56, 0
8, 49680, Note_on_c, 9, 56, 76
8, 49799, Note_on_c, 9, 56, 0
8, 49800, Note_on_c, 9, 56, 76
8, 49919, Note_on_c, 9, 56, 0
8, 50160, Note_on_c, 9, 56, 76
8, 50279, Note_on_c, 9, 56, 0
8, 50280, Note_on_c, 9, 56, 76
8, 50399, Note_on_c, 9, 56, 0
8, 50640, Note_on_c, 9, 56, 76
8, 50759, Note_on_c, 9, 56, 0
8, 50760, Note_on_c, 9, 56, 76
8, 50879, Note_on_c, 9, 56, 0
8, 51120, Note_on_c, 9, 56, 76
8, 51239, Note_on_c, 9, 56, 0
8, 51240, Note_on_c, 9, 56, 76
8, 51359, Note_on_c, 9, 56, 0
8, 51600, Note_on_c, 9, 56, 76
8, 51719, Note_on_c, 9, 56, 0
8, 51720, Note_on_c, 9, 56, 76
8, 51839, Note_on_c, 9, 56, 0
8, 52080, Note_on_c, 9, 56, 76
8, 52199, Note_on_c, 9, 56, 0
8, 52200, Note_on_c, 9, 56, 76
8, 52319, Note_on_c, 9, 56, 0
8, 52560, Note_on_c, 9, 56, 76
8, 52679, Note_on_c, 9, 56, 0
8, 52680, Note_on_c, 9, 56, 76
8, 52799, Note_on_c, 9, 56, 0
8, 53040, Note_on_c, 9, 56, 76
8, 53159, Note_on_c, 9, 56, 0
8, 53160, Note_on_c, 9, 56, 76
8, 53279, Note_on_c, 9, 56, 0
8, 53520, Note_on_c, 9, 56, 76
8, 53639, Note_on_c, 9, 56, 0
8, 53640, Note_on_c, 9, 56, 76
8, 53759, Note_on_c, 9, 56, 0
8, 54000, Note_on_c, 9, 56, 76
8, 54119, Note_on_c, 9, 56, 0
8, 54120, Note_on_c, 9, 56, 76
8, 54239, Note_on_c, 9, 56, 0
8, 54480, Note_on_c, 9, 56, 76
8, 54599, Note_on_c, 9, 56, 0
8, 54600, Note_on_c, 9, 56, 76
8, 54719, Note_on_c, 9, 56, 0
8, 54960, Note_on_c, 9, 56, 76
8, 55079, Note_on_c, 9, 56, 0
8, 55080, Note_on_c, 9, 56, 76
8, 55199, Note_on_c, 9, 56, 0
8, 55440, Note_on_c, 9, 56, 76
8, 55559, Note_on_c, 9, 56, 0
8, 55560, Note_on_c, 9, 56, 76
8, 55679, Note_on_c, 9, 56, 0
8, 55920, Note_on_c, 9, 56, 76
8, 56039, Note_on_c, 9, 56, 0
8, 56040, Note_on_c, 9, 56, 76
8, 56159, Note_on_c, 9, 56, 0
8, 56400, Note_on_c, 9, 56, 76
8, 56519, Note_on_c, 9, 56, 0
8, 56520, Note_on_c, 9, 56, 76
8, 56639, Note_on_c, 9, 56, 0
8, 56880, Note_on_c, 9, 56, 76
8, 56999, Note_on_c, 9, 56, 0
8, 57000, Note_on_c, 9, 56, 76
8, 57119, Note_on_c, 9, 56, 0
8, 57360, Note_on_c, 9, 56, 76
8, 57479, Note_on_c, 9, 56, 0
8, 57480, Note_on_c, 9, 56, 76
8, 57599, Note_on_c, 9, 56, 0
8, 57840, Note_on_c, 9, 56, 76
8, 57959, Note_on_c, 9, 56, 0
8, 57960, Note_on_c, 9, 56, 76
8, 58079, Note_on_c, 9, 56, 0
8, 58320, Note_on_c, 9, 56, 76
8, 58439, Note_on_c, 9, 56, 0
8, 58440, Note_on_c, 9, 56, 76
8, 58559, Note_on_c, 9, 56, 0
8, 58800, Note_on_c, 9, 56, 76
8, 58919, Note_on_c, 9, 56, 0
8, 58920, Note_on_c, 9, 56, 76
8, 59039, Note_on_c, 9, 56, 0
8, 59280, Note_on_c, 9, 56, 76
8, 59399, Note_on_c, 9, 56, 0
8, 59400, Note_on_c, 9, 56, 76
8, 59519, Note_on_c, 9, 56, 0
8, 59760, Note_on_c, 9, 56, 76
8, 59879, Note_on_c, 9, 56, 0
8, 59880, Note_on_c, 9, 56, 76
8, 59999, Note_on_c, 9, 56, 0
8, 60240, Note_on_c, 9, 56, 76
8, 60359, Note_on_c, 9, 56, 0
8, 60360, Note_on_c, 9, 56, 76
8, 60479, Note_on_c, 9, 56, 0
8, 60720, Note_on_c, 9, 56, 76
8, 60839, Note_on_c, 9, 56, 0
8, 60840, Note_on_c, 9, 56, 76
8, 60959, Note_on_c, 9, 56, 0
8, 61200, Note_on_c, 9, 56, 76
8, 61319, Note_on_c, 9, 56, 0
8, 61320, Note_on_c, 9, 56, 76
8, 61439, Note_on_c, 9, 56, 0
8, 61680, Note_on_c, 9, 56, 76
8, 61799, Note_on_c, 9, 56, 0
8, 61800, Note_on_c, 9, 56, 76
8, 61919, Note_on_c, 9, 56, 0
8, 62160, Note_on_c, 9, 56, 76
8, 62279, Note_on_c, 9, 56, 0
8, 62280, Note_on_c, 9, 56, 76
8, 62399, Note_on_c, 9, 56, 0
8, 62640, Note_on_c, 9, 56, 76
8, 62759, Note_on_c, 9, 56, 0
8, 62760, Note_on_c, 9, 56, 76
8, 62879, Note_on_c, 9, 56, 0
8, 63120, Note_on_c, 9, 56, 76
8, 63239, Note_on_c, 9, 56, 0
8, 63240, Note_on_c, 9, 56, 76
8, 63359, Note_on_c, 9, 56, 0
8, 63600, Note_on_c, 9, 56, 76
8, 63719, Note_on_c, 9, 56, 0
8, 63720, Note_on_c, 9, 56, 76
8, 63839, Note_on_c, 9, 56, 0
8, 64080, Note_on_c, 9, 56, 76
8, 64319, Note_on_c, 9, 56, 0
8, 64560, Note_on_c, 9, 56, 76
8, 64799, Note_on_c, 9, 56, 0
8, 65040, Note_on_c, 9, 56, 76
8, 65279, Note_on_c, 9, 56, 0
8, 65520, Note_on_c, 9, 56, 76
8, 65639, Note_on_c, 9, 56, 0
8, 65640, Note_on_c, 9, 56, 76
8, 65759, Note_on_c, 9, 56, 0
8, 66000, Note_on_c, 9, 56, 76
8, 66119, Note_on_c, 9, 56, 0
8, 66120, Note_on_c, 9, 56, 76
8, 66239, Note_on_c, 9, 56, 0
8, 66480, Note_on_c, 9, 56, 76
8, 66599, Note_on_c, 9, 56, 0
8, 66600, Note_on_c, 9, 56, 76
8, 66719, Note_on_c, 9, 56, 0
8, 66960, Note_on_c, 9, 56, 76
8, 67079, Note_on_c, 9, 56, 0
8, 67080, Note_on_c, 9, 56, 76
8, 67199, Note_on_c, 9, 56, 0
8, 67440, Note_on_c, 9, 56, 76
8, 67559, Note_on_c, 9, 56, 0
8, 67560, Note_on_c, 9, 56, 76
8, 67679, Note_on_c, 9, 56, 0
8, 67920, Note_on_c, 9, 56, 76
8, 68039, Note_on_c, 9, 56, 0
8, 68040, Note_on_c, 9, 56, 76
8, 68159, Note_on_c, 9, 56, 0
8, 68400, Note_on_c, 9, 56, 76
8, 68519, Note_on_c, 9, 56, 0
8, 68520, Note_on_c, 9, 56, 76
8, 68639, Note_on_c, 9, 56, 0
8, 68880, Note_on_c, 9, 56, 76
8, 68999, Note_on_c, 9, 56, 0
8, 69000, Note_on_c, 9, 56, 76
8, 69119, Note_on_c, 9, 56, 0
8, 69360, Note_on_c, 9, 56, 76
8, 69479, Note_on_c, 9, 56, 0
8, 69480, Note_on_c, 9, 56, 76
8, 69599, Note_on_c, 9, 56, 0
8, 69840, Note_on_c, 9, 56, 76
8, 69959, Note_on_c, 9, 56, 0
8, 69960, Note_on_c, 9, 56, 76
8, 70079, Note_on_c, 9, 56, 0
8, 70320, Note_on_c, 9, 56, 76
8, 70439, Note_on_c, 9, 56, 0
8, 70440, Note_on_c, 9, 56, 76
8, 70559, Note_on_c, 9, 56, 0
8, 70800, Note_on_c, 9, 56, 76
8, 70919, Note_on_c, 9, 56, 0
8, 70920, Note_on_c, 9, 56, 76
8, 71039, Note_on_c, 9, 56, 0
8, 71280, Note_on_c, 9, 56, 76
8, 71399, Note_on_c, 9, 56, 0
8, 71400, Note_on_c, 9, 56, 76
8, 71519, Note_on_c, 9, 56, 0
8, 71760, Note_on_c, 9, 56, 76
8, 71879, Note_on_c, 9, 56, 0
8, 71880, Note_on_c, 9, 56, 76
8, 71999, Note_on_c, 9, 56, 0
8, 72240, Note_on_c, 9, 56, 76
8, 72359, Note_on_c, 9, 56, 0
8, 72360, Note_on_c, 9, 56, 76
8, 72479, Note_on_c, 9, 56, 0
8, 72720, Note_on_c, 9, 56, 76
8, 72839, Note_on_c, 9, 56, 0
8, 72840, Note_on_c, 9, 56, 76
8, 72959, Note_on_c, 9, 56, 0
8, 73200, Note_on_c, 9, 56, 76
8, 73319, Note_on_c, 9, 56, 0
8, 73320, Note_on_c, 9, 56, 76
8, 73439, Note_on_c, 9, 56, 0
8, 73680, Note_on_c, 9, 56, 76
8, 73799, Note_on_c, 9, 56, 0
8, 73800, Note_on_c, 9, 56, 76
8, 73919, Note_on_c, 9, 56, 0
8, 74160, Note_on_c, 9, 56, 76
8, 74279, Note_on_c, 9, 56, 0
8, 74280, Note_on_c, 9, 56, 76
8, 74399, Note_on_c, 9, 56, 0
8, 74640, Note_on_c, 9, 56, 76
8, 74759, Note_on_c, 9, 56, 0
8, 74760, Note_on_c, 9, 56, 76
8, 74879, Note_on_c, 9, 56, 0
8, 75120, Note_on_c, 9, 56, 76
8, 75239, Note_on_c, 9, 56, 0
8, 75240, Note_on_c, 9, 56, 76
8, 75359, Note_on_c, 9, 56, 0
8, 75600, Note_on_c, 9, 56, 76
8, 75719, Note_on_c, 9, 56, 0
8, 75720, Note_on_c, 9, 56, 76
8, 75839, Note_on_c, 9, 56, 0
8, 76080, Note_on_c, 9, 56, 76
8, 76199, Note_on_c, 9, 56, 0
8, 76200, Note_on_c, 9, 56, 76
8, 76319, Note_on_c, 9, 56, 0
8, 76560, Note_on_c, 9, 56, 76
8, 76679, Note_on_c, 9, 56, 0
8, 76680, Note_on_c, 9, 56, 76
8, 76799, Note_on_c, 9, 56, 0
8, 77040, Note_on_c, 9, 56, 76
8, 77159, Note_on_c, 9, 56, 0
8, 77160, Note_on_c, 9, 56, 76
8, 77279, Note_on_c, 9, 56, 0
8, 77520, Note_on_c, 9, 56, 76
8, 77639, Note_on_c, 9, 56, 0
8, 77640, Note_on_c, 9, 56, 76
8, 77759, Note_on_c, 9, 56, 0
8, 78000, Note_on_c, 9, 56, 76
8, 78119, Note_on_c, 9, 56, 0
8, 78120, Note_on_c, 9, 56, 76
8, 78239, Note_on_c, 9, 56, 0
8, 78480, Note_on_c, 9, 56, 76
8, 78599, Note_on_c, 9, 56, 0
8, 78600, Note_on_c, 9, 56, 76
8, 78719, Note_on_c, 9, 56, 0
8, 78960, Note_on_c, 9, 56, 76
8, 79079, Note_on_c, 9, 56, 0
8, 79080, Note_on_c, 9, 56, 76
8, 79199, Note_on_c, 9, 56, 0
8, 79440, Note_on_c, 9, 56, 76
8, 79559, Note_on_c, 9, 56, 0
8, 79560, Note_on_c, 9, 56, 76
8, 79679, Note_on_c, 9, 56, 0
8, 79920, Note_on_c, 9, 56, 76
8, 80039, Note_on_c, 9, 56, 0
8, 80040, Note_on_c, 9, 56, 76
8, 80159, Note_on_c, 9, 56, 0
8, 80400, Note_on_c, 9, 56, 76
8, 80519, Note_on_c, 9, 56, 0
8, 80520, Note_on_c, 9, 56, 76
8, 80639, Note_on_c, 9, 56, 0
8, 80880, Note_on_c, 9, 56, 76
8, 80999, Note_on_c, 9, 56, 0
8, 81000, Note_on_c, 9, 56, 76
8, 81119, Note_on_c, 9, 56, 0
8, 81360, Note_on_c, 9, 56, 76
8, 81479, Note_on_c, 9, 56, 0
8, 81480, Note_on_c, 9, 56, 76
8, 81599, Note_on_c, 9, 56, 0
8, 81840, Note_on_c, 9, 56, 76
8, 81959, Note_on_c, 9, 56, 0
8, 81960, Note_on_c, 9, 56, 76
8, 82079, Note_on_c, 9, 56, 0
8, 82320, Note_on_c, 9, 56, 76
8, 82439, Note_on_c, 9, 56, 0
8, 82440, Note_on_c, 9, 56, 76
8, 82559, Note_on_c, 9, 56, 0
8, 82800, Note_on_c, 9, 56, 76
8, 82919, Note_on_c, 9, 56, 0
8, 82920, Note_on_c, 9, 56, 76
8, 83039, Note_on_c, 9, 56, 0
8, 83280, Note_on_c, 9, 56, 76
8, 83399, Note_on_c, 9, 56, 0
8, 83400, Note_on_c, 9, 56, 76
8, 83519, Note_on_c, 9, 56, 0
8, 83760, Note_on_c, 9, 56, 76
8, 83879, Note_on_c, 9, 56, 0
8, 83880, Note_on_c, 9, 56, 76
8, 83999, Note_on_c, 9, 56, 0
8, 84240, Note_on_c, 9, 56, 76
8, 84359, Note_on_c, 9, 56, 0
8, 84360, Note_on_c, 9, 56, 76
8, 84479, Note_on_c, 9, 56, 0
8, 84720, Note_on_c, 9, 56, 76
8, 84839, Note_on_c, 9, 56, 0
8, 84840, Note_on_c, 9, 56, 76
8, 84959, Note_on_c, 9, 56, 0
8, 85200, Note_on_c, 9, 56, 76
8, 85319, Note_on_c, 9, 56, 0
8, 85320, Note_on_c, 9, 56, 76
8, 85439, Note_on_c, 9, 56, 0
8, 85680, Note_on_c, 9, 56, 76
8, 85799, Note_on_c, 9, 56, 0
8, 85800, Note_on_c, 9, 56, 76
8, 85919, Note_on_c, 9, 56, 0
8, 86160, Note_on_c, 9, 56, 76
8, 86279, Note_on_c, 9, 56, 0
8, 86280, Note_on_c, 9, 56, 76
8, 86399, Note_on_c, 9, 56, 0
8, 86640, Note_on_c, 9, 56, 76
8, 86759, Note_on_c, 9, 56, 0
8, 86760, Note_on_c, 9, 56, 76
8, 86879, Note_on_c, 9, 56, 0
8, 87120, Note_on_c, 9, 56, 76
8, 87239, Note_on_c, 9, 56, 0
8, 87240, Note_on_c, 9, 56, 76
8, 87359, Note_on_c, 9, 56, 0
8, 87600, Note_on_c, 9, 56, 76
8, 87719, Note_on_c, 9, 56, 0
8, 87720, Note_on_c, 9, 56, 76
8, 87839, Note_on_c, 9, 56, 0
8, 88080, Note_on_c, 9, 56, 76
8, 88199, Note_on_c, 9, 56, 0
8, 88200, Note_on_c, 9, 56, 76
8, 88319, Note_on_c, 9, 56, 0
8, 88560, Note_on_c, 9, 56, 76
8, 88679, Note_on_c, 9, 56, 0
8, 88680, Note_on_c, 9, 56, 76
8, 88799, Note_on_c, 9, 56, 0
8, 89040, Note_on_c, 9, 56, 76
8, 89159, Note_on_c, 9, 56, 0
8, 89160, Note_on_c, 9, 56, 76
8, 89279, Note_on_c, 9, 56, 0
8, 89520, Note_on_c, 9, 56, 76
8, 89639, Note_on_c, 9, 56, 0
8, 89640, Note_on_c, 9, 56, 76
8, 89759, Note_on_c, 9, 56, 0
8, 90000, Note_on_c, 9, 56, 76
8, 90119, Note_on_c, 9, 56, 0
8, 90120, Note_on_c, 9, 56, 76
8, 90239, Note_on_c, 9, 56, 0
8, 90480, Note_on_c, 9, 56, 76
8, 90599, Note_on_c, 9, 56, 0
8, 90600, Note_on_c, 9, 56, 76
8, 90719, Note_on_c, 9, 56, 0
8, 90960, Note_on_c, 9, 56, 76
8, 91079, Note_on_c, 9, 56, 0
8, 91080, Note_on_c, 9, 56, 76
8, 91199, Note_on_c, 9, 56, 0
8, 91440, Note_on_c, 9, 56, 76
8, 91559, Note_on_c, 9, 56, 0
8, 91560, Note_on_c, 9, 56, 76
8, 91679, Note_on_c, 9, 56, 0
8, 91920, Note_on_c, 9, 56, 76
8, 92039, Note_on_c, 9, 56, 0
8, 92040, Note_on_c, 9, 56, 76
8, 92159, Note_on_c, 9, 56, 0
8, 92400, Note_on_c, 9, 56, 76
8, 92519, Note_on_c, 9, 56, 0
8, 92520, Note_on_c, 9, 56, 76
8, 92639, Note_on_c, 9, 56, 0
8, 92880, Note_on_c, 9, 56, 76
8, 92999, Note_on_c, 9, 56, 0
8, 93000, Note_on_c, 9, 56, 76
8, 93119, Note_on_c, 9, 56, 0
8, 93360, Note_on_c, 9, 56, 76
8, 93479, Note_on_c, 9, 56, 0
8, 93480, Note_on_c, 9, 56, 76
8, 93599, Note_on_c, 9, 56, 0
8, 93840, Note_on_c, 9, 56, 76
8, 93959, Note_on_c, 9, 56, 0
8, 93960, Note_on_c, 9, 56, 76
8, 94079, Note_on_c, 9, 56, 0
8, 94320, Note_on_c, 9, 56, 76
8, 94439, Note_on_c, 9, 56, 0
8, 94440, Note_on_c, 9, 56, 76
8, 94559, Note_on_c, 9, 56, 0
8, 94800, Note_on_c, 9, 56, 76
8, 94919, Note_on_c, 9, 56, 0
8, 94920, Note_on_c, 9, 56, 76
8, 95039, Note_on_c, 9, 56, 0
8, 95280, Note_on_c, 9, 56, 76
8, 95399, Note_on_c, 9, 56, 0
8, 95400, Note_on_c, 9, 56, 76
8, 95519, Note_on_c, 9, 56, 0
8, 95760, Note_on_c, 9, 56, 76
8, 95879, Note_on_c, 9, 56, 0
8, 95880, Note_on_c, 9, 56, 76
8, 95999, Note_on_c, 9, 56, 0
8, 96240, Note_on_c, 9, 56, 76
8, 96359, Note_on_c, 9, 56, 0
8, 96360, Note_on_c, 9, 56, 76
8, 96479, Note_on_c, 9, 56, 0
8, 96720, Note_on_c, 9, 56, 76
8, 96839, Note_on_c, 9, 56, 0
8, 96840, Note_on_c, 9, 56, 76
8, 96959, Note_on_c, 9, 56, 0
8, 97200, Note_on_c, 9, 56, 76
8, 97319, Note_on_c, 9, 56, 0
8, 97320, Note_on_c, 9, 56, 76
8, 97439, Note_on_c, 9, 56, 0
8, 97680, Note_on_c, 9, 56, 76
8, 97799, Note_on_c, 9, 56, 0
8, 97800, Note_on_c, 9, 56, 76
8, 97919, Note_on_c, 9, 56, 0
8, 98160, Note_on_c, 9, 56, 76
8, 98279, Note_on_c, 9, 56, 0
8, 98280, Note_on_c, 9, 56, 76
8, 98399, Note_on_c, 9, 56, 0
8, 98640, Note_on_c, 9, 56, 76
8, 98759, Note_on_c, 9, 56, 0
8, 98760, Note_on_c, 9, 56, 76
8, 98879, Note_on_c, 9, 56, 0
8, 99120, Note_on_c, 9, 56, 76
8, 99239, Note_on_c, 9, 56, 0
8, 99240, Note_on_c, 9, 56, 76
8, 99359, Note_on_c, 9, 56, 0
8, 99600, Note_on_c, 9, 56, 76
8, 99719, Note_on_c, 9, 56, 0
8, 99720, Note_on_c, 9, 56, 76
8, 99839, Note_on_c, 9, 56, 0
8, 100080, Note_on_c, 9, 56, 76
8, 100199, Note_on_c, 9, 56, 0
8, 100200, Note_on_c, 9, 56, 76
8, 100319, Note_on_c, 9, 56, 0
8, 100560, Note_on_c, 9, 56, 76
8, 100679, Note_on_c, 9, 56, 0
8, 100680, Note_on_c, 9, 56, 76
8, 100799, Note_on_c, 9, 56, 0
8, 101040, Note_on_c, 9, 56, 76
8, 101159, Note_on_c, 9, 56, 0
8, 101160, Note_on_c, 9, 56, 76
8, 101279, Note_on_c, 9, 56, 0
8, 101520, Note_on_c, 9, 56, 76
8, 101639, Note_on_c, 9, 56, 0
8, 101640, Note_on_c, 9, 56, 76
8, 101759, Note_on_c, 9, 56, 0
8, 102000, Note_on_c, 9, 56, 76
8, 102119, Note_on_c, 9, 56, 0
8, 102120, Note_on_c, 9, 56, 76
8, 102239, Note_on_c, 9, 56, 0
8, 102480, Note_on_c, 9, 56, 76
8, 102599, Note_on_c, 9, 56, 0
8, 102600, Note_on_c, 9, 56, 76
8, 102719, Note_on_c, 9, 56, 0
8, 102960, Note_on_c, 9, 56, 76
8, 103079, Note_on_c, 9, 56, 0
8, 103080, Note_on_c, 9, 56, 76
8, 103199, Note_on_c, 9, 56, 0
8, 103440, Note_on_c, 9, 56, 76
8, 103559, Note_on_c, 9, 56, 0
8, 103560, Note_on_c, 9, 56, 76
8, 103679, Note_on_c, 9, 56, 0
8, 103920, Note_on_c, 9, 56, 76
8, 104039, Note_on_c, 9, 56, 0
8, 104040, Note_on_c, 9, 56, 76
8, 104159, Note_on_c, 9, 56, 0
8, 104400, Note_on_c, 9, 56, 76
8, 104519, Note_on_c, 9, 56, 0
8, 104520, Note_on_c, 9, 56, 76
8, 104639, Note_on_c, 9, 56, 0
8, 104880, Note_on_c, 9, 56, 76
8, 104999, Note_on_c, 9, 56, 0
8, 105000, Note_on_c, 9, 56, 76
8, 105119, Note_on_c, 9, 56, 0
8, 105360, Note_on_c, 9, 56, 76
8, 105479, Note_on_c, 9, 56, 0
8, 105480, Note_on_c, 9, 56, 76
8, 105599, Note_on_c, 9, 56, 0
8, 105840, Note_on_c, 9, 56, 76
8, 105959, Note_on_c, 9, 56, 0
8, 105960, Note_on_c, 9, 56, 76
8, 106079, Note_on_c, 9, 56, 0
8, 106320, Note_on_c, 9, 56, 76
8, 106439, Note_on_c, 9, 56, 0
8, 106440, Note_on_c, 9, 56, 76
8, 106559, Note_on_c, 9, 56, 0
8, 106800, Note_on_c, 9, 56, 76
8, 106919, Note_on_c, 9, 56, 0
8, 106920, Note_on_c, 9, 56, 76
8, 107039, Note_on_c, 9, 56, 0
8, 107280, Note_on_c, 9, 56, 76
8, 107399, Note_on_c, 9, 56, 0
8, 107400, Note_on_c, 9, 56, 76
8, 107519, Note_on_c, 9, 56, 0
8, 107760, Note_on_c, 9, 56, 76
8, 107879, Note_on_c, 9, 56, 0
8, 107880, Note_on_c, 9, 56, 76
8, 107999, Note_on_c, 9, 56, 0
8, 108240, Note_on_c, 9, 56, 76
8, 108359, Note_on_c, 9, 56, 0
8, 108360, Note_on_c, 9, 56, 76
8, 108479, Note_on_c, 9, 56, 0
8, 108720, Note_on_c, 9, 56, 76
8, 108839, Note_on_c, 9, 56, 0
8, 108840, Note_on_c, 9, 56, 76
8, 108959, Note_on_c, 9, 56, 0
8, 109200, Note_on_c, 9, 56, 76
8, 109319, Note_on_c, 9, 56, 0
8, 109320, Note_on_c, 9, 56, 76
8, 109439, Note_on_c, 9, 56, 0
8, 109680, Note_on_c, 9, 56, 76
8, 109799, Note_on_c, 9, 56, 0
8, 109800, Note_on_c, 9, 56, 76
8, 109919, Note_on_c, 9, 56, 0
8, 110160, Note_on_c, 9, 56, 76
8, 110279, Note_on_c, 9, 56, 0
8, 110280, Note_on_c, 9, 56, 76
8, 110399, Note_on_c, 9, 56, 0
8, 110640, Note_on_c, 9, 56, 76
8, 110759, Note_on_c, 9, 56, 0
8, 110760, Note_on_c, 9, 56, 76
8, 110879, Note_on_c, 9, 56, 0
8, 111120, Note_on_c, 9, 56, 76
8, 111239, Note_on_c, 9, 56, 0
8, 111240, Note_on_c, 9, 56, 76
8, 111359, Note_on_c, 9, 56, 0
8, 111600, Note_on_c, 9, 56, 76
8, 111719, Note_on_c, 9, 56, 0
8, 111720, Note_on_c, 9, 56, 76
8, 111839, Note_on_c, 9, 56, 0
8, 112080, Note_on_c, 9, 56, 76
8, 112199, Note_on_c, 9, 56, 0
8, 112200, Note_on_c, 9, 56, 76
8, 112319, Note_on_c, 9, 56, 0
8, 112560, Note_on_c, 9, 56, 76
8, 112679, Note_on_c, 9, 56, 0
8, 112680, Note_on_c, 9, 56, 76
8, 112799, Note_on_c, 9, 56, 0
8, 113040, Note_on_c, 9, 56, 76
8, 113159, Note_on_c, 9, 56, 0
8, 113160, Note_on_c, 9, 56, 76
8, 113279, Note_on_c, 9, 56, 0
8, 113520, Note_on_c, 9, 56, 76
8, 113639, Note_on_c, 9, 56, 0
8, 113640, Note_on_c, 9, 56, 76
8, 113759, Note_on_c, 9, 56, 0
8, 114000, Note_on_c, 9, 56, 76
8, 114119, Note_on_c, 9, 56, 0
8, 114120, Note_on_c, 9, 56, 76
8, 114239, Note_on_c, 9, 56, 0
8, 114480, Note_on_c, 9, 56, 76
8, 114599, Note_on_c, 9, 56, 0
8, 114600, Note_on_c, 9, 56, 76
8, 114719, Note_on_c, 9, 56, 0
8, 114960, Note_on_c, 9, 56, 76
8, 115079, Note_on_c, 9, 56, 0
8, 115080, Note_on_c, 9, 56, 76
8, 115199, Note_on_c, 9, 56, 0
8, 115440, Note_on_c, 9, 56, 76
8, 115559, Note_on_c, 9, 56, 0
8, 115560, Note_on_c, 9, 56, 76
8, 115679, Note_on_c, 9, 56, 0
8, 115920, Note_on_c, 9, 56, 76
8, 116039, Note_on_c, 9, 56, 0
8, 116040, Note_on_c, 9, 56, 76
8, 116159, Note_on_c, 9, 56, 0
8, 116400, Note_on_c, 9, 56, 76
8, 116519, Note_on_c, 9, 56, 0
8, 116520, Note_on_c, 9, 56, 76
8, 116639, Note_on_c, 9, 56, 0
8, 116880, Note_on_c, 9, 56, 76
8, 116999, Note_on_c, 9, 56, 0
8, 117000, Note_on_c, 9, 56, 76
8, 117119, Note_on_c, 9, 56, 0
8, 117360, Note_on_c, 9, 56, 76
8, 117479, Note_on_c, 9, 56, 0
8, 117480, Note_on_c, 9, 56, 76
8, 117599, Note_on_c, 9, 56, 0
8, 117840, Note_on_c, 9, 56, 76
8, 117959, Note_on_c, 9, 56, 0
8, 117960, Note_on_c, 9, 56, 76
8, 118079, Note_on_c, 9, 56, 0
8, 118320, Note_on_c, 9, 56, 76
8, 118439, Note_on_c, 9, 56, 0
8, 118440, Note_on_c, 9, 56, 76
8, 118559, Note_on_c, 9, 56, 0
8, 118800, Note_on_c, 9, 56, 76
8, 118919, Note_on_c, 9, 56, 0
8, 118920, Note_on_c, 9, 56, 76
8, 119039, Note_on_c, 9, 56, 0
8, 119280, Note_on_c, 9, 56, 76
8, 119399, Note_on_c, 9, 56, 0
8, 119400, Note_on_c, 9, 56, 76
8, 119519, Note_on_c, 9, 56, 0
8, 119760, Note_on_c, 9, 56, 76
8, 119879, Note_on_c, 9, 56, 0
8, 119880, Note_on_c, 9, 56, 76
8, 119999, Note_on_c, 9, 56, 0
8, 120240, Note_on_c, 9, 56, 76
8, 120359, Note_on_c, 9, 56, 0
8, 120360, Note_on_c, 9, 56, 76
8, 120479, Note_on_c, 9, 56, 0
8, 120720, Note_on_c, 9, 56, 76
8, 120839, Note_on_c, 9, 56, 0
8, 120840, Note_on_c, 9, 56, 76
8, 120959, Note_on_c, 9, 56, 0
8, 121200, Note_on_c, 9, 56, 76
8, 121319, Note_on_c, 9, 56, 0
8, 121320, Note_on_c, 9, 56, 76
8, 121439, Note_on_c, 9, 56, 0
8, 121680, Note_on_c, 9, 56, 76
8, 121799, Note_on_c, 9, 56, 0
8, 121800, Note_on_c, 9, 56, 76
8, 121919, Note_on_c, 9, 56, 0
8, 122160, Note_on_c, 9, 56, 76
8, 122279, Note_on_c, 9, 56, 0
8, 122280, Note_on_c, 9, 56, 76
8, 122399, Note_on_c, 9, 56, 0
8, 122640, Note_on_c, 9, 56, 76
8, 122759, Note_on_c, 9, 56, 0
8, 122760, Note_on_c, 9, 56, 76
8, 122879, Note_on_c, 9, 56, 0
8, 123120, Note_on_c, 9, 56, 76
8, 123239, Note_on_c, 9, 56, 0
8, 123240, Note_on_c, 9, 56, 76
8, 123359, Note_on_c, 9, 56, 0
8, 123600, Note_on_c, 9, 56, 76
8, 123719, Note_on_c, 9, 56, 0
8, 123720, Note_on_c, 9, 56, 76
8, 123839, Note_on_c, 9, 56, 0
8, 124080, Note_on_c, 9, 56, 76
8, 124199, Note_on_c, 9, 56, 0
8, 124200, Note_on_c, 9, 56, 76
8, 124319, Note_on_c, 9, 56, 0
8, 124560, Note_on_c, 9, 56, 76
8, 124679, Note_on_c, 9, 56, 0
8, 124680, Note_on_c, 9, 56, 76
8, 124799, Note_on_c, 9, 56, 0
8, 125040, Note_on_c, 9, 56, 76
8, 125159, Note_on_c, 9, 56, 0
8, 125160, Note_on_c, 9, 56, 76
8, 125279, Note_on_c, 9, 56, 0
8, 125520, Note_on_c, 9, 56, 76
8, 125639, Note_on_c, 9, 56, 0
8, 125640, Note_on_c, 9, 56, 76
8, 125759, Note_on_c, 9, 56, 0
8, 126000, Note_on_c, 9, 56, 76
8, 126119, Note_on_c, 9, 56, 0
8, 126120, Note_on_c, 9, 56, 76
8, 126239, Note_on_c, 9, 56, 0
8, 126480, Note_on_c, 9, 56, 76
8, 126599, Note_on_c, 9, 56, 0
8, 126600, Note_on_c, 9, 56, 76
8, 126719, Note_on_c, 9, 56, 0
8, 126960, Note_on_c, 9, 56, 76
8, 127079, Note_on_c, 9, 56, 0
8, 127080, Note_on_c, 9, 56, 76
8, 127199, Note_on_c, 9, 56, 0
8, 127440, Note_on_c, 9, 56, 76
8, 127559, Note_on_c, 9, 56, 0
8, 127560, Note_on_c, 9, 56, 76
8, 127679, Note_on_c, 9, 56, 0
8, 127920, Note_on_c, 9, 56, 76
8, 128039, Note_on_c, 9, 56, 0
8, 128040, Note_on_c, 9, 56, 76
8, 128159, Note_on_c, 9, 56, 0
8, 128400, Note_on_c, 9, 56, 76
8, 128519, Note_on_c, 9, 56, 0
8, 128520, Note_on_c, 9, 56, 76
8, 128639, Note_on_c, 9, 56, 0
8, 128880, Note_on_c, 9, 56, 76
8, 128999, Note_on_c, 9, 56, 0
8, 129000, Note_on_c, 9, 56, 76
8, 129119, Note_on_c, 9, 56, 0
8, 129360, Note_on_c, 9, 56, 76
8, 129479, Note_on_c, 9, 56, 0
8, 129480, Note_on_c, 9, 56, 76
8, 129599, Note_on_c, 9, 56, 0
8, 129840, Note_on_c, 9, 56, 76
8, 129959, Note_on_c, 9, 56, 0
8, 129960, Note_on_c, 9, 56, 76
8, 130079, Note_on_c, 9, 56, 0
8, 130320, Note_on_c, 9, 56, 76
8, 130439, Note_on_c, 9, 56, 0
8, 130440, Note_on_c, 9, 56, 76
8, 130559, Note_on_c, 9, 56, 0
8, 130800, Note_on_c, 9, 56, 76
8, 130919, Note_on_c, 9, 56, 0
8, 130920, Note_on_c, 9, 56, 76
8, 131039, Note_on_c, 9, 56, 0
8, 131280, Note_on_c, 9, 56, 76
8, 131519, Note_on_c, 9, 56, 0
8, 131760, Note_on_c, 9, 56, 76
8, 131999, Note_on_c, 9, 56, 0
8, 132240, Note_on_c, 9, 56, 76
8, 132479, Note_on_c, 9, 56, 0
8, 132720, Note_on_c, 9, 56, 76
8, 132839, Note_on_c, 9, 56, 0
8, 132840, Note_on_c, 9, 56, 76
8, 132959, Note_on_c, 9, 56, 0
8, 133200, Note_on_c, 9, 56, 76
8, 133319, Note_on_c, 9, 56, 0
8, 133320, Note_on_c, 9, 56, 76
8, 133439, Note_on_c, 9, 56, 0
8, 133680, Note_on_c, 9, 56, 76
8, 133799, Note_on_c, 9, 56, 0
8, 133800, Note_on_c, 9, 56, 76
8, 133919, Note_on_c, 9, 56, 0
8, 134160, Note_on_c, 9, 56, 76
8, 134279, Note_on_c, 9, 56, 0
8, 134280, Note_on_c, 9, 56, 76
8, 134399, Note_on_c, 9, 56, 0
8, 134640, Note_on_c, 9, 56, 76
8, 134759, Note_on_c, 9, 56, 0
8, 134760, Note_on_c, 9, 56, 76
8, 134879, Note_on_c, 9, 56, 0
8, 135120, Note_on_c, 9, 56, 76
8, 135239, Note_on_c, 9, 56, 0
8, 135240, Note_on_c, 9, 56, 76
8, 135359, Note_on_c, 9, 56, 0
8, 135600, Note_on_c, 9, 56, 76
8, 135719, Note_on_c, 9, 56, 0
8, 135720, Note_on_c, 9, 56, 76
8, 135839, Note_on_c, 9, 56, 0
8, 136080, Note_on_c, 9, 56, 76
8, 136199, Note_on_c, 9, 56, 0
8, 136200, Note_on_c, 9, 56, 76
8, 136319, Note_on_c, 9, 56, 0
8, 136560, Note_on_c, 9, 56, 76
8, 136679, Note_on_c, 9, 56, 0
8, 136680, Note_on_c, 9, 56, 76
8, 136799, Note_on_c, 9, 56, 0
8, 137040, Note_on_c, 9, 56, 76
8, 137159, Note_on_c, 9, 56, 0
8, 137160, Note_on_c, 9, 56, 76
8, 137279, Note_on_c, 9, 56, 0
8, 137520, Note_on_c, 9, 56, 76
8, 137639, Note_on_c, 9, 56, 0
8, 137640, Note_on_c, 9, 56, 76
8, 137759, Note_on_c, 9, 56, 0
8, 138000, Note_on_c, 9, 56, 76
8, 138119, Note_on_c, 9, 56, 0
8, 138120, Note_on_c, 9, 56, 76
8, 138239, Note_on_c, 9, 56, 0
8, 138480, Note_on_c, 9, 56, 76
8, 138599, Note_on_c, 9, 56, 0
8, 138600, Note_on_c, 9, 56, 76
8, 138719, Note_on_c, 9, 56, 0
8, 138960, Note_on_c, 9, 56, 76
8, 139079, Note_on_c, 9, 56, 0
8, 139080, Note_on_c, 9, 56, 76
8, 139199, Note_on_c, 9, 56, 0
8, 139440, Note_on_c, 9, 56, 76
8, 139559, Note_on_c, 9, 56, 0
8, 139560, Note_on_c, 9, 56, 76
8, 139679, Note_on_c, 9, 56, 0
8, 139920, Note_on_c, 9, 56, 76
8, 140039, Note_on_c, 9, 56, 0
8, 140040, Note_on_c, 9, 56, 76
8, 140159, Note_on_c, 9, 56, 0
8, 140400, Note_on_c, 9, 56, 76
8, 140519, Note_on_c, 9, 56, 0
8, 140520, Note_on_c, 9, 56, 76
8, 140639, Note_on_c, 9, 56, 0
8, 140880, Note_on_c, 9, 56, 76
8, 140999, Note_on_c, 9, 56, 0
8, 141000, Note_on_c, 9, 56, 76
8, 141119, Note_on_c, 9, 56, 0
8, 141360, Note_on_c, 9, 56, 76
8, 141479, Note_on_c, 9, 56, 0
8, 141480, Note_on_c, 9, 56, 76
8, 141599, Note_on_c, 9, 56, 0
8, 141840, Note_on_c, 9, 56, 76
8, 141959, Note_on_c, 9, 56, 0
8, 141960, Note_on_c, 9, 56, 76
8, 142079, Note_on_c, 9, 56, 0
8, 142320, Note_on_c, 9, 56, 76
8, 142439, Note_on_c, 9, 56, 0
8, 142440, Note_on_c, 9, 56, 76
8, 142559, Note_on_c, 9, 56, 0
8, 142800, Note_on_c, 9, 56, 76
8, 142919, Note_on_c, 9, 56, 0
8, 142920, Note_on_c, 9, 56, 76
8, 143039, Note_on_c, 9, 56, 0
8, 143280, Note_on_c, 9, 56, 76
8, 143399, Note_on_c, 9, 56, 0
8, 143400, Note_on_c, 9, 56, 76
8, 143519, Note_on_c, 9, 56, 0
8, 143760, Note_on_c, 9, 56, 76
8, 143879, Note_on_c, 9, 56, 0
8, 143880, Note_on_c, 9, 56, 76
8, 143999, Note_on_c, 9, 56, 0
8, 144240, Note_on_c, 9, 56, 76
8, 144359, Note_on_c, 9, 56, 0
8, 144360, Note_on_c, 9, 56, 76
8, 144479, Note_on_c, 9, 56, 0
8, 144720, Note_on_c, 9, 56, 76
8, 144839, Note_on_c, 9, 56, 0
8, 144840, Note_on_c, 9, 56, 76
8, 144959, Note_on_c, 9, 56, 0
8, 145200, Note_on_c, 9, 56, 76
8, 145319, Note_on_c, 9, 56, 0
8, 145320, Note_on_c, 9, 56, 76
8, 145439, Note_on_c, 9, 56, 0
8, 145680, Note_on_c, 9, 56, 76
8, 145799, Note_on_c, 9, 56, 0
8, 145800, Note_on_c, 9, 56, 76
8, 145919, Note_on_c, 9, 56, 0
8, 146160, Note_on_c, 9, 56, 76
8, 146279, Note_on_c, 9, 56, 0
8, 146280, Note_on_c, 9, 56, 76
8, 146399, Note_on_c, 9, 56, 0
8, 146640, Note_on_c, 9, 56, 76
8, 146759, Note_on_c, 9, 56, 0
8, 146760, Note_on_c, 9, 56, 76
8, 146879, Note_on_c, 9, 56, 0
8, 147120, Note_on_c, 9, 56, 76
8, 147239, Note_on_c, 9, 56, 0
8, 147240, Note_on_c, 9, 56, 76
8, 147359, Note_on_c, 9, 56, 0
8, 147600, Note_on_c, 9, 56, 76
8, 147719, Note_on_c, 9, 56, 0
8, 147720, Note_on_c, 9, 56, 76
8, 147839, Note_on_c, 9, 56, 0
8, 148080, Note_on_c, 9, 56, 76
8, 148199, Note_on_c, 9, 56, 0
8, 148200, Note_on_c, 9, 56, 76
8, 148319, Note_on_c, 9, 56, 0
8, 148560, Note_on_c, 9, 56, 76
8, 148679, Note_on_c, 9, 56, 0
8, 148680, Note_on_c, 9, 56, 76
8, 148799, Note_on_c, 9, 56, 0
8, 149040, Note_on_c, 9, 56, 76
8, 149159, Note_on_c, 9, 56, 0
8, 149160, Note_on_c, 9, 56, 76
8, 149279, Note_on_c, 9, 56, 0
8, 149520, Note_on_c, 9, 56, 76
8, 149639, Note_on_c, 9, 56, 0
8, 149640, Note_on_c, 9, 56, 76
8, 149759, Note_on_c, 9, 56, 0
8, 150000, Note_on_c, 9, 56, 76
8, 150119, Note_on_c, 9, 56, 0
8, 150120, Note_on_c, 9, 56, 76
8, 150239, Note_on_c, 9, 56, 0
8, 150480, Note_on_c, 9, 56, 76
8, 150599, Note_on_c, 9, 56, 0
8, 150600, Note_on_c, 9, 56, 76
8, 150719, Note_on_c, 9, 56, 0
8, 150960, Note_on_c, 9, 56, 76
8, 151079, Note_on_c, 9, 56, 0
8, 151080, Note_on_c, 9, 56, 76
8, 151199, Note_on_c, 9, 56, 0
8, 151440, Note_on_c, 9, 56, 76
8, 151559, Note_on_c, 9, 56, 0
8, 151560, Note_on_c, 9, 56, 76
8, 151679, Note_on_c, 9, 56, 0
8, 151920, Note_on_c, 9, 56, 76
8, 152039, Note_on_c, 9, 56, 0
8, 152040, Note_on_c, 9, 56, 76
8, 152159, Note_on_c, 9, 56, 0
8, 152400, Note_on_c, 9, 56, 76
8, 152519, Note_on_c, 9, 56, 0
8, 152520, Note_on_c, 9, 56, 76
8, 152639, Note_on_c, 9, 56, 0
8, 152880, Note_on_c, 9, 56, 76
8, 152999, Note_on_c, 9, 56, 0
8, 153000, Note_on_c, 9, 56, 76
8, 153119, Note_on_c, 9, 56, 0
8, 153360, Note_on_c, 9, 56, 76
8, 153479, Note_on_c, 9, 56, 0
8, 153480, Note_on_c, 9, 56, 76
8, 153599, Note_on_c, 9, 56, 0
8, 153840, Note_on_c, 9, 56, 76
8, 153959, Note_on_c, 9, 56, 0
8, 153960, Note_on_c, 9, 56, 76
8, 154079, Note_on_c, 9, 56, 0
8, 154320, Note_on_c, 9, 56, 76
8, 154439, Note_on_c, 9, 56, 0
8, 154440, Note_on_c, 9, 56, 76
8, 154559, Note_on_c, 9, 56, 0
8, 154800, Note_on_c, 9, 56, 76
8, 154919, Note_on_c, 9, 56, 0
8, 154920, Note_on_c, 9, 56, 76
8, 155039, Note_on_c, 9, 56, 0
8, 155280, Note_on_c, 9, 56, 76
8, 155399, Note_on_c, 9, 56, 0
8, 155400, Note_on_c, 9, 56, 76
8, 155519, Note_on_c, 9, 56, 0
8, 155760, Note_on_c, 9, 56, 76
8, 155879, Note_on_c, 9, 56, 0
8, 155880, Note_on_c, 9, 56, 76
8, 155999, Note_on_c, 9, 56, 0
8, 156240, Note_on_c, 9, 56, 76
8, 156359, Note_on_c, 9, 56, 0
8, 156360, Note_on_c, 9, 56, 76
8, 156479, Note_on_c, 9, 56, 0
8, 156720, Note_on_c, 9, 56, 76
8, 156839, Note_on_c, 9, 56, 0
8, 156840, Note_on_c, 9, 56, 76
8, 156959, Note_on_c, 9, 56, 0
8, 157200, Note_on_c, 9, 56, 76
8, 157319, Note_on_c, 9, 56, 0
8, 157320, Note_on_c, 9, 56, 76
8, 157439, Note_on_c, 9, 56, 0
8, 157680, Note_on_c, 9, 56, 76
8, 157799, Note_on_c, 9, 56, 0
8, 157800, Note_on_c, 9, 56, 76
8, 157919, Note_on_c, 9, 56, 0
8, 158160, Note_on_c, 9, 56, 76
8, 158279, Note_on_c, 9, 56, 0
8, 158280, Note_on_c, 9, 56, 76
8, 158399, Note_on_c, 9, 56, 0
8, 158640, Note_on_c, 9, 56, 76
8, 158759, Note_on_c, 9, 56, 0
8, 158760, Note_on_c, 9, 56, 76
8, 158879, Note_on_c, 9, 56, 0
8, 159120, Note_on_c, 9, 56, 76
8, 159239, Note_on_c, 9, 56, 0
8, 159240, Note_on_c, 9, 56, 76
8, 159359, Note_on_c, 9, 56, 0
8, 159600, Note_on_c, 9, 56, 76
8, 159719, Note_on_c, 9, 56, 0
8, 159720, Note_on_c, 9, 56, 76
8, 159839, Note_on_c, 9, 56, 0
8, 160080, Note_on_c, 9, 56, 76
8, 160199, Note_on_c, 9, 56, 0
8, 160200, Note_on_c, 9, 56, 76
8, 160319, Note_on_c, 9, 56, 0
8, 160560, Note_on_c, 9, 56, 76
8, 160679, Note_on_c, 9, 56, 0
8, 160680, Note_on_c, 9, 56, 76
8, 160799, Note_on_c, 9, 56, 0
8, 161040, Note_on_c, 9, 56, 76
8, 161159, Note_on_c, 9, 56, 0
8, 161160, Note_on_c, 9, 56, 76
8, 161279, Note_on_c, 9, 56, 0
8, 161520, Note_on_c, 9, 56, 76
8, 161639, Note_on_c, 9, 56, 0
8, 161640, Note_on_c, 9, 56, 76
8, 161759, Note_on_c, 9, 56, 0
8, 162000, Note_on_c, 9, 56, 76
8, 162119, Note_on_c, 9, 56, 0
8, 162120, Note_on_c, 9, 56, 76
8, 162239, Note_on_c, 9, 56, 0
8, 162480, Note_on_c, 9, 56, 76
8, 162599, Note_on_c, 9, 56, 0
8, 162600, Note_on_c, 9, 56, 76
8, 162719, Note_on_c, 9, 56, 0
8, 162960, Note_on_c, 9, 56, 76
8, 163079, Note_on_c, 9, 56, 0
8, 163080, Note_on_c, 9, 56, 76
8, 163199, Note_on_c, 9, 56, 0
8, 163440, Note_on_c, 9, 56, 76
8, 163559, Note_on_c, 9, 56, 0
8, 163560, Note_on_c, 9, 56, 76
8, 163679, Note_on_c, 9, 56, 0
8, 163920, Note_on_c, 9, 56, 76
8, 164039, Note_on_c, 9, 56, 0
8, 164040, Note_on_c, 9, 56, 76
8, 164159, Note_on_c, 9, 56, 0
8, 164400, Note_on_c, 9, 56, 76
8, 164519, Note_on_c, 9, 56, 0
8, 164520, Note_on_c, 9, 56, 76
8, 164639, Note_on_c, 9, 56, 0
8, 164880, Note_on_c, 9, 56, 76
8, 164999, Note_on_c, 9, 56, 0
8, 165000, Note_on_c, 9, 56, 76
8, 165119, Note_on_c, 9, 56, 0
8, 165360, Note_on_c, 9, 56, 76
8, 165479, Note_on_c, 9, 56, 0
8, 165480, Note_on_c, 9, 56, 76
8, 165599, Note_on_c, 9, 56, 0
8, 165840, Note_on_c, 9, 56, 76
8, 165959, Note_on_c, 9, 56, 0
8, 165960, Note_on_c, 9, 56, 76
8, 166079, Note_on_c, 9, 56, 0
8, 166320, Note_on_c, 9, 56, 76
8, 166439, Note_on_c, 9, 56, 0
8, 166440, Note_on_c, 9, 56, 76
8, 166559, Note_on_c, 9, 56, 0
8, 166800, Note_on_c, 9, 56, 76
8, 166919, Note_on_c, 9, 56, 0
8, 166920, Note_on_c, 9, 56, 76
8, 167039, Note_on_c, 9, 56, 0
8, 167280, Note_on_c, 9, 56, 76
8, 167339, Note_on_c, 9, 56, 0
8, 167380, Note_on_c, 9, 56, 76
8, 167399, Note_on_c, 9, 56, 0
8, 167760, Note_on_c, 9, 56, 76
8, 167879, Note_on_c, 9, 56, 0
8, 167880, Note_on_c, 9, 56, 76
8, 167999, Note_on_c, 9, 56, 0
8, 168240, Note_on_c, 9, 56, 76
8, 168359, Note_on_c, 9, 56, 0
8, 168360, Note_on_c, 9, 56, 76
8, 168479, Note_on_c, 9, 56, 0
8, 168720, Note_on_c, 9, 56, 76
8, 168839, Note_on_c, 9, 56, 0
8, 168840, Note_on_c, 9, 56, 76
8, 168959, Note_on_c, 9, 56, 0
8, 169200, Note_on_c, 9, 56, 76
8, 169319, Note_on_c, 9, 56, 0
8, 169320, Note_on_c, 9, 56, 76
8, 169439, Note_on_c, 9, 56, 0
8, 169680, Note_on_c, 9, 56, 76
8, 169799, Note_on_c, 9, 56, 0
8, 169800, Note_on_c, 9, 56, 76
8, 169919, Note_on_c, 9, 56, 0
8, 170160, Note_on_c, 9, 56, 76
8, 170279, Note_on_c, 9, 56, 0
8, 170280, Note_on_c, 9, 56, 76
8, 170399, Note_on_c, 9, 56, 0
8, 170640, Note_on_c, 9, 56, 76
8, 170759, Note_on_c, 9, 56, 0
8, 170760, Note_on_c, 9, 56, 76
8, 170879, Note_on_c, 9, 56, 0
8, 171120, Note_on_c, 9, 56, 76
8, 171239, Note_on_c, 9, 56, 0
8, 171240, Note_on_c, 9, 56, 76
8, 171359, Note_on_c, 9, 56, 0
8, 171600, Note_on_c, 9, 56, 76
8, 171719, Note_on_c, 9, 56, 0
8, 171720, Note_on_c, 9, 56, 76
8, 171839, Note_on_c, 9, 56, 0
8, 172080, Note_on_c, 9, 56, 76
8, 172199, Note_on_c, 9, 56, 0
8, 172200, Note_on_c, 9, 56, 76
8, 172319, Note_on_c, 9, 56, 0
8, 172560, Note_on_c, 9, 56, 76
8, 172679, Note_on_c, 9, 56, 0
8, 172680, Note_on_c, 9, 56, 76
8, 172799, Note_on_c, 9, 56, 0
8, 173040, Note_on_c, 9, 56, 76
8, 173159, Note_on_c, 9, 56, 0
8, 173160, Note_on_c, 9, 56, 76
8, 173279, Note_on_c, 9, 56, 0
8, 173520, Note_on_c, 9, 56, 76
8, 173639, Note_on_c, 9, 56, 0
8, 173640, Note_on_c, 9, 56, 76
8, 173759, Note_on_c, 9, 56, 0
8, 174000, Note_on_c, 9, 56, 76
8, 174119, Note_on_c, 9, 56, 0
8, 174120, Note_on_c, 9, 56, 76
8, 174239, Note_on_c, 9, 56, 0
8, 174480, Note_on_c, 9, 56, 76
8, 174599, Note_on_c, 9, 56, 0
8, 174600, Note_on_c, 9, 56, 76
8, 174719, Note_on_c, 9, 56, 0
8, 174960, Note_on_c, 9, 56, 76
8, 175079, Note_on_c, 9, 56, 0
8, 175080, Note_on_c, 9, 56, 76
8, 175199, Note_on_c, 9, 56, 0
8, 175440, Note_on_c, 9, 56, 76
8, 175559, Note_on_c, 9, 56, 0
8, 175560, Note_on_c, 9, 56, 76
8, 175679, Note_on_c, 9, 56, 0
8, 175920, Note_on_c, 9, 56, 76
8, 176039, Note_on_c, 9, 56, 0
8, 176040, Note_on_c, 9, 56, 76
8, 176159, Note_on_c, 9, 56, 0
8, 176400, Note_on_c, 9, 56, 76
8, 176519, Note_on_c, 9, 56, 0
8, 176520, Note_on_c, 9, 56, 76
8, 176639, Note_on_c, 9, 56, 0
8, 176880, Note_on_c, 9, 56, 76
8, 176999, Note_on_c, 9, 56, 0
8, 177000, Note_on_c, 9, 56, 76
8, 177119, Note_on_c, 9, 56, 0
8, 177360, Note_on_c, 9, 56, 76
8, 177479, Note_on_c, 9, 56, 0
8, 177480, Note_on_c, 9, 56, 76
8, 177599, Note_on_c, 9, 56, 0
8, 177840, Note_on_c, 9, 56, 76
8, 177959, Note_on_c, 9, 56, 0
8, 177960, Note_on_c, 9, 56, 76
8, 178079, Note_on_c, 9, 56, 0
8, 178320, Note_on_c, 9, 56, 76
8, 178439, Note_on_c, 9, 56, 0
8, 178440, Note_on_c, 9, 56, 76
8, 178559, Note_on_c, 9, 56, 0
8, 178800, Note_on_c, 9, 56, 76
8, 178919, Note_on_c, 9, 56, 0
8, 178920, Note_on_c, 9, 56, 76
8, 179039, Note_on_c, 9, 56, 0
8, 179280, Note_on_c, 9, 56, 76
8, 179399, Note_on_c, 9, 56, 0
8, 179400, Note_on_c, 9, 56, 76
8, 179519, Note_on_c, 9, 56, 0
8, 179760, Note_on_c, 9, 56, 76
8, 179879, Note_on_c, 9, 56, 0
8, 179880, Note_on_c, 9, 56, 76
8, 179999, Note_on_c, 9, 56, 0
8, 180240, Note_on_c, 9, 56, 76
8, 180359, Note_on_c, 9, 56, 0
8, 180360, Note_on_c, 9, 56, 76
8, 180479, Note_on_c, 9, 56, 0
8, 180720, Note_on_c, 9, 56, 76
8, 180839, Note_on_c, 9, 56, 0
8, 180840, Note_on_c, 9, 56, 76
8, 180959, Note_on_c, 9, 56, 0
8, 181200, Note_on_c, 9, 56, 76
8, 181319, Note_on_c, 9, 56, 0
8, 181320, Note_on_c, 9, 56, 76
8, 181439, Note_on_c, 9, 56, 0
8, 181680, Note_on_c, 9, 56, 76
8, 181799, Note_on_c, 9, 56, 0
8, 181800, Note_on_c, 9, 56, 76
8, 181919, Note_on_c, 9, 56, 0
8, 182160, Note_on_c, 9, 56, 76
8, 182279, Note_on_c, 9, 56, 0
8, 182280, Note_on_c, 9, 56, 76
8, 182399, Note_on_c, 9, 56, 0
8, 182640, Note_on_c, 9, 56, 76
8, 182759, Note_on_c, 9, 56, 0
8, 182760, Note_on_c, 9, 56, 76
8, 182879, Note_on_c, 9, 56, 0
8, 183120, Note_on_c, 9, 56, 76
8, 183239, Note_on_c, 9, 56, 0
8, 183240, Note_on_c, 9, 56, 76
8, 183359, Note_on_c, 9, 56, 0
8, 183600, Note_on_c, 9, 56, 76
8, 183719, Note_on_c, 9, 56, 0
8, 183720, Note_on_c, 9, 56, 76
8, 183839, Note_on_c, 9, 56, 0
8, 184080, Note_on_c, 9, 56, 76
8, 184199, Note_on_c, 9, 56, 0
8, 184200, Note_on_c, 9, 56, 76
8, 184319, Note_on_c, 9, 56, 0
8, 184560, Note_on_c, 9, 56, 76
8, 184679, Note_on_c, 9, 56, 0
8, 184680, Note_on_c, 9, 56, 76
8, 184799, Note_on_c, 9, 56, 0
8, 185040, Note_on_c, 9, 56, 76
8, 185159, Note_on_c, 9, 56, 0
8, 185160, Note_on_c, 9, 56, 76
8, 185279, Note_on_c, 9, 56, 0
8, 185520, Note_on_c, 9, 56, 76
8, 185639, Note_on_c, 9, 56, 0
8, 185640, Note_on_c, 9, 56, 76
8, 185759, Note_on_c, 9, 56, 0
8, 186000, Note_on_c, 9, 56, 76
8, 186119, Note_on_c, 9, 56, 0
8, 186120, Note_on_c, 9, 56, 76
8, 186239, Note_on_c, 9, 56, 0
8, 186480, Note_on_c, 9, 56, 76
8, 186599, Note_on_c, 9, 56, 0
8, 186600, Note_on_c, 9, 56, 76
8, 186719, Note_on_c, 9, 56, 0
8, 186960, Note_on_c, 9, 56, 76
8, 187079, Note_on_c, 9, 56, 0
8, 187080, Note_on_c, 9, 56, 76
8, 187199, Note_on_c, 9, 56, 0
8, 187440, Note_on_c, 9, 56, 76
8, 187559, Note_on_c, 9, 56, 0
8, 187560, Note_on_c, 9, 56, 76
8, 187679, Note_on_c, 9, 56, 0
8, 187920, Note_on_c, 9, 56, 76
8, 188039, Note_on_c, 9, 56, 0
8, 188040, Note_on_c, 9, 56, 76
8, 188159, Note_on_c, 9, 56, 0
8, 188400, Note_on_c, 9, 56, 76
8, 188519, Note_on_c, 9, 56, 0
8, 188520, Note_on_c, 9, 56, 76
8, 188639, Note_on_c, 9, 56, 0
8, 188880, Note_on_c, 9, 56, 76
8, 188999, Note_on_c, 9, 56, 0
8, 189000, Note_on_c, 9, 56, 76
8, 189119, Note_on_c, 9, 56, 0
8, 189360, Note_on_c, 9, 56, 76
8, 189479, Note_on_c, 9, 56, 0
8, 189480, Note_on_c, 9, 56, 76
8, 189599, Note_on_c, 9, 56, 0
8, 189840, Note_on_c, 9, 56, 76
8, 189959, Note_on_c, 9, 56, 0
8, 189960, Note_on_c, 9, 56, 76
8, 190079, Note_on_c, 9, 56, 0
8, 190320, Note_on_c, 9, 56, 76
8, 190439, Note_on_c, 9, 56, 0
8, 190440, Note_on_c, 9, 56, 76
8, 190559, Note_on_c, 9, 56, 0
8, 190800, Note_on_c, 9, 56, 76
8, 190919, Note_on_c, 9, 56, 0
8, 190920, Note_on_c, 9, 56, 76
8, 191039, Note_on_c, 9, 56, 0
8, 191280, Note_on_c, 9, 56, 76
8, 191399, Note_on_c, 9, 56, 0
8, 191400, Note_on_c, 9, 56, 76
8, 191519, Note_on_c, 9, 56, 0
8, 191760, Note_on_c, 9, 56, 76
8, 191879, Note_on_c, 9, 56, 0
8, 191880, Note_on_c, 9, 56, 76
8, 191999, Note_on_c, 9, 56, 0
8, 192240, Note_on_c, 9, 56, 76
8, 192359, Note_on_c, 9, 56, 0
8, 192360, Note_on_c, 9, 56, 76
8, 192479, Note_on_c, 9, 56, 0
8, 192720, Note_on_c, 9, 56, 76
8, 192839, Note_on_c, 9, 56, 0
8, 192840, Note_on_c, 9, 56, 76
8, 192959, Note_on_c, 9, 56, 0
8, 193200, Note_on_c, 9, 56, 76
8, 193319, Note_on_c, 9, 56, 0
8, 193320, Note_on_c, 9, 56, 76
8, 193439, Note_on_c, 9, 56, 0
8, 193680, Note_on_c, 9, 56, 76
8, 193799, Note_on_c, 9, 56, 0
8, 193800, Note_on_c, 9, 56, 76
8, 193919, Note_on_c, 9, 56, 0
8, 194160, Note_on_c, 9, 56, 76
8, 194279, Note_on_c, 9, 56, 0
8, 194280, Note_on_c, 9, 56, 76
8, 194399, Note_on_c, 9, 56, 0
8, 194640, Note_on_c, 9, 56, 76
8, 194759, Note_on_c, 9, 56, 0
8, 194760, Note_on_c, 9, 56, 76
8, 194879, Note_on_c, 9, 56, 0
8, 195120, Note_on_c, 9, 56, 76
8, 195239, Note_on_c, 9, 56, 0
8, 195240, Note_on_c, 9, 56, 76
8, 195359, Note_on_c, 9, 56, 0
8, 195600, Note_on_c, 9, 56, 76
8, 195719, Note_on_c, 9, 56, 0
8, 195720, Note_on_c, 9, 56, 76
8, 195839, Note_on_c, 9, 56, 0
8, 196080, Note_on_c, 9, 56, 76
8, 196199, Note_on_c, 9, 56, 0
8, 196200, Note_on_c, 9, 56, 76
8, 196319, Note_on_c, 9, 56, 0
8, 196560, Note_on_c, 9, 56, 76
8, 196679, Note_on_c, 9, 56, 0
8, 196680, Note_on_c, 9, 56, 76
8, 196799, Note_on_c, 9, 56, 0
8, 197040, Note_on_c, 9, 56, 76
8, 197159, Note_on_c, 9, 56, 0
8, 197160, Note_on_c, 9, 56, 76
8, 197279, Note_on_c, 9, 56, 0
8, 197520, Note_on_c, 9, 56, 76
8, 197639, Note_on_c, 9, 56, 0
8, 197640, Note_on_c, 9, 56, 76
8, 197759, Note_on_c, 9, 56, 0
8, 198000, Note_on_c, 9, 56, 76
8, 198119, Note_on_c, 9, 56, 0
8, 198120, Note_on_c, 9, 56, 76
8, 198239, Note_on_c, 9, 56, 0
8, 198480, Note_on_c, 9, 56, 76
8, 198599, Note_on_c, 9, 56, 0
8, 198600, Note_on_c, 9, 56, 76
8, 198719, Note_on_c, 9, 56, 0
8, 198960, Note_on_c, 9, 56, 76
8, 199079, Note_on_c, 9, 56, 0
8, 199080, Note_on_c, 9, 56, 76
8, 199199, Note_on_c, 9, 56, 0
8, 199440, Note_on_c, 9, 56, 76
8, 199559, Note_on_c, 9, 56, 0
8, 199560, Note_on_c, 9, 56, 76
8, 199679, Note_on_c, 9, 56, 0
8, 199920, Note_on_c, 9, 56, 76
8, 200039, Note_on_c, 9, 56, 0
8, 200040, Note_on_c, 9, 56, 76
8, 200159, Note_on_c, 9, 56, 0
8, 200400, Note_on_c, 9, 56, 76
8, 200519, Note_on_c, 9, 56, 0
8, 200520, Note_on_c, 9, 56, 76
8, 200639, Note_on_c, 9, 56, 0
8, 200880, Note_on_c, 9, 56, 76
8, 200999, Note_on_c, 9, 56, 0
8, 201000, Note_on_c, 9, 56, 76
8, 201119, Note_on_c, 9, 56, 0
8, 201360, Note_on_c, 9, 56, 76
8, 201479, Note_on_c, 9, 56, 0
8, 201480, Note_on_c, 9, 56, 76
8, 201599, Note_on_c, 9, 56, 0
8, 201840, Note_on_c, 9, 56, 76
8, 201959, Note_on_c, 9, 56, 0
8, 201960, Note_on_c, 9, 56, 76
8, 202079, Note_on_c, 9, 56, 0
8, 202320, Note_on_c, 9, 56, 76
8, 202439, Note_on_c, 9, 56, 0
8, 202440, Note_on_c, 9, 56, 76
8, 202559, Note_on_c, 9, 56, 0
8, 202800, Note_on_c, 9, 56, 76
8, 202919, Note_on_c, 9, 56, 0
8, 202920, Note_on_c, 9, 56, 76
8, 203039, Note_on_c, 9, 56, 0
8, 203280, Note_on_c, 9, 56, 76
8, 203399, Note_on_c, 9, 56, 0
8, 203400, Note_on_c, 9, 56, 76
8, 203519, Note_on_c, 9, 56, 0
8, 203760, Note_on_c, 9, 56, 76
8, 203879, Note_on_c, 9, 56, 0
8, 203880, Note_on_c, 9, 56, 76
8, 203999, Note_on_c, 9, 56, 0
8, 204240, Note_on_c, 9, 56, 76
8, 204359, Note_on_c, 9, 56, 0
8, 204360, Note_on_c, 9, 56, 76
8, 204479, Note_on_c, 9, 56, 0
8, 204720, Note_on_c, 9, 56, 76
8, 204839, Note_on_c, 9, 56, 0
8, 204840, Note_on_c, 9, 56, 76
8, 204959, Note_on_c, 9, 56, 0
8, 205200, Note_on_c, 9, 56, 76
8, 205319, Note_on_c, 9, 56, 0
8, 205320, Note_on_c, 9, 56, 76
8, 205439, Note_on_c, 9, 56, 0
8, 205680, Note_on_c, 9, 56, 76
8, 205799, Note_on_c, 9, 56, 0
8, 205800, Note_on_c, 9, 56, 76
8, 205919, Note_on_c, 9, 56, 0
8, 206160, Note_on_c, 9, 56, 76
8, 206399, Note_on_c, 9, 56, 0
8, 206640, Note_on_c, 9, 56, 76
8, 206879, Note_on_c, 9, 56, 0
8, 207120, Note_on_c, 9, 56, 76
8, 207359, Note_on_c, 9, 56, 0
8, 207600, Note_on_c, 9, 56, 76
8, 207719, Note_on_c, 9, 56, 0
8, 207720, Note_on_c, 9, 56, 76
8, 207839, Note_on_c, 9, 56, 0
8, 208080, Note_on_c, 9, 56, 76
8, 208319, Note_on_c, 9, 56, 0
8, 208560, Note_on_c, 9, 56, 76
8, 208799, Note_on_c, 9, 56, 0
8, 209040, Note_on_c, 9, 56, 76
8, 209279, Note_on_c, 9, 56, 0
8, 209520, Note_on_c, 9, 56, 76
8, 209639, Note_on_c, 9, 56, 0
8, 209640, Note_on_c, 9, 56, 76
8, 209759, Note_on_c, 9, 56, 0
8, 210000, Note_on_c, 9, 56, 76
8, 210239, Note_on_c, 9, 56, 0
8, 210480, Note_on_c, 9, 56, 76
8, 210719, Note_on_c, 9, 56, 0
8, 210960, Note_on_c, 9, 56, 76
8, 211199, Note_on_c, 9, 56, 0
8, 211440, Note_on_c, 9, 56, 76
8, 211559, Note_on_c, 9, 56, 0
8, 211560, Note_on_c, 9, 56, 76
8, 211679, Note_on_c, 9, 56, 0
8, 211920, Note_on_c, 9, 56, 76
8, 212039, Note_on_c, 9, 56, 0
8, 212040, Note_on_c, 9, 56, 76
8, 212159, Note_on_c, 9, 56, 0
8, 212400, Note_on_c, 9, 56, 76
8, 212519, Note_on_c, 9, 56, 0
8, 212520, Note_on_c, 9, 56, 76
8, 212639, Note_on_c, 9, 56, 0
8, 212880, Note_on_c, 9, 56, 76
8, 212999, Note_on_c, 9, 56, 0
8, 213000, Note_on_c, 9, 56, 76
8, 213119, Note_on_c, 9, 56, 0
8, 213360, Note_on_c, 9, 56, 76
8, 213479, Note_on_c, 9, 56, 0
8, 213480, Note_on_c, 9, 56, 76
8, 213599, Note_on_c, 9, 56, 0
8, 213840, Note_on_c, 9, 56, 76
8, 213959, Note_on_c, 9, 56, 0
8, 213960, Note_on_c, 9, 56, 76
8, 214079, Note_on_c, 9, 56, 0
8, 214320, Note_on_c, 9, 56, 76
8, 214439, Note_on_c, 9, 56, 0
8, 214440, Note_on_c, 9, 56, 76
8, 214559, Note_on_c, 9, 56, 0
8, 214800, Note_on_c, 9, 56, 76
8, 214919, Note_on_c, 9, 56, 0
8, 214920, Note_on_c, 9, 56, 76
8, 215039, Note_on_c, 9, 56, 0
8, 215280, Note_on_c, 9, 56, 76
8, 215399, Note_on_c, 9, 56, 0
8, 215400, Note_on_c, 9, 56, 76
8, 215519, Note_on_c, 9, 56, 0
8, 215760, Note_on_c, 9, 56, 76
8, 215879, Note_on_c, 9, 56, 0
8, 215880, Note_on_c, 9, 56, 76
8, 215999, Note_on_c, 9, 56, 0
8, 216240, Note_on_c, 9, 56, 76
8, 216359, Note_on_c, 9, 56, 0
8, 216360, Note_on_c, 9, 56, 76
8, 216479, Note_on_c, 9, 56, 0
8, 216720, Note_on_c, 9, 56, 76
8, 216839, Note_on_c, 9, 56, 0
8, 216840, Note_on_c, 9, 56, 76
8, 216959, Note_on_c, 9, 56, 0
8, 217200, Note_on_c, 9, 56, 76
8, 217319, Note_on_c, 9, 56, 0
8, 217320, Note_on_c, 9, 56, 76
8, 217439, Note_on_c, 9, 56, 0
8, 217680, Note_on_c, 9, 56, 76
8, 217799, Note_on_c, 9, 56, 0
8, 217800, Note_on_c, 9, 56, 76
8, 217919, Note_on_c, 9, 56, 0
8, 218160, Note_on_c, 9, 56, 76
8, 218279, Note_on_c, 9, 56, 0
8, 218280, Note_on_c, 9, 56, 76
8, 218399, Note_on_c, 9, 56, 0
8, 218640, Note_on_c, 9, 56, 76
8, 218759, Note_on_c, 9, 56, 0
8, 218760, Note_on_c, 9, 56, 76
8, 218879, Note_on_c, 9, 56, 0
8, 219120, Note_on_c, 9, 56, 76
8, 219239, Note_on_c, 9, 56, 0
8, 219240, Note_on_c, 9, 56, 76
8, 219359, Note_on_c, 9, 56, 0
8, 219600, Note_on_c, 9, 56, 76
8, 219719, Note_on_c, 9, 56, 0
8, 219720, Note_on_c, 9, 56, 76
8, 219839, Note_on_c, 9, 56, 0
8, 220080, Note_on_c, 9, 56, 76
8, 220199, Note_on_c, 9, 56, 0
8, 220200, Note_on_c, 9, 56, 76
8, 220319, Note_on_c, 9, 56, 0
8, 220560, Note_on_c, 9, 56, 76
8, 220679, Note_on_c, 9, 56, 0
8, 220680, Note_on_c, 9, 56, 76
8, 220799, Note_on_c, 9, 56, 0
8, 221040, Note_on_c, 9, 56, 76
8, 221159, Note_on_c, 9, 56, 0
8, 221160, Note_on_c, 9, 56, 76
8, 221279, Note_on_c, 9, 56, 0
8, 221520, Note_on_c, 9, 56, 76
8, 221639, Note_on_c, 9, 56, 0
8, 221640, Note_on_c, 9, 56, 76
8, 221759, Note_on_c, 9, 56, 0
8, 222000, Note_on_c, 9, 56, 76
8, 222119, Note_on_c, 9, 56, 0
8, 222120, Note_on_c, 9, 56, 76
8, 222239, Note_on_c, 9, 56, 0
8, 222480, Note_on_c, 9, 56, 76
8, 222599, Note_on_c, 9, 56, 0
8, 222600, Note_on_c, 9, 56, 76
8, 222719, Note_on_c, 9, 56, 0
8, 222960, Note_on_c, 9, 56, 76
8, 223079, Note_on_c, 9, 56, 0
8, 223080, Note_on_c, 9, 56, 76
8, 223199, Note_on_c, 9, 56, 0
8, 223440, Note_on_c, 9, 56, 76
8, 223559, Note_on_c, 9, 56, 0
8, 223560, Note_on_c, 9, 56, 76
8, 223679, Note_on_c, 9, 56, 0
8, 223920, Note_on_c, 9, 56, 76
8, 224039, Note_on_c, 9, 56, 0
8, 224040, Note_on_c, 9, 56, 76
8, 224159, Note_on_c, 9, 56, 0
8, 224400, Note_on_c, 9, 56, 76
8, 224519, Note_on_c, 9, 56, 0
8, 224520, Note_on_c, 9, 56, 76
8, 224639, Note_on_c, 9, 56, 0
8, 224880, Note_on_c, 9, 56, 76
8, 224999, Note_on_c, 9, 56, 0
8, 225000, Note_on_c, 9, 56, 76
8, 225119, Note_on_c, 9, 56, 0
8, 225360, Note_on_c, 9, 56, 76
8, 225479, Note_on_c, 9, 56, 0
8, 225480, Note_on_c, 9, 56, 76
8, 225599, Note_on_c, 9, 56, 0
8, 225840, Note_on_c, 9, 56, 76
8, 225959, Note_on_c, 9, 56, 0
8, 225960, Note_on_c, 9, 56, 76
8, 226079, Note_on_c, 9, 56, 0
8, 226320, Note_on_c, 9, 56, 76
8, 226439, Note_on_c, 9, 56, 0
8, 226440, Note_on_c, 9, 56, 76
8, 226559, Note_on_c, 9, 56, 0
8, 226800, Note_on_c, 9, 56, 76
8, 226919, Note_on_c, 9, 56, 0
8, 226920, Note_on_c, 9, 56, 76
8, 227039, Note_on_c, 9, 56, 0
8, 227280, Note_on_c, 9, 56, 76
8, 227399, Note_on_c, 9, 56, 0
8, 227400, Note_on_c, 9, 56, 76
8, 227519, Note_on_c, 9, 56, 0
8, 227760, Note_on_c, 9, 56, 76
8, 227879, Note_on_c, 9, 56, 0
8, 227880, Note_on_c, 9, 56, 76
8, 227999, Note_on_c, 9, 56, 0
8, 228240, Note_on_c, 9, 56, 76
8, 228359, Note_on_c, 9, 56, 0
8, 228360, Note_on_c, 9, 56, 76
8, 228479, Note_on_c, 9, 56, 0
8, 228720, Note_on_c, 9, 56, 76
8, 228839, Note_on_c, 9, 56, 0
8, 228840, Note_on_c, 9, 56, 76
8, 228959, Note_on_c, 9, 56, 0
8, 229200, Note_on_c, 9, 56, 76
8, 229319, Note_on_c, 9, 56, 0
8, 229320, Note_on_c, 9, 56, 76
8, 229439, Note_on_c, 9, 56, 0
8, 229680, Note_on_c, 9, 56, 76
8, 229799, Note_on_c, 9, 56, 0
8, 229800, Note_on_c, 9, 56, 76
8, 229919, Note_on_c, 9, 56, 0
8, 230160, Note_on_c, 9, 56, 76
8, 230279, Note_on_c, 9, 56, 0
8, 230280, Note_on_c, 9, 56, 76
8, 230399, Note_on_c, 9, 56, 0
8, 230640, Note_on_c, 9, 56, 76
8, 230759, Note_on_c, 9, 56, 0
8, 230760, Note_on_c, 9, 56, 76
8, 230879, Note_on_c, 9, 56, 0
8, 231120, Note_on_c, 9, 56, 76
8, 231239, Note_on_c, 9, 56, 0
8, 231240, Note_on_c, 9, 56, 76
8, 231359, Note_on_c, 9, 56, 0
8, 231600, Note_on_c, 9, 56, 76
8, 231719, Note_on_c, 9, 56, 0
8, 231720, Note_on_c, 9, 56, 76
8, 231839, Note_on_c, 9, 56, 0
8, 232080, Note_on_c, 9, 56, 76
8, 232199, Note_on_c, 9, 56, 0
8, 232200, Note_on_c, 9, 56, 76
8, 232319, Note_on_c, 9, 56, 0
8, 232560, Note_on_c, 9, 56, 76
8, 232679, Note_on_c, 9, 56, 0
8, 232680, Note_on_c, 9, 56, 76
8, 232799, Note_on_c, 9, 56, 0
8, 233040, Note_on_c, 9, 56, 76
8, 233159, Note_on_c, 9, 56, 0
8, 233160, Note_on_c, 9, 56, 76
8, 233279, Note_on_c, 9, 56, 0
8, 233520, Note_on_c, 9, 56, 76
8, 233639, Note_on_c, 9, 56, 0
8, 233640, Note_on_c, 9, 56, 76
8, 233759, Note_on_c, 9, 56, 0
8, 234000, Note_on_c, 9, 56, 76
8, 234119, Note_on_c, 9, 56, 0
8, 234120, Note_on_c, 9, 56, 76
8, 234239, Note_on_c, 9, 56, 0
8, 234480, Note_on_c, 9, 56, 76
8, 234599, Note_on_c, 9, 56, 0
8, 234600, Note_on_c, 9, 56, 76
8, 234719, Note_on_c, 9, 56, 0
8, 234960, Note_on_c, 9, 56, 76
8, 235079, Note_on_c, 9, 56, 0
8, 235080, Note_on_c, 9, 56, 76
8, 235199, Note_on_c, 9, 56, 0
8, 235440, Note_on_c, 9, 56, 76
8, 235559, Note_on_c, 9, 56, 0
8, 235560, Note_on_c, 9, 56, 76
8, 235679, Note_on_c, 9, 56, 0
8, 235920, Note_on_c, 9, 56, 76
8, 236039, Note_on_c, 9, 56, 0
8, 236040, Note_on_c, 9, 56, 76
8, 236159, Note_on_c, 9, 56, 0
8, 236400, Note_on_c, 9, 56, 76
8, 236519, Note_on_c, 9, 56, 0
8, 236520, Note_on_c, 9, 56, 76
8, 236639, Note_on_c, 9, 56, 0
8, 236880, Note_on_c, 9, 56, 76
8, 236999, Note_on_c, 9, 56, 0
8, 237000, Note_on_c, 9, 56, 76
8, 237119, Note_on_c, 9, 56, 0
8, 237360, Note_on_c, 9, 56, 76
8, 237479, Note_on_c, 9, 56, 0
8, 237480, Note_on_c, 9, 56, 76
8, 237599, Note_on_c, 9, 56, 0
8, 237840, Note_on_c, 9, 56, 76
8, 237959, Note_on_c, 9, 56, 0
8, 237960, Note_on_c, 9, 56, 76
8, 238079, Note_on_c, 9, 56, 0
8, 238320, Note_on_c, 9, 56, 76
8, 238439, Note_on_c, 9, 56, 0
8, 238440, Note_on_c, 9, 56, 76
8, 238559, Note_on_c, 9, 56, 0
8, 238800, Note_on_c, 9, 56, 76
8, 238919, Note_on_c, 9, 56, 0
8, 238920, Note_on_c, 9, 56, 76
8, 239039, Note_on_c, 9, 56, 0
8, 239280, Note_on_c, 9, 56, 76
8, 239399, Note_on_c, 9, 56, 0
8, 239400, Note_on_c, 9, 56, 76
8, 239519, Note_on_c, 9, 56, 0
8, 239760, Note_on_c, 9, 56, 76
8, 239879, Note_on_c, 9, 56, 0
8, 239880, Note_on_c, 9, 56, 76
8, 239999, Note_on_c, 9, 56, 0
8, 240240, Note_on_c, 9, 56, 76
8, 240359, Note_on_c, 9, 56, 0
8, 240360, Note_on_c, 9, 56, 76
8, 240479, Note_on_c, 9, 56, 0
8, 240720, Note_on_c, 9, 56, 76
8, 240839, Note_on_c, 9, 56, 0
8, 240840, Note_on_c, 9, 56, 76
8, 240959, Note_on_c, 9, 56, 0
8, 241200, Note_on_c, 9, 56, 76
8, 241319, Note_on_c, 9, 56, 0
8, 241320, Note_on_c, 9, 56, 76
8, 241439, Note_on_c, 9, 56, 0
8, 241680, Note_on_c, 9, 56, 76
8, 241799, Note_on_c, 9, 56, 0
8, 241800, Note_on_c, 9, 56, 76
8, 241919, Note_on_c, 9, 56, 0
8, 242160, Note_on_c, 9, 56, 76
8, 242279, Note_on_c, 9, 56, 0
8, 242280, Note_on_c, 9, 56, 76
8, 242399, Note_on_c, 9, 56, 0
8, 242640, Note_on_c, 9, 56, 76
8, 242759, Note_on_c, 9, 56, 0
8, 242760, Note_on_c, 9, 56, 76
8, 242879, Note_on_c, 9, 56, 0
8, 243120, Note_on_c, 9, 56, 76
8, 243239, Note_on_c, 9, 56, 0
8, 243240, Note_on_c, 9, 56, 76
8, 243359, Note_on_c, 9, 56, 0
8, 243600, Note_on_c, 9, 56, 76
8, 243719, Note_on_c, 9, 56, 0
8, 243720, Note_on_c, 9, 56, 76
8, 243839, Note_on_c, 9, 56, 0
8, 244080, Note_on_c, 9, 56, 76
8, 244199, Note_on_c, 9, 56, 0
8, 244200, Note_on_c, 9, 56, 76
8, 244319, Note_on_c, 9, 56, 0
8, 244560, Note_on_c, 9, 56, 76
8, 244679, Note_on_c, 9, 56, 0
8, 244680, Note_on_c, 9, 56, 76
8, 244799, Note_on_c, 9, 56, 0
8, 245040, Note_on_c, 9, 56, 76
8, 245159, Note_on_c, 9, 56, 0
8, 245160, Note_on_c, 9, 56, 76
8, 245279, Note_on_c, 9, 56, 0
8, 245520, Note_on_c, 9, 56, 76
8, 245639, Note_on_c, 9, 56, 0
8, 245640, Note_on_c, 9, 56, 76
8, 245759, Note_on_c, 9, 56, 0
8, 246000, Note_on_c, 9, 56, 76
8, 246119, Note_on_c, 9, 56, 0
8, 246120, Note_on_c, 9, 56, 76
8, 246239, Note_on_c, 9, 56, 0
8, 246480, Note_on_c, 9, 56, 76
8, 246599, Note_on_c, 9, 56, 0
8, 246600, Note_on_c, 9, 56, 76
8, 246719, Note_on_c, 9, 56, 0
8, 246960, Note_on_c, 9, 56, 76
8, 247079, Note_on_c, 9, 56, 0
8, 247080, Note_on_c, 9, 56, 76
8, 247199, Note_on_c, 9, 56, 0
8, 247440, Note_on_c, 9, 56, 76
8, 247559, Note_on_c, 9, 56, 0
8, 247560, Note_on_c, 9, 56, 76
8, 247679, Note_on_c, 9, 56, 0
8, 247920, Note_on_c, 9, 56, 76
8, 248039, Note_on_c, 9, 56, 0
8, 248040, Note_on_c, 9, 56, 76
8, 248159, Note_on_c, 9, 56, 0
8, 248400, Note_on_c, 9, 56, 76
8, 248519, Note_on_c, 9, 56, 0
8, 248520, Note_on_c, 9, 56, 76
8, 248639, Note_on_c, 9, 56, 0
8, 248880, Note_on_c, 9, 56, 76
8, 248999, Note_on_c, 9, 56, 0
8, 249000, Note_on_c, 9, 56, 76
8, 249119, Note_on_c, 9, 56, 0
8, 249360, Note_on_c, 9, 56, 76
8, 249479, Note_on_c, 9, 56, 0
8, 249480, Note_on_c, 9, 56, 76
8, 249599, Note_on_c, 9, 56, 0
8, 249840, Note_on_c, 9, 56, 76
8, 249959, Note_on_c, 9, 56, 0
8, 249960, Note_on_c, 9, 56, 76
8, 250079, Note_on_c, 9, 56, 0
8, 250320, Note_on_c, 9, 56, 76
8, 250439, Note_on_c, 9, 56, 0
8, 250440, Note_on_c, 9, 56, 76
8, 250559, Note_on_c, 9, 56, 0
8, 250800, Note_on_c, 9, 56, 76
8, 250919, Note_on_c, 9, 56, 0
8, 250920, Note_on_c, 9, 56, 76
8, 251039, Note_on_c, 9, 56, 0
8, 251280, Note_on_c, 9, 56, 76
8, 251399, Note_on_c, 9, 56, 0
8, 251400, Note_on_c, 9, 56, 76
8, 251519, Note_on_c, 9, 56, 0
8, 251760, Note_on_c, 9, 56, 76
8, 251879, Note_on_c, 9, 56, 0
8, 251880, Note_on_c, 9, 56, 76
8, 251999, Note_on_c, 9, 56, 0
8, 252240, Note_on_c, 9, 56, 76
8, 252359, Note_on_c, 9, 56, 0
8, 252360, Note_on_c, 9, 56, 76
8, 252479, Note_on_c, 9, 56, 0
8, 252720, Note_on_c, 9, 56, 76
8, 252839, Note_on_c, 9, 56, 0
8, 252840, Note_on_c, 9, 56, 76
8, 252959, Note_on_c, 9, 56, 0
8, 253200, Note_on_c, 9, 56, 76
8, 253319, Note_on_c, 9, 56, 0
8, 253320, Note_on_c, 9, 56, 76
8, 253439, Note_on_c, 9, 56, 0
8, 253680, Note_on_c, 9, 56, 76
8, 253799, Note_on_c, 9, 56, 0
8, 253800, Note_on_c, 9, 56, 76
8, 253919, Note_on_c, 9, 56, 0
8, 254160, Note_on_c, 9, 56, 76
8, 254279, Note_on_c, 9, 56, 0
8, 254280, Note_on_c, 9, 56, 76
8, 254399, Note_on_c, 9, 56, 0
8, 254640, Note_on_c, 9, 56, 76
8, 254759, Note_on_c, 9, 56, 0
8, 254760, Note_on_c, 9, 56, 76
8, 254879, Note_on_c, 9, 56, 0
8, 255120, Note_on_c, 9, 56, 76
8, 255239, Note_on_c, 9, 56, 0
8, 255240, Note_on_c, 9, 56, 76
8, 255359, Note_on_c, 9, 56, 0
8, 255600, Note_on_c, 9, 56, 76
8, 255719, Note_on_c, 9, 56, 0
8, 255720, Note_on_c, 9, 56, 76
8, 255839, Note_on_c, 9, 56, 0
8, 256080, Note_on_c, 9, 56, 76
8, 256199, Note_on_c, 9, 56, 0
8, 256200, Note_on_c, 9, 56, 76
8, 256319, Note_on_c, 9, 56, 0
8, 256560, Note_on_c, 9, 56, 76
8, 256679, Note_on_c, 9, 56, 0
8, 256680, Note_on_c, 9, 56, 76
8, 256799, Note_on_c, 9, 56, 0
8, 257040, Note_on_c, 9, 56, 76
8, 257159, Note_on_c, 9, 56, 0
8, 257160, Note_on_c, 9, 56, 76
8, 257279, Note_on_c, 9, 56, 0
8, 257520, Note_on_c, 9, 56, 76
8, 257639, Note_on_c, 9, 56, 0
8, 257640, Note_on_c, 9, 56, 76
8, 257759, Note_on_c, 9, 56, 0
8, 258000, Note_on_c, 9, 56, 76
8, 258119, Note_on_c, 9, 56, 0
8, 258120, Note_on_c, 9, 56, 76
8, 258239, Note_on_c, 9, 56, 0
8, 258480, Note_on_c, 9, 56, 76
8, 258599, Note_on_c, 9, 56, 0
8, 258600, Note_on_c, 9, 56, 76
8, 258719, Note_on_c, 9, 56, 0
8, 258960, Note_on_c, 9, 56, 76
8, 259079, Note_on_c, 9, 56, 0
8, 259080, Note_on_c, 9, 56, 76
8, 259199, Note_on_c, 9, 56, 0
8, 259440, Note_on_c, 9, 56, 76
8, 259559, Note_on_c, 9, 56, 0
8, 259560, Note_on_c, 9, 56, 76
8, 259679, Note_on_c, 9, 56, 0
8, 259920, Note_on_c, 9, 56, 76
8, 260039, Note_on_c, 9, 56, 0
8, 260040, Note_on_c, 9, 56, 76
8, 260159, Note_on_c, 9, 56, 0
8, 260400, Note_on_c, 9, 56, 76
8, 260519, Note_on_c, 9, 56, 0
8, 260520, Note_on_c, 9, 56, 76
8, 260639, Note_on_c, 9, 56, 0
8, 260880, Note_on_c, 9, 56, 76
8, 260999, Note_on_c, 9, 56, 0
8, 261000, Note_on_c, 9, 56, 76
8, 261119, Note_on_c, 9, 56, 0
8, 261360, Note_on_c, 9, 56, 76
8, 261479, Note_on_c, 9, 56, 0
8, 261480, Note_on_c, 9, 56, 76
8, 261599, Note_on_c, 9, 56, 0
8, 261840, Note_on_c, 9, 56, 76
8, 261959, Note_on_c, 9, 56, 0
8, 261960, Note_on_c, 9, 56, 76
8, 262079, Note_on_c, 9, 56, 0
8, 262320, Note_on_c, 9, 56, 76
8, 262439, Note_on_c, 9, 56, 0
8, 262440, Note_on_c, 9, 56, 76
8, 262559, Note_on_c, 9, 56, 0
8, 262800, Note_on_c, 9, 56, 76
8, 262919, Note_on_c, 9, 56, 0
8, 262920, Note_on_c, 9, 56, 76
8, 263039, Note_on_c, 9, 56, 0
8, 263280, Note_on_c, 9, 56, 76
8, 263399, Note_on_c, 9, 56, 0
8, 263400, Note_on_c, 9, 56, 76
8, 263519, Note_on_c, 9, 56, 0
8, 263760, Note_on_c, 9, 56, 76
8, 263879, Note_on_c, 9, 56, 0
8, 263880, Note_on_c, 9, 56, 76
8, 263999, Note_on_c, 9, 56, 0
8, 264240, Note_on_c, 9, 56, 76
8, 264359, Note_on_c, 9, 56, 0
8, 264360, Note_on_c, 9, 56, 76
8, 264479, Note_on_c, 9, 56, 0
8, 264720, Note_on_c, 9, 56, 76
8, 264839, Note_on_c, 9, 56, 0
8, 264840, Note_on_c, 9, 56, 76
8, 264959, Note_on_c, 9, 56, 0
8, 265200, Note_on_c, 9, 56, 76
8, 265319, Note_on_c, 9, 56, 0
8, 265320, Note_on_c, 9, 56, 76
8, 265439, Note_on_c, 9, 56, 0
8, 265680, Note_on_c, 9, 56, 76
8, 265799, Note_on_c, 9, 56, 0
8, 265800, Note_on_c, 9, 56, 76
8, 265919, Note_on_c, 9, 56, 0
8, 266160, Note_on_c, 9, 56, 76
8, 266279, Note_on_c, 9, 56, 0
8, 266280, Note_on_c, 9, 56, 76
8, 266399, Note_on_c, 9, 56, 0
8, 266640, Note_on_c, 9, 56, 76
8, 266759, Note_on_c, 9, 56, 0
8, 266760, Note_on_c, 9, 56, 76
8, 266879, Note_on_c, 9, 56, 0
8, 267120, Note_on_c, 9, 56, 76
8, 267239, Note_on_c, 9, 56, 0
8, 267240, Note_on_c, 9, 56, 76
8, 267359, Note_on_c, 9, 56, 0
8, 267600, Note_on_c, 9, 56, 76
8, 267719, Note_on_c, 9, 56, 0
8, 267720, Note_on_c, 9, 56, 76
8, 267839, Note_on_c, 9, 56, 0
8, 268080, Note_on_c, 9, 56, 76
8, 268199, Note_on_c, 9, 56, 0
8, 268200, Note_on_c, 9, 56, 76
8, 268319, Note_on_c, 9, 56, 0
8, 268560, Note_on_c, 9, 56, 76
8, 268679, Note_on_c, 9, 56, 0
8, 268680, Note_on_c, 9, 56, 76
8, 268799, Note_on_c, 9, 56, 0
8, 269040, Note_on_c, 9, 56, 76
8, 269159, Note_on_c, 9, 56, 0
8, 269160, Note_on_c, 9, 56, 76
8, 269279, Note_on_c, 9, 56, 0
8, 269520, Note_on_c, 9, 56, 76
8, 269639, Note_on_c, 9, 56, 0
8, 269640, Note_on_c, 9, 56, 76
8, 269759, Note_on_c, 9, 56, 0
8, 270000, Note_on_c, 9, 56, 76
8, 270119, Note_on_c, 9, 56, 0
8, 270120, Note_on_c, 9, 56, 76
8, 270239, Note_on_c, 9, 56, 0
8, 270480, Note_on_c, 9, 56, 76
8, 270599, Note_on_c, 9, 56, 0
8, 270600, Note_on_c, 9, 56, 76
8, 270719, Note_on_c, 9, 56, 0
8, 270960, Note_on_c, 9, 56, 76
8, 271079, Note_on_c, 9, 56, 0
8, 271080, Note_on_c, 9, 56, 76
8, 271199, Note_on_c, 9, 56, 0
8, 271440, Note_on_c, 9, 56, 76
8, 271559, Note_on_c, 9, 56, 0
8, 271560, Note_on_c, 9, 56, 76
8, 271679, Note_on_c, 9, 56, 0
8, 271920, Note_on_c, 9, 56, 76
8, 272039, Note_on_c, 9, 56, 0
8, 272040, Note_on_c, 9, 56, 76
8, 272159, Note_on_c, 9, 56, 0
8, 272400, Note_on_c, 9, 56, 76
8, 272519, Note_on_c, 9, 56, 0
8, 272520, Note_on_c, 9, 56, 76
8, 272639, Note_on_c, 9, 56, 0
8, 272880, Note_on_c, 9, 56, 76
8, 272999, Note_on_c, 9, 56, 0
8, 273000, Note_on_c, 9, 56, 76
8, 273119, Note_on_c, 9, 56, 0
8, 273360, Note_on_c, 9, 56, 76
8, 273479, Note_on_c, 9, 56, 0
8, 273480, Note_on_c, 9, 56, 76
8, 273599, Note_on_c, 9, 56, 0
8, 273840, Note_on_c, 9, 56, 76
8, 273959, Note_on_c, 9, 56, 0
8, 273960, Note_on_c, 9, 56, 76
8, 274079, Note_on_c, 9, 56, 0
8, 274320, Note_on_c, 9, 56, 76
8, 274439, Note_on_c, 9, 56, 0
8, 274440, Note_on_c, 9, 56, 76
8, 274559, Note_on_c, 9, 56, 0
8, 274800, Note_on_c, 9, 56, 76
8, 274919, Note_on_c, 9, 56, 0
8, 274920, Note_on_c, 9, 56, 76
8, 275039, Note_on_c, 9, 56, 0
8, 275280, Note_on_c, 9, 56, 76
8, 275399, Note_on_c, 9, 56, 0
8, 275400, Note_on_c, 9, 56, 76
8, 275519, Note_on_c, 9, 56, 0
8, 275760, Note_on_c, 9, 56, 76
8, 275879, Note_on_c, 9, 56, 0
8, 275880, Note_on_c, 9, 56, 76
8, 275999, Note_on_c, 9, 56, 0
8, 276240, Note_on_c, 9, 56, 76
8, 276359, Note_on_c, 9, 56, 0
8, 276360, Note_on_c, 9, 56, 76
8, 276479, Note_on_c, 9, 56, 0
8, 276720, Note_on_c, 9, 56, 76
8, 276839, Note_on_c, 9, 56, 0
8, 276840, Note_on_c, 9, 56, 76
8, 276959, Note_on_c, 9, 56, 0
8, 277200, Note_on_c, 9, 56, 76
8, 277319, Note_on_c, 9, 56, 0
8, 277320, Note_on_c, 9, 56, 76
8, 277439, Note_on_c, 9, 56, 0
8, 277680, Note_on_c, 9, 56, 76
8, 277799, Note_on_c, 9, 56, 0
8, 277800, Note_on_c, 9, 56, 76
8, 277919, Note_on_c, 9, 56, 0
8, 278160, Note_on_c, 9, 56, 76
8, 278279, Note_on_c, 9, 56, 0
8, 278280, Note_on_c, 9, 56, 76
8, 278399, Note_on_c, 9, 56, 0
8, 278640, Note_on_c, 9, 56, 76
8, 278759, Note_on_c, 9, 56, 0
8, 278760, Note_on_c, 9, 56, 76
8, 278879, Note_on_c, 9, 56, 0
8, 279120, Note_on_c, 9, 56, 76
8, 279239, Note_on_c, 9, 56, 0
8, 279240, Note_on_c, 9, 56, 76
8, 279359, Note_on_c, 9, 56, 0
8, 279600, Note_on_c, 9, 56, 76
8, 279719, Note_on_c, 9, 56, 0
8, 279720, Note_on_c, 9, 56, 76
8, 279839, Note_on_c, 9, 56, 0
8, 280080, Note_on_c, 9, 56, 76
8, 280199, Note_on_c, 9, 56, 0
8, 280200, Note_on_c, 9, 56, 76
8, 280319, Note_on_c, 9, 56, 0
8, 280560, Note_on_c, 9, 56, 76
8, 280799, Note_on_c, 9, 56, 0
8, 280800, End_track
9, 0, Start_track
9, 0, Key_signature, 0, "major"
9, 0, Control_c, 9, 121, 0
9, 0, Program_c, 9, 48
9, 0, Control_c, 9, 7, 100
9, 0, Control_c, 9, 10, 64
9, 0, Control_c, 9, 91, 0
9, 0, Control_c, 9, 93, 0
9, 0, MIDI_port, 1
9, 19440, Note_on_c, 9, 54, 110
9, 19679, Note_on_c, 9, 54, 0
9, 19800, Note_on_c, 9, 54, 110
9, 20159, Note_on_c, 9, 54, 0
9, 21320, Note_on_c, 9, 54, 110
9, 21359, Note_on_c, 9, 54, 0
9, 21400, Note_on_c, 9, 54, 110
9, 21419, Note_on_c, 9, 54, 0
9, 21440, Note_on_c, 9, 54, 110
9, 21479, Note_on_c, 9, 54, 0
9, 21520, Note_on_c, 9, 54, 110
9, 21539, Note_on_c, 9, 54, 0
9, 21560, Note_on_c, 9, 54, 110
9, 21599, Note_on_c, 9, 54, 0
9, 21800, Note_on_c, 9, 54, 110
9, 21839, Note_on_c, 9, 54, 0
9, 159600, Note_on_c, 9, 54, 100
9, 159659, Note_on_c, 9, 54, 0
9, 159680, Note_on_c, 9, 54, 105
9, 159719, Note_on_c, 9, 54, 0
9, 159760, Note_on_c, 9, 54, 110
9, 159779, Note_on_c, 9, 54, 0
9, 159840, Note_on_c, 9, 54, 113
9, 160319, Note_on_c, 9, 54, 0
9, 163440, Note_on_c, 9, 54, 100
9, 163499, Note_on_c, 9, 54, 0
9, 163520, Note_on_c, 9, 54, 105
9, 163559, Note_on_c, 9, 54, 0
9, 163600, Note_on_c, 9, 54, 110
9, 163619, Note_on_c, 9, 54, 0
9, 163680, Note_on_c, 9, 54, 113
9, 164159, Note_on_c, 9, 54, 0
9, 167280, Note_on_c, 9, 54, 100
9, 167339, Note_on_c, 9, 54, 0
9, 167360, Note_on_c, 9, 54, 105
9, 167399, Note_on_c, 9, 54, 0
9, 167440, Note_on_c, 9, 54, 110
9, 167459, Note_on_c, 9, 54, 0
9, 167520, Note_on_c, 9, 54, 113
9, 167999, Note_on_c, 9, 54, 0
9, 171120, Note_on_c, 9, 54, 100
9, 171179, Note_on_c, 9, 54, 0
9, 171200, Note_on_c, 9, 54, 105
9, 171239, Note_on_c, 9, 54, 0
9, 171280, Note_on_c, 9, 54, 110
9, 171299, Note_on_c, 9, 54, 0
9, 171360, Note_on_c, 9, 54, 113
9, 171839, Note_on_c, 9, 54, 0
9, 171840, End_track
10, 0, Start_track
10, 0, Key_signature, 0, "major"
10, 0, Control_c, 9, 121, 0
10, 0, Program_c, 9, 48
10, 0, Control_c, 9, 7, 100
10, 0, Control_c, 9, 10, 64
10, 0, Control_c, 9, 91, 0
10, 0, Control_c, 9, 93, 0
10, 0, MIDI_port, 1
10, 65280, Note_on_c, 9, 51, 102
10, 65759, Note_on_c, 9, 51, 0
10, 132480, Note_on_c, 9, 51, 102
10, 132959, Note_on_c, 9, 51, 0
10, 174720, Note_on_c, 9, 51, 102
10, 175199, Note_on_c, 9, 51, 0
10, 211200, Note_on_c, 9, 51, 102
10, 211679, Note_on_c, 9, 51, 0
10, 234240, Note_on_c, 9, 51, 102
10, 234719, Note_on_c, 9, 51, 0
10, 238080, Note_on_c, 9, 51, 102
10, 238559, Note_on_c, 9, 51, 0
10, 241920, Note_on_c, 9, 51, 102
10, 242399, Note_on_c, 9, 51, 0
10, 276480, Note_on_c, 9, 51, 102
10, 276959, Note_on_c, 9, 51, 0
10, 277920, Note_on_c, 9, 51, 102
10, 278399, Note_on_c, 9, 51, 0
10, 278400, Note_on_c, 9, 51, 102
10, 278879, Note_on_c, 9, 51, 0
10, 279840, Note_on_c, 9, 51, 102
10, 280319, Note_on_c, 9, 51, 0
10, 280320, End_track
11, 0, Start_track
11, 0, Key_signature, 0, "major"
11, 0, Control_c, 9, 121, 0
11, 0, Program_c, 9, 48
11, 0, Control_c, 9, 7, 100
11, 0, Control_c, 9, 10, 64
11, 0, Control_c, 9, 91, 0
11, 0, Control_c, 9, 93, 0
11, 0, MIDI_port, 1
11, 4320, Note_on_c, 9, 56, 85
11, 4799, Note_on_c, 9, 56, 0
11, 6240, Note_on_c, 9, 56, 85
11, 6719, Note_on_c, 9, 56, 0
11, 7440, Note_on_c, 9, 56, 85
11, 7679, Note_on_c, 9, 56, 0
11, 8160, Note_on_c, 9, 56, 85
11, 8639, Note_on_c, 9, 56, 0
11, 10080, Note_on_c, 9, 56, 85
11, 10559, Note_on_c, 9, 56, 0
11, 11280, Note_on_c, 9, 56, 85
11, 11519, Note_on_c, 9, 56, 0
11, 12000, Note_on_c, 9, 56, 85
11, 12479, Note_on_c, 9, 56, 0
11, 13920, Note_on_c, 9, 56, 85
11, 14399, Note_on_c, 9, 56, 0
11, 15120, Note_on_c, 9, 56, 85
11, 15359, Note_on_c, 9, 56, 0
11, 15840, Note_on_c, 9, 56, 85
11, 16319, Note_on_c, 9, 56, 0
11, 17760, Note_on_c, 9, 56, 85
11, 18239, Note_on_c, 9, 56, 0
11, 18960, Note_on_c, 9, 56, 85
11, 19199, Note_on_c, 9, 56, 0
11, 19440, Note_on_c, 9, 56, 85
11, 19679, Note_on_c, 9, 56, 0
11, 19800, Note_on_c, 9, 56, 85
11, 20159, Note_on_c, 9, 56, 0
11, 24240, Note_on_c, 9, 56, 85
11, 24479, Note_on_c, 9, 56, 0
11, 24480, Note_on_c, 9, 56, 85
11, 24719, Note_on_c, 9, 56, 0
11, 24720, Note_on_c, 9, 56, 85
11, 24959, Note_on_c, 9, 56, 0
11, 24960, Note_on_c, 9, 56, 118
11, 25439, Note_on_c, 9, 56, 0
11, 32640, Note_on_c, 9, 56, 118
11, 33119, Note_on_c, 9, 56, 0
11, 48000, Note_on_c, 9, 56, 118
11, 48479, Note_on_c, 9, 56, 0
11, 63360, Note_on_c, 9, 56, 85
11, 63839, Note_on_c, 9, 56, 0
11, 63840, Note_on_c, 9, 56, 85
11, 64319, Note_on_c, 9, 56, 0
11, 99840, Note_on_c, 9, 56, 118
11, 100319, Note_on_c, 9, 56, 0
11, 115200, Note_on_c, 9, 56, 118
11, 115679, Note_on_c, 9, 56, 0
11, 130560, Note_on_c, 9, 56, 85
11, 131039, Note_on_c, 9, 56, 0
11, 131040, Note_on_c, 9, 56, 85
11, 131519, Note_on_c, 9, 56, 0
11, 182400, Note_on_c, 9, 56, 118
11, 182879, Note_on_c, 9, 56, 0
11, 190080, Note_on_c, 9, 56, 118
11, 190559, Note_on_c, 9, 56, 0
11, 205440, Note_on_c, 9, 56, 85
11, 205919, Note_on_c, 9, 56, 0
11, 205920, Note_on_c, 9, 56, 85
11, 206399, Note_on_c, 9, 56, 0
11, 209280, Note_on_c, 9, 56, 85
11, 209759, Note_on_c, 9, 56, 0
11, 209760, Note_on_c, 9, 56, 85
11, 210239, Note_on_c, 9, 56, 0
11, 210240, End_track
12, 0, Start_track
12, 0, Key_signature, 0, "major"
12, 0, Control_c, 9, 121, 0
12, 0, Program_c, 9, 48
12, 0, Control_c, 9, 7, 100
12, 0, Control_c, 9, 10, 64
12, 0, Control_c, 9, 91, 0
12, 0, Control_c, 9, 93, 0
12, 0, MIDI_port, 1
12, 3840, Note_on_c, 9, 56, 85
12, 4319, Note_on_c, 9, 56, 0
12, 5760, Note_on_c, 9, 56, 85
12, 6239, Note_on_c, 9, 56, 0
12, 7680, Note_on_c, 9, 56, 85
12, 8159, Note_on_c, 9, 56, 0
12, 9600, Note_on_c, 9, 56, 85
12, 10079, Note_on_c, 9, 56, 0
12, 11520, Note_on_c, 9, 56, 85
12, 11999, Note_on_c, 9, 56, 0
12, 13440, Note_on_c, 9, 56, 85
12, 13919, Note_on_c, 9, 56, 0
12, 15360, Note_on_c, 9, 56, 85
12, 15839, Note_on_c, 9, 56, 0
12, 17280, Note_on_c, 9, 56, 85
12, 17759, Note_on_c, 9, 56, 0
12, 19560, Note_on_c, 9, 56, 85
12, 19679, Note_on_c, 9, 56, 0
12, 19800, Note_on_c, 9, 56, 85
12, 19919, Note_on_c, 9, 56, 0
12, 19920, Note_on_c, 9, 56, 85
12, 20159, Note_on_c, 9, 56, 0
12, 24360, Note_on_c, 9, 56, 85
12, 24479, Note_on_c, 9, 56, 0
12, 24600, Note_on_c, 9, 56, 85
12, 24839, Note_on_c, 9, 56, 0
12, 24840, Note_on_c, 9, 56, 85
12, 24959, Note_on_c, 9, 56, 0
12, 25200, Note_on_c, 9, 56, 124
12, 25439, Note_on_c, 9, 56, 0
12, 25680, Note_on_c, 9, 56, 85
12, 25919, Note_on_c, 9, 56, 0
12, 26160, Note_on_c, 9, 56, 124
12, 26399, Note_on_c, 9, 56, 0
12, 26640, Note_on_c, 9, 56, 85
12, 26879, Note_on_c, 9, 56, 0
12, 27120, Note_on_c, 9, 56, 124
12, 27359, Note_on_c, 9, 56, 0
12, 27600, Note_on_c, 9, 56, 85
12, 27839, Note_on_c, 9, 56, 0
12, 28080, Note_on_c, 9, 56, 124
12, 28319, Note_on_c, 9, 56, 0
12, 28560, Note_on_c, 9, 56, 85
12, 28799, Note_on_c, 9, 56, 0
12, 29040, Note_on_c, 9, 56, 124
12, 29279, Note_on_c, 9, 56, 0
12, 29520, Note_on_c, 9, 56, 85
12, 29759, Note_on_c, 9, 56, 0
12, 30000, Note_on_c, 9, 56, 124
12, 30239, Note_on_c, 9, 56, 0
12, 30480, Note_on_c, 9, 56, 85
12, 30719, Note_on_c, 9, 56, 0
12, 30960, Note_on_c, 9, 56, 124
12, 31199, Note_on_c, 9, 56, 0
12, 31440, Note_on_c, 9, 56, 85
12, 31679, Note_on_c, 9, 56, 0
12, 31920, Note_on_c, 9, 56, 124
12, 32159, Note_on_c, 9, 56, 0
12, 32400, Note_on_c, 9, 56, 85
12, 32639, Note_on_c, 9, 56, 0
12, 32880, Note_on_c, 9, 56, 124
12, 33119, Note_on_c, 9, 56, 0
12, 33360, Note_on_c, 9, 56, 85
12, 33599, Note_on_c, 9, 56, 0
12, 33840, Note_on_c, 9, 56, 124
12, 34079, Note_on_c, 9, 56, 0
12, 34320, Note_on_c, 9, 56, 85
12, 34559, Note_on_c, 9, 56, 0
12, 34800, Note_on_c, 9, 56, 124
12, 35039, Note_on_c, 9, 56, 0
12, 35280, Note_on_c, 9, 56, 85
12, 35519, Note_on_c, 9, 56, 0
12, 35760, Note_on_c, 9, 56, 124
12, 35999, Note_on_c, 9, 56, 0
12, 36240, Note_on_c, 9, 56, 85
12, 36479, Note_on_c, 9, 56, 0
12, 36720, Note_on_c, 9, 56, 124
12, 36959, Note_on_c, 9, 56, 0
12, 37200, Note_on_c, 9, 56, 85
12, 37439, Note_on_c, 9, 56, 0
12, 37680, Note_on_c, 9, 56, 124
12, 37919, Note_on_c, 9, 56, 0
12, 38160, Note_on_c, 9, 56, 85
12, 38399, Note_on_c, 9, 56, 0
12, 38640, Note_on_c, 9, 56, 124
12, 38879, Note_on_c, 9, 56, 0
12, 39120, Note_on_c, 9, 56, 85
12, 39359, Note_on_c, 9, 56, 0
12, 39600, Note_on_c, 9, 56, 124
12, 39839, Note_on_c, 9, 56, 0
12, 40080, Note_on_c, 9, 56, 85
12, 40319, Note_on_c, 9, 56, 0
12, 40560, Note_on_c, 9, 56, 124
12, 40799, Note_on_c, 9, 56, 0
12, 41040, Note_on_c, 9, 56, 85
12, 41279, Note_on_c, 9, 56, 0
12, 41520, Note_on_c, 9, 56, 124
12, 41759, Note_on_c, 9, 56, 0
12, 42000, Note_on_c, 9, 56, 85
12, 42239, Note_on_c, 9, 56, 0
12, 42480, Note_on_c, 9, 56, 124
12, 42719, Note_on_c, 9, 56, 0
12, 42960, Note_on_c, 9, 56, 85
12, 43199, Note_on_c, 9, 56, 0
12, 43440, Note_on_c, 9, 56, 124
12, 43679, Note_on_c, 9, 56, 0
12, 43920, Note_on_c, 9, 56, 85
12, 44159, Note_on_c, 9, 56, 0
12, 44400, Note_on_c, 9, 56, 124
12, 44639, Note_on_c, 9, 56, 0
12, 44880, Note_on_c, 9, 56, 85
12, 45119, Note_on_c, 9, 56, 0
12, 45360, Note_on_c, 9, 56, 124
12, 45599, Note_on_c, 9, 56, 0
12, 45840, Note_on_c, 9, 56, 85
12, 46079, Note_on_c, 9, 56, 0
12, 46320, Note_on_c, 9, 56, 124
12, 46559, Note_on_c, 9, 56, 0
12, 46800, Note_on_c, 9, 56, 85
12, 47039, Note_on_c, 9, 56, 0
12, 47280, Note_on_c, 9, 56, 124
12, 47519, Note_on_c, 9, 56, 0
12, 47760, Note_on_c, 9, 56, 85
12, 47999, Note_on_c, 9, 56, 0
12, 48240, Note_on_c, 9, 56, 124
12, 48479, Note_on_c, 9, 56, 0
12, 48720, Note_on_c, 9, 56, 85
12, 48959, Note_on_c, 9, 56, 0
12, 49200, Note_on_c, 9, 56, 124
12, 49439, Note_on_c, 9, 56, 0
12, 49680, Note_on_c, 9, 56, 85
12, 49919, Note_on_c, 9, 56, 0
12, 50160, Note_on_c, 9, 56, 124
12, 50399, Note_on_c, 9, 56, 0
12, 50640, Note_on_c, 9, 56, 85
12, 50879, Note_on_c, 9, 56, 0
12, 51120, Note_on_c, 9, 56, 124
12, 51359, Note_on_c, 9, 56, 0
12, 51600, Note_on_c, 9, 56, 85
12, 51839, Note_on_c, 9, 56, 0
12, 52080, Note_on_c, 9, 56, 124
12, 52319, Note_on_c, 9, 56, 0
12, 52560, Note_on_c, 9, 56, 85
12, 52799, Note_on_c, 9, 56, 0
12, 53040, Note_on_c, 9, 56, 124
12, 53279, Note_on_c, 9, 56, 0
12, 53520, Note_on_c, 9, 56, 85
12, 53759, Note_on_c, 9, 56, 0
12, 54000, Note_on_c, 9, 56, 124
12, 54239, Note_on_c, 9, 56, 0
12, 54480, Note_on_c, 9, 56, 85
12, 54719, Note_on_c, 9, 56, 0
12, 54960, Note_on_c, 9, 56, 124
12, 55199, Note_on_c, 9, 56, 0
12, 55440, Note_on_c, 9, 56, 85
12, 55679, Note_on_c, 9, 56, 0
12, 55920, Note_on_c, 9, 56, 124
12, 56159, Note_on_c, 9, 56, 0
12, 56400, Note_on_c, 9, 56, 85
12, 56639, Note_on_c, 9, 56, 0
12, 56880, Note_on_c, 9, 56, 124
12, 57119, Note_on_c, 9, 56, 0
12, 57360, Note_on_c, 9, 56, 85
12, 57599, Note_on_c, 9, 56, 0
12, 57840, Note_on_c, 9, 56, 124
12, 58079, Note_on_c, 9, 56, 0
12, 58320, Note_on_c, 9, 56, 85
12, 58559, Note_on_c, 9, 56, 0
12, 58800, Note_on_c, 9, 56, 124
12, 59039, Note_on_c, 9, 56, 0
12, 59280, Note_on_c, 9, 56, 85
12, 59519, Note_on_c, 9, 56, 0
12, 59760, Note_on_c, 9, 56, 124
12, 59999, Note_on_c, 9, 56, 0
12, 60240, Note_on_c, 9, 56, 85
12, 60479, Note_on_c, 9, 56, 0
12, 60720, Note_on_c, 9, 56, 124
12, 60959, Note_on_c, 9, 56, 0
12, 61200, Note_on_c, 9, 56, 85
12, 61439, Note_on_c, 9, 56, 0
12, 61680, Note_on_c, 9, 56, 124
12, 61919, Note_on_c, 9, 56, 0
12, 62160, Note_on_c, 9, 56, 85
12, 62399, Note_on_c, 9, 56, 0
12, 62640, Note_on_c, 9, 56, 124
12, 62879, Note_on_c, 9, 56, 0
12, 63120, Note_on_c, 9, 56, 85
12, 63359, Note_on_c, 9, 56, 0
12, 63495, Note_on_c, 9, 56, 85
12, 63539, Note_on_c, 9, 56, 0
12, 63975, Note_on_c, 9, 56, 85
12, 64019, Note_on_c, 9, 56, 0
12, 65520, Note_on_c, 9, 56, 124
12, 65759, Note_on_c, 9, 56, 0
12, 66000, Note_on_c, 9, 56, 85
12, 66239, Note_on_c, 9, 56, 0
12, 66480, Note_on_c, 9, 56, 124
12, 66719, Note_on_c, 9, 56, 0
12, 66960, Note_on_c, 9, 56, 85
12, 67199, Note_on_c, 9, 56, 0
12, 67440, Note_on_c, 9, 56, 124
12, 67679, Note_on_c, 9, 56, 0
12, 67920, Note_on_c, 9, 56, 85
12, 68159, Note_on_c, 9, 56, 0
12, 68400, Note_on_c, 9, 56, 124
12, 68639, Note_on_c, 9, 56, 0
12, 68880, Note_on_c, 9, 56, 85
12, 69119, Note_on_c, 9, 56, 0
12, 69360, Note_on_c, 9, 56, 124
12, 69599, Note_on_c, 9, 56, 0
12, 69840, Note_on_c, 9, 56, 85
12, 70079, Note_on_c, 9, 56, 0
12, 70320, Note_on_c, 9, 56, 124
12, 70559, Note_on_c, 9, 56, 0
12, 70800, Note_on_c, 9, 56, 85
12, 71039, Note_on_c, 9, 56, 0
12, 71280, Note_on_c, 9, 56, 124
12, 71519, Note_on_c, 9, 56, 0
12, 71760, Note_on_c, 9, 56, 85
12, 71999, Note_on_c, 9, 56, 0
12, 72240, Note_on_c, 9, 56, 124
12, 72479, Note_on_c, 9, 56, 0
12, 72720, Note_on_c, 9, 56, 85
12, 72959, Note_on_c, 9, 56, 0
12, 73200, Note_on_c, 9, 56, 124
12, 73439, Note_on_c, 9, 56, 0
12, 73680, Note_on_c, 9, 56, 85
12, 73919, Note_on_c, 9, 56, 0
12, 74160, Note_on_c, 9, 56, 124
12, 74399, Note_on_c, 9, 56, 0
12, 74640, Note_on_c, 9, 56, 85
12, 74879, Note_on_c, 9, 56, 0
12, 75120, Note_on_c, 9, 56, 124
12, 75359, Note_on_c, 9, 56, 0
12, 75600, Note_on_c, 9, 56, 85
12, 75839, Note_on_c, 9, 56, 0
12, 76080, Note_on_c, 9, 56, 124
12, 76319, Note_on_c, 9, 56, 0
12, 76560, Note_on_c, 9, 56, 85
12, 76799, Note_on_c, 9, 56, 0
12, 77040, Note_on_c, 9, 56, 124
12, 77279, Note_on_c, 9, 56, 0
12, 77520, Note_on_c, 9, 56, 85
12, 77759, Note_on_c, 9, 56, 0
12, 78000, Note_on_c, 9, 56, 124
12, 78239, Note_on_c, 9, 56, 0
12, 78480, Note_on_c, 9, 56, 85
12, 78719, Note_on_c, 9, 56, 0
12, 78960, Note_on_c, 9, 56, 124
12, 79199, Note_on_c, 9, 56, 0
12, 79440, Note_on_c, 9, 56, 85
12, 79679, Note_on_c, 9, 56, 0
12, 79920, Note_on_c, 9, 56, 124
12, 80159, Note_on_c, 9, 56, 0
12, 80400, Note_on_c, 9, 56, 85
12, 80639, Note_on_c, 9, 56, 0
12, 80880, Note_on_c, 9, 56, 124
12, 81119, Note_on_c, 9, 56, 0
12, 81360, Note_on_c, 9, 56, 85
12, 81599, Note_on_c, 9, 56, 0
12, 81840, Note_on_c, 9, 56, 124
12, 82079, Note_on_c, 9, 56, 0
12, 82320, Note_on_c, 9, 56, 85
12, 82559, Note_on_c, 9, 56, 0
12, 82800, Note_on_c, 9, 56, 124
12, 83039, Note_on_c, 9, 56, 0
12, 83280, Note_on_c, 9, 56, 85
12, 83519, Note_on_c, 9, 56, 0
12, 83760, Note_on_c, 9, 56, 124
12, 83999, Note_on_c, 9, 56, 0
12, 84240, Note_on_c, 9, 56, 85
12, 84479, Note_on_c, 9, 56, 0
12, 84720, Note_on_c, 9, 56, 124
12, 84959, Note_on_c, 9, 56, 0
12, 85200, Note_on_c, 9, 56, 85
12, 85439, Note_on_c, 9, 56, 0
12, 85680, Note_on_c, 9, 56, 124
12, 85919, Note_on_c, 9, 56, 0
12, 86160, Note_on_c, 9, 56, 85
12, 86399, Note_on_c, 9, 56, 0
12, 86640, Note_on_c, 9, 56, 124
12, 86879, Note_on_c, 9, 56, 0
12, 87120, Note_on_c, 9, 56, 85
12, 87359, Note_on_c, 9, 56, 0
12, 87600, Note_on_c, 9, 56, 124
12, 87839, Note_on_c, 9, 56, 0
12, 88080, Note_on_c, 9, 56, 85
12, 88319, Note_on_c, 9, 56, 0
12, 88560, Note_on_c, 9, 56, 124
12, 88799, Note_on_c, 9, 56, 0
12, 89040, Note_on_c, 9, 56, 85
12, 89279, Note_on_c, 9, 56, 0
12, 89520, Note_on_c, 9, 56, 124
12, 89759, Note_on_c, 9, 56, 0
12, 90000, Note_on_c, 9, 56, 85
12, 90239, Note_on_c, 9, 56, 0
12, 90480, Note_on_c, 9, 56, 124
12, 90719, Note_on_c, 9, 56, 0
12, 90960, Note_on_c, 9, 56, 85
12, 91199, Note_on_c, 9, 56, 0
12, 91440, Note_on_c, 9, 56, 124
12, 91679, Note_on_c, 9, 56, 0
12, 91920, Note_on_c, 9, 56, 85
12, 92159, Note_on_c, 9, 56, 0
12, 92400, Note_on_c, 9, 56, 124
12, 92639, Note_on_c, 9, 56, 0
12, 92880, Note_on_c, 9, 56, 85
12, 93119, Note_on_c, 9, 56, 0
12, 93360, Note_on_c, 9, 56, 124
12, 93599, Note_on_c, 9, 56, 0
12, 93840, Note_on_c, 9, 56, 85
12, 94079, Note_on_c, 9, 56, 0
12, 94320, Note_on_c, 9, 56, 124
12, 94559, Note_on_c, 9, 56, 0
12, 94800, Note_on_c, 9, 56, 85
12, 95039, Note_on_c, 9, 56, 0
12, 95280, Note_on_c, 9, 56, 124
12, 95519, Note_on_c, 9, 56, 0
12, 95760, Note_on_c, 9, 56, 85
12, 95999, Note_on_c, 9, 56, 0
12, 96240, Note_on_c, 9, 56, 124
12, 96479, Note_on_c, 9, 56, 0
12, 96720, Note_on_c, 9, 56, 85
12, 96959, Note_on_c, 9, 56, 0
12, 97200, Note_on_c, 9, 56, 124
12, 97439, Note_on_c, 9, 56, 0
12, 97680, Note_on_c, 9, 56, 85
12, 97919, Note_on_c, 9, 56, 0
12, 98160, Note_on_c, 9, 56, 124
12, 98399, Note_on_c, 9, 56, 0
12, 98640, Note_on_c, 9, 56, 85
12, 98879, Note_on_c, 9, 56, 0
12, 99120, Note_on_c, 9, 56, 124
12, 99359, Note_on_c, 9, 56, 0
12, 99600, Note_on_c, 9, 56, 85
12, 99839, Note_on_c, 9, 56, 0
12, 100080, Note_on_c, 9, 56, 124
12, 100319, Note_on_c, 9, 56, 0
12, 100560, Note_on_c, 9, 56, 85
12, 100799, Note_on_c, 9, 56, 0
12, 101040, Note_on_c, 9, 56, 124
12, 101279, Note_on_c, 9, 56, 0
12, 101520, Note_on_c, 9, 56, 85
12, 101759, Note_on_c, 9, 56, 0
12, 102000, Note_on_c, 9, 56, 124
12, 102239, Note_on_c, 9, 56, 0
12, 102480, Note_on_c, 9, 56, 85
12, 102719, Note_on_c, 9, 56, 0
12, 102960, Note_on_c, 9, 56, 124
12, 103199, Note_on_c, 9, 56, 0
12, 103440, Note_on_c, 9, 56, 85
12, 103679, Note_on_c, 9, 56, 0
12, 103920, Note_on_c, 9, 56, 124
12, 104159, Note_on_c, 9, 56, 0
12, 104400, Note_on_c, 9, 56, 85
12, 104639, Note_on_c, 9, 56, 0
12, 104880, Note_on_c, 9, 56, 124
12, 105119, Note_on_c, 9, 56, 0
12, 105360, Note_on_c, 9, 56, 85
12, 105599, Note_on_c, 9, 56, 0
12, 105840, Note_on_c, 9, 56, 124
12, 106079, Note_on_c, 9, 56, 0
12, 106320, Note_on_c, 9, 56, 85
12, 106559, Note_on_c, 9, 56, 0
12, 106800, Note_on_c, 9, 56, 124
12, 107039, Note_on_c, 9, 56, 0
12, 107280, Note_on_c, 9, 56, 85
12, 107519, Note_on_c, 9, 56, 0
12, 107760, Note_on_c, 9, 56, 124
12, 107999, Note_on_c, 9, 56, 0
12, 108240, Note_on_c, 9, 56, 85
12, 108479, Note_on_c, 9, 56, 0
12, 108720, Note_on_c, 9, 56, 124
12, 108959, Note_on_c, 9, 56, 0
12, 109200, Note_on_c, 9, 56, 85
12, 109439, Note_on_c, 9, 56, 0
12, 109680, Note_on_c, 9, 56, 124
12, 109919, Note_on_c, 9, 56, 0
12, 110160, Note_on_c, 9, 56, 85
12, 110399, Note_on_c, 9, 56, 0
12, 110640, Note_on_c, 9, 56, 124
12, 110879, Note_on_c, 9, 56, 0
12, 111120, Note_on_c, 9, 56, 85
12, 111359, Note_on_c, 9, 56, 0
12, 111600, Note_on_c, 9, 56, 124
12, 111839, Note_on_c, 9, 56, 0
12, 112080, Note_on_c, 9, 56, 85
12, 112319, Note_on_c, 9, 56, 0
12, 112560, Note_on_c, 9, 56, 124
12, 112799, Note_on_c, 9, 56, 0
12, 113040, Note_on_c, 9, 56, 85
12, 113279, Note_on_c, 9, 56, 0
12, 113520, Note_on_c, 9, 56, 124
12, 113759, Note_on_c, 9, 56, 0
12, 114000, Note_on_c, 9, 56, 85
12, 114239, Note_on_c, 9, 56, 0
12, 114480, Note_on_c, 9, 56, 124
12, 114719, Note_on_c, 9, 56, 0
12, 114960, Note_on_c, 9, 56, 85
12, 115199, Note_on_c, 9, 56, 0
12, 115440, Note_on_c, 9, 56, 124
12, 115679, Note_on_c, 9, 56, 0
12, 115920, Note_on_c, 9, 56, 85
12, 116159, Note_on_c, 9, 56, 0
12, 116400, Note_on_c, 9, 56, 124
12, 116639, Note_on_c, 9, 56, 0
12, 116880, Note_on_c, 9, 56, 85
12, 117119, Note_on_c, 9, 56, 0
12, 117360, Note_on_c, 9, 56, 124
12, 117599, Note_on_c, 9, 56, 0
12, 117840, Note_on_c, 9, 56, 85
12, 118079, Note_on_c, 9, 56, 0
12, 118320, Note_on_c, 9, 56, 124
12, 118559, Note_on_c, 9, 56, 0
12, 118800, Note_on_c, 9, 56, 85
12, 119039, Note_on_c, 9, 56, 0
12, 119280, Note_on_c, 9, 56, 124
12, 119519, Note_on_c, 9, 56, 0
12, 119760, Note_on_c, 9, 56, 85
12, 119999, Note_on_c, 9, 56, 0
12, 120240, Note_on_c, 9, 56, 124
12, 120479, Note_on_c, 9, 56, 0
12, 120720, Note_on_c, 9, 56, 85
12, 120959, Note_on_c, 9, 56, 0
12, 121200, Note_on_c, 9, 56, 124
12, 121439, Note_on_c, 9, 56, 0
12, 121680, Note_on_c, 9, 56, 85
12, 121919, Note_on_c, 9, 56, 0
12, 122160, Note_on_c, 9, 56, 124
12, 122399, Note_on_c, 9, 56, 0
12, 122640, Note_on_c, 9, 56, 85
12, 122879, Note_on_c, 9, 56, 0
12, 123120, Note_on_c, 9, 56, 124
12, 123359, Note_on_c, 9, 56, 0
12, 123600, Note_on_c, 9, 56, 85
12, 123839, Note_on_c, 9, 56, 0
12, 124080, Note_on_c, 9, 56, 124
12, 124319, Note_on_c, 9, 56, 0
12, 124560, Note_on_c, 9, 56, 85
12, 124799, Note_on_c, 9, 56, 0
12, 125040, Note_on_c, 9, 56, 124
12, 125279, Note_on_c, 9, 56, 0
12, 125520, Note_on_c, 9, 56, 85
12, 125759, Note_on_c, 9, 56, 0
12, 126000, Note_on_c, 9, 56, 124
12, 126239, Note_on_c, 9, 56, 0
12, 126480, Note_on_c, 9, 56, 85
12, 126719, Note_on_c, 9, 56, 0
12, 126960, Note_on_c, 9, 56, 124
12, 127199, Note_on_c, 9, 56, 0
12, 127440, Note_on_c, 9, 56, 85
12, 127679, Note_on_c, 9, 56, 0
12, 127920, Note_on_c, 9, 56, 124
12, 128159, Note_on_c, 9, 56, 0
12, 128400, Note_on_c, 9, 56, 85
12, 128639, Note_on_c, 9, 56, 0
12, 128880, Note_on_c, 9, 56, 124
12, 129119, Note_on_c, 9, 56, 0
12, 129360, Note_on_c, 9, 56, 85
12, 129599, Note_on_c, 9, 56, 0
12, 129840, Note_on_c, 9, 56, 124
12, 130079, Note_on_c, 9, 56, 0
12, 130320, Note_on_c, 9, 56, 85
12, 130559, Note_on_c, 9, 56, 0
12, 130695, Note_on_c, 9, 56, 85
12, 130739, Note_on_c, 9, 56, 0
12, 131175, Note_on_c, 9, 56, 85
12, 131219, Note_on_c, 9, 56, 0
12, 132720, Note_on_c, 9, 56, 124
12, 132959, Note_on_c, 9, 56, 0
12, 133200, Note_on_c, 9, 56, 85
12, 133439, Note_on_c, 9, 56, 0
12, 133680, Note_on_c, 9, 56, 124
12, 133919, Note_on_c, 9, 56, 0
12, 134160, Note_on_c, 9, 56, 85
12, 134399, Note_on_c, 9, 56, 0
12, 134640, Note_on_c, 9, 56, 124
12, 134879, Note_on_c, 9, 56, 0
12, 135120, Note_on_c, 9, 56, 85
12, 135359, Note_on_c, 9, 56, 0
12, 135600, Note_on_c, 9, 56, 124
12, 135839, Note_on_c, 9, 56, 0
12, 136080, Note_on_c, 9, 56, 85
12, 136319, Note_on_c, 9, 56, 0
12, 136560, Note_on_c, 9, 56, 124
12, 136799, Note_on_c, 9, 56, 0
12, 137040, Note_on_c, 9, 56, 85
12, 137279, Note_on_c, 9, 56, 0
12, 137520, Note_on_c, 9, 56, 124
12, 137759, Note_on_c, 9, 56, 0
12, 138000, Note_on_c, 9, 56, 85
12, 138239, Note_on_c, 9, 56, 0
12, 138480, Note_on_c, 9, 56, 124
12, 138719, Note_on_c, 9, 56, 0
12, 138960, Note_on_c, 9, 56, 85
12, 139199, Note_on_c, 9, 56, 0
12, 139440, Note_on_c, 9, 56, 124
12, 139679, Note_on_c, 9, 56, 0
12, 139920, Note_on_c, 9, 56, 85
12, 140159, Note_on_c, 9, 56, 0
12, 140400, Note_on_c, 9, 56, 124
12, 140639, Note_on_c, 9, 56, 0
12, 140880, Note_on_c, 9, 56, 85
12, 141119, Note_on_c, 9, 56, 0
12, 141360, Note_on_c, 9, 56, 124
12, 141599, Note_on_c, 9, 56, 0
12, 141840, Note_on_c, 9, 56, 85
12, 142079, Note_on_c, 9, 56, 0
12, 142320, Note_on_c, 9, 56, 124
12, 142559, Note_on_c, 9, 56, 0
12, 142800, Note_on_c, 9, 56, 85
12, 143039, Note_on_c, 9, 56, 0
12, 143280, Note_on_c, 9, 56, 124
12, 143519, Note_on_c, 9, 56, 0
12, 143760, Note_on_c, 9, 56, 85
12, 143999, Note_on_c, 9, 56, 0
12, 144240, Note_on_c, 9, 56, 124
12, 144479, Note_on_c, 9, 56, 0
12, 144720, Note_on_c, 9, 56, 85
12, 144959, Note_on_c, 9, 56, 0
12, 145200, Note_on_c, 9, 56, 124
12, 145439, Note_on_c, 9, 56, 0
12, 145680, Note_on_c, 9, 56, 85
12, 145919, Note_on_c, 9, 56, 0
12, 146160, Note_on_c, 9, 56, 124
12, 146399, Note_on_c, 9, 56, 0
12, 146640, Note_on_c, 9, 56, 85
12, 146879, Note_on_c, 9, 56, 0
12, 147120, Note_on_c, 9, 56, 124
12, 147359, Note_on_c, 9, 56, 0
12, 147600, Note_on_c, 9, 56, 85
12, 147839, Note_on_c, 9, 56, 0
12, 148080, Note_on_c, 9, 56, 124
12, 148319, Note_on_c, 9, 56, 0
12, 148560, Note_on_c, 9, 56, 85
12, 148799, Note_on_c, 9, 56, 0
12, 149040, Note_on_c, 9, 56, 124
12, 149279, Note_on_c, 9, 56, 0
12, 149520, Note_on_c, 9, 56, 85
12, 149759, Note_on_c, 9, 56, 0
12, 150000, Note_on_c, 9, 56, 124
12, 150239, Note_on_c, 9, 56, 0
12, 150480, Note_on_c, 9, 56, 85
12, 150719, Note_on_c, 9, 56, 0
12, 150960, Note_on_c, 9, 56, 124
12, 151199, Note_on_c, 9, 56, 0
12, 151440, Note_on_c, 9, 56, 85
12, 151679, Note_on_c, 9, 56, 0
12, 151920, Note_on_c, 9, 56, 124
12, 152159, Note_on_c, 9, 56, 0
12, 152400, Note_on_c, 9, 56, 85
12, 152639, Note_on_c, 9, 56, 0
12, 152880, Note_on_c, 9, 56, 124
12, 153119, Note_on_c, 9, 56, 0
12, 153360, Note_on_c, 9, 56, 85
12, 153599, Note_on_c, 9, 56, 0
12, 153840, Note_on_c, 9, 56, 124
12, 154079, Note_on_c, 9, 56, 0
12, 154320, Note_on_c, 9, 56, 85
12, 154559, Note_on_c, 9, 56, 0
12, 154800, Note_on_c, 9, 56, 124
12, 155039, Note_on_c, 9, 56, 0
12, 155280, Note_on_c, 9, 56, 85
12, 155519, Note_on_c, 9, 56, 0
12, 155760, Note_on_c, 9, 56, 124
12, 155999, Note_on_c, 9, 56, 0
12, 156240, Note_on_c, 9, 56, 85
12, 156479, Note_on_c, 9, 56, 0
12, 156720, Note_on_c, 9, 56, 124
12, 156959, Note_on_c, 9, 56, 0
12, 157200, Note_on_c, 9, 56, 85
12, 157439, Note_on_c, 9, 56, 0
12, 157680, Note_on_c, 9, 56, 124
12, 157919, Note_on_c, 9, 56, 0
12, 158160, Note_on_c, 9, 56, 85
12, 158399, Note_on_c, 9, 56, 0
12, 158640, Note_on_c, 9, 56, 124
12, 158879, Note_on_c, 9, 56, 0
12, 159120, Note_on_c, 9, 56, 85
12, 159359, Note_on_c, 9, 56, 0
12, 159840, Note_on_c, 9, 56, 124
12, 160319, Note_on_c, 9, 56, 0
12, 160800, Note_on_c, 9, 56, 124
12, 161279, Note_on_c, 9, 56, 0
12, 161760, Note_on_c, 9, 56, 124
12, 162239, Note_on_c, 9, 56, 0
12, 162720, Note_on_c, 9, 56, 124
12, 163199, Note_on_c, 9, 56, 0
12, 163680, Note_on_c, 9, 56, 124
12, 164159, Note_on_c, 9, 56, 0
12, 164640, Note_on_c, 9, 56, 124
12, 165119, Note_on_c, 9, 56, 0
12, 165600, Note_on_c, 9, 56, 124
12, 166079, Note_on_c, 9, 56, 0
12, 166560, Note_on_c, 9, 56, 124
12, 167039, Note_on_c, 9, 56, 0
12, 167520, Note_on_c, 9, 56, 124
12, 167999, Note_on_c, 9, 56, 0
12, 168480, Note_on_c, 9, 56, 124
12, 168959, Note_on_c, 9, 56, 0
12, 169440, Note_on_c, 9, 56, 124
12, 169919, Note_on_c, 9, 56, 0
12, 170400, Note_on_c, 9, 56, 124
12, 170879, Note_on_c, 9, 56, 0
12, 171360, Note_on_c, 9, 56, 124
12, 171839, Note_on_c, 9, 56, 0
12, 172320, Note_on_c, 9, 56, 124
12, 172799, Note_on_c, 9, 56, 0
12, 173280, Note_on_c, 9, 56, 124
12, 173759, Note_on_c, 9, 56, 0
12, 174240, Note_on_c, 9, 56, 124
12, 174719, Note_on_c, 9, 56, 0
12, 174960, Note_on_c, 9, 56, 124
12, 175199, Note_on_c, 9, 56, 0
12, 175440, Note_on_c, 9, 56, 85
12, 175679, Note_on_c, 9, 56, 0
12, 175920, Note_on_c, 9, 56, 124
12, 176159, Note_on_c, 9, 56, 0
12, 176400, Note_on_c, 9, 56, 85
12, 176639, Note_on_c, 9, 56, 0
12, 176880, Note_on_c, 9, 56, 124
12, 177119, Note_on_c, 9, 56, 0
12, 177360, Note_on_c, 9, 56, 85
12, 177599, Note_on_c, 9, 56, 0
12, 177840, Note_on_c, 9, 56, 124
12, 178079, Note_on_c, 9, 56, 0
12, 178320, Note_on_c, 9, 56, 85
12, 178559, Note_on_c, 9, 56, 0
12, 178800, Note_on_c, 9, 56, 124
12, 179039, Note_on_c, 9, 56, 0
12, 179280, Note_on_c, 9, 56, 85
12, 179519, Note_on_c, 9, 56, 0
12, 179760, Note_on_c, 9, 56, 124
12, 179999, Note_on_c, 9, 56, 0
12, 180240, Note_on_c, 9, 56, 85
12, 180479, Note_on_c, 9, 56, 0
12, 180720, Note_on_c, 9, 56, 124
12, 180959, Note_on_c, 9, 56, 0
12, 181200, Note_on_c, 9, 56, 85
12, 181439, Note_on_c, 9, 56, 0
12, 181680, Note_on_c, 9, 56, 124
12, 181919, Note_on_c, 9, 56, 0
12, 182160, Note_on_c, 9, 56, 85
12, 182399, Note_on_c, 9, 56, 0
12, 182640, Note_on_c, 9, 56, 124
12, 182879, Note_on_c, 9, 56, 0
12, 183120, Note_on_c, 9, 56, 85
12, 183359, Note_on_c, 9, 56, 0
12, 183600, Note_on_c, 9, 56, 124
12, 183839, Note_on_c, 9, 56, 0
12, 184080, Note_on_c, 9, 56, 85
12, 184319, Note_on_c, 9, 56, 0
12, 184560, Note_on_c, 9, 56, 124
12, 184799, Note_on_c, 9, 56, 0
12, 185040, Note_on_c, 9, 56, 85
12, 185279, Note_on_c, 9, 56, 0
12, 185520, Note_on_c, 9, 56, 124
12, 185759, Note_on_c, 9, 56, 0
12, 186000, Note_on_c, 9, 56, 85
12, 186239, Note_on_c, 9, 56, 0
12, 186480, Note_on_c, 9, 56, 124
12, 186719, Note_on_c, 9, 56, 0
12, 186960, Note_on_c, 9, 56, 85
12, 187199, Note_on_c, 9, 56, 0
12, 187440, Note_on_c, 9, 56, 124
12, 187679, Note_on_c, 9, 56, 0
12, 187920, Note_on_c, 9, 56, 85
12, 188159, Note_on_c, 9, 56, 0
12, 188400, Note_on_c, 9, 56, 124
12, 188639, Note_on_c, 9, 56, 0
12, 188880, Note_on_c, 9, 56, 85
12, 189119, Note_on_c, 9, 56, 0
12, 189360, Note_on_c, 9, 56, 124
12, 189599, Note_on_c, 9, 56, 0
12, 189840, Note_on_c, 9, 56, 85
12, 190079, Note_on_c, 9, 56, 0
12, 190320, Note_on_c, 9, 56, 124
12, 190559, Note_on_c, 9, 56, 0
12, 190800, Note_on_c, 9, 56, 85
12, 191039, Note_on_c, 9, 56, 0
12, 191280, Note_on_c, 9, 56, 124
12, 191519, Note_on_c, 9, 56, 0
12, 191760, Note_on_c, 9, 56, 85
12, 191999, Note_on_c, 9, 56, 0
12, 192240, Note_on_c, 9, 56, 124
12, 192479, Note_on_c, 9, 56, 0
12, 192720, Note_on_c, 9, 56, 85
12, 192959, Note_on_c, 9, 56, 0
12, 193200, Note_on_c, 9, 56, 124
12, 193439, Note_on_c, 9, 56, 0
12, 193680, Note_on_c, 9, 56, 85
12, 193919, Note_on_c, 9, 56, 0
12, 194160, Note_on_c, 9, 56, 124
12, 194399, Note_on_c, 9, 56, 0
12, 194640, Note_on_c, 9, 56, 85
12, 194879, Note_on_c, 9, 56, 0
12, 195120, Note_on_c, 9, 56, 124
12, 195359, Note_on_c, 9, 56, 0
12, 195600, Note_on_c, 9, 56, 85
12, 195839, Note_on_c, 9, 56, 0
12, 196080, Note_on_c, 9, 56, 124
12, 196319, Note_on_c, 9, 56, 0
12, 196560, Note_on_c, 9, 56, 85
12, 196799, Note_on_c, 9, 56, 0
12, 197040, Note_on_c, 9, 56, 124
12, 197279, Note_on_c, 9, 56, 0
12, 197520, Note_on_c, 9, 56, 85
12, 197759, Note_on_c, 9, 56, 0
12, 198000, Note_on_c, 9, 56, 124
12, 198239, Note_on_c, 9, 56, 0
12, 198480, Note_on_c, 9, 56, 85
12, 198719, Note_on_c, 9, 56, 0
12, 198960, Note_on_c, 9, 56, 124
12, 199199, Note_on_c, 9, 56, 0
12, 199440, Note_on_c, 9, 56, 85
12, 199679, Note_on_c, 9, 56, 0
12, 199920, Note_on_c, 9, 56, 124
12, 200159, Note_on_c, 9, 56, 0
12, 200400, Note_on_c, 9, 56, 85
12, 200639, Note_on_c, 9, 56, 0
12, 200880, Note_on_c, 9, 56, 124
12, 201119, Note_on_c, 9, 56, 0
12, 201360, Note_on_c, 9, 56, 85
12, 201599, Note_on_c, 9, 56, 0
12, 201840, Note_on_c, 9, 56, 124
12, 202079, Note_on_c, 9, 56, 0
12, 202320, Note_on_c, 9, 56, 85
12, 202559, Note_on_c, 9, 56, 0
12, 202800, Note_on_c, 9, 56, 124
12, 203039, Note_on_c, 9, 56, 0
12, 203280, Note_on_c, 9, 56, 85
12, 203519, Note_on_c, 9, 56, 0
12, 203760, Note_on_c, 9, 56, 124
12, 203999, Note_on_c, 9, 56, 0
12, 204240, Note_on_c, 9, 56, 85
12, 204479, Note_on_c, 9, 56, 0
12, 204720, Note_on_c, 9, 56, 124
12, 204959, Note_on_c, 9, 56, 0
12, 205200, Note_on_c, 9, 56, 85
12, 205439, Note_on_c, 9, 56, 0
12, 205575, Note_on_c, 9, 56, 85
12, 205619, Note_on_c, 9, 56, 0
12, 206055, Note_on_c, 9, 56, 85
12, 206099, Note_on_c, 9, 56, 0
12, 209415, Note_on_c, 9, 56, 85
12, 209459, Note_on_c, 9, 56, 0
12, 209895, Note_on_c, 9, 56, 85
12, 209939, Note_on_c, 9, 56, 0
12, 211440, Note_on_c, 9, 56, 124
12, 211679, Note_on_c, 9, 56, 0
12, 211920, Note_on_c, 9, 56, 85
12, 212159, Note_on_c, 9, 56, 0
12, 212400, Note_on_c, 9, 56, 124
12, 212639, Note_on_c, 9, 56, 0
12, 212880, Note_on_c, 9, 56, 85
12, 213119, Note_on_c, 9, 56, 0
12, 213360, Note_on_c, 9, 56, 124
12, 213599, Note_on_c, 9, 56, 0
12, 213840, Note_on_c, 9, 56, 85
12, 214079, Note_on_c, 9, 56, 0
12, 214320, Note_on_c, 9, 56, 124
12, 214559, Note_on_c, 9, 56, 0
12, 214800, Note_on_c, 9, 56, 85
12, 215039, Note_on_c, 9, 56, 0
12, 215280, Note_on_c, 9, 56, 124
12, 215519, Note_on_c, 9, 56, 0
12, 215760, Note_on_c, 9, 56, 85
12, 215999, Note_on_c, 9, 56, 0
12, 216240, Note_on_c, 9, 56, 124
12, 216479, Note_on_c, 9, 56, 0
12, 216720, Note_on_c, 9, 56, 85
12, 216959, Note_on_c, 9, 56, 0
12, 217200, Note_on_c, 9, 56, 124
12, 217439, Note_on_c, 9, 56, 0
12, 217680, Note_on_c, 9, 56, 85
12, 217919, Note_on_c, 9, 56, 0
12, 218160, Note_on_c, 9, 56, 124
12, 218399, Note_on_c, 9, 56, 0
12, 218640, Note_on_c, 9, 56, 85
12, 218879, Note_on_c, 9, 56, 0
12, 219120, Note_on_c, 9, 56, 124
12, 219359, Note_on_c, 9, 56, 0
12, 219600, Note_on_c, 9, 56, 85
12, 219839, Note_on_c, 9, 56, 0
12, 220080, Note_on_c, 9, 56, 124
12, 220319, Note_on_c, 9, 56, 0
12, 220560, Note_on_c, 9, 56, 85
12, 220799, Note_on_c, 9, 56, 0
12, 221040, Note_on_c, 9, 56, 124
12, 221279, Note_on_c, 9, 56, 0
12, 221520, Note_on_c, 9, 56, 85
12, 221759, Note_on_c, 9, 56, 0
12, 222000, Note_on_c, 9, 56, 124
12, 222239, Note_on_c, 9, 56, 0
12, 222480, Note_on_c, 9, 56, 85
12, 222719, Note_on_c, 9, 56, 0
12, 222960, Note_on_c, 9, 56, 124
12, 223199, Note_on_c, 9, 56, 0
12, 223440, Note_on_c, 9, 56, 85
12, 223679, Note_on_c, 9, 56, 0
12, 223920, Note_on_c, 9, 56, 124
12, 224159, Note_on_c, 9, 56, 0
12, 224400, Note_on_c, 9, 56, 85
12, 224639, Note_on_c, 9, 56, 0
12, 224880, Note_on_c, 9, 56, 124
12, 225119, Note_on_c, 9, 56, 0
12, 225360, Note_on_c, 9, 56, 85
12, 225599, Note_on_c, 9, 56, 0
12, 225840, Note_on_c, 9, 56, 124
12, 226079, Note_on_c, 9, 56, 0
12, 226320, Note_on_c, 9, 56, 85
12, 226559, Note_on_c, 9, 56, 0
12, 226800, Note_on_c, 9, 56, 124
12, 227039, Note_on_c, 9, 56, 0
12, 227280, Note_on_c, 9, 56, 85
12, 227519, Note_on_c, 9, 56, 0
12, 227760, Note_on_c, 9, 56, 124
12, 227999, Note_on_c, 9, 56, 0
12, 228240, Note_on_c, 9, 56, 85
12, 228479, Note_on_c, 9, 56, 0
12, 228720, Note_on_c, 9, 56, 124
12, 228959, Note_on_c, 9, 56, 0
12, 229200, Note_on_c, 9, 56, 85
12, 229439, Note_on_c, 9, 56, 0
12, 229680, Note_on_c, 9, 56, 124
12, 229919, Note_on_c, 9, 56, 0
12, 230160, Note_on_c, 9, 56, 85
12, 230399, Note_on_c, 9, 56, 0
12, 230640, Note_on_c, 9, 56, 124
12, 230879, Note_on_c, 9, 56, 0
12, 231120, Note_on_c, 9, 56, 85
12, 231359, Note_on_c, 9, 56, 0
12, 231600, Note_on_c, 9, 56, 124
12, 231839, Note_on_c, 9, 56, 0
12, 232080, Note_on_c, 9, 56, 85
12, 232319, Note_on_c, 9, 56, 0
12, 232560, Note_on_c, 9, 56, 124
12, 232799, Note_on_c, 9, 56, 0
12, 233040, Note_on_c, 9, 56, 85
12, 233279, Note_on_c, 9, 56, 0
12, 233520, Note_on_c, 9, 56, 124
12, 233759, Note_on_c, 9, 56, 0
12, 234000, Note_on_c, 9, 56, 85
12, 234239, Note_on_c, 9, 56, 0
12, 234480, Note_on_c, 9, 56, 124
12, 234719, Note_on_c, 9, 56, 0
12, 234960, Note_on_c, 9, 56, 85
12, 235199, Note_on_c, 9, 56, 0
12, 235440, Note_on_c, 9, 56, 124
12, 235679, Note_on_c, 9, 56, 0
12, 235920, Note_on_c, 9, 56, 85
12, 236159, Note_on_c, 9, 56, 0
12, 236400, Note_on_c, 9, 56, 124
12, 236639, Note_on_c, 9, 56, 0
12, 236880, Note_on_c, 9, 56, 85
12, 237119, Note_on_c, 9, 56, 0
12, 237360, Note_on_c, 9, 56, 124
12, 237599, Note_on_c, 9, 56, 0
12, 237840, Note_on_c, 9, 56, 85
12, 238079, Note_on_c, 9, 56, 0
12, 238320, Note_on_c, 9, 56, 124
12, 238559, Note_on_c, 9, 56, 0
12, 238800, Note_on_c, 9, 56, 85
12, 239039, Note_on_c, 9, 56, 0
12, 239280, Note_on_c, 9, 56, 124
12, 239519, Note_on_c, 9, 56, 0
12, 239760, Note_on_c, 9, 56, 85
12, 239999, Note_on_c, 9, 56, 0
12, 240240, Note_on_c, 9, 56, 124
12, 240479, Note_on_c, 9, 56, 0
12, 240720, Note_on_c, 9, 56, 85
12, 240959, Note_on_c, 9, 56, 0
12, 241200, Note_on_c, 9, 56, 124
12, 241439, Note_on_c, 9, 56, 0
12, 241680, Note_on_c, 9, 56, 85
12, 241919, Note_on_c, 9, 56, 0
12, 242160, Note_on_c, 9, 56, 124
12, 242399, Note_on_c, 9, 56, 0
12, 242640, Note_on_c, 9, 56, 85
12, 242879, Note_on_c, 9, 56, 0
12, 243120, Note_on_c, 9, 56, 124
12, 243359, Note_on_c, 9, 56, 0
12, 243600, Note_on_c, 9, 56, 85
12, 243839, Note_on_c, 9, 56, 0
12, 244080, Note_on_c, 9, 56, 124
12, 244319, Note_on_c, 9, 56, 0
12, 244560, Note_on_c, 9, 56, 85
12, 244799, Note_on_c, 9, 56, 0
12, 245040, Note_on_c, 9, 56, 124
12, 245279, Note_on_c, 9, 56, 0
12, 245520, Note_on_c, 9, 56, 85
12, 245759, Note_on_c, 9, 56, 0
12, 246000, Note_on_c, 9, 56, 124
12, 246239, Note_on_c, 9, 56, 0
12, 246480, Note_on_c, 9, 56, 85
12, 246719, Note_on_c, 9, 56, 0
12, 246960, Note_on_c, 9, 56, 124
12, 247199, Note_on_c, 9, 56, 0
12, 247440, Note_on_c, 9, 56, 85
12, 247679, Note_on_c, 9, 56, 0
12, 247920, Note_on_c, 9, 56, 124
12, 248159, Note_on_c, 9, 56, 0
12, 248400, Note_on_c, 9, 56, 85
12, 248639, Note_on_c, 9, 56, 0
12, 248880, Note_on_c, 9, 56, 124
12, 249119, Note_on_c, 9, 56, 0
12, 249360, Note_on_c, 9, 56, 85
12, 249599, Note_on_c, 9, 56, 0
12, 249840, Note_on_c, 9, 56, 124
12, 250079, Note_on_c, 9, 56, 0
12, 250320, Note_on_c, 9, 56, 85
12, 250559, Note_on_c, 9, 56, 0
12, 250800, Note_on_c, 9, 56, 124
12, 251039, Note_on_c, 9, 56, 0
12, 251280, Note_on_c, 9, 56, 85
12, 251519, Note_on_c, 9, 56, 0
12, 251760, Note_on_c, 9, 56, 124
12, 251999, Note_on_c, 9, 56, 0
12, 252240, Note_on_c, 9, 56, 85
12, 252479, Note_on_c, 9, 56, 0
12, 252720, Note_on_c, 9, 56, 124
12, 252959, Note_on_c, 9, 56, 0
12, 253200, Note_on_c, 9, 56, 85
12, 253439, Note_on_c, 9, 56, 0
12, 253680, Note_on_c, 9, 56, 124
12, 253919, Note_on_c, 9, 56, 0
12, 254160, Note_on_c, 9, 56, 85
12, 254399, Note_on_c, 9, 56, 0
12, 254640, Note_on_c, 9, 56, 124
12, 254879, Note_on_c, 9, 56, 0
12, 255120, Note_on_c, 9, 56, 85
12, 255359, Note_on_c, 9, 56, 0
12, 255600, Note_on_c, 9, 56, 124
12, 255839, Note_on_c, 9, 56, 0
12, 256080, Note_on_c, 9, 56, 85
12, 256319, Note_on_c, 9, 56, 0
12, 256560, Note_on_c, 9, 56, 124
12, 256799, Note_on_c, 9, 56, 0
12, 257040, Note_on_c, 9, 56, 85
12, 257279, Note_on_c, 9, 56, 0
12, 257520, Note_on_c, 9, 56, 124
12, 257759, Note_on_c, 9, 56, 0
12, 258000, Note_on_c, 9, 56, 85
12, 258239, Note_on_c, 9, 56, 0
12, 258480, Note_on_c, 9, 56, 124
12, 258719, Note_on_c, 9, 56, 0
12, 258960, Note_on_c, 9, 56, 85
12, 259199, Note_on_c, 9, 56, 0
12, 259440, Note_on_c, 9, 56, 124
12, 259679, Note_on_c, 9, 56, 0
12, 259920, Note_on_c, 9, 56, 85
12, 260159, Note_on_c, 9, 56, 0
12, 260400, Note_on_c, 9, 56, 124
12, 260639, Note_on_c, 9, 56, 0
12, 260880, Note_on_c, 9, 56, 85
12, 261119, Note_on_c, 9, 56, 0
12, 261360, Note_on_c, 9, 56, 124
12, 261599, Note_on_c, 9, 56, 0
12, 261840, Note_on_c, 9, 56, 85
12, 262079, Note_on_c, 9, 56, 0
12, 262320, Note_on_c, 9, 56, 124
12, 262559, Note_on_c, 9, 56, 0
12, 262800, Note_on_c, 9, 56, 85
12, 263039, Note_on_c, 9, 56, 0
12, 263280, Note_on_c, 9, 56, 124
12, 263519, Note_on_c, 9, 56, 0
12, 263760, Note_on_c, 9, 56, 85
12, 263999, Note_on_c, 9, 56, 0
12, 264240, Note_on_c, 9, 56, 124
12, 264479, Note_on_c, 9, 56, 0
12, 264720, Note_on_c, 9, 56, 85
12, 264959, Note_on_c, 9, 56, 0
12, 265200, Note_on_c, 9, 56, 124
12, 265439, Note_on_c, 9, 56, 0
12, 265680, Note_on_c, 9, 56, 85
12, 265919, Note_on_c, 9, 56, 0
12, 266160, Note_on_c, 9, 56, 124
12, 266399, Note_on_c, 9, 56, 0
12, 266640, Note_on_c, 9, 56, 85
12, 266879, Note_on_c, 9, 56, 0
12, 267120, Note_on_c, 9, 56, 124
12, 267359, Note_on_c, 9, 56, 0
12, 267600, Note_on_c, 9, 56, 85
12, 267839, Note_on_c, 9, 56, 0
12, 268080, Note_on_c, 9, 56, 124
12, 268319, Note_on_c, 9, 56, 0
12, 268560, Note_on_c, 9, 56, 85
12, 268799, Note_on_c, 9, 56, 0
12, 269040, Note_on_c, 9, 56, 124
12, 269279, Note_on_c, 9, 56, 0
12, 269520, Note_on_c, 9, 56, 85
12, 269759, Note_on_c, 9, 56, 0
12, 270000, Note_on_c, 9, 56, 124
12, 270239, Note_on_c, 9, 56, 0
12, 270480, Note_on_c, 9, 56, 85
12, 270719, Note_on_c, 9, 56, 0
12, 270960, Note_on_c, 9, 56, 124
12, 271199, Note_on_c, 9, 56, 0
12, 271440, Note_on_c, 9, 56, 85
12, 271679, Note_on_c, 9, 56, 0
12, 271920, Note_on_c, 9, 56, 124
12, 272159, Note_on_c, 9, 56, 0
12, 272400, Note_on_c, 9, 56, 85
12, 272639, Note_on_c, 9, 56, 0
12, 272880, Note_on_c, 9, 56, 124
12, 273119, Note_on_c, 9, 56, 0
12, 273360, Note_on_c, 9, 56, 85
12, 273599, Note_on_c, 9, 56, 0
12, 273840, Note_on_c, 9, 56, 124
12, 274079, Note_on_c, 9, 56, 0
12, 274320, Note_on_c, 9, 56, 85
12, 274559, Note_on_c, 9, 56, 0
12, 274800, Note_on_c, 9, 56, 124
12, 275039, Note_on_c, 9, 56, 0
12, 275280, Note_on_c, 9, 56, 85
12, 275519, Note_on_c, 9, 56, 0
12, 275760, Note_on_c, 9, 56, 124
12, 275999, Note_on_c, 9, 56, 0
12, 276240, Note_on_c, 9, 56, 85
12, 276479, Note_on_c, 9, 56, 0
12, 276720, Note_on_c, 9, 56, 124
12, 276959, Note_on_c, 9, 56, 0
12, 277200, Note_on_c, 9, 56, 85
12, 277439, Note_on_c, 9, 56, 0
12, 277680, Note_on_c, 9, 56, 124
12, 277919, Note_on_c, 9, 56, 0
12, 278160, Note_on_c, 9, 56, 85
12, 278399, Note_on_c, 9, 56, 0
12, 278640, Note_on_c, 9, 56, 124
12, 278879, Note_on_c, 9, 56, 0
12, 279120, Note_on_c, 9, 56, 85
12, 279359, Note_on_c, 9, 56, 0
12, 279600, Note_on_c, 9, 56, 124
12, 279839, Note_on_c, 9, 56, 0
12, 280080, Note_on_c, 9, 56, 85
12, 280319, Note_on_c, 9, 56, 0
12, 280320, Note_on_c, 9, 56, 124
12, 280559, Note_on_c, 9, 56, 0
12, 280560, Note_on_c, 9, 56, 124
12, 280799, Note_on_c, 9, 56, 0
12, 280800, End_track
13, 0, Start_track
13, 0, Key_signature, 0, "major"
13, 0, Control_c, 9, 121, 0
13, 0, Program_c, 9, 48
13, 0, Control_c, 9, 7, 100
13, 0, Control_c, 9, 10, 64
13, 0, Control_c, 9, 91, 0
13, 0, Control_c, 9, 93, 0
13, 0, MIDI_port, 1
13, 19440, Note_on_c, 9, 40, 113
13, 19679, Note_on_c, 9, 40, 0
13, 19800, Note_on_c, 9, 40, 113
13, 20159, Note_on_c, 9, 40, 0
13, 23280, Note_on_c, 9, 40, 113
13, 23399, Note_on_c, 9, 40, 0
13, 23400, Note_on_c, 9, 40, 113
13, 23519, Note_on_c, 9, 40, 0
13, 23520, Note_on_c, 9, 40, 113
13, 23999, Note_on_c, 9, 40, 0
13, 24240, Note_on_c, 9, 40, 113
13, 24479, Note_on_c, 9, 40, 0
13, 24480, Note_on_c, 9, 40, 113
13, 24719, Note_on_c, 9, 40, 0
13, 24720, Note_on_c, 9, 40, 113
13, 24959, Note_on_c, 9, 40, 0
13, 25440, Note_on_c, 9, 40, 113
13, 25919, Note_on_c, 9, 40, 0
13, 26400, Note_on_c, 9, 40, 113
13, 26879, Note_on_c, 9, 40, 0
13, 27360, Note_on_c, 9, 40, 113
13, 27839, Note_on_c, 9, 40, 0
13, 28320, Note_on_c, 9, 40, 113
13, 28799, Note_on_c, 9, 40, 0
13, 29280, Note_on_c, 9, 40, 113
13, 29759, Note_on_c, 9, 40, 0
13, 30240, Note_on_c, 9, 40, 113
13, 30719, Note_on_c, 9, 40, 0
13, 31200, Note_on_c, 9, 40, 113
13, 31679, Note_on_c, 9, 40, 0
13, 31920, Note_on_c, 9, 40, 113
13, 32159, Note_on_c, 9, 40, 0
13, 32160, Note_on_c, 9, 40, 113
13, 32399, Note_on_c, 9, 40, 0
13, 32400, Note_on_c, 9, 40, 113
13, 32639, Note_on_c, 9, 40, 0
13, 33120, Note_on_c, 9, 40, 113
13, 33599, Note_on_c, 9, 40, 0
13, 34080, Note_on_c, 9, 40, 113
13, 34559, Note_on_c, 9, 40, 0
13, 35040, Note_on_c, 9, 40, 113
13, 35519, Note_on_c, 9, 40, 0
13, 36000, Note_on_c, 9, 40, 113
13, 36479, Note_on_c, 9, 40, 0
13, 36960, Note_on_c, 9, 40, 113
13, 37439, Note_on_c, 9, 40, 0
13, 37920, Note_on_c, 9, 40, 113
13, 38399, Note_on_c, 9, 40, 0
13, 38880, Note_on_c, 9, 40, 113
13, 39359, Note_on_c, 9, 40, 0
13, 39840, Note_on_c, 9, 40, 113
13, 40319, Note_on_c, 9, 40, 0
13, 40800, Note_on_c, 9, 40, 113
13, 41279, Note_on_c, 9, 40, 0
13, 41760, Note_on_c, 9, 40, 113
13, 42239, Note_on_c, 9, 40, 0
13, 42720, Note_on_c, 9, 40, 113
13, 43199, Note_on_c, 9, 40, 0
13, 43680, Note_on_c, 9, 40, 113
13, 44159, Note_on_c, 9, 40, 0
13, 44640, Note_on_c, 9, 40, 113
13, 45119, Note_on_c, 9, 40, 0
13, 45600, Note_on_c, 9, 40, 113
13, 46079, Note_on_c, 9, 40, 0
13, 46560, Note_on_c, 9, 40, 113
13, 47039, Note_on_c, 9, 40, 0
13, 47280, Note_on_c, 9, 40, 113
13, 47519, Note_on_c, 9, 40, 0
13, 47520, Note_on_c, 9, 40, 113
13, 47759, Note_on_c, 9, 40, 0
13, 47760, Note_on_c, 9, 40, 113
13, 47999, Note_on_c, 9, 40, 0
13, 48480, Note_on_c, 9, 40, 113
13, 48959, Note_on_c, 9, 40, 0
13, 49440, Note_on_c, 9, 40, 113
13, 49919, Note_on_c, 9, 40, 0
13, 50400, Note_on_c, 9, 40, 113
13, 50879, Note_on_c, 9, 40, 0
13, 51360, Note_on_c, 9, 40, 113
13, 51839, Note_on_c, 9, 40, 0
13, 52320, Note_on_c, 9, 40, 113
13, 52799, Note_on_c, 9, 40, 0
13, 53280, Note_on_c, 9, 40, 113
13, 53759, Note_on_c, 9, 40, 0
13, 54240, Note_on_c, 9, 40, 113
13, 54719, Note_on_c, 9, 40, 0
13, 55200, Note_on_c, 9, 40, 113
13, 55679, Note_on_c, 9, 40, 0
13, 56160, Note_on_c, 9, 40, 113
13, 56639, Note_on_c, 9, 40, 0
13, 57120, Note_on_c, 9, 40, 113
13, 57599, Note_on_c, 9, 40, 0
13, 58080, Note_on_c, 9, 40, 113
13, 58559, Note_on_c, 9, 40, 0
13, 59040, Note_on_c, 9, 40, 113
13, 59519, Note_on_c, 9, 40, 0
13, 60000, Note_on_c, 9, 40, 113
13, 60479, Note_on_c, 9, 40, 0
13, 60960, Note_on_c, 9, 40, 113
13, 61439, Note_on_c, 9, 40, 0
13, 61920, Note_on_c, 9, 40, 113
13, 62399, Note_on_c, 9, 40, 0
13, 62640, Note_on_c, 9, 40, 113
13, 62879, Note_on_c, 9, 40, 0
13, 63120, Note_on_c, 9, 40, 113
13, 63359, Note_on_c, 9, 40, 0
13, 63360, Note_on_c, 9, 40, 113
13, 63839, Note_on_c, 9, 40, 0
13, 63840, Note_on_c, 9, 40, 113
13, 64319, Note_on_c, 9, 40, 0
13, 65760, Note_on_c, 9, 40, 113
13, 66239, Note_on_c, 9, 40, 0
13, 66720, Note_on_c, 9, 40, 113
13, 67199, Note_on_c, 9, 40, 0
13, 67680, Note_on_c, 9, 40, 113
13, 68159, Note_on_c, 9, 40, 0
13, 68640, Note_on_c, 9, 40, 113
13, 69119, Note_on_c, 9, 40, 0
13, 69600, Note_on_c, 9, 40, 113
13, 70079, Note_on_c, 9, 40, 0
13, 70560, Note_on_c, 9, 40, 113
13, 71039, Note_on_c, 9, 40, 0
13, 71520, Note_on_c, 9, 40, 113
13, 71999, Note_on_c, 9, 40, 0
13, 72480, Note_on_c, 9, 40, 113
13, 72959, Note_on_c, 9, 40, 0
13, 73440, Note_on_c, 9, 40, 113
13, 73919, Note_on_c, 9, 40, 0
13, 74400, Note_on_c, 9, 40, 113
13, 74879, Note_on_c, 9, 40, 0
13, 75360, Note_on_c, 9, 40, 113
13, 75839, Note_on_c, 9, 40, 0
13, 76320, Note_on_c, 9, 40, 113
13, 76799, Note_on_c, 9, 40, 0
13, 77280, Note_on_c, 9, 40, 113
13, 77759, Note_on_c, 9, 40, 0
13, 78240, Note_on_c, 9, 40, 113
13, 78719, Note_on_c, 9, 40, 0
13, 79200, Note_on_c, 9, 40, 113
13, 79679, Note_on_c, 9, 40, 0
13, 80160, Note_on_c, 9, 40, 113
13, 80639, Note_on_c, 9, 40, 0
13, 81120, Note_on_c, 9, 40, 113
13, 81599, Note_on_c, 9, 40, 0
13, 82080, Note_on_c, 9, 40, 113
13, 82559, Note_on_c, 9, 40, 0
13, 83040, Note_on_c, 9, 40, 113
13, 83519, Note_on_c, 9, 40, 0
13, 84000, Note_on_c, 9, 40, 113
13, 84479, Note_on_c, 9, 40, 0
13, 84960, Note_on_c, 9, 40, 113
13, 85439, Note_on_c, 9, 40, 0
13, 85920, Note_on_c, 9, 40, 113
13, 86399, Note_on_c, 9, 40, 0
13, 86880, Note_on_c, 9, 40, 113
13, 87359, Note_on_c, 9, 40, 0
13, 87840, Note_on_c, 9, 40, 113
13, 88319, Note_on_c, 9, 40, 0
13, 88800, Note_on_c, 9, 40, 113
13, 89279, Note_on_c, 9, 40, 0
13, 89760, Note_on_c, 9, 40, 113
13, 90239, Note_on_c, 9, 40, 0
13, 90720, Note_on_c, 9, 40, 113
13, 91199, Note_on_c, 9, 40, 0
13, 91440, Note_on_c, 9, 40, 113
13, 91679, Note_on_c, 9, 40, 0
13, 91680, Note_on_c, 9, 40, 113
13, 91919, Note_on_c, 9, 40, 0
13, 91920, Note_on_c, 9, 40, 113
13, 92159, Note_on_c, 9, 40, 0
13, 92640, Note_on_c, 9, 40, 113
13, 93119, Note_on_c, 9, 40, 0
13, 93600, Note_on_c, 9, 40, 113
13, 94079, Note_on_c, 9, 40, 0
13, 94560, Note_on_c, 9, 40, 113
13, 95039, Note_on_c, 9, 40, 0
13, 95520, Note_on_c, 9, 40, 113
13, 95999, Note_on_c, 9, 40, 0
13, 96480, Note_on_c, 9, 40, 113
13, 96959, Note_on_c, 9, 40, 0
13, 97440, Note_on_c, 9, 40, 113
13, 97919, Note_on_c, 9, 40, 0
13, 98160, Note_on_c, 9, 40, 113
13, 98279, Note_on_c, 9, 40, 0
13, 98280, Note_on_c, 9, 40, 113
13, 98399, Note_on_c, 9, 40, 0
13, 98400, Note_on_c, 9, 40, 113
13, 98879, Note_on_c, 9, 40, 0
13, 99120, Note_on_c, 9, 40, 113
13, 99359, Note_on_c, 9, 40, 0
13, 99360, Note_on_c, 9, 40, 113
13, 99599, Note_on_c, 9, 40, 0
13, 99600, Note_on_c, 9, 40, 113
13, 99839, Note_on_c, 9, 40, 0
13, 100320, Note_on_c, 9, 40, 113
13, 100799, Note_on_c, 9, 40, 0
13, 101280, Note_on_c, 9, 40, 113
13, 101759, Note_on_c, 9, 40, 0
13, 102240, Note_on_c, 9, 40, 113
13, 102719, Note_on_c, 9, 40, 0
13, 103200, Note_on_c, 9, 40, 113
13, 103679, Note_on_c, 9, 40, 0
13, 104160, Note_on_c, 9, 40, 113
13, 104639, Note_on_c, 9, 40, 0
13, 105120, Note_on_c, 9, 40, 113
13, 105599, Note_on_c, 9, 40, 0
13, 106080, Note_on_c, 9, 40, 113
13, 106559, Note_on_c, 9, 40, 0
13, 107040, Note_on_c, 9, 40, 113
13, 107519, Note_on_c, 9, 40, 0
13, 108000, Note_on_c, 9, 40, 113
13, 108479, Note_on_c, 9, 40, 0
13, 108960, Note_on_c, 9, 40, 113
13, 109439, Note_on_c, 9, 40, 0
13, 109920, Note_on_c, 9, 40, 113
13, 110399, Note_on_c, 9, 40, 0
13, 110880, Note_on_c, 9, 40, 113
13, 111359, Note_on_c, 9, 40, 0
13, 111840, Note_on_c, 9, 40, 113
13, 112319, Note_on_c, 9, 40, 0
13, 112800, Note_on_c, 9, 40, 113
13, 113279, Note_on_c, 9, 40, 0
13, 113760, Note_on_c, 9, 40, 113
13, 114239, Note_on_c, 9, 40, 0
13, 114480, Note_on_c, 9, 40, 113
13, 114719, Note_on_c, 9, 40, 0
13, 114720, Note_on_c, 9, 40, 113
13, 114959, Note_on_c, 9, 40, 0
13, 114960, Note_on_c, 9, 40, 113
13, 115199, Note_on_c, 9, 40, 0
13, 115680, Note_on_c, 9, 40, 113
13, 116159, Note_on_c, 9, 40, 0
13, 116640, Note_on_c, 9, 40, 113
13, 117119, Note_on_c, 9, 40, 0
13, 117600, Note_on_c, 9, 40, 113
13, 118079, Note_on_c, 9, 40, 0
13, 118560, Note_on_c, 9, 40, 113
13, 119039, Note_on_c, 9, 40, 0
13, 119520, Note_on_c, 9, 40, 113
13, 119999, Note_on_c, 9, 40, 0
13, 120480, Note_on_c, 9, 40, 113
13, 120959, Note_on_c, 9, 40, 0
13, 121440, Note_on_c, 9, 40, 113
13, 121919, Note_on_c, 9, 40, 0
13, 122400, Note_on_c, 9, 40, 113
13, 122879, Note_on_c, 9, 40, 0
13, 123360, Note_on_c, 9, 40, 113
13, 123839, Note_on_c, 9, 40, 0
13, 124320, Note_on_c, 9, 40, 113
13, 124799, Note_on_c, 9, 40, 0
13, 125280, Note_on_c, 9, 40, 113
13, 125759, Note_on_c, 9, 40, 0
13, 126240, Note_on_c, 9, 40, 113
13, 126719, Note_on_c, 9, 40, 0
13, 127200, Note_on_c, 9, 40, 113
13, 127679, Note_on_c, 9, 40, 0
13, 128160, Note_on_c, 9, 40, 113
13, 128639, Note_on_c, 9, 40, 0
13, 129120, Note_on_c, 9, 40, 113
13, 129599, Note_on_c, 9, 40, 0
13, 129840, Note_on_c, 9, 40, 113
13, 130079, Note_on_c, 9, 40, 0
13, 130320, Note_on_c, 9, 40, 113
13, 130559, Note_on_c, 9, 40, 0
13, 130560, Note_on_c, 9, 40, 113
13, 131039, Note_on_c, 9, 40, 0
13, 131040, Note_on_c, 9, 40, 113
13, 131519, Note_on_c, 9, 40, 0
13, 132960, Note_on_c, 9, 40, 113
13, 133439, Note_on_c, 9, 40, 0
13, 133920, Note_on_c, 9, 40, 113
13, 134399, Note_on_c, 9, 40, 0
13, 134880, Note_on_c, 9, 40, 113
13, 135359, Note_on_c, 9, 40, 0
13, 135840, Note_on_c, 9, 40, 113
13, 136319, Note_on_c, 9, 40, 0
13, 136800, Note_on_c, 9, 40, 113
13, 137279, Note_on_c, 9, 40, 0
13, 137760, Note_on_c, 9, 40, 113
13, 138239, Note_on_c, 9, 40, 0
13, 138720, Note_on_c, 9, 40, 113
13, 139199, Note_on_c, 9, 40, 0
13, 139680, Note_on_c, 9, 40, 113
13, 140159, Note_on_c, 9, 40, 0
13, 140640, Note_on_c, 9, 40, 113
13, 141119, Note_on_c, 9, 40, 0
13, 141600, Note_on_c, 9, 40, 113
13, 142079, Note_on_c, 9, 40, 0
13, 142560, Note_on_c, 9, 40, 113
13, 143039, Note_on_c, 9, 40, 0
13, 143520, Note_on_c, 9, 40, 113
13, 143999, Note_on_c, 9, 40, 0
13, 144480, Note_on_c, 9, 40, 113
13, 144959, Note_on_c, 9, 40, 0
13, 145440, Note_on_c, 9, 40, 113
13, 145919, Note_on_c, 9, 40, 0
13, 146400, Note_on_c, 9, 40, 113
13, 146879, Note_on_c, 9, 40, 0
13, 147360, Note_on_c, 9, 40, 113
13, 147839, Note_on_c, 9, 40, 0
13, 148320, Note_on_c, 9, 40, 113
13, 148799, Note_on_c, 9, 40, 0
13, 149280, Note_on_c, 9, 40, 113
13, 149759, Note_on_c, 9, 40, 0
13, 150240, Note_on_c, 9, 40, 113
13, 150719, Note_on_c, 9, 40, 0
13, 151200, Note_on_c, 9, 40, 113
13, 151679, Note_on_c, 9, 40, 0
13, 152160, Note_on_c, 9, 40, 113
13, 152639, Note_on_c, 9, 40, 0
13, 153120, Note_on_c, 9, 40, 113
13, 153599, Note_on_c, 9, 40, 0
13, 154080, Note_on_c, 9, 40, 113
13, 154559, Note_on_c, 9, 40, 0
13, 155040, Note_on_c, 9, 40, 113
13, 155519, Note_on_c, 9, 40, 0
13, 156000, Note_on_c, 9, 40, 113
13, 156479, Note_on_c, 9, 40, 0
13, 156960, Note_on_c, 9, 40, 113
13, 157439, Note_on_c, 9, 40, 0
13, 157920, Note_on_c, 9, 40, 113
13, 158399, Note_on_c, 9, 40, 0
13, 158880, Note_on_c, 9, 40, 113
13, 159359, Note_on_c, 9, 40, 0
13, 175200, Note_on_c, 9, 40, 113
13, 175679, Note_on_c, 9, 40, 0
13, 176160, Note_on_c, 9, 40, 113
13, 176639, Note_on_c, 9, 40, 0
13, 177120, Note_on_c, 9, 40, 113
13, 177599, Note_on_c, 9, 40, 0
13, 178080, Note_on_c, 9, 40, 113
13, 178559, Note_on_c, 9, 40, 0
13, 179040, Note_on_c, 9, 40, 113
13, 179519, Note_on_c, 9, 40, 0
13, 180000, Note_on_c, 9, 40, 113
13, 180479, Note_on_c, 9, 40, 0
13, 180960, Note_on_c, 9, 40, 113
13, 181439, Note_on_c, 9, 40, 0
13, 181920, Note_on_c, 9, 40, 113
13, 182159, Note_on_c, 9, 40, 0
13, 182160, Note_on_c, 9, 40, 113
13, 182279, Note_on_c, 9, 40, 0
13, 182280, Note_on_c, 9, 40, 113
13, 182399, Note_on_c, 9, 40, 0
13, 182880, Note_on_c, 9, 40, 113
13, 183359, Note_on_c, 9, 40, 0
13, 183840, Note_on_c, 9, 40, 113
13, 184319, Note_on_c, 9, 40, 0
13, 184800, Note_on_c, 9, 40, 113
13, 185279, Note_on_c, 9, 40, 0
13, 185760, Note_on_c, 9, 40, 113
13, 186239, Note_on_c, 9, 40, 0
13, 186720, Note_on_c, 9, 40, 113
13, 187199, Note_on_c, 9, 40, 0
13, 187680, Note_on_c, 9, 40, 113
13, 188159, Note_on_c, 9, 40, 0
13, 188400, Note_on_c, 9, 40, 113
13, 188519, Note_on_c, 9, 40, 0
13, 188520, Note_on_c, 9, 40, 113
13, 188639, Note_on_c, 9, 40, 0
13, 188640, Note_on_c, 9, 40, 113
13, 189119, Note_on_c, 9, 40, 0
13, 189360, Note_on_c, 9, 40, 113
13, 189599, Note_on_c, 9, 40, 0
13, 189600, Note_on_c, 9, 40, 113
13, 189839, Note_on_c, 9, 40, 0
13, 189840, Note_on_c, 9, 40, 113
13, 190079, Note_on_c, 9, 40, 0
13, 190560, Note_on_c, 9, 40, 113
13, 191039, Note_on_c, 9, 40, 0
13, 191520, Note_on_c, 9, 40, 113
13, 191999, Note_on_c, 9, 40, 0
13, 192480, Note_on_c, 9, 40, 113
13, 192959, Note_on_c, 9, 40, 0
13, 193440, Note_on_c, 9, 40, 113
13, 193919, Note_on_c, 9, 40, 0
13, 194400, Note_on_c, 9, 40, 113
13, 194879, Note_on_c, 9, 40, 0
13, 195360, Note_on_c, 9, 40, 113
13, 195839, Note_on_c, 9, 40, 0
13, 196320, Note_on_c, 9, 40, 113
13, 196799, Note_on_c, 9, 40, 0
13, 197280, Note_on_c, 9, 40, 113
13, 197759, Note_on_c, 9, 40, 0
13, 198240, Note_on_c, 9, 40, 113
13, 198719, Note_on_c, 9, 40, 0
13, 199200, Note_on_c, 9, 40, 113
13, 199679, Note_on_c, 9, 40, 0
13, 200160, Note_on_c, 9, 40, 113
13, 200639, Note_on_c, 9, 40, 0
13, 201120, Note_on_c, 9, 40, 113
13, 201599, Note_on_c, 9, 40, 0
13, 202080, Note_on_c, 9, 40, 113
13, 202559, Note_on_c, 9, 40, 0
13, 203040, Note_on_c, 9, 40, 113
13, 203519, Note_on_c, 9, 40, 0
13, 204000, Note_on_c, 9, 40, 113
13, 204479, Note_on_c, 9, 40, 0
13, 204720, Note_on_c, 9, 40, 113
13, 204959, Note_on_c, 9, 40, 0
13, 205200, Note_on_c, 9, 40, 113
13, 205439, Note_on_c, 9, 40, 0
13, 205440, Note_on_c, 9, 40, 113
13, 205919, Note_on_c, 9, 40, 0
13, 205920, Note_on_c, 9, 40, 113
13, 206399, Note_on_c, 9, 40, 0
13, 209280, Note_on_c, 9, 40, 113
13, 209759, Note_on_c, 9, 40, 0
13, 209760, Note_on_c, 9, 40, 113
13, 210239, Note_on_c, 9, 40, 0
13, 211680, Note_on_c, 9, 40, 113
13, 212159, Note_on_c, 9, 40, 0
13, 212640, Note_on_c, 9, 40, 113
13, 213119, Note_on_c, 9, 40, 0
13, 213600, Note_on_c, 9, 40, 113
13, 214079, Note_on_c, 9, 40, 0
13, 214560, Note_on_c, 9, 40, 113
13, 215039, Note_on_c, 9, 40, 0
13, 215520, Note_on_c, 9, 40, 113
13, 215999, Note_on_c, 9, 40, 0
13, 216480, Note_on_c, 9, 40, 113
13, 216959, Note_on_c, 9, 40, 0
13, 217440, Note_on_c, 9, 40, 113
13, 217919, Note_on_c, 9, 40, 0
13, 218400, Note_on_c, 9, 40, 113
13, 218879, Note_on_c, 9, 40, 0
13, 219360, Note_on_c, 9, 40, 113
13, 219839, Note_on_c, 9, 40, 0
13, 220320, Note_on_c, 9, 40, 113
13, 220799, Note_on_c, 9, 40, 0
13, 221280, Note_on_c, 9, 40, 113
13, 221759, Note_on_c, 9, 40, 0
13, 222240, Note_on_c, 9, 40, 113
13, 222719, Note_on_c, 9, 40, 0
13, 223200, Note_on_c, 9, 40, 113
13, 223679, Note_on_c, 9, 40, 0
13, 224160, Note_on_c, 9, 40, 113
13, 224639, Note_on_c, 9, 40, 0
13, 225120, Note_on_c, 9, 40, 113
13, 225599, Note_on_c, 9, 40, 0
13, 226080, Note_on_c, 9, 40, 113
13, 226559, Note_on_c, 9, 40, 0
13, 227040, Note_on_c, 9, 40, 113
13, 227519, Note_on_c, 9, 40, 0
13, 228000, Note_on_c, 9, 40, 113
13, 228479, Note_on_c, 9, 40, 0
13, 228960, Note_on_c, 9, 40, 113
13, 229439, Note_on_c, 9, 40, 0
13, 229920, Note_on_c, 9, 40, 113
13, 230399, Note_on_c, 9, 40, 0
13, 230880, Note_on_c, 9, 40, 113
13, 231359, Note_on_c, 9, 40, 0
13, 231840, Note_on_c, 9, 40, 113
13, 232319, Note_on_c, 9, 40, 0
13, 232800, Note_on_c, 9, 40, 113
13, 233279, Note_on_c, 9, 40, 0
13, 233760, Note_on_c, 9, 40, 113
13, 234239, Note_on_c, 9, 40, 0
13, 234720, Note_on_c, 9, 40, 113
13, 235199, Note_on_c, 9, 40, 0
13, 235680, Note_on_c, 9, 40, 113
13, 236159, Note_on_c, 9, 40, 0
13, 236640, Note_on_c, 9, 40, 113
13, 237119, Note_on_c, 9, 40, 0
13, 237360, Note_on_c, 9, 40, 113
13, 237599, Note_on_c, 9, 40, 0
13, 237600, Note_on_c, 9, 40, 113
13, 238079, Note_on_c, 9, 40, 0
13, 238560, Note_on_c, 9, 40, 113
13, 239039, Note_on_c, 9, 40, 0
13, 239520, Note_on_c, 9, 40, 113
13, 239999, Note_on_c, 9, 40, 0
13, 240480, Note_on_c, 9, 40, 113
13, 240959, Note_on_c, 9, 40, 0
13, 241200, Note_on_c, 9, 40, 113
13, 241439, Note_on_c, 9, 40, 0
13, 241440, Note_on_c, 9, 40, 113
13, 241919, Note_on_c, 9, 40, 0
13, 242400, Note_on_c, 9, 40, 113
13, 242879, Note_on_c, 9, 40, 0
13, 243360, Note_on_c, 9, 40, 113
13, 243839, Note_on_c, 9, 40, 0
13, 243840, Note_on_c, 9, 40, 113
13, 244319, Note_on_c, 9, 40, 0
13, 244320, Note_on_c, 9, 40, 113
13, 244799, Note_on_c, 9, 40, 0
13, 245160, Note_on_c, 9, 40, 113
13, 245279, Note_on_c, 9, 40, 0
13, 245280, Note_on_c, 9, 40, 113
13, 245519, Note_on_c, 9, 40, 0
13, 245520, Note_on_c, 9, 40, 113
13, 245759, Note_on_c, 9, 40, 0
13, 246240, Note_on_c, 9, 40, 113
13, 246719, Note_on_c, 9, 40, 0
13, 247200, Note_on_c, 9, 40, 113
13, 247679, Note_on_c, 9, 40, 0
13, 248160, Note_on_c, 9, 40, 113
13, 248639, Note_on_c, 9, 40, 0
13, 249120, Note_on_c, 9, 40, 113
13, 249599, Note_on_c, 9, 40, 0
13, 250080, Note_on_c, 9, 40, 113
13, 250559, Note_on_c, 9, 40, 0
13, 251040, Note_on_c, 9, 40, 113
13, 251519, Note_on_c, 9, 40, 0
13, 252000, Note_on_c, 9, 40, 113
13, 252479, Note_on_c, 9, 40, 0
13, 252960, Note_on_c, 9, 40, 113
13, 253439, Note_on_c, 9, 40, 0
13, 253920, Note_on_c, 9, 40, 113
13, 254399, Note_on_c, 9, 40, 0
13, 254880, Note_on_c, 9, 40, 113
13, 255359, Note_on_c, 9, 40, 0
13, 255840, Note_on_c, 9, 40, 113
13, 256319, Note_on_c, 9, 40, 0
13, 256800, Note_on_c, 9, 40, 113
13, 257279, Note_on_c, 9, 40, 0
13, 257760, Note_on_c, 9, 40, 113
13, 258239, Note_on_c, 9, 40, 0
13, 258720, Note_on_c, 9, 40, 113
13, 259199, Note_on_c, 9, 40, 0
13, 259680, Note_on_c, 9, 40, 113
13, 260159, Note_on_c, 9, 40, 0
13, 260640, Note_on_c, 9, 40, 113
13, 261119, Note_on_c, 9, 40, 0
13, 261600, Note_on_c, 9, 40, 113
13, 262079, Note_on_c, 9, 40, 0
13, 262560, Note_on_c, 9, 40, 113
13, 263039, Note_on_c, 9, 40, 0
13, 263520, Note_on_c, 9, 40, 113
13, 263999, Note_on_c, 9, 40, 0
13, 264480, Note_on_c, 9, 40, 113
13, 264959, Note_on_c, 9, 40, 0
13, 265440, Note_on_c, 9, 40, 113
13, 265919, Note_on_c, 9, 40, 0
13, 266400, Note_on_c, 9, 40, 113
13, 266879, Note_on_c, 9, 40, 0
13, 267360, Note_on_c, 9, 40, 113
13, 267839, Note_on_c, 9, 40, 0
13, 268320, Note_on_c, 9, 40, 113
13, 268799, Note_on_c, 9, 40, 0
13, 269280, Note_on_c, 9, 40, 113
13, 269759, Note_on_c, 9, 40, 0
13, 270240, Note_on_c, 9, 40, 113
13, 270719, Note_on_c, 9, 40, 0
13, 271200, Note_on_c, 9, 40, 113
13, 271679, Note_on_c, 9, 40, 0
13, 272160, Note_on_c, 9, 40, 113
13, 272639, Note_on_c, 9, 40, 0
13, 273120, Note_on_c, 9, 40, 113
13, 273599, Note_on_c, 9, 40, 0
13, 274080, Note_on_c, 9, 40, 113
13, 274559, Note_on_c, 9, 40, 0
13, 275040, Note_on_c, 9, 40, 113
13, 275519, Note_on_c, 9, 40, 0
13, 276000, Note_on_c, 9, 40, 113
13, 276479, Note_on_c, 9, 40, 0
13, 276960, Note_on_c, 9, 40, 113
13, 277439, Note_on_c, 9, 40, 0
13, 277920, Note_on_c, 9, 40, 113
13, 278399, Note_on_c, 9, 40, 0
13, 278400, Note_on_c, 9, 40, 113
13, 278879, Note_on_c, 9, 40, 0
13, 278880, Note_on_c, 9, 40, 113
13, 279359, Note_on_c, 9, 40, 0
13, 279720, Note_on_c, 9, 40, 113
13, 279839, Note_on_c, 9, 40, 0
13, 279840, Note_on_c, 9, 40, 113
13, 280079, Note_on_c, 9, 40, 0
13, 280080, Note_on_c, 9, 40, 113
13, 280319, Note_on_c, 9, 40, 0
13, 280320, Note_on_c, 9, 40, 100
13, 280559, Note_on_c, 9, 40, 0
13, 280560, Note_on_c, 9, 40, 116
13, 280799, Note_on_c, 9, 40, 0
13, 280800, End_track
14, 0, Start_track
14, 0, Key_signature, 0, "major"
14, 0, Control_c, 9, 121, 0
14, 0, Program_c, 9, 48
14, 0, Control_c, 9, 7, 100
14, 0, Control_c, 9, 10, 64
14, 0, Control_c, 9, 91, 0
14, 0, Control_c, 9, 93, 0
14, 0, MIDI_port, 1
14, 4560, Note_on_c, 9, 36, 113
14, 4799, Note_on_c, 9, 36, 0
14, 4935, Note_on_c, 9, 36, 113
14, 4979, Note_on_c, 9, 36, 0
14, 5520, Note_on_c, 9, 36, 113
14, 5759, Note_on_c, 9, 36, 0
14, 6000, Note_on_c, 9, 36, 113
14, 6239, Note_on_c, 9, 36, 0
14, 6375, Note_on_c, 9, 36, 113
14, 6419, Note_on_c, 9, 36, 0
14, 6480, Note_on_c, 9, 36, 113
14, 6719, Note_on_c, 9, 36, 0
14, 8400, Note_on_c, 9, 36, 113
14, 8639, Note_on_c, 9, 36, 0
14, 8775, Note_on_c, 9, 36, 113
14, 8819, Note_on_c, 9, 36, 0
14, 9360, Note_on_c, 9, 36, 113
14, 9599, Note_on_c, 9, 36, 0
14, 9840, Note_on_c, 9, 36, 113
14, 10079, Note_on_c, 9, 36, 0
14, 10215, Note_on_c, 9, 36, 113
14, 10259, Note_on_c, 9, 36, 0
14, 10320, Note_on_c, 9, 36, 113
14, 10559, Note_on_c, 9, 36, 0
14, 12240, Note_on_c, 9, 36, 113
14, 12479, Note_on_c, 9, 36, 0
14, 12615, Note_on_c, 9, 36, 113
14, 12659, Note_on_c, 9, 36, 0
14, 13200, Note_on_c, 9, 36, 113
14, 13439, Note_on_c, 9, 36, 0
14, 13680, Note_on_c, 9, 36, 113
14, 13919, Note_on_c, 9, 36, 0
14, 14055, Note_on_c, 9, 36, 113
14, 14099, Note_on_c, 9, 36, 0
14, 14160, Note_on_c, 9, 36, 113
14, 14399, Note_on_c, 9, 36, 0
14, 16080, Note_on_c, 9, 36, 113
14, 16319, Note_on_c, 9, 36, 0
14, 16455, Note_on_c, 9, 36, 113
14, 16499, Note_on_c, 9, 36, 0
14, 17040, Note_on_c, 9, 36, 113
14, 17279, Note_on_c, 9, 36, 0
14, 17520, Note_on_c, 9, 36, 113
14, 17759, Note_on_c, 9, 36, 0
14, 17895, Note_on_c, 9, 36, 113
14, 17939, Note_on_c, 9, 36, 0
14, 18000, Note_on_c, 9, 36, 113
14, 18239, Note_on_c, 9, 36, 0
14, 19440, Note_on_c, 9, 36, 113
14, 19679, Note_on_c, 9, 36, 0
14, 19800, Note_on_c, 9, 36, 113
14, 20159, Note_on_c, 9, 36, 0
14, 20160, Note_on_c, 9, 36, 113
14, 20639, Note_on_c, 9, 36, 0
14, 20640, Note_on_c, 9, 36, 113
14, 21119, Note_on_c, 9, 36, 0
14, 21120, Note_on_c, 9, 36, 113
14, 21599, Note_on_c, 9, 36, 0
14, 21600, Note_on_c, 9, 36, 113
14, 22079, Note_on_c, 9, 36, 0
14, 22080, Note_on_c, 9, 36, 113
14, 22559, Note_on_c, 9, 36, 0
14, 22560, Note_on_c, 9, 36, 113
14, 23039, Note_on_c, 9, 36, 0
14, 23040, Note_on_c, 9, 36, 113
14, 23519, Note_on_c, 9, 36, 0
14, 23520, Note_on_c, 9, 36, 113
14, 23999, Note_on_c, 9, 36, 0
14, 24000, Note_on_c, 9, 36, 113
14, 24479, Note_on_c, 9, 36, 0
14, 24960, Note_on_c, 9, 36, 113
14, 25439, Note_on_c, 9, 36, 0
14, 25920, Note_on_c, 9, 36, 113
14, 26399, Note_on_c, 9, 36, 0
14, 26880, Note_on_c, 9, 36, 113
14, 27359, Note_on_c, 9, 36, 0
14, 27840, Note_on_c, 9, 36, 113
14, 28319, Note_on_c, 9, 36, 0
14, 28560, Note_on_c, 9, 36, 113
14, 28799, Note_on_c, 9, 36, 0
14, 28800, Note_on_c, 9, 36, 113
14, 29279, Note_on_c, 9, 36, 0
14, 29760, Note_on_c, 9, 36, 113
14, 30239, Note_on_c, 9, 36, 0
14, 30720, Note_on_c, 9, 36, 113
14, 31199, Note_on_c, 9, 36, 0
14, 31680, Note_on_c, 9, 36, 113
14, 32159, Note_on_c, 9, 36, 0
14, 32400, Note_on_c, 9, 36, 113
14, 32639, Note_on_c, 9, 36, 0
14, 32640, Note_on_c, 9, 36, 113
14, 33119, Note_on_c, 9, 36, 0
14, 33600, Note_on_c, 9, 36, 113
14, 34079, Note_on_c, 9, 36, 0
14, 34560, Note_on_c, 9, 36, 113
14, 35039, Note_on_c, 9, 36, 0
14, 35520, Note_on_c, 9, 36, 113
14, 35999, Note_on_c, 9, 36, 0
14, 36240, Note_on_c, 9, 36, 113
14, 36479, Note_on_c, 9, 36, 0
14, 36480, Note_on_c, 9, 36, 113
14, 36959, Note_on_c, 9, 36, 0
14, 37440, Note_on_c, 9, 36, 113
14, 37919, Note_on_c, 9, 36, 0
14, 38400, Note_on_c, 9, 36, 113
14, 38879, Note_on_c, 9, 36, 0
14, 39360, Note_on_c, 9, 36, 113
14, 39839, Note_on_c, 9, 36, 0
14, 40080, Note_on_c, 9, 36, 113
14, 40319, Note_on_c, 9, 36, 0
14, 40320, Note_on_c, 9, 36, 113
14, 40799, Note_on_c, 9, 36, 0
14, 41280, Note_on_c, 9, 36, 113
14, 41759, Note_on_c, 9, 36, 0
14, 42240, Note_on_c, 9, 36, 113
14, 42719, Note_on_c, 9, 36, 0
14, 43200, Note_on_c, 9, 36, 113
14, 43679, Note_on_c, 9, 36, 0
14, 43920, Note_on_c, 9, 36, 113
14, 44159, Note_on_c, 9, 36, 0
14, 44160, Note_on_c, 9, 36, 113
14, 44639, Note_on_c, 9, 36, 0
14, 45120, Note_on_c, 9, 36, 113
14, 45599, Note_on_c, 9, 36, 0
14, 46080, Note_on_c, 9, 36, 113
14, 46559, Note_on_c, 9, 36, 0
14, 47040, Note_on_c, 9, 36, 113
14, 47519, Note_on_c, 9, 36, 0
14, 48000, Note_on_c, 9, 36, 113
14, 48479, Note_on_c, 9, 36, 0
14, 48960, Note_on_c, 9, 36, 113
14, 49439, Note_on_c, 9, 36, 0
14, 49920, Note_on_c, 9, 36, 113
14, 50399, Note_on_c, 9, 36, 0
14, 50880, Note_on_c, 9, 36, 113
14, 51359, Note_on_c, 9, 36, 0
14, 51600, Note_on_c, 9, 36, 113
14, 51839, Note_on_c, 9, 36, 0
14, 51840, Note_on_c, 9, 36, 113
14, 52319, Note_on_c, 9, 36, 0
14, 52800, Note_on_c, 9, 36, 113
14, 53279, Note_on_c, 9, 36, 0
14, 53760, Note_on_c, 9, 36, 113
14, 54239, Note_on_c, 9, 36, 0
14, 54720, Note_on_c, 9, 36, 113
14, 55199, Note_on_c, 9, 36, 0
14, 55440, Note_on_c, 9, 36, 113
14, 55679, Note_on_c, 9, 36, 0
14, 55680, Note_on_c, 9, 36, 113
14, 56159, Note_on_c, 9, 36, 0
14, 56640, Note_on_c, 9, 36, 113
14, 57119, Note_on_c, 9, 36, 0
14, 57600, Note_on_c, 9, 36, 113
14, 58079, Note_on_c, 9, 36, 0
14, 58560, Note_on_c, 9, 36, 113
14, 59039, Note_on_c, 9, 36, 0
14, 59280, Note_on_c, 9, 36, 113
14, 59519, Note_on_c, 9, 36, 0
14, 59520, Note_on_c, 9, 36, 113
14, 59999, Note_on_c, 9, 36, 0
14, 60480, Note_on_c, 9, 36, 113
14, 60959, Note_on_c, 9, 36, 0
14, 61440, Note_on_c, 9, 36, 113
14, 61919, Note_on_c, 9, 36, 0
14, 62400, Note_on_c, 9, 36, 113
14, 62879, Note_on_c, 9, 36, 0
14, 62880, Note_on_c, 9, 36, 113
14, 63359, Note_on_c, 9, 36, 0
14, 63360, Note_on_c, 9, 36, 113
14, 63839, Note_on_c, 9, 36, 0
14, 63840, Note_on_c, 9, 36, 113
14, 64319, Note_on_c, 9, 36, 0
14, 65280, Note_on_c, 9, 36, 113
14, 65759, Note_on_c, 9, 36, 0
14, 66240, Note_on_c, 9, 36, 113
14, 66719, Note_on_c, 9, 36, 0
14, 67200, Note_on_c, 9, 36, 113
14, 67679, Note_on_c, 9, 36, 0
14, 68160, Note_on_c, 9, 36, 113
14, 68639, Note_on_c, 9, 36, 0
14, 68880, Note_on_c, 9, 36, 113
14, 69119, Note_on_c, 9, 36, 0
14, 69120, Note_on_c, 9, 36, 113
14, 69599, Note_on_c, 9, 36, 0
14, 70080, Note_on_c, 9, 36, 113
14, 70559, Note_on_c, 9, 36, 0
14, 71040, Note_on_c, 9, 36, 113
14, 71519, Note_on_c, 9, 36, 0
14, 72000, Note_on_c, 9, 36, 113
14, 72479, Note_on_c, 9, 36, 0
14, 72720, Note_on_c, 9, 36, 113
14, 72959, Note_on_c, 9, 36, 0
14, 72960, Note_on_c, 9, 36, 113
14, 73439, Note_on_c, 9, 36, 0
14, 73920, Note_on_c, 9, 36, 113
14, 74399, Note_on_c, 9, 36, 0
14, 74880, Note_on_c, 9, 36, 113
14, 75359, Note_on_c, 9, 36, 0
14, 75840, Note_on_c, 9, 36, 113
14, 76319, Note_on_c, 9, 36, 0
14, 76560, Note_on_c, 9, 36, 113
14, 76799, Note_on_c, 9, 36, 0
14, 76800, Note_on_c, 9, 36, 113
14, 77279, Note_on_c, 9, 36, 0
14, 77760, Note_on_c, 9, 36, 113
14, 78239, Note_on_c, 9, 36, 0
14, 78720, Note_on_c, 9, 36, 113
14, 79199, Note_on_c, 9, 36, 0
14, 79680, Note_on_c, 9, 36, 113
14, 80159, Note_on_c, 9, 36, 0
14, 80400, Note_on_c, 9, 36, 113
14, 80639, Note_on_c, 9, 36, 0
14, 80640, Note_on_c, 9, 36, 113
14, 81119, Note_on_c, 9, 36, 0
14, 81600, Note_on_c, 9, 36, 113
14, 82079, Note_on_c, 9, 36, 0
14, 82560, Note_on_c, 9, 36, 113
14, 83039, Note_on_c, 9, 36, 0
14, 83520, Note_on_c, 9, 36, 113
14, 83999, Note_on_c, 9, 36, 0
14, 84240, Note_on_c, 9, 36, 113
14, 84479, Note_on_c, 9, 36, 0
14, 84480, Note_on_c, 9, 36, 113
14, 84959, Note_on_c, 9, 36, 0
14, 85440, Note_on_c, 9, 36, 113
14, 85919, Note_on_c, 9, 36, 0
14, 86400, Note_on_c, 9, 36, 113
14, 86879, Note_on_c, 9, 36, 0
14, 87360, Note_on_c, 9, 36, 113
14, 87839, Note_on_c, 9, 36, 0
14, 88080, Note_on_c, 9, 36, 113
14, 88319, Note_on_c, 9, 36, 0
14, 88320, Note_on_c, 9, 36, 113
14, 88799, Note_on_c, 9, 36, 0
14, 89280, Note_on_c, 9, 36, 113
14, 89759, Note_on_c, 9, 36, 0
14, 90240, Note_on_c, 9, 36, 113
14, 90719, Note_on_c, 9, 36, 0
14, 91200, Note_on_c, 9, 36, 113
14, 91439, Note_on_c, 9, 36, 0
14, 91440, Note_on_c, 9, 36, 113
14, 91679, Note_on_c, 9, 36, 0
14, 91680, Note_on_c, 9, 36, 113
14, 91919, Note_on_c, 9, 36, 0
14, 91920, Note_on_c, 9, 36, 113
14, 92159, Note_on_c, 9, 36, 0
14, 92160, Note_on_c, 9, 36, 113
14, 92639, Note_on_c, 9, 36, 0
14, 93120, Note_on_c, 9, 36, 113
14, 93599, Note_on_c, 9, 36, 0
14, 94080, Note_on_c, 9, 36, 113
14, 94559, Note_on_c, 9, 36, 0
14, 95040, Note_on_c, 9, 36, 113
14, 95519, Note_on_c, 9, 36, 0
14, 95760, Note_on_c, 9, 36, 113
14, 95999, Note_on_c, 9, 36, 0
14, 96000, Note_on_c, 9, 36, 113
14, 96479, Note_on_c, 9, 36, 0
14, 96960, Note_on_c, 9, 36, 113
14, 97439, Note_on_c, 9, 36, 0
14, 97920, Note_on_c, 9, 36, 113
14, 98399, Note_on_c, 9, 36, 0
14, 98880, Note_on_c, 9, 36, 113
14, 99359, Note_on_c, 9, 36, 0
14, 99600, Note_on_c, 9, 36, 113
14, 99839, Note_on_c, 9, 36, 0
14, 99840, Note_on_c, 9, 36, 113
14, 100319, Note_on_c, 9, 36, 0
14, 100800, Note_on_c, 9, 36, 113
14, 101279, Note_on_c, 9, 36, 0
14, 101760, Note_on_c, 9, 36, 113
14, 102239, Note_on_c, 9, 36, 0
14, 102720, Note_on_c, 9, 36, 113
14, 103199, Note_on_c, 9, 36, 0
14, 103440, Note_on_c, 9, 36, 113
14, 103679, Note_on_c, 9, 36, 0
14, 103680, Note_on_c, 9, 36, 113
14, 104159, Note_on_c, 9, 36, 0
14, 104640, Note_on_c, 9, 36, 113
14, 105119, Note_on_c, 9, 36, 0
14, 105600, Note_on_c, 9, 36, 113
14, 106079, Note_on_c, 9, 36, 0
14, 106560, Note_on_c, 9, 36, 113
14, 107039, Note_on_c, 9, 36, 0
14, 107280, Note_on_c, 9, 36, 113
14, 107519, Note_on_c, 9, 36, 0
14, 107520, Note_on_c, 9, 36, 113
14, 107999, Note_on_c, 9, 36, 0
14, 108480, Note_on_c, 9, 36, 113
14, 108959, Note_on_c, 9, 36, 0
14, 109440, Note_on_c, 9, 36, 113
14, 109919, Note_on_c, 9, 36, 0
14, 110400, Note_on_c, 9, 36, 113
14, 110879, Note_on_c, 9, 36, 0
14, 111120, Note_on_c, 9, 36, 113
14, 111359, Note_on_c, 9, 36, 0
14, 111360, Note_on_c, 9, 36, 113
14, 111839, Note_on_c, 9, 36, 0
14, 112320, Note_on_c, 9, 36, 113
14, 112799, Note_on_c, 9, 36, 0
14, 113280, Note_on_c, 9, 36, 113
14, 113759, Note_on_c, 9, 36, 0
14, 114240, Note_on_c, 9, 36, 113
14, 114719, Note_on_c, 9, 36, 0
14, 115200, Note_on_c, 9, 36, 113
14, 115679, Note_on_c, 9, 36, 0
14, 116160, Note_on_c, 9, 36, 113
14, 116639, Note_on_c, 9, 36, 0
14, 117120, Note_on_c, 9, 36, 113
14, 117599, Note_on_c, 9, 36, 0
14, 118080, Note_on_c, 9, 36, 113
14, 118559, Note_on_c, 9, 36, 0
14, 118800, Note_on_c, 9, 36, 113
14, 119039, Note_on_c, 9, 36, 0
14, 119040, Note_on_c, 9, 36, 113
14, 119519, Note_on_c, 9, 36, 0
14, 120000, Note_on_c, 9, 36, 113
14, 120479, Note_on_c, 9, 36, 0
14, 120960, Note_on_c, 9, 36, 113
14, 121439, Note_on_c, 9, 36, 0
14, 121920, Note_on_c, 9, 36, 113
14, 122399, Note_on_c, 9, 36, 0
14, 122640, Note_on_c, 9, 36, 113
14, 122879, Note_on_c, 9, 36, 0
14, 122880, Note_on_c, 9, 36, 113
14, 123359, Note_on_c, 9, 36, 0
14, 123840, Note_on_c, 9, 36, 113
14, 124319, Note_on_c, 9, 36, 0
14, 124800, Note_on_c, 9, 36, 113
14, 125279, Note_on_c, 9, 36, 0
14, 125760, Note_on_c, 9, 36, 113
14, 126239, Note_on_c, 9, 36, 0
14, 126480, Note_on_c, 9, 36, 113
14, 126719, Note_on_c, 9, 36, 0
14, 126720, Note_on_c, 9, 36, 113
14, 127199, Note_on_c, 9, 36, 0
14, 127680, Note_on_c, 9, 36, 113
14, 128159, Note_on_c, 9, 36, 0
14, 128640, Note_on_c, 9, 36, 113
14, 129119, Note_on_c, 9, 36, 0
14, 129600, Note_on_c, 9, 36, 113
14, 130079, Note_on_c, 9, 36, 0
14, 130080, Note_on_c, 9, 36, 113
14, 130559, Note_on_c, 9, 36, 0
14, 130560, Note_on_c, 9, 36, 113
14, 131039, Note_on_c, 9, 36, 0
14, 131040, Note_on_c, 9, 36, 113
14, 131519, Note_on_c, 9, 36, 0
14, 132480, Note_on_c, 9, 36, 113
14, 132959, Note_on_c, 9, 36, 0
14, 133440, Note_on_c, 9, 36, 113
14, 133919, Note_on_c, 9, 36, 0
14, 134400, Note_on_c, 9, 36, 113
14, 134879, Note_on_c, 9, 36, 0
14, 135360, Note_on_c, 9, 36, 113
14, 135839, Note_on_c, 9, 36, 0
14, 136080, Note_on_c, 9, 36, 113
14, 136319, Note_on_c, 9, 36, 0
14, 136320, Note_on_c, 9, 36, 113
14, 136799, Note_on_c, 9, 36, 0
14, 137280, Note_on_c, 9, 36, 113
14, 137759, Note_on_c, 9, 36, 0
14, 138240, Note_on_c, 9, 36, 113
14, 138719, Note_on_c, 9, 36, 0
14, 139200, Note_on_c, 9, 36, 113
14, 139679, Note_on_c, 9, 36, 0
14, 139920, Note_on_c, 9, 36, 113
14, 140159, Note_on_c, 9, 36, 0
14, 140160, Note_on_c, 9, 36, 113
14, 140639, Note_on_c, 9, 36, 0
14, 141120, Note_on_c, 9, 36, 113
14, 141599, Note_on_c, 9, 36, 0
14, 142080, Note_on_c, 9, 36, 113
14, 142559, Note_on_c, 9, 36, 0
14, 143040, Note_on_c, 9, 36, 113
14, 143519, Note_on_c, 9, 36, 0
14, 143760, Note_on_c, 9, 36, 113
14, 143999, Note_on_c, 9, 36, 0
14, 144000, Note_on_c, 9, 36, 113
14, 144479, Note_on_c, 9, 36, 0
14, 144960, Note_on_c, 9, 36, 113
14, 145439, Note_on_c, 9, 36, 0
14, 145920, Note_on_c, 9, 36, 113
14, 146399, Note_on_c, 9, 36, 0
14, 146880, Note_on_c, 9, 36, 113
14, 147359, Note_on_c, 9, 36, 0
14, 147600, Note_on_c, 9, 36, 113
14, 147839, Note_on_c, 9, 36, 0
14, 147840, Note_on_c, 9, 36, 113
14, 148319, Note_on_c, 9, 36, 0
14, 148800, Note_on_c, 9, 36, 113
14, 149279, Note_on_c, 9, 36, 0
14, 149760, Note_on_c, 9, 36, 113
14, 150239, Note_on_c, 9, 36, 0
14, 150720, Note_on_c, 9, 36, 113
14, 151199, Note_on_c, 9, 36, 0
14, 151440, Note_on_c, 9, 36, 113
14, 151679, Note_on_c, 9, 36, 0
14, 151680, Note_on_c, 9, 36, 113
14, 152159, Note_on_c, 9, 36, 0
14, 152640, Note_on_c, 9, 36, 113
14, 153119, Note_on_c, 9, 36, 0
14, 153600, Note_on_c, 9, 36, 113
14, 154079, Note_on_c, 9, 36, 0
14, 154560, Note_on_c, 9, 36, 113
14, 155039, Note_on_c, 9, 36, 0
14, 155280, Note_on_c, 9, 36, 113
14, 155519, Note_on_c, 9, 36, 0
14, 155520, Note_on_c, 9, 36, 113
14, 155999, Note_on_c, 9, 36, 0
14, 156480, Note_on_c, 9, 36, 113
14, 156959, Note_on_c, 9, 36, 0
14, 157440, Note_on_c, 9, 36, 113
14, 157919, Note_on_c, 9, 36, 0
14, 158400, Note_on_c, 9, 36, 113
14, 158879, Note_on_c, 9, 36, 0
14, 159120, Note_on_c, 9, 36, 113
14, 159359, Note_on_c, 9, 36, 0
14, 159360, Note_on_c, 9, 36, 113
14, 159839, Note_on_c, 9, 36, 0
14, 159840, Note_on_c, 9, 36, 113
14, 160319, Note_on_c, 9, 36, 0
14, 160320, Note_on_c, 9, 36, 113
14, 160799, Note_on_c, 9, 36, 0
14, 160800, Note_on_c, 9, 36, 113
14, 161279, Note_on_c, 9, 36, 0
14, 161280, Note_on_c, 9, 36, 113
14, 161759, Note_on_c, 9, 36, 0
14, 161760, Note_on_c, 9, 36, 113
14, 162239, Note_on_c, 9, 36, 0
14, 162240, Note_on_c, 9, 36, 113
14, 162719, Note_on_c, 9, 36, 0
14, 162720, Note_on_c, 9, 36, 113
14, 163199, Note_on_c, 9, 36, 0
14, 163200, Note_on_c, 9, 36, 113
14, 163679, Note_on_c, 9, 36, 0
14, 163680, Note_on_c, 9, 36, 113
14, 164159, Note_on_c, 9, 36, 0
14, 164160, Note_on_c, 9, 36, 113
14, 164639, Note_on_c, 9, 36, 0
14, 164640, Note_on_c, 9, 36, 113
14, 165119, Note_on_c, 9, 36, 0
14, 165120, Note_on_c, 9, 36, 113
14, 165599, Note_on_c, 9, 36, 0
14, 165600, Note_on_c, 9, 36, 113
14, 166079, Note_on_c, 9, 36, 0
14, 166080, Note_on_c, 9, 36, 113
14, 166559, Note_on_c, 9, 36, 0
14, 166560, Note_on_c, 9, 36, 113
14, 167039, Note_on_c, 9, 36, 0
14, 167040, Note_on_c, 9, 36, 113
14, 167519, Note_on_c, 9, 36, 0
14, 167520, Note_on_c, 9, 36, 113
14, 167999, Note_on_c, 9, 36, 0
14, 168000, Note_on_c, 9, 36, 113
14, 168479, Note_on_c, 9, 36, 0
14, 168480, Note_on_c, 9, 36, 113
14, 168959, Note_on_c, 9, 36, 0
14, 168960, Note_on_c, 9, 36, 113
14, 169439, Note_on_c, 9, 36, 0
14, 169440, Note_on_c, 9, 36, 113
14, 169919, Note_on_c, 9, 36, 0
14, 169920, Note_on_c, 9, 36, 113
14, 170399, Note_on_c, 9, 36, 0
14, 170400, Note_on_c, 9, 36, 113
14, 170879, Note_on_c, 9, 36, 0
14, 170880, Note_on_c, 9, 36, 113
14, 171359, Note_on_c, 9, 36, 0
14, 171360, Note_on_c, 9, 36, 113
14, 171839, Note_on_c, 9, 36, 0
14, 171840, Note_on_c, 9, 36, 113
14, 172319, Note_on_c, 9, 36, 0
14, 172320, Note_on_c, 9, 36, 113
14, 172799, Note_on_c, 9, 36, 0
14, 172800, Note_on_c, 9, 36, 113
14, 173279, Note_on_c, 9, 36, 0
14, 173280, Note_on_c, 9, 36, 113
14, 173759, Note_on_c, 9, 36, 0
14, 173760, Note_on_c, 9, 36, 113
14, 174239, Note_on_c, 9, 36, 0
14, 174240, Note_on_c, 9, 36, 113
14, 174719, Note_on_c, 9, 36, 0
14, 174720, Note_on_c, 9, 36, 113
14, 175199, Note_on_c, 9, 36, 0
14, 175200, Note_on_c, 9, 36, 113
14, 175679, Note_on_c, 9, 36, 0
14, 175680, Note_on_c, 9, 36, 113
14, 176159, Note_on_c, 9, 36, 0
14, 176160, Note_on_c, 9, 36, 113
14, 176639, Note_on_c, 9, 36, 0
14, 176640, Note_on_c, 9, 36, 113
14, 177119, Note_on_c, 9, 36, 0
14, 177120, Note_on_c, 9, 36, 113
14, 177599, Note_on_c, 9, 36, 0
14, 177600, Note_on_c, 9, 36, 113
14, 178079, Note_on_c, 9, 36, 0
14, 178080, Note_on_c, 9, 36, 113
14, 178319, Note_on_c, 9, 36, 0
14, 178320, Note_on_c, 9, 36, 113
14, 178559, Note_on_c, 9, 36, 0
14, 178560, Note_on_c, 9, 36, 113
14, 179039, Note_on_c, 9, 36, 0
14, 179040, Note_on_c, 9, 36, 113
14, 179519, Note_on_c, 9, 36, 0
14, 179520, Note_on_c, 9, 36, 113
14, 179999, Note_on_c, 9, 36, 0
14, 180000, Note_on_c, 9, 36, 113
14, 180479, Note_on_c, 9, 36, 0
14, 180480, Note_on_c, 9, 36, 113
14, 180959, Note_on_c, 9, 36, 0
14, 180960, Note_on_c, 9, 36, 113
14, 181439, Note_on_c, 9, 36, 0
14, 181440, Note_on_c, 9, 36, 113
14, 181919, Note_on_c, 9, 36, 0
14, 181920, Note_on_c, 9, 36, 113
14, 182159, Note_on_c, 9, 36, 0
14, 182160, Note_on_c, 9, 36, 113
14, 182399, Note_on_c, 9, 36, 0
14, 182400, Note_on_c, 9, 36, 113
14, 182879, Note_on_c, 9, 36, 0
14, 182880, Note_on_c, 9, 36, 113
14, 183359, Note_on_c, 9, 36, 0
14, 183360, Note_on_c, 9, 36, 113
14, 183839, Note_on_c, 9, 36, 0
14, 183840, Note_on_c, 9, 36, 113
14, 184319, Note_on_c, 9, 36, 0
14, 184320, Note_on_c, 9, 36, 113
14, 184799, Note_on_c, 9, 36, 0
14, 184800, Note_on_c, 9, 36, 113
14, 185279, Note_on_c, 9, 36, 0
14, 185280, Note_on_c, 9, 36, 113
14, 185759, Note_on_c, 9, 36, 0
14, 185760, Note_on_c, 9, 36, 113
14, 185999, Note_on_c, 9, 36, 0
14, 186000, Note_on_c, 9, 36, 113
14, 186239, Note_on_c, 9, 36, 0
14, 186240, Note_on_c, 9, 36, 113
14, 186719, Note_on_c, 9, 36, 0
14, 186720, Note_on_c, 9, 36, 113
14, 187199, Note_on_c, 9, 36, 0
14, 187200, Note_on_c, 9, 36, 113
14, 187679, Note_on_c, 9, 36, 0
14, 187680, Note_on_c, 9, 36, 113
14, 188159, Note_on_c, 9, 36, 0
14, 188160, Note_on_c, 9, 36, 113
14, 188639, Note_on_c, 9, 36, 0
14, 188640, Note_on_c, 9, 36, 113
14, 189119, Note_on_c, 9, 36, 0
14, 189120, Note_on_c, 9, 36, 113
14, 189359, Note_on_c, 9, 36, 0
14, 189360, Note_on_c, 9, 36, 113
14, 189599, Note_on_c, 9, 36, 0
14, 189600, Note_on_c, 9, 36, 113
14, 189839, Note_on_c, 9, 36, 0
14, 189840, Note_on_c, 9, 36, 113
14, 190079, Note_on_c, 9, 36, 0
14, 190080, Note_on_c, 9, 36, 113
14, 190559, Note_on_c, 9, 36, 0
14, 191040, Note_on_c, 9, 36, 113
14, 191519, Note_on_c, 9, 36, 0
14, 192000, Note_on_c, 9, 36, 113
14, 192479, Note_on_c, 9, 36, 0
14, 192960, Note_on_c, 9, 36, 113
14, 193439, Note_on_c, 9, 36, 0
14, 193680, Note_on_c, 9, 36, 113
14, 193919, Note_on_c, 9, 36, 0
14, 193920, Note_on_c, 9, 36, 113
14, 194399, Note_on_c, 9, 36, 0
14, 194880, Note_on_c, 9, 36, 113
14, 195359, Note_on_c, 9, 36, 0
14, 195840, Note_on_c, 9, 36, 113
14, 196319, Note_on_c, 9, 36, 0
14, 196800, Note_on_c, 9, 36, 113
14, 197279, Note_on_c, 9, 36, 0
14, 197520, Note_on_c, 9, 36, 113
14, 197759, Note_on_c, 9, 36, 0
14, 197760, Note_on_c, 9, 36, 113
14, 198239, Note_on_c, 9, 36, 0
14, 198720, Note_on_c, 9, 36, 113
14, 199199, Note_on_c, 9, 36, 0
14, 199680, Note_on_c, 9, 36, 113
14, 200159, Note_on_c, 9, 36, 0
14, 200640, Note_on_c, 9, 36, 113
14, 201119, Note_on_c, 9, 36, 0
14, 201360, Note_on_c, 9, 36, 113
14, 201599, Note_on_c, 9, 36, 0
14, 201600, Note_on_c, 9, 36, 113
14, 202079, Note_on_c, 9, 36, 0
14, 202560, Note_on_c, 9, 36, 113
14, 203039, Note_on_c, 9, 36, 0
14, 203520, Note_on_c, 9, 36, 113
14, 203999, Note_on_c, 9, 36, 0
14, 204480, Note_on_c, 9, 36, 113
14, 204959, Note_on_c, 9, 36, 0
14, 204960, Note_on_c, 9, 36, 113
14, 205439, Note_on_c, 9, 36, 0
14, 205440, Note_on_c, 9, 36, 113
14, 205919, Note_on_c, 9, 36, 0
14, 205920, Note_on_c, 9, 36, 113
14, 206399, Note_on_c, 9, 36, 0
14, 209280, Note_on_c, 9, 36, 113
14, 209759, Note_on_c, 9, 36, 0
14, 209760, Note_on_c, 9, 36, 113
14, 210239, Note_on_c, 9, 36, 0
14, 211200, Note_on_c, 9, 36, 113
14, 211679, Note_on_c, 9, 36, 0
14, 212160, Note_on_c, 9, 36, 113
14, 212639, Note_on_c, 9, 36, 0
14, 213120, Note_on_c, 9, 36, 113
14, 213599, Note_on_c, 9, 36, 0
14, 214080, Note_on_c, 9, 36, 113
14, 214559, Note_on_c, 9, 36, 0
14, 214800, Note_on_c, 9, 36, 113
14, 215039, Note_on_c, 9, 36, 0
14, 215040, Note_on_c, 9, 36, 113
14, 215519, Note_on_c, 9, 36, 0
14, 216000, Note_on_c, 9, 36, 113
14, 216479, Note_on_c, 9, 36, 0
14, 216960, Note_on_c, 9, 36, 113
14, 217439, Note_on_c, 9, 36, 0
14, 217920, Note_on_c, 9, 36, 113
14, 218399, Note_on_c, 9, 36, 0
14, 218640, Note_on_c, 9, 36, 113
14, 218879, Note_on_c, 9, 36, 0
14, 218880, Note_on_c, 9, 36, 113
14, 219359, Note_on_c, 9, 36, 0
14, 219840, Note_on_c, 9, 36, 113
14, 220319, Note_on_c, 9, 36, 0
14, 220800, Note_on_c, 9, 36, 113
14, 221279, Note_on_c, 9, 36, 0
14, 221760, Note_on_c, 9, 36, 113
14, 222239, Note_on_c, 9, 36, 0
14, 222480, Note_on_c, 9, 36, 113
14, 222719, Note_on_c, 9, 36, 0
14, 222720, Note_on_c, 9, 36, 113
14, 223199, Note_on_c, 9, 36, 0
14, 223680, Note_on_c, 9, 36, 113
14, 224159, Note_on_c, 9, 36, 0
14, 224640, Note_on_c, 9, 36, 113
14, 225119, Note_on_c, 9, 36, 0
14, 225600, Note_on_c, 9, 36, 113
14, 226079, Note_on_c, 9, 36, 0
14, 226320, Note_on_c, 9, 36, 113
14, 226559, Note_on_c, 9, 36, 0
14, 226560, Note_on_c, 9, 36, 113
14, 227039, Note_on_c, 9, 36, 0
14, 227520, Note_on_c, 9, 36, 113
14, 227999, Note_on_c, 9, 36, 0
14, 228480, Note_on_c, 9, 36, 113
14, 228959, Note_on_c, 9, 36, 0
14, 229440, Note_on_c, 9, 36, 113
14, 229919, Note_on_c, 9, 36, 0
14, 230160, Note_on_c, 9, 36, 113
14, 230399, Note_on_c, 9, 36, 0
14, 230400, Note_on_c, 9, 36, 113
14, 230879, Note_on_c, 9, 36, 0
14, 231360, Note_on_c, 9, 36, 113
14, 231839, Note_on_c, 9, 36, 0
14, 232320, Note_on_c, 9, 36, 113
14, 232799, Note_on_c, 9, 36, 0
14, 233280, Note_on_c, 9, 36, 113
14, 233759, Note_on_c, 9, 36, 0
14, 234000, Note_on_c, 9, 36, 113
14, 234239, Note_on_c, 9, 36, 0
14, 234240, Note_on_c, 9, 36, 113
14, 234719, Note_on_c, 9, 36, 0
14, 235200, Note_on_c, 9, 36, 113
14, 235679, Note_on_c, 9, 36, 0
14, 236160, Note_on_c, 9, 36, 113
14, 236639, Note_on_c, 9, 36, 0
14, 237120, Note_on_c, 9, 36, 113
14, 237599, Note_on_c, 9, 36, 0
14, 237840, Note_on_c, 9, 36, 113
14, 238079, Note_on_c, 9, 36, 0
14, 238080, Note_on_c, 9, 36, 113
14, 238559, Note_on_c, 9, 36, 0
14, 239040, Note_on_c, 9, 36, 113
14, 239519, Note_on_c, 9, 36, 0
14, 240000, Note_on_c, 9, 36, 113
14, 240479, Note_on_c, 9, 36, 0
14, 240960, Note_on_c, 9, 36, 113
14, 241439, Note_on_c, 9, 36, 0
14, 241680, Note_on_c, 9, 36, 113
14, 241919, Note_on_c, 9, 36, 0
14, 241920, Note_on_c, 9, 36, 113
14, 242399, Note_on_c, 9, 36, 0
14, 242880, Note_on_c, 9, 36, 113
14, 243359, Note_on_c, 9, 36, 0
14, 243840, Note_on_c, 9, 36, 113
14, 244319, Note_on_c, 9, 36, 0
14, 244800, Note_on_c, 9, 36, 113
14, 245279, Note_on_c, 9, 36, 0
14, 245520, Note_on_c, 9, 36, 113
14, 245759, Note_on_c, 9, 36, 0
14, 245760, Note_on_c, 9, 36, 113
14, 246239, Note_on_c, 9, 36, 0
14, 246720, Note_on_c, 9, 36, 113
14, 247199, Note_on_c, 9, 36, 0
14, 247680, Note_on_c, 9, 36, 113
14, 248159, Note_on_c, 9, 36, 0
14, 248640, Note_on_c, 9, 36, 113
14, 249119, Note_on_c, 9, 36, 0
14, 249360, Note_on_c, 9, 36, 113
14, 249599, Note_on_c, 9, 36, 0
14, 249600, Note_on_c, 9, 36, 113
14, 250079, Note_on_c, 9, 36, 0
14, 250560, Note_on_c, 9, 36, 113
14, 251039, Note_on_c, 9, 36, 0
14, 251520, Note_on_c, 9, 36, 113
14, 251999, Note_on_c, 9, 36, 0
14, 252480, Note_on_c, 9, 36, 113
14, 252959, Note_on_c, 9, 36, 0
14, 253200, Note_on_c, 9, 36, 113
14, 253439, Note_on_c, 9, 36, 0
14, 253440, Note_on_c, 9, 36, 113
14, 253919, Note_on_c, 9, 36, 0
14, 254400, Note_on_c, 9, 36, 113
14, 254879, Note_on_c, 9, 36, 0
14, 255360, Note_on_c, 9, 36, 113
14, 255839, Note_on_c, 9, 36, 0
14, 256320, Note_on_c, 9, 36, 113
14, 256799, Note_on_c, 9, 36, 0
14, 257040, Note_on_c, 9, 36, 113
14, 257279, Note_on_c, 9, 36, 0
14, 257280, Note_on_c, 9, 36, 113
14, 257759, Note_on_c, 9, 36, 0
14, 258240, Note_on_c, 9, 36, 113
14, 258719, Note_on_c, 9, 36, 0
14, 259200, Note_on_c, 9, 36, 113
14, 259679, Note_on_c, 9, 36, 0
14, 260160, Note_on_c, 9, 36, 113
14, 260639, Note_on_c, 9, 36, 0
14, 260880, Note_on_c, 9, 36, 113
14, 261119, Note_on_c, 9, 36, 0
14, 261120, Note_on_c, 9, 36, 113
14, 261599, Note_on_c, 9, 36, 0
14, 262080, Note_on_c, 9, 36, 113
14, 262559, Note_on_c, 9, 36, 0
14, 263040, Note_on_c, 9, 36, 113
14, 263519, Note_on_c, 9, 36, 0
14, 264000, Note_on_c, 9, 36, 113
14, 264479, Note_on_c, 9, 36, 0
14, 264720, Note_on_c, 9, 36, 113
14, 264959, Note_on_c, 9, 36, 0
14, 264960, Note_on_c, 9, 36, 113
14, 265439, Note_on_c, 9, 36, 0
14, 265920, Note_on_c, 9, 36, 113
14, 266399, Note_on_c, 9, 36, 0
14, 266880, Note_on_c, 9, 36, 113
14, 267359, Note_on_c, 9, 36, 0
14, 267840, Note_on_c, 9, 36, 113
14, 268319, Note_on_c, 9, 36, 0
14, 268560, Note_on_c, 9, 36, 113
14, 268799, Note_on_c, 9, 36, 0
14, 268800, Note_on_c, 9, 36, 113
14, 269279, Note_on_c, 9, 36, 0
14, 269760, Note_on_c, 9, 36, 113
14, 270239, Note_on_c, 9, 36, 0
14, 270720, Note_on_c, 9, 36, 113
14, 271199, Note_on_c, 9, 36, 0
14, 271680, Note_on_c, 9, 36, 113
14, 272159, Note_on_c, 9, 36, 0
14, 272400, Note_on_c, 9, 36, 113
14, 272639, Note_on_c, 9, 36, 0
14, 272640, Note_on_c, 9, 36, 113
14, 273119, Note_on_c, 9, 36, 0
14, 273600, Note_on_c, 9, 36, 113
14, 274079, Note_on_c, 9, 36, 0
14, 274560, Note_on_c, 9, 36, 113
14, 275039, Note_on_c, 9, 36, 0
14, 275520, Note_on_c, 9, 36, 113
14, 275999, Note_on_c, 9, 36, 0
14, 276240, Note_on_c, 9, 36, 113
14, 276479, Note_on_c, 9, 36, 0
14, 276480, Note_on_c, 9, 36, 113
14, 276959, Note_on_c, 9, 36, 0
14, 277440, Note_on_c, 9, 36, 113
14, 277919, Note_on_c, 9, 36, 0
14, 278400, Note_on_c, 9, 36, 113
14, 278879, Note_on_c, 9, 36, 0
14, 279360, Note_on_c, 9, 36, 113
14, 279839, Note_on_c, 9, 36, 0
14, 280080, Note_on_c, 9, 36, 113
14, 280319, Note_on_c, 9, 36, 0
14, 280560, Note_on_c, 9, 36, 113
14, 280799, Note_on_c, 9, 36, 0
14, 280800, End_track
0, 0, End_of_file
