0, 0, Header, 1, 1, 480
1, 0, Start_track
1, 0, Time_signature, 4, 2, 24, 8
1, 0, Key_signature, 0, "major"
1, 0, Tempo, 500000
1, 0, Control_c, 9, 121, 0
1, 0, Program_c, 9, 0
1, 0, Control_c, 9, 7, 100
1, 0, Control_c, 9, 10, 64
1, 0, Control_c, 9, 91, 0
1, 0, Control_c, 9, 93, 0
1, 0, MIDI_port, 0
1, 1920, Note_on_c, 9, 37, 64
1, 2399, Note_on_c, 9, 37, 0
1, 2400, Note_on_c, 9, 37, 64
1, 2879, Note_on_c, 9, 37, 0
1, 2880, Note_on_c, 9, 37, 64
1, 3359, Note_on_c, 9, 37, 0
1, 3360, Note_on_c, 9, 37, 64
1, 3839, Note_on_c, 9, 37, 0
1, 5760, Note_on_c, 9, 38, 87
1, 5760, Note_on_c, 9, 43, 87
1, 5919, Note_on_c, 9, 38, 0
1, 5919, Note_on_c, 9, 43, 0
1, 5920, Note_on_c, 9, 38, 88
1, 5920, Note_on_c, 9, 35, 87
1, 5920, Note_on_c, 9, 43, 88
1, 5999, Note_on_c, 9, 38, 0
1, 6079, Note_on_c, 9, 35, 0
1, 6079, Note_on_c, 9, 43, 0
1, 6080, Note_on_c, 9, 38, 87
1, 6080, Note_on_c, 9, 43, 89
1, 6239, Note_on_c, 9, 38, 0
1, 6239, Note_on_c, 9, 43, 0
1, 6240, Note_on_c, 9, 38, 88
1, 6240, Note_on_c, 9, 43, 89
1, 6399, Note_on_c, 9, 38, 0
1, 6399, Note_on_c, 9, 43, 0
1, 6400, Note_on_c, 9, 38, 90
1, 6400, Note_on_c, 9, 43, 90
1, 6479, Note_on_c, 9, 38, 0
1, 6559, Note_on_c, 9, 43, 0
1, 6560, Note_on_c, 9, 38, 92
1, 6560, Note_on_c, 9, 43, 90
1, 6639, Note_on_c, 9, 43, 0
1, 6719, Note_on_c, 9, 38, 0
1, 6720, Note_on_c, 9, 38, 94
1, 6720, Note_on_c, 9, 35, 95
1, 6720, Note_on_c, 9, 43, 95
1, 7039, Note_on_c, 9, 38, 0
1, 7040, Note_on_c, 9, 46, 87
1, 7199, Note_on_c, 9, 35, 0
1, 7199, Note_on_c, 9, 43, 0
1, 7199, Note_on_c, 9, 46, 0
1, 7200, Note_on_c, 9, 42, 70
1, 7679, Note_on_c, 9, 42, 0
1, 7680, Note_on_c, 9, 42, 70
1, 7680, Note_on_c, 9, 57, 77
1, 7680, Note_on_c, 9, 35, 95
1, 7839, Note_on_c, 9, 42, 0
1, 7839, Note_on_c, 9, 57, 0
1, 7840, Note_on_c, 9, 42, 70
1, 7999, Note_on_c, 9, 42, 0
1, 8000, Note_on_c, 9, 42, 70
1, 8159, Note_on_c, 9, 35, 0
1, 8159, Note_on_c, 9, 42, 0
1, 8160, Note_on_c, 9, 38, 95
1, 8160, Note_on_c, 9, 39, 76
1, 8160, Note_on_c, 9, 42, 70
1, 8239, Note_on_c, 9, 38, 0
1, 8239, Note_on_c, 9, 39, 0
1, 8239, Note_on_c, 9, 42, 0
1, 8320, Note_on_c, 9, 42, 70
1, 8479, Note_on_c, 9, 42, 0
1, 8480, Note_on_c, 9, 39, 75
1, 8480, Note_on_c, 9, 42, 70
1, 8480, Note_on_c, 9, 35, 93
1, 8639, Note_on_c, 9, 39, 0
1, 8639, Note_on_c, 9, 42, 0
1, 8639, Note_on_c, 9, 35, 0
1, 8640, Note_on_c, 9, 42, 70
1, 8640, Note_on_c, 9, 35, 90
1, 8799, Note_on_c, 9, 42, 0
1, 8800, Note_on_c, 9, 42, 70
1, 8959, Note_on_c, 9, 42, 0
1, 8960, Note_on_c, 9, 42, 70
1, 9119, Note_on_c, 9, 35, 0
1, 9119, Note_on_c, 9, 42, 0
1, 9120, Note_on_c, 9, 38, 95
1, 9120, Note_on_c, 9, 39, 81
1, 9120, Note_on_c, 9, 42, 70
1, 9279, Note_on_c, 9, 38, 0
1, 9279, Note_on_c, 9, 39, 0
1, 9279, Note_on_c, 9, 42, 0
1, 9280, Note_on_c, 9, 42, 70
1, 9439, Note_on_c, 9, 42, 0
1, 9440, Note_on_c, 9, 42, 70
1, 9599, Note_on_c, 9, 42, 0
1, 9600, Note_on_c, 9, 42, 70
1, 9600, Note_on_c, 9, 35, 92
1, 9759, Note_on_c, 9, 42, 0
1, 9760, Note_on_c, 9, 42, 70
1, 9919, Note_on_c, 9, 42, 0
1, 9920, Note_on_c, 9, 42, 70
1, 10079, Note_on_c, 9, 35, 0
1, 10079, Note_on_c, 9, 42, 0
1, 10080, Note_on_c, 9, 38, 95
1, 10080, Note_on_c, 9, 39, 76
1, 10080, Note_on_c, 9, 42, 70
1, 10239, Note_on_c, 9, 38, 0
1, 10239, Note_on_c, 9, 39, 0
1, 10239, Note_on_c, 9, 42, 0
1, 10240, Note_on_c, 9, 42, 70
1, 10399, Note_on_c, 9, 42, 0
1, 10400, Note_on_c, 9, 39, 75
1, 10400, Note_on_c, 9, 42, 70
1, 10400, Note_on_c, 9, 35, 90
1, 10479, Note_on_c, 9, 39, 0
1, 10479, Note_on_c, 9, 42, 0
1, 10559, Note_on_c, 9, 35, 0
1, 10560, Note_on_c, 9, 42, 70
1, 10560, Note_on_c, 9, 35, 95
1, 10719, Note_on_c, 9, 42, 0
1, 10720, Note_on_c, 9, 42, 70
1, 10879, Note_on_c, 9, 42, 0
1, 10880, Note_on_c, 9, 42, 70
1, 11039, Note_on_c, 9, 35, 0
1, 11039, Note_on_c, 9, 42, 0
1, 11040, Note_on_c, 9, 38, 95
1, 11040, Note_on_c, 9, 39, 81
1, 11040, Note_on_c, 9, 42, 70
1, 11199, Note_on_c, 9, 38, 0
1, 11199, Note_on_c, 9, 39, 0
1, 11199, Note_on_c, 9, 42, 0
1, 11200, Note_on_c, 9, 42, 70
1, 11359, Note_on_c, 9, 42, 0
1, 11360, Note_on_c, 9, 42, 70
1, 11519, Note_on_c, 9, 42, 0
1, 11520, Note_on_c, 9, 42, 70
1, 11520, Note_on_c, 9, 35, 93
1, 11679, Note_on_c, 9, 42, 0
1, 11680, Note_on_c, 9, 42, 70
1, 11839, Note_on_c, 9, 42, 0
1, 11840, Note_on_c, 9, 42, 70
1, 11999, Note_on_c, 9, 35, 0
1, 11999, Note_on_c, 9, 42, 0
1, 12000, Note_on_c, 9, 38, 95
1, 12000, Note_on_c, 9, 39, 75
1, 12000, Note_on_c, 9, 42, 70
1, 12079, Note_on_c, 9, 38, 0
1, 12079, Note_on_c, 9, 39, 0
1, 12079, Note_on_c, 9, 42, 0
1, 12160, Note_on_c, 9, 42, 70
1, 12319, Note_on_c, 9, 42, 0
1, 12320, Note_on_c, 9, 39, 75
1, 12320, Note_on_c, 9, 42, 70
1, 12320, Note_on_c, 9, 35, 90
1, 12399, Note_on_c, 9, 39, 0
1, 12399, Note_on_c, 9, 42, 0
1, 12479, Note_on_c, 9, 35, 0
1, 12480, Note_on_c, 9, 42, 70
1, 12480, Note_on_c, 9, 35, 90
1, 12639, Note_on_c, 9, 42, 0
1, 12640, Note_on_c, 9, 42, 70
1, 12799, Note_on_c, 9, 42, 0
1, 12800, Note_on_c, 9, 42, 70
1, 12959, Note_on_c, 9, 35, 0
1, 12959, Note_on_c, 9, 42, 0
1, 12960, Note_on_c, 9, 38, 93
1, 12960, Note_on_c, 9, 39, 85
1, 12960, Note_on_c, 9, 42, 70
1, 13119, Note_on_c, 9, 38, 0
1, 13119, Note_on_c, 9, 39, 0
1, 13119, Note_on_c, 9, 42, 0
1, 13120, Note_on_c, 9, 42, 70
1, 13279, Note_on_c, 9, 42, 0
1, 13280, Note_on_c, 9, 42, 70
1, 13439, Note_on_c, 9, 42, 0
1, 13440, Note_on_c, 9, 42, 70
1, 13440, Note_on_c, 9, 35, 92
1, 13599, Note_on_c, 9, 42, 0
1, 13600, Note_on_c, 9, 42, 70
1, 13759, Note_on_c, 9, 42, 0
1, 13760, Note_on_c, 9, 42, 70
1, 13919, Note_on_c, 9, 35, 0
1, 13919, Note_on_c, 9, 42, 0
1, 13920, Note_on_c, 9, 38, 95
1, 13920, Note_on_c, 9, 39, 81
1, 13920, Note_on_c, 9, 42, 70
1, 14079, Note_on_c, 9, 38, 0
1, 14079, Note_on_c, 9, 39, 0
1, 14079, Note_on_c, 9, 42, 0
1, 14080, Note_on_c, 9, 42, 70
1, 14239, Note_on_c, 9, 42, 0
1, 14240, Note_on_c, 9, 39, 81
1, 14240, Note_on_c, 9, 42, 70
1, 14240, Note_on_c, 9, 35, 90
1, 14399, Note_on_c, 9, 39, 0
1, 14399, Note_on_c, 9, 42, 0
1, 14399, Note_on_c, 9, 35, 0
1, 14400, Note_on_c, 9, 42, 70
1, 14400, Note_on_c, 9, 35, 89
1, 14559, Note_on_c, 9, 42, 0
1, 14560, Note_on_c, 9, 42, 70
1, 14719, Note_on_c, 9, 42, 0
1, 14720, Note_on_c, 9, 42, 70
1, 14879, Note_on_c, 9, 35, 0
1, 14879, Note_on_c, 9, 42, 0
1, 14880, Note_on_c, 9, 38, 90
1, 14880, Note_on_c, 9, 39, 75
1, 14880, Note_on_c, 9, 42, 70
1, 15039, Note_on_c, 9, 38, 0
1, 15039, Note_on_c, 9, 39, 0
1, 15039, Note_on_c, 9, 42, 0
1, 15040, Note_on_c, 9, 42, 70
1, 15199, Note_on_c, 9, 42, 0
1, 15200, Note_on_c, 9, 42, 70
1, 15359, Note_on_c, 9, 42, 0
1, 15360, Note_on_c, 9, 42, 70
1, 15360, Note_on_c, 9, 57, 77
1, 15360, Note_on_c, 9, 35, 93
1, 15519, Note_on_c, 9, 42, 0
1, 15519, Note_on_c, 9, 57, 0
1, 15520, Note_on_c, 9, 42, 70
1, 15679, Note_on_c, 9, 42, 0
1, 15680, Note_on_c, 9, 42, 70
1, 15839, Note_on_c, 9, 35, 0
1, 15839, Note_on_c, 9, 42, 0
1, 15840, Note_on_c, 9, 38, 95
1, 15840, Note_on_c, 9, 39, 81
1, 15840, Note_on_c, 9, 42, 70
1, 15919, Note_on_c, 9, 38, 0
1, 15919, Note_on_c, 9, 39, 0
1, 15919, Note_on_c, 9, 42, 0
1, 16000, Note_on_c, 9, 42, 70
1, 16159, Note_on_c, 9, 42, 0
1, 16160, Note_on_c, 9, 39, 76
1, 16160, Note_on_c, 9, 42, 70
1, 16160, Note_on_c, 9, 35, 93
1, 16319, Note_on_c, 9, 39, 0
1, 16319, Note_on_c, 9, 42, 0
1, 16319, Note_on_c, 9, 35, 0
1, 16320, Note_on_c, 9, 42, 70
1, 16320, Note_on_c, 9, 35, 90
1, 16479, Note_on_c, 9, 42, 0
1, 16480, Note_on_c, 9, 42, 70
1, 16639, Note_on_c, 9, 42, 0
1, 16640, Note_on_c, 9, 42, 70
1, 16799, Note_on_c, 9, 35, 0
1, 16799, Note_on_c, 9, 42, 0
1, 16800, Note_on_c, 9, 38, 94
1, 16800, Note_on_c, 9, 39, 80
1, 16800, Note_on_c, 9, 42, 70
1, 16959, Note_on_c, 9, 38, 0
1, 16959, Note_on_c, 9, 39, 0
1, 16959, Note_on_c, 9, 42, 0
1, 16960, Note_on_c, 9, 42, 70
1, 17119, Note_on_c, 9, 42, 0
1, 17120, Note_on_c, 9, 42, 70
1, 17279, Note_on_c, 9, 42, 0
1, 17280, Note_on_c, 9, 42, 70
1, 17280, Note_on_c, 9, 35, 92
1, 17439, Note_on_c, 9, 42, 0
1, 17440, Note_on_c, 9, 42, 70
1, 17599, Note_on_c, 9, 42, 0
1, 17600, Note_on_c, 9, 42, 70
1, 17759, Note_on_c, 9, 35, 0
1, 17759, Note_on_c, 9, 42, 0
1, 17760, Note_on_c, 9, 38, 90
1, 17760, Note_on_c, 9, 39, 75
1, 17760, Note_on_c, 9, 42, 70
1, 17919, Note_on_c, 9, 38, 0
1, 17919, Note_on_c, 9, 39, 0
1, 17919, Note_on_c, 9, 42, 0
1, 17920, Note_on_c, 9, 42, 70
1, 18079, Note_on_c, 9, 42, 0
1, 18080, Note_on_c, 9, 39, 81
1, 18080, Note_on_c, 9, 42, 70
1, 18080, Note_on_c, 9, 35, 90
1, 18239, Note_on_c, 9, 39, 0
1, 18239, Note_on_c, 9, 42, 0
1, 18239, Note_on_c, 9, 35, 0
1, 18240, Note_on_c, 9, 42, 70
1, 18240, Note_on_c, 9, 35, 90
1, 18399, Note_on_c, 9, 42, 0
1, 18400, Note_on_c, 9, 42, 70
1, 18559, Note_on_c, 9, 42, 0
1, 18560, Note_on_c, 9, 42, 70
1, 18719, Note_on_c, 9, 35, 0
1, 18719, Note_on_c, 9, 42, 0
1, 18720, Note_on_c, 9, 38, 95
1, 18720, Note_on_c, 9, 39, 76
1, 18720, Note_on_c, 9, 42, 70
1, 18879, Note_on_c, 9, 38, 0
1, 18879, Note_on_c, 9, 39, 0
1, 18879, Note_on_c, 9, 42, 0
1, 18880, Note_on_c, 9, 42, 70
1, 19039, Note_on_c, 9, 42, 0
1, 19040, Note_on_c, 9, 42, 70
1, 19199, Note_on_c, 9, 42, 0
1, 19200, Note_on_c, 9, 42, 70
1, 19200, Note_on_c, 9, 35, 95
1, 19359, Note_on_c, 9, 42, 0
1, 19360, Note_on_c, 9, 42, 70
1, 19519, Note_on_c, 9, 42, 0
1, 19520, Note_on_c, 9, 42, 70
1, 19679, Note_on_c, 9, 35, 0
1, 19679, Note_on_c, 9, 42, 0
1, 19680, Note_on_c, 9, 38, 92
1, 19680, Note_on_c, 9, 39, 76
1, 19680, Note_on_c, 9, 42, 70
1, 19759, Note_on_c, 9, 38, 0
1, 19759, Note_on_c, 9, 39, 0
1, 19759, Note_on_c, 9, 42, 0
1, 19840, Note_on_c, 9, 42, 70
1, 19999, Note_on_c, 9, 42, 0
1, 20000, Note_on_c, 9, 39, 75
1, 20000, Note_on_c, 9, 42, 70
1, 20000, Note_on_c, 9, 35, 90
1, 20079, Note_on_c, 9, 39, 0
1, 20079, Note_on_c, 9, 42, 0
1, 20159, Note_on_c, 9, 35, 0
1, 20160, Note_on_c, 9, 42, 70
1, 20160, Note_on_c, 9, 35, 90
1, 20319, Note_on_c, 9, 42, 0
1, 20320, Note_on_c, 9, 42, 70
1, 20479, Note_on_c, 9, 42, 0
1, 20480, Note_on_c, 9, 42, 70
1, 20639, Note_on_c, 9, 35, 0
1, 20639, Note_on_c, 9, 42, 0
1, 20640, Note_on_c, 9, 38, 95
1, 20640, Note_on_c, 9, 39, 81
1, 20640, Note_on_c, 9, 42, 70
1, 20799, Note_on_c, 9, 38, 0
1, 20799, Note_on_c, 9, 39, 0
1, 20799, Note_on_c, 9, 42, 0
1, 20800, Note_on_c, 9, 42, 70
1, 20959, Note_on_c, 9, 42, 0
1, 20960, Note_on_c, 9, 42, 70
1, 21119, Note_on_c, 9, 42, 0
1, 21120, Note_on_c, 9, 42, 70
1, 21120, Note_on_c, 9, 35, 92
1, 21279, Note_on_c, 9, 42, 0
1, 21280, Note_on_c, 9, 42, 70
1, 21439, Note_on_c, 9, 42, 0
1, 21440, Note_on_c, 9, 42, 70
1, 21599, Note_on_c, 9, 35, 0
1, 21599, Note_on_c, 9, 42, 0
1, 21600, Note_on_c, 9, 38, 95
1, 21600, Note_on_c, 9, 39, 81
1, 21600, Note_on_c, 9, 42, 70
1, 21679, Note_on_c, 9, 38, 0
1, 21679, Note_on_c, 9, 39, 0
1, 21679, Note_on_c, 9, 42, 0
1, 21760, Note_on_c, 9, 42, 70
1, 21919, Note_on_c, 9, 42, 0
1, 21920, Note_on_c, 9, 39, 76
1, 21920, Note_on_c, 9, 42, 70
1, 21920, Note_on_c, 9, 35, 93
1, 21999, Note_on_c, 9, 39, 0
1, 21999, Note_on_c, 9, 42, 0
1, 22079, Note_on_c, 9, 35, 0
1, 22080, Note_on_c, 9, 42, 70
1, 22080, Note_on_c, 9, 35, 92
1, 22239, Note_on_c, 9, 42, 0
1, 22240, Note_on_c, 9, 42, 70
1, 22399, Note_on_c, 9, 42, 0
1, 22400, Note_on_c, 9, 42, 70
1, 22559, Note_on_c, 9, 35, 0
1, 22559, Note_on_c, 9, 42, 0
1, 22560, Note_on_c, 9, 38, 97
1, 22560, Note_on_c, 9, 39, 85
1, 22560, Note_on_c, 9, 42, 70
1, 22639, Note_on_c, 9, 38, 0
1, 22639, Note_on_c, 9, 39, 0
1, 22639, Note_on_c, 9, 42, 0
1, 22720, Note_on_c, 9, 42, 70
1, 22879, Note_on_c, 9, 42, 0
1, 22880, Note_on_c, 9, 42, 70
1, 23039, Note_on_c, 9, 42, 0
1, 23040, Note_on_c, 9, 42, 70
1, 23040, Note_on_c, 9, 35, 95
1, 23119, Note_on_c, 9, 42, 0
1, 23200, Note_on_c, 9, 42, 70
1, 23359, Note_on_c, 9, 42, 0
1, 23360, Note_on_c, 9, 42, 70
1, 23439, Note_on_c, 9, 42, 0
1, 23519, Note_on_c, 9, 35, 0
1, 23520, Note_on_c, 9, 38, 98
1, 23520, Note_on_c, 9, 39, 69
1, 23520, Note_on_c, 9, 42, 70
1, 23679, Note_on_c, 9, 38, 0
1, 23679, Note_on_c, 9, 39, 0
1, 23679, Note_on_c, 9, 42, 0
1, 23680, Note_on_c, 9, 42, 70
1, 23759, Note_on_c, 9, 42, 0
1, 23840, Note_on_c, 9, 39, 69
1, 23840, Note_on_c, 9, 42, 70
1, 23840, Note_on_c, 9, 35, 89
1, 23999, Note_on_c, 9, 39, 0
1, 23999, Note_on_c, 9, 42, 0
1, 23999, Note_on_c, 9, 35, 0
1, 24000, Note_on_c, 9, 42, 70
1, 24000, Note_on_c, 9, 35, 90
1, 24159, Note_on_c, 9, 42, 0
1, 24160, Note_on_c, 9, 42, 70
1, 24319, Note_on_c, 9, 42, 0
1, 24320, Note_on_c, 9, 42, 70
1, 24479, Note_on_c, 9, 35, 0
1, 24479, Note_on_c, 9, 42, 0
1, 24480, Note_on_c, 9, 38, 98
1, 24480, Note_on_c, 9, 39, 71
1, 24480, Note_on_c, 9, 42, 70
1, 24639, Note_on_c, 9, 38, 0
1, 24639, Note_on_c, 9, 39, 0
1, 24639, Note_on_c, 9, 42, 0
1, 24640, Note_on_c, 9, 42, 70
1, 24719, Note_on_c, 9, 42, 0
1, 24800, Note_on_c, 9, 42, 70
1, 24959, Note_on_c, 9, 42, 0
1, 24960, Note_on_c, 9, 42, 70
1, 24960, Note_on_c, 9, 35, 95
1, 25119, Note_on_c, 9, 42, 0
1, 25120, Note_on_c, 9, 42, 70
1, 25279, Note_on_c, 9, 42, 0
1, 25280, Note_on_c, 9, 42, 70
1, 25439, Note_on_c, 9, 35, 0
1, 25439, Note_on_c, 9, 42, 0
1, 25440, Note_on_c, 9, 38, 95
1, 25440, Note_on_c, 9, 39, 71
1, 25440, Note_on_c, 9, 42, 70
1, 25599, Note_on_c, 9, 38, 0
1, 25599, Note_on_c, 9, 39, 0
1, 25599, Note_on_c, 9, 42, 0
1, 25600, Note_on_c, 9, 42, 70
1, 25759, Note_on_c, 9, 42, 0
1, 25760, Note_on_c, 9, 39, 71
1, 25760, Note_on_c, 9, 42, 70
1, 25760, Note_on_c, 9, 35, 90
1, 25919, Note_on_c, 9, 39, 0
1, 25919, Note_on_c, 9, 42, 0
1, 25919, Note_on_c, 9, 35, 0
1, 25920, Note_on_c, 9, 42, 70
1, 25920, Note_on_c, 9, 35, 93
1, 26079, Note_on_c, 9, 42, 0
1, 26080, Note_on_c, 9, 42, 70
1, 26239, Note_on_c, 9, 42, 0
1, 26240, Note_on_c, 9, 42, 70
1, 26399, Note_on_c, 9, 35, 0
1, 26399, Note_on_c, 9, 42, 0
1, 26400, Note_on_c, 9, 38, 95
1, 26400, Note_on_c, 9, 39, 71
1, 26400, Note_on_c, 9, 42, 70
1, 26559, Note_on_c, 9, 38, 0
1, 26559, Note_on_c, 9, 39, 0
1, 26559, Note_on_c, 9, 42, 0
1, 26560, Note_on_c, 9, 42, 70
1, 26719, Note_on_c, 9, 42, 0
1, 26720, Note_on_c, 9, 42, 70
1, 26799, Note_on_c, 9, 42, 0
1, 26880, Note_on_c, 9, 42, 70
1, 26880, Note_on_c, 9, 35, 95
1, 27039, Note_on_c, 9, 42, 0
1, 27040, Note_on_c, 9, 42, 70
1, 27199, Note_on_c, 9, 42, 0
1, 27200, Note_on_c, 9, 42, 70
1, 27359, Note_on_c, 9, 35, 0
1, 27359, Note_on_c, 9, 42, 0
1, 27360, Note_on_c, 9, 38, 95
1, 27360, Note_on_c, 9, 39, 75
1, 27360, Note_on_c, 9, 42, 70
1, 27519, Note_on_c, 9, 38, 0
1, 27519, Note_on_c, 9, 39, 0
1, 27519, Note_on_c, 9, 42, 0
1, 27520, Note_on_c, 9, 42, 70
1, 27679, Note_on_c, 9, 42, 0
1, 27680, Note_on_c, 9, 39, 75
1, 27680, Note_on_c, 9, 42, 70
1, 27680, Note_on_c, 9, 35, 90
1, 27839, Note_on_c, 9, 39, 0
1, 27839, Note_on_c, 9, 42, 0
1, 27839, Note_on_c, 9, 35, 0
1, 27840, Note_on_c, 9, 42, 70
1, 27840, Note_on_c, 9, 35, 90
1, 27999, Note_on_c, 9, 42, 0
1, 28000, Note_on_c, 9, 42, 70
1, 28079, Note_on_c, 9, 42, 0
1, 28160, Note_on_c, 9, 42, 70
1, 28319, Note_on_c, 9, 35, 0
1, 28319, Note_on_c, 9, 42, 0
1, 28320, Note_on_c, 9, 38, 92
1, 28320, Note_on_c, 9, 39, 75
1, 28320, Note_on_c, 9, 42, 70
1, 28479, Note_on_c, 9, 38, 0
1, 28479, Note_on_c, 9, 39, 0
1, 28479, Note_on_c, 9, 42, 0
1, 28480, Note_on_c, 9, 42, 70
1, 28639, Note_on_c, 9, 42, 0
1, 28640, Note_on_c, 9, 42, 70
1, 28799, Note_on_c, 9, 42, 0
1, 28800, Note_on_c, 9, 42, 70
1, 28800, Note_on_c, 9, 35, 90
1, 28959, Note_on_c, 9, 42, 0
1, 28960, Note_on_c, 9, 42, 70
1, 29039, Note_on_c, 9, 42, 0
1, 29120, Note_on_c, 9, 42, 70
1, 29279, Note_on_c, 9, 35, 0
1, 29279, Note_on_c, 9, 42, 0
1, 29280, Note_on_c, 9, 38, 90
1, 29280, Note_on_c, 9, 39, 71
1, 29280, Note_on_c, 9, 42, 70
1, 29439, Note_on_c, 9, 38, 0
1, 29439, Note_on_c, 9, 39, 0
1, 29439, Note_on_c, 9, 42, 0
1, 29440, Note_on_c, 9, 42, 70
1, 29599, Note_on_c, 9, 42, 0
1, 29600, Note_on_c, 9, 39, 80
1, 29600, Note_on_c, 9, 42, 70
1, 29600, Note_on_c, 9, 35, 89
1, 29759, Note_on_c, 9, 39, 0
1, 29759, Note_on_c, 9, 42, 0
1, 29759, Note_on_c, 9, 35, 0
1, 29760, Note_on_c, 9, 42, 70
1, 29760, Note_on_c, 9, 35, 90
1, 29919, Note_on_c, 9, 42, 0
1, 29920, Note_on_c, 9, 42, 70
1, 30079, Note_on_c, 9, 42, 0
1, 30080, Note_on_c, 9, 42, 70
1, 30239, Note_on_c, 9, 35, 0
1, 30239, Note_on_c, 9, 42, 0
1, 30240, Note_on_c, 9, 38, 95
1, 30240, Note_on_c, 9, 39, 86
1, 30240, Note_on_c, 9, 42, 70
1, 30399, Note_on_c, 9, 38, 0
1, 30399, Note_on_c, 9, 39, 0
1, 30399, Note_on_c, 9, 42, 0
1, 30400, Note_on_c, 9, 42, 70
1, 30559, Note_on_c, 9, 42, 0
1, 30560, Note_on_c, 9, 42, 70
1, 30719, Note_on_c, 9, 42, 0
1, 30720, Note_on_c, 9, 42, 70
1, 30720, Note_on_c, 9, 35, 95
1, 30879, Note_on_c, 9, 42, 0
1, 30880, Note_on_c, 9, 42, 70
1, 31039, Note_on_c, 9, 42, 0
1, 31040, Note_on_c, 9, 42, 70
1, 31199, Note_on_c, 9, 35, 0
1, 31199, Note_on_c, 9, 42, 0
1, 31200, Note_on_c, 9, 38, 90
1, 31200, Note_on_c, 9, 39, 77
1, 31200, Note_on_c, 9, 42, 70
1, 31359, Note_on_c, 9, 38, 0
1, 31359, Note_on_c, 9, 39, 0
1, 31359, Note_on_c, 9, 42, 0
1, 31360, Note_on_c, 9, 42, 70
1, 31519, Note_on_c, 9, 42, 0
1, 31520, Note_on_c, 9, 39, 81
1, 31520, Note_on_c, 9, 42, 70
1, 31520, Note_on_c, 9, 35, 89
1, 31679, Note_on_c, 9, 39, 0
1, 31679, Note_on_c, 9, 42, 0
1, 31679, Note_on_c, 9, 35, 0
1, 31680, Note_on_c, 9, 42, 70
1, 31680, Note_on_c, 9, 35, 90
1, 31839, Note_on_c, 9, 42, 0
1, 31840, Note_on_c, 9, 42, 70
1, 31999, Note_on_c, 9, 42, 0
1, 32000, Note_on_c, 9, 42, 70
1, 32159, Note_on_c, 9, 35, 0
1, 32159, Note_on_c, 9, 42, 0
1, 32160, Note_on_c, 9, 38, 95
1, 32160, Note_on_c, 9, 39, 76
1, 32160, Note_on_c, 9, 42, 70
1, 32319, Note_on_c, 9, 38, 0
1, 32319, Note_on_c, 9, 39, 0
1, 32319, Note_on_c, 9, 42, 0
1, 32320, Note_on_c, 9, 42, 70
1, 32479, Note_on_c, 9, 42, 0
1, 32480, Note_on_c, 9, 42, 70
1, 32639, Note_on_c, 9, 42, 0
1, 32640, Note_on_c, 9, 42, 70
1, 32640, Note_on_c, 9, 35, 92
1, 32799, Note_on_c, 9, 42, 0
1, 32800, Note_on_c, 9, 42, 70
1, 32959, Note_on_c, 9, 42, 0
1, 32960, Note_on_c, 9, 42, 70
1, 33119, Note_on_c, 9, 35, 0
1, 33119, Note_on_c, 9, 42, 0
1, 33120, Note_on_c, 9, 38, 95
1, 33120, Note_on_c, 9, 39, 75
1, 33120, Note_on_c, 9, 42, 70
1, 33199, Note_on_c, 9, 38, 0
1, 33199, Note_on_c, 9, 39, 0
1, 33199, Note_on_c, 9, 42, 0
1, 33280, Note_on_c, 9, 42, 70
1, 33439, Note_on_c, 9, 42, 0
1, 33440, Note_on_c, 9, 39, 71
1, 33440, Note_on_c, 9, 42, 70
1, 33440, Note_on_c, 9, 35, 88
1, 33519, Note_on_c, 9, 39, 0
1, 33519, Note_on_c, 9, 42, 0
1, 33599, Note_on_c, 9, 35, 0
1, 33600, Note_on_c, 9, 42, 70
1, 33600, Note_on_c, 9, 35, 90
1, 33759, Note_on_c, 9, 42, 0
1, 33760, Note_on_c, 9, 42, 70
1, 33919, Note_on_c, 9, 42, 0
1, 33920, Note_on_c, 9, 42, 70
1, 34079, Note_on_c, 9, 35, 0
1, 34079, Note_on_c, 9, 42, 0
1, 34080, Note_on_c, 9, 38, 90
1, 34080, Note_on_c, 9, 39, 76
1, 34080, Note_on_c, 9, 42, 70
1, 34239, Note_on_c, 9, 38, 0
1, 34239, Note_on_c, 9, 39, 0
1, 34239, Note_on_c, 9, 42, 0
1, 34240, Note_on_c, 9, 42, 70
1, 34399, Note_on_c, 9, 42, 0
1, 34400, Note_on_c, 9, 42, 70
1, 34559, Note_on_c, 9, 42, 0
1, 34560, Note_on_c, 9, 42, 70
1, 34560, Note_on_c, 9, 35, 92
1, 34719, Note_on_c, 9, 42, 0
1, 34720, Note_on_c, 9, 42, 70
1, 34879, Note_on_c, 9, 42, 0
1, 34880, Note_on_c, 9, 42, 70
1, 35039, Note_on_c, 9, 35, 0
1, 35039, Note_on_c, 9, 42, 0
1, 35040, Note_on_c, 9, 38, 92
1, 35040, Note_on_c, 9, 39, 76
1, 35040, Note_on_c, 9, 42, 70
1, 35199, Note_on_c, 9, 38, 0
1, 35199, Note_on_c, 9, 39, 0
1, 35199, Note_on_c, 9, 42, 0
1, 35200, Note_on_c, 9, 42, 70
1, 35359, Note_on_c, 9, 42, 0
1, 35360, Note_on_c, 9, 39, 75
1, 35360, Note_on_c, 9, 42, 70
1, 35360, Note_on_c, 9, 35, 89
1, 35519, Note_on_c, 9, 39, 0
1, 35519, Note_on_c, 9, 42, 0
1, 35519, Note_on_c, 9, 35, 0
1, 35520, Note_on_c, 9, 42, 70
1, 35520, Note_on_c, 9, 35, 89
1, 35679, Note_on_c, 9, 42, 0
1, 35680, Note_on_c, 9, 42, 70
1, 35839, Note_on_c, 9, 42, 0
1, 35840, Note_on_c, 9, 42, 70
1, 35999, Note_on_c, 9, 35, 0
1, 35999, Note_on_c, 9, 42, 0
1, 36000, Note_on_c, 9, 38, 94
1, 36000, Note_on_c, 9, 39, 80
1, 36000, Note_on_c, 9, 42, 70
1, 36159, Note_on_c, 9, 38, 0
1, 36159, Note_on_c, 9, 39, 0
1, 36159, Note_on_c, 9, 42, 0
1, 36160, Note_on_c, 9, 42, 70
1, 36319, Note_on_c, 9, 42, 0
1, 36320, Note_on_c, 9, 42, 70
1, 36479, Note_on_c, 9, 42, 0
1, 36480, Note_on_c, 9, 42, 70
1, 36480, Note_on_c, 9, 35, 95
1, 36639, Note_on_c, 9, 42, 0
1, 36640, Note_on_c, 9, 42, 70
1, 36799, Note_on_c, 9, 42, 0
1, 36800, Note_on_c, 9, 42, 70
1, 36959, Note_on_c, 9, 35, 0
1, 36959, Note_on_c, 9, 42, 0
1, 36960, Note_on_c, 9, 38, 95
1, 36960, Note_on_c, 9, 39, 81
1, 36960, Note_on_c, 9, 42, 70
1, 37119, Note_on_c, 9, 38, 0
1, 37119, Note_on_c, 9, 39, 0
1, 37119, Note_on_c, 9, 42, 0
1, 37120, Note_on_c, 9, 42, 70
1, 37279, Note_on_c, 9, 42, 0
1, 37280, Note_on_c, 9, 39, 71
1, 37280, Note_on_c, 9, 42, 70
1, 37280, Note_on_c, 9, 35, 89
1, 37439, Note_on_c, 9, 39, 0
1, 37439, Note_on_c, 9, 42, 0
1, 37439, Note_on_c, 9, 35, 0
1, 37440, Note_on_c, 9, 42, 70
1, 37440, Note_on_c, 9, 35, 90
1, 37599, Note_on_c, 9, 42, 0
1, 37600, Note_on_c, 9, 42, 70
1, 37759, Note_on_c, 9, 42, 0
1, 37760, Note_on_c, 9, 42, 70
1, 37919, Note_on_c, 9, 35, 0
1, 37919, Note_on_c, 9, 42, 0
1, 37920, Note_on_c, 9, 38, 95
1, 37920, Note_on_c, 9, 39, 80
1, 37920, Note_on_c, 9, 42, 70
1, 38079, Note_on_c, 9, 38, 0
1, 38079, Note_on_c, 9, 39, 0
1, 38079, Note_on_c, 9, 42, 0
1, 38080, Note_on_c, 9, 42, 70
1, 38239, Note_on_c, 9, 42, 0
1, 38240, Note_on_c, 9, 42, 70
1, 38399, Note_on_c, 9, 42, 0
1, 38400, Note_on_c, 9, 42, 70
1, 38400, Note_on_c, 9, 35, 95
1, 38559, Note_on_c, 9, 42, 0
1, 38560, Note_on_c, 9, 42, 70
1, 38719, Note_on_c, 9, 42, 0
1, 38720, Note_on_c, 9, 42, 70
1, 38879, Note_on_c, 9, 35, 0
1, 38879, Note_on_c, 9, 42, 0
1, 38880, Note_on_c, 9, 38, 95
1, 38880, Note_on_c, 9, 39, 75
1, 38880, Note_on_c, 9, 42, 70
1, 39039, Note_on_c, 9, 38, 0
1, 39039, Note_on_c, 9, 39, 0
1, 39039, Note_on_c, 9, 42, 0
1, 39040, Note_on_c, 9, 42, 70
1, 39199, Note_on_c, 9, 42, 0
1, 39200, Note_on_c, 9, 39, 75
1, 39200, Note_on_c, 9, 42, 70
1, 39200, Note_on_c, 9, 35, 85
1, 39359, Note_on_c, 9, 39, 0
1, 39359, Note_on_c, 9, 42, 0
1, 39359, Note_on_c, 9, 35, 0
1, 39360, Note_on_c, 9, 42, 70
1, 39360, Note_on_c, 9, 35, 93
1, 39519, Note_on_c, 9, 42, 0
1, 39520, Note_on_c, 9, 42, 70
1, 39679, Note_on_c, 9, 42, 0
1, 39680, Note_on_c, 9, 42, 70
1, 39839, Note_on_c, 9, 35, 0
1, 39839, Note_on_c, 9, 42, 0
1, 39840, Note_on_c, 9, 38, 94
1, 39840, Note_on_c, 9, 39, 86
1, 39840, Note_on_c, 9, 42, 70
1, 39999, Note_on_c, 9, 38, 0
1, 39999, Note_on_c, 9, 39, 0
1, 39999, Note_on_c, 9, 42, 0
1, 40000, Note_on_c, 9, 42, 70
1, 40159, Note_on_c, 9, 42, 0
1, 40160, Note_on_c, 9, 42, 70
1, 40319, Note_on_c, 9, 42, 0
1, 40320, Note_on_c, 9, 57, 77
1, 40320, Note_on_c, 9, 35, 93
1, 40799, Note_on_c, 9, 57, 0
1, 40799, Note_on_c, 9, 35, 0
1, 40800, Note_on_c, 9, 49, 77
1, 40800, Note_on_c, 9, 35, 95
1, 41279, Note_on_c, 9, 49, 0
1, 41279, Note_on_c, 9, 35, 0
1, 41280, Note_on_c, 9, 57, 66
1, 41280, Note_on_c, 9, 35, 97
1, 41759, Note_on_c, 9, 57, 0
1, 41759, Note_on_c, 9, 35, 0
1, 42240, Note_on_c, 9, 42, 70
1, 42240, Note_on_c, 9, 35, 95
1, 42399, Note_on_c, 9, 42, 0
1, 42400, Note_on_c, 9, 42, 70
1, 42559, Note_on_c, 9, 42, 0
1, 42560, Note_on_c, 9, 42, 70
1, 42719, Note_on_c, 9, 35, 0
1, 42719, Note_on_c, 9, 42, 0
1, 42720, Note_on_c, 9, 38, 95
1, 42720, Note_on_c, 9, 39, 76
1, 42720, Note_on_c, 9, 42, 70
1, 42799, Note_on_c, 9, 38, 0
1, 42799, Note_on_c, 9, 39, 0
1, 42799, Note_on_c, 9, 42, 0
1, 42880, Note_on_c, 9, 42, 70
1, 43039, Note_on_c, 9, 42, 0
1, 43040, Note_on_c, 9, 39, 75
1, 43040, Note_on_c, 9, 42, 70
1, 43040, Note_on_c, 9, 35, 87
1, 43199, Note_on_c, 9, 39, 0
1, 43199, Note_on_c, 9, 42, 0
1, 43199, Note_on_c, 9, 35, 0
1, 43200, Note_on_c, 9, 42, 70
1, 43200, Note_on_c, 9, 35, 89
1, 43359, Note_on_c, 9, 42, 0
1, 43360, Note_on_c, 9, 42, 70
1, 43519, Note_on_c, 9, 42, 0
1, 43520, Note_on_c, 9, 42, 70
1, 43679, Note_on_c, 9, 35, 0
1, 43679, Note_on_c, 9, 42, 0
1, 43680, Note_on_c, 9, 38, 95
1, 43680, Note_on_c, 9, 39, 81
1, 43680, Note_on_c, 9, 42, 70
1, 43839, Note_on_c, 9, 38, 0
1, 43839, Note_on_c, 9, 39, 0
1, 43839, Note_on_c, 9, 42, 0
1, 43840, Note_on_c, 9, 42, 70
1, 43999, Note_on_c, 9, 42, 0
1, 44000, Note_on_c, 9, 42, 70
1, 44159, Note_on_c, 9, 42, 0
1, 44160, Note_on_c, 9, 42, 70
1, 44160, Note_on_c, 9, 35, 95
1, 44319, Note_on_c, 9, 42, 0
1, 44320, Note_on_c, 9, 42, 70
1, 44479, Note_on_c, 9, 42, 0
1, 44480, Note_on_c, 9, 42, 70
1, 44639, Note_on_c, 9, 35, 0
1, 44639, Note_on_c, 9, 42, 0
1, 44640, Note_on_c, 9, 38, 95
1, 44640, Note_on_c, 9, 39, 80
1, 44640, Note_on_c, 9, 42, 70
1, 44799, Note_on_c, 9, 38, 0
1, 44799, Note_on_c, 9, 39, 0
1, 44799, Note_on_c, 9, 42, 0
1, 44800, Note_on_c, 9, 42, 70
1, 44959, Note_on_c, 9, 42, 0
1, 44960, Note_on_c, 9, 39, 81
1, 44960, Note_on_c, 9, 42, 70
1, 44960, Note_on_c, 9, 35, 90
1, 45039, Note_on_c, 9, 39, 0
1, 45039, Note_on_c, 9, 42, 0
1, 45119, Note_on_c, 9, 35, 0
1, 45120, Note_on_c, 9, 42, 70
1, 45120, Note_on_c, 9, 35, 95
1, 45279, Note_on_c, 9, 42, 0
1, 45280, Note_on_c, 9, 42, 70
1, 45439, Note_on_c, 9, 42, 0
1, 45440, Note_on_c, 9, 42, 70
1, 45599, Note_on_c, 9, 35, 0
1, 45599, Note_on_c, 9, 42, 0
1, 45600, Note_on_c, 9, 38, 95
1, 45600, Note_on_c, 9, 39, 81
1, 45600, Note_on_c, 9, 42, 70
1, 45759, Note_on_c, 9, 38, 0
1, 45759, Note_on_c, 9, 39, 0
1, 45759, Note_on_c, 9, 42, 0
1, 45760, Note_on_c, 9, 42, 70
1, 45919, Note_on_c, 9, 42, 0
1, 45920, Note_on_c, 9, 42, 70
1, 46079, Note_on_c, 9, 42, 0
1, 46080, Note_on_c, 9, 42, 70
1, 46080, Note_on_c, 9, 35, 95
1, 46159, Note_on_c, 9, 42, 0
1, 46240, Note_on_c, 9, 42, 70
1, 46399, Note_on_c, 9, 42, 0
1, 46400, Note_on_c, 9, 42, 70
1, 46479, Note_on_c, 9, 42, 0
1, 46559, Note_on_c, 9, 35, 0
1, 46560, Note_on_c, 9, 38, 98
1, 46560, Note_on_c, 9, 39, 69
1, 46560, Note_on_c, 9, 42, 70
1, 46719, Note_on_c, 9, 38, 0
1, 46719, Note_on_c, 9, 39, 0
1, 46719, Note_on_c, 9, 42, 0
1, 46720, Note_on_c, 9, 42, 70
1, 46799, Note_on_c, 9, 42, 0
1, 46880, Note_on_c, 9, 39, 69
1, 46880, Note_on_c, 9, 42, 70
1, 46880, Note_on_c, 9, 35, 89
1, 47039, Note_on_c, 9, 39, 0
1, 47039, Note_on_c, 9, 42, 0
1, 47039, Note_on_c, 9, 35, 0
1, 47040, Note_on_c, 9, 42, 70
1, 47040, Note_on_c, 9, 35, 90
1, 47199, Note_on_c, 9, 42, 0
1, 47200, Note_on_c, 9, 42, 70
1, 47359, Note_on_c, 9, 42, 0
1, 47360, Note_on_c, 9, 42, 70
1, 47519, Note_on_c, 9, 35, 0
1, 47519, Note_on_c, 9, 42, 0
1, 47520, Note_on_c, 9, 38, 98
1, 47520, Note_on_c, 9, 39, 71
1, 47520, Note_on_c, 9, 42, 70
1, 47679, Note_on_c, 9, 38, 0
1, 47679, Note_on_c, 9, 39, 0
1, 47679, Note_on_c, 9, 42, 0
1, 47680, Note_on_c, 9, 42, 70
1, 47759, Note_on_c, 9, 42, 0
1, 47840, Note_on_c, 9, 42, 70
1, 47999, Note_on_c, 9, 42, 0
1, 48000, Note_on_c, 9, 42, 70
1, 48000, Note_on_c, 9, 35, 95
1, 48159, Note_on_c, 9, 42, 0
1, 48160, Note_on_c, 9, 42, 70
1, 48319, Note_on_c, 9, 42, 0
1, 48320, Note_on_c, 9, 42, 70
1, 48479, Note_on_c, 9, 35, 0
1, 48479, Note_on_c, 9, 42, 0
1, 48480, Note_on_c, 9, 38, 95
1, 48480, Note_on_c, 9, 39, 71
1, 48480, Note_on_c, 9, 42, 70
1, 48639, Note_on_c, 9, 38, 0
1, 48639, Note_on_c, 9, 39, 0
1, 48639, Note_on_c, 9, 42, 0
1, 48640, Note_on_c, 9, 42, 70
1, 48799, Note_on_c, 9, 42, 0
1, 48800, Note_on_c, 9, 39, 71
1, 48800, Note_on_c, 9, 42, 70
1, 48800, Note_on_c, 9, 35, 90
1, 48959, Note_on_c, 9, 39, 0
1, 48959, Note_on_c, 9, 42, 0
1, 48959, Note_on_c, 9, 35, 0
1, 48960, Note_on_c, 9, 42, 70
1, 48960, Note_on_c, 9, 35, 93
1, 49119, Note_on_c, 9, 42, 0
1, 49120, Note_on_c, 9, 42, 70
1, 49279, Note_on_c, 9, 42, 0
1, 49280, Note_on_c, 9, 42, 70
1, 49439, Note_on_c, 9, 35, 0
1, 49439, Note_on_c, 9, 42, 0
1, 49440, Note_on_c, 9, 38, 95
1, 49440, Note_on_c, 9, 39, 71
1, 49440, Note_on_c, 9, 42, 70
1, 49599, Note_on_c, 9, 38, 0
1, 49599, Note_on_c, 9, 39, 0
1, 49599, Note_on_c, 9, 42, 0
1, 49600, Note_on_c, 9, 42, 70
1, 49759, Note_on_c, 9, 42, 0
1, 49760, Note_on_c, 9, 42, 70
1, 49839, Note_on_c, 9, 42, 0
1, 49920, Note_on_c, 9, 42, 70
1, 49920, Note_on_c, 9, 35, 95
1, 50079, Note_on_c, 9, 42, 0
1, 50080, Note_on_c, 9, 42, 70
1, 50239, Note_on_c, 9, 42, 0
1, 50240, Note_on_c, 9, 42, 70
1, 50399, Note_on_c, 9, 35, 0
1, 50399, Note_on_c, 9, 42, 0
1, 50400, Note_on_c, 9, 38, 95
1, 50400, Note_on_c, 9, 39, 75
1, 50400, Note_on_c, 9, 42, 70
1, 50559, Note_on_c, 9, 38, 0
1, 50559, Note_on_c, 9, 39, 0
1, 50559, Note_on_c, 9, 42, 0
1, 50560, Note_on_c, 9, 42, 70
1, 50719, Note_on_c, 9, 42, 0
1, 50720, Note_on_c, 9, 39, 75
1, 50720, Note_on_c, 9, 42, 70
1, 50720, Note_on_c, 9, 35, 90
1, 50879, Note_on_c, 9, 39, 0
1, 50879, Note_on_c, 9, 42, 0
1, 50879, Note_on_c, 9, 35, 0
1, 50880, Note_on_c, 9, 42, 70
1, 50880, Note_on_c, 9, 35, 90
1, 51039, Note_on_c, 9, 42, 0
1, 51040, Note_on_c, 9, 42, 70
1, 51119, Note_on_c, 9, 42, 0
1, 51200, Note_on_c, 9, 42, 70
1, 51359, Note_on_c, 9, 35, 0
1, 51359, Note_on_c, 9, 42, 0
1, 51360, Note_on_c, 9, 38, 92
1, 51360, Note_on_c, 9, 39, 75
1, 51360, Note_on_c, 9, 42, 70
1, 51519, Note_on_c, 9, 38, 0
1, 51519, Note_on_c, 9, 39, 0
1, 51519, Note_on_c, 9, 42, 0
1, 51520, Note_on_c, 9, 42, 70
1, 51679, Note_on_c, 9, 42, 0
1, 51680, Note_on_c, 9, 42, 70
1, 51839, Note_on_c, 9, 42, 0
1, 51840, Note_on_c, 9, 42, 70
1, 51840, Note_on_c, 9, 35, 90
1, 51999, Note_on_c, 9, 42, 0
1, 52000, Note_on_c, 9, 42, 70
1, 52079, Note_on_c, 9, 42, 0
1, 52160, Note_on_c, 9, 42, 70
1, 52319, Note_on_c, 9, 35, 0
1, 52319, Note_on_c, 9, 42, 0
1, 52320, Note_on_c, 9, 38, 90
1, 52320, Note_on_c, 9, 39, 71
1, 52320, Note_on_c, 9, 42, 70
1, 52479, Note_on_c, 9, 38, 0
1, 52479, Note_on_c, 9, 39, 0
1, 52479, Note_on_c, 9, 42, 0
1, 52480, Note_on_c, 9, 42, 70
1, 52639, Note_on_c, 9, 42, 0
1, 52640, Note_on_c, 9, 39, 80
1, 52640, Note_on_c, 9, 42, 70
1, 52640, Note_on_c, 9, 35, 89
1, 52799, Note_on_c, 9, 39, 0
1, 52799, Note_on_c, 9, 42, 0
1, 52799, Note_on_c, 9, 35, 0
1, 52800, Note_on_c, 9, 42, 70
1, 52800, Note_on_c, 9, 35, 90
1, 52959, Note_on_c, 9, 42, 0
1, 52960, Note_on_c, 9, 42, 70
1, 53119, Note_on_c, 9, 42, 0
1, 53120, Note_on_c, 9, 42, 70
1, 53279, Note_on_c, 9, 35, 0
1, 53279, Note_on_c, 9, 42, 0
1, 53280, Note_on_c, 9, 38, 95
1, 53280, Note_on_c, 9, 39, 86
1, 53280, Note_on_c, 9, 42, 70
1, 53439, Note_on_c, 9, 38, 0
1, 53439, Note_on_c, 9, 39, 0
1, 53439, Note_on_c, 9, 42, 0
1, 53440, Note_on_c, 9, 42, 70
1, 53599, Note_on_c, 9, 42, 0
1, 53600, Note_on_c, 9, 42, 70
1, 53759, Note_on_c, 9, 42, 0
1, 53760, Note_on_c, 9, 42, 70
1, 53760, Note_on_c, 9, 35, 95
1, 53919, Note_on_c, 9, 42, 0
1, 53920, Note_on_c, 9, 42, 70
1, 54079, Note_on_c, 9, 42, 0
1, 54080, Note_on_c, 9, 42, 70
1, 54239, Note_on_c, 9, 35, 0
1, 54239, Note_on_c, 9, 42, 0
1, 54240, Note_on_c, 9, 38, 90
1, 54240, Note_on_c, 9, 39, 77
1, 54240, Note_on_c, 9, 42, 70
1, 54399, Note_on_c, 9, 38, 0
1, 54399, Note_on_c, 9, 39, 0
1, 54399, Note_on_c, 9, 42, 0
1, 54400, Note_on_c, 9, 42, 70
1, 54559, Note_on_c, 9, 42, 0
1, 54560, Note_on_c, 9, 39, 81
1, 54560, Note_on_c, 9, 42, 70
1, 54560, Note_on_c, 9, 35, 89
1, 54719, Note_on_c, 9, 39, 0
1, 54719, Note_on_c, 9, 42, 0
1, 54719, Note_on_c, 9, 35, 0
1, 54720, Note_on_c, 9, 42, 70
1, 54720, Note_on_c, 9, 35, 90
1, 54879, Note_on_c, 9, 42, 0
1, 54880, Note_on_c, 9, 42, 70
1, 55039, Note_on_c, 9, 42, 0
1, 55040, Note_on_c, 9, 42, 70
1, 55199, Note_on_c, 9, 35, 0
1, 55199, Note_on_c, 9, 42, 0
1, 55200, Note_on_c, 9, 38, 95
1, 55200, Note_on_c, 9, 39, 76
1, 55200, Note_on_c, 9, 42, 70
1, 55359, Note_on_c, 9, 38, 0
1, 55359, Note_on_c, 9, 39, 0
1, 55359, Note_on_c, 9, 42, 0
1, 55360, Note_on_c, 9, 42, 70
1, 55519, Note_on_c, 9, 42, 0
1, 55520, Note_on_c, 9, 42, 70
1, 55679, Note_on_c, 9, 42, 0
1, 55680, Note_on_c, 9, 42, 70
1, 55680, Note_on_c, 9, 35, 92
1, 55839, Note_on_c, 9, 42, 0
1, 55840, Note_on_c, 9, 42, 70
1, 55999, Note_on_c, 9, 42, 0
1, 56000, Note_on_c, 9, 42, 70
1, 56159, Note_on_c, 9, 35, 0
1, 56159, Note_on_c, 9, 42, 0
1, 56160, Note_on_c, 9, 38, 95
1, 56160, Note_on_c, 9, 39, 75
1, 56160, Note_on_c, 9, 42, 70
1, 56239, Note_on_c, 9, 38, 0
1, 56239, Note_on_c, 9, 39, 0
1, 56239, Note_on_c, 9, 42, 0
1, 56320, Note_on_c, 9, 42, 70
1, 56479, Note_on_c, 9, 42, 0
1, 56480, Note_on_c, 9, 39, 71
1, 56480, Note_on_c, 9, 42, 70
1, 56480, Note_on_c, 9, 35, 88
1, 56559, Note_on_c, 9, 39, 0
1, 56559, Note_on_c, 9, 42, 0
1, 56639, Note_on_c, 9, 35, 0
1, 56640, Note_on_c, 9, 42, 70
1, 56640, Note_on_c, 9, 35, 90
1, 56799, Note_on_c, 9, 42, 0
1, 56800, Note_on_c, 9, 42, 70
1, 56959, Note_on_c, 9, 42, 0
1, 56960, Note_on_c, 9, 42, 70
1, 57119, Note_on_c, 9, 35, 0
1, 57119, Note_on_c, 9, 42, 0
1, 57120, Note_on_c, 9, 38, 90
1, 57120, Note_on_c, 9, 39, 76
1, 57120, Note_on_c, 9, 42, 70
1, 57279, Note_on_c, 9, 38, 0
1, 57279, Note_on_c, 9, 39, 0
1, 57279, Note_on_c, 9, 42, 0
1, 57280, Note_on_c, 9, 42, 70
1, 57439, Note_on_c, 9, 42, 0
1, 57440, Note_on_c, 9, 42, 70
1, 57599, Note_on_c, 9, 42, 0
1, 57600, Note_on_c, 9, 42, 70
1, 57600, Note_on_c, 9, 35, 92
1, 57759, Note_on_c, 9, 42, 0
1, 57760, Note_on_c, 9, 42, 70
1, 57919, Note_on_c, 9, 42, 0
1, 57920, Note_on_c, 9, 42, 70
1, 58079, Note_on_c, 9, 35, 0
1, 58079, Note_on_c, 9, 42, 0
1, 58080, Note_on_c, 9, 38, 92
1, 58080, Note_on_c, 9, 39, 76
1, 58080, Note_on_c, 9, 42, 70
1, 58239, Note_on_c, 9, 38, 0
1, 58239, Note_on_c, 9, 39, 0
1, 58239, Note_on_c, 9, 42, 0
1, 58240, Note_on_c, 9, 42, 70
1, 58399, Note_on_c, 9, 42, 0
1, 58400, Note_on_c, 9, 39, 75
1, 58400, Note_on_c, 9, 42, 70
1, 58400, Note_on_c, 9, 35, 89
1, 58559, Note_on_c, 9, 39, 0
1, 58559, Note_on_c, 9, 42, 0
1, 58559, Note_on_c, 9, 35, 0
1, 58560, Note_on_c, 9, 42, 70
1, 58560, Note_on_c, 9, 35, 89
1, 58719, Note_on_c, 9, 42, 0
1, 58720, Note_on_c, 9, 42, 70
1, 58879, Note_on_c, 9, 42, 0
1, 58880, Note_on_c, 9, 42, 70
1, 59039, Note_on_c, 9, 35, 0
1, 59039, Note_on_c, 9, 42, 0
1, 59040, Note_on_c, 9, 38, 94
1, 59040, Note_on_c, 9, 39, 80
1, 59040, Note_on_c, 9, 42, 70
1, 59199, Note_on_c, 9, 38, 0
1, 59199, Note_on_c, 9, 39, 0
1, 59199, Note_on_c, 9, 42, 0
1, 59200, Note_on_c, 9, 42, 70
1, 59359, Note_on_c, 9, 42, 0
1, 59360, Note_on_c, 9, 42, 70
1, 59519, Note_on_c, 9, 42, 0
1, 59520, Note_on_c, 9, 42, 70
1, 59520, Note_on_c, 9, 35, 95
1, 59679, Note_on_c, 9, 42, 0
1, 59680, Note_on_c, 9, 42, 70
1, 59839, Note_on_c, 9, 42, 0
1, 59840, Note_on_c, 9, 42, 70
1, 59999, Note_on_c, 9, 35, 0
1, 59999, Note_on_c, 9, 42, 0
1, 60000, Note_on_c, 9, 38, 95
1, 60000, Note_on_c, 9, 39, 81
1, 60000, Note_on_c, 9, 42, 70
1, 60159, Note_on_c, 9, 38, 0
1, 60159, Note_on_c, 9, 39, 0
1, 60159, Note_on_c, 9, 42, 0
1, 60160, Note_on_c, 9, 42, 70
1, 60319, Note_on_c, 9, 42, 0
1, 60320, Note_on_c, 9, 39, 71
1, 60320, Note_on_c, 9, 42, 70
1, 60320, Note_on_c, 9, 35, 89
1, 60479, Note_on_c, 9, 39, 0
1, 60479, Note_on_c, 9, 42, 0
1, 60479, Note_on_c, 9, 35, 0
1, 60480, Note_on_c, 9, 42, 70
1, 60480, Note_on_c, 9, 35, 90
1, 60639, Note_on_c, 9, 42, 0
1, 60640, Note_on_c, 9, 42, 70
1, 60799, Note_on_c, 9, 42, 0
1, 60800, Note_on_c, 9, 42, 70
1, 60959, Note_on_c, 9, 35, 0
1, 60959, Note_on_c, 9, 42, 0
1, 60960, Note_on_c, 9, 38, 95
1, 60960, Note_on_c, 9, 39, 80
1, 60960, Note_on_c, 9, 42, 70
1, 61119, Note_on_c, 9, 38, 0
1, 61119, Note_on_c, 9, 39, 0
1, 61119, Note_on_c, 9, 42, 0
1, 61120, Note_on_c, 9, 42, 70
1, 61279, Note_on_c, 9, 42, 0
1, 61280, Note_on_c, 9, 42, 70
1, 61439, Note_on_c, 9, 42, 0
1, 61440, Note_on_c, 9, 42, 70
1, 61440, Note_on_c, 9, 35, 95
1, 61599, Note_on_c, 9, 42, 0
1, 61600, Note_on_c, 9, 42, 70
1, 61759, Note_on_c, 9, 42, 0
1, 61760, Note_on_c, 9, 42, 70
1, 61919, Note_on_c, 9, 35, 0
1, 61919, Note_on_c, 9, 42, 0
1, 61920, Note_on_c, 9, 38, 95
1, 61920, Note_on_c, 9, 39, 75
1, 61920, Note_on_c, 9, 42, 70
1, 62079, Note_on_c, 9, 38, 0
1, 62079, Note_on_c, 9, 39, 0
1, 62079, Note_on_c, 9, 42, 0
1, 62080, Note_on_c, 9, 42, 70
1, 62239, Note_on_c, 9, 42, 0
1, 62240, Note_on_c, 9, 39, 75
1, 62240, Note_on_c, 9, 42, 70
1, 62240, Note_on_c, 9, 35, 85
1, 62399, Note_on_c, 9, 39, 0
1, 62399, Note_on_c, 9, 42, 0
1, 62399, Note_on_c, 9, 35, 0
1, 62400, Note_on_c, 9, 42, 70
1, 62400, Note_on_c, 9, 35, 93
1, 62559, Note_on_c, 9, 42, 0
1, 62560, Note_on_c, 9, 42, 70
1, 62719, Note_on_c, 9, 42, 0
1, 62720, Note_on_c, 9, 42, 70
1, 62879, Note_on_c, 9, 35, 0
1, 62879, Note_on_c, 9, 42, 0
1, 62880, Note_on_c, 9, 38, 94
1, 62880, Note_on_c, 9, 39, 86
1, 62880, Note_on_c, 9, 42, 70
1, 63039, Note_on_c, 9, 38, 0
1, 63039, Note_on_c, 9, 39, 0
1, 63039, Note_on_c, 9, 42, 0
1, 63040, Note_on_c, 9, 42, 70
1, 63199, Note_on_c, 9, 42, 0
1, 63200, Note_on_c, 9, 42, 70
1, 63359, Note_on_c, 9, 42, 0
1, 63360, Note_on_c, 9, 57, 77
1, 63360, Note_on_c, 9, 35, 93
1, 63839, Note_on_c, 9, 57, 0
1, 63839, Note_on_c, 9, 35, 0
1, 63840, Note_on_c, 9, 49, 77
1, 63840, Note_on_c, 9, 35, 95
1, 64319, Note_on_c, 9, 49, 0
1, 64319, Note_on_c, 9, 35, 0
1, 64320, Note_on_c, 9, 57, 66
1, 64320, Note_on_c, 9, 35, 97
1, 64799, Note_on_c, 9, 57, 0
1, 64799, Note_on_c, 9, 35, 0
1, 65280, Note_on_c, 9, 42, 70
1, 65280, Note_on_c, 9, 35, 95
1, 65439, Note_on_c, 9, 42, 0
1, 65440, Note_on_c, 9, 42, 70
1, 65599, Note_on_c, 9, 42, 0
1, 65600, Note_on_c, 9, 42, 70
1, 65759, Note_on_c, 9, 35, 0
1, 65759, Note_on_c, 9, 42, 0
1, 65760, Note_on_c, 9, 38, 95
1, 65760, Note_on_c, 9, 39, 76
1, 65760, Note_on_c, 9, 42, 70
1, 65839, Note_on_c, 9, 38, 0
1, 65839, Note_on_c, 9, 39, 0
1, 65839, Note_on_c, 9, 42, 0
1, 65920, Note_on_c, 9, 42, 70
1, 66079, Note_on_c, 9, 42, 0
1, 66080, Note_on_c, 9, 39, 75
1, 66080, Note_on_c, 9, 42, 70
1, 66080, Note_on_c, 9, 35, 87
1, 66239, Note_on_c, 9, 39, 0
1, 66239, Note_on_c, 9, 42, 0
1, 66239, Note_on_c, 9, 35, 0
1, 66240, Note_on_c, 9, 42, 70
1, 66240, Note_on_c, 9, 35, 89
1, 66399, Note_on_c, 9, 42, 0
1, 66400, Note_on_c, 9, 42, 70
1, 66559, Note_on_c, 9, 42, 0
1, 66560, Note_on_c, 9, 42, 70
1, 66719, Note_on_c, 9, 35, 0
1, 66719, Note_on_c, 9, 42, 0
1, 66720, Note_on_c, 9, 38, 95
1, 66720, Note_on_c, 9, 39, 81
1, 66720, Note_on_c, 9, 42, 70
1, 66879, Note_on_c, 9, 38, 0
1, 66879, Note_on_c, 9, 39, 0
1, 66879, Note_on_c, 9, 42, 0
1, 66880, Note_on_c, 9, 42, 70
1, 67039, Note_on_c, 9, 42, 0
1, 67040, Note_on_c, 9, 42, 70
1, 67199, Note_on_c, 9, 42, 0
1, 67200, Note_on_c, 9, 42, 70
1, 67200, Note_on_c, 9, 35, 95
1, 67359, Note_on_c, 9, 42, 0
1, 67360, Note_on_c, 9, 42, 70
1, 67519, Note_on_c, 9, 42, 0
1, 67520, Note_on_c, 9, 42, 70
1, 67679, Note_on_c, 9, 35, 0
1, 67679, Note_on_c, 9, 42, 0
1, 67680, Note_on_c, 9, 38, 95
1, 67680, Note_on_c, 9, 39, 80
1, 67680, Note_on_c, 9, 42, 70
1, 67839, Note_on_c, 9, 38, 0
1, 67839, Note_on_c, 9, 39, 0
1, 67839, Note_on_c, 9, 42, 0
1, 67840, Note_on_c, 9, 42, 70
1, 67999, Note_on_c, 9, 42, 0
1, 68000, Note_on_c, 9, 39, 81
1, 68000, Note_on_c, 9, 42, 70
1, 68000, Note_on_c, 9, 35, 90
1, 68079, Note_on_c, 9, 39, 0
1, 68079, Note_on_c, 9, 42, 0
1, 68159, Note_on_c, 9, 35, 0
1, 68160, Note_on_c, 9, 42, 70
1, 68160, Note_on_c, 9, 35, 95
1, 68319, Note_on_c, 9, 42, 0
1, 68320, Note_on_c, 9, 42, 70
1, 68479, Note_on_c, 9, 42, 0
1, 68480, Note_on_c, 9, 42, 70
1, 68639, Note_on_c, 9, 35, 0
1, 68639, Note_on_c, 9, 42, 0
1, 68640, Note_on_c, 9, 38, 95
1, 68640, Note_on_c, 9, 39, 81
1, 68640, Note_on_c, 9, 42, 70
1, 68799, Note_on_c, 9, 38, 0
1, 68799, Note_on_c, 9, 39, 0
1, 68799, Note_on_c, 9, 42, 0
1, 68800, Note_on_c, 9, 42, 70
1, 68959, Note_on_c, 9, 42, 0
1, 68960, Note_on_c, 9, 42, 70
1, 69119, Note_on_c, 9, 42, 0
1, 69120, Note_on_c, 9, 42, 70
1, 69120, Note_on_c, 9, 57, 77
1, 69120, Note_on_c, 9, 35, 95
1, 69279, Note_on_c, 9, 42, 0
1, 69279, Note_on_c, 9, 57, 0
1, 69280, Note_on_c, 9, 42, 70
1, 69439, Note_on_c, 9, 42, 0
1, 69440, Note_on_c, 9, 42, 70
1, 69599, Note_on_c, 9, 35, 0
1, 69599, Note_on_c, 9, 42, 0
1, 69600, Note_on_c, 9, 38, 98
1, 69600, Note_on_c, 9, 39, 80
1, 69600, Note_on_c, 9, 42, 70
1, 69759, Note_on_c, 9, 38, 0
1, 69759, Note_on_c, 9, 39, 0
1, 69759, Note_on_c, 9, 42, 0
1, 69760, Note_on_c, 9, 42, 70
1, 69919, Note_on_c, 9, 42, 0
1, 69920, Note_on_c, 9, 42, 70
1, 69920, Note_on_c, 9, 35, 93
1, 70079, Note_on_c, 9, 42, 0
1, 70079, Note_on_c, 9, 35, 0
1, 70080, Note_on_c, 9, 42, 70
1, 70080, Note_on_c, 9, 35, 92
1, 70239, Note_on_c, 9, 42, 0
1, 70240, Note_on_c, 9, 42, 70
1, 70399, Note_on_c, 9, 42, 0
1, 70400, Note_on_c, 9, 42, 70
1, 70559, Note_on_c, 9, 35, 0
1, 70559, Note_on_c, 9, 42, 0
1, 70560, Note_on_c, 9, 38, 95
1, 70560, Note_on_c, 9, 39, 75
1, 70560, Note_on_c, 9, 42, 70
1, 70719, Note_on_c, 9, 38, 0
1, 70719, Note_on_c, 9, 39, 0
1, 70719, Note_on_c, 9, 42, 0
1, 70720, Note_on_c, 9, 42, 70
1, 70879, Note_on_c, 9, 42, 0
1, 70880, Note_on_c, 9, 42, 70
1, 71039, Note_on_c, 9, 42, 0
1, 71040, Note_on_c, 9, 42, 70
1, 71040, Note_on_c, 9, 35, 92
1, 71199, Note_on_c, 9, 42, 0
1, 71200, Note_on_c, 9, 42, 70
1, 71359, Note_on_c, 9, 42, 0
1, 71360, Note_on_c, 9, 42, 70
1, 71519, Note_on_c, 9, 35, 0
1, 71519, Note_on_c, 9, 42, 0
1, 71520, Note_on_c, 9, 38, 98
1, 71520, Note_on_c, 9, 39, 76
1, 71520, Note_on_c, 9, 42, 70
1, 71679, Note_on_c, 9, 38, 0
1, 71679, Note_on_c, 9, 39, 0
1, 71679, Note_on_c, 9, 42, 0
1, 71680, Note_on_c, 9, 42, 70
1, 71839, Note_on_c, 9, 42, 0
1, 71840, Note_on_c, 9, 42, 70
1, 71840, Note_on_c, 9, 35, 90
1, 71999, Note_on_c, 9, 42, 0
1, 71999, Note_on_c, 9, 35, 0
1, 72000, Note_on_c, 9, 42, 70
1, 72000, Note_on_c, 9, 35, 93
1, 72159, Note_on_c, 9, 42, 0
1, 72160, Note_on_c, 9, 42, 70
1, 72319, Note_on_c, 9, 42, 0
1, 72320, Note_on_c, 9, 42, 70
1, 72479, Note_on_c, 9, 35, 0
1, 72479, Note_on_c, 9, 42, 0
1, 72480, Note_on_c, 9, 38, 95
1, 72480, Note_on_c, 9, 39, 81
1, 72480, Note_on_c, 9, 42, 70
1, 72639, Note_on_c, 9, 38, 0
1, 72639, Note_on_c, 9, 39, 0
1, 72639, Note_on_c, 9, 42, 0
1, 72640, Note_on_c, 9, 42, 70
1, 72799, Note_on_c, 9, 42, 0
1, 72800, Note_on_c, 9, 42, 70
1, 72959, Note_on_c, 9, 42, 0
1, 72960, Note_on_c, 9, 42, 70
1, 72960, Note_on_c, 9, 35, 95
1, 73119, Note_on_c, 9, 42, 0
1, 73120, Note_on_c, 9, 42, 70
1, 73279, Note_on_c, 9, 42, 0
1, 73280, Note_on_c, 9, 42, 70
1, 73439, Note_on_c, 9, 35, 0
1, 73439, Note_on_c, 9, 42, 0
1, 73440, Note_on_c, 9, 38, 90
1, 73440, Note_on_c, 9, 39, 80
1, 73440, Note_on_c, 9, 42, 70
1, 73599, Note_on_c, 9, 38, 0
1, 73599, Note_on_c, 9, 39, 0
1, 73599, Note_on_c, 9, 42, 0
1, 73600, Note_on_c, 9, 42, 70
1, 73759, Note_on_c, 9, 42, 0
1, 73760, Note_on_c, 9, 42, 70
1, 73760, Note_on_c, 9, 35, 90
1, 73919, Note_on_c, 9, 42, 0
1, 73919, Note_on_c, 9, 35, 0
1, 73920, Note_on_c, 9, 42, 70
1, 73920, Note_on_c, 9, 35, 90
1, 74079, Note_on_c, 9, 42, 0
1, 74080, Note_on_c, 9, 42, 70
1, 74239, Note_on_c, 9, 42, 0
1, 74240, Note_on_c, 9, 42, 70
1, 74399, Note_on_c, 9, 35, 0
1, 74399, Note_on_c, 9, 42, 0
1, 74400, Note_on_c, 9, 38, 90
1, 74400, Note_on_c, 9, 39, 81
1, 74400, Note_on_c, 9, 42, 70
1, 74559, Note_on_c, 9, 38, 0
1, 74559, Note_on_c, 9, 39, 0
1, 74559, Note_on_c, 9, 42, 0
1, 74560, Note_on_c, 9, 42, 70
1, 74719, Note_on_c, 9, 42, 0
1, 74720, Note_on_c, 9, 42, 70
1, 74879, Note_on_c, 9, 42, 0
1, 74880, Note_on_c, 9, 42, 70
1, 74880, Note_on_c, 9, 35, 95
1, 75039, Note_on_c, 9, 42, 0
1, 75040, Note_on_c, 9, 42, 70
1, 75199, Note_on_c, 9, 42, 0
1, 75200, Note_on_c, 9, 42, 70
1, 75359, Note_on_c, 9, 35, 0
1, 75359, Note_on_c, 9, 42, 0
1, 75360, Note_on_c, 9, 38, 98
1, 75360, Note_on_c, 9, 39, 80
1, 75360, Note_on_c, 9, 42, 70
1, 75519, Note_on_c, 9, 38, 0
1, 75519, Note_on_c, 9, 39, 0
1, 75519, Note_on_c, 9, 42, 0
1, 75520, Note_on_c, 9, 42, 70
1, 75679, Note_on_c, 9, 42, 0
1, 75680, Note_on_c, 9, 42, 70
1, 75680, Note_on_c, 9, 35, 90
1, 75839, Note_on_c, 9, 42, 0
1, 75839, Note_on_c, 9, 35, 0
1, 75840, Note_on_c, 9, 42, 70
1, 75840, Note_on_c, 9, 35, 90
1, 75999, Note_on_c, 9, 42, 0
1, 76000, Note_on_c, 9, 42, 70
1, 76159, Note_on_c, 9, 42, 0
1, 76160, Note_on_c, 9, 42, 70
1, 76319, Note_on_c, 9, 35, 0
1, 76319, Note_on_c, 9, 42, 0
1, 76320, Note_on_c, 9, 38, 98
1, 76320, Note_on_c, 9, 39, 86
1, 76320, Note_on_c, 9, 42, 70
1, 76479, Note_on_c, 9, 38, 0
1, 76479, Note_on_c, 9, 39, 0
1, 76479, Note_on_c, 9, 42, 0
1, 76480, Note_on_c, 9, 42, 70
1, 76639, Note_on_c, 9, 42, 0
1, 76640, Note_on_c, 9, 42, 70
1, 76799, Note_on_c, 9, 42, 0
1, 76800, Note_on_c, 9, 42, 70
1, 76800, Note_on_c, 9, 57, 77
1, 76800, Note_on_c, 9, 35, 95
1, 76959, Note_on_c, 9, 42, 0
1, 76959, Note_on_c, 9, 57, 0
1, 76960, Note_on_c, 9, 42, 70
1, 77119, Note_on_c, 9, 42, 0
1, 77120, Note_on_c, 9, 42, 70
1, 77279, Note_on_c, 9, 35, 0
1, 77279, Note_on_c, 9, 42, 0
1, 77280, Note_on_c, 9, 38, 95
1, 77280, Note_on_c, 9, 39, 81
1, 77280, Note_on_c, 9, 42, 70
1, 77439, Note_on_c, 9, 38, 0
1, 77439, Note_on_c, 9, 39, 0
1, 77439, Note_on_c, 9, 42, 0
1, 77440, Note_on_c, 9, 42, 70
1, 77599, Note_on_c, 9, 42, 0
1, 77600, Note_on_c, 9, 42, 70
1, 77600, Note_on_c, 9, 35, 90
1, 77759, Note_on_c, 9, 42, 0
1, 77759, Note_on_c, 9, 35, 0
1, 77760, Note_on_c, 9, 42, 70
1, 77760, Note_on_c, 9, 35, 90
1, 77919, Note_on_c, 9, 42, 0
1, 77920, Note_on_c, 9, 42, 70
1, 78079, Note_on_c, 9, 42, 0
1, 78080, Note_on_c, 9, 42, 70
1, 78239, Note_on_c, 9, 35, 0
1, 78239, Note_on_c, 9, 42, 0
1, 78240, Note_on_c, 9, 38, 95
1, 78240, Note_on_c, 9, 39, 80
1, 78240, Note_on_c, 9, 42, 70
1, 78399, Note_on_c, 9, 38, 0
1, 78399, Note_on_c, 9, 39, 0
1, 78399, Note_on_c, 9, 42, 0
1, 78400, Note_on_c, 9, 42, 70
1, 78559, Note_on_c, 9, 42, 0
1, 78560, Note_on_c, 9, 42, 70
1, 78719, Note_on_c, 9, 42, 0
1, 78720, Note_on_c, 9, 42, 70
1, 78720, Note_on_c, 9, 35, 93
1, 78879, Note_on_c, 9, 42, 0
1, 78880, Note_on_c, 9, 42, 70
1, 79039, Note_on_c, 9, 42, 0
1, 79040, Note_on_c, 9, 42, 70
1, 79199, Note_on_c, 9, 35, 0
1, 79199, Note_on_c, 9, 42, 0
1, 79200, Note_on_c, 9, 38, 95
1, 79200, Note_on_c, 9, 39, 80
1, 79200, Note_on_c, 9, 42, 70
1, 79359, Note_on_c, 9, 38, 0
1, 79359, Note_on_c, 9, 39, 0
1, 79359, Note_on_c, 9, 42, 0
1, 79360, Note_on_c, 9, 42, 70
1, 79519, Note_on_c, 9, 42, 0
1, 79520, Note_on_c, 9, 42, 70
1, 79520, Note_on_c, 9, 35, 88
1, 79679, Note_on_c, 9, 42, 0
1, 79679, Note_on_c, 9, 35, 0
1, 79680, Note_on_c, 9, 42, 70
1, 79680, Note_on_c, 9, 35, 90
1, 79839, Note_on_c, 9, 42, 0
1, 79840, Note_on_c, 9, 42, 70
1, 79999, Note_on_c, 9, 42, 0
1, 80000, Note_on_c, 9, 42, 70
1, 80159, Note_on_c, 9, 35, 0
1, 80159, Note_on_c, 9, 42, 0
1, 80160, Note_on_c, 9, 38, 95
1, 80160, Note_on_c, 9, 39, 80
1, 80160, Note_on_c, 9, 42, 70
1, 80319, Note_on_c, 9, 38, 0
1, 80319, Note_on_c, 9, 39, 0
1, 80319, Note_on_c, 9, 42, 0
1, 80320, Note_on_c, 9, 42, 70
1, 80479, Note_on_c, 9, 42, 0
1, 80480, Note_on_c, 9, 42, 70
1, 80639, Note_on_c, 9, 42, 0
1, 80640, Note_on_c, 9, 42, 70
1, 80640, Note_on_c, 9, 35, 95
1, 80799, Note_on_c, 9, 42, 0
1, 80800, Note_on_c, 9, 42, 70
1, 80959, Note_on_c, 9, 42, 0
1, 80960, Note_on_c, 9, 42, 70
1, 81119, Note_on_c, 9, 35, 0
1, 81119, Note_on_c, 9, 42, 0
1, 81120, Note_on_c, 9, 38, 95
1, 81120, Note_on_c, 9, 39, 81
1, 81120, Note_on_c, 9, 42, 70
1, 81279, Note_on_c, 9, 38, 0
1, 81279, Note_on_c, 9, 39, 0
1, 81279, Note_on_c, 9, 42, 0
1, 81280, Note_on_c, 9, 42, 70
1, 81439, Note_on_c, 9, 42, 0
1, 81440, Note_on_c, 9, 42, 70
1, 81440, Note_on_c, 9, 35, 93
1, 81599, Note_on_c, 9, 42, 0
1, 81599, Note_on_c, 9, 35, 0
1, 81600, Note_on_c, 9, 42, 70
1, 81600, Note_on_c, 9, 35, 92
1, 81759, Note_on_c, 9, 42, 0
1, 81760, Note_on_c, 9, 42, 70
1, 81919, Note_on_c, 9, 42, 0
1, 81920, Note_on_c, 9, 42, 70
1, 82079, Note_on_c, 9, 35, 0
1, 82079, Note_on_c, 9, 42, 0
1, 82080, Note_on_c, 9, 38, 95
1, 82080, Note_on_c, 9, 39, 81
1, 82080, Note_on_c, 9, 42, 70
1, 82239, Note_on_c, 9, 38, 0
1, 82239, Note_on_c, 9, 39, 0
1, 82239, Note_on_c, 9, 42, 0
1, 82240, Note_on_c, 9, 42, 70
1, 82399, Note_on_c, 9, 42, 0
1, 82400, Note_on_c, 9, 42, 70
1, 82559, Note_on_c, 9, 42, 0
1, 82560, Note_on_c, 9, 41, 60
1, 82560, Note_on_c, 9, 38, 92
1, 82560, Note_on_c, 9, 42, 70
1, 82560, Note_on_c, 9, 43, 66
1, 82639, Note_on_c, 9, 41, 0
1, 82639, Note_on_c, 9, 38, 0
1, 82639, Note_on_c, 9, 42, 0
1, 82719, Note_on_c, 9, 43, 0
1, 82720, Note_on_c, 9, 41, 56
1, 82720, Note_on_c, 9, 38, 89
1, 82720, Note_on_c, 9, 43, 60
1, 82799, Note_on_c, 9, 41, 0
1, 82799, Note_on_c, 9, 38, 0
1, 82799, Note_on_c, 9, 43, 0
1, 82880, Note_on_c, 9, 41, 59
1, 82880, Note_on_c, 9, 38, 89
1, 82880, Note_on_c, 9, 43, 61
1, 82959, Note_on_c, 9, 41, 0
1, 82959, Note_on_c, 9, 38, 0
1, 83039, Note_on_c, 9, 43, 0
1, 83040, Note_on_c, 9, 41, 51
1, 83040, Note_on_c, 9, 38, 89
1, 83040, Note_on_c, 9, 43, 61
1, 83199, Note_on_c, 9, 41, 0
1, 83199, Note_on_c, 9, 38, 0
1, 83199, Note_on_c, 9, 43, 0
1, 83200, Note_on_c, 9, 41, 51
1, 83200, Note_on_c, 9, 38, 90
1, 83200, Note_on_c, 9, 43, 61
1, 83279, Note_on_c, 9, 41, 0
1, 83279, Note_on_c, 9, 38, 0
1, 83279, Note_on_c, 9, 43, 0
1, 83360, Note_on_c, 9, 41, 55
1, 83360, Note_on_c, 9, 38, 90
1, 83360, Note_on_c, 9, 43, 66
1, 83399, Note_on_c, 9, 41, 0
1, 83399, Note_on_c, 9, 38, 0
1, 83519, Note_on_c, 9, 43, 0
1, 83520, Note_on_c, 9, 41, 66
1, 83520, Note_on_c, 9, 38, 95
1, 83520, Note_on_c, 9, 43, 66
1, 83839, Note_on_c, 9, 41, 0
1, 83839, Note_on_c, 9, 38, 0
1, 83840, Note_on_c, 9, 46, 77
1, 83999, Note_on_c, 9, 43, 0
1, 83999, Note_on_c, 9, 46, 0
1, 84000, Note_on_c, 9, 42, 45
1, 84479, Note_on_c, 9, 42, 0
1, 84480, Note_on_c, 9, 42, 70
1, 84480, Note_on_c, 9, 35, 95
1, 84559, Note_on_c, 9, 42, 0
1, 84640, Note_on_c, 9, 42, 70
1, 84799, Note_on_c, 9, 42, 0
1, 84800, Note_on_c, 9, 42, 70
1, 84879, Note_on_c, 9, 42, 0
1, 84959, Note_on_c, 9, 35, 0
1, 84960, Note_on_c, 9, 38, 98
1, 84960, Note_on_c, 9, 39, 69
1, 84960, Note_on_c, 9, 42, 70
1, 85119, Note_on_c, 9, 38, 0
1, 85119, Note_on_c, 9, 39, 0
1, 85119, Note_on_c, 9, 42, 0
1, 85120, Note_on_c, 9, 42, 70
1, 85199, Note_on_c, 9, 42, 0
1, 85280, Note_on_c, 9, 39, 69
1, 85280, Note_on_c, 9, 42, 70
1, 85280, Note_on_c, 9, 35, 89
1, 85439, Note_on_c, 9, 39, 0
1, 85439, Note_on_c, 9, 42, 0
1, 85439, Note_on_c, 9, 35, 0
1, 85440, Note_on_c, 9, 42, 70
1, 85440, Note_on_c, 9, 35, 90
1, 85599, Note_on_c, 9, 42, 0
1, 85600, Note_on_c, 9, 42, 70
1, 85759, Note_on_c, 9, 42, 0
1, 85760, Note_on_c, 9, 42, 70
1, 85919, Note_on_c, 9, 35, 0
1, 85919, Note_on_c, 9, 42, 0
1, 85920, Note_on_c, 9, 38, 98
1, 85920, Note_on_c, 9, 39, 71
1, 85920, Note_on_c, 9, 42, 70
1, 86079, Note_on_c, 9, 38, 0
1, 86079, Note_on_c, 9, 39, 0
1, 86079, Note_on_c, 9, 42, 0
1, 86080, Note_on_c, 9, 42, 70
1, 86159, Note_on_c, 9, 42, 0
1, 86240, Note_on_c, 9, 42, 70
1, 86399, Note_on_c, 9, 42, 0
1, 86400, Note_on_c, 9, 42, 70
1, 86400, Note_on_c, 9, 35, 95
1, 86559, Note_on_c, 9, 42, 0
1, 86560, Note_on_c, 9, 42, 70
1, 86719, Note_on_c, 9, 42, 0
1, 86720, Note_on_c, 9, 42, 70
1, 86879, Note_on_c, 9, 35, 0
1, 86879, Note_on_c, 9, 42, 0
1, 86880, Note_on_c, 9, 38, 95
1, 86880, Note_on_c, 9, 39, 71
1, 86880, Note_on_c, 9, 42, 70
1, 87039, Note_on_c, 9, 38, 0
1, 87039, Note_on_c, 9, 39, 0
1, 87039, Note_on_c, 9, 42, 0
1, 87040, Note_on_c, 9, 42, 70
1, 87199, Note_on_c, 9, 42, 0
1, 87200, Note_on_c, 9, 39, 71
1, 87200, Note_on_c, 9, 42, 70
1, 87200, Note_on_c, 9, 35, 90
1, 87359, Note_on_c, 9, 39, 0
1, 87359, Note_on_c, 9, 42, 0
1, 87359, Note_on_c, 9, 35, 0
1, 87360, Note_on_c, 9, 42, 70
1, 87360, Note_on_c, 9, 35, 93
1, 87519, Note_on_c, 9, 42, 0
1, 87520, Note_on_c, 9, 42, 70
1, 87679, Note_on_c, 9, 42, 0
1, 87680, Note_on_c, 9, 42, 70
1, 87839, Note_on_c, 9, 35, 0
1, 87839, Note_on_c, 9, 42, 0
1, 87840, Note_on_c, 9, 38, 95
1, 87840, Note_on_c, 9, 39, 71
1, 87840, Note_on_c, 9, 42, 70
1, 87999, Note_on_c, 9, 38, 0
1, 87999, Note_on_c, 9, 39, 0
1, 87999, Note_on_c, 9, 42, 0
1, 88000, Note_on_c, 9, 42, 70
1, 88159, Note_on_c, 9, 42, 0
1, 88160, Note_on_c, 9, 42, 70
1, 88239, Note_on_c, 9, 42, 0
1, 88320, Note_on_c, 9, 42, 70
1, 88320, Note_on_c, 9, 35, 95
1, 88479, Note_on_c, 9, 42, 0
1, 88480, Note_on_c, 9, 42, 70
1, 88639, Note_on_c, 9, 42, 0
1, 88640, Note_on_c, 9, 42, 70
1, 88799, Note_on_c, 9, 35, 0
1, 88799, Note_on_c, 9, 42, 0
1, 88800, Note_on_c, 9, 38, 95
1, 88800, Note_on_c, 9, 39, 75
1, 88800, Note_on_c, 9, 42, 70
1, 88959, Note_on_c, 9, 38, 0
1, 88959, Note_on_c, 9, 39, 0
1, 88959, Note_on_c, 9, 42, 0
1, 88960, Note_on_c, 9, 42, 70
1, 89119, Note_on_c, 9, 42, 0
1, 89120, Note_on_c, 9, 39, 75
1, 89120, Note_on_c, 9, 42, 70
1, 89120, Note_on_c, 9, 35, 90
1, 89279, Note_on_c, 9, 39, 0
1, 89279, Note_on_c, 9, 42, 0
1, 89279, Note_on_c, 9, 35, 0
1, 89280, Note_on_c, 9, 42, 70
1, 89280, Note_on_c, 9, 35, 90
1, 89439, Note_on_c, 9, 42, 0
1, 89440, Note_on_c, 9, 42, 70
1, 89519, Note_on_c, 9, 42, 0
1, 89600, Note_on_c, 9, 42, 70
1, 89759, Note_on_c, 9, 35, 0
1, 89759, Note_on_c, 9, 42, 0
1, 89760, Note_on_c, 9, 38, 92
1, 89760, Note_on_c, 9, 39, 75
1, 89760, Note_on_c, 9, 42, 70
1, 89919, Note_on_c, 9, 38, 0
1, 89919, Note_on_c, 9, 39, 0
1, 89919, Note_on_c, 9, 42, 0
1, 89920, Note_on_c, 9, 42, 70
1, 90079, Note_on_c, 9, 42, 0
1, 90080, Note_on_c, 9, 42, 70
1, 90239, Note_on_c, 9, 42, 0
1, 90240, Note_on_c, 9, 42, 70
1, 90240, Note_on_c, 9, 35, 90
1, 90399, Note_on_c, 9, 42, 0
1, 90400, Note_on_c, 9, 42, 70
1, 90479, Note_on_c, 9, 42, 0
1, 90560, Note_on_c, 9, 42, 70
1, 90719, Note_on_c, 9, 35, 0
1, 90719, Note_on_c, 9, 42, 0
1, 90720, Note_on_c, 9, 38, 90
1, 90720, Note_on_c, 9, 39, 71
1, 90720, Note_on_c, 9, 42, 70
1, 90879, Note_on_c, 9, 38, 0
1, 90879, Note_on_c, 9, 39, 0
1, 90879, Note_on_c, 9, 42, 0
1, 90880, Note_on_c, 9, 42, 70
1, 91039, Note_on_c, 9, 42, 0
1, 91040, Note_on_c, 9, 39, 80
1, 91040, Note_on_c, 9, 42, 70
1, 91040, Note_on_c, 9, 35, 89
1, 91199, Note_on_c, 9, 39, 0
1, 91199, Note_on_c, 9, 42, 0
1, 91199, Note_on_c, 9, 35, 0
1, 91200, Note_on_c, 9, 42, 70
1, 91200, Note_on_c, 9, 35, 90
1, 91359, Note_on_c, 9, 42, 0
1, 91360, Note_on_c, 9, 42, 70
1, 91519, Note_on_c, 9, 42, 0
1, 91520, Note_on_c, 9, 42, 70
1, 91679, Note_on_c, 9, 35, 0
1, 91679, Note_on_c, 9, 42, 0
1, 91680, Note_on_c, 9, 38, 95
1, 91680, Note_on_c, 9, 39, 86
1, 91680, Note_on_c, 9, 42, 70
1, 91839, Note_on_c, 9, 38, 0
1, 91839, Note_on_c, 9, 39, 0
1, 91839, Note_on_c, 9, 42, 0
1, 91840, Note_on_c, 9, 42, 70
1, 91999, Note_on_c, 9, 42, 0
1, 92000, Note_on_c, 9, 42, 70
1, 92159, Note_on_c, 9, 42, 0
1, 92160, Note_on_c, 9, 42, 70
1, 92160, Note_on_c, 9, 35, 95
1, 92319, Note_on_c, 9, 42, 0
1, 92320, Note_on_c, 9, 42, 70
1, 92479, Note_on_c, 9, 42, 0
1, 92480, Note_on_c, 9, 42, 70
1, 92639, Note_on_c, 9, 35, 0
1, 92639, Note_on_c, 9, 42, 0
1, 92640, Note_on_c, 9, 38, 90
1, 92640, Note_on_c, 9, 39, 77
1, 92640, Note_on_c, 9, 42, 70
1, 92799, Note_on_c, 9, 38, 0
1, 92799, Note_on_c, 9, 39, 0
1, 92799, Note_on_c, 9, 42, 0
1, 92800, Note_on_c, 9, 42, 70
1, 92959, Note_on_c, 9, 42, 0
1, 92960, Note_on_c, 9, 39, 81
1, 92960, Note_on_c, 9, 42, 70
1, 92960, Note_on_c, 9, 35, 89
1, 93119, Note_on_c, 9, 39, 0
1, 93119, Note_on_c, 9, 42, 0
1, 93119, Note_on_c, 9, 35, 0
1, 93120, Note_on_c, 9, 42, 70
1, 93120, Note_on_c, 9, 35, 90
1, 93279, Note_on_c, 9, 42, 0
1, 93280, Note_on_c, 9, 42, 70
1, 93439, Note_on_c, 9, 42, 0
1, 93440, Note_on_c, 9, 42, 70
1, 93599, Note_on_c, 9, 35, 0
1, 93599, Note_on_c, 9, 42, 0
1, 93600, Note_on_c, 9, 38, 95
1, 93600, Note_on_c, 9, 39, 76
1, 93600, Note_on_c, 9, 42, 70
1, 93759, Note_on_c, 9, 38, 0
1, 93759, Note_on_c, 9, 39, 0
1, 93759, Note_on_c, 9, 42, 0
1, 93760, Note_on_c, 9, 42, 70
1, 93919, Note_on_c, 9, 42, 0
1, 93920, Note_on_c, 9, 42, 70
1, 94079, Note_on_c, 9, 42, 0
1, 94080, Note_on_c, 9, 42, 70
1, 94080, Note_on_c, 9, 35, 92
1, 94239, Note_on_c, 9, 42, 0
1, 94240, Note_on_c, 9, 42, 70
1, 94399, Note_on_c, 9, 42, 0
1, 94400, Note_on_c, 9, 42, 70
1, 94559, Note_on_c, 9, 35, 0
1, 94559, Note_on_c, 9, 42, 0
1, 94560, Note_on_c, 9, 38, 95
1, 94560, Note_on_c, 9, 39, 75
1, 94560, Note_on_c, 9, 42, 70
1, 94639, Note_on_c, 9, 38, 0
1, 94639, Note_on_c, 9, 39, 0
1, 94639, Note_on_c, 9, 42, 0
1, 94720, Note_on_c, 9, 42, 70
1, 94879, Note_on_c, 9, 42, 0
1, 94880, Note_on_c, 9, 39, 71
1, 94880, Note_on_c, 9, 42, 70
1, 94880, Note_on_c, 9, 35, 88
1, 94959, Note_on_c, 9, 39, 0
1, 94959, Note_on_c, 9, 42, 0
1, 95039, Note_on_c, 9, 35, 0
1, 95040, Note_on_c, 9, 42, 70
1, 95040, Note_on_c, 9, 35, 90
1, 95199, Note_on_c, 9, 42, 0
1, 95200, Note_on_c, 9, 42, 70
1, 95359, Note_on_c, 9, 42, 0
1, 95360, Note_on_c, 9, 42, 70
1, 95519, Note_on_c, 9, 35, 0
1, 95519, Note_on_c, 9, 42, 0
1, 95520, Note_on_c, 9, 38, 90
1, 95520, Note_on_c, 9, 39, 76
1, 95520, Note_on_c, 9, 42, 70
1, 95679, Note_on_c, 9, 38, 0
1, 95679, Note_on_c, 9, 39, 0
1, 95679, Note_on_c, 9, 42, 0
1, 95680, Note_on_c, 9, 42, 70
1, 95839, Note_on_c, 9, 42, 0
1, 95840, Note_on_c, 9, 42, 70
1, 95999, Note_on_c, 9, 42, 0
1, 96000, Note_on_c, 9, 42, 70
1, 96000, Note_on_c, 9, 35, 92
1, 96159, Note_on_c, 9, 42, 0
1, 96160, Note_on_c, 9, 42, 70
1, 96319, Note_on_c, 9, 42, 0
1, 96320, Note_on_c, 9, 42, 70
1, 96479, Note_on_c, 9, 35, 0
1, 96479, Note_on_c, 9, 42, 0
1, 96480, Note_on_c, 9, 38, 92
1, 96480, Note_on_c, 9, 39, 76
1, 96480, Note_on_c, 9, 42, 70
1, 96639, Note_on_c, 9, 38, 0
1, 96639, Note_on_c, 9, 39, 0
1, 96639, Note_on_c, 9, 42, 0
1, 96640, Note_on_c, 9, 42, 70
1, 96799, Note_on_c, 9, 42, 0
1, 96800, Note_on_c, 9, 39, 75
1, 96800, Note_on_c, 9, 42, 70
1, 96800, Note_on_c, 9, 35, 89
1, 96959, Note_on_c, 9, 39, 0
1, 96959, Note_on_c, 9, 42, 0
1, 96959, Note_on_c, 9, 35, 0
1, 96960, Note_on_c, 9, 42, 70
1, 96960, Note_on_c, 9, 35, 89
1, 97119, Note_on_c, 9, 42, 0
1, 97120, Note_on_c, 9, 42, 70
1, 97279, Note_on_c, 9, 42, 0
1, 97280, Note_on_c, 9, 42, 70
1, 97439, Note_on_c, 9, 35, 0
1, 97439, Note_on_c, 9, 42, 0
1, 97440, Note_on_c, 9, 38, 94
1, 97440, Note_on_c, 9, 39, 80
1, 97440, Note_on_c, 9, 42, 70
1, 97599, Note_on_c, 9, 38, 0
1, 97599, Note_on_c, 9, 39, 0
1, 97599, Note_on_c, 9, 42, 0
1, 97600, Note_on_c, 9, 42, 70
1, 97759, Note_on_c, 9, 42, 0
1, 97760, Note_on_c, 9, 42, 70
1, 97919, Note_on_c, 9, 42, 0
1, 97920, Note_on_c, 9, 42, 70
1, 97920, Note_on_c, 9, 35, 95
1, 98079, Note_on_c, 9, 42, 0
1, 98080, Note_on_c, 9, 42, 70
1, 98239, Note_on_c, 9, 42, 0
1, 98240, Note_on_c, 9, 42, 70
1, 98399, Note_on_c, 9, 35, 0
1, 98399, Note_on_c, 9, 42, 0
1, 98400, Note_on_c, 9, 38, 95
1, 98400, Note_on_c, 9, 39, 81
1, 98400, Note_on_c, 9, 42, 70
1, 98559, Note_on_c, 9, 38, 0
1, 98559, Note_on_c, 9, 39, 0
1, 98559, Note_on_c, 9, 42, 0
1, 98560, Note_on_c, 9, 42, 70
1, 98719, Note_on_c, 9, 42, 0
1, 98720, Note_on_c, 9, 39, 71
1, 98720, Note_on_c, 9, 42, 70
1, 98720, Note_on_c, 9, 35, 89
1, 98879, Note_on_c, 9, 39, 0
1, 98879, Note_on_c, 9, 42, 0
1, 98879, Note_on_c, 9, 35, 0
1, 98880, Note_on_c, 9, 42, 70
1, 98880, Note_on_c, 9, 35, 90
1, 99039, Note_on_c, 9, 42, 0
1, 99040, Note_on_c, 9, 42, 70
1, 99199, Note_on_c, 9, 42, 0
1, 99200, Note_on_c, 9, 42, 70
1, 99359, Note_on_c, 9, 35, 0
1, 99359, Note_on_c, 9, 42, 0
1, 99360, Note_on_c, 9, 38, 95
1, 99360, Note_on_c, 9, 39, 80
1, 99360, Note_on_c, 9, 42, 70
1, 99519, Note_on_c, 9, 38, 0
1, 99519, Note_on_c, 9, 39, 0
1, 99519, Note_on_c, 9, 42, 0
1, 99520, Note_on_c, 9, 42, 70
1, 99679, Note_on_c, 9, 42, 0
1, 99680, Note_on_c, 9, 42, 70
1, 99839, Note_on_c, 9, 42, 0
1, 99840, Note_on_c, 9, 42, 70
1, 99840, Note_on_c, 9, 35, 95
1, 99999, Note_on_c, 9, 42, 0
1, 100000, Note_on_c, 9, 42, 70
1, 100159, Note_on_c, 9, 42, 0
1, 100160, Note_on_c, 9, 42, 70
1, 100319, Note_on_c, 9, 35, 0
1, 100319, Note_on_c, 9, 42, 0
1, 100320, Note_on_c, 9, 38, 95
1, 100320, Note_on_c, 9, 39, 75
1, 100320, Note_on_c, 9, 42, 70
1, 100479, Note_on_c, 9, 38, 0
1, 100479, Note_on_c, 9, 39, 0
1, 100479, Note_on_c, 9, 42, 0
1, 100480, Note_on_c, 9, 42, 70
1, 100639, Note_on_c, 9, 42, 0
1, 100640, Note_on_c, 9, 39, 75
1, 100640, Note_on_c, 9, 42, 70
1, 100640, Note_on_c, 9, 35, 85
1, 100799, Note_on_c, 9, 39, 0
1, 100799, Note_on_c, 9, 42, 0
1, 100799, Note_on_c, 9, 35, 0
1, 100800, Note_on_c, 9, 42, 70
1, 100800, Note_on_c, 9, 35, 93
1, 100959, Note_on_c, 9, 42, 0
1, 100960, Note_on_c, 9, 42, 70
1, 101119, Note_on_c, 9, 42, 0
1, 101120, Note_on_c, 9, 42, 70
1, 101279, Note_on_c, 9, 35, 0
1, 101279, Note_on_c, 9, 42, 0
1, 101280, Note_on_c, 9, 38, 94
1, 101280, Note_on_c, 9, 39, 86
1, 101280, Note_on_c, 9, 42, 70
1, 101439, Note_on_c, 9, 38, 0
1, 101439, Note_on_c, 9, 39, 0
1, 101439, Note_on_c, 9, 42, 0
1, 101440, Note_on_c, 9, 42, 70
1, 101599, Note_on_c, 9, 42, 0
1, 101600, Note_on_c, 9, 42, 70
1, 101759, Note_on_c, 9, 42, 0
1, 101760, Note_on_c, 9, 57, 77
1, 101760, Note_on_c, 9, 35, 93
1, 102239, Note_on_c, 9, 57, 0
1, 102239, Note_on_c, 9, 35, 0
1, 102240, Note_on_c, 9, 49, 77
1, 102240, Note_on_c, 9, 35, 95
1, 102719, Note_on_c, 9, 49, 0
1, 102719, Note_on_c, 9, 35, 0
1, 102720, Note_on_c, 9, 57, 66
1, 102720, Note_on_c, 9, 35, 97
1, 103199, Note_on_c, 9, 57, 0
1, 103199, Note_on_c, 9, 35, 0
1, 103680, Note_on_c, 9, 42, 70
1, 103680, Note_on_c, 9, 35, 95
1, 103839, Note_on_c, 9, 42, 0
1, 103840, Note_on_c, 9, 42, 70
1, 103999, Note_on_c, 9, 42, 0
1, 104000, Note_on_c, 9, 42, 70
1, 104159, Note_on_c, 9, 35, 0
1, 104159, Note_on_c, 9, 42, 0
1, 104160, Note_on_c, 9, 38, 95
1, 104160, Note_on_c, 9, 39, 76
1, 104160, Note_on_c, 9, 42, 70
1, 104239, Note_on_c, 9, 38, 0
1, 104239, Note_on_c, 9, 39, 0
1, 104239, Note_on_c, 9, 42, 0
1, 104320, Note_on_c, 9, 42, 70
1, 104479, Note_on_c, 9, 42, 0
1, 104480, Note_on_c, 9, 39, 75
1, 104480, Note_on_c, 9, 42, 70
1, 104480, Note_on_c, 9, 35, 87
1, 104639, Note_on_c, 9, 39, 0
1, 104639, Note_on_c, 9, 42, 0
1, 104639, Note_on_c, 9, 35, 0
1, 104640, Note_on_c, 9, 42, 70
1, 104640, Note_on_c, 9, 35, 89
1, 104799, Note_on_c, 9, 42, 0
1, 104800, Note_on_c, 9, 42, 70
1, 104959, Note_on_c, 9, 42, 0
1, 104960, Note_on_c, 9, 42, 70
1, 105119, Note_on_c, 9, 35, 0
1, 105119, Note_on_c, 9, 42, 0
1, 105120, Note_on_c, 9, 38, 95
1, 105120, Note_on_c, 9, 39, 81
1, 105120, Note_on_c, 9, 42, 70
1, 105279, Note_on_c, 9, 38, 0
1, 105279, Note_on_c, 9, 39, 0
1, 105279, Note_on_c, 9, 42, 0
1, 105280, Note_on_c, 9, 42, 70
1, 105439, Note_on_c, 9, 42, 0
1, 105440, Note_on_c, 9, 42, 70
1, 105599, Note_on_c, 9, 42, 0
1, 105600, Note_on_c, 9, 42, 70
1, 105600, Note_on_c, 9, 35, 95
1, 105759, Note_on_c, 9, 42, 0
1, 105760, Note_on_c, 9, 42, 70
1, 105919, Note_on_c, 9, 42, 0
1, 105920, Note_on_c, 9, 42, 70
1, 106079, Note_on_c, 9, 35, 0
1, 106079, Note_on_c, 9, 42, 0
1, 106080, Note_on_c, 9, 38, 95
1, 106080, Note_on_c, 9, 39, 80
1, 106080, Note_on_c, 9, 42, 70
1, 106239, Note_on_c, 9, 38, 0
1, 106239, Note_on_c, 9, 39, 0
1, 106239, Note_on_c, 9, 42, 0
1, 106240, Note_on_c, 9, 42, 70
1, 106399, Note_on_c, 9, 42, 0
1, 106400, Note_on_c, 9, 39, 81
1, 106400, Note_on_c, 9, 42, 70
1, 106400, Note_on_c, 9, 35, 90
1, 106479, Note_on_c, 9, 39, 0
1, 106479, Note_on_c, 9, 42, 0
1, 106559, Note_on_c, 9, 35, 0
1, 106560, Note_on_c, 9, 42, 70
1, 106560, Note_on_c, 9, 35, 95
1, 106719, Note_on_c, 9, 42, 0
1, 106720, Note_on_c, 9, 42, 70
1, 106879, Note_on_c, 9, 42, 0
1, 106880, Note_on_c, 9, 42, 70
1, 107039, Note_on_c, 9, 35, 0
1, 107039, Note_on_c, 9, 42, 0
1, 107040, Note_on_c, 9, 38, 95
1, 107040, Note_on_c, 9, 39, 81
1, 107040, Note_on_c, 9, 42, 70
1, 107199, Note_on_c, 9, 38, 0
1, 107199, Note_on_c, 9, 39, 0
1, 107199, Note_on_c, 9, 42, 0
1, 107200, Note_on_c, 9, 42, 70
1, 107359, Note_on_c, 9, 42, 0
1, 107360, Note_on_c, 9, 42, 70
1, 107519, Note_on_c, 9, 42, 0
1, 107520, Note_on_c, 9, 42, 70
1, 107520, Note_on_c, 9, 57, 77
1, 107520, Note_on_c, 9, 35, 95
1, 107679, Note_on_c, 9, 42, 0
1, 107679, Note_on_c, 9, 57, 0
1, 107680, Note_on_c, 9, 42, 70
1, 107839, Note_on_c, 9, 42, 0
1, 107840, Note_on_c, 9, 42, 70
1, 107999, Note_on_c, 9, 35, 0
1, 107999, Note_on_c, 9, 42, 0
1, 108000, Note_on_c, 9, 38, 95
1, 108000, Note_on_c, 9, 39, 76
1, 108000, Note_on_c, 9, 42, 70
1, 108079, Note_on_c, 9, 38, 0
1, 108079, Note_on_c, 9, 39, 0
1, 108079, Note_on_c, 9, 42, 0
1, 108160, Note_on_c, 9, 42, 70
1, 108319, Note_on_c, 9, 42, 0
1, 108320, Note_on_c, 9, 39, 75
1, 108320, Note_on_c, 9, 42, 70
1, 108320, Note_on_c, 9, 35, 93
1, 108479, Note_on_c, 9, 39, 0
1, 108479, Note_on_c, 9, 42, 0
1, 108479, Note_on_c, 9, 35, 0
1, 108480, Note_on_c, 9, 42, 70
1, 108480, Note_on_c, 9, 35, 90
1, 108639, Note_on_c, 9, 42, 0
1, 108640, Note_on_c, 9, 42, 70
1, 108799, Note_on_c, 9, 42, 0
1, 108800, Note_on_c, 9, 42, 70
1, 108959, Note_on_c, 9, 35, 0
1, 108959, Note_on_c, 9, 42, 0
1, 108960, Note_on_c, 9, 38, 95
1, 108960, Note_on_c, 9, 39, 81
1, 108960, Note_on_c, 9, 42, 70
1, 109119, Note_on_c, 9, 38, 0
1, 109119, Note_on_c, 9, 39, 0
1, 109119, Note_on_c, 9, 42, 0
1, 109120, Note_on_c, 9, 42, 70
1, 109279, Note_on_c, 9, 42, 0
1, 109280, Note_on_c, 9, 42, 70
1, 109439, Note_on_c, 9, 42, 0
1, 109440, Note_on_c, 9, 42, 70
1, 109440, Note_on_c, 9, 35, 92
1, 109599, Note_on_c, 9, 42, 0
1, 109600, Note_on_c, 9, 42, 70
1, 109759, Note_on_c, 9, 42, 0
1, 109760, Note_on_c, 9, 42, 70
1, 109919, Note_on_c, 9, 35, 0
1, 109919, Note_on_c, 9, 42, 0
1, 109920, Note_on_c, 9, 38, 95
1, 109920, Note_on_c, 9, 39, 76
1, 109920, Note_on_c, 9, 42, 70
1, 110079, Note_on_c, 9, 38, 0
1, 110079, Note_on_c, 9, 39, 0
1, 110079, Note_on_c, 9, 42, 0
1, 110080, Note_on_c, 9, 42, 70
1, 110239, Note_on_c, 9, 42, 0
1, 110240, Note_on_c, 9, 39, 75
1, 110240, Note_on_c, 9, 42, 70
1, 110240, Note_on_c, 9, 35, 90
1, 110319, Note_on_c, 9, 39, 0
1, 110319, Note_on_c, 9, 42, 0
1, 110399, Note_on_c, 9, 35, 0
1, 110400, Note_on_c, 9, 42, 70
1, 110400, Note_on_c, 9, 35, 95
1, 110559, Note_on_c, 9, 42, 0
1, 110560, Note_on_c, 9, 42, 70
1, 110719, Note_on_c, 9, 42, 0
1, 110720, Note_on_c, 9, 42, 70
1, 110879, Note_on_c, 9, 35, 0
1, 110879, Note_on_c, 9, 42, 0
1, 110880, Note_on_c, 9, 38, 95
1, 110880, Note_on_c, 9, 39, 81
1, 110880, Note_on_c, 9, 42, 70
1, 111039, Note_on_c, 9, 38, 0
1, 111039, Note_on_c, 9, 39, 0
1, 111039, Note_on_c, 9, 42, 0
1, 111040, Note_on_c, 9, 42, 70
1, 111199, Note_on_c, 9, 42, 0
1, 111200, Note_on_c, 9, 42, 70
1, 111359, Note_on_c, 9, 42, 0
1, 111360, Note_on_c, 9, 42, 70
1, 111360, Note_on_c, 9, 35, 93
1, 111519, Note_on_c, 9, 42, 0
1, 111520, Note_on_c, 9, 42, 70
1, 111679, Note_on_c, 9, 42, 0
1, 111680, Note_on_c, 9, 42, 70
1, 111839, Note_on_c, 9, 35, 0
1, 111839, Note_on_c, 9, 42, 0
1, 111840, Note_on_c, 9, 38, 95
1, 111840, Note_on_c, 9, 39, 75
1, 111840, Note_on_c, 9, 42, 70
1, 111919, Note_on_c, 9, 38, 0
1, 111919, Note_on_c, 9, 39, 0
1, 111919, Note_on_c, 9, 42, 0
1, 112000, Note_on_c, 9, 42, 70
1, 112159, Note_on_c, 9, 42, 0
1, 112160, Note_on_c, 9, 39, 75
1, 112160, Note_on_c, 9, 42, 70
1, 112160, Note_on_c, 9, 35, 90
1, 112239, Note_on_c, 9, 39, 0
1, 112239, Note_on_c, 9, 42, 0
1, 112319, Note_on_c, 9, 35, 0
1, 112320, Note_on_c, 9, 42, 70
1, 112320, Note_on_c, 9, 35, 90
1, 112479, Note_on_c, 9, 42, 0
1, 112480, Note_on_c, 9, 42, 70
1, 112639, Note_on_c, 9, 42, 0
1, 112640, Note_on_c, 9, 42, 70
1, 112799, Note_on_c, 9, 35, 0
1, 112799, Note_on_c, 9, 42, 0
1, 112800, Note_on_c, 9, 38, 93
1, 112800, Note_on_c, 9, 39, 85
1, 112800, Note_on_c, 9, 42, 70
1, 112959, Note_on_c, 9, 38, 0
1, 112959, Note_on_c, 9, 39, 0
1, 112959, Note_on_c, 9, 42, 0
1, 112960, Note_on_c, 9, 42, 70
1, 113119, Note_on_c, 9, 42, 0
1, 113120, Note_on_c, 9, 42, 70
1, 113279, Note_on_c, 9, 42, 0
1, 113280, Note_on_c, 9, 42, 70
1, 113280, Note_on_c, 9, 35, 92
1, 113439, Note_on_c, 9, 42, 0
1, 113440, Note_on_c, 9, 42, 70
1, 113599, Note_on_c, 9, 42, 0
1, 113600, Note_on_c, 9, 42, 70
1, 113759, Note_on_c, 9, 35, 0
1, 113759, Note_on_c, 9, 42, 0
1, 113760, Note_on_c, 9, 38, 95
1, 113760, Note_on_c, 9, 39, 81
1, 113760, Note_on_c, 9, 42, 70
1, 113919, Note_on_c, 9, 38, 0
1, 113919, Note_on_c, 9, 39, 0
1, 113919, Note_on_c, 9, 42, 0
1, 113920, Note_on_c, 9, 42, 70
1, 114079, Note_on_c, 9, 42, 0
1, 114080, Note_on_c, 9, 39, 81
1, 114080, Note_on_c, 9, 42, 70
1, 114080, Note_on_c, 9, 35, 90
1, 114239, Note_on_c, 9, 39, 0
1, 114239, Note_on_c, 9, 42, 0
1, 114239, Note_on_c, 9, 35, 0
1, 114240, Note_on_c, 9, 42, 70
1, 114240, Note_on_c, 9, 35, 89
1, 114399, Note_on_c, 9, 42, 0
1, 114400, Note_on_c, 9, 42, 70
1, 114559, Note_on_c, 9, 42, 0
1, 114560, Note_on_c, 9, 42, 70
1, 114719, Note_on_c, 9, 35, 0
1, 114719, Note_on_c, 9, 42, 0
1, 114720, Note_on_c, 9, 38, 90
1, 114720, Note_on_c, 9, 39, 75
1, 114720, Note_on_c, 9, 42, 70
1, 114879, Note_on_c, 9, 38, 0
1, 114879, Note_on_c, 9, 39, 0
1, 114879, Note_on_c, 9, 42, 0
1, 114880, Note_on_c, 9, 42, 70
1, 115039, Note_on_c, 9, 42, 0
1, 115040, Note_on_c, 9, 42, 70
1, 115199, Note_on_c, 9, 42, 0
1, 115200, Note_on_c, 9, 42, 70
1, 115200, Note_on_c, 9, 57, 77
1, 115200, Note_on_c, 9, 35, 93
1, 115359, Note_on_c, 9, 42, 0
1, 115359, Note_on_c, 9, 57, 0
1, 115360, Note_on_c, 9, 42, 70
1, 115519, Note_on_c, 9, 42, 0
1, 115520, Note_on_c, 9, 42, 70
1, 115679, Note_on_c, 9, 35, 0
1, 115679, Note_on_c, 9, 42, 0
1, 115680, Note_on_c, 9, 38, 95
1, 115680, Note_on_c, 9, 39, 81
1, 115680, Note_on_c, 9, 42, 70
1, 115759, Note_on_c, 9, 38, 0
1, 115759, Note_on_c, 9, 39, 0
1, 115759, Note_on_c, 9, 42, 0
1, 115840, Note_on_c, 9, 42, 70
1, 115999, Note_on_c, 9, 42, 0
1, 116000, Note_on_c, 9, 39, 76
1, 116000, Note_on_c, 9, 42, 70
1, 116000, Note_on_c, 9, 35, 93
1, 116159, Note_on_c, 9, 39, 0
1, 116159, Note_on_c, 9, 42, 0
1, 116159, Note_on_c, 9, 35, 0
1, 116160, Note_on_c, 9, 42, 70
1, 116160, Note_on_c, 9, 35, 90
1, 116319, Note_on_c, 9, 42, 0
1, 116320, Note_on_c, 9, 42, 70
1, 116479, Note_on_c, 9, 42, 0
1, 116480, Note_on_c, 9, 42, 70
1, 116639, Note_on_c, 9, 35, 0
1, 116639, Note_on_c, 9, 42, 0
1, 116640, Note_on_c, 9, 38, 94
1, 116640, Note_on_c, 9, 39, 80
1, 116640, Note_on_c, 9, 42, 70
1, 116799, Note_on_c, 9, 38, 0
1, 116799, Note_on_c, 9, 39, 0
1, 116799, Note_on_c, 9, 42, 0
1, 116800, Note_on_c, 9, 42, 70
1, 116959, Note_on_c, 9, 42, 0
1, 116960, Note_on_c, 9, 42, 70
1, 117119, Note_on_c, 9, 42, 0
1, 117120, Note_on_c, 9, 42, 70
1, 117120, Note_on_c, 9, 35, 92
1, 117279, Note_on_c, 9, 42, 0
1, 117280, Note_on_c, 9, 42, 70
1, 117439, Note_on_c, 9, 42, 0
1, 117440, Note_on_c, 9, 42, 70
1, 117599, Note_on_c, 9, 35, 0
1, 117599, Note_on_c, 9, 42, 0
1, 117600, Note_on_c, 9, 38, 90
1, 117600, Note_on_c, 9, 39, 75
1, 117600, Note_on_c, 9, 42, 70
1, 117759, Note_on_c, 9, 38, 0
1, 117759, Note_on_c, 9, 39, 0
1, 117759, Note_on_c, 9, 42, 0
1, 117760, Note_on_c, 9, 42, 70
1, 117919, Note_on_c, 9, 42, 0
1, 117920, Note_on_c, 9, 39, 81
1, 117920, Note_on_c, 9, 42, 70
1, 117920, Note_on_c, 9, 35, 90
1, 118079, Note_on_c, 9, 39, 0
1, 118079, Note_on_c, 9, 42, 0
1, 118079, Note_on_c, 9, 35, 0
1, 118080, Note_on_c, 9, 42, 70
1, 118080, Note_on_c, 9, 35, 90
1, 118239, Note_on_c, 9, 42, 0
1, 118240, Note_on_c, 9, 42, 70
1, 118399, Note_on_c, 9, 42, 0
1, 118400, Note_on_c, 9, 42, 70
1, 118559, Note_on_c, 9, 35, 0
1, 118559, Note_on_c, 9, 42, 0
1, 118560, Note_on_c, 9, 38, 95
1, 118560, Note_on_c, 9, 39, 76
1, 118560, Note_on_c, 9, 42, 70
1, 118719, Note_on_c, 9, 38, 0
1, 118719, Note_on_c, 9, 39, 0
1, 118719, Note_on_c, 9, 42, 0
1, 118720, Note_on_c, 9, 42, 70
1, 118879, Note_on_c, 9, 42, 0
1, 118880, Note_on_c, 9, 42, 70
1, 119039, Note_on_c, 9, 42, 0
1, 119040, Note_on_c, 9, 42, 70
1, 119040, Note_on_c, 9, 35, 95
1, 119199, Note_on_c, 9, 42, 0
1, 119200, Note_on_c, 9, 42, 70
1, 119359, Note_on_c, 9, 42, 0
1, 119360, Note_on_c, 9, 42, 70
1, 119519, Note_on_c, 9, 35, 0
1, 119519, Note_on_c, 9, 42, 0
1, 119520, Note_on_c, 9, 38, 92
1, 119520, Note_on_c, 9, 39, 76
1, 119520, Note_on_c, 9, 42, 70
1, 119599, Note_on_c, 9, 38, 0
1, 119599, Note_on_c, 9, 39, 0
1, 119599, Note_on_c, 9, 42, 0
1, 119680, Note_on_c, 9, 42, 70
1, 119839, Note_on_c, 9, 42, 0
1, 119840, Note_on_c, 9, 39, 75
1, 119840, Note_on_c, 9, 42, 70
1, 119840, Note_on_c, 9, 35, 90
1, 119919, Note_on_c, 9, 39, 0
1, 119919, Note_on_c, 9, 42, 0
1, 119999, Note_on_c, 9, 35, 0
1, 120000, Note_on_c, 9, 42, 70
1, 120000, Note_on_c, 9, 35, 90
1, 120159, Note_on_c, 9, 42, 0
1, 120160, Note_on_c, 9, 42, 70
1, 120319, Note_on_c, 9, 42, 0
1, 120320, Note_on_c, 9, 42, 70
1, 120479, Note_on_c, 9, 35, 0
1, 120479, Note_on_c, 9, 42, 0
1, 120480, Note_on_c, 9, 38, 95
1, 120480, Note_on_c, 9, 39, 81
1, 120480, Note_on_c, 9, 42, 70
1, 120639, Note_on_c, 9, 38, 0
1, 120639, Note_on_c, 9, 39, 0
1, 120639, Note_on_c, 9, 42, 0
1, 120640, Note_on_c, 9, 42, 70
1, 120799, Note_on_c, 9, 42, 0
1, 120800, Note_on_c, 9, 42, 70
1, 120959, Note_on_c, 9, 42, 0
1, 120960, Note_on_c, 9, 42, 70
1, 120960, Note_on_c, 9, 35, 92
1, 121119, Note_on_c, 9, 42, 0
1, 121120, Note_on_c, 9, 42, 70
1, 121279, Note_on_c, 9, 42, 0
1, 121280, Note_on_c, 9, 42, 70
1, 121439, Note_on_c, 9, 35, 0
1, 121439, Note_on_c, 9, 42, 0
1, 121440, Note_on_c, 9, 38, 95
1, 121440, Note_on_c, 9, 39, 81
1, 121440, Note_on_c, 9, 42, 70
1, 121519, Note_on_c, 9, 38, 0
1, 121519, Note_on_c, 9, 39, 0
1, 121519, Note_on_c, 9, 42, 0
1, 121600, Note_on_c, 9, 42, 70
1, 121759, Note_on_c, 9, 42, 0
1, 121760, Note_on_c, 9, 39, 76
1, 121760, Note_on_c, 9, 42, 70
1, 121760, Note_on_c, 9, 35, 93
1, 121839, Note_on_c, 9, 39, 0
1, 121839, Note_on_c, 9, 42, 0
1, 121919, Note_on_c, 9, 35, 0
1, 121920, Note_on_c, 9, 42, 70
1, 121920, Note_on_c, 9, 35, 92
1, 122079, Note_on_c, 9, 42, 0
1, 122080, Note_on_c, 9, 42, 70
1, 122239, Note_on_c, 9, 42, 0
1, 122240, Note_on_c, 9, 42, 70
1, 122399, Note_on_c, 9, 35, 0
1, 122399, Note_on_c, 9, 42, 0
1, 122400, Note_on_c, 9, 38, 97
1, 122400, Note_on_c, 9, 39, 85
1, 122400, Note_on_c, 9, 42, 70
1, 122479, Note_on_c, 9, 38, 0
1, 122479, Note_on_c, 9, 39, 0
1, 122479, Note_on_c, 9, 42, 0
1, 122560, Note_on_c, 9, 42, 70
1, 122719, Note_on_c, 9, 42, 0
1, 122720, Note_on_c, 9, 42, 70
1, 122879, Note_on_c, 9, 42, 0
1, 122880, Note_on_c, 9, 42, 70
1, 122880, Note_on_c, 9, 57, 77
1, 122880, Note_on_c, 9, 35, 95
1, 122959, Note_on_c, 9, 42, 0
1, 122959, Note_on_c, 9, 57, 0
1, 123040, Note_on_c, 9, 42, 70
1, 123199, Note_on_c, 9, 42, 0
1, 123200, Note_on_c, 9, 42, 70
1, 123359, Note_on_c, 9, 35, 0
1, 123359, Note_on_c, 9, 42, 0
1, 123360, Note_on_c, 9, 38, 98
1, 123360, Note_on_c, 9, 39, 80
1, 123360, Note_on_c, 9, 42, 70
1, 123519, Note_on_c, 9, 38, 0
1, 123519, Note_on_c, 9, 39, 0
1, 123519, Note_on_c, 9, 42, 0
1, 123520, Note_on_c, 9, 42, 70
1, 123679, Note_on_c, 9, 42, 0
1, 123680, Note_on_c, 9, 42, 70
1, 123680, Note_on_c, 9, 35, 93
1, 123839, Note_on_c, 9, 42, 0
1, 123839, Note_on_c, 9, 35, 0
1, 123840, Note_on_c, 9, 42, 70
1, 123840, Note_on_c, 9, 35, 92
1, 123999, Note_on_c, 9, 42, 0
1, 124000, Note_on_c, 9, 42, 70
1, 124159, Note_on_c, 9, 42, 0
1, 124160, Note_on_c, 9, 42, 70
1, 124319, Note_on_c, 9, 35, 0
1, 124319, Note_on_c, 9, 42, 0
1, 124320, Note_on_c, 9, 38, 95
1, 124320, Note_on_c, 9, 39, 75
1, 124320, Note_on_c, 9, 42, 70
1, 124479, Note_on_c, 9, 38, 0
1, 124479, Note_on_c, 9, 39, 0
1, 124479, Note_on_c, 9, 42, 0
1, 124480, Note_on_c, 9, 42, 70
1, 124639, Note_on_c, 9, 42, 0
1, 124640, Note_on_c, 9, 42, 70
1, 124799, Note_on_c, 9, 42, 0
1, 124800, Note_on_c, 9, 42, 70
1, 124800, Note_on_c, 9, 35, 92
1, 124959, Note_on_c, 9, 42, 0
1, 124960, Note_on_c, 9, 42, 70
1, 125119, Note_on_c, 9, 42, 0
1, 125120, Note_on_c, 9, 42, 70
1, 125279, Note_on_c, 9, 35, 0
1, 125279, Note_on_c, 9, 42, 0
1, 125280, Note_on_c, 9, 38, 98
1, 125280, Note_on_c, 9, 39, 76
1, 125280, Note_on_c, 9, 42, 70
1, 125439, Note_on_c, 9, 38, 0
1, 125439, Note_on_c, 9, 39, 0
1, 125439, Note_on_c, 9, 42, 0
1, 125440, Note_on_c, 9, 42, 70
1, 125599, Note_on_c, 9, 42, 0
1, 125600, Note_on_c, 9, 42, 70
1, 125600, Note_on_c, 9, 35, 90
1, 125759, Note_on_c, 9, 42, 0
1, 125759, Note_on_c, 9, 35, 0
1, 125760, Note_on_c, 9, 42, 70
1, 125760, Note_on_c, 9, 35, 93
1, 125919, Note_on_c, 9, 42, 0
1, 125920, Note_on_c, 9, 42, 70
1, 126079, Note_on_c, 9, 42, 0
1, 126080, Note_on_c, 9, 42, 70
1, 126239, Note_on_c, 9, 35, 0
1, 126239, Note_on_c, 9, 42, 0
1, 126240, Note_on_c, 9, 38, 95
1, 126240, Note_on_c, 9, 39, 81
1, 126240, Note_on_c, 9, 42, 70
1, 126399, Note_on_c, 9, 38, 0
1, 126399, Note_on_c, 9, 39, 0
1, 126399, Note_on_c, 9, 42, 0
1, 126400, Note_on_c, 9, 42, 70
1, 126559, Note_on_c, 9, 42, 0
1, 126560, Note_on_c, 9, 42, 70
1, 126719, Note_on_c, 9, 42, 0
1, 126720, Note_on_c, 9, 42, 70
1, 126720, Note_on_c, 9, 35, 95
1, 126879, Note_on_c, 9, 42, 0
1, 126880, Note_on_c, 9, 42, 70
1, 127039, Note_on_c, 9, 42, 0
1, 127040, Note_on_c, 9, 42, 70
1, 127199, Note_on_c, 9, 35, 0
1, 127199, Note_on_c, 9, 42, 0
1, 127200, Note_on_c, 9, 38, 90
1, 127200, Note_on_c, 9, 39, 80
1, 127200, Note_on_c, 9, 42, 70
1, 127359, Note_on_c, 9, 38, 0
1, 127359, Note_on_c, 9, 39, 0
1, 127359, Note_on_c, 9, 42, 0
1, 127360, Note_on_c, 9, 42, 70
1, 127519, Note_on_c, 9, 42, 0
1, 127520, Note_on_c, 9, 42, 70
1, 127520, Note_on_c, 9, 35, 90
1, 127679, Note_on_c, 9, 42, 0
1, 127679, Note_on_c, 9, 35, 0
1, 127680, Note_on_c, 9, 42, 70
1, 127680, Note_on_c, 9, 35, 90
1, 127839, Note_on_c, 9, 42, 0
1, 127840, Note_on_c, 9, 42, 70
1, 127999, Note_on_c, 9, 42, 0
1, 128000, Note_on_c, 9, 42, 70
1, 128159, Note_on_c, 9, 35, 0
1, 128159, Note_on_c, 9, 42, 0
1, 128160, Note_on_c, 9, 38, 90
1, 128160, Note_on_c, 9, 39, 81
1, 128160, Note_on_c, 9, 42, 70
1, 128319, Note_on_c, 9, 38, 0
1, 128319, Note_on_c, 9, 39, 0
1, 128319, Note_on_c, 9, 42, 0
1, 128320, Note_on_c, 9, 42, 70
1, 128479, Note_on_c, 9, 42, 0
1, 128480, Note_on_c, 9, 42, 70
1, 128639, Note_on_c, 9, 42, 0
1, 128640, Note_on_c, 9, 42, 70
1, 128640, Note_on_c, 9, 35, 95
1, 128799, Note_on_c, 9, 42, 0
1, 128800, Note_on_c, 9, 42, 70
1, 128959, Note_on_c, 9, 42, 0
1, 128960, Note_on_c, 9, 42, 70
1, 129119, Note_on_c, 9, 35, 0
1, 129119, Note_on_c, 9, 42, 0
1, 129120, Note_on_c, 9, 38, 98
1, 129120, Note_on_c, 9, 39, 80
1, 129120, Note_on_c, 9, 42, 70
1, 129279, Note_on_c, 9, 38, 0
1, 129279, Note_on_c, 9, 39, 0
1, 129279, Note_on_c, 9, 42, 0
1, 129280, Note_on_c, 9, 42, 70
1, 129439, Note_on_c, 9, 42, 0
1, 129440, Note_on_c, 9, 42, 70
1, 129440, Note_on_c, 9, 35, 90
1, 129599, Note_on_c, 9, 42, 0
1, 129599, Note_on_c, 9, 35, 0
1, 129600, Note_on_c, 9, 42, 70
1, 129600, Note_on_c, 9, 35, 90
1, 129759, Note_on_c, 9, 42, 0
1, 129760, Note_on_c, 9, 42, 70
1, 129919, Note_on_c, 9, 42, 0
1, 129920, Note_on_c, 9, 42, 70
1, 130079, Note_on_c, 9, 35, 0
1, 130079, Note_on_c, 9, 42, 0
1, 130080, Note_on_c, 9, 38, 98
1, 130080, Note_on_c, 9, 39, 86
1, 130080, Note_on_c, 9, 42, 70
1, 130239, Note_on_c, 9, 38, 0
1, 130239, Note_on_c, 9, 39, 0
1, 130239, Note_on_c, 9, 42, 0
1, 130240, Note_on_c, 9, 42, 70
1, 130399, Note_on_c, 9, 42, 0
1, 130400, Note_on_c, 9, 42, 70
1, 130559, Note_on_c, 9, 42, 0
1, 130560, Note_on_c, 9, 42, 70
1, 130560, Note_on_c, 9, 57, 77
1, 130560, Note_on_c, 9, 35, 95
1, 130719, Note_on_c, 9, 42, 0
1, 130719, Note_on_c, 9, 57, 0
1, 130720, Note_on_c, 9, 42, 70
1, 130879, Note_on_c, 9, 42, 0
1, 130880, Note_on_c, 9, 42, 70
1, 131039, Note_on_c, 9, 35, 0
1, 131039, Note_on_c, 9, 42, 0
1, 131040, Note_on_c, 9, 38, 95
1, 131040, Note_on_c, 9, 39, 81
1, 131040, Note_on_c, 9, 42, 70
1, 131199, Note_on_c, 9, 38, 0
1, 131199, Note_on_c, 9, 39, 0
1, 131199, Note_on_c, 9, 42, 0
1, 131200, Note_on_c, 9, 42, 70
1, 131359, Note_on_c, 9, 42, 0
1, 131360, Note_on_c, 9, 42, 70
1, 131360, Note_on_c, 9, 35, 90
1, 131519, Note_on_c, 9, 42, 0
1, 131519, Note_on_c, 9, 35, 0
1, 131520, Note_on_c, 9, 42, 70
1, 131520, Note_on_c, 9, 35, 90
1, 131679, Note_on_c, 9, 42, 0
1, 131680, Note_on_c, 9, 42, 70
1, 131839, Note_on_c, 9, 42, 0
1, 131840, Note_on_c, 9, 42, 70
1, 131999, Note_on_c, 9, 35, 0
1, 131999, Note_on_c, 9, 42, 0
1, 132000, Note_on_c, 9, 38, 95
1, 132000, Note_on_c, 9, 39, 80
1, 132000, Note_on_c, 9, 42, 70
1, 132159, Note_on_c, 9, 38, 0
1, 132159, Note_on_c, 9, 39, 0
1, 132159, Note_on_c, 9, 42, 0
1, 132160, Note_on_c, 9, 42, 70
1, 132319, Note_on_c, 9, 42, 0
1, 132320, Note_on_c, 9, 42, 70
1, 132479, Note_on_c, 9, 42, 0
1, 132480, Note_on_c, 9, 42, 70
1, 132480, Note_on_c, 9, 35, 93
1, 132639, Note_on_c, 9, 42, 0
1, 132640, Note_on_c, 9, 42, 70
1, 132799, Note_on_c, 9, 42, 0
1, 132800, Note_on_c, 9, 42, 70
1, 132959, Note_on_c, 9, 35, 0
1, 132959, Note_on_c, 9, 42, 0
1, 132960, Note_on_c, 9, 38, 95
1, 132960, Note_on_c, 9, 39, 80
1, 132960, Note_on_c, 9, 42, 70
1, 133119, Note_on_c, 9, 38, 0
1, 133119, Note_on_c, 9, 39, 0
1, 133119, Note_on_c, 9, 42, 0
1, 133120, Note_on_c, 9, 42, 70
1, 133279, Note_on_c, 9, 42, 0
1, 133280, Note_on_c, 9, 42, 70
1, 133280, Note_on_c, 9, 35, 88
1, 133439, Note_on_c, 9, 42, 0
1, 133439, Note_on_c, 9, 35, 0
1, 133440, Note_on_c, 9, 42, 70
1, 133440, Note_on_c, 9, 35, 90
1, 133599, Note_on_c, 9, 42, 0
1, 133600, Note_on_c, 9, 42, 70
1, 133759, Note_on_c, 9, 42, 0
1, 133760, Note_on_c, 9, 42, 70
1, 133919, Note_on_c, 9, 35, 0
1, 133919, Note_on_c, 9, 42, 0
1, 133920, Note_on_c, 9, 38, 95
1, 133920, Note_on_c, 9, 39, 80
1, 133920, Note_on_c, 9, 42, 70
1, 134079, Note_on_c, 9, 38, 0
1, 134079, Note_on_c, 9, 39, 0
1, 134079, Note_on_c, 9, 42, 0
1, 134080, Note_on_c, 9, 42, 70
1, 134239, Note_on_c, 9, 42, 0
1, 134240, Note_on_c, 9, 42, 70
1, 134399, Note_on_c, 9, 42, 0
1, 134400, Note_on_c, 9, 42, 70
1, 134400, Note_on_c, 9, 35, 95
1, 134559, Note_on_c, 9, 42, 0
1, 134560, Note_on_c, 9, 42, 70
1, 134719, Note_on_c, 9, 42, 0
1, 134720, Note_on_c, 9, 42, 70
1, 134879, Note_on_c, 9, 35, 0
1, 134879, Note_on_c, 9, 42, 0
1, 134880, Note_on_c, 9, 38, 95
1, 134880, Note_on_c, 9, 39, 81
1, 134880, Note_on_c, 9, 42, 70
1, 135039, Note_on_c, 9, 38, 0
1, 135039, Note_on_c, 9, 39, 0
1, 135039, Note_on_c, 9, 42, 0
1, 135040, Note_on_c, 9, 42, 70
1, 135199, Note_on_c, 9, 42, 0
1, 135200, Note_on_c, 9, 42, 70
1, 135200, Note_on_c, 9, 35, 93
1, 135359, Note_on_c, 9, 42, 0
1, 135359, Note_on_c, 9, 35, 0
1, 135360, Note_on_c, 9, 42, 70
1, 135360, Note_on_c, 9, 35, 92
1, 135519, Note_on_c, 9, 42, 0
1, 135520, Note_on_c, 9, 42, 70
1, 135679, Note_on_c, 9, 42, 0
1, 135680, Note_on_c, 9, 42, 70
1, 135839, Note_on_c, 9, 35, 0
1, 135839, Note_on_c, 9, 42, 0
1, 135840, Note_on_c, 9, 38, 95
1, 135840, Note_on_c, 9, 39, 81
1, 135840, Note_on_c, 9, 42, 70
1, 135999, Note_on_c, 9, 38, 0
1, 135999, Note_on_c, 9, 39, 0
1, 135999, Note_on_c, 9, 42, 0
1, 136000, Note_on_c, 9, 42, 70
1, 136159, Note_on_c, 9, 42, 0
1, 136160, Note_on_c, 9, 42, 70
1, 136319, Note_on_c, 9, 42, 0
1, 136320, Note_on_c, 9, 41, 60
1, 136320, Note_on_c, 9, 38, 92
1, 136320, Note_on_c, 9, 42, 70
1, 136320, Note_on_c, 9, 43, 66
1, 136399, Note_on_c, 9, 41, 0
1, 136399, Note_on_c, 9, 38, 0
1, 136399, Note_on_c, 9, 42, 0
1, 136479, Note_on_c, 9, 43, 0
1, 136480, Note_on_c, 9, 41, 56
1, 136480, Note_on_c, 9, 38, 89
1, 136480, Note_on_c, 9, 43, 60
1, 136559, Note_on_c, 9, 41, 0
1, 136559, Note_on_c, 9, 38, 0
1, 136559, Note_on_c, 9, 43, 0
1, 136640, Note_on_c, 9, 41, 59
1, 136640, Note_on_c, 9, 38, 89
1, 136640, Note_on_c, 9, 43, 61
1, 136719, Note_on_c, 9, 41, 0
1, 136719, Note_on_c, 9, 38, 0
1, 136799, Note_on_c, 9, 43, 0
1, 136800, Note_on_c, 9, 41, 51
1, 136800, Note_on_c, 9, 38, 89
1, 136800, Note_on_c, 9, 43, 61
1, 136959, Note_on_c, 9, 41, 0
1, 136959, Note_on_c, 9, 38, 0
1, 136959, Note_on_c, 9, 43, 0
1, 136960, Note_on_c, 9, 41, 51
1, 136960, Note_on_c, 9, 38, 90
1, 136960, Note_on_c, 9, 43, 61
1, 137039, Note_on_c, 9, 41, 0
1, 137039, Note_on_c, 9, 38, 0
1, 137039, Note_on_c, 9, 43, 0
1, 137120, Note_on_c, 9, 41, 55
1, 137120, Note_on_c, 9, 38, 90
1, 137120, Note_on_c, 9, 43, 66
1, 137159, Note_on_c, 9, 41, 0
1, 137159, Note_on_c, 9, 38, 0
1, 137279, Note_on_c, 9, 43, 0
1, 137280, Note_on_c, 9, 41, 66
1, 137280, Note_on_c, 9, 38, 95
1, 137280, Note_on_c, 9, 43, 66
1, 137599, Note_on_c, 9, 41, 0
1, 137599, Note_on_c, 9, 38, 0
1, 137600, Note_on_c, 9, 46, 77
1, 137759, Note_on_c, 9, 43, 0
1, 137759, Note_on_c, 9, 46, 0
1, 137760, Note_on_c, 9, 42, 45
1, 138239, Note_on_c, 9, 42, 0
1, 138240, Note_on_c, 9, 42, 70
1, 138240, Note_on_c, 9, 35, 95
1, 138319, Note_on_c, 9, 42, 0
1, 138400, Note_on_c, 9, 42, 70
1, 138559, Note_on_c, 9, 42, 0
1, 138560, Note_on_c, 9, 42, 70
1, 138639, Note_on_c, 9, 42, 0
1, 138719, Note_on_c, 9, 35, 0
1, 138720, Note_on_c, 9, 38, 98
1, 138720, Note_on_c, 9, 39, 69
1, 138720, Note_on_c, 9, 42, 70
1, 138879, Note_on_c, 9, 38, 0
1, 138879, Note_on_c, 9, 39, 0
1, 138879, Note_on_c, 9, 42, 0
1, 138880, Note_on_c, 9, 42, 70
1, 138959, Note_on_c, 9, 42, 0
1, 139040, Note_on_c, 9, 39, 69
1, 139040, Note_on_c, 9, 42, 70
1, 139040, Note_on_c, 9, 35, 89
1, 139199, Note_on_c, 9, 39, 0
1, 139199, Note_on_c, 9, 42, 0
1, 139199, Note_on_c, 9, 35, 0
1, 139200, Note_on_c, 9, 42, 70
1, 139200, Note_on_c, 9, 35, 90
1, 139359, Note_on_c, 9, 42, 0
1, 139360, Note_on_c, 9, 42, 70
1, 139519, Note_on_c, 9, 42, 0
1, 139520, Note_on_c, 9, 42, 70
1, 139679, Note_on_c, 9, 35, 0
1, 139679, Note_on_c, 9, 42, 0
1, 139680, Note_on_c, 9, 38, 98
1, 139680, Note_on_c, 9, 39, 71
1, 139680, Note_on_c, 9, 42, 70
1, 139839, Note_on_c, 9, 38, 0
1, 139839, Note_on_c, 9, 39, 0
1, 139839, Note_on_c, 9, 42, 0
1, 139840, Note_on_c, 9, 42, 70
1, 139919, Note_on_c, 9, 42, 0
1, 140000, Note_on_c, 9, 42, 70
1, 140159, Note_on_c, 9, 42, 0
1, 140160, Note_on_c, 9, 42, 70
1, 140160, Note_on_c, 9, 35, 95
1, 140319, Note_on_c, 9, 42, 0
1, 140320, Note_on_c, 9, 42, 70
1, 140479, Note_on_c, 9, 42, 0
1, 140480, Note_on_c, 9, 42, 70
1, 140639, Note_on_c, 9, 35, 0
1, 140639, Note_on_c, 9, 42, 0
1, 140640, Note_on_c, 9, 38, 95
1, 140640, Note_on_c, 9, 39, 71
1, 140640, Note_on_c, 9, 42, 70
1, 140799, Note_on_c, 9, 38, 0
1, 140799, Note_on_c, 9, 39, 0
1, 140799, Note_on_c, 9, 42, 0
1, 140800, Note_on_c, 9, 42, 70
1, 140959, Note_on_c, 9, 42, 0
1, 140960, Note_on_c, 9, 39, 71
1, 140960, Note_on_c, 9, 42, 70
1, 140960, Note_on_c, 9, 35, 90
1, 141119, Note_on_c, 9, 39, 0
1, 141119, Note_on_c, 9, 42, 0
1, 141119, Note_on_c, 9, 35, 0
1, 141120, Note_on_c, 9, 42, 70
1, 141120, Note_on_c, 9, 35, 93
1, 141279, Note_on_c, 9, 42, 0
1, 141280, Note_on_c, 9, 42, 70
1, 141439, Note_on_c, 9, 42, 0
1, 141440, Note_on_c, 9, 42, 70
1, 141599, Note_on_c, 9, 35, 0
1, 141599, Note_on_c, 9, 42, 0
1, 141600, Note_on_c, 9, 38, 95
1, 141600, Note_on_c, 9, 39, 71
1, 141600, Note_on_c, 9, 42, 70
1, 141759, Note_on_c, 9, 38, 0
1, 141759, Note_on_c, 9, 39, 0
1, 141759, Note_on_c, 9, 42, 0
1, 141760, Note_on_c, 9, 42, 70
1, 141919, Note_on_c, 9, 42, 0
1, 141920, Note_on_c, 9, 42, 70
1, 141999, Note_on_c, 9, 42, 0
1, 142080, Note_on_c, 9, 42, 70
1, 142080, Note_on_c, 9, 35, 95
1, 142239, Note_on_c, 9, 42, 0
1, 142240, Note_on_c, 9, 42, 70
1, 142399, Note_on_c, 9, 42, 0
1, 142400, Note_on_c, 9, 42, 70
1, 142559, Note_on_c, 9, 35, 0
1, 142559, Note_on_c, 9, 42, 0
1, 142560, Note_on_c, 9, 38, 95
1, 142560, Note_on_c, 9, 39, 75
1, 142560, Note_on_c, 9, 42, 70
1, 142719, Note_on_c, 9, 38, 0
1, 142719, Note_on_c, 9, 39, 0
1, 142719, Note_on_c, 9, 42, 0
1, 142720, Note_on_c, 9, 42, 70
1, 142879, Note_on_c, 9, 42, 0
1, 142880, Note_on_c, 9, 39, 75
1, 142880, Note_on_c, 9, 42, 70
1, 142880, Note_on_c, 9, 35, 90
1, 143039, Note_on_c, 9, 39, 0
1, 143039, Note_on_c, 9, 42, 0
1, 143039, Note_on_c, 9, 35, 0
1, 143040, Note_on_c, 9, 42, 70
1, 143040, Note_on_c, 9, 35, 90
1, 143199, Note_on_c, 9, 42, 0
1, 143200, Note_on_c, 9, 42, 70
1, 143279, Note_on_c, 9, 42, 0
1, 143360, Note_on_c, 9, 42, 70
1, 143519, Note_on_c, 9, 35, 0
1, 143519, Note_on_c, 9, 42, 0
1, 143520, Note_on_c, 9, 38, 92
1, 143520, Note_on_c, 9, 39, 75
1, 143520, Note_on_c, 9, 42, 70
1, 143679, Note_on_c, 9, 38, 0
1, 143679, Note_on_c, 9, 39, 0
1, 143679, Note_on_c, 9, 42, 0
1, 143680, Note_on_c, 9, 42, 70
1, 143839, Note_on_c, 9, 42, 0
1, 143840, Note_on_c, 9, 42, 70
1, 143999, Note_on_c, 9, 42, 0
1, 144000, Note_on_c, 9, 42, 70
1, 144000, Note_on_c, 9, 35, 90
1, 144159, Note_on_c, 9, 42, 0
1, 144160, Note_on_c, 9, 42, 70
1, 144239, Note_on_c, 9, 42, 0
1, 144320, Note_on_c, 9, 42, 70
1, 144479, Note_on_c, 9, 35, 0
1, 144479, Note_on_c, 9, 42, 0
1, 144480, Note_on_c, 9, 38, 90
1, 144480, Note_on_c, 9, 39, 71
1, 144480, Note_on_c, 9, 42, 70
1, 144639, Note_on_c, 9, 38, 0
1, 144639, Note_on_c, 9, 39, 0
1, 144639, Note_on_c, 9, 42, 0
1, 144640, Note_on_c, 9, 42, 70
1, 144799, Note_on_c, 9, 42, 0
1, 144800, Note_on_c, 9, 39, 80
1, 144800, Note_on_c, 9, 42, 70
1, 144800, Note_on_c, 9, 35, 89
1, 144959, Note_on_c, 9, 39, 0
1, 144959, Note_on_c, 9, 42, 0
1, 144959, Note_on_c, 9, 35, 0
1, 144960, Note_on_c, 9, 42, 70
1, 144960, Note_on_c, 9, 35, 90
1, 145119, Note_on_c, 9, 42, 0
1, 145120, Note_on_c, 9, 42, 70
1, 145279, Note_on_c, 9, 42, 0
1, 145280, Note_on_c, 9, 42, 70
1, 145439, Note_on_c, 9, 35, 0
1, 145439, Note_on_c, 9, 42, 0
1, 145440, Note_on_c, 9, 38, 95
1, 145440, Note_on_c, 9, 39, 86
1, 145440, Note_on_c, 9, 42, 70
1, 145599, Note_on_c, 9, 38, 0
1, 145599, Note_on_c, 9, 39, 0
1, 145599, Note_on_c, 9, 42, 0
1, 145600, Note_on_c, 9, 42, 70
1, 145759, Note_on_c, 9, 42, 0
1, 145760, Note_on_c, 9, 42, 70
1, 145919, Note_on_c, 9, 42, 0
1, 145920, Note_on_c, 9, 42, 70
1, 145920, Note_on_c, 9, 35, 95
1, 146079, Note_on_c, 9, 42, 0
1, 146080, Note_on_c, 9, 42, 70
1, 146239, Note_on_c, 9, 42, 0
1, 146240, Note_on_c, 9, 42, 70
1, 146399, Note_on_c, 9, 35, 0
1, 146399, Note_on_c, 9, 42, 0
1, 146400, Note_on_c, 9, 38, 90
1, 146400, Note_on_c, 9, 39, 77
1, 146400, Note_on_c, 9, 42, 70
1, 146559, Note_on_c, 9, 38, 0
1, 146559, Note_on_c, 9, 39, 0
1, 146559, Note_on_c, 9, 42, 0
1, 146560, Note_on_c, 9, 42, 70
1, 146719, Note_on_c, 9, 42, 0
1, 146720, Note_on_c, 9, 39, 81
1, 146720, Note_on_c, 9, 42, 70
1, 146720, Note_on_c, 9, 35, 89
1, 146879, Note_on_c, 9, 39, 0
1, 146879, Note_on_c, 9, 42, 0
1, 146879, Note_on_c, 9, 35, 0
1, 146880, Note_on_c, 9, 42, 70
1, 146880, Note_on_c, 9, 35, 90
1, 147039, Note_on_c, 9, 42, 0
1, 147040, Note_on_c, 9, 42, 70
1, 147199, Note_on_c, 9, 42, 0
1, 147200, Note_on_c, 9, 42, 70
1, 147359, Note_on_c, 9, 35, 0
1, 147359, Note_on_c, 9, 42, 0
1, 147360, Note_on_c, 9, 38, 95
1, 147360, Note_on_c, 9, 39, 76
1, 147360, Note_on_c, 9, 42, 70
1, 147519, Note_on_c, 9, 38, 0
1, 147519, Note_on_c, 9, 39, 0
1, 147519, Note_on_c, 9, 42, 0
1, 147520, Note_on_c, 9, 42, 70
1, 147679, Note_on_c, 9, 42, 0
1, 147680, Note_on_c, 9, 42, 70
1, 147839, Note_on_c, 9, 42, 0
1, 147840, Note_on_c, 9, 42, 70
1, 147840, Note_on_c, 9, 35, 92
1, 147999, Note_on_c, 9, 42, 0
1, 148000, Note_on_c, 9, 42, 70
1, 148159, Note_on_c, 9, 42, 0
1, 148160, Note_on_c, 9, 42, 70
1, 148319, Note_on_c, 9, 35, 0
1, 148319, Note_on_c, 9, 42, 0
1, 148320, Note_on_c, 9, 38, 95
1, 148320, Note_on_c, 9, 39, 75
1, 148320, Note_on_c, 9, 42, 70
1, 148399, Note_on_c, 9, 38, 0
1, 148399, Note_on_c, 9, 39, 0
1, 148399, Note_on_c, 9, 42, 0
1, 148480, Note_on_c, 9, 42, 70
1, 148639, Note_on_c, 9, 42, 0
1, 148640, Note_on_c, 9, 39, 71
1, 148640, Note_on_c, 9, 42, 70
1, 148640, Note_on_c, 9, 35, 88
1, 148719, Note_on_c, 9, 39, 0
1, 148719, Note_on_c, 9, 42, 0
1, 148799, Note_on_c, 9, 35, 0
1, 148800, Note_on_c, 9, 42, 70
1, 148800, Note_on_c, 9, 35, 90
1, 148959, Note_on_c, 9, 42, 0
1, 148960, Note_on_c, 9, 42, 70
1, 149119, Note_on_c, 9, 42, 0
1, 149120, Note_on_c, 9, 42, 70
1, 149279, Note_on_c, 9, 35, 0
1, 149279, Note_on_c, 9, 42, 0
1, 149280, Note_on_c, 9, 38, 90
1, 149280, Note_on_c, 9, 39, 76
1, 149280, Note_on_c, 9, 42, 70
1, 149439, Note_on_c, 9, 38, 0
1, 149439, Note_on_c, 9, 39, 0
1, 149439, Note_on_c, 9, 42, 0
1, 149440, Note_on_c, 9, 42, 70
1, 149599, Note_on_c, 9, 42, 0
1, 149600, Note_on_c, 9, 42, 70
1, 149759, Note_on_c, 9, 42, 0
1, 149760, Note_on_c, 9, 42, 70
1, 149760, Note_on_c, 9, 35, 92
1, 149919, Note_on_c, 9, 42, 0
1, 149920, Note_on_c, 9, 42, 70
1, 150079, Note_on_c, 9, 42, 0
1, 150080, Note_on_c, 9, 42, 70
1, 150239, Note_on_c, 9, 35, 0
1, 150239, Note_on_c, 9, 42, 0
1, 150240, Note_on_c, 9, 38, 92
1, 150240, Note_on_c, 9, 39, 76
1, 150240, Note_on_c, 9, 42, 70
1, 150399, Note_on_c, 9, 38, 0
1, 150399, Note_on_c, 9, 39, 0
1, 150399, Note_on_c, 9, 42, 0
1, 150400, Note_on_c, 9, 42, 70
1, 150559, Note_on_c, 9, 42, 0
1, 150560, Note_on_c, 9, 39, 75
1, 150560, Note_on_c, 9, 42, 70
1, 150560, Note_on_c, 9, 35, 89
1, 150719, Note_on_c, 9, 39, 0
1, 150719, Note_on_c, 9, 42, 0
1, 150719, Note_on_c, 9, 35, 0
1, 150720, Note_on_c, 9, 42, 70
1, 150720, Note_on_c, 9, 35, 89
1, 150879, Note_on_c, 9, 42, 0
1, 150880, Note_on_c, 9, 42, 70
1, 151039, Note_on_c, 9, 42, 0
1, 151040, Note_on_c, 9, 42, 70
1, 151199, Note_on_c, 9, 35, 0
1, 151199, Note_on_c, 9, 42, 0
1, 151200, Note_on_c, 9, 38, 94
1, 151200, Note_on_c, 9, 39, 80
1, 151200, Note_on_c, 9, 42, 70
1, 151359, Note_on_c, 9, 38, 0
1, 151359, Note_on_c, 9, 39, 0
1, 151359, Note_on_c, 9, 42, 0
1, 151360, Note_on_c, 9, 42, 70
1, 151519, Note_on_c, 9, 42, 0
1, 151520, Note_on_c, 9, 42, 70
1, 151679, Note_on_c, 9, 42, 0
1, 151680, Note_on_c, 9, 42, 70
1, 151680, Note_on_c, 9, 35, 95
1, 151839, Note_on_c, 9, 42, 0
1, 151840, Note_on_c, 9, 42, 70
1, 151999, Note_on_c, 9, 42, 0
1, 152000, Note_on_c, 9, 42, 70
1, 152159, Note_on_c, 9, 35, 0
1, 152159, Note_on_c, 9, 42, 0
1, 152160, Note_on_c, 9, 38, 95
1, 152160, Note_on_c, 9, 39, 81
1, 152160, Note_on_c, 9, 42, 70
1, 152319, Note_on_c, 9, 38, 0
1, 152319, Note_on_c, 9, 39, 0
1, 152319, Note_on_c, 9, 42, 0
1, 152320, Note_on_c, 9, 42, 70
1, 152479, Note_on_c, 9, 42, 0
1, 152480, Note_on_c, 9, 39, 71
1, 152480, Note_on_c, 9, 42, 70
1, 152480, Note_on_c, 9, 35, 89
1, 152639, Note_on_c, 9, 39, 0
1, 152639, Note_on_c, 9, 42, 0
1, 152639, Note_on_c, 9, 35, 0
1, 152640, Note_on_c, 9, 42, 70
1, 152640, Note_on_c, 9, 35, 90
1, 152799, Note_on_c, 9, 42, 0
1, 152800, Note_on_c, 9, 42, 70
1, 152959, Note_on_c, 9, 42, 0
1, 152960, Note_on_c, 9, 42, 70
1, 153119, Note_on_c, 9, 35, 0
1, 153119, Note_on_c, 9, 42, 0
1, 153120, Note_on_c, 9, 38, 95
1, 153120, Note_on_c, 9, 39, 80
1, 153120, Note_on_c, 9, 42, 70
1, 153279, Note_on_c, 9, 38, 0
1, 153279, Note_on_c, 9, 39, 0
1, 153279, Note_on_c, 9, 42, 0
1, 153280, Note_on_c, 9, 42, 70
1, 153439, Note_on_c, 9, 42, 0
1, 153440, Note_on_c, 9, 42, 70
1, 153599, Note_on_c, 9, 42, 0
1, 153600, Note_on_c, 9, 42, 70
1, 153600, Note_on_c, 9, 35, 95
1, 153759, Note_on_c, 9, 42, 0
1, 153760, Note_on_c, 9, 42, 70
1, 153919, Note_on_c, 9, 42, 0
1, 153920, Note_on_c, 9, 42, 70
1, 154079, Note_on_c, 9, 35, 0
1, 154079, Note_on_c, 9, 42, 0
1, 154080, Note_on_c, 9, 38, 95
1, 154080, Note_on_c, 9, 39, 75
1, 154080, Note_on_c, 9, 42, 70
1, 154239, Note_on_c, 9, 38, 0
1, 154239, Note_on_c, 9, 39, 0
1, 154239, Note_on_c, 9, 42, 0
1, 154240, Note_on_c, 9, 42, 70
1, 154399, Note_on_c, 9, 42, 0
1, 154400, Note_on_c, 9, 39, 75
1, 154400, Note_on_c, 9, 42, 70
1, 154400, Note_on_c, 9, 35, 85
1, 154559, Note_on_c, 9, 39, 0
1, 154559, Note_on_c, 9, 42, 0
1, 154559, Note_on_c, 9, 35, 0
1, 154560, Note_on_c, 9, 42, 70
1, 154560, Note_on_c, 9, 35, 93
1, 154719, Note_on_c, 9, 42, 0
1, 154720, Note_on_c, 9, 42, 70
1, 154879, Note_on_c, 9, 42, 0
1, 154880, Note_on_c, 9, 42, 70
1, 155039, Note_on_c, 9, 35, 0
1, 155039, Note_on_c, 9, 42, 0
1, 155040, Note_on_c, 9, 38, 94
1, 155040, Note_on_c, 9, 39, 86
1, 155040, Note_on_c, 9, 42, 70
1, 155199, Note_on_c, 9, 38, 0
1, 155199, Note_on_c, 9, 39, 0
1, 155199, Note_on_c, 9, 42, 0
1, 155200, Note_on_c, 9, 42, 70
1, 155359, Note_on_c, 9, 42, 0
1, 155360, Note_on_c, 9, 42, 70
1, 155519, Note_on_c, 9, 42, 0
1, 155520, Note_on_c, 9, 57, 77
1, 155520, Note_on_c, 9, 35, 93
1, 155999, Note_on_c, 9, 57, 0
1, 155999, Note_on_c, 9, 35, 0
1, 156000, Note_on_c, 9, 49, 77
1, 156000, Note_on_c, 9, 35, 95
1, 156479, Note_on_c, 9, 49, 0
1, 156479, Note_on_c, 9, 35, 0
1, 156480, Note_on_c, 9, 57, 77
1, 156480, Note_on_c, 9, 35, 97
1, 156959, Note_on_c, 9, 57, 0
1, 156959, Note_on_c, 9, 35, 0
1, 157440, Note_on_c, 9, 42, 70
1, 157440, Note_on_c, 9, 35, 95
1, 157599, Note_on_c, 9, 42, 0
1, 157600, Note_on_c, 9, 42, 70
1, 157759, Note_on_c, 9, 42, 0
1, 157760, Note_on_c, 9, 42, 70
1, 157919, Note_on_c, 9, 35, 0
1, 157919, Note_on_c, 9, 42, 0
1, 157920, Note_on_c, 9, 38, 95
1, 157920, Note_on_c, 9, 39, 76
1, 157920, Note_on_c, 9, 42, 70
1, 157999, Note_on_c, 9, 38, 0
1, 157999, Note_on_c, 9, 39, 0
1, 157999, Note_on_c, 9, 42, 0
1, 158080, Note_on_c, 9, 42, 70
1, 158239, Note_on_c, 9, 42, 0
1, 158240, Note_on_c, 9, 39, 75
1, 158240, Note_on_c, 9, 42, 70
1, 158240, Note_on_c, 9, 35, 87
1, 158399, Note_on_c, 9, 39, 0
1, 158399, Note_on_c, 9, 42, 0
1, 158399, Note_on_c, 9, 35, 0
1, 158400, Note_on_c, 9, 42, 70
1, 158400, Note_on_c, 9, 35, 89
1, 158559, Note_on_c, 9, 42, 0
1, 158560, Note_on_c, 9, 42, 70
1, 158719, Note_on_c, 9, 42, 0
1, 158720, Note_on_c, 9, 42, 70
1, 158879, Note_on_c, 9, 35, 0
1, 158879, Note_on_c, 9, 42, 0
1, 158880, Note_on_c, 9, 38, 95
1, 158880, Note_on_c, 9, 39, 81
1, 158880, Note_on_c, 9, 42, 70
1, 159039, Note_on_c, 9, 38, 0
1, 159039, Note_on_c, 9, 39, 0
1, 159039, Note_on_c, 9, 42, 0
1, 159040, Note_on_c, 9, 42, 70
1, 159199, Note_on_c, 9, 42, 0
1, 159200, Note_on_c, 9, 42, 70
1, 159359, Note_on_c, 9, 42, 0
1, 159360, Note_on_c, 9, 42, 70
1, 159360, Note_on_c, 9, 35, 95
1, 159519, Note_on_c, 9, 42, 0
1, 159520, Note_on_c, 9, 42, 70
1, 159679, Note_on_c, 9, 42, 0
1, 159680, Note_on_c, 9, 42, 70
1, 159839, Note_on_c, 9, 35, 0
1, 159839, Note_on_c, 9, 42, 0
1, 159840, Note_on_c, 9, 38, 95
1, 159840, Note_on_c, 9, 39, 80
1, 159840, Note_on_c, 9, 42, 70
1, 159999, Note_on_c, 9, 38, 0
1, 159999, Note_on_c, 9, 39, 0
1, 159999, Note_on_c, 9, 42, 0
1, 160000, Note_on_c, 9, 42, 70
1, 160159, Note_on_c, 9, 42, 0
1, 160160, Note_on_c, 9, 39, 81
1, 160160, Note_on_c, 9, 42, 70
1, 160160, Note_on_c, 9, 35, 90
1, 160239, Note_on_c, 9, 39, 0
1, 160239, Note_on_c, 9, 42, 0
1, 160319, Note_on_c, 9, 35, 0
1, 160320, Note_on_c, 9, 42, 70
1, 160320, Note_on_c, 9, 35, 95
1, 160479, Note_on_c, 9, 42, 0
1, 160480, Note_on_c, 9, 42, 70
1, 160639, Note_on_c, 9, 42, 0
1, 160640, Note_on_c, 9, 42, 70
1, 160799, Note_on_c, 9, 35, 0
1, 160799, Note_on_c, 9, 42, 0
1, 160800, Note_on_c, 9, 38, 95
1, 160800, Note_on_c, 9, 39, 81
1, 160800, Note_on_c, 9, 42, 70
1, 160959, Note_on_c, 9, 38, 0
1, 160959, Note_on_c, 9, 39, 0
1, 160959, Note_on_c, 9, 42, 0
1, 160960, Note_on_c, 9, 42, 70
1, 161119, Note_on_c, 9, 42, 0
1, 161120, Note_on_c, 9, 42, 70
1, 161279, Note_on_c, 9, 42, 0
1, 161280, Note_on_c, 9, 42, 70
1, 161280, Note_on_c, 9, 57, 77
1, 161280, Note_on_c, 9, 35, 95
1, 161439, Note_on_c, 9, 42, 0
1, 161439, Note_on_c, 9, 57, 0
1, 161440, Note_on_c, 9, 42, 70
1, 161599, Note_on_c, 9, 42, 0
1, 161600, Note_on_c, 9, 42, 70
1, 161759, Note_on_c, 9, 35, 0
1, 161759, Note_on_c, 9, 42, 0
1, 161760, Note_on_c, 9, 38, 95
1, 161760, Note_on_c, 9, 39, 76
1, 161760, Note_on_c, 9, 42, 70
1, 161839, Note_on_c, 9, 38, 0
1, 161839, Note_on_c, 9, 39, 0
1, 161839, Note_on_c, 9, 42, 0
1, 161920, Note_on_c, 9, 42, 70
1, 162079, Note_on_c, 9, 42, 0
1, 162080, Note_on_c, 9, 39, 75
1, 162080, Note_on_c, 9, 42, 70
1, 162080, Note_on_c, 9, 35, 93
1, 162239, Note_on_c, 9, 39, 0
1, 162239, Note_on_c, 9, 42, 0
1, 162239, Note_on_c, 9, 35, 0
1, 162240, Note_on_c, 9, 42, 70
1, 162240, Note_on_c, 9, 35, 90
1, 162399, Note_on_c, 9, 42, 0
1, 162400, Note_on_c, 9, 42, 70
1, 162559, Note_on_c, 9, 42, 0
1, 162560, Note_on_c, 9, 42, 70
1, 162719, Note_on_c, 9, 35, 0
1, 162719, Note_on_c, 9, 42, 0
1, 162720, Note_on_c, 9, 38, 95
1, 162720, Note_on_c, 9, 39, 81
1, 162720, Note_on_c, 9, 42, 70
1, 162879, Note_on_c, 9, 38, 0
1, 162879, Note_on_c, 9, 39, 0
1, 162879, Note_on_c, 9, 42, 0
1, 162880, Note_on_c, 9, 42, 70
1, 163039, Note_on_c, 9, 42, 0
1, 163040, Note_on_c, 9, 42, 70
1, 163199, Note_on_c, 9, 42, 0
1, 163200, Note_on_c, 9, 42, 70
1, 163200, Note_on_c, 9, 35, 92
1, 163359, Note_on_c, 9, 42, 0
1, 163360, Note_on_c, 9, 42, 70
1, 163519, Note_on_c, 9, 42, 0
1, 163520, Note_on_c, 9, 42, 70
1, 163679, Note_on_c, 9, 35, 0
1, 163679, Note_on_c, 9, 42, 0
1, 163680, Note_on_c, 9, 38, 95
1, 163680, Note_on_c, 9, 39, 76
1, 163680, Note_on_c, 9, 42, 70
1, 163839, Note_on_c, 9, 38, 0
1, 163839, Note_on_c, 9, 39, 0
1, 163839, Note_on_c, 9, 42, 0
1, 163840, Note_on_c, 9, 42, 70
1, 163999, Note_on_c, 9, 42, 0
1, 164000, Note_on_c, 9, 39, 75
1, 164000, Note_on_c, 9, 42, 70
1, 164000, Note_on_c, 9, 35, 90
1, 164079, Note_on_c, 9, 39, 0
1, 164079, Note_on_c, 9, 42, 0
1, 164159, Note_on_c, 9, 35, 0
1, 164160, Note_on_c, 9, 42, 70
1, 164160, Note_on_c, 9, 35, 95
1, 164319, Note_on_c, 9, 42, 0
1, 164320, Note_on_c, 9, 42, 70
1, 164479, Note_on_c, 9, 42, 0
1, 164480, Note_on_c, 9, 42, 70
1, 164639, Note_on_c, 9, 35, 0
1, 164639, Note_on_c, 9, 42, 0
1, 164640, Note_on_c, 9, 38, 95
1, 164640, Note_on_c, 9, 39, 81
1, 164640, Note_on_c, 9, 42, 70
1, 164799, Note_on_c, 9, 38, 0
1, 164799, Note_on_c, 9, 39, 0
1, 164799, Note_on_c, 9, 42, 0
1, 164800, Note_on_c, 9, 42, 70
1, 164959, Note_on_c, 9, 42, 0
1, 164960, Note_on_c, 9, 42, 70
1, 165119, Note_on_c, 9, 42, 0
1, 165120, Note_on_c, 9, 42, 70
1, 165120, Note_on_c, 9, 35, 93
1, 165279, Note_on_c, 9, 42, 0
1, 165280, Note_on_c, 9, 42, 70
1, 165439, Note_on_c, 9, 42, 0
1, 165440, Note_on_c, 9, 42, 70
1, 165599, Note_on_c, 9, 35, 0
1, 165599, Note_on_c, 9, 42, 0
1, 165600, Note_on_c, 9, 38, 95
1, 165600, Note_on_c, 9, 39, 75
1, 165600, Note_on_c, 9, 42, 70
1, 165679, Note_on_c, 9, 38, 0
1, 165679, Note_on_c, 9, 39, 0
1, 165679, Note_on_c, 9, 42, 0
1, 165760, Note_on_c, 9, 42, 70
1, 165919, Note_on_c, 9, 42, 0
1, 165920, Note_on_c, 9, 39, 75
1, 165920, Note_on_c, 9, 42, 70
1, 165920, Note_on_c, 9, 35, 90
1, 165999, Note_on_c, 9, 39, 0
1, 165999, Note_on_c, 9, 42, 0
1, 166079, Note_on_c, 9, 35, 0
1, 166080, Note_on_c, 9, 42, 70
1, 166080, Note_on_c, 9, 35, 90
1, 166239, Note_on_c, 9, 42, 0
1, 166240, Note_on_c, 9, 42, 70
1, 166399, Note_on_c, 9, 42, 0
1, 166400, Note_on_c, 9, 42, 70
1, 166559, Note_on_c, 9, 35, 0
1, 166559, Note_on_c, 9, 42, 0
1, 166560, Note_on_c, 9, 38, 93
1, 166560, Note_on_c, 9, 39, 85
1, 166560, Note_on_c, 9, 42, 70
1, 166719, Note_on_c, 9, 38, 0
1, 166719, Note_on_c, 9, 39, 0
1, 166719, Note_on_c, 9, 42, 0
1, 166720, Note_on_c, 9, 42, 70
1, 166879, Note_on_c, 9, 42, 0
1, 166880, Note_on_c, 9, 42, 70
1, 167039, Note_on_c, 9, 42, 0
1, 167040, Note_on_c, 9, 42, 70
1, 167040, Note_on_c, 9, 35, 92
1, 167199, Note_on_c, 9, 42, 0
1, 167200, Note_on_c, 9, 42, 70
1, 167359, Note_on_c, 9, 42, 0
1, 167360, Note_on_c, 9, 42, 70
1, 167519, Note_on_c, 9, 35, 0
1, 167519, Note_on_c, 9, 42, 0
1, 167520, Note_on_c, 9, 38, 95
1, 167520, Note_on_c, 9, 39, 81
1, 167520, Note_on_c, 9, 42, 70
1, 167679, Note_on_c, 9, 38, 0
1, 167679, Note_on_c, 9, 39, 0
1, 167679, Note_on_c, 9, 42, 0
1, 167680, Note_on_c, 9, 42, 70
1, 167839, Note_on_c, 9, 42, 0
1, 167840, Note_on_c, 9, 39, 81
1, 167840, Note_on_c, 9, 42, 70
1, 167840, Note_on_c, 9, 35, 90
1, 167999, Note_on_c, 9, 39, 0
1, 167999, Note_on_c, 9, 42, 0
1, 167999, Note_on_c, 9, 35, 0
1, 168000, Note_on_c, 9, 42, 70
1, 168000, Note_on_c, 9, 35, 89
1, 168159, Note_on_c, 9, 42, 0
1, 168160, Note_on_c, 9, 42, 70
1, 168319, Note_on_c, 9, 42, 0
1, 168320, Note_on_c, 9, 42, 70
1, 168479, Note_on_c, 9, 35, 0
1, 168479, Note_on_c, 9, 42, 0
1, 168480, Note_on_c, 9, 38, 90
1, 168480, Note_on_c, 9, 39, 75
1, 168480, Note_on_c, 9, 42, 70
1, 168639, Note_on_c, 9, 38, 0
1, 168639, Note_on_c, 9, 39, 0
1, 168639, Note_on_c, 9, 42, 0
1, 168640, Note_on_c, 9, 42, 70
1, 168799, Note_on_c, 9, 42, 0
1, 168800, Note_on_c, 9, 42, 70
1, 168959, Note_on_c, 9, 42, 0
1, 168960, Note_on_c, 9, 42, 70
1, 168960, Note_on_c, 9, 57, 77
1, 168960, Note_on_c, 9, 35, 93
1, 169119, Note_on_c, 9, 42, 0
1, 169119, Note_on_c, 9, 57, 0
1, 169120, Note_on_c, 9, 42, 70
1, 169279, Note_on_c, 9, 42, 0
1, 169280, Note_on_c, 9, 42, 70
1, 169439, Note_on_c, 9, 35, 0
1, 169439, Note_on_c, 9, 42, 0
1, 169440, Note_on_c, 9, 38, 95
1, 169440, Note_on_c, 9, 39, 81
1, 169440, Note_on_c, 9, 42, 70
1, 169519, Note_on_c, 9, 38, 0
1, 169519, Note_on_c, 9, 39, 0
1, 169519, Note_on_c, 9, 42, 0
1, 169600, Note_on_c, 9, 42, 70
1, 169759, Note_on_c, 9, 42, 0
1, 169760, Note_on_c, 9, 39, 76
1, 169760, Note_on_c, 9, 42, 70
1, 169760, Note_on_c, 9, 35, 93
1, 169919, Note_on_c, 9, 39, 0
1, 169919, Note_on_c, 9, 42, 0
1, 169919, Note_on_c, 9, 35, 0
1, 169920, Note_on_c, 9, 42, 70
1, 169920, Note_on_c, 9, 35, 90
1, 170079, Note_on_c, 9, 42, 0
1, 170080, Note_on_c, 9, 42, 70
1, 170239, Note_on_c, 9, 42, 0
1, 170240, Note_on_c, 9, 42, 70
1, 170399, Note_on_c, 9, 35, 0
1, 170399, Note_on_c, 9, 42, 0
1, 170400, Note_on_c, 9, 38, 94
1, 170400, Note_on_c, 9, 39, 80
1, 170400, Note_on_c, 9, 42, 70
1, 170559, Note_on_c, 9, 38, 0
1, 170559, Note_on_c, 9, 39, 0
1, 170559, Note_on_c, 9, 42, 0
1, 170560, Note_on_c, 9, 42, 70
1, 170719, Note_on_c, 9, 42, 0
1, 170720, Note_on_c, 9, 42, 70
1, 170879, Note_on_c, 9, 42, 0
1, 170880, Note_on_c, 9, 42, 70
1, 170880, Note_on_c, 9, 35, 92
1, 171039, Note_on_c, 9, 42, 0
1, 171040, Note_on_c, 9, 42, 70
1, 171199, Note_on_c, 9, 42, 0
1, 171200, Note_on_c, 9, 42, 70
1, 171359, Note_on_c, 9, 35, 0
1, 171359, Note_on_c, 9, 42, 0
1, 171360, Note_on_c, 9, 38, 90
1, 171360, Note_on_c, 9, 39, 75
1, 171360, Note_on_c, 9, 42, 70
1, 171519, Note_on_c, 9, 38, 0
1, 171519, Note_on_c, 9, 39, 0
1, 171519, Note_on_c, 9, 42, 0
1, 171520, Note_on_c, 9, 42, 70
1, 171679, Note_on_c, 9, 42, 0
1, 171680, Note_on_c, 9, 39, 81
1, 171680, Note_on_c, 9, 42, 70
1, 171680, Note_on_c, 9, 35, 90
1, 171839, Note_on_c, 9, 39, 0
1, 171839, Note_on_c, 9, 42, 0
1, 171839, Note_on_c, 9, 35, 0
1, 171840, Note_on_c, 9, 42, 70
1, 171840, Note_on_c, 9, 35, 90
1, 171999, Note_on_c, 9, 42, 0
1, 172000, Note_on_c, 9, 42, 70
1, 172159, Note_on_c, 9, 42, 0
1, 172160, Note_on_c, 9, 42, 70
1, 172319, Note_on_c, 9, 35, 0
1, 172319, Note_on_c, 9, 42, 0
1, 172320, Note_on_c, 9, 38, 95
1, 172320, Note_on_c, 9, 39, 76
1, 172320, Note_on_c, 9, 42, 70
1, 172479, Note_on_c, 9, 38, 0
1, 172479, Note_on_c, 9, 39, 0
1, 172479, Note_on_c, 9, 42, 0
1, 172480, Note_on_c, 9, 42, 70
1, 172639, Note_on_c, 9, 42, 0
1, 172640, Note_on_c, 9, 42, 70
1, 172799, Note_on_c, 9, 42, 0
1, 172800, Note_on_c, 9, 57, 77
1, 172800, Note_on_c, 9, 35, 95
1, 173279, Note_on_c, 9, 57, 0
1, 173279, Note_on_c, 9, 35, 0
1, 173280, Note_on_c, 9, 38, 97
1, 173280, Note_on_c, 9, 46, 74
1, 173759, Note_on_c, 9, 38, 0
1, 173759, Note_on_c, 9, 46, 0
1, 173760, Note_on_c, 9, 49, 77
1, 173760, Note_on_c, 9, 35, 91
1, 174239, Note_on_c, 9, 49, 0
1, 174239, Note_on_c, 9, 35, 0
1, 174240, Note_on_c, 9, 38, 95
1, 174240, Note_on_c, 9, 46, 73
1, 174719, Note_on_c, 9, 38, 0
1, 174719, Note_on_c, 9, 46, 0
1, 174720, Note_on_c, 9, 50, 74
1, 174720, Note_on_c, 9, 57, 77
1, 174720, Note_on_c, 9, 35, 95
1, 174959, Note_on_c, 9, 35, 0
1, 175039, Note_on_c, 9, 50, 0
1, 175039, Note_on_c, 9, 57, 0
1, 175040, Note_on_c, 9, 47, 68
1, 175040, Note_on_c, 9, 35, 95
1, 175199, Note_on_c, 9, 47, 0
1, 175199, Note_on_c, 9, 35, 0
1, 175200, Note_on_c, 9, 38, 95
1, 175200, Note_on_c, 9, 43, 77
1, 175519, Note_on_c, 9, 38, 0
1, 175519, Note_on_c, 9, 43, 0
1, 175520, Note_on_c, 9, 57, 95
1, 175520, Note_on_c, 9, 35, 95
1, 175679, Note_on_c, 9, 57, 0
1, 175679, Note_on_c, 9, 35, 0
1, 178710, Note_on_c, 9, 50, 86
1, 178799, Note_on_c, 9, 50, 0
1, 178860, Note_on_c, 9, 50, 75
1, 178979, Note_on_c, 9, 50, 0
1, 178980, Note_on_c, 9, 50, 86
1, 179039, Note_on_c, 9, 50, 0
1, 179160, Note_on_c, 9, 47, 85
1, 179279, Note_on_c, 9, 47, 0
1, 179340, Note_on_c, 9, 47, 75
1, 179519, Note_on_c, 9, 47, 0
1, 179580, Note_on_c, 9, 47, 86
1, 179759, Note_on_c, 9, 47, 0
1, 179760, Note_on_c, 9, 43, 86
1, 179999, Note_on_c, 9, 43, 0
1, 180000, Note_on_c, 9, 43, 87
1, 180239, Note_on_c, 9, 43, 0
1, 180240, Note_on_c, 9, 43, 83
1, 180479, Note_on_c, 9, 43, 0
1, 180540, Note_on_c, 9, 43, 85
1, 180719, Note_on_c, 9, 43, 0
1, 180880, Note_on_c, 9, 43, 86
1, 180959, Note_on_c, 9, 43, 0
1, 181260, Note_on_c, 9, 49, 97
1, 181280, Note_on_c, 9, 36, 86
1, 181439, Note_on_c, 9, 49, 0
1, 181439, Note_on_c, 9, 36, 0
1, 181500, Note_on_c, 9, 46, 53
1, 181619, Note_on_c, 9, 46, 0
1, 181650, Note_on_c, 9, 46, 16
1, 181679, Note_on_c, 9, 46, 0
1, 181680, Note_on_c, 9, 46, 37
1, 181799, Note_on_c, 9, 46, 0
1, 181800, Note_on_c, 9, 46, 49
1, 181859, Note_on_c, 9, 46, 0
1, 181860, Note_on_c, 9, 46, 40
1, 181919, Note_on_c, 9, 46, 0
1, 181965, Note_on_c, 9, 46, 48
1, 182039, Note_on_c, 9, 46, 0
1, 182040, Note_on_c, 9, 46, 49
1, 182129, Note_on_c, 9, 46, 0
1, 182145, Note_on_c, 9, 46, 54
1, 182219, Note_on_c, 9, 46, 0
1, 182220, Note_on_c, 9, 46, 49
1, 182279, Note_on_c, 9, 46, 0
1, 182310, Note_on_c, 9, 46, 49
1, 182399, Note_on_c, 9, 46, 0
1, 182400, Note_on_c, 9, 46, 49
1, 182489, Note_on_c, 9, 46, 0
1, 182490, Note_on_c, 9, 46, 49
1, 182579, Note_on_c, 9, 46, 0
1, 182580, Note_on_c, 9, 46, 57
1, 182639, Note_on_c, 9, 46, 0
1, 182670, Note_on_c, 9, 46, 54
1, 182759, Note_on_c, 9, 46, 0
1, 182760, Note_on_c, 9, 46, 61
1, 182849, Note_on_c, 9, 46, 0
1, 182850, Note_on_c, 9, 46, 53
1, 182909, Note_on_c, 9, 46, 0
1, 182940, Note_on_c, 9, 46, 57
1, 183044, Note_on_c, 9, 46, 0
1, 183045, Note_on_c, 9, 46, 49
1, 183119, Note_on_c, 9, 46, 0
1, 183120, Note_on_c, 9, 46, 53
1, 183209, Note_on_c, 9, 46, 0
1, 183210, Note_on_c, 9, 46, 57
1, 183239, Note_on_c, 9, 46, 0
1, 183280, Note_on_c, 9, 46, 54
1, 183359, Note_on_c, 9, 46, 0
1, 183390, Note_on_c, 9, 46, 62
1, 183449, Note_on_c, 9, 46, 0
1, 183450, Note_on_c, 9, 46, 66
1, 183839, Note_on_c, 9, 46, 0
1, 185760, Note_on_c, 9, 35, 98
1, 186239, Note_on_c, 9, 35, 0
1, 186240, Note_on_c, 9, 35, 98
1, 186719, Note_on_c, 9, 35, 0
1, 186720, Note_on_c, 9, 35, 101
1, 187199, Note_on_c, 9, 35, 0
1, 187200, Note_on_c, 9, 35, 99
1, 187679, Note_on_c, 9, 35, 0
1, 187680, Note_on_c, 9, 42, 70
1, 187680, Note_on_c, 9, 57, 77
1, 187680, Note_on_c, 9, 35, 95
1, 187839, Note_on_c, 9, 42, 0
1, 187839, Note_on_c, 9, 57, 0
1, 187840, Note_on_c, 9, 42, 70
1, 187999, Note_on_c, 9, 42, 0
1, 188000, Note_on_c, 9, 42, 70
1, 188159, Note_on_c, 9, 35, 0
1, 188159, Note_on_c, 9, 42, 0
1, 188160, Note_on_c, 9, 38, 95
1, 188160, Note_on_c, 9, 39, 76
1, 188160, Note_on_c, 9, 42, 70
1, 188239, Note_on_c, 9, 38, 0
1, 188239, Note_on_c, 9, 39, 0
1, 188239, Note_on_c, 9, 42, 0
1, 188320, Note_on_c, 9, 42, 70
1, 188479, Note_on_c, 9, 42, 0
1, 188480, Note_on_c, 9, 39, 75
1, 188480, Note_on_c, 9, 42, 70
1, 188480, Note_on_c, 9, 35, 93
1, 188639, Note_on_c, 9, 39, 0
1, 188639, Note_on_c, 9, 42, 0
1, 188639, Note_on_c, 9, 35, 0
1, 188640, Note_on_c, 9, 42, 70
1, 188640, Note_on_c, 9, 35, 90
1, 188799, Note_on_c, 9, 42, 0
1, 188800, Note_on_c, 9, 42, 70
1, 188959, Note_on_c, 9, 42, 0
1, 188960, Note_on_c, 9, 42, 70
1, 189119, Note_on_c, 9, 35, 0
1, 189119, Note_on_c, 9, 42, 0
1, 189120, Note_on_c, 9, 38, 95
1, 189120, Note_on_c, 9, 39, 81
1, 189120, Note_on_c, 9, 42, 70
1, 189279, Note_on_c, 9, 38, 0
1, 189279, Note_on_c, 9, 39, 0
1, 189279, Note_on_c, 9, 42, 0
1, 189280, Note_on_c, 9, 42, 70
1, 189439, Note_on_c, 9, 42, 0
1, 189440, Note_on_c, 9, 42, 70
1, 189599, Note_on_c, 9, 42, 0
1, 189600, Note_on_c, 9, 42, 70
1, 189600, Note_on_c, 9, 35, 92
1, 189759, Note_on_c, 9, 42, 0
1, 189760, Note_on_c, 9, 42, 70
1, 189919, Note_on_c, 9, 42, 0
1, 189920, Note_on_c, 9, 42, 70
1, 190079, Note_on_c, 9, 35, 0
1, 190079, Note_on_c, 9, 42, 0
1, 190080, Note_on_c, 9, 38, 95
1, 190080, Note_on_c, 9, 39, 76
1, 190080, Note_on_c, 9, 42, 70
1, 190239, Note_on_c, 9, 38, 0
1, 190239, Note_on_c, 9, 39, 0
1, 190239, Note_on_c, 9, 42, 0
1, 190240, Note_on_c, 9, 42, 70
1, 190399, Note_on_c, 9, 42, 0
1, 190400, Note_on_c, 9, 39, 75
1, 190400, Note_on_c, 9, 42, 70
1, 190400, Note_on_c, 9, 35, 90
1, 190479, Note_on_c, 9, 39, 0
1, 190479, Note_on_c, 9, 42, 0
1, 190559, Note_on_c, 9, 35, 0
1, 190560, Note_on_c, 9, 42, 70
1, 190560, Note_on_c, 9, 35, 95
1, 190719, Note_on_c, 9, 42, 0
1, 190720, Note_on_c, 9, 42, 70
1, 190879, Note_on_c, 9, 42, 0
1, 190880, Note_on_c, 9, 42, 70
1, 191039, Note_on_c, 9, 35, 0
1, 191039, Note_on_c, 9, 42, 0
1, 191040, Note_on_c, 9, 38, 95
1, 191040, Note_on_c, 9, 39, 81
1, 191040, Note_on_c, 9, 42, 70
1, 191199, Note_on_c, 9, 38, 0
1, 191199, Note_on_c, 9, 39, 0
1, 191199, Note_on_c, 9, 42, 0
1, 191200, Note_on_c, 9, 42, 70
1, 191359, Note_on_c, 9, 42, 0
1, 191360, Note_on_c, 9, 42, 70
1, 191519, Note_on_c, 9, 42, 0
1, 191520, Note_on_c, 9, 42, 70
1, 191520, Note_on_c, 9, 35, 93
1, 191679, Note_on_c, 9, 42, 0
1, 191680, Note_on_c, 9, 42, 70
1, 191839, Note_on_c, 9, 42, 0
1, 191840, Note_on_c, 9, 42, 70
1, 191999, Note_on_c, 9, 35, 0
1, 191999, Note_on_c, 9, 42, 0
1, 192000, Note_on_c, 9, 38, 95
1, 192000, Note_on_c, 9, 39, 75
1, 192000, Note_on_c, 9, 42, 70
1, 192079, Note_on_c, 9, 38, 0
1, 192079, Note_on_c, 9, 39, 0
1, 192079, Note_on_c, 9, 42, 0
1, 192160, Note_on_c, 9, 42, 70
1, 192319, Note_on_c, 9, 42, 0
1, 192320, Note_on_c, 9, 39, 75
1, 192320, Note_on_c, 9, 42, 70
1, 192320, Note_on_c, 9, 35, 90
1, 192399, Note_on_c, 9, 39, 0
1, 192399, Note_on_c, 9, 42, 0
1, 192479, Note_on_c, 9, 35, 0
1, 192480, Note_on_c, 9, 42, 70
1, 192480, Note_on_c, 9, 35, 90
1, 192639, Note_on_c, 9, 42, 0
1, 192640, Note_on_c, 9, 42, 70
1, 192799, Note_on_c, 9, 42, 0
1, 192800, Note_on_c, 9, 42, 70
1, 192959, Note_on_c, 9, 35, 0
1, 192959, Note_on_c, 9, 42, 0
1, 192960, Note_on_c, 9, 38, 93
1, 192960, Note_on_c, 9, 39, 85
1, 192960, Note_on_c, 9, 42, 70
1, 193119, Note_on_c, 9, 38, 0
1, 193119, Note_on_c, 9, 39, 0
1, 193119, Note_on_c, 9, 42, 0
1, 193120, Note_on_c, 9, 42, 70
1, 193279, Note_on_c, 9, 42, 0
1, 193280, Note_on_c, 9, 42, 70
1, 193439, Note_on_c, 9, 42, 0
1, 193440, Note_on_c, 9, 42, 70
1, 193440, Note_on_c, 9, 35, 92
1, 193599, Note_on_c, 9, 42, 0
1, 193600, Note_on_c, 9, 42, 70
1, 193759, Note_on_c, 9, 42, 0
1, 193760, Note_on_c, 9, 42, 70
1, 193919, Note_on_c, 9, 35, 0
1, 193919, Note_on_c, 9, 42, 0
1, 193920, Note_on_c, 9, 38, 95
1, 193920, Note_on_c, 9, 39, 81
1, 193920, Note_on_c, 9, 42, 70
1, 194079, Note_on_c, 9, 38, 0
1, 194079, Note_on_c, 9, 39, 0
1, 194079, Note_on_c, 9, 42, 0
1, 194080, Note_on_c, 9, 42, 70
1, 194239, Note_on_c, 9, 42, 0
1, 194240, Note_on_c, 9, 39, 81
1, 194240, Note_on_c, 9, 42, 70
1, 194240, Note_on_c, 9, 35, 90
1, 194399, Note_on_c, 9, 39, 0
1, 194399, Note_on_c, 9, 42, 0
1, 194399, Note_on_c, 9, 35, 0
1, 194400, Note_on_c, 9, 42, 70
1, 194400, Note_on_c, 9, 35, 89
1, 194559, Note_on_c, 9, 42, 0
1, 194560, Note_on_c, 9, 42, 70
1, 194719, Note_on_c, 9, 42, 0
1, 194720, Note_on_c, 9, 42, 70
1, 194879, Note_on_c, 9, 35, 0
1, 194879, Note_on_c, 9, 42, 0
1, 194880, Note_on_c, 9, 38, 90
1, 194880, Note_on_c, 9, 39, 75
1, 194880, Note_on_c, 9, 42, 70
1, 195039, Note_on_c, 9, 38, 0
1, 195039, Note_on_c, 9, 39, 0
1, 195039, Note_on_c, 9, 42, 0
1, 195040, Note_on_c, 9, 42, 70
1, 195199, Note_on_c, 9, 42, 0
1, 195200, Note_on_c, 9, 42, 70
1, 195359, Note_on_c, 9, 42, 0
1, 195360, Note_on_c, 9, 42, 70
1, 195360, Note_on_c, 9, 57, 77
1, 195360, Note_on_c, 9, 35, 93
1, 195519, Note_on_c, 9, 42, 0
1, 195519, Note_on_c, 9, 57, 0
1, 195520, Note_on_c, 9, 42, 70
1, 195679, Note_on_c, 9, 42, 0
1, 195680, Note_on_c, 9, 42, 70
1, 195839, Note_on_c, 9, 35, 0
1, 195839, Note_on_c, 9, 42, 0
1, 195840, Note_on_c, 9, 38, 95
1, 195840, Note_on_c, 9, 39, 81
1, 195840, Note_on_c, 9, 42, 70
1, 195919, Note_on_c, 9, 38, 0
1, 195919, Note_on_c, 9, 39, 0
1, 195919, Note_on_c, 9, 42, 0
1, 196000, Note_on_c, 9, 42, 70
1, 196159, Note_on_c, 9, 42, 0
1, 196160, Note_on_c, 9, 39, 76
1, 196160, Note_on_c, 9, 42, 70
1, 196160, Note_on_c, 9, 35, 93
1, 196319, Note_on_c, 9, 39, 0
1, 196319, Note_on_c, 9, 42, 0
1, 196319, Note_on_c, 9, 35, 0
1, 196320, Note_on_c, 9, 42, 70
1, 196320, Note_on_c, 9, 35, 90
1, 196479, Note_on_c, 9, 42, 0
1, 196480, Note_on_c, 9, 42, 70
1, 196639, Note_on_c, 9, 42, 0
1, 196640, Note_on_c, 9, 42, 70
1, 196799, Note_on_c, 9, 35, 0
1, 196799, Note_on_c, 9, 42, 0
1, 196800, Note_on_c, 9, 38, 94
1, 196800, Note_on_c, 9, 39, 80
1, 196800, Note_on_c, 9, 42, 70
1, 196959, Note_on_c, 9, 38, 0
1, 196959, Note_on_c, 9, 39, 0
1, 196959, Note_on_c, 9, 42, 0
1, 196960, Note_on_c, 9, 42, 70
1, 197119, Note_on_c, 9, 42, 0
1, 197120, Note_on_c, 9, 42, 70
1, 197279, Note_on_c, 9, 42, 0
1, 197280, Note_on_c, 9, 42, 70
1, 197280, Note_on_c, 9, 35, 92
1, 197439, Note_on_c, 9, 42, 0
1, 197440, Note_on_c, 9, 42, 70
1, 197599, Note_on_c, 9, 42, 0
1, 197600, Note_on_c, 9, 42, 70
1, 197759, Note_on_c, 9, 35, 0
1, 197759, Note_on_c, 9, 42, 0
1, 197760, Note_on_c, 9, 38, 90
1, 197760, Note_on_c, 9, 39, 75
1, 197760, Note_on_c, 9, 42, 70
1, 197919, Note_on_c, 9, 38, 0
1, 197919, Note_on_c, 9, 39, 0
1, 197919, Note_on_c, 9, 42, 0
1, 197920, Note_on_c, 9, 42, 70
1, 198079, Note_on_c, 9, 42, 0
1, 198080, Note_on_c, 9, 39, 81
1, 198080, Note_on_c, 9, 42, 70
1, 198080, Note_on_c, 9, 35, 90
1, 198239, Note_on_c, 9, 39, 0
1, 198239, Note_on_c, 9, 42, 0
1, 198239, Note_on_c, 9, 35, 0
1, 198240, Note_on_c, 9, 42, 70
1, 198240, Note_on_c, 9, 35, 90
1, 198399, Note_on_c, 9, 42, 0
1, 198400, Note_on_c, 9, 42, 70
1, 198559, Note_on_c, 9, 42, 0
1, 198560, Note_on_c, 9, 42, 70
1, 198719, Note_on_c, 9, 35, 0
1, 198719, Note_on_c, 9, 42, 0
1, 198720, Note_on_c, 9, 38, 95
1, 198720, Note_on_c, 9, 39, 76
1, 198720, Note_on_c, 9, 42, 70
1, 198879, Note_on_c, 9, 38, 0
1, 198879, Note_on_c, 9, 39, 0
1, 198879, Note_on_c, 9, 42, 0
1, 198880, Note_on_c, 9, 42, 70
1, 199039, Note_on_c, 9, 42, 0
1, 199040, Note_on_c, 9, 42, 70
1, 199199, Note_on_c, 9, 42, 0
1, 199200, Note_on_c, 9, 57, 77
1, 199200, Note_on_c, 9, 35, 95
1, 199679, Note_on_c, 9, 57, 0
1, 199679, Note_on_c, 9, 35, 0
1, 199680, Note_on_c, 9, 38, 97
1, 199680, Note_on_c, 9, 46, 74
1, 200159, Note_on_c, 9, 38, 0
1, 200159, Note_on_c, 9, 46, 0
1, 200160, Note_on_c, 9, 49, 78
1, 200160, Note_on_c, 9, 35, 89
1, 200639, Note_on_c, 9, 49, 0
1, 200639, Note_on_c, 9, 35, 0
1, 200640, Note_on_c, 9, 38, 95
1, 200640, Note_on_c, 9, 46, 73
1, 201119, Note_on_c, 9, 38, 0
1, 201119, Note_on_c, 9, 46, 0
1, 201120, Note_on_c, 9, 50, 74
1, 201120, Note_on_c, 9, 57, 71
1, 201120, Note_on_c, 9, 35, 95
1, 201359, Note_on_c, 9, 35, 0
1, 201439, Note_on_c, 9, 50, 0
1, 201439, Note_on_c, 9, 57, 0
1, 201440, Note_on_c, 9, 47, 68
1, 201440, Note_on_c, 9, 35, 95
1, 201599, Note_on_c, 9, 47, 0
1, 201599, Note_on_c, 9, 35, 0
1, 201600, Note_on_c, 9, 38, 95
1, 201600, Note_on_c, 9, 43, 77
1, 201919, Note_on_c, 9, 38, 0
1, 201919, Note_on_c, 9, 43, 0
1, 201920, Note_on_c, 9, 49, 95
1, 201920, Note_on_c, 9, 35, 95
1, 202079, Note_on_c, 9, 49, 0
1, 202079, Note_on_c, 9, 35, 0
1, 212160, Note_on_c, 9, 47, 85
1, 212399, Note_on_c, 9, 47, 0
1, 212460, Note_on_c, 9, 47, 75
1, 212639, Note_on_c, 9, 47, 0
1, 212640, Note_on_c, 9, 47, 85
1, 212879, Note_on_c, 9, 47, 0
1, 212940, Note_on_c, 9, 47, 66
1, 213119, Note_on_c, 9, 47, 0
1, 213120, Note_on_c, 9, 43, 75
1, 213359, Note_on_c, 9, 43, 0
1, 213440, Note_on_c, 9, 43, 77
1, 213599, Note_on_c, 9, 43, 0
1, 213600, Note_on_c, 9, 43, 87
1, 213919, Note_on_c, 9, 43, 0
1, 213920, Note_on_c, 9, 43, 86
1, 214079, Note_on_c, 9, 43, 0
1, 214080, Note_on_c, 9, 42, 70
1, 214080, Note_on_c, 9, 57, 77
1, 214080, Note_on_c, 9, 35, 95
1, 214239, Note_on_c, 9, 42, 0
1, 214239, Note_on_c, 9, 57, 0
1, 214240, Note_on_c, 9, 42, 70
1, 214399, Note_on_c, 9, 42, 0
1, 214400, Note_on_c, 9, 42, 70
1, 214559, Note_on_c, 9, 35, 0
1, 214559, Note_on_c, 9, 42, 0
1, 214560, Note_on_c, 9, 38, 95
1, 214560, Note_on_c, 9, 39, 76
1, 214560, Note_on_c, 9, 42, 70
1, 214639, Note_on_c, 9, 38, 0
1, 214639, Note_on_c, 9, 39, 0
1, 214639, Note_on_c, 9, 42, 0
1, 214720, Note_on_c, 9, 42, 70
1, 214879, Note_on_c, 9, 42, 0
1, 214880, Note_on_c, 9, 39, 75
1, 214880, Note_on_c, 9, 42, 70
1, 214880, Note_on_c, 9, 35, 93
1, 215039, Note_on_c, 9, 39, 0
1, 215039, Note_on_c, 9, 42, 0
1, 215039, Note_on_c, 9, 35, 0
1, 215040, Note_on_c, 9, 42, 70
1, 215040, Note_on_c, 9, 35, 90
1, 215199, Note_on_c, 9, 42, 0
1, 215200, Note_on_c, 9, 42, 70
1, 215359, Note_on_c, 9, 42, 0
1, 215360, Note_on_c, 9, 42, 70
1, 215519, Note_on_c, 9, 35, 0
1, 215519, Note_on_c, 9, 42, 0
1, 215520, Note_on_c, 9, 38, 95
1, 215520, Note_on_c, 9, 39, 81
1, 215520, Note_on_c, 9, 42, 70
1, 215679, Note_on_c, 9, 38, 0
1, 215679, Note_on_c, 9, 39, 0
1, 215679, Note_on_c, 9, 42, 0
1, 215680, Note_on_c, 9, 42, 70
1, 215839, Note_on_c, 9, 42, 0
1, 215840, Note_on_c, 9, 42, 70
1, 215999, Note_on_c, 9, 42, 0
1, 216000, Note_on_c, 9, 42, 70
1, 216000, Note_on_c, 9, 35, 92
1, 216159, Note_on_c, 9, 42, 0
1, 216160, Note_on_c, 9, 42, 70
1, 216319, Note_on_c, 9, 42, 0
1, 216320, Note_on_c, 9, 42, 70
1, 216479, Note_on_c, 9, 35, 0
1, 216479, Note_on_c, 9, 42, 0
1, 216480, Note_on_c, 9, 38, 95
1, 216480, Note_on_c, 9, 39, 76
1, 216480, Note_on_c, 9, 42, 70
1, 216639, Note_on_c, 9, 38, 0
1, 216639, Note_on_c, 9, 39, 0
1, 216639, Note_on_c, 9, 42, 0
1, 216640, Note_on_c, 9, 42, 70
1, 216799, Note_on_c, 9, 42, 0
1, 216800, Note_on_c, 9, 39, 75
1, 216800, Note_on_c, 9, 42, 70
1, 216800, Note_on_c, 9, 35, 90
1, 216879, Note_on_c, 9, 39, 0
1, 216879, Note_on_c, 9, 42, 0
1, 216959, Note_on_c, 9, 35, 0
1, 216960, Note_on_c, 9, 42, 70
1, 216960, Note_on_c, 9, 35, 95
1, 217119, Note_on_c, 9, 42, 0
1, 217120, Note_on_c, 9, 42, 70
1, 217279, Note_on_c, 9, 42, 0
1, 217280, Note_on_c, 9, 42, 70
1, 217439, Note_on_c, 9, 35, 0
1, 217439, Note_on_c, 9, 42, 0
1, 217440, Note_on_c, 9, 38, 95
1, 217440, Note_on_c, 9, 39, 81
1, 217440, Note_on_c, 9, 42, 70
1, 217599, Note_on_c, 9, 38, 0
1, 217599, Note_on_c, 9, 39, 0
1, 217599, Note_on_c, 9, 42, 0
1, 217600, Note_on_c, 9, 42, 70
1, 217759, Note_on_c, 9, 42, 0
1, 217760, Note_on_c, 9, 42, 70
1, 217919, Note_on_c, 9, 42, 0
1, 217920, Note_on_c, 9, 42, 70
1, 217920, Note_on_c, 9, 35, 93
1, 218079, Note_on_c, 9, 42, 0
1, 218080, Note_on_c, 9, 42, 70
1, 218239, Note_on_c, 9, 42, 0
1, 218240, Note_on_c, 9, 42, 70
1, 218399, Note_on_c, 9, 35, 0
1, 218399, Note_on_c, 9, 42, 0
1, 218400, Note_on_c, 9, 38, 95
1, 218400, Note_on_c, 9, 39, 75
1, 218400, Note_on_c, 9, 42, 70
1, 218479, Note_on_c, 9, 38, 0
1, 218479, Note_on_c, 9, 39, 0
1, 218479, Note_on_c, 9, 42, 0
1, 218560, Note_on_c, 9, 42, 70
1, 218719, Note_on_c, 9, 42, 0
1, 218720, Note_on_c, 9, 39, 75
1, 218720, Note_on_c, 9, 42, 70
1, 218720, Note_on_c, 9, 35, 90
1, 218799, Note_on_c, 9, 39, 0
1, 218799, Note_on_c, 9, 42, 0
1, 218879, Note_on_c, 9, 35, 0
1, 218880, Note_on_c, 9, 42, 70
1, 218880, Note_on_c, 9, 35, 90
1, 219039, Note_on_c, 9, 42, 0
1, 219040, Note_on_c, 9, 42, 70
1, 219199, Note_on_c, 9, 42, 0
1, 219200, Note_on_c, 9, 42, 70
1, 219359, Note_on_c, 9, 35, 0
1, 219359, Note_on_c, 9, 42, 0
1, 219360, Note_on_c, 9, 38, 93
1, 219360, Note_on_c, 9, 39, 85
1, 219360, Note_on_c, 9, 42, 70
1, 219519, Note_on_c, 9, 38, 0
1, 219519, Note_on_c, 9, 39, 0
1, 219519, Note_on_c, 9, 42, 0
1, 219520, Note_on_c, 9, 42, 70
1, 219679, Note_on_c, 9, 42, 0
1, 219680, Note_on_c, 9, 42, 70
1, 219839, Note_on_c, 9, 42, 0
1, 219840, Note_on_c, 9, 42, 70
1, 219840, Note_on_c, 9, 35, 92
1, 219999, Note_on_c, 9, 42, 0
1, 220000, Note_on_c, 9, 42, 70
1, 220159, Note_on_c, 9, 42, 0
1, 220160, Note_on_c, 9, 42, 70
1, 220319, Note_on_c, 9, 35, 0
1, 220319, Note_on_c, 9, 42, 0
1, 220320, Note_on_c, 9, 38, 95
1, 220320, Note_on_c, 9, 39, 81
1, 220320, Note_on_c, 9, 42, 70
1, 220479, Note_on_c, 9, 38, 0
1, 220479, Note_on_c, 9, 39, 0
1, 220479, Note_on_c, 9, 42, 0
1, 220480, Note_on_c, 9, 42, 70
1, 220639, Note_on_c, 9, 42, 0
1, 220640, Note_on_c, 9, 39, 81
1, 220640, Note_on_c, 9, 42, 70
1, 220640, Note_on_c, 9, 35, 90
1, 220799, Note_on_c, 9, 39, 0
1, 220799, Note_on_c, 9, 42, 0
1, 220799, Note_on_c, 9, 35, 0
1, 220800, Note_on_c, 9, 42, 70
1, 220800, Note_on_c, 9, 35, 89
1, 220959, Note_on_c, 9, 42, 0
1, 220960, Note_on_c, 9, 42, 70
1, 221119, Note_on_c, 9, 42, 0
1, 221120, Note_on_c, 9, 42, 70
1, 221279, Note_on_c, 9, 35, 0
1, 221279, Note_on_c, 9, 42, 0
1, 221280, Note_on_c, 9, 38, 90
1, 221280, Note_on_c, 9, 39, 75
1, 221280, Note_on_c, 9, 42, 70
1, 221439, Note_on_c, 9, 38, 0
1, 221439, Note_on_c, 9, 39, 0
1, 221439, Note_on_c, 9, 42, 0
1, 221440, Note_on_c, 9, 42, 70
1, 221599, Note_on_c, 9, 42, 0
1, 221600, Note_on_c, 9, 42, 70
1, 221759, Note_on_c, 9, 42, 0
1, 221760, Note_on_c, 9, 42, 70
1, 221760, Note_on_c, 9, 57, 77
1, 221760, Note_on_c, 9, 35, 93
1, 221919, Note_on_c, 9, 42, 0
1, 221919, Note_on_c, 9, 57, 0
1, 221920, Note_on_c, 9, 42, 70
1, 222079, Note_on_c, 9, 42, 0
1, 222080, Note_on_c, 9, 42, 70
1, 222239, Note_on_c, 9, 35, 0
1, 222239, Note_on_c, 9, 42, 0
1, 222240, Note_on_c, 9, 38, 95
1, 222240, Note_on_c, 9, 39, 81
1, 222240, Note_on_c, 9, 42, 70
1, 222319, Note_on_c, 9, 38, 0
1, 222319, Note_on_c, 9, 39, 0
1, 222319, Note_on_c, 9, 42, 0
1, 222400, Note_on_c, 9, 42, 70
1, 222559, Note_on_c, 9, 42, 0
1, 222560, Note_on_c, 9, 39, 76
1, 222560, Note_on_c, 9, 42, 70
1, 222560, Note_on_c, 9, 35, 93
1, 222719, Note_on_c, 9, 39, 0
1, 222719, Note_on_c, 9, 42, 0
1, 222719, Note_on_c, 9, 35, 0
1, 222720, Note_on_c, 9, 42, 70
1, 222720, Note_on_c, 9, 35, 90
1, 222879, Note_on_c, 9, 42, 0
1, 222880, Note_on_c, 9, 42, 70
1, 223039, Note_on_c, 9, 42, 0
1, 223040, Note_on_c, 9, 42, 70
1, 223199, Note_on_c, 9, 35, 0
1, 223199, Note_on_c, 9, 42, 0
1, 223200, Note_on_c, 9, 38, 94
1, 223200, Note_on_c, 9, 39, 80
1, 223200, Note_on_c, 9, 42, 70
1, 223359, Note_on_c, 9, 38, 0
1, 223359, Note_on_c, 9, 39, 0
1, 223359, Note_on_c, 9, 42, 0
1, 223360, Note_on_c, 9, 42, 70
1, 223519, Note_on_c, 9, 42, 0
1, 223520, Note_on_c, 9, 42, 70
1, 223679, Note_on_c, 9, 42, 0
1, 223680, Note_on_c, 9, 42, 70
1, 223680, Note_on_c, 9, 35, 92
1, 223839, Note_on_c, 9, 42, 0
1, 223840, Note_on_c, 9, 42, 70
1, 223999, Note_on_c, 9, 42, 0
1, 224000, Note_on_c, 9, 42, 70
1, 224159, Note_on_c, 9, 35, 0
1, 224159, Note_on_c, 9, 42, 0
1, 224160, Note_on_c, 9, 38, 90
1, 224160, Note_on_c, 9, 39, 75
1, 224160, Note_on_c, 9, 42, 70
1, 224319, Note_on_c, 9, 38, 0
1, 224319, Note_on_c, 9, 39, 0
1, 224319, Note_on_c, 9, 42, 0
1, 224320, Note_on_c, 9, 42, 70
1, 224479, Note_on_c, 9, 42, 0
1, 224480, Note_on_c, 9, 39, 81
1, 224480, Note_on_c, 9, 42, 70
1, 224480, Note_on_c, 9, 35, 90
1, 224639, Note_on_c, 9, 39, 0
1, 224639, Note_on_c, 9, 42, 0
1, 224639, Note_on_c, 9, 35, 0
1, 224640, Note_on_c, 9, 42, 70
1, 224640, Note_on_c, 9, 35, 90
1, 224799, Note_on_c, 9, 42, 0
1, 224800, Note_on_c, 9, 42, 70
1, 224959, Note_on_c, 9, 42, 0
1, 224960, Note_on_c, 9, 42, 70
1, 225119, Note_on_c, 9, 35, 0
1, 225119, Note_on_c, 9, 42, 0
1, 225120, Note_on_c, 9, 38, 95
1, 225120, Note_on_c, 9, 39, 76
1, 225120, Note_on_c, 9, 42, 70
1, 225279, Note_on_c, 9, 38, 0
1, 225279, Note_on_c, 9, 39, 0
1, 225279, Note_on_c, 9, 42, 0
1, 225280, Note_on_c, 9, 42, 70
1, 225439, Note_on_c, 9, 42, 0
1, 225440, Note_on_c, 9, 42, 70
1, 225599, Note_on_c, 9, 42, 0
1, 225600, Note_on_c, 9, 57, 77
1, 225600, Note_on_c, 9, 35, 95
1, 226079, Note_on_c, 9, 57, 0
1, 226079, Note_on_c, 9, 35, 0
1, 226080, Note_on_c, 9, 38, 97
1, 226080, Note_on_c, 9, 46, 74
1, 226559, Note_on_c, 9, 38, 0
1, 226559, Note_on_c, 9, 46, 0
1, 226560, Note_on_c, 9, 49, 78
1, 226560, Note_on_c, 9, 35, 89
1, 227039, Note_on_c, 9, 49, 0
1, 227039, Note_on_c, 9, 35, 0
1, 227040, Note_on_c, 9, 38, 95
1, 227040, Note_on_c, 9, 46, 73
1, 227519, Note_on_c, 9, 38, 0
1, 227519, Note_on_c, 9, 46, 0
1, 227520, Note_on_c, 9, 50, 74
1, 227520, Note_on_c, 9, 57, 71
1, 227520, Note_on_c, 9, 35, 95
1, 227759, Note_on_c, 9, 35, 0
1, 227839, Note_on_c, 9, 50, 0
1, 227839, Note_on_c, 9, 57, 0
1, 227840, Note_on_c, 9, 47, 68
1, 227840, Note_on_c, 9, 35, 95
1, 227999, Note_on_c, 9, 47, 0
1, 227999, Note_on_c, 9, 35, 0
1, 228000, End_track
0, 0, End_of_file
