0, 0, Header, 1, 1, 480
1, 0, Start_track
1, 0, Time_signature, 4, 2, 24, 8
1, 0, Key_signature, 0, "major"
1, 0, Tempo, 500000
1, 0, Control_c, 9, 121, 0
1, 0, Program_c, 9, 0
1, 0, Control_c, 9, 7, 100
1, 0, Control_c, 9, 10, 64
1, 0, Control_c, 9, 91, 0
1, 0, Control_c, 9, 93, 0
1, 0, MIDI_port, 0
1, 1920, Note_on_c, 9, 42, 120
1, 2399, Note_on_c, 9, 42, 0
1, 2400, Note_on_c, 9, 42, 120
1, 2879, Note_on_c, 9, 42, 0
1, 2880, Note_on_c, 9, 42, 120
1, 3359, Note_on_c, 9, 42, 0
1, 3360, Note_on_c, 9, 42, 120
1, 3839, Note_on_c, 9, 42, 0
1, 3840, Note_on_c, 9, 57, 127
1, 3840, Note_on_c, 9, 36, 127
1, 3855, Note_on_c, 9, 42, 127
1, 4079, Note_on_c, 9, 57, 0
1, 4079, Note_on_c, 9, 42, 0
1, 4080, Note_on_c, 9, 42, 101
1, 4319, Note_on_c, 9, 36, 0
1, 4319, Note_on_c, 9, 42, 0
1, 4320, Note_on_c, 9, 38, 107
1, 4320, Note_on_c, 9, 42, 127
1, 4335, Note_on_c, 9, 44, 94
1, 4544, Note_on_c, 9, 38, 0
1, 4544, Note_on_c, 9, 42, 0
1, 4545, Note_on_c, 9, 42, 99
1, 4559, Note_on_c, 9, 44, 0
1, 4559, Note_on_c, 9, 42, 0
1, 4800, Note_on_c, 9, 42, 127
1, 4800, Note_on_c, 9, 36, 127
1, 5039, Note_on_c, 9, 42, 0
1, 5040, Note_on_c, 9, 42, 100
1, 5279, Note_on_c, 9, 36, 0
1, 5279, Note_on_c, 9, 42, 0
1, 5280, Note_on_c, 9, 38, 112
1, 5280, Note_on_c, 9, 42, 127
1, 5295, Note_on_c, 9, 44, 96
1, 5519, Note_on_c, 9, 38, 0
1, 5519, Note_on_c, 9, 42, 0
1, 5519, Note_on_c, 9, 44, 0
1, 5520, Note_on_c, 9, 42, 98
1, 5759, Note_on_c, 9, 42, 0
1, 5760, Note_on_c, 9, 42, 127
1, 5760, Note_on_c, 9, 36, 127
1, 5999, Note_on_c, 9, 42, 0
1, 6000, Note_on_c, 9, 42, 98
1, 6239, Note_on_c, 9, 36, 0
1, 6239, Note_on_c, 9, 42, 0
1, 6240, Note_on_c, 9, 38, 109
1, 6254, Note_on_c, 9, 38, 0
1, 6255, Note_on_c, 9, 42, 127
1, 6255, Note_on_c, 9, 44, 93
1, 6479, Note_on_c, 9, 42, 0
1, 6479, Note_on_c, 9, 44, 0
1, 6480, Note_on_c, 9, 42, 97
1, 6719, Note_on_c, 9, 42, 0
1, 6720, Note_on_c, 9, 42, 127
1, 6720, Note_on_c, 9, 36, 127
1, 6959, Note_on_c, 9, 42, 0
1, 6960, Note_on_c, 9, 42, 100
1, 7199, Note_on_c, 9, 36, 0
1, 7199, Note_on_c, 9, 42, 0
1, 7200, Note_on_c, 9, 38, 111
1, 7200, Note_on_c, 9, 42, 127
1, 7200, Note_on_c, 9, 44, 98
1, 7439, Note_on_c, 9, 38, 0
1, 7439, Note_on_c, 9, 42, 0
1, 7439, Note_on_c, 9, 44, 0
1, 7440, Note_on_c, 9, 38, 112
1, 7440, Note_on_c, 9, 42, 98
1, 7440, Note_on_c, 9, 44, 95
1, 7559, Note_on_c, 9, 44, 0
1, 7560, Note_on_c, 9, 43, 97
1, 7679, Note_on_c, 9, 38, 0
1, 7679, Note_on_c, 9, 42, 0
1, 7679, Note_on_c, 9, 43, 0
1, 7680, Note_on_c, 9, 36, 127
1, 7695, Note_on_c, 9, 42, 127
1, 7919, Note_on_c, 9, 42, 0
1, 7920, Note_on_c, 9, 42, 96
1, 8159, Note_on_c, 9, 36, 0
1, 8159, Note_on_c, 9, 42, 0
1, 8160, Note_on_c, 9, 38, 118
1, 8160, Note_on_c, 9, 42, 127
1, 8160, Note_on_c, 9, 44, 107
1, 8399, Note_on_c, 9, 38, 0
1, 8399, Note_on_c, 9, 42, 0
1, 8400, Note_on_c, 9, 42, 99
1, 8639, Note_on_c, 9, 44, 0
1, 8639, Note_on_c, 9, 42, 0
1, 8640, Note_on_c, 9, 36, 127
1, 8655, Note_on_c, 9, 42, 127
1, 8879, Note_on_c, 9, 42, 0
1, 8880, Note_on_c, 9, 42, 96
1, 9119, Note_on_c, 9, 36, 0
1, 9119, Note_on_c, 9, 42, 0
1, 9120, Note_on_c, 9, 38, 110
1, 9134, Note_on_c, 9, 38, 0
1, 9135, Note_on_c, 9, 42, 127
1, 9135, Note_on_c, 9, 44, 94
1, 9359, Note_on_c, 9, 42, 0
1, 9359, Note_on_c, 9, 44, 0
1, 9360, Note_on_c, 9, 42, 99
1, 9599, Note_on_c, 9, 42, 0
1, 9600, Note_on_c, 9, 42, 127
1, 9600, Note_on_c, 9, 36, 127
1, 9839, Note_on_c, 9, 42, 0
1, 9855, Note_on_c, 9, 42, 97
1, 10079, Note_on_c, 9, 36, 0
1, 10079, Note_on_c, 9, 42, 0
1, 10080, Note_on_c, 9, 38, 109
1, 10080, Note_on_c, 9, 42, 127
1, 10095, Note_on_c, 9, 44, 98
1, 10319, Note_on_c, 9, 38, 0
1, 10319, Note_on_c, 9, 42, 0
1, 10319, Note_on_c, 9, 44, 0
1, 10320, Note_on_c, 9, 42, 98
1, 10559, Note_on_c, 9, 42, 0
1, 10560, Note_on_c, 9, 42, 127
1, 10560, Note_on_c, 9, 36, 127
1, 10799, Note_on_c, 9, 42, 0
1, 10799, Note_on_c, 9, 36, 0
1, 10800, Note_on_c, 9, 38, 108
1, 10800, Note_on_c, 9, 42, 97
1, 10815, Note_on_c, 9, 44, 93
1, 11039, Note_on_c, 9, 38, 0
1, 11039, Note_on_c, 9, 42, 0
1, 11039, Note_on_c, 9, 44, 0
1, 11040, Note_on_c, 9, 38, 110
1, 11040, Note_on_c, 9, 42, 127
1, 11055, Note_on_c, 9, 44, 95
1, 11279, Note_on_c, 9, 38, 0
1, 11279, Note_on_c, 9, 42, 0
1, 11279, Note_on_c, 9, 44, 0
1, 11280, Note_on_c, 9, 38, 107
1, 11280, Note_on_c, 9, 46, 108
1, 11280, Note_on_c, 9, 44, 93
1, 11519, Note_on_c, 9, 38, 0
1, 11519, Note_on_c, 9, 46, 0
1, 11519, Note_on_c, 9, 44, 0
1, 11520, Note_on_c, 9, 36, 127
1, 11535, Note_on_c, 9, 42, 127
1, 11759, Note_on_c, 9, 42, 0
1, 11760, Note_on_c, 9, 42, 98
1, 11999, Note_on_c, 9, 36, 0
1, 11999, Note_on_c, 9, 42, 0
1, 12000, Note_on_c, 9, 38, 107
1, 12000, Note_on_c, 9, 42, 127
1, 12000, Note_on_c, 9, 44, 95
1, 12239, Note_on_c, 9, 38, 0
1, 12239, Note_on_c, 9, 42, 0
1, 12240, Note_on_c, 9, 42, 100
1, 12479, Note_on_c, 9, 44, 0
1, 12479, Note_on_c, 9, 42, 0
1, 12480, Note_on_c, 9, 42, 127
1, 12480, Note_on_c, 9, 36, 127
1, 12719, Note_on_c, 9, 42, 0
1, 12720, Note_on_c, 9, 42, 96
1, 12959, Note_on_c, 9, 36, 0
1, 12959, Note_on_c, 9, 42, 0
1, 12960, Note_on_c, 9, 38, 109
1, 12960, Note_on_c, 9, 42, 127
1, 12960, Note_on_c, 9, 44, 94
1, 13199, Note_on_c, 9, 38, 0
1, 13199, Note_on_c, 9, 42, 0
1, 13200, Note_on_c, 9, 42, 101
1, 13439, Note_on_c, 9, 44, 0
1, 13439, Note_on_c, 9, 42, 0
1, 13440, Note_on_c, 9, 42, 127
1, 13440, Note_on_c, 9, 36, 127
1, 13679, Note_on_c, 9, 42, 0
1, 13680, Note_on_c, 9, 42, 101
1, 13919, Note_on_c, 9, 36, 0
1, 13919, Note_on_c, 9, 42, 0
1, 13920, Note_on_c, 9, 38, 121
1, 13920, Note_on_c, 9, 42, 127
1, 13935, Note_on_c, 9, 44, 107
1, 14159, Note_on_c, 9, 38, 0
1, 14159, Note_on_c, 9, 42, 0
1, 14159, Note_on_c, 9, 44, 0
1, 14160, Note_on_c, 9, 42, 99
1, 14399, Note_on_c, 9, 42, 0
1, 14400, Note_on_c, 9, 42, 127
1, 14400, Note_on_c, 9, 36, 127
1, 14639, Note_on_c, 9, 42, 0
1, 14640, Note_on_c, 9, 42, 101
1, 14879, Note_on_c, 9, 36, 0
1, 14879, Note_on_c, 9, 42, 0
1, 14880, Note_on_c, 9, 38, 111
1, 14880, Note_on_c, 9, 42, 127
1, 14895, Note_on_c, 9, 44, 94
1, 15119, Note_on_c, 9, 38, 0
1, 15119, Note_on_c, 9, 42, 0
1, 15119, Note_on_c, 9, 44, 0
1, 15120, Note_on_c, 9, 38, 110
1, 15120, Note_on_c, 9, 42, 100
1, 15135, Note_on_c, 9, 44, 93
1, 15359, Note_on_c, 9, 38, 0
1, 15359, Note_on_c, 9, 42, 0
1, 15359, Note_on_c, 9, 44, 0
1, 15360, Note_on_c, 9, 36, 127
1, 15375, Note_on_c, 9, 42, 127
1, 15599, Note_on_c, 9, 42, 0
1, 15600, Note_on_c, 9, 42, 96
1, 15839, Note_on_c, 9, 36, 0
1, 15839, Note_on_c, 9, 42, 0
1, 15840, Note_on_c, 9, 38, 111
1, 15840, Note_on_c, 9, 42, 127
1, 15840, Note_on_c, 9, 44, 94
1, 16079, Note_on_c, 9, 38, 0
1, 16079, Note_on_c, 9, 42, 0
1, 16080, Note_on_c, 9, 42, 97
1, 16319, Note_on_c, 9, 44, 0
1, 16319, Note_on_c, 9, 42, 0
1, 16320, Note_on_c, 9, 42, 127
1, 16320, Note_on_c, 9, 36, 127
1, 16559, Note_on_c, 9, 42, 0
1, 16560, Note_on_c, 9, 42, 101
1, 16799, Note_on_c, 9, 36, 0
1, 16799, Note_on_c, 9, 42, 0
1, 16800, Note_on_c, 9, 38, 111
1, 16800, Note_on_c, 9, 42, 127
1, 16800, Note_on_c, 9, 44, 98
1, 17039, Note_on_c, 9, 38, 0
1, 17039, Note_on_c, 9, 42, 0
1, 17040, Note_on_c, 9, 42, 99
1, 17279, Note_on_c, 9, 44, 0
1, 17279, Note_on_c, 9, 42, 0
1, 17280, Note_on_c, 9, 42, 127
1, 17280, Note_on_c, 9, 36, 127
1, 17519, Note_on_c, 9, 42, 0
1, 17519, Note_on_c, 9, 36, 0
1, 17520, Note_on_c, 9, 38, 111
1, 17520, Note_on_c, 9, 42, 98
1, 17520, Note_on_c, 9, 44, 95
1, 17759, Note_on_c, 9, 38, 0
1, 17759, Note_on_c, 9, 42, 0
1, 17759, Note_on_c, 9, 44, 0
1, 17760, Note_on_c, 9, 42, 127
1, 17999, Note_on_c, 9, 42, 0
1, 18000, Note_on_c, 9, 42, 96
1, 18239, Note_on_c, 9, 42, 0
1, 18240, Note_on_c, 9, 38, 111
1, 18240, Note_on_c, 9, 42, 127
1, 18240, Note_on_c, 9, 36, 127
1, 18254, Note_on_c, 9, 36, 0
1, 18255, Note_on_c, 9, 44, 95
1, 18479, Note_on_c, 9, 38, 0
1, 18479, Note_on_c, 9, 42, 0
1, 18479, Note_on_c, 9, 44, 0
1, 18480, Note_on_c, 9, 42, 101
1, 18599, Note_on_c, 9, 42, 0
1, 18600, Note_on_c, 9, 38, 112
1, 18600, Note_on_c, 9, 44, 98
1, 18719, Note_on_c, 9, 38, 0
1, 18719, Note_on_c, 9, 44, 0
1, 18720, Note_on_c, 9, 38, 111
1, 18720, Note_on_c, 9, 42, 127
1, 18720, Note_on_c, 9, 44, 93
1, 18959, Note_on_c, 9, 38, 0
1, 18959, Note_on_c, 9, 42, 0
1, 18959, Note_on_c, 9, 44, 0
1, 18960, Note_on_c, 9, 38, 110
1, 18974, Note_on_c, 9, 38, 0
1, 18975, Note_on_c, 9, 46, 107
1, 18975, Note_on_c, 9, 49, 97
1, 18980, Note_on_c, 9, 44, 93
1, 19019, Note_on_c, 9, 44, 0
1, 19199, Note_on_c, 9, 46, 0
1, 19199, Note_on_c, 9, 49, 0
1, 19200, Note_on_c, 9, 42, 127
1, 19200, Note_on_c, 9, 36, 127
1, 19439, Note_on_c, 9, 42, 0
1, 19440, Note_on_c, 9, 42, 100
1, 19679, Note_on_c, 9, 36, 0
1, 19679, Note_on_c, 9, 42, 0
1, 19680, Note_on_c, 9, 38, 120
1, 19680, Note_on_c, 9, 42, 127
1, 19695, Note_on_c, 9, 44, 105
1, 19919, Note_on_c, 9, 38, 0
1, 19919, Note_on_c, 9, 42, 0
1, 19919, Note_on_c, 9, 44, 0
1, 19920, Note_on_c, 9, 42, 96
1, 20159, Note_on_c, 9, 42, 0
1, 20160, Note_on_c, 9, 42, 127
1, 20160, Note_on_c, 9, 36, 127
1, 20399, Note_on_c, 9, 42, 0
1, 20400, Note_on_c, 9, 42, 98
1, 20639, Note_on_c, 9, 36, 0
1, 20639, Note_on_c, 9, 42, 0
1, 20640, Note_on_c, 9, 38, 107
1, 20640, Note_on_c, 9, 42, 127
1, 20640, Note_on_c, 9, 44, 97
1, 20879, Note_on_c, 9, 38, 0
1, 20879, Note_on_c, 9, 42, 0
1, 20880, Note_on_c, 9, 42, 99
1, 21119, Note_on_c, 9, 44, 0
1, 21119, Note_on_c, 9, 42, 0
1, 21120, Note_on_c, 9, 42, 127
1, 21120, Note_on_c, 9, 36, 127
1, 21359, Note_on_c, 9, 42, 0
1, 21360, Note_on_c, 9, 42, 100
1, 21599, Note_on_c, 9, 36, 0
1, 21599, Note_on_c, 9, 42, 0
1, 21600, Note_on_c, 9, 38, 107
1, 21600, Note_on_c, 9, 42, 127
1, 21600, Note_on_c, 9, 44, 96
1, 21839, Note_on_c, 9, 38, 0
1, 21839, Note_on_c, 9, 42, 0
1, 21840, Note_on_c, 9, 42, 100
1, 22079, Note_on_c, 9, 44, 0
1, 22079, Note_on_c, 9, 42, 0
1, 22080, Note_on_c, 9, 36, 127
1, 22095, Note_on_c, 9, 42, 127
1, 22319, Note_on_c, 9, 42, 0
1, 22320, Note_on_c, 9, 42, 96
1, 22559, Note_on_c, 9, 36, 0
1, 22559, Note_on_c, 9, 42, 0
1, 22560, Note_on_c, 9, 38, 109
1, 22560, Note_on_c, 9, 42, 127
1, 22575, Note_on_c, 9, 44, 98
1, 22799, Note_on_c, 9, 38, 0
1, 22799, Note_on_c, 9, 42, 0
1, 22799, Note_on_c, 9, 44, 0
1, 22800, Note_on_c, 9, 38, 107
1, 22800, Note_on_c, 9, 42, 97
1, 22815, Note_on_c, 9, 44, 94
1, 23039, Note_on_c, 9, 38, 0
1, 23039, Note_on_c, 9, 42, 0
1, 23039, Note_on_c, 9, 44, 0
1, 23040, Note_on_c, 9, 42, 127
1, 23040, Note_on_c, 9, 36, 127
1, 23279, Note_on_c, 9, 42, 0
1, 23280, Note_on_c, 9, 42, 96
1, 23519, Note_on_c, 9, 36, 0
1, 23519, Note_on_c, 9, 42, 0
1, 23520, Note_on_c, 9, 38, 110
1, 23520, Note_on_c, 9, 42, 127
1, 23535, Note_on_c, 9, 44, 93
1, 23759, Note_on_c, 9, 38, 0
1, 23759, Note_on_c, 9, 42, 0
1, 23759, Note_on_c, 9, 44, 0
1, 23760, Note_on_c, 9, 42, 97
1, 23999, Note_on_c, 9, 42, 0
1, 24000, Note_on_c, 9, 42, 127
1, 24000, Note_on_c, 9, 36, 127
1, 24239, Note_on_c, 9, 42, 0
1, 24240, Note_on_c, 9, 42, 96
1, 24479, Note_on_c, 9, 36, 0
1, 24479, Note_on_c, 9, 42, 0
1, 24480, Note_on_c, 9, 38, 118
1, 24480, Note_on_c, 9, 42, 127
1, 24495, Note_on_c, 9, 44, 102
1, 24719, Note_on_c, 9, 38, 0
1, 24719, Note_on_c, 9, 42, 0
1, 24719, Note_on_c, 9, 44, 0
1, 24720, Note_on_c, 9, 42, 97
1, 24959, Note_on_c, 9, 42, 0
1, 24960, Note_on_c, 9, 36, 127
1, 24975, Note_on_c, 9, 42, 127
1, 25199, Note_on_c, 9, 42, 0
1, 25200, Note_on_c, 9, 42, 98
1, 25439, Note_on_c, 9, 36, 0
1, 25439, Note_on_c, 9, 42, 0
1, 25440, Note_on_c, 9, 38, 108
1, 25440, Note_on_c, 9, 42, 127
1, 25455, Note_on_c, 9, 44, 98
1, 25679, Note_on_c, 9, 38, 0
1, 25679, Note_on_c, 9, 42, 0
1, 25679, Note_on_c, 9, 44, 0
1, 25680, Note_on_c, 9, 38, 107
1, 25680, Note_on_c, 9, 42, 98
1, 25695, Note_on_c, 9, 44, 93
1, 25919, Note_on_c, 9, 38, 0
1, 25919, Note_on_c, 9, 42, 0
1, 25919, Note_on_c, 9, 44, 0
1, 25920, Note_on_c, 9, 42, 127
1, 25920, Note_on_c, 9, 36, 127
1, 26159, Note_on_c, 9, 42, 0
1, 26160, Note_on_c, 9, 42, 96
1, 26399, Note_on_c, 9, 36, 0
1, 26399, Note_on_c, 9, 42, 0
1, 26400, Note_on_c, 9, 38, 108
1, 26400, Note_on_c, 9, 42, 127
1, 26400, Note_on_c, 9, 44, 93
1, 26639, Note_on_c, 9, 38, 0
1, 26639, Note_on_c, 9, 42, 0
1, 26639, Note_on_c, 9, 44, 0
1, 26640, Note_on_c, 9, 38, 107
1, 26654, Note_on_c, 9, 38, 0
1, 26655, Note_on_c, 9, 46, 107
1, 26655, Note_on_c, 9, 44, 98
1, 26879, Note_on_c, 9, 46, 0
1, 26879, Note_on_c, 9, 44, 0
1, 26880, Note_on_c, 9, 42, 127
1, 26880, Note_on_c, 9, 36, 127
1, 27119, Note_on_c, 9, 42, 0
1, 27120, Note_on_c, 9, 42, 97
1, 27359, Note_on_c, 9, 36, 0
1, 27359, Note_on_c, 9, 42, 0
1, 27360, Note_on_c, 9, 38, 117
1, 27360, Note_on_c, 9, 42, 127
1, 27360, Note_on_c, 9, 44, 104
1, 27599, Note_on_c, 9, 38, 0
1, 27599, Note_on_c, 9, 42, 0
1, 27600, Note_on_c, 9, 42, 97
1, 27839, Note_on_c, 9, 44, 0
1, 27839, Note_on_c, 9, 42, 0
1, 27840, Note_on_c, 9, 42, 127
1, 27840, Note_on_c, 9, 36, 127
1, 28079, Note_on_c, 9, 42, 0
1, 28080, Note_on_c, 9, 42, 98
1, 28319, Note_on_c, 9, 36, 0
1, 28319, Note_on_c, 9, 42, 0
1, 28320, Note_on_c, 9, 38, 107
1, 28320, Note_on_c, 9, 42, 127
1, 28335, Note_on_c, 9, 44, 95
1, 28559, Note_on_c, 9, 38, 0
1, 28559, Note_on_c, 9, 42, 0
1, 28559, Note_on_c, 9, 44, 0
1, 28560, Note_on_c, 9, 42, 100
1, 28799, Note_on_c, 9, 42, 0
1, 28800, Note_on_c, 9, 42, 127
1, 28800, Note_on_c, 9, 36, 127
1, 29039, Note_on_c, 9, 42, 0
1, 29040, Note_on_c, 9, 42, 101
1, 29279, Note_on_c, 9, 36, 0
1, 29279, Note_on_c, 9, 42, 0
1, 29280, Note_on_c, 9, 38, 109
1, 29294, Note_on_c, 9, 38, 0
1, 29295, Note_on_c, 9, 42, 127
1, 29295, Note_on_c, 9, 44, 96
1, 29519, Note_on_c, 9, 42, 0
1, 29519, Note_on_c, 9, 44, 0
1, 29520, Note_on_c, 9, 42, 98
1, 29759, Note_on_c, 9, 42, 0
1, 29760, Note_on_c, 9, 42, 127
1, 29760, Note_on_c, 9, 36, 127
1, 29999, Note_on_c, 9, 42, 0
1, 30000, Note_on_c, 9, 42, 99
1, 30239, Note_on_c, 9, 36, 0
1, 30239, Note_on_c, 9, 42, 0
1, 30240, Note_on_c, 9, 38, 107
1, 30240, Note_on_c, 9, 42, 127
1, 30255, Note_on_c, 9, 44, 96
1, 30479, Note_on_c, 9, 38, 0
1, 30479, Note_on_c, 9, 42, 0
1, 30479, Note_on_c, 9, 44, 0
1, 30480, Note_on_c, 9, 38, 110
1, 30494, Note_on_c, 9, 38, 0
1, 30495, Note_on_c, 9, 42, 99
1, 30495, Note_on_c, 9, 44, 93
1, 30719, Note_on_c, 9, 42, 0
1, 30719, Note_on_c, 9, 44, 0
1, 30720, Note_on_c, 9, 42, 127
1, 30720, Note_on_c, 9, 36, 127
1, 30959, Note_on_c, 9, 42, 0
1, 30960, Note_on_c, 9, 42, 101
1, 31199, Note_on_c, 9, 36, 0
1, 31199, Note_on_c, 9, 42, 0
1, 31200, Note_on_c, 9, 38, 108
1, 31214, Note_on_c, 9, 38, 0
1, 31215, Note_on_c, 9, 42, 127
1, 31215, Note_on_c, 9, 44, 98
1, 31439, Note_on_c, 9, 42, 0
1, 31439, Note_on_c, 9, 44, 0
1, 31440, Note_on_c, 9, 42, 99
1, 31679, Note_on_c, 9, 42, 0
1, 31680, Note_on_c, 9, 42, 127
1, 31680, Note_on_c, 9, 36, 127
1, 31919, Note_on_c, 9, 42, 0
1, 31920, Note_on_c, 9, 42, 99
1, 32159, Note_on_c, 9, 36, 0
1, 32159, Note_on_c, 9, 42, 0
1, 32160, Note_on_c, 9, 38, 111
1, 32160, Note_on_c, 9, 42, 127
1, 32175, Note_on_c, 9, 44, 98
1, 32399, Note_on_c, 9, 38, 0
1, 32399, Note_on_c, 9, 42, 0
1, 32399, Note_on_c, 9, 44, 0
1, 32400, Note_on_c, 9, 42, 97
1, 32639, Note_on_c, 9, 42, 0
1, 32640, Note_on_c, 9, 42, 127
1, 32640, Note_on_c, 9, 36, 127
1, 32879, Note_on_c, 9, 42, 0
1, 32880, Note_on_c, 9, 42, 97
1, 33119, Note_on_c, 9, 36, 0
1, 33119, Note_on_c, 9, 42, 0
1, 33120, Note_on_c, 9, 38, 109
1, 33120, Note_on_c, 9, 42, 127
1, 33135, Note_on_c, 9, 44, 95
1, 33359, Note_on_c, 9, 38, 0
1, 33359, Note_on_c, 9, 42, 0
1, 33359, Note_on_c, 9, 44, 0
1, 33360, Note_on_c, 9, 42, 98
1, 33599, Note_on_c, 9, 42, 0
1, 33600, Note_on_c, 9, 42, 127
1, 33600, Note_on_c, 9, 36, 127
1, 33839, Note_on_c, 9, 42, 0
1, 33840, Note_on_c, 9, 42, 99
1, 34079, Note_on_c, 9, 36, 0
1, 34079, Note_on_c, 9, 42, 0
1, 34080, Note_on_c, 9, 38, 111
1, 34080, Note_on_c, 9, 42, 127
1, 34095, Note_on_c, 9, 44, 96
1, 34319, Note_on_c, 9, 38, 0
1, 34319, Note_on_c, 9, 42, 0
1, 34319, Note_on_c, 9, 44, 0
1, 34320, Note_on_c, 9, 38, 120
1, 34320, Note_on_c, 9, 46, 105
1, 34335, Note_on_c, 9, 44, 106
1, 34559, Note_on_c, 9, 38, 0
1, 34559, Note_on_c, 9, 46, 0
1, 34559, Note_on_c, 9, 44, 0
1, 34560, Note_on_c, 9, 42, 127
1, 34560, Note_on_c, 9, 36, 127
1, 34799, Note_on_c, 9, 42, 0
1, 34800, Note_on_c, 9, 42, 101
1, 35039, Note_on_c, 9, 36, 0
1, 35039, Note_on_c, 9, 42, 0
1, 35040, Note_on_c, 9, 38, 112
1, 35040, Note_on_c, 9, 42, 127
1, 35040, Note_on_c, 9, 44, 97
1, 35279, Note_on_c, 9, 38, 0
1, 35279, Note_on_c, 9, 42, 0
1, 35280, Note_on_c, 9, 42, 101
1, 35519, Note_on_c, 9, 44, 0
1, 35519, Note_on_c, 9, 42, 0
1, 35520, Note_on_c, 9, 42, 127
1, 35520, Note_on_c, 9, 36, 127
1, 35759, Note_on_c, 9, 42, 0
1, 35760, Note_on_c, 9, 42, 98
1, 35999, Note_on_c, 9, 36, 0
1, 35999, Note_on_c, 9, 42, 0
1, 36000, Note_on_c, 9, 38, 118
1, 36000, Note_on_c, 9, 42, 127
1, 36015, Note_on_c, 9, 44, 105
1, 36239, Note_on_c, 9, 38, 0
1, 36239, Note_on_c, 9, 42, 0
1, 36239, Note_on_c, 9, 44, 0
1, 36240, Note_on_c, 9, 42, 96
1, 36479, Note_on_c, 9, 42, 0
1, 36480, Note_on_c, 9, 42, 127
1, 36480, Note_on_c, 9, 36, 127
1, 36719, Note_on_c, 9, 42, 0
1, 36720, Note_on_c, 9, 42, 97
1, 36959, Note_on_c, 9, 36, 0
1, 36959, Note_on_c, 9, 42, 0
1, 36960, Note_on_c, 9, 38, 108
1, 36974, Note_on_c, 9, 38, 0
1, 36975, Note_on_c, 9, 42, 127
1, 36975, Note_on_c, 9, 44, 97
1, 37199, Note_on_c, 9, 42, 0
1, 37199, Note_on_c, 9, 44, 0
1, 37200, Note_on_c, 9, 42, 96
1, 37439, Note_on_c, 9, 42, 0
1, 37440, Note_on_c, 9, 42, 127
1, 37440, Note_on_c, 9, 36, 127
1, 37679, Note_on_c, 9, 42, 0
1, 37680, Note_on_c, 9, 42, 99
1, 37919, Note_on_c, 9, 36, 0
1, 37919, Note_on_c, 9, 42, 0
1, 37920, Note_on_c, 9, 38, 109
1, 37934, Note_on_c, 9, 38, 0
1, 37935, Note_on_c, 9, 42, 127
1, 37935, Note_on_c, 9, 44, 94
1, 38159, Note_on_c, 9, 42, 0
1, 38159, Note_on_c, 9, 44, 0
1, 38160, Note_on_c, 9, 42, 97
1, 38399, Note_on_c, 9, 42, 0
1, 38400, Note_on_c, 9, 42, 127
1, 38400, Note_on_c, 9, 36, 127
1, 38639, Note_on_c, 9, 42, 0
1, 38640, Note_on_c, 9, 42, 96
1, 38879, Note_on_c, 9, 36, 0
1, 38879, Note_on_c, 9, 42, 0
1, 38880, Note_on_c, 9, 38, 110
1, 38894, Note_on_c, 9, 38, 0
1, 38895, Note_on_c, 9, 42, 127
1, 38895, Note_on_c, 9, 44, 95
1, 39119, Note_on_c, 9, 42, 0
1, 39119, Note_on_c, 9, 44, 0
1, 39120, Note_on_c, 9, 42, 97
1, 39359, Note_on_c, 9, 42, 0
1, 39360, Note_on_c, 9, 42, 127
1, 39360, Note_on_c, 9, 36, 127
1, 39599, Note_on_c, 9, 42, 0
1, 39600, Note_on_c, 9, 42, 96
1, 39839, Note_on_c, 9, 36, 0
1, 39839, Note_on_c, 9, 42, 0
1, 39840, Note_on_c, 9, 38, 117
1, 39840, Note_on_c, 9, 42, 127
1, 39855, Note_on_c, 9, 44, 107
1, 40079, Note_on_c, 9, 38, 0
1, 40079, Note_on_c, 9, 42, 0
1, 40079, Note_on_c, 9, 44, 0
1, 40080, Note_on_c, 9, 42, 97
1, 40319, Note_on_c, 9, 42, 0
1, 40320, Note_on_c, 9, 38, 107
1, 40320, Note_on_c, 9, 42, 127
1, 40320, Note_on_c, 9, 36, 127
1, 40334, Note_on_c, 9, 36, 0
1, 40335, Note_on_c, 9, 44, 93
1, 40559, Note_on_c, 9, 38, 0
1, 40559, Note_on_c, 9, 42, 0
1, 40559, Note_on_c, 9, 44, 0
1, 40560, Note_on_c, 9, 42, 101
1, 40799, Note_on_c, 9, 42, 0
1, 40800, Note_on_c, 9, 38, 107
1, 40800, Note_on_c, 9, 42, 127
1, 40800, Note_on_c, 9, 44, 95
1, 41039, Note_on_c, 9, 38, 0
1, 41039, Note_on_c, 9, 42, 0
1, 41040, Note_on_c, 9, 42, 101
1, 41279, Note_on_c, 9, 44, 0
1, 41279, Note_on_c, 9, 42, 0
1, 41280, Note_on_c, 9, 38, 111
1, 41280, Note_on_c, 9, 42, 127
1, 41280, Note_on_c, 9, 44, 93
1, 41280, Note_on_c, 9, 36, 127
1, 41519, Note_on_c, 9, 38, 0
1, 41519, Note_on_c, 9, 42, 0
1, 41520, Note_on_c, 9, 42, 102
1, 41534, Note_on_c, 9, 42, 0
1, 41535, Note_on_c, 9, 50, 96
1, 41759, Note_on_c, 9, 44, 0
1, 41759, Note_on_c, 9, 36, 0
1, 41759, Note_on_c, 9, 50, 0
1, 41760, Note_on_c, 9, 47, 96
1, 41760, Note_on_c, 9, 42, 127
1, 41999, Note_on_c, 9, 47, 0
1, 41999, Note_on_c, 9, 42, 0
1, 42000, Note_on_c, 9, 42, 98
1, 42000, Note_on_c, 9, 43, 100
1, 42239, Note_on_c, 9, 42, 0
1, 42239, Note_on_c, 9, 43, 0
1, 42240, Note_on_c, 9, 42, 127
1, 42240, Note_on_c, 9, 49, 95
1, 42240, Note_on_c, 9, 36, 127
1, 42479, Note_on_c, 9, 42, 0
1, 42479, Note_on_c, 9, 49, 0
1, 42480, Note_on_c, 9, 42, 98
1, 42719, Note_on_c, 9, 36, 0
1, 42719, Note_on_c, 9, 42, 0
1, 42720, Note_on_c, 9, 38, 112
1, 42720, Note_on_c, 9, 42, 127
1, 42735, Note_on_c, 9, 44, 94
1, 42959, Note_on_c, 9, 38, 0
1, 42959, Note_on_c, 9, 42, 0
1, 42959, Note_on_c, 9, 44, 0
1, 42960, Note_on_c, 9, 42, 97
1, 43199, Note_on_c, 9, 42, 0
1, 43200, Note_on_c, 9, 36, 127
1, 43215, Note_on_c, 9, 42, 127
1, 43439, Note_on_c, 9, 42, 0
1, 43440, Note_on_c, 9, 42, 96
1, 43679, Note_on_c, 9, 36, 0
1, 43679, Note_on_c, 9, 42, 0
1, 43680, Note_on_c, 9, 38, 111
1, 43680, Note_on_c, 9, 42, 127
1, 43695, Note_on_c, 9, 44, 98
1, 43919, Note_on_c, 9, 38, 0
1, 43919, Note_on_c, 9, 42, 0
1, 43919, Note_on_c, 9, 44, 0
1, 43920, Note_on_c, 9, 42, 97
1, 44159, Note_on_c, 9, 42, 0
1, 44160, Note_on_c, 9, 42, 127
1, 44160, Note_on_c, 9, 36, 127
1, 44399, Note_on_c, 9, 42, 0
1, 44400, Note_on_c, 9, 42, 101
1, 44639, Note_on_c, 9, 36, 0
1, 44639, Note_on_c, 9, 42, 0
1, 44640, Note_on_c, 9, 38, 111
1, 44640, Note_on_c, 9, 42, 127
1, 44655, Note_on_c, 9, 44, 94
1, 44879, Note_on_c, 9, 38, 0
1, 44879, Note_on_c, 9, 42, 0
1, 44879, Note_on_c, 9, 44, 0
1, 44880, Note_on_c, 9, 38, 108
1, 44880, Note_on_c, 9, 42, 96
1, 44895, Note_on_c, 9, 44, 97
1, 45119, Note_on_c, 9, 38, 0
1, 45119, Note_on_c, 9, 42, 0
1, 45119, Note_on_c, 9, 44, 0
1, 45120, Note_on_c, 9, 42, 127
1, 45120, Note_on_c, 9, 36, 127
1, 45359, Note_on_c, 9, 42, 0
1, 45360, Note_on_c, 9, 42, 97
1, 45599, Note_on_c, 9, 36, 0
1, 45599, Note_on_c, 9, 42, 0
1, 45600, Note_on_c, 9, 38, 121
1, 45600, Note_on_c, 9, 42, 127
1, 45600, Note_on_c, 9, 44, 103
1, 45839, Note_on_c, 9, 38, 0
1, 45839, Note_on_c, 9, 42, 0
1, 45840, Note_on_c, 9, 42, 99
1, 46079, Note_on_c, 9, 44, 0
1, 46079, Note_on_c, 9, 42, 0
1, 46080, Note_on_c, 9, 42, 127
1, 46080, Note_on_c, 9, 36, 127
1, 46319, Note_on_c, 9, 42, 0
1, 46320, Note_on_c, 9, 42, 97
1, 46559, Note_on_c, 9, 36, 0
1, 46559, Note_on_c, 9, 42, 0
1, 46560, Note_on_c, 9, 38, 107
1, 46574, Note_on_c, 9, 38, 0
1, 46575, Note_on_c, 9, 42, 127
1, 46575, Note_on_c, 9, 44, 95
1, 46799, Note_on_c, 9, 42, 0
1, 46799, Note_on_c, 9, 44, 0
1, 46800, Note_on_c, 9, 42, 101
1, 47039, Note_on_c, 9, 42, 0
1, 47040, Note_on_c, 9, 42, 127
1, 47040, Note_on_c, 9, 36, 127
1, 47279, Note_on_c, 9, 42, 0
1, 47280, Note_on_c, 9, 42, 99
1, 47519, Note_on_c, 9, 36, 0
1, 47519, Note_on_c, 9, 42, 0
1, 47520, Note_on_c, 9, 38, 121
1, 47520, Note_on_c, 9, 42, 127
1, 47535, Note_on_c, 9, 44, 107
1, 47759, Note_on_c, 9, 38, 0
1, 47759, Note_on_c, 9, 42, 0
1, 47759, Note_on_c, 9, 44, 0
1, 47760, Note_on_c, 9, 42, 99
1, 47999, Note_on_c, 9, 42, 0
1, 48000, Note_on_c, 9, 42, 127
1, 48000, Note_on_c, 9, 36, 127
1, 48239, Note_on_c, 9, 42, 0
1, 48240, Note_on_c, 9, 42, 100
1, 48479, Note_on_c, 9, 36, 0
1, 48479, Note_on_c, 9, 42, 0
1, 48480, Note_on_c, 9, 38, 112
1, 48480, Note_on_c, 9, 42, 127
1, 48495, Note_on_c, 9, 44, 95
1, 48719, Note_on_c, 9, 38, 0
1, 48719, Note_on_c, 9, 42, 0
1, 48719, Note_on_c, 9, 44, 0
1, 48720, Note_on_c, 9, 38, 112
1, 48734, Note_on_c, 9, 38, 0
1, 48735, Note_on_c, 9, 42, 96
1, 48735, Note_on_c, 9, 49, 98
1, 48735, Note_on_c, 9, 44, 93
1, 48959, Note_on_c, 9, 42, 0
1, 48959, Note_on_c, 9, 49, 0
1, 48959, Note_on_c, 9, 44, 0
1, 48960, Note_on_c, 9, 42, 127
1, 48960, Note_on_c, 9, 36, 127
1, 49199, Note_on_c, 9, 42, 0
1, 49200, Note_on_c, 9, 42, 97
1, 49439, Note_on_c, 9, 36, 0
1, 49439, Note_on_c, 9, 42, 0
1, 49440, Note_on_c, 9, 38, 108
1, 49454, Note_on_c, 9, 38, 0
1, 49455, Note_on_c, 9, 42, 127
1, 49455, Note_on_c, 9, 44, 96
1, 49679, Note_on_c, 9, 42, 0
1, 49679, Note_on_c, 9, 44, 0
1, 49680, Note_on_c, 9, 42, 100
1, 49919, Note_on_c, 9, 42, 0
1, 49920, Note_on_c, 9, 42, 127
1, 49920, Note_on_c, 9, 36, 127
1, 50159, Note_on_c, 9, 42, 0
1, 50160, Note_on_c, 9, 42, 100
1, 50399, Note_on_c, 9, 36, 0
1, 50399, Note_on_c, 9, 42, 0
1, 50400, Note_on_c, 9, 38, 109
1, 50400, Note_on_c, 9, 42, 127
1, 50415, Note_on_c, 9, 44, 98
1, 50639, Note_on_c, 9, 38, 0
1, 50639, Note_on_c, 9, 42, 0
1, 50639, Note_on_c, 9, 44, 0
1, 50640, Note_on_c, 9, 38, 110
1, 50640, Note_on_c, 9, 42, 97
1, 50640, Note_on_c, 9, 49, 94
1, 50655, Note_on_c, 9, 44, 93
1, 50879, Note_on_c, 9, 38, 0
1, 50879, Note_on_c, 9, 42, 0
1, 50879, Note_on_c, 9, 49, 0
1, 50879, Note_on_c, 9, 44, 0
1, 50880, Note_on_c, 9, 42, 127
1, 50880, Note_on_c, 9, 36, 127
1, 51119, Note_on_c, 9, 42, 0
1, 51120, Note_on_c, 9, 42, 97
1, 51359, Note_on_c, 9, 36, 0
1, 51359, Note_on_c, 9, 42, 0
1, 51360, Note_on_c, 9, 38, 109
1, 51360, Note_on_c, 9, 42, 127
1, 51375, Note_on_c, 9, 44, 93
1, 51599, Note_on_c, 9, 38, 0
1, 51599, Note_on_c, 9, 42, 0
1, 51599, Note_on_c, 9, 44, 0
1, 51600, Note_on_c, 9, 42, 96
1, 51839, Note_on_c, 9, 42, 0
1, 51840, Note_on_c, 9, 42, 127
1, 51840, Note_on_c, 9, 36, 127
1, 52079, Note_on_c, 9, 42, 0
1, 52080, Note_on_c, 9, 42, 97
1, 52319, Note_on_c, 9, 36, 0
1, 52319, Note_on_c, 9, 42, 0
1, 52320, Note_on_c, 9, 38, 112
1, 52320, Note_on_c, 9, 42, 127
1, 52320, Note_on_c, 9, 49, 98
1, 52335, Note_on_c, 9, 44, 93
1, 52559, Note_on_c, 9, 38, 0
1, 52559, Note_on_c, 9, 42, 0
1, 52559, Note_on_c, 9, 49, 0
1, 52559, Note_on_c, 9, 44, 0
1, 52560, Note_on_c, 9, 42, 101
1, 52799, Note_on_c, 9, 42, 0
1, 52800, Note_on_c, 9, 42, 127
1, 52800, Note_on_c, 9, 36, 127
1, 53039, Note_on_c, 9, 42, 0
1, 53040, Note_on_c, 9, 42, 98
1, 53279, Note_on_c, 9, 36, 0
1, 53279, Note_on_c, 9, 42, 0
1, 53280, Note_on_c, 9, 38, 117
1, 53280, Note_on_c, 9, 42, 127
1, 53280, Note_on_c, 9, 49, 95
1, 53295, Note_on_c, 9, 44, 106
1, 53519, Note_on_c, 9, 38, 0
1, 53519, Note_on_c, 9, 42, 0
1, 53519, Note_on_c, 9, 49, 0
1, 53519, Note_on_c, 9, 44, 0
1, 53520, Note_on_c, 9, 42, 97
1, 53759, Note_on_c, 9, 42, 0
1, 53760, Note_on_c, 9, 42, 127
1, 53760, Note_on_c, 9, 36, 127
1, 53999, Note_on_c, 9, 42, 0
1, 54000, Note_on_c, 9, 42, 101
1, 54239, Note_on_c, 9, 36, 0
1, 54239, Note_on_c, 9, 42, 0
1, 54240, Note_on_c, 9, 38, 107
1, 54240, Note_on_c, 9, 42, 127
1, 54255, Note_on_c, 9, 44, 97
1, 54479, Note_on_c, 9, 38, 0
1, 54479, Note_on_c, 9, 42, 0
1, 54479, Note_on_c, 9, 44, 0
1, 54480, Note_on_c, 9, 38, 107
1, 54480, Note_on_c, 9, 42, 96
1, 54495, Note_on_c, 9, 44, 99
1, 54719, Note_on_c, 9, 38, 0
1, 54719, Note_on_c, 9, 42, 0
1, 54719, Note_on_c, 9, 44, 0
1, 54720, Note_on_c, 9, 42, 127
1, 54720, Note_on_c, 9, 36, 127
1, 54959, Note_on_c, 9, 42, 0
1, 54959, Note_on_c, 9, 36, 0
1, 54960, Note_on_c, 9, 38, 108
1, 54960, Note_on_c, 9, 42, 97
1, 54975, Note_on_c, 9, 44, 95
1, 55199, Note_on_c, 9, 38, 0
1, 55199, Note_on_c, 9, 42, 0
1, 55199, Note_on_c, 9, 44, 0
1, 55200, Note_on_c, 9, 38, 111
1, 55200, Note_on_c, 9, 42, 127
1, 55200, Note_on_c, 9, 49, 96
1, 55215, Note_on_c, 9, 44, 94
1, 55439, Note_on_c, 9, 38, 0
1, 55439, Note_on_c, 9, 42, 0
1, 55439, Note_on_c, 9, 49, 0
1, 55439, Note_on_c, 9, 44, 0
1, 55440, Note_on_c, 9, 38, 118
1, 55440, Note_on_c, 9, 42, 97
1, 55455, Note_on_c, 9, 44, 104
1, 55679, Note_on_c, 9, 38, 0
1, 55679, Note_on_c, 9, 42, 0
1, 55679, Note_on_c, 9, 44, 0
1, 55680, Note_on_c, 9, 42, 127
1, 55680, Note_on_c, 9, 49, 96
1, 55680, Note_on_c, 9, 36, 127
1, 55919, Note_on_c, 9, 42, 0
1, 55919, Note_on_c, 9, 49, 0
1, 55920, Note_on_c, 9, 42, 96
1, 56159, Note_on_c, 9, 36, 0
1, 56159, Note_on_c, 9, 42, 0
1, 56160, Note_on_c, 9, 38, 116
1, 56160, Note_on_c, 9, 42, 127
1, 56175, Note_on_c, 9, 44, 102
1, 56399, Note_on_c, 9, 38, 0
1, 56399, Note_on_c, 9, 42, 0
1, 56399, Note_on_c, 9, 44, 0
1, 56400, Note_on_c, 9, 38, 107
1, 56400, Note_on_c, 9, 42, 97
1, 56415, Note_on_c, 9, 44, 93
1, 56639, Note_on_c, 9, 38, 0
1, 56639, Note_on_c, 9, 42, 0
1, 56639, Note_on_c, 9, 44, 0
1, 56640, Note_on_c, 9, 42, 127
1, 56640, Note_on_c, 9, 36, 127
1, 56879, Note_on_c, 9, 42, 0
1, 56880, Note_on_c, 9, 42, 101
1, 57119, Note_on_c, 9, 36, 0
1, 57119, Note_on_c, 9, 42, 0
1, 57120, Note_on_c, 9, 38, 120
1, 57120, Note_on_c, 9, 42, 127
1, 57135, Note_on_c, 9, 44, 107
1, 57359, Note_on_c, 9, 38, 0
1, 57359, Note_on_c, 9, 42, 0
1, 57359, Note_on_c, 9, 44, 0
1, 57360, Note_on_c, 9, 42, 100
1, 57599, Note_on_c, 9, 42, 0
1, 57600, Note_on_c, 9, 36, 127
1, 57615, Note_on_c, 9, 42, 127
1, 57839, Note_on_c, 9, 42, 0
1, 57840, Note_on_c, 9, 42, 97
1, 58079, Note_on_c, 9, 36, 0
1, 58079, Note_on_c, 9, 42, 0
1, 58080, Note_on_c, 9, 38, 107
1, 58080, Note_on_c, 9, 42, 127
1, 58095, Note_on_c, 9, 44, 98
1, 58319, Note_on_c, 9, 38, 0
1, 58319, Note_on_c, 9, 42, 0
1, 58319, Note_on_c, 9, 44, 0
1, 58320, Note_on_c, 9, 38, 110
1, 58320, Note_on_c, 9, 42, 100
1, 58335, Note_on_c, 9, 44, 97
1, 58559, Note_on_c, 9, 38, 0
1, 58559, Note_on_c, 9, 42, 0
1, 58559, Note_on_c, 9, 44, 0
1, 58560, Note_on_c, 9, 42, 127
1, 58560, Note_on_c, 9, 36, 127
1, 58799, Note_on_c, 9, 42, 0
1, 58800, Note_on_c, 9, 42, 100
1, 59039, Note_on_c, 9, 36, 0
1, 59039, Note_on_c, 9, 42, 0
1, 59040, Note_on_c, 9, 38, 121
1, 59040, Note_on_c, 9, 42, 127
1, 59055, Note_on_c, 9, 44, 106
1, 59279, Note_on_c, 9, 38, 0
1, 59279, Note_on_c, 9, 42, 0
1, 59279, Note_on_c, 9, 44, 0
1, 59280, Note_on_c, 9, 42, 101
1, 59519, Note_on_c, 9, 42, 0
1, 59520, Note_on_c, 9, 42, 127
1, 59520, Note_on_c, 9, 36, 127
1, 59759, Note_on_c, 9, 42, 0
1, 59760, Note_on_c, 9, 42, 99
1, 59999, Note_on_c, 9, 36, 0
1, 59999, Note_on_c, 9, 42, 0
1, 60000, Note_on_c, 9, 38, 109
1, 60014, Note_on_c, 9, 38, 0
1, 60015, Note_on_c, 9, 42, 127
1, 60020, Note_on_c, 9, 44, 97
1, 60059, Note_on_c, 9, 44, 0
1, 60239, Note_on_c, 9, 42, 0
1, 60240, Note_on_c, 9, 38, 110
1, 60254, Note_on_c, 9, 38, 0
1, 60255, Note_on_c, 9, 42, 101
1, 60260, Note_on_c, 9, 44, 97
1, 60299, Note_on_c, 9, 44, 0
1, 60479, Note_on_c, 9, 42, 0
1, 60480, Note_on_c, 9, 42, 127
1, 60480, Note_on_c, 9, 36, 127
1, 60719, Note_on_c, 9, 42, 0
1, 60720, Note_on_c, 9, 42, 100
1, 60959, Note_on_c, 9, 36, 0
1, 60959, Note_on_c, 9, 42, 0
1, 60960, Note_on_c, 9, 38, 112
1, 60960, Note_on_c, 9, 42, 127
1, 60975, Note_on_c, 9, 44, 95
1, 61199, Note_on_c, 9, 38, 0
1, 61199, Note_on_c, 9, 42, 0
1, 61199, Note_on_c, 9, 44, 0
1, 61200, Note_on_c, 9, 42, 100
1, 61439, Note_on_c, 9, 42, 0
1, 61440, Note_on_c, 9, 42, 127
1, 61440, Note_on_c, 9, 36, 127
1, 61679, Note_on_c, 9, 42, 0
1, 61680, Note_on_c, 9, 42, 96
1, 61919, Note_on_c, 9, 36, 0
1, 61919, Note_on_c, 9, 42, 0
1, 61920, Note_on_c, 9, 38, 111
1, 61920, Note_on_c, 9, 42, 127
1, 61940, Note_on_c, 9, 44, 96
1, 61979, Note_on_c, 9, 44, 0
1, 62159, Note_on_c, 9, 38, 0
1, 62159, Note_on_c, 9, 42, 0
1, 62160, Note_on_c, 9, 38, 107
1, 62160, Note_on_c, 9, 42, 101
1, 62175, Note_on_c, 9, 44, 93
1, 62399, Note_on_c, 9, 38, 0
1, 62399, Note_on_c, 9, 42, 0
1, 62399, Note_on_c, 9, 44, 0
1, 62400, Note_on_c, 9, 50, 96
1, 62400, Note_on_c, 9, 42, 127
1, 62400, Note_on_c, 9, 36, 127
1, 62519, Note_on_c, 9, 50, 0
1, 62519, Note_on_c, 9, 42, 0
1, 62520, Note_on_c, 9, 50, 101
1, 62639, Note_on_c, 9, 50, 0
1, 62640, Note_on_c, 9, 42, 99
1, 62759, Note_on_c, 9, 42, 0
1, 62760, Note_on_c, 9, 50, 99
1, 62879, Note_on_c, 9, 36, 0
1, 62879, Note_on_c, 9, 50, 0
1, 62880, Note_on_c, 9, 38, 108
1, 62880, Note_on_c, 9, 47, 100
1, 62880, Note_on_c, 9, 42, 127
1, 62895, Note_on_c, 9, 44, 96
1, 63119, Note_on_c, 9, 38, 0
1, 63119, Note_on_c, 9, 47, 0
1, 63119, Note_on_c, 9, 42, 0
1, 63119, Note_on_c, 9, 44, 0
1, 63120, Note_on_c, 9, 47, 96
1, 63120, Note_on_c, 9, 42, 98
1, 63359, Note_on_c, 9, 47, 0
1, 63359, Note_on_c, 9, 42, 0
1, 63360, Note_on_c, 9, 36, 127
1, 63375, Note_on_c, 9, 42, 127
1, 63375, Note_on_c, 9, 49, 95
1, 63599, Note_on_c, 9, 42, 0
1, 63599, Note_on_c, 9, 49, 0
1, 63600, Note_on_c, 9, 42, 100
1, 63839, Note_on_c, 9, 36, 0
1, 63839, Note_on_c, 9, 42, 0
1, 63840, Note_on_c, 9, 38, 107
1, 63840, Note_on_c, 9, 42, 127
1, 63855, Note_on_c, 9, 44, 96
1, 64079, Note_on_c, 9, 38, 0
1, 64079, Note_on_c, 9, 42, 0
1, 64079, Note_on_c, 9, 44, 0
1, 64080, Note_on_c, 9, 38, 110
1, 64094, Note_on_c, 9, 38, 0
1, 64095, Note_on_c, 9, 42, 99
1, 64100, Note_on_c, 9, 44, 94
1, 64139, Note_on_c, 9, 44, 0
1, 64319, Note_on_c, 9, 42, 0
1, 64320, Note_on_c, 9, 42, 127
1, 64320, Note_on_c, 9, 36, 127
1, 64559, Note_on_c, 9, 42, 0
1, 64560, Note_on_c, 9, 42, 100
1, 64799, Note_on_c, 9, 36, 0
1, 64799, Note_on_c, 9, 42, 0
1, 64800, Note_on_c, 9, 38, 107
1, 64800, Note_on_c, 9, 42, 127
1, 64820, Note_on_c, 9, 44, 99
1, 64859, Note_on_c, 9, 44, 0
1, 65039, Note_on_c, 9, 38, 0
1, 65039, Note_on_c, 9, 42, 0
1, 65040, Note_on_c, 9, 42, 96
1, 65279, Note_on_c, 9, 42, 0
1, 65280, Note_on_c, 9, 42, 127
1, 65280, Note_on_c, 9, 36, 127
1, 65519, Note_on_c, 9, 42, 0
1, 65520, Note_on_c, 9, 42, 101
1, 65759, Note_on_c, 9, 36, 0
1, 65759, Note_on_c, 9, 42, 0
1, 65760, Note_on_c, 9, 38, 118
1, 65760, Note_on_c, 9, 42, 127
1, 65775, Note_on_c, 9, 44, 103
1, 65999, Note_on_c, 9, 38, 0
1, 65999, Note_on_c, 9, 42, 0
1, 65999, Note_on_c, 9, 44, 0
1, 66000, Note_on_c, 9, 38, 107
1, 66000, Note_on_c, 9, 42, 99
1, 66015, Note_on_c, 9, 44, 96
1, 66239, Note_on_c, 9, 38, 0
1, 66239, Note_on_c, 9, 42, 0
1, 66239, Note_on_c, 9, 44, 0
1, 66240, Note_on_c, 9, 42, 127
1, 66240, Note_on_c, 9, 36, 127
1, 66479, Note_on_c, 9, 42, 0
1, 66480, Note_on_c, 9, 42, 96
1, 66719, Note_on_c, 9, 36, 0
1, 66719, Note_on_c, 9, 42, 0
1, 66720, Note_on_c, 9, 38, 120
1, 66720, Note_on_c, 9, 42, 127
1, 66735, Note_on_c, 9, 44, 106
1, 66959, Note_on_c, 9, 38, 0
1, 66959, Note_on_c, 9, 42, 0
1, 66959, Note_on_c, 9, 44, 0
1, 66960, Note_on_c, 9, 42, 101
1, 67199, Note_on_c, 9, 42, 0
1, 67200, Note_on_c, 9, 36, 127
1, 67215, Note_on_c, 9, 42, 127
1, 67439, Note_on_c, 9, 42, 0
1, 67440, Note_on_c, 9, 42, 97
1, 67679, Note_on_c, 9, 36, 0
1, 67679, Note_on_c, 9, 42, 0
1, 67680, Note_on_c, 9, 38, 109
1, 67680, Note_on_c, 9, 42, 127
1, 67695, Note_on_c, 9, 44, 94
1, 67919, Note_on_c, 9, 38, 0
1, 67919, Note_on_c, 9, 42, 0
1, 67919, Note_on_c, 9, 44, 0
1, 67920, Note_on_c, 9, 38, 110
1, 67920, Note_on_c, 9, 42, 99
1, 67935, Note_on_c, 9, 44, 96
1, 68159, Note_on_c, 9, 38, 0
1, 68159, Note_on_c, 9, 42, 0
1, 68159, Note_on_c, 9, 44, 0
1, 68160, Note_on_c, 9, 42, 127
1, 68160, Note_on_c, 9, 36, 127
1, 68399, Note_on_c, 9, 42, 0
1, 68400, Note_on_c, 9, 42, 101
1, 68639, Note_on_c, 9, 36, 0
1, 68639, Note_on_c, 9, 42, 0
1, 68640, Note_on_c, 9, 38, 119
1, 68640, Note_on_c, 9, 42, 127
1, 68655, Note_on_c, 9, 44, 103
1, 68879, Note_on_c, 9, 38, 0
1, 68879, Note_on_c, 9, 42, 0
1, 68879, Note_on_c, 9, 44, 0
1, 68880, Note_on_c, 9, 42, 99
1, 69119, Note_on_c, 9, 42, 0
1, 69120, Note_on_c, 9, 36, 127
1, 69135, Note_on_c, 9, 38, 111
1, 69135, Note_on_c, 9, 42, 127
1, 69139, Note_on_c, 9, 36, 0
1, 69140, Note_on_c, 9, 44, 97
1, 69179, Note_on_c, 9, 44, 0
1, 69359, Note_on_c, 9, 38, 0
1, 69359, Note_on_c, 9, 42, 0
1, 69360, Note_on_c, 9, 42, 99
1, 69599, Note_on_c, 9, 42, 0
1, 69600, Note_on_c, 9, 38, 109
1, 69600, Note_on_c, 9, 42, 127
1, 69615, Note_on_c, 9, 44, 95
1, 69839, Note_on_c, 9, 38, 0
1, 69839, Note_on_c, 9, 42, 0
1, 69839, Note_on_c, 9, 44, 0
1, 69840, Note_on_c, 9, 42, 96
1, 70079, Note_on_c, 9, 42, 0
1, 70080, Note_on_c, 9, 38, 107
1, 70080, Note_on_c, 9, 42, 127
1, 70080, Note_on_c, 9, 36, 127
1, 70094, Note_on_c, 9, 36, 0
1, 70095, Note_on_c, 9, 44, 95
1, 70319, Note_on_c, 9, 38, 0
1, 70319, Note_on_c, 9, 42, 0
1, 70319, Note_on_c, 9, 44, 0
1, 70320, Note_on_c, 9, 42, 96
1, 70559, Note_on_c, 9, 42, 0
1, 70560, Note_on_c, 9, 38, 111
1, 70560, Note_on_c, 9, 42, 127
1, 70575, Note_on_c, 9, 44, 93
1, 70799, Note_on_c, 9, 38, 0
1, 70799, Note_on_c, 9, 42, 0
1, 70799, Note_on_c, 9, 44, 0
1, 70800, Note_on_c, 9, 42, 97
1, 71039, Note_on_c, 9, 42, 0
1, 71040, Note_on_c, 9, 42, 127
1, 71040, Note_on_c, 9, 36, 127
1, 71279, Note_on_c, 9, 42, 0
1, 71280, Note_on_c, 9, 42, 97
1, 71519, Note_on_c, 9, 36, 0
1, 71519, Note_on_c, 9, 42, 0
1, 71520, Note_on_c, 9, 38, 111
1, 71534, Note_on_c, 9, 38, 0
1, 71535, Note_on_c, 9, 42, 127
1, 71535, Note_on_c, 9, 44, 95
1, 71759, Note_on_c, 9, 42, 0
1, 71759, Note_on_c, 9, 44, 0
1, 71760, Note_on_c, 9, 38, 117
1, 71760, Note_on_c, 9, 42, 99
1, 71760, Note_on_c, 9, 49, 96
1, 71780, Note_on_c, 9, 44, 102
1, 71819, Note_on_c, 9, 44, 0
1, 71999, Note_on_c, 9, 38, 0
1, 71999, Note_on_c, 9, 42, 0
1, 71999, Note_on_c, 9, 49, 0
1, 72000, Note_on_c, 9, 42, 127
1, 72000, Note_on_c, 9, 36, 127
1, 72239, Note_on_c, 9, 42, 0
1, 72240, Note_on_c, 9, 42, 96
1, 72479, Note_on_c, 9, 36, 0
1, 72479, Note_on_c, 9, 42, 0
1, 72480, Note_on_c, 9, 38, 111
1, 72480, Note_on_c, 9, 42, 127
1, 72495, Note_on_c, 9, 44, 95
1, 72719, Note_on_c, 9, 38, 0
1, 72719, Note_on_c, 9, 42, 0
1, 72719, Note_on_c, 9, 44, 0
1, 72720, Note_on_c, 9, 42, 99
1, 72959, Note_on_c, 9, 42, 0
1, 72960, Note_on_c, 9, 42, 127
1, 72960, Note_on_c, 9, 36, 127
1, 73199, Note_on_c, 9, 42, 0
1, 73200, Note_on_c, 9, 42, 98
1, 73439, Note_on_c, 9, 36, 0
1, 73439, Note_on_c, 9, 42, 0
1, 73440, Note_on_c, 9, 38, 112
1, 73454, Note_on_c, 9, 38, 0
1, 73455, Note_on_c, 9, 42, 127
1, 73455, Note_on_c, 9, 44, 99
1, 73679, Note_on_c, 9, 42, 0
1, 73679, Note_on_c, 9, 44, 0
1, 73680, Note_on_c, 9, 38, 109
1, 73680, Note_on_c, 9, 42, 98
1, 73680, Note_on_c, 9, 49, 95
1, 73695, Note_on_c, 9, 44, 96
1, 73919, Note_on_c, 9, 38, 0
1, 73919, Note_on_c, 9, 42, 0
1, 73919, Note_on_c, 9, 49, 0
1, 73919, Note_on_c, 9, 44, 0
1, 73920, Note_on_c, 9, 42, 127
1, 73920, Note_on_c, 9, 36, 127
1, 74159, Note_on_c, 9, 42, 0
1, 74160, Note_on_c, 9, 42, 98
1, 74399, Note_on_c, 9, 36, 0
1, 74399, Note_on_c, 9, 42, 0
1, 74400, Note_on_c, 9, 38, 107
1, 74400, Note_on_c, 9, 42, 127
1, 74400, Note_on_c, 9, 44, 94
1, 74639, Note_on_c, 9, 38, 0
1, 74639, Note_on_c, 9, 42, 0
1, 74640, Note_on_c, 9, 42, 99
1, 74879, Note_on_c, 9, 44, 0
1, 74879, Note_on_c, 9, 42, 0
1, 74880, Note_on_c, 9, 42, 127
1, 74880, Note_on_c, 9, 36, 127
1, 75119, Note_on_c, 9, 42, 0
1, 75120, Note_on_c, 9, 42, 99
1, 75359, Note_on_c, 9, 36, 0
1, 75359, Note_on_c, 9, 42, 0
1, 75360, Note_on_c, 9, 38, 107
1, 75360, Note_on_c, 9, 42, 127
1, 75360, Note_on_c, 9, 49, 98
1, 75380, Note_on_c, 9, 44, 96
1, 75419, Note_on_c, 9, 44, 0
1, 75599, Note_on_c, 9, 38, 0
1, 75599, Note_on_c, 9, 42, 0
1, 75599, Note_on_c, 9, 49, 0
1, 75600, Note_on_c, 9, 42, 96
1, 75839, Note_on_c, 9, 42, 0
1, 75840, Note_on_c, 9, 36, 127
1, 75855, Note_on_c, 9, 42, 127
1, 76079, Note_on_c, 9, 42, 0
1, 76080, Note_on_c, 9, 42, 96
1, 76319, Note_on_c, 9, 36, 0
1, 76319, Note_on_c, 9, 42, 0
1, 76320, Note_on_c, 9, 38, 112
1, 76320, Note_on_c, 9, 42, 127
1, 76320, Note_on_c, 9, 49, 93
1, 76335, Note_on_c, 9, 44, 95
1, 76559, Note_on_c, 9, 38, 0
1, 76559, Note_on_c, 9, 42, 0
1, 76559, Note_on_c, 9, 49, 0
1, 76559, Note_on_c, 9, 44, 0
1, 76560, Note_on_c, 9, 42, 101
1, 76799, Note_on_c, 9, 42, 0
1, 76800, Note_on_c, 9, 42, 127
1, 76800, Note_on_c, 9, 36, 127
1, 77039, Note_on_c, 9, 42, 0
1, 77040, Note_on_c, 9, 42, 97
1, 77279, Note_on_c, 9, 36, 0
1, 77279, Note_on_c, 9, 42, 0
1, 77280, Note_on_c, 9, 38, 112
1, 77280, Note_on_c, 9, 42, 127
1, 77280, Note_on_c, 9, 49, 94
1, 77300, Note_on_c, 9, 44, 94
1, 77339, Note_on_c, 9, 44, 0
1, 77519, Note_on_c, 9, 38, 0
1, 77519, Note_on_c, 9, 42, 0
1, 77519, Note_on_c, 9, 49, 0
1, 77520, Note_on_c, 9, 42, 98
1, 77759, Note_on_c, 9, 42, 0
1, 77760, Note_on_c, 9, 42, 127
1, 77760, Note_on_c, 9, 36, 127
1, 77984, Note_on_c, 9, 42, 0
1, 77985, Note_on_c, 9, 42, 101
1, 77999, Note_on_c, 9, 42, 0
1, 78239, Note_on_c, 9, 36, 0
1, 78240, Note_on_c, 9, 38, 109
1, 78240, Note_on_c, 9, 42, 127
1, 78240, Note_on_c, 9, 49, 98
1, 78255, Note_on_c, 9, 44, 96
1, 78479, Note_on_c, 9, 38, 0
1, 78479, Note_on_c, 9, 42, 0
1, 78479, Note_on_c, 9, 49, 0
1, 78479, Note_on_c, 9, 44, 0
1, 78480, Note_on_c, 9, 42, 100
1, 78719, Note_on_c, 9, 42, 0
1, 78720, Note_on_c, 9, 42, 127
1, 78720, Note_on_c, 9, 36, 127
1, 78959, Note_on_c, 9, 42, 0
1, 78960, Note_on_c, 9, 42, 99
1, 79199, Note_on_c, 9, 36, 0
1, 79199, Note_on_c, 9, 42, 0
1, 79200, Note_on_c, 9, 38, 111
1, 79214, Note_on_c, 9, 38, 0
1, 79215, Note_on_c, 9, 42, 127
1, 79215, Note_on_c, 9, 44, 93
1, 79439, Note_on_c, 9, 42, 0
1, 79439, Note_on_c, 9, 44, 0
1, 79440, Note_on_c, 9, 42, 96
1, 79679, Note_on_c, 9, 42, 0
1, 79680, Note_on_c, 9, 42, 127
1, 79680, Note_on_c, 9, 36, 127
1, 79919, Note_on_c, 9, 42, 0
1, 79920, Note_on_c, 9, 42, 99
1, 80159, Note_on_c, 9, 36, 0
1, 80159, Note_on_c, 9, 42, 0
1, 80160, Note_on_c, 9, 38, 112
1, 80160, Note_on_c, 9, 42, 127
1, 80175, Note_on_c, 9, 44, 96
1, 80399, Note_on_c, 9, 38, 0
1, 80399, Note_on_c, 9, 42, 0
1, 80399, Note_on_c, 9, 44, 0
1, 80400, Note_on_c, 9, 42, 99
1, 80639, Note_on_c, 9, 42, 0
1, 80640, Note_on_c, 9, 42, 127
1, 80640, Note_on_c, 9, 36, 127
1, 80879, Note_on_c, 9, 42, 0
1, 80880, Note_on_c, 9, 42, 101
1, 81119, Note_on_c, 9, 36, 0
1, 81119, Note_on_c, 9, 42, 0
1, 81120, Note_on_c, 9, 38, 107
1, 81120, Note_on_c, 9, 42, 127
1, 81135, Note_on_c, 9, 44, 97
1, 81359, Note_on_c, 9, 38, 0
1, 81359, Note_on_c, 9, 42, 0
1, 81359, Note_on_c, 9, 44, 0
1, 81360, Note_on_c, 9, 42, 101
1, 81599, Note_on_c, 9, 42, 0
1, 81600, Note_on_c, 9, 42, 127
1, 81600, Note_on_c, 9, 36, 127
1, 81839, Note_on_c, 9, 42, 0
1, 81840, Note_on_c, 9, 42, 100
1, 82079, Note_on_c, 9, 36, 0
1, 82079, Note_on_c, 9, 42, 0
1, 82080, Note_on_c, 9, 38, 121
1, 82094, Note_on_c, 9, 38, 0
1, 82095, Note_on_c, 9, 42, 127
1, 82095, Note_on_c, 9, 44, 104
1, 82319, Note_on_c, 9, 42, 0
1, 82319, Note_on_c, 9, 44, 0
1, 82320, Note_on_c, 9, 38, 107
1, 82320, Note_on_c, 9, 42, 97
1, 82320, Note_on_c, 9, 44, 97
1, 82559, Note_on_c, 9, 38, 0
1, 82559, Note_on_c, 9, 42, 0
1, 82559, Note_on_c, 9, 44, 0
1, 82560, Note_on_c, 9, 42, 127
1, 82560, Note_on_c, 9, 36, 127
1, 82799, Note_on_c, 9, 42, 0
1, 82800, Note_on_c, 9, 42, 99
1, 83039, Note_on_c, 9, 36, 0
1, 83039, Note_on_c, 9, 42, 0
1, 83040, Note_on_c, 9, 38, 108
1, 83040, Note_on_c, 9, 42, 127
1, 83055, Note_on_c, 9, 44, 96
1, 83279, Note_on_c, 9, 38, 0
1, 83279, Note_on_c, 9, 42, 0
1, 83279, Note_on_c, 9, 44, 0
1, 83280, Note_on_c, 9, 42, 98
1, 83519, Note_on_c, 9, 42, 0
1, 83520, Note_on_c, 9, 42, 127
1, 83520, Note_on_c, 9, 36, 127
1, 83759, Note_on_c, 9, 42, 0
1, 83760, Note_on_c, 9, 42, 97
1, 83999, Note_on_c, 9, 36, 0
1, 83999, Note_on_c, 9, 42, 0
1, 84000, Note_on_c, 9, 38, 112
1, 84014, Note_on_c, 9, 38, 0
1, 84015, Note_on_c, 9, 42, 127
1, 84015, Note_on_c, 9, 44, 98
1, 84239, Note_on_c, 9, 42, 0
1, 84239, Note_on_c, 9, 44, 0
1, 84240, Note_on_c, 9, 42, 101
1, 84479, Note_on_c, 9, 42, 0
1, 84480, Note_on_c, 9, 42, 127
1, 84480, Note_on_c, 9, 36, 127
1, 84719, Note_on_c, 9, 42, 0
1, 84719, Note_on_c, 9, 36, 0
1, 84720, Note_on_c, 9, 38, 109
1, 84720, Note_on_c, 9, 42, 99
1, 84735, Note_on_c, 9, 44, 96
1, 84959, Note_on_c, 9, 38, 0
1, 84959, Note_on_c, 9, 42, 0
1, 84959, Note_on_c, 9, 44, 0
1, 84960, Note_on_c, 9, 38, 108
1, 84974, Note_on_c, 9, 38, 0
1, 84975, Note_on_c, 9, 42, 127
1, 84975, Note_on_c, 9, 44, 97
1, 85199, Note_on_c, 9, 42, 0
1, 85199, Note_on_c, 9, 44, 0
1, 85200, Note_on_c, 9, 42, 99
1, 85439, Note_on_c, 9, 42, 0
1, 85440, Note_on_c, 9, 38, 112
1, 85440, Note_on_c, 9, 42, 127
1, 85440, Note_on_c, 9, 36, 127
1, 85454, Note_on_c, 9, 36, 0
1, 85455, Note_on_c, 9, 44, 93
1, 85679, Note_on_c, 9, 38, 0
1, 85679, Note_on_c, 9, 42, 0
1, 85679, Note_on_c, 9, 44, 0
1, 85680, Note_on_c, 9, 42, 99
1, 85919, Note_on_c, 9, 42, 0
1, 85920, Note_on_c, 9, 38, 117
1, 85920, Note_on_c, 9, 42, 127
1, 85935, Note_on_c, 9, 44, 102
1, 86159, Note_on_c, 9, 38, 0
1, 86159, Note_on_c, 9, 42, 0
1, 86159, Note_on_c, 9, 44, 0
1, 86160, Note_on_c, 9, 38, 107
1, 86160, Note_on_c, 9, 42, 96
1, 86160, Note_on_c, 9, 49, 98
1, 86175, Note_on_c, 9, 44, 96
1, 86399, Note_on_c, 9, 38, 0
1, 86399, Note_on_c, 9, 42, 0
1, 86399, Note_on_c, 9, 49, 0
1, 86399, Note_on_c, 9, 44, 0
1, 86400, Note_on_c, 9, 42, 127
1, 86400, Note_on_c, 9, 36, 127
1, 86639, Note_on_c, 9, 42, 0
1, 86640, Note_on_c, 9, 42, 100
1, 86879, Note_on_c, 9, 36, 0
1, 86879, Note_on_c, 9, 42, 0
1, 86880, Note_on_c, 9, 38, 109
1, 86880, Note_on_c, 9, 42, 127
1, 86895, Note_on_c, 9, 44, 96
1, 87119, Note_on_c, 9, 38, 0
1, 87119, Note_on_c, 9, 42, 0
1, 87119, Note_on_c, 9, 44, 0
1, 87120, Note_on_c, 9, 42, 99
1, 87359, Note_on_c, 9, 42, 0
1, 87360, Note_on_c, 9, 42, 127
1, 87360, Note_on_c, 9, 36, 127
1, 87599, Note_on_c, 9, 42, 0
1, 87600, Note_on_c, 9, 42, 99
1, 87839, Note_on_c, 9, 36, 0
1, 87839, Note_on_c, 9, 42, 0
1, 87840, Note_on_c, 9, 38, 107
1, 87854, Note_on_c, 9, 38, 0
1, 87855, Note_on_c, 9, 42, 127
1, 87855, Note_on_c, 9, 44, 94
1, 88079, Note_on_c, 9, 42, 0
1, 88079, Note_on_c, 9, 44, 0
1, 88080, Note_on_c, 9, 42, 96
1, 88319, Note_on_c, 9, 42, 0
1, 88320, Note_on_c, 9, 42, 127
1, 88320, Note_on_c, 9, 36, 127
1, 88559, Note_on_c, 9, 42, 0
1, 88560, Note_on_c, 9, 42, 100
1, 88799, Note_on_c, 9, 36, 0
1, 88799, Note_on_c, 9, 42, 0
1, 88800, Note_on_c, 9, 38, 112
1, 88800, Note_on_c, 9, 42, 127
1, 88815, Note_on_c, 9, 44, 98
1, 89039, Note_on_c, 9, 38, 0
1, 89039, Note_on_c, 9, 42, 0
1, 89039, Note_on_c, 9, 44, 0
1, 89040, Note_on_c, 9, 42, 99
1, 89279, Note_on_c, 9, 42, 0
1, 89280, Note_on_c, 9, 42, 127
1, 89280, Note_on_c, 9, 36, 127
1, 89519, Note_on_c, 9, 42, 0
1, 89520, Note_on_c, 9, 42, 98
1, 89759, Note_on_c, 9, 36, 0
1, 89759, Note_on_c, 9, 42, 0
1, 89760, Note_on_c, 9, 38, 109
1, 89760, Note_on_c, 9, 42, 127
1, 89775, Note_on_c, 9, 44, 96
1, 89999, Note_on_c, 9, 38, 0
1, 89999, Note_on_c, 9, 42, 0
1, 89999, Note_on_c, 9, 44, 0
1, 90000, Note_on_c, 9, 38, 111
1, 90000, Note_on_c, 9, 42, 100
1, 90000, Note_on_c, 9, 44, 96
1, 90239, Note_on_c, 9, 38, 0
1, 90239, Note_on_c, 9, 42, 0
1, 90239, Note_on_c, 9, 44, 0
1, 90240, Note_on_c, 9, 42, 127
1, 90240, Note_on_c, 9, 36, 127
1, 90479, Note_on_c, 9, 42, 0
1, 90480, Note_on_c, 9, 42, 98
1, 90719, Note_on_c, 9, 36, 0
1, 90719, Note_on_c, 9, 42, 0
1, 90720, Note_on_c, 9, 38, 110
1, 90720, Note_on_c, 9, 42, 127
1, 90735, Note_on_c, 9, 44, 94
1, 90959, Note_on_c, 9, 38, 0
1, 90959, Note_on_c, 9, 42, 0
1, 90959, Note_on_c, 9, 44, 0
1, 90960, Note_on_c, 9, 42, 99
1, 91199, Note_on_c, 9, 42, 0
1, 91200, Note_on_c, 9, 42, 127
1, 91200, Note_on_c, 9, 36, 127
1, 91439, Note_on_c, 9, 42, 0
1, 91440, Note_on_c, 9, 42, 97
1, 91679, Note_on_c, 9, 36, 0
1, 91679, Note_on_c, 9, 42, 0
1, 91680, Note_on_c, 9, 38, 108
1, 91680, Note_on_c, 9, 42, 127
1, 91695, Note_on_c, 9, 44, 97
1, 91919, Note_on_c, 9, 38, 0
1, 91919, Note_on_c, 9, 42, 0
1, 91919, Note_on_c, 9, 44, 0
1, 91920, Note_on_c, 9, 42, 97
1, 92159, Note_on_c, 9, 42, 0
1, 92160, Note_on_c, 9, 36, 127
1, 92175, Note_on_c, 9, 42, 127
1, 92399, Note_on_c, 9, 42, 0
1, 92400, Note_on_c, 9, 42, 100
1, 92639, Note_on_c, 9, 36, 0
1, 92639, Note_on_c, 9, 42, 0
1, 92640, Note_on_c, 9, 38, 108
1, 92640, Note_on_c, 9, 42, 127
1, 92655, Note_on_c, 9, 44, 93
1, 92879, Note_on_c, 9, 38, 0
1, 92879, Note_on_c, 9, 42, 0
1, 92879, Note_on_c, 9, 44, 0
1, 92880, Note_on_c, 9, 38, 112
1, 92894, Note_on_c, 9, 38, 0
1, 92895, Note_on_c, 9, 42, 97
1, 92895, Note_on_c, 9, 44, 97
1, 93119, Note_on_c, 9, 42, 0
1, 93119, Note_on_c, 9, 44, 0
1, 93120, Note_on_c, 9, 42, 127
1, 93120, Note_on_c, 9, 36, 127
1, 93359, Note_on_c, 9, 42, 0
1, 93360, Note_on_c, 9, 42, 98
1, 93599, Note_on_c, 9, 36, 0
1, 93599, Note_on_c, 9, 42, 0
1, 93600, Note_on_c, 9, 38, 120
1, 93600, Note_on_c, 9, 42, 127
1, 93600, Note_on_c, 9, 44, 104
1, 93839, Note_on_c, 9, 38, 0
1, 93839, Note_on_c, 9, 42, 0
1, 93839, Note_on_c, 9, 44, 0
1, 93840, Note_on_c, 9, 38, 109
1, 93840, Note_on_c, 9, 46, 110
1, 93840, Note_on_c, 9, 44, 93
1, 94079, Note_on_c, 9, 38, 0
1, 94079, Note_on_c, 9, 46, 0
1, 94079, Note_on_c, 9, 44, 0
1, 94080, Note_on_c, 9, 42, 127
1, 94080, Note_on_c, 9, 36, 127
1, 94319, Note_on_c, 9, 42, 0
1, 94320, Note_on_c, 9, 42, 101
1, 94559, Note_on_c, 9, 36, 0
1, 94559, Note_on_c, 9, 42, 0
1, 94560, Note_on_c, 9, 38, 119
1, 94560, Note_on_c, 9, 42, 127
1, 94575, Note_on_c, 9, 44, 102
1, 94799, Note_on_c, 9, 38, 0
1, 94799, Note_on_c, 9, 42, 0
1, 94799, Note_on_c, 9, 44, 0
1, 94800, Note_on_c, 9, 42, 98
1, 95039, Note_on_c, 9, 42, 0
1, 95040, Note_on_c, 9, 42, 127
1, 95040, Note_on_c, 9, 36, 127
1, 95279, Note_on_c, 9, 42, 0
1, 95280, Note_on_c, 9, 42, 100
1, 95519, Note_on_c, 9, 36, 0
1, 95519, Note_on_c, 9, 42, 0
1, 95520, Note_on_c, 9, 38, 107
1, 95534, Note_on_c, 9, 38, 0
1, 95535, Note_on_c, 9, 42, 127
1, 95535, Note_on_c, 9, 44, 97
1, 95759, Note_on_c, 9, 42, 0
1, 95759, Note_on_c, 9, 44, 0
1, 95760, Note_on_c, 9, 42, 97
1, 95999, Note_on_c, 9, 42, 0
1, 96000, Note_on_c, 9, 42, 127
1, 96000, Note_on_c, 9, 36, 127
1, 96239, Note_on_c, 9, 42, 0
1, 96240, Note_on_c, 9, 42, 98
1, 96479, Note_on_c, 9, 36, 0
1, 96479, Note_on_c, 9, 42, 0
1, 96480, Note_on_c, 9, 38, 110
1, 96480, Note_on_c, 9, 42, 127
1, 96480, Note_on_c, 9, 44, 93
1, 96719, Note_on_c, 9, 38, 0
1, 96719, Note_on_c, 9, 42, 0
1, 96720, Note_on_c, 9, 42, 102
1, 96959, Note_on_c, 9, 44, 0
1, 96959, Note_on_c, 9, 42, 0
1, 96960, Note_on_c, 9, 42, 127
1, 96960, Note_on_c, 9, 36, 127
1, 97199, Note_on_c, 9, 42, 0
1, 97200, Note_on_c, 9, 42, 98
1, 97439, Note_on_c, 9, 36, 0
1, 97439, Note_on_c, 9, 42, 0
1, 97440, Note_on_c, 9, 38, 110
1, 97440, Note_on_c, 9, 42, 127
1, 97440, Note_on_c, 9, 44, 95
1, 97679, Note_on_c, 9, 38, 0
1, 97679, Note_on_c, 9, 42, 0
1, 97679, Note_on_c, 9, 44, 0
1, 97680, Note_on_c, 9, 38, 107
1, 97680, Note_on_c, 9, 46, 108
1, 97680, Note_on_c, 9, 44, 97
1, 97919, Note_on_c, 9, 38, 0
1, 97919, Note_on_c, 9, 46, 0
1, 97919, Note_on_c, 9, 44, 0
1, 97920, Note_on_c, 9, 42, 127
1, 97920, Note_on_c, 9, 36, 127
1, 98159, Note_on_c, 9, 42, 0
1, 98160, Note_on_c, 9, 42, 98
1, 98399, Note_on_c, 9, 36, 0
1, 98399, Note_on_c, 9, 42, 0
1, 98400, Note_on_c, 9, 38, 121
1, 98400, Note_on_c, 9, 42, 127
1, 98415, Note_on_c, 9, 44, 104
1, 98639, Note_on_c, 9, 38, 0
1, 98639, Note_on_c, 9, 42, 0
1, 98639, Note_on_c, 9, 44, 0
1, 98640, Note_on_c, 9, 42, 98
1, 98879, Note_on_c, 9, 42, 0
1, 98880, Note_on_c, 9, 36, 127
1, 98895, Note_on_c, 9, 42, 127
1, 99119, Note_on_c, 9, 42, 0
1, 99120, Note_on_c, 9, 42, 100
1, 99359, Note_on_c, 9, 36, 0
1, 99359, Note_on_c, 9, 42, 0
1, 99360, Note_on_c, 9, 38, 111
1, 99360, Note_on_c, 9, 42, 127
1, 99375, Note_on_c, 9, 44, 95
1, 99599, Note_on_c, 9, 38, 0
1, 99599, Note_on_c, 9, 42, 0
1, 99599, Note_on_c, 9, 44, 0
1, 99600, Note_on_c, 9, 42, 97
1, 99839, Note_on_c, 9, 42, 0
1, 99840, Note_on_c, 9, 36, 127
1, 99855, Note_on_c, 9, 42, 127
1, 100079, Note_on_c, 9, 42, 0
1, 100080, Note_on_c, 9, 42, 99
1, 100319, Note_on_c, 9, 36, 0
1, 100319, Note_on_c, 9, 42, 0
1, 100320, Note_on_c, 9, 38, 108
1, 100320, Note_on_c, 9, 42, 127
1, 100335, Note_on_c, 9, 44, 96
1, 100559, Note_on_c, 9, 38, 0
1, 100559, Note_on_c, 9, 42, 0
1, 100559, Note_on_c, 9, 44, 0
1, 100560, Note_on_c, 9, 42, 100
1, 100799, Note_on_c, 9, 42, 0
1, 100800, Note_on_c, 9, 36, 127
1, 100815, Note_on_c, 9, 42, 127
1, 101039, Note_on_c, 9, 36, 0
1, 101039, Note_on_c, 9, 42, 0
1, 101040, Note_on_c, 9, 38, 110
1, 101040, Note_on_c, 9, 42, 98
1, 101055, Note_on_c, 9, 44, 96
1, 101279, Note_on_c, 9, 38, 0
1, 101279, Note_on_c, 9, 42, 0
1, 101279, Note_on_c, 9, 44, 0
1, 101280, Note_on_c, 9, 38, 108
1, 101280, Note_on_c, 9, 42, 127
1, 101295, Note_on_c, 9, 44, 95
1, 101519, Note_on_c, 9, 38, 0
1, 101519, Note_on_c, 9, 42, 0
1, 101519, Note_on_c, 9, 44, 0
1, 101520, Note_on_c, 9, 38, 109
1, 101520, Note_on_c, 9, 46, 106
1, 101535, Note_on_c, 9, 44, 93
1, 101759, Note_on_c, 9, 38, 0
1, 101759, Note_on_c, 9, 46, 0
1, 101759, Note_on_c, 9, 44, 0
1, 101760, Note_on_c, 9, 42, 127
1, 101760, Note_on_c, 9, 36, 127
1, 101999, Note_on_c, 9, 42, 0
1, 102000, Note_on_c, 9, 42, 99
1, 102239, Note_on_c, 9, 36, 0
1, 102239, Note_on_c, 9, 42, 0
1, 102240, Note_on_c, 9, 38, 109
1, 102240, Note_on_c, 9, 42, 127
1, 102255, Note_on_c, 9, 44, 94
1, 102479, Note_on_c, 9, 38, 0
1, 102479, Note_on_c, 9, 42, 0
1, 102479, Note_on_c, 9, 44, 0
1, 102480, Note_on_c, 9, 42, 96
1, 102719, Note_on_c, 9, 42, 0
1, 102720, Note_on_c, 9, 36, 127
1, 102735, Note_on_c, 9, 42, 127
1, 102959, Note_on_c, 9, 42, 0
1, 102960, Note_on_c, 9, 42, 101
1, 103199, Note_on_c, 9, 36, 0
1, 103199, Note_on_c, 9, 42, 0
1, 103200, Note_on_c, 9, 38, 119
1, 103200, Note_on_c, 9, 42, 127
1, 103200, Note_on_c, 9, 44, 103
1, 103439, Note_on_c, 9, 38, 0
1, 103439, Note_on_c, 9, 42, 0
1, 103440, Note_on_c, 9, 42, 98
1, 103679, Note_on_c, 9, 44, 0
1, 103679, Note_on_c, 9, 42, 0
1, 103680, Note_on_c, 9, 42, 127
1, 103680, Note_on_c, 9, 36, 127
1, 103919, Note_on_c, 9, 42, 0
1, 103920, Note_on_c, 9, 42, 96
1, 104159, Note_on_c, 9, 36, 0
1, 104159, Note_on_c, 9, 42, 0
1, 104160, Note_on_c, 9, 38, 118
1, 104160, Note_on_c, 9, 42, 127
1, 104160, Note_on_c, 9, 44, 105
1, 104399, Note_on_c, 9, 38, 0
1, 104399, Note_on_c, 9, 42, 0
1, 104400, Note_on_c, 9, 42, 100
1, 104639, Note_on_c, 9, 44, 0
1, 104639, Note_on_c, 9, 42, 0
1, 104640, Note_on_c, 9, 36, 127
1, 104655, Note_on_c, 9, 42, 127
1, 104879, Note_on_c, 9, 42, 0
1, 104880, Note_on_c, 9, 42, 99
1, 105119, Note_on_c, 9, 36, 0
1, 105119, Note_on_c, 9, 42, 0
1, 105120, Note_on_c, 9, 38, 111
1, 105120, Note_on_c, 9, 42, 127
1, 105120, Note_on_c, 9, 44, 94
1, 105359, Note_on_c, 9, 38, 0
1, 105359, Note_on_c, 9, 42, 0
1, 105360, Note_on_c, 9, 42, 101
1, 105479, Note_on_c, 9, 44, 0
1, 105479, Note_on_c, 9, 42, 0
1, 105480, Note_on_c, 9, 38, 111
1, 105495, Note_on_c, 9, 44, 96
1, 105539, Note_on_c, 9, 44, 0
1, 105599, Note_on_c, 9, 38, 0
1, 105600, Note_on_c, 9, 38, 108
1, 105600, Note_on_c, 9, 42, 127
1, 105600, Note_on_c, 9, 36, 127
1, 105614, Note_on_c, 9, 36, 0
1, 105615, Note_on_c, 9, 44, 96
1, 105839, Note_on_c, 9, 38, 0
1, 105839, Note_on_c, 9, 42, 0
1, 105839, Note_on_c, 9, 44, 0
1, 105840, Note_on_c, 9, 42, 97
1, 106079, Note_on_c, 9, 42, 0
1, 106080, Note_on_c, 9, 38, 121
1, 106080, Note_on_c, 9, 42, 127
1, 106095, Note_on_c, 9, 44, 107
1, 106319, Note_on_c, 9, 38, 0
1, 106319, Note_on_c, 9, 42, 0
1, 106319, Note_on_c, 9, 44, 0
1, 106320, Note_on_c, 9, 46, 105
1, 106559, Note_on_c, 9, 46, 0
1, 106560, Note_on_c, 9, 42, 127
1, 106560, Note_on_c, 9, 36, 127
1, 106799, Note_on_c, 9, 42, 0
1, 106800, Note_on_c, 9, 42, 101
1, 107039, Note_on_c, 9, 36, 0
1, 107039, Note_on_c, 9, 42, 0
1, 107040, Note_on_c, 9, 38, 112
1, 107040, Note_on_c, 9, 42, 127
1, 107055, Note_on_c, 9, 44, 94
1, 107279, Note_on_c, 9, 38, 0
1, 107279, Note_on_c, 9, 42, 0
1, 107279, Note_on_c, 9, 44, 0
1, 107280, Note_on_c, 9, 42, 99
1, 107519, Note_on_c, 9, 42, 0
1, 107520, Note_on_c, 9, 38, 109
1, 107520, Note_on_c, 9, 36, 127
1, 107534, Note_on_c, 9, 36, 0
1, 107535, Note_on_c, 9, 44, 98
1, 107639, Note_on_c, 9, 38, 0
1, 107640, Note_on_c, 9, 50, 98
1, 107759, Note_on_c, 9, 44, 0
1, 107759, Note_on_c, 9, 50, 0
1, 107760, Note_on_c, 9, 50, 100
1, 107879, Note_on_c, 9, 50, 0
1, 107880, Note_on_c, 9, 50, 98
1, 107999, Note_on_c, 9, 50, 0
1, 108000, Note_on_c, 9, 50, 97
1, 108239, Note_on_c, 9, 50, 0
1, 108240, Note_on_c, 9, 50, 97
1, 108479, Note_on_c, 9, 50, 0
1, 108480, Note_on_c, 9, 38, 118
1, 108480, Note_on_c, 9, 44, 104
1, 108480, Note_on_c, 9, 36, 127
1, 108719, Note_on_c, 9, 38, 0
1, 108720, Note_on_c, 9, 47, 100
1, 108959, Note_on_c, 9, 44, 0
1, 108959, Note_on_c, 9, 36, 0
1, 108959, Note_on_c, 9, 47, 0
1, 108960, Note_on_c, 9, 43, 99
1, 109199, Note_on_c, 9, 43, 0
1, 109200, Note_on_c, 9, 38, 109
1, 109215, Note_on_c, 9, 44, 96
1, 109439, Note_on_c, 9, 38, 0
1, 109439, Note_on_c, 9, 44, 0
1, 109440, Note_on_c, 9, 42, 127
1, 109440, Note_on_c, 9, 49, 94
1, 109440, Note_on_c, 9, 36, 127
1, 109679, Note_on_c, 9, 42, 0
1, 109679, Note_on_c, 9, 49, 0
1, 109680, Note_on_c, 9, 42, 101
1, 109919, Note_on_c, 9, 36, 0
1, 109919, Note_on_c, 9, 42, 0
1, 109920, Note_on_c, 9, 38, 110
1, 109920, Note_on_c, 9, 42, 127
1, 109920, Note_on_c, 9, 44, 94
1, 110159, Note_on_c, 9, 38, 0
1, 110159, Note_on_c, 9, 42, 0
1, 110160, Note_on_c, 9, 42, 96
1, 110399, Note_on_c, 9, 44, 0
1, 110399, Note_on_c, 9, 42, 0
1, 110400, Note_on_c, 9, 42, 127
1, 110400, Note_on_c, 9, 36, 127
1, 110639, Note_on_c, 9, 42, 0
1, 110640, Note_on_c, 9, 42, 101
1, 110879, Note_on_c, 9, 36, 0
1, 110879, Note_on_c, 9, 42, 0
1, 110880, Note_on_c, 9, 38, 112
1, 110880, Note_on_c, 9, 42, 127
1, 110895, Note_on_c, 9, 44, 95
1, 111119, Note_on_c, 9, 38, 0
1, 111119, Note_on_c, 9, 42, 0
1, 111119, Note_on_c, 9, 44, 0
1, 111120, Note_on_c, 9, 42, 99
1, 111359, Note_on_c, 9, 42, 0
1, 111360, Note_on_c, 9, 42, 127
1, 111360, Note_on_c, 9, 36, 127
1, 111599, Note_on_c, 9, 42, 0
1, 111600, Note_on_c, 9, 42, 99
1, 111839, Note_on_c, 9, 36, 0
1, 111839, Note_on_c, 9, 42, 0
1, 111840, Note_on_c, 9, 38, 112
1, 111840, Note_on_c, 9, 42, 127
1, 111840, Note_on_c, 9, 44, 94
1, 112079, Note_on_c, 9, 38, 0
1, 112079, Note_on_c, 9, 42, 0
1, 112079, Note_on_c, 9, 44, 0
1, 112080, Note_on_c, 9, 38, 112
1, 112080, Note_on_c, 9, 42, 96
1, 112095, Note_on_c, 9, 44, 98
1, 112319, Note_on_c, 9, 38, 0
1, 112319, Note_on_c, 9, 42, 0
1, 112319, Note_on_c, 9, 44, 0
1, 112320, Note_on_c, 9, 42, 127
1, 112320, Note_on_c, 9, 36, 127
1, 112559, Note_on_c, 9, 42, 0
1, 112560, Note_on_c, 9, 42, 96
1, 112799, Note_on_c, 9, 36, 0
1, 112799, Note_on_c, 9, 42, 0
1, 112800, Note_on_c, 9, 38, 110
1, 112800, Note_on_c, 9, 42, 127
1, 112800, Note_on_c, 9, 44, 95
1, 113039, Note_on_c, 9, 38, 0
1, 113039, Note_on_c, 9, 42, 0
1, 113040, Note_on_c, 9, 42, 101
1, 113040, Note_on_c, 9, 49, 97
1, 113279, Note_on_c, 9, 44, 0
1, 113279, Note_on_c, 9, 42, 0
1, 113279, Note_on_c, 9, 49, 0
1, 113280, Note_on_c, 9, 42, 127
1, 113280, Note_on_c, 9, 36, 127
1, 113294, Note_on_c, 9, 42, 0
1, 113295, Note_on_c, 9, 49, 94
1, 113519, Note_on_c, 9, 49, 0
1, 113520, Note_on_c, 9, 42, 100
1, 113759, Note_on_c, 9, 36, 0
1, 113759, Note_on_c, 9, 42, 0
1, 113760, Note_on_c, 9, 38, 109
1, 113760, Note_on_c, 9, 42, 127
1, 113775, Note_on_c, 9, 44, 95
1, 113999, Note_on_c, 9, 38, 0
1, 113999, Note_on_c, 9, 42, 0
1, 113999, Note_on_c, 9, 44, 0
1, 114000, Note_on_c, 9, 42, 99
1, 114239, Note_on_c, 9, 42, 0
1, 114240, Note_on_c, 9, 42, 127
1, 114240, Note_on_c, 9, 36, 127
1, 114479, Note_on_c, 9, 42, 0
1, 114480, Note_on_c, 9, 42, 102
1, 114719, Note_on_c, 9, 36, 0
1, 114719, Note_on_c, 9, 42, 0
1, 114720, Note_on_c, 9, 38, 119
1, 114720, Note_on_c, 9, 42, 127
1, 114735, Note_on_c, 9, 44, 104
1, 114959, Note_on_c, 9, 38, 0
1, 114959, Note_on_c, 9, 42, 0
1, 114959, Note_on_c, 9, 44, 0
1, 114960, Note_on_c, 9, 42, 98
1, 115199, Note_on_c, 9, 42, 0
1, 115200, Note_on_c, 9, 42, 127
1, 115200, Note_on_c, 9, 36, 127
1, 115439, Note_on_c, 9, 42, 0
1, 115440, Note_on_c, 9, 42, 98
1, 115679, Note_on_c, 9, 36, 0
1, 115679, Note_on_c, 9, 42, 0
1, 115680, Note_on_c, 9, 38, 108
1, 115694, Note_on_c, 9, 38, 0
1, 115695, Note_on_c, 9, 42, 127
1, 115695, Note_on_c, 9, 44, 93
1, 115919, Note_on_c, 9, 42, 0
1, 115919, Note_on_c, 9, 44, 0
1, 115920, Note_on_c, 9, 38, 109
1, 115920, Note_on_c, 9, 42, 100
1, 115920, Note_on_c, 9, 49, 93
1, 115920, Note_on_c, 9, 44, 93
1, 116159, Note_on_c, 9, 38, 0
1, 116159, Note_on_c, 9, 42, 0
1, 116159, Note_on_c, 9, 49, 0
1, 116159, Note_on_c, 9, 44, 0
1, 116160, Note_on_c, 9, 42, 127
1, 116160, Note_on_c, 9, 36, 127
1, 116399, Note_on_c, 9, 42, 0
1, 116400, Note_on_c, 9, 42, 96
1, 116639, Note_on_c, 9, 36, 0
1, 116639, Note_on_c, 9, 42, 0
1, 116640, Note_on_c, 9, 38, 117
1, 116654, Note_on_c, 9, 38, 0
1, 116655, Note_on_c, 9, 42, 127
1, 116655, Note_on_c, 9, 44, 102
1, 116879, Note_on_c, 9, 42, 0
1, 116879, Note_on_c, 9, 44, 0
1, 116880, Note_on_c, 9, 42, 97
1, 117119, Note_on_c, 9, 42, 0
1, 117120, Note_on_c, 9, 42, 127
1, 117120, Note_on_c, 9, 36, 127
1, 117359, Note_on_c, 9, 42, 0
1, 117360, Note_on_c, 9, 42, 101
1, 117599, Note_on_c, 9, 36, 0
1, 117599, Note_on_c, 9, 42, 0
1, 117600, Note_on_c, 9, 38, 107
1, 117600, Note_on_c, 9, 42, 127
1, 117615, Note_on_c, 9, 44, 95
1, 117839, Note_on_c, 9, 38, 0
1, 117839, Note_on_c, 9, 42, 0
1, 117839, Note_on_c, 9, 44, 0
1, 117840, Note_on_c, 9, 38, 109
1, 117840, Note_on_c, 9, 42, 99
1, 117840, Note_on_c, 9, 49, 94
1, 117855, Note_on_c, 9, 44, 96
1, 118079, Note_on_c, 9, 38, 0
1, 118079, Note_on_c, 9, 42, 0
1, 118079, Note_on_c, 9, 49, 0
1, 118079, Note_on_c, 9, 44, 0
1, 118080, Note_on_c, 9, 42, 127
1, 118080, Note_on_c, 9, 36, 127
1, 118319, Note_on_c, 9, 42, 0
1, 118320, Note_on_c, 9, 42, 97
1, 118559, Note_on_c, 9, 36, 0
1, 118559, Note_on_c, 9, 42, 0
1, 118560, Note_on_c, 9, 38, 111
1, 118560, Note_on_c, 9, 42, 127
1, 118575, Note_on_c, 9, 44, 97
1, 118799, Note_on_c, 9, 38, 0
1, 118799, Note_on_c, 9, 42, 0
1, 118799, Note_on_c, 9, 44, 0
1, 118800, Note_on_c, 9, 42, 97
1, 119039, Note_on_c, 9, 42, 0
1, 119040, Note_on_c, 9, 36, 127
1, 119055, Note_on_c, 9, 42, 127
1, 119279, Note_on_c, 9, 42, 0
1, 119280, Note_on_c, 9, 42, 100
1, 119519, Note_on_c, 9, 36, 0
1, 119519, Note_on_c, 9, 42, 0
1, 119520, Note_on_c, 9, 38, 111
1, 119520, Note_on_c, 9, 42, 127
1, 119520, Note_on_c, 9, 49, 94
1, 119535, Note_on_c, 9, 44, 97
1, 119759, Note_on_c, 9, 38, 0
1, 119759, Note_on_c, 9, 42, 0
1, 119759, Note_on_c, 9, 49, 0
1, 119759, Note_on_c, 9, 44, 0
1, 119760, Note_on_c, 9, 42, 98
1, 119999, Note_on_c, 9, 42, 0
1, 120000, Note_on_c, 9, 42, 127
1, 120000, Note_on_c, 9, 36, 127
1, 120239, Note_on_c, 9, 42, 0
1, 120240, Note_on_c, 9, 42, 101
1, 120479, Note_on_c, 9, 36, 0
1, 120479, Note_on_c, 9, 42, 0
1, 120480, Note_on_c, 9, 38, 112
1, 120480, Note_on_c, 9, 42, 127
1, 120480, Note_on_c, 9, 49, 95
1, 120495, Note_on_c, 9, 44, 93
1, 120719, Note_on_c, 9, 38, 0
1, 120719, Note_on_c, 9, 42, 0
1, 120719, Note_on_c, 9, 49, 0
1, 120719, Note_on_c, 9, 44, 0
1, 120720, Note_on_c, 9, 42, 96
1, 120959, Note_on_c, 9, 42, 0
1, 120960, Note_on_c, 9, 42, 127
1, 120960, Note_on_c, 9, 36, 127
1, 121199, Note_on_c, 9, 42, 0
1, 121200, Note_on_c, 9, 42, 100
1, 121439, Note_on_c, 9, 36, 0
1, 121439, Note_on_c, 9, 42, 0
1, 121440, Note_on_c, 9, 38, 111
1, 121440, Note_on_c, 9, 42, 127
1, 121440, Note_on_c, 9, 49, 94
1, 121440, Note_on_c, 9, 44, 97
1, 121679, Note_on_c, 9, 38, 0
1, 121679, Note_on_c, 9, 42, 0
1, 121679, Note_on_c, 9, 49, 0
1, 121680, Note_on_c, 9, 42, 98
1, 121919, Note_on_c, 9, 44, 0
1, 121919, Note_on_c, 9, 42, 0
1, 121920, Note_on_c, 9, 42, 127
1, 121920, Note_on_c, 9, 36, 127
1, 122159, Note_on_c, 9, 42, 0
1, 122159, Note_on_c, 9, 36, 0
1, 122160, Note_on_c, 9, 38, 108
1, 122160, Note_on_c, 9, 42, 101
1, 122175, Note_on_c, 9, 44, 95
1, 122399, Note_on_c, 9, 38, 0
1, 122399, Note_on_c, 9, 42, 0
1, 122399, Note_on_c, 9, 44, 0
1, 122400, Note_on_c, 9, 38, 120
1, 122400, Note_on_c, 9, 42, 127
1, 122400, Note_on_c, 9, 49, 98
1, 122415, Note_on_c, 9, 44, 103
1, 122639, Note_on_c, 9, 38, 0
1, 122639, Note_on_c, 9, 42, 0
1, 122639, Note_on_c, 9, 49, 0
1, 122639, Note_on_c, 9, 44, 0
1, 122640, Note_on_c, 9, 38, 110
1, 122640, Note_on_c, 9, 42, 96
1, 122655, Note_on_c, 9, 44, 94
1, 122879, Note_on_c, 9, 38, 0
1, 122879, Note_on_c, 9, 42, 0
1, 122879, Note_on_c, 9, 44, 0
1, 122880, Note_on_c, 9, 42, 127
1, 122880, Note_on_c, 9, 49, 96
1, 122880, Note_on_c, 9, 36, 127
1, 123119, Note_on_c, 9, 42, 0
1, 123119, Note_on_c, 9, 49, 0
1, 123120, Note_on_c, 9, 42, 98
1, 123359, Note_on_c, 9, 36, 0
1, 123359, Note_on_c, 9, 42, 0
1, 123360, Note_on_c, 9, 38, 117
1, 123360, Note_on_c, 9, 42, 127
1, 123375, Note_on_c, 9, 44, 102
1, 123599, Note_on_c, 9, 38, 0
1, 123599, Note_on_c, 9, 42, 0
1, 123599, Note_on_c, 9, 44, 0
1, 123600, Note_on_c, 9, 38, 109
1, 123600, Note_on_c, 9, 42, 101
1, 123620, Note_on_c, 9, 44, 95
1, 123659, Note_on_c, 9, 44, 0
1, 123839, Note_on_c, 9, 38, 0
1, 123839, Note_on_c, 9, 42, 0
1, 123840, Note_on_c, 9, 42, 127
1, 123840, Note_on_c, 9, 36, 127
1, 124079, Note_on_c, 9, 42, 0
1, 124080, Note_on_c, 9, 42, 99
1, 124319, Note_on_c, 9, 36, 0
1, 124319, Note_on_c, 9, 42, 0
1, 124320, Note_on_c, 9, 38, 117
1, 124320, Note_on_c, 9, 42, 127
1, 124340, Note_on_c, 9, 44, 102
1, 124379, Note_on_c, 9, 44, 0
1, 124559, Note_on_c, 9, 38, 0
1, 124559, Note_on_c, 9, 42, 0
1, 124560, Note_on_c, 9, 42, 96
1, 124799, Note_on_c, 9, 42, 0
1, 124800, Note_on_c, 9, 42, 127
1, 124800, Note_on_c, 9, 36, 127
1, 125039, Note_on_c, 9, 42, 0
1, 125040, Note_on_c, 9, 42, 98
1, 125279, Note_on_c, 9, 36, 0
1, 125279, Note_on_c, 9, 42, 0
1, 125280, Note_on_c, 9, 38, 112
1, 125280, Note_on_c, 9, 42, 127
1, 125295, Note_on_c, 9, 44, 94
1, 125519, Note_on_c, 9, 38, 0
1, 125519, Note_on_c, 9, 42, 0
1, 125519, Note_on_c, 9, 44, 0
1, 125520, Note_on_c, 9, 38, 108
1, 125520, Note_on_c, 9, 42, 99
1, 125535, Note_on_c, 9, 44, 94
1, 125759, Note_on_c, 9, 38, 0
1, 125759, Note_on_c, 9, 42, 0
1, 125759, Note_on_c, 9, 44, 0
1, 125760, Note_on_c, 9, 42, 127
1, 125760, Note_on_c, 9, 36, 127
1, 125999, Note_on_c, 9, 42, 0
1, 126000, Note_on_c, 9, 42, 97
1, 126239, Note_on_c, 9, 36, 0
1, 126239, Note_on_c, 9, 42, 0
1, 126240, Note_on_c, 9, 38, 119
1, 126240, Note_on_c, 9, 42, 127
1, 126255, Note_on_c, 9, 44, 105
1, 126479, Note_on_c, 9, 38, 0
1, 126479, Note_on_c, 9, 42, 0
1, 126479, Note_on_c, 9, 44, 0
1, 126480, Note_on_c, 9, 42, 98
1, 126719, Note_on_c, 9, 42, 0
1, 126720, Note_on_c, 9, 42, 127
1, 126720, Note_on_c, 9, 36, 127
1, 126959, Note_on_c, 9, 42, 0
1, 126960, Note_on_c, 9, 42, 98
1, 127199, Note_on_c, 9, 36, 0
1, 127199, Note_on_c, 9, 42, 0
1, 127200, Note_on_c, 9, 38, 108
1, 127200, Note_on_c, 9, 42, 127
1, 127215, Note_on_c, 9, 44, 97
1, 127439, Note_on_c, 9, 38, 0
1, 127439, Note_on_c, 9, 42, 0
1, 127439, Note_on_c, 9, 44, 0
1, 127440, Note_on_c, 9, 38, 111
1, 127454, Note_on_c, 9, 38, 0
1, 127455, Note_on_c, 9, 42, 97
1, 127460, Note_on_c, 9, 44, 95
1, 127499, Note_on_c, 9, 44, 0
1, 127679, Note_on_c, 9, 42, 0
1, 127680, Note_on_c, 9, 42, 127
1, 127680, Note_on_c, 9, 36, 127
1, 127919, Note_on_c, 9, 42, 0
1, 127920, Note_on_c, 9, 42, 100
1, 128159, Note_on_c, 9, 36, 0
1, 128159, Note_on_c, 9, 42, 0
1, 128160, Note_on_c, 9, 38, 110
1, 128160, Note_on_c, 9, 42, 127
1, 128175, Note_on_c, 9, 44, 95
1, 128399, Note_on_c, 9, 38, 0
1, 128399, Note_on_c, 9, 42, 0
1, 128399, Note_on_c, 9, 44, 0
1, 128400, Note_on_c, 9, 42, 101
1, 128639, Note_on_c, 9, 42, 0
1, 128640, Note_on_c, 9, 42, 127
1, 128640, Note_on_c, 9, 36, 127
1, 128879, Note_on_c, 9, 42, 0
1, 128880, Note_on_c, 9, 42, 98
1, 129119, Note_on_c, 9, 36, 0
1, 129119, Note_on_c, 9, 42, 0
1, 129120, Note_on_c, 9, 38, 108
1, 129134, Note_on_c, 9, 38, 0
1, 129135, Note_on_c, 9, 42, 127
1, 129140, Note_on_c, 9, 44, 96
1, 129179, Note_on_c, 9, 44, 0
1, 129359, Note_on_c, 9, 42, 0
1, 129360, Note_on_c, 9, 38, 110
1, 129360, Note_on_c, 9, 42, 96
1, 129380, Note_on_c, 9, 44, 96
1, 129419, Note_on_c, 9, 44, 0
1, 129599, Note_on_c, 9, 38, 0
1, 129599, Note_on_c, 9, 42, 0
1, 129600, Note_on_c, 9, 50, 101
1, 129600, Note_on_c, 9, 36, 127
1, 129719, Note_on_c, 9, 50, 0
1, 129720, Note_on_c, 9, 50, 100
1, 129959, Note_on_c, 9, 50, 0
1, 129960, Note_on_c, 9, 50, 98
1, 130079, Note_on_c, 9, 36, 0
1, 130079, Note_on_c, 9, 50, 0
1, 130080, Note_on_c, 9, 38, 107
1, 130080, Note_on_c, 9, 47, 100
1, 130095, Note_on_c, 9, 44, 95
1, 130319, Note_on_c, 9, 38, 0
1, 130319, Note_on_c, 9, 47, 0
1, 130319, Note_on_c, 9, 44, 0
1, 130320, Note_on_c, 9, 47, 101
1, 130559, Note_on_c, 9, 47, 0
1, 130560, Note_on_c, 9, 36, 127
1, 130575, Note_on_c, 9, 42, 127
1, 130575, Note_on_c, 9, 49, 97
1, 130799, Note_on_c, 9, 42, 0
1, 130799, Note_on_c, 9, 49, 0
1, 130800, Note_on_c, 9, 42, 100
1, 131039, Note_on_c, 9, 36, 0
1, 131039, Note_on_c, 9, 42, 0
1, 131040, Note_on_c, 9, 38, 111
1, 131040, Note_on_c, 9, 42, 127
1, 131055, Note_on_c, 9, 44, 98
1, 131279, Note_on_c, 9, 38, 0
1, 131279, Note_on_c, 9, 42, 0
1, 131279, Note_on_c, 9, 44, 0
1, 131280, Note_on_c, 9, 38, 107
1, 131280, Note_on_c, 9, 42, 96
1, 131295, Note_on_c, 9, 44, 96
1, 131519, Note_on_c, 9, 38, 0
1, 131519, Note_on_c, 9, 42, 0
1, 131519, Note_on_c, 9, 44, 0
1, 131520, Note_on_c, 9, 42, 127
1, 131520, Note_on_c, 9, 36, 127
1, 131759, Note_on_c, 9, 42, 0
1, 131760, Note_on_c, 9, 42, 96
1, 131999, Note_on_c, 9, 36, 0
1, 131999, Note_on_c, 9, 42, 0
1, 132000, Note_on_c, 9, 38, 110
1, 132000, Note_on_c, 9, 42, 127
1, 132015, Note_on_c, 9, 44, 94
1, 132239, Note_on_c, 9, 38, 0
1, 132239, Note_on_c, 9, 42, 0
1, 132239, Note_on_c, 9, 44, 0
1, 132240, Note_on_c, 9, 42, 100
1, 132479, Note_on_c, 9, 42, 0
1, 132480, Note_on_c, 9, 42, 127
1, 132480, Note_on_c, 9, 36, 127
1, 132719, Note_on_c, 9, 42, 0
1, 132720, Note_on_c, 9, 42, 100
1, 132959, Note_on_c, 9, 36, 0
1, 132959, Note_on_c, 9, 42, 0
1, 132960, Note_on_c, 9, 38, 116
1, 132960, Note_on_c, 9, 42, 127
1, 132975, Note_on_c, 9, 44, 107
1, 133199, Note_on_c, 9, 38, 0
1, 133199, Note_on_c, 9, 42, 0
1, 133199, Note_on_c, 9, 44, 0
1, 133200, Note_on_c, 9, 38, 112
1, 133200, Note_on_c, 9, 42, 97
1, 133215, Note_on_c, 9, 44, 93
1, 133439, Note_on_c, 9, 38, 0
1, 133439, Note_on_c, 9, 42, 0
1, 133439, Note_on_c, 9, 44, 0
1, 133440, Note_on_c, 9, 42, 127
1, 133440, Note_on_c, 9, 36, 127
1, 133679, Note_on_c, 9, 42, 0
1, 133680, Note_on_c, 9, 42, 99
1, 133919, Note_on_c, 9, 36, 0
1, 133919, Note_on_c, 9, 42, 0
1, 133920, Note_on_c, 9, 38, 121
1, 133920, Note_on_c, 9, 42, 127
1, 133935, Note_on_c, 9, 44, 107
1, 134159, Note_on_c, 9, 38, 0
1, 134159, Note_on_c, 9, 42, 0
1, 134159, Note_on_c, 9, 44, 0
1, 134160, Note_on_c, 9, 42, 99
1, 134399, Note_on_c, 9, 42, 0
1, 134400, Note_on_c, 9, 42, 127
1, 134400, Note_on_c, 9, 36, 127
1, 134639, Note_on_c, 9, 42, 0
1, 134640, Note_on_c, 9, 42, 99
1, 134879, Note_on_c, 9, 36, 0
1, 134879, Note_on_c, 9, 42, 0
1, 134880, Note_on_c, 9, 38, 107
1, 134880, Note_on_c, 9, 42, 127
1, 134895, Note_on_c, 9, 44, 98
1, 135119, Note_on_c, 9, 38, 0
1, 135119, Note_on_c, 9, 42, 0
1, 135119, Note_on_c, 9, 44, 0
1, 135120, Note_on_c, 9, 38, 112
1, 135120, Note_on_c, 9, 42, 98
1, 135135, Note_on_c, 9, 44, 97
1, 135359, Note_on_c, 9, 38, 0
1, 135359, Note_on_c, 9, 42, 0
1, 135359, Note_on_c, 9, 44, 0
1, 135360, Note_on_c, 9, 42, 127
1, 135360, Note_on_c, 9, 36, 127
1, 135599, Note_on_c, 9, 42, 0
1, 135600, Note_on_c, 9, 42, 97
1, 135839, Note_on_c, 9, 36, 0
1, 135839, Note_on_c, 9, 42, 0
1, 135840, Note_on_c, 9, 38, 120
1, 135840, Note_on_c, 9, 42, 127
1, 135855, Note_on_c, 9, 44, 105
1, 136079, Note_on_c, 9, 38, 0
1, 136079, Note_on_c, 9, 42, 0
1, 136079, Note_on_c, 9, 44, 0
1, 136080, Note_on_c, 9, 42, 98
1, 136319, Note_on_c, 9, 42, 0
1, 136320, Note_on_c, 9, 38, 112
1, 136320, Note_on_c, 9, 42, 127
1, 136320, Note_on_c, 9, 36, 127
1, 136334, Note_on_c, 9, 36, 0
1, 136335, Note_on_c, 9, 44, 94
1, 136559, Note_on_c, 9, 38, 0
1, 136559, Note_on_c, 9, 42, 0
1, 136559, Note_on_c, 9, 44, 0
1, 136560, Note_on_c, 9, 42, 100
1, 136799, Note_on_c, 9, 42, 0
1, 136800, Note_on_c, 9, 38, 107
1, 136800, Note_on_c, 9, 42, 127
1, 136815, Note_on_c, 9, 44, 95
1, 137039, Note_on_c, 9, 38, 0
1, 137039, Note_on_c, 9, 42, 0
1, 137039, Note_on_c, 9, 44, 0
1, 137040, Note_on_c, 9, 42, 97
1, 137279, Note_on_c, 9, 42, 0
1, 137280, Note_on_c, 9, 38, 111
1, 137280, Note_on_c, 9, 42, 127
1, 137280, Note_on_c, 9, 36, 127
1, 137294, Note_on_c, 9, 36, 0
1, 137295, Note_on_c, 9, 44, 98
1, 137519, Note_on_c, 9, 38, 0
1, 137519, Note_on_c, 9, 42, 0
1, 137519, Note_on_c, 9, 44, 0
1, 137520, Note_on_c, 9, 42, 100
1, 137759, Note_on_c, 9, 42, 0
1, 137760, Note_on_c, 9, 38, 111
1, 137760, Note_on_c, 9, 42, 127
1, 137775, Note_on_c, 9, 44, 97
1, 137999, Note_on_c, 9, 38, 0
1, 137999, Note_on_c, 9, 42, 0
1, 137999, Note_on_c, 9, 44, 0
1, 138000, Note_on_c, 9, 42, 101
1, 138239, Note_on_c, 9, 42, 0
1, 138240, Note_on_c, 9, 42, 127
1, 138240, Note_on_c, 9, 36, 127
1, 138479, Note_on_c, 9, 42, 0
1, 138480, Note_on_c, 9, 42, 102
1, 138719, Note_on_c, 9, 36, 0
1, 138719, Note_on_c, 9, 42, 0
1, 138720, Note_on_c, 9, 38, 108
1, 138720, Note_on_c, 9, 42, 127
1, 138735, Note_on_c, 9, 44, 94
1, 138959, Note_on_c, 9, 38, 0
1, 138959, Note_on_c, 9, 42, 0
1, 138959, Note_on_c, 9, 44, 0
1, 138960, Note_on_c, 9, 38, 120
1, 138960, Note_on_c, 9, 42, 99
1, 138960, Note_on_c, 9, 49, 93
1, 138975, Note_on_c, 9, 44, 107
1, 139199, Note_on_c, 9, 38, 0
1, 139199, Note_on_c, 9, 42, 0
1, 139199, Note_on_c, 9, 49, 0
1, 139199, Note_on_c, 9, 44, 0
1, 139200, Note_on_c, 9, 42, 127
1, 139200, Note_on_c, 9, 36, 127
1, 139439, Note_on_c, 9, 42, 0
1, 139440, Note_on_c, 9, 42, 101
1, 139679, Note_on_c, 9, 36, 0
1, 139679, Note_on_c, 9, 42, 0
1, 139680, Note_on_c, 9, 38, 110
1, 139680, Note_on_c, 9, 42, 127
1, 139695, Note_on_c, 9, 44, 95
1, 139919, Note_on_c, 9, 38, 0
1, 139919, Note_on_c, 9, 42, 0
1, 139919, Note_on_c, 9, 44, 0
1, 139920, Note_on_c, 9, 42, 98
1, 140159, Note_on_c, 9, 42, 0
1, 140160, Note_on_c, 9, 42, 127
1, 140160, Note_on_c, 9, 36, 127
1, 140399, Note_on_c, 9, 42, 0
1, 140400, Note_on_c, 9, 42, 100
1, 140639, Note_on_c, 9, 36, 0
1, 140639, Note_on_c, 9, 42, 0
1, 140640, Note_on_c, 9, 38, 107
1, 140640, Note_on_c, 9, 42, 127
1, 140655, Note_on_c, 9, 44, 94
1, 140879, Note_on_c, 9, 38, 0
1, 140879, Note_on_c, 9, 42, 0
1, 140879, Note_on_c, 9, 44, 0
1, 140880, Note_on_c, 9, 38, 107
1, 140880, Note_on_c, 9, 42, 97
1, 140880, Note_on_c, 9, 49, 97
1, 140895, Note_on_c, 9, 44, 98
1, 141119, Note_on_c, 9, 38, 0
1, 141119, Note_on_c, 9, 42, 0
1, 141119, Note_on_c, 9, 49, 0
1, 141119, Note_on_c, 9, 44, 0
1, 141120, Note_on_c, 9, 42, 127
1, 141120, Note_on_c, 9, 36, 127
1, 141359, Note_on_c, 9, 42, 0
1, 141360, Note_on_c, 9, 42, 101
1, 141599, Note_on_c, 9, 36, 0
1, 141599, Note_on_c, 9, 42, 0
1, 141600, Note_on_c, 9, 38, 108
1, 141600, Note_on_c, 9, 42, 127
1, 141600, Note_on_c, 9, 44, 94
1, 141839, Note_on_c, 9, 38, 0
1, 141839, Note_on_c, 9, 42, 0
1, 141840, Note_on_c, 9, 42, 101
1, 142079, Note_on_c, 9, 44, 0
1, 142079, Note_on_c, 9, 42, 0
1, 142080, Note_on_c, 9, 42, 127
1, 142080, Note_on_c, 9, 36, 127
1, 142319, Note_on_c, 9, 42, 0
1, 142320, Note_on_c, 9, 42, 101
1, 142559, Note_on_c, 9, 36, 0
1, 142559, Note_on_c, 9, 42, 0
1, 142560, Note_on_c, 9, 38, 109
1, 142560, Note_on_c, 9, 42, 127
1, 142560, Note_on_c, 9, 49, 94
1, 142575, Note_on_c, 9, 44, 93
1, 142799, Note_on_c, 9, 38, 0
1, 142799, Note_on_c, 9, 42, 0
1, 142799, Note_on_c, 9, 49, 0
1, 142799, Note_on_c, 9, 44, 0
1, 142800, Note_on_c, 9, 42, 100
1, 143039, Note_on_c, 9, 42, 0
1, 143040, Note_on_c, 9, 42, 127
1, 143040, Note_on_c, 9, 36, 127
1, 143279, Note_on_c, 9, 42, 0
1, 143280, Note_on_c, 9, 42, 96
1, 143519, Note_on_c, 9, 36, 0
1, 143519, Note_on_c, 9, 42, 0
1, 143520, Note_on_c, 9, 38, 107
1, 143520, Note_on_c, 9, 42, 127
1, 143520, Note_on_c, 9, 49, 94
1, 143535, Note_on_c, 9, 44, 96
1, 143759, Note_on_c, 9, 38, 0
1, 143759, Note_on_c, 9, 42, 0
1, 143759, Note_on_c, 9, 49, 0
1, 143759, Note_on_c, 9, 44, 0
1, 143760, Note_on_c, 9, 42, 98
1, 143999, Note_on_c, 9, 42, 0
1, 144000, Note_on_c, 9, 42, 127
1, 144000, Note_on_c, 9, 36, 127
1, 144239, Note_on_c, 9, 42, 0
1, 144240, Note_on_c, 9, 42, 101
1, 144479, Note_on_c, 9, 36, 0
1, 144479, Note_on_c, 9, 42, 0
1, 144480, Note_on_c, 9, 38, 111
1, 144480, Note_on_c, 9, 42, 127
1, 144480, Note_on_c, 9, 49, 93
1, 144495, Note_on_c, 9, 44, 96
1, 144719, Note_on_c, 9, 38, 0
1, 144719, Note_on_c, 9, 42, 0
1, 144719, Note_on_c, 9, 49, 0
1, 144719, Note_on_c, 9, 44, 0
1, 144720, Note_on_c, 9, 42, 97
1, 144959, Note_on_c, 9, 42, 0
1, 144960, Note_on_c, 9, 42, 127
1, 144960, Note_on_c, 9, 36, 127
1, 145199, Note_on_c, 9, 42, 0
1, 145200, Note_on_c, 9, 42, 101
1, 145424, Note_on_c, 9, 42, 0
1, 145425, Note_on_c, 9, 38, 107
1, 145439, Note_on_c, 9, 36, 0
1, 145439, Note_on_c, 9, 38, 0
1, 145440, Note_on_c, 9, 42, 127
1, 145440, Note_on_c, 9, 49, 97
1, 145455, Note_on_c, 9, 44, 94
1, 145679, Note_on_c, 9, 42, 0
1, 145679, Note_on_c, 9, 49, 0
1, 145679, Note_on_c, 9, 44, 0
1, 145680, Note_on_c, 9, 42, 99
1, 145919, Note_on_c, 9, 42, 0
1, 145920, Note_on_c, 9, 42, 127
1, 145920, Note_on_c, 9, 36, 127
1, 145934, Note_on_c, 9, 42, 0
1, 145935, Note_on_c, 9, 49, 98
1, 146159, Note_on_c, 9, 49, 0
1, 146160, Note_on_c, 9, 42, 99
1, 146399, Note_on_c, 9, 36, 0
1, 146399, Note_on_c, 9, 42, 0
1, 146400, Note_on_c, 9, 38, 109
1, 146400, Note_on_c, 9, 42, 127
1, 146415, Note_on_c, 9, 44, 93
1, 146639, Note_on_c, 9, 38, 0
1, 146639, Note_on_c, 9, 42, 0
1, 146639, Note_on_c, 9, 44, 0
1, 146640, Note_on_c, 9, 38, 107
1, 146640, Note_on_c, 9, 42, 101
1, 146655, Note_on_c, 9, 44, 93
1, 146879, Note_on_c, 9, 38, 0
1, 146879, Note_on_c, 9, 42, 0
1, 146879, Note_on_c, 9, 44, 0
1, 146880, Note_on_c, 9, 42, 127
1, 146880, Note_on_c, 9, 36, 127
1, 147119, Note_on_c, 9, 42, 0
1, 147120, Note_on_c, 9, 42, 98
1, 147359, Note_on_c, 9, 36, 0
1, 147359, Note_on_c, 9, 42, 0
1, 147360, Note_on_c, 9, 38, 110
1, 147360, Note_on_c, 9, 42, 127
1, 147375, Note_on_c, 9, 44, 93
1, 147599, Note_on_c, 9, 38, 0
1, 147599, Note_on_c, 9, 42, 0
1, 147599, Note_on_c, 9, 44, 0
1, 147600, Note_on_c, 9, 42, 101
1, 147839, Note_on_c, 9, 42, 0
1, 147840, Note_on_c, 9, 42, 127
1, 147840, Note_on_c, 9, 36, 127
1, 148079, Note_on_c, 9, 42, 0
1, 148080, Note_on_c, 9, 42, 101
1, 148319, Note_on_c, 9, 36, 0
1, 148319, Note_on_c, 9, 42, 0
1, 148320, Note_on_c, 9, 38, 108
1, 148320, Note_on_c, 9, 42, 127
1, 148335, Note_on_c, 9, 44, 94
1, 148559, Note_on_c, 9, 38, 0
1, 148559, Note_on_c, 9, 42, 0
1, 148559, Note_on_c, 9, 44, 0
1, 148560, Note_on_c, 9, 38, 108
1, 148560, Note_on_c, 9, 42, 98
1, 148575, Note_on_c, 9, 44, 95
1, 148799, Note_on_c, 9, 38, 0
1, 148799, Note_on_c, 9, 42, 0
1, 148799, Note_on_c, 9, 44, 0
1, 148800, Note_on_c, 9, 36, 127
1, 148815, Note_on_c, 9, 42, 127
1, 149039, Note_on_c, 9, 42, 0
1, 149040, Note_on_c, 9, 42, 101
1, 149279, Note_on_c, 9, 36, 0
1, 149279, Note_on_c, 9, 42, 0
1, 149280, Note_on_c, 9, 38, 117
1, 149280, Note_on_c, 9, 42, 127
1, 149295, Note_on_c, 9, 44, 102
1, 149519, Note_on_c, 9, 38, 0
1, 149519, Note_on_c, 9, 42, 0
1, 149519, Note_on_c, 9, 44, 0
1, 149520, Note_on_c, 9, 42, 100
1, 149759, Note_on_c, 9, 42, 0
1, 149760, Note_on_c, 9, 42, 127
1, 149760, Note_on_c, 9, 36, 127
1, 149999, Note_on_c, 9, 42, 0
1, 150000, Note_on_c, 9, 42, 97
1, 150239, Note_on_c, 9, 36, 0
1, 150239, Note_on_c, 9, 42, 0
1, 150240, Note_on_c, 9, 38, 111
1, 150240, Note_on_c, 9, 42, 127
1, 150255, Note_on_c, 9, 44, 97
1, 150479, Note_on_c, 9, 38, 0
1, 150479, Note_on_c, 9, 42, 0
1, 150479, Note_on_c, 9, 44, 0
1, 150480, Note_on_c, 9, 38, 111
1, 150480, Note_on_c, 9, 42, 101
1, 150495, Note_on_c, 9, 44, 93
1, 150719, Note_on_c, 9, 38, 0
1, 150719, Note_on_c, 9, 42, 0
1, 150719, Note_on_c, 9, 44, 0
1, 150720, Note_on_c, 9, 42, 127
1, 150720, Note_on_c, 9, 36, 127
1, 150959, Note_on_c, 9, 42, 0
1, 150960, Note_on_c, 9, 42, 101
1, 151199, Note_on_c, 9, 36, 0
1, 151199, Note_on_c, 9, 42, 0
1, 151200, Note_on_c, 9, 38, 119
1, 151200, Note_on_c, 9, 42, 127
1, 151215, Note_on_c, 9, 44, 106
1, 151439, Note_on_c, 9, 38, 0
1, 151439, Note_on_c, 9, 42, 0
1, 151439, Note_on_c, 9, 44, 0
1, 151440, Note_on_c, 9, 42, 100
1, 151679, Note_on_c, 9, 42, 0
1, 151680, Note_on_c, 9, 42, 127
1, 151680, Note_on_c, 9, 36, 127
1, 151919, Note_on_c, 9, 42, 0
1, 151919, Note_on_c, 9, 36, 0
1, 151920, Note_on_c, 9, 38, 110
1, 151920, Note_on_c, 9, 42, 101
1, 151935, Note_on_c, 9, 44, 98
1, 152159, Note_on_c, 9, 38, 0
1, 152159, Note_on_c, 9, 42, 0
1, 152159, Note_on_c, 9, 44, 0
1, 152160, Note_on_c, 9, 38, 111
1, 152160, Note_on_c, 9, 42, 127
1, 152175, Note_on_c, 9, 44, 97
1, 152399, Note_on_c, 9, 38, 0
1, 152399, Note_on_c, 9, 42, 0
1, 152399, Note_on_c, 9, 44, 0
1, 152400, Note_on_c, 9, 50, 99
1, 152400, Note_on_c, 9, 42, 100
1, 152639, Note_on_c, 9, 50, 0
1, 152639, Note_on_c, 9, 42, 0
1, 152640, Note_on_c, 9, 36, 127
1, 152655, Note_on_c, 9, 47, 99
1, 152655, Note_on_c, 9, 42, 127
1, 152879, Note_on_c, 9, 47, 0
1, 152879, Note_on_c, 9, 42, 0
1, 152880, Note_on_c, 9, 42, 98
1, 153119, Note_on_c, 9, 36, 0
1, 153119, Note_on_c, 9, 42, 0
1, 153120, Note_on_c, 9, 38, 110
1, 153120, Note_on_c, 9, 42, 127
1, 153120, Note_on_c, 9, 44, 95
1, 153359, Note_on_c, 9, 38, 0
1, 153359, Note_on_c, 9, 42, 0
1, 153359, Note_on_c, 9, 44, 0
1, 153360, Note_on_c, 9, 42, 96
1, 153374, Note_on_c, 9, 42, 0
1, 153375, Note_on_c, 9, 49, 96
1, 153375, Note_on_c, 9, 43, 101
1, 153599, Note_on_c, 9, 49, 0
1, 153599, Note_on_c, 9, 43, 0
1, 153600, Note_on_c, 9, 36, 127
1, 153615, Note_on_c, 9, 42, 127
1, 153615, Note_on_c, 9, 49, 94
1, 153839, Note_on_c, 9, 42, 0
1, 153839, Note_on_c, 9, 49, 0
1, 153840, Note_on_c, 9, 42, 98
1, 154079, Note_on_c, 9, 36, 0
1, 154079, Note_on_c, 9, 42, 0
1, 154080, Note_on_c, 9, 38, 111
1, 154080, Note_on_c, 9, 42, 127
1, 154080, Note_on_c, 9, 44, 95
1, 154319, Note_on_c, 9, 38, 0
1, 154319, Note_on_c, 9, 42, 0
1, 154319, Note_on_c, 9, 44, 0
1, 154320, Note_on_c, 9, 38, 111
1, 154320, Note_on_c, 9, 42, 97
1, 154335, Note_on_c, 9, 44, 99
1, 154559, Note_on_c, 9, 38, 0
1, 154559, Note_on_c, 9, 42, 0
1, 154559, Note_on_c, 9, 44, 0
1, 154560, Note_on_c, 9, 42, 127
1, 154560, Note_on_c, 9, 36, 127
1, 154799, Note_on_c, 9, 42, 0
1, 154800, Note_on_c, 9, 42, 100
1, 155039, Note_on_c, 9, 36, 0
1, 155039, Note_on_c, 9, 42, 0
1, 155040, Note_on_c, 9, 38, 109
1, 155040, Note_on_c, 9, 42, 127
1, 155055, Note_on_c, 9, 44, 98
1, 155279, Note_on_c, 9, 38, 0
1, 155279, Note_on_c, 9, 42, 0
1, 155279, Note_on_c, 9, 44, 0
1, 155280, Note_on_c, 9, 42, 101
1, 155519, Note_on_c, 9, 42, 0
1, 155520, Note_on_c, 9, 42, 127
1, 155520, Note_on_c, 9, 36, 127
1, 155759, Note_on_c, 9, 42, 0
1, 155760, Note_on_c, 9, 42, 98
1, 155999, Note_on_c, 9, 36, 0
1, 155999, Note_on_c, 9, 42, 0
1, 156000, Note_on_c, 9, 38, 107
1, 156000, Note_on_c, 9, 42, 127
1, 156000, Note_on_c, 9, 44, 98
1, 156239, Note_on_c, 9, 38, 0
1, 156239, Note_on_c, 9, 42, 0
1, 156239, Note_on_c, 9, 44, 0
1, 156240, Note_on_c, 9, 38, 111
1, 156240, Note_on_c, 9, 42, 100
1, 156255, Note_on_c, 9, 44, 98
1, 156479, Note_on_c, 9, 38, 0
1, 156479, Note_on_c, 9, 42, 0
1, 156479, Note_on_c, 9, 44, 0
1, 156480, Note_on_c, 9, 42, 127
1, 156480, Note_on_c, 9, 36, 127
1, 156719, Note_on_c, 9, 42, 0
1, 156720, Note_on_c, 9, 42, 97
1, 156959, Note_on_c, 9, 36, 0
1, 156959, Note_on_c, 9, 42, 0
1, 156960, Note_on_c, 9, 38, 120
1, 156960, Note_on_c, 9, 42, 127
1, 156960, Note_on_c, 9, 44, 106
1, 157199, Note_on_c, 9, 38, 0
1, 157199, Note_on_c, 9, 42, 0
1, 157200, Note_on_c, 9, 42, 98
1, 157439, Note_on_c, 9, 44, 0
1, 157439, Note_on_c, 9, 42, 0
1, 157440, Note_on_c, 9, 42, 127
1, 157440, Note_on_c, 9, 49, 94
1, 157440, Note_on_c, 9, 36, 127
1, 157679, Note_on_c, 9, 42, 0
1, 157679, Note_on_c, 9, 49, 0
1, 157680, Note_on_c, 9, 42, 98
1, 157919, Note_on_c, 9, 36, 0
1, 157919, Note_on_c, 9, 42, 0
1, 157920, Note_on_c, 9, 38, 111
1, 157920, Note_on_c, 9, 42, 127
1, 157920, Note_on_c, 9, 44, 93
1, 158159, Note_on_c, 9, 38, 0
1, 158159, Note_on_c, 9, 42, 0
1, 158159, Note_on_c, 9, 44, 0
1, 158160, Note_on_c, 9, 38, 112
1, 158160, Note_on_c, 9, 42, 97
1, 158175, Note_on_c, 9, 44, 95
1, 158399, Note_on_c, 9, 38, 0
1, 158399, Note_on_c, 9, 42, 0
1, 158399, Note_on_c, 9, 44, 0
1, 158400, Note_on_c, 9, 42, 127
1, 158400, Note_on_c, 9, 36, 127
1, 158639, Note_on_c, 9, 42, 0
1, 158640, Note_on_c, 9, 42, 100
1, 158879, Note_on_c, 9, 36, 0
1, 158879, Note_on_c, 9, 42, 0
1, 158880, Note_on_c, 9, 38, 110
1, 158880, Note_on_c, 9, 42, 127
1, 158895, Note_on_c, 9, 44, 97
1, 159119, Note_on_c, 9, 38, 0
1, 159119, Note_on_c, 9, 42, 0
1, 159119, Note_on_c, 9, 44, 0
1, 159120, Note_on_c, 9, 42, 99
1, 159359, Note_on_c, 9, 42, 0
1, 159360, Note_on_c, 9, 42, 127
1, 159360, Note_on_c, 9, 36, 127
1, 159599, Note_on_c, 9, 42, 0
1, 159600, Note_on_c, 9, 42, 96
1, 159839, Note_on_c, 9, 36, 0
1, 159839, Note_on_c, 9, 42, 0
1, 159840, Note_on_c, 9, 38, 110
1, 159840, Note_on_c, 9, 42, 127
1, 159855, Note_on_c, 9, 44, 93
1, 160079, Note_on_c, 9, 38, 0
1, 160079, Note_on_c, 9, 42, 0
1, 160079, Note_on_c, 9, 44, 0
1, 160080, Note_on_c, 9, 38, 111
1, 160080, Note_on_c, 9, 42, 101
1, 160095, Note_on_c, 9, 44, 94
1, 160319, Note_on_c, 9, 38, 0
1, 160319, Note_on_c, 9, 42, 0
1, 160319, Note_on_c, 9, 44, 0
1, 160320, Note_on_c, 9, 36, 127
1, 160335, Note_on_c, 9, 42, 127
1, 160559, Note_on_c, 9, 42, 0
1, 160560, Note_on_c, 9, 42, 100
1, 160799, Note_on_c, 9, 36, 0
1, 160799, Note_on_c, 9, 42, 0
1, 160800, Note_on_c, 9, 38, 111
1, 160800, Note_on_c, 9, 42, 127
1, 160815, Note_on_c, 9, 44, 97
1, 161039, Note_on_c, 9, 38, 0
1, 161039, Note_on_c, 9, 42, 0
1, 161039, Note_on_c, 9, 44, 0
1, 161040, Note_on_c, 9, 42, 96
1, 161040, Note_on_c, 9, 49, 97
1, 161279, Note_on_c, 9, 42, 0
1, 161279, Note_on_c, 9, 49, 0
1, 161280, Note_on_c, 9, 36, 127
1, 161295, Note_on_c, 9, 42, 127
1, 161295, Note_on_c, 9, 49, 93
1, 161519, Note_on_c, 9, 42, 0
1, 161519, Note_on_c, 9, 49, 0
1, 161520, Note_on_c, 9, 42, 96
1, 161759, Note_on_c, 9, 36, 0
1, 161759, Note_on_c, 9, 42, 0
1, 161760, Note_on_c, 9, 38, 111
1, 161774, Note_on_c, 9, 38, 0
1, 161775, Note_on_c, 9, 42, 127
1, 161775, Note_on_c, 9, 44, 98
1, 161999, Note_on_c, 9, 42, 0
1, 161999, Note_on_c, 9, 44, 0
1, 162000, Note_on_c, 9, 38, 110
1, 162000, Note_on_c, 9, 42, 96
1, 162015, Note_on_c, 9, 44, 95
1, 162239, Note_on_c, 9, 38, 0
1, 162239, Note_on_c, 9, 42, 0
1, 162239, Note_on_c, 9, 44, 0
1, 162240, Note_on_c, 9, 42, 127
1, 162240, Note_on_c, 9, 36, 127
1, 162479, Note_on_c, 9, 42, 0
1, 162480, Note_on_c, 9, 42, 96
1, 162719, Note_on_c, 9, 36, 0
1, 162719, Note_on_c, 9, 42, 0
1, 162720, Note_on_c, 9, 38, 110
1, 162720, Note_on_c, 9, 42, 127
1, 162735, Note_on_c, 9, 44, 95
1, 162959, Note_on_c, 9, 38, 0
1, 162959, Note_on_c, 9, 42, 0
1, 162959, Note_on_c, 9, 44, 0
1, 162960, Note_on_c, 9, 42, 101
1, 163199, Note_on_c, 9, 42, 0
1, 163200, Note_on_c, 9, 42, 127
1, 163200, Note_on_c, 9, 36, 127
1, 163439, Note_on_c, 9, 42, 0
1, 163440, Note_on_c, 9, 42, 99
1, 163679, Note_on_c, 9, 36, 0
1, 163679, Note_on_c, 9, 42, 0
1, 163680, Note_on_c, 9, 38, 107
1, 163680, Note_on_c, 9, 42, 127
1, 163695, Note_on_c, 9, 44, 94
1, 163919, Note_on_c, 9, 38, 0
1, 163919, Note_on_c, 9, 42, 0
1, 163919, Note_on_c, 9, 44, 0
1, 163920, Note_on_c, 9, 38, 108
1, 163920, Note_on_c, 9, 42, 99
1, 163935, Note_on_c, 9, 44, 97
1, 164159, Note_on_c, 9, 38, 0
1, 164159, Note_on_c, 9, 42, 0
1, 164159, Note_on_c, 9, 44, 0
1, 164160, Note_on_c, 9, 42, 127
1, 164160, Note_on_c, 9, 36, 127
1, 164399, Note_on_c, 9, 42, 0
1, 164400, Note_on_c, 9, 42, 97
1, 164639, Note_on_c, 9, 36, 0
1, 164639, Note_on_c, 9, 42, 0
1, 164640, Note_on_c, 9, 38, 112
1, 164640, Note_on_c, 9, 42, 127
1, 164640, Note_on_c, 9, 44, 97
1, 164879, Note_on_c, 9, 38, 0
1, 164879, Note_on_c, 9, 42, 0
1, 164880, Note_on_c, 9, 46, 106
1, 164880, Note_on_c, 9, 49, 95
1, 165119, Note_on_c, 9, 44, 0
1, 165119, Note_on_c, 9, 46, 0
1, 165119, Note_on_c, 9, 49, 0
1, 165120, Note_on_c, 9, 42, 127
1, 165120, Note_on_c, 9, 49, 97
1, 165120, Note_on_c, 9, 36, 127
1, 165359, Note_on_c, 9, 42, 0
1, 165359, Note_on_c, 9, 49, 0
1, 165360, Note_on_c, 9, 42, 100
1, 165599, Note_on_c, 9, 36, 0
1, 165599, Note_on_c, 9, 42, 0
1, 165600, Note_on_c, 9, 38, 112
1, 165614, Note_on_c, 9, 38, 0
1, 165615, Note_on_c, 9, 42, 127
1, 165615, Note_on_c, 9, 44, 94
1, 165839, Note_on_c, 9, 42, 0
1, 165839, Note_on_c, 9, 44, 0
1, 165840, Note_on_c, 9, 38, 109
1, 165840, Note_on_c, 9, 42, 99
1, 165840, Note_on_c, 9, 44, 98
1, 166079, Note_on_c, 9, 38, 0
1, 166079, Note_on_c, 9, 42, 0
1, 166079, Note_on_c, 9, 44, 0
1, 166080, Note_on_c, 9, 36, 127
1, 166095, Note_on_c, 9, 42, 127
1, 166319, Note_on_c, 9, 42, 0
1, 166320, Note_on_c, 9, 42, 101
1, 166559, Note_on_c, 9, 36, 0
1, 166559, Note_on_c, 9, 42, 0
1, 166560, Note_on_c, 9, 38, 110
1, 166560, Note_on_c, 9, 42, 127
1, 166560, Note_on_c, 9, 44, 98
1, 166799, Note_on_c, 9, 38, 0
1, 166799, Note_on_c, 9, 42, 0
1, 166800, Note_on_c, 9, 42, 101
1, 167039, Note_on_c, 9, 44, 0
1, 167039, Note_on_c, 9, 42, 0
1, 167040, Note_on_c, 9, 36, 127
1, 167055, Note_on_c, 9, 42, 127
1, 167279, Note_on_c, 9, 42, 0
1, 167280, Note_on_c, 9, 42, 99
1, 167519, Note_on_c, 9, 36, 0
1, 167519, Note_on_c, 9, 42, 0
1, 167520, Note_on_c, 9, 38, 107
1, 167520, Note_on_c, 9, 42, 127
1, 167520, Note_on_c, 9, 44, 93
1, 167759, Note_on_c, 9, 38, 0
1, 167759, Note_on_c, 9, 42, 0
1, 167759, Note_on_c, 9, 44, 0
1, 167760, Note_on_c, 9, 38, 109
1, 167760, Note_on_c, 9, 42, 101
1, 167760, Note_on_c, 9, 44, 93
1, 167999, Note_on_c, 9, 38, 0
1, 167999, Note_on_c, 9, 42, 0
1, 167999, Note_on_c, 9, 44, 0
1, 168000, Note_on_c, 9, 42, 127
1, 168000, Note_on_c, 9, 36, 127
1, 168239, Note_on_c, 9, 42, 0
1, 168240, Note_on_c, 9, 42, 101
1, 168479, Note_on_c, 9, 36, 0
1, 168479, Note_on_c, 9, 42, 0
1, 168480, Note_on_c, 9, 38, 111
1, 168480, Note_on_c, 9, 42, 127
1, 168480, Note_on_c, 9, 44, 97
1, 168719, Note_on_c, 9, 38, 0
1, 168719, Note_on_c, 9, 42, 0
1, 168720, Note_on_c, 9, 42, 101
1, 168959, Note_on_c, 9, 44, 0
1, 168959, Note_on_c, 9, 42, 0
1, 168960, Note_on_c, 9, 42, 127
1, 168960, Note_on_c, 9, 36, 127
1, 169199, Note_on_c, 9, 42, 0
1, 169200, Note_on_c, 9, 42, 96
1, 169439, Note_on_c, 9, 36, 0
1, 169439, Note_on_c, 9, 42, 0
1, 169440, Note_on_c, 9, 38, 109
1, 169440, Note_on_c, 9, 42, 127
1, 169455, Note_on_c, 9, 44, 98
1, 169679, Note_on_c, 9, 38, 0
1, 169679, Note_on_c, 9, 42, 0
1, 169679, Note_on_c, 9, 44, 0
1, 169680, Note_on_c, 9, 38, 109
1, 169680, Note_on_c, 9, 42, 96
1, 169680, Note_on_c, 9, 44, 93
1, 169919, Note_on_c, 9, 38, 0
1, 169919, Note_on_c, 9, 42, 0
1, 169919, Note_on_c, 9, 44, 0
1, 169920, Note_on_c, 9, 42, 127
1, 169920, Note_on_c, 9, 36, 127
1, 170159, Note_on_c, 9, 42, 0
1, 170160, Note_on_c, 9, 42, 97
1, 170399, Note_on_c, 9, 36, 0
1, 170399, Note_on_c, 9, 42, 0
1, 170400, Note_on_c, 9, 38, 109
1, 170400, Note_on_c, 9, 42, 127
1, 170400, Note_on_c, 9, 44, 96
1, 170639, Note_on_c, 9, 38, 0
1, 170639, Note_on_c, 9, 42, 0
1, 170640, Note_on_c, 9, 42, 100
1, 170879, Note_on_c, 9, 44, 0
1, 170879, Note_on_c, 9, 42, 0
1, 170880, Note_on_c, 9, 36, 127
1, 170895, Note_on_c, 9, 42, 127
1, 171119, Note_on_c, 9, 42, 0
1, 171120, Note_on_c, 9, 42, 97
1, 171359, Note_on_c, 9, 36, 0
1, 171359, Note_on_c, 9, 42, 0
1, 171360, Note_on_c, 9, 38, 107
1, 171360, Note_on_c, 9, 42, 127
1, 171375, Note_on_c, 9, 44, 97
1, 171599, Note_on_c, 9, 38, 0
1, 171599, Note_on_c, 9, 42, 0
1, 171599, Note_on_c, 9, 44, 0
1, 171600, Note_on_c, 9, 38, 111
1, 171600, Note_on_c, 9, 42, 96
1, 171600, Note_on_c, 9, 44, 98
1, 171839, Note_on_c, 9, 38, 0
1, 171839, Note_on_c, 9, 42, 0
1, 171839, Note_on_c, 9, 44, 0
1, 171840, Note_on_c, 9, 42, 127
1, 171840, Note_on_c, 9, 36, 127
1, 172079, Note_on_c, 9, 42, 0
1, 172080, Note_on_c, 9, 42, 101
1, 172319, Note_on_c, 9, 36, 0
1, 172319, Note_on_c, 9, 42, 0
1, 172320, Note_on_c, 9, 38, 110
1, 172320, Note_on_c, 9, 42, 127
1, 172320, Note_on_c, 9, 44, 97
1, 172559, Note_on_c, 9, 38, 0
1, 172559, Note_on_c, 9, 42, 0
1, 172560, Note_on_c, 9, 42, 98
1, 172799, Note_on_c, 9, 44, 0
1, 172799, Note_on_c, 9, 42, 0
1, 172800, Note_on_c, 9, 36, 127
1, 172815, Note_on_c, 9, 42, 127
1, 173039, Note_on_c, 9, 42, 0
1, 173040, Note_on_c, 9, 42, 97
1, 173279, Note_on_c, 9, 36, 0
1, 173279, Note_on_c, 9, 42, 0
1, 173280, Note_on_c, 9, 38, 107
1, 173280, Note_on_c, 9, 42, 127
1, 173280, Note_on_c, 9, 44, 98
1, 173519, Note_on_c, 9, 38, 0
1, 173519, Note_on_c, 9, 42, 0
1, 173519, Note_on_c, 9, 44, 0
1, 173520, Note_on_c, 9, 38, 109
1, 173520, Note_on_c, 9, 42, 101
1, 173520, Note_on_c, 9, 44, 98
1, 173759, Note_on_c, 9, 38, 0
1, 173759, Note_on_c, 9, 42, 0
1, 173759, Note_on_c, 9, 44, 0
1, 173760, Note_on_c, 9, 42, 127
1, 173760, Note_on_c, 9, 36, 127
1, 173999, Note_on_c, 9, 42, 0
1, 174000, Note_on_c, 9, 42, 101
1, 174239, Note_on_c, 9, 36, 0
1, 174239, Note_on_c, 9, 42, 0
1, 174240, Note_on_c, 9, 38, 107
1, 174240, Note_on_c, 9, 42, 127
1, 174240, Note_on_c, 9, 44, 94
1, 174479, Note_on_c, 9, 38, 0
1, 174479, Note_on_c, 9, 42, 0
1, 174480, Note_on_c, 9, 42, 101
1, 174719, Note_on_c, 9, 44, 0
1, 174719, Note_on_c, 9, 42, 0
1, 174720, Note_on_c, 9, 36, 127
1, 174735, Note_on_c, 9, 42, 127
1, 174959, Note_on_c, 9, 42, 0
1, 174960, Note_on_c, 9, 42, 101
1, 175199, Note_on_c, 9, 36, 0
1, 175199, Note_on_c, 9, 42, 0
1, 175200, Note_on_c, 9, 38, 110
1, 175200, Note_on_c, 9, 42, 127
1, 175200, Note_on_c, 9, 44, 98
1, 175439, Note_on_c, 9, 38, 0
1, 175439, Note_on_c, 9, 42, 0
1, 175439, Note_on_c, 9, 44, 0
1, 175440, Note_on_c, 9, 38, 107
1, 175440, Note_on_c, 9, 42, 99
1, 175455, Note_on_c, 9, 44, 97
1, 175679, Note_on_c, 9, 38, 0
1, 175679, Note_on_c, 9, 42, 0
1, 175679, Note_on_c, 9, 44, 0
1, 175680, Note_on_c, 9, 36, 127
1, 175695, Note_on_c, 9, 42, 127
1, 175919, Note_on_c, 9, 42, 0
1, 175920, Note_on_c, 9, 42, 96
1, 176159, Note_on_c, 9, 36, 0
1, 176159, Note_on_c, 9, 42, 0
1, 176160, Note_on_c, 9, 38, 108
1, 176160, Note_on_c, 9, 42, 127
1, 176175, Note_on_c, 9, 44, 98
1, 176399, Note_on_c, 9, 38, 0
1, 176399, Note_on_c, 9, 42, 0
1, 176399, Note_on_c, 9, 44, 0
1, 176400, Note_on_c, 9, 42, 97
1, 176639, Note_on_c, 9, 42, 0
1, 176640, Note_on_c, 9, 42, 127
1, 176640, Note_on_c, 9, 36, 127
1, 176879, Note_on_c, 9, 42, 0
1, 176880, Note_on_c, 9, 42, 97
1, 177119, Note_on_c, 9, 36, 0
1, 177119, Note_on_c, 9, 42, 0
1, 177120, Note_on_c, 9, 38, 108
1, 177120, Note_on_c, 9, 42, 127
1, 177120, Note_on_c, 9, 44, 94
1, 177359, Note_on_c, 9, 38, 0
1, 177359, Note_on_c, 9, 42, 0
1, 177359, Note_on_c, 9, 44, 0
1, 177360, Note_on_c, 9, 38, 107
1, 177360, Note_on_c, 9, 42, 96
1, 177375, Note_on_c, 9, 44, 97
1, 177599, Note_on_c, 9, 38, 0
1, 177599, Note_on_c, 9, 42, 0
1, 177599, Note_on_c, 9, 44, 0
1, 177600, Note_on_c, 9, 42, 127
1, 177600, Note_on_c, 9, 36, 127
1, 177839, Note_on_c, 9, 42, 0
1, 177840, Note_on_c, 9, 42, 101
1, 178079, Note_on_c, 9, 36, 0
1, 178079, Note_on_c, 9, 42, 0
1, 178080, Note_on_c, 9, 38, 111
1, 178080, Note_on_c, 9, 42, 127
1, 178095, Note_on_c, 9, 44, 97
1, 178319, Note_on_c, 9, 38, 0
1, 178319, Note_on_c, 9, 42, 0
1, 178319, Note_on_c, 9, 44, 0
1, 178320, Note_on_c, 9, 42, 99
1, 178559, Note_on_c, 9, 42, 0
1, 178560, Note_on_c, 9, 42, 127
1, 178560, Note_on_c, 9, 36, 127
1, 178799, Note_on_c, 9, 42, 0
1, 178800, Note_on_c, 9, 42, 97
1, 179039, Note_on_c, 9, 36, 0
1, 179039, Note_on_c, 9, 42, 0
1, 179040, Note_on_c, 9, 38, 109
1, 179040, Note_on_c, 9, 42, 127
1, 179055, Note_on_c, 9, 44, 95
1, 179279, Note_on_c, 9, 38, 0
1, 179279, Note_on_c, 9, 42, 0
1, 179279, Note_on_c, 9, 44, 0
1, 179280, Note_on_c, 9, 38, 108
1, 179280, Note_on_c, 9, 42, 98
1, 179295, Note_on_c, 9, 44, 96
1, 179519, Note_on_c, 9, 38, 0
1, 179519, Note_on_c, 9, 42, 0
1, 179519, Note_on_c, 9, 44, 0
1, 179520, Note_on_c, 9, 36, 127
1, 179535, Note_on_c, 9, 42, 127
1, 179759, Note_on_c, 9, 42, 0
1, 179760, Note_on_c, 9, 42, 101
1, 179999, Note_on_c, 9, 36, 0
1, 179999, Note_on_c, 9, 42, 0
1, 180000, Note_on_c, 9, 38, 111
1, 180000, Note_on_c, 9, 42, 127
1, 180000, Note_on_c, 9, 44, 97
1, 180239, Note_on_c, 9, 38, 0
1, 180239, Note_on_c, 9, 42, 0
1, 180240, Note_on_c, 9, 42, 99
1, 180479, Note_on_c, 9, 44, 0
1, 180479, Note_on_c, 9, 42, 0
1, 180480, Note_on_c, 9, 36, 127
1, 180495, Note_on_c, 9, 42, 127
1, 180719, Note_on_c, 9, 42, 0
1, 180720, Note_on_c, 9, 42, 96
1, 180959, Note_on_c, 9, 36, 0
1, 180959, Note_on_c, 9, 42, 0
1, 180960, Note_on_c, 9, 38, 112
1, 180960, Note_on_c, 9, 42, 127
1, 180960, Note_on_c, 9, 44, 98
1, 181199, Note_on_c, 9, 38, 0
1, 181199, Note_on_c, 9, 42, 0
1, 181199, Note_on_c, 9, 44, 0
1, 181200, Note_on_c, 9, 38, 111
1, 181200, Note_on_c, 9, 42, 99
1, 181200, Note_on_c, 9, 44, 94
1, 181439, Note_on_c, 9, 38, 0
1, 181439, Note_on_c, 9, 42, 0
1, 181439, Note_on_c, 9, 44, 0
1, 181440, Note_on_c, 9, 42, 127
1, 181440, Note_on_c, 9, 36, 127
1, 181679, Note_on_c, 9, 42, 0
1, 181680, Note_on_c, 9, 42, 97
1, 181919, Note_on_c, 9, 36, 0
1, 181919, Note_on_c, 9, 42, 0
1, 181920, Note_on_c, 9, 38, 108
1, 181920, Note_on_c, 9, 42, 127
1, 181935, Note_on_c, 9, 44, 93
1, 182159, Note_on_c, 9, 38, 0
1, 182159, Note_on_c, 9, 42, 0
1, 182159, Note_on_c, 9, 44, 0
1, 182160, Note_on_c, 9, 42, 98
1, 182399, Note_on_c, 9, 42, 0
1, 182420, Note_on_c, 9, 38, 112
1, 182420, Note_on_c, 9, 44, 96
1, 182420, Note_on_c, 9, 36, 127
1, 182459, Note_on_c, 9, 38, 0
1, 182459, Note_on_c, 9, 44, 0
1, 182459, Note_on_c, 9, 36, 0
1, 182520, Note_on_c, 9, 38, 110
1, 182535, Note_on_c, 9, 44, 98
1, 182579, Note_on_c, 9, 44, 0
1, 182759, Note_on_c, 9, 38, 0
1, 182760, Note_on_c, 9, 38, 109
1, 182760, Note_on_c, 9, 44, 95
1, 182879, Note_on_c, 9, 38, 0
1, 182879, Note_on_c, 9, 44, 0
1, 182880, Note_on_c, 9, 38, 111
1, 182880, Note_on_c, 9, 44, 93
1, 183119, Note_on_c, 9, 38, 0
1, 183119, Note_on_c, 9, 44, 0
1, 183120, Note_on_c, 9, 38, 111
1, 183120, Note_on_c, 9, 44, 98
1, 183359, Note_on_c, 9, 38, 0
1, 183359, Note_on_c, 9, 44, 0
1, 183360, Note_on_c, 9, 38, 108
1, 183360, Note_on_c, 9, 36, 127
1, 183374, Note_on_c, 9, 36, 0
1, 183375, Note_on_c, 9, 44, 98
1, 183599, Note_on_c, 9, 38, 0
1, 183599, Note_on_c, 9, 44, 0
1, 183600, Note_on_c, 9, 50, 99
1, 183839, Note_on_c, 9, 50, 0
1, 183840, Note_on_c, 9, 47, 96
1, 184080, Note_on_c, 9, 43, 98
1, 184319, Note_on_c, 9, 47, 0
1, 184319, Note_on_c, 9, 43, 0
1, 184320, Note_on_c, 9, 42, 127
1, 184320, Note_on_c, 9, 49, 97
1, 184320, Note_on_c, 9, 36, 127
1, 184559, Note_on_c, 9, 42, 0
1, 184559, Note_on_c, 9, 49, 0
1, 184560, Note_on_c, 9, 42, 101
1, 184799, Note_on_c, 9, 36, 0
1, 184799, Note_on_c, 9, 42, 0
1, 184800, Note_on_c, 9, 38, 112
1, 184814, Note_on_c, 9, 38, 0
1, 184815, Note_on_c, 9, 42, 127
1, 184815, Note_on_c, 9, 44, 96
1, 185039, Note_on_c, 9, 42, 0
1, 185039, Note_on_c, 9, 44, 0
1, 185040, Note_on_c, 9, 38, 112
1, 185040, Note_on_c, 9, 42, 99
1, 185040, Note_on_c, 9, 49, 94
1, 185055, Note_on_c, 9, 44, 98
1, 185279, Note_on_c, 9, 38, 0
1, 185279, Note_on_c, 9, 42, 0
1, 185279, Note_on_c, 9, 49, 0
1, 185279, Note_on_c, 9, 44, 0
1, 185280, Note_on_c, 9, 36, 127
1, 185295, Note_on_c, 9, 42, 127
1, 185519, Note_on_c, 9, 42, 0
1, 185520, Note_on_c, 9, 42, 97
1, 185759, Note_on_c, 9, 36, 0
1, 185759, Note_on_c, 9, 42, 0
1, 185775, Note_on_c, 9, 38, 111
1, 185775, Note_on_c, 9, 42, 127
1, 185780, Note_on_c, 9, 44, 93
1, 185819, Note_on_c, 9, 44, 0
1, 185999, Note_on_c, 9, 38, 0
1, 185999, Note_on_c, 9, 42, 0
1, 186000, Note_on_c, 9, 42, 101
1, 186239, Note_on_c, 9, 42, 0
1, 186240, Note_on_c, 9, 42, 127
1, 186240, Note_on_c, 9, 36, 127
1, 186479, Note_on_c, 9, 42, 0
1, 186480, Note_on_c, 9, 42, 100
1, 186719, Note_on_c, 9, 36, 0
1, 186719, Note_on_c, 9, 42, 0
1, 186720, Note_on_c, 9, 38, 108
1, 186720, Note_on_c, 9, 42, 127
1, 186735, Note_on_c, 9, 44, 96
1, 186959, Note_on_c, 9, 38, 0
1, 186959, Note_on_c, 9, 42, 0
1, 186959, Note_on_c, 9, 44, 0
1, 186960, Note_on_c, 9, 38, 112
1, 186960, Note_on_c, 9, 42, 98
1, 186960, Note_on_c, 9, 49, 95
1, 186960, Note_on_c, 9, 44, 96
1, 187199, Note_on_c, 9, 38, 0
1, 187199, Note_on_c, 9, 42, 0
1, 187199, Note_on_c, 9, 49, 0
1, 187199, Note_on_c, 9, 44, 0
1, 187200, Note_on_c, 9, 42, 127
1, 187200, Note_on_c, 9, 36, 127
1, 187439, Note_on_c, 9, 42, 0
1, 187440, Note_on_c, 9, 42, 96
1, 187679, Note_on_c, 9, 36, 0
1, 187679, Note_on_c, 9, 42, 0
1, 187680, Note_on_c, 9, 38, 117
1, 187694, Note_on_c, 9, 38, 0
1, 187695, Note_on_c, 9, 42, 127
1, 187695, Note_on_c, 9, 44, 105
1, 187919, Note_on_c, 9, 42, 0
1, 187919, Note_on_c, 9, 44, 0
1, 187920, Note_on_c, 9, 42, 96
1, 188159, Note_on_c, 9, 42, 0
1, 188160, Note_on_c, 9, 42, 127
1, 188160, Note_on_c, 9, 36, 127
1, 188399, Note_on_c, 9, 42, 0
1, 188400, Note_on_c, 9, 42, 99
1, 188639, Note_on_c, 9, 36, 0
1, 188639, Note_on_c, 9, 42, 0
1, 188640, Note_on_c, 9, 38, 112
1, 188640, Note_on_c, 9, 42, 127
1, 188655, Note_on_c, 9, 44, 98
1, 188879, Note_on_c, 9, 38, 0
1, 188879, Note_on_c, 9, 42, 0
1, 188879, Note_on_c, 9, 44, 0
1, 188880, Note_on_c, 9, 38, 107
1, 188880, Note_on_c, 9, 42, 96
1, 188880, Note_on_c, 9, 49, 98
1, 188895, Note_on_c, 9, 44, 95
1, 189119, Note_on_c, 9, 38, 0
1, 189119, Note_on_c, 9, 42, 0
1, 189119, Note_on_c, 9, 49, 0
1, 189119, Note_on_c, 9, 44, 0
1, 189120, Note_on_c, 9, 42, 127
1, 189120, Note_on_c, 9, 36, 127
1, 189359, Note_on_c, 9, 42, 0
1, 189360, Note_on_c, 9, 42, 97
1, 189599, Note_on_c, 9, 36, 0
1, 189599, Note_on_c, 9, 42, 0
1, 189600, Note_on_c, 9, 38, 109
1, 189600, Note_on_c, 9, 42, 127
1, 189615, Note_on_c, 9, 44, 94
1, 189839, Note_on_c, 9, 38, 0
1, 189839, Note_on_c, 9, 42, 0
1, 189839, Note_on_c, 9, 44, 0
1, 189840, Note_on_c, 9, 42, 99
1, 190079, Note_on_c, 9, 42, 0
1, 190080, Note_on_c, 9, 42, 127
1, 190080, Note_on_c, 9, 36, 127
1, 190319, Note_on_c, 9, 42, 0
1, 190319, Note_on_c, 9, 36, 0
1, 190320, Note_on_c, 9, 38, 112
1, 190320, Note_on_c, 9, 42, 98
1, 190320, Note_on_c, 9, 49, 96
1, 190320, Note_on_c, 9, 36, 127
1, 190334, Note_on_c, 9, 36, 0
1, 190335, Note_on_c, 9, 44, 93
1, 190559, Note_on_c, 9, 38, 0
1, 190559, Note_on_c, 9, 42, 0
1, 190559, Note_on_c, 9, 49, 0
1, 190559, Note_on_c, 9, 44, 0
1, 190560, Note_on_c, 9, 38, 107
1, 190560, Note_on_c, 9, 42, 127
1, 190560, Note_on_c, 9, 49, 96
1, 190560, Note_on_c, 9, 36, 127
1, 190579, Note_on_c, 9, 36, 0
1, 190580, Note_on_c, 9, 44, 93
1, 190619, Note_on_c, 9, 44, 0
1, 190799, Note_on_c, 9, 38, 0
1, 190799, Note_on_c, 9, 42, 0
1, 190799, Note_on_c, 9, 49, 0
1, 190800, Note_on_c, 9, 38, 107
1, 190800, Note_on_c, 9, 42, 100
1, 190800, Note_on_c, 9, 49, 95
1, 190800, Note_on_c, 9, 44, 94
1, 190800, Note_on_c, 9, 36, 127
1, 191039, Note_on_c, 9, 38, 0
1, 191039, Note_on_c, 9, 42, 0
1, 191039, Note_on_c, 9, 49, 0
1, 191039, Note_on_c, 9, 44, 0
1, 191039, Note_on_c, 9, 36, 0
1, 191040, Note_on_c, 9, 38, 110
1, 191040, Note_on_c, 9, 42, 127
1, 191040, Note_on_c, 9, 49, 96
1, 191040, Note_on_c, 9, 36, 127
1, 191054, Note_on_c, 9, 36, 0
1, 191055, Note_on_c, 9, 44, 98
1, 191279, Note_on_c, 9, 38, 0
1, 191279, Note_on_c, 9, 42, 0
1, 191279, Note_on_c, 9, 49, 0
1, 191279, Note_on_c, 9, 44, 0
1, 191280, Note_on_c, 9, 38, 107
1, 191280, Note_on_c, 9, 42, 100
1, 191280, Note_on_c, 9, 49, 94
1, 191280, Note_on_c, 9, 36, 127
1, 191294, Note_on_c, 9, 36, 0
1, 191295, Note_on_c, 9, 44, 95
1, 191519, Note_on_c, 9, 38, 0
1, 191519, Note_on_c, 9, 42, 0
1, 191519, Note_on_c, 9, 49, 0
1, 191519, Note_on_c, 9, 44, 0
1, 191520, Note_on_c, 9, 38, 109
1, 191520, Note_on_c, 9, 42, 127
1, 191520, Note_on_c, 9, 49, 96
1, 191520, Note_on_c, 9, 36, 127
1, 191539, Note_on_c, 9, 36, 0
1, 191540, Note_on_c, 9, 44, 95
1, 191579, Note_on_c, 9, 44, 0
1, 191759, Note_on_c, 9, 38, 0
1, 191759, Note_on_c, 9, 42, 0
1, 191759, Note_on_c, 9, 49, 0
1, 191760, Note_on_c, 9, 38, 111
1, 191760, Note_on_c, 9, 42, 96
1, 191760, Note_on_c, 9, 49, 95
1, 191760, Note_on_c, 9, 36, 127
1, 191774, Note_on_c, 9, 36, 0
1, 191775, Note_on_c, 9, 44, 97
1, 191999, Note_on_c, 9, 38, 0
1, 191999, Note_on_c, 9, 42, 0
1, 191999, Note_on_c, 9, 49, 0
1, 191999, Note_on_c, 9, 44, 0
1, 194320, Note_on_c, 9, 36, 127
1, 194339, Note_on_c, 9, 36, 0
1, 194400, Note_on_c, 9, 38, 111
1, 194400, Note_on_c, 9, 44, 96
1, 194759, Note_on_c, 9, 38, 0
1, 194759, Note_on_c, 9, 44, 0
1, 194760, Note_on_c, 9, 38, 107
1, 194760, Note_on_c, 9, 44, 94
1, 194879, Note_on_c, 9, 38, 0
1, 194879, Note_on_c, 9, 44, 0
1, 194880, Note_on_c, 9, 38, 110
1, 194880, Note_on_c, 9, 36, 127
1, 194894, Note_on_c, 9, 36, 0
1, 194895, Note_on_c, 9, 44, 95
1, 195119, Note_on_c, 9, 38, 0
1, 195119, Note_on_c, 9, 44, 0
1, 195120, Note_on_c, 9, 38, 111
1, 195120, Note_on_c, 9, 44, 95
1, 195359, Note_on_c, 9, 38, 0
1, 195359, Note_on_c, 9, 44, 0
1, 195360, Note_on_c, 9, 38, 109
1, 195360, Note_on_c, 9, 44, 98
1, 195479, Note_on_c, 9, 38, 0
1, 195479, Note_on_c, 9, 44, 0
1, 195480, Note_on_c, 9, 38, 111
1, 195480, Note_on_c, 9, 44, 96
1, 195599, Note_on_c, 9, 38, 0
1, 195600, Note_on_c, 9, 50, 100
1, 195719, Note_on_c, 9, 44, 0
1, 195720, Note_on_c, 9, 43, 98
1, 195839, Note_on_c, 9, 50, 0
1, 195839, Note_on_c, 9, 43, 0
1, 195840, Note_on_c, 9, 42, 127
1, 195840, Note_on_c, 9, 49, 96
1, 195840, Note_on_c, 9, 36, 127
1, 196079, Note_on_c, 9, 42, 0
1, 196079, Note_on_c, 9, 49, 0
1, 196080, Note_on_c, 9, 42, 96
1, 196319, Note_on_c, 9, 36, 0
1, 196319, Note_on_c, 9, 42, 0
1, 196320, Note_on_c, 9, 38, 121
1, 196320, Note_on_c, 9, 42, 127
1, 196335, Note_on_c, 9, 44, 105
1, 196559, Note_on_c, 9, 38, 0
1, 196559, Note_on_c, 9, 42, 0
1, 196559, Note_on_c, 9, 44, 0
1, 196560, Note_on_c, 9, 38, 111
1, 196560, Note_on_c, 9, 42, 97
1, 196580, Note_on_c, 9, 44, 96
1, 196619, Note_on_c, 9, 44, 0
1, 196799, Note_on_c, 9, 38, 0
1, 196799, Note_on_c, 9, 42, 0
1, 196800, Note_on_c, 9, 36, 127
1, 196815, Note_on_c, 9, 42, 127
1, 197039, Note_on_c, 9, 42, 0
1, 197040, Note_on_c, 9, 42, 99
1, 197279, Note_on_c, 9, 36, 0
1, 197279, Note_on_c, 9, 42, 0
1, 197280, Note_on_c, 9, 38, 117
1, 197280, Note_on_c, 9, 42, 127
1, 197300, Note_on_c, 9, 44, 107
1, 197339, Note_on_c, 9, 44, 0
1, 197519, Note_on_c, 9, 38, 0
1, 197519, Note_on_c, 9, 42, 0
1, 197520, Note_on_c, 9, 42, 101
1, 197759, Note_on_c, 9, 42, 0
1, 197760, Note_on_c, 9, 42, 127
1, 197760, Note_on_c, 9, 36, 127
1, 197999, Note_on_c, 9, 42, 0
1, 198000, Note_on_c, 9, 42, 98
1, 198239, Note_on_c, 9, 36, 0
1, 198239, Note_on_c, 9, 42, 0
1, 198240, Note_on_c, 9, 38, 109
1, 198240, Note_on_c, 9, 42, 127
1, 198255, Note_on_c, 9, 44, 93
1, 198479, Note_on_c, 9, 38, 0
1, 198479, Note_on_c, 9, 42, 0
1, 198479, Note_on_c, 9, 44, 0
1, 198480, Note_on_c, 9, 38, 111
1, 198480, Note_on_c, 9, 42, 96
1, 198495, Note_on_c, 9, 44, 94
1, 198719, Note_on_c, 9, 38, 0
1, 198719, Note_on_c, 9, 42, 0
1, 198719, Note_on_c, 9, 44, 0
1, 198720, Note_on_c, 9, 36, 127
1, 198735, Note_on_c, 9, 42, 127
1, 198959, Note_on_c, 9, 42, 0
1, 198960, Note_on_c, 9, 42, 96
1, 199199, Note_on_c, 9, 36, 0
1, 199199, Note_on_c, 9, 42, 0
1, 199200, Note_on_c, 9, 38, 120
1, 199200, Note_on_c, 9, 42, 127
1, 199220, Note_on_c, 9, 44, 107
1, 199259, Note_on_c, 9, 44, 0
1, 199439, Note_on_c, 9, 38, 0
1, 199439, Note_on_c, 9, 42, 0
1, 199440, Note_on_c, 9, 46, 109
1, 199679, Note_on_c, 9, 46, 0
1, 199680, Note_on_c, 9, 42, 127
1, 199680, Note_on_c, 9, 36, 127
1, 199919, Note_on_c, 9, 42, 0
1, 199920, Note_on_c, 9, 42, 101
1, 200159, Note_on_c, 9, 36, 0
1, 200159, Note_on_c, 9, 42, 0
1, 200160, Note_on_c, 9, 38, 111
1, 200174, Note_on_c, 9, 38, 0
1, 200175, Note_on_c, 9, 42, 127
1, 200180, Note_on_c, 9, 44, 93
1, 200219, Note_on_c, 9, 44, 0
1, 200399, Note_on_c, 9, 42, 0
1, 200400, Note_on_c, 9, 38, 109
1, 200400, Note_on_c, 9, 42, 98
1, 200415, Note_on_c, 9, 44, 95
1, 200639, Note_on_c, 9, 38, 0
1, 200639, Note_on_c, 9, 42, 0
1, 200639, Note_on_c, 9, 44, 0
1, 200640, Note_on_c, 9, 42, 127
1, 200640, Note_on_c, 9, 36, 127
1, 200879, Note_on_c, 9, 42, 0
1, 200880, Note_on_c, 9, 42, 99
1, 201119, Note_on_c, 9, 36, 0
1, 201119, Note_on_c, 9, 42, 0
1, 201120, Note_on_c, 9, 38, 107
1, 201120, Note_on_c, 9, 42, 127
1, 201135, Note_on_c, 9, 44, 97
1, 201359, Note_on_c, 9, 38, 0
1, 201359, Note_on_c, 9, 42, 0
1, 201359, Note_on_c, 9, 44, 0
1, 201360, Note_on_c, 9, 42, 101
1, 201599, Note_on_c, 9, 42, 0
1, 201600, Note_on_c, 9, 42, 127
1, 201600, Note_on_c, 9, 49, 96
1, 201600, Note_on_c, 9, 36, 127
1, 201839, Note_on_c, 9, 42, 0
1, 201839, Note_on_c, 9, 49, 0
1, 201840, Note_on_c, 9, 42, 101
1, 202079, Note_on_c, 9, 36, 0
1, 202079, Note_on_c, 9, 42, 0
1, 202080, Note_on_c, 9, 38, 111
1, 202080, Note_on_c, 9, 42, 127
1, 202095, Note_on_c, 9, 44, 98
1, 202319, Note_on_c, 9, 38, 0
1, 202319, Note_on_c, 9, 42, 0
1, 202319, Note_on_c, 9, 44, 0
1, 202320, Note_on_c, 9, 38, 112
1, 202320, Note_on_c, 9, 50, 96
1, 202320, Note_on_c, 9, 42, 96
1, 202335, Note_on_c, 9, 44, 98
1, 202559, Note_on_c, 9, 38, 0
1, 202559, Note_on_c, 9, 50, 0
1, 202559, Note_on_c, 9, 42, 0
1, 202559, Note_on_c, 9, 44, 0
1, 202560, Note_on_c, 9, 50, 97
1, 202560, Note_on_c, 9, 42, 127
1, 202560, Note_on_c, 9, 36, 127
1, 202799, Note_on_c, 9, 50, 0
1, 202799, Note_on_c, 9, 42, 0
1, 202800, Note_on_c, 9, 47, 98
1, 202800, Note_on_c, 9, 42, 97
1, 203039, Note_on_c, 9, 36, 0
1, 203039, Note_on_c, 9, 47, 0
1, 203039, Note_on_c, 9, 42, 0
1, 203040, Note_on_c, 9, 47, 98
1, 203040, Note_on_c, 9, 42, 127
1, 203279, Note_on_c, 9, 47, 0
1, 203279, Note_on_c, 9, 42, 0
1, 203280, Note_on_c, 9, 42, 98
1, 203280, Note_on_c, 9, 43, 101
1, 203519, Note_on_c, 9, 42, 0
1, 203519, Note_on_c, 9, 43, 0
1, 203520, Note_on_c, 9, 42, 127
1, 203520, Note_on_c, 9, 49, 99
1, 203520, Note_on_c, 9, 36, 127
1, 203759, Note_on_c, 9, 42, 0
1, 203759, Note_on_c, 9, 49, 0
1, 203760, Note_on_c, 9, 42, 101
1, 203999, Note_on_c, 9, 36, 0
1, 203999, Note_on_c, 9, 42, 0
1, 204000, Note_on_c, 9, 38, 108
1, 204000, Note_on_c, 9, 42, 127
1, 204015, Note_on_c, 9, 44, 93
1, 204239, Note_on_c, 9, 38, 0
1, 204239, Note_on_c, 9, 42, 0
1, 204239, Note_on_c, 9, 44, 0
1, 204240, Note_on_c, 9, 38, 108
1, 204240, Note_on_c, 9, 42, 101
1, 204255, Note_on_c, 9, 44, 96
1, 204479, Note_on_c, 9, 38, 0
1, 204479, Note_on_c, 9, 42, 0
1, 204479, Note_on_c, 9, 44, 0
1, 204480, Note_on_c, 9, 42, 127
1, 204480, Note_on_c, 9, 36, 127
1, 204719, Note_on_c, 9, 42, 0
1, 204720, Note_on_c, 9, 42, 97
1, 204959, Note_on_c, 9, 36, 0
1, 204959, Note_on_c, 9, 42, 0
1, 204960, Note_on_c, 9, 38, 111
1, 204974, Note_on_c, 9, 38, 0
1, 204975, Note_on_c, 9, 42, 127
1, 204980, Note_on_c, 9, 44, 97
1, 205019, Note_on_c, 9, 44, 0
1, 205199, Note_on_c, 9, 42, 0
1, 205200, Note_on_c, 9, 42, 96
1, 205439, Note_on_c, 9, 42, 0
1, 205440, Note_on_c, 9, 42, 127
1, 205440, Note_on_c, 9, 36, 127
1, 205679, Note_on_c, 9, 42, 0
1, 205680, Note_on_c, 9, 42, 96
1, 205919, Note_on_c, 9, 36, 0
1, 205919, Note_on_c, 9, 42, 0
1, 205920, Note_on_c, 9, 38, 120
1, 205920, Note_on_c, 9, 42, 127
1, 205935, Note_on_c, 9, 44, 105
1, 206159, Note_on_c, 9, 38, 0
1, 206159, Note_on_c, 9, 42, 0
1, 206159, Note_on_c, 9, 44, 0
1, 206160, Note_on_c, 9, 38, 108
1, 206160, Note_on_c, 9, 42, 98
1, 206175, Note_on_c, 9, 44, 95
1, 206399, Note_on_c, 9, 38, 0
1, 206399, Note_on_c, 9, 42, 0
1, 206399, Note_on_c, 9, 44, 0
1, 206400, Note_on_c, 9, 42, 127
1, 206400, Note_on_c, 9, 36, 127
1, 206639, Note_on_c, 9, 42, 0
1, 206640, Note_on_c, 9, 42, 97
1, 206879, Note_on_c, 9, 36, 0
1, 206879, Note_on_c, 9, 42, 0
1, 206880, Note_on_c, 9, 38, 117
1, 206880, Note_on_c, 9, 42, 127
1, 206895, Note_on_c, 9, 44, 104
1, 207119, Note_on_c, 9, 38, 0
1, 207119, Note_on_c, 9, 42, 0
1, 207119, Note_on_c, 9, 44, 0
1, 207120, Note_on_c, 9, 42, 99
1, 207359, Note_on_c, 9, 42, 0
1, 207360, Note_on_c, 9, 36, 127
1, 207375, Note_on_c, 9, 42, 127
1, 207599, Note_on_c, 9, 42, 0
1, 207600, Note_on_c, 9, 42, 100
1, 207839, Note_on_c, 9, 36, 0
1, 207839, Note_on_c, 9, 42, 0
1, 207840, Note_on_c, 9, 38, 111
1, 207840, Note_on_c, 9, 42, 127
1, 207855, Note_on_c, 9, 44, 94
1, 208079, Note_on_c, 9, 38, 0
1, 208079, Note_on_c, 9, 42, 0
1, 208079, Note_on_c, 9, 44, 0
1, 208080, Note_on_c, 9, 38, 107
1, 208080, Note_on_c, 9, 42, 100
1, 208095, Note_on_c, 9, 44, 98
1, 208319, Note_on_c, 9, 38, 0
1, 208319, Note_on_c, 9, 42, 0
1, 208319, Note_on_c, 9, 44, 0
1, 208320, Note_on_c, 9, 42, 127
1, 208320, Note_on_c, 9, 36, 127
1, 208559, Note_on_c, 9, 42, 0
1, 208560, Note_on_c, 9, 42, 101
1, 208799, Note_on_c, 9, 36, 0
1, 208799, Note_on_c, 9, 42, 0
1, 208800, Note_on_c, 9, 38, 121
1, 208800, Note_on_c, 9, 42, 127
1, 208820, Note_on_c, 9, 44, 107
1, 208859, Note_on_c, 9, 44, 0
1, 209039, Note_on_c, 9, 38, 0
1, 209039, Note_on_c, 9, 42, 0
1, 209040, Note_on_c, 9, 42, 97
1, 209264, Note_on_c, 9, 42, 0
1, 209265, Note_on_c, 9, 49, 96
1, 209279, Note_on_c, 9, 49, 0
1, 209280, Note_on_c, 9, 38, 110
1, 209280, Note_on_c, 9, 42, 127
1, 209280, Note_on_c, 9, 36, 127
1, 209294, Note_on_c, 9, 36, 0
1, 209295, Note_on_c, 9, 44, 93
1, 209519, Note_on_c, 9, 38, 0
1, 209519, Note_on_c, 9, 42, 0
1, 209519, Note_on_c, 9, 44, 0
1, 209520, Note_on_c, 9, 42, 97
1, 209759, Note_on_c, 9, 42, 0
1, 209760, Note_on_c, 9, 38, 111
1, 209760, Note_on_c, 9, 42, 127
1, 209780, Note_on_c, 9, 44, 97
1, 209819, Note_on_c, 9, 44, 0
1, 209999, Note_on_c, 9, 38, 0
1, 209999, Note_on_c, 9, 42, 0
1, 210000, Note_on_c, 9, 38, 112
1, 210000, Note_on_c, 9, 42, 99
1, 210015, Note_on_c, 9, 44, 94
1, 210239, Note_on_c, 9, 38, 0
1, 210239, Note_on_c, 9, 42, 0
1, 210239, Note_on_c, 9, 44, 0
1, 210240, Note_on_c, 9, 38, 111
1, 210240, Note_on_c, 9, 36, 127
1, 210254, Note_on_c, 9, 36, 0
1, 210255, Note_on_c, 9, 44, 94
1, 210479, Note_on_c, 9, 44, 0
1, 210599, Note_on_c, 9, 38, 0
1, 210600, Note_on_c, 9, 38, 111
1, 210600, Note_on_c, 9, 44, 98
1, 210719, Note_on_c, 9, 38, 0
1, 210719, Note_on_c, 9, 44, 0
1, 210720, Note_on_c, 9, 38, 108
1, 210740, Note_on_c, 9, 44, 95
1, 210779, Note_on_c, 9, 44, 0
1, 210959, Note_on_c, 9, 38, 0
1, 210960, Note_on_c, 9, 38, 108
1, 210975, Note_on_c, 9, 44, 97
1, 211199, Note_on_c, 9, 38, 0
1, 211199, Note_on_c, 9, 44, 0
1, 211200, Note_on_c, 9, 42, 127
1, 211200, Note_on_c, 9, 36, 127
1, 211439, Note_on_c, 9, 42, 0
1, 211440, Note_on_c, 9, 42, 97
1, 211679, Note_on_c, 9, 36, 0
1, 211679, Note_on_c, 9, 42, 0
1, 211680, Note_on_c, 9, 38, 109
1, 211694, Note_on_c, 9, 38, 0
1, 211695, Note_on_c, 9, 42, 127
1, 211695, Note_on_c, 9, 44, 96
1, 211919, Note_on_c, 9, 42, 0
1, 211919, Note_on_c, 9, 44, 0
1, 211920, Note_on_c, 9, 38, 117
1, 211934, Note_on_c, 9, 38, 0
1, 211935, Note_on_c, 9, 42, 98
1, 211935, Note_on_c, 9, 49, 96
1, 211940, Note_on_c, 9, 44, 105
1, 211979, Note_on_c, 9, 44, 0
1, 212159, Note_on_c, 9, 42, 0
1, 212159, Note_on_c, 9, 49, 0
1, 212160, Note_on_c, 9, 42, 127
1, 212160, Note_on_c, 9, 36, 127
1, 212399, Note_on_c, 9, 42, 0
1, 212400, Note_on_c, 9, 42, 100
1, 212639, Note_on_c, 9, 36, 0
1, 212639, Note_on_c, 9, 42, 0
1, 212640, Note_on_c, 9, 38, 111
1, 212640, Note_on_c, 9, 42, 127
1, 212655, Note_on_c, 9, 44, 93
1, 212879, Note_on_c, 9, 38, 0
1, 212879, Note_on_c, 9, 42, 0
1, 212879, Note_on_c, 9, 44, 0
1, 212880, Note_on_c, 9, 42, 99
1, 213119, Note_on_c, 9, 42, 0
1, 213120, Note_on_c, 9, 42, 127
1, 213120, Note_on_c, 9, 36, 127
1, 213359, Note_on_c, 9, 42, 0
1, 213360, Note_on_c, 9, 42, 97
1, 213599, Note_on_c, 9, 36, 0
1, 213599, Note_on_c, 9, 42, 0
1, 213600, Note_on_c, 9, 38, 109
1, 213600, Note_on_c, 9, 42, 127
1, 213615, Note_on_c, 9, 44, 97
1, 213839, Note_on_c, 9, 38, 0
1, 213839, Note_on_c, 9, 42, 0
1, 213839, Note_on_c, 9, 44, 0
1, 213840, Note_on_c, 9, 38, 109
1, 213840, Note_on_c, 9, 42, 101
1, 213840, Note_on_c, 9, 49, 96
1, 213855, Note_on_c, 9, 44, 96
1, 214079, Note_on_c, 9, 38, 0
1, 214079, Note_on_c, 9, 42, 0
1, 214079, Note_on_c, 9, 49, 0
1, 214079, Note_on_c, 9, 44, 0
1, 214080, Note_on_c, 9, 42, 127
1, 214080, Note_on_c, 9, 36, 127
1, 214319, Note_on_c, 9, 42, 0
1, 214320, Note_on_c, 9, 42, 101
1, 214559, Note_on_c, 9, 36, 0
1, 214559, Note_on_c, 9, 42, 0
1, 214560, Note_on_c, 9, 38, 111
1, 214560, Note_on_c, 9, 42, 127
1, 214575, Note_on_c, 9, 44, 94
1, 214799, Note_on_c, 9, 38, 0
1, 214799, Note_on_c, 9, 42, 0
1, 214799, Note_on_c, 9, 44, 0
1, 214800, Note_on_c, 9, 42, 98
1, 215039, Note_on_c, 9, 42, 0
1, 215040, Note_on_c, 9, 42, 127
1, 215040, Note_on_c, 9, 36, 127
1, 215279, Note_on_c, 9, 42, 0
1, 215280, Note_on_c, 9, 42, 101
1, 215519, Note_on_c, 9, 36, 0
1, 215519, Note_on_c, 9, 42, 0
1, 215520, Note_on_c, 9, 38, 110
1, 215520, Note_on_c, 9, 42, 127
1, 215520, Note_on_c, 9, 49, 97
1, 215535, Note_on_c, 9, 44, 93
1, 215759, Note_on_c, 9, 38, 0
1, 215759, Note_on_c, 9, 42, 0
1, 215759, Note_on_c, 9, 49, 0
1, 215759, Note_on_c, 9, 44, 0
1, 215760, Note_on_c, 9, 42, 101
1, 215999, Note_on_c, 9, 42, 0
1, 216000, Note_on_c, 9, 42, 127
1, 216000, Note_on_c, 9, 36, 127
1, 216239, Note_on_c, 9, 42, 0
1, 216240, Note_on_c, 9, 42, 96
1, 216479, Note_on_c, 9, 36, 0
1, 216479, Note_on_c, 9, 42, 0
1, 216480, Note_on_c, 9, 38, 107
1, 216480, Note_on_c, 9, 42, 127
1, 216480, Note_on_c, 9, 49, 95
1, 216495, Note_on_c, 9, 44, 96
1, 216719, Note_on_c, 9, 38, 0
1, 216719, Note_on_c, 9, 42, 0
1, 216719, Note_on_c, 9, 49, 0
1, 216719, Note_on_c, 9, 44, 0
1, 216720, Note_on_c, 9, 42, 99
1, 216959, Note_on_c, 9, 42, 0
1, 216960, Note_on_c, 9, 42, 127
1, 216960, Note_on_c, 9, 36, 127
1, 217199, Note_on_c, 9, 42, 0
1, 217199, Note_on_c, 9, 36, 0
1, 217200, Note_on_c, 9, 42, 97
1, 217200, Note_on_c, 9, 36, 127
1, 217439, Note_on_c, 9, 42, 0
1, 217439, Note_on_c, 9, 36, 0
1, 217440, Note_on_c, 9, 38, 111
1, 217440, Note_on_c, 9, 42, 127
1, 217440, Note_on_c, 9, 49, 95
1, 217440, Note_on_c, 9, 36, 127
1, 217454, Note_on_c, 9, 36, 0
1, 217455, Note_on_c, 9, 44, 98
1, 217679, Note_on_c, 9, 38, 0
1, 217679, Note_on_c, 9, 42, 0
1, 217679, Note_on_c, 9, 49, 0
1, 217679, Note_on_c, 9, 44, 0
1, 217680, Note_on_c, 9, 42, 96
1, 217680, Note_on_c, 9, 36, 127
1, 217919, Note_on_c, 9, 42, 0
1, 217919, Note_on_c, 9, 36, 0
1, 217920, Note_on_c, 9, 42, 127
1, 217920, Note_on_c, 9, 36, 127
1, 218159, Note_on_c, 9, 42, 0
1, 218159, Note_on_c, 9, 36, 0
1, 218160, Note_on_c, 9, 42, 99
1, 218160, Note_on_c, 9, 36, 127
1, 218399, Note_on_c, 9, 42, 0
1, 218399, Note_on_c, 9, 36, 0
1, 218400, Note_on_c, 9, 38, 111
1, 218400, Note_on_c, 9, 42, 127
1, 218400, Note_on_c, 9, 49, 98
1, 218400, Note_on_c, 9, 36, 127
1, 218414, Note_on_c, 9, 36, 0
1, 218415, Note_on_c, 9, 44, 93
1, 218639, Note_on_c, 9, 38, 0
1, 218639, Note_on_c, 9, 42, 0
1, 218639, Note_on_c, 9, 49, 0
1, 218639, Note_on_c, 9, 44, 0
1, 218640, Note_on_c, 9, 42, 100
1, 218640, Note_on_c, 9, 36, 127
1, 218864, Note_on_c, 9, 36, 0
1, 218865, Note_on_c, 9, 36, 127
1, 218879, Note_on_c, 9, 42, 0
1, 218880, Note_on_c, 9, 42, 127
1, 218880, Note_on_c, 9, 49, 95
1, 219119, Note_on_c, 9, 42, 0
1, 219119, Note_on_c, 9, 49, 0
1, 219120, Note_on_c, 9, 42, 98
1, 219359, Note_on_c, 9, 36, 0
1, 219359, Note_on_c, 9, 42, 0
1, 219360, Note_on_c, 9, 38, 120
1, 219360, Note_on_c, 9, 42, 127
1, 219380, Note_on_c, 9, 44, 103
1, 219419, Note_on_c, 9, 44, 0
1, 219599, Note_on_c, 9, 38, 0
1, 219599, Note_on_c, 9, 42, 0
1, 219600, Note_on_c, 9, 38, 108
1, 219600, Note_on_c, 9, 42, 96
1, 219615, Note_on_c, 9, 44, 96
1, 219839, Note_on_c, 9, 38, 0
1, 219839, Note_on_c, 9, 42, 0
1, 219839, Note_on_c, 9, 44, 0
1, 219840, Note_on_c, 9, 42, 127
1, 219840, Note_on_c, 9, 36, 127
1, 220079, Note_on_c, 9, 42, 0
1, 220080, Note_on_c, 9, 42, 98
1, 220319, Note_on_c, 9, 36, 0
1, 220319, Note_on_c, 9, 42, 0
1, 220320, Note_on_c, 9, 38, 118
1, 220334, Note_on_c, 9, 38, 0
1, 220335, Note_on_c, 9, 42, 127
1, 220340, Note_on_c, 9, 44, 102
1, 220379, Note_on_c, 9, 44, 0
1, 220559, Note_on_c, 9, 42, 0
1, 220560, Note_on_c, 9, 42, 101
1, 220799, Note_on_c, 9, 42, 0
1, 220800, Note_on_c, 9, 42, 127
1, 220800, Note_on_c, 9, 36, 127
1, 221039, Note_on_c, 9, 42, 0
1, 221040, Note_on_c, 9, 42, 100
1, 221279, Note_on_c, 9, 36, 0
1, 221279, Note_on_c, 9, 42, 0
1, 221280, Note_on_c, 9, 38, 109
1, 221280, Note_on_c, 9, 42, 127
1, 221300, Note_on_c, 9, 44, 96
1, 221339, Note_on_c, 9, 44, 0
1, 221519, Note_on_c, 9, 38, 0
1, 221519, Note_on_c, 9, 42, 0
1, 221520, Note_on_c, 9, 38, 111
1, 221520, Note_on_c, 9, 42, 98
1, 221535, Note_on_c, 9, 44, 98
1, 221759, Note_on_c, 9, 38, 0
1, 221759, Note_on_c, 9, 42, 0
1, 221759, Note_on_c, 9, 44, 0
1, 221760, Note_on_c, 9, 42, 127
1, 221760, Note_on_c, 9, 36, 127
1, 221999, Note_on_c, 9, 42, 0
1, 222000, Note_on_c, 9, 42, 99
1, 222239, Note_on_c, 9, 36, 0
1, 222239, Note_on_c, 9, 42, 0
1, 222240, Note_on_c, 9, 38, 120
1, 222240, Note_on_c, 9, 42, 127
1, 222255, Note_on_c, 9, 44, 102
1, 222479, Note_on_c, 9, 38, 0
1, 222479, Note_on_c, 9, 42, 0
1, 222479, Note_on_c, 9, 44, 0
1, 222480, Note_on_c, 9, 42, 99
1, 222719, Note_on_c, 9, 42, 0
1, 222720, Note_on_c, 9, 42, 127
1, 222720, Note_on_c, 9, 36, 127
1, 222959, Note_on_c, 9, 42, 0
1, 222960, Note_on_c, 9, 42, 98
1, 223199, Note_on_c, 9, 36, 0
1, 223199, Note_on_c, 9, 42, 0
1, 223200, Note_on_c, 9, 38, 112
1, 223214, Note_on_c, 9, 38, 0
1, 223215, Note_on_c, 9, 42, 127
1, 223220, Note_on_c, 9, 44, 95
1, 223259, Note_on_c, 9, 44, 0
1, 223439, Note_on_c, 9, 42, 0
1, 223440, Note_on_c, 9, 38, 112
1, 223440, Note_on_c, 9, 42, 102
1, 223455, Note_on_c, 9, 44, 96
1, 223679, Note_on_c, 9, 38, 0
1, 223679, Note_on_c, 9, 42, 0
1, 223679, Note_on_c, 9, 44, 0
1, 223680, Note_on_c, 9, 36, 127
1, 223695, Note_on_c, 9, 42, 127
1, 223919, Note_on_c, 9, 42, 0
1, 223920, Note_on_c, 9, 42, 100
1, 224159, Note_on_c, 9, 36, 0
1, 224159, Note_on_c, 9, 42, 0
1, 224160, Note_on_c, 9, 38, 112
1, 224160, Note_on_c, 9, 42, 127
1, 224175, Note_on_c, 9, 44, 98
1, 224399, Note_on_c, 9, 38, 0
1, 224399, Note_on_c, 9, 42, 0
1, 224399, Note_on_c, 9, 44, 0
1, 224400, Note_on_c, 9, 42, 99
1, 224639, Note_on_c, 9, 42, 0
1, 224640, Note_on_c, 9, 42, 127
1, 224640, Note_on_c, 9, 36, 127
1, 224879, Note_on_c, 9, 42, 0
1, 224880, Note_on_c, 9, 42, 98
1, 225119, Note_on_c, 9, 36, 0
1, 225119, Note_on_c, 9, 42, 0
1, 225120, Note_on_c, 9, 38, 107
1, 225120, Note_on_c, 9, 42, 127
1, 225135, Note_on_c, 9, 44, 98
1, 225359, Note_on_c, 9, 38, 0
1, 225359, Note_on_c, 9, 42, 0
1, 225359, Note_on_c, 9, 44, 0
1, 225360, Note_on_c, 9, 38, 111
1, 225360, Note_on_c, 9, 42, 101
1, 225380, Note_on_c, 9, 44, 97
1, 225419, Note_on_c, 9, 44, 0
1, 225599, Note_on_c, 9, 38, 0
1, 225599, Note_on_c, 9, 42, 0
1, 225600, Note_on_c, 9, 50, 96
1, 225600, Note_on_c, 9, 36, 127
1, 225719, Note_on_c, 9, 50, 0
1, 225720, Note_on_c, 9, 50, 100
1, 225959, Note_on_c, 9, 50, 0
1, 225960, Note_on_c, 9, 50, 97
1, 226079, Note_on_c, 9, 36, 0
1, 226079, Note_on_c, 9, 50, 0
1, 226080, Note_on_c, 9, 38, 112
1, 226080, Note_on_c, 9, 47, 97
1, 226095, Note_on_c, 9, 44, 98
1, 226319, Note_on_c, 9, 38, 0
1, 226319, Note_on_c, 9, 47, 0
1, 226319, Note_on_c, 9, 44, 0
1, 226320, Note_on_c, 9, 47, 96
1, 226559, Note_on_c, 9, 47, 0
1, 226560, Note_on_c, 9, 42, 127
1, 226560, Note_on_c, 9, 49, 94
1, 226560, Note_on_c, 9, 36, 127
1, 226799, Note_on_c, 9, 42, 0
1, 226799, Note_on_c, 9, 49, 0
1, 226800, Note_on_c, 9, 42, 98
1, 227039, Note_on_c, 9, 36, 0
1, 227039, Note_on_c, 9, 42, 0
1, 227040, Note_on_c, 9, 38, 112
1, 227040, Note_on_c, 9, 42, 127
1, 227055, Note_on_c, 9, 44, 94
1, 227279, Note_on_c, 9, 38, 0
1, 227279, Note_on_c, 9, 42, 0
1, 227279, Note_on_c, 9, 44, 0
1, 227280, Note_on_c, 9, 38, 109
1, 227280, Note_on_c, 9, 42, 100
1, 227300, Note_on_c, 9, 44, 93
1, 227339, Note_on_c, 9, 44, 0
1, 227519, Note_on_c, 9, 38, 0
1, 227519, Note_on_c, 9, 42, 0
1, 227520, Note_on_c, 9, 36, 127
1, 227535, Note_on_c, 9, 42, 127
1, 227759, Note_on_c, 9, 42, 0
1, 227760, Note_on_c, 9, 42, 99
1, 227999, Note_on_c, 9, 36, 0
1, 227999, Note_on_c, 9, 42, 0
1, 228000, Note_on_c, 9, 38, 110
1, 228000, Note_on_c, 9, 42, 127
1, 228015, Note_on_c, 9, 44, 97
1, 228239, Note_on_c, 9, 38, 0
1, 228239, Note_on_c, 9, 42, 0
1, 228239, Note_on_c, 9, 44, 0
1, 228240, Note_on_c, 9, 42, 97
1, 228479, Note_on_c, 9, 42, 0
1, 228480, Note_on_c, 9, 36, 127
1, 228495, Note_on_c, 9, 42, 127
1, 228719, Note_on_c, 9, 42, 0
1, 228720, Note_on_c, 9, 42, 97
1, 228959, Note_on_c, 9, 36, 0
1, 228959, Note_on_c, 9, 42, 0
1, 228960, Note_on_c, 9, 38, 119
1, 228960, Note_on_c, 9, 42, 127
1, 228975, Note_on_c, 9, 44, 107
1, 229199, Note_on_c, 9, 38, 0
1, 229199, Note_on_c, 9, 42, 0
1, 229199, Note_on_c, 9, 44, 0
1, 229200, Note_on_c, 9, 38, 110
1, 229214, Note_on_c, 9, 38, 0
1, 229215, Note_on_c, 9, 42, 98
1, 229220, Note_on_c, 9, 44, 94
1, 229259, Note_on_c, 9, 44, 0
1, 229439, Note_on_c, 9, 42, 0
1, 229440, Note_on_c, 9, 42, 127
1, 229440, Note_on_c, 9, 36, 127
1, 229679, Note_on_c, 9, 42, 0
1, 229680, Note_on_c, 9, 42, 100
1, 229919, Note_on_c, 9, 36, 0
1, 229919, Note_on_c, 9, 42, 0
1, 229920, Note_on_c, 9, 38, 118
1, 229920, Note_on_c, 9, 42, 127
1, 229935, Note_on_c, 9, 44, 107
1, 230159, Note_on_c, 9, 38, 0
1, 230159, Note_on_c, 9, 42, 0
1, 230159, Note_on_c, 9, 44, 0
1, 230160, Note_on_c, 9, 42, 97
1, 230399, Note_on_c, 9, 42, 0
1, 230400, Note_on_c, 9, 36, 127
1, 230415, Note_on_c, 9, 42, 127
1, 230639, Note_on_c, 9, 42, 0
1, 230640, Note_on_c, 9, 42, 97
1, 230879, Note_on_c, 9, 36, 0
1, 230879, Note_on_c, 9, 42, 0
1, 230880, Note_on_c, 9, 38, 111
1, 230880, Note_on_c, 9, 42, 127
1, 230895, Note_on_c, 9, 44, 98
1, 231119, Note_on_c, 9, 38, 0
1, 231119, Note_on_c, 9, 42, 0
1, 231119, Note_on_c, 9, 44, 0
1, 231120, Note_on_c, 9, 38, 108
1, 231120, Note_on_c, 9, 42, 97
1, 231135, Note_on_c, 9, 44, 97
1, 231359, Note_on_c, 9, 38, 0
1, 231359, Note_on_c, 9, 42, 0
1, 231359, Note_on_c, 9, 44, 0
1, 231360, Note_on_c, 9, 36, 127
1, 231375, Note_on_c, 9, 42, 127
1, 231599, Note_on_c, 9, 42, 0
1, 231600, Note_on_c, 9, 42, 98
1, 231839, Note_on_c, 9, 36, 0
1, 231839, Note_on_c, 9, 42, 0
1, 231840, Note_on_c, 9, 38, 116
1, 231840, Note_on_c, 9, 42, 127
1, 231855, Note_on_c, 9, 44, 104
1, 232079, Note_on_c, 9, 38, 0
1, 232079, Note_on_c, 9, 42, 0
1, 232079, Note_on_c, 9, 44, 0
1, 232080, Note_on_c, 9, 42, 98
1, 232319, Note_on_c, 9, 42, 0
1, 232320, Note_on_c, 9, 38, 111
1, 232320, Note_on_c, 9, 42, 127
1, 232320, Note_on_c, 9, 36, 127
1, 232334, Note_on_c, 9, 36, 0
1, 232335, Note_on_c, 9, 44, 96
1, 232559, Note_on_c, 9, 38, 0
1, 232559, Note_on_c, 9, 42, 0
1, 232559, Note_on_c, 9, 44, 0
1, 232560, Note_on_c, 9, 42, 98
1, 232799, Note_on_c, 9, 42, 0
1, 232800, Note_on_c, 9, 38, 108
1, 232800, Note_on_c, 9, 42, 127
1, 232815, Note_on_c, 9, 44, 94
1, 233039, Note_on_c, 9, 38, 0
1, 233039, Note_on_c, 9, 42, 0
1, 233039, Note_on_c, 9, 44, 0
1, 233040, Note_on_c, 9, 42, 98
1, 233279, Note_on_c, 9, 42, 0
1, 233280, Note_on_c, 9, 38, 112
1, 233280, Note_on_c, 9, 42, 127
1, 233280, Note_on_c, 9, 36, 127
1, 233294, Note_on_c, 9, 36, 0
1, 233295, Note_on_c, 9, 44, 95
1, 233519, Note_on_c, 9, 38, 0
1, 233519, Note_on_c, 9, 42, 0
1, 233519, Note_on_c, 9, 44, 0
1, 233520, Note_on_c, 9, 42, 101
1, 233759, Note_on_c, 9, 42, 0
1, 233760, Note_on_c, 9, 38, 110
1, 233760, Note_on_c, 9, 42, 127
1, 233780, Note_on_c, 9, 44, 93
1, 233819, Note_on_c, 9, 44, 0
1, 233999, Note_on_c, 9, 38, 0
1, 233999, Note_on_c, 9, 42, 0
1, 234000, Note_on_c, 9, 46, 107
1, 234239, Note_on_c, 9, 46, 0
1, 234240, Note_on_c, 9, 42, 127
1, 234240, Note_on_c, 9, 36, 127
1, 234479, Note_on_c, 9, 42, 0
1, 234480, Note_on_c, 9, 42, 101
1, 234719, Note_on_c, 9, 36, 0
1, 234719, Note_on_c, 9, 42, 0
1, 234720, Note_on_c, 9, 38, 112
1, 234720, Note_on_c, 9, 42, 127
1, 234735, Note_on_c, 9, 44, 94
1, 234959, Note_on_c, 9, 38, 0
1, 234959, Note_on_c, 9, 42, 0
1, 234959, Note_on_c, 9, 44, 0
1, 234960, Note_on_c, 9, 38, 117
1, 234960, Note_on_c, 9, 42, 97
1, 234960, Note_on_c, 9, 49, 93
1, 234975, Note_on_c, 9, 44, 107
1, 235199, Note_on_c, 9, 38, 0
1, 235199, Note_on_c, 9, 42, 0
1, 235199, Note_on_c, 9, 49, 0
1, 235199, Note_on_c, 9, 44, 0
1, 235200, Note_on_c, 9, 36, 127
1, 235215, Note_on_c, 9, 42, 127
1, 235439, Note_on_c, 9, 42, 0
1, 235440, Note_on_c, 9, 42, 96
1, 235679, Note_on_c, 9, 36, 0
1, 235679, Note_on_c, 9, 42, 0
1, 235680, Note_on_c, 9, 38, 112
1, 235680, Note_on_c, 9, 42, 127
1, 235695, Note_on_c, 9, 44, 97
1, 235919, Note_on_c, 9, 38, 0
1, 235919, Note_on_c, 9, 42, 0
1, 235919, Note_on_c, 9, 44, 0
1, 235920, Note_on_c, 9, 42, 101
1, 236159, Note_on_c, 9, 42, 0
1, 236160, Note_on_c, 9, 36, 127
1, 236175, Note_on_c, 9, 42, 127
1, 236399, Note_on_c, 9, 42, 0
1, 236400, Note_on_c, 9, 42, 101
1, 236639, Note_on_c, 9, 36, 0
1, 236639, Note_on_c, 9, 42, 0
1, 236640, Note_on_c, 9, 38, 112
1, 236640, Note_on_c, 9, 42, 127
1, 236655, Note_on_c, 9, 44, 94
1, 236879, Note_on_c, 9, 38, 0
1, 236879, Note_on_c, 9, 42, 0
1, 236879, Note_on_c, 9, 44, 0
1, 236880, Note_on_c, 9, 38, 109
1, 236880, Note_on_c, 9, 42, 96
1, 236880, Note_on_c, 9, 49, 95
1, 236895, Note_on_c, 9, 44, 95
1, 237119, Note_on_c, 9, 38, 0
1, 237119, Note_on_c, 9, 42, 0
1, 237119, Note_on_c, 9, 49, 0
1, 237119, Note_on_c, 9, 44, 0
1, 237120, Note_on_c, 9, 42, 127
1, 237120, Note_on_c, 9, 36, 127
1, 237359, Note_on_c, 9, 42, 0
1, 237360, Note_on_c, 9, 42, 97
1, 237599, Note_on_c, 9, 36, 0
1, 237599, Note_on_c, 9, 42, 0
1, 237600, Note_on_c, 9, 38, 111
1, 237600, Note_on_c, 9, 42, 127
1, 237615, Note_on_c, 9, 44, 97
1, 237839, Note_on_c, 9, 38, 0
1, 237839, Note_on_c, 9, 42, 0
1, 237839, Note_on_c, 9, 44, 0
1, 237840, Note_on_c, 9, 42, 100
1, 238079, Note_on_c, 9, 42, 0
1, 238080, Note_on_c, 9, 42, 127
1, 238080, Note_on_c, 9, 36, 127
1, 238319, Note_on_c, 9, 42, 0
1, 238320, Note_on_c, 9, 42, 98
1, 238559, Note_on_c, 9, 36, 0
1, 238559, Note_on_c, 9, 42, 0
1, 238560, Note_on_c, 9, 38, 110
1, 238560, Note_on_c, 9, 42, 127
1, 238560, Note_on_c, 9, 49, 94
1, 238575, Note_on_c, 9, 44, 94
1, 238799, Note_on_c, 9, 38, 0
1, 238799, Note_on_c, 9, 42, 0
1, 238799, Note_on_c, 9, 49, 0
1, 238799, Note_on_c, 9, 44, 0
1, 238800, Note_on_c, 9, 42, 99
1, 239039, Note_on_c, 9, 42, 0
1, 239040, Note_on_c, 9, 42, 127
1, 239040, Note_on_c, 9, 36, 127
1, 239279, Note_on_c, 9, 42, 0
1, 239280, Note_on_c, 9, 42, 99
1, 239519, Note_on_c, 9, 36, 0
1, 239519, Note_on_c, 9, 42, 0
1, 239520, Note_on_c, 9, 38, 111
1, 239520, Note_on_c, 9, 42, 127
1, 239520, Note_on_c, 9, 49, 98
1, 239535, Note_on_c, 9, 44, 95
1, 239759, Note_on_c, 9, 38, 0
1, 239759, Note_on_c, 9, 42, 0
1, 239759, Note_on_c, 9, 49, 0
1, 239759, Note_on_c, 9, 44, 0
1, 239760, Note_on_c, 9, 42, 101
1, 239999, Note_on_c, 9, 42, 0
1, 240000, Note_on_c, 9, 42, 127
1, 240000, Note_on_c, 9, 36, 127
1, 240239, Note_on_c, 9, 42, 0
1, 240240, Note_on_c, 9, 42, 98
1, 240479, Note_on_c, 9, 36, 0
1, 240479, Note_on_c, 9, 42, 0
1, 240480, Note_on_c, 9, 38, 112
1, 240494, Note_on_c, 9, 38, 0
1, 240495, Note_on_c, 9, 42, 127
1, 240495, Note_on_c, 9, 49, 98
1, 240500, Note_on_c, 9, 44, 94
1, 240539, Note_on_c, 9, 44, 0
1, 240719, Note_on_c, 9, 42, 0
1, 240719, Note_on_c, 9, 49, 0
1, 240720, Note_on_c, 9, 42, 97
1, 240959, Note_on_c, 9, 42, 0
1, 240960, Note_on_c, 9, 42, 127
1, 240960, Note_on_c, 9, 36, 127
1, 241199, Note_on_c, 9, 42, 0
1, 241200, Note_on_c, 9, 42, 99
1, 241439, Note_on_c, 9, 36, 0
1, 241439, Note_on_c, 9, 42, 0
1, 241440, Note_on_c, 9, 38, 109
1, 241440, Note_on_c, 9, 42, 127
1, 241440, Note_on_c, 9, 49, 94
1, 241455, Note_on_c, 9, 44, 97
1, 241679, Note_on_c, 9, 38, 0
1, 241679, Note_on_c, 9, 42, 0
1, 241679, Note_on_c, 9, 49, 0
1, 241679, Note_on_c, 9, 44, 0
1, 241680, Note_on_c, 9, 42, 96
1, 241919, Note_on_c, 9, 42, 0
1, 241920, Note_on_c, 9, 38, 120
1, 241920, Note_on_c, 9, 49, 94
1, 241920, Note_on_c, 9, 36, 127
1, 241934, Note_on_c, 9, 36, 0
1, 241935, Note_on_c, 9, 44, 106
1, 242159, Note_on_c, 9, 44, 0
1, 242399, Note_on_c, 9, 38, 0
1, 242399, Note_on_c, 9, 49, 0
1, 242640, Note_on_c, 9, 38, 119
1, 242654, Note_on_c, 9, 38, 0
1, 242655, Note_on_c, 9, 49, 94
1, 242655, Note_on_c, 9, 44, 106
1, 242879, Note_on_c, 9, 49, 0
1, 242879, Note_on_c, 9, 44, 0
1, 242880, Note_on_c, 9, 36, 127
1, 243359, Note_on_c, 9, 36, 0
1, 243360, Note_on_c, 9, 38, 111
1, 243360, Note_on_c, 9, 49, 98
1, 243360, Note_on_c, 9, 44, 93
1, 243839, Note_on_c, 9, 38, 0
1, 243839, Note_on_c, 9, 49, 0
1, 243839, Note_on_c, 9, 44, 0
1, 244200, Note_on_c, 9, 38, 108
1, 244214, Note_on_c, 9, 38, 0
1, 244215, Note_on_c, 9, 49, 96
1, 244215, Note_on_c, 9, 44, 98
1, 244259, Note_on_c, 9, 49, 0
1, 244259, Note_on_c, 9, 44, 0
1, 245760, Note_on_c, 9, 38, 116
1, 245760, Note_on_c, 9, 49, 93
1, 245775, Note_on_c, 9, 44, 104
1, 245999, Note_on_c, 9, 44, 0
1, 246239, Note_on_c, 9, 38, 0
1, 246239, Note_on_c, 9, 49, 0
1, 246240, End_track
0, 0, End_of_file
