0, 0, Header, 1, 1, 480
1, 0, Start_track
1, 0, Time_signature, 4, 2, 24, 8
1, 0, Key_signature, 0, "major"
1, 0, Tempo, 895522
1, 0, Control_c, 9, 121, 0
1, 0, Program_c, 9, 0
1, 0, Control_c, 9, 7, 100
1, 0, Control_c, 9, 10, 64
1, 0, Control_c, 9, 91, 0
1, 0, Control_c, 9, 93, 0
1, 0, MIDI_port, 0
1, 0, Note_on_c, 9, 70, 64
1, 239, Note_on_c, 9, 70, 0
1, 240, Note_on_c, 9, 70, 64
1, 479, Note_on_c, 9, 70, 0
1, 480, Note_on_c, 9, 70, 64
1, 959, Note_on_c, 9, 70, 0
1, 960, Note_on_c, 9, 70, 64
1, 1439, Note_on_c, 9, 70, 0
1, 1920, Note_on_c, 9, 51, 114
1, 2399, Note_on_c, 9, 51, 0
1, 2400, Note_on_c, 9, 44, 114
1, 2879, Note_on_c, 9, 44, 0
1, 3360, Note_on_c, 9, 44, 114
1, 3839, Note_on_c, 9, 44, 0
1, 4320, Note_on_c, 9, 44, 114
1, 4799, Note_on_c, 9, 44, 0
1, 5280, Note_on_c, 9, 44, 114
1, 5759, Note_on_c, 9, 44, 0
1, 5760, Note_on_c, 9, 51, 114
1, 6239, Note_on_c, 9, 51, 0
1, 6240, Note_on_c, 9, 44, 114
1, 6719, Note_on_c, 9, 44, 0
1, 6720, Note_on_c, 9, 59, 114
1, 7199, Note_on_c, 9, 59, 0
1, 7200, Note_on_c, 9, 44, 114
1, 7679, Note_on_c, 9, 44, 0
1, 7680, Note_on_c, 9, 53, 114
1, 8159, Note_on_c, 9, 53, 0
1, 8160, Note_on_c, 9, 44, 114
1, 8639, Note_on_c, 9, 44, 0
1, 9120, Note_on_c, 9, 44, 114
1, 9599, Note_on_c, 9, 44, 0
1, 10080, Note_on_c, 9, 44, 114
1, 10559, Note_on_c, 9, 44, 0
1, 11040, Note_on_c, 9, 44, 114
1, 11519, Note_on_c, 9, 44, 0
1, 12000, Note_on_c, 9, 44, 114
1, 12479, Note_on_c, 9, 44, 0
1, 12960, Note_on_c, 9, 44, 114
1, 13439, Note_on_c, 9, 44, 0
1, 13920, Note_on_c, 9, 44, 114
1, 14399, Note_on_c, 9, 44, 0
1, 14880, Note_on_c, 9, 44, 114
1, 15359, Note_on_c, 9, 44, 0
1, 15840, Note_on_c, 9, 44, 114
1, 16319, Note_on_c, 9, 44, 0
1, 16800, Note_on_c, 9, 44, 114
1, 17279, Note_on_c, 9, 44, 0
1, 17280, Note_on_c, 9, 51, 114
1, 17759, Note_on_c, 9, 51, 0
1, 17760, Note_on_c, 9, 44, 114
1, 18239, Note_on_c, 9, 44, 0
1, 18720, Note_on_c, 9, 44, 114
1, 19199, Note_on_c, 9, 44, 0
1, 19680, Note_on_c, 9, 44, 114
1, 20159, Note_on_c, 9, 44, 0
1, 20640, Note_on_c, 9, 44, 114
1, 21119, Note_on_c, 9, 44, 0
1, 21120, Note_on_c, 9, 51, 114
1, 21599, Note_on_c, 9, 51, 0
1, 21600, Note_on_c, 9, 44, 114
1, 22079, Note_on_c, 9, 44, 0
1, 22560, Note_on_c, 9, 44, 114
1, 23039, Note_on_c, 9, 44, 0
1, 23520, Note_on_c, 9, 44, 114
1, 23999, Note_on_c, 9, 44, 0
1, 24000, Note_on_c, 9, 47, 114
1, 24029, Note_on_c, 9, 47, 0
1, 24030, Note_on_c, 9, 50, 114
1, 24359, Note_on_c, 9, 50, 0
1, 24360, Note_on_c, 9, 48, 114
1, 24479, Note_on_c, 9, 48, 0
1, 24480, Note_on_c, 9, 45, 114
1, 24480, Note_on_c, 9, 44, 114
1, 24719, Note_on_c, 9, 44, 0
1, 24720, Note_on_c, 9, 35, 121
1, 24959, Note_on_c, 9, 45, 0
1, 24959, Note_on_c, 9, 35, 0
1, 24960, Note_on_c, 9, 42, 114
1, 24960, Note_on_c, 9, 49, 104
1, 24960, Note_on_c, 9, 35, 121
1, 25079, Note_on_c, 9, 42, 0
1, 25079, Note_on_c, 9, 49, 0
1, 25080, Note_on_c, 9, 42, 54
1, 25199, Note_on_c, 9, 42, 0
1, 25200, Note_on_c, 9, 42, 114
1, 25319, Note_on_c, 9, 42, 0
1, 25320, Note_on_c, 9, 42, 54
1, 25439, Note_on_c, 9, 35, 0
1, 25439, Note_on_c, 9, 42, 0
1, 25440, Note_on_c, 9, 38, 114
1, 25440, Note_on_c, 9, 39, 114
1, 25454, Note_on_c, 9, 38, 0
1, 25454, Note_on_c, 9, 39, 0
1, 25455, Note_on_c, 9, 42, 114
1, 25499, Note_on_c, 9, 42, 0
1, 25560, Note_on_c, 9, 42, 54
1, 25679, Note_on_c, 9, 42, 0
1, 25680, Note_on_c, 9, 42, 114
1, 25680, Note_on_c, 9, 35, 121
1, 25799, Note_on_c, 9, 42, 0
1, 25800, Note_on_c, 9, 42, 54
1, 25919, Note_on_c, 9, 35, 0
1, 25919, Note_on_c, 9, 42, 0
1, 25920, Note_on_c, 9, 42, 114
1, 25920, Note_on_c, 9, 35, 121
1, 26039, Note_on_c, 9, 42, 0
1, 26040, Note_on_c, 9, 42, 54
1, 26159, Note_on_c, 9, 42, 0
1, 26160, Note_on_c, 9, 42, 114
1, 26279, Note_on_c, 9, 42, 0
1, 26280, Note_on_c, 9, 42, 54
1, 26399, Note_on_c, 9, 35, 0
1, 26399, Note_on_c, 9, 42, 0
1, 26400, Note_on_c, 9, 38, 114
1, 26400, Note_on_c, 9, 39, 114
1, 26400, Note_on_c, 9, 42, 114
1, 26519, Note_on_c, 9, 38, 0
1, 26519, Note_on_c, 9, 39, 0
1, 26519, Note_on_c, 9, 42, 0
1, 26520, Note_on_c, 9, 42, 54
1, 26639, Note_on_c, 9, 42, 0
1, 26640, Note_on_c, 9, 42, 114
1, 26759, Note_on_c, 9, 42, 0
1, 26760, Note_on_c, 9, 42, 54
1, 26879, Note_on_c, 9, 42, 0
1, 26880, Note_on_c, 9, 42, 114
1, 26880, Note_on_c, 9, 35, 121
1, 26999, Note_on_c, 9, 42, 0
1, 27000, Note_on_c, 9, 42, 54
1, 27119, Note_on_c, 9, 42, 0
1, 27120, Note_on_c, 9, 42, 114
1, 27239, Note_on_c, 9, 42, 0
1, 27240, Note_on_c, 9, 42, 54
1, 27359, Note_on_c, 9, 35, 0
1, 27359, Note_on_c, 9, 42, 0
1, 27360, Note_on_c, 9, 38, 114
1, 27360, Note_on_c, 9, 39, 114
1, 27374, Note_on_c, 9, 38, 0
1, 27374, Note_on_c, 9, 39, 0
1, 27375, Note_on_c, 9, 42, 114
1, 27419, Note_on_c, 9, 42, 0
1, 27480, Note_on_c, 9, 42, 54
1, 27599, Note_on_c, 9, 42, 0
1, 27600, Note_on_c, 9, 42, 114
1, 27600, Note_on_c, 9, 35, 121
1, 27719, Note_on_c, 9, 42, 0
1, 27720, Note_on_c, 9, 42, 54
1, 27839, Note_on_c, 9, 35, 0
1, 27839, Note_on_c, 9, 42, 0
1, 27840, Note_on_c, 9, 42, 114
1, 27840, Note_on_c, 9, 35, 121
1, 27959, Note_on_c, 9, 42, 0
1, 27960, Note_on_c, 9, 42, 54
1, 28079, Note_on_c, 9, 42, 0
1, 28080, Note_on_c, 9, 42, 114
1, 28199, Note_on_c, 9, 42, 0
1, 28200, Note_on_c, 9, 42, 54
1, 28319, Note_on_c, 9, 35, 0
1, 28319, Note_on_c, 9, 42, 0
1, 28320, Note_on_c, 9, 38, 114
1, 28320, Note_on_c, 9, 39, 114
1, 28320, Note_on_c, 9, 42, 114
1, 28439, Note_on_c, 9, 38, 0
1, 28439, Note_on_c, 9, 39, 0
1, 28439, Note_on_c, 9, 42, 0
1, 28440, Note_on_c, 9, 42, 54
1, 28559, Note_on_c, 9, 42, 0
1, 28560, Note_on_c, 9, 42, 114
1, 28679, Note_on_c, 9, 42, 0
1, 28680, Note_on_c, 9, 42, 54
1, 28799, Note_on_c, 9, 42, 0
1, 28800, Note_on_c, 9, 42, 114
1, 28800, Note_on_c, 9, 35, 121
1, 28919, Note_on_c, 9, 42, 0
1, 28920, Note_on_c, 9, 42, 54
1, 29039, Note_on_c, 9, 42, 0
1, 29040, Note_on_c, 9, 42, 114
1, 29159, Note_on_c, 9, 42, 0
1, 29160, Note_on_c, 9, 42, 54
1, 29279, Note_on_c, 9, 35, 0
1, 29279, Note_on_c, 9, 42, 0
1, 29280, Note_on_c, 9, 38, 114
1, 29280, Note_on_c, 9, 39, 114
1, 29294, Note_on_c, 9, 38, 0
1, 29294, Note_on_c, 9, 39, 0
1, 29295, Note_on_c, 9, 42, 114
1, 29339, Note_on_c, 9, 42, 0
1, 29400, Note_on_c, 9, 42, 54
1, 29519, Note_on_c, 9, 42, 0
1, 29520, Note_on_c, 9, 42, 114
1, 29520, Note_on_c, 9, 35, 121
1, 29639, Note_on_c, 9, 42, 0
1, 29640, Note_on_c, 9, 42, 54
1, 29759, Note_on_c, 9, 35, 0
1, 29759, Note_on_c, 9, 42, 0
1, 29760, Note_on_c, 9, 42, 114
1, 29760, Note_on_c, 9, 35, 121
1, 29879, Note_on_c, 9, 42, 0
1, 29880, Note_on_c, 9, 42, 54
1, 29999, Note_on_c, 9, 42, 0
1, 30000, Note_on_c, 9, 42, 114
1, 30119, Note_on_c, 9, 42, 0
1, 30120, Note_on_c, 9, 42, 54
1, 30239, Note_on_c, 9, 35, 0
1, 30239, Note_on_c, 9, 42, 0
1, 30240, Note_on_c, 9, 38, 114
1, 30240, Note_on_c, 9, 39, 114
1, 30240, Note_on_c, 9, 42, 114
1, 30359, Note_on_c, 9, 38, 0
1, 30359, Note_on_c, 9, 39, 0
1, 30359, Note_on_c, 9, 42, 0
1, 30360, Note_on_c, 9, 42, 54
1, 30479, Note_on_c, 9, 42, 0
1, 30480, Note_on_c, 9, 42, 114
1, 30599, Note_on_c, 9, 42, 0
1, 30600, Note_on_c, 9, 42, 54
1, 30719, Note_on_c, 9, 42, 0
1, 30720, Note_on_c, 9, 42, 114
1, 30720, Note_on_c, 9, 35, 121
1, 30839, Note_on_c, 9, 42, 0
1, 30840, Note_on_c, 9, 42, 54
1, 30959, Note_on_c, 9, 42, 0
1, 30960, Note_on_c, 9, 42, 114
1, 31079, Note_on_c, 9, 42, 0
1, 31080, Note_on_c, 9, 42, 54
1, 31199, Note_on_c, 9, 35, 0
1, 31199, Note_on_c, 9, 42, 0
1, 31200, Note_on_c, 9, 38, 114
1, 31200, Note_on_c, 9, 39, 114
1, 31214, Note_on_c, 9, 38, 0
1, 31214, Note_on_c, 9, 39, 0
1, 31215, Note_on_c, 9, 42, 114
1, 31259, Note_on_c, 9, 42, 0
1, 31320, Note_on_c, 9, 42, 54
1, 31439, Note_on_c, 9, 42, 0
1, 31440, Note_on_c, 9, 42, 114
1, 31440, Note_on_c, 9, 35, 121
1, 31559, Note_on_c, 9, 42, 0
1, 31560, Note_on_c, 9, 42, 54
1, 31679, Note_on_c, 9, 35, 0
1, 31679, Note_on_c, 9, 42, 0
1, 31680, Note_on_c, 9, 42, 114
1, 31680, Note_on_c, 9, 35, 121
1, 31799, Note_on_c, 9, 42, 0
1, 31800, Note_on_c, 9, 42, 54
1, 31919, Note_on_c, 9, 42, 0
1, 31920, Note_on_c, 9, 42, 114
1, 32039, Note_on_c, 9, 42, 0
1, 32040, Note_on_c, 9, 42, 54
1, 32159, Note_on_c, 9, 35, 0
1, 32159, Note_on_c, 9, 42, 0
1, 32160, Note_on_c, 9, 38, 114
1, 32160, Note_on_c, 9, 39, 114
1, 32160, Note_on_c, 9, 42, 114
1, 32279, Note_on_c, 9, 38, 0
1, 32279, Note_on_c, 9, 39, 0
1, 32279, Note_on_c, 9, 42, 0
1, 32280, Note_on_c, 9, 42, 54
1, 32399, Note_on_c, 9, 42, 0
1, 32400, Note_on_c, 9, 42, 114
1, 32519, Note_on_c, 9, 42, 0
1, 32520, Note_on_c, 9, 42, 54
1, 32639, Note_on_c, 9, 42, 0
1, 32640, Note_on_c, 9, 42, 114
1, 32640, Note_on_c, 9, 35, 121
1, 32759, Note_on_c, 9, 42, 0
1, 32760, Note_on_c, 9, 42, 54
1, 32879, Note_on_c, 9, 42, 0
1, 32880, Note_on_c, 9, 42, 114
1, 32999, Note_on_c, 9, 42, 0
1, 33000, Note_on_c, 9, 42, 54
1, 33119, Note_on_c, 9, 35, 0
1, 33119, Note_on_c, 9, 42, 0
1, 33120, Note_on_c, 9, 38, 114
1, 33120, Note_on_c, 9, 39, 114
1, 33134, Note_on_c, 9, 38, 0
1, 33134, Note_on_c, 9, 39, 0
1, 33135, Note_on_c, 9, 42, 114
1, 33179, Note_on_c, 9, 42, 0
1, 33240, Note_on_c, 9, 42, 54
1, 33359, Note_on_c, 9, 42, 0
1, 33360, Note_on_c, 9, 42, 114
1, 33360, Note_on_c, 9, 35, 121
1, 33479, Note_on_c, 9, 42, 0
1, 33480, Note_on_c, 9, 42, 54
1, 33599, Note_on_c, 9, 35, 0
1, 33599, Note_on_c, 9, 42, 0
1, 33600, Note_on_c, 9, 49, 104
1, 33600, Note_on_c, 9, 35, 121
1, 34079, Note_on_c, 9, 49, 0
1, 34079, Note_on_c, 9, 35, 0
1, 34080, Note_on_c, 9, 48, 114
1, 34080, Note_on_c, 9, 44, 114
1, 34319, Note_on_c, 9, 48, 0
1, 34320, Note_on_c, 9, 45, 114
1, 34559, Note_on_c, 9, 44, 0
1, 34559, Note_on_c, 9, 45, 0
1, 34560, Note_on_c, 9, 55, 114
1, 34560, Note_on_c, 9, 35, 121
1, 35039, Note_on_c, 9, 55, 0
1, 35039, Note_on_c, 9, 35, 0
1, 35040, Note_on_c, 9, 53, 114
1, 35040, Note_on_c, 9, 44, 114
1, 35519, Note_on_c, 9, 53, 0
1, 35519, Note_on_c, 9, 44, 0
1, 35520, Note_on_c, 9, 59, 114
1, 35520, Note_on_c, 9, 35, 121
1, 35999, Note_on_c, 9, 59, 0
1, 35999, Note_on_c, 9, 35, 0
1, 36000, Note_on_c, 9, 44, 114
1, 36479, Note_on_c, 9, 44, 0
1, 36480, Note_on_c, 9, 51, 114
1, 36959, Note_on_c, 9, 51, 0
1, 36960, Note_on_c, 9, 44, 114
1, 37439, Note_on_c, 9, 44, 0
1, 37440, Note_on_c, 9, 59, 114
1, 37919, Note_on_c, 9, 59, 0
1, 37920, Note_on_c, 9, 44, 114
1, 38399, Note_on_c, 9, 44, 0
1, 38400, Note_on_c, 9, 51, 114
1, 38879, Note_on_c, 9, 51, 0
1, 38880, Note_on_c, 9, 44, 114
1, 39359, Note_on_c, 9, 44, 0
1, 39360, Note_on_c, 9, 59, 114
1, 39839, Note_on_c, 9, 59, 0
1, 39840, Note_on_c, 9, 44, 114
1, 40319, Note_on_c, 9, 44, 0
1, 40320, Note_on_c, 9, 51, 114
1, 40799, Note_on_c, 9, 51, 0
1, 40800, Note_on_c, 9, 44, 114
1, 41279, Note_on_c, 9, 44, 0
1, 41280, Note_on_c, 9, 59, 114
1, 41759, Note_on_c, 9, 59, 0
1, 41760, Note_on_c, 9, 44, 114
1, 42239, Note_on_c, 9, 44, 0
1, 42240, Note_on_c, 9, 51, 114
1, 42719, Note_on_c, 9, 51, 0
1, 42720, Note_on_c, 9, 44, 114
1, 43199, Note_on_c, 9, 44, 0
1, 43200, Note_on_c, 9, 59, 114
1, 43679, Note_on_c, 9, 59, 0
1, 43680, Note_on_c, 9, 45, 114
1, 43680, Note_on_c, 9, 44, 114
1, 43709, Note_on_c, 9, 45, 0
1, 43710, Note_on_c, 9, 48, 114
1, 44159, Note_on_c, 9, 44, 0
1, 44159, Note_on_c, 9, 48, 0
1, 44160, Note_on_c, 9, 42, 114
1, 44160, Note_on_c, 9, 35, 121
1, 44399, Note_on_c, 9, 42, 0
1, 44400, Note_on_c, 9, 42, 54
1, 44639, Note_on_c, 9, 35, 0
1, 44639, Note_on_c, 9, 42, 0
1, 44640, Note_on_c, 9, 37, 124
1, 44640, Note_on_c, 9, 31, 66
1, 44640, Note_on_c, 9, 42, 114
1, 44879, Note_on_c, 9, 37, 0
1, 44879, Note_on_c, 9, 31, 0
1, 44879, Note_on_c, 9, 42, 0
1, 44880, Note_on_c, 9, 42, 54
1, 45119, Note_on_c, 9, 42, 0
1, 45120, Note_on_c, 9, 42, 114
1, 45120, Note_on_c, 9, 35, 121
1, 45359, Note_on_c, 9, 42, 0
1, 45360, Note_on_c, 9, 42, 54
1, 45599, Note_on_c, 9, 35, 0
1, 45599, Note_on_c, 9, 42, 0
1, 45600, Note_on_c, 9, 37, 124
1, 45614, Note_on_c, 9, 37, 0
1, 45615, Note_on_c, 9, 31, 66
1, 45615, Note_on_c, 9, 42, 114
1, 45839, Note_on_c, 9, 31, 0
1, 45839, Note_on_c, 9, 42, 0
1, 45840, Note_on_c, 9, 42, 54
1, 46079, Note_on_c, 9, 42, 0
1, 46080, Note_on_c, 9, 42, 114
1, 46080, Note_on_c, 9, 35, 121
1, 46319, Note_on_c, 9, 42, 0
1, 46320, Note_on_c, 9, 42, 54
1, 46559, Note_on_c, 9, 35, 0
1, 46559, Note_on_c, 9, 42, 0
1, 46560, Note_on_c, 9, 37, 124
1, 46560, Note_on_c, 9, 31, 66
1, 46560, Note_on_c, 9, 42, 114
1, 46799, Note_on_c, 9, 37, 0
1, 46799, Note_on_c, 9, 31, 0
1, 46799, Note_on_c, 9, 42, 0
1, 46800, Note_on_c, 9, 42, 54
1, 47039, Note_on_c, 9, 42, 0
1, 47040, Note_on_c, 9, 42, 114
1, 47279, Note_on_c, 9, 42, 0
1, 47280, Note_on_c, 9, 42, 54
1, 47519, Note_on_c, 9, 42, 0
1, 47520, Note_on_c, 9, 37, 124
1, 47534, Note_on_c, 9, 37, 0
1, 47535, Note_on_c, 9, 31, 66
1, 47535, Note_on_c, 9, 42, 114
1, 47759, Note_on_c, 9, 31, 0
1, 47759, Note_on_c, 9, 42, 0
1, 47760, Note_on_c, 9, 42, 54
1, 47999, Note_on_c, 9, 42, 0
1, 48000, Note_on_c, 9, 42, 114
1, 48000, Note_on_c, 9, 35, 121
1, 48239, Note_on_c, 9, 42, 0
1, 48240, Note_on_c, 9, 42, 54
1, 48479, Note_on_c, 9, 35, 0
1, 48479, Note_on_c, 9, 42, 0
1, 48480, Note_on_c, 9, 37, 124
1, 48480, Note_on_c, 9, 31, 66
1, 48480, Note_on_c, 9, 42, 114
1, 48719, Note_on_c, 9, 37, 0
1, 48719, Note_on_c, 9, 31, 0
1, 48719, Note_on_c, 9, 42, 0
1, 48720, Note_on_c, 9, 42, 54
1, 48959, Note_on_c, 9, 42, 0
1, 48960, Note_on_c, 9, 42, 114
1, 48960, Note_on_c, 9, 35, 121
1, 49199, Note_on_c, 9, 42, 0
1, 49200, Note_on_c, 9, 42, 54
1, 49439, Note_on_c, 9, 35, 0
1, 49439, Note_on_c, 9, 42, 0
1, 49440, Note_on_c, 9, 37, 124
1, 49454, Note_on_c, 9, 37, 0
1, 49455, Note_on_c, 9, 31, 66
1, 49455, Note_on_c, 9, 42, 114
1, 49679, Note_on_c, 9, 31, 0
1, 49679, Note_on_c, 9, 42, 0
1, 49680, Note_on_c, 9, 42, 54
1, 49919, Note_on_c, 9, 42, 0
1, 49920, Note_on_c, 9, 42, 114
1, 49920, Note_on_c, 9, 35, 121
1, 50159, Note_on_c, 9, 42, 0
1, 50160, Note_on_c, 9, 42, 54
1, 50399, Note_on_c, 9, 35, 0
1, 50399, Note_on_c, 9, 42, 0
1, 50400, Note_on_c, 9, 37, 124
1, 50400, Note_on_c, 9, 31, 66
1, 50400, Note_on_c, 9, 42, 114
1, 50639, Note_on_c, 9, 37, 0
1, 50639, Note_on_c, 9, 31, 0
1, 50639, Note_on_c, 9, 42, 0
1, 50640, Note_on_c, 9, 42, 54
1, 50879, Note_on_c, 9, 42, 0
1, 50880, Note_on_c, 9, 42, 114
1, 50880, Note_on_c, 9, 35, 121
1, 51119, Note_on_c, 9, 42, 0
1, 51120, Note_on_c, 9, 42, 54
1, 51359, Note_on_c, 9, 35, 0
1, 51359, Note_on_c, 9, 42, 0
1, 51360, Note_on_c, 9, 37, 124
1, 51374, Note_on_c, 9, 37, 0
1, 51375, Note_on_c, 9, 31, 66
1, 51375, Note_on_c, 9, 42, 114
1, 51599, Note_on_c, 9, 31, 0
1, 51599, Note_on_c, 9, 42, 0
1, 51600, Note_on_c, 9, 42, 54
1, 51839, Note_on_c, 9, 42, 0
1, 51840, Note_on_c, 9, 42, 114
1, 51840, Note_on_c, 9, 35, 121
1, 52079, Note_on_c, 9, 42, 0
1, 52080, Note_on_c, 9, 42, 54
1, 52319, Note_on_c, 9, 35, 0
1, 52319, Note_on_c, 9, 42, 0
1, 52320, Note_on_c, 9, 37, 124
1, 52320, Note_on_c, 9, 31, 66
1, 52320, Note_on_c, 9, 42, 114
1, 52559, Note_on_c, 9, 37, 0
1, 52559, Note_on_c, 9, 31, 0
1, 52559, Note_on_c, 9, 42, 0
1, 52560, Note_on_c, 9, 42, 54
1, 52799, Note_on_c, 9, 42, 0
1, 52800, Note_on_c, 9, 42, 114
1, 52800, Note_on_c, 9, 35, 121
1, 53039, Note_on_c, 9, 42, 0
1, 53040, Note_on_c, 9, 42, 54
1, 53279, Note_on_c, 9, 35, 0
1, 53279, Note_on_c, 9, 42, 0
1, 53280, Note_on_c, 9, 37, 124
1, 53294, Note_on_c, 9, 37, 0
1, 53295, Note_on_c, 9, 31, 66
1, 53295, Note_on_c, 9, 42, 114
1, 53519, Note_on_c, 9, 31, 0
1, 53519, Note_on_c, 9, 42, 0
1, 53520, Note_on_c, 9, 42, 54
1, 53759, Note_on_c, 9, 42, 0
1, 53760, Note_on_c, 9, 42, 114
1, 53760, Note_on_c, 9, 35, 121
1, 53999, Note_on_c, 9, 42, 0
1, 54000, Note_on_c, 9, 42, 54
1, 54239, Note_on_c, 9, 35, 0
1, 54239, Note_on_c, 9, 42, 0
1, 54240, Note_on_c, 9, 37, 124
1, 54240, Note_on_c, 9, 31, 66
1, 54240, Note_on_c, 9, 42, 114
1, 54479, Note_on_c, 9, 37, 0
1, 54479, Note_on_c, 9, 31, 0
1, 54479, Note_on_c, 9, 42, 0
1, 54480, Note_on_c, 9, 42, 54
1, 54719, Note_on_c, 9, 42, 0
1, 54720, Note_on_c, 9, 42, 114
1, 54959, Note_on_c, 9, 42, 0
1, 54960, Note_on_c, 9, 42, 54
1, 55199, Note_on_c, 9, 42, 0
1, 55200, Note_on_c, 9, 37, 124
1, 55214, Note_on_c, 9, 37, 0
1, 55215, Note_on_c, 9, 31, 66
1, 55215, Note_on_c, 9, 42, 114
1, 55320, Note_on_c, 9, 35, 123
1, 55439, Note_on_c, 9, 31, 0
1, 55439, Note_on_c, 9, 42, 0
1, 55440, Note_on_c, 9, 42, 54
1, 55679, Note_on_c, 9, 35, 0
1, 55679, Note_on_c, 9, 42, 0
1, 55680, Note_on_c, 9, 42, 114
1, 55680, Note_on_c, 9, 35, 121
1, 55919, Note_on_c, 9, 42, 0
1, 55920, Note_on_c, 9, 42, 54
1, 56159, Note_on_c, 9, 35, 0
1, 56159, Note_on_c, 9, 42, 0
1, 56160, Note_on_c, 9, 31, 66
1, 56174, Note_on_c, 9, 31, 0
1, 56175, Note_on_c, 9, 37, 124
1, 56175, Note_on_c, 9, 42, 114
1, 56399, Note_on_c, 9, 37, 0
1, 56399, Note_on_c, 9, 42, 0
1, 56400, Note_on_c, 9, 46, 114
1, 56639, Note_on_c, 9, 46, 0
1, 56640, Note_on_c, 9, 42, 114
1, 56640, Note_on_c, 9, 35, 121
1, 56879, Note_on_c, 9, 42, 0
1, 56880, Note_on_c, 9, 42, 54
1, 57119, Note_on_c, 9, 35, 0
1, 57119, Note_on_c, 9, 42, 0
1, 57120, Note_on_c, 9, 37, 124
1, 57120, Note_on_c, 9, 31, 66
1, 57134, Note_on_c, 9, 37, 0
1, 57134, Note_on_c, 9, 31, 0
1, 57135, Note_on_c, 9, 42, 114
1, 57359, Note_on_c, 9, 42, 0
1, 57360, Note_on_c, 9, 42, 54
1, 57599, Note_on_c, 9, 42, 0
1, 57600, Note_on_c, 9, 57, 104
1, 57600, Note_on_c, 9, 44, 64
1, 57614, Note_on_c, 9, 44, 0
1, 57615, Note_on_c, 9, 35, 121
1, 57839, Note_on_c, 9, 35, 0
1, 57840, Note_on_c, 9, 44, 114
1, 57959, Note_on_c, 9, 57, 0
1, 57960, Note_on_c, 9, 47, 74
1, 57999, Note_on_c, 9, 47, 0
1, 58000, Note_on_c, 9, 47, 82
1, 58019, Note_on_c, 9, 47, 0
1, 58040, Note_on_c, 9, 47, 106
1, 58079, Note_on_c, 9, 44, 0
1, 58079, Note_on_c, 9, 47, 0
1, 58080, Note_on_c, 9, 47, 114
1, 58080, Note_on_c, 9, 44, 64
1, 58319, Note_on_c, 9, 44, 0
1, 58320, Note_on_c, 9, 44, 114
1, 58439, Note_on_c, 9, 47, 0
1, 58440, Note_on_c, 9, 48, 114
1, 58559, Note_on_c, 9, 44, 0
1, 58559, Note_on_c, 9, 48, 0
1, 58560, Note_on_c, 9, 45, 114
1, 58560, Note_on_c, 9, 44, 64
1, 58799, Note_on_c, 9, 44, 0
1, 58800, Note_on_c, 9, 44, 114
1, 58919, Note_on_c, 9, 45, 0
1, 58920, Note_on_c, 9, 45, 114
1, 59039, Note_on_c, 9, 44, 0
1, 59039, Note_on_c, 9, 45, 0
1, 59040, Note_on_c, 9, 38, 126
1, 59040, Note_on_c, 9, 44, 64
1, 59519, Note_on_c, 9, 38, 0
1, 59519, Note_on_c, 9, 44, 0
1, 59520, Note_on_c, 9, 42, 114
1, 59520, Note_on_c, 9, 49, 104
1, 59520, Note_on_c, 9, 35, 121
1, 59639, Note_on_c, 9, 42, 0
1, 59639, Note_on_c, 9, 49, 0
1, 59640, Note_on_c, 9, 42, 54
1, 59759, Note_on_c, 9, 42, 0
1, 59760, Note_on_c, 9, 42, 114
1, 59879, Note_on_c, 9, 42, 0
1, 59880, Note_on_c, 9, 42, 54
1, 59999, Note_on_c, 9, 35, 0
1, 59999, Note_on_c, 9, 42, 0
1, 60000, Note_on_c, 9, 38, 114
1, 60014, Note_on_c, 9, 38, 0
1, 60015, Note_on_c, 9, 39, 114
1, 60015, Note_on_c, 9, 42, 114
1, 60059, Note_on_c, 9, 39, 0
1, 60059, Note_on_c, 9, 42, 0
1, 60120, Note_on_c, 9, 42, 54
1, 60239, Note_on_c, 9, 42, 0
1, 60240, Note_on_c, 9, 42, 114
1, 60240, Note_on_c, 9, 35, 121
1, 60359, Note_on_c, 9, 42, 0
1, 60360, Note_on_c, 9, 42, 54
1, 60479, Note_on_c, 9, 35, 0
1, 60479, Note_on_c, 9, 42, 0
1, 60480, Note_on_c, 9, 42, 114
1, 60480, Note_on_c, 9, 35, 121
1, 60599, Note_on_c, 9, 42, 0
1, 60600, Note_on_c, 9, 42, 54
1, 60719, Note_on_c, 9, 42, 0
1, 60720, Note_on_c, 9, 42, 114
1, 60839, Note_on_c, 9, 42, 0
1, 60840, Note_on_c, 9, 42, 54
1, 60959, Note_on_c, 9, 35, 0
1, 60959, Note_on_c, 9, 42, 0
1, 60960, Note_on_c, 9, 38, 114
1, 60960, Note_on_c, 9, 39, 114
1, 60974, Note_on_c, 9, 38, 0
1, 60974, Note_on_c, 9, 39, 0
1, 60975, Note_on_c, 9, 42, 114
1, 61019, Note_on_c, 9, 42, 0
1, 61080, Note_on_c, 9, 42, 54
1, 61199, Note_on_c, 9, 42, 0
1, 61200, Note_on_c, 9, 42, 114
1, 61319, Note_on_c, 9, 42, 0
1, 61320, Note_on_c, 9, 42, 54
1, 61439, Note_on_c, 9, 42, 0
1, 61440, Note_on_c, 9, 42, 114
1, 61440, Note_on_c, 9, 35, 121
1, 61559, Note_on_c, 9, 42, 0
1, 61560, Note_on_c, 9, 42, 54
1, 61679, Note_on_c, 9, 42, 0
1, 61680, Note_on_c, 9, 42, 114
1, 61799, Note_on_c, 9, 42, 0
1, 61800, Note_on_c, 9, 42, 54
1, 61919, Note_on_c, 9, 35, 0
1, 61919, Note_on_c, 9, 42, 0
1, 61920, Note_on_c, 9, 38, 114
1, 61934, Note_on_c, 9, 38, 0
1, 61935, Note_on_c, 9, 39, 114
1, 61935, Note_on_c, 9, 42, 114
1, 61979, Note_on_c, 9, 39, 0
1, 61979, Note_on_c, 9, 42, 0
1, 62040, Note_on_c, 9, 42, 54
1, 62159, Note_on_c, 9, 42, 0
1, 62160, Note_on_c, 9, 42, 114
1, 62160, Note_on_c, 9, 35, 121
1, 62279, Note_on_c, 9, 42, 0
1, 62280, Note_on_c, 9, 42, 54
1, 62399, Note_on_c, 9, 35, 0
1, 62399, Note_on_c, 9, 42, 0
1, 62400, Note_on_c, 9, 42, 114
1, 62400, Note_on_c, 9, 35, 121
1, 62519, Note_on_c, 9, 42, 0
1, 62520, Note_on_c, 9, 42, 54
1, 62639, Note_on_c, 9, 42, 0
1, 62640, Note_on_c, 9, 42, 114
1, 62759, Note_on_c, 9, 42, 0
1, 62760, Note_on_c, 9, 42, 54
1, 62879, Note_on_c, 9, 35, 0
1, 62879, Note_on_c, 9, 42, 0
1, 62880, Note_on_c, 9, 38, 114
1, 62880, Note_on_c, 9, 39, 114
1, 62894, Note_on_c, 9, 38, 0
1, 62894, Note_on_c, 9, 39, 0
1, 62895, Note_on_c, 9, 42, 114
1, 62939, Note_on_c, 9, 42, 0
1, 63000, Note_on_c, 9, 42, 54
1, 63119, Note_on_c, 9, 42, 0
1, 63120, Note_on_c, 9, 42, 114
1, 63239, Note_on_c, 9, 42, 0
1, 63240, Note_on_c, 9, 42, 54
1, 63359, Note_on_c, 9, 42, 0
1, 63360, Note_on_c, 9, 42, 114
1, 63360, Note_on_c, 9, 35, 121
1, 63479, Note_on_c, 9, 42, 0
1, 63480, Note_on_c, 9, 42, 54
1, 63599, Note_on_c, 9, 42, 0
1, 63600, Note_on_c, 9, 42, 114
1, 63719, Note_on_c, 9, 42, 0
1, 63720, Note_on_c, 9, 42, 54
1, 63839, Note_on_c, 9, 35, 0
1, 63839, Note_on_c, 9, 42, 0
1, 63840, Note_on_c, 9, 38, 114
1, 63854, Note_on_c, 9, 38, 0
1, 63855, Note_on_c, 9, 39, 114
1, 63855, Note_on_c, 9, 42, 114
1, 63899, Note_on_c, 9, 39, 0
1, 63899, Note_on_c, 9, 42, 0
1, 63960, Note_on_c, 9, 42, 54
1, 64079, Note_on_c, 9, 42, 0
1, 64080, Note_on_c, 9, 42, 114
1, 64080, Note_on_c, 9, 35, 121
1, 64199, Note_on_c, 9, 42, 0
1, 64200, Note_on_c, 9, 42, 54
1, 64319, Note_on_c, 9, 35, 0
1, 64319, Note_on_c, 9, 42, 0
1, 64320, Note_on_c, 9, 42, 114
1, 64320, Note_on_c, 9, 35, 121
1, 64439, Note_on_c, 9, 42, 0
1, 64440, Note_on_c, 9, 42, 54
1, 64559, Note_on_c, 9, 42, 0
1, 64560, Note_on_c, 9, 42, 114
1, 64679, Note_on_c, 9, 42, 0
1, 64680, Note_on_c, 9, 42, 54
1, 64799, Note_on_c, 9, 35, 0
1, 64799, Note_on_c, 9, 42, 0
1, 64800, Note_on_c, 9, 38, 114
1, 64800, Note_on_c, 9, 39, 114
1, 64814, Note_on_c, 9, 38, 0
1, 64814, Note_on_c, 9, 39, 0
1, 64815, Note_on_c, 9, 42, 114
1, 64859, Note_on_c, 9, 42, 0
1, 64920, Note_on_c, 9, 42, 54
1, 65039, Note_on_c, 9, 42, 0
1, 65040, Note_on_c, 9, 42, 114
1, 65159, Note_on_c, 9, 42, 0
1, 65160, Note_on_c, 9, 42, 54
1, 65279, Note_on_c, 9, 42, 0
1, 65280, Note_on_c, 9, 42, 114
1, 65280, Note_on_c, 9, 35, 121
1, 65399, Note_on_c, 9, 42, 0
1, 65400, Note_on_c, 9, 42, 54
1, 65519, Note_on_c, 9, 42, 0
1, 65520, Note_on_c, 9, 42, 114
1, 65639, Note_on_c, 9, 42, 0
1, 65640, Note_on_c, 9, 42, 54
1, 65759, Note_on_c, 9, 35, 0
1, 65759, Note_on_c, 9, 42, 0
1, 65760, Note_on_c, 9, 38, 114
1, 65774, Note_on_c, 9, 38, 0
1, 65775, Note_on_c, 9, 39, 114
1, 65775, Note_on_c, 9, 42, 114
1, 65819, Note_on_c, 9, 39, 0
1, 65819, Note_on_c, 9, 42, 0
1, 65880, Note_on_c, 9, 42, 54
1, 65999, Note_on_c, 9, 42, 0
1, 66000, Note_on_c, 9, 42, 114
1, 66000, Note_on_c, 9, 35, 121
1, 66119, Note_on_c, 9, 42, 0
1, 66120, Note_on_c, 9, 42, 54
1, 66239, Note_on_c, 9, 35, 0
1, 66239, Note_on_c, 9, 42, 0
1, 66240, Note_on_c, 9, 42, 114
1, 66240, Note_on_c, 9, 35, 121
1, 66359, Note_on_c, 9, 42, 0
1, 66360, Note_on_c, 9, 42, 54
1, 66479, Note_on_c, 9, 42, 0
1, 66480, Note_on_c, 9, 42, 114
1, 66599, Note_on_c, 9, 42, 0
1, 66600, Note_on_c, 9, 42, 54
1, 66719, Note_on_c, 9, 35, 0
1, 66719, Note_on_c, 9, 42, 0
1, 66720, Note_on_c, 9, 38, 114
1, 66720, Note_on_c, 9, 39, 114
1, 66734, Note_on_c, 9, 38, 0
1, 66734, Note_on_c, 9, 39, 0
1, 66735, Note_on_c, 9, 42, 114
1, 66779, Note_on_c, 9, 42, 0
1, 66840, Note_on_c, 9, 42, 54
1, 66959, Note_on_c, 9, 42, 0
1, 66960, Note_on_c, 9, 42, 114
1, 67079, Note_on_c, 9, 42, 0
1, 67080, Note_on_c, 9, 42, 54
1, 67199, Note_on_c, 9, 42, 0
1, 67200, Note_on_c, 9, 42, 114
1, 67200, Note_on_c, 9, 35, 121
1, 67319, Note_on_c, 9, 42, 0
1, 67320, Note_on_c, 9, 42, 54
1, 67439, Note_on_c, 9, 42, 0
1, 67440, Note_on_c, 9, 42, 114
1, 67559, Note_on_c, 9, 42, 0
1, 67560, Note_on_c, 9, 42, 54
1, 67679, Note_on_c, 9, 35, 0
1, 67679, Note_on_c, 9, 42, 0
1, 67680, Note_on_c, 9, 38, 114
1, 67680, Note_on_c, 9, 39, 114
1, 67694, Note_on_c, 9, 38, 0
1, 67694, Note_on_c, 9, 39, 0
1, 67695, Note_on_c, 9, 42, 114
1, 67739, Note_on_c, 9, 42, 0
1, 67800, Note_on_c, 9, 42, 54
1, 67919, Note_on_c, 9, 42, 0
1, 67920, Note_on_c, 9, 42, 114
1, 67920, Note_on_c, 9, 35, 121
1, 68039, Note_on_c, 9, 42, 0
1, 68040, Note_on_c, 9, 42, 54
1, 68159, Note_on_c, 9, 35, 0
1, 68159, Note_on_c, 9, 42, 0
1, 68160, Note_on_c, 9, 49, 104
1, 68160, Note_on_c, 9, 35, 121
1, 68639, Note_on_c, 9, 49, 0
1, 68639, Note_on_c, 9, 35, 0
1, 68640, Note_on_c, 9, 48, 114
1, 68640, Note_on_c, 9, 44, 114
1, 68879, Note_on_c, 9, 48, 0
1, 68880, Note_on_c, 9, 45, 114
1, 69119, Note_on_c, 9, 44, 0
1, 69119, Note_on_c, 9, 45, 0
1, 69120, Note_on_c, 9, 55, 114
1, 69120, Note_on_c, 9, 35, 121
1, 69599, Note_on_c, 9, 55, 0
1, 69599, Note_on_c, 9, 35, 0
1, 69600, Note_on_c, 9, 53, 114
1, 69600, Note_on_c, 9, 44, 114
1, 70079, Note_on_c, 9, 53, 0
1, 70079, Note_on_c, 9, 44, 0
1, 70080, Note_on_c, 9, 59, 114
1, 70080, Note_on_c, 9, 35, 121
1, 70559, Note_on_c, 9, 59, 0
1, 70559, Note_on_c, 9, 35, 0
1, 70560, Note_on_c, 9, 44, 114
1, 71039, Note_on_c, 9, 44, 0
1, 71040, Note_on_c, 9, 55, 114
1, 71040, Note_on_c, 9, 35, 121
1, 71054, Note_on_c, 9, 35, 0
1, 71055, Note_on_c, 9, 44, 114
1, 71279, Note_on_c, 9, 44, 0
1, 71519, Note_on_c, 9, 55, 0
1, 71520, Note_on_c, 9, 44, 114
1, 71760, Note_on_c, 9, 47, 114
1, 71999, Note_on_c, 9, 44, 0
1, 71999, Note_on_c, 9, 47, 0
1, 72000, Note_on_c, 9, 44, 114
1, 72120, Note_on_c, 9, 45, 114
1, 72479, Note_on_c, 9, 44, 0
1, 72479, Note_on_c, 9, 45, 0
1, 72480, Note_on_c, 9, 38, 114
1, 72480, Note_on_c, 9, 44, 114
1, 72499, Note_on_c, 9, 38, 0
1, 72500, Note_on_c, 9, 38, 115
1, 72539, Note_on_c, 9, 38, 0
1, 72719, Note_on_c, 9, 44, 0
1, 72720, Note_on_c, 9, 35, 121
1, 72959, Note_on_c, 9, 35, 0
1, 72960, Note_on_c, 9, 49, 104
1, 72960, Note_on_c, 9, 35, 121
1, 72974, Note_on_c, 9, 49, 0
1, 72975, Note_on_c, 9, 42, 114
1, 73019, Note_on_c, 9, 42, 0
1, 73080, Note_on_c, 9, 42, 54
1, 73199, Note_on_c, 9, 42, 0
1, 73200, Note_on_c, 9, 42, 114
1, 73319, Note_on_c, 9, 42, 0
1, 73320, Note_on_c, 9, 42, 54
1, 73439, Note_on_c, 9, 35, 0
1, 73439, Note_on_c, 9, 42, 0
1, 73440, Note_on_c, 9, 38, 114
1, 73440, Note_on_c, 9, 39, 114
1, 73454, Note_on_c, 9, 38, 0
1, 73454, Note_on_c, 9, 39, 0
1, 73455, Note_on_c, 9, 42, 114
1, 73499, Note_on_c, 9, 42, 0
1, 73560, Note_on_c, 9, 42, 54
1, 73679, Note_on_c, 9, 42, 0
1, 73680, Note_on_c, 9, 42, 114
1, 73680, Note_on_c, 9, 35, 121
1, 73799, Note_on_c, 9, 42, 0
1, 73800, Note_on_c, 9, 42, 54
1, 73919, Note_on_c, 9, 35, 0
1, 73919, Note_on_c, 9, 42, 0
1, 73920, Note_on_c, 9, 42, 114
1, 73920, Note_on_c, 9, 35, 121
1, 74039, Note_on_c, 9, 42, 0
1, 74040, Note_on_c, 9, 42, 54
1, 74159, Note_on_c, 9, 42, 0
1, 74160, Note_on_c, 9, 42, 114
1, 74279, Note_on_c, 9, 42, 0
1, 74280, Note_on_c, 9, 42, 54
1, 74399, Note_on_c, 9, 35, 0
1, 74399, Note_on_c, 9, 42, 0
1, 74400, Note_on_c, 9, 38, 114
1, 74400, Note_on_c, 9, 39, 114
1, 74414, Note_on_c, 9, 38, 0
1, 74414, Note_on_c, 9, 39, 0
1, 74415, Note_on_c, 9, 42, 114
1, 74459, Note_on_c, 9, 42, 0
1, 74520, Note_on_c, 9, 42, 54
1, 74639, Note_on_c, 9, 42, 0
1, 74640, Note_on_c, 9, 42, 114
1, 74759, Note_on_c, 9, 42, 0
1, 74760, Note_on_c, 9, 42, 54
1, 74879, Note_on_c, 9, 42, 0
1, 74880, Note_on_c, 9, 42, 114
1, 74880, Note_on_c, 9, 35, 121
1, 74999, Note_on_c, 9, 42, 0
1, 75000, Note_on_c, 9, 42, 54
1, 75119, Note_on_c, 9, 42, 0
1, 75120, Note_on_c, 9, 42, 114
1, 75239, Note_on_c, 9, 42, 0
1, 75240, Note_on_c, 9, 42, 54
1, 75359, Note_on_c, 9, 35, 0
1, 75359, Note_on_c, 9, 42, 0
1, 75360, Note_on_c, 9, 38, 114
1, 75360, Note_on_c, 9, 39, 114
1, 75374, Note_on_c, 9, 38, 0
1, 75374, Note_on_c, 9, 39, 0
1, 75375, Note_on_c, 9, 42, 114
1, 75419, Note_on_c, 9, 42, 0
1, 75480, Note_on_c, 9, 42, 54
1, 75599, Note_on_c, 9, 42, 0
1, 75600, Note_on_c, 9, 42, 114
1, 75600, Note_on_c, 9, 35, 121
1, 75719, Note_on_c, 9, 42, 0
1, 75720, Note_on_c, 9, 42, 54
1, 75839, Note_on_c, 9, 35, 0
1, 75839, Note_on_c, 9, 42, 0
1, 75840, Note_on_c, 9, 42, 114
1, 75840, Note_on_c, 9, 35, 121
1, 75959, Note_on_c, 9, 42, 0
1, 75960, Note_on_c, 9, 42, 54
1, 76079, Note_on_c, 9, 42, 0
1, 76080, Note_on_c, 9, 42, 114
1, 76199, Note_on_c, 9, 42, 0
1, 76200, Note_on_c, 9, 42, 54
1, 76319, Note_on_c, 9, 35, 0
1, 76319, Note_on_c, 9, 42, 0
1, 76320, Note_on_c, 9, 38, 114
1, 76320, Note_on_c, 9, 39, 114
1, 76334, Note_on_c, 9, 38, 0
1, 76334, Note_on_c, 9, 39, 0
1, 76335, Note_on_c, 9, 42, 114
1, 76379, Note_on_c, 9, 42, 0
1, 76440, Note_on_c, 9, 42, 54
1, 76559, Note_on_c, 9, 42, 0
1, 76560, Note_on_c, 9, 42, 114
1, 76679, Note_on_c, 9, 42, 0
1, 76680, Note_on_c, 9, 42, 54
1, 76799, Note_on_c, 9, 42, 0
1, 76800, Note_on_c, 9, 42, 114
1, 76800, Note_on_c, 9, 35, 121
1, 76919, Note_on_c, 9, 42, 0
1, 76920, Note_on_c, 9, 42, 54
1, 77039, Note_on_c, 9, 42, 0
1, 77040, Note_on_c, 9, 42, 114
1, 77159, Note_on_c, 9, 42, 0
1, 77160, Note_on_c, 9, 42, 54
1, 77279, Note_on_c, 9, 35, 0
1, 77279, Note_on_c, 9, 42, 0
1, 77280, Note_on_c, 9, 38, 114
1, 77280, Note_on_c, 9, 39, 114
1, 77294, Note_on_c, 9, 38, 0
1, 77294, Note_on_c, 9, 39, 0
1, 77295, Note_on_c, 9, 42, 114
1, 77339, Note_on_c, 9, 42, 0
1, 77400, Note_on_c, 9, 42, 54
1, 77519, Note_on_c, 9, 42, 0
1, 77520, Note_on_c, 9, 42, 114
1, 77520, Note_on_c, 9, 35, 121
1, 77639, Note_on_c, 9, 42, 0
1, 77640, Note_on_c, 9, 42, 54
1, 77759, Note_on_c, 9, 35, 0
1, 77759, Note_on_c, 9, 42, 0
1, 77760, Note_on_c, 9, 42, 114
1, 77760, Note_on_c, 9, 35, 121
1, 77879, Note_on_c, 9, 42, 0
1, 77880, Note_on_c, 9, 42, 54
1, 77999, Note_on_c, 9, 42, 0
1, 78000, Note_on_c, 9, 42, 114
1, 78119, Note_on_c, 9, 42, 0
1, 78120, Note_on_c, 9, 42, 54
1, 78239, Note_on_c, 9, 35, 0
1, 78239, Note_on_c, 9, 42, 0
1, 78240, Note_on_c, 9, 38, 114
1, 78240, Note_on_c, 9, 39, 114
1, 78254, Note_on_c, 9, 38, 0
1, 78254, Note_on_c, 9, 39, 0
1, 78255, Note_on_c, 9, 42, 114
1, 78299, Note_on_c, 9, 42, 0
1, 78360, Note_on_c, 9, 42, 54
1, 78479, Note_on_c, 9, 42, 0
1, 78480, Note_on_c, 9, 42, 114
1, 78599, Note_on_c, 9, 42, 0
1, 78600, Note_on_c, 9, 42, 54
1, 78719, Note_on_c, 9, 42, 0
1, 78720, Note_on_c, 9, 42, 114
1, 78720, Note_on_c, 9, 35, 121
1, 78839, Note_on_c, 9, 42, 0
1, 78840, Note_on_c, 9, 42, 54
1, 78959, Note_on_c, 9, 42, 0
1, 78960, Note_on_c, 9, 42, 114
1, 79079, Note_on_c, 9, 42, 0
1, 79080, Note_on_c, 9, 42, 54
1, 79199, Note_on_c, 9, 35, 0
1, 79199, Note_on_c, 9, 42, 0
1, 79200, Note_on_c, 9, 38, 114
1, 79200, Note_on_c, 9, 39, 114
1, 79200, Note_on_c, 9, 42, 114
1, 79319, Note_on_c, 9, 38, 0
1, 79319, Note_on_c, 9, 39, 0
1, 79319, Note_on_c, 9, 42, 0
1, 79320, Note_on_c, 9, 42, 54
1, 79439, Note_on_c, 9, 42, 0
1, 79440, Note_on_c, 9, 42, 114
1, 79440, Note_on_c, 9, 35, 121
1, 79559, Note_on_c, 9, 42, 0
1, 79560, Note_on_c, 9, 42, 54
1, 79679, Note_on_c, 9, 35, 0
1, 79679, Note_on_c, 9, 42, 0
1, 79680, Note_on_c, 9, 42, 114
1, 79680, Note_on_c, 9, 35, 121
1, 79799, Note_on_c, 9, 42, 0
1, 79800, Note_on_c, 9, 42, 54
1, 79919, Note_on_c, 9, 42, 0
1, 79920, Note_on_c, 9, 42, 114
1, 80039, Note_on_c, 9, 42, 0
1, 80040, Note_on_c, 9, 42, 54
1, 80159, Note_on_c, 9, 35, 0
1, 80159, Note_on_c, 9, 42, 0
1, 80160, Note_on_c, 9, 38, 114
1, 80160, Note_on_c, 9, 46, 114
1, 80174, Note_on_c, 9, 38, 0
1, 80174, Note_on_c, 9, 46, 0
1, 80175, Note_on_c, 9, 39, 114
1, 80399, Note_on_c, 9, 39, 0
1, 80400, Note_on_c, 9, 46, 114
1, 80639, Note_on_c, 9, 46, 0
1, 80640, Note_on_c, 9, 57, 104
1, 80640, Note_on_c, 9, 35, 121
1, 80654, Note_on_c, 9, 57, 0
1, 80655, Note_on_c, 9, 42, 114
1, 80699, Note_on_c, 9, 42, 0
1, 80760, Note_on_c, 9, 42, 54
1, 80879, Note_on_c, 9, 42, 0
1, 80880, Note_on_c, 9, 42, 114
1, 80999, Note_on_c, 9, 42, 0
1, 81000, Note_on_c, 9, 42, 54
1, 81119, Note_on_c, 9, 35, 0
1, 81119, Note_on_c, 9, 42, 0
1, 81120, Note_on_c, 9, 38, 114
1, 81120, Note_on_c, 9, 39, 114
1, 81134, Note_on_c, 9, 38, 0
1, 81134, Note_on_c, 9, 39, 0
1, 81135, Note_on_c, 9, 42, 114
1, 81179, Note_on_c, 9, 42, 0
1, 81240, Note_on_c, 9, 42, 54
1, 81359, Note_on_c, 9, 42, 0
1, 81360, Note_on_c, 9, 42, 114
1, 81360, Note_on_c, 9, 35, 121
1, 81479, Note_on_c, 9, 42, 0
1, 81480, Note_on_c, 9, 42, 54
1, 81599, Note_on_c, 9, 35, 0
1, 81599, Note_on_c, 9, 42, 0
1, 81600, Note_on_c, 9, 42, 114
1, 81600, Note_on_c, 9, 35, 121
1, 81719, Note_on_c, 9, 42, 0
1, 81720, Note_on_c, 9, 42, 54
1, 81839, Note_on_c, 9, 42, 0
1, 81840, Note_on_c, 9, 42, 114
1, 81959, Note_on_c, 9, 42, 0
1, 81960, Note_on_c, 9, 42, 54
1, 82079, Note_on_c, 9, 35, 0
1, 82079, Note_on_c, 9, 42, 0
1, 82080, Note_on_c, 9, 38, 114
1, 82080, Note_on_c, 9, 39, 114
1, 82094, Note_on_c, 9, 38, 0
1, 82094, Note_on_c, 9, 39, 0
1, 82095, Note_on_c, 9, 42, 114
1, 82139, Note_on_c, 9, 42, 0
1, 82200, Note_on_c, 9, 42, 54
1, 82319, Note_on_c, 9, 42, 0
1, 82320, Note_on_c, 9, 42, 114
1, 82439, Note_on_c, 9, 42, 0
1, 82440, Note_on_c, 9, 42, 54
1, 82559, Note_on_c, 9, 42, 0
1, 82560, Note_on_c, 9, 42, 114
1, 82560, Note_on_c, 9, 35, 121
1, 82679, Note_on_c, 9, 42, 0
1, 82680, Note_on_c, 9, 42, 54
1, 82799, Note_on_c, 9, 42, 0
1, 82800, Note_on_c, 9, 42, 114
1, 82919, Note_on_c, 9, 42, 0
1, 82920, Note_on_c, 9, 42, 54
1, 83039, Note_on_c, 9, 35, 0
1, 83039, Note_on_c, 9, 42, 0
1, 83040, Note_on_c, 9, 38, 114
1, 83040, Note_on_c, 9, 39, 114
1, 83054, Note_on_c, 9, 38, 0
1, 83054, Note_on_c, 9, 39, 0
1, 83055, Note_on_c, 9, 42, 114
1, 83099, Note_on_c, 9, 42, 0
1, 83160, Note_on_c, 9, 42, 54
1, 83279, Note_on_c, 9, 42, 0
1, 83280, Note_on_c, 9, 42, 114
1, 83280, Note_on_c, 9, 35, 121
1, 83399, Note_on_c, 9, 42, 0
1, 83400, Note_on_c, 9, 42, 54
1, 83519, Note_on_c, 9, 35, 0
1, 83519, Note_on_c, 9, 42, 0
1, 83520, Note_on_c, 9, 42, 114
1, 83520, Note_on_c, 9, 35, 121
1, 83639, Note_on_c, 9, 42, 0
1, 83640, Note_on_c, 9, 42, 54
1, 83759, Note_on_c, 9, 42, 0
1, 83760, Note_on_c, 9, 42, 114
1, 83879, Note_on_c, 9, 42, 0
1, 83880, Note_on_c, 9, 42, 54
1, 83999, Note_on_c, 9, 35, 0
1, 83999, Note_on_c, 9, 42, 0
1, 84000, Note_on_c, 9, 38, 114
1, 84000, Note_on_c, 9, 39, 114
1, 84014, Note_on_c, 9, 38, 0
1, 84014, Note_on_c, 9, 39, 0
1, 84015, Note_on_c, 9, 42, 114
1, 84059, Note_on_c, 9, 42, 0
1, 84120, Note_on_c, 9, 42, 54
1, 84239, Note_on_c, 9, 42, 0
1, 84240, Note_on_c, 9, 42, 114
1, 84359, Note_on_c, 9, 42, 0
1, 84360, Note_on_c, 9, 42, 54
1, 84479, Note_on_c, 9, 42, 0
1, 84480, Note_on_c, 9, 42, 114
1, 84480, Note_on_c, 9, 35, 121
1, 84599, Note_on_c, 9, 42, 0
1, 84600, Note_on_c, 9, 42, 54
1, 84719, Note_on_c, 9, 42, 0
1, 84720, Note_on_c, 9, 42, 114
1, 84839, Note_on_c, 9, 42, 0
1, 84840, Note_on_c, 9, 42, 54
1, 84959, Note_on_c, 9, 35, 0
1, 84959, Note_on_c, 9, 42, 0
1, 84960, Note_on_c, 9, 38, 114
1, 84960, Note_on_c, 9, 39, 114
1, 84974, Note_on_c, 9, 38, 0
1, 84974, Note_on_c, 9, 39, 0
1, 84975, Note_on_c, 9, 42, 114
1, 85019, Note_on_c, 9, 42, 0
1, 85080, Note_on_c, 9, 42, 54
1, 85199, Note_on_c, 9, 42, 0
1, 85200, Note_on_c, 9, 42, 114
1, 85200, Note_on_c, 9, 35, 121
1, 85319, Note_on_c, 9, 42, 0
1, 85320, Note_on_c, 9, 42, 54
1, 85439, Note_on_c, 9, 35, 0
1, 85439, Note_on_c, 9, 42, 0
1, 85440, Note_on_c, 9, 42, 114
1, 85440, Note_on_c, 9, 35, 121
1, 85559, Note_on_c, 9, 42, 0
1, 85560, Note_on_c, 9, 42, 54
1, 85679, Note_on_c, 9, 42, 0
1, 85680, Note_on_c, 9, 42, 114
1, 85799, Note_on_c, 9, 42, 0
1, 85800, Note_on_c, 9, 42, 54
1, 85919, Note_on_c, 9, 35, 0
1, 85919, Note_on_c, 9, 42, 0
1, 85920, Note_on_c, 9, 38, 114
1, 85920, Note_on_c, 9, 39, 114
1, 85934, Note_on_c, 9, 38, 0
1, 85934, Note_on_c, 9, 39, 0
1, 85935, Note_on_c, 9, 42, 114
1, 85979, Note_on_c, 9, 42, 0
1, 86040, Note_on_c, 9, 42, 54
1, 86159, Note_on_c, 9, 42, 0
1, 86160, Note_on_c, 9, 42, 114
1, 86279, Note_on_c, 9, 42, 0
1, 86280, Note_on_c, 9, 42, 54
1, 86399, Note_on_c, 9, 42, 0
1, 86400, Note_on_c, 9, 49, 104
1, 86400, Note_on_c, 9, 35, 121
1, 86519, Note_on_c, 9, 49, 0
1, 86520, Note_on_c, 9, 42, 54
1, 86639, Note_on_c, 9, 42, 0
1, 86640, Note_on_c, 9, 42, 114
1, 86759, Note_on_c, 9, 42, 0
1, 86760, Note_on_c, 9, 42, 54
1, 86879, Note_on_c, 9, 35, 0
1, 86879, Note_on_c, 9, 42, 0
1, 86880, Note_on_c, 9, 38, 114
1, 86880, Note_on_c, 9, 39, 114
1, 86894, Note_on_c, 9, 38, 0
1, 86894, Note_on_c, 9, 39, 0
1, 86895, Note_on_c, 9, 42, 114
1, 86939, Note_on_c, 9, 42, 0
1, 87000, Note_on_c, 9, 42, 54
1, 87119, Note_on_c, 9, 42, 0
1, 87120, Note_on_c, 9, 42, 114
1, 87120, Note_on_c, 9, 35, 121
1, 87239, Note_on_c, 9, 42, 0
1, 87240, Note_on_c, 9, 42, 54
1, 87359, Note_on_c, 9, 35, 0
1, 87359, Note_on_c, 9, 42, 0
1, 87360, Note_on_c, 9, 42, 114
1, 87360, Note_on_c, 9, 35, 121
1, 87479, Note_on_c, 9, 42, 0
1, 87480, Note_on_c, 9, 42, 54
1, 87599, Note_on_c, 9, 42, 0
1, 87600, Note_on_c, 9, 42, 114
1, 87719, Note_on_c, 9, 42, 0
1, 87720, Note_on_c, 9, 42, 54
1, 87839, Note_on_c, 9, 35, 0
1, 87839, Note_on_c, 9, 42, 0
1, 87840, Note_on_c, 9, 38, 114
1, 87840, Note_on_c, 9, 39, 114
1, 87854, Note_on_c, 9, 38, 0
1, 87854, Note_on_c, 9, 39, 0
1, 87855, Note_on_c, 9, 42, 114
1, 87899, Note_on_c, 9, 42, 0
1, 87960, Note_on_c, 9, 42, 54
1, 88079, Note_on_c, 9, 42, 0
1, 88080, Note_on_c, 9, 42, 114
1, 88199, Note_on_c, 9, 42, 0
1, 88200, Note_on_c, 9, 42, 54
1, 88319, Note_on_c, 9, 42, 0
1, 88320, Note_on_c, 9, 42, 114
1, 88320, Note_on_c, 9, 35, 121
1, 88439, Note_on_c, 9, 42, 0
1, 88440, Note_on_c, 9, 42, 54
1, 88559, Note_on_c, 9, 42, 0
1, 88560, Note_on_c, 9, 42, 114
1, 88679, Note_on_c, 9, 42, 0
1, 88680, Note_on_c, 9, 42, 54
1, 88799, Note_on_c, 9, 35, 0
1, 88799, Note_on_c, 9, 42, 0
1, 88800, Note_on_c, 9, 38, 114
1, 88800, Note_on_c, 9, 39, 114
1, 88800, Note_on_c, 9, 42, 114
1, 88919, Note_on_c, 9, 38, 0
1, 88919, Note_on_c, 9, 39, 0
1, 88919, Note_on_c, 9, 42, 0
1, 88920, Note_on_c, 9, 42, 54
1, 89039, Note_on_c, 9, 42, 0
1, 89040, Note_on_c, 9, 42, 114
1, 89040, Note_on_c, 9, 35, 121
1, 89159, Note_on_c, 9, 42, 0
1, 89160, Note_on_c, 9, 42, 54
1, 89279, Note_on_c, 9, 35, 0
1, 89279, Note_on_c, 9, 42, 0
1, 89280, Note_on_c, 9, 49, 104
1, 89280, Note_on_c, 9, 35, 121
1, 89759, Note_on_c, 9, 49, 0
1, 89759, Note_on_c, 9, 35, 0
1, 89760, Note_on_c, 9, 44, 114
1, 90000, Note_on_c, 9, 59, 114
1, 90239, Note_on_c, 9, 44, 0
1, 90239, Note_on_c, 9, 59, 0
1, 90240, Note_on_c, 9, 51, 114
1, 90719, Note_on_c, 9, 51, 0
1, 90720, Note_on_c, 9, 44, 114
1, 91199, Note_on_c, 9, 44, 0
1, 91200, Note_on_c, 9, 59, 114
1, 91200, Note_on_c, 9, 35, 121
1, 91679, Note_on_c, 9, 59, 0
1, 91679, Note_on_c, 9, 35, 0
1, 91680, Note_on_c, 9, 44, 114
1, 92159, Note_on_c, 9, 44, 0
1, 92160, Note_on_c, 9, 51, 114
1, 92639, Note_on_c, 9, 51, 0
1, 92640, Note_on_c, 9, 44, 114
1, 93119, Note_on_c, 9, 44, 0
1, 93120, Note_on_c, 9, 59, 114
1, 93120, Note_on_c, 9, 35, 121
1, 93599, Note_on_c, 9, 59, 0
1, 93599, Note_on_c, 9, 35, 0
1, 93600, Note_on_c, 9, 44, 114
1, 94079, Note_on_c, 9, 44, 0
1, 94080, Note_on_c, 9, 51, 114
1, 94080, Note_on_c, 9, 35, 121
1, 94559, Note_on_c, 9, 51, 0
1, 94559, Note_on_c, 9, 35, 0
1, 94560, Note_on_c, 9, 44, 114
1, 95039, Note_on_c, 9, 44, 0
1, 95040, Note_on_c, 9, 59, 114
1, 95519, Note_on_c, 9, 59, 0
1, 95520, Note_on_c, 9, 44, 114
1, 95999, Note_on_c, 9, 44, 0
1, 96000, Note_on_c, 9, 51, 114
1, 96000, Note_on_c, 9, 35, 121
1, 96479, Note_on_c, 9, 51, 0
1, 96479, Note_on_c, 9, 35, 0
1, 96480, Note_on_c, 9, 44, 114
1, 96959, Note_on_c, 9, 44, 0
1, 96960, Note_on_c, 9, 59, 114
1, 96960, Note_on_c, 9, 35, 121
1, 97439, Note_on_c, 9, 59, 0
1, 97439, Note_on_c, 9, 35, 0
1, 97440, Note_on_c, 9, 44, 114
1, 97919, Note_on_c, 9, 44, 0
1, 97920, Note_on_c, 9, 51, 114
1, 97920, Note_on_c, 9, 35, 121
1, 98399, Note_on_c, 9, 51, 0
1, 98399, Note_on_c, 9, 35, 0
1, 98400, Note_on_c, 9, 44, 114
1, 98640, Note_on_c, 9, 48, 114
1, 98879, Note_on_c, 9, 44, 0
1, 98879, Note_on_c, 9, 48, 0
1, 98880, Note_on_c, 9, 47, 114
1, 99239, Note_on_c, 9, 47, 0
1, 99240, Note_on_c, 9, 48, 114
1, 99359, Note_on_c, 9, 48, 0
1, 99360, Note_on_c, 9, 45, 114
1, 99360, Note_on_c, 9, 44, 114
1, 99599, Note_on_c, 9, 44, 0
1, 99600, Note_on_c, 9, 35, 121
1, 99839, Note_on_c, 9, 45, 0
1, 99839, Note_on_c, 9, 35, 0
1, 99840, Note_on_c, 9, 49, 104
1, 99840, Note_on_c, 9, 35, 121
1, 99854, Note_on_c, 9, 49, 0
1, 99855, Note_on_c, 9, 42, 114
1, 99899, Note_on_c, 9, 42, 0
1, 99960, Note_on_c, 9, 42, 54
1, 100079, Note_on_c, 9, 42, 0
1, 100080, Note_on_c, 9, 42, 114
1, 100199, Note_on_c, 9, 42, 0
1, 100200, Note_on_c, 9, 42, 54
1, 100319, Note_on_c, 9, 35, 0
1, 100319, Note_on_c, 9, 42, 0
1, 100320, Note_on_c, 9, 38, 114
1, 100320, Note_on_c, 9, 39, 114
1, 100334, Note_on_c, 9, 38, 0
1, 100334, Note_on_c, 9, 39, 0
1, 100335, Note_on_c, 9, 42, 114
1, 100379, Note_on_c, 9, 42, 0
1, 100440, Note_on_c, 9, 42, 54
1, 100559, Note_on_c, 9, 42, 0
1, 100560, Note_on_c, 9, 42, 114
1, 100560, Note_on_c, 9, 35, 121
1, 100679, Note_on_c, 9, 42, 0
1, 100680, Note_on_c, 9, 42, 54
1, 100799, Note_on_c, 9, 35, 0
1, 100799, Note_on_c, 9, 42, 0
1, 100800, Note_on_c, 9, 42, 114
1, 100800, Note_on_c, 9, 35, 121
1, 100919, Note_on_c, 9, 42, 0
1, 100920, Note_on_c, 9, 42, 54
1, 101039, Note_on_c, 9, 42, 0
1, 101040, Note_on_c, 9, 42, 114
1, 101159, Note_on_c, 9, 42, 0
1, 101160, Note_on_c, 9, 42, 54
1, 101279, Note_on_c, 9, 35, 0
1, 101279, Note_on_c, 9, 42, 0
1, 101280, Note_on_c, 9, 38, 114
1, 101280, Note_on_c, 9, 39, 114
1, 101294, Note_on_c, 9, 38, 0
1, 101294, Note_on_c, 9, 39, 0
1, 101295, Note_on_c, 9, 42, 114
1, 101339, Note_on_c, 9, 42, 0
1, 101400, Note_on_c, 9, 42, 54
1, 101519, Note_on_c, 9, 42, 0
1, 101520, Note_on_c, 9, 42, 114
1, 101639, Note_on_c, 9, 42, 0
1, 101640, Note_on_c, 9, 42, 54
1, 101759, Note_on_c, 9, 42, 0
1, 101760, Note_on_c, 9, 42, 114
1, 101760, Note_on_c, 9, 35, 121
1, 101879, Note_on_c, 9, 42, 0
1, 101880, Note_on_c, 9, 42, 54
1, 101999, Note_on_c, 9, 42, 0
1, 102000, Note_on_c, 9, 42, 114
1, 102119, Note_on_c, 9, 42, 0
1, 102120, Note_on_c, 9, 42, 54
1, 102239, Note_on_c, 9, 35, 0
1, 102239, Note_on_c, 9, 42, 0
1, 102240, Note_on_c, 9, 38, 114
1, 102240, Note_on_c, 9, 39, 114
1, 102254, Note_on_c, 9, 38, 0
1, 102254, Note_on_c, 9, 39, 0
1, 102255, Note_on_c, 9, 42, 114
1, 102299, Note_on_c, 9, 42, 0
1, 102360, Note_on_c, 9, 42, 54
1, 102479, Note_on_c, 9, 42, 0
1, 102480, Note_on_c, 9, 42, 114
1, 102480, Note_on_c, 9, 35, 121
1, 102599, Note_on_c, 9, 42, 0
1, 102600, Note_on_c, 9, 42, 54
1, 102719, Note_on_c, 9, 35, 0
1, 102719, Note_on_c, 9, 42, 0
1, 102720, Note_on_c, 9, 42, 114
1, 102720, Note_on_c, 9, 35, 121
1, 102839, Note_on_c, 9, 42, 0
1, 102840, Note_on_c, 9, 42, 54
1, 102959, Note_on_c, 9, 42, 0
1, 102960, Note_on_c, 9, 42, 114
1, 103079, Note_on_c, 9, 42, 0
1, 103080, Note_on_c, 9, 42, 54
1, 103199, Note_on_c, 9, 35, 0
1, 103199, Note_on_c, 9, 42, 0
1, 103200, Note_on_c, 9, 38, 114
1, 103200, Note_on_c, 9, 39, 114
1, 103200, Note_on_c, 9, 42, 114
1, 103319, Note_on_c, 9, 38, 0
1, 103319, Note_on_c, 9, 39, 0
1, 103319, Note_on_c, 9, 42, 0
1, 103320, Note_on_c, 9, 42, 54
1, 103439, Note_on_c, 9, 42, 0
1, 103440, Note_on_c, 9, 47, 114
1, 103440, Note_on_c, 9, 42, 114
1, 103559, Note_on_c, 9, 47, 0
1, 103559, Note_on_c, 9, 42, 0
1, 103560, Note_on_c, 9, 45, 114
1, 103560, Note_on_c, 9, 42, 54
1, 103679, Note_on_c, 9, 45, 0
1, 103679, Note_on_c, 9, 42, 0
1, 103680, Note_on_c, 9, 57, 104
1, 103680, Note_on_c, 9, 35, 121
1, 103694, Note_on_c, 9, 57, 0
1, 103695, Note_on_c, 9, 42, 114
1, 103739, Note_on_c, 9, 42, 0
1, 103800, Note_on_c, 9, 42, 54
1, 103919, Note_on_c, 9, 42, 0
1, 103920, Note_on_c, 9, 42, 114
1, 104039, Note_on_c, 9, 42, 0
1, 104040, Note_on_c, 9, 42, 54
1, 104159, Note_on_c, 9, 35, 0
1, 104159, Note_on_c, 9, 42, 0
1, 104160, Note_on_c, 9, 38, 114
1, 104160, Note_on_c, 9, 39, 114
1, 104174, Note_on_c, 9, 38, 0
1, 104174, Note_on_c, 9, 39, 0
1, 104175, Note_on_c, 9, 42, 114
1, 104219, Note_on_c, 9, 42, 0
1, 104280, Note_on_c, 9, 42, 54
1, 104399, Note_on_c, 9, 42, 0
1, 104400, Note_on_c, 9, 42, 114
1, 104400, Note_on_c, 9, 35, 121
1, 104519, Note_on_c, 9, 42, 0
1, 104520, Note_on_c, 9, 42, 54
1, 104639, Note_on_c, 9, 35, 0
1, 104639, Note_on_c, 9, 42, 0
1, 104640, Note_on_c, 9, 42, 114
1, 104640, Note_on_c, 9, 35, 121
1, 104759, Note_on_c, 9, 42, 0
1, 104760, Note_on_c, 9, 42, 54
1, 104879, Note_on_c, 9, 42, 0
1, 104880, Note_on_c, 9, 42, 114
1, 104999, Note_on_c, 9, 42, 0
1, 105000, Note_on_c, 9, 42, 54
1, 105119, Note_on_c, 9, 35, 0
1, 105119, Note_on_c, 9, 42, 0
1, 105120, Note_on_c, 9, 38, 114
1, 105120, Note_on_c, 9, 39, 114
1, 105134, Note_on_c, 9, 38, 0
1, 105134, Note_on_c, 9, 39, 0
1, 105135, Note_on_c, 9, 42, 114
1, 105179, Note_on_c, 9, 42, 0
1, 105240, Note_on_c, 9, 42, 54
1, 105359, Note_on_c, 9, 42, 0
1, 105360, Note_on_c, 9, 42, 114
1, 105479, Note_on_c, 9, 42, 0
1, 105480, Note_on_c, 9, 42, 54
1, 105599, Note_on_c, 9, 42, 0
1, 105600, Note_on_c, 9, 42, 114
1, 105600, Note_on_c, 9, 35, 121
1, 105719, Note_on_c, 9, 42, 0
1, 105720, Note_on_c, 9, 42, 54
1, 105839, Note_on_c, 9, 42, 0
1, 105840, Note_on_c, 9, 42, 114
1, 105959, Note_on_c, 9, 42, 0
1, 105960, Note_on_c, 9, 42, 54
1, 106079, Note_on_c, 9, 35, 0
1, 106079, Note_on_c, 9, 42, 0
1, 106080, Note_on_c, 9, 38, 114
1, 106080, Note_on_c, 9, 39, 114
1, 106080, Note_on_c, 9, 42, 114
1, 106199, Note_on_c, 9, 38, 0
1, 106199, Note_on_c, 9, 39, 0
1, 106199, Note_on_c, 9, 42, 0
1, 106200, Note_on_c, 9, 42, 54
1, 106319, Note_on_c, 9, 42, 0
1, 106320, Note_on_c, 9, 42, 114
1, 106320, Note_on_c, 9, 35, 121
1, 106439, Note_on_c, 9, 42, 0
1, 106440, Note_on_c, 9, 42, 54
1, 106559, Note_on_c, 9, 35, 0
1, 106559, Note_on_c, 9, 42, 0
1, 106560, Note_on_c, 9, 49, 104
1, 106560, Note_on_c, 9, 35, 121
1, 107039, Note_on_c, 9, 49, 0
1, 107039, Note_on_c, 9, 35, 0
1, 107040, Note_on_c, 9, 44, 114
1, 107519, Note_on_c, 9, 44, 0
1, 107520, Time_signature, 2, 2, 24, 8
1, 108000, Note_on_c, 9, 44, 114
1, 108479, Note_on_c, 9, 44, 0
1, 108480, Time_signature, 4, 2, 24, 8
1, 108480, Note_on_c, 9, 51, 114
1, 108959, Note_on_c, 9, 51, 0
1, 108960, Note_on_c, 9, 44, 114
1, 109439, Note_on_c, 9, 44, 0
1, 109440, Note_on_c, 9, 59, 114
1, 109919, Note_on_c, 9, 59, 0
1, 112320, Note_on_c, 9, 51, 114
1, 112799, Note_on_c, 9, 51, 0
1, 112800, Note_on_c, 9, 44, 114
1, 113279, Note_on_c, 9, 44, 0
1, 113280, Note_on_c, 9, 59, 114
1, 113759, Note_on_c, 9, 59, 0
1, 113760, Note_on_c, 9, 44, 114
1, 114239, Note_on_c, 9, 44, 0
1, 114240, Tempo, 909091
1, 114240, Note_on_c, 9, 51, 114
1, 114300, Tempo, 952381
1, 114360, Tempo, 1000000
1, 114420, Tempo, 1034483
1, 114480, Tempo, 1071429
1, 114540, Tempo, 1090909
1, 114600, Tempo, 1111111
1, 114660, Tempo, 1132075
1, 114719, Note_on_c, 9, 51, 0
1, 114720, Tempo, 1153846
1, 114780, Tempo, 1176471
1, 114840, Tempo, 1200000
1, 114960, Tempo, 1224490
1, 115080, Tempo, 1250000
1, 115140, Tempo, 1276596
1, 115260, Tempo, 1304348
1, 115380, Tempo, 1333333
1, 115500, Tempo, 1363636
1, 115620, Tempo, 1395349
1, 115740, Tempo, 1428571
1, 115860, Tempo, 1463415
1, 115980, Tempo, 1500000
1, 116100, Tempo, 1538462
1, 116101, End_track
0, 0, End_of_file
