0, 0, Header, 1, 1, 480
1, 0, Start_track
1, 0, Time_signature, 4, 2, 24, 8
1, 0, Key_signature, 0, "major"
1, 0, Tempo, 923077
1, 0, Control_c, 9, 121, 0
1, 0, Program_c, 9, 0
1, 0, Control_c, 9, 7, 114
1, 0, Control_c, 9, 10, 64
1, 0, Control_c, 9, 91, 0
1, 0, Control_c, 9, 93, 0
1, 0, MIDI_port, 0
1, 3840, Note_on_c, 9, 42, 70
1, 4319, Note_on_c, 9, 42, 0
1, 4320, Note_on_c, 9, 42, 70
1, 4799, Note_on_c, 9, 42, 0
1, 4800, Note_on_c, 9, 42, 70
1, 5279, Note_on_c, 9, 42, 0
1, 5280, Note_on_c, 9, 42, 70
1, 5759, Note_on_c, 9, 42, 0
1, 5760, Note_on_c, 9, 51, 116
1, 5760, Note_on_c, 9, 35, 104
1, 5999, Note_on_c, 9, 35, 0
1, 6080, Note_on_c, 9, 35, 51
1, 6119, Note_on_c, 9, 35, 0
1, 6239, Note_on_c, 9, 51, 0
1, 6240, Note_on_c, 9, 37, 116
1, 6240, Note_on_c, 9, 42, 70
1, 6560, Note_on_c, 9, 35, 51
1, 6599, Note_on_c, 9, 35, 0
1, 6719, Note_on_c, 9, 37, 0
1, 6719, Note_on_c, 9, 42, 0
1, 6720, Note_on_c, 9, 42, 70
1, 7199, Note_on_c, 9, 42, 0
1, 7200, Note_on_c, 9, 37, 116
1, 7200, Note_on_c, 9, 42, 70
1, 7520, Note_on_c, 9, 35, 51
1, 7559, Note_on_c, 9, 35, 0
1, 7679, Note_on_c, 9, 37, 0
1, 7679, Note_on_c, 9, 42, 0
1, 7680, Note_on_c, 9, 42, 70
1, 7680, Note_on_c, 9, 35, 72
1, 7919, Note_on_c, 9, 35, 0
1, 8000, Note_on_c, 9, 35, 60
1, 8039, Note_on_c, 9, 35, 0
1, 8159, Note_on_c, 9, 42, 0
1, 8160, Note_on_c, 9, 37, 100
1, 8160, Note_on_c, 9, 42, 70
1, 8480, Note_on_c, 9, 35, 72
1, 8519, Note_on_c, 9, 35, 0
1, 8639, Note_on_c, 9, 37, 0
1, 8639, Note_on_c, 9, 42, 0
1, 8640, Note_on_c, 9, 42, 70
1, 9119, Note_on_c, 9, 42, 0
1, 9120, Note_on_c, 9, 37, 100
1, 9120, Note_on_c, 9, 42, 70
1, 9440, Note_on_c, 9, 35, 24
1, 9479, Note_on_c, 9, 35, 0
1, 9599, Note_on_c, 9, 37, 0
1, 9599, Note_on_c, 9, 42, 0
1, 9600, Note_on_c, 9, 42, 70
1, 9600, Note_on_c, 9, 35, 104
1, 9839, Note_on_c, 9, 35, 0
1, 9920, Note_on_c, 9, 35, 39
1, 9959, Note_on_c, 9, 35, 0
1, 10079, Note_on_c, 9, 42, 0
1, 10080, Note_on_c, 9, 37, 116
1, 10080, Note_on_c, 9, 42, 70
1, 10400, Note_on_c, 9, 35, 72
1, 10439, Note_on_c, 9, 35, 0
1, 10559, Note_on_c, 9, 37, 0
1, 10559, Note_on_c, 9, 42, 0
1, 10560, Note_on_c, 9, 42, 70
1, 11039, Note_on_c, 9, 42, 0
1, 11040, Note_on_c, 9, 37, 116
1, 11040, Note_on_c, 9, 42, 70
1, 11360, Note_on_c, 9, 35, 44
1, 11399, Note_on_c, 9, 35, 0
1, 11519, Note_on_c, 9, 37, 0
1, 11519, Note_on_c, 9, 42, 0
1, 11520, Note_on_c, 9, 42, 70
1, 11520, Note_on_c, 9, 35, 87
1, 11759, Note_on_c, 9, 35, 0
1, 11840, Note_on_c, 9, 35, 51
1, 11879, Note_on_c, 9, 35, 0
1, 11999, Note_on_c, 9, 42, 0
1, 12000, Note_on_c, 9, 37, 116
1, 12000, Note_on_c, 9, 42, 70
1, 12320, Note_on_c, 9, 35, 104
1, 12359, Note_on_c, 9, 35, 0
1, 12479, Note_on_c, 9, 37, 0
1, 12479, Note_on_c, 9, 42, 0
1, 12480, Note_on_c, 9, 42, 70
1, 12959, Note_on_c, 9, 42, 0
1, 12960, Note_on_c, 9, 37, 100
1, 12960, Note_on_c, 9, 42, 70
1, 13280, Note_on_c, 9, 35, 60
1, 13319, Note_on_c, 9, 35, 0
1, 13439, Note_on_c, 9, 37, 0
1, 13439, Note_on_c, 9, 42, 0
1, 13440, Note_on_c, 9, 51, 116
1, 13440, Note_on_c, 9, 35, 104
1, 13679, Note_on_c, 9, 35, 0
1, 13760, Note_on_c, 9, 35, 51
1, 13799, Note_on_c, 9, 35, 0
1, 13919, Note_on_c, 9, 51, 0
1, 13920, Note_on_c, 9, 37, 116
1, 13920, Note_on_c, 9, 42, 70
1, 14240, Note_on_c, 9, 35, 51
1, 14279, Note_on_c, 9, 35, 0
1, 14399, Note_on_c, 9, 37, 0
1, 14399, Note_on_c, 9, 42, 0
1, 14400, Note_on_c, 9, 42, 70
1, 14879, Note_on_c, 9, 42, 0
1, 14880, Note_on_c, 9, 37, 116
1, 14880, Note_on_c, 9, 42, 70
1, 15200, Note_on_c, 9, 35, 51
1, 15239, Note_on_c, 9, 35, 0
1, 15359, Note_on_c, 9, 37, 0
1, 15359, Note_on_c, 9, 42, 0
1, 15360, Note_on_c, 9, 42, 70
1, 15360, Note_on_c, 9, 35, 72
1, 15599, Note_on_c, 9, 35, 0
1, 15680, Note_on_c, 9, 35, 60
1, 15719, Note_on_c, 9, 35, 0
1, 15839, Note_on_c, 9, 42, 0
1, 15840, Note_on_c, 9, 37, 100
1, 15840, Note_on_c, 9, 42, 70
1, 16160, Note_on_c, 9, 35, 72
1, 16199, Note_on_c, 9, 35, 0
1, 16319, Note_on_c, 9, 37, 0
1, 16319, Note_on_c, 9, 42, 0
1, 16320, Note_on_c, 9, 42, 70
1, 16799, Note_on_c, 9, 42, 0
1, 16800, Note_on_c, 9, 37, 100
1, 16800, Note_on_c, 9, 42, 70
1, 17120, Note_on_c, 9, 35, 24
1, 17159, Note_on_c, 9, 35, 0
1, 17279, Note_on_c, 9, 37, 0
1, 17279, Note_on_c, 9, 42, 0
1, 17280, Note_on_c, 9, 42, 70
1, 17280, Note_on_c, 9, 35, 104
1, 17519, Note_on_c, 9, 35, 0
1, 17600, Note_on_c, 9, 35, 39
1, 17639, Note_on_c, 9, 35, 0
1, 17759, Note_on_c, 9, 42, 0
1, 17760, Note_on_c, 9, 37, 116
1, 17760, Note_on_c, 9, 42, 70
1, 18080, Note_on_c, 9, 35, 72
1, 18119, Note_on_c, 9, 35, 0
1, 18239, Note_on_c, 9, 37, 0
1, 18239, Note_on_c, 9, 42, 0
1, 18240, Note_on_c, 9, 42, 70
1, 18719, Note_on_c, 9, 42, 0
1, 18720, Note_on_c, 9, 37, 116
1, 18720, Note_on_c, 9, 42, 70
1, 19040, Note_on_c, 9, 35, 44
1, 19079, Note_on_c, 9, 35, 0
1, 19199, Note_on_c, 9, 37, 0
1, 19199, Note_on_c, 9, 42, 0
1, 19200, Note_on_c, 9, 42, 70
1, 19200, Note_on_c, 9, 35, 87
1, 19439, Note_on_c, 9, 35, 0
1, 19520, Note_on_c, 9, 35, 51
1, 19559, Note_on_c, 9, 35, 0
1, 19679, Note_on_c, 9, 42, 0
1, 19680, Note_on_c, 9, 37, 116
1, 19680, Note_on_c, 9, 42, 70
1, 20000, Note_on_c, 9, 35, 104
1, 20039, Note_on_c, 9, 35, 0
1, 20159, Note_on_c, 9, 37, 0
1, 20159, Note_on_c, 9, 42, 0
1, 20160, Note_on_c, 9, 42, 70
1, 20639, Note_on_c, 9, 42, 0
1, 20640, Note_on_c, 9, 37, 100
1, 20640, Note_on_c, 9, 42, 70
1, 20960, Note_on_c, 9, 35, 60
1, 20999, Note_on_c, 9, 35, 0
1, 21119, Note_on_c, 9, 37, 0
1, 21119, Note_on_c, 9, 42, 0
1, 21120, Note_on_c, 9, 51, 116
1, 21120, Note_on_c, 9, 35, 104
1, 21359, Note_on_c, 9, 35, 0
1, 21440, Note_on_c, 9, 35, 51
1, 21479, Note_on_c, 9, 35, 0
1, 21599, Note_on_c, 9, 51, 0
1, 21600, Note_on_c, 9, 37, 116
1, 21600, Note_on_c, 9, 42, 70
1, 21920, Note_on_c, 9, 35, 51
1, 21959, Note_on_c, 9, 35, 0
1, 22079, Note_on_c, 9, 37, 0
1, 22079, Note_on_c, 9, 42, 0
1, 22080, Note_on_c, 9, 42, 70
1, 22559, Note_on_c, 9, 42, 0
1, 22560, Note_on_c, 9, 37, 116
1, 22560, Note_on_c, 9, 42, 70
1, 22880, Note_on_c, 9, 35, 51
1, 22919, Note_on_c, 9, 35, 0
1, 23039, Note_on_c, 9, 37, 0
1, 23039, Note_on_c, 9, 42, 0
1, 23040, Note_on_c, 9, 42, 70
1, 23040, Note_on_c, 9, 35, 72
1, 23279, Note_on_c, 9, 35, 0
1, 23360, Note_on_c, 9, 35, 60
1, 23399, Note_on_c, 9, 35, 0
1, 23519, Note_on_c, 9, 42, 0
1, 23520, Note_on_c, 9, 37, 100
1, 23520, Note_on_c, 9, 42, 70
1, 23840, Note_on_c, 9, 35, 72
1, 23879, Note_on_c, 9, 35, 0
1, 23999, Note_on_c, 9, 37, 0
1, 23999, Note_on_c, 9, 42, 0
1, 24000, Note_on_c, 9, 42, 70
1, 24479, Note_on_c, 9, 42, 0
1, 24480, Note_on_c, 9, 37, 100
1, 24480, Note_on_c, 9, 42, 70
1, 24800, Note_on_c, 9, 35, 24
1, 24839, Note_on_c, 9, 35, 0
1, 24959, Note_on_c, 9, 37, 0
1, 24959, Note_on_c, 9, 42, 0
1, 24960, Note_on_c, 9, 42, 70
1, 24960, Note_on_c, 9, 35, 104
1, 25199, Note_on_c, 9, 35, 0
1, 25280, Note_on_c, 9, 35, 39
1, 25319, Note_on_c, 9, 35, 0
1, 25439, Note_on_c, 9, 42, 0
1, 25440, Note_on_c, 9, 37, 116
1, 25440, Note_on_c, 9, 42, 70
1, 25760, Note_on_c, 9, 35, 72
1, 25799, Note_on_c, 9, 35, 0
1, 25919, Note_on_c, 9, 37, 0
1, 25919, Note_on_c, 9, 42, 0
1, 25920, Note_on_c, 9, 42, 70
1, 26399, Note_on_c, 9, 42, 0
1, 26400, Note_on_c, 9, 37, 116
1, 26400, Note_on_c, 9, 42, 70
1, 26720, Note_on_c, 9, 35, 44
1, 26759, Note_on_c, 9, 35, 0
1, 26879, Note_on_c, 9, 37, 0
1, 26879, Note_on_c, 9, 42, 0
1, 26880, Note_on_c, 9, 42, 70
1, 26880, Note_on_c, 9, 35, 87
1, 27119, Note_on_c, 9, 35, 0
1, 27200, Note_on_c, 9, 35, 51
1, 27239, Note_on_c, 9, 35, 0
1, 27359, Note_on_c, 9, 42, 0
1, 27360, Note_on_c, 9, 37, 116
1, 27360, Note_on_c, 9, 42, 70
1, 27680, Note_on_c, 9, 35, 104
1, 27719, Note_on_c, 9, 35, 0
1, 27839, Note_on_c, 9, 37, 0
1, 27839, Note_on_c, 9, 42, 0
1, 27840, Note_on_c, 9, 42, 70
1, 28319, Note_on_c, 9, 42, 0
1, 28320, Note_on_c, 9, 37, 100
1, 28320, Note_on_c, 9, 42, 70
1, 28640, Note_on_c, 9, 35, 60
1, 28679, Note_on_c, 9, 35, 0
1, 28799, Note_on_c, 9, 37, 0
1, 28799, Note_on_c, 9, 42, 0
1, 28800, Note_on_c, 9, 51, 116
1, 28800, Note_on_c, 9, 35, 104
1, 29039, Note_on_c, 9, 35, 0
1, 29120, Note_on_c, 9, 35, 51
1, 29159, Note_on_c, 9, 35, 0
1, 29279, Note_on_c, 9, 51, 0
1, 29280, Note_on_c, 9, 37, 116
1, 29280, Note_on_c, 9, 42, 70
1, 29600, Note_on_c, 9, 35, 51
1, 29639, Note_on_c, 9, 35, 0
1, 29759, Note_on_c, 9, 37, 0
1, 29759, Note_on_c, 9, 42, 0
1, 29760, Note_on_c, 9, 42, 70
1, 30239, Note_on_c, 9, 42, 0
1, 30240, Note_on_c, 9, 37, 116
1, 30240, Note_on_c, 9, 42, 70
1, 30560, Note_on_c, 9, 35, 51
1, 30599, Note_on_c, 9, 35, 0
1, 30719, Note_on_c, 9, 37, 0
1, 30719, Note_on_c, 9, 42, 0
1, 30720, Note_on_c, 9, 42, 70
1, 30720, Note_on_c, 9, 35, 72
1, 30959, Note_on_c, 9, 35, 0
1, 31040, Note_on_c, 9, 35, 60
1, 31079, Note_on_c, 9, 35, 0
1, 31199, Note_on_c, 9, 42, 0
1, 31200, Note_on_c, 9, 37, 100
1, 31200, Note_on_c, 9, 42, 70
1, 31520, Note_on_c, 9, 35, 72
1, 31559, Note_on_c, 9, 35, 0
1, 31679, Note_on_c, 9, 37, 0
1, 31679, Note_on_c, 9, 42, 0
1, 31680, Note_on_c, 9, 42, 70
1, 32159, Note_on_c, 9, 42, 0
1, 32160, Note_on_c, 9, 37, 100
1, 32160, Note_on_c, 9, 42, 70
1, 32480, Note_on_c, 9, 35, 24
1, 32519, Note_on_c, 9, 35, 0
1, 32639, Note_on_c, 9, 37, 0
1, 32639, Note_on_c, 9, 42, 0
1, 32640, Note_on_c, 9, 42, 70
1, 32640, Note_on_c, 9, 35, 104
1, 32879, Note_on_c, 9, 35, 0
1, 32960, Note_on_c, 9, 35, 39
1, 32999, Note_on_c, 9, 35, 0
1, 33119, Note_on_c, 9, 42, 0
1, 33120, Note_on_c, 9, 37, 116
1, 33120, Note_on_c, 9, 42, 70
1, 33440, Note_on_c, 9, 35, 72
1, 33479, Note_on_c, 9, 35, 0
1, 33599, Note_on_c, 9, 37, 0
1, 33599, Note_on_c, 9, 42, 0
1, 33600, Note_on_c, 9, 42, 70
1, 34079, Note_on_c, 9, 42, 0
1, 34080, Note_on_c, 9, 37, 116
1, 34080, Note_on_c, 9, 42, 70
1, 34400, Note_on_c, 9, 35, 44
1, 34439, Note_on_c, 9, 35, 0
1, 34559, Note_on_c, 9, 37, 0
1, 34559, Note_on_c, 9, 42, 0
1, 34560, Note_on_c, 9, 42, 70
1, 34560, Note_on_c, 9, 35, 87
1, 34799, Note_on_c, 9, 35, 0
1, 34880, Note_on_c, 9, 35, 51
1, 34919, Note_on_c, 9, 35, 0
1, 35039, Note_on_c, 9, 42, 0
1, 35040, Note_on_c, 9, 37, 116
1, 35040, Note_on_c, 9, 42, 70
1, 35360, Note_on_c, 9, 35, 104
1, 35399, Note_on_c, 9, 35, 0
1, 35519, Note_on_c, 9, 37, 0
1, 35519, Note_on_c, 9, 42, 0
1, 35520, Note_on_c, 9, 42, 70
1, 35999, Note_on_c, 9, 42, 0
1, 36000, Note_on_c, 9, 37, 100
1, 36000, Note_on_c, 9, 42, 70
1, 36320, Note_on_c, 9, 35, 60
1, 36359, Note_on_c, 9, 35, 0
1, 36479, Note_on_c, 9, 37, 0
1, 36479, Note_on_c, 9, 42, 0
1, 36480, Note_on_c, 9, 42, 70
1, 36480, Note_on_c, 9, 35, 87
1, 36719, Note_on_c, 9, 35, 0
1, 36800, Note_on_c, 9, 35, 51
1, 36839, Note_on_c, 9, 35, 0
1, 36959, Note_on_c, 9, 42, 0
1, 36960, Note_on_c, 9, 37, 116
1, 36960, Note_on_c, 9, 42, 70
1, 37280, Note_on_c, 9, 35, 104
1, 37319, Note_on_c, 9, 35, 0
1, 37439, Note_on_c, 9, 37, 0
1, 37439, Note_on_c, 9, 42, 0
1, 37440, Note_on_c, 9, 42, 70
1, 37919, Note_on_c, 9, 42, 0
1, 37920, Note_on_c, 9, 37, 100
1, 37920, Note_on_c, 9, 42, 70
1, 38240, Note_on_c, 9, 35, 60
1, 38279, Note_on_c, 9, 35, 0
1, 38399, Note_on_c, 9, 37, 0
1, 38399, Note_on_c, 9, 42, 0
1, 38400, Note_on_c, 9, 51, 116
1, 38400, Note_on_c, 9, 35, 104
1, 38639, Note_on_c, 9, 35, 0
1, 38720, Note_on_c, 9, 35, 51
1, 38759, Note_on_c, 9, 35, 0
1, 38879, Note_on_c, 9, 51, 0
1, 38880, Note_on_c, 9, 37, 116
1, 38880, Note_on_c, 9, 42, 70
1, 39200, Note_on_c, 9, 35, 51
1, 39239, Note_on_c, 9, 35, 0
1, 39359, Note_on_c, 9, 37, 0
1, 39359, Note_on_c, 9, 42, 0
1, 39360, Note_on_c, 9, 42, 70
1, 39839, Note_on_c, 9, 42, 0
1, 39840, Note_on_c, 9, 37, 116
1, 39840, Note_on_c, 9, 42, 70
1, 40160, Note_on_c, 9, 35, 51
1, 40199, Note_on_c, 9, 35, 0
1, 40319, Note_on_c, 9, 37, 0
1, 40319, Note_on_c, 9, 42, 0
1, 40320, Note_on_c, 9, 42, 70
1, 40320, Note_on_c, 9, 35, 72
1, 40559, Note_on_c, 9, 35, 0
1, 40640, Note_on_c, 9, 35, 60
1, 40679, Note_on_c, 9, 35, 0
1, 40799, Note_on_c, 9, 42, 0
1, 40800, Note_on_c, 9, 37, 100
1, 40800, Note_on_c, 9, 42, 70
1, 41120, Note_on_c, 9, 35, 72
1, 41159, Note_on_c, 9, 35, 0
1, 41279, Note_on_c, 9, 37, 0
1, 41279, Note_on_c, 9, 42, 0
1, 41280, Note_on_c, 9, 42, 70
1, 41759, Note_on_c, 9, 42, 0
1, 41760, Note_on_c, 9, 37, 100
1, 41760, Note_on_c, 9, 42, 70
1, 42080, Note_on_c, 9, 35, 24
1, 42119, Note_on_c, 9, 35, 0
1, 42239, Note_on_c, 9, 37, 0
1, 42239, Note_on_c, 9, 42, 0
1, 42240, Note_on_c, 9, 42, 70
1, 42240, Note_on_c, 9, 35, 104
1, 42479, Note_on_c, 9, 35, 0
1, 42560, Note_on_c, 9, 35, 39
1, 42599, Note_on_c, 9, 35, 0
1, 42719, Note_on_c, 9, 42, 0
1, 42720, Note_on_c, 9, 37, 116
1, 42720, Note_on_c, 9, 42, 70
1, 43040, Note_on_c, 9, 35, 72
1, 43079, Note_on_c, 9, 35, 0
1, 43199, Note_on_c, 9, 37, 0
1, 43199, Note_on_c, 9, 42, 0
1, 43200, Note_on_c, 9, 42, 70
1, 43679, Note_on_c, 9, 42, 0
1, 43680, Note_on_c, 9, 37, 116
1, 43680, Note_on_c, 9, 42, 70
1, 44000, Note_on_c, 9, 35, 44
1, 44039, Note_on_c, 9, 35, 0
1, 44159, Note_on_c, 9, 37, 0
1, 44159, Note_on_c, 9, 42, 0
1, 44160, Note_on_c, 9, 42, 70
1, 44160, Note_on_c, 9, 35, 87
1, 44399, Note_on_c, 9, 35, 0
1, 44480, Note_on_c, 9, 35, 51
1, 44519, Note_on_c, 9, 35, 0
1, 44639, Note_on_c, 9, 42, 0
1, 44640, Note_on_c, 9, 37, 116
1, 44640, Note_on_c, 9, 42, 70
1, 44879, Note_on_c, 9, 37, 0
1, 44879, Note_on_c, 9, 42, 0
1, 44960, Note_on_c, 9, 45, 93
1, 44999, Note_on_c, 9, 45, 0
1, 45120, Note_on_c, 9, 45, 110
1, 45359, Note_on_c, 9, 45, 0
1, 45440, Note_on_c, 9, 57, 110
1, 45440, Note_on_c, 9, 35, 102
1, 45479, Note_on_c, 9, 57, 0
1, 45479, Note_on_c, 9, 35, 0
1, 45600, Note_on_c, 9, 37, 100
1, 46079, Note_on_c, 9, 37, 0
1, 46080, Note_on_c, 9, 51, 116
1, 46080, Note_on_c, 9, 35, 104
1, 46319, Note_on_c, 9, 35, 0
1, 46400, Note_on_c, 9, 35, 51
1, 46439, Note_on_c, 9, 35, 0
1, 46559, Note_on_c, 9, 51, 0
1, 46560, Note_on_c, 9, 37, 116
1, 46560, Note_on_c, 9, 42, 70
1, 46880, Note_on_c, 9, 35, 51
1, 46919, Note_on_c, 9, 35, 0
1, 47039, Note_on_c, 9, 37, 0
1, 47039, Note_on_c, 9, 42, 0
1, 47040, Note_on_c, 9, 42, 70
1, 47519, Note_on_c, 9, 42, 0
1, 47520, Note_on_c, 9, 37, 116
1, 47520, Note_on_c, 9, 42, 70
1, 47840, Note_on_c, 9, 35, 51
1, 47879, Note_on_c, 9, 35, 0
1, 47999, Note_on_c, 9, 37, 0
1, 47999, Note_on_c, 9, 42, 0
1, 48000, Note_on_c, 9, 42, 70
1, 48000, Note_on_c, 9, 35, 72
1, 48239, Note_on_c, 9, 35, 0
1, 48320, Note_on_c, 9, 35, 60
1, 48359, Note_on_c, 9, 35, 0
1, 48479, Note_on_c, 9, 42, 0
1, 48480, Note_on_c, 9, 37, 100
1, 48480, Note_on_c, 9, 42, 70
1, 48800, Note_on_c, 9, 35, 72
1, 48839, Note_on_c, 9, 35, 0
1, 48959, Note_on_c, 9, 37, 0
1, 48959, Note_on_c, 9, 42, 0
1, 48960, Note_on_c, 9, 42, 70
1, 49439, Note_on_c, 9, 42, 0
1, 49440, Note_on_c, 9, 37, 100
1, 49440, Note_on_c, 9, 42, 70
1, 49760, Note_on_c, 9, 35, 24
1, 49799, Note_on_c, 9, 35, 0
1, 49919, Note_on_c, 9, 37, 0
1, 49919, Note_on_c, 9, 42, 0
1, 49920, Note_on_c, 9, 49, 71
1, 49920, Note_on_c, 9, 35, 72
1, 50039, Note_on_c, 9, 49, 0
1, 50080, Note_on_c, 9, 51, 61
1, 50099, Note_on_c, 9, 51, 0
1, 50159, Note_on_c, 9, 35, 0
1, 50240, Note_on_c, 9, 51, 40
1, 50240, Note_on_c, 9, 35, 51
1, 50279, Note_on_c, 9, 51, 0
1, 50279, Note_on_c, 9, 35, 0
1, 50400, Note_on_c, 9, 37, 83
1, 50400, Note_on_c, 9, 51, 71
1, 50519, Note_on_c, 9, 37, 0
1, 50519, Note_on_c, 9, 51, 0
1, 50560, Note_on_c, 9, 51, 40
1, 50579, Note_on_c, 9, 51, 0
1, 50720, Note_on_c, 9, 51, 44
1, 50720, Note_on_c, 9, 35, 60
1, 50759, Note_on_c, 9, 51, 0
1, 50759, Note_on_c, 9, 35, 0
1, 50880, Note_on_c, 9, 51, 71
1, 50880, Note_on_c, 9, 35, 104
1, 50999, Note_on_c, 9, 51, 0
1, 51040, Note_on_c, 9, 51, 29
1, 51059, Note_on_c, 9, 51, 0
1, 51200, Note_on_c, 9, 51, 54
1, 51239, Note_on_c, 9, 51, 0
1, 51359, Note_on_c, 9, 35, 0
1, 51360, Note_on_c, 9, 37, 116
1, 51360, Note_on_c, 9, 51, 83
1, 51479, Note_on_c, 9, 37, 0
1, 51479, Note_on_c, 9, 51, 0
1, 51520, Note_on_c, 9, 51, 36
1, 51539, Note_on_c, 9, 51, 0
1, 51680, Note_on_c, 9, 51, 44
1, 51719, Note_on_c, 9, 51, 0
1, 51840, Note_on_c, 9, 51, 83
1, 51840, Note_on_c, 9, 35, 104
1, 51959, Note_on_c, 9, 51, 0
1, 52000, Note_on_c, 9, 51, 48
1, 52019, Note_on_c, 9, 51, 0
1, 52160, Note_on_c, 9, 51, 40
1, 52199, Note_on_c, 9, 51, 0
1, 52319, Note_on_c, 9, 35, 0
1, 52320, Note_on_c, 9, 37, 116
1, 52320, Note_on_c, 9, 51, 83
1, 52439, Note_on_c, 9, 37, 0
1, 52439, Note_on_c, 9, 51, 0
1, 52480, Note_on_c, 9, 51, 71
1, 52499, Note_on_c, 9, 51, 0
1, 52640, Note_on_c, 9, 35, 88
1, 52679, Note_on_c, 9, 35, 0
1, 52800, Note_on_c, 9, 38, 124
1, 53279, Note_on_c, 9, 38, 0
1, 53280, Note_on_c, 9, 42, 70
1, 53759, Note_on_c, 9, 42, 0
1, 54240, Note_on_c, 9, 42, 70
1, 54719, Note_on_c, 9, 42, 0
1, 55200, Note_on_c, 9, 42, 70
1, 55679, Note_on_c, 9, 42, 0
1, 55680, Note_on_c, 9, 51, 116
1, 55680, Note_on_c, 9, 35, 104
1, 55919, Note_on_c, 9, 35, 0
1, 56000, Note_on_c, 9, 35, 51
1, 56039, Note_on_c, 9, 35, 0
1, 56159, Note_on_c, 9, 51, 0
1, 56160, Note_on_c, 9, 37, 116
1, 56160, Note_on_c, 9, 42, 70
1, 56480, Note_on_c, 9, 35, 51
1, 56519, Note_on_c, 9, 35, 0
1, 56639, Note_on_c, 9, 37, 0
1, 56639, Note_on_c, 9, 42, 0
1, 56640, Note_on_c, 9, 42, 70
1, 57119, Note_on_c, 9, 42, 0
1, 57120, Note_on_c, 9, 37, 116
1, 57120, Note_on_c, 9, 42, 70
1, 57440, Note_on_c, 9, 35, 51
1, 57479, Note_on_c, 9, 35, 0
1, 57599, Note_on_c, 9, 37, 0
1, 57599, Note_on_c, 9, 42, 0
1, 57600, Note_on_c, 9, 42, 70
1, 57600, Note_on_c, 9, 35, 72
1, 57839, Note_on_c, 9, 35, 0
1, 57920, Note_on_c, 9, 35, 60
1, 57959, Note_on_c, 9, 35, 0
1, 58079, Note_on_c, 9, 42, 0
1, 58080, Note_on_c, 9, 37, 100
1, 58080, Note_on_c, 9, 42, 70
1, 58400, Note_on_c, 9, 35, 72
1, 58439, Note_on_c, 9, 35, 0
1, 58559, Note_on_c, 9, 37, 0
1, 58559, Note_on_c, 9, 42, 0
1, 58560, Note_on_c, 9, 42, 70
1, 59039, Note_on_c, 9, 42, 0
1, 59040, Note_on_c, 9, 37, 100
1, 59040, Note_on_c, 9, 42, 70
1, 59360, Note_on_c, 9, 35, 24
1, 59399, Note_on_c, 9, 35, 0
1, 59519, Note_on_c, 9, 37, 0
1, 59519, Note_on_c, 9, 42, 0
1, 59520, Note_on_c, 9, 42, 70
1, 59520, Note_on_c, 9, 35, 104
1, 59759, Note_on_c, 9, 35, 0
1, 59840, Note_on_c, 9, 35, 39
1, 59879, Note_on_c, 9, 35, 0
1, 59999, Note_on_c, 9, 42, 0
1, 60000, Note_on_c, 9, 37, 116
1, 60000, Note_on_c, 9, 42, 70
1, 60320, Note_on_c, 9, 35, 72
1, 60359, Note_on_c, 9, 35, 0
1, 60479, Note_on_c, 9, 37, 0
1, 60479, Note_on_c, 9, 42, 0
1, 60480, Note_on_c, 9, 42, 70
1, 60959, Note_on_c, 9, 42, 0
1, 60960, Note_on_c, 9, 37, 116
1, 60960, Note_on_c, 9, 42, 70
1, 61280, Note_on_c, 9, 35, 44
1, 61319, Note_on_c, 9, 35, 0
1, 61439, Note_on_c, 9, 37, 0
1, 61439, Note_on_c, 9, 42, 0
1, 61440, Note_on_c, 9, 42, 70
1, 61440, Note_on_c, 9, 35, 87
1, 61679, Note_on_c, 9, 35, 0
1, 61760, Note_on_c, 9, 35, 51
1, 61799, Note_on_c, 9, 35, 0
1, 61919, Note_on_c, 9, 42, 0
1, 61920, Note_on_c, 9, 37, 116
1, 61920, Note_on_c, 9, 42, 70
1, 62240, Note_on_c, 9, 35, 104
1, 62279, Note_on_c, 9, 35, 0
1, 62399, Note_on_c, 9, 37, 0
1, 62399, Note_on_c, 9, 42, 0
1, 62400, Note_on_c, 9, 42, 70
1, 62879, Note_on_c, 9, 42, 0
1, 62880, Note_on_c, 9, 37, 100
1, 62880, Note_on_c, 9, 42, 70
1, 63200, Note_on_c, 9, 35, 60
1, 63239, Note_on_c, 9, 35, 0
1, 63359, Note_on_c, 9, 37, 0
1, 63359, Note_on_c, 9, 42, 0
1, 63360, Note_on_c, 9, 51, 116
1, 63360, Note_on_c, 9, 35, 104
1, 63599, Note_on_c, 9, 35, 0
1, 63680, Note_on_c, 9, 35, 51
1, 63719, Note_on_c, 9, 35, 0
1, 63839, Note_on_c, 9, 51, 0
1, 63840, Note_on_c, 9, 37, 116
1, 63840, Note_on_c, 9, 42, 70
1, 64160, Note_on_c, 9, 35, 51
1, 64199, Note_on_c, 9, 35, 0
1, 64319, Note_on_c, 9, 37, 0
1, 64319, Note_on_c, 9, 42, 0
1, 64320, Note_on_c, 9, 42, 70
1, 64799, Note_on_c, 9, 42, 0
1, 64800, Note_on_c, 9, 37, 116
1, 64800, Note_on_c, 9, 42, 70
1, 65120, Note_on_c, 9, 35, 51
1, 65159, Note_on_c, 9, 35, 0
1, 65279, Note_on_c, 9, 37, 0
1, 65279, Note_on_c, 9, 42, 0
1, 65280, Note_on_c, 9, 42, 70
1, 65280, Note_on_c, 9, 35, 72
1, 65519, Note_on_c, 9, 35, 0
1, 65600, Note_on_c, 9, 35, 60
1, 65639, Note_on_c, 9, 35, 0
1, 65759, Note_on_c, 9, 42, 0
1, 65760, Note_on_c, 9, 37, 100
1, 65760, Note_on_c, 9, 42, 70
1, 66080, Note_on_c, 9, 35, 72
1, 66119, Note_on_c, 9, 35, 0
1, 66239, Note_on_c, 9, 37, 0
1, 66239, Note_on_c, 9, 42, 0
1, 66240, Note_on_c, 9, 42, 70
1, 66719, Note_on_c, 9, 42, 0
1, 66720, Note_on_c, 9, 37, 100
1, 66720, Note_on_c, 9, 42, 70
1, 67040, Note_on_c, 9, 35, 24
1, 67079, Note_on_c, 9, 35, 0
1, 67199, Note_on_c, 9, 37, 0
1, 67199, Note_on_c, 9, 42, 0
1, 67200, Note_on_c, 9, 42, 70
1, 67200, Note_on_c, 9, 35, 104
1, 67439, Note_on_c, 9, 35, 0
1, 67520, Note_on_c, 9, 35, 39
1, 67559, Note_on_c, 9, 35, 0
1, 67679, Note_on_c, 9, 42, 0
1, 67680, Note_on_c, 9, 37, 116
1, 67680, Note_on_c, 9, 42, 70
1, 68000, Note_on_c, 9, 35, 72
1, 68039, Note_on_c, 9, 35, 0
1, 68159, Note_on_c, 9, 37, 0
1, 68159, Note_on_c, 9, 42, 0
1, 68160, Note_on_c, 9, 42, 70
1, 68639, Note_on_c, 9, 42, 0
1, 68640, Note_on_c, 9, 37, 116
1, 68640, Note_on_c, 9, 42, 70
1, 68960, Note_on_c, 9, 35, 44
1, 68999, Note_on_c, 9, 35, 0
1, 69119, Note_on_c, 9, 37, 0
1, 69119, Note_on_c, 9, 42, 0
1, 69120, Note_on_c, 9, 42, 70
1, 69120, Note_on_c, 9, 35, 87
1, 69359, Note_on_c, 9, 35, 0
1, 69440, Note_on_c, 9, 35, 51
1, 69479, Note_on_c, 9, 35, 0
1, 69599, Note_on_c, 9, 42, 0
1, 69600, Note_on_c, 9, 37, 116
1, 69600, Note_on_c, 9, 42, 70
1, 69920, Note_on_c, 9, 35, 104
1, 69959, Note_on_c, 9, 35, 0
1, 70079, Note_on_c, 9, 37, 0
1, 70079, Note_on_c, 9, 42, 0
1, 70080, Note_on_c, 9, 42, 70
1, 70559, Note_on_c, 9, 42, 0
1, 70560, Note_on_c, 9, 37, 100
1, 70560, Note_on_c, 9, 42, 70
1, 70880, Note_on_c, 9, 35, 60
1, 70919, Note_on_c, 9, 35, 0
1, 71039, Note_on_c, 9, 37, 0
1, 71039, Note_on_c, 9, 42, 0
1, 71040, Note_on_c, 9, 42, 70
1, 71040, Note_on_c, 9, 35, 87
1, 71279, Note_on_c, 9, 35, 0
1, 71360, Note_on_c, 9, 35, 51
1, 71399, Note_on_c, 9, 35, 0
1, 71519, Note_on_c, 9, 42, 0
1, 71520, Note_on_c, 9, 37, 116
1, 71520, Note_on_c, 9, 42, 70
1, 71840, Note_on_c, 9, 35, 104
1, 71879, Note_on_c, 9, 35, 0
1, 71999, Note_on_c, 9, 37, 0
1, 71999, Note_on_c, 9, 42, 0
1, 72000, Note_on_c, 9, 42, 70
1, 72479, Note_on_c, 9, 42, 0
1, 72480, Note_on_c, 9, 37, 100
1, 72480, Note_on_c, 9, 42, 70
1, 72800, Note_on_c, 9, 35, 60
1, 72839, Note_on_c, 9, 35, 0
1, 72959, Note_on_c, 9, 37, 0
1, 72959, Note_on_c, 9, 42, 0
1, 72960, Note_on_c, 9, 51, 116
1, 72960, Note_on_c, 9, 35, 104
1, 73199, Note_on_c, 9, 35, 0
1, 73280, Note_on_c, 9, 35, 51
1, 73319, Note_on_c, 9, 35, 0
1, 73439, Note_on_c, 9, 51, 0
1, 73440, Note_on_c, 9, 37, 116
1, 73440, Note_on_c, 9, 42, 70
1, 73760, Note_on_c, 9, 35, 51
1, 73799, Note_on_c, 9, 35, 0
1, 73919, Note_on_c, 9, 37, 0
1, 73919, Note_on_c, 9, 42, 0
1, 73920, Note_on_c, 9, 42, 70
1, 74399, Note_on_c, 9, 42, 0
1, 74400, Note_on_c, 9, 37, 116
1, 74400, Note_on_c, 9, 42, 70
1, 74720, Note_on_c, 9, 35, 51
1, 74759, Note_on_c, 9, 35, 0
1, 74879, Note_on_c, 9, 37, 0
1, 74879, Note_on_c, 9, 42, 0
1, 74880, Note_on_c, 9, 42, 70
1, 74880, Note_on_c, 9, 35, 72
1, 75119, Note_on_c, 9, 35, 0
1, 75200, Note_on_c, 9, 35, 60
1, 75239, Note_on_c, 9, 35, 0
1, 75359, Note_on_c, 9, 42, 0
1, 75360, Note_on_c, 9, 37, 100
1, 75360, Note_on_c, 9, 42, 70
1, 75680, Note_on_c, 9, 35, 72
1, 75719, Note_on_c, 9, 35, 0
1, 75839, Note_on_c, 9, 37, 0
1, 75839, Note_on_c, 9, 42, 0
1, 75840, Note_on_c, 9, 42, 70
1, 76319, Note_on_c, 9, 42, 0
1, 76320, Note_on_c, 9, 37, 100
1, 76320, Note_on_c, 9, 42, 70
1, 76640, Note_on_c, 9, 35, 24
1, 76679, Note_on_c, 9, 35, 0
1, 76799, Note_on_c, 9, 37, 0
1, 76799, Note_on_c, 9, 42, 0
1, 76800, Note_on_c, 9, 42, 70
1, 76800, Note_on_c, 9, 35, 104
1, 77039, Note_on_c, 9, 35, 0
1, 77120, Note_on_c, 9, 35, 39
1, 77159, Note_on_c, 9, 35, 0
1, 77279, Note_on_c, 9, 42, 0
1, 77280, Note_on_c, 9, 37, 116
1, 77280, Note_on_c, 9, 42, 70
1, 77600, Note_on_c, 9, 35, 72
1, 77639, Note_on_c, 9, 35, 0
1, 77759, Note_on_c, 9, 37, 0
1, 77759, Note_on_c, 9, 42, 0
1, 77760, Note_on_c, 9, 42, 70
1, 78239, Note_on_c, 9, 42, 0
1, 78240, Note_on_c, 9, 37, 116
1, 78240, Note_on_c, 9, 42, 70
1, 78560, Note_on_c, 9, 35, 44
1, 78599, Note_on_c, 9, 35, 0
1, 78719, Note_on_c, 9, 37, 0
1, 78719, Note_on_c, 9, 42, 0
1, 78720, Note_on_c, 9, 42, 70
1, 78720, Note_on_c, 9, 35, 87
1, 78959, Note_on_c, 9, 35, 0
1, 79040, Note_on_c, 9, 35, 51
1, 79079, Note_on_c, 9, 35, 0
1, 79199, Note_on_c, 9, 42, 0
1, 79200, Note_on_c, 9, 37, 116
1, 79200, Note_on_c, 9, 42, 70
1, 79439, Note_on_c, 9, 37, 0
1, 79439, Note_on_c, 9, 42, 0
1, 79520, Note_on_c, 9, 45, 93
1, 79559, Note_on_c, 9, 45, 0
1, 79680, Note_on_c, 9, 45, 110
1, 79919, Note_on_c, 9, 45, 0
1, 80000, Note_on_c, 9, 57, 110
1, 80000, Note_on_c, 9, 35, 102
1, 80039, Note_on_c, 9, 57, 0
1, 80039, Note_on_c, 9, 35, 0
1, 80160, Note_on_c, 9, 37, 100
1, 80639, Note_on_c, 9, 37, 0
1, 80640, Note_on_c, 9, 51, 116
1, 80640, Note_on_c, 9, 35, 104
1, 80879, Note_on_c, 9, 35, 0
1, 80960, Note_on_c, 9, 35, 51
1, 80999, Note_on_c, 9, 35, 0
1, 81119, Note_on_c, 9, 51, 0
1, 81120, Note_on_c, 9, 37, 116
1, 81120, Note_on_c, 9, 42, 70
1, 81440, Note_on_c, 9, 35, 51
1, 81479, Note_on_c, 9, 35, 0
1, 81599, Note_on_c, 9, 37, 0
1, 81599, Note_on_c, 9, 42, 0
1, 81600, Note_on_c, 9, 42, 70
1, 82079, Note_on_c, 9, 42, 0
1, 82080, Note_on_c, 9, 37, 116
1, 82080, Note_on_c, 9, 42, 70
1, 82400, Note_on_c, 9, 35, 51
1, 82439, Note_on_c, 9, 35, 0
1, 82559, Note_on_c, 9, 37, 0
1, 82559, Note_on_c, 9, 42, 0
1, 82560, Note_on_c, 9, 42, 70
1, 82560, Note_on_c, 9, 35, 72
1, 82799, Note_on_c, 9, 35, 0
1, 82880, Note_on_c, 9, 35, 60
1, 82919, Note_on_c, 9, 35, 0
1, 83039, Note_on_c, 9, 42, 0
1, 83040, Note_on_c, 9, 37, 100
1, 83040, Note_on_c, 9, 42, 70
1, 83360, Note_on_c, 9, 35, 72
1, 83399, Note_on_c, 9, 35, 0
1, 83519, Note_on_c, 9, 37, 0
1, 83519, Note_on_c, 9, 42, 0
1, 83520, Note_on_c, 9, 42, 70
1, 83999, Note_on_c, 9, 42, 0
1, 84000, Note_on_c, 9, 37, 100
1, 84000, Note_on_c, 9, 42, 70
1, 84320, Note_on_c, 9, 35, 24
1, 84359, Note_on_c, 9, 35, 0
1, 84479, Note_on_c, 9, 37, 0
1, 84479, Note_on_c, 9, 42, 0
1, 84480, Note_on_c, 9, 49, 71
1, 84480, Note_on_c, 9, 35, 72
1, 84599, Note_on_c, 9, 49, 0
1, 84640, Note_on_c, 9, 51, 61
1, 84659, Note_on_c, 9, 51, 0
1, 84719, Note_on_c, 9, 35, 0
1, 84800, Note_on_c, 9, 51, 40
1, 84800, Note_on_c, 9, 35, 51
1, 84839, Note_on_c, 9, 51, 0
1, 84839, Note_on_c, 9, 35, 0
1, 84960, Note_on_c, 9, 37, 83
1, 84960, Note_on_c, 9, 51, 71
1, 85079, Note_on_c, 9, 37, 0
1, 85079, Note_on_c, 9, 51, 0
1, 85120, Note_on_c, 9, 51, 40
1, 85139, Note_on_c, 9, 51, 0
1, 85280, Note_on_c, 9, 51, 44
1, 85280, Note_on_c, 9, 35, 60
1, 85319, Note_on_c, 9, 51, 0
1, 85319, Note_on_c, 9, 35, 0
1, 85440, Note_on_c, 9, 51, 71
1, 85440, Note_on_c, 9, 35, 104
1, 85559, Note_on_c, 9, 51, 0
1, 85600, Note_on_c, 9, 51, 29
1, 85619, Note_on_c, 9, 51, 0
1, 85760, Note_on_c, 9, 51, 54
1, 85799, Note_on_c, 9, 51, 0
1, 85919, Note_on_c, 9, 35, 0
1, 85920, Note_on_c, 9, 37, 116
1, 85920, Note_on_c, 9, 51, 83
1, 86039, Note_on_c, 9, 37, 0
1, 86039, Note_on_c, 9, 51, 0
1, 86080, Note_on_c, 9, 51, 36
1, 86099, Note_on_c, 9, 51, 0
1, 86240, Note_on_c, 9, 51, 44
1, 86279, Note_on_c, 9, 51, 0
1, 86400, Note_on_c, 9, 51, 83
1, 86400, Note_on_c, 9, 35, 104
1, 86519, Note_on_c, 9, 51, 0
1, 86560, Note_on_c, 9, 51, 48
1, 86579, Note_on_c, 9, 51, 0
1, 86720, Note_on_c, 9, 51, 40
1, 86759, Note_on_c, 9, 51, 0
1, 86879, Note_on_c, 9, 35, 0
1, 86880, Note_on_c, 9, 37, 116
1, 86880, Note_on_c, 9, 51, 83
1, 86999, Note_on_c, 9, 37, 0
1, 86999, Note_on_c, 9, 51, 0
1, 87040, Note_on_c, 9, 51, 71
1, 87059, Note_on_c, 9, 51, 0
1, 87200, Note_on_c, 9, 35, 72
1, 87239, Note_on_c, 9, 35, 0
1, 87360, Note_on_c, 9, 38, 124
1, 87839, Note_on_c, 9, 38, 0
1, 87840, Note_on_c, 9, 42, 70
1, 88319, Note_on_c, 9, 42, 0
1, 88800, Note_on_c, 9, 42, 70
1, 89279, Note_on_c, 9, 42, 0
1, 89760, Note_on_c, 9, 42, 70
1, 90239, Note_on_c, 9, 42, 0
1, 90240, Note_on_c, 9, 51, 116
1, 90240, Note_on_c, 9, 35, 104
1, 90479, Note_on_c, 9, 35, 0
1, 90560, Note_on_c, 9, 35, 51
1, 90599, Note_on_c, 9, 35, 0
1, 90719, Note_on_c, 9, 51, 0
1, 90720, Note_on_c, 9, 37, 116
1, 90720, Note_on_c, 9, 42, 70
1, 91040, Note_on_c, 9, 35, 51
1, 91079, Note_on_c, 9, 35, 0
1, 91199, Note_on_c, 9, 37, 0
1, 91199, Note_on_c, 9, 42, 0
1, 91200, Note_on_c, 9, 42, 70
1, 91679, Note_on_c, 9, 42, 0
1, 91680, Note_on_c, 9, 37, 116
1, 91680, Note_on_c, 9, 42, 70
1, 92000, Note_on_c, 9, 35, 51
1, 92039, Note_on_c, 9, 35, 0
1, 92159, Note_on_c, 9, 37, 0
1, 92159, Note_on_c, 9, 42, 0
1, 92160, Note_on_c, 9, 42, 70
1, 92160, Note_on_c, 9, 35, 72
1, 92399, Note_on_c, 9, 35, 0
1, 92480, Note_on_c, 9, 35, 60
1, 92519, Note_on_c, 9, 35, 0
1, 92639, Note_on_c, 9, 42, 0
1, 92640, Note_on_c, 9, 37, 100
1, 92640, Note_on_c, 9, 42, 70
1, 92960, Note_on_c, 9, 35, 72
1, 92999, Note_on_c, 9, 35, 0
1, 93119, Note_on_c, 9, 37, 0
1, 93119, Note_on_c, 9, 42, 0
1, 93120, Note_on_c, 9, 42, 70
1, 93599, Note_on_c, 9, 42, 0
1, 93600, Note_on_c, 9, 37, 100
1, 93600, Note_on_c, 9, 42, 70
1, 93920, Note_on_c, 9, 35, 24
1, 93959, Note_on_c, 9, 35, 0
1, 94079, Note_on_c, 9, 37, 0
1, 94079, Note_on_c, 9, 42, 0
1, 94080, Note_on_c, 9, 42, 70
1, 94080, Note_on_c, 9, 35, 104
1, 94319, Note_on_c, 9, 35, 0
1, 94400, Note_on_c, 9, 35, 39
1, 94439, Note_on_c, 9, 35, 0
1, 94559, Note_on_c, 9, 42, 0
1, 94560, Note_on_c, 9, 37, 116
1, 94560, Note_on_c, 9, 42, 70
1, 94880, Note_on_c, 9, 35, 72
1, 94919, Note_on_c, 9, 35, 0
1, 95039, Note_on_c, 9, 37, 0
1, 95039, Note_on_c, 9, 42, 0
1, 95040, Note_on_c, 9, 42, 70
1, 95519, Note_on_c, 9, 42, 0
1, 95520, Note_on_c, 9, 37, 116
1, 95520, Note_on_c, 9, 42, 70
1, 95840, Note_on_c, 9, 35, 44
1, 95879, Note_on_c, 9, 35, 0
1, 95999, Note_on_c, 9, 37, 0
1, 95999, Note_on_c, 9, 42, 0
1, 96000, Note_on_c, 9, 42, 70
1, 96000, Note_on_c, 9, 35, 87
1, 96239, Note_on_c, 9, 35, 0
1, 96320, Note_on_c, 9, 35, 51
1, 96359, Note_on_c, 9, 35, 0
1, 96479, Note_on_c, 9, 42, 0
1, 96480, Note_on_c, 9, 37, 116
1, 96480, Note_on_c, 9, 42, 70
1, 96800, Note_on_c, 9, 35, 104
1, 96839, Note_on_c, 9, 35, 0
1, 96959, Note_on_c, 9, 37, 0
1, 96959, Note_on_c, 9, 42, 0
1, 96960, Note_on_c, 9, 42, 70
1, 97439, Note_on_c, 9, 42, 0
1, 97440, Note_on_c, 9, 37, 100
1, 97440, Note_on_c, 9, 42, 70
1, 97760, Note_on_c, 9, 35, 60
1, 97799, Note_on_c, 9, 35, 0
1, 97919, Note_on_c, 9, 37, 0
1, 97919, Note_on_c, 9, 42, 0
1, 97920, Note_on_c, 9, 51, 116
1, 97920, Note_on_c, 9, 35, 104
1, 98159, Note_on_c, 9, 35, 0
1, 98240, Note_on_c, 9, 35, 51
1, 98279, Note_on_c, 9, 35, 0
1, 98399, Note_on_c, 9, 51, 0
1, 98400, Note_on_c, 9, 37, 116
1, 98400, Note_on_c, 9, 42, 70
1, 98720, Note_on_c, 9, 35, 51
1, 98759, Note_on_c, 9, 35, 0
1, 98879, Note_on_c, 9, 37, 0
1, 98879, Note_on_c, 9, 42, 0
1, 98880, Note_on_c, 9, 42, 70
1, 99359, Note_on_c, 9, 42, 0
1, 99360, Note_on_c, 9, 37, 116
1, 99360, Note_on_c, 9, 42, 70
1, 99680, Note_on_c, 9, 35, 51
1, 99719, Note_on_c, 9, 35, 0
1, 99839, Note_on_c, 9, 37, 0
1, 99839, Note_on_c, 9, 42, 0
1, 99840, Note_on_c, 9, 42, 70
1, 99840, Note_on_c, 9, 35, 72
1, 100079, Note_on_c, 9, 35, 0
1, 100160, Note_on_c, 9, 35, 60
1, 100199, Note_on_c, 9, 35, 0
1, 100319, Note_on_c, 9, 42, 0
1, 100320, Note_on_c, 9, 37, 100
1, 100320, Note_on_c, 9, 42, 70
1, 100640, Note_on_c, 9, 35, 72
1, 100679, Note_on_c, 9, 35, 0
1, 100799, Note_on_c, 9, 37, 0
1, 100799, Note_on_c, 9, 42, 0
1, 100800, Note_on_c, 9, 42, 70
1, 101279, Note_on_c, 9, 42, 0
1, 101280, Note_on_c, 9, 37, 100
1, 101280, Note_on_c, 9, 42, 70
1, 101600, Note_on_c, 9, 35, 24
1, 101639, Note_on_c, 9, 35, 0
1, 101759, Note_on_c, 9, 37, 0
1, 101759, Note_on_c, 9, 42, 0
1, 101760, Note_on_c, 9, 42, 70
1, 101760, Note_on_c, 9, 35, 104
1, 101999, Note_on_c, 9, 35, 0
1, 102080, Note_on_c, 9, 35, 39
1, 102119, Note_on_c, 9, 35, 0
1, 102239, Note_on_c, 9, 42, 0
1, 102240, Note_on_c, 9, 37, 116
1, 102240, Note_on_c, 9, 42, 70
1, 102560, Note_on_c, 9, 35, 72
1, 102599, Note_on_c, 9, 35, 0
1, 102719, Note_on_c, 9, 37, 0
1, 102719, Note_on_c, 9, 42, 0
1, 102720, Note_on_c, 9, 42, 70
1, 103199, Note_on_c, 9, 42, 0
1, 103200, Note_on_c, 9, 37, 116
1, 103200, Note_on_c, 9, 42, 70
1, 103520, Note_on_c, 9, 35, 44
1, 103559, Note_on_c, 9, 35, 0
1, 103679, Note_on_c, 9, 37, 0
1, 103679, Note_on_c, 9, 42, 0
1, 103680, Note_on_c, 9, 42, 70
1, 103680, Note_on_c, 9, 35, 87
1, 103919, Note_on_c, 9, 35, 0
1, 104000, Note_on_c, 9, 35, 51
1, 104039, Note_on_c, 9, 35, 0
1, 104159, Note_on_c, 9, 42, 0
1, 104160, Note_on_c, 9, 37, 116
1, 104160, Note_on_c, 9, 42, 70
1, 104480, Note_on_c, 9, 35, 104
1, 104519, Note_on_c, 9, 35, 0
1, 104639, Note_on_c, 9, 37, 0
1, 104639, Note_on_c, 9, 42, 0
1, 104640, Note_on_c, 9, 42, 70
1, 105119, Note_on_c, 9, 42, 0
1, 105120, Note_on_c, 9, 37, 100
1, 105120, Note_on_c, 9, 42, 70
1, 105440, Note_on_c, 9, 35, 60
1, 105479, Note_on_c, 9, 35, 0
1, 105599, Note_on_c, 9, 37, 0
1, 105599, Note_on_c, 9, 42, 0
1, 105600, Note_on_c, 9, 42, 70
1, 105600, Note_on_c, 9, 35, 87
1, 105839, Note_on_c, 9, 35, 0
1, 105920, Note_on_c, 9, 35, 51
1, 105959, Note_on_c, 9, 35, 0
1, 106079, Note_on_c, 9, 42, 0
1, 106080, Note_on_c, 9, 37, 116
1, 106080, Note_on_c, 9, 42, 70
1, 106400, Note_on_c, 9, 35, 104
1, 106439, Note_on_c, 9, 35, 0
1, 106559, Note_on_c, 9, 37, 0
1, 106559, Note_on_c, 9, 42, 0
1, 106560, Note_on_c, 9, 42, 70
1, 107039, Note_on_c, 9, 42, 0
1, 107040, Note_on_c, 9, 37, 100
1, 107040, Note_on_c, 9, 42, 70
1, 107360, Note_on_c, 9, 35, 60
1, 107399, Note_on_c, 9, 35, 0
1, 107519, Note_on_c, 9, 37, 0
1, 107519, Note_on_c, 9, 42, 0
1, 107520, Note_on_c, 9, 51, 116
1, 107520, Note_on_c, 9, 35, 104
1, 107759, Note_on_c, 9, 35, 0
1, 107840, Note_on_c, 9, 35, 51
1, 107879, Note_on_c, 9, 35, 0
1, 107999, Note_on_c, 9, 51, 0
1, 108000, Note_on_c, 9, 37, 116
1, 108000, Note_on_c, 9, 42, 70
1, 108320, Note_on_c, 9, 35, 51
1, 108359, Note_on_c, 9, 35, 0
1, 108479, Note_on_c, 9, 37, 0
1, 108479, Note_on_c, 9, 42, 0
1, 108480, Note_on_c, 9, 42, 70
1, 108959, Note_on_c, 9, 42, 0
1, 108960, Note_on_c, 9, 37, 116
1, 108960, Note_on_c, 9, 42, 70
1, 109280, Note_on_c, 9, 35, 51
1, 109319, Note_on_c, 9, 35, 0
1, 109439, Note_on_c, 9, 37, 0
1, 109439, Note_on_c, 9, 42, 0
1, 109440, Note_on_c, 9, 42, 70
1, 109440, Note_on_c, 9, 35, 72
1, 109679, Note_on_c, 9, 35, 0
1, 109760, Note_on_c, 9, 35, 60
1, 109799, Note_on_c, 9, 35, 0
1, 109919, Note_on_c, 9, 42, 0
1, 109920, Note_on_c, 9, 37, 100
1, 109920, Note_on_c, 9, 42, 70
1, 110240, Note_on_c, 9, 35, 72
1, 110279, Note_on_c, 9, 35, 0
1, 110399, Note_on_c, 9, 37, 0
1, 110399, Note_on_c, 9, 42, 0
1, 110400, Note_on_c, 9, 42, 70
1, 110879, Note_on_c, 9, 42, 0
1, 110880, Note_on_c, 9, 37, 100
1, 110880, Note_on_c, 9, 42, 70
1, 111200, Note_on_c, 9, 35, 24
1, 111239, Note_on_c, 9, 35, 0
1, 111359, Note_on_c, 9, 37, 0
1, 111359, Note_on_c, 9, 42, 0
1, 111360, Note_on_c, 9, 42, 70
1, 111360, Note_on_c, 9, 35, 104
1, 111599, Note_on_c, 9, 35, 0
1, 111680, Note_on_c, 9, 35, 39
1, 111719, Note_on_c, 9, 35, 0
1, 111839, Note_on_c, 9, 42, 0
1, 111840, Note_on_c, 9, 37, 116
1, 111840, Note_on_c, 9, 42, 70
1, 112160, Note_on_c, 9, 35, 72
1, 112199, Note_on_c, 9, 35, 0
1, 112319, Note_on_c, 9, 37, 0
1, 112319, Note_on_c, 9, 42, 0
1, 112320, Note_on_c, 9, 42, 70
1, 112799, Note_on_c, 9, 42, 0
1, 112800, Note_on_c, 9, 37, 116
1, 112800, Note_on_c, 9, 42, 70
1, 113120, Note_on_c, 9, 35, 44
1, 113159, Note_on_c, 9, 35, 0
1, 113279, Note_on_c, 9, 37, 0
1, 113279, Note_on_c, 9, 42, 0
1, 113280, Note_on_c, 9, 42, 70
1, 113280, Note_on_c, 9, 35, 87
1, 113519, Note_on_c, 9, 35, 0
1, 113600, Note_on_c, 9, 35, 51
1, 113639, Note_on_c, 9, 35, 0
1, 113759, Note_on_c, 9, 42, 0
1, 113760, Note_on_c, 9, 37, 116
1, 113760, Note_on_c, 9, 42, 70
1, 113999, Note_on_c, 9, 37, 0
1, 113999, Note_on_c, 9, 42, 0
1, 114080, Note_on_c, 9, 45, 93
1, 114119, Note_on_c, 9, 45, 0
1, 114240, Note_on_c, 9, 45, 110
1, 114479, Note_on_c, 9, 45, 0
1, 114560, Note_on_c, 9, 57, 110
1, 114560, Note_on_c, 9, 35, 102
1, 114599, Note_on_c, 9, 57, 0
1, 114599, Note_on_c, 9, 35, 0
1, 114720, Note_on_c, 9, 37, 100
1, 115199, Note_on_c, 9, 37, 0
1, 115200, Note_on_c, 9, 51, 116
1, 115200, Note_on_c, 9, 35, 104
1, 115439, Note_on_c, 9, 35, 0
1, 115520, Note_on_c, 9, 35, 51
1, 115559, Note_on_c, 9, 35, 0
1, 115679, Note_on_c, 9, 51, 0
1, 115680, Note_on_c, 9, 37, 116
1, 115680, Note_on_c, 9, 42, 70
1, 116000, Note_on_c, 9, 35, 51
1, 116039, Note_on_c, 9, 35, 0
1, 116159, Note_on_c, 9, 37, 0
1, 116159, Note_on_c, 9, 42, 0
1, 116160, Note_on_c, 9, 42, 70
1, 116639, Note_on_c, 9, 42, 0
1, 116640, Note_on_c, 9, 37, 116
1, 116640, Note_on_c, 9, 42, 70
1, 116960, Note_on_c, 9, 35, 51
1, 116999, Note_on_c, 9, 35, 0
1, 117119, Note_on_c, 9, 37, 0
1, 117119, Note_on_c, 9, 42, 0
1, 117120, Note_on_c, 9, 42, 70
1, 117120, Note_on_c, 9, 35, 72
1, 117359, Note_on_c, 9, 35, 0
1, 117440, Note_on_c, 9, 35, 60
1, 117479, Note_on_c, 9, 35, 0
1, 117599, Note_on_c, 9, 42, 0
1, 117600, Note_on_c, 9, 37, 100
1, 117600, Note_on_c, 9, 42, 70
1, 117920, Note_on_c, 9, 35, 72
1, 117959, Note_on_c, 9, 35, 0
1, 118079, Note_on_c, 9, 37, 0
1, 118079, Note_on_c, 9, 42, 0
1, 118080, Note_on_c, 9, 42, 70
1, 118559, Note_on_c, 9, 42, 0
1, 118560, Note_on_c, 9, 37, 100
1, 118560, Note_on_c, 9, 42, 70
1, 118880, Note_on_c, 9, 35, 24
1, 118919, Note_on_c, 9, 35, 0
1, 119039, Note_on_c, 9, 37, 0
1, 119039, Note_on_c, 9, 42, 0
1, 119040, Note_on_c, 9, 49, 71
1, 119040, Note_on_c, 9, 35, 72
1, 119159, Note_on_c, 9, 49, 0
1, 119200, Note_on_c, 9, 51, 61
1, 119219, Note_on_c, 9, 51, 0
1, 119279, Note_on_c, 9, 35, 0
1, 119360, Note_on_c, 9, 51, 40
1, 119360, Note_on_c, 9, 35, 51
1, 119399, Note_on_c, 9, 51, 0
1, 119399, Note_on_c, 9, 35, 0
1, 119520, Note_on_c, 9, 37, 83
1, 119520, Note_on_c, 9, 51, 71
1, 119639, Note_on_c, 9, 37, 0
1, 119639, Note_on_c, 9, 51, 0
1, 119680, Note_on_c, 9, 51, 40
1, 119699, Note_on_c, 9, 51, 0
1, 119840, Note_on_c, 9, 51, 44
1, 119840, Note_on_c, 9, 35, 60
1, 119879, Note_on_c, 9, 51, 0
1, 119879, Note_on_c, 9, 35, 0
1, 120000, Note_on_c, 9, 51, 71
1, 120000, Note_on_c, 9, 35, 104
1, 120119, Note_on_c, 9, 51, 0
1, 120160, Note_on_c, 9, 51, 29
1, 120179, Note_on_c, 9, 51, 0
1, 120320, Note_on_c, 9, 51, 54
1, 120359, Note_on_c, 9, 51, 0
1, 120479, Note_on_c, 9, 35, 0
1, 120480, Note_on_c, 9, 37, 116
1, 120480, Note_on_c, 9, 51, 83
1, 120599, Note_on_c, 9, 37, 0
1, 120599, Note_on_c, 9, 51, 0
1, 120640, Note_on_c, 9, 51, 36
1, 120659, Note_on_c, 9, 51, 0
1, 120800, Note_on_c, 9, 51, 44
1, 120839, Note_on_c, 9, 51, 0
1, 120960, Note_on_c, 9, 51, 83
1, 120960, Note_on_c, 9, 35, 104
1, 121079, Note_on_c, 9, 51, 0
1, 121120, Note_on_c, 9, 51, 48
1, 121139, Note_on_c, 9, 51, 0
1, 121280, Note_on_c, 9, 51, 40
1, 121319, Note_on_c, 9, 51, 0
1, 121439, Note_on_c, 9, 35, 0
1, 121440, Note_on_c, 9, 37, 116
1, 121440, Note_on_c, 9, 51, 83
1, 121559, Note_on_c, 9, 37, 0
1, 121559, Note_on_c, 9, 51, 0
1, 121600, Note_on_c, 9, 51, 71
1, 121619, Note_on_c, 9, 51, 0
1, 121760, Note_on_c, 9, 35, 72
1, 121799, Note_on_c, 9, 35, 0
1, 121920, Note_on_c, 9, 38, 124
1, 122399, Note_on_c, 9, 38, 0
1, 122400, Note_on_c, 9, 42, 70
1, 122879, Note_on_c, 9, 42, 0
1, 123360, Note_on_c, 9, 42, 70
1, 123839, Note_on_c, 9, 42, 0
1, 124320, Note_on_c, 9, 42, 70
1, 124799, Note_on_c, 9, 42, 0
1, 124800, Note_on_c, 9, 51, 116
1, 124800, Note_on_c, 9, 35, 104
1, 125039, Note_on_c, 9, 35, 0
1, 125120, Note_on_c, 9, 35, 51
1, 125159, Note_on_c, 9, 35, 0
1, 125279, Note_on_c, 9, 51, 0
1, 125280, Note_on_c, 9, 37, 116
1, 125280, Note_on_c, 9, 42, 70
1, 125600, Note_on_c, 9, 35, 51
1, 125639, Note_on_c, 9, 35, 0
1, 125759, Note_on_c, 9, 37, 0
1, 125759, Note_on_c, 9, 42, 0
1, 125760, Note_on_c, 9, 42, 70
1, 126239, Note_on_c, 9, 42, 0
1, 126240, Note_on_c, 9, 37, 116
1, 126240, Note_on_c, 9, 42, 70
1, 126560, Note_on_c, 9, 35, 51
1, 126599, Note_on_c, 9, 35, 0
1, 126719, Note_on_c, 9, 37, 0
1, 126719, Note_on_c, 9, 42, 0
1, 126720, Note_on_c, 9, 42, 70
1, 126720, Note_on_c, 9, 35, 72
1, 126959, Note_on_c, 9, 35, 0
1, 127040, Note_on_c, 9, 35, 60
1, 127079, Note_on_c, 9, 35, 0
1, 127199, Note_on_c, 9, 42, 0
1, 127200, Note_on_c, 9, 37, 100
1, 127200, Note_on_c, 9, 42, 70
1, 127520, Note_on_c, 9, 35, 72
1, 127559, Note_on_c, 9, 35, 0
1, 127679, Note_on_c, 9, 37, 0
1, 127679, Note_on_c, 9, 42, 0
1, 127680, Note_on_c, 9, 42, 70
1, 128159, Note_on_c, 9, 42, 0
1, 128160, Note_on_c, 9, 37, 100
1, 128160, Note_on_c, 9, 42, 70
1, 128480, Note_on_c, 9, 35, 24
1, 128519, Note_on_c, 9, 35, 0
1, 128639, Note_on_c, 9, 37, 0
1, 128639, Note_on_c, 9, 42, 0
1, 128640, Note_on_c, 9, 42, 70
1, 128640, Note_on_c, 9, 35, 104
1, 128879, Note_on_c, 9, 35, 0
1, 128960, Note_on_c, 9, 35, 39
1, 128999, Note_on_c, 9, 35, 0
1, 129119, Note_on_c, 9, 42, 0
1, 129120, Note_on_c, 9, 37, 116
1, 129120, Note_on_c, 9, 42, 70
1, 129440, Note_on_c, 9, 35, 72
1, 129479, Note_on_c, 9, 35, 0
1, 129599, Note_on_c, 9, 37, 0
1, 129599, Note_on_c, 9, 42, 0
1, 129600, Note_on_c, 9, 42, 70
1, 130079, Note_on_c, 9, 42, 0
1, 130080, Note_on_c, 9, 37, 116
1, 130080, Note_on_c, 9, 42, 70
1, 130400, Note_on_c, 9, 35, 44
1, 130439, Note_on_c, 9, 35, 0
1, 130559, Note_on_c, 9, 37, 0
1, 130559, Note_on_c, 9, 42, 0
1, 130560, Note_on_c, 9, 42, 70
1, 130560, Note_on_c, 9, 35, 87
1, 130799, Note_on_c, 9, 35, 0
1, 130880, Note_on_c, 9, 35, 51
1, 130919, Note_on_c, 9, 35, 0
1, 131039, Note_on_c, 9, 42, 0
1, 131040, Note_on_c, 9, 37, 116
1, 131040, Note_on_c, 9, 42, 70
1, 131360, Note_on_c, 9, 35, 104
1, 131399, Note_on_c, 9, 35, 0
1, 131519, Note_on_c, 9, 37, 0
1, 131519, Note_on_c, 9, 42, 0
1, 131520, Note_on_c, 9, 42, 70
1, 131999, Note_on_c, 9, 42, 0
1, 132000, Note_on_c, 9, 37, 100
1, 132000, Note_on_c, 9, 42, 70
1, 132320, Note_on_c, 9, 35, 60
1, 132359, Note_on_c, 9, 35, 0
1, 132479, Note_on_c, 9, 37, 0
1, 132479, Note_on_c, 9, 42, 0
1, 132480, Note_on_c, 9, 51, 116
1, 132480, Note_on_c, 9, 35, 104
1, 132719, Note_on_c, 9, 35, 0
1, 132800, Note_on_c, 9, 35, 51
1, 132839, Note_on_c, 9, 35, 0
1, 132959, Note_on_c, 9, 51, 0
1, 132960, Note_on_c, 9, 37, 116
1, 132960, Note_on_c, 9, 42, 70
1, 133280, Note_on_c, 9, 35, 51
1, 133319, Note_on_c, 9, 35, 0
1, 133439, Note_on_c, 9, 37, 0
1, 133439, Note_on_c, 9, 42, 0
1, 133440, Note_on_c, 9, 42, 70
1, 133919, Note_on_c, 9, 42, 0
1, 133920, Note_on_c, 9, 37, 116
1, 133920, Note_on_c, 9, 42, 70
1, 134240, Note_on_c, 9, 35, 51
1, 134279, Note_on_c, 9, 35, 0
1, 134399, Note_on_c, 9, 37, 0
1, 134399, Note_on_c, 9, 42, 0
1, 134400, Note_on_c, 9, 42, 70
1, 134400, Note_on_c, 9, 35, 72
1, 134639, Note_on_c, 9, 35, 0
1, 134720, Note_on_c, 9, 35, 60
1, 134759, Note_on_c, 9, 35, 0
1, 134879, Note_on_c, 9, 42, 0
1, 134880, Note_on_c, 9, 37, 100
1, 134880, Note_on_c, 9, 42, 70
1, 135200, Note_on_c, 9, 35, 72
1, 135239, Note_on_c, 9, 35, 0
1, 135359, Note_on_c, 9, 37, 0
1, 135359, Note_on_c, 9, 42, 0
1, 135360, Note_on_c, 9, 42, 70
1, 135839, Note_on_c, 9, 42, 0
1, 135840, Note_on_c, 9, 37, 100
1, 135840, Note_on_c, 9, 42, 70
1, 136160, Note_on_c, 9, 35, 24
1, 136199, Note_on_c, 9, 35, 0
1, 136319, Note_on_c, 9, 37, 0
1, 136319, Note_on_c, 9, 42, 0
1, 136320, Note_on_c, 9, 42, 70
1, 136320, Note_on_c, 9, 35, 104
1, 136559, Note_on_c, 9, 35, 0
1, 136640, Note_on_c, 9, 35, 39
1, 136679, Note_on_c, 9, 35, 0
1, 136799, Note_on_c, 9, 42, 0
1, 136800, Note_on_c, 9, 37, 116
1, 136800, Note_on_c, 9, 42, 70
1, 137120, Note_on_c, 9, 35, 72
1, 137159, Note_on_c, 9, 35, 0
1, 137279, Note_on_c, 9, 37, 0
1, 137279, Note_on_c, 9, 42, 0
1, 137280, Note_on_c, 9, 42, 70
1, 137759, Note_on_c, 9, 42, 0
1, 137760, Note_on_c, 9, 37, 116
1, 137760, Note_on_c, 9, 42, 70
1, 138080, Note_on_c, 9, 35, 44
1, 138119, Note_on_c, 9, 35, 0
1, 138239, Note_on_c, 9, 37, 0
1, 138239, Note_on_c, 9, 42, 0
1, 138240, Note_on_c, 9, 42, 70
1, 138240, Note_on_c, 9, 35, 87
1, 138479, Note_on_c, 9, 35, 0
1, 138560, Note_on_c, 9, 35, 51
1, 138599, Note_on_c, 9, 35, 0
1, 138719, Note_on_c, 9, 42, 0
1, 138720, Note_on_c, 9, 37, 116
1, 138720, Note_on_c, 9, 42, 70
1, 139040, Note_on_c, 9, 35, 104
1, 139079, Note_on_c, 9, 35, 0
1, 139199, Note_on_c, 9, 37, 0
1, 139199, Note_on_c, 9, 42, 0
1, 139200, Note_on_c, 9, 42, 70
1, 139679, Note_on_c, 9, 42, 0
1, 139680, Note_on_c, 9, 37, 100
1, 139680, Note_on_c, 9, 42, 70
1, 140000, Note_on_c, 9, 35, 60
1, 140039, Note_on_c, 9, 35, 0
1, 140159, Note_on_c, 9, 37, 0
1, 140159, Note_on_c, 9, 42, 0
1, 140160, Note_on_c, 9, 51, 116
1, 140160, Note_on_c, 9, 35, 104
1, 140399, Note_on_c, 9, 35, 0
1, 140480, Note_on_c, 9, 35, 51
1, 140519, Note_on_c, 9, 35, 0
1, 140639, Note_on_c, 9, 51, 0
1, 140640, Note_on_c, 9, 37, 116
1, 140640, Note_on_c, 9, 42, 70
1, 140960, Note_on_c, 9, 35, 51
1, 140999, Note_on_c, 9, 35, 0
1, 141119, Note_on_c, 9, 37, 0
1, 141119, Note_on_c, 9, 42, 0
1, 141120, Note_on_c, 9, 42, 70
1, 141599, Note_on_c, 9, 42, 0
1, 141600, Note_on_c, 9, 37, 116
1, 141600, Note_on_c, 9, 42, 70
1, 141920, Note_on_c, 9, 35, 51
1, 141959, Note_on_c, 9, 35, 0
1, 142079, Note_on_c, 9, 37, 0
1, 142079, Note_on_c, 9, 42, 0
1, 142080, Note_on_c, 9, 42, 70
1, 142080, Note_on_c, 9, 35, 72
1, 142319, Note_on_c, 9, 35, 0
1, 142400, Note_on_c, 9, 35, 60
1, 142439, Note_on_c, 9, 35, 0
1, 142559, Note_on_c, 9, 42, 0
1, 142560, Note_on_c, 9, 37, 100
1, 142560, Note_on_c, 9, 42, 70
1, 142880, Note_on_c, 9, 35, 72
1, 142919, Note_on_c, 9, 35, 0
1, 143039, Note_on_c, 9, 37, 0
1, 143039, Note_on_c, 9, 42, 0
1, 143040, Note_on_c, 9, 42, 70
1, 143519, Note_on_c, 9, 42, 0
1, 143520, Note_on_c, 9, 37, 100
1, 143520, Note_on_c, 9, 42, 70
1, 143840, Note_on_c, 9, 35, 24
1, 143879, Note_on_c, 9, 35, 0
1, 143999, Note_on_c, 9, 37, 0
1, 143999, Note_on_c, 9, 42, 0
1, 144000, Note_on_c, 9, 42, 70
1, 144000, Note_on_c, 9, 35, 104
1, 144239, Note_on_c, 9, 35, 0
1, 144320, Note_on_c, 9, 35, 39
1, 144359, Note_on_c, 9, 35, 0
1, 144479, Note_on_c, 9, 42, 0
1, 144480, Note_on_c, 9, 37, 116
1, 144480, Note_on_c, 9, 42, 70
1, 144800, Note_on_c, 9, 35, 72
1, 144839, Note_on_c, 9, 35, 0
1, 144959, Note_on_c, 9, 37, 0
1, 144959, Note_on_c, 9, 42, 0
1, 144960, Note_on_c, 9, 42, 70
1, 145439, Note_on_c, 9, 42, 0
1, 145440, Note_on_c, 9, 37, 116
1, 145440, Note_on_c, 9, 42, 70
1, 145760, Note_on_c, 9, 35, 44
1, 145799, Note_on_c, 9, 35, 0
1, 145919, Note_on_c, 9, 37, 0
1, 145919, Note_on_c, 9, 42, 0
1, 145920, Note_on_c, 9, 42, 70
1, 145920, Note_on_c, 9, 35, 87
1, 146159, Note_on_c, 9, 35, 0
1, 146240, Note_on_c, 9, 35, 51
1, 146279, Note_on_c, 9, 35, 0
1, 146399, Note_on_c, 9, 42, 0
1, 146400, Note_on_c, 9, 37, 116
1, 146400, Note_on_c, 9, 42, 70
1, 146720, Note_on_c, 9, 35, 104
1, 146759, Note_on_c, 9, 35, 0
1, 146879, Note_on_c, 9, 37, 0
1, 146879, Note_on_c, 9, 42, 0
1, 146880, Note_on_c, 9, 42, 70
1, 147359, Note_on_c, 9, 42, 0
1, 147360, Note_on_c, 9, 37, 100
1, 147360, Note_on_c, 9, 42, 70
1, 147680, Note_on_c, 9, 35, 60
1, 147719, Note_on_c, 9, 35, 0
1, 147839, Note_on_c, 9, 37, 0
1, 147839, Note_on_c, 9, 42, 0
1, 147840, Note_on_c, 9, 51, 116
1, 147840, Note_on_c, 9, 35, 104
1, 148079, Note_on_c, 9, 35, 0
1, 148160, Note_on_c, 9, 35, 51
1, 148199, Note_on_c, 9, 35, 0
1, 148319, Note_on_c, 9, 51, 0
1, 148320, Note_on_c, 9, 37, 116
1, 148320, Note_on_c, 9, 42, 70
1, 148640, Note_on_c, 9, 35, 51
1, 148679, Note_on_c, 9, 35, 0
1, 148799, Note_on_c, 9, 37, 0
1, 148799, Note_on_c, 9, 42, 0
1, 148800, Note_on_c, 9, 42, 70
1, 149279, Note_on_c, 9, 42, 0
1, 149280, Note_on_c, 9, 37, 116
1, 149280, Note_on_c, 9, 42, 70
1, 149600, Note_on_c, 9, 35, 51
1, 149639, Note_on_c, 9, 35, 0
1, 149759, Note_on_c, 9, 37, 0
1, 149759, Note_on_c, 9, 42, 0
1, 149760, Note_on_c, 9, 42, 70
1, 149760, Note_on_c, 9, 35, 72
1, 149999, Note_on_c, 9, 35, 0
1, 150080, Note_on_c, 9, 35, 60
1, 150119, Note_on_c, 9, 35, 0
1, 150239, Note_on_c, 9, 42, 0
1, 150240, Note_on_c, 9, 37, 100
1, 150240, Note_on_c, 9, 42, 70
1, 150560, Note_on_c, 9, 35, 72
1, 150599, Note_on_c, 9, 35, 0
1, 150719, Note_on_c, 9, 37, 0
1, 150719, Note_on_c, 9, 42, 0
1, 150720, Note_on_c, 9, 42, 70
1, 151199, Note_on_c, 9, 42, 0
1, 151200, Note_on_c, 9, 37, 100
1, 151200, Note_on_c, 9, 42, 70
1, 151520, Note_on_c, 9, 35, 24
1, 151559, Note_on_c, 9, 35, 0
1, 151679, Note_on_c, 9, 37, 0
1, 151679, Note_on_c, 9, 42, 0
1, 151680, Note_on_c, 9, 42, 70
1, 151680, Note_on_c, 9, 35, 104
1, 151919, Note_on_c, 9, 35, 0
1, 152000, Note_on_c, 9, 35, 39
1, 152039, Note_on_c, 9, 35, 0
1, 152159, Note_on_c, 9, 42, 0
1, 152160, Note_on_c, 9, 37, 116
1, 152160, Note_on_c, 9, 42, 70
1, 152480, Note_on_c, 9, 35, 72
1, 152519, Note_on_c, 9, 35, 0
1, 152639, Note_on_c, 9, 37, 0
1, 152639, Note_on_c, 9, 42, 0
1, 152640, Note_on_c, 9, 42, 70
1, 153119, Note_on_c, 9, 42, 0
1, 153120, Note_on_c, 9, 37, 116
1, 153120, Note_on_c, 9, 42, 70
1, 153440, Note_on_c, 9, 35, 44
1, 153479, Note_on_c, 9, 35, 0
1, 153599, Note_on_c, 9, 37, 0
1, 153599, Note_on_c, 9, 42, 0
1, 153600, Note_on_c, 9, 42, 70
1, 153600, Note_on_c, 9, 35, 87
1, 153839, Note_on_c, 9, 35, 0
1, 153920, Note_on_c, 9, 35, 51
1, 153959, Note_on_c, 9, 35, 0
1, 154079, Note_on_c, 9, 42, 0
1, 154080, Note_on_c, 9, 37, 116
1, 154080, Note_on_c, 9, 42, 70
1, 154400, Note_on_c, 9, 35, 104
1, 154439, Note_on_c, 9, 35, 0
1, 154559, Note_on_c, 9, 37, 0
1, 154559, Note_on_c, 9, 42, 0
1, 154560, Note_on_c, 9, 42, 70
1, 155039, Note_on_c, 9, 42, 0
1, 155040, Note_on_c, 9, 37, 100
1, 155040, Note_on_c, 9, 42, 70
1, 155360, Note_on_c, 9, 35, 60
1, 155399, Note_on_c, 9, 35, 0
1, 155519, Note_on_c, 9, 37, 0
1, 155519, Note_on_c, 9, 42, 0
1, 155520, Note_on_c, 9, 49, 83
1, 155520, Note_on_c, 9, 35, 103
1, 155999, Note_on_c, 9, 49, 0
1, 155999, Note_on_c, 9, 35, 0
1, 156000, End_track
0, 0, End_of_file
