0, 0, Header, 1, 1, 480
1, 0, Start_track
1, 0, Time_signature, 4, 2, 24, 8
1, 0, Key_signature, 0, "major"
1, 0, Tempo, 500000
1, 0, Control_c, 9, 121, 0
1, 0, Program_c, 9, 0
1, 0, Control_c, 9, 7, 100
1, 0, Control_c, 9, 10, 64
1, 0, Control_c, 9, 91, 0
1, 0, Control_c, 9, 93, 0
1, 0, MIDI_port, 0
1, 0, Note_on_c, 9, 38, 127
1, 0, Note_on_c, 9, 49, 110
1, 479, Note_on_c, 9, 38, 0
1, 479, Note_on_c, 9, 49, 0
1, 480, Note_on_c, 9, 42, 114
1, 495, Note_on_c, 9, 35, 124
1, 719, Note_on_c, 9, 42, 0
1, 719, Note_on_c, 9, 35, 0
1, 720, Note_on_c, 9, 42, 83
1, 959, Note_on_c, 9, 42, 0
1, 960, Note_on_c, 9, 38, 127
1, 960, Note_on_c, 9, 42, 102
1, 1199, Note_on_c, 9, 38, 0
1, 1199, Note_on_c, 9, 42, 0
1, 1200, Note_on_c, 9, 42, 79
1, 1439, Note_on_c, 9, 42, 0
1, 1440, Note_on_c, 9, 42, 93
1, 1440, Note_on_c, 9, 35, 119
1, 1679, Note_on_c, 9, 42, 0
1, 1680, Note_on_c, 9, 42, 85
1, 1919, Note_on_c, 9, 35, 0
1, 1919, Note_on_c, 9, 42, 0
1, 1920, Note_on_c, 9, 42, 85
1, 1934, Note_on_c, 9, 42, 0
1, 1935, Note_on_c, 9, 38, 127
1, 2159, Note_on_c, 9, 38, 0
1, 2160, Note_on_c, 9, 42, 85
1, 2399, Note_on_c, 9, 42, 0
1, 2400, Note_on_c, 9, 42, 80
1, 2415, Note_on_c, 9, 35, 121
1, 2639, Note_on_c, 9, 42, 0
1, 2639, Note_on_c, 9, 35, 0
1, 2640, Note_on_c, 9, 42, 87
1, 2879, Note_on_c, 9, 42, 0
1, 2880, Note_on_c, 9, 42, 87
1, 2894, Note_on_c, 9, 42, 0
1, 2895, Note_on_c, 9, 38, 127
1, 3119, Note_on_c, 9, 38, 0
1, 3120, Note_on_c, 9, 42, 85
1, 3359, Note_on_c, 9, 42, 0
1, 3360, Note_on_c, 9, 42, 79
1, 3375, Note_on_c, 9, 35, 121
1, 3599, Note_on_c, 9, 42, 0
1, 3599, Note_on_c, 9, 35, 0
1, 3600, Note_on_c, 9, 42, 80
1, 3839, Note_on_c, 9, 42, 0
1, 3840, Note_on_c, 9, 42, 83
1, 3854, Note_on_c, 9, 42, 0
1, 3855, Note_on_c, 9, 38, 127
1, 4079, Note_on_c, 9, 38, 0
1, 4080, Note_on_c, 9, 42, 93
1, 4319, Note_on_c, 9, 42, 0
1, 4320, Note_on_c, 9, 42, 87
1, 4320, Note_on_c, 9, 35, 120
1, 4559, Note_on_c, 9, 42, 0
1, 4575, Note_on_c, 9, 42, 83
1, 4799, Note_on_c, 9, 35, 0
1, 4799, Note_on_c, 9, 42, 0
1, 4800, Note_on_c, 9, 38, 127
1, 4814, Note_on_c, 9, 38, 0
1, 4815, Note_on_c, 9, 42, 93
1, 5039, Note_on_c, 9, 42, 0
1, 5055, Note_on_c, 9, 42, 85
1, 5279, Note_on_c, 9, 42, 0
1, 5280, Note_on_c, 9, 42, 97
1, 5280, Note_on_c, 9, 35, 121
1, 5519, Note_on_c, 9, 42, 0
1, 5520, Note_on_c, 9, 42, 89
1, 5759, Note_on_c, 9, 35, 0
1, 5759, Note_on_c, 9, 42, 0
1, 5760, Note_on_c, 9, 38, 127
1, 5760, Note_on_c, 9, 42, 87
1, 5999, Note_on_c, 9, 38, 0
1, 5999, Note_on_c, 9, 42, 0
1, 6000, Note_on_c, 9, 42, 87
1, 6239, Note_on_c, 9, 42, 0
1, 6240, Note_on_c, 9, 42, 87
1, 6240, Note_on_c, 9, 35, 123
1, 6479, Note_on_c, 9, 42, 0
1, 6480, Note_on_c, 9, 42, 87
1, 6719, Note_on_c, 9, 35, 0
1, 6719, Note_on_c, 9, 42, 0
1, 6720, Note_on_c, 9, 38, 127
1, 6720, Note_on_c, 9, 42, 89
1, 6959, Note_on_c, 9, 38, 0
1, 6959, Note_on_c, 9, 42, 0
1, 6960, Note_on_c, 9, 42, 87
1, 7199, Note_on_c, 9, 42, 0
1, 7200, Note_on_c, 9, 42, 87
1, 7200, Note_on_c, 9, 35, 123
1, 7439, Note_on_c, 9, 42, 0
1, 7455, Note_on_c, 9, 42, 83
1, 7679, Note_on_c, 9, 35, 0
1, 7679, Note_on_c, 9, 42, 0
1, 7695, Note_on_c, 9, 42, 85
1, 7709, Note_on_c, 9, 42, 0
1, 7710, Note_on_c, 9, 38, 127
1, 7799, Note_on_c, 9, 38, 0
1, 7935, Note_on_c, 9, 42, 83
1, 8159, Note_on_c, 9, 42, 0
1, 8175, Note_on_c, 9, 42, 85
1, 8175, Note_on_c, 9, 35, 120
1, 8399, Note_on_c, 9, 42, 0
1, 8399, Note_on_c, 9, 35, 0
1, 8415, Note_on_c, 9, 42, 82
1, 8639, Note_on_c, 9, 42, 0
1, 8640, Note_on_c, 9, 42, 85
1, 8654, Note_on_c, 9, 42, 0
1, 8655, Note_on_c, 9, 38, 127
1, 8879, Note_on_c, 9, 38, 0
1, 8880, Note_on_c, 9, 42, 83
1, 9119, Note_on_c, 9, 42, 0
1, 9120, Note_on_c, 9, 42, 83
1, 9120, Note_on_c, 9, 35, 120
1, 9359, Note_on_c, 9, 42, 0
1, 9360, Note_on_c, 9, 42, 89
1, 9599, Note_on_c, 9, 35, 0
1, 9599, Note_on_c, 9, 42, 0
1, 9600, Note_on_c, 9, 42, 89
1, 9614, Note_on_c, 9, 42, 0
1, 9615, Note_on_c, 9, 38, 127
1, 9839, Note_on_c, 9, 38, 0
1, 9840, Note_on_c, 9, 42, 83
1, 10079, Note_on_c, 9, 42, 0
1, 10080, Note_on_c, 9, 42, 87
1, 10080, Note_on_c, 9, 35, 123
1, 10319, Note_on_c, 9, 42, 0
1, 10320, Note_on_c, 9, 42, 85
1, 10559, Note_on_c, 9, 35, 0
1, 10559, Note_on_c, 9, 42, 0
1, 10560, Note_on_c, 9, 42, 83
1, 10574, Note_on_c, 9, 42, 0
1, 10575, Note_on_c, 9, 38, 127
1, 10799, Note_on_c, 9, 38, 0
1, 10800, Note_on_c, 9, 42, 91
1, 11039, Note_on_c, 9, 42, 0
1, 11040, Note_on_c, 9, 42, 89
1, 11055, Note_on_c, 9, 35, 124
1, 11279, Note_on_c, 9, 42, 0
1, 11279, Note_on_c, 9, 35, 0
1, 11280, Note_on_c, 9, 42, 89
1, 11519, Note_on_c, 9, 42, 0
1, 11535, Note_on_c, 9, 38, 127
1, 11535, Note_on_c, 9, 42, 89
1, 11759, Note_on_c, 9, 38, 0
1, 11759, Note_on_c, 9, 42, 0
1, 11775, Note_on_c, 9, 42, 89
1, 11999, Note_on_c, 9, 42, 0
1, 12030, Note_on_c, 9, 42, 85
1, 12030, Note_on_c, 9, 35, 118
1, 12119, Note_on_c, 9, 42, 0
1, 12255, Note_on_c, 9, 42, 82
1, 12479, Note_on_c, 9, 35, 0
1, 12479, Note_on_c, 9, 42, 0
1, 12495, Note_on_c, 9, 38, 127
1, 12495, Note_on_c, 9, 42, 87
1, 12719, Note_on_c, 9, 38, 0
1, 12719, Note_on_c, 9, 42, 0
1, 12720, Note_on_c, 9, 42, 85
1, 12959, Note_on_c, 9, 42, 0
1, 12960, Note_on_c, 9, 42, 85
1, 12975, Note_on_c, 9, 35, 122
1, 13199, Note_on_c, 9, 42, 0
1, 13199, Note_on_c, 9, 35, 0
1, 13200, Note_on_c, 9, 42, 85
1, 13439, Note_on_c, 9, 42, 0
1, 13440, Note_on_c, 9, 42, 85
1, 13454, Note_on_c, 9, 42, 0
1, 13455, Note_on_c, 9, 38, 127
1, 13679, Note_on_c, 9, 38, 0
1, 13680, Note_on_c, 9, 42, 87
1, 13919, Note_on_c, 9, 42, 0
1, 13920, Note_on_c, 9, 42, 85
1, 13935, Note_on_c, 9, 35, 123
1, 14159, Note_on_c, 9, 42, 0
1, 14159, Note_on_c, 9, 35, 0
1, 14160, Note_on_c, 9, 42, 83
1, 14399, Note_on_c, 9, 42, 0
1, 14400, Note_on_c, 9, 42, 85
1, 14414, Note_on_c, 9, 42, 0
1, 14415, Note_on_c, 9, 38, 127
1, 14639, Note_on_c, 9, 38, 0
1, 14640, Note_on_c, 9, 42, 80
1, 14879, Note_on_c, 9, 42, 0
1, 14880, Note_on_c, 9, 42, 93
1, 14895, Note_on_c, 9, 35, 121
1, 15119, Note_on_c, 9, 42, 0
1, 15119, Note_on_c, 9, 35, 0
1, 15120, Note_on_c, 9, 42, 85
1, 15359, Note_on_c, 9, 42, 0
1, 15360, Note_on_c, 9, 38, 127
1, 15360, Note_on_c, 9, 42, 85
1, 15599, Note_on_c, 9, 38, 0
1, 15599, Note_on_c, 9, 42, 0
1, 15615, Note_on_c, 9, 42, 79
1, 15839, Note_on_c, 9, 42, 0
1, 15855, Note_on_c, 9, 42, 85
1, 15855, Note_on_c, 9, 35, 124
1, 16079, Note_on_c, 9, 42, 0
1, 16079, Note_on_c, 9, 35, 0
1, 16095, Note_on_c, 9, 42, 82
1, 16319, Note_on_c, 9, 42, 0
1, 16335, Note_on_c, 9, 38, 127
1, 16335, Note_on_c, 9, 42, 85
1, 16559, Note_on_c, 9, 38, 0
1, 16559, Note_on_c, 9, 42, 0
1, 16575, Note_on_c, 9, 42, 83
1, 16799, Note_on_c, 9, 42, 0
1, 16800, Note_on_c, 9, 42, 79
1, 16815, Note_on_c, 9, 35, 123
1, 17039, Note_on_c, 9, 42, 0
1, 17039, Note_on_c, 9, 35, 0
1, 17055, Note_on_c, 9, 42, 73
1, 17279, Note_on_c, 9, 42, 0
1, 17295, Note_on_c, 9, 38, 127
1, 17295, Note_on_c, 9, 42, 83
1, 17519, Note_on_c, 9, 38, 0
1, 17519, Note_on_c, 9, 42, 0
1, 17520, Note_on_c, 9, 42, 77
1, 17759, Note_on_c, 9, 42, 0
1, 17760, Note_on_c, 9, 42, 85
1, 17760, Note_on_c, 9, 35, 121
1, 17999, Note_on_c, 9, 42, 0
1, 18000, Note_on_c, 9, 42, 82
1, 18239, Note_on_c, 9, 35, 0
1, 18239, Note_on_c, 9, 42, 0
1, 18240, Note_on_c, 9, 38, 127
1, 18254, Note_on_c, 9, 38, 0
1, 18255, Note_on_c, 9, 42, 83
1, 18479, Note_on_c, 9, 42, 0
1, 18480, Note_on_c, 9, 42, 80
1, 18719, Note_on_c, 9, 42, 0
1, 18720, Note_on_c, 9, 42, 85
1, 18720, Note_on_c, 9, 35, 122
1, 18959, Note_on_c, 9, 42, 0
1, 18975, Note_on_c, 9, 42, 85
1, 19199, Note_on_c, 9, 35, 0
1, 19199, Note_on_c, 9, 42, 0
1, 19200, Note_on_c, 9, 38, 127
1, 19200, Note_on_c, 9, 42, 83
1, 19439, Note_on_c, 9, 38, 0
1, 19439, Note_on_c, 9, 42, 0
1, 19440, Note_on_c, 9, 42, 80
1, 19679, Note_on_c, 9, 42, 0
1, 19680, Note_on_c, 9, 42, 82
1, 19695, Note_on_c, 9, 35, 121
1, 19919, Note_on_c, 9, 42, 0
1, 19919, Note_on_c, 9, 35, 0
1, 19920, Note_on_c, 9, 42, 85
1, 20159, Note_on_c, 9, 42, 0
1, 20160, Note_on_c, 9, 42, 85
1, 20174, Note_on_c, 9, 42, 0
1, 20175, Note_on_c, 9, 38, 127
1, 20399, Note_on_c, 9, 38, 0
1, 20400, Note_on_c, 9, 42, 70
1, 20639, Note_on_c, 9, 42, 0
1, 20655, Note_on_c, 9, 42, 83
1, 20655, Note_on_c, 9, 35, 121
1, 20879, Note_on_c, 9, 42, 0
1, 20879, Note_on_c, 9, 35, 0
1, 20895, Note_on_c, 9, 42, 80
1, 21119, Note_on_c, 9, 42, 0
1, 21135, Note_on_c, 9, 38, 127
1, 21135, Note_on_c, 9, 42, 83
1, 21359, Note_on_c, 9, 38, 0
1, 21359, Note_on_c, 9, 42, 0
1, 21375, Note_on_c, 9, 42, 83
1, 21599, Note_on_c, 9, 42, 0
1, 21600, Note_on_c, 9, 42, 85
1, 21600, Note_on_c, 9, 35, 120
1, 21839, Note_on_c, 9, 42, 0
1, 21840, Note_on_c, 9, 42, 77
1, 22079, Note_on_c, 9, 35, 0
1, 22079, Note_on_c, 9, 42, 0
1, 22080, Note_on_c, 9, 38, 127
1, 22080, Note_on_c, 9, 42, 80
1, 22319, Note_on_c, 9, 38, 0
1, 22319, Note_on_c, 9, 42, 0
1, 22320, Note_on_c, 9, 42, 82
1, 22559, Note_on_c, 9, 42, 0
1, 22560, Note_on_c, 9, 42, 80
1, 22560, Note_on_c, 9, 35, 119
1, 22799, Note_on_c, 9, 42, 0
1, 22815, Note_on_c, 9, 42, 89
1, 23039, Note_on_c, 9, 35, 0
1, 23039, Note_on_c, 9, 42, 0
1, 23055, Note_on_c, 9, 38, 127
1, 23055, Note_on_c, 9, 42, 82
1, 23279, Note_on_c, 9, 38, 0
1, 23279, Note_on_c, 9, 42, 0
1, 23295, Note_on_c, 9, 42, 87
1, 23519, Note_on_c, 9, 42, 0
1, 23535, Note_on_c, 9, 42, 82
1, 23535, Note_on_c, 9, 35, 120
1, 23759, Note_on_c, 9, 42, 0
1, 23759, Note_on_c, 9, 35, 0
1, 23775, Note_on_c, 9, 42, 89
1, 23999, Note_on_c, 9, 42, 0
1, 24015, Note_on_c, 9, 38, 126
1, 24015, Note_on_c, 9, 42, 85
1, 24239, Note_on_c, 9, 38, 0
1, 24239, Note_on_c, 9, 42, 0
1, 24255, Note_on_c, 9, 42, 87
1, 24479, Note_on_c, 9, 42, 0
1, 24495, Note_on_c, 9, 42, 83
1, 24495, Note_on_c, 9, 35, 121
1, 24719, Note_on_c, 9, 42, 0
1, 24719, Note_on_c, 9, 35, 0
1, 24735, Note_on_c, 9, 42, 87
1, 24959, Note_on_c, 9, 42, 0
1, 24975, Note_on_c, 9, 38, 127
1, 24975, Note_on_c, 9, 42, 82
1, 25199, Note_on_c, 9, 38, 0
1, 25199, Note_on_c, 9, 42, 0
1, 25200, Note_on_c, 9, 42, 87
1, 25439, Note_on_c, 9, 42, 0
1, 25440, Note_on_c, 9, 42, 82
1, 25440, Note_on_c, 9, 35, 118
1, 25679, Note_on_c, 9, 42, 0
1, 25680, Note_on_c, 9, 42, 83
1, 25919, Note_on_c, 9, 35, 0
1, 25919, Note_on_c, 9, 42, 0
1, 25920, Note_on_c, 9, 38, 127
1, 25920, Note_on_c, 9, 42, 85
1, 26159, Note_on_c, 9, 38, 0
1, 26159, Note_on_c, 9, 42, 0
1, 26160, Note_on_c, 9, 42, 80
1, 26399, Note_on_c, 9, 42, 0
1, 26400, Note_on_c, 9, 42, 85
1, 26400, Note_on_c, 9, 35, 118
1, 26639, Note_on_c, 9, 42, 0
1, 26655, Note_on_c, 9, 42, 85
1, 26879, Note_on_c, 9, 35, 0
1, 26879, Note_on_c, 9, 42, 0
1, 26880, Note_on_c, 9, 38, 127
1, 26894, Note_on_c, 9, 38, 0
1, 26895, Note_on_c, 9, 42, 80
1, 27119, Note_on_c, 9, 42, 0
1, 27120, Note_on_c, 9, 42, 87
1, 27359, Note_on_c, 9, 42, 0
1, 27360, Note_on_c, 9, 42, 91
1, 27375, Note_on_c, 9, 35, 118
1, 27599, Note_on_c, 9, 42, 0
1, 27599, Note_on_c, 9, 35, 0
1, 27615, Note_on_c, 9, 42, 77
1, 27839, Note_on_c, 9, 42, 0
1, 27840, Note_on_c, 9, 38, 124
1, 27854, Note_on_c, 9, 38, 0
1, 27855, Note_on_c, 9, 42, 83
1, 28079, Note_on_c, 9, 42, 0
1, 28080, Note_on_c, 9, 42, 83
1, 28319, Note_on_c, 9, 42, 0
1, 28320, Note_on_c, 9, 42, 87
1, 28320, Note_on_c, 9, 35, 118
1, 28559, Note_on_c, 9, 42, 0
1, 28560, Note_on_c, 9, 42, 85
1, 28799, Note_on_c, 9, 35, 0
1, 28799, Note_on_c, 9, 42, 0
1, 28800, Note_on_c, 9, 38, 127
1, 28800, Note_on_c, 9, 42, 85
1, 29039, Note_on_c, 9, 38, 0
1, 29039, Note_on_c, 9, 42, 0
1, 29040, Note_on_c, 9, 42, 83
1, 29279, Note_on_c, 9, 42, 0
1, 29280, Note_on_c, 9, 42, 91
1, 29295, Note_on_c, 9, 35, 117
1, 29519, Note_on_c, 9, 42, 0
1, 29519, Note_on_c, 9, 35, 0
1, 29520, Note_on_c, 9, 42, 82
1, 29759, Note_on_c, 9, 42, 0
1, 29775, Note_on_c, 9, 38, 127
1, 29775, Note_on_c, 9, 42, 87
1, 29999, Note_on_c, 9, 38, 0
1, 29999, Note_on_c, 9, 42, 0
1, 30000, Note_on_c, 9, 42, 82
1, 30239, Note_on_c, 9, 42, 0
1, 30240, Note_on_c, 9, 42, 87
1, 30240, Note_on_c, 9, 35, 121
1, 30479, Note_on_c, 9, 42, 0
1, 30495, Note_on_c, 9, 42, 82
1, 30719, Note_on_c, 9, 35, 0
1, 30719, Note_on_c, 9, 42, 0
1, 30720, Note_on_c, 9, 38, 127
1, 30720, Note_on_c, 9, 42, 76
1, 30959, Note_on_c, 9, 38, 0
1, 30959, Note_on_c, 9, 42, 0
1, 30960, Note_on_c, 9, 42, 80
1, 31199, Note_on_c, 9, 42, 0
1, 31200, Note_on_c, 9, 42, 85
1, 31200, Note_on_c, 9, 35, 118
1, 31439, Note_on_c, 9, 42, 0
1, 31440, Note_on_c, 9, 42, 83
1, 31679, Note_on_c, 9, 35, 0
1, 31679, Note_on_c, 9, 42, 0
1, 31680, Note_on_c, 9, 38, 127
1, 31680, Note_on_c, 9, 42, 82
1, 31919, Note_on_c, 9, 38, 0
1, 31919, Note_on_c, 9, 42, 0
1, 31920, Note_on_c, 9, 42, 76
1, 32159, Note_on_c, 9, 42, 0
1, 32175, Note_on_c, 9, 42, 82
1, 32175, Note_on_c, 9, 35, 117
1, 32399, Note_on_c, 9, 42, 0
1, 32399, Note_on_c, 9, 35, 0
1, 32400, Note_on_c, 9, 42, 75
1, 32639, Note_on_c, 9, 42, 0
1, 32640, Note_on_c, 9, 38, 127
1, 32640, Note_on_c, 9, 42, 80
1, 32879, Note_on_c, 9, 38, 0
1, 32879, Note_on_c, 9, 42, 0
1, 32880, Note_on_c, 9, 42, 76
1, 33119, Note_on_c, 9, 42, 0
1, 33120, Note_on_c, 9, 42, 82
1, 33120, Note_on_c, 9, 35, 120
1, 33359, Note_on_c, 9, 42, 0
1, 33360, Note_on_c, 9, 42, 85
1, 33599, Note_on_c, 9, 35, 0
1, 33599, Note_on_c, 9, 42, 0
1, 33600, Note_on_c, 9, 38, 124
1, 33600, Note_on_c, 9, 42, 83
1, 33839, Note_on_c, 9, 38, 0
1, 33839, Note_on_c, 9, 42, 0
1, 33840, Note_on_c, 9, 42, 82
1, 34079, Note_on_c, 9, 42, 0
1, 34080, Note_on_c, 9, 42, 87
1, 34080, Note_on_c, 9, 35, 120
1, 34319, Note_on_c, 9, 42, 0
1, 34335, Note_on_c, 9, 42, 85
1, 34559, Note_on_c, 9, 35, 0
1, 34559, Note_on_c, 9, 42, 0
1, 34575, Note_on_c, 9, 38, 124
1, 34575, Note_on_c, 9, 42, 85
1, 34799, Note_on_c, 9, 38, 0
1, 34799, Note_on_c, 9, 42, 0
1, 34815, Note_on_c, 9, 42, 83
1, 35039, Note_on_c, 9, 42, 0
1, 35040, Note_on_c, 9, 42, 85
1, 35040, Note_on_c, 9, 35, 121
1, 35279, Note_on_c, 9, 42, 0
1, 35280, Note_on_c, 9, 42, 82
1, 35519, Note_on_c, 9, 35, 0
1, 35519, Note_on_c, 9, 42, 0
1, 35535, Note_on_c, 9, 38, 122
1, 35535, Note_on_c, 9, 42, 83
1, 35759, Note_on_c, 9, 38, 0
1, 35759, Note_on_c, 9, 42, 0
1, 35760, Note_on_c, 9, 42, 82
1, 35999, Note_on_c, 9, 42, 0
1, 36000, Note_on_c, 9, 42, 83
1, 36000, Note_on_c, 9, 35, 119
1, 36239, Note_on_c, 9, 42, 0
1, 36240, Note_on_c, 9, 42, 82
1, 36479, Note_on_c, 9, 35, 0
1, 36479, Note_on_c, 9, 42, 0
1, 36480, Note_on_c, 9, 38, 127
1, 36480, Note_on_c, 9, 42, 82
1, 36719, Note_on_c, 9, 38, 0
1, 36719, Note_on_c, 9, 42, 0
1, 36720, Note_on_c, 9, 42, 79
1, 36959, Note_on_c, 9, 42, 0
1, 36960, Note_on_c, 9, 42, 85
1, 36960, Note_on_c, 9, 35, 122
1, 37199, Note_on_c, 9, 42, 0
1, 37200, Note_on_c, 9, 42, 77
1, 37439, Note_on_c, 9, 35, 0
1, 37439, Note_on_c, 9, 42, 0
1, 37440, Note_on_c, 9, 38, 122
1, 37440, Note_on_c, 9, 42, 83
1, 37679, Note_on_c, 9, 38, 0
1, 37679, Note_on_c, 9, 42, 0
1, 37680, Note_on_c, 9, 42, 79
1, 37919, Note_on_c, 9, 42, 0
1, 37920, Note_on_c, 9, 42, 85
1, 37935, Note_on_c, 9, 35, 118
1, 38159, Note_on_c, 9, 42, 0
1, 38159, Note_on_c, 9, 35, 0
1, 38160, Note_on_c, 9, 42, 73
1, 38399, Note_on_c, 9, 42, 0
1, 38400, Note_on_c, 9, 38, 123
1, 38400, Note_on_c, 9, 42, 82
1, 38639, Note_on_c, 9, 38, 0
1, 38639, Note_on_c, 9, 42, 0
1, 38655, Note_on_c, 9, 42, 75
1, 38879, Note_on_c, 9, 42, 0
1, 38895, Note_on_c, 9, 42, 80
1, 38895, Note_on_c, 9, 35, 117
1, 39119, Note_on_c, 9, 42, 0
1, 39119, Note_on_c, 9, 35, 0
1, 39120, Note_on_c, 9, 42, 77
1, 39359, Note_on_c, 9, 42, 0
1, 39360, Note_on_c, 9, 42, 82
1, 39374, Note_on_c, 9, 42, 0
1, 39375, Note_on_c, 9, 38, 124
1, 39599, Note_on_c, 9, 38, 0
1, 39600, Note_on_c, 9, 42, 79
1, 39839, Note_on_c, 9, 42, 0
1, 39840, Note_on_c, 9, 42, 83
1, 39855, Note_on_c, 9, 35, 117
1, 40079, Note_on_c, 9, 42, 0
1, 40079, Note_on_c, 9, 35, 0
1, 40095, Note_on_c, 9, 42, 73
1, 40319, Note_on_c, 9, 42, 0
1, 40335, Note_on_c, 9, 42, 83
1, 40349, Note_on_c, 9, 42, 0
1, 40350, Note_on_c, 9, 38, 123
1, 40439, Note_on_c, 9, 38, 0
1, 40575, Note_on_c, 9, 42, 83
1, 40799, Note_on_c, 9, 42, 0
1, 40800, Note_on_c, 9, 42, 83
1, 40815, Note_on_c, 9, 35, 118
1, 41039, Note_on_c, 9, 42, 0
1, 41039, Note_on_c, 9, 35, 0
1, 41040, Note_on_c, 9, 42, 80
1, 41279, Note_on_c, 9, 42, 0
1, 41280, Note_on_c, 9, 42, 82
1, 41294, Note_on_c, 9, 42, 0
1, 41295, Note_on_c, 9, 38, 123
1, 41519, Note_on_c, 9, 38, 0
1, 41520, Note_on_c, 9, 42, 80
1, 41759, Note_on_c, 9, 42, 0
1, 41760, Note_on_c, 9, 42, 83
1, 41775, Note_on_c, 9, 35, 121
1, 41999, Note_on_c, 9, 42, 0
1, 41999, Note_on_c, 9, 35, 0
1, 42015, Note_on_c, 9, 42, 82
1, 42239, Note_on_c, 9, 42, 0
1, 42255, Note_on_c, 9, 38, 123
1, 42255, Note_on_c, 9, 42, 82
1, 42479, Note_on_c, 9, 38, 0
1, 42479, Note_on_c, 9, 42, 0
1, 42495, Note_on_c, 9, 42, 77
1, 42719, Note_on_c, 9, 42, 0
1, 42735, Note_on_c, 9, 42, 87
1, 42735, Note_on_c, 9, 35, 117
1, 42959, Note_on_c, 9, 42, 0
1, 42959, Note_on_c, 9, 35, 0
1, 42975, Note_on_c, 9, 42, 75
1, 43199, Note_on_c, 9, 42, 0
1, 43215, Note_on_c, 9, 38, 124
1, 43215, Note_on_c, 9, 42, 76
1, 43439, Note_on_c, 9, 38, 0
1, 43439, Note_on_c, 9, 42, 0
1, 43440, Note_on_c, 9, 42, 76
1, 43679, Note_on_c, 9, 42, 0
1, 43680, Note_on_c, 9, 42, 77
1, 43695, Note_on_c, 9, 35, 117
1, 43919, Note_on_c, 9, 42, 0
1, 43919, Note_on_c, 9, 35, 0
1, 43920, Note_on_c, 9, 42, 72
1, 44159, Note_on_c, 9, 42, 0
1, 44160, Note_on_c, 9, 38, 123
1, 44160, Note_on_c, 9, 42, 75
1, 44399, Note_on_c, 9, 38, 0
1, 44399, Note_on_c, 9, 42, 0
1, 44400, Note_on_c, 9, 42, 76
1, 44639, Note_on_c, 9, 42, 0
1, 44640, Note_on_c, 9, 42, 80
1, 44655, Note_on_c, 9, 35, 119
1, 44879, Note_on_c, 9, 42, 0
1, 44879, Note_on_c, 9, 35, 0
1, 44880, Note_on_c, 9, 42, 87
1, 45119, Note_on_c, 9, 42, 0
1, 45120, Note_on_c, 9, 38, 123
1, 45120, Note_on_c, 9, 42, 79
1, 45359, Note_on_c, 9, 38, 0
1, 45359, Note_on_c, 9, 42, 0
1, 45360, Note_on_c, 9, 42, 83
1, 45599, Note_on_c, 9, 42, 0
1, 45600, Note_on_c, 9, 42, 80
1, 45615, Note_on_c, 9, 35, 118
1, 45839, Note_on_c, 9, 42, 0
1, 45839, Note_on_c, 9, 35, 0
1, 45840, Note_on_c, 9, 42, 72
1, 46079, Note_on_c, 9, 42, 0
1, 46080, Note_on_c, 9, 42, 87
1, 46094, Note_on_c, 9, 42, 0
1, 46095, Note_on_c, 9, 38, 123
1, 46319, Note_on_c, 9, 38, 0
1, 46320, Note_on_c, 9, 42, 85
1, 46559, Note_on_c, 9, 42, 0
1, 46560, Note_on_c, 9, 42, 89
1, 46560, Note_on_c, 9, 35, 120
1, 46799, Note_on_c, 9, 42, 0
1, 46800, Note_on_c, 9, 42, 85
1, 47039, Note_on_c, 9, 35, 0
1, 47039, Note_on_c, 9, 42, 0
1, 47040, Note_on_c, 9, 38, 124
1, 47040, Note_on_c, 9, 42, 85
1, 47279, Note_on_c, 9, 38, 0
1, 47279, Note_on_c, 9, 42, 0
1, 47280, Note_on_c, 9, 42, 76
1, 47519, Note_on_c, 9, 42, 0
1, 47520, Note_on_c, 9, 42, 85
1, 47535, Note_on_c, 9, 35, 118
1, 47759, Note_on_c, 9, 42, 0
1, 47759, Note_on_c, 9, 35, 0
1, 47775, Note_on_c, 9, 42, 77
1, 47999, Note_on_c, 9, 42, 0
1, 48000, Note_on_c, 9, 42, 82
1, 48014, Note_on_c, 9, 42, 0
1, 48015, Note_on_c, 9, 38, 127
1, 48239, Note_on_c, 9, 38, 0
1, 48240, Note_on_c, 9, 42, 80
1, 48479, Note_on_c, 9, 42, 0
1, 48480, Note_on_c, 9, 42, 82
1, 48495, Note_on_c, 9, 35, 125
1, 48719, Note_on_c, 9, 42, 0
1, 48719, Note_on_c, 9, 35, 0
1, 48720, Note_on_c, 9, 42, 73
1, 48959, Note_on_c, 9, 42, 0
1, 48960, Note_on_c, 9, 42, 80
1, 48974, Note_on_c, 9, 42, 0
1, 48975, Note_on_c, 9, 38, 127
1, 49199, Note_on_c, 9, 38, 0
1, 49200, Note_on_c, 9, 42, 79
1, 49439, Note_on_c, 9, 42, 0
1, 49440, Note_on_c, 9, 42, 82
1, 49455, Note_on_c, 9, 35, 108
1, 49679, Note_on_c, 9, 42, 0
1, 49679, Note_on_c, 9, 35, 0
1, 49680, Note_on_c, 9, 42, 83
1, 49694, Note_on_c, 9, 42, 0
1, 49695, Note_on_c, 9, 38, 126
1, 49919, Note_on_c, 9, 38, 0
1, 49935, Note_on_c, 9, 42, 82
1, 49949, Note_on_c, 9, 42, 0
1, 49950, Note_on_c, 9, 38, 127
1, 50039, Note_on_c, 9, 38, 0
1, 50190, Note_on_c, 9, 42, 80
1, 50204, Note_on_c, 9, 42, 0
1, 50205, Note_on_c, 9, 38, 127
1, 50399, Note_on_c, 9, 38, 0
1, 50430, Note_on_c, 9, 35, 124
1, 50445, Note_on_c, 9, 49, 101
1, 50639, Note_on_c, 9, 49, 0
1, 50670, Note_on_c, 9, 42, 77
1, 50759, Note_on_c, 9, 42, 0
1, 50879, Note_on_c, 9, 35, 0
1, 50880, Note_on_c, 9, 38, 127
1, 50880, Note_on_c, 9, 42, 83
1, 51119, Note_on_c, 9, 38, 0
1, 51119, Note_on_c, 9, 42, 0
1, 51135, Note_on_c, 9, 42, 87
1, 51359, Note_on_c, 9, 42, 0
1, 51360, Note_on_c, 9, 35, 117
1, 51375, Note_on_c, 9, 42, 80
1, 51599, Note_on_c, 9, 42, 0
1, 51615, Note_on_c, 9, 42, 76
1, 51839, Note_on_c, 9, 35, 0
1, 51839, Note_on_c, 9, 42, 0
1, 51840, Note_on_c, 9, 38, 126
1, 51854, Note_on_c, 9, 38, 0
1, 51855, Note_on_c, 9, 42, 82
1, 52079, Note_on_c, 9, 42, 0
1, 52080, Note_on_c, 9, 42, 82
1, 52319, Note_on_c, 9, 42, 0
1, 52320, Note_on_c, 9, 35, 119
1, 52335, Note_on_c, 9, 42, 85
1, 52559, Note_on_c, 9, 42, 0
1, 52575, Note_on_c, 9, 42, 71
1, 52799, Note_on_c, 9, 35, 0
1, 52799, Note_on_c, 9, 42, 0
1, 52800, Note_on_c, 9, 38, 120
1, 52814, Note_on_c, 9, 38, 0
1, 52815, Note_on_c, 9, 42, 79
1, 53039, Note_on_c, 9, 42, 0
1, 53070, Note_on_c, 9, 42, 83
1, 53159, Note_on_c, 9, 42, 0
1, 53310, Note_on_c, 9, 42, 83
1, 53310, Note_on_c, 9, 35, 119
1, 53399, Note_on_c, 9, 42, 0
1, 53535, Note_on_c, 9, 42, 83
1, 53759, Note_on_c, 9, 35, 0
1, 53759, Note_on_c, 9, 42, 0
1, 53775, Note_on_c, 9, 42, 80
1, 53789, Note_on_c, 9, 42, 0
1, 53790, Note_on_c, 9, 38, 123
1, 54044, Note_on_c, 9, 38, 0
1, 54045, Note_on_c, 9, 42, 76
1, 54239, Note_on_c, 9, 42, 0
1, 54300, Note_on_c, 9, 42, 83
1, 54315, Note_on_c, 9, 35, 118
1, 54479, Note_on_c, 9, 42, 0
1, 54510, Note_on_c, 9, 42, 83
1, 54599, Note_on_c, 9, 42, 0
1, 54719, Note_on_c, 9, 35, 0
1, 54720, Note_on_c, 9, 42, 82
1, 54734, Note_on_c, 9, 42, 0
1, 54735, Note_on_c, 9, 38, 127
1, 54959, Note_on_c, 9, 38, 0
1, 54960, Note_on_c, 9, 42, 76
1, 55199, Note_on_c, 9, 42, 0
1, 55200, Note_on_c, 9, 42, 79
1, 55200, Note_on_c, 9, 35, 115
1, 55439, Note_on_c, 9, 42, 0
1, 55440, Note_on_c, 9, 42, 76
1, 55679, Note_on_c, 9, 35, 0
1, 55679, Note_on_c, 9, 42, 0
1, 55680, Note_on_c, 9, 38, 127
1, 55694, Note_on_c, 9, 38, 0
1, 55695, Note_on_c, 9, 42, 82
1, 55919, Note_on_c, 9, 42, 0
1, 55920, Note_on_c, 9, 42, 76
1, 56159, Note_on_c, 9, 42, 0
1, 56160, Note_on_c, 9, 42, 80
1, 56160, Note_on_c, 9, 35, 116
1, 56399, Note_on_c, 9, 42, 0
1, 56400, Note_on_c, 9, 42, 71
1, 56639, Note_on_c, 9, 35, 0
1, 56639, Note_on_c, 9, 42, 0
1, 56640, Note_on_c, 9, 42, 68
1, 56654, Note_on_c, 9, 42, 0
1, 56655, Note_on_c, 9, 38, 127
1, 56879, Note_on_c, 9, 38, 0
1, 56880, Note_on_c, 9, 42, 79
1, 57119, Note_on_c, 9, 42, 0
1, 57165, Note_on_c, 9, 42, 71
1, 57180, Note_on_c, 9, 35, 117
1, 57359, Note_on_c, 9, 42, 0
1, 57359, Note_on_c, 9, 35, 0
1, 57390, Note_on_c, 9, 42, 72
1, 57479, Note_on_c, 9, 42, 0
1, 57615, Note_on_c, 9, 38, 126
1, 57615, Note_on_c, 9, 42, 80
1, 57839, Note_on_c, 9, 38, 0
1, 57839, Note_on_c, 9, 42, 0
1, 57870, Note_on_c, 9, 42, 79
1, 57959, Note_on_c, 9, 42, 0
1, 58110, Note_on_c, 9, 42, 82
1, 58110, Note_on_c, 9, 35, 116
1, 58199, Note_on_c, 9, 42, 0
1, 58335, Note_on_c, 9, 42, 73
1, 58559, Note_on_c, 9, 35, 0
1, 58559, Note_on_c, 9, 42, 0
1, 58560, Note_on_c, 9, 38, 127
1, 58560, Note_on_c, 9, 42, 77
1, 58799, Note_on_c, 9, 38, 0
1, 58799, Note_on_c, 9, 42, 0
1, 58800, Note_on_c, 9, 42, 80
1, 59039, Note_on_c, 9, 42, 0
1, 59040, Note_on_c, 9, 42, 82
1, 59040, Note_on_c, 9, 35, 116
1, 59279, Note_on_c, 9, 42, 0
1, 59280, Note_on_c, 9, 42, 75
1, 59519, Note_on_c, 9, 35, 0
1, 59519, Note_on_c, 9, 42, 0
1, 59520, Note_on_c, 9, 38, 127
1, 59520, Note_on_c, 9, 42, 82
1, 59759, Note_on_c, 9, 38, 0
1, 59759, Note_on_c, 9, 42, 0
1, 59760, Note_on_c, 9, 42, 76
1, 59999, Note_on_c, 9, 42, 0
1, 60000, Note_on_c, 9, 42, 79
1, 60015, Note_on_c, 9, 35, 120
1, 60239, Note_on_c, 9, 42, 0
1, 60239, Note_on_c, 9, 35, 0
1, 60240, Note_on_c, 9, 42, 77
1, 60479, Note_on_c, 9, 42, 0
1, 60480, Note_on_c, 9, 38, 127
1, 60480, Note_on_c, 9, 42, 79
1, 60719, Note_on_c, 9, 38, 0
1, 60719, Note_on_c, 9, 42, 0
1, 60750, Note_on_c, 9, 42, 75
1, 60839, Note_on_c, 9, 42, 0
1, 61005, Note_on_c, 9, 42, 80
1, 61020, Note_on_c, 9, 35, 120
1, 61199, Note_on_c, 9, 42, 0
1, 61199, Note_on_c, 9, 35, 0
1, 61260, Note_on_c, 9, 42, 79
1, 61439, Note_on_c, 9, 42, 0
1, 61500, Note_on_c, 9, 38, 127
1, 61500, Note_on_c, 9, 42, 76
1, 61769, Note_on_c, 9, 38, 0
1, 61769, Note_on_c, 9, 42, 0
1, 61770, Note_on_c, 9, 42, 80
1, 61799, Note_on_c, 9, 42, 0
1, 61995, Note_on_c, 9, 42, 82
1, 62010, Note_on_c, 9, 35, 117
1, 62204, Note_on_c, 9, 42, 0
1, 62205, Note_on_c, 9, 42, 79
1, 62384, Note_on_c, 9, 42, 0
1, 62385, Note_on_c, 9, 38, 127
1, 62385, Note_on_c, 9, 42, 80
1, 62399, Note_on_c, 9, 35, 0
1, 62399, Note_on_c, 9, 38, 0
1, 62399, Note_on_c, 9, 42, 0
1, 62640, Note_on_c, 9, 42, 76
1, 62879, Note_on_c, 9, 42, 0
1, 62880, Note_on_c, 9, 42, 76
1, 62880, Note_on_c, 9, 35, 114
1, 63119, Note_on_c, 9, 42, 0
1, 63120, Note_on_c, 9, 42, 75
1, 63359, Note_on_c, 9, 35, 0
1, 63359, Note_on_c, 9, 42, 0
1, 63360, Note_on_c, 9, 38, 127
1, 63360, Note_on_c, 9, 42, 73
1, 63599, Note_on_c, 9, 38, 0
1, 63599, Note_on_c, 9, 42, 0
1, 63600, Note_on_c, 9, 42, 80
1, 63839, Note_on_c, 9, 42, 0
1, 63840, Note_on_c, 9, 42, 114
1, 63855, Note_on_c, 9, 35, 115
1, 64079, Note_on_c, 9, 42, 0
1, 64079, Note_on_c, 9, 35, 0
1, 64080, Note_on_c, 9, 42, 83
1, 64319, Note_on_c, 9, 42, 0
1, 64320, Note_on_c, 9, 42, 102
1, 64334, Note_on_c, 9, 42, 0
1, 64335, Note_on_c, 9, 38, 127
1, 64559, Note_on_c, 9, 38, 0
1, 64590, Note_on_c, 9, 42, 79
1, 64679, Note_on_c, 9, 42, 0
1, 64845, Note_on_c, 9, 42, 93
1, 64860, Note_on_c, 9, 35, 113
1, 65039, Note_on_c, 9, 42, 0
1, 65039, Note_on_c, 9, 35, 0
1, 65070, Note_on_c, 9, 42, 85
1, 65159, Note_on_c, 9, 42, 0
1, 65295, Note_on_c, 9, 42, 85
1, 65309, Note_on_c, 9, 42, 0
1, 65310, Note_on_c, 9, 38, 127
1, 65399, Note_on_c, 9, 38, 0
1, 65550, Note_on_c, 9, 42, 85
1, 65639, Note_on_c, 9, 42, 0
1, 65775, Note_on_c, 9, 42, 80
1, 65790, Note_on_c, 9, 35, 119
1, 65999, Note_on_c, 9, 42, 0
1, 66015, Note_on_c, 9, 42, 87
1, 66239, Note_on_c, 9, 35, 0
1, 66239, Note_on_c, 9, 42, 0
1, 66255, Note_on_c, 9, 38, 127
1, 66255, Note_on_c, 9, 49, 86
1, 66479, Note_on_c, 9, 38, 0
1, 66479, Note_on_c, 9, 49, 0
1, 66495, Note_on_c, 9, 42, 85
1, 66719, Note_on_c, 9, 42, 0
1, 66735, Note_on_c, 9, 42, 79
1, 66735, Note_on_c, 9, 35, 111
1, 66959, Note_on_c, 9, 42, 0
1, 66959, Note_on_c, 9, 35, 0
1, 66975, Note_on_c, 9, 42, 80
1, 67199, Note_on_c, 9, 42, 0
1, 67215, Note_on_c, 9, 38, 127
1, 67215, Note_on_c, 9, 42, 83
1, 67439, Note_on_c, 9, 38, 0
1, 67439, Note_on_c, 9, 42, 0
1, 67455, Note_on_c, 9, 42, 93
1, 67679, Note_on_c, 9, 42, 0
1, 67680, Note_on_c, 9, 42, 87
1, 67680, Note_on_c, 9, 35, 115
1, 67919, Note_on_c, 9, 42, 0
1, 67935, Note_on_c, 9, 42, 83
1, 68159, Note_on_c, 9, 35, 0
1, 68159, Note_on_c, 9, 42, 0
1, 68160, Note_on_c, 9, 38, 127
1, 68174, Note_on_c, 9, 38, 0
1, 68175, Note_on_c, 9, 42, 93
1, 68399, Note_on_c, 9, 42, 0
1, 68400, Note_on_c, 9, 42, 85
1, 68639, Note_on_c, 9, 42, 0
1, 68640, Note_on_c, 9, 42, 97
1, 68640, Note_on_c, 9, 35, 118
1, 68879, Note_on_c, 9, 42, 0
1, 68880, Note_on_c, 9, 42, 89
1, 69119, Note_on_c, 9, 35, 0
1, 69119, Note_on_c, 9, 42, 0
1, 69120, Note_on_c, 9, 38, 127
1, 69134, Note_on_c, 9, 38, 0
1, 69135, Note_on_c, 9, 42, 87
1, 69359, Note_on_c, 9, 42, 0
1, 69375, Note_on_c, 9, 42, 87
1, 69599, Note_on_c, 9, 42, 0
1, 69600, Note_on_c, 9, 42, 87
1, 69600, Note_on_c, 9, 35, 119
1, 69839, Note_on_c, 9, 42, 0
1, 69840, Note_on_c, 9, 42, 87
1, 70079, Note_on_c, 9, 35, 0
1, 70079, Note_on_c, 9, 42, 0
1, 70080, Note_on_c, 9, 38, 126
1, 70080, Note_on_c, 9, 42, 89
1, 70319, Note_on_c, 9, 38, 0
1, 70319, Note_on_c, 9, 42, 0
1, 70320, Note_on_c, 9, 42, 87
1, 70559, Note_on_c, 9, 42, 0
1, 70560, Note_on_c, 9, 42, 87
1, 70560, Note_on_c, 9, 35, 115
1, 70799, Note_on_c, 9, 42, 0
1, 70815, Note_on_c, 9, 42, 83
1, 71039, Note_on_c, 9, 35, 0
1, 71039, Note_on_c, 9, 42, 0
1, 71040, Note_on_c, 9, 38, 127
1, 71054, Note_on_c, 9, 38, 0
1, 71055, Note_on_c, 9, 42, 85
1, 71279, Note_on_c, 9, 42, 0
1, 71295, Note_on_c, 9, 42, 83
1, 71519, Note_on_c, 9, 42, 0
1, 71520, Note_on_c, 9, 35, 121
1, 71535, Note_on_c, 9, 42, 85
1, 71759, Note_on_c, 9, 42, 0
1, 71775, Note_on_c, 9, 42, 82
1, 71999, Note_on_c, 9, 35, 0
1, 71999, Note_on_c, 9, 42, 0
1, 72000, Note_on_c, 9, 38, 126
1, 72000, Note_on_c, 9, 42, 85
1, 72239, Note_on_c, 9, 38, 0
1, 72239, Note_on_c, 9, 42, 0
1, 72240, Note_on_c, 9, 42, 83
1, 72479, Note_on_c, 9, 42, 0
1, 72480, Note_on_c, 9, 42, 83
1, 72480, Note_on_c, 9, 35, 124
1, 72719, Note_on_c, 9, 42, 0
1, 72720, Note_on_c, 9, 42, 89
1, 72959, Note_on_c, 9, 35, 0
1, 72959, Note_on_c, 9, 42, 0
1, 72960, Note_on_c, 9, 38, 123
1, 72960, Note_on_c, 9, 42, 89
1, 73199, Note_on_c, 9, 38, 0
1, 73199, Note_on_c, 9, 42, 0
1, 73200, Note_on_c, 9, 42, 83
1, 73439, Note_on_c, 9, 42, 0
1, 73440, Note_on_c, 9, 42, 87
1, 73440, Note_on_c, 9, 35, 121
1, 73679, Note_on_c, 9, 42, 0
1, 73680, Note_on_c, 9, 42, 85
1, 73919, Note_on_c, 9, 35, 0
1, 73919, Note_on_c, 9, 42, 0
1, 73920, Note_on_c, 9, 38, 122
1, 73920, Note_on_c, 9, 42, 83
1, 74159, Note_on_c, 9, 38, 0
1, 74159, Note_on_c, 9, 42, 0
1, 74160, Note_on_c, 9, 42, 91
1, 74399, Note_on_c, 9, 42, 0
1, 74400, Note_on_c, 9, 42, 89
1, 74400, Note_on_c, 9, 35, 119
1, 74639, Note_on_c, 9, 42, 0
1, 74640, Note_on_c, 9, 42, 89
1, 74879, Note_on_c, 9, 35, 0
1, 74879, Note_on_c, 9, 42, 0
1, 74880, Note_on_c, 9, 38, 122
1, 74880, Note_on_c, 9, 42, 89
1, 75119, Note_on_c, 9, 38, 0
1, 75119, Note_on_c, 9, 42, 0
1, 75135, Note_on_c, 9, 42, 89
1, 75359, Note_on_c, 9, 42, 0
1, 75360, Note_on_c, 9, 35, 123
1, 75375, Note_on_c, 9, 42, 85
1, 75599, Note_on_c, 9, 42, 0
1, 75615, Note_on_c, 9, 42, 82
1, 75839, Note_on_c, 9, 35, 0
1, 75839, Note_on_c, 9, 42, 0
1, 75840, Note_on_c, 9, 38, 120
1, 75854, Note_on_c, 9, 38, 0
1, 75855, Note_on_c, 9, 42, 87
1, 76079, Note_on_c, 9, 42, 0
1, 76095, Note_on_c, 9, 42, 85
1, 76319, Note_on_c, 9, 42, 0
1, 76335, Note_on_c, 9, 42, 85
1, 76335, Note_on_c, 9, 35, 123
1, 76559, Note_on_c, 9, 42, 0
1, 76559, Note_on_c, 9, 35, 0
1, 76560, Note_on_c, 9, 42, 85
1, 76799, Note_on_c, 9, 42, 0
1, 76800, Note_on_c, 9, 38, 124
1, 76800, Note_on_c, 9, 42, 85
1, 77039, Note_on_c, 9, 38, 0
1, 77039, Note_on_c, 9, 42, 0
1, 77040, Note_on_c, 9, 42, 87
1, 77279, Note_on_c, 9, 42, 0
1, 77280, Note_on_c, 9, 42, 85
1, 77295, Note_on_c, 9, 35, 123
1, 77519, Note_on_c, 9, 42, 0
1, 77519, Note_on_c, 9, 35, 0
1, 77535, Note_on_c, 9, 42, 83
1, 77759, Note_on_c, 9, 42, 0
1, 77775, Note_on_c, 9, 38, 124
1, 77775, Note_on_c, 9, 42, 85
1, 77999, Note_on_c, 9, 38, 0
1, 77999, Note_on_c, 9, 42, 0
1, 78000, Note_on_c, 9, 42, 80
1, 78239, Note_on_c, 9, 42, 0
1, 78240, Note_on_c, 9, 42, 93
1, 78240, Note_on_c, 9, 35, 122
1, 78479, Note_on_c, 9, 42, 0
1, 78480, Note_on_c, 9, 42, 85
1, 78719, Note_on_c, 9, 35, 0
1, 78719, Note_on_c, 9, 42, 0
1, 78720, Note_on_c, 9, 38, 124
1, 78720, Note_on_c, 9, 42, 85
1, 78959, Note_on_c, 9, 38, 0
1, 78959, Note_on_c, 9, 42, 0
1, 78960, Note_on_c, 9, 42, 79
1, 79199, Note_on_c, 9, 42, 0
1, 79200, Note_on_c, 9, 42, 85
1, 79200, Note_on_c, 9, 35, 123
1, 79439, Note_on_c, 9, 42, 0
1, 79440, Note_on_c, 9, 42, 82
1, 79679, Note_on_c, 9, 35, 0
1, 79679, Note_on_c, 9, 42, 0
1, 79680, Note_on_c, 9, 38, 126
1, 79680, Note_on_c, 9, 42, 85
1, 79919, Note_on_c, 9, 38, 0
1, 79919, Note_on_c, 9, 42, 0
1, 79920, Note_on_c, 9, 42, 83
1, 80159, Note_on_c, 9, 42, 0
1, 80160, Note_on_c, 9, 42, 79
1, 80160, Note_on_c, 9, 35, 123
1, 80399, Note_on_c, 9, 42, 0
1, 80415, Note_on_c, 9, 42, 73
1, 80639, Note_on_c, 9, 35, 0
1, 80639, Note_on_c, 9, 42, 0
1, 80655, Note_on_c, 9, 38, 127
1, 80655, Note_on_c, 9, 42, 83
1, 80879, Note_on_c, 9, 38, 0
1, 80879, Note_on_c, 9, 42, 0
1, 80895, Note_on_c, 9, 42, 77
1, 81119, Note_on_c, 9, 42, 0
1, 81120, Note_on_c, 9, 35, 123
1, 81135, Note_on_c, 9, 42, 85
1, 81359, Note_on_c, 9, 42, 0
1, 81360, Note_on_c, 9, 42, 82
1, 81599, Note_on_c, 9, 35, 0
1, 81599, Note_on_c, 9, 42, 0
1, 81600, Note_on_c, 9, 38, 127
1, 81600, Note_on_c, 9, 42, 83
1, 81839, Note_on_c, 9, 38, 0
1, 81839, Note_on_c, 9, 42, 0
1, 81855, Note_on_c, 9, 42, 80
1, 82079, Note_on_c, 9, 42, 0
1, 82095, Note_on_c, 9, 42, 85
1, 82095, Note_on_c, 9, 35, 123
1, 82319, Note_on_c, 9, 42, 0
1, 82319, Note_on_c, 9, 35, 0
1, 82335, Note_on_c, 9, 42, 85
1, 82559, Note_on_c, 9, 42, 0
1, 82560, Note_on_c, 9, 38, 126
1, 82560, Note_on_c, 9, 42, 83
1, 82799, Note_on_c, 9, 38, 0
1, 82799, Note_on_c, 9, 42, 0
1, 82800, Note_on_c, 9, 42, 80
1, 83039, Note_on_c, 9, 42, 0
1, 83040, Note_on_c, 9, 42, 82
1, 83055, Note_on_c, 9, 35, 120
1, 83279, Note_on_c, 9, 42, 0
1, 83279, Note_on_c, 9, 35, 0
1, 83280, Note_on_c, 9, 42, 85
1, 83519, Note_on_c, 9, 42, 0
1, 83520, Note_on_c, 9, 42, 85
1, 83534, Note_on_c, 9, 42, 0
1, 83535, Note_on_c, 9, 38, 123
1, 83759, Note_on_c, 9, 38, 0
1, 83760, Note_on_c, 9, 42, 70
1, 83999, Note_on_c, 9, 42, 0
1, 84000, Note_on_c, 9, 42, 83
1, 84015, Note_on_c, 9, 35, 124
1, 84239, Note_on_c, 9, 42, 0
1, 84239, Note_on_c, 9, 35, 0
1, 84255, Note_on_c, 9, 42, 80
1, 84479, Note_on_c, 9, 42, 0
1, 84495, Note_on_c, 9, 38, 126
1, 84495, Note_on_c, 9, 42, 83
1, 84719, Note_on_c, 9, 38, 0
1, 84719, Note_on_c, 9, 42, 0
1, 84735, Note_on_c, 9, 42, 83
1, 84959, Note_on_c, 9, 42, 0
1, 84975, Note_on_c, 9, 42, 85
1, 84975, Note_on_c, 9, 35, 116
1, 85199, Note_on_c, 9, 42, 0
1, 85199, Note_on_c, 9, 35, 0
1, 85215, Note_on_c, 9, 42, 77
1, 85439, Note_on_c, 9, 42, 0
1, 85455, Note_on_c, 9, 38, 127
1, 85455, Note_on_c, 9, 42, 80
1, 85679, Note_on_c, 9, 38, 0
1, 85679, Note_on_c, 9, 42, 0
1, 85695, Note_on_c, 9, 42, 82
1, 85919, Note_on_c, 9, 42, 0
1, 85920, Note_on_c, 9, 42, 80
1, 85935, Note_on_c, 9, 35, 116
1, 86159, Note_on_c, 9, 42, 0
1, 86159, Note_on_c, 9, 35, 0
1, 86175, Note_on_c, 9, 42, 89
1, 86399, Note_on_c, 9, 42, 0
1, 86400, Note_on_c, 9, 38, 127
1, 86400, Note_on_c, 9, 42, 82
1, 86639, Note_on_c, 9, 38, 0
1, 86639, Note_on_c, 9, 42, 0
1, 86655, Note_on_c, 9, 42, 87
1, 86879, Note_on_c, 9, 42, 0
1, 86880, Note_on_c, 9, 35, 120
1, 86895, Note_on_c, 9, 42, 82
1, 87119, Note_on_c, 9, 42, 0
1, 87135, Note_on_c, 9, 42, 89
1, 87359, Note_on_c, 9, 35, 0
1, 87359, Note_on_c, 9, 42, 0
1, 87360, Note_on_c, 9, 38, 124
1, 87374, Note_on_c, 9, 38, 0
1, 87375, Note_on_c, 9, 42, 85
1, 87599, Note_on_c, 9, 42, 0
1, 87600, Note_on_c, 9, 42, 87
1, 87839, Note_on_c, 9, 42, 0
1, 87840, Note_on_c, 9, 42, 83
1, 87840, Note_on_c, 9, 35, 121
1, 88079, Note_on_c, 9, 42, 0
1, 88095, Note_on_c, 9, 42, 87
1, 88319, Note_on_c, 9, 35, 0
1, 88319, Note_on_c, 9, 42, 0
1, 88335, Note_on_c, 9, 38, 124
1, 88335, Note_on_c, 9, 42, 82
1, 88559, Note_on_c, 9, 38, 0
1, 88559, Note_on_c, 9, 42, 0
1, 88575, Note_on_c, 9, 42, 87
1, 88799, Note_on_c, 9, 42, 0
1, 88815, Note_on_c, 9, 42, 82
1, 88815, Note_on_c, 9, 35, 119
1, 89039, Note_on_c, 9, 42, 0
1, 89039, Note_on_c, 9, 35, 0
1, 89055, Note_on_c, 9, 42, 83
1, 89279, Note_on_c, 9, 42, 0
1, 89280, Note_on_c, 9, 38, 124
1, 89294, Note_on_c, 9, 38, 0
1, 89295, Note_on_c, 9, 42, 85
1, 89519, Note_on_c, 9, 42, 0
1, 89520, Note_on_c, 9, 42, 80
1, 89759, Note_on_c, 9, 42, 0
1, 89760, Note_on_c, 9, 42, 85
1, 89775, Note_on_c, 9, 35, 120
1, 89999, Note_on_c, 9, 42, 0
1, 89999, Note_on_c, 9, 35, 0
1, 90015, Note_on_c, 9, 42, 85
1, 90239, Note_on_c, 9, 42, 0
1, 90270, Note_on_c, 9, 38, 124
1, 90270, Note_on_c, 9, 42, 80
1, 90359, Note_on_c, 9, 38, 0
1, 90359, Note_on_c, 9, 42, 0
1, 90495, Note_on_c, 9, 42, 87
1, 90719, Note_on_c, 9, 42, 0
1, 90720, Note_on_c, 9, 42, 91
1, 90720, Note_on_c, 9, 35, 118
1, 90959, Note_on_c, 9, 42, 0
1, 90960, Note_on_c, 9, 42, 77
1, 91199, Note_on_c, 9, 35, 0
1, 91199, Note_on_c, 9, 42, 0
1, 91200, Note_on_c, 9, 38, 123
1, 91200, Note_on_c, 9, 42, 83
1, 91439, Note_on_c, 9, 38, 0
1, 91439, Note_on_c, 9, 42, 0
1, 91440, Note_on_c, 9, 42, 83
1, 91679, Note_on_c, 9, 42, 0
1, 91680, Note_on_c, 9, 42, 87
1, 91680, Note_on_c, 9, 35, 118
1, 91919, Note_on_c, 9, 42, 0
1, 91935, Note_on_c, 9, 42, 85
1, 92159, Note_on_c, 9, 35, 0
1, 92159, Note_on_c, 9, 42, 0
1, 92175, Note_on_c, 9, 38, 127
1, 92175, Note_on_c, 9, 42, 85
1, 92399, Note_on_c, 9, 38, 0
1, 92399, Note_on_c, 9, 42, 0
1, 92415, Note_on_c, 9, 42, 83
1, 92639, Note_on_c, 9, 42, 0
1, 92655, Note_on_c, 9, 42, 91
1, 92655, Note_on_c, 9, 35, 117
1, 92879, Note_on_c, 9, 42, 0
1, 92879, Note_on_c, 9, 35, 0
1, 92895, Note_on_c, 9, 42, 82
1, 93119, Note_on_c, 9, 42, 0
1, 93135, Note_on_c, 9, 38, 124
1, 93135, Note_on_c, 9, 42, 87
1, 93359, Note_on_c, 9, 38, 0
1, 93359, Note_on_c, 9, 42, 0
1, 93360, Note_on_c, 9, 42, 82
1, 93599, Note_on_c, 9, 42, 0
1, 93600, Note_on_c, 9, 42, 87
1, 93600, Note_on_c, 9, 35, 118
1, 93839, Note_on_c, 9, 42, 0
1, 93855, Note_on_c, 9, 42, 82
1, 94079, Note_on_c, 9, 35, 0
1, 94079, Note_on_c, 9, 42, 0
1, 94080, Note_on_c, 9, 38, 124
1, 94080, Note_on_c, 9, 42, 76
1, 94319, Note_on_c, 9, 38, 0
1, 94319, Note_on_c, 9, 42, 0
1, 94320, Note_on_c, 9, 42, 80
1, 94559, Note_on_c, 9, 42, 0
1, 94560, Note_on_c, 9, 42, 85
1, 94575, Note_on_c, 9, 35, 116
1, 94799, Note_on_c, 9, 42, 0
1, 94799, Note_on_c, 9, 35, 0
1, 94800, Note_on_c, 9, 42, 83
1, 95039, Note_on_c, 9, 42, 0
1, 95040, Note_on_c, 9, 38, 126
1, 95040, Note_on_c, 9, 42, 82
1, 95279, Note_on_c, 9, 38, 0
1, 95279, Note_on_c, 9, 42, 0
1, 95280, Note_on_c, 9, 42, 76
1, 95519, Note_on_c, 9, 42, 0
1, 95520, Note_on_c, 9, 42, 82
1, 95535, Note_on_c, 9, 35, 115
1, 95759, Note_on_c, 9, 42, 0
1, 95759, Note_on_c, 9, 35, 0
1, 95760, Note_on_c, 9, 42, 75
1, 95999, Note_on_c, 9, 42, 0
1, 96000, Note_on_c, 9, 38, 124
1, 96000, Note_on_c, 9, 42, 80
1, 96239, Note_on_c, 9, 38, 0
1, 96239, Note_on_c, 9, 42, 0
1, 96240, Note_on_c, 9, 42, 76
1, 96479, Note_on_c, 9, 42, 0
1, 96480, Note_on_c, 9, 42, 82
1, 96480, Note_on_c, 9, 35, 119
1, 96719, Note_on_c, 9, 42, 0
1, 96735, Note_on_c, 9, 42, 85
1, 96959, Note_on_c, 9, 35, 0
1, 96959, Note_on_c, 9, 42, 0
1, 96960, Note_on_c, 9, 38, 124
1, 96974, Note_on_c, 9, 38, 0
1, 96975, Note_on_c, 9, 42, 83
1, 97199, Note_on_c, 9, 42, 0
1, 97200, Note_on_c, 9, 42, 82
1, 97439, Note_on_c, 9, 42, 0
1, 97440, Note_on_c, 9, 35, 118
1, 97455, Note_on_c, 9, 42, 87
1, 97679, Note_on_c, 9, 42, 0
1, 97695, Note_on_c, 9, 42, 85
1, 97919, Note_on_c, 9, 35, 0
1, 97919, Note_on_c, 9, 42, 0
1, 97920, Note_on_c, 9, 38, 127
1, 97934, Note_on_c, 9, 38, 0
1, 97935, Note_on_c, 9, 42, 85
1, 98159, Note_on_c, 9, 42, 0
1, 98175, Note_on_c, 9, 42, 83
1, 98399, Note_on_c, 9, 42, 0
1, 98400, Note_on_c, 9, 42, 85
1, 98415, Note_on_c, 9, 35, 116
1, 98639, Note_on_c, 9, 42, 0
1, 98639, Note_on_c, 9, 35, 0
1, 98640, Note_on_c, 9, 42, 82
1, 98879, Note_on_c, 9, 42, 0
1, 98880, Note_on_c, 9, 42, 83
1, 98894, Note_on_c, 9, 42, 0
1, 98895, Note_on_c, 9, 38, 127
1, 99119, Note_on_c, 9, 38, 0
1, 99120, Note_on_c, 9, 42, 82
1, 99359, Note_on_c, 9, 42, 0
1, 99360, Note_on_c, 9, 42, 83
1, 99360, Note_on_c, 9, 35, 104
1, 99599, Note_on_c, 9, 42, 0
1, 99600, Note_on_c, 9, 38, 116
1, 99614, Note_on_c, 9, 38, 0
1, 99615, Note_on_c, 9, 42, 114
1, 99839, Note_on_c, 9, 35, 0
1, 99839, Note_on_c, 9, 42, 0
1, 99870, Note_on_c, 9, 38, 122
1, 100124, Note_on_c, 9, 38, 0
1, 100125, Note_on_c, 9, 38, 127
1, 100319, Note_on_c, 9, 38, 0
1, 100365, Note_on_c, 9, 42, 85
1, 100380, Note_on_c, 9, 35, 123
1, 100559, Note_on_c, 9, 42, 0
1, 100559, Note_on_c, 9, 35, 0
1, 100590, Note_on_c, 9, 42, 77
1, 100679, Note_on_c, 9, 42, 0
1, 100800, Note_on_c, 9, 38, 127
1, 100800, Note_on_c, 9, 42, 83
1, 101039, Note_on_c, 9, 38, 0
1, 101039, Note_on_c, 9, 42, 0
1, 101040, Note_on_c, 9, 42, 79
1, 101279, Note_on_c, 9, 42, 0
1, 101280, Note_on_c, 9, 42, 85
1, 101280, Note_on_c, 9, 35, 115
1, 101519, Note_on_c, 9, 42, 0
1, 101520, Note_on_c, 9, 42, 73
1, 101759, Note_on_c, 9, 35, 0
1, 101759, Note_on_c, 9, 42, 0
1, 101760, Note_on_c, 9, 38, 127
1, 101760, Note_on_c, 9, 42, 82
1, 101999, Note_on_c, 9, 38, 0
1, 101999, Note_on_c, 9, 42, 0
1, 102015, Note_on_c, 9, 42, 75
1, 102239, Note_on_c, 9, 42, 0
1, 102255, Note_on_c, 9, 42, 80
1, 102270, Note_on_c, 9, 35, 111
1, 102479, Note_on_c, 9, 42, 0
1, 102480, Note_on_c, 9, 42, 77
1, 102719, Note_on_c, 9, 35, 0
1, 102719, Note_on_c, 9, 42, 0
1, 102720, Note_on_c, 9, 38, 127
1, 102720, Note_on_c, 9, 42, 82
1, 102959, Note_on_c, 9, 38, 0
1, 102959, Note_on_c, 9, 42, 0
1, 102975, Note_on_c, 9, 42, 79
1, 103199, Note_on_c, 9, 42, 0
1, 103215, Note_on_c, 9, 42, 83
1, 103230, Note_on_c, 9, 35, 110
1, 103439, Note_on_c, 9, 42, 0
1, 103455, Note_on_c, 9, 42, 73
1, 103679, Note_on_c, 9, 35, 0
1, 103679, Note_on_c, 9, 42, 0
1, 103680, Note_on_c, 9, 42, 83
1, 103694, Note_on_c, 9, 42, 0
1, 103695, Note_on_c, 9, 38, 127
1, 103919, Note_on_c, 9, 38, 0
1, 103920, Note_on_c, 9, 42, 83
1, 104159, Note_on_c, 9, 42, 0
1, 104160, Note_on_c, 9, 42, 83
1, 104190, Note_on_c, 9, 35, 110
1, 104399, Note_on_c, 9, 42, 0
1, 104400, Note_on_c, 9, 42, 80
1, 104639, Note_on_c, 9, 35, 0
1, 104639, Note_on_c, 9, 42, 0
1, 104640, Note_on_c, 9, 42, 82
1, 104654, Note_on_c, 9, 42, 0
1, 104655, Note_on_c, 9, 38, 127
1, 104879, Note_on_c, 9, 38, 0
1, 104880, Note_on_c, 9, 42, 80
1, 105119, Note_on_c, 9, 42, 0
1, 105120, Note_on_c, 9, 42, 83
1, 105135, Note_on_c, 9, 35, 113
1, 105359, Note_on_c, 9, 42, 0
1, 105359, Note_on_c, 9, 35, 0
1, 105360, Note_on_c, 9, 42, 82
1, 105599, Note_on_c, 9, 42, 0
1, 105600, Note_on_c, 9, 38, 127
1, 105600, Note_on_c, 9, 42, 82
1, 105839, Note_on_c, 9, 38, 0
1, 105839, Note_on_c, 9, 42, 0
1, 105840, Note_on_c, 9, 42, 77
1, 106079, Note_on_c, 9, 42, 0
1, 106080, Note_on_c, 9, 42, 87
1, 106095, Note_on_c, 9, 35, 111
1, 106319, Note_on_c, 9, 42, 0
1, 106319, Note_on_c, 9, 35, 0
1, 106320, Note_on_c, 9, 42, 75
1, 106559, Note_on_c, 9, 42, 0
1, 106560, Note_on_c, 9, 38, 127
1, 106560, Note_on_c, 9, 42, 76
1, 106799, Note_on_c, 9, 38, 0
1, 106799, Note_on_c, 9, 42, 0
1, 106815, Note_on_c, 9, 42, 76
1, 107039, Note_on_c, 9, 42, 0
1, 107055, Note_on_c, 9, 42, 77
1, 107070, Note_on_c, 9, 35, 114
1, 107279, Note_on_c, 9, 42, 0
1, 107295, Note_on_c, 9, 42, 72
1, 107519, Note_on_c, 9, 35, 0
1, 107519, Note_on_c, 9, 42, 0
1, 107520, Note_on_c, 9, 38, 127
1, 107520, Note_on_c, 9, 42, 75
1, 107759, Note_on_c, 9, 38, 0
1, 107759, Note_on_c, 9, 42, 0
1, 107760, Note_on_c, 9, 42, 76
1, 107999, Note_on_c, 9, 42, 0
1, 108000, Note_on_c, 9, 42, 80
1, 108015, Note_on_c, 9, 35, 115
1, 108239, Note_on_c, 9, 42, 0
1, 108239, Note_on_c, 9, 35, 0
1, 108240, Note_on_c, 9, 42, 87
1, 108479, Note_on_c, 9, 42, 0
1, 108480, Note_on_c, 9, 38, 127
1, 108480, Note_on_c, 9, 42, 79
1, 108719, Note_on_c, 9, 38, 0
1, 108719, Note_on_c, 9, 42, 0
1, 108720, Note_on_c, 9, 42, 83
1, 108959, Note_on_c, 9, 42, 0
1, 108960, Note_on_c, 9, 42, 80
1, 108960, Note_on_c, 9, 35, 110
1, 109199, Note_on_c, 9, 42, 0
1, 109200, Note_on_c, 9, 42, 72
1, 109439, Note_on_c, 9, 35, 0
1, 109439, Note_on_c, 9, 42, 0
1, 109440, Note_on_c, 9, 38, 127
1, 109440, Note_on_c, 9, 42, 87
1, 109679, Note_on_c, 9, 38, 0
1, 109679, Note_on_c, 9, 42, 0
1, 109680, Note_on_c, 9, 42, 85
1, 109919, Note_on_c, 9, 42, 0
1, 109935, Note_on_c, 9, 42, 89
1, 109935, Note_on_c, 9, 35, 112
1, 110159, Note_on_c, 9, 42, 0
1, 110159, Note_on_c, 9, 35, 0
1, 110175, Note_on_c, 9, 42, 85
1, 110399, Note_on_c, 9, 42, 0
1, 110400, Note_on_c, 9, 38, 127
1, 110414, Note_on_c, 9, 38, 0
1, 110415, Note_on_c, 9, 42, 85
1, 110639, Note_on_c, 9, 42, 0
1, 110655, Note_on_c, 9, 42, 76
1, 110879, Note_on_c, 9, 42, 0
1, 110910, Note_on_c, 9, 42, 85
1, 110910, Note_on_c, 9, 35, 115
1, 110999, Note_on_c, 9, 42, 0
1, 111135, Note_on_c, 9, 42, 77
1, 111359, Note_on_c, 9, 35, 0
1, 111359, Note_on_c, 9, 42, 0
1, 111360, Note_on_c, 9, 38, 127
1, 111360, Note_on_c, 9, 42, 82
1, 111599, Note_on_c, 9, 38, 0
1, 111599, Note_on_c, 9, 42, 0
1, 111630, Note_on_c, 9, 42, 80
1, 111719, Note_on_c, 9, 42, 0
1, 111870, Note_on_c, 9, 42, 82
1, 111885, Note_on_c, 9, 35, 115
1, 111959, Note_on_c, 9, 42, 0
1, 112079, Note_on_c, 9, 35, 0
1, 112095, Note_on_c, 9, 42, 73
1, 112319, Note_on_c, 9, 42, 0
1, 112320, Note_on_c, 9, 38, 127
1, 112320, Note_on_c, 9, 42, 80
1, 112559, Note_on_c, 9, 38, 0
1, 112559, Note_on_c, 9, 42, 0
1, 112575, Note_on_c, 9, 42, 79
1, 112799, Note_on_c, 9, 42, 0
1, 112800, Note_on_c, 9, 42, 82
1, 112800, Note_on_c, 9, 35, 115
1, 113039, Note_on_c, 9, 42, 0
1, 113040, Note_on_c, 9, 42, 83
1, 113279, Note_on_c, 9, 35, 0
1, 113279, Note_on_c, 9, 42, 0
1, 113280, Note_on_c, 9, 38, 127
1, 113280, Note_on_c, 9, 42, 82
1, 113519, Note_on_c, 9, 38, 0
1, 113519, Note_on_c, 9, 42, 0
1, 113520, Note_on_c, 9, 42, 80
1, 113759, Note_on_c, 9, 42, 0
1, 113760, Note_on_c, 9, 42, 91
1, 113760, Note_on_c, 9, 35, 117
1, 113999, Note_on_c, 9, 42, 0
1, 114000, Note_on_c, 9, 42, 77
1, 114239, Note_on_c, 9, 35, 0
1, 114239, Note_on_c, 9, 42, 0
1, 114240, Note_on_c, 9, 38, 127
1, 114240, Note_on_c, 9, 42, 83
1, 114479, Note_on_c, 9, 38, 0
1, 114479, Note_on_c, 9, 42, 0
1, 114510, Note_on_c, 9, 42, 87
1, 114599, Note_on_c, 9, 42, 0
1, 114765, Note_on_c, 9, 42, 80
1, 114765, Note_on_c, 9, 35, 117
1, 114959, Note_on_c, 9, 35, 0
1, 115004, Note_on_c, 9, 42, 0
1, 115005, Note_on_c, 9, 42, 76
1, 115199, Note_on_c, 9, 42, 0
1, 115230, Note_on_c, 9, 38, 127
1, 115230, Note_on_c, 9, 42, 82
1, 115319, Note_on_c, 9, 38, 0
1, 115319, Note_on_c, 9, 42, 0
1, 115470, Note_on_c, 9, 42, 82
1, 115559, Note_on_c, 9, 42, 0
1, 115725, Note_on_c, 9, 42, 85
1, 115725, Note_on_c, 9, 35, 117
1, 115919, Note_on_c, 9, 42, 0
1, 115919, Note_on_c, 9, 35, 0
1, 115950, Note_on_c, 9, 42, 71
1, 116039, Note_on_c, 9, 42, 0
1, 116160, Note_on_c, 9, 38, 124
1, 116174, Note_on_c, 9, 38, 0
1, 116175, Note_on_c, 9, 49, 95
1, 116399, Note_on_c, 9, 49, 0
1, 116400, Note_on_c, 9, 42, 83
1, 116639, Note_on_c, 9, 42, 0
1, 116640, Note_on_c, 9, 42, 83
1, 116655, Note_on_c, 9, 35, 113
1, 116879, Note_on_c, 9, 42, 0
1, 116879, Note_on_c, 9, 35, 0
1, 116880, Note_on_c, 9, 42, 83
1, 117119, Note_on_c, 9, 42, 0
1, 117120, Note_on_c, 9, 38, 127
1, 117120, Note_on_c, 9, 42, 80
1, 117359, Note_on_c, 9, 38, 0
1, 117359, Note_on_c, 9, 42, 0
1, 117360, Note_on_c, 9, 42, 76
1, 117599, Note_on_c, 9, 42, 0
1, 117600, Note_on_c, 9, 42, 83
1, 117615, Note_on_c, 9, 35, 114
1, 117839, Note_on_c, 9, 42, 0
1, 117839, Note_on_c, 9, 35, 0
1, 117840, Note_on_c, 9, 42, 83
1, 118079, Note_on_c, 9, 42, 0
1, 118080, Note_on_c, 9, 38, 127
1, 118080, Note_on_c, 9, 42, 82
1, 118319, Note_on_c, 9, 38, 0
1, 118319, Note_on_c, 9, 42, 0
1, 118350, Note_on_c, 9, 42, 76
1, 118439, Note_on_c, 9, 42, 0
1, 118605, Note_on_c, 9, 42, 79
1, 118605, Note_on_c, 9, 35, 117
1, 118799, Note_on_c, 9, 35, 0
1, 118844, Note_on_c, 9, 42, 0
1, 118845, Note_on_c, 9, 42, 76
1, 119039, Note_on_c, 9, 42, 0
1, 119085, Note_on_c, 9, 38, 126
1, 119085, Note_on_c, 9, 42, 82
1, 119279, Note_on_c, 9, 38, 0
1, 119279, Note_on_c, 9, 42, 0
1, 119310, Note_on_c, 9, 42, 76
1, 119399, Note_on_c, 9, 42, 0
1, 119535, Note_on_c, 9, 42, 80
1, 119535, Note_on_c, 9, 35, 118
1, 119759, Note_on_c, 9, 42, 0
1, 119759, Note_on_c, 9, 35, 0
1, 119775, Note_on_c, 9, 42, 71
1, 119999, Note_on_c, 9, 42, 0
1, 120000, Note_on_c, 9, 38, 127
1, 120014, Note_on_c, 9, 38, 0
1, 120015, Note_on_c, 9, 49, 104
1, 120239, Note_on_c, 9, 49, 0
1, 120240, Note_on_c, 9, 42, 79
1, 120479, Note_on_c, 9, 42, 0
1, 120480, Note_on_c, 9, 42, 71
1, 120480, Note_on_c, 9, 35, 114
1, 120719, Note_on_c, 9, 42, 0
1, 120720, Note_on_c, 9, 42, 72
1, 120959, Note_on_c, 9, 35, 0
1, 120959, Note_on_c, 9, 42, 0
1, 120960, Note_on_c, 9, 38, 124
1, 120960, Note_on_c, 9, 42, 80
1, 121199, Note_on_c, 9, 38, 0
1, 121199, Note_on_c, 9, 42, 0
1, 121200, Note_on_c, 9, 42, 79
1, 121439, Note_on_c, 9, 42, 0
1, 121440, Note_on_c, 9, 42, 82
1, 121440, Note_on_c, 9, 35, 116
1, 121679, Note_on_c, 9, 42, 0
1, 121680, Note_on_c, 9, 42, 73
1, 121919, Note_on_c, 9, 35, 0
1, 121919, Note_on_c, 9, 42, 0
1, 121920, Note_on_c, 9, 38, 127
1, 121920, Note_on_c, 9, 42, 77
1, 122159, Note_on_c, 9, 38, 0
1, 122159, Note_on_c, 9, 42, 0
1, 122175, Note_on_c, 9, 42, 80
1, 122399, Note_on_c, 9, 42, 0
1, 122430, Note_on_c, 9, 42, 82
1, 122430, Note_on_c, 9, 35, 115
1, 122519, Note_on_c, 9, 42, 0
1, 122670, Note_on_c, 9, 42, 75
1, 122759, Note_on_c, 9, 42, 0
1, 122879, Note_on_c, 9, 35, 0
1, 122895, Note_on_c, 9, 38, 127
1, 122909, Note_on_c, 9, 38, 0
1, 122910, Note_on_c, 9, 42, 82
1, 122999, Note_on_c, 9, 42, 0
1, 123135, Note_on_c, 9, 42, 76
1, 123359, Note_on_c, 9, 42, 0
1, 123375, Note_on_c, 9, 42, 79
1, 123375, Note_on_c, 9, 35, 117
1, 123599, Note_on_c, 9, 42, 0
1, 123599, Note_on_c, 9, 35, 0
1, 123615, Note_on_c, 9, 42, 77
1, 123839, Note_on_c, 9, 42, 0
1, 123840, Note_on_c, 9, 38, 124
1, 123854, Note_on_c, 9, 38, 0
1, 123855, Note_on_c, 9, 49, 88
1, 124079, Note_on_c, 9, 49, 0
1, 124080, Note_on_c, 9, 42, 75
1, 124319, Note_on_c, 9, 42, 0
1, 124320, Note_on_c, 9, 42, 80
1, 124335, Note_on_c, 9, 35, 114
1, 124559, Note_on_c, 9, 42, 0
1, 124559, Note_on_c, 9, 35, 0
1, 124560, Note_on_c, 9, 42, 79
1, 124799, Note_on_c, 9, 42, 0
1, 124800, Note_on_c, 9, 38, 126
1, 124800, Note_on_c, 9, 42, 76
1, 125039, Note_on_c, 9, 38, 0
1, 125039, Note_on_c, 9, 42, 0
1, 125040, Note_on_c, 9, 42, 80
1, 125279, Note_on_c, 9, 42, 0
1, 125280, Note_on_c, 9, 42, 82
1, 125295, Note_on_c, 9, 35, 117
1, 125519, Note_on_c, 9, 42, 0
1, 125519, Note_on_c, 9, 35, 0
1, 125535, Note_on_c, 9, 42, 79
1, 125759, Note_on_c, 9, 42, 0
1, 125760, Note_on_c, 9, 38, 124
1, 125774, Note_on_c, 9, 38, 0
1, 125775, Note_on_c, 9, 42, 80
1, 125999, Note_on_c, 9, 42, 0
1, 126015, Note_on_c, 9, 42, 76
1, 126239, Note_on_c, 9, 42, 0
1, 126270, Note_on_c, 9, 42, 76
1, 126270, Note_on_c, 9, 35, 117
1, 126359, Note_on_c, 9, 42, 0
1, 126495, Note_on_c, 9, 42, 75
1, 126719, Note_on_c, 9, 35, 0
1, 126719, Note_on_c, 9, 42, 0
1, 126720, Note_on_c, 9, 38, 127
1, 126734, Note_on_c, 9, 38, 0
1, 126735, Note_on_c, 9, 42, 73
1, 126959, Note_on_c, 9, 42, 0
1, 126975, Note_on_c, 9, 42, 80
1, 127199, Note_on_c, 9, 42, 0
1, 127215, Note_on_c, 9, 35, 118
1, 127230, Note_on_c, 9, 49, 86
1, 127319, Note_on_c, 9, 49, 0
1, 127439, Note_on_c, 9, 35, 0
1, 127455, Note_on_c, 9, 42, 83
1, 127679, Note_on_c, 9, 42, 0
1, 127680, Note_on_c, 9, 38, 127
1, 127680, Note_on_c, 9, 42, 102
1, 127919, Note_on_c, 9, 38, 0
1, 127919, Note_on_c, 9, 42, 0
1, 127920, Note_on_c, 9, 42, 79
1, 128159, Note_on_c, 9, 42, 0
1, 128160, Note_on_c, 9, 42, 93
1, 128160, Note_on_c, 9, 35, 119
1, 128399, Note_on_c, 9, 42, 0
1, 128400, Note_on_c, 9, 42, 85
1, 128639, Note_on_c, 9, 35, 0
1, 128639, Note_on_c, 9, 42, 0
1, 128640, Note_on_c, 9, 38, 127
1, 128640, Note_on_c, 9, 42, 85
1, 128879, Note_on_c, 9, 38, 0
1, 128879, Note_on_c, 9, 42, 0
1, 128880, Note_on_c, 9, 42, 85
1, 129119, Note_on_c, 9, 42, 0
1, 129120, Note_on_c, 9, 42, 80
1, 129135, Note_on_c, 9, 35, 123
1, 129359, Note_on_c, 9, 42, 0
1, 129359, Note_on_c, 9, 35, 0
1, 129360, Note_on_c, 9, 38, 118
1, 129599, Note_on_c, 9, 38, 0
1, 129615, Note_on_c, 9, 49, 88
1, 129839, Note_on_c, 9, 49, 0
1, 129855, Note_on_c, 9, 38, 118
1, 130079, Note_on_c, 9, 38, 0
1, 130080, Note_on_c, 9, 38, 105
1, 130319, Note_on_c, 9, 38, 0
1, 130320, Note_on_c, 9, 38, 97
1, 130559, Note_on_c, 9, 38, 0
1, 130560, Note_on_c, 9, 38, 112
1, 130799, Note_on_c, 9, 38, 0
1, 130800, Note_on_c, 9, 38, 127
1, 131039, Note_on_c, 9, 38, 0
1, 131040, Note_on_c, 9, 35, 123
1, 131055, Note_on_c, 9, 49, 90
1, 131279, Note_on_c, 9, 49, 0
1, 131295, Note_on_c, 9, 42, 83
1, 131519, Note_on_c, 9, 35, 0
1, 131519, Note_on_c, 9, 42, 0
1, 131520, Note_on_c, 9, 38, 127
1, 131534, Note_on_c, 9, 38, 0
1, 131535, Note_on_c, 9, 42, 93
1, 131759, Note_on_c, 9, 42, 0
1, 131775, Note_on_c, 9, 42, 85
1, 131999, Note_on_c, 9, 42, 0
1, 132015, Note_on_c, 9, 42, 97
1, 132015, Note_on_c, 9, 35, 121
1, 132239, Note_on_c, 9, 42, 0
1, 132239, Note_on_c, 9, 35, 0
1, 132255, Note_on_c, 9, 42, 89
1, 132479, Note_on_c, 9, 42, 0
1, 132495, Note_on_c, 9, 38, 126
1, 132495, Note_on_c, 9, 42, 87
1, 132719, Note_on_c, 9, 38, 0
1, 132719, Note_on_c, 9, 42, 0
1, 132735, Note_on_c, 9, 42, 87
1, 132959, Note_on_c, 9, 42, 0
1, 132960, Note_on_c, 9, 42, 87
1, 132975, Note_on_c, 9, 35, 118
1, 133199, Note_on_c, 9, 42, 0
1, 133199, Note_on_c, 9, 35, 0
1, 133200, Note_on_c, 9, 42, 87
1, 133439, Note_on_c, 9, 42, 0
1, 133440, Note_on_c, 9, 38, 127
1, 133440, Note_on_c, 9, 42, 89
1, 133679, Note_on_c, 9, 38, 0
1, 133679, Note_on_c, 9, 42, 0
1, 133680, Note_on_c, 9, 42, 87
1, 133919, Note_on_c, 9, 42, 0
1, 133920, Note_on_c, 9, 42, 87
1, 133935, Note_on_c, 9, 35, 122
1, 134159, Note_on_c, 9, 42, 0
1, 134159, Note_on_c, 9, 35, 0
1, 134190, Note_on_c, 9, 42, 83
1, 134279, Note_on_c, 9, 42, 0
1, 134445, Note_on_c, 9, 38, 126
1, 134445, Note_on_c, 9, 42, 85
1, 134639, Note_on_c, 9, 38, 0
1, 134639, Note_on_c, 9, 42, 0
1, 134670, Note_on_c, 9, 42, 83
1, 134759, Note_on_c, 9, 42, 0
1, 134880, Note_on_c, 9, 49, 93
1, 134895, Note_on_c, 9, 35, 119
1, 135119, Note_on_c, 9, 49, 0
1, 135119, Note_on_c, 9, 35, 0
1, 135135, Note_on_c, 9, 42, 82
1, 135359, Note_on_c, 9, 42, 0
1, 135375, Note_on_c, 9, 42, 85
1, 135389, Note_on_c, 9, 42, 0
1, 135390, Note_on_c, 9, 38, 123
1, 135479, Note_on_c, 9, 38, 0
1, 135600, Note_on_c, 9, 42, 83
1, 135839, Note_on_c, 9, 42, 0
1, 135840, Note_on_c, 9, 42, 83
1, 135855, Note_on_c, 9, 35, 115
1, 136079, Note_on_c, 9, 42, 0
1, 136079, Note_on_c, 9, 35, 0
1, 136095, Note_on_c, 9, 42, 89
1, 136319, Note_on_c, 9, 42, 0
1, 136350, Note_on_c, 9, 38, 127
1, 136350, Note_on_c, 9, 42, 89
1, 136439, Note_on_c, 9, 38, 0
1, 136439, Note_on_c, 9, 42, 0
1, 136575, Note_on_c, 9, 42, 83
1, 136799, Note_on_c, 9, 42, 0
1, 136815, Note_on_c, 9, 42, 87
1, 136815, Note_on_c, 9, 35, 111
1, 137039, Note_on_c, 9, 42, 0
1, 137039, Note_on_c, 9, 35, 0
1, 137040, Note_on_c, 9, 42, 85
1, 137279, Note_on_c, 9, 42, 0
1, 137280, Note_on_c, 9, 42, 83
1, 137294, Note_on_c, 9, 42, 0
1, 137295, Note_on_c, 9, 38, 126
1, 137519, Note_on_c, 9, 38, 0
1, 137520, Note_on_c, 9, 42, 91
1, 137759, Note_on_c, 9, 42, 0
1, 137760, Note_on_c, 9, 42, 89
1, 137760, Note_on_c, 9, 35, 118
1, 137999, Note_on_c, 9, 42, 0
1, 138015, Note_on_c, 9, 42, 89
1, 138239, Note_on_c, 9, 35, 0
1, 138239, Note_on_c, 9, 42, 0
1, 138270, Note_on_c, 9, 38, 127
1, 138270, Note_on_c, 9, 42, 89
1, 138359, Note_on_c, 9, 38, 0
1, 138359, Note_on_c, 9, 42, 0
1, 138495, Note_on_c, 9, 42, 89
1, 138719, Note_on_c, 9, 42, 0
1, 138720, Note_on_c, 9, 49, 92
1, 138720, Note_on_c, 9, 35, 115
1, 138959, Note_on_c, 9, 49, 0
1, 138975, Note_on_c, 9, 42, 82
1, 139199, Note_on_c, 9, 35, 0
1, 139199, Note_on_c, 9, 42, 0
1, 139215, Note_on_c, 9, 38, 124
1, 139215, Note_on_c, 9, 42, 87
1, 139439, Note_on_c, 9, 38, 0
1, 139439, Note_on_c, 9, 42, 0
1, 139455, Note_on_c, 9, 42, 85
1, 139679, Note_on_c, 9, 42, 0
1, 139680, Note_on_c, 9, 42, 85
1, 139680, Note_on_c, 9, 35, 114
1, 139919, Note_on_c, 9, 42, 0
1, 139935, Note_on_c, 9, 42, 85
1, 140159, Note_on_c, 9, 35, 0
1, 140159, Note_on_c, 9, 42, 0
1, 140175, Note_on_c, 9, 38, 124
1, 140175, Note_on_c, 9, 42, 85
1, 140399, Note_on_c, 9, 38, 0
1, 140399, Note_on_c, 9, 42, 0
1, 140415, Note_on_c, 9, 42, 87
1, 140639, Note_on_c, 9, 42, 0
1, 140655, Note_on_c, 9, 42, 85
1, 140655, Note_on_c, 9, 35, 120
1, 140879, Note_on_c, 9, 42, 0
1, 140879, Note_on_c, 9, 35, 0
1, 140880, Note_on_c, 9, 42, 83
1, 141119, Note_on_c, 9, 42, 0
1, 141120, Note_on_c, 9, 38, 122
1, 141120, Note_on_c, 9, 42, 85
1, 141359, Note_on_c, 9, 38, 0
1, 141359, Note_on_c, 9, 42, 0
1, 141375, Note_on_c, 9, 42, 80
1, 141599, Note_on_c, 9, 42, 0
1, 141615, Note_on_c, 9, 42, 93
1, 141615, Note_on_c, 9, 35, 115
1, 141839, Note_on_c, 9, 42, 0
1, 141839, Note_on_c, 9, 35, 0
1, 141870, Note_on_c, 9, 42, 85
1, 141959, Note_on_c, 9, 42, 0
1, 142110, Note_on_c, 9, 38, 122
1, 142124, Note_on_c, 9, 38, 0
1, 142125, Note_on_c, 9, 42, 85
1, 142319, Note_on_c, 9, 42, 0
1, 142350, Note_on_c, 9, 42, 79
1, 142439, Note_on_c, 9, 42, 0
1, 142560, Note_on_c, 9, 35, 117
1, 142575, Note_on_c, 9, 49, 86
1, 142799, Note_on_c, 9, 49, 0
1, 142830, Note_on_c, 9, 42, 82
1, 142919, Note_on_c, 9, 42, 0
1, 143039, Note_on_c, 9, 35, 0
1, 143085, Note_on_c, 9, 38, 124
1, 143085, Note_on_c, 9, 42, 85
1, 143279, Note_on_c, 9, 38, 0
1, 143279, Note_on_c, 9, 42, 0
1, 143310, Note_on_c, 9, 42, 83
1, 143399, Note_on_c, 9, 42, 0
1, 143520, Note_on_c, 9, 42, 79
1, 143535, Note_on_c, 9, 35, 120
1, 143759, Note_on_c, 9, 42, 0
1, 143759, Note_on_c, 9, 35, 0
1, 143775, Note_on_c, 9, 42, 73
1, 143999, Note_on_c, 9, 42, 0
1, 144015, Note_on_c, 9, 38, 123
1, 144029, Note_on_c, 9, 38, 0
1, 144030, Note_on_c, 9, 42, 83
1, 144119, Note_on_c, 9, 42, 0
1, 144255, Note_on_c, 9, 42, 77
1, 144479, Note_on_c, 9, 42, 0
1, 144495, Note_on_c, 9, 42, 85
1, 144495, Note_on_c, 9, 35, 121
1, 144719, Note_on_c, 9, 42, 0
1, 144719, Note_on_c, 9, 35, 0
1, 144735, Note_on_c, 9, 42, 82
1, 144959, Note_on_c, 9, 42, 0
1, 144960, Note_on_c, 9, 38, 127
1, 144974, Note_on_c, 9, 38, 0
1, 144975, Note_on_c, 9, 42, 83
1, 145199, Note_on_c, 9, 42, 0
1, 145215, Note_on_c, 9, 42, 80
1, 145439, Note_on_c, 9, 42, 0
1, 145440, Note_on_c, 9, 42, 85
1, 145440, Note_on_c, 9, 35, 111
1, 145679, Note_on_c, 9, 42, 0
1, 145710, Note_on_c, 9, 38, 123
1, 145710, Note_on_c, 9, 42, 85
1, 145799, Note_on_c, 9, 38, 0
1, 145799, Note_on_c, 9, 42, 0
1, 145919, Note_on_c, 9, 35, 0
1, 145965, Note_on_c, 9, 38, 127
1, 145965, Note_on_c, 9, 42, 83
1, 146159, Note_on_c, 9, 38, 0
1, 146159, Note_on_c, 9, 42, 0
1, 146175, Note_on_c, 9, 42, 80
1, 146189, Note_on_c, 9, 42, 0
1, 146190, Note_on_c, 9, 38, 127
1, 146279, Note_on_c, 9, 38, 0
1, 146400, Note_on_c, 9, 49, 95
1, 146400, Note_on_c, 9, 35, 120
1, 146639, Note_on_c, 9, 49, 0
1, 146655, Note_on_c, 9, 42, 85
1, 146879, Note_on_c, 9, 35, 0
1, 146879, Note_on_c, 9, 42, 0
1, 146910, Note_on_c, 9, 38, 127
1, 146910, Note_on_c, 9, 42, 85
1, 146999, Note_on_c, 9, 38, 0
1, 146999, Note_on_c, 9, 42, 0
1, 147135, Note_on_c, 9, 42, 70
1, 147359, Note_on_c, 9, 42, 0
1, 147375, Note_on_c, 9, 42, 83
1, 147375, Note_on_c, 9, 35, 118
1, 147599, Note_on_c, 9, 42, 0
1, 147599, Note_on_c, 9, 35, 0
1, 147630, Note_on_c, 9, 42, 80
1, 147719, Note_on_c, 9, 42, 0
1, 147870, Note_on_c, 9, 38, 123
1, 147870, Note_on_c, 9, 42, 83
1, 147959, Note_on_c, 9, 38, 0
1, 147959, Note_on_c, 9, 42, 0
1, 148095, Note_on_c, 9, 42, 83
1, 148319, Note_on_c, 9, 42, 0
1, 148320, Note_on_c, 9, 42, 85
1, 148320, Note_on_c, 9, 35, 117
1, 148559, Note_on_c, 9, 42, 0
1, 148560, Note_on_c, 9, 42, 77
1, 148799, Note_on_c, 9, 35, 0
1, 148799, Note_on_c, 9, 42, 0
1, 148800, Note_on_c, 9, 38, 126
1, 148800, Note_on_c, 9, 42, 80
1, 149039, Note_on_c, 9, 38, 0
1, 149039, Note_on_c, 9, 42, 0
1, 149040, Note_on_c, 9, 42, 82
1, 149279, Note_on_c, 9, 42, 0
1, 149280, Note_on_c, 9, 42, 80
1, 149280, Note_on_c, 9, 35, 118
1, 149519, Note_on_c, 9, 42, 0
1, 149550, Note_on_c, 9, 42, 89
1, 149639, Note_on_c, 9, 42, 0
1, 149759, Note_on_c, 9, 35, 0
1, 149790, Note_on_c, 9, 38, 124
1, 149790, Note_on_c, 9, 42, 82
1, 149879, Note_on_c, 9, 38, 0
1, 149879, Note_on_c, 9, 42, 0
1, 150015, Note_on_c, 9, 42, 87
1, 150239, Note_on_c, 9, 42, 0
1, 150240, Note_on_c, 9, 42, 82
1, 150240, Note_on_c, 9, 35, 120
1, 150479, Note_on_c, 9, 42, 0
1, 150510, Note_on_c, 9, 42, 89
1, 150599, Note_on_c, 9, 42, 0
1, 150719, Note_on_c, 9, 35, 0
1, 150750, Note_on_c, 9, 38, 123
1, 150779, Note_on_c, 9, 38, 0
1, 150780, Note_on_c, 9, 42, 85
1, 150959, Note_on_c, 9, 42, 0
1, 150990, Note_on_c, 9, 42, 87
1, 151079, Note_on_c, 9, 42, 0
1, 151200, Note_on_c, 9, 42, 83
1, 151200, Note_on_c, 9, 35, 115
1, 151439, Note_on_c, 9, 42, 0
1, 151455, Note_on_c, 9, 42, 87
1, 151679, Note_on_c, 9, 35, 0
1, 151679, Note_on_c, 9, 42, 0
1, 151710, Note_on_c, 9, 38, 124
1, 151710, Note_on_c, 9, 42, 82
1, 151799, Note_on_c, 9, 38, 0
1, 151799, Note_on_c, 9, 42, 0
1, 151935, Note_on_c, 9, 42, 87
1, 152159, Note_on_c, 9, 42, 0
1, 152160, Note_on_c, 9, 35, 118
1, 152175, Note_on_c, 9, 42, 82
1, 152399, Note_on_c, 9, 42, 0
1, 152415, Note_on_c, 9, 42, 83
1, 152639, Note_on_c, 9, 35, 0
1, 152639, Note_on_c, 9, 42, 0
1, 152640, Note_on_c, 9, 38, 123
1, 152640, Note_on_c, 9, 42, 85
1, 152879, Note_on_c, 9, 38, 0
1, 152879, Note_on_c, 9, 42, 0
1, 152880, Note_on_c, 9, 42, 80
1, 153119, Note_on_c, 9, 42, 0
1, 153120, Note_on_c, 9, 42, 85
1, 153120, Note_on_c, 9, 35, 118
1, 153404, Note_on_c, 9, 42, 0
1, 153405, Note_on_c, 9, 42, 85
1, 153599, Note_on_c, 9, 35, 0
1, 153599, Note_on_c, 9, 42, 0
1, 153645, Note_on_c, 9, 38, 123
1, 153659, Note_on_c, 9, 38, 0
1, 153660, Note_on_c, 9, 42, 80
1, 153839, Note_on_c, 9, 42, 0
1, 153870, Note_on_c, 9, 42, 87
1, 153959, Note_on_c, 9, 42, 0
1, 154080, Note_on_c, 9, 42, 91
1, 154080, Note_on_c, 9, 35, 122
1, 154319, Note_on_c, 9, 42, 0
1, 154335, Note_on_c, 9, 42, 77
1, 154559, Note_on_c, 9, 35, 0
1, 154559, Note_on_c, 9, 42, 0
1, 154605, Note_on_c, 9, 38, 122
1, 154605, Note_on_c, 9, 42, 83
1, 154799, Note_on_c, 9, 38, 0
1, 154799, Note_on_c, 9, 42, 0
1, 154830, Note_on_c, 9, 42, 83
1, 154919, Note_on_c, 9, 42, 0
1, 155055, Note_on_c, 9, 42, 87
1, 155070, Note_on_c, 9, 35, 118
1, 155279, Note_on_c, 9, 42, 0
1, 155310, Note_on_c, 9, 42, 85
1, 155399, Note_on_c, 9, 42, 0
1, 155519, Note_on_c, 9, 35, 0
1, 155550, Note_on_c, 9, 38, 122
1, 155550, Note_on_c, 9, 42, 85
1, 155639, Note_on_c, 9, 38, 0
1, 155639, Note_on_c, 9, 42, 0
1, 155775, Note_on_c, 9, 42, 83
1, 155999, Note_on_c, 9, 42, 0
1, 156000, Note_on_c, 9, 42, 91
1, 156000, Note_on_c, 9, 35, 118
1, 156239, Note_on_c, 9, 42, 0
1, 156240, Note_on_c, 9, 42, 82
1, 156479, Note_on_c, 9, 35, 0
1, 156479, Note_on_c, 9, 42, 0
1, 156480, Note_on_c, 9, 38, 122
1, 156480, Note_on_c, 9, 42, 87
1, 156719, Note_on_c, 9, 38, 0
1, 156719, Note_on_c, 9, 42, 0
1, 156720, Note_on_c, 9, 42, 82
1, 156959, Note_on_c, 9, 42, 0
1, 156960, Note_on_c, 9, 42, 87
1, 156975, Note_on_c, 9, 35, 117
1, 157199, Note_on_c, 9, 42, 0
1, 157199, Note_on_c, 9, 35, 0
1, 157230, Note_on_c, 9, 42, 82
1, 157319, Note_on_c, 9, 42, 0
1, 157470, Note_on_c, 9, 38, 119
1, 157470, Note_on_c, 9, 42, 76
1, 157559, Note_on_c, 9, 38, 0
1, 157559, Note_on_c, 9, 42, 0
1, 157695, Note_on_c, 9, 42, 80
1, 157919, Note_on_c, 9, 42, 0
1, 157920, Note_on_c, 9, 49, 98
1, 157920, Note_on_c, 9, 35, 116
1, 158159, Note_on_c, 9, 49, 0
1, 158175, Note_on_c, 9, 42, 83
1, 158399, Note_on_c, 9, 35, 0
1, 158399, Note_on_c, 9, 42, 0
1, 158430, Note_on_c, 9, 38, 123
1, 158430, Note_on_c, 9, 42, 82
1, 158519, Note_on_c, 9, 38, 0
1, 158519, Note_on_c, 9, 42, 0
1, 158655, Note_on_c, 9, 42, 76
1, 158879, Note_on_c, 9, 42, 0
1, 158880, Note_on_c, 9, 49, 95
1, 158880, Note_on_c, 9, 35, 118
1, 159119, Note_on_c, 9, 49, 0
1, 159135, Note_on_c, 9, 42, 75
1, 159359, Note_on_c, 9, 35, 0
1, 159359, Note_on_c, 9, 42, 0
1, 159375, Note_on_c, 9, 38, 127
1, 159375, Note_on_c, 9, 42, 80
1, 159599, Note_on_c, 9, 38, 0
1, 159599, Note_on_c, 9, 42, 0
1, 159615, Note_on_c, 9, 42, 76
1, 159839, Note_on_c, 9, 42, 0
1, 159840, Note_on_c, 9, 49, 95
1, 159855, Note_on_c, 9, 35, 123
1, 160079, Note_on_c, 9, 35, 0
1, 160199, Note_on_c, 9, 49, 0
1, 160200, Note_on_c, 9, 38, 101
1, 160319, Note_on_c, 9, 38, 0
1, 160320, Note_on_c, 9, 38, 94
1, 160409, Note_on_c, 9, 38, 0
1, 160410, Note_on_c, 9, 38, 101
1, 160439, Note_on_c, 9, 38, 0
1, 160500, Note_on_c, 9, 38, 106
1, 160559, Note_on_c, 9, 38, 0
1, 160590, Note_on_c, 9, 38, 111
1, 160679, Note_on_c, 9, 38, 0
1, 160695, Note_on_c, 9, 38, 105
1, 160739, Note_on_c, 9, 38, 0
1, 160800, Note_on_c, 9, 38, 109
1, 160859, Note_on_c, 9, 38, 0
1, 160875, Note_on_c, 9, 38, 127
1, 161084, Note_on_c, 9, 38, 0
1, 161085, Note_on_c, 9, 38, 127
1, 161279, Note_on_c, 9, 38, 0
1, 161310, Note_on_c, 9, 45, 110
1, 161550, Note_on_c, 9, 43, 113
1, 161639, Note_on_c, 9, 43, 0
1, 161759, Note_on_c, 9, 45, 0
1, 161775, Note_on_c, 9, 49, 79
1, 161775, Note_on_c, 9, 35, 123
1, 161999, Note_on_c, 9, 49, 0
1, 161999, Note_on_c, 9, 35, 0
1, 162000, Note_on_c, 9, 42, 82
1, 162239, Note_on_c, 9, 42, 0
1, 162240, Note_on_c, 9, 42, 83
1, 162254, Note_on_c, 9, 42, 0
1, 162255, Note_on_c, 9, 38, 127
1, 162479, Note_on_c, 9, 38, 0
1, 162480, Note_on_c, 9, 42, 82
1, 162719, Note_on_c, 9, 42, 0
1, 162720, Note_on_c, 9, 42, 83
1, 162735, Note_on_c, 9, 35, 120
1, 162959, Note_on_c, 9, 42, 0
1, 162959, Note_on_c, 9, 35, 0
1, 162975, Note_on_c, 9, 42, 82
1, 163199, Note_on_c, 9, 42, 0
1, 163215, Note_on_c, 9, 38, 126
1, 163215, Note_on_c, 9, 42, 82
1, 163439, Note_on_c, 9, 38, 0
1, 163439, Note_on_c, 9, 42, 0
1, 163440, Note_on_c, 9, 42, 79
1, 163679, Note_on_c, 9, 42, 0
1, 163695, Note_on_c, 9, 42, 85
1, 163695, Note_on_c, 9, 35, 119
1, 163919, Note_on_c, 9, 42, 0
1, 163919, Note_on_c, 9, 35, 0
1, 163935, Note_on_c, 9, 42, 77
1, 164159, Note_on_c, 9, 42, 0
1, 164175, Note_on_c, 9, 38, 126
1, 164175, Note_on_c, 9, 42, 83
1, 164399, Note_on_c, 9, 38, 0
1, 164399, Note_on_c, 9, 42, 0
1, 164415, Note_on_c, 9, 42, 79
1, 164639, Note_on_c, 9, 42, 0
1, 164640, Note_on_c, 9, 42, 85
1, 164655, Note_on_c, 9, 35, 116
1, 164879, Note_on_c, 9, 42, 0
1, 164879, Note_on_c, 9, 35, 0
1, 164880, Note_on_c, 9, 42, 73
1, 165119, Note_on_c, 9, 42, 0
1, 165135, Note_on_c, 9, 38, 124
1, 165135, Note_on_c, 9, 42, 82
1, 165359, Note_on_c, 9, 38, 0
1, 165359, Note_on_c, 9, 42, 0
1, 165375, Note_on_c, 9, 42, 75
1, 165599, Note_on_c, 9, 42, 0
1, 165615, Note_on_c, 9, 42, 80
1, 165630, Note_on_c, 9, 35, 115
1, 165839, Note_on_c, 9, 42, 0
1, 165840, Note_on_c, 9, 42, 77
1, 166079, Note_on_c, 9, 35, 0
1, 166079, Note_on_c, 9, 42, 0
1, 166080, Note_on_c, 9, 42, 82
1, 166094, Note_on_c, 9, 42, 0
1, 166095, Note_on_c, 9, 38, 124
1, 166319, Note_on_c, 9, 38, 0
1, 166320, Note_on_c, 9, 42, 79
1, 166559, Note_on_c, 9, 42, 0
1, 166560, Note_on_c, 9, 42, 83
1, 166575, Note_on_c, 9, 35, 123
1, 166799, Note_on_c, 9, 42, 0
1, 166799, Note_on_c, 9, 35, 0
1, 166800, Note_on_c, 9, 42, 73
1, 167039, Note_on_c, 9, 42, 0
1, 167040, Note_on_c, 9, 42, 83
1, 167054, Note_on_c, 9, 42, 0
1, 167055, Note_on_c, 9, 38, 122
1, 167279, Note_on_c, 9, 38, 0
1, 167280, Note_on_c, 9, 42, 83
1, 167519, Note_on_c, 9, 42, 0
1, 167520, Note_on_c, 9, 42, 83
1, 167535, Note_on_c, 9, 35, 120
1, 167759, Note_on_c, 9, 42, 0
1, 167759, Note_on_c, 9, 35, 0
1, 167760, Note_on_c, 9, 42, 80
1, 167999, Note_on_c, 9, 42, 0
1, 168000, Note_on_c, 9, 38, 124
1, 168000, Note_on_c, 9, 42, 82
1, 168239, Note_on_c, 9, 38, 0
1, 168239, Note_on_c, 9, 42, 0
1, 168240, Note_on_c, 9, 42, 80
1, 168479, Note_on_c, 9, 42, 0
1, 168495, Note_on_c, 9, 42, 83
1, 168510, Note_on_c, 9, 35, 119
1, 168719, Note_on_c, 9, 42, 0
1, 168720, Note_on_c, 9, 42, 82
1, 168959, Note_on_c, 9, 35, 0
1, 168959, Note_on_c, 9, 42, 0
1, 168960, Note_on_c, 9, 42, 82
1, 168974, Note_on_c, 9, 42, 0
1, 168975, Note_on_c, 9, 38, 126
1, 169199, Note_on_c, 9, 38, 0
1, 169200, Note_on_c, 9, 42, 77
1, 169439, Note_on_c, 9, 42, 0
1, 169440, Note_on_c, 9, 42, 87
1, 169455, Note_on_c, 9, 35, 118
1, 169679, Note_on_c, 9, 42, 0
1, 169679, Note_on_c, 9, 35, 0
1, 169695, Note_on_c, 9, 42, 75
1, 169919, Note_on_c, 9, 42, 0
1, 169935, Note_on_c, 9, 38, 122
1, 169935, Note_on_c, 9, 42, 76
1, 170159, Note_on_c, 9, 38, 0
1, 170159, Note_on_c, 9, 42, 0
1, 170160, Note_on_c, 9, 42, 76
1, 170399, Note_on_c, 9, 42, 0
1, 170400, Note_on_c, 9, 42, 77
1, 170415, Note_on_c, 9, 35, 117
1, 170639, Note_on_c, 9, 42, 0
1, 170639, Note_on_c, 9, 35, 0
1, 170640, Note_on_c, 9, 42, 72
1, 170879, Note_on_c, 9, 42, 0
1, 170880, Note_on_c, 9, 42, 75
1, 170894, Note_on_c, 9, 42, 0
1, 170895, Note_on_c, 9, 38, 120
1, 171119, Note_on_c, 9, 38, 0
1, 171120, Note_on_c, 9, 42, 76
1, 171359, Note_on_c, 9, 42, 0
1, 171360, Note_on_c, 9, 42, 80
1, 171375, Note_on_c, 9, 35, 118
1, 171599, Note_on_c, 9, 42, 0
1, 171599, Note_on_c, 9, 35, 0
1, 171600, Note_on_c, 9, 42, 87
1, 171839, Note_on_c, 9, 42, 0
1, 171840, Note_on_c, 9, 42, 79
1, 171869, Note_on_c, 9, 42, 0
1, 171870, Note_on_c, 9, 38, 124
1, 171959, Note_on_c, 9, 38, 0
1, 172080, Note_on_c, 9, 42, 83
1, 172319, Note_on_c, 9, 42, 0
1, 172320, Note_on_c, 9, 42, 80
1, 172335, Note_on_c, 9, 35, 117
1, 172559, Note_on_c, 9, 42, 0
1, 172559, Note_on_c, 9, 35, 0
1, 172560, Note_on_c, 9, 42, 72
1, 172799, Note_on_c, 9, 42, 0
1, 172800, Note_on_c, 9, 42, 87
1, 172814, Note_on_c, 9, 42, 0
1, 172815, Note_on_c, 9, 38, 122
1, 173039, Note_on_c, 9, 38, 0
1, 173040, Note_on_c, 9, 42, 85
1, 173279, Note_on_c, 9, 42, 0
1, 173280, Note_on_c, 9, 42, 89
1, 173295, Note_on_c, 9, 35, 115
1, 173519, Note_on_c, 9, 42, 0
1, 173519, Note_on_c, 9, 35, 0
1, 173520, Note_on_c, 9, 42, 85
1, 173759, Note_on_c, 9, 42, 0
1, 173760, Note_on_c, 9, 38, 122
1, 173760, Note_on_c, 9, 42, 85
1, 173999, Note_on_c, 9, 38, 0
1, 173999, Note_on_c, 9, 42, 0
1, 174000, Note_on_c, 9, 42, 76
1, 174239, Note_on_c, 9, 42, 0
1, 174255, Note_on_c, 9, 42, 85
1, 174255, Note_on_c, 9, 35, 117
1, 174479, Note_on_c, 9, 42, 0
1, 174479, Note_on_c, 9, 35, 0
1, 174495, Note_on_c, 9, 42, 77
1, 174719, Note_on_c, 9, 42, 0
1, 174720, Note_on_c, 9, 42, 82
1, 174734, Note_on_c, 9, 42, 0
1, 174735, Note_on_c, 9, 38, 120
1, 174959, Note_on_c, 9, 38, 0
1, 174960, Note_on_c, 9, 42, 80
1, 175199, Note_on_c, 9, 42, 0
1, 175200, Note_on_c, 9, 42, 82
1, 175200, Note_on_c, 9, 35, 117
1, 175439, Note_on_c, 9, 42, 0
1, 175440, Note_on_c, 9, 42, 73
1, 175679, Note_on_c, 9, 35, 0
1, 175679, Note_on_c, 9, 42, 0
1, 175680, Note_on_c, 9, 42, 80
1, 175694, Note_on_c, 9, 42, 0
1, 175695, Note_on_c, 9, 38, 123
1, 175919, Note_on_c, 9, 38, 0
1, 175920, Note_on_c, 9, 42, 79
1, 176159, Note_on_c, 9, 42, 0
1, 176160, Note_on_c, 9, 42, 82
1, 176175, Note_on_c, 9, 35, 115
1, 176399, Note_on_c, 9, 42, 0
1, 176399, Note_on_c, 9, 35, 0
1, 176400, Note_on_c, 9, 42, 83
1, 176639, Note_on_c, 9, 42, 0
1, 176655, Note_on_c, 9, 38, 124
1, 176655, Note_on_c, 9, 42, 82
1, 176879, Note_on_c, 9, 38, 0
1, 176879, Note_on_c, 9, 42, 0
1, 176880, Note_on_c, 9, 42, 80
1, 177119, Note_on_c, 9, 42, 0
1, 177135, Note_on_c, 9, 42, 91
1, 177135, Note_on_c, 9, 35, 115
1, 177359, Note_on_c, 9, 42, 0
1, 177359, Note_on_c, 9, 35, 0
1, 177375, Note_on_c, 9, 42, 77
1, 177599, Note_on_c, 9, 42, 0
1, 177600, Note_on_c, 9, 38, 120
1, 177614, Note_on_c, 9, 38, 0
1, 177615, Note_on_c, 9, 42, 83
1, 177839, Note_on_c, 9, 42, 0
1, 177855, Note_on_c, 9, 42, 87
1, 178079, Note_on_c, 9, 42, 0
1, 178080, Note_on_c, 9, 35, 115
1, 178095, Note_on_c, 9, 42, 80
1, 178319, Note_on_c, 9, 42, 0
1, 178335, Note_on_c, 9, 42, 76
1, 178559, Note_on_c, 9, 35, 0
1, 178559, Note_on_c, 9, 42, 0
1, 178560, Note_on_c, 9, 38, 123
1, 178574, Note_on_c, 9, 38, 0
1, 178575, Note_on_c, 9, 42, 82
1, 178799, Note_on_c, 9, 42, 0
1, 178815, Note_on_c, 9, 42, 82
1, 179039, Note_on_c, 9, 42, 0
1, 179040, Note_on_c, 9, 35, 115
1, 179055, Note_on_c, 9, 42, 85
1, 179279, Note_on_c, 9, 42, 0
1, 179295, Note_on_c, 9, 42, 71
1, 179519, Note_on_c, 9, 35, 0
1, 179519, Note_on_c, 9, 42, 0
1, 179520, Note_on_c, 9, 38, 123
1, 179534, Note_on_c, 9, 38, 0
1, 179535, Note_on_c, 9, 42, 79
1, 179759, Note_on_c, 9, 42, 0
1, 179775, Note_on_c, 9, 42, 83
1, 179999, Note_on_c, 9, 42, 0
1, 180000, Note_on_c, 9, 42, 83
1, 180000, Note_on_c, 9, 35, 115
1, 180239, Note_on_c, 9, 42, 0
1, 180240, Note_on_c, 9, 42, 83
1, 180479, Note_on_c, 9, 35, 0
1, 180479, Note_on_c, 9, 42, 0
1, 180495, Note_on_c, 9, 38, 122
1, 180495, Note_on_c, 9, 42, 80
1, 180719, Note_on_c, 9, 38, 0
1, 180719, Note_on_c, 9, 42, 0
1, 180720, Note_on_c, 9, 42, 76
1, 180959, Note_on_c, 9, 42, 0
1, 180960, Note_on_c, 9, 42, 83
1, 180960, Note_on_c, 9, 35, 118
1, 181199, Note_on_c, 9, 42, 0
1, 181200, Note_on_c, 9, 42, 83
1, 181439, Note_on_c, 9, 35, 0
1, 181439, Note_on_c, 9, 42, 0
1, 181440, Note_on_c, 9, 38, 123
1, 181440, Note_on_c, 9, 42, 82
1, 181679, Note_on_c, 9, 38, 0
1, 181679, Note_on_c, 9, 42, 0
1, 181680, Note_on_c, 9, 42, 76
1, 181919, Note_on_c, 9, 42, 0
1, 181920, Note_on_c, 9, 42, 79
1, 181935, Note_on_c, 9, 35, 116
1, 182159, Note_on_c, 9, 42, 0
1, 182159, Note_on_c, 9, 35, 0
1, 182175, Note_on_c, 9, 42, 76
1, 182399, Note_on_c, 9, 42, 0
1, 182415, Note_on_c, 9, 38, 120
1, 182429, Note_on_c, 9, 38, 0
1, 182430, Note_on_c, 9, 42, 82
1, 182519, Note_on_c, 9, 42, 0
1, 182655, Note_on_c, 9, 42, 76
1, 182879, Note_on_c, 9, 42, 0
1, 182880, Note_on_c, 9, 42, 80
1, 182895, Note_on_c, 9, 35, 116
1, 183119, Note_on_c, 9, 42, 0
1, 183119, Note_on_c, 9, 35, 0
1, 183120, Note_on_c, 9, 42, 71
1, 183359, Note_on_c, 9, 42, 0
1, 183360, Note_on_c, 9, 38, 126
1, 183360, Note_on_c, 9, 42, 68
1, 183599, Note_on_c, 9, 38, 0
1, 183599, Note_on_c, 9, 42, 0
1, 183600, Note_on_c, 9, 42, 79
1, 183839, Note_on_c, 9, 42, 0
1, 183840, Note_on_c, 9, 42, 71
1, 183855, Note_on_c, 9, 35, 116
1, 184079, Note_on_c, 9, 42, 0
1, 184079, Note_on_c, 9, 35, 0
1, 184080, Note_on_c, 9, 42, 72
1, 184319, Note_on_c, 9, 42, 0
1, 184335, Note_on_c, 9, 42, 80
1, 184349, Note_on_c, 9, 42, 0
1, 184350, Note_on_c, 9, 38, 127
1, 184439, Note_on_c, 9, 38, 0
1, 184575, Note_on_c, 9, 42, 79
1, 184799, Note_on_c, 9, 42, 0
1, 184815, Note_on_c, 9, 42, 82
1, 184829, Note_on_c, 9, 42, 0
1, 184830, Note_on_c, 9, 38, 127
1, 184830, Note_on_c, 9, 35, 120
1, 185279, Note_on_c, 9, 38, 0
1, 185279, Note_on_c, 9, 35, 0
1, 188115, Note_on_c, 9, 38, 127
1, 188159, Note_on_c, 9, 38, 0
1, 188175, Note_on_c, 9, 38, 127
1, 188399, Note_on_c, 9, 38, 0
1, 188655, Note_on_c, 9, 49, 92
1, 188655, Note_on_c, 9, 35, 124
1, 188879, Note_on_c, 9, 49, 0
1, 188879, Note_on_c, 9, 35, 0
1, 188880, Note_on_c, 9, 42, 79
1, 189119, Note_on_c, 9, 42, 0
1, 189120, Note_on_c, 9, 38, 126
1, 189120, Note_on_c, 9, 42, 80
1, 189359, Note_on_c, 9, 38, 0
1, 189359, Note_on_c, 9, 42, 0
1, 189360, Note_on_c, 9, 42, 76
1, 189599, Note_on_c, 9, 42, 0
1, 189600, Note_on_c, 9, 42, 76
1, 189600, Note_on_c, 9, 35, 117
1, 189839, Note_on_c, 9, 42, 0
1, 189840, Note_on_c, 9, 42, 75
1, 190079, Note_on_c, 9, 35, 0
1, 190079, Note_on_c, 9, 42, 0
1, 190080, Note_on_c, 9, 38, 127
1, 190080, Note_on_c, 9, 42, 73
1, 190319, Note_on_c, 9, 38, 0
1, 190319, Note_on_c, 9, 42, 0
1, 190320, Note_on_c, 9, 42, 80
1, 190559, Note_on_c, 9, 42, 0
1, 190560, Note_on_c, 9, 42, 84
1, 190560, Note_on_c, 9, 35, 119
1, 190784, Note_on_c, 9, 42, 0
1, 190785, Note_on_c, 9, 38, 118
1, 190799, Note_on_c, 9, 38, 0
1, 191039, Note_on_c, 9, 35, 0
1, 191040, Note_on_c, 9, 49, 98
1, 191279, Note_on_c, 9, 49, 0
1, 191355, Note_on_c, 9, 38, 75
1, 191399, Note_on_c, 9, 38, 0
1, 191430, Note_on_c, 9, 38, 89
1, 191519, Note_on_c, 9, 38, 0
1, 191535, Note_on_c, 9, 38, 116
1, 191759, Note_on_c, 9, 38, 0
1, 191775, Note_on_c, 9, 45, 104
1, 191999, Note_on_c, 9, 45, 0
1, 192000, Note_on_c, 9, 43, 90
1, 192284, Note_on_c, 9, 43, 0
1, 192285, Note_on_c, 9, 43, 108
1, 192479, Note_on_c, 9, 43, 0
1, 192525, Note_on_c, 9, 49, 105
1, 192525, Note_on_c, 9, 35, 119
1, 192719, Note_on_c, 9, 49, 0
1, 192719, Note_on_c, 9, 35, 0
1, 192735, Note_on_c, 9, 42, 83
1, 192959, Note_on_c, 9, 42, 0
1, 192960, Note_on_c, 9, 42, 102
1, 192974, Note_on_c, 9, 42, 0
1, 192975, Note_on_c, 9, 38, 127
1, 193199, Note_on_c, 9, 38, 0
1, 193200, Note_on_c, 9, 42, 79
1, 193439, Note_on_c, 9, 42, 0
1, 193440, Note_on_c, 9, 42, 93
1, 193440, Note_on_c, 9, 35, 117
1, 193679, Note_on_c, 9, 42, 0
1, 193680, Note_on_c, 9, 42, 85
1, 193919, Note_on_c, 9, 35, 0
1, 193919, Note_on_c, 9, 42, 0
1, 193920, Note_on_c, 9, 38, 124
1, 193920, Note_on_c, 9, 42, 85
1, 194159, Note_on_c, 9, 38, 0
1, 194159, Note_on_c, 9, 42, 0
1, 194160, Note_on_c, 9, 42, 85
1, 194399, Note_on_c, 9, 42, 0
1, 194400, Note_on_c, 9, 42, 80
1, 194415, Note_on_c, 9, 35, 116
1, 194639, Note_on_c, 9, 42, 0
1, 194639, Note_on_c, 9, 35, 0
1, 194640, Note_on_c, 9, 42, 87
1, 194879, Note_on_c, 9, 42, 0
1, 194880, Note_on_c, 9, 42, 87
1, 194894, Note_on_c, 9, 42, 0
1, 194895, Note_on_c, 9, 38, 126
1, 195119, Note_on_c, 9, 38, 0
1, 195120, Note_on_c, 9, 42, 85
1, 195359, Note_on_c, 9, 42, 0
1, 195360, Note_on_c, 9, 42, 79
1, 195375, Note_on_c, 9, 35, 118
1, 195599, Note_on_c, 9, 42, 0
1, 195599, Note_on_c, 9, 35, 0
1, 195600, Note_on_c, 9, 42, 80
1, 195839, Note_on_c, 9, 42, 0
1, 195840, Note_on_c, 9, 38, 126
1, 195840, Note_on_c, 9, 42, 83
1, 196079, Note_on_c, 9, 38, 0
1, 196079, Note_on_c, 9, 42, 0
1, 196095, Note_on_c, 9, 42, 93
1, 196319, Note_on_c, 9, 42, 0
1, 196350, Note_on_c, 9, 42, 87
1, 196350, Note_on_c, 9, 35, 120
1, 196439, Note_on_c, 9, 42, 0
1, 196575, Note_on_c, 9, 42, 83
1, 196799, Note_on_c, 9, 35, 0
1, 196799, Note_on_c, 9, 42, 0
1, 196815, Note_on_c, 9, 38, 123
1, 196815, Note_on_c, 9, 42, 93
1, 197039, Note_on_c, 9, 38, 0
1, 197039, Note_on_c, 9, 42, 0
1, 197055, Note_on_c, 9, 42, 85
1, 197279, Note_on_c, 9, 42, 0
1, 197280, Note_on_c, 9, 42, 97
1, 197295, Note_on_c, 9, 35, 119
1, 197519, Note_on_c, 9, 42, 0
1, 197519, Note_on_c, 9, 35, 0
1, 197520, Note_on_c, 9, 42, 89
1, 197759, Note_on_c, 9, 42, 0
1, 197760, Note_on_c, 9, 38, 126
1, 197760, Note_on_c, 9, 42, 87
1, 197999, Note_on_c, 9, 38, 0
1, 197999, Note_on_c, 9, 42, 0
1, 198000, Note_on_c, 9, 42, 87
1, 198239, Note_on_c, 9, 42, 0
1, 198240, Note_on_c, 9, 42, 87
1, 198255, Note_on_c, 9, 35, 119
1, 198479, Note_on_c, 9, 42, 0
1, 198479, Note_on_c, 9, 35, 0
1, 198480, Note_on_c, 9, 42, 87
1, 198719, Note_on_c, 9, 42, 0
1, 198720, Note_on_c, 9, 42, 89
1, 198734, Note_on_c, 9, 42, 0
1, 198735, Note_on_c, 9, 38, 126
1, 198959, Note_on_c, 9, 38, 0
1, 198960, Note_on_c, 9, 42, 87
1, 199199, Note_on_c, 9, 42, 0
1, 199200, Note_on_c, 9, 42, 87
1, 199215, Note_on_c, 9, 35, 113
1, 199439, Note_on_c, 9, 42, 0
1, 199439, Note_on_c, 9, 35, 0
1, 199440, Note_on_c, 9, 42, 83
1, 199679, Note_on_c, 9, 42, 0
1, 199680, Note_on_c, 9, 38, 123
1, 199680, Note_on_c, 9, 42, 85
1, 199919, Note_on_c, 9, 38, 0
1, 199919, Note_on_c, 9, 42, 0
1, 199950, Note_on_c, 9, 42, 83
1, 200039, Note_on_c, 9, 42, 0
1, 200205, Note_on_c, 9, 42, 85
1, 200220, Note_on_c, 9, 35, 115
1, 200399, Note_on_c, 9, 42, 0
1, 200399, Note_on_c, 9, 35, 0
1, 200430, Note_on_c, 9, 42, 82
1, 200519, Note_on_c, 9, 42, 0
1, 200640, Note_on_c, 9, 38, 123
1, 200640, Note_on_c, 9, 42, 85
1, 200879, Note_on_c, 9, 38, 0
1, 200879, Note_on_c, 9, 42, 0
1, 200880, Note_on_c, 9, 42, 83
1, 201119, Note_on_c, 9, 42, 0
1, 201120, Note_on_c, 9, 42, 83
1, 201135, Note_on_c, 9, 35, 112
1, 201359, Note_on_c, 9, 42, 0
1, 201359, Note_on_c, 9, 35, 0
1, 201360, Note_on_c, 9, 42, 89
1, 201599, Note_on_c, 9, 42, 0
1, 201600, Note_on_c, 9, 38, 119
1, 201600, Note_on_c, 9, 42, 89
1, 201839, Note_on_c, 9, 38, 0
1, 201839, Note_on_c, 9, 42, 0
1, 201840, Note_on_c, 9, 42, 83
1, 202079, Note_on_c, 9, 42, 0
1, 202080, Note_on_c, 9, 42, 87
1, 202080, Note_on_c, 9, 35, 114
1, 202319, Note_on_c, 9, 42, 0
1, 202320, Note_on_c, 9, 42, 85
1, 202559, Note_on_c, 9, 35, 0
1, 202559, Note_on_c, 9, 42, 0
1, 202560, Note_on_c, 9, 42, 83
1, 202574, Note_on_c, 9, 42, 0
1, 202575, Note_on_c, 9, 38, 122
1, 202799, Note_on_c, 9, 38, 0
1, 202800, Note_on_c, 9, 42, 91
1, 203039, Note_on_c, 9, 42, 0
1, 203040, Note_on_c, 9, 42, 89
1, 203040, Note_on_c, 9, 35, 114
1, 203279, Note_on_c, 9, 42, 0
1, 203295, Note_on_c, 9, 51, 85
1, 203519, Note_on_c, 9, 35, 0
1, 203519, Note_on_c, 9, 51, 0
1, 203520, Note_on_c, 9, 38, 124
1, 203520, Note_on_c, 9, 42, 89
1, 203759, Note_on_c, 9, 38, 0
1, 203759, Note_on_c, 9, 42, 0
1, 203790, Note_on_c, 9, 51, 89
1, 203879, Note_on_c, 9, 51, 0
1, 204030, Note_on_c, 9, 49, 72
1, 204030, Note_on_c, 9, 35, 113
1, 204119, Note_on_c, 9, 49, 0
1, 204255, Note_on_c, 9, 42, 82
1, 204479, Note_on_c, 9, 35, 0
1, 204479, Note_on_c, 9, 42, 0
1, 204480, Note_on_c, 9, 38, 123
1, 204480, Note_on_c, 9, 42, 87
1, 204719, Note_on_c, 9, 38, 0
1, 204719, Note_on_c, 9, 42, 0
1, 204720, Note_on_c, 9, 42, 85
1, 204959, Note_on_c, 9, 42, 0
1, 204960, Note_on_c, 9, 42, 85
1, 204960, Note_on_c, 9, 35, 114
1, 205199, Note_on_c, 9, 42, 0
1, 205200, Note_on_c, 9, 42, 85
1, 205439, Note_on_c, 9, 35, 0
1, 205439, Note_on_c, 9, 42, 0
1, 205440, Note_on_c, 9, 38, 122
1, 205440, Note_on_c, 9, 42, 85
1, 205679, Note_on_c, 9, 38, 0
1, 205679, Note_on_c, 9, 42, 0
1, 205680, Note_on_c, 9, 42, 87
1, 205919, Note_on_c, 9, 42, 0
1, 205920, Note_on_c, 9, 42, 85
1, 205935, Note_on_c, 9, 35, 116
1, 206159, Note_on_c, 9, 42, 0
1, 206159, Note_on_c, 9, 35, 0
1, 206160, Note_on_c, 9, 42, 83
1, 206399, Note_on_c, 9, 42, 0
1, 206400, Note_on_c, 9, 38, 123
1, 206400, Note_on_c, 9, 42, 85
1, 206639, Note_on_c, 9, 38, 0
1, 206639, Note_on_c, 9, 42, 0
1, 206640, Note_on_c, 9, 42, 80
1, 206879, Note_on_c, 9, 42, 0
1, 206880, Note_on_c, 9, 42, 93
1, 206880, Note_on_c, 9, 35, 114
1, 207119, Note_on_c, 9, 42, 0
1, 207120, Note_on_c, 9, 51, 78
1, 207359, Note_on_c, 9, 35, 0
1, 207359, Note_on_c, 9, 51, 0
1, 207360, Note_on_c, 9, 38, 123
1, 207360, Note_on_c, 9, 42, 85
1, 207599, Note_on_c, 9, 38, 0
1, 207599, Note_on_c, 9, 42, 0
1, 207615, Note_on_c, 9, 51, 88
1, 207839, Note_on_c, 9, 51, 0
1, 207870, Note_on_c, 9, 35, 115
1, 207885, Note_on_c, 9, 49, 74
1, 208079, Note_on_c, 9, 49, 0
1, 208095, Note_on_c, 9, 42, 82
1, 208319, Note_on_c, 9, 35, 0
1, 208319, Note_on_c, 9, 42, 0
1, 208320, Note_on_c, 9, 38, 124
1, 208320, Note_on_c, 9, 42, 85
1, 208559, Note_on_c, 9, 38, 0
1, 208559, Note_on_c, 9, 42, 0
1, 208575, Note_on_c, 9, 42, 83
1, 208799, Note_on_c, 9, 42, 0
1, 208800, Note_on_c, 9, 42, 79
1, 208815, Note_on_c, 9, 35, 113
1, 209039, Note_on_c, 9, 42, 0
1, 209039, Note_on_c, 9, 35, 0
1, 209040, Note_on_c, 9, 42, 73
1, 209279, Note_on_c, 9, 42, 0
1, 209280, Note_on_c, 9, 38, 123
1, 209280, Note_on_c, 9, 42, 83
1, 209519, Note_on_c, 9, 38, 0
1, 209519, Note_on_c, 9, 42, 0
1, 209535, Note_on_c, 9, 42, 77
1, 209759, Note_on_c, 9, 42, 0
1, 209775, Note_on_c, 9, 35, 111
1, 209790, Note_on_c, 9, 42, 85
1, 209879, Note_on_c, 9, 42, 0
1, 209999, Note_on_c, 9, 35, 0
1, 210015, Note_on_c, 9, 42, 82
1, 210239, Note_on_c, 9, 42, 0
1, 210240, Note_on_c, 9, 38, 122
1, 210254, Note_on_c, 9, 38, 0
1, 210255, Note_on_c, 9, 42, 83
1, 210479, Note_on_c, 9, 42, 0
1, 210480, Note_on_c, 9, 42, 80
1, 210719, Note_on_c, 9, 42, 0
1, 210720, Note_on_c, 9, 42, 85
1, 210720, Note_on_c, 9, 35, 117
1, 210959, Note_on_c, 9, 42, 0
1, 210975, Note_on_c, 9, 42, 85
1, 211199, Note_on_c, 9, 35, 0
1, 211199, Note_on_c, 9, 42, 0
1, 211200, Note_on_c, 9, 42, 83
1, 211214, Note_on_c, 9, 42, 0
1, 211215, Note_on_c, 9, 38, 124
1, 211439, Note_on_c, 9, 38, 0
1, 211455, Note_on_c, 9, 42, 80
1, 211679, Note_on_c, 9, 42, 0
1, 211695, Note_on_c, 9, 49, 86
1, 211710, Note_on_c, 9, 35, 120
1, 211919, Note_on_c, 9, 49, 0
1, 211920, Note_on_c, 9, 42, 85
1, 212159, Note_on_c, 9, 35, 0
1, 212159, Note_on_c, 9, 42, 0
1, 212160, Note_on_c, 9, 38, 124
1, 212160, Note_on_c, 9, 42, 85
1, 212399, Note_on_c, 9, 38, 0
1, 212399, Note_on_c, 9, 42, 0
1, 212400, Note_on_c, 9, 42, 70
1, 212639, Note_on_c, 9, 42, 0
1, 212640, Note_on_c, 9, 49, 90
1, 212640, Note_on_c, 9, 35, 116
1, 212879, Note_on_c, 9, 49, 0
1, 212880, Note_on_c, 9, 42, 80
1, 213119, Note_on_c, 9, 35, 0
1, 213119, Note_on_c, 9, 42, 0
1, 213120, Note_on_c, 9, 38, 127
1, 213120, Note_on_c, 9, 42, 83
1, 213359, Note_on_c, 9, 38, 0
1, 213359, Note_on_c, 9, 42, 0
1, 213360, Note_on_c, 9, 42, 83
1, 213599, Note_on_c, 9, 42, 0
1, 213600, Note_on_c, 9, 49, 88
1, 213615, Note_on_c, 9, 35, 122
1, 213839, Note_on_c, 9, 49, 0
1, 213839, Note_on_c, 9, 35, 0
1, 213840, Note_on_c, 9, 38, 127
1, 213959, Note_on_c, 9, 38, 0
1, 213960, Note_on_c, 9, 38, 124
1, 214079, Note_on_c, 9, 38, 0
1, 214080, Note_on_c, 9, 38, 127
1, 214199, Note_on_c, 9, 38, 0
1, 214200, Note_on_c, 9, 38, 123
1, 214319, Note_on_c, 9, 38, 0
1, 214320, Note_on_c, 9, 38, 127
1, 214439, Note_on_c, 9, 38, 0
1, 214440, Note_on_c, 9, 38, 127
1, 214559, Note_on_c, 9, 38, 0
1, 214560, Note_on_c, 9, 38, 127
1, 214799, Note_on_c, 9, 38, 0
1, 214800, Note_on_c, 9, 38, 127
1, 215039, Note_on_c, 9, 38, 0
1, 215040, Note_on_c, 9, 45, 114
1, 215279, Note_on_c, 9, 45, 0
1, 215310, Note_on_c, 9, 45, 114
1, 215399, Note_on_c, 9, 45, 0
1, 215580, Note_on_c, 9, 49, 104
1, 215580, Note_on_c, 9, 35, 119
1, 215759, Note_on_c, 9, 49, 0
1, 215759, Note_on_c, 9, 35, 0
1, 215790, Note_on_c, 9, 42, 89
1, 215879, Note_on_c, 9, 42, 0
1, 216015, Note_on_c, 9, 38, 124
1, 216015, Note_on_c, 9, 42, 85
1, 216239, Note_on_c, 9, 38, 0
1, 216239, Note_on_c, 9, 42, 0
1, 216240, Note_on_c, 9, 42, 87
1, 216479, Note_on_c, 9, 42, 0
1, 216480, Note_on_c, 9, 42, 83
1, 216480, Note_on_c, 9, 35, 115
1, 216719, Note_on_c, 9, 42, 0
1, 216720, Note_on_c, 9, 42, 87
1, 216959, Note_on_c, 9, 35, 0
1, 216959, Note_on_c, 9, 42, 0
1, 216960, Note_on_c, 9, 42, 82
1, 216974, Note_on_c, 9, 42, 0
1, 216975, Note_on_c, 9, 38, 119
1, 217199, Note_on_c, 9, 38, 0
1, 217200, Note_on_c, 9, 42, 87
1, 217439, Note_on_c, 9, 42, 0
1, 217440, Note_on_c, 9, 42, 82
1, 217440, Note_on_c, 9, 35, 117
1, 217679, Note_on_c, 9, 42, 0
1, 217680, Note_on_c, 9, 42, 83
1, 217919, Note_on_c, 9, 35, 0
1, 217919, Note_on_c, 9, 42, 0
1, 217920, Note_on_c, 9, 38, 120
1, 217934, Note_on_c, 9, 38, 0
1, 217935, Note_on_c, 9, 42, 85
1, 218159, Note_on_c, 9, 42, 0
1, 218160, Note_on_c, 9, 42, 80
1, 218399, Note_on_c, 9, 42, 0
1, 218400, Note_on_c, 9, 42, 85
1, 218400, Note_on_c, 9, 35, 115
1, 218639, Note_on_c, 9, 42, 0
1, 218670, Note_on_c, 9, 42, 85
1, 218759, Note_on_c, 9, 42, 0
1, 218879, Note_on_c, 9, 35, 0
1, 218925, Note_on_c, 9, 38, 124
1, 218925, Note_on_c, 9, 42, 80
1, 219119, Note_on_c, 9, 38, 0
1, 219119, Note_on_c, 9, 42, 0
1, 219150, Note_on_c, 9, 42, 87
1, 219239, Note_on_c, 9, 42, 0
1, 219390, Note_on_c, 9, 42, 91
1, 219405, Note_on_c, 9, 35, 113
1, 219479, Note_on_c, 9, 42, 0
1, 219599, Note_on_c, 9, 35, 0
1, 219615, Note_on_c, 9, 42, 77
1, 219839, Note_on_c, 9, 42, 0
1, 219840, Note_on_c, 9, 38, 123
1, 219840, Note_on_c, 9, 42, 83
1, 220079, Note_on_c, 9, 38, 0
1, 220079, Note_on_c, 9, 42, 0
1, 220080, Note_on_c, 9, 42, 83
1, 220319, Note_on_c, 9, 42, 0
1, 220320, Note_on_c, 9, 42, 87
1, 220335, Note_on_c, 9, 35, 114
1, 220559, Note_on_c, 9, 42, 0
1, 220559, Note_on_c, 9, 35, 0
1, 220560, Note_on_c, 9, 42, 85
1, 220799, Note_on_c, 9, 42, 0
1, 220800, Note_on_c, 9, 38, 126
1, 220800, Note_on_c, 9, 42, 85
1, 221039, Note_on_c, 9, 38, 0
1, 221039, Note_on_c, 9, 42, 0
1, 221040, Note_on_c, 9, 42, 83
1, 221279, Note_on_c, 9, 42, 0
1, 221280, Note_on_c, 9, 42, 91
1, 221280, Note_on_c, 9, 35, 115
1, 221519, Note_on_c, 9, 42, 0
1, 221520, Note_on_c, 9, 42, 82
1, 221759, Note_on_c, 9, 35, 0
1, 221759, Note_on_c, 9, 42, 0
1, 221760, Note_on_c, 9, 38, 124
1, 221760, Note_on_c, 9, 42, 87
1, 221999, Note_on_c, 9, 38, 0
1, 221999, Note_on_c, 9, 42, 0
1, 222000, Note_on_c, 9, 42, 82
1, 222239, Note_on_c, 9, 42, 0
1, 222240, Note_on_c, 9, 42, 87
1, 222255, Note_on_c, 9, 35, 112
1, 222479, Note_on_c, 9, 42, 0
1, 222479, Note_on_c, 9, 35, 0
1, 222480, Note_on_c, 9, 42, 82
1, 222719, Note_on_c, 9, 42, 0
1, 222720, Note_on_c, 9, 38, 126
1, 222720, Note_on_c, 9, 42, 76
1, 222959, Note_on_c, 9, 38, 0
1, 222959, Note_on_c, 9, 42, 0
1, 222975, Note_on_c, 9, 42, 80
1, 223199, Note_on_c, 9, 42, 0
1, 223230, Note_on_c, 9, 42, 85
1, 223245, Note_on_c, 9, 35, 111
1, 223319, Note_on_c, 9, 42, 0
1, 223439, Note_on_c, 9, 35, 0
1, 223455, Note_on_c, 9, 42, 83
1, 223679, Note_on_c, 9, 42, 0
1, 223695, Note_on_c, 9, 38, 123
1, 223695, Note_on_c, 9, 42, 82
1, 223919, Note_on_c, 9, 38, 0
1, 223919, Note_on_c, 9, 42, 0
1, 223920, Note_on_c, 9, 42, 76
1, 224159, Note_on_c, 9, 42, 0
1, 224160, Note_on_c, 9, 42, 82
1, 224160, Note_on_c, 9, 35, 110
1, 224399, Note_on_c, 9, 42, 0
1, 224400, Note_on_c, 9, 42, 75
1, 224639, Note_on_c, 9, 35, 0
1, 224639, Note_on_c, 9, 42, 0
1, 224640, Note_on_c, 9, 38, 126
1, 224640, Note_on_c, 9, 42, 80
1, 224879, Note_on_c, 9, 38, 0
1, 224879, Note_on_c, 9, 42, 0
1, 224880, Note_on_c, 9, 42, 76
1, 225119, Note_on_c, 9, 42, 0
1, 225120, Note_on_c, 9, 42, 82
1, 225120, Note_on_c, 9, 35, 111
1, 225359, Note_on_c, 9, 42, 0
1, 225375, Note_on_c, 9, 42, 85
1, 225599, Note_on_c, 9, 35, 0
1, 225599, Note_on_c, 9, 42, 0
1, 225600, Note_on_c, 9, 38, 124
1, 225614, Note_on_c, 9, 38, 0
1, 225615, Note_on_c, 9, 42, 83
1, 225839, Note_on_c, 9, 42, 0
1, 225840, Note_on_c, 9, 42, 82
1, 226079, Note_on_c, 9, 42, 0
1, 226080, Note_on_c, 9, 42, 87
1, 226080, Note_on_c, 9, 35, 112
1, 226319, Note_on_c, 9, 42, 0
1, 226320, Note_on_c, 9, 42, 85
1, 226559, Note_on_c, 9, 35, 0
1, 226559, Note_on_c, 9, 42, 0
1, 226560, Note_on_c, 9, 38, 126
1, 226560, Note_on_c, 9, 42, 85
1, 226799, Note_on_c, 9, 38, 0
1, 226799, Note_on_c, 9, 42, 0
1, 226815, Note_on_c, 9, 42, 83
1, 227039, Note_on_c, 9, 42, 0
1, 227055, Note_on_c, 9, 42, 85
1, 227055, Note_on_c, 9, 35, 111
1, 227279, Note_on_c, 9, 42, 0
1, 227279, Note_on_c, 9, 35, 0
1, 227295, Note_on_c, 9, 42, 82
1, 227519, Note_on_c, 9, 42, 0
1, 227535, Note_on_c, 9, 42, 83
1, 227549, Note_on_c, 9, 42, 0
1, 227550, Note_on_c, 9, 38, 124
1, 227639, Note_on_c, 9, 38, 0
1, 227775, Note_on_c, 9, 42, 82
1, 227999, Note_on_c, 9, 42, 0
1, 228000, Note_on_c, 9, 42, 83
1, 228015, Note_on_c, 9, 35, 113
1, 228239, Note_on_c, 9, 42, 0
1, 228239, Note_on_c, 9, 35, 0
1, 228240, Note_on_c, 9, 42, 82
1, 228479, Note_on_c, 9, 42, 0
1, 228495, Note_on_c, 9, 38, 127
1, 228495, Note_on_c, 9, 42, 82
1, 228719, Note_on_c, 9, 38, 0
1, 228719, Note_on_c, 9, 42, 0
1, 228720, Note_on_c, 9, 42, 79
1, 228959, Note_on_c, 9, 42, 0
1, 228960, Note_on_c, 9, 42, 85
1, 228975, Note_on_c, 9, 35, 120
1, 229199, Note_on_c, 9, 42, 0
1, 229199, Note_on_c, 9, 35, 0
1, 229200, Note_on_c, 9, 42, 77
1, 229439, Note_on_c, 9, 42, 0
1, 229440, Note_on_c, 9, 42, 83
1, 229454, Note_on_c, 9, 42, 0
1, 229455, Note_on_c, 9, 38, 127
1, 229679, Note_on_c, 9, 38, 0
1, 229680, Note_on_c, 9, 42, 79
1, 229919, Note_on_c, 9, 42, 0
1, 229920, Note_on_c, 9, 42, 85
1, 229935, Note_on_c, 9, 35, 115
1, 230159, Note_on_c, 9, 42, 0
1, 230159, Note_on_c, 9, 35, 0
1, 230160, Note_on_c, 9, 42, 73
1, 230174, Note_on_c, 9, 42, 0
1, 230175, Note_on_c, 9, 38, 126
1, 230399, Note_on_c, 9, 38, 0
1, 230400, Note_on_c, 9, 38, 127
1, 230684, Note_on_c, 9, 38, 0
1, 230685, Note_on_c, 9, 38, 127
1, 230879, Note_on_c, 9, 38, 0
1, 230910, Note_on_c, 9, 49, 92
1, 230925, Note_on_c, 9, 35, 116
1, 230999, Note_on_c, 9, 49, 0
1, 231119, Note_on_c, 9, 35, 0
1, 231135, Note_on_c, 9, 42, 77
1, 231359, Note_on_c, 9, 42, 0
1, 231360, Note_on_c, 9, 38, 124
1, 231360, Note_on_c, 9, 42, 82
1, 231599, Note_on_c, 9, 38, 0
1, 231599, Note_on_c, 9, 42, 0
1, 231600, Note_on_c, 9, 42, 79
1, 231839, Note_on_c, 9, 42, 0
1, 231840, Note_on_c, 9, 42, 83
1, 231840, Note_on_c, 9, 35, 114
1, 232079, Note_on_c, 9, 42, 0
1, 232080, Note_on_c, 9, 42, 73
1, 232319, Note_on_c, 9, 35, 0
1, 232319, Note_on_c, 9, 42, 0
1, 232320, Note_on_c, 9, 38, 123
1, 232320, Note_on_c, 9, 42, 83
1, 232559, Note_on_c, 9, 38, 0
1, 232559, Note_on_c, 9, 42, 0
1, 232560, Note_on_c, 9, 42, 83
1, 232799, Note_on_c, 9, 42, 0
1, 232800, Note_on_c, 9, 42, 83
1, 232815, Note_on_c, 9, 35, 117
1, 233039, Note_on_c, 9, 42, 0
1, 233039, Note_on_c, 9, 35, 0
1, 233040, Note_on_c, 9, 42, 80
1, 233279, Note_on_c, 9, 42, 0
1, 233280, Note_on_c, 9, 38, 122
1, 233280, Note_on_c, 9, 42, 82
1, 233519, Note_on_c, 9, 38, 0
1, 233519, Note_on_c, 9, 42, 0
1, 233520, Note_on_c, 9, 42, 80
1, 233759, Note_on_c, 9, 42, 0
1, 233760, Note_on_c, 9, 42, 83
1, 233760, Note_on_c, 9, 35, 115
1, 233999, Note_on_c, 9, 42, 0
1, 234015, Note_on_c, 9, 42, 82
1, 234239, Note_on_c, 9, 35, 0
1, 234239, Note_on_c, 9, 42, 0
1, 234270, Note_on_c, 9, 38, 122
1, 234270, Note_on_c, 9, 42, 82
1, 234359, Note_on_c, 9, 38, 0
1, 234359, Note_on_c, 9, 42, 0
1, 234495, Note_on_c, 9, 42, 77
1, 234719, Note_on_c, 9, 42, 0
1, 234720, Note_on_c, 9, 42, 87
1, 234720, Note_on_c, 9, 35, 114
1, 234959, Note_on_c, 9, 42, 0
1, 234975, Note_on_c, 9, 42, 75
1, 235199, Note_on_c, 9, 35, 0
1, 235199, Note_on_c, 9, 42, 0
1, 235230, Note_on_c, 9, 38, 123
1, 235230, Note_on_c, 9, 42, 76
1, 235319, Note_on_c, 9, 38, 0
1, 235319, Note_on_c, 9, 42, 0
1, 235455, Note_on_c, 9, 42, 76
1, 235679, Note_on_c, 9, 42, 0
1, 235680, Note_on_c, 9, 42, 77
1, 235695, Note_on_c, 9, 35, 116
1, 235919, Note_on_c, 9, 42, 0
1, 235919, Note_on_c, 9, 35, 0
1, 235920, Note_on_c, 9, 42, 72
1, 236159, Note_on_c, 9, 42, 0
1, 236160, Note_on_c, 9, 38, 127
1, 236160, Note_on_c, 9, 42, 75
1, 236399, Note_on_c, 9, 38, 0
1, 236399, Note_on_c, 9, 42, 0
1, 236400, Note_on_c, 9, 42, 76
1, 236639, Note_on_c, 9, 42, 0
1, 236640, Note_on_c, 9, 42, 80
1, 236640, Note_on_c, 9, 35, 113
1, 236879, Note_on_c, 9, 42, 0
1, 236880, Note_on_c, 9, 42, 87
1, 237119, Note_on_c, 9, 35, 0
1, 237119, Note_on_c, 9, 42, 0
1, 237120, Note_on_c, 9, 38, 122
1, 237120, Note_on_c, 9, 42, 79
1, 237359, Note_on_c, 9, 38, 0
1, 237359, Note_on_c, 9, 42, 0
1, 237360, Note_on_c, 9, 42, 83
1, 237599, Note_on_c, 9, 42, 0
1, 237600, Note_on_c, 9, 42, 80
1, 237600, Note_on_c, 9, 35, 116
1, 237839, Note_on_c, 9, 42, 0
1, 237840, Note_on_c, 9, 42, 72
1, 238079, Note_on_c, 9, 35, 0
1, 238079, Note_on_c, 9, 42, 0
1, 238095, Note_on_c, 9, 38, 123
1, 238095, Note_on_c, 9, 42, 87
1, 238319, Note_on_c, 9, 38, 0
1, 238319, Note_on_c, 9, 42, 0
1, 238335, Note_on_c, 9, 42, 85
1, 238559, Note_on_c, 9, 42, 0
1, 238560, Note_on_c, 9, 42, 89
1, 238590, Note_on_c, 9, 35, 113
1, 238799, Note_on_c, 9, 42, 0
1, 238830, Note_on_c, 9, 42, 85
1, 238919, Note_on_c, 9, 42, 0
1, 239039, Note_on_c, 9, 35, 0
1, 239070, Note_on_c, 9, 38, 124
1, 239070, Note_on_c, 9, 42, 85
1, 239159, Note_on_c, 9, 38, 0
1, 239159, Note_on_c, 9, 42, 0
1, 239295, Note_on_c, 9, 42, 76
1, 239519, Note_on_c, 9, 42, 0
1, 239520, Note_on_c, 9, 42, 85
1, 239520, Note_on_c, 9, 35, 118
1, 239759, Note_on_c, 9, 42, 0
1, 239760, Note_on_c, 9, 42, 77
1, 239999, Note_on_c, 9, 35, 0
1, 239999, Note_on_c, 9, 42, 0
1, 240000, Note_on_c, 9, 38, 124
1, 240000, Note_on_c, 9, 42, 82
1, 240239, Note_on_c, 9, 38, 0
1, 240239, Note_on_c, 9, 42, 0
1, 240240, Note_on_c, 9, 42, 80
1, 240479, Note_on_c, 9, 42, 0
1, 240480, Note_on_c, 9, 42, 82
1, 240495, Note_on_c, 9, 35, 118
1, 240719, Note_on_c, 9, 42, 0
1, 240719, Note_on_c, 9, 35, 0
1, 240720, Note_on_c, 9, 42, 73
1, 240959, Note_on_c, 9, 42, 0
1, 240960, Note_on_c, 9, 38, 126
1, 240960, Note_on_c, 9, 42, 80
1, 241199, Note_on_c, 9, 38, 0
1, 241199, Note_on_c, 9, 42, 0
1, 241215, Note_on_c, 9, 42, 79
1, 241439, Note_on_c, 9, 42, 0
1, 241440, Note_on_c, 9, 42, 82
1, 241455, Note_on_c, 9, 35, 117
1, 241679, Note_on_c, 9, 42, 0
1, 241679, Note_on_c, 9, 35, 0
1, 241710, Note_on_c, 9, 42, 83
1, 241799, Note_on_c, 9, 42, 0
1, 241965, Note_on_c, 9, 42, 82
1, 241979, Note_on_c, 9, 42, 0
1, 241980, Note_on_c, 9, 38, 127
1, 242204, Note_on_c, 9, 38, 0
1, 242205, Note_on_c, 9, 42, 80
1, 242399, Note_on_c, 9, 42, 0
1, 242430, Note_on_c, 9, 42, 91
1, 242445, Note_on_c, 9, 35, 115
1, 242519, Note_on_c, 9, 42, 0
1, 242639, Note_on_c, 9, 35, 0
1, 242700, Note_on_c, 9, 42, 77
1, 242879, Note_on_c, 9, 42, 0
1, 242940, Note_on_c, 9, 38, 127
1, 242940, Note_on_c, 9, 42, 83
1, 243119, Note_on_c, 9, 38, 0
1, 243119, Note_on_c, 9, 42, 0
1, 243150, Note_on_c, 9, 42, 87
1, 243239, Note_on_c, 9, 42, 0
1, 243375, Note_on_c, 9, 42, 80
1, 243375, Note_on_c, 9, 35, 115
1, 243599, Note_on_c, 9, 42, 0
1, 243599, Note_on_c, 9, 35, 0
1, 243630, Note_on_c, 9, 42, 76
1, 243719, Note_on_c, 9, 42, 0
1, 243855, Note_on_c, 9, 38, 127
1, 243855, Note_on_c, 9, 42, 82
1, 244079, Note_on_c, 9, 38, 0
1, 244079, Note_on_c, 9, 42, 0
1, 244095, Note_on_c, 9, 42, 82
1, 244319, Note_on_c, 9, 42, 0
1, 244335, Note_on_c, 9, 42, 85
1, 244335, Note_on_c, 9, 35, 111
1, 244559, Note_on_c, 9, 42, 0
1, 244559, Note_on_c, 9, 35, 0
1, 244575, Note_on_c, 9, 42, 71
1, 244799, Note_on_c, 9, 42, 0
1, 244815, Note_on_c, 9, 38, 127
1, 244815, Note_on_c, 9, 42, 79
1, 245039, Note_on_c, 9, 38, 0
1, 245039, Note_on_c, 9, 42, 0
1, 245055, Note_on_c, 9, 42, 83
1, 245279, Note_on_c, 9, 42, 0
1, 245280, Note_on_c, 9, 42, 83
1, 245280, Note_on_c, 9, 35, 110
1, 245519, Note_on_c, 9, 42, 0
1, 245535, Note_on_c, 9, 42, 83
1, 245759, Note_on_c, 9, 35, 0
1, 245759, Note_on_c, 9, 42, 0
1, 245790, Note_on_c, 9, 38, 127
1, 245790, Note_on_c, 9, 42, 80
1, 245879, Note_on_c, 9, 38, 0
1, 245879, Note_on_c, 9, 42, 0
1, 246030, Note_on_c, 9, 42, 76
1, 246119, Note_on_c, 9, 42, 0
1, 246285, Note_on_c, 9, 42, 83
1, 246300, Note_on_c, 9, 35, 115
1, 246479, Note_on_c, 9, 42, 0
1, 246479, Note_on_c, 9, 35, 0
1, 246510, Note_on_c, 9, 42, 83
1, 246599, Note_on_c, 9, 42, 0
1, 246735, Note_on_c, 9, 42, 82
1, 246749, Note_on_c, 9, 42, 0
1, 246750, Note_on_c, 9, 38, 123
1, 246839, Note_on_c, 9, 38, 0
1, 246960, Note_on_c, 9, 42, 76
1, 247199, Note_on_c, 9, 42, 0
1, 247200, Note_on_c, 9, 42, 79
1, 247215, Note_on_c, 9, 35, 114
1, 247439, Note_on_c, 9, 42, 0
1, 247439, Note_on_c, 9, 35, 0
1, 247440, Note_on_c, 9, 42, 76
1, 247679, Note_on_c, 9, 42, 0
1, 247680, Note_on_c, 9, 38, 122
1, 247694, Note_on_c, 9, 38, 0
1, 247695, Note_on_c, 9, 42, 82
1, 247919, Note_on_c, 9, 42, 0
1, 247920, Note_on_c, 9, 42, 76
1, 248159, Note_on_c, 9, 42, 0
1, 248160, Note_on_c, 9, 42, 80
1, 248175, Note_on_c, 9, 35, 114
1, 248399, Note_on_c, 9, 42, 0
1, 248399, Note_on_c, 9, 35, 0
1, 248415, Note_on_c, 9, 42, 71
1, 248639, Note_on_c, 9, 42, 0
1, 248640, Note_on_c, 9, 42, 68
1, 248654, Note_on_c, 9, 42, 0
1, 248655, Note_on_c, 9, 38, 122
1, 248879, Note_on_c, 9, 38, 0
1, 248880, Note_on_c, 9, 42, 79
1, 249119, Note_on_c, 9, 42, 0
1, 249120, Note_on_c, 9, 42, 71
1, 249135, Note_on_c, 9, 35, 115
1, 249359, Note_on_c, 9, 42, 0
1, 249359, Note_on_c, 9, 35, 0
1, 249360, Note_on_c, 9, 42, 72
1, 249599, Note_on_c, 9, 42, 0
1, 249600, Note_on_c, 9, 38, 124
1, 249600, Note_on_c, 9, 42, 80
1, 249839, Note_on_c, 9, 38, 0
1, 249839, Note_on_c, 9, 42, 0
1, 249855, Note_on_c, 9, 42, 79
1, 250079, Note_on_c, 9, 42, 0
1, 250110, Note_on_c, 9, 42, 82
1, 250110, Note_on_c, 9, 35, 113
1, 250199, Note_on_c, 9, 42, 0
1, 250350, Note_on_c, 9, 42, 73
1, 250439, Note_on_c, 9, 42, 0
1, 250559, Note_on_c, 9, 35, 0
1, 250575, Note_on_c, 9, 38, 123
1, 250589, Note_on_c, 9, 38, 0
1, 250590, Note_on_c, 9, 42, 77
1, 250679, Note_on_c, 9, 42, 0
1, 250815, Note_on_c, 9, 42, 80
1, 251039, Note_on_c, 9, 42, 0
1, 251055, Note_on_c, 9, 42, 82
1, 251055, Note_on_c, 9, 35, 115
1, 251279, Note_on_c, 9, 42, 0
1, 251279, Note_on_c, 9, 35, 0
1, 251295, Note_on_c, 9, 42, 75
1, 251519, Note_on_c, 9, 42, 0
1, 251520, Note_on_c, 9, 38, 120
1, 251520, Note_on_c, 9, 42, 82
1, 251759, Note_on_c, 9, 38, 0
1, 251759, Note_on_c, 9, 42, 0
1, 251760, Note_on_c, 9, 42, 76
1, 251999, Note_on_c, 9, 42, 0
1, 252000, Note_on_c, 9, 42, 79
1, 252000, Note_on_c, 9, 35, 115
1, 252239, Note_on_c, 9, 42, 0
1, 252240, Note_on_c, 9, 42, 77
1, 252479, Note_on_c, 9, 35, 0
1, 252479, Note_on_c, 9, 42, 0
1, 252480, Note_on_c, 9, 38, 124
1, 252480, Note_on_c, 9, 42, 79
1, 252719, Note_on_c, 9, 38, 0
1, 252719, Note_on_c, 9, 42, 0
1, 252720, Note_on_c, 9, 42, 75
1, 252959, Note_on_c, 9, 42, 0
1, 252975, Note_on_c, 9, 42, 80
1, 252975, Note_on_c, 9, 35, 115
1, 253199, Note_on_c, 9, 42, 0
1, 253199, Note_on_c, 9, 35, 0
1, 253215, Note_on_c, 9, 42, 79
1, 253439, Note_on_c, 9, 42, 0
1, 253455, Note_on_c, 9, 38, 124
1, 253455, Note_on_c, 9, 42, 76
1, 253679, Note_on_c, 9, 38, 0
1, 253679, Note_on_c, 9, 42, 0
1, 253710, Note_on_c, 9, 42, 80
1, 253799, Note_on_c, 9, 42, 0
1, 253965, Note_on_c, 9, 42, 82
1, 253965, Note_on_c, 9, 35, 115
1, 254159, Note_on_c, 9, 35, 0
1, 254204, Note_on_c, 9, 42, 0
1, 254205, Note_on_c, 9, 42, 79
1, 254399, Note_on_c, 9, 42, 0
1, 254430, Note_on_c, 9, 38, 124
1, 254444, Note_on_c, 9, 38, 0
1, 254445, Note_on_c, 9, 42, 80
1, 254639, Note_on_c, 9, 42, 0
1, 254655, Note_on_c, 9, 42, 76
1, 254879, Note_on_c, 9, 42, 0
1, 254880, Note_on_c, 9, 42, 76
1, 254895, Note_on_c, 9, 35, 115
1, 255119, Note_on_c, 9, 42, 0
1, 255119, Note_on_c, 9, 35, 0
1, 255135, Note_on_c, 9, 42, 75
1, 255359, Note_on_c, 9, 42, 0
1, 255390, Note_on_c, 9, 42, 73
1, 255404, Note_on_c, 9, 42, 0
1, 255405, Note_on_c, 9, 38, 123
1, 255599, Note_on_c, 9, 38, 0
1, 255615, Note_on_c, 9, 42, 80
1, 255839, Note_on_c, 9, 42, 0
1, 255840, Note_on_c, 9, 42, 114
1, 255855, Note_on_c, 9, 35, 111
1, 256079, Note_on_c, 9, 42, 0
1, 256079, Note_on_c, 9, 35, 0
1, 256080, Note_on_c, 9, 42, 83
1, 256319, Note_on_c, 9, 42, 0
1, 256320, Note_on_c, 9, 42, 102
1, 256334, Note_on_c, 9, 42, 0
1, 256335, Note_on_c, 9, 38, 123
1, 256559, Note_on_c, 9, 38, 0
1, 256560, Note_on_c, 9, 42, 79
1, 256799, Note_on_c, 9, 42, 0
1, 256800, Note_on_c, 9, 42, 93
1, 256815, Note_on_c, 9, 35, 115
1, 257039, Note_on_c, 9, 42, 0
1, 257039, Note_on_c, 9, 35, 0
1, 257055, Note_on_c, 9, 42, 85
1, 257279, Note_on_c, 9, 42, 0
1, 257295, Note_on_c, 9, 38, 123
1, 257295, Note_on_c, 9, 42, 85
1, 257519, Note_on_c, 9, 38, 0
1, 257519, Note_on_c, 9, 42, 0
1, 257550, Note_on_c, 9, 42, 85
1, 257639, Note_on_c, 9, 42, 0
1, 257790, Note_on_c, 9, 42, 80
1, 257805, Note_on_c, 9, 35, 115
1, 257879, Note_on_c, 9, 42, 0
1, 257999, Note_on_c, 9, 35, 0
1, 258030, Note_on_c, 9, 42, 87
1, 258119, Note_on_c, 9, 42, 0
1, 258255, Note_on_c, 9, 42, 87
1, 258269, Note_on_c, 9, 42, 0
1, 258270, Note_on_c, 9, 38, 123
1, 258359, Note_on_c, 9, 38, 0
1, 258495, Note_on_c, 9, 42, 85
1, 258719, Note_on_c, 9, 42, 0
1, 258720, Note_on_c, 9, 42, 79
1, 258735, Note_on_c, 9, 35, 117
1, 258959, Note_on_c, 9, 42, 0
1, 258959, Note_on_c, 9, 35, 0
1, 258975, Note_on_c, 9, 42, 80
1, 259199, Note_on_c, 9, 42, 0
1, 259215, Note_on_c, 9, 38, 119
1, 259215, Note_on_c, 9, 42, 83
1, 259439, Note_on_c, 9, 38, 0
1, 259439, Note_on_c, 9, 42, 0
1, 259455, Note_on_c, 9, 42, 93
1, 259679, Note_on_c, 9, 42, 0
1, 259680, Note_on_c, 9, 35, 119
1, 259695, Note_on_c, 9, 42, 87
1, 259919, Note_on_c, 9, 42, 0
1, 259935, Note_on_c, 9, 42, 83
1, 260159, Note_on_c, 9, 35, 0
1, 260159, Note_on_c, 9, 42, 0
1, 260175, Note_on_c, 9, 38, 127
1, 260175, Note_on_c, 9, 42, 93
1, 260399, Note_on_c, 9, 38, 0
1, 260399, Note_on_c, 9, 42, 0
1, 260430, Note_on_c, 9, 42, 85
1, 260519, Note_on_c, 9, 42, 0
1, 260670, Note_on_c, 9, 38, 127
1, 260670, Note_on_c, 9, 42, 97
1, 260670, Note_on_c, 9, 35, 117
1, 260759, Note_on_c, 9, 38, 0
1, 260759, Note_on_c, 9, 42, 0
1, 260910, Note_on_c, 9, 42, 89
1, 260999, Note_on_c, 9, 42, 0
1, 261119, Note_on_c, 9, 35, 0
1, 261150, Note_on_c, 9, 38, 127
1, 261150, Note_on_c, 9, 42, 87
1, 261404, Note_on_c, 9, 38, 0
1, 261404, Note_on_c, 9, 42, 0
1, 261405, Note_on_c, 9, 42, 87
1, 261599, Note_on_c, 9, 42, 0
1, 261645, Note_on_c, 9, 35, 124
1, 261660, Note_on_c, 9, 49, 83
1, 261839, Note_on_c, 9, 35, 0
1, 261839, Note_on_c, 9, 49, 0
1, 261870, Note_on_c, 9, 42, 87
1, 261959, Note_on_c, 9, 42, 0
1, 262095, Note_on_c, 9, 42, 89
1, 262109, Note_on_c, 9, 42, 0
1, 262110, Note_on_c, 9, 38, 127
1, 262199, Note_on_c, 9, 38, 0
1, 262350, Note_on_c, 9, 42, 87
1, 262439, Note_on_c, 9, 42, 0
1, 262590, Note_on_c, 9, 42, 87
1, 262590, Note_on_c, 9, 35, 118
1, 262679, Note_on_c, 9, 42, 0
1, 262815, Note_on_c, 9, 42, 83
1, 263039, Note_on_c, 9, 35, 0
1, 263039, Note_on_c, 9, 42, 0
1, 263055, Note_on_c, 9, 38, 127
1, 263055, Note_on_c, 9, 42, 85
1, 263279, Note_on_c, 9, 38, 0
1, 263279, Note_on_c, 9, 42, 0
1, 263280, Note_on_c, 9, 42, 83
1, 263519, Note_on_c, 9, 42, 0
1, 263520, Note_on_c, 9, 42, 85
1, 263535, Note_on_c, 9, 35, 115
1, 263759, Note_on_c, 9, 42, 0
1, 263759, Note_on_c, 9, 35, 0
1, 263760, Note_on_c, 9, 42, 82
1, 263999, Note_on_c, 9, 42, 0
1, 264000, Note_on_c, 9, 42, 85
1, 264014, Note_on_c, 9, 42, 0
1, 264015, Note_on_c, 9, 38, 127
1, 264239, Note_on_c, 9, 38, 0
1, 264240, Note_on_c, 9, 42, 83
1, 264479, Note_on_c, 9, 42, 0
1, 264480, Note_on_c, 9, 42, 83
1, 264495, Note_on_c, 9, 35, 118
1, 264719, Note_on_c, 9, 42, 0
1, 264719, Note_on_c, 9, 35, 0
1, 264735, Note_on_c, 9, 42, 89
1, 264959, Note_on_c, 9, 42, 0
1, 264990, Note_on_c, 9, 42, 89
1, 265004, Note_on_c, 9, 42, 0
1, 265005, Note_on_c, 9, 38, 127
1, 265244, Note_on_c, 9, 38, 0
1, 265245, Note_on_c, 9, 42, 83
1, 265439, Note_on_c, 9, 42, 0
1, 265500, Note_on_c, 9, 42, 87
1, 265500, Note_on_c, 9, 35, 119
1, 265679, Note_on_c, 9, 35, 0
1, 265724, Note_on_c, 9, 42, 0
1, 265725, Note_on_c, 9, 42, 85
1, 265919, Note_on_c, 9, 42, 0
1, 265950, Note_on_c, 9, 42, 83
1, 265964, Note_on_c, 9, 42, 0
1, 265965, Note_on_c, 9, 38, 127
1, 266159, Note_on_c, 9, 38, 0
1, 266175, Note_on_c, 9, 42, 91
1, 266399, Note_on_c, 9, 42, 0
1, 266415, Note_on_c, 9, 42, 89
1, 266415, Note_on_c, 9, 35, 115
1, 266639, Note_on_c, 9, 42, 0
1, 266639, Note_on_c, 9, 35, 0
1, 266655, Note_on_c, 9, 42, 89
1, 266879, Note_on_c, 9, 42, 0
1, 266895, Note_on_c, 9, 42, 89
1, 266909, Note_on_c, 9, 42, 0
1, 266910, Note_on_c, 9, 38, 127
1, 266999, Note_on_c, 9, 38, 0
1, 267135, Note_on_c, 9, 42, 89
1, 267359, Note_on_c, 9, 42, 0
1, 267360, Note_on_c, 9, 42, 85
1, 267360, Note_on_c, 9, 35, 118
1, 267599, Note_on_c, 9, 42, 0
1, 267600, Note_on_c, 9, 42, 82
1, 267839, Note_on_c, 9, 35, 0
1, 267839, Note_on_c, 9, 42, 0
1, 267840, Note_on_c, 9, 38, 127
1, 267840, Note_on_c, 9, 42, 87
1, 268079, Note_on_c, 9, 38, 0
1, 268079, Note_on_c, 9, 42, 0
1, 268080, Note_on_c, 9, 42, 85
1, 268319, Note_on_c, 9, 42, 0
1, 268335, Note_on_c, 9, 42, 85
1, 268335, Note_on_c, 9, 35, 117
1, 268559, Note_on_c, 9, 42, 0
1, 268559, Note_on_c, 9, 35, 0
1, 268575, Note_on_c, 9, 42, 85
1, 268799, Note_on_c, 9, 42, 0
1, 268815, Note_on_c, 9, 42, 85
1, 268829, Note_on_c, 9, 42, 0
1, 268830, Note_on_c, 9, 38, 127
1, 268919, Note_on_c, 9, 38, 0
1, 269070, Note_on_c, 9, 42, 87
1, 269159, Note_on_c, 9, 42, 0
1, 269310, Note_on_c, 9, 42, 85
1, 269310, Note_on_c, 9, 35, 119
1, 269399, Note_on_c, 9, 42, 0
1, 269550, Note_on_c, 9, 42, 83
1, 269639, Note_on_c, 9, 42, 0
1, 269759, Note_on_c, 9, 35, 0
1, 269790, Note_on_c, 9, 42, 85
1, 269804, Note_on_c, 9, 42, 0
1, 269805, Note_on_c, 9, 38, 127
1, 269999, Note_on_c, 9, 38, 0
1, 270015, Note_on_c, 9, 42, 80
1, 270239, Note_on_c, 9, 42, 0
1, 270240, Note_on_c, 9, 42, 93
1, 270255, Note_on_c, 9, 35, 116
1, 270479, Note_on_c, 9, 42, 0
1, 270479, Note_on_c, 9, 35, 0
1, 270495, Note_on_c, 9, 42, 85
1, 270719, Note_on_c, 9, 42, 0
1, 270750, Note_on_c, 9, 38, 127
1, 270750, Note_on_c, 9, 42, 85
1, 270839, Note_on_c, 9, 38, 0
1, 270839, Note_on_c, 9, 42, 0
1, 270975, Note_on_c, 9, 42, 79
1, 271199, Note_on_c, 9, 42, 0
1, 271200, Note_on_c, 9, 42, 85
1, 271215, Note_on_c, 9, 35, 116
1, 271439, Note_on_c, 9, 42, 0
1, 271439, Note_on_c, 9, 35, 0
1, 271440, Note_on_c, 9, 42, 82
1, 271679, Note_on_c, 9, 42, 0
1, 271680, Note_on_c, 9, 42, 85
1, 271694, Note_on_c, 9, 42, 0
1, 271695, Note_on_c, 9, 38, 127
1, 271919, Note_on_c, 9, 38, 0
1, 271920, Note_on_c, 9, 42, 83
1, 272159, Note_on_c, 9, 42, 0
1, 272160, Note_on_c, 9, 42, 79
1, 272175, Note_on_c, 9, 35, 117
1, 272399, Note_on_c, 9, 42, 0
1, 272399, Note_on_c, 9, 35, 0
1, 272400, Note_on_c, 9, 42, 73
1, 272639, Note_on_c, 9, 42, 0
1, 272640, Note_on_c, 9, 38, 127
1, 272640, Note_on_c, 9, 42, 83
1, 272879, Note_on_c, 9, 38, 0
1, 272879, Note_on_c, 9, 42, 0
1, 272910, Note_on_c, 9, 42, 77
1, 272999, Note_on_c, 9, 42, 0
1, 273165, Note_on_c, 9, 42, 85
1, 273165, Note_on_c, 9, 35, 117
1, 273359, Note_on_c, 9, 42, 0
1, 273359, Note_on_c, 9, 35, 0
1, 273390, Note_on_c, 9, 42, 82
1, 273479, Note_on_c, 9, 42, 0
1, 273615, Note_on_c, 9, 38, 127
1, 273615, Note_on_c, 9, 42, 83
1, 273839, Note_on_c, 9, 38, 0
1, 273839, Note_on_c, 9, 42, 0
1, 273855, Note_on_c, 9, 42, 80
1, 274079, Note_on_c, 9, 42, 0
1, 274095, Note_on_c, 9, 42, 85
1, 274095, Note_on_c, 9, 35, 120
1, 274319, Note_on_c, 9, 42, 0
1, 274319, Note_on_c, 9, 35, 0
1, 274335, Note_on_c, 9, 42, 85
1, 274559, Note_on_c, 9, 42, 0
1, 274560, Note_on_c, 9, 38, 127
1, 274560, Note_on_c, 9, 42, 83
1, 274799, Note_on_c, 9, 38, 0
1, 274799, Note_on_c, 9, 42, 0
1, 274800, Note_on_c, 9, 42, 80
1, 275039, Note_on_c, 9, 42, 0
1, 275040, Note_on_c, 9, 42, 82
1, 275055, Note_on_c, 9, 35, 123
1, 275279, Note_on_c, 9, 42, 0
1, 275279, Note_on_c, 9, 35, 0
1, 275280, Note_on_c, 9, 42, 85
1, 275519, Note_on_c, 9, 42, 0
1, 275520, Note_on_c, 9, 38, 127
1, 275520, Note_on_c, 9, 42, 85
1, 275759, Note_on_c, 9, 38, 0
1, 275759, Note_on_c, 9, 42, 0
1, 275760, Note_on_c, 9, 42, 70
1, 275999, Note_on_c, 9, 42, 0
1, 276000, Note_on_c, 9, 42, 83
1, 276000, Note_on_c, 9, 35, 118
1, 276239, Note_on_c, 9, 42, 0
1, 276270, Note_on_c, 9, 42, 80
1, 276359, Note_on_c, 9, 42, 0
1, 276479, Note_on_c, 9, 35, 0
1, 276525, Note_on_c, 9, 38, 127
1, 276525, Note_on_c, 9, 42, 83
1, 276764, Note_on_c, 9, 38, 0
1, 276764, Note_on_c, 9, 42, 0
1, 276765, Note_on_c, 9, 38, 127
1, 276779, Note_on_c, 9, 38, 0
1, 276780, Note_on_c, 9, 42, 83
1, 276959, Note_on_c, 9, 42, 0
1, 277020, Note_on_c, 9, 35, 115
1, 277035, Note_on_c, 9, 49, 86
1, 277199, Note_on_c, 9, 35, 0
1, 277439, Note_on_c, 9, 49, 0
1, 277440, End_track
0, 0, End_of_file
