0, 0, Header, 1, 1, 480
1, 0, Start_track
1, 0, Time_signature, 4, 2, 24, 8
1, 0, Key_signature, 0, "major"
1, 0, Tempo, 500000
1, 0, Control_c, 9, 121, 0
1, 0, Program_c, 9, 0
1, 0, Control_c, 9, 7, 100
1, 0, Control_c, 9, 10, 64
1, 0, Control_c, 9, 91, 0
1, 0, Control_c, 9, 93, 0
1, 0, MIDI_port, 0
1, 5760, Note_on_c, 9, 42, 126
1, 5984, Note_on_c, 9, 42, 0
1, 5985, Note_on_c, 9, 70, 110
1, 6000, Note_on_c, 9, 42, 106
1, 6119, Note_on_c, 9, 70, 0
1, 6119, Note_on_c, 9, 42, 0
1, 6120, Note_on_c, 9, 69, 78
1, 6239, Note_on_c, 9, 69, 0
1, 6240, Note_on_c, 9, 42, 78
1, 6464, Note_on_c, 9, 42, 0
1, 6465, Note_on_c, 9, 70, 105
1, 6480, Note_on_c, 9, 42, 93
1, 6599, Note_on_c, 9, 70, 0
1, 6599, Note_on_c, 9, 42, 0
1, 6600, Note_on_c, 9, 69, 70
1, 6719, Note_on_c, 9, 69, 0
1, 6720, Note_on_c, 9, 42, 124
1, 6959, Note_on_c, 9, 42, 0
1, 6960, Note_on_c, 9, 70, 109
1, 6960, Note_on_c, 9, 75, 115
1, 6960, Note_on_c, 9, 42, 111
1, 7079, Note_on_c, 9, 70, 0
1, 7079, Note_on_c, 9, 75, 0
1, 7079, Note_on_c, 9, 42, 0
1, 7080, Note_on_c, 9, 69, 79
1, 7199, Note_on_c, 9, 69, 0
1, 7200, Note_on_c, 9, 42, 68
1, 7424, Note_on_c, 9, 42, 0
1, 7425, Note_on_c, 9, 70, 109
1, 7440, Note_on_c, 9, 42, 81
1, 7559, Note_on_c, 9, 70, 0
1, 7559, Note_on_c, 9, 42, 0
1, 7560, Note_on_c, 9, 69, 75
1, 7679, Note_on_c, 9, 69, 0
1, 7680, Note_on_c, 9, 42, 125
1, 7904, Note_on_c, 9, 42, 0
1, 7905, Note_on_c, 9, 70, 115
1, 7920, Note_on_c, 9, 42, 105
1, 8039, Note_on_c, 9, 70, 0
1, 8039, Note_on_c, 9, 42, 0
1, 8040, Note_on_c, 9, 69, 81
1, 8159, Note_on_c, 9, 69, 0
1, 8160, Note_on_c, 9, 42, 75
1, 8399, Note_on_c, 9, 42, 0
1, 8400, Note_on_c, 9, 70, 110
1, 8414, Note_on_c, 9, 70, 0
1, 8415, Note_on_c, 9, 42, 91
1, 8459, Note_on_c, 9, 42, 0
1, 8520, Note_on_c, 9, 69, 78
1, 8639, Note_on_c, 9, 69, 0
1, 8640, Note_on_c, 9, 42, 120
1, 8864, Note_on_c, 9, 42, 0
1, 8865, Note_on_c, 9, 70, 108
1, 8865, Note_on_c, 9, 75, 102
1, 8880, Note_on_c, 9, 42, 104
1, 8999, Note_on_c, 9, 70, 0
1, 8999, Note_on_c, 9, 75, 0
1, 8999, Note_on_c, 9, 42, 0
1, 9000, Note_on_c, 9, 69, 78
1, 9119, Note_on_c, 9, 69, 0
1, 9120, Note_on_c, 9, 42, 80
1, 9344, Note_on_c, 9, 42, 0
1, 9345, Note_on_c, 9, 70, 113
1, 9360, Note_on_c, 9, 42, 90
1, 9479, Note_on_c, 9, 70, 0
1, 9479, Note_on_c, 9, 42, 0
1, 9480, Note_on_c, 9, 69, 82
1, 9599, Note_on_c, 9, 69, 0
1, 9600, Note_on_c, 9, 42, 120
1, 9600, Note_on_c, 9, 35, 127
1, 9839, Note_on_c, 9, 42, 0
1, 9840, Note_on_c, 9, 70, 107
1, 9840, Note_on_c, 9, 42, 100
1, 9959, Note_on_c, 9, 70, 0
1, 9959, Note_on_c, 9, 42, 0
1, 9960, Note_on_c, 9, 69, 76
1, 10079, Note_on_c, 9, 35, 0
1, 10079, Note_on_c, 9, 69, 0
1, 10080, Note_on_c, 9, 38, 127
1, 10080, Note_on_c, 9, 42, 68
1, 10319, Note_on_c, 9, 38, 0
1, 10319, Note_on_c, 9, 42, 0
1, 10320, Note_on_c, 9, 70, 109
1, 10320, Note_on_c, 9, 42, 100
1, 10439, Note_on_c, 9, 70, 0
1, 10439, Note_on_c, 9, 42, 0
1, 10440, Note_on_c, 9, 69, 75
1, 10559, Note_on_c, 9, 69, 0
1, 10560, Note_on_c, 9, 42, 122
1, 10560, Note_on_c, 9, 35, 127
1, 10799, Note_on_c, 9, 42, 0
1, 10800, Note_on_c, 9, 75, 102
1, 10814, Note_on_c, 9, 75, 0
1, 10815, Note_on_c, 9, 70, 112
1, 10815, Note_on_c, 9, 42, 101
1, 10859, Note_on_c, 9, 70, 0
1, 10859, Note_on_c, 9, 42, 0
1, 10920, Note_on_c, 9, 69, 72
1, 11039, Note_on_c, 9, 35, 0
1, 11039, Note_on_c, 9, 69, 0
1, 11040, Note_on_c, 9, 38, 127
1, 11040, Note_on_c, 9, 42, 81
1, 11279, Note_on_c, 9, 38, 0
1, 11279, Note_on_c, 9, 42, 0
1, 11280, Note_on_c, 9, 70, 110
1, 11280, Note_on_c, 9, 42, 91
1, 11399, Note_on_c, 9, 70, 0
1, 11399, Note_on_c, 9, 42, 0
1, 11400, Note_on_c, 9, 69, 78
1, 11519, Note_on_c, 9, 69, 0
1, 11520, Note_on_c, 9, 42, 126
1, 11520, Note_on_c, 9, 35, 127
1, 11759, Note_on_c, 9, 42, 0
1, 11760, Note_on_c, 9, 70, 107
1, 11760, Note_on_c, 9, 42, 105
1, 11879, Note_on_c, 9, 70, 0
1, 11879, Note_on_c, 9, 42, 0
1, 11880, Note_on_c, 9, 69, 73
1, 11999, Note_on_c, 9, 35, 0
1, 11999, Note_on_c, 9, 69, 0
1, 12000, Note_on_c, 9, 38, 127
1, 12000, Note_on_c, 9, 42, 77
1, 12239, Note_on_c, 9, 38, 0
1, 12239, Note_on_c, 9, 42, 0
1, 12240, Note_on_c, 9, 70, 113
1, 12240, Note_on_c, 9, 42, 82
1, 12359, Note_on_c, 9, 70, 0
1, 12359, Note_on_c, 9, 42, 0
1, 12360, Note_on_c, 9, 69, 79
1, 12479, Note_on_c, 9, 69, 0
1, 12480, Note_on_c, 9, 42, 122
1, 12480, Note_on_c, 9, 35, 127
1, 12704, Note_on_c, 9, 42, 0
1, 12705, Note_on_c, 9, 70, 109
1, 12705, Note_on_c, 9, 42, 106
1, 12720, Note_on_c, 9, 75, 105
1, 12839, Note_on_c, 9, 70, 0
1, 12839, Note_on_c, 9, 42, 0
1, 12839, Note_on_c, 9, 75, 0
1, 12840, Note_on_c, 9, 69, 78
1, 12959, Note_on_c, 9, 35, 0
1, 12959, Note_on_c, 9, 69, 0
1, 12960, Note_on_c, 9, 38, 127
1, 12960, Note_on_c, 9, 42, 96
1, 13199, Note_on_c, 9, 38, 0
1, 13199, Note_on_c, 9, 42, 0
1, 13200, Note_on_c, 9, 70, 113
1, 13200, Note_on_c, 9, 42, 76
1, 13319, Note_on_c, 9, 70, 0
1, 13319, Note_on_c, 9, 42, 0
1, 13320, Note_on_c, 9, 69, 81
1, 13439, Note_on_c, 9, 69, 0
1, 13440, Note_on_c, 9, 42, 120
1, 13440, Note_on_c, 9, 35, 127
1, 13679, Note_on_c, 9, 42, 0
1, 13680, Note_on_c, 9, 70, 108
1, 13680, Note_on_c, 9, 42, 101
1, 13799, Note_on_c, 9, 70, 0
1, 13799, Note_on_c, 9, 42, 0
1, 13800, Note_on_c, 9, 69, 77
1, 13919, Note_on_c, 9, 35, 0
1, 13919, Note_on_c, 9, 69, 0
1, 13920, Note_on_c, 9, 38, 127
1, 13920, Note_on_c, 9, 42, 83
1, 14159, Note_on_c, 9, 38, 0
1, 14159, Note_on_c, 9, 42, 0
1, 14160, Note_on_c, 9, 70, 112
1, 14160, Note_on_c, 9, 42, 81
1, 14279, Note_on_c, 9, 70, 0
1, 14279, Note_on_c, 9, 42, 0
1, 14280, Note_on_c, 9, 69, 81
1, 14399, Note_on_c, 9, 69, 0
1, 14400, Note_on_c, 9, 42, 126
1, 14400, Note_on_c, 9, 35, 127
1, 14639, Note_on_c, 9, 42, 0
1, 14640, Note_on_c, 9, 75, 95
1, 14654, Note_on_c, 9, 75, 0
1, 14655, Note_on_c, 9, 70, 112
1, 14655, Note_on_c, 9, 42, 105
1, 14699, Note_on_c, 9, 70, 0
1, 14699, Note_on_c, 9, 42, 0
1, 14760, Note_on_c, 9, 69, 80
1, 14879, Note_on_c, 9, 35, 0
1, 14879, Note_on_c, 9, 69, 0
1, 14880, Note_on_c, 9, 38, 127
1, 14880, Note_on_c, 9, 42, 81
1, 15119, Note_on_c, 9, 38, 0
1, 15119, Note_on_c, 9, 42, 0
1, 15120, Note_on_c, 9, 70, 108
1, 15120, Note_on_c, 9, 42, 92
1, 15239, Note_on_c, 9, 70, 0
1, 15239, Note_on_c, 9, 42, 0
1, 15240, Note_on_c, 9, 69, 78
1, 15359, Note_on_c, 9, 69, 0
1, 15360, Note_on_c, 9, 42, 127
1, 15360, Note_on_c, 9, 35, 127
1, 15599, Note_on_c, 9, 42, 0
1, 15600, Note_on_c, 9, 70, 110
1, 15600, Note_on_c, 9, 42, 104
1, 15719, Note_on_c, 9, 70, 0
1, 15719, Note_on_c, 9, 42, 0
1, 15720, Note_on_c, 9, 69, 75
1, 15839, Note_on_c, 9, 35, 0
1, 15839, Note_on_c, 9, 69, 0
1, 15840, Note_on_c, 9, 38, 127
1, 15840, Note_on_c, 9, 42, 78
1, 16079, Note_on_c, 9, 38, 0
1, 16079, Note_on_c, 9, 42, 0
1, 16080, Note_on_c, 9, 70, 112
1, 16080, Note_on_c, 9, 42, 89
1, 16199, Note_on_c, 9, 70, 0
1, 16199, Note_on_c, 9, 42, 0
1, 16200, Note_on_c, 9, 69, 82
1, 16319, Note_on_c, 9, 69, 0
1, 16320, Note_on_c, 9, 42, 120
1, 16320, Note_on_c, 9, 35, 127
1, 16544, Note_on_c, 9, 42, 0
1, 16545, Note_on_c, 9, 70, 113
1, 16545, Note_on_c, 9, 42, 100
1, 16560, Note_on_c, 9, 75, 101
1, 16679, Note_on_c, 9, 70, 0
1, 16679, Note_on_c, 9, 42, 0
1, 16679, Note_on_c, 9, 75, 0
1, 16680, Note_on_c, 9, 69, 74
1, 16799, Note_on_c, 9, 35, 0
1, 16799, Note_on_c, 9, 69, 0
1, 16800, Note_on_c, 9, 38, 127
1, 16800, Note_on_c, 9, 42, 94
1, 17039, Note_on_c, 9, 38, 0
1, 17039, Note_on_c, 9, 42, 0
1, 17040, Note_on_c, 9, 46, 87
1, 17040, Note_on_c, 9, 70, 113
1, 17159, Note_on_c, 9, 46, 0
1, 17159, Note_on_c, 9, 70, 0
1, 17160, Note_on_c, 9, 69, 78
1, 17279, Note_on_c, 9, 69, 0
1, 17280, Note_on_c, 9, 42, 120
1, 17280, Note_on_c, 9, 35, 127
1, 17519, Note_on_c, 9, 42, 0
1, 17520, Note_on_c, 9, 70, 107
1, 17520, Note_on_c, 9, 42, 100
1, 17639, Note_on_c, 9, 70, 0
1, 17639, Note_on_c, 9, 42, 0
1, 17640, Note_on_c, 9, 69, 76
1, 17759, Note_on_c, 9, 35, 0
1, 17759, Note_on_c, 9, 69, 0
1, 17760, Note_on_c, 9, 38, 127
1, 17760, Note_on_c, 9, 42, 68
1, 17999, Note_on_c, 9, 38, 0
1, 17999, Note_on_c, 9, 42, 0
1, 18000, Note_on_c, 9, 70, 109
1, 18000, Note_on_c, 9, 42, 100
1, 18119, Note_on_c, 9, 70, 0
1, 18119, Note_on_c, 9, 42, 0
1, 18120, Note_on_c, 9, 69, 75
1, 18239, Note_on_c, 9, 69, 0
1, 18240, Note_on_c, 9, 42, 122
1, 18240, Note_on_c, 9, 35, 127
1, 18479, Note_on_c, 9, 42, 0
1, 18480, Note_on_c, 9, 75, 102
1, 18494, Note_on_c, 9, 75, 0
1, 18495, Note_on_c, 9, 70, 112
1, 18495, Note_on_c, 9, 42, 101
1, 18539, Note_on_c, 9, 70, 0
1, 18539, Note_on_c, 9, 42, 0
1, 18600, Note_on_c, 9, 69, 72
1, 18719, Note_on_c, 9, 35, 0
1, 18719, Note_on_c, 9, 69, 0
1, 18720, Note_on_c, 9, 38, 127
1, 18720, Note_on_c, 9, 42, 81
1, 18959, Note_on_c, 9, 38, 0
1, 18959, Note_on_c, 9, 42, 0
1, 18960, Note_on_c, 9, 70, 110
1, 18960, Note_on_c, 9, 42, 91
1, 19079, Note_on_c, 9, 70, 0
1, 19079, Note_on_c, 9, 42, 0
1, 19080, Note_on_c, 9, 69, 78
1, 19199, Note_on_c, 9, 69, 0
1, 19200, Note_on_c, 9, 42, 126
1, 19200, Note_on_c, 9, 35, 127
1, 19439, Note_on_c, 9, 42, 0
1, 19440, Note_on_c, 9, 70, 107
1, 19440, Note_on_c, 9, 42, 105
1, 19559, Note_on_c, 9, 70, 0
1, 19559, Note_on_c, 9, 42, 0
1, 19560, Note_on_c, 9, 69, 73
1, 19679, Note_on_c, 9, 35, 0
1, 19679, Note_on_c, 9, 69, 0
1, 19680, Note_on_c, 9, 38, 127
1, 19680, Note_on_c, 9, 42, 77
1, 19919, Note_on_c, 9, 38, 0
1, 19919, Note_on_c, 9, 42, 0
1, 19920, Note_on_c, 9, 70, 113
1, 19920, Note_on_c, 9, 42, 82
1, 20039, Note_on_c, 9, 70, 0
1, 20039, Note_on_c, 9, 42, 0
1, 20040, Note_on_c, 9, 69, 79
1, 20159, Note_on_c, 9, 69, 0
1, 20160, Note_on_c, 9, 42, 122
1, 20160, Note_on_c, 9, 35, 127
1, 20384, Note_on_c, 9, 42, 0
1, 20385, Note_on_c, 9, 70, 109
1, 20385, Note_on_c, 9, 42, 106
1, 20400, Note_on_c, 9, 75, 105
1, 20519, Note_on_c, 9, 70, 0
1, 20519, Note_on_c, 9, 42, 0
1, 20519, Note_on_c, 9, 75, 0
1, 20520, Note_on_c, 9, 69, 78
1, 20639, Note_on_c, 9, 35, 0
1, 20639, Note_on_c, 9, 69, 0
1, 20640, Note_on_c, 9, 38, 127
1, 20640, Note_on_c, 9, 42, 96
1, 20879, Note_on_c, 9, 38, 0
1, 20879, Note_on_c, 9, 42, 0
1, 20880, Note_on_c, 9, 70, 113
1, 20880, Note_on_c, 9, 42, 76
1, 20999, Note_on_c, 9, 70, 0
1, 20999, Note_on_c, 9, 42, 0
1, 21000, Note_on_c, 9, 69, 81
1, 21119, Note_on_c, 9, 69, 0
1, 21120, Note_on_c, 9, 42, 120
1, 21120, Note_on_c, 9, 35, 127
1, 21359, Note_on_c, 9, 42, 0
1, 21360, Note_on_c, 9, 70, 108
1, 21360, Note_on_c, 9, 42, 101
1, 21479, Note_on_c, 9, 70, 0
1, 21479, Note_on_c, 9, 42, 0
1, 21480, Note_on_c, 9, 69, 77
1, 21599, Note_on_c, 9, 35, 0
1, 21599, Note_on_c, 9, 69, 0
1, 21600, Note_on_c, 9, 38, 127
1, 21600, Note_on_c, 9, 42, 83
1, 21839, Note_on_c, 9, 38, 0
1, 21839, Note_on_c, 9, 42, 0
1, 21840, Note_on_c, 9, 70, 112
1, 21840, Note_on_c, 9, 42, 81
1, 21959, Note_on_c, 9, 70, 0
1, 21959, Note_on_c, 9, 42, 0
1, 21960, Note_on_c, 9, 69, 81
1, 22079, Note_on_c, 9, 69, 0
1, 22080, Note_on_c, 9, 42, 126
1, 22080, Note_on_c, 9, 35, 127
1, 22319, Note_on_c, 9, 42, 0
1, 22320, Note_on_c, 9, 75, 95
1, 22334, Note_on_c, 9, 75, 0
1, 22335, Note_on_c, 9, 70, 112
1, 22335, Note_on_c, 9, 42, 105
1, 22379, Note_on_c, 9, 70, 0
1, 22379, Note_on_c, 9, 42, 0
1, 22440, Note_on_c, 9, 69, 80
1, 22559, Note_on_c, 9, 35, 0
1, 22559, Note_on_c, 9, 69, 0
1, 22560, Note_on_c, 9, 38, 127
1, 22560, Note_on_c, 9, 42, 81
1, 22799, Note_on_c, 9, 38, 0
1, 22799, Note_on_c, 9, 42, 0
1, 22800, Note_on_c, 9, 70, 108
1, 22800, Note_on_c, 9, 42, 92
1, 22919, Note_on_c, 9, 70, 0
1, 22919, Note_on_c, 9, 42, 0
1, 22920, Note_on_c, 9, 69, 78
1, 23039, Note_on_c, 9, 69, 0
1, 23040, Note_on_c, 9, 42, 127
1, 23040, Note_on_c, 9, 35, 127
1, 23279, Note_on_c, 9, 42, 0
1, 23280, Note_on_c, 9, 70, 110
1, 23280, Note_on_c, 9, 42, 104
1, 23399, Note_on_c, 9, 70, 0
1, 23399, Note_on_c, 9, 42, 0
1, 23400, Note_on_c, 9, 69, 75
1, 23519, Note_on_c, 9, 35, 0
1, 23519, Note_on_c, 9, 69, 0
1, 23520, Note_on_c, 9, 38, 127
1, 23520, Note_on_c, 9, 42, 78
1, 23759, Note_on_c, 9, 38, 0
1, 23759, Note_on_c, 9, 42, 0
1, 23760, Note_on_c, 9, 70, 112
1, 23760, Note_on_c, 9, 42, 89
1, 23879, Note_on_c, 9, 70, 0
1, 23879, Note_on_c, 9, 42, 0
1, 23880, Note_on_c, 9, 69, 82
1, 23999, Note_on_c, 9, 69, 0
1, 24000, Note_on_c, 9, 42, 120
1, 24000, Note_on_c, 9, 35, 127
1, 24224, Note_on_c, 9, 42, 0
1, 24225, Note_on_c, 9, 70, 113
1, 24225, Note_on_c, 9, 42, 100
1, 24240, Note_on_c, 9, 75, 101
1, 24359, Note_on_c, 9, 70, 0
1, 24359, Note_on_c, 9, 42, 0
1, 24359, Note_on_c, 9, 75, 0
1, 24360, Note_on_c, 9, 69, 74
1, 24479, Note_on_c, 9, 35, 0
1, 24479, Note_on_c, 9, 69, 0
1, 24480, Note_on_c, 9, 38, 127
1, 24480, Note_on_c, 9, 42, 94
1, 24719, Note_on_c, 9, 38, 0
1, 24719, Note_on_c, 9, 42, 0
1, 24720, Note_on_c, 9, 70, 113
1, 24720, Note_on_c, 9, 42, 87
1, 24839, Note_on_c, 9, 70, 0
1, 24839, Note_on_c, 9, 42, 0
1, 24840, Note_on_c, 9, 69, 78
1, 24959, Note_on_c, 9, 69, 0
1, 24960, Note_on_c, 9, 42, 120
1, 24960, Note_on_c, 9, 35, 127
1, 25199, Note_on_c, 9, 42, 0
1, 25200, Note_on_c, 9, 70, 107
1, 25200, Note_on_c, 9, 42, 100
1, 25319, Note_on_c, 9, 70, 0
1, 25319, Note_on_c, 9, 42, 0
1, 25320, Note_on_c, 9, 69, 76
1, 25439, Note_on_c, 9, 35, 0
1, 25439, Note_on_c, 9, 69, 0
1, 25440, Note_on_c, 9, 38, 127
1, 25440, Note_on_c, 9, 42, 68
1, 25679, Note_on_c, 9, 38, 0
1, 25679, Note_on_c, 9, 42, 0
1, 25680, Note_on_c, 9, 70, 109
1, 25680, Note_on_c, 9, 42, 100
1, 25799, Note_on_c, 9, 70, 0
1, 25799, Note_on_c, 9, 42, 0
1, 25800, Note_on_c, 9, 69, 75
1, 25919, Note_on_c, 9, 69, 0
1, 25920, Note_on_c, 9, 42, 122
1, 25920, Note_on_c, 9, 35, 127
1, 26159, Note_on_c, 9, 42, 0
1, 26160, Note_on_c, 9, 75, 102
1, 26174, Note_on_c, 9, 75, 0
1, 26175, Note_on_c, 9, 70, 112
1, 26175, Note_on_c, 9, 42, 101
1, 26219, Note_on_c, 9, 70, 0
1, 26219, Note_on_c, 9, 42, 0
1, 26280, Note_on_c, 9, 69, 72
1, 26399, Note_on_c, 9, 35, 0
1, 26399, Note_on_c, 9, 69, 0
1, 26400, Note_on_c, 9, 38, 127
1, 26400, Note_on_c, 9, 42, 81
1, 26639, Note_on_c, 9, 38, 0
1, 26639, Note_on_c, 9, 42, 0
1, 26640, Note_on_c, 9, 70, 110
1, 26640, Note_on_c, 9, 42, 91
1, 26759, Note_on_c, 9, 70, 0
1, 26759, Note_on_c, 9, 42, 0
1, 26760, Note_on_c, 9, 69, 78
1, 26879, Note_on_c, 9, 69, 0
1, 26880, Note_on_c, 9, 42, 126
1, 26880, Note_on_c, 9, 35, 127
1, 27119, Note_on_c, 9, 42, 0
1, 27120, Note_on_c, 9, 70, 107
1, 27120, Note_on_c, 9, 42, 105
1, 27239, Note_on_c, 9, 70, 0
1, 27239, Note_on_c, 9, 42, 0
1, 27240, Note_on_c, 9, 69, 73
1, 27359, Note_on_c, 9, 35, 0
1, 27359, Note_on_c, 9, 69, 0
1, 27360, Note_on_c, 9, 38, 127
1, 27360, Note_on_c, 9, 42, 77
1, 27599, Note_on_c, 9, 38, 0
1, 27599, Note_on_c, 9, 42, 0
1, 27600, Note_on_c, 9, 70, 113
1, 27600, Note_on_c, 9, 42, 82
1, 27719, Note_on_c, 9, 70, 0
1, 27719, Note_on_c, 9, 42, 0
1, 27720, Note_on_c, 9, 69, 79
1, 27839, Note_on_c, 9, 69, 0
1, 27840, Note_on_c, 9, 42, 122
1, 27840, Note_on_c, 9, 35, 127
1, 28064, Note_on_c, 9, 42, 0
1, 28065, Note_on_c, 9, 70, 109
1, 28065, Note_on_c, 9, 42, 106
1, 28080, Note_on_c, 9, 75, 105
1, 28199, Note_on_c, 9, 70, 0
1, 28199, Note_on_c, 9, 42, 0
1, 28199, Note_on_c, 9, 75, 0
1, 28200, Note_on_c, 9, 69, 78
1, 28319, Note_on_c, 9, 35, 0
1, 28319, Note_on_c, 9, 69, 0
1, 28320, Note_on_c, 9, 38, 127
1, 28320, Note_on_c, 9, 42, 96
1, 28559, Note_on_c, 9, 38, 0
1, 28559, Note_on_c, 9, 42, 0
1, 28560, Note_on_c, 9, 70, 113
1, 28560, Note_on_c, 9, 42, 76
1, 28679, Note_on_c, 9, 70, 0
1, 28679, Note_on_c, 9, 42, 0
1, 28680, Note_on_c, 9, 69, 81
1, 28799, Note_on_c, 9, 69, 0
1, 28800, Note_on_c, 9, 42, 120
1, 28800, Note_on_c, 9, 35, 127
1, 29039, Note_on_c, 9, 42, 0
1, 29040, Note_on_c, 9, 70, 108
1, 29040, Note_on_c, 9, 42, 101
1, 29159, Note_on_c, 9, 70, 0
1, 29159, Note_on_c, 9, 42, 0
1, 29160, Note_on_c, 9, 69, 77
1, 29279, Note_on_c, 9, 35, 0
1, 29279, Note_on_c, 9, 69, 0
1, 29280, Note_on_c, 9, 38, 127
1, 29280, Note_on_c, 9, 42, 83
1, 29519, Note_on_c, 9, 38, 0
1, 29519, Note_on_c, 9, 42, 0
1, 29520, Note_on_c, 9, 70, 112
1, 29520, Note_on_c, 9, 42, 81
1, 29639, Note_on_c, 9, 70, 0
1, 29639, Note_on_c, 9, 42, 0
1, 29640, Note_on_c, 9, 69, 81
1, 29759, Note_on_c, 9, 69, 0
1, 29760, Note_on_c, 9, 42, 126
1, 29760, Note_on_c, 9, 35, 127
1, 29999, Note_on_c, 9, 42, 0
1, 30000, Note_on_c, 9, 75, 95
1, 30014, Note_on_c, 9, 75, 0
1, 30015, Note_on_c, 9, 70, 112
1, 30015, Note_on_c, 9, 42, 105
1, 30059, Note_on_c, 9, 70, 0
1, 30059, Note_on_c, 9, 42, 0
1, 30120, Note_on_c, 9, 69, 80
1, 30239, Note_on_c, 9, 35, 0
1, 30239, Note_on_c, 9, 69, 0
1, 30240, Note_on_c, 9, 38, 127
1, 30240, Note_on_c, 9, 42, 81
1, 30479, Note_on_c, 9, 38, 0
1, 30479, Note_on_c, 9, 42, 0
1, 30480, Note_on_c, 9, 70, 108
1, 30480, Note_on_c, 9, 42, 92
1, 30599, Note_on_c, 9, 70, 0
1, 30599, Note_on_c, 9, 42, 0
1, 30600, Note_on_c, 9, 69, 78
1, 30719, Note_on_c, 9, 69, 0
1, 30720, Note_on_c, 9, 42, 127
1, 30720, Note_on_c, 9, 35, 127
1, 30959, Note_on_c, 9, 42, 0
1, 30960, Note_on_c, 9, 70, 110
1, 30960, Note_on_c, 9, 42, 104
1, 31079, Note_on_c, 9, 70, 0
1, 31079, Note_on_c, 9, 42, 0
1, 31080, Note_on_c, 9, 69, 75
1, 31199, Note_on_c, 9, 35, 0
1, 31199, Note_on_c, 9, 69, 0
1, 31200, Note_on_c, 9, 38, 127
1, 31200, Note_on_c, 9, 42, 78
1, 31439, Note_on_c, 9, 38, 0
1, 31439, Note_on_c, 9, 42, 0
1, 31440, Note_on_c, 9, 70, 112
1, 31440, Note_on_c, 9, 42, 89
1, 31559, Note_on_c, 9, 70, 0
1, 31559, Note_on_c, 9, 42, 0
1, 31560, Note_on_c, 9, 69, 82
1, 31679, Note_on_c, 9, 69, 0
1, 31680, Note_on_c, 9, 42, 120
1, 31680, Note_on_c, 9, 35, 127
1, 31904, Note_on_c, 9, 42, 0
1, 31905, Note_on_c, 9, 38, 121
1, 31905, Note_on_c, 9, 70, 113
1, 31905, Note_on_c, 9, 42, 100
1, 31920, Note_on_c, 9, 75, 101
1, 32039, Note_on_c, 9, 38, 0
1, 32039, Note_on_c, 9, 70, 0
1, 32039, Note_on_c, 9, 42, 0
1, 32039, Note_on_c, 9, 75, 0
1, 32040, Note_on_c, 9, 69, 74
1, 32159, Note_on_c, 9, 35, 0
1, 32159, Note_on_c, 9, 69, 0
1, 32160, Note_on_c, 9, 38, 127
1, 32160, Note_on_c, 9, 42, 94
1, 32399, Note_on_c, 9, 38, 0
1, 32399, Note_on_c, 9, 42, 0
1, 32400, Note_on_c, 9, 38, 127
1, 32400, Note_on_c, 9, 70, 113
1, 32400, Note_on_c, 9, 42, 87
1, 32519, Note_on_c, 9, 38, 0
1, 32519, Note_on_c, 9, 70, 0
1, 32519, Note_on_c, 9, 42, 0
1, 32520, Note_on_c, 9, 69, 78
1, 32639, Note_on_c, 9, 69, 0
1, 32640, Note_on_c, 9, 49, 118
1, 32640, Note_on_c, 9, 35, 127
1, 32879, Note_on_c, 9, 49, 0
1, 32880, Note_on_c, 9, 70, 107
1, 32880, Note_on_c, 9, 42, 100
1, 32999, Note_on_c, 9, 70, 0
1, 32999, Note_on_c, 9, 42, 0
1, 33000, Note_on_c, 9, 69, 76
1, 33119, Note_on_c, 9, 35, 0
1, 33119, Note_on_c, 9, 69, 0
1, 33120, Note_on_c, 9, 38, 127
1, 33120, Note_on_c, 9, 42, 68
1, 33359, Note_on_c, 9, 38, 0
1, 33359, Note_on_c, 9, 42, 0
1, 33360, Note_on_c, 9, 70, 109
1, 33360, Note_on_c, 9, 42, 100
1, 33479, Note_on_c, 9, 70, 0
1, 33479, Note_on_c, 9, 42, 0
1, 33480, Note_on_c, 9, 69, 75
1, 33599, Note_on_c, 9, 69, 0
1, 33600, Note_on_c, 9, 42, 122
1, 33600, Note_on_c, 9, 35, 127
1, 33839, Note_on_c, 9, 42, 0
1, 33840, Note_on_c, 9, 75, 102
1, 33854, Note_on_c, 9, 75, 0
1, 33855, Note_on_c, 9, 70, 112
1, 33855, Note_on_c, 9, 42, 101
1, 33899, Note_on_c, 9, 70, 0
1, 33899, Note_on_c, 9, 42, 0
1, 33960, Note_on_c, 9, 69, 72
1, 34079, Note_on_c, 9, 35, 0
1, 34079, Note_on_c, 9, 69, 0
1, 34080, Note_on_c, 9, 38, 127
1, 34080, Note_on_c, 9, 42, 81
1, 34319, Note_on_c, 9, 38, 0
1, 34319, Note_on_c, 9, 42, 0
1, 34320, Note_on_c, 9, 70, 110
1, 34320, Note_on_c, 9, 42, 91
1, 34439, Note_on_c, 9, 70, 0
1, 34439, Note_on_c, 9, 42, 0
1, 34440, Note_on_c, 9, 69, 78
1, 34559, Note_on_c, 9, 69, 0
1, 34560, Note_on_c, 9, 42, 126
1, 34560, Note_on_c, 9, 35, 127
1, 34799, Note_on_c, 9, 42, 0
1, 34800, Note_on_c, 9, 70, 107
1, 34800, Note_on_c, 9, 42, 105
1, 34919, Note_on_c, 9, 70, 0
1, 34919, Note_on_c, 9, 42, 0
1, 34920, Note_on_c, 9, 69, 73
1, 35039, Note_on_c, 9, 35, 0
1, 35039, Note_on_c, 9, 69, 0
1, 35040, Note_on_c, 9, 38, 127
1, 35040, Note_on_c, 9, 42, 77
1, 35279, Note_on_c, 9, 38, 0
1, 35279, Note_on_c, 9, 42, 0
1, 35280, Note_on_c, 9, 70, 113
1, 35280, Note_on_c, 9, 42, 82
1, 35399, Note_on_c, 9, 70, 0
1, 35399, Note_on_c, 9, 42, 0
1, 35400, Note_on_c, 9, 69, 79
1, 35519, Note_on_c, 9, 69, 0
1, 35520, Note_on_c, 9, 42, 122
1, 35520, Note_on_c, 9, 35, 127
1, 35744, Note_on_c, 9, 42, 0
1, 35745, Note_on_c, 9, 70, 109
1, 35745, Note_on_c, 9, 42, 106
1, 35760, Note_on_c, 9, 75, 105
1, 35879, Note_on_c, 9, 70, 0
1, 35879, Note_on_c, 9, 42, 0
1, 35879, Note_on_c, 9, 75, 0
1, 35880, Note_on_c, 9, 69, 78
1, 35999, Note_on_c, 9, 35, 0
1, 35999, Note_on_c, 9, 69, 0
1, 36000, Note_on_c, 9, 38, 127
1, 36000, Note_on_c, 9, 42, 96
1, 36239, Note_on_c, 9, 38, 0
1, 36239, Note_on_c, 9, 42, 0
1, 36240, Note_on_c, 9, 70, 113
1, 36240, Note_on_c, 9, 42, 76
1, 36359, Note_on_c, 9, 70, 0
1, 36359, Note_on_c, 9, 42, 0
1, 36360, Note_on_c, 9, 69, 81
1, 36479, Note_on_c, 9, 69, 0
1, 36480, Note_on_c, 9, 42, 120
1, 36480, Note_on_c, 9, 35, 127
1, 36719, Note_on_c, 9, 42, 0
1, 36720, Note_on_c, 9, 70, 108
1, 36720, Note_on_c, 9, 42, 101
1, 36839, Note_on_c, 9, 70, 0
1, 36839, Note_on_c, 9, 42, 0
1, 36840, Note_on_c, 9, 69, 77
1, 36959, Note_on_c, 9, 35, 0
1, 36959, Note_on_c, 9, 69, 0
1, 36960, Note_on_c, 9, 38, 127
1, 36960, Note_on_c, 9, 42, 83
1, 37199, Note_on_c, 9, 38, 0
1, 37199, Note_on_c, 9, 42, 0
1, 37200, Note_on_c, 9, 70, 112
1, 37200, Note_on_c, 9, 42, 81
1, 37319, Note_on_c, 9, 70, 0
1, 37319, Note_on_c, 9, 42, 0
1, 37320, Note_on_c, 9, 69, 81
1, 37439, Note_on_c, 9, 69, 0
1, 37440, Note_on_c, 9, 42, 126
1, 37440, Note_on_c, 9, 35, 127
1, 37679, Note_on_c, 9, 42, 0
1, 37680, Note_on_c, 9, 75, 95
1, 37694, Note_on_c, 9, 75, 0
1, 37695, Note_on_c, 9, 70, 112
1, 37695, Note_on_c, 9, 42, 105
1, 37739, Note_on_c, 9, 70, 0
1, 37739, Note_on_c, 9, 42, 0
1, 37800, Note_on_c, 9, 69, 80
1, 37919, Note_on_c, 9, 35, 0
1, 37919, Note_on_c, 9, 69, 0
1, 37920, Note_on_c, 9, 38, 127
1, 37920, Note_on_c, 9, 42, 81
1, 38159, Note_on_c, 9, 38, 0
1, 38159, Note_on_c, 9, 42, 0
1, 38160, Note_on_c, 9, 46, 92
1, 38160, Note_on_c, 9, 70, 108
1, 38279, Note_on_c, 9, 46, 0
1, 38279, Note_on_c, 9, 70, 0
1, 38280, Note_on_c, 9, 69, 78
1, 38399, Note_on_c, 9, 69, 0
1, 38400, Note_on_c, 9, 42, 127
1, 38400, Note_on_c, 9, 35, 127
1, 38624, Note_on_c, 9, 42, 0
1, 38625, Note_on_c, 9, 38, 98
1, 38625, Note_on_c, 9, 45, 80
1, 38640, Note_on_c, 9, 70, 110
1, 38759, Note_on_c, 9, 38, 0
1, 38759, Note_on_c, 9, 45, 0
1, 38759, Note_on_c, 9, 70, 0
1, 38760, Note_on_c, 9, 69, 75
1, 38879, Note_on_c, 9, 35, 0
1, 38879, Note_on_c, 9, 69, 0
1, 38880, Note_on_c, 9, 38, 126
1, 38880, Note_on_c, 9, 45, 94
1, 38880, Note_on_c, 9, 44, 78
1, 39119, Note_on_c, 9, 38, 0
1, 39119, Note_on_c, 9, 45, 0
1, 39120, Note_on_c, 9, 38, 127
1, 39120, Note_on_c, 9, 45, 106
1, 39134, Note_on_c, 9, 38, 0
1, 39134, Note_on_c, 9, 45, 0
1, 39135, Note_on_c, 9, 70, 112
1, 39179, Note_on_c, 9, 70, 0
1, 39240, Note_on_c, 9, 69, 82
1, 39359, Note_on_c, 9, 44, 0
1, 39359, Note_on_c, 9, 69, 0
1, 39360, Note_on_c, 9, 38, 127
1, 39360, Note_on_c, 9, 45, 121
1, 39360, Note_on_c, 9, 44, 120
1, 39360, Note_on_c, 9, 35, 127
1, 39584, Note_on_c, 9, 38, 0
1, 39584, Note_on_c, 9, 45, 0
1, 39585, Note_on_c, 9, 70, 113
1, 39600, Note_on_c, 9, 75, 101
1, 39614, Note_on_c, 9, 70, 0
1, 39614, Note_on_c, 9, 75, 0
1, 39615, Note_on_c, 9, 38, 127
1, 39615, Note_on_c, 9, 45, 124
1, 39659, Note_on_c, 9, 38, 0
1, 39659, Note_on_c, 9, 45, 0
1, 39720, Note_on_c, 9, 69, 74
1, 39839, Note_on_c, 9, 44, 0
1, 39839, Note_on_c, 9, 35, 0
1, 39839, Note_on_c, 9, 69, 0
1, 39840, Note_on_c, 9, 38, 127
1, 39840, Note_on_c, 9, 44, 94
1, 39854, Note_on_c, 9, 38, 0
1, 39855, Note_on_c, 9, 45, 127
1, 40079, Note_on_c, 9, 45, 0
1, 40080, Note_on_c, 9, 38, 127
1, 40080, Note_on_c, 9, 45, 127
1, 40080, Note_on_c, 9, 70, 113
1, 40199, Note_on_c, 9, 38, 0
1, 40199, Note_on_c, 9, 45, 0
1, 40199, Note_on_c, 9, 70, 0
1, 40200, Note_on_c, 9, 69, 78
1, 40319, Note_on_c, 9, 44, 0
1, 40319, Note_on_c, 9, 69, 0
1, 40320, Note_on_c, 9, 57, 120
1, 40320, Note_on_c, 9, 35, 127
1, 40559, Note_on_c, 9, 57, 0
1, 40560, Note_on_c, 9, 70, 107
1, 40560, Note_on_c, 9, 42, 100
1, 40679, Note_on_c, 9, 70, 0
1, 40679, Note_on_c, 9, 42, 0
1, 40680, Note_on_c, 9, 69, 76
1, 40799, Note_on_c, 9, 35, 0
1, 40799, Note_on_c, 9, 69, 0
1, 40800, Note_on_c, 9, 38, 127
1, 40800, Note_on_c, 9, 42, 68
1, 41039, Note_on_c, 9, 38, 0
1, 41039, Note_on_c, 9, 42, 0
1, 41040, Note_on_c, 9, 70, 109
1, 41040, Note_on_c, 9, 42, 100
1, 41159, Note_on_c, 9, 70, 0
1, 41159, Note_on_c, 9, 42, 0
1, 41160, Note_on_c, 9, 69, 75
1, 41279, Note_on_c, 9, 69, 0
1, 41280, Note_on_c, 9, 42, 122
1, 41280, Note_on_c, 9, 35, 127
1, 41519, Note_on_c, 9, 42, 0
1, 41520, Note_on_c, 9, 75, 102
1, 41534, Note_on_c, 9, 75, 0
1, 41535, Note_on_c, 9, 70, 112
1, 41535, Note_on_c, 9, 42, 101
1, 41579, Note_on_c, 9, 70, 0
1, 41579, Note_on_c, 9, 42, 0
1, 41640, Note_on_c, 9, 69, 72
1, 41759, Note_on_c, 9, 35, 0
1, 41759, Note_on_c, 9, 69, 0
1, 41760, Note_on_c, 9, 38, 127
1, 41760, Note_on_c, 9, 42, 81
1, 41999, Note_on_c, 9, 38, 0
1, 41999, Note_on_c, 9, 42, 0
1, 42000, Note_on_c, 9, 70, 110
1, 42000, Note_on_c, 9, 42, 91
1, 42119, Note_on_c, 9, 70, 0
1, 42119, Note_on_c, 9, 42, 0
1, 42120, Note_on_c, 9, 69, 78
1, 42239, Note_on_c, 9, 69, 0
1, 42240, Note_on_c, 9, 42, 126
1, 42240, Note_on_c, 9, 35, 127
1, 42479, Note_on_c, 9, 42, 0
1, 42480, Note_on_c, 9, 70, 107
1, 42480, Note_on_c, 9, 42, 105
1, 42599, Note_on_c, 9, 70, 0
1, 42599, Note_on_c, 9, 42, 0
1, 42600, Note_on_c, 9, 69, 73
1, 42719, Note_on_c, 9, 35, 0
1, 42719, Note_on_c, 9, 69, 0
1, 42720, Note_on_c, 9, 38, 127
1, 42720, Note_on_c, 9, 42, 77
1, 42959, Note_on_c, 9, 38, 0
1, 42959, Note_on_c, 9, 42, 0
1, 42960, Note_on_c, 9, 70, 113
1, 42960, Note_on_c, 9, 42, 82
1, 43079, Note_on_c, 9, 70, 0
1, 43079, Note_on_c, 9, 42, 0
1, 43080, Note_on_c, 9, 69, 79
1, 43199, Note_on_c, 9, 69, 0
1, 43200, Note_on_c, 9, 42, 122
1, 43200, Note_on_c, 9, 35, 127
1, 43424, Note_on_c, 9, 42, 0
1, 43425, Note_on_c, 9, 70, 109
1, 43425, Note_on_c, 9, 42, 106
1, 43440, Note_on_c, 9, 75, 105
1, 43559, Note_on_c, 9, 70, 0
1, 43559, Note_on_c, 9, 42, 0
1, 43559, Note_on_c, 9, 75, 0
1, 43560, Note_on_c, 9, 69, 78
1, 43679, Note_on_c, 9, 35, 0
1, 43679, Note_on_c, 9, 69, 0
1, 43680, Note_on_c, 9, 38, 127
1, 43680, Note_on_c, 9, 42, 96
1, 43919, Note_on_c, 9, 38, 0
1, 43919, Note_on_c, 9, 42, 0
1, 43920, Note_on_c, 9, 70, 113
1, 43920, Note_on_c, 9, 42, 76
1, 44039, Note_on_c, 9, 70, 0
1, 44039, Note_on_c, 9, 42, 0
1, 44040, Note_on_c, 9, 69, 81
1, 44159, Note_on_c, 9, 69, 0
1, 44160, Note_on_c, 9, 42, 120
1, 44160, Note_on_c, 9, 35, 127
1, 44399, Note_on_c, 9, 42, 0
1, 44400, Note_on_c, 9, 70, 108
1, 44400, Note_on_c, 9, 42, 101
1, 44519, Note_on_c, 9, 70, 0
1, 44519, Note_on_c, 9, 42, 0
1, 44520, Note_on_c, 9, 69, 77
1, 44639, Note_on_c, 9, 35, 0
1, 44639, Note_on_c, 9, 69, 0
1, 44640, Note_on_c, 9, 38, 127
1, 44640, Note_on_c, 9, 42, 83
1, 44879, Note_on_c, 9, 38, 0
1, 44879, Note_on_c, 9, 42, 0
1, 44880, Note_on_c, 9, 70, 112
1, 44880, Note_on_c, 9, 42, 81
1, 44999, Note_on_c, 9, 70, 0
1, 44999, Note_on_c, 9, 42, 0
1, 45000, Note_on_c, 9, 69, 81
1, 45119, Note_on_c, 9, 69, 0
1, 45120, Note_on_c, 9, 42, 126
1, 45120, Note_on_c, 9, 35, 127
1, 45359, Note_on_c, 9, 42, 0
1, 45360, Note_on_c, 9, 75, 95
1, 45374, Note_on_c, 9, 75, 0
1, 45375, Note_on_c, 9, 70, 112
1, 45375, Note_on_c, 9, 42, 105
1, 45419, Note_on_c, 9, 70, 0
1, 45419, Note_on_c, 9, 42, 0
1, 45480, Note_on_c, 9, 69, 80
1, 45599, Note_on_c, 9, 35, 0
1, 45599, Note_on_c, 9, 69, 0
1, 45600, Note_on_c, 9, 38, 127
1, 45600, Note_on_c, 9, 42, 81
1, 45839, Note_on_c, 9, 38, 0
1, 45839, Note_on_c, 9, 42, 0
1, 45840, Note_on_c, 9, 70, 108
1, 45840, Note_on_c, 9, 42, 92
1, 45959, Note_on_c, 9, 70, 0
1, 45959, Note_on_c, 9, 42, 0
1, 45960, Note_on_c, 9, 69, 78
1, 46079, Note_on_c, 9, 69, 0
1, 46080, Note_on_c, 9, 42, 127
1, 46080, Note_on_c, 9, 35, 127
1, 46319, Note_on_c, 9, 42, 0
1, 46320, Note_on_c, 9, 70, 110
1, 46320, Note_on_c, 9, 42, 104
1, 46439, Note_on_c, 9, 70, 0
1, 46439, Note_on_c, 9, 42, 0
1, 46440, Note_on_c, 9, 69, 75
1, 46559, Note_on_c, 9, 35, 0
1, 46559, Note_on_c, 9, 69, 0
1, 46560, Note_on_c, 9, 38, 127
1, 46560, Note_on_c, 9, 42, 78
1, 46799, Note_on_c, 9, 38, 0
1, 46799, Note_on_c, 9, 42, 0
1, 46800, Note_on_c, 9, 70, 112
1, 46800, Note_on_c, 9, 42, 89
1, 46919, Note_on_c, 9, 70, 0
1, 46919, Note_on_c, 9, 42, 0
1, 46920, Note_on_c, 9, 69, 82
1, 47039, Note_on_c, 9, 69, 0
1, 47040, Note_on_c, 9, 42, 120
1, 47040, Note_on_c, 9, 35, 127
1, 47264, Note_on_c, 9, 42, 0
1, 47265, Note_on_c, 9, 70, 113
1, 47265, Note_on_c, 9, 42, 100
1, 47280, Note_on_c, 9, 75, 101
1, 47399, Note_on_c, 9, 70, 0
1, 47399, Note_on_c, 9, 42, 0
1, 47399, Note_on_c, 9, 75, 0
1, 47400, Note_on_c, 9, 69, 74
1, 47519, Note_on_c, 9, 35, 0
1, 47519, Note_on_c, 9, 69, 0
1, 47520, Note_on_c, 9, 38, 127
1, 47520, Note_on_c, 9, 42, 94
1, 47759, Note_on_c, 9, 38, 0
1, 47759, Note_on_c, 9, 42, 0
1, 47760, Note_on_c, 9, 38, 127
1, 47760, Note_on_c, 9, 70, 113
1, 47760, Note_on_c, 9, 42, 87
1, 47879, Note_on_c, 9, 38, 0
1, 47879, Note_on_c, 9, 70, 0
1, 47879, Note_on_c, 9, 42, 0
1, 47880, Note_on_c, 9, 69, 78
1, 47999, Note_on_c, 9, 69, 0
1, 48000, Note_on_c, 9, 49, 122
1, 48000, Note_on_c, 9, 35, 127
1, 48239, Note_on_c, 9, 49, 0
1, 48240, Note_on_c, 9, 70, 107
1, 48240, Note_on_c, 9, 42, 100
1, 48359, Note_on_c, 9, 70, 0
1, 48359, Note_on_c, 9, 42, 0
1, 48360, Note_on_c, 9, 69, 76
1, 48479, Note_on_c, 9, 35, 0
1, 48479, Note_on_c, 9, 69, 0
1, 48480, Note_on_c, 9, 38, 127
1, 48480, Note_on_c, 9, 42, 68
1, 48719, Note_on_c, 9, 38, 0
1, 48719, Note_on_c, 9, 42, 0
1, 48720, Note_on_c, 9, 70, 109
1, 48720, Note_on_c, 9, 42, 100
1, 48839, Note_on_c, 9, 70, 0
1, 48839, Note_on_c, 9, 42, 0
1, 48840, Note_on_c, 9, 69, 75
1, 48959, Note_on_c, 9, 69, 0
1, 48960, Note_on_c, 9, 42, 122
1, 48960, Note_on_c, 9, 35, 127
1, 49199, Note_on_c, 9, 42, 0
1, 49200, Note_on_c, 9, 75, 102
1, 49214, Note_on_c, 9, 75, 0
1, 49215, Note_on_c, 9, 70, 112
1, 49215, Note_on_c, 9, 42, 101
1, 49259, Note_on_c, 9, 70, 0
1, 49259, Note_on_c, 9, 42, 0
1, 49320, Note_on_c, 9, 69, 72
1, 49439, Note_on_c, 9, 35, 0
1, 49439, Note_on_c, 9, 69, 0
1, 49440, Note_on_c, 9, 38, 127
1, 49440, Note_on_c, 9, 42, 81
1, 49679, Note_on_c, 9, 38, 0
1, 49679, Note_on_c, 9, 42, 0
1, 49680, Note_on_c, 9, 70, 110
1, 49680, Note_on_c, 9, 42, 91
1, 49799, Note_on_c, 9, 70, 0
1, 49799, Note_on_c, 9, 42, 0
1, 49800, Note_on_c, 9, 69, 78
1, 49919, Note_on_c, 9, 69, 0
1, 49920, Note_on_c, 9, 42, 126
1, 49920, Note_on_c, 9, 35, 127
1, 50159, Note_on_c, 9, 42, 0
1, 50160, Note_on_c, 9, 70, 107
1, 50160, Note_on_c, 9, 42, 105
1, 50279, Note_on_c, 9, 70, 0
1, 50279, Note_on_c, 9, 42, 0
1, 50280, Note_on_c, 9, 69, 73
1, 50399, Note_on_c, 9, 35, 0
1, 50399, Note_on_c, 9, 69, 0
1, 50400, Note_on_c, 9, 38, 127
1, 50400, Note_on_c, 9, 42, 77
1, 50639, Note_on_c, 9, 38, 0
1, 50639, Note_on_c, 9, 42, 0
1, 50640, Note_on_c, 9, 70, 113
1, 50640, Note_on_c, 9, 42, 82
1, 50759, Note_on_c, 9, 70, 0
1, 50759, Note_on_c, 9, 42, 0
1, 50760, Note_on_c, 9, 69, 79
1, 50879, Note_on_c, 9, 69, 0
1, 50880, Note_on_c, 9, 42, 122
1, 50880, Note_on_c, 9, 35, 127
1, 51104, Note_on_c, 9, 42, 0
1, 51105, Note_on_c, 9, 70, 109
1, 51105, Note_on_c, 9, 42, 106
1, 51120, Note_on_c, 9, 75, 105
1, 51239, Note_on_c, 9, 70, 0
1, 51239, Note_on_c, 9, 42, 0
1, 51239, Note_on_c, 9, 75, 0
1, 51240, Note_on_c, 9, 69, 78
1, 51359, Note_on_c, 9, 35, 0
1, 51359, Note_on_c, 9, 69, 0
1, 51360, Note_on_c, 9, 38, 127
1, 51360, Note_on_c, 9, 42, 96
1, 51599, Note_on_c, 9, 38, 0
1, 51599, Note_on_c, 9, 42, 0
1, 51600, Note_on_c, 9, 70, 113
1, 51600, Note_on_c, 9, 42, 76
1, 51719, Note_on_c, 9, 70, 0
1, 51719, Note_on_c, 9, 42, 0
1, 51720, Note_on_c, 9, 69, 81
1, 51839, Note_on_c, 9, 69, 0
1, 51840, Note_on_c, 9, 42, 120
1, 51840, Note_on_c, 9, 35, 127
1, 52079, Note_on_c, 9, 42, 0
1, 52080, Note_on_c, 9, 70, 108
1, 52080, Note_on_c, 9, 42, 101
1, 52199, Note_on_c, 9, 70, 0
1, 52199, Note_on_c, 9, 42, 0
1, 52200, Note_on_c, 9, 69, 77
1, 52319, Note_on_c, 9, 35, 0
1, 52319, Note_on_c, 9, 69, 0
1, 52320, Note_on_c, 9, 38, 127
1, 52320, Note_on_c, 9, 42, 83
1, 52559, Note_on_c, 9, 38, 0
1, 52559, Note_on_c, 9, 42, 0
1, 52560, Note_on_c, 9, 70, 112
1, 52560, Note_on_c, 9, 42, 81
1, 52679, Note_on_c, 9, 70, 0
1, 52679, Note_on_c, 9, 42, 0
1, 52680, Note_on_c, 9, 69, 81
1, 52799, Note_on_c, 9, 69, 0
1, 52800, Note_on_c, 9, 42, 126
1, 52800, Note_on_c, 9, 35, 127
1, 53039, Note_on_c, 9, 42, 0
1, 53040, Note_on_c, 9, 75, 95
1, 53054, Note_on_c, 9, 75, 0
1, 53055, Note_on_c, 9, 70, 112
1, 53055, Note_on_c, 9, 42, 105
1, 53099, Note_on_c, 9, 70, 0
1, 53099, Note_on_c, 9, 42, 0
1, 53160, Note_on_c, 9, 69, 80
1, 53279, Note_on_c, 9, 35, 0
1, 53279, Note_on_c, 9, 69, 0
1, 53280, Note_on_c, 9, 38, 127
1, 53280, Note_on_c, 9, 42, 81
1, 53519, Note_on_c, 9, 38, 0
1, 53519, Note_on_c, 9, 42, 0
1, 53520, Note_on_c, 9, 70, 108
1, 53520, Note_on_c, 9, 42, 92
1, 53639, Note_on_c, 9, 70, 0
1, 53639, Note_on_c, 9, 42, 0
1, 53640, Note_on_c, 9, 69, 78
1, 53759, Note_on_c, 9, 69, 0
1, 53760, Note_on_c, 9, 42, 127
1, 53760, Note_on_c, 9, 35, 127
1, 53999, Note_on_c, 9, 42, 0
1, 54000, Note_on_c, 9, 70, 110
1, 54000, Note_on_c, 9, 42, 104
1, 54119, Note_on_c, 9, 70, 0
1, 54119, Note_on_c, 9, 42, 0
1, 54120, Note_on_c, 9, 69, 75
1, 54239, Note_on_c, 9, 35, 0
1, 54239, Note_on_c, 9, 69, 0
1, 54240, Note_on_c, 9, 38, 127
1, 54240, Note_on_c, 9, 42, 78
1, 54479, Note_on_c, 9, 38, 0
1, 54479, Note_on_c, 9, 42, 0
1, 54480, Note_on_c, 9, 70, 112
1, 54480, Note_on_c, 9, 42, 89
1, 54599, Note_on_c, 9, 70, 0
1, 54599, Note_on_c, 9, 42, 0
1, 54600, Note_on_c, 9, 69, 82
1, 54719, Note_on_c, 9, 69, 0
1, 54720, Note_on_c, 9, 42, 120
1, 54720, Note_on_c, 9, 35, 127
1, 54944, Note_on_c, 9, 42, 0
1, 54945, Note_on_c, 9, 70, 113
1, 54945, Note_on_c, 9, 42, 100
1, 54960, Note_on_c, 9, 75, 101
1, 55079, Note_on_c, 9, 70, 0
1, 55079, Note_on_c, 9, 42, 0
1, 55079, Note_on_c, 9, 75, 0
1, 55080, Note_on_c, 9, 69, 74
1, 55199, Note_on_c, 9, 35, 0
1, 55199, Note_on_c, 9, 69, 0
1, 55200, Note_on_c, 9, 38, 127
1, 55200, Note_on_c, 9, 42, 94
1, 55439, Note_on_c, 9, 38, 0
1, 55439, Note_on_c, 9, 42, 0
1, 55440, Note_on_c, 9, 46, 87
1, 55440, Note_on_c, 9, 70, 113
1, 55559, Note_on_c, 9, 46, 0
1, 55559, Note_on_c, 9, 70, 0
1, 55560, Note_on_c, 9, 69, 78
1, 55679, Note_on_c, 9, 69, 0
1, 55680, Note_on_c, 9, 42, 120
1, 55680, Note_on_c, 9, 35, 127
1, 55904, Note_on_c, 9, 42, 0
1, 55905, Note_on_c, 9, 38, 111
1, 55905, Note_on_c, 9, 45, 80
1, 55920, Note_on_c, 9, 70, 107
1, 56039, Note_on_c, 9, 38, 0
1, 56039, Note_on_c, 9, 45, 0
1, 56039, Note_on_c, 9, 70, 0
1, 56040, Note_on_c, 9, 69, 76
1, 56159, Note_on_c, 9, 35, 0
1, 56159, Note_on_c, 9, 69, 0
1, 56160, Note_on_c, 9, 38, 121
1, 56160, Note_on_c, 9, 45, 89
1, 56160, Note_on_c, 9, 44, 68
1, 56384, Note_on_c, 9, 38, 0
1, 56384, Note_on_c, 9, 45, 0
1, 56385, Note_on_c, 9, 38, 127
1, 56400, Note_on_c, 9, 45, 95
1, 56414, Note_on_c, 9, 38, 0
1, 56414, Note_on_c, 9, 45, 0
1, 56415, Note_on_c, 9, 70, 109
1, 56459, Note_on_c, 9, 70, 0
1, 56520, Note_on_c, 9, 69, 75
1, 56639, Note_on_c, 9, 44, 0
1, 56639, Note_on_c, 9, 69, 0
1, 56640, Note_on_c, 9, 38, 127
1, 56640, Note_on_c, 9, 44, 122
1, 56640, Note_on_c, 9, 35, 127
1, 56654, Note_on_c, 9, 38, 0
1, 56655, Note_on_c, 9, 45, 104
1, 56864, Note_on_c, 9, 45, 0
1, 56865, Note_on_c, 9, 75, 102
1, 56880, Note_on_c, 9, 38, 127
1, 56880, Note_on_c, 9, 45, 119
1, 56880, Note_on_c, 9, 70, 112
1, 56999, Note_on_c, 9, 75, 0
1, 56999, Note_on_c, 9, 38, 0
1, 56999, Note_on_c, 9, 45, 0
1, 56999, Note_on_c, 9, 70, 0
1, 57000, Note_on_c, 9, 69, 72
1, 57119, Note_on_c, 9, 44, 0
1, 57119, Note_on_c, 9, 35, 0
1, 57119, Note_on_c, 9, 69, 0
1, 57120, Note_on_c, 9, 38, 127
1, 57120, Note_on_c, 9, 45, 127
1, 57120, Note_on_c, 9, 44, 81
1, 57344, Note_on_c, 9, 38, 0
1, 57344, Note_on_c, 9, 45, 0
1, 57345, Note_on_c, 9, 38, 127
1, 57345, Note_on_c, 9, 45, 127
1, 57360, Note_on_c, 9, 70, 110
1, 57449, Note_on_c, 9, 38, 0
1, 57449, Note_on_c, 9, 45, 0
1, 57449, Note_on_c, 9, 70, 0
1, 57465, Note_on_c, 9, 69, 78
1, 57480, Note_on_c, 9, 46, 87
1, 57599, Note_on_c, 9, 44, 0
1, 57599, Note_on_c, 9, 69, 0
1, 57599, Note_on_c, 9, 46, 0
1, 57600, Note_on_c, 9, 38, 127
1, 57600, Note_on_c, 9, 45, 127
1, 57600, Note_on_c, 9, 35, 127
1, 57614, Note_on_c, 9, 38, 0
1, 57614, Note_on_c, 9, 45, 0
1, 57615, Note_on_c, 9, 42, 70
1, 57839, Note_on_c, 9, 42, 0
1, 58079, Note_on_c, 9, 35, 0
1, 59520, Note_on_c, 9, 57, 124
1, 59520, Note_on_c, 9, 35, 127
1, 59759, Note_on_c, 9, 57, 0
1, 59760, Note_on_c, 9, 70, 108
1, 59760, Note_on_c, 9, 42, 101
1, 59879, Note_on_c, 9, 70, 0
1, 59879, Note_on_c, 9, 42, 0
1, 59880, Note_on_c, 9, 69, 77
1, 59999, Note_on_c, 9, 35, 0
1, 59999, Note_on_c, 9, 69, 0
1, 60000, Note_on_c, 9, 38, 127
1, 60000, Note_on_c, 9, 42, 83
1, 60239, Note_on_c, 9, 38, 0
1, 60239, Note_on_c, 9, 42, 0
1, 60240, Note_on_c, 9, 70, 112
1, 60240, Note_on_c, 9, 42, 81
1, 60359, Note_on_c, 9, 70, 0
1, 60359, Note_on_c, 9, 42, 0
1, 60360, Note_on_c, 9, 69, 81
1, 60479, Note_on_c, 9, 69, 0
1, 60480, Note_on_c, 9, 42, 126
1, 60480, Note_on_c, 9, 35, 127
1, 60719, Note_on_c, 9, 42, 0
1, 60720, Note_on_c, 9, 75, 95
1, 60734, Note_on_c, 9, 75, 0
1, 60735, Note_on_c, 9, 70, 112
1, 60735, Note_on_c, 9, 42, 105
1, 60779, Note_on_c, 9, 70, 0
1, 60779, Note_on_c, 9, 42, 0
1, 60840, Note_on_c, 9, 69, 80
1, 60959, Note_on_c, 9, 35, 0
1, 60959, Note_on_c, 9, 69, 0
1, 60960, Note_on_c, 9, 38, 127
1, 60960, Note_on_c, 9, 42, 81
1, 61199, Note_on_c, 9, 38, 0
1, 61199, Note_on_c, 9, 42, 0
1, 61200, Note_on_c, 9, 70, 108
1, 61200, Note_on_c, 9, 42, 92
1, 61319, Note_on_c, 9, 70, 0
1, 61319, Note_on_c, 9, 42, 0
1, 61320, Note_on_c, 9, 69, 78
1, 61439, Note_on_c, 9, 69, 0
1, 61440, Note_on_c, 9, 42, 127
1, 61440, Note_on_c, 9, 35, 127
1, 61679, Note_on_c, 9, 42, 0
1, 61680, Note_on_c, 9, 70, 110
1, 61680, Note_on_c, 9, 42, 104
1, 61799, Note_on_c, 9, 70, 0
1, 61799, Note_on_c, 9, 42, 0
1, 61800, Note_on_c, 9, 69, 75
1, 61919, Note_on_c, 9, 35, 0
1, 61919, Note_on_c, 9, 69, 0
1, 61920, Note_on_c, 9, 38, 127
1, 61920, Note_on_c, 9, 42, 78
1, 62159, Note_on_c, 9, 38, 0
1, 62159, Note_on_c, 9, 42, 0
1, 62160, Note_on_c, 9, 70, 112
1, 62160, Note_on_c, 9, 42, 89
1, 62279, Note_on_c, 9, 70, 0
1, 62279, Note_on_c, 9, 42, 0
1, 62280, Note_on_c, 9, 69, 82
1, 62399, Note_on_c, 9, 69, 0
1, 62400, Note_on_c, 9, 42, 120
1, 62400, Note_on_c, 9, 35, 127
1, 62624, Note_on_c, 9, 42, 0
1, 62625, Note_on_c, 9, 70, 113
1, 62625, Note_on_c, 9, 42, 100
1, 62640, Note_on_c, 9, 75, 101
1, 62759, Note_on_c, 9, 70, 0
1, 62759, Note_on_c, 9, 42, 0
1, 62759, Note_on_c, 9, 75, 0
1, 62760, Note_on_c, 9, 69, 74
1, 62879, Note_on_c, 9, 35, 0
1, 62879, Note_on_c, 9, 69, 0
1, 62880, Note_on_c, 9, 38, 127
1, 62880, Note_on_c, 9, 42, 94
1, 63119, Note_on_c, 9, 38, 0
1, 63119, Note_on_c, 9, 42, 0
1, 63120, Note_on_c, 9, 70, 113
1, 63120, Note_on_c, 9, 42, 87
1, 63239, Note_on_c, 9, 70, 0
1, 63239, Note_on_c, 9, 42, 0
1, 63240, Note_on_c, 9, 69, 78
1, 63359, Note_on_c, 9, 69, 0
1, 63360, Note_on_c, 9, 42, 120
1, 63360, Note_on_c, 9, 35, 127
1, 63599, Note_on_c, 9, 42, 0
1, 63600, Note_on_c, 9, 70, 107
1, 63600, Note_on_c, 9, 42, 100
1, 63719, Note_on_c, 9, 70, 0
1, 63719, Note_on_c, 9, 42, 0
1, 63720, Note_on_c, 9, 69, 76
1, 63839, Note_on_c, 9, 35, 0
1, 63839, Note_on_c, 9, 69, 0
1, 63840, Note_on_c, 9, 38, 127
1, 63840, Note_on_c, 9, 42, 68
1, 64079, Note_on_c, 9, 38, 0
1, 64079, Note_on_c, 9, 42, 0
1, 64080, Note_on_c, 9, 70, 109
1, 64080, Note_on_c, 9, 42, 100
1, 64199, Note_on_c, 9, 70, 0
1, 64199, Note_on_c, 9, 42, 0
1, 64200, Note_on_c, 9, 69, 75
1, 64319, Note_on_c, 9, 69, 0
1, 64320, Note_on_c, 9, 42, 122
1, 64320, Note_on_c, 9, 35, 127
1, 64559, Note_on_c, 9, 42, 0
1, 64560, Note_on_c, 9, 75, 102
1, 64574, Note_on_c, 9, 75, 0
1, 64575, Note_on_c, 9, 70, 112
1, 64575, Note_on_c, 9, 42, 101
1, 64619, Note_on_c, 9, 70, 0
1, 64619, Note_on_c, 9, 42, 0
1, 64680, Note_on_c, 9, 69, 72
1, 64799, Note_on_c, 9, 35, 0
1, 64799, Note_on_c, 9, 69, 0
1, 64800, Note_on_c, 9, 38, 127
1, 64800, Note_on_c, 9, 42, 81
1, 65039, Note_on_c, 9, 38, 0
1, 65039, Note_on_c, 9, 42, 0
1, 65040, Note_on_c, 9, 70, 110
1, 65040, Note_on_c, 9, 42, 91
1, 65159, Note_on_c, 9, 70, 0
1, 65159, Note_on_c, 9, 42, 0
1, 65160, Note_on_c, 9, 69, 78
1, 65279, Note_on_c, 9, 69, 0
1, 65280, Note_on_c, 9, 42, 126
1, 65280, Note_on_c, 9, 35, 127
1, 65519, Note_on_c, 9, 42, 0
1, 65520, Note_on_c, 9, 70, 107
1, 65520, Note_on_c, 9, 42, 105
1, 65639, Note_on_c, 9, 70, 0
1, 65639, Note_on_c, 9, 42, 0
1, 65640, Note_on_c, 9, 69, 73
1, 65759, Note_on_c, 9, 35, 0
1, 65759, Note_on_c, 9, 69, 0
1, 65760, Note_on_c, 9, 38, 127
1, 65760, Note_on_c, 9, 42, 77
1, 65999, Note_on_c, 9, 38, 0
1, 65999, Note_on_c, 9, 42, 0
1, 66000, Note_on_c, 9, 70, 113
1, 66000, Note_on_c, 9, 42, 82
1, 66119, Note_on_c, 9, 70, 0
1, 66119, Note_on_c, 9, 42, 0
1, 66120, Note_on_c, 9, 69, 79
1, 66239, Note_on_c, 9, 69, 0
1, 66240, Note_on_c, 9, 42, 122
1, 66240, Note_on_c, 9, 35, 127
1, 66464, Note_on_c, 9, 42, 0
1, 66465, Note_on_c, 9, 70, 109
1, 66465, Note_on_c, 9, 42, 106
1, 66480, Note_on_c, 9, 75, 105
1, 66599, Note_on_c, 9, 70, 0
1, 66599, Note_on_c, 9, 42, 0
1, 66599, Note_on_c, 9, 75, 0
1, 66600, Note_on_c, 9, 69, 78
1, 66719, Note_on_c, 9, 35, 0
1, 66719, Note_on_c, 9, 69, 0
1, 66720, Note_on_c, 9, 38, 127
1, 66720, Note_on_c, 9, 42, 96
1, 66959, Note_on_c, 9, 38, 0
1, 66959, Note_on_c, 9, 42, 0
1, 66960, Note_on_c, 9, 70, 113
1, 66960, Note_on_c, 9, 42, 76
1, 67079, Note_on_c, 9, 70, 0
1, 67079, Note_on_c, 9, 42, 0
1, 67080, Note_on_c, 9, 69, 81
1, 67199, Note_on_c, 9, 69, 0
1, 67200, Note_on_c, 9, 42, 120
1, 67200, Note_on_c, 9, 35, 127
1, 67439, Note_on_c, 9, 42, 0
1, 67440, Note_on_c, 9, 70, 108
1, 67440, Note_on_c, 9, 42, 101
1, 67559, Note_on_c, 9, 70, 0
1, 67559, Note_on_c, 9, 42, 0
1, 67560, Note_on_c, 9, 69, 77
1, 67679, Note_on_c, 9, 35, 0
1, 67679, Note_on_c, 9, 69, 0
1, 67680, Note_on_c, 9, 38, 127
1, 67680, Note_on_c, 9, 42, 83
1, 67919, Note_on_c, 9, 38, 0
1, 67919, Note_on_c, 9, 42, 0
1, 67920, Note_on_c, 9, 70, 112
1, 67920, Note_on_c, 9, 42, 81
1, 68039, Note_on_c, 9, 70, 0
1, 68039, Note_on_c, 9, 42, 0
1, 68040, Note_on_c, 9, 69, 81
1, 68159, Note_on_c, 9, 69, 0
1, 68160, Note_on_c, 9, 42, 126
1, 68160, Note_on_c, 9, 35, 127
1, 68399, Note_on_c, 9, 42, 0
1, 68400, Note_on_c, 9, 75, 95
1, 68414, Note_on_c, 9, 75, 0
1, 68415, Note_on_c, 9, 70, 112
1, 68415, Note_on_c, 9, 42, 105
1, 68459, Note_on_c, 9, 70, 0
1, 68459, Note_on_c, 9, 42, 0
1, 68520, Note_on_c, 9, 69, 80
1, 68639, Note_on_c, 9, 35, 0
1, 68639, Note_on_c, 9, 69, 0
1, 68640, Note_on_c, 9, 38, 127
1, 68640, Note_on_c, 9, 42, 81
1, 68879, Note_on_c, 9, 38, 0
1, 68879, Note_on_c, 9, 42, 0
1, 68880, Note_on_c, 9, 70, 108
1, 68880, Note_on_c, 9, 42, 92
1, 68999, Note_on_c, 9, 70, 0
1, 68999, Note_on_c, 9, 42, 0
1, 69000, Note_on_c, 9, 69, 78
1, 69119, Note_on_c, 9, 69, 0
1, 69120, Note_on_c, 9, 42, 127
1, 69120, Note_on_c, 9, 35, 127
1, 69359, Note_on_c, 9, 42, 0
1, 69360, Note_on_c, 9, 70, 110
1, 69360, Note_on_c, 9, 42, 104
1, 69479, Note_on_c, 9, 70, 0
1, 69479, Note_on_c, 9, 42, 0
1, 69480, Note_on_c, 9, 69, 75
1, 69599, Note_on_c, 9, 35, 0
1, 69599, Note_on_c, 9, 69, 0
1, 69600, Note_on_c, 9, 38, 127
1, 69600, Note_on_c, 9, 42, 78
1, 69839, Note_on_c, 9, 38, 0
1, 69839, Note_on_c, 9, 42, 0
1, 69840, Note_on_c, 9, 70, 112
1, 69840, Note_on_c, 9, 42, 89
1, 69959, Note_on_c, 9, 70, 0
1, 69959, Note_on_c, 9, 42, 0
1, 69960, Note_on_c, 9, 69, 82
1, 70079, Note_on_c, 9, 69, 0
1, 70080, Note_on_c, 9, 42, 120
1, 70080, Note_on_c, 9, 35, 127
1, 70304, Note_on_c, 9, 42, 0
1, 70305, Note_on_c, 9, 70, 113
1, 70305, Note_on_c, 9, 42, 100
1, 70320, Note_on_c, 9, 75, 101
1, 70439, Note_on_c, 9, 70, 0
1, 70439, Note_on_c, 9, 42, 0
1, 70439, Note_on_c, 9, 75, 0
1, 70440, Note_on_c, 9, 69, 74
1, 70559, Note_on_c, 9, 35, 0
1, 70559, Note_on_c, 9, 69, 0
1, 70560, Note_on_c, 9, 38, 127
1, 70560, Note_on_c, 9, 42, 94
1, 70799, Note_on_c, 9, 38, 0
1, 70799, Note_on_c, 9, 42, 0
1, 70800, Note_on_c, 9, 70, 113
1, 70800, Note_on_c, 9, 42, 87
1, 70919, Note_on_c, 9, 70, 0
1, 70919, Note_on_c, 9, 42, 0
1, 70920, Note_on_c, 9, 69, 78
1, 71039, Note_on_c, 9, 69, 0
1, 71040, Note_on_c, 9, 42, 120
1, 71040, Note_on_c, 9, 35, 127
1, 71279, Note_on_c, 9, 42, 0
1, 71280, Note_on_c, 9, 70, 107
1, 71280, Note_on_c, 9, 42, 100
1, 71399, Note_on_c, 9, 70, 0
1, 71399, Note_on_c, 9, 42, 0
1, 71400, Note_on_c, 9, 69, 76
1, 71519, Note_on_c, 9, 35, 0
1, 71519, Note_on_c, 9, 69, 0
1, 71520, Note_on_c, 9, 38, 127
1, 71520, Note_on_c, 9, 42, 68
1, 71759, Note_on_c, 9, 38, 0
1, 71759, Note_on_c, 9, 42, 0
1, 71760, Note_on_c, 9, 70, 109
1, 71760, Note_on_c, 9, 42, 100
1, 71879, Note_on_c, 9, 70, 0
1, 71879, Note_on_c, 9, 42, 0
1, 71880, Note_on_c, 9, 69, 75
1, 71999, Note_on_c, 9, 69, 0
1, 72000, Note_on_c, 9, 42, 122
1, 72000, Note_on_c, 9, 35, 127
1, 72239, Note_on_c, 9, 42, 0
1, 72240, Note_on_c, 9, 75, 102
1, 72254, Note_on_c, 9, 75, 0
1, 72255, Note_on_c, 9, 70, 112
1, 72255, Note_on_c, 9, 42, 101
1, 72299, Note_on_c, 9, 70, 0
1, 72299, Note_on_c, 9, 42, 0
1, 72360, Note_on_c, 9, 69, 72
1, 72479, Note_on_c, 9, 35, 0
1, 72479, Note_on_c, 9, 69, 0
1, 72480, Note_on_c, 9, 38, 127
1, 72480, Note_on_c, 9, 42, 81
1, 72719, Note_on_c, 9, 38, 0
1, 72719, Note_on_c, 9, 42, 0
1, 72720, Note_on_c, 9, 70, 110
1, 72720, Note_on_c, 9, 42, 91
1, 72839, Note_on_c, 9, 70, 0
1, 72839, Note_on_c, 9, 42, 0
1, 72840, Note_on_c, 9, 69, 78
1, 72959, Note_on_c, 9, 69, 0
1, 72960, Note_on_c, 9, 42, 126
1, 72960, Note_on_c, 9, 35, 127
1, 73199, Note_on_c, 9, 42, 0
1, 73200, Note_on_c, 9, 70, 107
1, 73200, Note_on_c, 9, 42, 105
1, 73319, Note_on_c, 9, 70, 0
1, 73319, Note_on_c, 9, 42, 0
1, 73320, Note_on_c, 9, 69, 73
1, 73439, Note_on_c, 9, 35, 0
1, 73439, Note_on_c, 9, 69, 0
1, 73440, Note_on_c, 9, 38, 127
1, 73440, Note_on_c, 9, 42, 77
1, 73679, Note_on_c, 9, 38, 0
1, 73679, Note_on_c, 9, 42, 0
1, 73680, Note_on_c, 9, 70, 113
1, 73680, Note_on_c, 9, 42, 82
1, 73799, Note_on_c, 9, 70, 0
1, 73799, Note_on_c, 9, 42, 0
1, 73800, Note_on_c, 9, 69, 79
1, 73919, Note_on_c, 9, 69, 0
1, 73920, Note_on_c, 9, 42, 122
1, 73920, Note_on_c, 9, 35, 127
1, 74144, Note_on_c, 9, 42, 0
1, 74145, Note_on_c, 9, 70, 109
1, 74145, Note_on_c, 9, 42, 106
1, 74160, Note_on_c, 9, 75, 105
1, 74279, Note_on_c, 9, 70, 0
1, 74279, Note_on_c, 9, 42, 0
1, 74279, Note_on_c, 9, 75, 0
1, 74280, Note_on_c, 9, 69, 78
1, 74399, Note_on_c, 9, 35, 0
1, 74399, Note_on_c, 9, 69, 0
1, 74400, Note_on_c, 9, 38, 127
1, 74400, Note_on_c, 9, 42, 96
1, 74639, Note_on_c, 9, 38, 0
1, 74639, Note_on_c, 9, 42, 0
1, 74640, Note_on_c, 9, 46, 98
1, 74640, Note_on_c, 9, 70, 113
1, 74759, Note_on_c, 9, 46, 0
1, 74759, Note_on_c, 9, 70, 0
1, 74760, Note_on_c, 9, 69, 81
1, 74879, Note_on_c, 9, 69, 0
1, 74880, Note_on_c, 9, 42, 120
1, 74880, Note_on_c, 9, 35, 127
1, 75119, Note_on_c, 9, 42, 0
1, 75120, Note_on_c, 9, 70, 108
1, 75120, Note_on_c, 9, 42, 101
1, 75239, Note_on_c, 9, 70, 0
1, 75239, Note_on_c, 9, 42, 0
1, 75240, Note_on_c, 9, 69, 77
1, 75359, Note_on_c, 9, 35, 0
1, 75359, Note_on_c, 9, 69, 0
1, 75360, Note_on_c, 9, 38, 127
1, 75360, Note_on_c, 9, 42, 83
1, 75599, Note_on_c, 9, 38, 0
1, 75599, Note_on_c, 9, 42, 0
1, 75600, Note_on_c, 9, 70, 112
1, 75600, Note_on_c, 9, 42, 81
1, 75719, Note_on_c, 9, 70, 0
1, 75719, Note_on_c, 9, 42, 0
1, 75720, Note_on_c, 9, 69, 81
1, 75839, Note_on_c, 9, 69, 0
1, 75840, Note_on_c, 9, 42, 126
1, 75840, Note_on_c, 9, 35, 127
1, 76079, Note_on_c, 9, 42, 0
1, 76080, Note_on_c, 9, 75, 95
1, 76094, Note_on_c, 9, 75, 0
1, 76095, Note_on_c, 9, 70, 112
1, 76095, Note_on_c, 9, 42, 105
1, 76139, Note_on_c, 9, 70, 0
1, 76139, Note_on_c, 9, 42, 0
1, 76200, Note_on_c, 9, 69, 80
1, 76319, Note_on_c, 9, 35, 0
1, 76319, Note_on_c, 9, 69, 0
1, 76320, Note_on_c, 9, 38, 127
1, 76320, Note_on_c, 9, 42, 81
1, 76559, Note_on_c, 9, 38, 0
1, 76559, Note_on_c, 9, 42, 0
1, 76560, Note_on_c, 9, 70, 108
1, 76560, Note_on_c, 9, 42, 92
1, 76679, Note_on_c, 9, 70, 0
1, 76679, Note_on_c, 9, 42, 0
1, 76680, Note_on_c, 9, 69, 78
1, 76799, Note_on_c, 9, 69, 0
1, 76800, Note_on_c, 9, 42, 127
1, 76800, Note_on_c, 9, 35, 127
1, 77039, Note_on_c, 9, 42, 0
1, 77040, Note_on_c, 9, 70, 110
1, 77040, Note_on_c, 9, 42, 104
1, 77159, Note_on_c, 9, 70, 0
1, 77159, Note_on_c, 9, 42, 0
1, 77160, Note_on_c, 9, 69, 75
1, 77279, Note_on_c, 9, 35, 0
1, 77279, Note_on_c, 9, 69, 0
1, 77280, Note_on_c, 9, 38, 127
1, 77280, Note_on_c, 9, 42, 78
1, 77519, Note_on_c, 9, 38, 0
1, 77519, Note_on_c, 9, 42, 0
1, 77520, Note_on_c, 9, 70, 112
1, 77520, Note_on_c, 9, 42, 89
1, 77639, Note_on_c, 9, 70, 0
1, 77639, Note_on_c, 9, 42, 0
1, 77640, Note_on_c, 9, 69, 82
1, 77759, Note_on_c, 9, 69, 0
1, 77760, Note_on_c, 9, 42, 120
1, 77760, Note_on_c, 9, 35, 127
1, 77984, Note_on_c, 9, 42, 0
1, 77985, Note_on_c, 9, 70, 113
1, 77985, Note_on_c, 9, 42, 100
1, 78000, Note_on_c, 9, 75, 101
1, 78119, Note_on_c, 9, 70, 0
1, 78119, Note_on_c, 9, 42, 0
1, 78119, Note_on_c, 9, 75, 0
1, 78120, Note_on_c, 9, 69, 74
1, 78239, Note_on_c, 9, 35, 0
1, 78239, Note_on_c, 9, 69, 0
1, 78240, Note_on_c, 9, 38, 127
1, 78240, Note_on_c, 9, 42, 94
1, 78479, Note_on_c, 9, 38, 0
1, 78479, Note_on_c, 9, 42, 0
1, 78480, Note_on_c, 9, 70, 113
1, 78480, Note_on_c, 9, 42, 87
1, 78599, Note_on_c, 9, 70, 0
1, 78599, Note_on_c, 9, 42, 0
1, 78600, Note_on_c, 9, 69, 78
1, 78719, Note_on_c, 9, 69, 0
1, 78720, Note_on_c, 9, 42, 120
1, 78720, Note_on_c, 9, 35, 127
1, 78959, Note_on_c, 9, 42, 0
1, 78960, Note_on_c, 9, 70, 107
1, 78960, Note_on_c, 9, 42, 100
1, 79079, Note_on_c, 9, 70, 0
1, 79079, Note_on_c, 9, 42, 0
1, 79080, Note_on_c, 9, 69, 76
1, 79199, Note_on_c, 9, 35, 0
1, 79199, Note_on_c, 9, 69, 0
1, 79200, Note_on_c, 9, 38, 127
1, 79200, Note_on_c, 9, 42, 68
1, 79439, Note_on_c, 9, 38, 0
1, 79439, Note_on_c, 9, 42, 0
1, 79440, Note_on_c, 9, 70, 109
1, 79440, Note_on_c, 9, 42, 100
1, 79559, Note_on_c, 9, 70, 0
1, 79559, Note_on_c, 9, 42, 0
1, 79560, Note_on_c, 9, 69, 75
1, 79679, Note_on_c, 9, 69, 0
1, 79680, Note_on_c, 9, 42, 122
1, 79680, Note_on_c, 9, 35, 127
1, 79919, Note_on_c, 9, 42, 0
1, 79920, Note_on_c, 9, 75, 102
1, 79934, Note_on_c, 9, 75, 0
1, 79935, Note_on_c, 9, 70, 112
1, 79935, Note_on_c, 9, 42, 101
1, 79979, Note_on_c, 9, 70, 0
1, 79979, Note_on_c, 9, 42, 0
1, 80040, Note_on_c, 9, 69, 72
1, 80159, Note_on_c, 9, 35, 0
1, 80159, Note_on_c, 9, 69, 0
1, 80160, Note_on_c, 9, 38, 127
1, 80160, Note_on_c, 9, 42, 81
1, 80399, Note_on_c, 9, 38, 0
1, 80399, Note_on_c, 9, 42, 0
1, 80400, Note_on_c, 9, 70, 110
1, 80400, Note_on_c, 9, 42, 91
1, 80519, Note_on_c, 9, 70, 0
1, 80519, Note_on_c, 9, 42, 0
1, 80520, Note_on_c, 9, 69, 78
1, 80639, Note_on_c, 9, 69, 0
1, 80640, Note_on_c, 9, 42, 127
1, 80640, Note_on_c, 9, 35, 127
1, 80879, Note_on_c, 9, 42, 0
1, 80880, Note_on_c, 9, 70, 107
1, 80880, Note_on_c, 9, 42, 105
1, 80999, Note_on_c, 9, 70, 0
1, 80999, Note_on_c, 9, 42, 0
1, 81000, Note_on_c, 9, 69, 73
1, 81119, Note_on_c, 9, 35, 0
1, 81119, Note_on_c, 9, 69, 0
1, 81120, Note_on_c, 9, 38, 127
1, 81120, Note_on_c, 9, 42, 77
1, 81359, Note_on_c, 9, 38, 0
1, 81359, Note_on_c, 9, 42, 0
1, 81360, Note_on_c, 9, 70, 113
1, 81360, Note_on_c, 9, 42, 82
1, 81479, Note_on_c, 9, 70, 0
1, 81479, Note_on_c, 9, 42, 0
1, 81480, Note_on_c, 9, 69, 79
1, 81599, Note_on_c, 9, 69, 0
1, 81600, Note_on_c, 9, 42, 122
1, 81600, Note_on_c, 9, 35, 127
1, 81824, Note_on_c, 9, 42, 0
1, 81825, Note_on_c, 9, 38, 127
1, 81825, Note_on_c, 9, 70, 109
1, 81825, Note_on_c, 9, 42, 106
1, 81840, Note_on_c, 9, 75, 105
1, 81959, Note_on_c, 9, 38, 0
1, 81959, Note_on_c, 9, 70, 0
1, 81959, Note_on_c, 9, 42, 0
1, 81959, Note_on_c, 9, 75, 0
1, 81960, Note_on_c, 9, 69, 78
1, 82049, Note_on_c, 9, 69, 0
1, 82065, Note_on_c, 9, 38, 127
1, 82079, Note_on_c, 9, 35, 0
1, 82080, Note_on_c, 9, 42, 96
1, 82304, Note_on_c, 9, 38, 0
1, 82304, Note_on_c, 9, 42, 0
1, 82305, Note_on_c, 9, 38, 127
1, 82320, Note_on_c, 9, 70, 113
1, 82320, Note_on_c, 9, 42, 76
1, 82439, Note_on_c, 9, 38, 0
1, 82439, Note_on_c, 9, 70, 0
1, 82439, Note_on_c, 9, 42, 0
1, 82440, Note_on_c, 9, 69, 81
1, 82559, Note_on_c, 9, 69, 0
1, 82560, Note_on_c, 9, 49, 119
1, 82560, Note_on_c, 9, 35, 127
1, 82799, Note_on_c, 9, 49, 0
1, 82800, Note_on_c, 9, 70, 108
1, 82800, Note_on_c, 9, 42, 101
1, 82919, Note_on_c, 9, 70, 0
1, 82919, Note_on_c, 9, 42, 0
1, 82920, Note_on_c, 9, 69, 77
1, 83039, Note_on_c, 9, 35, 0
1, 83039, Note_on_c, 9, 69, 0
1, 83040, Note_on_c, 9, 38, 127
1, 83040, Note_on_c, 9, 42, 83
1, 83279, Note_on_c, 9, 38, 0
1, 83279, Note_on_c, 9, 42, 0
1, 83280, Note_on_c, 9, 70, 112
1, 83280, Note_on_c, 9, 42, 81
1, 83399, Note_on_c, 9, 70, 0
1, 83399, Note_on_c, 9, 42, 0
1, 83400, Note_on_c, 9, 69, 81
1, 83519, Note_on_c, 9, 69, 0
1, 83520, Note_on_c, 9, 42, 126
1, 83520, Note_on_c, 9, 35, 127
1, 83759, Note_on_c, 9, 42, 0
1, 83760, Note_on_c, 9, 75, 95
1, 83774, Note_on_c, 9, 75, 0
1, 83775, Note_on_c, 9, 70, 112
1, 83775, Note_on_c, 9, 42, 105
1, 83819, Note_on_c, 9, 70, 0
1, 83819, Note_on_c, 9, 42, 0
1, 83880, Note_on_c, 9, 69, 80
1, 83999, Note_on_c, 9, 35, 0
1, 83999, Note_on_c, 9, 69, 0
1, 84000, Note_on_c, 9, 38, 127
1, 84000, Note_on_c, 9, 42, 81
1, 84239, Note_on_c, 9, 38, 0
1, 84239, Note_on_c, 9, 42, 0
1, 84240, Note_on_c, 9, 70, 108
1, 84240, Note_on_c, 9, 42, 92
1, 84359, Note_on_c, 9, 70, 0
1, 84359, Note_on_c, 9, 42, 0
1, 84360, Note_on_c, 9, 69, 78
1, 84479, Note_on_c, 9, 69, 0
1, 84480, Note_on_c, 9, 42, 127
1, 84480, Note_on_c, 9, 35, 127
1, 84719, Note_on_c, 9, 42, 0
1, 84720, Note_on_c, 9, 70, 110
1, 84720, Note_on_c, 9, 42, 104
1, 84839, Note_on_c, 9, 70, 0
1, 84839, Note_on_c, 9, 42, 0
1, 84840, Note_on_c, 9, 69, 75
1, 84959, Note_on_c, 9, 35, 0
1, 84959, Note_on_c, 9, 69, 0
1, 84960, Note_on_c, 9, 38, 127
1, 84960, Note_on_c, 9, 42, 78
1, 85199, Note_on_c, 9, 38, 0
1, 85199, Note_on_c, 9, 42, 0
1, 85200, Note_on_c, 9, 70, 112
1, 85200, Note_on_c, 9, 42, 89
1, 85319, Note_on_c, 9, 70, 0
1, 85319, Note_on_c, 9, 42, 0
1, 85320, Note_on_c, 9, 69, 82
1, 85439, Note_on_c, 9, 69, 0
1, 85440, Note_on_c, 9, 42, 120
1, 85440, Note_on_c, 9, 35, 127
1, 85664, Note_on_c, 9, 42, 0
1, 85665, Note_on_c, 9, 70, 113
1, 85665, Note_on_c, 9, 42, 100
1, 85680, Note_on_c, 9, 75, 101
1, 85799, Note_on_c, 9, 70, 0
1, 85799, Note_on_c, 9, 42, 0
1, 85799, Note_on_c, 9, 75, 0
1, 85800, Note_on_c, 9, 69, 74
1, 85919, Note_on_c, 9, 35, 0
1, 85919, Note_on_c, 9, 69, 0
1, 85920, Note_on_c, 9, 38, 127
1, 85920, Note_on_c, 9, 42, 94
1, 86159, Note_on_c, 9, 38, 0
1, 86159, Note_on_c, 9, 42, 0
1, 86160, Note_on_c, 9, 70, 113
1, 86160, Note_on_c, 9, 42, 87
1, 86279, Note_on_c, 9, 70, 0
1, 86279, Note_on_c, 9, 42, 0
1, 86280, Note_on_c, 9, 69, 78
1, 86399, Note_on_c, 9, 69, 0
1, 86400, Note_on_c, 9, 42, 120
1, 86400, Note_on_c, 9, 35, 127
1, 86639, Note_on_c, 9, 42, 0
1, 86640, Note_on_c, 9, 70, 107
1, 86640, Note_on_c, 9, 42, 100
1, 86759, Note_on_c, 9, 70, 0
1, 86759, Note_on_c, 9, 42, 0
1, 86760, Note_on_c, 9, 69, 76
1, 86879, Note_on_c, 9, 35, 0
1, 86879, Note_on_c, 9, 69, 0
1, 86880, Note_on_c, 9, 38, 127
1, 86880, Note_on_c, 9, 42, 68
1, 87119, Note_on_c, 9, 38, 0
1, 87119, Note_on_c, 9, 42, 0
1, 87120, Note_on_c, 9, 70, 109
1, 87120, Note_on_c, 9, 42, 100
1, 87239, Note_on_c, 9, 70, 0
1, 87239, Note_on_c, 9, 42, 0
1, 87240, Note_on_c, 9, 69, 75
1, 87359, Note_on_c, 9, 69, 0
1, 87360, Note_on_c, 9, 42, 122
1, 87360, Note_on_c, 9, 35, 127
1, 87599, Note_on_c, 9, 42, 0
1, 87600, Note_on_c, 9, 75, 102
1, 87614, Note_on_c, 9, 75, 0
1, 87615, Note_on_c, 9, 70, 112
1, 87615, Note_on_c, 9, 42, 101
1, 87659, Note_on_c, 9, 70, 0
1, 87659, Note_on_c, 9, 42, 0
1, 87720, Note_on_c, 9, 69, 72
1, 87839, Note_on_c, 9, 35, 0
1, 87839, Note_on_c, 9, 69, 0
1, 87840, Note_on_c, 9, 38, 127
1, 87840, Note_on_c, 9, 42, 81
1, 88079, Note_on_c, 9, 38, 0
1, 88079, Note_on_c, 9, 42, 0
1, 88080, Note_on_c, 9, 70, 110
1, 88080, Note_on_c, 9, 42, 91
1, 88199, Note_on_c, 9, 70, 0
1, 88199, Note_on_c, 9, 42, 0
1, 88200, Note_on_c, 9, 69, 78
1, 88319, Note_on_c, 9, 69, 0
1, 88320, Note_on_c, 9, 42, 126
1, 88320, Note_on_c, 9, 35, 127
1, 88559, Note_on_c, 9, 42, 0
1, 88560, Note_on_c, 9, 70, 107
1, 88560, Note_on_c, 9, 42, 105
1, 88679, Note_on_c, 9, 70, 0
1, 88679, Note_on_c, 9, 42, 0
1, 88680, Note_on_c, 9, 69, 73
1, 88799, Note_on_c, 9, 35, 0
1, 88799, Note_on_c, 9, 69, 0
1, 88800, Note_on_c, 9, 38, 127
1, 88800, Note_on_c, 9, 42, 77
1, 89039, Note_on_c, 9, 38, 0
1, 89039, Note_on_c, 9, 42, 0
1, 89040, Note_on_c, 9, 70, 113
1, 89040, Note_on_c, 9, 42, 82
1, 89159, Note_on_c, 9, 70, 0
1, 89159, Note_on_c, 9, 42, 0
1, 89160, Note_on_c, 9, 69, 79
1, 89279, Note_on_c, 9, 69, 0
1, 89280, Note_on_c, 9, 42, 122
1, 89280, Note_on_c, 9, 35, 127
1, 89504, Note_on_c, 9, 42, 0
1, 89505, Note_on_c, 9, 38, 127
1, 89505, Note_on_c, 9, 70, 109
1, 89505, Note_on_c, 9, 42, 106
1, 89520, Note_on_c, 9, 75, 105
1, 89639, Note_on_c, 9, 38, 0
1, 89639, Note_on_c, 9, 70, 0
1, 89639, Note_on_c, 9, 42, 0
1, 89639, Note_on_c, 9, 75, 0
1, 89640, Note_on_c, 9, 69, 78
1, 89729, Note_on_c, 9, 69, 0
1, 89745, Note_on_c, 9, 38, 127
1, 89759, Note_on_c, 9, 35, 0
1, 89760, Note_on_c, 9, 42, 96
1, 89984, Note_on_c, 9, 38, 0
1, 89984, Note_on_c, 9, 42, 0
1, 89985, Note_on_c, 9, 38, 127
1, 90000, Note_on_c, 9, 70, 113
1, 90000, Note_on_c, 9, 42, 76
1, 90119, Note_on_c, 9, 38, 0
1, 90119, Note_on_c, 9, 70, 0
1, 90119, Note_on_c, 9, 42, 0
1, 90120, Note_on_c, 9, 69, 81
1, 90239, Note_on_c, 9, 69, 0
1, 90240, Note_on_c, 9, 57, 121
1, 90240, Note_on_c, 9, 35, 127
1, 90479, Note_on_c, 9, 57, 0
1, 90480, Note_on_c, 9, 70, 108
1, 90480, Note_on_c, 9, 42, 117
1, 90599, Note_on_c, 9, 70, 0
1, 90599, Note_on_c, 9, 42, 0
1, 90600, Note_on_c, 9, 69, 77
1, 90719, Note_on_c, 9, 35, 0
1, 90719, Note_on_c, 9, 69, 0
1, 90720, Note_on_c, 9, 38, 127
1, 90720, Note_on_c, 9, 42, 83
1, 90959, Note_on_c, 9, 38, 0
1, 90959, Note_on_c, 9, 42, 0
1, 90960, Note_on_c, 9, 70, 112
1, 90960, Note_on_c, 9, 42, 81
1, 91079, Note_on_c, 9, 70, 0
1, 91079, Note_on_c, 9, 42, 0
1, 91080, Note_on_c, 9, 69, 81
1, 91199, Note_on_c, 9, 69, 0
1, 91200, Note_on_c, 9, 42, 126
1, 91200, Note_on_c, 9, 35, 127
1, 91439, Note_on_c, 9, 42, 0
1, 91440, Note_on_c, 9, 75, 95
1, 91454, Note_on_c, 9, 75, 0
1, 91455, Note_on_c, 9, 70, 112
1, 91455, Note_on_c, 9, 42, 105
1, 91499, Note_on_c, 9, 70, 0
1, 91499, Note_on_c, 9, 42, 0
1, 91560, Note_on_c, 9, 69, 80
1, 91679, Note_on_c, 9, 35, 0
1, 91679, Note_on_c, 9, 69, 0
1, 91680, Note_on_c, 9, 38, 127
1, 91680, Note_on_c, 9, 42, 81
1, 91919, Note_on_c, 9, 38, 0
1, 91919, Note_on_c, 9, 42, 0
1, 91920, Note_on_c, 9, 70, 108
1, 91920, Note_on_c, 9, 42, 92
1, 92039, Note_on_c, 9, 70, 0
1, 92039, Note_on_c, 9, 42, 0
1, 92040, Note_on_c, 9, 69, 78
1, 92159, Note_on_c, 9, 69, 0
1, 92160, Note_on_c, 9, 42, 127
1, 92160, Note_on_c, 9, 35, 127
1, 92399, Note_on_c, 9, 42, 0
1, 92400, Note_on_c, 9, 70, 110
1, 92400, Note_on_c, 9, 42, 104
1, 92519, Note_on_c, 9, 70, 0
1, 92519, Note_on_c, 9, 42, 0
1, 92520, Note_on_c, 9, 69, 75
1, 92639, Note_on_c, 9, 35, 0
1, 92639, Note_on_c, 9, 69, 0
1, 92640, Note_on_c, 9, 38, 127
1, 92640, Note_on_c, 9, 42, 78
1, 92879, Note_on_c, 9, 38, 0
1, 92879, Note_on_c, 9, 42, 0
1, 92880, Note_on_c, 9, 70, 112
1, 92880, Note_on_c, 9, 42, 89
1, 92999, Note_on_c, 9, 70, 0
1, 92999, Note_on_c, 9, 42, 0
1, 93000, Note_on_c, 9, 69, 82
1, 93119, Note_on_c, 9, 69, 0
1, 93120, Note_on_c, 9, 42, 120
1, 93120, Note_on_c, 9, 35, 127
1, 93344, Note_on_c, 9, 42, 0
1, 93345, Note_on_c, 9, 70, 113
1, 93345, Note_on_c, 9, 42, 100
1, 93360, Note_on_c, 9, 75, 101
1, 93479, Note_on_c, 9, 70, 0
1, 93479, Note_on_c, 9, 42, 0
1, 93479, Note_on_c, 9, 75, 0
1, 93480, Note_on_c, 9, 69, 74
1, 93599, Note_on_c, 9, 35, 0
1, 93599, Note_on_c, 9, 69, 0
1, 93600, Note_on_c, 9, 38, 127
1, 93600, Note_on_c, 9, 42, 94
1, 93839, Note_on_c, 9, 38, 0
1, 93839, Note_on_c, 9, 42, 0
1, 93840, Note_on_c, 9, 70, 113
1, 93840, Note_on_c, 9, 42, 87
1, 93959, Note_on_c, 9, 70, 0
1, 93959, Note_on_c, 9, 42, 0
1, 93960, Note_on_c, 9, 69, 78
1, 94079, Note_on_c, 9, 69, 0
1, 94080, Note_on_c, 9, 42, 120
1, 94080, Note_on_c, 9, 35, 127
1, 94319, Note_on_c, 9, 42, 0
1, 94320, Note_on_c, 9, 70, 107
1, 94320, Note_on_c, 9, 42, 100
1, 94439, Note_on_c, 9, 70, 0
1, 94439, Note_on_c, 9, 42, 0
1, 94440, Note_on_c, 9, 69, 76
1, 94559, Note_on_c, 9, 35, 0
1, 94559, Note_on_c, 9, 69, 0
1, 94560, Note_on_c, 9, 38, 127
1, 94560, Note_on_c, 9, 42, 68
1, 94799, Note_on_c, 9, 38, 0
1, 94799, Note_on_c, 9, 42, 0
1, 94800, Note_on_c, 9, 70, 109
1, 94800, Note_on_c, 9, 42, 100
1, 94919, Note_on_c, 9, 70, 0
1, 94919, Note_on_c, 9, 42, 0
1, 94920, Note_on_c, 9, 69, 75
1, 95039, Note_on_c, 9, 69, 0
1, 95040, Note_on_c, 9, 42, 122
1, 95040, Note_on_c, 9, 35, 127
1, 95279, Note_on_c, 9, 42, 0
1, 95280, Note_on_c, 9, 75, 102
1, 95294, Note_on_c, 9, 75, 0
1, 95295, Note_on_c, 9, 70, 112
1, 95295, Note_on_c, 9, 42, 101
1, 95339, Note_on_c, 9, 70, 0
1, 95339, Note_on_c, 9, 42, 0
1, 95400, Note_on_c, 9, 69, 72
1, 95519, Note_on_c, 9, 35, 0
1, 95519, Note_on_c, 9, 69, 0
1, 95520, Note_on_c, 9, 38, 127
1, 95520, Note_on_c, 9, 42, 81
1, 95759, Note_on_c, 9, 38, 0
1, 95759, Note_on_c, 9, 42, 0
1, 95760, Note_on_c, 9, 70, 110
1, 95760, Note_on_c, 9, 42, 91
1, 95879, Note_on_c, 9, 70, 0
1, 95879, Note_on_c, 9, 42, 0
1, 95880, Note_on_c, 9, 69, 78
1, 95999, Note_on_c, 9, 69, 0
1, 96000, Note_on_c, 9, 42, 126
1, 96000, Note_on_c, 9, 35, 127
1, 96239, Note_on_c, 9, 42, 0
1, 96240, Note_on_c, 9, 70, 107
1, 96240, Note_on_c, 9, 42, 105
1, 96359, Note_on_c, 9, 70, 0
1, 96359, Note_on_c, 9, 42, 0
1, 96360, Note_on_c, 9, 69, 73
1, 96479, Note_on_c, 9, 35, 0
1, 96479, Note_on_c, 9, 69, 0
1, 96480, Note_on_c, 9, 38, 127
1, 96480, Note_on_c, 9, 42, 77
1, 96719, Note_on_c, 9, 38, 0
1, 96719, Note_on_c, 9, 42, 0
1, 96720, Note_on_c, 9, 70, 113
1, 96720, Note_on_c, 9, 42, 82
1, 96839, Note_on_c, 9, 70, 0
1, 96839, Note_on_c, 9, 42, 0
1, 96840, Note_on_c, 9, 69, 79
1, 96959, Note_on_c, 9, 69, 0
1, 96960, Note_on_c, 9, 42, 122
1, 96960, Note_on_c, 9, 35, 127
1, 97184, Note_on_c, 9, 42, 0
1, 97185, Note_on_c, 9, 70, 109
1, 97185, Note_on_c, 9, 42, 106
1, 97200, Note_on_c, 9, 75, 105
1, 97319, Note_on_c, 9, 70, 0
1, 97319, Note_on_c, 9, 42, 0
1, 97319, Note_on_c, 9, 75, 0
1, 97320, Note_on_c, 9, 69, 78
1, 97439, Note_on_c, 9, 35, 0
1, 97439, Note_on_c, 9, 69, 0
1, 97440, Note_on_c, 9, 38, 127
1, 97440, Note_on_c, 9, 42, 96
1, 97679, Note_on_c, 9, 38, 0
1, 97679, Note_on_c, 9, 42, 0
1, 97680, Note_on_c, 9, 46, 76
1, 97680, Note_on_c, 9, 70, 113
1, 97799, Note_on_c, 9, 46, 0
1, 97799, Note_on_c, 9, 70, 0
1, 97800, Note_on_c, 9, 69, 81
1, 97919, Note_on_c, 9, 69, 0
1, 97920, Note_on_c, 9, 49, 120
1, 97920, Note_on_c, 9, 35, 127
1, 98159, Note_on_c, 9, 49, 0
1, 98160, Note_on_c, 9, 70, 108
1, 98160, Note_on_c, 9, 42, 101
1, 98279, Note_on_c, 9, 70, 0
1, 98279, Note_on_c, 9, 42, 0
1, 98280, Note_on_c, 9, 69, 77
1, 98399, Note_on_c, 9, 35, 0
1, 98399, Note_on_c, 9, 69, 0
1, 98400, Note_on_c, 9, 38, 127
1, 98400, Note_on_c, 9, 42, 83
1, 98639, Note_on_c, 9, 38, 0
1, 98639, Note_on_c, 9, 42, 0
1, 98640, Note_on_c, 9, 70, 112
1, 98640, Note_on_c, 9, 42, 81
1, 98759, Note_on_c, 9, 70, 0
1, 98759, Note_on_c, 9, 42, 0
1, 98760, Note_on_c, 9, 69, 81
1, 98879, Note_on_c, 9, 69, 0
1, 98880, Note_on_c, 9, 42, 126
1, 98880, Note_on_c, 9, 35, 127
1, 99119, Note_on_c, 9, 42, 0
1, 99120, Note_on_c, 9, 75, 95
1, 99134, Note_on_c, 9, 75, 0
1, 99135, Note_on_c, 9, 70, 112
1, 99135, Note_on_c, 9, 42, 105
1, 99179, Note_on_c, 9, 70, 0
1, 99179, Note_on_c, 9, 42, 0
1, 99240, Note_on_c, 9, 69, 80
1, 99359, Note_on_c, 9, 35, 0
1, 99359, Note_on_c, 9, 69, 0
1, 99360, Note_on_c, 9, 38, 127
1, 99360, Note_on_c, 9, 42, 81
1, 99599, Note_on_c, 9, 38, 0
1, 99599, Note_on_c, 9, 42, 0
1, 99600, Note_on_c, 9, 70, 108
1, 99600, Note_on_c, 9, 42, 92
1, 99719, Note_on_c, 9, 70, 0
1, 99719, Note_on_c, 9, 42, 0
1, 99720, Note_on_c, 9, 69, 78
1, 99839, Note_on_c, 9, 69, 0
1, 99840, Note_on_c, 9, 42, 127
1, 99840, Note_on_c, 9, 35, 127
1, 100079, Note_on_c, 9, 42, 0
1, 100080, Note_on_c, 9, 70, 110
1, 100080, Note_on_c, 9, 42, 104
1, 100199, Note_on_c, 9, 70, 0
1, 100199, Note_on_c, 9, 42, 0
1, 100200, Note_on_c, 9, 69, 75
1, 100319, Note_on_c, 9, 35, 0
1, 100319, Note_on_c, 9, 69, 0
1, 100320, Note_on_c, 9, 38, 127
1, 100320, Note_on_c, 9, 42, 78
1, 100559, Note_on_c, 9, 38, 0
1, 100559, Note_on_c, 9, 42, 0
1, 100560, Note_on_c, 9, 70, 112
1, 100560, Note_on_c, 9, 42, 89
1, 100679, Note_on_c, 9, 70, 0
1, 100679, Note_on_c, 9, 42, 0
1, 100680, Note_on_c, 9, 69, 82
1, 100799, Note_on_c, 9, 69, 0
1, 100800, Note_on_c, 9, 42, 120
1, 100800, Note_on_c, 9, 35, 127
1, 101024, Note_on_c, 9, 42, 0
1, 101025, Note_on_c, 9, 70, 113
1, 101025, Note_on_c, 9, 42, 100
1, 101040, Note_on_c, 9, 75, 101
1, 101159, Note_on_c, 9, 70, 0
1, 101159, Note_on_c, 9, 42, 0
1, 101159, Note_on_c, 9, 75, 0
1, 101160, Note_on_c, 9, 69, 74
1, 101279, Note_on_c, 9, 35, 0
1, 101279, Note_on_c, 9, 69, 0
1, 101280, Note_on_c, 9, 38, 127
1, 101280, Note_on_c, 9, 42, 94
1, 101519, Note_on_c, 9, 38, 0
1, 101519, Note_on_c, 9, 42, 0
1, 101520, Note_on_c, 9, 70, 113
1, 101520, Note_on_c, 9, 42, 87
1, 101639, Note_on_c, 9, 70, 0
1, 101639, Note_on_c, 9, 42, 0
1, 101640, Note_on_c, 9, 69, 78
1, 101759, Note_on_c, 9, 69, 0
1, 101760, Note_on_c, 9, 42, 120
1, 101760, Note_on_c, 9, 35, 127
1, 101999, Note_on_c, 9, 42, 0
1, 102000, Note_on_c, 9, 70, 107
1, 102000, Note_on_c, 9, 42, 100
1, 102119, Note_on_c, 9, 70, 0
1, 102119, Note_on_c, 9, 42, 0
1, 102120, Note_on_c, 9, 69, 76
1, 102239, Note_on_c, 9, 35, 0
1, 102239, Note_on_c, 9, 69, 0
1, 102240, Note_on_c, 9, 38, 127
1, 102240, Note_on_c, 9, 42, 68
1, 102479, Note_on_c, 9, 38, 0
1, 102479, Note_on_c, 9, 42, 0
1, 102480, Note_on_c, 9, 70, 109
1, 102480, Note_on_c, 9, 42, 100
1, 102599, Note_on_c, 9, 70, 0
1, 102599, Note_on_c, 9, 42, 0
1, 102600, Note_on_c, 9, 69, 75
1, 102719, Note_on_c, 9, 69, 0
1, 102720, Note_on_c, 9, 42, 122
1, 102720, Note_on_c, 9, 35, 127
1, 102959, Note_on_c, 9, 42, 0
1, 102960, Note_on_c, 9, 75, 102
1, 102974, Note_on_c, 9, 75, 0
1, 102975, Note_on_c, 9, 70, 112
1, 102975, Note_on_c, 9, 42, 101
1, 103019, Note_on_c, 9, 70, 0
1, 103019, Note_on_c, 9, 42, 0
1, 103080, Note_on_c, 9, 69, 72
1, 103199, Note_on_c, 9, 35, 0
1, 103199, Note_on_c, 9, 69, 0
1, 103200, Note_on_c, 9, 38, 127
1, 103200, Note_on_c, 9, 42, 81
1, 103439, Note_on_c, 9, 38, 0
1, 103439, Note_on_c, 9, 42, 0
1, 103440, Note_on_c, 9, 46, 91
1, 103440, Note_on_c, 9, 70, 110
1, 103559, Note_on_c, 9, 46, 0
1, 103559, Note_on_c, 9, 70, 0
1, 103560, Note_on_c, 9, 69, 78
1, 103679, Note_on_c, 9, 69, 0
1, 103680, Note_on_c, 9, 42, 126
1, 103680, Note_on_c, 9, 35, 127
1, 103919, Note_on_c, 9, 42, 0
1, 103920, Note_on_c, 9, 70, 107
1, 103920, Note_on_c, 9, 42, 105
1, 104039, Note_on_c, 9, 70, 0
1, 104039, Note_on_c, 9, 42, 0
1, 104040, Note_on_c, 9, 69, 73
1, 104159, Note_on_c, 9, 35, 0
1, 104159, Note_on_c, 9, 69, 0
1, 104160, Note_on_c, 9, 38, 127
1, 104160, Note_on_c, 9, 42, 77
1, 104399, Note_on_c, 9, 38, 0
1, 104399, Note_on_c, 9, 42, 0
1, 104400, Note_on_c, 9, 70, 113
1, 104400, Note_on_c, 9, 42, 82
1, 104519, Note_on_c, 9, 70, 0
1, 104519, Note_on_c, 9, 42, 0
1, 104520, Note_on_c, 9, 69, 79
1, 104639, Note_on_c, 9, 69, 0
1, 104640, Note_on_c, 9, 42, 122
1, 104640, Note_on_c, 9, 35, 127
1, 104864, Note_on_c, 9, 42, 0
1, 104865, Note_on_c, 9, 70, 109
1, 104865, Note_on_c, 9, 42, 106
1, 104880, Note_on_c, 9, 75, 105
1, 104999, Note_on_c, 9, 70, 0
1, 104999, Note_on_c, 9, 42, 0
1, 104999, Note_on_c, 9, 75, 0
1, 105000, Note_on_c, 9, 69, 78
1, 105119, Note_on_c, 9, 35, 0
1, 105119, Note_on_c, 9, 69, 0
1, 105120, Note_on_c, 9, 42, 96
1, 105134, Note_on_c, 9, 42, 0
1, 105135, Note_on_c, 9, 38, 127
1, 105359, Note_on_c, 9, 38, 0
1, 105360, Note_on_c, 9, 38, 127
1, 105360, Note_on_c, 9, 70, 113
1, 105360, Note_on_c, 9, 42, 76
1, 105479, Note_on_c, 9, 38, 0
1, 105479, Note_on_c, 9, 70, 0
1, 105479, Note_on_c, 9, 42, 0
1, 105480, Note_on_c, 9, 69, 81
1, 105599, Note_on_c, 9, 69, 0
1, 105600, Note_on_c, 9, 42, 120
1, 105600, Note_on_c, 9, 35, 127
1, 105839, Note_on_c, 9, 42, 0
1, 105840, Note_on_c, 9, 42, 101
1, 106079, Note_on_c, 9, 35, 0
1, 106079, Note_on_c, 9, 42, 0
1, 106080, Note_on_c, 9, 38, 127
1, 106080, Note_on_c, 9, 42, 83
1, 106319, Note_on_c, 9, 38, 0
1, 106319, Note_on_c, 9, 42, 0
1, 106320, Note_on_c, 9, 42, 81
1, 106559, Note_on_c, 9, 42, 0
1, 106560, Note_on_c, 9, 42, 126
1, 106560, Note_on_c, 9, 35, 127
1, 106799, Note_on_c, 9, 42, 0
1, 106800, Note_on_c, 9, 42, 105
1, 107039, Note_on_c, 9, 35, 0
1, 107039, Note_on_c, 9, 42, 0
1, 107040, Note_on_c, 9, 38, 127
1, 107040, Note_on_c, 9, 42, 81
1, 107279, Note_on_c, 9, 38, 0
1, 107279, Note_on_c, 9, 42, 0
1, 107280, Note_on_c, 9, 42, 92
1, 107519, Note_on_c, 9, 42, 0
1, 107520, Note_on_c, 9, 42, 127
1, 107520, Note_on_c, 9, 35, 127
1, 107759, Note_on_c, 9, 42, 0
1, 107760, Note_on_c, 9, 42, 104
1, 107999, Note_on_c, 9, 35, 0
1, 107999, Note_on_c, 9, 42, 0
1, 108000, Note_on_c, 9, 38, 127
1, 108000, Note_on_c, 9, 42, 78
1, 108239, Note_on_c, 9, 38, 0
1, 108239, Note_on_c, 9, 42, 0
1, 108240, Note_on_c, 9, 42, 89
1, 108479, Note_on_c, 9, 42, 0
1, 108480, Note_on_c, 9, 42, 120
1, 108480, Note_on_c, 9, 35, 127
1, 108719, Note_on_c, 9, 42, 0
1, 108720, Note_on_c, 9, 42, 100
1, 108959, Note_on_c, 9, 35, 0
1, 108959, Note_on_c, 9, 42, 0
1, 108960, Note_on_c, 9, 38, 127
1, 108960, Note_on_c, 9, 42, 94
1, 109199, Note_on_c, 9, 38, 0
1, 109199, Note_on_c, 9, 42, 0
1, 109200, Note_on_c, 9, 42, 87
1, 109439, Note_on_c, 9, 42, 0
1, 109440, Note_on_c, 9, 42, 120
1, 109440, Note_on_c, 9, 35, 127
1, 109679, Note_on_c, 9, 42, 0
1, 109680, Note_on_c, 9, 42, 100
1, 109919, Note_on_c, 9, 35, 0
1, 109919, Note_on_c, 9, 42, 0
1, 109920, Note_on_c, 9, 38, 127
1, 109920, Note_on_c, 9, 42, 68
1, 110159, Note_on_c, 9, 38, 0
1, 110159, Note_on_c, 9, 42, 0
1, 110160, Note_on_c, 9, 42, 100
1, 110399, Note_on_c, 9, 42, 0
1, 110400, Note_on_c, 9, 42, 122
1, 110400, Note_on_c, 9, 35, 127
1, 110639, Note_on_c, 9, 42, 0
1, 110640, Note_on_c, 9, 42, 101
1, 110879, Note_on_c, 9, 35, 0
1, 110879, Note_on_c, 9, 42, 0
1, 110880, Note_on_c, 9, 38, 127
1, 110880, Note_on_c, 9, 42, 81
1, 111119, Note_on_c, 9, 38, 0
1, 111119, Note_on_c, 9, 42, 0
1, 111120, Note_on_c, 9, 42, 91
1, 111359, Note_on_c, 9, 42, 0
1, 111360, Note_on_c, 9, 42, 126
1, 111360, Note_on_c, 9, 35, 127
1, 111599, Note_on_c, 9, 42, 0
1, 111600, Note_on_c, 9, 42, 105
1, 111839, Note_on_c, 9, 35, 0
1, 111839, Note_on_c, 9, 42, 0
1, 111840, Note_on_c, 9, 38, 127
1, 111840, Note_on_c, 9, 42, 77
1, 112079, Note_on_c, 9, 38, 0
1, 112079, Note_on_c, 9, 42, 0
1, 112080, Note_on_c, 9, 42, 82
1, 112319, Note_on_c, 9, 42, 0
1, 112320, Note_on_c, 9, 42, 122
1, 112320, Note_on_c, 9, 35, 127
1, 112559, Note_on_c, 9, 42, 0
1, 112560, Note_on_c, 9, 42, 106
1, 112799, Note_on_c, 9, 35, 0
1, 112799, Note_on_c, 9, 42, 0
1, 112800, Note_on_c, 9, 38, 127
1, 112800, Note_on_c, 9, 42, 96
1, 113039, Note_on_c, 9, 38, 0
1, 113039, Note_on_c, 9, 42, 0
1, 113040, Note_on_c, 9, 46, 92
1, 113279, Note_on_c, 9, 46, 0
1, 113280, Note_on_c, 9, 42, 120
1, 113280, Note_on_c, 9, 35, 127
1, 113519, Note_on_c, 9, 42, 0
1, 113520, Note_on_c, 9, 42, 101
1, 113759, Note_on_c, 9, 35, 0
1, 113759, Note_on_c, 9, 42, 0
1, 113760, Note_on_c, 9, 38, 127
1, 113760, Note_on_c, 9, 42, 83
1, 113999, Note_on_c, 9, 38, 0
1, 113999, Note_on_c, 9, 42, 0
1, 114000, Note_on_c, 9, 42, 81
1, 114239, Note_on_c, 9, 42, 0
1, 114240, Note_on_c, 9, 42, 126
1, 114240, Note_on_c, 9, 35, 127
1, 114479, Note_on_c, 9, 42, 0
1, 114480, Note_on_c, 9, 42, 105
1, 114719, Note_on_c, 9, 35, 0
1, 114719, Note_on_c, 9, 42, 0
1, 114720, Note_on_c, 9, 38, 127
1, 114720, Note_on_c, 9, 42, 81
1, 114959, Note_on_c, 9, 38, 0
1, 114959, Note_on_c, 9, 42, 0
1, 114960, Note_on_c, 9, 42, 92
1, 115199, Note_on_c, 9, 42, 0
1, 115200, Note_on_c, 9, 42, 127
1, 115200, Note_on_c, 9, 35, 127
1, 115439, Note_on_c, 9, 42, 0
1, 115440, Note_on_c, 9, 42, 104
1, 115679, Note_on_c, 9, 35, 0
1, 115679, Note_on_c, 9, 42, 0
1, 115680, Note_on_c, 9, 38, 127
1, 115680, Note_on_c, 9, 42, 78
1, 115919, Note_on_c, 9, 38, 0
1, 115919, Note_on_c, 9, 42, 0
1, 115920, Note_on_c, 9, 42, 89
1, 116159, Note_on_c, 9, 42, 0
1, 116160, Note_on_c, 9, 42, 120
1, 116160, Note_on_c, 9, 35, 127
1, 116399, Note_on_c, 9, 42, 0
1, 116400, Note_on_c, 9, 42, 100
1, 116639, Note_on_c, 9, 35, 0
1, 116639, Note_on_c, 9, 42, 0
1, 116640, Note_on_c, 9, 38, 127
1, 116640, Note_on_c, 9, 42, 94
1, 116879, Note_on_c, 9, 38, 0
1, 116879, Note_on_c, 9, 42, 0
1, 116880, Note_on_c, 9, 42, 87
1, 117119, Note_on_c, 9, 42, 0
1, 117120, Note_on_c, 9, 42, 120
1, 117120, Note_on_c, 9, 35, 127
1, 117359, Note_on_c, 9, 42, 0
1, 117360, Note_on_c, 9, 42, 100
1, 117599, Note_on_c, 9, 35, 0
1, 117599, Note_on_c, 9, 42, 0
1, 117600, Note_on_c, 9, 38, 127
1, 117600, Note_on_c, 9, 42, 68
1, 117839, Note_on_c, 9, 38, 0
1, 117839, Note_on_c, 9, 42, 0
1, 117840, Note_on_c, 9, 42, 100
1, 118079, Note_on_c, 9, 42, 0
1, 118080, Note_on_c, 9, 42, 122
1, 118080, Note_on_c, 9, 35, 127
1, 118319, Note_on_c, 9, 42, 0
1, 118320, Note_on_c, 9, 42, 101
1, 118559, Note_on_c, 9, 35, 0
1, 118559, Note_on_c, 9, 42, 0
1, 118560, Note_on_c, 9, 38, 127
1, 118560, Note_on_c, 9, 42, 81
1, 118799, Note_on_c, 9, 38, 0
1, 118799, Note_on_c, 9, 42, 0
1, 118800, Note_on_c, 9, 42, 91
1, 119039, Note_on_c, 9, 42, 0
1, 119040, Note_on_c, 9, 42, 126
1, 119040, Note_on_c, 9, 35, 127
1, 119279, Note_on_c, 9, 42, 0
1, 119280, Note_on_c, 9, 42, 105
1, 119519, Note_on_c, 9, 35, 0
1, 119519, Note_on_c, 9, 42, 0
1, 119520, Note_on_c, 9, 38, 127
1, 119520, Note_on_c, 9, 42, 77
1, 119759, Note_on_c, 9, 38, 0
1, 119759, Note_on_c, 9, 42, 0
1, 119760, Note_on_c, 9, 42, 82
1, 119999, Note_on_c, 9, 42, 0
1, 120000, Note_on_c, 9, 42, 122
1, 120000, Note_on_c, 9, 35, 127
1, 120239, Note_on_c, 9, 42, 0
1, 120240, Note_on_c, 9, 42, 106
1, 120479, Note_on_c, 9, 35, 0
1, 120479, Note_on_c, 9, 42, 0
1, 120480, Note_on_c, 9, 38, 127
1, 120480, Note_on_c, 9, 42, 96
1, 120719, Note_on_c, 9, 38, 0
1, 120719, Note_on_c, 9, 42, 0
1, 120720, Note_on_c, 9, 46, 91
1, 120959, Note_on_c, 9, 46, 0
1, 120960, Note_on_c, 9, 42, 120
1, 120960, Note_on_c, 9, 35, 127
1, 121199, Note_on_c, 9, 42, 0
1, 121200, Note_on_c, 9, 42, 101
1, 121439, Note_on_c, 9, 35, 0
1, 121439, Note_on_c, 9, 42, 0
1, 121440, Note_on_c, 9, 38, 127
1, 121440, Note_on_c, 9, 42, 83
1, 121679, Note_on_c, 9, 38, 0
1, 121679, Note_on_c, 9, 42, 0
1, 121680, Note_on_c, 9, 42, 81
1, 121919, Note_on_c, 9, 42, 0
1, 121920, Note_on_c, 9, 42, 126
1, 121920, Note_on_c, 9, 35, 127
1, 122159, Note_on_c, 9, 42, 0
1, 122160, Note_on_c, 9, 42, 105
1, 122399, Note_on_c, 9, 35, 0
1, 122399, Note_on_c, 9, 42, 0
1, 122400, Note_on_c, 9, 38, 127
1, 122400, Note_on_c, 9, 42, 81
1, 122639, Note_on_c, 9, 38, 0
1, 122639, Note_on_c, 9, 42, 0
1, 122640, Note_on_c, 9, 42, 92
1, 122879, Note_on_c, 9, 42, 0
1, 122880, Note_on_c, 9, 42, 127
1, 122880, Note_on_c, 9, 35, 127
1, 123119, Note_on_c, 9, 42, 0
1, 123120, Note_on_c, 9, 42, 104
1, 123359, Note_on_c, 9, 35, 0
1, 123359, Note_on_c, 9, 42, 0
1, 123360, Note_on_c, 9, 38, 127
1, 123360, Note_on_c, 9, 42, 78
1, 123599, Note_on_c, 9, 38, 0
1, 123599, Note_on_c, 9, 42, 0
1, 123600, Note_on_c, 9, 42, 89
1, 123839, Note_on_c, 9, 42, 0
1, 123840, Note_on_c, 9, 42, 120
1, 123840, Note_on_c, 9, 35, 127
1, 124079, Note_on_c, 9, 42, 0
1, 124080, Note_on_c, 9, 42, 100
1, 124319, Note_on_c, 9, 35, 0
1, 124319, Note_on_c, 9, 42, 0
1, 124320, Note_on_c, 9, 38, 127
1, 124320, Note_on_c, 9, 42, 94
1, 124559, Note_on_c, 9, 38, 0
1, 124559, Note_on_c, 9, 42, 0
1, 124560, Note_on_c, 9, 42, 87
1, 124799, Note_on_c, 9, 42, 0
1, 124800, Note_on_c, 9, 42, 120
1, 124800, Note_on_c, 9, 35, 127
1, 125039, Note_on_c, 9, 42, 0
1, 125040, Note_on_c, 9, 42, 100
1, 125279, Note_on_c, 9, 35, 0
1, 125279, Note_on_c, 9, 42, 0
1, 125280, Note_on_c, 9, 38, 127
1, 125280, Note_on_c, 9, 42, 68
1, 125519, Note_on_c, 9, 38, 0
1, 125519, Note_on_c, 9, 42, 0
1, 125520, Note_on_c, 9, 42, 100
1, 125759, Note_on_c, 9, 42, 0
1, 125760, Note_on_c, 9, 42, 122
1, 125760, Note_on_c, 9, 35, 127
1, 125999, Note_on_c, 9, 42, 0
1, 126000, Note_on_c, 9, 42, 101
1, 126239, Note_on_c, 9, 35, 0
1, 126239, Note_on_c, 9, 42, 0
1, 126240, Note_on_c, 9, 38, 127
1, 126240, Note_on_c, 9, 42, 81
1, 126479, Note_on_c, 9, 38, 0
1, 126479, Note_on_c, 9, 42, 0
1, 126480, Note_on_c, 9, 42, 91
1, 126719, Note_on_c, 9, 42, 0
1, 126720, Note_on_c, 9, 42, 126
1, 126720, Note_on_c, 9, 35, 127
1, 126959, Note_on_c, 9, 42, 0
1, 126960, Note_on_c, 9, 42, 105
1, 127199, Note_on_c, 9, 35, 0
1, 127199, Note_on_c, 9, 42, 0
1, 127200, Note_on_c, 9, 38, 127
1, 127200, Note_on_c, 9, 42, 77
1, 127439, Note_on_c, 9, 38, 0
1, 127439, Note_on_c, 9, 42, 0
1, 127440, Note_on_c, 9, 42, 82
1, 127679, Note_on_c, 9, 42, 0
1, 127680, Note_on_c, 9, 42, 122
1, 127680, Note_on_c, 9, 35, 127
1, 127919, Note_on_c, 9, 42, 0
1, 127920, Note_on_c, 9, 42, 106
1, 128159, Note_on_c, 9, 35, 0
1, 128159, Note_on_c, 9, 42, 0
1, 128160, Note_on_c, 9, 38, 127
1, 128160, Note_on_c, 9, 42, 96
1, 128279, Note_on_c, 9, 38, 0
1, 128279, Note_on_c, 9, 42, 0
1, 128280, Note_on_c, 9, 65, 97
1, 128399, Note_on_c, 9, 65, 0
1, 128400, Note_on_c, 9, 65, 118
1, 128414, Note_on_c, 9, 65, 0
1, 128415, Note_on_c, 9, 42, 76
1, 128639, Note_on_c, 9, 42, 0
1, 128640, Note_on_c, 9, 49, 127
1, 128640, Note_on_c, 9, 35, 127
1, 128879, Note_on_c, 9, 49, 0
1, 128880, Note_on_c, 9, 42, 101
1, 129119, Note_on_c, 9, 35, 0
1, 129119, Note_on_c, 9, 42, 0
1, 129120, Note_on_c, 9, 38, 127
1, 129120, Note_on_c, 9, 42, 83
1, 129359, Note_on_c, 9, 38, 0
1, 129359, Note_on_c, 9, 42, 0
1, 129360, Note_on_c, 9, 42, 81
1, 129599, Note_on_c, 9, 42, 0
1, 129600, Note_on_c, 9, 42, 126
1, 129600, Note_on_c, 9, 35, 127
1, 129839, Note_on_c, 9, 42, 0
1, 129840, Note_on_c, 9, 42, 105
1, 130079, Note_on_c, 9, 35, 0
1, 130079, Note_on_c, 9, 42, 0
1, 130080, Note_on_c, 9, 38, 127
1, 130080, Note_on_c, 9, 42, 81
1, 130319, Note_on_c, 9, 38, 0
1, 130319, Note_on_c, 9, 42, 0
1, 130320, Note_on_c, 9, 42, 92
1, 130559, Note_on_c, 9, 42, 0
1, 130560, Note_on_c, 9, 42, 127
1, 130560, Note_on_c, 9, 35, 127
1, 130799, Note_on_c, 9, 42, 0
1, 130800, Note_on_c, 9, 42, 104
1, 131039, Note_on_c, 9, 35, 0
1, 131039, Note_on_c, 9, 42, 0
1, 131040, Note_on_c, 9, 38, 127
1, 131040, Note_on_c, 9, 42, 78
1, 131279, Note_on_c, 9, 38, 0
1, 131279, Note_on_c, 9, 42, 0
1, 131280, Note_on_c, 9, 42, 89
1, 131519, Note_on_c, 9, 42, 0
1, 131520, Note_on_c, 9, 42, 120
1, 131520, Note_on_c, 9, 35, 127
1, 131759, Note_on_c, 9, 42, 0
1, 131760, Note_on_c, 9, 42, 100
1, 131999, Note_on_c, 9, 35, 0
1, 131999, Note_on_c, 9, 42, 0
1, 132000, Note_on_c, 9, 38, 127
1, 132000, Note_on_c, 9, 42, 94
1, 132239, Note_on_c, 9, 38, 0
1, 132239, Note_on_c, 9, 42, 0
1, 132240, Note_on_c, 9, 46, 87
1, 132479, Note_on_c, 9, 46, 0
1, 132480, Note_on_c, 9, 42, 120
1, 132480, Note_on_c, 9, 35, 127
1, 132719, Note_on_c, 9, 42, 0
1, 132720, Note_on_c, 9, 42, 100
1, 132959, Note_on_c, 9, 35, 0
1, 132959, Note_on_c, 9, 42, 0
1, 132960, Note_on_c, 9, 38, 127
1, 132960, Note_on_c, 9, 42, 68
1, 133199, Note_on_c, 9, 38, 0
1, 133199, Note_on_c, 9, 42, 0
1, 133200, Note_on_c, 9, 42, 100
1, 133439, Note_on_c, 9, 42, 0
1, 133440, Note_on_c, 9, 42, 122
1, 133440, Note_on_c, 9, 35, 127
1, 133679, Note_on_c, 9, 42, 0
1, 133680, Note_on_c, 9, 42, 101
1, 133919, Note_on_c, 9, 35, 0
1, 133919, Note_on_c, 9, 42, 0
1, 133920, Note_on_c, 9, 38, 127
1, 133920, Note_on_c, 9, 42, 81
1, 134159, Note_on_c, 9, 38, 0
1, 134159, Note_on_c, 9, 42, 0
1, 134160, Note_on_c, 9, 46, 91
1, 134399, Note_on_c, 9, 46, 0
1, 134400, Note_on_c, 9, 42, 126
1, 134400, Note_on_c, 9, 35, 127
1, 134639, Note_on_c, 9, 42, 0
1, 134640, Note_on_c, 9, 42, 105
1, 134879, Note_on_c, 9, 35, 0
1, 134879, Note_on_c, 9, 42, 0
1, 134880, Note_on_c, 9, 38, 127
1, 134880, Note_on_c, 9, 42, 77
1, 135119, Note_on_c, 9, 38, 0
1, 135119, Note_on_c, 9, 42, 0
1, 135120, Note_on_c, 9, 42, 82
1, 135359, Note_on_c, 9, 42, 0
1, 135360, Note_on_c, 9, 42, 122
1, 135360, Note_on_c, 9, 35, 127
1, 135599, Note_on_c, 9, 42, 0
1, 135600, Note_on_c, 9, 42, 106
1, 135839, Note_on_c, 9, 35, 0
1, 135839, Note_on_c, 9, 42, 0
1, 135840, Note_on_c, 9, 38, 127
1, 135840, Note_on_c, 9, 42, 96
1, 136079, Note_on_c, 9, 38, 0
1, 136079, Note_on_c, 9, 42, 0
1, 136080, Note_on_c, 9, 46, 94
1, 136319, Note_on_c, 9, 46, 0
1, 136320, Note_on_c, 9, 42, 120
1, 136320, Note_on_c, 9, 35, 127
1, 136559, Note_on_c, 9, 42, 0
1, 136560, Note_on_c, 9, 42, 101
1, 136799, Note_on_c, 9, 35, 0
1, 136799, Note_on_c, 9, 42, 0
1, 136800, Note_on_c, 9, 38, 127
1, 136800, Note_on_c, 9, 42, 83
1, 137039, Note_on_c, 9, 38, 0
1, 137039, Note_on_c, 9, 42, 0
1, 137040, Note_on_c, 9, 42, 81
1, 137279, Note_on_c, 9, 42, 0
1, 137280, Note_on_c, 9, 42, 126
1, 137280, Note_on_c, 9, 35, 127
1, 137519, Note_on_c, 9, 42, 0
1, 137520, Note_on_c, 9, 42, 105
1, 137759, Note_on_c, 9, 35, 0
1, 137759, Note_on_c, 9, 42, 0
1, 137760, Note_on_c, 9, 38, 127
1, 137760, Note_on_c, 9, 42, 81
1, 137999, Note_on_c, 9, 38, 0
1, 137999, Note_on_c, 9, 42, 0
1, 138000, Note_on_c, 9, 46, 92
1, 138239, Note_on_c, 9, 46, 0
1, 138240, Note_on_c, 9, 42, 127
1, 138240, Note_on_c, 9, 35, 127
1, 138479, Note_on_c, 9, 42, 0
1, 138480, Note_on_c, 9, 42, 104
1, 138719, Note_on_c, 9, 35, 0
1, 138719, Note_on_c, 9, 42, 0
1, 138720, Note_on_c, 9, 38, 127
1, 138720, Note_on_c, 9, 42, 78
1, 138959, Note_on_c, 9, 38, 0
1, 138959, Note_on_c, 9, 42, 0
1, 138960, Note_on_c, 9, 42, 89
1, 139199, Note_on_c, 9, 42, 0
1, 139200, Note_on_c, 9, 42, 120
1, 139200, Note_on_c, 9, 35, 127
1, 139439, Note_on_c, 9, 42, 0
1, 139440, Note_on_c, 9, 42, 100
1, 139679, Note_on_c, 9, 35, 0
1, 139679, Note_on_c, 9, 42, 0
1, 139680, Note_on_c, 9, 38, 127
1, 139680, Note_on_c, 9, 42, 94
1, 139919, Note_on_c, 9, 38, 0
1, 139919, Note_on_c, 9, 42, 0
1, 139920, Note_on_c, 9, 46, 87
1, 140159, Note_on_c, 9, 46, 0
1, 140160, Note_on_c, 9, 45, 103
1, 140160, Note_on_c, 9, 42, 120
1, 140160, Note_on_c, 9, 35, 127
1, 140174, Note_on_c, 9, 45, 0
1, 140174, Note_on_c, 9, 42, 0
1, 140175, Note_on_c, 9, 38, 127
1, 140399, Note_on_c, 9, 38, 0
1, 140400, Note_on_c, 9, 38, 109
1, 140400, Note_on_c, 9, 45, 75
1, 140639, Note_on_c, 9, 35, 0
1, 140639, Note_on_c, 9, 38, 0
1, 140639, Note_on_c, 9, 45, 0
1, 140640, Note_on_c, 9, 38, 122
1, 140640, Note_on_c, 9, 45, 92
1, 140640, Note_on_c, 9, 44, 68
1, 140879, Note_on_c, 9, 38, 0
1, 140879, Note_on_c, 9, 45, 0
1, 140880, Note_on_c, 9, 45, 107
1, 140894, Note_on_c, 9, 45, 0
1, 140895, Note_on_c, 9, 38, 127
1, 141119, Note_on_c, 9, 44, 0
1, 141119, Note_on_c, 9, 38, 0
1, 141120, Note_on_c, 9, 38, 127
1, 141120, Note_on_c, 9, 45, 123
1, 141120, Note_on_c, 9, 44, 122
1, 141120, Note_on_c, 9, 35, 127
1, 141359, Note_on_c, 9, 38, 0
1, 141359, Note_on_c, 9, 45, 0
1, 141360, Note_on_c, 9, 38, 127
1, 141360, Note_on_c, 9, 45, 127
1, 141599, Note_on_c, 9, 44, 0
1, 141599, Note_on_c, 9, 35, 0
1, 141599, Note_on_c, 9, 38, 0
1, 141599, Note_on_c, 9, 45, 0
1, 141600, Note_on_c, 9, 38, 127
1, 141600, Note_on_c, 9, 45, 127
1, 141600, Note_on_c, 9, 44, 81
1, 141839, Note_on_c, 9, 38, 0
1, 141839, Note_on_c, 9, 45, 0
1, 141840, Note_on_c, 9, 38, 127
1, 141840, Note_on_c, 9, 45, 127
1, 142079, Note_on_c, 9, 44, 0
1, 142079, Note_on_c, 9, 38, 0
1, 142079, Note_on_c, 9, 45, 0
1, 142080, Note_on_c, 9, 38, 127
1, 142080, Note_on_c, 9, 45, 127
1, 142080, Note_on_c, 9, 35, 127
1, 142094, Note_on_c, 9, 38, 0
1, 142094, Note_on_c, 9, 45, 0
1, 142095, Note_on_c, 9, 42, 126
1, 142319, Note_on_c, 9, 42, 0
1, 142559, Note_on_c, 9, 35, 0
1, 144000, Note_on_c, 9, 49, 120
1, 144000, Note_on_c, 9, 35, 127
1, 144224, Note_on_c, 9, 49, 0
1, 144225, Note_on_c, 9, 70, 110
1, 144240, Note_on_c, 9, 42, 101
1, 144359, Note_on_c, 9, 70, 0
1, 144359, Note_on_c, 9, 42, 0
1, 144360, Note_on_c, 9, 69, 78
1, 144479, Note_on_c, 9, 35, 0
1, 144479, Note_on_c, 9, 69, 0
1, 144480, Note_on_c, 9, 38, 127
1, 144480, Note_on_c, 9, 42, 83
1, 144719, Note_on_c, 9, 38, 0
1, 144719, Note_on_c, 9, 42, 0
1, 144720, Note_on_c, 9, 70, 105
1, 144734, Note_on_c, 9, 70, 0
1, 144735, Note_on_c, 9, 42, 81
1, 144779, Note_on_c, 9, 42, 0
1, 144840, Note_on_c, 9, 69, 70
1, 144959, Note_on_c, 9, 69, 0
1, 144960, Note_on_c, 9, 42, 126
1, 144960, Note_on_c, 9, 35, 127
1, 145184, Note_on_c, 9, 42, 0
1, 145185, Note_on_c, 9, 70, 109
1, 145185, Note_on_c, 9, 75, 115
1, 145200, Note_on_c, 9, 42, 105
1, 145319, Note_on_c, 9, 70, 0
1, 145319, Note_on_c, 9, 75, 0
1, 145319, Note_on_c, 9, 42, 0
1, 145320, Note_on_c, 9, 69, 79
1, 145439, Note_on_c, 9, 35, 0
1, 145439, Note_on_c, 9, 69, 0
1, 145440, Note_on_c, 9, 38, 127
1, 145440, Note_on_c, 9, 42, 81
1, 145664, Note_on_c, 9, 38, 0
1, 145664, Note_on_c, 9, 42, 0
1, 145665, Note_on_c, 9, 70, 109
1, 145680, Note_on_c, 9, 42, 92
1, 145799, Note_on_c, 9, 70, 0
1, 145799, Note_on_c, 9, 42, 0
1, 145800, Note_on_c, 9, 69, 75
1, 145919, Note_on_c, 9, 69, 0
1, 145920, Note_on_c, 9, 42, 127
1, 145920, Note_on_c, 9, 35, 127
1, 146144, Note_on_c, 9, 42, 0
1, 146145, Note_on_c, 9, 70, 115
1, 146160, Note_on_c, 9, 42, 104
1, 146279, Note_on_c, 9, 70, 0
1, 146279, Note_on_c, 9, 42, 0
1, 146280, Note_on_c, 9, 69, 81
1, 146399, Note_on_c, 9, 35, 0
1, 146399, Note_on_c, 9, 69, 0
1, 146400, Note_on_c, 9, 38, 127
1, 146400, Note_on_c, 9, 42, 78
1, 146639, Note_on_c, 9, 38, 0
1, 146639, Note_on_c, 9, 42, 0
1, 146640, Note_on_c, 9, 70, 110
1, 146654, Note_on_c, 9, 70, 0
1, 146655, Note_on_c, 9, 42, 89
1, 146699, Note_on_c, 9, 42, 0
1, 146760, Note_on_c, 9, 69, 78
1, 146879, Note_on_c, 9, 69, 0
1, 146880, Note_on_c, 9, 42, 120
1, 146880, Note_on_c, 9, 35, 127
1, 147119, Note_on_c, 9, 42, 0
1, 147120, Note_on_c, 9, 70, 108
1, 147120, Note_on_c, 9, 75, 102
1, 147120, Note_on_c, 9, 42, 100
1, 147239, Note_on_c, 9, 70, 0
1, 147239, Note_on_c, 9, 75, 0
1, 147239, Note_on_c, 9, 42, 0
1, 147240, Note_on_c, 9, 69, 78
1, 147359, Note_on_c, 9, 35, 0
1, 147359, Note_on_c, 9, 69, 0
1, 147360, Note_on_c, 9, 38, 127
1, 147360, Note_on_c, 9, 42, 94
1, 147599, Note_on_c, 9, 38, 0
1, 147599, Note_on_c, 9, 42, 0
1, 147600, Note_on_c, 9, 70, 113
1, 147600, Note_on_c, 9, 42, 87
1, 147719, Note_on_c, 9, 70, 0
1, 147719, Note_on_c, 9, 42, 0
1, 147720, Note_on_c, 9, 69, 82
1, 147839, Note_on_c, 9, 69, 0
1, 147840, Note_on_c, 9, 42, 120
1, 147840, Note_on_c, 9, 35, 127
1, 148079, Note_on_c, 9, 42, 0
1, 148080, Note_on_c, 9, 70, 107
1, 148080, Note_on_c, 9, 42, 100
1, 148199, Note_on_c, 9, 70, 0
1, 148199, Note_on_c, 9, 42, 0
1, 148200, Note_on_c, 9, 69, 76
1, 148319, Note_on_c, 9, 35, 0
1, 148319, Note_on_c, 9, 69, 0
1, 148320, Note_on_c, 9, 38, 127
1, 148320, Note_on_c, 9, 42, 68
1, 148559, Note_on_c, 9, 38, 0
1, 148559, Note_on_c, 9, 42, 0
1, 148560, Note_on_c, 9, 70, 109
1, 148560, Note_on_c, 9, 42, 100
1, 148679, Note_on_c, 9, 70, 0
1, 148679, Note_on_c, 9, 42, 0
1, 148680, Note_on_c, 9, 69, 75
1, 148799, Note_on_c, 9, 69, 0
1, 148800, Note_on_c, 9, 42, 122
1, 148800, Note_on_c, 9, 35, 127
1, 149039, Note_on_c, 9, 42, 0
1, 149040, Note_on_c, 9, 75, 102
1, 149054, Note_on_c, 9, 75, 0
1, 149055, Note_on_c, 9, 70, 112
1, 149055, Note_on_c, 9, 42, 101
1, 149099, Note_on_c, 9, 70, 0
1, 149099, Note_on_c, 9, 42, 0
1, 149160, Note_on_c, 9, 69, 72
1, 149279, Note_on_c, 9, 35, 0
1, 149279, Note_on_c, 9, 69, 0
1, 149280, Note_on_c, 9, 38, 127
1, 149280, Note_on_c, 9, 42, 81
1, 149519, Note_on_c, 9, 38, 0
1, 149519, Note_on_c, 9, 42, 0
1, 149520, Note_on_c, 9, 70, 110
1, 149520, Note_on_c, 9, 42, 91
1, 149639, Note_on_c, 9, 70, 0
1, 149639, Note_on_c, 9, 42, 0
1, 149640, Note_on_c, 9, 69, 78
1, 149759, Note_on_c, 9, 69, 0
1, 149760, Note_on_c, 9, 42, 126
1, 149760, Note_on_c, 9, 35, 127
1, 149999, Note_on_c, 9, 42, 0
1, 150000, Note_on_c, 9, 70, 107
1, 150000, Note_on_c, 9, 42, 105
1, 150119, Note_on_c, 9, 70, 0
1, 150119, Note_on_c, 9, 42, 0
1, 150120, Note_on_c, 9, 69, 73
1, 150239, Note_on_c, 9, 35, 0
1, 150239, Note_on_c, 9, 69, 0
1, 150240, Note_on_c, 9, 38, 127
1, 150240, Note_on_c, 9, 42, 77
1, 150479, Note_on_c, 9, 38, 0
1, 150479, Note_on_c, 9, 42, 0
1, 150480, Note_on_c, 9, 70, 113
1, 150480, Note_on_c, 9, 42, 82
1, 150599, Note_on_c, 9, 70, 0
1, 150599, Note_on_c, 9, 42, 0
1, 150600, Note_on_c, 9, 69, 79
1, 150719, Note_on_c, 9, 69, 0
1, 150720, Note_on_c, 9, 42, 122
1, 150720, Note_on_c, 9, 35, 127
1, 150944, Note_on_c, 9, 42, 0
1, 150945, Note_on_c, 9, 70, 109
1, 150945, Note_on_c, 9, 42, 106
1, 150960, Note_on_c, 9, 75, 105
1, 151079, Note_on_c, 9, 70, 0
1, 151079, Note_on_c, 9, 42, 0
1, 151079, Note_on_c, 9, 75, 0
1, 151080, Note_on_c, 9, 69, 78
1, 151169, Note_on_c, 9, 69, 0
1, 151185, Note_on_c, 9, 38, 127
1, 151199, Note_on_c, 9, 35, 0
1, 151200, Note_on_c, 9, 42, 96
1, 151424, Note_on_c, 9, 38, 0
1, 151424, Note_on_c, 9, 42, 0
1, 151425, Note_on_c, 9, 38, 127
1, 151440, Note_on_c, 9, 70, 113
1, 151440, Note_on_c, 9, 42, 76
1, 151559, Note_on_c, 9, 38, 0
1, 151559, Note_on_c, 9, 70, 0
1, 151559, Note_on_c, 9, 42, 0
1, 151560, Note_on_c, 9, 69, 81
1, 151679, Note_on_c, 9, 69, 0
1, 151680, Note_on_c, 9, 57, 117
1, 151680, Note_on_c, 9, 35, 127
1, 151919, Note_on_c, 9, 57, 0
1, 151920, Note_on_c, 9, 70, 108
1, 151920, Note_on_c, 9, 42, 112
1, 152039, Note_on_c, 9, 70, 0
1, 152039, Note_on_c, 9, 42, 0
1, 152040, Note_on_c, 9, 69, 77
1, 152159, Note_on_c, 9, 35, 0
1, 152159, Note_on_c, 9, 69, 0
1, 152160, Note_on_c, 9, 38, 127
1, 152160, Note_on_c, 9, 42, 83
1, 152399, Note_on_c, 9, 38, 0
1, 152399, Note_on_c, 9, 42, 0
1, 152400, Note_on_c, 9, 70, 112
1, 152400, Note_on_c, 9, 42, 81
1, 152519, Note_on_c, 9, 70, 0
1, 152519, Note_on_c, 9, 42, 0
1, 152520, Note_on_c, 9, 69, 81
1, 152639, Note_on_c, 9, 69, 0
1, 152640, Note_on_c, 9, 42, 126
1, 152640, Note_on_c, 9, 35, 127
1, 152879, Note_on_c, 9, 42, 0
1, 152880, Note_on_c, 9, 75, 95
1, 152894, Note_on_c, 9, 75, 0
1, 152895, Note_on_c, 9, 70, 112
1, 152895, Note_on_c, 9, 42, 105
1, 152939, Note_on_c, 9, 70, 0
1, 152939, Note_on_c, 9, 42, 0
1, 153000, Note_on_c, 9, 69, 80
1, 153119, Note_on_c, 9, 35, 0
1, 153119, Note_on_c, 9, 69, 0
1, 153120, Note_on_c, 9, 38, 127
1, 153120, Note_on_c, 9, 42, 81
1, 153359, Note_on_c, 9, 38, 0
1, 153359, Note_on_c, 9, 42, 0
1, 153360, Note_on_c, 9, 70, 108
1, 153360, Note_on_c, 9, 42, 92
1, 153479, Note_on_c, 9, 70, 0
1, 153479, Note_on_c, 9, 42, 0
1, 153480, Note_on_c, 9, 69, 78
1, 153599, Note_on_c, 9, 69, 0
1, 153600, Note_on_c, 9, 42, 127
1, 153600, Note_on_c, 9, 35, 127
1, 153839, Note_on_c, 9, 42, 0
1, 153840, Note_on_c, 9, 70, 110
1, 153840, Note_on_c, 9, 42, 104
1, 153959, Note_on_c, 9, 70, 0
1, 153959, Note_on_c, 9, 42, 0
1, 153960, Note_on_c, 9, 69, 75
1, 154079, Note_on_c, 9, 35, 0
1, 154079, Note_on_c, 9, 69, 0
1, 154080, Note_on_c, 9, 38, 127
1, 154080, Note_on_c, 9, 42, 78
1, 154319, Note_on_c, 9, 38, 0
1, 154319, Note_on_c, 9, 42, 0
1, 154320, Note_on_c, 9, 70, 112
1, 154320, Note_on_c, 9, 42, 89
1, 154439, Note_on_c, 9, 70, 0
1, 154439, Note_on_c, 9, 42, 0
1, 154440, Note_on_c, 9, 69, 82
1, 154559, Note_on_c, 9, 69, 0
1, 154560, Note_on_c, 9, 42, 120
1, 154560, Note_on_c, 9, 35, 127
1, 154784, Note_on_c, 9, 42, 0
1, 154785, Note_on_c, 9, 70, 113
1, 154785, Note_on_c, 9, 42, 100
1, 154800, Note_on_c, 9, 75, 101
1, 154919, Note_on_c, 9, 70, 0
1, 154919, Note_on_c, 9, 42, 0
1, 154919, Note_on_c, 9, 75, 0
1, 154920, Note_on_c, 9, 69, 74
1, 155039, Note_on_c, 9, 35, 0
1, 155039, Note_on_c, 9, 69, 0
1, 155040, Note_on_c, 9, 38, 127
1, 155040, Note_on_c, 9, 42, 94
1, 155279, Note_on_c, 9, 38, 0
1, 155279, Note_on_c, 9, 42, 0
1, 155280, Note_on_c, 9, 70, 113
1, 155280, Note_on_c, 9, 42, 87
1, 155399, Note_on_c, 9, 70, 0
1, 155399, Note_on_c, 9, 42, 0
1, 155400, Note_on_c, 9, 69, 78
1, 155519, Note_on_c, 9, 69, 0
1, 155520, Note_on_c, 9, 42, 120
1, 155520, Note_on_c, 9, 35, 127
1, 155759, Note_on_c, 9, 42, 0
1, 155760, Note_on_c, 9, 70, 107
1, 155760, Note_on_c, 9, 42, 100
1, 155879, Note_on_c, 9, 70, 0
1, 155879, Note_on_c, 9, 42, 0
1, 155880, Note_on_c, 9, 69, 76
1, 155999, Note_on_c, 9, 35, 0
1, 155999, Note_on_c, 9, 69, 0
1, 156000, Note_on_c, 9, 38, 127
1, 156000, Note_on_c, 9, 42, 68
1, 156239, Note_on_c, 9, 38, 0
1, 156239, Note_on_c, 9, 42, 0
1, 156240, Note_on_c, 9, 70, 109
1, 156240, Note_on_c, 9, 42, 100
1, 156359, Note_on_c, 9, 70, 0
1, 156359, Note_on_c, 9, 42, 0
1, 156360, Note_on_c, 9, 69, 75
1, 156479, Note_on_c, 9, 69, 0
1, 156480, Note_on_c, 9, 42, 122
1, 156480, Note_on_c, 9, 35, 127
1, 156719, Note_on_c, 9, 42, 0
1, 156720, Note_on_c, 9, 75, 102
1, 156734, Note_on_c, 9, 75, 0
1, 156735, Note_on_c, 9, 70, 112
1, 156735, Note_on_c, 9, 42, 101
1, 156779, Note_on_c, 9, 70, 0
1, 156779, Note_on_c, 9, 42, 0
1, 156840, Note_on_c, 9, 69, 72
1, 156959, Note_on_c, 9, 35, 0
1, 156959, Note_on_c, 9, 69, 0
1, 156960, Note_on_c, 9, 38, 127
1, 156960, Note_on_c, 9, 42, 81
1, 157199, Note_on_c, 9, 38, 0
1, 157199, Note_on_c, 9, 42, 0
1, 157200, Note_on_c, 9, 70, 110
1, 157200, Note_on_c, 9, 42, 91
1, 157319, Note_on_c, 9, 70, 0
1, 157319, Note_on_c, 9, 42, 0
1, 157320, Note_on_c, 9, 69, 78
1, 157439, Note_on_c, 9, 69, 0
1, 157440, Note_on_c, 9, 57, 125
1, 157440, Note_on_c, 9, 35, 127
1, 157679, Note_on_c, 9, 57, 0
1, 157680, Note_on_c, 9, 70, 107
1, 157680, Note_on_c, 9, 42, 105
1, 157799, Note_on_c, 9, 70, 0
1, 157799, Note_on_c, 9, 42, 0
1, 157800, Note_on_c, 9, 69, 73
1, 157919, Note_on_c, 9, 35, 0
1, 157919, Note_on_c, 9, 69, 0
1, 157920, Note_on_c, 9, 38, 127
1, 157920, Note_on_c, 9, 42, 77
1, 158159, Note_on_c, 9, 38, 0
1, 158159, Note_on_c, 9, 42, 0
1, 158160, Note_on_c, 9, 65, 69
1, 158160, Note_on_c, 9, 70, 113
1, 158160, Note_on_c, 9, 42, 82
1, 158249, Note_on_c, 9, 65, 0
1, 158249, Note_on_c, 9, 70, 0
1, 158249, Note_on_c, 9, 42, 0
1, 158265, Note_on_c, 9, 65, 118
1, 158280, Note_on_c, 9, 69, 79
1, 158369, Note_on_c, 9, 65, 0
1, 158369, Note_on_c, 9, 69, 0
1, 158385, Note_on_c, 9, 65, 127
1, 158400, Note_on_c, 9, 42, 122
1, 158400, Note_on_c, 9, 35, 127
1, 158624, Note_on_c, 9, 65, 0
1, 158624, Note_on_c, 9, 42, 0
1, 158625, Note_on_c, 9, 70, 109
1, 158625, Note_on_c, 9, 42, 106
1, 158640, Note_on_c, 9, 75, 105
1, 158759, Note_on_c, 9, 70, 0
1, 158759, Note_on_c, 9, 42, 0
1, 158759, Note_on_c, 9, 75, 0
1, 158760, Note_on_c, 9, 65, 88
1, 158760, Note_on_c, 9, 69, 78
1, 158849, Note_on_c, 9, 65, 0
1, 158849, Note_on_c, 9, 69, 0
1, 158865, Note_on_c, 9, 65, 117
1, 158879, Note_on_c, 9, 35, 0
1, 158880, Note_on_c, 9, 38, 127
1, 158880, Note_on_c, 9, 42, 96
1, 158999, Note_on_c, 9, 65, 0
1, 158999, Note_on_c, 9, 38, 0
1, 158999, Note_on_c, 9, 42, 0
1, 159000, Note_on_c, 9, 65, 127
1, 159089, Note_on_c, 9, 65, 0
1, 159105, Note_on_c, 9, 65, 127
1, 159120, Note_on_c, 9, 70, 113
1, 159120, Note_on_c, 9, 42, 76
1, 159239, Note_on_c, 9, 65, 0
1, 159239, Note_on_c, 9, 70, 0
1, 159239, Note_on_c, 9, 42, 0
1, 159240, Note_on_c, 9, 69, 81
1, 159359, Note_on_c, 9, 69, 0
1, 159360, Note_on_c, 9, 42, 120
1, 159360, Note_on_c, 9, 35, 127
1, 159599, Note_on_c, 9, 42, 0
1, 159600, Note_on_c, 9, 70, 108
1, 159600, Note_on_c, 9, 42, 101
1, 159719, Note_on_c, 9, 70, 0
1, 159719, Note_on_c, 9, 42, 0
1, 159720, Note_on_c, 9, 69, 77
1, 159839, Note_on_c, 9, 35, 0
1, 159839, Note_on_c, 9, 69, 0
1, 159840, Note_on_c, 9, 38, 127
1, 159840, Note_on_c, 9, 42, 83
1, 160079, Note_on_c, 9, 38, 0
1, 160079, Note_on_c, 9, 42, 0
1, 160080, Note_on_c, 9, 70, 112
1, 160080, Note_on_c, 9, 42, 81
1, 160199, Note_on_c, 9, 70, 0
1, 160199, Note_on_c, 9, 42, 0
1, 160200, Note_on_c, 9, 69, 81
1, 160319, Note_on_c, 9, 69, 0
1, 160320, Note_on_c, 9, 42, 126
1, 160320, Note_on_c, 9, 35, 127
1, 160559, Note_on_c, 9, 42, 0
1, 160560, Note_on_c, 9, 75, 95
1, 160574, Note_on_c, 9, 75, 0
1, 160575, Note_on_c, 9, 70, 112
1, 160575, Note_on_c, 9, 42, 105
1, 160619, Note_on_c, 9, 70, 0
1, 160619, Note_on_c, 9, 42, 0
1, 160680, Note_on_c, 9, 69, 80
1, 160799, Note_on_c, 9, 35, 0
1, 160799, Note_on_c, 9, 69, 0
1, 160800, Note_on_c, 9, 38, 127
1, 160800, Note_on_c, 9, 42, 81
1, 161039, Note_on_c, 9, 38, 0
1, 161039, Note_on_c, 9, 42, 0
1, 161040, Note_on_c, 9, 70, 108
1, 161040, Note_on_c, 9, 42, 92
1, 161159, Note_on_c, 9, 70, 0
1, 161159, Note_on_c, 9, 42, 0
1, 161160, Note_on_c, 9, 69, 78
1, 161279, Note_on_c, 9, 69, 0
1, 161280, Note_on_c, 9, 42, 127
1, 161280, Note_on_c, 9, 35, 127
1, 161519, Note_on_c, 9, 42, 0
1, 161520, Note_on_c, 9, 70, 110
1, 161520, Note_on_c, 9, 42, 104
1, 161639, Note_on_c, 9, 70, 0
1, 161639, Note_on_c, 9, 42, 0
1, 161640, Note_on_c, 9, 69, 75
1, 161759, Note_on_c, 9, 35, 0
1, 161759, Note_on_c, 9, 69, 0
1, 161760, Note_on_c, 9, 38, 127
1, 161760, Note_on_c, 9, 42, 78
1, 161999, Note_on_c, 9, 38, 0
1, 161999, Note_on_c, 9, 42, 0
1, 162000, Note_on_c, 9, 70, 112
1, 162000, Note_on_c, 9, 42, 89
1, 162119, Note_on_c, 9, 70, 0
1, 162119, Note_on_c, 9, 42, 0
1, 162120, Note_on_c, 9, 69, 82
1, 162239, Note_on_c, 9, 69, 0
1, 162240, Note_on_c, 9, 42, 120
1, 162240, Note_on_c, 9, 35, 127
1, 162464, Note_on_c, 9, 42, 0
1, 162465, Note_on_c, 9, 70, 113
1, 162465, Note_on_c, 9, 42, 100
1, 162480, Note_on_c, 9, 75, 101
1, 162599, Note_on_c, 9, 70, 0
1, 162599, Note_on_c, 9, 42, 0
1, 162599, Note_on_c, 9, 75, 0
1, 162600, Note_on_c, 9, 69, 74
1, 162719, Note_on_c, 9, 35, 0
1, 162719, Note_on_c, 9, 69, 0
1, 162720, Note_on_c, 9, 38, 127
1, 162720, Note_on_c, 9, 42, 94
1, 162959, Note_on_c, 9, 38, 0
1, 162959, Note_on_c, 9, 42, 0
1, 162960, Note_on_c, 9, 70, 113
1, 162960, Note_on_c, 9, 42, 87
1, 163079, Note_on_c, 9, 70, 0
1, 163079, Note_on_c, 9, 42, 0
1, 163080, Note_on_c, 9, 69, 78
1, 163199, Note_on_c, 9, 69, 0
1, 163200, Note_on_c, 9, 42, 120
1, 163200, Note_on_c, 9, 35, 127
1, 163439, Note_on_c, 9, 42, 0
1, 163440, Note_on_c, 9, 70, 107
1, 163440, Note_on_c, 9, 42, 100
1, 163559, Note_on_c, 9, 70, 0
1, 163559, Note_on_c, 9, 42, 0
1, 163560, Note_on_c, 9, 69, 76
1, 163679, Note_on_c, 9, 35, 0
1, 163679, Note_on_c, 9, 69, 0
1, 163680, Note_on_c, 9, 38, 127
1, 163680, Note_on_c, 9, 42, 68
1, 163919, Note_on_c, 9, 38, 0
1, 163919, Note_on_c, 9, 42, 0
1, 163920, Note_on_c, 9, 70, 109
1, 163920, Note_on_c, 9, 42, 100
1, 164039, Note_on_c, 9, 70, 0
1, 164039, Note_on_c, 9, 42, 0
1, 164040, Note_on_c, 9, 69, 75
1, 164159, Note_on_c, 9, 69, 0
1, 164160, Note_on_c, 9, 42, 122
1, 164160, Note_on_c, 9, 35, 127
1, 164399, Note_on_c, 9, 42, 0
1, 164400, Note_on_c, 9, 75, 102
1, 164414, Note_on_c, 9, 75, 0
1, 164415, Note_on_c, 9, 70, 112
1, 164415, Note_on_c, 9, 42, 101
1, 164459, Note_on_c, 9, 70, 0
1, 164459, Note_on_c, 9, 42, 0
1, 164520, Note_on_c, 9, 69, 72
1, 164639, Note_on_c, 9, 35, 0
1, 164639, Note_on_c, 9, 69, 0
1, 164640, Note_on_c, 9, 38, 127
1, 164640, Note_on_c, 9, 42, 81
1, 164879, Note_on_c, 9, 38, 0
1, 164879, Note_on_c, 9, 42, 0
1, 164880, Note_on_c, 9, 70, 110
1, 164880, Note_on_c, 9, 42, 91
1, 164999, Note_on_c, 9, 70, 0
1, 164999, Note_on_c, 9, 42, 0
1, 165000, Note_on_c, 9, 69, 78
1, 165119, Note_on_c, 9, 69, 0
1, 165120, Note_on_c, 9, 42, 126
1, 165120, Note_on_c, 9, 35, 127
1, 165359, Note_on_c, 9, 42, 0
1, 165360, Note_on_c, 9, 70, 107
1, 165360, Note_on_c, 9, 42, 105
1, 165479, Note_on_c, 9, 70, 0
1, 165479, Note_on_c, 9, 42, 0
1, 165480, Note_on_c, 9, 69, 73
1, 165599, Note_on_c, 9, 35, 0
1, 165599, Note_on_c, 9, 69, 0
1, 165600, Note_on_c, 9, 38, 127
1, 165600, Note_on_c, 9, 42, 77
1, 165839, Note_on_c, 9, 38, 0
1, 165839, Note_on_c, 9, 42, 0
1, 165840, Note_on_c, 9, 70, 113
1, 165840, Note_on_c, 9, 42, 82
1, 165959, Note_on_c, 9, 70, 0
1, 165959, Note_on_c, 9, 42, 0
1, 165960, Note_on_c, 9, 69, 79
1, 166079, Note_on_c, 9, 69, 0
1, 166080, Note_on_c, 9, 42, 122
1, 166080, Note_on_c, 9, 35, 127
1, 166304, Note_on_c, 9, 42, 0
1, 166305, Note_on_c, 9, 70, 109
1, 166305, Note_on_c, 9, 42, 106
1, 166320, Note_on_c, 9, 75, 105
1, 166439, Note_on_c, 9, 70, 0
1, 166439, Note_on_c, 9, 42, 0
1, 166439, Note_on_c, 9, 75, 0
1, 166440, Note_on_c, 9, 69, 78
1, 166559, Note_on_c, 9, 35, 0
1, 166559, Note_on_c, 9, 69, 0
1, 166560, Note_on_c, 9, 38, 127
1, 166560, Note_on_c, 9, 42, 96
1, 166799, Note_on_c, 9, 38, 0
1, 166799, Note_on_c, 9, 42, 0
1, 166800, Note_on_c, 9, 70, 113
1, 166800, Note_on_c, 9, 42, 76
1, 166919, Note_on_c, 9, 70, 0
1, 166919, Note_on_c, 9, 42, 0
1, 166920, Note_on_c, 9, 69, 81
1, 167039, Note_on_c, 9, 69, 0
1, 167040, Note_on_c, 9, 49, 127
1, 167040, Note_on_c, 9, 35, 127
1, 167279, Note_on_c, 9, 49, 0
1, 167280, Note_on_c, 9, 70, 108
1, 167280, Note_on_c, 9, 42, 101
1, 167399, Note_on_c, 9, 70, 0
1, 167399, Note_on_c, 9, 42, 0
1, 167400, Note_on_c, 9, 69, 77
1, 167519, Note_on_c, 9, 35, 0
1, 167519, Note_on_c, 9, 69, 0
1, 167520, Note_on_c, 9, 38, 127
1, 167520, Note_on_c, 9, 42, 83
1, 167759, Note_on_c, 9, 38, 0
1, 167759, Note_on_c, 9, 42, 0
1, 167760, Note_on_c, 9, 70, 112
1, 167760, Note_on_c, 9, 42, 81
1, 167879, Note_on_c, 9, 70, 0
1, 167879, Note_on_c, 9, 42, 0
1, 167880, Note_on_c, 9, 69, 81
1, 167999, Note_on_c, 9, 69, 0
1, 168000, Note_on_c, 9, 42, 126
1, 168000, Note_on_c, 9, 35, 127
1, 168239, Note_on_c, 9, 42, 0
1, 168240, Note_on_c, 9, 75, 95
1, 168254, Note_on_c, 9, 75, 0
1, 168255, Note_on_c, 9, 70, 112
1, 168255, Note_on_c, 9, 42, 105
1, 168299, Note_on_c, 9, 70, 0
1, 168299, Note_on_c, 9, 42, 0
1, 168360, Note_on_c, 9, 69, 80
1, 168479, Note_on_c, 9, 35, 0
1, 168479, Note_on_c, 9, 69, 0
1, 168480, Note_on_c, 9, 38, 127
1, 168480, Note_on_c, 9, 42, 81
1, 168719, Note_on_c, 9, 38, 0
1, 168719, Note_on_c, 9, 42, 0
1, 168720, Note_on_c, 9, 70, 108
1, 168720, Note_on_c, 9, 42, 92
1, 168839, Note_on_c, 9, 70, 0
1, 168839, Note_on_c, 9, 42, 0
1, 168840, Note_on_c, 9, 69, 78
1, 168959, Note_on_c, 9, 69, 0
1, 168960, Note_on_c, 9, 42, 127
1, 168960, Note_on_c, 9, 35, 127
1, 169199, Note_on_c, 9, 42, 0
1, 169200, Note_on_c, 9, 70, 110
1, 169200, Note_on_c, 9, 42, 104
1, 169319, Note_on_c, 9, 70, 0
1, 169319, Note_on_c, 9, 42, 0
1, 169320, Note_on_c, 9, 69, 75
1, 169439, Note_on_c, 9, 35, 0
1, 169439, Note_on_c, 9, 69, 0
1, 169440, Note_on_c, 9, 38, 127
1, 169440, Note_on_c, 9, 42, 78
1, 169679, Note_on_c, 9, 38, 0
1, 169679, Note_on_c, 9, 42, 0
1, 169680, Note_on_c, 9, 70, 112
1, 169680, Note_on_c, 9, 42, 89
1, 169799, Note_on_c, 9, 70, 0
1, 169799, Note_on_c, 9, 42, 0
1, 169800, Note_on_c, 9, 69, 82
1, 169919, Note_on_c, 9, 69, 0
1, 169920, Note_on_c, 9, 42, 120
1, 169920, Note_on_c, 9, 35, 127
1, 170144, Note_on_c, 9, 42, 0
1, 170145, Note_on_c, 9, 70, 113
1, 170145, Note_on_c, 9, 42, 100
1, 170160, Note_on_c, 9, 75, 101
1, 170279, Note_on_c, 9, 70, 0
1, 170279, Note_on_c, 9, 42, 0
1, 170279, Note_on_c, 9, 75, 0
1, 170280, Note_on_c, 9, 69, 74
1, 170399, Note_on_c, 9, 35, 0
1, 170399, Note_on_c, 9, 69, 0
1, 170400, Note_on_c, 9, 38, 127
1, 170400, Note_on_c, 9, 42, 94
1, 170639, Note_on_c, 9, 38, 0
1, 170639, Note_on_c, 9, 42, 0
1, 170640, Note_on_c, 9, 70, 113
1, 170640, Note_on_c, 9, 42, 87
1, 170759, Note_on_c, 9, 70, 0
1, 170759, Note_on_c, 9, 42, 0
1, 170760, Note_on_c, 9, 69, 78
1, 170879, Note_on_c, 9, 69, 0
1, 170880, Note_on_c, 9, 42, 120
1, 170880, Note_on_c, 9, 35, 127
1, 171119, Note_on_c, 9, 42, 0
1, 171120, Note_on_c, 9, 70, 107
1, 171120, Note_on_c, 9, 42, 100
1, 171239, Note_on_c, 9, 70, 0
1, 171239, Note_on_c, 9, 42, 0
1, 171240, Note_on_c, 9, 69, 76
1, 171359, Note_on_c, 9, 35, 0
1, 171359, Note_on_c, 9, 69, 0
1, 171360, Note_on_c, 9, 38, 127
1, 171360, Note_on_c, 9, 42, 68
1, 171599, Note_on_c, 9, 38, 0
1, 171599, Note_on_c, 9, 42, 0
1, 171600, Note_on_c, 9, 70, 109
1, 171600, Note_on_c, 9, 42, 100
1, 171719, Note_on_c, 9, 70, 0
1, 171719, Note_on_c, 9, 42, 0
1, 171720, Note_on_c, 9, 69, 75
1, 171839, Note_on_c, 9, 69, 0
1, 171840, Note_on_c, 9, 42, 122
1, 171840, Note_on_c, 9, 35, 127
1, 172079, Note_on_c, 9, 42, 0
1, 172080, Note_on_c, 9, 75, 102
1, 172094, Note_on_c, 9, 75, 0
1, 172095, Note_on_c, 9, 70, 112
1, 172095, Note_on_c, 9, 42, 101
1, 172139, Note_on_c, 9, 70, 0
1, 172139, Note_on_c, 9, 42, 0
1, 172200, Note_on_c, 9, 69, 72
1, 172319, Note_on_c, 9, 35, 0
1, 172319, Note_on_c, 9, 69, 0
1, 172320, Note_on_c, 9, 38, 127
1, 172320, Note_on_c, 9, 42, 81
1, 172559, Note_on_c, 9, 38, 0
1, 172559, Note_on_c, 9, 42, 0
1, 172560, Note_on_c, 9, 70, 110
1, 172560, Note_on_c, 9, 42, 91
1, 172679, Note_on_c, 9, 70, 0
1, 172679, Note_on_c, 9, 42, 0
1, 172680, Note_on_c, 9, 69, 78
1, 172799, Note_on_c, 9, 69, 0
1, 172800, Note_on_c, 9, 42, 126
1, 172800, Note_on_c, 9, 35, 127
1, 173039, Note_on_c, 9, 42, 0
1, 173040, Note_on_c, 9, 70, 107
1, 173040, Note_on_c, 9, 42, 105
1, 173159, Note_on_c, 9, 70, 0
1, 173159, Note_on_c, 9, 42, 0
1, 173160, Note_on_c, 9, 69, 73
1, 173279, Note_on_c, 9, 35, 0
1, 173279, Note_on_c, 9, 69, 0
1, 173280, Note_on_c, 9, 38, 127
1, 173280, Note_on_c, 9, 42, 77
1, 173519, Note_on_c, 9, 38, 0
1, 173519, Note_on_c, 9, 42, 0
1, 173520, Note_on_c, 9, 65, 69
1, 173520, Note_on_c, 9, 70, 113
1, 173520, Note_on_c, 9, 42, 82
1, 173609, Note_on_c, 9, 65, 0
1, 173609, Note_on_c, 9, 70, 0
1, 173609, Note_on_c, 9, 42, 0
1, 173625, Note_on_c, 9, 65, 118
1, 173640, Note_on_c, 9, 69, 79
1, 173729, Note_on_c, 9, 65, 0
1, 173729, Note_on_c, 9, 69, 0
1, 173745, Note_on_c, 9, 65, 127
1, 173760, Note_on_c, 9, 42, 122
1, 173760, Note_on_c, 9, 35, 127
1, 173984, Note_on_c, 9, 65, 0
1, 173984, Note_on_c, 9, 42, 0
1, 173985, Note_on_c, 9, 70, 109
1, 173985, Note_on_c, 9, 42, 106
1, 174000, Note_on_c, 9, 75, 105
1, 174119, Note_on_c, 9, 70, 0
1, 174119, Note_on_c, 9, 42, 0
1, 174119, Note_on_c, 9, 75, 0
1, 174120, Note_on_c, 9, 65, 88
1, 174120, Note_on_c, 9, 69, 78
1, 174209, Note_on_c, 9, 65, 0
1, 174209, Note_on_c, 9, 69, 0
1, 174225, Note_on_c, 9, 65, 117
1, 174239, Note_on_c, 9, 35, 0
1, 174240, Note_on_c, 9, 38, 127
1, 174240, Note_on_c, 9, 42, 96
1, 174359, Note_on_c, 9, 65, 0
1, 174359, Note_on_c, 9, 38, 0
1, 174359, Note_on_c, 9, 42, 0
1, 174360, Note_on_c, 9, 65, 127
1, 174449, Note_on_c, 9, 65, 0
1, 174465, Note_on_c, 9, 65, 127
1, 174480, Note_on_c, 9, 70, 113
1, 174480, Note_on_c, 9, 42, 76
1, 174599, Note_on_c, 9, 65, 0
1, 174599, Note_on_c, 9, 70, 0
1, 174599, Note_on_c, 9, 42, 0
1, 174600, Note_on_c, 9, 69, 81
1, 174719, Note_on_c, 9, 69, 0
1, 174720, Note_on_c, 9, 55, 127
1, 174720, Note_on_c, 9, 35, 127
1, 174959, Note_on_c, 9, 55, 0
1, 174960, Note_on_c, 9, 70, 108
1, 174960, Note_on_c, 9, 42, 101
1, 175079, Note_on_c, 9, 70, 0
1, 175079, Note_on_c, 9, 42, 0
1, 175080, Note_on_c, 9, 69, 77
1, 175199, Note_on_c, 9, 35, 0
1, 175199, Note_on_c, 9, 69, 0
1, 175200, Note_on_c, 9, 38, 127
1, 175200, Note_on_c, 9, 42, 83
1, 175439, Note_on_c, 9, 38, 0
1, 175439, Note_on_c, 9, 42, 0
1, 175440, Note_on_c, 9, 70, 112
1, 175440, Note_on_c, 9, 42, 81
1, 175559, Note_on_c, 9, 70, 0
1, 175559, Note_on_c, 9, 42, 0
1, 175560, Note_on_c, 9, 69, 81
1, 175679, Note_on_c, 9, 69, 0
1, 175680, Note_on_c, 9, 42, 126
1, 175680, Note_on_c, 9, 35, 127
1, 175919, Note_on_c, 9, 42, 0
1, 175920, Note_on_c, 9, 75, 95
1, 175934, Note_on_c, 9, 75, 0
1, 175935, Note_on_c, 9, 70, 112
1, 175935, Note_on_c, 9, 42, 105
1, 175979, Note_on_c, 9, 70, 0
1, 175979, Note_on_c, 9, 42, 0
1, 176040, Note_on_c, 9, 69, 80
1, 176159, Note_on_c, 9, 35, 0
1, 176159, Note_on_c, 9, 69, 0
1, 176160, Note_on_c, 9, 38, 127
1, 176160, Note_on_c, 9, 42, 81
1, 176399, Note_on_c, 9, 38, 0
1, 176399, Note_on_c, 9, 42, 0
1, 176400, Note_on_c, 9, 70, 108
1, 176400, Note_on_c, 9, 42, 92
1, 176519, Note_on_c, 9, 70, 0
1, 176519, Note_on_c, 9, 42, 0
1, 176520, Note_on_c, 9, 69, 78
1, 176639, Note_on_c, 9, 69, 0
1, 176640, Note_on_c, 9, 42, 127
1, 176640, Note_on_c, 9, 35, 127
1, 176879, Note_on_c, 9, 42, 0
1, 176880, Note_on_c, 9, 70, 110
1, 176880, Note_on_c, 9, 42, 104
1, 176999, Note_on_c, 9, 70, 0
1, 176999, Note_on_c, 9, 42, 0
1, 177000, Note_on_c, 9, 69, 75
1, 177119, Note_on_c, 9, 35, 0
1, 177119, Note_on_c, 9, 69, 0
1, 177120, Note_on_c, 9, 38, 127
1, 177120, Note_on_c, 9, 42, 78
1, 177359, Note_on_c, 9, 38, 0
1, 177359, Note_on_c, 9, 42, 0
1, 177360, Note_on_c, 9, 70, 112
1, 177360, Note_on_c, 9, 42, 89
1, 177479, Note_on_c, 9, 70, 0
1, 177479, Note_on_c, 9, 42, 0
1, 177480, Note_on_c, 9, 69, 82
1, 177599, Note_on_c, 9, 69, 0
1, 177600, Note_on_c, 9, 42, 120
1, 177600, Note_on_c, 9, 35, 127
1, 177824, Note_on_c, 9, 42, 0
1, 177825, Note_on_c, 9, 70, 113
1, 177825, Note_on_c, 9, 42, 100
1, 177840, Note_on_c, 9, 75, 101
1, 177959, Note_on_c, 9, 70, 0
1, 177959, Note_on_c, 9, 42, 0
1, 177959, Note_on_c, 9, 75, 0
1, 177960, Note_on_c, 9, 69, 74
1, 178079, Note_on_c, 9, 35, 0
1, 178079, Note_on_c, 9, 69, 0
1, 178080, Note_on_c, 9, 38, 127
1, 178080, Note_on_c, 9, 42, 94
1, 178319, Note_on_c, 9, 38, 0
1, 178319, Note_on_c, 9, 42, 0
1, 178320, Note_on_c, 9, 70, 113
1, 178320, Note_on_c, 9, 42, 87
1, 178439, Note_on_c, 9, 70, 0
1, 178439, Note_on_c, 9, 42, 0
1, 178440, Note_on_c, 9, 69, 78
1, 178559, Note_on_c, 9, 69, 0
1, 178560, Note_on_c, 9, 42, 120
1, 178560, Note_on_c, 9, 35, 127
1, 178799, Note_on_c, 9, 42, 0
1, 178800, Note_on_c, 9, 70, 107
1, 178800, Note_on_c, 9, 42, 100
1, 178919, Note_on_c, 9, 70, 0
1, 178919, Note_on_c, 9, 42, 0
1, 178920, Note_on_c, 9, 69, 76
1, 179039, Note_on_c, 9, 35, 0
1, 179039, Note_on_c, 9, 69, 0
1, 179040, Note_on_c, 9, 38, 127
1, 179040, Note_on_c, 9, 42, 68
1, 179279, Note_on_c, 9, 38, 0
1, 179279, Note_on_c, 9, 42, 0
1, 179280, Note_on_c, 9, 70, 109
1, 179280, Note_on_c, 9, 42, 100
1, 179399, Note_on_c, 9, 70, 0
1, 179399, Note_on_c, 9, 42, 0
1, 179400, Note_on_c, 9, 69, 75
1, 179519, Note_on_c, 9, 69, 0
1, 179520, Note_on_c, 9, 42, 122
1, 179520, Note_on_c, 9, 35, 127
1, 179759, Note_on_c, 9, 42, 0
1, 179760, Note_on_c, 9, 75, 102
1, 179774, Note_on_c, 9, 75, 0
1, 179775, Note_on_c, 9, 70, 112
1, 179775, Note_on_c, 9, 42, 101
1, 179819, Note_on_c, 9, 70, 0
1, 179819, Note_on_c, 9, 42, 0
1, 179880, Note_on_c, 9, 69, 72
1, 179999, Note_on_c, 9, 35, 0
1, 179999, Note_on_c, 9, 69, 0
1, 180000, Note_on_c, 9, 38, 127
1, 180000, Note_on_c, 9, 42, 81
1, 180239, Note_on_c, 9, 38, 0
1, 180239, Note_on_c, 9, 42, 0
1, 180240, Note_on_c, 9, 70, 110
1, 180240, Note_on_c, 9, 42, 91
1, 180359, Note_on_c, 9, 70, 0
1, 180359, Note_on_c, 9, 42, 0
1, 180360, Note_on_c, 9, 69, 78
1, 180479, Note_on_c, 9, 69, 0
1, 180480, Note_on_c, 9, 42, 126
1, 180480, Note_on_c, 9, 35, 127
1, 180719, Note_on_c, 9, 42, 0
1, 180720, Note_on_c, 9, 70, 107
1, 180720, Note_on_c, 9, 42, 105
1, 180839, Note_on_c, 9, 70, 0
1, 180839, Note_on_c, 9, 42, 0
1, 180840, Note_on_c, 9, 69, 73
1, 180959, Note_on_c, 9, 35, 0
1, 180959, Note_on_c, 9, 69, 0
1, 180960, Note_on_c, 9, 38, 127
1, 180960, Note_on_c, 9, 42, 77
1, 181199, Note_on_c, 9, 38, 0
1, 181199, Note_on_c, 9, 42, 0
1, 181200, Note_on_c, 9, 65, 69
1, 181200, Note_on_c, 9, 70, 113
1, 181200, Note_on_c, 9, 42, 82
1, 181289, Note_on_c, 9, 65, 0
1, 181289, Note_on_c, 9, 70, 0
1, 181289, Note_on_c, 9, 42, 0
1, 181305, Note_on_c, 9, 65, 118
1, 181320, Note_on_c, 9, 69, 79
1, 181409, Note_on_c, 9, 65, 0
1, 181409, Note_on_c, 9, 69, 0
1, 181425, Note_on_c, 9, 65, 127
1, 181440, Note_on_c, 9, 42, 122
1, 181440, Note_on_c, 9, 35, 127
1, 181664, Note_on_c, 9, 65, 0
1, 181664, Note_on_c, 9, 42, 0
1, 181665, Note_on_c, 9, 46, 106
1, 181665, Note_on_c, 9, 70, 109
1, 181680, Note_on_c, 9, 75, 105
1, 181799, Note_on_c, 9, 46, 0
1, 181799, Note_on_c, 9, 70, 0
1, 181799, Note_on_c, 9, 75, 0
1, 181800, Note_on_c, 9, 65, 88
1, 181800, Note_on_c, 9, 69, 78
1, 181889, Note_on_c, 9, 65, 0
1, 181889, Note_on_c, 9, 69, 0
1, 181905, Note_on_c, 9, 65, 117
1, 181919, Note_on_c, 9, 35, 0
1, 181920, Note_on_c, 9, 38, 127
1, 181920, Note_on_c, 9, 42, 96
1, 182039, Note_on_c, 9, 65, 0
1, 182039, Note_on_c, 9, 38, 0
1, 182039, Note_on_c, 9, 42, 0
1, 182040, Note_on_c, 9, 65, 127
1, 182129, Note_on_c, 9, 65, 0
1, 182145, Note_on_c, 9, 65, 127
1, 182160, Note_on_c, 9, 46, 76
1, 182160, Note_on_c, 9, 70, 113
1, 182279, Note_on_c, 9, 65, 0
1, 182279, Note_on_c, 9, 46, 0
1, 182279, Note_on_c, 9, 70, 0
1, 182280, Note_on_c, 9, 69, 81
1, 182399, Note_on_c, 9, 69, 0
1, 182400, Note_on_c, 9, 49, 122
1, 182400, Note_on_c, 9, 35, 127
1, 182639, Note_on_c, 9, 49, 0
1, 182640, Note_on_c, 9, 70, 108
1, 182640, Note_on_c, 9, 42, 101
1, 182759, Note_on_c, 9, 70, 0
1, 182759, Note_on_c, 9, 42, 0
1, 182760, Note_on_c, 9, 69, 77
1, 182879, Note_on_c, 9, 35, 0
1, 182879, Note_on_c, 9, 69, 0
1, 182880, Note_on_c, 9, 38, 127
1, 182880, Note_on_c, 9, 42, 83
1, 183119, Note_on_c, 9, 38, 0
1, 183119, Note_on_c, 9, 42, 0
1, 183120, Note_on_c, 9, 70, 112
1, 183120, Note_on_c, 9, 42, 81
1, 183239, Note_on_c, 9, 70, 0
1, 183239, Note_on_c, 9, 42, 0
1, 183240, Note_on_c, 9, 69, 81
1, 183359, Note_on_c, 9, 69, 0
1, 183360, Note_on_c, 9, 42, 126
1, 183360, Note_on_c, 9, 35, 127
1, 183599, Note_on_c, 9, 42, 0
1, 183600, Note_on_c, 9, 75, 95
1, 183614, Note_on_c, 9, 75, 0
1, 183615, Note_on_c, 9, 70, 112
1, 183615, Note_on_c, 9, 42, 105
1, 183659, Note_on_c, 9, 70, 0
1, 183659, Note_on_c, 9, 42, 0
1, 183720, Note_on_c, 9, 69, 80
1, 183839, Note_on_c, 9, 35, 0
1, 183839, Note_on_c, 9, 69, 0
1, 183840, Note_on_c, 9, 38, 127
1, 183840, Note_on_c, 9, 42, 81
1, 184079, Note_on_c, 9, 38, 0
1, 184079, Note_on_c, 9, 42, 0
1, 184080, Note_on_c, 9, 70, 108
1, 184080, Note_on_c, 9, 42, 92
1, 184199, Note_on_c, 9, 70, 0
1, 184199, Note_on_c, 9, 42, 0
1, 184200, Note_on_c, 9, 69, 78
1, 184319, Note_on_c, 9, 69, 0
1, 184320, Note_on_c, 9, 42, 127
1, 184320, Note_on_c, 9, 35, 127
1, 184559, Note_on_c, 9, 42, 0
1, 184560, Note_on_c, 9, 70, 110
1, 184560, Note_on_c, 9, 42, 104
1, 184679, Note_on_c, 9, 70, 0
1, 184679, Note_on_c, 9, 42, 0
1, 184680, Note_on_c, 9, 69, 75
1, 184799, Note_on_c, 9, 35, 0
1, 184799, Note_on_c, 9, 69, 0
1, 184800, Note_on_c, 9, 38, 127
1, 184800, Note_on_c, 9, 42, 78
1, 185039, Note_on_c, 9, 38, 0
1, 185039, Note_on_c, 9, 42, 0
1, 185040, Note_on_c, 9, 70, 112
1, 185040, Note_on_c, 9, 42, 89
1, 185159, Note_on_c, 9, 70, 0
1, 185159, Note_on_c, 9, 42, 0
1, 185160, Note_on_c, 9, 69, 82
1, 185279, Note_on_c, 9, 69, 0
1, 185280, Note_on_c, 9, 42, 120
1, 185280, Note_on_c, 9, 35, 127
1, 185504, Note_on_c, 9, 42, 0
1, 185505, Note_on_c, 9, 70, 113
1, 185505, Note_on_c, 9, 42, 100
1, 185520, Note_on_c, 9, 75, 101
1, 185639, Note_on_c, 9, 70, 0
1, 185639, Note_on_c, 9, 42, 0
1, 185639, Note_on_c, 9, 75, 0
1, 185640, Note_on_c, 9, 69, 74
1, 185759, Note_on_c, 9, 35, 0
1, 185759, Note_on_c, 9, 69, 0
1, 185760, Note_on_c, 9, 38, 127
1, 185760, Note_on_c, 9, 42, 94
1, 185999, Note_on_c, 9, 38, 0
1, 185999, Note_on_c, 9, 42, 0
1, 186000, Note_on_c, 9, 70, 113
1, 186000, Note_on_c, 9, 42, 87
1, 186119, Note_on_c, 9, 70, 0
1, 186119, Note_on_c, 9, 42, 0
1, 186120, Note_on_c, 9, 69, 78
1, 186239, Note_on_c, 9, 69, 0
1, 186240, Note_on_c, 9, 49, 127
1, 186240, Note_on_c, 9, 35, 127
1, 186719, Note_on_c, 9, 49, 0
1, 186719, Note_on_c, 9, 35, 0
1, 186720, End_track
0, 0, End_of_file
