0, 0, Header, 1, 1, 480
1, 0, Start_track
1, 0, Time_signature, 4, 2, 24, 8
1, 0, Key_signature, 0, "major"
1, 0, Tempo, 500000
1, 0, Control_c, 9, 121, 0
1, 0, Program_c, 9, 0
1, 0, Control_c, 9, 7, 100
1, 0, Control_c, 9, 10, 64
1, 0, Control_c, 9, 91, 0
1, 0, Control_c, 9, 93, 0
1, 0, MIDI_port, 0
1, 5760, Note_on_c, 9, 42, 120
1, 6239, Note_on_c, 9, 42, 0
1, 6720, Note_on_c, 9, 42, 80
1, 7199, Note_on_c, 9, 42, 0
1, 7680, Note_on_c, 9, 42, 120
1, 8159, Note_on_c, 9, 42, 0
1, 8160, Note_on_c, 9, 42, 80
1, 8639, Note_on_c, 9, 42, 0
1, 8640, Note_on_c, 9, 42, 80
1, 9119, Note_on_c, 9, 42, 0
1, 9120, Note_on_c, 9, 42, 80
1, 9599, Note_on_c, 9, 42, 0
1, 16800, Note_on_c, 9, 38, 97
1, 16800, Note_on_c, 9, 43, 95
1, 17039, Note_on_c, 9, 38, 0
1, 17039, Note_on_c, 9, 43, 0
1, 17040, Note_on_c, 9, 38, 101
1, 17040, Note_on_c, 9, 43, 79
1, 17279, Note_on_c, 9, 38, 0
1, 17279, Note_on_c, 9, 43, 0
1, 17280, Note_on_c, 9, 49, 91
1, 17280, Note_on_c, 9, 36, 121
1, 17519, Note_on_c, 9, 49, 0
1, 17520, Note_on_c, 9, 42, 76
1, 17759, Note_on_c, 9, 36, 0
1, 17759, Note_on_c, 9, 42, 0
1, 17760, Note_on_c, 9, 38, 101
1, 17760, Note_on_c, 9, 42, 72
1, 17999, Note_on_c, 9, 38, 0
1, 17999, Note_on_c, 9, 42, 0
1, 18000, Note_on_c, 9, 42, 72
1, 18239, Note_on_c, 9, 42, 0
1, 18240, Note_on_c, 9, 42, 69
1, 18240, Note_on_c, 9, 36, 121
1, 18479, Note_on_c, 9, 42, 0
1, 18480, Note_on_c, 9, 42, 73
1, 18719, Note_on_c, 9, 36, 0
1, 18719, Note_on_c, 9, 42, 0
1, 18720, Note_on_c, 9, 38, 95
1, 18720, Note_on_c, 9, 42, 71
1, 18959, Note_on_c, 9, 38, 0
1, 18959, Note_on_c, 9, 42, 0
1, 18960, Note_on_c, 9, 42, 76
1, 19199, Note_on_c, 9, 42, 0
1, 19200, Note_on_c, 9, 42, 76
1, 19200, Note_on_c, 9, 36, 119
1, 19439, Note_on_c, 9, 42, 0
1, 19440, Note_on_c, 9, 42, 69
1, 19679, Note_on_c, 9, 36, 0
1, 19679, Note_on_c, 9, 42, 0
1, 19680, Note_on_c, 9, 38, 97
1, 19680, Note_on_c, 9, 42, 69
1, 19919, Note_on_c, 9, 38, 0
1, 19919, Note_on_c, 9, 42, 0
1, 19920, Note_on_c, 9, 42, 74
1, 20159, Note_on_c, 9, 42, 0
1, 20160, Note_on_c, 9, 42, 65
1, 20160, Note_on_c, 9, 36, 123
1, 20399, Note_on_c, 9, 42, 0
1, 20399, Note_on_c, 9, 36, 0
1, 20400, Note_on_c, 9, 42, 73
1, 20400, Note_on_c, 9, 43, 101
1, 20639, Note_on_c, 9, 42, 0
1, 20639, Note_on_c, 9, 43, 0
1, 20640, Note_on_c, 9, 38, 102
1, 20640, Note_on_c, 9, 42, 70
1, 20879, Note_on_c, 9, 38, 0
1, 20879, Note_on_c, 9, 42, 0
1, 20880, Note_on_c, 9, 42, 72
1, 20880, Note_on_c, 9, 43, 107
1, 21119, Note_on_c, 9, 42, 0
1, 21119, Note_on_c, 9, 43, 0
1, 21120, Note_on_c, 9, 42, 68
1, 21120, Note_on_c, 9, 36, 123
1, 21359, Note_on_c, 9, 42, 0
1, 21360, Note_on_c, 9, 42, 70
1, 21599, Note_on_c, 9, 36, 0
1, 21599, Note_on_c, 9, 42, 0
1, 21600, Note_on_c, 9, 38, 98
1, 21600, Note_on_c, 9, 42, 72
1, 21839, Note_on_c, 9, 38, 0
1, 21839, Note_on_c, 9, 42, 0
1, 21840, Note_on_c, 9, 42, 69
1, 22079, Note_on_c, 9, 42, 0
1, 22080, Note_on_c, 9, 42, 70
1, 22080, Note_on_c, 9, 36, 119
1, 22319, Note_on_c, 9, 42, 0
1, 22320, Note_on_c, 9, 42, 76
1, 22559, Note_on_c, 9, 36, 0
1, 22559, Note_on_c, 9, 42, 0
1, 22560, Note_on_c, 9, 38, 100
1, 22560, Note_on_c, 9, 42, 73
1, 22799, Note_on_c, 9, 38, 0
1, 22799, Note_on_c, 9, 42, 0
1, 22800, Note_on_c, 9, 42, 69
1, 23039, Note_on_c, 9, 42, 0
1, 23040, Note_on_c, 9, 42, 74
1, 23040, Note_on_c, 9, 36, 122
1, 23279, Note_on_c, 9, 42, 0
1, 23280, Note_on_c, 9, 42, 68
1, 23519, Note_on_c, 9, 36, 0
1, 23519, Note_on_c, 9, 42, 0
1, 23520, Note_on_c, 9, 38, 101
1, 23520, Note_on_c, 9, 42, 66
1, 23759, Note_on_c, 9, 38, 0
1, 23759, Note_on_c, 9, 42, 0
1, 23760, Note_on_c, 9, 42, 76
1, 23999, Note_on_c, 9, 42, 0
1, 24000, Note_on_c, 9, 42, 75
1, 24000, Note_on_c, 9, 36, 125
1, 24239, Note_on_c, 9, 42, 0
1, 24239, Note_on_c, 9, 36, 0
1, 24240, Note_on_c, 9, 42, 72
1, 24240, Note_on_c, 9, 43, 101
1, 24479, Note_on_c, 9, 42, 0
1, 24479, Note_on_c, 9, 43, 0
1, 24480, Note_on_c, 9, 38, 102
1, 24480, Note_on_c, 9, 42, 73
1, 24719, Note_on_c, 9, 38, 0
1, 24719, Note_on_c, 9, 42, 0
1, 24720, Note_on_c, 9, 42, 66
1, 24720, Note_on_c, 9, 43, 107
1, 24959, Note_on_c, 9, 42, 0
1, 24959, Note_on_c, 9, 43, 0
1, 24960, Note_on_c, 9, 42, 76
1, 24960, Note_on_c, 9, 36, 126
1, 25199, Note_on_c, 9, 42, 0
1, 25200, Note_on_c, 9, 42, 73
1, 25439, Note_on_c, 9, 36, 0
1, 25439, Note_on_c, 9, 42, 0
1, 25440, Note_on_c, 9, 38, 102
1, 25440, Note_on_c, 9, 42, 67
1, 25679, Note_on_c, 9, 38, 0
1, 25679, Note_on_c, 9, 42, 0
1, 25680, Note_on_c, 9, 42, 70
1, 25919, Note_on_c, 9, 42, 0
1, 25920, Note_on_c, 9, 42, 68
1, 25920, Note_on_c, 9, 36, 121
1, 26159, Note_on_c, 9, 42, 0
1, 26160, Note_on_c, 9, 42, 68
1, 26399, Note_on_c, 9, 36, 0
1, 26399, Note_on_c, 9, 42, 0
1, 26400, Note_on_c, 9, 38, 101
1, 26400, Note_on_c, 9, 42, 68
1, 26639, Note_on_c, 9, 38, 0
1, 26639, Note_on_c, 9, 42, 0
1, 26640, Note_on_c, 9, 42, 74
1, 26879, Note_on_c, 9, 42, 0
1, 26880, Note_on_c, 9, 42, 70
1, 26880, Note_on_c, 9, 36, 125
1, 27119, Note_on_c, 9, 42, 0
1, 27120, Note_on_c, 9, 42, 66
1, 27359, Note_on_c, 9, 36, 0
1, 27359, Note_on_c, 9, 42, 0
1, 27360, Note_on_c, 9, 38, 101
1, 27360, Note_on_c, 9, 42, 71
1, 27599, Note_on_c, 9, 38, 0
1, 27599, Note_on_c, 9, 42, 0
1, 27600, Note_on_c, 9, 42, 73
1, 27839, Note_on_c, 9, 42, 0
1, 27840, Note_on_c, 9, 42, 73
1, 27840, Note_on_c, 9, 36, 120
1, 28079, Note_on_c, 9, 42, 0
1, 28079, Note_on_c, 9, 36, 0
1, 28080, Note_on_c, 9, 42, 75
1, 28080, Note_on_c, 9, 43, 101
1, 28319, Note_on_c, 9, 42, 0
1, 28319, Note_on_c, 9, 43, 0
1, 28320, Note_on_c, 9, 38, 97
1, 28320, Note_on_c, 9, 42, 67
1, 28559, Note_on_c, 9, 38, 0
1, 28559, Note_on_c, 9, 42, 0
1, 28560, Note_on_c, 9, 42, 73
1, 28560, Note_on_c, 9, 43, 107
1, 28799, Note_on_c, 9, 42, 0
1, 28799, Note_on_c, 9, 43, 0
1, 28800, Note_on_c, 9, 42, 75
1, 28800, Note_on_c, 9, 36, 126
1, 29039, Note_on_c, 9, 42, 0
1, 29040, Note_on_c, 9, 42, 72
1, 29279, Note_on_c, 9, 36, 0
1, 29279, Note_on_c, 9, 42, 0
1, 29280, Note_on_c, 9, 38, 101
1, 29280, Note_on_c, 9, 42, 69
1, 29519, Note_on_c, 9, 38, 0
1, 29519, Note_on_c, 9, 42, 0
1, 29520, Note_on_c, 9, 42, 70
1, 29759, Note_on_c, 9, 42, 0
1, 29760, Note_on_c, 9, 42, 72
1, 29760, Note_on_c, 9, 36, 120
1, 29999, Note_on_c, 9, 42, 0
1, 30000, Note_on_c, 9, 42, 72
1, 30239, Note_on_c, 9, 36, 0
1, 30239, Note_on_c, 9, 42, 0
1, 30240, Note_on_c, 9, 38, 95
1, 30240, Note_on_c, 9, 42, 71
1, 30479, Note_on_c, 9, 38, 0
1, 30479, Note_on_c, 9, 42, 0
1, 30480, Note_on_c, 9, 42, 68
1, 30719, Note_on_c, 9, 42, 0
1, 30720, Note_on_c, 9, 46, 60
1, 30720, Note_on_c, 9, 36, 126
1, 30959, Note_on_c, 9, 46, 0
1, 30960, Note_on_c, 9, 42, 67
1, 31199, Note_on_c, 9, 36, 0
1, 31199, Note_on_c, 9, 42, 0
1, 31200, Note_on_c, 9, 38, 101
1, 31200, Note_on_c, 9, 42, 74
1, 31439, Note_on_c, 9, 38, 0
1, 31439, Note_on_c, 9, 42, 0
1, 31440, Note_on_c, 9, 38, 102
1, 31559, Note_on_c, 9, 38, 0
1, 31560, Note_on_c, 9, 38, 96
1, 31679, Note_on_c, 9, 38, 0
1, 31680, Note_on_c, 9, 49, 74
1, 31680, Note_on_c, 9, 36, 123
1, 32159, Note_on_c, 9, 49, 0
1, 32159, Note_on_c, 9, 36, 0
1, 32160, Note_on_c, 9, 46, 92
1, 32160, Note_on_c, 9, 49, 64
1, 32160, Note_on_c, 9, 36, 123
1, 32639, Note_on_c, 9, 46, 0
1, 32639, Note_on_c, 9, 49, 0
1, 32639, Note_on_c, 9, 36, 0
1, 32640, Note_on_c, 9, 49, 79
1, 32640, Note_on_c, 9, 36, 120
1, 32879, Note_on_c, 9, 49, 0
1, 32880, Note_on_c, 9, 42, 65
1, 33119, Note_on_c, 9, 36, 0
1, 33119, Note_on_c, 9, 42, 0
1, 33120, Note_on_c, 9, 38, 96
1, 33120, Note_on_c, 9, 42, 70
1, 33359, Note_on_c, 9, 38, 0
1, 33359, Note_on_c, 9, 42, 0
1, 33360, Note_on_c, 9, 42, 72
1, 33599, Note_on_c, 9, 42, 0
1, 33600, Note_on_c, 9, 42, 67
1, 33600, Note_on_c, 9, 36, 123
1, 33839, Note_on_c, 9, 42, 0
1, 33840, Note_on_c, 9, 42, 69
1, 34079, Note_on_c, 9, 36, 0
1, 34079, Note_on_c, 9, 42, 0
1, 34080, Note_on_c, 9, 38, 94
1, 34080, Note_on_c, 9, 42, 67
1, 34319, Note_on_c, 9, 38, 0
1, 34319, Note_on_c, 9, 42, 0
1, 34320, Note_on_c, 9, 42, 65
1, 34559, Note_on_c, 9, 42, 0
1, 34560, Note_on_c, 9, 42, 76
1, 34560, Note_on_c, 9, 36, 122
1, 34799, Note_on_c, 9, 42, 0
1, 34800, Note_on_c, 9, 42, 74
1, 35039, Note_on_c, 9, 36, 0
1, 35039, Note_on_c, 9, 42, 0
1, 35040, Note_on_c, 9, 38, 95
1, 35040, Note_on_c, 9, 42, 72
1, 35279, Note_on_c, 9, 38, 0
1, 35279, Note_on_c, 9, 42, 0
1, 35280, Note_on_c, 9, 42, 75
1, 35519, Note_on_c, 9, 42, 0
1, 35520, Note_on_c, 9, 42, 71
1, 35520, Note_on_c, 9, 36, 124
1, 35759, Note_on_c, 9, 42, 0
1, 35760, Note_on_c, 9, 42, 68
1, 35999, Note_on_c, 9, 36, 0
1, 35999, Note_on_c, 9, 42, 0
1, 36000, Note_on_c, 9, 38, 97
1, 36000, Note_on_c, 9, 42, 69
1, 36239, Note_on_c, 9, 38, 0
1, 36239, Note_on_c, 9, 42, 0
1, 36240, Note_on_c, 9, 42, 68
1, 36479, Note_on_c, 9, 42, 0
1, 36480, Note_on_c, 9, 42, 75
1, 36480, Note_on_c, 9, 36, 126
1, 36719, Note_on_c, 9, 42, 0
1, 36720, Note_on_c, 9, 42, 74
1, 36959, Note_on_c, 9, 36, 0
1, 36959, Note_on_c, 9, 42, 0
1, 36960, Note_on_c, 9, 38, 95
1, 36960, Note_on_c, 9, 42, 71
1, 37199, Note_on_c, 9, 38, 0
1, 37199, Note_on_c, 9, 42, 0
1, 37200, Note_on_c, 9, 42, 71
1, 37439, Note_on_c, 9, 42, 0
1, 37440, Note_on_c, 9, 42, 65
1, 37440, Note_on_c, 9, 36, 122
1, 37679, Note_on_c, 9, 42, 0
1, 37680, Note_on_c, 9, 42, 72
1, 37919, Note_on_c, 9, 36, 0
1, 37919, Note_on_c, 9, 42, 0
1, 37920, Note_on_c, 9, 38, 101
1, 37920, Note_on_c, 9, 42, 66
1, 38159, Note_on_c, 9, 38, 0
1, 38159, Note_on_c, 9, 42, 0
1, 38160, Note_on_c, 9, 42, 74
1, 38399, Note_on_c, 9, 42, 0
1, 38400, Note_on_c, 9, 42, 66
1, 38400, Note_on_c, 9, 36, 121
1, 38639, Note_on_c, 9, 42, 0
1, 38640, Note_on_c, 9, 42, 65
1, 38879, Note_on_c, 9, 36, 0
1, 38879, Note_on_c, 9, 42, 0
1, 38880, Note_on_c, 9, 38, 96
1, 38880, Note_on_c, 9, 42, 65
1, 39119, Note_on_c, 9, 38, 0
1, 39119, Note_on_c, 9, 42, 0
1, 39120, Note_on_c, 9, 42, 69
1, 39359, Note_on_c, 9, 42, 0
1, 39360, Note_on_c, 9, 42, 69
1, 39360, Note_on_c, 9, 36, 126
1, 39599, Note_on_c, 9, 42, 0
1, 39600, Note_on_c, 9, 42, 68
1, 39839, Note_on_c, 9, 36, 0
1, 39839, Note_on_c, 9, 42, 0
1, 39840, Note_on_c, 9, 38, 94
1, 39840, Note_on_c, 9, 42, 73
1, 40079, Note_on_c, 9, 38, 0
1, 40079, Note_on_c, 9, 42, 0
1, 40080, Note_on_c, 9, 42, 72
1, 40319, Note_on_c, 9, 42, 0
1, 40320, Note_on_c, 9, 42, 72
1, 40320, Note_on_c, 9, 36, 120
1, 40559, Note_on_c, 9, 42, 0
1, 40560, Note_on_c, 9, 42, 72
1, 40799, Note_on_c, 9, 36, 0
1, 40799, Note_on_c, 9, 42, 0
1, 40800, Note_on_c, 9, 38, 98
1, 40800, Note_on_c, 9, 42, 72
1, 41039, Note_on_c, 9, 38, 0
1, 41039, Note_on_c, 9, 42, 0
1, 41040, Note_on_c, 9, 42, 65
1, 41279, Note_on_c, 9, 42, 0
1, 41280, Note_on_c, 9, 42, 72
1, 41280, Note_on_c, 9, 36, 122
1, 41519, Note_on_c, 9, 42, 0
1, 41520, Note_on_c, 9, 42, 76
1, 41759, Note_on_c, 9, 36, 0
1, 41759, Note_on_c, 9, 42, 0
1, 41760, Note_on_c, 9, 38, 97
1, 41760, Note_on_c, 9, 42, 75
1, 41999, Note_on_c, 9, 38, 0
1, 41999, Note_on_c, 9, 42, 0
1, 42000, Note_on_c, 9, 42, 72
1, 42239, Note_on_c, 9, 42, 0
1, 42240, Note_on_c, 9, 42, 68
1, 42240, Note_on_c, 9, 36, 119
1, 42479, Note_on_c, 9, 42, 0
1, 42480, Note_on_c, 9, 42, 69
1, 42719, Note_on_c, 9, 36, 0
1, 42719, Note_on_c, 9, 42, 0
1, 42720, Note_on_c, 9, 38, 99
1, 42720, Note_on_c, 9, 42, 69
1, 42959, Note_on_c, 9, 38, 0
1, 42959, Note_on_c, 9, 42, 0
1, 42960, Note_on_c, 9, 42, 76
1, 43199, Note_on_c, 9, 42, 0
1, 43200, Note_on_c, 9, 42, 68
1, 43200, Note_on_c, 9, 36, 121
1, 43439, Note_on_c, 9, 42, 0
1, 43440, Note_on_c, 9, 42, 76
1, 43679, Note_on_c, 9, 36, 0
1, 43679, Note_on_c, 9, 42, 0
1, 43680, Note_on_c, 9, 38, 101
1, 43680, Note_on_c, 9, 42, 69
1, 43919, Note_on_c, 9, 38, 0
1, 43919, Note_on_c, 9, 42, 0
1, 43920, Note_on_c, 9, 42, 75
1, 44159, Note_on_c, 9, 42, 0
1, 44160, Note_on_c, 9, 42, 66
1, 44160, Note_on_c, 9, 36, 120
1, 44399, Note_on_c, 9, 42, 0
1, 44400, Note_on_c, 9, 42, 67
1, 44639, Note_on_c, 9, 36, 0
1, 44639, Note_on_c, 9, 42, 0
1, 44640, Note_on_c, 9, 38, 97
1, 44640, Note_on_c, 9, 42, 71
1, 44879, Note_on_c, 9, 38, 0
1, 44879, Note_on_c, 9, 42, 0
1, 44880, Note_on_c, 9, 42, 71
1, 45119, Note_on_c, 9, 42, 0
1, 45120, Note_on_c, 9, 42, 65
1, 45120, Note_on_c, 9, 36, 125
1, 45359, Note_on_c, 9, 42, 0
1, 45360, Note_on_c, 9, 42, 68
1, 45599, Note_on_c, 9, 36, 0
1, 45599, Note_on_c, 9, 42, 0
1, 45600, Note_on_c, 9, 38, 100
1, 45600, Note_on_c, 9, 42, 70
1, 45839, Note_on_c, 9, 38, 0
1, 45839, Note_on_c, 9, 42, 0
1, 45840, Note_on_c, 9, 42, 70
1, 46079, Note_on_c, 9, 42, 0
1, 46080, Note_on_c, 9, 42, 68
1, 46080, Note_on_c, 9, 36, 124
1, 46319, Note_on_c, 9, 42, 0
1, 46320, Note_on_c, 9, 42, 75
1, 46559, Note_on_c, 9, 36, 0
1, 46559, Note_on_c, 9, 42, 0
1, 46560, Note_on_c, 9, 38, 94
1, 46560, Note_on_c, 9, 42, 67
1, 46799, Note_on_c, 9, 38, 0
1, 46799, Note_on_c, 9, 42, 0
1, 46800, Note_on_c, 9, 42, 71
1, 47039, Note_on_c, 9, 42, 0
1, 47040, Note_on_c, 9, 42, 66
1, 47040, Note_on_c, 9, 36, 119
1, 47279, Note_on_c, 9, 42, 0
1, 47280, Note_on_c, 9, 42, 72
1, 47519, Note_on_c, 9, 36, 0
1, 47519, Note_on_c, 9, 42, 0
1, 47520, Note_on_c, 9, 38, 99
1, 47520, Note_on_c, 9, 42, 69
1, 47759, Note_on_c, 9, 38, 0
1, 47759, Note_on_c, 9, 42, 0
1, 47760, Note_on_c, 9, 42, 70
1, 47999, Note_on_c, 9, 42, 0
1, 48000, Note_on_c, 9, 42, 67
1, 48000, Note_on_c, 9, 36, 120
1, 48239, Note_on_c, 9, 42, 0
1, 48240, Note_on_c, 9, 42, 76
1, 48479, Note_on_c, 9, 36, 0
1, 48479, Note_on_c, 9, 42, 0
1, 48480, Note_on_c, 9, 38, 99
1, 48480, Note_on_c, 9, 42, 72
1, 48719, Note_on_c, 9, 38, 0
1, 48719, Note_on_c, 9, 42, 0
1, 48720, Note_on_c, 9, 42, 65
1, 48959, Note_on_c, 9, 42, 0
1, 48960, Note_on_c, 9, 42, 76
1, 48960, Note_on_c, 9, 36, 119
1, 49199, Note_on_c, 9, 42, 0
1, 49200, Note_on_c, 9, 42, 67
1, 49439, Note_on_c, 9, 36, 0
1, 49439, Note_on_c, 9, 42, 0
1, 49440, Note_on_c, 9, 38, 101
1, 49440, Note_on_c, 9, 42, 75
1, 49679, Note_on_c, 9, 38, 0
1, 49679, Note_on_c, 9, 42, 0
1, 49680, Note_on_c, 9, 42, 65
1, 49919, Note_on_c, 9, 42, 0
1, 49920, Note_on_c, 9, 42, 65
1, 49920, Note_on_c, 9, 36, 119
1, 50159, Note_on_c, 9, 42, 0
1, 50160, Note_on_c, 9, 42, 66
1, 50399, Note_on_c, 9, 36, 0
1, 50399, Note_on_c, 9, 42, 0
1, 50400, Note_on_c, 9, 38, 101
1, 50400, Note_on_c, 9, 42, 74
1, 50639, Note_on_c, 9, 38, 0
1, 50639, Note_on_c, 9, 42, 0
1, 50640, Note_on_c, 9, 42, 70
1, 50879, Note_on_c, 9, 42, 0
1, 50880, Note_on_c, 9, 42, 71
1, 50880, Note_on_c, 9, 36, 125
1, 51119, Note_on_c, 9, 42, 0
1, 51120, Note_on_c, 9, 42, 65
1, 51359, Note_on_c, 9, 36, 0
1, 51359, Note_on_c, 9, 42, 0
1, 51360, Note_on_c, 9, 38, 100
1, 51360, Note_on_c, 9, 42, 70
1, 51599, Note_on_c, 9, 38, 0
1, 51599, Note_on_c, 9, 42, 0
1, 51600, Note_on_c, 9, 42, 71
1, 51839, Note_on_c, 9, 42, 0
1, 51840, Note_on_c, 9, 42, 69
1, 51840, Note_on_c, 9, 36, 123
1, 52079, Note_on_c, 9, 42, 0
1, 52080, Note_on_c, 9, 42, 76
1, 52319, Note_on_c, 9, 36, 0
1, 52319, Note_on_c, 9, 42, 0
1, 52320, Note_on_c, 9, 38, 100
1, 52320, Note_on_c, 9, 42, 65
1, 52559, Note_on_c, 9, 38, 0
1, 52559, Note_on_c, 9, 42, 0
1, 52560, Note_on_c, 9, 42, 70
1, 52799, Note_on_c, 9, 42, 0
1, 52800, Note_on_c, 9, 42, 76
1, 52800, Note_on_c, 9, 36, 119
1, 53039, Note_on_c, 9, 42, 0
1, 53040, Note_on_c, 9, 42, 76
1, 53279, Note_on_c, 9, 36, 0
1, 53279, Note_on_c, 9, 42, 0
1, 53280, Note_on_c, 9, 38, 100
1, 53280, Note_on_c, 9, 42, 71
1, 53519, Note_on_c, 9, 38, 0
1, 53519, Note_on_c, 9, 42, 0
1, 53520, Note_on_c, 9, 42, 65
1, 53759, Note_on_c, 9, 42, 0
1, 53760, Note_on_c, 9, 42, 74
1, 53760, Note_on_c, 9, 36, 120
1, 53999, Note_on_c, 9, 42, 0
1, 54000, Note_on_c, 9, 42, 74
1, 54239, Note_on_c, 9, 36, 0
1, 54239, Note_on_c, 9, 42, 0
1, 54240, Note_on_c, 9, 38, 96
1, 54240, Note_on_c, 9, 42, 67
1, 54479, Note_on_c, 9, 38, 0
1, 54479, Note_on_c, 9, 42, 0
1, 54480, Note_on_c, 9, 42, 65
1, 54719, Note_on_c, 9, 42, 0
1, 54720, Note_on_c, 9, 42, 75
1, 54720, Note_on_c, 9, 36, 125
1, 54959, Note_on_c, 9, 42, 0
1, 54960, Note_on_c, 9, 42, 66
1, 55199, Note_on_c, 9, 36, 0
1, 55199, Note_on_c, 9, 42, 0
1, 55200, Note_on_c, 9, 38, 95
1, 55200, Note_on_c, 9, 42, 65
1, 55439, Note_on_c, 9, 38, 0
1, 55439, Note_on_c, 9, 42, 0
1, 55440, Note_on_c, 9, 42, 65
1, 55679, Note_on_c, 9, 42, 0
1, 55680, Note_on_c, 9, 42, 76
1, 55680, Note_on_c, 9, 36, 119
1, 55919, Note_on_c, 9, 42, 0
1, 55920, Note_on_c, 9, 42, 66
1, 56159, Note_on_c, 9, 36, 0
1, 56159, Note_on_c, 9, 42, 0
1, 56160, Note_on_c, 9, 38, 99
1, 56160, Note_on_c, 9, 42, 73
1, 56399, Note_on_c, 9, 38, 0
1, 56399, Note_on_c, 9, 42, 0
1, 56400, Note_on_c, 9, 42, 69
1, 56639, Note_on_c, 9, 42, 0
1, 56640, Note_on_c, 9, 42, 67
1, 56640, Note_on_c, 9, 36, 120
1, 56879, Note_on_c, 9, 42, 0
1, 56880, Note_on_c, 9, 42, 72
1, 57119, Note_on_c, 9, 36, 0
1, 57119, Note_on_c, 9, 42, 0
1, 57120, Note_on_c, 9, 38, 100
1, 57120, Note_on_c, 9, 42, 75
1, 57359, Note_on_c, 9, 38, 0
1, 57359, Note_on_c, 9, 42, 0
1, 57360, Note_on_c, 9, 42, 73
1, 57599, Note_on_c, 9, 42, 0
1, 57600, Note_on_c, 9, 42, 73
1, 57600, Note_on_c, 9, 36, 124
1, 57839, Note_on_c, 9, 42, 0
1, 57840, Note_on_c, 9, 42, 66
1, 58079, Note_on_c, 9, 36, 0
1, 58079, Note_on_c, 9, 42, 0
1, 58080, Note_on_c, 9, 38, 95
1, 58080, Note_on_c, 9, 42, 67
1, 58319, Note_on_c, 9, 38, 0
1, 58319, Note_on_c, 9, 42, 0
1, 58320, Note_on_c, 9, 42, 66
1, 58559, Note_on_c, 9, 42, 0
1, 58560, Note_on_c, 9, 42, 68
1, 58560, Note_on_c, 9, 36, 119
1, 58799, Note_on_c, 9, 42, 0
1, 58800, Note_on_c, 9, 42, 66
1, 59039, Note_on_c, 9, 36, 0
1, 59039, Note_on_c, 9, 42, 0
1, 59040, Note_on_c, 9, 38, 97
1, 59040, Note_on_c, 9, 42, 70
1, 59279, Note_on_c, 9, 38, 0
1, 59279, Note_on_c, 9, 42, 0
1, 59280, Note_on_c, 9, 42, 72
1, 59519, Note_on_c, 9, 42, 0
1, 59520, Note_on_c, 9, 42, 65
1, 59520, Note_on_c, 9, 36, 119
1, 59759, Note_on_c, 9, 42, 0
1, 59760, Note_on_c, 9, 42, 66
1, 59999, Note_on_c, 9, 36, 0
1, 59999, Note_on_c, 9, 42, 0
1, 60000, Note_on_c, 9, 38, 96
1, 60000, Note_on_c, 9, 42, 67
1, 60239, Note_on_c, 9, 38, 0
1, 60239, Note_on_c, 9, 42, 0
1, 60240, Note_on_c, 9, 42, 66
1, 60479, Note_on_c, 9, 42, 0
1, 60480, Note_on_c, 9, 42, 73
1, 60480, Note_on_c, 9, 36, 119
1, 60719, Note_on_c, 9, 42, 0
1, 60720, Note_on_c, 9, 42, 65
1, 60959, Note_on_c, 9, 36, 0
1, 60959, Note_on_c, 9, 42, 0
1, 60960, Note_on_c, 9, 38, 102
1, 60960, Note_on_c, 9, 42, 76
1, 61199, Note_on_c, 9, 38, 0
1, 61199, Note_on_c, 9, 42, 0
1, 61200, Note_on_c, 9, 42, 65
1, 61439, Note_on_c, 9, 42, 0
1, 61440, Note_on_c, 9, 42, 75
1, 61440, Note_on_c, 9, 36, 121
1, 61679, Note_on_c, 9, 42, 0
1, 61680, Note_on_c, 9, 42, 66
1, 61919, Note_on_c, 9, 36, 0
1, 61919, Note_on_c, 9, 42, 0
1, 61920, Note_on_c, 9, 38, 98
1, 61920, Note_on_c, 9, 42, 68
1, 62159, Note_on_c, 9, 38, 0
1, 62159, Note_on_c, 9, 42, 0
1, 62160, Note_on_c, 9, 42, 72
1, 62399, Note_on_c, 9, 42, 0
1, 62400, Note_on_c, 9, 42, 72
1, 62400, Note_on_c, 9, 36, 121
1, 62639, Note_on_c, 9, 42, 0
1, 62640, Note_on_c, 9, 42, 69
1, 62879, Note_on_c, 9, 36, 0
1, 62879, Note_on_c, 9, 42, 0
1, 62880, Note_on_c, 9, 38, 98
1, 62880, Note_on_c, 9, 42, 70
1, 63119, Note_on_c, 9, 38, 0
1, 63119, Note_on_c, 9, 42, 0
1, 63120, Note_on_c, 9, 42, 73
1, 63359, Note_on_c, 9, 42, 0
1, 63360, Note_on_c, 9, 42, 69
1, 63360, Note_on_c, 9, 36, 121
1, 63599, Note_on_c, 9, 42, 0
1, 63600, Note_on_c, 9, 42, 68
1, 63839, Note_on_c, 9, 36, 0
1, 63839, Note_on_c, 9, 42, 0
1, 63840, Note_on_c, 9, 38, 95
1, 63840, Note_on_c, 9, 42, 76
1, 64079, Note_on_c, 9, 38, 0
1, 64079, Note_on_c, 9, 42, 0
1, 64080, Note_on_c, 9, 42, 76
1, 64319, Note_on_c, 9, 42, 0
1, 64320, Note_on_c, 9, 42, 68
1, 64320, Note_on_c, 9, 36, 120
1, 64559, Note_on_c, 9, 42, 0
1, 64560, Note_on_c, 9, 42, 75
1, 64799, Note_on_c, 9, 36, 0
1, 64799, Note_on_c, 9, 42, 0
1, 64800, Note_on_c, 9, 38, 100
1, 64800, Note_on_c, 9, 42, 72
1, 65039, Note_on_c, 9, 38, 0
1, 65039, Note_on_c, 9, 42, 0
1, 65040, Note_on_c, 9, 42, 75
1, 65279, Note_on_c, 9, 42, 0
1, 65280, Note_on_c, 9, 42, 75
1, 65280, Note_on_c, 9, 36, 120
1, 65519, Note_on_c, 9, 42, 0
1, 65520, Note_on_c, 9, 42, 70
1, 65759, Note_on_c, 9, 36, 0
1, 65759, Note_on_c, 9, 42, 0
1, 65760, Note_on_c, 9, 38, 101
1, 65760, Note_on_c, 9, 42, 74
1, 65999, Note_on_c, 9, 38, 0
1, 65999, Note_on_c, 9, 42, 0
1, 66000, Note_on_c, 9, 42, 75
1, 66239, Note_on_c, 9, 42, 0
1, 66240, Note_on_c, 9, 42, 70
1, 66240, Note_on_c, 9, 36, 123
1, 66479, Note_on_c, 9, 42, 0
1, 66480, Note_on_c, 9, 42, 74
1, 66719, Note_on_c, 9, 36, 0
1, 66719, Note_on_c, 9, 42, 0
1, 66720, Note_on_c, 9, 38, 95
1, 66720, Note_on_c, 9, 42, 76
1, 66959, Note_on_c, 9, 38, 0
1, 66959, Note_on_c, 9, 42, 0
1, 66960, Note_on_c, 9, 42, 70
1, 67199, Note_on_c, 9, 42, 0
1, 67200, Note_on_c, 9, 42, 72
1, 67200, Note_on_c, 9, 36, 122
1, 67439, Note_on_c, 9, 42, 0
1, 67440, Note_on_c, 9, 42, 74
1, 67679, Note_on_c, 9, 36, 0
1, 67679, Note_on_c, 9, 42, 0
1, 67680, Note_on_c, 9, 38, 100
1, 67680, Note_on_c, 9, 42, 67
1, 67919, Note_on_c, 9, 38, 0
1, 67919, Note_on_c, 9, 42, 0
1, 67920, Note_on_c, 9, 42, 71
1, 68159, Note_on_c, 9, 42, 0
1, 68160, Note_on_c, 9, 42, 68
1, 68160, Note_on_c, 9, 36, 126
1, 68399, Note_on_c, 9, 42, 0
1, 68400, Note_on_c, 9, 42, 68
1, 68639, Note_on_c, 9, 36, 0
1, 68639, Note_on_c, 9, 42, 0
1, 68640, Note_on_c, 9, 38, 100
1, 68640, Note_on_c, 9, 46, 85
1, 68879, Note_on_c, 9, 38, 0
1, 68879, Note_on_c, 9, 46, 0
1, 68880, Note_on_c, 9, 47, 99
1, 68999, Note_on_c, 9, 47, 0
1, 69000, Note_on_c, 9, 47, 84
1, 69119, Note_on_c, 9, 47, 0
1, 69120, Note_on_c, 9, 36, 121
1, 69120, Note_on_c, 9, 43, 94
1, 69359, Note_on_c, 9, 36, 0
1, 69359, Note_on_c, 9, 43, 0
1, 69360, Note_on_c, 9, 43, 86
1, 69599, Note_on_c, 9, 43, 0
1, 69600, Note_on_c, 9, 38, 95
1, 69600, Note_on_c, 9, 46, 100
1, 69840, Note_on_c, 9, 43, 76
1, 69959, Note_on_c, 9, 43, 0
1, 69960, Note_on_c, 9, 43, 89
1, 70079, Note_on_c, 9, 38, 0
1, 70079, Note_on_c, 9, 46, 0
1, 70079, Note_on_c, 9, 43, 0
1, 70080, Note_on_c, 9, 49, 100
1, 70080, Note_on_c, 9, 36, 119
1, 70559, Note_on_c, 9, 49, 0
1, 70559, Note_on_c, 9, 36, 0
1, 70560, Note_on_c, 9, 49, 85
1, 70560, Note_on_c, 9, 36, 122
1, 71039, Note_on_c, 9, 49, 0
1, 71039, Note_on_c, 9, 36, 0
1, 71040, Note_on_c, 9, 49, 100
1, 71040, Note_on_c, 9, 36, 125
1, 71279, Note_on_c, 9, 49, 0
1, 71280, Note_on_c, 9, 42, 70
1, 71519, Note_on_c, 9, 36, 0
1, 71519, Note_on_c, 9, 42, 0
1, 71520, Note_on_c, 9, 38, 101
1, 71520, Note_on_c, 9, 42, 74
1, 71759, Note_on_c, 9, 38, 0
1, 71759, Note_on_c, 9, 42, 0
1, 71760, Note_on_c, 9, 42, 66
1, 71999, Note_on_c, 9, 42, 0
1, 72000, Note_on_c, 9, 42, 74
1, 72000, Note_on_c, 9, 36, 119
1, 72239, Note_on_c, 9, 42, 0
1, 72240, Note_on_c, 9, 42, 73
1, 72479, Note_on_c, 9, 36, 0
1, 72479, Note_on_c, 9, 42, 0
1, 72480, Note_on_c, 9, 38, 98
1, 72480, Note_on_c, 9, 42, 67
1, 72719, Note_on_c, 9, 38, 0
1, 72719, Note_on_c, 9, 42, 0
1, 72720, Note_on_c, 9, 42, 68
1, 72959, Note_on_c, 9, 42, 0
1, 72960, Note_on_c, 9, 42, 65
1, 72960, Note_on_c, 9, 36, 124
1, 73199, Note_on_c, 9, 42, 0
1, 73200, Note_on_c, 9, 42, 68
1, 73439, Note_on_c, 9, 36, 0
1, 73439, Note_on_c, 9, 42, 0
1, 73440, Note_on_c, 9, 38, 94
1, 73440, Note_on_c, 9, 42, 74
1, 73679, Note_on_c, 9, 38, 0
1, 73679, Note_on_c, 9, 42, 0
1, 73680, Note_on_c, 9, 42, 76
1, 73919, Note_on_c, 9, 42, 0
1, 73920, Note_on_c, 9, 42, 70
1, 73920, Note_on_c, 9, 36, 126
1, 74159, Note_on_c, 9, 42, 0
1, 74160, Note_on_c, 9, 42, 73
1, 74399, Note_on_c, 9, 36, 0
1, 74399, Note_on_c, 9, 42, 0
1, 74400, Note_on_c, 9, 38, 102
1, 74400, Note_on_c, 9, 42, 71
1, 74639, Note_on_c, 9, 38, 0
1, 74639, Note_on_c, 9, 42, 0
1, 74640, Note_on_c, 9, 42, 66
1, 74879, Note_on_c, 9, 42, 0
1, 74880, Note_on_c, 9, 42, 70
1, 74880, Note_on_c, 9, 36, 119
1, 75119, Note_on_c, 9, 42, 0
1, 75120, Note_on_c, 9, 42, 75
1, 75359, Note_on_c, 9, 36, 0
1, 75359, Note_on_c, 9, 42, 0
1, 75360, Note_on_c, 9, 38, 99
1, 75360, Note_on_c, 9, 42, 76
1, 75599, Note_on_c, 9, 38, 0
1, 75599, Note_on_c, 9, 42, 0
1, 75600, Note_on_c, 9, 42, 75
1, 75839, Note_on_c, 9, 42, 0
1, 75840, Note_on_c, 9, 42, 68
1, 75840, Note_on_c, 9, 36, 123
1, 76079, Note_on_c, 9, 42, 0
1, 76080, Note_on_c, 9, 42, 74
1, 76319, Note_on_c, 9, 36, 0
1, 76319, Note_on_c, 9, 42, 0
1, 76320, Note_on_c, 9, 38, 94
1, 76320, Note_on_c, 9, 42, 71
1, 76559, Note_on_c, 9, 38, 0
1, 76559, Note_on_c, 9, 42, 0
1, 76560, Note_on_c, 9, 42, 65
1, 76799, Note_on_c, 9, 42, 0
1, 76800, Note_on_c, 9, 42, 71
1, 76800, Note_on_c, 9, 36, 121
1, 77039, Note_on_c, 9, 42, 0
1, 77040, Note_on_c, 9, 42, 73
1, 77279, Note_on_c, 9, 36, 0
1, 77279, Note_on_c, 9, 42, 0
1, 77280, Note_on_c, 9, 38, 100
1, 77280, Note_on_c, 9, 42, 69
1, 77519, Note_on_c, 9, 38, 0
1, 77519, Note_on_c, 9, 42, 0
1, 77520, Note_on_c, 9, 42, 72
1, 77759, Note_on_c, 9, 42, 0
1, 77760, Note_on_c, 9, 42, 76
1, 77760, Note_on_c, 9, 36, 122
1, 77999, Note_on_c, 9, 42, 0
1, 78000, Note_on_c, 9, 42, 68
1, 78239, Note_on_c, 9, 36, 0
1, 78239, Note_on_c, 9, 42, 0
1, 78240, Note_on_c, 9, 38, 98
1, 78240, Note_on_c, 9, 42, 69
1, 78479, Note_on_c, 9, 38, 0
1, 78479, Note_on_c, 9, 42, 0
1, 78480, Note_on_c, 9, 42, 72
1, 78719, Note_on_c, 9, 42, 0
1, 78720, Note_on_c, 9, 49, 80
1, 78720, Note_on_c, 9, 36, 124
1, 78959, Note_on_c, 9, 49, 0
1, 78960, Note_on_c, 9, 42, 67
1, 79199, Note_on_c, 9, 36, 0
1, 79199, Note_on_c, 9, 42, 0
1, 79200, Note_on_c, 9, 38, 101
1, 79200, Note_on_c, 9, 42, 74
1, 79439, Note_on_c, 9, 38, 0
1, 79439, Note_on_c, 9, 42, 0
1, 79440, Note_on_c, 9, 42, 71
1, 79679, Note_on_c, 9, 42, 0
1, 79680, Note_on_c, 9, 42, 76
1, 79680, Note_on_c, 9, 36, 126
1, 79919, Note_on_c, 9, 42, 0
1, 79920, Note_on_c, 9, 42, 76
1, 80159, Note_on_c, 9, 36, 0
1, 80159, Note_on_c, 9, 42, 0
1, 80160, Note_on_c, 9, 38, 96
1, 80160, Note_on_c, 9, 42, 72
1, 80399, Note_on_c, 9, 38, 0
1, 80399, Note_on_c, 9, 42, 0
1, 80400, Note_on_c, 9, 42, 72
1, 80639, Note_on_c, 9, 42, 0
1, 80640, Note_on_c, 9, 42, 74
1, 80640, Note_on_c, 9, 36, 123
1, 80879, Note_on_c, 9, 42, 0
1, 80880, Note_on_c, 9, 42, 72
1, 81119, Note_on_c, 9, 36, 0
1, 81119, Note_on_c, 9, 42, 0
1, 81120, Note_on_c, 9, 38, 96
1, 81120, Note_on_c, 9, 42, 67
1, 81359, Note_on_c, 9, 38, 0
1, 81359, Note_on_c, 9, 42, 0
1, 81360, Note_on_c, 9, 42, 72
1, 81599, Note_on_c, 9, 42, 0
1, 81600, Note_on_c, 9, 42, 67
1, 81600, Note_on_c, 9, 36, 122
1, 81839, Note_on_c, 9, 42, 0
1, 81840, Note_on_c, 9, 42, 73
1, 82079, Note_on_c, 9, 36, 0
1, 82079, Note_on_c, 9, 42, 0
1, 82080, Note_on_c, 9, 38, 100
1, 82080, Note_on_c, 9, 42, 67
1, 82319, Note_on_c, 9, 38, 0
1, 82319, Note_on_c, 9, 42, 0
1, 82320, Note_on_c, 9, 42, 65
1, 82559, Note_on_c, 9, 42, 0
1, 82560, Note_on_c, 9, 42, 73
1, 82560, Note_on_c, 9, 36, 124
1, 82799, Note_on_c, 9, 42, 0
1, 82800, Note_on_c, 9, 42, 65
1, 83039, Note_on_c, 9, 36, 0
1, 83039, Note_on_c, 9, 42, 0
1, 83040, Note_on_c, 9, 38, 101
1, 83040, Note_on_c, 9, 42, 68
1, 83279, Note_on_c, 9, 38, 0
1, 83279, Note_on_c, 9, 42, 0
1, 83280, Note_on_c, 9, 42, 68
1, 83519, Note_on_c, 9, 42, 0
1, 83520, Note_on_c, 9, 42, 67
1, 83520, Note_on_c, 9, 36, 120
1, 83759, Note_on_c, 9, 42, 0
1, 83760, Note_on_c, 9, 42, 71
1, 83999, Note_on_c, 9, 36, 0
1, 83999, Note_on_c, 9, 42, 0
1, 84000, Note_on_c, 9, 38, 96
1, 84000, Note_on_c, 9, 46, 85
1, 84239, Note_on_c, 9, 38, 0
1, 84239, Note_on_c, 9, 46, 0
1, 84240, Note_on_c, 9, 47, 99
1, 84359, Note_on_c, 9, 47, 0
1, 84360, Note_on_c, 9, 47, 84
1, 84479, Note_on_c, 9, 47, 0
1, 84480, Note_on_c, 9, 36, 122
1, 84480, Note_on_c, 9, 43, 94
1, 84719, Note_on_c, 9, 36, 0
1, 84719, Note_on_c, 9, 43, 0
1, 84720, Note_on_c, 9, 43, 86
1, 84959, Note_on_c, 9, 43, 0
1, 84960, Note_on_c, 9, 38, 99
1, 84960, Note_on_c, 9, 46, 90
1, 85200, Note_on_c, 9, 43, 77
1, 85439, Note_on_c, 9, 38, 0
1, 85439, Note_on_c, 9, 46, 0
1, 85439, Note_on_c, 9, 43, 0
1, 85440, Note_on_c, 9, 46, 97
1, 85440, Note_on_c, 9, 36, 122
1, 85679, Note_on_c, 9, 36, 0
1, 85680, Note_on_c, 9, 43, 68
1, 85799, Note_on_c, 9, 43, 0
1, 85800, Note_on_c, 9, 43, 82
1, 85919, Note_on_c, 9, 46, 0
1, 85919, Note_on_c, 9, 43, 0
1, 85920, Note_on_c, 9, 38, 96
1, 86039, Note_on_c, 9, 38, 0
1, 86040, Note_on_c, 9, 38, 102
1, 86159, Note_on_c, 9, 38, 0
1, 86160, Note_on_c, 9, 38, 102
1, 86279, Note_on_c, 9, 38, 0
1, 86280, Note_on_c, 9, 38, 97
1, 86399, Note_on_c, 9, 38, 0
1, 86400, Note_on_c, 9, 49, 94
1, 86400, Note_on_c, 9, 36, 122
1, 86639, Note_on_c, 9, 49, 0
1, 86640, Note_on_c, 9, 42, 70
1, 86879, Note_on_c, 9, 36, 0
1, 86879, Note_on_c, 9, 42, 0
1, 86880, Note_on_c, 9, 38, 97
1, 86880, Note_on_c, 9, 42, 76
1, 87119, Note_on_c, 9, 38, 0
1, 87119, Note_on_c, 9, 42, 0
1, 87120, Note_on_c, 9, 42, 65
1, 87359, Note_on_c, 9, 42, 0
1, 87360, Note_on_c, 9, 42, 66
1, 87360, Note_on_c, 9, 36, 125
1, 87599, Note_on_c, 9, 42, 0
1, 87600, Note_on_c, 9, 42, 70
1, 87839, Note_on_c, 9, 36, 0
1, 87839, Note_on_c, 9, 42, 0
1, 87840, Note_on_c, 9, 38, 95
1, 87840, Note_on_c, 9, 42, 73
1, 88079, Note_on_c, 9, 38, 0
1, 88079, Note_on_c, 9, 42, 0
1, 88080, Note_on_c, 9, 42, 69
1, 88319, Note_on_c, 9, 42, 0
1, 88320, Note_on_c, 9, 42, 74
1, 88320, Note_on_c, 9, 36, 126
1, 88559, Note_on_c, 9, 42, 0
1, 88560, Note_on_c, 9, 42, 72
1, 88799, Note_on_c, 9, 36, 0
1, 88799, Note_on_c, 9, 42, 0
1, 88800, Note_on_c, 9, 38, 96
1, 88800, Note_on_c, 9, 42, 71
1, 89039, Note_on_c, 9, 38, 0
1, 89039, Note_on_c, 9, 42, 0
1, 89040, Note_on_c, 9, 42, 73
1, 89279, Note_on_c, 9, 42, 0
1, 89280, Note_on_c, 9, 42, 69
1, 89280, Note_on_c, 9, 36, 126
1, 89519, Note_on_c, 9, 42, 0
1, 89520, Note_on_c, 9, 42, 73
1, 89759, Note_on_c, 9, 36, 0
1, 89759, Note_on_c, 9, 42, 0
1, 89760, Note_on_c, 9, 38, 97
1, 89760, Note_on_c, 9, 42, 73
1, 89999, Note_on_c, 9, 38, 0
1, 89999, Note_on_c, 9, 42, 0
1, 90000, Note_on_c, 9, 42, 76
1, 90239, Note_on_c, 9, 42, 0
1, 90240, Note_on_c, 9, 42, 72
1, 90240, Note_on_c, 9, 36, 121
1, 90479, Note_on_c, 9, 42, 0
1, 90480, Note_on_c, 9, 42, 68
1, 90719, Note_on_c, 9, 36, 0
1, 90719, Note_on_c, 9, 42, 0
1, 90720, Note_on_c, 9, 38, 94
1, 90720, Note_on_c, 9, 42, 73
1, 90959, Note_on_c, 9, 38, 0
1, 90959, Note_on_c, 9, 42, 0
1, 90960, Note_on_c, 9, 42, 67
1, 91199, Note_on_c, 9, 42, 0
1, 91200, Note_on_c, 9, 42, 73
1, 91200, Note_on_c, 9, 36, 122
1, 91439, Note_on_c, 9, 42, 0
1, 91440, Note_on_c, 9, 42, 76
1, 91679, Note_on_c, 9, 36, 0
1, 91679, Note_on_c, 9, 42, 0
1, 91680, Note_on_c, 9, 38, 101
1, 91680, Note_on_c, 9, 42, 71
1, 91919, Note_on_c, 9, 38, 0
1, 91919, Note_on_c, 9, 42, 0
1, 91920, Note_on_c, 9, 42, 70
1, 92159, Note_on_c, 9, 42, 0
1, 92160, Note_on_c, 9, 42, 67
1, 92160, Note_on_c, 9, 36, 126
1, 92399, Note_on_c, 9, 42, 0
1, 92400, Note_on_c, 9, 42, 71
1, 92639, Note_on_c, 9, 36, 0
1, 92639, Note_on_c, 9, 42, 0
1, 92640, Note_on_c, 9, 38, 99
1, 92640, Note_on_c, 9, 42, 68
1, 92879, Note_on_c, 9, 38, 0
1, 92879, Note_on_c, 9, 42, 0
1, 92880, Note_on_c, 9, 42, 65
1, 93119, Note_on_c, 9, 42, 0
1, 93120, Note_on_c, 9, 42, 67
1, 93120, Note_on_c, 9, 36, 120
1, 93359, Note_on_c, 9, 42, 0
1, 93360, Note_on_c, 9, 42, 72
1, 93599, Note_on_c, 9, 36, 0
1, 93599, Note_on_c, 9, 42, 0
1, 93600, Note_on_c, 9, 38, 101
1, 93600, Note_on_c, 9, 42, 66
1, 93839, Note_on_c, 9, 38, 0
1, 93839, Note_on_c, 9, 42, 0
1, 93840, Note_on_c, 9, 42, 69
1, 94079, Note_on_c, 9, 42, 0
1, 94080, Note_on_c, 9, 49, 78
1, 94080, Note_on_c, 9, 36, 123
1, 94319, Note_on_c, 9, 49, 0
1, 94320, Note_on_c, 9, 42, 70
1, 94559, Note_on_c, 9, 36, 0
1, 94559, Note_on_c, 9, 42, 0
1, 94560, Note_on_c, 9, 38, 102
1, 94560, Note_on_c, 9, 42, 76
1, 94799, Note_on_c, 9, 38, 0
1, 94799, Note_on_c, 9, 42, 0
1, 94800, Note_on_c, 9, 42, 75
1, 95039, Note_on_c, 9, 42, 0
1, 95040, Note_on_c, 9, 42, 69
1, 95040, Note_on_c, 9, 36, 122
1, 95279, Note_on_c, 9, 42, 0
1, 95280, Note_on_c, 9, 42, 76
1, 95519, Note_on_c, 9, 36, 0
1, 95519, Note_on_c, 9, 42, 0
1, 95520, Note_on_c, 9, 38, 94
1, 95520, Note_on_c, 9, 42, 76
1, 95759, Note_on_c, 9, 38, 0
1, 95759, Note_on_c, 9, 42, 0
1, 95760, Note_on_c, 9, 42, 74
1, 95999, Note_on_c, 9, 42, 0
1, 96000, Note_on_c, 9, 42, 71
1, 96000, Note_on_c, 9, 36, 120
1, 96239, Note_on_c, 9, 42, 0
1, 96240, Note_on_c, 9, 42, 70
1, 96479, Note_on_c, 9, 36, 0
1, 96479, Note_on_c, 9, 42, 0
1, 96480, Note_on_c, 9, 38, 94
1, 96480, Note_on_c, 9, 42, 71
1, 96719, Note_on_c, 9, 38, 0
1, 96719, Note_on_c, 9, 42, 0
1, 96720, Note_on_c, 9, 42, 75
1, 96959, Note_on_c, 9, 42, 0
1, 96960, Note_on_c, 9, 42, 71
1, 96960, Note_on_c, 9, 36, 123
1, 97199, Note_on_c, 9, 42, 0
1, 97200, Note_on_c, 9, 42, 69
1, 97439, Note_on_c, 9, 36, 0
1, 97439, Note_on_c, 9, 42, 0
1, 97440, Note_on_c, 9, 38, 102
1, 97440, Note_on_c, 9, 42, 76
1, 97679, Note_on_c, 9, 38, 0
1, 97679, Note_on_c, 9, 42, 0
1, 97680, Note_on_c, 9, 42, 72
1, 97919, Note_on_c, 9, 42, 0
1, 97920, Note_on_c, 9, 42, 70
1, 97920, Note_on_c, 9, 36, 121
1, 98159, Note_on_c, 9, 42, 0
1, 98160, Note_on_c, 9, 42, 76
1, 98399, Note_on_c, 9, 36, 0
1, 98399, Note_on_c, 9, 42, 0
1, 98400, Note_on_c, 9, 38, 95
1, 98400, Note_on_c, 9, 42, 75
1, 98639, Note_on_c, 9, 38, 0
1, 98639, Note_on_c, 9, 42, 0
1, 98640, Note_on_c, 9, 42, 68
1, 98879, Note_on_c, 9, 42, 0
1, 98880, Note_on_c, 9, 42, 70
1, 98880, Note_on_c, 9, 36, 119
1, 99119, Note_on_c, 9, 42, 0
1, 99120, Note_on_c, 9, 42, 65
1, 99359, Note_on_c, 9, 36, 0
1, 99359, Note_on_c, 9, 42, 0
1, 99360, Note_on_c, 9, 38, 96
1, 99360, Note_on_c, 9, 46, 85
1, 99599, Note_on_c, 9, 38, 0
1, 99599, Note_on_c, 9, 46, 0
1, 99600, Note_on_c, 9, 38, 101
1, 99719, Note_on_c, 9, 38, 0
1, 99720, Note_on_c, 9, 38, 99
1, 99839, Note_on_c, 9, 38, 0
1, 99840, Note_on_c, 9, 36, 119
1, 99840, Note_on_c, 9, 43, 94
1, 99959, Note_on_c, 9, 36, 0
1, 99959, Note_on_c, 9, 43, 0
1, 99960, Note_on_c, 9, 43, 76
1, 100079, Note_on_c, 9, 43, 0
1, 100080, Note_on_c, 9, 43, 86
1, 100200, Note_on_c, 9, 38, 100
1, 100319, Note_on_c, 9, 43, 0
1, 100319, Note_on_c, 9, 38, 0
1, 100320, Note_on_c, 9, 38, 99
1, 100320, Note_on_c, 9, 46, 94
1, 100439, Note_on_c, 9, 38, 0
1, 100439, Note_on_c, 9, 46, 0
1, 100440, Note_on_c, 9, 38, 101
1, 100559, Note_on_c, 9, 38, 0
1, 100560, Note_on_c, 9, 38, 101
1, 100560, Note_on_c, 9, 43, 77
1, 100679, Note_on_c, 9, 38, 0
1, 100680, Note_on_c, 9, 38, 101
1, 100799, Note_on_c, 9, 43, 0
1, 100799, Note_on_c, 9, 38, 0
1, 100800, Note_on_c, 9, 49, 92
1, 100800, Note_on_c, 9, 36, 120
1, 100919, Note_on_c, 9, 49, 0
1, 100920, Note_on_c, 9, 47, 74
1, 101039, Note_on_c, 9, 47, 0
1, 101040, Note_on_c, 9, 47, 65
1, 101159, Note_on_c, 9, 36, 0
1, 101160, Note_on_c, 9, 43, 84
1, 101279, Note_on_c, 9, 47, 0
1, 101279, Note_on_c, 9, 43, 0
1, 101280, Note_on_c, 9, 49, 94
1, 101400, Note_on_c, 9, 43, 64
1, 101519, Note_on_c, 9, 43, 0
1, 101520, Note_on_c, 9, 43, 85
1, 101639, Note_on_c, 9, 43, 0
1, 101640, Note_on_c, 9, 43, 103
1, 101759, Note_on_c, 9, 49, 0
1, 101759, Note_on_c, 9, 43, 0
1, 101760, Note_on_c, 9, 49, 79
1, 101760, Note_on_c, 9, 36, 122
1, 101999, Note_on_c, 9, 49, 0
1, 102000, Note_on_c, 9, 42, 69
1, 102239, Note_on_c, 9, 36, 0
1, 102239, Note_on_c, 9, 42, 0
1, 102240, Note_on_c, 9, 38, 101
1, 102240, Note_on_c, 9, 42, 76
1, 102479, Note_on_c, 9, 38, 0
1, 102479, Note_on_c, 9, 42, 0
1, 102480, Note_on_c, 9, 42, 68
1, 102719, Note_on_c, 9, 42, 0
1, 102720, Note_on_c, 9, 42, 76
1, 102720, Note_on_c, 9, 36, 121
1, 102959, Note_on_c, 9, 42, 0
1, 102960, Note_on_c, 9, 42, 65
1, 103199, Note_on_c, 9, 36, 0
1, 103199, Note_on_c, 9, 42, 0
1, 103200, Note_on_c, 9, 38, 100
1, 103200, Note_on_c, 9, 42, 67
1, 103439, Note_on_c, 9, 38, 0
1, 103439, Note_on_c, 9, 42, 0
1, 103440, Note_on_c, 9, 42, 65
1, 103679, Note_on_c, 9, 42, 0
1, 103680, Note_on_c, 9, 42, 71
1, 103680, Note_on_c, 9, 36, 125
1, 103919, Note_on_c, 9, 42, 0
1, 103920, Note_on_c, 9, 42, 71
1, 104159, Note_on_c, 9, 36, 0
1, 104159, Note_on_c, 9, 42, 0
1, 104160, Note_on_c, 9, 38, 100
1, 104160, Note_on_c, 9, 42, 76
1, 104399, Note_on_c, 9, 38, 0
1, 104399, Note_on_c, 9, 42, 0
1, 104400, Note_on_c, 9, 42, 75
1, 104639, Note_on_c, 9, 42, 0
1, 104640, Note_on_c, 9, 42, 65
1, 104640, Note_on_c, 9, 36, 123
1, 104879, Note_on_c, 9, 42, 0
1, 104880, Note_on_c, 9, 42, 70
1, 105119, Note_on_c, 9, 36, 0
1, 105119, Note_on_c, 9, 42, 0
1, 105120, Note_on_c, 9, 38, 100
1, 105120, Note_on_c, 9, 42, 68
1, 105359, Note_on_c, 9, 38, 0
1, 105359, Note_on_c, 9, 42, 0
1, 105360, Note_on_c, 9, 42, 65
1, 105599, Note_on_c, 9, 42, 0
1, 105600, Note_on_c, 9, 42, 74
1, 105600, Note_on_c, 9, 36, 124
1, 105839, Note_on_c, 9, 42, 0
1, 105840, Note_on_c, 9, 42, 75
1, 106079, Note_on_c, 9, 36, 0
1, 106079, Note_on_c, 9, 42, 0
1, 106080, Note_on_c, 9, 38, 100
1, 106080, Note_on_c, 9, 42, 65
1, 106319, Note_on_c, 9, 38, 0
1, 106319, Note_on_c, 9, 42, 0
1, 106320, Note_on_c, 9, 42, 69
1, 106559, Note_on_c, 9, 42, 0
1, 106560, Note_on_c, 9, 42, 76
1, 106560, Note_on_c, 9, 36, 121
1, 106799, Note_on_c, 9, 42, 0
1, 106800, Note_on_c, 9, 42, 67
1, 107039, Note_on_c, 9, 36, 0
1, 107039, Note_on_c, 9, 42, 0
1, 107040, Note_on_c, 9, 38, 98
1, 107040, Note_on_c, 9, 42, 67
1, 107279, Note_on_c, 9, 38, 0
1, 107279, Note_on_c, 9, 42, 0
1, 107280, Note_on_c, 9, 42, 65
1, 107519, Note_on_c, 9, 42, 0
1, 107520, Note_on_c, 9, 42, 75
1, 107520, Note_on_c, 9, 36, 126
1, 107759, Note_on_c, 9, 42, 0
1, 107760, Note_on_c, 9, 42, 66
1, 107999, Note_on_c, 9, 36, 0
1, 107999, Note_on_c, 9, 42, 0
1, 108000, Note_on_c, 9, 38, 95
1, 108000, Note_on_c, 9, 42, 72
1, 108239, Note_on_c, 9, 38, 0
1, 108239, Note_on_c, 9, 42, 0
1, 108240, Note_on_c, 9, 42, 65
1, 108479, Note_on_c, 9, 42, 0
1, 108480, Note_on_c, 9, 42, 66
1, 108480, Note_on_c, 9, 36, 126
1, 108719, Note_on_c, 9, 42, 0
1, 108719, Note_on_c, 9, 36, 0
1, 108720, Note_on_c, 9, 46, 69
1, 108720, Note_on_c, 9, 43, 102
1, 108959, Note_on_c, 9, 46, 0
1, 108959, Note_on_c, 9, 43, 0
1, 108960, Note_on_c, 9, 38, 99
1, 108960, Note_on_c, 9, 42, 73
1, 109199, Note_on_c, 9, 38, 0
1, 109199, Note_on_c, 9, 42, 0
1, 109200, Note_on_c, 9, 46, 75
1, 109200, Note_on_c, 9, 43, 104
1, 109439, Note_on_c, 9, 46, 0
1, 109439, Note_on_c, 9, 43, 0
1, 109440, Note_on_c, 9, 42, 67
1, 109440, Note_on_c, 9, 36, 119
1, 109679, Note_on_c, 9, 42, 0
1, 109680, Note_on_c, 9, 42, 70
1, 109919, Note_on_c, 9, 36, 0
1, 109919, Note_on_c, 9, 42, 0
1, 109920, Note_on_c, 9, 38, 97
1, 109920, Note_on_c, 9, 42, 65
1, 110159, Note_on_c, 9, 38, 0
1, 110159, Note_on_c, 9, 42, 0
1, 110160, Note_on_c, 9, 42, 76
1, 110399, Note_on_c, 9, 42, 0
1, 110400, Note_on_c, 9, 42, 66
1, 110400, Note_on_c, 9, 36, 124
1, 110639, Note_on_c, 9, 42, 0
1, 110640, Note_on_c, 9, 42, 66
1, 110879, Note_on_c, 9, 36, 0
1, 110879, Note_on_c, 9, 42, 0
1, 110880, Note_on_c, 9, 38, 96
1, 110880, Note_on_c, 9, 42, 67
1, 111119, Note_on_c, 9, 38, 0
1, 111119, Note_on_c, 9, 42, 0
1, 111120, Note_on_c, 9, 42, 76
1, 111359, Note_on_c, 9, 42, 0
1, 111360, Note_on_c, 9, 42, 70
1, 111360, Note_on_c, 9, 36, 124
1, 111599, Note_on_c, 9, 42, 0
1, 111600, Note_on_c, 9, 42, 73
1, 111839, Note_on_c, 9, 36, 0
1, 111839, Note_on_c, 9, 42, 0
1, 111840, Note_on_c, 9, 38, 94
1, 111840, Note_on_c, 9, 42, 71
1, 112079, Note_on_c, 9, 38, 0
1, 112079, Note_on_c, 9, 42, 0
1, 112080, Note_on_c, 9, 42, 75
1, 112319, Note_on_c, 9, 42, 0
1, 112320, Note_on_c, 9, 42, 76
1, 112320, Note_on_c, 9, 36, 119
1, 112559, Note_on_c, 9, 42, 0
1, 112560, Note_on_c, 9, 42, 66
1, 112799, Note_on_c, 9, 36, 0
1, 112799, Note_on_c, 9, 42, 0
1, 112800, Note_on_c, 9, 38, 95
1, 112800, Note_on_c, 9, 42, 70
1, 113039, Note_on_c, 9, 38, 0
1, 113039, Note_on_c, 9, 42, 0
1, 113040, Note_on_c, 9, 42, 68
1, 113279, Note_on_c, 9, 42, 0
1, 113280, Note_on_c, 9, 42, 76
1, 113280, Note_on_c, 9, 36, 125
1, 113519, Note_on_c, 9, 42, 0
1, 113520, Note_on_c, 9, 42, 76
1, 113759, Note_on_c, 9, 36, 0
1, 113759, Note_on_c, 9, 42, 0
1, 113760, Note_on_c, 9, 38, 102
1, 113760, Note_on_c, 9, 42, 67
1, 113999, Note_on_c, 9, 38, 0
1, 113999, Note_on_c, 9, 42, 0
1, 114000, Note_on_c, 9, 42, 76
1, 114239, Note_on_c, 9, 42, 0
1, 114240, Note_on_c, 9, 42, 74
1, 114240, Note_on_c, 9, 36, 126
1, 114479, Note_on_c, 9, 42, 0
1, 114480, Note_on_c, 9, 42, 71
1, 114719, Note_on_c, 9, 36, 0
1, 114719, Note_on_c, 9, 42, 0
1, 114720, Note_on_c, 9, 38, 94
1, 114720, Note_on_c, 9, 42, 69
1, 114959, Note_on_c, 9, 38, 0
1, 114959, Note_on_c, 9, 42, 0
1, 114960, Note_on_c, 9, 42, 74
1, 115199, Note_on_c, 9, 42, 0
1, 115200, Note_on_c, 9, 42, 69
1, 115200, Note_on_c, 9, 36, 119
1, 115439, Note_on_c, 9, 42, 0
1, 115440, Note_on_c, 9, 42, 67
1, 115679, Note_on_c, 9, 36, 0
1, 115679, Note_on_c, 9, 42, 0
1, 115680, Note_on_c, 9, 38, 100
1, 115680, Note_on_c, 9, 42, 70
1, 115919, Note_on_c, 9, 38, 0
1, 115919, Note_on_c, 9, 42, 0
1, 115920, Note_on_c, 9, 42, 76
1, 116159, Note_on_c, 9, 42, 0
1, 116160, Note_on_c, 9, 42, 65
1, 116160, Note_on_c, 9, 36, 122
1, 116399, Note_on_c, 9, 42, 0
1, 116400, Note_on_c, 9, 42, 65
1, 116639, Note_on_c, 9, 36, 0
1, 116639, Note_on_c, 9, 42, 0
1, 116640, Note_on_c, 9, 38, 96
1, 116640, Note_on_c, 9, 42, 66
1, 116879, Note_on_c, 9, 38, 0
1, 116879, Note_on_c, 9, 42, 0
1, 116880, Note_on_c, 9, 42, 75
1, 117119, Note_on_c, 9, 42, 0
1, 117120, Note_on_c, 9, 42, 68
1, 117120, Note_on_c, 9, 36, 122
1, 117359, Note_on_c, 9, 42, 0
1, 117360, Note_on_c, 9, 42, 68
1, 117599, Note_on_c, 9, 36, 0
1, 117599, Note_on_c, 9, 42, 0
1, 117600, Note_on_c, 9, 38, 100
1, 117600, Note_on_c, 9, 42, 69
1, 117839, Note_on_c, 9, 38, 0
1, 117839, Note_on_c, 9, 42, 0
1, 117840, Note_on_c, 9, 42, 72
1, 118079, Note_on_c, 9, 42, 0
1, 118080, Note_on_c, 9, 42, 70
1, 118080, Note_on_c, 9, 36, 126
1, 118319, Note_on_c, 9, 42, 0
1, 118320, Note_on_c, 9, 42, 70
1, 118559, Note_on_c, 9, 36, 0
1, 118559, Note_on_c, 9, 42, 0
1, 118560, Note_on_c, 9, 38, 102
1, 118560, Note_on_c, 9, 42, 75
1, 118799, Note_on_c, 9, 38, 0
1, 118799, Note_on_c, 9, 42, 0
1, 118800, Note_on_c, 9, 42, 69
1, 119039, Note_on_c, 9, 42, 0
1, 119040, Note_on_c, 9, 42, 65
1, 119040, Note_on_c, 9, 36, 122
1, 119279, Note_on_c, 9, 42, 0
1, 119280, Note_on_c, 9, 42, 65
1, 119519, Note_on_c, 9, 36, 0
1, 119519, Note_on_c, 9, 42, 0
1, 119520, Note_on_c, 9, 38, 99
1, 119520, Note_on_c, 9, 42, 65
1, 119759, Note_on_c, 9, 38, 0
1, 119759, Note_on_c, 9, 42, 0
1, 119760, Note_on_c, 9, 42, 67
1, 119999, Note_on_c, 9, 42, 0
1, 120000, Note_on_c, 9, 42, 72
1, 120000, Note_on_c, 9, 36, 121
1, 120239, Note_on_c, 9, 42, 0
1, 120240, Note_on_c, 9, 42, 71
1, 120479, Note_on_c, 9, 36, 0
1, 120479, Note_on_c, 9, 42, 0
1, 120480, Note_on_c, 9, 38, 102
1, 120480, Note_on_c, 9, 42, 74
1, 120719, Note_on_c, 9, 38, 0
1, 120719, Note_on_c, 9, 42, 0
1, 120720, Note_on_c, 9, 42, 72
1, 120959, Note_on_c, 9, 42, 0
1, 120960, Note_on_c, 9, 42, 73
1, 120960, Note_on_c, 9, 36, 119
1, 121199, Note_on_c, 9, 42, 0
1, 121200, Note_on_c, 9, 42, 66
1, 121439, Note_on_c, 9, 36, 0
1, 121439, Note_on_c, 9, 42, 0
1, 121440, Note_on_c, 9, 38, 95
1, 121440, Note_on_c, 9, 42, 72
1, 121679, Note_on_c, 9, 38, 0
1, 121679, Note_on_c, 9, 42, 0
1, 121680, Note_on_c, 9, 42, 75
1, 121919, Note_on_c, 9, 42, 0
1, 121920, Note_on_c, 9, 42, 68
1, 121920, Note_on_c, 9, 36, 124
1, 122159, Note_on_c, 9, 42, 0
1, 122160, Note_on_c, 9, 42, 70
1, 122399, Note_on_c, 9, 36, 0
1, 122399, Note_on_c, 9, 42, 0
1, 122400, Note_on_c, 9, 38, 102
1, 122400, Note_on_c, 9, 42, 75
1, 122639, Note_on_c, 9, 38, 0
1, 122639, Note_on_c, 9, 42, 0
1, 122640, Note_on_c, 9, 42, 72
1, 122879, Note_on_c, 9, 42, 0
1, 122880, Note_on_c, 9, 42, 68
1, 122880, Note_on_c, 9, 36, 124
1, 123119, Note_on_c, 9, 42, 0
1, 123120, Note_on_c, 9, 42, 76
1, 123359, Note_on_c, 9, 36, 0
1, 123359, Note_on_c, 9, 42, 0
1, 123360, Note_on_c, 9, 38, 95
1, 123360, Note_on_c, 9, 42, 72
1, 123599, Note_on_c, 9, 38, 0
1, 123599, Note_on_c, 9, 42, 0
1, 123600, Note_on_c, 9, 42, 68
1, 123839, Note_on_c, 9, 42, 0
1, 123840, Note_on_c, 9, 42, 67
1, 123840, Note_on_c, 9, 36, 124
1, 124079, Note_on_c, 9, 42, 0
1, 124080, Note_on_c, 9, 42, 65
1, 124319, Note_on_c, 9, 36, 0
1, 124319, Note_on_c, 9, 42, 0
1, 124320, Note_on_c, 9, 38, 102
1, 124320, Note_on_c, 9, 42, 65
1, 124559, Note_on_c, 9, 38, 0
1, 124559, Note_on_c, 9, 42, 0
1, 124560, Note_on_c, 9, 42, 72
1, 124799, Note_on_c, 9, 42, 0
1, 124800, Note_on_c, 9, 42, 70
1, 124800, Note_on_c, 9, 36, 124
1, 125039, Note_on_c, 9, 42, 0
1, 125040, Note_on_c, 9, 42, 74
1, 125279, Note_on_c, 9, 36, 0
1, 125279, Note_on_c, 9, 42, 0
1, 125280, Note_on_c, 9, 38, 99
1, 125280, Note_on_c, 9, 42, 73
1, 125519, Note_on_c, 9, 38, 0
1, 125519, Note_on_c, 9, 42, 0
1, 125520, Note_on_c, 9, 42, 65
1, 125759, Note_on_c, 9, 42, 0
1, 125760, Note_on_c, 9, 42, 68
1, 125760, Note_on_c, 9, 36, 126
1, 125999, Note_on_c, 9, 42, 0
1, 126000, Note_on_c, 9, 42, 73
1, 126239, Note_on_c, 9, 36, 0
1, 126239, Note_on_c, 9, 42, 0
1, 126240, Note_on_c, 9, 38, 100
1, 126240, Note_on_c, 9, 42, 67
1, 126479, Note_on_c, 9, 38, 0
1, 126479, Note_on_c, 9, 42, 0
1, 126480, Note_on_c, 9, 42, 71
1, 126719, Note_on_c, 9, 42, 0
1, 126720, Note_on_c, 9, 42, 73
1, 126720, Note_on_c, 9, 36, 123
1, 126959, Note_on_c, 9, 42, 0
1, 126960, Note_on_c, 9, 42, 65
1, 127199, Note_on_c, 9, 36, 0
1, 127199, Note_on_c, 9, 42, 0
1, 127200, Note_on_c, 9, 38, 94
1, 127200, Note_on_c, 9, 42, 69
1, 127439, Note_on_c, 9, 38, 0
1, 127439, Note_on_c, 9, 42, 0
1, 127440, Note_on_c, 9, 42, 69
1, 127679, Note_on_c, 9, 42, 0
1, 127680, Note_on_c, 9, 42, 67
1, 127680, Note_on_c, 9, 36, 123
1, 127919, Note_on_c, 9, 42, 0
1, 127920, Note_on_c, 9, 42, 73
1, 128159, Note_on_c, 9, 36, 0
1, 128159, Note_on_c, 9, 42, 0
1, 128160, Note_on_c, 9, 38, 96
1, 128160, Note_on_c, 9, 42, 66
1, 128399, Note_on_c, 9, 38, 0
1, 128399, Note_on_c, 9, 42, 0
1, 128400, Note_on_c, 9, 42, 72
1, 128639, Note_on_c, 9, 42, 0
1, 128640, Note_on_c, 9, 42, 70
1, 128640, Note_on_c, 9, 36, 126
1, 128879, Note_on_c, 9, 42, 0
1, 128880, Note_on_c, 9, 42, 71
1, 129119, Note_on_c, 9, 36, 0
1, 129119, Note_on_c, 9, 42, 0
1, 129120, Note_on_c, 9, 38, 98
1, 129120, Note_on_c, 9, 42, 75
1, 129359, Note_on_c, 9, 38, 0
1, 129359, Note_on_c, 9, 42, 0
1, 129360, Note_on_c, 9, 42, 69
1, 129599, Note_on_c, 9, 42, 0
1, 129600, Note_on_c, 9, 42, 65
1, 129600, Note_on_c, 9, 36, 122
1, 129839, Note_on_c, 9, 42, 0
1, 129840, Note_on_c, 9, 42, 70
1, 130079, Note_on_c, 9, 36, 0
1, 130079, Note_on_c, 9, 42, 0
1, 130080, Note_on_c, 9, 38, 102
1, 130080, Note_on_c, 9, 42, 71
1, 130319, Note_on_c, 9, 38, 0
1, 130319, Note_on_c, 9, 42, 0
1, 130320, Note_on_c, 9, 42, 74
1, 130559, Note_on_c, 9, 42, 0
1, 130560, Note_on_c, 9, 42, 73
1, 130560, Note_on_c, 9, 36, 119
1, 130799, Note_on_c, 9, 42, 0
1, 130800, Note_on_c, 9, 42, 68
1, 131039, Note_on_c, 9, 36, 0
1, 131039, Note_on_c, 9, 42, 0
1, 131040, Note_on_c, 9, 38, 99
1, 131040, Note_on_c, 9, 42, 66
1, 131279, Note_on_c, 9, 38, 0
1, 131279, Note_on_c, 9, 42, 0
1, 131280, Note_on_c, 9, 42, 73
1, 131519, Note_on_c, 9, 42, 0
1, 131520, Note_on_c, 9, 42, 71
1, 131520, Note_on_c, 9, 36, 122
1, 131759, Note_on_c, 9, 42, 0
1, 131760, Note_on_c, 9, 42, 70
1, 131999, Note_on_c, 9, 36, 0
1, 131999, Note_on_c, 9, 42, 0
1, 132000, Note_on_c, 9, 38, 100
1, 132000, Note_on_c, 9, 42, 76
1, 132239, Note_on_c, 9, 38, 0
1, 132239, Note_on_c, 9, 42, 0
1, 132240, Note_on_c, 9, 42, 67
1, 132479, Note_on_c, 9, 42, 0
1, 132480, Note_on_c, 9, 42, 70
1, 132480, Note_on_c, 9, 36, 121
1, 132719, Note_on_c, 9, 42, 0
1, 132720, Note_on_c, 9, 42, 65
1, 132959, Note_on_c, 9, 36, 0
1, 132959, Note_on_c, 9, 42, 0
1, 132960, Note_on_c, 9, 38, 94
1, 132960, Note_on_c, 9, 42, 70
1, 133199, Note_on_c, 9, 38, 0
1, 133199, Note_on_c, 9, 42, 0
1, 133200, Note_on_c, 9, 42, 75
1, 133439, Note_on_c, 9, 42, 0
1, 133440, Note_on_c, 9, 42, 76
1, 133440, Note_on_c, 9, 36, 123
1, 133679, Note_on_c, 9, 42, 0
1, 133680, Note_on_c, 9, 42, 70
1, 133919, Note_on_c, 9, 36, 0
1, 133919, Note_on_c, 9, 42, 0
1, 133920, Note_on_c, 9, 38, 96
1, 133920, Note_on_c, 9, 42, 67
1, 134159, Note_on_c, 9, 38, 0
1, 134159, Note_on_c, 9, 42, 0
1, 134160, Note_on_c, 9, 42, 74
1, 134399, Note_on_c, 9, 42, 0
1, 134400, Note_on_c, 9, 42, 69
1, 134400, Note_on_c, 9, 36, 122
1, 134639, Note_on_c, 9, 42, 0
1, 134640, Note_on_c, 9, 42, 71
1, 134879, Note_on_c, 9, 36, 0
1, 134879, Note_on_c, 9, 42, 0
1, 134880, Note_on_c, 9, 38, 96
1, 134880, Note_on_c, 9, 42, 68
1, 135119, Note_on_c, 9, 38, 0
1, 135119, Note_on_c, 9, 42, 0
1, 135120, Note_on_c, 9, 42, 65
1, 135359, Note_on_c, 9, 42, 0
1, 135360, Note_on_c, 9, 42, 65
1, 135360, Note_on_c, 9, 36, 121
1, 135599, Note_on_c, 9, 42, 0
1, 135600, Note_on_c, 9, 42, 65
1, 135839, Note_on_c, 9, 36, 0
1, 135839, Note_on_c, 9, 42, 0
1, 135840, Note_on_c, 9, 38, 95
1, 135840, Note_on_c, 9, 42, 70
1, 136079, Note_on_c, 9, 38, 0
1, 136079, Note_on_c, 9, 42, 0
1, 136080, Note_on_c, 9, 42, 72
1, 136319, Note_on_c, 9, 42, 0
1, 136320, Note_on_c, 9, 42, 76
1, 136320, Note_on_c, 9, 36, 126
1, 136559, Note_on_c, 9, 42, 0
1, 136560, Note_on_c, 9, 42, 66
1, 136799, Note_on_c, 9, 36, 0
1, 136799, Note_on_c, 9, 42, 0
1, 136800, Note_on_c, 9, 38, 94
1, 136800, Note_on_c, 9, 42, 69
1, 137039, Note_on_c, 9, 38, 0
1, 137039, Note_on_c, 9, 42, 0
1, 137040, Note_on_c, 9, 42, 68
1, 137279, Note_on_c, 9, 42, 0
1, 137280, Note_on_c, 9, 42, 67
1, 137280, Note_on_c, 9, 36, 125
1, 137519, Note_on_c, 9, 42, 0
1, 137520, Note_on_c, 9, 42, 67
1, 137759, Note_on_c, 9, 36, 0
1, 137759, Note_on_c, 9, 42, 0
1, 137760, Note_on_c, 9, 38, 96
1, 137760, Note_on_c, 9, 46, 85
1, 137999, Note_on_c, 9, 38, 0
1, 137999, Note_on_c, 9, 46, 0
1, 138000, Note_on_c, 9, 47, 99
1, 138119, Note_on_c, 9, 47, 0
1, 138120, Note_on_c, 9, 47, 84
1, 138239, Note_on_c, 9, 47, 0
1, 138240, Note_on_c, 9, 36, 121
1, 138240, Note_on_c, 9, 43, 94
1, 138479, Note_on_c, 9, 36, 0
1, 138479, Note_on_c, 9, 43, 0
1, 138480, Note_on_c, 9, 43, 86
1, 138719, Note_on_c, 9, 43, 0
1, 138720, Note_on_c, 9, 38, 102
1, 138720, Note_on_c, 9, 46, 100
1, 138960, Note_on_c, 9, 43, 76
1, 139079, Note_on_c, 9, 43, 0
1, 139080, Note_on_c, 9, 43, 89
1, 139199, Note_on_c, 9, 38, 0
1, 139199, Note_on_c, 9, 46, 0
1, 139199, Note_on_c, 9, 43, 0
1, 139200, Note_on_c, 9, 49, 100
1, 139200, Note_on_c, 9, 36, 121
1, 139679, Note_on_c, 9, 49, 0
1, 139679, Note_on_c, 9, 36, 0
1, 139680, Note_on_c, 9, 49, 85
1, 139680, Note_on_c, 9, 36, 119
1, 140159, Note_on_c, 9, 49, 0
1, 140159, Note_on_c, 9, 36, 0
1, 140160, Note_on_c, 9, 49, 100
1, 140160, Note_on_c, 9, 36, 125
1, 140399, Note_on_c, 9, 49, 0
1, 140400, Note_on_c, 9, 42, 69
1, 140639, Note_on_c, 9, 36, 0
1, 140639, Note_on_c, 9, 42, 0
1, 140640, Note_on_c, 9, 38, 95
1, 140640, Note_on_c, 9, 42, 72
1, 140879, Note_on_c, 9, 38, 0
1, 140879, Note_on_c, 9, 42, 0
1, 140880, Note_on_c, 9, 42, 71
1, 141119, Note_on_c, 9, 42, 0
1, 141120, Note_on_c, 9, 42, 67
1, 141120, Note_on_c, 9, 36, 124
1, 141359, Note_on_c, 9, 42, 0
1, 141360, Note_on_c, 9, 42, 69
1, 141599, Note_on_c, 9, 36, 0
1, 141599, Note_on_c, 9, 42, 0
1, 141600, Note_on_c, 9, 38, 102
1, 141600, Note_on_c, 9, 42, 65
1, 141839, Note_on_c, 9, 38, 0
1, 141839, Note_on_c, 9, 42, 0
1, 141840, Note_on_c, 9, 42, 68
1, 142079, Note_on_c, 9, 42, 0
1, 142080, Note_on_c, 9, 42, 74
1, 142080, Note_on_c, 9, 36, 125
1, 142319, Note_on_c, 9, 42, 0
1, 142320, Note_on_c, 9, 42, 65
1, 142559, Note_on_c, 9, 36, 0
1, 142559, Note_on_c, 9, 42, 0
1, 142560, Note_on_c, 9, 38, 94
1, 142560, Note_on_c, 9, 42, 75
1, 142799, Note_on_c, 9, 38, 0
1, 142799, Note_on_c, 9, 42, 0
1, 142800, Note_on_c, 9, 42, 67
1, 143039, Note_on_c, 9, 42, 0
1, 143040, Note_on_c, 9, 42, 65
1, 143040, Note_on_c, 9, 36, 119
1, 143279, Note_on_c, 9, 42, 0
1, 143280, Note_on_c, 9, 42, 69
1, 143519, Note_on_c, 9, 36, 0
1, 143519, Note_on_c, 9, 42, 0
1, 143520, Note_on_c, 9, 38, 100
1, 143520, Note_on_c, 9, 42, 76
1, 143759, Note_on_c, 9, 38, 0
1, 143759, Note_on_c, 9, 42, 0
1, 143760, Note_on_c, 9, 42, 74
1, 143999, Note_on_c, 9, 42, 0
1, 144000, Note_on_c, 9, 42, 65
1, 144000, Note_on_c, 9, 36, 121
1, 144239, Note_on_c, 9, 42, 0
1, 144240, Note_on_c, 9, 42, 76
1, 144479, Note_on_c, 9, 36, 0
1, 144479, Note_on_c, 9, 42, 0
1, 144480, Note_on_c, 9, 38, 100
1, 144480, Note_on_c, 9, 42, 67
1, 144719, Note_on_c, 9, 38, 0
1, 144719, Note_on_c, 9, 42, 0
1, 144720, Note_on_c, 9, 42, 75
1, 144959, Note_on_c, 9, 42, 0
1, 144960, Note_on_c, 9, 42, 72
1, 144960, Note_on_c, 9, 36, 126
1, 145199, Note_on_c, 9, 42, 0
1, 145200, Note_on_c, 9, 42, 69
1, 145439, Note_on_c, 9, 36, 0
1, 145439, Note_on_c, 9, 42, 0
1, 145440, Note_on_c, 9, 38, 99
1, 145440, Note_on_c, 9, 42, 76
1, 145679, Note_on_c, 9, 38, 0
1, 145679, Note_on_c, 9, 42, 0
1, 145680, Note_on_c, 9, 42, 72
1, 145919, Note_on_c, 9, 42, 0
1, 145920, Note_on_c, 9, 42, 76
1, 145920, Note_on_c, 9, 36, 124
1, 146159, Note_on_c, 9, 42, 0
1, 146160, Note_on_c, 9, 42, 65
1, 146399, Note_on_c, 9, 36, 0
1, 146399, Note_on_c, 9, 42, 0
1, 146400, Note_on_c, 9, 38, 98
1, 146400, Note_on_c, 9, 42, 74
1, 146639, Note_on_c, 9, 38, 0
1, 146639, Note_on_c, 9, 42, 0
1, 146640, Note_on_c, 9, 42, 66
1, 146879, Note_on_c, 9, 42, 0
1, 146880, Note_on_c, 9, 42, 75
1, 146880, Note_on_c, 9, 36, 121
1, 147119, Note_on_c, 9, 42, 0
1, 147120, Note_on_c, 9, 42, 75
1, 147359, Note_on_c, 9, 36, 0
1, 147359, Note_on_c, 9, 42, 0
1, 147360, Note_on_c, 9, 38, 99
1, 147360, Note_on_c, 9, 42, 66
1, 147599, Note_on_c, 9, 38, 0
1, 147599, Note_on_c, 9, 42, 0
1, 147600, Note_on_c, 9, 42, 67
1, 147839, Note_on_c, 9, 42, 0
1, 147840, Note_on_c, 9, 49, 80
1, 147840, Note_on_c, 9, 36, 126
1, 148079, Note_on_c, 9, 49, 0
1, 148080, Note_on_c, 9, 42, 65
1, 148319, Note_on_c, 9, 36, 0
1, 148319, Note_on_c, 9, 42, 0
1, 148320, Note_on_c, 9, 38, 94
1, 148320, Note_on_c, 9, 42, 71
1, 148559, Note_on_c, 9, 38, 0
1, 148559, Note_on_c, 9, 42, 0
1, 148560, Note_on_c, 9, 42, 68
1, 148799, Note_on_c, 9, 42, 0
1, 148800, Note_on_c, 9, 42, 72
1, 148800, Note_on_c, 9, 36, 120
1, 149039, Note_on_c, 9, 42, 0
1, 149040, Note_on_c, 9, 42, 73
1, 149279, Note_on_c, 9, 36, 0
1, 149279, Note_on_c, 9, 42, 0
1, 149280, Note_on_c, 9, 38, 97
1, 149280, Note_on_c, 9, 42, 66
1, 149519, Note_on_c, 9, 38, 0
1, 149519, Note_on_c, 9, 42, 0
1, 149520, Note_on_c, 9, 42, 76
1, 149759, Note_on_c, 9, 42, 0
1, 149760, Note_on_c, 9, 42, 75
1, 149760, Note_on_c, 9, 36, 122
1, 149999, Note_on_c, 9, 42, 0
1, 150000, Note_on_c, 9, 42, 71
1, 150239, Note_on_c, 9, 36, 0
1, 150239, Note_on_c, 9, 42, 0
1, 150240, Note_on_c, 9, 38, 100
1, 150240, Note_on_c, 9, 42, 69
1, 150479, Note_on_c, 9, 38, 0
1, 150479, Note_on_c, 9, 42, 0
1, 150480, Note_on_c, 9, 42, 74
1, 150719, Note_on_c, 9, 42, 0
1, 150720, Note_on_c, 9, 42, 71
1, 150720, Note_on_c, 9, 36, 125
1, 150959, Note_on_c, 9, 42, 0
1, 150960, Note_on_c, 9, 42, 72
1, 151199, Note_on_c, 9, 36, 0
1, 151199, Note_on_c, 9, 42, 0
1, 151200, Note_on_c, 9, 38, 94
1, 151200, Note_on_c, 9, 42, 76
1, 151439, Note_on_c, 9, 38, 0
1, 151439, Note_on_c, 9, 42, 0
1, 151440, Note_on_c, 9, 42, 74
1, 151679, Note_on_c, 9, 42, 0
1, 151680, Note_on_c, 9, 42, 66
1, 151680, Note_on_c, 9, 36, 122
1, 151919, Note_on_c, 9, 42, 0
1, 151920, Note_on_c, 9, 42, 65
1, 152159, Note_on_c, 9, 36, 0
1, 152159, Note_on_c, 9, 42, 0
1, 152160, Note_on_c, 9, 38, 101
1, 152160, Note_on_c, 9, 42, 72
1, 152399, Note_on_c, 9, 38, 0
1, 152399, Note_on_c, 9, 42, 0
1, 152400, Note_on_c, 9, 42, 66
1, 152639, Note_on_c, 9, 42, 0
1, 152640, Note_on_c, 9, 42, 76
1, 152640, Note_on_c, 9, 36, 125
1, 152879, Note_on_c, 9, 42, 0
1, 152880, Note_on_c, 9, 42, 67
1, 153119, Note_on_c, 9, 36, 0
1, 153119, Note_on_c, 9, 42, 0
1, 153120, Note_on_c, 9, 38, 96
1, 153120, Note_on_c, 9, 46, 85
1, 153359, Note_on_c, 9, 38, 0
1, 153359, Note_on_c, 9, 46, 0
1, 153360, Note_on_c, 9, 47, 99
1, 153479, Note_on_c, 9, 47, 0
1, 153480, Note_on_c, 9, 47, 84
1, 153599, Note_on_c, 9, 47, 0
1, 153600, Note_on_c, 9, 36, 123
1, 153600, Note_on_c, 9, 43, 94
1, 153839, Note_on_c, 9, 36, 0
1, 153839, Note_on_c, 9, 43, 0
1, 153840, Note_on_c, 9, 43, 86
1, 154079, Note_on_c, 9, 43, 0
1, 154080, Note_on_c, 9, 38, 97
1, 154080, Note_on_c, 9, 46, 90
1, 154320, Note_on_c, 9, 43, 77
1, 154559, Note_on_c, 9, 38, 0
1, 154559, Note_on_c, 9, 46, 0
1, 154559, Note_on_c, 9, 43, 0
1, 154560, Note_on_c, 9, 46, 97
1, 154560, Note_on_c, 9, 36, 122
1, 154799, Note_on_c, 9, 36, 0
1, 154800, Note_on_c, 9, 43, 68
1, 154919, Note_on_c, 9, 43, 0
1, 154920, Note_on_c, 9, 43, 82
1, 155039, Note_on_c, 9, 46, 0
1, 155039, Note_on_c, 9, 43, 0
1, 155040, Note_on_c, 9, 38, 102
1, 155159, Note_on_c, 9, 38, 0
1, 155160, Note_on_c, 9, 38, 96
1, 155279, Note_on_c, 9, 38, 0
1, 155280, Note_on_c, 9, 38, 96
1, 155399, Note_on_c, 9, 38, 0
1, 155400, Note_on_c, 9, 38, 101
1, 155519, Note_on_c, 9, 38, 0
1, 155520, Note_on_c, 9, 49, 94
1, 155520, Note_on_c, 9, 36, 120
1, 155759, Note_on_c, 9, 49, 0
1, 155760, Note_on_c, 9, 42, 67
1, 155999, Note_on_c, 9, 36, 0
1, 155999, Note_on_c, 9, 42, 0
1, 156000, Note_on_c, 9, 38, 100
1, 156000, Note_on_c, 9, 42, 74
1, 156239, Note_on_c, 9, 38, 0
1, 156239, Note_on_c, 9, 42, 0
1, 156240, Note_on_c, 9, 42, 66
1, 156479, Note_on_c, 9, 42, 0
1, 156480, Note_on_c, 9, 42, 65
1, 156480, Note_on_c, 9, 36, 121
1, 156719, Note_on_c, 9, 42, 0
1, 156720, Note_on_c, 9, 42, 75
1, 156959, Note_on_c, 9, 36, 0
1, 156959, Note_on_c, 9, 42, 0
1, 156960, Note_on_c, 9, 38, 100
1, 156960, Note_on_c, 9, 42, 68
1, 157199, Note_on_c, 9, 38, 0
1, 157199, Note_on_c, 9, 42, 0
1, 157200, Note_on_c, 9, 42, 74
1, 157439, Note_on_c, 9, 42, 0
1, 157440, Note_on_c, 9, 42, 74
1, 157440, Note_on_c, 9, 36, 125
1, 157679, Note_on_c, 9, 42, 0
1, 157680, Note_on_c, 9, 42, 74
1, 157919, Note_on_c, 9, 36, 0
1, 157919, Note_on_c, 9, 42, 0
1, 157920, Note_on_c, 9, 38, 95
1, 157920, Note_on_c, 9, 42, 73
1, 158159, Note_on_c, 9, 38, 0
1, 158159, Note_on_c, 9, 42, 0
1, 158160, Note_on_c, 9, 42, 70
1, 158399, Note_on_c, 9, 42, 0
1, 158400, Note_on_c, 9, 42, 70
1, 158400, Note_on_c, 9, 36, 122
1, 158639, Note_on_c, 9, 42, 0
1, 158640, Note_on_c, 9, 42, 67
1, 158879, Note_on_c, 9, 36, 0
1, 158879, Note_on_c, 9, 42, 0
1, 158880, Note_on_c, 9, 38, 96
1, 158880, Note_on_c, 9, 42, 76
1, 159119, Note_on_c, 9, 38, 0
1, 159119, Note_on_c, 9, 42, 0
1, 159120, Note_on_c, 9, 42, 74
1, 159359, Note_on_c, 9, 42, 0
1, 159360, Note_on_c, 9, 42, 72
1, 159360, Note_on_c, 9, 36, 124
1, 159599, Note_on_c, 9, 42, 0
1, 159600, Note_on_c, 9, 42, 75
1, 159839, Note_on_c, 9, 36, 0
1, 159839, Note_on_c, 9, 42, 0
1, 159840, Note_on_c, 9, 38, 100
1, 159840, Note_on_c, 9, 42, 66
1, 160079, Note_on_c, 9, 38, 0
1, 160079, Note_on_c, 9, 42, 0
1, 160080, Note_on_c, 9, 42, 72
1, 160319, Note_on_c, 9, 42, 0
1, 160320, Note_on_c, 9, 42, 65
1, 160320, Note_on_c, 9, 36, 122
1, 160559, Note_on_c, 9, 42, 0
1, 160560, Note_on_c, 9, 42, 65
1, 160799, Note_on_c, 9, 36, 0
1, 160799, Note_on_c, 9, 42, 0
1, 160800, Note_on_c, 9, 38, 102
1, 160800, Note_on_c, 9, 42, 67
1, 161039, Note_on_c, 9, 38, 0
1, 161039, Note_on_c, 9, 42, 0
1, 161040, Note_on_c, 9, 42, 67
1, 161279, Note_on_c, 9, 42, 0
1, 161280, Note_on_c, 9, 42, 74
1, 161280, Note_on_c, 9, 36, 126
1, 161519, Note_on_c, 9, 42, 0
1, 161520, Note_on_c, 9, 42, 75
1, 161759, Note_on_c, 9, 36, 0
1, 161759, Note_on_c, 9, 42, 0
1, 161760, Note_on_c, 9, 38, 101
1, 161760, Note_on_c, 9, 42, 68
1, 161999, Note_on_c, 9, 38, 0
1, 161999, Note_on_c, 9, 42, 0
1, 162000, Note_on_c, 9, 42, 68
1, 162239, Note_on_c, 9, 42, 0
1, 162240, Note_on_c, 9, 42, 74
1, 162240, Note_on_c, 9, 36, 123
1, 162479, Note_on_c, 9, 42, 0
1, 162480, Note_on_c, 9, 42, 67
1, 162719, Note_on_c, 9, 36, 0
1, 162719, Note_on_c, 9, 42, 0
1, 162720, Note_on_c, 9, 38, 99
1, 162720, Note_on_c, 9, 42, 73
1, 162959, Note_on_c, 9, 38, 0
1, 162959, Note_on_c, 9, 42, 0
1, 162960, Note_on_c, 9, 42, 72
1, 163199, Note_on_c, 9, 42, 0
1, 163200, Note_on_c, 9, 49, 78
1, 163200, Note_on_c, 9, 36, 121
1, 163439, Note_on_c, 9, 49, 0
1, 163440, Note_on_c, 9, 42, 68
1, 163679, Note_on_c, 9, 36, 0
1, 163679, Note_on_c, 9, 42, 0
1, 163680, Note_on_c, 9, 38, 94
1, 163680, Note_on_c, 9, 42, 68
1, 163919, Note_on_c, 9, 38, 0
1, 163919, Note_on_c, 9, 42, 0
1, 163920, Note_on_c, 9, 42, 68
1, 164159, Note_on_c, 9, 42, 0
1, 164160, Note_on_c, 9, 42, 75
1, 164160, Note_on_c, 9, 36, 119
1, 164399, Note_on_c, 9, 42, 0
1, 164400, Note_on_c, 9, 42, 73
1, 164639, Note_on_c, 9, 36, 0
1, 164639, Note_on_c, 9, 42, 0
1, 164640, Note_on_c, 9, 38, 95
1, 164640, Note_on_c, 9, 42, 66
1, 164879, Note_on_c, 9, 38, 0
1, 164879, Note_on_c, 9, 42, 0
1, 164880, Note_on_c, 9, 42, 69
1, 165119, Note_on_c, 9, 42, 0
1, 165120, Note_on_c, 9, 42, 74
1, 165120, Note_on_c, 9, 36, 123
1, 165359, Note_on_c, 9, 42, 0
1, 165360, Note_on_c, 9, 42, 74
1, 165599, Note_on_c, 9, 36, 0
1, 165599, Note_on_c, 9, 42, 0
1, 165600, Note_on_c, 9, 38, 100
1, 165600, Note_on_c, 9, 42, 74
1, 165839, Note_on_c, 9, 38, 0
1, 165839, Note_on_c, 9, 42, 0
1, 165840, Note_on_c, 9, 42, 74
1, 166079, Note_on_c, 9, 42, 0
1, 166080, Note_on_c, 9, 42, 67
1, 166080, Note_on_c, 9, 36, 123
1, 166319, Note_on_c, 9, 42, 0
1, 166320, Note_on_c, 9, 42, 76
1, 166559, Note_on_c, 9, 36, 0
1, 166559, Note_on_c, 9, 42, 0
1, 166560, Note_on_c, 9, 38, 99
1, 166560, Note_on_c, 9, 42, 68
1, 166799, Note_on_c, 9, 38, 0
1, 166799, Note_on_c, 9, 42, 0
1, 166800, Note_on_c, 9, 42, 76
1, 167039, Note_on_c, 9, 42, 0
1, 167040, Note_on_c, 9, 42, 74
1, 167040, Note_on_c, 9, 36, 121
1, 167279, Note_on_c, 9, 42, 0
1, 167280, Note_on_c, 9, 42, 65
1, 167519, Note_on_c, 9, 36, 0
1, 167519, Note_on_c, 9, 42, 0
1, 167520, Note_on_c, 9, 38, 99
1, 167520, Note_on_c, 9, 42, 67
1, 167759, Note_on_c, 9, 38, 0
1, 167759, Note_on_c, 9, 42, 0
1, 167760, Note_on_c, 9, 42, 68
1, 167999, Note_on_c, 9, 42, 0
1, 168000, Note_on_c, 9, 42, 75
1, 168000, Note_on_c, 9, 36, 124
1, 168239, Note_on_c, 9, 42, 0
1, 168240, Note_on_c, 9, 42, 75
1, 168479, Note_on_c, 9, 36, 0
1, 168479, Note_on_c, 9, 42, 0
1, 168480, Note_on_c, 9, 38, 99
1, 168480, Note_on_c, 9, 42, 66
1, 168719, Note_on_c, 9, 38, 0
1, 168719, Note_on_c, 9, 42, 0
1, 168720, Note_on_c, 9, 42, 68
1, 168959, Note_on_c, 9, 42, 0
1, 168960, Note_on_c, 9, 38, 94
1, 168960, Note_on_c, 9, 36, 124
1, 168960, Note_on_c, 9, 43, 94
1, 169439, Note_on_c, 9, 38, 0
1, 169439, Note_on_c, 9, 36, 0
1, 169439, Note_on_c, 9, 43, 0
1, 169440, Note_on_c, 9, 38, 100
1, 169440, Note_on_c, 9, 36, 125
1, 169440, Note_on_c, 9, 43, 115
1, 169919, Note_on_c, 9, 38, 0
1, 169919, Note_on_c, 9, 36, 0
1, 169919, Note_on_c, 9, 43, 0
1, 169920, Note_on_c, 9, 42, 67
1, 170369, Note_on_c, 9, 42, 0
1, 170370, Note_on_c, 9, 38, 98
1, 170399, Note_on_c, 9, 38, 0
1, 170400, Note_on_c, 9, 38, 97
1, 170639, Note_on_c, 9, 38, 0
1, 170640, Note_on_c, 9, 38, 94
1, 170879, Note_on_c, 9, 38, 0
1, 170880, Note_on_c, 9, 49, 91
1, 170880, Note_on_c, 9, 36, 119
1, 171119, Note_on_c, 9, 49, 0
1, 171120, Note_on_c, 9, 42, 71
1, 171359, Note_on_c, 9, 36, 0
1, 171359, Note_on_c, 9, 42, 0
1, 171360, Note_on_c, 9, 38, 99
1, 171360, Note_on_c, 9, 42, 73
1, 171599, Note_on_c, 9, 38, 0
1, 171599, Note_on_c, 9, 42, 0
1, 171600, Note_on_c, 9, 42, 66
1, 171839, Note_on_c, 9, 42, 0
1, 171840, Note_on_c, 9, 42, 73
1, 171840, Note_on_c, 9, 36, 122
1, 172079, Note_on_c, 9, 42, 0
1, 172080, Note_on_c, 9, 42, 75
1, 172319, Note_on_c, 9, 36, 0
1, 172319, Note_on_c, 9, 42, 0
1, 172320, Note_on_c, 9, 38, 99
1, 172320, Note_on_c, 9, 42, 75
1, 172559, Note_on_c, 9, 38, 0
1, 172559, Note_on_c, 9, 42, 0
1, 172560, Note_on_c, 9, 42, 66
1, 172799, Note_on_c, 9, 42, 0
1, 172800, Note_on_c, 9, 42, 71
1, 172800, Note_on_c, 9, 36, 126
1, 173039, Note_on_c, 9, 42, 0
1, 173040, Note_on_c, 9, 42, 74
1, 173279, Note_on_c, 9, 36, 0
1, 173279, Note_on_c, 9, 42, 0
1, 173280, Note_on_c, 9, 38, 102
1, 173280, Note_on_c, 9, 42, 68
1, 173519, Note_on_c, 9, 38, 0
1, 173519, Note_on_c, 9, 42, 0
1, 173520, Note_on_c, 9, 42, 66
1, 173759, Note_on_c, 9, 42, 0
1, 173760, Note_on_c, 9, 42, 69
1, 173760, Note_on_c, 9, 36, 125
1, 173999, Note_on_c, 9, 42, 0
1, 173999, Note_on_c, 9, 36, 0
1, 174000, Note_on_c, 9, 42, 69
1, 174000, Note_on_c, 9, 43, 101
1, 174239, Note_on_c, 9, 42, 0
1, 174239, Note_on_c, 9, 43, 0
1, 174240, Note_on_c, 9, 38, 96
1, 174240, Note_on_c, 9, 42, 74
1, 174479, Note_on_c, 9, 38, 0
1, 174479, Note_on_c, 9, 42, 0
1, 174480, Note_on_c, 9, 42, 68
1, 174480, Note_on_c, 9, 43, 107
1, 174719, Note_on_c, 9, 42, 0
1, 174719, Note_on_c, 9, 43, 0
1, 174720, Note_on_c, 9, 42, 76
1, 174720, Note_on_c, 9, 36, 123
1, 174959, Note_on_c, 9, 42, 0
1, 174960, Note_on_c, 9, 42, 74
1, 175199, Note_on_c, 9, 36, 0
1, 175199, Note_on_c, 9, 42, 0
1, 175200, Note_on_c, 9, 38, 97
1, 175200, Note_on_c, 9, 42, 71
1, 175439, Note_on_c, 9, 38, 0
1, 175439, Note_on_c, 9, 42, 0
1, 175440, Note_on_c, 9, 42, 65
1, 175679, Note_on_c, 9, 42, 0
1, 175680, Note_on_c, 9, 42, 75
1, 175680, Note_on_c, 9, 36, 119
1, 175919, Note_on_c, 9, 42, 0
1, 175920, Note_on_c, 9, 42, 65
1, 176159, Note_on_c, 9, 36, 0
1, 176159, Note_on_c, 9, 42, 0
1, 176160, Note_on_c, 9, 38, 96
1, 176160, Note_on_c, 9, 42, 65
1, 176399, Note_on_c, 9, 38, 0
1, 176399, Note_on_c, 9, 42, 0
1, 176400, Note_on_c, 9, 42, 69
1, 176639, Note_on_c, 9, 42, 0
1, 176640, Note_on_c, 9, 42, 72
1, 176640, Note_on_c, 9, 36, 119
1, 176879, Note_on_c, 9, 42, 0
1, 176880, Note_on_c, 9, 42, 75
1, 177119, Note_on_c, 9, 36, 0
1, 177119, Note_on_c, 9, 42, 0
1, 177120, Note_on_c, 9, 38, 94
1, 177120, Note_on_c, 9, 42, 74
1, 177359, Note_on_c, 9, 38, 0
1, 177359, Note_on_c, 9, 42, 0
1, 177360, Note_on_c, 9, 42, 68
1, 177599, Note_on_c, 9, 42, 0
1, 177600, Note_on_c, 9, 42, 76
1, 177600, Note_on_c, 9, 36, 126
1, 177839, Note_on_c, 9, 42, 0
1, 177839, Note_on_c, 9, 36, 0
1, 177840, Note_on_c, 9, 42, 71
1, 177840, Note_on_c, 9, 43, 101
1, 178079, Note_on_c, 9, 42, 0
1, 178079, Note_on_c, 9, 43, 0
1, 178080, Note_on_c, 9, 38, 94
1, 178080, Note_on_c, 9, 42, 72
1, 178319, Note_on_c, 9, 38, 0
1, 178319, Note_on_c, 9, 42, 0
1, 178320, Note_on_c, 9, 42, 68
1, 178320, Note_on_c, 9, 43, 107
1, 178559, Note_on_c, 9, 42, 0
1, 178559, Note_on_c, 9, 43, 0
1, 178560, Note_on_c, 9, 42, 68
1, 178560, Note_on_c, 9, 36, 120
1, 178799, Note_on_c, 9, 42, 0
1, 178800, Note_on_c, 9, 42, 75
1, 179039, Note_on_c, 9, 36, 0
1, 179039, Note_on_c, 9, 42, 0
1, 179040, Note_on_c, 9, 38, 97
1, 179040, Note_on_c, 9, 42, 65
1, 179279, Note_on_c, 9, 38, 0
1, 179279, Note_on_c, 9, 42, 0
1, 179280, Note_on_c, 9, 42, 65
1, 179519, Note_on_c, 9, 42, 0
1, 179520, Note_on_c, 9, 42, 72
1, 179520, Note_on_c, 9, 36, 119
1, 179759, Note_on_c, 9, 42, 0
1, 179760, Note_on_c, 9, 42, 73
1, 179999, Note_on_c, 9, 36, 0
1, 179999, Note_on_c, 9, 42, 0
1, 180000, Note_on_c, 9, 38, 101
1, 180000, Note_on_c, 9, 42, 73
1, 180239, Note_on_c, 9, 38, 0
1, 180239, Note_on_c, 9, 42, 0
1, 180240, Note_on_c, 9, 42, 72
1, 180479, Note_on_c, 9, 42, 0
1, 180480, Note_on_c, 9, 42, 73
1, 180480, Note_on_c, 9, 36, 125
1, 180719, Note_on_c, 9, 42, 0
1, 180720, Note_on_c, 9, 42, 73
1, 180959, Note_on_c, 9, 36, 0
1, 180959, Note_on_c, 9, 42, 0
1, 180960, Note_on_c, 9, 38, 100
1, 180960, Note_on_c, 9, 42, 75
1, 181199, Note_on_c, 9, 38, 0
1, 181199, Note_on_c, 9, 42, 0
1, 181200, Note_on_c, 9, 42, 66
1, 181439, Note_on_c, 9, 42, 0
1, 181440, Note_on_c, 9, 42, 75
1, 181440, Note_on_c, 9, 36, 119
1, 181679, Note_on_c, 9, 42, 0
1, 181679, Note_on_c, 9, 36, 0
1, 181680, Note_on_c, 9, 42, 71
1, 181680, Note_on_c, 9, 43, 101
1, 181919, Note_on_c, 9, 42, 0
1, 181919, Note_on_c, 9, 43, 0
1, 181920, Note_on_c, 9, 38, 98
1, 181920, Note_on_c, 9, 42, 76
1, 182159, Note_on_c, 9, 38, 0
1, 182159, Note_on_c, 9, 42, 0
1, 182160, Note_on_c, 9, 42, 67
1, 182160, Note_on_c, 9, 43, 107
1, 182399, Note_on_c, 9, 42, 0
1, 182399, Note_on_c, 9, 43, 0
1, 182400, Note_on_c, 9, 42, 66
1, 182400, Note_on_c, 9, 36, 124
1, 182639, Note_on_c, 9, 42, 0
1, 182640, Note_on_c, 9, 42, 75
1, 182879, Note_on_c, 9, 36, 0
1, 182879, Note_on_c, 9, 42, 0
1, 182880, Note_on_c, 9, 38, 99
1, 182880, Note_on_c, 9, 42, 71
1, 183119, Note_on_c, 9, 38, 0
1, 183119, Note_on_c, 9, 42, 0
1, 183120, Note_on_c, 9, 42, 67
1, 183359, Note_on_c, 9, 42, 0
1, 183360, Note_on_c, 9, 42, 73
1, 183360, Note_on_c, 9, 36, 122
1, 183599, Note_on_c, 9, 42, 0
1, 183600, Note_on_c, 9, 42, 65
1, 183839, Note_on_c, 9, 36, 0
1, 183839, Note_on_c, 9, 42, 0
1, 183840, Note_on_c, 9, 38, 98
1, 183840, Note_on_c, 9, 42, 70
1, 184079, Note_on_c, 9, 38, 0
1, 184079, Note_on_c, 9, 42, 0
1, 184080, Note_on_c, 9, 42, 71
1, 184319, Note_on_c, 9, 42, 0
1, 184320, Note_on_c, 9, 42, 65
1, 184320, Note_on_c, 9, 36, 124
1, 184559, Note_on_c, 9, 42, 0
1, 184560, Note_on_c, 9, 42, 66
1, 184799, Note_on_c, 9, 36, 0
1, 184799, Note_on_c, 9, 42, 0
1, 184800, Note_on_c, 9, 38, 97
1, 184800, Note_on_c, 9, 42, 67
1, 185039, Note_on_c, 9, 38, 0
1, 185039, Note_on_c, 9, 42, 0
1, 185040, Note_on_c, 9, 42, 73
1, 185279, Note_on_c, 9, 42, 0
1, 185280, Note_on_c, 9, 42, 67
1, 185280, Note_on_c, 9, 36, 126
1, 185519, Note_on_c, 9, 42, 0
1, 185519, Note_on_c, 9, 36, 0
1, 185520, Note_on_c, 9, 42, 69
1, 185520, Note_on_c, 9, 43, 101
1, 185759, Note_on_c, 9, 42, 0
1, 185759, Note_on_c, 9, 43, 0
1, 185760, Note_on_c, 9, 38, 98
1, 185760, Note_on_c, 9, 42, 74
1, 185999, Note_on_c, 9, 38, 0
1, 185999, Note_on_c, 9, 42, 0
1, 186000, Note_on_c, 9, 42, 70
1, 186000, Note_on_c, 9, 43, 107
1, 186239, Note_on_c, 9, 42, 0
1, 186239, Note_on_c, 9, 43, 0
1, 186240, Note_on_c, 9, 42, 68
1, 186240, Note_on_c, 9, 36, 125
1, 186479, Note_on_c, 9, 42, 0
1, 186480, Note_on_c, 9, 42, 73
1, 186719, Note_on_c, 9, 36, 0
1, 186719, Note_on_c, 9, 42, 0
1, 186720, Note_on_c, 9, 38, 100
1, 186720, Note_on_c, 9, 42, 69
1, 186959, Note_on_c, 9, 38, 0
1, 186959, Note_on_c, 9, 42, 0
1, 186960, Note_on_c, 9, 42, 72
1, 187199, Note_on_c, 9, 42, 0
1, 187200, Note_on_c, 9, 42, 70
1, 187200, Note_on_c, 9, 36, 119
1, 187439, Note_on_c, 9, 42, 0
1, 187440, Note_on_c, 9, 42, 74
1, 187679, Note_on_c, 9, 36, 0
1, 187679, Note_on_c, 9, 42, 0
1, 187680, Note_on_c, 9, 38, 100
1, 187680, Note_on_c, 9, 42, 74
1, 187919, Note_on_c, 9, 38, 0
1, 187919, Note_on_c, 9, 42, 0
1, 187920, Note_on_c, 9, 42, 71
1, 188159, Note_on_c, 9, 42, 0
1, 188160, Note_on_c, 9, 42, 75
1, 188160, Note_on_c, 9, 36, 124
1, 188399, Note_on_c, 9, 42, 0
1, 188400, Note_on_c, 9, 42, 65
1, 188639, Note_on_c, 9, 36, 0
1, 188639, Note_on_c, 9, 42, 0
1, 188640, Note_on_c, 9, 38, 95
1, 188640, Note_on_c, 9, 42, 70
1, 188879, Note_on_c, 9, 38, 0
1, 188879, Note_on_c, 9, 42, 0
1, 188880, Note_on_c, 9, 42, 75
1, 189119, Note_on_c, 9, 42, 0
1, 189120, Note_on_c, 9, 42, 73
1, 189120, Note_on_c, 9, 36, 119
1, 189359, Note_on_c, 9, 42, 0
1, 189359, Note_on_c, 9, 36, 0
1, 189360, Note_on_c, 9, 42, 73
1, 189360, Note_on_c, 9, 43, 101
1, 189599, Note_on_c, 9, 42, 0
1, 189599, Note_on_c, 9, 43, 0
1, 189600, Note_on_c, 9, 38, 97
1, 189600, Note_on_c, 9, 42, 75
1, 189839, Note_on_c, 9, 38, 0
1, 189839, Note_on_c, 9, 42, 0
1, 189840, Note_on_c, 9, 42, 69
1, 189840, Note_on_c, 9, 43, 107
1, 190079, Note_on_c, 9, 42, 0
1, 190079, Note_on_c, 9, 43, 0
1, 190080, Note_on_c, 9, 42, 67
1, 190080, Note_on_c, 9, 36, 125
1, 190319, Note_on_c, 9, 42, 0
1, 190320, Note_on_c, 9, 42, 65
1, 190559, Note_on_c, 9, 36, 0
1, 190559, Note_on_c, 9, 42, 0
1, 190560, Note_on_c, 9, 38, 102
1, 190560, Note_on_c, 9, 42, 70
1, 190799, Note_on_c, 9, 38, 0
1, 190799, Note_on_c, 9, 42, 0
1, 190800, Note_on_c, 9, 42, 65
1, 191039, Note_on_c, 9, 42, 0
1, 191040, Note_on_c, 9, 42, 66
1, 191040, Note_on_c, 9, 36, 120
1, 191279, Note_on_c, 9, 42, 0
1, 191280, Note_on_c, 9, 42, 71
1, 191519, Note_on_c, 9, 36, 0
1, 191519, Note_on_c, 9, 42, 0
1, 191520, Note_on_c, 9, 38, 96
1, 191520, Note_on_c, 9, 42, 73
1, 191759, Note_on_c, 9, 38, 0
1, 191759, Note_on_c, 9, 42, 0
1, 191760, Note_on_c, 9, 42, 73
1, 191999, Note_on_c, 9, 42, 0
1, 192000, Note_on_c, 9, 42, 76
1, 192000, Note_on_c, 9, 36, 123
1, 192239, Note_on_c, 9, 42, 0
1, 192240, Note_on_c, 9, 42, 74
1, 192479, Note_on_c, 9, 36, 0
1, 192479, Note_on_c, 9, 42, 0
1, 192480, Note_on_c, 9, 38, 94
1, 192480, Note_on_c, 9, 42, 65
1, 192719, Note_on_c, 9, 38, 0
1, 192719, Note_on_c, 9, 42, 0
1, 192720, Note_on_c, 9, 42, 68
1, 192959, Note_on_c, 9, 42, 0
1, 192960, Note_on_c, 9, 42, 76
1, 192960, Note_on_c, 9, 36, 119
1, 193199, Note_on_c, 9, 42, 0
1, 193199, Note_on_c, 9, 36, 0
1, 193200, Note_on_c, 9, 42, 76
1, 193200, Note_on_c, 9, 43, 101
1, 193439, Note_on_c, 9, 42, 0
1, 193439, Note_on_c, 9, 43, 0
1, 193440, Note_on_c, 9, 38, 100
1, 193440, Note_on_c, 9, 42, 72
1, 193679, Note_on_c, 9, 38, 0
1, 193679, Note_on_c, 9, 42, 0
1, 193680, Note_on_c, 9, 42, 65
1, 193680, Note_on_c, 9, 43, 107
1, 193919, Note_on_c, 9, 42, 0
1, 193919, Note_on_c, 9, 43, 0
1, 193920, Note_on_c, 9, 42, 66
1, 193920, Note_on_c, 9, 36, 121
1, 194159, Note_on_c, 9, 42, 0
1, 194160, Note_on_c, 9, 42, 66
1, 194399, Note_on_c, 9, 36, 0
1, 194399, Note_on_c, 9, 42, 0
1, 194400, Note_on_c, 9, 38, 98
1, 194400, Note_on_c, 9, 42, 70
1, 194639, Note_on_c, 9, 38, 0
1, 194639, Note_on_c, 9, 42, 0
1, 194640, Note_on_c, 9, 42, 74
1, 194879, Note_on_c, 9, 42, 0
1, 194880, Note_on_c, 9, 42, 71
1, 194880, Note_on_c, 9, 36, 124
1, 195119, Note_on_c, 9, 42, 0
1, 195120, Note_on_c, 9, 42, 72
1, 195359, Note_on_c, 9, 36, 0
1, 195359, Note_on_c, 9, 42, 0
1, 195360, Note_on_c, 9, 38, 99
1, 195360, Note_on_c, 9, 42, 67
1, 195599, Note_on_c, 9, 38, 0
1, 195599, Note_on_c, 9, 42, 0
1, 195600, Note_on_c, 9, 42, 76
1, 195839, Note_on_c, 9, 42, 0
1, 195840, Note_on_c, 9, 42, 75
1, 195840, Note_on_c, 9, 36, 123
1, 196079, Note_on_c, 9, 42, 0
1, 196080, Note_on_c, 9, 42, 73
1, 196319, Note_on_c, 9, 36, 0
1, 196319, Note_on_c, 9, 42, 0
1, 196320, Note_on_c, 9, 38, 99
1, 196320, Note_on_c, 9, 42, 75
1, 196559, Note_on_c, 9, 38, 0
1, 196559, Note_on_c, 9, 42, 0
1, 196560, Note_on_c, 9, 42, 67
1, 196799, Note_on_c, 9, 42, 0
1, 196800, Note_on_c, 9, 42, 67
1, 196800, Note_on_c, 9, 36, 126
1, 197039, Note_on_c, 9, 42, 0
1, 197039, Note_on_c, 9, 36, 0
1, 197040, Note_on_c, 9, 42, 68
1, 197040, Note_on_c, 9, 43, 101
1, 197279, Note_on_c, 9, 42, 0
1, 197279, Note_on_c, 9, 43, 0
1, 197280, Note_on_c, 9, 38, 101
1, 197280, Note_on_c, 9, 42, 70
1, 197519, Note_on_c, 9, 38, 0
1, 197519, Note_on_c, 9, 42, 0
1, 197520, Note_on_c, 9, 42, 65
1, 197520, Note_on_c, 9, 43, 107
1, 197759, Note_on_c, 9, 42, 0
1, 197759, Note_on_c, 9, 43, 0
1, 197760, Note_on_c, 9, 42, 76
1, 197760, Note_on_c, 9, 36, 125
1, 197999, Note_on_c, 9, 42, 0
1, 198000, Note_on_c, 9, 42, 66
1, 198239, Note_on_c, 9, 36, 0
1, 198239, Note_on_c, 9, 42, 0
1, 198240, Note_on_c, 9, 38, 100
1, 198240, Note_on_c, 9, 42, 74
1, 198479, Note_on_c, 9, 38, 0
1, 198479, Note_on_c, 9, 42, 0
1, 198480, Note_on_c, 9, 42, 66
1, 198719, Note_on_c, 9, 42, 0
1, 198720, Note_on_c, 9, 42, 70
1, 198720, Note_on_c, 9, 36, 121
1, 198959, Note_on_c, 9, 42, 0
1, 198960, Note_on_c, 9, 42, 65
1, 199199, Note_on_c, 9, 36, 0
1, 199199, Note_on_c, 9, 42, 0
1, 199200, Note_on_c, 9, 38, 98
1, 199200, Note_on_c, 9, 42, 74
1, 199439, Note_on_c, 9, 38, 0
1, 199439, Note_on_c, 9, 42, 0
1, 199440, Note_on_c, 9, 42, 76
1, 199679, Note_on_c, 9, 42, 0
1, 199680, Note_on_c, 9, 42, 66
1, 199680, Note_on_c, 9, 36, 124
1, 199919, Note_on_c, 9, 42, 0
1, 199920, Note_on_c, 9, 42, 74
1, 200159, Note_on_c, 9, 36, 0
1, 200159, Note_on_c, 9, 42, 0
1, 200160, Note_on_c, 9, 38, 96
1, 200160, Note_on_c, 9, 42, 74
1, 200399, Note_on_c, 9, 38, 0
1, 200399, Note_on_c, 9, 42, 0
1, 200400, Note_on_c, 9, 38, 94
1, 200400, Note_on_c, 9, 42, 73
1, 200519, Note_on_c, 9, 38, 0
1, 200519, Note_on_c, 9, 42, 0
1, 200520, Note_on_c, 9, 38, 97
1, 200639, Note_on_c, 9, 38, 0
1, 200640, Note_on_c, 9, 49, 92
1, 200640, Note_on_c, 9, 36, 120
1, 201119, Note_on_c, 9, 49, 0
1, 201119, Note_on_c, 9, 36, 0
1, 201120, Note_on_c, 9, 46, 73
1, 201120, Note_on_c, 9, 49, 94
1, 201120, Note_on_c, 9, 36, 126
1, 201599, Note_on_c, 9, 46, 0
1, 201599, Note_on_c, 9, 49, 0
1, 201599, Note_on_c, 9, 36, 0
1, 201600, Note_on_c, 9, 49, 74
1, 201600, Note_on_c, 9, 36, 124
1, 202079, Note_on_c, 9, 49, 0
1, 202079, Note_on_c, 9, 36, 0
1, 202080, Note_on_c, 9, 36, 125
1, 202559, Note_on_c, 9, 36, 0
1, 203040, Note_on_c, 9, 36, 123
1, 203519, Note_on_c, 9, 36, 0
1, 204000, Note_on_c, 9, 36, 125
1, 204479, Note_on_c, 9, 36, 0
1, 204960, Note_on_c, 9, 36, 125
1, 205439, Note_on_c, 9, 36, 0
1, 205920, Note_on_c, 9, 36, 123
1, 206399, Note_on_c, 9, 36, 0
1, 206880, Note_on_c, 9, 38, 96
1, 206880, Note_on_c, 9, 36, 121
1, 207119, Note_on_c, 9, 38, 0
1, 207120, Note_on_c, 9, 38, 100
1, 207359, Note_on_c, 9, 36, 0
1, 207359, Note_on_c, 9, 38, 0
1, 207840, Note_on_c, 9, 38, 99
1, 207840, Note_on_c, 9, 36, 121
1, 208319, Note_on_c, 9, 38, 0
1, 208319, Note_on_c, 9, 36, 0
1, 208800, Note_on_c, 9, 38, 97
1, 208800, Note_on_c, 9, 36, 123
1, 209279, Note_on_c, 9, 38, 0
1, 209279, Note_on_c, 9, 36, 0
1, 209280, Note_on_c, 9, 49, 100
1, 209280, Note_on_c, 9, 36, 123
1, 209519, Note_on_c, 9, 49, 0
1, 209520, Note_on_c, 9, 42, 72
1, 209759, Note_on_c, 9, 36, 0
1, 209759, Note_on_c, 9, 42, 0
1, 209760, Note_on_c, 9, 38, 97
1, 209760, Note_on_c, 9, 42, 73
1, 209999, Note_on_c, 9, 38, 0
1, 209999, Note_on_c, 9, 42, 0
1, 210000, Note_on_c, 9, 42, 68
1, 210239, Note_on_c, 9, 42, 0
1, 210240, Note_on_c, 9, 42, 66
1, 210240, Note_on_c, 9, 36, 121
1, 210479, Note_on_c, 9, 42, 0
1, 210480, Note_on_c, 9, 42, 71
1, 210719, Note_on_c, 9, 36, 0
1, 210719, Note_on_c, 9, 42, 0
1, 210720, Note_on_c, 9, 38, 100
1, 210720, Note_on_c, 9, 42, 75
1, 210959, Note_on_c, 9, 38, 0
1, 210959, Note_on_c, 9, 42, 0
1, 210960, Note_on_c, 9, 42, 74
1, 211199, Note_on_c, 9, 42, 0
1, 211200, Note_on_c, 9, 42, 65
1, 211200, Note_on_c, 9, 36, 123
1, 211439, Note_on_c, 9, 42, 0
1, 211440, Note_on_c, 9, 42, 67
1, 211679, Note_on_c, 9, 36, 0
1, 211679, Note_on_c, 9, 42, 0
1, 211680, Note_on_c, 9, 38, 99
1, 211680, Note_on_c, 9, 42, 72
1, 211919, Note_on_c, 9, 38, 0
1, 211919, Note_on_c, 9, 42, 0
1, 211920, Note_on_c, 9, 42, 65
1, 212159, Note_on_c, 9, 42, 0
1, 212160, Note_on_c, 9, 42, 65
1, 212160, Note_on_c, 9, 36, 126
1, 212399, Note_on_c, 9, 42, 0
1, 212400, Note_on_c, 9, 42, 72
1, 212639, Note_on_c, 9, 36, 0
1, 212639, Note_on_c, 9, 42, 0
1, 212640, Note_on_c, 9, 38, 101
1, 212640, Note_on_c, 9, 42, 73
1, 212879, Note_on_c, 9, 38, 0
1, 212879, Note_on_c, 9, 42, 0
1, 212880, Note_on_c, 9, 42, 70
1, 213119, Note_on_c, 9, 42, 0
1, 213120, Note_on_c, 9, 42, 74
1, 213120, Note_on_c, 9, 36, 119
1, 213359, Note_on_c, 9, 42, 0
1, 213360, Note_on_c, 9, 42, 74
1, 213599, Note_on_c, 9, 36, 0
1, 213599, Note_on_c, 9, 42, 0
1, 213600, Note_on_c, 9, 38, 98
1, 213600, Note_on_c, 9, 42, 74
1, 213839, Note_on_c, 9, 38, 0
1, 213839, Note_on_c, 9, 42, 0
1, 213840, Note_on_c, 9, 42, 75
1, 214079, Note_on_c, 9, 42, 0
1, 214080, Note_on_c, 9, 42, 70
1, 214080, Note_on_c, 9, 36, 126
1, 214319, Note_on_c, 9, 42, 0
1, 214320, Note_on_c, 9, 42, 68
1, 214559, Note_on_c, 9, 36, 0
1, 214559, Note_on_c, 9, 42, 0
1, 214560, Note_on_c, 9, 38, 95
1, 214560, Note_on_c, 9, 42, 66
1, 214799, Note_on_c, 9, 38, 0
1, 214799, Note_on_c, 9, 42, 0
1, 214800, Note_on_c, 9, 42, 67
1, 215039, Note_on_c, 9, 42, 0
1, 215040, Note_on_c, 9, 42, 68
1, 215040, Note_on_c, 9, 36, 121
1, 215279, Note_on_c, 9, 42, 0
1, 215280, Note_on_c, 9, 42, 65
1, 215519, Note_on_c, 9, 36, 0
1, 215519, Note_on_c, 9, 42, 0
1, 215520, Note_on_c, 9, 38, 101
1, 215520, Note_on_c, 9, 42, 75
1, 215759, Note_on_c, 9, 38, 0
1, 215759, Note_on_c, 9, 42, 0
1, 215760, Note_on_c, 9, 42, 76
1, 215999, Note_on_c, 9, 42, 0
1, 216000, Note_on_c, 9, 42, 71
1, 216000, Note_on_c, 9, 36, 123
1, 216239, Note_on_c, 9, 42, 0
1, 216240, Note_on_c, 9, 42, 69
1, 216479, Note_on_c, 9, 36, 0
1, 216479, Note_on_c, 9, 42, 0
1, 216480, Note_on_c, 9, 38, 98
1, 216480, Note_on_c, 9, 42, 65
1, 216719, Note_on_c, 9, 38, 0
1, 216719, Note_on_c, 9, 42, 0
1, 216720, Note_on_c, 9, 42, 67
1, 216959, Note_on_c, 9, 42, 0
1, 216960, Note_on_c, 9, 49, 80
1, 216960, Note_on_c, 9, 36, 123
1, 217199, Note_on_c, 9, 49, 0
1, 217200, Note_on_c, 9, 42, 74
1, 217439, Note_on_c, 9, 36, 0
1, 217439, Note_on_c, 9, 42, 0
1, 217440, Note_on_c, 9, 38, 98
1, 217440, Note_on_c, 9, 42, 70
1, 217679, Note_on_c, 9, 38, 0
1, 217679, Note_on_c, 9, 42, 0
1, 217680, Note_on_c, 9, 42, 66
1, 217919, Note_on_c, 9, 42, 0
1, 217920, Note_on_c, 9, 42, 74
1, 217920, Note_on_c, 9, 36, 122
1, 218159, Note_on_c, 9, 42, 0
1, 218160, Note_on_c, 9, 42, 65
1, 218399, Note_on_c, 9, 36, 0
1, 218399, Note_on_c, 9, 42, 0
1, 218400, Note_on_c, 9, 38, 97
1, 218400, Note_on_c, 9, 42, 70
1, 218639, Note_on_c, 9, 38, 0
1, 218639, Note_on_c, 9, 42, 0
1, 218640, Note_on_c, 9, 42, 66
1, 218879, Note_on_c, 9, 42, 0
1, 218880, Note_on_c, 9, 42, 76
1, 218880, Note_on_c, 9, 36, 125
1, 219119, Note_on_c, 9, 42, 0
1, 219120, Note_on_c, 9, 42, 68
1, 219359, Note_on_c, 9, 36, 0
1, 219359, Note_on_c, 9, 42, 0
1, 219360, Note_on_c, 9, 38, 96
1, 219360, Note_on_c, 9, 42, 74
1, 219599, Note_on_c, 9, 38, 0
1, 219599, Note_on_c, 9, 42, 0
1, 219600, Note_on_c, 9, 42, 67
1, 219839, Note_on_c, 9, 42, 0
1, 219840, Note_on_c, 9, 42, 69
1, 219840, Note_on_c, 9, 36, 125
1, 220079, Note_on_c, 9, 42, 0
1, 220080, Note_on_c, 9, 42, 67
1, 220319, Note_on_c, 9, 36, 0
1, 220319, Note_on_c, 9, 42, 0
1, 220320, Note_on_c, 9, 38, 96
1, 220320, Note_on_c, 9, 42, 76
1, 220559, Note_on_c, 9, 38, 0
1, 220559, Note_on_c, 9, 42, 0
1, 220560, Note_on_c, 9, 42, 65
1, 220799, Note_on_c, 9, 42, 0
1, 220800, Note_on_c, 9, 42, 76
1, 220800, Note_on_c, 9, 36, 120
1, 221039, Note_on_c, 9, 42, 0
1, 221040, Note_on_c, 9, 42, 68
1, 221279, Note_on_c, 9, 36, 0
1, 221279, Note_on_c, 9, 42, 0
1, 221280, Note_on_c, 9, 38, 96
1, 221280, Note_on_c, 9, 42, 74
1, 221519, Note_on_c, 9, 38, 0
1, 221519, Note_on_c, 9, 42, 0
1, 221520, Note_on_c, 9, 42, 73
1, 221759, Note_on_c, 9, 42, 0
1, 221760, Note_on_c, 9, 42, 68
1, 221760, Note_on_c, 9, 36, 125
1, 221999, Note_on_c, 9, 42, 0
1, 222000, Note_on_c, 9, 42, 73
1, 222239, Note_on_c, 9, 36, 0
1, 222239, Note_on_c, 9, 42, 0
1, 222240, Note_on_c, 9, 38, 95
1, 222240, Note_on_c, 9, 46, 85
1, 222479, Note_on_c, 9, 38, 0
1, 222479, Note_on_c, 9, 46, 0
1, 222480, Note_on_c, 9, 47, 99
1, 222599, Note_on_c, 9, 47, 0
1, 222600, Note_on_c, 9, 47, 84
1, 222719, Note_on_c, 9, 47, 0
1, 222720, Note_on_c, 9, 36, 126
1, 222720, Note_on_c, 9, 43, 94
1, 222959, Note_on_c, 9, 36, 0
1, 222959, Note_on_c, 9, 43, 0
1, 222960, Note_on_c, 9, 43, 86
1, 223199, Note_on_c, 9, 43, 0
1, 223200, Note_on_c, 9, 38, 94
1, 223200, Note_on_c, 9, 46, 90
1, 223440, Note_on_c, 9, 43, 77
1, 223679, Note_on_c, 9, 38, 0
1, 223679, Note_on_c, 9, 46, 0
1, 223679, Note_on_c, 9, 43, 0
1, 223680, Note_on_c, 9, 46, 97
1, 223680, Note_on_c, 9, 36, 125
1, 223919, Note_on_c, 9, 36, 0
1, 223920, Note_on_c, 9, 43, 68
1, 224039, Note_on_c, 9, 43, 0
1, 224040, Note_on_c, 9, 43, 82
1, 224159, Note_on_c, 9, 46, 0
1, 224159, Note_on_c, 9, 43, 0
1, 224160, Note_on_c, 9, 38, 102
1, 224279, Note_on_c, 9, 38, 0
1, 224280, Note_on_c, 9, 38, 101
1, 224399, Note_on_c, 9, 38, 0
1, 224400, Note_on_c, 9, 38, 94
1, 224519, Note_on_c, 9, 38, 0
1, 224520, Note_on_c, 9, 38, 100
1, 224639, Note_on_c, 9, 38, 0
1, 224640, Note_on_c, 9, 49, 94
1, 224640, Note_on_c, 9, 36, 124
1, 224879, Note_on_c, 9, 49, 0
1, 224880, Note_on_c, 9, 42, 65
1, 225119, Note_on_c, 9, 36, 0
1, 225119, Note_on_c, 9, 42, 0
1, 225120, Note_on_c, 9, 38, 101
1, 225120, Note_on_c, 9, 42, 65
1, 225359, Note_on_c, 9, 38, 0
1, 225359, Note_on_c, 9, 42, 0
1, 225360, Note_on_c, 9, 42, 68
1, 225599, Note_on_c, 9, 42, 0
1, 225600, Note_on_c, 9, 42, 68
1, 225600, Note_on_c, 9, 36, 122
1, 225839, Note_on_c, 9, 42, 0
1, 225840, Note_on_c, 9, 42, 67
1, 226079, Note_on_c, 9, 36, 0
1, 226079, Note_on_c, 9, 42, 0
1, 226080, Note_on_c, 9, 38, 100
1, 226080, Note_on_c, 9, 42, 72
1, 226319, Note_on_c, 9, 38, 0
1, 226319, Note_on_c, 9, 42, 0
1, 226320, Note_on_c, 9, 42, 66
1, 226559, Note_on_c, 9, 42, 0
1, 226560, Note_on_c, 9, 42, 73
1, 226560, Note_on_c, 9, 36, 123
1, 226799, Note_on_c, 9, 42, 0
1, 226800, Note_on_c, 9, 42, 73
1, 227039, Note_on_c, 9, 36, 0
1, 227039, Note_on_c, 9, 42, 0
1, 227040, Note_on_c, 9, 38, 102
1, 227040, Note_on_c, 9, 42, 72
1, 227279, Note_on_c, 9, 38, 0
1, 227279, Note_on_c, 9, 42, 0
1, 227280, Note_on_c, 9, 42, 73
1, 227519, Note_on_c, 9, 42, 0
1, 227520, Note_on_c, 9, 42, 67
1, 227520, Note_on_c, 9, 36, 120
1, 227759, Note_on_c, 9, 42, 0
1, 227760, Note_on_c, 9, 42, 75
1, 227999, Note_on_c, 9, 36, 0
1, 227999, Note_on_c, 9, 42, 0
1, 228000, Note_on_c, 9, 38, 101
1, 228000, Note_on_c, 9, 42, 72
1, 228239, Note_on_c, 9, 38, 0
1, 228239, Note_on_c, 9, 42, 0
1, 228240, Note_on_c, 9, 42, 68
1, 228479, Note_on_c, 9, 42, 0
1, 228480, Note_on_c, 9, 42, 76
1, 228480, Note_on_c, 9, 36, 120
1, 228719, Note_on_c, 9, 42, 0
1, 228720, Note_on_c, 9, 42, 73
1, 228959, Note_on_c, 9, 36, 0
1, 228959, Note_on_c, 9, 42, 0
1, 228960, Note_on_c, 9, 38, 98
1, 228960, Note_on_c, 9, 42, 73
1, 229199, Note_on_c, 9, 38, 0
1, 229199, Note_on_c, 9, 42, 0
1, 229200, Note_on_c, 9, 42, 71
1, 229439, Note_on_c, 9, 42, 0
1, 229440, Note_on_c, 9, 42, 67
1, 229440, Note_on_c, 9, 36, 119
1, 229679, Note_on_c, 9, 42, 0
1, 229680, Note_on_c, 9, 42, 72
1, 229919, Note_on_c, 9, 36, 0
1, 229919, Note_on_c, 9, 42, 0
1, 229920, Note_on_c, 9, 38, 101
1, 229920, Note_on_c, 9, 42, 76
1, 230159, Note_on_c, 9, 38, 0
1, 230159, Note_on_c, 9, 42, 0
1, 230160, Note_on_c, 9, 42, 69
1, 230399, Note_on_c, 9, 42, 0
1, 230400, Note_on_c, 9, 42, 71
1, 230400, Note_on_c, 9, 36, 119
1, 230639, Note_on_c, 9, 42, 0
1, 230640, Note_on_c, 9, 42, 73
1, 230879, Note_on_c, 9, 36, 0
1, 230879, Note_on_c, 9, 42, 0
1, 230880, Note_on_c, 9, 38, 100
1, 230880, Note_on_c, 9, 42, 71
1, 231119, Note_on_c, 9, 38, 0
1, 231119, Note_on_c, 9, 42, 0
1, 231120, Note_on_c, 9, 42, 76
1, 231359, Note_on_c, 9, 42, 0
1, 231360, Note_on_c, 9, 42, 71
1, 231360, Note_on_c, 9, 36, 126
1, 231599, Note_on_c, 9, 42, 0
1, 231600, Note_on_c, 9, 42, 70
1, 231839, Note_on_c, 9, 36, 0
1, 231839, Note_on_c, 9, 42, 0
1, 231840, Note_on_c, 9, 38, 97
1, 231840, Note_on_c, 9, 42, 70
1, 232079, Note_on_c, 9, 38, 0
1, 232079, Note_on_c, 9, 42, 0
1, 232080, Note_on_c, 9, 42, 72
1, 232319, Note_on_c, 9, 42, 0
1, 232320, Note_on_c, 9, 49, 78
1, 232320, Note_on_c, 9, 36, 126
1, 232559, Note_on_c, 9, 49, 0
1, 232560, Note_on_c, 9, 42, 65
1, 232799, Note_on_c, 9, 36, 0
1, 232799, Note_on_c, 9, 42, 0
1, 232800, Note_on_c, 9, 38, 100
1, 232800, Note_on_c, 9, 42, 76
1, 233039, Note_on_c, 9, 38, 0
1, 233039, Note_on_c, 9, 42, 0
1, 233040, Note_on_c, 9, 42, 75
1, 233279, Note_on_c, 9, 42, 0
1, 233280, Note_on_c, 9, 42, 72
1, 233280, Note_on_c, 9, 36, 124
1, 233519, Note_on_c, 9, 42, 0
1, 233520, Note_on_c, 9, 42, 73
1, 233759, Note_on_c, 9, 36, 0
1, 233759, Note_on_c, 9, 42, 0
1, 233760, Note_on_c, 9, 38, 96
1, 233760, Note_on_c, 9, 42, 68
1, 233999, Note_on_c, 9, 38, 0
1, 233999, Note_on_c, 9, 42, 0
1, 234000, Note_on_c, 9, 42, 73
1, 234239, Note_on_c, 9, 42, 0
1, 234240, Note_on_c, 9, 42, 70
1, 234240, Note_on_c, 9, 36, 119
1, 234479, Note_on_c, 9, 42, 0
1, 234480, Note_on_c, 9, 42, 74
1, 234719, Note_on_c, 9, 36, 0
1, 234719, Note_on_c, 9, 42, 0
1, 234720, Note_on_c, 9, 38, 94
1, 234720, Note_on_c, 9, 42, 74
1, 234959, Note_on_c, 9, 38, 0
1, 234959, Note_on_c, 9, 42, 0
1, 234960, Note_on_c, 9, 42, 69
1, 235199, Note_on_c, 9, 42, 0
1, 235200, Note_on_c, 9, 42, 65
1, 235200, Note_on_c, 9, 36, 122
1, 235439, Note_on_c, 9, 42, 0
1, 235440, Note_on_c, 9, 42, 73
1, 235679, Note_on_c, 9, 36, 0
1, 235679, Note_on_c, 9, 42, 0
1, 235680, Note_on_c, 9, 38, 101
1, 235680, Note_on_c, 9, 42, 66
1, 235919, Note_on_c, 9, 38, 0
1, 235919, Note_on_c, 9, 42, 0
1, 235920, Note_on_c, 9, 42, 73
1, 236159, Note_on_c, 9, 42, 0
1, 236160, Note_on_c, 9, 42, 75
1, 236160, Note_on_c, 9, 36, 126
1, 236399, Note_on_c, 9, 42, 0
1, 236400, Note_on_c, 9, 42, 66
1, 236639, Note_on_c, 9, 36, 0
1, 236639, Note_on_c, 9, 42, 0
1, 236640, Note_on_c, 9, 38, 95
1, 236640, Note_on_c, 9, 42, 65
1, 236879, Note_on_c, 9, 38, 0
1, 236879, Note_on_c, 9, 42, 0
1, 236880, Note_on_c, 9, 42, 73
1, 237119, Note_on_c, 9, 42, 0
1, 237120, Note_on_c, 9, 42, 68
1, 237120, Note_on_c, 9, 36, 122
1, 237359, Note_on_c, 9, 42, 0
1, 237360, Note_on_c, 9, 42, 69
1, 237599, Note_on_c, 9, 36, 0
1, 237599, Note_on_c, 9, 42, 0
1, 237600, Note_on_c, 9, 38, 98
1, 237600, Note_on_c, 9, 46, 85
1, 237839, Note_on_c, 9, 38, 0
1, 237839, Note_on_c, 9, 46, 0
1, 237840, Note_on_c, 9, 38, 102
1, 237959, Note_on_c, 9, 38, 0
1, 237960, Note_on_c, 9, 38, 99
1, 238079, Note_on_c, 9, 38, 0
1, 238080, Note_on_c, 9, 36, 119
1, 238080, Note_on_c, 9, 43, 94
1, 238199, Note_on_c, 9, 36, 0
1, 238199, Note_on_c, 9, 43, 0
1, 238200, Note_on_c, 9, 43, 76
1, 238319, Note_on_c, 9, 43, 0
1, 238320, Note_on_c, 9, 43, 86
1, 238440, Note_on_c, 9, 38, 101
1, 238559, Note_on_c, 9, 43, 0
1, 238559, Note_on_c, 9, 38, 0
1, 238560, Note_on_c, 9, 38, 97
1, 238560, Note_on_c, 9, 46, 94
1, 238679, Note_on_c, 9, 38, 0
1, 238679, Note_on_c, 9, 46, 0
1, 238680, Note_on_c, 9, 38, 96
1, 238799, Note_on_c, 9, 38, 0
1, 238800, Note_on_c, 9, 38, 97
1, 238800, Note_on_c, 9, 43, 77
1, 238919, Note_on_c, 9, 38, 0
1, 238920, Note_on_c, 9, 38, 102
1, 239039, Note_on_c, 9, 43, 0
1, 239039, Note_on_c, 9, 38, 0
1, 239040, Note_on_c, 9, 49, 92
1, 239040, Note_on_c, 9, 36, 123
1, 239159, Note_on_c, 9, 49, 0
1, 239160, Note_on_c, 9, 47, 74
1, 239279, Note_on_c, 9, 47, 0
1, 239280, Note_on_c, 9, 47, 65
1, 239399, Note_on_c, 9, 36, 0
1, 239400, Note_on_c, 9, 43, 84
1, 239519, Note_on_c, 9, 47, 0
1, 239519, Note_on_c, 9, 43, 0
1, 239520, Note_on_c, 9, 46, 73
1, 239520, Note_on_c, 9, 49, 94
1, 239640, Note_on_c, 9, 43, 64
1, 239759, Note_on_c, 9, 43, 0
1, 239760, Note_on_c, 9, 43, 85
1, 239879, Note_on_c, 9, 43, 0
1, 239880, Note_on_c, 9, 43, 103
1, 239999, Note_on_c, 9, 46, 0
1, 239999, Note_on_c, 9, 49, 0
1, 239999, Note_on_c, 9, 43, 0
1, 240000, Note_on_c, 9, 42, 66
1, 240000, Note_on_c, 9, 36, 120
1, 240239, Note_on_c, 9, 42, 0
1, 240239, Note_on_c, 9, 36, 0
1, 240240, Note_on_c, 9, 42, 67
1, 240240, Note_on_c, 9, 35, 74
1, 240479, Note_on_c, 9, 42, 0
1, 240479, Note_on_c, 9, 35, 0
1, 240480, Note_on_c, 9, 38, 102
1, 240480, Note_on_c, 9, 42, 66
1, 240719, Note_on_c, 9, 38, 0
1, 240719, Note_on_c, 9, 42, 0
1, 240720, Note_on_c, 9, 42, 68
1, 240959, Note_on_c, 9, 42, 0
1, 240960, Note_on_c, 9, 42, 72
1, 240960, Note_on_c, 9, 36, 126
1, 241199, Note_on_c, 9, 42, 0
1, 241199, Note_on_c, 9, 36, 0
1, 241200, Note_on_c, 9, 42, 69
1, 241200, Note_on_c, 9, 35, 84
1, 241439, Note_on_c, 9, 42, 0
1, 241439, Note_on_c, 9, 35, 0
1, 241440, Note_on_c, 9, 38, 102
1, 241440, Note_on_c, 9, 42, 65
1, 241679, Note_on_c, 9, 38, 0
1, 241679, Note_on_c, 9, 42, 0
1, 241680, Note_on_c, 9, 42, 67
1, 241919, Note_on_c, 9, 42, 0
1, 241920, Note_on_c, 9, 42, 67
1, 241920, Note_on_c, 9, 36, 119
1, 242159, Note_on_c, 9, 42, 0
1, 242160, Note_on_c, 9, 42, 71
1, 242399, Note_on_c, 9, 36, 0
1, 242399, Note_on_c, 9, 42, 0
1, 242400, Note_on_c, 9, 38, 97
1, 242400, Note_on_c, 9, 42, 67
1, 242639, Note_on_c, 9, 38, 0
1, 242639, Note_on_c, 9, 42, 0
1, 242640, Note_on_c, 9, 42, 74
1, 242879, Note_on_c, 9, 42, 0
1, 242880, Note_on_c, 9, 42, 65
1, 242880, Note_on_c, 9, 36, 122
1, 243119, Note_on_c, 9, 42, 0
1, 243120, Note_on_c, 9, 42, 71
1, 243359, Note_on_c, 9, 36, 0
1, 243359, Note_on_c, 9, 42, 0
1, 243360, Note_on_c, 9, 38, 102
1, 243360, Note_on_c, 9, 42, 74
1, 243480, Note_on_c, 9, 35, 38
1, 243539, Note_on_c, 9, 35, 0
1, 243540, Note_on_c, 9, 35, 41
1, 243599, Note_on_c, 9, 38, 0
1, 243599, Note_on_c, 9, 42, 0
1, 243599, Note_on_c, 9, 35, 0
1, 243600, Note_on_c, 9, 42, 69
1, 243600, Note_on_c, 9, 35, 45
1, 243659, Note_on_c, 9, 35, 0
1, 243660, Note_on_c, 9, 35, 42
1, 243719, Note_on_c, 9, 35, 0
1, 243720, Note_on_c, 9, 35, 48
1, 243779, Note_on_c, 9, 35, 0
1, 243780, Note_on_c, 9, 35, 61
1, 243839, Note_on_c, 9, 42, 0
1, 243839, Note_on_c, 9, 35, 0
1, 243840, Note_on_c, 9, 42, 73
1, 243840, Note_on_c, 9, 36, 121
1, 244079, Note_on_c, 9, 42, 0
1, 244079, Note_on_c, 9, 36, 0
1, 244080, Note_on_c, 9, 42, 72
1, 244080, Note_on_c, 9, 35, 94
1, 244319, Note_on_c, 9, 42, 0
1, 244319, Note_on_c, 9, 35, 0
1, 244320, Note_on_c, 9, 38, 101
1, 244320, Note_on_c, 9, 42, 65
1, 244559, Note_on_c, 9, 38, 0
1, 244559, Note_on_c, 9, 42, 0
1, 244560, Note_on_c, 9, 42, 74
1, 244799, Note_on_c, 9, 42, 0
1, 244800, Note_on_c, 9, 42, 72
1, 244800, Note_on_c, 9, 36, 123
1, 245039, Note_on_c, 9, 42, 0
1, 245039, Note_on_c, 9, 36, 0
1, 245040, Note_on_c, 9, 42, 70
1, 245040, Note_on_c, 9, 35, 94
1, 245279, Note_on_c, 9, 42, 0
1, 245279, Note_on_c, 9, 35, 0
1, 245280, Note_on_c, 9, 38, 99
1, 245280, Note_on_c, 9, 42, 74
1, 245519, Note_on_c, 9, 38, 0
1, 245519, Note_on_c, 9, 42, 0
1, 245520, Note_on_c, 9, 42, 76
1, 245759, Note_on_c, 9, 42, 0
1, 245760, Note_on_c, 9, 42, 73
1, 245760, Note_on_c, 9, 36, 122
1, 245999, Note_on_c, 9, 42, 0
1, 246000, Note_on_c, 9, 42, 76
1, 246239, Note_on_c, 9, 36, 0
1, 246239, Note_on_c, 9, 42, 0
1, 246240, Note_on_c, 9, 38, 97
1, 246240, Note_on_c, 9, 42, 72
1, 246479, Note_on_c, 9, 38, 0
1, 246479, Note_on_c, 9, 42, 0
1, 246480, Note_on_c, 9, 42, 73
1, 246719, Note_on_c, 9, 42, 0
1, 246720, Note_on_c, 9, 42, 70
1, 246720, Note_on_c, 9, 36, 124
1, 246959, Note_on_c, 9, 42, 0
1, 246960, Note_on_c, 9, 42, 65
1, 247199, Note_on_c, 9, 36, 0
1, 247199, Note_on_c, 9, 42, 0
1, 247200, Note_on_c, 9, 38, 94
1, 247200, Note_on_c, 9, 42, 71
1, 247320, Note_on_c, 9, 35, 45
1, 247439, Note_on_c, 9, 38, 0
1, 247439, Note_on_c, 9, 42, 0
1, 247439, Note_on_c, 9, 35, 0
1, 247440, Note_on_c, 9, 42, 73
1, 247440, Note_on_c, 9, 35, 49
1, 247559, Note_on_c, 9, 35, 0
1, 247560, Note_on_c, 9, 35, 56
1, 247679, Note_on_c, 9, 42, 0
1, 247679, Note_on_c, 9, 35, 0
1, 247680, Note_on_c, 9, 42, 71
1, 247680, Note_on_c, 9, 36, 124
1, 247919, Note_on_c, 9, 42, 0
1, 247919, Note_on_c, 9, 36, 0
1, 247920, Note_on_c, 9, 42, 71
1, 247920, Note_on_c, 9, 35, 74
1, 248159, Note_on_c, 9, 42, 0
1, 248159, Note_on_c, 9, 35, 0
1, 248160, Note_on_c, 9, 38, 102
1, 248160, Note_on_c, 9, 42, 72
1, 248399, Note_on_c, 9, 38, 0
1, 248399, Note_on_c, 9, 42, 0
1, 248400, Note_on_c, 9, 42, 72
1, 248639, Note_on_c, 9, 42, 0
1, 248640, Note_on_c, 9, 42, 73
1, 248640, Note_on_c, 9, 36, 126
1, 248879, Note_on_c, 9, 42, 0
1, 248879, Note_on_c, 9, 36, 0
1, 248880, Note_on_c, 9, 42, 69
1, 248880, Note_on_c, 9, 35, 84
1, 249119, Note_on_c, 9, 42, 0
1, 249119, Note_on_c, 9, 35, 0
1, 249120, Note_on_c, 9, 38, 96
1, 249120, Note_on_c, 9, 42, 74
1, 249359, Note_on_c, 9, 38, 0
1, 249359, Note_on_c, 9, 42, 0
1, 249360, Note_on_c, 9, 42, 76
1, 249599, Note_on_c, 9, 42, 0
1, 249600, Note_on_c, 9, 42, 69
1, 249600, Note_on_c, 9, 36, 119
1, 249839, Note_on_c, 9, 42, 0
1, 249840, Note_on_c, 9, 42, 70
1, 250079, Note_on_c, 9, 36, 0
1, 250079, Note_on_c, 9, 42, 0
1, 250080, Note_on_c, 9, 38, 100
1, 250080, Note_on_c, 9, 42, 75
1, 250319, Note_on_c, 9, 38, 0
1, 250319, Note_on_c, 9, 42, 0
1, 250320, Note_on_c, 9, 42, 65
1, 250559, Note_on_c, 9, 42, 0
1, 250560, Note_on_c, 9, 42, 76
1, 250560, Note_on_c, 9, 36, 121
1, 250799, Note_on_c, 9, 42, 0
1, 250800, Note_on_c, 9, 42, 76
1, 251039, Note_on_c, 9, 36, 0
1, 251039, Note_on_c, 9, 42, 0
1, 251040, Note_on_c, 9, 38, 100
1, 251040, Note_on_c, 9, 42, 70
1, 251160, Note_on_c, 9, 35, 45
1, 251279, Note_on_c, 9, 38, 0
1, 251279, Note_on_c, 9, 42, 0
1, 251279, Note_on_c, 9, 35, 0
1, 251280, Note_on_c, 9, 42, 65
1, 251280, Note_on_c, 9, 35, 49
1, 251399, Note_on_c, 9, 35, 0
1, 251400, Note_on_c, 9, 35, 56
1, 251519, Note_on_c, 9, 42, 0
1, 251519, Note_on_c, 9, 35, 0
1, 251520, Note_on_c, 9, 42, 73
1, 251520, Note_on_c, 9, 36, 123
1, 251759, Note_on_c, 9, 42, 0
1, 251759, Note_on_c, 9, 36, 0
1, 251760, Note_on_c, 9, 42, 74
1, 251760, Note_on_c, 9, 35, 94
1, 251999, Note_on_c, 9, 42, 0
1, 251999, Note_on_c, 9, 35, 0
1, 252000, Note_on_c, 9, 38, 97
1, 252000, Note_on_c, 9, 42, 65
1, 252239, Note_on_c, 9, 38, 0
1, 252239, Note_on_c, 9, 42, 0
1, 252240, Note_on_c, 9, 42, 65
1, 252479, Note_on_c, 9, 42, 0
1, 252480, Note_on_c, 9, 42, 75
1, 252480, Note_on_c, 9, 36, 124
1, 252719, Note_on_c, 9, 42, 0
1, 252719, Note_on_c, 9, 36, 0
1, 252720, Note_on_c, 9, 42, 72
1, 252720, Note_on_c, 9, 35, 94
1, 252959, Note_on_c, 9, 42, 0
1, 252959, Note_on_c, 9, 35, 0
1, 252960, Note_on_c, 9, 38, 96
1, 252960, Note_on_c, 9, 42, 70
1, 253199, Note_on_c, 9, 38, 0
1, 253199, Note_on_c, 9, 42, 0
1, 253200, Note_on_c, 9, 42, 73
1, 253439, Note_on_c, 9, 42, 0
1, 253440, Note_on_c, 9, 42, 74
1, 253440, Note_on_c, 9, 36, 125
1, 253679, Note_on_c, 9, 42, 0
1, 253680, Note_on_c, 9, 42, 72
1, 253919, Note_on_c, 9, 36, 0
1, 253919, Note_on_c, 9, 42, 0
1, 253920, Note_on_c, 9, 38, 97
1, 253920, Note_on_c, 9, 42, 71
1, 254159, Note_on_c, 9, 38, 0
1, 254159, Note_on_c, 9, 42, 0
1, 254160, Note_on_c, 9, 42, 76
1, 254399, Note_on_c, 9, 42, 0
1, 254400, Note_on_c, 9, 42, 73
1, 254400, Note_on_c, 9, 36, 121
1, 254639, Note_on_c, 9, 42, 0
1, 254640, Note_on_c, 9, 42, 73
1, 254879, Note_on_c, 9, 36, 0
1, 254879, Note_on_c, 9, 42, 0
1, 254880, Note_on_c, 9, 38, 100
1, 254880, Note_on_c, 9, 42, 66
1, 255119, Note_on_c, 9, 38, 0
1, 255119, Note_on_c, 9, 42, 0
1, 255120, Note_on_c, 9, 42, 74
1, 255359, Note_on_c, 9, 42, 0
1, 255360, Note_on_c, 9, 42, 67
1, 255360, Note_on_c, 9, 36, 121
1, 255599, Note_on_c, 9, 42, 0
1, 255600, Note_on_c, 9, 42, 70
1, 255839, Note_on_c, 9, 36, 0
1, 255839, Note_on_c, 9, 42, 0
1, 255840, Note_on_c, 9, 38, 99
1, 255840, Note_on_c, 9, 42, 66
1, 256079, Note_on_c, 9, 38, 0
1, 256079, Note_on_c, 9, 42, 0
1, 256080, Note_on_c, 9, 42, 75
1, 256319, Note_on_c, 9, 42, 0
1, 256320, Note_on_c, 9, 42, 73
1, 256320, Note_on_c, 9, 36, 123
1, 256559, Note_on_c, 9, 42, 0
1, 256560, Note_on_c, 9, 42, 71
1, 256799, Note_on_c, 9, 36, 0
1, 256799, Note_on_c, 9, 42, 0
1, 256800, Note_on_c, 9, 38, 100
1, 256800, Note_on_c, 9, 42, 74
1, 257039, Note_on_c, 9, 38, 0
1, 257039, Note_on_c, 9, 42, 0
1, 257040, Note_on_c, 9, 42, 71
1, 257279, Note_on_c, 9, 42, 0
1, 257280, Note_on_c, 9, 42, 68
1, 257280, Note_on_c, 9, 36, 122
1, 257519, Note_on_c, 9, 42, 0
1, 257520, Note_on_c, 9, 42, 72
1, 257759, Note_on_c, 9, 36, 0
1, 257759, Note_on_c, 9, 42, 0
1, 257760, Note_on_c, 9, 38, 94
1, 257760, Note_on_c, 9, 42, 75
1, 257999, Note_on_c, 9, 38, 0
1, 257999, Note_on_c, 9, 42, 0
1, 258000, Note_on_c, 9, 42, 66
1, 258239, Note_on_c, 9, 42, 0
1, 258240, Note_on_c, 9, 42, 73
1, 258240, Note_on_c, 9, 36, 125
1, 258479, Note_on_c, 9, 42, 0
1, 258480, Note_on_c, 9, 42, 67
1, 258719, Note_on_c, 9, 36, 0
1, 258719, Note_on_c, 9, 42, 0
1, 258720, Note_on_c, 9, 38, 100
1, 258720, Note_on_c, 9, 42, 66
1, 258959, Note_on_c, 9, 38, 0
1, 258959, Note_on_c, 9, 42, 0
1, 258960, Note_on_c, 9, 42, 68
1, 259199, Note_on_c, 9, 42, 0
1, 259200, Note_on_c, 9, 42, 73
1, 259200, Note_on_c, 9, 36, 120
1, 259439, Note_on_c, 9, 42, 0
1, 259440, Note_on_c, 9, 42, 73
1, 259679, Note_on_c, 9, 36, 0
1, 259679, Note_on_c, 9, 42, 0
1, 259680, Note_on_c, 9, 38, 95
1, 259680, Note_on_c, 9, 42, 70
1, 259919, Note_on_c, 9, 38, 0
1, 259919, Note_on_c, 9, 42, 0
1, 259920, Note_on_c, 9, 42, 74
1, 260159, Note_on_c, 9, 42, 0
1, 260160, Note_on_c, 9, 42, 71
1, 260160, Note_on_c, 9, 36, 123
1, 260399, Note_on_c, 9, 42, 0
1, 260400, Note_on_c, 9, 42, 65
1, 260639, Note_on_c, 9, 36, 0
1, 260639, Note_on_c, 9, 42, 0
1, 260640, Note_on_c, 9, 38, 100
1, 260640, Note_on_c, 9, 42, 73
1, 260879, Note_on_c, 9, 38, 0
1, 260879, Note_on_c, 9, 42, 0
1, 260880, Note_on_c, 9, 42, 72
1, 261119, Note_on_c, 9, 42, 0
1, 261120, Note_on_c, 9, 42, 75
1, 261120, Note_on_c, 9, 36, 126
1, 261359, Note_on_c, 9, 42, 0
1, 261360, Note_on_c, 9, 42, 68
1, 261599, Note_on_c, 9, 36, 0
1, 261599, Note_on_c, 9, 42, 0
1, 261600, Note_on_c, 9, 38, 96
1, 261600, Note_on_c, 9, 42, 75
1, 261839, Note_on_c, 9, 38, 0
1, 261839, Note_on_c, 9, 42, 0
1, 261840, Note_on_c, 9, 42, 66
1, 262079, Note_on_c, 9, 42, 0
1, 262080, Note_on_c, 9, 42, 72
1, 262080, Note_on_c, 9, 36, 120
1, 262319, Note_on_c, 9, 42, 0
1, 262320, Note_on_c, 9, 42, 71
1, 262559, Note_on_c, 9, 36, 0
1, 262559, Note_on_c, 9, 42, 0
1, 262560, Note_on_c, 9, 38, 97
1, 262560, Note_on_c, 9, 42, 71
1, 262799, Note_on_c, 9, 38, 0
1, 262799, Note_on_c, 9, 42, 0
1, 262800, Note_on_c, 9, 42, 69
1, 263039, Note_on_c, 9, 42, 0
1, 263040, Note_on_c, 9, 42, 71
1, 263040, Note_on_c, 9, 36, 122
1, 263279, Note_on_c, 9, 42, 0
1, 263280, Note_on_c, 9, 42, 68
1, 263519, Note_on_c, 9, 36, 0
1, 263519, Note_on_c, 9, 42, 0
1, 263520, Note_on_c, 9, 38, 99
1, 263520, Note_on_c, 9, 42, 71
1, 263759, Note_on_c, 9, 38, 0
1, 263759, Note_on_c, 9, 42, 0
1, 263760, Note_on_c, 9, 42, 67
1, 263999, Note_on_c, 9, 42, 0
1, 264000, Note_on_c, 9, 42, 70
1, 264000, Note_on_c, 9, 36, 124
1, 264239, Note_on_c, 9, 42, 0
1, 264240, Note_on_c, 9, 42, 74
1, 264479, Note_on_c, 9, 36, 0
1, 264479, Note_on_c, 9, 42, 0
1, 264480, Note_on_c, 9, 38, 95
1, 264480, Note_on_c, 9, 42, 72
1, 264719, Note_on_c, 9, 38, 0
1, 264719, Note_on_c, 9, 42, 0
1, 264720, Note_on_c, 9, 42, 73
1, 264959, Note_on_c, 9, 42, 0
1, 264960, Note_on_c, 9, 42, 68
1, 264960, Note_on_c, 9, 36, 122
1, 265199, Note_on_c, 9, 42, 0
1, 265200, Note_on_c, 9, 42, 70
1, 265439, Note_on_c, 9, 36, 0
1, 265439, Note_on_c, 9, 42, 0
1, 265440, Note_on_c, 9, 38, 102
1, 265440, Note_on_c, 9, 42, 68
1, 265679, Note_on_c, 9, 38, 0
1, 265679, Note_on_c, 9, 42, 0
1, 265680, Note_on_c, 9, 42, 67
1, 265919, Note_on_c, 9, 42, 0
1, 265920, Note_on_c, 9, 42, 65
1, 265920, Note_on_c, 9, 36, 120
1, 266159, Note_on_c, 9, 42, 0
1, 266160, Note_on_c, 9, 42, 68
1, 266399, Note_on_c, 9, 36, 0
1, 266399, Note_on_c, 9, 42, 0
1, 266400, Note_on_c, 9, 38, 96
1, 266400, Note_on_c, 9, 42, 69
1, 266639, Note_on_c, 9, 38, 0
1, 266639, Note_on_c, 9, 42, 0
1, 266640, Note_on_c, 9, 42, 75
1, 266879, Note_on_c, 9, 42, 0
1, 266880, Note_on_c, 9, 42, 76
1, 266880, Note_on_c, 9, 36, 119
1, 267119, Note_on_c, 9, 42, 0
1, 267120, Note_on_c, 9, 42, 75
1, 267359, Note_on_c, 9, 36, 0
1, 267359, Note_on_c, 9, 42, 0
1, 267360, Note_on_c, 9, 38, 96
1, 267360, Note_on_c, 9, 42, 70
1, 267599, Note_on_c, 9, 38, 0
1, 267599, Note_on_c, 9, 42, 0
1, 267600, Note_on_c, 9, 42, 67
1, 267839, Note_on_c, 9, 42, 0
1, 267840, Note_on_c, 9, 42, 69
1, 267840, Note_on_c, 9, 36, 120
1, 268079, Note_on_c, 9, 42, 0
1, 268080, Note_on_c, 9, 42, 70
1, 268319, Note_on_c, 9, 36, 0
1, 268319, Note_on_c, 9, 42, 0
1, 268320, Note_on_c, 9, 38, 100
1, 268320, Note_on_c, 9, 42, 65
1, 268559, Note_on_c, 9, 38, 0
1, 268559, Note_on_c, 9, 42, 0
1, 268560, Note_on_c, 9, 42, 70
1, 268799, Note_on_c, 9, 42, 0
1, 268800, Note_on_c, 9, 42, 67
1, 268800, Note_on_c, 9, 36, 126
1, 269039, Note_on_c, 9, 42, 0
1, 269040, Note_on_c, 9, 42, 70
1, 269279, Note_on_c, 9, 36, 0
1, 269279, Note_on_c, 9, 42, 0
1, 269280, Note_on_c, 9, 38, 99
1, 269280, Note_on_c, 9, 42, 73
1, 269519, Note_on_c, 9, 38, 0
1, 269519, Note_on_c, 9, 42, 0
1, 269520, Note_on_c, 9, 42, 69
1, 269759, Note_on_c, 9, 42, 0
1, 269760, Note_on_c, 9, 42, 66
1, 269760, Note_on_c, 9, 36, 124
1, 269999, Note_on_c, 9, 42, 0
1, 270000, Note_on_c, 9, 42, 73
1, 270239, Note_on_c, 9, 36, 0
1, 270239, Note_on_c, 9, 42, 0
1, 270240, Note_on_c, 9, 38, 97
1, 270240, Note_on_c, 9, 42, 69
1, 270479, Note_on_c, 9, 38, 0
1, 270479, Note_on_c, 9, 42, 0
1, 270480, Note_on_c, 9, 42, 67
1, 270719, Note_on_c, 9, 42, 0
1, 270720, Note_on_c, 9, 42, 75
1, 270720, Note_on_c, 9, 36, 119
1, 270959, Note_on_c, 9, 42, 0
1, 270960, Note_on_c, 9, 42, 72
1, 271199, Note_on_c, 9, 36, 0
1, 271199, Note_on_c, 9, 42, 0
1, 271200, Note_on_c, 9, 38, 101
1, 271200, Note_on_c, 9, 42, 65
1, 271439, Note_on_c, 9, 38, 0
1, 271439, Note_on_c, 9, 42, 0
1, 271440, Note_on_c, 9, 42, 74
1, 271679, Note_on_c, 9, 42, 0
1, 271680, Note_on_c, 9, 42, 75
1, 271680, Note_on_c, 9, 36, 123
1, 271919, Note_on_c, 9, 42, 0
1, 271920, Note_on_c, 9, 42, 67
1, 272159, Note_on_c, 9, 36, 0
1, 272159, Note_on_c, 9, 42, 0
1, 272160, Note_on_c, 9, 38, 97
1, 272160, Note_on_c, 9, 42, 76
1, 272399, Note_on_c, 9, 38, 0
1, 272399, Note_on_c, 9, 42, 0
1, 272400, Note_on_c, 9, 42, 67
1, 272639, Note_on_c, 9, 42, 0
1, 272640, Note_on_c, 9, 42, 74
1, 272640, Note_on_c, 9, 36, 122
1, 272879, Note_on_c, 9, 42, 0
1, 272880, Note_on_c, 9, 42, 71
1, 273119, Note_on_c, 9, 36, 0
1, 273119, Note_on_c, 9, 42, 0
1, 273120, Note_on_c, 9, 38, 100
1, 273120, Note_on_c, 9, 42, 67
1, 273359, Note_on_c, 9, 38, 0
1, 273359, Note_on_c, 9, 42, 0
1, 273360, Note_on_c, 9, 42, 70
1, 273599, Note_on_c, 9, 42, 0
1, 273600, Note_on_c, 9, 42, 75
1, 273600, Note_on_c, 9, 36, 120
1, 273839, Note_on_c, 9, 42, 0
1, 273840, Note_on_c, 9, 42, 65
1, 274079, Note_on_c, 9, 36, 0
1, 274079, Note_on_c, 9, 42, 0
1, 274080, Note_on_c, 9, 38, 99
1, 274080, Note_on_c, 9, 42, 75
1, 274319, Note_on_c, 9, 38, 0
1, 274319, Note_on_c, 9, 42, 0
1, 274320, Note_on_c, 9, 42, 72
1, 274559, Note_on_c, 9, 42, 0
1, 274560, Note_on_c, 9, 42, 76
1, 274560, Note_on_c, 9, 36, 121
1, 274799, Note_on_c, 9, 42, 0
1, 274800, Note_on_c, 9, 42, 73
1, 275039, Note_on_c, 9, 36, 0
1, 275039, Note_on_c, 9, 42, 0
1, 275040, Note_on_c, 9, 38, 95
1, 275040, Note_on_c, 9, 42, 65
1, 275279, Note_on_c, 9, 38, 0
1, 275279, Note_on_c, 9, 42, 0
1, 275280, Note_on_c, 9, 42, 71
1, 275519, Note_on_c, 9, 42, 0
1, 275520, Note_on_c, 9, 42, 68
1, 275520, Note_on_c, 9, 36, 124
1, 275759, Note_on_c, 9, 42, 0
1, 275760, Note_on_c, 9, 42, 65
1, 275999, Note_on_c, 9, 36, 0
1, 275999, Note_on_c, 9, 42, 0
1, 276000, Note_on_c, 9, 38, 95
1, 276000, Note_on_c, 9, 42, 67
1, 276239, Note_on_c, 9, 38, 0
1, 276239, Note_on_c, 9, 42, 0
1, 276240, Note_on_c, 9, 42, 76
1, 276479, Note_on_c, 9, 42, 0
1, 276480, Note_on_c, 9, 42, 66
1, 276480, Note_on_c, 9, 36, 124
1, 276719, Note_on_c, 9, 42, 0
1, 276720, Note_on_c, 9, 42, 71
1, 276959, Note_on_c, 9, 36, 0
1, 276959, Note_on_c, 9, 42, 0
1, 276960, Note_on_c, 9, 38, 98
1, 276960, Note_on_c, 9, 42, 65
1, 277199, Note_on_c, 9, 38, 0
1, 277199, Note_on_c, 9, 42, 0
1, 277200, Note_on_c, 9, 42, 65
1, 277439, Note_on_c, 9, 42, 0
1, 277440, Note_on_c, 9, 42, 76
1, 277440, Note_on_c, 9, 36, 126
1, 277679, Note_on_c, 9, 42, 0
1, 277680, Note_on_c, 9, 42, 65
1, 277919, Note_on_c, 9, 36, 0
1, 277919, Note_on_c, 9, 42, 0
1, 277920, Note_on_c, 9, 38, 99
1, 277920, Note_on_c, 9, 42, 67
1, 278159, Note_on_c, 9, 38, 0
1, 278159, Note_on_c, 9, 42, 0
1, 278160, Note_on_c, 9, 42, 76
1, 278399, Note_on_c, 9, 42, 0
1, 278400, Note_on_c, 9, 42, 71
1, 278400, Note_on_c, 9, 36, 122
1, 278639, Note_on_c, 9, 42, 0
1, 278640, Note_on_c, 9, 42, 75
1, 278879, Note_on_c, 9, 36, 0
1, 278879, Note_on_c, 9, 42, 0
1, 278880, Note_on_c, 9, 38, 99
1, 278880, Note_on_c, 9, 42, 74
1, 279119, Note_on_c, 9, 38, 0
1, 279119, Note_on_c, 9, 42, 0
1, 279120, Note_on_c, 9, 42, 75
1, 279359, Note_on_c, 9, 42, 0
1, 279360, Note_on_c, 9, 42, 73
1, 279360, Note_on_c, 9, 36, 119
1, 279599, Note_on_c, 9, 42, 0
1, 279600, Note_on_c, 9, 42, 73
1, 279839, Note_on_c, 9, 36, 0
1, 279839, Note_on_c, 9, 42, 0
1, 279840, Note_on_c, 9, 38, 102
1, 279840, Note_on_c, 9, 42, 68
1, 280079, Note_on_c, 9, 38, 0
1, 280079, Note_on_c, 9, 42, 0
1, 280080, Note_on_c, 9, 42, 73
1, 280319, Note_on_c, 9, 42, 0
1, 280320, Note_on_c, 9, 42, 65
1, 280320, Note_on_c, 9, 36, 122
1, 280559, Note_on_c, 9, 42, 0
1, 280560, Note_on_c, 9, 42, 67
1, 280799, Note_on_c, 9, 36, 0
1, 280799, Note_on_c, 9, 42, 0
1, 280800, Note_on_c, 9, 38, 97
1, 280800, Note_on_c, 9, 42, 73
1, 281039, Note_on_c, 9, 38, 0
1, 281039, Note_on_c, 9, 42, 0
1, 281040, Note_on_c, 9, 42, 67
1, 281279, Note_on_c, 9, 42, 0
1, 281280, Note_on_c, 9, 42, 76
1, 281280, Note_on_c, 9, 36, 126
1, 281519, Note_on_c, 9, 42, 0
1, 281520, Note_on_c, 9, 42, 70
1, 281759, Note_on_c, 9, 36, 0
1, 281759, Note_on_c, 9, 42, 0
1, 281760, Note_on_c, 9, 38, 94
1, 281760, Note_on_c, 9, 42, 67
1, 281999, Note_on_c, 9, 38, 0
1, 281999, Note_on_c, 9, 42, 0
1, 282000, Note_on_c, 9, 42, 66
1, 282239, Note_on_c, 9, 42, 0
1, 282240, Note_on_c, 9, 42, 75
1, 282240, Note_on_c, 9, 36, 123
1, 282479, Note_on_c, 9, 42, 0
1, 282480, Note_on_c, 9, 42, 73
1, 282719, Note_on_c, 9, 36, 0
1, 282719, Note_on_c, 9, 42, 0
1, 282720, Note_on_c, 9, 38, 97
1, 282720, Note_on_c, 9, 42, 69
1, 282959, Note_on_c, 9, 38, 0
1, 282959, Note_on_c, 9, 42, 0
1, 282960, Note_on_c, 9, 42, 76
1, 283199, Note_on_c, 9, 42, 0
1, 283200, Note_on_c, 9, 42, 65
1, 283200, Note_on_c, 9, 36, 125
1, 283439, Note_on_c, 9, 42, 0
1, 283440, Note_on_c, 9, 42, 73
1, 283679, Note_on_c, 9, 36, 0
1, 283679, Note_on_c, 9, 42, 0
1, 283680, Note_on_c, 9, 38, 97
1, 283680, Note_on_c, 9, 42, 72
1, 283919, Note_on_c, 9, 38, 0
1, 283919, Note_on_c, 9, 42, 0
1, 283920, Note_on_c, 9, 42, 75
1, 284159, Note_on_c, 9, 42, 0
1, 284160, Note_on_c, 9, 42, 65
1, 284160, Note_on_c, 9, 36, 124
1, 284399, Note_on_c, 9, 42, 0
1, 284400, Note_on_c, 9, 42, 65
1, 284639, Note_on_c, 9, 36, 0
1, 284639, Note_on_c, 9, 42, 0
1, 284640, Note_on_c, 9, 38, 100
1, 284640, Note_on_c, 9, 42, 76
1, 284879, Note_on_c, 9, 38, 0
1, 284879, Note_on_c, 9, 42, 0
1, 284880, Note_on_c, 9, 42, 66
1, 285119, Note_on_c, 9, 42, 0
1, 285120, Note_on_c, 9, 42, 65
1, 285120, Note_on_c, 9, 36, 125
1, 285359, Note_on_c, 9, 42, 0
1, 285360, Note_on_c, 9, 42, 71
1, 285599, Note_on_c, 9, 36, 0
1, 285599, Note_on_c, 9, 42, 0
1, 285600, Note_on_c, 9, 38, 99
1, 285600, Note_on_c, 9, 42, 72
1, 285839, Note_on_c, 9, 38, 0
1, 285839, Note_on_c, 9, 42, 0
1, 285840, Note_on_c, 9, 42, 70
1, 286079, Note_on_c, 9, 42, 0
1, 286080, Note_on_c, 9, 42, 75
1, 286080, Note_on_c, 9, 36, 126
1, 286319, Note_on_c, 9, 42, 0
1, 286320, Note_on_c, 9, 42, 70
1, 286559, Note_on_c, 9, 36, 0
1, 286559, Note_on_c, 9, 42, 0
1, 286560, Note_on_c, 9, 38, 102
1, 286560, Note_on_c, 9, 42, 74
1, 286799, Note_on_c, 9, 38, 0
1, 286799, Note_on_c, 9, 42, 0
1, 286800, Note_on_c, 9, 42, 73
1, 287039, Note_on_c, 9, 42, 0
1, 287040, Note_on_c, 9, 42, 75
1, 287040, Note_on_c, 9, 36, 125
1, 287279, Note_on_c, 9, 42, 0
1, 287280, Note_on_c, 9, 42, 68
1, 287519, Note_on_c, 9, 36, 0
1, 287519, Note_on_c, 9, 42, 0
1, 287520, Note_on_c, 9, 38, 101
1, 287520, Note_on_c, 9, 42, 68
1, 287759, Note_on_c, 9, 38, 0
1, 287759, Note_on_c, 9, 42, 0
1, 287760, Note_on_c, 9, 42, 75
1, 287999, Note_on_c, 9, 42, 0
1, 288000, Note_on_c, 9, 42, 70
1, 288000, Note_on_c, 9, 36, 124
1, 288239, Note_on_c, 9, 42, 0
1, 288240, Note_on_c, 9, 42, 66
1, 288479, Note_on_c, 9, 36, 0
1, 288479, Note_on_c, 9, 42, 0
1, 288480, Note_on_c, 9, 38, 100
1, 288480, Note_on_c, 9, 42, 75
1, 288719, Note_on_c, 9, 38, 0
1, 288719, Note_on_c, 9, 42, 0
1, 288720, Note_on_c, 9, 42, 72
1, 288959, Note_on_c, 9, 42, 0
1, 288960, Note_on_c, 9, 42, 67
1, 288960, Note_on_c, 9, 36, 120
1, 289199, Note_on_c, 9, 42, 0
1, 289200, Note_on_c, 9, 42, 71
1, 289439, Note_on_c, 9, 36, 0
1, 289439, Note_on_c, 9, 42, 0
1, 289440, Note_on_c, 9, 38, 95
1, 289440, Note_on_c, 9, 42, 76
1, 289679, Note_on_c, 9, 38, 0
1, 289679, Note_on_c, 9, 42, 0
1, 289680, Note_on_c, 9, 42, 67
1, 289919, Note_on_c, 9, 42, 0
1, 289920, Note_on_c, 9, 42, 67
1, 289920, Note_on_c, 9, 36, 121
1, 290159, Note_on_c, 9, 42, 0
1, 290160, Note_on_c, 9, 42, 68
1, 290399, Note_on_c, 9, 36, 0
1, 290399, Note_on_c, 9, 42, 0
1, 290400, Note_on_c, 9, 38, 99
1, 290400, Note_on_c, 9, 42, 71
1, 290639, Note_on_c, 9, 38, 0
1, 290639, Note_on_c, 9, 42, 0
1, 290640, Note_on_c, 9, 42, 73
1, 290879, Note_on_c, 9, 42, 0
1, 290880, Note_on_c, 9, 42, 71
1, 290880, Note_on_c, 9, 36, 124
1, 291119, Note_on_c, 9, 42, 0
1, 291120, Note_on_c, 9, 42, 69
1, 291359, Note_on_c, 9, 36, 0
1, 291359, Note_on_c, 9, 42, 0
1, 291360, Note_on_c, 9, 38, 98
1, 291360, Note_on_c, 9, 42, 65
1, 291599, Note_on_c, 9, 38, 0
1, 291599, Note_on_c, 9, 42, 0
1, 291600, Note_on_c, 9, 42, 74
1, 291839, Note_on_c, 9, 42, 0
1, 291840, Note_on_c, 9, 42, 68
1, 291840, Note_on_c, 9, 36, 121
1, 292079, Note_on_c, 9, 42, 0
1, 292080, Note_on_c, 9, 42, 69
1, 292319, Note_on_c, 9, 36, 0
1, 292319, Note_on_c, 9, 42, 0
1, 292320, Note_on_c, 9, 38, 95
1, 292320, Note_on_c, 9, 42, 72
1, 292559, Note_on_c, 9, 38, 0
1, 292559, Note_on_c, 9, 42, 0
1, 292560, Note_on_c, 9, 42, 65
1, 292799, Note_on_c, 9, 42, 0
1, 292800, Note_on_c, 9, 42, 67
1, 292800, Note_on_c, 9, 36, 126
1, 293039, Note_on_c, 9, 42, 0
1, 293040, Note_on_c, 9, 42, 67
1, 293279, Note_on_c, 9, 36, 0
1, 293279, Note_on_c, 9, 42, 0
1, 293280, Note_on_c, 9, 38, 96
1, 293280, Note_on_c, 9, 42, 68
1, 293519, Note_on_c, 9, 38, 0
1, 293519, Note_on_c, 9, 42, 0
1, 293520, Note_on_c, 9, 42, 68
1, 293759, Note_on_c, 9, 42, 0
1, 293760, Note_on_c, 9, 42, 68
1, 293760, Note_on_c, 9, 36, 124
1, 293999, Note_on_c, 9, 42, 0
1, 294000, Note_on_c, 9, 42, 76
1, 294239, Note_on_c, 9, 36, 0
1, 294239, Note_on_c, 9, 42, 0
1, 294240, Note_on_c, 9, 38, 101
1, 294240, Note_on_c, 9, 42, 66
1, 294479, Note_on_c, 9, 38, 0
1, 294479, Note_on_c, 9, 42, 0
1, 294480, Note_on_c, 9, 42, 70
1, 294719, Note_on_c, 9, 42, 0
1, 294720, Note_on_c, 9, 42, 67
1, 294720, Note_on_c, 9, 36, 119
1, 294959, Note_on_c, 9, 42, 0
1, 294960, Note_on_c, 9, 42, 74
1, 295199, Note_on_c, 9, 36, 0
1, 295199, Note_on_c, 9, 42, 0
1, 295200, Note_on_c, 9, 38, 98
1, 295200, Note_on_c, 9, 42, 70
1, 295439, Note_on_c, 9, 38, 0
1, 295439, Note_on_c, 9, 42, 0
1, 295440, Note_on_c, 9, 42, 71
1, 295679, Note_on_c, 9, 42, 0
1, 295680, Note_on_c, 9, 42, 69
1, 295680, Note_on_c, 9, 36, 119
1, 295919, Note_on_c, 9, 42, 0
1, 295920, Note_on_c, 9, 42, 71
1, 296159, Note_on_c, 9, 36, 0
1, 296159, Note_on_c, 9, 42, 0
1, 296160, Note_on_c, 9, 38, 98
1, 296160, Note_on_c, 9, 42, 75
1, 296399, Note_on_c, 9, 38, 0
1, 296399, Note_on_c, 9, 42, 0
1, 296400, Note_on_c, 9, 42, 75
1, 296639, Note_on_c, 9, 42, 0
1, 296640, Note_on_c, 9, 42, 70
1, 296640, Note_on_c, 9, 36, 119
1, 296879, Note_on_c, 9, 42, 0
1, 296880, Note_on_c, 9, 42, 68
1, 297119, Note_on_c, 9, 36, 0
1, 297119, Note_on_c, 9, 42, 0
1, 297120, Note_on_c, 9, 38, 95
1, 297120, Note_on_c, 9, 42, 73
1, 297359, Note_on_c, 9, 38, 0
1, 297359, Note_on_c, 9, 42, 0
1, 297360, Note_on_c, 9, 42, 70
1, 297599, Note_on_c, 9, 42, 0
1, 297600, Note_on_c, 9, 42, 67
1, 297600, Note_on_c, 9, 36, 124
1, 297839, Note_on_c, 9, 42, 0
1, 297840, Note_on_c, 9, 42, 65
1, 298079, Note_on_c, 9, 36, 0
1, 298079, Note_on_c, 9, 42, 0
1, 298080, Note_on_c, 9, 38, 99
1, 298080, Note_on_c, 9, 42, 72
1, 298319, Note_on_c, 9, 38, 0
1, 298319, Note_on_c, 9, 42, 0
1, 298320, Note_on_c, 9, 42, 65
1, 298559, Note_on_c, 9, 42, 0
1, 298560, Note_on_c, 9, 42, 72
1, 298560, Note_on_c, 9, 36, 123
1, 298799, Note_on_c, 9, 42, 0
1, 298800, Note_on_c, 9, 42, 65
1, 299039, Note_on_c, 9, 36, 0
1, 299039, Note_on_c, 9, 42, 0
1, 299040, Note_on_c, 9, 38, 97
1, 299040, Note_on_c, 9, 42, 76
1, 299279, Note_on_c, 9, 38, 0
1, 299279, Note_on_c, 9, 42, 0
1, 299280, Note_on_c, 9, 42, 71
1, 299519, Note_on_c, 9, 42, 0
1, 299520, Note_on_c, 9, 42, 67
1, 299520, Note_on_c, 9, 36, 122
1, 299759, Note_on_c, 9, 42, 0
1, 299760, Note_on_c, 9, 42, 65
1, 299999, Note_on_c, 9, 36, 0
1, 299999, Note_on_c, 9, 42, 0
1, 300000, Note_on_c, 9, 38, 102
1, 300000, Note_on_c, 9, 42, 66
1, 300239, Note_on_c, 9, 38, 0
1, 300239, Note_on_c, 9, 42, 0
1, 300240, Note_on_c, 9, 42, 76
1, 300479, Note_on_c, 9, 42, 0
1, 300480, Note_on_c, 9, 42, 67
1, 300480, Note_on_c, 9, 36, 124
1, 300719, Note_on_c, 9, 42, 0
1, 300720, Note_on_c, 9, 42, 65
1, 300959, Note_on_c, 9, 36, 0
1, 300959, Note_on_c, 9, 42, 0
1, 300960, Note_on_c, 9, 38, 97
1, 300960, Note_on_c, 9, 42, 74
1, 301199, Note_on_c, 9, 38, 0
1, 301199, Note_on_c, 9, 42, 0
1, 301200, Note_on_c, 9, 42, 67
1, 301439, Note_on_c, 9, 42, 0
1, 301440, Note_on_c, 9, 42, 76
1, 301440, Note_on_c, 9, 36, 121
1, 301679, Note_on_c, 9, 42, 0
1, 301680, Note_on_c, 9, 42, 74
1, 301919, Note_on_c, 9, 36, 0
1, 301919, Note_on_c, 9, 42, 0
1, 301920, Note_on_c, 9, 38, 96
1, 301920, Note_on_c, 9, 42, 76
1, 302159, Note_on_c, 9, 38, 0
1, 302159, Note_on_c, 9, 42, 0
1, 302160, Note_on_c, 9, 42, 69
1, 302399, Note_on_c, 9, 42, 0
1, 302400, Note_on_c, 9, 42, 71
1, 302400, Note_on_c, 9, 36, 122
1, 302639, Note_on_c, 9, 42, 0
1, 302640, Note_on_c, 9, 42, 68
1, 302879, Note_on_c, 9, 36, 0
1, 302879, Note_on_c, 9, 42, 0
1, 302880, Note_on_c, 9, 38, 101
1, 302880, Note_on_c, 9, 42, 71
1, 303119, Note_on_c, 9, 38, 0
1, 303119, Note_on_c, 9, 42, 0
1, 303120, Note_on_c, 9, 42, 68
1, 303359, Note_on_c, 9, 42, 0
1, 303360, Note_on_c, 9, 42, 65
1, 303360, Note_on_c, 9, 36, 123
1, 303599, Note_on_c, 9, 42, 0
1, 303600, Note_on_c, 9, 42, 66
1, 303839, Note_on_c, 9, 36, 0
1, 303839, Note_on_c, 9, 42, 0
1, 303840, Note_on_c, 9, 38, 94
1, 303840, Note_on_c, 9, 42, 73
1, 304079, Note_on_c, 9, 38, 0
1, 304079, Note_on_c, 9, 42, 0
1, 304080, Note_on_c, 9, 42, 67
1, 304319, Note_on_c, 9, 42, 0
1, 304320, Note_on_c, 9, 42, 71
1, 304320, Note_on_c, 9, 36, 121
1, 304559, Note_on_c, 9, 42, 0
1, 304560, Note_on_c, 9, 42, 72
1, 304799, Note_on_c, 9, 36, 0
1, 304799, Note_on_c, 9, 42, 0
1, 304800, Note_on_c, 9, 38, 97
1, 304800, Note_on_c, 9, 42, 65
1, 305039, Note_on_c, 9, 38, 0
1, 305039, Note_on_c, 9, 42, 0
1, 305040, Note_on_c, 9, 42, 73
1, 305279, Note_on_c, 9, 42, 0
1, 305280, Note_on_c, 9, 42, 67
1, 305280, Note_on_c, 9, 36, 119
1, 305519, Note_on_c, 9, 42, 0
1, 305520, Note_on_c, 9, 42, 68
1, 305759, Note_on_c, 9, 36, 0
1, 305759, Note_on_c, 9, 42, 0
1, 305760, Note_on_c, 9, 38, 101
1, 305760, Note_on_c, 9, 42, 74
1, 305999, Note_on_c, 9, 38, 0
1, 305999, Note_on_c, 9, 42, 0
1, 306000, Note_on_c, 9, 42, 66
1, 306239, Note_on_c, 9, 42, 0
1, 306240, Note_on_c, 9, 42, 66
1, 306240, Note_on_c, 9, 36, 121
1, 306479, Note_on_c, 9, 42, 0
1, 306480, Note_on_c, 9, 42, 73
1, 306719, Note_on_c, 9, 36, 0
1, 306719, Note_on_c, 9, 42, 0
1, 306720, Note_on_c, 9, 38, 100
1, 306720, Note_on_c, 9, 42, 76
1, 306959, Note_on_c, 9, 38, 0
1, 306959, Note_on_c, 9, 42, 0
1, 306960, Note_on_c, 9, 42, 75
1, 307199, Note_on_c, 9, 42, 0
1, 307200, Note_on_c, 9, 42, 65
1, 307200, Note_on_c, 9, 36, 123
1, 307439, Note_on_c, 9, 42, 0
1, 307440, Note_on_c, 9, 42, 71
1, 307679, Note_on_c, 9, 36, 0
1, 307679, Note_on_c, 9, 42, 0
1, 307680, Note_on_c, 9, 38, 102
1, 307680, Note_on_c, 9, 42, 71
1, 307919, Note_on_c, 9, 38, 0
1, 307919, Note_on_c, 9, 42, 0
1, 307920, Note_on_c, 9, 42, 65
1, 308159, Note_on_c, 9, 42, 0
1, 308160, Note_on_c, 9, 42, 65
1, 308160, Note_on_c, 9, 36, 119
1, 308399, Note_on_c, 9, 42, 0
1, 308400, Note_on_c, 9, 42, 75
1, 308639, Note_on_c, 9, 36, 0
1, 308639, Note_on_c, 9, 42, 0
1, 308640, Note_on_c, 9, 38, 96
1, 308640, Note_on_c, 9, 42, 72
1, 308879, Note_on_c, 9, 38, 0
1, 308879, Note_on_c, 9, 42, 0
1, 308880, Note_on_c, 9, 42, 76
1, 309119, Note_on_c, 9, 42, 0
1, 309120, Note_on_c, 9, 42, 69
1, 309120, Note_on_c, 9, 36, 119
1, 309359, Note_on_c, 9, 42, 0
1, 309360, Note_on_c, 9, 42, 69
1, 309599, Note_on_c, 9, 36, 0
1, 309599, Note_on_c, 9, 42, 0
1, 309600, Note_on_c, 9, 38, 102
1, 309600, Note_on_c, 9, 42, 69
1, 309839, Note_on_c, 9, 38, 0
1, 309839, Note_on_c, 9, 42, 0
1, 309840, Note_on_c, 9, 42, 73
1, 310079, Note_on_c, 9, 42, 0
1, 310080, Note_on_c, 9, 42, 73
1, 310080, Note_on_c, 9, 36, 121
1, 310319, Note_on_c, 9, 42, 0
1, 310320, Note_on_c, 9, 42, 74
1, 310559, Note_on_c, 9, 36, 0
1, 310559, Note_on_c, 9, 42, 0
1, 310560, Note_on_c, 9, 38, 97
1, 310560, Note_on_c, 9, 42, 76
1, 310799, Note_on_c, 9, 38, 0
1, 310799, Note_on_c, 9, 42, 0
1, 310800, Note_on_c, 9, 42, 76
1, 311039, Note_on_c, 9, 42, 0
1, 311040, Note_on_c, 9, 42, 75
1, 311040, Note_on_c, 9, 36, 119
1, 311279, Note_on_c, 9, 42, 0
1, 311280, Note_on_c, 9, 42, 66
1, 311519, Note_on_c, 9, 36, 0
1, 311519, Note_on_c, 9, 42, 0
1, 311520, Note_on_c, 9, 38, 100
1, 311520, Note_on_c, 9, 42, 70
1, 311759, Note_on_c, 9, 38, 0
1, 311759, Note_on_c, 9, 42, 0
1, 311760, Note_on_c, 9, 42, 75
1, 311999, Note_on_c, 9, 42, 0
1, 312000, Note_on_c, 9, 42, 68
1, 312000, Note_on_c, 9, 36, 126
1, 312239, Note_on_c, 9, 42, 0
1, 312240, Note_on_c, 9, 42, 71
1, 312479, Note_on_c, 9, 36, 0
1, 312479, Note_on_c, 9, 42, 0
1, 312480, Note_on_c, 9, 38, 100
1, 312480, Note_on_c, 9, 42, 71
1, 312719, Note_on_c, 9, 38, 0
1, 312719, Note_on_c, 9, 42, 0
1, 312720, Note_on_c, 9, 42, 73
1, 312959, Note_on_c, 9, 42, 0
1, 312960, Note_on_c, 9, 42, 72
1, 312960, Note_on_c, 9, 36, 119
1, 313199, Note_on_c, 9, 42, 0
1, 313200, Note_on_c, 9, 42, 72
1, 313439, Note_on_c, 9, 36, 0
1, 313439, Note_on_c, 9, 42, 0
1, 313440, Note_on_c, 9, 38, 94
1, 313440, Note_on_c, 9, 42, 76
1, 313679, Note_on_c, 9, 38, 0
1, 313679, Note_on_c, 9, 42, 0
1, 313680, Note_on_c, 9, 42, 67
1, 313919, Note_on_c, 9, 42, 0
1, 313920, Note_on_c, 9, 42, 76
1, 313920, Note_on_c, 9, 36, 119
1, 314159, Note_on_c, 9, 42, 0
1, 314160, Note_on_c, 9, 42, 67
1, 314399, Note_on_c, 9, 36, 0
1, 314399, Note_on_c, 9, 42, 0
1, 314400, Note_on_c, 9, 38, 101
1, 314400, Note_on_c, 9, 42, 73
1, 314639, Note_on_c, 9, 38, 0
1, 314639, Note_on_c, 9, 42, 0
1, 314640, Note_on_c, 9, 42, 69
1, 314879, Note_on_c, 9, 42, 0
1, 314880, Note_on_c, 9, 42, 67
1, 314880, Note_on_c, 9, 36, 119
1, 315119, Note_on_c, 9, 42, 0
1, 315120, Note_on_c, 9, 42, 68
1, 315359, Note_on_c, 9, 36, 0
1, 315359, Note_on_c, 9, 42, 0
1, 315360, Note_on_c, 9, 38, 96
1, 315360, Note_on_c, 9, 42, 76
1, 315599, Note_on_c, 9, 38, 0
1, 315599, Note_on_c, 9, 42, 0
1, 315600, Note_on_c, 9, 42, 72
1, 315839, Note_on_c, 9, 42, 0
1, 315840, Note_on_c, 9, 38, 100
1, 315840, Note_on_c, 9, 36, 119
1, 316079, Note_on_c, 9, 38, 0
1, 316079, Note_on_c, 9, 36, 0
1, 316080, Note_on_c, 9, 38, 101
1, 316080, Note_on_c, 9, 43, 74
1, 316319, Note_on_c, 9, 38, 0
1, 316319, Note_on_c, 9, 43, 0
1, 316320, Note_on_c, 9, 38, 102
1, 316320, Note_on_c, 9, 43, 90
1, 316559, Note_on_c, 9, 38, 0
1, 316559, Note_on_c, 9, 43, 0
1, 316560, Note_on_c, 9, 38, 97
1, 316560, Note_on_c, 9, 43, 106
1, 316799, Note_on_c, 9, 38, 0
1, 316799, Note_on_c, 9, 43, 0
1, 316800, Note_on_c, 9, 49, 100
1, 316800, Note_on_c, 9, 36, 123
1, 317039, Note_on_c, 9, 49, 0
1, 317040, Note_on_c, 9, 42, 70
1, 317279, Note_on_c, 9, 36, 0
1, 317279, Note_on_c, 9, 42, 0
1, 317280, Note_on_c, 9, 38, 96
1, 317280, Note_on_c, 9, 42, 74
1, 317519, Note_on_c, 9, 38, 0
1, 317519, Note_on_c, 9, 42, 0
1, 317520, Note_on_c, 9, 42, 70
1, 317759, Note_on_c, 9, 42, 0
1, 317760, Note_on_c, 9, 42, 68
1, 317760, Note_on_c, 9, 36, 124
1, 317999, Note_on_c, 9, 42, 0
1, 318000, Note_on_c, 9, 42, 75
1, 318239, Note_on_c, 9, 36, 0
1, 318239, Note_on_c, 9, 42, 0
1, 318240, Note_on_c, 9, 38, 94
1, 318240, Note_on_c, 9, 42, 68
1, 318479, Note_on_c, 9, 38, 0
1, 318479, Note_on_c, 9, 42, 0
1, 318480, Note_on_c, 9, 42, 70
1, 318719, Note_on_c, 9, 42, 0
1, 318720, Note_on_c, 9, 42, 72
1, 318720, Note_on_c, 9, 36, 121
1, 318959, Note_on_c, 9, 42, 0
1, 318960, Note_on_c, 9, 42, 71
1, 319199, Note_on_c, 9, 36, 0
1, 319199, Note_on_c, 9, 42, 0
1, 319200, Note_on_c, 9, 38, 102
1, 319200, Note_on_c, 9, 42, 67
1, 319439, Note_on_c, 9, 38, 0
1, 319439, Note_on_c, 9, 42, 0
1, 319440, Note_on_c, 9, 42, 69
1, 319679, Note_on_c, 9, 42, 0
1, 319680, Note_on_c, 9, 42, 68
1, 319680, Note_on_c, 9, 36, 124
1, 319919, Note_on_c, 9, 42, 0
1, 319920, Note_on_c, 9, 42, 68
1, 320159, Note_on_c, 9, 36, 0
1, 320159, Note_on_c, 9, 42, 0
1, 320160, Note_on_c, 9, 38, 94
1, 320160, Note_on_c, 9, 42, 67
1, 320399, Note_on_c, 9, 38, 0
1, 320399, Note_on_c, 9, 42, 0
1, 320400, Note_on_c, 9, 42, 68
1, 320639, Note_on_c, 9, 42, 0
1, 320640, Note_on_c, 9, 42, 65
1, 320640, Note_on_c, 9, 36, 123
1, 320879, Note_on_c, 9, 42, 0
1, 320880, Note_on_c, 9, 42, 71
1, 321119, Note_on_c, 9, 36, 0
1, 321119, Note_on_c, 9, 42, 0
1, 321120, Note_on_c, 9, 38, 97
1, 321120, Note_on_c, 9, 42, 76
1, 321359, Note_on_c, 9, 38, 0
1, 321359, Note_on_c, 9, 42, 0
1, 321360, Note_on_c, 9, 42, 74
1, 321599, Note_on_c, 9, 42, 0
1, 321600, Note_on_c, 9, 42, 65
1, 321600, Note_on_c, 9, 36, 120
1, 321839, Note_on_c, 9, 42, 0
1, 321840, Note_on_c, 9, 42, 73
1, 322079, Note_on_c, 9, 36, 0
1, 322079, Note_on_c, 9, 42, 0
1, 322080, Note_on_c, 9, 38, 97
1, 322080, Note_on_c, 9, 42, 70
1, 322319, Note_on_c, 9, 38, 0
1, 322319, Note_on_c, 9, 42, 0
1, 322320, Note_on_c, 9, 42, 69
1, 322559, Note_on_c, 9, 42, 0
1, 322560, Note_on_c, 9, 42, 70
1, 322560, Note_on_c, 9, 36, 125
1, 322799, Note_on_c, 9, 42, 0
1, 322800, Note_on_c, 9, 42, 74
1, 323039, Note_on_c, 9, 36, 0
1, 323039, Note_on_c, 9, 42, 0
1, 323040, Note_on_c, 9, 38, 94
1, 323040, Note_on_c, 9, 42, 73
1, 323279, Note_on_c, 9, 38, 0
1, 323279, Note_on_c, 9, 42, 0
1, 323280, Note_on_c, 9, 42, 74
1, 323519, Note_on_c, 9, 42, 0
1, 323520, Note_on_c, 9, 42, 74
1, 323520, Note_on_c, 9, 36, 119
1, 323759, Note_on_c, 9, 42, 0
1, 323760, Note_on_c, 9, 42, 66
1, 323999, Note_on_c, 9, 36, 0
1, 323999, Note_on_c, 9, 42, 0
1, 324000, Note_on_c, 9, 38, 94
1, 324000, Note_on_c, 9, 42, 75
1, 324239, Note_on_c, 9, 38, 0
1, 324239, Note_on_c, 9, 42, 0
1, 324240, Note_on_c, 9, 42, 70
1, 324479, Note_on_c, 9, 42, 0
1, 324480, Note_on_c, 9, 49, 80
1, 324480, Note_on_c, 9, 36, 120
1, 324719, Note_on_c, 9, 49, 0
1, 324720, Note_on_c, 9, 42, 74
1, 324959, Note_on_c, 9, 36, 0
1, 324959, Note_on_c, 9, 42, 0
1, 324960, Note_on_c, 9, 38, 97
1, 324960, Note_on_c, 9, 42, 68
1, 325199, Note_on_c, 9, 38, 0
1, 325199, Note_on_c, 9, 42, 0
1, 325200, Note_on_c, 9, 42, 74
1, 325439, Note_on_c, 9, 42, 0
1, 325440, Note_on_c, 9, 42, 75
1, 325440, Note_on_c, 9, 36, 121
1, 325679, Note_on_c, 9, 42, 0
1, 325680, Note_on_c, 9, 42, 75
1, 325919, Note_on_c, 9, 36, 0
1, 325919, Note_on_c, 9, 42, 0
1, 325920, Note_on_c, 9, 38, 95
1, 325920, Note_on_c, 9, 42, 73
1, 326159, Note_on_c, 9, 38, 0
1, 326159, Note_on_c, 9, 42, 0
1, 326160, Note_on_c, 9, 42, 75
1, 326399, Note_on_c, 9, 42, 0
1, 326400, Note_on_c, 9, 42, 67
1, 326400, Note_on_c, 9, 36, 126
1, 326639, Note_on_c, 9, 42, 0
1, 326640, Note_on_c, 9, 42, 68
1, 326879, Note_on_c, 9, 36, 0
1, 326879, Note_on_c, 9, 42, 0
1, 326880, Note_on_c, 9, 38, 100
1, 326880, Note_on_c, 9, 42, 75
1, 327119, Note_on_c, 9, 38, 0
1, 327119, Note_on_c, 9, 42, 0
1, 327120, Note_on_c, 9, 42, 70
1, 327359, Note_on_c, 9, 42, 0
1, 327360, Note_on_c, 9, 42, 70
1, 327360, Note_on_c, 9, 36, 122
1, 327599, Note_on_c, 9, 42, 0
1, 327600, Note_on_c, 9, 42, 75
1, 327839, Note_on_c, 9, 36, 0
1, 327839, Note_on_c, 9, 42, 0
1, 327840, Note_on_c, 9, 38, 98
1, 327840, Note_on_c, 9, 42, 71
1, 328079, Note_on_c, 9, 38, 0
1, 328079, Note_on_c, 9, 42, 0
1, 328080, Note_on_c, 9, 42, 74
1, 328319, Note_on_c, 9, 42, 0
1, 328320, Note_on_c, 9, 42, 67
1, 328320, Note_on_c, 9, 36, 125
1, 328559, Note_on_c, 9, 42, 0
1, 328560, Note_on_c, 9, 42, 76
1, 328799, Note_on_c, 9, 36, 0
1, 328799, Note_on_c, 9, 42, 0
1, 328800, Note_on_c, 9, 38, 97
1, 328800, Note_on_c, 9, 42, 66
1, 329039, Note_on_c, 9, 38, 0
1, 329039, Note_on_c, 9, 42, 0
1, 329040, Note_on_c, 9, 42, 75
1, 329279, Note_on_c, 9, 42, 0
1, 329280, Note_on_c, 9, 46, 97
1, 329280, Note_on_c, 9, 36, 123
1, 329639, Note_on_c, 9, 46, 0
1, 329640, Note_on_c, 9, 47, 72
1, 329759, Note_on_c, 9, 36, 0
1, 329759, Note_on_c, 9, 47, 0
1, 329760, Note_on_c, 9, 38, 96
1, 329760, Note_on_c, 9, 46, 62
1, 329760, Note_on_c, 9, 47, 74
1, 329999, Note_on_c, 9, 38, 0
1, 329999, Note_on_c, 9, 46, 0
1, 329999, Note_on_c, 9, 47, 0
1, 330000, Note_on_c, 9, 47, 99
1, 330239, Note_on_c, 9, 47, 0
1, 330240, Note_on_c, 9, 46, 74
1, 330240, Note_on_c, 9, 36, 121
1, 330240, Note_on_c, 9, 43, 110
1, 330359, Note_on_c, 9, 46, 0
1, 330360, Note_on_c, 9, 38, 98
1, 330479, Note_on_c, 9, 38, 0
1, 330480, Note_on_c, 9, 38, 96
1, 330719, Note_on_c, 9, 36, 0
1, 330719, Note_on_c, 9, 43, 0
1, 330719, Note_on_c, 9, 38, 0
1, 330720, Note_on_c, 9, 38, 95
1, 330720, Note_on_c, 9, 46, 90
1, 330959, Note_on_c, 9, 38, 0
1, 330959, Note_on_c, 9, 46, 0
1, 330960, Note_on_c, 9, 38, 96
1, 331199, Note_on_c, 9, 38, 0
1, 331200, Note_on_c, 9, 38, 102
1, 331200, Note_on_c, 9, 46, 97
1, 331200, Note_on_c, 9, 36, 121
1, 331319, Note_on_c, 9, 38, 0
1, 331319, Note_on_c, 9, 46, 0
1, 331320, Note_on_c, 9, 38, 101
1, 331439, Note_on_c, 9, 38, 0
1, 331440, Note_on_c, 9, 38, 96
1, 331679, Note_on_c, 9, 36, 0
1, 331679, Note_on_c, 9, 38, 0
1, 331680, Note_on_c, 9, 38, 95
1, 331680, Note_on_c, 9, 46, 84
1, 331799, Note_on_c, 9, 38, 0
1, 331799, Note_on_c, 9, 46, 0
1, 331800, Note_on_c, 9, 38, 100
1, 331919, Note_on_c, 9, 38, 0
1, 331920, Note_on_c, 9, 38, 98
1, 332039, Note_on_c, 9, 38, 0
1, 332040, Note_on_c, 9, 38, 100
1, 332159, Note_on_c, 9, 38, 0
1, 332160, Note_on_c, 9, 49, 94
1, 332160, Note_on_c, 9, 36, 123
1, 332399, Note_on_c, 9, 49, 0
1, 332400, Note_on_c, 9, 42, 71
1, 332639, Note_on_c, 9, 36, 0
1, 332639, Note_on_c, 9, 42, 0
1, 332640, Note_on_c, 9, 38, 95
1, 332640, Note_on_c, 9, 42, 70
1, 332879, Note_on_c, 9, 38, 0
1, 332879, Note_on_c, 9, 42, 0
1, 332880, Note_on_c, 9, 42, 75
1, 333119, Note_on_c, 9, 42, 0
1, 333120, Note_on_c, 9, 42, 67
1, 333120, Note_on_c, 9, 36, 120
1, 333359, Note_on_c, 9, 42, 0
1, 333360, Note_on_c, 9, 42, 66
1, 333599, Note_on_c, 9, 36, 0
1, 333599, Note_on_c, 9, 42, 0
1, 333600, Note_on_c, 9, 38, 99
1, 333600, Note_on_c, 9, 42, 67
1, 333839, Note_on_c, 9, 38, 0
1, 333839, Note_on_c, 9, 42, 0
1, 333840, Note_on_c, 9, 42, 72
1, 334079, Note_on_c, 9, 42, 0
1, 334080, Note_on_c, 9, 42, 65
1, 334080, Note_on_c, 9, 36, 124
1, 334319, Note_on_c, 9, 42, 0
1, 334320, Note_on_c, 9, 42, 74
1, 334559, Note_on_c, 9, 36, 0
1, 334559, Note_on_c, 9, 42, 0
1, 334560, Note_on_c, 9, 38, 96
1, 334560, Note_on_c, 9, 42, 76
1, 334799, Note_on_c, 9, 38, 0
1, 334799, Note_on_c, 9, 42, 0
1, 334800, Note_on_c, 9, 42, 65
1, 335039, Note_on_c, 9, 42, 0
1, 335040, Note_on_c, 9, 42, 71
1, 335040, Note_on_c, 9, 36, 119
1, 335279, Note_on_c, 9, 42, 0
1, 335280, Note_on_c, 9, 42, 66
1, 335519, Note_on_c, 9, 36, 0
1, 335519, Note_on_c, 9, 42, 0
1, 335520, Note_on_c, 9, 38, 99
1, 335520, Note_on_c, 9, 42, 74
1, 335759, Note_on_c, 9, 38, 0
1, 335759, Note_on_c, 9, 42, 0
1, 335760, Note_on_c, 9, 42, 69
1, 335999, Note_on_c, 9, 42, 0
1, 336000, Note_on_c, 9, 42, 73
1, 336000, Note_on_c, 9, 36, 121
1, 336239, Note_on_c, 9, 42, 0
1, 336240, Note_on_c, 9, 42, 70
1, 336479, Note_on_c, 9, 36, 0
1, 336479, Note_on_c, 9, 42, 0
1, 336480, Note_on_c, 9, 38, 97
1, 336480, Note_on_c, 9, 42, 69
1, 336719, Note_on_c, 9, 38, 0
1, 336719, Note_on_c, 9, 42, 0
1, 336720, Note_on_c, 9, 42, 68
1, 336959, Note_on_c, 9, 42, 0
1, 336960, Note_on_c, 9, 42, 73
1, 336960, Note_on_c, 9, 36, 122
1, 337199, Note_on_c, 9, 42, 0
1, 337200, Note_on_c, 9, 42, 75
1, 337439, Note_on_c, 9, 36, 0
1, 337439, Note_on_c, 9, 42, 0
1, 337440, Note_on_c, 9, 38, 98
1, 337440, Note_on_c, 9, 42, 66
1, 337679, Note_on_c, 9, 38, 0
1, 337679, Note_on_c, 9, 42, 0
1, 337680, Note_on_c, 9, 42, 72
1, 337919, Note_on_c, 9, 42, 0
1, 337920, Note_on_c, 9, 42, 72
1, 337920, Note_on_c, 9, 36, 126
1, 338159, Note_on_c, 9, 42, 0
1, 338160, Note_on_c, 9, 42, 73
1, 338399, Note_on_c, 9, 36, 0
1, 338399, Note_on_c, 9, 42, 0
1, 338400, Note_on_c, 9, 38, 101
1, 338400, Note_on_c, 9, 42, 70
1, 338639, Note_on_c, 9, 38, 0
1, 338639, Note_on_c, 9, 42, 0
1, 338640, Note_on_c, 9, 42, 76
1, 338879, Note_on_c, 9, 42, 0
1, 338880, Note_on_c, 9, 42, 68
1, 338880, Note_on_c, 9, 36, 126
1, 339119, Note_on_c, 9, 42, 0
1, 339120, Note_on_c, 9, 42, 70
1, 339359, Note_on_c, 9, 36, 0
1, 339359, Note_on_c, 9, 42, 0
1, 339360, Note_on_c, 9, 38, 100
1, 339360, Note_on_c, 9, 42, 75
1, 339599, Note_on_c, 9, 38, 0
1, 339599, Note_on_c, 9, 42, 0
1, 339600, Note_on_c, 9, 42, 76
1, 339839, Note_on_c, 9, 42, 0
1, 339840, Note_on_c, 9, 49, 78
1, 339840, Note_on_c, 9, 36, 120
1, 340079, Note_on_c, 9, 49, 0
1, 340080, Note_on_c, 9, 42, 68
1, 340319, Note_on_c, 9, 36, 0
1, 340319, Note_on_c, 9, 42, 0
1, 340320, Note_on_c, 9, 38, 95
1, 340320, Note_on_c, 9, 42, 66
1, 340559, Note_on_c, 9, 38, 0
1, 340559, Note_on_c, 9, 42, 0
1, 340560, Note_on_c, 9, 42, 74
1, 340799, Note_on_c, 9, 42, 0
1, 340800, Note_on_c, 9, 42, 70
1, 340800, Note_on_c, 9, 36, 120
1, 341039, Note_on_c, 9, 42, 0
1, 341040, Note_on_c, 9, 42, 70
1, 341279, Note_on_c, 9, 36, 0
1, 341279, Note_on_c, 9, 42, 0
1, 341280, Note_on_c, 9, 38, 102
1, 341280, Note_on_c, 9, 42, 67
1, 341519, Note_on_c, 9, 38, 0
1, 341519, Note_on_c, 9, 42, 0
1, 341520, Note_on_c, 9, 42, 72
1, 341759, Note_on_c, 9, 42, 0
1, 341760, Note_on_c, 9, 42, 67
1, 341760, Note_on_c, 9, 36, 119
1, 341999, Note_on_c, 9, 42, 0
1, 342000, Note_on_c, 9, 42, 67
1, 342239, Note_on_c, 9, 36, 0
1, 342239, Note_on_c, 9, 42, 0
1, 342240, Note_on_c, 9, 38, 95
1, 342240, Note_on_c, 9, 42, 67
1, 342479, Note_on_c, 9, 38, 0
1, 342479, Note_on_c, 9, 42, 0
1, 342480, Note_on_c, 9, 42, 70
1, 342719, Note_on_c, 9, 42, 0
1, 342720, Note_on_c, 9, 42, 68
1, 342720, Note_on_c, 9, 36, 123
1, 342959, Note_on_c, 9, 42, 0
1, 342960, Note_on_c, 9, 42, 76
1, 343199, Note_on_c, 9, 36, 0
1, 343199, Note_on_c, 9, 42, 0
1, 343200, Note_on_c, 9, 38, 96
1, 343200, Note_on_c, 9, 42, 66
1, 343439, Note_on_c, 9, 38, 0
1, 343439, Note_on_c, 9, 42, 0
1, 343440, Note_on_c, 9, 42, 75
1, 343679, Note_on_c, 9, 42, 0
1, 343680, Note_on_c, 9, 42, 72
1, 343680, Note_on_c, 9, 36, 126
1, 343919, Note_on_c, 9, 42, 0
1, 343920, Note_on_c, 9, 42, 72
1, 344159, Note_on_c, 9, 36, 0
1, 344159, Note_on_c, 9, 42, 0
1, 344160, Note_on_c, 9, 38, 96
1, 344160, Note_on_c, 9, 42, 74
1, 344399, Note_on_c, 9, 38, 0
1, 344399, Note_on_c, 9, 42, 0
1, 344400, Note_on_c, 9, 42, 72
1, 344639, Note_on_c, 9, 42, 0
1, 344640, Note_on_c, 9, 42, 76
1, 344640, Note_on_c, 9, 36, 121
1, 344879, Note_on_c, 9, 42, 0
1, 344880, Note_on_c, 9, 42, 67
1, 345119, Note_on_c, 9, 36, 0
1, 345119, Note_on_c, 9, 42, 0
1, 345120, Note_on_c, 9, 38, 95
1, 345120, Note_on_c, 9, 46, 85
1, 345359, Note_on_c, 9, 38, 0
1, 345359, Note_on_c, 9, 46, 0
1, 345360, Note_on_c, 9, 38, 98
1, 345479, Note_on_c, 9, 38, 0
1, 345480, Note_on_c, 9, 38, 94
1, 345599, Note_on_c, 9, 38, 0
1, 345600, Note_on_c, 9, 46, 74
1, 345600, Note_on_c, 9, 47, 94
1, 345600, Note_on_c, 9, 36, 123
1, 345719, Note_on_c, 9, 36, 0
1, 345720, Note_on_c, 9, 43, 76
1, 345839, Note_on_c, 9, 43, 0
1, 345840, Note_on_c, 9, 43, 86
1, 345959, Note_on_c, 9, 46, 0
1, 345959, Note_on_c, 9, 47, 0
1, 345960, Note_on_c, 9, 47, 64
1, 346079, Note_on_c, 9, 43, 0
1, 346079, Note_on_c, 9, 47, 0
1, 346080, Note_on_c, 9, 46, 94
1, 346080, Note_on_c, 9, 47, 120
1, 346200, Note_on_c, 9, 43, 65
1, 346319, Note_on_c, 9, 43, 0
1, 346320, Note_on_c, 9, 43, 77
1, 346439, Note_on_c, 9, 43, 0
1, 346440, Note_on_c, 9, 43, 58
1, 346559, Note_on_c, 9, 46, 0
1, 346559, Note_on_c, 9, 47, 0
1, 346559, Note_on_c, 9, 43, 0
1, 346560, Note_on_c, 9, 38, 96
1, 346560, Note_on_c, 9, 46, 80
1, 346560, Note_on_c, 9, 36, 125
1, 346679, Note_on_c, 9, 38, 0
1, 346679, Note_on_c, 9, 46, 0
1, 346680, Note_on_c, 9, 38, 100
1, 346799, Note_on_c, 9, 38, 0
1, 346800, Note_on_c, 9, 38, 101
1, 346919, Note_on_c, 9, 38, 0
1, 346920, Note_on_c, 9, 38, 100
1, 347039, Note_on_c, 9, 36, 0
1, 347039, Note_on_c, 9, 38, 0
1, 347040, Note_on_c, 9, 46, 93
1, 347040, Note_on_c, 9, 49, 83
1, 347160, Note_on_c, 9, 43, 64
1, 347279, Note_on_c, 9, 43, 0
1, 347280, Note_on_c, 9, 43, 85
1, 347399, Note_on_c, 9, 43, 0
1, 347400, Note_on_c, 9, 43, 104
1, 347519, Note_on_c, 9, 46, 0
1, 347519, Note_on_c, 9, 49, 0
1, 347519, Note_on_c, 9, 43, 0
1, 347520, Note_on_c, 9, 49, 100
1, 347520, Note_on_c, 9, 36, 125
1, 347759, Note_on_c, 9, 49, 0
1, 347760, Note_on_c, 9, 42, 70
1, 347999, Note_on_c, 9, 36, 0
1, 347999, Note_on_c, 9, 42, 0
1, 348000, Note_on_c, 9, 38, 95
1, 348000, Note_on_c, 9, 42, 66
1, 348239, Note_on_c, 9, 38, 0
1, 348239, Note_on_c, 9, 42, 0
1, 348240, Note_on_c, 9, 42, 72
1, 348479, Note_on_c, 9, 42, 0
1, 348480, Note_on_c, 9, 42, 72
1, 348480, Note_on_c, 9, 36, 124
1, 348719, Note_on_c, 9, 42, 0
1, 348720, Note_on_c, 9, 42, 74
1, 348959, Note_on_c, 9, 36, 0
1, 348959, Note_on_c, 9, 42, 0
1, 348960, Note_on_c, 9, 38, 99
1, 348960, Note_on_c, 9, 42, 75
1, 349199, Note_on_c, 9, 38, 0
1, 349199, Note_on_c, 9, 42, 0
1, 349200, Note_on_c, 9, 42, 75
1, 349439, Note_on_c, 9, 42, 0
1, 349440, Note_on_c, 9, 42, 67
1, 349440, Note_on_c, 9, 36, 122
1, 349679, Note_on_c, 9, 42, 0
1, 349680, Note_on_c, 9, 42, 76
1, 349919, Note_on_c, 9, 36, 0
1, 349919, Note_on_c, 9, 42, 0
1, 349920, Note_on_c, 9, 38, 95
1, 349920, Note_on_c, 9, 42, 76
1, 350159, Note_on_c, 9, 38, 0
1, 350159, Note_on_c, 9, 42, 0
1, 350160, Note_on_c, 9, 42, 75
1, 350399, Note_on_c, 9, 42, 0
1, 350400, Note_on_c, 9, 42, 66
1, 350400, Note_on_c, 9, 36, 121
1, 350639, Note_on_c, 9, 42, 0
1, 350640, Note_on_c, 9, 42, 69
1, 350879, Note_on_c, 9, 36, 0
1, 350879, Note_on_c, 9, 42, 0
1, 350880, Note_on_c, 9, 38, 102
1, 350880, Note_on_c, 9, 42, 72
1, 351119, Note_on_c, 9, 38, 0
1, 351119, Note_on_c, 9, 42, 0
1, 351120, Note_on_c, 9, 42, 74
1, 351359, Note_on_c, 9, 42, 0
1, 351360, Note_on_c, 9, 42, 71
1, 351360, Note_on_c, 9, 36, 124
1, 351599, Note_on_c, 9, 42, 0
1, 351600, Note_on_c, 9, 42, 74
1, 351839, Note_on_c, 9, 36, 0
1, 351839, Note_on_c, 9, 42, 0
1, 351840, Note_on_c, 9, 38, 95
1, 351840, Note_on_c, 9, 42, 75
1, 352079, Note_on_c, 9, 38, 0
1, 352079, Note_on_c, 9, 42, 0
1, 352080, Note_on_c, 9, 42, 71
1, 352319, Note_on_c, 9, 42, 0
1, 352320, Note_on_c, 9, 42, 67
1, 352320, Note_on_c, 9, 36, 120
1, 352559, Note_on_c, 9, 42, 0
1, 352560, Note_on_c, 9, 42, 74
1, 352799, Note_on_c, 9, 36, 0
1, 352799, Note_on_c, 9, 42, 0
1, 352800, Note_on_c, 9, 38, 97
1, 352800, Note_on_c, 9, 42, 66
1, 353039, Note_on_c, 9, 38, 0
1, 353039, Note_on_c, 9, 42, 0
1, 353040, Note_on_c, 9, 42, 68
1, 353279, Note_on_c, 9, 42, 0
1, 353280, Note_on_c, 9, 42, 71
1, 353280, Note_on_c, 9, 36, 125
1, 353519, Note_on_c, 9, 42, 0
1, 353520, Note_on_c, 9, 42, 71
1, 353759, Note_on_c, 9, 36, 0
1, 353759, Note_on_c, 9, 42, 0
1, 353760, Note_on_c, 9, 38, 100
1, 353760, Note_on_c, 9, 42, 68
1, 353999, Note_on_c, 9, 38, 0
1, 353999, Note_on_c, 9, 42, 0
1, 354000, Note_on_c, 9, 42, 75
1, 354239, Note_on_c, 9, 42, 0
1, 354240, Note_on_c, 9, 42, 69
1, 354240, Note_on_c, 9, 36, 119
1, 354479, Note_on_c, 9, 42, 0
1, 354480, Note_on_c, 9, 42, 71
1, 354719, Note_on_c, 9, 36, 0
1, 354719, Note_on_c, 9, 42, 0
1, 354720, Note_on_c, 9, 38, 96
1, 354720, Note_on_c, 9, 42, 68
1, 354959, Note_on_c, 9, 38, 0
1, 354959, Note_on_c, 9, 42, 0
1, 354960, Note_on_c, 9, 42, 65
1, 355199, Note_on_c, 9, 42, 0
1, 355200, Note_on_c, 9, 49, 80
1, 355200, Note_on_c, 9, 36, 119
1, 355439, Note_on_c, 9, 49, 0
1, 355440, Note_on_c, 9, 42, 75
1, 355679, Note_on_c, 9, 36, 0
1, 355679, Note_on_c, 9, 42, 0
1, 355680, Note_on_c, 9, 38, 96
1, 355680, Note_on_c, 9, 42, 65
1, 355919, Note_on_c, 9, 38, 0
1, 355919, Note_on_c, 9, 42, 0
1, 355920, Note_on_c, 9, 42, 72
1, 356159, Note_on_c, 9, 42, 0
1, 356160, Note_on_c, 9, 42, 72
1, 356160, Note_on_c, 9, 36, 125
1, 356399, Note_on_c, 9, 42, 0
1, 356400, Note_on_c, 9, 42, 69
1, 356639, Note_on_c, 9, 36, 0
1, 356639, Note_on_c, 9, 42, 0
1, 356640, Note_on_c, 9, 38, 95
1, 356640, Note_on_c, 9, 42, 67
1, 356879, Note_on_c, 9, 38, 0
1, 356879, Note_on_c, 9, 42, 0
1, 356880, Note_on_c, 9, 42, 73
1, 357119, Note_on_c, 9, 42, 0
1, 357120, Note_on_c, 9, 42, 73
1, 357120, Note_on_c, 9, 36, 121
1, 357359, Note_on_c, 9, 42, 0
1, 357360, Note_on_c, 9, 42, 65
1, 357599, Note_on_c, 9, 36, 0
1, 357599, Note_on_c, 9, 42, 0
1, 357600, Note_on_c, 9, 38, 99
1, 357600, Note_on_c, 9, 42, 76
1, 357839, Note_on_c, 9, 38, 0
1, 357839, Note_on_c, 9, 42, 0
1, 357840, Note_on_c, 9, 42, 70
1, 358079, Note_on_c, 9, 42, 0
1, 358080, Note_on_c, 9, 42, 73
1, 358080, Note_on_c, 9, 36, 123
1, 358319, Note_on_c, 9, 42, 0
1, 358320, Note_on_c, 9, 42, 70
1, 358559, Note_on_c, 9, 36, 0
1, 358559, Note_on_c, 9, 42, 0
1, 358560, Note_on_c, 9, 38, 95
1, 358560, Note_on_c, 9, 42, 74
1, 358799, Note_on_c, 9, 38, 0
1, 358799, Note_on_c, 9, 42, 0
1, 358800, Note_on_c, 9, 42, 74
1, 359039, Note_on_c, 9, 42, 0
1, 359040, Note_on_c, 9, 42, 68
1, 359040, Note_on_c, 9, 36, 120
1, 359279, Note_on_c, 9, 42, 0
1, 359280, Note_on_c, 9, 42, 66
1, 359519, Note_on_c, 9, 36, 0
1, 359519, Note_on_c, 9, 42, 0
1, 359520, Note_on_c, 9, 38, 96
1, 359520, Note_on_c, 9, 42, 76
1, 359759, Note_on_c, 9, 38, 0
1, 359759, Note_on_c, 9, 42, 0
1, 359760, Note_on_c, 9, 42, 66
1, 359999, Note_on_c, 9, 42, 0
1, 360000, Note_on_c, 9, 42, 67
1, 360000, Note_on_c, 9, 36, 120
1, 360239, Note_on_c, 9, 42, 0
1, 360240, Note_on_c, 9, 42, 65
1, 360479, Note_on_c, 9, 36, 0
1, 360479, Note_on_c, 9, 42, 0
1, 360480, Note_on_c, 9, 38, 95
1, 360480, Note_on_c, 9, 46, 85
1, 360719, Note_on_c, 9, 38, 0
1, 360719, Note_on_c, 9, 46, 0
1, 360720, Note_on_c, 9, 47, 99
1, 360839, Note_on_c, 9, 47, 0
1, 360840, Note_on_c, 9, 47, 84
1, 360959, Note_on_c, 9, 47, 0
1, 360960, Note_on_c, 9, 36, 126
1, 360960, Note_on_c, 9, 43, 94
1, 361199, Note_on_c, 9, 36, 0
1, 361199, Note_on_c, 9, 43, 0
1, 361200, Note_on_c, 9, 43, 86
1, 361439, Note_on_c, 9, 43, 0
1, 361440, Note_on_c, 9, 38, 95
1, 361440, Note_on_c, 9, 46, 90
1, 361680, Note_on_c, 9, 43, 77
1, 361919, Note_on_c, 9, 38, 0
1, 361919, Note_on_c, 9, 46, 0
1, 361919, Note_on_c, 9, 43, 0
1, 361920, Note_on_c, 9, 46, 97
1, 361920, Note_on_c, 9, 36, 121
1, 362159, Note_on_c, 9, 36, 0
1, 362160, Note_on_c, 9, 43, 68
1, 362279, Note_on_c, 9, 43, 0
1, 362280, Note_on_c, 9, 43, 82
1, 362399, Note_on_c, 9, 46, 0
1, 362399, Note_on_c, 9, 43, 0
1, 362400, Note_on_c, 9, 38, 100
1, 362519, Note_on_c, 9, 38, 0
1, 362520, Note_on_c, 9, 38, 100
1, 362639, Note_on_c, 9, 38, 0
1, 362640, Note_on_c, 9, 38, 99
1, 362759, Note_on_c, 9, 38, 0
1, 362760, Note_on_c, 9, 38, 102
1, 362879, Note_on_c, 9, 38, 0
1, 362880, Note_on_c, 9, 49, 94
1, 362880, Note_on_c, 9, 36, 126
1, 363119, Note_on_c, 9, 49, 0
1, 363120, Note_on_c, 9, 42, 76
1, 363359, Note_on_c, 9, 36, 0
1, 363359, Note_on_c, 9, 42, 0
1, 363360, Note_on_c, 9, 38, 100
1, 363360, Note_on_c, 9, 42, 72
1, 363599, Note_on_c, 9, 38, 0
1, 363599, Note_on_c, 9, 42, 0
1, 363600, Note_on_c, 9, 42, 68
1, 363839, Note_on_c, 9, 42, 0
1, 363840, Note_on_c, 9, 42, 73
1, 363840, Note_on_c, 9, 36, 120
1, 364079, Note_on_c, 9, 42, 0
1, 364080, Note_on_c, 9, 42, 69
1, 364319, Note_on_c, 9, 36, 0
1, 364319, Note_on_c, 9, 42, 0
1, 364320, Note_on_c, 9, 38, 99
1, 364320, Note_on_c, 9, 42, 67
1, 364559, Note_on_c, 9, 38, 0
1, 364559, Note_on_c, 9, 42, 0
1, 364560, Note_on_c, 9, 42, 76
1, 364799, Note_on_c, 9, 42, 0
1, 364800, Note_on_c, 9, 42, 66
1, 364800, Note_on_c, 9, 36, 126
1, 365039, Note_on_c, 9, 42, 0
1, 365040, Note_on_c, 9, 42, 67
1, 365279, Note_on_c, 9, 36, 0
1, 365279, Note_on_c, 9, 42, 0
1, 365280, Note_on_c, 9, 38, 95
1, 365280, Note_on_c, 9, 42, 66
1, 365519, Note_on_c, 9, 38, 0
1, 365519, Note_on_c, 9, 42, 0
1, 365520, Note_on_c, 9, 42, 75
1, 365759, Note_on_c, 9, 42, 0
1, 365760, Note_on_c, 9, 42, 66
1, 365760, Note_on_c, 9, 36, 125
1, 365999, Note_on_c, 9, 42, 0
1, 366000, Note_on_c, 9, 42, 74
1, 366239, Note_on_c, 9, 36, 0
1, 366239, Note_on_c, 9, 42, 0
1, 366240, Note_on_c, 9, 38, 101
1, 366240, Note_on_c, 9, 42, 74
1, 366479, Note_on_c, 9, 38, 0
1, 366479, Note_on_c, 9, 42, 0
1, 366480, Note_on_c, 9, 42, 71
1, 366719, Note_on_c, 9, 42, 0
1, 366720, Note_on_c, 9, 42, 75
1, 366720, Note_on_c, 9, 36, 125
1, 366959, Note_on_c, 9, 42, 0
1, 366960, Note_on_c, 9, 42, 72
1, 367199, Note_on_c, 9, 36, 0
1, 367199, Note_on_c, 9, 42, 0
1, 367200, Note_on_c, 9, 38, 96
1, 367200, Note_on_c, 9, 42, 73
1, 367439, Note_on_c, 9, 38, 0
1, 367439, Note_on_c, 9, 42, 0
1, 367440, Note_on_c, 9, 42, 74
1, 367679, Note_on_c, 9, 42, 0
1, 367680, Note_on_c, 9, 42, 67
1, 367680, Note_on_c, 9, 36, 119
1, 367919, Note_on_c, 9, 42, 0
1, 367920, Note_on_c, 9, 42, 70
1, 368159, Note_on_c, 9, 36, 0
1, 368159, Note_on_c, 9, 42, 0
1, 368160, Note_on_c, 9, 38, 99
1, 368160, Note_on_c, 9, 42, 72
1, 368399, Note_on_c, 9, 38, 0
1, 368399, Note_on_c, 9, 42, 0
1, 368400, Note_on_c, 9, 42, 67
1, 368639, Note_on_c, 9, 42, 0
1, 368640, Note_on_c, 9, 42, 66
1, 368640, Note_on_c, 9, 36, 119
1, 368879, Note_on_c, 9, 42, 0
1, 368880, Note_on_c, 9, 42, 75
1, 369119, Note_on_c, 9, 36, 0
1, 369119, Note_on_c, 9, 42, 0
1, 369120, Note_on_c, 9, 38, 94
1, 369120, Note_on_c, 9, 42, 76
1, 369359, Note_on_c, 9, 38, 0
1, 369359, Note_on_c, 9, 42, 0
1, 369360, Note_on_c, 9, 42, 66
1, 369599, Note_on_c, 9, 42, 0
1, 369600, Note_on_c, 9, 42, 70
1, 369600, Note_on_c, 9, 36, 120
1, 369839, Note_on_c, 9, 42, 0
1, 369840, Note_on_c, 9, 42, 74
1, 370079, Note_on_c, 9, 36, 0
1, 370079, Note_on_c, 9, 42, 0
1, 370080, Note_on_c, 9, 38, 100
1, 370080, Note_on_c, 9, 42, 74
1, 370319, Note_on_c, 9, 38, 0
1, 370319, Note_on_c, 9, 42, 0
1, 370320, Note_on_c, 9, 42, 68
1, 370559, Note_on_c, 9, 42, 0
1, 370560, Note_on_c, 9, 49, 78
1, 370560, Note_on_c, 9, 36, 125
1, 370799, Note_on_c, 9, 49, 0
1, 370800, Note_on_c, 9, 42, 71
1, 371039, Note_on_c, 9, 36, 0
1, 371039, Note_on_c, 9, 42, 0
1, 371040, Note_on_c, 9, 38, 102
1, 371040, Note_on_c, 9, 42, 70
1, 371279, Note_on_c, 9, 38, 0
1, 371279, Note_on_c, 9, 42, 0
1, 371280, Note_on_c, 9, 42, 72
1, 371519, Note_on_c, 9, 42, 0
1, 371520, Note_on_c, 9, 42, 74
1, 371520, Note_on_c, 9, 36, 119
1, 371759, Note_on_c, 9, 42, 0
1, 371760, Note_on_c, 9, 42, 76
1, 371999, Note_on_c, 9, 36, 0
1, 371999, Note_on_c, 9, 42, 0
1, 372000, Note_on_c, 9, 38, 101
1, 372000, Note_on_c, 9, 42, 74
1, 372239, Note_on_c, 9, 38, 0
1, 372239, Note_on_c, 9, 42, 0
1, 372240, Note_on_c, 9, 42, 74
1, 372479, Note_on_c, 9, 42, 0
1, 372480, Note_on_c, 9, 42, 72
1, 372480, Note_on_c, 9, 36, 122
1, 372719, Note_on_c, 9, 42, 0
1, 372720, Note_on_c, 9, 42, 73
1, 372959, Note_on_c, 9, 36, 0
1, 372959, Note_on_c, 9, 42, 0
1, 372960, Note_on_c, 9, 38, 101
1, 372960, Note_on_c, 9, 42, 70
1, 373199, Note_on_c, 9, 38, 0
1, 373199, Note_on_c, 9, 42, 0
1, 373200, Note_on_c, 9, 42, 74
1, 373439, Note_on_c, 9, 42, 0
1, 373440, Note_on_c, 9, 42, 75
1, 373440, Note_on_c, 9, 36, 126
1, 373679, Note_on_c, 9, 42, 0
1, 373680, Note_on_c, 9, 42, 70
1, 373919, Note_on_c, 9, 36, 0
1, 373919, Note_on_c, 9, 42, 0
1, 373920, Note_on_c, 9, 38, 95
1, 373920, Note_on_c, 9, 42, 74
1, 374159, Note_on_c, 9, 38, 0
1, 374159, Note_on_c, 9, 42, 0
1, 374160, Note_on_c, 9, 42, 76
1, 374399, Note_on_c, 9, 42, 0
1, 374400, Note_on_c, 9, 42, 67
1, 374400, Note_on_c, 9, 36, 126
1, 374639, Note_on_c, 9, 42, 0
1, 374640, Note_on_c, 9, 42, 66
1, 374879, Note_on_c, 9, 36, 0
1, 374879, Note_on_c, 9, 42, 0
1, 374880, Note_on_c, 9, 38, 94
1, 374880, Note_on_c, 9, 42, 72
1, 375119, Note_on_c, 9, 38, 0
1, 375119, Note_on_c, 9, 42, 0
1, 375120, Note_on_c, 9, 42, 73
1, 375359, Note_on_c, 9, 42, 0
1, 375360, Note_on_c, 9, 42, 70
1, 375360, Note_on_c, 9, 36, 124
1, 375599, Note_on_c, 9, 42, 0
1, 375600, Note_on_c, 9, 42, 67
1, 375839, Note_on_c, 9, 36, 0
1, 375839, Note_on_c, 9, 42, 0
1, 375840, Note_on_c, 9, 38, 101
1, 375840, Note_on_c, 9, 46, 85
1, 376079, Note_on_c, 9, 38, 0
1, 376079, Note_on_c, 9, 46, 0
1, 376080, Note_on_c, 9, 38, 98
1, 376199, Note_on_c, 9, 38, 0
1, 376200, Note_on_c, 9, 38, 99
1, 376319, Note_on_c, 9, 38, 0
1, 376320, Note_on_c, 9, 42, 72
1, 376320, Note_on_c, 9, 36, 124
1, 376559, Note_on_c, 9, 42, 0
1, 376559, Note_on_c, 9, 36, 0
1, 376560, Note_on_c, 9, 42, 72
1, 376560, Note_on_c, 9, 36, 124
1, 376799, Note_on_c, 9, 42, 0
1, 376799, Note_on_c, 9, 36, 0
1, 376800, Note_on_c, 9, 38, 99
1, 376800, Note_on_c, 9, 42, 68
1, 377039, Note_on_c, 9, 38, 0
1, 377039, Note_on_c, 9, 42, 0
1, 377040, Note_on_c, 9, 38, 96
1, 377040, Note_on_c, 9, 42, 66
1, 377159, Note_on_c, 9, 38, 0
1, 377159, Note_on_c, 9, 42, 0
1, 377160, Note_on_c, 9, 38, 102
1, 377279, Note_on_c, 9, 38, 0
1, 377280, Note_on_c, 9, 49, 92
1, 377280, Note_on_c, 9, 36, 126
1, 377759, Note_on_c, 9, 49, 0
1, 377759, Note_on_c, 9, 36, 0
1, 377760, Note_on_c, 9, 46, 73
1, 377760, Note_on_c, 9, 49, 94
1, 377760, Note_on_c, 9, 36, 120
1, 378239, Note_on_c, 9, 46, 0
1, 378239, Note_on_c, 9, 49, 0
1, 378239, Note_on_c, 9, 36, 0
1, 378240, Note_on_c, 9, 46, 73
1, 378240, Note_on_c, 9, 49, 94
1, 378240, Note_on_c, 9, 36, 120
1, 378719, Note_on_c, 9, 46, 0
1, 378719, Note_on_c, 9, 49, 0
1, 378719, Note_on_c, 9, 36, 0
1, 378720, Note_on_c, 9, 44, 120
1, 379199, Note_on_c, 9, 44, 0
1, 379680, Note_on_c, 9, 44, 120
1, 380159, Note_on_c, 9, 44, 0
1, 380640, Note_on_c, 9, 44, 120
1, 381119, Note_on_c, 9, 44, 0
1, 381600, Note_on_c, 9, 44, 120
1, 382079, Note_on_c, 9, 44, 0
1, 382080, Note_on_c, 9, 38, 101
1, 382080, Note_on_c, 9, 36, 123
1, 382080, Note_on_c, 9, 43, 116
1, 382319, Note_on_c, 9, 36, 0
1, 382319, Note_on_c, 9, 43, 0
1, 382320, Note_on_c, 9, 35, 84
1, 382559, Note_on_c, 9, 38, 0
1, 382559, Note_on_c, 9, 35, 0
1, 382560, Note_on_c, 9, 44, 120
1, 382560, Note_on_c, 9, 35, 80
1, 382799, Note_on_c, 9, 44, 0
1, 382799, Note_on_c, 9, 35, 0
1, 382800, Note_on_c, 9, 38, 100
1, 382800, Note_on_c, 9, 36, 123
1, 382800, Note_on_c, 9, 43, 111
1, 383039, Note_on_c, 9, 38, 0
1, 383039, Note_on_c, 9, 36, 0
1, 383039, Note_on_c, 9, 43, 0
1, 383040, Note_on_c, 9, 35, 84
1, 383279, Note_on_c, 9, 35, 0
1, 383280, Note_on_c, 9, 35, 71
1, 383519, Note_on_c, 9, 35, 0
1, 383520, Note_on_c, 9, 38, 96
1, 383520, Note_on_c, 9, 44, 120
1, 383520, Note_on_c, 9, 36, 123
1, 383520, Note_on_c, 9, 43, 116
1, 383759, Note_on_c, 9, 44, 0
1, 383759, Note_on_c, 9, 36, 0
1, 383759, Note_on_c, 9, 43, 0
1, 383760, Note_on_c, 9, 35, 82
1, 383999, Note_on_c, 9, 38, 0
1, 383999, Note_on_c, 9, 35, 0
1, 384000, Note_on_c, 9, 38, 94
1, 384000, Note_on_c, 9, 36, 119
1, 384000, Note_on_c, 9, 43, 114
1, 384239, Note_on_c, 9, 36, 0
1, 384239, Note_on_c, 9, 43, 0
1, 384240, Note_on_c, 9, 35, 88
1, 384479, Note_on_c, 9, 38, 0
1, 384479, Note_on_c, 9, 35, 0
1, 384480, Note_on_c, 9, 35, 76
1, 384719, Note_on_c, 9, 35, 0
1, 384720, Note_on_c, 9, 38, 100
1, 384720, Note_on_c, 9, 36, 126
1, 384720, Note_on_c, 9, 43, 116
1, 384959, Note_on_c, 9, 38, 0
1, 384959, Note_on_c, 9, 36, 0
1, 384959, Note_on_c, 9, 43, 0
1, 384960, Note_on_c, 9, 35, 90
1, 385199, Note_on_c, 9, 35, 0
1, 385200, Note_on_c, 9, 35, 78
1, 385439, Note_on_c, 9, 35, 0
1, 385440, Note_on_c, 9, 38, 101
1, 385440, Note_on_c, 9, 36, 126
1, 385440, Note_on_c, 9, 43, 117
1, 385679, Note_on_c, 9, 38, 0
1, 385679, Note_on_c, 9, 36, 0
1, 385679, Note_on_c, 9, 43, 0
1, 385680, Note_on_c, 9, 38, 94
1, 385680, Note_on_c, 9, 36, 120
1, 385680, Note_on_c, 9, 43, 85
1, 385919, Note_on_c, 9, 38, 0
1, 385919, Note_on_c, 9, 36, 0
1, 385919, Note_on_c, 9, 43, 0
1, 385920, End_track
0, 0, End_of_file
