0, 0, Header, 1, 1, 480
1, 0, Start_track
1, 0, Time_signature, 4, 2, 24, 8
1, 0, Key_signature, 0, "major"
1, 0, Tempo, 500000
1, 0, Control_c, 9, 121, 0
1, 0, Program_c, 9, 0
1, 0, Control_c, 9, 7, 100
1, 0, Control_c, 9, 10, 64
1, 0, Control_c, 9, 91, 0
1, 0, Control_c, 9, 93, 0
1, 0, MIDI_port, 0
1, 3200, Note_on_c, 9, 40, 116
1, 3239, Note_on_c, 9, 40, 0
1, 3360, Note_on_c, 9, 40, 122
1, 3839, Note_on_c, 9, 40, 0
1, 3840, Note_on_c, 9, 40, 122
1, 3840, Note_on_c, 9, 35, 108
1, 4319, Note_on_c, 9, 40, 0
1, 4319, Note_on_c, 9, 35, 0
1, 7020, Note_on_c, 9, 54, 69
1, 7035, Note_on_c, 9, 40, 116
1, 7169, Note_on_c, 9, 40, 0
1, 7184, Note_on_c, 9, 54, 0
1, 7185, Note_on_c, 9, 54, 67
1, 7200, Note_on_c, 9, 40, 122
1, 7679, Note_on_c, 9, 54, 0
1, 7679, Note_on_c, 9, 40, 0
1, 7680, Note_on_c, 9, 54, 69
1, 7680, Note_on_c, 9, 35, 108
1, 7694, Note_on_c, 9, 54, 0
1, 7695, Note_on_c, 9, 40, 122
1, 7919, Note_on_c, 9, 40, 0
1, 8159, Note_on_c, 9, 35, 0
1, 10860, Note_on_c, 9, 54, 69
1, 10875, Note_on_c, 9, 40, 116
1, 11009, Note_on_c, 9, 40, 0
1, 11024, Note_on_c, 9, 54, 0
1, 11025, Note_on_c, 9, 54, 68
1, 11040, Note_on_c, 9, 40, 122
1, 11519, Note_on_c, 9, 54, 0
1, 11519, Note_on_c, 9, 40, 0
1, 11520, Note_on_c, 9, 54, 69
1, 11520, Note_on_c, 9, 35, 113
1, 11534, Note_on_c, 9, 54, 0
1, 11535, Note_on_c, 9, 40, 122
1, 11759, Note_on_c, 9, 40, 0
1, 11999, Note_on_c, 9, 35, 0
1, 15825, Note_on_c, 9, 54, 61
1, 15840, Note_on_c, 9, 40, 122
1, 15840, Note_on_c, 9, 35, 122
1, 16319, Note_on_c, 9, 54, 0
1, 16319, Note_on_c, 9, 40, 0
1, 16319, Note_on_c, 9, 35, 0
1, 16785, Note_on_c, 9, 54, 61
1, 16800, Note_on_c, 9, 40, 122
1, 16800, Note_on_c, 9, 35, 122
1, 17279, Note_on_c, 9, 54, 0
1, 17279, Note_on_c, 9, 40, 0
1, 17279, Note_on_c, 9, 35, 0
1, 17745, Note_on_c, 9, 54, 63
1, 17760, Note_on_c, 9, 40, 122
1, 17760, Note_on_c, 9, 35, 122
1, 18239, Note_on_c, 9, 54, 0
1, 18239, Note_on_c, 9, 40, 0
1, 18239, Note_on_c, 9, 35, 0
1, 18705, Note_on_c, 9, 54, 59
1, 18720, Note_on_c, 9, 40, 122
1, 18720, Note_on_c, 9, 35, 122
1, 18959, Note_on_c, 9, 54, 0
1, 18959, Note_on_c, 9, 40, 0
1, 19040, Note_on_c, 9, 40, 52
1, 19079, Note_on_c, 9, 40, 0
1, 19199, Note_on_c, 9, 35, 0
1, 19200, Note_on_c, 9, 35, 88
1, 19665, Note_on_c, 9, 54, 57
1, 19679, Note_on_c, 9, 35, 0
1, 19680, Note_on_c, 9, 40, 84
1, 19680, Note_on_c, 9, 42, 73
1, 20159, Note_on_c, 9, 54, 0
1, 20159, Note_on_c, 9, 40, 0
1, 20159, Note_on_c, 9, 42, 0
1, 20160, Note_on_c, 9, 35, 81
1, 20639, Note_on_c, 9, 35, 0
1, 20640, Note_on_c, 9, 54, 57
1, 20654, Note_on_c, 9, 54, 0
1, 20655, Note_on_c, 9, 46, 78
1, 20879, Note_on_c, 9, 46, 0
1, 21120, Note_on_c, 9, 35, 88
1, 21585, Note_on_c, 9, 54, 57
1, 21599, Note_on_c, 9, 35, 0
1, 21600, Note_on_c, 9, 42, 84
1, 22079, Note_on_c, 9, 54, 0
1, 22079, Note_on_c, 9, 42, 0
1, 22080, Note_on_c, 9, 35, 88
1, 22400, Note_on_c, 9, 40, 102
1, 22439, Note_on_c, 9, 40, 0
1, 22545, Note_on_c, 9, 46, 78
1, 22559, Note_on_c, 9, 35, 0
1, 22559, Note_on_c, 9, 46, 0
1, 22560, Note_on_c, 9, 54, 56
1, 22574, Note_on_c, 9, 54, 0
1, 22575, Note_on_c, 9, 40, 122
1, 22799, Note_on_c, 9, 40, 0
1, 23040, Note_on_c, 9, 35, 85
1, 23505, Note_on_c, 9, 54, 57
1, 23519, Note_on_c, 9, 35, 0
1, 23520, Note_on_c, 9, 42, 76
1, 23999, Note_on_c, 9, 54, 0
1, 23999, Note_on_c, 9, 42, 0
1, 24000, Note_on_c, 9, 35, 85
1, 24479, Note_on_c, 9, 35, 0
1, 24480, Note_on_c, 9, 54, 57
1, 24480, Note_on_c, 9, 46, 76
1, 24959, Note_on_c, 9, 54, 0
1, 24959, Note_on_c, 9, 46, 0
1, 24960, Note_on_c, 9, 35, 81
1, 25439, Note_on_c, 9, 35, 0
1, 25440, Note_on_c, 9, 54, 59
1, 25440, Note_on_c, 9, 42, 76
1, 25919, Note_on_c, 9, 54, 0
1, 25919, Note_on_c, 9, 42, 0
1, 25920, Note_on_c, 9, 35, 79
1, 26240, Note_on_c, 9, 40, 102
1, 26279, Note_on_c, 9, 40, 0
1, 26385, Note_on_c, 9, 54, 59
1, 26385, Note_on_c, 9, 46, 71
1, 26399, Note_on_c, 9, 35, 0
1, 26400, Note_on_c, 9, 40, 122
1, 26879, Note_on_c, 9, 54, 0
1, 26879, Note_on_c, 9, 46, 0
1, 26879, Note_on_c, 9, 40, 0
1, 26880, Note_on_c, 9, 35, 83
1, 27345, Note_on_c, 9, 54, 57
1, 27359, Note_on_c, 9, 35, 0
1, 27360, Note_on_c, 9, 42, 71
1, 27839, Note_on_c, 9, 54, 0
1, 27839, Note_on_c, 9, 42, 0
1, 27840, Note_on_c, 9, 35, 81
1, 28305, Note_on_c, 9, 54, 59
1, 28319, Note_on_c, 9, 35, 0
1, 28320, Note_on_c, 9, 46, 73
1, 28799, Note_on_c, 9, 54, 0
1, 28799, Note_on_c, 9, 46, 0
1, 28800, Note_on_c, 9, 35, 85
1, 29265, Note_on_c, 9, 54, 57
1, 29279, Note_on_c, 9, 35, 0
1, 29280, Note_on_c, 9, 42, 76
1, 29759, Note_on_c, 9, 54, 0
1, 29759, Note_on_c, 9, 42, 0
1, 29760, Note_on_c, 9, 35, 77
1, 30080, Note_on_c, 9, 40, 102
1, 30119, Note_on_c, 9, 40, 0
1, 30225, Note_on_c, 9, 54, 57
1, 30225, Note_on_c, 9, 46, 76
1, 30239, Note_on_c, 9, 35, 0
1, 30240, Note_on_c, 9, 40, 122
1, 30719, Note_on_c, 9, 54, 0
1, 30719, Note_on_c, 9, 46, 0
1, 30719, Note_on_c, 9, 40, 0
1, 30720, Note_on_c, 9, 35, 81
1, 31199, Note_on_c, 9, 35, 0
1, 31200, Note_on_c, 9, 54, 57
1, 31200, Note_on_c, 9, 42, 76
1, 31679, Note_on_c, 9, 54, 0
1, 31679, Note_on_c, 9, 42, 0
1, 31680, Note_on_c, 9, 35, 79
1, 32159, Note_on_c, 9, 35, 0
1, 32160, Note_on_c, 9, 54, 59
1, 32160, Note_on_c, 9, 46, 77
1, 32639, Note_on_c, 9, 54, 0
1, 32639, Note_on_c, 9, 46, 0
1, 32640, Note_on_c, 9, 35, 79
1, 33105, Note_on_c, 9, 54, 59
1, 33119, Note_on_c, 9, 35, 0
1, 33120, Note_on_c, 9, 42, 77
1, 33599, Note_on_c, 9, 54, 0
1, 33599, Note_on_c, 9, 42, 0
1, 33600, Note_on_c, 9, 35, 81
1, 33920, Note_on_c, 9, 40, 102
1, 33959, Note_on_c, 9, 40, 0
1, 34065, Note_on_c, 9, 54, 58
1, 34065, Note_on_c, 9, 46, 76
1, 34079, Note_on_c, 9, 35, 0
1, 34080, Note_on_c, 9, 40, 122
1, 34559, Note_on_c, 9, 54, 0
1, 34559, Note_on_c, 9, 46, 0
1, 34559, Note_on_c, 9, 40, 0
1, 34560, Note_on_c, 9, 35, 77
1, 35025, Note_on_c, 9, 54, 59
1, 35039, Note_on_c, 9, 35, 0
1, 35040, Note_on_c, 9, 42, 77
1, 35519, Note_on_c, 9, 54, 0
1, 35519, Note_on_c, 9, 42, 0
1, 35520, Note_on_c, 9, 35, 79
1, 35985, Note_on_c, 9, 54, 57
1, 35999, Note_on_c, 9, 35, 0
1, 36000, Note_on_c, 9, 46, 77
1, 36479, Note_on_c, 9, 54, 0
1, 36479, Note_on_c, 9, 46, 0
1, 36480, Note_on_c, 9, 35, 81
1, 36945, Note_on_c, 9, 54, 57
1, 36959, Note_on_c, 9, 35, 0
1, 36960, Note_on_c, 9, 42, 77
1, 37439, Note_on_c, 9, 54, 0
1, 37439, Note_on_c, 9, 42, 0
1, 37440, Note_on_c, 9, 40, 64
1, 37440, Note_on_c, 9, 35, 81
1, 37679, Note_on_c, 9, 40, 0
1, 37760, Note_on_c, 9, 40, 102
1, 37799, Note_on_c, 9, 40, 0
1, 37905, Note_on_c, 9, 54, 59
1, 37919, Note_on_c, 9, 35, 0
1, 37920, Note_on_c, 9, 40, 116
1, 37934, Note_on_c, 9, 54, 0
1, 37934, Note_on_c, 9, 40, 0
1, 37935, Note_on_c, 9, 46, 79
1, 38159, Note_on_c, 9, 46, 0
1, 38400, Note_on_c, 9, 40, 116
1, 38400, Note_on_c, 9, 35, 85
1, 38519, Note_on_c, 9, 40, 0
1, 38560, Note_on_c, 9, 40, 76
1, 38579, Note_on_c, 9, 40, 0
1, 38720, Note_on_c, 9, 40, 64
1, 38759, Note_on_c, 9, 40, 0
1, 38865, Note_on_c, 9, 54, 57
1, 38879, Note_on_c, 9, 35, 0
1, 38880, Note_on_c, 9, 40, 102
1, 38894, Note_on_c, 9, 54, 0
1, 38894, Note_on_c, 9, 40, 0
1, 38895, Note_on_c, 9, 46, 86
1, 39119, Note_on_c, 9, 46, 0
1, 39200, Note_on_c, 9, 40, 52
1, 39239, Note_on_c, 9, 40, 0
1, 39360, Note_on_c, 9, 40, 116
1, 39360, Note_on_c, 9, 35, 79
1, 39479, Note_on_c, 9, 40, 0
1, 39520, Note_on_c, 9, 40, 76
1, 39539, Note_on_c, 9, 40, 0
1, 39680, Note_on_c, 9, 40, 64
1, 39719, Note_on_c, 9, 40, 0
1, 39825, Note_on_c, 9, 54, 57
1, 39839, Note_on_c, 9, 35, 0
1, 39840, Note_on_c, 9, 40, 102
1, 39854, Note_on_c, 9, 54, 0
1, 39854, Note_on_c, 9, 40, 0
1, 39855, Note_on_c, 9, 46, 76
1, 40079, Note_on_c, 9, 46, 0
1, 40160, Note_on_c, 9, 40, 40
1, 40199, Note_on_c, 9, 40, 0
1, 40320, Note_on_c, 9, 40, 102
1, 40320, Note_on_c, 9, 35, 88
1, 40439, Note_on_c, 9, 40, 0
1, 40480, Note_on_c, 9, 40, 76
1, 40499, Note_on_c, 9, 40, 0
1, 40640, Note_on_c, 9, 40, 64
1, 40679, Note_on_c, 9, 40, 0
1, 40785, Note_on_c, 9, 54, 57
1, 40799, Note_on_c, 9, 35, 0
1, 40800, Note_on_c, 9, 40, 116
1, 40800, Note_on_c, 9, 46, 79
1, 41039, Note_on_c, 9, 54, 0
1, 41039, Note_on_c, 9, 40, 0
1, 41039, Note_on_c, 9, 46, 0
1, 41120, Note_on_c, 9, 40, 52
1, 41159, Note_on_c, 9, 40, 0
1, 41280, Note_on_c, 9, 40, 89
1, 41280, Note_on_c, 9, 35, 85
1, 41399, Note_on_c, 9, 40, 0
1, 41440, Note_on_c, 9, 40, 76
1, 41459, Note_on_c, 9, 40, 0
1, 41600, Note_on_c, 9, 40, 89
1, 41639, Note_on_c, 9, 40, 0
1, 41745, Note_on_c, 9, 54, 55
1, 41759, Note_on_c, 9, 35, 0
1, 41760, Note_on_c, 9, 40, 116
1, 41760, Note_on_c, 9, 46, 88
1, 42239, Note_on_c, 9, 54, 0
1, 42239, Note_on_c, 9, 40, 0
1, 42239, Note_on_c, 9, 46, 0
1, 42240, Note_on_c, 9, 35, 88
1, 42705, Note_on_c, 9, 54, 56
1, 42719, Note_on_c, 9, 35, 0
1, 42720, Note_on_c, 9, 42, 77
1, 43199, Note_on_c, 9, 54, 0
1, 43199, Note_on_c, 9, 42, 0
1, 43200, Note_on_c, 9, 35, 81
1, 43665, Note_on_c, 9, 54, 56
1, 43679, Note_on_c, 9, 35, 0
1, 43680, Note_on_c, 9, 46, 75
1, 44159, Note_on_c, 9, 54, 0
1, 44159, Note_on_c, 9, 46, 0
1, 44160, Note_on_c, 9, 35, 88
1, 44639, Note_on_c, 9, 35, 0
1, 44640, Note_on_c, 9, 54, 57
1, 44654, Note_on_c, 9, 54, 0
1, 44655, Note_on_c, 9, 42, 73
1, 44879, Note_on_c, 9, 42, 0
1, 45120, Note_on_c, 9, 35, 88
1, 45440, Note_on_c, 9, 40, 40
1, 45479, Note_on_c, 9, 40, 0
1, 45585, Note_on_c, 9, 54, 57
1, 45599, Note_on_c, 9, 35, 0
1, 45600, Note_on_c, 9, 40, 122
1, 45614, Note_on_c, 9, 54, 0
1, 45614, Note_on_c, 9, 40, 0
1, 45615, Note_on_c, 9, 46, 78
1, 45839, Note_on_c, 9, 46, 0
1, 46080, Note_on_c, 9, 35, 85
1, 46545, Note_on_c, 9, 54, 57
1, 46559, Note_on_c, 9, 35, 0
1, 46560, Note_on_c, 9, 42, 77
1, 47039, Note_on_c, 9, 54, 0
1, 47039, Note_on_c, 9, 42, 0
1, 47040, Note_on_c, 9, 35, 85
1, 47505, Note_on_c, 9, 54, 57
1, 47519, Note_on_c, 9, 35, 0
1, 47520, Note_on_c, 9, 42, 77
1, 47999, Note_on_c, 9, 54, 0
1, 47999, Note_on_c, 9, 42, 0
1, 48000, Note_on_c, 9, 35, 81
1, 48465, Note_on_c, 9, 54, 56
1, 48479, Note_on_c, 9, 35, 0
1, 48480, Note_on_c, 9, 42, 84
1, 48959, Note_on_c, 9, 54, 0
1, 48959, Note_on_c, 9, 42, 0
1, 48960, Note_on_c, 9, 35, 79
1, 49280, Note_on_c, 9, 40, 52
1, 49319, Note_on_c, 9, 40, 0
1, 49425, Note_on_c, 9, 54, 57
1, 49439, Note_on_c, 9, 35, 0
1, 49440, Note_on_c, 9, 40, 122
1, 49440, Note_on_c, 9, 46, 85
1, 49919, Note_on_c, 9, 54, 0
1, 49919, Note_on_c, 9, 40, 0
1, 49919, Note_on_c, 9, 46, 0
1, 49920, Note_on_c, 9, 35, 83
1, 50385, Note_on_c, 9, 54, 56
1, 50399, Note_on_c, 9, 35, 0
1, 50400, Note_on_c, 9, 42, 79
1, 50879, Note_on_c, 9, 54, 0
1, 50879, Note_on_c, 9, 42, 0
1, 50880, Note_on_c, 9, 35, 81
1, 51345, Note_on_c, 9, 54, 56
1, 51359, Note_on_c, 9, 35, 0
1, 51360, Note_on_c, 9, 42, 81
1, 51839, Note_on_c, 9, 54, 0
1, 51839, Note_on_c, 9, 42, 0
1, 51840, Note_on_c, 9, 35, 85
1, 52305, Note_on_c, 9, 54, 55
1, 52319, Note_on_c, 9, 35, 0
1, 52320, Note_on_c, 9, 42, 79
1, 52799, Note_on_c, 9, 54, 0
1, 52799, Note_on_c, 9, 42, 0
1, 52800, Note_on_c, 9, 35, 77
1, 53120, Note_on_c, 9, 40, 40
1, 53159, Note_on_c, 9, 40, 0
1, 53265, Note_on_c, 9, 54, 55
1, 53265, Note_on_c, 9, 46, 82
1, 53279, Note_on_c, 9, 35, 0
1, 53280, Note_on_c, 9, 40, 122
1, 53759, Note_on_c, 9, 54, 0
1, 53759, Note_on_c, 9, 46, 0
1, 53759, Note_on_c, 9, 40, 0
1, 53760, Note_on_c, 9, 35, 81
1, 54225, Note_on_c, 9, 54, 57
1, 54239, Note_on_c, 9, 35, 0
1, 54240, Note_on_c, 9, 42, 78
1, 54719, Note_on_c, 9, 54, 0
1, 54719, Note_on_c, 9, 42, 0
1, 54720, Note_on_c, 9, 35, 79
1, 55185, Note_on_c, 9, 54, 57
1, 55199, Note_on_c, 9, 35, 0
1, 55200, Note_on_c, 9, 42, 76
1, 55679, Note_on_c, 9, 54, 0
1, 55679, Note_on_c, 9, 42, 0
1, 55680, Note_on_c, 9, 35, 79
1, 56145, Note_on_c, 9, 54, 59
1, 56159, Note_on_c, 9, 35, 0
1, 56160, Note_on_c, 9, 42, 82
1, 56639, Note_on_c, 9, 54, 0
1, 56639, Note_on_c, 9, 42, 0
1, 56640, Note_on_c, 9, 35, 81
1, 56960, Note_on_c, 9, 40, 52
1, 56999, Note_on_c, 9, 40, 0
1, 57105, Note_on_c, 9, 54, 56
1, 57119, Note_on_c, 9, 35, 0
1, 57120, Note_on_c, 9, 40, 122
1, 57120, Note_on_c, 9, 46, 82
1, 57599, Note_on_c, 9, 54, 0
1, 57599, Note_on_c, 9, 40, 0
1, 57599, Note_on_c, 9, 46, 0
1, 57600, Note_on_c, 9, 35, 77
1, 58065, Note_on_c, 9, 54, 57
1, 58079, Note_on_c, 9, 35, 0
1, 58080, Note_on_c, 9, 42, 81
1, 58559, Note_on_c, 9, 54, 0
1, 58559, Note_on_c, 9, 42, 0
1, 58560, Note_on_c, 9, 35, 79
1, 59025, Note_on_c, 9, 42, 78
1, 59039, Note_on_c, 9, 35, 0
1, 59039, Note_on_c, 9, 42, 0
1, 59040, Note_on_c, 9, 54, 56
1, 59519, Note_on_c, 9, 54, 0
1, 59520, Note_on_c, 9, 35, 81
1, 59985, Note_on_c, 9, 42, 76
1, 59999, Note_on_c, 9, 35, 0
1, 59999, Note_on_c, 9, 42, 0
1, 60000, Note_on_c, 9, 54, 56
1, 60479, Note_on_c, 9, 54, 0
1, 60480, Note_on_c, 9, 35, 81
1, 60800, Note_on_c, 9, 40, 52
1, 60839, Note_on_c, 9, 40, 0
1, 60945, Note_on_c, 9, 46, 79
1, 60959, Note_on_c, 9, 35, 0
1, 60959, Note_on_c, 9, 46, 0
1, 60960, Note_on_c, 9, 54, 57
1, 60974, Note_on_c, 9, 54, 0
1, 60975, Note_on_c, 9, 40, 122
1, 61199, Note_on_c, 9, 40, 0
1, 61280, Note_on_c, 9, 40, 64
1, 61319, Note_on_c, 9, 40, 0
1, 61440, Note_on_c, 9, 40, 122
1, 61440, Note_on_c, 9, 35, 85
1, 61559, Note_on_c, 9, 40, 0
1, 61600, Note_on_c, 9, 40, 76
1, 61619, Note_on_c, 9, 40, 0
1, 61760, Note_on_c, 9, 40, 89
1, 61799, Note_on_c, 9, 40, 0
1, 61905, Note_on_c, 9, 54, 54
1, 61919, Note_on_c, 9, 35, 0
1, 61920, Note_on_c, 9, 40, 64
1, 61934, Note_on_c, 9, 54, 0
1, 61934, Note_on_c, 9, 40, 0
1, 61935, Note_on_c, 9, 46, 84
1, 62159, Note_on_c, 9, 46, 0
1, 62240, Note_on_c, 9, 40, 40
1, 62279, Note_on_c, 9, 40, 0
1, 62400, Note_on_c, 9, 40, 122
1, 62400, Note_on_c, 9, 35, 79
1, 62519, Note_on_c, 9, 40, 0
1, 62560, Note_on_c, 9, 40, 89
1, 62579, Note_on_c, 9, 40, 0
1, 62720, Note_on_c, 9, 40, 116
1, 62759, Note_on_c, 9, 40, 0
1, 62865, Note_on_c, 9, 54, 57
1, 62879, Note_on_c, 9, 35, 0
1, 62880, Note_on_c, 9, 40, 76
1, 62880, Note_on_c, 9, 46, 79
1, 63119, Note_on_c, 9, 54, 0
1, 63119, Note_on_c, 9, 40, 0
1, 63119, Note_on_c, 9, 46, 0
1, 63200, Note_on_c, 9, 40, 40
1, 63239, Note_on_c, 9, 40, 0
1, 63360, Note_on_c, 9, 40, 122
1, 63360, Note_on_c, 9, 35, 88
1, 63479, Note_on_c, 9, 40, 0
1, 63520, Note_on_c, 9, 40, 89
1, 63539, Note_on_c, 9, 40, 0
1, 63680, Note_on_c, 9, 40, 116
1, 63719, Note_on_c, 9, 40, 0
1, 63825, Note_on_c, 9, 54, 56
1, 63839, Note_on_c, 9, 35, 0
1, 63840, Note_on_c, 9, 40, 89
1, 63854, Note_on_c, 9, 54, 0
1, 63854, Note_on_c, 9, 40, 0
1, 63855, Note_on_c, 9, 46, 76
1, 64079, Note_on_c, 9, 46, 0
1, 64160, Note_on_c, 9, 40, 40
1, 64199, Note_on_c, 9, 40, 0
1, 64305, Note_on_c, 9, 54, 55
1, 64320, Note_on_c, 9, 40, 122
1, 64320, Note_on_c, 9, 35, 85
1, 64439, Note_on_c, 9, 54, 0
1, 64439, Note_on_c, 9, 40, 0
1, 64480, Note_on_c, 9, 40, 89
1, 64499, Note_on_c, 9, 40, 0
1, 64640, Note_on_c, 9, 40, 116
1, 64679, Note_on_c, 9, 40, 0
1, 64785, Note_on_c, 9, 54, 56
1, 64799, Note_on_c, 9, 35, 0
1, 64800, Note_on_c, 9, 40, 76
1, 64800, Note_on_c, 9, 46, 82
1, 65039, Note_on_c, 9, 54, 0
1, 65039, Note_on_c, 9, 40, 0
1, 65039, Note_on_c, 9, 46, 0
1, 65120, Note_on_c, 9, 40, 52
1, 65159, Note_on_c, 9, 40, 0
1, 65280, Note_on_c, 9, 40, 122
1, 65280, Note_on_c, 9, 35, 88
1, 65399, Note_on_c, 9, 40, 0
1, 65440, Note_on_c, 9, 40, 76
1, 65459, Note_on_c, 9, 40, 0
1, 65600, Note_on_c, 9, 40, 102
1, 65639, Note_on_c, 9, 40, 0
1, 65745, Note_on_c, 9, 54, 59
1, 65759, Note_on_c, 9, 35, 0
1, 65760, Note_on_c, 9, 40, 116
1, 65774, Note_on_c, 9, 54, 0
1, 65774, Note_on_c, 9, 40, 0
1, 65775, Note_on_c, 9, 42, 81
1, 65999, Note_on_c, 9, 42, 0
1, 66240, Note_on_c, 9, 35, 81
1, 66705, Note_on_c, 9, 54, 57
1, 66719, Note_on_c, 9, 35, 0
1, 66720, Note_on_c, 9, 40, 89
1, 66720, Note_on_c, 9, 46, 86
1, 67199, Note_on_c, 9, 54, 0
1, 67199, Note_on_c, 9, 40, 0
1, 67199, Note_on_c, 9, 46, 0
1, 67200, Note_on_c, 9, 35, 88
1, 67665, Note_on_c, 9, 54, 56
1, 67679, Note_on_c, 9, 35, 0
1, 67680, Note_on_c, 9, 40, 89
1, 67694, Note_on_c, 9, 54, 0
1, 67694, Note_on_c, 9, 40, 0
1, 67695, Note_on_c, 9, 42, 79
1, 67919, Note_on_c, 9, 42, 0
1, 68160, Note_on_c, 9, 35, 88
1, 68480, Note_on_c, 9, 40, 40
1, 68519, Note_on_c, 9, 40, 0
1, 68625, Note_on_c, 9, 54, 57
1, 68625, Note_on_c, 9, 46, 84
1, 68639, Note_on_c, 9, 35, 0
1, 68640, Note_on_c, 9, 40, 122
1, 69119, Note_on_c, 9, 54, 0
1, 69119, Note_on_c, 9, 46, 0
1, 69119, Note_on_c, 9, 40, 0
1, 69120, Note_on_c, 9, 35, 85
1, 69585, Note_on_c, 9, 54, 55
1, 69585, Note_on_c, 9, 42, 79
1, 69599, Note_on_c, 9, 35, 0
1, 69600, Note_on_c, 9, 40, 89
1, 70079, Note_on_c, 9, 54, 0
1, 70079, Note_on_c, 9, 42, 0
1, 70079, Note_on_c, 9, 40, 0
1, 70080, Note_on_c, 9, 35, 85
1, 70545, Note_on_c, 9, 46, 82
1, 70559, Note_on_c, 9, 35, 0
1, 70559, Note_on_c, 9, 46, 0
1, 70560, Note_on_c, 9, 54, 56
1, 70574, Note_on_c, 9, 54, 0
1, 70575, Note_on_c, 9, 40, 89
1, 70799, Note_on_c, 9, 40, 0
1, 71040, Note_on_c, 9, 35, 81
1, 71505, Note_on_c, 9, 54, 54
1, 71519, Note_on_c, 9, 35, 0
1, 71520, Note_on_c, 9, 40, 89
1, 71520, Note_on_c, 9, 42, 76
1, 71999, Note_on_c, 9, 54, 0
1, 71999, Note_on_c, 9, 40, 0
1, 71999, Note_on_c, 9, 42, 0
1, 72000, Note_on_c, 9, 35, 79
1, 72320, Note_on_c, 9, 40, 52
1, 72359, Note_on_c, 9, 40, 0
1, 72465, Note_on_c, 9, 54, 55
1, 72465, Note_on_c, 9, 46, 84
1, 72479, Note_on_c, 9, 35, 0
1, 72480, Note_on_c, 9, 40, 122
1, 72959, Note_on_c, 9, 54, 0
1, 72959, Note_on_c, 9, 46, 0
1, 72959, Note_on_c, 9, 40, 0
1, 72960, Note_on_c, 9, 35, 83
1, 73425, Note_on_c, 9, 54, 57
1, 73439, Note_on_c, 9, 35, 0
1, 73440, Note_on_c, 9, 40, 89
1, 73440, Note_on_c, 9, 42, 82
1, 73919, Note_on_c, 9, 54, 0
1, 73919, Note_on_c, 9, 40, 0
1, 73919, Note_on_c, 9, 42, 0
1, 73920, Note_on_c, 9, 35, 81
1, 74385, Note_on_c, 9, 46, 84
1, 74399, Note_on_c, 9, 35, 0
1, 74399, Note_on_c, 9, 46, 0
1, 74400, Note_on_c, 9, 54, 55
1, 74414, Note_on_c, 9, 54, 0
1, 74415, Note_on_c, 9, 40, 89
1, 74639, Note_on_c, 9, 40, 0
1, 74880, Note_on_c, 9, 35, 85
1, 75345, Note_on_c, 9, 54, 57
1, 75359, Note_on_c, 9, 35, 0
1, 75360, Note_on_c, 9, 40, 89
1, 75374, Note_on_c, 9, 54, 0
1, 75374, Note_on_c, 9, 40, 0
1, 75375, Note_on_c, 9, 42, 76
1, 75599, Note_on_c, 9, 42, 0
1, 75840, Note_on_c, 9, 35, 77
1, 76160, Note_on_c, 9, 40, 40
1, 76199, Note_on_c, 9, 40, 0
1, 76305, Note_on_c, 9, 54, 55
1, 76305, Note_on_c, 9, 46, 82
1, 76319, Note_on_c, 9, 35, 0
1, 76320, Note_on_c, 9, 40, 122
1, 76799, Note_on_c, 9, 54, 0
1, 76799, Note_on_c, 9, 46, 0
1, 76799, Note_on_c, 9, 40, 0
1, 76800, Note_on_c, 9, 35, 81
1, 77265, Note_on_c, 9, 54, 55
1, 77279, Note_on_c, 9, 35, 0
1, 77280, Note_on_c, 9, 40, 89
1, 77294, Note_on_c, 9, 54, 0
1, 77294, Note_on_c, 9, 40, 0
1, 77295, Note_on_c, 9, 42, 76
1, 77519, Note_on_c, 9, 42, 0
1, 77760, Note_on_c, 9, 35, 79
1, 78225, Note_on_c, 9, 54, 57
1, 78239, Note_on_c, 9, 35, 0
1, 78240, Note_on_c, 9, 40, 89
1, 78240, Note_on_c, 9, 46, 82
1, 78719, Note_on_c, 9, 54, 0
1, 78719, Note_on_c, 9, 40, 0
1, 78719, Note_on_c, 9, 46, 0
1, 78720, Note_on_c, 9, 40, 52
1, 78720, Note_on_c, 9, 35, 79
1, 78959, Note_on_c, 9, 40, 0
1, 79040, Note_on_c, 9, 40, 122
1, 79079, Note_on_c, 9, 40, 0
1, 79199, Note_on_c, 9, 35, 0
1, 79200, Note_on_c, 9, 54, 57
1, 79214, Note_on_c, 9, 54, 0
1, 79215, Note_on_c, 9, 46, 91
1, 79259, Note_on_c, 9, 46, 0
1, 79360, Note_on_c, 9, 40, 40
1, 79379, Note_on_c, 9, 40, 0
1, 79520, Note_on_c, 9, 40, 52
1, 79559, Note_on_c, 9, 40, 0
1, 79680, Note_on_c, 9, 40, 122
1, 79680, Note_on_c, 9, 35, 81
1, 79919, Note_on_c, 9, 40, 0
1, 80000, Note_on_c, 9, 40, 122
1, 80039, Note_on_c, 9, 40, 0
1, 80159, Note_on_c, 9, 35, 0
1, 80160, Note_on_c, 9, 54, 54
1, 80174, Note_on_c, 9, 54, 0
1, 80175, Note_on_c, 9, 46, 91
1, 80399, Note_on_c, 9, 46, 0
1, 80480, Note_on_c, 9, 40, 52
1, 80519, Note_on_c, 9, 40, 0
1, 80640, Note_on_c, 9, 35, 77
1, 81105, Note_on_c, 9, 54, 56
1, 81119, Note_on_c, 9, 35, 0
1, 81120, Note_on_c, 9, 40, 89
1, 81134, Note_on_c, 9, 54, 0
1, 81134, Note_on_c, 9, 40, 0
1, 81135, Note_on_c, 9, 42, 91
1, 81359, Note_on_c, 9, 42, 0
1, 81600, Note_on_c, 9, 35, 79
1, 82065, Note_on_c, 9, 54, 54
1, 82079, Note_on_c, 9, 35, 0
1, 82080, Note_on_c, 9, 40, 89
1, 82080, Note_on_c, 9, 46, 84
1, 82559, Note_on_c, 9, 54, 0
1, 82559, Note_on_c, 9, 40, 0
1, 82559, Note_on_c, 9, 46, 0
1, 82560, Note_on_c, 9, 35, 81
1, 83025, Note_on_c, 9, 54, 55
1, 83039, Note_on_c, 9, 35, 0
1, 83040, Note_on_c, 9, 40, 89
1, 83054, Note_on_c, 9, 54, 0
1, 83054, Note_on_c, 9, 40, 0
1, 83055, Note_on_c, 9, 42, 84
1, 83279, Note_on_c, 9, 42, 0
1, 83520, Note_on_c, 9, 35, 81
1, 83840, Note_on_c, 9, 40, 122
1, 83879, Note_on_c, 9, 40, 0
1, 83985, Note_on_c, 9, 54, 55
1, 83999, Note_on_c, 9, 35, 0
1, 84000, Note_on_c, 9, 46, 82
1, 84479, Note_on_c, 9, 54, 0
1, 84479, Note_on_c, 9, 46, 0
1, 84480, Note_on_c, 9, 35, 85
1, 84800, Note_on_c, 9, 40, 40
1, 84839, Note_on_c, 9, 40, 0
1, 84945, Note_on_c, 9, 54, 54
1, 84959, Note_on_c, 9, 35, 0
1, 84960, Note_on_c, 9, 40, 116
1, 84974, Note_on_c, 9, 54, 0
1, 84974, Note_on_c, 9, 40, 0
1, 84975, Note_on_c, 9, 42, 79
1, 85199, Note_on_c, 9, 42, 0
1, 85440, Note_on_c, 9, 35, 79
1, 85760, Note_on_c, 9, 40, 40
1, 85799, Note_on_c, 9, 40, 0
1, 85905, Note_on_c, 9, 54, 57
1, 85919, Note_on_c, 9, 35, 0
1, 85920, Note_on_c, 9, 40, 116
1, 85920, Note_on_c, 9, 46, 79
1, 86399, Note_on_c, 9, 54, 0
1, 86399, Note_on_c, 9, 40, 0
1, 86399, Note_on_c, 9, 46, 0
1, 86400, Note_on_c, 9, 35, 88
1, 86720, Note_on_c, 9, 40, 40
1, 86759, Note_on_c, 9, 40, 0
1, 86865, Note_on_c, 9, 54, 55
1, 86879, Note_on_c, 9, 35, 0
1, 86880, Note_on_c, 9, 40, 116
1, 86880, Note_on_c, 9, 46, 84
1, 87359, Note_on_c, 9, 54, 0
1, 87359, Note_on_c, 9, 40, 0
1, 87359, Note_on_c, 9, 46, 0
1, 87360, Note_on_c, 9, 35, 85
1, 87680, Note_on_c, 9, 40, 122
1, 87719, Note_on_c, 9, 40, 0
1, 87825, Note_on_c, 9, 54, 57
1, 87839, Note_on_c, 9, 35, 0
1, 87840, Note_on_c, 9, 40, 116
1, 87854, Note_on_c, 9, 54, 0
1, 87854, Note_on_c, 9, 40, 0
1, 87855, Note_on_c, 9, 46, 86
1, 88079, Note_on_c, 9, 46, 0
1, 88320, Note_on_c, 9, 35, 88
1, 88785, Note_on_c, 9, 54, 54
1, 88799, Note_on_c, 9, 35, 0
1, 88800, Note_on_c, 9, 42, 82
1, 89279, Note_on_c, 9, 54, 0
1, 89279, Note_on_c, 9, 42, 0
1, 89280, Note_on_c, 9, 35, 81
1, 89759, Note_on_c, 9, 35, 0
1, 89760, Note_on_c, 9, 54, 55
1, 89774, Note_on_c, 9, 54, 0
1, 89775, Note_on_c, 9, 46, 77
1, 89999, Note_on_c, 9, 46, 0
1, 90240, Note_on_c, 9, 35, 88
1, 90719, Note_on_c, 9, 35, 0
1, 90720, Note_on_c, 9, 54, 57
1, 90734, Note_on_c, 9, 54, 0
1, 90735, Note_on_c, 9, 42, 71
1, 90959, Note_on_c, 9, 42, 0
1, 91200, Note_on_c, 9, 35, 88
1, 91520, Note_on_c, 9, 40, 52
1, 91559, Note_on_c, 9, 40, 0
1, 91665, Note_on_c, 9, 54, 56
1, 91679, Note_on_c, 9, 35, 0
1, 91680, Note_on_c, 9, 40, 122
1, 91680, Note_on_c, 9, 46, 76
1, 91919, Note_on_c, 9, 54, 0
1, 91919, Note_on_c, 9, 40, 0
1, 91919, Note_on_c, 9, 46, 0
1, 92000, Note_on_c, 9, 40, 116
1, 92039, Note_on_c, 9, 40, 0
1, 92160, Note_on_c, 9, 35, 85
1, 92625, Note_on_c, 9, 54, 55
1, 92639, Note_on_c, 9, 35, 0
1, 92640, Note_on_c, 9, 42, 68
1, 93119, Note_on_c, 9, 54, 0
1, 93119, Note_on_c, 9, 42, 0
1, 93120, Note_on_c, 9, 35, 85
1, 93585, Note_on_c, 9, 54, 57
1, 93599, Note_on_c, 9, 35, 0
1, 93600, Note_on_c, 9, 46, 77
1, 94079, Note_on_c, 9, 54, 0
1, 94079, Note_on_c, 9, 46, 0
1, 94080, Note_on_c, 9, 35, 81
1, 94559, Note_on_c, 9, 35, 0
1, 94560, Note_on_c, 9, 54, 55
1, 94574, Note_on_c, 9, 54, 0
1, 94575, Note_on_c, 9, 42, 68
1, 94799, Note_on_c, 9, 42, 0
1, 95040, Note_on_c, 9, 35, 79
1, 95360, Note_on_c, 9, 40, 40
1, 95399, Note_on_c, 9, 40, 0
1, 95505, Note_on_c, 9, 54, 56
1, 95519, Note_on_c, 9, 35, 0
1, 95520, Note_on_c, 9, 40, 122
1, 95534, Note_on_c, 9, 54, 0
1, 95534, Note_on_c, 9, 40, 0
1, 95535, Note_on_c, 9, 46, 82
1, 95759, Note_on_c, 9, 46, 0
1, 95840, Note_on_c, 9, 40, 116
1, 95879, Note_on_c, 9, 40, 0
1, 96000, Note_on_c, 9, 35, 83
1, 96479, Note_on_c, 9, 35, 0
1, 96480, Note_on_c, 9, 54, 55
1, 96480, Note_on_c, 9, 42, 73
1, 96959, Note_on_c, 9, 54, 0
1, 96959, Note_on_c, 9, 42, 0
1, 96960, Note_on_c, 9, 35, 81
1, 97425, Note_on_c, 9, 54, 55
1, 97439, Note_on_c, 9, 35, 0
1, 97440, Note_on_c, 9, 46, 79
1, 97919, Note_on_c, 9, 54, 0
1, 97919, Note_on_c, 9, 46, 0
1, 97920, Note_on_c, 9, 35, 85
1, 98399, Note_on_c, 9, 35, 0
1, 98400, Note_on_c, 9, 54, 55
1, 98414, Note_on_c, 9, 54, 0
1, 98415, Note_on_c, 9, 42, 76
1, 98639, Note_on_c, 9, 42, 0
1, 98880, Note_on_c, 9, 35, 77
1, 99200, Note_on_c, 9, 40, 40
1, 99239, Note_on_c, 9, 40, 0
1, 99345, Note_on_c, 9, 54, 55
1, 99359, Note_on_c, 9, 35, 0
1, 99360, Note_on_c, 9, 40, 122
1, 99360, Note_on_c, 9, 46, 76
1, 99599, Note_on_c, 9, 54, 0
1, 99599, Note_on_c, 9, 40, 0
1, 99599, Note_on_c, 9, 46, 0
1, 99680, Note_on_c, 9, 40, 116
1, 99719, Note_on_c, 9, 40, 0
1, 99840, Note_on_c, 9, 35, 81
1, 100319, Note_on_c, 9, 35, 0
1, 100320, Note_on_c, 9, 54, 57
1, 100334, Note_on_c, 9, 54, 0
1, 100335, Note_on_c, 9, 42, 73
1, 100559, Note_on_c, 9, 42, 0
1, 100800, Note_on_c, 9, 35, 79
1, 101265, Note_on_c, 9, 54, 59
1, 101279, Note_on_c, 9, 35, 0
1, 101280, Note_on_c, 9, 46, 77
1, 101759, Note_on_c, 9, 54, 0
1, 101759, Note_on_c, 9, 46, 0
1, 101760, Note_on_c, 9, 35, 79
1, 102239, Note_on_c, 9, 35, 0
1, 102240, Note_on_c, 9, 54, 59
1, 102254, Note_on_c, 9, 54, 0
1, 102255, Note_on_c, 9, 42, 73
1, 102479, Note_on_c, 9, 42, 0
1, 102720, Note_on_c, 9, 35, 81
1, 103185, Note_on_c, 9, 54, 57
1, 103185, Note_on_c, 9, 46, 79
1, 103199, Note_on_c, 9, 35, 0
1, 103200, Note_on_c, 9, 40, 122
1, 103439, Note_on_c, 9, 54, 0
1, 103439, Note_on_c, 9, 46, 0
1, 103439, Note_on_c, 9, 40, 0
1, 103520, Note_on_c, 9, 40, 102
1, 103559, Note_on_c, 9, 40, 0
1, 103680, Note_on_c, 9, 35, 77
1, 104145, Note_on_c, 9, 54, 59
1, 104159, Note_on_c, 9, 35, 0
1, 104160, Note_on_c, 9, 42, 73
1, 104639, Note_on_c, 9, 54, 0
1, 104639, Note_on_c, 9, 42, 0
1, 104640, Note_on_c, 9, 35, 79
1, 105105, Note_on_c, 9, 54, 57
1, 105119, Note_on_c, 9, 35, 0
1, 105120, Note_on_c, 9, 46, 76
1, 105599, Note_on_c, 9, 54, 0
1, 105599, Note_on_c, 9, 46, 0
1, 105600, Note_on_c, 9, 35, 81
1, 106079, Note_on_c, 9, 35, 0
1, 106080, Note_on_c, 9, 54, 57
1, 106094, Note_on_c, 9, 54, 0
1, 106095, Note_on_c, 9, 42, 76
1, 106319, Note_on_c, 9, 42, 0
1, 106560, Note_on_c, 9, 35, 81
1, 107025, Note_on_c, 9, 54, 57
1, 107039, Note_on_c, 9, 35, 0
1, 107040, Note_on_c, 9, 40, 116
1, 107040, Note_on_c, 9, 46, 79
1, 107279, Note_on_c, 9, 54, 0
1, 107279, Note_on_c, 9, 40, 0
1, 107279, Note_on_c, 9, 46, 0
1, 107360, Note_on_c, 9, 40, 102
1, 107399, Note_on_c, 9, 40, 0
1, 107520, Note_on_c, 9, 35, 85
1, 107985, Note_on_c, 9, 54, 59
1, 107999, Note_on_c, 9, 35, 0
1, 108000, Note_on_c, 9, 40, 122
1, 108014, Note_on_c, 9, 54, 0
1, 108014, Note_on_c, 9, 40, 0
1, 108015, Note_on_c, 9, 46, 82
1, 108239, Note_on_c, 9, 46, 0
1, 108480, Note_on_c, 9, 40, 122
1, 108480, Note_on_c, 9, 35, 79
1, 108719, Note_on_c, 9, 40, 0
1, 108800, Note_on_c, 9, 40, 116
1, 108839, Note_on_c, 9, 40, 0
1, 108945, Note_on_c, 9, 54, 57
1, 108959, Note_on_c, 9, 35, 0
1, 108960, Note_on_c, 9, 46, 79
1, 109079, Note_on_c, 9, 54, 0
1, 109079, Note_on_c, 9, 46, 0
1, 109120, Note_on_c, 9, 40, 40
1, 109139, Note_on_c, 9, 40, 0
1, 109280, Note_on_c, 9, 40, 52
1, 109319, Note_on_c, 9, 40, 0
1, 109440, Note_on_c, 9, 40, 116
1, 109440, Note_on_c, 9, 35, 88
1, 109889, Note_on_c, 9, 40, 0
1, 109905, Note_on_c, 9, 54, 55
1, 109919, Note_on_c, 9, 35, 0
1, 109920, Note_on_c, 9, 40, 40
1, 109934, Note_on_c, 9, 54, 0
1, 109934, Note_on_c, 9, 40, 0
1, 109935, Note_on_c, 9, 46, 97
1, 109979, Note_on_c, 9, 46, 0
1, 110080, Note_on_c, 9, 40, 40
1, 110099, Note_on_c, 9, 40, 0
1, 110240, Note_on_c, 9, 40, 116
1, 110279, Note_on_c, 9, 40, 0
1, 110400, Note_on_c, 9, 35, 85
1, 110720, Note_on_c, 9, 40, 40
1, 110759, Note_on_c, 9, 40, 0
1, 110865, Note_on_c, 9, 54, 57
1, 110879, Note_on_c, 9, 35, 0
1, 110880, Note_on_c, 9, 40, 122
1, 110880, Note_on_c, 9, 55, 120
1, 111359, Note_on_c, 9, 54, 0
1, 111359, Note_on_c, 9, 40, 0
1, 111359, Note_on_c, 9, 55, 0
1, 111360, Note_on_c, 9, 40, 64
1, 111360, Note_on_c, 9, 35, 88
1, 111599, Note_on_c, 9, 40, 0
1, 111680, Note_on_c, 9, 40, 52
1, 111719, Note_on_c, 9, 40, 0
1, 111825, Note_on_c, 9, 54, 54
1, 111839, Note_on_c, 9, 35, 0
1, 111840, Note_on_c, 9, 40, 116
1, 112319, Note_on_c, 9, 54, 0
1, 112319, Note_on_c, 9, 40, 0
1, 112320, Note_on_c, 9, 40, 52
1, 112320, Note_on_c, 9, 35, 81
1, 112559, Note_on_c, 9, 40, 0
1, 112640, Note_on_c, 9, 40, 40
1, 112679, Note_on_c, 9, 40, 0
1, 112785, Note_on_c, 9, 54, 56
1, 112799, Note_on_c, 9, 35, 0
1, 112800, Note_on_c, 9, 40, 116
1, 113279, Note_on_c, 9, 54, 0
1, 113279, Note_on_c, 9, 40, 0
1, 113280, Note_on_c, 9, 40, 52
1, 113280, Note_on_c, 9, 35, 88
1, 113519, Note_on_c, 9, 40, 0
1, 113600, Note_on_c, 9, 40, 40
1, 113639, Note_on_c, 9, 40, 0
1, 113745, Note_on_c, 9, 54, 55
1, 113759, Note_on_c, 9, 35, 0
1, 113760, Note_on_c, 9, 40, 116
1, 114239, Note_on_c, 9, 54, 0
1, 114239, Note_on_c, 9, 40, 0
1, 114240, Note_on_c, 9, 40, 52
1, 114240, Note_on_c, 9, 35, 88
1, 114479, Note_on_c, 9, 40, 0
1, 114560, Note_on_c, 9, 40, 52
1, 114599, Note_on_c, 9, 40, 0
1, 114705, Note_on_c, 9, 54, 57
1, 114705, Note_on_c, 9, 55, 110
1, 114719, Note_on_c, 9, 35, 0
1, 114720, Note_on_c, 9, 40, 116
1, 115199, Note_on_c, 9, 54, 0
1, 115199, Note_on_c, 9, 55, 0
1, 115199, Note_on_c, 9, 40, 0
1, 115200, Note_on_c, 9, 40, 52
1, 115200, Note_on_c, 9, 35, 85
1, 115439, Note_on_c, 9, 40, 0
1, 115520, Note_on_c, 9, 40, 40
1, 115559, Note_on_c, 9, 40, 0
1, 115665, Note_on_c, 9, 54, 55
1, 115679, Note_on_c, 9, 35, 0
1, 115680, Note_on_c, 9, 40, 116
1, 116159, Note_on_c, 9, 54, 0
1, 116159, Note_on_c, 9, 40, 0
1, 116160, Note_on_c, 9, 40, 52
1, 116160, Note_on_c, 9, 35, 85
1, 116399, Note_on_c, 9, 40, 0
1, 116480, Note_on_c, 9, 40, 40
1, 116519, Note_on_c, 9, 40, 0
1, 116625, Note_on_c, 9, 54, 57
1, 116639, Note_on_c, 9, 35, 0
1, 116640, Note_on_c, 9, 40, 116
1, 117119, Note_on_c, 9, 54, 0
1, 117119, Note_on_c, 9, 40, 0
1, 117120, Note_on_c, 9, 40, 52
1, 117120, Note_on_c, 9, 35, 81
1, 117359, Note_on_c, 9, 40, 0
1, 117440, Note_on_c, 9, 40, 40
1, 117479, Note_on_c, 9, 40, 0
1, 117585, Note_on_c, 9, 54, 57
1, 117599, Note_on_c, 9, 35, 0
1, 117600, Note_on_c, 9, 40, 116
1, 118079, Note_on_c, 9, 54, 0
1, 118079, Note_on_c, 9, 40, 0
1, 118080, Note_on_c, 9, 40, 40
1, 118080, Note_on_c, 9, 35, 79
1, 118319, Note_on_c, 9, 40, 0
1, 118400, Note_on_c, 9, 40, 52
1, 118439, Note_on_c, 9, 40, 0
1, 118545, Note_on_c, 9, 54, 59
1, 118545, Note_on_c, 9, 55, 102
1, 118559, Note_on_c, 9, 35, 0
1, 118560, Note_on_c, 9, 40, 116
1, 119039, Note_on_c, 9, 54, 0
1, 119039, Note_on_c, 9, 55, 0
1, 119039, Note_on_c, 9, 40, 0
1, 119040, Note_on_c, 9, 40, 52
1, 119040, Note_on_c, 9, 35, 83
1, 119279, Note_on_c, 9, 40, 0
1, 119360, Note_on_c, 9, 40, 40
1, 119399, Note_on_c, 9, 40, 0
1, 119505, Note_on_c, 9, 54, 57
1, 119519, Note_on_c, 9, 35, 0
1, 119520, Note_on_c, 9, 40, 116
1, 119999, Note_on_c, 9, 54, 0
1, 119999, Note_on_c, 9, 40, 0
1, 120000, Note_on_c, 9, 40, 40
1, 120000, Note_on_c, 9, 35, 81
1, 120239, Note_on_c, 9, 40, 0
1, 120320, Note_on_c, 9, 40, 40
1, 120359, Note_on_c, 9, 40, 0
1, 120465, Note_on_c, 9, 54, 57
1, 120479, Note_on_c, 9, 35, 0
1, 120480, Note_on_c, 9, 40, 116
1, 120959, Note_on_c, 9, 54, 0
1, 120959, Note_on_c, 9, 40, 0
1, 120960, Note_on_c, 9, 40, 52
1, 120960, Note_on_c, 9, 35, 85
1, 121199, Note_on_c, 9, 40, 0
1, 121280, Note_on_c, 9, 40, 40
1, 121319, Note_on_c, 9, 40, 0
1, 121425, Note_on_c, 9, 54, 54
1, 121439, Note_on_c, 9, 35, 0
1, 121440, Note_on_c, 9, 40, 116
1, 121919, Note_on_c, 9, 54, 0
1, 121919, Note_on_c, 9, 40, 0
1, 121920, Note_on_c, 9, 40, 40
1, 121920, Note_on_c, 9, 35, 77
1, 122159, Note_on_c, 9, 40, 0
1, 122240, Note_on_c, 9, 40, 52
1, 122279, Note_on_c, 9, 40, 0
1, 122385, Note_on_c, 9, 55, 110
1, 122399, Note_on_c, 9, 35, 0
1, 122399, Note_on_c, 9, 55, 0
1, 122400, Note_on_c, 9, 54, 57
1, 122414, Note_on_c, 9, 54, 0
1, 122415, Note_on_c, 9, 40, 116
1, 122639, Note_on_c, 9, 40, 0
1, 122880, Note_on_c, 9, 40, 52
1, 122880, Note_on_c, 9, 35, 81
1, 123119, Note_on_c, 9, 40, 0
1, 123200, Note_on_c, 9, 40, 40
1, 123239, Note_on_c, 9, 40, 0
1, 123345, Note_on_c, 9, 54, 57
1, 123359, Note_on_c, 9, 35, 0
1, 123360, Note_on_c, 9, 40, 116
1, 123839, Note_on_c, 9, 54, 0
1, 123839, Note_on_c, 9, 40, 0
1, 123840, Note_on_c, 9, 40, 52
1, 123840, Note_on_c, 9, 35, 79
1, 124079, Note_on_c, 9, 40, 0
1, 124160, Note_on_c, 9, 40, 40
1, 124199, Note_on_c, 9, 40, 0
1, 124305, Note_on_c, 9, 54, 57
1, 124319, Note_on_c, 9, 35, 0
1, 124320, Note_on_c, 9, 40, 116
1, 124799, Note_on_c, 9, 54, 0
1, 124799, Note_on_c, 9, 40, 0
1, 124800, Note_on_c, 9, 40, 52
1, 124800, Note_on_c, 9, 35, 79
1, 125039, Note_on_c, 9, 40, 0
1, 125120, Note_on_c, 9, 40, 40
1, 125159, Note_on_c, 9, 40, 0
1, 125265, Note_on_c, 9, 54, 55
1, 125279, Note_on_c, 9, 35, 0
1, 125280, Note_on_c, 9, 40, 116
1, 125759, Note_on_c, 9, 54, 0
1, 125759, Note_on_c, 9, 40, 0
1, 125760, Note_on_c, 9, 40, 52
1, 125760, Note_on_c, 9, 35, 81
1, 125999, Note_on_c, 9, 40, 0
1, 126080, Note_on_c, 9, 40, 40
1, 126119, Note_on_c, 9, 40, 0
1, 126225, Note_on_c, 9, 54, 59
1, 126225, Note_on_c, 9, 55, 97
1, 126239, Note_on_c, 9, 35, 0
1, 126240, Note_on_c, 9, 40, 116
1, 126719, Note_on_c, 9, 54, 0
1, 126719, Note_on_c, 9, 55, 0
1, 126719, Note_on_c, 9, 40, 0
1, 126720, Note_on_c, 9, 40, 52
1, 126720, Note_on_c, 9, 35, 77
1, 126959, Note_on_c, 9, 40, 0
1, 127040, Note_on_c, 9, 40, 40
1, 127079, Note_on_c, 9, 40, 0
1, 127185, Note_on_c, 9, 54, 57
1, 127199, Note_on_c, 9, 35, 0
1, 127200, Note_on_c, 9, 40, 116
1, 127679, Note_on_c, 9, 54, 0
1, 127679, Note_on_c, 9, 40, 0
1, 127680, Note_on_c, 9, 40, 40
1, 127680, Note_on_c, 9, 35, 79
1, 127919, Note_on_c, 9, 40, 0
1, 128000, Note_on_c, 9, 40, 40
1, 128039, Note_on_c, 9, 40, 0
1, 128145, Note_on_c, 9, 54, 55
1, 128159, Note_on_c, 9, 35, 0
1, 128160, Note_on_c, 9, 40, 116
1, 128639, Note_on_c, 9, 54, 0
1, 128639, Note_on_c, 9, 40, 0
1, 128640, Note_on_c, 9, 40, 52
1, 128640, Note_on_c, 9, 35, 81
1, 128879, Note_on_c, 9, 40, 0
1, 128960, Note_on_c, 9, 40, 40
1, 128999, Note_on_c, 9, 40, 0
1, 129105, Note_on_c, 9, 54, 54
1, 129119, Note_on_c, 9, 35, 0
1, 129120, Note_on_c, 9, 40, 116
1, 129599, Note_on_c, 9, 54, 0
1, 129599, Note_on_c, 9, 40, 0
1, 129600, Note_on_c, 9, 40, 40
1, 129600, Note_on_c, 9, 35, 81
1, 129839, Note_on_c, 9, 40, 0
1, 129920, Note_on_c, 9, 40, 52
1, 129959, Note_on_c, 9, 40, 0
1, 130065, Note_on_c, 9, 54, 58
1, 130079, Note_on_c, 9, 35, 0
1, 130080, Note_on_c, 9, 40, 116
1, 130080, Note_on_c, 9, 55, 114
1, 130559, Note_on_c, 9, 54, 0
1, 130559, Note_on_c, 9, 40, 0
1, 130559, Note_on_c, 9, 55, 0
1, 130560, Note_on_c, 9, 40, 52
1, 130560, Note_on_c, 9, 35, 85
1, 130799, Note_on_c, 9, 40, 0
1, 130880, Note_on_c, 9, 40, 40
1, 130919, Note_on_c, 9, 40, 0
1, 131025, Note_on_c, 9, 54, 57
1, 131039, Note_on_c, 9, 35, 0
1, 131040, Note_on_c, 9, 40, 116
1, 131519, Note_on_c, 9, 54, 0
1, 131519, Note_on_c, 9, 40, 0
1, 131520, Note_on_c, 9, 40, 40
1, 131520, Note_on_c, 9, 35, 79
1, 131759, Note_on_c, 9, 40, 0
1, 131840, Note_on_c, 9, 40, 40
1, 131879, Note_on_c, 9, 40, 0
1, 131985, Note_on_c, 9, 54, 56
1, 131999, Note_on_c, 9, 35, 0
1, 132000, Note_on_c, 9, 40, 116
1, 132479, Note_on_c, 9, 54, 0
1, 132479, Note_on_c, 9, 40, 0
1, 132480, Note_on_c, 9, 40, 52
1, 132480, Note_on_c, 9, 35, 88
1, 132719, Note_on_c, 9, 40, 0
1, 132800, Note_on_c, 9, 40, 40
1, 132839, Note_on_c, 9, 40, 0
1, 132945, Note_on_c, 9, 54, 57
1, 132959, Note_on_c, 9, 35, 0
1, 132960, Note_on_c, 9, 40, 116
1, 133409, Note_on_c, 9, 54, 0
1, 133409, Note_on_c, 9, 40, 0
1, 133425, Note_on_c, 9, 54, 54
1, 133440, Note_on_c, 9, 40, 52
1, 133440, Note_on_c, 9, 35, 85
1, 133559, Note_on_c, 9, 54, 0
1, 133559, Note_on_c, 9, 40, 0
1, 133600, Note_on_c, 9, 40, 40
1, 133619, Note_on_c, 9, 40, 0
1, 133760, Note_on_c, 9, 40, 52
1, 133799, Note_on_c, 9, 40, 0
1, 133905, Note_on_c, 9, 54, 57
1, 133919, Note_on_c, 9, 35, 0
1, 133920, Note_on_c, 9, 40, 122
1, 134159, Note_on_c, 9, 54, 0
1, 134159, Note_on_c, 9, 40, 0
1, 134240, Note_on_c, 9, 40, 52
1, 134279, Note_on_c, 9, 40, 0
1, 134400, Note_on_c, 9, 54, 39
1, 134400, Note_on_c, 9, 35, 88
1, 134414, Note_on_c, 9, 54, 0
1, 134415, Note_on_c, 9, 40, 116
1, 134415, Note_on_c, 9, 55, 62
1, 134864, Note_on_c, 9, 40, 0
1, 134864, Note_on_c, 9, 55, 0
1, 134865, Note_on_c, 9, 54, 59
1, 134879, Note_on_c, 9, 35, 0
1, 134880, Note_on_c, 9, 40, 116
1, 134880, Note_on_c, 9, 55, 62
1, 135329, Note_on_c, 9, 54, 0
1, 135329, Note_on_c, 9, 40, 0
1, 135329, Note_on_c, 9, 55, 0
1, 135345, Note_on_c, 9, 54, 41
1, 135345, Note_on_c, 9, 55, 59
1, 135360, Note_on_c, 9, 40, 116
1, 135839, Note_on_c, 9, 54, 0
1, 135839, Note_on_c, 9, 55, 0
1, 135839, Note_on_c, 9, 40, 0
1, 135840, Note_on_c, 9, 54, 61
1, 135840, Note_on_c, 9, 55, 56
1, 136079, Note_on_c, 9, 54, 0
1, 136079, Note_on_c, 9, 55, 0
1, 136140, Note_on_c, 9, 55, 63
1, 136159, Note_on_c, 9, 55, 0
1, 136160, Note_on_c, 9, 40, 102
1, 136170, Note_on_c, 9, 35, 85
1, 136199, Note_on_c, 9, 40, 0
1, 136199, Note_on_c, 9, 35, 0
1, 136320, Note_on_c, 9, 54, 40
1, 136559, Note_on_c, 9, 54, 0
1, 136620, Note_on_c, 9, 55, 59
1, 136639, Note_on_c, 9, 55, 0
1, 136640, Note_on_c, 9, 40, 116
1, 136679, Note_on_c, 9, 40, 0
1, 136800, Note_on_c, 9, 54, 60
1, 137039, Note_on_c, 9, 54, 0
1, 137100, Note_on_c, 9, 55, 59
1, 137119, Note_on_c, 9, 55, 0
1, 137120, Note_on_c, 9, 40, 102
1, 137159, Note_on_c, 9, 40, 0
1, 137265, Note_on_c, 9, 54, 42
1, 137265, Note_on_c, 9, 55, 57
1, 137280, Note_on_c, 9, 40, 116
1, 137564, Note_on_c, 9, 54, 0
1, 137564, Note_on_c, 9, 55, 0
1, 137564, Note_on_c, 9, 40, 0
1, 137565, Note_on_c, 9, 55, 60
1, 137579, Note_on_c, 9, 55, 0
1, 137595, Note_on_c, 9, 40, 102
1, 137729, Note_on_c, 9, 40, 0
1, 137745, Note_on_c, 9, 54, 62
1, 137745, Note_on_c, 9, 55, 57
1, 137760, Note_on_c, 9, 40, 102
1, 138239, Note_on_c, 9, 54, 0
1, 138239, Note_on_c, 9, 55, 0
1, 138239, Note_on_c, 9, 40, 0
1, 138240, Note_on_c, 9, 54, 40
1, 138240, Note_on_c, 9, 55, 62
1, 138240, Note_on_c, 9, 35, 89
1, 138254, Note_on_c, 9, 54, 0
1, 138254, Note_on_c, 9, 55, 0
1, 138255, Note_on_c, 9, 40, 116
1, 138704, Note_on_c, 9, 40, 0
1, 138705, Note_on_c, 9, 54, 60
1, 138705, Note_on_c, 9, 55, 60
1, 138719, Note_on_c, 9, 35, 0
1, 138720, Note_on_c, 9, 40, 116
1, 139169, Note_on_c, 9, 54, 0
1, 139169, Note_on_c, 9, 55, 0
1, 139169, Note_on_c, 9, 40, 0
1, 139185, Note_on_c, 9, 54, 42
1, 139185, Note_on_c, 9, 55, 60
1, 139200, Note_on_c, 9, 40, 116
1, 139679, Note_on_c, 9, 54, 0
1, 139679, Note_on_c, 9, 55, 0
1, 139679, Note_on_c, 9, 40, 0
1, 139680, Note_on_c, 9, 54, 62
1, 139680, Note_on_c, 9, 55, 56
1, 139919, Note_on_c, 9, 54, 0
1, 139919, Note_on_c, 9, 55, 0
1, 139980, Note_on_c, 9, 55, 63
1, 139980, Note_on_c, 9, 35, 79
1, 139999, Note_on_c, 9, 55, 0
1, 140000, Note_on_c, 9, 40, 102
1, 140039, Note_on_c, 9, 40, 0
1, 140159, Note_on_c, 9, 35, 0
1, 140160, Note_on_c, 9, 54, 42
1, 140399, Note_on_c, 9, 54, 0
1, 140460, Note_on_c, 9, 55, 60
1, 140479, Note_on_c, 9, 55, 0
1, 140480, Note_on_c, 9, 40, 116
1, 140519, Note_on_c, 9, 40, 0
1, 140640, Note_on_c, 9, 54, 62
1, 140879, Note_on_c, 9, 54, 0
1, 140940, Note_on_c, 9, 55, 60
1, 140959, Note_on_c, 9, 55, 0
1, 140960, Note_on_c, 9, 40, 102
1, 140999, Note_on_c, 9, 40, 0
1, 141105, Note_on_c, 9, 54, 44
1, 141105, Note_on_c, 9, 55, 56
1, 141120, Note_on_c, 9, 40, 116
1, 141359, Note_on_c, 9, 54, 0
1, 141359, Note_on_c, 9, 55, 0
1, 141359, Note_on_c, 9, 40, 0
1, 141420, Note_on_c, 9, 55, 56
1, 141439, Note_on_c, 9, 55, 0
1, 141440, Note_on_c, 9, 40, 102
1, 141479, Note_on_c, 9, 40, 0
1, 141585, Note_on_c, 9, 54, 64
1, 141585, Note_on_c, 9, 55, 56
1, 141600, Note_on_c, 9, 40, 102
1, 142079, Note_on_c, 9, 54, 0
1, 142079, Note_on_c, 9, 55, 0
1, 142079, Note_on_c, 9, 40, 0
1, 142080, Note_on_c, 9, 54, 42
1, 142080, Note_on_c, 9, 55, 59
1, 142080, Note_on_c, 9, 35, 86
1, 142094, Note_on_c, 9, 54, 0
1, 142094, Note_on_c, 9, 55, 0
1, 142095, Note_on_c, 9, 40, 116
1, 142544, Note_on_c, 9, 40, 0
1, 142545, Note_on_c, 9, 54, 62
1, 142545, Note_on_c, 9, 55, 59
1, 142559, Note_on_c, 9, 35, 0
1, 142560, Note_on_c, 9, 40, 116
1, 143009, Note_on_c, 9, 54, 0
1, 143009, Note_on_c, 9, 55, 0
1, 143009, Note_on_c, 9, 40, 0
1, 143025, Note_on_c, 9, 54, 42
1, 143025, Note_on_c, 9, 55, 57
1, 143040, Note_on_c, 9, 40, 116
1, 143519, Note_on_c, 9, 54, 0
1, 143519, Note_on_c, 9, 55, 0
1, 143519, Note_on_c, 9, 40, 0
1, 143520, Note_on_c, 9, 54, 62
1, 143520, Note_on_c, 9, 55, 54
1, 143759, Note_on_c, 9, 54, 0
1, 143759, Note_on_c, 9, 55, 0
1, 143820, Note_on_c, 9, 55, 63
1, 143839, Note_on_c, 9, 55, 0
1, 143840, Note_on_c, 9, 40, 102
1, 143850, Note_on_c, 9, 35, 81
1, 143879, Note_on_c, 9, 40, 0
1, 143879, Note_on_c, 9, 35, 0
1, 144000, Note_on_c, 9, 54, 39
1, 144239, Note_on_c, 9, 54, 0
1, 144300, Note_on_c, 9, 55, 61
1, 144319, Note_on_c, 9, 55, 0
1, 144320, Note_on_c, 9, 40, 116
1, 144359, Note_on_c, 9, 40, 0
1, 144480, Note_on_c, 9, 54, 59
1, 144719, Note_on_c, 9, 54, 0
1, 144780, Note_on_c, 9, 55, 60
1, 144799, Note_on_c, 9, 55, 0
1, 144800, Note_on_c, 9, 40, 102
1, 144839, Note_on_c, 9, 40, 0
1, 144945, Note_on_c, 9, 54, 42
1, 144945, Note_on_c, 9, 55, 56
1, 144960, Note_on_c, 9, 40, 116
1, 145199, Note_on_c, 9, 54, 0
1, 145199, Note_on_c, 9, 55, 0
1, 145199, Note_on_c, 9, 40, 0
1, 145260, Note_on_c, 9, 55, 57
1, 145279, Note_on_c, 9, 55, 0
1, 145280, Note_on_c, 9, 40, 102
1, 145319, Note_on_c, 9, 40, 0
1, 145425, Note_on_c, 9, 54, 62
1, 145425, Note_on_c, 9, 55, 58
1, 145440, Note_on_c, 9, 40, 102
1, 145919, Note_on_c, 9, 54, 0
1, 145919, Note_on_c, 9, 55, 0
1, 145919, Note_on_c, 9, 40, 0
1, 145920, Note_on_c, 9, 54, 42
1, 145920, Note_on_c, 9, 55, 59
1, 145920, Note_on_c, 9, 35, 84
1, 145934, Note_on_c, 9, 54, 0
1, 145934, Note_on_c, 9, 55, 0
1, 145935, Note_on_c, 9, 40, 116
1, 146384, Note_on_c, 9, 40, 0
1, 146385, Note_on_c, 9, 54, 62
1, 146385, Note_on_c, 9, 55, 59
1, 146399, Note_on_c, 9, 35, 0
1, 146400, Note_on_c, 9, 40, 116
1, 146849, Note_on_c, 9, 54, 0
1, 146849, Note_on_c, 9, 55, 0
1, 146849, Note_on_c, 9, 40, 0
1, 146865, Note_on_c, 9, 54, 42
1, 146865, Note_on_c, 9, 55, 60
1, 146880, Note_on_c, 9, 40, 116
1, 147329, Note_on_c, 9, 54, 0
1, 147329, Note_on_c, 9, 55, 0
1, 147329, Note_on_c, 9, 40, 0
1, 147345, Note_on_c, 9, 54, 62
1, 147360, Note_on_c, 9, 55, 54
1, 147599, Note_on_c, 9, 54, 0
1, 147599, Note_on_c, 9, 55, 0
1, 147660, Note_on_c, 9, 55, 60
1, 147679, Note_on_c, 9, 55, 0
1, 147680, Note_on_c, 9, 40, 102
1, 147690, Note_on_c, 9, 35, 79
1, 147719, Note_on_c, 9, 40, 0
1, 147719, Note_on_c, 9, 35, 0
1, 147840, Note_on_c, 9, 54, 40
1, 148079, Note_on_c, 9, 54, 0
1, 148140, Note_on_c, 9, 55, 62
1, 148159, Note_on_c, 9, 55, 0
1, 148160, Note_on_c, 9, 40, 116
1, 148199, Note_on_c, 9, 40, 0
1, 148320, Note_on_c, 9, 54, 60
1, 148604, Note_on_c, 9, 54, 0
1, 148605, Note_on_c, 9, 55, 58
1, 148619, Note_on_c, 9, 55, 0
1, 148635, Note_on_c, 9, 40, 102
1, 148769, Note_on_c, 9, 40, 0
1, 148785, Note_on_c, 9, 54, 44
1, 148785, Note_on_c, 9, 55, 57
1, 148800, Note_on_c, 9, 40, 116
1, 149084, Note_on_c, 9, 54, 0
1, 149084, Note_on_c, 9, 55, 0
1, 149084, Note_on_c, 9, 40, 0
1, 149085, Note_on_c, 9, 55, 57
1, 149099, Note_on_c, 9, 55, 0
1, 149115, Note_on_c, 9, 40, 102
1, 149249, Note_on_c, 9, 40, 0
1, 149265, Note_on_c, 9, 54, 64
1, 149265, Note_on_c, 9, 55, 57
1, 149280, Note_on_c, 9, 40, 116
1, 149759, Note_on_c, 9, 54, 0
1, 149759, Note_on_c, 9, 55, 0
1, 149759, Note_on_c, 9, 40, 0
1, 149760, Note_on_c, 9, 54, 42
1, 149760, Note_on_c, 9, 35, 85
1, 149774, Note_on_c, 9, 54, 0
1, 149775, Note_on_c, 9, 40, 116
1, 149775, Note_on_c, 9, 55, 59
1, 150224, Note_on_c, 9, 40, 0
1, 150224, Note_on_c, 9, 55, 0
1, 150225, Note_on_c, 9, 54, 62
1, 150239, Note_on_c, 9, 35, 0
1, 150240, Note_on_c, 9, 40, 116
1, 150240, Note_on_c, 9, 55, 58
1, 150689, Note_on_c, 9, 54, 0
1, 150689, Note_on_c, 9, 40, 0
1, 150689, Note_on_c, 9, 55, 0
1, 150705, Note_on_c, 9, 54, 40
1, 150720, Note_on_c, 9, 40, 116
1, 150720, Note_on_c, 9, 55, 60
1, 151169, Note_on_c, 9, 54, 0
1, 151169, Note_on_c, 9, 40, 0
1, 151169, Note_on_c, 9, 55, 0
1, 151185, Note_on_c, 9, 54, 60
1, 151200, Note_on_c, 9, 55, 57
1, 151439, Note_on_c, 9, 54, 0
1, 151439, Note_on_c, 9, 55, 0
1, 151500, Note_on_c, 9, 55, 63
1, 151519, Note_on_c, 9, 55, 0
1, 151520, Note_on_c, 9, 40, 102
1, 151520, Note_on_c, 9, 35, 79
1, 151559, Note_on_c, 9, 40, 0
1, 151559, Note_on_c, 9, 35, 0
1, 151680, Note_on_c, 9, 54, 39
1, 151919, Note_on_c, 9, 54, 0
1, 151980, Note_on_c, 9, 55, 61
1, 151999, Note_on_c, 9, 55, 0
1, 152000, Note_on_c, 9, 40, 116
1, 152039, Note_on_c, 9, 40, 0
1, 152160, Note_on_c, 9, 54, 59
1, 152399, Note_on_c, 9, 54, 0
1, 152460, Note_on_c, 9, 55, 58
1, 152479, Note_on_c, 9, 55, 0
1, 152480, Note_on_c, 9, 40, 102
1, 152519, Note_on_c, 9, 40, 0
1, 152625, Note_on_c, 9, 54, 43
1, 152625, Note_on_c, 9, 55, 58
1, 152640, Note_on_c, 9, 40, 116
1, 152924, Note_on_c, 9, 54, 0
1, 152924, Note_on_c, 9, 55, 0
1, 152924, Note_on_c, 9, 40, 0
1, 152925, Note_on_c, 9, 55, 59
1, 152939, Note_on_c, 9, 55, 0
1, 152955, Note_on_c, 9, 40, 102
1, 153089, Note_on_c, 9, 40, 0
1, 153105, Note_on_c, 9, 54, 63
1, 153105, Note_on_c, 9, 55, 61
1, 153120, Note_on_c, 9, 40, 116
1, 153599, Note_on_c, 9, 54, 0
1, 153599, Note_on_c, 9, 55, 0
1, 153599, Note_on_c, 9, 40, 0
1, 153600, Note_on_c, 9, 54, 42
1, 153600, Note_on_c, 9, 35, 85
1, 153614, Note_on_c, 9, 54, 0
1, 153615, Note_on_c, 9, 40, 122
1, 153659, Note_on_c, 9, 40, 0
1, 153760, Note_on_c, 9, 40, 76
1, 153779, Note_on_c, 9, 40, 0
1, 153920, Note_on_c, 9, 40, 89
1, 153959, Note_on_c, 9, 40, 0
1, 154065, Note_on_c, 9, 54, 62
1, 154079, Note_on_c, 9, 35, 0
1, 154080, Note_on_c, 9, 40, 102
1, 154199, Note_on_c, 9, 54, 0
1, 154199, Note_on_c, 9, 40, 0
1, 154240, Note_on_c, 9, 40, 76
1, 154259, Note_on_c, 9, 40, 0
1, 154400, Note_on_c, 9, 40, 89
1, 154439, Note_on_c, 9, 40, 0
1, 154545, Note_on_c, 9, 54, 41
1, 154560, Note_on_c, 9, 40, 122
1, 154560, Note_on_c, 9, 35, 79
1, 154679, Note_on_c, 9, 54, 0
1, 154679, Note_on_c, 9, 40, 0
1, 154720, Note_on_c, 9, 40, 76
1, 154739, Note_on_c, 9, 40, 0
1, 154880, Note_on_c, 9, 40, 89
1, 154919, Note_on_c, 9, 40, 0
1, 155025, Note_on_c, 9, 54, 61
1, 155039, Note_on_c, 9, 35, 0
1, 155040, Note_on_c, 9, 40, 102
1, 155159, Note_on_c, 9, 54, 0
1, 155159, Note_on_c, 9, 40, 0
1, 155200, Note_on_c, 9, 40, 76
1, 155219, Note_on_c, 9, 40, 0
1, 155360, Note_on_c, 9, 40, 64
1, 155399, Note_on_c, 9, 40, 0
1, 155520, Note_on_c, 9, 54, 42
1, 155520, Note_on_c, 9, 35, 88
1, 155534, Note_on_c, 9, 54, 0
1, 155535, Note_on_c, 9, 40, 116
1, 155579, Note_on_c, 9, 40, 0
1, 155680, Note_on_c, 9, 40, 76
1, 155699, Note_on_c, 9, 40, 0
1, 155840, Note_on_c, 9, 40, 89
1, 155879, Note_on_c, 9, 40, 0
1, 155985, Note_on_c, 9, 54, 62
1, 155999, Note_on_c, 9, 35, 0
1, 156000, Note_on_c, 9, 40, 76
1, 156119, Note_on_c, 9, 54, 0
1, 156119, Note_on_c, 9, 40, 0
1, 156160, Note_on_c, 9, 40, 89
1, 156179, Note_on_c, 9, 40, 0
1, 156320, Note_on_c, 9, 40, 76
1, 156359, Note_on_c, 9, 40, 0
1, 156465, Note_on_c, 9, 54, 56
1, 156480, Note_on_c, 9, 40, 102
1, 156480, Note_on_c, 9, 35, 85
1, 156599, Note_on_c, 9, 54, 0
1, 156599, Note_on_c, 9, 40, 0
1, 156640, Note_on_c, 9, 40, 76
1, 156659, Note_on_c, 9, 40, 0
1, 156800, Note_on_c, 9, 40, 89
1, 156839, Note_on_c, 9, 40, 0
1, 156945, Note_on_c, 9, 54, 62
1, 156959, Note_on_c, 9, 35, 0
1, 156960, Note_on_c, 9, 40, 102
1, 157079, Note_on_c, 9, 54, 0
1, 157079, Note_on_c, 9, 40, 0
1, 157120, Note_on_c, 9, 40, 76
1, 157139, Note_on_c, 9, 40, 0
1, 157280, Note_on_c, 9, 40, 89
1, 157319, Note_on_c, 9, 40, 0
1, 157440, Note_on_c, 9, 35, 88
1, 157760, Note_on_c, 9, 40, 40
1, 157799, Note_on_c, 9, 40, 0
1, 157905, Note_on_c, 9, 54, 56
1, 157919, Note_on_c, 9, 35, 0
1, 157920, Note_on_c, 9, 40, 102
1, 158399, Note_on_c, 9, 54, 0
1, 158399, Note_on_c, 9, 40, 0
1, 158400, Note_on_c, 9, 35, 81
1, 158720, Note_on_c, 9, 40, 40
1, 158759, Note_on_c, 9, 40, 0
1, 158865, Note_on_c, 9, 54, 55
1, 158879, Note_on_c, 9, 35, 0
1, 158880, Note_on_c, 9, 40, 102
1, 159359, Note_on_c, 9, 54, 0
1, 159359, Note_on_c, 9, 40, 0
1, 159360, Note_on_c, 9, 35, 88
1, 159680, Note_on_c, 9, 40, 40
1, 159719, Note_on_c, 9, 40, 0
1, 159825, Note_on_c, 9, 54, 57
1, 159839, Note_on_c, 9, 35, 0
1, 159840, Note_on_c, 9, 40, 102
1, 160319, Note_on_c, 9, 54, 0
1, 160319, Note_on_c, 9, 40, 0
1, 160320, Note_on_c, 9, 35, 88
1, 160785, Note_on_c, 9, 57, 73
1, 160799, Note_on_c, 9, 35, 0
1, 160799, Note_on_c, 9, 57, 0
1, 160800, Note_on_c, 9, 54, 55
1, 160800, Note_on_c, 9, 35, 122
1, 160814, Note_on_c, 9, 54, 0
1, 160815, Note_on_c, 9, 40, 116
1, 161039, Note_on_c, 9, 40, 0
1, 161279, Note_on_c, 9, 35, 0
1, 161280, Note_on_c, 9, 35, 85
1, 161600, Note_on_c, 9, 40, 40
1, 161639, Note_on_c, 9, 40, 0
1, 161745, Note_on_c, 9, 54, 57
1, 161759, Note_on_c, 9, 35, 0
1, 161760, Note_on_c, 9, 40, 102
1, 162239, Note_on_c, 9, 54, 0
1, 162239, Note_on_c, 9, 40, 0
1, 162240, Note_on_c, 9, 35, 85
1, 162560, Note_on_c, 9, 40, 40
1, 162599, Note_on_c, 9, 40, 0
1, 162705, Note_on_c, 9, 54, 57
1, 162719, Note_on_c, 9, 35, 0
1, 162720, Note_on_c, 9, 40, 102
1, 163199, Note_on_c, 9, 54, 0
1, 163199, Note_on_c, 9, 40, 0
1, 163200, Note_on_c, 9, 35, 81
1, 163520, Note_on_c, 9, 40, 40
1, 163559, Note_on_c, 9, 40, 0
1, 163665, Note_on_c, 9, 54, 59
1, 163679, Note_on_c, 9, 35, 0
1, 163680, Note_on_c, 9, 40, 102
1, 164159, Note_on_c, 9, 54, 0
1, 164159, Note_on_c, 9, 40, 0
1, 164160, Note_on_c, 9, 35, 79
1, 164625, Note_on_c, 9, 57, 69
1, 164639, Note_on_c, 9, 35, 0
1, 164639, Note_on_c, 9, 57, 0
1, 164640, Note_on_c, 9, 54, 57
1, 164640, Note_on_c, 9, 35, 122
1, 164654, Note_on_c, 9, 54, 0
1, 164655, Note_on_c, 9, 40, 116
1, 164879, Note_on_c, 9, 40, 0
1, 165119, Note_on_c, 9, 35, 0
1, 165120, Note_on_c, 9, 35, 83
1, 165440, Note_on_c, 9, 40, 40
1, 165479, Note_on_c, 9, 40, 0
1, 165585, Note_on_c, 9, 54, 57
1, 165599, Note_on_c, 9, 35, 0
1, 165600, Note_on_c, 9, 40, 102
1, 166079, Note_on_c, 9, 54, 0
1, 166079, Note_on_c, 9, 40, 0
1, 166080, Note_on_c, 9, 35, 81
1, 166400, Note_on_c, 9, 40, 40
1, 166439, Note_on_c, 9, 40, 0
1, 166545, Note_on_c, 9, 54, 54
1, 166559, Note_on_c, 9, 35, 0
1, 166560, Note_on_c, 9, 40, 102
1, 167039, Note_on_c, 9, 54, 0
1, 167039, Note_on_c, 9, 40, 0
1, 167040, Note_on_c, 9, 35, 85
1, 167360, Note_on_c, 9, 40, 40
1, 167399, Note_on_c, 9, 40, 0
1, 167505, Note_on_c, 9, 54, 57
1, 167519, Note_on_c, 9, 35, 0
1, 167520, Note_on_c, 9, 40, 102
1, 167999, Note_on_c, 9, 54, 0
1, 167999, Note_on_c, 9, 40, 0
1, 168000, Note_on_c, 9, 35, 77
1, 168465, Note_on_c, 9, 54, 57
1, 168479, Note_on_c, 9, 35, 0
1, 168480, Note_on_c, 9, 40, 116
1, 168480, Note_on_c, 9, 35, 122
1, 168494, Note_on_c, 9, 54, 0
1, 168494, Note_on_c, 9, 40, 0
1, 168495, Note_on_c, 9, 57, 82
1, 168719, Note_on_c, 9, 57, 0
1, 168959, Note_on_c, 9, 35, 0
1, 168960, Note_on_c, 9, 35, 81
1, 169280, Note_on_c, 9, 40, 40
1, 169319, Note_on_c, 9, 40, 0
1, 169425, Note_on_c, 9, 54, 57
1, 169439, Note_on_c, 9, 35, 0
1, 169440, Note_on_c, 9, 40, 102
1, 169919, Note_on_c, 9, 54, 0
1, 169919, Note_on_c, 9, 40, 0
1, 169920, Note_on_c, 9, 35, 79
1, 170240, Note_on_c, 9, 40, 40
1, 170279, Note_on_c, 9, 40, 0
1, 170385, Note_on_c, 9, 54, 55
1, 170399, Note_on_c, 9, 35, 0
1, 170400, Note_on_c, 9, 40, 102
1, 170879, Note_on_c, 9, 54, 0
1, 170879, Note_on_c, 9, 40, 0
1, 170880, Note_on_c, 9, 35, 79
1, 171200, Note_on_c, 9, 40, 40
1, 171239, Note_on_c, 9, 40, 0
1, 171345, Note_on_c, 9, 54, 59
1, 171359, Note_on_c, 9, 35, 0
1, 171360, Note_on_c, 9, 40, 102
1, 171839, Note_on_c, 9, 54, 0
1, 171839, Note_on_c, 9, 40, 0
1, 171840, Note_on_c, 9, 35, 81
1, 172305, Note_on_c, 9, 54, 57
1, 172319, Note_on_c, 9, 35, 0
1, 172320, Note_on_c, 9, 41, 122
1, 172320, Note_on_c, 9, 40, 116
1, 172334, Note_on_c, 9, 54, 0
1, 172334, Note_on_c, 9, 41, 0
1, 172334, Note_on_c, 9, 40, 0
1, 172335, Note_on_c, 9, 57, 73
1, 172559, Note_on_c, 9, 57, 0
1, 172800, Note_on_c, 9, 35, 77
1, 173120, Note_on_c, 9, 40, 40
1, 173159, Note_on_c, 9, 40, 0
1, 173265, Note_on_c, 9, 54, 55
1, 173279, Note_on_c, 9, 35, 0
1, 173280, Note_on_c, 9, 40, 102
1, 173759, Note_on_c, 9, 54, 0
1, 173759, Note_on_c, 9, 40, 0
1, 173760, Note_on_c, 9, 35, 79
1, 174080, Note_on_c, 9, 40, 40
1, 174119, Note_on_c, 9, 40, 0
1, 174225, Note_on_c, 9, 54, 54
1, 174239, Note_on_c, 9, 35, 0
1, 174240, Note_on_c, 9, 40, 102
1, 174719, Note_on_c, 9, 54, 0
1, 174719, Note_on_c, 9, 40, 0
1, 174720, Note_on_c, 9, 35, 81
1, 175040, Note_on_c, 9, 40, 40
1, 175079, Note_on_c, 9, 40, 0
1, 175185, Note_on_c, 9, 54, 58
1, 175199, Note_on_c, 9, 35, 0
1, 175200, Note_on_c, 9, 40, 102
1, 175679, Note_on_c, 9, 54, 0
1, 175679, Note_on_c, 9, 40, 0
1, 175680, Note_on_c, 9, 35, 81
1, 176130, Note_on_c, 9, 57, 64
1, 176144, Note_on_c, 9, 57, 0
1, 176145, Note_on_c, 9, 54, 57
1, 176159, Note_on_c, 9, 35, 0
1, 176160, Note_on_c, 9, 40, 116
1, 176160, Note_on_c, 9, 35, 122
1, 176639, Note_on_c, 9, 54, 0
1, 176639, Note_on_c, 9, 40, 0
1, 176639, Note_on_c, 9, 35, 0
1, 176640, Note_on_c, 9, 35, 85
1, 177105, Note_on_c, 9, 54, 56
1, 177119, Note_on_c, 9, 35, 0
1, 177120, Note_on_c, 9, 40, 116
1, 177599, Note_on_c, 9, 54, 0
1, 177599, Note_on_c, 9, 40, 0
1, 177600, Note_on_c, 9, 35, 79
1, 178065, Note_on_c, 9, 54, 57
1, 178079, Note_on_c, 9, 35, 0
1, 178080, Note_on_c, 9, 40, 122
1, 178559, Note_on_c, 9, 54, 0
1, 178559, Note_on_c, 9, 40, 0
1, 178560, Note_on_c, 9, 54, 54
1, 178560, Note_on_c, 9, 35, 88
1, 179009, Note_on_c, 9, 54, 0
1, 179025, Note_on_c, 9, 54, 57
1, 179039, Note_on_c, 9, 35, 0
1, 179040, Note_on_c, 9, 40, 122
1, 179519, Note_on_c, 9, 54, 0
1, 179519, Note_on_c, 9, 40, 0
1, 179520, Note_on_c, 9, 35, 85
1, 179840, Note_on_c, 9, 40, 64
1, 179879, Note_on_c, 9, 40, 0
1, 179985, Note_on_c, 9, 54, 57
1, 179999, Note_on_c, 9, 35, 0
1, 180000, Note_on_c, 9, 40, 122
1, 180479, Note_on_c, 9, 54, 0
1, 180479, Note_on_c, 9, 40, 0
1, 180480, Note_on_c, 9, 54, 59
1, 180480, Note_on_c, 9, 35, 85
1, 180494, Note_on_c, 9, 54, 0
1, 180495, Note_on_c, 9, 55, 97
1, 180719, Note_on_c, 9, 55, 0
1, 180959, Note_on_c, 9, 35, 0
1, 180960, Note_on_c, 9, 55, 35
1, 181439, Note_on_c, 9, 55, 0
1, 182400, Note_on_c, 9, 55, 97
1, 182879, Note_on_c, 9, 55, 0
1, 182880, Note_on_c, 9, 55, 97
1, 183119, Note_on_c, 9, 55, 0
1, 183200, Note_on_c, 9, 55, 84
1, 183239, Note_on_c, 9, 55, 0
1, 183840, Note_on_c, 9, 57, 84
1, 183840, Note_on_c, 9, 35, 122
1, 184319, Note_on_c, 9, 57, 0
1, 184319, Note_on_c, 9, 35, 0
1, 184800, Note_on_c, 9, 40, 64
1, 184859, Note_on_c, 9, 40, 0
1, 184880, Note_on_c, 9, 40, 64
1, 184919, Note_on_c, 9, 40, 0
1, 184960, Note_on_c, 9, 40, 122
1, 184979, Note_on_c, 9, 40, 0
1, 185280, Note_on_c, 9, 40, 64
1, 185280, Note_on_c, 9, 49, 81
1, 185280, Note_on_c, 9, 35, 122
1, 185399, Note_on_c, 9, 40, 0
1, 185399, Note_on_c, 9, 49, 0
1, 185440, Note_on_c, 9, 40, 76
1, 185459, Note_on_c, 9, 40, 0
1, 185600, Note_on_c, 9, 40, 122
1, 185639, Note_on_c, 9, 40, 0
1, 185759, Note_on_c, 9, 35, 0
1, 185920, Note_on_c, 9, 40, 89
1, 185920, Note_on_c, 9, 49, 83
1, 185920, Note_on_c, 9, 35, 122
1, 185939, Note_on_c, 9, 40, 0
1, 185939, Note_on_c, 9, 49, 0
1, 185939, Note_on_c, 9, 35, 0
1, 186080, Note_on_c, 9, 40, 63
1, 186119, Note_on_c, 9, 40, 0
1, 186165, Note_on_c, 9, 40, 81
1, 186179, Note_on_c, 9, 40, 0
1, 186240, Note_on_c, 9, 40, 122
1, 186479, Note_on_c, 9, 40, 0
1, 186560, Note_on_c, 9, 40, 101
1, 186599, Note_on_c, 9, 40, 0
1, 186640, Note_on_c, 9, 40, 115
1, 186659, Note_on_c, 9, 40, 0
1, 186720, Note_on_c, 9, 35, 122
1, 186959, Note_on_c, 9, 35, 0
1, 187040, Note_on_c, 9, 40, 122
1, 187040, Note_on_c, 9, 49, 111
1, 187040, Note_on_c, 9, 35, 122
1, 187079, Note_on_c, 9, 40, 0
1, 187079, Note_on_c, 9, 49, 0
1, 187079, Note_on_c, 9, 35, 0
1, 187080, End_track
0, 0, End_of_file
