0, 0, Header, 1, 1, 480
1, 0, Start_track
1, 0, Time_signature, 4, 2, 24, 8
1, 0, Key_signature, 0, "major"
1, 0, Tempo, 476190
1, 0, Control_c, 9, 121, 0
1, 0, Program_c, 9, 0
1, 0, Control_c, 9, 7, 100
1, 0, Control_c, 9, 10, 64
1, 0, Control_c, 9, 91, 0
1, 0, Control_c, 9, 93, 0
1, 0, MIDI_port, 0
1, 1920, Note_on_c, 9, 42, 67
1, 2399, Note_on_c, 9, 42, 0
1, 2400, Note_on_c, 9, 42, 67
1, 2879, Note_on_c, 9, 42, 0
1, 2880, Note_on_c, 9, 42, 67
1, 3329, Note_on_c, 9, 42, 0
1, 3345, Note_on_c, 9, 42, 67
1, 3359, Note_on_c, 9, 42, 0
1, 3840, Note_on_c, 9, 42, 97
1, 3840, Note_on_c, 9, 36, 127
1, 3959, Note_on_c, 9, 42, 0
1, 4000, Note_on_c, 9, 42, 42
1, 4019, Note_on_c, 9, 42, 0
1, 4160, Note_on_c, 9, 42, 65
1, 4199, Note_on_c, 9, 42, 0
1, 4305, Note_on_c, 9, 42, 97
1, 4319, Note_on_c, 9, 36, 0
1, 4320, Note_on_c, 9, 38, 127
1, 4439, Note_on_c, 9, 42, 0
1, 4439, Note_on_c, 9, 38, 0
1, 4480, Note_on_c, 9, 42, 42
1, 4499, Note_on_c, 9, 42, 0
1, 4640, Note_on_c, 9, 42, 65
1, 4679, Note_on_c, 9, 42, 0
1, 4800, Note_on_c, 9, 42, 97
1, 4800, Note_on_c, 9, 36, 127
1, 4919, Note_on_c, 9, 42, 0
1, 4960, Note_on_c, 9, 42, 42
1, 4979, Note_on_c, 9, 42, 0
1, 5120, Note_on_c, 9, 42, 65
1, 5159, Note_on_c, 9, 42, 0
1, 5265, Note_on_c, 9, 42, 97
1, 5279, Note_on_c, 9, 36, 0
1, 5279, Note_on_c, 9, 42, 0
1, 5280, Note_on_c, 9, 38, 127
1, 5399, Note_on_c, 9, 38, 0
1, 5440, Note_on_c, 9, 42, 42
1, 5459, Note_on_c, 9, 42, 0
1, 5600, Note_on_c, 9, 42, 65
1, 5639, Note_on_c, 9, 42, 0
1, 5760, Note_on_c, 9, 42, 97
1, 5760, Note_on_c, 9, 36, 127
1, 5879, Note_on_c, 9, 42, 0
1, 5920, Note_on_c, 9, 42, 42
1, 5939, Note_on_c, 9, 42, 0
1, 6080, Note_on_c, 9, 42, 65
1, 6119, Note_on_c, 9, 42, 0
1, 6225, Note_on_c, 9, 42, 97
1, 6239, Note_on_c, 9, 36, 0
1, 6240, Note_on_c, 9, 38, 127
1, 6359, Note_on_c, 9, 42, 0
1, 6359, Note_on_c, 9, 38, 0
1, 6400, Note_on_c, 9, 42, 42
1, 6419, Note_on_c, 9, 42, 0
1, 6560, Note_on_c, 9, 42, 65
1, 6599, Note_on_c, 9, 42, 0
1, 6720, Note_on_c, 9, 42, 97
1, 6720, Note_on_c, 9, 36, 127
1, 6839, Note_on_c, 9, 42, 0
1, 6880, Note_on_c, 9, 42, 42
1, 6899, Note_on_c, 9, 42, 0
1, 6959, Note_on_c, 9, 36, 0
1, 7040, Note_on_c, 9, 42, 65
1, 7040, Note_on_c, 9, 36, 127
1, 7079, Note_on_c, 9, 42, 0
1, 7079, Note_on_c, 9, 36, 0
1, 7185, Note_on_c, 9, 42, 97
1, 7199, Note_on_c, 9, 42, 0
1, 7200, Note_on_c, 9, 38, 127
1, 7319, Note_on_c, 9, 38, 0
1, 7360, Note_on_c, 9, 42, 42
1, 7379, Note_on_c, 9, 42, 0
1, 7520, Note_on_c, 9, 42, 65
1, 7559, Note_on_c, 9, 42, 0
1, 7680, Note_on_c, 9, 42, 97
1, 7680, Note_on_c, 9, 36, 127
1, 7799, Note_on_c, 9, 42, 0
1, 7840, Note_on_c, 9, 42, 42
1, 7859, Note_on_c, 9, 42, 0
1, 8000, Note_on_c, 9, 42, 65
1, 8039, Note_on_c, 9, 42, 0
1, 8145, Note_on_c, 9, 42, 97
1, 8159, Note_on_c, 9, 36, 0
1, 8160, Note_on_c, 9, 38, 127
1, 8279, Note_on_c, 9, 42, 0
1, 8279, Note_on_c, 9, 38, 0
1, 8320, Note_on_c, 9, 42, 42
1, 8339, Note_on_c, 9, 42, 0
1, 8480, Note_on_c, 9, 42, 65
1, 8519, Note_on_c, 9, 42, 0
1, 8640, Note_on_c, 9, 42, 97
1, 8640, Note_on_c, 9, 36, 127
1, 8759, Note_on_c, 9, 42, 0
1, 8800, Note_on_c, 9, 42, 42
1, 8819, Note_on_c, 9, 42, 0
1, 8960, Note_on_c, 9, 42, 65
1, 8999, Note_on_c, 9, 42, 0
1, 9105, Note_on_c, 9, 42, 97
1, 9119, Note_on_c, 9, 36, 0
1, 9119, Note_on_c, 9, 42, 0
1, 9120, Note_on_c, 9, 38, 127
1, 9239, Note_on_c, 9, 38, 0
1, 9280, Note_on_c, 9, 42, 42
1, 9299, Note_on_c, 9, 42, 0
1, 9440, Note_on_c, 9, 42, 65
1, 9479, Note_on_c, 9, 42, 0
1, 9600, Note_on_c, 9, 42, 97
1, 9600, Note_on_c, 9, 36, 127
1, 9719, Note_on_c, 9, 42, 0
1, 9760, Note_on_c, 9, 42, 42
1, 9779, Note_on_c, 9, 42, 0
1, 9920, Note_on_c, 9, 42, 65
1, 9959, Note_on_c, 9, 42, 0
1, 10065, Note_on_c, 9, 42, 97
1, 10079, Note_on_c, 9, 36, 0
1, 10080, Note_on_c, 9, 38, 127
1, 10199, Note_on_c, 9, 42, 0
1, 10199, Note_on_c, 9, 38, 0
1, 10240, Note_on_c, 9, 42, 42
1, 10259, Note_on_c, 9, 42, 0
1, 10400, Note_on_c, 9, 42, 65
1, 10439, Note_on_c, 9, 42, 0
1, 10560, Note_on_c, 9, 42, 97
1, 10560, Note_on_c, 9, 36, 127
1, 10679, Note_on_c, 9, 42, 0
1, 10720, Note_on_c, 9, 42, 42
1, 10739, Note_on_c, 9, 42, 0
1, 10799, Note_on_c, 9, 36, 0
1, 10880, Note_on_c, 9, 42, 65
1, 10880, Note_on_c, 9, 36, 127
1, 10919, Note_on_c, 9, 42, 0
1, 10919, Note_on_c, 9, 36, 0
1, 11025, Note_on_c, 9, 42, 97
1, 11039, Note_on_c, 9, 42, 0
1, 11040, Note_on_c, 9, 38, 127
1, 11159, Note_on_c, 9, 38, 0
1, 11200, Note_on_c, 9, 42, 42
1, 11219, Note_on_c, 9, 42, 0
1, 11360, Note_on_c, 9, 42, 65
1, 11399, Note_on_c, 9, 42, 0
1, 11520, Note_on_c, 9, 42, 97
1, 11520, Note_on_c, 9, 36, 127
1, 11639, Note_on_c, 9, 42, 0
1, 11680, Note_on_c, 9, 42, 42
1, 11699, Note_on_c, 9, 42, 0
1, 11840, Note_on_c, 9, 42, 65
1, 11879, Note_on_c, 9, 42, 0
1, 11985, Note_on_c, 9, 42, 97
1, 11999, Note_on_c, 9, 36, 0
1, 12000, Note_on_c, 9, 38, 127
1, 12119, Note_on_c, 9, 42, 0
1, 12119, Note_on_c, 9, 38, 0
1, 12160, Note_on_c, 9, 42, 42
1, 12179, Note_on_c, 9, 42, 0
1, 12320, Note_on_c, 9, 42, 65
1, 12359, Note_on_c, 9, 42, 0
1, 12480, Note_on_c, 9, 42, 97
1, 12480, Note_on_c, 9, 36, 127
1, 12599, Note_on_c, 9, 42, 0
1, 12640, Note_on_c, 9, 42, 42
1, 12659, Note_on_c, 9, 42, 0
1, 12800, Note_on_c, 9, 42, 65
1, 12839, Note_on_c, 9, 42, 0
1, 12945, Note_on_c, 9, 42, 97
1, 12959, Note_on_c, 9, 36, 0
1, 12959, Note_on_c, 9, 42, 0
1, 12960, Note_on_c, 9, 38, 127
1, 13079, Note_on_c, 9, 38, 0
1, 13120, Note_on_c, 9, 42, 42
1, 13139, Note_on_c, 9, 42, 0
1, 13280, Note_on_c, 9, 42, 65
1, 13319, Note_on_c, 9, 42, 0
1, 13440, Note_on_c, 9, 42, 97
1, 13440, Note_on_c, 9, 36, 127
1, 13559, Note_on_c, 9, 42, 0
1, 13600, Note_on_c, 9, 42, 42
1, 13619, Note_on_c, 9, 42, 0
1, 13760, Note_on_c, 9, 42, 65
1, 13799, Note_on_c, 9, 42, 0
1, 13905, Note_on_c, 9, 42, 97
1, 13919, Note_on_c, 9, 36, 0
1, 13920, Note_on_c, 9, 38, 127
1, 14039, Note_on_c, 9, 42, 0
1, 14039, Note_on_c, 9, 38, 0
1, 14080, Note_on_c, 9, 42, 42
1, 14099, Note_on_c, 9, 42, 0
1, 14240, Note_on_c, 9, 42, 65
1, 14279, Note_on_c, 9, 42, 0
1, 14400, Note_on_c, 9, 42, 97
1, 14400, Note_on_c, 9, 36, 127
1, 14519, Note_on_c, 9, 42, 0
1, 14560, Note_on_c, 9, 42, 42
1, 14579, Note_on_c, 9, 42, 0
1, 14639, Note_on_c, 9, 36, 0
1, 14720, Note_on_c, 9, 42, 65
1, 14720, Note_on_c, 9, 36, 127
1, 14759, Note_on_c, 9, 42, 0
1, 14759, Note_on_c, 9, 36, 0
1, 14865, Note_on_c, 9, 42, 97
1, 14879, Note_on_c, 9, 42, 0
1, 14880, Note_on_c, 9, 38, 127
1, 14999, Note_on_c, 9, 38, 0
1, 15040, Note_on_c, 9, 42, 42
1, 15059, Note_on_c, 9, 42, 0
1, 15200, Note_on_c, 9, 42, 65
1, 15239, Note_on_c, 9, 42, 0
1, 15360, Note_on_c, 9, 42, 97
1, 15360, Note_on_c, 9, 36, 127
1, 15479, Note_on_c, 9, 42, 0
1, 15520, Note_on_c, 9, 42, 42
1, 15539, Note_on_c, 9, 42, 0
1, 15680, Note_on_c, 9, 42, 65
1, 15719, Note_on_c, 9, 42, 0
1, 15825, Note_on_c, 9, 42, 97
1, 15839, Note_on_c, 9, 36, 0
1, 15840, Note_on_c, 9, 38, 127
1, 15959, Note_on_c, 9, 42, 0
1, 15959, Note_on_c, 9, 38, 0
1, 16000, Note_on_c, 9, 42, 42
1, 16019, Note_on_c, 9, 42, 0
1, 16160, Note_on_c, 9, 42, 65
1, 16199, Note_on_c, 9, 42, 0
1, 16320, Note_on_c, 9, 42, 97
1, 16320, Note_on_c, 9, 36, 127
1, 16439, Note_on_c, 9, 42, 0
1, 16480, Note_on_c, 9, 42, 42
1, 16499, Note_on_c, 9, 42, 0
1, 16640, Note_on_c, 9, 42, 65
1, 16679, Note_on_c, 9, 42, 0
1, 16785, Note_on_c, 9, 42, 97
1, 16799, Note_on_c, 9, 36, 0
1, 16799, Note_on_c, 9, 42, 0
1, 16800, Note_on_c, 9, 38, 127
1, 16919, Note_on_c, 9, 38, 0
1, 16960, Note_on_c, 9, 42, 42
1, 16979, Note_on_c, 9, 42, 0
1, 17120, Note_on_c, 9, 42, 65
1, 17159, Note_on_c, 9, 42, 0
1, 17280, Note_on_c, 9, 42, 97
1, 17280, Note_on_c, 9, 36, 127
1, 17399, Note_on_c, 9, 42, 0
1, 17440, Note_on_c, 9, 42, 42
1, 17459, Note_on_c, 9, 42, 0
1, 17600, Note_on_c, 9, 42, 65
1, 17639, Note_on_c, 9, 42, 0
1, 17745, Note_on_c, 9, 42, 97
1, 17759, Note_on_c, 9, 36, 0
1, 17760, Note_on_c, 9, 38, 127
1, 17879, Note_on_c, 9, 42, 0
1, 17879, Note_on_c, 9, 38, 0
1, 17920, Note_on_c, 9, 42, 42
1, 17939, Note_on_c, 9, 42, 0
1, 18080, Note_on_c, 9, 42, 65
1, 18119, Note_on_c, 9, 42, 0
1, 18240, Note_on_c, 9, 42, 97
1, 18240, Note_on_c, 9, 36, 127
1, 18359, Note_on_c, 9, 42, 0
1, 18400, Note_on_c, 9, 42, 42
1, 18419, Note_on_c, 9, 42, 0
1, 18479, Note_on_c, 9, 36, 0
1, 18560, Note_on_c, 9, 42, 65
1, 18560, Note_on_c, 9, 36, 127
1, 18599, Note_on_c, 9, 42, 0
1, 18599, Note_on_c, 9, 36, 0
1, 18705, Note_on_c, 9, 42, 97
1, 18719, Note_on_c, 9, 42, 0
1, 18720, Note_on_c, 9, 38, 127
1, 18839, Note_on_c, 9, 38, 0
1, 18880, Note_on_c, 9, 42, 42
1, 18899, Note_on_c, 9, 42, 0
1, 19040, Note_on_c, 9, 42, 65
1, 19079, Note_on_c, 9, 42, 0
1, 19200, Note_on_c, 9, 42, 97
1, 19200, Note_on_c, 9, 36, 127
1, 19319, Note_on_c, 9, 42, 0
1, 19360, Note_on_c, 9, 42, 42
1, 19379, Note_on_c, 9, 42, 0
1, 19520, Note_on_c, 9, 42, 65
1, 19559, Note_on_c, 9, 42, 0
1, 19665, Note_on_c, 9, 42, 97
1, 19679, Note_on_c, 9, 36, 0
1, 19680, Note_on_c, 9, 38, 127
1, 19799, Note_on_c, 9, 42, 0
1, 19799, Note_on_c, 9, 38, 0
1, 19840, Note_on_c, 9, 42, 42
1, 19859, Note_on_c, 9, 42, 0
1, 20000, Note_on_c, 9, 42, 65
1, 20039, Note_on_c, 9, 42, 0
1, 20160, Note_on_c, 9, 42, 97
1, 20160, Note_on_c, 9, 36, 127
1, 20279, Note_on_c, 9, 42, 0
1, 20320, Note_on_c, 9, 42, 42
1, 20339, Note_on_c, 9, 42, 0
1, 20480, Note_on_c, 9, 42, 65
1, 20519, Note_on_c, 9, 42, 0
1, 20625, Note_on_c, 9, 42, 97
1, 20639, Note_on_c, 9, 36, 0
1, 20639, Note_on_c, 9, 42, 0
1, 20640, Note_on_c, 9, 38, 127
1, 20759, Note_on_c, 9, 38, 0
1, 20800, Note_on_c, 9, 42, 42
1, 20819, Note_on_c, 9, 42, 0
1, 20960, Note_on_c, 9, 42, 65
1, 20999, Note_on_c, 9, 42, 0
1, 21120, Note_on_c, 9, 42, 97
1, 21120, Note_on_c, 9, 36, 127
1, 21239, Note_on_c, 9, 42, 0
1, 21280, Note_on_c, 9, 42, 42
1, 21299, Note_on_c, 9, 42, 0
1, 21440, Note_on_c, 9, 42, 65
1, 21479, Note_on_c, 9, 42, 0
1, 21585, Note_on_c, 9, 42, 97
1, 21599, Note_on_c, 9, 36, 0
1, 21600, Note_on_c, 9, 38, 127
1, 21719, Note_on_c, 9, 42, 0
1, 21719, Note_on_c, 9, 38, 0
1, 21760, Note_on_c, 9, 42, 42
1, 21779, Note_on_c, 9, 42, 0
1, 21920, Note_on_c, 9, 42, 65
1, 21959, Note_on_c, 9, 42, 0
1, 22080, Note_on_c, 9, 42, 97
1, 22080, Note_on_c, 9, 36, 127
1, 22199, Note_on_c, 9, 42, 0
1, 22240, Note_on_c, 9, 42, 42
1, 22259, Note_on_c, 9, 42, 0
1, 22319, Note_on_c, 9, 36, 0
1, 22400, Note_on_c, 9, 42, 65
1, 22400, Note_on_c, 9, 36, 127
1, 22439, Note_on_c, 9, 42, 0
1, 22439, Note_on_c, 9, 36, 0
1, 22545, Note_on_c, 9, 42, 97
1, 22559, Note_on_c, 9, 42, 0
1, 22560, Note_on_c, 9, 38, 127
1, 22679, Note_on_c, 9, 38, 0
1, 22720, Note_on_c, 9, 42, 42
1, 22739, Note_on_c, 9, 42, 0
1, 22880, Note_on_c, 9, 42, 65
1, 22919, Note_on_c, 9, 42, 0
1, 23040, Note_on_c, 9, 42, 97
1, 23040, Note_on_c, 9, 36, 127
1, 23159, Note_on_c, 9, 42, 0
1, 23200, Note_on_c, 9, 42, 42
1, 23219, Note_on_c, 9, 42, 0
1, 23360, Note_on_c, 9, 42, 65
1, 23399, Note_on_c, 9, 42, 0
1, 23505, Note_on_c, 9, 42, 97
1, 23519, Note_on_c, 9, 36, 0
1, 23520, Note_on_c, 9, 38, 127
1, 23639, Note_on_c, 9, 42, 0
1, 23639, Note_on_c, 9, 38, 0
1, 23680, Note_on_c, 9, 42, 42
1, 23699, Note_on_c, 9, 42, 0
1, 23840, Note_on_c, 9, 42, 65
1, 23879, Note_on_c, 9, 42, 0
1, 24000, Note_on_c, 9, 42, 97
1, 24000, Note_on_c, 9, 36, 127
1, 24119, Note_on_c, 9, 42, 0
1, 24160, Note_on_c, 9, 42, 42
1, 24179, Note_on_c, 9, 42, 0
1, 24320, Note_on_c, 9, 42, 65
1, 24359, Note_on_c, 9, 42, 0
1, 24465, Note_on_c, 9, 42, 97
1, 24479, Note_on_c, 9, 36, 0
1, 24479, Note_on_c, 9, 42, 0
1, 24480, Note_on_c, 9, 38, 127
1, 24599, Note_on_c, 9, 38, 0
1, 24640, Note_on_c, 9, 42, 42
1, 24659, Note_on_c, 9, 42, 0
1, 24800, Note_on_c, 9, 42, 65
1, 24839, Note_on_c, 9, 42, 0
1, 24960, Note_on_c, 9, 42, 97
1, 24960, Note_on_c, 9, 36, 127
1, 25079, Note_on_c, 9, 42, 0
1, 25120, Note_on_c, 9, 42, 42
1, 25139, Note_on_c, 9, 42, 0
1, 25280, Note_on_c, 9, 42, 65
1, 25319, Note_on_c, 9, 42, 0
1, 25425, Note_on_c, 9, 42, 97
1, 25439, Note_on_c, 9, 36, 0
1, 25440, Note_on_c, 9, 38, 127
1, 25559, Note_on_c, 9, 42, 0
1, 25559, Note_on_c, 9, 38, 0
1, 25600, Note_on_c, 9, 42, 42
1, 25619, Note_on_c, 9, 42, 0
1, 25760, Note_on_c, 9, 42, 65
1, 25799, Note_on_c, 9, 42, 0
1, 25920, Note_on_c, 9, 42, 97
1, 25920, Note_on_c, 9, 36, 127
1, 26039, Note_on_c, 9, 42, 0
1, 26080, Note_on_c, 9, 42, 42
1, 26099, Note_on_c, 9, 42, 0
1, 26159, Note_on_c, 9, 36, 0
1, 26240, Note_on_c, 9, 42, 65
1, 26240, Note_on_c, 9, 36, 127
1, 26279, Note_on_c, 9, 42, 0
1, 26279, Note_on_c, 9, 36, 0
1, 26385, Note_on_c, 9, 42, 97
1, 26399, Note_on_c, 9, 42, 0
1, 26400, Note_on_c, 9, 38, 127
1, 26519, Note_on_c, 9, 38, 0
1, 26560, Note_on_c, 9, 42, 42
1, 26579, Note_on_c, 9, 42, 0
1, 26720, Note_on_c, 9, 42, 65
1, 26759, Note_on_c, 9, 42, 0
1, 26880, Note_on_c, 9, 42, 97
1, 26880, Note_on_c, 9, 36, 127
1, 26999, Note_on_c, 9, 42, 0
1, 27040, Note_on_c, 9, 42, 42
1, 27059, Note_on_c, 9, 42, 0
1, 27200, Note_on_c, 9, 42, 65
1, 27239, Note_on_c, 9, 42, 0
1, 27345, Note_on_c, 9, 42, 97
1, 27359, Note_on_c, 9, 36, 0
1, 27360, Note_on_c, 9, 38, 127
1, 27479, Note_on_c, 9, 42, 0
1, 27479, Note_on_c, 9, 38, 0
1, 27520, Note_on_c, 9, 42, 42
1, 27539, Note_on_c, 9, 42, 0
1, 27680, Note_on_c, 9, 42, 65
1, 27719, Note_on_c, 9, 42, 0
1, 27840, Note_on_c, 9, 42, 97
1, 27840, Note_on_c, 9, 36, 127
1, 27959, Note_on_c, 9, 42, 0
1, 28000, Note_on_c, 9, 42, 42
1, 28019, Note_on_c, 9, 42, 0
1, 28160, Note_on_c, 9, 42, 65
1, 28199, Note_on_c, 9, 42, 0
1, 28305, Note_on_c, 9, 42, 97
1, 28319, Note_on_c, 9, 36, 0
1, 28319, Note_on_c, 9, 42, 0
1, 28320, Note_on_c, 9, 38, 127
1, 28439, Note_on_c, 9, 38, 0
1, 28480, Note_on_c, 9, 42, 42
1, 28499, Note_on_c, 9, 42, 0
1, 28640, Note_on_c, 9, 42, 65
1, 28679, Note_on_c, 9, 42, 0
1, 28800, Note_on_c, 9, 42, 97
1, 28800, Note_on_c, 9, 36, 127
1, 28919, Note_on_c, 9, 42, 0
1, 28960, Note_on_c, 9, 42, 42
1, 28979, Note_on_c, 9, 42, 0
1, 29120, Note_on_c, 9, 42, 65
1, 29159, Note_on_c, 9, 42, 0
1, 29265, Note_on_c, 9, 42, 97
1, 29279, Note_on_c, 9, 36, 0
1, 29280, Note_on_c, 9, 38, 127
1, 29399, Note_on_c, 9, 42, 0
1, 29399, Note_on_c, 9, 38, 0
1, 29440, Note_on_c, 9, 42, 42
1, 29459, Note_on_c, 9, 42, 0
1, 29600, Note_on_c, 9, 42, 65
1, 29639, Note_on_c, 9, 42, 0
1, 29760, Note_on_c, 9, 42, 97
1, 29760, Note_on_c, 9, 36, 127
1, 29879, Note_on_c, 9, 42, 0
1, 29920, Note_on_c, 9, 42, 42
1, 29939, Note_on_c, 9, 42, 0
1, 29999, Note_on_c, 9, 36, 0
1, 30080, Note_on_c, 9, 42, 65
1, 30080, Note_on_c, 9, 36, 127
1, 30119, Note_on_c, 9, 42, 0
1, 30119, Note_on_c, 9, 36, 0
1, 30225, Note_on_c, 9, 42, 97
1, 30239, Note_on_c, 9, 42, 0
1, 30240, Note_on_c, 9, 38, 127
1, 30359, Note_on_c, 9, 38, 0
1, 30400, Note_on_c, 9, 42, 42
1, 30419, Note_on_c, 9, 42, 0
1, 30560, Note_on_c, 9, 42, 65
1, 30599, Note_on_c, 9, 42, 0
1, 30720, Note_on_c, 9, 42, 97
1, 30720, Note_on_c, 9, 36, 127
1, 30839, Note_on_c, 9, 42, 0
1, 30880, Note_on_c, 9, 42, 42
1, 30899, Note_on_c, 9, 42, 0
1, 31040, Note_on_c, 9, 42, 65
1, 31079, Note_on_c, 9, 42, 0
1, 31185, Note_on_c, 9, 42, 97
1, 31199, Note_on_c, 9, 36, 0
1, 31200, Note_on_c, 9, 38, 127
1, 31319, Note_on_c, 9, 42, 0
1, 31319, Note_on_c, 9, 38, 0
1, 31360, Note_on_c, 9, 42, 42
1, 31379, Note_on_c, 9, 42, 0
1, 31520, Note_on_c, 9, 42, 65
1, 31559, Note_on_c, 9, 42, 0
1, 31680, Note_on_c, 9, 42, 97
1, 31680, Note_on_c, 9, 36, 127
1, 31799, Note_on_c, 9, 42, 0
1, 31840, Note_on_c, 9, 42, 42
1, 31859, Note_on_c, 9, 42, 0
1, 32000, Note_on_c, 9, 42, 65
1, 32039, Note_on_c, 9, 42, 0
1, 32145, Note_on_c, 9, 42, 97
1, 32159, Note_on_c, 9, 36, 0
1, 32159, Note_on_c, 9, 42, 0
1, 32160, Note_on_c, 9, 38, 127
1, 32279, Note_on_c, 9, 38, 0
1, 32320, Note_on_c, 9, 42, 42
1, 32339, Note_on_c, 9, 42, 0
1, 32480, Note_on_c, 9, 42, 65
1, 32519, Note_on_c, 9, 42, 0
1, 32640, Note_on_c, 9, 42, 97
1, 32640, Note_on_c, 9, 36, 127
1, 32759, Note_on_c, 9, 42, 0
1, 32800, Note_on_c, 9, 42, 42
1, 32819, Note_on_c, 9, 42, 0
1, 32960, Note_on_c, 9, 42, 65
1, 32999, Note_on_c, 9, 42, 0
1, 33105, Note_on_c, 9, 42, 97
1, 33119, Note_on_c, 9, 36, 0
1, 33120, Note_on_c, 9, 38, 127
1, 33239, Note_on_c, 9, 42, 0
1, 33239, Note_on_c, 9, 38, 0
1, 33280, Note_on_c, 9, 42, 42
1, 33299, Note_on_c, 9, 42, 0
1, 33440, Note_on_c, 9, 42, 65
1, 33479, Note_on_c, 9, 42, 0
1, 33600, Note_on_c, 9, 42, 97
1, 33600, Note_on_c, 9, 36, 127
1, 33719, Note_on_c, 9, 42, 0
1, 33760, Note_on_c, 9, 42, 42
1, 33779, Note_on_c, 9, 42, 0
1, 33839, Note_on_c, 9, 36, 0
1, 33920, Note_on_c, 9, 42, 65
1, 33920, Note_on_c, 9, 36, 127
1, 33959, Note_on_c, 9, 42, 0
1, 33959, Note_on_c, 9, 36, 0
1, 34065, Note_on_c, 9, 42, 97
1, 34079, Note_on_c, 9, 42, 0
1, 34080, Note_on_c, 9, 38, 127
1, 34199, Note_on_c, 9, 38, 0
1, 34240, Note_on_c, 9, 42, 42
1, 34259, Note_on_c, 9, 42, 0
1, 34400, Note_on_c, 9, 42, 65
1, 34439, Note_on_c, 9, 42, 0
1, 34560, Note_on_c, 9, 42, 97
1, 34560, Note_on_c, 9, 36, 127
1, 34679, Note_on_c, 9, 42, 0
1, 34720, Note_on_c, 9, 42, 42
1, 34739, Note_on_c, 9, 42, 0
1, 34880, Note_on_c, 9, 42, 65
1, 34919, Note_on_c, 9, 42, 0
1, 35025, Note_on_c, 9, 42, 97
1, 35039, Note_on_c, 9, 36, 0
1, 35040, Note_on_c, 9, 38, 127
1, 35159, Note_on_c, 9, 42, 0
1, 35159, Note_on_c, 9, 38, 0
1, 35200, Note_on_c, 9, 42, 42
1, 35219, Note_on_c, 9, 42, 0
1, 35360, Note_on_c, 9, 42, 65
1, 35399, Note_on_c, 9, 42, 0
1, 35520, Note_on_c, 9, 42, 97
1, 35520, Note_on_c, 9, 36, 127
1, 35639, Note_on_c, 9, 42, 0
1, 35680, Note_on_c, 9, 42, 42
1, 35699, Note_on_c, 9, 42, 0
1, 35840, Note_on_c, 9, 42, 65
1, 35879, Note_on_c, 9, 42, 0
1, 35985, Note_on_c, 9, 42, 97
1, 35999, Note_on_c, 9, 36, 0
1, 35999, Note_on_c, 9, 42, 0
1, 36000, Note_on_c, 9, 38, 127
1, 36119, Note_on_c, 9, 38, 0
1, 36160, Note_on_c, 9, 42, 42
1, 36179, Note_on_c, 9, 42, 0
1, 36320, Note_on_c, 9, 42, 65
1, 36359, Note_on_c, 9, 42, 0
1, 36480, Note_on_c, 9, 42, 97
1, 36480, Note_on_c, 9, 36, 127
1, 36599, Note_on_c, 9, 42, 0
1, 36640, Note_on_c, 9, 42, 42
1, 36659, Note_on_c, 9, 42, 0
1, 36800, Note_on_c, 9, 42, 65
1, 36839, Note_on_c, 9, 42, 0
1, 36945, Note_on_c, 9, 42, 97
1, 36959, Note_on_c, 9, 36, 0
1, 36960, Note_on_c, 9, 38, 127
1, 37079, Note_on_c, 9, 42, 0
1, 37079, Note_on_c, 9, 38, 0
1, 37120, Note_on_c, 9, 42, 42
1, 37139, Note_on_c, 9, 42, 0
1, 37280, Note_on_c, 9, 42, 65
1, 37319, Note_on_c, 9, 42, 0
1, 37440, Note_on_c, 9, 42, 97
1, 37440, Note_on_c, 9, 36, 127
1, 37559, Note_on_c, 9, 42, 0
1, 37600, Note_on_c, 9, 42, 42
1, 37619, Note_on_c, 9, 42, 0
1, 37679, Note_on_c, 9, 36, 0
1, 37760, Note_on_c, 9, 42, 65
1, 37760, Note_on_c, 9, 36, 127
1, 37799, Note_on_c, 9, 42, 0
1, 37799, Note_on_c, 9, 36, 0
1, 37905, Note_on_c, 9, 42, 97
1, 37919, Note_on_c, 9, 42, 0
1, 37920, Note_on_c, 9, 38, 127
1, 38039, Note_on_c, 9, 38, 0
1, 38080, Note_on_c, 9, 42, 42
1, 38099, Note_on_c, 9, 42, 0
1, 38240, Note_on_c, 9, 42, 65
1, 38279, Note_on_c, 9, 42, 0
1, 38400, Note_on_c, 9, 42, 97
1, 38400, Note_on_c, 9, 36, 127
1, 38519, Note_on_c, 9, 42, 0
1, 38560, Note_on_c, 9, 42, 42
1, 38579, Note_on_c, 9, 42, 0
1, 38720, Note_on_c, 9, 42, 65
1, 38759, Note_on_c, 9, 42, 0
1, 38865, Note_on_c, 9, 42, 97
1, 38879, Note_on_c, 9, 36, 0
1, 38880, Note_on_c, 9, 38, 127
1, 38999, Note_on_c, 9, 42, 0
1, 38999, Note_on_c, 9, 38, 0
1, 39040, Note_on_c, 9, 42, 42
1, 39059, Note_on_c, 9, 42, 0
1, 39200, Note_on_c, 9, 42, 65
1, 39239, Note_on_c, 9, 42, 0
1, 39360, Note_on_c, 9, 42, 97
1, 39360, Note_on_c, 9, 36, 127
1, 39479, Note_on_c, 9, 42, 0
1, 39520, Note_on_c, 9, 42, 42
1, 39539, Note_on_c, 9, 42, 0
1, 39680, Note_on_c, 9, 42, 65
1, 39719, Note_on_c, 9, 42, 0
1, 39825, Note_on_c, 9, 42, 97
1, 39839, Note_on_c, 9, 36, 0
1, 39839, Note_on_c, 9, 42, 0
1, 39840, Note_on_c, 9, 38, 127
1, 39959, Note_on_c, 9, 38, 0
1, 40000, Note_on_c, 9, 42, 42
1, 40019, Note_on_c, 9, 42, 0
1, 40160, Note_on_c, 9, 42, 65
1, 40199, Note_on_c, 9, 42, 0
1, 40320, Note_on_c, 9, 42, 97
1, 40320, Note_on_c, 9, 36, 127
1, 40439, Note_on_c, 9, 42, 0
1, 40480, Note_on_c, 9, 42, 42
1, 40499, Note_on_c, 9, 42, 0
1, 40640, Note_on_c, 9, 42, 65
1, 40679, Note_on_c, 9, 42, 0
1, 40785, Note_on_c, 9, 42, 97
1, 40799, Note_on_c, 9, 36, 0
1, 40800, Note_on_c, 9, 38, 127
1, 40919, Note_on_c, 9, 42, 0
1, 40919, Note_on_c, 9, 38, 0
1, 40960, Note_on_c, 9, 42, 42
1, 40979, Note_on_c, 9, 42, 0
1, 41120, Note_on_c, 9, 42, 65
1, 41159, Note_on_c, 9, 42, 0
1, 41280, Note_on_c, 9, 42, 97
1, 41280, Note_on_c, 9, 36, 127
1, 41399, Note_on_c, 9, 42, 0
1, 41440, Note_on_c, 9, 42, 42
1, 41459, Note_on_c, 9, 42, 0
1, 41519, Note_on_c, 9, 36, 0
1, 41600, Note_on_c, 9, 42, 65
1, 41600, Note_on_c, 9, 36, 127
1, 41639, Note_on_c, 9, 42, 0
1, 41639, Note_on_c, 9, 36, 0
1, 41745, Note_on_c, 9, 42, 97
1, 41759, Note_on_c, 9, 42, 0
1, 41760, Note_on_c, 9, 38, 127
1, 41879, Note_on_c, 9, 38, 0
1, 41920, Note_on_c, 9, 42, 42
1, 41939, Note_on_c, 9, 42, 0
1, 42080, Note_on_c, 9, 42, 65
1, 42119, Note_on_c, 9, 42, 0
1, 42240, Note_on_c, 9, 42, 97
1, 42240, Note_on_c, 9, 36, 127
1, 42359, Note_on_c, 9, 42, 0
1, 42400, Note_on_c, 9, 42, 42
1, 42419, Note_on_c, 9, 42, 0
1, 42560, Note_on_c, 9, 42, 65
1, 42599, Note_on_c, 9, 42, 0
1, 42705, Note_on_c, 9, 42, 97
1, 42719, Note_on_c, 9, 36, 0
1, 42720, Note_on_c, 9, 38, 127
1, 42839, Note_on_c, 9, 42, 0
1, 42839, Note_on_c, 9, 38, 0
1, 42880, Note_on_c, 9, 42, 42
1, 42899, Note_on_c, 9, 42, 0
1, 43040, Note_on_c, 9, 42, 65
1, 43079, Note_on_c, 9, 42, 0
1, 43200, Note_on_c, 9, 42, 97
1, 43200, Note_on_c, 9, 36, 127
1, 43319, Note_on_c, 9, 42, 0
1, 43360, Note_on_c, 9, 42, 42
1, 43379, Note_on_c, 9, 42, 0
1, 43520, Note_on_c, 9, 42, 65
1, 43559, Note_on_c, 9, 42, 0
1, 43665, Note_on_c, 9, 42, 97
1, 43679, Note_on_c, 9, 36, 0
1, 43679, Note_on_c, 9, 42, 0
1, 43680, Note_on_c, 9, 38, 127
1, 43799, Note_on_c, 9, 38, 0
1, 43840, Note_on_c, 9, 42, 42
1, 43859, Note_on_c, 9, 42, 0
1, 44000, Note_on_c, 9, 42, 65
1, 44039, Note_on_c, 9, 42, 0
1, 44160, Note_on_c, 9, 42, 97
1, 44160, Note_on_c, 9, 36, 127
1, 44279, Note_on_c, 9, 42, 0
1, 44320, Note_on_c, 9, 42, 42
1, 44339, Note_on_c, 9, 42, 0
1, 44480, Note_on_c, 9, 42, 65
1, 44519, Note_on_c, 9, 42, 0
1, 44625, Note_on_c, 9, 42, 97
1, 44639, Note_on_c, 9, 36, 0
1, 44640, Note_on_c, 9, 38, 127
1, 44759, Note_on_c, 9, 42, 0
1, 44759, Note_on_c, 9, 38, 0
1, 44800, Note_on_c, 9, 42, 42
1, 44819, Note_on_c, 9, 42, 0
1, 44960, Note_on_c, 9, 42, 65
1, 44999, Note_on_c, 9, 42, 0
1, 45120, Note_on_c, 9, 42, 97
1, 45120, Note_on_c, 9, 36, 127
1, 45239, Note_on_c, 9, 42, 0
1, 45280, Note_on_c, 9, 42, 42
1, 45299, Note_on_c, 9, 42, 0
1, 45359, Note_on_c, 9, 36, 0
1, 45440, Note_on_c, 9, 42, 65
1, 45440, Note_on_c, 9, 36, 127
1, 45479, Note_on_c, 9, 42, 0
1, 45479, Note_on_c, 9, 36, 0
1, 45585, Note_on_c, 9, 42, 97
1, 45599, Note_on_c, 9, 42, 0
1, 45600, Note_on_c, 9, 38, 127
1, 45719, Note_on_c, 9, 38, 0
1, 45760, Note_on_c, 9, 42, 42
1, 45779, Note_on_c, 9, 42, 0
1, 45920, Note_on_c, 9, 42, 65
1, 45959, Note_on_c, 9, 42, 0
1, 46080, Note_on_c, 9, 42, 97
1, 46080, Note_on_c, 9, 36, 127
1, 46199, Note_on_c, 9, 42, 0
1, 46240, Note_on_c, 9, 42, 42
1, 46259, Note_on_c, 9, 42, 0
1, 46400, Note_on_c, 9, 42, 65
1, 46439, Note_on_c, 9, 42, 0
1, 46545, Note_on_c, 9, 42, 97
1, 46559, Note_on_c, 9, 36, 0
1, 46560, Note_on_c, 9, 38, 127
1, 46679, Note_on_c, 9, 42, 0
1, 46679, Note_on_c, 9, 38, 0
1, 46720, Note_on_c, 9, 42, 42
1, 46739, Note_on_c, 9, 42, 0
1, 46880, Note_on_c, 9, 42, 65
1, 46919, Note_on_c, 9, 42, 0
1, 47040, Note_on_c, 9, 42, 97
1, 47040, Note_on_c, 9, 36, 127
1, 47159, Note_on_c, 9, 42, 0
1, 47200, Note_on_c, 9, 42, 42
1, 47219, Note_on_c, 9, 42, 0
1, 47360, Note_on_c, 9, 42, 65
1, 47399, Note_on_c, 9, 42, 0
1, 47505, Note_on_c, 9, 42, 97
1, 47519, Note_on_c, 9, 36, 0
1, 47519, Note_on_c, 9, 42, 0
1, 47520, Note_on_c, 9, 38, 127
1, 47639, Note_on_c, 9, 38, 0
1, 47680, Note_on_c, 9, 42, 42
1, 47699, Note_on_c, 9, 42, 0
1, 47840, Note_on_c, 9, 42, 65
1, 47879, Note_on_c, 9, 42, 0
1, 48000, Note_on_c, 9, 42, 97
1, 48000, Note_on_c, 9, 36, 127
1, 48119, Note_on_c, 9, 42, 0
1, 48160, Note_on_c, 9, 42, 42
1, 48179, Note_on_c, 9, 42, 0
1, 48320, Note_on_c, 9, 42, 65
1, 48359, Note_on_c, 9, 42, 0
1, 48465, Note_on_c, 9, 42, 97
1, 48479, Note_on_c, 9, 36, 0
1, 48480, Note_on_c, 9, 38, 127
1, 48599, Note_on_c, 9, 42, 0
1, 48599, Note_on_c, 9, 38, 0
1, 48640, Note_on_c, 9, 42, 42
1, 48659, Note_on_c, 9, 42, 0
1, 48800, Note_on_c, 9, 42, 65
1, 48839, Note_on_c, 9, 42, 0
1, 48960, Note_on_c, 9, 42, 97
1, 48960, Note_on_c, 9, 36, 127
1, 49079, Note_on_c, 9, 42, 0
1, 49120, Note_on_c, 9, 42, 42
1, 49139, Note_on_c, 9, 42, 0
1, 49199, Note_on_c, 9, 36, 0
1, 49280, Note_on_c, 9, 42, 65
1, 49280, Note_on_c, 9, 36, 127
1, 49319, Note_on_c, 9, 42, 0
1, 49319, Note_on_c, 9, 36, 0
1, 49425, Note_on_c, 9, 42, 97
1, 49439, Note_on_c, 9, 42, 0
1, 49440, Note_on_c, 9, 38, 127
1, 49559, Note_on_c, 9, 38, 0
1, 49600, Note_on_c, 9, 42, 42
1, 49619, Note_on_c, 9, 42, 0
1, 49760, Note_on_c, 9, 42, 65
1, 49799, Note_on_c, 9, 42, 0
1, 49920, Note_on_c, 9, 42, 97
1, 49920, Note_on_c, 9, 36, 127
1, 50039, Note_on_c, 9, 42, 0
1, 50080, Note_on_c, 9, 42, 42
1, 50099, Note_on_c, 9, 42, 0
1, 50240, Note_on_c, 9, 42, 65
1, 50279, Note_on_c, 9, 42, 0
1, 50385, Note_on_c, 9, 42, 97
1, 50399, Note_on_c, 9, 36, 0
1, 50400, Note_on_c, 9, 38, 127
1, 50519, Note_on_c, 9, 42, 0
1, 50519, Note_on_c, 9, 38, 0
1, 50560, Note_on_c, 9, 42, 42
1, 50579, Note_on_c, 9, 42, 0
1, 50720, Note_on_c, 9, 42, 65
1, 50759, Note_on_c, 9, 42, 0
1, 50880, Note_on_c, 9, 42, 97
1, 50880, Note_on_c, 9, 36, 127
1, 50999, Note_on_c, 9, 42, 0
1, 51040, Note_on_c, 9, 42, 42
1, 51059, Note_on_c, 9, 42, 0
1, 51200, Note_on_c, 9, 42, 65
1, 51239, Note_on_c, 9, 42, 0
1, 51345, Note_on_c, 9, 42, 97
1, 51359, Note_on_c, 9, 36, 0
1, 51359, Note_on_c, 9, 42, 0
1, 51360, Note_on_c, 9, 38, 127
1, 51479, Note_on_c, 9, 38, 0
1, 51520, Note_on_c, 9, 42, 42
1, 51539, Note_on_c, 9, 42, 0
1, 51680, Note_on_c, 9, 42, 65
1, 51719, Note_on_c, 9, 42, 0
1, 51840, Note_on_c, 9, 42, 97
1, 51840, Note_on_c, 9, 36, 127
1, 51959, Note_on_c, 9, 42, 0
1, 52000, Note_on_c, 9, 42, 42
1, 52019, Note_on_c, 9, 42, 0
1, 52160, Note_on_c, 9, 42, 65
1, 52199, Note_on_c, 9, 42, 0
1, 52305, Note_on_c, 9, 42, 97
1, 52319, Note_on_c, 9, 36, 0
1, 52320, Note_on_c, 9, 38, 127
1, 52439, Note_on_c, 9, 42, 0
1, 52439, Note_on_c, 9, 38, 0
1, 52480, Note_on_c, 9, 42, 42
1, 52499, Note_on_c, 9, 42, 0
1, 52640, Note_on_c, 9, 42, 65
1, 52679, Note_on_c, 9, 42, 0
1, 52800, Note_on_c, 9, 42, 97
1, 52800, Note_on_c, 9, 36, 127
1, 52919, Note_on_c, 9, 42, 0
1, 52960, Note_on_c, 9, 42, 42
1, 52979, Note_on_c, 9, 42, 0
1, 53039, Note_on_c, 9, 36, 0
1, 53120, Note_on_c, 9, 42, 65
1, 53120, Note_on_c, 9, 36, 127
1, 53159, Note_on_c, 9, 42, 0
1, 53159, Note_on_c, 9, 36, 0
1, 53265, Note_on_c, 9, 42, 97
1, 53279, Note_on_c, 9, 42, 0
1, 53280, Note_on_c, 9, 38, 127
1, 53399, Note_on_c, 9, 38, 0
1, 53440, Note_on_c, 9, 42, 42
1, 53459, Note_on_c, 9, 42, 0
1, 53600, Note_on_c, 9, 42, 65
1, 53639, Note_on_c, 9, 42, 0
1, 53760, Note_on_c, 9, 42, 97
1, 53760, Note_on_c, 9, 36, 127
1, 53879, Note_on_c, 9, 42, 0
1, 53920, Note_on_c, 9, 42, 42
1, 53939, Note_on_c, 9, 42, 0
1, 54080, Note_on_c, 9, 42, 65
1, 54119, Note_on_c, 9, 42, 0
1, 54225, Note_on_c, 9, 42, 97
1, 54239, Note_on_c, 9, 36, 0
1, 54240, Note_on_c, 9, 38, 127
1, 54359, Note_on_c, 9, 42, 0
1, 54359, Note_on_c, 9, 38, 0
1, 54400, Note_on_c, 9, 42, 42
1, 54419, Note_on_c, 9, 42, 0
1, 54560, Note_on_c, 9, 42, 65
1, 54599, Note_on_c, 9, 42, 0
1, 54720, Note_on_c, 9, 42, 97
1, 54720, Note_on_c, 9, 36, 127
1, 54839, Note_on_c, 9, 42, 0
1, 54880, Note_on_c, 9, 42, 42
1, 54899, Note_on_c, 9, 42, 0
1, 55040, Note_on_c, 9, 42, 65
1, 55079, Note_on_c, 9, 42, 0
1, 55185, Note_on_c, 9, 42, 97
1, 55199, Note_on_c, 9, 36, 0
1, 55199, Note_on_c, 9, 42, 0
1, 55200, Note_on_c, 9, 38, 127
1, 55319, Note_on_c, 9, 38, 0
1, 55360, Note_on_c, 9, 42, 42
1, 55379, Note_on_c, 9, 42, 0
1, 55520, Note_on_c, 9, 42, 65
1, 55559, Note_on_c, 9, 42, 0
1, 55680, Note_on_c, 9, 42, 97
1, 55680, Note_on_c, 9, 36, 127
1, 55799, Note_on_c, 9, 42, 0
1, 55840, Note_on_c, 9, 42, 42
1, 55859, Note_on_c, 9, 42, 0
1, 56000, Note_on_c, 9, 42, 65
1, 56039, Note_on_c, 9, 42, 0
1, 56145, Note_on_c, 9, 42, 97
1, 56159, Note_on_c, 9, 36, 0
1, 56160, Note_on_c, 9, 38, 127
1, 56279, Note_on_c, 9, 42, 0
1, 56279, Note_on_c, 9, 38, 0
1, 56320, Note_on_c, 9, 42, 42
1, 56339, Note_on_c, 9, 42, 0
1, 56480, Note_on_c, 9, 42, 65
1, 56519, Note_on_c, 9, 42, 0
1, 56640, Note_on_c, 9, 42, 97
1, 56640, Note_on_c, 9, 36, 127
1, 56759, Note_on_c, 9, 42, 0
1, 56800, Note_on_c, 9, 42, 42
1, 56819, Note_on_c, 9, 42, 0
1, 56879, Note_on_c, 9, 36, 0
1, 56960, Note_on_c, 9, 42, 65
1, 56960, Note_on_c, 9, 36, 127
1, 56999, Note_on_c, 9, 42, 0
1, 56999, Note_on_c, 9, 36, 0
1, 57105, Note_on_c, 9, 42, 97
1, 57119, Note_on_c, 9, 42, 0
1, 57120, Note_on_c, 9, 38, 127
1, 57239, Note_on_c, 9, 38, 0
1, 57280, Note_on_c, 9, 42, 42
1, 57299, Note_on_c, 9, 42, 0
1, 57440, Note_on_c, 9, 42, 65
1, 57479, Note_on_c, 9, 42, 0
1, 57600, Note_on_c, 9, 42, 97
1, 57600, Note_on_c, 9, 36, 127
1, 57719, Note_on_c, 9, 42, 0
1, 57760, Note_on_c, 9, 42, 42
1, 57779, Note_on_c, 9, 42, 0
1, 57920, Note_on_c, 9, 42, 65
1, 57959, Note_on_c, 9, 42, 0
1, 58065, Note_on_c, 9, 42, 97
1, 58079, Note_on_c, 9, 36, 0
1, 58080, Note_on_c, 9, 38, 127
1, 58199, Note_on_c, 9, 42, 0
1, 58199, Note_on_c, 9, 38, 0
1, 58240, Note_on_c, 9, 42, 42
1, 58259, Note_on_c, 9, 42, 0
1, 58400, Note_on_c, 9, 42, 65
1, 58439, Note_on_c, 9, 42, 0
1, 58560, Note_on_c, 9, 42, 97
1, 58560, Note_on_c, 9, 36, 127
1, 58679, Note_on_c, 9, 42, 0
1, 58720, Note_on_c, 9, 42, 42
1, 58739, Note_on_c, 9, 42, 0
1, 58880, Note_on_c, 9, 42, 65
1, 58919, Note_on_c, 9, 42, 0
1, 59025, Note_on_c, 9, 42, 97
1, 59039, Note_on_c, 9, 36, 0
1, 59039, Note_on_c, 9, 42, 0
1, 59040, Note_on_c, 9, 38, 127
1, 59159, Note_on_c, 9, 38, 0
1, 59200, Note_on_c, 9, 42, 42
1, 59219, Note_on_c, 9, 42, 0
1, 59360, Note_on_c, 9, 42, 65
1, 59399, Note_on_c, 9, 42, 0
1, 59520, Note_on_c, 9, 42, 97
1, 59520, Note_on_c, 9, 36, 127
1, 59639, Note_on_c, 9, 42, 0
1, 59680, Note_on_c, 9, 42, 42
1, 59699, Note_on_c, 9, 42, 0
1, 59840, Note_on_c, 9, 42, 65
1, 59879, Note_on_c, 9, 42, 0
1, 59985, Note_on_c, 9, 42, 97
1, 59999, Note_on_c, 9, 36, 0
1, 60000, Note_on_c, 9, 38, 127
1, 60119, Note_on_c, 9, 42, 0
1, 60119, Note_on_c, 9, 38, 0
1, 60160, Note_on_c, 9, 42, 42
1, 60179, Note_on_c, 9, 42, 0
1, 60320, Note_on_c, 9, 42, 65
1, 60359, Note_on_c, 9, 42, 0
1, 60480, Note_on_c, 9, 42, 97
1, 60480, Note_on_c, 9, 36, 127
1, 60599, Note_on_c, 9, 42, 0
1, 60640, Note_on_c, 9, 42, 42
1, 60659, Note_on_c, 9, 42, 0
1, 60719, Note_on_c, 9, 36, 0
1, 60800, Note_on_c, 9, 42, 65
1, 60800, Note_on_c, 9, 36, 127
1, 60839, Note_on_c, 9, 42, 0
1, 60839, Note_on_c, 9, 36, 0
1, 60945, Note_on_c, 9, 42, 97
1, 60959, Note_on_c, 9, 42, 0
1, 60960, Note_on_c, 9, 38, 127
1, 61079, Note_on_c, 9, 38, 0
1, 61120, Note_on_c, 9, 42, 42
1, 61139, Note_on_c, 9, 42, 0
1, 61280, Note_on_c, 9, 42, 65
1, 61319, Note_on_c, 9, 42, 0
1, 61440, Note_on_c, 9, 42, 97
1, 61440, Note_on_c, 9, 36, 127
1, 61559, Note_on_c, 9, 42, 0
1, 61600, Note_on_c, 9, 42, 42
1, 61619, Note_on_c, 9, 42, 0
1, 61760, Note_on_c, 9, 42, 65
1, 61799, Note_on_c, 9, 42, 0
1, 61905, Note_on_c, 9, 42, 97
1, 61919, Note_on_c, 9, 36, 0
1, 61920, Note_on_c, 9, 38, 127
1, 62039, Note_on_c, 9, 42, 0
1, 62039, Note_on_c, 9, 38, 0
1, 62080, Note_on_c, 9, 42, 42
1, 62099, Note_on_c, 9, 42, 0
1, 62240, Note_on_c, 9, 42, 65
1, 62279, Note_on_c, 9, 42, 0
1, 62400, Note_on_c, 9, 42, 97
1, 62400, Note_on_c, 9, 36, 127
1, 62519, Note_on_c, 9, 42, 0
1, 62560, Note_on_c, 9, 42, 42
1, 62579, Note_on_c, 9, 42, 0
1, 62720, Note_on_c, 9, 42, 65
1, 62759, Note_on_c, 9, 42, 0
1, 62865, Note_on_c, 9, 42, 97
1, 62879, Note_on_c, 9, 36, 0
1, 62879, Note_on_c, 9, 42, 0
1, 62880, Note_on_c, 9, 38, 127
1, 62999, Note_on_c, 9, 38, 0
1, 63040, Note_on_c, 9, 42, 42
1, 63059, Note_on_c, 9, 42, 0
1, 63200, Note_on_c, 9, 42, 65
1, 63239, Note_on_c, 9, 42, 0
1, 63360, Note_on_c, 9, 42, 97
1, 63360, Note_on_c, 9, 36, 127
1, 63479, Note_on_c, 9, 42, 0
1, 63520, Note_on_c, 9, 42, 42
1, 63539, Note_on_c, 9, 42, 0
1, 63680, Note_on_c, 9, 42, 65
1, 63719, Note_on_c, 9, 42, 0
1, 63825, Note_on_c, 9, 42, 97
1, 63839, Note_on_c, 9, 36, 0
1, 63840, Note_on_c, 9, 38, 127
1, 63959, Note_on_c, 9, 42, 0
1, 63959, Note_on_c, 9, 38, 0
1, 64000, Note_on_c, 9, 42, 42
1, 64019, Note_on_c, 9, 42, 0
1, 64160, Note_on_c, 9, 42, 65
1, 64199, Note_on_c, 9, 42, 0
1, 64320, Note_on_c, 9, 42, 97
1, 64320, Note_on_c, 9, 36, 127
1, 64439, Note_on_c, 9, 42, 0
1, 64480, Note_on_c, 9, 42, 42
1, 64499, Note_on_c, 9, 42, 0
1, 64559, Note_on_c, 9, 36, 0
1, 64640, Note_on_c, 9, 42, 65
1, 64640, Note_on_c, 9, 36, 127
1, 64679, Note_on_c, 9, 42, 0
1, 64679, Note_on_c, 9, 36, 0
1, 64785, Note_on_c, 9, 42, 97
1, 64799, Note_on_c, 9, 42, 0
1, 64800, Note_on_c, 9, 38, 127
1, 64919, Note_on_c, 9, 38, 0
1, 64960, Note_on_c, 9, 42, 42
1, 64979, Note_on_c, 9, 42, 0
1, 65120, Note_on_c, 9, 42, 65
1, 65159, Note_on_c, 9, 42, 0
1, 65280, Note_on_c, 9, 42, 97
1, 65280, Note_on_c, 9, 36, 127
1, 65399, Note_on_c, 9, 42, 0
1, 65440, Note_on_c, 9, 42, 42
1, 65459, Note_on_c, 9, 42, 0
1, 65600, Note_on_c, 9, 42, 65
1, 65639, Note_on_c, 9, 42, 0
1, 65745, Note_on_c, 9, 42, 97
1, 65759, Note_on_c, 9, 36, 0
1, 65760, Note_on_c, 9, 38, 127
1, 65879, Note_on_c, 9, 42, 0
1, 65879, Note_on_c, 9, 38, 0
1, 65920, Note_on_c, 9, 42, 42
1, 65939, Note_on_c, 9, 42, 0
1, 66080, Note_on_c, 9, 42, 65
1, 66119, Note_on_c, 9, 42, 0
1, 66240, Note_on_c, 9, 42, 97
1, 66240, Note_on_c, 9, 36, 127
1, 66359, Note_on_c, 9, 42, 0
1, 66400, Note_on_c, 9, 42, 42
1, 66419, Note_on_c, 9, 42, 0
1, 66560, Note_on_c, 9, 42, 65
1, 66599, Note_on_c, 9, 42, 0
1, 66705, Note_on_c, 9, 42, 97
1, 66719, Note_on_c, 9, 36, 0
1, 66719, Note_on_c, 9, 42, 0
1, 66720, Note_on_c, 9, 38, 127
1, 66839, Note_on_c, 9, 38, 0
1, 66880, Note_on_c, 9, 42, 42
1, 66899, Note_on_c, 9, 42, 0
1, 67040, Note_on_c, 9, 42, 65
1, 67079, Note_on_c, 9, 42, 0
1, 67200, Note_on_c, 9, 42, 97
1, 67200, Note_on_c, 9, 36, 127
1, 67319, Note_on_c, 9, 42, 0
1, 67360, Note_on_c, 9, 42, 42
1, 67379, Note_on_c, 9, 42, 0
1, 67520, Note_on_c, 9, 42, 65
1, 67559, Note_on_c, 9, 42, 0
1, 67665, Note_on_c, 9, 42, 97
1, 67679, Note_on_c, 9, 36, 0
1, 67680, Note_on_c, 9, 38, 127
1, 67799, Note_on_c, 9, 42, 0
1, 67799, Note_on_c, 9, 38, 0
1, 67840, Note_on_c, 9, 42, 42
1, 67859, Note_on_c, 9, 42, 0
1, 68000, Note_on_c, 9, 42, 65
1, 68039, Note_on_c, 9, 42, 0
1, 68160, Note_on_c, 9, 42, 97
1, 68160, Note_on_c, 9, 36, 127
1, 68279, Note_on_c, 9, 42, 0
1, 68320, Note_on_c, 9, 42, 42
1, 68339, Note_on_c, 9, 42, 0
1, 68399, Note_on_c, 9, 36, 0
1, 68480, Note_on_c, 9, 42, 65
1, 68480, Note_on_c, 9, 36, 127
1, 68519, Note_on_c, 9, 42, 0
1, 68519, Note_on_c, 9, 36, 0
1, 68625, Note_on_c, 9, 42, 97
1, 68639, Note_on_c, 9, 42, 0
1, 68640, Note_on_c, 9, 38, 127
1, 68759, Note_on_c, 9, 38, 0
1, 68800, Note_on_c, 9, 42, 42
1, 68819, Note_on_c, 9, 42, 0
1, 68960, Note_on_c, 9, 42, 65
1, 68999, Note_on_c, 9, 42, 0
1, 69120, Note_on_c, 9, 42, 97
1, 69120, Note_on_c, 9, 36, 127
1, 69239, Note_on_c, 9, 42, 0
1, 69280, Note_on_c, 9, 42, 42
1, 69299, Note_on_c, 9, 42, 0
1, 69440, Note_on_c, 9, 42, 65
1, 69479, Note_on_c, 9, 42, 0
1, 69585, Note_on_c, 9, 42, 97
1, 69599, Note_on_c, 9, 36, 0
1, 69600, Note_on_c, 9, 38, 127
1, 69719, Note_on_c, 9, 42, 0
1, 69719, Note_on_c, 9, 38, 0
1, 69760, Note_on_c, 9, 42, 42
1, 69779, Note_on_c, 9, 42, 0
1, 69920, Note_on_c, 9, 42, 65
1, 69959, Note_on_c, 9, 42, 0
1, 70080, Note_on_c, 9, 42, 97
1, 70080, Note_on_c, 9, 36, 127
1, 70199, Note_on_c, 9, 42, 0
1, 70240, Note_on_c, 9, 42, 42
1, 70259, Note_on_c, 9, 42, 0
1, 70400, Note_on_c, 9, 42, 65
1, 70439, Note_on_c, 9, 42, 0
1, 70545, Note_on_c, 9, 42, 97
1, 70559, Note_on_c, 9, 36, 0
1, 70559, Note_on_c, 9, 42, 0
1, 70560, Note_on_c, 9, 38, 127
1, 70679, Note_on_c, 9, 38, 0
1, 70720, Note_on_c, 9, 42, 42
1, 70739, Note_on_c, 9, 42, 0
1, 70880, Note_on_c, 9, 42, 65
1, 70919, Note_on_c, 9, 42, 0
1, 71040, Note_on_c, 9, 42, 97
1, 71040, Note_on_c, 9, 36, 127
1, 71159, Note_on_c, 9, 42, 0
1, 71200, Note_on_c, 9, 42, 42
1, 71219, Note_on_c, 9, 42, 0
1, 71360, Note_on_c, 9, 42, 65
1, 71399, Note_on_c, 9, 42, 0
1, 71505, Note_on_c, 9, 42, 97
1, 71519, Note_on_c, 9, 36, 0
1, 71520, Note_on_c, 9, 38, 127
1, 71639, Note_on_c, 9, 42, 0
1, 71639, Note_on_c, 9, 38, 0
1, 71680, Note_on_c, 9, 42, 42
1, 71699, Note_on_c, 9, 42, 0
1, 71840, Note_on_c, 9, 38, 127
1, 71840, Note_on_c, 9, 42, 65
1, 71879, Note_on_c, 9, 38, 0
1, 71879, Note_on_c, 9, 42, 0
1, 72000, Note_on_c, 9, 42, 97
1, 72000, Note_on_c, 9, 36, 127
1, 72119, Note_on_c, 9, 42, 0
1, 72160, Note_on_c, 9, 42, 42
1, 72179, Note_on_c, 9, 42, 0
1, 72239, Note_on_c, 9, 36, 0
1, 72320, Note_on_c, 9, 42, 65
1, 72320, Note_on_c, 9, 36, 127
1, 72359, Note_on_c, 9, 42, 0
1, 72359, Note_on_c, 9, 36, 0
1, 72465, Note_on_c, 9, 42, 97
1, 72479, Note_on_c, 9, 42, 0
1, 72480, Note_on_c, 9, 38, 127
1, 72480, Note_on_c, 9, 50, 127
1, 72599, Note_on_c, 9, 38, 0
1, 72599, Note_on_c, 9, 50, 0
1, 72640, Note_on_c, 9, 47, 127
1, 72640, Note_on_c, 9, 42, 42
1, 72659, Note_on_c, 9, 47, 0
1, 72659, Note_on_c, 9, 42, 0
1, 72800, Note_on_c, 9, 42, 65
1, 72800, Note_on_c, 9, 43, 127
1, 72839, Note_on_c, 9, 42, 0
1, 72839, Note_on_c, 9, 43, 0
1, 72960, Note_on_c, 9, 42, 97
1, 72960, Note_on_c, 9, 36, 127
1, 73079, Note_on_c, 9, 42, 0
1, 73120, Note_on_c, 9, 42, 42
1, 73139, Note_on_c, 9, 42, 0
1, 73280, Note_on_c, 9, 42, 65
1, 73319, Note_on_c, 9, 42, 0
1, 73425, Note_on_c, 9, 42, 97
1, 73439, Note_on_c, 9, 36, 0
1, 73440, Note_on_c, 9, 38, 127
1, 73559, Note_on_c, 9, 42, 0
1, 73559, Note_on_c, 9, 38, 0
1, 73600, Note_on_c, 9, 42, 42
1, 73619, Note_on_c, 9, 42, 0
1, 73760, Note_on_c, 9, 42, 65
1, 73799, Note_on_c, 9, 42, 0
1, 73920, Note_on_c, 9, 42, 97
1, 73920, Note_on_c, 9, 36, 127
1, 74039, Note_on_c, 9, 42, 0
1, 74080, Note_on_c, 9, 42, 42
1, 74099, Note_on_c, 9, 42, 0
1, 74240, Note_on_c, 9, 42, 65
1, 74279, Note_on_c, 9, 42, 0
1, 74385, Note_on_c, 9, 42, 97
1, 74399, Note_on_c, 9, 36, 0
1, 74399, Note_on_c, 9, 42, 0
1, 74400, Note_on_c, 9, 38, 127
1, 74519, Note_on_c, 9, 38, 0
1, 74560, Note_on_c, 9, 42, 42
1, 74579, Note_on_c, 9, 42, 0
1, 74720, Note_on_c, 9, 42, 65
1, 74759, Note_on_c, 9, 42, 0
1, 74880, Note_on_c, 9, 42, 97
1, 74880, Note_on_c, 9, 36, 127
1, 74999, Note_on_c, 9, 42, 0
1, 75040, Note_on_c, 9, 42, 42
1, 75059, Note_on_c, 9, 42, 0
1, 75200, Note_on_c, 9, 42, 65
1, 75239, Note_on_c, 9, 42, 0
1, 75345, Note_on_c, 9, 42, 97
1, 75359, Note_on_c, 9, 36, 0
1, 75360, Note_on_c, 9, 38, 127
1, 75479, Note_on_c, 9, 42, 0
1, 75479, Note_on_c, 9, 38, 0
1, 75520, Note_on_c, 9, 42, 42
1, 75539, Note_on_c, 9, 42, 0
1, 75680, Note_on_c, 9, 42, 65
1, 75719, Note_on_c, 9, 42, 0
1, 75840, Note_on_c, 9, 42, 97
1, 75840, Note_on_c, 9, 36, 127
1, 75959, Note_on_c, 9, 42, 0
1, 76000, Note_on_c, 9, 42, 42
1, 76019, Note_on_c, 9, 42, 0
1, 76079, Note_on_c, 9, 36, 0
1, 76160, Note_on_c, 9, 42, 65
1, 76160, Note_on_c, 9, 36, 127
1, 76199, Note_on_c, 9, 42, 0
1, 76199, Note_on_c, 9, 36, 0
1, 76305, Note_on_c, 9, 42, 97
1, 76319, Note_on_c, 9, 42, 0
1, 76320, Note_on_c, 9, 38, 127
1, 76439, Note_on_c, 9, 38, 0
1, 76480, Note_on_c, 9, 42, 42
1, 76499, Note_on_c, 9, 42, 0
1, 76640, Note_on_c, 9, 42, 65
1, 76679, Note_on_c, 9, 42, 0
1, 76800, Note_on_c, 9, 42, 97
1, 76800, Note_on_c, 9, 36, 127
1, 76919, Note_on_c, 9, 42, 0
1, 76960, Note_on_c, 9, 42, 42
1, 76979, Note_on_c, 9, 42, 0
1, 77120, Note_on_c, 9, 42, 65
1, 77159, Note_on_c, 9, 42, 0
1, 77265, Note_on_c, 9, 42, 97
1, 77279, Note_on_c, 9, 36, 0
1, 77280, Note_on_c, 9, 38, 127
1, 77399, Note_on_c, 9, 42, 0
1, 77399, Note_on_c, 9, 38, 0
1, 77440, Note_on_c, 9, 42, 42
1, 77459, Note_on_c, 9, 42, 0
1, 77600, Note_on_c, 9, 42, 65
1, 77639, Note_on_c, 9, 42, 0
1, 77760, Note_on_c, 9, 42, 97
1, 77760, Note_on_c, 9, 36, 127
1, 77879, Note_on_c, 9, 42, 0
1, 77920, Note_on_c, 9, 42, 42
1, 77939, Note_on_c, 9, 42, 0
1, 78080, Note_on_c, 9, 42, 65
1, 78119, Note_on_c, 9, 42, 0
1, 78225, Note_on_c, 9, 42, 97
1, 78239, Note_on_c, 9, 36, 0
1, 78239, Note_on_c, 9, 42, 0
1, 78240, Note_on_c, 9, 38, 127
1, 78359, Note_on_c, 9, 38, 0
1, 78400, Note_on_c, 9, 42, 42
1, 78419, Note_on_c, 9, 42, 0
1, 78560, Note_on_c, 9, 42, 65
1, 78599, Note_on_c, 9, 42, 0
1, 78720, Note_on_c, 9, 42, 97
1, 78720, Note_on_c, 9, 36, 127
1, 78839, Note_on_c, 9, 42, 0
1, 78880, Note_on_c, 9, 42, 42
1, 78899, Note_on_c, 9, 42, 0
1, 79040, Note_on_c, 9, 42, 65
1, 79079, Note_on_c, 9, 42, 0
1, 79185, Note_on_c, 9, 42, 97
1, 79199, Note_on_c, 9, 36, 0
1, 79200, Note_on_c, 9, 38, 127
1, 79319, Note_on_c, 9, 42, 0
1, 79319, Note_on_c, 9, 38, 0
1, 79360, Note_on_c, 9, 42, 42
1, 79379, Note_on_c, 9, 42, 0
1, 79520, Note_on_c, 9, 42, 65
1, 79559, Note_on_c, 9, 42, 0
1, 79680, Note_on_c, 9, 42, 97
1, 79680, Note_on_c, 9, 36, 127
1, 79799, Note_on_c, 9, 42, 0
1, 79840, Note_on_c, 9, 42, 42
1, 79859, Note_on_c, 9, 42, 0
1, 79919, Note_on_c, 9, 36, 0
1, 80000, Note_on_c, 9, 42, 65
1, 80000, Note_on_c, 9, 36, 127
1, 80039, Note_on_c, 9, 42, 0
1, 80039, Note_on_c, 9, 36, 0
1, 80145, Note_on_c, 9, 42, 97
1, 80159, Note_on_c, 9, 42, 0
1, 80160, Note_on_c, 9, 38, 127
1, 80279, Note_on_c, 9, 38, 0
1, 80320, Note_on_c, 9, 42, 42
1, 80339, Note_on_c, 9, 42, 0
1, 80480, Note_on_c, 9, 42, 65
1, 80519, Note_on_c, 9, 42, 0
1, 80640, Note_on_c, 9, 42, 97
1, 80640, Note_on_c, 9, 49, 127
1, 80640, Note_on_c, 9, 36, 127
1, 80759, Note_on_c, 9, 42, 0
1, 80759, Note_on_c, 9, 49, 0
1, 80800, Note_on_c, 9, 42, 42
1, 80819, Note_on_c, 9, 42, 0
1, 80960, Note_on_c, 9, 42, 65
1, 80999, Note_on_c, 9, 42, 0
1, 81105, Note_on_c, 9, 42, 97
1, 81119, Note_on_c, 9, 36, 0
1, 81120, Note_on_c, 9, 38, 127
1, 81239, Note_on_c, 9, 42, 0
1, 81239, Note_on_c, 9, 38, 0
1, 81280, Note_on_c, 9, 42, 42
1, 81299, Note_on_c, 9, 42, 0
1, 81440, Note_on_c, 9, 42, 65
1, 81479, Note_on_c, 9, 42, 0
1, 81600, Note_on_c, 9, 42, 97
1, 81600, Note_on_c, 9, 36, 127
1, 81719, Note_on_c, 9, 42, 0
1, 81760, Note_on_c, 9, 42, 42
1, 81779, Note_on_c, 9, 42, 0
1, 81920, Note_on_c, 9, 42, 65
1, 81959, Note_on_c, 9, 42, 0
1, 82065, Note_on_c, 9, 42, 97
1, 82079, Note_on_c, 9, 36, 0
1, 82079, Note_on_c, 9, 42, 0
1, 82080, Note_on_c, 9, 38, 127
1, 82199, Note_on_c, 9, 38, 0
1, 82240, Note_on_c, 9, 42, 42
1, 82259, Note_on_c, 9, 42, 0
1, 82400, Note_on_c, 9, 42, 65
1, 82439, Note_on_c, 9, 42, 0
1, 82560, Note_on_c, 9, 42, 97
1, 82560, Note_on_c, 9, 36, 127
1, 82679, Note_on_c, 9, 42, 0
1, 82720, Note_on_c, 9, 42, 42
1, 82739, Note_on_c, 9, 42, 0
1, 82880, Note_on_c, 9, 42, 65
1, 82919, Note_on_c, 9, 42, 0
1, 83025, Note_on_c, 9, 42, 97
1, 83039, Note_on_c, 9, 36, 0
1, 83040, Note_on_c, 9, 38, 127
1, 83159, Note_on_c, 9, 42, 0
1, 83159, Note_on_c, 9, 38, 0
1, 83200, Note_on_c, 9, 42, 42
1, 83219, Note_on_c, 9, 42, 0
1, 83360, Note_on_c, 9, 42, 65
1, 83399, Note_on_c, 9, 42, 0
1, 83520, Note_on_c, 9, 42, 97
1, 83520, Note_on_c, 9, 36, 127
1, 83639, Note_on_c, 9, 42, 0
1, 83680, Note_on_c, 9, 42, 42
1, 83699, Note_on_c, 9, 42, 0
1, 83759, Note_on_c, 9, 36, 0
1, 83840, Note_on_c, 9, 42, 65
1, 83840, Note_on_c, 9, 36, 127
1, 83879, Note_on_c, 9, 42, 0
1, 83879, Note_on_c, 9, 36, 0
1, 83985, Note_on_c, 9, 42, 97
1, 83999, Note_on_c, 9, 42, 0
1, 84000, Note_on_c, 9, 38, 127
1, 84119, Note_on_c, 9, 38, 0
1, 84160, Note_on_c, 9, 42, 42
1, 84179, Note_on_c, 9, 42, 0
1, 84320, Note_on_c, 9, 42, 65
1, 84359, Note_on_c, 9, 42, 0
1, 84480, Note_on_c, 9, 42, 97
1, 84480, Note_on_c, 9, 36, 127
1, 84599, Note_on_c, 9, 42, 0
1, 84640, Note_on_c, 9, 39, 105
1, 84640, Note_on_c, 9, 42, 42
1, 84659, Note_on_c, 9, 39, 0
1, 84659, Note_on_c, 9, 42, 0
1, 84800, Note_on_c, 9, 39, 115
1, 84800, Note_on_c, 9, 42, 65
1, 84839, Note_on_c, 9, 39, 0
1, 84839, Note_on_c, 9, 42, 0
1, 84945, Note_on_c, 9, 42, 97
1, 84959, Note_on_c, 9, 36, 0
1, 84960, Note_on_c, 9, 38, 127
1, 84960, Note_on_c, 9, 39, 125
1, 85079, Note_on_c, 9, 42, 0
1, 85079, Note_on_c, 9, 38, 0
1, 85079, Note_on_c, 9, 39, 0
1, 85120, Note_on_c, 9, 42, 42
1, 85139, Note_on_c, 9, 42, 0
1, 85280, Note_on_c, 9, 42, 65
1, 85319, Note_on_c, 9, 42, 0
1, 85440, Note_on_c, 9, 42, 97
1, 85440, Note_on_c, 9, 36, 127
1, 85559, Note_on_c, 9, 42, 0
1, 85600, Note_on_c, 9, 42, 42
1, 85619, Note_on_c, 9, 42, 0
1, 85760, Note_on_c, 9, 42, 65
1, 85799, Note_on_c, 9, 42, 0
1, 85905, Note_on_c, 9, 42, 97
1, 85919, Note_on_c, 9, 36, 0
1, 85919, Note_on_c, 9, 42, 0
1, 85920, Note_on_c, 9, 38, 127
1, 86039, Note_on_c, 9, 38, 0
1, 86080, Note_on_c, 9, 42, 42
1, 86099, Note_on_c, 9, 42, 0
1, 86240, Note_on_c, 9, 42, 65
1, 86279, Note_on_c, 9, 42, 0
1, 86400, Note_on_c, 9, 42, 97
1, 86400, Note_on_c, 9, 36, 127
1, 86519, Note_on_c, 9, 42, 0
1, 86560, Note_on_c, 9, 47, 127
1, 86560, Note_on_c, 9, 42, 42
1, 86579, Note_on_c, 9, 47, 0
1, 86579, Note_on_c, 9, 42, 0
1, 86720, Note_on_c, 9, 47, 127
1, 86720, Note_on_c, 9, 42, 65
1, 86759, Note_on_c, 9, 47, 0
1, 86759, Note_on_c, 9, 42, 0
1, 86865, Note_on_c, 9, 42, 97
1, 86879, Note_on_c, 9, 36, 0
1, 86880, Note_on_c, 9, 38, 127
1, 86880, Note_on_c, 9, 50, 127
1, 86999, Note_on_c, 9, 42, 0
1, 86999, Note_on_c, 9, 38, 0
1, 86999, Note_on_c, 9, 50, 0
1, 87040, Note_on_c, 9, 42, 42
1, 87059, Note_on_c, 9, 42, 0
1, 87200, Note_on_c, 9, 42, 65
1, 87239, Note_on_c, 9, 42, 0
1, 87360, Note_on_c, 9, 42, 97
1, 87360, Note_on_c, 9, 36, 127
1, 87479, Note_on_c, 9, 42, 0
1, 87520, Note_on_c, 9, 47, 127
1, 87520, Note_on_c, 9, 42, 42
1, 87539, Note_on_c, 9, 47, 0
1, 87539, Note_on_c, 9, 42, 0
1, 87599, Note_on_c, 9, 36, 0
1, 87680, Note_on_c, 9, 47, 127
1, 87680, Note_on_c, 9, 42, 65
1, 87680, Note_on_c, 9, 36, 127
1, 87719, Note_on_c, 9, 47, 0
1, 87719, Note_on_c, 9, 42, 0
1, 87719, Note_on_c, 9, 36, 0
1, 87825, Note_on_c, 9, 42, 97
1, 87839, Note_on_c, 9, 42, 0
1, 87840, Note_on_c, 9, 38, 127
1, 87840, Note_on_c, 9, 43, 127
1, 87959, Note_on_c, 9, 38, 0
1, 88000, Note_on_c, 9, 42, 42
1, 88019, Note_on_c, 9, 42, 0
1, 88160, Note_on_c, 9, 42, 65
1, 88199, Note_on_c, 9, 42, 0
1, 88319, Note_on_c, 9, 43, 0
1, 88320, Note_on_c, 9, 42, 97
1, 88320, Note_on_c, 9, 49, 127
1, 88320, Note_on_c, 9, 36, 127
1, 88439, Note_on_c, 9, 42, 0
1, 88439, Note_on_c, 9, 49, 0
1, 88480, Note_on_c, 9, 42, 42
1, 88499, Note_on_c, 9, 42, 0
1, 88640, Note_on_c, 9, 42, 65
1, 88679, Note_on_c, 9, 42, 0
1, 88785, Note_on_c, 9, 42, 97
1, 88799, Note_on_c, 9, 36, 0
1, 88800, Note_on_c, 9, 38, 127
1, 88919, Note_on_c, 9, 42, 0
1, 88919, Note_on_c, 9, 38, 0
1, 88960, Note_on_c, 9, 42, 42
1, 88979, Note_on_c, 9, 42, 0
1, 89120, Note_on_c, 9, 42, 65
1, 89159, Note_on_c, 9, 42, 0
1, 89280, Note_on_c, 9, 42, 97
1, 89280, Note_on_c, 9, 36, 127
1, 89399, Note_on_c, 9, 42, 0
1, 89440, Note_on_c, 9, 42, 42
1, 89459, Note_on_c, 9, 42, 0
1, 89600, Note_on_c, 9, 42, 65
1, 89639, Note_on_c, 9, 42, 0
1, 89745, Note_on_c, 9, 42, 97
1, 89759, Note_on_c, 9, 36, 0
1, 89759, Note_on_c, 9, 42, 0
1, 89760, Note_on_c, 9, 38, 127
1, 89879, Note_on_c, 9, 38, 0
1, 89920, Note_on_c, 9, 42, 42
1, 89939, Note_on_c, 9, 42, 0
1, 90080, Note_on_c, 9, 42, 65
1, 90119, Note_on_c, 9, 42, 0
1, 90240, Note_on_c, 9, 42, 97
1, 90240, Note_on_c, 9, 36, 127
1, 90359, Note_on_c, 9, 42, 0
1, 90400, Note_on_c, 9, 42, 42
1, 90419, Note_on_c, 9, 42, 0
1, 90560, Note_on_c, 9, 42, 65
1, 90599, Note_on_c, 9, 42, 0
1, 90705, Note_on_c, 9, 42, 97
1, 90719, Note_on_c, 9, 36, 0
1, 90720, Note_on_c, 9, 38, 127
1, 90839, Note_on_c, 9, 42, 0
1, 90839, Note_on_c, 9, 38, 0
1, 90880, Note_on_c, 9, 42, 42
1, 90899, Note_on_c, 9, 42, 0
1, 91040, Note_on_c, 9, 42, 65
1, 91079, Note_on_c, 9, 42, 0
1, 91200, Note_on_c, 9, 42, 97
1, 91200, Note_on_c, 9, 36, 127
1, 91319, Note_on_c, 9, 42, 0
1, 91360, Note_on_c, 9, 42, 42
1, 91379, Note_on_c, 9, 42, 0
1, 91439, Note_on_c, 9, 36, 0
1, 91520, Note_on_c, 9, 42, 65
1, 91520, Note_on_c, 9, 36, 127
1, 91559, Note_on_c, 9, 42, 0
1, 91559, Note_on_c, 9, 36, 0
1, 91665, Note_on_c, 9, 42, 97
1, 91679, Note_on_c, 9, 42, 0
1, 91680, Note_on_c, 9, 38, 127
1, 91799, Note_on_c, 9, 38, 0
1, 91840, Note_on_c, 9, 42, 42
1, 91859, Note_on_c, 9, 42, 0
1, 92000, Note_on_c, 9, 42, 65
1, 92039, Note_on_c, 9, 42, 0
1, 92160, Note_on_c, 9, 42, 97
1, 92160, Note_on_c, 9, 36, 127
1, 92279, Note_on_c, 9, 42, 0
1, 92320, Note_on_c, 9, 39, 105
1, 92320, Note_on_c, 9, 42, 42
1, 92339, Note_on_c, 9, 39, 0
1, 92339, Note_on_c, 9, 42, 0
1, 92480, Note_on_c, 9, 39, 115
1, 92480, Note_on_c, 9, 42, 65
1, 92519, Note_on_c, 9, 39, 0
1, 92519, Note_on_c, 9, 42, 0
1, 92625, Note_on_c, 9, 42, 97
1, 92639, Note_on_c, 9, 36, 0
1, 92640, Note_on_c, 9, 38, 127
1, 92640, Note_on_c, 9, 39, 125
1, 92759, Note_on_c, 9, 42, 0
1, 92759, Note_on_c, 9, 38, 0
1, 92759, Note_on_c, 9, 39, 0
1, 92800, Note_on_c, 9, 42, 42
1, 92819, Note_on_c, 9, 42, 0
1, 92960, Note_on_c, 9, 42, 65
1, 92999, Note_on_c, 9, 42, 0
1, 93120, Note_on_c, 9, 42, 97
1, 93120, Note_on_c, 9, 36, 127
1, 93239, Note_on_c, 9, 42, 0
1, 93280, Note_on_c, 9, 42, 42
1, 93299, Note_on_c, 9, 42, 0
1, 93440, Note_on_c, 9, 42, 65
1, 93479, Note_on_c, 9, 42, 0
1, 93585, Note_on_c, 9, 42, 97
1, 93599, Note_on_c, 9, 36, 0
1, 93599, Note_on_c, 9, 42, 0
1, 93600, Note_on_c, 9, 38, 127
1, 93719, Note_on_c, 9, 38, 0
1, 93760, Note_on_c, 9, 42, 42
1, 93779, Note_on_c, 9, 42, 0
1, 93920, Note_on_c, 9, 42, 65
1, 93959, Note_on_c, 9, 42, 0
1, 94080, Note_on_c, 9, 42, 97
1, 94080, Note_on_c, 9, 36, 127
1, 94199, Note_on_c, 9, 42, 0
1, 94240, Note_on_c, 9, 42, 42
1, 94259, Note_on_c, 9, 42, 0
1, 94400, Note_on_c, 9, 42, 65
1, 94439, Note_on_c, 9, 42, 0
1, 94545, Note_on_c, 9, 42, 97
1, 94559, Note_on_c, 9, 36, 0
1, 94560, Note_on_c, 9, 38, 127
1, 94679, Note_on_c, 9, 42, 0
1, 94679, Note_on_c, 9, 38, 0
1, 94720, Note_on_c, 9, 42, 42
1, 94739, Note_on_c, 9, 42, 0
1, 94880, Note_on_c, 9, 42, 65
1, 94919, Note_on_c, 9, 42, 0
1, 95040, Note_on_c, 9, 42, 97
1, 95040, Note_on_c, 9, 36, 127
1, 95159, Note_on_c, 9, 42, 0
1, 95200, Note_on_c, 9, 42, 42
1, 95219, Note_on_c, 9, 42, 0
1, 95279, Note_on_c, 9, 36, 0
1, 95360, Note_on_c, 9, 42, 65
1, 95360, Note_on_c, 9, 36, 127
1, 95399, Note_on_c, 9, 42, 0
1, 95399, Note_on_c, 9, 36, 0
1, 95505, Note_on_c, 9, 42, 97
1, 95519, Note_on_c, 9, 42, 0
1, 95520, Note_on_c, 9, 38, 127
1, 95639, Note_on_c, 9, 38, 0
1, 95680, Note_on_c, 9, 42, 42
1, 95699, Note_on_c, 9, 42, 0
1, 95840, Note_on_c, 9, 42, 65
1, 95879, Note_on_c, 9, 42, 0
1, 96000, Note_on_c, 9, 42, 97
1, 96000, Note_on_c, 9, 36, 127
1, 96119, Note_on_c, 9, 42, 0
1, 96160, Note_on_c, 9, 47, 127
1, 96160, Note_on_c, 9, 42, 42
1, 96179, Note_on_c, 9, 47, 0
1, 96179, Note_on_c, 9, 42, 0
1, 96320, Note_on_c, 9, 47, 127
1, 96320, Note_on_c, 9, 42, 65
1, 96359, Note_on_c, 9, 47, 0
1, 96359, Note_on_c, 9, 42, 0
1, 96465, Note_on_c, 9, 42, 97
1, 96479, Note_on_c, 9, 36, 0
1, 96480, Note_on_c, 9, 50, 127
1, 96599, Note_on_c, 9, 42, 0
1, 96599, Note_on_c, 9, 50, 0
1, 96640, Note_on_c, 9, 42, 42
1, 96659, Note_on_c, 9, 42, 0
1, 96800, Note_on_c, 9, 42, 65
1, 96839, Note_on_c, 9, 42, 0
1, 96960, Note_on_c, 9, 42, 97
1, 96960, Note_on_c, 9, 36, 127
1, 97079, Note_on_c, 9, 42, 0
1, 97120, Note_on_c, 9, 47, 127
1, 97120, Note_on_c, 9, 42, 42
1, 97139, Note_on_c, 9, 47, 0
1, 97139, Note_on_c, 9, 42, 0
1, 97280, Note_on_c, 9, 47, 127
1, 97280, Note_on_c, 9, 42, 65
1, 97319, Note_on_c, 9, 47, 0
1, 97319, Note_on_c, 9, 42, 0
1, 97425, Note_on_c, 9, 42, 97
1, 97439, Note_on_c, 9, 36, 0
1, 97439, Note_on_c, 9, 42, 0
1, 97440, Note_on_c, 9, 43, 127
1, 97600, Note_on_c, 9, 42, 42
1, 97619, Note_on_c, 9, 42, 0
1, 97760, Note_on_c, 9, 42, 65
1, 97799, Note_on_c, 9, 42, 0
1, 97919, Note_on_c, 9, 43, 0
1, 97920, Note_on_c, 9, 42, 97
1, 97920, Note_on_c, 9, 36, 127
1, 98039, Note_on_c, 9, 42, 0
1, 98080, Note_on_c, 9, 42, 42
1, 98099, Note_on_c, 9, 42, 0
1, 98240, Note_on_c, 9, 42, 65
1, 98279, Note_on_c, 9, 42, 0
1, 98385, Note_on_c, 9, 42, 97
1, 98399, Note_on_c, 9, 36, 0
1, 98400, Note_on_c, 9, 38, 127
1, 98519, Note_on_c, 9, 42, 0
1, 98519, Note_on_c, 9, 38, 0
1, 98560, Note_on_c, 9, 42, 42
1, 98579, Note_on_c, 9, 42, 0
1, 98720, Note_on_c, 9, 42, 65
1, 98759, Note_on_c, 9, 42, 0
1, 98880, Note_on_c, 9, 42, 97
1, 98880, Note_on_c, 9, 36, 127
1, 98999, Note_on_c, 9, 42, 0
1, 99040, Note_on_c, 9, 42, 42
1, 99059, Note_on_c, 9, 42, 0
1, 99200, Note_on_c, 9, 42, 65
1, 99239, Note_on_c, 9, 42, 0
1, 99345, Note_on_c, 9, 42, 97
1, 99359, Note_on_c, 9, 36, 0
1, 99359, Note_on_c, 9, 42, 0
1, 99360, Note_on_c, 9, 38, 127
1, 99479, Note_on_c, 9, 38, 0
1, 99520, Note_on_c, 9, 42, 42
1, 99539, Note_on_c, 9, 42, 0
1, 99680, Note_on_c, 9, 42, 65
1, 99719, Note_on_c, 9, 42, 0
1, 99840, Note_on_c, 9, 42, 97
1, 99840, Note_on_c, 9, 36, 127
1, 99959, Note_on_c, 9, 42, 0
1, 100000, Note_on_c, 9, 42, 42
1, 100019, Note_on_c, 9, 42, 0
1, 100160, Note_on_c, 9, 42, 65
1, 100199, Note_on_c, 9, 42, 0
1, 100305, Note_on_c, 9, 42, 97
1, 100319, Note_on_c, 9, 36, 0
1, 100320, Note_on_c, 9, 38, 127
1, 100439, Note_on_c, 9, 42, 0
1, 100439, Note_on_c, 9, 38, 0
1, 100480, Note_on_c, 9, 42, 42
1, 100499, Note_on_c, 9, 42, 0
1, 100640, Note_on_c, 9, 42, 65
1, 100679, Note_on_c, 9, 42, 0
1, 100800, Note_on_c, 9, 42, 97
1, 100800, Note_on_c, 9, 36, 127
1, 100919, Note_on_c, 9, 42, 0
1, 100960, Note_on_c, 9, 42, 42
1, 100979, Note_on_c, 9, 42, 0
1, 101039, Note_on_c, 9, 36, 0
1, 101120, Note_on_c, 9, 42, 65
1, 101120, Note_on_c, 9, 36, 127
1, 101159, Note_on_c, 9, 42, 0
1, 101159, Note_on_c, 9, 36, 0
1, 101265, Note_on_c, 9, 42, 97
1, 101279, Note_on_c, 9, 42, 0
1, 101280, Note_on_c, 9, 38, 127
1, 101399, Note_on_c, 9, 38, 0
1, 101440, Note_on_c, 9, 42, 42
1, 101459, Note_on_c, 9, 42, 0
1, 101600, Note_on_c, 9, 42, 65
1, 101639, Note_on_c, 9, 42, 0
1, 101760, Note_on_c, 9, 42, 97
1, 101760, Note_on_c, 9, 36, 127
1, 101879, Note_on_c, 9, 42, 0
1, 101920, Note_on_c, 9, 42, 42
1, 101939, Note_on_c, 9, 42, 0
1, 102080, Note_on_c, 9, 42, 65
1, 102119, Note_on_c, 9, 42, 0
1, 102225, Note_on_c, 9, 42, 97
1, 102239, Note_on_c, 9, 36, 0
1, 102240, Note_on_c, 9, 38, 127
1, 102359, Note_on_c, 9, 42, 0
1, 102359, Note_on_c, 9, 38, 0
1, 102400, Note_on_c, 9, 42, 42
1, 102419, Note_on_c, 9, 42, 0
1, 102560, Note_on_c, 9, 42, 65
1, 102599, Note_on_c, 9, 42, 0
1, 102720, Note_on_c, 9, 42, 97
1, 102720, Note_on_c, 9, 36, 127
1, 102839, Note_on_c, 9, 42, 0
1, 102880, Note_on_c, 9, 42, 42
1, 102899, Note_on_c, 9, 42, 0
1, 103040, Note_on_c, 9, 42, 65
1, 103079, Note_on_c, 9, 42, 0
1, 103185, Note_on_c, 9, 42, 97
1, 103199, Note_on_c, 9, 36, 0
1, 103199, Note_on_c, 9, 42, 0
1, 103200, Note_on_c, 9, 38, 127
1, 103319, Note_on_c, 9, 38, 0
1, 103360, Note_on_c, 9, 42, 42
1, 103379, Note_on_c, 9, 42, 0
1, 103520, Note_on_c, 9, 42, 65
1, 103559, Note_on_c, 9, 42, 0
1, 103680, Note_on_c, 9, 42, 97
1, 103680, Note_on_c, 9, 36, 127
1, 103799, Note_on_c, 9, 42, 0
1, 103840, Note_on_c, 9, 42, 42
1, 103859, Note_on_c, 9, 42, 0
1, 104000, Note_on_c, 9, 42, 65
1, 104039, Note_on_c, 9, 42, 0
1, 104145, Note_on_c, 9, 42, 97
1, 104159, Note_on_c, 9, 36, 0
1, 104160, Note_on_c, 9, 38, 127
1, 104279, Note_on_c, 9, 42, 0
1, 104279, Note_on_c, 9, 38, 0
1, 104320, Note_on_c, 9, 42, 42
1, 104339, Note_on_c, 9, 42, 0
1, 104480, Note_on_c, 9, 42, 65
1, 104519, Note_on_c, 9, 42, 0
1, 104640, Note_on_c, 9, 42, 97
1, 104640, Note_on_c, 9, 36, 127
1, 104759, Note_on_c, 9, 42, 0
1, 104800, Note_on_c, 9, 42, 42
1, 104819, Note_on_c, 9, 42, 0
1, 104879, Note_on_c, 9, 36, 0
1, 104960, Note_on_c, 9, 42, 65
1, 104960, Note_on_c, 9, 36, 127
1, 104999, Note_on_c, 9, 42, 0
1, 104999, Note_on_c, 9, 36, 0
1, 105105, Note_on_c, 9, 42, 97
1, 105119, Note_on_c, 9, 42, 0
1, 105120, Note_on_c, 9, 38, 127
1, 105239, Note_on_c, 9, 38, 0
1, 105280, Note_on_c, 9, 42, 42
1, 105299, Note_on_c, 9, 42, 0
1, 105440, Note_on_c, 9, 42, 65
1, 105479, Note_on_c, 9, 42, 0
1, 105600, Note_on_c, 9, 42, 97
1, 105600, Note_on_c, 9, 36, 127
1, 105719, Note_on_c, 9, 42, 0
1, 105760, Note_on_c, 9, 42, 42
1, 105779, Note_on_c, 9, 42, 0
1, 105920, Note_on_c, 9, 42, 65
1, 105959, Note_on_c, 9, 42, 0
1, 106065, Note_on_c, 9, 42, 97
1, 106079, Note_on_c, 9, 36, 0
1, 106080, Note_on_c, 9, 38, 127
1, 106199, Note_on_c, 9, 42, 0
1, 106199, Note_on_c, 9, 38, 0
1, 106240, Note_on_c, 9, 42, 42
1, 106259, Note_on_c, 9, 42, 0
1, 106400, Note_on_c, 9, 42, 65
1, 106439, Note_on_c, 9, 42, 0
1, 106560, Note_on_c, 9, 42, 97
1, 106560, Note_on_c, 9, 36, 127
1, 106679, Note_on_c, 9, 42, 0
1, 106720, Note_on_c, 9, 42, 42
1, 106739, Note_on_c, 9, 42, 0
1, 106880, Note_on_c, 9, 42, 65
1, 106919, Note_on_c, 9, 42, 0
1, 107025, Note_on_c, 9, 42, 97
1, 107039, Note_on_c, 9, 36, 0
1, 107039, Note_on_c, 9, 42, 0
1, 107040, Note_on_c, 9, 38, 127
1, 107159, Note_on_c, 9, 38, 0
1, 107200, Note_on_c, 9, 42, 42
1, 107219, Note_on_c, 9, 42, 0
1, 107360, Note_on_c, 9, 42, 65
1, 107399, Note_on_c, 9, 42, 0
1, 107520, Note_on_c, 9, 42, 97
1, 107520, Note_on_c, 9, 36, 127
1, 107639, Note_on_c, 9, 42, 0
1, 107680, Note_on_c, 9, 42, 42
1, 107699, Note_on_c, 9, 42, 0
1, 107840, Note_on_c, 9, 42, 65
1, 107879, Note_on_c, 9, 42, 0
1, 107985, Note_on_c, 9, 42, 97
1, 107999, Note_on_c, 9, 36, 0
1, 108000, Note_on_c, 9, 38, 127
1, 108119, Note_on_c, 9, 42, 0
1, 108119, Note_on_c, 9, 38, 0
1, 108160, Note_on_c, 9, 42, 42
1, 108179, Note_on_c, 9, 42, 0
1, 108320, Note_on_c, 9, 42, 65
1, 108359, Note_on_c, 9, 42, 0
1, 108480, Note_on_c, 9, 42, 97
1, 108480, Note_on_c, 9, 36, 127
1, 108599, Note_on_c, 9, 42, 0
1, 108640, Note_on_c, 9, 42, 42
1, 108659, Note_on_c, 9, 42, 0
1, 108719, Note_on_c, 9, 36, 0
1, 108800, Note_on_c, 9, 42, 65
1, 108800, Note_on_c, 9, 36, 127
1, 108839, Note_on_c, 9, 42, 0
1, 108839, Note_on_c, 9, 36, 0
1, 108945, Note_on_c, 9, 42, 97
1, 108959, Note_on_c, 9, 42, 0
1, 108960, Note_on_c, 9, 38, 127
1, 109079, Note_on_c, 9, 38, 0
1, 109120, Note_on_c, 9, 42, 42
1, 109139, Note_on_c, 9, 42, 0
1, 109280, Note_on_c, 9, 42, 65
1, 109319, Note_on_c, 9, 42, 0
1, 109440, Note_on_c, 9, 42, 97
1, 109440, Note_on_c, 9, 36, 127
1, 109559, Note_on_c, 9, 42, 0
1, 109600, Note_on_c, 9, 42, 42
1, 109619, Note_on_c, 9, 42, 0
1, 109760, Note_on_c, 9, 42, 65
1, 109799, Note_on_c, 9, 42, 0
1, 109905, Note_on_c, 9, 42, 97
1, 109919, Note_on_c, 9, 36, 0
1, 109920, Note_on_c, 9, 38, 127
1, 110039, Note_on_c, 9, 42, 0
1, 110039, Note_on_c, 9, 38, 0
1, 110080, Note_on_c, 9, 42, 42
1, 110099, Note_on_c, 9, 42, 0
1, 110240, Note_on_c, 9, 42, 65
1, 110279, Note_on_c, 9, 42, 0
1, 110400, Note_on_c, 9, 42, 97
1, 110400, Note_on_c, 9, 36, 127
1, 110519, Note_on_c, 9, 42, 0
1, 110560, Note_on_c, 9, 42, 42
1, 110579, Note_on_c, 9, 42, 0
1, 110720, Note_on_c, 9, 42, 65
1, 110759, Note_on_c, 9, 42, 0
1, 110865, Note_on_c, 9, 42, 97
1, 110879, Note_on_c, 9, 36, 0
1, 110879, Note_on_c, 9, 42, 0
1, 110880, Note_on_c, 9, 38, 127
1, 110999, Note_on_c, 9, 38, 0
1, 111040, Note_on_c, 9, 42, 42
1, 111059, Note_on_c, 9, 42, 0
1, 111200, Note_on_c, 9, 42, 65
1, 111239, Note_on_c, 9, 42, 0
1, 111360, Note_on_c, 9, 42, 97
1, 111360, Note_on_c, 9, 36, 127
1, 111479, Note_on_c, 9, 42, 0
1, 111520, Note_on_c, 9, 42, 42
1, 111539, Note_on_c, 9, 42, 0
1, 111680, Note_on_c, 9, 42, 65
1, 111719, Note_on_c, 9, 42, 0
1, 111825, Note_on_c, 9, 42, 97
1, 111839, Note_on_c, 9, 36, 0
1, 111840, Note_on_c, 9, 38, 127
1, 111959, Note_on_c, 9, 42, 0
1, 111959, Note_on_c, 9, 38, 0
1, 112000, Note_on_c, 9, 42, 42
1, 112019, Note_on_c, 9, 42, 0
1, 112160, Note_on_c, 9, 42, 65
1, 112199, Note_on_c, 9, 42, 0
1, 112320, Note_on_c, 9, 42, 97
1, 112320, Note_on_c, 9, 36, 127
1, 112439, Note_on_c, 9, 42, 0
1, 112480, Note_on_c, 9, 42, 42
1, 112499, Note_on_c, 9, 42, 0
1, 112559, Note_on_c, 9, 36, 0
1, 112640, Note_on_c, 9, 42, 65
1, 112640, Note_on_c, 9, 36, 127
1, 112679, Note_on_c, 9, 42, 0
1, 112679, Note_on_c, 9, 36, 0
1, 112785, Note_on_c, 9, 42, 97
1, 112799, Note_on_c, 9, 42, 0
1, 112800, Note_on_c, 9, 38, 127
1, 112919, Note_on_c, 9, 38, 0
1, 112960, Note_on_c, 9, 42, 42
1, 112979, Note_on_c, 9, 42, 0
1, 113120, Note_on_c, 9, 42, 65
1, 113159, Note_on_c, 9, 42, 0
1, 113280, Note_on_c, 9, 42, 97
1, 113280, Note_on_c, 9, 36, 127
1, 113399, Note_on_c, 9, 42, 0
1, 113440, Note_on_c, 9, 42, 42
1, 113459, Note_on_c, 9, 42, 0
1, 113600, Note_on_c, 9, 42, 65
1, 113639, Note_on_c, 9, 42, 0
1, 113745, Note_on_c, 9, 42, 97
1, 113759, Note_on_c, 9, 36, 0
1, 113760, Note_on_c, 9, 38, 127
1, 113879, Note_on_c, 9, 42, 0
1, 113879, Note_on_c, 9, 38, 0
1, 113920, Note_on_c, 9, 42, 42
1, 113939, Note_on_c, 9, 42, 0
1, 114080, Note_on_c, 9, 42, 65
1, 114119, Note_on_c, 9, 42, 0
1, 114240, Note_on_c, 9, 42, 97
1, 114240, Note_on_c, 9, 36, 127
1, 114359, Note_on_c, 9, 42, 0
1, 114400, Note_on_c, 9, 42, 42
1, 114419, Note_on_c, 9, 42, 0
1, 114560, Note_on_c, 9, 42, 65
1, 114599, Note_on_c, 9, 42, 0
1, 114705, Note_on_c, 9, 42, 97
1, 114719, Note_on_c, 9, 36, 0
1, 114719, Note_on_c, 9, 42, 0
1, 114720, Note_on_c, 9, 38, 127
1, 114839, Note_on_c, 9, 38, 0
1, 114880, Note_on_c, 9, 42, 42
1, 114899, Note_on_c, 9, 42, 0
1, 115040, Note_on_c, 9, 42, 65
1, 115079, Note_on_c, 9, 42, 0
1, 115200, Note_on_c, 9, 42, 97
1, 115200, Note_on_c, 9, 36, 127
1, 115319, Note_on_c, 9, 42, 0
1, 115360, Note_on_c, 9, 42, 42
1, 115379, Note_on_c, 9, 42, 0
1, 115520, Note_on_c, 9, 42, 65
1, 115559, Note_on_c, 9, 42, 0
1, 115665, Note_on_c, 9, 42, 97
1, 115679, Note_on_c, 9, 36, 0
1, 115680, Note_on_c, 9, 38, 127
1, 115799, Note_on_c, 9, 42, 0
1, 115799, Note_on_c, 9, 38, 0
1, 115840, Note_on_c, 9, 42, 42
1, 115859, Note_on_c, 9, 42, 0
1, 116000, Note_on_c, 9, 42, 65
1, 116039, Note_on_c, 9, 42, 0
1, 116160, Note_on_c, 9, 42, 97
1, 116160, Note_on_c, 9, 36, 127
1, 116279, Note_on_c, 9, 42, 0
1, 116320, Note_on_c, 9, 42, 42
1, 116339, Note_on_c, 9, 42, 0
1, 116399, Note_on_c, 9, 36, 0
1, 116480, Note_on_c, 9, 42, 65
1, 116480, Note_on_c, 9, 36, 127
1, 116519, Note_on_c, 9, 42, 0
1, 116519, Note_on_c, 9, 36, 0
1, 116625, Note_on_c, 9, 42, 97
1, 116639, Note_on_c, 9, 42, 0
1, 116640, Note_on_c, 9, 38, 127
1, 116759, Note_on_c, 9, 38, 0
1, 116800, Note_on_c, 9, 42, 42
1, 116819, Note_on_c, 9, 42, 0
1, 116960, Note_on_c, 9, 42, 65
1, 116999, Note_on_c, 9, 42, 0
1, 117120, Note_on_c, 9, 42, 97
1, 117120, Note_on_c, 9, 36, 127
1, 117239, Note_on_c, 9, 42, 0
1, 117280, Note_on_c, 9, 42, 42
1, 117299, Note_on_c, 9, 42, 0
1, 117440, Note_on_c, 9, 42, 65
1, 117479, Note_on_c, 9, 42, 0
1, 117585, Note_on_c, 9, 42, 97
1, 117599, Note_on_c, 9, 36, 0
1, 117600, Note_on_c, 9, 38, 127
1, 117719, Note_on_c, 9, 42, 0
1, 117719, Note_on_c, 9, 38, 0
1, 117760, Note_on_c, 9, 42, 42
1, 117779, Note_on_c, 9, 42, 0
1, 117920, Note_on_c, 9, 42, 65
1, 117959, Note_on_c, 9, 42, 0
1, 118080, Note_on_c, 9, 42, 97
1, 118080, Note_on_c, 9, 36, 127
1, 118199, Note_on_c, 9, 42, 0
1, 118240, Note_on_c, 9, 42, 42
1, 118259, Note_on_c, 9, 42, 0
1, 118400, Note_on_c, 9, 42, 65
1, 118439, Note_on_c, 9, 42, 0
1, 118545, Note_on_c, 9, 42, 97
1, 118559, Note_on_c, 9, 36, 0
1, 118559, Note_on_c, 9, 42, 0
1, 118560, Note_on_c, 9, 38, 127
1, 118679, Note_on_c, 9, 38, 0
1, 118720, Note_on_c, 9, 42, 42
1, 118739, Note_on_c, 9, 42, 0
1, 118880, Note_on_c, 9, 42, 65
1, 118919, Note_on_c, 9, 42, 0
1, 119040, Note_on_c, 9, 42, 97
1, 119040, Note_on_c, 9, 36, 127
1, 119159, Note_on_c, 9, 42, 0
1, 119200, Note_on_c, 9, 42, 42
1, 119219, Note_on_c, 9, 42, 0
1, 119360, Note_on_c, 9, 42, 65
1, 119399, Note_on_c, 9, 42, 0
1, 119505, Note_on_c, 9, 42, 97
1, 119519, Note_on_c, 9, 36, 0
1, 119520, Note_on_c, 9, 38, 127
1, 119639, Note_on_c, 9, 42, 0
1, 119639, Note_on_c, 9, 38, 0
1, 119680, Note_on_c, 9, 42, 42
1, 119699, Note_on_c, 9, 42, 0
1, 119840, Note_on_c, 9, 42, 65
1, 119879, Note_on_c, 9, 42, 0
1, 120000, Note_on_c, 9, 42, 97
1, 120000, Note_on_c, 9, 36, 127
1, 120119, Note_on_c, 9, 42, 0
1, 120160, Note_on_c, 9, 42, 42
1, 120179, Note_on_c, 9, 42, 0
1, 120239, Note_on_c, 9, 36, 0
1, 120320, Note_on_c, 9, 42, 65
1, 120320, Note_on_c, 9, 36, 127
1, 120359, Note_on_c, 9, 42, 0
1, 120359, Note_on_c, 9, 36, 0
1, 120465, Note_on_c, 9, 42, 97
1, 120479, Note_on_c, 9, 42, 0
1, 120480, Note_on_c, 9, 38, 127
1, 120599, Note_on_c, 9, 38, 0
1, 120640, Note_on_c, 9, 42, 42
1, 120659, Note_on_c, 9, 42, 0
1, 120800, Note_on_c, 9, 42, 65
1, 120839, Note_on_c, 9, 42, 0
1, 120960, Note_on_c, 9, 42, 97
1, 120960, Note_on_c, 9, 36, 127
1, 121079, Note_on_c, 9, 42, 0
1, 121120, Note_on_c, 9, 42, 42
1, 121139, Note_on_c, 9, 42, 0
1, 121280, Note_on_c, 9, 42, 65
1, 121319, Note_on_c, 9, 42, 0
1, 121425, Note_on_c, 9, 42, 97
1, 121439, Note_on_c, 9, 36, 0
1, 121440, Note_on_c, 9, 38, 127
1, 121559, Note_on_c, 9, 42, 0
1, 121559, Note_on_c, 9, 38, 0
1, 121600, Note_on_c, 9, 42, 42
1, 121619, Note_on_c, 9, 42, 0
1, 121760, Note_on_c, 9, 42, 65
1, 121799, Note_on_c, 9, 42, 0
1, 121920, Note_on_c, 9, 42, 97
1, 121920, Note_on_c, 9, 36, 127
1, 122039, Note_on_c, 9, 42, 0
1, 122080, Note_on_c, 9, 42, 42
1, 122099, Note_on_c, 9, 42, 0
1, 122240, Note_on_c, 9, 42, 65
1, 122279, Note_on_c, 9, 42, 0
1, 122385, Note_on_c, 9, 42, 97
1, 122399, Note_on_c, 9, 36, 0
1, 122399, Note_on_c, 9, 42, 0
1, 122400, Note_on_c, 9, 38, 127
1, 122519, Note_on_c, 9, 38, 0
1, 122560, Note_on_c, 9, 42, 42
1, 122579, Note_on_c, 9, 42, 0
1, 122720, Note_on_c, 9, 42, 65
1, 122759, Note_on_c, 9, 42, 0
1, 122880, Note_on_c, 9, 42, 97
1, 122880, Note_on_c, 9, 36, 127
1, 122999, Note_on_c, 9, 42, 0
1, 123040, Note_on_c, 9, 42, 42
1, 123059, Note_on_c, 9, 42, 0
1, 123200, Note_on_c, 9, 42, 65
1, 123239, Note_on_c, 9, 42, 0
1, 123345, Note_on_c, 9, 42, 97
1, 123359, Note_on_c, 9, 36, 0
1, 123360, Note_on_c, 9, 38, 127
1, 123479, Note_on_c, 9, 42, 0
1, 123479, Note_on_c, 9, 38, 0
1, 123520, Note_on_c, 9, 42, 42
1, 123539, Note_on_c, 9, 42, 0
1, 123680, Note_on_c, 9, 42, 65
1, 123719, Note_on_c, 9, 42, 0
1, 123840, Note_on_c, 9, 42, 97
1, 123840, Note_on_c, 9, 36, 127
1, 123959, Note_on_c, 9, 42, 0
1, 124000, Note_on_c, 9, 42, 42
1, 124019, Note_on_c, 9, 42, 0
1, 124079, Note_on_c, 9, 36, 0
1, 124160, Note_on_c, 9, 42, 65
1, 124160, Note_on_c, 9, 36, 127
1, 124199, Note_on_c, 9, 42, 0
1, 124199, Note_on_c, 9, 36, 0
1, 124305, Note_on_c, 9, 42, 97
1, 124319, Note_on_c, 9, 42, 0
1, 124320, Note_on_c, 9, 38, 127
1, 124439, Note_on_c, 9, 38, 0
1, 124480, Note_on_c, 9, 42, 42
1, 124499, Note_on_c, 9, 42, 0
1, 124640, Note_on_c, 9, 42, 65
1, 124679, Note_on_c, 9, 42, 0
1, 124800, Note_on_c, 9, 42, 97
1, 124800, Note_on_c, 9, 36, 127
1, 124919, Note_on_c, 9, 42, 0
1, 124960, Note_on_c, 9, 42, 42
1, 124979, Note_on_c, 9, 42, 0
1, 125120, Note_on_c, 9, 42, 65
1, 125159, Note_on_c, 9, 42, 0
1, 125265, Note_on_c, 9, 42, 97
1, 125279, Note_on_c, 9, 36, 0
1, 125280, Note_on_c, 9, 38, 127
1, 125399, Note_on_c, 9, 42, 0
1, 125399, Note_on_c, 9, 38, 0
1, 125440, Note_on_c, 9, 42, 42
1, 125459, Note_on_c, 9, 42, 0
1, 125600, Note_on_c, 9, 42, 65
1, 125639, Note_on_c, 9, 42, 0
1, 125760, Note_on_c, 9, 42, 97
1, 125760, Note_on_c, 9, 36, 127
1, 125879, Note_on_c, 9, 42, 0
1, 125920, Note_on_c, 9, 42, 42
1, 125939, Note_on_c, 9, 42, 0
1, 126080, Note_on_c, 9, 42, 65
1, 126119, Note_on_c, 9, 42, 0
1, 126225, Note_on_c, 9, 42, 97
1, 126239, Note_on_c, 9, 36, 0
1, 126239, Note_on_c, 9, 42, 0
1, 126240, Note_on_c, 9, 38, 127
1, 126359, Note_on_c, 9, 38, 0
1, 126400, Note_on_c, 9, 42, 42
1, 126419, Note_on_c, 9, 42, 0
1, 126560, Note_on_c, 9, 42, 65
1, 126599, Note_on_c, 9, 42, 0
1, 126720, Note_on_c, 9, 42, 97
1, 126720, Note_on_c, 9, 36, 127
1, 126839, Note_on_c, 9, 42, 0
1, 126880, Note_on_c, 9, 42, 42
1, 126899, Note_on_c, 9, 42, 0
1, 127040, Note_on_c, 9, 42, 65
1, 127079, Note_on_c, 9, 42, 0
1, 127185, Note_on_c, 9, 42, 97
1, 127199, Note_on_c, 9, 36, 0
1, 127200, Note_on_c, 9, 38, 127
1, 127319, Note_on_c, 9, 42, 0
1, 127319, Note_on_c, 9, 38, 0
1, 127360, Note_on_c, 9, 42, 42
1, 127379, Note_on_c, 9, 42, 0
1, 127520, Note_on_c, 9, 38, 127
1, 127520, Note_on_c, 9, 42, 65
1, 127559, Note_on_c, 9, 38, 0
1, 127559, Note_on_c, 9, 42, 0
1, 127680, Note_on_c, 9, 42, 97
1, 127680, Note_on_c, 9, 36, 127
1, 127799, Note_on_c, 9, 42, 0
1, 127840, Note_on_c, 9, 42, 42
1, 127859, Note_on_c, 9, 42, 0
1, 127919, Note_on_c, 9, 36, 0
1, 128000, Note_on_c, 9, 42, 65
1, 128000, Note_on_c, 9, 36, 127
1, 128039, Note_on_c, 9, 42, 0
1, 128039, Note_on_c, 9, 36, 0
1, 128145, Note_on_c, 9, 42, 97
1, 128159, Note_on_c, 9, 42, 0
1, 128160, Note_on_c, 9, 38, 127
1, 128160, Note_on_c, 9, 50, 127
1, 128279, Note_on_c, 9, 38, 0
1, 128279, Note_on_c, 9, 50, 0
1, 128320, Note_on_c, 9, 47, 127
1, 128320, Note_on_c, 9, 42, 42
1, 128339, Note_on_c, 9, 47, 0
1, 128339, Note_on_c, 9, 42, 0
1, 128480, Note_on_c, 9, 42, 65
1, 128480, Note_on_c, 9, 43, 127
1, 128519, Note_on_c, 9, 42, 0
1, 128519, Note_on_c, 9, 43, 0
1, 128640, Note_on_c, 9, 42, 97
1, 128640, Note_on_c, 9, 36, 127
1, 128759, Note_on_c, 9, 42, 0
1, 128800, Note_on_c, 9, 42, 42
1, 128819, Note_on_c, 9, 42, 0
1, 128960, Note_on_c, 9, 42, 65
1, 128999, Note_on_c, 9, 42, 0
1, 129105, Note_on_c, 9, 42, 97
1, 129119, Note_on_c, 9, 36, 0
1, 129120, Note_on_c, 9, 38, 127
1, 129239, Note_on_c, 9, 42, 0
1, 129239, Note_on_c, 9, 38, 0
1, 129280, Note_on_c, 9, 42, 42
1, 129299, Note_on_c, 9, 42, 0
1, 129440, Note_on_c, 9, 42, 65
1, 129479, Note_on_c, 9, 42, 0
1, 129600, Note_on_c, 9, 42, 97
1, 129600, Note_on_c, 9, 36, 127
1, 129719, Note_on_c, 9, 42, 0
1, 129760, Note_on_c, 9, 42, 42
1, 129779, Note_on_c, 9, 42, 0
1, 129920, Note_on_c, 9, 42, 65
1, 129959, Note_on_c, 9, 42, 0
1, 130065, Note_on_c, 9, 42, 97
1, 130079, Note_on_c, 9, 36, 0
1, 130079, Note_on_c, 9, 42, 0
1, 130080, Note_on_c, 9, 38, 127
1, 130199, Note_on_c, 9, 38, 0
1, 130240, Note_on_c, 9, 42, 42
1, 130259, Note_on_c, 9, 42, 0
1, 130400, Note_on_c, 9, 42, 65
1, 130439, Note_on_c, 9, 42, 0
1, 130560, Note_on_c, 9, 42, 97
1, 130560, Note_on_c, 9, 36, 127
1, 130679, Note_on_c, 9, 42, 0
1, 130720, Note_on_c, 9, 42, 42
1, 130739, Note_on_c, 9, 42, 0
1, 130880, Note_on_c, 9, 42, 65
1, 130919, Note_on_c, 9, 42, 0
1, 131025, Note_on_c, 9, 42, 97
1, 131039, Note_on_c, 9, 36, 0
1, 131040, Note_on_c, 9, 38, 127
1, 131159, Note_on_c, 9, 42, 0
1, 131159, Note_on_c, 9, 38, 0
1, 131200, Note_on_c, 9, 42, 42
1, 131219, Note_on_c, 9, 42, 0
1, 131360, Note_on_c, 9, 42, 65
1, 131399, Note_on_c, 9, 42, 0
1, 131520, Note_on_c, 9, 42, 97
1, 131520, Note_on_c, 9, 36, 127
1, 131639, Note_on_c, 9, 42, 0
1, 131680, Note_on_c, 9, 42, 42
1, 131699, Note_on_c, 9, 42, 0
1, 131759, Note_on_c, 9, 36, 0
1, 131840, Note_on_c, 9, 42, 65
1, 131840, Note_on_c, 9, 36, 127
1, 131879, Note_on_c, 9, 42, 0
1, 131879, Note_on_c, 9, 36, 0
1, 131985, Note_on_c, 9, 42, 97
1, 131999, Note_on_c, 9, 42, 0
1, 132000, Note_on_c, 9, 38, 127
1, 132119, Note_on_c, 9, 38, 0
1, 132160, Note_on_c, 9, 42, 42
1, 132179, Note_on_c, 9, 42, 0
1, 132320, Note_on_c, 9, 42, 65
1, 132359, Note_on_c, 9, 42, 0
1, 132480, Note_on_c, 9, 42, 97
1, 132480, Note_on_c, 9, 36, 127
1, 132599, Note_on_c, 9, 42, 0
1, 132640, Note_on_c, 9, 42, 42
1, 132659, Note_on_c, 9, 42, 0
1, 132800, Note_on_c, 9, 42, 65
1, 132839, Note_on_c, 9, 42, 0
1, 132945, Note_on_c, 9, 42, 97
1, 132959, Note_on_c, 9, 36, 0
1, 132960, Note_on_c, 9, 38, 127
1, 133079, Note_on_c, 9, 42, 0
1, 133079, Note_on_c, 9, 38, 0
1, 133120, Note_on_c, 9, 42, 42
1, 133139, Note_on_c, 9, 42, 0
1, 133280, Note_on_c, 9, 42, 65
1, 133319, Note_on_c, 9, 42, 0
1, 133440, Note_on_c, 9, 42, 97
1, 133440, Note_on_c, 9, 36, 127
1, 133559, Note_on_c, 9, 42, 0
1, 133600, Note_on_c, 9, 42, 42
1, 133619, Note_on_c, 9, 42, 0
1, 133760, Note_on_c, 9, 42, 65
1, 133799, Note_on_c, 9, 42, 0
1, 133905, Note_on_c, 9, 42, 97
1, 133919, Note_on_c, 9, 36, 0
1, 133919, Note_on_c, 9, 42, 0
1, 133920, Note_on_c, 9, 38, 127
1, 134039, Note_on_c, 9, 38, 0
1, 134080, Note_on_c, 9, 42, 42
1, 134099, Note_on_c, 9, 42, 0
1, 134240, Note_on_c, 9, 42, 65
1, 134279, Note_on_c, 9, 42, 0
1, 134400, Note_on_c, 9, 42, 97
1, 134400, Note_on_c, 9, 36, 127
1, 134519, Note_on_c, 9, 42, 0
1, 134560, Note_on_c, 9, 42, 42
1, 134579, Note_on_c, 9, 42, 0
1, 134720, Note_on_c, 9, 42, 65
1, 134759, Note_on_c, 9, 42, 0
1, 134865, Note_on_c, 9, 42, 97
1, 134879, Note_on_c, 9, 36, 0
1, 134880, Note_on_c, 9, 38, 127
1, 134999, Note_on_c, 9, 42, 0
1, 134999, Note_on_c, 9, 38, 0
1, 135040, Note_on_c, 9, 42, 42
1, 135059, Note_on_c, 9, 42, 0
1, 135200, Note_on_c, 9, 42, 65
1, 135239, Note_on_c, 9, 42, 0
1, 135360, Note_on_c, 9, 42, 97
1, 135360, Note_on_c, 9, 36, 127
1, 135479, Note_on_c, 9, 42, 0
1, 135520, Note_on_c, 9, 42, 42
1, 135539, Note_on_c, 9, 42, 0
1, 135599, Note_on_c, 9, 36, 0
1, 135680, Note_on_c, 9, 42, 65
1, 135680, Note_on_c, 9, 36, 127
1, 135719, Note_on_c, 9, 42, 0
1, 135719, Note_on_c, 9, 36, 0
1, 135825, Note_on_c, 9, 42, 97
1, 135839, Note_on_c, 9, 42, 0
1, 135840, Note_on_c, 9, 38, 127
1, 135959, Note_on_c, 9, 38, 0
1, 136000, Note_on_c, 9, 42, 42
1, 136019, Note_on_c, 9, 42, 0
1, 136160, Note_on_c, 9, 42, 65
1, 136199, Note_on_c, 9, 42, 0
1, 136320, Note_on_c, 9, 42, 97
1, 136320, Note_on_c, 9, 49, 127
1, 136320, Note_on_c, 9, 36, 127
1, 136439, Note_on_c, 9, 42, 0
1, 136439, Note_on_c, 9, 49, 0
1, 136480, Note_on_c, 9, 42, 42
1, 136499, Note_on_c, 9, 42, 0
1, 136640, Note_on_c, 9, 42, 65
1, 136679, Note_on_c, 9, 42, 0
1, 136785, Note_on_c, 9, 42, 97
1, 136799, Note_on_c, 9, 36, 0
1, 136800, Note_on_c, 9, 38, 127
1, 136919, Note_on_c, 9, 42, 0
1, 136919, Note_on_c, 9, 38, 0
1, 136960, Note_on_c, 9, 42, 42
1, 136979, Note_on_c, 9, 42, 0
1, 137120, Note_on_c, 9, 42, 65
1, 137159, Note_on_c, 9, 42, 0
1, 137280, Note_on_c, 9, 42, 97
1, 137280, Note_on_c, 9, 36, 127
1, 137399, Note_on_c, 9, 42, 0
1, 137440, Note_on_c, 9, 42, 42
1, 137459, Note_on_c, 9, 42, 0
1, 137600, Note_on_c, 9, 42, 65
1, 137639, Note_on_c, 9, 42, 0
1, 137745, Note_on_c, 9, 42, 97
1, 137759, Note_on_c, 9, 36, 0
1, 137759, Note_on_c, 9, 42, 0
1, 137760, Note_on_c, 9, 38, 127
1, 137879, Note_on_c, 9, 38, 0
1, 137920, Note_on_c, 9, 42, 42
1, 137939, Note_on_c, 9, 42, 0
1, 138080, Note_on_c, 9, 42, 65
1, 138119, Note_on_c, 9, 42, 0
1, 138240, Note_on_c, 9, 42, 97
1, 138240, Note_on_c, 9, 36, 127
1, 138359, Note_on_c, 9, 42, 0
1, 138400, Note_on_c, 9, 42, 42
1, 138419, Note_on_c, 9, 42, 0
1, 138560, Note_on_c, 9, 42, 65
1, 138599, Note_on_c, 9, 42, 0
1, 138705, Note_on_c, 9, 42, 97
1, 138719, Note_on_c, 9, 36, 0
1, 138720, Note_on_c, 9, 38, 127
1, 138839, Note_on_c, 9, 42, 0
1, 138839, Note_on_c, 9, 38, 0
1, 138880, Note_on_c, 9, 42, 42
1, 138899, Note_on_c, 9, 42, 0
1, 139040, Note_on_c, 9, 42, 65
1, 139079, Note_on_c, 9, 42, 0
1, 139200, Note_on_c, 9, 42, 97
1, 139200, Note_on_c, 9, 36, 127
1, 139319, Note_on_c, 9, 42, 0
1, 139360, Note_on_c, 9, 42, 42
1, 139379, Note_on_c, 9, 42, 0
1, 139439, Note_on_c, 9, 36, 0
1, 139520, Note_on_c, 9, 42, 65
1, 139520, Note_on_c, 9, 36, 127
1, 139559, Note_on_c, 9, 42, 0
1, 139559, Note_on_c, 9, 36, 0
1, 139665, Note_on_c, 9, 42, 97
1, 139679, Note_on_c, 9, 42, 0
1, 139680, Note_on_c, 9, 38, 127
1, 139799, Note_on_c, 9, 38, 0
1, 139840, Note_on_c, 9, 42, 42
1, 139859, Note_on_c, 9, 42, 0
1, 140000, Note_on_c, 9, 42, 65
1, 140039, Note_on_c, 9, 42, 0
1, 140160, Note_on_c, 9, 42, 97
1, 140160, Note_on_c, 9, 36, 127
1, 140279, Note_on_c, 9, 42, 0
1, 140320, Note_on_c, 9, 39, 105
1, 140320, Note_on_c, 9, 42, 42
1, 140339, Note_on_c, 9, 39, 0
1, 140339, Note_on_c, 9, 42, 0
1, 140480, Note_on_c, 9, 39, 115
1, 140480, Note_on_c, 9, 42, 65
1, 140519, Note_on_c, 9, 39, 0
1, 140519, Note_on_c, 9, 42, 0
1, 140625, Note_on_c, 9, 42, 97
1, 140639, Note_on_c, 9, 36, 0
1, 140640, Note_on_c, 9, 38, 127
1, 140640, Note_on_c, 9, 39, 125
1, 140759, Note_on_c, 9, 42, 0
1, 140759, Note_on_c, 9, 38, 0
1, 140759, Note_on_c, 9, 39, 0
1, 140800, Note_on_c, 9, 42, 42
1, 140819, Note_on_c, 9, 42, 0
1, 140960, Note_on_c, 9, 42, 65
1, 140999, Note_on_c, 9, 42, 0
1, 141120, Note_on_c, 9, 42, 97
1, 141120, Note_on_c, 9, 36, 127
1, 141239, Note_on_c, 9, 42, 0
1, 141280, Note_on_c, 9, 42, 42
1, 141299, Note_on_c, 9, 42, 0
1, 141440, Note_on_c, 9, 42, 65
1, 141479, Note_on_c, 9, 42, 0
1, 141585, Note_on_c, 9, 42, 97
1, 141599, Note_on_c, 9, 36, 0
1, 141599, Note_on_c, 9, 42, 0
1, 141600, Note_on_c, 9, 38, 127
1, 141719, Note_on_c, 9, 38, 0
1, 141760, Note_on_c, 9, 42, 42
1, 141779, Note_on_c, 9, 42, 0
1, 141920, Note_on_c, 9, 42, 65
1, 141959, Note_on_c, 9, 42, 0
1, 142080, Note_on_c, 9, 42, 97
1, 142080, Note_on_c, 9, 36, 127
1, 142199, Note_on_c, 9, 42, 0
1, 142240, Note_on_c, 9, 42, 42
1, 142259, Note_on_c, 9, 42, 0
1, 142400, Note_on_c, 9, 42, 65
1, 142439, Note_on_c, 9, 42, 0
1, 142545, Note_on_c, 9, 42, 97
1, 142559, Note_on_c, 9, 36, 0
1, 142560, Note_on_c, 9, 38, 127
1, 142679, Note_on_c, 9, 42, 0
1, 142679, Note_on_c, 9, 38, 0
1, 142720, Note_on_c, 9, 42, 42
1, 142739, Note_on_c, 9, 42, 0
1, 142880, Note_on_c, 9, 42, 65
1, 142919, Note_on_c, 9, 42, 0
1, 143040, Note_on_c, 9, 42, 97
1, 143040, Note_on_c, 9, 36, 127
1, 143159, Note_on_c, 9, 42, 0
1, 143200, Note_on_c, 9, 42, 42
1, 143219, Note_on_c, 9, 42, 0
1, 143279, Note_on_c, 9, 36, 0
1, 143360, Note_on_c, 9, 42, 65
1, 143360, Note_on_c, 9, 36, 127
1, 143399, Note_on_c, 9, 42, 0
1, 143399, Note_on_c, 9, 36, 0
1, 143505, Note_on_c, 9, 42, 97
1, 143519, Note_on_c, 9, 42, 0
1, 143520, Note_on_c, 9, 38, 127
1, 143639, Note_on_c, 9, 38, 0
1, 143680, Note_on_c, 9, 47, 127
1, 143680, Note_on_c, 9, 42, 42
1, 143699, Note_on_c, 9, 47, 0
1, 143699, Note_on_c, 9, 42, 0
1, 143840, Note_on_c, 9, 42, 65
1, 143840, Note_on_c, 9, 43, 127
1, 143879, Note_on_c, 9, 42, 0
1, 143879, Note_on_c, 9, 43, 0
1, 144000, Note_on_c, 9, 42, 97
1, 144000, Note_on_c, 9, 49, 127
1, 144000, Note_on_c, 9, 36, 127
1, 144119, Note_on_c, 9, 42, 0
1, 144119, Note_on_c, 9, 49, 0
1, 144160, Note_on_c, 9, 42, 42
1, 144179, Note_on_c, 9, 42, 0
1, 144320, Note_on_c, 9, 42, 65
1, 144359, Note_on_c, 9, 42, 0
1, 144465, Note_on_c, 9, 42, 97
1, 144479, Note_on_c, 9, 36, 0
1, 144480, Note_on_c, 9, 38, 127
1, 144599, Note_on_c, 9, 42, 0
1, 144599, Note_on_c, 9, 38, 0
1, 144640, Note_on_c, 9, 42, 42
1, 144659, Note_on_c, 9, 42, 0
1, 144800, Note_on_c, 9, 42, 65
1, 144839, Note_on_c, 9, 42, 0
1, 144960, Note_on_c, 9, 42, 97
1, 144960, Note_on_c, 9, 36, 127
1, 145079, Note_on_c, 9, 42, 0
1, 145120, Note_on_c, 9, 42, 42
1, 145139, Note_on_c, 9, 42, 0
1, 145280, Note_on_c, 9, 42, 65
1, 145319, Note_on_c, 9, 42, 0
1, 145425, Note_on_c, 9, 42, 97
1, 145439, Note_on_c, 9, 36, 0
1, 145439, Note_on_c, 9, 42, 0
1, 145440, Note_on_c, 9, 38, 127
1, 145559, Note_on_c, 9, 38, 0
1, 145600, Note_on_c, 9, 42, 42
1, 145619, Note_on_c, 9, 42, 0
1, 145760, Note_on_c, 9, 42, 65
1, 145799, Note_on_c, 9, 42, 0
1, 145920, Note_on_c, 9, 42, 97
1, 145920, Note_on_c, 9, 36, 127
1, 146039, Note_on_c, 9, 42, 0
1, 146080, Note_on_c, 9, 42, 42
1, 146099, Note_on_c, 9, 42, 0
1, 146240, Note_on_c, 9, 42, 65
1, 146279, Note_on_c, 9, 42, 0
1, 146385, Note_on_c, 9, 42, 97
1, 146399, Note_on_c, 9, 36, 0
1, 146400, Note_on_c, 9, 38, 127
1, 146519, Note_on_c, 9, 42, 0
1, 146519, Note_on_c, 9, 38, 0
1, 146560, Note_on_c, 9, 42, 42
1, 146579, Note_on_c, 9, 42, 0
1, 146720, Note_on_c, 9, 42, 65
1, 146759, Note_on_c, 9, 42, 0
1, 146880, Note_on_c, 9, 42, 97
1, 146880, Note_on_c, 9, 36, 127
1, 146999, Note_on_c, 9, 42, 0
1, 147040, Note_on_c, 9, 42, 42
1, 147059, Note_on_c, 9, 42, 0
1, 147119, Note_on_c, 9, 36, 0
1, 147200, Note_on_c, 9, 42, 65
1, 147200, Note_on_c, 9, 36, 127
1, 147239, Note_on_c, 9, 42, 0
1, 147239, Note_on_c, 9, 36, 0
1, 147345, Note_on_c, 9, 42, 97
1, 147359, Note_on_c, 9, 42, 0
1, 147360, Note_on_c, 9, 38, 127
1, 147479, Note_on_c, 9, 38, 0
1, 147520, Note_on_c, 9, 42, 42
1, 147539, Note_on_c, 9, 42, 0
1, 147680, Note_on_c, 9, 42, 65
1, 147719, Note_on_c, 9, 42, 0
1, 147840, Note_on_c, 9, 42, 97
1, 147840, Note_on_c, 9, 36, 127
1, 147959, Note_on_c, 9, 42, 0
1, 148000, Note_on_c, 9, 39, 105
1, 148000, Note_on_c, 9, 42, 42
1, 148019, Note_on_c, 9, 39, 0
1, 148019, Note_on_c, 9, 42, 0
1, 148160, Note_on_c, 9, 39, 115
1, 148160, Note_on_c, 9, 42, 65
1, 148199, Note_on_c, 9, 39, 0
1, 148199, Note_on_c, 9, 42, 0
1, 148305, Note_on_c, 9, 42, 97
1, 148319, Note_on_c, 9, 36, 0
1, 148320, Note_on_c, 9, 38, 127
1, 148320, Note_on_c, 9, 39, 125
1, 148439, Note_on_c, 9, 42, 0
1, 148439, Note_on_c, 9, 38, 0
1, 148439, Note_on_c, 9, 39, 0
1, 148480, Note_on_c, 9, 42, 42
1, 148499, Note_on_c, 9, 42, 0
1, 148640, Note_on_c, 9, 42, 65
1, 148679, Note_on_c, 9, 42, 0
1, 148800, Note_on_c, 9, 42, 97
1, 148800, Note_on_c, 9, 36, 127
1, 148919, Note_on_c, 9, 42, 0
1, 148960, Note_on_c, 9, 42, 42
1, 148979, Note_on_c, 9, 42, 0
1, 149120, Note_on_c, 9, 42, 65
1, 149159, Note_on_c, 9, 42, 0
1, 149265, Note_on_c, 9, 42, 97
1, 149279, Note_on_c, 9, 36, 0
1, 149279, Note_on_c, 9, 42, 0
1, 149280, Note_on_c, 9, 38, 127
1, 149399, Note_on_c, 9, 38, 0
1, 149440, Note_on_c, 9, 42, 42
1, 149459, Note_on_c, 9, 42, 0
1, 149600, Note_on_c, 9, 42, 65
1, 149639, Note_on_c, 9, 42, 0
1, 149760, Note_on_c, 9, 42, 97
1, 149760, Note_on_c, 9, 36, 127
1, 149879, Note_on_c, 9, 42, 0
1, 149920, Note_on_c, 9, 42, 42
1, 149939, Note_on_c, 9, 42, 0
1, 150080, Note_on_c, 9, 42, 65
1, 150119, Note_on_c, 9, 42, 0
1, 150225, Note_on_c, 9, 42, 97
1, 150239, Note_on_c, 9, 36, 0
1, 150240, Note_on_c, 9, 38, 127
1, 150359, Note_on_c, 9, 42, 0
1, 150359, Note_on_c, 9, 38, 0
1, 150400, Note_on_c, 9, 42, 42
1, 150419, Note_on_c, 9, 42, 0
1, 150560, Note_on_c, 9, 42, 65
1, 150599, Note_on_c, 9, 42, 0
1, 150720, Note_on_c, 9, 42, 97
1, 150720, Note_on_c, 9, 36, 127
1, 150839, Note_on_c, 9, 42, 0
1, 150880, Note_on_c, 9, 42, 42
1, 150899, Note_on_c, 9, 42, 0
1, 150959, Note_on_c, 9, 36, 0
1, 151040, Note_on_c, 9, 42, 65
1, 151040, Note_on_c, 9, 36, 127
1, 151079, Note_on_c, 9, 42, 0
1, 151079, Note_on_c, 9, 36, 0
1, 151185, Note_on_c, 9, 42, 97
1, 151199, Note_on_c, 9, 42, 0
1, 151200, Note_on_c, 9, 38, 127
1, 151319, Note_on_c, 9, 38, 0
1, 151360, Note_on_c, 9, 42, 42
1, 151379, Note_on_c, 9, 42, 0
1, 151520, Note_on_c, 9, 42, 65
1, 151559, Note_on_c, 9, 42, 0
1, 151680, Note_on_c, 9, 42, 97
1, 151680, Note_on_c, 9, 36, 127
1, 151799, Note_on_c, 9, 42, 0
1, 151840, Note_on_c, 9, 47, 127
1, 151840, Note_on_c, 9, 42, 42
1, 151859, Note_on_c, 9, 47, 0
1, 151859, Note_on_c, 9, 42, 0
1, 152000, Note_on_c, 9, 47, 127
1, 152000, Note_on_c, 9, 42, 65
1, 152039, Note_on_c, 9, 47, 0
1, 152039, Note_on_c, 9, 42, 0
1, 152145, Note_on_c, 9, 42, 97
1, 152159, Note_on_c, 9, 36, 0
1, 152160, Note_on_c, 9, 50, 127
1, 152279, Note_on_c, 9, 42, 0
1, 152279, Note_on_c, 9, 50, 0
1, 152320, Note_on_c, 9, 42, 42
1, 152339, Note_on_c, 9, 42, 0
1, 152480, Note_on_c, 9, 50, 127
1, 152480, Note_on_c, 9, 42, 65
1, 152519, Note_on_c, 9, 50, 0
1, 152519, Note_on_c, 9, 42, 0
1, 152640, Note_on_c, 9, 42, 97
1, 152640, Note_on_c, 9, 36, 127
1, 152759, Note_on_c, 9, 42, 0
1, 152800, Note_on_c, 9, 47, 127
1, 152800, Note_on_c, 9, 42, 42
1, 152819, Note_on_c, 9, 47, 0
1, 152819, Note_on_c, 9, 42, 0
1, 152960, Note_on_c, 9, 47, 127
1, 152960, Note_on_c, 9, 42, 65
1, 152999, Note_on_c, 9, 47, 0
1, 152999, Note_on_c, 9, 42, 0
1, 153105, Note_on_c, 9, 42, 97
1, 153119, Note_on_c, 9, 36, 0
1, 153119, Note_on_c, 9, 42, 0
1, 153120, Note_on_c, 9, 47, 127
1, 153239, Note_on_c, 9, 47, 0
1, 153280, Note_on_c, 9, 42, 42
1, 153299, Note_on_c, 9, 42, 0
1, 153440, Note_on_c, 9, 42, 65
1, 153440, Note_on_c, 9, 43, 127
1, 153479, Note_on_c, 9, 42, 0
1, 153479, Note_on_c, 9, 43, 0
1, 153600, Note_on_c, 9, 42, 97
1, 153600, Note_on_c, 9, 49, 127
1, 153600, Note_on_c, 9, 36, 127
1, 153719, Note_on_c, 9, 42, 0
1, 153719, Note_on_c, 9, 49, 0
1, 153760, Note_on_c, 9, 42, 42
1, 153779, Note_on_c, 9, 42, 0
1, 153920, Note_on_c, 9, 42, 65
1, 153959, Note_on_c, 9, 42, 0
1, 154065, Note_on_c, 9, 42, 97
1, 154079, Note_on_c, 9, 36, 0
1, 154080, Note_on_c, 9, 38, 127
1, 154199, Note_on_c, 9, 42, 0
1, 154199, Note_on_c, 9, 38, 0
1, 154240, Note_on_c, 9, 42, 42
1, 154259, Note_on_c, 9, 42, 0
1, 154400, Note_on_c, 9, 42, 65
1, 154439, Note_on_c, 9, 42, 0
1, 154560, Note_on_c, 9, 42, 97
1, 154560, Note_on_c, 9, 36, 127
1, 154679, Note_on_c, 9, 42, 0
1, 154720, Note_on_c, 9, 42, 42
1, 154739, Note_on_c, 9, 42, 0
1, 154880, Note_on_c, 9, 42, 65
1, 154919, Note_on_c, 9, 42, 0
1, 155025, Note_on_c, 9, 42, 97
1, 155039, Note_on_c, 9, 36, 0
1, 155039, Note_on_c, 9, 42, 0
1, 155040, Note_on_c, 9, 38, 127
1, 155159, Note_on_c, 9, 38, 0
1, 155200, Note_on_c, 9, 42, 42
1, 155219, Note_on_c, 9, 42, 0
1, 155360, Note_on_c, 9, 42, 65
1, 155399, Note_on_c, 9, 42, 0
1, 155520, Note_on_c, 9, 42, 97
1, 155520, Note_on_c, 9, 36, 127
1, 155639, Note_on_c, 9, 42, 0
1, 155680, Note_on_c, 9, 42, 42
1, 155699, Note_on_c, 9, 42, 0
1, 155840, Note_on_c, 9, 42, 65
1, 155879, Note_on_c, 9, 42, 0
1, 155985, Note_on_c, 9, 42, 97
1, 155999, Note_on_c, 9, 36, 0
1, 156000, Note_on_c, 9, 38, 127
1, 156119, Note_on_c, 9, 42, 0
1, 156119, Note_on_c, 9, 38, 0
1, 156160, Note_on_c, 9, 42, 42
1, 156179, Note_on_c, 9, 42, 0
1, 156320, Note_on_c, 9, 42, 65
1, 156359, Note_on_c, 9, 42, 0
1, 156480, Note_on_c, 9, 42, 97
1, 156480, Note_on_c, 9, 36, 127
1, 156599, Note_on_c, 9, 42, 0
1, 156640, Note_on_c, 9, 42, 42
1, 156659, Note_on_c, 9, 42, 0
1, 156719, Note_on_c, 9, 36, 0
1, 156800, Note_on_c, 9, 42, 65
1, 156800, Note_on_c, 9, 36, 127
1, 156839, Note_on_c, 9, 42, 0
1, 156839, Note_on_c, 9, 36, 0
1, 156945, Note_on_c, 9, 42, 97
1, 156959, Note_on_c, 9, 42, 0
1, 156960, Note_on_c, 9, 38, 127
1, 157079, Note_on_c, 9, 38, 0
1, 157120, Note_on_c, 9, 47, 127
1, 157120, Note_on_c, 9, 42, 42
1, 157139, Note_on_c, 9, 47, 0
1, 157139, Note_on_c, 9, 42, 0
1, 157280, Note_on_c, 9, 42, 65
1, 157280, Note_on_c, 9, 43, 127
1, 157319, Note_on_c, 9, 42, 0
1, 157319, Note_on_c, 9, 43, 0
1, 157440, Note_on_c, 9, 42, 97
1, 157440, Note_on_c, 9, 36, 127
1, 157559, Note_on_c, 9, 42, 0
1, 157600, Note_on_c, 9, 42, 42
1, 157619, Note_on_c, 9, 42, 0
1, 157760, Note_on_c, 9, 42, 65
1, 157799, Note_on_c, 9, 42, 0
1, 157905, Note_on_c, 9, 42, 97
1, 157919, Note_on_c, 9, 36, 0
1, 157920, Note_on_c, 9, 38, 127
1, 158039, Note_on_c, 9, 42, 0
1, 158039, Note_on_c, 9, 38, 0
1, 158080, Note_on_c, 9, 42, 42
1, 158099, Note_on_c, 9, 42, 0
1, 158240, Note_on_c, 9, 42, 65
1, 158279, Note_on_c, 9, 42, 0
1, 158400, Note_on_c, 9, 42, 97
1, 158400, Note_on_c, 9, 36, 127
1, 158519, Note_on_c, 9, 42, 0
1, 158560, Note_on_c, 9, 42, 42
1, 158579, Note_on_c, 9, 42, 0
1, 158720, Note_on_c, 9, 42, 65
1, 158759, Note_on_c, 9, 42, 0
1, 158865, Note_on_c, 9, 42, 97
1, 158879, Note_on_c, 9, 36, 0
1, 158879, Note_on_c, 9, 42, 0
1, 158880, Note_on_c, 9, 38, 127
1, 158999, Note_on_c, 9, 38, 0
1, 159040, Note_on_c, 9, 42, 42
1, 159059, Note_on_c, 9, 42, 0
1, 159200, Note_on_c, 9, 42, 65
1, 159239, Note_on_c, 9, 42, 0
1, 159360, Note_on_c, 9, 42, 97
1, 159360, Note_on_c, 9, 36, 127
1, 159479, Note_on_c, 9, 42, 0
1, 159520, Note_on_c, 9, 42, 42
1, 159539, Note_on_c, 9, 42, 0
1, 159680, Note_on_c, 9, 42, 65
1, 159719, Note_on_c, 9, 42, 0
1, 159825, Note_on_c, 9, 42, 97
1, 159839, Note_on_c, 9, 36, 0
1, 159840, Note_on_c, 9, 38, 127
1, 159959, Note_on_c, 9, 42, 0
1, 159959, Note_on_c, 9, 38, 0
1, 160000, Note_on_c, 9, 42, 42
1, 160019, Note_on_c, 9, 42, 0
1, 160160, Note_on_c, 9, 42, 65
1, 160199, Note_on_c, 9, 42, 0
1, 160320, Note_on_c, 9, 42, 97
1, 160320, Note_on_c, 9, 36, 127
1, 160439, Note_on_c, 9, 42, 0
1, 160480, Note_on_c, 9, 42, 42
1, 160499, Note_on_c, 9, 42, 0
1, 160559, Note_on_c, 9, 36, 0
1, 160640, Note_on_c, 9, 42, 65
1, 160640, Note_on_c, 9, 36, 127
1, 160679, Note_on_c, 9, 42, 0
1, 160679, Note_on_c, 9, 36, 0
1, 160785, Note_on_c, 9, 42, 97
1, 160799, Note_on_c, 9, 42, 0
1, 160800, Note_on_c, 9, 38, 127
1, 160800, Note_on_c, 9, 50, 127
1, 160919, Note_on_c, 9, 38, 0
1, 160919, Note_on_c, 9, 50, 0
1, 160960, Note_on_c, 9, 47, 127
1, 160960, Note_on_c, 9, 42, 42
1, 160979, Note_on_c, 9, 47, 0
1, 160979, Note_on_c, 9, 42, 0
1, 161120, Note_on_c, 9, 39, 125
1, 161120, Note_on_c, 9, 42, 65
1, 161120, Note_on_c, 9, 43, 127
1, 161159, Note_on_c, 9, 39, 0
1, 161159, Note_on_c, 9, 42, 0
1, 161159, Note_on_c, 9, 43, 0
1, 161280, Note_on_c, 9, 42, 97
1, 161280, Note_on_c, 9, 36, 127
1, 161399, Note_on_c, 9, 42, 0
1, 161440, Note_on_c, 9, 42, 42
1, 161459, Note_on_c, 9, 42, 0
1, 161600, Note_on_c, 9, 42, 65
1, 161639, Note_on_c, 9, 42, 0
1, 161745, Note_on_c, 9, 42, 97
1, 161759, Note_on_c, 9, 36, 0
1, 161760, Note_on_c, 9, 38, 127
1, 161879, Note_on_c, 9, 42, 0
1, 161879, Note_on_c, 9, 38, 0
1, 161920, Note_on_c, 9, 42, 42
1, 161939, Note_on_c, 9, 42, 0
1, 162080, Note_on_c, 9, 42, 65
1, 162119, Note_on_c, 9, 42, 0
1, 162240, Note_on_c, 9, 42, 97
1, 162240, Note_on_c, 9, 36, 127
1, 162359, Note_on_c, 9, 42, 0
1, 162400, Note_on_c, 9, 42, 42
1, 162419, Note_on_c, 9, 42, 0
1, 162560, Note_on_c, 9, 42, 65
1, 162599, Note_on_c, 9, 42, 0
1, 162705, Note_on_c, 9, 42, 97
1, 162719, Note_on_c, 9, 36, 0
1, 162719, Note_on_c, 9, 42, 0
1, 162720, Note_on_c, 9, 38, 127
1, 162839, Note_on_c, 9, 38, 0
1, 162880, Note_on_c, 9, 42, 42
1, 162899, Note_on_c, 9, 42, 0
1, 163040, Note_on_c, 9, 42, 65
1, 163079, Note_on_c, 9, 42, 0
1, 163200, Note_on_c, 9, 42, 97
1, 163200, Note_on_c, 9, 36, 127
1, 163319, Note_on_c, 9, 42, 0
1, 163360, Note_on_c, 9, 42, 42
1, 163379, Note_on_c, 9, 42, 0
1, 163520, Note_on_c, 9, 42, 65
1, 163559, Note_on_c, 9, 42, 0
1, 163665, Note_on_c, 9, 42, 97
1, 163679, Note_on_c, 9, 36, 0
1, 163680, Note_on_c, 9, 38, 127
1, 163799, Note_on_c, 9, 42, 0
1, 163799, Note_on_c, 9, 38, 0
1, 163840, Note_on_c, 9, 42, 42
1, 163859, Note_on_c, 9, 42, 0
1, 164000, Note_on_c, 9, 42, 65
1, 164039, Note_on_c, 9, 42, 0
1, 164160, Note_on_c, 9, 42, 97
1, 164160, Note_on_c, 9, 36, 127
1, 164279, Note_on_c, 9, 42, 0
1, 164320, Note_on_c, 9, 42, 42
1, 164339, Note_on_c, 9, 42, 0
1, 164399, Note_on_c, 9, 36, 0
1, 164480, Note_on_c, 9, 42, 65
1, 164480, Note_on_c, 9, 36, 127
1, 164519, Note_on_c, 9, 42, 0
1, 164519, Note_on_c, 9, 36, 0
1, 164625, Note_on_c, 9, 42, 97
1, 164639, Note_on_c, 9, 42, 0
1, 164640, Note_on_c, 9, 38, 127
1, 164759, Note_on_c, 9, 38, 0
1, 164800, Note_on_c, 9, 42, 42
1, 164819, Note_on_c, 9, 42, 0
1, 164960, Note_on_c, 9, 42, 65
1, 164999, Note_on_c, 9, 42, 0
1, 165120, Note_on_c, 9, 42, 97
1, 165120, Note_on_c, 9, 36, 127
1, 165239, Note_on_c, 9, 42, 0
1, 165280, Note_on_c, 9, 42, 42
1, 165299, Note_on_c, 9, 42, 0
1, 165440, Note_on_c, 9, 42, 65
1, 165479, Note_on_c, 9, 42, 0
1, 165585, Note_on_c, 9, 42, 97
1, 165599, Note_on_c, 9, 36, 0
1, 165600, Note_on_c, 9, 38, 127
1, 165719, Note_on_c, 9, 42, 0
1, 165719, Note_on_c, 9, 38, 0
1, 165760, Note_on_c, 9, 42, 42
1, 165779, Note_on_c, 9, 42, 0
1, 165920, Note_on_c, 9, 42, 65
1, 165959, Note_on_c, 9, 42, 0
1, 166080, Note_on_c, 9, 42, 97
1, 166080, Note_on_c, 9, 36, 127
1, 166199, Note_on_c, 9, 42, 0
1, 166240, Note_on_c, 9, 42, 42
1, 166259, Note_on_c, 9, 42, 0
1, 166400, Note_on_c, 9, 42, 65
1, 166439, Note_on_c, 9, 42, 0
1, 166545, Note_on_c, 9, 42, 97
1, 166559, Note_on_c, 9, 36, 0
1, 166559, Note_on_c, 9, 42, 0
1, 166560, Note_on_c, 9, 38, 127
1, 166679, Note_on_c, 9, 38, 0
1, 166720, Note_on_c, 9, 42, 42
1, 166739, Note_on_c, 9, 42, 0
1, 166880, Note_on_c, 9, 42, 65
1, 166919, Note_on_c, 9, 42, 0
1, 167040, Note_on_c, 9, 42, 97
1, 167040, Note_on_c, 9, 36, 127
1, 167159, Note_on_c, 9, 42, 0
1, 167200, Note_on_c, 9, 42, 42
1, 167219, Note_on_c, 9, 42, 0
1, 167360, Note_on_c, 9, 42, 65
1, 167399, Note_on_c, 9, 42, 0
1, 167505, Note_on_c, 9, 42, 97
1, 167519, Note_on_c, 9, 36, 0
1, 167520, Note_on_c, 9, 38, 127
1, 167639, Note_on_c, 9, 42, 0
1, 167639, Note_on_c, 9, 38, 0
1, 167680, Note_on_c, 9, 42, 42
1, 167699, Note_on_c, 9, 42, 0
1, 167840, Note_on_c, 9, 42, 65
1, 167879, Note_on_c, 9, 42, 0
1, 168000, Note_on_c, 9, 42, 97
1, 168000, Note_on_c, 9, 36, 127
1, 168119, Note_on_c, 9, 42, 0
1, 168160, Note_on_c, 9, 42, 42
1, 168179, Note_on_c, 9, 42, 0
1, 168239, Note_on_c, 9, 36, 0
1, 168320, Note_on_c, 9, 42, 65
1, 168320, Note_on_c, 9, 36, 127
1, 168359, Note_on_c, 9, 42, 0
1, 168359, Note_on_c, 9, 36, 0
1, 168465, Note_on_c, 9, 42, 97
1, 168479, Note_on_c, 9, 42, 0
1, 168480, Note_on_c, 9, 38, 127
1, 168599, Note_on_c, 9, 38, 0
1, 168640, Note_on_c, 9, 42, 42
1, 168659, Note_on_c, 9, 42, 0
1, 168800, Note_on_c, 9, 42, 65
1, 168839, Note_on_c, 9, 42, 0
1, 168960, Note_on_c, 9, 42, 97
1, 168960, Note_on_c, 9, 36, 127
1, 169079, Note_on_c, 9, 42, 0
1, 169120, Note_on_c, 9, 42, 42
1, 169139, Note_on_c, 9, 42, 0
1, 169280, Note_on_c, 9, 42, 65
1, 169319, Note_on_c, 9, 42, 0
1, 169425, Note_on_c, 9, 42, 97
1, 169439, Note_on_c, 9, 36, 0
1, 169440, Note_on_c, 9, 38, 127
1, 169559, Note_on_c, 9, 42, 0
1, 169559, Note_on_c, 9, 38, 0
1, 169600, Note_on_c, 9, 42, 42
1, 169619, Note_on_c, 9, 42, 0
1, 169760, Note_on_c, 9, 42, 65
1, 169799, Note_on_c, 9, 42, 0
1, 169920, Note_on_c, 9, 42, 97
1, 169920, Note_on_c, 9, 36, 127
1, 170039, Note_on_c, 9, 42, 0
1, 170080, Note_on_c, 9, 42, 42
1, 170099, Note_on_c, 9, 42, 0
1, 170240, Note_on_c, 9, 42, 65
1, 170279, Note_on_c, 9, 42, 0
1, 170385, Note_on_c, 9, 42, 97
1, 170399, Note_on_c, 9, 36, 0
1, 170399, Note_on_c, 9, 42, 0
1, 170400, Note_on_c, 9, 38, 127
1, 170519, Note_on_c, 9, 38, 0
1, 170560, Note_on_c, 9, 42, 42
1, 170579, Note_on_c, 9, 42, 0
1, 170720, Note_on_c, 9, 42, 65
1, 170759, Note_on_c, 9, 42, 0
1, 170880, Note_on_c, 9, 42, 97
1, 170880, Note_on_c, 9, 36, 127
1, 170999, Note_on_c, 9, 42, 0
1, 171040, Note_on_c, 9, 42, 42
1, 171059, Note_on_c, 9, 42, 0
1, 171200, Note_on_c, 9, 42, 65
1, 171239, Note_on_c, 9, 42, 0
1, 171345, Note_on_c, 9, 42, 97
1, 171359, Note_on_c, 9, 36, 0
1, 171360, Note_on_c, 9, 38, 127
1, 171479, Note_on_c, 9, 42, 0
1, 171479, Note_on_c, 9, 38, 0
1, 171520, Note_on_c, 9, 42, 42
1, 171539, Note_on_c, 9, 42, 0
1, 171680, Note_on_c, 9, 42, 65
1, 171719, Note_on_c, 9, 42, 0
1, 171840, Note_on_c, 9, 42, 97
1, 171840, Note_on_c, 9, 36, 127
1, 171959, Note_on_c, 9, 42, 0
1, 172000, Note_on_c, 9, 42, 42
1, 172019, Note_on_c, 9, 42, 0
1, 172079, Note_on_c, 9, 36, 0
1, 172160, Note_on_c, 9, 42, 65
1, 172160, Note_on_c, 9, 36, 127
1, 172199, Note_on_c, 9, 42, 0
1, 172199, Note_on_c, 9, 36, 0
1, 172305, Note_on_c, 9, 42, 97
1, 172319, Note_on_c, 9, 42, 0
1, 172320, Note_on_c, 9, 38, 127
1, 172439, Note_on_c, 9, 38, 0
1, 172480, Note_on_c, 9, 42, 42
1, 172499, Note_on_c, 9, 42, 0
1, 172640, Note_on_c, 9, 42, 65
1, 172679, Note_on_c, 9, 42, 0
1, 172800, Note_on_c, 9, 42, 97
1, 172800, Note_on_c, 9, 36, 127
1, 172919, Note_on_c, 9, 42, 0
1, 172960, Note_on_c, 9, 42, 42
1, 172979, Note_on_c, 9, 42, 0
1, 173120, Note_on_c, 9, 42, 65
1, 173159, Note_on_c, 9, 42, 0
1, 173265, Note_on_c, 9, 42, 97
1, 173279, Note_on_c, 9, 36, 0
1, 173280, Note_on_c, 9, 38, 127
1, 173399, Note_on_c, 9, 42, 0
1, 173399, Note_on_c, 9, 38, 0
1, 173440, Note_on_c, 9, 42, 42
1, 173459, Note_on_c, 9, 42, 0
1, 173600, Note_on_c, 9, 42, 65
1, 173639, Note_on_c, 9, 42, 0
1, 173760, Note_on_c, 9, 42, 97
1, 173760, Note_on_c, 9, 36, 127
1, 173879, Note_on_c, 9, 42, 0
1, 173920, Note_on_c, 9, 42, 42
1, 173939, Note_on_c, 9, 42, 0
1, 174080, Note_on_c, 9, 42, 65
1, 174119, Note_on_c, 9, 42, 0
1, 174225, Note_on_c, 9, 42, 97
1, 174239, Note_on_c, 9, 36, 0
1, 174239, Note_on_c, 9, 42, 0
1, 174240, Note_on_c, 9, 38, 127
1, 174359, Note_on_c, 9, 38, 0
1, 174400, Note_on_c, 9, 42, 42
1, 174419, Note_on_c, 9, 42, 0
1, 174560, Note_on_c, 9, 42, 65
1, 174599, Note_on_c, 9, 42, 0
1, 174720, Note_on_c, 9, 42, 97
1, 174720, Note_on_c, 9, 36, 127
1, 174839, Note_on_c, 9, 42, 0
1, 174880, Note_on_c, 9, 42, 42
1, 174899, Note_on_c, 9, 42, 0
1, 175040, Note_on_c, 9, 42, 65
1, 175079, Note_on_c, 9, 42, 0
1, 175185, Note_on_c, 9, 42, 97
1, 175199, Note_on_c, 9, 36, 0
1, 175200, Note_on_c, 9, 38, 127
1, 175319, Note_on_c, 9, 42, 0
1, 175319, Note_on_c, 9, 38, 0
1, 175360, Note_on_c, 9, 42, 42
1, 175379, Note_on_c, 9, 42, 0
1, 175520, Note_on_c, 9, 42, 65
1, 175559, Note_on_c, 9, 42, 0
1, 175680, Note_on_c, 9, 42, 97
1, 175680, Note_on_c, 9, 36, 127
1, 175799, Note_on_c, 9, 42, 0
1, 175840, Note_on_c, 9, 42, 42
1, 175859, Note_on_c, 9, 42, 0
1, 175919, Note_on_c, 9, 36, 0
1, 176000, Note_on_c, 9, 42, 65
1, 176000, Note_on_c, 9, 36, 127
1, 176039, Note_on_c, 9, 42, 0
1, 176039, Note_on_c, 9, 36, 0
1, 176145, Note_on_c, 9, 42, 97
1, 176159, Note_on_c, 9, 42, 0
1, 176160, Note_on_c, 9, 38, 127
1, 176279, Note_on_c, 9, 38, 0
1, 176320, Note_on_c, 9, 42, 42
1, 176339, Note_on_c, 9, 42, 0
1, 176480, Note_on_c, 9, 42, 65
1, 176519, Note_on_c, 9, 42, 0
1, 176640, Note_on_c, 9, 42, 97
1, 176640, Note_on_c, 9, 36, 127
1, 176759, Note_on_c, 9, 42, 0
1, 176800, Note_on_c, 9, 42, 42
1, 176819, Note_on_c, 9, 42, 0
1, 176960, Note_on_c, 9, 42, 65
1, 176999, Note_on_c, 9, 42, 0
1, 177105, Note_on_c, 9, 42, 97
1, 177119, Note_on_c, 9, 36, 0
1, 177120, Note_on_c, 9, 38, 127
1, 177239, Note_on_c, 9, 42, 0
1, 177239, Note_on_c, 9, 38, 0
1, 177280, Note_on_c, 9, 42, 42
1, 177299, Note_on_c, 9, 42, 0
1, 177440, Note_on_c, 9, 42, 65
1, 177479, Note_on_c, 9, 42, 0
1, 177600, Note_on_c, 9, 42, 97
1, 177600, Note_on_c, 9, 36, 127
1, 177719, Note_on_c, 9, 42, 0
1, 177760, Note_on_c, 9, 42, 42
1, 177779, Note_on_c, 9, 42, 0
1, 177920, Note_on_c, 9, 42, 65
1, 177959, Note_on_c, 9, 42, 0
1, 178065, Note_on_c, 9, 42, 97
1, 178079, Note_on_c, 9, 36, 0
1, 178079, Note_on_c, 9, 42, 0
1, 178080, Note_on_c, 9, 38, 127
1, 178199, Note_on_c, 9, 38, 0
1, 178240, Note_on_c, 9, 42, 42
1, 178259, Note_on_c, 9, 42, 0
1, 178400, Note_on_c, 9, 42, 65
1, 178439, Note_on_c, 9, 42, 0
1, 178560, Note_on_c, 9, 42, 97
1, 178560, Note_on_c, 9, 36, 127
1, 178679, Note_on_c, 9, 42, 0
1, 178720, Note_on_c, 9, 42, 42
1, 178739, Note_on_c, 9, 42, 0
1, 178880, Note_on_c, 9, 42, 65
1, 178919, Note_on_c, 9, 42, 0
1, 179025, Note_on_c, 9, 42, 97
1, 179039, Note_on_c, 9, 36, 0
1, 179040, Note_on_c, 9, 38, 127
1, 179159, Note_on_c, 9, 42, 0
1, 179159, Note_on_c, 9, 38, 0
1, 179200, Note_on_c, 9, 42, 42
1, 179219, Note_on_c, 9, 42, 0
1, 179360, Note_on_c, 9, 42, 65
1, 179399, Note_on_c, 9, 42, 0
1, 179520, Note_on_c, 9, 42, 97
1, 179520, Note_on_c, 9, 36, 127
1, 179639, Note_on_c, 9, 42, 0
1, 179680, Note_on_c, 9, 42, 42
1, 179699, Note_on_c, 9, 42, 0
1, 179759, Note_on_c, 9, 36, 0
1, 179840, Note_on_c, 9, 42, 65
1, 179840, Note_on_c, 9, 36, 127
1, 179879, Note_on_c, 9, 42, 0
1, 179879, Note_on_c, 9, 36, 0
1, 179985, Note_on_c, 9, 42, 97
1, 179999, Note_on_c, 9, 42, 0
1, 180000, Note_on_c, 9, 38, 127
1, 180119, Note_on_c, 9, 38, 0
1, 180160, Note_on_c, 9, 42, 42
1, 180179, Note_on_c, 9, 42, 0
1, 180320, Note_on_c, 9, 42, 65
1, 180359, Note_on_c, 9, 42, 0
1, 180480, Note_on_c, 9, 42, 97
1, 180480, Note_on_c, 9, 36, 127
1, 180599, Note_on_c, 9, 42, 0
1, 180640, Note_on_c, 9, 42, 42
1, 180659, Note_on_c, 9, 42, 0
1, 180800, Note_on_c, 9, 42, 65
1, 180839, Note_on_c, 9, 42, 0
1, 180945, Note_on_c, 9, 42, 97
1, 180959, Note_on_c, 9, 36, 0
1, 180960, Note_on_c, 9, 38, 127
1, 181079, Note_on_c, 9, 42, 0
1, 181079, Note_on_c, 9, 38, 0
1, 181120, Note_on_c, 9, 42, 42
1, 181139, Note_on_c, 9, 42, 0
1, 181280, Note_on_c, 9, 42, 65
1, 181319, Note_on_c, 9, 42, 0
1, 181440, Note_on_c, 9, 42, 97
1, 181440, Note_on_c, 9, 36, 127
1, 181559, Note_on_c, 9, 42, 0
1, 181600, Note_on_c, 9, 42, 42
1, 181619, Note_on_c, 9, 42, 0
1, 181760, Note_on_c, 9, 42, 65
1, 181799, Note_on_c, 9, 42, 0
1, 181905, Note_on_c, 9, 42, 97
1, 181919, Note_on_c, 9, 36, 0
1, 181919, Note_on_c, 9, 42, 0
1, 181920, Note_on_c, 9, 38, 127
1, 182039, Note_on_c, 9, 38, 0
1, 182080, Note_on_c, 9, 42, 42
1, 182099, Note_on_c, 9, 42, 0
1, 182240, Note_on_c, 9, 42, 65
1, 182279, Note_on_c, 9, 42, 0
1, 182400, Note_on_c, 9, 42, 97
1, 182400, Note_on_c, 9, 36, 127
1, 182519, Note_on_c, 9, 42, 0
1, 182560, Note_on_c, 9, 42, 42
1, 182579, Note_on_c, 9, 42, 0
1, 182720, Note_on_c, 9, 42, 65
1, 182759, Note_on_c, 9, 42, 0
1, 182865, Note_on_c, 9, 42, 97
1, 182879, Note_on_c, 9, 36, 0
1, 182880, Note_on_c, 9, 38, 127
1, 182999, Note_on_c, 9, 42, 0
1, 182999, Note_on_c, 9, 38, 0
1, 183040, Note_on_c, 9, 42, 42
1, 183059, Note_on_c, 9, 42, 0
1, 183200, Note_on_c, 9, 42, 65
1, 183239, Note_on_c, 9, 42, 0
1, 183360, Note_on_c, 9, 42, 97
1, 183360, Note_on_c, 9, 36, 127
1, 183479, Note_on_c, 9, 42, 0
1, 183520, Note_on_c, 9, 42, 42
1, 183539, Note_on_c, 9, 42, 0
1, 183599, Note_on_c, 9, 36, 0
1, 183680, Note_on_c, 9, 42, 65
1, 183680, Note_on_c, 9, 36, 127
1, 183719, Note_on_c, 9, 42, 0
1, 183719, Note_on_c, 9, 36, 0
1, 183825, Note_on_c, 9, 42, 97
1, 183839, Note_on_c, 9, 42, 0
1, 183840, Note_on_c, 9, 38, 127
1, 183840, Note_on_c, 9, 50, 127
1, 183959, Note_on_c, 9, 38, 0
1, 183959, Note_on_c, 9, 50, 0
1, 184000, Note_on_c, 9, 47, 127
1, 184000, Note_on_c, 9, 42, 42
1, 184019, Note_on_c, 9, 47, 0
1, 184019, Note_on_c, 9, 42, 0
1, 184160, Note_on_c, 9, 42, 65
1, 184160, Note_on_c, 9, 43, 127
1, 184199, Note_on_c, 9, 42, 0
1, 184199, Note_on_c, 9, 43, 0
1, 184320, Note_on_c, 9, 42, 97
1, 184320, Note_on_c, 9, 36, 127
1, 184439, Note_on_c, 9, 42, 0
1, 184480, Note_on_c, 9, 42, 42
1, 184499, Note_on_c, 9, 42, 0
1, 184640, Note_on_c, 9, 42, 65
1, 184679, Note_on_c, 9, 42, 0
1, 184785, Note_on_c, 9, 42, 97
1, 184799, Note_on_c, 9, 36, 0
1, 184800, Note_on_c, 9, 38, 127
1, 184919, Note_on_c, 9, 42, 0
1, 184919, Note_on_c, 9, 38, 0
1, 184960, Note_on_c, 9, 42, 42
1, 184979, Note_on_c, 9, 42, 0
1, 185120, Note_on_c, 9, 42, 65
1, 185159, Note_on_c, 9, 42, 0
1, 185280, Note_on_c, 9, 42, 97
1, 185280, Note_on_c, 9, 36, 127
1, 185399, Note_on_c, 9, 42, 0
1, 185440, Note_on_c, 9, 42, 42
1, 185459, Note_on_c, 9, 42, 0
1, 185600, Note_on_c, 9, 42, 65
1, 185639, Note_on_c, 9, 42, 0
1, 185745, Note_on_c, 9, 42, 97
1, 185759, Note_on_c, 9, 36, 0
1, 185759, Note_on_c, 9, 42, 0
1, 185760, Note_on_c, 9, 38, 127
1, 185879, Note_on_c, 9, 38, 0
1, 185920, Note_on_c, 9, 42, 42
1, 185939, Note_on_c, 9, 42, 0
1, 186080, Note_on_c, 9, 42, 65
1, 186119, Note_on_c, 9, 42, 0
1, 186240, Note_on_c, 9, 42, 97
1, 186240, Note_on_c, 9, 36, 127
1, 186359, Note_on_c, 9, 42, 0
1, 186400, Note_on_c, 9, 42, 42
1, 186419, Note_on_c, 9, 42, 0
1, 186560, Note_on_c, 9, 42, 65
1, 186599, Note_on_c, 9, 42, 0
1, 186705, Note_on_c, 9, 42, 97
1, 186719, Note_on_c, 9, 36, 0
1, 186720, Note_on_c, 9, 38, 127
1, 186839, Note_on_c, 9, 42, 0
1, 186839, Note_on_c, 9, 38, 0
1, 186880, Note_on_c, 9, 42, 42
1, 186899, Note_on_c, 9, 42, 0
1, 187040, Note_on_c, 9, 42, 65
1, 187079, Note_on_c, 9, 42, 0
1, 187200, Note_on_c, 9, 42, 97
1, 187200, Note_on_c, 9, 36, 127
1, 187319, Note_on_c, 9, 42, 0
1, 187360, Note_on_c, 9, 42, 42
1, 187379, Note_on_c, 9, 42, 0
1, 187439, Note_on_c, 9, 36, 0
1, 187520, Note_on_c, 9, 42, 65
1, 187520, Note_on_c, 9, 36, 127
1, 187559, Note_on_c, 9, 42, 0
1, 187559, Note_on_c, 9, 36, 0
1, 187665, Note_on_c, 9, 42, 97
1, 187679, Note_on_c, 9, 42, 0
1, 187680, Note_on_c, 9, 38, 127
1, 187799, Note_on_c, 9, 38, 0
1, 187840, Note_on_c, 9, 42, 42
1, 187859, Note_on_c, 9, 42, 0
1, 188000, Note_on_c, 9, 42, 65
1, 188039, Note_on_c, 9, 42, 0
1, 188160, Note_on_c, 9, 42, 97
1, 188160, Note_on_c, 9, 36, 127
1, 188279, Note_on_c, 9, 42, 0
1, 188320, Note_on_c, 9, 42, 42
1, 188339, Note_on_c, 9, 42, 0
1, 188480, Note_on_c, 9, 42, 65
1, 188519, Note_on_c, 9, 42, 0
1, 188625, Note_on_c, 9, 42, 97
1, 188639, Note_on_c, 9, 36, 0
1, 188640, Note_on_c, 9, 38, 127
1, 188759, Note_on_c, 9, 42, 0
1, 188759, Note_on_c, 9, 38, 0
1, 188800, Note_on_c, 9, 42, 42
1, 188819, Note_on_c, 9, 42, 0
1, 188960, Note_on_c, 9, 42, 65
1, 188999, Note_on_c, 9, 42, 0
1, 189120, Note_on_c, 9, 42, 97
1, 189120, Note_on_c, 9, 36, 127
1, 189239, Note_on_c, 9, 42, 0
1, 189280, Note_on_c, 9, 42, 42
1, 189299, Note_on_c, 9, 42, 0
1, 189440, Note_on_c, 9, 42, 65
1, 189479, Note_on_c, 9, 42, 0
1, 189585, Note_on_c, 9, 42, 97
1, 189599, Note_on_c, 9, 36, 0
1, 189599, Note_on_c, 9, 42, 0
1, 189600, Note_on_c, 9, 38, 127
1, 189719, Note_on_c, 9, 38, 0
1, 189760, Note_on_c, 9, 42, 42
1, 189779, Note_on_c, 9, 42, 0
1, 189920, Note_on_c, 9, 42, 65
1, 189959, Note_on_c, 9, 42, 0
1, 190080, Note_on_c, 9, 42, 97
1, 190080, Note_on_c, 9, 36, 127
1, 190199, Note_on_c, 9, 42, 0
1, 190240, Note_on_c, 9, 42, 42
1, 190259, Note_on_c, 9, 42, 0
1, 190400, Note_on_c, 9, 42, 65
1, 190439, Note_on_c, 9, 42, 0
1, 190545, Note_on_c, 9, 42, 97
1, 190559, Note_on_c, 9, 36, 0
1, 190560, Note_on_c, 9, 38, 127
1, 190679, Note_on_c, 9, 42, 0
1, 190679, Note_on_c, 9, 38, 0
1, 190720, Note_on_c, 9, 42, 42
1, 190739, Note_on_c, 9, 42, 0
1, 190880, Note_on_c, 9, 42, 65
1, 190919, Note_on_c, 9, 42, 0
1, 191040, Note_on_c, 9, 42, 97
1, 191040, Note_on_c, 9, 36, 127
1, 191159, Note_on_c, 9, 42, 0
1, 191200, Note_on_c, 9, 42, 42
1, 191219, Note_on_c, 9, 42, 0
1, 191279, Note_on_c, 9, 36, 0
1, 191360, Note_on_c, 9, 42, 65
1, 191360, Note_on_c, 9, 36, 127
1, 191399, Note_on_c, 9, 42, 0
1, 191399, Note_on_c, 9, 36, 0
1, 191505, Note_on_c, 9, 42, 97
1, 191519, Note_on_c, 9, 42, 0
1, 191520, Note_on_c, 9, 38, 127
1, 191639, Note_on_c, 9, 38, 0
1, 191680, Note_on_c, 9, 42, 42
1, 191699, Note_on_c, 9, 42, 0
1, 191840, Note_on_c, 9, 42, 65
1, 191879, Note_on_c, 9, 42, 0
1, 192000, Note_on_c, 9, 39, 125
1, 192239, Note_on_c, 9, 39, 0
1, 192320, Note_on_c, 9, 39, 125
1, 192359, Note_on_c, 9, 39, 0
1, 192800, Note_on_c, 9, 39, 125
1, 192839, Note_on_c, 9, 39, 0
1, 193280, Note_on_c, 9, 38, 127
1, 193319, Note_on_c, 9, 38, 0
1, 193440, Note_on_c, 9, 38, 127
1, 193559, Note_on_c, 9, 38, 0
1, 193600, Note_on_c, 9, 50, 121
1, 193619, Note_on_c, 9, 50, 0
1, 193760, Note_on_c, 9, 47, 126
1, 193799, Note_on_c, 9, 47, 0
1, 193920, Note_on_c, 9, 39, 125
1, 193920, Note_on_c, 9, 43, 127
1, 194159, Note_on_c, 9, 39, 0
1, 194240, Note_on_c, 9, 39, 125
1, 194279, Note_on_c, 9, 39, 0
1, 194399, Note_on_c, 9, 43, 0
1, 194720, Note_on_c, 9, 39, 125
1, 194759, Note_on_c, 9, 39, 0
1, 195200, Note_on_c, 9, 38, 127
1, 195239, Note_on_c, 9, 38, 0
1, 195360, Note_on_c, 9, 38, 127
1, 195360, Note_on_c, 9, 50, 127
1, 195479, Note_on_c, 9, 38, 0
1, 195479, Note_on_c, 9, 50, 0
1, 195520, Note_on_c, 9, 47, 127
1, 195539, Note_on_c, 9, 47, 0
1, 195680, Note_on_c, 9, 43, 127
1, 195719, Note_on_c, 9, 43, 0
1, 195840, Note_on_c, 9, 42, 97
1, 195840, Note_on_c, 9, 36, 127
1, 195959, Note_on_c, 9, 42, 0
1, 196000, Note_on_c, 9, 42, 42
1, 196019, Note_on_c, 9, 42, 0
1, 196160, Note_on_c, 9, 42, 65
1, 196199, Note_on_c, 9, 42, 0
1, 196305, Note_on_c, 9, 42, 97
1, 196319, Note_on_c, 9, 36, 0
1, 196320, Note_on_c, 9, 38, 127
1, 196439, Note_on_c, 9, 42, 0
1, 196439, Note_on_c, 9, 38, 0
1, 196480, Note_on_c, 9, 42, 42
1, 196499, Note_on_c, 9, 42, 0
1, 196640, Note_on_c, 9, 42, 65
1, 196679, Note_on_c, 9, 42, 0
1, 196800, Note_on_c, 9, 42, 97
1, 196800, Note_on_c, 9, 36, 127
1, 196919, Note_on_c, 9, 42, 0
1, 196960, Note_on_c, 9, 42, 42
1, 196979, Note_on_c, 9, 42, 0
1, 197120, Note_on_c, 9, 42, 65
1, 197159, Note_on_c, 9, 42, 0
1, 197265, Note_on_c, 9, 42, 97
1, 197279, Note_on_c, 9, 36, 0
1, 197279, Note_on_c, 9, 42, 0
1, 197280, Note_on_c, 9, 38, 127
1, 197399, Note_on_c, 9, 38, 0
1, 197440, Note_on_c, 9, 42, 42
1, 197459, Note_on_c, 9, 42, 0
1, 197600, Note_on_c, 9, 42, 65
1, 197639, Note_on_c, 9, 42, 0
1, 197760, Note_on_c, 9, 42, 97
1, 197760, Note_on_c, 9, 36, 127
1, 197879, Note_on_c, 9, 42, 0
1, 197920, Note_on_c, 9, 42, 42
1, 197939, Note_on_c, 9, 42, 0
1, 198080, Note_on_c, 9, 42, 65
1, 198119, Note_on_c, 9, 42, 0
1, 198225, Note_on_c, 9, 42, 97
1, 198239, Note_on_c, 9, 36, 0
1, 198240, Note_on_c, 9, 38, 127
1, 198359, Note_on_c, 9, 42, 0
1, 198359, Note_on_c, 9, 38, 0
1, 198400, Note_on_c, 9, 42, 42
1, 198419, Note_on_c, 9, 42, 0
1, 198560, Note_on_c, 9, 42, 65
1, 198599, Note_on_c, 9, 42, 0
1, 198720, Note_on_c, 9, 42, 97
1, 198720, Note_on_c, 9, 36, 127
1, 198839, Note_on_c, 9, 42, 0
1, 198880, Note_on_c, 9, 42, 42
1, 198899, Note_on_c, 9, 42, 0
1, 198959, Note_on_c, 9, 36, 0
1, 199040, Note_on_c, 9, 42, 65
1, 199040, Note_on_c, 9, 36, 127
1, 199079, Note_on_c, 9, 42, 0
1, 199079, Note_on_c, 9, 36, 0
1, 199185, Note_on_c, 9, 42, 97
1, 199199, Note_on_c, 9, 42, 0
1, 199200, Note_on_c, 9, 38, 127
1, 199319, Note_on_c, 9, 38, 0
1, 199360, Note_on_c, 9, 42, 42
1, 199379, Note_on_c, 9, 42, 0
1, 199520, Note_on_c, 9, 42, 65
1, 199559, Note_on_c, 9, 42, 0
1, 199680, Note_on_c, 9, 42, 97
1, 199680, Note_on_c, 9, 36, 127
1, 199799, Note_on_c, 9, 42, 0
1, 199840, Note_on_c, 9, 42, 42
1, 199859, Note_on_c, 9, 42, 0
1, 200000, Note_on_c, 9, 42, 65
1, 200039, Note_on_c, 9, 42, 0
1, 200145, Note_on_c, 9, 42, 97
1, 200159, Note_on_c, 9, 36, 0
1, 200160, Note_on_c, 9, 38, 127
1, 200279, Note_on_c, 9, 42, 0
1, 200279, Note_on_c, 9, 38, 0
1, 200320, Note_on_c, 9, 42, 42
1, 200339, Note_on_c, 9, 42, 0
1, 200480, Note_on_c, 9, 42, 65
1, 200519, Note_on_c, 9, 42, 0
1, 200640, Note_on_c, 9, 42, 97
1, 200640, Note_on_c, 9, 36, 127
1, 200759, Note_on_c, 9, 42, 0
1, 200800, Note_on_c, 9, 42, 42
1, 200819, Note_on_c, 9, 42, 0
1, 200960, Note_on_c, 9, 42, 65
1, 200999, Note_on_c, 9, 42, 0
1, 201105, Note_on_c, 9, 42, 97
1, 201119, Note_on_c, 9, 36, 0
1, 201119, Note_on_c, 9, 42, 0
1, 201120, Note_on_c, 9, 38, 127
1, 201239, Note_on_c, 9, 38, 0
1, 201280, Note_on_c, 9, 42, 42
1, 201299, Note_on_c, 9, 42, 0
1, 201440, Note_on_c, 9, 42, 65
1, 201479, Note_on_c, 9, 42, 0
1, 201600, Note_on_c, 9, 42, 97
1, 201600, Note_on_c, 9, 36, 127
1, 201719, Note_on_c, 9, 42, 0
1, 201760, Note_on_c, 9, 42, 42
1, 201779, Note_on_c, 9, 42, 0
1, 201920, Note_on_c, 9, 42, 65
1, 201959, Note_on_c, 9, 42, 0
1, 202065, Note_on_c, 9, 42, 97
1, 202079, Note_on_c, 9, 36, 0
1, 202080, Note_on_c, 9, 38, 127
1, 202199, Note_on_c, 9, 42, 0
1, 202199, Note_on_c, 9, 38, 0
1, 202240, Note_on_c, 9, 42, 42
1, 202259, Note_on_c, 9, 42, 0
1, 202400, Note_on_c, 9, 42, 65
1, 202439, Note_on_c, 9, 42, 0
1, 202560, Note_on_c, 9, 42, 97
1, 202560, Note_on_c, 9, 36, 127
1, 202679, Note_on_c, 9, 42, 0
1, 202720, Note_on_c, 9, 42, 42
1, 202739, Note_on_c, 9, 42, 0
1, 202799, Note_on_c, 9, 36, 0
1, 202880, Note_on_c, 9, 42, 65
1, 202880, Note_on_c, 9, 36, 127
1, 202919, Note_on_c, 9, 42, 0
1, 202919, Note_on_c, 9, 36, 0
1, 203025, Note_on_c, 9, 42, 97
1, 203039, Note_on_c, 9, 42, 0
1, 203040, Note_on_c, 9, 38, 127
1, 203159, Note_on_c, 9, 38, 0
1, 203200, Note_on_c, 9, 42, 42
1, 203219, Note_on_c, 9, 42, 0
1, 203360, Note_on_c, 9, 42, 65
1, 203399, Note_on_c, 9, 42, 0
1, 203520, Note_on_c, 9, 42, 97
1, 203520, Note_on_c, 9, 36, 127
1, 203639, Note_on_c, 9, 42, 0
1, 203680, Note_on_c, 9, 42, 42
1, 203699, Note_on_c, 9, 42, 0
1, 203840, Note_on_c, 9, 42, 65
1, 203879, Note_on_c, 9, 42, 0
1, 203985, Note_on_c, 9, 42, 97
1, 203999, Note_on_c, 9, 36, 0
1, 204000, Note_on_c, 9, 38, 127
1, 204119, Note_on_c, 9, 42, 0
1, 204119, Note_on_c, 9, 38, 0
1, 204160, Note_on_c, 9, 42, 42
1, 204179, Note_on_c, 9, 42, 0
1, 204320, Note_on_c, 9, 42, 65
1, 204359, Note_on_c, 9, 42, 0
1, 204480, Note_on_c, 9, 42, 97
1, 204480, Note_on_c, 9, 36, 127
1, 204599, Note_on_c, 9, 42, 0
1, 204640, Note_on_c, 9, 42, 42
1, 204659, Note_on_c, 9, 42, 0
1, 204800, Note_on_c, 9, 42, 65
1, 204839, Note_on_c, 9, 42, 0
1, 204945, Note_on_c, 9, 42, 97
1, 204959, Note_on_c, 9, 36, 0
1, 204959, Note_on_c, 9, 42, 0
1, 204960, Note_on_c, 9, 38, 127
1, 205079, Note_on_c, 9, 38, 0
1, 205120, Note_on_c, 9, 42, 42
1, 205139, Note_on_c, 9, 42, 0
1, 205280, Note_on_c, 9, 42, 65
1, 205319, Note_on_c, 9, 42, 0
1, 205440, Note_on_c, 9, 42, 97
1, 205440, Note_on_c, 9, 36, 127
1, 205559, Note_on_c, 9, 42, 0
1, 205600, Note_on_c, 9, 42, 42
1, 205619, Note_on_c, 9, 42, 0
1, 205760, Note_on_c, 9, 42, 65
1, 205799, Note_on_c, 9, 42, 0
1, 205905, Note_on_c, 9, 42, 97
1, 205919, Note_on_c, 9, 36, 0
1, 205920, Note_on_c, 9, 38, 127
1, 206039, Note_on_c, 9, 42, 0
1, 206039, Note_on_c, 9, 38, 0
1, 206080, Note_on_c, 9, 42, 42
1, 206099, Note_on_c, 9, 42, 0
1, 206240, Note_on_c, 9, 42, 65
1, 206279, Note_on_c, 9, 42, 0
1, 206400, Note_on_c, 9, 42, 97
1, 206400, Note_on_c, 9, 36, 127
1, 206519, Note_on_c, 9, 42, 0
1, 206560, Note_on_c, 9, 42, 42
1, 206579, Note_on_c, 9, 42, 0
1, 206639, Note_on_c, 9, 36, 0
1, 206720, Note_on_c, 9, 42, 65
1, 206720, Note_on_c, 9, 36, 127
1, 206759, Note_on_c, 9, 42, 0
1, 206759, Note_on_c, 9, 36, 0
1, 206865, Note_on_c, 9, 42, 97
1, 206879, Note_on_c, 9, 42, 0
1, 206880, Note_on_c, 9, 38, 127
1, 206999, Note_on_c, 9, 38, 0
1, 207040, Note_on_c, 9, 42, 42
1, 207059, Note_on_c, 9, 42, 0
1, 207200, Note_on_c, 9, 42, 65
1, 207239, Note_on_c, 9, 42, 0
1, 207360, Note_on_c, 9, 42, 97
1, 207360, Note_on_c, 9, 36, 127
1, 207479, Note_on_c, 9, 42, 0
1, 207520, Note_on_c, 9, 42, 42
1, 207539, Note_on_c, 9, 42, 0
1, 207680, Note_on_c, 9, 42, 65
1, 207719, Note_on_c, 9, 42, 0
1, 207825, Note_on_c, 9, 42, 97
1, 207839, Note_on_c, 9, 36, 0
1, 207840, Note_on_c, 9, 38, 127
1, 207959, Note_on_c, 9, 42, 0
1, 207959, Note_on_c, 9, 38, 0
1, 208000, Note_on_c, 9, 42, 42
1, 208019, Note_on_c, 9, 42, 0
1, 208160, Note_on_c, 9, 42, 65
1, 208199, Note_on_c, 9, 42, 0
1, 208320, Note_on_c, 9, 42, 97
1, 208320, Note_on_c, 9, 36, 127
1, 208439, Note_on_c, 9, 42, 0
1, 208480, Note_on_c, 9, 42, 42
1, 208499, Note_on_c, 9, 42, 0
1, 208640, Note_on_c, 9, 42, 65
1, 208679, Note_on_c, 9, 42, 0
1, 208785, Note_on_c, 9, 42, 97
1, 208799, Note_on_c, 9, 36, 0
1, 208799, Note_on_c, 9, 42, 0
1, 208800, Note_on_c, 9, 38, 127
1, 208919, Note_on_c, 9, 38, 0
1, 208960, Note_on_c, 9, 42, 42
1, 208979, Note_on_c, 9, 42, 0
1, 209120, Note_on_c, 9, 42, 65
1, 209159, Note_on_c, 9, 42, 0
1, 209280, Note_on_c, 9, 42, 97
1, 209280, Note_on_c, 9, 36, 127
1, 209399, Note_on_c, 9, 42, 0
1, 209440, Note_on_c, 9, 42, 42
1, 209459, Note_on_c, 9, 42, 0
1, 209600, Note_on_c, 9, 42, 65
1, 209639, Note_on_c, 9, 42, 0
1, 209745, Note_on_c, 9, 42, 97
1, 209759, Note_on_c, 9, 36, 0
1, 209760, Note_on_c, 9, 38, 127
1, 209879, Note_on_c, 9, 42, 0
1, 209879, Note_on_c, 9, 38, 0
1, 209920, Note_on_c, 9, 42, 42
1, 209939, Note_on_c, 9, 42, 0
1, 210080, Note_on_c, 9, 42, 65
1, 210119, Note_on_c, 9, 42, 0
1, 210240, Note_on_c, 9, 42, 97
1, 210240, Note_on_c, 9, 36, 127
1, 210359, Note_on_c, 9, 42, 0
1, 210400, Note_on_c, 9, 47, 127
1, 210400, Note_on_c, 9, 42, 42
1, 210419, Note_on_c, 9, 47, 0
1, 210419, Note_on_c, 9, 42, 0
1, 210479, Note_on_c, 9, 36, 0
1, 210560, Note_on_c, 9, 47, 127
1, 210560, Note_on_c, 9, 42, 65
1, 210560, Note_on_c, 9, 36, 127
1, 210599, Note_on_c, 9, 47, 0
1, 210599, Note_on_c, 9, 42, 0
1, 210599, Note_on_c, 9, 36, 0
1, 210705, Note_on_c, 9, 42, 97
1, 210719, Note_on_c, 9, 42, 0
1, 210720, Note_on_c, 9, 38, 127
1, 210720, Note_on_c, 9, 50, 127
1, 210839, Note_on_c, 9, 38, 0
1, 210839, Note_on_c, 9, 50, 0
1, 210880, Note_on_c, 9, 47, 127
1, 210880, Note_on_c, 9, 42, 42
1, 210899, Note_on_c, 9, 47, 0
1, 210899, Note_on_c, 9, 42, 0
1, 211040, Note_on_c, 9, 42, 65
1, 211040, Note_on_c, 9, 43, 127
1, 211079, Note_on_c, 9, 42, 0
1, 211079, Note_on_c, 9, 43, 0
1, 211200, Note_on_c, 9, 42, 97
1, 211200, Note_on_c, 9, 49, 127
1, 211200, Note_on_c, 9, 36, 127
1, 211319, Note_on_c, 9, 42, 0
1, 211319, Note_on_c, 9, 49, 0
1, 211360, Note_on_c, 9, 42, 42
1, 211379, Note_on_c, 9, 42, 0
1, 211520, Note_on_c, 9, 42, 65
1, 211559, Note_on_c, 9, 42, 0
1, 211665, Note_on_c, 9, 42, 97
1, 211679, Note_on_c, 9, 36, 0
1, 211680, Note_on_c, 9, 38, 127
1, 211799, Note_on_c, 9, 42, 0
1, 211799, Note_on_c, 9, 38, 0
1, 211840, Note_on_c, 9, 42, 42
1, 211859, Note_on_c, 9, 42, 0
1, 212000, Note_on_c, 9, 42, 65
1, 212039, Note_on_c, 9, 42, 0
1, 212160, Note_on_c, 9, 42, 97
1, 212160, Note_on_c, 9, 36, 127
1, 212279, Note_on_c, 9, 42, 0
1, 212320, Note_on_c, 9, 42, 42
1, 212339, Note_on_c, 9, 42, 0
1, 212480, Note_on_c, 9, 42, 65
1, 212519, Note_on_c, 9, 42, 0
1, 212625, Note_on_c, 9, 42, 97
1, 212639, Note_on_c, 9, 36, 0
1, 212639, Note_on_c, 9, 42, 0
1, 212640, Note_on_c, 9, 38, 127
1, 212759, Note_on_c, 9, 38, 0
1, 212800, Note_on_c, 9, 42, 42
1, 212819, Note_on_c, 9, 42, 0
1, 212960, Note_on_c, 9, 42, 65
1, 212999, Note_on_c, 9, 42, 0
1, 213120, Note_on_c, 9, 42, 97
1, 213120, Note_on_c, 9, 36, 127
1, 213239, Note_on_c, 9, 42, 0
1, 213280, Note_on_c, 9, 42, 42
1, 213299, Note_on_c, 9, 42, 0
1, 213440, Note_on_c, 9, 42, 65
1, 213479, Note_on_c, 9, 42, 0
1, 213585, Note_on_c, 9, 42, 97
1, 213599, Note_on_c, 9, 36, 0
1, 213600, Note_on_c, 9, 38, 127
1, 213719, Note_on_c, 9, 42, 0
1, 213719, Note_on_c, 9, 38, 0
1, 213760, Note_on_c, 9, 42, 42
1, 213779, Note_on_c, 9, 42, 0
1, 213920, Note_on_c, 9, 42, 65
1, 213959, Note_on_c, 9, 42, 0
1, 214080, Note_on_c, 9, 42, 97
1, 214080, Note_on_c, 9, 36, 127
1, 214199, Note_on_c, 9, 42, 0
1, 214240, Note_on_c, 9, 42, 42
1, 214259, Note_on_c, 9, 42, 0
1, 214319, Note_on_c, 9, 36, 0
1, 214400, Note_on_c, 9, 42, 65
1, 214400, Note_on_c, 9, 36, 127
1, 214439, Note_on_c, 9, 42, 0
1, 214439, Note_on_c, 9, 36, 0
1, 214545, Note_on_c, 9, 42, 97
1, 214559, Note_on_c, 9, 42, 0
1, 214560, Note_on_c, 9, 38, 127
1, 214679, Note_on_c, 9, 38, 0
1, 214720, Note_on_c, 9, 42, 42
1, 214739, Note_on_c, 9, 42, 0
1, 214880, Note_on_c, 9, 42, 65
1, 214919, Note_on_c, 9, 42, 0
1, 215040, Note_on_c, 9, 42, 97
1, 215040, Note_on_c, 9, 36, 127
1, 215159, Note_on_c, 9, 42, 0
1, 215200, Note_on_c, 9, 39, 105
1, 215200, Note_on_c, 9, 42, 42
1, 215219, Note_on_c, 9, 39, 0
1, 215219, Note_on_c, 9, 42, 0
1, 215360, Note_on_c, 9, 39, 115
1, 215360, Note_on_c, 9, 42, 65
1, 215399, Note_on_c, 9, 39, 0
1, 215399, Note_on_c, 9, 42, 0
1, 215505, Note_on_c, 9, 42, 97
1, 215519, Note_on_c, 9, 36, 0
1, 215520, Note_on_c, 9, 38, 127
1, 215520, Note_on_c, 9, 39, 125
1, 215639, Note_on_c, 9, 42, 0
1, 215639, Note_on_c, 9, 38, 0
1, 215639, Note_on_c, 9, 39, 0
1, 215680, Note_on_c, 9, 42, 42
1, 215699, Note_on_c, 9, 42, 0
1, 215840, Note_on_c, 9, 42, 65
1, 215879, Note_on_c, 9, 42, 0
1, 216000, Note_on_c, 9, 42, 97
1, 216000, Note_on_c, 9, 36, 127
1, 216119, Note_on_c, 9, 42, 0
1, 216160, Note_on_c, 9, 42, 42
1, 216179, Note_on_c, 9, 42, 0
1, 216320, Note_on_c, 9, 42, 65
1, 216359, Note_on_c, 9, 42, 0
1, 216465, Note_on_c, 9, 42, 97
1, 216479, Note_on_c, 9, 36, 0
1, 216479, Note_on_c, 9, 42, 0
1, 216480, Note_on_c, 9, 38, 127
1, 216599, Note_on_c, 9, 38, 0
1, 216640, Note_on_c, 9, 42, 42
1, 216659, Note_on_c, 9, 42, 0
1, 216800, Note_on_c, 9, 42, 65
1, 216839, Note_on_c, 9, 42, 0
1, 216960, Note_on_c, 9, 42, 97
1, 216960, Note_on_c, 9, 36, 127
1, 217079, Note_on_c, 9, 42, 0
1, 217120, Note_on_c, 9, 42, 42
1, 217139, Note_on_c, 9, 42, 0
1, 217280, Note_on_c, 9, 42, 65
1, 217319, Note_on_c, 9, 42, 0
1, 217425, Note_on_c, 9, 42, 97
1, 217439, Note_on_c, 9, 36, 0
1, 217440, Note_on_c, 9, 38, 127
1, 217559, Note_on_c, 9, 42, 0
1, 217559, Note_on_c, 9, 38, 0
1, 217600, Note_on_c, 9, 42, 42
1, 217619, Note_on_c, 9, 42, 0
1, 217760, Note_on_c, 9, 42, 65
1, 217799, Note_on_c, 9, 42, 0
1, 217920, Note_on_c, 9, 42, 97
1, 217920, Note_on_c, 9, 36, 127
1, 218039, Note_on_c, 9, 42, 0
1, 218080, Note_on_c, 9, 42, 42
1, 218099, Note_on_c, 9, 42, 0
1, 218159, Note_on_c, 9, 36, 0
1, 218240, Note_on_c, 9, 42, 65
1, 218240, Note_on_c, 9, 36, 127
1, 218279, Note_on_c, 9, 42, 0
1, 218279, Note_on_c, 9, 36, 0
1, 218385, Note_on_c, 9, 42, 97
1, 218399, Note_on_c, 9, 42, 0
1, 218400, Note_on_c, 9, 38, 127
1, 218519, Note_on_c, 9, 38, 0
1, 218560, Note_on_c, 9, 42, 42
1, 218579, Note_on_c, 9, 42, 0
1, 218720, Note_on_c, 9, 42, 65
1, 218759, Note_on_c, 9, 42, 0
1, 218880, Note_on_c, 9, 42, 97
1, 218880, Note_on_c, 9, 49, 127
1, 218880, Note_on_c, 9, 36, 127
1, 218999, Note_on_c, 9, 42, 0
1, 218999, Note_on_c, 9, 49, 0
1, 219040, Note_on_c, 9, 42, 42
1, 219059, Note_on_c, 9, 42, 0
1, 219200, Note_on_c, 9, 42, 65
1, 219239, Note_on_c, 9, 42, 0
1, 219345, Note_on_c, 9, 42, 97
1, 219359, Note_on_c, 9, 36, 0
1, 219360, Note_on_c, 9, 38, 127
1, 219479, Note_on_c, 9, 42, 0
1, 219479, Note_on_c, 9, 38, 0
1, 219520, Note_on_c, 9, 42, 42
1, 219539, Note_on_c, 9, 42, 0
1, 219680, Note_on_c, 9, 42, 65
1, 219719, Note_on_c, 9, 42, 0
1, 219840, Note_on_c, 9, 42, 97
1, 219840, Note_on_c, 9, 36, 127
1, 219959, Note_on_c, 9, 42, 0
1, 220000, Note_on_c, 9, 42, 42
1, 220019, Note_on_c, 9, 42, 0
1, 220160, Note_on_c, 9, 42, 65
1, 220199, Note_on_c, 9, 42, 0
1, 220305, Note_on_c, 9, 42, 97
1, 220319, Note_on_c, 9, 36, 0
1, 220319, Note_on_c, 9, 42, 0
1, 220320, Note_on_c, 9, 38, 127
1, 220439, Note_on_c, 9, 38, 0
1, 220480, Note_on_c, 9, 42, 42
1, 220499, Note_on_c, 9, 42, 0
1, 220640, Note_on_c, 9, 42, 65
1, 220679, Note_on_c, 9, 42, 0
1, 220800, Note_on_c, 9, 42, 97
1, 220800, Note_on_c, 9, 36, 127
1, 220919, Note_on_c, 9, 42, 0
1, 220960, Note_on_c, 9, 42, 42
1, 220979, Note_on_c, 9, 42, 0
1, 221120, Note_on_c, 9, 42, 65
1, 221159, Note_on_c, 9, 42, 0
1, 221265, Note_on_c, 9, 42, 97
1, 221279, Note_on_c, 9, 36, 0
1, 221280, Note_on_c, 9, 38, 127
1, 221399, Note_on_c, 9, 42, 0
1, 221399, Note_on_c, 9, 38, 0
1, 221440, Note_on_c, 9, 42, 42
1, 221459, Note_on_c, 9, 42, 0
1, 221600, Note_on_c, 9, 42, 65
1, 221639, Note_on_c, 9, 42, 0
1, 221760, Note_on_c, 9, 42, 97
1, 221760, Note_on_c, 9, 36, 127
1, 221879, Note_on_c, 9, 42, 0
1, 221920, Note_on_c, 9, 42, 42
1, 221939, Note_on_c, 9, 42, 0
1, 221999, Note_on_c, 9, 36, 0
1, 222080, Note_on_c, 9, 42, 65
1, 222080, Note_on_c, 9, 36, 127
1, 222119, Note_on_c, 9, 42, 0
1, 222119, Note_on_c, 9, 36, 0
1, 222225, Note_on_c, 9, 42, 97
1, 222239, Note_on_c, 9, 42, 0
1, 222240, Note_on_c, 9, 38, 127
1, 222359, Note_on_c, 9, 38, 0
1, 222400, Note_on_c, 9, 42, 42
1, 222419, Note_on_c, 9, 42, 0
1, 222560, Note_on_c, 9, 42, 65
1, 222599, Note_on_c, 9, 42, 0
1, 222720, Note_on_c, 9, 42, 97
1, 222720, Note_on_c, 9, 36, 127
1, 222839, Note_on_c, 9, 42, 0
1, 222880, Note_on_c, 9, 39, 105
1, 222880, Note_on_c, 9, 42, 42
1, 222899, Note_on_c, 9, 39, 0
1, 222899, Note_on_c, 9, 42, 0
1, 223040, Note_on_c, 9, 39, 115
1, 223040, Note_on_c, 9, 42, 65
1, 223079, Note_on_c, 9, 39, 0
1, 223079, Note_on_c, 9, 42, 0
1, 223185, Note_on_c, 9, 42, 97
1, 223199, Note_on_c, 9, 36, 0
1, 223200, Note_on_c, 9, 38, 127
1, 223200, Note_on_c, 9, 39, 125
1, 223319, Note_on_c, 9, 42, 0
1, 223319, Note_on_c, 9, 38, 0
1, 223319, Note_on_c, 9, 39, 0
1, 223360, Note_on_c, 9, 42, 42
1, 223379, Note_on_c, 9, 42, 0
1, 223520, Note_on_c, 9, 42, 65
1, 223559, Note_on_c, 9, 42, 0
1, 223680, Note_on_c, 9, 42, 97
1, 223680, Note_on_c, 9, 36, 127
1, 223799, Note_on_c, 9, 42, 0
1, 223840, Note_on_c, 9, 42, 42
1, 223859, Note_on_c, 9, 42, 0
1, 224000, Note_on_c, 9, 42, 65
1, 224039, Note_on_c, 9, 42, 0
1, 224145, Note_on_c, 9, 42, 97
1, 224159, Note_on_c, 9, 36, 0
1, 224159, Note_on_c, 9, 42, 0
1, 224160, Note_on_c, 9, 38, 127
1, 224279, Note_on_c, 9, 38, 0
1, 224320, Note_on_c, 9, 42, 42
1, 224339, Note_on_c, 9, 42, 0
1, 224480, Note_on_c, 9, 42, 65
1, 224519, Note_on_c, 9, 42, 0
1, 224640, Note_on_c, 9, 42, 97
1, 224640, Note_on_c, 9, 36, 127
1, 224759, Note_on_c, 9, 42, 0
1, 224800, Note_on_c, 9, 42, 42
1, 224819, Note_on_c, 9, 42, 0
1, 224960, Note_on_c, 9, 42, 65
1, 224999, Note_on_c, 9, 42, 0
1, 225105, Note_on_c, 9, 42, 97
1, 225119, Note_on_c, 9, 36, 0
1, 225120, Note_on_c, 9, 38, 127
1, 225239, Note_on_c, 9, 42, 0
1, 225239, Note_on_c, 9, 38, 0
1, 225280, Note_on_c, 9, 42, 42
1, 225299, Note_on_c, 9, 42, 0
1, 225440, Note_on_c, 9, 42, 65
1, 225479, Note_on_c, 9, 42, 0
1, 225600, Note_on_c, 9, 42, 97
1, 225600, Note_on_c, 9, 36, 127
1, 225719, Note_on_c, 9, 42, 0
1, 225760, Note_on_c, 9, 42, 42
1, 225779, Note_on_c, 9, 42, 0
1, 225839, Note_on_c, 9, 36, 0
1, 225920, Note_on_c, 9, 42, 65
1, 225920, Note_on_c, 9, 36, 127
1, 225959, Note_on_c, 9, 42, 0
1, 225959, Note_on_c, 9, 36, 0
1, 226065, Note_on_c, 9, 42, 97
1, 226079, Note_on_c, 9, 42, 0
1, 226080, Note_on_c, 9, 38, 127
1, 226199, Note_on_c, 9, 38, 0
1, 226240, Note_on_c, 9, 42, 42
1, 226259, Note_on_c, 9, 42, 0
1, 226400, Note_on_c, 9, 42, 65
1, 226439, Note_on_c, 9, 42, 0
1, 226560, Note_on_c, 9, 42, 97
1, 226560, Note_on_c, 9, 49, 127
1, 226560, Note_on_c, 9, 36, 127
1, 226679, Note_on_c, 9, 42, 0
1, 226679, Note_on_c, 9, 49, 0
1, 226720, Note_on_c, 9, 42, 42
1, 226739, Note_on_c, 9, 42, 0
1, 226880, Note_on_c, 9, 42, 65
1, 226919, Note_on_c, 9, 42, 0
1, 227025, Note_on_c, 9, 42, 97
1, 227039, Note_on_c, 9, 36, 0
1, 227040, Note_on_c, 9, 38, 127
1, 227159, Note_on_c, 9, 42, 0
1, 227159, Note_on_c, 9, 38, 0
1, 227200, Note_on_c, 9, 42, 42
1, 227219, Note_on_c, 9, 42, 0
1, 227360, Note_on_c, 9, 42, 65
1, 227399, Note_on_c, 9, 42, 0
1, 227520, Note_on_c, 9, 42, 97
1, 227520, Note_on_c, 9, 36, 127
1, 227639, Note_on_c, 9, 42, 0
1, 227680, Note_on_c, 9, 42, 42
1, 227699, Note_on_c, 9, 42, 0
1, 227840, Note_on_c, 9, 42, 65
1, 227879, Note_on_c, 9, 42, 0
1, 227985, Note_on_c, 9, 42, 97
1, 227999, Note_on_c, 9, 36, 0
1, 227999, Note_on_c, 9, 42, 0
1, 228000, Note_on_c, 9, 38, 127
1, 228119, Note_on_c, 9, 38, 0
1, 228160, Note_on_c, 9, 42, 42
1, 228179, Note_on_c, 9, 42, 0
1, 228320, Note_on_c, 9, 42, 65
1, 228359, Note_on_c, 9, 42, 0
1, 228480, Note_on_c, 9, 42, 97
1, 228480, Note_on_c, 9, 36, 127
1, 228599, Note_on_c, 9, 42, 0
1, 228640, Note_on_c, 9, 42, 42
1, 228659, Note_on_c, 9, 42, 0
1, 228800, Note_on_c, 9, 42, 65
1, 228839, Note_on_c, 9, 42, 0
1, 228945, Note_on_c, 9, 42, 97
1, 228959, Note_on_c, 9, 36, 0
1, 228960, Note_on_c, 9, 38, 127
1, 229079, Note_on_c, 9, 42, 0
1, 229079, Note_on_c, 9, 38, 0
1, 229120, Note_on_c, 9, 42, 42
1, 229139, Note_on_c, 9, 42, 0
1, 229280, Note_on_c, 9, 42, 65
1, 229319, Note_on_c, 9, 42, 0
1, 229440, Note_on_c, 9, 42, 97
1, 229440, Note_on_c, 9, 36, 127
1, 229559, Note_on_c, 9, 42, 0
1, 229600, Note_on_c, 9, 42, 42
1, 229619, Note_on_c, 9, 42, 0
1, 229679, Note_on_c, 9, 36, 0
1, 229760, Note_on_c, 9, 42, 65
1, 229760, Note_on_c, 9, 36, 127
1, 229799, Note_on_c, 9, 42, 0
1, 229799, Note_on_c, 9, 36, 0
1, 229905, Note_on_c, 9, 42, 97
1, 229919, Note_on_c, 9, 42, 0
1, 229920, Note_on_c, 9, 38, 127
1, 230039, Note_on_c, 9, 38, 0
1, 230080, Note_on_c, 9, 42, 42
1, 230099, Note_on_c, 9, 42, 0
1, 230240, Note_on_c, 9, 42, 65
1, 230279, Note_on_c, 9, 42, 0
1, 230400, Note_on_c, 9, 42, 97
1, 230400, Note_on_c, 9, 36, 127
1, 230519, Note_on_c, 9, 42, 0
1, 230560, Note_on_c, 9, 39, 105
1, 230560, Note_on_c, 9, 42, 42
1, 230579, Note_on_c, 9, 39, 0
1, 230579, Note_on_c, 9, 42, 0
1, 230720, Note_on_c, 9, 39, 115
1, 230720, Note_on_c, 9, 42, 65
1, 230759, Note_on_c, 9, 39, 0
1, 230759, Note_on_c, 9, 42, 0
1, 230865, Note_on_c, 9, 42, 97
1, 230879, Note_on_c, 9, 36, 0
1, 230880, Note_on_c, 9, 38, 127
1, 230880, Note_on_c, 9, 39, 125
1, 230999, Note_on_c, 9, 42, 0
1, 230999, Note_on_c, 9, 38, 0
1, 230999, Note_on_c, 9, 39, 0
1, 231040, Note_on_c, 9, 42, 42
1, 231059, Note_on_c, 9, 42, 0
1, 231200, Note_on_c, 9, 42, 65
1, 231239, Note_on_c, 9, 42, 0
1, 231360, Note_on_c, 9, 42, 97
1, 231360, Note_on_c, 9, 36, 127
1, 231479, Note_on_c, 9, 42, 0
1, 231520, Note_on_c, 9, 42, 42
1, 231539, Note_on_c, 9, 42, 0
1, 231680, Note_on_c, 9, 42, 65
1, 231719, Note_on_c, 9, 42, 0
1, 231825, Note_on_c, 9, 42, 97
1, 231839, Note_on_c, 9, 36, 0
1, 231839, Note_on_c, 9, 42, 0
1, 231840, Note_on_c, 9, 38, 127
1, 231959, Note_on_c, 9, 38, 0
1, 232000, Note_on_c, 9, 42, 42
1, 232019, Note_on_c, 9, 42, 0
1, 232160, Note_on_c, 9, 42, 65
1, 232199, Note_on_c, 9, 42, 0
1, 232320, Note_on_c, 9, 42, 97
1, 232320, Note_on_c, 9, 36, 127
1, 232439, Note_on_c, 9, 42, 0
1, 232480, Note_on_c, 9, 42, 42
1, 232499, Note_on_c, 9, 42, 0
1, 232640, Note_on_c, 9, 42, 65
1, 232679, Note_on_c, 9, 42, 0
1, 232785, Note_on_c, 9, 42, 97
1, 232799, Note_on_c, 9, 36, 0
1, 232800, Note_on_c, 9, 38, 127
1, 232919, Note_on_c, 9, 42, 0
1, 232919, Note_on_c, 9, 38, 0
1, 232960, Note_on_c, 9, 42, 42
1, 232979, Note_on_c, 9, 42, 0
1, 233120, Note_on_c, 9, 42, 65
1, 233159, Note_on_c, 9, 42, 0
1, 233280, Note_on_c, 9, 42, 97
1, 233280, Note_on_c, 9, 36, 127
1, 233399, Note_on_c, 9, 42, 0
1, 233440, Note_on_c, 9, 42, 42
1, 233459, Note_on_c, 9, 42, 0
1, 233519, Note_on_c, 9, 36, 0
1, 233600, Note_on_c, 9, 42, 65
1, 233600, Note_on_c, 9, 36, 127
1, 233639, Note_on_c, 9, 42, 0
1, 233639, Note_on_c, 9, 36, 0
1, 233745, Note_on_c, 9, 42, 97
1, 233759, Note_on_c, 9, 42, 0
1, 233760, Note_on_c, 9, 38, 127
1, 233879, Note_on_c, 9, 38, 0
1, 233920, Note_on_c, 9, 42, 42
1, 233939, Note_on_c, 9, 42, 0
1, 234080, Note_on_c, 9, 42, 65
1, 234119, Note_on_c, 9, 42, 0
1, 234240, Note_on_c, 9, 42, 97
1, 234240, Note_on_c, 9, 49, 127
1, 234240, Note_on_c, 9, 36, 127
1, 234359, Note_on_c, 9, 42, 0
1, 234359, Note_on_c, 9, 49, 0
1, 234400, Note_on_c, 9, 42, 42
1, 234419, Note_on_c, 9, 42, 0
1, 234560, Note_on_c, 9, 42, 65
1, 234599, Note_on_c, 9, 42, 0
1, 234705, Note_on_c, 9, 42, 97
1, 234719, Note_on_c, 9, 36, 0
1, 234720, Note_on_c, 9, 38, 127
1, 234839, Note_on_c, 9, 42, 0
1, 234839, Note_on_c, 9, 38, 0
1, 234880, Note_on_c, 9, 42, 42
1, 234899, Note_on_c, 9, 42, 0
1, 235040, Note_on_c, 9, 42, 65
1, 235079, Note_on_c, 9, 42, 0
1, 235200, Note_on_c, 9, 42, 97
1, 235200, Note_on_c, 9, 36, 127
1, 235319, Note_on_c, 9, 42, 0
1, 235360, Note_on_c, 9, 42, 42
1, 235379, Note_on_c, 9, 42, 0
1, 235520, Note_on_c, 9, 42, 65
1, 235559, Note_on_c, 9, 42, 0
1, 235665, Note_on_c, 9, 42, 97
1, 235679, Note_on_c, 9, 36, 0
1, 235679, Note_on_c, 9, 42, 0
1, 235680, Note_on_c, 9, 38, 127
1, 235799, Note_on_c, 9, 38, 0
1, 235840, Note_on_c, 9, 42, 42
1, 235859, Note_on_c, 9, 42, 0
1, 236000, Note_on_c, 9, 42, 65
1, 236039, Note_on_c, 9, 42, 0
1, 236160, Note_on_c, 9, 42, 97
1, 236160, Note_on_c, 9, 36, 127
1, 236279, Note_on_c, 9, 42, 0
1, 236320, Note_on_c, 9, 42, 42
1, 236339, Note_on_c, 9, 42, 0
1, 236480, Note_on_c, 9, 42, 65
1, 236519, Note_on_c, 9, 42, 0
1, 236625, Note_on_c, 9, 42, 97
1, 236639, Note_on_c, 9, 36, 0
1, 236640, Note_on_c, 9, 38, 127
1, 236759, Note_on_c, 9, 42, 0
1, 236759, Note_on_c, 9, 38, 0
1, 236800, Note_on_c, 9, 42, 42
1, 236819, Note_on_c, 9, 42, 0
1, 236960, Note_on_c, 9, 42, 65
1, 236999, Note_on_c, 9, 42, 0
1, 237120, Note_on_c, 9, 42, 97
1, 237120, Note_on_c, 9, 36, 127
1, 237239, Note_on_c, 9, 42, 0
1, 237280, Note_on_c, 9, 42, 42
1, 237299, Note_on_c, 9, 42, 0
1, 237359, Note_on_c, 9, 36, 0
1, 237440, Note_on_c, 9, 42, 65
1, 237440, Note_on_c, 9, 36, 127
1, 237479, Note_on_c, 9, 42, 0
1, 237479, Note_on_c, 9, 36, 0
1, 237585, Note_on_c, 9, 42, 97
1, 237599, Note_on_c, 9, 42, 0
1, 237600, Note_on_c, 9, 38, 127
1, 237719, Note_on_c, 9, 38, 0
1, 237760, Note_on_c, 9, 42, 42
1, 237779, Note_on_c, 9, 42, 0
1, 237920, Note_on_c, 9, 42, 65
1, 237959, Note_on_c, 9, 42, 0
1, 238080, Note_on_c, 9, 42, 97
1, 238080, Note_on_c, 9, 36, 127
1, 238199, Note_on_c, 9, 42, 0
1, 238240, Note_on_c, 9, 39, 105
1, 238240, Note_on_c, 9, 42, 42
1, 238259, Note_on_c, 9, 39, 0
1, 238259, Note_on_c, 9, 42, 0
1, 238400, Note_on_c, 9, 39, 115
1, 238400, Note_on_c, 9, 42, 65
1, 238439, Note_on_c, 9, 39, 0
1, 238439, Note_on_c, 9, 42, 0
1, 238545, Note_on_c, 9, 42, 97
1, 238559, Note_on_c, 9, 36, 0
1, 238560, Note_on_c, 9, 38, 127
1, 238560, Note_on_c, 9, 39, 125
1, 238679, Note_on_c, 9, 42, 0
1, 238679, Note_on_c, 9, 38, 0
1, 238679, Note_on_c, 9, 39, 0
1, 238720, Note_on_c, 9, 42, 42
1, 238739, Note_on_c, 9, 42, 0
1, 238880, Note_on_c, 9, 42, 65
1, 238919, Note_on_c, 9, 42, 0
1, 239040, Note_on_c, 9, 42, 97
1, 239040, Note_on_c, 9, 36, 127
1, 239159, Note_on_c, 9, 42, 0
1, 239200, Note_on_c, 9, 42, 42
1, 239219, Note_on_c, 9, 42, 0
1, 239360, Note_on_c, 9, 42, 65
1, 239399, Note_on_c, 9, 42, 0
1, 239505, Note_on_c, 9, 42, 97
1, 239519, Note_on_c, 9, 36, 0
1, 239519, Note_on_c, 9, 42, 0
1, 239520, Note_on_c, 9, 38, 127
1, 239639, Note_on_c, 9, 38, 0
1, 239680, Note_on_c, 9, 42, 42
1, 239699, Note_on_c, 9, 42, 0
1, 239840, Note_on_c, 9, 42, 65
1, 239879, Note_on_c, 9, 42, 0
1, 240000, Note_on_c, 9, 42, 97
1, 240000, Note_on_c, 9, 36, 127
1, 240119, Note_on_c, 9, 42, 0
1, 240160, Note_on_c, 9, 42, 42
1, 240179, Note_on_c, 9, 42, 0
1, 240320, Note_on_c, 9, 42, 65
1, 240359, Note_on_c, 9, 42, 0
1, 240465, Note_on_c, 9, 42, 97
1, 240479, Note_on_c, 9, 36, 0
1, 240480, Note_on_c, 9, 38, 127
1, 240599, Note_on_c, 9, 42, 0
1, 240599, Note_on_c, 9, 38, 0
1, 240640, Note_on_c, 9, 42, 42
1, 240659, Note_on_c, 9, 42, 0
1, 240800, Note_on_c, 9, 42, 65
1, 240839, Note_on_c, 9, 42, 0
1, 240960, Note_on_c, 9, 42, 97
1, 240960, Note_on_c, 9, 36, 127
1, 241079, Note_on_c, 9, 42, 0
1, 241120, Note_on_c, 9, 42, 42
1, 241139, Note_on_c, 9, 42, 0
1, 241199, Note_on_c, 9, 36, 0
1, 241280, Note_on_c, 9, 42, 65
1, 241280, Note_on_c, 9, 36, 127
1, 241319, Note_on_c, 9, 42, 0
1, 241319, Note_on_c, 9, 36, 0
1, 241425, Note_on_c, 9, 42, 97
1, 241439, Note_on_c, 9, 42, 0
1, 241440, Note_on_c, 9, 38, 127
1, 241559, Note_on_c, 9, 38, 0
1, 241600, Note_on_c, 9, 42, 42
1, 241619, Note_on_c, 9, 42, 0
1, 241760, Note_on_c, 9, 42, 65
1, 241799, Note_on_c, 9, 42, 0
1, 241920, Note_on_c, 9, 42, 97
1, 241920, Note_on_c, 9, 36, 127
1, 241920, Note_on_c, 9, 43, 127
1, 242039, Note_on_c, 9, 42, 0
1, 242080, Note_on_c, 9, 42, 42
1, 242099, Note_on_c, 9, 42, 0
1, 242240, Note_on_c, 9, 42, 65
1, 242279, Note_on_c, 9, 42, 0
1, 242385, Note_on_c, 9, 42, 97
1, 242399, Note_on_c, 9, 36, 0
1, 242399, Note_on_c, 9, 43, 0
1, 242400, Note_on_c, 9, 38, 127
1, 242519, Note_on_c, 9, 42, 0
1, 242519, Note_on_c, 9, 38, 0
1, 242560, Note_on_c, 9, 42, 42
1, 242579, Note_on_c, 9, 42, 0
1, 242720, Note_on_c, 9, 42, 65
1, 242759, Note_on_c, 9, 42, 0
1, 242880, Note_on_c, 9, 42, 97
1, 242880, Note_on_c, 9, 36, 127
1, 242999, Note_on_c, 9, 42, 0
1, 243040, Note_on_c, 9, 50, 127
1, 243040, Note_on_c, 9, 42, 42
1, 243059, Note_on_c, 9, 50, 0
1, 243059, Note_on_c, 9, 42, 0
1, 243200, Note_on_c, 9, 47, 127
1, 243200, Note_on_c, 9, 42, 65
1, 243239, Note_on_c, 9, 47, 0
1, 243239, Note_on_c, 9, 42, 0
1, 243345, Note_on_c, 9, 42, 97
1, 243359, Note_on_c, 9, 36, 0
1, 243359, Note_on_c, 9, 42, 0
1, 243360, Note_on_c, 9, 38, 127
1, 243360, Note_on_c, 9, 43, 127
1, 243479, Note_on_c, 9, 38, 0
1, 243520, Note_on_c, 9, 47, 127
1, 243520, Note_on_c, 9, 42, 42
1, 243539, Note_on_c, 9, 47, 0
1, 243539, Note_on_c, 9, 42, 0
1, 243599, Note_on_c, 9, 43, 0
1, 243680, Note_on_c, 9, 42, 65
1, 243680, Note_on_c, 9, 43, 127
1, 243719, Note_on_c, 9, 42, 0
1, 243719, Note_on_c, 9, 43, 0
1, 243840, Note_on_c, 9, 42, 97
1, 243840, Note_on_c, 9, 49, 127
1, 243840, Note_on_c, 9, 36, 127
1, 244319, Note_on_c, 9, 42, 0
1, 244319, Note_on_c, 9, 49, 0
1, 244319, Note_on_c, 9, 36, 0
1, 244320, End_track
0, 0, End_of_file
