0, 0, Header, 1, 9, 480
1, 0, Start_track
1, 0, Time_signature, 4, 2, 24, 8
1, 0, Key_signature, 0, "major"
1, 0, Tempo, 555556
1, 0, Control_c, 9, 121, 0
1, 0, Program_c, 9, 0
1, 0, Control_c, 9, 7, 100
1, 0, Control_c, 9, 10, 64
1, 0, Control_c, 9, 91, 0
1, 0, Control_c, 9, 93, 0
1, 0, MIDI_port, 0
1, 3840, Note_on_c, 9, 36, 127
1, 4319, Note_on_c, 9, 36, 0
1, 4320, Note_on_c, 9, 36, 127
1, 4799, Note_on_c, 9, 36, 0
1, 4800, Note_on_c, 9, 36, 127
1, 5279, Note_on_c, 9, 36, 0
1, 5280, Note_on_c, 9, 36, 127
1, 5759, Note_on_c, 9, 36, 0
1, 5760, Note_on_c, 9, 36, 127
1, 6239, Note_on_c, 9, 36, 0
1, 6240, Note_on_c, 9, 36, 127
1, 6719, Note_on_c, 9, 36, 0
1, 6720, Note_on_c, 9, 36, 127
1, 7199, Note_on_c, 9, 36, 0
1, 7200, Note_on_c, 9, 36, 127
1, 7679, Note_on_c, 9, 36, 0
1, 7680, Note_on_c, 9, 36, 127
1, 8159, Note_on_c, 9, 36, 0
1, 8160, Note_on_c, 9, 36, 127
1, 8639, Note_on_c, 9, 36, 0
1, 8640, Note_on_c, 9, 36, 127
1, 9119, Note_on_c, 9, 36, 0
1, 9120, Note_on_c, 9, 36, 127
1, 9599, Note_on_c, 9, 36, 0
1, 9600, Note_on_c, 9, 36, 127
1, 10079, Note_on_c, 9, 36, 0
1, 10080, Note_on_c, 9, 36, 127
1, 10559, Note_on_c, 9, 36, 0
1, 10560, Note_on_c, 9, 36, 127
1, 11039, Note_on_c, 9, 36, 0
1, 11040, Note_on_c, 9, 36, 127
1, 11519, Note_on_c, 9, 36, 0
1, 11520, Note_on_c, 9, 36, 127
1, 11999, Note_on_c, 9, 36, 0
1, 12480, Note_on_c, 9, 36, 127
1, 12959, Note_on_c, 9, 36, 0
1, 13440, Note_on_c, 9, 36, 127
1, 13919, Note_on_c, 9, 36, 0
1, 14400, Note_on_c, 9, 36, 127
1, 14879, Note_on_c, 9, 36, 0
1, 15360, Note_on_c, 9, 36, 127
1, 15839, Note_on_c, 9, 36, 0
1, 16320, Note_on_c, 9, 36, 127
1, 16799, Note_on_c, 9, 36, 0
1, 17280, Note_on_c, 9, 36, 127
1, 17759, Note_on_c, 9, 36, 0
1, 18240, Note_on_c, 9, 36, 127
1, 18719, Note_on_c, 9, 36, 0
1, 19200, Note_on_c, 9, 36, 127
1, 19679, Note_on_c, 9, 36, 0
1, 20160, Note_on_c, 9, 36, 127
1, 20639, Note_on_c, 9, 36, 0
1, 21120, Note_on_c, 9, 36, 127
1, 21599, Note_on_c, 9, 36, 0
1, 22080, Note_on_c, 9, 36, 127
1, 22559, Note_on_c, 9, 36, 0
1, 23040, Note_on_c, 9, 36, 127
1, 23519, Note_on_c, 9, 36, 0
1, 24000, Note_on_c, 9, 36, 127
1, 24479, Note_on_c, 9, 36, 0
1, 24960, Note_on_c, 9, 36, 127
1, 25439, Note_on_c, 9, 36, 0
1, 25920, Note_on_c, 9, 36, 127
1, 26399, Note_on_c, 9, 36, 0
1, 26880, Note_on_c, 9, 36, 127
1, 27359, Note_on_c, 9, 36, 0
1, 27840, Note_on_c, 9, 36, 127
1, 28319, Note_on_c, 9, 36, 0
1, 28800, Note_on_c, 9, 36, 127
1, 29279, Note_on_c, 9, 36, 0
1, 29760, Note_on_c, 9, 36, 127
1, 30239, Note_on_c, 9, 36, 0
1, 30720, Note_on_c, 9, 36, 127
1, 31199, Note_on_c, 9, 36, 0
1, 31680, Note_on_c, 9, 36, 127
1, 32159, Note_on_c, 9, 36, 0
1, 32640, Note_on_c, 9, 36, 127
1, 33119, Note_on_c, 9, 36, 0
1, 33600, Note_on_c, 9, 36, 127
1, 34079, Note_on_c, 9, 36, 0
1, 34560, Note_on_c, 9, 36, 127
1, 35039, Note_on_c, 9, 36, 0
1, 35520, Note_on_c, 9, 36, 127
1, 35999, Note_on_c, 9, 36, 0
1, 36480, Note_on_c, 9, 36, 127
1, 36959, Note_on_c, 9, 36, 0
1, 37440, Note_on_c, 9, 36, 127
1, 37919, Note_on_c, 9, 36, 0
1, 38400, Note_on_c, 9, 36, 127
1, 38879, Note_on_c, 9, 36, 0
1, 39360, Note_on_c, 9, 36, 127
1, 39839, Note_on_c, 9, 36, 0
1, 40320, Note_on_c, 9, 36, 127
1, 40799, Note_on_c, 9, 36, 0
1, 41280, Note_on_c, 9, 36, 127
1, 41759, Note_on_c, 9, 36, 0
1, 42240, Note_on_c, 9, 36, 127
1, 42719, Note_on_c, 9, 36, 0
1, 43200, Note_on_c, 9, 36, 127
1, 43679, Note_on_c, 9, 36, 0
1, 44160, Note_on_c, 9, 36, 127
1, 44639, Note_on_c, 9, 36, 0
1, 45120, Note_on_c, 9, 36, 127
1, 45599, Note_on_c, 9, 36, 0
1, 46080, Note_on_c, 9, 36, 127
1, 46559, Note_on_c, 9, 36, 0
1, 47040, Note_on_c, 9, 36, 127
1, 47519, Note_on_c, 9, 36, 0
1, 48000, Note_on_c, 9, 36, 127
1, 48479, Note_on_c, 9, 36, 0
1, 48960, Note_on_c, 9, 36, 127
1, 49439, Note_on_c, 9, 36, 0
1, 49920, Note_on_c, 9, 36, 127
1, 50399, Note_on_c, 9, 36, 0
1, 50880, Note_on_c, 9, 36, 127
1, 51359, Note_on_c, 9, 36, 0
1, 51840, Note_on_c, 9, 36, 127
1, 52319, Note_on_c, 9, 36, 0
1, 52800, Note_on_c, 9, 36, 127
1, 53279, Note_on_c, 9, 36, 0
1, 53760, Note_on_c, 9, 36, 127
1, 54239, Note_on_c, 9, 36, 0
1, 54720, Note_on_c, 9, 36, 127
1, 55199, Note_on_c, 9, 36, 0
1, 55680, Note_on_c, 9, 36, 127
1, 56159, Note_on_c, 9, 36, 0
1, 56640, Note_on_c, 9, 36, 127
1, 57119, Note_on_c, 9, 36, 0
1, 57600, Note_on_c, 9, 36, 127
1, 58079, Note_on_c, 9, 36, 0
1, 58560, Note_on_c, 9, 36, 127
1, 59039, Note_on_c, 9, 36, 0
1, 59520, Note_on_c, 9, 36, 127
1, 59999, Note_on_c, 9, 36, 0
1, 60480, Note_on_c, 9, 36, 127
1, 60959, Note_on_c, 9, 36, 0
1, 61440, Note_on_c, 9, 36, 127
1, 61919, Note_on_c, 9, 36, 0
1, 62160, Note_on_c, 9, 36, 119
1, 62399, Note_on_c, 9, 36, 0
1, 62400, Note_on_c, 9, 36, 127
1, 62879, Note_on_c, 9, 36, 0
1, 63360, Note_on_c, 9, 36, 127
1, 63839, Note_on_c, 9, 36, 0
1, 64320, Note_on_c, 9, 36, 127
1, 64799, Note_on_c, 9, 36, 0
1, 65280, Note_on_c, 9, 36, 127
1, 65759, Note_on_c, 9, 36, 0
1, 66240, Note_on_c, 9, 36, 127
1, 66719, Note_on_c, 9, 36, 0
1, 67200, Note_on_c, 9, 36, 127
1, 67679, Note_on_c, 9, 36, 0
1, 68160, Note_on_c, 9, 36, 127
1, 68639, Note_on_c, 9, 36, 0
1, 69120, Note_on_c, 9, 36, 127
1, 69599, Note_on_c, 9, 36, 0
1, 70080, Note_on_c, 9, 36, 127
1, 70559, Note_on_c, 9, 36, 0
1, 71040, Note_on_c, 9, 36, 127
1, 71519, Note_on_c, 9, 36, 0
1, 72000, Note_on_c, 9, 36, 127
1, 72479, Note_on_c, 9, 36, 0
1, 72960, Note_on_c, 9, 36, 127
1, 73439, Note_on_c, 9, 36, 0
1, 73920, Note_on_c, 9, 36, 127
1, 74399, Note_on_c, 9, 36, 0
1, 74880, Note_on_c, 9, 36, 127
1, 75359, Note_on_c, 9, 36, 0
1, 75840, Note_on_c, 9, 36, 127
1, 76319, Note_on_c, 9, 36, 0
1, 76800, Note_on_c, 9, 36, 127
1, 77279, Note_on_c, 9, 36, 0
1, 77760, Note_on_c, 9, 36, 127
1, 78239, Note_on_c, 9, 36, 0
1, 78720, Note_on_c, 9, 36, 127
1, 79199, Note_on_c, 9, 36, 0
1, 79680, Note_on_c, 9, 36, 127
1, 80159, Note_on_c, 9, 36, 0
1, 80640, Note_on_c, 9, 36, 127
1, 81119, Note_on_c, 9, 36, 0
1, 81600, Note_on_c, 9, 36, 127
1, 82079, Note_on_c, 9, 36, 0
1, 82560, Note_on_c, 9, 36, 127
1, 83039, Note_on_c, 9, 36, 0
1, 83520, Note_on_c, 9, 36, 127
1, 83999, Note_on_c, 9, 36, 0
1, 84480, Note_on_c, 9, 36, 127
1, 84959, Note_on_c, 9, 36, 0
1, 85440, Note_on_c, 9, 36, 127
1, 85919, Note_on_c, 9, 36, 0
1, 86400, Note_on_c, 9, 36, 127
1, 86879, Note_on_c, 9, 36, 0
1, 87360, Note_on_c, 9, 36, 127
1, 87839, Note_on_c, 9, 36, 0
1, 88320, Note_on_c, 9, 36, 127
1, 88799, Note_on_c, 9, 36, 0
1, 89280, Note_on_c, 9, 36, 127
1, 89759, Note_on_c, 9, 36, 0
1, 90240, Note_on_c, 9, 36, 127
1, 90719, Note_on_c, 9, 36, 0
1, 91200, Note_on_c, 9, 36, 127
1, 91679, Note_on_c, 9, 36, 0
1, 92160, Note_on_c, 9, 36, 127
1, 92639, Note_on_c, 9, 36, 0
1, 93120, Note_on_c, 9, 36, 127
1, 93599, Note_on_c, 9, 36, 0
1, 94080, Note_on_c, 9, 36, 127
1, 94559, Note_on_c, 9, 36, 0
1, 95040, Note_on_c, 9, 36, 127
1, 95519, Note_on_c, 9, 36, 0
1, 96000, Note_on_c, 9, 36, 127
1, 96479, Note_on_c, 9, 36, 0
1, 96960, Note_on_c, 9, 36, 127
1, 97439, Note_on_c, 9, 36, 0
1, 97920, Note_on_c, 9, 36, 127
1, 98399, Note_on_c, 9, 36, 0
1, 98880, Note_on_c, 9, 36, 127
1, 99359, Note_on_c, 9, 36, 0
1, 99840, Note_on_c, 9, 36, 127
1, 100319, Note_on_c, 9, 36, 0
1, 100800, Note_on_c, 9, 36, 127
1, 101279, Note_on_c, 9, 36, 0
1, 101760, Note_on_c, 9, 36, 127
1, 102239, Note_on_c, 9, 36, 0
1, 102720, Note_on_c, 9, 36, 127
1, 103199, Note_on_c, 9, 36, 0
1, 103680, Note_on_c, 9, 36, 127
1, 104159, Note_on_c, 9, 36, 0
1, 104640, Note_on_c, 9, 36, 127
1, 105119, Note_on_c, 9, 36, 0
1, 105600, Note_on_c, 9, 36, 127
1, 106079, Note_on_c, 9, 36, 0
1, 106560, Note_on_c, 9, 36, 127
1, 107039, Note_on_c, 9, 36, 0
1, 107520, Note_on_c, 9, 36, 127
1, 107999, Note_on_c, 9, 36, 0
1, 108480, Note_on_c, 9, 36, 127
1, 108959, Note_on_c, 9, 36, 0
1, 109440, Note_on_c, 9, 36, 127
1, 109919, Note_on_c, 9, 36, 0
1, 110400, Note_on_c, 9, 36, 127
1, 110879, Note_on_c, 9, 36, 0
1, 111360, Note_on_c, 9, 36, 127
1, 111839, Note_on_c, 9, 36, 0
1, 112320, Note_on_c, 9, 36, 127
1, 112799, Note_on_c, 9, 36, 0
1, 113280, Note_on_c, 9, 36, 127
1, 113759, Note_on_c, 9, 36, 0
1, 114000, Note_on_c, 9, 36, 119
1, 114239, Note_on_c, 9, 36, 0
1, 114240, Note_on_c, 9, 36, 127
1, 114719, Note_on_c, 9, 36, 0
1, 115200, Note_on_c, 9, 36, 127
1, 115679, Note_on_c, 9, 36, 0
1, 116160, Note_on_c, 9, 36, 127
1, 116639, Note_on_c, 9, 36, 0
1, 117120, Note_on_c, 9, 36, 127
1, 117599, Note_on_c, 9, 36, 0
1, 118080, Note_on_c, 9, 36, 127
1, 118559, Note_on_c, 9, 36, 0
1, 119040, Note_on_c, 9, 36, 127
1, 119519, Note_on_c, 9, 36, 0
1, 120000, Note_on_c, 9, 36, 127
1, 120479, Note_on_c, 9, 36, 0
1, 120960, Note_on_c, 9, 36, 127
1, 121439, Note_on_c, 9, 36, 0
1, 121920, Note_on_c, 9, 36, 127
1, 122399, Note_on_c, 9, 36, 0
1, 122880, Note_on_c, 9, 36, 127
1, 123359, Note_on_c, 9, 36, 0
1, 123840, Note_on_c, 9, 36, 127
1, 124319, Note_on_c, 9, 36, 0
1, 124800, Note_on_c, 9, 36, 127
1, 125279, Note_on_c, 9, 36, 0
1, 125760, Note_on_c, 9, 36, 127
1, 126239, Note_on_c, 9, 36, 0
1, 126720, Note_on_c, 9, 36, 127
1, 127199, Note_on_c, 9, 36, 0
1, 127680, Note_on_c, 9, 36, 127
1, 128159, Note_on_c, 9, 36, 0
1, 128640, Note_on_c, 9, 36, 127
1, 129119, Note_on_c, 9, 36, 0
1, 129600, Note_on_c, 9, 36, 127
1, 130079, Note_on_c, 9, 36, 0
1, 130560, Note_on_c, 9, 36, 127
1, 131039, Note_on_c, 9, 36, 0
1, 131520, Note_on_c, 9, 36, 127
1, 131999, Note_on_c, 9, 36, 0
1, 132480, Note_on_c, 9, 36, 127
1, 132959, Note_on_c, 9, 36, 0
1, 133440, Note_on_c, 9, 36, 127
1, 133919, Note_on_c, 9, 36, 0
1, 134400, Note_on_c, 9, 36, 127
1, 134879, Note_on_c, 9, 36, 0
1, 135360, Note_on_c, 9, 36, 127
1, 135839, Note_on_c, 9, 36, 0
1, 136320, Note_on_c, 9, 36, 127
1, 136799, Note_on_c, 9, 36, 0
1, 137280, Note_on_c, 9, 36, 127
1, 137759, Note_on_c, 9, 36, 0
1, 138240, Note_on_c, 9, 36, 127
1, 138719, Note_on_c, 9, 36, 0
1, 139200, Note_on_c, 9, 36, 127
1, 139679, Note_on_c, 9, 36, 0
1, 140160, Note_on_c, 9, 36, 127
1, 140639, Note_on_c, 9, 36, 0
1, 141120, Note_on_c, 9, 36, 127
1, 141599, Note_on_c, 9, 36, 0
1, 142080, Note_on_c, 9, 36, 127
1, 142559, Note_on_c, 9, 36, 0
1, 143040, Note_on_c, 9, 36, 127
1, 143519, Note_on_c, 9, 36, 0
1, 144000, Note_on_c, 9, 36, 127
1, 144479, Note_on_c, 9, 36, 0
1, 144960, Note_on_c, 9, 36, 127
1, 145439, Note_on_c, 9, 36, 0
1, 145920, Note_on_c, 9, 36, 127
1, 146399, Note_on_c, 9, 36, 0
1, 146880, Note_on_c, 9, 36, 127
1, 147359, Note_on_c, 9, 36, 0
1, 147840, Note_on_c, 9, 36, 127
1, 148319, Note_on_c, 9, 36, 0
1, 148800, Note_on_c, 9, 36, 127
1, 149279, Note_on_c, 9, 36, 0
1, 149760, Note_on_c, 9, 36, 127
1, 150239, Note_on_c, 9, 36, 0
1, 150720, Note_on_c, 9, 36, 127
1, 151199, Note_on_c, 9, 36, 0
1, 151680, Note_on_c, 9, 36, 127
1, 152159, Note_on_c, 9, 36, 0
1, 152640, Note_on_c, 9, 36, 127
1, 153119, Note_on_c, 9, 36, 0
1, 153600, Note_on_c, 9, 36, 127
1, 154079, Note_on_c, 9, 36, 0
1, 154560, Note_on_c, 9, 36, 127
1, 155039, Note_on_c, 9, 36, 0
1, 155520, Note_on_c, 9, 36, 127
1, 155999, Note_on_c, 9, 36, 0
1, 156480, Note_on_c, 9, 36, 127
1, 156959, Note_on_c, 9, 36, 0
1, 157440, Note_on_c, 9, 36, 127
1, 157919, Note_on_c, 9, 36, 0
1, 158400, Note_on_c, 9, 36, 127
1, 158879, Note_on_c, 9, 36, 0
1, 159360, Note_on_c, 9, 36, 127
1, 159839, Note_on_c, 9, 36, 0
1, 160320, Note_on_c, 9, 36, 127
1, 160799, Note_on_c, 9, 36, 0
1, 161280, Note_on_c, 9, 36, 127
1, 161759, Note_on_c, 9, 36, 0
1, 162240, Note_on_c, 9, 36, 127
1, 162719, Note_on_c, 9, 36, 0
1, 163200, Note_on_c, 9, 36, 127
1, 163679, Note_on_c, 9, 36, 0
1, 164160, Note_on_c, 9, 36, 127
1, 164639, Note_on_c, 9, 36, 0
1, 165120, Note_on_c, 9, 36, 127
1, 165599, Note_on_c, 9, 36, 0
1, 166080, Note_on_c, 9, 36, 127
1, 166559, Note_on_c, 9, 36, 0
1, 167040, Note_on_c, 9, 36, 127
1, 167519, Note_on_c, 9, 36, 0
1, 168000, Note_on_c, 9, 36, 127
1, 168479, Note_on_c, 9, 36, 0
1, 168960, Note_on_c, 9, 36, 127
1, 169439, Note_on_c, 9, 36, 0
1, 169920, Note_on_c, 9, 36, 127
1, 170399, Note_on_c, 9, 36, 0
1, 170880, Note_on_c, 9, 36, 127
1, 171359, Note_on_c, 9, 36, 0
1, 171840, Note_on_c, 9, 36, 127
1, 172319, Note_on_c, 9, 36, 0
1, 172800, Note_on_c, 9, 36, 127
1, 173279, Note_on_c, 9, 36, 0
1, 173520, Note_on_c, 9, 36, 119
1, 173759, Note_on_c, 9, 36, 0
1, 173760, Note_on_c, 9, 36, 127
1, 174239, Note_on_c, 9, 36, 0
1, 174720, Note_on_c, 9, 36, 127
1, 175199, Note_on_c, 9, 36, 0
1, 175680, Note_on_c, 9, 36, 127
1, 176159, Note_on_c, 9, 36, 0
1, 176640, Note_on_c, 9, 36, 127
1, 177119, Note_on_c, 9, 36, 0
1, 177600, Note_on_c, 9, 36, 127
1, 178079, Note_on_c, 9, 36, 0
1, 178560, Note_on_c, 9, 36, 127
1, 179039, Note_on_c, 9, 36, 0
1, 179520, Note_on_c, 9, 36, 127
1, 179999, Note_on_c, 9, 36, 0
1, 180480, Note_on_c, 9, 36, 127
1, 180959, Note_on_c, 9, 36, 0
1, 181440, Note_on_c, 9, 36, 127
1, 181919, Note_on_c, 9, 36, 0
1, 182400, Note_on_c, 9, 36, 127
1, 182879, Note_on_c, 9, 36, 0
1, 183360, Note_on_c, 9, 36, 127
1, 183839, Note_on_c, 9, 36, 0
1, 184320, Note_on_c, 9, 36, 127
1, 184799, Note_on_c, 9, 36, 0
1, 185280, Note_on_c, 9, 36, 127
1, 185759, Note_on_c, 9, 36, 0
1, 186240, Note_on_c, 9, 36, 127
1, 186719, Note_on_c, 9, 36, 0
1, 187200, Note_on_c, 9, 36, 127
1, 187679, Note_on_c, 9, 36, 0
1, 188160, Note_on_c, 9, 36, 127
1, 188639, Note_on_c, 9, 36, 0
1, 189120, Note_on_c, 9, 36, 127
1, 189599, Note_on_c, 9, 36, 0
1, 190080, Note_on_c, 9, 36, 127
1, 190559, Note_on_c, 9, 36, 0
1, 191040, Note_on_c, 9, 36, 127
1, 191519, Note_on_c, 9, 36, 0
1, 192000, Note_on_c, 9, 36, 127
1, 192479, Note_on_c, 9, 36, 0
1, 192960, Note_on_c, 9, 36, 127
1, 193439, Note_on_c, 9, 36, 0
1, 193920, Note_on_c, 9, 36, 127
1, 194399, Note_on_c, 9, 36, 0
1, 194880, Note_on_c, 9, 36, 127
1, 195359, Note_on_c, 9, 36, 0
1, 195840, Note_on_c, 9, 36, 127
1, 196319, Note_on_c, 9, 36, 0
1, 196800, Note_on_c, 9, 36, 127
1, 197279, Note_on_c, 9, 36, 0
1, 197760, Note_on_c, 9, 36, 127
1, 198239, Note_on_c, 9, 36, 0
1, 198720, Note_on_c, 9, 36, 127
1, 199199, Note_on_c, 9, 36, 0
1, 199680, Note_on_c, 9, 36, 127
1, 200159, Note_on_c, 9, 36, 0
1, 200640, Note_on_c, 9, 36, 127
1, 201119, Note_on_c, 9, 36, 0
1, 201600, Note_on_c, 9, 36, 127
1, 202079, Note_on_c, 9, 36, 0
1, 202560, Note_on_c, 9, 36, 127
1, 203039, Note_on_c, 9, 36, 0
1, 203520, Note_on_c, 9, 36, 127
1, 203999, Note_on_c, 9, 36, 0
1, 204480, Note_on_c, 9, 36, 127
1, 204959, Note_on_c, 9, 36, 0
1, 205440, Note_on_c, 9, 36, 127
1, 205919, Note_on_c, 9, 36, 0
1, 206400, Note_on_c, 9, 36, 127
1, 206879, Note_on_c, 9, 36, 0
1, 207360, Note_on_c, 9, 36, 127
1, 207839, Note_on_c, 9, 36, 0
1, 208320, Note_on_c, 9, 36, 127
1, 208799, Note_on_c, 9, 36, 0
1, 209280, Note_on_c, 9, 36, 127
1, 209759, Note_on_c, 9, 36, 0
1, 210240, Note_on_c, 9, 36, 127
1, 210719, Note_on_c, 9, 36, 0
1, 211200, Note_on_c, 9, 36, 127
1, 211679, Note_on_c, 9, 36, 0
1, 212160, Note_on_c, 9, 36, 127
1, 212639, Note_on_c, 9, 36, 0
1, 213120, Note_on_c, 9, 36, 127
1, 213599, Note_on_c, 9, 36, 0
1, 214080, Note_on_c, 9, 36, 127
1, 214559, Note_on_c, 9, 36, 0
1, 215040, Note_on_c, 9, 36, 127
1, 215519, Note_on_c, 9, 36, 0
1, 216000, Note_on_c, 9, 36, 127
1, 216479, Note_on_c, 9, 36, 0
1, 216960, Note_on_c, 9, 36, 127
1, 217439, Note_on_c, 9, 36, 0
1, 217920, Note_on_c, 9, 36, 127
1, 218399, Note_on_c, 9, 36, 0
1, 218880, Note_on_c, 9, 36, 127
1, 219359, Note_on_c, 9, 36, 0
1, 219840, Note_on_c, 9, 36, 127
1, 220319, Note_on_c, 9, 36, 0
1, 220800, Note_on_c, 9, 36, 127
1, 221279, Note_on_c, 9, 36, 0
1, 221760, Note_on_c, 9, 36, 127
1, 222239, Note_on_c, 9, 36, 0
1, 222720, Note_on_c, 9, 36, 127
1, 223199, Note_on_c, 9, 36, 0
1, 223680, Note_on_c, 9, 36, 127
1, 224159, Note_on_c, 9, 36, 0
1, 224640, Note_on_c, 9, 36, 127
1, 225119, Note_on_c, 9, 36, 0
1, 225600, Note_on_c, 9, 36, 127
1, 226079, Note_on_c, 9, 36, 0
1, 226560, Note_on_c, 9, 36, 127
1, 227039, Note_on_c, 9, 36, 0
1, 227520, Note_on_c, 9, 36, 127
1, 227999, Note_on_c, 9, 36, 0
1, 228000, End_track
2, 0, Start_track
2, 0, Key_signature, 0, "major"
2, 0, Control_c, 9, 121, 0
2, 0, Program_c, 9, 0
2, 0, Control_c, 9, 7, 100
2, 0, Control_c, 9, 10, 64
2, 0, Control_c, 9, 91, 0
2, 0, Control_c, 9, 93, 0
2, 0, MIDI_port, 0
2, 12000, Note_on_c, 9, 38, 127
2, 12479, Note_on_c, 9, 38, 0
2, 12960, Note_on_c, 9, 38, 127
2, 13439, Note_on_c, 9, 38, 0
2, 13920, Note_on_c, 9, 38, 127
2, 14399, Note_on_c, 9, 38, 0
2, 14880, Note_on_c, 9, 38, 127
2, 15359, Note_on_c, 9, 38, 0
2, 15840, Note_on_c, 9, 38, 127
2, 16319, Note_on_c, 9, 38, 0
2, 16800, Note_on_c, 9, 38, 127
2, 17279, Note_on_c, 9, 38, 0
2, 17760, Note_on_c, 9, 38, 127
2, 18239, Note_on_c, 9, 38, 0
2, 18720, Note_on_c, 9, 38, 127
2, 19199, Note_on_c, 9, 38, 0
2, 19680, Note_on_c, 9, 38, 127
2, 20159, Note_on_c, 9, 38, 0
2, 20640, Note_on_c, 9, 38, 127
2, 21119, Note_on_c, 9, 38, 0
2, 21600, Note_on_c, 9, 38, 127
2, 22079, Note_on_c, 9, 38, 0
2, 22560, Note_on_c, 9, 38, 127
2, 23039, Note_on_c, 9, 38, 0
2, 23520, Note_on_c, 9, 38, 127
2, 23999, Note_on_c, 9, 38, 0
2, 24480, Note_on_c, 9, 38, 127
2, 24959, Note_on_c, 9, 38, 0
2, 25440, Note_on_c, 9, 38, 127
2, 25919, Note_on_c, 9, 38, 0
2, 26400, Note_on_c, 9, 38, 127
2, 26879, Note_on_c, 9, 38, 0
2, 27360, Note_on_c, 9, 38, 127
2, 27839, Note_on_c, 9, 38, 0
2, 28320, Note_on_c, 9, 38, 127
2, 28799, Note_on_c, 9, 38, 0
2, 29280, Note_on_c, 9, 38, 127
2, 29759, Note_on_c, 9, 38, 0
2, 30240, Note_on_c, 9, 38, 127
2, 30719, Note_on_c, 9, 38, 0
2, 31200, Note_on_c, 9, 38, 127
2, 31679, Note_on_c, 9, 38, 0
2, 32160, Note_on_c, 9, 38, 127
2, 32639, Note_on_c, 9, 38, 0
2, 33120, Note_on_c, 9, 38, 127
2, 33599, Note_on_c, 9, 38, 0
2, 34080, Note_on_c, 9, 38, 127
2, 34559, Note_on_c, 9, 38, 0
2, 35040, Note_on_c, 9, 38, 127
2, 35519, Note_on_c, 9, 38, 0
2, 36000, Note_on_c, 9, 38, 127
2, 36479, Note_on_c, 9, 38, 0
2, 36960, Note_on_c, 9, 38, 127
2, 37439, Note_on_c, 9, 38, 0
2, 37920, Note_on_c, 9, 38, 127
2, 38399, Note_on_c, 9, 38, 0
2, 38880, Note_on_c, 9, 38, 127
2, 39359, Note_on_c, 9, 38, 0
2, 39840, Note_on_c, 9, 38, 127
2, 40319, Note_on_c, 9, 38, 0
2, 40800, Note_on_c, 9, 38, 127
2, 41279, Note_on_c, 9, 38, 0
2, 41760, Note_on_c, 9, 38, 127
2, 42239, Note_on_c, 9, 38, 0
2, 42720, Note_on_c, 9, 38, 127
2, 43199, Note_on_c, 9, 38, 0
2, 43680, Note_on_c, 9, 38, 127
2, 44159, Note_on_c, 9, 38, 0
2, 44640, Note_on_c, 9, 38, 127
2, 45119, Note_on_c, 9, 38, 0
2, 45600, Note_on_c, 9, 38, 127
2, 46079, Note_on_c, 9, 38, 0
2, 46560, Note_on_c, 9, 38, 127
2, 47039, Note_on_c, 9, 38, 0
2, 47520, Note_on_c, 9, 38, 127
2, 47999, Note_on_c, 9, 38, 0
2, 48480, Note_on_c, 9, 38, 127
2, 48959, Note_on_c, 9, 38, 0
2, 49440, Note_on_c, 9, 38, 127
2, 49919, Note_on_c, 9, 38, 0
2, 50400, Note_on_c, 9, 38, 127
2, 50879, Note_on_c, 9, 38, 0
2, 51360, Note_on_c, 9, 38, 127
2, 51839, Note_on_c, 9, 38, 0
2, 52320, Note_on_c, 9, 38, 127
2, 52799, Note_on_c, 9, 38, 0
2, 53280, Note_on_c, 9, 38, 127
2, 53759, Note_on_c, 9, 38, 0
2, 54240, Note_on_c, 9, 38, 127
2, 54719, Note_on_c, 9, 38, 0
2, 55200, Note_on_c, 9, 38, 127
2, 55679, Note_on_c, 9, 38, 0
2, 56160, Note_on_c, 9, 38, 127
2, 56639, Note_on_c, 9, 38, 0
2, 57120, Note_on_c, 9, 38, 127
2, 57599, Note_on_c, 9, 38, 0
2, 58080, Note_on_c, 9, 38, 127
2, 58559, Note_on_c, 9, 38, 0
2, 59040, Note_on_c, 9, 38, 127
2, 59519, Note_on_c, 9, 38, 0
2, 60000, Note_on_c, 9, 38, 127
2, 60479, Note_on_c, 9, 38, 0
2, 60960, Note_on_c, 9, 38, 127
2, 61439, Note_on_c, 9, 38, 0
2, 61920, Note_on_c, 9, 38, 127
2, 62399, Note_on_c, 9, 38, 0
2, 63840, Note_on_c, 9, 38, 127
2, 64319, Note_on_c, 9, 38, 0
2, 64800, Note_on_c, 9, 38, 127
2, 65279, Note_on_c, 9, 38, 0
2, 65760, Note_on_c, 9, 38, 127
2, 66239, Note_on_c, 9, 38, 0
2, 66720, Note_on_c, 9, 38, 127
2, 67199, Note_on_c, 9, 38, 0
2, 67680, Note_on_c, 9, 38, 127
2, 68159, Note_on_c, 9, 38, 0
2, 68640, Note_on_c, 9, 38, 127
2, 69119, Note_on_c, 9, 38, 0
2, 69600, Note_on_c, 9, 38, 127
2, 70079, Note_on_c, 9, 38, 0
2, 70560, Note_on_c, 9, 38, 127
2, 71039, Note_on_c, 9, 38, 0
2, 71520, Note_on_c, 9, 38, 127
2, 71999, Note_on_c, 9, 38, 0
2, 72480, Note_on_c, 9, 38, 127
2, 72959, Note_on_c, 9, 38, 0
2, 73440, Note_on_c, 9, 38, 127
2, 73919, Note_on_c, 9, 38, 0
2, 74400, Note_on_c, 9, 38, 127
2, 74879, Note_on_c, 9, 38, 0
2, 75360, Note_on_c, 9, 38, 127
2, 75839, Note_on_c, 9, 38, 0
2, 76320, Note_on_c, 9, 38, 127
2, 76799, Note_on_c, 9, 38, 0
2, 77280, Note_on_c, 9, 38, 127
2, 77759, Note_on_c, 9, 38, 0
2, 78240, Note_on_c, 9, 38, 127
2, 78719, Note_on_c, 9, 38, 0
2, 79200, Note_on_c, 9, 38, 127
2, 79679, Note_on_c, 9, 38, 0
2, 80160, Note_on_c, 9, 38, 127
2, 80639, Note_on_c, 9, 38, 0
2, 81120, Note_on_c, 9, 38, 127
2, 81599, Note_on_c, 9, 38, 0
2, 82080, Note_on_c, 9, 38, 127
2, 82559, Note_on_c, 9, 38, 0
2, 83040, Note_on_c, 9, 38, 127
2, 83519, Note_on_c, 9, 38, 0
2, 84000, Note_on_c, 9, 38, 127
2, 84479, Note_on_c, 9, 38, 0
2, 84960, Note_on_c, 9, 38, 127
2, 85439, Note_on_c, 9, 38, 0
2, 85920, Note_on_c, 9, 38, 127
2, 86399, Note_on_c, 9, 38, 0
2, 86880, Note_on_c, 9, 38, 127
2, 87359, Note_on_c, 9, 38, 0
2, 87840, Note_on_c, 9, 38, 127
2, 88319, Note_on_c, 9, 38, 0
2, 88800, Note_on_c, 9, 38, 127
2, 89279, Note_on_c, 9, 38, 0
2, 89760, Note_on_c, 9, 38, 127
2, 90239, Note_on_c, 9, 38, 0
2, 90720, Note_on_c, 9, 38, 127
2, 91199, Note_on_c, 9, 38, 0
2, 91680, Note_on_c, 9, 38, 127
2, 92159, Note_on_c, 9, 38, 0
2, 92640, Note_on_c, 9, 38, 127
2, 93119, Note_on_c, 9, 38, 0
2, 93600, Note_on_c, 9, 38, 127
2, 94079, Note_on_c, 9, 38, 0
2, 94560, Note_on_c, 9, 38, 127
2, 95039, Note_on_c, 9, 38, 0
2, 95520, Note_on_c, 9, 38, 127
2, 95999, Note_on_c, 9, 38, 0
2, 96480, Note_on_c, 9, 38, 127
2, 96959, Note_on_c, 9, 38, 0
2, 97440, Note_on_c, 9, 38, 127
2, 97919, Note_on_c, 9, 38, 0
2, 98400, Note_on_c, 9, 38, 127
2, 98879, Note_on_c, 9, 38, 0
2, 99360, Note_on_c, 9, 38, 127
2, 99839, Note_on_c, 9, 38, 0
2, 100320, Note_on_c, 9, 38, 127
2, 100799, Note_on_c, 9, 38, 0
2, 101280, Note_on_c, 9, 38, 127
2, 101759, Note_on_c, 9, 38, 0
2, 102240, Note_on_c, 9, 38, 127
2, 102719, Note_on_c, 9, 38, 0
2, 103200, Note_on_c, 9, 38, 127
2, 103679, Note_on_c, 9, 38, 0
2, 104160, Note_on_c, 9, 38, 127
2, 104639, Note_on_c, 9, 38, 0
2, 105120, Note_on_c, 9, 38, 127
2, 105599, Note_on_c, 9, 38, 0
2, 106080, Note_on_c, 9, 38, 127
2, 106559, Note_on_c, 9, 38, 0
2, 107040, Note_on_c, 9, 38, 127
2, 107519, Note_on_c, 9, 38, 0
2, 108000, Note_on_c, 9, 38, 127
2, 108479, Note_on_c, 9, 38, 0
2, 108960, Note_on_c, 9, 38, 127
2, 109439, Note_on_c, 9, 38, 0
2, 109920, Note_on_c, 9, 38, 127
2, 110399, Note_on_c, 9, 38, 0
2, 110880, Note_on_c, 9, 38, 127
2, 111359, Note_on_c, 9, 38, 0
2, 111840, Note_on_c, 9, 38, 127
2, 112319, Note_on_c, 9, 38, 0
2, 112800, Note_on_c, 9, 38, 127
2, 113279, Note_on_c, 9, 38, 0
2, 113760, Note_on_c, 9, 38, 127
2, 114239, Note_on_c, 9, 38, 0
2, 115680, Note_on_c, 9, 38, 127
2, 116159, Note_on_c, 9, 38, 0
2, 116640, Note_on_c, 9, 38, 127
2, 117119, Note_on_c, 9, 38, 0
2, 117600, Note_on_c, 9, 38, 127
2, 118079, Note_on_c, 9, 38, 0
2, 118560, Note_on_c, 9, 38, 127
2, 119039, Note_on_c, 9, 38, 0
2, 119520, Note_on_c, 9, 38, 127
2, 119999, Note_on_c, 9, 38, 0
2, 120480, Note_on_c, 9, 38, 127
2, 120959, Note_on_c, 9, 38, 0
2, 121440, Note_on_c, 9, 38, 127
2, 121919, Note_on_c, 9, 38, 0
2, 122400, Note_on_c, 9, 38, 127
2, 122879, Note_on_c, 9, 38, 0
2, 123360, Note_on_c, 9, 38, 127
2, 123839, Note_on_c, 9, 38, 0
2, 124320, Note_on_c, 9, 38, 127
2, 124799, Note_on_c, 9, 38, 0
2, 125280, Note_on_c, 9, 38, 127
2, 125759, Note_on_c, 9, 38, 0
2, 126240, Note_on_c, 9, 38, 127
2, 126719, Note_on_c, 9, 38, 0
2, 127200, Note_on_c, 9, 38, 127
2, 127679, Note_on_c, 9, 38, 0
2, 128160, Note_on_c, 9, 38, 127
2, 128639, Note_on_c, 9, 38, 0
2, 129120, Note_on_c, 9, 38, 127
2, 129599, Note_on_c, 9, 38, 0
2, 130080, Note_on_c, 9, 38, 127
2, 130559, Note_on_c, 9, 38, 0
2, 131040, Note_on_c, 9, 38, 127
2, 131519, Note_on_c, 9, 38, 0
2, 132000, Note_on_c, 9, 38, 127
2, 132479, Note_on_c, 9, 38, 0
2, 132960, Note_on_c, 9, 38, 127
2, 133439, Note_on_c, 9, 38, 0
2, 133920, Note_on_c, 9, 38, 127
2, 134399, Note_on_c, 9, 38, 0
2, 134880, Note_on_c, 9, 38, 127
2, 135359, Note_on_c, 9, 38, 0
2, 135840, Note_on_c, 9, 38, 127
2, 136319, Note_on_c, 9, 38, 0
2, 136800, Note_on_c, 9, 38, 127
2, 137279, Note_on_c, 9, 38, 0
2, 137760, Note_on_c, 9, 38, 127
2, 138239, Note_on_c, 9, 38, 0
2, 138720, Note_on_c, 9, 38, 127
2, 139199, Note_on_c, 9, 38, 0
2, 139680, Note_on_c, 9, 38, 127
2, 140159, Note_on_c, 9, 38, 0
2, 140640, Note_on_c, 9, 38, 127
2, 141119, Note_on_c, 9, 38, 0
2, 141600, Note_on_c, 9, 38, 127
2, 142079, Note_on_c, 9, 38, 0
2, 142560, Note_on_c, 9, 38, 127
2, 143039, Note_on_c, 9, 38, 0
2, 143520, Note_on_c, 9, 38, 127
2, 143999, Note_on_c, 9, 38, 0
2, 144480, Note_on_c, 9, 38, 127
2, 144959, Note_on_c, 9, 38, 0
2, 145440, Note_on_c, 9, 38, 127
2, 145919, Note_on_c, 9, 38, 0
2, 146400, Note_on_c, 9, 38, 127
2, 146879, Note_on_c, 9, 38, 0
2, 147360, Note_on_c, 9, 38, 127
2, 147839, Note_on_c, 9, 38, 0
2, 148320, Note_on_c, 9, 38, 127
2, 148799, Note_on_c, 9, 38, 0
2, 149280, Note_on_c, 9, 38, 127
2, 149759, Note_on_c, 9, 38, 0
2, 150240, Note_on_c, 9, 38, 127
2, 150719, Note_on_c, 9, 38, 0
2, 151200, Note_on_c, 9, 38, 127
2, 151679, Note_on_c, 9, 38, 0
2, 152160, Note_on_c, 9, 38, 127
2, 152639, Note_on_c, 9, 38, 0
2, 153120, Note_on_c, 9, 38, 127
2, 153599, Note_on_c, 9, 38, 0
2, 154080, Note_on_c, 9, 38, 127
2, 154559, Note_on_c, 9, 38, 0
2, 155040, Note_on_c, 9, 38, 127
2, 155519, Note_on_c, 9, 38, 0
2, 156000, Note_on_c, 9, 38, 127
2, 156479, Note_on_c, 9, 38, 0
2, 156960, Note_on_c, 9, 38, 127
2, 157439, Note_on_c, 9, 38, 0
2, 157920, Note_on_c, 9, 38, 127
2, 158399, Note_on_c, 9, 38, 0
2, 158880, Note_on_c, 9, 38, 127
2, 159359, Note_on_c, 9, 38, 0
2, 159840, Note_on_c, 9, 38, 127
2, 160319, Note_on_c, 9, 38, 0
2, 160800, Note_on_c, 9, 38, 127
2, 161279, Note_on_c, 9, 38, 0
2, 161760, Note_on_c, 9, 38, 127
2, 162239, Note_on_c, 9, 38, 0
2, 162720, Note_on_c, 9, 38, 127
2, 163199, Note_on_c, 9, 38, 0
2, 163680, Note_on_c, 9, 38, 127
2, 164159, Note_on_c, 9, 38, 0
2, 164640, Note_on_c, 9, 38, 127
2, 165119, Note_on_c, 9, 38, 0
2, 165600, Note_on_c, 9, 38, 127
2, 166079, Note_on_c, 9, 38, 0
2, 166560, Note_on_c, 9, 38, 127
2, 167039, Note_on_c, 9, 38, 0
2, 167520, Note_on_c, 9, 38, 127
2, 167999, Note_on_c, 9, 38, 0
2, 168480, Note_on_c, 9, 38, 127
2, 168959, Note_on_c, 9, 38, 0
2, 169440, Note_on_c, 9, 38, 127
2, 169919, Note_on_c, 9, 38, 0
2, 170400, Note_on_c, 9, 38, 127
2, 170879, Note_on_c, 9, 38, 0
2, 171360, Note_on_c, 9, 38, 127
2, 171839, Note_on_c, 9, 38, 0
2, 172320, Note_on_c, 9, 38, 127
2, 172799, Note_on_c, 9, 38, 0
2, 173280, Note_on_c, 9, 38, 127
2, 173759, Note_on_c, 9, 38, 0
2, 175200, Note_on_c, 9, 38, 127
2, 175679, Note_on_c, 9, 38, 0
2, 176160, Note_on_c, 9, 38, 127
2, 176639, Note_on_c, 9, 38, 0
2, 177120, Note_on_c, 9, 38, 127
2, 177599, Note_on_c, 9, 38, 0
2, 178080, Note_on_c, 9, 38, 127
2, 178559, Note_on_c, 9, 38, 0
2, 179040, Note_on_c, 9, 38, 127
2, 179519, Note_on_c, 9, 38, 0
2, 180000, Note_on_c, 9, 38, 127
2, 180479, Note_on_c, 9, 38, 0
2, 180960, Note_on_c, 9, 38, 127
2, 181439, Note_on_c, 9, 38, 0
2, 181920, Note_on_c, 9, 38, 127
2, 182399, Note_on_c, 9, 38, 0
2, 182880, Note_on_c, 9, 38, 127
2, 183359, Note_on_c, 9, 38, 0
2, 183840, Note_on_c, 9, 38, 127
2, 184319, Note_on_c, 9, 38, 0
2, 184800, Note_on_c, 9, 38, 127
2, 185279, Note_on_c, 9, 38, 0
2, 185760, Note_on_c, 9, 38, 127
2, 186239, Note_on_c, 9, 38, 0
2, 186720, Note_on_c, 9, 38, 127
2, 187199, Note_on_c, 9, 38, 0
2, 187680, Note_on_c, 9, 38, 127
2, 188159, Note_on_c, 9, 38, 0
2, 188640, Note_on_c, 9, 38, 127
2, 189119, Note_on_c, 9, 38, 0
2, 189600, Note_on_c, 9, 38, 127
2, 190079, Note_on_c, 9, 38, 0
2, 190560, Note_on_c, 9, 38, 127
2, 191039, Note_on_c, 9, 38, 0
2, 191520, Note_on_c, 9, 38, 127
2, 191999, Note_on_c, 9, 38, 0
2, 192480, Note_on_c, 9, 38, 127
2, 192959, Note_on_c, 9, 38, 0
2, 193440, Note_on_c, 9, 38, 127
2, 193919, Note_on_c, 9, 38, 0
2, 194400, Note_on_c, 9, 38, 127
2, 194879, Note_on_c, 9, 38, 0
2, 195360, Note_on_c, 9, 38, 127
2, 195839, Note_on_c, 9, 38, 0
2, 196320, Note_on_c, 9, 38, 127
2, 196799, Note_on_c, 9, 38, 0
2, 197280, Note_on_c, 9, 38, 127
2, 197759, Note_on_c, 9, 38, 0
2, 198240, Note_on_c, 9, 38, 127
2, 198719, Note_on_c, 9, 38, 0
2, 199200, Note_on_c, 9, 38, 127
2, 199679, Note_on_c, 9, 38, 0
2, 200160, Note_on_c, 9, 38, 127
2, 200639, Note_on_c, 9, 38, 0
2, 201120, Note_on_c, 9, 38, 127
2, 201599, Note_on_c, 9, 38, 0
2, 202080, Note_on_c, 9, 38, 127
2, 202559, Note_on_c, 9, 38, 0
2, 203040, Note_on_c, 9, 38, 127
2, 203519, Note_on_c, 9, 38, 0
2, 204000, Note_on_c, 9, 38, 127
2, 204479, Note_on_c, 9, 38, 0
2, 204960, Note_on_c, 9, 38, 127
2, 205439, Note_on_c, 9, 38, 0
2, 205920, Note_on_c, 9, 38, 127
2, 206399, Note_on_c, 9, 38, 0
2, 206880, Note_on_c, 9, 38, 127
2, 207359, Note_on_c, 9, 38, 0
2, 207840, Note_on_c, 9, 38, 127
2, 208319, Note_on_c, 9, 38, 0
2, 208800, Note_on_c, 9, 38, 127
2, 209279, Note_on_c, 9, 38, 0
2, 209760, Note_on_c, 9, 38, 127
2, 210239, Note_on_c, 9, 38, 0
2, 210720, Note_on_c, 9, 38, 127
2, 211199, Note_on_c, 9, 38, 0
2, 211680, Note_on_c, 9, 38, 127
2, 212159, Note_on_c, 9, 38, 0
2, 212640, Note_on_c, 9, 38, 127
2, 213119, Note_on_c, 9, 38, 0
2, 213600, Note_on_c, 9, 38, 127
2, 214079, Note_on_c, 9, 38, 0
2, 214560, Note_on_c, 9, 38, 127
2, 215039, Note_on_c, 9, 38, 0
2, 215520, Note_on_c, 9, 38, 127
2, 215999, Note_on_c, 9, 38, 0
2, 216480, Note_on_c, 9, 38, 127
2, 216959, Note_on_c, 9, 38, 0
2, 217440, Note_on_c, 9, 38, 127
2, 217919, Note_on_c, 9, 38, 0
2, 218400, Note_on_c, 9, 38, 127
2, 218879, Note_on_c, 9, 38, 0
2, 219360, Note_on_c, 9, 38, 127
2, 219839, Note_on_c, 9, 38, 0
2, 220320, Note_on_c, 9, 38, 127
2, 220799, Note_on_c, 9, 38, 0
2, 221280, Note_on_c, 9, 38, 127
2, 221759, Note_on_c, 9, 38, 0
2, 222240, Note_on_c, 9, 38, 127
2, 222719, Note_on_c, 9, 38, 0
2, 223200, Note_on_c, 9, 38, 127
2, 223679, Note_on_c, 9, 38, 0
2, 224160, Note_on_c, 9, 38, 127
2, 224639, Note_on_c, 9, 38, 0
2, 225120, Note_on_c, 9, 38, 127
2, 225599, Note_on_c, 9, 38, 0
2, 226080, Note_on_c, 9, 38, 127
2, 226559, Note_on_c, 9, 38, 0
2, 227040, Note_on_c, 9, 38, 127
2, 227519, Note_on_c, 9, 38, 0
2, 228000, Note_on_c, 9, 38, 127
2, 228479, Note_on_c, 9, 38, 0
2, 228480, Note_on_c, 9, 38, 121
2, 228719, Note_on_c, 9, 38, 0
2, 228720, Note_on_c, 9, 38, 121
2, 228959, Note_on_c, 9, 38, 0
2, 228960, End_track
3, 0, Start_track
3, 0, Key_signature, 0, "major"
3, 0, Control_c, 9, 121, 0
3, 0, Program_c, 9, 0
3, 0, Control_c, 9, 7, 100
3, 0, Control_c, 9, 10, 64
3, 0, Control_c, 9, 91, 0
3, 0, Control_c, 9, 93, 0
3, 0, MIDI_port, 0
3, 1920, Note_on_c, 9, 42, 127
3, 2399, Note_on_c, 9, 42, 0
3, 2400, Note_on_c, 9, 42, 127
3, 2879, Note_on_c, 9, 42, 0
3, 2880, Note_on_c, 9, 42, 127
3, 3359, Note_on_c, 9, 42, 0
3, 3360, Note_on_c, 9, 42, 127
3, 3839, Note_on_c, 9, 42, 0
3, 4320, Note_on_c, 9, 42, 108
3, 4799, Note_on_c, 9, 42, 0
3, 4800, Note_on_c, 9, 42, 114
3, 5279, Note_on_c, 9, 42, 0
3, 5280, Note_on_c, 9, 42, 112
3, 5759, Note_on_c, 9, 42, 0
3, 6240, Note_on_c, 9, 42, 108
3, 6719, Note_on_c, 9, 42, 0
3, 6720, Note_on_c, 9, 42, 114
3, 7199, Note_on_c, 9, 42, 0
3, 7200, Note_on_c, 9, 42, 112
3, 7679, Note_on_c, 9, 42, 0
3, 8160, Note_on_c, 9, 42, 108
3, 8639, Note_on_c, 9, 42, 0
3, 8640, Note_on_c, 9, 42, 114
3, 9119, Note_on_c, 9, 42, 0
3, 9120, Note_on_c, 9, 42, 112
3, 9599, Note_on_c, 9, 42, 0
3, 10080, Note_on_c, 9, 42, 108
3, 10559, Note_on_c, 9, 42, 0
3, 10560, Note_on_c, 9, 42, 114
3, 11039, Note_on_c, 9, 42, 0
3, 11040, Note_on_c, 9, 42, 112
3, 11519, Note_on_c, 9, 42, 0
3, 11520, Note_on_c, 9, 42, 127
3, 11639, Note_on_c, 9, 42, 0
3, 11640, Note_on_c, 9, 42, 114
3, 11999, Note_on_c, 9, 42, 0
3, 12000, Note_on_c, 9, 42, 125
3, 12119, Note_on_c, 9, 42, 0
3, 12120, Note_on_c, 9, 42, 119
3, 12479, Note_on_c, 9, 42, 0
3, 12480, Note_on_c, 9, 42, 121
3, 12599, Note_on_c, 9, 42, 0
3, 12600, Note_on_c, 9, 42, 117
3, 12959, Note_on_c, 9, 42, 0
3, 12960, Note_on_c, 9, 42, 123
3, 13079, Note_on_c, 9, 42, 0
3, 13080, Note_on_c, 9, 42, 121
3, 13439, Note_on_c, 9, 42, 0
3, 13440, Note_on_c, 9, 42, 127
3, 13559, Note_on_c, 9, 42, 0
3, 13560, Note_on_c, 9, 42, 114
3, 13919, Note_on_c, 9, 42, 0
3, 13920, Note_on_c, 9, 42, 125
3, 14039, Note_on_c, 9, 42, 0
3, 14040, Note_on_c, 9, 42, 119
3, 14399, Note_on_c, 9, 42, 0
3, 14400, Note_on_c, 9, 42, 121
3, 14519, Note_on_c, 9, 42, 0
3, 14520, Note_on_c, 9, 42, 117
3, 14879, Note_on_c, 9, 42, 0
3, 14880, Note_on_c, 9, 42, 123
3, 14999, Note_on_c, 9, 42, 0
3, 15000, Note_on_c, 9, 42, 121
3, 15359, Note_on_c, 9, 42, 0
3, 15360, Note_on_c, 9, 42, 127
3, 15479, Note_on_c, 9, 42, 0
3, 15480, Note_on_c, 9, 42, 114
3, 15839, Note_on_c, 9, 42, 0
3, 15840, Note_on_c, 9, 42, 125
3, 15959, Note_on_c, 9, 42, 0
3, 15960, Note_on_c, 9, 42, 119
3, 16319, Note_on_c, 9, 42, 0
3, 16320, Note_on_c, 9, 42, 121
3, 16439, Note_on_c, 9, 42, 0
3, 16440, Note_on_c, 9, 42, 117
3, 16799, Note_on_c, 9, 42, 0
3, 16800, Note_on_c, 9, 42, 123
3, 16919, Note_on_c, 9, 42, 0
3, 16920, Note_on_c, 9, 42, 121
3, 17279, Note_on_c, 9, 42, 0
3, 17280, Note_on_c, 9, 42, 127
3, 17399, Note_on_c, 9, 42, 0
3, 17400, Note_on_c, 9, 42, 114
3, 17759, Note_on_c, 9, 42, 0
3, 17760, Note_on_c, 9, 42, 125
3, 17879, Note_on_c, 9, 42, 0
3, 17880, Note_on_c, 9, 42, 119
3, 18239, Note_on_c, 9, 42, 0
3, 18240, Note_on_c, 9, 42, 121
3, 18359, Note_on_c, 9, 42, 0
3, 18360, Note_on_c, 9, 42, 117
3, 18719, Note_on_c, 9, 42, 0
3, 18720, Note_on_c, 9, 42, 123
3, 18839, Note_on_c, 9, 42, 0
3, 18840, Note_on_c, 9, 42, 121
3, 19199, Note_on_c, 9, 42, 0
3, 19200, Note_on_c, 9, 42, 127
3, 19319, Note_on_c, 9, 42, 0
3, 19320, Note_on_c, 9, 42, 114
3, 19679, Note_on_c, 9, 42, 0
3, 19680, Note_on_c, 9, 42, 125
3, 19799, Note_on_c, 9, 42, 0
3, 19800, Note_on_c, 9, 42, 119
3, 20159, Note_on_c, 9, 42, 0
3, 20160, Note_on_c, 9, 42, 121
3, 20279, Note_on_c, 9, 42, 0
3, 20280, Note_on_c, 9, 42, 117
3, 20639, Note_on_c, 9, 42, 0
3, 20640, Note_on_c, 9, 42, 123
3, 20759, Note_on_c, 9, 42, 0
3, 20760, Note_on_c, 9, 42, 121
3, 21119, Note_on_c, 9, 42, 0
3, 21120, Note_on_c, 9, 42, 127
3, 21239, Note_on_c, 9, 42, 0
3, 21240, Note_on_c, 9, 42, 114
3, 21599, Note_on_c, 9, 42, 0
3, 21600, Note_on_c, 9, 42, 125
3, 21719, Note_on_c, 9, 42, 0
3, 21720, Note_on_c, 9, 42, 119
3, 22079, Note_on_c, 9, 42, 0
3, 22080, Note_on_c, 9, 42, 121
3, 22199, Note_on_c, 9, 42, 0
3, 22200, Note_on_c, 9, 42, 117
3, 22559, Note_on_c, 9, 42, 0
3, 22560, Note_on_c, 9, 42, 123
3, 22679, Note_on_c, 9, 42, 0
3, 22680, Note_on_c, 9, 42, 121
3, 23039, Note_on_c, 9, 42, 0
3, 23040, Note_on_c, 9, 42, 127
3, 23159, Note_on_c, 9, 42, 0
3, 23160, Note_on_c, 9, 42, 114
3, 23519, Note_on_c, 9, 42, 0
3, 23520, Note_on_c, 9, 42, 125
3, 23639, Note_on_c, 9, 42, 0
3, 23640, Note_on_c, 9, 42, 119
3, 23999, Note_on_c, 9, 42, 0
3, 24000, Note_on_c, 9, 42, 121
3, 24119, Note_on_c, 9, 42, 0
3, 24120, Note_on_c, 9, 42, 117
3, 24479, Note_on_c, 9, 42, 0
3, 24480, Note_on_c, 9, 42, 123
3, 24599, Note_on_c, 9, 42, 0
3, 24600, Note_on_c, 9, 42, 121
3, 24959, Note_on_c, 9, 42, 0
3, 24960, Note_on_c, 9, 42, 127
3, 25079, Note_on_c, 9, 42, 0
3, 25080, Note_on_c, 9, 42, 114
3, 25439, Note_on_c, 9, 42, 0
3, 25440, Note_on_c, 9, 42, 125
3, 25559, Note_on_c, 9, 42, 0
3, 25560, Note_on_c, 9, 42, 119
3, 25919, Note_on_c, 9, 42, 0
3, 25920, Note_on_c, 9, 42, 121
3, 26039, Note_on_c, 9, 42, 0
3, 26040, Note_on_c, 9, 42, 117
3, 26399, Note_on_c, 9, 42, 0
3, 26400, Note_on_c, 9, 42, 123
3, 26519, Note_on_c, 9, 42, 0
3, 26520, Note_on_c, 9, 42, 121
3, 26879, Note_on_c, 9, 42, 0
3, 26880, Note_on_c, 9, 42, 127
3, 26999, Note_on_c, 9, 42, 0
3, 27000, Note_on_c, 9, 42, 114
3, 27359, Note_on_c, 9, 42, 0
3, 27360, Note_on_c, 9, 42, 125
3, 27479, Note_on_c, 9, 42, 0
3, 27480, Note_on_c, 9, 42, 119
3, 27839, Note_on_c, 9, 42, 0
3, 27840, Note_on_c, 9, 42, 121
3, 27959, Note_on_c, 9, 42, 0
3, 27960, Note_on_c, 9, 42, 117
3, 28319, Note_on_c, 9, 42, 0
3, 28320, Note_on_c, 9, 42, 123
3, 28439, Note_on_c, 9, 42, 0
3, 28440, Note_on_c, 9, 42, 121
3, 28799, Note_on_c, 9, 42, 0
3, 28800, Note_on_c, 9, 42, 127
3, 28919, Note_on_c, 9, 42, 0
3, 28920, Note_on_c, 9, 42, 114
3, 29279, Note_on_c, 9, 42, 0
3, 29280, Note_on_c, 9, 42, 125
3, 29399, Note_on_c, 9, 42, 0
3, 29400, Note_on_c, 9, 42, 119
3, 29759, Note_on_c, 9, 42, 0
3, 29760, Note_on_c, 9, 42, 121
3, 29879, Note_on_c, 9, 42, 0
3, 29880, Note_on_c, 9, 42, 117
3, 30239, Note_on_c, 9, 42, 0
3, 30240, Note_on_c, 9, 42, 123
3, 30359, Note_on_c, 9, 42, 0
3, 30360, Note_on_c, 9, 42, 121
3, 30719, Note_on_c, 9, 42, 0
3, 30720, Note_on_c, 9, 42, 127
3, 30839, Note_on_c, 9, 42, 0
3, 30840, Note_on_c, 9, 42, 114
3, 31199, Note_on_c, 9, 42, 0
3, 31200, Note_on_c, 9, 42, 125
3, 31319, Note_on_c, 9, 42, 0
3, 31320, Note_on_c, 9, 42, 119
3, 31679, Note_on_c, 9, 42, 0
3, 31680, Note_on_c, 9, 42, 121
3, 31799, Note_on_c, 9, 42, 0
3, 31800, Note_on_c, 9, 42, 117
3, 32159, Note_on_c, 9, 42, 0
3, 32160, Note_on_c, 9, 42, 123
3, 32279, Note_on_c, 9, 42, 0
3, 32280, Note_on_c, 9, 42, 121
3, 32639, Note_on_c, 9, 42, 0
3, 32640, Note_on_c, 9, 42, 127
3, 32759, Note_on_c, 9, 42, 0
3, 32760, Note_on_c, 9, 42, 114
3, 33119, Note_on_c, 9, 42, 0
3, 33120, Note_on_c, 9, 42, 125
3, 33239, Note_on_c, 9, 42, 0
3, 33240, Note_on_c, 9, 42, 119
3, 33599, Note_on_c, 9, 42, 0
3, 33600, Note_on_c, 9, 42, 121
3, 33719, Note_on_c, 9, 42, 0
3, 33720, Note_on_c, 9, 42, 117
3, 34079, Note_on_c, 9, 42, 0
3, 34080, Note_on_c, 9, 42, 123
3, 34199, Note_on_c, 9, 42, 0
3, 34200, Note_on_c, 9, 42, 121
3, 34559, Note_on_c, 9, 42, 0
3, 34560, Note_on_c, 9, 42, 127
3, 34679, Note_on_c, 9, 42, 0
3, 34680, Note_on_c, 9, 42, 114
3, 35039, Note_on_c, 9, 42, 0
3, 35040, Note_on_c, 9, 42, 125
3, 35159, Note_on_c, 9, 42, 0
3, 35160, Note_on_c, 9, 42, 119
3, 35519, Note_on_c, 9, 42, 0
3, 35520, Note_on_c, 9, 42, 121
3, 35639, Note_on_c, 9, 42, 0
3, 35640, Note_on_c, 9, 42, 117
3, 35999, Note_on_c, 9, 42, 0
3, 36000, Note_on_c, 9, 42, 123
3, 36119, Note_on_c, 9, 42, 0
3, 36120, Note_on_c, 9, 42, 121
3, 36479, Note_on_c, 9, 42, 0
3, 36480, Note_on_c, 9, 42, 127
3, 36599, Note_on_c, 9, 42, 0
3, 36600, Note_on_c, 9, 42, 114
3, 36959, Note_on_c, 9, 42, 0
3, 36960, Note_on_c, 9, 42, 125
3, 37079, Note_on_c, 9, 42, 0
3, 37080, Note_on_c, 9, 42, 119
3, 37439, Note_on_c, 9, 42, 0
3, 37440, Note_on_c, 9, 42, 121
3, 37559, Note_on_c, 9, 42, 0
3, 37560, Note_on_c, 9, 42, 117
3, 37919, Note_on_c, 9, 42, 0
3, 37920, Note_on_c, 9, 42, 123
3, 38039, Note_on_c, 9, 42, 0
3, 38040, Note_on_c, 9, 42, 121
3, 38399, Note_on_c, 9, 42, 0
3, 38400, Note_on_c, 9, 42, 127
3, 38519, Note_on_c, 9, 42, 0
3, 38520, Note_on_c, 9, 42, 114
3, 38879, Note_on_c, 9, 42, 0
3, 38880, Note_on_c, 9, 42, 125
3, 38999, Note_on_c, 9, 42, 0
3, 39000, Note_on_c, 9, 42, 119
3, 39359, Note_on_c, 9, 42, 0
3, 39360, Note_on_c, 9, 42, 121
3, 39479, Note_on_c, 9, 42, 0
3, 39480, Note_on_c, 9, 42, 117
3, 39839, Note_on_c, 9, 42, 0
3, 39840, Note_on_c, 9, 42, 123
3, 39959, Note_on_c, 9, 42, 0
3, 39960, Note_on_c, 9, 42, 121
3, 40319, Note_on_c, 9, 42, 0
3, 40320, Note_on_c, 9, 42, 127
3, 40439, Note_on_c, 9, 42, 0
3, 40440, Note_on_c, 9, 42, 114
3, 40799, Note_on_c, 9, 42, 0
3, 40800, Note_on_c, 9, 42, 125
3, 40919, Note_on_c, 9, 42, 0
3, 40920, Note_on_c, 9, 42, 119
3, 41279, Note_on_c, 9, 42, 0
3, 41280, Note_on_c, 9, 42, 121
3, 41399, Note_on_c, 9, 42, 0
3, 41400, Note_on_c, 9, 42, 117
3, 41759, Note_on_c, 9, 42, 0
3, 41760, Note_on_c, 9, 42, 123
3, 41879, Note_on_c, 9, 42, 0
3, 41880, Note_on_c, 9, 42, 121
3, 42239, Note_on_c, 9, 42, 0
3, 42240, Note_on_c, 9, 42, 127
3, 42359, Note_on_c, 9, 42, 0
3, 42360, Note_on_c, 9, 42, 114
3, 42719, Note_on_c, 9, 42, 0
3, 42720, Note_on_c, 9, 42, 125
3, 42839, Note_on_c, 9, 42, 0
3, 42840, Note_on_c, 9, 42, 119
3, 43199, Note_on_c, 9, 42, 0
3, 43200, Note_on_c, 9, 42, 121
3, 43319, Note_on_c, 9, 42, 0
3, 43320, Note_on_c, 9, 42, 117
3, 43679, Note_on_c, 9, 42, 0
3, 43680, Note_on_c, 9, 42, 123
3, 43799, Note_on_c, 9, 42, 0
3, 43800, Note_on_c, 9, 42, 121
3, 44159, Note_on_c, 9, 42, 0
3, 44160, Note_on_c, 9, 42, 127
3, 44279, Note_on_c, 9, 42, 0
3, 44280, Note_on_c, 9, 42, 114
3, 44639, Note_on_c, 9, 42, 0
3, 44640, Note_on_c, 9, 42, 125
3, 44759, Note_on_c, 9, 42, 0
3, 44760, Note_on_c, 9, 42, 119
3, 45119, Note_on_c, 9, 42, 0
3, 45120, Note_on_c, 9, 42, 121
3, 45239, Note_on_c, 9, 42, 0
3, 45240, Note_on_c, 9, 42, 117
3, 45599, Note_on_c, 9, 42, 0
3, 45600, Note_on_c, 9, 42, 123
3, 45719, Note_on_c, 9, 42, 0
3, 45720, Note_on_c, 9, 42, 121
3, 46079, Note_on_c, 9, 42, 0
3, 46080, Note_on_c, 9, 42, 127
3, 46199, Note_on_c, 9, 42, 0
3, 46200, Note_on_c, 9, 42, 114
3, 46559, Note_on_c, 9, 42, 0
3, 46560, Note_on_c, 9, 42, 125
3, 46679, Note_on_c, 9, 42, 0
3, 46680, Note_on_c, 9, 42, 119
3, 47039, Note_on_c, 9, 42, 0
3, 47040, Note_on_c, 9, 42, 121
3, 47159, Note_on_c, 9, 42, 0
3, 47160, Note_on_c, 9, 42, 117
3, 47519, Note_on_c, 9, 42, 0
3, 47520, Note_on_c, 9, 42, 123
3, 47639, Note_on_c, 9, 42, 0
3, 47640, Note_on_c, 9, 42, 121
3, 47999, Note_on_c, 9, 42, 0
3, 48000, Note_on_c, 9, 42, 127
3, 48119, Note_on_c, 9, 42, 0
3, 48120, Note_on_c, 9, 42, 114
3, 48479, Note_on_c, 9, 42, 0
3, 48480, Note_on_c, 9, 42, 125
3, 48599, Note_on_c, 9, 42, 0
3, 48600, Note_on_c, 9, 42, 119
3, 48959, Note_on_c, 9, 42, 0
3, 48960, Note_on_c, 9, 42, 121
3, 49079, Note_on_c, 9, 42, 0
3, 49080, Note_on_c, 9, 42, 117
3, 49439, Note_on_c, 9, 42, 0
3, 49440, Note_on_c, 9, 42, 123
3, 49559, Note_on_c, 9, 42, 0
3, 49560, Note_on_c, 9, 42, 121
3, 49919, Note_on_c, 9, 42, 0
3, 49920, Note_on_c, 9, 42, 127
3, 50039, Note_on_c, 9, 42, 0
3, 50040, Note_on_c, 9, 42, 114
3, 50399, Note_on_c, 9, 42, 0
3, 50400, Note_on_c, 9, 42, 125
3, 50519, Note_on_c, 9, 42, 0
3, 50520, Note_on_c, 9, 42, 119
3, 50879, Note_on_c, 9, 42, 0
3, 50880, Note_on_c, 9, 42, 121
3, 50999, Note_on_c, 9, 42, 0
3, 51000, Note_on_c, 9, 42, 117
3, 51359, Note_on_c, 9, 42, 0
3, 51360, Note_on_c, 9, 42, 123
3, 51479, Note_on_c, 9, 42, 0
3, 51480, Note_on_c, 9, 42, 121
3, 51839, Note_on_c, 9, 42, 0
3, 51840, Note_on_c, 9, 42, 127
3, 51959, Note_on_c, 9, 42, 0
3, 51960, Note_on_c, 9, 42, 114
3, 52319, Note_on_c, 9, 42, 0
3, 52320, Note_on_c, 9, 42, 125
3, 52439, Note_on_c, 9, 42, 0
3, 52440, Note_on_c, 9, 42, 119
3, 52799, Note_on_c, 9, 42, 0
3, 52800, Note_on_c, 9, 42, 121
3, 52919, Note_on_c, 9, 42, 0
3, 52920, Note_on_c, 9, 42, 117
3, 53279, Note_on_c, 9, 42, 0
3, 53280, Note_on_c, 9, 42, 123
3, 53399, Note_on_c, 9, 42, 0
3, 53400, Note_on_c, 9, 42, 121
3, 53759, Note_on_c, 9, 42, 0
3, 53760, Note_on_c, 9, 42, 127
3, 53879, Note_on_c, 9, 42, 0
3, 53880, Note_on_c, 9, 42, 114
3, 54239, Note_on_c, 9, 42, 0
3, 54240, Note_on_c, 9, 42, 125
3, 54359, Note_on_c, 9, 42, 0
3, 54360, Note_on_c, 9, 42, 119
3, 54719, Note_on_c, 9, 42, 0
3, 54720, Note_on_c, 9, 42, 121
3, 54839, Note_on_c, 9, 42, 0
3, 54840, Note_on_c, 9, 42, 117
3, 55199, Note_on_c, 9, 42, 0
3, 55200, Note_on_c, 9, 42, 123
3, 55319, Note_on_c, 9, 42, 0
3, 55320, Note_on_c, 9, 42, 121
3, 55679, Note_on_c, 9, 42, 0
3, 55680, Note_on_c, 9, 42, 127
3, 55799, Note_on_c, 9, 42, 0
3, 55800, Note_on_c, 9, 42, 114
3, 56159, Note_on_c, 9, 42, 0
3, 56160, Note_on_c, 9, 42, 125
3, 56279, Note_on_c, 9, 42, 0
3, 56280, Note_on_c, 9, 42, 119
3, 56639, Note_on_c, 9, 42, 0
3, 56640, Note_on_c, 9, 42, 121
3, 56759, Note_on_c, 9, 42, 0
3, 56760, Note_on_c, 9, 42, 117
3, 57119, Note_on_c, 9, 42, 0
3, 57120, Note_on_c, 9, 42, 123
3, 57239, Note_on_c, 9, 42, 0
3, 57240, Note_on_c, 9, 42, 121
3, 57599, Note_on_c, 9, 42, 0
3, 57600, Note_on_c, 9, 42, 127
3, 57719, Note_on_c, 9, 42, 0
3, 57720, Note_on_c, 9, 42, 114
3, 58079, Note_on_c, 9, 42, 0
3, 58080, Note_on_c, 9, 42, 125
3, 58199, Note_on_c, 9, 42, 0
3, 58200, Note_on_c, 9, 42, 119
3, 58559, Note_on_c, 9, 42, 0
3, 58560, Note_on_c, 9, 42, 121
3, 58679, Note_on_c, 9, 42, 0
3, 58680, Note_on_c, 9, 42, 117
3, 59039, Note_on_c, 9, 42, 0
3, 59040, Note_on_c, 9, 42, 123
3, 59159, Note_on_c, 9, 42, 0
3, 59160, Note_on_c, 9, 42, 121
3, 59519, Note_on_c, 9, 42, 0
3, 59520, Note_on_c, 9, 42, 127
3, 59639, Note_on_c, 9, 42, 0
3, 59640, Note_on_c, 9, 42, 114
3, 59999, Note_on_c, 9, 42, 0
3, 60000, Note_on_c, 9, 42, 125
3, 60119, Note_on_c, 9, 42, 0
3, 60120, Note_on_c, 9, 42, 119
3, 60479, Note_on_c, 9, 42, 0
3, 60480, Note_on_c, 9, 42, 121
3, 60599, Note_on_c, 9, 42, 0
3, 60600, Note_on_c, 9, 42, 117
3, 60959, Note_on_c, 9, 42, 0
3, 60960, Note_on_c, 9, 42, 123
3, 61079, Note_on_c, 9, 42, 0
3, 61080, Note_on_c, 9, 42, 121
3, 61439, Note_on_c, 9, 42, 0
3, 61440, Note_on_c, 9, 42, 127
3, 61919, Note_on_c, 9, 42, 0
3, 61920, Note_on_c, 9, 42, 127
3, 62399, Note_on_c, 9, 42, 0
3, 62400, Note_on_c, 9, 42, 127
3, 62879, Note_on_c, 9, 42, 0
3, 63360, Note_on_c, 9, 42, 127
3, 63479, Note_on_c, 9, 42, 0
3, 63480, Note_on_c, 9, 42, 114
3, 63839, Note_on_c, 9, 42, 0
3, 63840, Note_on_c, 9, 42, 125
3, 63959, Note_on_c, 9, 42, 0
3, 63960, Note_on_c, 9, 42, 119
3, 64319, Note_on_c, 9, 42, 0
3, 64320, Note_on_c, 9, 42, 121
3, 64439, Note_on_c, 9, 42, 0
3, 64440, Note_on_c, 9, 42, 117
3, 64799, Note_on_c, 9, 42, 0
3, 64800, Note_on_c, 9, 42, 123
3, 64919, Note_on_c, 9, 42, 0
3, 64920, Note_on_c, 9, 42, 121
3, 65279, Note_on_c, 9, 42, 0
3, 65280, Note_on_c, 9, 42, 127
3, 65399, Note_on_c, 9, 42, 0
3, 65400, Note_on_c, 9, 42, 114
3, 65759, Note_on_c, 9, 42, 0
3, 65760, Note_on_c, 9, 42, 125
3, 65879, Note_on_c, 9, 42, 0
3, 65880, Note_on_c, 9, 42, 119
3, 66239, Note_on_c, 9, 42, 0
3, 66240, Note_on_c, 9, 42, 121
3, 66359, Note_on_c, 9, 42, 0
3, 66360, Note_on_c, 9, 42, 117
3, 66719, Note_on_c, 9, 42, 0
3, 66720, Note_on_c, 9, 42, 123
3, 66839, Note_on_c, 9, 42, 0
3, 66840, Note_on_c, 9, 42, 121
3, 67199, Note_on_c, 9, 42, 0
3, 67200, Note_on_c, 9, 42, 127
3, 67319, Note_on_c, 9, 42, 0
3, 67320, Note_on_c, 9, 42, 114
3, 67679, Note_on_c, 9, 42, 0
3, 67680, Note_on_c, 9, 42, 125
3, 67799, Note_on_c, 9, 42, 0
3, 67800, Note_on_c, 9, 42, 119
3, 68159, Note_on_c, 9, 42, 0
3, 68160, Note_on_c, 9, 42, 121
3, 68279, Note_on_c, 9, 42, 0
3, 68280, Note_on_c, 9, 42, 117
3, 68639, Note_on_c, 9, 42, 0
3, 68640, Note_on_c, 9, 42, 123
3, 68759, Note_on_c, 9, 42, 0
3, 68760, Note_on_c, 9, 42, 121
3, 69119, Note_on_c, 9, 42, 0
3, 69120, Note_on_c, 9, 42, 127
3, 69239, Note_on_c, 9, 42, 0
3, 69240, Note_on_c, 9, 42, 114
3, 69599, Note_on_c, 9, 42, 0
3, 69600, Note_on_c, 9, 42, 125
3, 69719, Note_on_c, 9, 42, 0
3, 69720, Note_on_c, 9, 42, 119
3, 70079, Note_on_c, 9, 42, 0
3, 70080, Note_on_c, 9, 42, 121
3, 70199, Note_on_c, 9, 42, 0
3, 70200, Note_on_c, 9, 42, 117
3, 70559, Note_on_c, 9, 42, 0
3, 70560, Note_on_c, 9, 42, 123
3, 70679, Note_on_c, 9, 42, 0
3, 70680, Note_on_c, 9, 42, 121
3, 71039, Note_on_c, 9, 42, 0
3, 71040, Note_on_c, 9, 42, 127
3, 71159, Note_on_c, 9, 42, 0
3, 71160, Note_on_c, 9, 42, 114
3, 71519, Note_on_c, 9, 42, 0
3, 71520, Note_on_c, 9, 42, 125
3, 71639, Note_on_c, 9, 42, 0
3, 71640, Note_on_c, 9, 42, 119
3, 71999, Note_on_c, 9, 42, 0
3, 72000, Note_on_c, 9, 42, 121
3, 72119, Note_on_c, 9, 42, 0
3, 72120, Note_on_c, 9, 42, 117
3, 72479, Note_on_c, 9, 42, 0
3, 72480, Note_on_c, 9, 42, 123
3, 72599, Note_on_c, 9, 42, 0
3, 72600, Note_on_c, 9, 42, 121
3, 72959, Note_on_c, 9, 42, 0
3, 72960, Note_on_c, 9, 42, 127
3, 73079, Note_on_c, 9, 42, 0
3, 73080, Note_on_c, 9, 42, 114
3, 73439, Note_on_c, 9, 42, 0
3, 73440, Note_on_c, 9, 42, 125
3, 73559, Note_on_c, 9, 42, 0
3, 73560, Note_on_c, 9, 42, 119
3, 73919, Note_on_c, 9, 42, 0
3, 73920, Note_on_c, 9, 42, 121
3, 74039, Note_on_c, 9, 42, 0
3, 74040, Note_on_c, 9, 42, 117
3, 74399, Note_on_c, 9, 42, 0
3, 74400, Note_on_c, 9, 42, 123
3, 74519, Note_on_c, 9, 42, 0
3, 74520, Note_on_c, 9, 42, 121
3, 74879, Note_on_c, 9, 42, 0
3, 74880, Note_on_c, 9, 42, 127
3, 74999, Note_on_c, 9, 42, 0
3, 75000, Note_on_c, 9, 42, 114
3, 75359, Note_on_c, 9, 42, 0
3, 75360, Note_on_c, 9, 42, 125
3, 75479, Note_on_c, 9, 42, 0
3, 75480, Note_on_c, 9, 42, 119
3, 75839, Note_on_c, 9, 42, 0
3, 75840, Note_on_c, 9, 42, 121
3, 75959, Note_on_c, 9, 42, 0
3, 75960, Note_on_c, 9, 42, 117
3, 76319, Note_on_c, 9, 42, 0
3, 76320, Note_on_c, 9, 42, 123
3, 76439, Note_on_c, 9, 42, 0
3, 76440, Note_on_c, 9, 42, 121
3, 76799, Note_on_c, 9, 42, 0
3, 76800, Note_on_c, 9, 42, 127
3, 76919, Note_on_c, 9, 42, 0
3, 76920, Note_on_c, 9, 42, 114
3, 77279, Note_on_c, 9, 42, 0
3, 77280, Note_on_c, 9, 42, 125
3, 77399, Note_on_c, 9, 42, 0
3, 77400, Note_on_c, 9, 42, 119
3, 77759, Note_on_c, 9, 42, 0
3, 77760, Note_on_c, 9, 42, 121
3, 77879, Note_on_c, 9, 42, 0
3, 77880, Note_on_c, 9, 42, 117
3, 78239, Note_on_c, 9, 42, 0
3, 78240, Note_on_c, 9, 42, 123
3, 78359, Note_on_c, 9, 42, 0
3, 78360, Note_on_c, 9, 42, 121
3, 78719, Note_on_c, 9, 42, 0
3, 78720, Note_on_c, 9, 42, 127
3, 78839, Note_on_c, 9, 42, 0
3, 78840, Note_on_c, 9, 42, 114
3, 79199, Note_on_c, 9, 42, 0
3, 79200, Note_on_c, 9, 42, 125
3, 79319, Note_on_c, 9, 42, 0
3, 79320, Note_on_c, 9, 42, 119
3, 79679, Note_on_c, 9, 42, 0
3, 79680, Note_on_c, 9, 42, 121
3, 79799, Note_on_c, 9, 42, 0
3, 79800, Note_on_c, 9, 42, 117
3, 80159, Note_on_c, 9, 42, 0
3, 80160, Note_on_c, 9, 42, 123
3, 80279, Note_on_c, 9, 42, 0
3, 80280, Note_on_c, 9, 42, 121
3, 80639, Note_on_c, 9, 42, 0
3, 80640, Note_on_c, 9, 42, 127
3, 80759, Note_on_c, 9, 42, 0
3, 80760, Note_on_c, 9, 42, 114
3, 81119, Note_on_c, 9, 42, 0
3, 81120, Note_on_c, 9, 42, 125
3, 81239, Note_on_c, 9, 42, 0
3, 81240, Note_on_c, 9, 42, 119
3, 81599, Note_on_c, 9, 42, 0
3, 81600, Note_on_c, 9, 42, 121
3, 81719, Note_on_c, 9, 42, 0
3, 81720, Note_on_c, 9, 42, 117
3, 82079, Note_on_c, 9, 42, 0
3, 82080, Note_on_c, 9, 42, 123
3, 82199, Note_on_c, 9, 42, 0
3, 82200, Note_on_c, 9, 42, 121
3, 82559, Note_on_c, 9, 42, 0
3, 82560, Note_on_c, 9, 42, 127
3, 82679, Note_on_c, 9, 42, 0
3, 82680, Note_on_c, 9, 42, 114
3, 83039, Note_on_c, 9, 42, 0
3, 83040, Note_on_c, 9, 42, 125
3, 83159, Note_on_c, 9, 42, 0
3, 83160, Note_on_c, 9, 42, 119
3, 83519, Note_on_c, 9, 42, 0
3, 83520, Note_on_c, 9, 42, 121
3, 83639, Note_on_c, 9, 42, 0
3, 83640, Note_on_c, 9, 42, 117
3, 83999, Note_on_c, 9, 42, 0
3, 84000, Note_on_c, 9, 42, 123
3, 84119, Note_on_c, 9, 42, 0
3, 84120, Note_on_c, 9, 42, 121
3, 84479, Note_on_c, 9, 42, 0
3, 84480, Note_on_c, 9, 42, 127
3, 84599, Note_on_c, 9, 42, 0
3, 84600, Note_on_c, 9, 42, 114
3, 84959, Note_on_c, 9, 42, 0
3, 84960, Note_on_c, 9, 42, 125
3, 85079, Note_on_c, 9, 42, 0
3, 85080, Note_on_c, 9, 42, 119
3, 85439, Note_on_c, 9, 42, 0
3, 85440, Note_on_c, 9, 42, 121
3, 85559, Note_on_c, 9, 42, 0
3, 85560, Note_on_c, 9, 42, 117
3, 85919, Note_on_c, 9, 42, 0
3, 85920, Note_on_c, 9, 42, 123
3, 86039, Note_on_c, 9, 42, 0
3, 86040, Note_on_c, 9, 42, 121
3, 86399, Note_on_c, 9, 42, 0
3, 86400, Note_on_c, 9, 42, 127
3, 86519, Note_on_c, 9, 42, 0
3, 86520, Note_on_c, 9, 42, 114
3, 86879, Note_on_c, 9, 42, 0
3, 86880, Note_on_c, 9, 42, 125
3, 86999, Note_on_c, 9, 42, 0
3, 87000, Note_on_c, 9, 42, 119
3, 87359, Note_on_c, 9, 42, 0
3, 87360, Note_on_c, 9, 42, 121
3, 87479, Note_on_c, 9, 42, 0
3, 87480, Note_on_c, 9, 42, 117
3, 87839, Note_on_c, 9, 42, 0
3, 87840, Note_on_c, 9, 42, 123
3, 87959, Note_on_c, 9, 42, 0
3, 87960, Note_on_c, 9, 42, 121
3, 88319, Note_on_c, 9, 42, 0
3, 88320, Note_on_c, 9, 42, 127
3, 88439, Note_on_c, 9, 42, 0
3, 88440, Note_on_c, 9, 42, 114
3, 88799, Note_on_c, 9, 42, 0
3, 88800, Note_on_c, 9, 42, 125
3, 88919, Note_on_c, 9, 42, 0
3, 88920, Note_on_c, 9, 42, 119
3, 89279, Note_on_c, 9, 42, 0
3, 89280, Note_on_c, 9, 42, 121
3, 89399, Note_on_c, 9, 42, 0
3, 89400, Note_on_c, 9, 42, 117
3, 89759, Note_on_c, 9, 42, 0
3, 89760, Note_on_c, 9, 42, 123
3, 89879, Note_on_c, 9, 42, 0
3, 89880, Note_on_c, 9, 42, 121
3, 90239, Note_on_c, 9, 42, 0
3, 90240, Note_on_c, 9, 42, 127
3, 90359, Note_on_c, 9, 42, 0
3, 90360, Note_on_c, 9, 42, 114
3, 90719, Note_on_c, 9, 42, 0
3, 90720, Note_on_c, 9, 42, 125
3, 90839, Note_on_c, 9, 42, 0
3, 90840, Note_on_c, 9, 42, 119
3, 91199, Note_on_c, 9, 42, 0
3, 91200, Note_on_c, 9, 42, 121
3, 91319, Note_on_c, 9, 42, 0
3, 91320, Note_on_c, 9, 42, 117
3, 91679, Note_on_c, 9, 42, 0
3, 91680, Note_on_c, 9, 42, 123
3, 91799, Note_on_c, 9, 42, 0
3, 91800, Note_on_c, 9, 42, 121
3, 92159, Note_on_c, 9, 42, 0
3, 92160, Note_on_c, 9, 42, 127
3, 92279, Note_on_c, 9, 42, 0
3, 92280, Note_on_c, 9, 42, 114
3, 92639, Note_on_c, 9, 42, 0
3, 92640, Note_on_c, 9, 42, 125
3, 92759, Note_on_c, 9, 42, 0
3, 92760, Note_on_c, 9, 42, 119
3, 93119, Note_on_c, 9, 42, 0
3, 93120, Note_on_c, 9, 42, 121
3, 93239, Note_on_c, 9, 42, 0
3, 93240, Note_on_c, 9, 42, 117
3, 93599, Note_on_c, 9, 42, 0
3, 93600, Note_on_c, 9, 42, 123
3, 93719, Note_on_c, 9, 42, 0
3, 93720, Note_on_c, 9, 42, 121
3, 94079, Note_on_c, 9, 42, 0
3, 94080, Note_on_c, 9, 42, 127
3, 94199, Note_on_c, 9, 42, 0
3, 94200, Note_on_c, 9, 42, 114
3, 94559, Note_on_c, 9, 42, 0
3, 94560, Note_on_c, 9, 42, 125
3, 94679, Note_on_c, 9, 42, 0
3, 94680, Note_on_c, 9, 42, 119
3, 95039, Note_on_c, 9, 42, 0
3, 95040, Note_on_c, 9, 42, 121
3, 95159, Note_on_c, 9, 42, 0
3, 95160, Note_on_c, 9, 42, 117
3, 95519, Note_on_c, 9, 42, 0
3, 95520, Note_on_c, 9, 42, 123
3, 95639, Note_on_c, 9, 42, 0
3, 95640, Note_on_c, 9, 42, 121
3, 95999, Note_on_c, 9, 42, 0
3, 96000, Note_on_c, 9, 42, 127
3, 96119, Note_on_c, 9, 42, 0
3, 96120, Note_on_c, 9, 42, 114
3, 96479, Note_on_c, 9, 42, 0
3, 96480, Note_on_c, 9, 42, 125
3, 96599, Note_on_c, 9, 42, 0
3, 96600, Note_on_c, 9, 42, 119
3, 96959, Note_on_c, 9, 42, 0
3, 96960, Note_on_c, 9, 42, 121
3, 97079, Note_on_c, 9, 42, 0
3, 97080, Note_on_c, 9, 42, 117
3, 97439, Note_on_c, 9, 42, 0
3, 97440, Note_on_c, 9, 42, 123
3, 97559, Note_on_c, 9, 42, 0
3, 97560, Note_on_c, 9, 42, 121
3, 97919, Note_on_c, 9, 42, 0
3, 97920, Note_on_c, 9, 42, 127
3, 98039, Note_on_c, 9, 42, 0
3, 98040, Note_on_c, 9, 42, 114
3, 98399, Note_on_c, 9, 42, 0
3, 98400, Note_on_c, 9, 42, 125
3, 98519, Note_on_c, 9, 42, 0
3, 98520, Note_on_c, 9, 42, 119
3, 98879, Note_on_c, 9, 42, 0
3, 98880, Note_on_c, 9, 42, 121
3, 98999, Note_on_c, 9, 42, 0
3, 99000, Note_on_c, 9, 42, 117
3, 99359, Note_on_c, 9, 42, 0
3, 99360, Note_on_c, 9, 42, 123
3, 99479, Note_on_c, 9, 42, 0
3, 99480, Note_on_c, 9, 42, 121
3, 99839, Note_on_c, 9, 42, 0
3, 99840, Note_on_c, 9, 42, 127
3, 99959, Note_on_c, 9, 42, 0
3, 99960, Note_on_c, 9, 42, 114
3, 100319, Note_on_c, 9, 42, 0
3, 100320, Note_on_c, 9, 42, 125
3, 100439, Note_on_c, 9, 42, 0
3, 100440, Note_on_c, 9, 42, 119
3, 100799, Note_on_c, 9, 42, 0
3, 100800, Note_on_c, 9, 42, 121
3, 100919, Note_on_c, 9, 42, 0
3, 100920, Note_on_c, 9, 42, 117
3, 101279, Note_on_c, 9, 42, 0
3, 101280, Note_on_c, 9, 42, 123
3, 101399, Note_on_c, 9, 42, 0
3, 101400, Note_on_c, 9, 42, 121
3, 101759, Note_on_c, 9, 42, 0
3, 101760, Note_on_c, 9, 42, 127
3, 101879, Note_on_c, 9, 42, 0
3, 101880, Note_on_c, 9, 42, 114
3, 102239, Note_on_c, 9, 42, 0
3, 102240, Note_on_c, 9, 42, 125
3, 102359, Note_on_c, 9, 42, 0
3, 102360, Note_on_c, 9, 42, 119
3, 102719, Note_on_c, 9, 42, 0
3, 102720, Note_on_c, 9, 42, 121
3, 102839, Note_on_c, 9, 42, 0
3, 102840, Note_on_c, 9, 42, 117
3, 103199, Note_on_c, 9, 42, 0
3, 103200, Note_on_c, 9, 42, 123
3, 103319, Note_on_c, 9, 42, 0
3, 103320, Note_on_c, 9, 42, 121
3, 103679, Note_on_c, 9, 42, 0
3, 103680, Note_on_c, 9, 42, 127
3, 103799, Note_on_c, 9, 42, 0
3, 103800, Note_on_c, 9, 42, 114
3, 104159, Note_on_c, 9, 42, 0
3, 104160, Note_on_c, 9, 42, 125
3, 104279, Note_on_c, 9, 42, 0
3, 104280, Note_on_c, 9, 42, 119
3, 104639, Note_on_c, 9, 42, 0
3, 104640, Note_on_c, 9, 42, 121
3, 104759, Note_on_c, 9, 42, 0
3, 104760, Note_on_c, 9, 42, 117
3, 105119, Note_on_c, 9, 42, 0
3, 105120, Note_on_c, 9, 42, 123
3, 105239, Note_on_c, 9, 42, 0
3, 105240, Note_on_c, 9, 42, 121
3, 105599, Note_on_c, 9, 42, 0
3, 105600, Note_on_c, 9, 42, 127
3, 105719, Note_on_c, 9, 42, 0
3, 105720, Note_on_c, 9, 42, 114
3, 106079, Note_on_c, 9, 42, 0
3, 106080, Note_on_c, 9, 42, 125
3, 106199, Note_on_c, 9, 42, 0
3, 106200, Note_on_c, 9, 42, 119
3, 106559, Note_on_c, 9, 42, 0
3, 106560, Note_on_c, 9, 42, 121
3, 106679, Note_on_c, 9, 42, 0
3, 106680, Note_on_c, 9, 42, 117
3, 107039, Note_on_c, 9, 42, 0
3, 107040, Note_on_c, 9, 42, 123
3, 107159, Note_on_c, 9, 42, 0
3, 107160, Note_on_c, 9, 42, 121
3, 107519, Note_on_c, 9, 42, 0
3, 107520, Note_on_c, 9, 42, 127
3, 107639, Note_on_c, 9, 42, 0
3, 107640, Note_on_c, 9, 42, 114
3, 107999, Note_on_c, 9, 42, 0
3, 108000, Note_on_c, 9, 42, 125
3, 108119, Note_on_c, 9, 42, 0
3, 108120, Note_on_c, 9, 42, 119
3, 108479, Note_on_c, 9, 42, 0
3, 108480, Note_on_c, 9, 42, 121
3, 108599, Note_on_c, 9, 42, 0
3, 108600, Note_on_c, 9, 42, 117
3, 108959, Note_on_c, 9, 42, 0
3, 108960, Note_on_c, 9, 42, 123
3, 109079, Note_on_c, 9, 42, 0
3, 109080, Note_on_c, 9, 42, 121
3, 109439, Note_on_c, 9, 42, 0
3, 109440, Note_on_c, 9, 42, 127
3, 109559, Note_on_c, 9, 42, 0
3, 109560, Note_on_c, 9, 42, 114
3, 109919, Note_on_c, 9, 42, 0
3, 109920, Note_on_c, 9, 42, 125
3, 110039, Note_on_c, 9, 42, 0
3, 110040, Note_on_c, 9, 42, 119
3, 110399, Note_on_c, 9, 42, 0
3, 110400, Note_on_c, 9, 42, 121
3, 110519, Note_on_c, 9, 42, 0
3, 110520, Note_on_c, 9, 42, 117
3, 110879, Note_on_c, 9, 42, 0
3, 110880, Note_on_c, 9, 42, 123
3, 110999, Note_on_c, 9, 42, 0
3, 111000, Note_on_c, 9, 42, 121
3, 111359, Note_on_c, 9, 42, 0
3, 111360, Note_on_c, 9, 42, 127
3, 111479, Note_on_c, 9, 42, 0
3, 111480, Note_on_c, 9, 42, 114
3, 111839, Note_on_c, 9, 42, 0
3, 111840, Note_on_c, 9, 42, 125
3, 111959, Note_on_c, 9, 42, 0
3, 111960, Note_on_c, 9, 42, 119
3, 112319, Note_on_c, 9, 42, 0
3, 112320, Note_on_c, 9, 42, 121
3, 112439, Note_on_c, 9, 42, 0
3, 112440, Note_on_c, 9, 42, 117
3, 112799, Note_on_c, 9, 42, 0
3, 112800, Note_on_c, 9, 42, 123
3, 112919, Note_on_c, 9, 42, 0
3, 112920, Note_on_c, 9, 42, 121
3, 113279, Note_on_c, 9, 42, 0
3, 113280, Note_on_c, 9, 42, 127
3, 113759, Note_on_c, 9, 42, 0
3, 113760, Note_on_c, 9, 42, 127
3, 114239, Note_on_c, 9, 42, 0
3, 114240, Note_on_c, 9, 42, 127
3, 114719, Note_on_c, 9, 42, 0
3, 115200, Note_on_c, 9, 42, 127
3, 115319, Note_on_c, 9, 42, 0
3, 115320, Note_on_c, 9, 42, 114
3, 115679, Note_on_c, 9, 42, 0
3, 115680, Note_on_c, 9, 42, 125
3, 115799, Note_on_c, 9, 42, 0
3, 115800, Note_on_c, 9, 42, 119
3, 116159, Note_on_c, 9, 42, 0
3, 116160, Note_on_c, 9, 42, 121
3, 116279, Note_on_c, 9, 42, 0
3, 116280, Note_on_c, 9, 42, 117
3, 116639, Note_on_c, 9, 42, 0
3, 116640, Note_on_c, 9, 42, 123
3, 116759, Note_on_c, 9, 42, 0
3, 116760, Note_on_c, 9, 42, 121
3, 117119, Note_on_c, 9, 42, 0
3, 117120, Note_on_c, 9, 42, 127
3, 117239, Note_on_c, 9, 42, 0
3, 117240, Note_on_c, 9, 42, 114
3, 117599, Note_on_c, 9, 42, 0
3, 117600, Note_on_c, 9, 42, 125
3, 117719, Note_on_c, 9, 42, 0
3, 117720, Note_on_c, 9, 42, 119
3, 118079, Note_on_c, 9, 42, 0
3, 118080, Note_on_c, 9, 42, 121
3, 118199, Note_on_c, 9, 42, 0
3, 118200, Note_on_c, 9, 42, 117
3, 118559, Note_on_c, 9, 42, 0
3, 118560, Note_on_c, 9, 42, 123
3, 118679, Note_on_c, 9, 42, 0
3, 118680, Note_on_c, 9, 42, 121
3, 119039, Note_on_c, 9, 42, 0
3, 119040, Note_on_c, 9, 42, 127
3, 119159, Note_on_c, 9, 42, 0
3, 119160, Note_on_c, 9, 42, 114
3, 119519, Note_on_c, 9, 42, 0
3, 119520, Note_on_c, 9, 42, 125
3, 119639, Note_on_c, 9, 42, 0
3, 119640, Note_on_c, 9, 42, 119
3, 119999, Note_on_c, 9, 42, 0
3, 120000, Note_on_c, 9, 42, 121
3, 120119, Note_on_c, 9, 42, 0
3, 120120, Note_on_c, 9, 42, 117
3, 120479, Note_on_c, 9, 42, 0
3, 120480, Note_on_c, 9, 42, 123
3, 120599, Note_on_c, 9, 42, 0
3, 120600, Note_on_c, 9, 42, 121
3, 120959, Note_on_c, 9, 42, 0
3, 120960, Note_on_c, 9, 42, 127
3, 121079, Note_on_c, 9, 42, 0
3, 121080, Note_on_c, 9, 42, 114
3, 121439, Note_on_c, 9, 42, 0
3, 121440, Note_on_c, 9, 42, 125
3, 121559, Note_on_c, 9, 42, 0
3, 121560, Note_on_c, 9, 42, 119
3, 121919, Note_on_c, 9, 42, 0
3, 121920, Note_on_c, 9, 42, 121
3, 122039, Note_on_c, 9, 42, 0
3, 122040, Note_on_c, 9, 42, 117
3, 122399, Note_on_c, 9, 42, 0
3, 122400, Note_on_c, 9, 42, 123
3, 122519, Note_on_c, 9, 42, 0
3, 122520, Note_on_c, 9, 42, 121
3, 122879, Note_on_c, 9, 42, 0
3, 122880, Note_on_c, 9, 42, 127
3, 122999, Note_on_c, 9, 42, 0
3, 123000, Note_on_c, 9, 42, 114
3, 123359, Note_on_c, 9, 42, 0
3, 123360, Note_on_c, 9, 42, 125
3, 123479, Note_on_c, 9, 42, 0
3, 123480, Note_on_c, 9, 42, 119
3, 123839, Note_on_c, 9, 42, 0
3, 123840, Note_on_c, 9, 42, 121
3, 123959, Note_on_c, 9, 42, 0
3, 123960, Note_on_c, 9, 42, 117
3, 124319, Note_on_c, 9, 42, 0
3, 124320, Note_on_c, 9, 42, 123
3, 124439, Note_on_c, 9, 42, 0
3, 124440, Note_on_c, 9, 42, 121
3, 124799, Note_on_c, 9, 42, 0
3, 124800, Note_on_c, 9, 42, 127
3, 124919, Note_on_c, 9, 42, 0
3, 124920, Note_on_c, 9, 42, 114
3, 125279, Note_on_c, 9, 42, 0
3, 125280, Note_on_c, 9, 42, 125
3, 125399, Note_on_c, 9, 42, 0
3, 125400, Note_on_c, 9, 42, 119
3, 125759, Note_on_c, 9, 42, 0
3, 125760, Note_on_c, 9, 42, 121
3, 125879, Note_on_c, 9, 42, 0
3, 125880, Note_on_c, 9, 42, 117
3, 126239, Note_on_c, 9, 42, 0
3, 126240, Note_on_c, 9, 42, 123
3, 126359, Note_on_c, 9, 42, 0
3, 126360, Note_on_c, 9, 42, 121
3, 126719, Note_on_c, 9, 42, 0
3, 126720, Note_on_c, 9, 42, 127
3, 126839, Note_on_c, 9, 42, 0
3, 126840, Note_on_c, 9, 42, 114
3, 127199, Note_on_c, 9, 42, 0
3, 127200, Note_on_c, 9, 42, 125
3, 127319, Note_on_c, 9, 42, 0
3, 127320, Note_on_c, 9, 42, 119
3, 127679, Note_on_c, 9, 42, 0
3, 127680, Note_on_c, 9, 42, 121
3, 127799, Note_on_c, 9, 42, 0
3, 127800, Note_on_c, 9, 42, 117
3, 128159, Note_on_c, 9, 42, 0
3, 128160, Note_on_c, 9, 42, 123
3, 128279, Note_on_c, 9, 42, 0
3, 128280, Note_on_c, 9, 42, 121
3, 128639, Note_on_c, 9, 42, 0
3, 128640, Note_on_c, 9, 42, 127
3, 128759, Note_on_c, 9, 42, 0
3, 128760, Note_on_c, 9, 42, 114
3, 129119, Note_on_c, 9, 42, 0
3, 129120, Note_on_c, 9, 42, 125
3, 129239, Note_on_c, 9, 42, 0
3, 129240, Note_on_c, 9, 42, 119
3, 129599, Note_on_c, 9, 42, 0
3, 129600, Note_on_c, 9, 42, 121
3, 129719, Note_on_c, 9, 42, 0
3, 129720, Note_on_c, 9, 42, 117
3, 130079, Note_on_c, 9, 42, 0
3, 130080, Note_on_c, 9, 42, 123
3, 130199, Note_on_c, 9, 42, 0
3, 130200, Note_on_c, 9, 42, 121
3, 130559, Note_on_c, 9, 42, 0
3, 130560, Note_on_c, 9, 42, 127
3, 130679, Note_on_c, 9, 42, 0
3, 130680, Note_on_c, 9, 42, 114
3, 131039, Note_on_c, 9, 42, 0
3, 131040, Note_on_c, 9, 42, 125
3, 131159, Note_on_c, 9, 42, 0
3, 131160, Note_on_c, 9, 42, 119
3, 131519, Note_on_c, 9, 42, 0
3, 131520, Note_on_c, 9, 42, 121
3, 131639, Note_on_c, 9, 42, 0
3, 131640, Note_on_c, 9, 42, 117
3, 131999, Note_on_c, 9, 42, 0
3, 132000, Note_on_c, 9, 42, 123
3, 132119, Note_on_c, 9, 42, 0
3, 132120, Note_on_c, 9, 42, 121
3, 132479, Note_on_c, 9, 42, 0
3, 132480, Note_on_c, 9, 42, 127
3, 132599, Note_on_c, 9, 42, 0
3, 132600, Note_on_c, 9, 42, 114
3, 132959, Note_on_c, 9, 42, 0
3, 132960, Note_on_c, 9, 42, 125
3, 133079, Note_on_c, 9, 42, 0
3, 133080, Note_on_c, 9, 42, 119
3, 133439, Note_on_c, 9, 42, 0
3, 133440, Note_on_c, 9, 42, 121
3, 133559, Note_on_c, 9, 42, 0
3, 133560, Note_on_c, 9, 42, 117
3, 133919, Note_on_c, 9, 42, 0
3, 133920, Note_on_c, 9, 42, 123
3, 134039, Note_on_c, 9, 42, 0
3, 134040, Note_on_c, 9, 42, 121
3, 134399, Note_on_c, 9, 42, 0
3, 134400, Note_on_c, 9, 42, 127
3, 134519, Note_on_c, 9, 42, 0
3, 134520, Note_on_c, 9, 42, 114
3, 134879, Note_on_c, 9, 42, 0
3, 134880, Note_on_c, 9, 42, 125
3, 134999, Note_on_c, 9, 42, 0
3, 135000, Note_on_c, 9, 42, 119
3, 135359, Note_on_c, 9, 42, 0
3, 135360, Note_on_c, 9, 42, 121
3, 135479, Note_on_c, 9, 42, 0
3, 135480, Note_on_c, 9, 42, 117
3, 135839, Note_on_c, 9, 42, 0
3, 135840, Note_on_c, 9, 42, 123
3, 135959, Note_on_c, 9, 42, 0
3, 135960, Note_on_c, 9, 42, 121
3, 136319, Note_on_c, 9, 42, 0
3, 136320, Note_on_c, 9, 42, 127
3, 136439, Note_on_c, 9, 42, 0
3, 136440, Note_on_c, 9, 42, 114
3, 136799, Note_on_c, 9, 42, 0
3, 136800, Note_on_c, 9, 42, 125
3, 136919, Note_on_c, 9, 42, 0
3, 136920, Note_on_c, 9, 42, 119
3, 137279, Note_on_c, 9, 42, 0
3, 137280, Note_on_c, 9, 42, 121
3, 137399, Note_on_c, 9, 42, 0
3, 137400, Note_on_c, 9, 42, 117
3, 137759, Note_on_c, 9, 42, 0
3, 137760, Note_on_c, 9, 42, 123
3, 137879, Note_on_c, 9, 42, 0
3, 137880, Note_on_c, 9, 42, 121
3, 138239, Note_on_c, 9, 42, 0
3, 138240, Note_on_c, 9, 42, 127
3, 138359, Note_on_c, 9, 42, 0
3, 138360, Note_on_c, 9, 42, 114
3, 138719, Note_on_c, 9, 42, 0
3, 138720, Note_on_c, 9, 42, 125
3, 138839, Note_on_c, 9, 42, 0
3, 138840, Note_on_c, 9, 42, 119
3, 139199, Note_on_c, 9, 42, 0
3, 139200, Note_on_c, 9, 42, 121
3, 139319, Note_on_c, 9, 42, 0
3, 139320, Note_on_c, 9, 42, 117
3, 139679, Note_on_c, 9, 42, 0
3, 139680, Note_on_c, 9, 42, 123
3, 139799, Note_on_c, 9, 42, 0
3, 139800, Note_on_c, 9, 42, 121
3, 140159, Note_on_c, 9, 42, 0
3, 140160, Note_on_c, 9, 42, 127
3, 140279, Note_on_c, 9, 42, 0
3, 140280, Note_on_c, 9, 42, 114
3, 140639, Note_on_c, 9, 42, 0
3, 140640, Note_on_c, 9, 42, 125
3, 140759, Note_on_c, 9, 42, 0
3, 140760, Note_on_c, 9, 42, 119
3, 141119, Note_on_c, 9, 42, 0
3, 141120, Note_on_c, 9, 42, 121
3, 141239, Note_on_c, 9, 42, 0
3, 141240, Note_on_c, 9, 42, 117
3, 141599, Note_on_c, 9, 42, 0
3, 141600, Note_on_c, 9, 42, 123
3, 141719, Note_on_c, 9, 42, 0
3, 141720, Note_on_c, 9, 42, 121
3, 142079, Note_on_c, 9, 42, 0
3, 142080, Note_on_c, 9, 42, 127
3, 142199, Note_on_c, 9, 42, 0
3, 142200, Note_on_c, 9, 42, 114
3, 142559, Note_on_c, 9, 42, 0
3, 142560, Note_on_c, 9, 42, 125
3, 142679, Note_on_c, 9, 42, 0
3, 142680, Note_on_c, 9, 42, 119
3, 143039, Note_on_c, 9, 42, 0
3, 143040, Note_on_c, 9, 42, 121
3, 143159, Note_on_c, 9, 42, 0
3, 143160, Note_on_c, 9, 42, 117
3, 143519, Note_on_c, 9, 42, 0
3, 143520, Note_on_c, 9, 42, 123
3, 143639, Note_on_c, 9, 42, 0
3, 143640, Note_on_c, 9, 42, 121
3, 143999, Note_on_c, 9, 42, 0
3, 144000, Note_on_c, 9, 42, 127
3, 144119, Note_on_c, 9, 42, 0
3, 144120, Note_on_c, 9, 42, 114
3, 144479, Note_on_c, 9, 42, 0
3, 144480, Note_on_c, 9, 42, 125
3, 144599, Note_on_c, 9, 42, 0
3, 144600, Note_on_c, 9, 42, 119
3, 144959, Note_on_c, 9, 42, 0
3, 144960, Note_on_c, 9, 42, 121
3, 145079, Note_on_c, 9, 42, 0
3, 145080, Note_on_c, 9, 42, 117
3, 145439, Note_on_c, 9, 42, 0
3, 145440, Note_on_c, 9, 42, 123
3, 145559, Note_on_c, 9, 42, 0
3, 145560, Note_on_c, 9, 42, 121
3, 145919, Note_on_c, 9, 42, 0
3, 145920, Note_on_c, 9, 42, 127
3, 146039, Note_on_c, 9, 42, 0
3, 146040, Note_on_c, 9, 42, 114
3, 146399, Note_on_c, 9, 42, 0
3, 146400, Note_on_c, 9, 42, 125
3, 146519, Note_on_c, 9, 42, 0
3, 146520, Note_on_c, 9, 42, 119
3, 146879, Note_on_c, 9, 42, 0
3, 146880, Note_on_c, 9, 42, 121
3, 146999, Note_on_c, 9, 42, 0
3, 147000, Note_on_c, 9, 42, 117
3, 147359, Note_on_c, 9, 42, 0
3, 147360, Note_on_c, 9, 42, 123
3, 147479, Note_on_c, 9, 42, 0
3, 147480, Note_on_c, 9, 42, 121
3, 147839, Note_on_c, 9, 42, 0
3, 147840, Note_on_c, 9, 42, 127
3, 147959, Note_on_c, 9, 42, 0
3, 147960, Note_on_c, 9, 42, 114
3, 148319, Note_on_c, 9, 42, 0
3, 148320, Note_on_c, 9, 42, 125
3, 148439, Note_on_c, 9, 42, 0
3, 148440, Note_on_c, 9, 42, 119
3, 148799, Note_on_c, 9, 42, 0
3, 148800, Note_on_c, 9, 42, 121
3, 148919, Note_on_c, 9, 42, 0
3, 148920, Note_on_c, 9, 42, 117
3, 149279, Note_on_c, 9, 42, 0
3, 149280, Note_on_c, 9, 42, 123
3, 149399, Note_on_c, 9, 42, 0
3, 149400, Note_on_c, 9, 42, 121
3, 149759, Note_on_c, 9, 42, 0
3, 149760, Note_on_c, 9, 42, 127
3, 149879, Note_on_c, 9, 42, 0
3, 149880, Note_on_c, 9, 42, 114
3, 150239, Note_on_c, 9, 42, 0
3, 150240, Note_on_c, 9, 42, 125
3, 150359, Note_on_c, 9, 42, 0
3, 150360, Note_on_c, 9, 42, 119
3, 150719, Note_on_c, 9, 42, 0
3, 150720, Note_on_c, 9, 42, 121
3, 150839, Note_on_c, 9, 42, 0
3, 150840, Note_on_c, 9, 42, 117
3, 151199, Note_on_c, 9, 42, 0
3, 151200, Note_on_c, 9, 42, 123
3, 151319, Note_on_c, 9, 42, 0
3, 151320, Note_on_c, 9, 42, 121
3, 151679, Note_on_c, 9, 42, 0
3, 151680, Note_on_c, 9, 42, 127
3, 151799, Note_on_c, 9, 42, 0
3, 151800, Note_on_c, 9, 42, 114
3, 152159, Note_on_c, 9, 42, 0
3, 152160, Note_on_c, 9, 42, 125
3, 152279, Note_on_c, 9, 42, 0
3, 152280, Note_on_c, 9, 42, 119
3, 152639, Note_on_c, 9, 42, 0
3, 152640, Note_on_c, 9, 42, 121
3, 152759, Note_on_c, 9, 42, 0
3, 152760, Note_on_c, 9, 42, 117
3, 153119, Note_on_c, 9, 42, 0
3, 153120, Note_on_c, 9, 42, 123
3, 153239, Note_on_c, 9, 42, 0
3, 153240, Note_on_c, 9, 42, 121
3, 153599, Note_on_c, 9, 42, 0
3, 153600, Note_on_c, 9, 42, 127
3, 153719, Note_on_c, 9, 42, 0
3, 153720, Note_on_c, 9, 42, 114
3, 154079, Note_on_c, 9, 42, 0
3, 154080, Note_on_c, 9, 42, 125
3, 154199, Note_on_c, 9, 42, 0
3, 154200, Note_on_c, 9, 42, 119
3, 154559, Note_on_c, 9, 42, 0
3, 154560, Note_on_c, 9, 42, 121
3, 154679, Note_on_c, 9, 42, 0
3, 154680, Note_on_c, 9, 42, 117
3, 155039, Note_on_c, 9, 42, 0
3, 155040, Note_on_c, 9, 42, 123
3, 155159, Note_on_c, 9, 42, 0
3, 155160, Note_on_c, 9, 42, 121
3, 155519, Note_on_c, 9, 42, 0
3, 155520, Note_on_c, 9, 42, 127
3, 155639, Note_on_c, 9, 42, 0
3, 155640, Note_on_c, 9, 42, 114
3, 155999, Note_on_c, 9, 42, 0
3, 156000, Note_on_c, 9, 42, 125
3, 156119, Note_on_c, 9, 42, 0
3, 156120, Note_on_c, 9, 42, 119
3, 156479, Note_on_c, 9, 42, 0
3, 156480, Note_on_c, 9, 42, 121
3, 156599, Note_on_c, 9, 42, 0
3, 156600, Note_on_c, 9, 42, 117
3, 156959, Note_on_c, 9, 42, 0
3, 156960, Note_on_c, 9, 42, 123
3, 157079, Note_on_c, 9, 42, 0
3, 157080, Note_on_c, 9, 42, 121
3, 157439, Note_on_c, 9, 42, 0
3, 157440, Note_on_c, 9, 42, 127
3, 157559, Note_on_c, 9, 42, 0
3, 157560, Note_on_c, 9, 42, 114
3, 157919, Note_on_c, 9, 42, 0
3, 157920, Note_on_c, 9, 42, 125
3, 158039, Note_on_c, 9, 42, 0
3, 158040, Note_on_c, 9, 42, 119
3, 158399, Note_on_c, 9, 42, 0
3, 158400, Note_on_c, 9, 42, 121
3, 158519, Note_on_c, 9, 42, 0
3, 158520, Note_on_c, 9, 42, 117
3, 158879, Note_on_c, 9, 42, 0
3, 158880, Note_on_c, 9, 42, 123
3, 158999, Note_on_c, 9, 42, 0
3, 159000, Note_on_c, 9, 42, 121
3, 159359, Note_on_c, 9, 42, 0
3, 159360, Note_on_c, 9, 42, 127
3, 159479, Note_on_c, 9, 42, 0
3, 159480, Note_on_c, 9, 42, 114
3, 159839, Note_on_c, 9, 42, 0
3, 159840, Note_on_c, 9, 42, 125
3, 159959, Note_on_c, 9, 42, 0
3, 159960, Note_on_c, 9, 42, 119
3, 160319, Note_on_c, 9, 42, 0
3, 160320, Note_on_c, 9, 42, 121
3, 160439, Note_on_c, 9, 42, 0
3, 160440, Note_on_c, 9, 42, 117
3, 160799, Note_on_c, 9, 42, 0
3, 160800, Note_on_c, 9, 42, 123
3, 160919, Note_on_c, 9, 42, 0
3, 160920, Note_on_c, 9, 42, 121
3, 161279, Note_on_c, 9, 42, 0
3, 161280, Note_on_c, 9, 42, 127
3, 161399, Note_on_c, 9, 42, 0
3, 161400, Note_on_c, 9, 42, 114
3, 161759, Note_on_c, 9, 42, 0
3, 161760, Note_on_c, 9, 42, 125
3, 161879, Note_on_c, 9, 42, 0
3, 161880, Note_on_c, 9, 42, 119
3, 162239, Note_on_c, 9, 42, 0
3, 162240, Note_on_c, 9, 42, 121
3, 162359, Note_on_c, 9, 42, 0
3, 162360, Note_on_c, 9, 42, 117
3, 162719, Note_on_c, 9, 42, 0
3, 162720, Note_on_c, 9, 42, 123
3, 162839, Note_on_c, 9, 42, 0
3, 162840, Note_on_c, 9, 42, 121
3, 163199, Note_on_c, 9, 42, 0
3, 163200, Note_on_c, 9, 42, 127
3, 163319, Note_on_c, 9, 42, 0
3, 163320, Note_on_c, 9, 42, 114
3, 163679, Note_on_c, 9, 42, 0
3, 163680, Note_on_c, 9, 42, 125
3, 163799, Note_on_c, 9, 42, 0
3, 163800, Note_on_c, 9, 42, 119
3, 164159, Note_on_c, 9, 42, 0
3, 164160, Note_on_c, 9, 42, 121
3, 164279, Note_on_c, 9, 42, 0
3, 164280, Note_on_c, 9, 42, 117
3, 164639, Note_on_c, 9, 42, 0
3, 164640, Note_on_c, 9, 42, 123
3, 164759, Note_on_c, 9, 42, 0
3, 164760, Note_on_c, 9, 42, 121
3, 165119, Note_on_c, 9, 42, 0
3, 165120, Note_on_c, 9, 42, 127
3, 165239, Note_on_c, 9, 42, 0
3, 165240, Note_on_c, 9, 42, 114
3, 165599, Note_on_c, 9, 42, 0
3, 165600, Note_on_c, 9, 42, 125
3, 165719, Note_on_c, 9, 42, 0
3, 165720, Note_on_c, 9, 42, 119
3, 166079, Note_on_c, 9, 42, 0
3, 166080, Note_on_c, 9, 42, 121
3, 166199, Note_on_c, 9, 42, 0
3, 166200, Note_on_c, 9, 42, 117
3, 166559, Note_on_c, 9, 42, 0
3, 166560, Note_on_c, 9, 42, 123
3, 166679, Note_on_c, 9, 42, 0
3, 166680, Note_on_c, 9, 42, 121
3, 167039, Note_on_c, 9, 42, 0
3, 167040, Note_on_c, 9, 42, 127
3, 167159, Note_on_c, 9, 42, 0
3, 167160, Note_on_c, 9, 42, 114
3, 167519, Note_on_c, 9, 42, 0
3, 167520, Note_on_c, 9, 42, 125
3, 167639, Note_on_c, 9, 42, 0
3, 167640, Note_on_c, 9, 42, 119
3, 167999, Note_on_c, 9, 42, 0
3, 168000, Note_on_c, 9, 42, 121
3, 168119, Note_on_c, 9, 42, 0
3, 168120, Note_on_c, 9, 42, 117
3, 168479, Note_on_c, 9, 42, 0
3, 168480, Note_on_c, 9, 42, 123
3, 168599, Note_on_c, 9, 42, 0
3, 168600, Note_on_c, 9, 42, 121
3, 168959, Note_on_c, 9, 42, 0
3, 168960, Note_on_c, 9, 42, 127
3, 169079, Note_on_c, 9, 42, 0
3, 169080, Note_on_c, 9, 42, 114
3, 169439, Note_on_c, 9, 42, 0
3, 169440, Note_on_c, 9, 42, 125
3, 169559, Note_on_c, 9, 42, 0
3, 169560, Note_on_c, 9, 42, 119
3, 169919, Note_on_c, 9, 42, 0
3, 169920, Note_on_c, 9, 42, 121
3, 170039, Note_on_c, 9, 42, 0
3, 170040, Note_on_c, 9, 42, 117
3, 170399, Note_on_c, 9, 42, 0
3, 170400, Note_on_c, 9, 42, 123
3, 170519, Note_on_c, 9, 42, 0
3, 170520, Note_on_c, 9, 42, 121
3, 170879, Note_on_c, 9, 42, 0
3, 170880, Note_on_c, 9, 42, 127
3, 170999, Note_on_c, 9, 42, 0
3, 171000, Note_on_c, 9, 42, 114
3, 171359, Note_on_c, 9, 42, 0
3, 171360, Note_on_c, 9, 42, 125
3, 171479, Note_on_c, 9, 42, 0
3, 171480, Note_on_c, 9, 42, 119
3, 171839, Note_on_c, 9, 42, 0
3, 171840, Note_on_c, 9, 42, 121
3, 171959, Note_on_c, 9, 42, 0
3, 171960, Note_on_c, 9, 42, 117
3, 172319, Note_on_c, 9, 42, 0
3, 172320, Note_on_c, 9, 42, 123
3, 172439, Note_on_c, 9, 42, 0
3, 172440, Note_on_c, 9, 42, 121
3, 172799, Note_on_c, 9, 42, 0
3, 172800, Note_on_c, 9, 42, 127
3, 173279, Note_on_c, 9, 42, 0
3, 173280, Note_on_c, 9, 42, 127
3, 173759, Note_on_c, 9, 42, 0
3, 173760, Note_on_c, 9, 42, 127
3, 174239, Note_on_c, 9, 42, 0
3, 174720, Note_on_c, 9, 42, 127
3, 174839, Note_on_c, 9, 42, 0
3, 174840, Note_on_c, 9, 42, 114
3, 175199, Note_on_c, 9, 42, 0
3, 175200, Note_on_c, 9, 42, 125
3, 175319, Note_on_c, 9, 42, 0
3, 175320, Note_on_c, 9, 42, 119
3, 175679, Note_on_c, 9, 42, 0
3, 175680, Note_on_c, 9, 42, 121
3, 175799, Note_on_c, 9, 42, 0
3, 175800, Note_on_c, 9, 42, 117
3, 176159, Note_on_c, 9, 42, 0
3, 176160, Note_on_c, 9, 42, 123
3, 176279, Note_on_c, 9, 42, 0
3, 176280, Note_on_c, 9, 42, 121
3, 176639, Note_on_c, 9, 42, 0
3, 176640, Note_on_c, 9, 42, 127
3, 176759, Note_on_c, 9, 42, 0
3, 176760, Note_on_c, 9, 42, 114
3, 177119, Note_on_c, 9, 42, 0
3, 177120, Note_on_c, 9, 42, 125
3, 177239, Note_on_c, 9, 42, 0
3, 177240, Note_on_c, 9, 42, 119
3, 177599, Note_on_c, 9, 42, 0
3, 177600, Note_on_c, 9, 42, 121
3, 177719, Note_on_c, 9, 42, 0
3, 177720, Note_on_c, 9, 42, 117
3, 178079, Note_on_c, 9, 42, 0
3, 178080, Note_on_c, 9, 42, 123
3, 178199, Note_on_c, 9, 42, 0
3, 178200, Note_on_c, 9, 42, 121
3, 178559, Note_on_c, 9, 42, 0
3, 178560, Note_on_c, 9, 42, 127
3, 178679, Note_on_c, 9, 42, 0
3, 178680, Note_on_c, 9, 42, 114
3, 179039, Note_on_c, 9, 42, 0
3, 179040, Note_on_c, 9, 42, 125
3, 179159, Note_on_c, 9, 42, 0
3, 179160, Note_on_c, 9, 42, 119
3, 179519, Note_on_c, 9, 42, 0
3, 179520, Note_on_c, 9, 42, 121
3, 179639, Note_on_c, 9, 42, 0
3, 179640, Note_on_c, 9, 42, 117
3, 179999, Note_on_c, 9, 42, 0
3, 180000, Note_on_c, 9, 42, 123
3, 180119, Note_on_c, 9, 42, 0
3, 180120, Note_on_c, 9, 42, 121
3, 180479, Note_on_c, 9, 42, 0
3, 180480, Note_on_c, 9, 42, 127
3, 180599, Note_on_c, 9, 42, 0
3, 180600, Note_on_c, 9, 42, 114
3, 180959, Note_on_c, 9, 42, 0
3, 180960, Note_on_c, 9, 42, 125
3, 181079, Note_on_c, 9, 42, 0
3, 181080, Note_on_c, 9, 42, 119
3, 181439, Note_on_c, 9, 42, 0
3, 181440, Note_on_c, 9, 42, 121
3, 181559, Note_on_c, 9, 42, 0
3, 181560, Note_on_c, 9, 42, 117
3, 181919, Note_on_c, 9, 42, 0
3, 181920, Note_on_c, 9, 42, 123
3, 182039, Note_on_c, 9, 42, 0
3, 182040, Note_on_c, 9, 42, 121
3, 182399, Note_on_c, 9, 42, 0
3, 182400, Note_on_c, 9, 42, 127
3, 182519, Note_on_c, 9, 42, 0
3, 182520, Note_on_c, 9, 42, 114
3, 182879, Note_on_c, 9, 42, 0
3, 182880, Note_on_c, 9, 42, 125
3, 182999, Note_on_c, 9, 42, 0
3, 183000, Note_on_c, 9, 42, 119
3, 183359, Note_on_c, 9, 42, 0
3, 183360, Note_on_c, 9, 42, 121
3, 183479, Note_on_c, 9, 42, 0
3, 183480, Note_on_c, 9, 42, 117
3, 183839, Note_on_c, 9, 42, 0
3, 183840, Note_on_c, 9, 42, 123
3, 183959, Note_on_c, 9, 42, 0
3, 183960, Note_on_c, 9, 42, 121
3, 184319, Note_on_c, 9, 42, 0
3, 184320, Note_on_c, 9, 42, 127
3, 184439, Note_on_c, 9, 42, 0
3, 184440, Note_on_c, 9, 42, 114
3, 184799, Note_on_c, 9, 42, 0
3, 184800, Note_on_c, 9, 42, 125
3, 184919, Note_on_c, 9, 42, 0
3, 184920, Note_on_c, 9, 42, 119
3, 185279, Note_on_c, 9, 42, 0
3, 185280, Note_on_c, 9, 42, 121
3, 185399, Note_on_c, 9, 42, 0
3, 185400, Note_on_c, 9, 42, 117
3, 185759, Note_on_c, 9, 42, 0
3, 185760, Note_on_c, 9, 42, 123
3, 185879, Note_on_c, 9, 42, 0
3, 185880, Note_on_c, 9, 42, 121
3, 186239, Note_on_c, 9, 42, 0
3, 186240, Note_on_c, 9, 42, 127
3, 186359, Note_on_c, 9, 42, 0
3, 186360, Note_on_c, 9, 42, 114
3, 186719, Note_on_c, 9, 42, 0
3, 186720, Note_on_c, 9, 42, 125
3, 186839, Note_on_c, 9, 42, 0
3, 186840, Note_on_c, 9, 42, 119
3, 187199, Note_on_c, 9, 42, 0
3, 187200, Note_on_c, 9, 42, 121
3, 187319, Note_on_c, 9, 42, 0
3, 187320, Note_on_c, 9, 42, 117
3, 187679, Note_on_c, 9, 42, 0
3, 187680, Note_on_c, 9, 42, 123
3, 187799, Note_on_c, 9, 42, 0
3, 187800, Note_on_c, 9, 42, 121
3, 188159, Note_on_c, 9, 42, 0
3, 188160, Note_on_c, 9, 42, 127
3, 188279, Note_on_c, 9, 42, 0
3, 188280, Note_on_c, 9, 42, 114
3, 188639, Note_on_c, 9, 42, 0
3, 188640, Note_on_c, 9, 42, 125
3, 188759, Note_on_c, 9, 42, 0
3, 188760, Note_on_c, 9, 42, 119
3, 189119, Note_on_c, 9, 42, 0
3, 189120, Note_on_c, 9, 42, 121
3, 189239, Note_on_c, 9, 42, 0
3, 189240, Note_on_c, 9, 42, 117
3, 189599, Note_on_c, 9, 42, 0
3, 189600, Note_on_c, 9, 42, 123
3, 189719, Note_on_c, 9, 42, 0
3, 189720, Note_on_c, 9, 42, 121
3, 190079, Note_on_c, 9, 42, 0
3, 190080, Note_on_c, 9, 42, 127
3, 190199, Note_on_c, 9, 42, 0
3, 190200, Note_on_c, 9, 42, 114
3, 190559, Note_on_c, 9, 42, 0
3, 190560, Note_on_c, 9, 42, 125
3, 190679, Note_on_c, 9, 42, 0
3, 190680, Note_on_c, 9, 42, 119
3, 191039, Note_on_c, 9, 42, 0
3, 191040, Note_on_c, 9, 42, 121
3, 191159, Note_on_c, 9, 42, 0
3, 191160, Note_on_c, 9, 42, 117
3, 191519, Note_on_c, 9, 42, 0
3, 191520, Note_on_c, 9, 42, 123
3, 191639, Note_on_c, 9, 42, 0
3, 191640, Note_on_c, 9, 42, 121
3, 191999, Note_on_c, 9, 42, 0
3, 192000, Note_on_c, 9, 42, 127
3, 192119, Note_on_c, 9, 42, 0
3, 192120, Note_on_c, 9, 42, 114
3, 192479, Note_on_c, 9, 42, 0
3, 192480, Note_on_c, 9, 42, 125
3, 192599, Note_on_c, 9, 42, 0
3, 192600, Note_on_c, 9, 42, 119
3, 192959, Note_on_c, 9, 42, 0
3, 192960, Note_on_c, 9, 42, 121
3, 193079, Note_on_c, 9, 42, 0
3, 193080, Note_on_c, 9, 42, 117
3, 193439, Note_on_c, 9, 42, 0
3, 193440, Note_on_c, 9, 42, 123
3, 193559, Note_on_c, 9, 42, 0
3, 193560, Note_on_c, 9, 42, 121
3, 193919, Note_on_c, 9, 42, 0
3, 193920, Note_on_c, 9, 42, 127
3, 194039, Note_on_c, 9, 42, 0
3, 194040, Note_on_c, 9, 42, 114
3, 194399, Note_on_c, 9, 42, 0
3, 194400, Note_on_c, 9, 42, 125
3, 194519, Note_on_c, 9, 42, 0
3, 194520, Note_on_c, 9, 42, 119
3, 194879, Note_on_c, 9, 42, 0
3, 194880, Note_on_c, 9, 42, 121
3, 194999, Note_on_c, 9, 42, 0
3, 195000, Note_on_c, 9, 42, 117
3, 195359, Note_on_c, 9, 42, 0
3, 195360, Note_on_c, 9, 42, 123
3, 195479, Note_on_c, 9, 42, 0
3, 195480, Note_on_c, 9, 42, 121
3, 195839, Note_on_c, 9, 42, 0
3, 195840, Note_on_c, 9, 42, 127
3, 195959, Note_on_c, 9, 42, 0
3, 195960, Note_on_c, 9, 42, 114
3, 196319, Note_on_c, 9, 42, 0
3, 196320, Note_on_c, 9, 42, 125
3, 196439, Note_on_c, 9, 42, 0
3, 196440, Note_on_c, 9, 42, 119
3, 196799, Note_on_c, 9, 42, 0
3, 196800, Note_on_c, 9, 42, 121
3, 196919, Note_on_c, 9, 42, 0
3, 196920, Note_on_c, 9, 42, 117
3, 197279, Note_on_c, 9, 42, 0
3, 197280, Note_on_c, 9, 42, 123
3, 197399, Note_on_c, 9, 42, 0
3, 197400, Note_on_c, 9, 42, 121
3, 197759, Note_on_c, 9, 42, 0
3, 197760, Note_on_c, 9, 42, 127
3, 197879, Note_on_c, 9, 42, 0
3, 197880, Note_on_c, 9, 42, 114
3, 198239, Note_on_c, 9, 42, 0
3, 198240, Note_on_c, 9, 42, 125
3, 198359, Note_on_c, 9, 42, 0
3, 198360, Note_on_c, 9, 42, 119
3, 198719, Note_on_c, 9, 42, 0
3, 198720, Note_on_c, 9, 42, 121
3, 198839, Note_on_c, 9, 42, 0
3, 198840, Note_on_c, 9, 42, 117
3, 199199, Note_on_c, 9, 42, 0
3, 199200, Note_on_c, 9, 42, 123
3, 199319, Note_on_c, 9, 42, 0
3, 199320, Note_on_c, 9, 42, 121
3, 199679, Note_on_c, 9, 42, 0
3, 199680, Note_on_c, 9, 42, 127
3, 199799, Note_on_c, 9, 42, 0
3, 199800, Note_on_c, 9, 42, 114
3, 200159, Note_on_c, 9, 42, 0
3, 200160, Note_on_c, 9, 42, 125
3, 200279, Note_on_c, 9, 42, 0
3, 200280, Note_on_c, 9, 42, 119
3, 200639, Note_on_c, 9, 42, 0
3, 200640, Note_on_c, 9, 42, 121
3, 200759, Note_on_c, 9, 42, 0
3, 200760, Note_on_c, 9, 42, 117
3, 201119, Note_on_c, 9, 42, 0
3, 201120, Note_on_c, 9, 42, 123
3, 201239, Note_on_c, 9, 42, 0
3, 201240, Note_on_c, 9, 42, 121
3, 201599, Note_on_c, 9, 42, 0
3, 201600, Note_on_c, 9, 42, 127
3, 201719, Note_on_c, 9, 42, 0
3, 201720, Note_on_c, 9, 42, 114
3, 202079, Note_on_c, 9, 42, 0
3, 202080, Note_on_c, 9, 42, 125
3, 202199, Note_on_c, 9, 42, 0
3, 202200, Note_on_c, 9, 42, 119
3, 202559, Note_on_c, 9, 42, 0
3, 202560, Note_on_c, 9, 42, 121
3, 202679, Note_on_c, 9, 42, 0
3, 202680, Note_on_c, 9, 42, 117
3, 203039, Note_on_c, 9, 42, 0
3, 203040, Note_on_c, 9, 42, 123
3, 203159, Note_on_c, 9, 42, 0
3, 203160, Note_on_c, 9, 42, 121
3, 203519, Note_on_c, 9, 42, 0
3, 203520, Note_on_c, 9, 42, 127
3, 203639, Note_on_c, 9, 42, 0
3, 203640, Note_on_c, 9, 42, 114
3, 203999, Note_on_c, 9, 42, 0
3, 204000, Note_on_c, 9, 42, 125
3, 204119, Note_on_c, 9, 42, 0
3, 204120, Note_on_c, 9, 42, 119
3, 204479, Note_on_c, 9, 42, 0
3, 204480, Note_on_c, 9, 42, 121
3, 204599, Note_on_c, 9, 42, 0
3, 204600, Note_on_c, 9, 42, 117
3, 204959, Note_on_c, 9, 42, 0
3, 204960, Note_on_c, 9, 42, 123
3, 205079, Note_on_c, 9, 42, 0
3, 205080, Note_on_c, 9, 42, 121
3, 205439, Note_on_c, 9, 42, 0
3, 205440, Note_on_c, 9, 42, 127
3, 205559, Note_on_c, 9, 42, 0
3, 205560, Note_on_c, 9, 42, 114
3, 205919, Note_on_c, 9, 42, 0
3, 205920, Note_on_c, 9, 42, 125
3, 206039, Note_on_c, 9, 42, 0
3, 206040, Note_on_c, 9, 42, 119
3, 206399, Note_on_c, 9, 42, 0
3, 206400, Note_on_c, 9, 42, 121
3, 206519, Note_on_c, 9, 42, 0
3, 206520, Note_on_c, 9, 42, 117
3, 206879, Note_on_c, 9, 42, 0
3, 206880, Note_on_c, 9, 42, 123
3, 206999, Note_on_c, 9, 42, 0
3, 207000, Note_on_c, 9, 42, 121
3, 207359, Note_on_c, 9, 42, 0
3, 207360, Note_on_c, 9, 42, 127
3, 207479, Note_on_c, 9, 42, 0
3, 207480, Note_on_c, 9, 42, 114
3, 207839, Note_on_c, 9, 42, 0
3, 207840, Note_on_c, 9, 42, 125
3, 207959, Note_on_c, 9, 42, 0
3, 207960, Note_on_c, 9, 42, 119
3, 208319, Note_on_c, 9, 42, 0
3, 208320, Note_on_c, 9, 42, 121
3, 208439, Note_on_c, 9, 42, 0
3, 208440, Note_on_c, 9, 42, 117
3, 208799, Note_on_c, 9, 42, 0
3, 208800, Note_on_c, 9, 42, 123
3, 208919, Note_on_c, 9, 42, 0
3, 208920, Note_on_c, 9, 42, 121
3, 209279, Note_on_c, 9, 42, 0
3, 209280, Note_on_c, 9, 42, 127
3, 209399, Note_on_c, 9, 42, 0
3, 209400, Note_on_c, 9, 42, 114
3, 209759, Note_on_c, 9, 42, 0
3, 209760, Note_on_c, 9, 42, 125
3, 209879, Note_on_c, 9, 42, 0
3, 209880, Note_on_c, 9, 42, 119
3, 210239, Note_on_c, 9, 42, 0
3, 210240, Note_on_c, 9, 42, 121
3, 210359, Note_on_c, 9, 42, 0
3, 210360, Note_on_c, 9, 42, 117
3, 210719, Note_on_c, 9, 42, 0
3, 210720, Note_on_c, 9, 42, 123
3, 210839, Note_on_c, 9, 42, 0
3, 210840, Note_on_c, 9, 42, 121
3, 211199, Note_on_c, 9, 42, 0
3, 211200, Note_on_c, 9, 42, 127
3, 211319, Note_on_c, 9, 42, 0
3, 211320, Note_on_c, 9, 42, 114
3, 211679, Note_on_c, 9, 42, 0
3, 211680, Note_on_c, 9, 42, 125
3, 211799, Note_on_c, 9, 42, 0
3, 211800, Note_on_c, 9, 42, 119
3, 212159, Note_on_c, 9, 42, 0
3, 212160, Note_on_c, 9, 42, 121
3, 212279, Note_on_c, 9, 42, 0
3, 212280, Note_on_c, 9, 42, 117
3, 212639, Note_on_c, 9, 42, 0
3, 212640, Note_on_c, 9, 42, 123
3, 212759, Note_on_c, 9, 42, 0
3, 212760, Note_on_c, 9, 42, 121
3, 213119, Note_on_c, 9, 42, 0
3, 213120, Note_on_c, 9, 42, 127
3, 213239, Note_on_c, 9, 42, 0
3, 213240, Note_on_c, 9, 42, 114
3, 213599, Note_on_c, 9, 42, 0
3, 213600, Note_on_c, 9, 42, 125
3, 213719, Note_on_c, 9, 42, 0
3, 213720, Note_on_c, 9, 42, 119
3, 214079, Note_on_c, 9, 42, 0
3, 214080, Note_on_c, 9, 42, 121
3, 214199, Note_on_c, 9, 42, 0
3, 214200, Note_on_c, 9, 42, 117
3, 214559, Note_on_c, 9, 42, 0
3, 214560, Note_on_c, 9, 42, 123
3, 214679, Note_on_c, 9, 42, 0
3, 214680, Note_on_c, 9, 42, 121
3, 215039, Note_on_c, 9, 42, 0
3, 215040, Note_on_c, 9, 42, 127
3, 215159, Note_on_c, 9, 42, 0
3, 215160, Note_on_c, 9, 42, 114
3, 215519, Note_on_c, 9, 42, 0
3, 215520, Note_on_c, 9, 42, 125
3, 215639, Note_on_c, 9, 42, 0
3, 215640, Note_on_c, 9, 42, 119
3, 215999, Note_on_c, 9, 42, 0
3, 216000, Note_on_c, 9, 42, 121
3, 216119, Note_on_c, 9, 42, 0
3, 216120, Note_on_c, 9, 42, 117
3, 216479, Note_on_c, 9, 42, 0
3, 216480, Note_on_c, 9, 42, 123
3, 216599, Note_on_c, 9, 42, 0
3, 216600, Note_on_c, 9, 42, 121
3, 216959, Note_on_c, 9, 42, 0
3, 216960, Note_on_c, 9, 42, 127
3, 217079, Note_on_c, 9, 42, 0
3, 217080, Note_on_c, 9, 42, 114
3, 217439, Note_on_c, 9, 42, 0
3, 217440, Note_on_c, 9, 42, 125
3, 217559, Note_on_c, 9, 42, 0
3, 217560, Note_on_c, 9, 42, 119
3, 217919, Note_on_c, 9, 42, 0
3, 217920, Note_on_c, 9, 42, 121
3, 218039, Note_on_c, 9, 42, 0
3, 218040, Note_on_c, 9, 42, 117
3, 218399, Note_on_c, 9, 42, 0
3, 218400, Note_on_c, 9, 42, 123
3, 218519, Note_on_c, 9, 42, 0
3, 218520, Note_on_c, 9, 42, 121
3, 218879, Note_on_c, 9, 42, 0
3, 218880, Note_on_c, 9, 42, 127
3, 218999, Note_on_c, 9, 42, 0
3, 219000, Note_on_c, 9, 42, 114
3, 219359, Note_on_c, 9, 42, 0
3, 219360, Note_on_c, 9, 42, 125
3, 219479, Note_on_c, 9, 42, 0
3, 219480, Note_on_c, 9, 42, 119
3, 219839, Note_on_c, 9, 42, 0
3, 219840, Note_on_c, 9, 42, 121
3, 219959, Note_on_c, 9, 42, 0
3, 219960, Note_on_c, 9, 42, 117
3, 220319, Note_on_c, 9, 42, 0
3, 220320, Note_on_c, 9, 42, 123
3, 220439, Note_on_c, 9, 42, 0
3, 220440, Note_on_c, 9, 42, 121
3, 220799, Note_on_c, 9, 42, 0
3, 220800, Note_on_c, 9, 42, 127
3, 220919, Note_on_c, 9, 42, 0
3, 220920, Note_on_c, 9, 42, 114
3, 221279, Note_on_c, 9, 42, 0
3, 221280, Note_on_c, 9, 42, 125
3, 221399, Note_on_c, 9, 42, 0
3, 221400, Note_on_c, 9, 42, 119
3, 221759, Note_on_c, 9, 42, 0
3, 221760, Note_on_c, 9, 42, 121
3, 221879, Note_on_c, 9, 42, 0
3, 221880, Note_on_c, 9, 42, 117
3, 222239, Note_on_c, 9, 42, 0
3, 222240, Note_on_c, 9, 42, 123
3, 222359, Note_on_c, 9, 42, 0
3, 222360, Note_on_c, 9, 42, 121
3, 222719, Note_on_c, 9, 42, 0
3, 222720, Note_on_c, 9, 42, 127
3, 222839, Note_on_c, 9, 42, 0
3, 222840, Note_on_c, 9, 42, 114
3, 223199, Note_on_c, 9, 42, 0
3, 223200, Note_on_c, 9, 42, 125
3, 223319, Note_on_c, 9, 42, 0
3, 223320, Note_on_c, 9, 42, 119
3, 223679, Note_on_c, 9, 42, 0
3, 223680, Note_on_c, 9, 42, 121
3, 223799, Note_on_c, 9, 42, 0
3, 223800, Note_on_c, 9, 42, 117
3, 224159, Note_on_c, 9, 42, 0
3, 224160, Note_on_c, 9, 42, 123
3, 224279, Note_on_c, 9, 42, 0
3, 224280, Note_on_c, 9, 42, 121
3, 224639, Note_on_c, 9, 42, 0
3, 224640, Note_on_c, 9, 42, 127
3, 224759, Note_on_c, 9, 42, 0
3, 224760, Note_on_c, 9, 42, 114
3, 225119, Note_on_c, 9, 42, 0
3, 225120, Note_on_c, 9, 42, 125
3, 225239, Note_on_c, 9, 42, 0
3, 225240, Note_on_c, 9, 42, 119
3, 225599, Note_on_c, 9, 42, 0
3, 225600, Note_on_c, 9, 42, 121
3, 225719, Note_on_c, 9, 42, 0
3, 225720, Note_on_c, 9, 42, 117
3, 226079, Note_on_c, 9, 42, 0
3, 226080, Note_on_c, 9, 42, 123
3, 226199, Note_on_c, 9, 42, 0
3, 226200, Note_on_c, 9, 42, 121
3, 226559, Note_on_c, 9, 42, 0
3, 226560, Note_on_c, 9, 42, 127
3, 226679, Note_on_c, 9, 42, 0
3, 226680, Note_on_c, 9, 42, 114
3, 227039, Note_on_c, 9, 42, 0
3, 227040, Note_on_c, 9, 42, 125
3, 227159, Note_on_c, 9, 42, 0
3, 227160, Note_on_c, 9, 42, 119
3, 227519, Note_on_c, 9, 42, 0
3, 227520, Note_on_c, 9, 42, 121
3, 227639, Note_on_c, 9, 42, 0
3, 227640, Note_on_c, 9, 42, 117
3, 227999, Note_on_c, 9, 42, 0
3, 228000, Note_on_c, 9, 42, 123
3, 228119, Note_on_c, 9, 42, 0
3, 228120, Note_on_c, 9, 42, 121
3, 228479, Note_on_c, 9, 42, 0
3, 228840, Note_on_c, 9, 42, 57
3, 228959, Note_on_c, 9, 42, 0
3, 228960, End_track
4, 0, Start_track
4, 0, Key_signature, 0, "major"
4, 0, Control_c, 9, 121, 0
4, 0, Program_c, 9, 0
4, 0, Control_c, 9, 7, 100
4, 0, Control_c, 9, 10, 64
4, 0, Control_c, 9, 91, 0
4, 0, Control_c, 9, 93, 0
4, 0, MIDI_port, 0
4, 4080, Note_on_c, 9, 46, 104
4, 4319, Note_on_c, 9, 46, 0
4, 4560, Note_on_c, 9, 46, 98
4, 4799, Note_on_c, 9, 46, 0
4, 5040, Note_on_c, 9, 46, 98
4, 5279, Note_on_c, 9, 46, 0
4, 5520, Note_on_c, 9, 46, 102
4, 5759, Note_on_c, 9, 46, 0
4, 6000, Note_on_c, 9, 46, 104
4, 6239, Note_on_c, 9, 46, 0
4, 6480, Note_on_c, 9, 46, 98
4, 6719, Note_on_c, 9, 46, 0
4, 6960, Note_on_c, 9, 46, 98
4, 7199, Note_on_c, 9, 46, 0
4, 7440, Note_on_c, 9, 46, 102
4, 7679, Note_on_c, 9, 46, 0
4, 7920, Note_on_c, 9, 46, 104
4, 8159, Note_on_c, 9, 46, 0
4, 8400, Note_on_c, 9, 46, 98
4, 8639, Note_on_c, 9, 46, 0
4, 8880, Note_on_c, 9, 46, 98
4, 9119, Note_on_c, 9, 46, 0
4, 9360, Note_on_c, 9, 46, 102
4, 9599, Note_on_c, 9, 46, 0
4, 9840, Note_on_c, 9, 46, 104
4, 10079, Note_on_c, 9, 46, 0
4, 10320, Note_on_c, 9, 46, 98
4, 10559, Note_on_c, 9, 46, 0
4, 10800, Note_on_c, 9, 46, 98
4, 11039, Note_on_c, 9, 46, 0
4, 11280, Note_on_c, 9, 46, 102
4, 11519, Note_on_c, 9, 46, 0
4, 11760, Note_on_c, 9, 46, 96
4, 11999, Note_on_c, 9, 46, 0
4, 12240, Note_on_c, 9, 46, 104
4, 12479, Note_on_c, 9, 46, 0
4, 12720, Note_on_c, 9, 46, 109
4, 12959, Note_on_c, 9, 46, 0
4, 13200, Note_on_c, 9, 46, 106
4, 13439, Note_on_c, 9, 46, 0
4, 13680, Note_on_c, 9, 46, 96
4, 13919, Note_on_c, 9, 46, 0
4, 14160, Note_on_c, 9, 46, 104
4, 14399, Note_on_c, 9, 46, 0
4, 14640, Note_on_c, 9, 46, 109
4, 14879, Note_on_c, 9, 46, 0
4, 15120, Note_on_c, 9, 46, 106
4, 15359, Note_on_c, 9, 46, 0
4, 15600, Note_on_c, 9, 46, 96
4, 15839, Note_on_c, 9, 46, 0
4, 16080, Note_on_c, 9, 46, 104
4, 16319, Note_on_c, 9, 46, 0
4, 16560, Note_on_c, 9, 46, 109
4, 16799, Note_on_c, 9, 46, 0
4, 17040, Note_on_c, 9, 46, 106
4, 17279, Note_on_c, 9, 46, 0
4, 17520, Note_on_c, 9, 46, 96
4, 17759, Note_on_c, 9, 46, 0
4, 18000, Note_on_c, 9, 46, 104
4, 18239, Note_on_c, 9, 46, 0
4, 18480, Note_on_c, 9, 46, 109
4, 18719, Note_on_c, 9, 46, 0
4, 18960, Note_on_c, 9, 46, 106
4, 19199, Note_on_c, 9, 46, 0
4, 19440, Note_on_c, 9, 46, 96
4, 19679, Note_on_c, 9, 46, 0
4, 19920, Note_on_c, 9, 46, 104
4, 20159, Note_on_c, 9, 46, 0
4, 20400, Note_on_c, 9, 46, 109
4, 20639, Note_on_c, 9, 46, 0
4, 20880, Note_on_c, 9, 46, 106
4, 21119, Note_on_c, 9, 46, 0
4, 21360, Note_on_c, 9, 46, 96
4, 21599, Note_on_c, 9, 46, 0
4, 21840, Note_on_c, 9, 46, 104
4, 22079, Note_on_c, 9, 46, 0
4, 22320, Note_on_c, 9, 46, 109
4, 22559, Note_on_c, 9, 46, 0
4, 22800, Note_on_c, 9, 46, 106
4, 23039, Note_on_c, 9, 46, 0
4, 23280, Note_on_c, 9, 46, 96
4, 23519, Note_on_c, 9, 46, 0
4, 23760, Note_on_c, 9, 46, 104
4, 23999, Note_on_c, 9, 46, 0
4, 24240, Note_on_c, 9, 46, 109
4, 24479, Note_on_c, 9, 46, 0
4, 24720, Note_on_c, 9, 46, 106
4, 24959, Note_on_c, 9, 46, 0
4, 25200, Note_on_c, 9, 46, 96
4, 25439, Note_on_c, 9, 46, 0
4, 25680, Note_on_c, 9, 46, 104
4, 25919, Note_on_c, 9, 46, 0
4, 26160, Note_on_c, 9, 46, 109
4, 26399, Note_on_c, 9, 46, 0
4, 26640, Note_on_c, 9, 46, 106
4, 26879, Note_on_c, 9, 46, 0
4, 27120, Note_on_c, 9, 46, 96
4, 27359, Note_on_c, 9, 46, 0
4, 27600, Note_on_c, 9, 46, 104
4, 27839, Note_on_c, 9, 46, 0
4, 28080, Note_on_c, 9, 46, 109
4, 28319, Note_on_c, 9, 46, 0
4, 28560, Note_on_c, 9, 46, 106
4, 28799, Note_on_c, 9, 46, 0
4, 29040, Note_on_c, 9, 46, 96
4, 29279, Note_on_c, 9, 46, 0
4, 29520, Note_on_c, 9, 46, 104
4, 29759, Note_on_c, 9, 46, 0
4, 30000, Note_on_c, 9, 46, 109
4, 30239, Note_on_c, 9, 46, 0
4, 30480, Note_on_c, 9, 46, 106
4, 30719, Note_on_c, 9, 46, 0
4, 30960, Note_on_c, 9, 46, 96
4, 31199, Note_on_c, 9, 46, 0
4, 31440, Note_on_c, 9, 46, 104
4, 31679, Note_on_c, 9, 46, 0
4, 31920, Note_on_c, 9, 46, 109
4, 32159, Note_on_c, 9, 46, 0
4, 32400, Note_on_c, 9, 46, 106
4, 32639, Note_on_c, 9, 46, 0
4, 32880, Note_on_c, 9, 46, 96
4, 33119, Note_on_c, 9, 46, 0
4, 33360, Note_on_c, 9, 46, 104
4, 33599, Note_on_c, 9, 46, 0
4, 33840, Note_on_c, 9, 46, 109
4, 34079, Note_on_c, 9, 46, 0
4, 34320, Note_on_c, 9, 46, 106
4, 34559, Note_on_c, 9, 46, 0
4, 34800, Note_on_c, 9, 46, 96
4, 35039, Note_on_c, 9, 46, 0
4, 35280, Note_on_c, 9, 46, 104
4, 35519, Note_on_c, 9, 46, 0
4, 35760, Note_on_c, 9, 46, 109
4, 35999, Note_on_c, 9, 46, 0
4, 36240, Note_on_c, 9, 46, 106
4, 36479, Note_on_c, 9, 46, 0
4, 36720, Note_on_c, 9, 46, 96
4, 36959, Note_on_c, 9, 46, 0
4, 37200, Note_on_c, 9, 46, 104
4, 37439, Note_on_c, 9, 46, 0
4, 37680, Note_on_c, 9, 46, 109
4, 37919, Note_on_c, 9, 46, 0
4, 38160, Note_on_c, 9, 46, 106
4, 38399, Note_on_c, 9, 46, 0
4, 38640, Note_on_c, 9, 46, 96
4, 38879, Note_on_c, 9, 46, 0
4, 39120, Note_on_c, 9, 46, 104
4, 39359, Note_on_c, 9, 46, 0
4, 39600, Note_on_c, 9, 46, 109
4, 39839, Note_on_c, 9, 46, 0
4, 40080, Note_on_c, 9, 46, 106
4, 40319, Note_on_c, 9, 46, 0
4, 40560, Note_on_c, 9, 46, 96
4, 40799, Note_on_c, 9, 46, 0
4, 41040, Note_on_c, 9, 46, 104
4, 41279, Note_on_c, 9, 46, 0
4, 41520, Note_on_c, 9, 46, 109
4, 41759, Note_on_c, 9, 46, 0
4, 42000, Note_on_c, 9, 46, 106
4, 42239, Note_on_c, 9, 46, 0
4, 42480, Note_on_c, 9, 46, 96
4, 42719, Note_on_c, 9, 46, 0
4, 42960, Note_on_c, 9, 46, 104
4, 43199, Note_on_c, 9, 46, 0
4, 43440, Note_on_c, 9, 46, 109
4, 43679, Note_on_c, 9, 46, 0
4, 43920, Note_on_c, 9, 46, 106
4, 44159, Note_on_c, 9, 46, 0
4, 44400, Note_on_c, 9, 46, 96
4, 44639, Note_on_c, 9, 46, 0
4, 44880, Note_on_c, 9, 46, 104
4, 45119, Note_on_c, 9, 46, 0
4, 45360, Note_on_c, 9, 46, 109
4, 45599, Note_on_c, 9, 46, 0
4, 45840, Note_on_c, 9, 46, 106
4, 46079, Note_on_c, 9, 46, 0
4, 46320, Note_on_c, 9, 46, 96
4, 46559, Note_on_c, 9, 46, 0
4, 46800, Note_on_c, 9, 46, 104
4, 47039, Note_on_c, 9, 46, 0
4, 47280, Note_on_c, 9, 46, 109
4, 47519, Note_on_c, 9, 46, 0
4, 47760, Note_on_c, 9, 46, 106
4, 47999, Note_on_c, 9, 46, 0
4, 48240, Note_on_c, 9, 46, 96
4, 48479, Note_on_c, 9, 46, 0
4, 48720, Note_on_c, 9, 46, 104
4, 48959, Note_on_c, 9, 46, 0
4, 49200, Note_on_c, 9, 46, 109
4, 49439, Note_on_c, 9, 46, 0
4, 49680, Note_on_c, 9, 46, 106
4, 49919, Note_on_c, 9, 46, 0
4, 50160, Note_on_c, 9, 46, 96
4, 50399, Note_on_c, 9, 46, 0
4, 50640, Note_on_c, 9, 46, 104
4, 50879, Note_on_c, 9, 46, 0
4, 51120, Note_on_c, 9, 46, 109
4, 51359, Note_on_c, 9, 46, 0
4, 51600, Note_on_c, 9, 46, 106
4, 51839, Note_on_c, 9, 46, 0
4, 52080, Note_on_c, 9, 46, 96
4, 52319, Note_on_c, 9, 46, 0
4, 52560, Note_on_c, 9, 46, 104
4, 52799, Note_on_c, 9, 46, 0
4, 53040, Note_on_c, 9, 46, 109
4, 53279, Note_on_c, 9, 46, 0
4, 53520, Note_on_c, 9, 46, 106
4, 53759, Note_on_c, 9, 46, 0
4, 54000, Note_on_c, 9, 46, 96
4, 54239, Note_on_c, 9, 46, 0
4, 54480, Note_on_c, 9, 46, 104
4, 54719, Note_on_c, 9, 46, 0
4, 54960, Note_on_c, 9, 46, 109
4, 55199, Note_on_c, 9, 46, 0
4, 55440, Note_on_c, 9, 46, 106
4, 55679, Note_on_c, 9, 46, 0
4, 55920, Note_on_c, 9, 46, 96
4, 56159, Note_on_c, 9, 46, 0
4, 56400, Note_on_c, 9, 46, 104
4, 56639, Note_on_c, 9, 46, 0
4, 56880, Note_on_c, 9, 46, 109
4, 57119, Note_on_c, 9, 46, 0
4, 57360, Note_on_c, 9, 46, 106
4, 57599, Note_on_c, 9, 46, 0
4, 57840, Note_on_c, 9, 46, 96
4, 58079, Note_on_c, 9, 46, 0
4, 58320, Note_on_c, 9, 46, 104
4, 58559, Note_on_c, 9, 46, 0
4, 58800, Note_on_c, 9, 46, 109
4, 59039, Note_on_c, 9, 46, 0
4, 59280, Note_on_c, 9, 46, 106
4, 59519, Note_on_c, 9, 46, 0
4, 59760, Note_on_c, 9, 46, 96
4, 59999, Note_on_c, 9, 46, 0
4, 60240, Note_on_c, 9, 46, 104
4, 60479, Note_on_c, 9, 46, 0
4, 60720, Note_on_c, 9, 46, 109
4, 60959, Note_on_c, 9, 46, 0
4, 61200, Note_on_c, 9, 46, 106
4, 61439, Note_on_c, 9, 46, 0
4, 61680, Note_on_c, 9, 46, 100
4, 61919, Note_on_c, 9, 46, 0
4, 62160, Note_on_c, 9, 46, 109
4, 62399, Note_on_c, 9, 46, 0
4, 63600, Note_on_c, 9, 46, 96
4, 63839, Note_on_c, 9, 46, 0
4, 64080, Note_on_c, 9, 46, 104
4, 64319, Note_on_c, 9, 46, 0
4, 64560, Note_on_c, 9, 46, 109
4, 64799, Note_on_c, 9, 46, 0
4, 65040, Note_on_c, 9, 46, 106
4, 65279, Note_on_c, 9, 46, 0
4, 65520, Note_on_c, 9, 46, 96
4, 65759, Note_on_c, 9, 46, 0
4, 66000, Note_on_c, 9, 46, 104
4, 66239, Note_on_c, 9, 46, 0
4, 66480, Note_on_c, 9, 46, 109
4, 66719, Note_on_c, 9, 46, 0
4, 66960, Note_on_c, 9, 46, 106
4, 67199, Note_on_c, 9, 46, 0
4, 67440, Note_on_c, 9, 46, 96
4, 67679, Note_on_c, 9, 46, 0
4, 67920, Note_on_c, 9, 46, 104
4, 68159, Note_on_c, 9, 46, 0
4, 68400, Note_on_c, 9, 46, 109
4, 68639, Note_on_c, 9, 46, 0
4, 68880, Note_on_c, 9, 46, 106
4, 69119, Note_on_c, 9, 46, 0
4, 69360, Note_on_c, 9, 46, 96
4, 69599, Note_on_c, 9, 46, 0
4, 69840, Note_on_c, 9, 46, 104
4, 70079, Note_on_c, 9, 46, 0
4, 70320, Note_on_c, 9, 46, 109
4, 70559, Note_on_c, 9, 46, 0
4, 70800, Note_on_c, 9, 46, 106
4, 71039, Note_on_c, 9, 46, 0
4, 71280, Note_on_c, 9, 46, 96
4, 71519, Note_on_c, 9, 46, 0
4, 71760, Note_on_c, 9, 46, 104
4, 71999, Note_on_c, 9, 46, 0
4, 72240, Note_on_c, 9, 46, 109
4, 72479, Note_on_c, 9, 46, 0
4, 72720, Note_on_c, 9, 46, 106
4, 72959, Note_on_c, 9, 46, 0
4, 73200, Note_on_c, 9, 46, 96
4, 73439, Note_on_c, 9, 46, 0
4, 73680, Note_on_c, 9, 46, 104
4, 73919, Note_on_c, 9, 46, 0
4, 74160, Note_on_c, 9, 46, 109
4, 74399, Note_on_c, 9, 46, 0
4, 74640, Note_on_c, 9, 46, 106
4, 74879, Note_on_c, 9, 46, 0
4, 75120, Note_on_c, 9, 46, 96
4, 75359, Note_on_c, 9, 46, 0
4, 75600, Note_on_c, 9, 46, 104
4, 75839, Note_on_c, 9, 46, 0
4, 76080, Note_on_c, 9, 46, 109
4, 76319, Note_on_c, 9, 46, 0
4, 76560, Note_on_c, 9, 46, 106
4, 76799, Note_on_c, 9, 46, 0
4, 77040, Note_on_c, 9, 46, 96
4, 77279, Note_on_c, 9, 46, 0
4, 77520, Note_on_c, 9, 46, 104
4, 77759, Note_on_c, 9, 46, 0
4, 78000, Note_on_c, 9, 46, 109
4, 78239, Note_on_c, 9, 46, 0
4, 78480, Note_on_c, 9, 46, 106
4, 78719, Note_on_c, 9, 46, 0
4, 78960, Note_on_c, 9, 46, 96
4, 79199, Note_on_c, 9, 46, 0
4, 79440, Note_on_c, 9, 46, 104
4, 79679, Note_on_c, 9, 46, 0
4, 79920, Note_on_c, 9, 46, 109
4, 80159, Note_on_c, 9, 46, 0
4, 80400, Note_on_c, 9, 46, 106
4, 80639, Note_on_c, 9, 46, 0
4, 80880, Note_on_c, 9, 46, 96
4, 81119, Note_on_c, 9, 46, 0
4, 81360, Note_on_c, 9, 46, 104
4, 81599, Note_on_c, 9, 46, 0
4, 81840, Note_on_c, 9, 46, 109
4, 82079, Note_on_c, 9, 46, 0
4, 82320, Note_on_c, 9, 46, 106
4, 82559, Note_on_c, 9, 46, 0
4, 82800, Note_on_c, 9, 46, 96
4, 83039, Note_on_c, 9, 46, 0
4, 83280, Note_on_c, 9, 46, 104
4, 83519, Note_on_c, 9, 46, 0
4, 83760, Note_on_c, 9, 46, 109
4, 83999, Note_on_c, 9, 46, 0
4, 84240, Note_on_c, 9, 46, 106
4, 84479, Note_on_c, 9, 46, 0
4, 84720, Note_on_c, 9, 46, 96
4, 84959, Note_on_c, 9, 46, 0
4, 85200, Note_on_c, 9, 46, 104
4, 85439, Note_on_c, 9, 46, 0
4, 85680, Note_on_c, 9, 46, 109
4, 85919, Note_on_c, 9, 46, 0
4, 86160, Note_on_c, 9, 46, 106
4, 86399, Note_on_c, 9, 46, 0
4, 86640, Note_on_c, 9, 46, 96
4, 86879, Note_on_c, 9, 46, 0
4, 87120, Note_on_c, 9, 46, 104
4, 87359, Note_on_c, 9, 46, 0
4, 87600, Note_on_c, 9, 46, 109
4, 87839, Note_on_c, 9, 46, 0
4, 88080, Note_on_c, 9, 46, 106
4, 88319, Note_on_c, 9, 46, 0
4, 88560, Note_on_c, 9, 46, 96
4, 88799, Note_on_c, 9, 46, 0
4, 89040, Note_on_c, 9, 46, 104
4, 89279, Note_on_c, 9, 46, 0
4, 89520, Note_on_c, 9, 46, 109
4, 89759, Note_on_c, 9, 46, 0
4, 90000, Note_on_c, 9, 46, 106
4, 90239, Note_on_c, 9, 46, 0
4, 90480, Note_on_c, 9, 46, 96
4, 90719, Note_on_c, 9, 46, 0
4, 90960, Note_on_c, 9, 46, 104
4, 91199, Note_on_c, 9, 46, 0
4, 91440, Note_on_c, 9, 46, 109
4, 91679, Note_on_c, 9, 46, 0
4, 91920, Note_on_c, 9, 46, 106
4, 92159, Note_on_c, 9, 46, 0
4, 92400, Note_on_c, 9, 46, 96
4, 92639, Note_on_c, 9, 46, 0
4, 92880, Note_on_c, 9, 46, 104
4, 93119, Note_on_c, 9, 46, 0
4, 93360, Note_on_c, 9, 46, 109
4, 93599, Note_on_c, 9, 46, 0
4, 93840, Note_on_c, 9, 46, 106
4, 94079, Note_on_c, 9, 46, 0
4, 94320, Note_on_c, 9, 46, 96
4, 94559, Note_on_c, 9, 46, 0
4, 94800, Note_on_c, 9, 46, 104
4, 95039, Note_on_c, 9, 46, 0
4, 95280, Note_on_c, 9, 46, 109
4, 95519, Note_on_c, 9, 46, 0
4, 95760, Note_on_c, 9, 46, 106
4, 95999, Note_on_c, 9, 46, 0
4, 96240, Note_on_c, 9, 46, 96
4, 96479, Note_on_c, 9, 46, 0
4, 96720, Note_on_c, 9, 46, 104
4, 96959, Note_on_c, 9, 46, 0
4, 97200, Note_on_c, 9, 46, 109
4, 97439, Note_on_c, 9, 46, 0
4, 97680, Note_on_c, 9, 46, 106
4, 97919, Note_on_c, 9, 46, 0
4, 98160, Note_on_c, 9, 46, 96
4, 98399, Note_on_c, 9, 46, 0
4, 98640, Note_on_c, 9, 46, 104
4, 98879, Note_on_c, 9, 46, 0
4, 99120, Note_on_c, 9, 46, 109
4, 99359, Note_on_c, 9, 46, 0
4, 99600, Note_on_c, 9, 46, 106
4, 99839, Note_on_c, 9, 46, 0
4, 100080, Note_on_c, 9, 46, 96
4, 100319, Note_on_c, 9, 46, 0
4, 100560, Note_on_c, 9, 46, 104
4, 100799, Note_on_c, 9, 46, 0
4, 101040, Note_on_c, 9, 46, 109
4, 101279, Note_on_c, 9, 46, 0
4, 101520, Note_on_c, 9, 46, 106
4, 101759, Note_on_c, 9, 46, 0
4, 102000, Note_on_c, 9, 46, 96
4, 102239, Note_on_c, 9, 46, 0
4, 102480, Note_on_c, 9, 46, 104
4, 102719, Note_on_c, 9, 46, 0
4, 102960, Note_on_c, 9, 46, 109
4, 103199, Note_on_c, 9, 46, 0
4, 103440, Note_on_c, 9, 46, 106
4, 103679, Note_on_c, 9, 46, 0
4, 103920, Note_on_c, 9, 46, 96
4, 104159, Note_on_c, 9, 46, 0
4, 104400, Note_on_c, 9, 46, 104
4, 104639, Note_on_c, 9, 46, 0
4, 104880, Note_on_c, 9, 46, 109
4, 105119, Note_on_c, 9, 46, 0
4, 105360, Note_on_c, 9, 46, 106
4, 105599, Note_on_c, 9, 46, 0
4, 105840, Note_on_c, 9, 46, 96
4, 106079, Note_on_c, 9, 46, 0
4, 106320, Note_on_c, 9, 46, 104
4, 106559, Note_on_c, 9, 46, 0
4, 106800, Note_on_c, 9, 46, 109
4, 107039, Note_on_c, 9, 46, 0
4, 107280, Note_on_c, 9, 46, 106
4, 107519, Note_on_c, 9, 46, 0
4, 107760, Note_on_c, 9, 46, 96
4, 107999, Note_on_c, 9, 46, 0
4, 108240, Note_on_c, 9, 46, 104
4, 108479, Note_on_c, 9, 46, 0
4, 108720, Note_on_c, 9, 46, 109
4, 108959, Note_on_c, 9, 46, 0
4, 109200, Note_on_c, 9, 46, 106
4, 109439, Note_on_c, 9, 46, 0
4, 109680, Note_on_c, 9, 46, 96
4, 109919, Note_on_c, 9, 46, 0
4, 110160, Note_on_c, 9, 46, 104
4, 110399, Note_on_c, 9, 46, 0
4, 110640, Note_on_c, 9, 46, 109
4, 110879, Note_on_c, 9, 46, 0
4, 111120, Note_on_c, 9, 46, 106
4, 111359, Note_on_c, 9, 46, 0
4, 111600, Note_on_c, 9, 46, 96
4, 111839, Note_on_c, 9, 46, 0
4, 112080, Note_on_c, 9, 46, 104
4, 112319, Note_on_c, 9, 46, 0
4, 112560, Note_on_c, 9, 46, 109
4, 112799, Note_on_c, 9, 46, 0
4, 113040, Note_on_c, 9, 46, 106
4, 113279, Note_on_c, 9, 46, 0
4, 113520, Note_on_c, 9, 46, 100
4, 113759, Note_on_c, 9, 46, 0
4, 114000, Note_on_c, 9, 46, 109
4, 114239, Note_on_c, 9, 46, 0
4, 115440, Note_on_c, 9, 46, 96
4, 115679, Note_on_c, 9, 46, 0
4, 115920, Note_on_c, 9, 46, 104
4, 116159, Note_on_c, 9, 46, 0
4, 116400, Note_on_c, 9, 46, 109
4, 116639, Note_on_c, 9, 46, 0
4, 116880, Note_on_c, 9, 46, 106
4, 117119, Note_on_c, 9, 46, 0
4, 117360, Note_on_c, 9, 46, 96
4, 117599, Note_on_c, 9, 46, 0
4, 117840, Note_on_c, 9, 46, 104
4, 118079, Note_on_c, 9, 46, 0
4, 118320, Note_on_c, 9, 46, 109
4, 118559, Note_on_c, 9, 46, 0
4, 118800, Note_on_c, 9, 46, 106
4, 119039, Note_on_c, 9, 46, 0
4, 119280, Note_on_c, 9, 46, 96
4, 119519, Note_on_c, 9, 46, 0
4, 119760, Note_on_c, 9, 46, 104
4, 119999, Note_on_c, 9, 46, 0
4, 120240, Note_on_c, 9, 46, 109
4, 120479, Note_on_c, 9, 46, 0
4, 120720, Note_on_c, 9, 46, 106
4, 120959, Note_on_c, 9, 46, 0
4, 121200, Note_on_c, 9, 46, 96
4, 121439, Note_on_c, 9, 46, 0
4, 121680, Note_on_c, 9, 46, 104
4, 121919, Note_on_c, 9, 46, 0
4, 122160, Note_on_c, 9, 46, 109
4, 122399, Note_on_c, 9, 46, 0
4, 122640, Note_on_c, 9, 46, 106
4, 122879, Note_on_c, 9, 46, 0
4, 123120, Note_on_c, 9, 46, 96
4, 123359, Note_on_c, 9, 46, 0
4, 123600, Note_on_c, 9, 46, 104
4, 123839, Note_on_c, 9, 46, 0
4, 124080, Note_on_c, 9, 46, 109
4, 124319, Note_on_c, 9, 46, 0
4, 124560, Note_on_c, 9, 46, 106
4, 124799, Note_on_c, 9, 46, 0
4, 125040, Note_on_c, 9, 46, 96
4, 125279, Note_on_c, 9, 46, 0
4, 125520, Note_on_c, 9, 46, 104
4, 125759, Note_on_c, 9, 46, 0
4, 126000, Note_on_c, 9, 46, 109
4, 126239, Note_on_c, 9, 46, 0
4, 126480, Note_on_c, 9, 46, 106
4, 126719, Note_on_c, 9, 46, 0
4, 126960, Note_on_c, 9, 46, 96
4, 127199, Note_on_c, 9, 46, 0
4, 127440, Note_on_c, 9, 46, 104
4, 127679, Note_on_c, 9, 46, 0
4, 127920, Note_on_c, 9, 46, 109
4, 128159, Note_on_c, 9, 46, 0
4, 128400, Note_on_c, 9, 46, 106
4, 128639, Note_on_c, 9, 46, 0
4, 128880, Note_on_c, 9, 46, 96
4, 129119, Note_on_c, 9, 46, 0
4, 129360, Note_on_c, 9, 46, 104
4, 129599, Note_on_c, 9, 46, 0
4, 129840, Note_on_c, 9, 46, 109
4, 130079, Note_on_c, 9, 46, 0
4, 130320, Note_on_c, 9, 46, 106
4, 130559, Note_on_c, 9, 46, 0
4, 130800, Note_on_c, 9, 46, 96
4, 131039, Note_on_c, 9, 46, 0
4, 131280, Note_on_c, 9, 46, 104
4, 131519, Note_on_c, 9, 46, 0
4, 131760, Note_on_c, 9, 46, 109
4, 131999, Note_on_c, 9, 46, 0
4, 132240, Note_on_c, 9, 46, 106
4, 132479, Note_on_c, 9, 46, 0
4, 132720, Note_on_c, 9, 46, 96
4, 132959, Note_on_c, 9, 46, 0
4, 133200, Note_on_c, 9, 46, 104
4, 133439, Note_on_c, 9, 46, 0
4, 133680, Note_on_c, 9, 46, 109
4, 133919, Note_on_c, 9, 46, 0
4, 134160, Note_on_c, 9, 46, 106
4, 134399, Note_on_c, 9, 46, 0
4, 134640, Note_on_c, 9, 46, 96
4, 134879, Note_on_c, 9, 46, 0
4, 135120, Note_on_c, 9, 46, 104
4, 135359, Note_on_c, 9, 46, 0
4, 135600, Note_on_c, 9, 46, 109
4, 135839, Note_on_c, 9, 46, 0
4, 136080, Note_on_c, 9, 46, 106
4, 136319, Note_on_c, 9, 46, 0
4, 136560, Note_on_c, 9, 46, 96
4, 136799, Note_on_c, 9, 46, 0
4, 137040, Note_on_c, 9, 46, 104
4, 137279, Note_on_c, 9, 46, 0
4, 137520, Note_on_c, 9, 46, 109
4, 137759, Note_on_c, 9, 46, 0
4, 138000, Note_on_c, 9, 46, 106
4, 138239, Note_on_c, 9, 46, 0
4, 138480, Note_on_c, 9, 46, 96
4, 138719, Note_on_c, 9, 46, 0
4, 138960, Note_on_c, 9, 46, 104
4, 139199, Note_on_c, 9, 46, 0
4, 139440, Note_on_c, 9, 46, 109
4, 139679, Note_on_c, 9, 46, 0
4, 139920, Note_on_c, 9, 46, 106
4, 140159, Note_on_c, 9, 46, 0
4, 140400, Note_on_c, 9, 46, 96
4, 140639, Note_on_c, 9, 46, 0
4, 140880, Note_on_c, 9, 46, 104
4, 141119, Note_on_c, 9, 46, 0
4, 141360, Note_on_c, 9, 46, 109
4, 141599, Note_on_c, 9, 46, 0
4, 141840, Note_on_c, 9, 46, 106
4, 142079, Note_on_c, 9, 46, 0
4, 142320, Note_on_c, 9, 46, 96
4, 142559, Note_on_c, 9, 46, 0
4, 142800, Note_on_c, 9, 46, 104
4, 143039, Note_on_c, 9, 46, 0
4, 143280, Note_on_c, 9, 46, 109
4, 143519, Note_on_c, 9, 46, 0
4, 143760, Note_on_c, 9, 46, 106
4, 143999, Note_on_c, 9, 46, 0
4, 144240, Note_on_c, 9, 46, 96
4, 144479, Note_on_c, 9, 46, 0
4, 144720, Note_on_c, 9, 46, 104
4, 144959, Note_on_c, 9, 46, 0
4, 145200, Note_on_c, 9, 46, 109
4, 145439, Note_on_c, 9, 46, 0
4, 145680, Note_on_c, 9, 46, 106
4, 145919, Note_on_c, 9, 46, 0
4, 146160, Note_on_c, 9, 46, 96
4, 146399, Note_on_c, 9, 46, 0
4, 146640, Note_on_c, 9, 46, 104
4, 146879, Note_on_c, 9, 46, 0
4, 147120, Note_on_c, 9, 46, 109
4, 147359, Note_on_c, 9, 46, 0
4, 147600, Note_on_c, 9, 46, 106
4, 147839, Note_on_c, 9, 46, 0
4, 148080, Note_on_c, 9, 46, 96
4, 148319, Note_on_c, 9, 46, 0
4, 148560, Note_on_c, 9, 46, 104
4, 148799, Note_on_c, 9, 46, 0
4, 149040, Note_on_c, 9, 46, 109
4, 149279, Note_on_c, 9, 46, 0
4, 149520, Note_on_c, 9, 46, 106
4, 149759, Note_on_c, 9, 46, 0
4, 150000, Note_on_c, 9, 46, 96
4, 150239, Note_on_c, 9, 46, 0
4, 150480, Note_on_c, 9, 46, 104
4, 150719, Note_on_c, 9, 46, 0
4, 150960, Note_on_c, 9, 46, 109
4, 151199, Note_on_c, 9, 46, 0
4, 151440, Note_on_c, 9, 46, 106
4, 151679, Note_on_c, 9, 46, 0
4, 151920, Note_on_c, 9, 46, 96
4, 152159, Note_on_c, 9, 46, 0
4, 152400, Note_on_c, 9, 46, 104
4, 152639, Note_on_c, 9, 46, 0
4, 152880, Note_on_c, 9, 46, 109
4, 153119, Note_on_c, 9, 46, 0
4, 153360, Note_on_c, 9, 46, 106
4, 153599, Note_on_c, 9, 46, 0
4, 153840, Note_on_c, 9, 46, 96
4, 154079, Note_on_c, 9, 46, 0
4, 154320, Note_on_c, 9, 46, 104
4, 154559, Note_on_c, 9, 46, 0
4, 154800, Note_on_c, 9, 46, 109
4, 155039, Note_on_c, 9, 46, 0
4, 155280, Note_on_c, 9, 46, 106
4, 155519, Note_on_c, 9, 46, 0
4, 155760, Note_on_c, 9, 46, 96
4, 155999, Note_on_c, 9, 46, 0
4, 156240, Note_on_c, 9, 46, 104
4, 156479, Note_on_c, 9, 46, 0
4, 156720, Note_on_c, 9, 46, 109
4, 156959, Note_on_c, 9, 46, 0
4, 157200, Note_on_c, 9, 46, 106
4, 157439, Note_on_c, 9, 46, 0
4, 157680, Note_on_c, 9, 46, 96
4, 157919, Note_on_c, 9, 46, 0
4, 158160, Note_on_c, 9, 46, 104
4, 158399, Note_on_c, 9, 46, 0
4, 158640, Note_on_c, 9, 46, 109
4, 158879, Note_on_c, 9, 46, 0
4, 159120, Note_on_c, 9, 46, 106
4, 159359, Note_on_c, 9, 46, 0
4, 159600, Note_on_c, 9, 46, 96
4, 159839, Note_on_c, 9, 46, 0
4, 160080, Note_on_c, 9, 46, 104
4, 160319, Note_on_c, 9, 46, 0
4, 160560, Note_on_c, 9, 46, 109
4, 160799, Note_on_c, 9, 46, 0
4, 161040, Note_on_c, 9, 46, 106
4, 161279, Note_on_c, 9, 46, 0
4, 161520, Note_on_c, 9, 46, 96
4, 161759, Note_on_c, 9, 46, 0
4, 162000, Note_on_c, 9, 46, 104
4, 162239, Note_on_c, 9, 46, 0
4, 162480, Note_on_c, 9, 46, 109
4, 162719, Note_on_c, 9, 46, 0
4, 162960, Note_on_c, 9, 46, 106
4, 163199, Note_on_c, 9, 46, 0
4, 163440, Note_on_c, 9, 46, 96
4, 163679, Note_on_c, 9, 46, 0
4, 163920, Note_on_c, 9, 46, 104
4, 164159, Note_on_c, 9, 46, 0
4, 164400, Note_on_c, 9, 46, 109
4, 164639, Note_on_c, 9, 46, 0
4, 164880, Note_on_c, 9, 46, 106
4, 165119, Note_on_c, 9, 46, 0
4, 165360, Note_on_c, 9, 46, 96
4, 165599, Note_on_c, 9, 46, 0
4, 165840, Note_on_c, 9, 46, 104
4, 166079, Note_on_c, 9, 46, 0
4, 166320, Note_on_c, 9, 46, 109
4, 166559, Note_on_c, 9, 46, 0
4, 166800, Note_on_c, 9, 46, 106
4, 167039, Note_on_c, 9, 46, 0
4, 167280, Note_on_c, 9, 46, 96
4, 167519, Note_on_c, 9, 46, 0
4, 167760, Note_on_c, 9, 46, 104
4, 167999, Note_on_c, 9, 46, 0
4, 168240, Note_on_c, 9, 46, 109
4, 168479, Note_on_c, 9, 46, 0
4, 168720, Note_on_c, 9, 46, 106
4, 168959, Note_on_c, 9, 46, 0
4, 169200, Note_on_c, 9, 46, 96
4, 169439, Note_on_c, 9, 46, 0
4, 169680, Note_on_c, 9, 46, 104
4, 169919, Note_on_c, 9, 46, 0
4, 170160, Note_on_c, 9, 46, 109
4, 170399, Note_on_c, 9, 46, 0
4, 170640, Note_on_c, 9, 46, 106
4, 170879, Note_on_c, 9, 46, 0
4, 171120, Note_on_c, 9, 46, 96
4, 171359, Note_on_c, 9, 46, 0
4, 171600, Note_on_c, 9, 46, 104
4, 171839, Note_on_c, 9, 46, 0
4, 172080, Note_on_c, 9, 46, 109
4, 172319, Note_on_c, 9, 46, 0
4, 172560, Note_on_c, 9, 46, 106
4, 172799, Note_on_c, 9, 46, 0
4, 173040, Note_on_c, 9, 46, 100
4, 173279, Note_on_c, 9, 46, 0
4, 173520, Note_on_c, 9, 46, 109
4, 173759, Note_on_c, 9, 46, 0
4, 174960, Note_on_c, 9, 46, 96
4, 175199, Note_on_c, 9, 46, 0
4, 175440, Note_on_c, 9, 46, 104
4, 175679, Note_on_c, 9, 46, 0
4, 175920, Note_on_c, 9, 46, 109
4, 176159, Note_on_c, 9, 46, 0
4, 176400, Note_on_c, 9, 46, 106
4, 176639, Note_on_c, 9, 46, 0
4, 176880, Note_on_c, 9, 46, 96
4, 177119, Note_on_c, 9, 46, 0
4, 177360, Note_on_c, 9, 46, 104
4, 177599, Note_on_c, 9, 46, 0
4, 177840, Note_on_c, 9, 46, 109
4, 178079, Note_on_c, 9, 46, 0
4, 178320, Note_on_c, 9, 46, 106
4, 178559, Note_on_c, 9, 46, 0
4, 178800, Note_on_c, 9, 46, 96
4, 179039, Note_on_c, 9, 46, 0
4, 179280, Note_on_c, 9, 46, 104
4, 179519, Note_on_c, 9, 46, 0
4, 179760, Note_on_c, 9, 46, 109
4, 179999, Note_on_c, 9, 46, 0
4, 180240, Note_on_c, 9, 46, 106
4, 180479, Note_on_c, 9, 46, 0
4, 180720, Note_on_c, 9, 46, 96
4, 180959, Note_on_c, 9, 46, 0
4, 181200, Note_on_c, 9, 46, 104
4, 181439, Note_on_c, 9, 46, 0
4, 181680, Note_on_c, 9, 46, 109
4, 181919, Note_on_c, 9, 46, 0
4, 182160, Note_on_c, 9, 46, 106
4, 182399, Note_on_c, 9, 46, 0
4, 182640, Note_on_c, 9, 46, 96
4, 182879, Note_on_c, 9, 46, 0
4, 183120, Note_on_c, 9, 46, 104
4, 183359, Note_on_c, 9, 46, 0
4, 183600, Note_on_c, 9, 46, 109
4, 183839, Note_on_c, 9, 46, 0
4, 184080, Note_on_c, 9, 46, 106
4, 184319, Note_on_c, 9, 46, 0
4, 184560, Note_on_c, 9, 46, 96
4, 184799, Note_on_c, 9, 46, 0
4, 185040, Note_on_c, 9, 46, 104
4, 185279, Note_on_c, 9, 46, 0
4, 185520, Note_on_c, 9, 46, 109
4, 185759, Note_on_c, 9, 46, 0
4, 186000, Note_on_c, 9, 46, 106
4, 186239, Note_on_c, 9, 46, 0
4, 186480, Note_on_c, 9, 46, 96
4, 186719, Note_on_c, 9, 46, 0
4, 186960, Note_on_c, 9, 46, 104
4, 187199, Note_on_c, 9, 46, 0
4, 187440, Note_on_c, 9, 46, 109
4, 187679, Note_on_c, 9, 46, 0
4, 187920, Note_on_c, 9, 46, 106
4, 188159, Note_on_c, 9, 46, 0
4, 188400, Note_on_c, 9, 46, 96
4, 188639, Note_on_c, 9, 46, 0
4, 188880, Note_on_c, 9, 46, 104
4, 189119, Note_on_c, 9, 46, 0
4, 189360, Note_on_c, 9, 46, 109
4, 189599, Note_on_c, 9, 46, 0
4, 189840, Note_on_c, 9, 46, 106
4, 190079, Note_on_c, 9, 46, 0
4, 190320, Note_on_c, 9, 46, 96
4, 190559, Note_on_c, 9, 46, 0
4, 190800, Note_on_c, 9, 46, 104
4, 191039, Note_on_c, 9, 46, 0
4, 191280, Note_on_c, 9, 46, 109
4, 191519, Note_on_c, 9, 46, 0
4, 191760, Note_on_c, 9, 46, 106
4, 191999, Note_on_c, 9, 46, 0
4, 192240, Note_on_c, 9, 46, 96
4, 192479, Note_on_c, 9, 46, 0
4, 192720, Note_on_c, 9, 46, 104
4, 192959, Note_on_c, 9, 46, 0
4, 193200, Note_on_c, 9, 46, 109
4, 193439, Note_on_c, 9, 46, 0
4, 193680, Note_on_c, 9, 46, 106
4, 193919, Note_on_c, 9, 46, 0
4, 194160, Note_on_c, 9, 46, 96
4, 194399, Note_on_c, 9, 46, 0
4, 194640, Note_on_c, 9, 46, 104
4, 194879, Note_on_c, 9, 46, 0
4, 195120, Note_on_c, 9, 46, 109
4, 195359, Note_on_c, 9, 46, 0
4, 195600, Note_on_c, 9, 46, 106
4, 195839, Note_on_c, 9, 46, 0
4, 196080, Note_on_c, 9, 46, 96
4, 196319, Note_on_c, 9, 46, 0
4, 196560, Note_on_c, 9, 46, 104
4, 196799, Note_on_c, 9, 46, 0
4, 197040, Note_on_c, 9, 46, 109
4, 197279, Note_on_c, 9, 46, 0
4, 197520, Note_on_c, 9, 46, 106
4, 197759, Note_on_c, 9, 46, 0
4, 198000, Note_on_c, 9, 46, 96
4, 198239, Note_on_c, 9, 46, 0
4, 198480, Note_on_c, 9, 46, 104
4, 198719, Note_on_c, 9, 46, 0
4, 198960, Note_on_c, 9, 46, 109
4, 199199, Note_on_c, 9, 46, 0
4, 199440, Note_on_c, 9, 46, 106
4, 199679, Note_on_c, 9, 46, 0
4, 199920, Note_on_c, 9, 46, 96
4, 200159, Note_on_c, 9, 46, 0
4, 200400, Note_on_c, 9, 46, 104
4, 200639, Note_on_c, 9, 46, 0
4, 200880, Note_on_c, 9, 46, 109
4, 201119, Note_on_c, 9, 46, 0
4, 201360, Note_on_c, 9, 46, 106
4, 201599, Note_on_c, 9, 46, 0
4, 201840, Note_on_c, 9, 46, 96
4, 202079, Note_on_c, 9, 46, 0
4, 202320, Note_on_c, 9, 46, 104
4, 202559, Note_on_c, 9, 46, 0
4, 202800, Note_on_c, 9, 46, 109
4, 203039, Note_on_c, 9, 46, 0
4, 203280, Note_on_c, 9, 46, 106
4, 203519, Note_on_c, 9, 46, 0
4, 203760, Note_on_c, 9, 46, 96
4, 203999, Note_on_c, 9, 46, 0
4, 204240, Note_on_c, 9, 46, 104
4, 204479, Note_on_c, 9, 46, 0
4, 204720, Note_on_c, 9, 46, 109
4, 204959, Note_on_c, 9, 46, 0
4, 205200, Note_on_c, 9, 46, 106
4, 205439, Note_on_c, 9, 46, 0
4, 205680, Note_on_c, 9, 46, 96
4, 205919, Note_on_c, 9, 46, 0
4, 206160, Note_on_c, 9, 46, 104
4, 206399, Note_on_c, 9, 46, 0
4, 206640, Note_on_c, 9, 46, 109
4, 206879, Note_on_c, 9, 46, 0
4, 207120, Note_on_c, 9, 46, 106
4, 207359, Note_on_c, 9, 46, 0
4, 207600, Note_on_c, 9, 46, 96
4, 207839, Note_on_c, 9, 46, 0
4, 208080, Note_on_c, 9, 46, 104
4, 208319, Note_on_c, 9, 46, 0
4, 208560, Note_on_c, 9, 46, 109
4, 208799, Note_on_c, 9, 46, 0
4, 209040, Note_on_c, 9, 46, 106
4, 209279, Note_on_c, 9, 46, 0
4, 209520, Note_on_c, 9, 46, 96
4, 209759, Note_on_c, 9, 46, 0
4, 210000, Note_on_c, 9, 46, 104
4, 210239, Note_on_c, 9, 46, 0
4, 210480, Note_on_c, 9, 46, 109
4, 210719, Note_on_c, 9, 46, 0
4, 210960, Note_on_c, 9, 46, 106
4, 211199, Note_on_c, 9, 46, 0
4, 211440, Note_on_c, 9, 46, 96
4, 211679, Note_on_c, 9, 46, 0
4, 211920, Note_on_c, 9, 46, 104
4, 212159, Note_on_c, 9, 46, 0
4, 212400, Note_on_c, 9, 46, 109
4, 212639, Note_on_c, 9, 46, 0
4, 212880, Note_on_c, 9, 46, 106
4, 213119, Note_on_c, 9, 46, 0
4, 213360, Note_on_c, 9, 46, 96
4, 213599, Note_on_c, 9, 46, 0
4, 213840, Note_on_c, 9, 46, 104
4, 214079, Note_on_c, 9, 46, 0
4, 214320, Note_on_c, 9, 46, 109
4, 214559, Note_on_c, 9, 46, 0
4, 214800, Note_on_c, 9, 46, 106
4, 215039, Note_on_c, 9, 46, 0
4, 215280, Note_on_c, 9, 46, 96
4, 215519, Note_on_c, 9, 46, 0
4, 215760, Note_on_c, 9, 46, 104
4, 215999, Note_on_c, 9, 46, 0
4, 216240, Note_on_c, 9, 46, 109
4, 216479, Note_on_c, 9, 46, 0
4, 216720, Note_on_c, 9, 46, 106
4, 216959, Note_on_c, 9, 46, 0
4, 217200, Note_on_c, 9, 46, 96
4, 217439, Note_on_c, 9, 46, 0
4, 217680, Note_on_c, 9, 46, 104
4, 217919, Note_on_c, 9, 46, 0
4, 218160, Note_on_c, 9, 46, 109
4, 218399, Note_on_c, 9, 46, 0
4, 218640, Note_on_c, 9, 46, 106
4, 218879, Note_on_c, 9, 46, 0
4, 219120, Note_on_c, 9, 46, 96
4, 219359, Note_on_c, 9, 46, 0
4, 219600, Note_on_c, 9, 46, 104
4, 219839, Note_on_c, 9, 46, 0
4, 220080, Note_on_c, 9, 46, 109
4, 220319, Note_on_c, 9, 46, 0
4, 220560, Note_on_c, 9, 46, 106
4, 220799, Note_on_c, 9, 46, 0
4, 221040, Note_on_c, 9, 46, 96
4, 221279, Note_on_c, 9, 46, 0
4, 221520, Note_on_c, 9, 46, 104
4, 221759, Note_on_c, 9, 46, 0
4, 222000, Note_on_c, 9, 46, 109
4, 222239, Note_on_c, 9, 46, 0
4, 222480, Note_on_c, 9, 46, 106
4, 222719, Note_on_c, 9, 46, 0
4, 222960, Note_on_c, 9, 46, 96
4, 223199, Note_on_c, 9, 46, 0
4, 223440, Note_on_c, 9, 46, 104
4, 223679, Note_on_c, 9, 46, 0
4, 223920, Note_on_c, 9, 46, 109
4, 224159, Note_on_c, 9, 46, 0
4, 224400, Note_on_c, 9, 46, 106
4, 224639, Note_on_c, 9, 46, 0
4, 224880, Note_on_c, 9, 46, 96
4, 225119, Note_on_c, 9, 46, 0
4, 225360, Note_on_c, 9, 46, 104
4, 225599, Note_on_c, 9, 46, 0
4, 225840, Note_on_c, 9, 46, 109
4, 226079, Note_on_c, 9, 46, 0
4, 226320, Note_on_c, 9, 46, 106
4, 226559, Note_on_c, 9, 46, 0
4, 226800, Note_on_c, 9, 46, 96
4, 227039, Note_on_c, 9, 46, 0
4, 227280, Note_on_c, 9, 46, 104
4, 227519, Note_on_c, 9, 46, 0
4, 227760, Note_on_c, 9, 46, 109
4, 227999, Note_on_c, 9, 46, 0
4, 228240, Note_on_c, 9, 46, 106
4, 228479, Note_on_c, 9, 46, 0
4, 228480, Note_on_c, 9, 46, 122
4, 228719, Note_on_c, 9, 46, 0
4, 228720, Note_on_c, 9, 46, 122
4, 228959, Note_on_c, 9, 46, 0
4, 228960, End_track
5, 0, Start_track
5, 0, Key_signature, 0, "major"
5, 0, Control_c, 9, 121, 0
5, 0, Program_c, 9, 0
5, 0, Control_c, 9, 7, 100
5, 0, Control_c, 9, 10, 64
5, 0, Control_c, 9, 91, 0
5, 0, Control_c, 9, 93, 0
5, 0, MIDI_port, 0
5, 49920, Note_on_c, 9, 49, 93
5, 50399, Note_on_c, 9, 49, 0
5, 101760, Note_on_c, 9, 49, 93
5, 102239, Note_on_c, 9, 49, 0
5, 161280, Note_on_c, 9, 49, 93
5, 161759, Note_on_c, 9, 49, 0
5, 161760, End_track
6, 0, Start_track
6, 0, Key_signature, 0, "major"
6, 0, Control_c, 9, 121, 0
6, 0, Program_c, 9, 0
6, 0, Control_c, 9, 7, 100
6, 0, Control_c, 9, 10, 64
6, 0, Control_c, 9, 91, 0
6, 0, Control_c, 9, 93, 0
6, 0, MIDI_port, 0
6, 17520, Note_on_c, 9, 50, 86
6, 17759, Note_on_c, 9, 50, 0
6, 18480, Note_on_c, 9, 50, 90
6, 18719, Note_on_c, 9, 50, 0
6, 32880, Note_on_c, 9, 50, 86
6, 33119, Note_on_c, 9, 50, 0
6, 33840, Note_on_c, 9, 50, 90
6, 34079, Note_on_c, 9, 50, 0
6, 62400, Note_on_c, 9, 50, 122
6, 62639, Note_on_c, 9, 50, 0
6, 62640, Note_on_c, 9, 50, 126
6, 62879, Note_on_c, 9, 50, 0
6, 77040, Note_on_c, 9, 50, 86
6, 77279, Note_on_c, 9, 50, 0
6, 78000, Note_on_c, 9, 50, 90
6, 78239, Note_on_c, 9, 50, 0
6, 114240, Note_on_c, 9, 50, 122
6, 114479, Note_on_c, 9, 50, 0
6, 114480, Note_on_c, 9, 50, 126
6, 114719, Note_on_c, 9, 50, 0
6, 128880, Note_on_c, 9, 50, 86
6, 129119, Note_on_c, 9, 50, 0
6, 129840, Note_on_c, 9, 50, 90
6, 130079, Note_on_c, 9, 50, 0
6, 144240, Note_on_c, 9, 50, 86
6, 144479, Note_on_c, 9, 50, 0
6, 145200, Note_on_c, 9, 50, 90
6, 145439, Note_on_c, 9, 50, 0
6, 173760, Note_on_c, 9, 50, 122
6, 173999, Note_on_c, 9, 50, 0
6, 174000, Note_on_c, 9, 50, 126
6, 174239, Note_on_c, 9, 50, 0
6, 188400, Note_on_c, 9, 50, 86
6, 188639, Note_on_c, 9, 50, 0
6, 189360, Note_on_c, 9, 50, 90
6, 189599, Note_on_c, 9, 50, 0
6, 211440, Note_on_c, 9, 50, 86
6, 211679, Note_on_c, 9, 50, 0
6, 212400, Note_on_c, 9, 50, 90
6, 212639, Note_on_c, 9, 50, 0
6, 226800, Note_on_c, 9, 50, 86
6, 227039, Note_on_c, 9, 50, 0
6, 227760, Note_on_c, 9, 50, 90
6, 227999, Note_on_c, 9, 50, 0
6, 228000, End_track
7, 0, Start_track
7, 0, Key_signature, 0, "major"
7, 0, Control_c, 9, 121, 0
7, 0, Program_c, 9, 0
7, 0, Control_c, 9, 7, 100
7, 0, Control_c, 9, 10, 64
7, 0, Control_c, 9, 91, 0
7, 0, Control_c, 9, 93, 0
7, 0, MIDI_port, 0
7, 17760, Note_on_c, 9, 47, 108
7, 18239, Note_on_c, 9, 47, 0
7, 18720, Note_on_c, 9, 47, 94
7, 19199, Note_on_c, 9, 47, 0
7, 33120, Note_on_c, 9, 47, 108
7, 33599, Note_on_c, 9, 47, 0
7, 34080, Note_on_c, 9, 47, 94
7, 34559, Note_on_c, 9, 47, 0
7, 62880, Note_on_c, 9, 47, 127
7, 63359, Note_on_c, 9, 47, 0
7, 77280, Note_on_c, 9, 47, 108
7, 77759, Note_on_c, 9, 47, 0
7, 78240, Note_on_c, 9, 47, 94
7, 78719, Note_on_c, 9, 47, 0
7, 114720, Note_on_c, 9, 47, 127
7, 115199, Note_on_c, 9, 47, 0
7, 129120, Note_on_c, 9, 47, 108
7, 129599, Note_on_c, 9, 47, 0
7, 130080, Note_on_c, 9, 47, 94
7, 130559, Note_on_c, 9, 47, 0
7, 144480, Note_on_c, 9, 47, 108
7, 144959, Note_on_c, 9, 47, 0
7, 145440, Note_on_c, 9, 47, 94
7, 145919, Note_on_c, 9, 47, 0
7, 174240, Note_on_c, 9, 47, 127
7, 174719, Note_on_c, 9, 47, 0
7, 188640, Note_on_c, 9, 47, 108
7, 189119, Note_on_c, 9, 47, 0
7, 189600, Note_on_c, 9, 47, 94
7, 190079, Note_on_c, 9, 47, 0
7, 211680, Note_on_c, 9, 47, 108
7, 212159, Note_on_c, 9, 47, 0
7, 212640, Note_on_c, 9, 47, 94
7, 213119, Note_on_c, 9, 47, 0
7, 227040, Note_on_c, 9, 47, 108
7, 227519, Note_on_c, 9, 47, 0
7, 228000, Note_on_c, 9, 47, 94
7, 228479, Note_on_c, 9, 47, 0
7, 228480, End_track
8, 0, Start_track
8, 0, Key_signature, 0, "major"
8, 0, Control_c, 9, 121, 0
8, 0, Program_c, 9, 0
8, 0, Control_c, 9, 7, 100
8, 0, Control_c, 9, 10, 64
8, 0, Control_c, 9, 91, 0
8, 0, Control_c, 9, 93, 0
8, 0, MIDI_port, 0
8, 11280, Note_on_c, 9, 43, 127
8, 11399, Note_on_c, 9, 43, 0
8, 11400, Note_on_c, 9, 43, 127
8, 11519, Note_on_c, 9, 43, 0
8, 18960, Note_on_c, 9, 43, 92
8, 19079, Note_on_c, 9, 43, 0
8, 19080, Note_on_c, 9, 43, 97
8, 19199, Note_on_c, 9, 43, 0
8, 34320, Note_on_c, 9, 43, 92
8, 34439, Note_on_c, 9, 43, 0
8, 34440, Note_on_c, 9, 43, 97
8, 34559, Note_on_c, 9, 43, 0
8, 51360, Note_on_c, 9, 43, 116
8, 51839, Note_on_c, 9, 43, 0
8, 53280, Note_on_c, 9, 43, 116
8, 53759, Note_on_c, 9, 43, 0
8, 55200, Note_on_c, 9, 43, 116
8, 55679, Note_on_c, 9, 43, 0
8, 57120, Note_on_c, 9, 43, 116
8, 57599, Note_on_c, 9, 43, 0
8, 59040, Note_on_c, 9, 43, 116
8, 59519, Note_on_c, 9, 43, 0
8, 60960, Note_on_c, 9, 43, 116
8, 61439, Note_on_c, 9, 43, 0
8, 63000, Note_on_c, 9, 43, 127
8, 63359, Note_on_c, 9, 43, 0
8, 78480, Note_on_c, 9, 43, 92
8, 78599, Note_on_c, 9, 43, 0
8, 78600, Note_on_c, 9, 43, 97
8, 78719, Note_on_c, 9, 43, 0
8, 103200, Note_on_c, 9, 43, 116
8, 103679, Note_on_c, 9, 43, 0
8, 105120, Note_on_c, 9, 43, 116
8, 105599, Note_on_c, 9, 43, 0
8, 107040, Note_on_c, 9, 43, 116
8, 107519, Note_on_c, 9, 43, 0
8, 108960, Note_on_c, 9, 43, 116
8, 109439, Note_on_c, 9, 43, 0
8, 110880, Note_on_c, 9, 43, 116
8, 111359, Note_on_c, 9, 43, 0
8, 112800, Note_on_c, 9, 43, 116
8, 113279, Note_on_c, 9, 43, 0
8, 114840, Note_on_c, 9, 43, 127
8, 115199, Note_on_c, 9, 43, 0
8, 130320, Note_on_c, 9, 43, 92
8, 130439, Note_on_c, 9, 43, 0
8, 130440, Note_on_c, 9, 43, 97
8, 130559, Note_on_c, 9, 43, 0
8, 145680, Note_on_c, 9, 43, 92
8, 145799, Note_on_c, 9, 43, 0
8, 145800, Note_on_c, 9, 43, 97
8, 145919, Note_on_c, 9, 43, 0
8, 162720, Note_on_c, 9, 43, 116
8, 163199, Note_on_c, 9, 43, 0
8, 164640, Note_on_c, 9, 43, 116
8, 165119, Note_on_c, 9, 43, 0
8, 166560, Note_on_c, 9, 43, 116
8, 167039, Note_on_c, 9, 43, 0
8, 168480, Note_on_c, 9, 43, 116
8, 168959, Note_on_c, 9, 43, 0
8, 170400, Note_on_c, 9, 43, 116
8, 170879, Note_on_c, 9, 43, 0
8, 172320, Note_on_c, 9, 43, 116
8, 172799, Note_on_c, 9, 43, 0
8, 174360, Note_on_c, 9, 43, 127
8, 174719, Note_on_c, 9, 43, 0
8, 189840, Note_on_c, 9, 43, 92
8, 189959, Note_on_c, 9, 43, 0
8, 189960, Note_on_c, 9, 43, 97
8, 190079, Note_on_c, 9, 43, 0
8, 212880, Note_on_c, 9, 43, 92
8, 212999, Note_on_c, 9, 43, 0
8, 213000, Note_on_c, 9, 43, 97
8, 213119, Note_on_c, 9, 43, 0
8, 228240, Note_on_c, 9, 43, 92
8, 228359, Note_on_c, 9, 43, 0
8, 228360, Note_on_c, 9, 43, 97
8, 228479, Note_on_c, 9, 43, 0
8, 228480, End_track
9, 0, Start_track
9, 0, Key_signature, 0, "major"
9, 0, Control_c, 9, 121, 0
9, 0, Program_c, 9, 0
9, 0, Control_c, 9, 7, 100
9, 0, Control_c, 9, 10, 64
9, 0, Control_c, 9, 91, 0
9, 0, Control_c, 9, 93, 0
9, 0, MIDI_port, 0
9, 11760, Note_on_c, 9, 39, 127
9, 11999, Note_on_c, 9, 39, 0
9, 12000, Note_on_c, 9, 39, 127
9, 12479, Note_on_c, 9, 39, 0
9, 12960, Note_on_c, 9, 39, 108
9, 13439, Note_on_c, 9, 39, 0
9, 13920, Note_on_c, 9, 39, 117
9, 14399, Note_on_c, 9, 39, 0
9, 14880, Note_on_c, 9, 39, 123
9, 15359, Note_on_c, 9, 39, 0
9, 15600, Note_on_c, 9, 39, 127
9, 15839, Note_on_c, 9, 39, 0
9, 15840, Note_on_c, 9, 39, 127
9, 16319, Note_on_c, 9, 39, 0
9, 16800, Note_on_c, 9, 39, 108
9, 17279, Note_on_c, 9, 39, 0
9, 17760, Note_on_c, 9, 39, 117
9, 18239, Note_on_c, 9, 39, 0
9, 18720, Note_on_c, 9, 39, 123
9, 19199, Note_on_c, 9, 39, 0
9, 19680, Note_on_c, 9, 39, 117
9, 20159, Note_on_c, 9, 39, 0
9, 20640, Note_on_c, 9, 39, 123
9, 21119, Note_on_c, 9, 39, 0
9, 21600, Note_on_c, 9, 39, 117
9, 22079, Note_on_c, 9, 39, 0
9, 22560, Note_on_c, 9, 39, 123
9, 23039, Note_on_c, 9, 39, 0
9, 23520, Note_on_c, 9, 39, 117
9, 23999, Note_on_c, 9, 39, 0
9, 24480, Note_on_c, 9, 39, 123
9, 24959, Note_on_c, 9, 39, 0
9, 25440, Note_on_c, 9, 39, 117
9, 25919, Note_on_c, 9, 39, 0
9, 26400, Note_on_c, 9, 39, 123
9, 26879, Note_on_c, 9, 39, 0
9, 27360, Note_on_c, 9, 39, 117
9, 27839, Note_on_c, 9, 39, 0
9, 28320, Note_on_c, 9, 39, 123
9, 28799, Note_on_c, 9, 39, 0
9, 29280, Note_on_c, 9, 39, 117
9, 29759, Note_on_c, 9, 39, 0
9, 30240, Note_on_c, 9, 39, 123
9, 30719, Note_on_c, 9, 39, 0
9, 30960, Note_on_c, 9, 39, 127
9, 31199, Note_on_c, 9, 39, 0
9, 31200, Note_on_c, 9, 39, 127
9, 31679, Note_on_c, 9, 39, 0
9, 32160, Note_on_c, 9, 39, 108
9, 32639, Note_on_c, 9, 39, 0
9, 33120, Note_on_c, 9, 39, 117
9, 33599, Note_on_c, 9, 39, 0
9, 34080, Note_on_c, 9, 39, 123
9, 34559, Note_on_c, 9, 39, 0
9, 35040, Note_on_c, 9, 39, 117
9, 35519, Note_on_c, 9, 39, 0
9, 36000, Note_on_c, 9, 39, 123
9, 36479, Note_on_c, 9, 39, 0
9, 36960, Note_on_c, 9, 39, 117
9, 37439, Note_on_c, 9, 39, 0
9, 37920, Note_on_c, 9, 39, 123
9, 38399, Note_on_c, 9, 39, 0
9, 38880, Note_on_c, 9, 39, 117
9, 39359, Note_on_c, 9, 39, 0
9, 39840, Note_on_c, 9, 39, 123
9, 40319, Note_on_c, 9, 39, 0
9, 40800, Note_on_c, 9, 39, 117
9, 41279, Note_on_c, 9, 39, 0
9, 41760, Note_on_c, 9, 39, 123
9, 42239, Note_on_c, 9, 39, 0
9, 42720, Note_on_c, 9, 39, 117
9, 43199, Note_on_c, 9, 39, 0
9, 43680, Note_on_c, 9, 39, 123
9, 44159, Note_on_c, 9, 39, 0
9, 44640, Note_on_c, 9, 39, 117
9, 45119, Note_on_c, 9, 39, 0
9, 45600, Note_on_c, 9, 39, 123
9, 46079, Note_on_c, 9, 39, 0
9, 46560, Note_on_c, 9, 39, 117
9, 47039, Note_on_c, 9, 39, 0
9, 47520, Note_on_c, 9, 39, 123
9, 47999, Note_on_c, 9, 39, 0
9, 48480, Note_on_c, 9, 39, 117
9, 48959, Note_on_c, 9, 39, 0
9, 49440, Note_on_c, 9, 39, 123
9, 49919, Note_on_c, 9, 39, 0
9, 49920, Note_on_c, 9, 38, 104
9, 50399, Note_on_c, 9, 38, 0
9, 50400, Note_on_c, 9, 39, 117
9, 50879, Note_on_c, 9, 39, 0
9, 51360, Note_on_c, 9, 39, 123
9, 51839, Note_on_c, 9, 39, 0
9, 52320, Note_on_c, 9, 39, 117
9, 52799, Note_on_c, 9, 39, 0
9, 53280, Note_on_c, 9, 39, 123
9, 53759, Note_on_c, 9, 39, 0
9, 54240, Note_on_c, 9, 39, 117
9, 54719, Note_on_c, 9, 39, 0
9, 55200, Note_on_c, 9, 39, 123
9, 55679, Note_on_c, 9, 39, 0
9, 56160, Note_on_c, 9, 39, 117
9, 56639, Note_on_c, 9, 39, 0
9, 57120, Note_on_c, 9, 39, 123
9, 57599, Note_on_c, 9, 39, 0
9, 58080, Note_on_c, 9, 39, 117
9, 58559, Note_on_c, 9, 39, 0
9, 59040, Note_on_c, 9, 39, 123
9, 59519, Note_on_c, 9, 39, 0
9, 60000, Note_on_c, 9, 39, 117
9, 60479, Note_on_c, 9, 39, 0
9, 60960, Note_on_c, 9, 39, 123
9, 61439, Note_on_c, 9, 39, 0
9, 63840, Note_on_c, 9, 39, 117
9, 64319, Note_on_c, 9, 39, 0
9, 64800, Note_on_c, 9, 39, 123
9, 65279, Note_on_c, 9, 39, 0
9, 65760, Note_on_c, 9, 39, 117
9, 66239, Note_on_c, 9, 39, 0
9, 66720, Note_on_c, 9, 39, 123
9, 67199, Note_on_c, 9, 39, 0
9, 67680, Note_on_c, 9, 39, 117
9, 68159, Note_on_c, 9, 39, 0
9, 68640, Note_on_c, 9, 39, 123
9, 69119, Note_on_c, 9, 39, 0
9, 69600, Note_on_c, 9, 39, 117
9, 70079, Note_on_c, 9, 39, 0
9, 70560, Note_on_c, 9, 39, 123
9, 71039, Note_on_c, 9, 39, 0
9, 71520, Note_on_c, 9, 39, 117
9, 71999, Note_on_c, 9, 39, 0
9, 72480, Note_on_c, 9, 39, 123
9, 72959, Note_on_c, 9, 39, 0
9, 73440, Note_on_c, 9, 39, 117
9, 73919, Note_on_c, 9, 39, 0
9, 74400, Note_on_c, 9, 39, 123
9, 74879, Note_on_c, 9, 39, 0
9, 75360, Note_on_c, 9, 39, 117
9, 75839, Note_on_c, 9, 39, 0
9, 76320, Note_on_c, 9, 39, 123
9, 76799, Note_on_c, 9, 39, 0
9, 77280, Note_on_c, 9, 39, 117
9, 77759, Note_on_c, 9, 39, 0
9, 78240, Note_on_c, 9, 39, 123
9, 78719, Note_on_c, 9, 39, 0
9, 78960, Note_on_c, 9, 39, 127
9, 79199, Note_on_c, 9, 39, 0
9, 79200, Note_on_c, 9, 39, 127
9, 79679, Note_on_c, 9, 39, 0
9, 80160, Note_on_c, 9, 39, 108
9, 80639, Note_on_c, 9, 39, 0
9, 81120, Note_on_c, 9, 39, 117
9, 81599, Note_on_c, 9, 39, 0
9, 82080, Note_on_c, 9, 39, 123
9, 82559, Note_on_c, 9, 39, 0
9, 82800, Note_on_c, 9, 39, 127
9, 83039, Note_on_c, 9, 39, 0
9, 83040, Note_on_c, 9, 39, 127
9, 83519, Note_on_c, 9, 39, 0
9, 84000, Note_on_c, 9, 39, 108
9, 84479, Note_on_c, 9, 39, 0
9, 84960, Note_on_c, 9, 39, 117
9, 85439, Note_on_c, 9, 39, 0
9, 85920, Note_on_c, 9, 39, 123
9, 86399, Note_on_c, 9, 39, 0
9, 86880, Note_on_c, 9, 39, 117
9, 87359, Note_on_c, 9, 39, 0
9, 87840, Note_on_c, 9, 39, 123
9, 88319, Note_on_c, 9, 39, 0
9, 88800, Note_on_c, 9, 39, 117
9, 89279, Note_on_c, 9, 39, 0
9, 89760, Note_on_c, 9, 39, 123
9, 90239, Note_on_c, 9, 39, 0
9, 90720, Note_on_c, 9, 39, 117
9, 91199, Note_on_c, 9, 39, 0
9, 91680, Note_on_c, 9, 39, 123
9, 92159, Note_on_c, 9, 39, 0
9, 92640, Note_on_c, 9, 39, 117
9, 93119, Note_on_c, 9, 39, 0
9, 93600, Note_on_c, 9, 39, 123
9, 94079, Note_on_c, 9, 39, 0
9, 94560, Note_on_c, 9, 39, 117
9, 95039, Note_on_c, 9, 39, 0
9, 95520, Note_on_c, 9, 39, 123
9, 95999, Note_on_c, 9, 39, 0
9, 96480, Note_on_c, 9, 39, 117
9, 96959, Note_on_c, 9, 39, 0
9, 97440, Note_on_c, 9, 39, 123
9, 97919, Note_on_c, 9, 39, 0
9, 98400, Note_on_c, 9, 39, 117
9, 98879, Note_on_c, 9, 39, 0
9, 99360, Note_on_c, 9, 39, 123
9, 99839, Note_on_c, 9, 39, 0
9, 100320, Note_on_c, 9, 39, 117
9, 100799, Note_on_c, 9, 39, 0
9, 101280, Note_on_c, 9, 39, 123
9, 101759, Note_on_c, 9, 39, 0
9, 101760, Note_on_c, 9, 38, 104
9, 102239, Note_on_c, 9, 38, 0
9, 102240, Note_on_c, 9, 39, 117
9, 102719, Note_on_c, 9, 39, 0
9, 103200, Note_on_c, 9, 39, 123
9, 103679, Note_on_c, 9, 39, 0
9, 104160, Note_on_c, 9, 39, 117
9, 104639, Note_on_c, 9, 39, 0
9, 105120, Note_on_c, 9, 39, 123
9, 105599, Note_on_c, 9, 39, 0
9, 106080, Note_on_c, 9, 39, 117
9, 106559, Note_on_c, 9, 39, 0
9, 107040, Note_on_c, 9, 39, 123
9, 107519, Note_on_c, 9, 39, 0
9, 108000, Note_on_c, 9, 39, 117
9, 108479, Note_on_c, 9, 39, 0
9, 108960, Note_on_c, 9, 39, 123
9, 109439, Note_on_c, 9, 39, 0
9, 109920, Note_on_c, 9, 39, 117
9, 110399, Note_on_c, 9, 39, 0
9, 110880, Note_on_c, 9, 39, 123
9, 111359, Note_on_c, 9, 39, 0
9, 111840, Note_on_c, 9, 39, 117
9, 112319, Note_on_c, 9, 39, 0
9, 112800, Note_on_c, 9, 39, 123
9, 113279, Note_on_c, 9, 39, 0
9, 115680, Note_on_c, 9, 39, 117
9, 116159, Note_on_c, 9, 39, 0
9, 116640, Note_on_c, 9, 39, 123
9, 117119, Note_on_c, 9, 39, 0
9, 117600, Note_on_c, 9, 39, 117
9, 118079, Note_on_c, 9, 39, 0
9, 118560, Note_on_c, 9, 39, 123
9, 119039, Note_on_c, 9, 39, 0
9, 119520, Note_on_c, 9, 39, 117
9, 119999, Note_on_c, 9, 39, 0
9, 120480, Note_on_c, 9, 39, 123
9, 120959, Note_on_c, 9, 39, 0
9, 121440, Note_on_c, 9, 39, 117
9, 121919, Note_on_c, 9, 39, 0
9, 122400, Note_on_c, 9, 39, 123
9, 122879, Note_on_c, 9, 39, 0
9, 123360, Note_on_c, 9, 39, 117
9, 123839, Note_on_c, 9, 39, 0
9, 124320, Note_on_c, 9, 39, 123
9, 124799, Note_on_c, 9, 39, 0
9, 125280, Note_on_c, 9, 39, 117
9, 125759, Note_on_c, 9, 39, 0
9, 126240, Note_on_c, 9, 39, 123
9, 126719, Note_on_c, 9, 39, 0
9, 127200, Note_on_c, 9, 39, 117
9, 127679, Note_on_c, 9, 39, 0
9, 128160, Note_on_c, 9, 39, 123
9, 128639, Note_on_c, 9, 39, 0
9, 129120, Note_on_c, 9, 39, 117
9, 129599, Note_on_c, 9, 39, 0
9, 130080, Note_on_c, 9, 39, 123
9, 130559, Note_on_c, 9, 39, 0
9, 131040, Note_on_c, 9, 39, 117
9, 131519, Note_on_c, 9, 39, 0
9, 132000, Note_on_c, 9, 39, 123
9, 132479, Note_on_c, 9, 39, 0
9, 132960, Note_on_c, 9, 39, 117
9, 133439, Note_on_c, 9, 39, 0
9, 133920, Note_on_c, 9, 39, 123
9, 134399, Note_on_c, 9, 39, 0
9, 134880, Note_on_c, 9, 39, 117
9, 135359, Note_on_c, 9, 39, 0
9, 135840, Note_on_c, 9, 39, 123
9, 136319, Note_on_c, 9, 39, 0
9, 136800, Note_on_c, 9, 39, 117
9, 137279, Note_on_c, 9, 39, 0
9, 137760, Note_on_c, 9, 39, 123
9, 138239, Note_on_c, 9, 39, 0
9, 138720, Note_on_c, 9, 39, 117
9, 139199, Note_on_c, 9, 39, 0
9, 139680, Note_on_c, 9, 39, 123
9, 140159, Note_on_c, 9, 39, 0
9, 140640, Note_on_c, 9, 39, 117
9, 141119, Note_on_c, 9, 39, 0
9, 141600, Note_on_c, 9, 39, 123
9, 142079, Note_on_c, 9, 39, 0
9, 142560, Note_on_c, 9, 39, 117
9, 143039, Note_on_c, 9, 39, 0
9, 143520, Note_on_c, 9, 39, 123
9, 143999, Note_on_c, 9, 39, 0
9, 144480, Note_on_c, 9, 39, 117
9, 144959, Note_on_c, 9, 39, 0
9, 145440, Note_on_c, 9, 39, 123
9, 145919, Note_on_c, 9, 39, 0
9, 146400, Note_on_c, 9, 39, 117
9, 146879, Note_on_c, 9, 39, 0
9, 147360, Note_on_c, 9, 39, 123
9, 147839, Note_on_c, 9, 39, 0
9, 148320, Note_on_c, 9, 39, 117
9, 148799, Note_on_c, 9, 39, 0
9, 149280, Note_on_c, 9, 39, 123
9, 149759, Note_on_c, 9, 39, 0
9, 150240, Note_on_c, 9, 39, 117
9, 150719, Note_on_c, 9, 39, 0
9, 151200, Note_on_c, 9, 39, 123
9, 151679, Note_on_c, 9, 39, 0
9, 152160, Note_on_c, 9, 39, 117
9, 152639, Note_on_c, 9, 39, 0
9, 153120, Note_on_c, 9, 39, 123
9, 153599, Note_on_c, 9, 39, 0
9, 154080, Note_on_c, 9, 39, 117
9, 154559, Note_on_c, 9, 39, 0
9, 155040, Note_on_c, 9, 39, 123
9, 155519, Note_on_c, 9, 39, 0
9, 156000, Note_on_c, 9, 39, 117
9, 156479, Note_on_c, 9, 39, 0
9, 156960, Note_on_c, 9, 39, 123
9, 157439, Note_on_c, 9, 39, 0
9, 157920, Note_on_c, 9, 39, 117
9, 158399, Note_on_c, 9, 39, 0
9, 158880, Note_on_c, 9, 39, 123
9, 159359, Note_on_c, 9, 39, 0
9, 159840, Note_on_c, 9, 39, 117
9, 160319, Note_on_c, 9, 39, 0
9, 160800, Note_on_c, 9, 39, 123
9, 161279, Note_on_c, 9, 39, 0
9, 161280, Note_on_c, 9, 38, 104
9, 161759, Note_on_c, 9, 38, 0
9, 161760, Note_on_c, 9, 39, 117
9, 162239, Note_on_c, 9, 39, 0
9, 162720, Note_on_c, 9, 39, 123
9, 163199, Note_on_c, 9, 39, 0
9, 163680, Note_on_c, 9, 39, 117
9, 164159, Note_on_c, 9, 39, 0
9, 164640, Note_on_c, 9, 39, 123
9, 165119, Note_on_c, 9, 39, 0
9, 165600, Note_on_c, 9, 39, 117
9, 166079, Note_on_c, 9, 39, 0
9, 166560, Note_on_c, 9, 39, 123
9, 167039, Note_on_c, 9, 39, 0
9, 167520, Note_on_c, 9, 39, 117
9, 167999, Note_on_c, 9, 39, 0
9, 168480, Note_on_c, 9, 39, 123
9, 168959, Note_on_c, 9, 39, 0
9, 169440, Note_on_c, 9, 39, 117
9, 169919, Note_on_c, 9, 39, 0
9, 170400, Note_on_c, 9, 39, 123
9, 170879, Note_on_c, 9, 39, 0
9, 171360, Note_on_c, 9, 39, 117
9, 171839, Note_on_c, 9, 39, 0
9, 172320, Note_on_c, 9, 39, 123
9, 172799, Note_on_c, 9, 39, 0
9, 175200, Note_on_c, 9, 39, 117
9, 175679, Note_on_c, 9, 39, 0
9, 176160, Note_on_c, 9, 39, 123
9, 176639, Note_on_c, 9, 39, 0
9, 177120, Note_on_c, 9, 39, 117
9, 177599, Note_on_c, 9, 39, 0
9, 178080, Note_on_c, 9, 39, 123
9, 178559, Note_on_c, 9, 39, 0
9, 179040, Note_on_c, 9, 39, 117
9, 179519, Note_on_c, 9, 39, 0
9, 180000, Note_on_c, 9, 39, 123
9, 180479, Note_on_c, 9, 39, 0
9, 180960, Note_on_c, 9, 39, 117
9, 181439, Note_on_c, 9, 39, 0
9, 181920, Note_on_c, 9, 39, 123
9, 182399, Note_on_c, 9, 39, 0
9, 182880, Note_on_c, 9, 39, 117
9, 183359, Note_on_c, 9, 39, 0
9, 183840, Note_on_c, 9, 39, 123
9, 184319, Note_on_c, 9, 39, 0
9, 184800, Note_on_c, 9, 39, 117
9, 185279, Note_on_c, 9, 39, 0
9, 185760, Note_on_c, 9, 39, 123
9, 186239, Note_on_c, 9, 39, 0
9, 186720, Note_on_c, 9, 39, 117
9, 187199, Note_on_c, 9, 39, 0
9, 187680, Note_on_c, 9, 39, 123
9, 188159, Note_on_c, 9, 39, 0
9, 188640, Note_on_c, 9, 39, 117
9, 189119, Note_on_c, 9, 39, 0
9, 189600, Note_on_c, 9, 39, 123
9, 190079, Note_on_c, 9, 39, 0
9, 190560, Note_on_c, 9, 39, 117
9, 191039, Note_on_c, 9, 39, 0
9, 191520, Note_on_c, 9, 39, 123
9, 191999, Note_on_c, 9, 39, 0
9, 192480, Note_on_c, 9, 39, 117
9, 192959, Note_on_c, 9, 39, 0
9, 193440, Note_on_c, 9, 39, 123
9, 193919, Note_on_c, 9, 39, 0
9, 194400, Note_on_c, 9, 39, 117
9, 194879, Note_on_c, 9, 39, 0
9, 195360, Note_on_c, 9, 39, 123
9, 195839, Note_on_c, 9, 39, 0
9, 196320, Note_on_c, 9, 39, 117
9, 196799, Note_on_c, 9, 39, 0
9, 197280, Note_on_c, 9, 39, 123
9, 197759, Note_on_c, 9, 39, 0
9, 198240, Note_on_c, 9, 39, 117
9, 198719, Note_on_c, 9, 39, 0
9, 199200, Note_on_c, 9, 39, 123
9, 199679, Note_on_c, 9, 39, 0
9, 200160, Note_on_c, 9, 39, 117
9, 200639, Note_on_c, 9, 39, 0
9, 201120, Note_on_c, 9, 39, 123
9, 201599, Note_on_c, 9, 39, 0
9, 202080, Note_on_c, 9, 39, 117
9, 202559, Note_on_c, 9, 39, 0
9, 203040, Note_on_c, 9, 39, 123
9, 203519, Note_on_c, 9, 39, 0
9, 204000, Note_on_c, 9, 39, 117
9, 204479, Note_on_c, 9, 39, 0
9, 204960, Note_on_c, 9, 39, 123
9, 205439, Note_on_c, 9, 39, 0
9, 205920, Note_on_c, 9, 39, 117
9, 206399, Note_on_c, 9, 39, 0
9, 206880, Note_on_c, 9, 39, 123
9, 207359, Note_on_c, 9, 39, 0
9, 207840, Note_on_c, 9, 39, 117
9, 208319, Note_on_c, 9, 39, 0
9, 208800, Note_on_c, 9, 39, 123
9, 209279, Note_on_c, 9, 39, 0
9, 209520, Note_on_c, 9, 39, 127
9, 209759, Note_on_c, 9, 39, 0
9, 209760, Note_on_c, 9, 39, 127
9, 210239, Note_on_c, 9, 39, 0
9, 210720, Note_on_c, 9, 39, 108
9, 211199, Note_on_c, 9, 39, 0
9, 211680, Note_on_c, 9, 39, 117
9, 212159, Note_on_c, 9, 39, 0
9, 212640, Note_on_c, 9, 39, 123
9, 213119, Note_on_c, 9, 39, 0
9, 213600, Note_on_c, 9, 39, 117
9, 214079, Note_on_c, 9, 39, 0
9, 214560, Note_on_c, 9, 39, 123
9, 215039, Note_on_c, 9, 39, 0
9, 215520, Note_on_c, 9, 39, 117
9, 215999, Note_on_c, 9, 39, 0
9, 216480, Note_on_c, 9, 39, 123
9, 216959, Note_on_c, 9, 39, 0
9, 217440, Note_on_c, 9, 39, 117
9, 217919, Note_on_c, 9, 39, 0
9, 218400, Note_on_c, 9, 39, 123
9, 218879, Note_on_c, 9, 39, 0
9, 219360, Note_on_c, 9, 39, 117
9, 219839, Note_on_c, 9, 39, 0
9, 220320, Note_on_c, 9, 39, 123
9, 220799, Note_on_c, 9, 39, 0
9, 221280, Note_on_c, 9, 39, 117
9, 221759, Note_on_c, 9, 39, 0
9, 222240, Note_on_c, 9, 39, 123
9, 222719, Note_on_c, 9, 39, 0
9, 223200, Note_on_c, 9, 39, 117
9, 223679, Note_on_c, 9, 39, 0
9, 224160, Note_on_c, 9, 39, 123
9, 224639, Note_on_c, 9, 39, 0
9, 224880, Note_on_c, 9, 39, 127
9, 225119, Note_on_c, 9, 39, 0
9, 225120, Note_on_c, 9, 39, 127
9, 225599, Note_on_c, 9, 39, 0
9, 226080, Note_on_c, 9, 39, 108
9, 226559, Note_on_c, 9, 39, 0
9, 227040, Note_on_c, 9, 39, 117
9, 227519, Note_on_c, 9, 39, 0
9, 228000, Note_on_c, 9, 39, 123
9, 228479, Note_on_c, 9, 39, 0
9, 228480, End_track
0, 0, End_of_file
