0, 0, Header, 1, 9, 480
1, 0, Start_track
1, 0, Time_signature, 4, 2, 24, 8
1, 0, Key_signature, 0, "major"
1, 0, Tempo, 483871
1, 0, Control_c, 9, 121, 0
1, 0, Program_c, 9, 0
1, 0, Control_c, 9, 7, 100
1, 0, Control_c, 9, 10, 64
1, 0, Control_c, 9, 91, 0
1, 0, Control_c, 9, 93, 0
1, 0, MIDI_port, 0
1, 17280, Note_on_c, 9, 36, 127
1, 17519, Note_on_c, 9, 36, 0
1, 17520, Note_on_c, 9, 36, 127
1, 17759, Note_on_c, 9, 36, 0
1, 18240, Note_on_c, 9, 36, 123
1, 18479, Note_on_c, 9, 36, 0
1, 18480, Note_on_c, 9, 36, 123
1, 18719, Note_on_c, 9, 36, 0
1, 19200, Note_on_c, 9, 36, 127
1, 19439, Note_on_c, 9, 36, 0
1, 19440, Note_on_c, 9, 36, 117
1, 19679, Note_on_c, 9, 36, 0
1, 19920, Note_on_c, 9, 36, 127
1, 20159, Note_on_c, 9, 36, 0
1, 20400, Note_on_c, 9, 36, 127
1, 20639, Note_on_c, 9, 36, 0
1, 20880, Note_on_c, 9, 36, 117
1, 21119, Note_on_c, 9, 36, 0
1, 21120, Note_on_c, 9, 36, 127
1, 21359, Note_on_c, 9, 36, 0
1, 21360, Note_on_c, 9, 36, 127
1, 21599, Note_on_c, 9, 36, 0
1, 22080, Note_on_c, 9, 36, 127
1, 22319, Note_on_c, 9, 36, 0
1, 22320, Note_on_c, 9, 36, 123
1, 22559, Note_on_c, 9, 36, 0
1, 23040, Note_on_c, 9, 36, 127
1, 23279, Note_on_c, 9, 36, 0
1, 23280, Note_on_c, 9, 36, 123
1, 23519, Note_on_c, 9, 36, 0
1, 23760, Note_on_c, 9, 36, 127
1, 23999, Note_on_c, 9, 36, 0
1, 24240, Note_on_c, 9, 36, 127
1, 24479, Note_on_c, 9, 36, 0
1, 24720, Note_on_c, 9, 36, 123
1, 24959, Note_on_c, 9, 36, 0
1, 24960, Note_on_c, 9, 36, 127
1, 25199, Note_on_c, 9, 36, 0
1, 25200, Note_on_c, 9, 36, 127
1, 25439, Note_on_c, 9, 36, 0
1, 25920, Note_on_c, 9, 36, 123
1, 26159, Note_on_c, 9, 36, 0
1, 26160, Note_on_c, 9, 36, 123
1, 26399, Note_on_c, 9, 36, 0
1, 26880, Note_on_c, 9, 36, 127
1, 27119, Note_on_c, 9, 36, 0
1, 27120, Note_on_c, 9, 36, 117
1, 27359, Note_on_c, 9, 36, 0
1, 27600, Note_on_c, 9, 36, 127
1, 27839, Note_on_c, 9, 36, 0
1, 28080, Note_on_c, 9, 36, 127
1, 28319, Note_on_c, 9, 36, 0
1, 28560, Note_on_c, 9, 36, 117
1, 28799, Note_on_c, 9, 36, 0
1, 28800, Note_on_c, 9, 36, 127
1, 29039, Note_on_c, 9, 36, 0
1, 29040, Note_on_c, 9, 36, 127
1, 29279, Note_on_c, 9, 36, 0
1, 29760, Note_on_c, 9, 36, 127
1, 29999, Note_on_c, 9, 36, 0
1, 30000, Note_on_c, 9, 36, 123
1, 30239, Note_on_c, 9, 36, 0
1, 30720, Note_on_c, 9, 36, 127
1, 30959, Note_on_c, 9, 36, 0
1, 30960, Note_on_c, 9, 36, 123
1, 31199, Note_on_c, 9, 36, 0
1, 31440, Note_on_c, 9, 36, 127
1, 31679, Note_on_c, 9, 36, 0
1, 31680, Note_on_c, 9, 36, 99
1, 31919, Note_on_c, 9, 36, 0
1, 31920, Note_on_c, 9, 36, 127
1, 32159, Note_on_c, 9, 36, 0
1, 32400, Note_on_c, 9, 36, 123
1, 32639, Note_on_c, 9, 36, 0
1, 32640, Note_on_c, 9, 36, 127
1, 32879, Note_on_c, 9, 36, 0
1, 32880, Note_on_c, 9, 36, 127
1, 33119, Note_on_c, 9, 36, 0
1, 33600, Note_on_c, 9, 36, 123
1, 33839, Note_on_c, 9, 36, 0
1, 33840, Note_on_c, 9, 36, 123
1, 34079, Note_on_c, 9, 36, 0
1, 34560, Note_on_c, 9, 36, 127
1, 34799, Note_on_c, 9, 36, 0
1, 34800, Note_on_c, 9, 36, 117
1, 35039, Note_on_c, 9, 36, 0
1, 35280, Note_on_c, 9, 36, 127
1, 35519, Note_on_c, 9, 36, 0
1, 35760, Note_on_c, 9, 36, 127
1, 35999, Note_on_c, 9, 36, 0
1, 36240, Note_on_c, 9, 36, 117
1, 36479, Note_on_c, 9, 36, 0
1, 36480, Note_on_c, 9, 36, 127
1, 36719, Note_on_c, 9, 36, 0
1, 36720, Note_on_c, 9, 36, 127
1, 36959, Note_on_c, 9, 36, 0
1, 37440, Note_on_c, 9, 36, 127
1, 37679, Note_on_c, 9, 36, 0
1, 37680, Note_on_c, 9, 36, 123
1, 37919, Note_on_c, 9, 36, 0
1, 38400, Note_on_c, 9, 36, 127
1, 38639, Note_on_c, 9, 36, 0
1, 38640, Note_on_c, 9, 36, 123
1, 38879, Note_on_c, 9, 36, 0
1, 39120, Note_on_c, 9, 36, 127
1, 39359, Note_on_c, 9, 36, 0
1, 39600, Note_on_c, 9, 36, 127
1, 39839, Note_on_c, 9, 36, 0
1, 40080, Note_on_c, 9, 36, 123
1, 40319, Note_on_c, 9, 36, 0
1, 40320, Note_on_c, 9, 36, 127
1, 40559, Note_on_c, 9, 36, 0
1, 40560, Note_on_c, 9, 36, 127
1, 40799, Note_on_c, 9, 36, 0
1, 41280, Note_on_c, 9, 36, 123
1, 41519, Note_on_c, 9, 36, 0
1, 41520, Note_on_c, 9, 36, 123
1, 41759, Note_on_c, 9, 36, 0
1, 42240, Note_on_c, 9, 36, 127
1, 42479, Note_on_c, 9, 36, 0
1, 42480, Note_on_c, 9, 36, 117
1, 42719, Note_on_c, 9, 36, 0
1, 42960, Note_on_c, 9, 36, 127
1, 43199, Note_on_c, 9, 36, 0
1, 43440, Note_on_c, 9, 36, 127
1, 43679, Note_on_c, 9, 36, 0
1, 43920, Note_on_c, 9, 36, 117
1, 44159, Note_on_c, 9, 36, 0
1, 44160, Note_on_c, 9, 36, 127
1, 44399, Note_on_c, 9, 36, 0
1, 44400, Note_on_c, 9, 36, 127
1, 44639, Note_on_c, 9, 36, 0
1, 45120, Note_on_c, 9, 36, 127
1, 45359, Note_on_c, 9, 36, 0
1, 45360, Note_on_c, 9, 36, 123
1, 45599, Note_on_c, 9, 36, 0
1, 46080, Note_on_c, 9, 36, 127
1, 46319, Note_on_c, 9, 36, 0
1, 46320, Note_on_c, 9, 36, 123
1, 46559, Note_on_c, 9, 36, 0
1, 46800, Note_on_c, 9, 36, 127
1, 47039, Note_on_c, 9, 36, 0
1, 47280, Note_on_c, 9, 36, 127
1, 47519, Note_on_c, 9, 36, 0
1, 47760, Note_on_c, 9, 36, 123
1, 47999, Note_on_c, 9, 36, 0
1, 48000, Note_on_c, 9, 36, 127
1, 48239, Note_on_c, 9, 36, 0
1, 48240, Note_on_c, 9, 36, 127
1, 48479, Note_on_c, 9, 36, 0
1, 48960, Note_on_c, 9, 36, 123
1, 49199, Note_on_c, 9, 36, 0
1, 49200, Note_on_c, 9, 36, 123
1, 49439, Note_on_c, 9, 36, 0
1, 49920, Note_on_c, 9, 36, 127
1, 50159, Note_on_c, 9, 36, 0
1, 50160, Note_on_c, 9, 36, 117
1, 50399, Note_on_c, 9, 36, 0
1, 50640, Note_on_c, 9, 36, 127
1, 50879, Note_on_c, 9, 36, 0
1, 51120, Note_on_c, 9, 36, 127
1, 51359, Note_on_c, 9, 36, 0
1, 51600, Note_on_c, 9, 36, 117
1, 51839, Note_on_c, 9, 36, 0
1, 51840, Note_on_c, 9, 36, 127
1, 52079, Note_on_c, 9, 36, 0
1, 52080, Note_on_c, 9, 36, 127
1, 52319, Note_on_c, 9, 36, 0
1, 52800, Note_on_c, 9, 36, 127
1, 53039, Note_on_c, 9, 36, 0
1, 53040, Note_on_c, 9, 36, 123
1, 53279, Note_on_c, 9, 36, 0
1, 53760, Note_on_c, 9, 36, 127
1, 53999, Note_on_c, 9, 36, 0
1, 54000, Note_on_c, 9, 36, 123
1, 54239, Note_on_c, 9, 36, 0
1, 54480, Note_on_c, 9, 36, 127
1, 54719, Note_on_c, 9, 36, 0
1, 54960, Note_on_c, 9, 36, 127
1, 55199, Note_on_c, 9, 36, 0
1, 55440, Note_on_c, 9, 36, 123
1, 55679, Note_on_c, 9, 36, 0
1, 55680, Note_on_c, 9, 36, 127
1, 55919, Note_on_c, 9, 36, 0
1, 55920, Note_on_c, 9, 36, 127
1, 56159, Note_on_c, 9, 36, 0
1, 56640, Note_on_c, 9, 36, 123
1, 56879, Note_on_c, 9, 36, 0
1, 56880, Note_on_c, 9, 36, 123
1, 57119, Note_on_c, 9, 36, 0
1, 57600, Note_on_c, 9, 36, 127
1, 57839, Note_on_c, 9, 36, 0
1, 57840, Note_on_c, 9, 36, 117
1, 58079, Note_on_c, 9, 36, 0
1, 58320, Note_on_c, 9, 36, 127
1, 58559, Note_on_c, 9, 36, 0
1, 58800, Note_on_c, 9, 36, 127
1, 59039, Note_on_c, 9, 36, 0
1, 59280, Note_on_c, 9, 36, 117
1, 59519, Note_on_c, 9, 36, 0
1, 59520, Note_on_c, 9, 36, 127
1, 59759, Note_on_c, 9, 36, 0
1, 59760, Note_on_c, 9, 36, 127
1, 59999, Note_on_c, 9, 36, 0
1, 60480, Note_on_c, 9, 36, 127
1, 60719, Note_on_c, 9, 36, 0
1, 60720, Note_on_c, 9, 36, 123
1, 60959, Note_on_c, 9, 36, 0
1, 61440, Note_on_c, 9, 36, 127
1, 61679, Note_on_c, 9, 36, 0
1, 61680, Note_on_c, 9, 36, 123
1, 61919, Note_on_c, 9, 36, 0
1, 62160, Note_on_c, 9, 36, 127
1, 62399, Note_on_c, 9, 36, 0
1, 62640, Note_on_c, 9, 36, 127
1, 62879, Note_on_c, 9, 36, 0
1, 63120, Note_on_c, 9, 36, 123
1, 63359, Note_on_c, 9, 36, 0
1, 63360, Note_on_c, 9, 36, 127
1, 63599, Note_on_c, 9, 36, 0
1, 63600, Note_on_c, 9, 36, 127
1, 63839, Note_on_c, 9, 36, 0
1, 64320, Note_on_c, 9, 36, 123
1, 64559, Note_on_c, 9, 36, 0
1, 64560, Note_on_c, 9, 36, 123
1, 64799, Note_on_c, 9, 36, 0
1, 65280, Note_on_c, 9, 36, 127
1, 65519, Note_on_c, 9, 36, 0
1, 65520, Note_on_c, 9, 36, 117
1, 65759, Note_on_c, 9, 36, 0
1, 66000, Note_on_c, 9, 36, 127
1, 66239, Note_on_c, 9, 36, 0
1, 66480, Note_on_c, 9, 36, 127
1, 66719, Note_on_c, 9, 36, 0
1, 66960, Note_on_c, 9, 36, 117
1, 67199, Note_on_c, 9, 36, 0
1, 67200, Note_on_c, 9, 36, 127
1, 67439, Note_on_c, 9, 36, 0
1, 67440, Note_on_c, 9, 36, 127
1, 67679, Note_on_c, 9, 36, 0
1, 68160, Note_on_c, 9, 36, 127
1, 68399, Note_on_c, 9, 36, 0
1, 68400, Note_on_c, 9, 36, 123
1, 68639, Note_on_c, 9, 36, 0
1, 69120, Note_on_c, 9, 36, 127
1, 69359, Note_on_c, 9, 36, 0
1, 69360, Note_on_c, 9, 36, 123
1, 69599, Note_on_c, 9, 36, 0
1, 69840, Note_on_c, 9, 36, 127
1, 70079, Note_on_c, 9, 36, 0
1, 70320, Note_on_c, 9, 36, 127
1, 70559, Note_on_c, 9, 36, 0
1, 70800, Note_on_c, 9, 36, 123
1, 71039, Note_on_c, 9, 36, 0
1, 71040, Note_on_c, 9, 36, 127
1, 71279, Note_on_c, 9, 36, 0
1, 71280, Note_on_c, 9, 36, 127
1, 71519, Note_on_c, 9, 36, 0
1, 72000, Note_on_c, 9, 36, 123
1, 72239, Note_on_c, 9, 36, 0
1, 72240, Note_on_c, 9, 36, 123
1, 72479, Note_on_c, 9, 36, 0
1, 72960, Note_on_c, 9, 36, 127
1, 73199, Note_on_c, 9, 36, 0
1, 73200, Note_on_c, 9, 36, 117
1, 73439, Note_on_c, 9, 36, 0
1, 73680, Note_on_c, 9, 36, 127
1, 73919, Note_on_c, 9, 36, 0
1, 74160, Note_on_c, 9, 36, 127
1, 74399, Note_on_c, 9, 36, 0
1, 74640, Note_on_c, 9, 36, 117
1, 74879, Note_on_c, 9, 36, 0
1, 74880, Note_on_c, 9, 36, 127
1, 75119, Note_on_c, 9, 36, 0
1, 75120, Note_on_c, 9, 36, 127
1, 75359, Note_on_c, 9, 36, 0
1, 75840, Note_on_c, 9, 36, 127
1, 76079, Note_on_c, 9, 36, 0
1, 76080, Note_on_c, 9, 36, 123
1, 76319, Note_on_c, 9, 36, 0
1, 76800, Note_on_c, 9, 36, 127
1, 77039, Note_on_c, 9, 36, 0
1, 77040, Note_on_c, 9, 36, 123
1, 77279, Note_on_c, 9, 36, 0
1, 77520, Note_on_c, 9, 36, 127
1, 77759, Note_on_c, 9, 36, 0
1, 78000, Note_on_c, 9, 36, 127
1, 78239, Note_on_c, 9, 36, 0
1, 78480, Note_on_c, 9, 36, 123
1, 78719, Note_on_c, 9, 36, 0
1, 78720, Note_on_c, 9, 36, 127
1, 78959, Note_on_c, 9, 36, 0
1, 78960, Note_on_c, 9, 36, 127
1, 79199, Note_on_c, 9, 36, 0
1, 79680, Note_on_c, 9, 36, 123
1, 79919, Note_on_c, 9, 36, 0
1, 79920, Note_on_c, 9, 36, 123
1, 80159, Note_on_c, 9, 36, 0
1, 80640, Note_on_c, 9, 36, 127
1, 80879, Note_on_c, 9, 36, 0
1, 80880, Note_on_c, 9, 36, 117
1, 81119, Note_on_c, 9, 36, 0
1, 81360, Note_on_c, 9, 36, 127
1, 81599, Note_on_c, 9, 36, 0
1, 81840, Note_on_c, 9, 36, 127
1, 82079, Note_on_c, 9, 36, 0
1, 82320, Note_on_c, 9, 36, 117
1, 82559, Note_on_c, 9, 36, 0
1, 82560, Note_on_c, 9, 36, 127
1, 82799, Note_on_c, 9, 36, 0
1, 82800, Note_on_c, 9, 36, 127
1, 83039, Note_on_c, 9, 36, 0
1, 83520, Note_on_c, 9, 36, 127
1, 83759, Note_on_c, 9, 36, 0
1, 83760, Note_on_c, 9, 36, 123
1, 83999, Note_on_c, 9, 36, 0
1, 84480, Note_on_c, 9, 36, 127
1, 84719, Note_on_c, 9, 36, 0
1, 84720, Note_on_c, 9, 36, 123
1, 84959, Note_on_c, 9, 36, 0
1, 85200, Note_on_c, 9, 36, 127
1, 85439, Note_on_c, 9, 36, 0
1, 85680, Note_on_c, 9, 36, 127
1, 85919, Note_on_c, 9, 36, 0
1, 86160, Note_on_c, 9, 36, 123
1, 86399, Note_on_c, 9, 36, 0
1, 86400, Note_on_c, 9, 36, 127
1, 86639, Note_on_c, 9, 36, 0
1, 86640, Note_on_c, 9, 36, 127
1, 86879, Note_on_c, 9, 36, 0
1, 87360, Note_on_c, 9, 36, 123
1, 87599, Note_on_c, 9, 36, 0
1, 87600, Note_on_c, 9, 36, 123
1, 87839, Note_on_c, 9, 36, 0
1, 88320, Note_on_c, 9, 36, 127
1, 88559, Note_on_c, 9, 36, 0
1, 88560, Note_on_c, 9, 36, 117
1, 88799, Note_on_c, 9, 36, 0
1, 89040, Note_on_c, 9, 36, 127
1, 89279, Note_on_c, 9, 36, 0
1, 89520, Note_on_c, 9, 36, 127
1, 89759, Note_on_c, 9, 36, 0
1, 90000, Note_on_c, 9, 36, 117
1, 90239, Note_on_c, 9, 36, 0
1, 90240, Note_on_c, 9, 36, 127
1, 90479, Note_on_c, 9, 36, 0
1, 90480, Note_on_c, 9, 36, 127
1, 90719, Note_on_c, 9, 36, 0
1, 91200, Note_on_c, 9, 36, 127
1, 91439, Note_on_c, 9, 36, 0
1, 91440, Note_on_c, 9, 36, 123
1, 91679, Note_on_c, 9, 36, 0
1, 92160, Note_on_c, 9, 36, 127
1, 92399, Note_on_c, 9, 36, 0
1, 92400, Note_on_c, 9, 36, 123
1, 92639, Note_on_c, 9, 36, 0
1, 92880, Note_on_c, 9, 36, 127
1, 93119, Note_on_c, 9, 36, 0
1, 93120, Note_on_c, 9, 36, 99
1, 93359, Note_on_c, 9, 36, 0
1, 93360, Note_on_c, 9, 36, 127
1, 93599, Note_on_c, 9, 36, 0
1, 93840, Note_on_c, 9, 36, 123
1, 94079, Note_on_c, 9, 36, 0
1, 94080, Note_on_c, 9, 36, 127
1, 94319, Note_on_c, 9, 36, 0
1, 94320, Note_on_c, 9, 36, 127
1, 94559, Note_on_c, 9, 36, 0
1, 95040, Note_on_c, 9, 36, 123
1, 95279, Note_on_c, 9, 36, 0
1, 95280, Note_on_c, 9, 36, 123
1, 95519, Note_on_c, 9, 36, 0
1, 96000, Note_on_c, 9, 36, 127
1, 96239, Note_on_c, 9, 36, 0
1, 96240, Note_on_c, 9, 36, 117
1, 96479, Note_on_c, 9, 36, 0
1, 96720, Note_on_c, 9, 36, 127
1, 96959, Note_on_c, 9, 36, 0
1, 97200, Note_on_c, 9, 36, 127
1, 97439, Note_on_c, 9, 36, 0
1, 97680, Note_on_c, 9, 36, 117
1, 97919, Note_on_c, 9, 36, 0
1, 97920, Note_on_c, 9, 36, 127
1, 98159, Note_on_c, 9, 36, 0
1, 98160, Note_on_c, 9, 36, 127
1, 98399, Note_on_c, 9, 36, 0
1, 98880, Note_on_c, 9, 36, 127
1, 99119, Note_on_c, 9, 36, 0
1, 99120, Note_on_c, 9, 36, 123
1, 99359, Note_on_c, 9, 36, 0
1, 99840, Note_on_c, 9, 36, 127
1, 100079, Note_on_c, 9, 36, 0
1, 100080, Note_on_c, 9, 36, 123
1, 100319, Note_on_c, 9, 36, 0
1, 100560, Note_on_c, 9, 36, 127
1, 100799, Note_on_c, 9, 36, 0
1, 101040, Note_on_c, 9, 36, 127
1, 101279, Note_on_c, 9, 36, 0
1, 101520, Note_on_c, 9, 36, 123
1, 101759, Note_on_c, 9, 36, 0
1, 101760, Note_on_c, 9, 36, 127
1, 101999, Note_on_c, 9, 36, 0
1, 102000, Note_on_c, 9, 36, 127
1, 102239, Note_on_c, 9, 36, 0
1, 102720, Note_on_c, 9, 36, 123
1, 102959, Note_on_c, 9, 36, 0
1, 102960, Note_on_c, 9, 36, 123
1, 103199, Note_on_c, 9, 36, 0
1, 103680, Note_on_c, 9, 36, 127
1, 103919, Note_on_c, 9, 36, 0
1, 103920, Note_on_c, 9, 36, 117
1, 104159, Note_on_c, 9, 36, 0
1, 104400, Note_on_c, 9, 36, 127
1, 104639, Note_on_c, 9, 36, 0
1, 104880, Note_on_c, 9, 36, 127
1, 105119, Note_on_c, 9, 36, 0
1, 105360, Note_on_c, 9, 36, 117
1, 105599, Note_on_c, 9, 36, 0
1, 105600, Note_on_c, 9, 36, 127
1, 105839, Note_on_c, 9, 36, 0
1, 105840, Note_on_c, 9, 36, 127
1, 106079, Note_on_c, 9, 36, 0
1, 106560, Note_on_c, 9, 36, 127
1, 106799, Note_on_c, 9, 36, 0
1, 106800, Note_on_c, 9, 36, 123
1, 107039, Note_on_c, 9, 36, 0
1, 108240, Note_on_c, 9, 36, 127
1, 108479, Note_on_c, 9, 36, 0
1, 108720, Note_on_c, 9, 36, 127
1, 108959, Note_on_c, 9, 36, 0
1, 108960, Note_on_c, 9, 36, 127
1, 109439, Note_on_c, 9, 36, 0
1, 109440, Time_signature, 2, 2, 24, 8
1, 110400, Time_signature, 4, 2, 24, 8
1, 110400, Note_on_c, 9, 36, 127
1, 110639, Note_on_c, 9, 36, 0
1, 110640, Note_on_c, 9, 36, 127
1, 110879, Note_on_c, 9, 36, 0
1, 111360, Note_on_c, 9, 36, 123
1, 111599, Note_on_c, 9, 36, 0
1, 111600, Note_on_c, 9, 36, 123
1, 111839, Note_on_c, 9, 36, 0
1, 112320, Note_on_c, 9, 36, 127
1, 112559, Note_on_c, 9, 36, 0
1, 112560, Note_on_c, 9, 36, 117
1, 112799, Note_on_c, 9, 36, 0
1, 113040, Note_on_c, 9, 36, 127
1, 113279, Note_on_c, 9, 36, 0
1, 113520, Note_on_c, 9, 36, 127
1, 113759, Note_on_c, 9, 36, 0
1, 114000, Note_on_c, 9, 36, 117
1, 114239, Note_on_c, 9, 36, 0
1, 114240, Note_on_c, 9, 36, 127
1, 114479, Note_on_c, 9, 36, 0
1, 114480, Note_on_c, 9, 36, 127
1, 114719, Note_on_c, 9, 36, 0
1, 115200, Note_on_c, 9, 36, 127
1, 115439, Note_on_c, 9, 36, 0
1, 115440, Note_on_c, 9, 36, 123
1, 115679, Note_on_c, 9, 36, 0
1, 116160, Note_on_c, 9, 36, 127
1, 116399, Note_on_c, 9, 36, 0
1, 116400, Note_on_c, 9, 36, 123
1, 116639, Note_on_c, 9, 36, 0
1, 116880, Note_on_c, 9, 36, 127
1, 117119, Note_on_c, 9, 36, 0
1, 117360, Note_on_c, 9, 36, 127
1, 117599, Note_on_c, 9, 36, 0
1, 117840, Note_on_c, 9, 36, 123
1, 118079, Note_on_c, 9, 36, 0
1, 118080, Note_on_c, 9, 36, 127
1, 118319, Note_on_c, 9, 36, 0
1, 118320, Note_on_c, 9, 36, 127
1, 118559, Note_on_c, 9, 36, 0
1, 119040, Note_on_c, 9, 36, 123
1, 119279, Note_on_c, 9, 36, 0
1, 119280, Note_on_c, 9, 36, 123
1, 119519, Note_on_c, 9, 36, 0
1, 120000, Note_on_c, 9, 36, 127
1, 120239, Note_on_c, 9, 36, 0
1, 120240, Note_on_c, 9, 36, 117
1, 120479, Note_on_c, 9, 36, 0
1, 120720, Note_on_c, 9, 36, 127
1, 120959, Note_on_c, 9, 36, 0
1, 121200, Note_on_c, 9, 36, 127
1, 121439, Note_on_c, 9, 36, 0
1, 121680, Note_on_c, 9, 36, 117
1, 121919, Note_on_c, 9, 36, 0
1, 121920, Note_on_c, 9, 36, 127
1, 122159, Note_on_c, 9, 36, 0
1, 122160, Note_on_c, 9, 36, 127
1, 122399, Note_on_c, 9, 36, 0
1, 122880, Note_on_c, 9, 36, 127
1, 123119, Note_on_c, 9, 36, 0
1, 123120, Note_on_c, 9, 36, 123
1, 123359, Note_on_c, 9, 36, 0
1, 123840, Note_on_c, 9, 36, 127
1, 124079, Note_on_c, 9, 36, 0
1, 124080, Note_on_c, 9, 36, 123
1, 124319, Note_on_c, 9, 36, 0
1, 124560, Note_on_c, 9, 36, 127
1, 124799, Note_on_c, 9, 36, 0
1, 124800, Note_on_c, 9, 36, 99
1, 125039, Note_on_c, 9, 36, 0
1, 125040, Note_on_c, 9, 36, 127
1, 125279, Note_on_c, 9, 36, 0
1, 125520, Note_on_c, 9, 36, 123
1, 125759, Note_on_c, 9, 36, 0
1, 125760, Note_on_c, 9, 36, 127
1, 125999, Note_on_c, 9, 36, 0
1, 126000, Note_on_c, 9, 36, 127
1, 126239, Note_on_c, 9, 36, 0
1, 126720, Note_on_c, 9, 36, 123
1, 126959, Note_on_c, 9, 36, 0
1, 126960, Note_on_c, 9, 36, 123
1, 127199, Note_on_c, 9, 36, 0
1, 127680, Note_on_c, 9, 36, 127
1, 127919, Note_on_c, 9, 36, 0
1, 127920, Note_on_c, 9, 36, 117
1, 128159, Note_on_c, 9, 36, 0
1, 128400, Note_on_c, 9, 36, 127
1, 128639, Note_on_c, 9, 36, 0
1, 128880, Note_on_c, 9, 36, 127
1, 129119, Note_on_c, 9, 36, 0
1, 129360, Note_on_c, 9, 36, 117
1, 129599, Note_on_c, 9, 36, 0
1, 129600, Note_on_c, 9, 36, 127
1, 129839, Note_on_c, 9, 36, 0
1, 129840, Note_on_c, 9, 36, 127
1, 130079, Note_on_c, 9, 36, 0
1, 130560, Note_on_c, 9, 36, 127
1, 130799, Note_on_c, 9, 36, 0
1, 130800, Note_on_c, 9, 36, 123
1, 131039, Note_on_c, 9, 36, 0
1, 131520, Note_on_c, 9, 36, 127
1, 131759, Note_on_c, 9, 36, 0
1, 131760, Note_on_c, 9, 36, 123
1, 131999, Note_on_c, 9, 36, 0
1, 132240, Note_on_c, 9, 36, 127
1, 132479, Note_on_c, 9, 36, 0
1, 132720, Note_on_c, 9, 36, 127
1, 132959, Note_on_c, 9, 36, 0
1, 133200, Note_on_c, 9, 36, 123
1, 133439, Note_on_c, 9, 36, 0
1, 133440, Note_on_c, 9, 36, 127
1, 133679, Note_on_c, 9, 36, 0
1, 133680, Note_on_c, 9, 36, 127
1, 133919, Note_on_c, 9, 36, 0
1, 134400, Note_on_c, 9, 36, 123
1, 134639, Note_on_c, 9, 36, 0
1, 134640, Note_on_c, 9, 36, 123
1, 134879, Note_on_c, 9, 36, 0
1, 135360, Note_on_c, 9, 36, 127
1, 135599, Note_on_c, 9, 36, 0
1, 135600, Note_on_c, 9, 36, 117
1, 135839, Note_on_c, 9, 36, 0
1, 136080, Note_on_c, 9, 36, 127
1, 136319, Note_on_c, 9, 36, 0
1, 136560, Note_on_c, 9, 36, 127
1, 136799, Note_on_c, 9, 36, 0
1, 137040, Note_on_c, 9, 36, 117
1, 137279, Note_on_c, 9, 36, 0
1, 137280, Note_on_c, 9, 36, 127
1, 137519, Note_on_c, 9, 36, 0
1, 137520, Note_on_c, 9, 36, 127
1, 137759, Note_on_c, 9, 36, 0
1, 138240, Note_on_c, 9, 36, 127
1, 138479, Note_on_c, 9, 36, 0
1, 138480, Note_on_c, 9, 36, 123
1, 138719, Note_on_c, 9, 36, 0
1, 139200, Note_on_c, 9, 36, 127
1, 139439, Note_on_c, 9, 36, 0
1, 139440, Note_on_c, 9, 36, 123
1, 139679, Note_on_c, 9, 36, 0
1, 139920, Note_on_c, 9, 36, 127
1, 140159, Note_on_c, 9, 36, 0
1, 140400, Note_on_c, 9, 36, 127
1, 140639, Note_on_c, 9, 36, 0
1, 140880, Note_on_c, 9, 36, 123
1, 141119, Note_on_c, 9, 36, 0
1, 141120, Note_on_c, 9, 36, 127
1, 141359, Note_on_c, 9, 36, 0
1, 141360, Note_on_c, 9, 36, 127
1, 141599, Note_on_c, 9, 36, 0
1, 142080, Note_on_c, 9, 36, 123
1, 142319, Note_on_c, 9, 36, 0
1, 142320, Note_on_c, 9, 36, 123
1, 142559, Note_on_c, 9, 36, 0
1, 143040, Note_on_c, 9, 36, 127
1, 143279, Note_on_c, 9, 36, 0
1, 143280, Note_on_c, 9, 36, 117
1, 143519, Note_on_c, 9, 36, 0
1, 143760, Note_on_c, 9, 36, 127
1, 143999, Note_on_c, 9, 36, 0
1, 144240, Note_on_c, 9, 36, 127
1, 144479, Note_on_c, 9, 36, 0
1, 144720, Note_on_c, 9, 36, 117
1, 144959, Note_on_c, 9, 36, 0
1, 144960, Note_on_c, 9, 36, 127
1, 145199, Note_on_c, 9, 36, 0
1, 145200, Note_on_c, 9, 36, 127
1, 145439, Note_on_c, 9, 36, 0
1, 145920, Note_on_c, 9, 36, 127
1, 146159, Note_on_c, 9, 36, 0
1, 146160, Note_on_c, 9, 36, 123
1, 146399, Note_on_c, 9, 36, 0
1, 146880, Note_on_c, 9, 36, 127
1, 147119, Note_on_c, 9, 36, 0
1, 147120, Note_on_c, 9, 36, 123
1, 147359, Note_on_c, 9, 36, 0
1, 147600, Note_on_c, 9, 36, 127
1, 147839, Note_on_c, 9, 36, 0
1, 148080, Note_on_c, 9, 36, 127
1, 148319, Note_on_c, 9, 36, 0
1, 148560, Note_on_c, 9, 36, 123
1, 148799, Note_on_c, 9, 36, 0
1, 148800, Note_on_c, 9, 36, 127
1, 149039, Note_on_c, 9, 36, 0
1, 149040, Note_on_c, 9, 36, 127
1, 149279, Note_on_c, 9, 36, 0
1, 149760, Note_on_c, 9, 36, 123
1, 149999, Note_on_c, 9, 36, 0
1, 150000, Note_on_c, 9, 36, 123
1, 150239, Note_on_c, 9, 36, 0
1, 150720, Note_on_c, 9, 36, 127
1, 150959, Note_on_c, 9, 36, 0
1, 150960, Note_on_c, 9, 36, 117
1, 151199, Note_on_c, 9, 36, 0
1, 151440, Note_on_c, 9, 36, 127
1, 151679, Note_on_c, 9, 36, 0
1, 151920, Note_on_c, 9, 36, 127
1, 152159, Note_on_c, 9, 36, 0
1, 152400, Note_on_c, 9, 36, 117
1, 152639, Note_on_c, 9, 36, 0
1, 152640, Note_on_c, 9, 36, 127
1, 152879, Note_on_c, 9, 36, 0
1, 152880, Note_on_c, 9, 36, 127
1, 153119, Note_on_c, 9, 36, 0
1, 153600, Note_on_c, 9, 36, 127
1, 153839, Note_on_c, 9, 36, 0
1, 153840, Note_on_c, 9, 36, 123
1, 154079, Note_on_c, 9, 36, 0
1, 154560, Note_on_c, 9, 36, 127
1, 154799, Note_on_c, 9, 36, 0
1, 154800, Note_on_c, 9, 36, 123
1, 155039, Note_on_c, 9, 36, 0
1, 155280, Note_on_c, 9, 36, 127
1, 155519, Note_on_c, 9, 36, 0
1, 155760, Note_on_c, 9, 36, 127
1, 155999, Note_on_c, 9, 36, 0
1, 156240, Note_on_c, 9, 36, 123
1, 156479, Note_on_c, 9, 36, 0
1, 156480, Note_on_c, 9, 36, 127
1, 156719, Note_on_c, 9, 36, 0
1, 156720, Note_on_c, 9, 36, 127
1, 156959, Note_on_c, 9, 36, 0
1, 157440, Note_on_c, 9, 36, 123
1, 157679, Note_on_c, 9, 36, 0
1, 157680, Note_on_c, 9, 36, 123
1, 157919, Note_on_c, 9, 36, 0
1, 158400, Note_on_c, 9, 36, 127
1, 158639, Note_on_c, 9, 36, 0
1, 158640, Note_on_c, 9, 36, 117
1, 158879, Note_on_c, 9, 36, 0
1, 159120, Note_on_c, 9, 36, 127
1, 159359, Note_on_c, 9, 36, 0
1, 159600, Note_on_c, 9, 36, 127
1, 159839, Note_on_c, 9, 36, 0
1, 160080, Note_on_c, 9, 36, 117
1, 160319, Note_on_c, 9, 36, 0
1, 160320, Note_on_c, 9, 36, 127
1, 160559, Note_on_c, 9, 36, 0
1, 160560, Note_on_c, 9, 36, 127
1, 160799, Note_on_c, 9, 36, 0
1, 161280, Note_on_c, 9, 36, 127
1, 161519, Note_on_c, 9, 36, 0
1, 161520, Note_on_c, 9, 36, 123
1, 161759, Note_on_c, 9, 36, 0
1, 162240, Note_on_c, 9, 36, 127
1, 162479, Note_on_c, 9, 36, 0
1, 162480, Note_on_c, 9, 36, 123
1, 162719, Note_on_c, 9, 36, 0
1, 162960, Note_on_c, 9, 36, 127
1, 163199, Note_on_c, 9, 36, 0
1, 163440, Note_on_c, 9, 36, 127
1, 163679, Note_on_c, 9, 36, 0
1, 163920, Note_on_c, 9, 36, 123
1, 164159, Note_on_c, 9, 36, 0
1, 164160, Note_on_c, 9, 36, 127
1, 164399, Note_on_c, 9, 36, 0
1, 164400, Note_on_c, 9, 36, 127
1, 164639, Note_on_c, 9, 36, 0
1, 165120, Note_on_c, 9, 36, 123
1, 165359, Note_on_c, 9, 36, 0
1, 165360, Note_on_c, 9, 36, 123
1, 165599, Note_on_c, 9, 36, 0
1, 166080, Note_on_c, 9, 36, 127
1, 166319, Note_on_c, 9, 36, 0
1, 166320, Note_on_c, 9, 36, 117
1, 166559, Note_on_c, 9, 36, 0
1, 166800, Note_on_c, 9, 36, 127
1, 167039, Note_on_c, 9, 36, 0
1, 167280, Note_on_c, 9, 36, 127
1, 167519, Note_on_c, 9, 36, 0
1, 167760, Note_on_c, 9, 36, 117
1, 167999, Note_on_c, 9, 36, 0
1, 168000, Note_on_c, 9, 36, 127
1, 168239, Note_on_c, 9, 36, 0
1, 168240, Note_on_c, 9, 36, 127
1, 168479, Note_on_c, 9, 36, 0
1, 168960, Note_on_c, 9, 36, 127
1, 169199, Note_on_c, 9, 36, 0
1, 169200, Note_on_c, 9, 36, 123
1, 169439, Note_on_c, 9, 36, 0
1, 169920, Note_on_c, 9, 36, 127
1, 170159, Note_on_c, 9, 36, 0
1, 170160, Note_on_c, 9, 36, 123
1, 170399, Note_on_c, 9, 36, 0
1, 170640, Note_on_c, 9, 36, 127
1, 170879, Note_on_c, 9, 36, 0
1, 170880, Note_on_c, 9, 36, 99
1, 171119, Note_on_c, 9, 36, 0
1, 171120, Note_on_c, 9, 36, 127
1, 171359, Note_on_c, 9, 36, 0
1, 171600, Note_on_c, 9, 36, 123
1, 171839, Note_on_c, 9, 36, 0
1, 171840, Note_on_c, 9, 36, 127
1, 172079, Note_on_c, 9, 36, 0
1, 172080, Note_on_c, 9, 36, 127
1, 172319, Note_on_c, 9, 36, 0
1, 172800, Note_on_c, 9, 36, 123
1, 173039, Note_on_c, 9, 36, 0
1, 173040, Note_on_c, 9, 36, 123
1, 173279, Note_on_c, 9, 36, 0
1, 173760, Note_on_c, 9, 36, 127
1, 173999, Note_on_c, 9, 36, 0
1, 174000, Note_on_c, 9, 36, 117
1, 174239, Note_on_c, 9, 36, 0
1, 174480, Note_on_c, 9, 36, 127
1, 174719, Note_on_c, 9, 36, 0
1, 174960, Note_on_c, 9, 36, 127
1, 175199, Note_on_c, 9, 36, 0
1, 175440, Note_on_c, 9, 36, 117
1, 175679, Note_on_c, 9, 36, 0
1, 175680, Note_on_c, 9, 36, 127
1, 175919, Note_on_c, 9, 36, 0
1, 175920, Note_on_c, 9, 36, 127
1, 176159, Note_on_c, 9, 36, 0
1, 176640, Note_on_c, 9, 36, 127
1, 176879, Note_on_c, 9, 36, 0
1, 176880, Note_on_c, 9, 36, 123
1, 177119, Note_on_c, 9, 36, 0
1, 177600, Note_on_c, 9, 36, 127
1, 177839, Note_on_c, 9, 36, 0
1, 177840, Note_on_c, 9, 36, 123
1, 178079, Note_on_c, 9, 36, 0
1, 178320, Note_on_c, 9, 36, 127
1, 178559, Note_on_c, 9, 36, 0
1, 178800, Note_on_c, 9, 36, 127
1, 179039, Note_on_c, 9, 36, 0
1, 179280, Note_on_c, 9, 36, 123
1, 179519, Note_on_c, 9, 36, 0
1, 179520, Note_on_c, 9, 36, 127
1, 179759, Note_on_c, 9, 36, 0
1, 179760, Note_on_c, 9, 36, 127
1, 179999, Note_on_c, 9, 36, 0
1, 180480, Note_on_c, 9, 36, 123
1, 180719, Note_on_c, 9, 36, 0
1, 180720, Note_on_c, 9, 36, 123
1, 180959, Note_on_c, 9, 36, 0
1, 181440, Note_on_c, 9, 36, 127
1, 181679, Note_on_c, 9, 36, 0
1, 181680, Note_on_c, 9, 36, 117
1, 181919, Note_on_c, 9, 36, 0
1, 182160, Note_on_c, 9, 36, 127
1, 182399, Note_on_c, 9, 36, 0
1, 182640, Note_on_c, 9, 36, 127
1, 182879, Note_on_c, 9, 36, 0
1, 183120, Note_on_c, 9, 36, 117
1, 183359, Note_on_c, 9, 36, 0
1, 183360, Note_on_c, 9, 36, 127
1, 183599, Note_on_c, 9, 36, 0
1, 183600, Note_on_c, 9, 36, 127
1, 183839, Note_on_c, 9, 36, 0
1, 184320, Note_on_c, 9, 36, 127
1, 184559, Note_on_c, 9, 36, 0
1, 184560, Note_on_c, 9, 36, 123
1, 184799, Note_on_c, 9, 36, 0
1, 185280, Note_on_c, 9, 36, 127
1, 185519, Note_on_c, 9, 36, 0
1, 185520, Note_on_c, 9, 36, 123
1, 185759, Note_on_c, 9, 36, 0
1, 186000, Note_on_c, 9, 36, 127
1, 186239, Note_on_c, 9, 36, 0
1, 186240, Note_on_c, 9, 36, 99
1, 186479, Note_on_c, 9, 36, 0
1, 186480, Note_on_c, 9, 36, 127
1, 186719, Note_on_c, 9, 36, 0
1, 186960, Note_on_c, 9, 36, 123
1, 187199, Note_on_c, 9, 36, 0
1, 187200, Note_on_c, 9, 36, 127
1, 187439, Note_on_c, 9, 36, 0
1, 187440, Note_on_c, 9, 36, 127
1, 187679, Note_on_c, 9, 36, 0
1, 188160, Note_on_c, 9, 36, 123
1, 188399, Note_on_c, 9, 36, 0
1, 188400, Note_on_c, 9, 36, 123
1, 188639, Note_on_c, 9, 36, 0
1, 189120, Note_on_c, 9, 36, 127
1, 189359, Note_on_c, 9, 36, 0
1, 189360, Note_on_c, 9, 36, 117
1, 189599, Note_on_c, 9, 36, 0
1, 189840, Note_on_c, 9, 36, 127
1, 190079, Note_on_c, 9, 36, 0
1, 190320, Note_on_c, 9, 36, 127
1, 190559, Note_on_c, 9, 36, 0
1, 190800, Note_on_c, 9, 36, 117
1, 191039, Note_on_c, 9, 36, 0
1, 191040, Note_on_c, 9, 36, 127
1, 191279, Note_on_c, 9, 36, 0
1, 191280, Note_on_c, 9, 36, 127
1, 191519, Note_on_c, 9, 36, 0
1, 192000, Note_on_c, 9, 36, 127
1, 192239, Note_on_c, 9, 36, 0
1, 192240, Note_on_c, 9, 36, 123
1, 192479, Note_on_c, 9, 36, 0
1, 192960, Note_on_c, 9, 36, 127
1, 193199, Note_on_c, 9, 36, 0
1, 193200, Note_on_c, 9, 36, 123
1, 193439, Note_on_c, 9, 36, 0
1, 193680, Note_on_c, 9, 36, 127
1, 193919, Note_on_c, 9, 36, 0
1, 194160, Note_on_c, 9, 36, 127
1, 194399, Note_on_c, 9, 36, 0
1, 194640, Note_on_c, 9, 36, 123
1, 194879, Note_on_c, 9, 36, 0
1, 194880, Note_on_c, 9, 36, 127
1, 195119, Note_on_c, 9, 36, 0
1, 195120, Note_on_c, 9, 36, 127
1, 195359, Note_on_c, 9, 36, 0
1, 195840, Note_on_c, 9, 36, 123
1, 196079, Note_on_c, 9, 36, 0
1, 196080, Note_on_c, 9, 36, 123
1, 196319, Note_on_c, 9, 36, 0
1, 196800, Note_on_c, 9, 36, 127
1, 197039, Note_on_c, 9, 36, 0
1, 197040, Note_on_c, 9, 36, 117
1, 197279, Note_on_c, 9, 36, 0
1, 197520, Note_on_c, 9, 36, 127
1, 197759, Note_on_c, 9, 36, 0
1, 198000, Note_on_c, 9, 36, 127
1, 198239, Note_on_c, 9, 36, 0
1, 198480, Note_on_c, 9, 36, 117
1, 198719, Note_on_c, 9, 36, 0
1, 198720, Note_on_c, 9, 36, 127
1, 198959, Note_on_c, 9, 36, 0
1, 198960, Note_on_c, 9, 36, 127
1, 199199, Note_on_c, 9, 36, 0
1, 199680, Note_on_c, 9, 36, 127
1, 199919, Note_on_c, 9, 36, 0
1, 199920, Note_on_c, 9, 36, 123
1, 200159, Note_on_c, 9, 36, 0
1, 201360, Note_on_c, 9, 36, 127
1, 201599, Note_on_c, 9, 36, 0
1, 201840, Note_on_c, 9, 36, 127
1, 202079, Note_on_c, 9, 36, 0
1, 202080, Note_on_c, 9, 36, 127
1, 202559, Note_on_c, 9, 36, 0
1, 203520, Note_on_c, 9, 36, 127
1, 203999, Note_on_c, 9, 36, 0
1, 204000, End_track
2, 0, Start_track
2, 0, Key_signature, 0, "major"
2, 0, Control_c, 9, 121, 0
2, 0, Program_c, 9, 0
2, 0, Control_c, 9, 7, 127
2, 0, Control_c, 9, 10, 64
2, 0, Control_c, 9, 91, 0
2, 0, Control_c, 9, 93, 0
2, 0, MIDI_port, 0
2, 16320, Note_on_c, 9, 40, 127
2, 16439, Note_on_c, 9, 40, 0
2, 16440, Note_on_c, 9, 40, 127
2, 16559, Note_on_c, 9, 40, 0
2, 16560, Note_on_c, 9, 40, 127
2, 16679, Note_on_c, 9, 40, 0
2, 16680, Note_on_c, 9, 40, 127
2, 16799, Note_on_c, 9, 40, 0
2, 16800, Note_on_c, 9, 40, 127
2, 16919, Note_on_c, 9, 40, 0
2, 16920, Note_on_c, 9, 40, 127
2, 17039, Note_on_c, 9, 40, 0
2, 17040, Note_on_c, 9, 40, 127
2, 17159, Note_on_c, 9, 40, 0
2, 17160, Note_on_c, 9, 40, 127
2, 17279, Note_on_c, 9, 40, 0
2, 17760, Note_on_c, 9, 40, 127
2, 18239, Note_on_c, 9, 40, 0
2, 18720, Note_on_c, 9, 40, 127
2, 19199, Note_on_c, 9, 40, 0
2, 19680, Note_on_c, 9, 40, 127
2, 20159, Note_on_c, 9, 40, 0
2, 20640, Note_on_c, 9, 40, 127
2, 21119, Note_on_c, 9, 40, 0
2, 21600, Note_on_c, 9, 40, 127
2, 22079, Note_on_c, 9, 40, 0
2, 22560, Note_on_c, 9, 40, 127
2, 23039, Note_on_c, 9, 40, 0
2, 23520, Note_on_c, 9, 40, 127
2, 23999, Note_on_c, 9, 40, 0
2, 24480, Note_on_c, 9, 40, 127
2, 24959, Note_on_c, 9, 40, 0
2, 25440, Note_on_c, 9, 40, 127
2, 25919, Note_on_c, 9, 40, 0
2, 26400, Note_on_c, 9, 40, 127
2, 26879, Note_on_c, 9, 40, 0
2, 27360, Note_on_c, 9, 40, 127
2, 27839, Note_on_c, 9, 40, 0
2, 28320, Note_on_c, 9, 40, 127
2, 28799, Note_on_c, 9, 40, 0
2, 29280, Note_on_c, 9, 40, 127
2, 29759, Note_on_c, 9, 40, 0
2, 30240, Note_on_c, 9, 40, 127
2, 30719, Note_on_c, 9, 40, 0
2, 31200, Note_on_c, 9, 40, 127
2, 31559, Note_on_c, 9, 40, 0
2, 31560, Note_on_c, 9, 40, 127
2, 31679, Note_on_c, 9, 40, 0
2, 31920, Note_on_c, 9, 40, 127
2, 32039, Note_on_c, 9, 40, 0
2, 32040, Note_on_c, 9, 40, 127
2, 32159, Note_on_c, 9, 40, 0
2, 32160, Note_on_c, 9, 40, 127
2, 32279, Note_on_c, 9, 40, 0
2, 32280, Note_on_c, 9, 40, 127
2, 32399, Note_on_c, 9, 40, 0
2, 32400, Note_on_c, 9, 40, 127
2, 32519, Note_on_c, 9, 40, 0
2, 32520, Note_on_c, 9, 40, 127
2, 32639, Note_on_c, 9, 40, 0
2, 33120, Note_on_c, 9, 40, 127
2, 33599, Note_on_c, 9, 40, 0
2, 34080, Note_on_c, 9, 40, 127
2, 34559, Note_on_c, 9, 40, 0
2, 35040, Note_on_c, 9, 40, 127
2, 35519, Note_on_c, 9, 40, 0
2, 36000, Note_on_c, 9, 40, 127
2, 36479, Note_on_c, 9, 40, 0
2, 36960, Note_on_c, 9, 40, 127
2, 37439, Note_on_c, 9, 40, 0
2, 37920, Note_on_c, 9, 40, 127
2, 38399, Note_on_c, 9, 40, 0
2, 38880, Note_on_c, 9, 40, 127
2, 39359, Note_on_c, 9, 40, 0
2, 39840, Note_on_c, 9, 40, 127
2, 40319, Note_on_c, 9, 40, 0
2, 40800, Note_on_c, 9, 40, 127
2, 41279, Note_on_c, 9, 40, 0
2, 41760, Note_on_c, 9, 40, 127
2, 42239, Note_on_c, 9, 40, 0
2, 42720, Note_on_c, 9, 40, 127
2, 43199, Note_on_c, 9, 40, 0
2, 43680, Note_on_c, 9, 40, 127
2, 44159, Note_on_c, 9, 40, 0
2, 44640, Note_on_c, 9, 40, 127
2, 45119, Note_on_c, 9, 40, 0
2, 45600, Note_on_c, 9, 40, 127
2, 46079, Note_on_c, 9, 40, 0
2, 46560, Note_on_c, 9, 40, 127
2, 47039, Note_on_c, 9, 40, 0
2, 47040, Note_on_c, 9, 40, 127
2, 47159, Note_on_c, 9, 40, 0
2, 47160, Note_on_c, 9, 40, 127
2, 47279, Note_on_c, 9, 40, 0
2, 47280, Note_on_c, 9, 40, 127
2, 47399, Note_on_c, 9, 40, 0
2, 47400, Note_on_c, 9, 40, 127
2, 47519, Note_on_c, 9, 40, 0
2, 47520, Note_on_c, 9, 40, 127
2, 47639, Note_on_c, 9, 40, 0
2, 47640, Note_on_c, 9, 40, 127
2, 47759, Note_on_c, 9, 40, 0
2, 47760, Note_on_c, 9, 40, 127
2, 47879, Note_on_c, 9, 40, 0
2, 47880, Note_on_c, 9, 40, 127
2, 47999, Note_on_c, 9, 40, 0
2, 48480, Note_on_c, 9, 40, 127
2, 48959, Note_on_c, 9, 40, 0
2, 49440, Note_on_c, 9, 40, 127
2, 49919, Note_on_c, 9, 40, 0
2, 50400, Note_on_c, 9, 40, 127
2, 50879, Note_on_c, 9, 40, 0
2, 51360, Note_on_c, 9, 40, 127
2, 51839, Note_on_c, 9, 40, 0
2, 52320, Note_on_c, 9, 40, 127
2, 52799, Note_on_c, 9, 40, 0
2, 53280, Note_on_c, 9, 40, 127
2, 53759, Note_on_c, 9, 40, 0
2, 54240, Note_on_c, 9, 40, 127
2, 54719, Note_on_c, 9, 40, 0
2, 55200, Note_on_c, 9, 40, 127
2, 55679, Note_on_c, 9, 40, 0
2, 56160, Note_on_c, 9, 40, 127
2, 56639, Note_on_c, 9, 40, 0
2, 57120, Note_on_c, 9, 40, 127
2, 57599, Note_on_c, 9, 40, 0
2, 58080, Note_on_c, 9, 40, 127
2, 58559, Note_on_c, 9, 40, 0
2, 59040, Note_on_c, 9, 40, 127
2, 59519, Note_on_c, 9, 40, 0
2, 60000, Note_on_c, 9, 40, 127
2, 60479, Note_on_c, 9, 40, 0
2, 60960, Note_on_c, 9, 40, 127
2, 61439, Note_on_c, 9, 40, 0
2, 61920, Note_on_c, 9, 40, 127
2, 62399, Note_on_c, 9, 40, 0
2, 62880, Note_on_c, 9, 40, 127
2, 63119, Note_on_c, 9, 40, 0
2, 63120, Note_on_c, 9, 40, 127
2, 63239, Note_on_c, 9, 40, 0
2, 63240, Note_on_c, 9, 40, 127
2, 63359, Note_on_c, 9, 40, 0
2, 63840, Note_on_c, 9, 40, 127
2, 64319, Note_on_c, 9, 40, 0
2, 64800, Note_on_c, 9, 40, 127
2, 65279, Note_on_c, 9, 40, 0
2, 65760, Note_on_c, 9, 40, 127
2, 66239, Note_on_c, 9, 40, 0
2, 66720, Note_on_c, 9, 40, 127
2, 67199, Note_on_c, 9, 40, 0
2, 67680, Note_on_c, 9, 40, 127
2, 68159, Note_on_c, 9, 40, 0
2, 68640, Note_on_c, 9, 40, 127
2, 69119, Note_on_c, 9, 40, 0
2, 69600, Note_on_c, 9, 40, 127
2, 70079, Note_on_c, 9, 40, 0
2, 70560, Note_on_c, 9, 40, 127
2, 71039, Note_on_c, 9, 40, 0
2, 71520, Note_on_c, 9, 40, 127
2, 71999, Note_on_c, 9, 40, 0
2, 72480, Note_on_c, 9, 40, 127
2, 72959, Note_on_c, 9, 40, 0
2, 73440, Note_on_c, 9, 40, 127
2, 73919, Note_on_c, 9, 40, 0
2, 74400, Note_on_c, 9, 40, 127
2, 74879, Note_on_c, 9, 40, 0
2, 75360, Note_on_c, 9, 40, 127
2, 75839, Note_on_c, 9, 40, 0
2, 76320, Note_on_c, 9, 40, 127
2, 76799, Note_on_c, 9, 40, 0
2, 77280, Note_on_c, 9, 40, 127
2, 77759, Note_on_c, 9, 40, 0
2, 78240, Note_on_c, 9, 40, 127
2, 78479, Note_on_c, 9, 40, 0
2, 78480, Note_on_c, 9, 40, 127
2, 78599, Note_on_c, 9, 40, 0
2, 78600, Note_on_c, 9, 40, 127
2, 78719, Note_on_c, 9, 40, 0
2, 79200, Note_on_c, 9, 40, 127
2, 79679, Note_on_c, 9, 40, 0
2, 80160, Note_on_c, 9, 40, 127
2, 80639, Note_on_c, 9, 40, 0
2, 81120, Note_on_c, 9, 40, 127
2, 81599, Note_on_c, 9, 40, 0
2, 82080, Note_on_c, 9, 40, 127
2, 82559, Note_on_c, 9, 40, 0
2, 83040, Note_on_c, 9, 40, 127
2, 83519, Note_on_c, 9, 40, 0
2, 84000, Note_on_c, 9, 40, 127
2, 84479, Note_on_c, 9, 40, 0
2, 84960, Note_on_c, 9, 40, 127
2, 85439, Note_on_c, 9, 40, 0
2, 85920, Note_on_c, 9, 40, 127
2, 86399, Note_on_c, 9, 40, 0
2, 86880, Note_on_c, 9, 40, 127
2, 87359, Note_on_c, 9, 40, 0
2, 87840, Note_on_c, 9, 40, 127
2, 88319, Note_on_c, 9, 40, 0
2, 88800, Note_on_c, 9, 40, 127
2, 89279, Note_on_c, 9, 40, 0
2, 89760, Note_on_c, 9, 40, 127
2, 90239, Note_on_c, 9, 40, 0
2, 90720, Note_on_c, 9, 40, 127
2, 91199, Note_on_c, 9, 40, 0
2, 91680, Note_on_c, 9, 40, 127
2, 92159, Note_on_c, 9, 40, 0
2, 92640, Note_on_c, 9, 40, 127
2, 92999, Note_on_c, 9, 40, 0
2, 93000, Note_on_c, 9, 40, 127
2, 93119, Note_on_c, 9, 40, 0
2, 93360, Note_on_c, 9, 40, 127
2, 93479, Note_on_c, 9, 40, 0
2, 93480, Note_on_c, 9, 40, 127
2, 93599, Note_on_c, 9, 40, 0
2, 93600, Note_on_c, 9, 40, 127
2, 93719, Note_on_c, 9, 40, 0
2, 93720, Note_on_c, 9, 40, 127
2, 93839, Note_on_c, 9, 40, 0
2, 93840, Note_on_c, 9, 40, 127
2, 93959, Note_on_c, 9, 40, 0
2, 93960, Note_on_c, 9, 40, 127
2, 94079, Note_on_c, 9, 40, 0
2, 94560, Note_on_c, 9, 40, 127
2, 95039, Note_on_c, 9, 40, 0
2, 95520, Note_on_c, 9, 40, 127
2, 95999, Note_on_c, 9, 40, 0
2, 96480, Note_on_c, 9, 40, 127
2, 96959, Note_on_c, 9, 40, 0
2, 97440, Note_on_c, 9, 40, 127
2, 97919, Note_on_c, 9, 40, 0
2, 98400, Note_on_c, 9, 40, 127
2, 98879, Note_on_c, 9, 40, 0
2, 99360, Note_on_c, 9, 40, 127
2, 99839, Note_on_c, 9, 40, 0
2, 100320, Note_on_c, 9, 40, 127
2, 100799, Note_on_c, 9, 40, 0
2, 101280, Note_on_c, 9, 40, 127
2, 101759, Note_on_c, 9, 40, 0
2, 102240, Note_on_c, 9, 40, 127
2, 102719, Note_on_c, 9, 40, 0
2, 103200, Note_on_c, 9, 40, 127
2, 103679, Note_on_c, 9, 40, 0
2, 104160, Note_on_c, 9, 40, 127
2, 104639, Note_on_c, 9, 40, 0
2, 105120, Note_on_c, 9, 40, 127
2, 105599, Note_on_c, 9, 40, 0
2, 106080, Note_on_c, 9, 40, 127
2, 106559, Note_on_c, 9, 40, 0
2, 106800, Note_on_c, 9, 40, 127
2, 107039, Note_on_c, 9, 40, 0
2, 107280, Note_on_c, 9, 40, 127
2, 107519, Note_on_c, 9, 40, 0
2, 107760, Note_on_c, 9, 40, 127
2, 107999, Note_on_c, 9, 40, 0
2, 108480, Note_on_c, 9, 40, 127
2, 108959, Note_on_c, 9, 40, 0
2, 109920, Note_on_c, 9, 40, 127
2, 110399, Note_on_c, 9, 40, 0
2, 110880, Note_on_c, 9, 40, 127
2, 111359, Note_on_c, 9, 40, 0
2, 111840, Note_on_c, 9, 40, 127
2, 112319, Note_on_c, 9, 40, 0
2, 112800, Note_on_c, 9, 40, 127
2, 113279, Note_on_c, 9, 40, 0
2, 113760, Note_on_c, 9, 40, 127
2, 114239, Note_on_c, 9, 40, 0
2, 114720, Note_on_c, 9, 40, 127
2, 115199, Note_on_c, 9, 40, 0
2, 115680, Note_on_c, 9, 40, 127
2, 116159, Note_on_c, 9, 40, 0
2, 116640, Note_on_c, 9, 40, 127
2, 117119, Note_on_c, 9, 40, 0
2, 117600, Note_on_c, 9, 40, 127
2, 118079, Note_on_c, 9, 40, 0
2, 118560, Note_on_c, 9, 40, 127
2, 119039, Note_on_c, 9, 40, 0
2, 119520, Note_on_c, 9, 40, 127
2, 119999, Note_on_c, 9, 40, 0
2, 120480, Note_on_c, 9, 40, 127
2, 120959, Note_on_c, 9, 40, 0
2, 121440, Note_on_c, 9, 40, 127
2, 121919, Note_on_c, 9, 40, 0
2, 122400, Note_on_c, 9, 40, 127
2, 122879, Note_on_c, 9, 40, 0
2, 123360, Note_on_c, 9, 40, 127
2, 123839, Note_on_c, 9, 40, 0
2, 124320, Note_on_c, 9, 40, 127
2, 124679, Note_on_c, 9, 40, 0
2, 124680, Note_on_c, 9, 40, 127
2, 124799, Note_on_c, 9, 40, 0
2, 125040, Note_on_c, 9, 40, 127
2, 125159, Note_on_c, 9, 40, 0
2, 125160, Note_on_c, 9, 40, 127
2, 125279, Note_on_c, 9, 40, 0
2, 125280, Note_on_c, 9, 40, 127
2, 125399, Note_on_c, 9, 40, 0
2, 125400, Note_on_c, 9, 40, 127
2, 125519, Note_on_c, 9, 40, 0
2, 125520, Note_on_c, 9, 40, 127
2, 125639, Note_on_c, 9, 40, 0
2, 125640, Note_on_c, 9, 40, 127
2, 125759, Note_on_c, 9, 40, 0
2, 126240, Note_on_c, 9, 40, 127
2, 126719, Note_on_c, 9, 40, 0
2, 127200, Note_on_c, 9, 40, 127
2, 127679, Note_on_c, 9, 40, 0
2, 128160, Note_on_c, 9, 40, 127
2, 128639, Note_on_c, 9, 40, 0
2, 129120, Note_on_c, 9, 40, 127
2, 129599, Note_on_c, 9, 40, 0
2, 130080, Note_on_c, 9, 40, 127
2, 130559, Note_on_c, 9, 40, 0
2, 131040, Note_on_c, 9, 40, 127
2, 131519, Note_on_c, 9, 40, 0
2, 132000, Note_on_c, 9, 40, 127
2, 132479, Note_on_c, 9, 40, 0
2, 132960, Note_on_c, 9, 40, 127
2, 133439, Note_on_c, 9, 40, 0
2, 133920, Note_on_c, 9, 40, 127
2, 134399, Note_on_c, 9, 40, 0
2, 134880, Note_on_c, 9, 40, 127
2, 135359, Note_on_c, 9, 40, 0
2, 135840, Note_on_c, 9, 40, 127
2, 136319, Note_on_c, 9, 40, 0
2, 136800, Note_on_c, 9, 40, 127
2, 137279, Note_on_c, 9, 40, 0
2, 137760, Note_on_c, 9, 40, 127
2, 138239, Note_on_c, 9, 40, 0
2, 138720, Note_on_c, 9, 40, 127
2, 139199, Note_on_c, 9, 40, 0
2, 139680, Note_on_c, 9, 40, 127
2, 140159, Note_on_c, 9, 40, 0
2, 140640, Note_on_c, 9, 40, 127
2, 140879, Note_on_c, 9, 40, 0
2, 140880, Note_on_c, 9, 40, 127
2, 140999, Note_on_c, 9, 40, 0
2, 141000, Note_on_c, 9, 40, 127
2, 141119, Note_on_c, 9, 40, 0
2, 141600, Note_on_c, 9, 40, 127
2, 142079, Note_on_c, 9, 40, 0
2, 142560, Note_on_c, 9, 40, 127
2, 143039, Note_on_c, 9, 40, 0
2, 143520, Note_on_c, 9, 40, 127
2, 143999, Note_on_c, 9, 40, 0
2, 144480, Note_on_c, 9, 40, 127
2, 144959, Note_on_c, 9, 40, 0
2, 145440, Note_on_c, 9, 40, 127
2, 145919, Note_on_c, 9, 40, 0
2, 146400, Note_on_c, 9, 40, 127
2, 146879, Note_on_c, 9, 40, 0
2, 147360, Note_on_c, 9, 40, 127
2, 147839, Note_on_c, 9, 40, 0
2, 148320, Note_on_c, 9, 40, 127
2, 148799, Note_on_c, 9, 40, 0
2, 149280, Note_on_c, 9, 40, 127
2, 149759, Note_on_c, 9, 40, 0
2, 150240, Note_on_c, 9, 40, 127
2, 150719, Note_on_c, 9, 40, 0
2, 151200, Note_on_c, 9, 40, 127
2, 151679, Note_on_c, 9, 40, 0
2, 152160, Note_on_c, 9, 40, 127
2, 152639, Note_on_c, 9, 40, 0
2, 153120, Note_on_c, 9, 40, 127
2, 153599, Note_on_c, 9, 40, 0
2, 154080, Note_on_c, 9, 40, 127
2, 154559, Note_on_c, 9, 40, 0
2, 155040, Note_on_c, 9, 40, 127
2, 155519, Note_on_c, 9, 40, 0
2, 156000, Note_on_c, 9, 40, 127
2, 156239, Note_on_c, 9, 40, 0
2, 156240, Note_on_c, 9, 40, 127
2, 156359, Note_on_c, 9, 40, 0
2, 156360, Note_on_c, 9, 40, 127
2, 156479, Note_on_c, 9, 40, 0
2, 156960, Note_on_c, 9, 40, 127
2, 157439, Note_on_c, 9, 40, 0
2, 157920, Note_on_c, 9, 40, 127
2, 158399, Note_on_c, 9, 40, 0
2, 158880, Note_on_c, 9, 40, 127
2, 159359, Note_on_c, 9, 40, 0
2, 159840, Note_on_c, 9, 40, 127
2, 160319, Note_on_c, 9, 40, 0
2, 160800, Note_on_c, 9, 40, 127
2, 161279, Note_on_c, 9, 40, 0
2, 161760, Note_on_c, 9, 40, 127
2, 162239, Note_on_c, 9, 40, 0
2, 162720, Note_on_c, 9, 40, 127
2, 163199, Note_on_c, 9, 40, 0
2, 163680, Note_on_c, 9, 40, 127
2, 164159, Note_on_c, 9, 40, 0
2, 164640, Note_on_c, 9, 40, 127
2, 165119, Note_on_c, 9, 40, 0
2, 165600, Note_on_c, 9, 40, 127
2, 166079, Note_on_c, 9, 40, 0
2, 166560, Note_on_c, 9, 40, 127
2, 167039, Note_on_c, 9, 40, 0
2, 167520, Note_on_c, 9, 40, 127
2, 167999, Note_on_c, 9, 40, 0
2, 168480, Note_on_c, 9, 40, 127
2, 168959, Note_on_c, 9, 40, 0
2, 169440, Note_on_c, 9, 40, 127
2, 169919, Note_on_c, 9, 40, 0
2, 170400, Note_on_c, 9, 40, 127
2, 170759, Note_on_c, 9, 40, 0
2, 170760, Note_on_c, 9, 40, 127
2, 170879, Note_on_c, 9, 40, 0
2, 171120, Note_on_c, 9, 40, 127
2, 171239, Note_on_c, 9, 40, 0
2, 171240, Note_on_c, 9, 40, 127
2, 171359, Note_on_c, 9, 40, 0
2, 171360, Note_on_c, 9, 40, 127
2, 171479, Note_on_c, 9, 40, 0
2, 171480, Note_on_c, 9, 40, 127
2, 171599, Note_on_c, 9, 40, 0
2, 171600, Note_on_c, 9, 40, 127
2, 171719, Note_on_c, 9, 40, 0
2, 171720, Note_on_c, 9, 40, 127
2, 171839, Note_on_c, 9, 40, 0
2, 172320, Note_on_c, 9, 40, 127
2, 172799, Note_on_c, 9, 40, 0
2, 173280, Note_on_c, 9, 40, 127
2, 173759, Note_on_c, 9, 40, 0
2, 174240, Note_on_c, 9, 40, 127
2, 174719, Note_on_c, 9, 40, 0
2, 175200, Note_on_c, 9, 40, 127
2, 175679, Note_on_c, 9, 40, 0
2, 176160, Note_on_c, 9, 40, 127
2, 176639, Note_on_c, 9, 40, 0
2, 177120, Note_on_c, 9, 40, 127
2, 177599, Note_on_c, 9, 40, 0
2, 178080, Note_on_c, 9, 40, 127
2, 178559, Note_on_c, 9, 40, 0
2, 179040, Note_on_c, 9, 40, 127
2, 179519, Note_on_c, 9, 40, 0
2, 180000, Note_on_c, 9, 40, 127
2, 180479, Note_on_c, 9, 40, 0
2, 180960, Note_on_c, 9, 40, 127
2, 181439, Note_on_c, 9, 40, 0
2, 181920, Note_on_c, 9, 40, 127
2, 182399, Note_on_c, 9, 40, 0
2, 182880, Note_on_c, 9, 40, 127
2, 183359, Note_on_c, 9, 40, 0
2, 183840, Note_on_c, 9, 40, 127
2, 184319, Note_on_c, 9, 40, 0
2, 184800, Note_on_c, 9, 40, 127
2, 185279, Note_on_c, 9, 40, 0
2, 185760, Note_on_c, 9, 40, 127
2, 186119, Note_on_c, 9, 40, 0
2, 186120, Note_on_c, 9, 40, 127
2, 186239, Note_on_c, 9, 40, 0
2, 186480, Note_on_c, 9, 40, 127
2, 186599, Note_on_c, 9, 40, 0
2, 186600, Note_on_c, 9, 40, 127
2, 186719, Note_on_c, 9, 40, 0
2, 186720, Note_on_c, 9, 40, 127
2, 186839, Note_on_c, 9, 40, 0
2, 186840, Note_on_c, 9, 40, 127
2, 186959, Note_on_c, 9, 40, 0
2, 186960, Note_on_c, 9, 40, 127
2, 187079, Note_on_c, 9, 40, 0
2, 187080, Note_on_c, 9, 40, 127
2, 187199, Note_on_c, 9, 40, 0
2, 187680, Note_on_c, 9, 40, 127
2, 188159, Note_on_c, 9, 40, 0
2, 188640, Note_on_c, 9, 40, 127
2, 189119, Note_on_c, 9, 40, 0
2, 189600, Note_on_c, 9, 40, 127
2, 190079, Note_on_c, 9, 40, 0
2, 190560, Note_on_c, 9, 40, 127
2, 191039, Note_on_c, 9, 40, 0
2, 191520, Note_on_c, 9, 40, 127
2, 191999, Note_on_c, 9, 40, 0
2, 192480, Note_on_c, 9, 40, 127
2, 192959, Note_on_c, 9, 40, 0
2, 193440, Note_on_c, 9, 40, 127
2, 193919, Note_on_c, 9, 40, 0
2, 194400, Note_on_c, 9, 40, 127
2, 194879, Note_on_c, 9, 40, 0
2, 195360, Note_on_c, 9, 40, 127
2, 195839, Note_on_c, 9, 40, 0
2, 196320, Note_on_c, 9, 40, 127
2, 196799, Note_on_c, 9, 40, 0
2, 197280, Note_on_c, 9, 40, 127
2, 197759, Note_on_c, 9, 40, 0
2, 198240, Note_on_c, 9, 40, 127
2, 198719, Note_on_c, 9, 40, 0
2, 199200, Note_on_c, 9, 40, 127
2, 199679, Note_on_c, 9, 40, 0
2, 199920, Note_on_c, 9, 40, 127
2, 200159, Note_on_c, 9, 40, 0
2, 200400, Note_on_c, 9, 40, 127
2, 200639, Note_on_c, 9, 40, 0
2, 200880, Note_on_c, 9, 40, 127
2, 201119, Note_on_c, 9, 40, 0
2, 201600, Note_on_c, 9, 40, 127
2, 202079, Note_on_c, 9, 40, 0
2, 203040, Note_on_c, 9, 40, 127
2, 203159, Note_on_c, 9, 40, 0
2, 203160, Note_on_c, 9, 40, 127
2, 203279, Note_on_c, 9, 40, 0
2, 203280, Note_on_c, 9, 40, 127
2, 203399, Note_on_c, 9, 40, 0
2, 203400, Note_on_c, 9, 40, 127
2, 203519, Note_on_c, 9, 40, 0
2, 203520, End_track
3, 0, Start_track
3, 0, Key_signature, 0, "major"
3, 0, Control_c, 9, 121, 0
3, 0, Program_c, 9, 0
3, 0, Control_c, 9, 7, 100
3, 0, Control_c, 9, 10, 64
3, 0, Control_c, 9, 91, 0
3, 0, Control_c, 9, 93, 0
3, 0, MIDI_port, 0
3, 0, Note_on_c, 9, 42, 118
3, 479, Note_on_c, 9, 42, 0
3, 480, Note_on_c, 9, 42, 113
3, 959, Note_on_c, 9, 42, 0
3, 960, Note_on_c, 9, 42, 118
3, 1439, Note_on_c, 9, 42, 0
3, 1440, Note_on_c, 9, 42, 113
3, 1919, Note_on_c, 9, 42, 0
3, 2400, Note_on_c, 9, 42, 118
3, 2879, Note_on_c, 9, 42, 0
3, 3360, Note_on_c, 9, 42, 122
3, 3839, Note_on_c, 9, 42, 0
3, 4320, Note_on_c, 9, 42, 122
3, 4799, Note_on_c, 9, 42, 0
3, 5280, Note_on_c, 9, 42, 118
3, 5759, Note_on_c, 9, 42, 0
3, 6240, Note_on_c, 9, 42, 118
3, 6719, Note_on_c, 9, 42, 0
3, 7200, Note_on_c, 9, 42, 122
3, 7679, Note_on_c, 9, 42, 0
3, 8160, Note_on_c, 9, 42, 122
3, 8639, Note_on_c, 9, 42, 0
3, 9120, Note_on_c, 9, 42, 118
3, 9599, Note_on_c, 9, 42, 0
3, 10080, Note_on_c, 9, 42, 118
3, 10559, Note_on_c, 9, 42, 0
3, 11040, Note_on_c, 9, 42, 122
3, 11519, Note_on_c, 9, 42, 0
3, 12000, Note_on_c, 9, 42, 122
3, 12479, Note_on_c, 9, 42, 0
3, 12960, Note_on_c, 9, 42, 118
3, 13439, Note_on_c, 9, 42, 0
3, 13920, Note_on_c, 9, 42, 118
3, 14399, Note_on_c, 9, 42, 0
3, 14880, Note_on_c, 9, 42, 122
3, 15359, Note_on_c, 9, 42, 0
3, 15840, Note_on_c, 9, 42, 122
3, 16319, Note_on_c, 9, 42, 0
3, 16800, Note_on_c, 9, 42, 118
3, 17279, Note_on_c, 9, 42, 0
3, 17280, Note_on_c, 9, 42, 127
3, 17519, Note_on_c, 9, 42, 0
3, 17520, Note_on_c, 9, 42, 76
3, 17759, Note_on_c, 9, 42, 0
3, 17760, Note_on_c, 9, 42, 127
3, 17999, Note_on_c, 9, 42, 0
3, 18000, Note_on_c, 9, 42, 72
3, 18239, Note_on_c, 9, 42, 0
3, 18240, Note_on_c, 9, 42, 118
3, 18479, Note_on_c, 9, 42, 0
3, 18480, Note_on_c, 9, 42, 76
3, 18719, Note_on_c, 9, 42, 0
3, 18720, Note_on_c, 9, 42, 127
3, 18959, Note_on_c, 9, 42, 0
3, 18960, Note_on_c, 9, 42, 80
3, 19199, Note_on_c, 9, 42, 0
3, 19200, Note_on_c, 9, 42, 127
3, 19439, Note_on_c, 9, 42, 0
3, 19440, Note_on_c, 9, 42, 65
3, 19679, Note_on_c, 9, 42, 0
3, 19680, Note_on_c, 9, 42, 122
3, 19919, Note_on_c, 9, 42, 0
3, 19920, Note_on_c, 9, 42, 70
3, 20159, Note_on_c, 9, 42, 0
3, 20160, Note_on_c, 9, 42, 118
3, 20399, Note_on_c, 9, 42, 0
3, 20400, Note_on_c, 9, 42, 55
3, 20639, Note_on_c, 9, 42, 0
3, 20640, Note_on_c, 9, 42, 127
3, 20879, Note_on_c, 9, 42, 0
3, 20880, Note_on_c, 9, 42, 82
3, 21119, Note_on_c, 9, 42, 0
3, 21120, Note_on_c, 9, 42, 127
3, 21359, Note_on_c, 9, 42, 0
3, 21360, Note_on_c, 9, 42, 76
3, 21599, Note_on_c, 9, 42, 0
3, 21600, Note_on_c, 9, 42, 127
3, 21839, Note_on_c, 9, 42, 0
3, 21840, Note_on_c, 9, 42, 72
3, 22079, Note_on_c, 9, 42, 0
3, 22080, Note_on_c, 9, 42, 118
3, 22319, Note_on_c, 9, 42, 0
3, 22320, Note_on_c, 9, 42, 76
3, 22559, Note_on_c, 9, 42, 0
3, 22560, Note_on_c, 9, 42, 127
3, 22799, Note_on_c, 9, 42, 0
3, 22800, Note_on_c, 9, 42, 80
3, 23039, Note_on_c, 9, 42, 0
3, 23040, Note_on_c, 9, 42, 127
3, 23279, Note_on_c, 9, 42, 0
3, 23280, Note_on_c, 9, 42, 65
3, 23519, Note_on_c, 9, 42, 0
3, 23520, Note_on_c, 9, 42, 122
3, 23759, Note_on_c, 9, 42, 0
3, 23760, Note_on_c, 9, 42, 70
3, 23999, Note_on_c, 9, 42, 0
3, 24000, Note_on_c, 9, 42, 118
3, 24239, Note_on_c, 9, 42, 0
3, 24240, Note_on_c, 9, 42, 55
3, 24479, Note_on_c, 9, 42, 0
3, 24480, Note_on_c, 9, 42, 127
3, 24719, Note_on_c, 9, 42, 0
3, 24720, Note_on_c, 9, 42, 82
3, 24959, Note_on_c, 9, 42, 0
3, 24960, Note_on_c, 9, 42, 127
3, 25199, Note_on_c, 9, 42, 0
3, 25200, Note_on_c, 9, 42, 76
3, 25439, Note_on_c, 9, 42, 0
3, 25440, Note_on_c, 9, 42, 127
3, 25679, Note_on_c, 9, 42, 0
3, 25680, Note_on_c, 9, 42, 72
3, 25919, Note_on_c, 9, 42, 0
3, 25920, Note_on_c, 9, 42, 118
3, 26159, Note_on_c, 9, 42, 0
3, 26160, Note_on_c, 9, 42, 76
3, 26399, Note_on_c, 9, 42, 0
3, 26400, Note_on_c, 9, 42, 127
3, 26639, Note_on_c, 9, 42, 0
3, 26640, Note_on_c, 9, 42, 80
3, 26879, Note_on_c, 9, 42, 0
3, 26880, Note_on_c, 9, 42, 127
3, 27119, Note_on_c, 9, 42, 0
3, 27120, Note_on_c, 9, 42, 65
3, 27359, Note_on_c, 9, 42, 0
3, 27360, Note_on_c, 9, 42, 122
3, 27599, Note_on_c, 9, 42, 0
3, 27600, Note_on_c, 9, 42, 70
3, 27839, Note_on_c, 9, 42, 0
3, 27840, Note_on_c, 9, 42, 118
3, 28079, Note_on_c, 9, 42, 0
3, 28080, Note_on_c, 9, 42, 55
3, 28319, Note_on_c, 9, 42, 0
3, 28320, Note_on_c, 9, 42, 127
3, 28559, Note_on_c, 9, 42, 0
3, 28560, Note_on_c, 9, 42, 82
3, 28799, Note_on_c, 9, 42, 0
3, 28800, Note_on_c, 9, 42, 127
3, 29039, Note_on_c, 9, 42, 0
3, 29040, Note_on_c, 9, 42, 76
3, 29279, Note_on_c, 9, 42, 0
3, 29280, Note_on_c, 9, 42, 127
3, 29519, Note_on_c, 9, 42, 0
3, 29520, Note_on_c, 9, 42, 72
3, 29759, Note_on_c, 9, 42, 0
3, 29760, Note_on_c, 9, 42, 118
3, 29999, Note_on_c, 9, 42, 0
3, 30000, Note_on_c, 9, 42, 76
3, 30239, Note_on_c, 9, 42, 0
3, 30240, Note_on_c, 9, 42, 127
3, 30479, Note_on_c, 9, 42, 0
3, 30480, Note_on_c, 9, 42, 80
3, 30719, Note_on_c, 9, 42, 0
3, 30720, Note_on_c, 9, 42, 127
3, 30959, Note_on_c, 9, 42, 0
3, 30960, Note_on_c, 9, 42, 65
3, 31199, Note_on_c, 9, 42, 0
3, 31200, Note_on_c, 9, 42, 122
3, 31439, Note_on_c, 9, 42, 0
3, 31440, Note_on_c, 9, 42, 70
3, 31679, Note_on_c, 9, 42, 0
3, 31680, Note_on_c, 9, 42, 118
3, 31919, Note_on_c, 9, 42, 0
3, 31920, Note_on_c, 9, 42, 55
3, 32159, Note_on_c, 9, 42, 0
3, 32160, Note_on_c, 9, 42, 127
3, 32399, Note_on_c, 9, 42, 0
3, 32400, Note_on_c, 9, 42, 82
3, 32639, Note_on_c, 9, 42, 0
3, 32640, Note_on_c, 9, 42, 127
3, 32879, Note_on_c, 9, 42, 0
3, 32880, Note_on_c, 9, 42, 76
3, 33119, Note_on_c, 9, 42, 0
3, 33120, Note_on_c, 9, 42, 127
3, 33359, Note_on_c, 9, 42, 0
3, 33360, Note_on_c, 9, 42, 72
3, 33599, Note_on_c, 9, 42, 0
3, 33600, Note_on_c, 9, 42, 118
3, 33839, Note_on_c, 9, 42, 0
3, 33840, Note_on_c, 9, 42, 76
3, 34079, Note_on_c, 9, 42, 0
3, 34080, Note_on_c, 9, 42, 127
3, 34319, Note_on_c, 9, 42, 0
3, 34320, Note_on_c, 9, 42, 80
3, 34559, Note_on_c, 9, 42, 0
3, 34560, Note_on_c, 9, 42, 127
3, 34799, Note_on_c, 9, 42, 0
3, 34800, Note_on_c, 9, 42, 65
3, 35039, Note_on_c, 9, 42, 0
3, 35040, Note_on_c, 9, 42, 122
3, 35279, Note_on_c, 9, 42, 0
3, 35280, Note_on_c, 9, 42, 70
3, 35519, Note_on_c, 9, 42, 0
3, 35520, Note_on_c, 9, 42, 118
3, 35759, Note_on_c, 9, 42, 0
3, 35760, Note_on_c, 9, 42, 55
3, 35999, Note_on_c, 9, 42, 0
3, 36000, Note_on_c, 9, 42, 127
3, 36239, Note_on_c, 9, 42, 0
3, 36240, Note_on_c, 9, 42, 82
3, 36479, Note_on_c, 9, 42, 0
3, 36480, Note_on_c, 9, 42, 127
3, 36719, Note_on_c, 9, 42, 0
3, 36720, Note_on_c, 9, 42, 76
3, 36959, Note_on_c, 9, 42, 0
3, 36960, Note_on_c, 9, 42, 127
3, 37199, Note_on_c, 9, 42, 0
3, 37200, Note_on_c, 9, 42, 72
3, 37439, Note_on_c, 9, 42, 0
3, 37440, Note_on_c, 9, 42, 118
3, 37679, Note_on_c, 9, 42, 0
3, 37680, Note_on_c, 9, 42, 76
3, 37919, Note_on_c, 9, 42, 0
3, 37920, Note_on_c, 9, 42, 127
3, 38159, Note_on_c, 9, 42, 0
3, 38160, Note_on_c, 9, 42, 80
3, 38399, Note_on_c, 9, 42, 0
3, 38400, Note_on_c, 9, 42, 127
3, 38639, Note_on_c, 9, 42, 0
3, 38640, Note_on_c, 9, 42, 65
3, 38879, Note_on_c, 9, 42, 0
3, 38880, Note_on_c, 9, 42, 122
3, 39119, Note_on_c, 9, 42, 0
3, 39120, Note_on_c, 9, 42, 70
3, 39359, Note_on_c, 9, 42, 0
3, 39360, Note_on_c, 9, 42, 118
3, 39599, Note_on_c, 9, 42, 0
3, 39600, Note_on_c, 9, 42, 55
3, 39839, Note_on_c, 9, 42, 0
3, 39840, Note_on_c, 9, 42, 127
3, 40079, Note_on_c, 9, 42, 0
3, 40080, Note_on_c, 9, 42, 82
3, 40319, Note_on_c, 9, 42, 0
3, 40320, Note_on_c, 9, 42, 127
3, 40559, Note_on_c, 9, 42, 0
3, 40560, Note_on_c, 9, 42, 76
3, 40799, Note_on_c, 9, 42, 0
3, 40800, Note_on_c, 9, 42, 127
3, 41039, Note_on_c, 9, 42, 0
3, 41040, Note_on_c, 9, 42, 72
3, 41279, Note_on_c, 9, 42, 0
3, 41280, Note_on_c, 9, 42, 118
3, 41519, Note_on_c, 9, 42, 0
3, 41520, Note_on_c, 9, 42, 76
3, 41759, Note_on_c, 9, 42, 0
3, 41760, Note_on_c, 9, 42, 127
3, 41999, Note_on_c, 9, 42, 0
3, 42000, Note_on_c, 9, 42, 80
3, 42239, Note_on_c, 9, 42, 0
3, 42240, Note_on_c, 9, 42, 127
3, 42479, Note_on_c, 9, 42, 0
3, 42480, Note_on_c, 9, 42, 65
3, 42719, Note_on_c, 9, 42, 0
3, 42720, Note_on_c, 9, 42, 122
3, 42959, Note_on_c, 9, 42, 0
3, 42960, Note_on_c, 9, 42, 70
3, 43199, Note_on_c, 9, 42, 0
3, 43200, Note_on_c, 9, 42, 118
3, 43439, Note_on_c, 9, 42, 0
3, 43440, Note_on_c, 9, 42, 55
3, 43679, Note_on_c, 9, 42, 0
3, 43680, Note_on_c, 9, 42, 127
3, 43919, Note_on_c, 9, 42, 0
3, 43920, Note_on_c, 9, 42, 82
3, 44159, Note_on_c, 9, 42, 0
3, 44160, Note_on_c, 9, 42, 127
3, 44399, Note_on_c, 9, 42, 0
3, 44400, Note_on_c, 9, 42, 76
3, 44639, Note_on_c, 9, 42, 0
3, 44640, Note_on_c, 9, 42, 127
3, 44879, Note_on_c, 9, 42, 0
3, 44880, Note_on_c, 9, 42, 72
3, 45119, Note_on_c, 9, 42, 0
3, 45120, Note_on_c, 9, 42, 118
3, 45359, Note_on_c, 9, 42, 0
3, 45360, Note_on_c, 9, 42, 76
3, 45599, Note_on_c, 9, 42, 0
3, 45600, Note_on_c, 9, 42, 127
3, 45839, Note_on_c, 9, 42, 0
3, 45840, Note_on_c, 9, 42, 80
3, 46079, Note_on_c, 9, 42, 0
3, 46080, Note_on_c, 9, 42, 127
3, 46319, Note_on_c, 9, 42, 0
3, 46320, Note_on_c, 9, 42, 65
3, 46559, Note_on_c, 9, 42, 0
3, 46560, Note_on_c, 9, 42, 122
3, 46799, Note_on_c, 9, 42, 0
3, 46800, Note_on_c, 9, 42, 70
3, 47039, Note_on_c, 9, 42, 0
3, 47040, Note_on_c, 9, 42, 118
3, 47279, Note_on_c, 9, 42, 0
3, 47280, Note_on_c, 9, 42, 55
3, 47519, Note_on_c, 9, 42, 0
3, 47520, Note_on_c, 9, 42, 127
3, 47759, Note_on_c, 9, 42, 0
3, 47760, Note_on_c, 9, 42, 82
3, 47999, Note_on_c, 9, 42, 0
3, 48000, Note_on_c, 9, 42, 127
3, 48239, Note_on_c, 9, 42, 0
3, 48240, Note_on_c, 9, 42, 76
3, 48479, Note_on_c, 9, 42, 0
3, 48480, Note_on_c, 9, 42, 127
3, 48719, Note_on_c, 9, 42, 0
3, 48720, Note_on_c, 9, 42, 72
3, 48959, Note_on_c, 9, 42, 0
3, 48960, Note_on_c, 9, 42, 118
3, 49199, Note_on_c, 9, 42, 0
3, 49200, Note_on_c, 9, 42, 76
3, 49439, Note_on_c, 9, 42, 0
3, 49440, Note_on_c, 9, 42, 127
3, 49679, Note_on_c, 9, 42, 0
3, 49680, Note_on_c, 9, 42, 80
3, 49919, Note_on_c, 9, 42, 0
3, 49920, Note_on_c, 9, 42, 127
3, 50159, Note_on_c, 9, 42, 0
3, 50160, Note_on_c, 9, 42, 65
3, 50399, Note_on_c, 9, 42, 0
3, 50400, Note_on_c, 9, 42, 122
3, 50639, Note_on_c, 9, 42, 0
3, 50640, Note_on_c, 9, 42, 70
3, 50879, Note_on_c, 9, 42, 0
3, 50880, Note_on_c, 9, 42, 118
3, 51119, Note_on_c, 9, 42, 0
3, 51120, Note_on_c, 9, 42, 55
3, 51359, Note_on_c, 9, 42, 0
3, 51360, Note_on_c, 9, 42, 127
3, 51599, Note_on_c, 9, 42, 0
3, 51600, Note_on_c, 9, 42, 82
3, 51839, Note_on_c, 9, 42, 0
3, 51840, Note_on_c, 9, 42, 127
3, 52079, Note_on_c, 9, 42, 0
3, 52080, Note_on_c, 9, 42, 76
3, 52319, Note_on_c, 9, 42, 0
3, 52320, Note_on_c, 9, 42, 127
3, 52559, Note_on_c, 9, 42, 0
3, 52560, Note_on_c, 9, 42, 72
3, 52799, Note_on_c, 9, 42, 0
3, 52800, Note_on_c, 9, 42, 118
3, 53039, Note_on_c, 9, 42, 0
3, 53040, Note_on_c, 9, 42, 76
3, 53279, Note_on_c, 9, 42, 0
3, 53280, Note_on_c, 9, 42, 127
3, 53519, Note_on_c, 9, 42, 0
3, 53520, Note_on_c, 9, 42, 80
3, 53759, Note_on_c, 9, 42, 0
3, 53760, Note_on_c, 9, 42, 127
3, 53999, Note_on_c, 9, 42, 0
3, 54000, Note_on_c, 9, 42, 65
3, 54239, Note_on_c, 9, 42, 0
3, 54240, Note_on_c, 9, 42, 122
3, 54479, Note_on_c, 9, 42, 0
3, 54480, Note_on_c, 9, 42, 70
3, 54719, Note_on_c, 9, 42, 0
3, 54720, Note_on_c, 9, 42, 118
3, 54959, Note_on_c, 9, 42, 0
3, 54960, Note_on_c, 9, 42, 55
3, 55199, Note_on_c, 9, 42, 0
3, 55200, Note_on_c, 9, 42, 127
3, 55439, Note_on_c, 9, 42, 0
3, 55440, Note_on_c, 9, 42, 82
3, 55679, Note_on_c, 9, 42, 0
3, 55680, Note_on_c, 9, 42, 127
3, 55919, Note_on_c, 9, 42, 0
3, 55920, Note_on_c, 9, 42, 76
3, 56159, Note_on_c, 9, 42, 0
3, 56160, Note_on_c, 9, 42, 127
3, 56399, Note_on_c, 9, 42, 0
3, 56400, Note_on_c, 9, 42, 72
3, 56639, Note_on_c, 9, 42, 0
3, 56640, Note_on_c, 9, 42, 118
3, 56879, Note_on_c, 9, 42, 0
3, 56880, Note_on_c, 9, 42, 76
3, 57119, Note_on_c, 9, 42, 0
3, 57120, Note_on_c, 9, 42, 127
3, 57359, Note_on_c, 9, 42, 0
3, 57360, Note_on_c, 9, 42, 80
3, 57599, Note_on_c, 9, 42, 0
3, 57600, Note_on_c, 9, 42, 127
3, 57839, Note_on_c, 9, 42, 0
3, 57840, Note_on_c, 9, 42, 65
3, 58079, Note_on_c, 9, 42, 0
3, 58080, Note_on_c, 9, 42, 122
3, 58319, Note_on_c, 9, 42, 0
3, 58320, Note_on_c, 9, 42, 70
3, 58559, Note_on_c, 9, 42, 0
3, 58560, Note_on_c, 9, 42, 118
3, 58799, Note_on_c, 9, 42, 0
3, 58800, Note_on_c, 9, 42, 55
3, 59039, Note_on_c, 9, 42, 0
3, 59040, Note_on_c, 9, 42, 127
3, 59279, Note_on_c, 9, 42, 0
3, 59280, Note_on_c, 9, 42, 82
3, 59519, Note_on_c, 9, 42, 0
3, 59520, Note_on_c, 9, 42, 127
3, 59759, Note_on_c, 9, 42, 0
3, 59760, Note_on_c, 9, 42, 76
3, 59999, Note_on_c, 9, 42, 0
3, 60000, Note_on_c, 9, 42, 127
3, 60239, Note_on_c, 9, 42, 0
3, 60240, Note_on_c, 9, 42, 72
3, 60479, Note_on_c, 9, 42, 0
3, 60480, Note_on_c, 9, 42, 118
3, 60719, Note_on_c, 9, 42, 0
3, 60720, Note_on_c, 9, 42, 76
3, 60959, Note_on_c, 9, 42, 0
3, 60960, Note_on_c, 9, 42, 127
3, 61199, Note_on_c, 9, 42, 0
3, 61200, Note_on_c, 9, 42, 80
3, 61439, Note_on_c, 9, 42, 0
3, 61440, Note_on_c, 9, 42, 127
3, 61679, Note_on_c, 9, 42, 0
3, 61680, Note_on_c, 9, 42, 65
3, 61919, Note_on_c, 9, 42, 0
3, 61920, Note_on_c, 9, 42, 122
3, 62159, Note_on_c, 9, 42, 0
3, 62160, Note_on_c, 9, 42, 70
3, 62399, Note_on_c, 9, 42, 0
3, 62400, Note_on_c, 9, 42, 118
3, 62639, Note_on_c, 9, 42, 0
3, 62640, Note_on_c, 9, 42, 55
3, 62879, Note_on_c, 9, 42, 0
3, 62880, Note_on_c, 9, 42, 127
3, 63119, Note_on_c, 9, 42, 0
3, 63120, Note_on_c, 9, 42, 82
3, 63359, Note_on_c, 9, 42, 0
3, 63360, Note_on_c, 9, 42, 127
3, 63599, Note_on_c, 9, 42, 0
3, 63600, Note_on_c, 9, 42, 76
3, 63839, Note_on_c, 9, 42, 0
3, 63840, Note_on_c, 9, 42, 127
3, 64079, Note_on_c, 9, 42, 0
3, 64080, Note_on_c, 9, 42, 72
3, 64319, Note_on_c, 9, 42, 0
3, 64320, Note_on_c, 9, 42, 118
3, 64559, Note_on_c, 9, 42, 0
3, 64560, Note_on_c, 9, 42, 76
3, 64799, Note_on_c, 9, 42, 0
3, 64800, Note_on_c, 9, 42, 127
3, 65039, Note_on_c, 9, 42, 0
3, 65040, Note_on_c, 9, 42, 80
3, 65279, Note_on_c, 9, 42, 0
3, 65280, Note_on_c, 9, 42, 127
3, 65519, Note_on_c, 9, 42, 0
3, 65520, Note_on_c, 9, 42, 65
3, 65759, Note_on_c, 9, 42, 0
3, 65760, Note_on_c, 9, 42, 122
3, 65999, Note_on_c, 9, 42, 0
3, 66000, Note_on_c, 9, 42, 70
3, 66239, Note_on_c, 9, 42, 0
3, 66240, Note_on_c, 9, 42, 118
3, 66479, Note_on_c, 9, 42, 0
3, 66480, Note_on_c, 9, 42, 55
3, 66719, Note_on_c, 9, 42, 0
3, 66720, Note_on_c, 9, 42, 127
3, 66959, Note_on_c, 9, 42, 0
3, 66960, Note_on_c, 9, 42, 82
3, 67199, Note_on_c, 9, 42, 0
3, 67200, Note_on_c, 9, 42, 127
3, 67439, Note_on_c, 9, 42, 0
3, 67440, Note_on_c, 9, 42, 76
3, 67679, Note_on_c, 9, 42, 0
3, 67680, Note_on_c, 9, 42, 127
3, 67919, Note_on_c, 9, 42, 0
3, 67920, Note_on_c, 9, 42, 72
3, 68159, Note_on_c, 9, 42, 0
3, 68160, Note_on_c, 9, 42, 118
3, 68399, Note_on_c, 9, 42, 0
3, 68400, Note_on_c, 9, 42, 76
3, 68639, Note_on_c, 9, 42, 0
3, 68640, Note_on_c, 9, 42, 127
3, 68879, Note_on_c, 9, 42, 0
3, 68880, Note_on_c, 9, 42, 80
3, 69119, Note_on_c, 9, 42, 0
3, 69120, Note_on_c, 9, 42, 127
3, 69359, Note_on_c, 9, 42, 0
3, 69360, Note_on_c, 9, 42, 65
3, 69599, Note_on_c, 9, 42, 0
3, 69600, Note_on_c, 9, 42, 122
3, 69839, Note_on_c, 9, 42, 0
3, 69840, Note_on_c, 9, 42, 70
3, 70079, Note_on_c, 9, 42, 0
3, 70080, Note_on_c, 9, 42, 118
3, 70319, Note_on_c, 9, 42, 0
3, 70320, Note_on_c, 9, 42, 55
3, 70559, Note_on_c, 9, 42, 0
3, 70560, Note_on_c, 9, 42, 127
3, 70799, Note_on_c, 9, 42, 0
3, 70800, Note_on_c, 9, 42, 82
3, 71039, Note_on_c, 9, 42, 0
3, 71040, Note_on_c, 9, 42, 127
3, 71279, Note_on_c, 9, 42, 0
3, 71280, Note_on_c, 9, 42, 76
3, 71519, Note_on_c, 9, 42, 0
3, 71520, Note_on_c, 9, 42, 127
3, 71759, Note_on_c, 9, 42, 0
3, 71760, Note_on_c, 9, 42, 72
3, 71999, Note_on_c, 9, 42, 0
3, 72000, Note_on_c, 9, 42, 118
3, 72239, Note_on_c, 9, 42, 0
3, 72240, Note_on_c, 9, 42, 76
3, 72479, Note_on_c, 9, 42, 0
3, 72480, Note_on_c, 9, 42, 127
3, 72719, Note_on_c, 9, 42, 0
3, 72720, Note_on_c, 9, 42, 80
3, 72959, Note_on_c, 9, 42, 0
3, 72960, Note_on_c, 9, 42, 127
3, 73199, Note_on_c, 9, 42, 0
3, 73200, Note_on_c, 9, 42, 65
3, 73439, Note_on_c, 9, 42, 0
3, 73440, Note_on_c, 9, 42, 122
3, 73679, Note_on_c, 9, 42, 0
3, 73680, Note_on_c, 9, 42, 70
3, 73919, Note_on_c, 9, 42, 0
3, 73920, Note_on_c, 9, 42, 118
3, 74159, Note_on_c, 9, 42, 0
3, 74160, Note_on_c, 9, 42, 55
3, 74399, Note_on_c, 9, 42, 0
3, 74400, Note_on_c, 9, 42, 127
3, 74639, Note_on_c, 9, 42, 0
3, 74640, Note_on_c, 9, 42, 82
3, 74879, Note_on_c, 9, 42, 0
3, 74880, Note_on_c, 9, 42, 127
3, 75119, Note_on_c, 9, 42, 0
3, 75120, Note_on_c, 9, 42, 76
3, 75359, Note_on_c, 9, 42, 0
3, 75360, Note_on_c, 9, 42, 127
3, 75599, Note_on_c, 9, 42, 0
3, 75600, Note_on_c, 9, 42, 72
3, 75839, Note_on_c, 9, 42, 0
3, 75840, Note_on_c, 9, 42, 118
3, 76079, Note_on_c, 9, 42, 0
3, 76080, Note_on_c, 9, 42, 76
3, 76319, Note_on_c, 9, 42, 0
3, 76320, Note_on_c, 9, 42, 127
3, 76559, Note_on_c, 9, 42, 0
3, 76560, Note_on_c, 9, 42, 80
3, 76799, Note_on_c, 9, 42, 0
3, 76800, Note_on_c, 9, 42, 127
3, 77039, Note_on_c, 9, 42, 0
3, 77040, Note_on_c, 9, 42, 65
3, 77279, Note_on_c, 9, 42, 0
3, 77280, Note_on_c, 9, 42, 122
3, 77519, Note_on_c, 9, 42, 0
3, 77520, Note_on_c, 9, 42, 70
3, 77759, Note_on_c, 9, 42, 0
3, 77760, Note_on_c, 9, 42, 118
3, 77999, Note_on_c, 9, 42, 0
3, 78000, Note_on_c, 9, 42, 55
3, 78239, Note_on_c, 9, 42, 0
3, 78240, Note_on_c, 9, 42, 127
3, 78479, Note_on_c, 9, 42, 0
3, 78480, Note_on_c, 9, 42, 82
3, 78719, Note_on_c, 9, 42, 0
3, 78720, Note_on_c, 9, 42, 127
3, 79199, Note_on_c, 9, 42, 0
3, 79200, Note_on_c, 9, 42, 127
3, 79679, Note_on_c, 9, 42, 0
3, 79680, Note_on_c, 9, 42, 118
3, 80159, Note_on_c, 9, 42, 0
3, 80160, Note_on_c, 9, 42, 122
3, 80639, Note_on_c, 9, 42, 0
3, 80640, Note_on_c, 9, 42, 109
3, 81119, Note_on_c, 9, 42, 0
3, 81120, Note_on_c, 9, 42, 118
3, 81599, Note_on_c, 9, 42, 0
3, 81600, Note_on_c, 9, 42, 122
3, 82079, Note_on_c, 9, 42, 0
3, 82080, Note_on_c, 9, 42, 127
3, 82559, Note_on_c, 9, 42, 0
3, 82560, Note_on_c, 9, 42, 118
3, 83039, Note_on_c, 9, 42, 0
3, 83040, Note_on_c, 9, 42, 127
3, 83519, Note_on_c, 9, 42, 0
3, 83520, Note_on_c, 9, 42, 118
3, 83999, Note_on_c, 9, 42, 0
3, 84000, Note_on_c, 9, 42, 127
3, 84479, Note_on_c, 9, 42, 0
3, 84480, Note_on_c, 9, 42, 127
3, 84959, Note_on_c, 9, 42, 0
3, 84960, Note_on_c, 9, 42, 127
3, 85439, Note_on_c, 9, 42, 0
3, 85440, Note_on_c, 9, 42, 127
3, 85919, Note_on_c, 9, 42, 0
3, 85920, Note_on_c, 9, 42, 127
3, 86399, Note_on_c, 9, 42, 0
3, 86400, Note_on_c, 9, 42, 122
3, 86879, Note_on_c, 9, 42, 0
3, 86880, Note_on_c, 9, 42, 127
3, 87359, Note_on_c, 9, 42, 0
3, 87360, Note_on_c, 9, 42, 127
3, 87839, Note_on_c, 9, 42, 0
3, 87840, Note_on_c, 9, 42, 122
3, 88319, Note_on_c, 9, 42, 0
3, 88320, Note_on_c, 9, 42, 127
3, 88799, Note_on_c, 9, 42, 0
3, 88800, Note_on_c, 9, 42, 127
3, 89279, Note_on_c, 9, 42, 0
3, 89280, Note_on_c, 9, 42, 122
3, 89759, Note_on_c, 9, 42, 0
3, 89760, Note_on_c, 9, 42, 122
3, 90239, Note_on_c, 9, 42, 0
3, 90240, Note_on_c, 9, 42, 122
3, 90719, Note_on_c, 9, 42, 0
3, 90720, Note_on_c, 9, 42, 122
3, 91199, Note_on_c, 9, 42, 0
3, 91200, Note_on_c, 9, 42, 122
3, 91679, Note_on_c, 9, 42, 0
3, 91680, Note_on_c, 9, 42, 122
3, 92159, Note_on_c, 9, 42, 0
3, 92160, Note_on_c, 9, 42, 122
3, 92639, Note_on_c, 9, 42, 0
3, 92640, Note_on_c, 9, 42, 127
3, 93119, Note_on_c, 9, 42, 0
3, 93120, Note_on_c, 9, 42, 122
3, 93599, Note_on_c, 9, 42, 0
3, 93600, Note_on_c, 9, 42, 127
3, 94079, Note_on_c, 9, 42, 0
3, 94080, Note_on_c, 9, 42, 127
3, 94559, Note_on_c, 9, 42, 0
3, 94560, Note_on_c, 9, 42, 127
3, 95039, Note_on_c, 9, 42, 0
3, 95040, Note_on_c, 9, 42, 118
3, 95519, Note_on_c, 9, 42, 0
3, 95520, Note_on_c, 9, 42, 122
3, 95999, Note_on_c, 9, 42, 0
3, 96000, Note_on_c, 9, 42, 109
3, 96479, Note_on_c, 9, 42, 0
3, 96480, Note_on_c, 9, 42, 118
3, 96959, Note_on_c, 9, 42, 0
3, 96960, Note_on_c, 9, 42, 122
3, 97439, Note_on_c, 9, 42, 0
3, 97440, Note_on_c, 9, 42, 127
3, 97919, Note_on_c, 9, 42, 0
3, 97920, Note_on_c, 9, 42, 118
3, 98399, Note_on_c, 9, 42, 0
3, 98400, Note_on_c, 9, 42, 127
3, 98879, Note_on_c, 9, 42, 0
3, 98880, Note_on_c, 9, 42, 118
3, 99359, Note_on_c, 9, 42, 0
3, 99360, Note_on_c, 9, 42, 127
3, 99839, Note_on_c, 9, 42, 0
3, 99840, Note_on_c, 9, 42, 127
3, 100319, Note_on_c, 9, 42, 0
3, 100320, Note_on_c, 9, 42, 127
3, 100799, Note_on_c, 9, 42, 0
3, 100800, Note_on_c, 9, 42, 127
3, 101279, Note_on_c, 9, 42, 0
3, 101280, Note_on_c, 9, 42, 127
3, 101759, Note_on_c, 9, 42, 0
3, 101760, Note_on_c, 9, 42, 122
3, 102239, Note_on_c, 9, 42, 0
3, 102240, Note_on_c, 9, 42, 127
3, 102719, Note_on_c, 9, 42, 0
3, 102720, Note_on_c, 9, 42, 127
3, 103199, Note_on_c, 9, 42, 0
3, 103200, Note_on_c, 9, 42, 122
3, 103679, Note_on_c, 9, 42, 0
3, 103680, Note_on_c, 9, 42, 127
3, 104159, Note_on_c, 9, 42, 0
3, 104160, Note_on_c, 9, 42, 127
3, 104639, Note_on_c, 9, 42, 0
3, 104640, Note_on_c, 9, 42, 122
3, 105119, Note_on_c, 9, 42, 0
3, 105120, Note_on_c, 9, 42, 122
3, 105599, Note_on_c, 9, 42, 0
3, 105600, Note_on_c, 9, 42, 122
3, 106079, Note_on_c, 9, 42, 0
3, 106080, Note_on_c, 9, 42, 122
3, 106559, Note_on_c, 9, 42, 0
3, 106560, Note_on_c, 9, 42, 122
3, 107039, Note_on_c, 9, 42, 0
3, 107040, Note_on_c, 9, 42, 127
3, 107519, Note_on_c, 9, 42, 0
3, 107520, Note_on_c, 9, 42, 127
3, 107999, Note_on_c, 9, 42, 0
3, 108000, Note_on_c, 9, 42, 127
3, 108479, Note_on_c, 9, 42, 0
3, 108480, Note_on_c, 9, 42, 127
3, 108959, Note_on_c, 9, 42, 0
3, 110400, Note_on_c, 9, 42, 127
3, 110639, Note_on_c, 9, 42, 0
3, 110640, Note_on_c, 9, 42, 76
3, 110879, Note_on_c, 9, 42, 0
3, 110880, Note_on_c, 9, 42, 127
3, 111119, Note_on_c, 9, 42, 0
3, 111120, Note_on_c, 9, 42, 72
3, 111359, Note_on_c, 9, 42, 0
3, 111360, Note_on_c, 9, 42, 118
3, 111599, Note_on_c, 9, 42, 0
3, 111600, Note_on_c, 9, 42, 76
3, 111839, Note_on_c, 9, 42, 0
3, 111840, Note_on_c, 9, 42, 127
3, 112079, Note_on_c, 9, 42, 0
3, 112080, Note_on_c, 9, 42, 80
3, 112319, Note_on_c, 9, 42, 0
3, 112320, Note_on_c, 9, 42, 127
3, 112559, Note_on_c, 9, 42, 0
3, 112560, Note_on_c, 9, 42, 65
3, 112799, Note_on_c, 9, 42, 0
3, 112800, Note_on_c, 9, 42, 122
3, 113039, Note_on_c, 9, 42, 0
3, 113040, Note_on_c, 9, 42, 70
3, 113279, Note_on_c, 9, 42, 0
3, 113280, Note_on_c, 9, 42, 118
3, 113519, Note_on_c, 9, 42, 0
3, 113520, Note_on_c, 9, 42, 55
3, 113759, Note_on_c, 9, 42, 0
3, 113760, Note_on_c, 9, 42, 127
3, 113999, Note_on_c, 9, 42, 0
3, 114000, Note_on_c, 9, 42, 82
3, 114239, Note_on_c, 9, 42, 0
3, 114240, Note_on_c, 9, 42, 127
3, 114479, Note_on_c, 9, 42, 0
3, 114480, Note_on_c, 9, 42, 76
3, 114719, Note_on_c, 9, 42, 0
3, 114720, Note_on_c, 9, 42, 127
3, 114959, Note_on_c, 9, 42, 0
3, 114960, Note_on_c, 9, 42, 72
3, 115199, Note_on_c, 9, 42, 0
3, 115200, Note_on_c, 9, 42, 118
3, 115439, Note_on_c, 9, 42, 0
3, 115440, Note_on_c, 9, 42, 76
3, 115679, Note_on_c, 9, 42, 0
3, 115680, Note_on_c, 9, 42, 127
3, 115919, Note_on_c, 9, 42, 0
3, 115920, Note_on_c, 9, 42, 80
3, 116159, Note_on_c, 9, 42, 0
3, 116160, Note_on_c, 9, 42, 127
3, 116399, Note_on_c, 9, 42, 0
3, 116400, Note_on_c, 9, 42, 65
3, 116639, Note_on_c, 9, 42, 0
3, 116640, Note_on_c, 9, 42, 122
3, 116879, Note_on_c, 9, 42, 0
3, 116880, Note_on_c, 9, 42, 70
3, 117119, Note_on_c, 9, 42, 0
3, 117120, Note_on_c, 9, 42, 118
3, 117359, Note_on_c, 9, 42, 0
3, 117360, Note_on_c, 9, 42, 55
3, 117599, Note_on_c, 9, 42, 0
3, 117600, Note_on_c, 9, 42, 127
3, 117839, Note_on_c, 9, 42, 0
3, 117840, Note_on_c, 9, 42, 82
3, 118079, Note_on_c, 9, 42, 0
3, 118080, Note_on_c, 9, 42, 127
3, 118319, Note_on_c, 9, 42, 0
3, 118320, Note_on_c, 9, 42, 76
3, 118559, Note_on_c, 9, 42, 0
3, 118560, Note_on_c, 9, 42, 127
3, 118799, Note_on_c, 9, 42, 0
3, 118800, Note_on_c, 9, 42, 72
3, 119039, Note_on_c, 9, 42, 0
3, 119040, Note_on_c, 9, 42, 118
3, 119279, Note_on_c, 9, 42, 0
3, 119280, Note_on_c, 9, 42, 76
3, 119519, Note_on_c, 9, 42, 0
3, 119520, Note_on_c, 9, 42, 127
3, 119759, Note_on_c, 9, 42, 0
3, 119760, Note_on_c, 9, 42, 80
3, 119999, Note_on_c, 9, 42, 0
3, 120000, Note_on_c, 9, 42, 127
3, 120239, Note_on_c, 9, 42, 0
3, 120240, Note_on_c, 9, 42, 65
3, 120479, Note_on_c, 9, 42, 0
3, 120480, Note_on_c, 9, 42, 122
3, 120719, Note_on_c, 9, 42, 0
3, 120720, Note_on_c, 9, 42, 70
3, 120959, Note_on_c, 9, 42, 0
3, 120960, Note_on_c, 9, 42, 118
3, 121199, Note_on_c, 9, 42, 0
3, 121200, Note_on_c, 9, 42, 55
3, 121439, Note_on_c, 9, 42, 0
3, 121440, Note_on_c, 9, 42, 127
3, 121679, Note_on_c, 9, 42, 0
3, 121680, Note_on_c, 9, 42, 82
3, 121919, Note_on_c, 9, 42, 0
3, 121920, Note_on_c, 9, 42, 127
3, 122159, Note_on_c, 9, 42, 0
3, 122160, Note_on_c, 9, 42, 76
3, 122399, Note_on_c, 9, 42, 0
3, 122400, Note_on_c, 9, 42, 127
3, 122639, Note_on_c, 9, 42, 0
3, 122640, Note_on_c, 9, 42, 72
3, 122879, Note_on_c, 9, 42, 0
3, 122880, Note_on_c, 9, 42, 118
3, 123119, Note_on_c, 9, 42, 0
3, 123120, Note_on_c, 9, 42, 76
3, 123359, Note_on_c, 9, 42, 0
3, 123360, Note_on_c, 9, 42, 127
3, 123599, Note_on_c, 9, 42, 0
3, 123600, Note_on_c, 9, 42, 80
3, 123839, Note_on_c, 9, 42, 0
3, 123840, Note_on_c, 9, 42, 127
3, 124079, Note_on_c, 9, 42, 0
3, 124080, Note_on_c, 9, 42, 65
3, 124319, Note_on_c, 9, 42, 0
3, 124320, Note_on_c, 9, 42, 122
3, 124559, Note_on_c, 9, 42, 0
3, 124560, Note_on_c, 9, 42, 70
3, 124799, Note_on_c, 9, 42, 0
3, 124800, Note_on_c, 9, 42, 118
3, 125039, Note_on_c, 9, 42, 0
3, 125040, Note_on_c, 9, 42, 55
3, 125279, Note_on_c, 9, 42, 0
3, 125280, Note_on_c, 9, 42, 127
3, 125519, Note_on_c, 9, 42, 0
3, 125520, Note_on_c, 9, 42, 82
3, 125759, Note_on_c, 9, 42, 0
3, 125760, Note_on_c, 9, 42, 127
3, 125999, Note_on_c, 9, 42, 0
3, 126000, Note_on_c, 9, 42, 76
3, 126239, Note_on_c, 9, 42, 0
3, 126240, Note_on_c, 9, 42, 127
3, 126479, Note_on_c, 9, 42, 0
3, 126480, Note_on_c, 9, 42, 72
3, 126719, Note_on_c, 9, 42, 0
3, 126720, Note_on_c, 9, 42, 118
3, 126959, Note_on_c, 9, 42, 0
3, 126960, Note_on_c, 9, 42, 76
3, 127199, Note_on_c, 9, 42, 0
3, 127200, Note_on_c, 9, 42, 127
3, 127439, Note_on_c, 9, 42, 0
3, 127440, Note_on_c, 9, 42, 80
3, 127679, Note_on_c, 9, 42, 0
3, 127680, Note_on_c, 9, 42, 127
3, 127919, Note_on_c, 9, 42, 0
3, 127920, Note_on_c, 9, 42, 65
3, 128159, Note_on_c, 9, 42, 0
3, 128160, Note_on_c, 9, 42, 122
3, 128399, Note_on_c, 9, 42, 0
3, 128400, Note_on_c, 9, 42, 70
3, 128639, Note_on_c, 9, 42, 0
3, 128640, Note_on_c, 9, 42, 118
3, 128879, Note_on_c, 9, 42, 0
3, 128880, Note_on_c, 9, 42, 55
3, 129119, Note_on_c, 9, 42, 0
3, 129120, Note_on_c, 9, 42, 127
3, 129359, Note_on_c, 9, 42, 0
3, 129360, Note_on_c, 9, 42, 82
3, 129599, Note_on_c, 9, 42, 0
3, 129600, Note_on_c, 9, 42, 127
3, 129839, Note_on_c, 9, 42, 0
3, 129840, Note_on_c, 9, 42, 76
3, 130079, Note_on_c, 9, 42, 0
3, 130080, Note_on_c, 9, 42, 127
3, 130319, Note_on_c, 9, 42, 0
3, 130320, Note_on_c, 9, 42, 72
3, 130559, Note_on_c, 9, 42, 0
3, 130560, Note_on_c, 9, 42, 118
3, 130799, Note_on_c, 9, 42, 0
3, 130800, Note_on_c, 9, 42, 76
3, 131039, Note_on_c, 9, 42, 0
3, 131040, Note_on_c, 9, 42, 127
3, 131279, Note_on_c, 9, 42, 0
3, 131280, Note_on_c, 9, 42, 80
3, 131519, Note_on_c, 9, 42, 0
3, 131520, Note_on_c, 9, 42, 127
3, 131759, Note_on_c, 9, 42, 0
3, 131760, Note_on_c, 9, 42, 65
3, 131999, Note_on_c, 9, 42, 0
3, 132000, Note_on_c, 9, 42, 122
3, 132239, Note_on_c, 9, 42, 0
3, 132240, Note_on_c, 9, 42, 70
3, 132479, Note_on_c, 9, 42, 0
3, 132480, Note_on_c, 9, 42, 118
3, 132719, Note_on_c, 9, 42, 0
3, 132720, Note_on_c, 9, 42, 55
3, 132959, Note_on_c, 9, 42, 0
3, 132960, Note_on_c, 9, 42, 127
3, 133199, Note_on_c, 9, 42, 0
3, 133200, Note_on_c, 9, 42, 82
3, 133439, Note_on_c, 9, 42, 0
3, 133440, Note_on_c, 9, 42, 127
3, 133679, Note_on_c, 9, 42, 0
3, 133680, Note_on_c, 9, 42, 76
3, 133919, Note_on_c, 9, 42, 0
3, 133920, Note_on_c, 9, 42, 127
3, 134159, Note_on_c, 9, 42, 0
3, 134160, Note_on_c, 9, 42, 72
3, 134399, Note_on_c, 9, 42, 0
3, 134400, Note_on_c, 9, 42, 118
3, 134639, Note_on_c, 9, 42, 0
3, 134640, Note_on_c, 9, 42, 76
3, 134879, Note_on_c, 9, 42, 0
3, 134880, Note_on_c, 9, 42, 127
3, 135119, Note_on_c, 9, 42, 0
3, 135120, Note_on_c, 9, 42, 80
3, 135359, Note_on_c, 9, 42, 0
3, 135360, Note_on_c, 9, 42, 127
3, 135599, Note_on_c, 9, 42, 0
3, 135600, Note_on_c, 9, 42, 65
3, 135839, Note_on_c, 9, 42, 0
3, 135840, Note_on_c, 9, 42, 122
3, 136079, Note_on_c, 9, 42, 0
3, 136080, Note_on_c, 9, 42, 70
3, 136319, Note_on_c, 9, 42, 0
3, 136320, Note_on_c, 9, 42, 118
3, 136559, Note_on_c, 9, 42, 0
3, 136560, Note_on_c, 9, 42, 55
3, 136799, Note_on_c, 9, 42, 0
3, 136800, Note_on_c, 9, 42, 127
3, 137039, Note_on_c, 9, 42, 0
3, 137040, Note_on_c, 9, 42, 82
3, 137279, Note_on_c, 9, 42, 0
3, 137280, Note_on_c, 9, 42, 127
3, 137519, Note_on_c, 9, 42, 0
3, 137520, Note_on_c, 9, 42, 76
3, 137759, Note_on_c, 9, 42, 0
3, 137760, Note_on_c, 9, 42, 127
3, 137999, Note_on_c, 9, 42, 0
3, 138000, Note_on_c, 9, 42, 72
3, 138239, Note_on_c, 9, 42, 0
3, 138240, Note_on_c, 9, 42, 118
3, 138479, Note_on_c, 9, 42, 0
3, 138480, Note_on_c, 9, 42, 76
3, 138719, Note_on_c, 9, 42, 0
3, 138720, Note_on_c, 9, 42, 127
3, 138959, Note_on_c, 9, 42, 0
3, 138960, Note_on_c, 9, 42, 80
3, 139199, Note_on_c, 9, 42, 0
3, 139200, Note_on_c, 9, 42, 127
3, 139439, Note_on_c, 9, 42, 0
3, 139440, Note_on_c, 9, 42, 65
3, 139679, Note_on_c, 9, 42, 0
3, 139680, Note_on_c, 9, 42, 122
3, 139919, Note_on_c, 9, 42, 0
3, 139920, Note_on_c, 9, 42, 70
3, 140159, Note_on_c, 9, 42, 0
3, 140160, Note_on_c, 9, 42, 118
3, 140399, Note_on_c, 9, 42, 0
3, 140400, Note_on_c, 9, 42, 55
3, 140639, Note_on_c, 9, 42, 0
3, 140640, Note_on_c, 9, 42, 127
3, 140879, Note_on_c, 9, 42, 0
3, 140880, Note_on_c, 9, 42, 82
3, 141119, Note_on_c, 9, 42, 0
3, 141120, Note_on_c, 9, 42, 127
3, 141359, Note_on_c, 9, 42, 0
3, 141360, Note_on_c, 9, 42, 76
3, 141599, Note_on_c, 9, 42, 0
3, 141600, Note_on_c, 9, 42, 127
3, 141839, Note_on_c, 9, 42, 0
3, 141840, Note_on_c, 9, 42, 72
3, 142079, Note_on_c, 9, 42, 0
3, 142080, Note_on_c, 9, 42, 118
3, 142319, Note_on_c, 9, 42, 0
3, 142320, Note_on_c, 9, 42, 76
3, 142559, Note_on_c, 9, 42, 0
3, 142560, Note_on_c, 9, 42, 127
3, 142799, Note_on_c, 9, 42, 0
3, 142800, Note_on_c, 9, 42, 80
3, 143039, Note_on_c, 9, 42, 0
3, 143040, Note_on_c, 9, 42, 127
3, 143279, Note_on_c, 9, 42, 0
3, 143280, Note_on_c, 9, 42, 65
3, 143519, Note_on_c, 9, 42, 0
3, 143520, Note_on_c, 9, 42, 122
3, 143759, Note_on_c, 9, 42, 0
3, 143760, Note_on_c, 9, 42, 70
3, 143999, Note_on_c, 9, 42, 0
3, 144000, Note_on_c, 9, 42, 118
3, 144239, Note_on_c, 9, 42, 0
3, 144240, Note_on_c, 9, 42, 55
3, 144479, Note_on_c, 9, 42, 0
3, 144480, Note_on_c, 9, 42, 127
3, 144719, Note_on_c, 9, 42, 0
3, 144720, Note_on_c, 9, 42, 82
3, 144959, Note_on_c, 9, 42, 0
3, 144960, Note_on_c, 9, 42, 127
3, 145199, Note_on_c, 9, 42, 0
3, 145200, Note_on_c, 9, 42, 76
3, 145439, Note_on_c, 9, 42, 0
3, 145440, Note_on_c, 9, 42, 127
3, 145679, Note_on_c, 9, 42, 0
3, 145680, Note_on_c, 9, 42, 72
3, 145919, Note_on_c, 9, 42, 0
3, 145920, Note_on_c, 9, 42, 118
3, 146159, Note_on_c, 9, 42, 0
3, 146160, Note_on_c, 9, 42, 76
3, 146399, Note_on_c, 9, 42, 0
3, 146400, Note_on_c, 9, 42, 127
3, 146639, Note_on_c, 9, 42, 0
3, 146640, Note_on_c, 9, 42, 80
3, 146879, Note_on_c, 9, 42, 0
3, 146880, Note_on_c, 9, 42, 127
3, 147119, Note_on_c, 9, 42, 0
3, 147120, Note_on_c, 9, 42, 65
3, 147359, Note_on_c, 9, 42, 0
3, 147360, Note_on_c, 9, 42, 122
3, 147599, Note_on_c, 9, 42, 0
3, 147600, Note_on_c, 9, 42, 70
3, 147839, Note_on_c, 9, 42, 0
3, 147840, Note_on_c, 9, 42, 118
3, 148079, Note_on_c, 9, 42, 0
3, 148080, Note_on_c, 9, 42, 55
3, 148319, Note_on_c, 9, 42, 0
3, 148320, Note_on_c, 9, 42, 127
3, 148559, Note_on_c, 9, 42, 0
3, 148560, Note_on_c, 9, 42, 82
3, 148799, Note_on_c, 9, 42, 0
3, 148800, Note_on_c, 9, 42, 127
3, 149039, Note_on_c, 9, 42, 0
3, 149040, Note_on_c, 9, 42, 76
3, 149279, Note_on_c, 9, 42, 0
3, 149280, Note_on_c, 9, 42, 127
3, 149519, Note_on_c, 9, 42, 0
3, 149520, Note_on_c, 9, 42, 72
3, 149759, Note_on_c, 9, 42, 0
3, 149760, Note_on_c, 9, 42, 118
3, 149999, Note_on_c, 9, 42, 0
3, 150000, Note_on_c, 9, 42, 76
3, 150239, Note_on_c, 9, 42, 0
3, 150240, Note_on_c, 9, 42, 127
3, 150479, Note_on_c, 9, 42, 0
3, 150480, Note_on_c, 9, 42, 80
3, 150719, Note_on_c, 9, 42, 0
3, 150720, Note_on_c, 9, 42, 127
3, 150959, Note_on_c, 9, 42, 0
3, 150960, Note_on_c, 9, 42, 65
3, 151199, Note_on_c, 9, 42, 0
3, 151200, Note_on_c, 9, 42, 122
3, 151439, Note_on_c, 9, 42, 0
3, 151440, Note_on_c, 9, 42, 70
3, 151679, Note_on_c, 9, 42, 0
3, 151680, Note_on_c, 9, 42, 118
3, 151919, Note_on_c, 9, 42, 0
3, 151920, Note_on_c, 9, 42, 55
3, 152159, Note_on_c, 9, 42, 0
3, 152160, Note_on_c, 9, 42, 127
3, 152399, Note_on_c, 9, 42, 0
3, 152400, Note_on_c, 9, 42, 82
3, 152639, Note_on_c, 9, 42, 0
3, 152640, Note_on_c, 9, 42, 127
3, 152879, Note_on_c, 9, 42, 0
3, 152880, Note_on_c, 9, 42, 76
3, 153119, Note_on_c, 9, 42, 0
3, 153120, Note_on_c, 9, 42, 127
3, 153359, Note_on_c, 9, 42, 0
3, 153360, Note_on_c, 9, 42, 72
3, 153599, Note_on_c, 9, 42, 0
3, 153600, Note_on_c, 9, 42, 118
3, 153839, Note_on_c, 9, 42, 0
3, 153840, Note_on_c, 9, 42, 76
3, 154079, Note_on_c, 9, 42, 0
3, 154080, Note_on_c, 9, 42, 127
3, 154319, Note_on_c, 9, 42, 0
3, 154320, Note_on_c, 9, 42, 80
3, 154559, Note_on_c, 9, 42, 0
3, 154560, Note_on_c, 9, 42, 127
3, 154799, Note_on_c, 9, 42, 0
3, 154800, Note_on_c, 9, 42, 65
3, 155039, Note_on_c, 9, 42, 0
3, 155040, Note_on_c, 9, 42, 122
3, 155279, Note_on_c, 9, 42, 0
3, 155280, Note_on_c, 9, 42, 70
3, 155519, Note_on_c, 9, 42, 0
3, 155520, Note_on_c, 9, 42, 118
3, 155759, Note_on_c, 9, 42, 0
3, 155760, Note_on_c, 9, 42, 55
3, 155999, Note_on_c, 9, 42, 0
3, 156000, Note_on_c, 9, 42, 127
3, 156239, Note_on_c, 9, 42, 0
3, 156240, Note_on_c, 9, 42, 82
3, 156479, Note_on_c, 9, 42, 0
3, 156480, Note_on_c, 9, 42, 127
3, 156959, Note_on_c, 9, 42, 0
3, 156960, Note_on_c, 9, 42, 127
3, 157439, Note_on_c, 9, 42, 0
3, 157440, Note_on_c, 9, 42, 118
3, 157919, Note_on_c, 9, 42, 0
3, 157920, Note_on_c, 9, 42, 122
3, 158399, Note_on_c, 9, 42, 0
3, 158400, Note_on_c, 9, 42, 109
3, 158879, Note_on_c, 9, 42, 0
3, 158880, Note_on_c, 9, 42, 118
3, 159359, Note_on_c, 9, 42, 0
3, 159360, Note_on_c, 9, 42, 122
3, 159839, Note_on_c, 9, 42, 0
3, 159840, Note_on_c, 9, 42, 127
3, 160319, Note_on_c, 9, 42, 0
3, 160320, Note_on_c, 9, 42, 118
3, 160799, Note_on_c, 9, 42, 0
3, 160800, Note_on_c, 9, 42, 127
3, 161279, Note_on_c, 9, 42, 0
3, 161280, Note_on_c, 9, 42, 118
3, 161759, Note_on_c, 9, 42, 0
3, 161760, Note_on_c, 9, 42, 127
3, 162239, Note_on_c, 9, 42, 0
3, 162240, Note_on_c, 9, 42, 127
3, 162719, Note_on_c, 9, 42, 0
3, 162720, Note_on_c, 9, 42, 127
3, 163199, Note_on_c, 9, 42, 0
3, 163200, Note_on_c, 9, 42, 127
3, 163679, Note_on_c, 9, 42, 0
3, 163680, Note_on_c, 9, 42, 127
3, 164159, Note_on_c, 9, 42, 0
3, 164160, Note_on_c, 9, 42, 122
3, 164639, Note_on_c, 9, 42, 0
3, 164640, Note_on_c, 9, 42, 127
3, 165119, Note_on_c, 9, 42, 0
3, 165120, Note_on_c, 9, 42, 127
3, 165599, Note_on_c, 9, 42, 0
3, 165600, Note_on_c, 9, 42, 122
3, 166079, Note_on_c, 9, 42, 0
3, 166080, Note_on_c, 9, 42, 127
3, 166559, Note_on_c, 9, 42, 0
3, 166560, Note_on_c, 9, 42, 127
3, 167039, Note_on_c, 9, 42, 0
3, 167040, Note_on_c, 9, 42, 122
3, 167519, Note_on_c, 9, 42, 0
3, 167520, Note_on_c, 9, 42, 122
3, 167999, Note_on_c, 9, 42, 0
3, 168000, Note_on_c, 9, 42, 122
3, 168479, Note_on_c, 9, 42, 0
3, 168480, Note_on_c, 9, 42, 122
3, 168959, Note_on_c, 9, 42, 0
3, 168960, Note_on_c, 9, 42, 122
3, 169439, Note_on_c, 9, 42, 0
3, 169440, Note_on_c, 9, 42, 122
3, 169919, Note_on_c, 9, 42, 0
3, 169920, Note_on_c, 9, 42, 122
3, 170399, Note_on_c, 9, 42, 0
3, 170400, Note_on_c, 9, 42, 127
3, 170879, Note_on_c, 9, 42, 0
3, 170880, Note_on_c, 9, 42, 122
3, 171359, Note_on_c, 9, 42, 0
3, 171360, Note_on_c, 9, 42, 127
3, 171839, Note_on_c, 9, 42, 0
3, 171840, Note_on_c, 9, 42, 127
3, 172319, Note_on_c, 9, 42, 0
3, 172320, Note_on_c, 9, 42, 127
3, 172799, Note_on_c, 9, 42, 0
3, 172800, Note_on_c, 9, 42, 118
3, 173279, Note_on_c, 9, 42, 0
3, 173280, Note_on_c, 9, 42, 122
3, 173759, Note_on_c, 9, 42, 0
3, 173760, Note_on_c, 9, 42, 109
3, 174239, Note_on_c, 9, 42, 0
3, 174240, Note_on_c, 9, 42, 118
3, 174719, Note_on_c, 9, 42, 0
3, 174720, Note_on_c, 9, 42, 122
3, 175199, Note_on_c, 9, 42, 0
3, 175200, Note_on_c, 9, 42, 127
3, 175679, Note_on_c, 9, 42, 0
3, 175680, Note_on_c, 9, 42, 118
3, 176159, Note_on_c, 9, 42, 0
3, 176160, Note_on_c, 9, 42, 127
3, 176639, Note_on_c, 9, 42, 0
3, 176640, Note_on_c, 9, 42, 118
3, 177119, Note_on_c, 9, 42, 0
3, 177120, Note_on_c, 9, 42, 127
3, 177599, Note_on_c, 9, 42, 0
3, 177600, Note_on_c, 9, 42, 127
3, 178079, Note_on_c, 9, 42, 0
3, 178080, Note_on_c, 9, 42, 127
3, 178559, Note_on_c, 9, 42, 0
3, 178560, Note_on_c, 9, 42, 127
3, 179039, Note_on_c, 9, 42, 0
3, 179040, Note_on_c, 9, 42, 127
3, 179519, Note_on_c, 9, 42, 0
3, 179520, Note_on_c, 9, 42, 122
3, 179999, Note_on_c, 9, 42, 0
3, 180000, Note_on_c, 9, 42, 127
3, 180479, Note_on_c, 9, 42, 0
3, 180480, Note_on_c, 9, 42, 127
3, 180959, Note_on_c, 9, 42, 0
3, 180960, Note_on_c, 9, 42, 122
3, 181439, Note_on_c, 9, 42, 0
3, 181440, Note_on_c, 9, 42, 127
3, 181919, Note_on_c, 9, 42, 0
3, 181920, Note_on_c, 9, 42, 127
3, 182399, Note_on_c, 9, 42, 0
3, 182400, Note_on_c, 9, 42, 122
3, 182879, Note_on_c, 9, 42, 0
3, 182880, Note_on_c, 9, 42, 122
3, 183359, Note_on_c, 9, 42, 0
3, 183360, Note_on_c, 9, 42, 122
3, 183839, Note_on_c, 9, 42, 0
3, 183840, Note_on_c, 9, 42, 122
3, 184319, Note_on_c, 9, 42, 0
3, 184320, Note_on_c, 9, 42, 122
3, 184799, Note_on_c, 9, 42, 0
3, 184800, Note_on_c, 9, 42, 122
3, 185279, Note_on_c, 9, 42, 0
3, 185280, Note_on_c, 9, 42, 122
3, 185759, Note_on_c, 9, 42, 0
3, 185760, Note_on_c, 9, 42, 127
3, 186239, Note_on_c, 9, 42, 0
3, 186240, Note_on_c, 9, 42, 122
3, 186719, Note_on_c, 9, 42, 0
3, 186720, Note_on_c, 9, 42, 127
3, 187199, Note_on_c, 9, 42, 0
3, 187200, Note_on_c, 9, 42, 127
3, 187679, Note_on_c, 9, 42, 0
3, 187680, Note_on_c, 9, 42, 127
3, 188159, Note_on_c, 9, 42, 0
3, 188160, Note_on_c, 9, 42, 118
3, 188639, Note_on_c, 9, 42, 0
3, 188640, Note_on_c, 9, 42, 122
3, 189119, Note_on_c, 9, 42, 0
3, 189120, Note_on_c, 9, 42, 109
3, 189599, Note_on_c, 9, 42, 0
3, 189600, Note_on_c, 9, 42, 118
3, 190079, Note_on_c, 9, 42, 0
3, 190080, Note_on_c, 9, 42, 122
3, 190559, Note_on_c, 9, 42, 0
3, 190560, Note_on_c, 9, 42, 127
3, 191039, Note_on_c, 9, 42, 0
3, 191040, Note_on_c, 9, 42, 118
3, 191519, Note_on_c, 9, 42, 0
3, 191520, Note_on_c, 9, 42, 127
3, 191999, Note_on_c, 9, 42, 0
3, 192000, Note_on_c, 9, 42, 118
3, 192479, Note_on_c, 9, 42, 0
3, 192480, Note_on_c, 9, 42, 127
3, 192959, Note_on_c, 9, 42, 0
3, 192960, Note_on_c, 9, 42, 127
3, 193439, Note_on_c, 9, 42, 0
3, 193440, Note_on_c, 9, 42, 127
3, 193919, Note_on_c, 9, 42, 0
3, 193920, Note_on_c, 9, 42, 127
3, 194399, Note_on_c, 9, 42, 0
3, 194400, Note_on_c, 9, 42, 127
3, 194879, Note_on_c, 9, 42, 0
3, 194880, Note_on_c, 9, 42, 122
3, 195359, Note_on_c, 9, 42, 0
3, 195360, Note_on_c, 9, 42, 127
3, 195839, Note_on_c, 9, 42, 0
3, 195840, Note_on_c, 9, 42, 127
3, 196319, Note_on_c, 9, 42, 0
3, 196320, Note_on_c, 9, 42, 122
3, 196799, Note_on_c, 9, 42, 0
3, 196800, Note_on_c, 9, 42, 127
3, 197279, Note_on_c, 9, 42, 0
3, 197280, Note_on_c, 9, 42, 127
3, 197759, Note_on_c, 9, 42, 0
3, 197760, Note_on_c, 9, 42, 122
3, 198239, Note_on_c, 9, 42, 0
3, 198240, Note_on_c, 9, 42, 122
3, 198719, Note_on_c, 9, 42, 0
3, 198720, Note_on_c, 9, 42, 122
3, 199199, Note_on_c, 9, 42, 0
3, 199200, Note_on_c, 9, 42, 122
3, 199679, Note_on_c, 9, 42, 0
3, 199680, Note_on_c, 9, 42, 122
3, 200159, Note_on_c, 9, 42, 0
3, 200160, Note_on_c, 9, 42, 127
3, 200639, Note_on_c, 9, 42, 0
3, 200640, Note_on_c, 9, 42, 127
3, 201119, Note_on_c, 9, 42, 0
3, 201120, Note_on_c, 9, 42, 127
3, 201599, Note_on_c, 9, 42, 0
3, 201600, Note_on_c, 9, 42, 127
3, 202079, Note_on_c, 9, 42, 0
3, 202080, End_track
4, 0, Start_track
4, 0, Key_signature, 0, "major"
4, 0, Control_c, 9, 121, 0
4, 0, Program_c, 9, 0
4, 0, Control_c, 9, 7, 100
4, 0, Control_c, 9, 10, 64
4, 0, Control_c, 9, 91, 0
4, 0, Control_c, 9, 93, 0
4, 0, MIDI_port, 0
4, 17280, Note_on_c, 9, 49, 117
4, 17759, Note_on_c, 9, 49, 0
4, 32640, Note_on_c, 9, 49, 117
4, 33119, Note_on_c, 9, 49, 0
4, 48000, Note_on_c, 9, 49, 117
4, 48479, Note_on_c, 9, 49, 0
4, 63360, Note_on_c, 9, 49, 117
4, 63839, Note_on_c, 9, 49, 0
4, 78720, Note_on_c, 9, 49, 117
4, 79199, Note_on_c, 9, 49, 0
4, 86160, Note_on_c, 9, 49, 117
4, 86399, Note_on_c, 9, 49, 0
4, 94080, Note_on_c, 9, 49, 117
4, 94559, Note_on_c, 9, 49, 0
4, 101520, Note_on_c, 9, 49, 117
4, 101759, Note_on_c, 9, 49, 0
4, 108960, Note_on_c, 9, 49, 127
4, 109439, Note_on_c, 9, 49, 0
4, 110400, Note_on_c, 9, 49, 117
4, 110879, Note_on_c, 9, 49, 0
4, 125760, Note_on_c, 9, 49, 117
4, 126239, Note_on_c, 9, 49, 0
4, 141120, Note_on_c, 9, 49, 117
4, 141599, Note_on_c, 9, 49, 0
4, 156480, Note_on_c, 9, 49, 117
4, 156959, Note_on_c, 9, 49, 0
4, 163920, Note_on_c, 9, 49, 117
4, 164159, Note_on_c, 9, 49, 0
4, 171840, Note_on_c, 9, 49, 117
4, 172319, Note_on_c, 9, 49, 0
4, 179280, Note_on_c, 9, 49, 117
4, 179519, Note_on_c, 9, 49, 0
4, 187200, Note_on_c, 9, 49, 117
4, 187679, Note_on_c, 9, 49, 0
4, 194640, Note_on_c, 9, 49, 117
4, 194879, Note_on_c, 9, 49, 0
4, 202080, Note_on_c, 9, 49, 127
4, 202559, Note_on_c, 9, 49, 0
4, 203520, Note_on_c, 9, 49, 117
4, 203999, Note_on_c, 9, 49, 0
4, 204000, End_track
5, 0, Start_track
5, 0, Key_signature, 0, "major"
5, 0, Control_c, 9, 121, 0
5, 0, Program_c, 9, 0
5, 0, Control_c, 9, 7, 100
5, 0, Control_c, 9, 10, 64
5, 0, Control_c, 9, 91, 0
5, 0, Control_c, 9, 93, 0
5, 0, MIDI_port, 0
5, 78720, Note_on_c, 9, 51, 117
5, 79199, Note_on_c, 9, 51, 0
5, 79200, Note_on_c, 9, 51, 123
5, 79679, Note_on_c, 9, 51, 0
5, 79680, Note_on_c, 9, 51, 117
5, 80159, Note_on_c, 9, 51, 0
5, 80160, Note_on_c, 9, 51, 117
5, 80639, Note_on_c, 9, 51, 0
5, 80640, Note_on_c, 9, 51, 123
5, 81119, Note_on_c, 9, 51, 0
5, 81120, Note_on_c, 9, 51, 123
5, 81599, Note_on_c, 9, 51, 0
5, 81600, Note_on_c, 9, 51, 117
5, 82079, Note_on_c, 9, 51, 0
5, 82080, Note_on_c, 9, 51, 117
5, 82559, Note_on_c, 9, 51, 0
5, 82560, Note_on_c, 9, 51, 117
5, 83039, Note_on_c, 9, 51, 0
5, 83040, Note_on_c, 9, 51, 117
5, 83519, Note_on_c, 9, 51, 0
5, 83520, Note_on_c, 9, 51, 117
5, 83999, Note_on_c, 9, 51, 0
5, 84000, Note_on_c, 9, 51, 117
5, 84479, Note_on_c, 9, 51, 0
5, 84480, Note_on_c, 9, 51, 112
5, 84959, Note_on_c, 9, 51, 0
5, 84960, Note_on_c, 9, 51, 117
5, 85439, Note_on_c, 9, 51, 0
5, 85440, Note_on_c, 9, 51, 123
5, 85919, Note_on_c, 9, 51, 0
5, 85920, Note_on_c, 9, 51, 123
5, 86399, Note_on_c, 9, 51, 0
5, 86880, Note_on_c, 9, 51, 117
5, 87359, Note_on_c, 9, 51, 0
5, 87360, Note_on_c, 9, 51, 123
5, 87839, Note_on_c, 9, 51, 0
5, 87840, Note_on_c, 9, 51, 117
5, 88319, Note_on_c, 9, 51, 0
5, 88320, Note_on_c, 9, 51, 123
5, 88799, Note_on_c, 9, 51, 0
5, 88800, Note_on_c, 9, 51, 117
5, 89279, Note_on_c, 9, 51, 0
5, 89280, Note_on_c, 9, 51, 117
5, 89759, Note_on_c, 9, 51, 0
5, 89760, Note_on_c, 9, 51, 117
5, 90239, Note_on_c, 9, 51, 0
5, 90240, Note_on_c, 9, 51, 123
5, 90719, Note_on_c, 9, 51, 0
5, 90720, Note_on_c, 9, 51, 117
5, 91199, Note_on_c, 9, 51, 0
5, 91200, Note_on_c, 9, 51, 117
5, 91679, Note_on_c, 9, 51, 0
5, 91680, Note_on_c, 9, 51, 123
5, 92159, Note_on_c, 9, 51, 0
5, 92160, Note_on_c, 9, 51, 117
5, 92639, Note_on_c, 9, 51, 0
5, 92640, Note_on_c, 9, 51, 123
5, 93119, Note_on_c, 9, 51, 0
5, 94080, Note_on_c, 9, 51, 117
5, 94559, Note_on_c, 9, 51, 0
5, 94560, Note_on_c, 9, 51, 123
5, 95039, Note_on_c, 9, 51, 0
5, 95040, Note_on_c, 9, 51, 117
5, 95519, Note_on_c, 9, 51, 0
5, 95520, Note_on_c, 9, 51, 117
5, 95999, Note_on_c, 9, 51, 0
5, 96000, Note_on_c, 9, 51, 123
5, 96479, Note_on_c, 9, 51, 0
5, 96480, Note_on_c, 9, 51, 123
5, 96959, Note_on_c, 9, 51, 0
5, 96960, Note_on_c, 9, 51, 117
5, 97439, Note_on_c, 9, 51, 0
5, 97440, Note_on_c, 9, 51, 117
5, 97919, Note_on_c, 9, 51, 0
5, 97920, Note_on_c, 9, 51, 117
5, 98399, Note_on_c, 9, 51, 0
5, 98400, Note_on_c, 9, 51, 117
5, 98879, Note_on_c, 9, 51, 0
5, 98880, Note_on_c, 9, 51, 117
5, 99359, Note_on_c, 9, 51, 0
5, 99360, Note_on_c, 9, 51, 117
5, 99839, Note_on_c, 9, 51, 0
5, 99840, Note_on_c, 9, 51, 112
5, 100319, Note_on_c, 9, 51, 0
5, 100320, Note_on_c, 9, 51, 117
5, 100799, Note_on_c, 9, 51, 0
5, 100800, Note_on_c, 9, 51, 123
5, 101279, Note_on_c, 9, 51, 0
5, 101280, Note_on_c, 9, 51, 123
5, 101759, Note_on_c, 9, 51, 0
5, 102240, Note_on_c, 9, 51, 117
5, 102719, Note_on_c, 9, 51, 0
5, 102720, Note_on_c, 9, 51, 123
5, 103199, Note_on_c, 9, 51, 0
5, 103200, Note_on_c, 9, 51, 117
5, 103679, Note_on_c, 9, 51, 0
5, 103680, Note_on_c, 9, 51, 123
5, 104159, Note_on_c, 9, 51, 0
5, 104160, Note_on_c, 9, 51, 117
5, 104639, Note_on_c, 9, 51, 0
5, 104640, Note_on_c, 9, 51, 117
5, 105119, Note_on_c, 9, 51, 0
5, 105120, Note_on_c, 9, 51, 117
5, 105599, Note_on_c, 9, 51, 0
5, 105600, Note_on_c, 9, 51, 123
5, 106079, Note_on_c, 9, 51, 0
5, 106080, Note_on_c, 9, 51, 117
5, 106559, Note_on_c, 9, 51, 0
5, 106560, Note_on_c, 9, 51, 123
5, 107039, Note_on_c, 9, 51, 0
5, 107040, Note_on_c, 9, 51, 117
5, 107519, Note_on_c, 9, 51, 0
5, 107520, Note_on_c, 9, 51, 123
5, 107999, Note_on_c, 9, 51, 0
5, 108000, Note_on_c, 9, 51, 123
5, 108479, Note_on_c, 9, 51, 0
5, 108480, Note_on_c, 9, 51, 127
5, 108959, Note_on_c, 9, 51, 0
5, 156480, Note_on_c, 9, 51, 117
5, 156959, Note_on_c, 9, 51, 0
5, 156960, Note_on_c, 9, 51, 123
5, 157439, Note_on_c, 9, 51, 0
5, 157440, Note_on_c, 9, 51, 117
5, 157919, Note_on_c, 9, 51, 0
5, 157920, Note_on_c, 9, 51, 117
5, 158399, Note_on_c, 9, 51, 0
5, 158400, Note_on_c, 9, 51, 123
5, 158879, Note_on_c, 9, 51, 0
5, 158880, Note_on_c, 9, 51, 123
5, 159359, Note_on_c, 9, 51, 0
5, 159360, Note_on_c, 9, 51, 117
5, 159839, Note_on_c, 9, 51, 0
5, 159840, Note_on_c, 9, 51, 117
5, 160319, Note_on_c, 9, 51, 0
5, 160320, Note_on_c, 9, 51, 117
5, 160799, Note_on_c, 9, 51, 0
5, 160800, Note_on_c, 9, 51, 117
5, 161279, Note_on_c, 9, 51, 0
5, 161280, Note_on_c, 9, 51, 117
5, 161759, Note_on_c, 9, 51, 0
5, 161760, Note_on_c, 9, 51, 117
5, 162239, Note_on_c, 9, 51, 0
5, 162240, Note_on_c, 9, 51, 112
5, 162719, Note_on_c, 9, 51, 0
5, 162720, Note_on_c, 9, 51, 117
5, 163199, Note_on_c, 9, 51, 0
5, 163200, Note_on_c, 9, 51, 123
5, 163679, Note_on_c, 9, 51, 0
5, 163680, Note_on_c, 9, 51, 123
5, 164159, Note_on_c, 9, 51, 0
5, 164640, Note_on_c, 9, 51, 117
5, 165119, Note_on_c, 9, 51, 0
5, 165120, Note_on_c, 9, 51, 123
5, 165599, Note_on_c, 9, 51, 0
5, 165600, Note_on_c, 9, 51, 117
5, 166079, Note_on_c, 9, 51, 0
5, 166080, Note_on_c, 9, 51, 123
5, 166559, Note_on_c, 9, 51, 0
5, 166560, Note_on_c, 9, 51, 117
5, 167039, Note_on_c, 9, 51, 0
5, 167040, Note_on_c, 9, 51, 117
5, 167519, Note_on_c, 9, 51, 0
5, 167520, Note_on_c, 9, 51, 117
5, 167999, Note_on_c, 9, 51, 0
5, 168000, Note_on_c, 9, 51, 123
5, 168479, Note_on_c, 9, 51, 0
5, 168480, Note_on_c, 9, 51, 117
5, 168959, Note_on_c, 9, 51, 0
5, 168960, Note_on_c, 9, 51, 117
5, 169439, Note_on_c, 9, 51, 0
5, 169440, Note_on_c, 9, 51, 123
5, 169919, Note_on_c, 9, 51, 0
5, 169920, Note_on_c, 9, 51, 117
5, 170399, Note_on_c, 9, 51, 0
5, 170400, Note_on_c, 9, 51, 123
5, 170879, Note_on_c, 9, 51, 0
5, 171840, Note_on_c, 9, 51, 117
5, 172319, Note_on_c, 9, 51, 0
5, 172320, Note_on_c, 9, 51, 123
5, 172799, Note_on_c, 9, 51, 0
5, 172800, Note_on_c, 9, 51, 117
5, 173279, Note_on_c, 9, 51, 0
5, 173280, Note_on_c, 9, 51, 117
5, 173759, Note_on_c, 9, 51, 0
5, 173760, Note_on_c, 9, 51, 123
5, 174239, Note_on_c, 9, 51, 0
5, 174240, Note_on_c, 9, 51, 123
5, 174719, Note_on_c, 9, 51, 0
5, 174720, Note_on_c, 9, 51, 117
5, 175199, Note_on_c, 9, 51, 0
5, 175200, Note_on_c, 9, 51, 117
5, 175679, Note_on_c, 9, 51, 0
5, 175680, Note_on_c, 9, 51, 117
5, 176159, Note_on_c, 9, 51, 0
5, 176160, Note_on_c, 9, 51, 117
5, 176639, Note_on_c, 9, 51, 0
5, 176640, Note_on_c, 9, 51, 117
5, 177119, Note_on_c, 9, 51, 0
5, 177120, Note_on_c, 9, 51, 117
5, 177599, Note_on_c, 9, 51, 0
5, 177600, Note_on_c, 9, 51, 112
5, 178079, Note_on_c, 9, 51, 0
5, 178080, Note_on_c, 9, 51, 117
5, 178559, Note_on_c, 9, 51, 0
5, 178560, Note_on_c, 9, 51, 123
5, 179039, Note_on_c, 9, 51, 0
5, 179040, Note_on_c, 9, 51, 123
5, 179519, Note_on_c, 9, 51, 0
5, 180000, Note_on_c, 9, 51, 117
5, 180479, Note_on_c, 9, 51, 0
5, 180480, Note_on_c, 9, 51, 123
5, 180959, Note_on_c, 9, 51, 0
5, 180960, Note_on_c, 9, 51, 117
5, 181439, Note_on_c, 9, 51, 0
5, 181440, Note_on_c, 9, 51, 123
5, 181919, Note_on_c, 9, 51, 0
5, 181920, Note_on_c, 9, 51, 117
5, 182399, Note_on_c, 9, 51, 0
5, 182400, Note_on_c, 9, 51, 117
5, 182879, Note_on_c, 9, 51, 0
5, 182880, Note_on_c, 9, 51, 117
5, 183359, Note_on_c, 9, 51, 0
5, 183360, Note_on_c, 9, 51, 123
5, 183839, Note_on_c, 9, 51, 0
5, 183840, Note_on_c, 9, 51, 117
5, 184319, Note_on_c, 9, 51, 0
5, 184320, Note_on_c, 9, 51, 117
5, 184799, Note_on_c, 9, 51, 0
5, 184800, Note_on_c, 9, 51, 123
5, 185279, Note_on_c, 9, 51, 0
5, 185280, Note_on_c, 9, 51, 117
5, 185759, Note_on_c, 9, 51, 0
5, 185760, Note_on_c, 9, 51, 123
5, 186239, Note_on_c, 9, 51, 0
5, 187200, Note_on_c, 9, 51, 117
5, 187679, Note_on_c, 9, 51, 0
5, 187680, Note_on_c, 9, 51, 123
5, 188159, Note_on_c, 9, 51, 0
5, 188160, Note_on_c, 9, 51, 117
5, 188639, Note_on_c, 9, 51, 0
5, 188640, Note_on_c, 9, 51, 117
5, 189119, Note_on_c, 9, 51, 0
5, 189120, Note_on_c, 9, 51, 123
5, 189599, Note_on_c, 9, 51, 0
5, 189600, Note_on_c, 9, 51, 123
5, 190079, Note_on_c, 9, 51, 0
5, 190080, Note_on_c, 9, 51, 117
5, 190559, Note_on_c, 9, 51, 0
5, 190560, Note_on_c, 9, 51, 117
5, 191039, Note_on_c, 9, 51, 0
5, 191040, Note_on_c, 9, 51, 117
5, 191519, Note_on_c, 9, 51, 0
5, 191520, Note_on_c, 9, 51, 117
5, 191999, Note_on_c, 9, 51, 0
5, 192000, Note_on_c, 9, 51, 117
5, 192479, Note_on_c, 9, 51, 0
5, 192480, Note_on_c, 9, 51, 117
5, 192959, Note_on_c, 9, 51, 0
5, 192960, Note_on_c, 9, 51, 112
5, 193439, Note_on_c, 9, 51, 0
5, 193440, Note_on_c, 9, 51, 117
5, 193919, Note_on_c, 9, 51, 0
5, 193920, Note_on_c, 9, 51, 123
5, 194399, Note_on_c, 9, 51, 0
5, 194400, Note_on_c, 9, 51, 123
5, 194879, Note_on_c, 9, 51, 0
5, 195360, Note_on_c, 9, 51, 117
5, 195839, Note_on_c, 9, 51, 0
5, 195840, Note_on_c, 9, 51, 123
5, 196319, Note_on_c, 9, 51, 0
5, 196320, Note_on_c, 9, 51, 117
5, 196799, Note_on_c, 9, 51, 0
5, 196800, Note_on_c, 9, 51, 123
5, 197279, Note_on_c, 9, 51, 0
5, 197280, Note_on_c, 9, 51, 117
5, 197759, Note_on_c, 9, 51, 0
5, 197760, Note_on_c, 9, 51, 117
5, 198239, Note_on_c, 9, 51, 0
5, 198240, Note_on_c, 9, 51, 117
5, 198719, Note_on_c, 9, 51, 0
5, 198720, Note_on_c, 9, 51, 123
5, 199199, Note_on_c, 9, 51, 0
5, 199200, Note_on_c, 9, 51, 117
5, 199679, Note_on_c, 9, 51, 0
5, 199680, Note_on_c, 9, 51, 123
5, 200159, Note_on_c, 9, 51, 0
5, 200160, Note_on_c, 9, 51, 117
5, 200639, Note_on_c, 9, 51, 0
5, 200640, Note_on_c, 9, 51, 123
5, 201119, Note_on_c, 9, 51, 0
5, 201120, Note_on_c, 9, 51, 123
5, 201599, Note_on_c, 9, 51, 0
5, 201600, Note_on_c, 9, 51, 127
5, 202079, Note_on_c, 9, 51, 0
5, 202080, End_track
6, 0, Start_track
6, 0, Key_signature, 0, "major"
6, 0, Control_c, 9, 121, 0
6, 0, Program_c, 9, 0
6, 0, Control_c, 9, 7, 100
6, 0, Control_c, 9, 10, 64
6, 0, Control_c, 9, 91, 0
6, 0, Control_c, 9, 93, 0
6, 0, MIDI_port, 0
6, 32880, Note_on_c, 9, 62, 117
6, 33119, Note_on_c, 9, 62, 0
6, 33840, Note_on_c, 9, 62, 112
6, 34079, Note_on_c, 9, 62, 0
6, 34800, Note_on_c, 9, 62, 123
6, 35039, Note_on_c, 9, 62, 0
6, 35760, Note_on_c, 9, 62, 127
6, 35999, Note_on_c, 9, 62, 0
6, 36720, Note_on_c, 9, 62, 117
6, 36959, Note_on_c, 9, 62, 0
6, 37680, Note_on_c, 9, 62, 117
6, 37919, Note_on_c, 9, 62, 0
6, 38640, Note_on_c, 9, 62, 127
6, 38879, Note_on_c, 9, 62, 0
6, 39600, Note_on_c, 9, 62, 123
6, 39839, Note_on_c, 9, 62, 0
6, 40560, Note_on_c, 9, 62, 117
6, 40799, Note_on_c, 9, 62, 0
6, 41520, Note_on_c, 9, 62, 117
6, 41759, Note_on_c, 9, 62, 0
6, 42480, Note_on_c, 9, 62, 123
6, 42719, Note_on_c, 9, 62, 0
6, 43440, Note_on_c, 9, 62, 117
6, 43679, Note_on_c, 9, 62, 0
6, 44400, Note_on_c, 9, 62, 123
6, 44639, Note_on_c, 9, 62, 0
6, 45360, Note_on_c, 9, 62, 117
6, 45599, Note_on_c, 9, 62, 0
6, 46320, Note_on_c, 9, 62, 123
6, 46559, Note_on_c, 9, 62, 0
6, 47280, Note_on_c, 9, 62, 123
6, 47519, Note_on_c, 9, 62, 0
6, 48240, Note_on_c, 9, 62, 117
6, 48479, Note_on_c, 9, 62, 0
6, 49200, Note_on_c, 9, 62, 112
6, 49439, Note_on_c, 9, 62, 0
6, 50160, Note_on_c, 9, 62, 123
6, 50399, Note_on_c, 9, 62, 0
6, 51120, Note_on_c, 9, 62, 127
6, 51359, Note_on_c, 9, 62, 0
6, 52080, Note_on_c, 9, 62, 117
6, 52319, Note_on_c, 9, 62, 0
6, 53040, Note_on_c, 9, 62, 117
6, 53279, Note_on_c, 9, 62, 0
6, 54000, Note_on_c, 9, 62, 127
6, 54239, Note_on_c, 9, 62, 0
6, 54960, Note_on_c, 9, 62, 123
6, 55199, Note_on_c, 9, 62, 0
6, 55920, Note_on_c, 9, 62, 117
6, 56159, Note_on_c, 9, 62, 0
6, 56880, Note_on_c, 9, 62, 117
6, 57119, Note_on_c, 9, 62, 0
6, 57840, Note_on_c, 9, 62, 123
6, 58079, Note_on_c, 9, 62, 0
6, 58800, Note_on_c, 9, 62, 117
6, 59039, Note_on_c, 9, 62, 0
6, 59760, Note_on_c, 9, 62, 123
6, 59999, Note_on_c, 9, 62, 0
6, 60720, Note_on_c, 9, 62, 117
6, 60959, Note_on_c, 9, 62, 0
6, 61680, Note_on_c, 9, 62, 123
6, 61919, Note_on_c, 9, 62, 0
6, 62640, Note_on_c, 9, 62, 123
6, 62879, Note_on_c, 9, 62, 0
6, 63600, Note_on_c, 9, 62, 117
6, 63839, Note_on_c, 9, 62, 0
6, 64560, Note_on_c, 9, 62, 112
6, 64799, Note_on_c, 9, 62, 0
6, 65520, Note_on_c, 9, 62, 123
6, 65759, Note_on_c, 9, 62, 0
6, 66480, Note_on_c, 9, 62, 127
6, 66719, Note_on_c, 9, 62, 0
6, 67440, Note_on_c, 9, 62, 117
6, 67679, Note_on_c, 9, 62, 0
6, 68400, Note_on_c, 9, 62, 117
6, 68639, Note_on_c, 9, 62, 0
6, 69360, Note_on_c, 9, 62, 127
6, 69599, Note_on_c, 9, 62, 0
6, 70320, Note_on_c, 9, 62, 123
6, 70559, Note_on_c, 9, 62, 0
6, 71280, Note_on_c, 9, 62, 117
6, 71519, Note_on_c, 9, 62, 0
6, 72240, Note_on_c, 9, 62, 117
6, 72479, Note_on_c, 9, 62, 0
6, 73200, Note_on_c, 9, 62, 123
6, 73439, Note_on_c, 9, 62, 0
6, 74160, Note_on_c, 9, 62, 117
6, 74399, Note_on_c, 9, 62, 0
6, 75120, Note_on_c, 9, 62, 123
6, 75359, Note_on_c, 9, 62, 0
6, 76080, Note_on_c, 9, 62, 117
6, 76319, Note_on_c, 9, 62, 0
6, 77040, Note_on_c, 9, 62, 123
6, 77279, Note_on_c, 9, 62, 0
6, 78000, Note_on_c, 9, 62, 123
6, 78239, Note_on_c, 9, 62, 0
6, 126000, Note_on_c, 9, 62, 117
6, 126239, Note_on_c, 9, 62, 0
6, 126960, Note_on_c, 9, 62, 112
6, 127199, Note_on_c, 9, 62, 0
6, 127920, Note_on_c, 9, 62, 123
6, 128159, Note_on_c, 9, 62, 0
6, 128880, Note_on_c, 9, 62, 127
6, 129119, Note_on_c, 9, 62, 0
6, 129840, Note_on_c, 9, 62, 117
6, 130079, Note_on_c, 9, 62, 0
6, 130800, Note_on_c, 9, 62, 117
6, 131039, Note_on_c, 9, 62, 0
6, 131760, Note_on_c, 9, 62, 127
6, 131999, Note_on_c, 9, 62, 0
6, 132720, Note_on_c, 9, 62, 123
6, 132959, Note_on_c, 9, 62, 0
6, 133680, Note_on_c, 9, 62, 117
6, 133919, Note_on_c, 9, 62, 0
6, 134640, Note_on_c, 9, 62, 117
6, 134879, Note_on_c, 9, 62, 0
6, 135600, Note_on_c, 9, 62, 123
6, 135839, Note_on_c, 9, 62, 0
6, 136560, Note_on_c, 9, 62, 117
6, 136799, Note_on_c, 9, 62, 0
6, 137520, Note_on_c, 9, 62, 123
6, 137759, Note_on_c, 9, 62, 0
6, 138480, Note_on_c, 9, 62, 117
6, 138719, Note_on_c, 9, 62, 0
6, 139440, Note_on_c, 9, 62, 123
6, 139679, Note_on_c, 9, 62, 0
6, 140400, Note_on_c, 9, 62, 123
6, 140639, Note_on_c, 9, 62, 0
6, 141360, Note_on_c, 9, 62, 117
6, 141599, Note_on_c, 9, 62, 0
6, 142320, Note_on_c, 9, 62, 112
6, 142559, Note_on_c, 9, 62, 0
6, 143280, Note_on_c, 9, 62, 123
6, 143519, Note_on_c, 9, 62, 0
6, 144240, Note_on_c, 9, 62, 127
6, 144479, Note_on_c, 9, 62, 0
6, 145200, Note_on_c, 9, 62, 117
6, 145439, Note_on_c, 9, 62, 0
6, 146160, Note_on_c, 9, 62, 117
6, 146399, Note_on_c, 9, 62, 0
6, 147120, Note_on_c, 9, 62, 127
6, 147359, Note_on_c, 9, 62, 0
6, 148080, Note_on_c, 9, 62, 123
6, 148319, Note_on_c, 9, 62, 0
6, 149040, Note_on_c, 9, 62, 117
6, 149279, Note_on_c, 9, 62, 0
6, 150000, Note_on_c, 9, 62, 117
6, 150239, Note_on_c, 9, 62, 0
6, 150960, Note_on_c, 9, 62, 123
6, 151199, Note_on_c, 9, 62, 0
6, 151920, Note_on_c, 9, 62, 117
6, 152159, Note_on_c, 9, 62, 0
6, 152880, Note_on_c, 9, 62, 123
6, 153119, Note_on_c, 9, 62, 0
6, 153840, Note_on_c, 9, 62, 117
6, 154079, Note_on_c, 9, 62, 0
6, 154800, Note_on_c, 9, 62, 123
6, 155039, Note_on_c, 9, 62, 0
6, 155760, Note_on_c, 9, 62, 123
6, 155999, Note_on_c, 9, 62, 0
6, 156000, End_track
7, 0, Start_track
7, 0, Key_signature, 0, "major"
7, 0, Control_c, 9, 121, 0
7, 0, Program_c, 9, 0
7, 0, Control_c, 9, 7, 100
7, 0, Control_c, 9, 10, 64
7, 0, Control_c, 9, 91, 0
7, 0, Control_c, 9, 93, 0
7, 0, MIDI_port, 0
7, 34080, Note_on_c, 9, 64, 117
7, 34319, Note_on_c, 9, 64, 0
7, 34320, Note_on_c, 9, 64, 112
7, 34559, Note_on_c, 9, 64, 0
7, 36000, Note_on_c, 9, 64, 108
7, 36239, Note_on_c, 9, 64, 0
7, 36240, Note_on_c, 9, 64, 117
7, 36479, Note_on_c, 9, 64, 0
7, 37920, Note_on_c, 9, 64, 117
7, 38159, Note_on_c, 9, 64, 0
7, 38160, Note_on_c, 9, 64, 112
7, 38399, Note_on_c, 9, 64, 0
7, 39840, Note_on_c, 9, 64, 112
7, 40079, Note_on_c, 9, 64, 0
7, 40080, Note_on_c, 9, 64, 108
7, 40319, Note_on_c, 9, 64, 0
7, 41760, Note_on_c, 9, 64, 108
7, 41999, Note_on_c, 9, 64, 0
7, 42000, Note_on_c, 9, 64, 112
7, 42239, Note_on_c, 9, 64, 0
7, 43680, Note_on_c, 9, 64, 117
7, 43919, Note_on_c, 9, 64, 0
7, 43920, Note_on_c, 9, 64, 117
7, 44159, Note_on_c, 9, 64, 0
7, 45600, Note_on_c, 9, 64, 117
7, 45839, Note_on_c, 9, 64, 0
7, 45840, Note_on_c, 9, 64, 117
7, 46079, Note_on_c, 9, 64, 0
7, 47520, Note_on_c, 9, 64, 117
7, 47759, Note_on_c, 9, 64, 0
7, 47760, Note_on_c, 9, 64, 117
7, 47999, Note_on_c, 9, 64, 0
7, 49440, Note_on_c, 9, 64, 117
7, 49679, Note_on_c, 9, 64, 0
7, 49680, Note_on_c, 9, 64, 112
7, 49919, Note_on_c, 9, 64, 0
7, 51360, Note_on_c, 9, 64, 108
7, 51599, Note_on_c, 9, 64, 0
7, 51600, Note_on_c, 9, 64, 117
7, 51839, Note_on_c, 9, 64, 0
7, 53280, Note_on_c, 9, 64, 117
7, 53519, Note_on_c, 9, 64, 0
7, 53520, Note_on_c, 9, 64, 112
7, 53759, Note_on_c, 9, 64, 0
7, 55200, Note_on_c, 9, 64, 112
7, 55439, Note_on_c, 9, 64, 0
7, 55440, Note_on_c, 9, 64, 108
7, 55679, Note_on_c, 9, 64, 0
7, 57120, Note_on_c, 9, 64, 108
7, 57359, Note_on_c, 9, 64, 0
7, 57360, Note_on_c, 9, 64, 112
7, 57599, Note_on_c, 9, 64, 0
7, 59040, Note_on_c, 9, 64, 117
7, 59279, Note_on_c, 9, 64, 0
7, 59280, Note_on_c, 9, 64, 117
7, 59519, Note_on_c, 9, 64, 0
7, 60960, Note_on_c, 9, 64, 117
7, 61199, Note_on_c, 9, 64, 0
7, 61200, Note_on_c, 9, 64, 117
7, 61439, Note_on_c, 9, 64, 0
7, 62880, Note_on_c, 9, 64, 117
7, 63119, Note_on_c, 9, 64, 0
7, 63120, Note_on_c, 9, 64, 117
7, 63359, Note_on_c, 9, 64, 0
7, 64800, Note_on_c, 9, 64, 117
7, 65039, Note_on_c, 9, 64, 0
7, 65040, Note_on_c, 9, 64, 112
7, 65279, Note_on_c, 9, 64, 0
7, 66720, Note_on_c, 9, 64, 108
7, 66959, Note_on_c, 9, 64, 0
7, 66960, Note_on_c, 9, 64, 117
7, 67199, Note_on_c, 9, 64, 0
7, 68640, Note_on_c, 9, 64, 117
7, 68879, Note_on_c, 9, 64, 0
7, 68880, Note_on_c, 9, 64, 112
7, 69119, Note_on_c, 9, 64, 0
7, 70560, Note_on_c, 9, 64, 112
7, 70799, Note_on_c, 9, 64, 0
7, 70800, Note_on_c, 9, 64, 108
7, 71039, Note_on_c, 9, 64, 0
7, 72480, Note_on_c, 9, 64, 108
7, 72719, Note_on_c, 9, 64, 0
7, 72720, Note_on_c, 9, 64, 112
7, 72959, Note_on_c, 9, 64, 0
7, 74400, Note_on_c, 9, 64, 117
7, 74639, Note_on_c, 9, 64, 0
7, 74640, Note_on_c, 9, 64, 117
7, 74879, Note_on_c, 9, 64, 0
7, 76320, Note_on_c, 9, 64, 117
7, 76559, Note_on_c, 9, 64, 0
7, 76560, Note_on_c, 9, 64, 117
7, 76799, Note_on_c, 9, 64, 0
7, 78240, Note_on_c, 9, 64, 117
7, 78479, Note_on_c, 9, 64, 0
7, 78480, Note_on_c, 9, 64, 117
7, 78719, Note_on_c, 9, 64, 0
7, 127200, Note_on_c, 9, 64, 117
7, 127439, Note_on_c, 9, 64, 0
7, 127440, Note_on_c, 9, 64, 112
7, 127679, Note_on_c, 9, 64, 0
7, 129120, Note_on_c, 9, 64, 108
7, 129359, Note_on_c, 9, 64, 0
7, 129360, Note_on_c, 9, 64, 117
7, 129599, Note_on_c, 9, 64, 0
7, 131040, Note_on_c, 9, 64, 117
7, 131279, Note_on_c, 9, 64, 0
7, 131280, Note_on_c, 9, 64, 112
7, 131519, Note_on_c, 9, 64, 0
7, 132960, Note_on_c, 9, 64, 112
7, 133199, Note_on_c, 9, 64, 0
7, 133200, Note_on_c, 9, 64, 108
7, 133439, Note_on_c, 9, 64, 0
7, 134880, Note_on_c, 9, 64, 108
7, 135119, Note_on_c, 9, 64, 0
7, 135120, Note_on_c, 9, 64, 112
7, 135359, Note_on_c, 9, 64, 0
7, 136800, Note_on_c, 9, 64, 117
7, 137039, Note_on_c, 9, 64, 0
7, 137040, Note_on_c, 9, 64, 117
7, 137279, Note_on_c, 9, 64, 0
7, 138720, Note_on_c, 9, 64, 117
7, 138959, Note_on_c, 9, 64, 0
7, 138960, Note_on_c, 9, 64, 117
7, 139199, Note_on_c, 9, 64, 0
7, 140640, Note_on_c, 9, 64, 117
7, 140879, Note_on_c, 9, 64, 0
7, 140880, Note_on_c, 9, 64, 117
7, 141119, Note_on_c, 9, 64, 0
7, 142560, Note_on_c, 9, 64, 117
7, 142799, Note_on_c, 9, 64, 0
7, 142800, Note_on_c, 9, 64, 112
7, 143039, Note_on_c, 9, 64, 0
7, 144480, Note_on_c, 9, 64, 108
7, 144719, Note_on_c, 9, 64, 0
7, 144720, Note_on_c, 9, 64, 117
7, 144959, Note_on_c, 9, 64, 0
7, 146400, Note_on_c, 9, 64, 117
7, 146639, Note_on_c, 9, 64, 0
7, 146640, Note_on_c, 9, 64, 112
7, 146879, Note_on_c, 9, 64, 0
7, 148320, Note_on_c, 9, 64, 112
7, 148559, Note_on_c, 9, 64, 0
7, 148560, Note_on_c, 9, 64, 108
7, 148799, Note_on_c, 9, 64, 0
7, 150240, Note_on_c, 9, 64, 108
7, 150479, Note_on_c, 9, 64, 0
7, 150480, Note_on_c, 9, 64, 112
7, 150719, Note_on_c, 9, 64, 0
7, 152160, Note_on_c, 9, 64, 117
7, 152399, Note_on_c, 9, 64, 0
7, 152400, Note_on_c, 9, 64, 117
7, 152639, Note_on_c, 9, 64, 0
7, 154080, Note_on_c, 9, 64, 117
7, 154319, Note_on_c, 9, 64, 0
7, 154320, Note_on_c, 9, 64, 117
7, 154559, Note_on_c, 9, 64, 0
7, 156000, Note_on_c, 9, 64, 117
7, 156239, Note_on_c, 9, 64, 0
7, 156240, Note_on_c, 9, 64, 117
7, 156479, Note_on_c, 9, 64, 0
7, 156480, End_track
8, 0, Start_track
8, 0, Key_signature, 0, "major"
8, 0, Control_c, 9, 121, 0
8, 0, Program_c, 9, 0
8, 0, Control_c, 9, 7, 100
8, 0, Control_c, 9, 10, 64
8, 0, Control_c, 9, 91, 0
8, 0, Control_c, 9, 93, 0
8, 0, MIDI_port, 0
8, 78960, Note_on_c, 9, 46, 117
8, 79199, Note_on_c, 9, 46, 0
8, 79440, Note_on_c, 9, 46, 112
8, 79679, Note_on_c, 9, 46, 0
8, 79920, Note_on_c, 9, 46, 117
8, 80159, Note_on_c, 9, 46, 0
8, 80400, Note_on_c, 9, 46, 103
8, 80639, Note_on_c, 9, 46, 0
8, 80880, Note_on_c, 9, 46, 103
8, 81119, Note_on_c, 9, 46, 0
8, 81360, Note_on_c, 9, 46, 95
8, 81599, Note_on_c, 9, 46, 0
8, 81840, Note_on_c, 9, 46, 103
8, 82079, Note_on_c, 9, 46, 0
8, 82320, Note_on_c, 9, 46, 103
8, 82559, Note_on_c, 9, 46, 0
8, 82800, Note_on_c, 9, 46, 95
8, 83039, Note_on_c, 9, 46, 0
8, 83280, Note_on_c, 9, 46, 95
8, 83519, Note_on_c, 9, 46, 0
8, 83760, Note_on_c, 9, 46, 103
8, 83999, Note_on_c, 9, 46, 0
8, 84240, Note_on_c, 9, 46, 103
8, 84479, Note_on_c, 9, 46, 0
8, 84720, Note_on_c, 9, 46, 99
8, 84959, Note_on_c, 9, 46, 0
8, 85200, Note_on_c, 9, 46, 103
8, 85439, Note_on_c, 9, 46, 0
8, 85680, Note_on_c, 9, 46, 112
8, 85919, Note_on_c, 9, 46, 0
8, 86160, Note_on_c, 9, 46, 108
8, 86399, Note_on_c, 9, 46, 0
8, 86640, Note_on_c, 9, 46, 99
8, 86879, Note_on_c, 9, 46, 0
8, 87120, Note_on_c, 9, 46, 112
8, 87359, Note_on_c, 9, 46, 0
8, 87600, Note_on_c, 9, 46, 108
8, 87839, Note_on_c, 9, 46, 0
8, 88080, Note_on_c, 9, 46, 103
8, 88319, Note_on_c, 9, 46, 0
8, 88560, Note_on_c, 9, 46, 103
8, 88799, Note_on_c, 9, 46, 0
8, 89040, Note_on_c, 9, 46, 103
8, 89279, Note_on_c, 9, 46, 0
8, 89520, Note_on_c, 9, 46, 103
8, 89759, Note_on_c, 9, 46, 0
8, 90000, Note_on_c, 9, 46, 108
8, 90239, Note_on_c, 9, 46, 0
8, 90480, Note_on_c, 9, 46, 108
8, 90719, Note_on_c, 9, 46, 0
8, 90960, Note_on_c, 9, 46, 108
8, 91199, Note_on_c, 9, 46, 0
8, 91440, Note_on_c, 9, 46, 103
8, 91679, Note_on_c, 9, 46, 0
8, 91920, Note_on_c, 9, 46, 108
8, 92159, Note_on_c, 9, 46, 0
8, 92400, Note_on_c, 9, 46, 108
8, 92639, Note_on_c, 9, 46, 0
8, 92880, Note_on_c, 9, 46, 103
8, 93119, Note_on_c, 9, 46, 0
8, 93360, Note_on_c, 9, 46, 112
8, 93599, Note_on_c, 9, 46, 0
8, 93840, Note_on_c, 9, 46, 112
8, 94079, Note_on_c, 9, 46, 0
8, 94320, Note_on_c, 9, 46, 117
8, 94559, Note_on_c, 9, 46, 0
8, 94800, Note_on_c, 9, 46, 112
8, 95039, Note_on_c, 9, 46, 0
8, 95280, Note_on_c, 9, 46, 117
8, 95519, Note_on_c, 9, 46, 0
8, 95760, Note_on_c, 9, 46, 103
8, 95999, Note_on_c, 9, 46, 0
8, 96240, Note_on_c, 9, 46, 103
8, 96479, Note_on_c, 9, 46, 0
8, 96720, Note_on_c, 9, 46, 95
8, 96959, Note_on_c, 9, 46, 0
8, 97200, Note_on_c, 9, 46, 103
8, 97439, Note_on_c, 9, 46, 0
8, 97680, Note_on_c, 9, 46, 103
8, 97919, Note_on_c, 9, 46, 0
8, 98160, Note_on_c, 9, 46, 95
8, 98399, Note_on_c, 9, 46, 0
8, 98640, Note_on_c, 9, 46, 95
8, 98879, Note_on_c, 9, 46, 0
8, 99120, Note_on_c, 9, 46, 103
8, 99359, Note_on_c, 9, 46, 0
8, 99600, Note_on_c, 9, 46, 103
8, 99839, Note_on_c, 9, 46, 0
8, 100080, Note_on_c, 9, 46, 99
8, 100319, Note_on_c, 9, 46, 0
8, 100560, Note_on_c, 9, 46, 103
8, 100799, Note_on_c, 9, 46, 0
8, 101040, Note_on_c, 9, 46, 112
8, 101279, Note_on_c, 9, 46, 0
8, 101520, Note_on_c, 9, 46, 108
8, 101759, Note_on_c, 9, 46, 0
8, 102000, Note_on_c, 9, 46, 99
8, 102239, Note_on_c, 9, 46, 0
8, 102480, Note_on_c, 9, 46, 112
8, 102719, Note_on_c, 9, 46, 0
8, 102960, Note_on_c, 9, 46, 108
8, 103199, Note_on_c, 9, 46, 0
8, 103440, Note_on_c, 9, 46, 103
8, 103679, Note_on_c, 9, 46, 0
8, 103920, Note_on_c, 9, 46, 103
8, 104159, Note_on_c, 9, 46, 0
8, 104400, Note_on_c, 9, 46, 103
8, 104639, Note_on_c, 9, 46, 0
8, 104880, Note_on_c, 9, 46, 103
8, 105119, Note_on_c, 9, 46, 0
8, 105360, Note_on_c, 9, 46, 108
8, 105599, Note_on_c, 9, 46, 0
8, 105840, Note_on_c, 9, 46, 108
8, 106079, Note_on_c, 9, 46, 0
8, 106320, Note_on_c, 9, 46, 108
8, 106559, Note_on_c, 9, 46, 0
8, 106800, Note_on_c, 9, 46, 123
8, 107039, Note_on_c, 9, 46, 0
8, 107280, Note_on_c, 9, 46, 127
8, 107519, Note_on_c, 9, 46, 0
8, 107760, Note_on_c, 9, 46, 127
8, 107999, Note_on_c, 9, 46, 0
8, 108240, Note_on_c, 9, 46, 127
8, 108479, Note_on_c, 9, 46, 0
8, 108960, Note_on_c, 9, 46, 127
8, 109439, Note_on_c, 9, 46, 0
8, 156720, Note_on_c, 9, 46, 117
8, 156959, Note_on_c, 9, 46, 0
8, 157200, Note_on_c, 9, 46, 112
8, 157439, Note_on_c, 9, 46, 0
8, 157680, Note_on_c, 9, 46, 117
8, 157919, Note_on_c, 9, 46, 0
8, 158160, Note_on_c, 9, 46, 103
8, 158399, Note_on_c, 9, 46, 0
8, 158640, Note_on_c, 9, 46, 103
8, 158879, Note_on_c, 9, 46, 0
8, 159120, Note_on_c, 9, 46, 95
8, 159359, Note_on_c, 9, 46, 0
8, 159600, Note_on_c, 9, 46, 103
8, 159839, Note_on_c, 9, 46, 0
8, 160080, Note_on_c, 9, 46, 103
8, 160319, Note_on_c, 9, 46, 0
8, 160560, Note_on_c, 9, 46, 95
8, 160799, Note_on_c, 9, 46, 0
8, 161040, Note_on_c, 9, 46, 95
8, 161279, Note_on_c, 9, 46, 0
8, 161520, Note_on_c, 9, 46, 103
8, 161759, Note_on_c, 9, 46, 0
8, 162000, Note_on_c, 9, 46, 103
8, 162239, Note_on_c, 9, 46, 0
8, 162480, Note_on_c, 9, 46, 99
8, 162719, Note_on_c, 9, 46, 0
8, 162960, Note_on_c, 9, 46, 103
8, 163199, Note_on_c, 9, 46, 0
8, 163440, Note_on_c, 9, 46, 112
8, 163679, Note_on_c, 9, 46, 0
8, 163920, Note_on_c, 9, 46, 108
8, 164159, Note_on_c, 9, 46, 0
8, 164400, Note_on_c, 9, 46, 99
8, 164639, Note_on_c, 9, 46, 0
8, 164880, Note_on_c, 9, 46, 112
8, 165119, Note_on_c, 9, 46, 0
8, 165360, Note_on_c, 9, 46, 108
8, 165599, Note_on_c, 9, 46, 0
8, 165840, Note_on_c, 9, 46, 103
8, 166079, Note_on_c, 9, 46, 0
8, 166320, Note_on_c, 9, 46, 103
8, 166559, Note_on_c, 9, 46, 0
8, 166800, Note_on_c, 9, 46, 103
8, 167039, Note_on_c, 9, 46, 0
8, 167280, Note_on_c, 9, 46, 103
8, 167519, Note_on_c, 9, 46, 0
8, 167760, Note_on_c, 9, 46, 108
8, 167999, Note_on_c, 9, 46, 0
8, 168240, Note_on_c, 9, 46, 108
8, 168479, Note_on_c, 9, 46, 0
8, 168720, Note_on_c, 9, 46, 108
8, 168959, Note_on_c, 9, 46, 0
8, 169200, Note_on_c, 9, 46, 103
8, 169439, Note_on_c, 9, 46, 0
8, 169680, Note_on_c, 9, 46, 108
8, 169919, Note_on_c, 9, 46, 0
8, 170160, Note_on_c, 9, 46, 108
8, 170399, Note_on_c, 9, 46, 0
8, 170640, Note_on_c, 9, 46, 103
8, 170879, Note_on_c, 9, 46, 0
8, 171120, Note_on_c, 9, 46, 112
8, 171359, Note_on_c, 9, 46, 0
8, 171600, Note_on_c, 9, 46, 112
8, 171839, Note_on_c, 9, 46, 0
8, 172080, Note_on_c, 9, 46, 117
8, 172319, Note_on_c, 9, 46, 0
8, 172560, Note_on_c, 9, 46, 112
8, 172799, Note_on_c, 9, 46, 0
8, 173040, Note_on_c, 9, 46, 117
8, 173279, Note_on_c, 9, 46, 0
8, 173520, Note_on_c, 9, 46, 103
8, 173759, Note_on_c, 9, 46, 0
8, 174000, Note_on_c, 9, 46, 103
8, 174239, Note_on_c, 9, 46, 0
8, 174480, Note_on_c, 9, 46, 95
8, 174719, Note_on_c, 9, 46, 0
8, 174960, Note_on_c, 9, 46, 103
8, 175199, Note_on_c, 9, 46, 0
8, 175440, Note_on_c, 9, 46, 103
8, 175679, Note_on_c, 9, 46, 0
8, 175920, Note_on_c, 9, 46, 95
8, 176159, Note_on_c, 9, 46, 0
8, 176400, Note_on_c, 9, 46, 95
8, 176639, Note_on_c, 9, 46, 0
8, 176880, Note_on_c, 9, 46, 103
8, 177119, Note_on_c, 9, 46, 0
8, 177360, Note_on_c, 9, 46, 103
8, 177599, Note_on_c, 9, 46, 0
8, 177840, Note_on_c, 9, 46, 99
8, 178079, Note_on_c, 9, 46, 0
8, 178320, Note_on_c, 9, 46, 103
8, 178559, Note_on_c, 9, 46, 0
8, 178800, Note_on_c, 9, 46, 112
8, 179039, Note_on_c, 9, 46, 0
8, 179280, Note_on_c, 9, 46, 108
8, 179519, Note_on_c, 9, 46, 0
8, 179760, Note_on_c, 9, 46, 99
8, 179999, Note_on_c, 9, 46, 0
8, 180240, Note_on_c, 9, 46, 112
8, 180479, Note_on_c, 9, 46, 0
8, 180720, Note_on_c, 9, 46, 108
8, 180959, Note_on_c, 9, 46, 0
8, 181200, Note_on_c, 9, 46, 103
8, 181439, Note_on_c, 9, 46, 0
8, 181680, Note_on_c, 9, 46, 103
8, 181919, Note_on_c, 9, 46, 0
8, 182160, Note_on_c, 9, 46, 103
8, 182399, Note_on_c, 9, 46, 0
8, 182640, Note_on_c, 9, 46, 103
8, 182879, Note_on_c, 9, 46, 0
8, 183120, Note_on_c, 9, 46, 108
8, 183359, Note_on_c, 9, 46, 0
8, 183600, Note_on_c, 9, 46, 108
8, 183839, Note_on_c, 9, 46, 0
8, 184080, Note_on_c, 9, 46, 108
8, 184319, Note_on_c, 9, 46, 0
8, 184560, Note_on_c, 9, 46, 103
8, 184799, Note_on_c, 9, 46, 0
8, 185040, Note_on_c, 9, 46, 108
8, 185279, Note_on_c, 9, 46, 0
8, 185520, Note_on_c, 9, 46, 108
8, 185759, Note_on_c, 9, 46, 0
8, 186000, Note_on_c, 9, 46, 103
8, 186239, Note_on_c, 9, 46, 0
8, 186480, Note_on_c, 9, 46, 112
8, 186719, Note_on_c, 9, 46, 0
8, 186960, Note_on_c, 9, 46, 112
8, 187199, Note_on_c, 9, 46, 0
8, 187440, Note_on_c, 9, 46, 117
8, 187679, Note_on_c, 9, 46, 0
8, 187920, Note_on_c, 9, 46, 112
8, 188159, Note_on_c, 9, 46, 0
8, 188400, Note_on_c, 9, 46, 117
8, 188639, Note_on_c, 9, 46, 0
8, 188880, Note_on_c, 9, 46, 103
8, 189119, Note_on_c, 9, 46, 0
8, 189360, Note_on_c, 9, 46, 103
8, 189599, Note_on_c, 9, 46, 0
8, 189840, Note_on_c, 9, 46, 95
8, 190079, Note_on_c, 9, 46, 0
8, 190320, Note_on_c, 9, 46, 103
8, 190559, Note_on_c, 9, 46, 0
8, 190800, Note_on_c, 9, 46, 103
8, 191039, Note_on_c, 9, 46, 0
8, 191280, Note_on_c, 9, 46, 95
8, 191519, Note_on_c, 9, 46, 0
8, 191760, Note_on_c, 9, 46, 95
8, 191999, Note_on_c, 9, 46, 0
8, 192240, Note_on_c, 9, 46, 103
8, 192479, Note_on_c, 9, 46, 0
8, 192720, Note_on_c, 9, 46, 103
8, 192959, Note_on_c, 9, 46, 0
8, 193200, Note_on_c, 9, 46, 99
8, 193439, Note_on_c, 9, 46, 0
8, 193680, Note_on_c, 9, 46, 103
8, 193919, Note_on_c, 9, 46, 0
8, 194160, Note_on_c, 9, 46, 112
8, 194399, Note_on_c, 9, 46, 0
8, 194640, Note_on_c, 9, 46, 108
8, 194879, Note_on_c, 9, 46, 0
8, 195120, Note_on_c, 9, 46, 99
8, 195359, Note_on_c, 9, 46, 0
8, 195600, Note_on_c, 9, 46, 112
8, 195839, Note_on_c, 9, 46, 0
8, 196080, Note_on_c, 9, 46, 108
8, 196319, Note_on_c, 9, 46, 0
8, 196560, Note_on_c, 9, 46, 103
8, 196799, Note_on_c, 9, 46, 0
8, 197040, Note_on_c, 9, 46, 103
8, 197279, Note_on_c, 9, 46, 0
8, 197520, Note_on_c, 9, 46, 103
8, 197759, Note_on_c, 9, 46, 0
8, 198000, Note_on_c, 9, 46, 103
8, 198239, Note_on_c, 9, 46, 0
8, 198480, Note_on_c, 9, 46, 108
8, 198719, Note_on_c, 9, 46, 0
8, 198960, Note_on_c, 9, 46, 108
8, 199199, Note_on_c, 9, 46, 0
8, 199440, Note_on_c, 9, 46, 108
8, 199679, Note_on_c, 9, 46, 0
8, 199920, Note_on_c, 9, 46, 123
8, 200159, Note_on_c, 9, 46, 0
8, 200400, Note_on_c, 9, 46, 127
8, 200639, Note_on_c, 9, 46, 0
8, 200880, Note_on_c, 9, 46, 127
8, 201119, Note_on_c, 9, 46, 0
8, 201360, Note_on_c, 9, 46, 127
8, 201599, Note_on_c, 9, 46, 0
8, 202080, Note_on_c, 9, 46, 127
8, 202559, Note_on_c, 9, 46, 0
8, 202560, End_track
9, 0, Start_track
9, 0, Key_signature, 0, "major"
9, 0, Control_c, 9, 121, 0
9, 0, Program_c, 9, 0
9, 0, Control_c, 9, 7, 100
9, 0, Control_c, 9, 10, 64
9, 0, Control_c, 9, 91, 0
9, 0, Control_c, 9, 93, 0
9, 0, MIDI_port, 0
9, 30960, Note_on_c, 9, 48, 109
9, 31199, Note_on_c, 9, 48, 0
9, 31200, Note_on_c, 9, 45, 127
9, 31319, Note_on_c, 9, 45, 0
9, 31320, Note_on_c, 9, 41, 109
9, 31679, Note_on_c, 9, 41, 0
9, 61680, Note_on_c, 9, 48, 127
9, 61919, Note_on_c, 9, 48, 0
9, 61920, Note_on_c, 9, 45, 127
9, 62159, Note_on_c, 9, 45, 0
9, 62160, Note_on_c, 9, 48, 105
9, 62279, Note_on_c, 9, 48, 0
9, 62280, Note_on_c, 9, 41, 127
9, 62399, Note_on_c, 9, 41, 0
9, 62400, Note_on_c, 9, 48, 127
9, 62639, Note_on_c, 9, 48, 0
9, 62640, Note_on_c, 9, 45, 127
9, 62879, Note_on_c, 9, 45, 0
9, 62880, Note_on_c, 9, 45, 127
9, 63359, Note_on_c, 9, 45, 0
9, 77040, Note_on_c, 9, 48, 127
9, 77279, Note_on_c, 9, 48, 0
9, 77280, Note_on_c, 9, 45, 127
9, 77519, Note_on_c, 9, 45, 0
9, 77520, Note_on_c, 9, 48, 105
9, 77639, Note_on_c, 9, 48, 0
9, 77640, Note_on_c, 9, 41, 127
9, 77759, Note_on_c, 9, 41, 0
9, 77760, Note_on_c, 9, 48, 127
9, 77999, Note_on_c, 9, 48, 0
9, 78000, Note_on_c, 9, 45, 127
9, 78239, Note_on_c, 9, 45, 0
9, 78240, Note_on_c, 9, 45, 127
9, 78719, Note_on_c, 9, 45, 0
9, 92400, Note_on_c, 9, 48, 109
9, 92639, Note_on_c, 9, 48, 0
9, 92640, Note_on_c, 9, 45, 127
9, 92759, Note_on_c, 9, 45, 0
9, 92760, Note_on_c, 9, 41, 109
9, 93119, Note_on_c, 9, 41, 0
9, 106800, Note_on_c, 9, 48, 127
9, 107039, Note_on_c, 9, 48, 0
9, 107280, Note_on_c, 9, 45, 127
9, 107519, Note_on_c, 9, 45, 0
9, 107760, Note_on_c, 9, 41, 127
9, 107999, Note_on_c, 9, 41, 0
9, 124080, Note_on_c, 9, 48, 109
9, 124319, Note_on_c, 9, 48, 0
9, 124320, Note_on_c, 9, 45, 127
9, 124439, Note_on_c, 9, 45, 0
9, 124440, Note_on_c, 9, 41, 109
9, 124799, Note_on_c, 9, 41, 0
9, 139440, Note_on_c, 9, 48, 127
9, 139679, Note_on_c, 9, 48, 0
9, 139680, Note_on_c, 9, 45, 127
9, 139919, Note_on_c, 9, 45, 0
9, 139920, Note_on_c, 9, 48, 105
9, 140039, Note_on_c, 9, 48, 0
9, 140040, Note_on_c, 9, 41, 127
9, 140159, Note_on_c, 9, 41, 0
9, 140160, Note_on_c, 9, 48, 127
9, 140399, Note_on_c, 9, 48, 0
9, 140400, Note_on_c, 9, 45, 127
9, 140639, Note_on_c, 9, 45, 0
9, 140640, Note_on_c, 9, 45, 127
9, 141119, Note_on_c, 9, 45, 0
9, 154800, Note_on_c, 9, 48, 127
9, 155039, Note_on_c, 9, 48, 0
9, 155040, Note_on_c, 9, 45, 127
9, 155279, Note_on_c, 9, 45, 0
9, 155280, Note_on_c, 9, 48, 105
9, 155399, Note_on_c, 9, 48, 0
9, 155400, Note_on_c, 9, 41, 127
9, 155519, Note_on_c, 9, 41, 0
9, 155520, Note_on_c, 9, 48, 127
9, 155759, Note_on_c, 9, 48, 0
9, 155760, Note_on_c, 9, 45, 127
9, 155999, Note_on_c, 9, 45, 0
9, 156000, Note_on_c, 9, 45, 127
9, 156479, Note_on_c, 9, 45, 0
9, 170160, Note_on_c, 9, 48, 109
9, 170399, Note_on_c, 9, 48, 0
9, 170400, Note_on_c, 9, 45, 127
9, 170519, Note_on_c, 9, 45, 0
9, 170520, Note_on_c, 9, 41, 109
9, 170879, Note_on_c, 9, 41, 0
9, 185520, Note_on_c, 9, 48, 109
9, 185759, Note_on_c, 9, 48, 0
9, 185760, Note_on_c, 9, 45, 127
9, 185879, Note_on_c, 9, 45, 0
9, 185880, Note_on_c, 9, 41, 109
9, 186239, Note_on_c, 9, 41, 0
9, 199920, Note_on_c, 9, 48, 127
9, 200159, Note_on_c, 9, 48, 0
9, 200400, Note_on_c, 9, 45, 127
9, 200639, Note_on_c, 9, 45, 0
9, 200880, Note_on_c, 9, 41, 127
9, 201119, Note_on_c, 9, 41, 0
9, 202560, Note_on_c, 9, 48, 127
9, 202799, Note_on_c, 9, 48, 0
9, 202800, Note_on_c, 9, 45, 127
9, 203039, Note_on_c, 9, 45, 0
9, 203040, Note_on_c, 9, 41, 127
9, 203279, Note_on_c, 9, 41, 0
9, 203280, Note_on_c, 9, 48, 127
9, 203519, Note_on_c, 9, 48, 0
9, 203520, End_track
0, 0, End_of_file
