0, 0, Header, 1, 2, 480
1, 0, Start_track
1, 0, Time_signature, 4, 2, 24, 8
1, 0, Key_signature, 0, "major"
1, 0, Tempo, 472441
1, 0, Control_c, 9, 121, 0
1, 0, Program_c, 9, 0
1, 0, Control_c, 9, 7, 127
1, 0, Control_c, 9, 10, 64
1, 0, Control_c, 9, 91, 0
1, 0, Control_c, 9, 93, 0
1, 0, MIDI_port, 0
1, 360, Note_on_c, 9, 48, 60
1, 479, Note_on_c, 9, 48, 0
1, 480, Note_on_c, 9, 48, 60
1, 719, Note_on_c, 9, 48, 0
1, 720, Note_on_c, 9, 45, 60
1, 959, Note_on_c, 9, 45, 0
1, 960, Note_on_c, 9, 47, 60
1, 1199, Note_on_c, 9, 47, 0
1, 1200, Note_on_c, 9, 47, 60
1, 1439, Note_on_c, 9, 47, 0
1, 1560, Note_on_c, 9, 47, 60
1, 1679, Note_on_c, 9, 47, 0
1, 1680, Note_on_c, 9, 45, 60
1, 1800, Note_on_c, 9, 43, 60
1, 1919, Note_on_c, 9, 45, 0
1, 1919, Note_on_c, 9, 43, 0
1, 1920, Note_on_c, 9, 42, 60
1, 1920, Note_on_c, 9, 57, 60
1, 2159, Note_on_c, 9, 42, 0
1, 2159, Note_on_c, 9, 57, 0
1, 2160, Note_on_c, 9, 46, 60
1, 2399, Note_on_c, 9, 46, 0
1, 2400, Note_on_c, 9, 42, 60
1, 2639, Note_on_c, 9, 42, 0
1, 2640, Note_on_c, 9, 42, 60
1, 2879, Note_on_c, 9, 42, 0
1, 2880, Note_on_c, 9, 42, 60
1, 3119, Note_on_c, 9, 42, 0
1, 3120, Note_on_c, 9, 42, 60
1, 3359, Note_on_c, 9, 42, 0
1, 3360, Note_on_c, 9, 42, 60
1, 3599, Note_on_c, 9, 42, 0
1, 3600, Note_on_c, 9, 46, 60
1, 3839, Note_on_c, 9, 46, 0
1, 3840, Note_on_c, 9, 42, 60
1, 4079, Note_on_c, 9, 42, 0
1, 4080, Note_on_c, 9, 46, 60
1, 4319, Note_on_c, 9, 46, 0
1, 4320, Note_on_c, 9, 42, 60
1, 4559, Note_on_c, 9, 42, 0
1, 4560, Note_on_c, 9, 42, 60
1, 4799, Note_on_c, 9, 42, 0
1, 4800, Note_on_c, 9, 42, 60
1, 5039, Note_on_c, 9, 42, 0
1, 5040, Note_on_c, 9, 42, 60
1, 5279, Note_on_c, 9, 42, 0
1, 5280, Note_on_c, 9, 42, 60
1, 5519, Note_on_c, 9, 42, 0
1, 5520, Note_on_c, 9, 46, 60
1, 5759, Note_on_c, 9, 46, 0
1, 5760, Note_on_c, 9, 42, 60
1, 5760, Note_on_c, 9, 57, 60
1, 5999, Note_on_c, 9, 42, 0
1, 5999, Note_on_c, 9, 57, 0
1, 6000, Note_on_c, 9, 46, 60
1, 6239, Note_on_c, 9, 46, 0
1, 6240, Note_on_c, 9, 42, 60
1, 6479, Note_on_c, 9, 42, 0
1, 6480, Note_on_c, 9, 42, 60
1, 6719, Note_on_c, 9, 42, 0
1, 6720, Note_on_c, 9, 42, 60
1, 6959, Note_on_c, 9, 42, 0
1, 6960, Note_on_c, 9, 42, 60
1, 7199, Note_on_c, 9, 42, 0
1, 7200, Note_on_c, 9, 42, 60
1, 7439, Note_on_c, 9, 42, 0
1, 7440, Note_on_c, 9, 46, 60
1, 7679, Note_on_c, 9, 46, 0
1, 7680, Note_on_c, 9, 42, 60
1, 7919, Note_on_c, 9, 42, 0
1, 7920, Note_on_c, 9, 46, 60
1, 8159, Note_on_c, 9, 46, 0
1, 8160, Note_on_c, 9, 42, 60
1, 8399, Note_on_c, 9, 42, 0
1, 8400, Note_on_c, 9, 42, 60
1, 8639, Note_on_c, 9, 42, 0
1, 8640, Note_on_c, 9, 42, 60
1, 8879, Note_on_c, 9, 42, 0
1, 8880, Note_on_c, 9, 42, 60
1, 9119, Note_on_c, 9, 42, 0
1, 9120, Note_on_c, 9, 42, 60
1, 9359, Note_on_c, 9, 42, 0
1, 9360, Note_on_c, 9, 46, 60
1, 9599, Note_on_c, 9, 46, 0
1, 9600, Note_on_c, 9, 42, 60
1, 9600, Note_on_c, 9, 57, 60
1, 9839, Note_on_c, 9, 42, 0
1, 9839, Note_on_c, 9, 57, 0
1, 9840, Note_on_c, 9, 46, 60
1, 10079, Note_on_c, 9, 46, 0
1, 10080, Note_on_c, 9, 42, 60
1, 10319, Note_on_c, 9, 42, 0
1, 10320, Note_on_c, 9, 42, 60
1, 10559, Note_on_c, 9, 42, 0
1, 10560, Note_on_c, 9, 42, 60
1, 10799, Note_on_c, 9, 42, 0
1, 10800, Note_on_c, 9, 42, 60
1, 11039, Note_on_c, 9, 42, 0
1, 11040, Note_on_c, 9, 42, 60
1, 11279, Note_on_c, 9, 42, 0
1, 11280, Note_on_c, 9, 46, 60
1, 11519, Note_on_c, 9, 46, 0
1, 11520, Note_on_c, 9, 42, 60
1, 11759, Note_on_c, 9, 42, 0
1, 11760, Note_on_c, 9, 46, 60
1, 11999, Note_on_c, 9, 46, 0
1, 12000, Note_on_c, 9, 42, 60
1, 12239, Note_on_c, 9, 42, 0
1, 12240, Note_on_c, 9, 42, 60
1, 12479, Note_on_c, 9, 42, 0
1, 12480, Note_on_c, 9, 42, 60
1, 12719, Note_on_c, 9, 42, 0
1, 12720, Note_on_c, 9, 42, 60
1, 12959, Note_on_c, 9, 42, 0
1, 12960, Note_on_c, 9, 42, 60
1, 13199, Note_on_c, 9, 42, 0
1, 13200, Note_on_c, 9, 46, 60
1, 13439, Note_on_c, 9, 46, 0
1, 13440, Note_on_c, 9, 42, 60
1, 13440, Note_on_c, 9, 57, 60
1, 13679, Note_on_c, 9, 42, 0
1, 13679, Note_on_c, 9, 57, 0
1, 13680, Note_on_c, 9, 46, 60
1, 13919, Note_on_c, 9, 46, 0
1, 13920, Note_on_c, 9, 42, 60
1, 14159, Note_on_c, 9, 42, 0
1, 14160, Note_on_c, 9, 42, 60
1, 14399, Note_on_c, 9, 42, 0
1, 14400, Note_on_c, 9, 42, 60
1, 14639, Note_on_c, 9, 42, 0
1, 14640, Note_on_c, 9, 42, 60
1, 14879, Note_on_c, 9, 42, 0
1, 14880, Note_on_c, 9, 42, 60
1, 15119, Note_on_c, 9, 42, 0
1, 15120, Note_on_c, 9, 46, 60
1, 15359, Note_on_c, 9, 46, 0
1, 15360, Note_on_c, 9, 42, 60
1, 15599, Note_on_c, 9, 42, 0
1, 15600, Note_on_c, 9, 46, 60
1, 15839, Note_on_c, 9, 46, 0
1, 15840, Note_on_c, 9, 42, 60
1, 16079, Note_on_c, 9, 42, 0
1, 16080, Note_on_c, 9, 42, 60
1, 16319, Note_on_c, 9, 42, 0
1, 16320, Note_on_c, 9, 42, 60
1, 16559, Note_on_c, 9, 42, 0
1, 16560, Note_on_c, 9, 42, 60
1, 16799, Note_on_c, 9, 42, 0
1, 16800, Note_on_c, 9, 42, 60
1, 17039, Note_on_c, 9, 42, 0
1, 17040, Note_on_c, 9, 46, 60
1, 17279, Note_on_c, 9, 46, 0
1, 17280, Note_on_c, 9, 42, 60
1, 17280, Note_on_c, 9, 57, 60
1, 17519, Note_on_c, 9, 42, 0
1, 17519, Note_on_c, 9, 57, 0
1, 17520, Note_on_c, 9, 46, 60
1, 17759, Note_on_c, 9, 46, 0
1, 17760, Note_on_c, 9, 42, 60
1, 17999, Note_on_c, 9, 42, 0
1, 18000, Note_on_c, 9, 42, 60
1, 18239, Note_on_c, 9, 42, 0
1, 18240, Note_on_c, 9, 42, 60
1, 18479, Note_on_c, 9, 42, 0
1, 18480, Note_on_c, 9, 42, 60
1, 18719, Note_on_c, 9, 42, 0
1, 18720, Note_on_c, 9, 42, 60
1, 18959, Note_on_c, 9, 42, 0
1, 18960, Note_on_c, 9, 46, 60
1, 19199, Note_on_c, 9, 46, 0
1, 19200, Note_on_c, 9, 42, 60
1, 19439, Note_on_c, 9, 42, 0
1, 19440, Note_on_c, 9, 46, 60
1, 19679, Note_on_c, 9, 46, 0
1, 19680, Note_on_c, 9, 42, 60
1, 19919, Note_on_c, 9, 42, 0
1, 19920, Note_on_c, 9, 42, 60
1, 20159, Note_on_c, 9, 42, 0
1, 20160, Note_on_c, 9, 42, 60
1, 20399, Note_on_c, 9, 42, 0
1, 20400, Note_on_c, 9, 42, 60
1, 20639, Note_on_c, 9, 42, 0
1, 20640, Note_on_c, 9, 42, 60
1, 20879, Note_on_c, 9, 42, 0
1, 20880, Note_on_c, 9, 46, 60
1, 21119, Note_on_c, 9, 46, 0
1, 21120, Note_on_c, 9, 42, 60
1, 21120, Note_on_c, 9, 57, 60
1, 21359, Note_on_c, 9, 42, 0
1, 21359, Note_on_c, 9, 57, 0
1, 21360, Note_on_c, 9, 46, 60
1, 21599, Note_on_c, 9, 46, 0
1, 21600, Note_on_c, 9, 42, 60
1, 21839, Note_on_c, 9, 42, 0
1, 21840, Note_on_c, 9, 42, 60
1, 22079, Note_on_c, 9, 42, 0
1, 22080, Note_on_c, 9, 42, 60
1, 22319, Note_on_c, 9, 42, 0
1, 22320, Note_on_c, 9, 42, 60
1, 22559, Note_on_c, 9, 42, 0
1, 22560, Note_on_c, 9, 42, 60
1, 22799, Note_on_c, 9, 42, 0
1, 22800, Note_on_c, 9, 46, 60
1, 23039, Note_on_c, 9, 46, 0
1, 23040, Note_on_c, 9, 42, 60
1, 23279, Note_on_c, 9, 42, 0
1, 23280, Note_on_c, 9, 46, 60
1, 23519, Note_on_c, 9, 46, 0
1, 23520, Note_on_c, 9, 42, 60
1, 23759, Note_on_c, 9, 42, 0
1, 23760, Note_on_c, 9, 42, 60
1, 23999, Note_on_c, 9, 42, 0
1, 24000, Note_on_c, 9, 42, 60
1, 24239, Note_on_c, 9, 42, 0
1, 24240, Note_on_c, 9, 42, 60
1, 24479, Note_on_c, 9, 42, 0
1, 24480, Note_on_c, 9, 42, 60
1, 24719, Note_on_c, 9, 42, 0
1, 24720, Note_on_c, 9, 46, 60
1, 24959, Note_on_c, 9, 46, 0
1, 24960, Note_on_c, 9, 42, 60
1, 24960, Note_on_c, 9, 57, 60
1, 25199, Note_on_c, 9, 42, 0
1, 25199, Note_on_c, 9, 57, 0
1, 25200, Note_on_c, 9, 46, 60
1, 25439, Note_on_c, 9, 46, 0
1, 25440, Note_on_c, 9, 42, 60
1, 25679, Note_on_c, 9, 42, 0
1, 25680, Note_on_c, 9, 42, 60
1, 25919, Note_on_c, 9, 42, 0
1, 25920, Note_on_c, 9, 42, 60
1, 26159, Note_on_c, 9, 42, 0
1, 26160, Note_on_c, 9, 42, 60
1, 26399, Note_on_c, 9, 42, 0
1, 26400, Note_on_c, 9, 42, 60
1, 26639, Note_on_c, 9, 42, 0
1, 26640, Note_on_c, 9, 46, 60
1, 26879, Note_on_c, 9, 46, 0
1, 26880, Note_on_c, 9, 42, 60
1, 27119, Note_on_c, 9, 42, 0
1, 27120, Note_on_c, 9, 46, 60
1, 27359, Note_on_c, 9, 46, 0
1, 27360, Note_on_c, 9, 42, 60
1, 27599, Note_on_c, 9, 42, 0
1, 27600, Note_on_c, 9, 42, 60
1, 27839, Note_on_c, 9, 42, 0
1, 27840, Note_on_c, 9, 42, 60
1, 28079, Note_on_c, 9, 42, 0
1, 28080, Note_on_c, 9, 42, 60
1, 28319, Note_on_c, 9, 42, 0
1, 28320, Note_on_c, 9, 42, 60
1, 28559, Note_on_c, 9, 42, 0
1, 28560, Note_on_c, 9, 46, 60
1, 28799, Note_on_c, 9, 46, 0
1, 28800, Note_on_c, 9, 42, 60
1, 28800, Note_on_c, 9, 57, 60
1, 29039, Note_on_c, 9, 42, 0
1, 29039, Note_on_c, 9, 57, 0
1, 29040, Note_on_c, 9, 46, 60
1, 29279, Note_on_c, 9, 46, 0
1, 29280, Note_on_c, 9, 42, 60
1, 29519, Note_on_c, 9, 42, 0
1, 29520, Note_on_c, 9, 42, 60
1, 29759, Note_on_c, 9, 42, 0
1, 29760, Note_on_c, 9, 42, 60
1, 29999, Note_on_c, 9, 42, 0
1, 30000, Note_on_c, 9, 42, 60
1, 30239, Note_on_c, 9, 42, 0
1, 30240, Note_on_c, 9, 42, 60
1, 30479, Note_on_c, 9, 42, 0
1, 30480, Note_on_c, 9, 46, 60
1, 30719, Note_on_c, 9, 46, 0
1, 30720, Note_on_c, 9, 42, 60
1, 30959, Note_on_c, 9, 42, 0
1, 30960, Note_on_c, 9, 46, 60
1, 31199, Note_on_c, 9, 46, 0
1, 31200, Note_on_c, 9, 42, 60
1, 31439, Note_on_c, 9, 42, 0
1, 31440, Note_on_c, 9, 42, 60
1, 31679, Note_on_c, 9, 42, 0
1, 31680, Note_on_c, 9, 42, 60
1, 31919, Note_on_c, 9, 42, 0
1, 31920, Note_on_c, 9, 42, 60
1, 32159, Note_on_c, 9, 42, 0
1, 32160, Note_on_c, 9, 42, 60
1, 32399, Note_on_c, 9, 42, 0
1, 32400, Note_on_c, 9, 46, 60
1, 32639, Note_on_c, 9, 46, 0
1, 32640, Note_on_c, 9, 42, 60
1, 32640, Note_on_c, 9, 57, 60
1, 32879, Note_on_c, 9, 42, 0
1, 32879, Note_on_c, 9, 57, 0
1, 32880, Note_on_c, 9, 46, 60
1, 33119, Note_on_c, 9, 46, 0
1, 33120, Note_on_c, 9, 42, 60
1, 33359, Note_on_c, 9, 42, 0
1, 33360, Note_on_c, 9, 42, 60
1, 33599, Note_on_c, 9, 42, 0
1, 33600, Note_on_c, 9, 42, 60
1, 33839, Note_on_c, 9, 42, 0
1, 33840, Note_on_c, 9, 42, 60
1, 34079, Note_on_c, 9, 42, 0
1, 34080, Note_on_c, 9, 42, 60
1, 34319, Note_on_c, 9, 42, 0
1, 34320, Note_on_c, 9, 46, 60
1, 34559, Note_on_c, 9, 46, 0
1, 34560, Note_on_c, 9, 42, 60
1, 34799, Note_on_c, 9, 42, 0
1, 34800, Note_on_c, 9, 46, 60
1, 35039, Note_on_c, 9, 46, 0
1, 35040, Note_on_c, 9, 42, 60
1, 35279, Note_on_c, 9, 42, 0
1, 35280, Note_on_c, 9, 42, 60
1, 35519, Note_on_c, 9, 42, 0
1, 35520, Note_on_c, 9, 42, 60
1, 35759, Note_on_c, 9, 42, 0
1, 35760, Note_on_c, 9, 42, 60
1, 35999, Note_on_c, 9, 42, 0
1, 36000, Note_on_c, 9, 42, 60
1, 36239, Note_on_c, 9, 42, 0
1, 36240, Note_on_c, 9, 46, 60
1, 36479, Note_on_c, 9, 46, 0
1, 36480, Note_on_c, 9, 42, 60
1, 36480, Note_on_c, 9, 57, 60
1, 36719, Note_on_c, 9, 42, 0
1, 36719, Note_on_c, 9, 57, 0
1, 36720, Note_on_c, 9, 46, 60
1, 36959, Note_on_c, 9, 46, 0
1, 36960, Note_on_c, 9, 42, 60
1, 37199, Note_on_c, 9, 42, 0
1, 37200, Note_on_c, 9, 42, 60
1, 37439, Note_on_c, 9, 42, 0
1, 37440, Note_on_c, 9, 42, 60
1, 37679, Note_on_c, 9, 42, 0
1, 37680, Note_on_c, 9, 42, 60
1, 37919, Note_on_c, 9, 42, 0
1, 37920, Note_on_c, 9, 42, 60
1, 38159, Note_on_c, 9, 42, 0
1, 38160, Note_on_c, 9, 46, 60
1, 38399, Note_on_c, 9, 46, 0
1, 38400, Note_on_c, 9, 42, 60
1, 38639, Note_on_c, 9, 42, 0
1, 38640, Note_on_c, 9, 46, 60
1, 38879, Note_on_c, 9, 46, 0
1, 38880, Note_on_c, 9, 42, 60
1, 39119, Note_on_c, 9, 42, 0
1, 39120, Note_on_c, 9, 42, 60
1, 39359, Note_on_c, 9, 42, 0
1, 39360, Note_on_c, 9, 42, 60
1, 39599, Note_on_c, 9, 42, 0
1, 39600, Note_on_c, 9, 42, 60
1, 39839, Note_on_c, 9, 42, 0
1, 39840, Note_on_c, 9, 42, 60
1, 40079, Note_on_c, 9, 42, 0
1, 40080, Note_on_c, 9, 46, 60
1, 40319, Note_on_c, 9, 46, 0
1, 40320, Note_on_c, 9, 42, 60
1, 40320, Note_on_c, 9, 57, 60
1, 40559, Note_on_c, 9, 42, 0
1, 40559, Note_on_c, 9, 57, 0
1, 40560, Note_on_c, 9, 46, 60
1, 40799, Note_on_c, 9, 46, 0
1, 40800, Note_on_c, 9, 42, 60
1, 41039, Note_on_c, 9, 42, 0
1, 41040, Note_on_c, 9, 46, 60
1, 41279, Note_on_c, 9, 46, 0
1, 41280, Note_on_c, 9, 42, 60
1, 41519, Note_on_c, 9, 42, 0
1, 41520, Note_on_c, 9, 46, 60
1, 41759, Note_on_c, 9, 46, 0
1, 41760, Note_on_c, 9, 42, 60
1, 41999, Note_on_c, 9, 42, 0
1, 42000, Note_on_c, 9, 46, 60
1, 42239, Note_on_c, 9, 46, 0
1, 42240, Note_on_c, 9, 42, 60
1, 42479, Note_on_c, 9, 42, 0
1, 42480, Note_on_c, 9, 46, 60
1, 42719, Note_on_c, 9, 46, 0
1, 42720, Note_on_c, 9, 42, 60
1, 42959, Note_on_c, 9, 42, 0
1, 42960, Note_on_c, 9, 46, 60
1, 43199, Note_on_c, 9, 46, 0
1, 43200, Note_on_c, 9, 42, 60
1, 43439, Note_on_c, 9, 42, 0
1, 43440, Note_on_c, 9, 46, 60
1, 43679, Note_on_c, 9, 46, 0
1, 43680, Note_on_c, 9, 42, 60
1, 43919, Note_on_c, 9, 42, 0
1, 43920, Note_on_c, 9, 46, 60
1, 44159, Note_on_c, 9, 46, 0
1, 44160, Note_on_c, 9, 42, 60
1, 44399, Note_on_c, 9, 42, 0
1, 44400, Note_on_c, 9, 46, 60
1, 44639, Note_on_c, 9, 46, 0
1, 44640, Note_on_c, 9, 42, 60
1, 44879, Note_on_c, 9, 42, 0
1, 44880, Note_on_c, 9, 46, 60
1, 45119, Note_on_c, 9, 46, 0
1, 45120, Note_on_c, 9, 42, 60
1, 45359, Note_on_c, 9, 42, 0
1, 45360, Note_on_c, 9, 46, 60
1, 45599, Note_on_c, 9, 46, 0
1, 45600, Note_on_c, 9, 42, 60
1, 45839, Note_on_c, 9, 42, 0
1, 45840, Note_on_c, 9, 46, 60
1, 46079, Note_on_c, 9, 46, 0
1, 46080, Note_on_c, 9, 42, 60
1, 46319, Note_on_c, 9, 42, 0
1, 46320, Note_on_c, 9, 46, 60
1, 46559, Note_on_c, 9, 46, 0
1, 46560, Note_on_c, 9, 42, 60
1, 46799, Note_on_c, 9, 42, 0
1, 46800, Note_on_c, 9, 46, 60
1, 47039, Note_on_c, 9, 46, 0
1, 47040, Note_on_c, 9, 42, 60
1, 47279, Note_on_c, 9, 42, 0
1, 47280, Note_on_c, 9, 46, 60
1, 47519, Note_on_c, 9, 46, 0
1, 47520, Note_on_c, 9, 42, 60
1, 47759, Note_on_c, 9, 42, 0
1, 47760, Note_on_c, 9, 46, 60
1, 47999, Note_on_c, 9, 46, 0
1, 48000, Note_on_c, 9, 42, 60
1, 48000, Note_on_c, 9, 57, 60
1, 48239, Note_on_c, 9, 42, 0
1, 48239, Note_on_c, 9, 57, 0
1, 48240, Note_on_c, 9, 46, 60
1, 48479, Note_on_c, 9, 46, 0
1, 48480, Note_on_c, 9, 42, 60
1, 48719, Note_on_c, 9, 42, 0
1, 48720, Note_on_c, 9, 46, 60
1, 48959, Note_on_c, 9, 46, 0
1, 48960, Note_on_c, 9, 42, 60
1, 49199, Note_on_c, 9, 42, 0
1, 49200, Note_on_c, 9, 46, 60
1, 49439, Note_on_c, 9, 46, 0
1, 49440, Note_on_c, 9, 42, 60
1, 49679, Note_on_c, 9, 42, 0
1, 49680, Note_on_c, 9, 46, 60
1, 49919, Note_on_c, 9, 46, 0
1, 49920, Note_on_c, 9, 42, 60
1, 50159, Note_on_c, 9, 42, 0
1, 50160, Note_on_c, 9, 46, 60
1, 50399, Note_on_c, 9, 46, 0
1, 50400, Note_on_c, 9, 42, 60
1, 50639, Note_on_c, 9, 42, 0
1, 50640, Note_on_c, 9, 46, 60
1, 50879, Note_on_c, 9, 46, 0
1, 50880, Note_on_c, 9, 42, 60
1, 51119, Note_on_c, 9, 42, 0
1, 51120, Note_on_c, 9, 46, 60
1, 51359, Note_on_c, 9, 46, 0
1, 51360, Note_on_c, 9, 42, 60
1, 51599, Note_on_c, 9, 42, 0
1, 51600, Note_on_c, 9, 46, 60
1, 51839, Note_on_c, 9, 46, 0
1, 51840, Note_on_c, 9, 42, 60
1, 52079, Note_on_c, 9, 42, 0
1, 52080, Note_on_c, 9, 46, 60
1, 52319, Note_on_c, 9, 46, 0
1, 52320, Note_on_c, 9, 42, 60
1, 52559, Note_on_c, 9, 42, 0
1, 52560, Note_on_c, 9, 46, 60
1, 52799, Note_on_c, 9, 46, 0
1, 52800, Note_on_c, 9, 42, 60
1, 53039, Note_on_c, 9, 42, 0
1, 53040, Note_on_c, 9, 46, 60
1, 53279, Note_on_c, 9, 46, 0
1, 53280, Note_on_c, 9, 42, 60
1, 53519, Note_on_c, 9, 42, 0
1, 53520, Note_on_c, 9, 46, 60
1, 53759, Note_on_c, 9, 46, 0
1, 53760, Note_on_c, 9, 42, 60
1, 53999, Note_on_c, 9, 42, 0
1, 54000, Note_on_c, 9, 46, 60
1, 54239, Note_on_c, 9, 46, 0
1, 54240, Note_on_c, 9, 42, 60
1, 54479, Note_on_c, 9, 42, 0
1, 54480, Note_on_c, 9, 46, 60
1, 54719, Note_on_c, 9, 46, 0
1, 54720, Note_on_c, 9, 42, 60
1, 54959, Note_on_c, 9, 42, 0
1, 54960, Note_on_c, 9, 46, 60
1, 55199, Note_on_c, 9, 46, 0
1, 55200, Note_on_c, 9, 42, 60
1, 55439, Note_on_c, 9, 42, 0
1, 55440, Note_on_c, 9, 46, 60
1, 55679, Note_on_c, 9, 46, 0
1, 55680, Note_on_c, 9, 42, 60
1, 55680, Note_on_c, 9, 57, 60
1, 55919, Note_on_c, 9, 42, 0
1, 55919, Note_on_c, 9, 57, 0
1, 55920, Note_on_c, 9, 46, 60
1, 56159, Note_on_c, 9, 46, 0
1, 56160, Note_on_c, 9, 42, 60
1, 56399, Note_on_c, 9, 42, 0
1, 56400, Note_on_c, 9, 42, 60
1, 56639, Note_on_c, 9, 42, 0
1, 56640, Note_on_c, 9, 42, 60
1, 56879, Note_on_c, 9, 42, 0
1, 56880, Note_on_c, 9, 42, 60
1, 57119, Note_on_c, 9, 42, 0
1, 57120, Note_on_c, 9, 42, 60
1, 57359, Note_on_c, 9, 42, 0
1, 57360, Note_on_c, 9, 46, 60
1, 57599, Note_on_c, 9, 46, 0
1, 57600, Note_on_c, 9, 42, 60
1, 57839, Note_on_c, 9, 42, 0
1, 57840, Note_on_c, 9, 46, 60
1, 58079, Note_on_c, 9, 46, 0
1, 58080, Note_on_c, 9, 42, 60
1, 58319, Note_on_c, 9, 42, 0
1, 58320, Note_on_c, 9, 42, 60
1, 58559, Note_on_c, 9, 42, 0
1, 58560, Note_on_c, 9, 42, 60
1, 58799, Note_on_c, 9, 42, 0
1, 58800, Note_on_c, 9, 42, 60
1, 59039, Note_on_c, 9, 42, 0
1, 59040, Note_on_c, 9, 42, 60
1, 59279, Note_on_c, 9, 42, 0
1, 59280, Note_on_c, 9, 46, 60
1, 59519, Note_on_c, 9, 46, 0
1, 59520, Note_on_c, 9, 42, 60
1, 59520, Note_on_c, 9, 57, 60
1, 59759, Note_on_c, 9, 42, 0
1, 59759, Note_on_c, 9, 57, 0
1, 59760, Note_on_c, 9, 46, 60
1, 59999, Note_on_c, 9, 46, 0
1, 60000, Note_on_c, 9, 42, 60
1, 60239, Note_on_c, 9, 42, 0
1, 60240, Note_on_c, 9, 42, 60
1, 60479, Note_on_c, 9, 42, 0
1, 60480, Note_on_c, 9, 42, 60
1, 60719, Note_on_c, 9, 42, 0
1, 60720, Note_on_c, 9, 42, 60
1, 60959, Note_on_c, 9, 42, 0
1, 60960, Note_on_c, 9, 42, 60
1, 61199, Note_on_c, 9, 42, 0
1, 61200, Note_on_c, 9, 46, 60
1, 61439, Note_on_c, 9, 46, 0
1, 61440, Note_on_c, 9, 42, 60
1, 61679, Note_on_c, 9, 42, 0
1, 61680, Note_on_c, 9, 46, 60
1, 61919, Note_on_c, 9, 46, 0
1, 61920, Note_on_c, 9, 42, 60
1, 62159, Note_on_c, 9, 42, 0
1, 62160, Note_on_c, 9, 42, 60
1, 62399, Note_on_c, 9, 42, 0
1, 62400, Note_on_c, 9, 42, 60
1, 62639, Note_on_c, 9, 42, 0
1, 62640, Note_on_c, 9, 42, 60
1, 62879, Note_on_c, 9, 42, 0
1, 62880, Note_on_c, 9, 42, 60
1, 63119, Note_on_c, 9, 42, 0
1, 63120, Note_on_c, 9, 46, 60
1, 63359, Note_on_c, 9, 46, 0
1, 63360, Note_on_c, 9, 42, 60
1, 63360, Note_on_c, 9, 57, 60
1, 63839, Note_on_c, 9, 42, 0
1, 63839, Note_on_c, 9, 57, 0
1, 64800, Note_on_c, 9, 42, 60
1, 64919, Note_on_c, 9, 42, 0
1, 64920, Note_on_c, 9, 42, 60
1, 65039, Note_on_c, 9, 42, 0
1, 65040, Note_on_c, 9, 46, 60
1, 65279, Note_on_c, 9, 46, 0
1, 65280, Note_on_c, 9, 42, 60
1, 65759, Note_on_c, 9, 42, 0
1, 67200, Note_on_c, 9, 42, 60
1, 67200, Note_on_c, 9, 57, 60
1, 67439, Note_on_c, 9, 42, 0
1, 67439, Note_on_c, 9, 57, 0
1, 67440, Note_on_c, 9, 46, 60
1, 67679, Note_on_c, 9, 46, 0
1, 67680, Note_on_c, 9, 42, 60
1, 67919, Note_on_c, 9, 42, 0
1, 67920, Note_on_c, 9, 42, 60
1, 68159, Note_on_c, 9, 42, 0
1, 68160, Note_on_c, 9, 42, 60
1, 68399, Note_on_c, 9, 42, 0
1, 68400, Note_on_c, 9, 42, 60
1, 68639, Note_on_c, 9, 42, 0
1, 68640, Note_on_c, 9, 42, 60
1, 68879, Note_on_c, 9, 42, 0
1, 68880, Note_on_c, 9, 46, 60
1, 69119, Note_on_c, 9, 46, 0
1, 69120, Note_on_c, 9, 42, 60
1, 69359, Note_on_c, 9, 42, 0
1, 69360, Note_on_c, 9, 46, 60
1, 69599, Note_on_c, 9, 46, 0
1, 69600, Note_on_c, 9, 42, 60
1, 69839, Note_on_c, 9, 42, 0
1, 69840, Note_on_c, 9, 42, 60
1, 70079, Note_on_c, 9, 42, 0
1, 70080, Note_on_c, 9, 42, 60
1, 70319, Note_on_c, 9, 42, 0
1, 70320, Note_on_c, 9, 42, 60
1, 70559, Note_on_c, 9, 42, 0
1, 70560, Note_on_c, 9, 42, 60
1, 70799, Note_on_c, 9, 42, 0
1, 70800, Note_on_c, 9, 46, 60
1, 71039, Note_on_c, 9, 46, 0
1, 71040, Note_on_c, 9, 42, 60
1, 71040, Note_on_c, 9, 57, 60
1, 71279, Note_on_c, 9, 42, 0
1, 71279, Note_on_c, 9, 57, 0
1, 71280, Note_on_c, 9, 46, 60
1, 71519, Note_on_c, 9, 46, 0
1, 71520, Note_on_c, 9, 42, 60
1, 71759, Note_on_c, 9, 42, 0
1, 71760, Note_on_c, 9, 42, 60
1, 71999, Note_on_c, 9, 42, 0
1, 72000, Note_on_c, 9, 42, 60
1, 72239, Note_on_c, 9, 42, 0
1, 72240, Note_on_c, 9, 42, 60
1, 72479, Note_on_c, 9, 42, 0
1, 72480, Note_on_c, 9, 42, 60
1, 72719, Note_on_c, 9, 42, 0
1, 72720, Note_on_c, 9, 46, 60
1, 72959, Note_on_c, 9, 46, 0
1, 72960, Note_on_c, 9, 42, 60
1, 73199, Note_on_c, 9, 42, 0
1, 73200, Note_on_c, 9, 46, 60
1, 73439, Note_on_c, 9, 46, 0
1, 73440, Note_on_c, 9, 42, 60
1, 73679, Note_on_c, 9, 42, 0
1, 73680, Note_on_c, 9, 42, 60
1, 73919, Note_on_c, 9, 42, 0
1, 73920, Note_on_c, 9, 42, 60
1, 74159, Note_on_c, 9, 42, 0
1, 74160, Note_on_c, 9, 42, 60
1, 74399, Note_on_c, 9, 42, 0
1, 74400, Note_on_c, 9, 42, 60
1, 74639, Note_on_c, 9, 42, 0
1, 74640, Note_on_c, 9, 46, 60
1, 74879, Note_on_c, 9, 46, 0
1, 74880, Note_on_c, 9, 42, 60
1, 74880, Note_on_c, 9, 57, 60
1, 75119, Note_on_c, 9, 42, 0
1, 75119, Note_on_c, 9, 57, 0
1, 75120, Note_on_c, 9, 46, 60
1, 75359, Note_on_c, 9, 46, 0
1, 75360, Note_on_c, 9, 42, 60
1, 75599, Note_on_c, 9, 42, 0
1, 75600, Note_on_c, 9, 42, 60
1, 75839, Note_on_c, 9, 42, 0
1, 75840, Note_on_c, 9, 42, 60
1, 76079, Note_on_c, 9, 42, 0
1, 76080, Note_on_c, 9, 42, 60
1, 76319, Note_on_c, 9, 42, 0
1, 76320, Note_on_c, 9, 42, 60
1, 76559, Note_on_c, 9, 42, 0
1, 76560, Note_on_c, 9, 46, 60
1, 76799, Note_on_c, 9, 46, 0
1, 76800, Note_on_c, 9, 42, 60
1, 77039, Note_on_c, 9, 42, 0
1, 77040, Note_on_c, 9, 46, 60
1, 77279, Note_on_c, 9, 46, 0
1, 77280, Note_on_c, 9, 42, 60
1, 77519, Note_on_c, 9, 42, 0
1, 77520, Note_on_c, 9, 42, 60
1, 77759, Note_on_c, 9, 42, 0
1, 77760, Note_on_c, 9, 42, 60
1, 77999, Note_on_c, 9, 42, 0
1, 78000, Note_on_c, 9, 42, 60
1, 78239, Note_on_c, 9, 42, 0
1, 78240, Note_on_c, 9, 42, 60
1, 78479, Note_on_c, 9, 42, 0
1, 78480, Note_on_c, 9, 46, 60
1, 78719, Note_on_c, 9, 46, 0
1, 78720, Note_on_c, 9, 42, 60
1, 78720, Note_on_c, 9, 57, 60
1, 78959, Note_on_c, 9, 42, 0
1, 78959, Note_on_c, 9, 57, 0
1, 78960, Note_on_c, 9, 46, 60
1, 79199, Note_on_c, 9, 46, 0
1, 79200, Note_on_c, 9, 42, 60
1, 79439, Note_on_c, 9, 42, 0
1, 79440, Note_on_c, 9, 42, 60
1, 79679, Note_on_c, 9, 42, 0
1, 79680, Note_on_c, 9, 42, 60
1, 79919, Note_on_c, 9, 42, 0
1, 79920, Note_on_c, 9, 42, 60
1, 80159, Note_on_c, 9, 42, 0
1, 80160, Note_on_c, 9, 42, 60
1, 80399, Note_on_c, 9, 42, 0
1, 80400, Note_on_c, 9, 46, 60
1, 80639, Note_on_c, 9, 46, 0
1, 80640, Note_on_c, 9, 42, 60
1, 80879, Note_on_c, 9, 42, 0
1, 80880, Note_on_c, 9, 46, 60
1, 81119, Note_on_c, 9, 46, 0
1, 81120, Note_on_c, 9, 42, 60
1, 81359, Note_on_c, 9, 42, 0
1, 81360, Note_on_c, 9, 42, 60
1, 81599, Note_on_c, 9, 42, 0
1, 81600, Note_on_c, 9, 42, 60
1, 81839, Note_on_c, 9, 42, 0
1, 81840, Note_on_c, 9, 42, 60
1, 82079, Note_on_c, 9, 42, 0
1, 82080, Note_on_c, 9, 42, 60
1, 82319, Note_on_c, 9, 42, 0
1, 82320, Note_on_c, 9, 46, 60
1, 82559, Note_on_c, 9, 46, 0
1, 82560, Note_on_c, 9, 42, 60
1, 82560, Note_on_c, 9, 57, 60
1, 82799, Note_on_c, 9, 42, 0
1, 82799, Note_on_c, 9, 57, 0
1, 82800, Note_on_c, 9, 46, 60
1, 83039, Note_on_c, 9, 46, 0
1, 83040, Note_on_c, 9, 42, 60
1, 83279, Note_on_c, 9, 42, 0
1, 83280, Note_on_c, 9, 42, 60
1, 83519, Note_on_c, 9, 42, 0
1, 83520, Note_on_c, 9, 42, 60
1, 83759, Note_on_c, 9, 42, 0
1, 83760, Note_on_c, 9, 42, 60
1, 83999, Note_on_c, 9, 42, 0
1, 84000, Note_on_c, 9, 42, 60
1, 84239, Note_on_c, 9, 42, 0
1, 84240, Note_on_c, 9, 46, 60
1, 84479, Note_on_c, 9, 46, 0
1, 84480, Note_on_c, 9, 42, 60
1, 84719, Note_on_c, 9, 42, 0
1, 84720, Note_on_c, 9, 46, 60
1, 84959, Note_on_c, 9, 46, 0
1, 84960, Note_on_c, 9, 42, 60
1, 85199, Note_on_c, 9, 42, 0
1, 85200, Note_on_c, 9, 42, 60
1, 85439, Note_on_c, 9, 42, 0
1, 85440, Note_on_c, 9, 42, 60
1, 85679, Note_on_c, 9, 42, 0
1, 85680, Note_on_c, 9, 42, 60
1, 85919, Note_on_c, 9, 42, 0
1, 85920, Note_on_c, 9, 42, 60
1, 86159, Note_on_c, 9, 42, 0
1, 86160, Note_on_c, 9, 46, 60
1, 86399, Note_on_c, 9, 46, 0
1, 86400, Note_on_c, 9, 42, 60
1, 86400, Note_on_c, 9, 57, 60
1, 86639, Note_on_c, 9, 42, 0
1, 86639, Note_on_c, 9, 57, 0
1, 86640, Note_on_c, 9, 46, 60
1, 86879, Note_on_c, 9, 46, 0
1, 86880, Note_on_c, 9, 42, 60
1, 87119, Note_on_c, 9, 42, 0
1, 87120, Note_on_c, 9, 42, 60
1, 87359, Note_on_c, 9, 42, 0
1, 87360, Note_on_c, 9, 42, 60
1, 87599, Note_on_c, 9, 42, 0
1, 87600, Note_on_c, 9, 42, 60
1, 87839, Note_on_c, 9, 42, 0
1, 87840, Note_on_c, 9, 42, 60
1, 88079, Note_on_c, 9, 42, 0
1, 88080, Note_on_c, 9, 46, 60
1, 88319, Note_on_c, 9, 46, 0
1, 88320, Note_on_c, 9, 42, 60
1, 88559, Note_on_c, 9, 42, 0
1, 88560, Note_on_c, 9, 46, 60
1, 88799, Note_on_c, 9, 46, 0
1, 88800, Note_on_c, 9, 42, 60
1, 89039, Note_on_c, 9, 42, 0
1, 89040, Note_on_c, 9, 42, 60
1, 89279, Note_on_c, 9, 42, 0
1, 89280, Note_on_c, 9, 42, 60
1, 89519, Note_on_c, 9, 42, 0
1, 89520, Note_on_c, 9, 42, 60
1, 89759, Note_on_c, 9, 42, 0
1, 89760, Note_on_c, 9, 42, 60
1, 89999, Note_on_c, 9, 42, 0
1, 90000, Note_on_c, 9, 46, 60
1, 90239, Note_on_c, 9, 46, 0
1, 90240, Note_on_c, 9, 42, 60
1, 90240, Note_on_c, 9, 57, 60
1, 90479, Note_on_c, 9, 42, 0
1, 90479, Note_on_c, 9, 57, 0
1, 90480, Note_on_c, 9, 46, 60
1, 90719, Note_on_c, 9, 46, 0
1, 90720, Note_on_c, 9, 42, 60
1, 90959, Note_on_c, 9, 42, 0
1, 90960, Note_on_c, 9, 42, 60
1, 91199, Note_on_c, 9, 42, 0
1, 91200, Note_on_c, 9, 42, 60
1, 91439, Note_on_c, 9, 42, 0
1, 91440, Note_on_c, 9, 42, 60
1, 91679, Note_on_c, 9, 42, 0
1, 91680, Note_on_c, 9, 42, 60
1, 91919, Note_on_c, 9, 42, 0
1, 91920, Note_on_c, 9, 46, 60
1, 92159, Note_on_c, 9, 46, 0
1, 92160, Note_on_c, 9, 42, 60
1, 92399, Note_on_c, 9, 42, 0
1, 92400, Note_on_c, 9, 46, 60
1, 92639, Note_on_c, 9, 46, 0
1, 92640, Note_on_c, 9, 42, 60
1, 92879, Note_on_c, 9, 42, 0
1, 92880, Note_on_c, 9, 42, 60
1, 93119, Note_on_c, 9, 42, 0
1, 93120, Note_on_c, 9, 42, 60
1, 93359, Note_on_c, 9, 42, 0
1, 93360, Note_on_c, 9, 42, 60
1, 93599, Note_on_c, 9, 42, 0
1, 93600, Note_on_c, 9, 42, 60
1, 93839, Note_on_c, 9, 42, 0
1, 93840, Note_on_c, 9, 46, 60
1, 94079, Note_on_c, 9, 46, 0
1, 94080, Note_on_c, 9, 42, 60
1, 94080, Note_on_c, 9, 57, 60
1, 94319, Note_on_c, 9, 42, 0
1, 94319, Note_on_c, 9, 57, 0
1, 94320, Note_on_c, 9, 46, 60
1, 94559, Note_on_c, 9, 46, 0
1, 94560, Note_on_c, 9, 42, 60
1, 94799, Note_on_c, 9, 42, 0
1, 94800, Note_on_c, 9, 42, 60
1, 95039, Note_on_c, 9, 42, 0
1, 95040, Note_on_c, 9, 42, 60
1, 95279, Note_on_c, 9, 42, 0
1, 95280, Note_on_c, 9, 42, 60
1, 95519, Note_on_c, 9, 42, 0
1, 95520, Note_on_c, 9, 42, 60
1, 95759, Note_on_c, 9, 42, 0
1, 95760, Note_on_c, 9, 46, 60
1, 95999, Note_on_c, 9, 46, 0
1, 96000, Note_on_c, 9, 42, 60
1, 96239, Note_on_c, 9, 42, 0
1, 96240, Note_on_c, 9, 46, 60
1, 96479, Note_on_c, 9, 46, 0
1, 96480, Note_on_c, 9, 42, 60
1, 96719, Note_on_c, 9, 42, 0
1, 96720, Note_on_c, 9, 42, 60
1, 96959, Note_on_c, 9, 42, 0
1, 96960, Note_on_c, 9, 42, 60
1, 97199, Note_on_c, 9, 42, 0
1, 97200, Note_on_c, 9, 42, 60
1, 97439, Note_on_c, 9, 42, 0
1, 97440, Note_on_c, 9, 42, 60
1, 97679, Note_on_c, 9, 42, 0
1, 97680, Note_on_c, 9, 46, 60
1, 97919, Note_on_c, 9, 46, 0
1, 97920, Note_on_c, 9, 42, 60
1, 97920, Note_on_c, 9, 57, 60
1, 98159, Note_on_c, 9, 42, 0
1, 98159, Note_on_c, 9, 57, 0
1, 98160, Note_on_c, 9, 46, 60
1, 98399, Note_on_c, 9, 46, 0
1, 98400, Note_on_c, 9, 42, 60
1, 98639, Note_on_c, 9, 42, 0
1, 98640, Note_on_c, 9, 46, 60
1, 98879, Note_on_c, 9, 46, 0
1, 98880, Note_on_c, 9, 42, 60
1, 99119, Note_on_c, 9, 42, 0
1, 99120, Note_on_c, 9, 46, 60
1, 99359, Note_on_c, 9, 46, 0
1, 99360, Note_on_c, 9, 42, 60
1, 99599, Note_on_c, 9, 42, 0
1, 99600, Note_on_c, 9, 46, 60
1, 99839, Note_on_c, 9, 46, 0
1, 99840, Note_on_c, 9, 42, 60
1, 100079, Note_on_c, 9, 42, 0
1, 100080, Note_on_c, 9, 46, 60
1, 100319, Note_on_c, 9, 46, 0
1, 100320, Note_on_c, 9, 42, 60
1, 100559, Note_on_c, 9, 42, 0
1, 100560, Note_on_c, 9, 46, 60
1, 100799, Note_on_c, 9, 46, 0
1, 100800, Note_on_c, 9, 42, 60
1, 101039, Note_on_c, 9, 42, 0
1, 101040, Note_on_c, 9, 46, 60
1, 101279, Note_on_c, 9, 46, 0
1, 101280, Note_on_c, 9, 42, 60
1, 101519, Note_on_c, 9, 42, 0
1, 101520, Note_on_c, 9, 46, 60
1, 101759, Note_on_c, 9, 46, 0
1, 101760, Note_on_c, 9, 42, 60
1, 101999, Note_on_c, 9, 42, 0
1, 102000, Note_on_c, 9, 46, 60
1, 102239, Note_on_c, 9, 46, 0
1, 102240, Note_on_c, 9, 42, 60
1, 102479, Note_on_c, 9, 42, 0
1, 102480, Note_on_c, 9, 46, 60
1, 102719, Note_on_c, 9, 46, 0
1, 102720, Note_on_c, 9, 42, 60
1, 102959, Note_on_c, 9, 42, 0
1, 102960, Note_on_c, 9, 46, 60
1, 103199, Note_on_c, 9, 46, 0
1, 103200, Note_on_c, 9, 42, 60
1, 103439, Note_on_c, 9, 42, 0
1, 103440, Note_on_c, 9, 46, 60
1, 103679, Note_on_c, 9, 46, 0
1, 103680, Note_on_c, 9, 42, 60
1, 103919, Note_on_c, 9, 42, 0
1, 103920, Note_on_c, 9, 46, 60
1, 104159, Note_on_c, 9, 46, 0
1, 104160, Note_on_c, 9, 42, 60
1, 104399, Note_on_c, 9, 42, 0
1, 104400, Note_on_c, 9, 46, 60
1, 104639, Note_on_c, 9, 46, 0
1, 104640, Note_on_c, 9, 42, 60
1, 104879, Note_on_c, 9, 42, 0
1, 104880, Note_on_c, 9, 46, 60
1, 105119, Note_on_c, 9, 46, 0
1, 105120, Note_on_c, 9, 42, 60
1, 105359, Note_on_c, 9, 42, 0
1, 105360, Note_on_c, 9, 46, 60
1, 105599, Note_on_c, 9, 46, 0
1, 105600, Note_on_c, 9, 42, 60
1, 105600, Note_on_c, 9, 57, 60
1, 105839, Note_on_c, 9, 42, 0
1, 105839, Note_on_c, 9, 57, 0
1, 105840, Note_on_c, 9, 46, 60
1, 106079, Note_on_c, 9, 46, 0
1, 106080, Note_on_c, 9, 42, 60
1, 106319, Note_on_c, 9, 42, 0
1, 106320, Note_on_c, 9, 46, 60
1, 106559, Note_on_c, 9, 46, 0
1, 106560, Note_on_c, 9, 42, 60
1, 106799, Note_on_c, 9, 42, 0
1, 106800, Note_on_c, 9, 46, 60
1, 107039, Note_on_c, 9, 46, 0
1, 107040, Note_on_c, 9, 42, 60
1, 107279, Note_on_c, 9, 42, 0
1, 107280, Note_on_c, 9, 46, 60
1, 107519, Note_on_c, 9, 46, 0
1, 107520, Note_on_c, 9, 42, 60
1, 107759, Note_on_c, 9, 42, 0
1, 107760, Note_on_c, 9, 46, 60
1, 107999, Note_on_c, 9, 46, 0
1, 108000, Note_on_c, 9, 42, 60
1, 108239, Note_on_c, 9, 42, 0
1, 108240, Note_on_c, 9, 46, 60
1, 108479, Note_on_c, 9, 46, 0
1, 108480, Note_on_c, 9, 42, 60
1, 108719, Note_on_c, 9, 42, 0
1, 108720, Note_on_c, 9, 46, 60
1, 108959, Note_on_c, 9, 46, 0
1, 108960, Note_on_c, 9, 42, 60
1, 109199, Note_on_c, 9, 42, 0
1, 109200, Note_on_c, 9, 46, 60
1, 109439, Note_on_c, 9, 46, 0
1, 109440, Note_on_c, 9, 42, 60
1, 109679, Note_on_c, 9, 42, 0
1, 109680, Note_on_c, 9, 46, 60
1, 109919, Note_on_c, 9, 46, 0
1, 109920, Note_on_c, 9, 42, 60
1, 110159, Note_on_c, 9, 42, 0
1, 110160, Note_on_c, 9, 46, 60
1, 110399, Note_on_c, 9, 46, 0
1, 110400, Note_on_c, 9, 42, 60
1, 110639, Note_on_c, 9, 42, 0
1, 110640, Note_on_c, 9, 46, 60
1, 110879, Note_on_c, 9, 46, 0
1, 110880, Note_on_c, 9, 42, 60
1, 111119, Note_on_c, 9, 42, 0
1, 111120, Note_on_c, 9, 46, 60
1, 111359, Note_on_c, 9, 46, 0
1, 111360, Note_on_c, 9, 42, 60
1, 111599, Note_on_c, 9, 42, 0
1, 111600, Note_on_c, 9, 46, 60
1, 111839, Note_on_c, 9, 46, 0
1, 111840, Note_on_c, 9, 42, 60
1, 112079, Note_on_c, 9, 42, 0
1, 112080, Note_on_c, 9, 46, 60
1, 112319, Note_on_c, 9, 46, 0
1, 112320, Note_on_c, 9, 42, 60
1, 112559, Note_on_c, 9, 42, 0
1, 112560, Note_on_c, 9, 46, 60
1, 112799, Note_on_c, 9, 46, 0
1, 112800, Note_on_c, 9, 42, 60
1, 113039, Note_on_c, 9, 42, 0
1, 113040, Note_on_c, 9, 46, 60
1, 113279, Note_on_c, 9, 46, 0
1, 113280, Note_on_c, 9, 42, 60
1, 113280, Note_on_c, 9, 57, 60
1, 113519, Note_on_c, 9, 42, 0
1, 113519, Note_on_c, 9, 57, 0
1, 113520, Note_on_c, 9, 46, 60
1, 113759, Note_on_c, 9, 46, 0
1, 113760, Note_on_c, 9, 42, 60
1, 113999, Note_on_c, 9, 42, 0
1, 114000, Note_on_c, 9, 42, 60
1, 114239, Note_on_c, 9, 42, 0
1, 114240, Note_on_c, 9, 42, 60
1, 114479, Note_on_c, 9, 42, 0
1, 114480, Note_on_c, 9, 42, 60
1, 114719, Note_on_c, 9, 42, 0
1, 114720, Note_on_c, 9, 42, 60
1, 114959, Note_on_c, 9, 42, 0
1, 114960, Note_on_c, 9, 46, 60
1, 115199, Note_on_c, 9, 46, 0
1, 115200, Note_on_c, 9, 42, 60
1, 115439, Note_on_c, 9, 42, 0
1, 115440, Note_on_c, 9, 46, 60
1, 115679, Note_on_c, 9, 46, 0
1, 115680, Note_on_c, 9, 42, 60
1, 115919, Note_on_c, 9, 42, 0
1, 115920, Note_on_c, 9, 42, 60
1, 116159, Note_on_c, 9, 42, 0
1, 116160, Note_on_c, 9, 42, 60
1, 116399, Note_on_c, 9, 42, 0
1, 116400, Note_on_c, 9, 42, 60
1, 116639, Note_on_c, 9, 42, 0
1, 116640, Note_on_c, 9, 42, 60
1, 116879, Note_on_c, 9, 42, 0
1, 116880, Note_on_c, 9, 46, 60
1, 117119, Note_on_c, 9, 46, 0
1, 117120, Note_on_c, 9, 42, 60
1, 117120, Note_on_c, 9, 57, 60
1, 117359, Note_on_c, 9, 42, 0
1, 117359, Note_on_c, 9, 57, 0
1, 117360, Note_on_c, 9, 46, 60
1, 117599, Note_on_c, 9, 46, 0
1, 117600, Note_on_c, 9, 42, 60
1, 117839, Note_on_c, 9, 42, 0
1, 117840, Note_on_c, 9, 42, 60
1, 118079, Note_on_c, 9, 42, 0
1, 118080, Note_on_c, 9, 42, 60
1, 118319, Note_on_c, 9, 42, 0
1, 118320, Note_on_c, 9, 42, 60
1, 118559, Note_on_c, 9, 42, 0
1, 118560, Note_on_c, 9, 42, 60
1, 118799, Note_on_c, 9, 42, 0
1, 118800, Note_on_c, 9, 46, 60
1, 119039, Note_on_c, 9, 46, 0
1, 119040, Note_on_c, 9, 42, 60
1, 119279, Note_on_c, 9, 42, 0
1, 119280, Note_on_c, 9, 46, 60
1, 119519, Note_on_c, 9, 46, 0
1, 119520, Note_on_c, 9, 42, 60
1, 119759, Note_on_c, 9, 42, 0
1, 119760, Note_on_c, 9, 42, 60
1, 119999, Note_on_c, 9, 42, 0
1, 120000, Note_on_c, 9, 42, 60
1, 120239, Note_on_c, 9, 42, 0
1, 120240, Note_on_c, 9, 42, 60
1, 120479, Note_on_c, 9, 42, 0
1, 120480, Note_on_c, 9, 42, 60
1, 120719, Note_on_c, 9, 42, 0
1, 120720, Note_on_c, 9, 46, 60
1, 120959, Note_on_c, 9, 46, 0
1, 120960, Note_on_c, 9, 42, 60
1, 120960, Note_on_c, 9, 57, 60
1, 121199, Note_on_c, 9, 42, 0
1, 121199, Note_on_c, 9, 57, 0
1, 121200, Note_on_c, 9, 46, 60
1, 121439, Note_on_c, 9, 46, 0
1, 121440, Note_on_c, 9, 42, 60
1, 121679, Note_on_c, 9, 42, 0
1, 121680, Note_on_c, 9, 42, 60
1, 121919, Note_on_c, 9, 42, 0
1, 121920, Note_on_c, 9, 42, 60
1, 122159, Note_on_c, 9, 42, 0
1, 122160, Note_on_c, 9, 42, 60
1, 122399, Note_on_c, 9, 42, 0
1, 122400, Note_on_c, 9, 42, 60
1, 122639, Note_on_c, 9, 42, 0
1, 122640, Note_on_c, 9, 46, 60
1, 122879, Note_on_c, 9, 46, 0
1, 122880, Note_on_c, 9, 42, 60
1, 123119, Note_on_c, 9, 42, 0
1, 123120, Note_on_c, 9, 46, 60
1, 123359, Note_on_c, 9, 46, 0
1, 123360, Note_on_c, 9, 42, 60
1, 123599, Note_on_c, 9, 42, 0
1, 123600, Note_on_c, 9, 42, 60
1, 123839, Note_on_c, 9, 42, 0
1, 123840, Note_on_c, 9, 42, 60
1, 124079, Note_on_c, 9, 42, 0
1, 124080, Note_on_c, 9, 42, 60
1, 124319, Note_on_c, 9, 42, 0
1, 124320, Note_on_c, 9, 42, 60
1, 124559, Note_on_c, 9, 42, 0
1, 124560, Note_on_c, 9, 46, 60
1, 124799, Note_on_c, 9, 46, 0
1, 124800, Note_on_c, 9, 42, 60
1, 124800, Note_on_c, 9, 57, 60
1, 125039, Note_on_c, 9, 42, 0
1, 125039, Note_on_c, 9, 57, 0
1, 125040, Note_on_c, 9, 46, 60
1, 125279, Note_on_c, 9, 46, 0
1, 125280, Note_on_c, 9, 42, 60
1, 125519, Note_on_c, 9, 42, 0
1, 125520, Note_on_c, 9, 42, 60
1, 125759, Note_on_c, 9, 42, 0
1, 125760, Note_on_c, 9, 42, 60
1, 125999, Note_on_c, 9, 42, 0
1, 126000, Note_on_c, 9, 42, 60
1, 126239, Note_on_c, 9, 42, 0
1, 126240, Note_on_c, 9, 42, 60
1, 126479, Note_on_c, 9, 42, 0
1, 126480, Note_on_c, 9, 46, 60
1, 126719, Note_on_c, 9, 46, 0
1, 126720, Note_on_c, 9, 42, 60
1, 126959, Note_on_c, 9, 42, 0
1, 126960, Note_on_c, 9, 46, 60
1, 127199, Note_on_c, 9, 46, 0
1, 127200, Note_on_c, 9, 42, 60
1, 127439, Note_on_c, 9, 42, 0
1, 127440, Note_on_c, 9, 42, 60
1, 127679, Note_on_c, 9, 42, 0
1, 127680, Note_on_c, 9, 42, 60
1, 127919, Note_on_c, 9, 42, 0
1, 127920, Note_on_c, 9, 42, 60
1, 128159, Note_on_c, 9, 42, 0
1, 128160, Note_on_c, 9, 42, 60
1, 128399, Note_on_c, 9, 42, 0
1, 128400, Note_on_c, 9, 46, 60
1, 128639, Note_on_c, 9, 46, 0
1, 128640, Note_on_c, 9, 42, 60
1, 128640, Note_on_c, 9, 57, 60
1, 129119, Note_on_c, 9, 42, 0
1, 129119, Note_on_c, 9, 57, 0
1, 132000, Note_on_c, 9, 42, 60
1, 132119, Note_on_c, 9, 42, 0
1, 132120, Note_on_c, 9, 42, 60
1, 132239, Note_on_c, 9, 42, 0
1, 132240, Note_on_c, 9, 46, 60
1, 132479, Note_on_c, 9, 46, 0
1, 132480, Note_on_c, 9, 42, 60
1, 132480, Note_on_c, 9, 57, 60
1, 132719, Note_on_c, 9, 42, 0
1, 132719, Note_on_c, 9, 57, 0
1, 132720, Note_on_c, 9, 46, 60
1, 132959, Note_on_c, 9, 46, 0
1, 132960, Note_on_c, 9, 42, 60
1, 133199, Note_on_c, 9, 42, 0
1, 133200, Note_on_c, 9, 46, 60
1, 133439, Note_on_c, 9, 46, 0
1, 133440, Note_on_c, 9, 42, 60
1, 133679, Note_on_c, 9, 42, 0
1, 133680, Note_on_c, 9, 46, 60
1, 133919, Note_on_c, 9, 46, 0
1, 133920, Note_on_c, 9, 42, 60
1, 134159, Note_on_c, 9, 42, 0
1, 134160, Note_on_c, 9, 46, 60
1, 134399, Note_on_c, 9, 46, 0
1, 134400, Note_on_c, 9, 42, 60
1, 134639, Note_on_c, 9, 42, 0
1, 134640, Note_on_c, 9, 46, 60
1, 134879, Note_on_c, 9, 46, 0
1, 134880, Note_on_c, 9, 42, 60
1, 135119, Note_on_c, 9, 42, 0
1, 135120, Note_on_c, 9, 46, 60
1, 135359, Note_on_c, 9, 46, 0
1, 135360, Note_on_c, 9, 42, 60
1, 135599, Note_on_c, 9, 42, 0
1, 135600, Note_on_c, 9, 46, 60
1, 135839, Note_on_c, 9, 46, 0
1, 135840, Note_on_c, 9, 42, 60
1, 136079, Note_on_c, 9, 42, 0
1, 136080, Note_on_c, 9, 46, 60
1, 136319, Note_on_c, 9, 46, 0
1, 136320, Note_on_c, 9, 42, 60
1, 136559, Note_on_c, 9, 42, 0
1, 136560, Note_on_c, 9, 46, 60
1, 136799, Note_on_c, 9, 46, 0
1, 136800, Note_on_c, 9, 42, 60
1, 137039, Note_on_c, 9, 42, 0
1, 137040, Note_on_c, 9, 46, 60
1, 137279, Note_on_c, 9, 46, 0
1, 137280, Note_on_c, 9, 42, 60
1, 137519, Note_on_c, 9, 42, 0
1, 137520, Note_on_c, 9, 46, 60
1, 137759, Note_on_c, 9, 46, 0
1, 137760, Note_on_c, 9, 42, 60
1, 137999, Note_on_c, 9, 42, 0
1, 138000, Note_on_c, 9, 46, 60
1, 138239, Note_on_c, 9, 46, 0
1, 138240, Note_on_c, 9, 42, 60
1, 138479, Note_on_c, 9, 42, 0
1, 138480, Note_on_c, 9, 46, 60
1, 138719, Note_on_c, 9, 46, 0
1, 138720, Note_on_c, 9, 42, 60
1, 138959, Note_on_c, 9, 42, 0
1, 138960, Note_on_c, 9, 46, 60
1, 139199, Note_on_c, 9, 46, 0
1, 139200, Note_on_c, 9, 42, 60
1, 139439, Note_on_c, 9, 42, 0
1, 139440, Note_on_c, 9, 46, 60
1, 139679, Note_on_c, 9, 46, 0
1, 139680, Note_on_c, 9, 42, 60
1, 139919, Note_on_c, 9, 42, 0
1, 139920, Note_on_c, 9, 46, 60
1, 140159, Note_on_c, 9, 46, 0
1, 140160, Note_on_c, 9, 42, 60
1, 140160, Note_on_c, 9, 57, 60
1, 140399, Note_on_c, 9, 42, 0
1, 140399, Note_on_c, 9, 57, 0
1, 140400, Note_on_c, 9, 46, 60
1, 140639, Note_on_c, 9, 46, 0
1, 140640, Note_on_c, 9, 42, 60
1, 140879, Note_on_c, 9, 42, 0
1, 140880, Note_on_c, 9, 46, 60
1, 141119, Note_on_c, 9, 46, 0
1, 141120, Note_on_c, 9, 42, 60
1, 141359, Note_on_c, 9, 42, 0
1, 141360, Note_on_c, 9, 46, 60
1, 141599, Note_on_c, 9, 46, 0
1, 141600, Note_on_c, 9, 42, 60
1, 141839, Note_on_c, 9, 42, 0
1, 141840, Note_on_c, 9, 46, 60
1, 142079, Note_on_c, 9, 46, 0
1, 142080, Note_on_c, 9, 42, 60
1, 142319, Note_on_c, 9, 42, 0
1, 142320, Note_on_c, 9, 46, 60
1, 142559, Note_on_c, 9, 46, 0
1, 142560, Note_on_c, 9, 42, 60
1, 142799, Note_on_c, 9, 42, 0
1, 142800, Note_on_c, 9, 46, 60
1, 143039, Note_on_c, 9, 46, 0
1, 143040, Note_on_c, 9, 42, 60
1, 143279, Note_on_c, 9, 42, 0
1, 143280, Note_on_c, 9, 46, 60
1, 143519, Note_on_c, 9, 46, 0
1, 143520, Note_on_c, 9, 42, 60
1, 143759, Note_on_c, 9, 42, 0
1, 143760, Note_on_c, 9, 46, 60
1, 143999, Note_on_c, 9, 46, 0
1, 144000, Note_on_c, 9, 42, 60
1, 144239, Note_on_c, 9, 42, 0
1, 144240, Note_on_c, 9, 46, 60
1, 144479, Note_on_c, 9, 46, 0
1, 144480, Note_on_c, 9, 42, 60
1, 144719, Note_on_c, 9, 42, 0
1, 144720, Note_on_c, 9, 46, 60
1, 144959, Note_on_c, 9, 46, 0
1, 144960, Note_on_c, 9, 42, 60
1, 145199, Note_on_c, 9, 42, 0
1, 145200, Note_on_c, 9, 46, 60
1, 145439, Note_on_c, 9, 46, 0
1, 145440, Note_on_c, 9, 42, 60
1, 145679, Note_on_c, 9, 42, 0
1, 145680, Note_on_c, 9, 46, 60
1, 145919, Note_on_c, 9, 46, 0
1, 145920, Note_on_c, 9, 42, 60
1, 146159, Note_on_c, 9, 42, 0
1, 146160, Note_on_c, 9, 46, 60
1, 146399, Note_on_c, 9, 46, 0
1, 146400, Note_on_c, 9, 42, 60
1, 146639, Note_on_c, 9, 42, 0
1, 146640, Note_on_c, 9, 46, 60
1, 146879, Note_on_c, 9, 46, 0
1, 146880, Note_on_c, 9, 42, 60
1, 147119, Note_on_c, 9, 42, 0
1, 147120, Note_on_c, 9, 46, 60
1, 147359, Note_on_c, 9, 46, 0
1, 147360, Note_on_c, 9, 42, 60
1, 147599, Note_on_c, 9, 42, 0
1, 147600, Note_on_c, 9, 46, 60
1, 147839, Note_on_c, 9, 46, 0
1, 147840, Note_on_c, 9, 42, 60
1, 147840, Note_on_c, 9, 57, 60
1, 148079, Note_on_c, 9, 42, 0
1, 148079, Note_on_c, 9, 57, 0
1, 148080, Note_on_c, 9, 46, 60
1, 148319, Note_on_c, 9, 46, 0
1, 148320, Note_on_c, 9, 42, 60
1, 148559, Note_on_c, 9, 42, 0
1, 148560, Note_on_c, 9, 42, 60
1, 148799, Note_on_c, 9, 42, 0
1, 148800, Note_on_c, 9, 42, 60
1, 149039, Note_on_c, 9, 42, 0
1, 149040, Note_on_c, 9, 42, 60
1, 149279, Note_on_c, 9, 42, 0
1, 149280, Note_on_c, 9, 42, 60
1, 149519, Note_on_c, 9, 42, 0
1, 149520, Note_on_c, 9, 46, 60
1, 149759, Note_on_c, 9, 46, 0
1, 149760, Note_on_c, 9, 42, 60
1, 149999, Note_on_c, 9, 42, 0
1, 150000, Note_on_c, 9, 46, 60
1, 150239, Note_on_c, 9, 46, 0
1, 150240, Note_on_c, 9, 42, 60
1, 150479, Note_on_c, 9, 42, 0
1, 150480, Note_on_c, 9, 42, 60
1, 150719, Note_on_c, 9, 42, 0
1, 150720, Note_on_c, 9, 42, 60
1, 150959, Note_on_c, 9, 42, 0
1, 150960, Note_on_c, 9, 42, 60
1, 151199, Note_on_c, 9, 42, 0
1, 151200, Note_on_c, 9, 42, 60
1, 151439, Note_on_c, 9, 42, 0
1, 151440, Note_on_c, 9, 46, 60
1, 151679, Note_on_c, 9, 46, 0
1, 151680, Note_on_c, 9, 42, 60
1, 151680, Note_on_c, 9, 57, 60
1, 151919, Note_on_c, 9, 42, 0
1, 151919, Note_on_c, 9, 57, 0
1, 151920, Note_on_c, 9, 46, 60
1, 152159, Note_on_c, 9, 46, 0
1, 152160, Note_on_c, 9, 42, 60
1, 152399, Note_on_c, 9, 42, 0
1, 152400, Note_on_c, 9, 42, 60
1, 152639, Note_on_c, 9, 42, 0
1, 152640, Note_on_c, 9, 42, 60
1, 152879, Note_on_c, 9, 42, 0
1, 152880, Note_on_c, 9, 42, 60
1, 153119, Note_on_c, 9, 42, 0
1, 153120, Note_on_c, 9, 42, 60
1, 153359, Note_on_c, 9, 42, 0
1, 153360, Note_on_c, 9, 46, 60
1, 153599, Note_on_c, 9, 46, 0
1, 153600, Note_on_c, 9, 42, 60
1, 153839, Note_on_c, 9, 42, 0
1, 153840, Note_on_c, 9, 46, 60
1, 154079, Note_on_c, 9, 46, 0
1, 154080, Note_on_c, 9, 42, 60
1, 154319, Note_on_c, 9, 42, 0
1, 154320, Note_on_c, 9, 42, 60
1, 154559, Note_on_c, 9, 42, 0
1, 154560, Note_on_c, 9, 42, 60
1, 154799, Note_on_c, 9, 42, 0
1, 154800, Note_on_c, 9, 42, 60
1, 155039, Note_on_c, 9, 42, 0
1, 155040, Note_on_c, 9, 42, 60
1, 155279, Note_on_c, 9, 42, 0
1, 155280, Note_on_c, 9, 46, 60
1, 155519, Note_on_c, 9, 46, 0
1, 155520, Note_on_c, 9, 42, 60
1, 155520, Note_on_c, 9, 57, 60
1, 155759, Note_on_c, 9, 42, 0
1, 155759, Note_on_c, 9, 57, 0
1, 155760, Note_on_c, 9, 46, 60
1, 155999, Note_on_c, 9, 46, 0
1, 156000, Note_on_c, 9, 42, 60
1, 156239, Note_on_c, 9, 42, 0
1, 156240, Note_on_c, 9, 42, 60
1, 156479, Note_on_c, 9, 42, 0
1, 156480, Note_on_c, 9, 42, 60
1, 156719, Note_on_c, 9, 42, 0
1, 156720, Note_on_c, 9, 42, 60
1, 156959, Note_on_c, 9, 42, 0
1, 156960, Note_on_c, 9, 42, 60
1, 157199, Note_on_c, 9, 42, 0
1, 157200, Note_on_c, 9, 46, 60
1, 157439, Note_on_c, 9, 46, 0
1, 157440, Note_on_c, 9, 42, 60
1, 157679, Note_on_c, 9, 42, 0
1, 157680, Note_on_c, 9, 46, 60
1, 157919, Note_on_c, 9, 46, 0
1, 157920, Note_on_c, 9, 42, 60
1, 158159, Note_on_c, 9, 42, 0
1, 158160, Note_on_c, 9, 42, 60
1, 158399, Note_on_c, 9, 42, 0
1, 158400, Note_on_c, 9, 42, 60
1, 158639, Note_on_c, 9, 42, 0
1, 158640, Note_on_c, 9, 42, 60
1, 158879, Note_on_c, 9, 42, 0
1, 158880, Note_on_c, 9, 42, 60
1, 159119, Note_on_c, 9, 42, 0
1, 159120, Note_on_c, 9, 46, 60
1, 159359, Note_on_c, 9, 46, 0
1, 159360, Note_on_c, 9, 42, 60
1, 159360, Note_on_c, 9, 57, 60
1, 159599, Note_on_c, 9, 42, 0
1, 159599, Note_on_c, 9, 57, 0
1, 159600, Note_on_c, 9, 46, 60
1, 159839, Note_on_c, 9, 46, 0
1, 159840, Note_on_c, 9, 42, 60
1, 160079, Note_on_c, 9, 42, 0
1, 160080, Note_on_c, 9, 42, 60
1, 160319, Note_on_c, 9, 42, 0
1, 160320, Note_on_c, 9, 42, 60
1, 160559, Note_on_c, 9, 42, 0
1, 160560, Note_on_c, 9, 42, 60
1, 160799, Note_on_c, 9, 42, 0
1, 160800, Note_on_c, 9, 42, 60
1, 161039, Note_on_c, 9, 42, 0
1, 161040, Note_on_c, 9, 46, 60
1, 161279, Note_on_c, 9, 46, 0
1, 161280, Note_on_c, 9, 42, 60
1, 161519, Note_on_c, 9, 42, 0
1, 161520, Note_on_c, 9, 46, 60
1, 161759, Note_on_c, 9, 46, 0
1, 161760, Note_on_c, 9, 42, 60
1, 161999, Note_on_c, 9, 42, 0
1, 162000, Note_on_c, 9, 42, 60
1, 162239, Note_on_c, 9, 42, 0
1, 162240, Note_on_c, 9, 42, 60
1, 162479, Note_on_c, 9, 42, 0
1, 162480, Note_on_c, 9, 42, 60
1, 162719, Note_on_c, 9, 42, 0
1, 162720, Note_on_c, 9, 42, 60
1, 162959, Note_on_c, 9, 42, 0
1, 162960, Note_on_c, 9, 46, 60
1, 163199, Note_on_c, 9, 46, 0
1, 163200, Note_on_c, 9, 42, 60
1, 163200, Note_on_c, 9, 57, 60
1, 163679, Note_on_c, 9, 42, 0
1, 163679, Note_on_c, 9, 57, 0
1, 164640, Note_on_c, 9, 42, 60
1, 164759, Note_on_c, 9, 42, 0
1, 164760, Note_on_c, 9, 42, 60
1, 164879, Note_on_c, 9, 42, 0
1, 164880, Note_on_c, 9, 46, 60
1, 165119, Note_on_c, 9, 46, 0
1, 165120, Note_on_c, 9, 42, 60
1, 165120, Note_on_c, 9, 57, 60
1, 165599, Note_on_c, 9, 42, 0
1, 165599, Note_on_c, 9, 57, 0
1, 165600, End_track
2, 0, Start_track
2, 0, Key_signature, 0, "major"
2, 0, Control_c, 9, 121, 0
2, 0, Program_c, 9, 0
2, 0, Control_c, 9, 7, 127
2, 0, Control_c, 9, 10, 64
2, 0, Control_c, 9, 91, 0
2, 0, Control_c, 9, 93, 0
2, 0, MIDI_port, 0
2, 360, Note_on_c, 9, 38, 75
2, 360, Note_on_c, 9, 36, 75
2, 479, Note_on_c, 9, 38, 0
2, 479, Note_on_c, 9, 36, 0
2, 480, Note_on_c, 9, 38, 75
2, 480, Note_on_c, 9, 36, 75
2, 959, Note_on_c, 9, 38, 0
2, 959, Note_on_c, 9, 36, 0
2, 960, Note_on_c, 9, 38, 75
2, 960, Note_on_c, 9, 36, 75
2, 1199, Note_on_c, 9, 38, 0
2, 1199, Note_on_c, 9, 36, 0
2, 1200, Note_on_c, 9, 38, 75
2, 1200, Note_on_c, 9, 36, 75
2, 1439, Note_on_c, 9, 38, 0
2, 1439, Note_on_c, 9, 36, 0
2, 1440, Note_on_c, 9, 38, 75
2, 1440, Note_on_c, 9, 36, 75
2, 1559, Note_on_c, 9, 38, 0
2, 1559, Note_on_c, 9, 36, 0
2, 1560, Note_on_c, 9, 38, 75
2, 1560, Note_on_c, 9, 36, 75
2, 1679, Note_on_c, 9, 38, 0
2, 1679, Note_on_c, 9, 36, 0
2, 1680, Note_on_c, 9, 38, 75
2, 1680, Note_on_c, 9, 36, 75
2, 1799, Note_on_c, 9, 38, 0
2, 1799, Note_on_c, 9, 36, 0
2, 1800, Note_on_c, 9, 38, 75
2, 1800, Note_on_c, 9, 36, 75
2, 1919, Note_on_c, 9, 38, 0
2, 1919, Note_on_c, 9, 36, 0
2, 1920, Note_on_c, 9, 36, 75
2, 2399, Note_on_c, 9, 36, 0
2, 2400, Note_on_c, 9, 38, 75
2, 2400, Note_on_c, 9, 36, 75
2, 2879, Note_on_c, 9, 38, 0
2, 2879, Note_on_c, 9, 36, 0
2, 2880, Note_on_c, 9, 36, 75
2, 3239, Note_on_c, 9, 36, 0
2, 3240, Note_on_c, 9, 36, 75
2, 3359, Note_on_c, 9, 36, 0
2, 3360, Note_on_c, 9, 38, 75
2, 3360, Note_on_c, 9, 36, 75
2, 3839, Note_on_c, 9, 38, 0
2, 3839, Note_on_c, 9, 36, 0
2, 3840, Note_on_c, 9, 36, 75
2, 4319, Note_on_c, 9, 36, 0
2, 4320, Note_on_c, 9, 38, 75
2, 4320, Note_on_c, 9, 36, 75
2, 4799, Note_on_c, 9, 38, 0
2, 4799, Note_on_c, 9, 36, 0
2, 4800, Note_on_c, 9, 36, 75
2, 5159, Note_on_c, 9, 36, 0
2, 5160, Note_on_c, 9, 36, 75
2, 5279, Note_on_c, 9, 36, 0
2, 5280, Note_on_c, 9, 38, 75
2, 5280, Note_on_c, 9, 36, 75
2, 5759, Note_on_c, 9, 38, 0
2, 5759, Note_on_c, 9, 36, 0
2, 5760, Note_on_c, 9, 36, 75
2, 6239, Note_on_c, 9, 36, 0
2, 6240, Note_on_c, 9, 38, 75
2, 6240, Note_on_c, 9, 36, 75
2, 6719, Note_on_c, 9, 38, 0
2, 6719, Note_on_c, 9, 36, 0
2, 6720, Note_on_c, 9, 36, 75
2, 7079, Note_on_c, 9, 36, 0
2, 7080, Note_on_c, 9, 36, 75
2, 7199, Note_on_c, 9, 36, 0
2, 7200, Note_on_c, 9, 38, 75
2, 7200, Note_on_c, 9, 36, 75
2, 7679, Note_on_c, 9, 38, 0
2, 7679, Note_on_c, 9, 36, 0
2, 7680, Note_on_c, 9, 36, 75
2, 8039, Note_on_c, 9, 36, 0
2, 8040, Note_on_c, 9, 36, 75
2, 8159, Note_on_c, 9, 36, 0
2, 8160, Note_on_c, 9, 38, 75
2, 8160, Note_on_c, 9, 36, 75
2, 8399, Note_on_c, 9, 36, 0
2, 8400, Note_on_c, 9, 36, 75
2, 8519, Note_on_c, 9, 38, 0
2, 8520, Note_on_c, 9, 38, 75
2, 8639, Note_on_c, 9, 36, 0
2, 8639, Note_on_c, 9, 38, 0
2, 8640, Note_on_c, 9, 38, 75
2, 8640, Note_on_c, 9, 36, 75
2, 8879, Note_on_c, 9, 38, 0
2, 8879, Note_on_c, 9, 36, 0
2, 8880, Note_on_c, 9, 38, 75
2, 8880, Note_on_c, 9, 36, 75
2, 9119, Note_on_c, 9, 38, 0
2, 9119, Note_on_c, 9, 36, 0
2, 9120, Note_on_c, 9, 38, 75
2, 9120, Note_on_c, 9, 36, 75
2, 9239, Note_on_c, 9, 38, 0
2, 9239, Note_on_c, 9, 36, 0
2, 9240, Note_on_c, 9, 38, 75
2, 9240, Note_on_c, 9, 36, 75
2, 9359, Note_on_c, 9, 38, 0
2, 9359, Note_on_c, 9, 36, 0
2, 9360, Note_on_c, 9, 38, 75
2, 9360, Note_on_c, 9, 36, 75
2, 9479, Note_on_c, 9, 38, 0
2, 9479, Note_on_c, 9, 36, 0
2, 9480, Note_on_c, 9, 38, 75
2, 9480, Note_on_c, 9, 36, 75
2, 9599, Note_on_c, 9, 38, 0
2, 9599, Note_on_c, 9, 36, 0
2, 9600, Note_on_c, 9, 36, 75
2, 10079, Note_on_c, 9, 36, 0
2, 10080, Note_on_c, 9, 38, 75
2, 10080, Note_on_c, 9, 36, 75
2, 10559, Note_on_c, 9, 38, 0
2, 10559, Note_on_c, 9, 36, 0
2, 10560, Note_on_c, 9, 36, 75
2, 10919, Note_on_c, 9, 36, 0
2, 10920, Note_on_c, 9, 36, 75
2, 11039, Note_on_c, 9, 36, 0
2, 11040, Note_on_c, 9, 38, 75
2, 11040, Note_on_c, 9, 36, 75
2, 11519, Note_on_c, 9, 38, 0
2, 11519, Note_on_c, 9, 36, 0
2, 11520, Note_on_c, 9, 36, 75
2, 11999, Note_on_c, 9, 36, 0
2, 12000, Note_on_c, 9, 38, 75
2, 12000, Note_on_c, 9, 36, 75
2, 12479, Note_on_c, 9, 38, 0
2, 12479, Note_on_c, 9, 36, 0
2, 12480, Note_on_c, 9, 36, 75
2, 12839, Note_on_c, 9, 36, 0
2, 12840, Note_on_c, 9, 36, 75
2, 12959, Note_on_c, 9, 36, 0
2, 12960, Note_on_c, 9, 38, 75
2, 12960, Note_on_c, 9, 36, 75
2, 13439, Note_on_c, 9, 38, 0
2, 13439, Note_on_c, 9, 36, 0
2, 13440, Note_on_c, 9, 36, 75
2, 13919, Note_on_c, 9, 36, 0
2, 13920, Note_on_c, 9, 38, 75
2, 13920, Note_on_c, 9, 36, 75
2, 14399, Note_on_c, 9, 38, 0
2, 14399, Note_on_c, 9, 36, 0
2, 14400, Note_on_c, 9, 36, 75
2, 14759, Note_on_c, 9, 36, 0
2, 14760, Note_on_c, 9, 36, 75
2, 14879, Note_on_c, 9, 36, 0
2, 14880, Note_on_c, 9, 38, 75
2, 14880, Note_on_c, 9, 36, 75
2, 15359, Note_on_c, 9, 38, 0
2, 15359, Note_on_c, 9, 36, 0
2, 15360, Note_on_c, 9, 36, 75
2, 15719, Note_on_c, 9, 36, 0
2, 15720, Note_on_c, 9, 36, 75
2, 15839, Note_on_c, 9, 36, 0
2, 15840, Note_on_c, 9, 38, 75
2, 15840, Note_on_c, 9, 36, 75
2, 16079, Note_on_c, 9, 36, 0
2, 16080, Note_on_c, 9, 36, 75
2, 16199, Note_on_c, 9, 38, 0
2, 16200, Note_on_c, 9, 38, 75
2, 16319, Note_on_c, 9, 36, 0
2, 16319, Note_on_c, 9, 38, 0
2, 16320, Note_on_c, 9, 38, 75
2, 16320, Note_on_c, 9, 36, 75
2, 16559, Note_on_c, 9, 38, 0
2, 16559, Note_on_c, 9, 36, 0
2, 16560, Note_on_c, 9, 38, 75
2, 16560, Note_on_c, 9, 36, 75
2, 16799, Note_on_c, 9, 38, 0
2, 16799, Note_on_c, 9, 36, 0
2, 16800, Note_on_c, 9, 38, 75
2, 16800, Note_on_c, 9, 36, 75
2, 16919, Note_on_c, 9, 38, 0
2, 16919, Note_on_c, 9, 36, 0
2, 16920, Note_on_c, 9, 38, 75
2, 16920, Note_on_c, 9, 36, 75
2, 17159, Note_on_c, 9, 38, 0
2, 17159, Note_on_c, 9, 36, 0
2, 17160, Note_on_c, 9, 38, 75
2, 17160, Note_on_c, 9, 36, 75
2, 17279, Note_on_c, 9, 38, 0
2, 17279, Note_on_c, 9, 36, 0
2, 17280, Note_on_c, 9, 36, 75
2, 17759, Note_on_c, 9, 36, 0
2, 17760, Note_on_c, 9, 38, 75
2, 17760, Note_on_c, 9, 36, 75
2, 18239, Note_on_c, 9, 38, 0
2, 18239, Note_on_c, 9, 36, 0
2, 18240, Note_on_c, 9, 36, 75
2, 18599, Note_on_c, 9, 36, 0
2, 18600, Note_on_c, 9, 36, 75
2, 18719, Note_on_c, 9, 36, 0
2, 18720, Note_on_c, 9, 38, 75
2, 18720, Note_on_c, 9, 36, 75
2, 19199, Note_on_c, 9, 38, 0
2, 19199, Note_on_c, 9, 36, 0
2, 19200, Note_on_c, 9, 36, 75
2, 19679, Note_on_c, 9, 36, 0
2, 19680, Note_on_c, 9, 38, 75
2, 19680, Note_on_c, 9, 36, 75
2, 20159, Note_on_c, 9, 38, 0
2, 20159, Note_on_c, 9, 36, 0
2, 20160, Note_on_c, 9, 36, 75
2, 20519, Note_on_c, 9, 36, 0
2, 20520, Note_on_c, 9, 36, 75
2, 20639, Note_on_c, 9, 36, 0
2, 20640, Note_on_c, 9, 38, 75
2, 20640, Note_on_c, 9, 36, 75
2, 21119, Note_on_c, 9, 38, 0
2, 21119, Note_on_c, 9, 36, 0
2, 21120, Note_on_c, 9, 36, 75
2, 21599, Note_on_c, 9, 36, 0
2, 21600, Note_on_c, 9, 38, 75
2, 21600, Note_on_c, 9, 36, 75
2, 22079, Note_on_c, 9, 38, 0
2, 22079, Note_on_c, 9, 36, 0
2, 22080, Note_on_c, 9, 36, 75
2, 22439, Note_on_c, 9, 36, 0
2, 22440, Note_on_c, 9, 36, 75
2, 22559, Note_on_c, 9, 36, 0
2, 22560, Note_on_c, 9, 38, 75
2, 22560, Note_on_c, 9, 36, 75
2, 23039, Note_on_c, 9, 38, 0
2, 23039, Note_on_c, 9, 36, 0
2, 23040, Note_on_c, 9, 36, 75
2, 23519, Note_on_c, 9, 36, 0
2, 23520, Note_on_c, 9, 38, 75
2, 23520, Note_on_c, 9, 36, 75
2, 23999, Note_on_c, 9, 38, 0
2, 23999, Note_on_c, 9, 36, 0
2, 24000, Note_on_c, 9, 38, 75
2, 24000, Note_on_c, 9, 36, 75
2, 24239, Note_on_c, 9, 38, 0
2, 24239, Note_on_c, 9, 36, 0
2, 24240, Note_on_c, 9, 38, 75
2, 24240, Note_on_c, 9, 36, 75
2, 24359, Note_on_c, 9, 38, 0
2, 24359, Note_on_c, 9, 36, 0
2, 24360, Note_on_c, 9, 38, 75
2, 24360, Note_on_c, 9, 36, 75
2, 24479, Note_on_c, 9, 38, 0
2, 24479, Note_on_c, 9, 36, 0
2, 24600, Note_on_c, 9, 38, 75
2, 24600, Note_on_c, 9, 36, 75
2, 24719, Note_on_c, 9, 38, 0
2, 24719, Note_on_c, 9, 36, 0
2, 24720, Note_on_c, 9, 38, 75
2, 24720, Note_on_c, 9, 36, 75
2, 24959, Note_on_c, 9, 38, 0
2, 24959, Note_on_c, 9, 36, 0
2, 24960, Note_on_c, 9, 36, 75
2, 25439, Note_on_c, 9, 36, 0
2, 25440, Note_on_c, 9, 38, 75
2, 25440, Note_on_c, 9, 36, 75
2, 25919, Note_on_c, 9, 38, 0
2, 25919, Note_on_c, 9, 36, 0
2, 25920, Note_on_c, 9, 36, 75
2, 26279, Note_on_c, 9, 36, 0
2, 26280, Note_on_c, 9, 36, 75
2, 26399, Note_on_c, 9, 36, 0
2, 26400, Note_on_c, 9, 38, 75
2, 26400, Note_on_c, 9, 36, 75
2, 26879, Note_on_c, 9, 38, 0
2, 26879, Note_on_c, 9, 36, 0
2, 26880, Note_on_c, 9, 36, 75
2, 27359, Note_on_c, 9, 36, 0
2, 27360, Note_on_c, 9, 38, 75
2, 27360, Note_on_c, 9, 36, 75
2, 27839, Note_on_c, 9, 38, 0
2, 27839, Note_on_c, 9, 36, 0
2, 27840, Note_on_c, 9, 36, 75
2, 28199, Note_on_c, 9, 36, 0
2, 28200, Note_on_c, 9, 36, 75
2, 28319, Note_on_c, 9, 36, 0
2, 28320, Note_on_c, 9, 38, 75
2, 28320, Note_on_c, 9, 36, 75
2, 28799, Note_on_c, 9, 38, 0
2, 28799, Note_on_c, 9, 36, 0
2, 28800, Note_on_c, 9, 36, 75
2, 29279, Note_on_c, 9, 36, 0
2, 29280, Note_on_c, 9, 38, 75
2, 29280, Note_on_c, 9, 36, 75
2, 29759, Note_on_c, 9, 38, 0
2, 29759, Note_on_c, 9, 36, 0
2, 29760, Note_on_c, 9, 36, 75
2, 30119, Note_on_c, 9, 36, 0
2, 30120, Note_on_c, 9, 36, 75
2, 30239, Note_on_c, 9, 36, 0
2, 30240, Note_on_c, 9, 38, 75
2, 30240, Note_on_c, 9, 36, 75
2, 30719, Note_on_c, 9, 38, 0
2, 30719, Note_on_c, 9, 36, 0
2, 30720, Note_on_c, 9, 36, 75
2, 31079, Note_on_c, 9, 36, 0
2, 31080, Note_on_c, 9, 36, 75
2, 31199, Note_on_c, 9, 36, 0
2, 31200, Note_on_c, 9, 38, 75
2, 31200, Note_on_c, 9, 36, 75
2, 31439, Note_on_c, 9, 36, 0
2, 31440, Note_on_c, 9, 36, 75
2, 31559, Note_on_c, 9, 38, 0
2, 31560, Note_on_c, 9, 38, 75
2, 31679, Note_on_c, 9, 36, 0
2, 31679, Note_on_c, 9, 38, 0
2, 31680, Note_on_c, 9, 38, 75
2, 31680, Note_on_c, 9, 36, 75
2, 31799, Note_on_c, 9, 38, 0
2, 31799, Note_on_c, 9, 36, 0
2, 31800, Note_on_c, 9, 38, 75
2, 31800, Note_on_c, 9, 36, 75
2, 32039, Note_on_c, 9, 38, 0
2, 32039, Note_on_c, 9, 36, 0
2, 32040, Note_on_c, 9, 38, 75
2, 32040, Note_on_c, 9, 36, 75
2, 32159, Note_on_c, 9, 38, 0
2, 32159, Note_on_c, 9, 36, 0
2, 32280, Note_on_c, 9, 38, 75
2, 32280, Note_on_c, 9, 36, 75
2, 32399, Note_on_c, 9, 38, 0
2, 32399, Note_on_c, 9, 36, 0
2, 32400, Note_on_c, 9, 38, 75
2, 32400, Note_on_c, 9, 36, 75
2, 32519, Note_on_c, 9, 38, 0
2, 32519, Note_on_c, 9, 36, 0
2, 32520, Note_on_c, 9, 38, 75
2, 32520, Note_on_c, 9, 36, 75
2, 32639, Note_on_c, 9, 38, 0
2, 32639, Note_on_c, 9, 36, 0
2, 32640, Note_on_c, 9, 36, 75
2, 33119, Note_on_c, 9, 36, 0
2, 33120, Note_on_c, 9, 38, 75
2, 33120, Note_on_c, 9, 36, 75
2, 33599, Note_on_c, 9, 38, 0
2, 33599, Note_on_c, 9, 36, 0
2, 33600, Note_on_c, 9, 36, 75
2, 33959, Note_on_c, 9, 36, 0
2, 33960, Note_on_c, 9, 36, 75
2, 34079, Note_on_c, 9, 36, 0
2, 34080, Note_on_c, 9, 38, 75
2, 34080, Note_on_c, 9, 36, 75
2, 34559, Note_on_c, 9, 38, 0
2, 34559, Note_on_c, 9, 36, 0
2, 34560, Note_on_c, 9, 36, 75
2, 35039, Note_on_c, 9, 36, 0
2, 35040, Note_on_c, 9, 38, 75
2, 35040, Note_on_c, 9, 36, 75
2, 35519, Note_on_c, 9, 38, 0
2, 35519, Note_on_c, 9, 36, 0
2, 35520, Note_on_c, 9, 36, 75
2, 35879, Note_on_c, 9, 36, 0
2, 35880, Note_on_c, 9, 36, 75
2, 35999, Note_on_c, 9, 36, 0
2, 36000, Note_on_c, 9, 38, 75
2, 36000, Note_on_c, 9, 36, 75
2, 36479, Note_on_c, 9, 38, 0
2, 36479, Note_on_c, 9, 36, 0
2, 36480, Note_on_c, 9, 36, 75
2, 36959, Note_on_c, 9, 36, 0
2, 36960, Note_on_c, 9, 38, 75
2, 36960, Note_on_c, 9, 36, 75
2, 37439, Note_on_c, 9, 38, 0
2, 37439, Note_on_c, 9, 36, 0
2, 37440, Note_on_c, 9, 36, 75
2, 37799, Note_on_c, 9, 36, 0
2, 37800, Note_on_c, 9, 36, 75
2, 37919, Note_on_c, 9, 36, 0
2, 37920, Note_on_c, 9, 38, 75
2, 37920, Note_on_c, 9, 36, 75
2, 38399, Note_on_c, 9, 38, 0
2, 38399, Note_on_c, 9, 36, 0
2, 38400, Note_on_c, 9, 36, 75
2, 38759, Note_on_c, 9, 36, 0
2, 38760, Note_on_c, 9, 36, 75
2, 38879, Note_on_c, 9, 36, 0
2, 38880, Note_on_c, 9, 38, 75
2, 38880, Note_on_c, 9, 36, 75
2, 39119, Note_on_c, 9, 36, 0
2, 39120, Note_on_c, 9, 36, 75
2, 39239, Note_on_c, 9, 38, 0
2, 39240, Note_on_c, 9, 38, 75
2, 39359, Note_on_c, 9, 36, 0
2, 39359, Note_on_c, 9, 38, 0
2, 39360, Note_on_c, 9, 38, 75
2, 39360, Note_on_c, 9, 36, 75
2, 39599, Note_on_c, 9, 38, 0
2, 39599, Note_on_c, 9, 36, 0
2, 39600, Note_on_c, 9, 38, 75
2, 39600, Note_on_c, 9, 36, 75
2, 39839, Note_on_c, 9, 38, 0
2, 39839, Note_on_c, 9, 36, 0
2, 39840, Note_on_c, 9, 38, 75
2, 39840, Note_on_c, 9, 36, 75
2, 39959, Note_on_c, 9, 38, 0
2, 39959, Note_on_c, 9, 36, 0
2, 39960, Note_on_c, 9, 38, 75
2, 39960, Note_on_c, 9, 36, 75
2, 40079, Note_on_c, 9, 38, 0
2, 40079, Note_on_c, 9, 36, 0
2, 40080, Note_on_c, 9, 38, 75
2, 40080, Note_on_c, 9, 36, 75
2, 40319, Note_on_c, 9, 38, 0
2, 40319, Note_on_c, 9, 36, 0
2, 40320, Note_on_c, 9, 36, 75
2, 40679, Note_on_c, 9, 36, 0
2, 40680, Note_on_c, 9, 36, 75
2, 40799, Note_on_c, 9, 36, 0
2, 40800, Note_on_c, 9, 38, 75
2, 40800, Note_on_c, 9, 36, 75
2, 41159, Note_on_c, 9, 36, 0
2, 41160, Note_on_c, 9, 36, 75
2, 41279, Note_on_c, 9, 38, 0
2, 41279, Note_on_c, 9, 36, 0
2, 41280, Note_on_c, 9, 36, 75
2, 41639, Note_on_c, 9, 36, 0
2, 41640, Note_on_c, 9, 36, 75
2, 41759, Note_on_c, 9, 36, 0
2, 41760, Note_on_c, 9, 38, 75
2, 41760, Note_on_c, 9, 36, 75
2, 42239, Note_on_c, 9, 38, 0
2, 42239, Note_on_c, 9, 36, 0
2, 42240, Note_on_c, 9, 36, 75
2, 42599, Note_on_c, 9, 36, 0
2, 42600, Note_on_c, 9, 36, 75
2, 42719, Note_on_c, 9, 36, 0
2, 42720, Note_on_c, 9, 38, 75
2, 42720, Note_on_c, 9, 36, 75
2, 43079, Note_on_c, 9, 36, 0
2, 43080, Note_on_c, 9, 36, 75
2, 43199, Note_on_c, 9, 38, 0
2, 43199, Note_on_c, 9, 36, 0
2, 43200, Note_on_c, 9, 36, 75
2, 43559, Note_on_c, 9, 36, 0
2, 43560, Note_on_c, 9, 36, 75
2, 43679, Note_on_c, 9, 36, 0
2, 43680, Note_on_c, 9, 38, 75
2, 43680, Note_on_c, 9, 36, 75
2, 43799, Note_on_c, 9, 38, 0
2, 43799, Note_on_c, 9, 36, 0
2, 43800, Note_on_c, 9, 38, 75
2, 43800, Note_on_c, 9, 36, 75
2, 44039, Note_on_c, 9, 38, 0
2, 44039, Note_on_c, 9, 36, 0
2, 44040, Note_on_c, 9, 38, 75
2, 44040, Note_on_c, 9, 36, 75
2, 44159, Note_on_c, 9, 38, 0
2, 44159, Note_on_c, 9, 36, 0
2, 44160, Note_on_c, 9, 36, 75
2, 44519, Note_on_c, 9, 36, 0
2, 44520, Note_on_c, 9, 36, 75
2, 44639, Note_on_c, 9, 36, 0
2, 44640, Note_on_c, 9, 38, 75
2, 44640, Note_on_c, 9, 36, 75
2, 44999, Note_on_c, 9, 36, 0
2, 45000, Note_on_c, 9, 36, 75
2, 45119, Note_on_c, 9, 38, 0
2, 45119, Note_on_c, 9, 36, 0
2, 45120, Note_on_c, 9, 36, 75
2, 45479, Note_on_c, 9, 36, 0
2, 45480, Note_on_c, 9, 36, 75
2, 45599, Note_on_c, 9, 36, 0
2, 45600, Note_on_c, 9, 38, 75
2, 45600, Note_on_c, 9, 36, 75
2, 46079, Note_on_c, 9, 38, 0
2, 46079, Note_on_c, 9, 36, 0
2, 46080, Note_on_c, 9, 36, 75
2, 46439, Note_on_c, 9, 36, 0
2, 46440, Note_on_c, 9, 36, 75
2, 46559, Note_on_c, 9, 36, 0
2, 46560, Note_on_c, 9, 38, 75
2, 46560, Note_on_c, 9, 36, 75
2, 46919, Note_on_c, 9, 36, 0
2, 46920, Note_on_c, 9, 36, 75
2, 47039, Note_on_c, 9, 38, 0
2, 47039, Note_on_c, 9, 36, 0
2, 47040, Note_on_c, 9, 36, 75
2, 47399, Note_on_c, 9, 36, 0
2, 47400, Note_on_c, 9, 36, 75
2, 47519, Note_on_c, 9, 36, 0
2, 47520, Note_on_c, 9, 38, 75
2, 47520, Note_on_c, 9, 36, 75
2, 47639, Note_on_c, 9, 38, 0
2, 47639, Note_on_c, 9, 36, 0
2, 47640, Note_on_c, 9, 38, 75
2, 47640, Note_on_c, 9, 36, 75
2, 47759, Note_on_c, 9, 38, 0
2, 47759, Note_on_c, 9, 36, 0
2, 47760, Note_on_c, 9, 38, 75
2, 47760, Note_on_c, 9, 36, 75
2, 47999, Note_on_c, 9, 38, 0
2, 47999, Note_on_c, 9, 36, 0
2, 48000, Note_on_c, 9, 36, 75
2, 48359, Note_on_c, 9, 36, 0
2, 48360, Note_on_c, 9, 36, 75
2, 48479, Note_on_c, 9, 36, 0
2, 48480, Note_on_c, 9, 38, 75
2, 48480, Note_on_c, 9, 36, 75
2, 48839, Note_on_c, 9, 36, 0
2, 48840, Note_on_c, 9, 36, 75
2, 48959, Note_on_c, 9, 38, 0
2, 48959, Note_on_c, 9, 36, 0
2, 48960, Note_on_c, 9, 36, 75
2, 49319, Note_on_c, 9, 36, 0
2, 49320, Note_on_c, 9, 36, 75
2, 49439, Note_on_c, 9, 36, 0
2, 49440, Note_on_c, 9, 38, 75
2, 49440, Note_on_c, 9, 36, 75
2, 49919, Note_on_c, 9, 38, 0
2, 49919, Note_on_c, 9, 36, 0
2, 49920, Note_on_c, 9, 36, 75
2, 50279, Note_on_c, 9, 36, 0
2, 50280, Note_on_c, 9, 36, 75
2, 50399, Note_on_c, 9, 36, 0
2, 50400, Note_on_c, 9, 38, 75
2, 50400, Note_on_c, 9, 36, 75
2, 50759, Note_on_c, 9, 36, 0
2, 50760, Note_on_c, 9, 36, 75
2, 50879, Note_on_c, 9, 38, 0
2, 50879, Note_on_c, 9, 36, 0
2, 50880, Note_on_c, 9, 36, 75
2, 51239, Note_on_c, 9, 36, 0
2, 51240, Note_on_c, 9, 36, 75
2, 51359, Note_on_c, 9, 36, 0
2, 51360, Note_on_c, 9, 38, 75
2, 51360, Note_on_c, 9, 36, 75
2, 51479, Note_on_c, 9, 38, 0
2, 51479, Note_on_c, 9, 36, 0
2, 51480, Note_on_c, 9, 38, 75
2, 51480, Note_on_c, 9, 36, 75
2, 51719, Note_on_c, 9, 38, 0
2, 51719, Note_on_c, 9, 36, 0
2, 51720, Note_on_c, 9, 38, 75
2, 51720, Note_on_c, 9, 36, 75
2, 51839, Note_on_c, 9, 38, 0
2, 51839, Note_on_c, 9, 36, 0
2, 51840, Note_on_c, 9, 57, 75
2, 51840, Note_on_c, 9, 36, 75
2, 52199, Note_on_c, 9, 36, 0
2, 52200, Note_on_c, 9, 36, 75
2, 52319, Note_on_c, 9, 57, 0
2, 52319, Note_on_c, 9, 36, 0
2, 52320, Note_on_c, 9, 38, 75
2, 52320, Note_on_c, 9, 36, 75
2, 52679, Note_on_c, 9, 36, 0
2, 52680, Note_on_c, 9, 36, 75
2, 52799, Note_on_c, 9, 38, 0
2, 52799, Note_on_c, 9, 36, 0
2, 52800, Note_on_c, 9, 36, 75
2, 53159, Note_on_c, 9, 36, 0
2, 53160, Note_on_c, 9, 36, 75
2, 53279, Note_on_c, 9, 36, 0
2, 53280, Note_on_c, 9, 38, 75
2, 53280, Note_on_c, 9, 36, 75
2, 53759, Note_on_c, 9, 38, 0
2, 53759, Note_on_c, 9, 36, 0
2, 53760, Note_on_c, 9, 57, 75
2, 53760, Note_on_c, 9, 36, 75
2, 54119, Note_on_c, 9, 36, 0
2, 54120, Note_on_c, 9, 36, 75
2, 54239, Note_on_c, 9, 57, 0
2, 54239, Note_on_c, 9, 36, 0
2, 54240, Note_on_c, 9, 38, 75
2, 54240, Note_on_c, 9, 36, 75
2, 54719, Note_on_c, 9, 38, 0
2, 54719, Note_on_c, 9, 36, 0
2, 54720, Note_on_c, 9, 38, 75
2, 54720, Note_on_c, 9, 36, 75
2, 54959, Note_on_c, 9, 38, 0
2, 54959, Note_on_c, 9, 36, 0
2, 54960, Note_on_c, 9, 38, 75
2, 54960, Note_on_c, 9, 36, 75
2, 55199, Note_on_c, 9, 38, 0
2, 55199, Note_on_c, 9, 36, 0
2, 55200, Note_on_c, 9, 38, 75
2, 55200, Note_on_c, 9, 36, 75
2, 55319, Note_on_c, 9, 38, 0
2, 55319, Note_on_c, 9, 36, 0
2, 55320, Note_on_c, 9, 38, 75
2, 55320, Note_on_c, 9, 36, 75
2, 55439, Note_on_c, 9, 38, 0
2, 55439, Note_on_c, 9, 36, 0
2, 55440, Note_on_c, 9, 38, 75
2, 55440, Note_on_c, 9, 36, 75
2, 55559, Note_on_c, 9, 38, 0
2, 55559, Note_on_c, 9, 36, 0
2, 55560, Note_on_c, 9, 38, 75
2, 55560, Note_on_c, 9, 36, 75
2, 55679, Note_on_c, 9, 38, 0
2, 55679, Note_on_c, 9, 36, 0
2, 55680, Note_on_c, 9, 36, 75
2, 56159, Note_on_c, 9, 36, 0
2, 56160, Note_on_c, 9, 38, 75
2, 56160, Note_on_c, 9, 36, 75
2, 56639, Note_on_c, 9, 38, 0
2, 56639, Note_on_c, 9, 36, 0
2, 56640, Note_on_c, 9, 36, 75
2, 56999, Note_on_c, 9, 36, 0
2, 57000, Note_on_c, 9, 36, 75
2, 57119, Note_on_c, 9, 36, 0
2, 57120, Note_on_c, 9, 38, 75
2, 57120, Note_on_c, 9, 36, 75
2, 57599, Note_on_c, 9, 38, 0
2, 57599, Note_on_c, 9, 36, 0
2, 57600, Note_on_c, 9, 36, 75
2, 58079, Note_on_c, 9, 36, 0
2, 58080, Note_on_c, 9, 38, 75
2, 58080, Note_on_c, 9, 36, 75
2, 58559, Note_on_c, 9, 38, 0
2, 58559, Note_on_c, 9, 36, 0
2, 58560, Note_on_c, 9, 36, 75
2, 58919, Note_on_c, 9, 36, 0
2, 58920, Note_on_c, 9, 36, 75
2, 59039, Note_on_c, 9, 36, 0
2, 59040, Note_on_c, 9, 38, 75
2, 59040, Note_on_c, 9, 36, 75
2, 59519, Note_on_c, 9, 38, 0
2, 59519, Note_on_c, 9, 36, 0
2, 59520, Note_on_c, 9, 36, 75
2, 59999, Note_on_c, 9, 36, 0
2, 60000, Note_on_c, 9, 38, 75
2, 60000, Note_on_c, 9, 36, 75
2, 60479, Note_on_c, 9, 38, 0
2, 60479, Note_on_c, 9, 36, 0
2, 60480, Note_on_c, 9, 36, 75
2, 60839, Note_on_c, 9, 36, 0
2, 60840, Note_on_c, 9, 36, 75
2, 60959, Note_on_c, 9, 36, 0
2, 60960, Note_on_c, 9, 38, 75
2, 60960, Note_on_c, 9, 36, 75
2, 61439, Note_on_c, 9, 38, 0
2, 61439, Note_on_c, 9, 36, 0
2, 61440, Note_on_c, 9, 36, 75
2, 61919, Note_on_c, 9, 36, 0
2, 61920, Note_on_c, 9, 38, 75
2, 61920, Note_on_c, 9, 36, 75
2, 62399, Note_on_c, 9, 38, 0
2, 62399, Note_on_c, 9, 36, 0
2, 62400, Note_on_c, 9, 36, 75
2, 62759, Note_on_c, 9, 36, 0
2, 62760, Note_on_c, 9, 36, 75
2, 62879, Note_on_c, 9, 36, 0
2, 62880, Note_on_c, 9, 38, 75
2, 62880, Note_on_c, 9, 36, 75
2, 63359, Note_on_c, 9, 38, 0
2, 63359, Note_on_c, 9, 36, 0
2, 63360, Note_on_c, 9, 36, 75
2, 63839, Note_on_c, 9, 36, 0
2, 64800, Note_on_c, 9, 48, 75
2, 64800, Note_on_c, 9, 36, 75
2, 64919, Note_on_c, 9, 48, 0
2, 64919, Note_on_c, 9, 36, 0
2, 64920, Note_on_c, 9, 47, 75
2, 64920, Note_on_c, 9, 36, 75
2, 65039, Note_on_c, 9, 47, 0
2, 65039, Note_on_c, 9, 36, 0
2, 65040, Note_on_c, 9, 38, 75
2, 65040, Note_on_c, 9, 45, 75
2, 65040, Note_on_c, 9, 36, 75
2, 65279, Note_on_c, 9, 38, 0
2, 65279, Note_on_c, 9, 45, 0
2, 65279, Note_on_c, 9, 36, 0
2, 65280, Note_on_c, 9, 36, 75
2, 65759, Note_on_c, 9, 36, 0
2, 67200, Note_on_c, 9, 36, 75
2, 67679, Note_on_c, 9, 36, 0
2, 67680, Note_on_c, 9, 38, 75
2, 67680, Note_on_c, 9, 36, 75
2, 68159, Note_on_c, 9, 38, 0
2, 68159, Note_on_c, 9, 36, 0
2, 68160, Note_on_c, 9, 36, 75
2, 68519, Note_on_c, 9, 36, 0
2, 68520, Note_on_c, 9, 36, 75
2, 68639, Note_on_c, 9, 36, 0
2, 68640, Note_on_c, 9, 38, 75
2, 68640, Note_on_c, 9, 36, 75
2, 69119, Note_on_c, 9, 38, 0
2, 69119, Note_on_c, 9, 36, 0
2, 69120, Note_on_c, 9, 36, 75
2, 69599, Note_on_c, 9, 36, 0
2, 69600, Note_on_c, 9, 38, 75
2, 69600, Note_on_c, 9, 36, 75
2, 70079, Note_on_c, 9, 38, 0
2, 70079, Note_on_c, 9, 36, 0
2, 70080, Note_on_c, 9, 36, 75
2, 70439, Note_on_c, 9, 36, 0
2, 70440, Note_on_c, 9, 36, 75
2, 70559, Note_on_c, 9, 36, 0
2, 70560, Note_on_c, 9, 38, 75
2, 70560, Note_on_c, 9, 36, 75
2, 71039, Note_on_c, 9, 38, 0
2, 71039, Note_on_c, 9, 36, 0
2, 71040, Note_on_c, 9, 36, 75
2, 71519, Note_on_c, 9, 36, 0
2, 71520, Note_on_c, 9, 38, 75
2, 71520, Note_on_c, 9, 36, 75
2, 71999, Note_on_c, 9, 38, 0
2, 71999, Note_on_c, 9, 36, 0
2, 72000, Note_on_c, 9, 36, 75
2, 72359, Note_on_c, 9, 36, 0
2, 72360, Note_on_c, 9, 36, 75
2, 72479, Note_on_c, 9, 36, 0
2, 72480, Note_on_c, 9, 38, 75
2, 72480, Note_on_c, 9, 36, 75
2, 72959, Note_on_c, 9, 38, 0
2, 72959, Note_on_c, 9, 36, 0
2, 72960, Note_on_c, 9, 36, 75
2, 73319, Note_on_c, 9, 36, 0
2, 73320, Note_on_c, 9, 36, 75
2, 73439, Note_on_c, 9, 36, 0
2, 73440, Note_on_c, 9, 38, 75
2, 73440, Note_on_c, 9, 36, 75
2, 73679, Note_on_c, 9, 36, 0
2, 73680, Note_on_c, 9, 36, 75
2, 73799, Note_on_c, 9, 38, 0
2, 73800, Note_on_c, 9, 38, 75
2, 73919, Note_on_c, 9, 36, 0
2, 73919, Note_on_c, 9, 38, 0
2, 73920, Note_on_c, 9, 38, 75
2, 73920, Note_on_c, 9, 36, 75
2, 74159, Note_on_c, 9, 38, 0
2, 74159, Note_on_c, 9, 36, 0
2, 74160, Note_on_c, 9, 38, 75
2, 74160, Note_on_c, 9, 36, 75
2, 74399, Note_on_c, 9, 38, 0
2, 74399, Note_on_c, 9, 36, 0
2, 74400, Note_on_c, 9, 38, 75
2, 74400, Note_on_c, 9, 36, 75
2, 74519, Note_on_c, 9, 38, 0
2, 74519, Note_on_c, 9, 36, 0
2, 74520, Note_on_c, 9, 38, 75
2, 74520, Note_on_c, 9, 36, 75
2, 74759, Note_on_c, 9, 38, 0
2, 74759, Note_on_c, 9, 36, 0
2, 74760, Note_on_c, 9, 38, 75
2, 74760, Note_on_c, 9, 36, 75
2, 74879, Note_on_c, 9, 38, 0
2, 74879, Note_on_c, 9, 36, 0
2, 74880, Note_on_c, 9, 36, 75
2, 75359, Note_on_c, 9, 36, 0
2, 75360, Note_on_c, 9, 38, 75
2, 75360, Note_on_c, 9, 36, 75
2, 75839, Note_on_c, 9, 38, 0
2, 75839, Note_on_c, 9, 36, 0
2, 75840, Note_on_c, 9, 36, 75
2, 76199, Note_on_c, 9, 36, 0
2, 76200, Note_on_c, 9, 36, 75
2, 76319, Note_on_c, 9, 36, 0
2, 76320, Note_on_c, 9, 38, 75
2, 76320, Note_on_c, 9, 36, 75
2, 76799, Note_on_c, 9, 38, 0
2, 76799, Note_on_c, 9, 36, 0
2, 76800, Note_on_c, 9, 36, 75
2, 77279, Note_on_c, 9, 36, 0
2, 77280, Note_on_c, 9, 38, 75
2, 77280, Note_on_c, 9, 36, 75
2, 77759, Note_on_c, 9, 38, 0
2, 77759, Note_on_c, 9, 36, 0
2, 77760, Note_on_c, 9, 36, 75
2, 78119, Note_on_c, 9, 36, 0
2, 78120, Note_on_c, 9, 36, 75
2, 78239, Note_on_c, 9, 36, 0
2, 78240, Note_on_c, 9, 38, 75
2, 78240, Note_on_c, 9, 36, 75
2, 78719, Note_on_c, 9, 38, 0
2, 78719, Note_on_c, 9, 36, 0
2, 78720, Note_on_c, 9, 36, 75
2, 79199, Note_on_c, 9, 36, 0
2, 79200, Note_on_c, 9, 38, 75
2, 79200, Note_on_c, 9, 36, 75
2, 79679, Note_on_c, 9, 38, 0
2, 79679, Note_on_c, 9, 36, 0
2, 79680, Note_on_c, 9, 36, 75
2, 80039, Note_on_c, 9, 36, 0
2, 80040, Note_on_c, 9, 36, 75
2, 80159, Note_on_c, 9, 36, 0
2, 80160, Note_on_c, 9, 38, 75
2, 80160, Note_on_c, 9, 36, 75
2, 80639, Note_on_c, 9, 38, 0
2, 80639, Note_on_c, 9, 36, 0
2, 80640, Note_on_c, 9, 36, 75
2, 81119, Note_on_c, 9, 36, 0
2, 81120, Note_on_c, 9, 38, 75
2, 81120, Note_on_c, 9, 36, 75
2, 81599, Note_on_c, 9, 38, 0
2, 81599, Note_on_c, 9, 36, 0
2, 81600, Note_on_c, 9, 38, 75
2, 81600, Note_on_c, 9, 36, 75
2, 81839, Note_on_c, 9, 38, 0
2, 81839, Note_on_c, 9, 36, 0
2, 81840, Note_on_c, 9, 38, 75
2, 81840, Note_on_c, 9, 36, 75
2, 81959, Note_on_c, 9, 38, 0
2, 81959, Note_on_c, 9, 36, 0
2, 81960, Note_on_c, 9, 38, 75
2, 81960, Note_on_c, 9, 36, 75
2, 82079, Note_on_c, 9, 38, 0
2, 82079, Note_on_c, 9, 36, 0
2, 82200, Note_on_c, 9, 38, 75
2, 82200, Note_on_c, 9, 36, 75
2, 82319, Note_on_c, 9, 38, 0
2, 82319, Note_on_c, 9, 36, 0
2, 82320, Note_on_c, 9, 38, 75
2, 82320, Note_on_c, 9, 36, 75
2, 82559, Note_on_c, 9, 38, 0
2, 82559, Note_on_c, 9, 36, 0
2, 82560, Note_on_c, 9, 36, 75
2, 83039, Note_on_c, 9, 36, 0
2, 83040, Note_on_c, 9, 38, 75
2, 83040, Note_on_c, 9, 36, 75
2, 83519, Note_on_c, 9, 38, 0
2, 83519, Note_on_c, 9, 36, 0
2, 83520, Note_on_c, 9, 36, 75
2, 83879, Note_on_c, 9, 36, 0
2, 83880, Note_on_c, 9, 36, 75
2, 83999, Note_on_c, 9, 36, 0
2, 84000, Note_on_c, 9, 38, 75
2, 84000, Note_on_c, 9, 36, 75
2, 84479, Note_on_c, 9, 38, 0
2, 84479, Note_on_c, 9, 36, 0
2, 84480, Note_on_c, 9, 36, 75
2, 84959, Note_on_c, 9, 36, 0
2, 84960, Note_on_c, 9, 38, 75
2, 84960, Note_on_c, 9, 36, 75
2, 85439, Note_on_c, 9, 38, 0
2, 85439, Note_on_c, 9, 36, 0
2, 85440, Note_on_c, 9, 36, 75
2, 85799, Note_on_c, 9, 36, 0
2, 85800, Note_on_c, 9, 36, 75
2, 85919, Note_on_c, 9, 36, 0
2, 85920, Note_on_c, 9, 38, 75
2, 85920, Note_on_c, 9, 36, 75
2, 86399, Note_on_c, 9, 38, 0
2, 86399, Note_on_c, 9, 36, 0
2, 86400, Note_on_c, 9, 36, 75
2, 86879, Note_on_c, 9, 36, 0
2, 86880, Note_on_c, 9, 38, 75
2, 86880, Note_on_c, 9, 36, 75
2, 87359, Note_on_c, 9, 38, 0
2, 87359, Note_on_c, 9, 36, 0
2, 87360, Note_on_c, 9, 36, 75
2, 87719, Note_on_c, 9, 36, 0
2, 87720, Note_on_c, 9, 36, 75
2, 87839, Note_on_c, 9, 36, 0
2, 87840, Note_on_c, 9, 38, 75
2, 87840, Note_on_c, 9, 36, 75
2, 88319, Note_on_c, 9, 38, 0
2, 88319, Note_on_c, 9, 36, 0
2, 88320, Note_on_c, 9, 36, 75
2, 88679, Note_on_c, 9, 36, 0
2, 88680, Note_on_c, 9, 36, 75
2, 88799, Note_on_c, 9, 36, 0
2, 88800, Note_on_c, 9, 38, 75
2, 88800, Note_on_c, 9, 36, 75
2, 89039, Note_on_c, 9, 36, 0
2, 89040, Note_on_c, 9, 36, 75
2, 89159, Note_on_c, 9, 38, 0
2, 89160, Note_on_c, 9, 38, 75
2, 89279, Note_on_c, 9, 36, 0
2, 89279, Note_on_c, 9, 38, 0
2, 89280, Note_on_c, 9, 38, 75
2, 89280, Note_on_c, 9, 36, 75
2, 89399, Note_on_c, 9, 38, 0
2, 89399, Note_on_c, 9, 36, 0
2, 89400, Note_on_c, 9, 38, 75
2, 89400, Note_on_c, 9, 36, 75
2, 89639, Note_on_c, 9, 38, 0
2, 89639, Note_on_c, 9, 36, 0
2, 89640, Note_on_c, 9, 38, 75
2, 89640, Note_on_c, 9, 36, 75
2, 89759, Note_on_c, 9, 38, 0
2, 89759, Note_on_c, 9, 36, 0
2, 89880, Note_on_c, 9, 38, 75
2, 89880, Note_on_c, 9, 36, 75
2, 89999, Note_on_c, 9, 38, 0
2, 89999, Note_on_c, 9, 36, 0
2, 90000, Note_on_c, 9, 38, 75
2, 90000, Note_on_c, 9, 36, 75
2, 90119, Note_on_c, 9, 38, 0
2, 90119, Note_on_c, 9, 36, 0
2, 90120, Note_on_c, 9, 38, 75
2, 90120, Note_on_c, 9, 36, 75
2, 90239, Note_on_c, 9, 38, 0
2, 90239, Note_on_c, 9, 36, 0
2, 90240, Note_on_c, 9, 36, 75
2, 90719, Note_on_c, 9, 36, 0
2, 90720, Note_on_c, 9, 38, 75
2, 90720, Note_on_c, 9, 36, 75
2, 91199, Note_on_c, 9, 38, 0
2, 91199, Note_on_c, 9, 36, 0
2, 91200, Note_on_c, 9, 36, 75
2, 91559, Note_on_c, 9, 36, 0
2, 91560, Note_on_c, 9, 36, 75
2, 91679, Note_on_c, 9, 36, 0
2, 91680, Note_on_c, 9, 38, 75
2, 91680, Note_on_c, 9, 36, 75
2, 92159, Note_on_c, 9, 38, 0
2, 92159, Note_on_c, 9, 36, 0
2, 92160, Note_on_c, 9, 36, 75
2, 92639, Note_on_c, 9, 36, 0
2, 92640, Note_on_c, 9, 38, 75
2, 92640, Note_on_c, 9, 36, 75
2, 93119, Note_on_c, 9, 38, 0
2, 93119, Note_on_c, 9, 36, 0
2, 93120, Note_on_c, 9, 36, 75
2, 93479, Note_on_c, 9, 36, 0
2, 93480, Note_on_c, 9, 36, 75
2, 93599, Note_on_c, 9, 36, 0
2, 93600, Note_on_c, 9, 38, 75
2, 93600, Note_on_c, 9, 36, 75
2, 94079, Note_on_c, 9, 38, 0
2, 94079, Note_on_c, 9, 36, 0
2, 94080, Note_on_c, 9, 36, 75
2, 94559, Note_on_c, 9, 36, 0
2, 94560, Note_on_c, 9, 38, 75
2, 94560, Note_on_c, 9, 36, 75
2, 95039, Note_on_c, 9, 38, 0
2, 95039, Note_on_c, 9, 36, 0
2, 95040, Note_on_c, 9, 36, 75
2, 95399, Note_on_c, 9, 36, 0
2, 95400, Note_on_c, 9, 36, 75
2, 95519, Note_on_c, 9, 36, 0
2, 95520, Note_on_c, 9, 38, 75
2, 95520, Note_on_c, 9, 36, 75
2, 95999, Note_on_c, 9, 38, 0
2, 95999, Note_on_c, 9, 36, 0
2, 96000, Note_on_c, 9, 36, 75
2, 96359, Note_on_c, 9, 36, 0
2, 96360, Note_on_c, 9, 36, 75
2, 96479, Note_on_c, 9, 36, 0
2, 96480, Note_on_c, 9, 38, 75
2, 96480, Note_on_c, 9, 36, 75
2, 96719, Note_on_c, 9, 36, 0
2, 96720, Note_on_c, 9, 36, 75
2, 96839, Note_on_c, 9, 38, 0
2, 96840, Note_on_c, 9, 38, 75
2, 96959, Note_on_c, 9, 36, 0
2, 96959, Note_on_c, 9, 38, 0
2, 96960, Note_on_c, 9, 38, 75
2, 96960, Note_on_c, 9, 36, 75
2, 97199, Note_on_c, 9, 38, 0
2, 97199, Note_on_c, 9, 36, 0
2, 97200, Note_on_c, 9, 38, 75
2, 97200, Note_on_c, 9, 36, 75
2, 97439, Note_on_c, 9, 38, 0
2, 97439, Note_on_c, 9, 36, 0
2, 97440, Note_on_c, 9, 38, 75
2, 97440, Note_on_c, 9, 36, 75
2, 97559, Note_on_c, 9, 38, 0
2, 97559, Note_on_c, 9, 36, 0
2, 97560, Note_on_c, 9, 38, 75
2, 97560, Note_on_c, 9, 36, 75
2, 97679, Note_on_c, 9, 38, 0
2, 97679, Note_on_c, 9, 36, 0
2, 97680, Note_on_c, 9, 38, 75
2, 97680, Note_on_c, 9, 36, 75
2, 97919, Note_on_c, 9, 38, 0
2, 97919, Note_on_c, 9, 36, 0
2, 97920, Note_on_c, 9, 36, 75
2, 98279, Note_on_c, 9, 36, 0
2, 98280, Note_on_c, 9, 36, 75
2, 98399, Note_on_c, 9, 36, 0
2, 98400, Note_on_c, 9, 38, 75
2, 98400, Note_on_c, 9, 36, 75
2, 98759, Note_on_c, 9, 36, 0
2, 98760, Note_on_c, 9, 36, 75
2, 98879, Note_on_c, 9, 38, 0
2, 98879, Note_on_c, 9, 36, 0
2, 98880, Note_on_c, 9, 36, 75
2, 99239, Note_on_c, 9, 36, 0
2, 99240, Note_on_c, 9, 36, 75
2, 99359, Note_on_c, 9, 36, 0
2, 99360, Note_on_c, 9, 38, 75
2, 99360, Note_on_c, 9, 36, 75
2, 99839, Note_on_c, 9, 38, 0
2, 99839, Note_on_c, 9, 36, 0
2, 99840, Note_on_c, 9, 36, 75
2, 100199, Note_on_c, 9, 36, 0
2, 100200, Note_on_c, 9, 36, 75
2, 100319, Note_on_c, 9, 36, 0
2, 100320, Note_on_c, 9, 38, 75
2, 100320, Note_on_c, 9, 36, 75
2, 100679, Note_on_c, 9, 36, 0
2, 100680, Note_on_c, 9, 36, 75
2, 100799, Note_on_c, 9, 38, 0
2, 100799, Note_on_c, 9, 36, 0
2, 100800, Note_on_c, 9, 36, 75
2, 101159, Note_on_c, 9, 36, 0
2, 101160, Note_on_c, 9, 36, 75
2, 101279, Note_on_c, 9, 36, 0
2, 101280, Note_on_c, 9, 38, 75
2, 101280, Note_on_c, 9, 36, 75
2, 101399, Note_on_c, 9, 38, 0
2, 101399, Note_on_c, 9, 36, 0
2, 101400, Note_on_c, 9, 38, 75
2, 101400, Note_on_c, 9, 36, 75
2, 101639, Note_on_c, 9, 38, 0
2, 101639, Note_on_c, 9, 36, 0
2, 101640, Note_on_c, 9, 38, 75
2, 101640, Note_on_c, 9, 36, 75
2, 101759, Note_on_c, 9, 38, 0
2, 101759, Note_on_c, 9, 36, 0
2, 101760, Note_on_c, 9, 36, 75
2, 102119, Note_on_c, 9, 36, 0
2, 102120, Note_on_c, 9, 36, 75
2, 102239, Note_on_c, 9, 36, 0
2, 102240, Note_on_c, 9, 38, 75
2, 102240, Note_on_c, 9, 36, 75
2, 102599, Note_on_c, 9, 36, 0
2, 102600, Note_on_c, 9, 36, 75
2, 102719, Note_on_c, 9, 38, 0
2, 102719, Note_on_c, 9, 36, 0
2, 102720, Note_on_c, 9, 36, 75
2, 103079, Note_on_c, 9, 36, 0
2, 103080, Note_on_c, 9, 36, 75
2, 103199, Note_on_c, 9, 36, 0
2, 103200, Note_on_c, 9, 38, 75
2, 103200, Note_on_c, 9, 36, 75
2, 103679, Note_on_c, 9, 38, 0
2, 103679, Note_on_c, 9, 36, 0
2, 103680, Note_on_c, 9, 36, 75
2, 104039, Note_on_c, 9, 36, 0
2, 104040, Note_on_c, 9, 36, 75
2, 104159, Note_on_c, 9, 36, 0
2, 104160, Note_on_c, 9, 38, 75
2, 104160, Note_on_c, 9, 36, 75
2, 104519, Note_on_c, 9, 36, 0
2, 104520, Note_on_c, 9, 36, 75
2, 104639, Note_on_c, 9, 38, 0
2, 104639, Note_on_c, 9, 36, 0
2, 104640, Note_on_c, 9, 36, 75
2, 104999, Note_on_c, 9, 36, 0
2, 105000, Note_on_c, 9, 36, 75
2, 105119, Note_on_c, 9, 36, 0
2, 105120, Note_on_c, 9, 38, 75
2, 105120, Note_on_c, 9, 36, 75
2, 105239, Note_on_c, 9, 38, 0
2, 105239, Note_on_c, 9, 36, 0
2, 105240, Note_on_c, 9, 38, 75
2, 105240, Note_on_c, 9, 36, 75
2, 105359, Note_on_c, 9, 38, 0
2, 105359, Note_on_c, 9, 36, 0
2, 105360, Note_on_c, 9, 38, 75
2, 105360, Note_on_c, 9, 36, 75
2, 105599, Note_on_c, 9, 38, 0
2, 105599, Note_on_c, 9, 36, 0
2, 105600, Note_on_c, 9, 36, 75
2, 105959, Note_on_c, 9, 36, 0
2, 105960, Note_on_c, 9, 36, 75
2, 106079, Note_on_c, 9, 36, 0
2, 106080, Note_on_c, 9, 38, 75
2, 106080, Note_on_c, 9, 36, 75
2, 106439, Note_on_c, 9, 36, 0
2, 106440, Note_on_c, 9, 36, 75
2, 106559, Note_on_c, 9, 38, 0
2, 106559, Note_on_c, 9, 36, 0
2, 106560, Note_on_c, 9, 36, 75
2, 106919, Note_on_c, 9, 36, 0
2, 106920, Note_on_c, 9, 36, 75
2, 107039, Note_on_c, 9, 36, 0
2, 107040, Note_on_c, 9, 38, 75
2, 107040, Note_on_c, 9, 36, 75
2, 107519, Note_on_c, 9, 38, 0
2, 107519, Note_on_c, 9, 36, 0
2, 107520, Note_on_c, 9, 36, 75
2, 107879, Note_on_c, 9, 36, 0
2, 107880, Note_on_c, 9, 36, 75
2, 107999, Note_on_c, 9, 36, 0
2, 108000, Note_on_c, 9, 38, 75
2, 108000, Note_on_c, 9, 36, 75
2, 108359, Note_on_c, 9, 36, 0
2, 108360, Note_on_c, 9, 36, 75
2, 108479, Note_on_c, 9, 38, 0
2, 108479, Note_on_c, 9, 36, 0
2, 108480, Note_on_c, 9, 36, 75
2, 108839, Note_on_c, 9, 36, 0
2, 108840, Note_on_c, 9, 36, 75
2, 108959, Note_on_c, 9, 36, 0
2, 108960, Note_on_c, 9, 38, 75
2, 108960, Note_on_c, 9, 36, 75
2, 109079, Note_on_c, 9, 38, 0
2, 109079, Note_on_c, 9, 36, 0
2, 109080, Note_on_c, 9, 38, 75
2, 109080, Note_on_c, 9, 36, 75
2, 109319, Note_on_c, 9, 38, 0
2, 109319, Note_on_c, 9, 36, 0
2, 109320, Note_on_c, 9, 38, 75
2, 109320, Note_on_c, 9, 36, 75
2, 109439, Note_on_c, 9, 38, 0
2, 109439, Note_on_c, 9, 36, 0
2, 109440, Note_on_c, 9, 36, 75
2, 109799, Note_on_c, 9, 36, 0
2, 109800, Note_on_c, 9, 36, 75
2, 109919, Note_on_c, 9, 36, 0
2, 109920, Note_on_c, 9, 38, 75
2, 109920, Note_on_c, 9, 36, 75
2, 110279, Note_on_c, 9, 36, 0
2, 110280, Note_on_c, 9, 36, 75
2, 110399, Note_on_c, 9, 38, 0
2, 110399, Note_on_c, 9, 36, 0
2, 110400, Note_on_c, 9, 36, 75
2, 110759, Note_on_c, 9, 36, 0
2, 110760, Note_on_c, 9, 36, 75
2, 110879, Note_on_c, 9, 36, 0
2, 110880, Note_on_c, 9, 38, 75
2, 110880, Note_on_c, 9, 36, 75
2, 111359, Note_on_c, 9, 38, 0
2, 111359, Note_on_c, 9, 36, 0
2, 111360, Note_on_c, 9, 36, 75
2, 111719, Note_on_c, 9, 36, 0
2, 111720, Note_on_c, 9, 36, 75
2, 111839, Note_on_c, 9, 36, 0
2, 111840, Note_on_c, 9, 38, 75
2, 111840, Note_on_c, 9, 36, 75
2, 112319, Note_on_c, 9, 38, 0
2, 112319, Note_on_c, 9, 36, 0
2, 112320, Note_on_c, 9, 38, 75
2, 112320, Note_on_c, 9, 36, 75
2, 112559, Note_on_c, 9, 38, 0
2, 112559, Note_on_c, 9, 36, 0
2, 112560, Note_on_c, 9, 38, 75
2, 112560, Note_on_c, 9, 36, 75
2, 112799, Note_on_c, 9, 38, 0
2, 112799, Note_on_c, 9, 36, 0
2, 112800, Note_on_c, 9, 38, 75
2, 112800, Note_on_c, 9, 36, 75
2, 112919, Note_on_c, 9, 38, 0
2, 112919, Note_on_c, 9, 36, 0
2, 112920, Note_on_c, 9, 38, 75
2, 112920, Note_on_c, 9, 36, 75
2, 113039, Note_on_c, 9, 38, 0
2, 113039, Note_on_c, 9, 36, 0
2, 113040, Note_on_c, 9, 38, 75
2, 113040, Note_on_c, 9, 36, 75
2, 113159, Note_on_c, 9, 38, 0
2, 113159, Note_on_c, 9, 36, 0
2, 113160, Note_on_c, 9, 38, 75
2, 113160, Note_on_c, 9, 36, 75
2, 113279, Note_on_c, 9, 38, 0
2, 113279, Note_on_c, 9, 36, 0
2, 113280, Note_on_c, 9, 36, 75
2, 113759, Note_on_c, 9, 36, 0
2, 113760, Note_on_c, 9, 38, 75
2, 113760, Note_on_c, 9, 36, 75
2, 114239, Note_on_c, 9, 38, 0
2, 114239, Note_on_c, 9, 36, 0
2, 114240, Note_on_c, 9, 36, 75
2, 114599, Note_on_c, 9, 36, 0
2, 114600, Note_on_c, 9, 36, 75
2, 114719, Note_on_c, 9, 36, 0
2, 114720, Note_on_c, 9, 38, 75
2, 114720, Note_on_c, 9, 36, 75
2, 115199, Note_on_c, 9, 38, 0
2, 115199, Note_on_c, 9, 36, 0
2, 115200, Note_on_c, 9, 36, 75
2, 115679, Note_on_c, 9, 36, 0
2, 115680, Note_on_c, 9, 38, 75
2, 115680, Note_on_c, 9, 36, 75
2, 116159, Note_on_c, 9, 38, 0
2, 116159, Note_on_c, 9, 36, 0
2, 116160, Note_on_c, 9, 36, 75
2, 116519, Note_on_c, 9, 36, 0
2, 116520, Note_on_c, 9, 36, 75
2, 116639, Note_on_c, 9, 36, 0
2, 116640, Note_on_c, 9, 38, 75
2, 116640, Note_on_c, 9, 36, 75
2, 117119, Note_on_c, 9, 38, 0
2, 117119, Note_on_c, 9, 36, 0
2, 117120, Note_on_c, 9, 36, 75
2, 117599, Note_on_c, 9, 36, 0
2, 117600, Note_on_c, 9, 38, 75
2, 117600, Note_on_c, 9, 36, 75
2, 118079, Note_on_c, 9, 38, 0
2, 118079, Note_on_c, 9, 36, 0
2, 118080, Note_on_c, 9, 36, 75
2, 118439, Note_on_c, 9, 36, 0
2, 118440, Note_on_c, 9, 36, 75
2, 118559, Note_on_c, 9, 36, 0
2, 118560, Note_on_c, 9, 38, 75
2, 118560, Note_on_c, 9, 36, 75
2, 119039, Note_on_c, 9, 38, 0
2, 119039, Note_on_c, 9, 36, 0
2, 119040, Note_on_c, 9, 36, 75
2, 119519, Note_on_c, 9, 36, 0
2, 119520, Note_on_c, 9, 38, 75
2, 119520, Note_on_c, 9, 36, 75
2, 119999, Note_on_c, 9, 38, 0
2, 119999, Note_on_c, 9, 36, 0
2, 120000, Note_on_c, 9, 36, 75
2, 120359, Note_on_c, 9, 36, 0
2, 120360, Note_on_c, 9, 36, 75
2, 120479, Note_on_c, 9, 36, 0
2, 120480, Note_on_c, 9, 38, 75
2, 120480, Note_on_c, 9, 36, 75
2, 120959, Note_on_c, 9, 38, 0
2, 120959, Note_on_c, 9, 36, 0
2, 120960, Note_on_c, 9, 36, 75
2, 121439, Note_on_c, 9, 36, 0
2, 121440, Note_on_c, 9, 38, 75
2, 121440, Note_on_c, 9, 36, 75
2, 121919, Note_on_c, 9, 38, 0
2, 121919, Note_on_c, 9, 36, 0
2, 121920, Note_on_c, 9, 36, 75
2, 122279, Note_on_c, 9, 36, 0
2, 122280, Note_on_c, 9, 36, 75
2, 122399, Note_on_c, 9, 36, 0
2, 122400, Note_on_c, 9, 38, 75
2, 122400, Note_on_c, 9, 36, 75
2, 122879, Note_on_c, 9, 38, 0
2, 122879, Note_on_c, 9, 36, 0
2, 122880, Note_on_c, 9, 36, 75
2, 123359, Note_on_c, 9, 36, 0
2, 123360, Note_on_c, 9, 38, 75
2, 123360, Note_on_c, 9, 36, 75
2, 123839, Note_on_c, 9, 38, 0
2, 123839, Note_on_c, 9, 36, 0
2, 123840, Note_on_c, 9, 36, 75
2, 124199, Note_on_c, 9, 36, 0
2, 124200, Note_on_c, 9, 36, 75
2, 124319, Note_on_c, 9, 36, 0
2, 124320, Note_on_c, 9, 38, 75
2, 124320, Note_on_c, 9, 36, 75
2, 124799, Note_on_c, 9, 38, 0
2, 124799, Note_on_c, 9, 36, 0
2, 124800, Note_on_c, 9, 36, 75
2, 125279, Note_on_c, 9, 36, 0
2, 125280, Note_on_c, 9, 38, 75
2, 125280, Note_on_c, 9, 36, 75
2, 125759, Note_on_c, 9, 38, 0
2, 125759, Note_on_c, 9, 36, 0
2, 125760, Note_on_c, 9, 36, 75
2, 126119, Note_on_c, 9, 36, 0
2, 126120, Note_on_c, 9, 36, 75
2, 126239, Note_on_c, 9, 36, 0
2, 126240, Note_on_c, 9, 38, 75
2, 126240, Note_on_c, 9, 36, 75
2, 126719, Note_on_c, 9, 38, 0
2, 126719, Note_on_c, 9, 36, 0
2, 126720, Note_on_c, 9, 36, 75
2, 127199, Note_on_c, 9, 36, 0
2, 127200, Note_on_c, 9, 38, 75
2, 127200, Note_on_c, 9, 36, 75
2, 127679, Note_on_c, 9, 38, 0
2, 127679, Note_on_c, 9, 36, 0
2, 127680, Note_on_c, 9, 36, 75
2, 128039, Note_on_c, 9, 36, 0
2, 128040, Note_on_c, 9, 36, 75
2, 128159, Note_on_c, 9, 36, 0
2, 128160, Note_on_c, 9, 38, 75
2, 128160, Note_on_c, 9, 36, 75
2, 128639, Note_on_c, 9, 38, 0
2, 128639, Note_on_c, 9, 36, 0
2, 128640, Note_on_c, 9, 38, 75
2, 128640, Note_on_c, 9, 36, 75
2, 129119, Note_on_c, 9, 38, 0
2, 129119, Note_on_c, 9, 36, 0
2, 132000, Note_on_c, 9, 36, 75
2, 132119, Note_on_c, 9, 36, 0
2, 132120, Note_on_c, 9, 36, 75
2, 132239, Note_on_c, 9, 36, 0
2, 132240, Note_on_c, 9, 38, 75
2, 132240, Note_on_c, 9, 36, 75
2, 132479, Note_on_c, 9, 38, 0
2, 132479, Note_on_c, 9, 36, 0
2, 132480, Note_on_c, 9, 36, 75
2, 132839, Note_on_c, 9, 36, 0
2, 132840, Note_on_c, 9, 36, 75
2, 132959, Note_on_c, 9, 36, 0
2, 132960, Note_on_c, 9, 38, 75
2, 132960, Note_on_c, 9, 36, 75
2, 133319, Note_on_c, 9, 36, 0
2, 133320, Note_on_c, 9, 36, 75
2, 133439, Note_on_c, 9, 38, 0
2, 133439, Note_on_c, 9, 36, 0
2, 133440, Note_on_c, 9, 36, 75
2, 133799, Note_on_c, 9, 36, 0
2, 133800, Note_on_c, 9, 36, 75
2, 133919, Note_on_c, 9, 36, 0
2, 133920, Note_on_c, 9, 38, 75
2, 133920, Note_on_c, 9, 36, 75
2, 134399, Note_on_c, 9, 38, 0
2, 134399, Note_on_c, 9, 36, 0
2, 134400, Note_on_c, 9, 36, 75
2, 134759, Note_on_c, 9, 36, 0
2, 134760, Note_on_c, 9, 36, 75
2, 134879, Note_on_c, 9, 36, 0
2, 134880, Note_on_c, 9, 38, 75
2, 134880, Note_on_c, 9, 36, 75
2, 135239, Note_on_c, 9, 36, 0
2, 135240, Note_on_c, 9, 36, 75
2, 135359, Note_on_c, 9, 38, 0
2, 135359, Note_on_c, 9, 36, 0
2, 135360, Note_on_c, 9, 36, 75
2, 135719, Note_on_c, 9, 36, 0
2, 135720, Note_on_c, 9, 36, 75
2, 135839, Note_on_c, 9, 36, 0
2, 135840, Note_on_c, 9, 38, 75
2, 135840, Note_on_c, 9, 36, 75
2, 135959, Note_on_c, 9, 38, 0
2, 135959, Note_on_c, 9, 36, 0
2, 135960, Note_on_c, 9, 38, 75
2, 135960, Note_on_c, 9, 36, 75
2, 136199, Note_on_c, 9, 38, 0
2, 136199, Note_on_c, 9, 36, 0
2, 136200, Note_on_c, 9, 38, 75
2, 136200, Note_on_c, 9, 36, 75
2, 136319, Note_on_c, 9, 38, 0
2, 136319, Note_on_c, 9, 36, 0
2, 136320, Note_on_c, 9, 36, 75
2, 136679, Note_on_c, 9, 36, 0
2, 136680, Note_on_c, 9, 36, 75
2, 136799, Note_on_c, 9, 36, 0
2, 136800, Note_on_c, 9, 38, 75
2, 136800, Note_on_c, 9, 36, 75
2, 137159, Note_on_c, 9, 36, 0
2, 137160, Note_on_c, 9, 36, 75
2, 137279, Note_on_c, 9, 38, 0
2, 137279, Note_on_c, 9, 36, 0
2, 137280, Note_on_c, 9, 36, 75
2, 137639, Note_on_c, 9, 36, 0
2, 137640, Note_on_c, 9, 36, 75
2, 137759, Note_on_c, 9, 36, 0
2, 137760, Note_on_c, 9, 38, 75
2, 137760, Note_on_c, 9, 36, 75
2, 138239, Note_on_c, 9, 38, 0
2, 138239, Note_on_c, 9, 36, 0
2, 138240, Note_on_c, 9, 36, 75
2, 138599, Note_on_c, 9, 36, 0
2, 138600, Note_on_c, 9, 36, 75
2, 138719, Note_on_c, 9, 36, 0
2, 138720, Note_on_c, 9, 38, 75
2, 138720, Note_on_c, 9, 36, 75
2, 139079, Note_on_c, 9, 36, 0
2, 139080, Note_on_c, 9, 36, 75
2, 139199, Note_on_c, 9, 38, 0
2, 139199, Note_on_c, 9, 36, 0
2, 139200, Note_on_c, 9, 36, 75
2, 139559, Note_on_c, 9, 36, 0
2, 139560, Note_on_c, 9, 36, 75
2, 139679, Note_on_c, 9, 36, 0
2, 139680, Note_on_c, 9, 38, 75
2, 139680, Note_on_c, 9, 36, 75
2, 139799, Note_on_c, 9, 38, 0
2, 139799, Note_on_c, 9, 36, 0
2, 139800, Note_on_c, 9, 38, 75
2, 139800, Note_on_c, 9, 36, 75
2, 139919, Note_on_c, 9, 38, 0
2, 139919, Note_on_c, 9, 36, 0
2, 139920, Note_on_c, 9, 38, 75
2, 139920, Note_on_c, 9, 36, 75
2, 140159, Note_on_c, 9, 38, 0
2, 140159, Note_on_c, 9, 36, 0
2, 140160, Note_on_c, 9, 36, 75
2, 140519, Note_on_c, 9, 36, 0
2, 140520, Note_on_c, 9, 36, 75
2, 140639, Note_on_c, 9, 36, 0
2, 140640, Note_on_c, 9, 38, 75
2, 140640, Note_on_c, 9, 36, 75
2, 140999, Note_on_c, 9, 36, 0
2, 141000, Note_on_c, 9, 36, 75
2, 141119, Note_on_c, 9, 38, 0
2, 141119, Note_on_c, 9, 36, 0
2, 141120, Note_on_c, 9, 36, 75
2, 141479, Note_on_c, 9, 36, 0
2, 141480, Note_on_c, 9, 36, 75
2, 141599, Note_on_c, 9, 36, 0
2, 141600, Note_on_c, 9, 38, 75
2, 141600, Note_on_c, 9, 36, 75
2, 142079, Note_on_c, 9, 38, 0
2, 142079, Note_on_c, 9, 36, 0
2, 142080, Note_on_c, 9, 36, 75
2, 142439, Note_on_c, 9, 36, 0
2, 142440, Note_on_c, 9, 36, 75
2, 142559, Note_on_c, 9, 36, 0
2, 142560, Note_on_c, 9, 38, 75
2, 142560, Note_on_c, 9, 36, 75
2, 142919, Note_on_c, 9, 36, 0
2, 142920, Note_on_c, 9, 36, 75
2, 143039, Note_on_c, 9, 38, 0
2, 143039, Note_on_c, 9, 36, 0
2, 143040, Note_on_c, 9, 36, 75
2, 143399, Note_on_c, 9, 36, 0
2, 143400, Note_on_c, 9, 36, 75
2, 143519, Note_on_c, 9, 36, 0
2, 143520, Note_on_c, 9, 38, 75
2, 143520, Note_on_c, 9, 36, 75
2, 143639, Note_on_c, 9, 38, 0
2, 143639, Note_on_c, 9, 36, 0
2, 143640, Note_on_c, 9, 38, 75
2, 143640, Note_on_c, 9, 36, 75
2, 143879, Note_on_c, 9, 38, 0
2, 143879, Note_on_c, 9, 36, 0
2, 143880, Note_on_c, 9, 38, 75
2, 143880, Note_on_c, 9, 36, 75
2, 143999, Note_on_c, 9, 38, 0
2, 143999, Note_on_c, 9, 36, 0
2, 144000, Note_on_c, 9, 36, 75
2, 144359, Note_on_c, 9, 36, 0
2, 144360, Note_on_c, 9, 36, 75
2, 144479, Note_on_c, 9, 36, 0
2, 144480, Note_on_c, 9, 38, 75
2, 144480, Note_on_c, 9, 36, 75
2, 144839, Note_on_c, 9, 36, 0
2, 144840, Note_on_c, 9, 36, 75
2, 144959, Note_on_c, 9, 38, 0
2, 144959, Note_on_c, 9, 36, 0
2, 144960, Note_on_c, 9, 36, 75
2, 145319, Note_on_c, 9, 36, 0
2, 145320, Note_on_c, 9, 36, 75
2, 145439, Note_on_c, 9, 36, 0
2, 145440, Note_on_c, 9, 38, 75
2, 145440, Note_on_c, 9, 36, 75
2, 145919, Note_on_c, 9, 38, 0
2, 145919, Note_on_c, 9, 36, 0
2, 145920, Note_on_c, 9, 36, 75
2, 146279, Note_on_c, 9, 36, 0
2, 146280, Note_on_c, 9, 36, 75
2, 146399, Note_on_c, 9, 36, 0
2, 146400, Note_on_c, 9, 38, 75
2, 146400, Note_on_c, 9, 36, 75
2, 146879, Note_on_c, 9, 38, 0
2, 146879, Note_on_c, 9, 36, 0
2, 146880, Note_on_c, 9, 38, 75
2, 146880, Note_on_c, 9, 36, 75
2, 147119, Note_on_c, 9, 38, 0
2, 147119, Note_on_c, 9, 36, 0
2, 147120, Note_on_c, 9, 38, 75
2, 147120, Note_on_c, 9, 36, 75
2, 147359, Note_on_c, 9, 38, 0
2, 147359, Note_on_c, 9, 36, 0
2, 147360, Note_on_c, 9, 38, 75
2, 147360, Note_on_c, 9, 36, 75
2, 147479, Note_on_c, 9, 38, 0
2, 147479, Note_on_c, 9, 36, 0
2, 147480, Note_on_c, 9, 38, 75
2, 147480, Note_on_c, 9, 36, 75
2, 147599, Note_on_c, 9, 38, 0
2, 147599, Note_on_c, 9, 36, 0
2, 147600, Note_on_c, 9, 38, 75
2, 147600, Note_on_c, 9, 36, 75
2, 147719, Note_on_c, 9, 38, 0
2, 147719, Note_on_c, 9, 36, 0
2, 147720, Note_on_c, 9, 38, 75
2, 147720, Note_on_c, 9, 36, 75
2, 147839, Note_on_c, 9, 38, 0
2, 147839, Note_on_c, 9, 36, 0
2, 147840, Note_on_c, 9, 36, 75
2, 148319, Note_on_c, 9, 36, 0
2, 148320, Note_on_c, 9, 38, 75
2, 148320, Note_on_c, 9, 36, 75
2, 148799, Note_on_c, 9, 38, 0
2, 148799, Note_on_c, 9, 36, 0
2, 148800, Note_on_c, 9, 36, 75
2, 149159, Note_on_c, 9, 36, 0
2, 149160, Note_on_c, 9, 36, 75
2, 149279, Note_on_c, 9, 36, 0
2, 149280, Note_on_c, 9, 38, 75
2, 149280, Note_on_c, 9, 36, 75
2, 149759, Note_on_c, 9, 38, 0
2, 149759, Note_on_c, 9, 36, 0
2, 149760, Note_on_c, 9, 36, 75
2, 150239, Note_on_c, 9, 36, 0
2, 150240, Note_on_c, 9, 38, 75
2, 150240, Note_on_c, 9, 36, 75
2, 150719, Note_on_c, 9, 38, 0
2, 150719, Note_on_c, 9, 36, 0
2, 150720, Note_on_c, 9, 36, 75
2, 151079, Note_on_c, 9, 36, 0
2, 151080, Note_on_c, 9, 36, 75
2, 151199, Note_on_c, 9, 36, 0
2, 151200, Note_on_c, 9, 38, 75
2, 151200, Note_on_c, 9, 36, 75
2, 151679, Note_on_c, 9, 38, 0
2, 151679, Note_on_c, 9, 36, 0
2, 151680, Note_on_c, 9, 36, 75
2, 152159, Note_on_c, 9, 36, 0
2, 152160, Note_on_c, 9, 38, 75
2, 152160, Note_on_c, 9, 36, 75
2, 152639, Note_on_c, 9, 38, 0
2, 152639, Note_on_c, 9, 36, 0
2, 152640, Note_on_c, 9, 36, 75
2, 152999, Note_on_c, 9, 36, 0
2, 153000, Note_on_c, 9, 36, 75
2, 153119, Note_on_c, 9, 36, 0
2, 153120, Note_on_c, 9, 38, 75
2, 153120, Note_on_c, 9, 36, 75
2, 153599, Note_on_c, 9, 38, 0
2, 153599, Note_on_c, 9, 36, 0
2, 153600, Note_on_c, 9, 36, 75
2, 154079, Note_on_c, 9, 36, 0
2, 154080, Note_on_c, 9, 38, 75
2, 154080, Note_on_c, 9, 36, 75
2, 154559, Note_on_c, 9, 38, 0
2, 154559, Note_on_c, 9, 36, 0
2, 154560, Note_on_c, 9, 36, 75
2, 154919, Note_on_c, 9, 36, 0
2, 154920, Note_on_c, 9, 36, 75
2, 155039, Note_on_c, 9, 36, 0
2, 155040, Note_on_c, 9, 38, 75
2, 155040, Note_on_c, 9, 36, 75
2, 155519, Note_on_c, 9, 38, 0
2, 155519, Note_on_c, 9, 36, 0
2, 155520, Note_on_c, 9, 36, 75
2, 155999, Note_on_c, 9, 36, 0
2, 156000, Note_on_c, 9, 38, 75
2, 156000, Note_on_c, 9, 36, 75
2, 156479, Note_on_c, 9, 38, 0
2, 156479, Note_on_c, 9, 36, 0
2, 156480, Note_on_c, 9, 36, 75
2, 156839, Note_on_c, 9, 36, 0
2, 156840, Note_on_c, 9, 36, 75
2, 156959, Note_on_c, 9, 36, 0
2, 156960, Note_on_c, 9, 38, 75
2, 156960, Note_on_c, 9, 36, 75
2, 157439, Note_on_c, 9, 38, 0
2, 157439, Note_on_c, 9, 36, 0
2, 157440, Note_on_c, 9, 36, 75
2, 157919, Note_on_c, 9, 36, 0
2, 157920, Note_on_c, 9, 38, 75
2, 157920, Note_on_c, 9, 36, 75
2, 158399, Note_on_c, 9, 38, 0
2, 158399, Note_on_c, 9, 36, 0
2, 158400, Note_on_c, 9, 36, 75
2, 158759, Note_on_c, 9, 36, 0
2, 158760, Note_on_c, 9, 36, 75
2, 158879, Note_on_c, 9, 36, 0
2, 158880, Note_on_c, 9, 38, 75
2, 158880, Note_on_c, 9, 36, 75
2, 159359, Note_on_c, 9, 38, 0
2, 159359, Note_on_c, 9, 36, 0
2, 159360, Note_on_c, 9, 36, 75
2, 159839, Note_on_c, 9, 36, 0
2, 159840, Note_on_c, 9, 38, 75
2, 159840, Note_on_c, 9, 36, 75
2, 160319, Note_on_c, 9, 38, 0
2, 160319, Note_on_c, 9, 36, 0
2, 160320, Note_on_c, 9, 36, 75
2, 160679, Note_on_c, 9, 36, 0
2, 160680, Note_on_c, 9, 36, 75
2, 160799, Note_on_c, 9, 36, 0
2, 160800, Note_on_c, 9, 38, 75
2, 160800, Note_on_c, 9, 36, 75
2, 161279, Note_on_c, 9, 38, 0
2, 161279, Note_on_c, 9, 36, 0
2, 161280, Note_on_c, 9, 36, 75
2, 161759, Note_on_c, 9, 36, 0
2, 161760, Note_on_c, 9, 38, 75
2, 161760, Note_on_c, 9, 36, 75
2, 162239, Note_on_c, 9, 38, 0
2, 162239, Note_on_c, 9, 36, 0
2, 162240, Note_on_c, 9, 36, 75
2, 162599, Note_on_c, 9, 36, 0
2, 162600, Note_on_c, 9, 36, 75
2, 162719, Note_on_c, 9, 36, 0
2, 162720, Note_on_c, 9, 38, 75
2, 162720, Note_on_c, 9, 36, 75
2, 163199, Note_on_c, 9, 38, 0
2, 163199, Note_on_c, 9, 36, 0
2, 163200, Note_on_c, 9, 38, 75
2, 163200, Note_on_c, 9, 36, 75
2, 163679, Note_on_c, 9, 38, 0
2, 163679, Note_on_c, 9, 36, 0
2, 164640, Note_on_c, 9, 36, 75
2, 164759, Note_on_c, 9, 36, 0
2, 164760, Note_on_c, 9, 36, 75
2, 164879, Note_on_c, 9, 36, 0
2, 164880, Note_on_c, 9, 38, 75
2, 164880, Note_on_c, 9, 36, 75
2, 165119, Note_on_c, 9, 38, 0
2, 165119, Note_on_c, 9, 36, 0
2, 165120, Note_on_c, 9, 38, 75
2, 165120, Note_on_c, 9, 36, 75
2, 165599, Note_on_c, 9, 38, 0
2, 165599, Note_on_c, 9, 36, 0
2, 165600, End_track
0, 0, End_of_file
