0, 0, Header, 1, 10, 480
1, 0, Start_track
1, 0, Time_signature, 4, 2, 24, 8
1, 0, Key_signature, 0, "major"
1, 0, Tempo, 722892
1, 0, Control_c, 9, 121, 0
1, 0, Program_c, 9, 0
1, 0, Control_c, 9, 7, 100
1, 0, Control_c, 9, 10, 64
1, 0, Control_c, 9, 91, 0
1, 0, Control_c, 9, 93, 0
1, 0, MIDI_port, 0
1, 68880, Note_on_c, 9, 43, 88
1, 69119, Note_on_c, 9, 43, 0
1, 69120, End_track
2, 0, Start_track
2, 0, Key_signature, 0, "major"
2, 0, Control_c, 9, 121, 0
2, 0, Program_c, 9, 0
2, 0, Control_c, 9, 7, 100
2, 0, Control_c, 9, 10, 64
2, 0, Control_c, 9, 91, 0
2, 0, Control_c, 9, 93, 0
2, 0, MIDI_port, 0
2, 28440, Note_on_c, 9, 48, 71
2, 28799, Note_on_c, 9, 48, 0
2, 43800, Note_on_c, 9, 48, 68
2, 44159, Note_on_c, 9, 48, 0
2, 68640, Note_on_c, 9, 48, 69
2, 69119, Note_on_c, 9, 48, 0
2, 107040, Note_on_c, 9, 48, 111
2, 107519, Note_on_c, 9, 48, 0
2, 124560, Note_on_c, 9, 48, 108
2, 124679, Note_on_c, 9, 48, 0
2, 124680, Note_on_c, 9, 48, 91
2, 124799, Note_on_c, 9, 48, 0
2, 147600, Note_on_c, 9, 48, 88
2, 147839, Note_on_c, 9, 48, 0
2, 162840, Note_on_c, 9, 48, 68
2, 162959, Note_on_c, 9, 48, 0
2, 162960, Note_on_c, 9, 48, 89
2, 163079, Note_on_c, 9, 48, 0
2, 163080, Note_on_c, 9, 48, 68
2, 163199, Note_on_c, 9, 48, 0
2, 163200, End_track
3, 0, Start_track
3, 0, Key_signature, 0, "major"
3, 0, Control_c, 9, 121, 0
3, 0, Program_c, 9, 0
3, 0, Control_c, 9, 7, 100
3, 0, Control_c, 9, 10, 64
3, 0, Control_c, 9, 91, 0
3, 0, Control_c, 9, 93, 0
3, 0, MIDI_port, 0
3, 3840, Note_on_c, 9, 59, 127
3, 4079, Note_on_c, 9, 59, 0
3, 4080, Note_on_c, 9, 59, 118
3, 4319, Note_on_c, 9, 59, 0
3, 4320, Note_on_c, 9, 59, 98
3, 4559, Note_on_c, 9, 59, 0
3, 4560, Note_on_c, 9, 59, 127
3, 4799, Note_on_c, 9, 59, 0
3, 4800, Note_on_c, 9, 59, 119
3, 5039, Note_on_c, 9, 59, 0
3, 5040, Note_on_c, 9, 59, 121
3, 5279, Note_on_c, 9, 59, 0
3, 5280, Note_on_c, 9, 59, 121
3, 5519, Note_on_c, 9, 59, 0
3, 5520, Note_on_c, 9, 59, 97
3, 5759, Note_on_c, 9, 59, 0
3, 5760, Note_on_c, 9, 59, 127
3, 5999, Note_on_c, 9, 59, 0
3, 6000, Note_on_c, 9, 59, 118
3, 6239, Note_on_c, 9, 59, 0
3, 6240, Note_on_c, 9, 59, 121
3, 6479, Note_on_c, 9, 59, 0
3, 6480, Note_on_c, 9, 59, 120
3, 6719, Note_on_c, 9, 59, 0
3, 6720, Note_on_c, 9, 59, 119
3, 6959, Note_on_c, 9, 59, 0
3, 6960, Note_on_c, 9, 59, 119
3, 7199, Note_on_c, 9, 59, 0
3, 7200, Note_on_c, 9, 59, 119
3, 7439, Note_on_c, 9, 59, 0
3, 7440, Note_on_c, 9, 59, 100
3, 7679, Note_on_c, 9, 59, 0
3, 7680, Note_on_c, 9, 59, 127
3, 7919, Note_on_c, 9, 59, 0
3, 7920, Note_on_c, 9, 59, 118
3, 8159, Note_on_c, 9, 59, 0
3, 8160, Note_on_c, 9, 59, 98
3, 8399, Note_on_c, 9, 59, 0
3, 8400, Note_on_c, 9, 59, 127
3, 8639, Note_on_c, 9, 59, 0
3, 8640, Note_on_c, 9, 59, 119
3, 8879, Note_on_c, 9, 59, 0
3, 8880, Note_on_c, 9, 59, 121
3, 9119, Note_on_c, 9, 59, 0
3, 9120, Note_on_c, 9, 59, 121
3, 9359, Note_on_c, 9, 59, 0
3, 9360, Note_on_c, 9, 59, 97
3, 9599, Note_on_c, 9, 59, 0
3, 9600, Note_on_c, 9, 59, 127
3, 9839, Note_on_c, 9, 59, 0
3, 9840, Note_on_c, 9, 59, 118
3, 10079, Note_on_c, 9, 59, 0
3, 10080, Note_on_c, 9, 59, 98
3, 10319, Note_on_c, 9, 59, 0
3, 10320, Note_on_c, 9, 59, 127
3, 10559, Note_on_c, 9, 59, 0
3, 10560, Note_on_c, 9, 59, 119
3, 10799, Note_on_c, 9, 59, 0
3, 10800, Note_on_c, 9, 59, 121
3, 11039, Note_on_c, 9, 59, 0
3, 11040, Note_on_c, 9, 59, 121
3, 11279, Note_on_c, 9, 59, 0
3, 11280, Note_on_c, 9, 59, 97
3, 11519, Note_on_c, 9, 59, 0
3, 11520, Note_on_c, 9, 59, 127
3, 11759, Note_on_c, 9, 59, 0
3, 11760, Note_on_c, 9, 59, 118
3, 11999, Note_on_c, 9, 59, 0
3, 12000, Note_on_c, 9, 59, 121
3, 12239, Note_on_c, 9, 59, 0
3, 12240, Note_on_c, 9, 59, 120
3, 12479, Note_on_c, 9, 59, 0
3, 12480, Note_on_c, 9, 59, 119
3, 12719, Note_on_c, 9, 59, 0
3, 12720, Note_on_c, 9, 59, 119
3, 12959, Note_on_c, 9, 59, 0
3, 12960, Note_on_c, 9, 59, 119
3, 13199, Note_on_c, 9, 59, 0
3, 13200, Note_on_c, 9, 59, 100
3, 13439, Note_on_c, 9, 59, 0
3, 13440, Note_on_c, 9, 59, 127
3, 13679, Note_on_c, 9, 59, 0
3, 13680, Note_on_c, 9, 59, 121
3, 13919, Note_on_c, 9, 59, 0
3, 13920, Note_on_c, 9, 59, 121
3, 14159, Note_on_c, 9, 59, 0
3, 14160, Note_on_c, 9, 59, 100
3, 14399, Note_on_c, 9, 59, 0
3, 14400, Note_on_c, 9, 59, 127
3, 14639, Note_on_c, 9, 59, 0
3, 14640, Note_on_c, 9, 59, 118
3, 14879, Note_on_c, 9, 59, 0
3, 14880, Note_on_c, 9, 59, 121
3, 15119, Note_on_c, 9, 59, 0
3, 15120, Note_on_c, 9, 59, 99
3, 15359, Note_on_c, 9, 59, 0
3, 15360, Note_on_c, 9, 59, 127
3, 15599, Note_on_c, 9, 59, 0
3, 15600, Note_on_c, 9, 59, 119
3, 15839, Note_on_c, 9, 59, 0
3, 15840, Note_on_c, 9, 59, 120
3, 16079, Note_on_c, 9, 59, 0
3, 16080, Note_on_c, 9, 59, 97
3, 16319, Note_on_c, 9, 59, 0
3, 16320, Note_on_c, 9, 59, 127
3, 16559, Note_on_c, 9, 59, 0
3, 16560, Note_on_c, 9, 59, 120
3, 16799, Note_on_c, 9, 59, 0
3, 16800, Note_on_c, 9, 59, 119
3, 17039, Note_on_c, 9, 59, 0
3, 17040, Note_on_c, 9, 59, 102
3, 17279, Note_on_c, 9, 59, 0
3, 17280, Note_on_c, 9, 59, 127
3, 17519, Note_on_c, 9, 59, 0
3, 17520, Note_on_c, 9, 59, 118
3, 17759, Note_on_c, 9, 59, 0
3, 17760, Note_on_c, 9, 59, 118
3, 17999, Note_on_c, 9, 59, 0
3, 18000, Note_on_c, 9, 59, 120
3, 18239, Note_on_c, 9, 59, 0
3, 18240, Note_on_c, 9, 59, 119
3, 18479, Note_on_c, 9, 59, 0
3, 18480, Note_on_c, 9, 59, 121
3, 18719, Note_on_c, 9, 59, 0
3, 18720, Note_on_c, 9, 59, 121
3, 18959, Note_on_c, 9, 59, 0
3, 18960, Note_on_c, 9, 59, 103
3, 19199, Note_on_c, 9, 59, 0
3, 19200, Note_on_c, 9, 59, 127
3, 19439, Note_on_c, 9, 59, 0
3, 19440, Note_on_c, 9, 59, 119
3, 19679, Note_on_c, 9, 59, 0
3, 19680, Note_on_c, 9, 59, 120
3, 19919, Note_on_c, 9, 59, 0
3, 19920, Note_on_c, 9, 59, 97
3, 20159, Note_on_c, 9, 59, 0
3, 20160, Note_on_c, 9, 59, 127
3, 20399, Note_on_c, 9, 59, 0
3, 20400, Note_on_c, 9, 59, 120
3, 20639, Note_on_c, 9, 59, 0
3, 20640, Note_on_c, 9, 59, 119
3, 20879, Note_on_c, 9, 59, 0
3, 20880, Note_on_c, 9, 59, 102
3, 21119, Note_on_c, 9, 59, 0
3, 21120, Note_on_c, 9, 59, 127
3, 21359, Note_on_c, 9, 59, 0
3, 21360, Note_on_c, 9, 59, 118
3, 21599, Note_on_c, 9, 59, 0
3, 21600, Note_on_c, 9, 59, 118
3, 21839, Note_on_c, 9, 59, 0
3, 21840, Note_on_c, 9, 59, 120
3, 22079, Note_on_c, 9, 59, 0
3, 22080, Note_on_c, 9, 59, 119
3, 22319, Note_on_c, 9, 59, 0
3, 22320, Note_on_c, 9, 59, 121
3, 22559, Note_on_c, 9, 59, 0
3, 22560, Note_on_c, 9, 59, 121
3, 22799, Note_on_c, 9, 59, 0
3, 22800, Note_on_c, 9, 59, 103
3, 23039, Note_on_c, 9, 59, 0
3, 23040, Note_on_c, 9, 59, 127
3, 23279, Note_on_c, 9, 59, 0
3, 23280, Note_on_c, 9, 59, 119
3, 23519, Note_on_c, 9, 59, 0
3, 23520, Note_on_c, 9, 59, 120
3, 23759, Note_on_c, 9, 59, 0
3, 23760, Note_on_c, 9, 59, 97
3, 23999, Note_on_c, 9, 59, 0
3, 24000, Note_on_c, 9, 59, 127
3, 24239, Note_on_c, 9, 59, 0
3, 24240, Note_on_c, 9, 59, 120
3, 24479, Note_on_c, 9, 59, 0
3, 24480, Note_on_c, 9, 59, 119
3, 24719, Note_on_c, 9, 59, 0
3, 24720, Note_on_c, 9, 59, 102
3, 24959, Note_on_c, 9, 59, 0
3, 24960, Note_on_c, 9, 59, 127
3, 25199, Note_on_c, 9, 59, 0
3, 25200, Note_on_c, 9, 59, 118
3, 25439, Note_on_c, 9, 59, 0
3, 25440, Note_on_c, 9, 59, 118
3, 25679, Note_on_c, 9, 59, 0
3, 25680, Note_on_c, 9, 59, 120
3, 25919, Note_on_c, 9, 59, 0
3, 25920, Note_on_c, 9, 59, 119
3, 26159, Note_on_c, 9, 59, 0
3, 26160, Note_on_c, 9, 59, 121
3, 26399, Note_on_c, 9, 59, 0
3, 26400, Note_on_c, 9, 59, 121
3, 26639, Note_on_c, 9, 59, 0
3, 26640, Note_on_c, 9, 59, 103
3, 26879, Note_on_c, 9, 59, 0
3, 26880, Note_on_c, 9, 59, 127
3, 27119, Note_on_c, 9, 59, 0
3, 27120, Note_on_c, 9, 59, 120
3, 27359, Note_on_c, 9, 59, 0
3, 27360, Note_on_c, 9, 59, 121
3, 27599, Note_on_c, 9, 59, 0
3, 27600, Note_on_c, 9, 59, 121
3, 27839, Note_on_c, 9, 59, 0
3, 28800, Note_on_c, 9, 59, 127
3, 29039, Note_on_c, 9, 59, 0
3, 29040, Note_on_c, 9, 59, 120
3, 29279, Note_on_c, 9, 59, 0
3, 29280, Note_on_c, 9, 59, 121
3, 29519, Note_on_c, 9, 59, 0
3, 29520, Note_on_c, 9, 59, 98
3, 29759, Note_on_c, 9, 59, 0
3, 29760, Note_on_c, 9, 59, 127
3, 29999, Note_on_c, 9, 59, 0
3, 30000, Note_on_c, 9, 59, 119
3, 30239, Note_on_c, 9, 59, 0
3, 30240, Note_on_c, 9, 59, 121
3, 30479, Note_on_c, 9, 59, 0
3, 30480, Note_on_c, 9, 59, 98
3, 30719, Note_on_c, 9, 59, 0
3, 30720, Note_on_c, 9, 59, 127
3, 30959, Note_on_c, 9, 59, 0
3, 30960, Note_on_c, 9, 59, 121
3, 31199, Note_on_c, 9, 59, 0
3, 31200, Note_on_c, 9, 59, 120
3, 31439, Note_on_c, 9, 59, 0
3, 31440, Note_on_c, 9, 59, 119
3, 31679, Note_on_c, 9, 59, 0
3, 31680, Note_on_c, 9, 59, 119
3, 31919, Note_on_c, 9, 59, 0
3, 31920, Note_on_c, 9, 59, 120
3, 32159, Note_on_c, 9, 59, 0
3, 32160, Note_on_c, 9, 59, 119
3, 32399, Note_on_c, 9, 59, 0
3, 32400, Note_on_c, 9, 59, 98
3, 32639, Note_on_c, 9, 59, 0
3, 32640, Note_on_c, 9, 59, 127
3, 32879, Note_on_c, 9, 59, 0
3, 32880, Note_on_c, 9, 59, 121
3, 33119, Note_on_c, 9, 59, 0
3, 33120, Note_on_c, 9, 59, 119
3, 33359, Note_on_c, 9, 59, 0
3, 33360, Note_on_c, 9, 59, 120
3, 33599, Note_on_c, 9, 59, 0
3, 33600, Note_on_c, 9, 59, 119
3, 33839, Note_on_c, 9, 59, 0
3, 33840, Note_on_c, 9, 59, 121
3, 34079, Note_on_c, 9, 59, 0
3, 34080, Note_on_c, 9, 59, 118
3, 34319, Note_on_c, 9, 59, 0
3, 34320, Note_on_c, 9, 59, 102
3, 34559, Note_on_c, 9, 59, 0
3, 34560, Note_on_c, 9, 59, 127
3, 34799, Note_on_c, 9, 59, 0
3, 34800, Note_on_c, 9, 59, 118
3, 35039, Note_on_c, 9, 59, 0
3, 35040, Note_on_c, 9, 59, 119
3, 35279, Note_on_c, 9, 59, 0
3, 35280, Note_on_c, 9, 59, 99
3, 35519, Note_on_c, 9, 59, 0
3, 36480, Note_on_c, 9, 59, 127
3, 36719, Note_on_c, 9, 59, 0
3, 36720, Note_on_c, 9, 59, 119
3, 36959, Note_on_c, 9, 59, 0
3, 36960, Note_on_c, 9, 59, 120
3, 37199, Note_on_c, 9, 59, 0
3, 37200, Note_on_c, 9, 59, 101
3, 37439, Note_on_c, 9, 59, 0
3, 37440, Note_on_c, 9, 59, 127
3, 37679, Note_on_c, 9, 59, 0
3, 37680, Note_on_c, 9, 59, 120
3, 37919, Note_on_c, 9, 59, 0
3, 37920, Note_on_c, 9, 59, 119
3, 38159, Note_on_c, 9, 59, 0
3, 38160, Note_on_c, 9, 59, 97
3, 38399, Note_on_c, 9, 59, 0
3, 38400, Note_on_c, 9, 59, 127
3, 38639, Note_on_c, 9, 59, 0
3, 38640, Note_on_c, 9, 59, 121
3, 38879, Note_on_c, 9, 59, 0
3, 38880, Note_on_c, 9, 59, 121
3, 39119, Note_on_c, 9, 59, 0
3, 39120, Note_on_c, 9, 59, 102
3, 39359, Note_on_c, 9, 59, 0
3, 39360, Note_on_c, 9, 59, 127
3, 39599, Note_on_c, 9, 59, 0
3, 39600, Note_on_c, 9, 59, 120
3, 39839, Note_on_c, 9, 59, 0
3, 39840, Note_on_c, 9, 59, 118
3, 40079, Note_on_c, 9, 59, 0
3, 40080, Note_on_c, 9, 59, 98
3, 40319, Note_on_c, 9, 59, 0
3, 40320, Note_on_c, 9, 59, 127
3, 40559, Note_on_c, 9, 59, 0
3, 40560, Note_on_c, 9, 59, 121
3, 40799, Note_on_c, 9, 59, 0
3, 40800, Note_on_c, 9, 59, 100
3, 41039, Note_on_c, 9, 59, 0
3, 41040, Note_on_c, 9, 59, 127
3, 41279, Note_on_c, 9, 59, 0
3, 41280, Note_on_c, 9, 59, 120
3, 41519, Note_on_c, 9, 59, 0
3, 41520, Note_on_c, 9, 59, 120
3, 41759, Note_on_c, 9, 59, 0
3, 41760, Note_on_c, 9, 59, 120
3, 41999, Note_on_c, 9, 59, 0
3, 42000, Note_on_c, 9, 59, 102
3, 42239, Note_on_c, 9, 59, 0
3, 42240, Note_on_c, 9, 59, 127
3, 42479, Note_on_c, 9, 59, 0
3, 42480, Note_on_c, 9, 59, 119
3, 42719, Note_on_c, 9, 59, 0
3, 42720, Note_on_c, 9, 59, 118
3, 42959, Note_on_c, 9, 59, 0
3, 42960, Note_on_c, 9, 59, 97
3, 43199, Note_on_c, 9, 59, 0
3, 44160, Note_on_c, 9, 59, 127
3, 44399, Note_on_c, 9, 59, 0
3, 44400, Note_on_c, 9, 59, 119
3, 44639, Note_on_c, 9, 59, 0
3, 44640, Note_on_c, 9, 59, 121
3, 44879, Note_on_c, 9, 59, 0
3, 44880, Note_on_c, 9, 59, 98
3, 45119, Note_on_c, 9, 59, 0
3, 45120, Note_on_c, 9, 59, 127
3, 45359, Note_on_c, 9, 59, 0
3, 45360, Note_on_c, 9, 59, 118
3, 45599, Note_on_c, 9, 59, 0
3, 45600, Note_on_c, 9, 59, 119
3, 45839, Note_on_c, 9, 59, 0
3, 45840, Note_on_c, 9, 59, 97
3, 46079, Note_on_c, 9, 59, 0
3, 46080, Note_on_c, 9, 59, 127
3, 46319, Note_on_c, 9, 59, 0
3, 46320, Note_on_c, 9, 59, 120
3, 46559, Note_on_c, 9, 59, 0
3, 46560, Note_on_c, 9, 59, 100
3, 46799, Note_on_c, 9, 59, 0
3, 46800, Note_on_c, 9, 59, 127
3, 47039, Note_on_c, 9, 59, 0
3, 47040, Note_on_c, 9, 59, 118
3, 47279, Note_on_c, 9, 59, 0
3, 47280, Note_on_c, 9, 59, 118
3, 47519, Note_on_c, 9, 59, 0
3, 47520, Note_on_c, 9, 59, 118
3, 47759, Note_on_c, 9, 59, 0
3, 47760, Note_on_c, 9, 59, 101
3, 47999, Note_on_c, 9, 59, 0
3, 48000, Note_on_c, 9, 59, 127
3, 48239, Note_on_c, 9, 59, 0
3, 48240, Note_on_c, 9, 59, 121
3, 48479, Note_on_c, 9, 59, 0
3, 48480, Note_on_c, 9, 59, 118
3, 48719, Note_on_c, 9, 59, 0
3, 48720, Note_on_c, 9, 59, 101
3, 48959, Note_on_c, 9, 59, 0
3, 48960, Note_on_c, 9, 59, 127
3, 49199, Note_on_c, 9, 59, 0
3, 49200, Note_on_c, 9, 59, 121
3, 49439, Note_on_c, 9, 59, 0
3, 49440, Note_on_c, 9, 59, 121
3, 49679, Note_on_c, 9, 59, 0
3, 49680, Note_on_c, 9, 59, 101
3, 49919, Note_on_c, 9, 59, 0
3, 49920, Note_on_c, 9, 59, 127
3, 50159, Note_on_c, 9, 59, 0
3, 50160, Note_on_c, 9, 59, 119
3, 50399, Note_on_c, 9, 59, 0
3, 50400, Note_on_c, 9, 59, 120
3, 50639, Note_on_c, 9, 59, 0
3, 50640, Note_on_c, 9, 59, 97
3, 50879, Note_on_c, 9, 59, 0
3, 50880, Note_on_c, 9, 59, 127
3, 51119, Note_on_c, 9, 59, 0
3, 51120, Note_on_c, 9, 59, 120
3, 51359, Note_on_c, 9, 59, 0
3, 51840, Note_on_c, 9, 59, 127
3, 52079, Note_on_c, 9, 59, 0
3, 52080, Note_on_c, 9, 59, 118
3, 52319, Note_on_c, 9, 59, 0
3, 52320, Note_on_c, 9, 59, 121
3, 52559, Note_on_c, 9, 59, 0
3, 52560, Note_on_c, 9, 59, 103
3, 52799, Note_on_c, 9, 59, 0
3, 52800, Note_on_c, 9, 59, 127
3, 53039, Note_on_c, 9, 59, 0
3, 53040, Note_on_c, 9, 59, 119
3, 53279, Note_on_c, 9, 59, 0
3, 53280, Note_on_c, 9, 59, 120
3, 53519, Note_on_c, 9, 59, 0
3, 53520, Note_on_c, 9, 59, 102
3, 53759, Note_on_c, 9, 59, 0
3, 53760, Note_on_c, 9, 59, 127
3, 53999, Note_on_c, 9, 59, 0
3, 54000, Note_on_c, 9, 59, 120
3, 54239, Note_on_c, 9, 59, 0
3, 54240, Note_on_c, 9, 59, 97
3, 54479, Note_on_c, 9, 59, 0
3, 54480, Note_on_c, 9, 59, 127
3, 54719, Note_on_c, 9, 59, 0
3, 54720, Note_on_c, 9, 59, 119
3, 54959, Note_on_c, 9, 59, 0
3, 54960, Note_on_c, 9, 59, 120
3, 55199, Note_on_c, 9, 59, 0
3, 55200, Note_on_c, 9, 59, 119
3, 55439, Note_on_c, 9, 59, 0
3, 55440, Note_on_c, 9, 59, 98
3, 55679, Note_on_c, 9, 59, 0
3, 55680, Note_on_c, 9, 59, 127
3, 55919, Note_on_c, 9, 59, 0
3, 55920, Note_on_c, 9, 59, 120
3, 56159, Note_on_c, 9, 59, 0
3, 56160, Note_on_c, 9, 59, 118
3, 56399, Note_on_c, 9, 59, 0
3, 56400, Note_on_c, 9, 59, 103
3, 56639, Note_on_c, 9, 59, 0
3, 56640, Note_on_c, 9, 59, 127
3, 56879, Note_on_c, 9, 59, 0
3, 56880, Note_on_c, 9, 59, 121
3, 57119, Note_on_c, 9, 59, 0
3, 57120, Note_on_c, 9, 59, 121
3, 57359, Note_on_c, 9, 59, 0
3, 57360, Note_on_c, 9, 59, 100
3, 57599, Note_on_c, 9, 59, 0
3, 57600, Note_on_c, 9, 59, 127
3, 57839, Note_on_c, 9, 59, 0
3, 57840, Note_on_c, 9, 59, 120
3, 58079, Note_on_c, 9, 59, 0
3, 58080, Note_on_c, 9, 59, 97
3, 58319, Note_on_c, 9, 59, 0
3, 58320, Note_on_c, 9, 59, 127
3, 58559, Note_on_c, 9, 59, 0
3, 58560, Note_on_c, 9, 59, 119
3, 58799, Note_on_c, 9, 59, 0
3, 58800, Note_on_c, 9, 59, 120
3, 59039, Note_on_c, 9, 59, 0
3, 59040, Note_on_c, 9, 59, 119
3, 59279, Note_on_c, 9, 59, 0
3, 59280, Note_on_c, 9, 59, 98
3, 59519, Note_on_c, 9, 59, 0
3, 59520, Note_on_c, 9, 59, 127
3, 59759, Note_on_c, 9, 59, 0
3, 59760, Note_on_c, 9, 59, 120
3, 59999, Note_on_c, 9, 59, 0
3, 60000, Note_on_c, 9, 59, 118
3, 60239, Note_on_c, 9, 59, 0
3, 60240, Note_on_c, 9, 59, 103
3, 60479, Note_on_c, 9, 59, 0
3, 60480, Note_on_c, 9, 59, 127
3, 60719, Note_on_c, 9, 59, 0
3, 60720, Note_on_c, 9, 59, 121
3, 60959, Note_on_c, 9, 59, 0
3, 60960, Note_on_c, 9, 59, 121
3, 61199, Note_on_c, 9, 59, 0
3, 61200, Note_on_c, 9, 59, 100
3, 61439, Note_on_c, 9, 59, 0
3, 61440, Note_on_c, 9, 59, 127
3, 61679, Note_on_c, 9, 59, 0
3, 61680, Note_on_c, 9, 59, 120
3, 61919, Note_on_c, 9, 59, 0
3, 61920, Note_on_c, 9, 59, 97
3, 62159, Note_on_c, 9, 59, 0
3, 62160, Note_on_c, 9, 59, 127
3, 62399, Note_on_c, 9, 59, 0
3, 62400, Note_on_c, 9, 59, 119
3, 62639, Note_on_c, 9, 59, 0
3, 62640, Note_on_c, 9, 59, 120
3, 62879, Note_on_c, 9, 59, 0
3, 62880, Note_on_c, 9, 59, 119
3, 63119, Note_on_c, 9, 59, 0
3, 63120, Note_on_c, 9, 59, 98
3, 63359, Note_on_c, 9, 59, 0
3, 63360, Note_on_c, 9, 59, 127
3, 63599, Note_on_c, 9, 59, 0
3, 63600, Note_on_c, 9, 59, 120
3, 63839, Note_on_c, 9, 59, 0
3, 63840, Note_on_c, 9, 59, 118
3, 64079, Note_on_c, 9, 59, 0
3, 64080, Note_on_c, 9, 59, 103
3, 64319, Note_on_c, 9, 59, 0
3, 64320, Note_on_c, 9, 59, 127
3, 64559, Note_on_c, 9, 59, 0
3, 64560, Note_on_c, 9, 59, 121
3, 64799, Note_on_c, 9, 59, 0
3, 64800, Note_on_c, 9, 59, 121
3, 65039, Note_on_c, 9, 59, 0
3, 65040, Note_on_c, 9, 59, 100
3, 65279, Note_on_c, 9, 59, 0
3, 65280, Note_on_c, 9, 59, 127
3, 65519, Note_on_c, 9, 59, 0
3, 65520, Note_on_c, 9, 59, 121
3, 65759, Note_on_c, 9, 59, 0
3, 65760, Note_on_c, 9, 59, 119
3, 65999, Note_on_c, 9, 59, 0
3, 66000, Note_on_c, 9, 59, 119
3, 66239, Note_on_c, 9, 59, 0
3, 66240, Note_on_c, 9, 59, 120
3, 66479, Note_on_c, 9, 59, 0
3, 66480, Note_on_c, 9, 59, 120
3, 66719, Note_on_c, 9, 59, 0
3, 66720, Note_on_c, 9, 59, 118
3, 66959, Note_on_c, 9, 59, 0
3, 66960, Note_on_c, 9, 59, 97
3, 67199, Note_on_c, 9, 59, 0
3, 67200, Note_on_c, 9, 59, 127
3, 67439, Note_on_c, 9, 59, 0
3, 67440, Note_on_c, 9, 59, 121
3, 67679, Note_on_c, 9, 59, 0
3, 67680, Note_on_c, 9, 59, 99
3, 67919, Note_on_c, 9, 59, 0
3, 67920, Note_on_c, 9, 59, 127
3, 68159, Note_on_c, 9, 59, 0
3, 68160, Note_on_c, 9, 59, 118
3, 68639, Note_on_c, 9, 59, 0
3, 69120, Note_on_c, 9, 59, 127
3, 69359, Note_on_c, 9, 59, 0
3, 69360, Note_on_c, 9, 59, 120
3, 69599, Note_on_c, 9, 59, 0
3, 69600, Note_on_c, 9, 59, 97
3, 69839, Note_on_c, 9, 59, 0
3, 69840, Note_on_c, 9, 59, 127
3, 70079, Note_on_c, 9, 59, 0
3, 70080, Note_on_c, 9, 59, 118
3, 70319, Note_on_c, 9, 59, 0
3, 70320, Note_on_c, 9, 59, 120
3, 70559, Note_on_c, 9, 59, 0
3, 70560, Note_on_c, 9, 59, 120
3, 70799, Note_on_c, 9, 59, 0
3, 70800, Note_on_c, 9, 59, 103
3, 71039, Note_on_c, 9, 59, 0
3, 71040, Note_on_c, 9, 59, 127
3, 71279, Note_on_c, 9, 59, 0
3, 71280, Note_on_c, 9, 59, 121
3, 71519, Note_on_c, 9, 59, 0
3, 71520, Note_on_c, 9, 59, 99
3, 71759, Note_on_c, 9, 59, 0
3, 71760, Note_on_c, 9, 59, 127
3, 71999, Note_on_c, 9, 59, 0
3, 72000, Note_on_c, 9, 59, 118
3, 72239, Note_on_c, 9, 59, 0
3, 72240, Note_on_c, 9, 59, 120
3, 72479, Note_on_c, 9, 59, 0
3, 72480, Note_on_c, 9, 59, 118
3, 72719, Note_on_c, 9, 59, 0
3, 72720, Note_on_c, 9, 59, 103
3, 72959, Note_on_c, 9, 59, 0
3, 72960, Note_on_c, 9, 59, 127
3, 73199, Note_on_c, 9, 59, 0
3, 73200, Note_on_c, 9, 59, 120
3, 73439, Note_on_c, 9, 59, 0
3, 73440, Note_on_c, 9, 59, 97
3, 73679, Note_on_c, 9, 59, 0
3, 73680, Note_on_c, 9, 59, 127
3, 73919, Note_on_c, 9, 59, 0
3, 73920, Note_on_c, 9, 59, 118
3, 74159, Note_on_c, 9, 59, 0
3, 74160, Note_on_c, 9, 59, 120
3, 74399, Note_on_c, 9, 59, 0
3, 74400, Note_on_c, 9, 59, 120
3, 74639, Note_on_c, 9, 59, 0
3, 74640, Note_on_c, 9, 59, 103
3, 74879, Note_on_c, 9, 59, 0
3, 74880, Note_on_c, 9, 59, 127
3, 75119, Note_on_c, 9, 59, 0
3, 75120, Note_on_c, 9, 59, 118
3, 75359, Note_on_c, 9, 59, 0
3, 75360, Note_on_c, 9, 59, 97
3, 75599, Note_on_c, 9, 59, 0
3, 75600, Note_on_c, 9, 59, 127
3, 75839, Note_on_c, 9, 59, 0
3, 75840, Note_on_c, 9, 59, 121
3, 76079, Note_on_c, 9, 59, 0
3, 76080, Note_on_c, 9, 59, 118
3, 76319, Note_on_c, 9, 59, 0
3, 76320, Note_on_c, 9, 59, 120
3, 76559, Note_on_c, 9, 59, 0
3, 76560, Note_on_c, 9, 59, 98
3, 76799, Note_on_c, 9, 59, 0
3, 76800, Note_on_c, 9, 59, 127
3, 77039, Note_on_c, 9, 59, 0
3, 77040, Note_on_c, 9, 59, 120
3, 77279, Note_on_c, 9, 59, 0
3, 77280, Note_on_c, 9, 59, 118
3, 77519, Note_on_c, 9, 59, 0
3, 77520, Note_on_c, 9, 59, 97
3, 77759, Note_on_c, 9, 59, 0
3, 77760, Note_on_c, 9, 59, 127
3, 77999, Note_on_c, 9, 59, 0
3, 78000, Note_on_c, 9, 59, 120
3, 78239, Note_on_c, 9, 59, 0
3, 78240, Note_on_c, 9, 59, 118
3, 78479, Note_on_c, 9, 59, 0
3, 78480, Note_on_c, 9, 59, 97
3, 78719, Note_on_c, 9, 59, 0
3, 78720, Note_on_c, 9, 59, 127
3, 78959, Note_on_c, 9, 59, 0
3, 78960, Note_on_c, 9, 59, 118
3, 79199, Note_on_c, 9, 59, 0
3, 79200, Note_on_c, 9, 59, 97
3, 79439, Note_on_c, 9, 59, 0
3, 79440, Note_on_c, 9, 59, 127
3, 79679, Note_on_c, 9, 59, 0
3, 79680, Note_on_c, 9, 59, 121
3, 79919, Note_on_c, 9, 59, 0
3, 79920, Note_on_c, 9, 59, 118
3, 80159, Note_on_c, 9, 59, 0
3, 80160, Note_on_c, 9, 59, 120
3, 80399, Note_on_c, 9, 59, 0
3, 80400, Note_on_c, 9, 59, 98
3, 80639, Note_on_c, 9, 59, 0
3, 80640, Note_on_c, 9, 59, 127
3, 80879, Note_on_c, 9, 59, 0
3, 80880, Note_on_c, 9, 59, 120
3, 81119, Note_on_c, 9, 59, 0
3, 81120, Note_on_c, 9, 59, 118
3, 81359, Note_on_c, 9, 59, 0
3, 81360, Note_on_c, 9, 59, 97
3, 81599, Note_on_c, 9, 59, 0
3, 81600, Note_on_c, 9, 59, 127
3, 81839, Note_on_c, 9, 59, 0
3, 81840, Note_on_c, 9, 59, 120
3, 82079, Note_on_c, 9, 59, 0
3, 82080, Note_on_c, 9, 59, 118
3, 82319, Note_on_c, 9, 59, 0
3, 82320, Note_on_c, 9, 59, 97
3, 82559, Note_on_c, 9, 59, 0
3, 82560, Note_on_c, 9, 59, 127
3, 82799, Note_on_c, 9, 59, 0
3, 82800, Note_on_c, 9, 59, 118
3, 83039, Note_on_c, 9, 59, 0
3, 83040, Note_on_c, 9, 59, 97
3, 83279, Note_on_c, 9, 59, 0
3, 83280, Note_on_c, 9, 59, 127
3, 83519, Note_on_c, 9, 59, 0
3, 83520, Note_on_c, 9, 59, 121
3, 83759, Note_on_c, 9, 59, 0
3, 83760, Note_on_c, 9, 59, 118
3, 83999, Note_on_c, 9, 59, 0
3, 84000, Note_on_c, 9, 59, 120
3, 84239, Note_on_c, 9, 59, 0
3, 84240, Note_on_c, 9, 59, 98
3, 84479, Note_on_c, 9, 59, 0
3, 84480, Note_on_c, 9, 59, 127
3, 84719, Note_on_c, 9, 59, 0
3, 84720, Note_on_c, 9, 59, 120
3, 84959, Note_on_c, 9, 59, 0
3, 84960, Note_on_c, 9, 59, 118
3, 85199, Note_on_c, 9, 59, 0
3, 85200, Note_on_c, 9, 59, 97
3, 85439, Note_on_c, 9, 59, 0
3, 85440, Note_on_c, 9, 59, 127
3, 85679, Note_on_c, 9, 59, 0
3, 85680, Note_on_c, 9, 59, 120
3, 85919, Note_on_c, 9, 59, 0
3, 85920, Note_on_c, 9, 59, 118
3, 86159, Note_on_c, 9, 59, 0
3, 86160, Note_on_c, 9, 59, 97
3, 86399, Note_on_c, 9, 59, 0
3, 86400, Note_on_c, 9, 59, 127
3, 86639, Note_on_c, 9, 59, 0
3, 86640, Note_on_c, 9, 59, 118
3, 86879, Note_on_c, 9, 59, 0
3, 86880, Note_on_c, 9, 59, 101
3, 87119, Note_on_c, 9, 59, 0
3, 87120, Note_on_c, 9, 59, 127
3, 87359, Note_on_c, 9, 59, 0
3, 87360, Note_on_c, 9, 59, 120
3, 87599, Note_on_c, 9, 59, 0
3, 87600, Note_on_c, 9, 59, 118
3, 87839, Note_on_c, 9, 59, 0
3, 87840, Note_on_c, 9, 59, 119
3, 88079, Note_on_c, 9, 59, 0
3, 88080, Note_on_c, 9, 59, 101
3, 88319, Note_on_c, 9, 59, 0
3, 88320, Note_on_c, 9, 59, 127
3, 88559, Note_on_c, 9, 59, 0
3, 88560, Note_on_c, 9, 59, 119
3, 88799, Note_on_c, 9, 59, 0
3, 88800, Note_on_c, 9, 59, 120
3, 89039, Note_on_c, 9, 59, 0
3, 89040, Note_on_c, 9, 59, 102
3, 89279, Note_on_c, 9, 59, 0
3, 89280, Note_on_c, 9, 59, 127
3, 89519, Note_on_c, 9, 59, 0
3, 89520, Note_on_c, 9, 59, 120
3, 89759, Note_on_c, 9, 59, 0
3, 89760, Note_on_c, 9, 59, 118
3, 89999, Note_on_c, 9, 59, 0
3, 90000, Note_on_c, 9, 59, 99
3, 90239, Note_on_c, 9, 59, 0
3, 90240, Note_on_c, 9, 59, 127
3, 90479, Note_on_c, 9, 59, 0
3, 90480, Note_on_c, 9, 59, 118
3, 90719, Note_on_c, 9, 59, 0
3, 90720, Note_on_c, 9, 59, 101
3, 90959, Note_on_c, 9, 59, 0
3, 90960, Note_on_c, 9, 59, 127
3, 91199, Note_on_c, 9, 59, 0
3, 91200, Note_on_c, 9, 59, 120
3, 91439, Note_on_c, 9, 59, 0
3, 91440, Note_on_c, 9, 59, 118
3, 91679, Note_on_c, 9, 59, 0
3, 91680, Note_on_c, 9, 59, 119
3, 91919, Note_on_c, 9, 59, 0
3, 91920, Note_on_c, 9, 59, 101
3, 92159, Note_on_c, 9, 59, 0
3, 92160, Note_on_c, 9, 59, 127
3, 92399, Note_on_c, 9, 59, 0
3, 92400, Note_on_c, 9, 59, 119
3, 92639, Note_on_c, 9, 59, 0
3, 92640, Note_on_c, 9, 59, 120
3, 92879, Note_on_c, 9, 59, 0
3, 92880, Note_on_c, 9, 59, 102
3, 93119, Note_on_c, 9, 59, 0
3, 93120, Note_on_c, 9, 59, 127
3, 93359, Note_on_c, 9, 59, 0
3, 93360, Note_on_c, 9, 59, 120
3, 93599, Note_on_c, 9, 59, 0
3, 93600, Note_on_c, 9, 59, 118
3, 93839, Note_on_c, 9, 59, 0
3, 93840, Note_on_c, 9, 59, 99
3, 94079, Note_on_c, 9, 59, 0
3, 94080, Note_on_c, 9, 59, 127
3, 94319, Note_on_c, 9, 59, 0
3, 94320, Note_on_c, 9, 59, 118
3, 94559, Note_on_c, 9, 59, 0
3, 94560, Note_on_c, 9, 59, 101
3, 94799, Note_on_c, 9, 59, 0
3, 94800, Note_on_c, 9, 59, 127
3, 95039, Note_on_c, 9, 59, 0
3, 95040, Note_on_c, 9, 59, 120
3, 95279, Note_on_c, 9, 59, 0
3, 95280, Note_on_c, 9, 59, 118
3, 95519, Note_on_c, 9, 59, 0
3, 95520, Note_on_c, 9, 59, 119
3, 95759, Note_on_c, 9, 59, 0
3, 95760, Note_on_c, 9, 59, 101
3, 95999, Note_on_c, 9, 59, 0
3, 96000, Note_on_c, 9, 59, 127
3, 96239, Note_on_c, 9, 59, 0
3, 96240, Note_on_c, 9, 59, 119
3, 96479, Note_on_c, 9, 59, 0
3, 96480, Note_on_c, 9, 59, 120
3, 96719, Note_on_c, 9, 59, 0
3, 96720, Note_on_c, 9, 59, 102
3, 96959, Note_on_c, 9, 59, 0
3, 96960, Note_on_c, 9, 59, 127
3, 97199, Note_on_c, 9, 59, 0
3, 97200, Note_on_c, 9, 59, 120
3, 97439, Note_on_c, 9, 59, 0
3, 97440, Note_on_c, 9, 59, 118
3, 97679, Note_on_c, 9, 59, 0
3, 97680, Note_on_c, 9, 59, 99
3, 97919, Note_on_c, 9, 59, 0
3, 97920, Note_on_c, 9, 59, 127
3, 98159, Note_on_c, 9, 59, 0
3, 98160, Note_on_c, 9, 59, 121
3, 98399, Note_on_c, 9, 59, 0
3, 98400, Note_on_c, 9, 59, 121
3, 98639, Note_on_c, 9, 59, 0
3, 98640, Note_on_c, 9, 59, 100
3, 98879, Note_on_c, 9, 59, 0
3, 98880, Note_on_c, 9, 59, 127
3, 99119, Note_on_c, 9, 59, 0
3, 99120, Note_on_c, 9, 59, 120
3, 99359, Note_on_c, 9, 59, 0
3, 99360, Note_on_c, 9, 59, 119
3, 99599, Note_on_c, 9, 59, 0
3, 99600, Note_on_c, 9, 59, 103
3, 99839, Note_on_c, 9, 59, 0
3, 99840, Note_on_c, 9, 59, 127
3, 100079, Note_on_c, 9, 59, 0
3, 100080, Note_on_c, 9, 59, 121
3, 100319, Note_on_c, 9, 59, 0
3, 100320, Note_on_c, 9, 59, 120
3, 100559, Note_on_c, 9, 59, 0
3, 100560, Note_on_c, 9, 59, 97
3, 100799, Note_on_c, 9, 59, 0
3, 100800, Note_on_c, 9, 59, 127
3, 101039, Note_on_c, 9, 59, 0
3, 101040, Note_on_c, 9, 59, 118
3, 101279, Note_on_c, 9, 59, 0
3, 101280, Note_on_c, 9, 59, 119
3, 101519, Note_on_c, 9, 59, 0
3, 101520, Note_on_c, 9, 59, 98
3, 101759, Note_on_c, 9, 59, 0
3, 101760, Note_on_c, 9, 59, 127
3, 101999, Note_on_c, 9, 59, 0
3, 102000, Note_on_c, 9, 59, 120
3, 102239, Note_on_c, 9, 59, 0
3, 102240, Note_on_c, 9, 59, 119
3, 102479, Note_on_c, 9, 59, 0
3, 102480, Note_on_c, 9, 59, 119
3, 102719, Note_on_c, 9, 59, 0
3, 102720, Note_on_c, 9, 59, 118
3, 102959, Note_on_c, 9, 59, 0
3, 102960, Note_on_c, 9, 59, 119
3, 103199, Note_on_c, 9, 59, 0
3, 103200, Note_on_c, 9, 59, 120
3, 103439, Note_on_c, 9, 59, 0
3, 103440, Note_on_c, 9, 59, 100
3, 103679, Note_on_c, 9, 59, 0
3, 103680, Note_on_c, 9, 59, 127
3, 103919, Note_on_c, 9, 59, 0
3, 103920, Note_on_c, 9, 59, 120
3, 104159, Note_on_c, 9, 59, 0
3, 104160, Note_on_c, 9, 59, 120
3, 104399, Note_on_c, 9, 59, 0
3, 104400, Note_on_c, 9, 59, 118
3, 104639, Note_on_c, 9, 59, 0
3, 104640, Note_on_c, 9, 59, 121
3, 104879, Note_on_c, 9, 59, 0
3, 104880, Note_on_c, 9, 59, 118
3, 105119, Note_on_c, 9, 59, 0
3, 105120, Note_on_c, 9, 59, 119
3, 105359, Note_on_c, 9, 59, 0
3, 105360, Note_on_c, 9, 59, 103
3, 105599, Note_on_c, 9, 59, 0
3, 105600, Note_on_c, 9, 59, 127
3, 105839, Note_on_c, 9, 59, 0
3, 105840, Note_on_c, 9, 59, 119
3, 106079, Note_on_c, 9, 59, 0
3, 106080, Note_on_c, 9, 59, 120
3, 106319, Note_on_c, 9, 59, 0
3, 106320, Note_on_c, 9, 59, 98
3, 106559, Note_on_c, 9, 59, 0
3, 107520, Note_on_c, 9, 59, 127
3, 107759, Note_on_c, 9, 59, 0
3, 107760, Note_on_c, 9, 59, 119
3, 107999, Note_on_c, 9, 59, 0
3, 108000, Note_on_c, 9, 59, 120
3, 108239, Note_on_c, 9, 59, 0
3, 108240, Note_on_c, 9, 59, 121
3, 108479, Note_on_c, 9, 59, 0
3, 108480, Note_on_c, 9, 59, 118
3, 108719, Note_on_c, 9, 59, 0
3, 108720, Note_on_c, 9, 59, 119
3, 108959, Note_on_c, 9, 59, 0
3, 108960, Note_on_c, 9, 59, 118
3, 109199, Note_on_c, 9, 59, 0
3, 109200, Note_on_c, 9, 59, 98
3, 109439, Note_on_c, 9, 59, 0
3, 109440, Note_on_c, 9, 59, 127
3, 109679, Note_on_c, 9, 59, 0
3, 109680, Note_on_c, 9, 59, 119
3, 109919, Note_on_c, 9, 59, 0
3, 109920, Note_on_c, 9, 59, 120
3, 110159, Note_on_c, 9, 59, 0
3, 110160, Note_on_c, 9, 59, 98
3, 110399, Note_on_c, 9, 59, 0
3, 110400, Note_on_c, 9, 59, 127
3, 110639, Note_on_c, 9, 59, 0
3, 110640, Note_on_c, 9, 59, 120
3, 110879, Note_on_c, 9, 59, 0
3, 110880, Note_on_c, 9, 59, 120
3, 111119, Note_on_c, 9, 59, 0
3, 111120, Note_on_c, 9, 59, 98
3, 111359, Note_on_c, 9, 59, 0
3, 111360, Note_on_c, 9, 59, 127
3, 111599, Note_on_c, 9, 59, 0
3, 111600, Note_on_c, 9, 59, 119
3, 111839, Note_on_c, 9, 59, 0
3, 111840, Note_on_c, 9, 59, 120
3, 112079, Note_on_c, 9, 59, 0
3, 112080, Note_on_c, 9, 59, 121
3, 112319, Note_on_c, 9, 59, 0
3, 112320, Note_on_c, 9, 59, 118
3, 112559, Note_on_c, 9, 59, 0
3, 112560, Note_on_c, 9, 59, 119
3, 112799, Note_on_c, 9, 59, 0
3, 112800, Note_on_c, 9, 59, 118
3, 113039, Note_on_c, 9, 59, 0
3, 113040, Note_on_c, 9, 59, 98
3, 113279, Note_on_c, 9, 59, 0
3, 113280, Note_on_c, 9, 59, 127
3, 113519, Note_on_c, 9, 59, 0
3, 113520, Note_on_c, 9, 59, 121
3, 113759, Note_on_c, 9, 59, 0
3, 113760, Note_on_c, 9, 59, 120
3, 113999, Note_on_c, 9, 59, 0
3, 114000, Note_on_c, 9, 59, 102
3, 114239, Note_on_c, 9, 59, 0
3, 114240, Note_on_c, 9, 59, 127
3, 114479, Note_on_c, 9, 59, 0
3, 114480, Note_on_c, 9, 59, 118
3, 114719, Note_on_c, 9, 59, 0
3, 114720, Note_on_c, 9, 59, 119
3, 114959, Note_on_c, 9, 59, 0
3, 114960, Note_on_c, 9, 59, 102
3, 115199, Note_on_c, 9, 59, 0
3, 115200, Note_on_c, 9, 59, 127
3, 115439, Note_on_c, 9, 59, 0
3, 115440, Note_on_c, 9, 59, 121
3, 115679, Note_on_c, 9, 59, 0
3, 115680, Note_on_c, 9, 59, 118
3, 115919, Note_on_c, 9, 59, 0
3, 115920, Note_on_c, 9, 59, 118
3, 116159, Note_on_c, 9, 59, 0
3, 116160, Note_on_c, 9, 59, 118
3, 116399, Note_on_c, 9, 59, 0
3, 116400, Note_on_c, 9, 59, 119
3, 116639, Note_on_c, 9, 59, 0
3, 116640, Note_on_c, 9, 59, 118
3, 116879, Note_on_c, 9, 59, 0
3, 116880, Note_on_c, 9, 59, 98
3, 117119, Note_on_c, 9, 59, 0
3, 117120, Note_on_c, 9, 59, 127
3, 117359, Note_on_c, 9, 59, 0
3, 117360, Note_on_c, 9, 59, 121
3, 117599, Note_on_c, 9, 59, 0
3, 117600, Note_on_c, 9, 59, 120
3, 117839, Note_on_c, 9, 59, 0
3, 117840, Note_on_c, 9, 59, 102
3, 118079, Note_on_c, 9, 59, 0
3, 118080, Note_on_c, 9, 59, 127
3, 118319, Note_on_c, 9, 59, 0
3, 118320, Note_on_c, 9, 59, 118
3, 118559, Note_on_c, 9, 59, 0
3, 118560, Note_on_c, 9, 59, 119
3, 118799, Note_on_c, 9, 59, 0
3, 118800, Note_on_c, 9, 59, 102
3, 119039, Note_on_c, 9, 59, 0
3, 119040, Note_on_c, 9, 59, 127
3, 119279, Note_on_c, 9, 59, 0
3, 119280, Note_on_c, 9, 59, 121
3, 119519, Note_on_c, 9, 59, 0
3, 119520, Note_on_c, 9, 59, 118
3, 119759, Note_on_c, 9, 59, 0
3, 119760, Note_on_c, 9, 59, 118
3, 119999, Note_on_c, 9, 59, 0
3, 120000, Note_on_c, 9, 59, 118
3, 120239, Note_on_c, 9, 59, 0
3, 120240, Note_on_c, 9, 59, 119
3, 120479, Note_on_c, 9, 59, 0
3, 120480, Note_on_c, 9, 59, 118
3, 120719, Note_on_c, 9, 59, 0
3, 120720, Note_on_c, 9, 59, 98
3, 120959, Note_on_c, 9, 59, 0
3, 120960, Note_on_c, 9, 59, 127
3, 121199, Note_on_c, 9, 59, 0
3, 121200, Note_on_c, 9, 59, 121
3, 121439, Note_on_c, 9, 59, 0
3, 121440, Note_on_c, 9, 59, 118
3, 121679, Note_on_c, 9, 59, 0
3, 121680, Note_on_c, 9, 59, 119
3, 121919, Note_on_c, 9, 59, 0
3, 121920, Note_on_c, 9, 59, 119
3, 122159, Note_on_c, 9, 59, 0
3, 122160, Note_on_c, 9, 59, 120
3, 122399, Note_on_c, 9, 59, 0
3, 122400, Note_on_c, 9, 59, 119
3, 122639, Note_on_c, 9, 59, 0
3, 122640, Note_on_c, 9, 59, 99
3, 122879, Note_on_c, 9, 59, 0
3, 122880, Note_on_c, 9, 59, 127
3, 123119, Note_on_c, 9, 59, 0
3, 123120, Note_on_c, 9, 59, 121
3, 123359, Note_on_c, 9, 59, 0
3, 123360, Note_on_c, 9, 59, 99
3, 123599, Note_on_c, 9, 59, 0
3, 123600, Note_on_c, 9, 59, 127
3, 123839, Note_on_c, 9, 59, 0
3, 123840, Note_on_c, 9, 59, 121
3, 124319, Note_on_c, 9, 59, 0
3, 124800, Note_on_c, 9, 59, 127
3, 125039, Note_on_c, 9, 59, 0
3, 125040, Note_on_c, 9, 59, 121
3, 125279, Note_on_c, 9, 59, 0
3, 125280, Note_on_c, 9, 59, 100
3, 125519, Note_on_c, 9, 59, 0
3, 125520, Note_on_c, 9, 59, 127
3, 125759, Note_on_c, 9, 59, 0
3, 125760, Note_on_c, 9, 59, 118
3, 125999, Note_on_c, 9, 59, 0
3, 126000, Note_on_c, 9, 59, 121
3, 126239, Note_on_c, 9, 59, 0
3, 126240, Note_on_c, 9, 59, 120
3, 126479, Note_on_c, 9, 59, 0
3, 126480, Note_on_c, 9, 59, 98
3, 126719, Note_on_c, 9, 59, 0
3, 126720, Note_on_c, 9, 59, 127
3, 126959, Note_on_c, 9, 59, 0
3, 126960, Note_on_c, 9, 59, 121
3, 127199, Note_on_c, 9, 59, 0
3, 127200, Note_on_c, 9, 59, 120
3, 127439, Note_on_c, 9, 59, 0
3, 127440, Note_on_c, 9, 59, 100
3, 127679, Note_on_c, 9, 59, 0
3, 127680, Note_on_c, 9, 59, 127
3, 127919, Note_on_c, 9, 59, 0
3, 127920, Note_on_c, 9, 59, 121
3, 128159, Note_on_c, 9, 59, 0
3, 128160, Note_on_c, 9, 59, 118
3, 128399, Note_on_c, 9, 59, 0
3, 128400, Note_on_c, 9, 59, 101
3, 128639, Note_on_c, 9, 59, 0
3, 128640, Note_on_c, 9, 59, 127
3, 128879, Note_on_c, 9, 59, 0
3, 128880, Note_on_c, 9, 59, 119
3, 129119, Note_on_c, 9, 59, 0
3, 129120, Note_on_c, 9, 59, 118
3, 129359, Note_on_c, 9, 59, 0
3, 129360, Note_on_c, 9, 59, 99
3, 129599, Note_on_c, 9, 59, 0
3, 129600, Note_on_c, 9, 59, 127
3, 129839, Note_on_c, 9, 59, 0
3, 129840, Note_on_c, 9, 59, 120
3, 130079, Note_on_c, 9, 59, 0
3, 130080, Note_on_c, 9, 59, 120
3, 130319, Note_on_c, 9, 59, 0
3, 130320, Note_on_c, 9, 59, 101
3, 130559, Note_on_c, 9, 59, 0
3, 130560, Note_on_c, 9, 59, 127
3, 130799, Note_on_c, 9, 59, 0
3, 130800, Note_on_c, 9, 59, 120
3, 131039, Note_on_c, 9, 59, 0
3, 131040, Note_on_c, 9, 59, 98
3, 131279, Note_on_c, 9, 59, 0
3, 131280, Note_on_c, 9, 59, 127
3, 131519, Note_on_c, 9, 59, 0
3, 131520, Note_on_c, 9, 59, 118
3, 131759, Note_on_c, 9, 59, 0
3, 131760, Note_on_c, 9, 59, 120
3, 131999, Note_on_c, 9, 59, 0
3, 132000, Note_on_c, 9, 59, 121
3, 132239, Note_on_c, 9, 59, 0
3, 132240, Note_on_c, 9, 59, 102
3, 132479, Note_on_c, 9, 59, 0
3, 132480, Note_on_c, 9, 59, 127
3, 132719, Note_on_c, 9, 59, 0
3, 132720, Note_on_c, 9, 59, 121
3, 132959, Note_on_c, 9, 59, 0
3, 132960, Note_on_c, 9, 59, 100
3, 133199, Note_on_c, 9, 59, 0
3, 133200, Note_on_c, 9, 59, 127
3, 133439, Note_on_c, 9, 59, 0
3, 133440, Note_on_c, 9, 59, 120
3, 133679, Note_on_c, 9, 59, 0
3, 133680, Note_on_c, 9, 59, 121
3, 133919, Note_on_c, 9, 59, 0
3, 133920, Note_on_c, 9, 59, 118
3, 134159, Note_on_c, 9, 59, 0
3, 134160, Note_on_c, 9, 59, 97
3, 134399, Note_on_c, 9, 59, 0
3, 134400, Note_on_c, 9, 59, 127
3, 134639, Note_on_c, 9, 59, 0
3, 134640, Note_on_c, 9, 59, 118
3, 134879, Note_on_c, 9, 59, 0
3, 134880, Note_on_c, 9, 59, 121
3, 135119, Note_on_c, 9, 59, 0
3, 135120, Note_on_c, 9, 59, 119
3, 135359, Note_on_c, 9, 59, 0
3, 135360, Note_on_c, 9, 59, 118
3, 135599, Note_on_c, 9, 59, 0
3, 135600, Note_on_c, 9, 59, 120
3, 135839, Note_on_c, 9, 59, 0
3, 135840, Note_on_c, 9, 59, 119
3, 136079, Note_on_c, 9, 59, 0
3, 136080, Note_on_c, 9, 59, 102
3, 136319, Note_on_c, 9, 59, 0
3, 136320, Note_on_c, 9, 59, 127
3, 136559, Note_on_c, 9, 59, 0
3, 136560, Note_on_c, 9, 59, 118
3, 136799, Note_on_c, 9, 59, 0
3, 136800, Note_on_c, 9, 59, 119
3, 137039, Note_on_c, 9, 59, 0
3, 137040, Note_on_c, 9, 59, 98
3, 137279, Note_on_c, 9, 59, 0
3, 137280, Note_on_c, 9, 59, 127
3, 137519, Note_on_c, 9, 59, 0
3, 137520, Note_on_c, 9, 59, 121
3, 137759, Note_on_c, 9, 59, 0
3, 137760, Note_on_c, 9, 59, 120
3, 137999, Note_on_c, 9, 59, 0
3, 138000, Note_on_c, 9, 59, 102
3, 138239, Note_on_c, 9, 59, 0
3, 138240, Note_on_c, 9, 59, 127
3, 138479, Note_on_c, 9, 59, 0
3, 138480, Note_on_c, 9, 59, 120
3, 138719, Note_on_c, 9, 59, 0
3, 138720, Note_on_c, 9, 59, 102
3, 138959, Note_on_c, 9, 59, 0
3, 138960, Note_on_c, 9, 59, 127
3, 139199, Note_on_c, 9, 59, 0
3, 139200, Note_on_c, 9, 59, 120
3, 139439, Note_on_c, 9, 59, 0
3, 139440, Note_on_c, 9, 59, 118
3, 139679, Note_on_c, 9, 59, 0
3, 139680, Note_on_c, 9, 59, 118
3, 139919, Note_on_c, 9, 59, 0
3, 139920, Note_on_c, 9, 59, 102
3, 140159, Note_on_c, 9, 59, 0
3, 140160, Note_on_c, 9, 59, 127
3, 140399, Note_on_c, 9, 59, 0
3, 140400, Note_on_c, 9, 59, 121
3, 140639, Note_on_c, 9, 59, 0
3, 140640, Note_on_c, 9, 59, 120
3, 140879, Note_on_c, 9, 59, 0
3, 140880, Note_on_c, 9, 59, 119
3, 141119, Note_on_c, 9, 59, 0
3, 141120, Note_on_c, 9, 59, 119
3, 141359, Note_on_c, 9, 59, 0
3, 141360, Note_on_c, 9, 59, 120
3, 141599, Note_on_c, 9, 59, 0
3, 141600, Note_on_c, 9, 59, 121
3, 141839, Note_on_c, 9, 59, 0
3, 141840, Note_on_c, 9, 59, 101
3, 142079, Note_on_c, 9, 59, 0
3, 142080, Note_on_c, 9, 59, 127
3, 142319, Note_on_c, 9, 59, 0
3, 142320, Note_on_c, 9, 59, 120
3, 142559, Note_on_c, 9, 59, 0
3, 142560, Note_on_c, 9, 59, 102
3, 142799, Note_on_c, 9, 59, 0
3, 142800, Note_on_c, 9, 59, 127
3, 143039, Note_on_c, 9, 59, 0
3, 143040, Note_on_c, 9, 59, 120
3, 143279, Note_on_c, 9, 59, 0
3, 143280, Note_on_c, 9, 59, 118
3, 143519, Note_on_c, 9, 59, 0
3, 143520, Note_on_c, 9, 59, 118
3, 143759, Note_on_c, 9, 59, 0
3, 143760, Note_on_c, 9, 59, 102
3, 143999, Note_on_c, 9, 59, 0
3, 144000, Note_on_c, 9, 59, 127
3, 144239, Note_on_c, 9, 59, 0
3, 144240, Note_on_c, 9, 59, 121
3, 144479, Note_on_c, 9, 59, 0
3, 144480, Note_on_c, 9, 59, 120
3, 144719, Note_on_c, 9, 59, 0
3, 144720, Note_on_c, 9, 59, 119
3, 144959, Note_on_c, 9, 59, 0
3, 144960, Note_on_c, 9, 59, 119
3, 145199, Note_on_c, 9, 59, 0
3, 145200, Note_on_c, 9, 59, 120
3, 145439, Note_on_c, 9, 59, 0
3, 145440, Note_on_c, 9, 59, 121
3, 145679, Note_on_c, 9, 59, 0
3, 145680, Note_on_c, 9, 59, 101
3, 145919, Note_on_c, 9, 59, 0
3, 145920, Note_on_c, 9, 59, 127
3, 146159, Note_on_c, 9, 59, 0
3, 146160, Note_on_c, 9, 59, 121
3, 146399, Note_on_c, 9, 59, 0
3, 146400, Note_on_c, 9, 59, 119
3, 146639, Note_on_c, 9, 59, 0
3, 146640, Note_on_c, 9, 59, 102
3, 146879, Note_on_c, 9, 59, 0
3, 146880, Note_on_c, 9, 59, 127
3, 147359, Note_on_c, 9, 59, 0
3, 147840, Note_on_c, 9, 59, 127
3, 148079, Note_on_c, 9, 59, 0
3, 148080, Note_on_c, 9, 59, 118
3, 148319, Note_on_c, 9, 59, 0
3, 148320, Note_on_c, 9, 59, 118
3, 148559, Note_on_c, 9, 59, 0
3, 148560, Note_on_c, 9, 59, 119
3, 148799, Note_on_c, 9, 59, 0
3, 148800, Note_on_c, 9, 59, 120
3, 149039, Note_on_c, 9, 59, 0
3, 149040, Note_on_c, 9, 59, 121
3, 149279, Note_on_c, 9, 59, 0
3, 149280, Note_on_c, 9, 59, 121
3, 149519, Note_on_c, 9, 59, 0
3, 149520, Note_on_c, 9, 59, 98
3, 149759, Note_on_c, 9, 59, 0
3, 149760, Note_on_c, 9, 59, 127
3, 149999, Note_on_c, 9, 59, 0
3, 150000, Note_on_c, 9, 59, 121
3, 150239, Note_on_c, 9, 59, 0
3, 150240, Note_on_c, 9, 59, 119
3, 150479, Note_on_c, 9, 59, 0
3, 150480, Note_on_c, 9, 59, 102
3, 150719, Note_on_c, 9, 59, 0
3, 150720, Note_on_c, 9, 59, 127
3, 150959, Note_on_c, 9, 59, 0
3, 150960, Note_on_c, 9, 59, 121
3, 151199, Note_on_c, 9, 59, 0
3, 151200, Note_on_c, 9, 59, 121
3, 151439, Note_on_c, 9, 59, 0
3, 151440, Note_on_c, 9, 59, 103
3, 151679, Note_on_c, 9, 59, 0
3, 151680, Note_on_c, 9, 59, 127
3, 151919, Note_on_c, 9, 59, 0
3, 151920, Note_on_c, 9, 59, 118
3, 152159, Note_on_c, 9, 59, 0
3, 152160, Note_on_c, 9, 59, 118
3, 152399, Note_on_c, 9, 59, 0
3, 152400, Note_on_c, 9, 59, 119
3, 152639, Note_on_c, 9, 59, 0
3, 152640, Note_on_c, 9, 59, 120
3, 152879, Note_on_c, 9, 59, 0
3, 152880, Note_on_c, 9, 59, 121
3, 153119, Note_on_c, 9, 59, 0
3, 153120, Note_on_c, 9, 59, 121
3, 153359, Note_on_c, 9, 59, 0
3, 153360, Note_on_c, 9, 59, 98
3, 153599, Note_on_c, 9, 59, 0
3, 153600, Note_on_c, 9, 59, 127
3, 153839, Note_on_c, 9, 59, 0
3, 153840, Note_on_c, 9, 59, 121
3, 154079, Note_on_c, 9, 59, 0
3, 154080, Note_on_c, 9, 59, 119
3, 154319, Note_on_c, 9, 59, 0
3, 154320, Note_on_c, 9, 59, 102
3, 154559, Note_on_c, 9, 59, 0
3, 154560, Note_on_c, 9, 59, 127
3, 154799, Note_on_c, 9, 59, 0
3, 154800, Note_on_c, 9, 59, 121
3, 155039, Note_on_c, 9, 59, 0
3, 155040, Note_on_c, 9, 59, 121
3, 155279, Note_on_c, 9, 59, 0
3, 155280, Note_on_c, 9, 59, 103
3, 155519, Note_on_c, 9, 59, 0
3, 155520, Note_on_c, 9, 59, 127
3, 155759, Note_on_c, 9, 59, 0
3, 155760, Note_on_c, 9, 59, 118
3, 155999, Note_on_c, 9, 59, 0
3, 156000, Note_on_c, 9, 59, 118
3, 156239, Note_on_c, 9, 59, 0
3, 156240, Note_on_c, 9, 59, 119
3, 156479, Note_on_c, 9, 59, 0
3, 156480, Note_on_c, 9, 59, 120
3, 156719, Note_on_c, 9, 59, 0
3, 156720, Note_on_c, 9, 59, 121
3, 156959, Note_on_c, 9, 59, 0
3, 156960, Note_on_c, 9, 59, 121
3, 157199, Note_on_c, 9, 59, 0
3, 157200, Note_on_c, 9, 59, 98
3, 157439, Note_on_c, 9, 59, 0
3, 157440, Note_on_c, 9, 59, 127
3, 157679, Note_on_c, 9, 59, 0
3, 157680, Note_on_c, 9, 59, 121
3, 157919, Note_on_c, 9, 59, 0
3, 157920, Note_on_c, 9, 59, 119
3, 158159, Note_on_c, 9, 59, 0
3, 158160, Note_on_c, 9, 59, 102
3, 158399, Note_on_c, 9, 59, 0
3, 158400, Note_on_c, 9, 59, 127
3, 158639, Note_on_c, 9, 59, 0
3, 158640, Note_on_c, 9, 59, 121
3, 158879, Note_on_c, 9, 59, 0
3, 158880, Note_on_c, 9, 59, 121
3, 159119, Note_on_c, 9, 59, 0
3, 159120, Note_on_c, 9, 59, 103
3, 159359, Note_on_c, 9, 59, 0
3, 159360, Note_on_c, 9, 59, 127
3, 159599, Note_on_c, 9, 59, 0
3, 159600, Note_on_c, 9, 59, 118
3, 159839, Note_on_c, 9, 59, 0
3, 159840, Note_on_c, 9, 59, 118
3, 160079, Note_on_c, 9, 59, 0
3, 160080, Note_on_c, 9, 59, 119
3, 160319, Note_on_c, 9, 59, 0
3, 160320, Note_on_c, 9, 59, 120
3, 160559, Note_on_c, 9, 59, 0
3, 160560, Note_on_c, 9, 59, 121
3, 160799, Note_on_c, 9, 59, 0
3, 160800, Note_on_c, 9, 59, 121
3, 161039, Note_on_c, 9, 59, 0
3, 161040, Note_on_c, 9, 59, 98
3, 161279, Note_on_c, 9, 59, 0
3, 161280, Note_on_c, 9, 59, 127
3, 161519, Note_on_c, 9, 59, 0
3, 161520, Note_on_c, 9, 59, 119
3, 161759, Note_on_c, 9, 59, 0
3, 161760, Note_on_c, 9, 59, 102
3, 161999, Note_on_c, 9, 59, 0
3, 162000, Note_on_c, 9, 59, 127
3, 162239, Note_on_c, 9, 59, 0
3, 163200, Note_on_c, 9, 59, 127
3, 163439, Note_on_c, 9, 59, 0
3, 163440, Note_on_c, 9, 59, 118
3, 163679, Note_on_c, 9, 59, 0
3, 163680, Note_on_c, 9, 59, 120
3, 163919, Note_on_c, 9, 59, 0
3, 163920, Note_on_c, 9, 59, 102
3, 164159, Note_on_c, 9, 59, 0
3, 164160, Note_on_c, 9, 59, 127
3, 164399, Note_on_c, 9, 59, 0
3, 164400, Note_on_c, 9, 59, 118
3, 164639, Note_on_c, 9, 59, 0
3, 164640, Note_on_c, 9, 59, 119
3, 164879, Note_on_c, 9, 59, 0
3, 164880, Note_on_c, 9, 59, 98
3, 165119, Note_on_c, 9, 59, 0
3, 165120, Note_on_c, 9, 59, 127
3, 165359, Note_on_c, 9, 59, 0
3, 165360, Note_on_c, 9, 59, 119
3, 165599, Note_on_c, 9, 59, 0
3, 165600, Note_on_c, 9, 59, 118
3, 165839, Note_on_c, 9, 59, 0
3, 165840, Note_on_c, 9, 59, 103
3, 166079, Note_on_c, 9, 59, 0
3, 166080, Note_on_c, 9, 59, 127
3, 166319, Note_on_c, 9, 59, 0
3, 166320, Note_on_c, 9, 59, 120
3, 166559, Note_on_c, 9, 59, 0
3, 166560, Note_on_c, 9, 59, 121
3, 166799, Note_on_c, 9, 59, 0
3, 166800, Note_on_c, 9, 59, 103
3, 167039, Note_on_c, 9, 59, 0
3, 167040, Note_on_c, 9, 59, 127
3, 167279, Note_on_c, 9, 59, 0
3, 167280, Note_on_c, 9, 59, 118
3, 167519, Note_on_c, 9, 59, 0
3, 167520, Note_on_c, 9, 59, 118
3, 167759, Note_on_c, 9, 59, 0
3, 167760, Note_on_c, 9, 59, 99
3, 167999, Note_on_c, 9, 59, 0
3, 168000, Note_on_c, 9, 59, 127
3, 168239, Note_on_c, 9, 59, 0
3, 168240, Note_on_c, 9, 59, 121
3, 168479, Note_on_c, 9, 59, 0
3, 168480, Note_on_c, 9, 59, 118
3, 168719, Note_on_c, 9, 59, 0
3, 168720, Note_on_c, 9, 59, 98
3, 168959, Note_on_c, 9, 59, 0
3, 168960, Note_on_c, 9, 59, 127
3, 169199, Note_on_c, 9, 59, 0
3, 169200, Note_on_c, 9, 59, 121
3, 169439, Note_on_c, 9, 59, 0
3, 169440, Note_on_c, 9, 59, 118
3, 169679, Note_on_c, 9, 59, 0
3, 169680, Note_on_c, 9, 59, 119
3, 169919, Note_on_c, 9, 59, 0
3, 169920, Note_on_c, 9, 59, 119
3, 170159, Note_on_c, 9, 59, 0
3, 170160, Note_on_c, 9, 59, 119
3, 170399, Note_on_c, 9, 59, 0
3, 170400, Note_on_c, 9, 59, 120
3, 170639, Note_on_c, 9, 59, 0
3, 170640, Note_on_c, 9, 59, 103
3, 170879, Note_on_c, 9, 59, 0
3, 170880, End_track
4, 0, Start_track
4, 0, Key_signature, 0, "major"
4, 0, Control_c, 9, 121, 0
4, 0, Program_c, 9, 0
4, 0, Control_c, 9, 7, 100
4, 0, Control_c, 9, 10, 64
4, 0, Control_c, 9, 91, 0
4, 0, Control_c, 9, 93, 0
4, 0, MIDI_port, 0
4, 28200, Note_on_c, 9, 50, 88
4, 28319, Note_on_c, 9, 50, 0
4, 43560, Note_on_c, 9, 50, 89
4, 43679, Note_on_c, 9, 50, 0
4, 51480, Note_on_c, 9, 50, 71
4, 51719, Note_on_c, 9, 50, 0
4, 51720, Note_on_c, 9, 50, 68
4, 51839, Note_on_c, 9, 50, 0
4, 68520, Note_on_c, 9, 50, 110
4, 68639, Note_on_c, 9, 50, 0
4, 106920, Note_on_c, 9, 50, 70
4, 107039, Note_on_c, 9, 50, 0
4, 124320, Note_on_c, 9, 50, 111
4, 124799, Note_on_c, 9, 50, 0
4, 147360, Note_on_c, 9, 50, 108
4, 147839, Note_on_c, 9, 50, 0
4, 162600, Note_on_c, 9, 50, 88
4, 162719, Note_on_c, 9, 50, 0
4, 162720, End_track
5, 0, Start_track
5, 0, Key_signature, 0, "major"
5, 0, Control_c, 9, 121, 0
5, 0, Program_c, 9, 0
5, 0, Control_c, 9, 7, 100
5, 0, Control_c, 9, 10, 64
5, 0, Control_c, 9, 91, 0
5, 0, Control_c, 9, 93, 0
5, 0, MIDI_port, 0
5, 28560, Note_on_c, 9, 47, 89
5, 28679, Note_on_c, 9, 47, 0
5, 28680, Note_on_c, 9, 47, 68
5, 28799, Note_on_c, 9, 47, 0
5, 43920, Note_on_c, 9, 47, 91
5, 44039, Note_on_c, 9, 47, 0
5, 44040, Note_on_c, 9, 47, 70
5, 44159, Note_on_c, 9, 47, 0
5, 68760, Note_on_c, 9, 47, 68
5, 69119, Note_on_c, 9, 47, 0
5, 107400, Note_on_c, 9, 47, 69
5, 107519, Note_on_c, 9, 47, 0
5, 107520, End_track
6, 0, Start_track
6, 0, Key_signature, 0, "major"
6, 0, Control_c, 9, 121, 0
6, 0, Program_c, 9, 0
6, 0, Control_c, 9, 7, 100
6, 0, Control_c, 9, 10, 64
6, 0, Control_c, 9, 91, 0
6, 0, Control_c, 9, 93, 0
6, 0, MIDI_port, 0
6, 29280, Note_on_c, 9, 46, 96
6, 29759, Note_on_c, 9, 46, 0
6, 33120, Note_on_c, 9, 46, 96
6, 33599, Note_on_c, 9, 46, 0
6, 54240, Note_on_c, 9, 46, 95
6, 54719, Note_on_c, 9, 46, 0
6, 151200, Note_on_c, 9, 46, 93
6, 151679, Note_on_c, 9, 46, 0
6, 151680, End_track
7, 0, Start_track
7, 0, Key_signature, 0, "major"
7, 0, Control_c, 9, 121, 0
7, 0, Program_c, 9, 0
7, 0, Control_c, 9, 7, 100
7, 0, Control_c, 9, 10, 64
7, 0, Control_c, 9, 91, 0
7, 0, Control_c, 9, 93, 0
7, 0, MIDI_port, 0
7, 3840, Note_on_c, 9, 35, 98
7, 4319, Note_on_c, 9, 35, 0
7, 4560, Note_on_c, 9, 35, 91
7, 4799, Note_on_c, 9, 35, 0
7, 4800, Note_on_c, 9, 35, 101
7, 5039, Note_on_c, 9, 35, 0
7, 5040, Note_on_c, 9, 35, 88
7, 5279, Note_on_c, 9, 35, 0
7, 5760, Note_on_c, 9, 35, 99
7, 6239, Note_on_c, 9, 35, 0
7, 6480, Note_on_c, 9, 35, 89
7, 6719, Note_on_c, 9, 35, 0
7, 6720, Note_on_c, 9, 35, 98
7, 6959, Note_on_c, 9, 35, 0
7, 6960, Note_on_c, 9, 35, 91
7, 7199, Note_on_c, 9, 35, 0
7, 7680, Note_on_c, 9, 35, 100
7, 8159, Note_on_c, 9, 35, 0
7, 8400, Note_on_c, 9, 35, 89
7, 8639, Note_on_c, 9, 35, 0
7, 8640, Note_on_c, 9, 35, 99
7, 8879, Note_on_c, 9, 35, 0
7, 8880, Note_on_c, 9, 35, 88
7, 9119, Note_on_c, 9, 35, 0
7, 9600, Note_on_c, 9, 35, 100
7, 10079, Note_on_c, 9, 35, 0
7, 10320, Note_on_c, 9, 35, 89
7, 10559, Note_on_c, 9, 35, 0
7, 10560, Note_on_c, 9, 35, 99
7, 10799, Note_on_c, 9, 35, 0
7, 10800, Note_on_c, 9, 35, 88
7, 11039, Note_on_c, 9, 35, 0
7, 11520, Note_on_c, 9, 35, 100
7, 11999, Note_on_c, 9, 35, 0
7, 12240, Note_on_c, 9, 35, 89
7, 12479, Note_on_c, 9, 35, 0
7, 12480, Note_on_c, 9, 35, 101
7, 12719, Note_on_c, 9, 35, 0
7, 12720, Note_on_c, 9, 35, 91
7, 12959, Note_on_c, 9, 35, 0
7, 13440, Note_on_c, 9, 35, 98
7, 13919, Note_on_c, 9, 35, 0
7, 14160, Note_on_c, 9, 35, 89
7, 14399, Note_on_c, 9, 35, 0
7, 14400, Note_on_c, 9, 35, 101
7, 14639, Note_on_c, 9, 35, 0
7, 14640, Note_on_c, 9, 35, 89
7, 14879, Note_on_c, 9, 35, 0
7, 15360, Note_on_c, 9, 35, 100
7, 15839, Note_on_c, 9, 35, 0
7, 16080, Note_on_c, 9, 35, 91
7, 16319, Note_on_c, 9, 35, 0
7, 16320, Note_on_c, 9, 35, 101
7, 16559, Note_on_c, 9, 35, 0
7, 16560, Note_on_c, 9, 35, 90
7, 16799, Note_on_c, 9, 35, 0
7, 17280, Note_on_c, 9, 35, 100
7, 17759, Note_on_c, 9, 35, 0
7, 18000, Note_on_c, 9, 35, 91
7, 18239, Note_on_c, 9, 35, 0
7, 18240, Note_on_c, 9, 35, 99
7, 18479, Note_on_c, 9, 35, 0
7, 18480, Note_on_c, 9, 35, 90
7, 18719, Note_on_c, 9, 35, 0
7, 19200, Note_on_c, 9, 35, 99
7, 19679, Note_on_c, 9, 35, 0
7, 19920, Note_on_c, 9, 35, 89
7, 20159, Note_on_c, 9, 35, 0
7, 20160, Note_on_c, 9, 35, 98
7, 20399, Note_on_c, 9, 35, 0
7, 20400, Note_on_c, 9, 35, 88
7, 20639, Note_on_c, 9, 35, 0
7, 21120, Note_on_c, 9, 35, 100
7, 21599, Note_on_c, 9, 35, 0
7, 21840, Note_on_c, 9, 35, 91
7, 22079, Note_on_c, 9, 35, 0
7, 22080, Note_on_c, 9, 35, 99
7, 22319, Note_on_c, 9, 35, 0
7, 22320, Note_on_c, 9, 35, 91
7, 22559, Note_on_c, 9, 35, 0
7, 23040, Note_on_c, 9, 35, 98
7, 23519, Note_on_c, 9, 35, 0
7, 23760, Note_on_c, 9, 35, 88
7, 23999, Note_on_c, 9, 35, 0
7, 24000, Note_on_c, 9, 35, 99
7, 24239, Note_on_c, 9, 35, 0
7, 24240, Note_on_c, 9, 35, 90
7, 24479, Note_on_c, 9, 35, 0
7, 24960, Note_on_c, 9, 35, 99
7, 25439, Note_on_c, 9, 35, 0
7, 25680, Note_on_c, 9, 35, 90
7, 25919, Note_on_c, 9, 35, 0
7, 25920, Note_on_c, 9, 35, 99
7, 26159, Note_on_c, 9, 35, 0
7, 26160, Note_on_c, 9, 35, 90
7, 26399, Note_on_c, 9, 35, 0
7, 26880, Note_on_c, 9, 35, 101
7, 27359, Note_on_c, 9, 35, 0
7, 27600, Note_on_c, 9, 35, 90
7, 27839, Note_on_c, 9, 35, 0
7, 27840, Note_on_c, 9, 35, 109
7, 28319, Note_on_c, 9, 35, 0
7, 28800, Note_on_c, 9, 35, 100
7, 29279, Note_on_c, 9, 35, 0
7, 29520, Note_on_c, 9, 35, 89
7, 29759, Note_on_c, 9, 35, 0
7, 29760, Note_on_c, 9, 35, 99
7, 29999, Note_on_c, 9, 35, 0
7, 30000, Note_on_c, 9, 35, 88
7, 30239, Note_on_c, 9, 35, 0
7, 30720, Note_on_c, 9, 35, 101
7, 31199, Note_on_c, 9, 35, 0
7, 31440, Note_on_c, 9, 35, 89
7, 31679, Note_on_c, 9, 35, 0
7, 31680, Note_on_c, 9, 35, 100
7, 31919, Note_on_c, 9, 35, 0
7, 31920, Note_on_c, 9, 35, 91
7, 32159, Note_on_c, 9, 35, 0
7, 32640, Note_on_c, 9, 35, 101
7, 33119, Note_on_c, 9, 35, 0
7, 33360, Note_on_c, 9, 35, 91
7, 33599, Note_on_c, 9, 35, 0
7, 33600, Note_on_c, 9, 35, 100
7, 33839, Note_on_c, 9, 35, 0
7, 33840, Note_on_c, 9, 35, 88
7, 34079, Note_on_c, 9, 35, 0
7, 34560, Note_on_c, 9, 35, 101
7, 35039, Note_on_c, 9, 35, 0
7, 35280, Note_on_c, 9, 35, 91
7, 35519, Note_on_c, 9, 35, 0
7, 35520, Note_on_c, 9, 35, 110
7, 35999, Note_on_c, 9, 35, 0
7, 36480, Note_on_c, 9, 35, 98
7, 36959, Note_on_c, 9, 35, 0
7, 37200, Note_on_c, 9, 35, 89
7, 37439, Note_on_c, 9, 35, 0
7, 37440, Note_on_c, 9, 35, 99
7, 37679, Note_on_c, 9, 35, 0
7, 37680, Note_on_c, 9, 35, 89
7, 37919, Note_on_c, 9, 35, 0
7, 38400, Note_on_c, 9, 35, 99
7, 38879, Note_on_c, 9, 35, 0
7, 39120, Note_on_c, 9, 35, 91
7, 39359, Note_on_c, 9, 35, 0
7, 39360, Note_on_c, 9, 35, 98
7, 39599, Note_on_c, 9, 35, 0
7, 39600, Note_on_c, 9, 35, 91
7, 39839, Note_on_c, 9, 35, 0
7, 40320, Note_on_c, 9, 35, 98
7, 40799, Note_on_c, 9, 35, 0
7, 41040, Note_on_c, 9, 35, 88
7, 41279, Note_on_c, 9, 35, 0
7, 41280, Note_on_c, 9, 35, 100
7, 41519, Note_on_c, 9, 35, 0
7, 41520, Note_on_c, 9, 35, 90
7, 41759, Note_on_c, 9, 35, 0
7, 42240, Note_on_c, 9, 35, 98
7, 42719, Note_on_c, 9, 35, 0
7, 42960, Note_on_c, 9, 35, 89
7, 43199, Note_on_c, 9, 35, 0
7, 43200, Note_on_c, 9, 35, 110
7, 43679, Note_on_c, 9, 35, 0
7, 44160, Note_on_c, 9, 35, 100
7, 44639, Note_on_c, 9, 35, 0
7, 44880, Note_on_c, 9, 35, 90
7, 45119, Note_on_c, 9, 35, 0
7, 45120, Note_on_c, 9, 35, 99
7, 45359, Note_on_c, 9, 35, 0
7, 45360, Note_on_c, 9, 35, 88
7, 45599, Note_on_c, 9, 35, 0
7, 46080, Note_on_c, 9, 35, 98
7, 46559, Note_on_c, 9, 35, 0
7, 46800, Note_on_c, 9, 35, 90
7, 47039, Note_on_c, 9, 35, 0
7, 47040, Note_on_c, 9, 35, 99
7, 47279, Note_on_c, 9, 35, 0
7, 47280, Note_on_c, 9, 35, 90
7, 47519, Note_on_c, 9, 35, 0
7, 48000, Note_on_c, 9, 35, 98
7, 48479, Note_on_c, 9, 35, 0
7, 48720, Note_on_c, 9, 35, 90
7, 48959, Note_on_c, 9, 35, 0
7, 48960, Note_on_c, 9, 35, 98
7, 49199, Note_on_c, 9, 35, 0
7, 49200, Note_on_c, 9, 35, 90
7, 49439, Note_on_c, 9, 35, 0
7, 49920, Note_on_c, 9, 35, 100
7, 50399, Note_on_c, 9, 35, 0
7, 50640, Note_on_c, 9, 35, 90
7, 50879, Note_on_c, 9, 35, 0
7, 50880, Note_on_c, 9, 35, 100
7, 51119, Note_on_c, 9, 35, 0
7, 51120, Note_on_c, 9, 35, 91
7, 51359, Note_on_c, 9, 35, 0
7, 51840, Note_on_c, 9, 35, 99
7, 52319, Note_on_c, 9, 35, 0
7, 52560, Note_on_c, 9, 35, 91
7, 52799, Note_on_c, 9, 35, 0
7, 52800, Note_on_c, 9, 35, 98
7, 53039, Note_on_c, 9, 35, 0
7, 53040, Note_on_c, 9, 35, 90
7, 53279, Note_on_c, 9, 35, 0
7, 53760, Note_on_c, 9, 35, 98
7, 54239, Note_on_c, 9, 35, 0
7, 54480, Note_on_c, 9, 35, 90
7, 54719, Note_on_c, 9, 35, 0
7, 54720, Note_on_c, 9, 35, 100
7, 54959, Note_on_c, 9, 35, 0
7, 54960, Note_on_c, 9, 35, 89
7, 55199, Note_on_c, 9, 35, 0
7, 55680, Note_on_c, 9, 35, 98
7, 56159, Note_on_c, 9, 35, 0
7, 56400, Note_on_c, 9, 35, 89
7, 56639, Note_on_c, 9, 35, 0
7, 56640, Note_on_c, 9, 35, 98
7, 56879, Note_on_c, 9, 35, 0
7, 56880, Note_on_c, 9, 35, 91
7, 57119, Note_on_c, 9, 35, 0
7, 57600, Note_on_c, 9, 35, 100
7, 58079, Note_on_c, 9, 35, 0
7, 58320, Note_on_c, 9, 35, 89
7, 58559, Note_on_c, 9, 35, 0
7, 58560, Note_on_c, 9, 35, 98
7, 58799, Note_on_c, 9, 35, 0
7, 58800, Note_on_c, 9, 35, 90
7, 59039, Note_on_c, 9, 35, 0
7, 59520, Note_on_c, 9, 35, 99
7, 59999, Note_on_c, 9, 35, 0
7, 60240, Note_on_c, 9, 35, 89
7, 60479, Note_on_c, 9, 35, 0
7, 60480, Note_on_c, 9, 35, 98
7, 60719, Note_on_c, 9, 35, 0
7, 60720, Note_on_c, 9, 35, 91
7, 60959, Note_on_c, 9, 35, 0
7, 61440, Note_on_c, 9, 35, 98
7, 61919, Note_on_c, 9, 35, 0
7, 62160, Note_on_c, 9, 35, 89
7, 62399, Note_on_c, 9, 35, 0
7, 62400, Note_on_c, 9, 35, 101
7, 62639, Note_on_c, 9, 35, 0
7, 62640, Note_on_c, 9, 35, 90
7, 62879, Note_on_c, 9, 35, 0
7, 63360, Note_on_c, 9, 35, 101
7, 63839, Note_on_c, 9, 35, 0
7, 64080, Note_on_c, 9, 35, 89
7, 64319, Note_on_c, 9, 35, 0
7, 64320, Note_on_c, 9, 35, 99
7, 64559, Note_on_c, 9, 35, 0
7, 64560, Note_on_c, 9, 35, 91
7, 64799, Note_on_c, 9, 35, 0
7, 65280, Note_on_c, 9, 35, 101
7, 65759, Note_on_c, 9, 35, 0
7, 66000, Note_on_c, 9, 35, 89
7, 66239, Note_on_c, 9, 35, 0
7, 66240, Note_on_c, 9, 35, 99
7, 66479, Note_on_c, 9, 35, 0
7, 66480, Note_on_c, 9, 35, 88
7, 66719, Note_on_c, 9, 35, 0
7, 67200, Note_on_c, 9, 35, 98
7, 67679, Note_on_c, 9, 35, 0
7, 67920, Note_on_c, 9, 35, 90
7, 68159, Note_on_c, 9, 35, 0
7, 68160, Note_on_c, 9, 35, 99
7, 68399, Note_on_c, 9, 35, 0
7, 68400, Note_on_c, 9, 35, 88
7, 68639, Note_on_c, 9, 35, 0
7, 69120, Note_on_c, 9, 35, 99
7, 69599, Note_on_c, 9, 35, 0
7, 69840, Note_on_c, 9, 35, 89
7, 70079, Note_on_c, 9, 35, 0
7, 70080, Note_on_c, 9, 35, 98
7, 70319, Note_on_c, 9, 35, 0
7, 70320, Note_on_c, 9, 35, 90
7, 70559, Note_on_c, 9, 35, 0
7, 71040, Note_on_c, 9, 35, 98
7, 71519, Note_on_c, 9, 35, 0
7, 71760, Note_on_c, 9, 35, 88
7, 71999, Note_on_c, 9, 35, 0
7, 72000, Note_on_c, 9, 35, 98
7, 72239, Note_on_c, 9, 35, 0
7, 72240, Note_on_c, 9, 35, 90
7, 72479, Note_on_c, 9, 35, 0
7, 72960, Note_on_c, 9, 35, 98
7, 73439, Note_on_c, 9, 35, 0
7, 73680, Note_on_c, 9, 35, 90
7, 73919, Note_on_c, 9, 35, 0
7, 73920, Note_on_c, 9, 35, 100
7, 74159, Note_on_c, 9, 35, 0
7, 74160, Note_on_c, 9, 35, 89
7, 74399, Note_on_c, 9, 35, 0
7, 74880, Note_on_c, 9, 35, 98
7, 75359, Note_on_c, 9, 35, 0
7, 75600, Note_on_c, 9, 35, 91
7, 75839, Note_on_c, 9, 35, 0
7, 75840, Note_on_c, 9, 35, 98
7, 76079, Note_on_c, 9, 35, 0
7, 76080, Note_on_c, 9, 35, 89
7, 76319, Note_on_c, 9, 35, 0
7, 76800, Note_on_c, 9, 35, 99
7, 77279, Note_on_c, 9, 35, 0
7, 77520, Note_on_c, 9, 35, 90
7, 77759, Note_on_c, 9, 35, 0
7, 77760, Note_on_c, 9, 35, 99
7, 77999, Note_on_c, 9, 35, 0
7, 78000, Note_on_c, 9, 35, 90
7, 78239, Note_on_c, 9, 35, 0
7, 78720, Note_on_c, 9, 35, 99
7, 79199, Note_on_c, 9, 35, 0
7, 79440, Note_on_c, 9, 35, 88
7, 79679, Note_on_c, 9, 35, 0
7, 79680, Note_on_c, 9, 35, 100
7, 79919, Note_on_c, 9, 35, 0
7, 79920, Note_on_c, 9, 35, 88
7, 80159, Note_on_c, 9, 35, 0
7, 80640, Note_on_c, 9, 35, 100
7, 81119, Note_on_c, 9, 35, 0
7, 81360, Note_on_c, 9, 35, 89
7, 81599, Note_on_c, 9, 35, 0
7, 81600, Note_on_c, 9, 35, 99
7, 81839, Note_on_c, 9, 35, 0
7, 81840, Note_on_c, 9, 35, 89
7, 82079, Note_on_c, 9, 35, 0
7, 82560, Note_on_c, 9, 35, 98
7, 83039, Note_on_c, 9, 35, 0
7, 83280, Note_on_c, 9, 35, 91
7, 83519, Note_on_c, 9, 35, 0
7, 83520, Note_on_c, 9, 35, 100
7, 83759, Note_on_c, 9, 35, 0
7, 83760, Note_on_c, 9, 35, 89
7, 83999, Note_on_c, 9, 35, 0
7, 84480, Note_on_c, 9, 35, 98
7, 84959, Note_on_c, 9, 35, 0
7, 85200, Note_on_c, 9, 35, 90
7, 85439, Note_on_c, 9, 35, 0
7, 85440, Note_on_c, 9, 35, 101
7, 85679, Note_on_c, 9, 35, 0
7, 85680, Note_on_c, 9, 35, 88
7, 85919, Note_on_c, 9, 35, 0
7, 86400, Note_on_c, 9, 35, 101
7, 86879, Note_on_c, 9, 35, 0
7, 87120, Note_on_c, 9, 35, 89
7, 87359, Note_on_c, 9, 35, 0
7, 87360, Note_on_c, 9, 35, 98
7, 87599, Note_on_c, 9, 35, 0
7, 87600, Note_on_c, 9, 35, 91
7, 87839, Note_on_c, 9, 35, 0
7, 88320, Note_on_c, 9, 35, 100
7, 88799, Note_on_c, 9, 35, 0
7, 89040, Note_on_c, 9, 35, 91
7, 89279, Note_on_c, 9, 35, 0
7, 89280, Note_on_c, 9, 35, 100
7, 89519, Note_on_c, 9, 35, 0
7, 89520, Note_on_c, 9, 35, 90
7, 89759, Note_on_c, 9, 35, 0
7, 90240, Note_on_c, 9, 35, 101
7, 90719, Note_on_c, 9, 35, 0
7, 90960, Note_on_c, 9, 35, 91
7, 91199, Note_on_c, 9, 35, 0
7, 91200, Note_on_c, 9, 35, 101
7, 91439, Note_on_c, 9, 35, 0
7, 91440, Note_on_c, 9, 35, 90
7, 91679, Note_on_c, 9, 35, 0
7, 92160, Note_on_c, 9, 35, 98
7, 92639, Note_on_c, 9, 35, 0
7, 92880, Note_on_c, 9, 35, 91
7, 93119, Note_on_c, 9, 35, 0
7, 93120, Note_on_c, 9, 35, 100
7, 93359, Note_on_c, 9, 35, 0
7, 93360, Note_on_c, 9, 35, 89
7, 93599, Note_on_c, 9, 35, 0
7, 94080, Note_on_c, 9, 35, 98
7, 94559, Note_on_c, 9, 35, 0
7, 94800, Note_on_c, 9, 35, 89
7, 95039, Note_on_c, 9, 35, 0
7, 95040, Note_on_c, 9, 35, 98
7, 95279, Note_on_c, 9, 35, 0
7, 95280, Note_on_c, 9, 35, 88
7, 95519, Note_on_c, 9, 35, 0
7, 96000, Note_on_c, 9, 35, 99
7, 96479, Note_on_c, 9, 35, 0
7, 96720, Note_on_c, 9, 35, 91
7, 96959, Note_on_c, 9, 35, 0
7, 96960, Note_on_c, 9, 35, 99
7, 97199, Note_on_c, 9, 35, 0
7, 97200, Note_on_c, 9, 35, 88
7, 97439, Note_on_c, 9, 35, 0
7, 97920, Note_on_c, 9, 35, 101
7, 98399, Note_on_c, 9, 35, 0
7, 98640, Note_on_c, 9, 35, 91
7, 98879, Note_on_c, 9, 35, 0
7, 98880, Note_on_c, 9, 35, 98
7, 99119, Note_on_c, 9, 35, 0
7, 99120, Note_on_c, 9, 35, 89
7, 99359, Note_on_c, 9, 35, 0
7, 99840, Note_on_c, 9, 35, 99
7, 100319, Note_on_c, 9, 35, 0
7, 100560, Note_on_c, 9, 35, 90
7, 100799, Note_on_c, 9, 35, 0
7, 100800, Note_on_c, 9, 35, 99
7, 101039, Note_on_c, 9, 35, 0
7, 101040, Note_on_c, 9, 35, 90
7, 101279, Note_on_c, 9, 35, 0
7, 101760, Note_on_c, 9, 35, 101
7, 102239, Note_on_c, 9, 35, 0
7, 102480, Note_on_c, 9, 35, 88
7, 102719, Note_on_c, 9, 35, 0
7, 102720, Note_on_c, 9, 35, 98
7, 102959, Note_on_c, 9, 35, 0
7, 102960, Note_on_c, 9, 35, 88
7, 103199, Note_on_c, 9, 35, 0
7, 103680, Note_on_c, 9, 35, 98
7, 104159, Note_on_c, 9, 35, 0
7, 104400, Note_on_c, 9, 35, 88
7, 104639, Note_on_c, 9, 35, 0
7, 104640, Note_on_c, 9, 35, 101
7, 104879, Note_on_c, 9, 35, 0
7, 104880, Note_on_c, 9, 35, 89
7, 105119, Note_on_c, 9, 35, 0
7, 105600, Note_on_c, 9, 35, 98
7, 106079, Note_on_c, 9, 35, 0
7, 106320, Note_on_c, 9, 35, 88
7, 106559, Note_on_c, 9, 35, 0
7, 106800, Note_on_c, 9, 35, 91
7, 107039, Note_on_c, 9, 35, 0
7, 107280, Note_on_c, 9, 35, 88
7, 107519, Note_on_c, 9, 35, 0
7, 107520, Note_on_c, 9, 35, 98
7, 107999, Note_on_c, 9, 35, 0
7, 108240, Note_on_c, 9, 35, 89
7, 108479, Note_on_c, 9, 35, 0
7, 108480, Note_on_c, 9, 35, 100
7, 108719, Note_on_c, 9, 35, 0
7, 108720, Note_on_c, 9, 35, 90
7, 108959, Note_on_c, 9, 35, 0
7, 109440, Note_on_c, 9, 35, 98
7, 109919, Note_on_c, 9, 35, 0
7, 110160, Note_on_c, 9, 35, 88
7, 110399, Note_on_c, 9, 35, 0
7, 110400, Note_on_c, 9, 35, 101
7, 110639, Note_on_c, 9, 35, 0
7, 110640, Note_on_c, 9, 35, 88
7, 110879, Note_on_c, 9, 35, 0
7, 111360, Note_on_c, 9, 35, 99
7, 111839, Note_on_c, 9, 35, 0
7, 112080, Note_on_c, 9, 35, 89
7, 112319, Note_on_c, 9, 35, 0
7, 112320, Note_on_c, 9, 35, 101
7, 112559, Note_on_c, 9, 35, 0
7, 112560, Note_on_c, 9, 35, 90
7, 112799, Note_on_c, 9, 35, 0
7, 113280, Note_on_c, 9, 35, 99
7, 113759, Note_on_c, 9, 35, 0
7, 114000, Note_on_c, 9, 35, 90
7, 114239, Note_on_c, 9, 35, 0
7, 114240, Note_on_c, 9, 35, 99
7, 114479, Note_on_c, 9, 35, 0
7, 114480, Note_on_c, 9, 35, 88
7, 114719, Note_on_c, 9, 35, 0
7, 115200, Note_on_c, 9, 35, 98
7, 115679, Note_on_c, 9, 35, 0
7, 115920, Note_on_c, 9, 35, 89
7, 116159, Note_on_c, 9, 35, 0
7, 116160, Note_on_c, 9, 35, 101
7, 116399, Note_on_c, 9, 35, 0
7, 116400, Note_on_c, 9, 35, 88
7, 116639, Note_on_c, 9, 35, 0
7, 117120, Note_on_c, 9, 35, 101
7, 117599, Note_on_c, 9, 35, 0
7, 117840, Note_on_c, 9, 35, 90
7, 118079, Note_on_c, 9, 35, 0
7, 118080, Note_on_c, 9, 35, 100
7, 118319, Note_on_c, 9, 35, 0
7, 118320, Note_on_c, 9, 35, 88
7, 118559, Note_on_c, 9, 35, 0
7, 119040, Note_on_c, 9, 35, 99
7, 119519, Note_on_c, 9, 35, 0
7, 119760, Note_on_c, 9, 35, 89
7, 119999, Note_on_c, 9, 35, 0
7, 120000, Note_on_c, 9, 35, 101
7, 120239, Note_on_c, 9, 35, 0
7, 120240, Note_on_c, 9, 35, 91
7, 120479, Note_on_c, 9, 35, 0
7, 120960, Note_on_c, 9, 35, 101
7, 121439, Note_on_c, 9, 35, 0
7, 121680, Note_on_c, 9, 35, 89
7, 121919, Note_on_c, 9, 35, 0
7, 121920, Note_on_c, 9, 35, 98
7, 122159, Note_on_c, 9, 35, 0
7, 122160, Note_on_c, 9, 35, 91
7, 122399, Note_on_c, 9, 35, 0
7, 122880, Note_on_c, 9, 35, 100
7, 123359, Note_on_c, 9, 35, 0
7, 123600, Note_on_c, 9, 35, 89
7, 123839, Note_on_c, 9, 35, 0
7, 123840, Note_on_c, 9, 35, 100
7, 124079, Note_on_c, 9, 35, 0
7, 124080, Note_on_c, 9, 35, 89
7, 124319, Note_on_c, 9, 35, 0
7, 124800, Note_on_c, 9, 35, 100
7, 125279, Note_on_c, 9, 35, 0
7, 125520, Note_on_c, 9, 35, 90
7, 125759, Note_on_c, 9, 35, 0
7, 125760, Note_on_c, 9, 35, 100
7, 125999, Note_on_c, 9, 35, 0
7, 126000, Note_on_c, 9, 35, 88
7, 126239, Note_on_c, 9, 35, 0
7, 126720, Note_on_c, 9, 35, 98
7, 127199, Note_on_c, 9, 35, 0
7, 127440, Note_on_c, 9, 35, 90
7, 127679, Note_on_c, 9, 35, 0
7, 127680, Note_on_c, 9, 35, 99
7, 127919, Note_on_c, 9, 35, 0
7, 127920, Note_on_c, 9, 35, 88
7, 128159, Note_on_c, 9, 35, 0
7, 128640, Note_on_c, 9, 35, 98
7, 129119, Note_on_c, 9, 35, 0
7, 129360, Note_on_c, 9, 35, 88
7, 129599, Note_on_c, 9, 35, 0
7, 129600, Note_on_c, 9, 35, 101
7, 129839, Note_on_c, 9, 35, 0
7, 129840, Note_on_c, 9, 35, 90
7, 130079, Note_on_c, 9, 35, 0
7, 130560, Note_on_c, 9, 35, 99
7, 131039, Note_on_c, 9, 35, 0
7, 131280, Note_on_c, 9, 35, 90
7, 131519, Note_on_c, 9, 35, 0
7, 131520, Note_on_c, 9, 35, 98
7, 131759, Note_on_c, 9, 35, 0
7, 131760, Note_on_c, 9, 35, 88
7, 131999, Note_on_c, 9, 35, 0
7, 132480, Note_on_c, 9, 35, 101
7, 132959, Note_on_c, 9, 35, 0
7, 133200, Note_on_c, 9, 35, 89
7, 133439, Note_on_c, 9, 35, 0
7, 133440, Note_on_c, 9, 35, 101
7, 133679, Note_on_c, 9, 35, 0
7, 133680, Note_on_c, 9, 35, 88
7, 133919, Note_on_c, 9, 35, 0
7, 134400, Note_on_c, 9, 35, 100
7, 134879, Note_on_c, 9, 35, 0
7, 135120, Note_on_c, 9, 35, 88
7, 135359, Note_on_c, 9, 35, 0
7, 135360, Note_on_c, 9, 35, 100
7, 135599, Note_on_c, 9, 35, 0
7, 135600, Note_on_c, 9, 35, 91
7, 135839, Note_on_c, 9, 35, 0
7, 136320, Note_on_c, 9, 35, 99
7, 136799, Note_on_c, 9, 35, 0
7, 137040, Note_on_c, 9, 35, 91
7, 137279, Note_on_c, 9, 35, 0
7, 137280, Note_on_c, 9, 35, 98
7, 137519, Note_on_c, 9, 35, 0
7, 137520, Note_on_c, 9, 35, 89
7, 137759, Note_on_c, 9, 35, 0
7, 138240, Note_on_c, 9, 35, 98
7, 138719, Note_on_c, 9, 35, 0
7, 138960, Note_on_c, 9, 35, 89
7, 139199, Note_on_c, 9, 35, 0
7, 139200, Note_on_c, 9, 35, 101
7, 139439, Note_on_c, 9, 35, 0
7, 139440, Note_on_c, 9, 35, 91
7, 139679, Note_on_c, 9, 35, 0
7, 140160, Note_on_c, 9, 35, 99
7, 140639, Note_on_c, 9, 35, 0
7, 140880, Note_on_c, 9, 35, 88
7, 141119, Note_on_c, 9, 35, 0
7, 141120, Note_on_c, 9, 35, 100
7, 141359, Note_on_c, 9, 35, 0
7, 141360, Note_on_c, 9, 35, 90
7, 141599, Note_on_c, 9, 35, 0
7, 142080, Note_on_c, 9, 35, 99
7, 142559, Note_on_c, 9, 35, 0
7, 142800, Note_on_c, 9, 35, 91
7, 143039, Note_on_c, 9, 35, 0
7, 143040, Note_on_c, 9, 35, 98
7, 143279, Note_on_c, 9, 35, 0
7, 143280, Note_on_c, 9, 35, 90
7, 143519, Note_on_c, 9, 35, 0
7, 144000, Note_on_c, 9, 35, 100
7, 144479, Note_on_c, 9, 35, 0
7, 144720, Note_on_c, 9, 35, 89
7, 144959, Note_on_c, 9, 35, 0
7, 144960, Note_on_c, 9, 35, 98
7, 145199, Note_on_c, 9, 35, 0
7, 145200, Note_on_c, 9, 35, 89
7, 145439, Note_on_c, 9, 35, 0
7, 145920, Note_on_c, 9, 35, 99
7, 146399, Note_on_c, 9, 35, 0
7, 146640, Note_on_c, 9, 35, 90
7, 146879, Note_on_c, 9, 35, 0
7, 146880, Note_on_c, 9, 35, 99
7, 147119, Note_on_c, 9, 35, 0
7, 147120, Note_on_c, 9, 35, 89
7, 147359, Note_on_c, 9, 35, 0
7, 147840, Note_on_c, 9, 35, 101
7, 148319, Note_on_c, 9, 35, 0
7, 148560, Note_on_c, 9, 35, 88
7, 148799, Note_on_c, 9, 35, 0
7, 148800, Note_on_c, 9, 35, 99
7, 149039, Note_on_c, 9, 35, 0
7, 149040, Note_on_c, 9, 35, 91
7, 149279, Note_on_c, 9, 35, 0
7, 149760, Note_on_c, 9, 35, 100
7, 150239, Note_on_c, 9, 35, 0
7, 150480, Note_on_c, 9, 35, 90
7, 150719, Note_on_c, 9, 35, 0
7, 150720, Note_on_c, 9, 35, 101
7, 150959, Note_on_c, 9, 35, 0
7, 150960, Note_on_c, 9, 35, 91
7, 151199, Note_on_c, 9, 35, 0
7, 151680, Note_on_c, 9, 35, 101
7, 152159, Note_on_c, 9, 35, 0
7, 152400, Note_on_c, 9, 35, 91
7, 152639, Note_on_c, 9, 35, 0
7, 152640, Note_on_c, 9, 35, 99
7, 152879, Note_on_c, 9, 35, 0
7, 152880, Note_on_c, 9, 35, 88
7, 153119, Note_on_c, 9, 35, 0
7, 153600, Note_on_c, 9, 35, 99
7, 154079, Note_on_c, 9, 35, 0
7, 154320, Note_on_c, 9, 35, 88
7, 154559, Note_on_c, 9, 35, 0
7, 154560, Note_on_c, 9, 35, 99
7, 154799, Note_on_c, 9, 35, 0
7, 154800, Note_on_c, 9, 35, 88
7, 155039, Note_on_c, 9, 35, 0
7, 155520, Note_on_c, 9, 35, 98
7, 155999, Note_on_c, 9, 35, 0
7, 156240, Note_on_c, 9, 35, 89
7, 156479, Note_on_c, 9, 35, 0
7, 156480, Note_on_c, 9, 35, 100
7, 156719, Note_on_c, 9, 35, 0
7, 156720, Note_on_c, 9, 35, 91
7, 156959, Note_on_c, 9, 35, 0
7, 157440, Note_on_c, 9, 35, 101
7, 157919, Note_on_c, 9, 35, 0
7, 158160, Note_on_c, 9, 35, 90
7, 158399, Note_on_c, 9, 35, 0
7, 158400, Note_on_c, 9, 35, 100
7, 158639, Note_on_c, 9, 35, 0
7, 158640, Note_on_c, 9, 35, 88
7, 158879, Note_on_c, 9, 35, 0
7, 159360, Note_on_c, 9, 35, 99
7, 159839, Note_on_c, 9, 35, 0
7, 160080, Note_on_c, 9, 35, 89
7, 160319, Note_on_c, 9, 35, 0
7, 160320, Note_on_c, 9, 35, 99
7, 160559, Note_on_c, 9, 35, 0
7, 160560, Note_on_c, 9, 35, 89
7, 160799, Note_on_c, 9, 35, 0
7, 161280, Note_on_c, 9, 35, 100
7, 161759, Note_on_c, 9, 35, 0
7, 162000, Note_on_c, 9, 35, 88
7, 162239, Note_on_c, 9, 35, 0
7, 162240, Note_on_c, 9, 35, 110
7, 162719, Note_on_c, 9, 35, 0
7, 163200, Note_on_c, 9, 35, 101
7, 163679, Note_on_c, 9, 35, 0
7, 163920, Note_on_c, 9, 35, 88
7, 164159, Note_on_c, 9, 35, 0
7, 164160, Note_on_c, 9, 35, 99
7, 164399, Note_on_c, 9, 35, 0
7, 164400, Note_on_c, 9, 35, 88
7, 164639, Note_on_c, 9, 35, 0
7, 165120, Note_on_c, 9, 35, 101
7, 165599, Note_on_c, 9, 35, 0
7, 165840, Note_on_c, 9, 35, 90
7, 166079, Note_on_c, 9, 35, 0
7, 166080, Note_on_c, 9, 35, 98
7, 166319, Note_on_c, 9, 35, 0
7, 166320, Note_on_c, 9, 35, 91
7, 166559, Note_on_c, 9, 35, 0
7, 167040, Note_on_c, 9, 35, 100
7, 167519, Note_on_c, 9, 35, 0
7, 167760, Note_on_c, 9, 35, 90
7, 167999, Note_on_c, 9, 35, 0
7, 168000, Note_on_c, 9, 35, 101
7, 168239, Note_on_c, 9, 35, 0
7, 168240, Note_on_c, 9, 35, 90
7, 168479, Note_on_c, 9, 35, 0
7, 168960, Note_on_c, 9, 35, 101
7, 169439, Note_on_c, 9, 35, 0
7, 169680, Note_on_c, 9, 35, 89
7, 169919, Note_on_c, 9, 35, 0
7, 169920, Note_on_c, 9, 35, 98
7, 170159, Note_on_c, 9, 35, 0
7, 170160, Note_on_c, 9, 35, 91
7, 170399, Note_on_c, 9, 35, 0
7, 170400, End_track
8, 0, Start_track
8, 0, Key_signature, 0, "major"
8, 0, Control_c, 9, 121, 0
8, 0, Program_c, 9, 0
8, 0, Control_c, 9, 7, 100
8, 0, Control_c, 9, 10, 64
8, 0, Control_c, 9, 91, 0
8, 0, Control_c, 9, 93, 0
8, 0, MIDI_port, 0
8, 4320, Note_on_c, 9, 40, 80
8, 4799, Note_on_c, 9, 40, 0
8, 5280, Note_on_c, 9, 40, 79
8, 5759, Note_on_c, 9, 40, 0
8, 6240, Note_on_c, 9, 40, 80
8, 6719, Note_on_c, 9, 40, 0
8, 7200, Note_on_c, 9, 40, 83
8, 7679, Note_on_c, 9, 40, 0
8, 8160, Note_on_c, 9, 40, 79
8, 8639, Note_on_c, 9, 40, 0
8, 9120, Note_on_c, 9, 40, 78
8, 9599, Note_on_c, 9, 40, 0
8, 10080, Note_on_c, 9, 40, 79
8, 10559, Note_on_c, 9, 40, 0
8, 11040, Note_on_c, 9, 40, 78
8, 11519, Note_on_c, 9, 40, 0
8, 12000, Note_on_c, 9, 40, 83
8, 12479, Note_on_c, 9, 40, 0
8, 12960, Note_on_c, 9, 40, 77
8, 13439, Note_on_c, 9, 40, 0
8, 13920, Note_on_c, 9, 40, 79
8, 14399, Note_on_c, 9, 40, 0
8, 14880, Note_on_c, 9, 40, 83
8, 15359, Note_on_c, 9, 40, 0
8, 15840, Note_on_c, 9, 40, 78
8, 16319, Note_on_c, 9, 40, 0
8, 16800, Note_on_c, 9, 40, 79
8, 17279, Note_on_c, 9, 40, 0
8, 17760, Note_on_c, 9, 40, 81
8, 18239, Note_on_c, 9, 40, 0
8, 18720, Note_on_c, 9, 40, 80
8, 19199, Note_on_c, 9, 40, 0
8, 19680, Note_on_c, 9, 40, 83
8, 20159, Note_on_c, 9, 40, 0
8, 20640, Note_on_c, 9, 40, 77
8, 21119, Note_on_c, 9, 40, 0
8, 21600, Note_on_c, 9, 40, 77
8, 22079, Note_on_c, 9, 40, 0
8, 22560, Note_on_c, 9, 40, 80
8, 23039, Note_on_c, 9, 40, 0
8, 23520, Note_on_c, 9, 40, 78
8, 23999, Note_on_c, 9, 40, 0
8, 24480, Note_on_c, 9, 40, 83
8, 24959, Note_on_c, 9, 40, 0
8, 25440, Note_on_c, 9, 40, 77
8, 25919, Note_on_c, 9, 40, 0
8, 26400, Note_on_c, 9, 40, 78
8, 26879, Note_on_c, 9, 40, 0
8, 27360, Note_on_c, 9, 40, 79
8, 27839, Note_on_c, 9, 40, 0
8, 28000, Note_on_c, 9, 40, 56
8, 28039, Note_on_c, 9, 40, 0
8, 28040, Note_on_c, 9, 40, 58
8, 28079, Note_on_c, 9, 40, 0
8, 28080, Note_on_c, 9, 40, 118
8, 28319, Note_on_c, 9, 40, 0
8, 28800, Note_on_c, 9, 40, 110
8, 28800, Note_on_c, 9, 53, 110
8, 29279, Note_on_c, 9, 40, 0
8, 29279, Note_on_c, 9, 53, 0
8, 29280, Note_on_c, 9, 40, 77
8, 29280, Note_on_c, 9, 53, 110
8, 29759, Note_on_c, 9, 40, 0
8, 29759, Note_on_c, 9, 53, 0
8, 29760, Note_on_c, 9, 40, 110
8, 29760, Note_on_c, 9, 53, 110
8, 30239, Note_on_c, 9, 40, 0
8, 30239, Note_on_c, 9, 53, 0
8, 30240, Note_on_c, 9, 40, 83
8, 30240, Note_on_c, 9, 53, 110
8, 30719, Note_on_c, 9, 40, 0
8, 30719, Note_on_c, 9, 53, 0
8, 30720, Note_on_c, 9, 40, 110
8, 30720, Note_on_c, 9, 53, 110
8, 31199, Note_on_c, 9, 40, 0
8, 31199, Note_on_c, 9, 53, 0
8, 31200, Note_on_c, 9, 40, 80
8, 31200, Note_on_c, 9, 53, 110
8, 31679, Note_on_c, 9, 40, 0
8, 31679, Note_on_c, 9, 53, 0
8, 31680, Note_on_c, 9, 40, 110
8, 31680, Note_on_c, 9, 53, 110
8, 32159, Note_on_c, 9, 40, 0
8, 32159, Note_on_c, 9, 53, 0
8, 32160, Note_on_c, 9, 40, 77
8, 32160, Note_on_c, 9, 53, 110
8, 32639, Note_on_c, 9, 40, 0
8, 32639, Note_on_c, 9, 53, 0
8, 32640, Note_on_c, 9, 40, 110
8, 32640, Note_on_c, 9, 53, 110
8, 33119, Note_on_c, 9, 40, 0
8, 33119, Note_on_c, 9, 53, 0
8, 33120, Note_on_c, 9, 40, 80
8, 33120, Note_on_c, 9, 53, 110
8, 33599, Note_on_c, 9, 40, 0
8, 33599, Note_on_c, 9, 53, 0
8, 33600, Note_on_c, 9, 40, 110
8, 33600, Note_on_c, 9, 53, 110
8, 34079, Note_on_c, 9, 40, 0
8, 34079, Note_on_c, 9, 53, 0
8, 34080, Note_on_c, 9, 40, 80
8, 34080, Note_on_c, 9, 53, 110
8, 34559, Note_on_c, 9, 40, 0
8, 34559, Note_on_c, 9, 53, 0
8, 34560, Note_on_c, 9, 40, 110
8, 34560, Note_on_c, 9, 53, 110
8, 35039, Note_on_c, 9, 40, 0
8, 35039, Note_on_c, 9, 53, 0
8, 35040, Note_on_c, 9, 40, 82
8, 35040, Note_on_c, 9, 53, 110
8, 35519, Note_on_c, 9, 40, 0
8, 35519, Note_on_c, 9, 53, 0
8, 35520, Note_on_c, 9, 40, 110
8, 35520, Note_on_c, 9, 53, 110
8, 35759, Note_on_c, 9, 40, 0
8, 35759, Note_on_c, 9, 53, 0
8, 35760, Note_on_c, 9, 40, 119
8, 35999, Note_on_c, 9, 40, 0
8, 36000, Note_on_c, 9, 40, 52
8, 36119, Note_on_c, 9, 40, 0
8, 36120, Note_on_c, 9, 40, 80
8, 36239, Note_on_c, 9, 40, 0
8, 36240, Note_on_c, 9, 40, 118
8, 36479, Note_on_c, 9, 40, 0
8, 36960, Note_on_c, 9, 40, 80
8, 37439, Note_on_c, 9, 40, 0
8, 37920, Note_on_c, 9, 40, 79
8, 38399, Note_on_c, 9, 40, 0
8, 38880, Note_on_c, 9, 40, 78
8, 39359, Note_on_c, 9, 40, 0
8, 39840, Note_on_c, 9, 40, 78
8, 40319, Note_on_c, 9, 40, 0
8, 40800, Note_on_c, 9, 40, 81
8, 41279, Note_on_c, 9, 40, 0
8, 41760, Note_on_c, 9, 40, 82
8, 42239, Note_on_c, 9, 40, 0
8, 42720, Note_on_c, 9, 40, 78
8, 43199, Note_on_c, 9, 40, 0
8, 43360, Note_on_c, 9, 40, 52
8, 43399, Note_on_c, 9, 40, 0
8, 43400, Note_on_c, 9, 40, 53
8, 43439, Note_on_c, 9, 40, 0
8, 43440, Note_on_c, 9, 40, 119
8, 43679, Note_on_c, 9, 40, 0
8, 44640, Note_on_c, 9, 40, 77
8, 45119, Note_on_c, 9, 40, 0
8, 45600, Note_on_c, 9, 40, 81
8, 46079, Note_on_c, 9, 40, 0
8, 46560, Note_on_c, 9, 40, 79
8, 47039, Note_on_c, 9, 40, 0
8, 47520, Note_on_c, 9, 40, 77
8, 47999, Note_on_c, 9, 40, 0
8, 48480, Note_on_c, 9, 40, 79
8, 48959, Note_on_c, 9, 40, 0
8, 49440, Note_on_c, 9, 40, 79
8, 49919, Note_on_c, 9, 40, 0
8, 50400, Note_on_c, 9, 40, 78
8, 50879, Note_on_c, 9, 40, 0
8, 51360, Note_on_c, 9, 40, 119
8, 51839, Note_on_c, 9, 40, 0
8, 52320, Note_on_c, 9, 40, 78
8, 52799, Note_on_c, 9, 40, 0
8, 53280, Note_on_c, 9, 40, 81
8, 53759, Note_on_c, 9, 40, 0
8, 54240, Note_on_c, 9, 40, 81
8, 54719, Note_on_c, 9, 40, 0
8, 55200, Note_on_c, 9, 40, 80
8, 55679, Note_on_c, 9, 40, 0
8, 56160, Note_on_c, 9, 40, 83
8, 56639, Note_on_c, 9, 40, 0
8, 57120, Note_on_c, 9, 40, 77
8, 57599, Note_on_c, 9, 40, 0
8, 58080, Note_on_c, 9, 40, 80
8, 58559, Note_on_c, 9, 40, 0
8, 59040, Note_on_c, 9, 40, 78
8, 59519, Note_on_c, 9, 40, 0
8, 60000, Note_on_c, 9, 40, 80
8, 60479, Note_on_c, 9, 40, 0
8, 60960, Note_on_c, 9, 40, 78
8, 61439, Note_on_c, 9, 40, 0
8, 61920, Note_on_c, 9, 40, 79
8, 62399, Note_on_c, 9, 40, 0
8, 62880, Note_on_c, 9, 40, 79
8, 63359, Note_on_c, 9, 40, 0
8, 63840, Note_on_c, 9, 40, 83
8, 64319, Note_on_c, 9, 40, 0
8, 64800, Note_on_c, 9, 40, 83
8, 65279, Note_on_c, 9, 40, 0
8, 65760, Note_on_c, 9, 40, 83
8, 66239, Note_on_c, 9, 40, 0
8, 66720, Note_on_c, 9, 40, 78
8, 67199, Note_on_c, 9, 40, 0
8, 67680, Note_on_c, 9, 40, 83
8, 68159, Note_on_c, 9, 40, 0
8, 68280, Note_on_c, 9, 40, 79
8, 68639, Note_on_c, 9, 40, 0
8, 69000, Note_on_c, 9, 40, 80
8, 69119, Note_on_c, 9, 40, 0
8, 69120, Note_on_c, 9, 40, 110
8, 69120, Note_on_c, 9, 53, 110
8, 69599, Note_on_c, 9, 40, 0
8, 69599, Note_on_c, 9, 53, 0
8, 69600, Note_on_c, 9, 40, 82
8, 69600, Note_on_c, 9, 53, 110
8, 70079, Note_on_c, 9, 40, 0
8, 70079, Note_on_c, 9, 53, 0
8, 70080, Note_on_c, 9, 53, 110
8, 70110, Note_on_c, 9, 40, 110
8, 70169, Note_on_c, 9, 40, 0
8, 70559, Note_on_c, 9, 53, 0
8, 70560, Note_on_c, 9, 40, 81
8, 70560, Note_on_c, 9, 53, 110
8, 71039, Note_on_c, 9, 40, 0
8, 71039, Note_on_c, 9, 53, 0
8, 71040, Note_on_c, 9, 40, 110
8, 71040, Note_on_c, 9, 53, 110
8, 71519, Note_on_c, 9, 40, 0
8, 71519, Note_on_c, 9, 53, 0
8, 71520, Note_on_c, 9, 40, 77
8, 71520, Note_on_c, 9, 53, 110
8, 71999, Note_on_c, 9, 40, 0
8, 71999, Note_on_c, 9, 53, 0
8, 72000, Note_on_c, 9, 40, 110
8, 72000, Note_on_c, 9, 53, 110
8, 72479, Note_on_c, 9, 40, 0
8, 72479, Note_on_c, 9, 53, 0
8, 72480, Note_on_c, 9, 40, 78
8, 72480, Note_on_c, 9, 53, 110
8, 72959, Note_on_c, 9, 40, 0
8, 72959, Note_on_c, 9, 53, 0
8, 72960, Note_on_c, 9, 40, 110
8, 72960, Note_on_c, 9, 53, 110
8, 73439, Note_on_c, 9, 40, 0
8, 73439, Note_on_c, 9, 53, 0
8, 73440, Note_on_c, 9, 40, 82
8, 73440, Note_on_c, 9, 53, 110
8, 73919, Note_on_c, 9, 40, 0
8, 73919, Note_on_c, 9, 53, 0
8, 73920, Note_on_c, 9, 40, 110
8, 73920, Note_on_c, 9, 53, 110
8, 74399, Note_on_c, 9, 40, 0
8, 74399, Note_on_c, 9, 53, 0
8, 74400, Note_on_c, 9, 40, 78
8, 74400, Note_on_c, 9, 53, 110
8, 74879, Note_on_c, 9, 40, 0
8, 74879, Note_on_c, 9, 53, 0
8, 74880, Note_on_c, 9, 40, 110
8, 74880, Note_on_c, 9, 53, 110
8, 75359, Note_on_c, 9, 40, 0
8, 75359, Note_on_c, 9, 53, 0
8, 75360, Note_on_c, 9, 40, 82
8, 75360, Note_on_c, 9, 53, 110
8, 75839, Note_on_c, 9, 40, 0
8, 75839, Note_on_c, 9, 53, 0
8, 75840, Note_on_c, 9, 40, 110
8, 75840, Note_on_c, 9, 53, 110
8, 76319, Note_on_c, 9, 40, 0
8, 76319, Note_on_c, 9, 53, 0
8, 76320, Note_on_c, 9, 40, 77
8, 76320, Note_on_c, 9, 53, 110
8, 76399, Note_on_c, 9, 40, 0
8, 76399, Note_on_c, 9, 53, 0
8, 76400, Note_on_c, 9, 53, 110
8, 76479, Note_on_c, 9, 53, 0
8, 76480, Note_on_c, 9, 53, 110
8, 76559, Note_on_c, 9, 53, 0
8, 76560, Note_on_c, 9, 53, 110
8, 76799, Note_on_c, 9, 53, 0
8, 76800, Note_on_c, 9, 53, 110
8, 77279, Note_on_c, 9, 53, 0
8, 77280, Note_on_c, 9, 40, 80
8, 77759, Note_on_c, 9, 40, 0
8, 78240, Note_on_c, 9, 40, 80
8, 78719, Note_on_c, 9, 40, 0
8, 79200, Note_on_c, 9, 40, 82
8, 79679, Note_on_c, 9, 40, 0
8, 80160, Note_on_c, 9, 40, 79
8, 80639, Note_on_c, 9, 40, 0
8, 81120, Note_on_c, 9, 40, 80
8, 81599, Note_on_c, 9, 40, 0
8, 82080, Note_on_c, 9, 40, 79
8, 82559, Note_on_c, 9, 40, 0
8, 83040, Note_on_c, 9, 40, 80
8, 83519, Note_on_c, 9, 40, 0
8, 84000, Note_on_c, 9, 40, 80
8, 84479, Note_on_c, 9, 40, 0
8, 84960, Note_on_c, 9, 40, 79
8, 85439, Note_on_c, 9, 40, 0
8, 85920, Note_on_c, 9, 40, 77
8, 86399, Note_on_c, 9, 40, 0
8, 86880, Note_on_c, 9, 40, 77
8, 87359, Note_on_c, 9, 40, 0
8, 87840, Note_on_c, 9, 40, 82
8, 88319, Note_on_c, 9, 40, 0
8, 88800, Note_on_c, 9, 40, 78
8, 89279, Note_on_c, 9, 40, 0
8, 89760, Note_on_c, 9, 40, 80
8, 90239, Note_on_c, 9, 40, 0
8, 90720, Note_on_c, 9, 40, 80
8, 91199, Note_on_c, 9, 40, 0
8, 91680, Note_on_c, 9, 40, 78
8, 92159, Note_on_c, 9, 40, 0
8, 92640, Note_on_c, 9, 40, 79
8, 93119, Note_on_c, 9, 40, 0
8, 93600, Note_on_c, 9, 40, 83
8, 94079, Note_on_c, 9, 40, 0
8, 94560, Note_on_c, 9, 40, 80
8, 95039, Note_on_c, 9, 40, 0
8, 95520, Note_on_c, 9, 40, 80
8, 95999, Note_on_c, 9, 40, 0
8, 96480, Note_on_c, 9, 40, 79
8, 96959, Note_on_c, 9, 40, 0
8, 97440, Note_on_c, 9, 40, 81
8, 97919, Note_on_c, 9, 40, 0
8, 98400, Note_on_c, 9, 40, 77
8, 98879, Note_on_c, 9, 40, 0
8, 99360, Note_on_c, 9, 40, 77
8, 99839, Note_on_c, 9, 40, 0
8, 100320, Note_on_c, 9, 40, 79
8, 100799, Note_on_c, 9, 40, 0
8, 101280, Note_on_c, 9, 40, 81
8, 101759, Note_on_c, 9, 40, 0
8, 102240, Note_on_c, 9, 40, 78
8, 102719, Note_on_c, 9, 40, 0
8, 103200, Note_on_c, 9, 40, 78
8, 103679, Note_on_c, 9, 40, 0
8, 104160, Note_on_c, 9, 40, 79
8, 104639, Note_on_c, 9, 40, 0
8, 105120, Note_on_c, 9, 40, 77
8, 105599, Note_on_c, 9, 40, 0
8, 106080, Note_on_c, 9, 40, 82
8, 106559, Note_on_c, 9, 40, 0
8, 106560, Note_on_c, 9, 40, 121
8, 106679, Note_on_c, 9, 40, 0
8, 106680, Note_on_c, 9, 40, 56
8, 107039, Note_on_c, 9, 40, 0
8, 107160, Note_on_c, 9, 40, 58
8, 107519, Note_on_c, 9, 40, 0
8, 108000, Note_on_c, 9, 40, 83
8, 108479, Note_on_c, 9, 40, 0
8, 108960, Note_on_c, 9, 40, 78
8, 109439, Note_on_c, 9, 40, 0
8, 109920, Note_on_c, 9, 40, 79
8, 110399, Note_on_c, 9, 40, 0
8, 110880, Note_on_c, 9, 40, 81
8, 111359, Note_on_c, 9, 40, 0
8, 111840, Note_on_c, 9, 40, 83
8, 112319, Note_on_c, 9, 40, 0
8, 112800, Note_on_c, 9, 40, 83
8, 113279, Note_on_c, 9, 40, 0
8, 113760, Note_on_c, 9, 40, 79
8, 114239, Note_on_c, 9, 40, 0
8, 114720, Note_on_c, 9, 40, 83
8, 115199, Note_on_c, 9, 40, 0
8, 115680, Note_on_c, 9, 40, 80
8, 116159, Note_on_c, 9, 40, 0
8, 116640, Note_on_c, 9, 40, 77
8, 117119, Note_on_c, 9, 40, 0
8, 117600, Note_on_c, 9, 40, 83
8, 118079, Note_on_c, 9, 40, 0
8, 118560, Note_on_c, 9, 40, 81
8, 119039, Note_on_c, 9, 40, 0
8, 119520, Note_on_c, 9, 40, 80
8, 119999, Note_on_c, 9, 40, 0
8, 120480, Note_on_c, 9, 40, 81
8, 120959, Note_on_c, 9, 40, 0
8, 121440, Note_on_c, 9, 40, 83
8, 121919, Note_on_c, 9, 40, 0
8, 122400, Note_on_c, 9, 40, 77
8, 122879, Note_on_c, 9, 40, 0
8, 123360, Note_on_c, 9, 40, 78
8, 123839, Note_on_c, 9, 40, 0
8, 124080, Note_on_c, 9, 40, 58
8, 124199, Note_on_c, 9, 40, 0
8, 124200, Note_on_c, 9, 40, 56
8, 124319, Note_on_c, 9, 40, 0
8, 124440, Note_on_c, 9, 40, 58
8, 124799, Note_on_c, 9, 40, 0
8, 125280, Note_on_c, 9, 40, 79
8, 125759, Note_on_c, 9, 40, 0
8, 126240, Note_on_c, 9, 40, 77
8, 126719, Note_on_c, 9, 40, 0
8, 127200, Note_on_c, 9, 40, 80
8, 127679, Note_on_c, 9, 40, 0
8, 128160, Note_on_c, 9, 40, 82
8, 128639, Note_on_c, 9, 40, 0
8, 129120, Note_on_c, 9, 40, 80
8, 129599, Note_on_c, 9, 40, 0
8, 130080, Note_on_c, 9, 40, 82
8, 130559, Note_on_c, 9, 40, 0
8, 131040, Note_on_c, 9, 40, 81
8, 131519, Note_on_c, 9, 40, 0
8, 132000, Note_on_c, 9, 40, 80
8, 132479, Note_on_c, 9, 40, 0
8, 132960, Note_on_c, 9, 40, 80
8, 133439, Note_on_c, 9, 40, 0
8, 133920, Note_on_c, 9, 40, 83
8, 134399, Note_on_c, 9, 40, 0
8, 134880, Note_on_c, 9, 40, 82
8, 135359, Note_on_c, 9, 40, 0
8, 135840, Note_on_c, 9, 40, 77
8, 136319, Note_on_c, 9, 40, 0
8, 136800, Note_on_c, 9, 40, 81
8, 137279, Note_on_c, 9, 40, 0
8, 137760, Note_on_c, 9, 40, 77
8, 138239, Note_on_c, 9, 40, 0
8, 138720, Note_on_c, 9, 40, 79
8, 139199, Note_on_c, 9, 40, 0
8, 139680, Note_on_c, 9, 40, 82
8, 140159, Note_on_c, 9, 40, 0
8, 140640, Note_on_c, 9, 40, 78
8, 141119, Note_on_c, 9, 40, 0
8, 141600, Note_on_c, 9, 40, 77
8, 142079, Note_on_c, 9, 40, 0
8, 142560, Note_on_c, 9, 40, 78
8, 143039, Note_on_c, 9, 40, 0
8, 143520, Note_on_c, 9, 40, 77
8, 143999, Note_on_c, 9, 40, 0
8, 144480, Note_on_c, 9, 40, 80
8, 144959, Note_on_c, 9, 40, 0
8, 145440, Note_on_c, 9, 40, 77
8, 145919, Note_on_c, 9, 40, 0
8, 146400, Note_on_c, 9, 40, 78
8, 146879, Note_on_c, 9, 40, 0
8, 147120, Note_on_c, 9, 40, 81
8, 147239, Note_on_c, 9, 40, 0
8, 147240, Note_on_c, 9, 40, 53
8, 147359, Note_on_c, 9, 40, 0
8, 148320, Note_on_c, 9, 40, 82
8, 148799, Note_on_c, 9, 40, 0
8, 149280, Note_on_c, 9, 40, 77
8, 149759, Note_on_c, 9, 40, 0
8, 150240, Note_on_c, 9, 40, 81
8, 150719, Note_on_c, 9, 40, 0
8, 151200, Note_on_c, 9, 40, 79
8, 151679, Note_on_c, 9, 40, 0
8, 152160, Note_on_c, 9, 40, 81
8, 152639, Note_on_c, 9, 40, 0
8, 153120, Note_on_c, 9, 40, 82
8, 153599, Note_on_c, 9, 40, 0
8, 154080, Note_on_c, 9, 40, 79
8, 154559, Note_on_c, 9, 40, 0
8, 155040, Note_on_c, 9, 40, 80
8, 155519, Note_on_c, 9, 40, 0
8, 156000, Note_on_c, 9, 40, 83
8, 156479, Note_on_c, 9, 40, 0
8, 156960, Note_on_c, 9, 40, 78
8, 157439, Note_on_c, 9, 40, 0
8, 157920, Note_on_c, 9, 40, 78
8, 158399, Note_on_c, 9, 40, 0
8, 158880, Note_on_c, 9, 40, 78
8, 159359, Note_on_c, 9, 40, 0
8, 159840, Note_on_c, 9, 40, 82
8, 160319, Note_on_c, 9, 40, 0
8, 160800, Note_on_c, 9, 40, 77
8, 161279, Note_on_c, 9, 40, 0
8, 161760, Note_on_c, 9, 40, 77
8, 162239, Note_on_c, 9, 40, 0
8, 162400, Note_on_c, 9, 40, 52
8, 162439, Note_on_c, 9, 40, 0
8, 162440, Note_on_c, 9, 40, 52
8, 162479, Note_on_c, 9, 40, 0
8, 162480, Note_on_c, 9, 40, 120
8, 162719, Note_on_c, 9, 40, 0
8, 163680, Note_on_c, 9, 40, 80
8, 164159, Note_on_c, 9, 40, 0
8, 164640, Note_on_c, 9, 40, 77
8, 165119, Note_on_c, 9, 40, 0
8, 165600, Note_on_c, 9, 40, 78
8, 166079, Note_on_c, 9, 40, 0
8, 166560, Note_on_c, 9, 40, 78
8, 167039, Note_on_c, 9, 40, 0
8, 167520, Note_on_c, 9, 40, 82
8, 167999, Note_on_c, 9, 40, 0
8, 168480, Note_on_c, 9, 40, 82
8, 168959, Note_on_c, 9, 40, 0
8, 169440, Note_on_c, 9, 40, 83
8, 169919, Note_on_c, 9, 40, 0
8, 170400, Note_on_c, 9, 40, 83
8, 170879, Note_on_c, 9, 40, 0
8, 170880, End_track
9, 0, Start_track
9, 0, Key_signature, 0, "major"
9, 0, Control_c, 9, 121, 0
9, 0, Program_c, 9, 0
9, 0, Control_c, 9, 7, 100
9, 0, Control_c, 9, 10, 64
9, 0, Control_c, 9, 91, 0
9, 0, Control_c, 9, 93, 0
9, 0, MIDI_port, 0
9, 4320, Note_on_c, 9, 42, 123
9, 4799, Note_on_c, 9, 42, 0
9, 5280, Note_on_c, 9, 42, 123
9, 5759, Note_on_c, 9, 42, 0
9, 6240, Note_on_c, 9, 42, 124
9, 6719, Note_on_c, 9, 42, 0
9, 7200, Note_on_c, 9, 42, 124
9, 7679, Note_on_c, 9, 42, 0
9, 8160, Note_on_c, 9, 42, 123
9, 8639, Note_on_c, 9, 42, 0
9, 9120, Note_on_c, 9, 42, 123
9, 9599, Note_on_c, 9, 42, 0
9, 10080, Note_on_c, 9, 42, 123
9, 10559, Note_on_c, 9, 42, 0
9, 11040, Note_on_c, 9, 42, 123
9, 11519, Note_on_c, 9, 42, 0
9, 12000, Note_on_c, 9, 42, 124
9, 12479, Note_on_c, 9, 42, 0
9, 12960, Note_on_c, 9, 42, 124
9, 13439, Note_on_c, 9, 42, 0
9, 13920, Note_on_c, 9, 42, 126
9, 14399, Note_on_c, 9, 42, 0
9, 14880, Note_on_c, 9, 42, 123
9, 15359, Note_on_c, 9, 42, 0
9, 15840, Note_on_c, 9, 42, 124
9, 16319, Note_on_c, 9, 42, 0
9, 16800, Note_on_c, 9, 42, 124
9, 17279, Note_on_c, 9, 42, 0
9, 17760, Note_on_c, 9, 42, 125
9, 18239, Note_on_c, 9, 42, 0
9, 18720, Note_on_c, 9, 42, 123
9, 19199, Note_on_c, 9, 42, 0
9, 19680, Note_on_c, 9, 42, 124
9, 20159, Note_on_c, 9, 42, 0
9, 20640, Note_on_c, 9, 42, 124
9, 21119, Note_on_c, 9, 42, 0
9, 21600, Note_on_c, 9, 42, 125
9, 22079, Note_on_c, 9, 42, 0
9, 22560, Note_on_c, 9, 42, 123
9, 23039, Note_on_c, 9, 42, 0
9, 23520, Note_on_c, 9, 42, 125
9, 23999, Note_on_c, 9, 42, 0
9, 24480, Note_on_c, 9, 42, 126
9, 24959, Note_on_c, 9, 42, 0
9, 25440, Note_on_c, 9, 42, 125
9, 25919, Note_on_c, 9, 42, 0
9, 26400, Note_on_c, 9, 42, 124
9, 26879, Note_on_c, 9, 42, 0
9, 27360, Note_on_c, 9, 42, 124
9, 27839, Note_on_c, 9, 42, 0
9, 30240, Note_on_c, 9, 42, 124
9, 30719, Note_on_c, 9, 42, 0
9, 31200, Note_on_c, 9, 42, 124
9, 31679, Note_on_c, 9, 42, 0
9, 32160, Note_on_c, 9, 42, 123
9, 32639, Note_on_c, 9, 42, 0
9, 34080, Note_on_c, 9, 42, 124
9, 34559, Note_on_c, 9, 42, 0
9, 35040, Note_on_c, 9, 42, 124
9, 35519, Note_on_c, 9, 42, 0
9, 36960, Note_on_c, 9, 42, 124
9, 37439, Note_on_c, 9, 42, 0
9, 37920, Note_on_c, 9, 42, 125
9, 38399, Note_on_c, 9, 42, 0
9, 38880, Note_on_c, 9, 42, 124
9, 39359, Note_on_c, 9, 42, 0
9, 39840, Note_on_c, 9, 42, 125
9, 40319, Note_on_c, 9, 42, 0
9, 40800, Note_on_c, 9, 42, 126
9, 41279, Note_on_c, 9, 42, 0
9, 41760, Note_on_c, 9, 42, 126
9, 42239, Note_on_c, 9, 42, 0
9, 42720, Note_on_c, 9, 42, 124
9, 43199, Note_on_c, 9, 42, 0
9, 44640, Note_on_c, 9, 42, 126
9, 45119, Note_on_c, 9, 42, 0
9, 45600, Note_on_c, 9, 42, 126
9, 46079, Note_on_c, 9, 42, 0
9, 46560, Note_on_c, 9, 42, 124
9, 47039, Note_on_c, 9, 42, 0
9, 47520, Note_on_c, 9, 42, 126
9, 47999, Note_on_c, 9, 42, 0
9, 48480, Note_on_c, 9, 42, 125
9, 48959, Note_on_c, 9, 42, 0
9, 49440, Note_on_c, 9, 42, 124
9, 49919, Note_on_c, 9, 42, 0
9, 50400, Note_on_c, 9, 42, 123
9, 50879, Note_on_c, 9, 42, 0
9, 52320, Note_on_c, 9, 42, 125
9, 52799, Note_on_c, 9, 42, 0
9, 53280, Note_on_c, 9, 42, 124
9, 53759, Note_on_c, 9, 42, 0
9, 55200, Note_on_c, 9, 42, 123
9, 55679, Note_on_c, 9, 42, 0
9, 56160, Note_on_c, 9, 42, 125
9, 56639, Note_on_c, 9, 42, 0
9, 57120, Note_on_c, 9, 42, 124
9, 57599, Note_on_c, 9, 42, 0
9, 58080, Note_on_c, 9, 42, 123
9, 58559, Note_on_c, 9, 42, 0
9, 59040, Note_on_c, 9, 42, 123
9, 59519, Note_on_c, 9, 42, 0
9, 60000, Note_on_c, 9, 42, 125
9, 60479, Note_on_c, 9, 42, 0
9, 60960, Note_on_c, 9, 42, 125
9, 61439, Note_on_c, 9, 42, 0
9, 61920, Note_on_c, 9, 42, 126
9, 62399, Note_on_c, 9, 42, 0
9, 62880, Note_on_c, 9, 42, 123
9, 63359, Note_on_c, 9, 42, 0
9, 63840, Note_on_c, 9, 42, 125
9, 64319, Note_on_c, 9, 42, 0
9, 64800, Note_on_c, 9, 42, 126
9, 65279, Note_on_c, 9, 42, 0
9, 65760, Note_on_c, 9, 42, 126
9, 66239, Note_on_c, 9, 42, 0
9, 66720, Note_on_c, 9, 42, 123
9, 67199, Note_on_c, 9, 42, 0
9, 67680, Note_on_c, 9, 42, 124
9, 68159, Note_on_c, 9, 42, 0
9, 69600, Note_on_c, 9, 42, 124
9, 70079, Note_on_c, 9, 42, 0
9, 70560, Note_on_c, 9, 42, 126
9, 71039, Note_on_c, 9, 42, 0
9, 71520, Note_on_c, 9, 42, 126
9, 71999, Note_on_c, 9, 42, 0
9, 72480, Note_on_c, 9, 42, 124
9, 72959, Note_on_c, 9, 42, 0
9, 73440, Note_on_c, 9, 42, 125
9, 73919, Note_on_c, 9, 42, 0
9, 74400, Note_on_c, 9, 42, 124
9, 74879, Note_on_c, 9, 42, 0
9, 75360, Note_on_c, 9, 42, 123
9, 75839, Note_on_c, 9, 42, 0
9, 76320, Note_on_c, 9, 42, 124
9, 76799, Note_on_c, 9, 42, 0
9, 77280, Note_on_c, 9, 42, 126
9, 77759, Note_on_c, 9, 42, 0
9, 78240, Note_on_c, 9, 42, 126
9, 78719, Note_on_c, 9, 42, 0
9, 79200, Note_on_c, 9, 42, 123
9, 79679, Note_on_c, 9, 42, 0
9, 80160, Note_on_c, 9, 42, 124
9, 80639, Note_on_c, 9, 42, 0
9, 81120, Note_on_c, 9, 42, 126
9, 81599, Note_on_c, 9, 42, 0
9, 82080, Note_on_c, 9, 42, 126
9, 82559, Note_on_c, 9, 42, 0
9, 83040, Note_on_c, 9, 42, 126
9, 83519, Note_on_c, 9, 42, 0
9, 84000, Note_on_c, 9, 42, 124
9, 84479, Note_on_c, 9, 42, 0
9, 84960, Note_on_c, 9, 42, 125
9, 85439, Note_on_c, 9, 42, 0
9, 85920, Note_on_c, 9, 42, 126
9, 86399, Note_on_c, 9, 42, 0
9, 86880, Note_on_c, 9, 42, 125
9, 87359, Note_on_c, 9, 42, 0
9, 87840, Note_on_c, 9, 42, 125
9, 88319, Note_on_c, 9, 42, 0
9, 88800, Note_on_c, 9, 42, 126
9, 89279, Note_on_c, 9, 42, 0
9, 89760, Note_on_c, 9, 42, 123
9, 90239, Note_on_c, 9, 42, 0
9, 90720, Note_on_c, 9, 42, 123
9, 91199, Note_on_c, 9, 42, 0
9, 91680, Note_on_c, 9, 42, 123
9, 92159, Note_on_c, 9, 42, 0
9, 92640, Note_on_c, 9, 42, 123
9, 93119, Note_on_c, 9, 42, 0
9, 93600, Note_on_c, 9, 42, 126
9, 94079, Note_on_c, 9, 42, 0
9, 94560, Note_on_c, 9, 42, 124
9, 95039, Note_on_c, 9, 42, 0
9, 95520, Note_on_c, 9, 42, 126
9, 95999, Note_on_c, 9, 42, 0
9, 96480, Note_on_c, 9, 42, 126
9, 96959, Note_on_c, 9, 42, 0
9, 97440, Note_on_c, 9, 42, 123
9, 97919, Note_on_c, 9, 42, 0
9, 98400, Note_on_c, 9, 42, 124
9, 98879, Note_on_c, 9, 42, 0
9, 99360, Note_on_c, 9, 42, 126
9, 99839, Note_on_c, 9, 42, 0
9, 100320, Note_on_c, 9, 42, 126
9, 100799, Note_on_c, 9, 42, 0
9, 101280, Note_on_c, 9, 42, 123
9, 101759, Note_on_c, 9, 42, 0
9, 102240, Note_on_c, 9, 42, 124
9, 102719, Note_on_c, 9, 42, 0
9, 103200, Note_on_c, 9, 42, 126
9, 103679, Note_on_c, 9, 42, 0
9, 104160, Note_on_c, 9, 42, 126
9, 104639, Note_on_c, 9, 42, 0
9, 105120, Note_on_c, 9, 42, 123
9, 105599, Note_on_c, 9, 42, 0
9, 106080, Note_on_c, 9, 42, 123
9, 106559, Note_on_c, 9, 42, 0
9, 108000, Note_on_c, 9, 42, 126
9, 108479, Note_on_c, 9, 42, 0
9, 108960, Note_on_c, 9, 42, 125
9, 109439, Note_on_c, 9, 42, 0
9, 109920, Note_on_c, 9, 42, 126
9, 110399, Note_on_c, 9, 42, 0
9, 110880, Note_on_c, 9, 42, 124
9, 111359, Note_on_c, 9, 42, 0
9, 111840, Note_on_c, 9, 42, 126
9, 112319, Note_on_c, 9, 42, 0
9, 112800, Note_on_c, 9, 42, 126
9, 113279, Note_on_c, 9, 42, 0
9, 113760, Note_on_c, 9, 42, 123
9, 114239, Note_on_c, 9, 42, 0
9, 114720, Note_on_c, 9, 42, 125
9, 115199, Note_on_c, 9, 42, 0
9, 115680, Note_on_c, 9, 42, 126
9, 116159, Note_on_c, 9, 42, 0
9, 116640, Note_on_c, 9, 42, 123
9, 117119, Note_on_c, 9, 42, 0
9, 117600, Note_on_c, 9, 42, 126
9, 118079, Note_on_c, 9, 42, 0
9, 118560, Note_on_c, 9, 42, 125
9, 119039, Note_on_c, 9, 42, 0
9, 119520, Note_on_c, 9, 42, 126
9, 119999, Note_on_c, 9, 42, 0
9, 120480, Note_on_c, 9, 42, 124
9, 120959, Note_on_c, 9, 42, 0
9, 121440, Note_on_c, 9, 42, 126
9, 121919, Note_on_c, 9, 42, 0
9, 122400, Note_on_c, 9, 42, 125
9, 122879, Note_on_c, 9, 42, 0
9, 123360, Note_on_c, 9, 42, 123
9, 123839, Note_on_c, 9, 42, 0
9, 125280, Note_on_c, 9, 42, 126
9, 125759, Note_on_c, 9, 42, 0
9, 126240, Note_on_c, 9, 42, 125
9, 126719, Note_on_c, 9, 42, 0
9, 127200, Note_on_c, 9, 42, 125
9, 127679, Note_on_c, 9, 42, 0
9, 128160, Note_on_c, 9, 42, 126
9, 128639, Note_on_c, 9, 42, 0
9, 129120, Note_on_c, 9, 42, 124
9, 129599, Note_on_c, 9, 42, 0
9, 130080, Note_on_c, 9, 42, 125
9, 130559, Note_on_c, 9, 42, 0
9, 131040, Note_on_c, 9, 42, 125
9, 131519, Note_on_c, 9, 42, 0
9, 132000, Note_on_c, 9, 42, 126
9, 132479, Note_on_c, 9, 42, 0
9, 132960, Note_on_c, 9, 42, 124
9, 133439, Note_on_c, 9, 42, 0
9, 133920, Note_on_c, 9, 42, 125
9, 134399, Note_on_c, 9, 42, 0
9, 134880, Note_on_c, 9, 42, 124
9, 135359, Note_on_c, 9, 42, 0
9, 135840, Note_on_c, 9, 42, 126
9, 136319, Note_on_c, 9, 42, 0
9, 136800, Note_on_c, 9, 42, 123
9, 137279, Note_on_c, 9, 42, 0
9, 137760, Note_on_c, 9, 42, 124
9, 138239, Note_on_c, 9, 42, 0
9, 138720, Note_on_c, 9, 42, 124
9, 139199, Note_on_c, 9, 42, 0
9, 139680, Note_on_c, 9, 42, 126
9, 140159, Note_on_c, 9, 42, 0
9, 140640, Note_on_c, 9, 42, 123
9, 141119, Note_on_c, 9, 42, 0
9, 141600, Note_on_c, 9, 42, 124
9, 142079, Note_on_c, 9, 42, 0
9, 142560, Note_on_c, 9, 42, 124
9, 143039, Note_on_c, 9, 42, 0
9, 143520, Note_on_c, 9, 42, 126
9, 143999, Note_on_c, 9, 42, 0
9, 144480, Note_on_c, 9, 42, 123
9, 144959, Note_on_c, 9, 42, 0
9, 145440, Note_on_c, 9, 42, 124
9, 145919, Note_on_c, 9, 42, 0
9, 146400, Note_on_c, 9, 42, 126
9, 146879, Note_on_c, 9, 42, 0
9, 148320, Note_on_c, 9, 42, 124
9, 148799, Note_on_c, 9, 42, 0
9, 149280, Note_on_c, 9, 42, 123
9, 149759, Note_on_c, 9, 42, 0
9, 150240, Note_on_c, 9, 42, 126
9, 150719, Note_on_c, 9, 42, 0
9, 152160, Note_on_c, 9, 42, 124
9, 152639, Note_on_c, 9, 42, 0
9, 153120, Note_on_c, 9, 42, 123
9, 153599, Note_on_c, 9, 42, 0
9, 154080, Note_on_c, 9, 42, 125
9, 154559, Note_on_c, 9, 42, 0
9, 155040, Note_on_c, 9, 42, 125
9, 155519, Note_on_c, 9, 42, 0
9, 156000, Note_on_c, 9, 42, 124
9, 156479, Note_on_c, 9, 42, 0
9, 156960, Note_on_c, 9, 42, 124
9, 157439, Note_on_c, 9, 42, 0
9, 157920, Note_on_c, 9, 42, 125
9, 158399, Note_on_c, 9, 42, 0
9, 158880, Note_on_c, 9, 42, 125
9, 159359, Note_on_c, 9, 42, 0
9, 159840, Note_on_c, 9, 42, 124
9, 160319, Note_on_c, 9, 42, 0
9, 160800, Note_on_c, 9, 42, 124
9, 161279, Note_on_c, 9, 42, 0
9, 161760, Note_on_c, 9, 42, 126
9, 162239, Note_on_c, 9, 42, 0
9, 163680, Note_on_c, 9, 42, 126
9, 164159, Note_on_c, 9, 42, 0
9, 164640, Note_on_c, 9, 42, 123
9, 165119, Note_on_c, 9, 42, 0
9, 165600, Note_on_c, 9, 42, 126
9, 166079, Note_on_c, 9, 42, 0
9, 166560, Note_on_c, 9, 42, 125
9, 167039, Note_on_c, 9, 42, 0
9, 167520, Note_on_c, 9, 42, 126
9, 167999, Note_on_c, 9, 42, 0
9, 168480, Note_on_c, 9, 42, 124
9, 168959, Note_on_c, 9, 42, 0
9, 169440, Note_on_c, 9, 42, 123
9, 169919, Note_on_c, 9, 42, 0
9, 170400, Note_on_c, 9, 42, 126
9, 170879, Note_on_c, 9, 42, 0
9, 170880, Note_on_c, 9, 42, 120
9, 171359, Note_on_c, 9, 42, 0
9, 171360, End_track
10, 0, Start_track
10, 0, Key_signature, 0, "major"
10, 0, Control_c, 9, 121, 0
10, 0, Program_c, 9, 0
10, 0, Control_c, 9, 7, 100
10, 0, Control_c, 9, 10, 64
10, 0, Control_c, 9, 91, 0
10, 0, Control_c, 9, 93, 0
10, 0, MIDI_port, 0
10, 28800, Note_on_c, 9, 57, 108
10, 29279, Note_on_c, 9, 57, 0
10, 35760, Note_on_c, 9, 57, 109
10, 35999, Note_on_c, 9, 57, 0
10, 36480, Note_on_c, 9, 57, 111
10, 36959, Note_on_c, 9, 57, 0
10, 44160, Note_on_c, 9, 57, 110
10, 44639, Note_on_c, 9, 57, 0
10, 51840, Note_on_c, 9, 57, 111
10, 52319, Note_on_c, 9, 57, 0
10, 69120, Note_on_c, 9, 57, 108
10, 69599, Note_on_c, 9, 57, 0
10, 107520, Note_on_c, 9, 57, 111
10, 107999, Note_on_c, 9, 57, 0
10, 124800, Note_on_c, 9, 57, 111
10, 125279, Note_on_c, 9, 57, 0
10, 147840, Note_on_c, 9, 57, 111
10, 148319, Note_on_c, 9, 57, 0
10, 163200, Note_on_c, 9, 57, 109
10, 163679, Note_on_c, 9, 57, 0
10, 163680, End_track
0, 0, End_of_file
