0, 0, Header, 1, 5, 480
1, 0, Start_track
1, 0, Time_signature, 4, 2, 24, 8
1, 0, Key_signature, 0, "major"
1, 0, Tempo, 454545
1, 0, Control_c, 9, 121, 0
1, 0, Program_c, 9, 0
1, 0, Control_c, 9, 7, 100
1, 0, Control_c, 9, 10, 64
1, 0, Control_c, 9, 91, 0
1, 0, Control_c, 9, 93, 0
1, 0, MIDI_port, 0
1, 23520, Note_on_c, 9, 54, 100
1, 23759, Note_on_c, 9, 54, 0
1, 23760, Note_on_c, 9, 54, 100
1, 23999, Note_on_c, 9, 54, 0
1, 24480, Note_on_c, 9, 54, 100
1, 24959, Note_on_c, 9, 54, 0
1, 25440, Note_on_c, 9, 54, 100
1, 25679, Note_on_c, 9, 54, 0
1, 25680, Note_on_c, 9, 54, 100
1, 25919, Note_on_c, 9, 54, 0
1, 26400, Note_on_c, 9, 54, 100
1, 26879, Note_on_c, 9, 54, 0
1, 27360, Note_on_c, 9, 54, 100
1, 27599, Note_on_c, 9, 54, 0
1, 27600, Note_on_c, 9, 54, 100
1, 27839, Note_on_c, 9, 54, 0
1, 28320, Note_on_c, 9, 54, 100
1, 28799, Note_on_c, 9, 54, 0
1, 29280, Note_on_c, 9, 54, 100
1, 29519, Note_on_c, 9, 54, 0
1, 29520, Note_on_c, 9, 54, 100
1, 29759, Note_on_c, 9, 54, 0
1, 44160, Tempo, 461538
1, 54240, Note_on_c, 9, 54, 100
1, 54479, Note_on_c, 9, 54, 0
1, 54480, Note_on_c, 9, 54, 100
1, 54719, Note_on_c, 9, 54, 0
1, 55200, Note_on_c, 9, 54, 100
1, 55679, Note_on_c, 9, 54, 0
1, 56160, Note_on_c, 9, 54, 100
1, 56399, Note_on_c, 9, 54, 0
1, 56400, Note_on_c, 9, 54, 100
1, 56639, Note_on_c, 9, 54, 0
1, 57120, Note_on_c, 9, 54, 100
1, 57599, Note_on_c, 9, 54, 0
1, 58080, Note_on_c, 9, 54, 100
1, 58319, Note_on_c, 9, 54, 0
1, 58320, Note_on_c, 9, 54, 100
1, 58559, Note_on_c, 9, 54, 0
1, 59040, Note_on_c, 9, 54, 100
1, 59519, Note_on_c, 9, 54, 0
1, 60000, Note_on_c, 9, 54, 100
1, 60239, Note_on_c, 9, 54, 0
1, 60240, Note_on_c, 9, 54, 100
1, 60479, Note_on_c, 9, 54, 0
1, 100320, Note_on_c, 9, 54, 100
1, 100559, Note_on_c, 9, 54, 0
1, 100560, Note_on_c, 9, 54, 100
1, 100799, Note_on_c, 9, 54, 0
1, 101280, Note_on_c, 9, 54, 100
1, 101759, Note_on_c, 9, 54, 0
1, 102240, Note_on_c, 9, 54, 100
1, 102479, Note_on_c, 9, 54, 0
1, 102480, Note_on_c, 9, 54, 100
1, 102719, Note_on_c, 9, 54, 0
1, 103200, Note_on_c, 9, 54, 100
1, 103679, Note_on_c, 9, 54, 0
1, 104160, Note_on_c, 9, 54, 100
1, 104399, Note_on_c, 9, 54, 0
1, 104400, Note_on_c, 9, 54, 100
1, 104639, Note_on_c, 9, 54, 0
1, 105120, Note_on_c, 9, 54, 100
1, 105599, Note_on_c, 9, 54, 0
1, 106080, Note_on_c, 9, 54, 100
1, 106319, Note_on_c, 9, 54, 0
1, 106320, Note_on_c, 9, 54, 100
1, 106559, Note_on_c, 9, 54, 0
1, 131040, Note_on_c, 9, 54, 100
1, 131279, Note_on_c, 9, 54, 0
1, 131280, Note_on_c, 9, 54, 100
1, 131519, Note_on_c, 9, 54, 0
1, 132000, Note_on_c, 9, 54, 100
1, 132479, Note_on_c, 9, 54, 0
1, 132960, Note_on_c, 9, 54, 100
1, 133199, Note_on_c, 9, 54, 0
1, 133200, Note_on_c, 9, 54, 100
1, 133439, Note_on_c, 9, 54, 0
1, 133920, Note_on_c, 9, 54, 100
1, 134399, Note_on_c, 9, 54, 0
1, 134880, Note_on_c, 9, 54, 100
1, 135119, Note_on_c, 9, 54, 0
1, 135120, Note_on_c, 9, 54, 100
1, 135359, Note_on_c, 9, 54, 0
1, 135840, Note_on_c, 9, 54, 100
1, 136319, Note_on_c, 9, 54, 0
1, 136800, Note_on_c, 9, 54, 100
1, 137039, Note_on_c, 9, 54, 0
1, 137040, Note_on_c, 9, 54, 100
1, 137279, Note_on_c, 9, 54, 0
1, 137280, End_track
2, 0, Start_track
2, 0, Key_signature, 0, "major"
2, 0, Control_c, 9, 121, 0
2, 0, Program_c, 9, 0
2, 0, Control_c, 9, 7, 100
2, 0, Control_c, 9, 10, 64
2, 0, Control_c, 9, 91, 0
2, 0, Control_c, 9, 93, 0
2, 0, MIDI_port, 0
2, 480, Note_on_c, 9, 38, 70
2, 959, Note_on_c, 9, 38, 0
2, 1440, Note_on_c, 9, 38, 70
2, 1919, Note_on_c, 9, 38, 0
2, 2400, Note_on_c, 9, 38, 70
2, 2879, Note_on_c, 9, 38, 0
2, 3360, Note_on_c, 9, 38, 70
2, 3839, Note_on_c, 9, 38, 0
2, 4320, Note_on_c, 9, 38, 70
2, 4799, Note_on_c, 9, 38, 0
2, 5280, Note_on_c, 9, 38, 70
2, 5759, Note_on_c, 9, 38, 0
2, 8160, Note_on_c, 9, 38, 70
2, 8639, Note_on_c, 9, 38, 0
2, 9120, Note_on_c, 9, 40, 70
2, 9599, Note_on_c, 9, 40, 0
2, 10080, Note_on_c, 9, 38, 70
2, 10559, Note_on_c, 9, 38, 0
2, 11040, Note_on_c, 9, 40, 70
2, 11519, Note_on_c, 9, 40, 0
2, 12000, Note_on_c, 9, 38, 70
2, 12479, Note_on_c, 9, 38, 0
2, 12960, Note_on_c, 9, 40, 70
2, 13439, Note_on_c, 9, 40, 0
2, 13920, Note_on_c, 9, 38, 70
2, 14399, Note_on_c, 9, 38, 0
2, 14880, Note_on_c, 9, 40, 70
2, 15359, Note_on_c, 9, 40, 0
2, 15840, Note_on_c, 9, 38, 70
2, 16319, Note_on_c, 9, 38, 0
2, 16800, Note_on_c, 9, 40, 70
2, 17279, Note_on_c, 9, 40, 0
2, 17760, Note_on_c, 9, 38, 70
2, 18239, Note_on_c, 9, 38, 0
2, 18720, Note_on_c, 9, 40, 70
2, 19199, Note_on_c, 9, 40, 0
2, 19680, Note_on_c, 9, 38, 70
2, 20159, Note_on_c, 9, 38, 0
2, 20640, Note_on_c, 9, 40, 70
2, 21119, Note_on_c, 9, 40, 0
2, 21600, Note_on_c, 9, 38, 70
2, 22079, Note_on_c, 9, 38, 0
2, 22560, Note_on_c, 9, 40, 70
2, 23039, Note_on_c, 9, 40, 0
2, 31200, Note_on_c, 9, 38, 70
2, 31679, Note_on_c, 9, 38, 0
2, 32160, Note_on_c, 9, 40, 70
2, 32639, Note_on_c, 9, 40, 0
2, 33120, Note_on_c, 9, 38, 70
2, 33599, Note_on_c, 9, 38, 0
2, 34080, Note_on_c, 9, 40, 70
2, 34559, Note_on_c, 9, 40, 0
2, 35040, Note_on_c, 9, 38, 70
2, 35519, Note_on_c, 9, 38, 0
2, 36000, Note_on_c, 9, 40, 70
2, 36479, Note_on_c, 9, 40, 0
2, 36480, Note_on_c, 9, 38, 70
2, 36719, Note_on_c, 9, 38, 0
2, 36720, Note_on_c, 9, 38, 70
2, 36959, Note_on_c, 9, 38, 0
2, 36960, Note_on_c, 9, 38, 70
2, 37199, Note_on_c, 9, 38, 0
2, 37200, Note_on_c, 9, 38, 70
2, 37439, Note_on_c, 9, 38, 0
2, 37440, Note_on_c, 9, 38, 70
2, 37679, Note_on_c, 9, 38, 0
2, 37680, Note_on_c, 9, 38, 70
2, 37919, Note_on_c, 9, 38, 0
2, 37920, Note_on_c, 9, 38, 70
2, 38159, Note_on_c, 9, 38, 0
2, 38160, Note_on_c, 9, 38, 70
2, 38399, Note_on_c, 9, 38, 0
2, 38880, Note_on_c, 9, 38, 70
2, 39359, Note_on_c, 9, 38, 0
2, 39840, Note_on_c, 9, 40, 70
2, 40319, Note_on_c, 9, 40, 0
2, 40800, Note_on_c, 9, 38, 70
2, 41279, Note_on_c, 9, 38, 0
2, 41760, Note_on_c, 9, 40, 70
2, 42239, Note_on_c, 9, 40, 0
2, 42720, Note_on_c, 9, 38, 70
2, 43199, Note_on_c, 9, 38, 0
2, 43680, Note_on_c, 9, 40, 70
2, 44159, Note_on_c, 9, 40, 0
2, 44640, Note_on_c, 9, 38, 70
2, 45119, Note_on_c, 9, 38, 0
2, 45600, Note_on_c, 9, 40, 70
2, 46079, Note_on_c, 9, 40, 0
2, 46560, Note_on_c, 9, 38, 70
2, 47039, Note_on_c, 9, 38, 0
2, 47520, Note_on_c, 9, 40, 70
2, 47999, Note_on_c, 9, 40, 0
2, 48480, Note_on_c, 9, 38, 70
2, 48959, Note_on_c, 9, 38, 0
2, 49440, Note_on_c, 9, 40, 70
2, 49919, Note_on_c, 9, 40, 0
2, 50400, Note_on_c, 9, 38, 70
2, 50879, Note_on_c, 9, 38, 0
2, 51360, Note_on_c, 9, 40, 70
2, 51839, Note_on_c, 9, 40, 0
2, 52320, Note_on_c, 9, 38, 70
2, 52799, Note_on_c, 9, 38, 0
2, 53280, Note_on_c, 9, 40, 70
2, 53759, Note_on_c, 9, 40, 0
2, 61920, Note_on_c, 9, 38, 70
2, 62399, Note_on_c, 9, 38, 0
2, 62880, Note_on_c, 9, 40, 70
2, 63359, Note_on_c, 9, 40, 0
2, 63840, Note_on_c, 9, 38, 70
2, 64319, Note_on_c, 9, 38, 0
2, 64800, Note_on_c, 9, 40, 70
2, 65279, Note_on_c, 9, 40, 0
2, 65760, Note_on_c, 9, 38, 70
2, 66239, Note_on_c, 9, 38, 0
2, 66720, Note_on_c, 9, 40, 70
2, 67199, Note_on_c, 9, 40, 0
2, 67200, Note_on_c, 9, 38, 70
2, 67439, Note_on_c, 9, 38, 0
2, 67440, Note_on_c, 9, 38, 70
2, 67679, Note_on_c, 9, 38, 0
2, 67680, Note_on_c, 9, 38, 70
2, 67919, Note_on_c, 9, 38, 0
2, 67920, Note_on_c, 9, 38, 70
2, 68159, Note_on_c, 9, 38, 0
2, 68160, Note_on_c, 9, 38, 70
2, 68399, Note_on_c, 9, 38, 0
2, 68400, Note_on_c, 9, 38, 70
2, 68639, Note_on_c, 9, 38, 0
2, 68640, Note_on_c, 9, 38, 70
2, 68879, Note_on_c, 9, 38, 0
2, 68880, Note_on_c, 9, 38, 70
2, 69119, Note_on_c, 9, 38, 0
2, 69600, Note_on_c, 9, 38, 70
2, 70079, Note_on_c, 9, 38, 0
2, 70560, Note_on_c, 9, 40, 70
2, 71039, Note_on_c, 9, 40, 0
2, 71520, Note_on_c, 9, 38, 70
2, 71999, Note_on_c, 9, 38, 0
2, 72480, Note_on_c, 9, 40, 70
2, 72959, Note_on_c, 9, 40, 0
2, 73440, Note_on_c, 9, 38, 70
2, 73919, Note_on_c, 9, 38, 0
2, 74400, Note_on_c, 9, 40, 70
2, 74879, Note_on_c, 9, 40, 0
2, 75360, Note_on_c, 9, 38, 70
2, 75839, Note_on_c, 9, 38, 0
2, 76320, Note_on_c, 9, 40, 70
2, 76799, Note_on_c, 9, 40, 0
2, 77280, Note_on_c, 9, 38, 70
2, 77759, Note_on_c, 9, 38, 0
2, 78240, Note_on_c, 9, 40, 70
2, 78719, Note_on_c, 9, 40, 0
2, 79200, Note_on_c, 9, 38, 70
2, 79679, Note_on_c, 9, 38, 0
2, 80160, Note_on_c, 9, 40, 70
2, 80639, Note_on_c, 9, 40, 0
2, 80640, Note_on_c, 9, 40, 70
2, 81119, Note_on_c, 9, 40, 0
2, 82560, Note_on_c, 9, 38, 70
2, 82799, Note_on_c, 9, 38, 0
2, 82800, Note_on_c, 9, 38, 70
2, 83039, Note_on_c, 9, 38, 0
2, 83040, Note_on_c, 9, 38, 70
2, 83279, Note_on_c, 9, 38, 0
2, 83280, Note_on_c, 9, 38, 70
2, 83519, Note_on_c, 9, 38, 0
2, 83520, Note_on_c, 9, 38, 70
2, 83759, Note_on_c, 9, 38, 0
2, 83760, Note_on_c, 9, 38, 70
2, 83999, Note_on_c, 9, 38, 0
2, 84000, Note_on_c, 9, 38, 70
2, 84239, Note_on_c, 9, 38, 0
2, 84240, Note_on_c, 9, 38, 70
2, 84479, Note_on_c, 9, 38, 0
2, 84960, Note_on_c, 9, 38, 70
2, 85439, Note_on_c, 9, 38, 0
2, 85920, Note_on_c, 9, 40, 70
2, 86399, Note_on_c, 9, 40, 0
2, 86880, Note_on_c, 9, 38, 70
2, 87359, Note_on_c, 9, 38, 0
2, 87840, Note_on_c, 9, 40, 70
2, 88319, Note_on_c, 9, 40, 0
2, 88800, Note_on_c, 9, 38, 70
2, 89279, Note_on_c, 9, 38, 0
2, 89760, Note_on_c, 9, 40, 70
2, 90239, Note_on_c, 9, 40, 0
2, 90720, Note_on_c, 9, 38, 70
2, 91199, Note_on_c, 9, 38, 0
2, 91680, Note_on_c, 9, 40, 70
2, 92159, Note_on_c, 9, 40, 0
2, 92640, Note_on_c, 9, 38, 70
2, 93119, Note_on_c, 9, 38, 0
2, 93600, Note_on_c, 9, 40, 70
2, 94079, Note_on_c, 9, 40, 0
2, 94560, Note_on_c, 9, 38, 70
2, 95039, Note_on_c, 9, 38, 0
2, 95520, Note_on_c, 9, 40, 70
2, 95999, Note_on_c, 9, 40, 0
2, 96480, Note_on_c, 9, 38, 70
2, 96959, Note_on_c, 9, 38, 0
2, 97440, Note_on_c, 9, 40, 70
2, 97919, Note_on_c, 9, 40, 0
2, 98400, Note_on_c, 9, 38, 70
2, 98879, Note_on_c, 9, 38, 0
2, 99360, Note_on_c, 9, 40, 70
2, 99839, Note_on_c, 9, 40, 0
2, 108000, Note_on_c, 9, 38, 70
2, 108479, Note_on_c, 9, 38, 0
2, 108960, Note_on_c, 9, 40, 70
2, 109439, Note_on_c, 9, 40, 0
2, 109920, Note_on_c, 9, 38, 70
2, 110399, Note_on_c, 9, 38, 0
2, 110880, Note_on_c, 9, 40, 70
2, 111359, Note_on_c, 9, 40, 0
2, 111840, Note_on_c, 9, 38, 70
2, 112319, Note_on_c, 9, 38, 0
2, 112800, Note_on_c, 9, 40, 70
2, 113279, Note_on_c, 9, 40, 0
2, 113280, Note_on_c, 9, 38, 70
2, 113519, Note_on_c, 9, 38, 0
2, 113520, Note_on_c, 9, 38, 70
2, 113759, Note_on_c, 9, 38, 0
2, 113760, Note_on_c, 9, 38, 70
2, 113999, Note_on_c, 9, 38, 0
2, 114000, Note_on_c, 9, 38, 70
2, 114239, Note_on_c, 9, 38, 0
2, 114240, Note_on_c, 9, 38, 70
2, 114479, Note_on_c, 9, 38, 0
2, 114480, Note_on_c, 9, 38, 70
2, 114719, Note_on_c, 9, 38, 0
2, 114720, Note_on_c, 9, 38, 70
2, 114959, Note_on_c, 9, 38, 0
2, 114960, Note_on_c, 9, 38, 70
2, 115199, Note_on_c, 9, 38, 0
2, 115680, Note_on_c, 9, 38, 70
2, 116159, Note_on_c, 9, 38, 0
2, 116640, Note_on_c, 9, 40, 70
2, 117119, Note_on_c, 9, 40, 0
2, 117600, Note_on_c, 9, 38, 70
2, 118079, Note_on_c, 9, 38, 0
2, 118560, Note_on_c, 9, 40, 70
2, 119039, Note_on_c, 9, 40, 0
2, 119520, Note_on_c, 9, 38, 70
2, 119999, Note_on_c, 9, 38, 0
2, 120480, Note_on_c, 9, 40, 70
2, 120959, Note_on_c, 9, 40, 0
2, 121440, Note_on_c, 9, 38, 70
2, 121919, Note_on_c, 9, 38, 0
2, 122400, Note_on_c, 9, 40, 70
2, 122879, Note_on_c, 9, 40, 0
2, 123360, Note_on_c, 9, 38, 70
2, 123839, Note_on_c, 9, 38, 0
2, 124320, Note_on_c, 9, 40, 70
2, 124799, Note_on_c, 9, 40, 0
2, 125280, Note_on_c, 9, 38, 70
2, 125759, Note_on_c, 9, 38, 0
2, 126240, Note_on_c, 9, 40, 70
2, 126719, Note_on_c, 9, 40, 0
2, 127200, Note_on_c, 9, 38, 70
2, 127679, Note_on_c, 9, 38, 0
2, 128160, Note_on_c, 9, 40, 70
2, 128639, Note_on_c, 9, 40, 0
2, 129120, Note_on_c, 9, 38, 70
2, 129599, Note_on_c, 9, 38, 0
2, 130080, Note_on_c, 9, 40, 70
2, 130559, Note_on_c, 9, 40, 0
2, 138720, Note_on_c, 9, 38, 70
2, 139199, Note_on_c, 9, 38, 0
2, 139680, Note_on_c, 9, 40, 70
2, 140159, Note_on_c, 9, 40, 0
2, 140640, Note_on_c, 9, 38, 70
2, 141119, Note_on_c, 9, 38, 0
2, 141600, Note_on_c, 9, 40, 70
2, 142079, Note_on_c, 9, 40, 0
2, 142560, Note_on_c, 9, 38, 70
2, 143039, Note_on_c, 9, 38, 0
2, 143520, Note_on_c, 9, 40, 70
2, 143999, Note_on_c, 9, 40, 0
2, 144480, Note_on_c, 9, 38, 70
2, 144959, Note_on_c, 9, 38, 0
2, 145440, Note_on_c, 9, 40, 70
2, 145919, Note_on_c, 9, 40, 0
2, 146400, Note_on_c, 9, 38, 70
2, 146879, Note_on_c, 9, 38, 0
2, 147360, Note_on_c, 9, 40, 70
2, 147839, Note_on_c, 9, 40, 0
2, 148320, Note_on_c, 9, 38, 70
2, 148799, Note_on_c, 9, 38, 0
2, 149280, Note_on_c, 9, 40, 70
2, 149759, Note_on_c, 9, 40, 0
2, 150240, Note_on_c, 9, 38, 70
2, 150719, Note_on_c, 9, 38, 0
2, 151200, Note_on_c, 9, 40, 70
2, 151679, Note_on_c, 9, 40, 0
2, 152160, Note_on_c, 9, 38, 70
2, 152639, Note_on_c, 9, 38, 0
2, 153120, Note_on_c, 9, 40, 70
2, 153599, Note_on_c, 9, 40, 0
2, 154080, Note_on_c, 9, 38, 70
2, 154559, Note_on_c, 9, 38, 0
2, 155040, Note_on_c, 9, 40, 70
2, 155519, Note_on_c, 9, 40, 0
2, 155520, End_track
3, 0, Start_track
3, 0, Key_signature, 0, "major"
3, 0, Control_c, 9, 121, 0
3, 0, Program_c, 9, 0
3, 0, Control_c, 9, 7, 100
3, 0, Control_c, 9, 10, 64
3, 0, Control_c, 9, 91, 0
3, 0, Control_c, 9, 93, 0
3, 0, MIDI_port, 0
3, 6240, Note_on_c, 9, 37, 70
3, 6479, Note_on_c, 9, 37, 0
3, 6480, Note_on_c, 9, 37, 70
3, 6719, Note_on_c, 9, 37, 0
3, 7200, Note_on_c, 9, 37, 70
3, 7679, Note_on_c, 9, 37, 0
3, 8160, Note_on_c, 9, 37, 70
3, 8399, Note_on_c, 9, 37, 0
3, 8400, Note_on_c, 9, 37, 70
3, 8639, Note_on_c, 9, 37, 0
3, 9120, Note_on_c, 9, 37, 70
3, 9599, Note_on_c, 9, 37, 0
3, 10080, Note_on_c, 9, 37, 70
3, 10319, Note_on_c, 9, 37, 0
3, 10320, Note_on_c, 9, 37, 70
3, 10559, Note_on_c, 9, 37, 0
3, 11040, Note_on_c, 9, 37, 70
3, 11519, Note_on_c, 9, 37, 0
3, 12000, Note_on_c, 9, 37, 70
3, 12239, Note_on_c, 9, 37, 0
3, 12240, Note_on_c, 9, 37, 70
3, 12479, Note_on_c, 9, 37, 0
3, 12960, Note_on_c, 9, 37, 70
3, 13439, Note_on_c, 9, 37, 0
3, 13920, Note_on_c, 9, 37, 70
3, 14159, Note_on_c, 9, 37, 0
3, 14160, Note_on_c, 9, 37, 70
3, 14399, Note_on_c, 9, 37, 0
3, 14880, Note_on_c, 9, 37, 70
3, 15359, Note_on_c, 9, 37, 0
3, 15840, Note_on_c, 9, 37, 70
3, 16079, Note_on_c, 9, 37, 0
3, 16080, Note_on_c, 9, 37, 70
3, 16319, Note_on_c, 9, 37, 0
3, 16800, Note_on_c, 9, 37, 70
3, 17279, Note_on_c, 9, 37, 0
3, 17760, Note_on_c, 9, 37, 70
3, 17999, Note_on_c, 9, 37, 0
3, 18000, Note_on_c, 9, 37, 70
3, 18239, Note_on_c, 9, 37, 0
3, 18720, Note_on_c, 9, 37, 70
3, 19199, Note_on_c, 9, 37, 0
3, 19680, Note_on_c, 9, 37, 70
3, 19919, Note_on_c, 9, 37, 0
3, 19920, Note_on_c, 9, 37, 70
3, 20159, Note_on_c, 9, 37, 0
3, 20640, Note_on_c, 9, 37, 70
3, 21119, Note_on_c, 9, 37, 0
3, 21600, Note_on_c, 9, 37, 70
3, 21839, Note_on_c, 9, 37, 0
3, 21840, Note_on_c, 9, 37, 70
3, 22079, Note_on_c, 9, 37, 0
3, 22560, Note_on_c, 9, 37, 70
3, 23039, Note_on_c, 9, 37, 0
3, 29760, Note_on_c, 9, 40, 70
3, 29879, Note_on_c, 9, 40, 0
3, 29880, Note_on_c, 9, 40, 70
3, 29999, Note_on_c, 9, 40, 0
3, 30000, Note_on_c, 9, 40, 70
3, 30239, Note_on_c, 9, 40, 0
3, 30240, Note_on_c, 9, 40, 70
3, 30479, Note_on_c, 9, 40, 0
3, 30480, Note_on_c, 9, 38, 70
3, 30719, Note_on_c, 9, 38, 0
3, 31200, Note_on_c, 9, 37, 70
3, 31439, Note_on_c, 9, 37, 0
3, 31440, Note_on_c, 9, 37, 70
3, 31679, Note_on_c, 9, 37, 0
3, 32160, Note_on_c, 9, 37, 70
3, 32639, Note_on_c, 9, 37, 0
3, 33120, Note_on_c, 9, 37, 70
3, 33359, Note_on_c, 9, 37, 0
3, 33360, Note_on_c, 9, 37, 70
3, 33599, Note_on_c, 9, 37, 0
3, 34080, Note_on_c, 9, 37, 70
3, 34559, Note_on_c, 9, 37, 0
3, 35040, Note_on_c, 9, 37, 70
3, 35279, Note_on_c, 9, 37, 0
3, 35280, Note_on_c, 9, 37, 70
3, 35519, Note_on_c, 9, 37, 0
3, 36000, Note_on_c, 9, 37, 70
3, 36479, Note_on_c, 9, 37, 0
3, 38880, Note_on_c, 9, 37, 70
3, 39119, Note_on_c, 9, 37, 0
3, 39120, Note_on_c, 9, 37, 70
3, 39359, Note_on_c, 9, 37, 0
3, 39840, Note_on_c, 9, 37, 70
3, 40319, Note_on_c, 9, 37, 0
3, 40800, Note_on_c, 9, 37, 70
3, 41039, Note_on_c, 9, 37, 0
3, 41040, Note_on_c, 9, 37, 70
3, 41279, Note_on_c, 9, 37, 0
3, 41760, Note_on_c, 9, 37, 70
3, 42239, Note_on_c, 9, 37, 0
3, 42720, Note_on_c, 9, 37, 70
3, 42959, Note_on_c, 9, 37, 0
3, 42960, Note_on_c, 9, 37, 70
3, 43199, Note_on_c, 9, 37, 0
3, 43680, Note_on_c, 9, 37, 70
3, 44159, Note_on_c, 9, 37, 0
3, 44640, Note_on_c, 9, 37, 70
3, 44879, Note_on_c, 9, 37, 0
3, 44880, Note_on_c, 9, 37, 70
3, 45119, Note_on_c, 9, 37, 0
3, 45600, Note_on_c, 9, 37, 70
3, 46079, Note_on_c, 9, 37, 0
3, 46560, Note_on_c, 9, 37, 70
3, 46799, Note_on_c, 9, 37, 0
3, 46800, Note_on_c, 9, 37, 70
3, 47039, Note_on_c, 9, 37, 0
3, 47520, Note_on_c, 9, 37, 70
3, 47999, Note_on_c, 9, 37, 0
3, 48480, Note_on_c, 9, 37, 70
3, 48719, Note_on_c, 9, 37, 0
3, 48720, Note_on_c, 9, 37, 70
3, 48959, Note_on_c, 9, 37, 0
3, 49440, Note_on_c, 9, 37, 70
3, 49919, Note_on_c, 9, 37, 0
3, 50400, Note_on_c, 9, 37, 70
3, 50639, Note_on_c, 9, 37, 0
3, 50640, Note_on_c, 9, 37, 70
3, 50879, Note_on_c, 9, 37, 0
3, 51360, Note_on_c, 9, 37, 70
3, 51839, Note_on_c, 9, 37, 0
3, 52320, Note_on_c, 9, 37, 70
3, 52559, Note_on_c, 9, 37, 0
3, 52560, Note_on_c, 9, 37, 70
3, 52799, Note_on_c, 9, 37, 0
3, 53280, Note_on_c, 9, 37, 70
3, 53759, Note_on_c, 9, 37, 0
3, 60720, Note_on_c, 9, 40, 70
3, 60959, Note_on_c, 9, 40, 0
3, 60960, Note_on_c, 9, 40, 70
3, 61199, Note_on_c, 9, 40, 0
3, 61200, Note_on_c, 9, 38, 70
3, 61439, Note_on_c, 9, 38, 0
3, 61920, Note_on_c, 9, 37, 70
3, 62159, Note_on_c, 9, 37, 0
3, 62160, Note_on_c, 9, 37, 70
3, 62399, Note_on_c, 9, 37, 0
3, 62880, Note_on_c, 9, 37, 70
3, 63359, Note_on_c, 9, 37, 0
3, 63840, Note_on_c, 9, 37, 70
3, 64079, Note_on_c, 9, 37, 0
3, 64080, Note_on_c, 9, 37, 70
3, 64319, Note_on_c, 9, 37, 0
3, 64800, Note_on_c, 9, 37, 70
3, 65279, Note_on_c, 9, 37, 0
3, 65760, Note_on_c, 9, 37, 70
3, 65999, Note_on_c, 9, 37, 0
3, 66000, Note_on_c, 9, 37, 70
3, 66239, Note_on_c, 9, 37, 0
3, 66720, Note_on_c, 9, 37, 70
3, 67199, Note_on_c, 9, 37, 0
3, 69600, Note_on_c, 9, 37, 70
3, 69839, Note_on_c, 9, 37, 0
3, 69840, Note_on_c, 9, 37, 70
3, 70079, Note_on_c, 9, 37, 0
3, 70560, Note_on_c, 9, 37, 70
3, 71039, Note_on_c, 9, 37, 0
3, 71520, Note_on_c, 9, 37, 70
3, 71759, Note_on_c, 9, 37, 0
3, 71760, Note_on_c, 9, 37, 70
3, 71999, Note_on_c, 9, 37, 0
3, 72480, Note_on_c, 9, 37, 70
3, 72959, Note_on_c, 9, 37, 0
3, 73440, Note_on_c, 9, 37, 70
3, 73679, Note_on_c, 9, 37, 0
3, 73680, Note_on_c, 9, 37, 70
3, 73919, Note_on_c, 9, 37, 0
3, 74400, Note_on_c, 9, 37, 70
3, 74879, Note_on_c, 9, 37, 0
3, 75360, Note_on_c, 9, 37, 70
3, 75599, Note_on_c, 9, 37, 0
3, 75600, Note_on_c, 9, 37, 70
3, 75839, Note_on_c, 9, 37, 0
3, 76320, Note_on_c, 9, 37, 70
3, 76799, Note_on_c, 9, 37, 0
3, 77280, Note_on_c, 9, 37, 70
3, 77519, Note_on_c, 9, 37, 0
3, 77520, Note_on_c, 9, 37, 70
3, 77759, Note_on_c, 9, 37, 0
3, 78240, Note_on_c, 9, 37, 70
3, 78719, Note_on_c, 9, 37, 0
3, 79200, Note_on_c, 9, 37, 70
3, 79439, Note_on_c, 9, 37, 0
3, 79440, Note_on_c, 9, 37, 70
3, 79679, Note_on_c, 9, 37, 0
3, 80160, Note_on_c, 9, 37, 70
3, 80639, Note_on_c, 9, 37, 0
3, 84960, Note_on_c, 9, 37, 70
3, 85199, Note_on_c, 9, 37, 0
3, 85200, Note_on_c, 9, 37, 70
3, 85439, Note_on_c, 9, 37, 0
3, 85920, Note_on_c, 9, 37, 70
3, 86399, Note_on_c, 9, 37, 0
3, 86880, Note_on_c, 9, 37, 70
3, 87119, Note_on_c, 9, 37, 0
3, 87120, Note_on_c, 9, 37, 70
3, 87359, Note_on_c, 9, 37, 0
3, 87840, Note_on_c, 9, 37, 70
3, 88319, Note_on_c, 9, 37, 0
3, 88800, Note_on_c, 9, 37, 70
3, 89039, Note_on_c, 9, 37, 0
3, 89040, Note_on_c, 9, 37, 70
3, 89279, Note_on_c, 9, 37, 0
3, 89760, Note_on_c, 9, 37, 70
3, 90239, Note_on_c, 9, 37, 0
3, 90720, Note_on_c, 9, 37, 70
3, 90959, Note_on_c, 9, 37, 0
3, 90960, Note_on_c, 9, 37, 70
3, 91199, Note_on_c, 9, 37, 0
3, 91680, Note_on_c, 9, 37, 70
3, 92159, Note_on_c, 9, 37, 0
3, 92640, Note_on_c, 9, 37, 70
3, 92879, Note_on_c, 9, 37, 0
3, 92880, Note_on_c, 9, 37, 70
3, 93119, Note_on_c, 9, 37, 0
3, 93600, Note_on_c, 9, 37, 70
3, 94079, Note_on_c, 9, 37, 0
3, 94560, Note_on_c, 9, 37, 70
3, 94799, Note_on_c, 9, 37, 0
3, 94800, Note_on_c, 9, 37, 70
3, 95039, Note_on_c, 9, 37, 0
3, 95520, Note_on_c, 9, 37, 70
3, 95999, Note_on_c, 9, 37, 0
3, 96480, Note_on_c, 9, 37, 70
3, 96719, Note_on_c, 9, 37, 0
3, 96720, Note_on_c, 9, 37, 70
3, 96959, Note_on_c, 9, 37, 0
3, 97440, Note_on_c, 9, 37, 70
3, 97919, Note_on_c, 9, 37, 0
3, 98400, Note_on_c, 9, 37, 70
3, 98639, Note_on_c, 9, 37, 0
3, 98640, Note_on_c, 9, 37, 70
3, 98879, Note_on_c, 9, 37, 0
3, 99360, Note_on_c, 9, 37, 70
3, 99839, Note_on_c, 9, 37, 0
3, 106560, Note_on_c, 9, 40, 70
3, 106679, Note_on_c, 9, 40, 0
3, 106680, Note_on_c, 9, 40, 70
3, 106799, Note_on_c, 9, 40, 0
3, 106800, Note_on_c, 9, 40, 70
3, 107039, Note_on_c, 9, 40, 0
3, 107040, Note_on_c, 9, 40, 70
3, 107279, Note_on_c, 9, 40, 0
3, 107280, Note_on_c, 9, 38, 70
3, 107519, Note_on_c, 9, 38, 0
3, 108000, Note_on_c, 9, 37, 70
3, 108239, Note_on_c, 9, 37, 0
3, 108240, Note_on_c, 9, 37, 70
3, 108479, Note_on_c, 9, 37, 0
3, 108960, Note_on_c, 9, 37, 70
3, 109439, Note_on_c, 9, 37, 0
3, 109920, Note_on_c, 9, 37, 70
3, 110159, Note_on_c, 9, 37, 0
3, 110160, Note_on_c, 9, 37, 70
3, 110399, Note_on_c, 9, 37, 0
3, 110880, Note_on_c, 9, 37, 70
3, 111359, Note_on_c, 9, 37, 0
3, 111840, Note_on_c, 9, 37, 70
3, 112079, Note_on_c, 9, 37, 0
3, 112080, Note_on_c, 9, 37, 70
3, 112319, Note_on_c, 9, 37, 0
3, 112800, Note_on_c, 9, 37, 70
3, 113279, Note_on_c, 9, 37, 0
3, 115680, Note_on_c, 9, 37, 70
3, 115919, Note_on_c, 9, 37, 0
3, 115920, Note_on_c, 9, 37, 70
3, 116159, Note_on_c, 9, 37, 0
3, 116640, Note_on_c, 9, 37, 70
3, 117119, Note_on_c, 9, 37, 0
3, 117600, Note_on_c, 9, 37, 70
3, 117839, Note_on_c, 9, 37, 0
3, 117840, Note_on_c, 9, 37, 70
3, 118079, Note_on_c, 9, 37, 0
3, 118560, Note_on_c, 9, 37, 70
3, 119039, Note_on_c, 9, 37, 0
3, 119520, Note_on_c, 9, 37, 70
3, 119759, Note_on_c, 9, 37, 0
3, 119760, Note_on_c, 9, 37, 70
3, 119999, Note_on_c, 9, 37, 0
3, 120480, Note_on_c, 9, 37, 70
3, 120959, Note_on_c, 9, 37, 0
3, 121440, Note_on_c, 9, 37, 70
3, 121679, Note_on_c, 9, 37, 0
3, 121680, Note_on_c, 9, 37, 70
3, 121919, Note_on_c, 9, 37, 0
3, 122400, Note_on_c, 9, 37, 70
3, 122879, Note_on_c, 9, 37, 0
3, 123360, Note_on_c, 9, 37, 70
3, 123599, Note_on_c, 9, 37, 0
3, 123600, Note_on_c, 9, 37, 70
3, 123839, Note_on_c, 9, 37, 0
3, 124320, Note_on_c, 9, 37, 70
3, 124799, Note_on_c, 9, 37, 0
3, 125280, Note_on_c, 9, 37, 70
3, 125519, Note_on_c, 9, 37, 0
3, 125520, Note_on_c, 9, 37, 70
3, 125759, Note_on_c, 9, 37, 0
3, 126240, Note_on_c, 9, 37, 70
3, 126719, Note_on_c, 9, 37, 0
3, 127200, Note_on_c, 9, 37, 70
3, 127439, Note_on_c, 9, 37, 0
3, 127440, Note_on_c, 9, 37, 70
3, 127679, Note_on_c, 9, 37, 0
3, 128160, Note_on_c, 9, 37, 70
3, 128639, Note_on_c, 9, 37, 0
3, 129120, Note_on_c, 9, 37, 70
3, 129359, Note_on_c, 9, 37, 0
3, 129360, Note_on_c, 9, 37, 70
3, 129599, Note_on_c, 9, 37, 0
3, 130080, Note_on_c, 9, 37, 70
3, 130559, Note_on_c, 9, 37, 0
3, 137520, Note_on_c, 9, 40, 70
3, 137759, Note_on_c, 9, 40, 0
3, 137760, Note_on_c, 9, 40, 70
3, 137999, Note_on_c, 9, 40, 0
3, 138000, Note_on_c, 9, 38, 70
3, 138239, Note_on_c, 9, 38, 0
3, 138720, Note_on_c, 9, 37, 70
3, 138959, Note_on_c, 9, 37, 0
3, 138960, Note_on_c, 9, 37, 70
3, 139199, Note_on_c, 9, 37, 0
3, 139680, Note_on_c, 9, 37, 70
3, 140159, Note_on_c, 9, 37, 0
3, 140640, Note_on_c, 9, 37, 70
3, 140879, Note_on_c, 9, 37, 0
3, 140880, Note_on_c, 9, 37, 70
3, 141119, Note_on_c, 9, 37, 0
3, 141600, Note_on_c, 9, 37, 70
3, 142079, Note_on_c, 9, 37, 0
3, 142560, Note_on_c, 9, 37, 70
3, 142799, Note_on_c, 9, 37, 0
3, 142800, Note_on_c, 9, 37, 70
3, 143039, Note_on_c, 9, 37, 0
3, 143520, Note_on_c, 9, 37, 70
3, 143999, Note_on_c, 9, 37, 0
3, 144480, Note_on_c, 9, 37, 70
3, 144719, Note_on_c, 9, 37, 0
3, 144720, Note_on_c, 9, 37, 70
3, 144959, Note_on_c, 9, 37, 0
3, 145440, Note_on_c, 9, 37, 70
3, 145919, Note_on_c, 9, 37, 0
3, 146400, Note_on_c, 9, 37, 70
3, 146639, Note_on_c, 9, 37, 0
3, 146640, Note_on_c, 9, 37, 70
3, 146879, Note_on_c, 9, 37, 0
3, 147360, Note_on_c, 9, 37, 70
3, 147839, Note_on_c, 9, 37, 0
3, 148320, Note_on_c, 9, 37, 70
3, 148559, Note_on_c, 9, 37, 0
3, 148560, Note_on_c, 9, 37, 70
3, 148799, Note_on_c, 9, 37, 0
3, 149280, Note_on_c, 9, 37, 70
3, 149759, Note_on_c, 9, 37, 0
3, 150240, Note_on_c, 9, 37, 70
3, 150479, Note_on_c, 9, 37, 0
3, 150480, Note_on_c, 9, 37, 70
3, 150719, Note_on_c, 9, 37, 0
3, 151200, Note_on_c, 9, 37, 70
3, 151679, Note_on_c, 9, 37, 0
3, 152160, Note_on_c, 9, 37, 70
3, 152399, Note_on_c, 9, 37, 0
3, 152400, Note_on_c, 9, 37, 70
3, 152639, Note_on_c, 9, 37, 0
3, 153120, Note_on_c, 9, 37, 70
3, 153599, Note_on_c, 9, 37, 0
3, 154080, Note_on_c, 9, 37, 70
3, 154319, Note_on_c, 9, 37, 0
3, 154320, Note_on_c, 9, 37, 70
3, 154559, Note_on_c, 9, 37, 0
3, 155040, Note_on_c, 9, 37, 70
3, 155519, Note_on_c, 9, 37, 0
3, 155520, End_track
4, 0, Start_track
4, 0, Key_signature, 0, "major"
4, 0, Control_c, 9, 121, 0
4, 0, Program_c, 9, 0
4, 0, Control_c, 9, 7, 100
4, 0, Control_c, 9, 10, 64
4, 0, Control_c, 9, 91, 0
4, 0, Control_c, 9, 93, 0
4, 0, MIDI_port, 0
4, 0, Note_on_c, 9, 69, 70
4, 239, Note_on_c, 9, 69, 0
4, 240, Note_on_c, 9, 69, 70
4, 359, Note_on_c, 9, 69, 0
4, 360, Note_on_c, 9, 69, 70
4, 479, Note_on_c, 9, 69, 0
4, 480, Note_on_c, 9, 69, 70
4, 959, Note_on_c, 9, 69, 0
4, 960, Note_on_c, 9, 69, 70
4, 1199, Note_on_c, 9, 69, 0
4, 1200, Note_on_c, 9, 69, 70
4, 1439, Note_on_c, 9, 69, 0
4, 1920, Note_on_c, 9, 69, 70
4, 2159, Note_on_c, 9, 69, 0
4, 2160, Note_on_c, 9, 69, 70
4, 2279, Note_on_c, 9, 69, 0
4, 2280, Note_on_c, 9, 69, 70
4, 2399, Note_on_c, 9, 69, 0
4, 2400, Note_on_c, 9, 69, 70
4, 2879, Note_on_c, 9, 69, 0
4, 2880, Note_on_c, 9, 69, 70
4, 3119, Note_on_c, 9, 69, 0
4, 3120, Note_on_c, 9, 69, 70
4, 3359, Note_on_c, 9, 69, 0
4, 3840, Note_on_c, 9, 69, 70
4, 4079, Note_on_c, 9, 69, 0
4, 4080, Note_on_c, 9, 69, 70
4, 4199, Note_on_c, 9, 69, 0
4, 4200, Note_on_c, 9, 69, 70
4, 4319, Note_on_c, 9, 69, 0
4, 4320, Note_on_c, 9, 69, 70
4, 4799, Note_on_c, 9, 69, 0
4, 4800, Note_on_c, 9, 69, 70
4, 5039, Note_on_c, 9, 69, 0
4, 5040, Note_on_c, 9, 69, 70
4, 5279, Note_on_c, 9, 69, 0
4, 5760, Note_on_c, 9, 69, 70
4, 5999, Note_on_c, 9, 69, 0
4, 6000, Note_on_c, 9, 69, 70
4, 6119, Note_on_c, 9, 69, 0
4, 6120, Note_on_c, 9, 69, 70
4, 6239, Note_on_c, 9, 69, 0
4, 6240, Note_on_c, 9, 69, 70
4, 6719, Note_on_c, 9, 69, 0
4, 6720, Note_on_c, 9, 69, 70
4, 6959, Note_on_c, 9, 69, 0
4, 6960, Note_on_c, 9, 69, 70
4, 7199, Note_on_c, 9, 69, 0
4, 7680, Note_on_c, 9, 69, 70
4, 7919, Note_on_c, 9, 69, 0
4, 7920, Note_on_c, 9, 69, 70
4, 8039, Note_on_c, 9, 69, 0
4, 8040, Note_on_c, 9, 69, 70
4, 8159, Note_on_c, 9, 69, 0
4, 8160, Note_on_c, 9, 69, 70
4, 8639, Note_on_c, 9, 69, 0
4, 8640, Note_on_c, 9, 69, 70
4, 8879, Note_on_c, 9, 69, 0
4, 8880, Note_on_c, 9, 69, 70
4, 9119, Note_on_c, 9, 69, 0
4, 9600, Note_on_c, 9, 69, 70
4, 9839, Note_on_c, 9, 69, 0
4, 9840, Note_on_c, 9, 69, 70
4, 9959, Note_on_c, 9, 69, 0
4, 9960, Note_on_c, 9, 69, 70
4, 10079, Note_on_c, 9, 69, 0
4, 10080, Note_on_c, 9, 69, 70
4, 10559, Note_on_c, 9, 69, 0
4, 10560, Note_on_c, 9, 69, 70
4, 10799, Note_on_c, 9, 69, 0
4, 10800, Note_on_c, 9, 69, 70
4, 11039, Note_on_c, 9, 69, 0
4, 11520, Note_on_c, 9, 69, 70
4, 11759, Note_on_c, 9, 69, 0
4, 11760, Note_on_c, 9, 69, 70
4, 11879, Note_on_c, 9, 69, 0
4, 11880, Note_on_c, 9, 69, 70
4, 11999, Note_on_c, 9, 69, 0
4, 12000, Note_on_c, 9, 69, 70
4, 12479, Note_on_c, 9, 69, 0
4, 12480, Note_on_c, 9, 69, 70
4, 12719, Note_on_c, 9, 69, 0
4, 12720, Note_on_c, 9, 69, 70
4, 12959, Note_on_c, 9, 69, 0
4, 13440, Note_on_c, 9, 69, 70
4, 13679, Note_on_c, 9, 69, 0
4, 13680, Note_on_c, 9, 69, 70
4, 13799, Note_on_c, 9, 69, 0
4, 13800, Note_on_c, 9, 69, 70
4, 13919, Note_on_c, 9, 69, 0
4, 13920, Note_on_c, 9, 69, 70
4, 14399, Note_on_c, 9, 69, 0
4, 14400, Note_on_c, 9, 69, 70
4, 14639, Note_on_c, 9, 69, 0
4, 14640, Note_on_c, 9, 69, 70
4, 14879, Note_on_c, 9, 69, 0
4, 15360, Note_on_c, 9, 69, 70
4, 15599, Note_on_c, 9, 69, 0
4, 15600, Note_on_c, 9, 69, 70
4, 15719, Note_on_c, 9, 69, 0
4, 15720, Note_on_c, 9, 69, 70
4, 15839, Note_on_c, 9, 69, 0
4, 15840, Note_on_c, 9, 69, 70
4, 16319, Note_on_c, 9, 69, 0
4, 16320, Note_on_c, 9, 69, 70
4, 16559, Note_on_c, 9, 69, 0
4, 16560, Note_on_c, 9, 69, 70
4, 16799, Note_on_c, 9, 69, 0
4, 17280, Note_on_c, 9, 69, 70
4, 17519, Note_on_c, 9, 69, 0
4, 17520, Note_on_c, 9, 69, 70
4, 17639, Note_on_c, 9, 69, 0
4, 17640, Note_on_c, 9, 69, 70
4, 17759, Note_on_c, 9, 69, 0
4, 17760, Note_on_c, 9, 69, 70
4, 18239, Note_on_c, 9, 69, 0
4, 18240, Note_on_c, 9, 69, 70
4, 18479, Note_on_c, 9, 69, 0
4, 18480, Note_on_c, 9, 69, 70
4, 18719, Note_on_c, 9, 69, 0
4, 19200, Note_on_c, 9, 69, 70
4, 19439, Note_on_c, 9, 69, 0
4, 19440, Note_on_c, 9, 69, 70
4, 19559, Note_on_c, 9, 69, 0
4, 19560, Note_on_c, 9, 69, 70
4, 19679, Note_on_c, 9, 69, 0
4, 19680, Note_on_c, 9, 69, 70
4, 20159, Note_on_c, 9, 69, 0
4, 20160, Note_on_c, 9, 69, 70
4, 20399, Note_on_c, 9, 69, 0
4, 20400, Note_on_c, 9, 69, 70
4, 20639, Note_on_c, 9, 69, 0
4, 21120, Note_on_c, 9, 69, 70
4, 21359, Note_on_c, 9, 69, 0
4, 21360, Note_on_c, 9, 69, 70
4, 21479, Note_on_c, 9, 69, 0
4, 21480, Note_on_c, 9, 69, 70
4, 21599, Note_on_c, 9, 69, 0
4, 21600, Note_on_c, 9, 69, 70
4, 22079, Note_on_c, 9, 69, 0
4, 22080, Note_on_c, 9, 69, 70
4, 22319, Note_on_c, 9, 69, 0
4, 22320, Note_on_c, 9, 69, 70
4, 22559, Note_on_c, 9, 69, 0
4, 30720, Note_on_c, 9, 69, 70
4, 30959, Note_on_c, 9, 69, 0
4, 30960, Note_on_c, 9, 69, 70
4, 31079, Note_on_c, 9, 69, 0
4, 31080, Note_on_c, 9, 69, 70
4, 31199, Note_on_c, 9, 69, 0
4, 31200, Note_on_c, 9, 69, 70
4, 31679, Note_on_c, 9, 69, 0
4, 31680, Note_on_c, 9, 69, 70
4, 31919, Note_on_c, 9, 69, 0
4, 31920, Note_on_c, 9, 69, 70
4, 32159, Note_on_c, 9, 69, 0
4, 32640, Note_on_c, 9, 69, 70
4, 32879, Note_on_c, 9, 69, 0
4, 32880, Note_on_c, 9, 69, 70
4, 32999, Note_on_c, 9, 69, 0
4, 33000, Note_on_c, 9, 69, 70
4, 33119, Note_on_c, 9, 69, 0
4, 33120, Note_on_c, 9, 69, 70
4, 33599, Note_on_c, 9, 69, 0
4, 33600, Note_on_c, 9, 69, 70
4, 33839, Note_on_c, 9, 69, 0
4, 33840, Note_on_c, 9, 69, 70
4, 34079, Note_on_c, 9, 69, 0
4, 34560, Note_on_c, 9, 69, 70
4, 34799, Note_on_c, 9, 69, 0
4, 34800, Note_on_c, 9, 69, 70
4, 34919, Note_on_c, 9, 69, 0
4, 34920, Note_on_c, 9, 69, 70
4, 35039, Note_on_c, 9, 69, 0
4, 35040, Note_on_c, 9, 69, 70
4, 35519, Note_on_c, 9, 69, 0
4, 35520, Note_on_c, 9, 69, 70
4, 35759, Note_on_c, 9, 69, 0
4, 35760, Note_on_c, 9, 69, 70
4, 35999, Note_on_c, 9, 69, 0
4, 38400, Note_on_c, 9, 69, 70
4, 38639, Note_on_c, 9, 69, 0
4, 38640, Note_on_c, 9, 69, 70
4, 38759, Note_on_c, 9, 69, 0
4, 38760, Note_on_c, 9, 69, 70
4, 38879, Note_on_c, 9, 69, 0
4, 38880, Note_on_c, 9, 69, 70
4, 39359, Note_on_c, 9, 69, 0
4, 39360, Note_on_c, 9, 69, 70
4, 39599, Note_on_c, 9, 69, 0
4, 39600, Note_on_c, 9, 69, 70
4, 39839, Note_on_c, 9, 69, 0
4, 40320, Note_on_c, 9, 69, 70
4, 40559, Note_on_c, 9, 69, 0
4, 40560, Note_on_c, 9, 69, 70
4, 40679, Note_on_c, 9, 69, 0
4, 40680, Note_on_c, 9, 69, 70
4, 40799, Note_on_c, 9, 69, 0
4, 40800, Note_on_c, 9, 69, 70
4, 41279, Note_on_c, 9, 69, 0
4, 41280, Note_on_c, 9, 69, 70
4, 41519, Note_on_c, 9, 69, 0
4, 41520, Note_on_c, 9, 69, 70
4, 41759, Note_on_c, 9, 69, 0
4, 42240, Note_on_c, 9, 69, 70
4, 42479, Note_on_c, 9, 69, 0
4, 42480, Note_on_c, 9, 69, 70
4, 42599, Note_on_c, 9, 69, 0
4, 42600, Note_on_c, 9, 69, 70
4, 42719, Note_on_c, 9, 69, 0
4, 42720, Note_on_c, 9, 69, 70
4, 43199, Note_on_c, 9, 69, 0
4, 43200, Note_on_c, 9, 69, 70
4, 43439, Note_on_c, 9, 69, 0
4, 43440, Note_on_c, 9, 69, 70
4, 43679, Note_on_c, 9, 69, 0
4, 44160, Note_on_c, 9, 69, 70
4, 44399, Note_on_c, 9, 69, 0
4, 44400, Note_on_c, 9, 69, 70
4, 44519, Note_on_c, 9, 69, 0
4, 44520, Note_on_c, 9, 69, 70
4, 44639, Note_on_c, 9, 69, 0
4, 44640, Note_on_c, 9, 69, 70
4, 45119, Note_on_c, 9, 69, 0
4, 45120, Note_on_c, 9, 69, 70
4, 45359, Note_on_c, 9, 69, 0
4, 45360, Note_on_c, 9, 69, 70
4, 45599, Note_on_c, 9, 69, 0
4, 46080, Note_on_c, 9, 69, 70
4, 46319, Note_on_c, 9, 69, 0
4, 46320, Note_on_c, 9, 69, 70
4, 46439, Note_on_c, 9, 69, 0
4, 46440, Note_on_c, 9, 69, 70
4, 46559, Note_on_c, 9, 69, 0
4, 46560, Note_on_c, 9, 69, 70
4, 47039, Note_on_c, 9, 69, 0
4, 47040, Note_on_c, 9, 69, 70
4, 47279, Note_on_c, 9, 69, 0
4, 47280, Note_on_c, 9, 69, 70
4, 47519, Note_on_c, 9, 69, 0
4, 48000, Note_on_c, 9, 69, 70
4, 48239, Note_on_c, 9, 69, 0
4, 48240, Note_on_c, 9, 69, 70
4, 48359, Note_on_c, 9, 69, 0
4, 48360, Note_on_c, 9, 69, 70
4, 48479, Note_on_c, 9, 69, 0
4, 48480, Note_on_c, 9, 69, 70
4, 48959, Note_on_c, 9, 69, 0
4, 48960, Note_on_c, 9, 69, 70
4, 49199, Note_on_c, 9, 69, 0
4, 49200, Note_on_c, 9, 69, 70
4, 49439, Note_on_c, 9, 69, 0
4, 49920, Note_on_c, 9, 69, 70
4, 50159, Note_on_c, 9, 69, 0
4, 50160, Note_on_c, 9, 69, 70
4, 50279, Note_on_c, 9, 69, 0
4, 50280, Note_on_c, 9, 69, 70
4, 50399, Note_on_c, 9, 69, 0
4, 50400, Note_on_c, 9, 69, 70
4, 50879, Note_on_c, 9, 69, 0
4, 50880, Note_on_c, 9, 69, 70
4, 51119, Note_on_c, 9, 69, 0
4, 51120, Note_on_c, 9, 69, 70
4, 51359, Note_on_c, 9, 69, 0
4, 51840, Note_on_c, 9, 69, 70
4, 52079, Note_on_c, 9, 69, 0
4, 52080, Note_on_c, 9, 69, 70
4, 52199, Note_on_c, 9, 69, 0
4, 52200, Note_on_c, 9, 69, 70
4, 52319, Note_on_c, 9, 69, 0
4, 52320, Note_on_c, 9, 69, 70
4, 52799, Note_on_c, 9, 69, 0
4, 52800, Note_on_c, 9, 69, 70
4, 53039, Note_on_c, 9, 69, 0
4, 53040, Note_on_c, 9, 69, 70
4, 53279, Note_on_c, 9, 69, 0
4, 61440, Note_on_c, 9, 69, 70
4, 61679, Note_on_c, 9, 69, 0
4, 61680, Note_on_c, 9, 69, 70
4, 61799, Note_on_c, 9, 69, 0
4, 61800, Note_on_c, 9, 69, 70
4, 61919, Note_on_c, 9, 69, 0
4, 61920, Note_on_c, 9, 69, 70
4, 62399, Note_on_c, 9, 69, 0
4, 62400, Note_on_c, 9, 69, 70
4, 62639, Note_on_c, 9, 69, 0
4, 62640, Note_on_c, 9, 69, 70
4, 62879, Note_on_c, 9, 69, 0
4, 63360, Note_on_c, 9, 69, 70
4, 63599, Note_on_c, 9, 69, 0
4, 63600, Note_on_c, 9, 69, 70
4, 63719, Note_on_c, 9, 69, 0
4, 63720, Note_on_c, 9, 69, 70
4, 63839, Note_on_c, 9, 69, 0
4, 63840, Note_on_c, 9, 69, 70
4, 64319, Note_on_c, 9, 69, 0
4, 64320, Note_on_c, 9, 69, 70
4, 64559, Note_on_c, 9, 69, 0
4, 64560, Note_on_c, 9, 69, 70
4, 64799, Note_on_c, 9, 69, 0
4, 65280, Note_on_c, 9, 69, 70
4, 65519, Note_on_c, 9, 69, 0
4, 65520, Note_on_c, 9, 69, 70
4, 65639, Note_on_c, 9, 69, 0
4, 65640, Note_on_c, 9, 69, 70
4, 65759, Note_on_c, 9, 69, 0
4, 65760, Note_on_c, 9, 69, 70
4, 66239, Note_on_c, 9, 69, 0
4, 66240, Note_on_c, 9, 69, 70
4, 66479, Note_on_c, 9, 69, 0
4, 66480, Note_on_c, 9, 69, 70
4, 66719, Note_on_c, 9, 69, 0
4, 69120, Note_on_c, 9, 69, 70
4, 69359, Note_on_c, 9, 69, 0
4, 69360, Note_on_c, 9, 69, 70
4, 69479, Note_on_c, 9, 69, 0
4, 69480, Note_on_c, 9, 69, 70
4, 69599, Note_on_c, 9, 69, 0
4, 69600, Note_on_c, 9, 69, 70
4, 70079, Note_on_c, 9, 69, 0
4, 70080, Note_on_c, 9, 69, 70
4, 70319, Note_on_c, 9, 69, 0
4, 70320, Note_on_c, 9, 69, 70
4, 70559, Note_on_c, 9, 69, 0
4, 71040, Note_on_c, 9, 69, 70
4, 71279, Note_on_c, 9, 69, 0
4, 71280, Note_on_c, 9, 69, 70
4, 71399, Note_on_c, 9, 69, 0
4, 71400, Note_on_c, 9, 69, 70
4, 71519, Note_on_c, 9, 69, 0
4, 71520, Note_on_c, 9, 69, 70
4, 71999, Note_on_c, 9, 69, 0
4, 72000, Note_on_c, 9, 69, 70
4, 72239, Note_on_c, 9, 69, 0
4, 72240, Note_on_c, 9, 69, 70
4, 72479, Note_on_c, 9, 69, 0
4, 72960, Note_on_c, 9, 69, 70
4, 73199, Note_on_c, 9, 69, 0
4, 73200, Note_on_c, 9, 69, 70
4, 73319, Note_on_c, 9, 69, 0
4, 73320, Note_on_c, 9, 69, 70
4, 73439, Note_on_c, 9, 69, 0
4, 73440, Note_on_c, 9, 69, 70
4, 73919, Note_on_c, 9, 69, 0
4, 73920, Note_on_c, 9, 69, 70
4, 74159, Note_on_c, 9, 69, 0
4, 74160, Note_on_c, 9, 69, 70
4, 74399, Note_on_c, 9, 69, 0
4, 74880, Note_on_c, 9, 69, 70
4, 75119, Note_on_c, 9, 69, 0
4, 75120, Note_on_c, 9, 69, 70
4, 75239, Note_on_c, 9, 69, 0
4, 75240, Note_on_c, 9, 69, 70
4, 75359, Note_on_c, 9, 69, 0
4, 75360, Note_on_c, 9, 69, 70
4, 75839, Note_on_c, 9, 69, 0
4, 75840, Note_on_c, 9, 69, 70
4, 76079, Note_on_c, 9, 69, 0
4, 76080, Note_on_c, 9, 69, 70
4, 76319, Note_on_c, 9, 69, 0
4, 76800, Note_on_c, 9, 69, 70
4, 77039, Note_on_c, 9, 69, 0
4, 77040, Note_on_c, 9, 69, 70
4, 77159, Note_on_c, 9, 69, 0
4, 77160, Note_on_c, 9, 69, 70
4, 77279, Note_on_c, 9, 69, 0
4, 77280, Note_on_c, 9, 69, 70
4, 77759, Note_on_c, 9, 69, 0
4, 77760, Note_on_c, 9, 69, 70
4, 77999, Note_on_c, 9, 69, 0
4, 78000, Note_on_c, 9, 69, 70
4, 78239, Note_on_c, 9, 69, 0
4, 78720, Note_on_c, 9, 69, 70
4, 78959, Note_on_c, 9, 69, 0
4, 78960, Note_on_c, 9, 69, 70
4, 79079, Note_on_c, 9, 69, 0
4, 79080, Note_on_c, 9, 69, 70
4, 79199, Note_on_c, 9, 69, 0
4, 79200, Note_on_c, 9, 69, 70
4, 79679, Note_on_c, 9, 69, 0
4, 79680, Note_on_c, 9, 69, 70
4, 79919, Note_on_c, 9, 69, 0
4, 79920, Note_on_c, 9, 69, 70
4, 80159, Note_on_c, 9, 69, 0
4, 84480, Note_on_c, 9, 69, 70
4, 84719, Note_on_c, 9, 69, 0
4, 84720, Note_on_c, 9, 69, 70
4, 84839, Note_on_c, 9, 69, 0
4, 84840, Note_on_c, 9, 69, 70
4, 84959, Note_on_c, 9, 69, 0
4, 84960, Note_on_c, 9, 69, 70
4, 85439, Note_on_c, 9, 69, 0
4, 85440, Note_on_c, 9, 69, 70
4, 85679, Note_on_c, 9, 69, 0
4, 85680, Note_on_c, 9, 69, 70
4, 85919, Note_on_c, 9, 69, 0
4, 86400, Note_on_c, 9, 69, 70
4, 86639, Note_on_c, 9, 69, 0
4, 86640, Note_on_c, 9, 69, 70
4, 86759, Note_on_c, 9, 69, 0
4, 86760, Note_on_c, 9, 69, 70
4, 86879, Note_on_c, 9, 69, 0
4, 86880, Note_on_c, 9, 69, 70
4, 87359, Note_on_c, 9, 69, 0
4, 87360, Note_on_c, 9, 69, 70
4, 87599, Note_on_c, 9, 69, 0
4, 87600, Note_on_c, 9, 69, 70
4, 87839, Note_on_c, 9, 69, 0
4, 88320, Note_on_c, 9, 69, 70
4, 88559, Note_on_c, 9, 69, 0
4, 88560, Note_on_c, 9, 69, 70
4, 88679, Note_on_c, 9, 69, 0
4, 88680, Note_on_c, 9, 69, 70
4, 88799, Note_on_c, 9, 69, 0
4, 88800, Note_on_c, 9, 69, 70
4, 89279, Note_on_c, 9, 69, 0
4, 89280, Note_on_c, 9, 69, 70
4, 89519, Note_on_c, 9, 69, 0
4, 89520, Note_on_c, 9, 69, 70
4, 89759, Note_on_c, 9, 69, 0
4, 90240, Note_on_c, 9, 69, 70
4, 90479, Note_on_c, 9, 69, 0
4, 90480, Note_on_c, 9, 69, 70
4, 90599, Note_on_c, 9, 69, 0
4, 90600, Note_on_c, 9, 69, 70
4, 90719, Note_on_c, 9, 69, 0
4, 90720, Note_on_c, 9, 69, 70
4, 91199, Note_on_c, 9, 69, 0
4, 91200, Note_on_c, 9, 69, 70
4, 91439, Note_on_c, 9, 69, 0
4, 91440, Note_on_c, 9, 69, 70
4, 91679, Note_on_c, 9, 69, 0
4, 92160, Note_on_c, 9, 69, 70
4, 92399, Note_on_c, 9, 69, 0
4, 92400, Note_on_c, 9, 69, 70
4, 92519, Note_on_c, 9, 69, 0
4, 92520, Note_on_c, 9, 69, 70
4, 92639, Note_on_c, 9, 69, 0
4, 92640, Note_on_c, 9, 69, 70
4, 93119, Note_on_c, 9, 69, 0
4, 93120, Note_on_c, 9, 69, 70
4, 93359, Note_on_c, 9, 69, 0
4, 93360, Note_on_c, 9, 69, 70
4, 93599, Note_on_c, 9, 69, 0
4, 94080, Note_on_c, 9, 69, 70
4, 94319, Note_on_c, 9, 69, 0
4, 94320, Note_on_c, 9, 69, 70
4, 94439, Note_on_c, 9, 69, 0
4, 94440, Note_on_c, 9, 69, 70
4, 94559, Note_on_c, 9, 69, 0
4, 94560, Note_on_c, 9, 69, 70
4, 95039, Note_on_c, 9, 69, 0
4, 95040, Note_on_c, 9, 69, 70
4, 95279, Note_on_c, 9, 69, 0
4, 95280, Note_on_c, 9, 69, 70
4, 95519, Note_on_c, 9, 69, 0
4, 96000, Note_on_c, 9, 69, 70
4, 96239, Note_on_c, 9, 69, 0
4, 96240, Note_on_c, 9, 69, 70
4, 96359, Note_on_c, 9, 69, 0
4, 96360, Note_on_c, 9, 69, 70
4, 96479, Note_on_c, 9, 69, 0
4, 96480, Note_on_c, 9, 69, 70
4, 96959, Note_on_c, 9, 69, 0
4, 96960, Note_on_c, 9, 69, 70
4, 97199, Note_on_c, 9, 69, 0
4, 97200, Note_on_c, 9, 69, 70
4, 97439, Note_on_c, 9, 69, 0
4, 97920, Note_on_c, 9, 69, 70
4, 98159, Note_on_c, 9, 69, 0
4, 98160, Note_on_c, 9, 69, 70
4, 98279, Note_on_c, 9, 69, 0
4, 98280, Note_on_c, 9, 69, 70
4, 98399, Note_on_c, 9, 69, 0
4, 98400, Note_on_c, 9, 69, 70
4, 98879, Note_on_c, 9, 69, 0
4, 98880, Note_on_c, 9, 69, 70
4, 99119, Note_on_c, 9, 69, 0
4, 99120, Note_on_c, 9, 69, 70
4, 99359, Note_on_c, 9, 69, 0
4, 107520, Note_on_c, 9, 69, 70
4, 107759, Note_on_c, 9, 69, 0
4, 107760, Note_on_c, 9, 69, 70
4, 107879, Note_on_c, 9, 69, 0
4, 107880, Note_on_c, 9, 69, 70
4, 107999, Note_on_c, 9, 69, 0
4, 108000, Note_on_c, 9, 69, 70
4, 108479, Note_on_c, 9, 69, 0
4, 108480, Note_on_c, 9, 69, 70
4, 108719, Note_on_c, 9, 69, 0
4, 108720, Note_on_c, 9, 69, 70
4, 108959, Note_on_c, 9, 69, 0
4, 109440, Note_on_c, 9, 69, 70
4, 109679, Note_on_c, 9, 69, 0
4, 109680, Note_on_c, 9, 69, 70
4, 109799, Note_on_c, 9, 69, 0
4, 109800, Note_on_c, 9, 69, 70
4, 109919, Note_on_c, 9, 69, 0
4, 109920, Note_on_c, 9, 69, 70
4, 110399, Note_on_c, 9, 69, 0
4, 110400, Note_on_c, 9, 69, 70
4, 110639, Note_on_c, 9, 69, 0
4, 110640, Note_on_c, 9, 69, 70
4, 110879, Note_on_c, 9, 69, 0
4, 111360, Note_on_c, 9, 69, 70
4, 111599, Note_on_c, 9, 69, 0
4, 111600, Note_on_c, 9, 69, 70
4, 111719, Note_on_c, 9, 69, 0
4, 111720, Note_on_c, 9, 69, 70
4, 111839, Note_on_c, 9, 69, 0
4, 111840, Note_on_c, 9, 69, 70
4, 112319, Note_on_c, 9, 69, 0
4, 112320, Note_on_c, 9, 69, 70
4, 112559, Note_on_c, 9, 69, 0
4, 112560, Note_on_c, 9, 69, 70
4, 112799, Note_on_c, 9, 69, 0
4, 115200, Note_on_c, 9, 69, 70
4, 115439, Note_on_c, 9, 69, 0
4, 115440, Note_on_c, 9, 69, 70
4, 115559, Note_on_c, 9, 69, 0
4, 115560, Note_on_c, 9, 69, 70
4, 115679, Note_on_c, 9, 69, 0
4, 115680, Note_on_c, 9, 69, 70
4, 116159, Note_on_c, 9, 69, 0
4, 116160, Note_on_c, 9, 69, 70
4, 116399, Note_on_c, 9, 69, 0
4, 116400, Note_on_c, 9, 69, 70
4, 116639, Note_on_c, 9, 69, 0
4, 117120, Note_on_c, 9, 69, 70
4, 117359, Note_on_c, 9, 69, 0
4, 117360, Note_on_c, 9, 69, 70
4, 117479, Note_on_c, 9, 69, 0
4, 117480, Note_on_c, 9, 69, 70
4, 117599, Note_on_c, 9, 69, 0
4, 117600, Note_on_c, 9, 69, 70
4, 118079, Note_on_c, 9, 69, 0
4, 118080, Note_on_c, 9, 69, 70
4, 118319, Note_on_c, 9, 69, 0
4, 118320, Note_on_c, 9, 69, 70
4, 118559, Note_on_c, 9, 69, 0
4, 119040, Note_on_c, 9, 69, 70
4, 119279, Note_on_c, 9, 69, 0
4, 119280, Note_on_c, 9, 69, 70
4, 119399, Note_on_c, 9, 69, 0
4, 119400, Note_on_c, 9, 69, 70
4, 119519, Note_on_c, 9, 69, 0
4, 119520, Note_on_c, 9, 69, 70
4, 119999, Note_on_c, 9, 69, 0
4, 120000, Note_on_c, 9, 69, 70
4, 120239, Note_on_c, 9, 69, 0
4, 120240, Note_on_c, 9, 69, 70
4, 120479, Note_on_c, 9, 69, 0
4, 120960, Note_on_c, 9, 69, 70
4, 121199, Note_on_c, 9, 69, 0
4, 121200, Note_on_c, 9, 69, 70
4, 121319, Note_on_c, 9, 69, 0
4, 121320, Note_on_c, 9, 69, 70
4, 121439, Note_on_c, 9, 69, 0
4, 121440, Note_on_c, 9, 69, 70
4, 121919, Note_on_c, 9, 69, 0
4, 121920, Note_on_c, 9, 69, 70
4, 122159, Note_on_c, 9, 69, 0
4, 122160, Note_on_c, 9, 69, 70
4, 122399, Note_on_c, 9, 69, 0
4, 122880, Note_on_c, 9, 69, 70
4, 123119, Note_on_c, 9, 69, 0
4, 123120, Note_on_c, 9, 69, 70
4, 123239, Note_on_c, 9, 69, 0
4, 123240, Note_on_c, 9, 69, 70
4, 123359, Note_on_c, 9, 69, 0
4, 123360, Note_on_c, 9, 69, 70
4, 123839, Note_on_c, 9, 69, 0
4, 123840, Note_on_c, 9, 69, 70
4, 124079, Note_on_c, 9, 69, 0
4, 124080, Note_on_c, 9, 69, 70
4, 124319, Note_on_c, 9, 69, 0
4, 124800, Note_on_c, 9, 69, 70
4, 125039, Note_on_c, 9, 69, 0
4, 125040, Note_on_c, 9, 69, 70
4, 125159, Note_on_c, 9, 69, 0
4, 125160, Note_on_c, 9, 69, 70
4, 125279, Note_on_c, 9, 69, 0
4, 125280, Note_on_c, 9, 69, 70
4, 125759, Note_on_c, 9, 69, 0
4, 125760, Note_on_c, 9, 69, 70
4, 125999, Note_on_c, 9, 69, 0
4, 126000, Note_on_c, 9, 69, 70
4, 126239, Note_on_c, 9, 69, 0
4, 126720, Note_on_c, 9, 69, 70
4, 126959, Note_on_c, 9, 69, 0
4, 126960, Note_on_c, 9, 69, 70
4, 127079, Note_on_c, 9, 69, 0
4, 127080, Note_on_c, 9, 69, 70
4, 127199, Note_on_c, 9, 69, 0
4, 127200, Note_on_c, 9, 69, 70
4, 127679, Note_on_c, 9, 69, 0
4, 127680, Note_on_c, 9, 69, 70
4, 127919, Note_on_c, 9, 69, 0
4, 127920, Note_on_c, 9, 69, 70
4, 128159, Note_on_c, 9, 69, 0
4, 128640, Note_on_c, 9, 69, 70
4, 128879, Note_on_c, 9, 69, 0
4, 128880, Note_on_c, 9, 69, 70
4, 128999, Note_on_c, 9, 69, 0
4, 129000, Note_on_c, 9, 69, 70
4, 129119, Note_on_c, 9, 69, 0
4, 129120, Note_on_c, 9, 69, 70
4, 129599, Note_on_c, 9, 69, 0
4, 129600, Note_on_c, 9, 69, 70
4, 129839, Note_on_c, 9, 69, 0
4, 129840, Note_on_c, 9, 69, 70
4, 130079, Note_on_c, 9, 69, 0
4, 138480, Note_on_c, 9, 69, 70
4, 138599, Note_on_c, 9, 69, 0
4, 138600, Note_on_c, 9, 69, 70
4, 138719, Note_on_c, 9, 69, 0
4, 138720, Note_on_c, 9, 69, 70
4, 139199, Note_on_c, 9, 69, 0
4, 139200, Note_on_c, 9, 69, 70
4, 139439, Note_on_c, 9, 69, 0
4, 139440, Note_on_c, 9, 69, 70
4, 139679, Note_on_c, 9, 69, 0
4, 140400, Note_on_c, 9, 69, 70
4, 140519, Note_on_c, 9, 69, 0
4, 140520, Note_on_c, 9, 69, 70
4, 140639, Note_on_c, 9, 69, 0
4, 140640, Note_on_c, 9, 69, 70
4, 141119, Note_on_c, 9, 69, 0
4, 141120, Note_on_c, 9, 69, 70
4, 141359, Note_on_c, 9, 69, 0
4, 141360, Note_on_c, 9, 69, 70
4, 141599, Note_on_c, 9, 69, 0
4, 142320, Note_on_c, 9, 69, 70
4, 142439, Note_on_c, 9, 69, 0
4, 142440, Note_on_c, 9, 69, 70
4, 142559, Note_on_c, 9, 69, 0
4, 142560, Note_on_c, 9, 69, 70
4, 143039, Note_on_c, 9, 69, 0
4, 143040, Note_on_c, 9, 69, 70
4, 143279, Note_on_c, 9, 69, 0
4, 143280, Note_on_c, 9, 69, 70
4, 143519, Note_on_c, 9, 69, 0
4, 144240, Note_on_c, 9, 69, 70
4, 144359, Note_on_c, 9, 69, 0
4, 144360, Note_on_c, 9, 69, 70
4, 144479, Note_on_c, 9, 69, 0
4, 144480, Note_on_c, 9, 69, 70
4, 144959, Note_on_c, 9, 69, 0
4, 144960, Note_on_c, 9, 69, 70
4, 145199, Note_on_c, 9, 69, 0
4, 145200, Note_on_c, 9, 69, 70
4, 145439, Note_on_c, 9, 69, 0
4, 146160, Note_on_c, 9, 69, 70
4, 146279, Note_on_c, 9, 69, 0
4, 146280, Note_on_c, 9, 69, 70
4, 146399, Note_on_c, 9, 69, 0
4, 146400, Note_on_c, 9, 69, 70
4, 146879, Note_on_c, 9, 69, 0
4, 146880, Note_on_c, 9, 69, 70
4, 147119, Note_on_c, 9, 69, 0
4, 147120, Note_on_c, 9, 69, 70
4, 147359, Note_on_c, 9, 69, 0
4, 148080, Note_on_c, 9, 69, 70
4, 148199, Note_on_c, 9, 69, 0
4, 148200, Note_on_c, 9, 69, 70
4, 148319, Note_on_c, 9, 69, 0
4, 148320, Note_on_c, 9, 69, 70
4, 148799, Note_on_c, 9, 69, 0
4, 148800, Note_on_c, 9, 69, 70
4, 149039, Note_on_c, 9, 69, 0
4, 149040, Note_on_c, 9, 69, 70
4, 149279, Note_on_c, 9, 69, 0
4, 150000, Note_on_c, 9, 69, 70
4, 150119, Note_on_c, 9, 69, 0
4, 150120, Note_on_c, 9, 69, 70
4, 150239, Note_on_c, 9, 69, 0
4, 150240, Note_on_c, 9, 69, 70
4, 150719, Note_on_c, 9, 69, 0
4, 150720, Note_on_c, 9, 69, 70
4, 150959, Note_on_c, 9, 69, 0
4, 150960, Note_on_c, 9, 69, 70
4, 151199, Note_on_c, 9, 69, 0
4, 151920, Note_on_c, 9, 69, 70
4, 152039, Note_on_c, 9, 69, 0
4, 152040, Note_on_c, 9, 69, 70
4, 152159, Note_on_c, 9, 69, 0
4, 152160, Note_on_c, 9, 69, 70
4, 152639, Note_on_c, 9, 69, 0
4, 152640, Note_on_c, 9, 69, 70
4, 152879, Note_on_c, 9, 69, 0
4, 152880, Note_on_c, 9, 69, 70
4, 153119, Note_on_c, 9, 69, 0
4, 153840, Note_on_c, 9, 69, 70
4, 153959, Note_on_c, 9, 69, 0
4, 153960, Note_on_c, 9, 69, 70
4, 154079, Note_on_c, 9, 69, 0
4, 154080, Note_on_c, 9, 69, 70
4, 154559, Note_on_c, 9, 69, 0
4, 154560, Note_on_c, 9, 69, 70
4, 154799, Note_on_c, 9, 69, 0
4, 154800, Note_on_c, 9, 69, 70
4, 155039, Note_on_c, 9, 69, 0
4, 155040, End_track
5, 0, Start_track
5, 0, Key_signature, 0, "major"
5, 0, Control_c, 9, 121, 0
5, 0, Program_c, 9, 0
5, 0, Control_c, 9, 7, 100
5, 0, Control_c, 9, 10, 64
5, 0, Control_c, 9, 91, 0
5, 0, Control_c, 9, 93, 0
5, 0, MIDI_port, 0
5, 0, Note_on_c, 9, 35, 50
5, 479, Note_on_c, 9, 35, 0
5, 960, Note_on_c, 9, 35, 50
5, 1439, Note_on_c, 9, 35, 0
5, 1920, Note_on_c, 9, 35, 50
5, 2399, Note_on_c, 9, 35, 0
5, 2880, Note_on_c, 9, 35, 50
5, 3359, Note_on_c, 9, 35, 0
5, 3840, Note_on_c, 9, 35, 50
5, 4319, Note_on_c, 9, 35, 0
5, 4800, Note_on_c, 9, 35, 50
5, 5279, Note_on_c, 9, 35, 0
5, 5760, Note_on_c, 9, 35, 50
5, 6239, Note_on_c, 9, 35, 0
5, 6720, Note_on_c, 9, 35, 50
5, 7199, Note_on_c, 9, 35, 0
5, 7680, Note_on_c, 9, 35, 50
5, 8159, Note_on_c, 9, 35, 0
5, 8640, Note_on_c, 9, 35, 50
5, 9119, Note_on_c, 9, 35, 0
5, 9600, Note_on_c, 9, 35, 50
5, 10079, Note_on_c, 9, 35, 0
5, 10560, Note_on_c, 9, 35, 50
5, 11039, Note_on_c, 9, 35, 0
5, 11520, Note_on_c, 9, 35, 50
5, 11999, Note_on_c, 9, 35, 0
5, 12480, Note_on_c, 9, 35, 50
5, 12959, Note_on_c, 9, 35, 0
5, 13440, Note_on_c, 9, 35, 50
5, 13919, Note_on_c, 9, 35, 0
5, 14400, Note_on_c, 9, 35, 50
5, 14879, Note_on_c, 9, 35, 0
5, 15360, Note_on_c, 9, 35, 50
5, 15839, Note_on_c, 9, 35, 0
5, 16320, Note_on_c, 9, 35, 50
5, 16799, Note_on_c, 9, 35, 0
5, 17280, Note_on_c, 9, 35, 50
5, 17759, Note_on_c, 9, 35, 0
5, 18240, Note_on_c, 9, 35, 50
5, 18719, Note_on_c, 9, 35, 0
5, 19200, Note_on_c, 9, 35, 50
5, 19679, Note_on_c, 9, 35, 0
5, 20160, Note_on_c, 9, 35, 50
5, 20639, Note_on_c, 9, 35, 0
5, 21120, Note_on_c, 9, 35, 50
5, 21599, Note_on_c, 9, 35, 0
5, 22080, Note_on_c, 9, 35, 50
5, 22559, Note_on_c, 9, 35, 0
5, 23520, Note_on_c, 9, 35, 50
5, 23759, Note_on_c, 9, 35, 0
5, 23760, Note_on_c, 9, 35, 50
5, 23999, Note_on_c, 9, 35, 0
5, 24480, Note_on_c, 9, 35, 50
5, 24959, Note_on_c, 9, 35, 0
5, 25440, Note_on_c, 9, 35, 50
5, 25679, Note_on_c, 9, 35, 0
5, 25680, Note_on_c, 9, 35, 50
5, 25919, Note_on_c, 9, 35, 0
5, 26400, Note_on_c, 9, 35, 50
5, 26879, Note_on_c, 9, 35, 0
5, 27360, Note_on_c, 9, 35, 50
5, 27599, Note_on_c, 9, 35, 0
5, 27600, Note_on_c, 9, 35, 50
5, 27839, Note_on_c, 9, 35, 0
5, 28320, Note_on_c, 9, 35, 50
5, 28799, Note_on_c, 9, 35, 0
5, 29280, Note_on_c, 9, 35, 50
5, 29519, Note_on_c, 9, 35, 0
5, 29520, Note_on_c, 9, 35, 50
5, 29759, Note_on_c, 9, 35, 0
5, 30240, Note_on_c, 9, 35, 50
5, 30719, Note_on_c, 9, 35, 0
5, 30720, Note_on_c, 9, 35, 50
5, 31199, Note_on_c, 9, 35, 0
5, 31680, Note_on_c, 9, 35, 50
5, 32159, Note_on_c, 9, 35, 0
5, 32640, Note_on_c, 9, 35, 50
5, 33119, Note_on_c, 9, 35, 0
5, 33600, Note_on_c, 9, 35, 50
5, 34079, Note_on_c, 9, 35, 0
5, 34560, Note_on_c, 9, 35, 50
5, 35039, Note_on_c, 9, 35, 0
5, 35520, Note_on_c, 9, 35, 50
5, 35999, Note_on_c, 9, 35, 0
5, 38400, Note_on_c, 9, 35, 50
5, 38879, Note_on_c, 9, 35, 0
5, 39360, Note_on_c, 9, 35, 50
5, 39839, Note_on_c, 9, 35, 0
5, 40320, Note_on_c, 9, 35, 50
5, 40799, Note_on_c, 9, 35, 0
5, 41280, Note_on_c, 9, 35, 50
5, 41759, Note_on_c, 9, 35, 0
5, 42240, Note_on_c, 9, 35, 50
5, 42719, Note_on_c, 9, 35, 0
5, 43200, Note_on_c, 9, 35, 50
5, 43679, Note_on_c, 9, 35, 0
5, 44160, Note_on_c, 9, 35, 50
5, 44639, Note_on_c, 9, 35, 0
5, 45120, Note_on_c, 9, 35, 50
5, 45599, Note_on_c, 9, 35, 0
5, 46080, Note_on_c, 9, 35, 50
5, 46559, Note_on_c, 9, 35, 0
5, 47040, Note_on_c, 9, 35, 50
5, 47519, Note_on_c, 9, 35, 0
5, 48000, Note_on_c, 9, 35, 50
5, 48479, Note_on_c, 9, 35, 0
5, 48960, Note_on_c, 9, 35, 50
5, 49439, Note_on_c, 9, 35, 0
5, 49920, Note_on_c, 9, 35, 50
5, 50399, Note_on_c, 9, 35, 0
5, 50880, Note_on_c, 9, 35, 50
5, 51359, Note_on_c, 9, 35, 0
5, 51840, Note_on_c, 9, 35, 50
5, 52319, Note_on_c, 9, 35, 0
5, 52800, Note_on_c, 9, 35, 50
5, 53279, Note_on_c, 9, 35, 0
5, 54240, Note_on_c, 9, 35, 50
5, 54479, Note_on_c, 9, 35, 0
5, 54480, Note_on_c, 9, 35, 50
5, 54719, Note_on_c, 9, 35, 0
5, 55200, Note_on_c, 9, 35, 50
5, 55679, Note_on_c, 9, 35, 0
5, 56160, Note_on_c, 9, 35, 50
5, 56399, Note_on_c, 9, 35, 0
5, 56400, Note_on_c, 9, 35, 50
5, 56639, Note_on_c, 9, 35, 0
5, 57120, Note_on_c, 9, 35, 50
5, 57599, Note_on_c, 9, 35, 0
5, 58080, Note_on_c, 9, 35, 50
5, 58319, Note_on_c, 9, 35, 0
5, 58320, Note_on_c, 9, 35, 50
5, 58559, Note_on_c, 9, 35, 0
5, 59040, Note_on_c, 9, 35, 50
5, 59519, Note_on_c, 9, 35, 0
5, 60000, Note_on_c, 9, 35, 50
5, 60239, Note_on_c, 9, 35, 0
5, 60240, Note_on_c, 9, 35, 50
5, 60479, Note_on_c, 9, 35, 0
5, 60960, Note_on_c, 9, 35, 50
5, 61439, Note_on_c, 9, 35, 0
5, 61440, Note_on_c, 9, 35, 50
5, 61919, Note_on_c, 9, 35, 0
5, 62400, Note_on_c, 9, 35, 50
5, 62879, Note_on_c, 9, 35, 0
5, 63360, Note_on_c, 9, 35, 50
5, 63839, Note_on_c, 9, 35, 0
5, 64320, Note_on_c, 9, 35, 50
5, 64799, Note_on_c, 9, 35, 0
5, 65280, Note_on_c, 9, 35, 50
5, 65759, Note_on_c, 9, 35, 0
5, 66240, Note_on_c, 9, 35, 50
5, 66719, Note_on_c, 9, 35, 0
5, 69120, Note_on_c, 9, 35, 50
5, 69599, Note_on_c, 9, 35, 0
5, 70080, Note_on_c, 9, 35, 50
5, 70559, Note_on_c, 9, 35, 0
5, 71040, Note_on_c, 9, 35, 50
5, 71519, Note_on_c, 9, 35, 0
5, 72000, Note_on_c, 9, 35, 50
5, 72479, Note_on_c, 9, 35, 0
5, 72960, Note_on_c, 9, 35, 50
5, 73439, Note_on_c, 9, 35, 0
5, 73920, Note_on_c, 9, 35, 50
5, 74399, Note_on_c, 9, 35, 0
5, 74880, Note_on_c, 9, 35, 50
5, 75359, Note_on_c, 9, 35, 0
5, 75840, Note_on_c, 9, 35, 50
5, 76319, Note_on_c, 9, 35, 0
5, 76800, Note_on_c, 9, 35, 50
5, 77279, Note_on_c, 9, 35, 0
5, 77760, Note_on_c, 9, 35, 50
5, 78239, Note_on_c, 9, 35, 0
5, 78720, Note_on_c, 9, 35, 50
5, 79199, Note_on_c, 9, 35, 0
5, 79680, Note_on_c, 9, 35, 50
5, 80159, Note_on_c, 9, 35, 0
5, 84480, Note_on_c, 9, 35, 50
5, 84959, Note_on_c, 9, 35, 0
5, 85440, Note_on_c, 9, 35, 50
5, 85919, Note_on_c, 9, 35, 0
5, 86400, Note_on_c, 9, 35, 50
5, 86879, Note_on_c, 9, 35, 0
5, 87360, Note_on_c, 9, 35, 50
5, 87839, Note_on_c, 9, 35, 0
5, 88320, Note_on_c, 9, 35, 50
5, 88799, Note_on_c, 9, 35, 0
5, 89280, Note_on_c, 9, 35, 50
5, 89759, Note_on_c, 9, 35, 0
5, 90240, Note_on_c, 9, 35, 50
5, 90719, Note_on_c, 9, 35, 0
5, 91200, Note_on_c, 9, 35, 50
5, 91679, Note_on_c, 9, 35, 0
5, 92160, Note_on_c, 9, 35, 50
5, 92639, Note_on_c, 9, 35, 0
5, 93120, Note_on_c, 9, 35, 50
5, 93599, Note_on_c, 9, 35, 0
5, 94080, Note_on_c, 9, 35, 50
5, 94559, Note_on_c, 9, 35, 0
5, 95040, Note_on_c, 9, 35, 50
5, 95519, Note_on_c, 9, 35, 0
5, 96000, Note_on_c, 9, 35, 50
5, 96479, Note_on_c, 9, 35, 0
5, 96960, Note_on_c, 9, 35, 50
5, 97439, Note_on_c, 9, 35, 0
5, 97920, Note_on_c, 9, 35, 50
5, 98399, Note_on_c, 9, 35, 0
5, 98880, Note_on_c, 9, 35, 50
5, 99359, Note_on_c, 9, 35, 0
5, 100320, Note_on_c, 9, 35, 50
5, 100559, Note_on_c, 9, 35, 0
5, 100560, Note_on_c, 9, 35, 50
5, 100799, Note_on_c, 9, 35, 0
5, 101280, Note_on_c, 9, 35, 50
5, 101759, Note_on_c, 9, 35, 0
5, 102240, Note_on_c, 9, 35, 50
5, 102479, Note_on_c, 9, 35, 0
5, 102480, Note_on_c, 9, 35, 50
5, 102719, Note_on_c, 9, 35, 0
5, 103200, Note_on_c, 9, 35, 50
5, 103679, Note_on_c, 9, 35, 0
5, 104160, Note_on_c, 9, 35, 50
5, 104399, Note_on_c, 9, 35, 0
5, 104400, Note_on_c, 9, 35, 50
5, 104639, Note_on_c, 9, 35, 0
5, 105120, Note_on_c, 9, 35, 50
5, 105599, Note_on_c, 9, 35, 0
5, 106080, Note_on_c, 9, 35, 50
5, 106319, Note_on_c, 9, 35, 0
5, 106320, Note_on_c, 9, 35, 50
5, 106559, Note_on_c, 9, 35, 0
5, 107040, Note_on_c, 9, 35, 50
5, 107519, Note_on_c, 9, 35, 0
5, 107520, Note_on_c, 9, 35, 50
5, 107999, Note_on_c, 9, 35, 0
5, 108480, Note_on_c, 9, 35, 50
5, 108959, Note_on_c, 9, 35, 0
5, 109440, Note_on_c, 9, 35, 50
5, 109919, Note_on_c, 9, 35, 0
5, 110400, Note_on_c, 9, 35, 50
5, 110879, Note_on_c, 9, 35, 0
5, 111360, Note_on_c, 9, 35, 50
5, 111839, Note_on_c, 9, 35, 0
5, 112320, Note_on_c, 9, 35, 50
5, 112799, Note_on_c, 9, 35, 0
5, 115200, Note_on_c, 9, 35, 50
5, 115679, Note_on_c, 9, 35, 0
5, 116160, Note_on_c, 9, 35, 50
5, 116639, Note_on_c, 9, 35, 0
5, 117120, Note_on_c, 9, 35, 50
5, 117599, Note_on_c, 9, 35, 0
5, 118080, Note_on_c, 9, 35, 50
5, 118559, Note_on_c, 9, 35, 0
5, 119040, Note_on_c, 9, 35, 50
5, 119519, Note_on_c, 9, 35, 0
5, 120000, Note_on_c, 9, 35, 50
5, 120479, Note_on_c, 9, 35, 0
5, 120960, Note_on_c, 9, 35, 50
5, 121439, Note_on_c, 9, 35, 0
5, 121920, Note_on_c, 9, 35, 50
5, 122399, Note_on_c, 9, 35, 0
5, 122880, Note_on_c, 9, 35, 50
5, 123359, Note_on_c, 9, 35, 0
5, 123840, Note_on_c, 9, 35, 50
5, 124319, Note_on_c, 9, 35, 0
5, 124800, Note_on_c, 9, 35, 50
5, 125279, Note_on_c, 9, 35, 0
5, 125760, Note_on_c, 9, 35, 50
5, 126239, Note_on_c, 9, 35, 0
5, 126720, Note_on_c, 9, 35, 50
5, 127199, Note_on_c, 9, 35, 0
5, 127680, Note_on_c, 9, 35, 50
5, 128159, Note_on_c, 9, 35, 0
5, 128640, Note_on_c, 9, 35, 50
5, 129119, Note_on_c, 9, 35, 0
5, 129600, Note_on_c, 9, 35, 50
5, 130079, Note_on_c, 9, 35, 0
5, 131040, Note_on_c, 9, 35, 50
5, 131279, Note_on_c, 9, 35, 0
5, 131280, Note_on_c, 9, 35, 50
5, 131519, Note_on_c, 9, 35, 0
5, 132000, Note_on_c, 9, 35, 50
5, 132479, Note_on_c, 9, 35, 0
5, 132960, Note_on_c, 9, 35, 50
5, 133199, Note_on_c, 9, 35, 0
5, 133200, Note_on_c, 9, 35, 50
5, 133439, Note_on_c, 9, 35, 0
5, 133920, Note_on_c, 9, 35, 50
5, 134399, Note_on_c, 9, 35, 0
5, 134880, Note_on_c, 9, 35, 50
5, 135119, Note_on_c, 9, 35, 0
5, 135120, Note_on_c, 9, 35, 50
5, 135359, Note_on_c, 9, 35, 0
5, 135840, Note_on_c, 9, 35, 50
5, 136319, Note_on_c, 9, 35, 0
5, 136800, Note_on_c, 9, 35, 50
5, 137039, Note_on_c, 9, 35, 0
5, 137040, Note_on_c, 9, 35, 50
5, 137279, Note_on_c, 9, 35, 0
5, 137760, Note_on_c, 9, 35, 50
5, 138239, Note_on_c, 9, 35, 0
5, 138240, Note_on_c, 9, 35, 50
5, 138719, Note_on_c, 9, 35, 0
5, 139200, Note_on_c, 9, 35, 50
5, 139679, Note_on_c, 9, 35, 0
5, 140160, Note_on_c, 9, 35, 50
5, 140639, Note_on_c, 9, 35, 0
5, 141120, Note_on_c, 9, 35, 50
5, 141599, Note_on_c, 9, 35, 0
5, 142080, Note_on_c, 9, 35, 50
5, 142559, Note_on_c, 9, 35, 0
5, 143040, Note_on_c, 9, 35, 50
5, 143519, Note_on_c, 9, 35, 0
5, 144000, Note_on_c, 9, 35, 50
5, 144479, Note_on_c, 9, 35, 0
5, 144960, Note_on_c, 9, 35, 50
5, 145439, Note_on_c, 9, 35, 0
5, 145920, Note_on_c, 9, 35, 50
5, 146399, Note_on_c, 9, 35, 0
5, 146880, Note_on_c, 9, 35, 50
5, 147359, Note_on_c, 9, 35, 0
5, 147840, Note_on_c, 9, 35, 50
5, 148319, Note_on_c, 9, 35, 0
5, 148800, Note_on_c, 9, 35, 50
5, 149279, Note_on_c, 9, 35, 0
5, 149760, Note_on_c, 9, 35, 50
5, 150239, Note_on_c, 9, 35, 0
5, 150720, Note_on_c, 9, 35, 50
5, 151199, Note_on_c, 9, 35, 0
5, 151680, Note_on_c, 9, 35, 50
5, 152159, Note_on_c, 9, 35, 0
5, 152640, Note_on_c, 9, 35, 50
5, 153119, Note_on_c, 9, 35, 0
5, 153600, Note_on_c, 9, 35, 50
5, 154079, Note_on_c, 9, 35, 0
5, 154560, Note_on_c, 9, 35, 50
5, 155039, Note_on_c, 9, 35, 0
5, 155040, End_track
0, 0, End_of_file
