0, 0, Header, 1, 1, 480
1, 0, Start_track
1, 0, Time_signature, 4, 2, 24, 8
1, 0, Key_signature, 0, "major"
1, 0, Tempo, 606061
1, 0, Control_c, 9, 121, 0
1, 0, Program_c, 9, 0
1, 0, Control_c, 9, 7, 100
1, 0, Control_c, 9, 10, 64
1, 0, Control_c, 9, 91, 0
1, 0, Control_c, 9, 93, 0
1, 0, MIDI_port, 0
1, 3840, Note_on_c, 9, 36, 123
1, 4079, Note_on_c, 9, 36, 0
1, 4080, Note_on_c, 9, 36, 123
1, 4319, Note_on_c, 9, 36, 0
1, 4320, Note_on_c, 9, 38, 121
1, 4480, Note_on_c, 9, 36, 123
1, 4499, Note_on_c, 9, 36, 0
1, 4799, Note_on_c, 9, 38, 0
1, 4800, Note_on_c, 9, 36, 123
1, 5039, Note_on_c, 9, 36, 0
1, 5040, Note_on_c, 9, 36, 123
1, 5279, Note_on_c, 9, 36, 0
1, 5280, Note_on_c, 9, 38, 121
1, 5759, Note_on_c, 9, 38, 0
1, 5760, Note_on_c, 9, 36, 123
1, 5999, Note_on_c, 9, 36, 0
1, 6000, Note_on_c, 9, 36, 123
1, 6239, Note_on_c, 9, 36, 0
1, 6240, Note_on_c, 9, 38, 121
1, 6400, Note_on_c, 9, 36, 123
1, 6419, Note_on_c, 9, 36, 0
1, 6719, Note_on_c, 9, 38, 0
1, 6720, Note_on_c, 9, 36, 123
1, 6720, Note_on_c, 9, 43, 124
1, 6959, Note_on_c, 9, 36, 0
1, 6959, Note_on_c, 9, 43, 0
1, 6960, Note_on_c, 9, 45, 122
1, 6960, Note_on_c, 9, 36, 123
1, 7199, Note_on_c, 9, 45, 0
1, 7199, Note_on_c, 9, 36, 0
1, 7200, Note_on_c, 9, 38, 121
1, 7319, Note_on_c, 9, 38, 0
1, 7360, Note_on_c, 9, 38, 121
1, 7379, Note_on_c, 9, 38, 0
1, 7440, Note_on_c, 9, 38, 121
1, 7559, Note_on_c, 9, 38, 0
1, 7600, Note_on_c, 9, 38, 121
1, 7619, Note_on_c, 9, 38, 0
1, 7680, Note_on_c, 9, 49, 123
1, 7680, Note_on_c, 9, 36, 123
1, 7919, Note_on_c, 9, 36, 0
1, 7920, Note_on_c, 9, 36, 123
1, 8159, Note_on_c, 9, 49, 0
1, 8159, Note_on_c, 9, 36, 0
1, 8160, Note_on_c, 9, 38, 121
1, 8320, Note_on_c, 9, 36, 123
1, 8339, Note_on_c, 9, 36, 0
1, 8639, Note_on_c, 9, 38, 0
1, 8640, Note_on_c, 9, 36, 123
1, 8879, Note_on_c, 9, 36, 0
1, 8880, Note_on_c, 9, 36, 123
1, 9119, Note_on_c, 9, 36, 0
1, 9120, Note_on_c, 9, 38, 121
1, 9599, Note_on_c, 9, 38, 0
1, 9600, Note_on_c, 9, 36, 123
1, 9839, Note_on_c, 9, 36, 0
1, 9840, Note_on_c, 9, 36, 123
1, 10079, Note_on_c, 9, 36, 0
1, 10080, Note_on_c, 9, 38, 121
1, 10240, Note_on_c, 9, 36, 123
1, 10259, Note_on_c, 9, 36, 0
1, 10559, Note_on_c, 9, 38, 0
1, 10560, Note_on_c, 9, 36, 123
1, 10799, Note_on_c, 9, 36, 0
1, 10800, Note_on_c, 9, 36, 123
1, 11039, Note_on_c, 9, 36, 0
1, 11040, Note_on_c, 9, 38, 121
1, 11519, Note_on_c, 9, 38, 0
1, 11520, Note_on_c, 9, 36, 123
1, 11759, Note_on_c, 9, 36, 0
1, 11760, Note_on_c, 9, 36, 123
1, 11999, Note_on_c, 9, 36, 0
1, 12000, Note_on_c, 9, 38, 121
1, 12160, Note_on_c, 9, 36, 123
1, 12179, Note_on_c, 9, 36, 0
1, 12479, Note_on_c, 9, 38, 0
1, 12480, Note_on_c, 9, 36, 123
1, 12719, Note_on_c, 9, 36, 0
1, 12720, Note_on_c, 9, 36, 123
1, 12959, Note_on_c, 9, 36, 0
1, 12960, Note_on_c, 9, 38, 121
1, 13439, Note_on_c, 9, 38, 0
1, 13440, Note_on_c, 9, 36, 123
1, 13679, Note_on_c, 9, 36, 0
1, 13680, Note_on_c, 9, 36, 123
1, 13919, Note_on_c, 9, 36, 0
1, 13920, Note_on_c, 9, 38, 121
1, 14080, Note_on_c, 9, 36, 123
1, 14099, Note_on_c, 9, 36, 0
1, 14399, Note_on_c, 9, 38, 0
1, 14400, Note_on_c, 9, 36, 118
1, 14519, Note_on_c, 9, 36, 0
1, 14560, Note_on_c, 9, 36, 120
1, 14579, Note_on_c, 9, 36, 0
1, 14640, Note_on_c, 9, 36, 123
1, 14879, Note_on_c, 9, 36, 0
1, 14880, Note_on_c, 9, 38, 121
1, 15119, Note_on_c, 9, 38, 0
1, 15120, Note_on_c, 9, 41, 122
1, 15359, Note_on_c, 9, 41, 0
1, 15360, Note_on_c, 9, 49, 123
1, 15360, Note_on_c, 9, 36, 123
1, 15599, Note_on_c, 9, 36, 0
1, 15600, Note_on_c, 9, 36, 123
1, 15839, Note_on_c, 9, 49, 0
1, 15839, Note_on_c, 9, 36, 0
1, 15840, Note_on_c, 9, 38, 121
1, 16000, Note_on_c, 9, 36, 123
1, 16019, Note_on_c, 9, 36, 0
1, 16319, Note_on_c, 9, 38, 0
1, 16320, Note_on_c, 9, 36, 123
1, 16559, Note_on_c, 9, 36, 0
1, 16560, Note_on_c, 9, 36, 123
1, 16799, Note_on_c, 9, 36, 0
1, 16800, Note_on_c, 9, 38, 121
1, 17279, Note_on_c, 9, 38, 0
1, 17280, Note_on_c, 9, 36, 123
1, 17519, Note_on_c, 9, 36, 0
1, 17520, Note_on_c, 9, 36, 123
1, 17759, Note_on_c, 9, 36, 0
1, 17760, Note_on_c, 9, 38, 121
1, 17920, Note_on_c, 9, 36, 123
1, 17939, Note_on_c, 9, 36, 0
1, 18239, Note_on_c, 9, 38, 0
1, 18240, Note_on_c, 9, 36, 123
1, 18479, Note_on_c, 9, 36, 0
1, 18480, Note_on_c, 9, 36, 123
1, 18719, Note_on_c, 9, 36, 0
1, 18720, Note_on_c, 9, 38, 121
1, 19199, Note_on_c, 9, 38, 0
1, 19200, Note_on_c, 9, 36, 123
1, 19439, Note_on_c, 9, 36, 0
1, 19440, Note_on_c, 9, 36, 123
1, 19679, Note_on_c, 9, 36, 0
1, 19680, Note_on_c, 9, 38, 121
1, 19840, Note_on_c, 9, 36, 123
1, 19859, Note_on_c, 9, 36, 0
1, 20159, Note_on_c, 9, 38, 0
1, 20160, Note_on_c, 9, 36, 123
1, 20399, Note_on_c, 9, 36, 0
1, 20400, Note_on_c, 9, 36, 123
1, 20639, Note_on_c, 9, 36, 0
1, 20640, Note_on_c, 9, 38, 121
1, 21119, Note_on_c, 9, 38, 0
1, 21120, Note_on_c, 9, 36, 123
1, 21359, Note_on_c, 9, 36, 0
1, 21360, Note_on_c, 9, 36, 123
1, 21599, Note_on_c, 9, 36, 0
1, 21600, Note_on_c, 9, 38, 121
1, 21760, Note_on_c, 9, 36, 123
1, 21779, Note_on_c, 9, 36, 0
1, 22079, Note_on_c, 9, 38, 0
1, 22080, Note_on_c, 9, 41, 122
1, 22080, Note_on_c, 9, 38, 121
1, 22080, Note_on_c, 9, 47, 122
1, 22080, Note_on_c, 9, 30, 123
1, 22080, Note_on_c, 9, 36, 123
1, 22199, Note_on_c, 9, 41, 0
1, 22199, Note_on_c, 9, 38, 0
1, 22199, Note_on_c, 9, 47, 0
1, 22199, Note_on_c, 9, 30, 0
1, 22240, Note_on_c, 9, 38, 112
1, 22319, Note_on_c, 9, 36, 0
1, 22319, Note_on_c, 9, 38, 0
1, 22320, Note_on_c, 9, 38, 121
1, 22320, Note_on_c, 9, 43, 122
1, 22334, Note_on_c, 9, 38, 0
1, 22335, Note_on_c, 9, 41, 122
1, 22335, Note_on_c, 9, 47, 122
1, 22335, Note_on_c, 9, 30, 123
1, 22379, Note_on_c, 9, 41, 0
1, 22379, Note_on_c, 9, 47, 0
1, 22379, Note_on_c, 9, 30, 0
1, 22480, Note_on_c, 9, 38, 112
1, 22559, Note_on_c, 9, 43, 0
1, 22559, Note_on_c, 9, 38, 0
1, 22560, Note_on_c, 9, 41, 122
1, 22560, Note_on_c, 9, 38, 121
1, 22560, Note_on_c, 9, 47, 122
1, 22560, Note_on_c, 9, 30, 123
1, 22560, Note_on_c, 9, 43, 122
1, 22799, Note_on_c, 9, 41, 0
1, 22799, Note_on_c, 9, 38, 0
1, 22799, Note_on_c, 9, 47, 0
1, 22799, Note_on_c, 9, 30, 0
1, 22799, Note_on_c, 9, 43, 0
1, 22800, Note_on_c, 9, 38, 121
1, 22800, Note_on_c, 9, 43, 122
1, 22814, Note_on_c, 9, 38, 0
1, 22815, Note_on_c, 9, 41, 122
1, 22815, Note_on_c, 9, 47, 122
1, 22815, Note_on_c, 9, 30, 123
1, 23039, Note_on_c, 9, 43, 0
1, 23039, Note_on_c, 9, 41, 0
1, 23039, Note_on_c, 9, 47, 0
1, 23039, Note_on_c, 9, 30, 0
1, 23040, Note_on_c, 9, 49, 123
1, 23040, Note_on_c, 9, 36, 123
1, 23279, Note_on_c, 9, 36, 0
1, 23280, Note_on_c, 9, 36, 123
1, 23519, Note_on_c, 9, 49, 0
1, 23519, Note_on_c, 9, 36, 0
1, 23520, Note_on_c, 9, 38, 121
1, 23680, Note_on_c, 9, 36, 123
1, 23699, Note_on_c, 9, 36, 0
1, 23999, Note_on_c, 9, 38, 0
1, 24000, Note_on_c, 9, 36, 123
1, 24239, Note_on_c, 9, 36, 0
1, 24240, Note_on_c, 9, 36, 123
1, 24479, Note_on_c, 9, 36, 0
1, 24480, Note_on_c, 9, 38, 121
1, 24959, Note_on_c, 9, 38, 0
1, 24960, Note_on_c, 9, 36, 123
1, 25199, Note_on_c, 9, 36, 0
1, 25200, Note_on_c, 9, 36, 123
1, 25439, Note_on_c, 9, 36, 0
1, 25440, Note_on_c, 9, 38, 121
1, 25600, Note_on_c, 9, 36, 123
1, 25619, Note_on_c, 9, 36, 0
1, 25919, Note_on_c, 9, 38, 0
1, 25920, Note_on_c, 9, 36, 123
1, 26159, Note_on_c, 9, 36, 0
1, 26160, Note_on_c, 9, 36, 123
1, 26399, Note_on_c, 9, 36, 0
1, 26400, Note_on_c, 9, 38, 121
1, 26879, Note_on_c, 9, 38, 0
1, 26880, Note_on_c, 9, 36, 123
1, 27119, Note_on_c, 9, 36, 0
1, 27120, Note_on_c, 9, 36, 123
1, 27359, Note_on_c, 9, 36, 0
1, 27360, Note_on_c, 9, 38, 121
1, 27520, Note_on_c, 9, 36, 123
1, 27539, Note_on_c, 9, 36, 0
1, 27839, Note_on_c, 9, 38, 0
1, 27840, Note_on_c, 9, 36, 123
1, 28079, Note_on_c, 9, 36, 0
1, 28080, Note_on_c, 9, 36, 123
1, 28319, Note_on_c, 9, 36, 0
1, 28320, Note_on_c, 9, 38, 121
1, 28799, Note_on_c, 9, 38, 0
1, 28800, Note_on_c, 9, 36, 123
1, 29039, Note_on_c, 9, 36, 0
1, 29040, Note_on_c, 9, 36, 123
1, 29279, Note_on_c, 9, 36, 0
1, 29280, Note_on_c, 9, 38, 121
1, 29440, Note_on_c, 9, 36, 123
1, 29459, Note_on_c, 9, 36, 0
1, 29759, Note_on_c, 9, 38, 0
1, 29760, Note_on_c, 9, 36, 118
1, 29879, Note_on_c, 9, 36, 0
1, 29920, Note_on_c, 9, 36, 120
1, 29939, Note_on_c, 9, 36, 0
1, 30000, Note_on_c, 9, 36, 123
1, 30239, Note_on_c, 9, 36, 0
1, 30240, Note_on_c, 9, 38, 121
1, 30479, Note_on_c, 9, 38, 0
1, 30480, Note_on_c, 9, 41, 122
1, 30719, Note_on_c, 9, 41, 0
1, 30720, Note_on_c, 9, 49, 123
1, 30720, Note_on_c, 9, 36, 123
1, 30959, Note_on_c, 9, 36, 0
1, 30960, Note_on_c, 9, 36, 123
1, 31199, Note_on_c, 9, 49, 0
1, 31199, Note_on_c, 9, 36, 0
1, 31200, Note_on_c, 9, 38, 121
1, 31360, Note_on_c, 9, 36, 123
1, 31379, Note_on_c, 9, 36, 0
1, 31679, Note_on_c, 9, 38, 0
1, 31680, Note_on_c, 9, 36, 123
1, 31919, Note_on_c, 9, 36, 0
1, 31920, Note_on_c, 9, 36, 123
1, 32159, Note_on_c, 9, 36, 0
1, 32160, Note_on_c, 9, 38, 121
1, 32639, Note_on_c, 9, 38, 0
1, 32640, Note_on_c, 9, 36, 123
1, 32879, Note_on_c, 9, 36, 0
1, 32880, Note_on_c, 9, 36, 123
1, 33119, Note_on_c, 9, 36, 0
1, 33120, Note_on_c, 9, 38, 121
1, 33280, Note_on_c, 9, 36, 123
1, 33299, Note_on_c, 9, 36, 0
1, 33599, Note_on_c, 9, 38, 0
1, 33600, Note_on_c, 9, 36, 123
1, 33839, Note_on_c, 9, 36, 0
1, 33840, Note_on_c, 9, 36, 123
1, 34079, Note_on_c, 9, 36, 0
1, 34080, Note_on_c, 9, 38, 121
1, 34559, Note_on_c, 9, 38, 0
1, 34560, Note_on_c, 9, 36, 123
1, 34799, Note_on_c, 9, 36, 0
1, 34800, Note_on_c, 9, 36, 123
1, 35039, Note_on_c, 9, 36, 0
1, 35040, Note_on_c, 9, 38, 121
1, 35200, Note_on_c, 9, 36, 123
1, 35219, Note_on_c, 9, 36, 0
1, 35519, Note_on_c, 9, 38, 0
1, 35520, Note_on_c, 9, 36, 123
1, 35759, Note_on_c, 9, 36, 0
1, 35760, Note_on_c, 9, 36, 123
1, 35999, Note_on_c, 9, 36, 0
1, 36000, Note_on_c, 9, 38, 121
1, 36479, Note_on_c, 9, 38, 0
1, 36480, Note_on_c, 9, 36, 123
1, 36719, Note_on_c, 9, 36, 0
1, 36720, Note_on_c, 9, 36, 123
1, 36959, Note_on_c, 9, 36, 0
1, 36960, Note_on_c, 9, 38, 121
1, 37120, Note_on_c, 9, 36, 123
1, 37139, Note_on_c, 9, 36, 0
1, 37439, Note_on_c, 9, 38, 0
1, 37440, Note_on_c, 9, 36, 118
1, 37559, Note_on_c, 9, 36, 0
1, 37600, Note_on_c, 9, 36, 120
1, 37619, Note_on_c, 9, 36, 0
1, 37680, Note_on_c, 9, 36, 123
1, 37919, Note_on_c, 9, 36, 0
1, 37920, Note_on_c, 9, 38, 121
1, 38159, Note_on_c, 9, 38, 0
1, 38160, Note_on_c, 9, 41, 122
1, 38399, Note_on_c, 9, 41, 0
1, 38400, Note_on_c, 9, 49, 123
1, 38400, Note_on_c, 9, 36, 123
1, 38639, Note_on_c, 9, 36, 0
1, 38640, Note_on_c, 9, 36, 123
1, 38879, Note_on_c, 9, 49, 0
1, 38879, Note_on_c, 9, 36, 0
1, 38880, Note_on_c, 9, 38, 121
1, 39040, Note_on_c, 9, 36, 123
1, 39059, Note_on_c, 9, 36, 0
1, 39359, Note_on_c, 9, 38, 0
1, 39360, Note_on_c, 9, 36, 123
1, 39599, Note_on_c, 9, 36, 0
1, 39600, Note_on_c, 9, 36, 123
1, 39839, Note_on_c, 9, 36, 0
1, 39840, Note_on_c, 9, 38, 121
1, 40319, Note_on_c, 9, 38, 0
1, 40320, Note_on_c, 9, 36, 123
1, 40559, Note_on_c, 9, 36, 0
1, 40560, Note_on_c, 9, 36, 123
1, 40799, Note_on_c, 9, 36, 0
1, 40800, Note_on_c, 9, 38, 121
1, 40960, Note_on_c, 9, 36, 123
1, 40979, Note_on_c, 9, 36, 0
1, 41279, Note_on_c, 9, 38, 0
1, 41280, Note_on_c, 9, 36, 123
1, 41519, Note_on_c, 9, 36, 0
1, 41520, Note_on_c, 9, 36, 123
1, 41759, Note_on_c, 9, 36, 0
1, 41760, Note_on_c, 9, 38, 121
1, 42239, Note_on_c, 9, 38, 0
1, 42240, Note_on_c, 9, 36, 123
1, 42479, Note_on_c, 9, 36, 0
1, 42480, Note_on_c, 9, 36, 123
1, 42719, Note_on_c, 9, 36, 0
1, 42720, Note_on_c, 9, 38, 121
1, 42880, Note_on_c, 9, 36, 123
1, 42899, Note_on_c, 9, 36, 0
1, 43199, Note_on_c, 9, 38, 0
1, 43200, Note_on_c, 9, 36, 123
1, 43439, Note_on_c, 9, 36, 0
1, 43440, Note_on_c, 9, 36, 123
1, 43679, Note_on_c, 9, 36, 0
1, 43680, Note_on_c, 9, 38, 121
1, 44159, Note_on_c, 9, 38, 0
1, 44160, Note_on_c, 9, 36, 123
1, 44399, Note_on_c, 9, 36, 0
1, 44400, Note_on_c, 9, 36, 123
1, 44639, Note_on_c, 9, 36, 0
1, 44640, Note_on_c, 9, 38, 121
1, 44800, Note_on_c, 9, 36, 123
1, 44819, Note_on_c, 9, 36, 0
1, 45119, Note_on_c, 9, 38, 0
1, 45120, Note_on_c, 9, 36, 118
1, 45239, Note_on_c, 9, 36, 0
1, 45280, Note_on_c, 9, 36, 120
1, 45299, Note_on_c, 9, 36, 0
1, 45360, Note_on_c, 9, 36, 123
1, 45599, Note_on_c, 9, 36, 0
1, 45600, Note_on_c, 9, 38, 121
1, 45839, Note_on_c, 9, 38, 0
1, 45840, Note_on_c, 9, 41, 122
1, 46079, Note_on_c, 9, 41, 0
1, 46080, Note_on_c, 9, 49, 123
1, 46080, Note_on_c, 9, 36, 123
1, 46319, Note_on_c, 9, 36, 0
1, 46320, Note_on_c, 9, 36, 123
1, 46559, Note_on_c, 9, 49, 0
1, 46559, Note_on_c, 9, 36, 0
1, 46560, Note_on_c, 9, 38, 121
1, 46720, Note_on_c, 9, 36, 123
1, 46739, Note_on_c, 9, 36, 0
1, 47039, Note_on_c, 9, 38, 0
1, 47040, Note_on_c, 9, 36, 123
1, 47279, Note_on_c, 9, 36, 0
1, 47280, Note_on_c, 9, 36, 123
1, 47519, Note_on_c, 9, 36, 0
1, 47520, Note_on_c, 9, 38, 121
1, 47999, Note_on_c, 9, 38, 0
1, 48000, Note_on_c, 9, 36, 123
1, 48239, Note_on_c, 9, 36, 0
1, 48240, Note_on_c, 9, 36, 123
1, 48479, Note_on_c, 9, 36, 0
1, 48480, Note_on_c, 9, 38, 121
1, 48640, Note_on_c, 9, 36, 123
1, 48659, Note_on_c, 9, 36, 0
1, 48959, Note_on_c, 9, 38, 0
1, 48960, Note_on_c, 9, 36, 123
1, 49199, Note_on_c, 9, 36, 0
1, 49200, Note_on_c, 9, 36, 123
1, 49439, Note_on_c, 9, 36, 0
1, 49440, Note_on_c, 9, 38, 121
1, 49919, Note_on_c, 9, 38, 0
1, 49920, Note_on_c, 9, 36, 123
1, 50159, Note_on_c, 9, 36, 0
1, 50160, Note_on_c, 9, 36, 123
1, 50399, Note_on_c, 9, 36, 0
1, 50400, Note_on_c, 9, 38, 121
1, 50560, Note_on_c, 9, 36, 123
1, 50579, Note_on_c, 9, 36, 0
1, 50879, Note_on_c, 9, 38, 0
1, 50880, Note_on_c, 9, 36, 123
1, 51119, Note_on_c, 9, 36, 0
1, 51120, Note_on_c, 9, 36, 123
1, 51359, Note_on_c, 9, 36, 0
1, 51360, Note_on_c, 9, 38, 121
1, 51839, Note_on_c, 9, 38, 0
1, 51840, Note_on_c, 9, 36, 123
1, 52079, Note_on_c, 9, 36, 0
1, 52080, Note_on_c, 9, 36, 123
1, 52319, Note_on_c, 9, 36, 0
1, 52320, Note_on_c, 9, 38, 121
1, 52480, Note_on_c, 9, 36, 123
1, 52499, Note_on_c, 9, 36, 0
1, 52799, Note_on_c, 9, 38, 0
1, 52800, Note_on_c, 9, 36, 118
1, 52919, Note_on_c, 9, 36, 0
1, 52960, Note_on_c, 9, 36, 120
1, 52979, Note_on_c, 9, 36, 0
1, 53040, Note_on_c, 9, 36, 123
1, 53279, Note_on_c, 9, 36, 0
1, 53280, Note_on_c, 9, 38, 121
1, 53294, Note_on_c, 9, 38, 0
1, 53295, Note_on_c, 9, 41, 119
1, 53339, Note_on_c, 9, 41, 0
1, 53430, Note_on_c, 9, 38, 121
1, 53445, Note_on_c, 9, 41, 119
1, 53459, Note_on_c, 9, 41, 0
1, 53519, Note_on_c, 9, 38, 0
1, 53520, Note_on_c, 9, 41, 126
1, 53520, Note_on_c, 9, 38, 121
1, 53759, Note_on_c, 9, 41, 0
1, 53759, Note_on_c, 9, 38, 0
1, 53760, Note_on_c, 9, 49, 123
1, 53760, Note_on_c, 9, 36, 123
1, 53999, Note_on_c, 9, 36, 0
1, 54000, Note_on_c, 9, 36, 123
1, 54239, Note_on_c, 9, 49, 0
1, 54239, Note_on_c, 9, 36, 0
1, 54240, Note_on_c, 9, 38, 121
1, 54400, Note_on_c, 9, 36, 123
1, 54419, Note_on_c, 9, 36, 0
1, 54719, Note_on_c, 9, 38, 0
1, 54720, Note_on_c, 9, 36, 123
1, 54959, Note_on_c, 9, 36, 0
1, 54960, Note_on_c, 9, 36, 123
1, 55199, Note_on_c, 9, 36, 0
1, 55200, Note_on_c, 9, 38, 121
1, 55679, Note_on_c, 9, 38, 0
1, 55680, Note_on_c, 9, 36, 123
1, 55919, Note_on_c, 9, 36, 0
1, 55920, Note_on_c, 9, 36, 123
1, 56159, Note_on_c, 9, 36, 0
1, 56160, Note_on_c, 9, 38, 121
1, 56320, Note_on_c, 9, 36, 123
1, 56339, Note_on_c, 9, 36, 0
1, 56639, Note_on_c, 9, 38, 0
1, 56640, Note_on_c, 9, 36, 123
1, 56879, Note_on_c, 9, 36, 0
1, 56880, Note_on_c, 9, 36, 123
1, 57119, Note_on_c, 9, 36, 0
1, 57120, Note_on_c, 9, 38, 121
1, 57599, Note_on_c, 9, 38, 0
1, 57600, Note_on_c, 9, 49, 122
1, 57600, Note_on_c, 9, 36, 123
1, 57839, Note_on_c, 9, 36, 0
1, 57840, Note_on_c, 9, 36, 123
1, 58079, Note_on_c, 9, 49, 0
1, 58079, Note_on_c, 9, 36, 0
1, 58080, Note_on_c, 9, 38, 121
1, 58240, Note_on_c, 9, 36, 123
1, 58259, Note_on_c, 9, 36, 0
1, 58559, Note_on_c, 9, 38, 0
1, 58560, Note_on_c, 9, 49, 122
1, 58560, Note_on_c, 9, 36, 123
1, 58799, Note_on_c, 9, 36, 0
1, 58800, Note_on_c, 9, 36, 123
1, 59039, Note_on_c, 9, 49, 0
1, 59039, Note_on_c, 9, 36, 0
1, 59040, Note_on_c, 9, 38, 121
1, 59519, Note_on_c, 9, 38, 0
1, 59520, Note_on_c, 9, 36, 123
1, 59759, Note_on_c, 9, 36, 0
1, 59760, Note_on_c, 9, 36, 123
1, 59999, Note_on_c, 9, 36, 0
1, 60000, Note_on_c, 9, 38, 121
1, 60014, Note_on_c, 9, 38, 0
1, 60015, Note_on_c, 9, 41, 119
1, 60160, Note_on_c, 9, 36, 123
1, 60179, Note_on_c, 9, 36, 0
1, 60239, Note_on_c, 9, 41, 0
1, 60240, Note_on_c, 9, 41, 119
1, 60254, Note_on_c, 9, 41, 0
1, 60255, Note_on_c, 9, 38, 121
1, 60479, Note_on_c, 9, 38, 0
1, 60480, Note_on_c, 9, 36, 118
1, 60599, Note_on_c, 9, 36, 0
1, 60630, Note_on_c, 9, 36, 120
1, 60719, Note_on_c, 9, 36, 0
1, 60720, Note_on_c, 9, 36, 123
1, 60959, Note_on_c, 9, 36, 0
1, 60960, Note_on_c, 9, 38, 121
1, 60974, Note_on_c, 9, 38, 0
1, 60975, Note_on_c, 9, 41, 119
1, 61199, Note_on_c, 9, 41, 0
1, 61200, Note_on_c, 9, 41, 119
1, 61214, Note_on_c, 9, 41, 0
1, 61215, Note_on_c, 9, 38, 121
1, 61439, Note_on_c, 9, 38, 0
1, 61440, Note_on_c, 9, 49, 123
1, 61440, Note_on_c, 9, 36, 123
1, 61679, Note_on_c, 9, 36, 0
1, 61680, Note_on_c, 9, 36, 123
1, 61919, Note_on_c, 9, 49, 0
1, 61919, Note_on_c, 9, 36, 0
1, 61920, Note_on_c, 9, 38, 121
1, 62080, Note_on_c, 9, 36, 123
1, 62099, Note_on_c, 9, 36, 0
1, 62399, Note_on_c, 9, 38, 0
1, 62400, Note_on_c, 9, 36, 123
1, 62639, Note_on_c, 9, 36, 0
1, 62640, Note_on_c, 9, 36, 123
1, 62879, Note_on_c, 9, 36, 0
1, 62880, Note_on_c, 9, 38, 121
1, 63359, Note_on_c, 9, 38, 0
1, 63360, Note_on_c, 9, 36, 123
1, 63599, Note_on_c, 9, 36, 0
1, 63600, Note_on_c, 9, 36, 123
1, 63839, Note_on_c, 9, 36, 0
1, 63840, Note_on_c, 9, 38, 121
1, 64000, Note_on_c, 9, 36, 123
1, 64019, Note_on_c, 9, 36, 0
1, 64319, Note_on_c, 9, 38, 0
1, 64320, Note_on_c, 9, 36, 123
1, 64559, Note_on_c, 9, 36, 0
1, 64560, Note_on_c, 9, 36, 123
1, 64799, Note_on_c, 9, 36, 0
1, 64800, Note_on_c, 9, 38, 121
1, 65279, Note_on_c, 9, 38, 0
1, 65280, Note_on_c, 9, 36, 123
1, 65519, Note_on_c, 9, 36, 0
1, 65520, Note_on_c, 9, 36, 123
1, 65759, Note_on_c, 9, 36, 0
1, 65760, Note_on_c, 9, 38, 121
1, 65920, Note_on_c, 9, 36, 123
1, 65939, Note_on_c, 9, 36, 0
1, 66239, Note_on_c, 9, 38, 0
1, 66240, Note_on_c, 9, 36, 123
1, 66479, Note_on_c, 9, 36, 0
1, 66480, Note_on_c, 9, 36, 123
1, 66719, Note_on_c, 9, 36, 0
1, 66720, Note_on_c, 9, 38, 121
1, 67199, Note_on_c, 9, 38, 0
1, 67200, Note_on_c, 9, 36, 123
1, 67439, Note_on_c, 9, 36, 0
1, 67440, Note_on_c, 9, 36, 123
1, 67679, Note_on_c, 9, 36, 0
1, 67680, Note_on_c, 9, 38, 121
1, 67840, Note_on_c, 9, 36, 123
1, 67859, Note_on_c, 9, 36, 0
1, 68159, Note_on_c, 9, 38, 0
1, 68160, Note_on_c, 9, 36, 118
1, 68279, Note_on_c, 9, 36, 0
1, 68320, Note_on_c, 9, 36, 120
1, 68339, Note_on_c, 9, 36, 0
1, 68400, Note_on_c, 9, 36, 123
1, 68639, Note_on_c, 9, 36, 0
1, 68640, Note_on_c, 9, 38, 121
1, 68879, Note_on_c, 9, 38, 0
1, 68880, Note_on_c, 9, 41, 122
1, 69119, Note_on_c, 9, 41, 0
1, 69120, Note_on_c, 9, 49, 123
1, 69120, Note_on_c, 9, 36, 123
1, 69359, Note_on_c, 9, 36, 0
1, 69360, Note_on_c, 9, 36, 123
1, 69599, Note_on_c, 9, 49, 0
1, 69599, Note_on_c, 9, 36, 0
1, 69600, Note_on_c, 9, 38, 121
1, 69750, Note_on_c, 9, 36, 123
1, 69839, Note_on_c, 9, 36, 0
1, 70079, Note_on_c, 9, 38, 0
1, 70080, Note_on_c, 9, 36, 123
1, 70319, Note_on_c, 9, 36, 0
1, 70320, Note_on_c, 9, 36, 123
1, 70559, Note_on_c, 9, 36, 0
1, 70560, Note_on_c, 9, 38, 121
1, 71039, Note_on_c, 9, 38, 0
1, 71040, Note_on_c, 9, 36, 123
1, 71279, Note_on_c, 9, 36, 0
1, 71280, Note_on_c, 9, 36, 123
1, 71519, Note_on_c, 9, 36, 0
1, 71520, Note_on_c, 9, 38, 121
1, 71680, Note_on_c, 9, 36, 123
1, 71699, Note_on_c, 9, 36, 0
1, 71999, Note_on_c, 9, 38, 0
1, 72000, Note_on_c, 9, 36, 123
1, 72239, Note_on_c, 9, 36, 0
1, 72240, Note_on_c, 9, 36, 123
1, 72479, Note_on_c, 9, 36, 0
1, 72480, Note_on_c, 9, 38, 121
1, 72959, Note_on_c, 9, 38, 0
1, 72960, Note_on_c, 9, 36, 123
1, 73199, Note_on_c, 9, 36, 0
1, 73200, Note_on_c, 9, 36, 123
1, 73439, Note_on_c, 9, 36, 0
1, 73440, Note_on_c, 9, 38, 121
1, 73600, Note_on_c, 9, 36, 123
1, 73619, Note_on_c, 9, 36, 0
1, 73919, Note_on_c, 9, 38, 0
1, 73920, Note_on_c, 9, 36, 123
1, 74159, Note_on_c, 9, 36, 0
1, 74160, Note_on_c, 9, 36, 123
1, 74399, Note_on_c, 9, 36, 0
1, 74400, Note_on_c, 9, 38, 121
1, 74879, Note_on_c, 9, 38, 0
1, 74880, Note_on_c, 9, 36, 123
1, 75119, Note_on_c, 9, 36, 0
1, 75120, Note_on_c, 9, 36, 123
1, 75359, Note_on_c, 9, 36, 0
1, 75360, Note_on_c, 9, 38, 121
1, 75520, Note_on_c, 9, 36, 123
1, 75539, Note_on_c, 9, 36, 0
1, 75839, Note_on_c, 9, 38, 0
1, 75840, Note_on_c, 9, 36, 118
1, 75959, Note_on_c, 9, 36, 0
1, 76000, Note_on_c, 9, 36, 120
1, 76019, Note_on_c, 9, 36, 0
1, 76080, Note_on_c, 9, 36, 123
1, 76319, Note_on_c, 9, 36, 0
1, 76320, Note_on_c, 9, 38, 121
1, 76334, Note_on_c, 9, 38, 0
1, 76335, Note_on_c, 9, 41, 119
1, 76379, Note_on_c, 9, 41, 0
1, 76470, Note_on_c, 9, 38, 121
1, 76485, Note_on_c, 9, 41, 119
1, 76499, Note_on_c, 9, 41, 0
1, 76559, Note_on_c, 9, 38, 0
1, 76560, Note_on_c, 9, 41, 122
1, 76574, Note_on_c, 9, 41, 0
1, 76575, Note_on_c, 9, 38, 121
1, 76799, Note_on_c, 9, 38, 0
1, 76800, Note_on_c, 9, 49, 123
1, 76800, Note_on_c, 9, 36, 123
1, 77039, Note_on_c, 9, 36, 0
1, 77040, Note_on_c, 9, 36, 123
1, 77279, Note_on_c, 9, 49, 0
1, 77279, Note_on_c, 9, 36, 0
1, 77280, Note_on_c, 9, 38, 121
1, 77440, Note_on_c, 9, 36, 123
1, 77459, Note_on_c, 9, 36, 0
1, 77759, Note_on_c, 9, 38, 0
1, 77760, Note_on_c, 9, 36, 123
1, 77999, Note_on_c, 9, 36, 0
1, 78000, Note_on_c, 9, 36, 123
1, 78239, Note_on_c, 9, 36, 0
1, 78240, Note_on_c, 9, 38, 121
1, 78719, Note_on_c, 9, 38, 0
1, 78720, Note_on_c, 9, 36, 123
1, 78959, Note_on_c, 9, 36, 0
1, 78960, Note_on_c, 9, 36, 123
1, 79199, Note_on_c, 9, 36, 0
1, 79200, Note_on_c, 9, 38, 121
1, 79360, Note_on_c, 9, 36, 123
1, 79379, Note_on_c, 9, 36, 0
1, 79679, Note_on_c, 9, 38, 0
1, 79680, Note_on_c, 9, 36, 123
1, 79919, Note_on_c, 9, 36, 0
1, 79920, Note_on_c, 9, 36, 123
1, 80159, Note_on_c, 9, 36, 0
1, 80160, Note_on_c, 9, 38, 121
1, 80639, Note_on_c, 9, 38, 0
1, 80640, Note_on_c, 9, 36, 123
1, 80879, Note_on_c, 9, 36, 0
1, 80880, Note_on_c, 9, 36, 123
1, 81119, Note_on_c, 9, 36, 0
1, 81120, Note_on_c, 9, 38, 121
1, 81280, Note_on_c, 9, 36, 123
1, 81299, Note_on_c, 9, 36, 0
1, 81599, Note_on_c, 9, 38, 0
1, 81600, Note_on_c, 9, 36, 123
1, 81839, Note_on_c, 9, 36, 0
1, 81840, Note_on_c, 9, 36, 123
1, 82079, Note_on_c, 9, 36, 0
1, 82080, Note_on_c, 9, 38, 121
1, 82559, Note_on_c, 9, 38, 0
1, 82560, Note_on_c, 9, 36, 123
1, 82799, Note_on_c, 9, 36, 0
1, 82800, Note_on_c, 9, 36, 123
1, 83039, Note_on_c, 9, 36, 0
1, 83040, Note_on_c, 9, 38, 121
1, 83200, Note_on_c, 9, 36, 123
1, 83219, Note_on_c, 9, 36, 0
1, 83519, Note_on_c, 9, 38, 0
1, 83520, Note_on_c, 9, 36, 118
1, 83639, Note_on_c, 9, 36, 0
1, 83680, Note_on_c, 9, 36, 120
1, 83699, Note_on_c, 9, 36, 0
1, 83760, Note_on_c, 9, 36, 123
1, 83999, Note_on_c, 9, 36, 0
1, 84000, Note_on_c, 9, 38, 121
1, 84239, Note_on_c, 9, 38, 0
1, 84240, Note_on_c, 9, 41, 122
1, 84479, Note_on_c, 9, 41, 0
1, 84480, Note_on_c, 9, 49, 123
1, 84480, Note_on_c, 9, 36, 123
1, 84719, Note_on_c, 9, 36, 0
1, 84720, Note_on_c, 9, 36, 123
1, 84959, Note_on_c, 9, 49, 0
1, 84959, Note_on_c, 9, 36, 0
1, 84960, Note_on_c, 9, 38, 121
1, 85120, Note_on_c, 9, 36, 123
1, 85139, Note_on_c, 9, 36, 0
1, 85439, Note_on_c, 9, 38, 0
1, 85440, Note_on_c, 9, 36, 123
1, 85679, Note_on_c, 9, 36, 0
1, 85680, Note_on_c, 9, 36, 123
1, 85919, Note_on_c, 9, 36, 0
1, 85920, Note_on_c, 9, 38, 121
1, 86399, Note_on_c, 9, 38, 0
1, 86400, Note_on_c, 9, 36, 123
1, 86639, Note_on_c, 9, 36, 0
1, 86640, Note_on_c, 9, 36, 123
1, 86879, Note_on_c, 9, 36, 0
1, 86880, Note_on_c, 9, 38, 121
1, 87040, Note_on_c, 9, 36, 123
1, 87059, Note_on_c, 9, 36, 0
1, 87359, Note_on_c, 9, 38, 0
1, 87360, Note_on_c, 9, 36, 123
1, 87599, Note_on_c, 9, 36, 0
1, 87600, Note_on_c, 9, 36, 123
1, 87839, Note_on_c, 9, 36, 0
1, 87840, Note_on_c, 9, 38, 121
1, 88319, Note_on_c, 9, 38, 0
1, 88320, Note_on_c, 9, 36, 123
1, 88559, Note_on_c, 9, 36, 0
1, 88560, Note_on_c, 9, 36, 123
1, 88799, Note_on_c, 9, 36, 0
1, 88800, Note_on_c, 9, 38, 121
1, 88960, Note_on_c, 9, 36, 123
1, 88979, Note_on_c, 9, 36, 0
1, 89279, Note_on_c, 9, 38, 0
1, 89280, Note_on_c, 9, 36, 123
1, 89519, Note_on_c, 9, 36, 0
1, 89520, Note_on_c, 9, 36, 123
1, 89759, Note_on_c, 9, 36, 0
1, 89760, Note_on_c, 9, 38, 121
1, 90239, Note_on_c, 9, 38, 0
1, 90240, Note_on_c, 9, 36, 123
1, 90400, Note_on_c, 9, 38, 115
1, 90419, Note_on_c, 9, 38, 0
1, 90479, Note_on_c, 9, 36, 0
1, 90480, Note_on_c, 9, 38, 115
1, 90480, Note_on_c, 9, 36, 123
1, 90719, Note_on_c, 9, 38, 0
1, 90719, Note_on_c, 9, 36, 0
1, 90720, Note_on_c, 9, 38, 120
1, 90880, Note_on_c, 9, 36, 123
1, 90884, Note_on_c, 9, 38, 0
1, 90885, Note_on_c, 9, 38, 115
1, 90899, Note_on_c, 9, 36, 0
1, 90899, Note_on_c, 9, 38, 0
1, 90960, Note_on_c, 9, 38, 115
1, 91199, Note_on_c, 9, 38, 0
1, 91200, Note_on_c, 9, 38, 120
1, 91200, Note_on_c, 9, 36, 118
1, 91319, Note_on_c, 9, 36, 0
1, 91360, Note_on_c, 9, 36, 120
1, 91364, Note_on_c, 9, 38, 0
1, 91365, Note_on_c, 9, 38, 115
1, 91379, Note_on_c, 9, 36, 0
1, 91379, Note_on_c, 9, 38, 0
1, 91440, Note_on_c, 9, 38, 115
1, 91440, Note_on_c, 9, 36, 123
1, 91679, Note_on_c, 9, 38, 0
1, 91679, Note_on_c, 9, 36, 0
1, 91680, Note_on_c, 9, 38, 120
1, 91799, Note_on_c, 9, 38, 0
1, 91840, Note_on_c, 9, 38, 115
1, 91859, Note_on_c, 9, 38, 0
1, 91920, Note_on_c, 9, 41, 122
1, 91934, Note_on_c, 9, 41, 0
1, 91935, Note_on_c, 9, 38, 115
1, 92159, Note_on_c, 9, 38, 0
1, 92160, Note_on_c, 9, 49, 123
1, 92160, Note_on_c, 9, 36, 123
1, 92399, Note_on_c, 9, 36, 0
1, 92400, Note_on_c, 9, 36, 123
1, 92639, Note_on_c, 9, 49, 0
1, 92639, Note_on_c, 9, 36, 0
1, 92640, Note_on_c, 9, 38, 121
1, 92800, Note_on_c, 9, 36, 123
1, 92819, Note_on_c, 9, 36, 0
1, 93119, Note_on_c, 9, 38, 0
1, 93120, Note_on_c, 9, 36, 123
1, 93359, Note_on_c, 9, 36, 0
1, 93360, Note_on_c, 9, 36, 123
1, 93599, Note_on_c, 9, 36, 0
1, 93600, Note_on_c, 9, 38, 121
1, 94079, Note_on_c, 9, 38, 0
1, 94080, Note_on_c, 9, 36, 123
1, 94319, Note_on_c, 9, 36, 0
1, 94320, Note_on_c, 9, 36, 123
1, 94559, Note_on_c, 9, 36, 0
1, 94560, Note_on_c, 9, 38, 121
1, 94720, Note_on_c, 9, 36, 123
1, 94739, Note_on_c, 9, 36, 0
1, 95039, Note_on_c, 9, 38, 0
1, 95040, Note_on_c, 9, 36, 123
1, 95279, Note_on_c, 9, 36, 0
1, 95280, Note_on_c, 9, 36, 123
1, 95519, Note_on_c, 9, 36, 0
1, 95520, Note_on_c, 9, 38, 121
1, 95999, Note_on_c, 9, 38, 0
1, 96000, Note_on_c, 9, 49, 119
1, 96000, Note_on_c, 9, 36, 123
1, 96239, Note_on_c, 9, 36, 0
1, 96240, Note_on_c, 9, 36, 123
1, 96479, Note_on_c, 9, 49, 0
1, 96479, Note_on_c, 9, 36, 0
1, 96480, Note_on_c, 9, 38, 121
1, 96640, Note_on_c, 9, 36, 123
1, 96659, Note_on_c, 9, 36, 0
1, 96959, Note_on_c, 9, 38, 0
1, 96960, Note_on_c, 9, 49, 119
1, 96960, Note_on_c, 9, 36, 123
1, 97199, Note_on_c, 9, 36, 0
1, 97200, Note_on_c, 9, 36, 123
1, 97439, Note_on_c, 9, 49, 0
1, 97439, Note_on_c, 9, 36, 0
1, 97440, Note_on_c, 9, 38, 121
1, 97919, Note_on_c, 9, 38, 0
1, 97920, Note_on_c, 9, 36, 123
1, 98159, Note_on_c, 9, 36, 0
1, 98160, Note_on_c, 9, 36, 123
1, 98399, Note_on_c, 9, 36, 0
1, 98400, Note_on_c, 9, 38, 121
1, 98560, Note_on_c, 9, 36, 123
1, 98579, Note_on_c, 9, 36, 0
1, 98639, Note_on_c, 9, 38, 0
1, 98655, Note_on_c, 9, 38, 121
1, 98879, Note_on_c, 9, 38, 0
1, 98880, Note_on_c, 9, 36, 118
1, 98999, Note_on_c, 9, 36, 0
1, 99040, Note_on_c, 9, 36, 120
1, 99059, Note_on_c, 9, 36, 0
1, 99120, Note_on_c, 9, 36, 123
1, 99359, Note_on_c, 9, 36, 0
1, 99360, Note_on_c, 9, 38, 121
1, 99479, Note_on_c, 9, 38, 0
1, 99520, Note_on_c, 9, 38, 121
1, 99539, Note_on_c, 9, 38, 0
1, 99615, Note_on_c, 9, 38, 121
1, 99839, Note_on_c, 9, 38, 0
1, 99840, Note_on_c, 9, 49, 123
1, 99840, Note_on_c, 9, 36, 123
1, 100079, Note_on_c, 9, 36, 0
1, 100080, Note_on_c, 9, 36, 123
1, 100319, Note_on_c, 9, 49, 0
1, 100319, Note_on_c, 9, 36, 0
1, 100320, Note_on_c, 9, 38, 121
1, 100480, Note_on_c, 9, 36, 123
1, 100499, Note_on_c, 9, 36, 0
1, 100799, Note_on_c, 9, 38, 0
1, 100800, Note_on_c, 9, 36, 123
1, 101039, Note_on_c, 9, 36, 0
1, 101040, Note_on_c, 9, 36, 123
1, 101279, Note_on_c, 9, 36, 0
1, 101280, Note_on_c, 9, 38, 121
1, 101759, Note_on_c, 9, 38, 0
1, 101760, Note_on_c, 9, 36, 123
1, 101999, Note_on_c, 9, 36, 0
1, 102000, Note_on_c, 9, 36, 123
1, 102239, Note_on_c, 9, 36, 0
1, 102240, Note_on_c, 9, 38, 121
1, 102400, Note_on_c, 9, 36, 123
1, 102419, Note_on_c, 9, 36, 0
1, 102719, Note_on_c, 9, 38, 0
1, 102720, Note_on_c, 9, 36, 123
1, 102959, Note_on_c, 9, 36, 0
1, 102960, Note_on_c, 9, 36, 123
1, 103199, Note_on_c, 9, 36, 0
1, 103200, Note_on_c, 9, 38, 121
1, 103679, Note_on_c, 9, 38, 0
1, 103680, Note_on_c, 9, 36, 123
1, 103919, Note_on_c, 9, 36, 0
1, 103920, Note_on_c, 9, 36, 123
1, 104159, Note_on_c, 9, 36, 0
1, 104160, Note_on_c, 9, 38, 121
1, 104320, Note_on_c, 9, 36, 123
1, 104339, Note_on_c, 9, 36, 0
1, 104639, Note_on_c, 9, 38, 0
1, 104640, Note_on_c, 9, 36, 123
1, 104879, Note_on_c, 9, 36, 0
1, 104880, Note_on_c, 9, 36, 123
1, 105119, Note_on_c, 9, 36, 0
1, 105120, Note_on_c, 9, 38, 121
1, 105599, Note_on_c, 9, 38, 0
1, 105600, Note_on_c, 9, 36, 123
1, 105839, Note_on_c, 9, 36, 0
1, 105840, Note_on_c, 9, 36, 123
1, 106079, Note_on_c, 9, 36, 0
1, 106080, Note_on_c, 9, 38, 121
1, 106240, Note_on_c, 9, 36, 123
1, 106259, Note_on_c, 9, 36, 0
1, 106559, Note_on_c, 9, 38, 0
1, 106560, Note_on_c, 9, 36, 118
1, 106679, Note_on_c, 9, 36, 0
1, 106720, Note_on_c, 9, 36, 120
1, 106739, Note_on_c, 9, 36, 0
1, 106800, Note_on_c, 9, 36, 123
1, 107039, Note_on_c, 9, 36, 0
1, 107040, Note_on_c, 9, 38, 121
1, 107279, Note_on_c, 9, 38, 0
1, 107280, Note_on_c, 9, 41, 122
1, 107519, Note_on_c, 9, 41, 0
1, 107520, Note_on_c, 9, 49, 123
1, 107520, Note_on_c, 9, 36, 123
1, 107759, Note_on_c, 9, 36, 0
1, 107760, Note_on_c, 9, 36, 123
1, 107999, Note_on_c, 9, 49, 0
1, 107999, Note_on_c, 9, 36, 0
1, 108000, Note_on_c, 9, 38, 121
1, 108160, Note_on_c, 9, 36, 123
1, 108179, Note_on_c, 9, 36, 0
1, 108479, Note_on_c, 9, 38, 0
1, 108480, Note_on_c, 9, 36, 123
1, 108719, Note_on_c, 9, 36, 0
1, 108720, Note_on_c, 9, 36, 123
1, 108959, Note_on_c, 9, 36, 0
1, 108960, Note_on_c, 9, 38, 121
1, 109439, Note_on_c, 9, 38, 0
1, 109440, Note_on_c, 9, 36, 123
1, 109679, Note_on_c, 9, 36, 0
1, 109680, Note_on_c, 9, 36, 123
1, 109919, Note_on_c, 9, 36, 0
1, 109920, Note_on_c, 9, 38, 121
1, 110080, Note_on_c, 9, 36, 123
1, 110099, Note_on_c, 9, 36, 0
1, 110399, Note_on_c, 9, 38, 0
1, 110400, Note_on_c, 9, 36, 123
1, 110639, Note_on_c, 9, 36, 0
1, 110640, Note_on_c, 9, 36, 123
1, 110879, Note_on_c, 9, 36, 0
1, 110880, Note_on_c, 9, 38, 121
1, 111359, Note_on_c, 9, 38, 0
1, 111360, Note_on_c, 9, 36, 123
1, 111599, Note_on_c, 9, 36, 0
1, 111600, Note_on_c, 9, 36, 123
1, 111839, Note_on_c, 9, 36, 0
1, 111840, Note_on_c, 9, 38, 121
1, 112000, Note_on_c, 9, 36, 123
1, 112019, Note_on_c, 9, 36, 0
1, 112319, Note_on_c, 9, 38, 0
1, 112320, Note_on_c, 9, 36, 123
1, 112559, Note_on_c, 9, 36, 0
1, 112560, Note_on_c, 9, 36, 123
1, 112799, Note_on_c, 9, 36, 0
1, 112800, Note_on_c, 9, 38, 121
1, 113279, Note_on_c, 9, 38, 0
1, 113280, Note_on_c, 9, 36, 123
1, 113440, Note_on_c, 9, 38, 121
1, 113459, Note_on_c, 9, 38, 0
1, 113519, Note_on_c, 9, 36, 0
1, 113520, Note_on_c, 9, 36, 123
1, 113759, Note_on_c, 9, 36, 0
1, 113760, Note_on_c, 9, 38, 121
1, 113920, Note_on_c, 9, 36, 123
1, 113939, Note_on_c, 9, 36, 0
1, 114119, Note_on_c, 9, 38, 0
1, 114160, Note_on_c, 9, 38, 121
1, 114179, Note_on_c, 9, 38, 0
1, 114240, Note_on_c, 9, 36, 118
1, 114359, Note_on_c, 9, 36, 0
1, 114400, Note_on_c, 9, 36, 120
1, 114419, Note_on_c, 9, 36, 0
1, 114480, Note_on_c, 9, 38, 121
1, 114480, Note_on_c, 9, 36, 123
1, 114719, Note_on_c, 9, 38, 0
1, 114719, Note_on_c, 9, 36, 0
1, 114720, Note_on_c, 9, 38, 121
1, 114959, Note_on_c, 9, 38, 0
1, 114960, Note_on_c, 9, 38, 121
1, 115199, Note_on_c, 9, 38, 0
1, 115200, Note_on_c, 9, 49, 123
1, 115200, Note_on_c, 9, 36, 123
1, 115439, Note_on_c, 9, 36, 0
1, 115440, Note_on_c, 9, 36, 123
1, 115679, Note_on_c, 9, 49, 0
1, 115679, Note_on_c, 9, 36, 0
1, 115680, Note_on_c, 9, 38, 121
1, 115840, Note_on_c, 9, 36, 123
1, 115859, Note_on_c, 9, 36, 0
1, 116159, Note_on_c, 9, 38, 0
1, 116160, Note_on_c, 9, 36, 123
1, 116399, Note_on_c, 9, 36, 0
1, 116400, Note_on_c, 9, 36, 123
1, 116639, Note_on_c, 9, 36, 0
1, 116640, Note_on_c, 9, 38, 121
1, 117119, Note_on_c, 9, 38, 0
1, 117120, Note_on_c, 9, 36, 123
1, 117359, Note_on_c, 9, 36, 0
1, 117360, Note_on_c, 9, 36, 123
1, 117599, Note_on_c, 9, 36, 0
1, 117600, Note_on_c, 9, 38, 121
1, 117760, Note_on_c, 9, 36, 123
1, 117779, Note_on_c, 9, 36, 0
1, 118079, Note_on_c, 9, 38, 0
1, 118080, Note_on_c, 9, 36, 123
1, 118319, Note_on_c, 9, 36, 0
1, 118320, Note_on_c, 9, 36, 123
1, 118559, Note_on_c, 9, 36, 0
1, 118560, Note_on_c, 9, 38, 121
1, 119039, Note_on_c, 9, 38, 0
1, 119040, Note_on_c, 9, 36, 123
1, 119279, Note_on_c, 9, 36, 0
1, 119280, Note_on_c, 9, 36, 123
1, 119519, Note_on_c, 9, 36, 0
1, 119520, Note_on_c, 9, 38, 121
1, 119680, Note_on_c, 9, 36, 123
1, 119699, Note_on_c, 9, 36, 0
1, 119999, Note_on_c, 9, 38, 0
1, 120000, Note_on_c, 9, 36, 123
1, 120239, Note_on_c, 9, 36, 0
1, 120240, Note_on_c, 9, 36, 123
1, 120479, Note_on_c, 9, 36, 0
1, 120480, Note_on_c, 9, 38, 121
1, 120959, Note_on_c, 9, 38, 0
1, 120960, Note_on_c, 9, 36, 123
1, 121199, Note_on_c, 9, 36, 0
1, 121200, Note_on_c, 9, 36, 123
1, 121439, Note_on_c, 9, 36, 0
1, 121440, Note_on_c, 9, 38, 121
1, 121600, Note_on_c, 9, 36, 123
1, 121619, Note_on_c, 9, 36, 0
1, 121919, Note_on_c, 9, 38, 0
1, 121920, Note_on_c, 9, 36, 118
1, 122039, Note_on_c, 9, 36, 0
1, 122080, Note_on_c, 9, 36, 120
1, 122099, Note_on_c, 9, 36, 0
1, 122160, Note_on_c, 9, 36, 123
1, 122399, Note_on_c, 9, 36, 0
1, 122400, Note_on_c, 9, 38, 121
1, 122639, Note_on_c, 9, 38, 0
1, 122640, Note_on_c, 9, 41, 122
1, 122879, Note_on_c, 9, 41, 0
1, 122880, Note_on_c, 9, 49, 123
1, 122880, Note_on_c, 9, 36, 123
1, 123119, Note_on_c, 9, 36, 0
1, 123120, Note_on_c, 9, 36, 123
1, 123359, Note_on_c, 9, 49, 0
1, 123359, Note_on_c, 9, 36, 0
1, 123360, Note_on_c, 9, 38, 121
1, 123520, Note_on_c, 9, 36, 123
1, 123539, Note_on_c, 9, 36, 0
1, 123839, Note_on_c, 9, 38, 0
1, 123840, Note_on_c, 9, 36, 123
1, 124079, Note_on_c, 9, 36, 0
1, 124080, Note_on_c, 9, 36, 123
1, 124319, Note_on_c, 9, 36, 0
1, 124320, Note_on_c, 9, 38, 121
1, 124799, Note_on_c, 9, 38, 0
1, 124800, Note_on_c, 9, 36, 123
1, 125039, Note_on_c, 9, 36, 0
1, 125040, Note_on_c, 9, 36, 123
1, 125279, Note_on_c, 9, 36, 0
1, 125280, Note_on_c, 9, 38, 121
1, 125440, Note_on_c, 9, 36, 123
1, 125459, Note_on_c, 9, 36, 0
1, 125759, Note_on_c, 9, 38, 0
1, 125760, Note_on_c, 9, 36, 123
1, 125999, Note_on_c, 9, 36, 0
1, 126000, Note_on_c, 9, 36, 123
1, 126239, Note_on_c, 9, 36, 0
1, 126240, Note_on_c, 9, 38, 121
1, 126719, Note_on_c, 9, 38, 0
1, 126720, Note_on_c, 9, 36, 123
1, 126959, Note_on_c, 9, 36, 0
1, 126960, Note_on_c, 9, 36, 123
1, 127199, Note_on_c, 9, 36, 0
1, 127200, Note_on_c, 9, 38, 121
1, 127360, Note_on_c, 9, 36, 123
1, 127379, Note_on_c, 9, 36, 0
1, 127679, Note_on_c, 9, 38, 0
1, 127680, Note_on_c, 9, 36, 123
1, 127919, Note_on_c, 9, 36, 0
1, 127920, Note_on_c, 9, 36, 123
1, 128159, Note_on_c, 9, 36, 0
1, 128160, Note_on_c, 9, 38, 121
1, 128639, Note_on_c, 9, 38, 0
1, 128640, Note_on_c, 9, 36, 123
1, 128879, Note_on_c, 9, 36, 0
1, 128880, Note_on_c, 9, 36, 123
1, 129119, Note_on_c, 9, 36, 0
1, 129120, Note_on_c, 9, 38, 121
1, 129280, Note_on_c, 9, 36, 123
1, 129299, Note_on_c, 9, 36, 0
1, 129599, Note_on_c, 9, 38, 0
1, 129600, Note_on_c, 9, 36, 118
1, 129719, Note_on_c, 9, 36, 0
1, 129760, Note_on_c, 9, 36, 120
1, 129779, Note_on_c, 9, 36, 0
1, 129840, Note_on_c, 9, 36, 123
1, 130079, Note_on_c, 9, 36, 0
1, 130080, Note_on_c, 9, 38, 121
1, 130199, Note_on_c, 9, 38, 0
1, 130240, Note_on_c, 9, 38, 121
1, 130259, Note_on_c, 9, 38, 0
1, 130320, Note_on_c, 9, 41, 119
1, 130559, Note_on_c, 9, 41, 0
1, 130560, Note_on_c, 9, 57, 112
1, 131039, Note_on_c, 9, 57, 0
1, 131040, Note_on_c, 9, 38, 121
1, 131519, Note_on_c, 9, 38, 0
1, 132000, Note_on_c, 9, 38, 121
1, 132479, Note_on_c, 9, 38, 0
1, 132960, Note_on_c, 9, 38, 121
1, 133439, Note_on_c, 9, 38, 0
1, 133920, Note_on_c, 9, 38, 121
1, 134399, Note_on_c, 9, 38, 0
1, 134880, Note_on_c, 9, 38, 121
1, 135359, Note_on_c, 9, 38, 0
1, 135840, Note_on_c, 9, 38, 121
1, 136319, Note_on_c, 9, 38, 0
1, 136800, Note_on_c, 9, 38, 121
1, 137279, Note_on_c, 9, 38, 0
1, 137760, Note_on_c, 9, 38, 121
1, 137999, Note_on_c, 9, 38, 0
1, 138000, Note_on_c, 9, 41, 122
1, 138239, Note_on_c, 9, 41, 0
1, 138240, Note_on_c, 9, 49, 119
1, 138240, Note_on_c, 9, 36, 123
1, 138479, Note_on_c, 9, 36, 0
1, 138480, Note_on_c, 9, 36, 123
1, 138719, Note_on_c, 9, 49, 0
1, 138719, Note_on_c, 9, 36, 0
1, 138720, Note_on_c, 9, 38, 121
1, 138880, Note_on_c, 9, 36, 123
1, 138899, Note_on_c, 9, 36, 0
1, 139199, Note_on_c, 9, 38, 0
1, 139200, Note_on_c, 9, 36, 123
1, 139439, Note_on_c, 9, 36, 0
1, 139440, Note_on_c, 9, 36, 123
1, 139679, Note_on_c, 9, 36, 0
1, 139680, Note_on_c, 9, 38, 121
1, 140159, Note_on_c, 9, 38, 0
1, 140160, Note_on_c, 9, 36, 123
1, 140399, Note_on_c, 9, 36, 0
1, 140400, Note_on_c, 9, 36, 123
1, 140639, Note_on_c, 9, 36, 0
1, 140640, Note_on_c, 9, 38, 121
1, 140800, Note_on_c, 9, 36, 123
1, 140819, Note_on_c, 9, 36, 0
1, 141119, Note_on_c, 9, 38, 0
1, 141120, Note_on_c, 9, 36, 123
1, 141359, Note_on_c, 9, 36, 0
1, 141360, Note_on_c, 9, 36, 123
1, 141599, Note_on_c, 9, 36, 0
1, 141600, Note_on_c, 9, 38, 121
1, 142079, Note_on_c, 9, 38, 0
1, 142080, Note_on_c, 9, 49, 119
1, 142080, Note_on_c, 9, 36, 123
1, 142319, Note_on_c, 9, 36, 0
1, 142320, Note_on_c, 9, 36, 123
1, 142559, Note_on_c, 9, 49, 0
1, 142559, Note_on_c, 9, 36, 0
1, 142560, Note_on_c, 9, 38, 121
1, 142720, Note_on_c, 9, 36, 123
1, 142739, Note_on_c, 9, 36, 0
1, 143039, Note_on_c, 9, 38, 0
1, 143040, Note_on_c, 9, 49, 119
1, 143040, Note_on_c, 9, 36, 123
1, 143279, Note_on_c, 9, 36, 0
1, 143280, Note_on_c, 9, 36, 123
1, 143519, Note_on_c, 9, 49, 0
1, 143519, Note_on_c, 9, 36, 0
1, 143520, Note_on_c, 9, 38, 121
1, 143999, Note_on_c, 9, 38, 0
1, 144000, Note_on_c, 9, 36, 123
1, 144160, Note_on_c, 9, 38, 119
1, 144179, Note_on_c, 9, 38, 0
1, 144239, Note_on_c, 9, 36, 0
1, 144240, Note_on_c, 9, 36, 123
1, 144479, Note_on_c, 9, 36, 0
1, 144480, Note_on_c, 9, 38, 119
1, 144494, Note_on_c, 9, 38, 0
1, 144495, Note_on_c, 9, 41, 117
1, 144640, Note_on_c, 9, 36, 123
1, 144659, Note_on_c, 9, 36, 0
1, 144719, Note_on_c, 9, 41, 0
1, 144720, Note_on_c, 9, 38, 119
1, 144734, Note_on_c, 9, 38, 0
1, 144735, Note_on_c, 9, 41, 117
1, 144959, Note_on_c, 9, 41, 0
1, 144960, Note_on_c, 9, 38, 119
1, 144960, Note_on_c, 9, 36, 123
1, 145199, Note_on_c, 9, 38, 0
1, 145199, Note_on_c, 9, 36, 0
1, 145200, Note_on_c, 9, 38, 117
1, 145200, Note_on_c, 9, 36, 123
1, 145439, Note_on_c, 9, 38, 0
1, 145439, Note_on_c, 9, 36, 0
1, 145440, Note_on_c, 9, 38, 121
1, 145454, Note_on_c, 9, 38, 0
1, 145455, Note_on_c, 9, 41, 112
1, 145499, Note_on_c, 9, 41, 0
1, 145590, Note_on_c, 9, 38, 117
1, 145605, Note_on_c, 9, 41, 112
1, 145619, Note_on_c, 9, 41, 0
1, 145679, Note_on_c, 9, 38, 0
1, 145680, Note_on_c, 9, 38, 121
1, 145694, Note_on_c, 9, 38, 0
1, 145695, Note_on_c, 9, 41, 112
1, 145844, Note_on_c, 9, 41, 0
1, 145845, Note_on_c, 9, 38, 117
1, 145919, Note_on_c, 9, 38, 0
1, 145920, Note_on_c, 9, 49, 123
1, 145920, Note_on_c, 9, 36, 123
1, 146159, Note_on_c, 9, 36, 0
1, 146160, Note_on_c, 9, 36, 123
1, 146399, Note_on_c, 9, 49, 0
1, 146399, Note_on_c, 9, 36, 0
1, 146400, Note_on_c, 9, 38, 121
1, 146560, Note_on_c, 9, 36, 123
1, 146579, Note_on_c, 9, 36, 0
1, 146879, Note_on_c, 9, 38, 0
1, 146880, Note_on_c, 9, 36, 123
1, 147119, Note_on_c, 9, 36, 0
1, 147120, Note_on_c, 9, 36, 123
1, 147359, Note_on_c, 9, 36, 0
1, 147360, Note_on_c, 9, 38, 121
1, 147839, Note_on_c, 9, 38, 0
1, 147840, Note_on_c, 9, 36, 123
1, 148079, Note_on_c, 9, 36, 0
1, 148080, Note_on_c, 9, 36, 123
1, 148319, Note_on_c, 9, 36, 0
1, 148320, Note_on_c, 9, 38, 121
1, 148480, Note_on_c, 9, 36, 123
1, 148499, Note_on_c, 9, 36, 0
1, 148799, Note_on_c, 9, 38, 0
1, 148800, Note_on_c, 9, 36, 123
1, 149039, Note_on_c, 9, 36, 0
1, 149040, Note_on_c, 9, 36, 123
1, 149279, Note_on_c, 9, 36, 0
1, 149280, Note_on_c, 9, 38, 121
1, 149759, Note_on_c, 9, 38, 0
1, 149760, Note_on_c, 9, 36, 123
1, 149999, Note_on_c, 9, 36, 0
1, 150000, Note_on_c, 9, 36, 123
1, 150239, Note_on_c, 9, 36, 0
1, 150240, Note_on_c, 9, 38, 121
1, 150400, Note_on_c, 9, 36, 123
1, 150419, Note_on_c, 9, 36, 0
1, 150719, Note_on_c, 9, 38, 0
1, 150720, Note_on_c, 9, 36, 123
1, 150959, Note_on_c, 9, 36, 0
1, 150960, Note_on_c, 9, 36, 123
1, 151199, Note_on_c, 9, 36, 0
1, 151200, Note_on_c, 9, 38, 121
1, 151679, Note_on_c, 9, 38, 0
1, 151680, Note_on_c, 9, 36, 123
1, 151919, Note_on_c, 9, 36, 0
1, 151920, Note_on_c, 9, 36, 123
1, 152159, Note_on_c, 9, 36, 0
1, 152160, Note_on_c, 9, 38, 121
1, 152320, Note_on_c, 9, 36, 123
1, 152339, Note_on_c, 9, 36, 0
1, 152639, Note_on_c, 9, 38, 0
1, 152640, Note_on_c, 9, 36, 118
1, 152759, Note_on_c, 9, 36, 0
1, 152800, Note_on_c, 9, 36, 120
1, 152819, Note_on_c, 9, 36, 0
1, 152880, Note_on_c, 9, 36, 123
1, 153119, Note_on_c, 9, 36, 0
1, 153120, Note_on_c, 9, 38, 121
1, 153359, Note_on_c, 9, 38, 0
1, 153360, Note_on_c, 9, 41, 122
1, 153599, Note_on_c, 9, 41, 0
1, 153600, Note_on_c, 9, 49, 123
1, 153600, Note_on_c, 9, 36, 123
1, 153839, Note_on_c, 9, 36, 0
1, 153840, Note_on_c, 9, 36, 123
1, 154079, Note_on_c, 9, 49, 0
1, 154079, Note_on_c, 9, 36, 0
1, 154080, Note_on_c, 9, 38, 121
1, 154240, Note_on_c, 9, 36, 123
1, 154259, Note_on_c, 9, 36, 0
1, 154559, Note_on_c, 9, 38, 0
1, 154560, Note_on_c, 9, 36, 123
1, 154799, Note_on_c, 9, 36, 0
1, 154800, Note_on_c, 9, 36, 123
1, 155039, Note_on_c, 9, 36, 0
1, 155040, Note_on_c, 9, 38, 121
1, 155519, Note_on_c, 9, 38, 0
1, 155520, Note_on_c, 9, 36, 123
1, 155759, Note_on_c, 9, 36, 0
1, 155760, Note_on_c, 9, 36, 123
1, 155999, Note_on_c, 9, 36, 0
1, 156000, Note_on_c, 9, 38, 121
1, 156160, Note_on_c, 9, 36, 123
1, 156179, Note_on_c, 9, 36, 0
1, 156479, Note_on_c, 9, 38, 0
1, 156480, Note_on_c, 9, 36, 123
1, 156719, Note_on_c, 9, 36, 0
1, 156720, Note_on_c, 9, 36, 123
1, 156959, Note_on_c, 9, 36, 0
1, 156960, Note_on_c, 9, 38, 121
1, 157439, Note_on_c, 9, 38, 0
1, 157440, Note_on_c, 9, 36, 123
1, 157679, Note_on_c, 9, 36, 0
1, 157680, Note_on_c, 9, 36, 123
1, 157919, Note_on_c, 9, 36, 0
1, 157920, Note_on_c, 9, 38, 121
1, 158080, Note_on_c, 9, 36, 123
1, 158099, Note_on_c, 9, 36, 0
1, 158399, Note_on_c, 9, 38, 0
1, 158400, Note_on_c, 9, 36, 123
1, 158639, Note_on_c, 9, 36, 0
1, 158640, Note_on_c, 9, 36, 123
1, 158879, Note_on_c, 9, 36, 0
1, 158880, Note_on_c, 9, 38, 121
1, 159359, Note_on_c, 9, 38, 0
1, 159360, Note_on_c, 9, 36, 123
1, 159599, Note_on_c, 9, 36, 0
1, 159600, Note_on_c, 9, 36, 123
1, 159839, Note_on_c, 9, 36, 0
1, 159840, Note_on_c, 9, 38, 121
1, 160000, Note_on_c, 9, 36, 123
1, 160019, Note_on_c, 9, 36, 0
1, 160319, Note_on_c, 9, 38, 0
1, 160320, Note_on_c, 9, 36, 118
1, 160439, Note_on_c, 9, 36, 0
1, 160480, Note_on_c, 9, 36, 120
1, 160499, Note_on_c, 9, 36, 0
1, 160560, Note_on_c, 9, 36, 123
1, 160799, Note_on_c, 9, 36, 0
1, 160800, Note_on_c, 9, 38, 121
1, 161039, Note_on_c, 9, 38, 0
1, 161040, Note_on_c, 9, 41, 122
1, 161279, Note_on_c, 9, 41, 0
1, 161280, Note_on_c, 9, 49, 119
1, 161280, Note_on_c, 9, 36, 123
1, 161519, Note_on_c, 9, 36, 0
1, 161520, Note_on_c, 9, 36, 123
1, 161759, Note_on_c, 9, 49, 0
1, 161759, Note_on_c, 9, 36, 0
1, 161760, Note_on_c, 9, 38, 121
1, 161920, Note_on_c, 9, 36, 123
1, 161939, Note_on_c, 9, 36, 0
1, 162239, Note_on_c, 9, 38, 0
1, 162240, Note_on_c, 9, 36, 123
1, 162479, Note_on_c, 9, 36, 0
1, 162480, Note_on_c, 9, 36, 123
1, 162719, Note_on_c, 9, 36, 0
1, 162720, Note_on_c, 9, 38, 121
1, 163199, Note_on_c, 9, 38, 0
1, 163200, Note_on_c, 9, 36, 123
1, 163439, Note_on_c, 9, 36, 0
1, 163440, Note_on_c, 9, 36, 123
1, 163679, Note_on_c, 9, 36, 0
1, 163680, Note_on_c, 9, 38, 121
1, 163840, Note_on_c, 9, 36, 123
1, 163859, Note_on_c, 9, 36, 0
1, 164159, Note_on_c, 9, 38, 0
1, 164160, Note_on_c, 9, 36, 123
1, 164399, Note_on_c, 9, 36, 0
1, 164400, Note_on_c, 9, 36, 123
1, 164639, Note_on_c, 9, 36, 0
1, 164640, Note_on_c, 9, 38, 121
1, 165119, Note_on_c, 9, 38, 0
1, 165120, Note_on_c, 9, 49, 119
1, 165120, Note_on_c, 9, 36, 123
1, 165359, Note_on_c, 9, 36, 0
1, 165360, Note_on_c, 9, 36, 123
1, 165599, Note_on_c, 9, 49, 0
1, 165599, Note_on_c, 9, 36, 0
1, 165600, Note_on_c, 9, 38, 121
1, 165760, Note_on_c, 9, 36, 123
1, 165779, Note_on_c, 9, 36, 0
1, 166079, Note_on_c, 9, 38, 0
1, 166080, Note_on_c, 9, 49, 119
1, 166080, Note_on_c, 9, 36, 123
1, 166319, Note_on_c, 9, 36, 0
1, 166320, Note_on_c, 9, 36, 123
1, 166559, Note_on_c, 9, 49, 0
1, 166559, Note_on_c, 9, 36, 0
1, 166560, Note_on_c, 9, 38, 121
1, 167039, Note_on_c, 9, 38, 0
1, 167040, Note_on_c, 9, 36, 123
1, 167279, Note_on_c, 9, 36, 0
1, 167280, Note_on_c, 9, 36, 123
1, 167519, Note_on_c, 9, 36, 0
1, 167520, Note_on_c, 9, 38, 121
1, 167534, Note_on_c, 9, 38, 0
1, 167535, Note_on_c, 9, 41, 119
1, 167680, Note_on_c, 9, 36, 123
1, 167699, Note_on_c, 9, 36, 0
1, 167759, Note_on_c, 9, 41, 0
1, 167760, Note_on_c, 9, 38, 121
1, 167774, Note_on_c, 9, 38, 0
1, 167775, Note_on_c, 9, 41, 119
1, 167999, Note_on_c, 9, 41, 0
1, 168000, Note_on_c, 9, 36, 123
1, 168239, Note_on_c, 9, 36, 0
1, 168240, Note_on_c, 9, 36, 123
1, 168479, Note_on_c, 9, 36, 0
1, 168480, Note_on_c, 9, 38, 121
1, 168494, Note_on_c, 9, 38, 0
1, 168495, Note_on_c, 9, 41, 119
1, 168539, Note_on_c, 9, 41, 0
1, 168630, Note_on_c, 9, 38, 121
1, 168645, Note_on_c, 9, 41, 119
1, 168659, Note_on_c, 9, 41, 0
1, 168719, Note_on_c, 9, 38, 0
1, 168720, Note_on_c, 9, 38, 121
1, 168734, Note_on_c, 9, 38, 0
1, 168735, Note_on_c, 9, 41, 119
1, 168959, Note_on_c, 9, 41, 0
1, 168960, Note_on_c, 9, 49, 123
1, 168960, Note_on_c, 9, 36, 123
1, 169199, Note_on_c, 9, 36, 0
1, 169200, Note_on_c, 9, 36, 123
1, 169439, Note_on_c, 9, 49, 0
1, 169439, Note_on_c, 9, 36, 0
1, 169440, Note_on_c, 9, 38, 121
1, 169600, Note_on_c, 9, 36, 123
1, 169619, Note_on_c, 9, 36, 0
1, 169919, Note_on_c, 9, 38, 0
1, 169920, Note_on_c, 9, 36, 123
1, 170159, Note_on_c, 9, 36, 0
1, 170160, Note_on_c, 9, 36, 123
1, 170399, Note_on_c, 9, 36, 0
1, 170400, Note_on_c, 9, 38, 121
1, 170879, Note_on_c, 9, 38, 0
1, 170880, Note_on_c, 9, 36, 123
1, 171119, Note_on_c, 9, 36, 0
1, 171120, Note_on_c, 9, 36, 123
1, 171359, Note_on_c, 9, 36, 0
1, 171360, Note_on_c, 9, 38, 121
1, 171520, Note_on_c, 9, 36, 123
1, 171539, Note_on_c, 9, 36, 0
1, 171839, Note_on_c, 9, 38, 0
1, 171840, Note_on_c, 9, 36, 123
1, 172079, Note_on_c, 9, 36, 0
1, 172080, Note_on_c, 9, 36, 123
1, 172319, Note_on_c, 9, 36, 0
1, 172320, Note_on_c, 9, 38, 121
1, 172799, Note_on_c, 9, 38, 0
1, 172800, Note_on_c, 9, 36, 123
1, 173039, Note_on_c, 9, 36, 0
1, 173040, Note_on_c, 9, 36, 123
1, 173279, Note_on_c, 9, 36, 0
1, 173280, Note_on_c, 9, 38, 121
1, 173440, Note_on_c, 9, 36, 123
1, 173459, Note_on_c, 9, 36, 0
1, 173759, Note_on_c, 9, 38, 0
1, 173760, Note_on_c, 9, 36, 123
1, 173999, Note_on_c, 9, 36, 0
1, 174000, Note_on_c, 9, 36, 123
1, 174239, Note_on_c, 9, 36, 0
1, 174240, Note_on_c, 9, 38, 121
1, 174719, Note_on_c, 9, 38, 0
1, 174720, Note_on_c, 9, 36, 123
1, 174959, Note_on_c, 9, 36, 0
1, 174960, Note_on_c, 9, 36, 123
1, 175199, Note_on_c, 9, 36, 0
1, 175200, Note_on_c, 9, 38, 121
1, 175360, Note_on_c, 9, 36, 123
1, 175379, Note_on_c, 9, 36, 0
1, 175679, Note_on_c, 9, 38, 0
1, 175680, Note_on_c, 9, 36, 118
1, 175799, Note_on_c, 9, 36, 0
1, 175840, Note_on_c, 9, 36, 120
1, 175859, Note_on_c, 9, 36, 0
1, 175920, Note_on_c, 9, 36, 123
1, 176159, Note_on_c, 9, 36, 0
1, 176160, Note_on_c, 9, 41, 122
1, 176160, Note_on_c, 9, 38, 121
1, 176399, Note_on_c, 9, 41, 0
1, 176399, Note_on_c, 9, 38, 0
1, 176400, Note_on_c, 9, 41, 122
1, 176400, Note_on_c, 9, 38, 121
1, 176639, Note_on_c, 9, 41, 0
1, 176639, Note_on_c, 9, 38, 0
1, 176640, Note_on_c, 9, 49, 123
1, 176640, Note_on_c, 9, 36, 123
1, 176879, Note_on_c, 9, 36, 0
1, 176880, Note_on_c, 9, 36, 123
1, 177119, Note_on_c, 9, 49, 0
1, 177119, Note_on_c, 9, 36, 0
1, 177120, Note_on_c, 9, 38, 121
1, 177280, Note_on_c, 9, 36, 123
1, 177299, Note_on_c, 9, 36, 0
1, 177599, Note_on_c, 9, 38, 0
1, 177600, Note_on_c, 9, 36, 123
1, 177839, Note_on_c, 9, 36, 0
1, 177840, Note_on_c, 9, 36, 123
1, 178079, Note_on_c, 9, 36, 0
1, 178080, Note_on_c, 9, 38, 121
1, 178559, Note_on_c, 9, 38, 0
1, 178560, Note_on_c, 9, 36, 123
1, 178799, Note_on_c, 9, 36, 0
1, 178800, Note_on_c, 9, 36, 123
1, 179039, Note_on_c, 9, 36, 0
1, 179040, Note_on_c, 9, 38, 121
1, 179200, Note_on_c, 9, 36, 123
1, 179219, Note_on_c, 9, 36, 0
1, 179519, Note_on_c, 9, 38, 0
1, 179520, Note_on_c, 9, 36, 123
1, 179759, Note_on_c, 9, 36, 0
1, 179760, Note_on_c, 9, 36, 123
1, 179999, Note_on_c, 9, 36, 0
1, 180000, Note_on_c, 9, 38, 121
1, 180479, Note_on_c, 9, 38, 0
1, 180480, Note_on_c, 9, 36, 123
1, 180719, Note_on_c, 9, 36, 0
1, 180720, Note_on_c, 9, 36, 123
1, 180959, Note_on_c, 9, 36, 0
1, 180960, Note_on_c, 9, 38, 121
1, 181120, Note_on_c, 9, 36, 123
1, 181139, Note_on_c, 9, 36, 0
1, 181439, Note_on_c, 9, 38, 0
1, 181440, Note_on_c, 9, 36, 123
1, 181679, Note_on_c, 9, 36, 0
1, 181680, Note_on_c, 9, 36, 123
1, 181919, Note_on_c, 9, 36, 0
1, 181920, Note_on_c, 9, 38, 121
1, 182399, Note_on_c, 9, 38, 0
1, 182400, Note_on_c, 9, 36, 123
1, 182560, Note_on_c, 9, 38, 115
1, 182579, Note_on_c, 9, 38, 0
1, 182639, Note_on_c, 9, 36, 0
1, 182640, Note_on_c, 9, 38, 115
1, 182640, Note_on_c, 9, 36, 123
1, 182879, Note_on_c, 9, 38, 0
1, 182879, Note_on_c, 9, 36, 0
1, 182880, Note_on_c, 9, 38, 120
1, 183040, Note_on_c, 9, 36, 123
1, 183044, Note_on_c, 9, 38, 0
1, 183045, Note_on_c, 9, 38, 115
1, 183059, Note_on_c, 9, 36, 0
1, 183059, Note_on_c, 9, 38, 0
1, 183120, Note_on_c, 9, 38, 115
1, 183359, Note_on_c, 9, 38, 0
1, 183360, Note_on_c, 9, 38, 120
1, 183360, Note_on_c, 9, 36, 118
1, 183479, Note_on_c, 9, 36, 0
1, 183520, Note_on_c, 9, 36, 120
1, 183524, Note_on_c, 9, 38, 0
1, 183525, Note_on_c, 9, 38, 115
1, 183539, Note_on_c, 9, 36, 0
1, 183539, Note_on_c, 9, 38, 0
1, 183600, Note_on_c, 9, 38, 115
1, 183600, Note_on_c, 9, 36, 123
1, 183839, Note_on_c, 9, 38, 0
1, 183839, Note_on_c, 9, 36, 0
1, 183840, Note_on_c, 9, 38, 120
1, 183959, Note_on_c, 9, 38, 0
1, 184000, Note_on_c, 9, 38, 115
1, 184019, Note_on_c, 9, 38, 0
1, 184080, Note_on_c, 9, 41, 122
1, 184094, Note_on_c, 9, 41, 0
1, 184095, Note_on_c, 9, 38, 115
1, 184319, Note_on_c, 9, 38, 0
1, 184320, Note_on_c, 9, 49, 123
1, 184320, Note_on_c, 9, 36, 123
1, 184559, Note_on_c, 9, 36, 0
1, 184560, Note_on_c, 9, 36, 123
1, 184799, Note_on_c, 9, 49, 0
1, 184799, Note_on_c, 9, 36, 0
1, 184800, Note_on_c, 9, 38, 121
1, 184960, Note_on_c, 9, 36, 123
1, 184979, Note_on_c, 9, 36, 0
1, 185279, Note_on_c, 9, 38, 0
1, 185280, Note_on_c, 9, 36, 123
1, 185519, Note_on_c, 9, 36, 0
1, 185520, Note_on_c, 9, 36, 123
1, 185759, Note_on_c, 9, 36, 0
1, 185760, Note_on_c, 9, 38, 121
1, 186239, Note_on_c, 9, 38, 0
1, 186240, Note_on_c, 9, 36, 123
1, 186479, Note_on_c, 9, 36, 0
1, 186480, Note_on_c, 9, 36, 123
1, 186719, Note_on_c, 9, 36, 0
1, 186720, Note_on_c, 9, 38, 121
1, 186880, Note_on_c, 9, 36, 123
1, 186899, Note_on_c, 9, 36, 0
1, 187199, Note_on_c, 9, 38, 0
1, 187200, Note_on_c, 9, 36, 123
1, 187439, Note_on_c, 9, 36, 0
1, 187440, Note_on_c, 9, 36, 123
1, 187679, Note_on_c, 9, 36, 0
1, 187680, Note_on_c, 9, 38, 121
1, 188159, Note_on_c, 9, 38, 0
1, 188160, Note_on_c, 9, 36, 123
1, 188399, Note_on_c, 9, 36, 0
1, 188400, Note_on_c, 9, 36, 123
1, 188639, Note_on_c, 9, 36, 0
1, 188640, Note_on_c, 9, 38, 121
1, 188800, Note_on_c, 9, 36, 123
1, 188819, Note_on_c, 9, 36, 0
1, 189119, Note_on_c, 9, 38, 0
1, 189120, Note_on_c, 9, 36, 123
1, 189359, Note_on_c, 9, 36, 0
1, 189360, Note_on_c, 9, 36, 123
1, 189599, Note_on_c, 9, 36, 0
1, 189600, Note_on_c, 9, 38, 121
1, 190079, Note_on_c, 9, 38, 0
1, 190080, Note_on_c, 9, 36, 123
1, 190319, Note_on_c, 9, 36, 0
1, 190320, Note_on_c, 9, 36, 123
1, 190559, Note_on_c, 9, 36, 0
1, 190560, Note_on_c, 9, 38, 121
1, 190720, Note_on_c, 9, 36, 123
1, 190739, Note_on_c, 9, 36, 0
1, 191039, Note_on_c, 9, 38, 0
1, 191040, Note_on_c, 9, 36, 118
1, 191159, Note_on_c, 9, 36, 0
1, 191200, Note_on_c, 9, 36, 120
1, 191219, Note_on_c, 9, 36, 0
1, 191280, Note_on_c, 9, 36, 123
1, 191519, Note_on_c, 9, 36, 0
1, 191520, Note_on_c, 9, 38, 121
1, 191759, Note_on_c, 9, 38, 0
1, 191760, Note_on_c, 9, 41, 122
1, 191999, Note_on_c, 9, 41, 0
1, 192000, Note_on_c, 9, 49, 123
1, 192000, Note_on_c, 9, 36, 123
1, 192239, Note_on_c, 9, 36, 0
1, 192240, Note_on_c, 9, 36, 123
1, 192479, Note_on_c, 9, 49, 0
1, 192479, Note_on_c, 9, 36, 0
1, 192480, Note_on_c, 9, 38, 121
1, 192640, Note_on_c, 9, 36, 123
1, 192659, Note_on_c, 9, 36, 0
1, 192959, Note_on_c, 9, 38, 0
1, 192960, Note_on_c, 9, 36, 123
1, 193199, Note_on_c, 9, 36, 0
1, 193200, Note_on_c, 9, 36, 123
1, 193439, Note_on_c, 9, 36, 0
1, 193440, Note_on_c, 9, 38, 121
1, 193919, Note_on_c, 9, 38, 0
1, 193920, Note_on_c, 9, 36, 123
1, 194159, Note_on_c, 9, 36, 0
1, 194160, Note_on_c, 9, 36, 123
1, 194399, Note_on_c, 9, 36, 0
1, 194400, Note_on_c, 9, 38, 121
1, 194560, Note_on_c, 9, 36, 123
1, 194579, Note_on_c, 9, 36, 0
1, 194879, Note_on_c, 9, 38, 0
1, 194880, Note_on_c, 9, 36, 123
1, 195119, Note_on_c, 9, 36, 0
1, 195120, Note_on_c, 9, 36, 123
1, 195359, Note_on_c, 9, 36, 0
1, 195360, Note_on_c, 9, 38, 121
1, 195839, Note_on_c, 9, 38, 0
1, 195840, Note_on_c, 9, 36, 123
1, 196079, Note_on_c, 9, 36, 0
1, 196080, Note_on_c, 9, 36, 123
1, 196319, Note_on_c, 9, 36, 0
1, 196320, Note_on_c, 9, 38, 121
1, 196480, Note_on_c, 9, 36, 123
1, 196499, Note_on_c, 9, 36, 0
1, 196799, Note_on_c, 9, 38, 0
1, 196800, Note_on_c, 9, 36, 123
1, 197039, Note_on_c, 9, 36, 0
1, 197040, Note_on_c, 9, 36, 123
1, 197279, Note_on_c, 9, 36, 0
1, 197280, Note_on_c, 9, 38, 121
1, 197759, Note_on_c, 9, 38, 0
1, 197760, Note_on_c, 9, 36, 123
1, 197999, Note_on_c, 9, 36, 0
1, 198000, Note_on_c, 9, 36, 123
1, 198239, Note_on_c, 9, 36, 0
1, 198240, Note_on_c, 9, 38, 121
1, 198400, Note_on_c, 9, 36, 123
1, 198419, Note_on_c, 9, 36, 0
1, 198719, Note_on_c, 9, 38, 0
1, 198720, Note_on_c, 9, 36, 118
1, 198839, Note_on_c, 9, 36, 0
1, 198880, Note_on_c, 9, 36, 120
1, 198885, Note_on_c, 9, 38, 121
1, 198899, Note_on_c, 9, 36, 0
1, 198899, Note_on_c, 9, 38, 0
1, 198960, Note_on_c, 9, 38, 121
1, 198960, Note_on_c, 9, 36, 123
1, 199199, Note_on_c, 9, 38, 0
1, 199199, Note_on_c, 9, 36, 0
1, 199200, Note_on_c, 9, 38, 121
1, 199439, Note_on_c, 9, 38, 0
1, 199440, Note_on_c, 9, 41, 122
1, 199679, Note_on_c, 9, 41, 0
1, 199680, Note_on_c, 9, 49, 123
1, 199680, Note_on_c, 9, 36, 123
1, 199919, Note_on_c, 9, 36, 0
1, 199920, Note_on_c, 9, 36, 123
1, 200159, Note_on_c, 9, 49, 0
1, 200159, Note_on_c, 9, 36, 0
1, 200160, Note_on_c, 9, 38, 121
1, 200320, Note_on_c, 9, 36, 123
1, 200339, Note_on_c, 9, 36, 0
1, 200639, Note_on_c, 9, 38, 0
1, 200640, Note_on_c, 9, 36, 123
1, 200879, Note_on_c, 9, 36, 0
1, 200880, Note_on_c, 9, 36, 123
1, 201119, Note_on_c, 9, 36, 0
1, 201120, Note_on_c, 9, 38, 121
1, 201599, Note_on_c, 9, 38, 0
1, 201600, Note_on_c, 9, 36, 123
1, 201839, Note_on_c, 9, 36, 0
1, 201840, Note_on_c, 9, 36, 123
1, 202079, Note_on_c, 9, 36, 0
1, 202080, Note_on_c, 9, 38, 121
1, 202240, Note_on_c, 9, 36, 123
1, 202259, Note_on_c, 9, 36, 0
1, 202559, Note_on_c, 9, 38, 0
1, 202560, Note_on_c, 9, 36, 123
1, 202799, Note_on_c, 9, 36, 0
1, 202800, Note_on_c, 9, 36, 123
1, 203039, Note_on_c, 9, 36, 0
1, 203040, Note_on_c, 9, 38, 121
1, 203519, Note_on_c, 9, 38, 0
1, 203520, Note_on_c, 9, 36, 123
1, 203759, Note_on_c, 9, 36, 0
1, 203760, Note_on_c, 9, 36, 123
1, 203999, Note_on_c, 9, 36, 0
1, 204000, Note_on_c, 9, 38, 121
1, 204160, Note_on_c, 9, 36, 123
1, 204179, Note_on_c, 9, 36, 0
1, 204479, Note_on_c, 9, 38, 0
1, 204480, Note_on_c, 9, 36, 123
1, 204719, Note_on_c, 9, 36, 0
1, 204720, Note_on_c, 9, 36, 123
1, 204959, Note_on_c, 9, 36, 0
1, 204960, Note_on_c, 9, 38, 121
1, 205439, Note_on_c, 9, 38, 0
1, 205440, Note_on_c, 9, 36, 123
1, 205679, Note_on_c, 9, 36, 0
1, 205680, Note_on_c, 9, 36, 104
1, 205919, Note_on_c, 9, 36, 0
1, 205920, Note_on_c, 9, 38, 106
1, 206399, Note_on_c, 9, 38, 0
1, 206400, End_track
0, 0, End_of_file
