0, 0, Header, 1, 2, 480
1, 0, Start_track
1, 0, Time_signature, 4, 2, 24, 8
1, 0, Key_signature, 0, "major"
1, 0, Tempo, 416667
1, 0, Control_c, 9, 121, 0
1, 0, Program_c, 9, 0
1, 0, Control_c, 9, 7, 100
1, 0, Control_c, 9, 10, 64
1, 0, Control_c, 9, 91, 0
1, 0, Control_c, 9, 93, 0
1, 0, MIDI_port, 0
1, 1920, Note_on_c, 9, 42, 63
1, 2399, Note_on_c, 9, 42, 0
1, 2400, Note_on_c, 9, 42, 62
1, 2879, Note_on_c, 9, 42, 0
1, 2880, Note_on_c, 9, 42, 62
1, 3359, Note_on_c, 9, 42, 0
1, 3360, Note_on_c, 9, 42, 61
1, 3839, Note_on_c, 9, 42, 0
1, 3840, Note_on_c, 9, 49, 108
1, 3840, Note_on_c, 9, 36, 127
1, 4319, Note_on_c, 9, 49, 0
1, 4319, Note_on_c, 9, 36, 0
1, 4320, Note_on_c, 9, 40, 99
1, 4320, Note_on_c, 9, 36, 127
1, 4559, Note_on_c, 9, 40, 0
1, 4560, Note_on_c, 9, 40, 82
1, 4679, Note_on_c, 9, 40, 0
1, 4680, Note_on_c, 9, 40, 102
1, 4799, Note_on_c, 9, 36, 0
1, 4799, Note_on_c, 9, 40, 0
1, 4800, Note_on_c, 9, 40, 127
1, 4800, Note_on_c, 9, 36, 127
1, 5039, Note_on_c, 9, 40, 0
1, 5040, Note_on_c, 9, 40, 85
1, 5159, Note_on_c, 9, 40, 0
1, 5160, Note_on_c, 9, 40, 90
1, 5279, Note_on_c, 9, 36, 0
1, 5279, Note_on_c, 9, 40, 0
1, 5280, Note_on_c, 9, 40, 127
1, 5280, Note_on_c, 9, 36, 127
1, 5519, Note_on_c, 9, 40, 0
1, 5520, Note_on_c, 9, 40, 89
1, 5639, Note_on_c, 9, 40, 0
1, 5640, Note_on_c, 9, 40, 94
1, 5759, Note_on_c, 9, 36, 0
1, 5759, Note_on_c, 9, 40, 0
1, 5760, Note_on_c, 9, 40, 127
1, 5760, Note_on_c, 9, 36, 127
1, 5999, Note_on_c, 9, 40, 0
1, 6000, Note_on_c, 9, 40, 92
1, 6119, Note_on_c, 9, 40, 0
1, 6120, Note_on_c, 9, 40, 95
1, 6239, Note_on_c, 9, 36, 0
1, 6239, Note_on_c, 9, 40, 0
1, 6240, Note_on_c, 9, 40, 127
1, 6240, Note_on_c, 9, 36, 127
1, 6479, Note_on_c, 9, 40, 0
1, 6480, Note_on_c, 9, 40, 85
1, 6599, Note_on_c, 9, 40, 0
1, 6600, Note_on_c, 9, 40, 89
1, 6719, Note_on_c, 9, 36, 0
1, 6719, Note_on_c, 9, 40, 0
1, 6720, Note_on_c, 9, 40, 127
1, 6720, Note_on_c, 9, 36, 127
1, 6959, Note_on_c, 9, 40, 0
1, 6960, Note_on_c, 9, 40, 82
1, 7079, Note_on_c, 9, 40, 0
1, 7080, Note_on_c, 9, 40, 83
1, 7199, Note_on_c, 9, 36, 0
1, 7199, Note_on_c, 9, 40, 0
1, 7200, Note_on_c, 9, 40, 127
1, 7200, Note_on_c, 9, 36, 127
1, 7439, Note_on_c, 9, 40, 0
1, 7440, Note_on_c, 9, 40, 89
1, 7559, Note_on_c, 9, 40, 0
1, 7560, Note_on_c, 9, 40, 66
1, 7679, Note_on_c, 9, 36, 0
1, 7679, Note_on_c, 9, 40, 0
1, 7680, Note_on_c, 9, 40, 127
1, 7680, Note_on_c, 9, 36, 127
1, 7919, Note_on_c, 9, 40, 0
1, 7920, Note_on_c, 9, 40, 87
1, 8039, Note_on_c, 9, 40, 0
1, 8040, Note_on_c, 9, 40, 84
1, 8159, Note_on_c, 9, 36, 0
1, 8159, Note_on_c, 9, 40, 0
1, 8160, Note_on_c, 9, 40, 127
1, 8160, Note_on_c, 9, 36, 127
1, 8399, Note_on_c, 9, 40, 0
1, 8400, Note_on_c, 9, 40, 90
1, 8519, Note_on_c, 9, 40, 0
1, 8520, Note_on_c, 9, 40, 73
1, 8639, Note_on_c, 9, 36, 0
1, 8639, Note_on_c, 9, 40, 0
1, 8640, Note_on_c, 9, 40, 127
1, 8640, Note_on_c, 9, 36, 127
1, 8879, Note_on_c, 9, 40, 0
1, 8880, Note_on_c, 9, 40, 91
1, 8999, Note_on_c, 9, 40, 0
1, 9000, Note_on_c, 9, 40, 79
1, 9119, Note_on_c, 9, 36, 0
1, 9119, Note_on_c, 9, 40, 0
1, 9120, Note_on_c, 9, 40, 127
1, 9120, Note_on_c, 9, 36, 127
1, 9359, Note_on_c, 9, 40, 0
1, 9360, Note_on_c, 9, 40, 101
1, 9479, Note_on_c, 9, 40, 0
1, 9480, Note_on_c, 9, 40, 93
1, 9599, Note_on_c, 9, 36, 0
1, 9599, Note_on_c, 9, 40, 0
1, 9600, Note_on_c, 9, 49, 118
1, 9600, Note_on_c, 9, 36, 127
1, 9839, Note_on_c, 9, 49, 0
1, 9839, Note_on_c, 9, 36, 0
1, 9920, Note_on_c, 9, 49, 116
1, 9920, Note_on_c, 9, 36, 127
1, 9959, Note_on_c, 9, 49, 0
1, 9959, Note_on_c, 9, 36, 0
1, 10240, Note_on_c, 9, 49, 99
1, 10240, Note_on_c, 9, 36, 127
1, 10259, Note_on_c, 9, 49, 0
1, 10259, Note_on_c, 9, 36, 0
1, 10560, Note_on_c, 9, 49, 114
1, 10560, Note_on_c, 9, 36, 127
1, 11039, Note_on_c, 9, 49, 0
1, 11039, Note_on_c, 9, 36, 0
1, 11040, Note_on_c, 9, 41, 127
1, 11040, Note_on_c, 9, 40, 127
1, 11519, Note_on_c, 9, 41, 0
1, 11519, Note_on_c, 9, 40, 0
1, 11520, Note_on_c, 9, 49, 108
1, 11520, Note_on_c, 9, 36, 127
1, 11999, Note_on_c, 9, 49, 0
1, 11999, Note_on_c, 9, 36, 0
1, 12000, Note_on_c, 9, 40, 99
1, 12000, Note_on_c, 9, 36, 127
1, 12239, Note_on_c, 9, 40, 0
1, 12240, Note_on_c, 9, 40, 82
1, 12359, Note_on_c, 9, 40, 0
1, 12360, Note_on_c, 9, 40, 102
1, 12479, Note_on_c, 9, 36, 0
1, 12479, Note_on_c, 9, 40, 0
1, 12480, Note_on_c, 9, 40, 127
1, 12480, Note_on_c, 9, 36, 127
1, 12719, Note_on_c, 9, 40, 0
1, 12720, Note_on_c, 9, 40, 85
1, 12839, Note_on_c, 9, 40, 0
1, 12840, Note_on_c, 9, 40, 90
1, 12959, Note_on_c, 9, 36, 0
1, 12959, Note_on_c, 9, 40, 0
1, 12960, Note_on_c, 9, 40, 127
1, 12960, Note_on_c, 9, 36, 127
1, 13199, Note_on_c, 9, 40, 0
1, 13200, Note_on_c, 9, 40, 89
1, 13319, Note_on_c, 9, 40, 0
1, 13320, Note_on_c, 9, 40, 94
1, 13439, Note_on_c, 9, 36, 0
1, 13439, Note_on_c, 9, 40, 0
1, 13440, Note_on_c, 9, 40, 127
1, 13440, Note_on_c, 9, 36, 127
1, 13679, Note_on_c, 9, 40, 0
1, 13680, Note_on_c, 9, 40, 92
1, 13799, Note_on_c, 9, 40, 0
1, 13800, Note_on_c, 9, 40, 95
1, 13919, Note_on_c, 9, 36, 0
1, 13919, Note_on_c, 9, 40, 0
1, 13920, Note_on_c, 9, 40, 127
1, 13920, Note_on_c, 9, 36, 127
1, 14159, Note_on_c, 9, 40, 0
1, 14160, Note_on_c, 9, 40, 85
1, 14279, Note_on_c, 9, 40, 0
1, 14280, Note_on_c, 9, 40, 89
1, 14399, Note_on_c, 9, 36, 0
1, 14399, Note_on_c, 9, 40, 0
1, 14400, Note_on_c, 9, 40, 127
1, 14400, Note_on_c, 9, 36, 127
1, 14639, Note_on_c, 9, 40, 0
1, 14640, Note_on_c, 9, 40, 82
1, 14759, Note_on_c, 9, 40, 0
1, 14760, Note_on_c, 9, 40, 83
1, 14879, Note_on_c, 9, 36, 0
1, 14879, Note_on_c, 9, 40, 0
1, 14880, Note_on_c, 9, 40, 127
1, 14880, Note_on_c, 9, 36, 127
1, 15119, Note_on_c, 9, 40, 0
1, 15120, Note_on_c, 9, 40, 89
1, 15239, Note_on_c, 9, 40, 0
1, 15240, Note_on_c, 9, 40, 66
1, 15359, Note_on_c, 9, 36, 0
1, 15359, Note_on_c, 9, 40, 0
1, 15360, Note_on_c, 9, 40, 127
1, 15360, Note_on_c, 9, 36, 127
1, 15599, Note_on_c, 9, 40, 0
1, 15600, Note_on_c, 9, 40, 87
1, 15719, Note_on_c, 9, 40, 0
1, 15720, Note_on_c, 9, 40, 84
1, 15839, Note_on_c, 9, 36, 0
1, 15839, Note_on_c, 9, 40, 0
1, 15840, Note_on_c, 9, 40, 127
1, 15840, Note_on_c, 9, 36, 127
1, 16079, Note_on_c, 9, 40, 0
1, 16080, Note_on_c, 9, 40, 90
1, 16199, Note_on_c, 9, 40, 0
1, 16200, Note_on_c, 9, 40, 73
1, 16319, Note_on_c, 9, 36, 0
1, 16319, Note_on_c, 9, 40, 0
1, 16320, Note_on_c, 9, 40, 127
1, 16320, Note_on_c, 9, 36, 127
1, 16559, Note_on_c, 9, 40, 0
1, 16560, Note_on_c, 9, 40, 91
1, 16679, Note_on_c, 9, 40, 0
1, 16680, Note_on_c, 9, 40, 79
1, 16799, Note_on_c, 9, 36, 0
1, 16799, Note_on_c, 9, 40, 0
1, 16800, Note_on_c, 9, 40, 127
1, 16800, Note_on_c, 9, 36, 127
1, 17039, Note_on_c, 9, 40, 0
1, 17040, Note_on_c, 9, 40, 101
1, 17159, Note_on_c, 9, 40, 0
1, 17160, Note_on_c, 9, 40, 93
1, 17279, Note_on_c, 9, 36, 0
1, 17279, Note_on_c, 9, 40, 0
1, 17280, Note_on_c, 9, 49, 118
1, 17280, Note_on_c, 9, 36, 127
1, 17519, Note_on_c, 9, 49, 0
1, 17519, Note_on_c, 9, 36, 0
1, 17600, Note_on_c, 9, 49, 116
1, 17600, Note_on_c, 9, 36, 127
1, 17639, Note_on_c, 9, 49, 0
1, 17639, Note_on_c, 9, 36, 0
1, 17920, Note_on_c, 9, 49, 99
1, 17920, Note_on_c, 9, 36, 127
1, 17939, Note_on_c, 9, 49, 0
1, 17939, Note_on_c, 9, 36, 0
1, 18240, Note_on_c, 9, 49, 114
1, 18240, Note_on_c, 9, 36, 127
1, 18719, Note_on_c, 9, 49, 0
1, 18719, Note_on_c, 9, 36, 0
1, 18720, Note_on_c, 9, 41, 127
1, 18720, Note_on_c, 9, 40, 127
1, 19199, Note_on_c, 9, 41, 0
1, 19199, Note_on_c, 9, 40, 0
1, 19200, Note_on_c, 9, 49, 115
1, 19200, Note_on_c, 9, 36, 127
1, 19439, Note_on_c, 9, 49, 0
1, 19440, Note_on_c, 9, 46, 91
1, 19679, Note_on_c, 9, 36, 0
1, 19679, Note_on_c, 9, 46, 0
1, 19680, Note_on_c, 9, 40, 127
1, 19680, Note_on_c, 9, 46, 121
1, 19680, Note_on_c, 9, 39, 127
1, 19680, Note_on_c, 9, 36, 127
1, 19919, Note_on_c, 9, 40, 0
1, 19919, Note_on_c, 9, 46, 0
1, 19919, Note_on_c, 9, 39, 0
1, 19920, Note_on_c, 9, 46, 91
1, 19920, Note_on_c, 9, 39, 80
1, 20159, Note_on_c, 9, 36, 0
1, 20159, Note_on_c, 9, 46, 0
1, 20159, Note_on_c, 9, 39, 0
1, 20160, Note_on_c, 9, 46, 116
1, 20160, Note_on_c, 9, 36, 127
1, 20399, Note_on_c, 9, 46, 0
1, 20400, Note_on_c, 9, 46, 89
1, 20639, Note_on_c, 9, 36, 0
1, 20639, Note_on_c, 9, 46, 0
1, 20640, Note_on_c, 9, 40, 127
1, 20640, Note_on_c, 9, 46, 112
1, 20640, Note_on_c, 9, 39, 127
1, 20640, Note_on_c, 9, 36, 127
1, 20879, Note_on_c, 9, 40, 0
1, 20879, Note_on_c, 9, 46, 0
1, 20879, Note_on_c, 9, 39, 0
1, 20880, Note_on_c, 9, 46, 50
1, 20880, Note_on_c, 9, 39, 78
1, 21119, Note_on_c, 9, 36, 0
1, 21119, Note_on_c, 9, 46, 0
1, 21119, Note_on_c, 9, 39, 0
1, 21120, Note_on_c, 9, 46, 96
1, 21120, Note_on_c, 9, 36, 127
1, 21359, Note_on_c, 9, 46, 0
1, 21360, Note_on_c, 9, 46, 91
1, 21599, Note_on_c, 9, 36, 0
1, 21599, Note_on_c, 9, 46, 0
1, 21600, Note_on_c, 9, 40, 127
1, 21600, Note_on_c, 9, 46, 111
1, 21600, Note_on_c, 9, 39, 127
1, 21600, Note_on_c, 9, 36, 127
1, 21839, Note_on_c, 9, 40, 0
1, 21839, Note_on_c, 9, 46, 0
1, 21839, Note_on_c, 9, 39, 0
1, 21840, Note_on_c, 9, 46, 80
1, 21840, Note_on_c, 9, 39, 83
1, 22079, Note_on_c, 9, 36, 0
1, 22079, Note_on_c, 9, 46, 0
1, 22079, Note_on_c, 9, 39, 0
1, 22080, Note_on_c, 9, 46, 104
1, 22080, Note_on_c, 9, 36, 127
1, 22319, Note_on_c, 9, 46, 0
1, 22320, Note_on_c, 9, 46, 81
1, 22559, Note_on_c, 9, 36, 0
1, 22559, Note_on_c, 9, 46, 0
1, 22560, Note_on_c, 9, 40, 127
1, 22560, Note_on_c, 9, 46, 111
1, 22560, Note_on_c, 9, 39, 127
1, 22560, Note_on_c, 9, 36, 127
1, 22799, Note_on_c, 9, 40, 0
1, 22799, Note_on_c, 9, 46, 0
1, 22799, Note_on_c, 9, 39, 0
1, 22800, Note_on_c, 9, 46, 81
1, 22800, Note_on_c, 9, 39, 86
1, 23039, Note_on_c, 9, 36, 0
1, 23039, Note_on_c, 9, 46, 0
1, 23039, Note_on_c, 9, 39, 0
1, 23040, Note_on_c, 9, 46, 116
1, 23040, Note_on_c, 9, 36, 127
1, 23279, Note_on_c, 9, 46, 0
1, 23280, Note_on_c, 9, 46, 72
1, 23519, Note_on_c, 9, 36, 0
1, 23519, Note_on_c, 9, 46, 0
1, 23520, Note_on_c, 9, 40, 127
1, 23520, Note_on_c, 9, 46, 121
1, 23520, Note_on_c, 9, 39, 127
1, 23520, Note_on_c, 9, 36, 127
1, 23759, Note_on_c, 9, 40, 0
1, 23759, Note_on_c, 9, 46, 0
1, 23759, Note_on_c, 9, 39, 0
1, 23760, Note_on_c, 9, 46, 81
1, 23760, Note_on_c, 9, 39, 77
1, 23999, Note_on_c, 9, 36, 0
1, 23999, Note_on_c, 9, 46, 0
1, 23999, Note_on_c, 9, 39, 0
1, 24000, Note_on_c, 9, 46, 118
1, 24000, Note_on_c, 9, 36, 127
1, 24239, Note_on_c, 9, 46, 0
1, 24240, Note_on_c, 9, 46, 79
1, 24479, Note_on_c, 9, 36, 0
1, 24479, Note_on_c, 9, 46, 0
1, 24480, Note_on_c, 9, 40, 127
1, 24480, Note_on_c, 9, 46, 116
1, 24480, Note_on_c, 9, 39, 127
1, 24480, Note_on_c, 9, 36, 127
1, 24719, Note_on_c, 9, 40, 0
1, 24719, Note_on_c, 9, 46, 0
1, 24719, Note_on_c, 9, 39, 0
1, 24720, Note_on_c, 9, 46, 86
1, 24720, Note_on_c, 9, 39, 84
1, 24959, Note_on_c, 9, 36, 0
1, 24959, Note_on_c, 9, 46, 0
1, 24959, Note_on_c, 9, 39, 0
1, 24960, Note_on_c, 9, 46, 114
1, 24960, Note_on_c, 9, 36, 127
1, 25199, Note_on_c, 9, 46, 0
1, 25200, Note_on_c, 9, 46, 82
1, 25439, Note_on_c, 9, 36, 0
1, 25439, Note_on_c, 9, 46, 0
1, 25440, Note_on_c, 9, 40, 127
1, 25440, Note_on_c, 9, 46, 118
1, 25440, Note_on_c, 9, 39, 127
1, 25440, Note_on_c, 9, 36, 127
1, 25679, Note_on_c, 9, 40, 0
1, 25679, Note_on_c, 9, 46, 0
1, 25679, Note_on_c, 9, 39, 0
1, 25680, Note_on_c, 9, 46, 81
1, 25680, Note_on_c, 9, 39, 95
1, 25919, Note_on_c, 9, 36, 0
1, 25919, Note_on_c, 9, 46, 0
1, 25919, Note_on_c, 9, 39, 0
1, 25920, Note_on_c, 9, 46, 110
1, 25920, Note_on_c, 9, 36, 127
1, 26159, Note_on_c, 9, 46, 0
1, 26160, Note_on_c, 9, 46, 79
1, 26160, Note_on_c, 9, 39, 64
1, 26399, Note_on_c, 9, 36, 0
1, 26399, Note_on_c, 9, 46, 0
1, 26399, Note_on_c, 9, 39, 0
1, 26400, Note_on_c, 9, 40, 127
1, 26400, Note_on_c, 9, 46, 115
1, 26400, Note_on_c, 9, 39, 127
1, 26400, Note_on_c, 9, 36, 127
1, 26639, Note_on_c, 9, 40, 0
1, 26639, Note_on_c, 9, 46, 0
1, 26639, Note_on_c, 9, 39, 0
1, 26640, Note_on_c, 9, 46, 70
1, 26640, Note_on_c, 9, 39, 95
1, 26879, Note_on_c, 9, 36, 0
1, 26879, Note_on_c, 9, 46, 0
1, 26879, Note_on_c, 9, 39, 0
1, 26880, Note_on_c, 9, 46, 115
1, 26880, Note_on_c, 9, 36, 127
1, 27119, Note_on_c, 9, 46, 0
1, 27120, Note_on_c, 9, 46, 86
1, 27359, Note_on_c, 9, 36, 0
1, 27359, Note_on_c, 9, 46, 0
1, 27360, Note_on_c, 9, 40, 127
1, 27360, Note_on_c, 9, 46, 119
1, 27360, Note_on_c, 9, 39, 127
1, 27360, Note_on_c, 9, 36, 127
1, 27599, Note_on_c, 9, 40, 0
1, 27599, Note_on_c, 9, 46, 0
1, 27599, Note_on_c, 9, 39, 0
1, 27600, Note_on_c, 9, 46, 84
1, 27600, Note_on_c, 9, 39, 87
1, 27839, Note_on_c, 9, 36, 0
1, 27839, Note_on_c, 9, 46, 0
1, 27839, Note_on_c, 9, 39, 0
1, 27840, Note_on_c, 9, 46, 115
1, 27840, Note_on_c, 9, 36, 127
1, 28079, Note_on_c, 9, 46, 0
1, 28080, Note_on_c, 9, 46, 82
1, 28319, Note_on_c, 9, 36, 0
1, 28319, Note_on_c, 9, 46, 0
1, 28320, Note_on_c, 9, 40, 127
1, 28320, Note_on_c, 9, 46, 121
1, 28320, Note_on_c, 9, 39, 127
1, 28320, Note_on_c, 9, 36, 127
1, 28559, Note_on_c, 9, 40, 0
1, 28559, Note_on_c, 9, 46, 0
1, 28559, Note_on_c, 9, 39, 0
1, 28560, Note_on_c, 9, 46, 89
1, 28560, Note_on_c, 9, 39, 75
1, 28799, Note_on_c, 9, 36, 0
1, 28799, Note_on_c, 9, 46, 0
1, 28799, Note_on_c, 9, 39, 0
1, 28800, Note_on_c, 9, 46, 103
1, 28800, Note_on_c, 9, 36, 127
1, 29039, Note_on_c, 9, 46, 0
1, 29040, Note_on_c, 9, 46, 88
1, 29279, Note_on_c, 9, 36, 0
1, 29279, Note_on_c, 9, 46, 0
1, 29280, Note_on_c, 9, 40, 127
1, 29280, Note_on_c, 9, 46, 114
1, 29280, Note_on_c, 9, 39, 127
1, 29280, Note_on_c, 9, 36, 127
1, 29519, Note_on_c, 9, 40, 0
1, 29519, Note_on_c, 9, 46, 0
1, 29519, Note_on_c, 9, 39, 0
1, 29520, Note_on_c, 9, 46, 85
1, 29520, Note_on_c, 9, 39, 76
1, 29759, Note_on_c, 9, 36, 0
1, 29759, Note_on_c, 9, 46, 0
1, 29759, Note_on_c, 9, 39, 0
1, 29760, Note_on_c, 9, 46, 104
1, 29760, Note_on_c, 9, 36, 127
1, 29999, Note_on_c, 9, 46, 0
1, 30000, Note_on_c, 9, 40, 105
1, 30000, Note_on_c, 9, 46, 96
1, 30239, Note_on_c, 9, 36, 0
1, 30239, Note_on_c, 9, 40, 0
1, 30239, Note_on_c, 9, 46, 0
1, 30240, Note_on_c, 9, 40, 127
1, 30240, Note_on_c, 9, 46, 126
1, 30240, Note_on_c, 9, 39, 127
1, 30240, Note_on_c, 9, 36, 127
1, 30479, Note_on_c, 9, 40, 0
1, 30479, Note_on_c, 9, 46, 0
1, 30479, Note_on_c, 9, 39, 0
1, 30479, Note_on_c, 9, 36, 0
1, 30480, Note_on_c, 9, 39, 83
1, 30480, Note_on_c, 9, 36, 110
1, 30719, Note_on_c, 9, 39, 0
1, 30719, Note_on_c, 9, 36, 0
1, 30720, Note_on_c, 9, 49, 115
1, 30720, Note_on_c, 9, 36, 127
1, 30959, Note_on_c, 9, 49, 0
1, 30960, Note_on_c, 9, 46, 91
1, 31199, Note_on_c, 9, 36, 0
1, 31199, Note_on_c, 9, 46, 0
1, 31200, Note_on_c, 9, 40, 127
1, 31200, Note_on_c, 9, 46, 121
1, 31200, Note_on_c, 9, 39, 127
1, 31200, Note_on_c, 9, 36, 127
1, 31439, Note_on_c, 9, 40, 0
1, 31439, Note_on_c, 9, 46, 0
1, 31439, Note_on_c, 9, 39, 0
1, 31440, Note_on_c, 9, 46, 91
1, 31440, Note_on_c, 9, 39, 80
1, 31679, Note_on_c, 9, 36, 0
1, 31679, Note_on_c, 9, 46, 0
1, 31679, Note_on_c, 9, 39, 0
1, 31680, Note_on_c, 9, 46, 116
1, 31680, Note_on_c, 9, 36, 127
1, 31919, Note_on_c, 9, 46, 0
1, 31920, Note_on_c, 9, 46, 89
1, 32159, Note_on_c, 9, 36, 0
1, 32159, Note_on_c, 9, 46, 0
1, 32160, Note_on_c, 9, 40, 127
1, 32160, Note_on_c, 9, 46, 112
1, 32160, Note_on_c, 9, 39, 127
1, 32160, Note_on_c, 9, 36, 127
1, 32399, Note_on_c, 9, 40, 0
1, 32399, Note_on_c, 9, 46, 0
1, 32399, Note_on_c, 9, 39, 0
1, 32400, Note_on_c, 9, 46, 50
1, 32400, Note_on_c, 9, 39, 78
1, 32639, Note_on_c, 9, 36, 0
1, 32639, Note_on_c, 9, 46, 0
1, 32639, Note_on_c, 9, 39, 0
1, 32640, Note_on_c, 9, 46, 96
1, 32640, Note_on_c, 9, 36, 127
1, 32879, Note_on_c, 9, 46, 0
1, 32880, Note_on_c, 9, 46, 91
1, 33119, Note_on_c, 9, 36, 0
1, 33119, Note_on_c, 9, 46, 0
1, 33120, Note_on_c, 9, 40, 127
1, 33120, Note_on_c, 9, 46, 111
1, 33120, Note_on_c, 9, 39, 127
1, 33120, Note_on_c, 9, 36, 127
1, 33359, Note_on_c, 9, 40, 0
1, 33359, Note_on_c, 9, 46, 0
1, 33359, Note_on_c, 9, 39, 0
1, 33360, Note_on_c, 9, 46, 80
1, 33360, Note_on_c, 9, 39, 83
1, 33599, Note_on_c, 9, 36, 0
1, 33599, Note_on_c, 9, 46, 0
1, 33599, Note_on_c, 9, 39, 0
1, 33600, Note_on_c, 9, 46, 104
1, 33600, Note_on_c, 9, 36, 127
1, 33839, Note_on_c, 9, 46, 0
1, 33840, Note_on_c, 9, 46, 81
1, 34079, Note_on_c, 9, 36, 0
1, 34079, Note_on_c, 9, 46, 0
1, 34080, Note_on_c, 9, 40, 127
1, 34080, Note_on_c, 9, 46, 111
1, 34080, Note_on_c, 9, 39, 127
1, 34080, Note_on_c, 9, 36, 127
1, 34319, Note_on_c, 9, 40, 0
1, 34319, Note_on_c, 9, 46, 0
1, 34319, Note_on_c, 9, 39, 0
1, 34320, Note_on_c, 9, 46, 81
1, 34320, Note_on_c, 9, 39, 86
1, 34559, Note_on_c, 9, 36, 0
1, 34559, Note_on_c, 9, 46, 0
1, 34559, Note_on_c, 9, 39, 0
1, 34560, Note_on_c, 9, 46, 116
1, 34560, Note_on_c, 9, 36, 127
1, 34799, Note_on_c, 9, 46, 0
1, 34800, Note_on_c, 9, 46, 72
1, 35039, Note_on_c, 9, 36, 0
1, 35039, Note_on_c, 9, 46, 0
1, 35040, Note_on_c, 9, 40, 127
1, 35040, Note_on_c, 9, 46, 121
1, 35040, Note_on_c, 9, 39, 127
1, 35040, Note_on_c, 9, 36, 127
1, 35279, Note_on_c, 9, 40, 0
1, 35279, Note_on_c, 9, 46, 0
1, 35279, Note_on_c, 9, 39, 0
1, 35280, Note_on_c, 9, 46, 81
1, 35280, Note_on_c, 9, 39, 77
1, 35519, Note_on_c, 9, 36, 0
1, 35519, Note_on_c, 9, 46, 0
1, 35519, Note_on_c, 9, 39, 0
1, 35520, Note_on_c, 9, 46, 118
1, 35520, Note_on_c, 9, 36, 127
1, 35759, Note_on_c, 9, 46, 0
1, 35760, Note_on_c, 9, 46, 79
1, 35999, Note_on_c, 9, 36, 0
1, 35999, Note_on_c, 9, 46, 0
1, 36000, Note_on_c, 9, 40, 127
1, 36000, Note_on_c, 9, 46, 116
1, 36000, Note_on_c, 9, 39, 127
1, 36000, Note_on_c, 9, 36, 127
1, 36239, Note_on_c, 9, 40, 0
1, 36239, Note_on_c, 9, 46, 0
1, 36239, Note_on_c, 9, 39, 0
1, 36240, Note_on_c, 9, 46, 86
1, 36240, Note_on_c, 9, 39, 84
1, 36479, Note_on_c, 9, 36, 0
1, 36479, Note_on_c, 9, 46, 0
1, 36479, Note_on_c, 9, 39, 0
1, 36480, Note_on_c, 9, 46, 114
1, 36480, Note_on_c, 9, 36, 127
1, 36719, Note_on_c, 9, 46, 0
1, 36720, Note_on_c, 9, 46, 82
1, 36959, Note_on_c, 9, 36, 0
1, 36959, Note_on_c, 9, 46, 0
1, 36960, Note_on_c, 9, 40, 127
1, 36960, Note_on_c, 9, 46, 118
1, 36960, Note_on_c, 9, 39, 127
1, 36960, Note_on_c, 9, 36, 127
1, 37199, Note_on_c, 9, 40, 0
1, 37199, Note_on_c, 9, 46, 0
1, 37199, Note_on_c, 9, 39, 0
1, 37200, Note_on_c, 9, 46, 81
1, 37200, Note_on_c, 9, 39, 95
1, 37439, Note_on_c, 9, 36, 0
1, 37439, Note_on_c, 9, 46, 0
1, 37439, Note_on_c, 9, 39, 0
1, 37440, Note_on_c, 9, 46, 110
1, 37440, Note_on_c, 9, 36, 127
1, 37679, Note_on_c, 9, 46, 0
1, 37680, Note_on_c, 9, 46, 79
1, 37680, Note_on_c, 9, 39, 64
1, 37919, Note_on_c, 9, 36, 0
1, 37919, Note_on_c, 9, 46, 0
1, 37919, Note_on_c, 9, 39, 0
1, 37920, Note_on_c, 9, 40, 127
1, 37920, Note_on_c, 9, 46, 115
1, 37920, Note_on_c, 9, 39, 127
1, 37920, Note_on_c, 9, 36, 127
1, 38159, Note_on_c, 9, 40, 0
1, 38159, Note_on_c, 9, 46, 0
1, 38159, Note_on_c, 9, 39, 0
1, 38160, Note_on_c, 9, 46, 70
1, 38160, Note_on_c, 9, 39, 95
1, 38399, Note_on_c, 9, 36, 0
1, 38399, Note_on_c, 9, 46, 0
1, 38399, Note_on_c, 9, 39, 0
1, 38400, Note_on_c, 9, 46, 115
1, 38400, Note_on_c, 9, 36, 127
1, 38639, Note_on_c, 9, 46, 0
1, 38640, Note_on_c, 9, 46, 86
1, 38879, Note_on_c, 9, 36, 0
1, 38879, Note_on_c, 9, 46, 0
1, 38880, Note_on_c, 9, 40, 127
1, 38880, Note_on_c, 9, 46, 119
1, 38880, Note_on_c, 9, 39, 127
1, 38880, Note_on_c, 9, 36, 127
1, 39119, Note_on_c, 9, 40, 0
1, 39119, Note_on_c, 9, 46, 0
1, 39119, Note_on_c, 9, 39, 0
1, 39120, Note_on_c, 9, 46, 84
1, 39120, Note_on_c, 9, 39, 87
1, 39359, Note_on_c, 9, 36, 0
1, 39359, Note_on_c, 9, 46, 0
1, 39359, Note_on_c, 9, 39, 0
1, 39360, Note_on_c, 9, 46, 115
1, 39360, Note_on_c, 9, 36, 127
1, 39599, Note_on_c, 9, 46, 0
1, 39600, Note_on_c, 9, 46, 82
1, 39839, Note_on_c, 9, 36, 0
1, 39839, Note_on_c, 9, 46, 0
1, 39840, Note_on_c, 9, 40, 127
1, 39840, Note_on_c, 9, 46, 121
1, 39840, Note_on_c, 9, 39, 127
1, 39840, Note_on_c, 9, 36, 127
1, 40079, Note_on_c, 9, 40, 0
1, 40079, Note_on_c, 9, 46, 0
1, 40079, Note_on_c, 9, 39, 0
1, 40080, Note_on_c, 9, 46, 89
1, 40080, Note_on_c, 9, 39, 75
1, 40319, Note_on_c, 9, 36, 0
1, 40319, Note_on_c, 9, 46, 0
1, 40319, Note_on_c, 9, 39, 0
1, 40320, Note_on_c, 9, 46, 103
1, 40320, Note_on_c, 9, 36, 127
1, 40559, Note_on_c, 9, 46, 0
1, 40560, Note_on_c, 9, 46, 88
1, 40799, Note_on_c, 9, 36, 0
1, 40799, Note_on_c, 9, 46, 0
1, 40800, Note_on_c, 9, 40, 127
1, 40800, Note_on_c, 9, 46, 114
1, 40800, Note_on_c, 9, 39, 127
1, 40800, Note_on_c, 9, 36, 127
1, 41039, Note_on_c, 9, 40, 0
1, 41039, Note_on_c, 9, 46, 0
1, 41039, Note_on_c, 9, 39, 0
1, 41040, Note_on_c, 9, 46, 85
1, 41040, Note_on_c, 9, 39, 76
1, 41279, Note_on_c, 9, 36, 0
1, 41279, Note_on_c, 9, 46, 0
1, 41279, Note_on_c, 9, 39, 0
1, 41280, Note_on_c, 9, 46, 104
1, 41280, Note_on_c, 9, 36, 127
1, 41519, Note_on_c, 9, 46, 0
1, 41520, Note_on_c, 9, 40, 105
1, 41520, Note_on_c, 9, 46, 96
1, 41759, Note_on_c, 9, 36, 0
1, 41759, Note_on_c, 9, 40, 0
1, 41759, Note_on_c, 9, 46, 0
1, 41760, Note_on_c, 9, 40, 127
1, 41760, Note_on_c, 9, 46, 126
1, 41760, Note_on_c, 9, 39, 127
1, 41760, Note_on_c, 9, 36, 127
1, 41999, Note_on_c, 9, 40, 0
1, 41999, Note_on_c, 9, 46, 0
1, 41999, Note_on_c, 9, 39, 0
1, 41999, Note_on_c, 9, 36, 0
1, 42000, Note_on_c, 9, 39, 83
1, 42000, Note_on_c, 9, 36, 110
1, 42239, Note_on_c, 9, 39, 0
1, 42239, Note_on_c, 9, 36, 0
1, 42240, Note_on_c, 9, 49, 122
1, 42240, Note_on_c, 9, 36, 127
1, 42719, Note_on_c, 9, 49, 0
1, 42719, Note_on_c, 9, 36, 0
1, 42720, Note_on_c, 9, 40, 127
1, 42720, Note_on_c, 9, 46, 104
1, 42720, Note_on_c, 9, 39, 127
1, 42720, Note_on_c, 9, 36, 127
1, 43199, Note_on_c, 9, 40, 0
1, 43199, Note_on_c, 9, 46, 0
1, 43199, Note_on_c, 9, 39, 0
1, 43199, Note_on_c, 9, 36, 0
1, 43200, Note_on_c, 9, 46, 115
1, 43200, Note_on_c, 9, 36, 127
1, 43679, Note_on_c, 9, 46, 0
1, 43679, Note_on_c, 9, 36, 0
1, 43680, Note_on_c, 9, 40, 127
1, 43680, Note_on_c, 9, 46, 121
1, 43680, Note_on_c, 9, 39, 127
1, 43680, Note_on_c, 9, 36, 127
1, 43919, Note_on_c, 9, 40, 0
1, 43919, Note_on_c, 9, 46, 0
1, 43919, Note_on_c, 9, 39, 0
1, 43920, Note_on_c, 9, 46, 69
1, 44159, Note_on_c, 9, 36, 0
1, 44159, Note_on_c, 9, 46, 0
1, 44160, Note_on_c, 9, 46, 118
1, 44160, Note_on_c, 9, 36, 127
1, 44639, Note_on_c, 9, 46, 0
1, 44639, Note_on_c, 9, 36, 0
1, 44640, Note_on_c, 9, 40, 127
1, 44640, Note_on_c, 9, 46, 116
1, 44640, Note_on_c, 9, 39, 127
1, 44640, Note_on_c, 9, 36, 127
1, 44879, Note_on_c, 9, 40, 0
1, 44879, Note_on_c, 9, 46, 0
1, 44879, Note_on_c, 9, 39, 0
1, 44880, Note_on_c, 9, 46, 75
1, 45119, Note_on_c, 9, 36, 0
1, 45119, Note_on_c, 9, 46, 0
1, 45120, Note_on_c, 9, 46, 112
1, 45120, Note_on_c, 9, 36, 127
1, 45599, Note_on_c, 9, 46, 0
1, 45599, Note_on_c, 9, 36, 0
1, 45600, Note_on_c, 9, 40, 127
1, 45600, Note_on_c, 9, 46, 119
1, 45600, Note_on_c, 9, 39, 127
1, 45600, Note_on_c, 9, 36, 127
1, 45839, Note_on_c, 9, 40, 0
1, 45839, Note_on_c, 9, 46, 0
1, 45839, Note_on_c, 9, 39, 0
1, 45840, Note_on_c, 9, 46, 73
1, 46079, Note_on_c, 9, 36, 0
1, 46079, Note_on_c, 9, 46, 0
1, 46080, Note_on_c, 9, 46, 115
1, 46080, Note_on_c, 9, 36, 127
1, 46559, Note_on_c, 9, 46, 0
1, 46559, Note_on_c, 9, 36, 0
1, 46560, Note_on_c, 9, 40, 127
1, 46560, Note_on_c, 9, 46, 126
1, 46560, Note_on_c, 9, 39, 127
1, 46560, Note_on_c, 9, 36, 127
1, 47039, Note_on_c, 9, 40, 0
1, 47039, Note_on_c, 9, 46, 0
1, 47039, Note_on_c, 9, 39, 0
1, 47039, Note_on_c, 9, 36, 0
1, 47040, Note_on_c, 9, 46, 116
1, 47040, Note_on_c, 9, 36, 127
1, 47279, Note_on_c, 9, 46, 0
1, 47280, Note_on_c, 9, 46, 58
1, 47519, Note_on_c, 9, 36, 0
1, 47519, Note_on_c, 9, 46, 0
1, 47520, Note_on_c, 9, 40, 127
1, 47520, Note_on_c, 9, 46, 122
1, 47520, Note_on_c, 9, 39, 127
1, 47520, Note_on_c, 9, 36, 127
1, 47759, Note_on_c, 9, 40, 0
1, 47759, Note_on_c, 9, 46, 0
1, 47759, Note_on_c, 9, 39, 0
1, 47760, Note_on_c, 9, 46, 75
1, 47999, Note_on_c, 9, 36, 0
1, 47999, Note_on_c, 9, 46, 0
1, 48000, Note_on_c, 9, 46, 127
1, 48000, Note_on_c, 9, 36, 127
1, 48239, Note_on_c, 9, 46, 0
1, 48240, Note_on_c, 9, 46, 61
1, 48479, Note_on_c, 9, 36, 0
1, 48479, Note_on_c, 9, 46, 0
1, 48480, Note_on_c, 9, 40, 127
1, 48480, Note_on_c, 9, 46, 126
1, 48480, Note_on_c, 9, 39, 127
1, 48480, Note_on_c, 9, 36, 127
1, 48719, Note_on_c, 9, 40, 0
1, 48719, Note_on_c, 9, 46, 0
1, 48719, Note_on_c, 9, 39, 0
1, 48720, Note_on_c, 9, 46, 82
1, 48959, Note_on_c, 9, 36, 0
1, 48959, Note_on_c, 9, 46, 0
1, 48960, Note_on_c, 9, 46, 119
1, 48960, Note_on_c, 9, 36, 127
1, 49199, Note_on_c, 9, 46, 0
1, 49200, Note_on_c, 9, 40, 105
1, 49319, Note_on_c, 9, 40, 0
1, 49320, Note_on_c, 9, 40, 121
1, 49439, Note_on_c, 9, 36, 0
1, 49439, Note_on_c, 9, 40, 0
1, 49440, Note_on_c, 9, 40, 127
1, 49440, Note_on_c, 9, 39, 127
1, 49440, Note_on_c, 9, 36, 127
1, 49679, Note_on_c, 9, 40, 0
1, 49679, Note_on_c, 9, 39, 0
1, 49680, Note_on_c, 9, 40, 125
1, 49919, Note_on_c, 9, 36, 0
1, 49919, Note_on_c, 9, 40, 0
1, 49920, Note_on_c, 9, 49, 127
1, 49920, Note_on_c, 9, 36, 127
1, 50399, Note_on_c, 9, 49, 0
1, 50399, Note_on_c, 9, 36, 0
1, 50400, Note_on_c, 9, 40, 127
1, 50400, Note_on_c, 9, 46, 121
1, 50400, Note_on_c, 9, 39, 127
1, 50400, Note_on_c, 9, 36, 127
1, 50879, Note_on_c, 9, 40, 0
1, 50879, Note_on_c, 9, 46, 0
1, 50879, Note_on_c, 9, 39, 0
1, 50879, Note_on_c, 9, 36, 0
1, 50880, Note_on_c, 9, 46, 114
1, 50880, Note_on_c, 9, 36, 127
1, 51359, Note_on_c, 9, 46, 0
1, 51359, Note_on_c, 9, 36, 0
1, 51360, Note_on_c, 9, 40, 127
1, 51360, Note_on_c, 9, 46, 124
1, 51360, Note_on_c, 9, 39, 127
1, 51360, Note_on_c, 9, 36, 127
1, 51839, Note_on_c, 9, 40, 0
1, 51839, Note_on_c, 9, 46, 0
1, 51839, Note_on_c, 9, 39, 0
1, 51839, Note_on_c, 9, 36, 0
1, 51840, Note_on_c, 9, 46, 122
1, 51840, Note_on_c, 9, 36, 127
1, 52079, Note_on_c, 9, 46, 0
1, 52080, Note_on_c, 9, 46, 65
1, 52319, Note_on_c, 9, 36, 0
1, 52319, Note_on_c, 9, 46, 0
1, 52320, Note_on_c, 9, 40, 127
1, 52320, Note_on_c, 9, 46, 127
1, 52320, Note_on_c, 9, 39, 127
1, 52320, Note_on_c, 9, 36, 127
1, 52559, Note_on_c, 9, 40, 0
1, 52559, Note_on_c, 9, 46, 0
1, 52559, Note_on_c, 9, 39, 0
1, 52560, Note_on_c, 9, 46, 68
1, 52799, Note_on_c, 9, 36, 0
1, 52799, Note_on_c, 9, 46, 0
1, 52800, Note_on_c, 9, 46, 118
1, 52800, Note_on_c, 9, 36, 127
1, 53039, Note_on_c, 9, 46, 0
1, 53040, Note_on_c, 9, 48, 127
1, 53279, Note_on_c, 9, 36, 0
1, 53279, Note_on_c, 9, 48, 0
1, 53280, Note_on_c, 9, 40, 127
1, 53280, Note_on_c, 9, 39, 127
1, 53280, Note_on_c, 9, 36, 127
1, 53759, Note_on_c, 9, 40, 0
1, 53759, Note_on_c, 9, 39, 0
1, 53759, Note_on_c, 9, 36, 0
1, 53760, Note_on_c, 9, 46, 116
1, 53760, Note_on_c, 9, 36, 127
1, 53999, Note_on_c, 9, 46, 0
1, 54000, Note_on_c, 9, 46, 72
1, 54239, Note_on_c, 9, 36, 0
1, 54239, Note_on_c, 9, 46, 0
1, 54240, Note_on_c, 9, 40, 127
1, 54240, Note_on_c, 9, 46, 121
1, 54240, Note_on_c, 9, 39, 127
1, 54240, Note_on_c, 9, 36, 127
1, 54479, Note_on_c, 9, 40, 0
1, 54479, Note_on_c, 9, 46, 0
1, 54479, Note_on_c, 9, 39, 0
1, 54480, Note_on_c, 9, 46, 81
1, 54480, Note_on_c, 9, 39, 77
1, 54719, Note_on_c, 9, 36, 0
1, 54719, Note_on_c, 9, 46, 0
1, 54719, Note_on_c, 9, 39, 0
1, 54720, Note_on_c, 9, 46, 118
1, 54720, Note_on_c, 9, 36, 127
1, 54959, Note_on_c, 9, 46, 0
1, 54960, Note_on_c, 9, 46, 79
1, 55199, Note_on_c, 9, 36, 0
1, 55199, Note_on_c, 9, 46, 0
1, 55200, Note_on_c, 9, 40, 127
1, 55200, Note_on_c, 9, 46, 116
1, 55200, Note_on_c, 9, 39, 127
1, 55200, Note_on_c, 9, 36, 127
1, 55439, Note_on_c, 9, 40, 0
1, 55439, Note_on_c, 9, 46, 0
1, 55439, Note_on_c, 9, 39, 0
1, 55440, Note_on_c, 9, 46, 86
1, 55440, Note_on_c, 9, 39, 84
1, 55679, Note_on_c, 9, 36, 0
1, 55679, Note_on_c, 9, 46, 0
1, 55679, Note_on_c, 9, 39, 0
1, 55680, Note_on_c, 9, 46, 114
1, 55680, Note_on_c, 9, 36, 127
1, 55919, Note_on_c, 9, 46, 0
1, 55920, Note_on_c, 9, 46, 82
1, 56159, Note_on_c, 9, 36, 0
1, 56159, Note_on_c, 9, 46, 0
1, 56160, Note_on_c, 9, 40, 127
1, 56160, Note_on_c, 9, 46, 118
1, 56160, Note_on_c, 9, 39, 127
1, 56160, Note_on_c, 9, 36, 127
1, 56399, Note_on_c, 9, 40, 0
1, 56399, Note_on_c, 9, 46, 0
1, 56399, Note_on_c, 9, 39, 0
1, 56400, Note_on_c, 9, 46, 81
1, 56400, Note_on_c, 9, 39, 95
1, 56639, Note_on_c, 9, 36, 0
1, 56639, Note_on_c, 9, 46, 0
1, 56639, Note_on_c, 9, 39, 0
1, 56640, Note_on_c, 9, 46, 110
1, 56640, Note_on_c, 9, 36, 127
1, 56879, Note_on_c, 9, 46, 0
1, 56880, Note_on_c, 9, 46, 79
1, 56880, Note_on_c, 9, 39, 64
1, 57119, Note_on_c, 9, 36, 0
1, 57119, Note_on_c, 9, 46, 0
1, 57119, Note_on_c, 9, 39, 0
1, 57120, Note_on_c, 9, 40, 127
1, 57120, Note_on_c, 9, 46, 115
1, 57120, Note_on_c, 9, 39, 127
1, 57120, Note_on_c, 9, 36, 127
1, 57359, Note_on_c, 9, 40, 0
1, 57359, Note_on_c, 9, 46, 0
1, 57359, Note_on_c, 9, 39, 0
1, 57360, Note_on_c, 9, 46, 70
1, 57360, Note_on_c, 9, 39, 95
1, 57599, Note_on_c, 9, 36, 0
1, 57599, Note_on_c, 9, 46, 0
1, 57599, Note_on_c, 9, 39, 0
1, 57600, Note_on_c, 9, 46, 115
1, 57600, Note_on_c, 9, 36, 127
1, 57839, Note_on_c, 9, 46, 0
1, 57840, Note_on_c, 9, 46, 86
1, 58079, Note_on_c, 9, 36, 0
1, 58079, Note_on_c, 9, 46, 0
1, 58080, Note_on_c, 9, 40, 127
1, 58080, Note_on_c, 9, 46, 119
1, 58080, Note_on_c, 9, 39, 127
1, 58080, Note_on_c, 9, 36, 127
1, 58319, Note_on_c, 9, 40, 0
1, 58319, Note_on_c, 9, 46, 0
1, 58319, Note_on_c, 9, 39, 0
1, 58320, Note_on_c, 9, 46, 84
1, 58320, Note_on_c, 9, 39, 87
1, 58559, Note_on_c, 9, 36, 0
1, 58559, Note_on_c, 9, 46, 0
1, 58559, Note_on_c, 9, 39, 0
1, 58560, Note_on_c, 9, 46, 115
1, 58560, Note_on_c, 9, 36, 127
1, 58799, Note_on_c, 9, 46, 0
1, 58800, Note_on_c, 9, 46, 82
1, 59039, Note_on_c, 9, 36, 0
1, 59039, Note_on_c, 9, 46, 0
1, 59040, Note_on_c, 9, 40, 127
1, 59040, Note_on_c, 9, 46, 121
1, 59040, Note_on_c, 9, 39, 127
1, 59040, Note_on_c, 9, 36, 127
1, 59279, Note_on_c, 9, 40, 0
1, 59279, Note_on_c, 9, 46, 0
1, 59279, Note_on_c, 9, 39, 0
1, 59280, Note_on_c, 9, 46, 89
1, 59280, Note_on_c, 9, 39, 75
1, 59519, Note_on_c, 9, 36, 0
1, 59519, Note_on_c, 9, 46, 0
1, 59519, Note_on_c, 9, 39, 0
1, 59520, Note_on_c, 9, 46, 103
1, 59520, Note_on_c, 9, 36, 127
1, 59759, Note_on_c, 9, 46, 0
1, 59760, Note_on_c, 9, 46, 88
1, 59999, Note_on_c, 9, 36, 0
1, 59999, Note_on_c, 9, 46, 0
1, 60000, Note_on_c, 9, 40, 127
1, 60000, Note_on_c, 9, 46, 114
1, 60000, Note_on_c, 9, 39, 127
1, 60000, Note_on_c, 9, 36, 127
1, 60239, Note_on_c, 9, 40, 0
1, 60239, Note_on_c, 9, 46, 0
1, 60239, Note_on_c, 9, 39, 0
1, 60240, Note_on_c, 9, 46, 85
1, 60240, Note_on_c, 9, 39, 76
1, 60479, Note_on_c, 9, 36, 0
1, 60479, Note_on_c, 9, 46, 0
1, 60479, Note_on_c, 9, 39, 0
1, 60480, Note_on_c, 9, 46, 104
1, 60480, Note_on_c, 9, 36, 127
1, 60719, Note_on_c, 9, 46, 0
1, 60720, Note_on_c, 9, 40, 105
1, 60720, Note_on_c, 9, 46, 96
1, 60959, Note_on_c, 9, 36, 0
1, 60959, Note_on_c, 9, 40, 0
1, 60959, Note_on_c, 9, 46, 0
1, 60960, Note_on_c, 9, 40, 127
1, 60960, Note_on_c, 9, 46, 126
1, 60960, Note_on_c, 9, 39, 127
1, 60960, Note_on_c, 9, 36, 127
1, 61199, Note_on_c, 9, 40, 0
1, 61199, Note_on_c, 9, 46, 0
1, 61199, Note_on_c, 9, 39, 0
1, 61199, Note_on_c, 9, 36, 0
1, 61200, Note_on_c, 9, 39, 83
1, 61200, Note_on_c, 9, 36, 110
1, 61439, Note_on_c, 9, 39, 0
1, 61439, Note_on_c, 9, 36, 0
1, 61440, Note_on_c, 9, 49, 115
1, 61440, Note_on_c, 9, 36, 127
1, 61679, Note_on_c, 9, 49, 0
1, 61680, Note_on_c, 9, 46, 91
1, 61919, Note_on_c, 9, 36, 0
1, 61919, Note_on_c, 9, 46, 0
1, 61920, Note_on_c, 9, 40, 127
1, 61920, Note_on_c, 9, 46, 121
1, 61920, Note_on_c, 9, 39, 127
1, 61920, Note_on_c, 9, 36, 127
1, 62159, Note_on_c, 9, 40, 0
1, 62159, Note_on_c, 9, 46, 0
1, 62159, Note_on_c, 9, 39, 0
1, 62160, Note_on_c, 9, 46, 91
1, 62160, Note_on_c, 9, 39, 80
1, 62399, Note_on_c, 9, 36, 0
1, 62399, Note_on_c, 9, 46, 0
1, 62399, Note_on_c, 9, 39, 0
1, 62400, Note_on_c, 9, 46, 116
1, 62400, Note_on_c, 9, 36, 127
1, 62639, Note_on_c, 9, 46, 0
1, 62640, Note_on_c, 9, 46, 89
1, 62879, Note_on_c, 9, 36, 0
1, 62879, Note_on_c, 9, 46, 0
1, 62880, Note_on_c, 9, 40, 127
1, 62880, Note_on_c, 9, 46, 112
1, 62880, Note_on_c, 9, 39, 127
1, 62880, Note_on_c, 9, 36, 127
1, 63119, Note_on_c, 9, 40, 0
1, 63119, Note_on_c, 9, 46, 0
1, 63119, Note_on_c, 9, 39, 0
1, 63120, Note_on_c, 9, 46, 50
1, 63120, Note_on_c, 9, 39, 78
1, 63359, Note_on_c, 9, 36, 0
1, 63359, Note_on_c, 9, 46, 0
1, 63359, Note_on_c, 9, 39, 0
1, 63360, Note_on_c, 9, 46, 96
1, 63360, Note_on_c, 9, 36, 127
1, 63599, Note_on_c, 9, 46, 0
1, 63600, Note_on_c, 9, 46, 91
1, 63839, Note_on_c, 9, 36, 0
1, 63839, Note_on_c, 9, 46, 0
1, 63840, Note_on_c, 9, 40, 127
1, 63840, Note_on_c, 9, 46, 111
1, 63840, Note_on_c, 9, 39, 127
1, 63840, Note_on_c, 9, 36, 127
1, 64079, Note_on_c, 9, 40, 0
1, 64079, Note_on_c, 9, 46, 0
1, 64079, Note_on_c, 9, 39, 0
1, 64080, Note_on_c, 9, 46, 80
1, 64080, Note_on_c, 9, 39, 83
1, 64319, Note_on_c, 9, 36, 0
1, 64319, Note_on_c, 9, 46, 0
1, 64319, Note_on_c, 9, 39, 0
1, 64320, Note_on_c, 9, 46, 104
1, 64320, Note_on_c, 9, 36, 127
1, 64559, Note_on_c, 9, 46, 0
1, 64560, Note_on_c, 9, 46, 81
1, 64799, Note_on_c, 9, 36, 0
1, 64799, Note_on_c, 9, 46, 0
1, 64800, Note_on_c, 9, 40, 127
1, 64800, Note_on_c, 9, 46, 111
1, 64800, Note_on_c, 9, 39, 127
1, 64800, Note_on_c, 9, 36, 127
1, 65039, Note_on_c, 9, 40, 0
1, 65039, Note_on_c, 9, 46, 0
1, 65039, Note_on_c, 9, 39, 0
1, 65040, Note_on_c, 9, 46, 81
1, 65040, Note_on_c, 9, 39, 86
1, 65279, Note_on_c, 9, 36, 0
1, 65279, Note_on_c, 9, 46, 0
1, 65279, Note_on_c, 9, 39, 0
1, 65280, Note_on_c, 9, 46, 116
1, 65280, Note_on_c, 9, 36, 127
1, 65519, Note_on_c, 9, 46, 0
1, 65520, Note_on_c, 9, 46, 72
1, 65759, Note_on_c, 9, 36, 0
1, 65759, Note_on_c, 9, 46, 0
1, 65760, Note_on_c, 9, 40, 127
1, 65760, Note_on_c, 9, 46, 121
1, 65760, Note_on_c, 9, 39, 127
1, 65760, Note_on_c, 9, 36, 127
1, 65999, Note_on_c, 9, 40, 0
1, 65999, Note_on_c, 9, 46, 0
1, 65999, Note_on_c, 9, 39, 0
1, 66000, Note_on_c, 9, 46, 81
1, 66000, Note_on_c, 9, 39, 77
1, 66239, Note_on_c, 9, 36, 0
1, 66239, Note_on_c, 9, 46, 0
1, 66239, Note_on_c, 9, 39, 0
1, 66240, Note_on_c, 9, 46, 118
1, 66240, Note_on_c, 9, 36, 127
1, 66479, Note_on_c, 9, 46, 0
1, 66480, Note_on_c, 9, 46, 79
1, 66719, Note_on_c, 9, 36, 0
1, 66719, Note_on_c, 9, 46, 0
1, 66720, Note_on_c, 9, 40, 127
1, 66720, Note_on_c, 9, 46, 116
1, 66720, Note_on_c, 9, 39, 127
1, 66720, Note_on_c, 9, 36, 127
1, 66959, Note_on_c, 9, 40, 0
1, 66959, Note_on_c, 9, 46, 0
1, 66959, Note_on_c, 9, 39, 0
1, 66960, Note_on_c, 9, 46, 86
1, 66960, Note_on_c, 9, 39, 84
1, 67199, Note_on_c, 9, 36, 0
1, 67199, Note_on_c, 9, 46, 0
1, 67199, Note_on_c, 9, 39, 0
1, 67200, Note_on_c, 9, 46, 114
1, 67200, Note_on_c, 9, 36, 127
1, 67439, Note_on_c, 9, 46, 0
1, 67440, Note_on_c, 9, 46, 82
1, 67679, Note_on_c, 9, 36, 0
1, 67679, Note_on_c, 9, 46, 0
1, 67680, Note_on_c, 9, 40, 127
1, 67680, Note_on_c, 9, 46, 118
1, 67680, Note_on_c, 9, 39, 127
1, 67680, Note_on_c, 9, 36, 127
1, 67919, Note_on_c, 9, 40, 0
1, 67919, Note_on_c, 9, 46, 0
1, 67919, Note_on_c, 9, 39, 0
1, 67920, Note_on_c, 9, 46, 81
1, 67920, Note_on_c, 9, 39, 95
1, 68159, Note_on_c, 9, 36, 0
1, 68159, Note_on_c, 9, 46, 0
1, 68159, Note_on_c, 9, 39, 0
1, 68160, Note_on_c, 9, 46, 110
1, 68160, Note_on_c, 9, 36, 127
1, 68399, Note_on_c, 9, 46, 0
1, 68400, Note_on_c, 9, 46, 79
1, 68400, Note_on_c, 9, 39, 64
1, 68639, Note_on_c, 9, 36, 0
1, 68639, Note_on_c, 9, 46, 0
1, 68639, Note_on_c, 9, 39, 0
1, 68640, Note_on_c, 9, 40, 127
1, 68640, Note_on_c, 9, 46, 115
1, 68640, Note_on_c, 9, 39, 127
1, 68640, Note_on_c, 9, 36, 127
1, 68879, Note_on_c, 9, 40, 0
1, 68879, Note_on_c, 9, 46, 0
1, 68879, Note_on_c, 9, 39, 0
1, 68880, Note_on_c, 9, 46, 70
1, 68880, Note_on_c, 9, 39, 95
1, 69119, Note_on_c, 9, 36, 0
1, 69119, Note_on_c, 9, 46, 0
1, 69119, Note_on_c, 9, 39, 0
1, 69120, Note_on_c, 9, 46, 115
1, 69120, Note_on_c, 9, 36, 127
1, 69359, Note_on_c, 9, 46, 0
1, 69360, Note_on_c, 9, 46, 86
1, 69599, Note_on_c, 9, 36, 0
1, 69599, Note_on_c, 9, 46, 0
1, 69600, Note_on_c, 9, 40, 127
1, 69600, Note_on_c, 9, 46, 119
1, 69600, Note_on_c, 9, 39, 127
1, 69600, Note_on_c, 9, 36, 127
1, 69839, Note_on_c, 9, 40, 0
1, 69839, Note_on_c, 9, 46, 0
1, 69839, Note_on_c, 9, 39, 0
1, 69840, Note_on_c, 9, 46, 84
1, 69840, Note_on_c, 9, 39, 87
1, 70079, Note_on_c, 9, 36, 0
1, 70079, Note_on_c, 9, 46, 0
1, 70079, Note_on_c, 9, 39, 0
1, 70080, Note_on_c, 9, 46, 115
1, 70080, Note_on_c, 9, 36, 127
1, 70319, Note_on_c, 9, 46, 0
1, 70320, Note_on_c, 9, 46, 82
1, 70559, Note_on_c, 9, 36, 0
1, 70559, Note_on_c, 9, 46, 0
1, 70560, Note_on_c, 9, 40, 127
1, 70560, Note_on_c, 9, 46, 121
1, 70560, Note_on_c, 9, 39, 127
1, 70560, Note_on_c, 9, 36, 127
1, 70799, Note_on_c, 9, 40, 0
1, 70799, Note_on_c, 9, 46, 0
1, 70799, Note_on_c, 9, 39, 0
1, 70800, Note_on_c, 9, 46, 89
1, 70800, Note_on_c, 9, 39, 75
1, 71039, Note_on_c, 9, 36, 0
1, 71039, Note_on_c, 9, 46, 0
1, 71039, Note_on_c, 9, 39, 0
1, 71040, Note_on_c, 9, 46, 103
1, 71040, Note_on_c, 9, 36, 127
1, 71279, Note_on_c, 9, 46, 0
1, 71280, Note_on_c, 9, 46, 88
1, 71519, Note_on_c, 9, 36, 0
1, 71519, Note_on_c, 9, 46, 0
1, 71520, Note_on_c, 9, 40, 127
1, 71520, Note_on_c, 9, 46, 114
1, 71520, Note_on_c, 9, 39, 127
1, 71520, Note_on_c, 9, 36, 127
1, 71759, Note_on_c, 9, 40, 0
1, 71759, Note_on_c, 9, 46, 0
1, 71759, Note_on_c, 9, 39, 0
1, 71760, Note_on_c, 9, 46, 85
1, 71760, Note_on_c, 9, 39, 76
1, 71999, Note_on_c, 9, 36, 0
1, 71999, Note_on_c, 9, 46, 0
1, 71999, Note_on_c, 9, 39, 0
1, 72000, Note_on_c, 9, 46, 104
1, 72000, Note_on_c, 9, 36, 127
1, 72239, Note_on_c, 9, 46, 0
1, 72240, Note_on_c, 9, 40, 105
1, 72240, Note_on_c, 9, 46, 96
1, 72479, Note_on_c, 9, 36, 0
1, 72479, Note_on_c, 9, 40, 0
1, 72479, Note_on_c, 9, 46, 0
1, 72480, Note_on_c, 9, 40, 127
1, 72480, Note_on_c, 9, 46, 126
1, 72480, Note_on_c, 9, 39, 127
1, 72480, Note_on_c, 9, 36, 127
1, 72719, Note_on_c, 9, 40, 0
1, 72719, Note_on_c, 9, 46, 0
1, 72719, Note_on_c, 9, 39, 0
1, 72719, Note_on_c, 9, 36, 0
1, 72720, Note_on_c, 9, 39, 83
1, 72720, Note_on_c, 9, 36, 110
1, 72959, Note_on_c, 9, 39, 0
1, 72959, Note_on_c, 9, 36, 0
1, 72960, Note_on_c, 9, 49, 115
1, 72960, Note_on_c, 9, 36, 127
1, 73199, Note_on_c, 9, 49, 0
1, 73200, Note_on_c, 9, 46, 91
1, 73439, Note_on_c, 9, 36, 0
1, 73439, Note_on_c, 9, 46, 0
1, 73440, Note_on_c, 9, 40, 127
1, 73440, Note_on_c, 9, 46, 121
1, 73440, Note_on_c, 9, 39, 127
1, 73440, Note_on_c, 9, 36, 127
1, 73679, Note_on_c, 9, 40, 0
1, 73679, Note_on_c, 9, 46, 0
1, 73679, Note_on_c, 9, 39, 0
1, 73680, Note_on_c, 9, 46, 91
1, 73680, Note_on_c, 9, 39, 80
1, 73919, Note_on_c, 9, 36, 0
1, 73919, Note_on_c, 9, 46, 0
1, 73919, Note_on_c, 9, 39, 0
1, 73920, Note_on_c, 9, 46, 116
1, 73920, Note_on_c, 9, 36, 127
1, 74159, Note_on_c, 9, 46, 0
1, 74160, Note_on_c, 9, 46, 89
1, 74399, Note_on_c, 9, 36, 0
1, 74399, Note_on_c, 9, 46, 0
1, 74400, Note_on_c, 9, 40, 127
1, 74400, Note_on_c, 9, 46, 112
1, 74400, Note_on_c, 9, 39, 127
1, 74400, Note_on_c, 9, 36, 127
1, 74639, Note_on_c, 9, 40, 0
1, 74639, Note_on_c, 9, 46, 0
1, 74639, Note_on_c, 9, 39, 0
1, 74640, Note_on_c, 9, 46, 50
1, 74640, Note_on_c, 9, 39, 78
1, 74879, Note_on_c, 9, 36, 0
1, 74879, Note_on_c, 9, 46, 0
1, 74879, Note_on_c, 9, 39, 0
1, 74880, Note_on_c, 9, 46, 96
1, 74880, Note_on_c, 9, 36, 127
1, 75119, Note_on_c, 9, 46, 0
1, 75120, Note_on_c, 9, 46, 91
1, 75359, Note_on_c, 9, 36, 0
1, 75359, Note_on_c, 9, 46, 0
1, 75360, Note_on_c, 9, 40, 127
1, 75360, Note_on_c, 9, 46, 111
1, 75360, Note_on_c, 9, 39, 127
1, 75360, Note_on_c, 9, 36, 127
1, 75599, Note_on_c, 9, 40, 0
1, 75599, Note_on_c, 9, 46, 0
1, 75599, Note_on_c, 9, 39, 0
1, 75600, Note_on_c, 9, 46, 80
1, 75600, Note_on_c, 9, 39, 83
1, 75839, Note_on_c, 9, 36, 0
1, 75839, Note_on_c, 9, 46, 0
1, 75839, Note_on_c, 9, 39, 0
1, 75840, Note_on_c, 9, 46, 104
1, 75840, Note_on_c, 9, 36, 127
1, 76079, Note_on_c, 9, 46, 0
1, 76080, Note_on_c, 9, 46, 81
1, 76319, Note_on_c, 9, 36, 0
1, 76319, Note_on_c, 9, 46, 0
1, 76320, Note_on_c, 9, 40, 127
1, 76320, Note_on_c, 9, 46, 111
1, 76320, Note_on_c, 9, 39, 127
1, 76320, Note_on_c, 9, 36, 127
1, 76559, Note_on_c, 9, 40, 0
1, 76559, Note_on_c, 9, 46, 0
1, 76559, Note_on_c, 9, 39, 0
1, 76560, Note_on_c, 9, 46, 81
1, 76560, Note_on_c, 9, 39, 86
1, 76799, Note_on_c, 9, 36, 0
1, 76799, Note_on_c, 9, 46, 0
1, 76799, Note_on_c, 9, 39, 0
1, 76800, Note_on_c, 9, 46, 116
1, 76800, Note_on_c, 9, 36, 127
1, 77039, Note_on_c, 9, 46, 0
1, 77040, Note_on_c, 9, 46, 72
1, 77279, Note_on_c, 9, 36, 0
1, 77279, Note_on_c, 9, 46, 0
1, 77280, Note_on_c, 9, 40, 127
1, 77280, Note_on_c, 9, 46, 121
1, 77280, Note_on_c, 9, 39, 127
1, 77280, Note_on_c, 9, 36, 127
1, 77519, Note_on_c, 9, 40, 0
1, 77519, Note_on_c, 9, 46, 0
1, 77519, Note_on_c, 9, 39, 0
1, 77520, Note_on_c, 9, 46, 81
1, 77520, Note_on_c, 9, 39, 77
1, 77759, Note_on_c, 9, 36, 0
1, 77759, Note_on_c, 9, 46, 0
1, 77759, Note_on_c, 9, 39, 0
1, 77760, Note_on_c, 9, 46, 118
1, 77760, Note_on_c, 9, 36, 127
1, 77999, Note_on_c, 9, 46, 0
1, 78000, Note_on_c, 9, 46, 79
1, 78239, Note_on_c, 9, 36, 0
1, 78239, Note_on_c, 9, 46, 0
1, 78240, Note_on_c, 9, 40, 127
1, 78240, Note_on_c, 9, 46, 116
1, 78240, Note_on_c, 9, 39, 127
1, 78240, Note_on_c, 9, 36, 127
1, 78479, Note_on_c, 9, 40, 0
1, 78479, Note_on_c, 9, 46, 0
1, 78479, Note_on_c, 9, 39, 0
1, 78480, Note_on_c, 9, 46, 86
1, 78480, Note_on_c, 9, 39, 84
1, 78719, Note_on_c, 9, 36, 0
1, 78719, Note_on_c, 9, 46, 0
1, 78719, Note_on_c, 9, 39, 0
1, 78720, Note_on_c, 9, 46, 114
1, 78720, Note_on_c, 9, 36, 127
1, 78959, Note_on_c, 9, 46, 0
1, 78960, Note_on_c, 9, 46, 82
1, 79199, Note_on_c, 9, 36, 0
1, 79199, Note_on_c, 9, 46, 0
1, 79200, Note_on_c, 9, 40, 127
1, 79200, Note_on_c, 9, 46, 118
1, 79200, Note_on_c, 9, 39, 127
1, 79200, Note_on_c, 9, 36, 127
1, 79439, Note_on_c, 9, 40, 0
1, 79439, Note_on_c, 9, 46, 0
1, 79439, Note_on_c, 9, 39, 0
1, 79440, Note_on_c, 9, 46, 81
1, 79440, Note_on_c, 9, 39, 95
1, 79679, Note_on_c, 9, 36, 0
1, 79679, Note_on_c, 9, 46, 0
1, 79679, Note_on_c, 9, 39, 0
1, 79680, Note_on_c, 9, 46, 110
1, 79680, Note_on_c, 9, 36, 127
1, 79919, Note_on_c, 9, 46, 0
1, 79920, Note_on_c, 9, 46, 79
1, 79920, Note_on_c, 9, 39, 64
1, 80159, Note_on_c, 9, 36, 0
1, 80159, Note_on_c, 9, 46, 0
1, 80159, Note_on_c, 9, 39, 0
1, 80160, Note_on_c, 9, 40, 127
1, 80160, Note_on_c, 9, 46, 115
1, 80160, Note_on_c, 9, 39, 127
1, 80160, Note_on_c, 9, 36, 127
1, 80399, Note_on_c, 9, 40, 0
1, 80399, Note_on_c, 9, 46, 0
1, 80399, Note_on_c, 9, 39, 0
1, 80400, Note_on_c, 9, 46, 70
1, 80400, Note_on_c, 9, 39, 95
1, 80639, Note_on_c, 9, 36, 0
1, 80639, Note_on_c, 9, 46, 0
1, 80639, Note_on_c, 9, 39, 0
1, 80640, Note_on_c, 9, 46, 115
1, 80640, Note_on_c, 9, 36, 127
1, 80879, Note_on_c, 9, 46, 0
1, 80880, Note_on_c, 9, 46, 86
1, 81119, Note_on_c, 9, 36, 0
1, 81119, Note_on_c, 9, 46, 0
1, 81120, Note_on_c, 9, 40, 127
1, 81120, Note_on_c, 9, 46, 119
1, 81120, Note_on_c, 9, 39, 127
1, 81120, Note_on_c, 9, 36, 127
1, 81359, Note_on_c, 9, 40, 0
1, 81359, Note_on_c, 9, 46, 0
1, 81359, Note_on_c, 9, 39, 0
1, 81360, Note_on_c, 9, 46, 84
1, 81360, Note_on_c, 9, 39, 87
1, 81599, Note_on_c, 9, 36, 0
1, 81599, Note_on_c, 9, 46, 0
1, 81599, Note_on_c, 9, 39, 0
1, 81600, Note_on_c, 9, 46, 115
1, 81600, Note_on_c, 9, 36, 127
1, 81839, Note_on_c, 9, 46, 0
1, 81840, Note_on_c, 9, 46, 82
1, 82079, Note_on_c, 9, 36, 0
1, 82079, Note_on_c, 9, 46, 0
1, 82080, Note_on_c, 9, 40, 127
1, 82080, Note_on_c, 9, 46, 121
1, 82080, Note_on_c, 9, 39, 127
1, 82080, Note_on_c, 9, 36, 127
1, 82319, Note_on_c, 9, 40, 0
1, 82319, Note_on_c, 9, 46, 0
1, 82319, Note_on_c, 9, 39, 0
1, 82320, Note_on_c, 9, 46, 89
1, 82320, Note_on_c, 9, 39, 75
1, 82559, Note_on_c, 9, 36, 0
1, 82559, Note_on_c, 9, 46, 0
1, 82559, Note_on_c, 9, 39, 0
1, 82560, Note_on_c, 9, 46, 103
1, 82560, Note_on_c, 9, 36, 127
1, 82799, Note_on_c, 9, 46, 0
1, 82800, Note_on_c, 9, 46, 88
1, 83039, Note_on_c, 9, 36, 0
1, 83039, Note_on_c, 9, 46, 0
1, 83040, Note_on_c, 9, 40, 127
1, 83040, Note_on_c, 9, 46, 114
1, 83040, Note_on_c, 9, 39, 127
1, 83040, Note_on_c, 9, 36, 127
1, 83279, Note_on_c, 9, 40, 0
1, 83279, Note_on_c, 9, 46, 0
1, 83279, Note_on_c, 9, 39, 0
1, 83280, Note_on_c, 9, 46, 85
1, 83280, Note_on_c, 9, 39, 76
1, 83519, Note_on_c, 9, 36, 0
1, 83519, Note_on_c, 9, 46, 0
1, 83519, Note_on_c, 9, 39, 0
1, 83520, Note_on_c, 9, 46, 104
1, 83520, Note_on_c, 9, 36, 127
1, 83759, Note_on_c, 9, 46, 0
1, 83760, Note_on_c, 9, 40, 105
1, 83760, Note_on_c, 9, 46, 96
1, 83999, Note_on_c, 9, 36, 0
1, 83999, Note_on_c, 9, 40, 0
1, 83999, Note_on_c, 9, 46, 0
1, 84000, Note_on_c, 9, 40, 127
1, 84000, Note_on_c, 9, 46, 126
1, 84000, Note_on_c, 9, 39, 127
1, 84000, Note_on_c, 9, 36, 127
1, 84239, Note_on_c, 9, 40, 0
1, 84239, Note_on_c, 9, 46, 0
1, 84239, Note_on_c, 9, 39, 0
1, 84239, Note_on_c, 9, 36, 0
1, 84240, Note_on_c, 9, 39, 83
1, 84240, Note_on_c, 9, 36, 110
1, 84479, Note_on_c, 9, 39, 0
1, 84479, Note_on_c, 9, 36, 0
1, 84480, Note_on_c, 9, 49, 122
1, 84480, Note_on_c, 9, 36, 127
1, 84959, Note_on_c, 9, 49, 0
1, 84959, Note_on_c, 9, 36, 0
1, 84960, Note_on_c, 9, 40, 127
1, 84960, Note_on_c, 9, 46, 104
1, 84960, Note_on_c, 9, 39, 127
1, 84960, Note_on_c, 9, 36, 127
1, 85439, Note_on_c, 9, 40, 0
1, 85439, Note_on_c, 9, 46, 0
1, 85439, Note_on_c, 9, 39, 0
1, 85439, Note_on_c, 9, 36, 0
1, 85440, Note_on_c, 9, 46, 115
1, 85440, Note_on_c, 9, 36, 127
1, 85919, Note_on_c, 9, 46, 0
1, 85919, Note_on_c, 9, 36, 0
1, 85920, Note_on_c, 9, 40, 127
1, 85920, Note_on_c, 9, 46, 121
1, 85920, Note_on_c, 9, 39, 127
1, 85920, Note_on_c, 9, 36, 127
1, 86159, Note_on_c, 9, 40, 0
1, 86159, Note_on_c, 9, 46, 0
1, 86159, Note_on_c, 9, 39, 0
1, 86160, Note_on_c, 9, 46, 69
1, 86399, Note_on_c, 9, 36, 0
1, 86399, Note_on_c, 9, 46, 0
1, 86400, Note_on_c, 9, 46, 118
1, 86400, Note_on_c, 9, 36, 127
1, 86879, Note_on_c, 9, 46, 0
1, 86879, Note_on_c, 9, 36, 0
1, 86880, Note_on_c, 9, 40, 127
1, 86880, Note_on_c, 9, 46, 116
1, 86880, Note_on_c, 9, 39, 127
1, 86880, Note_on_c, 9, 36, 127
1, 87119, Note_on_c, 9, 40, 0
1, 87119, Note_on_c, 9, 46, 0
1, 87119, Note_on_c, 9, 39, 0
1, 87120, Note_on_c, 9, 46, 75
1, 87359, Note_on_c, 9, 36, 0
1, 87359, Note_on_c, 9, 46, 0
1, 87360, Note_on_c, 9, 46, 112
1, 87360, Note_on_c, 9, 36, 127
1, 87839, Note_on_c, 9, 46, 0
1, 87839, Note_on_c, 9, 36, 0
1, 87840, Note_on_c, 9, 40, 127
1, 87840, Note_on_c, 9, 46, 119
1, 87840, Note_on_c, 9, 39, 127
1, 87840, Note_on_c, 9, 36, 127
1, 88079, Note_on_c, 9, 40, 0
1, 88079, Note_on_c, 9, 46, 0
1, 88079, Note_on_c, 9, 39, 0
1, 88080, Note_on_c, 9, 46, 73
1, 88319, Note_on_c, 9, 36, 0
1, 88319, Note_on_c, 9, 46, 0
1, 88320, Note_on_c, 9, 46, 115
1, 88320, Note_on_c, 9, 36, 127
1, 88799, Note_on_c, 9, 46, 0
1, 88799, Note_on_c, 9, 36, 0
1, 88800, Note_on_c, 9, 40, 127
1, 88800, Note_on_c, 9, 46, 126
1, 88800, Note_on_c, 9, 39, 127
1, 88800, Note_on_c, 9, 36, 127
1, 89279, Note_on_c, 9, 40, 0
1, 89279, Note_on_c, 9, 46, 0
1, 89279, Note_on_c, 9, 39, 0
1, 89279, Note_on_c, 9, 36, 0
1, 89280, Note_on_c, 9, 46, 116
1, 89280, Note_on_c, 9, 36, 127
1, 89519, Note_on_c, 9, 46, 0
1, 89520, Note_on_c, 9, 46, 58
1, 89759, Note_on_c, 9, 36, 0
1, 89759, Note_on_c, 9, 46, 0
1, 89760, Note_on_c, 9, 40, 127
1, 89760, Note_on_c, 9, 46, 122
1, 89760, Note_on_c, 9, 39, 127
1, 89760, Note_on_c, 9, 36, 127
1, 89999, Note_on_c, 9, 40, 0
1, 89999, Note_on_c, 9, 46, 0
1, 89999, Note_on_c, 9, 39, 0
1, 90000, Note_on_c, 9, 46, 75
1, 90239, Note_on_c, 9, 36, 0
1, 90239, Note_on_c, 9, 46, 0
1, 90240, Note_on_c, 9, 46, 127
1, 90240, Note_on_c, 9, 36, 127
1, 90479, Note_on_c, 9, 46, 0
1, 90480, Note_on_c, 9, 46, 61
1, 90719, Note_on_c, 9, 36, 0
1, 90719, Note_on_c, 9, 46, 0
1, 90720, Note_on_c, 9, 40, 127
1, 90720, Note_on_c, 9, 46, 126
1, 90720, Note_on_c, 9, 39, 127
1, 90720, Note_on_c, 9, 36, 127
1, 90959, Note_on_c, 9, 40, 0
1, 90959, Note_on_c, 9, 46, 0
1, 90959, Note_on_c, 9, 39, 0
1, 90960, Note_on_c, 9, 46, 82
1, 91199, Note_on_c, 9, 36, 0
1, 91199, Note_on_c, 9, 46, 0
1, 91200, Note_on_c, 9, 46, 119
1, 91200, Note_on_c, 9, 36, 127
1, 91439, Note_on_c, 9, 46, 0
1, 91440, Note_on_c, 9, 40, 105
1, 91559, Note_on_c, 9, 40, 0
1, 91560, Note_on_c, 9, 40, 121
1, 91679, Note_on_c, 9, 36, 0
1, 91679, Note_on_c, 9, 40, 0
1, 91680, Note_on_c, 9, 40, 127
1, 91680, Note_on_c, 9, 39, 127
1, 91680, Note_on_c, 9, 36, 127
1, 91919, Note_on_c, 9, 40, 0
1, 91919, Note_on_c, 9, 39, 0
1, 91920, Note_on_c, 9, 40, 125
1, 92159, Note_on_c, 9, 36, 0
1, 92159, Note_on_c, 9, 40, 0
1, 92160, Note_on_c, 9, 49, 127
1, 92160, Note_on_c, 9, 36, 127
1, 92639, Note_on_c, 9, 49, 0
1, 92639, Note_on_c, 9, 36, 0
1, 92640, Note_on_c, 9, 40, 127
1, 92640, Note_on_c, 9, 46, 121
1, 92640, Note_on_c, 9, 39, 127
1, 92640, Note_on_c, 9, 36, 127
1, 93119, Note_on_c, 9, 40, 0
1, 93119, Note_on_c, 9, 46, 0
1, 93119, Note_on_c, 9, 39, 0
1, 93119, Note_on_c, 9, 36, 0
1, 93120, Note_on_c, 9, 46, 114
1, 93120, Note_on_c, 9, 36, 127
1, 93599, Note_on_c, 9, 46, 0
1, 93599, Note_on_c, 9, 36, 0
1, 93600, Note_on_c, 9, 40, 127
1, 93600, Note_on_c, 9, 46, 124
1, 93600, Note_on_c, 9, 39, 127
1, 93600, Note_on_c, 9, 36, 127
1, 94079, Note_on_c, 9, 40, 0
1, 94079, Note_on_c, 9, 46, 0
1, 94079, Note_on_c, 9, 39, 0
1, 94079, Note_on_c, 9, 36, 0
1, 94080, Note_on_c, 9, 46, 122
1, 94080, Note_on_c, 9, 36, 127
1, 94319, Note_on_c, 9, 46, 0
1, 94320, Note_on_c, 9, 46, 65
1, 94559, Note_on_c, 9, 36, 0
1, 94559, Note_on_c, 9, 46, 0
1, 94560, Note_on_c, 9, 40, 127
1, 94560, Note_on_c, 9, 46, 127
1, 94560, Note_on_c, 9, 39, 127
1, 94560, Note_on_c, 9, 36, 127
1, 94799, Note_on_c, 9, 40, 0
1, 94799, Note_on_c, 9, 46, 0
1, 94799, Note_on_c, 9, 39, 0
1, 94800, Note_on_c, 9, 46, 68
1, 95039, Note_on_c, 9, 36, 0
1, 95039, Note_on_c, 9, 46, 0
1, 95040, Note_on_c, 9, 46, 118
1, 95040, Note_on_c, 9, 36, 127
1, 95279, Note_on_c, 9, 46, 0
1, 95280, Note_on_c, 9, 48, 127
1, 95519, Note_on_c, 9, 36, 0
1, 95519, Note_on_c, 9, 48, 0
1, 95520, Note_on_c, 9, 40, 127
1, 95520, Note_on_c, 9, 39, 127
1, 95520, Note_on_c, 9, 36, 127
1, 95999, Note_on_c, 9, 40, 0
1, 95999, Note_on_c, 9, 39, 0
1, 95999, Note_on_c, 9, 36, 0
1, 96000, Note_on_c, 9, 46, 116
1, 96000, Note_on_c, 9, 36, 127
1, 96239, Note_on_c, 9, 46, 0
1, 96240, Note_on_c, 9, 46, 72
1, 96479, Note_on_c, 9, 36, 0
1, 96479, Note_on_c, 9, 46, 0
1, 96480, Note_on_c, 9, 40, 127
1, 96480, Note_on_c, 9, 46, 121
1, 96480, Note_on_c, 9, 39, 127
1, 96480, Note_on_c, 9, 36, 127
1, 96719, Note_on_c, 9, 40, 0
1, 96719, Note_on_c, 9, 46, 0
1, 96719, Note_on_c, 9, 39, 0
1, 96720, Note_on_c, 9, 46, 81
1, 96720, Note_on_c, 9, 39, 77
1, 96959, Note_on_c, 9, 36, 0
1, 96959, Note_on_c, 9, 46, 0
1, 96959, Note_on_c, 9, 39, 0
1, 96960, Note_on_c, 9, 46, 118
1, 96960, Note_on_c, 9, 36, 127
1, 97199, Note_on_c, 9, 46, 0
1, 97200, Note_on_c, 9, 46, 79
1, 97439, Note_on_c, 9, 36, 0
1, 97439, Note_on_c, 9, 46, 0
1, 97440, Note_on_c, 9, 40, 127
1, 97440, Note_on_c, 9, 46, 116
1, 97440, Note_on_c, 9, 39, 127
1, 97440, Note_on_c, 9, 36, 127
1, 97679, Note_on_c, 9, 40, 0
1, 97679, Note_on_c, 9, 46, 0
1, 97679, Note_on_c, 9, 39, 0
1, 97680, Note_on_c, 9, 46, 86
1, 97680, Note_on_c, 9, 39, 84
1, 97919, Note_on_c, 9, 36, 0
1, 97919, Note_on_c, 9, 46, 0
1, 97919, Note_on_c, 9, 39, 0
1, 97920, Note_on_c, 9, 46, 114
1, 97920, Note_on_c, 9, 36, 127
1, 98159, Note_on_c, 9, 46, 0
1, 98160, Note_on_c, 9, 46, 82
1, 98399, Note_on_c, 9, 36, 0
1, 98399, Note_on_c, 9, 46, 0
1, 98400, Note_on_c, 9, 40, 127
1, 98400, Note_on_c, 9, 46, 118
1, 98400, Note_on_c, 9, 39, 127
1, 98400, Note_on_c, 9, 36, 127
1, 98639, Note_on_c, 9, 40, 0
1, 98639, Note_on_c, 9, 46, 0
1, 98639, Note_on_c, 9, 39, 0
1, 98640, Note_on_c, 9, 46, 81
1, 98640, Note_on_c, 9, 39, 95
1, 98879, Note_on_c, 9, 36, 0
1, 98879, Note_on_c, 9, 46, 0
1, 98879, Note_on_c, 9, 39, 0
1, 98880, Note_on_c, 9, 46, 110
1, 98880, Note_on_c, 9, 36, 127
1, 99119, Note_on_c, 9, 46, 0
1, 99120, Note_on_c, 9, 46, 79
1, 99120, Note_on_c, 9, 39, 64
1, 99359, Note_on_c, 9, 36, 0
1, 99359, Note_on_c, 9, 46, 0
1, 99359, Note_on_c, 9, 39, 0
1, 99360, Note_on_c, 9, 40, 127
1, 99360, Note_on_c, 9, 46, 115
1, 99360, Note_on_c, 9, 39, 127
1, 99360, Note_on_c, 9, 36, 127
1, 99599, Note_on_c, 9, 40, 0
1, 99599, Note_on_c, 9, 46, 0
1, 99599, Note_on_c, 9, 39, 0
1, 99600, Note_on_c, 9, 46, 70
1, 99600, Note_on_c, 9, 39, 95
1, 99839, Note_on_c, 9, 36, 0
1, 99839, Note_on_c, 9, 46, 0
1, 99839, Note_on_c, 9, 39, 0
1, 99840, Note_on_c, 9, 46, 115
1, 99840, Note_on_c, 9, 36, 127
1, 100079, Note_on_c, 9, 46, 0
1, 100080, Note_on_c, 9, 46, 86
1, 100319, Note_on_c, 9, 36, 0
1, 100319, Note_on_c, 9, 46, 0
1, 100320, Note_on_c, 9, 40, 127
1, 100320, Note_on_c, 9, 46, 119
1, 100320, Note_on_c, 9, 39, 127
1, 100320, Note_on_c, 9, 36, 127
1, 100559, Note_on_c, 9, 40, 0
1, 100559, Note_on_c, 9, 46, 0
1, 100559, Note_on_c, 9, 39, 0
1, 100560, Note_on_c, 9, 46, 84
1, 100560, Note_on_c, 9, 39, 87
1, 100799, Note_on_c, 9, 36, 0
1, 100799, Note_on_c, 9, 46, 0
1, 100799, Note_on_c, 9, 39, 0
1, 100800, Note_on_c, 9, 46, 115
1, 100800, Note_on_c, 9, 36, 127
1, 101039, Note_on_c, 9, 46, 0
1, 101040, Note_on_c, 9, 46, 82
1, 101279, Note_on_c, 9, 36, 0
1, 101279, Note_on_c, 9, 46, 0
1, 101280, Note_on_c, 9, 40, 127
1, 101280, Note_on_c, 9, 46, 121
1, 101280, Note_on_c, 9, 39, 127
1, 101280, Note_on_c, 9, 36, 127
1, 101519, Note_on_c, 9, 40, 0
1, 101519, Note_on_c, 9, 46, 0
1, 101519, Note_on_c, 9, 39, 0
1, 101520, Note_on_c, 9, 46, 89
1, 101520, Note_on_c, 9, 39, 75
1, 101759, Note_on_c, 9, 36, 0
1, 101759, Note_on_c, 9, 46, 0
1, 101759, Note_on_c, 9, 39, 0
1, 101760, Note_on_c, 9, 46, 103
1, 101760, Note_on_c, 9, 36, 127
1, 101999, Note_on_c, 9, 46, 0
1, 102000, Note_on_c, 9, 46, 88
1, 102239, Note_on_c, 9, 36, 0
1, 102239, Note_on_c, 9, 46, 0
1, 102240, Note_on_c, 9, 40, 127
1, 102240, Note_on_c, 9, 46, 114
1, 102240, Note_on_c, 9, 39, 127
1, 102240, Note_on_c, 9, 36, 127
1, 102479, Note_on_c, 9, 40, 0
1, 102479, Note_on_c, 9, 46, 0
1, 102479, Note_on_c, 9, 39, 0
1, 102480, Note_on_c, 9, 46, 85
1, 102480, Note_on_c, 9, 39, 76
1, 102719, Note_on_c, 9, 36, 0
1, 102719, Note_on_c, 9, 46, 0
1, 102719, Note_on_c, 9, 39, 0
1, 102720, Note_on_c, 9, 46, 104
1, 102720, Note_on_c, 9, 36, 127
1, 102959, Note_on_c, 9, 46, 0
1, 102960, Note_on_c, 9, 40, 105
1, 102960, Note_on_c, 9, 46, 96
1, 103199, Note_on_c, 9, 36, 0
1, 103199, Note_on_c, 9, 40, 0
1, 103199, Note_on_c, 9, 46, 0
1, 103200, Note_on_c, 9, 40, 127
1, 103200, Note_on_c, 9, 46, 126
1, 103200, Note_on_c, 9, 39, 127
1, 103200, Note_on_c, 9, 36, 127
1, 103439, Note_on_c, 9, 40, 0
1, 103439, Note_on_c, 9, 46, 0
1, 103439, Note_on_c, 9, 39, 0
1, 103439, Note_on_c, 9, 36, 0
1, 103440, Note_on_c, 9, 39, 83
1, 103440, Note_on_c, 9, 36, 110
1, 103679, Note_on_c, 9, 39, 0
1, 103679, Note_on_c, 9, 36, 0
1, 103680, Note_on_c, 9, 49, 115
1, 103680, Note_on_c, 9, 36, 127
1, 103919, Note_on_c, 9, 49, 0
1, 103920, Note_on_c, 9, 46, 91
1, 104159, Note_on_c, 9, 36, 0
1, 104159, Note_on_c, 9, 46, 0
1, 104160, Note_on_c, 9, 40, 127
1, 104160, Note_on_c, 9, 46, 121
1, 104160, Note_on_c, 9, 39, 127
1, 104160, Note_on_c, 9, 36, 127
1, 104399, Note_on_c, 9, 40, 0
1, 104399, Note_on_c, 9, 46, 0
1, 104399, Note_on_c, 9, 39, 0
1, 104400, Note_on_c, 9, 46, 91
1, 104400, Note_on_c, 9, 39, 80
1, 104639, Note_on_c, 9, 36, 0
1, 104639, Note_on_c, 9, 46, 0
1, 104639, Note_on_c, 9, 39, 0
1, 104640, Note_on_c, 9, 46, 116
1, 104640, Note_on_c, 9, 36, 127
1, 104879, Note_on_c, 9, 46, 0
1, 104880, Note_on_c, 9, 46, 89
1, 105119, Note_on_c, 9, 36, 0
1, 105119, Note_on_c, 9, 46, 0
1, 105120, Note_on_c, 9, 40, 127
1, 105120, Note_on_c, 9, 46, 112
1, 105120, Note_on_c, 9, 39, 127
1, 105120, Note_on_c, 9, 36, 127
1, 105359, Note_on_c, 9, 40, 0
1, 105359, Note_on_c, 9, 46, 0
1, 105359, Note_on_c, 9, 39, 0
1, 105360, Note_on_c, 9, 46, 50
1, 105360, Note_on_c, 9, 39, 78
1, 105599, Note_on_c, 9, 36, 0
1, 105599, Note_on_c, 9, 46, 0
1, 105599, Note_on_c, 9, 39, 0
1, 105600, Note_on_c, 9, 46, 96
1, 105600, Note_on_c, 9, 36, 127
1, 105839, Note_on_c, 9, 46, 0
1, 105840, Note_on_c, 9, 46, 91
1, 106079, Note_on_c, 9, 36, 0
1, 106079, Note_on_c, 9, 46, 0
1, 106080, Note_on_c, 9, 40, 127
1, 106080, Note_on_c, 9, 46, 111
1, 106080, Note_on_c, 9, 39, 127
1, 106080, Note_on_c, 9, 36, 127
1, 106319, Note_on_c, 9, 40, 0
1, 106319, Note_on_c, 9, 46, 0
1, 106319, Note_on_c, 9, 39, 0
1, 106320, Note_on_c, 9, 46, 80
1, 106320, Note_on_c, 9, 39, 83
1, 106559, Note_on_c, 9, 36, 0
1, 106559, Note_on_c, 9, 46, 0
1, 106559, Note_on_c, 9, 39, 0
1, 106560, Note_on_c, 9, 46, 104
1, 106560, Note_on_c, 9, 36, 127
1, 106799, Note_on_c, 9, 46, 0
1, 106800, Note_on_c, 9, 46, 81
1, 107039, Note_on_c, 9, 36, 0
1, 107039, Note_on_c, 9, 46, 0
1, 107040, Note_on_c, 9, 40, 127
1, 107040, Note_on_c, 9, 46, 111
1, 107040, Note_on_c, 9, 39, 127
1, 107040, Note_on_c, 9, 36, 127
1, 107279, Note_on_c, 9, 40, 0
1, 107279, Note_on_c, 9, 46, 0
1, 107279, Note_on_c, 9, 39, 0
1, 107280, Note_on_c, 9, 46, 81
1, 107280, Note_on_c, 9, 39, 86
1, 107519, Note_on_c, 9, 36, 0
1, 107519, Note_on_c, 9, 46, 0
1, 107519, Note_on_c, 9, 39, 0
1, 107520, Note_on_c, 9, 46, 116
1, 107520, Note_on_c, 9, 36, 127
1, 107759, Note_on_c, 9, 46, 0
1, 107760, Note_on_c, 9, 46, 72
1, 107999, Note_on_c, 9, 36, 0
1, 107999, Note_on_c, 9, 46, 0
1, 108000, Note_on_c, 9, 40, 127
1, 108000, Note_on_c, 9, 46, 121
1, 108000, Note_on_c, 9, 39, 127
1, 108000, Note_on_c, 9, 36, 127
1, 108239, Note_on_c, 9, 40, 0
1, 108239, Note_on_c, 9, 46, 0
1, 108239, Note_on_c, 9, 39, 0
1, 108240, Note_on_c, 9, 46, 81
1, 108240, Note_on_c, 9, 39, 77
1, 108479, Note_on_c, 9, 36, 0
1, 108479, Note_on_c, 9, 46, 0
1, 108479, Note_on_c, 9, 39, 0
1, 108480, Note_on_c, 9, 46, 118
1, 108480, Note_on_c, 9, 36, 127
1, 108719, Note_on_c, 9, 46, 0
1, 108720, Note_on_c, 9, 46, 79
1, 108959, Note_on_c, 9, 36, 0
1, 108959, Note_on_c, 9, 46, 0
1, 108960, Note_on_c, 9, 40, 127
1, 108960, Note_on_c, 9, 46, 116
1, 108960, Note_on_c, 9, 39, 127
1, 108960, Note_on_c, 9, 36, 127
1, 109199, Note_on_c, 9, 40, 0
1, 109199, Note_on_c, 9, 46, 0
1, 109199, Note_on_c, 9, 39, 0
1, 109200, Note_on_c, 9, 46, 86
1, 109200, Note_on_c, 9, 39, 84
1, 109439, Note_on_c, 9, 36, 0
1, 109439, Note_on_c, 9, 46, 0
1, 109439, Note_on_c, 9, 39, 0
1, 109440, Note_on_c, 9, 46, 114
1, 109440, Note_on_c, 9, 36, 127
1, 109679, Note_on_c, 9, 46, 0
1, 109680, Note_on_c, 9, 46, 82
1, 109919, Note_on_c, 9, 36, 0
1, 109919, Note_on_c, 9, 46, 0
1, 109920, Note_on_c, 9, 40, 127
1, 109920, Note_on_c, 9, 46, 118
1, 109920, Note_on_c, 9, 39, 127
1, 109920, Note_on_c, 9, 36, 127
1, 110159, Note_on_c, 9, 40, 0
1, 110159, Note_on_c, 9, 46, 0
1, 110159, Note_on_c, 9, 39, 0
1, 110160, Note_on_c, 9, 46, 81
1, 110160, Note_on_c, 9, 39, 95
1, 110399, Note_on_c, 9, 36, 0
1, 110399, Note_on_c, 9, 46, 0
1, 110399, Note_on_c, 9, 39, 0
1, 110400, Note_on_c, 9, 46, 110
1, 110400, Note_on_c, 9, 36, 127
1, 110639, Note_on_c, 9, 46, 0
1, 110640, Note_on_c, 9, 46, 79
1, 110640, Note_on_c, 9, 39, 64
1, 110879, Note_on_c, 9, 36, 0
1, 110879, Note_on_c, 9, 46, 0
1, 110879, Note_on_c, 9, 39, 0
1, 110880, Note_on_c, 9, 40, 127
1, 110880, Note_on_c, 9, 46, 115
1, 110880, Note_on_c, 9, 39, 127
1, 110880, Note_on_c, 9, 36, 127
1, 111119, Note_on_c, 9, 40, 0
1, 111119, Note_on_c, 9, 46, 0
1, 111119, Note_on_c, 9, 39, 0
1, 111120, Note_on_c, 9, 46, 70
1, 111120, Note_on_c, 9, 39, 95
1, 111359, Note_on_c, 9, 36, 0
1, 111359, Note_on_c, 9, 46, 0
1, 111359, Note_on_c, 9, 39, 0
1, 111360, Note_on_c, 9, 46, 115
1, 111360, Note_on_c, 9, 36, 127
1, 111599, Note_on_c, 9, 46, 0
1, 111600, Note_on_c, 9, 46, 86
1, 111839, Note_on_c, 9, 36, 0
1, 111839, Note_on_c, 9, 46, 0
1, 111840, Note_on_c, 9, 40, 127
1, 111840, Note_on_c, 9, 46, 119
1, 111840, Note_on_c, 9, 39, 127
1, 111840, Note_on_c, 9, 36, 127
1, 112079, Note_on_c, 9, 40, 0
1, 112079, Note_on_c, 9, 46, 0
1, 112079, Note_on_c, 9, 39, 0
1, 112080, Note_on_c, 9, 46, 84
1, 112080, Note_on_c, 9, 39, 87
1, 112319, Note_on_c, 9, 36, 0
1, 112319, Note_on_c, 9, 46, 0
1, 112319, Note_on_c, 9, 39, 0
1, 112320, Note_on_c, 9, 46, 115
1, 112320, Note_on_c, 9, 36, 127
1, 112559, Note_on_c, 9, 46, 0
1, 112560, Note_on_c, 9, 46, 82
1, 112799, Note_on_c, 9, 36, 0
1, 112799, Note_on_c, 9, 46, 0
1, 112800, Note_on_c, 9, 40, 127
1, 112800, Note_on_c, 9, 46, 121
1, 112800, Note_on_c, 9, 39, 127
1, 112800, Note_on_c, 9, 36, 127
1, 113039, Note_on_c, 9, 40, 0
1, 113039, Note_on_c, 9, 46, 0
1, 113039, Note_on_c, 9, 39, 0
1, 113040, Note_on_c, 9, 46, 89
1, 113040, Note_on_c, 9, 39, 75
1, 113279, Note_on_c, 9, 36, 0
1, 113279, Note_on_c, 9, 46, 0
1, 113279, Note_on_c, 9, 39, 0
1, 113280, Note_on_c, 9, 46, 103
1, 113280, Note_on_c, 9, 36, 127
1, 113519, Note_on_c, 9, 46, 0
1, 113520, Note_on_c, 9, 46, 88
1, 113759, Note_on_c, 9, 36, 0
1, 113759, Note_on_c, 9, 46, 0
1, 113760, Note_on_c, 9, 40, 127
1, 113760, Note_on_c, 9, 46, 114
1, 113760, Note_on_c, 9, 39, 127
1, 113760, Note_on_c, 9, 36, 127
1, 113999, Note_on_c, 9, 40, 0
1, 113999, Note_on_c, 9, 46, 0
1, 113999, Note_on_c, 9, 39, 0
1, 114000, Note_on_c, 9, 46, 85
1, 114000, Note_on_c, 9, 39, 76
1, 114239, Note_on_c, 9, 36, 0
1, 114239, Note_on_c, 9, 46, 0
1, 114239, Note_on_c, 9, 39, 0
1, 114240, Note_on_c, 9, 46, 104
1, 114240, Note_on_c, 9, 36, 127
1, 114479, Note_on_c, 9, 46, 0
1, 114480, Note_on_c, 9, 40, 105
1, 114480, Note_on_c, 9, 46, 96
1, 114719, Note_on_c, 9, 36, 0
1, 114719, Note_on_c, 9, 40, 0
1, 114719, Note_on_c, 9, 46, 0
1, 114720, Note_on_c, 9, 40, 127
1, 114720, Note_on_c, 9, 46, 126
1, 114720, Note_on_c, 9, 39, 127
1, 114720, Note_on_c, 9, 36, 127
1, 114959, Note_on_c, 9, 40, 0
1, 114959, Note_on_c, 9, 46, 0
1, 114959, Note_on_c, 9, 39, 0
1, 114959, Note_on_c, 9, 36, 0
1, 114960, Note_on_c, 9, 39, 83
1, 114960, Note_on_c, 9, 36, 110
1, 115199, Note_on_c, 9, 39, 0
1, 115199, Note_on_c, 9, 36, 0
1, 115200, Note_on_c, 9, 49, 115
1, 115200, Note_on_c, 9, 36, 127
1, 115439, Note_on_c, 9, 49, 0
1, 115440, Note_on_c, 9, 46, 91
1, 115679, Note_on_c, 9, 36, 0
1, 115679, Note_on_c, 9, 46, 0
1, 115680, Note_on_c, 9, 40, 127
1, 115680, Note_on_c, 9, 46, 121
1, 115680, Note_on_c, 9, 39, 127
1, 115680, Note_on_c, 9, 36, 127
1, 115919, Note_on_c, 9, 40, 0
1, 115919, Note_on_c, 9, 46, 0
1, 115919, Note_on_c, 9, 39, 0
1, 115920, Note_on_c, 9, 46, 91
1, 115920, Note_on_c, 9, 39, 80
1, 116159, Note_on_c, 9, 36, 0
1, 116159, Note_on_c, 9, 46, 0
1, 116159, Note_on_c, 9, 39, 0
1, 116160, Note_on_c, 9, 46, 116
1, 116160, Note_on_c, 9, 36, 127
1, 116399, Note_on_c, 9, 46, 0
1, 116400, Note_on_c, 9, 46, 89
1, 116639, Note_on_c, 9, 36, 0
1, 116639, Note_on_c, 9, 46, 0
1, 116640, Note_on_c, 9, 40, 127
1, 116640, Note_on_c, 9, 46, 112
1, 116640, Note_on_c, 9, 39, 127
1, 116640, Note_on_c, 9, 36, 127
1, 116879, Note_on_c, 9, 40, 0
1, 116879, Note_on_c, 9, 46, 0
1, 116879, Note_on_c, 9, 39, 0
1, 116880, Note_on_c, 9, 46, 50
1, 116880, Note_on_c, 9, 39, 78
1, 117119, Note_on_c, 9, 36, 0
1, 117119, Note_on_c, 9, 46, 0
1, 117119, Note_on_c, 9, 39, 0
1, 117120, Note_on_c, 9, 46, 96
1, 117120, Note_on_c, 9, 36, 127
1, 117359, Note_on_c, 9, 46, 0
1, 117360, Note_on_c, 9, 46, 91
1, 117599, Note_on_c, 9, 36, 0
1, 117599, Note_on_c, 9, 46, 0
1, 117600, Note_on_c, 9, 40, 127
1, 117600, Note_on_c, 9, 46, 111
1, 117600, Note_on_c, 9, 39, 127
1, 117600, Note_on_c, 9, 36, 127
1, 117839, Note_on_c, 9, 40, 0
1, 117839, Note_on_c, 9, 46, 0
1, 117839, Note_on_c, 9, 39, 0
1, 117840, Note_on_c, 9, 46, 80
1, 117840, Note_on_c, 9, 39, 83
1, 118079, Note_on_c, 9, 36, 0
1, 118079, Note_on_c, 9, 46, 0
1, 118079, Note_on_c, 9, 39, 0
1, 118080, Note_on_c, 9, 46, 104
1, 118080, Note_on_c, 9, 36, 127
1, 118319, Note_on_c, 9, 46, 0
1, 118320, Note_on_c, 9, 46, 81
1, 118559, Note_on_c, 9, 36, 0
1, 118559, Note_on_c, 9, 46, 0
1, 118560, Note_on_c, 9, 40, 127
1, 118560, Note_on_c, 9, 46, 111
1, 118560, Note_on_c, 9, 39, 127
1, 118560, Note_on_c, 9, 36, 127
1, 118799, Note_on_c, 9, 40, 0
1, 118799, Note_on_c, 9, 46, 0
1, 118799, Note_on_c, 9, 39, 0
1, 118800, Note_on_c, 9, 46, 81
1, 118800, Note_on_c, 9, 39, 86
1, 119039, Note_on_c, 9, 36, 0
1, 119039, Note_on_c, 9, 46, 0
1, 119039, Note_on_c, 9, 39, 0
1, 119040, Note_on_c, 9, 46, 116
1, 119040, Note_on_c, 9, 36, 127
1, 119279, Note_on_c, 9, 46, 0
1, 119280, Note_on_c, 9, 46, 72
1, 119519, Note_on_c, 9, 36, 0
1, 119519, Note_on_c, 9, 46, 0
1, 119520, Note_on_c, 9, 40, 127
1, 119520, Note_on_c, 9, 46, 121
1, 119520, Note_on_c, 9, 39, 127
1, 119520, Note_on_c, 9, 36, 127
1, 119759, Note_on_c, 9, 40, 0
1, 119759, Note_on_c, 9, 46, 0
1, 119759, Note_on_c, 9, 39, 0
1, 119760, Note_on_c, 9, 46, 81
1, 119760, Note_on_c, 9, 39, 77
1, 119999, Note_on_c, 9, 36, 0
1, 119999, Note_on_c, 9, 46, 0
1, 119999, Note_on_c, 9, 39, 0
1, 120000, Note_on_c, 9, 46, 118
1, 120000, Note_on_c, 9, 36, 127
1, 120239, Note_on_c, 9, 46, 0
1, 120240, Note_on_c, 9, 46, 79
1, 120479, Note_on_c, 9, 36, 0
1, 120479, Note_on_c, 9, 46, 0
1, 120480, Note_on_c, 9, 40, 127
1, 120480, Note_on_c, 9, 46, 116
1, 120480, Note_on_c, 9, 39, 127
1, 120480, Note_on_c, 9, 36, 127
1, 120719, Note_on_c, 9, 40, 0
1, 120719, Note_on_c, 9, 46, 0
1, 120719, Note_on_c, 9, 39, 0
1, 120720, Note_on_c, 9, 46, 86
1, 120720, Note_on_c, 9, 39, 84
1, 120959, Note_on_c, 9, 36, 0
1, 120959, Note_on_c, 9, 46, 0
1, 120959, Note_on_c, 9, 39, 0
1, 120960, Note_on_c, 9, 46, 114
1, 120960, Note_on_c, 9, 36, 127
1, 121199, Note_on_c, 9, 46, 0
1, 121200, Note_on_c, 9, 46, 82
1, 121439, Note_on_c, 9, 36, 0
1, 121439, Note_on_c, 9, 46, 0
1, 121440, Note_on_c, 9, 40, 127
1, 121440, Note_on_c, 9, 46, 118
1, 121440, Note_on_c, 9, 39, 127
1, 121440, Note_on_c, 9, 36, 127
1, 121679, Note_on_c, 9, 40, 0
1, 121679, Note_on_c, 9, 46, 0
1, 121679, Note_on_c, 9, 39, 0
1, 121680, Note_on_c, 9, 46, 81
1, 121680, Note_on_c, 9, 39, 95
1, 121919, Note_on_c, 9, 36, 0
1, 121919, Note_on_c, 9, 46, 0
1, 121919, Note_on_c, 9, 39, 0
1, 121920, Note_on_c, 9, 46, 110
1, 121920, Note_on_c, 9, 36, 127
1, 122159, Note_on_c, 9, 46, 0
1, 122160, Note_on_c, 9, 46, 79
1, 122160, Note_on_c, 9, 39, 64
1, 122399, Note_on_c, 9, 36, 0
1, 122399, Note_on_c, 9, 46, 0
1, 122399, Note_on_c, 9, 39, 0
1, 122400, Note_on_c, 9, 40, 127
1, 122400, Note_on_c, 9, 46, 115
1, 122400, Note_on_c, 9, 39, 127
1, 122400, Note_on_c, 9, 36, 127
1, 122639, Note_on_c, 9, 40, 0
1, 122639, Note_on_c, 9, 46, 0
1, 122639, Note_on_c, 9, 39, 0
1, 122640, Note_on_c, 9, 46, 70
1, 122640, Note_on_c, 9, 39, 95
1, 122879, Note_on_c, 9, 36, 0
1, 122879, Note_on_c, 9, 46, 0
1, 122879, Note_on_c, 9, 39, 0
1, 122880, Note_on_c, 9, 46, 115
1, 122880, Note_on_c, 9, 36, 127
1, 123119, Note_on_c, 9, 46, 0
1, 123120, Note_on_c, 9, 46, 86
1, 123359, Note_on_c, 9, 36, 0
1, 123359, Note_on_c, 9, 46, 0
1, 123360, Note_on_c, 9, 40, 127
1, 123360, Note_on_c, 9, 46, 119
1, 123360, Note_on_c, 9, 39, 127
1, 123360, Note_on_c, 9, 36, 127
1, 123599, Note_on_c, 9, 40, 0
1, 123599, Note_on_c, 9, 46, 0
1, 123599, Note_on_c, 9, 39, 0
1, 123600, Note_on_c, 9, 46, 84
1, 123600, Note_on_c, 9, 39, 87
1, 123839, Note_on_c, 9, 36, 0
1, 123839, Note_on_c, 9, 46, 0
1, 123839, Note_on_c, 9, 39, 0
1, 123840, Note_on_c, 9, 46, 115
1, 123840, Note_on_c, 9, 36, 127
1, 124079, Note_on_c, 9, 46, 0
1, 124080, Note_on_c, 9, 46, 82
1, 124319, Note_on_c, 9, 36, 0
1, 124319, Note_on_c, 9, 46, 0
1, 124320, Note_on_c, 9, 40, 127
1, 124320, Note_on_c, 9, 46, 121
1, 124320, Note_on_c, 9, 39, 127
1, 124320, Note_on_c, 9, 36, 127
1, 124559, Note_on_c, 9, 40, 0
1, 124559, Note_on_c, 9, 46, 0
1, 124559, Note_on_c, 9, 39, 0
1, 124560, Note_on_c, 9, 46, 89
1, 124560, Note_on_c, 9, 39, 75
1, 124799, Note_on_c, 9, 36, 0
1, 124799, Note_on_c, 9, 46, 0
1, 124799, Note_on_c, 9, 39, 0
1, 124800, Note_on_c, 9, 46, 103
1, 124800, Note_on_c, 9, 36, 127
1, 125039, Note_on_c, 9, 46, 0
1, 125040, Note_on_c, 9, 46, 88
1, 125279, Note_on_c, 9, 36, 0
1, 125279, Note_on_c, 9, 46, 0
1, 125280, Note_on_c, 9, 40, 127
1, 125280, Note_on_c, 9, 46, 114
1, 125280, Note_on_c, 9, 39, 127
1, 125280, Note_on_c, 9, 36, 127
1, 125519, Note_on_c, 9, 40, 0
1, 125519, Note_on_c, 9, 46, 0
1, 125519, Note_on_c, 9, 39, 0
1, 125520, Note_on_c, 9, 46, 85
1, 125520, Note_on_c, 9, 39, 76
1, 125759, Note_on_c, 9, 36, 0
1, 125759, Note_on_c, 9, 46, 0
1, 125759, Note_on_c, 9, 39, 0
1, 125760, Note_on_c, 9, 46, 104
1, 125760, Note_on_c, 9, 36, 127
1, 125999, Note_on_c, 9, 46, 0
1, 126000, Note_on_c, 9, 40, 105
1, 126000, Note_on_c, 9, 46, 96
1, 126239, Note_on_c, 9, 36, 0
1, 126239, Note_on_c, 9, 40, 0
1, 126239, Note_on_c, 9, 46, 0
1, 126240, Note_on_c, 9, 40, 127
1, 126240, Note_on_c, 9, 46, 126
1, 126240, Note_on_c, 9, 39, 127
1, 126240, Note_on_c, 9, 36, 127
1, 126479, Note_on_c, 9, 40, 0
1, 126479, Note_on_c, 9, 46, 0
1, 126479, Note_on_c, 9, 39, 0
1, 126479, Note_on_c, 9, 36, 0
1, 126480, Note_on_c, 9, 39, 83
1, 126480, Note_on_c, 9, 36, 110
1, 126719, Note_on_c, 9, 39, 0
1, 126719, Note_on_c, 9, 36, 0
1, 126720, Note_on_c, 9, 49, 122
1, 126720, Note_on_c, 9, 36, 127
1, 127199, Note_on_c, 9, 49, 0
1, 127199, Note_on_c, 9, 36, 0
1, 127200, Note_on_c, 9, 40, 127
1, 127200, Note_on_c, 9, 46, 104
1, 127200, Note_on_c, 9, 39, 127
1, 127200, Note_on_c, 9, 36, 127
1, 127679, Note_on_c, 9, 40, 0
1, 127679, Note_on_c, 9, 46, 0
1, 127679, Note_on_c, 9, 39, 0
1, 127679, Note_on_c, 9, 36, 0
1, 127680, Note_on_c, 9, 46, 115
1, 127680, Note_on_c, 9, 36, 127
1, 128159, Note_on_c, 9, 46, 0
1, 128159, Note_on_c, 9, 36, 0
1, 128160, Note_on_c, 9, 40, 127
1, 128160, Note_on_c, 9, 46, 121
1, 128160, Note_on_c, 9, 39, 127
1, 128160, Note_on_c, 9, 36, 127
1, 128399, Note_on_c, 9, 40, 0
1, 128399, Note_on_c, 9, 46, 0
1, 128399, Note_on_c, 9, 39, 0
1, 128400, Note_on_c, 9, 46, 69
1, 128639, Note_on_c, 9, 36, 0
1, 128639, Note_on_c, 9, 46, 0
1, 128640, Note_on_c, 9, 46, 118
1, 128640, Note_on_c, 9, 36, 127
1, 129119, Note_on_c, 9, 46, 0
1, 129119, Note_on_c, 9, 36, 0
1, 129120, Note_on_c, 9, 40, 127
1, 129120, Note_on_c, 9, 46, 116
1, 129120, Note_on_c, 9, 39, 127
1, 129120, Note_on_c, 9, 36, 127
1, 129359, Note_on_c, 9, 40, 0
1, 129359, Note_on_c, 9, 46, 0
1, 129359, Note_on_c, 9, 39, 0
1, 129360, Note_on_c, 9, 46, 75
1, 129599, Note_on_c, 9, 36, 0
1, 129599, Note_on_c, 9, 46, 0
1, 129600, Note_on_c, 9, 46, 112
1, 129600, Note_on_c, 9, 36, 127
1, 130079, Note_on_c, 9, 46, 0
1, 130079, Note_on_c, 9, 36, 0
1, 130080, Note_on_c, 9, 40, 127
1, 130080, Note_on_c, 9, 46, 119
1, 130080, Note_on_c, 9, 39, 127
1, 130080, Note_on_c, 9, 36, 127
1, 130319, Note_on_c, 9, 40, 0
1, 130319, Note_on_c, 9, 46, 0
1, 130319, Note_on_c, 9, 39, 0
1, 130320, Note_on_c, 9, 46, 73
1, 130559, Note_on_c, 9, 36, 0
1, 130559, Note_on_c, 9, 46, 0
1, 130560, Note_on_c, 9, 40, 127
1, 130560, Note_on_c, 9, 46, 126
1, 130560, Note_on_c, 9, 36, 127
1, 130679, Note_on_c, 9, 40, 0
1, 130679, Note_on_c, 9, 46, 0
1, 130680, Note_on_c, 9, 40, 127
1, 130799, Note_on_c, 9, 40, 0
1, 130800, Note_on_c, 9, 40, 127
1, 130919, Note_on_c, 9, 40, 0
1, 130920, Note_on_c, 9, 40, 112
1, 131039, Note_on_c, 9, 36, 0
1, 131039, Note_on_c, 9, 40, 0
1, 131040, Note_on_c, 9, 40, 127
1, 131040, Note_on_c, 9, 36, 127
1, 131519, Note_on_c, 9, 40, 0
1, 131519, Note_on_c, 9, 36, 0
1, 131520, Note_on_c, 9, 36, 127
1, 131999, Note_on_c, 9, 36, 0
1, 132000, Note_on_c, 9, 40, 127
1, 132000, Note_on_c, 9, 36, 127
1, 132479, Note_on_c, 9, 40, 0
1, 132479, Note_on_c, 9, 36, 0
1, 132480, Note_on_c, 9, 40, 127
1, 132480, Note_on_c, 9, 36, 127
1, 132959, Note_on_c, 9, 40, 0
1, 132959, Note_on_c, 9, 36, 0
1, 132960, Note_on_c, 9, 40, 111
1, 132960, Note_on_c, 9, 36, 127
1, 133199, Note_on_c, 9, 40, 0
1, 133200, Note_on_c, 9, 40, 127
1, 133439, Note_on_c, 9, 36, 0
1, 133439, Note_on_c, 9, 40, 0
1, 133440, Note_on_c, 9, 36, 127
1, 133680, Note_on_c, 9, 40, 127
1, 133919, Note_on_c, 9, 36, 0
1, 133919, Note_on_c, 9, 40, 0
1, 133920, Note_on_c, 9, 40, 127
1, 133920, Note_on_c, 9, 36, 127
1, 134399, Note_on_c, 9, 40, 0
1, 134399, Note_on_c, 9, 36, 0
1, 134400, Note_on_c, 9, 49, 127
1, 134400, Note_on_c, 9, 36, 127
1, 134879, Note_on_c, 9, 49, 0
1, 134879, Note_on_c, 9, 36, 0
1, 134880, Note_on_c, 9, 40, 127
1, 134880, Note_on_c, 9, 46, 121
1, 134880, Note_on_c, 9, 39, 127
1, 134880, Note_on_c, 9, 36, 127
1, 135359, Note_on_c, 9, 40, 0
1, 135359, Note_on_c, 9, 46, 0
1, 135359, Note_on_c, 9, 39, 0
1, 135359, Note_on_c, 9, 36, 0
1, 135360, Note_on_c, 9, 46, 114
1, 135360, Note_on_c, 9, 36, 127
1, 135839, Note_on_c, 9, 46, 0
1, 135839, Note_on_c, 9, 36, 0
1, 135840, Note_on_c, 9, 40, 127
1, 135840, Note_on_c, 9, 46, 124
1, 135840, Note_on_c, 9, 39, 127
1, 135840, Note_on_c, 9, 36, 127
1, 136319, Note_on_c, 9, 40, 0
1, 136319, Note_on_c, 9, 46, 0
1, 136319, Note_on_c, 9, 39, 0
1, 136319, Note_on_c, 9, 36, 0
1, 136320, Note_on_c, 9, 46, 122
1, 136320, Note_on_c, 9, 36, 127
1, 136559, Note_on_c, 9, 46, 0
1, 136560, Note_on_c, 9, 46, 65
1, 136799, Note_on_c, 9, 36, 0
1, 136799, Note_on_c, 9, 46, 0
1, 136800, Note_on_c, 9, 40, 127
1, 136800, Note_on_c, 9, 46, 127
1, 136800, Note_on_c, 9, 39, 127
1, 136800, Note_on_c, 9, 36, 127
1, 137039, Note_on_c, 9, 40, 0
1, 137039, Note_on_c, 9, 46, 0
1, 137039, Note_on_c, 9, 39, 0
1, 137040, Note_on_c, 9, 46, 68
1, 137279, Note_on_c, 9, 36, 0
1, 137279, Note_on_c, 9, 46, 0
1, 137280, Note_on_c, 9, 46, 118
1, 137280, Note_on_c, 9, 36, 127
1, 137519, Note_on_c, 9, 46, 0
1, 137520, Note_on_c, 9, 48, 127
1, 137759, Note_on_c, 9, 36, 0
1, 137759, Note_on_c, 9, 48, 0
1, 137760, Note_on_c, 9, 40, 127
1, 137760, Note_on_c, 9, 39, 127
1, 137760, Note_on_c, 9, 36, 127
1, 138239, Note_on_c, 9, 40, 0
1, 138239, Note_on_c, 9, 39, 0
1, 138239, Note_on_c, 9, 36, 0
1, 138240, Note_on_c, 9, 46, 116
1, 138240, Note_on_c, 9, 36, 127
1, 138479, Note_on_c, 9, 46, 0
1, 138480, Note_on_c, 9, 46, 72
1, 138719, Note_on_c, 9, 36, 0
1, 138719, Note_on_c, 9, 46, 0
1, 138720, Note_on_c, 9, 40, 127
1, 138720, Note_on_c, 9, 46, 121
1, 138720, Note_on_c, 9, 39, 127
1, 138720, Note_on_c, 9, 36, 127
1, 138959, Note_on_c, 9, 40, 0
1, 138959, Note_on_c, 9, 46, 0
1, 138959, Note_on_c, 9, 39, 0
1, 138960, Note_on_c, 9, 46, 81
1, 138960, Note_on_c, 9, 39, 77
1, 139199, Note_on_c, 9, 36, 0
1, 139199, Note_on_c, 9, 46, 0
1, 139199, Note_on_c, 9, 39, 0
1, 139200, Note_on_c, 9, 46, 118
1, 139200, Note_on_c, 9, 36, 127
1, 139439, Note_on_c, 9, 46, 0
1, 139440, Note_on_c, 9, 46, 79
1, 139679, Note_on_c, 9, 36, 0
1, 139679, Note_on_c, 9, 46, 0
1, 139680, Note_on_c, 9, 40, 127
1, 139680, Note_on_c, 9, 46, 116
1, 139680, Note_on_c, 9, 39, 127
1, 139680, Note_on_c, 9, 36, 127
1, 139919, Note_on_c, 9, 40, 0
1, 139919, Note_on_c, 9, 46, 0
1, 139919, Note_on_c, 9, 39, 0
1, 139920, Note_on_c, 9, 46, 86
1, 139920, Note_on_c, 9, 39, 84
1, 140159, Note_on_c, 9, 36, 0
1, 140159, Note_on_c, 9, 46, 0
1, 140159, Note_on_c, 9, 39, 0
1, 140160, Note_on_c, 9, 46, 114
1, 140160, Note_on_c, 9, 36, 127
1, 140399, Note_on_c, 9, 46, 0
1, 140400, Note_on_c, 9, 46, 82
1, 140639, Note_on_c, 9, 36, 0
1, 140639, Note_on_c, 9, 46, 0
1, 140640, Note_on_c, 9, 40, 127
1, 140640, Note_on_c, 9, 46, 118
1, 140640, Note_on_c, 9, 39, 127
1, 140640, Note_on_c, 9, 36, 127
1, 140879, Note_on_c, 9, 40, 0
1, 140879, Note_on_c, 9, 46, 0
1, 140879, Note_on_c, 9, 39, 0
1, 140880, Note_on_c, 9, 46, 81
1, 140880, Note_on_c, 9, 39, 95
1, 141119, Note_on_c, 9, 36, 0
1, 141119, Note_on_c, 9, 46, 0
1, 141119, Note_on_c, 9, 39, 0
1, 141120, Note_on_c, 9, 46, 110
1, 141120, Note_on_c, 9, 36, 127
1, 141359, Note_on_c, 9, 46, 0
1, 141360, Note_on_c, 9, 46, 79
1, 141360, Note_on_c, 9, 39, 64
1, 141599, Note_on_c, 9, 36, 0
1, 141599, Note_on_c, 9, 46, 0
1, 141599, Note_on_c, 9, 39, 0
1, 141600, Note_on_c, 9, 40, 127
1, 141600, Note_on_c, 9, 46, 115
1, 141600, Note_on_c, 9, 39, 127
1, 141600, Note_on_c, 9, 36, 127
1, 141839, Note_on_c, 9, 40, 0
1, 141839, Note_on_c, 9, 46, 0
1, 141839, Note_on_c, 9, 39, 0
1, 141840, Note_on_c, 9, 46, 70
1, 141840, Note_on_c, 9, 39, 95
1, 142079, Note_on_c, 9, 36, 0
1, 142079, Note_on_c, 9, 46, 0
1, 142079, Note_on_c, 9, 39, 0
1, 142080, Note_on_c, 9, 46, 115
1, 142080, Note_on_c, 9, 36, 127
1, 142319, Note_on_c, 9, 46, 0
1, 142320, Note_on_c, 9, 46, 86
1, 142559, Note_on_c, 9, 36, 0
1, 142559, Note_on_c, 9, 46, 0
1, 142560, Note_on_c, 9, 40, 127
1, 142560, Note_on_c, 9, 46, 119
1, 142560, Note_on_c, 9, 39, 127
1, 142560, Note_on_c, 9, 36, 127
1, 142799, Note_on_c, 9, 40, 0
1, 142799, Note_on_c, 9, 46, 0
1, 142799, Note_on_c, 9, 39, 0
1, 142800, Note_on_c, 9, 46, 84
1, 142800, Note_on_c, 9, 39, 87
1, 143039, Note_on_c, 9, 36, 0
1, 143039, Note_on_c, 9, 46, 0
1, 143039, Note_on_c, 9, 39, 0
1, 143040, Note_on_c, 9, 46, 115
1, 143040, Note_on_c, 9, 36, 127
1, 143279, Note_on_c, 9, 46, 0
1, 143280, Note_on_c, 9, 46, 82
1, 143519, Note_on_c, 9, 36, 0
1, 143519, Note_on_c, 9, 46, 0
1, 143520, Note_on_c, 9, 40, 127
1, 143520, Note_on_c, 9, 46, 121
1, 143520, Note_on_c, 9, 39, 127
1, 143520, Note_on_c, 9, 36, 127
1, 143759, Note_on_c, 9, 40, 0
1, 143759, Note_on_c, 9, 46, 0
1, 143759, Note_on_c, 9, 39, 0
1, 143760, Note_on_c, 9, 46, 89
1, 143760, Note_on_c, 9, 39, 75
1, 143999, Note_on_c, 9, 36, 0
1, 143999, Note_on_c, 9, 46, 0
1, 143999, Note_on_c, 9, 39, 0
1, 144000, Note_on_c, 9, 46, 103
1, 144000, Note_on_c, 9, 36, 127
1, 144239, Note_on_c, 9, 46, 0
1, 144240, Note_on_c, 9, 46, 88
1, 144479, Note_on_c, 9, 36, 0
1, 144479, Note_on_c, 9, 46, 0
1, 144480, Note_on_c, 9, 40, 127
1, 144480, Note_on_c, 9, 46, 114
1, 144480, Note_on_c, 9, 39, 127
1, 144480, Note_on_c, 9, 36, 127
1, 144719, Note_on_c, 9, 40, 0
1, 144719, Note_on_c, 9, 46, 0
1, 144719, Note_on_c, 9, 39, 0
1, 144720, Note_on_c, 9, 46, 85
1, 144720, Note_on_c, 9, 39, 76
1, 144959, Note_on_c, 9, 36, 0
1, 144959, Note_on_c, 9, 46, 0
1, 144959, Note_on_c, 9, 39, 0
1, 144960, Note_on_c, 9, 46, 104
1, 144960, Note_on_c, 9, 36, 127
1, 145199, Note_on_c, 9, 46, 0
1, 145200, Note_on_c, 9, 40, 105
1, 145200, Note_on_c, 9, 46, 96
1, 145439, Note_on_c, 9, 36, 0
1, 145439, Note_on_c, 9, 40, 0
1, 145439, Note_on_c, 9, 46, 0
1, 145440, Note_on_c, 9, 40, 127
1, 145440, Note_on_c, 9, 46, 126
1, 145440, Note_on_c, 9, 39, 127
1, 145440, Note_on_c, 9, 36, 127
1, 145679, Note_on_c, 9, 40, 0
1, 145679, Note_on_c, 9, 46, 0
1, 145679, Note_on_c, 9, 39, 0
1, 145679, Note_on_c, 9, 36, 0
1, 145680, Note_on_c, 9, 39, 83
1, 145680, Note_on_c, 9, 36, 110
1, 145919, Note_on_c, 9, 39, 0
1, 145919, Note_on_c, 9, 36, 0
1, 145920, Note_on_c, 9, 49, 108
1, 145920, Note_on_c, 9, 36, 127
1, 146399, Note_on_c, 9, 49, 0
1, 146399, Note_on_c, 9, 36, 0
1, 146400, Note_on_c, 9, 40, 99
1, 146400, Note_on_c, 9, 36, 127
1, 146639, Note_on_c, 9, 40, 0
1, 146640, Note_on_c, 9, 40, 82
1, 146759, Note_on_c, 9, 40, 0
1, 146760, Note_on_c, 9, 40, 102
1, 146879, Note_on_c, 9, 36, 0
1, 146879, Note_on_c, 9, 40, 0
1, 146880, Note_on_c, 9, 40, 127
1, 146880, Note_on_c, 9, 36, 127
1, 147119, Note_on_c, 9, 40, 0
1, 147120, Note_on_c, 9, 40, 85
1, 147239, Note_on_c, 9, 40, 0
1, 147240, Note_on_c, 9, 40, 90
1, 147359, Note_on_c, 9, 36, 0
1, 147359, Note_on_c, 9, 40, 0
1, 147360, Note_on_c, 9, 40, 127
1, 147360, Note_on_c, 9, 36, 127
1, 147599, Note_on_c, 9, 40, 0
1, 147600, Note_on_c, 9, 40, 89
1, 147719, Note_on_c, 9, 40, 0
1, 147720, Note_on_c, 9, 40, 94
1, 147839, Note_on_c, 9, 36, 0
1, 147839, Note_on_c, 9, 40, 0
1, 147840, Note_on_c, 9, 40, 127
1, 147840, Note_on_c, 9, 36, 127
1, 148079, Note_on_c, 9, 40, 0
1, 148080, Note_on_c, 9, 40, 92
1, 148199, Note_on_c, 9, 40, 0
1, 148200, Note_on_c, 9, 40, 95
1, 148319, Note_on_c, 9, 36, 0
1, 148319, Note_on_c, 9, 40, 0
1, 148320, Note_on_c, 9, 40, 127
1, 148320, Note_on_c, 9, 36, 127
1, 148559, Note_on_c, 9, 40, 0
1, 148560, Note_on_c, 9, 40, 85
1, 148679, Note_on_c, 9, 40, 0
1, 148680, Note_on_c, 9, 40, 89
1, 148799, Note_on_c, 9, 36, 0
1, 148799, Note_on_c, 9, 40, 0
1, 148800, Note_on_c, 9, 40, 127
1, 148800, Note_on_c, 9, 36, 127
1, 149039, Note_on_c, 9, 40, 0
1, 149040, Note_on_c, 9, 40, 82
1, 149159, Note_on_c, 9, 40, 0
1, 149160, Note_on_c, 9, 40, 83
1, 149279, Note_on_c, 9, 36, 0
1, 149279, Note_on_c, 9, 40, 0
1, 149280, Note_on_c, 9, 40, 127
1, 149280, Note_on_c, 9, 36, 127
1, 149519, Note_on_c, 9, 40, 0
1, 149520, Note_on_c, 9, 40, 89
1, 149639, Note_on_c, 9, 40, 0
1, 149640, Note_on_c, 9, 40, 66
1, 149759, Note_on_c, 9, 36, 0
1, 149759, Note_on_c, 9, 40, 0
1, 149760, Note_on_c, 9, 40, 127
1, 149760, Note_on_c, 9, 36, 127
1, 149999, Note_on_c, 9, 40, 0
1, 150000, Note_on_c, 9, 40, 87
1, 150119, Note_on_c, 9, 40, 0
1, 150120, Note_on_c, 9, 40, 84
1, 150239, Note_on_c, 9, 36, 0
1, 150239, Note_on_c, 9, 40, 0
1, 150240, Note_on_c, 9, 40, 127
1, 150240, Note_on_c, 9, 36, 127
1, 150479, Note_on_c, 9, 40, 0
1, 150480, Note_on_c, 9, 40, 90
1, 150599, Note_on_c, 9, 40, 0
1, 150600, Note_on_c, 9, 40, 73
1, 150719, Note_on_c, 9, 36, 0
1, 150719, Note_on_c, 9, 40, 0
1, 150720, Note_on_c, 9, 40, 127
1, 150720, Note_on_c, 9, 36, 127
1, 150959, Note_on_c, 9, 40, 0
1, 150960, Note_on_c, 9, 40, 91
1, 151079, Note_on_c, 9, 40, 0
1, 151080, Note_on_c, 9, 40, 79
1, 151199, Note_on_c, 9, 36, 0
1, 151199, Note_on_c, 9, 40, 0
1, 151200, Note_on_c, 9, 40, 127
1, 151200, Note_on_c, 9, 36, 127
1, 151439, Note_on_c, 9, 40, 0
1, 151440, Note_on_c, 9, 40, 101
1, 151559, Note_on_c, 9, 40, 0
1, 151560, Note_on_c, 9, 40, 93
1, 151679, Note_on_c, 9, 36, 0
1, 151679, Note_on_c, 9, 40, 0
1, 151680, Note_on_c, 9, 49, 118
1, 151680, Note_on_c, 9, 36, 127
1, 151919, Note_on_c, 9, 49, 0
1, 151919, Note_on_c, 9, 36, 0
1, 152000, Note_on_c, 9, 49, 116
1, 152000, Note_on_c, 9, 36, 127
1, 152039, Note_on_c, 9, 49, 0
1, 152039, Note_on_c, 9, 36, 0
1, 152320, Note_on_c, 9, 49, 99
1, 152320, Note_on_c, 9, 36, 127
1, 152339, Note_on_c, 9, 49, 0
1, 152339, Note_on_c, 9, 36, 0
1, 152640, Note_on_c, 9, 49, 114
1, 152640, Note_on_c, 9, 36, 127
1, 153119, Note_on_c, 9, 49, 0
1, 153119, Note_on_c, 9, 36, 0
1, 153120, Note_on_c, 9, 41, 127
1, 153120, Note_on_c, 9, 40, 127
1, 153599, Note_on_c, 9, 41, 0
1, 153599, Note_on_c, 9, 40, 0
1, 153600, Note_on_c, 9, 49, 108
1, 153600, Note_on_c, 9, 36, 127
1, 154079, Note_on_c, 9, 49, 0
1, 154079, Note_on_c, 9, 36, 0
1, 154080, Note_on_c, 9, 40, 99
1, 154080, Note_on_c, 9, 36, 127
1, 154319, Note_on_c, 9, 40, 0
1, 154320, Note_on_c, 9, 40, 82
1, 154439, Note_on_c, 9, 40, 0
1, 154440, Note_on_c, 9, 40, 102
1, 154559, Note_on_c, 9, 36, 0
1, 154559, Note_on_c, 9, 40, 0
1, 154560, Note_on_c, 9, 40, 127
1, 154560, Note_on_c, 9, 36, 127
1, 154799, Note_on_c, 9, 40, 0
1, 154800, Note_on_c, 9, 40, 85
1, 154919, Note_on_c, 9, 40, 0
1, 154920, Note_on_c, 9, 40, 90
1, 155039, Note_on_c, 9, 36, 0
1, 155039, Note_on_c, 9, 40, 0
1, 155040, Note_on_c, 9, 40, 127
1, 155040, Note_on_c, 9, 36, 127
1, 155279, Note_on_c, 9, 40, 0
1, 155280, Note_on_c, 9, 40, 89
1, 155399, Note_on_c, 9, 40, 0
1, 155400, Note_on_c, 9, 40, 94
1, 155519, Note_on_c, 9, 36, 0
1, 155519, Note_on_c, 9, 40, 0
1, 155520, Note_on_c, 9, 40, 127
1, 155520, Note_on_c, 9, 36, 127
1, 155759, Note_on_c, 9, 40, 0
1, 155760, Note_on_c, 9, 40, 92
1, 155879, Note_on_c, 9, 40, 0
1, 155880, Note_on_c, 9, 40, 95
1, 155999, Note_on_c, 9, 36, 0
1, 155999, Note_on_c, 9, 40, 0
1, 156000, Note_on_c, 9, 40, 127
1, 156000, Note_on_c, 9, 36, 127
1, 156239, Note_on_c, 9, 40, 0
1, 156240, Note_on_c, 9, 40, 85
1, 156359, Note_on_c, 9, 40, 0
1, 156360, Note_on_c, 9, 40, 89
1, 156479, Note_on_c, 9, 36, 0
1, 156479, Note_on_c, 9, 40, 0
1, 156480, Note_on_c, 9, 40, 127
1, 156480, Note_on_c, 9, 36, 127
1, 156719, Note_on_c, 9, 40, 0
1, 156720, Note_on_c, 9, 40, 82
1, 156839, Note_on_c, 9, 40, 0
1, 156840, Note_on_c, 9, 40, 83
1, 156959, Note_on_c, 9, 36, 0
1, 156959, Note_on_c, 9, 40, 0
1, 156960, Note_on_c, 9, 40, 127
1, 156960, Note_on_c, 9, 36, 127
1, 157199, Note_on_c, 9, 40, 0
1, 157200, Note_on_c, 9, 40, 89
1, 157319, Note_on_c, 9, 40, 0
1, 157320, Note_on_c, 9, 40, 66
1, 157439, Note_on_c, 9, 36, 0
1, 157439, Note_on_c, 9, 40, 0
1, 157440, Note_on_c, 9, 40, 127
1, 157440, Note_on_c, 9, 36, 127
1, 157679, Note_on_c, 9, 40, 0
1, 157680, Note_on_c, 9, 40, 87
1, 157799, Note_on_c, 9, 40, 0
1, 157800, Note_on_c, 9, 40, 84
1, 157919, Note_on_c, 9, 36, 0
1, 157919, Note_on_c, 9, 40, 0
1, 157920, Note_on_c, 9, 40, 127
1, 157920, Note_on_c, 9, 36, 127
1, 158159, Note_on_c, 9, 40, 0
1, 158160, Note_on_c, 9, 40, 90
1, 158279, Note_on_c, 9, 40, 0
1, 158280, Note_on_c, 9, 40, 73
1, 158399, Note_on_c, 9, 36, 0
1, 158399, Note_on_c, 9, 40, 0
1, 158400, Note_on_c, 9, 40, 127
1, 158400, Note_on_c, 9, 36, 127
1, 158639, Note_on_c, 9, 40, 0
1, 158640, Note_on_c, 9, 40, 91
1, 158759, Note_on_c, 9, 40, 0
1, 158760, Note_on_c, 9, 40, 79
1, 158879, Note_on_c, 9, 36, 0
1, 158879, Note_on_c, 9, 40, 0
1, 158880, Note_on_c, 9, 40, 127
1, 158880, Note_on_c, 9, 36, 127
1, 159119, Note_on_c, 9, 40, 0
1, 159120, Note_on_c, 9, 40, 101
1, 159239, Note_on_c, 9, 40, 0
1, 159240, Note_on_c, 9, 40, 93
1, 159359, Note_on_c, 9, 36, 0
1, 159359, Note_on_c, 9, 40, 0
1, 159360, Note_on_c, 9, 49, 118
1, 159360, Note_on_c, 9, 36, 127
1, 159599, Note_on_c, 9, 49, 0
1, 159599, Note_on_c, 9, 36, 0
1, 159680, Note_on_c, 9, 49, 116
1, 159680, Note_on_c, 9, 36, 127
1, 159719, Note_on_c, 9, 49, 0
1, 159719, Note_on_c, 9, 36, 0
1, 160000, Note_on_c, 9, 49, 99
1, 160000, Note_on_c, 9, 36, 127
1, 160019, Note_on_c, 9, 49, 0
1, 160019, Note_on_c, 9, 36, 0
1, 160320, Note_on_c, 9, 49, 114
1, 160320, Note_on_c, 9, 36, 127
1, 160799, Note_on_c, 9, 49, 0
1, 160799, Note_on_c, 9, 36, 0
1, 160800, Note_on_c, 9, 41, 127
1, 160800, Note_on_c, 9, 40, 127
1, 161279, Note_on_c, 9, 41, 0
1, 161279, Note_on_c, 9, 40, 0
1, 161280, Note_on_c, 9, 46, 116
1, 161280, Note_on_c, 9, 36, 127
1, 161519, Note_on_c, 9, 46, 0
1, 161520, Note_on_c, 9, 46, 72
1, 161759, Note_on_c, 9, 36, 0
1, 161759, Note_on_c, 9, 46, 0
1, 161760, Note_on_c, 9, 40, 127
1, 161760, Note_on_c, 9, 46, 121
1, 161760, Note_on_c, 9, 39, 127
1, 161760, Note_on_c, 9, 36, 127
1, 161999, Note_on_c, 9, 40, 0
1, 161999, Note_on_c, 9, 46, 0
1, 161999, Note_on_c, 9, 39, 0
1, 162000, Note_on_c, 9, 46, 81
1, 162000, Note_on_c, 9, 39, 77
1, 162239, Note_on_c, 9, 36, 0
1, 162239, Note_on_c, 9, 46, 0
1, 162239, Note_on_c, 9, 39, 0
1, 162240, Note_on_c, 9, 46, 118
1, 162240, Note_on_c, 9, 36, 127
1, 162479, Note_on_c, 9, 46, 0
1, 162480, Note_on_c, 9, 46, 79
1, 162719, Note_on_c, 9, 36, 0
1, 162719, Note_on_c, 9, 46, 0
1, 162720, Note_on_c, 9, 40, 127
1, 162720, Note_on_c, 9, 46, 116
1, 162720, Note_on_c, 9, 39, 127
1, 162720, Note_on_c, 9, 36, 127
1, 162959, Note_on_c, 9, 40, 0
1, 162959, Note_on_c, 9, 46, 0
1, 162959, Note_on_c, 9, 39, 0
1, 162960, Note_on_c, 9, 46, 86
1, 162960, Note_on_c, 9, 39, 84
1, 163199, Note_on_c, 9, 36, 0
1, 163199, Note_on_c, 9, 46, 0
1, 163199, Note_on_c, 9, 39, 0
1, 163200, Note_on_c, 9, 46, 114
1, 163200, Note_on_c, 9, 36, 127
1, 163439, Note_on_c, 9, 46, 0
1, 163440, Note_on_c, 9, 46, 82
1, 163679, Note_on_c, 9, 36, 0
1, 163679, Note_on_c, 9, 46, 0
1, 163680, Note_on_c, 9, 40, 127
1, 163680, Note_on_c, 9, 46, 118
1, 163680, Note_on_c, 9, 39, 127
1, 163680, Note_on_c, 9, 36, 127
1, 163919, Note_on_c, 9, 40, 0
1, 163919, Note_on_c, 9, 46, 0
1, 163919, Note_on_c, 9, 39, 0
1, 163920, Note_on_c, 9, 46, 81
1, 163920, Note_on_c, 9, 39, 95
1, 164159, Note_on_c, 9, 36, 0
1, 164159, Note_on_c, 9, 46, 0
1, 164159, Note_on_c, 9, 39, 0
1, 164160, Note_on_c, 9, 46, 110
1, 164160, Note_on_c, 9, 36, 127
1, 164399, Note_on_c, 9, 46, 0
1, 164400, Note_on_c, 9, 46, 79
1, 164400, Note_on_c, 9, 39, 64
1, 164639, Note_on_c, 9, 36, 0
1, 164639, Note_on_c, 9, 46, 0
1, 164639, Note_on_c, 9, 39, 0
1, 164640, Note_on_c, 9, 40, 127
1, 164640, Note_on_c, 9, 46, 115
1, 164640, Note_on_c, 9, 39, 127
1, 164640, Note_on_c, 9, 36, 127
1, 164879, Note_on_c, 9, 40, 0
1, 164879, Note_on_c, 9, 46, 0
1, 164879, Note_on_c, 9, 39, 0
1, 164880, Note_on_c, 9, 46, 70
1, 164880, Note_on_c, 9, 39, 95
1, 165119, Note_on_c, 9, 36, 0
1, 165119, Note_on_c, 9, 46, 0
1, 165119, Note_on_c, 9, 39, 0
1, 165120, Note_on_c, 9, 46, 115
1, 165120, Note_on_c, 9, 36, 127
1, 165359, Note_on_c, 9, 46, 0
1, 165360, Note_on_c, 9, 46, 86
1, 165599, Note_on_c, 9, 36, 0
1, 165599, Note_on_c, 9, 46, 0
1, 165600, Note_on_c, 9, 40, 127
1, 165600, Note_on_c, 9, 46, 119
1, 165600, Note_on_c, 9, 39, 127
1, 165600, Note_on_c, 9, 36, 127
1, 165839, Note_on_c, 9, 40, 0
1, 165839, Note_on_c, 9, 46, 0
1, 165839, Note_on_c, 9, 39, 0
1, 165840, Note_on_c, 9, 46, 84
1, 165840, Note_on_c, 9, 39, 87
1, 166079, Note_on_c, 9, 36, 0
1, 166079, Note_on_c, 9, 46, 0
1, 166079, Note_on_c, 9, 39, 0
1, 166080, Note_on_c, 9, 46, 115
1, 166080, Note_on_c, 9, 36, 127
1, 166319, Note_on_c, 9, 46, 0
1, 166320, Note_on_c, 9, 46, 82
1, 166559, Note_on_c, 9, 36, 0
1, 166559, Note_on_c, 9, 46, 0
1, 166560, Note_on_c, 9, 40, 127
1, 166560, Note_on_c, 9, 46, 121
1, 166560, Note_on_c, 9, 39, 127
1, 166560, Note_on_c, 9, 36, 127
1, 166799, Note_on_c, 9, 40, 0
1, 166799, Note_on_c, 9, 46, 0
1, 166799, Note_on_c, 9, 39, 0
1, 166800, Note_on_c, 9, 46, 89
1, 166800, Note_on_c, 9, 39, 75
1, 167039, Note_on_c, 9, 36, 0
1, 167039, Note_on_c, 9, 46, 0
1, 167039, Note_on_c, 9, 39, 0
1, 167040, Note_on_c, 9, 46, 103
1, 167040, Note_on_c, 9, 36, 127
1, 167279, Note_on_c, 9, 46, 0
1, 167280, Note_on_c, 9, 46, 88
1, 167519, Note_on_c, 9, 36, 0
1, 167519, Note_on_c, 9, 46, 0
1, 167520, Note_on_c, 9, 40, 127
1, 167520, Note_on_c, 9, 46, 114
1, 167520, Note_on_c, 9, 39, 127
1, 167520, Note_on_c, 9, 36, 127
1, 167759, Note_on_c, 9, 40, 0
1, 167759, Note_on_c, 9, 46, 0
1, 167759, Note_on_c, 9, 39, 0
1, 167760, Note_on_c, 9, 46, 85
1, 167760, Note_on_c, 9, 39, 76
1, 167999, Note_on_c, 9, 36, 0
1, 167999, Note_on_c, 9, 46, 0
1, 167999, Note_on_c, 9, 39, 0
1, 168000, Note_on_c, 9, 46, 104
1, 168000, Note_on_c, 9, 36, 127
1, 168239, Note_on_c, 9, 46, 0
1, 168240, Note_on_c, 9, 40, 105
1, 168240, Note_on_c, 9, 46, 96
1, 168479, Note_on_c, 9, 36, 0
1, 168479, Note_on_c, 9, 40, 0
1, 168479, Note_on_c, 9, 46, 0
1, 168480, Note_on_c, 9, 40, 127
1, 168480, Note_on_c, 9, 46, 126
1, 168480, Note_on_c, 9, 39, 127
1, 168480, Note_on_c, 9, 36, 127
1, 168719, Note_on_c, 9, 40, 0
1, 168719, Note_on_c, 9, 46, 0
1, 168719, Note_on_c, 9, 39, 0
1, 168719, Note_on_c, 9, 36, 0
1, 168720, Note_on_c, 9, 39, 83
1, 168720, Note_on_c, 9, 36, 110
1, 168959, Note_on_c, 9, 39, 0
1, 168959, Note_on_c, 9, 36, 0
1, 168960, Note_on_c, 9, 46, 116
1, 168960, Note_on_c, 9, 36, 127
1, 169199, Note_on_c, 9, 46, 0
1, 169200, Note_on_c, 9, 46, 72
1, 169439, Note_on_c, 9, 36, 0
1, 169439, Note_on_c, 9, 46, 0
1, 169440, Note_on_c, 9, 40, 127
1, 169440, Note_on_c, 9, 46, 121
1, 169440, Note_on_c, 9, 39, 127
1, 169440, Note_on_c, 9, 36, 127
1, 169679, Note_on_c, 9, 40, 0
1, 169679, Note_on_c, 9, 46, 0
1, 169679, Note_on_c, 9, 39, 0
1, 169680, Note_on_c, 9, 46, 81
1, 169680, Note_on_c, 9, 39, 77
1, 169919, Note_on_c, 9, 36, 0
1, 169919, Note_on_c, 9, 46, 0
1, 169919, Note_on_c, 9, 39, 0
1, 169920, Note_on_c, 9, 46, 118
1, 169920, Note_on_c, 9, 36, 127
1, 170159, Note_on_c, 9, 46, 0
1, 170160, Note_on_c, 9, 46, 79
1, 170399, Note_on_c, 9, 36, 0
1, 170399, Note_on_c, 9, 46, 0
1, 170400, Note_on_c, 9, 40, 127
1, 170400, Note_on_c, 9, 46, 116
1, 170400, Note_on_c, 9, 39, 127
1, 170400, Note_on_c, 9, 36, 127
1, 170639, Note_on_c, 9, 40, 0
1, 170639, Note_on_c, 9, 46, 0
1, 170639, Note_on_c, 9, 39, 0
1, 170640, Note_on_c, 9, 46, 86
1, 170640, Note_on_c, 9, 39, 84
1, 170879, Note_on_c, 9, 36, 0
1, 170879, Note_on_c, 9, 46, 0
1, 170879, Note_on_c, 9, 39, 0
1, 170880, Note_on_c, 9, 46, 114
1, 170880, Note_on_c, 9, 36, 127
1, 171119, Note_on_c, 9, 46, 0
1, 171120, Note_on_c, 9, 46, 82
1, 171359, Note_on_c, 9, 36, 0
1, 171359, Note_on_c, 9, 46, 0
1, 171360, Note_on_c, 9, 40, 127
1, 171360, Note_on_c, 9, 46, 118
1, 171360, Note_on_c, 9, 39, 127
1, 171360, Note_on_c, 9, 36, 127
1, 171599, Note_on_c, 9, 40, 0
1, 171599, Note_on_c, 9, 46, 0
1, 171599, Note_on_c, 9, 39, 0
1, 171600, Note_on_c, 9, 46, 81
1, 171600, Note_on_c, 9, 39, 95
1, 171839, Note_on_c, 9, 36, 0
1, 171839, Note_on_c, 9, 46, 0
1, 171839, Note_on_c, 9, 39, 0
1, 171840, Note_on_c, 9, 46, 110
1, 171840, Note_on_c, 9, 36, 127
1, 172079, Note_on_c, 9, 46, 0
1, 172080, Note_on_c, 9, 46, 79
1, 172080, Note_on_c, 9, 39, 64
1, 172319, Note_on_c, 9, 36, 0
1, 172319, Note_on_c, 9, 46, 0
1, 172319, Note_on_c, 9, 39, 0
1, 172320, Note_on_c, 9, 40, 127
1, 172320, Note_on_c, 9, 46, 115
1, 172320, Note_on_c, 9, 39, 127
1, 172320, Note_on_c, 9, 36, 127
1, 172559, Note_on_c, 9, 40, 0
1, 172559, Note_on_c, 9, 46, 0
1, 172559, Note_on_c, 9, 39, 0
1, 172560, Note_on_c, 9, 46, 70
1, 172560, Note_on_c, 9, 39, 95
1, 172799, Note_on_c, 9, 36, 0
1, 172799, Note_on_c, 9, 46, 0
1, 172799, Note_on_c, 9, 39, 0
1, 172800, Note_on_c, 9, 46, 115
1, 172800, Note_on_c, 9, 36, 127
1, 173039, Note_on_c, 9, 46, 0
1, 173040, Note_on_c, 9, 46, 86
1, 173279, Note_on_c, 9, 36, 0
1, 173279, Note_on_c, 9, 46, 0
1, 173280, Note_on_c, 9, 40, 127
1, 173280, Note_on_c, 9, 46, 119
1, 173280, Note_on_c, 9, 39, 127
1, 173280, Note_on_c, 9, 36, 127
1, 173519, Note_on_c, 9, 40, 0
1, 173519, Note_on_c, 9, 46, 0
1, 173519, Note_on_c, 9, 39, 0
1, 173520, Note_on_c, 9, 46, 84
1, 173520, Note_on_c, 9, 39, 87
1, 173759, Note_on_c, 9, 36, 0
1, 173759, Note_on_c, 9, 46, 0
1, 173759, Note_on_c, 9, 39, 0
1, 173760, Note_on_c, 9, 46, 115
1, 173760, Note_on_c, 9, 36, 127
1, 173999, Note_on_c, 9, 46, 0
1, 174000, Note_on_c, 9, 46, 82
1, 174239, Note_on_c, 9, 36, 0
1, 174239, Note_on_c, 9, 46, 0
1, 174240, Note_on_c, 9, 40, 127
1, 174240, Note_on_c, 9, 46, 121
1, 174240, Note_on_c, 9, 39, 127
1, 174240, Note_on_c, 9, 36, 127
1, 174479, Note_on_c, 9, 40, 0
1, 174479, Note_on_c, 9, 46, 0
1, 174479, Note_on_c, 9, 39, 0
1, 174480, Note_on_c, 9, 46, 89
1, 174480, Note_on_c, 9, 39, 75
1, 174719, Note_on_c, 9, 36, 0
1, 174719, Note_on_c, 9, 46, 0
1, 174719, Note_on_c, 9, 39, 0
1, 174720, Note_on_c, 9, 46, 103
1, 174720, Note_on_c, 9, 36, 127
1, 174959, Note_on_c, 9, 46, 0
1, 174960, Note_on_c, 9, 46, 88
1, 175199, Note_on_c, 9, 36, 0
1, 175199, Note_on_c, 9, 46, 0
1, 175200, Note_on_c, 9, 40, 127
1, 175200, Note_on_c, 9, 46, 114
1, 175200, Note_on_c, 9, 39, 127
1, 175200, Note_on_c, 9, 36, 127
1, 175439, Note_on_c, 9, 40, 0
1, 175439, Note_on_c, 9, 46, 0
1, 175439, Note_on_c, 9, 39, 0
1, 175440, Note_on_c, 9, 46, 85
1, 175440, Note_on_c, 9, 39, 76
1, 175679, Note_on_c, 9, 36, 0
1, 175679, Note_on_c, 9, 46, 0
1, 175679, Note_on_c, 9, 39, 0
1, 175680, Note_on_c, 9, 46, 104
1, 175680, Note_on_c, 9, 36, 127
1, 175919, Note_on_c, 9, 46, 0
1, 175920, Note_on_c, 9, 40, 105
1, 175920, Note_on_c, 9, 46, 96
1, 176159, Note_on_c, 9, 36, 0
1, 176159, Note_on_c, 9, 40, 0
1, 176159, Note_on_c, 9, 46, 0
1, 176160, Note_on_c, 9, 40, 127
1, 176160, Note_on_c, 9, 46, 126
1, 176160, Note_on_c, 9, 39, 127
1, 176160, Note_on_c, 9, 36, 127
1, 176399, Note_on_c, 9, 40, 0
1, 176399, Note_on_c, 9, 46, 0
1, 176399, Note_on_c, 9, 39, 0
1, 176399, Note_on_c, 9, 36, 0
1, 176400, Note_on_c, 9, 39, 83
1, 176400, Note_on_c, 9, 36, 110
1, 176639, Note_on_c, 9, 39, 0
1, 176639, Note_on_c, 9, 36, 0
1, 176640, Note_on_c, 9, 46, 116
1, 176640, Note_on_c, 9, 36, 127
1, 176879, Note_on_c, 9, 46, 0
1, 176880, Note_on_c, 9, 46, 72
1, 177119, Note_on_c, 9, 36, 0
1, 177119, Note_on_c, 9, 46, 0
1, 177120, Note_on_c, 9, 40, 127
1, 177120, Note_on_c, 9, 46, 121
1, 177120, Note_on_c, 9, 39, 127
1, 177120, Note_on_c, 9, 36, 127
1, 177359, Note_on_c, 9, 40, 0
1, 177359, Note_on_c, 9, 46, 0
1, 177359, Note_on_c, 9, 39, 0
1, 177360, Note_on_c, 9, 46, 81
1, 177360, Note_on_c, 9, 39, 77
1, 177599, Note_on_c, 9, 36, 0
1, 177599, Note_on_c, 9, 46, 0
1, 177599, Note_on_c, 9, 39, 0
1, 177600, Note_on_c, 9, 46, 118
1, 177600, Note_on_c, 9, 36, 127
1, 177839, Note_on_c, 9, 46, 0
1, 177840, Note_on_c, 9, 46, 79
1, 178079, Note_on_c, 9, 36, 0
1, 178079, Note_on_c, 9, 46, 0
1, 178080, Note_on_c, 9, 40, 127
1, 178080, Note_on_c, 9, 46, 116
1, 178080, Note_on_c, 9, 39, 127
1, 178080, Note_on_c, 9, 36, 127
1, 178319, Note_on_c, 9, 40, 0
1, 178319, Note_on_c, 9, 46, 0
1, 178319, Note_on_c, 9, 39, 0
1, 178320, Note_on_c, 9, 46, 86
1, 178320, Note_on_c, 9, 39, 84
1, 178559, Note_on_c, 9, 36, 0
1, 178559, Note_on_c, 9, 46, 0
1, 178559, Note_on_c, 9, 39, 0
1, 178560, Note_on_c, 9, 46, 114
1, 178560, Note_on_c, 9, 36, 127
1, 178799, Note_on_c, 9, 46, 0
1, 178800, Note_on_c, 9, 46, 82
1, 179039, Note_on_c, 9, 36, 0
1, 179039, Note_on_c, 9, 46, 0
1, 179040, Note_on_c, 9, 40, 127
1, 179040, Note_on_c, 9, 46, 118
1, 179040, Note_on_c, 9, 39, 127
1, 179040, Note_on_c, 9, 36, 127
1, 179279, Note_on_c, 9, 40, 0
1, 179279, Note_on_c, 9, 46, 0
1, 179279, Note_on_c, 9, 39, 0
1, 179280, Note_on_c, 9, 46, 81
1, 179280, Note_on_c, 9, 39, 95
1, 179519, Note_on_c, 9, 36, 0
1, 179519, Note_on_c, 9, 46, 0
1, 179519, Note_on_c, 9, 39, 0
1, 179520, Note_on_c, 9, 46, 110
1, 179520, Note_on_c, 9, 36, 127
1, 179759, Note_on_c, 9, 46, 0
1, 179760, Note_on_c, 9, 46, 79
1, 179760, Note_on_c, 9, 39, 64
1, 179999, Note_on_c, 9, 36, 0
1, 179999, Note_on_c, 9, 46, 0
1, 179999, Note_on_c, 9, 39, 0
1, 180000, Note_on_c, 9, 40, 127
1, 180000, Note_on_c, 9, 46, 115
1, 180000, Note_on_c, 9, 39, 127
1, 180000, Note_on_c, 9, 36, 127
1, 180239, Note_on_c, 9, 40, 0
1, 180239, Note_on_c, 9, 46, 0
1, 180239, Note_on_c, 9, 39, 0
1, 180240, Note_on_c, 9, 46, 70
1, 180240, Note_on_c, 9, 39, 95
1, 180479, Note_on_c, 9, 36, 0
1, 180479, Note_on_c, 9, 46, 0
1, 180479, Note_on_c, 9, 39, 0
1, 180480, Note_on_c, 9, 46, 115
1, 180480, Note_on_c, 9, 36, 127
1, 180719, Note_on_c, 9, 46, 0
1, 180720, Note_on_c, 9, 46, 86
1, 180959, Note_on_c, 9, 36, 0
1, 180959, Note_on_c, 9, 46, 0
1, 180960, Note_on_c, 9, 40, 127
1, 180960, Note_on_c, 9, 46, 119
1, 180960, Note_on_c, 9, 39, 127
1, 180960, Note_on_c, 9, 36, 127
1, 181199, Note_on_c, 9, 40, 0
1, 181199, Note_on_c, 9, 46, 0
1, 181199, Note_on_c, 9, 39, 0
1, 181200, Note_on_c, 9, 46, 84
1, 181200, Note_on_c, 9, 39, 87
1, 181439, Note_on_c, 9, 36, 0
1, 181439, Note_on_c, 9, 46, 0
1, 181439, Note_on_c, 9, 39, 0
1, 181440, Note_on_c, 9, 46, 115
1, 181440, Note_on_c, 9, 36, 127
1, 181679, Note_on_c, 9, 46, 0
1, 181680, Note_on_c, 9, 46, 82
1, 181919, Note_on_c, 9, 36, 0
1, 181919, Note_on_c, 9, 46, 0
1, 181920, Note_on_c, 9, 40, 127
1, 181920, Note_on_c, 9, 46, 121
1, 181920, Note_on_c, 9, 39, 127
1, 181920, Note_on_c, 9, 36, 127
1, 182159, Note_on_c, 9, 40, 0
1, 182159, Note_on_c, 9, 46, 0
1, 182159, Note_on_c, 9, 39, 0
1, 182160, Note_on_c, 9, 46, 89
1, 182160, Note_on_c, 9, 39, 75
1, 182399, Note_on_c, 9, 36, 0
1, 182399, Note_on_c, 9, 46, 0
1, 182399, Note_on_c, 9, 39, 0
1, 182400, Note_on_c, 9, 46, 103
1, 182400, Note_on_c, 9, 36, 127
1, 182639, Note_on_c, 9, 46, 0
1, 182640, Note_on_c, 9, 46, 88
1, 182879, Note_on_c, 9, 36, 0
1, 182879, Note_on_c, 9, 46, 0
1, 182880, Note_on_c, 9, 40, 127
1, 182880, Note_on_c, 9, 46, 114
1, 182880, Note_on_c, 9, 39, 127
1, 182880, Note_on_c, 9, 36, 127
1, 183119, Note_on_c, 9, 40, 0
1, 183119, Note_on_c, 9, 46, 0
1, 183119, Note_on_c, 9, 39, 0
1, 183120, Note_on_c, 9, 46, 85
1, 183120, Note_on_c, 9, 39, 76
1, 183359, Note_on_c, 9, 36, 0
1, 183359, Note_on_c, 9, 46, 0
1, 183359, Note_on_c, 9, 39, 0
1, 183360, Note_on_c, 9, 46, 104
1, 183360, Note_on_c, 9, 36, 127
1, 183599, Note_on_c, 9, 46, 0
1, 183600, Note_on_c, 9, 40, 105
1, 183600, Note_on_c, 9, 46, 96
1, 183839, Note_on_c, 9, 36, 0
1, 183839, Note_on_c, 9, 40, 0
1, 183839, Note_on_c, 9, 46, 0
1, 183840, Note_on_c, 9, 40, 127
1, 183840, Note_on_c, 9, 46, 126
1, 183840, Note_on_c, 9, 39, 127
1, 183840, Note_on_c, 9, 36, 127
1, 184079, Note_on_c, 9, 40, 0
1, 184079, Note_on_c, 9, 46, 0
1, 184079, Note_on_c, 9, 39, 0
1, 184079, Note_on_c, 9, 36, 0
1, 184080, Note_on_c, 9, 39, 83
1, 184080, Note_on_c, 9, 36, 110
1, 184319, Note_on_c, 9, 39, 0
1, 184319, Note_on_c, 9, 36, 0
1, 184320, Note_on_c, 9, 46, 116
1, 184320, Note_on_c, 9, 36, 127
1, 184559, Note_on_c, 9, 46, 0
1, 184560, Note_on_c, 9, 46, 72
1, 184799, Note_on_c, 9, 36, 0
1, 184799, Note_on_c, 9, 46, 0
1, 184800, Note_on_c, 9, 40, 127
1, 184800, Note_on_c, 9, 46, 121
1, 184800, Note_on_c, 9, 39, 127
1, 184800, Note_on_c, 9, 36, 127
1, 185039, Note_on_c, 9, 40, 0
1, 185039, Note_on_c, 9, 46, 0
1, 185039, Note_on_c, 9, 39, 0
1, 185040, Note_on_c, 9, 46, 81
1, 185040, Note_on_c, 9, 39, 77
1, 185279, Note_on_c, 9, 36, 0
1, 185279, Note_on_c, 9, 46, 0
1, 185279, Note_on_c, 9, 39, 0
1, 185280, Note_on_c, 9, 46, 118
1, 185280, Note_on_c, 9, 36, 127
1, 185519, Note_on_c, 9, 46, 0
1, 185520, Note_on_c, 9, 46, 79
1, 185759, Note_on_c, 9, 36, 0
1, 185759, Note_on_c, 9, 46, 0
1, 185760, Note_on_c, 9, 40, 127
1, 185760, Note_on_c, 9, 46, 116
1, 185760, Note_on_c, 9, 39, 127
1, 185760, Note_on_c, 9, 36, 127
1, 185999, Note_on_c, 9, 40, 0
1, 185999, Note_on_c, 9, 46, 0
1, 185999, Note_on_c, 9, 39, 0
1, 186000, Note_on_c, 9, 46, 86
1, 186000, Note_on_c, 9, 39, 84
1, 186239, Note_on_c, 9, 36, 0
1, 186239, Note_on_c, 9, 46, 0
1, 186239, Note_on_c, 9, 39, 0
1, 186240, Note_on_c, 9, 46, 114
1, 186240, Note_on_c, 9, 36, 127
1, 186479, Note_on_c, 9, 46, 0
1, 186480, Note_on_c, 9, 46, 82
1, 186719, Note_on_c, 9, 36, 0
1, 186719, Note_on_c, 9, 46, 0
1, 186720, Note_on_c, 9, 40, 127
1, 186720, Note_on_c, 9, 46, 118
1, 186720, Note_on_c, 9, 39, 127
1, 186720, Note_on_c, 9, 36, 127
1, 186959, Note_on_c, 9, 40, 0
1, 186959, Note_on_c, 9, 46, 0
1, 186959, Note_on_c, 9, 39, 0
1, 186960, Note_on_c, 9, 46, 81
1, 186960, Note_on_c, 9, 39, 95
1, 187199, Note_on_c, 9, 36, 0
1, 187199, Note_on_c, 9, 46, 0
1, 187199, Note_on_c, 9, 39, 0
1, 187200, Note_on_c, 9, 46, 110
1, 187200, Note_on_c, 9, 36, 127
1, 187439, Note_on_c, 9, 46, 0
1, 187440, Note_on_c, 9, 46, 79
1, 187440, Note_on_c, 9, 39, 64
1, 187679, Note_on_c, 9, 36, 0
1, 187679, Note_on_c, 9, 46, 0
1, 187679, Note_on_c, 9, 39, 0
1, 187680, Note_on_c, 9, 40, 127
1, 187680, Note_on_c, 9, 46, 115
1, 187680, Note_on_c, 9, 39, 127
1, 187680, Note_on_c, 9, 36, 127
1, 187919, Note_on_c, 9, 40, 0
1, 187919, Note_on_c, 9, 46, 0
1, 187919, Note_on_c, 9, 39, 0
1, 187920, Note_on_c, 9, 46, 70
1, 187920, Note_on_c, 9, 39, 95
1, 188159, Note_on_c, 9, 36, 0
1, 188159, Note_on_c, 9, 46, 0
1, 188159, Note_on_c, 9, 39, 0
1, 188160, Note_on_c, 9, 46, 115
1, 188160, Note_on_c, 9, 36, 127
1, 188399, Note_on_c, 9, 46, 0
1, 188400, Note_on_c, 9, 46, 86
1, 188639, Note_on_c, 9, 36, 0
1, 188639, Note_on_c, 9, 46, 0
1, 188640, Note_on_c, 9, 40, 127
1, 188640, Note_on_c, 9, 46, 119
1, 188640, Note_on_c, 9, 39, 127
1, 188640, Note_on_c, 9, 36, 127
1, 188879, Note_on_c, 9, 40, 0
1, 188879, Note_on_c, 9, 46, 0
1, 188879, Note_on_c, 9, 39, 0
1, 188880, Note_on_c, 9, 46, 84
1, 188880, Note_on_c, 9, 39, 87
1, 189119, Note_on_c, 9, 36, 0
1, 189119, Note_on_c, 9, 46, 0
1, 189119, Note_on_c, 9, 39, 0
1, 189120, Note_on_c, 9, 46, 115
1, 189120, Note_on_c, 9, 36, 127
1, 189359, Note_on_c, 9, 46, 0
1, 189360, Note_on_c, 9, 46, 82
1, 189599, Note_on_c, 9, 36, 0
1, 189599, Note_on_c, 9, 46, 0
1, 189600, Note_on_c, 9, 40, 127
1, 189600, Note_on_c, 9, 46, 121
1, 189600, Note_on_c, 9, 39, 127
1, 189600, Note_on_c, 9, 36, 127
1, 189839, Note_on_c, 9, 40, 0
1, 189839, Note_on_c, 9, 46, 0
1, 189839, Note_on_c, 9, 39, 0
1, 189840, Note_on_c, 9, 46, 89
1, 189840, Note_on_c, 9, 39, 75
1, 190079, Note_on_c, 9, 36, 0
1, 190079, Note_on_c, 9, 46, 0
1, 190079, Note_on_c, 9, 39, 0
1, 190080, Note_on_c, 9, 49, 118
1, 190080, Note_on_c, 9, 36, 127
1, 190319, Note_on_c, 9, 49, 0
1, 190319, Note_on_c, 9, 36, 0
1, 190400, Note_on_c, 9, 49, 116
1, 190400, Note_on_c, 9, 36, 127
1, 190439, Note_on_c, 9, 49, 0
1, 190439, Note_on_c, 9, 36, 0
1, 190720, Note_on_c, 9, 49, 99
1, 190720, Note_on_c, 9, 36, 127
1, 190739, Note_on_c, 9, 49, 0
1, 190739, Note_on_c, 9, 36, 0
1, 191040, Note_on_c, 9, 49, 114
1, 191040, Note_on_c, 9, 36, 127
1, 191519, Note_on_c, 9, 49, 0
1, 191519, Note_on_c, 9, 36, 0
1, 191520, Note_on_c, 9, 41, 127
1, 191520, Note_on_c, 9, 40, 127
1, 191999, Note_on_c, 9, 41, 0
1, 191999, Note_on_c, 9, 40, 0
1, 192000, Note_on_c, 9, 49, 108
1, 192000, Note_on_c, 9, 36, 127
1, 192479, Note_on_c, 9, 49, 0
1, 192479, Note_on_c, 9, 36, 0
1, 192480, Note_on_c, 9, 40, 99
1, 192480, Note_on_c, 9, 36, 127
1, 192719, Note_on_c, 9, 40, 0
1, 192720, Note_on_c, 9, 40, 82
1, 192839, Note_on_c, 9, 40, 0
1, 192840, Note_on_c, 9, 40, 102
1, 192959, Note_on_c, 9, 36, 0
1, 192959, Note_on_c, 9, 40, 0
1, 192960, Note_on_c, 9, 40, 127
1, 192960, Note_on_c, 9, 36, 127
1, 193199, Note_on_c, 9, 40, 0
1, 193200, Note_on_c, 9, 40, 85
1, 193319, Note_on_c, 9, 40, 0
1, 193320, Note_on_c, 9, 40, 90
1, 193439, Note_on_c, 9, 36, 0
1, 193439, Note_on_c, 9, 40, 0
1, 193440, Note_on_c, 9, 40, 127
1, 193440, Note_on_c, 9, 36, 127
1, 193679, Note_on_c, 9, 40, 0
1, 193680, Note_on_c, 9, 40, 89
1, 193799, Note_on_c, 9, 40, 0
1, 193800, Note_on_c, 9, 40, 94
1, 193919, Note_on_c, 9, 36, 0
1, 193919, Note_on_c, 9, 40, 0
1, 193920, Note_on_c, 9, 40, 127
1, 193920, Note_on_c, 9, 36, 127
1, 194159, Note_on_c, 9, 40, 0
1, 194160, Note_on_c, 9, 40, 92
1, 194279, Note_on_c, 9, 40, 0
1, 194280, Note_on_c, 9, 40, 95
1, 194399, Note_on_c, 9, 36, 0
1, 194399, Note_on_c, 9, 40, 0
1, 194400, Note_on_c, 9, 40, 127
1, 194400, Note_on_c, 9, 36, 127
1, 194639, Note_on_c, 9, 40, 0
1, 194640, Note_on_c, 9, 40, 85
1, 194759, Note_on_c, 9, 40, 0
1, 194760, Note_on_c, 9, 40, 89
1, 194879, Note_on_c, 9, 36, 0
1, 194879, Note_on_c, 9, 40, 0
1, 194880, Note_on_c, 9, 40, 127
1, 194880, Note_on_c, 9, 36, 127
1, 195119, Note_on_c, 9, 40, 0
1, 195120, Note_on_c, 9, 40, 82
1, 195239, Note_on_c, 9, 40, 0
1, 195240, Note_on_c, 9, 40, 83
1, 195359, Note_on_c, 9, 36, 0
1, 195359, Note_on_c, 9, 40, 0
1, 195360, Note_on_c, 9, 40, 127
1, 195360, Note_on_c, 9, 36, 127
1, 195599, Note_on_c, 9, 40, 0
1, 195600, Note_on_c, 9, 40, 89
1, 195719, Note_on_c, 9, 40, 0
1, 195720, Note_on_c, 9, 40, 66
1, 195839, Note_on_c, 9, 36, 0
1, 195839, Note_on_c, 9, 40, 0
1, 195840, Note_on_c, 9, 40, 127
1, 195840, Note_on_c, 9, 36, 127
1, 196079, Note_on_c, 9, 40, 0
1, 196080, Note_on_c, 9, 40, 87
1, 196199, Note_on_c, 9, 40, 0
1, 196200, Note_on_c, 9, 40, 84
1, 196319, Note_on_c, 9, 36, 0
1, 196319, Note_on_c, 9, 40, 0
1, 196320, Note_on_c, 9, 40, 127
1, 196320, Note_on_c, 9, 36, 127
1, 196559, Note_on_c, 9, 40, 0
1, 196560, Note_on_c, 9, 40, 90
1, 196679, Note_on_c, 9, 40, 0
1, 196680, Note_on_c, 9, 40, 73
1, 196799, Note_on_c, 9, 36, 0
1, 196799, Note_on_c, 9, 40, 0
1, 196800, Note_on_c, 9, 40, 127
1, 196800, Note_on_c, 9, 36, 127
1, 197039, Note_on_c, 9, 40, 0
1, 197040, Note_on_c, 9, 40, 91
1, 197159, Note_on_c, 9, 40, 0
1, 197160, Note_on_c, 9, 40, 79
1, 197279, Note_on_c, 9, 36, 0
1, 197279, Note_on_c, 9, 40, 0
1, 197280, Note_on_c, 9, 40, 127
1, 197280, Note_on_c, 9, 36, 127
1, 197519, Note_on_c, 9, 40, 0
1, 197520, Note_on_c, 9, 40, 101
1, 197639, Note_on_c, 9, 40, 0
1, 197640, Note_on_c, 9, 40, 93
1, 197759, Note_on_c, 9, 36, 0
1, 197759, Note_on_c, 9, 40, 0
1, 197760, Note_on_c, 9, 49, 118
1, 197760, Note_on_c, 9, 36, 127
1, 197999, Note_on_c, 9, 49, 0
1, 197999, Note_on_c, 9, 36, 0
1, 198080, Note_on_c, 9, 49, 116
1, 198080, Note_on_c, 9, 36, 127
1, 198119, Note_on_c, 9, 49, 0
1, 198119, Note_on_c, 9, 36, 0
1, 198400, Note_on_c, 9, 49, 99
1, 198400, Note_on_c, 9, 36, 127
1, 198419, Note_on_c, 9, 49, 0
1, 198419, Note_on_c, 9, 36, 0
1, 198720, Note_on_c, 9, 49, 114
1, 198720, Note_on_c, 9, 36, 127
1, 199199, Note_on_c, 9, 49, 0
1, 199199, Note_on_c, 9, 36, 0
1, 199200, Note_on_c, 9, 41, 127
1, 199200, Note_on_c, 9, 40, 127
1, 199679, Note_on_c, 9, 41, 0
1, 199679, Note_on_c, 9, 40, 0
1, 199680, Note_on_c, 9, 49, 108
1, 199680, Note_on_c, 9, 36, 127
1, 200159, Note_on_c, 9, 49, 0
1, 200159, Note_on_c, 9, 36, 0
1, 200160, Note_on_c, 9, 40, 99
1, 200160, Note_on_c, 9, 36, 127
1, 200399, Note_on_c, 9, 40, 0
1, 200400, Note_on_c, 9, 40, 82
1, 200519, Note_on_c, 9, 40, 0
1, 200520, Note_on_c, 9, 40, 102
1, 200639, Note_on_c, 9, 36, 0
1, 200639, Note_on_c, 9, 40, 0
1, 200640, Note_on_c, 9, 40, 127
1, 200640, Note_on_c, 9, 36, 127
1, 200879, Note_on_c, 9, 40, 0
1, 200880, Note_on_c, 9, 40, 85
1, 200999, Note_on_c, 9, 40, 0
1, 201000, Note_on_c, 9, 40, 90
1, 201119, Note_on_c, 9, 36, 0
1, 201119, Note_on_c, 9, 40, 0
1, 201120, Note_on_c, 9, 40, 127
1, 201120, Note_on_c, 9, 36, 127
1, 201359, Note_on_c, 9, 40, 0
1, 201360, Note_on_c, 9, 40, 89
1, 201479, Note_on_c, 9, 40, 0
1, 201480, Note_on_c, 9, 40, 94
1, 201599, Note_on_c, 9, 36, 0
1, 201599, Note_on_c, 9, 40, 0
1, 201600, Note_on_c, 9, 40, 127
1, 201600, Note_on_c, 9, 36, 127
1, 201839, Note_on_c, 9, 40, 0
1, 201840, Note_on_c, 9, 40, 92
1, 201959, Note_on_c, 9, 40, 0
1, 201960, Note_on_c, 9, 40, 95
1, 202079, Note_on_c, 9, 36, 0
1, 202079, Note_on_c, 9, 40, 0
1, 202080, Note_on_c, 9, 40, 127
1, 202080, Note_on_c, 9, 36, 127
1, 202319, Note_on_c, 9, 40, 0
1, 202320, Note_on_c, 9, 40, 85
1, 202439, Note_on_c, 9, 40, 0
1, 202440, Note_on_c, 9, 40, 89
1, 202559, Note_on_c, 9, 36, 0
1, 202559, Note_on_c, 9, 40, 0
1, 202560, Note_on_c, 9, 40, 127
1, 202560, Note_on_c, 9, 36, 127
1, 202799, Note_on_c, 9, 40, 0
1, 202800, Note_on_c, 9, 40, 82
1, 202919, Note_on_c, 9, 40, 0
1, 202920, Note_on_c, 9, 40, 83
1, 203039, Note_on_c, 9, 36, 0
1, 203039, Note_on_c, 9, 40, 0
1, 203040, Note_on_c, 9, 40, 127
1, 203040, Note_on_c, 9, 36, 127
1, 203279, Note_on_c, 9, 40, 0
1, 203280, Note_on_c, 9, 40, 89
1, 203399, Note_on_c, 9, 40, 0
1, 203400, Note_on_c, 9, 40, 66
1, 203519, Note_on_c, 9, 36, 0
1, 203519, Note_on_c, 9, 40, 0
1, 203520, Note_on_c, 9, 40, 127
1, 203520, Note_on_c, 9, 36, 127
1, 203759, Note_on_c, 9, 40, 0
1, 203760, Note_on_c, 9, 40, 87
1, 203879, Note_on_c, 9, 40, 0
1, 203880, Note_on_c, 9, 40, 84
1, 203999, Note_on_c, 9, 36, 0
1, 203999, Note_on_c, 9, 40, 0
1, 204000, Note_on_c, 9, 40, 127
1, 204000, Note_on_c, 9, 36, 127
1, 204239, Note_on_c, 9, 40, 0
1, 204240, Note_on_c, 9, 40, 90
1, 204359, Note_on_c, 9, 40, 0
1, 204360, Note_on_c, 9, 40, 73
1, 204479, Note_on_c, 9, 36, 0
1, 204479, Note_on_c, 9, 40, 0
1, 204480, Note_on_c, 9, 40, 127
1, 204480, Note_on_c, 9, 36, 127
1, 204719, Note_on_c, 9, 40, 0
1, 204720, Note_on_c, 9, 40, 91
1, 204839, Note_on_c, 9, 40, 0
1, 204840, Note_on_c, 9, 40, 79
1, 204959, Note_on_c, 9, 36, 0
1, 204959, Note_on_c, 9, 40, 0
1, 204960, Note_on_c, 9, 40, 127
1, 204960, Note_on_c, 9, 36, 127
1, 205199, Note_on_c, 9, 40, 0
1, 205200, Note_on_c, 9, 40, 101
1, 205319, Note_on_c, 9, 40, 0
1, 205320, Note_on_c, 9, 40, 93
1, 205439, Note_on_c, 9, 36, 0
1, 205439, Note_on_c, 9, 40, 0
1, 205440, Note_on_c, 9, 49, 118
1, 205440, Note_on_c, 9, 36, 127
1, 205679, Note_on_c, 9, 49, 0
1, 205679, Note_on_c, 9, 36, 0
1, 205760, Note_on_c, 9, 49, 116
1, 205760, Note_on_c, 9, 36, 127
1, 205799, Note_on_c, 9, 49, 0
1, 205799, Note_on_c, 9, 36, 0
1, 206080, Note_on_c, 9, 49, 99
1, 206080, Note_on_c, 9, 36, 127
1, 206099, Note_on_c, 9, 49, 0
1, 206099, Note_on_c, 9, 36, 0
1, 206400, Note_on_c, 9, 49, 114
1, 206400, Note_on_c, 9, 36, 127
1, 206879, Note_on_c, 9, 49, 0
1, 206879, Note_on_c, 9, 36, 0
1, 207240, Note_on_c, 9, 49, 81
1, 207240, Note_on_c, 9, 36, 92
1, 207359, Note_on_c, 9, 49, 0
1, 207359, Note_on_c, 9, 36, 0
1, 207440, Note_on_c, 9, 49, 68
1, 207479, Note_on_c, 9, 49, 0
1, 207480, Note_on_c, 9, 36, 86
1, 207599, Note_on_c, 9, 36, 0
1, 207680, Note_on_c, 9, 49, 79
1, 207680, Note_on_c, 9, 36, 99
1, 207719, Note_on_c, 9, 49, 0
1, 207719, Note_on_c, 9, 36, 0
1, 207870, Note_on_c, 9, 36, 110
1, 207885, Note_on_c, 9, 49, 86
1, 208049, Note_on_c, 9, 36, 0
1, 208065, Note_on_c, 9, 36, 121
1, 208079, Note_on_c, 9, 49, 0
1, 208080, Note_on_c, 9, 49, 96
1, 208259, Note_on_c, 9, 36, 0
1, 208259, Note_on_c, 9, 49, 0
1, 208290, Note_on_c, 9, 36, 127
1, 208300, Note_on_c, 9, 49, 121
1, 208319, Note_on_c, 9, 36, 0
1, 208319, Note_on_c, 9, 49, 0
1, 208500, Note_on_c, 9, 49, 112
1, 208500, Note_on_c, 9, 36, 127
1, 208559, Note_on_c, 9, 49, 0
1, 208559, Note_on_c, 9, 36, 0
1, 208695, Note_on_c, 9, 36, 127
1, 208700, Note_on_c, 9, 49, 111
1, 208739, Note_on_c, 9, 36, 0
1, 208739, Note_on_c, 9, 49, 0
1, 208880, Note_on_c, 9, 36, 127
1, 208890, Note_on_c, 9, 49, 112
1, 208919, Note_on_c, 9, 36, 0
1, 209129, Note_on_c, 9, 49, 0
1, 209130, Note_on_c, 9, 49, 127
1, 209130, Note_on_c, 9, 36, 127
1, 209159, Note_on_c, 9, 49, 0
1, 209159, Note_on_c, 9, 36, 0
1, 209400, Note_on_c, 9, 49, 127
1, 209400, Note_on_c, 9, 36, 127
1, 209759, Note_on_c, 9, 49, 0
1, 209759, Note_on_c, 9, 36, 0
1, 211220, Note_on_c, 9, 40, 104
1, 211259, Note_on_c, 9, 40, 0
1, 211300, Note_on_c, 9, 48, 111
1, 211319, Note_on_c, 9, 48, 0
1, 211380, Note_on_c, 9, 45, 114
1, 211439, Note_on_c, 9, 45, 0
1, 211470, Note_on_c, 9, 36, 127
1, 211559, Note_on_c, 9, 36, 0
1, 211560, End_track
2, 0, Start_track
2, 0, Key_signature, 0, "major"
2, 0, Control_c, 9, 121, 0
2, 0, Program_c, 9, 0
2, 0, Control_c, 9, 7, 100
2, 0, Control_c, 9, 10, 64
2, 0, Control_c, 9, 91, 0
2, 0, Control_c, 9, 93, 0
2, 0, MIDI_port, 0
2, 3840, Note_on_c, 9, 54, 110
2, 4319, Note_on_c, 9, 54, 0
2, 4320, Note_on_c, 9, 54, 115
2, 4799, Note_on_c, 9, 54, 0
2, 4800, Note_on_c, 9, 54, 108
2, 5279, Note_on_c, 9, 54, 0
2, 5280, Note_on_c, 9, 54, 108
2, 5759, Note_on_c, 9, 54, 0
2, 5760, Note_on_c, 9, 54, 110
2, 6239, Note_on_c, 9, 54, 0
2, 6240, Note_on_c, 9, 54, 114
2, 6719, Note_on_c, 9, 54, 0
2, 6720, Note_on_c, 9, 54, 114
2, 7199, Note_on_c, 9, 54, 0
2, 7200, Note_on_c, 9, 54, 108
2, 7679, Note_on_c, 9, 54, 0
2, 7680, Note_on_c, 9, 54, 116
2, 8159, Note_on_c, 9, 54, 0
2, 8160, Note_on_c, 9, 54, 109
2, 8639, Note_on_c, 9, 54, 0
2, 8640, Note_on_c, 9, 54, 112
2, 9119, Note_on_c, 9, 54, 0
2, 9120, Note_on_c, 9, 54, 109
2, 9599, Note_on_c, 9, 54, 0
2, 11520, Note_on_c, 9, 54, 116
2, 11999, Note_on_c, 9, 54, 0
2, 12000, Note_on_c, 9, 54, 115
2, 12479, Note_on_c, 9, 54, 0
2, 12480, Note_on_c, 9, 54, 111
2, 12959, Note_on_c, 9, 54, 0
2, 12960, Note_on_c, 9, 54, 119
2, 13439, Note_on_c, 9, 54, 0
2, 13440, Note_on_c, 9, 54, 116
2, 13919, Note_on_c, 9, 54, 0
2, 13920, Note_on_c, 9, 54, 119
2, 14399, Note_on_c, 9, 54, 0
2, 14400, Note_on_c, 9, 54, 116
2, 14879, Note_on_c, 9, 54, 0
2, 14880, Note_on_c, 9, 54, 110
2, 15359, Note_on_c, 9, 54, 0
2, 15360, Note_on_c, 9, 54, 112
2, 15839, Note_on_c, 9, 54, 0
2, 15840, Note_on_c, 9, 54, 112
2, 16319, Note_on_c, 9, 54, 0
2, 16320, Note_on_c, 9, 54, 111
2, 16799, Note_on_c, 9, 54, 0
2, 16800, Note_on_c, 9, 54, 115
2, 17279, Note_on_c, 9, 54, 0
2, 19680, Note_on_c, 9, 54, 127
2, 20159, Note_on_c, 9, 54, 0
2, 20640, Note_on_c, 9, 54, 127
2, 21119, Note_on_c, 9, 54, 0
2, 21600, Note_on_c, 9, 54, 127
2, 22079, Note_on_c, 9, 54, 0
2, 22560, Note_on_c, 9, 54, 124
2, 23039, Note_on_c, 9, 54, 0
2, 23520, Note_on_c, 9, 54, 127
2, 23999, Note_on_c, 9, 54, 0
2, 24480, Note_on_c, 9, 54, 127
2, 24959, Note_on_c, 9, 54, 0
2, 25440, Note_on_c, 9, 54, 127
2, 25919, Note_on_c, 9, 54, 0
2, 26400, Note_on_c, 9, 54, 127
2, 26879, Note_on_c, 9, 54, 0
2, 27360, Note_on_c, 9, 54, 127
2, 27839, Note_on_c, 9, 54, 0
2, 28320, Note_on_c, 9, 54, 127
2, 28799, Note_on_c, 9, 54, 0
2, 29280, Note_on_c, 9, 54, 127
2, 29759, Note_on_c, 9, 54, 0
2, 30240, Note_on_c, 9, 54, 127
2, 30719, Note_on_c, 9, 54, 0
2, 31200, Note_on_c, 9, 54, 127
2, 31679, Note_on_c, 9, 54, 0
2, 32160, Note_on_c, 9, 54, 127
2, 32639, Note_on_c, 9, 54, 0
2, 33120, Note_on_c, 9, 54, 124
2, 33599, Note_on_c, 9, 54, 0
2, 34080, Note_on_c, 9, 54, 127
2, 34559, Note_on_c, 9, 54, 0
2, 35040, Note_on_c, 9, 54, 127
2, 35519, Note_on_c, 9, 54, 0
2, 36000, Note_on_c, 9, 54, 127
2, 36479, Note_on_c, 9, 54, 0
2, 36960, Note_on_c, 9, 54, 127
2, 37439, Note_on_c, 9, 54, 0
2, 37920, Note_on_c, 9, 54, 127
2, 38399, Note_on_c, 9, 54, 0
2, 38880, Note_on_c, 9, 54, 127
2, 39359, Note_on_c, 9, 54, 0
2, 39840, Note_on_c, 9, 54, 127
2, 40319, Note_on_c, 9, 54, 0
2, 40800, Note_on_c, 9, 54, 124
2, 41279, Note_on_c, 9, 54, 0
2, 41760, Note_on_c, 9, 54, 127
2, 42239, Note_on_c, 9, 54, 0
2, 42720, Note_on_c, 9, 54, 119
2, 43199, Note_on_c, 9, 54, 0
2, 43680, Note_on_c, 9, 54, 127
2, 44159, Note_on_c, 9, 54, 0
2, 44640, Note_on_c, 9, 54, 127
2, 45119, Note_on_c, 9, 54, 0
2, 45600, Note_on_c, 9, 54, 127
2, 46079, Note_on_c, 9, 54, 0
2, 46560, Note_on_c, 9, 54, 127
2, 47039, Note_on_c, 9, 54, 0
2, 47520, Note_on_c, 9, 54, 127
2, 47999, Note_on_c, 9, 54, 0
2, 48480, Note_on_c, 9, 54, 127
2, 48959, Note_on_c, 9, 54, 0
2, 49440, Note_on_c, 9, 54, 127
2, 49919, Note_on_c, 9, 54, 0
2, 50400, Note_on_c, 9, 54, 127
2, 50879, Note_on_c, 9, 54, 0
2, 51360, Note_on_c, 9, 54, 127
2, 51839, Note_on_c, 9, 54, 0
2, 52320, Note_on_c, 9, 54, 127
2, 52799, Note_on_c, 9, 54, 0
2, 53280, Note_on_c, 9, 54, 127
2, 53759, Note_on_c, 9, 54, 0
2, 54240, Note_on_c, 9, 54, 126
2, 54719, Note_on_c, 9, 54, 0
2, 55200, Note_on_c, 9, 54, 127
2, 55679, Note_on_c, 9, 54, 0
2, 56160, Note_on_c, 9, 54, 127
2, 56639, Note_on_c, 9, 54, 0
2, 57120, Note_on_c, 9, 54, 127
2, 57599, Note_on_c, 9, 54, 0
2, 58080, Note_on_c, 9, 54, 127
2, 58559, Note_on_c, 9, 54, 0
2, 59040, Note_on_c, 9, 54, 127
2, 59519, Note_on_c, 9, 54, 0
2, 60000, Note_on_c, 9, 54, 127
2, 60479, Note_on_c, 9, 54, 0
2, 60960, Note_on_c, 9, 54, 126
2, 61439, Note_on_c, 9, 54, 0
2, 61920, Note_on_c, 9, 54, 127
2, 62399, Note_on_c, 9, 54, 0
2, 62880, Note_on_c, 9, 54, 127
2, 63359, Note_on_c, 9, 54, 0
2, 63840, Note_on_c, 9, 54, 127
2, 64319, Note_on_c, 9, 54, 0
2, 64800, Note_on_c, 9, 54, 124
2, 65279, Note_on_c, 9, 54, 0
2, 65760, Note_on_c, 9, 54, 127
2, 66239, Note_on_c, 9, 54, 0
2, 66720, Note_on_c, 9, 54, 127
2, 67199, Note_on_c, 9, 54, 0
2, 67680, Note_on_c, 9, 54, 127
2, 68159, Note_on_c, 9, 54, 0
2, 68640, Note_on_c, 9, 54, 127
2, 69119, Note_on_c, 9, 54, 0
2, 69600, Note_on_c, 9, 54, 127
2, 70079, Note_on_c, 9, 54, 0
2, 70560, Note_on_c, 9, 54, 127
2, 71039, Note_on_c, 9, 54, 0
2, 71520, Note_on_c, 9, 54, 127
2, 71999, Note_on_c, 9, 54, 0
2, 72480, Note_on_c, 9, 54, 127
2, 72959, Note_on_c, 9, 54, 0
2, 73440, Note_on_c, 9, 54, 127
2, 73919, Note_on_c, 9, 54, 0
2, 74400, Note_on_c, 9, 54, 127
2, 74879, Note_on_c, 9, 54, 0
2, 75360, Note_on_c, 9, 54, 124
2, 75839, Note_on_c, 9, 54, 0
2, 76320, Note_on_c, 9, 54, 127
2, 76799, Note_on_c, 9, 54, 0
2, 77280, Note_on_c, 9, 54, 127
2, 77759, Note_on_c, 9, 54, 0
2, 78240, Note_on_c, 9, 54, 127
2, 78719, Note_on_c, 9, 54, 0
2, 79200, Note_on_c, 9, 54, 127
2, 79679, Note_on_c, 9, 54, 0
2, 80160, Note_on_c, 9, 54, 127
2, 80639, Note_on_c, 9, 54, 0
2, 81120, Note_on_c, 9, 54, 127
2, 81599, Note_on_c, 9, 54, 0
2, 82080, Note_on_c, 9, 54, 127
2, 82559, Note_on_c, 9, 54, 0
2, 83040, Note_on_c, 9, 54, 124
2, 83519, Note_on_c, 9, 54, 0
2, 84000, Note_on_c, 9, 54, 127
2, 84479, Note_on_c, 9, 54, 0
2, 84960, Note_on_c, 9, 54, 119
2, 85439, Note_on_c, 9, 54, 0
2, 85920, Note_on_c, 9, 54, 127
2, 86399, Note_on_c, 9, 54, 0
2, 86880, Note_on_c, 9, 54, 127
2, 87359, Note_on_c, 9, 54, 0
2, 87840, Note_on_c, 9, 54, 127
2, 88319, Note_on_c, 9, 54, 0
2, 88800, Note_on_c, 9, 54, 127
2, 89279, Note_on_c, 9, 54, 0
2, 89760, Note_on_c, 9, 54, 127
2, 90239, Note_on_c, 9, 54, 0
2, 90720, Note_on_c, 9, 54, 127
2, 91199, Note_on_c, 9, 54, 0
2, 91680, Note_on_c, 9, 54, 127
2, 92159, Note_on_c, 9, 54, 0
2, 92640, Note_on_c, 9, 54, 127
2, 93119, Note_on_c, 9, 54, 0
2, 93600, Note_on_c, 9, 54, 127
2, 94079, Note_on_c, 9, 54, 0
2, 94560, Note_on_c, 9, 54, 127
2, 95039, Note_on_c, 9, 54, 0
2, 95520, Note_on_c, 9, 54, 127
2, 95999, Note_on_c, 9, 54, 0
2, 96480, Note_on_c, 9, 54, 126
2, 96959, Note_on_c, 9, 54, 0
2, 97440, Note_on_c, 9, 54, 127
2, 97919, Note_on_c, 9, 54, 0
2, 98400, Note_on_c, 9, 54, 127
2, 98879, Note_on_c, 9, 54, 0
2, 99360, Note_on_c, 9, 54, 127
2, 99839, Note_on_c, 9, 54, 0
2, 100320, Note_on_c, 9, 54, 127
2, 100799, Note_on_c, 9, 54, 0
2, 101280, Note_on_c, 9, 54, 127
2, 101759, Note_on_c, 9, 54, 0
2, 102240, Note_on_c, 9, 54, 127
2, 102719, Note_on_c, 9, 54, 0
2, 103200, Note_on_c, 9, 54, 126
2, 103679, Note_on_c, 9, 54, 0
2, 104160, Note_on_c, 9, 54, 127
2, 104639, Note_on_c, 9, 54, 0
2, 105120, Note_on_c, 9, 54, 127
2, 105599, Note_on_c, 9, 54, 0
2, 106080, Note_on_c, 9, 54, 127
2, 106559, Note_on_c, 9, 54, 0
2, 107040, Note_on_c, 9, 54, 124
2, 107519, Note_on_c, 9, 54, 0
2, 108000, Note_on_c, 9, 54, 127
2, 108479, Note_on_c, 9, 54, 0
2, 108960, Note_on_c, 9, 54, 127
2, 109439, Note_on_c, 9, 54, 0
2, 109920, Note_on_c, 9, 54, 127
2, 110399, Note_on_c, 9, 54, 0
2, 110880, Note_on_c, 9, 54, 127
2, 111359, Note_on_c, 9, 54, 0
2, 111840, Note_on_c, 9, 54, 127
2, 112319, Note_on_c, 9, 54, 0
2, 112800, Note_on_c, 9, 54, 127
2, 113279, Note_on_c, 9, 54, 0
2, 113760, Note_on_c, 9, 54, 127
2, 114239, Note_on_c, 9, 54, 0
2, 114720, Note_on_c, 9, 54, 127
2, 115199, Note_on_c, 9, 54, 0
2, 115680, Note_on_c, 9, 54, 127
2, 116159, Note_on_c, 9, 54, 0
2, 116640, Note_on_c, 9, 54, 127
2, 117119, Note_on_c, 9, 54, 0
2, 117600, Note_on_c, 9, 54, 124
2, 118079, Note_on_c, 9, 54, 0
2, 118560, Note_on_c, 9, 54, 127
2, 119039, Note_on_c, 9, 54, 0
2, 119520, Note_on_c, 9, 54, 127
2, 119999, Note_on_c, 9, 54, 0
2, 120480, Note_on_c, 9, 54, 127
2, 120959, Note_on_c, 9, 54, 0
2, 121440, Note_on_c, 9, 54, 127
2, 121919, Note_on_c, 9, 54, 0
2, 122400, Note_on_c, 9, 54, 127
2, 122879, Note_on_c, 9, 54, 0
2, 123360, Note_on_c, 9, 54, 127
2, 123839, Note_on_c, 9, 54, 0
2, 124320, Note_on_c, 9, 54, 127
2, 124799, Note_on_c, 9, 54, 0
2, 125280, Note_on_c, 9, 54, 124
2, 125759, Note_on_c, 9, 54, 0
2, 126240, Note_on_c, 9, 54, 127
2, 126719, Note_on_c, 9, 54, 0
2, 126720, Note_on_c, 9, 54, 116
2, 126959, Note_on_c, 9, 54, 0
2, 126960, Note_on_c, 9, 54, 77
2, 127199, Note_on_c, 9, 54, 0
2, 127200, Note_on_c, 9, 54, 124
2, 127439, Note_on_c, 9, 54, 0
2, 127440, Note_on_c, 9, 54, 84
2, 127679, Note_on_c, 9, 54, 0
2, 127680, Note_on_c, 9, 54, 82
2, 127919, Note_on_c, 9, 54, 0
2, 127920, Note_on_c, 9, 54, 87
2, 128159, Note_on_c, 9, 54, 0
2, 128160, Note_on_c, 9, 54, 127
2, 128399, Note_on_c, 9, 54, 0
2, 128400, Note_on_c, 9, 54, 85
2, 128639, Note_on_c, 9, 54, 0
2, 128640, Note_on_c, 9, 54, 81
2, 128879, Note_on_c, 9, 54, 0
2, 128880, Note_on_c, 9, 54, 82
2, 129119, Note_on_c, 9, 54, 0
2, 129120, Note_on_c, 9, 54, 127
2, 129359, Note_on_c, 9, 54, 0
2, 129360, Note_on_c, 9, 54, 95
2, 129599, Note_on_c, 9, 54, 0
2, 129600, Note_on_c, 9, 54, 111
2, 129839, Note_on_c, 9, 54, 0
2, 129840, Note_on_c, 9, 54, 87
2, 130079, Note_on_c, 9, 54, 0
2, 130080, Note_on_c, 9, 54, 127
2, 130319, Note_on_c, 9, 54, 0
2, 130320, Note_on_c, 9, 54, 88
2, 130559, Note_on_c, 9, 54, 0
2, 130560, Note_on_c, 9, 54, 121
2, 130799, Note_on_c, 9, 54, 0
2, 130800, Note_on_c, 9, 54, 86
2, 131039, Note_on_c, 9, 54, 0
2, 131040, Note_on_c, 9, 54, 127
2, 131279, Note_on_c, 9, 54, 0
2, 131280, Note_on_c, 9, 54, 85
2, 131519, Note_on_c, 9, 54, 0
2, 131520, Note_on_c, 9, 54, 127
2, 131759, Note_on_c, 9, 54, 0
2, 131760, Note_on_c, 9, 54, 90
2, 131999, Note_on_c, 9, 54, 0
2, 132000, Note_on_c, 9, 54, 127
2, 132239, Note_on_c, 9, 54, 0
2, 132240, Note_on_c, 9, 54, 92
2, 132479, Note_on_c, 9, 54, 0
2, 132480, Note_on_c, 9, 54, 127
2, 132719, Note_on_c, 9, 54, 0
2, 132720, Note_on_c, 9, 54, 92
2, 132959, Note_on_c, 9, 54, 0
2, 132960, Note_on_c, 9, 54, 127
2, 133199, Note_on_c, 9, 54, 0
2, 133200, Note_on_c, 9, 54, 87
2, 133439, Note_on_c, 9, 54, 0
2, 133440, Note_on_c, 9, 54, 127
2, 133679, Note_on_c, 9, 54, 0
2, 133680, Note_on_c, 9, 54, 92
2, 133919, Note_on_c, 9, 54, 0
2, 133920, Note_on_c, 9, 54, 127
2, 134159, Note_on_c, 9, 54, 0
2, 134160, Note_on_c, 9, 54, 93
2, 134399, Note_on_c, 9, 54, 0
2, 134400, Note_on_c, 9, 54, 116
2, 134639, Note_on_c, 9, 54, 0
2, 134640, Note_on_c, 9, 54, 78
2, 134879, Note_on_c, 9, 54, 0
2, 134880, Note_on_c, 9, 54, 127
2, 135119, Note_on_c, 9, 54, 0
2, 135120, Note_on_c, 9, 54, 86
2, 135359, Note_on_c, 9, 54, 0
2, 135360, Note_on_c, 9, 54, 127
2, 135599, Note_on_c, 9, 54, 0
2, 135600, Note_on_c, 9, 54, 78
2, 135839, Note_on_c, 9, 54, 0
2, 135840, Note_on_c, 9, 54, 127
2, 136079, Note_on_c, 9, 54, 0
2, 136080, Note_on_c, 9, 54, 82
2, 136319, Note_on_c, 9, 54, 0
2, 136320, Note_on_c, 9, 54, 127
2, 136559, Note_on_c, 9, 54, 0
2, 136560, Note_on_c, 9, 54, 84
2, 136799, Note_on_c, 9, 54, 0
2, 136800, Note_on_c, 9, 54, 127
2, 137039, Note_on_c, 9, 54, 0
2, 137040, Note_on_c, 9, 54, 79
2, 137279, Note_on_c, 9, 54, 0
2, 137280, Note_on_c, 9, 54, 127
2, 137519, Note_on_c, 9, 54, 0
2, 137520, Note_on_c, 9, 54, 82
2, 137759, Note_on_c, 9, 54, 0
2, 137760, Note_on_c, 9, 54, 127
2, 137999, Note_on_c, 9, 54, 0
2, 138000, Note_on_c, 9, 54, 90
2, 138239, Note_on_c, 9, 54, 0
2, 138240, Note_on_c, 9, 54, 124
2, 138479, Note_on_c, 9, 54, 0
2, 138480, Note_on_c, 9, 54, 83
2, 138719, Note_on_c, 9, 54, 0
2, 138720, Note_on_c, 9, 54, 127
2, 138959, Note_on_c, 9, 54, 0
2, 138960, Note_on_c, 9, 54, 89
2, 139199, Note_on_c, 9, 54, 0
2, 139200, Note_on_c, 9, 54, 127
2, 139439, Note_on_c, 9, 54, 0
2, 139440, Note_on_c, 9, 54, 90
2, 139679, Note_on_c, 9, 54, 0
2, 139680, Note_on_c, 9, 54, 124
2, 139919, Note_on_c, 9, 54, 0
2, 139920, Note_on_c, 9, 54, 88
2, 140159, Note_on_c, 9, 54, 0
2, 140160, Note_on_c, 9, 54, 127
2, 140399, Note_on_c, 9, 54, 0
2, 140400, Note_on_c, 9, 54, 96
2, 140639, Note_on_c, 9, 54, 0
2, 140640, Note_on_c, 9, 54, 127
2, 140879, Note_on_c, 9, 54, 0
2, 140880, Note_on_c, 9, 54, 103
2, 141119, Note_on_c, 9, 54, 0
2, 141120, Note_on_c, 9, 54, 121
2, 141359, Note_on_c, 9, 54, 0
2, 141360, Note_on_c, 9, 54, 96
2, 141599, Note_on_c, 9, 54, 0
2, 141600, Note_on_c, 9, 54, 121
2, 141839, Note_on_c, 9, 54, 0
2, 141840, Note_on_c, 9, 54, 99
2, 142079, Note_on_c, 9, 54, 0
2, 142080, Note_on_c, 9, 54, 122
2, 142319, Note_on_c, 9, 54, 0
2, 142320, Note_on_c, 9, 54, 97
2, 142559, Note_on_c, 9, 54, 0
2, 142560, Note_on_c, 9, 54, 126
2, 142799, Note_on_c, 9, 54, 0
2, 142800, Note_on_c, 9, 54, 93
2, 143039, Note_on_c, 9, 54, 0
2, 143040, Note_on_c, 9, 54, 119
2, 143279, Note_on_c, 9, 54, 0
2, 143280, Note_on_c, 9, 54, 87
2, 143519, Note_on_c, 9, 54, 0
2, 143520, Note_on_c, 9, 54, 127
2, 143759, Note_on_c, 9, 54, 0
2, 143760, Note_on_c, 9, 54, 97
2, 143999, Note_on_c, 9, 54, 0
2, 144000, Note_on_c, 9, 54, 106
2, 144239, Note_on_c, 9, 54, 0
2, 144240, Note_on_c, 9, 54, 87
2, 144479, Note_on_c, 9, 54, 0
2, 144480, Note_on_c, 9, 54, 127
2, 144719, Note_on_c, 9, 54, 0
2, 144720, Note_on_c, 9, 54, 102
2, 144959, Note_on_c, 9, 54, 0
2, 144960, Note_on_c, 9, 54, 116
2, 145199, Note_on_c, 9, 54, 0
2, 145200, Note_on_c, 9, 54, 92
2, 145439, Note_on_c, 9, 54, 0
2, 145440, Note_on_c, 9, 54, 127
2, 145679, Note_on_c, 9, 54, 0
2, 145680, Note_on_c, 9, 54, 98
2, 145919, Note_on_c, 9, 54, 0
2, 145920, Note_on_c, 9, 54, 110
2, 146399, Note_on_c, 9, 54, 0
2, 146400, Note_on_c, 9, 54, 115
2, 146879, Note_on_c, 9, 54, 0
2, 146880, Note_on_c, 9, 54, 108
2, 147359, Note_on_c, 9, 54, 0
2, 147360, Note_on_c, 9, 54, 108
2, 147839, Note_on_c, 9, 54, 0
2, 147840, Note_on_c, 9, 54, 110
2, 148319, Note_on_c, 9, 54, 0
2, 148320, Note_on_c, 9, 54, 114
2, 148799, Note_on_c, 9, 54, 0
2, 148800, Note_on_c, 9, 54, 114
2, 149279, Note_on_c, 9, 54, 0
2, 149280, Note_on_c, 9, 54, 108
2, 149759, Note_on_c, 9, 54, 0
2, 149760, Note_on_c, 9, 54, 116
2, 150239, Note_on_c, 9, 54, 0
2, 150240, Note_on_c, 9, 54, 109
2, 150719, Note_on_c, 9, 54, 0
2, 150720, Note_on_c, 9, 54, 112
2, 151199, Note_on_c, 9, 54, 0
2, 151200, Note_on_c, 9, 54, 109
2, 151679, Note_on_c, 9, 54, 0
2, 153600, Note_on_c, 9, 54, 116
2, 154079, Note_on_c, 9, 54, 0
2, 154080, Note_on_c, 9, 54, 115
2, 154559, Note_on_c, 9, 54, 0
2, 154560, Note_on_c, 9, 54, 111
2, 155039, Note_on_c, 9, 54, 0
2, 155040, Note_on_c, 9, 54, 119
2, 155519, Note_on_c, 9, 54, 0
2, 155520, Note_on_c, 9, 54, 116
2, 155999, Note_on_c, 9, 54, 0
2, 156000, Note_on_c, 9, 54, 119
2, 156479, Note_on_c, 9, 54, 0
2, 156480, Note_on_c, 9, 54, 116
2, 156959, Note_on_c, 9, 54, 0
2, 156960, Note_on_c, 9, 54, 110
2, 157439, Note_on_c, 9, 54, 0
2, 157440, Note_on_c, 9, 54, 112
2, 157919, Note_on_c, 9, 54, 0
2, 157920, Note_on_c, 9, 54, 112
2, 158399, Note_on_c, 9, 54, 0
2, 158400, Note_on_c, 9, 54, 111
2, 158879, Note_on_c, 9, 54, 0
2, 158880, Note_on_c, 9, 54, 115
2, 159359, Note_on_c, 9, 54, 0
2, 161280, Note_on_c, 9, 54, 124
2, 161519, Note_on_c, 9, 54, 0
2, 161520, Note_on_c, 9, 54, 83
2, 161759, Note_on_c, 9, 54, 0
2, 161760, Note_on_c, 9, 54, 127
2, 161999, Note_on_c, 9, 54, 0
2, 162000, Note_on_c, 9, 54, 89
2, 162239, Note_on_c, 9, 54, 0
2, 162240, Note_on_c, 9, 54, 127
2, 162479, Note_on_c, 9, 54, 0
2, 162480, Note_on_c, 9, 54, 90
2, 162719, Note_on_c, 9, 54, 0
2, 162720, Note_on_c, 9, 54, 124
2, 162959, Note_on_c, 9, 54, 0
2, 162960, Note_on_c, 9, 54, 88
2, 163199, Note_on_c, 9, 54, 0
2, 163200, Note_on_c, 9, 54, 127
2, 163439, Note_on_c, 9, 54, 0
2, 163440, Note_on_c, 9, 54, 96
2, 163679, Note_on_c, 9, 54, 0
2, 163680, Note_on_c, 9, 54, 127
2, 163919, Note_on_c, 9, 54, 0
2, 163920, Note_on_c, 9, 54, 103
2, 164159, Note_on_c, 9, 54, 0
2, 164160, Note_on_c, 9, 54, 121
2, 164399, Note_on_c, 9, 54, 0
2, 164400, Note_on_c, 9, 54, 96
2, 164639, Note_on_c, 9, 54, 0
2, 164640, Note_on_c, 9, 54, 121
2, 164879, Note_on_c, 9, 54, 0
2, 164880, Note_on_c, 9, 54, 99
2, 165119, Note_on_c, 9, 54, 0
2, 165120, Note_on_c, 9, 54, 122
2, 165359, Note_on_c, 9, 54, 0
2, 165360, Note_on_c, 9, 54, 97
2, 165599, Note_on_c, 9, 54, 0
2, 165600, Note_on_c, 9, 54, 126
2, 165839, Note_on_c, 9, 54, 0
2, 165840, Note_on_c, 9, 54, 93
2, 166079, Note_on_c, 9, 54, 0
2, 166080, Note_on_c, 9, 54, 119
2, 166319, Note_on_c, 9, 54, 0
2, 166320, Note_on_c, 9, 54, 87
2, 166559, Note_on_c, 9, 54, 0
2, 166560, Note_on_c, 9, 54, 127
2, 166799, Note_on_c, 9, 54, 0
2, 166800, Note_on_c, 9, 54, 97
2, 167039, Note_on_c, 9, 54, 0
2, 167040, Note_on_c, 9, 54, 106
2, 167279, Note_on_c, 9, 54, 0
2, 167280, Note_on_c, 9, 54, 87
2, 167519, Note_on_c, 9, 54, 0
2, 167520, Note_on_c, 9, 54, 127
2, 167759, Note_on_c, 9, 54, 0
2, 167760, Note_on_c, 9, 54, 102
2, 167999, Note_on_c, 9, 54, 0
2, 168000, Note_on_c, 9, 54, 116
2, 168239, Note_on_c, 9, 54, 0
2, 168240, Note_on_c, 9, 54, 92
2, 168479, Note_on_c, 9, 54, 0
2, 168480, Note_on_c, 9, 54, 127
2, 168719, Note_on_c, 9, 54, 0
2, 168720, Note_on_c, 9, 54, 98
2, 168959, Note_on_c, 9, 54, 0
2, 168960, Note_on_c, 9, 54, 124
2, 169199, Note_on_c, 9, 54, 0
2, 169200, Note_on_c, 9, 54, 83
2, 169439, Note_on_c, 9, 54, 0
2, 169440, Note_on_c, 9, 54, 127
2, 169679, Note_on_c, 9, 54, 0
2, 169680, Note_on_c, 9, 54, 89
2, 169919, Note_on_c, 9, 54, 0
2, 169920, Note_on_c, 9, 54, 127
2, 170159, Note_on_c, 9, 54, 0
2, 170160, Note_on_c, 9, 54, 90
2, 170399, Note_on_c, 9, 54, 0
2, 170400, Note_on_c, 9, 54, 124
2, 170639, Note_on_c, 9, 54, 0
2, 170640, Note_on_c, 9, 54, 88
2, 170879, Note_on_c, 9, 54, 0
2, 170880, Note_on_c, 9, 54, 127
2, 171119, Note_on_c, 9, 54, 0
2, 171120, Note_on_c, 9, 54, 96
2, 171359, Note_on_c, 9, 54, 0
2, 171360, Note_on_c, 9, 54, 127
2, 171599, Note_on_c, 9, 54, 0
2, 171600, Note_on_c, 9, 54, 103
2, 171839, Note_on_c, 9, 54, 0
2, 171840, Note_on_c, 9, 54, 121
2, 172079, Note_on_c, 9, 54, 0
2, 172080, Note_on_c, 9, 54, 96
2, 172319, Note_on_c, 9, 54, 0
2, 172320, Note_on_c, 9, 54, 121
2, 172559, Note_on_c, 9, 54, 0
2, 172560, Note_on_c, 9, 54, 99
2, 172799, Note_on_c, 9, 54, 0
2, 172800, Note_on_c, 9, 54, 122
2, 173039, Note_on_c, 9, 54, 0
2, 173040, Note_on_c, 9, 54, 97
2, 173279, Note_on_c, 9, 54, 0
2, 173280, Note_on_c, 9, 54, 126
2, 173519, Note_on_c, 9, 54, 0
2, 173520, Note_on_c, 9, 54, 93
2, 173759, Note_on_c, 9, 54, 0
2, 173760, Note_on_c, 9, 54, 119
2, 173999, Note_on_c, 9, 54, 0
2, 174000, Note_on_c, 9, 54, 87
2, 174239, Note_on_c, 9, 54, 0
2, 174240, Note_on_c, 9, 54, 127
2, 174479, Note_on_c, 9, 54, 0
2, 174480, Note_on_c, 9, 54, 97
2, 174719, Note_on_c, 9, 54, 0
2, 174720, Note_on_c, 9, 54, 106
2, 174959, Note_on_c, 9, 54, 0
2, 174960, Note_on_c, 9, 54, 87
2, 175199, Note_on_c, 9, 54, 0
2, 175200, Note_on_c, 9, 54, 127
2, 175439, Note_on_c, 9, 54, 0
2, 175440, Note_on_c, 9, 54, 102
2, 175679, Note_on_c, 9, 54, 0
2, 175680, Note_on_c, 9, 54, 116
2, 175919, Note_on_c, 9, 54, 0
2, 175920, Note_on_c, 9, 54, 92
2, 176159, Note_on_c, 9, 54, 0
2, 176160, Note_on_c, 9, 54, 127
2, 176399, Note_on_c, 9, 54, 0
2, 176400, Note_on_c, 9, 54, 98
2, 176639, Note_on_c, 9, 54, 0
2, 176640, Note_on_c, 9, 54, 124
2, 176879, Note_on_c, 9, 54, 0
2, 176880, Note_on_c, 9, 54, 83
2, 177119, Note_on_c, 9, 54, 0
2, 177120, Note_on_c, 9, 54, 127
2, 177359, Note_on_c, 9, 54, 0
2, 177360, Note_on_c, 9, 54, 89
2, 177599, Note_on_c, 9, 54, 0
2, 177600, Note_on_c, 9, 54, 127
2, 177839, Note_on_c, 9, 54, 0
2, 177840, Note_on_c, 9, 54, 90
2, 178079, Note_on_c, 9, 54, 0
2, 178080, Note_on_c, 9, 54, 124
2, 178319, Note_on_c, 9, 54, 0
2, 178320, Note_on_c, 9, 54, 88
2, 178559, Note_on_c, 9, 54, 0
2, 178560, Note_on_c, 9, 54, 127
2, 178799, Note_on_c, 9, 54, 0
2, 178800, Note_on_c, 9, 54, 96
2, 179039, Note_on_c, 9, 54, 0
2, 179040, Note_on_c, 9, 54, 127
2, 179279, Note_on_c, 9, 54, 0
2, 179280, Note_on_c, 9, 54, 103
2, 179519, Note_on_c, 9, 54, 0
2, 179520, Note_on_c, 9, 54, 121
2, 179759, Note_on_c, 9, 54, 0
2, 179760, Note_on_c, 9, 54, 96
2, 179999, Note_on_c, 9, 54, 0
2, 180000, Note_on_c, 9, 54, 121
2, 180239, Note_on_c, 9, 54, 0
2, 180240, Note_on_c, 9, 54, 99
2, 180479, Note_on_c, 9, 54, 0
2, 180480, Note_on_c, 9, 54, 122
2, 180719, Note_on_c, 9, 54, 0
2, 180720, Note_on_c, 9, 54, 97
2, 180959, Note_on_c, 9, 54, 0
2, 180960, Note_on_c, 9, 54, 126
2, 181199, Note_on_c, 9, 54, 0
2, 181200, Note_on_c, 9, 54, 93
2, 181439, Note_on_c, 9, 54, 0
2, 181440, Note_on_c, 9, 54, 119
2, 181679, Note_on_c, 9, 54, 0
2, 181680, Note_on_c, 9, 54, 87
2, 181919, Note_on_c, 9, 54, 0
2, 181920, Note_on_c, 9, 54, 127
2, 182159, Note_on_c, 9, 54, 0
2, 182160, Note_on_c, 9, 54, 97
2, 182399, Note_on_c, 9, 54, 0
2, 182400, Note_on_c, 9, 54, 106
2, 182639, Note_on_c, 9, 54, 0
2, 182640, Note_on_c, 9, 54, 87
2, 182879, Note_on_c, 9, 54, 0
2, 182880, Note_on_c, 9, 54, 127
2, 183119, Note_on_c, 9, 54, 0
2, 183120, Note_on_c, 9, 54, 102
2, 183359, Note_on_c, 9, 54, 0
2, 183360, Note_on_c, 9, 54, 116
2, 183599, Note_on_c, 9, 54, 0
2, 183600, Note_on_c, 9, 54, 92
2, 183839, Note_on_c, 9, 54, 0
2, 183840, Note_on_c, 9, 54, 127
2, 184079, Note_on_c, 9, 54, 0
2, 184080, Note_on_c, 9, 54, 98
2, 184319, Note_on_c, 9, 54, 0
2, 184320, Note_on_c, 9, 54, 124
2, 184559, Note_on_c, 9, 54, 0
2, 184560, Note_on_c, 9, 54, 83
2, 184799, Note_on_c, 9, 54, 0
2, 184800, Note_on_c, 9, 54, 127
2, 185039, Note_on_c, 9, 54, 0
2, 185040, Note_on_c, 9, 54, 89
2, 185279, Note_on_c, 9, 54, 0
2, 185280, Note_on_c, 9, 54, 127
2, 185519, Note_on_c, 9, 54, 0
2, 185520, Note_on_c, 9, 54, 90
2, 185759, Note_on_c, 9, 54, 0
2, 185760, Note_on_c, 9, 54, 124
2, 185999, Note_on_c, 9, 54, 0
2, 186000, Note_on_c, 9, 54, 88
2, 186239, Note_on_c, 9, 54, 0
2, 186240, Note_on_c, 9, 54, 127
2, 186479, Note_on_c, 9, 54, 0
2, 186480, Note_on_c, 9, 54, 96
2, 186719, Note_on_c, 9, 54, 0
2, 186720, Note_on_c, 9, 54, 127
2, 186959, Note_on_c, 9, 54, 0
2, 186960, Note_on_c, 9, 54, 103
2, 187199, Note_on_c, 9, 54, 0
2, 187200, Note_on_c, 9, 54, 121
2, 187439, Note_on_c, 9, 54, 0
2, 187440, Note_on_c, 9, 54, 96
2, 187679, Note_on_c, 9, 54, 0
2, 187680, Note_on_c, 9, 54, 121
2, 187919, Note_on_c, 9, 54, 0
2, 187920, Note_on_c, 9, 54, 99
2, 188159, Note_on_c, 9, 54, 0
2, 188160, Note_on_c, 9, 54, 122
2, 188399, Note_on_c, 9, 54, 0
2, 188400, Note_on_c, 9, 54, 97
2, 188639, Note_on_c, 9, 54, 0
2, 188640, Note_on_c, 9, 54, 126
2, 188879, Note_on_c, 9, 54, 0
2, 188880, Note_on_c, 9, 54, 93
2, 189119, Note_on_c, 9, 54, 0
2, 189120, Note_on_c, 9, 54, 119
2, 189359, Note_on_c, 9, 54, 0
2, 189360, Note_on_c, 9, 54, 87
2, 189599, Note_on_c, 9, 54, 0
2, 189600, Note_on_c, 9, 54, 127
2, 189839, Note_on_c, 9, 54, 0
2, 189840, Note_on_c, 9, 54, 97
2, 190079, Note_on_c, 9, 54, 0
2, 192000, Note_on_c, 9, 54, 110
2, 192479, Note_on_c, 9, 54, 0
2, 192480, Note_on_c, 9, 54, 115
2, 192959, Note_on_c, 9, 54, 0
2, 192960, Note_on_c, 9, 54, 108
2, 193439, Note_on_c, 9, 54, 0
2, 193440, Note_on_c, 9, 54, 108
2, 193919, Note_on_c, 9, 54, 0
2, 193920, Note_on_c, 9, 54, 110
2, 194399, Note_on_c, 9, 54, 0
2, 194400, Note_on_c, 9, 54, 114
2, 194879, Note_on_c, 9, 54, 0
2, 194880, Note_on_c, 9, 54, 114
2, 195359, Note_on_c, 9, 54, 0
2, 195360, Note_on_c, 9, 54, 108
2, 195839, Note_on_c, 9, 54, 0
2, 195840, Note_on_c, 9, 54, 116
2, 196319, Note_on_c, 9, 54, 0
2, 196320, Note_on_c, 9, 54, 109
2, 196799, Note_on_c, 9, 54, 0
2, 196800, Note_on_c, 9, 54, 112
2, 197279, Note_on_c, 9, 54, 0
2, 197280, Note_on_c, 9, 54, 109
2, 197759, Note_on_c, 9, 54, 0
2, 199680, Note_on_c, 9, 54, 116
2, 200159, Note_on_c, 9, 54, 0
2, 200160, Note_on_c, 9, 54, 115
2, 200639, Note_on_c, 9, 54, 0
2, 200640, Note_on_c, 9, 54, 111
2, 201119, Note_on_c, 9, 54, 0
2, 201120, Note_on_c, 9, 54, 119
2, 201599, Note_on_c, 9, 54, 0
2, 201600, Note_on_c, 9, 54, 116
2, 202079, Note_on_c, 9, 54, 0
2, 202080, Note_on_c, 9, 54, 119
2, 202559, Note_on_c, 9, 54, 0
2, 202560, Note_on_c, 9, 54, 116
2, 203039, Note_on_c, 9, 54, 0
2, 203040, Note_on_c, 9, 54, 110
2, 203519, Note_on_c, 9, 54, 0
2, 203520, Note_on_c, 9, 54, 112
2, 203999, Note_on_c, 9, 54, 0
2, 204000, Note_on_c, 9, 54, 112
2, 204479, Note_on_c, 9, 54, 0
2, 204480, Note_on_c, 9, 54, 111
2, 204959, Note_on_c, 9, 54, 0
2, 204960, Note_on_c, 9, 54, 115
2, 205439, Note_on_c, 9, 54, 0
2, 205440, End_track
0, 0, End_of_file
