0, 0, Header, 1, 12, 480
1, 0, Start_track
1, 0, Time_signature, 4, 2, 24, 8
1, 0, Key_signature, 0, "major"
1, 0, Tempo, 545455
1, 0, Control_c, 9, 121, 0
1, 0, Program_c, 9, 48
1, 0, Control_c, 9, 7, 100
1, 0, Control_c, 9, 10, 64
1, 0, Control_c, 9, 91, 0
1, 0, Control_c, 9, 93, 0
1, 0, MIDI_port, 0
1, 0, Note_on_c, 9, 54, 64
1, 0, Note_on_c, 9, 70, 52
1, 479, Note_on_c, 9, 54, 0
1, 479, Note_on_c, 9, 70, 0
1, 480, Note_on_c, 9, 54, 64
1, 959, Note_on_c, 9, 54, 0
1, 960, Note_on_c, 9, 54, 64
1, 960, Note_on_c, 9, 70, 52
1, 1439, Note_on_c, 9, 54, 0
1, 1439, Note_on_c, 9, 70, 0
1, 1440, Note_on_c, 9, 54, 64
1, 1919, Note_on_c, 9, 54, 0
1, 1920, Note_on_c, 9, 46, 60
1, 1920, Note_on_c, 9, 36, 116
1, 2399, Note_on_c, 9, 46, 0
1, 2399, Note_on_c, 9, 36, 0
1, 2400, Note_on_c, 9, 38, 116
1, 2640, Note_on_c, 9, 36, 116
1, 2879, Note_on_c, 9, 38, 0
1, 2879, Note_on_c, 9, 36, 0
1, 2880, Note_on_c, 9, 38, 116
1, 3120, Note_on_c, 9, 36, 116
1, 3359, Note_on_c, 9, 38, 0
1, 3359, Note_on_c, 9, 36, 0
1, 3360, Note_on_c, 9, 38, 116
1, 3600, Note_on_c, 9, 36, 116
1, 3839, Note_on_c, 9, 38, 0
1, 3839, Note_on_c, 9, 36, 0
1, 3840, Note_on_c, 9, 42, 127
1, 3840, Note_on_c, 9, 49, 76
1, 3840, Note_on_c, 9, 36, 116
1, 4079, Note_on_c, 9, 42, 0
1, 4079, Note_on_c, 9, 49, 0
1, 4080, Note_on_c, 9, 42, 60
1, 4319, Note_on_c, 9, 36, 0
1, 4319, Note_on_c, 9, 42, 0
1, 4320, Note_on_c, 9, 38, 116
1, 4320, Note_on_c, 9, 42, 127
1, 4320, Note_on_c, 9, 48, 92
1, 4334, Note_on_c, 9, 38, 0
1, 4334, Note_on_c, 9, 42, 0
1, 4334, Note_on_c, 9, 48, 0
1, 4335, Note_on_c, 9, 39, 100
1, 4379, Note_on_c, 9, 39, 0
1, 4400, Note_on_c, 9, 48, 92
1, 4439, Note_on_c, 9, 48, 0
1, 4480, Note_on_c, 9, 48, 92
1, 4499, Note_on_c, 9, 48, 0
1, 4560, Note_on_c, 9, 42, 60
1, 4560, Note_on_c, 9, 48, 92
1, 4619, Note_on_c, 9, 42, 0
1, 4619, Note_on_c, 9, 48, 0
1, 4640, Note_on_c, 9, 48, 92
1, 4679, Note_on_c, 9, 48, 0
1, 4720, Note_on_c, 9, 48, 92
1, 4739, Note_on_c, 9, 48, 0
1, 4800, Note_on_c, 9, 42, 127
1, 4800, Note_on_c, 9, 45, 92
1, 4800, Note_on_c, 9, 36, 116
1, 4859, Note_on_c, 9, 42, 0
1, 4859, Note_on_c, 9, 45, 0
1, 4880, Note_on_c, 9, 45, 92
1, 4919, Note_on_c, 9, 45, 0
1, 4960, Note_on_c, 9, 45, 92
1, 4979, Note_on_c, 9, 45, 0
1, 5040, Note_on_c, 9, 42, 60
1, 5040, Note_on_c, 9, 45, 92
1, 5099, Note_on_c, 9, 42, 0
1, 5099, Note_on_c, 9, 45, 0
1, 5120, Note_on_c, 9, 45, 92
1, 5159, Note_on_c, 9, 45, 0
1, 5200, Note_on_c, 9, 45, 92
1, 5219, Note_on_c, 9, 45, 0
1, 5279, Note_on_c, 9, 36, 0
1, 5280, Note_on_c, 9, 38, 116
1, 5280, Note_on_c, 9, 41, 92
1, 5294, Note_on_c, 9, 38, 0
1, 5294, Note_on_c, 9, 41, 0
1, 5295, Note_on_c, 9, 39, 100
1, 5295, Note_on_c, 9, 42, 127
1, 5339, Note_on_c, 9, 39, 0
1, 5339, Note_on_c, 9, 42, 0
1, 5360, Note_on_c, 9, 41, 92
1, 5399, Note_on_c, 9, 41, 0
1, 5440, Note_on_c, 9, 41, 92
1, 5459, Note_on_c, 9, 41, 0
1, 5520, Note_on_c, 9, 41, 92
1, 5520, Note_on_c, 9, 42, 60
1, 5579, Note_on_c, 9, 41, 0
1, 5579, Note_on_c, 9, 42, 0
1, 5600, Note_on_c, 9, 41, 92
1, 5639, Note_on_c, 9, 41, 0
1, 5680, Note_on_c, 9, 41, 92
1, 5699, Note_on_c, 9, 41, 0
1, 5760, Note_on_c, 9, 42, 127
1, 5760, Note_on_c, 9, 36, 116
1, 5999, Note_on_c, 9, 42, 0
1, 6000, Note_on_c, 9, 42, 60
1, 6239, Note_on_c, 9, 36, 0
1, 6239, Note_on_c, 9, 42, 0
1, 6240, Note_on_c, 9, 38, 116
1, 6240, Note_on_c, 9, 42, 127
1, 6254, Note_on_c, 9, 38, 0
1, 6254, Note_on_c, 9, 42, 0
1, 6255, Note_on_c, 9, 39, 100
1, 6479, Note_on_c, 9, 39, 0
1, 6480, Note_on_c, 9, 42, 60
1, 6719, Note_on_c, 9, 42, 0
1, 6720, Note_on_c, 9, 42, 127
1, 6720, Note_on_c, 9, 36, 116
1, 6959, Note_on_c, 9, 42, 0
1, 6960, Note_on_c, 9, 42, 60
1, 7199, Note_on_c, 9, 36, 0
1, 7199, Note_on_c, 9, 42, 0
1, 7200, Note_on_c, 9, 38, 116
1, 7214, Note_on_c, 9, 38, 0
1, 7215, Note_on_c, 9, 39, 100
1, 7215, Note_on_c, 9, 42, 127
1, 7439, Note_on_c, 9, 39, 0
1, 7439, Note_on_c, 9, 42, 0
1, 7440, Note_on_c, 9, 42, 60
1, 7679, Note_on_c, 9, 42, 0
1, 7680, Note_on_c, 9, 42, 127
1, 7680, Note_on_c, 9, 36, 116
1, 7919, Note_on_c, 9, 42, 0
1, 7920, Note_on_c, 9, 42, 60
1, 8159, Note_on_c, 9, 36, 0
1, 8159, Note_on_c, 9, 42, 0
1, 8160, Note_on_c, 9, 38, 116
1, 8160, Note_on_c, 9, 42, 127
1, 8174, Note_on_c, 9, 38, 0
1, 8174, Note_on_c, 9, 42, 0
1, 8175, Note_on_c, 9, 39, 100
1, 8399, Note_on_c, 9, 39, 0
1, 8400, Note_on_c, 9, 46, 60
1, 8639, Note_on_c, 9, 46, 0
1, 8640, Note_on_c, 9, 42, 127
1, 8640, Note_on_c, 9, 36, 116
1, 8879, Note_on_c, 9, 42, 0
1, 8880, Note_on_c, 9, 42, 60
1, 9119, Note_on_c, 9, 36, 0
1, 9119, Note_on_c, 9, 42, 0
1, 9120, Note_on_c, 9, 38, 116
1, 9120, Note_on_c, 9, 42, 127
1, 9134, Note_on_c, 9, 38, 0
1, 9134, Note_on_c, 9, 42, 0
1, 9135, Note_on_c, 9, 39, 100
1, 9359, Note_on_c, 9, 39, 0
1, 9360, Note_on_c, 9, 42, 60
1, 9599, Note_on_c, 9, 42, 0
1, 9600, Note_on_c, 9, 42, 127
1, 9600, Note_on_c, 9, 36, 116
1, 9839, Note_on_c, 9, 42, 0
1, 9840, Note_on_c, 9, 42, 60
1, 10079, Note_on_c, 9, 36, 0
1, 10079, Note_on_c, 9, 42, 0
1, 10080, Note_on_c, 9, 38, 116
1, 10080, Note_on_c, 9, 42, 127
1, 10094, Note_on_c, 9, 38, 0
1, 10094, Note_on_c, 9, 42, 0
1, 10095, Note_on_c, 9, 39, 100
1, 10319, Note_on_c, 9, 39, 0
1, 10320, Note_on_c, 9, 42, 60
1, 10559, Note_on_c, 9, 42, 0
1, 10560, Note_on_c, 9, 42, 127
1, 10560, Note_on_c, 9, 36, 116
1, 10799, Note_on_c, 9, 42, 0
1, 10800, Note_on_c, 9, 42, 60
1, 11039, Note_on_c, 9, 36, 0
1, 11039, Note_on_c, 9, 42, 0
1, 11040, Note_on_c, 9, 38, 116
1, 11054, Note_on_c, 9, 38, 0
1, 11055, Note_on_c, 9, 39, 100
1, 11055, Note_on_c, 9, 42, 127
1, 11279, Note_on_c, 9, 39, 0
1, 11279, Note_on_c, 9, 42, 0
1, 11280, Note_on_c, 9, 42, 60
1, 11519, Note_on_c, 9, 42, 0
1, 11520, Note_on_c, 9, 46, 60
1, 11520, Note_on_c, 9, 36, 116
1, 11759, Note_on_c, 9, 46, 0
1, 11760, Note_on_c, 9, 42, 60
1, 11999, Note_on_c, 9, 36, 0
1, 11999, Note_on_c, 9, 42, 0
1, 12000, Note_on_c, 9, 38, 116
1, 12000, Note_on_c, 9, 42, 127
1, 12014, Note_on_c, 9, 38, 0
1, 12014, Note_on_c, 9, 42, 0
1, 12015, Note_on_c, 9, 39, 100
1, 12239, Note_on_c, 9, 39, 0
1, 12240, Note_on_c, 9, 42, 60
1, 12479, Note_on_c, 9, 42, 0
1, 12480, Note_on_c, 9, 42, 127
1, 12480, Note_on_c, 9, 36, 116
1, 12719, Note_on_c, 9, 42, 0
1, 12720, Note_on_c, 9, 42, 60
1, 12959, Note_on_c, 9, 36, 0
1, 12959, Note_on_c, 9, 42, 0
1, 12960, Note_on_c, 9, 38, 116
1, 12974, Note_on_c, 9, 38, 0
1, 12975, Note_on_c, 9, 39, 100
1, 12975, Note_on_c, 9, 42, 127
1, 13199, Note_on_c, 9, 39, 0
1, 13199, Note_on_c, 9, 42, 0
1, 13200, Note_on_c, 9, 42, 60
1, 13439, Note_on_c, 9, 42, 0
1, 13440, Note_on_c, 9, 42, 127
1, 13440, Note_on_c, 9, 36, 116
1, 13679, Note_on_c, 9, 42, 0
1, 13680, Note_on_c, 9, 42, 60
1, 13919, Note_on_c, 9, 36, 0
1, 13919, Note_on_c, 9, 42, 0
1, 13920, Note_on_c, 9, 38, 116
1, 13920, Note_on_c, 9, 42, 127
1, 13934, Note_on_c, 9, 38, 0
1, 13934, Note_on_c, 9, 42, 0
1, 13935, Note_on_c, 9, 39, 100
1, 14159, Note_on_c, 9, 39, 0
1, 14160, Note_on_c, 9, 42, 60
1, 14399, Note_on_c, 9, 42, 0
1, 14400, Note_on_c, 9, 42, 127
1, 14400, Note_on_c, 9, 36, 116
1, 14639, Note_on_c, 9, 42, 0
1, 14640, Note_on_c, 9, 42, 60
1, 14879, Note_on_c, 9, 36, 0
1, 14879, Note_on_c, 9, 42, 0
1, 14880, Note_on_c, 9, 38, 116
1, 14894, Note_on_c, 9, 38, 0
1, 14895, Note_on_c, 9, 39, 100
1, 14895, Note_on_c, 9, 42, 127
1, 15119, Note_on_c, 9, 39, 0
1, 15119, Note_on_c, 9, 42, 0
1, 15120, Note_on_c, 9, 42, 60
1, 15359, Note_on_c, 9, 42, 0
1, 15360, Note_on_c, 9, 42, 127
1, 15360, Note_on_c, 9, 36, 116
1, 15599, Note_on_c, 9, 42, 0
1, 15600, Note_on_c, 9, 42, 60
1, 15839, Note_on_c, 9, 36, 0
1, 15839, Note_on_c, 9, 42, 0
1, 15840, Note_on_c, 9, 38, 116
1, 15840, Note_on_c, 9, 42, 127
1, 15854, Note_on_c, 9, 38, 0
1, 15854, Note_on_c, 9, 42, 0
1, 15855, Note_on_c, 9, 39, 100
1, 16079, Note_on_c, 9, 39, 0
1, 16080, Note_on_c, 9, 46, 60
1, 16319, Note_on_c, 9, 46, 0
1, 16320, Note_on_c, 9, 42, 127
1, 16320, Note_on_c, 9, 36, 116
1, 16559, Note_on_c, 9, 42, 0
1, 16560, Note_on_c, 9, 42, 60
1, 16799, Note_on_c, 9, 36, 0
1, 16799, Note_on_c, 9, 42, 0
1, 16800, Note_on_c, 9, 38, 116
1, 16800, Note_on_c, 9, 42, 127
1, 16814, Note_on_c, 9, 38, 0
1, 16814, Note_on_c, 9, 42, 0
1, 16815, Note_on_c, 9, 39, 100
1, 17039, Note_on_c, 9, 39, 0
1, 17040, Note_on_c, 9, 42, 60
1, 17279, Note_on_c, 9, 42, 0
1, 17280, Note_on_c, 9, 42, 127
1, 17280, Note_on_c, 9, 36, 116
1, 17519, Note_on_c, 9, 42, 0
1, 17520, Note_on_c, 9, 42, 60
1, 17759, Note_on_c, 9, 36, 0
1, 17759, Note_on_c, 9, 42, 0
1, 17760, Note_on_c, 9, 38, 116
1, 17774, Note_on_c, 9, 38, 0
1, 17775, Note_on_c, 9, 39, 100
1, 17775, Note_on_c, 9, 42, 127
1, 17999, Note_on_c, 9, 39, 0
1, 17999, Note_on_c, 9, 42, 0
1, 18000, Note_on_c, 9, 42, 60
1, 18000, Note_on_c, 9, 36, 116
1, 18239, Note_on_c, 9, 42, 0
1, 18239, Note_on_c, 9, 36, 0
1, 18240, Note_on_c, 9, 38, 116
1, 18240, Note_on_c, 9, 36, 116
1, 18254, Note_on_c, 9, 38, 0
1, 18255, Note_on_c, 9, 39, 100
1, 18255, Note_on_c, 9, 42, 127
1, 18479, Note_on_c, 9, 36, 0
1, 18479, Note_on_c, 9, 39, 0
1, 18479, Note_on_c, 9, 42, 0
1, 18480, Note_on_c, 9, 42, 60
1, 18480, Note_on_c, 9, 36, 116
1, 18719, Note_on_c, 9, 42, 0
1, 18719, Note_on_c, 9, 36, 0
1, 18720, Note_on_c, 9, 38, 116
1, 18720, Note_on_c, 9, 42, 127
1, 18734, Note_on_c, 9, 38, 0
1, 18734, Note_on_c, 9, 42, 0
1, 18735, Note_on_c, 9, 39, 100
1, 18959, Note_on_c, 9, 39, 0
1, 18960, Note_on_c, 9, 42, 60
1, 18960, Note_on_c, 9, 36, 116
1, 19199, Note_on_c, 9, 42, 0
1, 19199, Note_on_c, 9, 36, 0
1, 19200, Note_on_c, 9, 42, 127
1, 19200, Note_on_c, 9, 46, 60
1, 19200, Note_on_c, 9, 54, 64
1, 19200, Note_on_c, 9, 36, 116
1, 19439, Note_on_c, 9, 42, 0
1, 19439, Note_on_c, 9, 46, 0
1, 19439, Note_on_c, 9, 54, 0
1, 19440, Note_on_c, 9, 42, 60
1, 19440, Note_on_c, 9, 54, 64
1, 19679, Note_on_c, 9, 36, 0
1, 19679, Note_on_c, 9, 42, 0
1, 19679, Note_on_c, 9, 54, 0
1, 19680, Note_on_c, 9, 38, 116
1, 19680, Note_on_c, 9, 39, 100
1, 19680, Note_on_c, 9, 42, 127
1, 19680, Note_on_c, 9, 54, 64
1, 19919, Note_on_c, 9, 38, 0
1, 19919, Note_on_c, 9, 39, 0
1, 19919, Note_on_c, 9, 42, 0
1, 19919, Note_on_c, 9, 54, 0
1, 19920, Note_on_c, 9, 42, 60
1, 19920, Note_on_c, 9, 54, 64
1, 20159, Note_on_c, 9, 42, 0
1, 20159, Note_on_c, 9, 54, 0
1, 20160, Note_on_c, 9, 42, 127
1, 20160, Note_on_c, 9, 54, 64
1, 20160, Note_on_c, 9, 36, 116
1, 20399, Note_on_c, 9, 42, 0
1, 20399, Note_on_c, 9, 54, 0
1, 20400, Note_on_c, 9, 42, 60
1, 20400, Note_on_c, 9, 54, 64
1, 20639, Note_on_c, 9, 36, 0
1, 20639, Note_on_c, 9, 42, 0
1, 20639, Note_on_c, 9, 54, 0
1, 20640, Note_on_c, 9, 38, 116
1, 20640, Note_on_c, 9, 39, 100
1, 20640, Note_on_c, 9, 42, 127
1, 20640, Note_on_c, 9, 54, 64
1, 20879, Note_on_c, 9, 38, 0
1, 20879, Note_on_c, 9, 39, 0
1, 20879, Note_on_c, 9, 42, 0
1, 20879, Note_on_c, 9, 54, 0
1, 20880, Note_on_c, 9, 42, 60
1, 20880, Note_on_c, 9, 54, 64
1, 21119, Note_on_c, 9, 42, 0
1, 21119, Note_on_c, 9, 54, 0
1, 21120, Note_on_c, 9, 42, 127
1, 21120, Note_on_c, 9, 54, 64
1, 21120, Note_on_c, 9, 36, 116
1, 21359, Note_on_c, 9, 42, 0
1, 21359, Note_on_c, 9, 54, 0
1, 21360, Note_on_c, 9, 42, 60
1, 21360, Note_on_c, 9, 54, 64
1, 21599, Note_on_c, 9, 36, 0
1, 21599, Note_on_c, 9, 42, 0
1, 21599, Note_on_c, 9, 54, 0
1, 21600, Note_on_c, 9, 38, 116
1, 21600, Note_on_c, 9, 39, 100
1, 21600, Note_on_c, 9, 42, 127
1, 21600, Note_on_c, 9, 54, 64
1, 21839, Note_on_c, 9, 38, 0
1, 21839, Note_on_c, 9, 39, 0
1, 21839, Note_on_c, 9, 42, 0
1, 21839, Note_on_c, 9, 54, 0
1, 21840, Note_on_c, 9, 42, 60
1, 21840, Note_on_c, 9, 54, 64
1, 22079, Note_on_c, 9, 42, 0
1, 22079, Note_on_c, 9, 54, 0
1, 22080, Note_on_c, 9, 42, 127
1, 22080, Note_on_c, 9, 54, 64
1, 22080, Note_on_c, 9, 36, 116
1, 22319, Note_on_c, 9, 42, 0
1, 22319, Note_on_c, 9, 54, 0
1, 22320, Note_on_c, 9, 42, 60
1, 22320, Note_on_c, 9, 54, 64
1, 22559, Note_on_c, 9, 36, 0
1, 22559, Note_on_c, 9, 42, 0
1, 22559, Note_on_c, 9, 54, 0
1, 22560, Note_on_c, 9, 38, 116
1, 22560, Note_on_c, 9, 39, 100
1, 22560, Note_on_c, 9, 42, 127
1, 22560, Note_on_c, 9, 54, 64
1, 22799, Note_on_c, 9, 38, 0
1, 22799, Note_on_c, 9, 39, 0
1, 22799, Note_on_c, 9, 42, 0
1, 22799, Note_on_c, 9, 54, 0
1, 22800, Note_on_c, 9, 42, 60
1, 22800, Note_on_c, 9, 54, 64
1, 23039, Note_on_c, 9, 42, 0
1, 23039, Note_on_c, 9, 54, 0
1, 23040, Note_on_c, 9, 42, 127
1, 23040, Note_on_c, 9, 54, 64
1, 23040, Note_on_c, 9, 36, 116
1, 23279, Note_on_c, 9, 42, 0
1, 23279, Note_on_c, 9, 54, 0
1, 23280, Note_on_c, 9, 42, 60
1, 23280, Note_on_c, 9, 54, 64
1, 23519, Note_on_c, 9, 36, 0
1, 23519, Note_on_c, 9, 42, 0
1, 23519, Note_on_c, 9, 54, 0
1, 23520, Note_on_c, 9, 38, 116
1, 23520, Note_on_c, 9, 39, 100
1, 23520, Note_on_c, 9, 42, 127
1, 23520, Note_on_c, 9, 54, 64
1, 23759, Note_on_c, 9, 38, 0
1, 23759, Note_on_c, 9, 39, 0
1, 23759, Note_on_c, 9, 42, 0
1, 23759, Note_on_c, 9, 54, 0
1, 23760, Note_on_c, 9, 46, 60
1, 23760, Note_on_c, 9, 54, 64
1, 23999, Note_on_c, 9, 46, 0
1, 23999, Note_on_c, 9, 54, 0
1, 24000, Note_on_c, 9, 42, 127
1, 24000, Note_on_c, 9, 54, 64
1, 24000, Note_on_c, 9, 36, 116
1, 24239, Note_on_c, 9, 42, 0
1, 24239, Note_on_c, 9, 54, 0
1, 24240, Note_on_c, 9, 42, 60
1, 24240, Note_on_c, 9, 54, 64
1, 24479, Note_on_c, 9, 36, 0
1, 24479, Note_on_c, 9, 42, 0
1, 24479, Note_on_c, 9, 54, 0
1, 24480, Note_on_c, 9, 38, 116
1, 24480, Note_on_c, 9, 39, 100
1, 24480, Note_on_c, 9, 42, 127
1, 24480, Note_on_c, 9, 54, 64
1, 24719, Note_on_c, 9, 38, 0
1, 24719, Note_on_c, 9, 39, 0
1, 24719, Note_on_c, 9, 42, 0
1, 24719, Note_on_c, 9, 54, 0
1, 24720, Note_on_c, 9, 42, 60
1, 24720, Note_on_c, 9, 54, 64
1, 24959, Note_on_c, 9, 42, 0
1, 24959, Note_on_c, 9, 54, 0
1, 24960, Note_on_c, 9, 42, 127
1, 24960, Note_on_c, 9, 54, 64
1, 24960, Note_on_c, 9, 36, 116
1, 25199, Note_on_c, 9, 42, 0
1, 25199, Note_on_c, 9, 54, 0
1, 25200, Note_on_c, 9, 42, 60
1, 25200, Note_on_c, 9, 54, 64
1, 25439, Note_on_c, 9, 36, 0
1, 25439, Note_on_c, 9, 42, 0
1, 25439, Note_on_c, 9, 54, 0
1, 25440, Note_on_c, 9, 38, 116
1, 25440, Note_on_c, 9, 39, 100
1, 25440, Note_on_c, 9, 42, 127
1, 25440, Note_on_c, 9, 54, 64
1, 25679, Note_on_c, 9, 38, 0
1, 25679, Note_on_c, 9, 39, 0
1, 25679, Note_on_c, 9, 42, 0
1, 25679, Note_on_c, 9, 54, 0
1, 25680, Note_on_c, 9, 42, 60
1, 25680, Note_on_c, 9, 54, 64
1, 25919, Note_on_c, 9, 42, 0
1, 25919, Note_on_c, 9, 54, 0
1, 25920, Note_on_c, 9, 42, 127
1, 25920, Note_on_c, 9, 54, 64
1, 25920, Note_on_c, 9, 36, 116
1, 26159, Note_on_c, 9, 42, 0
1, 26159, Note_on_c, 9, 54, 0
1, 26160, Note_on_c, 9, 42, 60
1, 26160, Note_on_c, 9, 54, 64
1, 26399, Note_on_c, 9, 36, 0
1, 26399, Note_on_c, 9, 42, 0
1, 26399, Note_on_c, 9, 54, 0
1, 26400, Note_on_c, 9, 38, 116
1, 26400, Note_on_c, 9, 39, 100
1, 26400, Note_on_c, 9, 42, 127
1, 26400, Note_on_c, 9, 54, 64
1, 26639, Note_on_c, 9, 38, 0
1, 26639, Note_on_c, 9, 39, 0
1, 26639, Note_on_c, 9, 42, 0
1, 26639, Note_on_c, 9, 54, 0
1, 26640, Note_on_c, 9, 42, 60
1, 26640, Note_on_c, 9, 54, 64
1, 26879, Note_on_c, 9, 42, 0
1, 26879, Note_on_c, 9, 54, 0
1, 26880, Note_on_c, 9, 42, 127
1, 26880, Note_on_c, 9, 46, 60
1, 26880, Note_on_c, 9, 54, 64
1, 26880, Note_on_c, 9, 36, 116
1, 27119, Note_on_c, 9, 42, 0
1, 27119, Note_on_c, 9, 46, 0
1, 27119, Note_on_c, 9, 54, 0
1, 27120, Note_on_c, 9, 42, 60
1, 27120, Note_on_c, 9, 54, 64
1, 27359, Note_on_c, 9, 36, 0
1, 27359, Note_on_c, 9, 42, 0
1, 27359, Note_on_c, 9, 54, 0
1, 27360, Note_on_c, 9, 38, 116
1, 27360, Note_on_c, 9, 39, 100
1, 27360, Note_on_c, 9, 42, 127
1, 27360, Note_on_c, 9, 54, 64
1, 27599, Note_on_c, 9, 38, 0
1, 27599, Note_on_c, 9, 39, 0
1, 27599, Note_on_c, 9, 42, 0
1, 27599, Note_on_c, 9, 54, 0
1, 27600, Note_on_c, 9, 42, 60
1, 27600, Note_on_c, 9, 54, 64
1, 27839, Note_on_c, 9, 42, 0
1, 27839, Note_on_c, 9, 54, 0
1, 27840, Note_on_c, 9, 42, 127
1, 27840, Note_on_c, 9, 54, 64
1, 27840, Note_on_c, 9, 36, 116
1, 28079, Note_on_c, 9, 42, 0
1, 28079, Note_on_c, 9, 54, 0
1, 28080, Note_on_c, 9, 42, 60
1, 28080, Note_on_c, 9, 54, 64
1, 28319, Note_on_c, 9, 36, 0
1, 28319, Note_on_c, 9, 42, 0
1, 28319, Note_on_c, 9, 54, 0
1, 28320, Note_on_c, 9, 38, 116
1, 28320, Note_on_c, 9, 39, 100
1, 28320, Note_on_c, 9, 42, 127
1, 28320, Note_on_c, 9, 54, 64
1, 28559, Note_on_c, 9, 38, 0
1, 28559, Note_on_c, 9, 39, 0
1, 28559, Note_on_c, 9, 42, 0
1, 28559, Note_on_c, 9, 54, 0
1, 28560, Note_on_c, 9, 42, 60
1, 28560, Note_on_c, 9, 54, 64
1, 28799, Note_on_c, 9, 42, 0
1, 28799, Note_on_c, 9, 54, 0
1, 28800, Note_on_c, 9, 42, 127
1, 28800, Note_on_c, 9, 54, 64
1, 28800, Note_on_c, 9, 36, 116
1, 29039, Note_on_c, 9, 42, 0
1, 29039, Note_on_c, 9, 54, 0
1, 29040, Note_on_c, 9, 42, 60
1, 29040, Note_on_c, 9, 54, 64
1, 29279, Note_on_c, 9, 36, 0
1, 29279, Note_on_c, 9, 42, 0
1, 29279, Note_on_c, 9, 54, 0
1, 29280, Note_on_c, 9, 38, 116
1, 29280, Note_on_c, 9, 39, 100
1, 29280, Note_on_c, 9, 42, 127
1, 29280, Note_on_c, 9, 54, 64
1, 29519, Note_on_c, 9, 38, 0
1, 29519, Note_on_c, 9, 39, 0
1, 29519, Note_on_c, 9, 42, 0
1, 29519, Note_on_c, 9, 54, 0
1, 29520, Note_on_c, 9, 42, 60
1, 29520, Note_on_c, 9, 54, 64
1, 29759, Note_on_c, 9, 42, 0
1, 29759, Note_on_c, 9, 54, 0
1, 29760, Note_on_c, 9, 42, 127
1, 29760, Note_on_c, 9, 54, 64
1, 29760, Note_on_c, 9, 36, 116
1, 29999, Note_on_c, 9, 42, 0
1, 29999, Note_on_c, 9, 54, 0
1, 30000, Note_on_c, 9, 42, 60
1, 30000, Note_on_c, 9, 54, 64
1, 30239, Note_on_c, 9, 36, 0
1, 30239, Note_on_c, 9, 42, 0
1, 30239, Note_on_c, 9, 54, 0
1, 30240, Note_on_c, 9, 38, 116
1, 30240, Note_on_c, 9, 39, 100
1, 30240, Note_on_c, 9, 42, 127
1, 30240, Note_on_c, 9, 54, 64
1, 30479, Note_on_c, 9, 38, 0
1, 30479, Note_on_c, 9, 39, 0
1, 30479, Note_on_c, 9, 42, 0
1, 30479, Note_on_c, 9, 54, 0
1, 30480, Note_on_c, 9, 42, 60
1, 30480, Note_on_c, 9, 54, 64
1, 30719, Note_on_c, 9, 42, 0
1, 30719, Note_on_c, 9, 54, 0
1, 30720, Note_on_c, 9, 42, 127
1, 30720, Note_on_c, 9, 54, 64
1, 30720, Note_on_c, 9, 36, 116
1, 30959, Note_on_c, 9, 42, 0
1, 30959, Note_on_c, 9, 54, 0
1, 30960, Note_on_c, 9, 42, 60
1, 30960, Note_on_c, 9, 54, 64
1, 31199, Note_on_c, 9, 36, 0
1, 31199, Note_on_c, 9, 42, 0
1, 31199, Note_on_c, 9, 54, 0
1, 31200, Note_on_c, 9, 38, 116
1, 31200, Note_on_c, 9, 39, 100
1, 31200, Note_on_c, 9, 42, 127
1, 31200, Note_on_c, 9, 54, 64
1, 31439, Note_on_c, 9, 38, 0
1, 31439, Note_on_c, 9, 39, 0
1, 31439, Note_on_c, 9, 42, 0
1, 31439, Note_on_c, 9, 54, 0
1, 31440, Note_on_c, 9, 46, 60
1, 31440, Note_on_c, 9, 54, 64
1, 31679, Note_on_c, 9, 46, 0
1, 31679, Note_on_c, 9, 54, 0
1, 31680, Note_on_c, 9, 42, 127
1, 31680, Note_on_c, 9, 54, 64
1, 31680, Note_on_c, 9, 36, 116
1, 31919, Note_on_c, 9, 42, 0
1, 31919, Note_on_c, 9, 54, 0
1, 31920, Note_on_c, 9, 42, 60
1, 31920, Note_on_c, 9, 54, 64
1, 32159, Note_on_c, 9, 36, 0
1, 32159, Note_on_c, 9, 42, 0
1, 32159, Note_on_c, 9, 54, 0
1, 32160, Note_on_c, 9, 38, 116
1, 32160, Note_on_c, 9, 39, 100
1, 32160, Note_on_c, 9, 42, 127
1, 32160, Note_on_c, 9, 54, 64
1, 32399, Note_on_c, 9, 38, 0
1, 32399, Note_on_c, 9, 39, 0
1, 32399, Note_on_c, 9, 42, 0
1, 32399, Note_on_c, 9, 54, 0
1, 32400, Note_on_c, 9, 42, 60
1, 32400, Note_on_c, 9, 54, 64
1, 32639, Note_on_c, 9, 42, 0
1, 32639, Note_on_c, 9, 54, 0
1, 32640, Note_on_c, 9, 42, 127
1, 32640, Note_on_c, 9, 54, 64
1, 32640, Note_on_c, 9, 36, 116
1, 33119, Note_on_c, 9, 42, 0
1, 33119, Note_on_c, 9, 54, 0
1, 33119, Note_on_c, 9, 36, 0
1, 33120, Note_on_c, 9, 39, 100
1, 33599, Note_on_c, 9, 39, 0
1, 33600, Note_on_c, 9, 39, 100
1, 34079, Note_on_c, 9, 39, 0
1, 34080, Note_on_c, 9, 39, 100
1, 34559, Note_on_c, 9, 39, 0
1, 34560, Note_on_c, 9, 42, 127
1, 34560, Note_on_c, 9, 36, 116
1, 34799, Note_on_c, 9, 42, 0
1, 34800, Note_on_c, 9, 42, 60
1, 35039, Note_on_c, 9, 36, 0
1, 35039, Note_on_c, 9, 42, 0
1, 35040, Note_on_c, 9, 38, 116
1, 35040, Note_on_c, 9, 42, 127
1, 35054, Note_on_c, 9, 38, 0
1, 35054, Note_on_c, 9, 42, 0
1, 35055, Note_on_c, 9, 39, 100
1, 35279, Note_on_c, 9, 39, 0
1, 35280, Note_on_c, 9, 42, 60
1, 35519, Note_on_c, 9, 42, 0
1, 35520, Note_on_c, 9, 42, 127
1, 35520, Note_on_c, 9, 36, 116
1, 35759, Note_on_c, 9, 42, 0
1, 35760, Note_on_c, 9, 42, 60
1, 35999, Note_on_c, 9, 36, 0
1, 35999, Note_on_c, 9, 42, 0
1, 36000, Note_on_c, 9, 38, 116
1, 36014, Note_on_c, 9, 38, 0
1, 36015, Note_on_c, 9, 39, 100
1, 36015, Note_on_c, 9, 42, 127
1, 36239, Note_on_c, 9, 39, 0
1, 36239, Note_on_c, 9, 42, 0
1, 36240, Note_on_c, 9, 42, 60
1, 36479, Note_on_c, 9, 42, 0
1, 36480, Note_on_c, 9, 42, 127
1, 36480, Note_on_c, 9, 36, 116
1, 36719, Note_on_c, 9, 42, 0
1, 36720, Note_on_c, 9, 42, 60
1, 36959, Note_on_c, 9, 36, 0
1, 36959, Note_on_c, 9, 42, 0
1, 36960, Note_on_c, 9, 38, 116
1, 36960, Note_on_c, 9, 42, 127
1, 36974, Note_on_c, 9, 38, 0
1, 36974, Note_on_c, 9, 42, 0
1, 36975, Note_on_c, 9, 39, 100
1, 37199, Note_on_c, 9, 39, 0
1, 37200, Note_on_c, 9, 42, 60
1, 37439, Note_on_c, 9, 42, 0
1, 37440, Note_on_c, 9, 42, 127
1, 37440, Note_on_c, 9, 36, 116
1, 37679, Note_on_c, 9, 42, 0
1, 37680, Note_on_c, 9, 42, 60
1, 37919, Note_on_c, 9, 36, 0
1, 37919, Note_on_c, 9, 42, 0
1, 37920, Note_on_c, 9, 38, 116
1, 37934, Note_on_c, 9, 38, 0
1, 37935, Note_on_c, 9, 39, 100
1, 37935, Note_on_c, 9, 42, 127
1, 38159, Note_on_c, 9, 39, 0
1, 38159, Note_on_c, 9, 42, 0
1, 38160, Note_on_c, 9, 42, 60
1, 38399, Note_on_c, 9, 42, 0
1, 38400, Note_on_c, 9, 42, 127
1, 38400, Note_on_c, 9, 36, 116
1, 38639, Note_on_c, 9, 42, 0
1, 38640, Note_on_c, 9, 42, 60
1, 38879, Note_on_c, 9, 36, 0
1, 38879, Note_on_c, 9, 42, 0
1, 38880, Note_on_c, 9, 38, 116
1, 38880, Note_on_c, 9, 42, 127
1, 38894, Note_on_c, 9, 38, 0
1, 38894, Note_on_c, 9, 42, 0
1, 38895, Note_on_c, 9, 39, 100
1, 39119, Note_on_c, 9, 39, 0
1, 39120, Note_on_c, 9, 46, 60
1, 39359, Note_on_c, 9, 46, 0
1, 39360, Note_on_c, 9, 42, 127
1, 39360, Note_on_c, 9, 36, 116
1, 39599, Note_on_c, 9, 42, 0
1, 39600, Note_on_c, 9, 42, 60
1, 39839, Note_on_c, 9, 36, 0
1, 39839, Note_on_c, 9, 42, 0
1, 39840, Note_on_c, 9, 38, 116
1, 39840, Note_on_c, 9, 42, 127
1, 39854, Note_on_c, 9, 38, 0
1, 39854, Note_on_c, 9, 42, 0
1, 39855, Note_on_c, 9, 39, 100
1, 40079, Note_on_c, 9, 39, 0
1, 40080, Note_on_c, 9, 42, 60
1, 40319, Note_on_c, 9, 42, 0
1, 40320, Note_on_c, 9, 42, 127
1, 40320, Note_on_c, 9, 36, 116
1, 40559, Note_on_c, 9, 42, 0
1, 40560, Note_on_c, 9, 42, 60
1, 40799, Note_on_c, 9, 36, 0
1, 40799, Note_on_c, 9, 42, 0
1, 40800, Note_on_c, 9, 38, 116
1, 40800, Note_on_c, 9, 42, 127
1, 40814, Note_on_c, 9, 38, 0
1, 40814, Note_on_c, 9, 42, 0
1, 40815, Note_on_c, 9, 39, 100
1, 41039, Note_on_c, 9, 39, 0
1, 41040, Note_on_c, 9, 42, 60
1, 41279, Note_on_c, 9, 42, 0
1, 41280, Note_on_c, 9, 42, 127
1, 41280, Note_on_c, 9, 36, 116
1, 41519, Note_on_c, 9, 42, 0
1, 41520, Note_on_c, 9, 42, 60
1, 41759, Note_on_c, 9, 36, 0
1, 41759, Note_on_c, 9, 42, 0
1, 41760, Note_on_c, 9, 38, 116
1, 41774, Note_on_c, 9, 38, 0
1, 41775, Note_on_c, 9, 39, 100
1, 41775, Note_on_c, 9, 42, 127
1, 41999, Note_on_c, 9, 39, 0
1, 41999, Note_on_c, 9, 42, 0
1, 42000, Note_on_c, 9, 42, 60
1, 42239, Note_on_c, 9, 42, 0
1, 42240, Note_on_c, 9, 42, 127
1, 42240, Note_on_c, 9, 36, 116
1, 42479, Note_on_c, 9, 42, 0
1, 42480, Note_on_c, 9, 42, 60
1, 42719, Note_on_c, 9, 36, 0
1, 42719, Note_on_c, 9, 42, 0
1, 42720, Note_on_c, 9, 38, 116
1, 42720, Note_on_c, 9, 42, 127
1, 42734, Note_on_c, 9, 38, 0
1, 42734, Note_on_c, 9, 42, 0
1, 42735, Note_on_c, 9, 39, 100
1, 42959, Note_on_c, 9, 39, 0
1, 42960, Note_on_c, 9, 42, 60
1, 43199, Note_on_c, 9, 42, 0
1, 43200, Note_on_c, 9, 42, 127
1, 43200, Note_on_c, 9, 36, 116
1, 43439, Note_on_c, 9, 42, 0
1, 43440, Note_on_c, 9, 42, 60
1, 43679, Note_on_c, 9, 36, 0
1, 43679, Note_on_c, 9, 42, 0
1, 43680, Note_on_c, 9, 38, 116
1, 43694, Note_on_c, 9, 38, 0
1, 43695, Note_on_c, 9, 39, 100
1, 43695, Note_on_c, 9, 42, 127
1, 43919, Note_on_c, 9, 39, 0
1, 43919, Note_on_c, 9, 42, 0
1, 43920, Note_on_c, 9, 42, 60
1, 44159, Note_on_c, 9, 42, 0
1, 44160, Note_on_c, 9, 42, 127
1, 44160, Note_on_c, 9, 36, 116
1, 44399, Note_on_c, 9, 42, 0
1, 44400, Note_on_c, 9, 42, 60
1, 44639, Note_on_c, 9, 36, 0
1, 44639, Note_on_c, 9, 42, 0
1, 44640, Note_on_c, 9, 38, 116
1, 44640, Note_on_c, 9, 42, 127
1, 44654, Note_on_c, 9, 38, 0
1, 44654, Note_on_c, 9, 42, 0
1, 44655, Note_on_c, 9, 39, 100
1, 44879, Note_on_c, 9, 39, 0
1, 44880, Note_on_c, 9, 42, 60
1, 45119, Note_on_c, 9, 42, 0
1, 45120, Note_on_c, 9, 42, 127
1, 45120, Note_on_c, 9, 36, 116
1, 45359, Note_on_c, 9, 42, 0
1, 45360, Note_on_c, 9, 42, 60
1, 45599, Note_on_c, 9, 36, 0
1, 45599, Note_on_c, 9, 42, 0
1, 45600, Note_on_c, 9, 38, 116
1, 45614, Note_on_c, 9, 38, 0
1, 45615, Note_on_c, 9, 39, 100
1, 45615, Note_on_c, 9, 42, 127
1, 45839, Note_on_c, 9, 39, 0
1, 45839, Note_on_c, 9, 42, 0
1, 45840, Note_on_c, 9, 42, 60
1, 46079, Note_on_c, 9, 42, 0
1, 46080, Note_on_c, 9, 42, 127
1, 46080, Note_on_c, 9, 36, 116
1, 46319, Note_on_c, 9, 42, 0
1, 46320, Note_on_c, 9, 42, 60
1, 46559, Note_on_c, 9, 36, 0
1, 46559, Note_on_c, 9, 42, 0
1, 46560, Note_on_c, 9, 38, 116
1, 46560, Note_on_c, 9, 42, 127
1, 46574, Note_on_c, 9, 38, 0
1, 46574, Note_on_c, 9, 42, 0
1, 46575, Note_on_c, 9, 39, 100
1, 46799, Note_on_c, 9, 39, 0
1, 46800, Note_on_c, 9, 46, 60
1, 47039, Note_on_c, 9, 46, 0
1, 47040, Note_on_c, 9, 42, 127
1, 47040, Note_on_c, 9, 36, 116
1, 47279, Note_on_c, 9, 42, 0
1, 47280, Note_on_c, 9, 42, 60
1, 47519, Note_on_c, 9, 36, 0
1, 47519, Note_on_c, 9, 42, 0
1, 47520, Note_on_c, 9, 38, 116
1, 47520, Note_on_c, 9, 42, 127
1, 47534, Note_on_c, 9, 38, 0
1, 47534, Note_on_c, 9, 42, 0
1, 47535, Note_on_c, 9, 39, 100
1, 47759, Note_on_c, 9, 39, 0
1, 47760, Note_on_c, 9, 42, 60
1, 47999, Note_on_c, 9, 42, 0
1, 48000, Note_on_c, 9, 42, 127
1, 48000, Note_on_c, 9, 36, 116
1, 48239, Note_on_c, 9, 42, 0
1, 48240, Note_on_c, 9, 42, 60
1, 48479, Note_on_c, 9, 36, 0
1, 48479, Note_on_c, 9, 42, 0
1, 48480, Note_on_c, 9, 38, 116
1, 48494, Note_on_c, 9, 38, 0
1, 48495, Note_on_c, 9, 39, 100
1, 48495, Note_on_c, 9, 42, 127
1, 48719, Note_on_c, 9, 39, 0
1, 48719, Note_on_c, 9, 42, 0
1, 48720, Note_on_c, 9, 42, 60
1, 48720, Note_on_c, 9, 36, 116
1, 48959, Note_on_c, 9, 42, 0
1, 48959, Note_on_c, 9, 36, 0
1, 48960, Note_on_c, 9, 38, 116
1, 48960, Note_on_c, 9, 36, 116
1, 48974, Note_on_c, 9, 38, 0
1, 48975, Note_on_c, 9, 39, 100
1, 48975, Note_on_c, 9, 42, 127
1, 49199, Note_on_c, 9, 36, 0
1, 49199, Note_on_c, 9, 39, 0
1, 49199, Note_on_c, 9, 42, 0
1, 49200, Note_on_c, 9, 42, 60
1, 49200, Note_on_c, 9, 36, 116
1, 49439, Note_on_c, 9, 42, 0
1, 49439, Note_on_c, 9, 36, 0
1, 49440, Note_on_c, 9, 38, 116
1, 49440, Note_on_c, 9, 42, 127
1, 49454, Note_on_c, 9, 38, 0
1, 49454, Note_on_c, 9, 42, 0
1, 49455, Note_on_c, 9, 39, 100
1, 49679, Note_on_c, 9, 39, 0
1, 49680, Note_on_c, 9, 42, 60
1, 49680, Note_on_c, 9, 36, 116
1, 49919, Note_on_c, 9, 42, 0
1, 49919, Note_on_c, 9, 36, 0
1, 49920, Note_on_c, 9, 42, 127
1, 49920, Note_on_c, 9, 54, 64
1, 49920, Note_on_c, 9, 36, 116
1, 50159, Note_on_c, 9, 42, 0
1, 50159, Note_on_c, 9, 54, 0
1, 50160, Note_on_c, 9, 42, 60
1, 50160, Note_on_c, 9, 54, 64
1, 50399, Note_on_c, 9, 36, 0
1, 50399, Note_on_c, 9, 42, 0
1, 50399, Note_on_c, 9, 54, 0
1, 50400, Note_on_c, 9, 38, 116
1, 50400, Note_on_c, 9, 39, 100
1, 50400, Note_on_c, 9, 42, 127
1, 50400, Note_on_c, 9, 54, 64
1, 50639, Note_on_c, 9, 38, 0
1, 50639, Note_on_c, 9, 39, 0
1, 50639, Note_on_c, 9, 42, 0
1, 50639, Note_on_c, 9, 54, 0
1, 50640, Note_on_c, 9, 42, 60
1, 50640, Note_on_c, 9, 54, 64
1, 50879, Note_on_c, 9, 42, 0
1, 50879, Note_on_c, 9, 54, 0
1, 50880, Note_on_c, 9, 42, 127
1, 50880, Note_on_c, 9, 54, 64
1, 50880, Note_on_c, 9, 36, 116
1, 51119, Note_on_c, 9, 42, 0
1, 51119, Note_on_c, 9, 54, 0
1, 51120, Note_on_c, 9, 42, 60
1, 51120, Note_on_c, 9, 54, 64
1, 51359, Note_on_c, 9, 36, 0
1, 51359, Note_on_c, 9, 42, 0
1, 51359, Note_on_c, 9, 54, 0
1, 51360, Note_on_c, 9, 38, 116
1, 51360, Note_on_c, 9, 39, 100
1, 51360, Note_on_c, 9, 42, 127
1, 51360, Note_on_c, 9, 54, 64
1, 51599, Note_on_c, 9, 38, 0
1, 51599, Note_on_c, 9, 39, 0
1, 51599, Note_on_c, 9, 42, 0
1, 51599, Note_on_c, 9, 54, 0
1, 51600, Note_on_c, 9, 42, 60
1, 51600, Note_on_c, 9, 54, 64
1, 51839, Note_on_c, 9, 42, 0
1, 51839, Note_on_c, 9, 54, 0
1, 51840, Note_on_c, 9, 42, 127
1, 51840, Note_on_c, 9, 54, 64
1, 51840, Note_on_c, 9, 36, 116
1, 52079, Note_on_c, 9, 42, 0
1, 52079, Note_on_c, 9, 54, 0
1, 52080, Note_on_c, 9, 42, 60
1, 52080, Note_on_c, 9, 54, 64
1, 52319, Note_on_c, 9, 36, 0
1, 52319, Note_on_c, 9, 42, 0
1, 52319, Note_on_c, 9, 54, 0
1, 52320, Note_on_c, 9, 38, 116
1, 52320, Note_on_c, 9, 39, 100
1, 52320, Note_on_c, 9, 42, 127
1, 52320, Note_on_c, 9, 54, 64
1, 52559, Note_on_c, 9, 38, 0
1, 52559, Note_on_c, 9, 39, 0
1, 52559, Note_on_c, 9, 42, 0
1, 52559, Note_on_c, 9, 54, 0
1, 52560, Note_on_c, 9, 42, 60
1, 52560, Note_on_c, 9, 54, 64
1, 52799, Note_on_c, 9, 42, 0
1, 52799, Note_on_c, 9, 54, 0
1, 52800, Note_on_c, 9, 42, 127
1, 52800, Note_on_c, 9, 54, 64
1, 52800, Note_on_c, 9, 36, 116
1, 53039, Note_on_c, 9, 42, 0
1, 53039, Note_on_c, 9, 54, 0
1, 53040, Note_on_c, 9, 42, 60
1, 53040, Note_on_c, 9, 54, 64
1, 53279, Note_on_c, 9, 36, 0
1, 53279, Note_on_c, 9, 42, 0
1, 53279, Note_on_c, 9, 54, 0
1, 53280, Note_on_c, 9, 38, 116
1, 53280, Note_on_c, 9, 39, 100
1, 53280, Note_on_c, 9, 42, 127
1, 53280, Note_on_c, 9, 54, 64
1, 53519, Note_on_c, 9, 38, 0
1, 53519, Note_on_c, 9, 39, 0
1, 53519, Note_on_c, 9, 42, 0
1, 53519, Note_on_c, 9, 54, 0
1, 53520, Note_on_c, 9, 42, 60
1, 53520, Note_on_c, 9, 54, 64
1, 53759, Note_on_c, 9, 42, 0
1, 53759, Note_on_c, 9, 54, 0
1, 53760, Note_on_c, 9, 42, 127
1, 53760, Note_on_c, 9, 54, 64
1, 53760, Note_on_c, 9, 36, 116
1, 53999, Note_on_c, 9, 42, 0
1, 53999, Note_on_c, 9, 54, 0
1, 54000, Note_on_c, 9, 42, 60
1, 54000, Note_on_c, 9, 54, 64
1, 54239, Note_on_c, 9, 36, 0
1, 54239, Note_on_c, 9, 42, 0
1, 54239, Note_on_c, 9, 54, 0
1, 54240, Note_on_c, 9, 38, 116
1, 54240, Note_on_c, 9, 39, 100
1, 54240, Note_on_c, 9, 42, 127
1, 54240, Note_on_c, 9, 54, 64
1, 54479, Note_on_c, 9, 38, 0
1, 54479, Note_on_c, 9, 39, 0
1, 54479, Note_on_c, 9, 42, 0
1, 54479, Note_on_c, 9, 54, 0
1, 54480, Note_on_c, 9, 46, 60
1, 54480, Note_on_c, 9, 54, 64
1, 54719, Note_on_c, 9, 46, 0
1, 54719, Note_on_c, 9, 54, 0
1, 54720, Note_on_c, 9, 42, 127
1, 54720, Note_on_c, 9, 54, 64
1, 54720, Note_on_c, 9, 36, 116
1, 54959, Note_on_c, 9, 42, 0
1, 54959, Note_on_c, 9, 54, 0
1, 54960, Note_on_c, 9, 42, 60
1, 54960, Note_on_c, 9, 54, 64
1, 55199, Note_on_c, 9, 36, 0
1, 55199, Note_on_c, 9, 42, 0
1, 55199, Note_on_c, 9, 54, 0
1, 55200, Note_on_c, 9, 38, 116
1, 55200, Note_on_c, 9, 39, 100
1, 55200, Note_on_c, 9, 42, 127
1, 55200, Note_on_c, 9, 54, 64
1, 55439, Note_on_c, 9, 38, 0
1, 55439, Note_on_c, 9, 39, 0
1, 55439, Note_on_c, 9, 42, 0
1, 55439, Note_on_c, 9, 54, 0
1, 55440, Note_on_c, 9, 42, 60
1, 55440, Note_on_c, 9, 54, 64
1, 55679, Note_on_c, 9, 42, 0
1, 55679, Note_on_c, 9, 54, 0
1, 55680, Note_on_c, 9, 42, 127
1, 55680, Note_on_c, 9, 54, 64
1, 55680, Note_on_c, 9, 36, 116
1, 55919, Note_on_c, 9, 42, 0
1, 55919, Note_on_c, 9, 54, 0
1, 55920, Note_on_c, 9, 42, 60
1, 55920, Note_on_c, 9, 54, 64
1, 56159, Note_on_c, 9, 36, 0
1, 56159, Note_on_c, 9, 42, 0
1, 56159, Note_on_c, 9, 54, 0
1, 56160, Note_on_c, 9, 38, 116
1, 56160, Note_on_c, 9, 39, 100
1, 56160, Note_on_c, 9, 42, 127
1, 56160, Note_on_c, 9, 54, 64
1, 56399, Note_on_c, 9, 38, 0
1, 56399, Note_on_c, 9, 39, 0
1, 56399, Note_on_c, 9, 42, 0
1, 56399, Note_on_c, 9, 54, 0
1, 56400, Note_on_c, 9, 42, 60
1, 56400, Note_on_c, 9, 54, 64
1, 56639, Note_on_c, 9, 42, 0
1, 56639, Note_on_c, 9, 54, 0
1, 56640, Note_on_c, 9, 42, 127
1, 56640, Note_on_c, 9, 54, 64
1, 56640, Note_on_c, 9, 36, 116
1, 56879, Note_on_c, 9, 42, 0
1, 56879, Note_on_c, 9, 54, 0
1, 56880, Note_on_c, 9, 42, 60
1, 56880, Note_on_c, 9, 54, 64
1, 57119, Note_on_c, 9, 36, 0
1, 57119, Note_on_c, 9, 42, 0
1, 57119, Note_on_c, 9, 54, 0
1, 57120, Note_on_c, 9, 38, 116
1, 57120, Note_on_c, 9, 39, 100
1, 57120, Note_on_c, 9, 42, 127
1, 57120, Note_on_c, 9, 54, 64
1, 57359, Note_on_c, 9, 38, 0
1, 57359, Note_on_c, 9, 39, 0
1, 57359, Note_on_c, 9, 42, 0
1, 57359, Note_on_c, 9, 54, 0
1, 57360, Note_on_c, 9, 42, 60
1, 57360, Note_on_c, 9, 54, 64
1, 57599, Note_on_c, 9, 42, 0
1, 57599, Note_on_c, 9, 54, 0
1, 57600, Note_on_c, 9, 42, 127
1, 57600, Note_on_c, 9, 54, 64
1, 57600, Note_on_c, 9, 36, 116
1, 57839, Note_on_c, 9, 42, 0
1, 57839, Note_on_c, 9, 54, 0
1, 57840, Note_on_c, 9, 42, 60
1, 57840, Note_on_c, 9, 54, 64
1, 58079, Note_on_c, 9, 36, 0
1, 58079, Note_on_c, 9, 42, 0
1, 58079, Note_on_c, 9, 54, 0
1, 58080, Note_on_c, 9, 38, 116
1, 58080, Note_on_c, 9, 39, 100
1, 58080, Note_on_c, 9, 42, 127
1, 58080, Note_on_c, 9, 54, 64
1, 58319, Note_on_c, 9, 38, 0
1, 58319, Note_on_c, 9, 39, 0
1, 58319, Note_on_c, 9, 42, 0
1, 58319, Note_on_c, 9, 54, 0
1, 58320, Note_on_c, 9, 42, 60
1, 58320, Note_on_c, 9, 54, 64
1, 58559, Note_on_c, 9, 42, 0
1, 58559, Note_on_c, 9, 54, 0
1, 58560, Note_on_c, 9, 42, 127
1, 58560, Note_on_c, 9, 54, 64
1, 58560, Note_on_c, 9, 36, 116
1, 58799, Note_on_c, 9, 42, 0
1, 58799, Note_on_c, 9, 54, 0
1, 58800, Note_on_c, 9, 42, 60
1, 58800, Note_on_c, 9, 54, 64
1, 59039, Note_on_c, 9, 36, 0
1, 59039, Note_on_c, 9, 42, 0
1, 59039, Note_on_c, 9, 54, 0
1, 59040, Note_on_c, 9, 38, 116
1, 59040, Note_on_c, 9, 39, 100
1, 59040, Note_on_c, 9, 42, 127
1, 59040, Note_on_c, 9, 54, 64
1, 59279, Note_on_c, 9, 38, 0
1, 59279, Note_on_c, 9, 39, 0
1, 59279, Note_on_c, 9, 42, 0
1, 59279, Note_on_c, 9, 54, 0
1, 59280, Note_on_c, 9, 42, 60
1, 59280, Note_on_c, 9, 54, 64
1, 59519, Note_on_c, 9, 42, 0
1, 59519, Note_on_c, 9, 54, 0
1, 59520, Note_on_c, 9, 42, 127
1, 59520, Note_on_c, 9, 54, 64
1, 59520, Note_on_c, 9, 36, 116
1, 59759, Note_on_c, 9, 42, 0
1, 59759, Note_on_c, 9, 54, 0
1, 59760, Note_on_c, 9, 42, 60
1, 59760, Note_on_c, 9, 54, 64
1, 59999, Note_on_c, 9, 36, 0
1, 59999, Note_on_c, 9, 42, 0
1, 59999, Note_on_c, 9, 54, 0
1, 60000, Note_on_c, 9, 38, 116
1, 60000, Note_on_c, 9, 39, 100
1, 60000, Note_on_c, 9, 42, 127
1, 60000, Note_on_c, 9, 54, 64
1, 60239, Note_on_c, 9, 38, 0
1, 60239, Note_on_c, 9, 39, 0
1, 60239, Note_on_c, 9, 42, 0
1, 60239, Note_on_c, 9, 54, 0
1, 60240, Note_on_c, 9, 42, 60
1, 60240, Note_on_c, 9, 54, 64
1, 60479, Note_on_c, 9, 42, 0
1, 60479, Note_on_c, 9, 54, 0
1, 60480, Note_on_c, 9, 42, 127
1, 60480, Note_on_c, 9, 54, 64
1, 60480, Note_on_c, 9, 36, 116
1, 60719, Note_on_c, 9, 42, 0
1, 60719, Note_on_c, 9, 54, 0
1, 60720, Note_on_c, 9, 42, 60
1, 60720, Note_on_c, 9, 54, 64
1, 60959, Note_on_c, 9, 36, 0
1, 60959, Note_on_c, 9, 42, 0
1, 60959, Note_on_c, 9, 54, 0
1, 60960, Note_on_c, 9, 38, 116
1, 60960, Note_on_c, 9, 39, 100
1, 60960, Note_on_c, 9, 42, 127
1, 60960, Note_on_c, 9, 54, 64
1, 61199, Note_on_c, 9, 38, 0
1, 61199, Note_on_c, 9, 39, 0
1, 61199, Note_on_c, 9, 42, 0
1, 61199, Note_on_c, 9, 54, 0
1, 61200, Note_on_c, 9, 42, 60
1, 61200, Note_on_c, 9, 54, 64
1, 61439, Note_on_c, 9, 42, 0
1, 61439, Note_on_c, 9, 54, 0
1, 61440, Note_on_c, 9, 42, 127
1, 61440, Note_on_c, 9, 54, 64
1, 61440, Note_on_c, 9, 36, 116
1, 61679, Note_on_c, 9, 42, 0
1, 61679, Note_on_c, 9, 54, 0
1, 61680, Note_on_c, 9, 42, 60
1, 61680, Note_on_c, 9, 54, 64
1, 61919, Note_on_c, 9, 36, 0
1, 61919, Note_on_c, 9, 42, 0
1, 61919, Note_on_c, 9, 54, 0
1, 61920, Note_on_c, 9, 38, 116
1, 61920, Note_on_c, 9, 39, 100
1, 61920, Note_on_c, 9, 42, 127
1, 61920, Note_on_c, 9, 54, 64
1, 62159, Note_on_c, 9, 38, 0
1, 62159, Note_on_c, 9, 39, 0
1, 62159, Note_on_c, 9, 42, 0
1, 62159, Note_on_c, 9, 54, 0
1, 62160, Note_on_c, 9, 46, 60
1, 62160, Note_on_c, 9, 54, 64
1, 62399, Note_on_c, 9, 46, 0
1, 62399, Note_on_c, 9, 54, 0
1, 62400, Note_on_c, 9, 42, 127
1, 62400, Note_on_c, 9, 54, 64
1, 62400, Note_on_c, 9, 36, 116
1, 62639, Note_on_c, 9, 42, 0
1, 62639, Note_on_c, 9, 54, 0
1, 62640, Note_on_c, 9, 42, 60
1, 62640, Note_on_c, 9, 54, 64
1, 62879, Note_on_c, 9, 36, 0
1, 62879, Note_on_c, 9, 42, 0
1, 62879, Note_on_c, 9, 54, 0
1, 62880, Note_on_c, 9, 38, 116
1, 62880, Note_on_c, 9, 39, 100
1, 62880, Note_on_c, 9, 42, 127
1, 62880, Note_on_c, 9, 54, 64
1, 63119, Note_on_c, 9, 38, 0
1, 63119, Note_on_c, 9, 39, 0
1, 63119, Note_on_c, 9, 42, 0
1, 63119, Note_on_c, 9, 54, 0
1, 63120, Note_on_c, 9, 42, 60
1, 63120, Note_on_c, 9, 54, 64
1, 63359, Note_on_c, 9, 42, 0
1, 63359, Note_on_c, 9, 54, 0
1, 63360, Note_on_c, 9, 42, 127
1, 63360, Note_on_c, 9, 54, 64
1, 63360, Note_on_c, 9, 36, 116
1, 63599, Note_on_c, 9, 42, 0
1, 63599, Note_on_c, 9, 54, 0
1, 63600, Note_on_c, 9, 42, 60
1, 63600, Note_on_c, 9, 54, 64
1, 63839, Note_on_c, 9, 36, 0
1, 63839, Note_on_c, 9, 42, 0
1, 63839, Note_on_c, 9, 54, 0
1, 63840, Note_on_c, 9, 38, 116
1, 63840, Note_on_c, 9, 39, 100
1, 63840, Note_on_c, 9, 42, 127
1, 63840, Note_on_c, 9, 54, 64
1, 64079, Note_on_c, 9, 38, 0
1, 64079, Note_on_c, 9, 39, 0
1, 64079, Note_on_c, 9, 42, 0
1, 64079, Note_on_c, 9, 54, 0
1, 64080, Note_on_c, 9, 42, 60
1, 64080, Note_on_c, 9, 54, 64
1, 64080, Note_on_c, 9, 36, 116
1, 64319, Note_on_c, 9, 42, 0
1, 64319, Note_on_c, 9, 54, 0
1, 64319, Note_on_c, 9, 36, 0
1, 64320, Note_on_c, 9, 38, 116
1, 64320, Note_on_c, 9, 39, 100
1, 64320, Note_on_c, 9, 42, 127
1, 64320, Note_on_c, 9, 54, 64
1, 64320, Note_on_c, 9, 36, 116
1, 64559, Note_on_c, 9, 38, 0
1, 64559, Note_on_c, 9, 39, 0
1, 64559, Note_on_c, 9, 42, 0
1, 64559, Note_on_c, 9, 54, 0
1, 64559, Note_on_c, 9, 36, 0
1, 64560, Note_on_c, 9, 42, 60
1, 64560, Note_on_c, 9, 54, 64
1, 64560, Note_on_c, 9, 36, 116
1, 64799, Note_on_c, 9, 42, 0
1, 64799, Note_on_c, 9, 54, 0
1, 64799, Note_on_c, 9, 36, 0
1, 64800, Note_on_c, 9, 38, 116
1, 64800, Note_on_c, 9, 39, 100
1, 64800, Note_on_c, 9, 42, 127
1, 64800, Note_on_c, 9, 54, 64
1, 65039, Note_on_c, 9, 38, 0
1, 65039, Note_on_c, 9, 39, 0
1, 65039, Note_on_c, 9, 42, 0
1, 65039, Note_on_c, 9, 54, 0
1, 65040, Note_on_c, 9, 42, 60
1, 65040, Note_on_c, 9, 54, 64
1, 65040, Note_on_c, 9, 36, 116
1, 65279, Note_on_c, 9, 42, 0
1, 65279, Note_on_c, 9, 54, 0
1, 65279, Note_on_c, 9, 36, 0
1, 65280, Note_on_c, 9, 42, 127
1, 65280, Note_on_c, 9, 46, 60
1, 65280, Note_on_c, 9, 54, 64
1, 65280, Note_on_c, 9, 36, 116
1, 65519, Note_on_c, 9, 42, 0
1, 65519, Note_on_c, 9, 46, 0
1, 65519, Note_on_c, 9, 54, 0
1, 65520, Note_on_c, 9, 42, 60
1, 65520, Note_on_c, 9, 54, 64
1, 65759, Note_on_c, 9, 36, 0
1, 65759, Note_on_c, 9, 42, 0
1, 65759, Note_on_c, 9, 54, 0
1, 65760, Note_on_c, 9, 38, 116
1, 65760, Note_on_c, 9, 39, 100
1, 65760, Note_on_c, 9, 42, 127
1, 65760, Note_on_c, 9, 54, 64
1, 65999, Note_on_c, 9, 38, 0
1, 65999, Note_on_c, 9, 39, 0
1, 65999, Note_on_c, 9, 42, 0
1, 65999, Note_on_c, 9, 54, 0
1, 66000, Note_on_c, 9, 42, 60
1, 66000, Note_on_c, 9, 54, 64
1, 66239, Note_on_c, 9, 42, 0
1, 66239, Note_on_c, 9, 54, 0
1, 66240, Note_on_c, 9, 42, 127
1, 66240, Note_on_c, 9, 54, 64
1, 66240, Note_on_c, 9, 36, 116
1, 66479, Note_on_c, 9, 42, 0
1, 66479, Note_on_c, 9, 54, 0
1, 66480, Note_on_c, 9, 42, 60
1, 66480, Note_on_c, 9, 54, 64
1, 66719, Note_on_c, 9, 36, 0
1, 66719, Note_on_c, 9, 42, 0
1, 66719, Note_on_c, 9, 54, 0
1, 66720, Note_on_c, 9, 38, 116
1, 66720, Note_on_c, 9, 39, 100
1, 66720, Note_on_c, 9, 42, 127
1, 66720, Note_on_c, 9, 54, 64
1, 66959, Note_on_c, 9, 38, 0
1, 66959, Note_on_c, 9, 39, 0
1, 66959, Note_on_c, 9, 42, 0
1, 66959, Note_on_c, 9, 54, 0
1, 66960, Note_on_c, 9, 42, 60
1, 66960, Note_on_c, 9, 54, 64
1, 67199, Note_on_c, 9, 42, 0
1, 67199, Note_on_c, 9, 54, 0
1, 67200, Note_on_c, 9, 42, 127
1, 67200, Note_on_c, 9, 54, 64
1, 67200, Note_on_c, 9, 36, 116
1, 67439, Note_on_c, 9, 42, 0
1, 67439, Note_on_c, 9, 54, 0
1, 67440, Note_on_c, 9, 42, 60
1, 67440, Note_on_c, 9, 54, 64
1, 67679, Note_on_c, 9, 36, 0
1, 67679, Note_on_c, 9, 42, 0
1, 67679, Note_on_c, 9, 54, 0
1, 67680, Note_on_c, 9, 38, 116
1, 67680, Note_on_c, 9, 39, 100
1, 67680, Note_on_c, 9, 42, 127
1, 67680, Note_on_c, 9, 54, 64
1, 67919, Note_on_c, 9, 38, 0
1, 67919, Note_on_c, 9, 39, 0
1, 67919, Note_on_c, 9, 42, 0
1, 67919, Note_on_c, 9, 54, 0
1, 67920, Note_on_c, 9, 42, 60
1, 67920, Note_on_c, 9, 54, 64
1, 68159, Note_on_c, 9, 42, 0
1, 68159, Note_on_c, 9, 54, 0
1, 68160, Note_on_c, 9, 42, 127
1, 68160, Note_on_c, 9, 54, 64
1, 68160, Note_on_c, 9, 36, 116
1, 68399, Note_on_c, 9, 42, 0
1, 68399, Note_on_c, 9, 54, 0
1, 68400, Note_on_c, 9, 42, 60
1, 68400, Note_on_c, 9, 54, 64
1, 68639, Note_on_c, 9, 36, 0
1, 68639, Note_on_c, 9, 42, 0
1, 68639, Note_on_c, 9, 54, 0
1, 68640, Note_on_c, 9, 38, 116
1, 68640, Note_on_c, 9, 39, 100
1, 68640, Note_on_c, 9, 42, 127
1, 68640, Note_on_c, 9, 54, 64
1, 68879, Note_on_c, 9, 38, 0
1, 68879, Note_on_c, 9, 39, 0
1, 68879, Note_on_c, 9, 42, 0
1, 68879, Note_on_c, 9, 54, 0
1, 68880, Note_on_c, 9, 42, 60
1, 68880, Note_on_c, 9, 54, 64
1, 69119, Note_on_c, 9, 42, 0
1, 69119, Note_on_c, 9, 54, 0
1, 69120, Note_on_c, 9, 42, 127
1, 69120, Note_on_c, 9, 54, 64
1, 69120, Note_on_c, 9, 36, 116
1, 69359, Note_on_c, 9, 42, 0
1, 69359, Note_on_c, 9, 54, 0
1, 69360, Note_on_c, 9, 42, 60
1, 69360, Note_on_c, 9, 54, 64
1, 69599, Note_on_c, 9, 36, 0
1, 69599, Note_on_c, 9, 42, 0
1, 69599, Note_on_c, 9, 54, 0
1, 69600, Note_on_c, 9, 38, 116
1, 69600, Note_on_c, 9, 39, 100
1, 69600, Note_on_c, 9, 42, 127
1, 69600, Note_on_c, 9, 54, 64
1, 69839, Note_on_c, 9, 38, 0
1, 69839, Note_on_c, 9, 39, 0
1, 69839, Note_on_c, 9, 42, 0
1, 69839, Note_on_c, 9, 54, 0
1, 69840, Note_on_c, 9, 46, 60
1, 69840, Note_on_c, 9, 54, 64
1, 70079, Note_on_c, 9, 46, 0
1, 70079, Note_on_c, 9, 54, 0
1, 70080, Note_on_c, 9, 42, 127
1, 70080, Note_on_c, 9, 54, 64
1, 70080, Note_on_c, 9, 36, 116
1, 70319, Note_on_c, 9, 42, 0
1, 70319, Note_on_c, 9, 54, 0
1, 70320, Note_on_c, 9, 42, 60
1, 70320, Note_on_c, 9, 54, 64
1, 70559, Note_on_c, 9, 36, 0
1, 70559, Note_on_c, 9, 42, 0
1, 70559, Note_on_c, 9, 54, 0
1, 70560, Note_on_c, 9, 38, 116
1, 70560, Note_on_c, 9, 39, 100
1, 70560, Note_on_c, 9, 42, 127
1, 70560, Note_on_c, 9, 54, 64
1, 70799, Note_on_c, 9, 38, 0
1, 70799, Note_on_c, 9, 39, 0
1, 70799, Note_on_c, 9, 42, 0
1, 70799, Note_on_c, 9, 54, 0
1, 70800, Note_on_c, 9, 42, 60
1, 70800, Note_on_c, 9, 54, 64
1, 71039, Note_on_c, 9, 42, 0
1, 71039, Note_on_c, 9, 54, 0
1, 71040, Note_on_c, 9, 42, 127
1, 71040, Note_on_c, 9, 54, 64
1, 71040, Note_on_c, 9, 36, 116
1, 71279, Note_on_c, 9, 42, 0
1, 71279, Note_on_c, 9, 54, 0
1, 71280, Note_on_c, 9, 42, 60
1, 71280, Note_on_c, 9, 54, 64
1, 71519, Note_on_c, 9, 36, 0
1, 71519, Note_on_c, 9, 42, 0
1, 71519, Note_on_c, 9, 54, 0
1, 71520, Note_on_c, 9, 38, 116
1, 71520, Note_on_c, 9, 39, 100
1, 71520, Note_on_c, 9, 42, 127
1, 71520, Note_on_c, 9, 54, 64
1, 71759, Note_on_c, 9, 38, 0
1, 71759, Note_on_c, 9, 39, 0
1, 71759, Note_on_c, 9, 42, 0
1, 71759, Note_on_c, 9, 54, 0
1, 71760, Note_on_c, 9, 42, 60
1, 71760, Note_on_c, 9, 54, 64
1, 71999, Note_on_c, 9, 42, 0
1, 71999, Note_on_c, 9, 54, 0
1, 72000, Note_on_c, 9, 42, 127
1, 72000, Note_on_c, 9, 54, 64
1, 72000, Note_on_c, 9, 36, 116
1, 72239, Note_on_c, 9, 42, 0
1, 72239, Note_on_c, 9, 54, 0
1, 72240, Note_on_c, 9, 42, 60
1, 72240, Note_on_c, 9, 54, 64
1, 72479, Note_on_c, 9, 36, 0
1, 72479, Note_on_c, 9, 42, 0
1, 72479, Note_on_c, 9, 54, 0
1, 72480, Note_on_c, 9, 38, 116
1, 72480, Note_on_c, 9, 39, 100
1, 72480, Note_on_c, 9, 42, 127
1, 72480, Note_on_c, 9, 54, 64
1, 72719, Note_on_c, 9, 38, 0
1, 72719, Note_on_c, 9, 39, 0
1, 72719, Note_on_c, 9, 42, 0
1, 72719, Note_on_c, 9, 54, 0
1, 72720, Note_on_c, 9, 42, 60
1, 72720, Note_on_c, 9, 54, 64
1, 72959, Note_on_c, 9, 42, 0
1, 72959, Note_on_c, 9, 54, 0
1, 72960, Note_on_c, 9, 42, 127
1, 72960, Note_on_c, 9, 54, 64
1, 72960, Note_on_c, 9, 36, 116
1, 73199, Note_on_c, 9, 42, 0
1, 73199, Note_on_c, 9, 54, 0
1, 73200, Note_on_c, 9, 42, 60
1, 73200, Note_on_c, 9, 54, 64
1, 73439, Note_on_c, 9, 36, 0
1, 73439, Note_on_c, 9, 42, 0
1, 73439, Note_on_c, 9, 54, 0
1, 73440, Note_on_c, 9, 38, 116
1, 73440, Note_on_c, 9, 39, 100
1, 73440, Note_on_c, 9, 42, 127
1, 73440, Note_on_c, 9, 54, 64
1, 73679, Note_on_c, 9, 38, 0
1, 73679, Note_on_c, 9, 39, 0
1, 73679, Note_on_c, 9, 42, 0
1, 73679, Note_on_c, 9, 54, 0
1, 73680, Note_on_c, 9, 42, 60
1, 73680, Note_on_c, 9, 54, 64
1, 73919, Note_on_c, 9, 42, 0
1, 73919, Note_on_c, 9, 54, 0
1, 73920, Note_on_c, 9, 42, 127
1, 73920, Note_on_c, 9, 54, 64
1, 73920, Note_on_c, 9, 36, 116
1, 74159, Note_on_c, 9, 42, 0
1, 74159, Note_on_c, 9, 54, 0
1, 74160, Note_on_c, 9, 42, 60
1, 74160, Note_on_c, 9, 54, 64
1, 74399, Note_on_c, 9, 36, 0
1, 74399, Note_on_c, 9, 42, 0
1, 74399, Note_on_c, 9, 54, 0
1, 74400, Note_on_c, 9, 38, 116
1, 74400, Note_on_c, 9, 39, 100
1, 74400, Note_on_c, 9, 42, 127
1, 74400, Note_on_c, 9, 54, 64
1, 74639, Note_on_c, 9, 38, 0
1, 74639, Note_on_c, 9, 39, 0
1, 74639, Note_on_c, 9, 42, 0
1, 74639, Note_on_c, 9, 54, 0
1, 74640, Note_on_c, 9, 42, 60
1, 74640, Note_on_c, 9, 54, 64
1, 74879, Note_on_c, 9, 42, 0
1, 74879, Note_on_c, 9, 54, 0
1, 74880, Note_on_c, 9, 42, 127
1, 74880, Note_on_c, 9, 54, 64
1, 74880, Note_on_c, 9, 36, 116
1, 75119, Note_on_c, 9, 42, 0
1, 75119, Note_on_c, 9, 54, 0
1, 75120, Note_on_c, 9, 42, 60
1, 75120, Note_on_c, 9, 54, 64
1, 75359, Note_on_c, 9, 36, 0
1, 75359, Note_on_c, 9, 42, 0
1, 75359, Note_on_c, 9, 54, 0
1, 75360, Note_on_c, 9, 38, 116
1, 75360, Note_on_c, 9, 39, 100
1, 75360, Note_on_c, 9, 42, 127
1, 75360, Note_on_c, 9, 54, 64
1, 75599, Note_on_c, 9, 38, 0
1, 75599, Note_on_c, 9, 39, 0
1, 75599, Note_on_c, 9, 42, 0
1, 75599, Note_on_c, 9, 54, 0
1, 75600, Note_on_c, 9, 42, 60
1, 75600, Note_on_c, 9, 54, 64
1, 75839, Note_on_c, 9, 42, 0
1, 75839, Note_on_c, 9, 54, 0
1, 75840, Note_on_c, 9, 42, 127
1, 75840, Note_on_c, 9, 54, 64
1, 75840, Note_on_c, 9, 36, 116
1, 76079, Note_on_c, 9, 42, 0
1, 76079, Note_on_c, 9, 54, 0
1, 76080, Note_on_c, 9, 42, 60
1, 76080, Note_on_c, 9, 54, 64
1, 76319, Note_on_c, 9, 36, 0
1, 76319, Note_on_c, 9, 42, 0
1, 76319, Note_on_c, 9, 54, 0
1, 76320, Note_on_c, 9, 38, 116
1, 76320, Note_on_c, 9, 39, 100
1, 76320, Note_on_c, 9, 42, 127
1, 76320, Note_on_c, 9, 54, 64
1, 76559, Note_on_c, 9, 38, 0
1, 76559, Note_on_c, 9, 39, 0
1, 76559, Note_on_c, 9, 42, 0
1, 76559, Note_on_c, 9, 54, 0
1, 76560, Note_on_c, 9, 42, 60
1, 76560, Note_on_c, 9, 54, 64
1, 76799, Note_on_c, 9, 42, 0
1, 76799, Note_on_c, 9, 54, 0
1, 76800, Note_on_c, 9, 42, 127
1, 76800, Note_on_c, 9, 54, 64
1, 76800, Note_on_c, 9, 36, 116
1, 77039, Note_on_c, 9, 42, 0
1, 77039, Note_on_c, 9, 54, 0
1, 77040, Note_on_c, 9, 42, 60
1, 77040, Note_on_c, 9, 54, 64
1, 77279, Note_on_c, 9, 36, 0
1, 77279, Note_on_c, 9, 42, 0
1, 77279, Note_on_c, 9, 54, 0
1, 77280, Note_on_c, 9, 38, 116
1, 77280, Note_on_c, 9, 39, 100
1, 77280, Note_on_c, 9, 42, 127
1, 77280, Note_on_c, 9, 54, 64
1, 77519, Note_on_c, 9, 38, 0
1, 77519, Note_on_c, 9, 39, 0
1, 77519, Note_on_c, 9, 42, 0
1, 77519, Note_on_c, 9, 54, 0
1, 77520, Note_on_c, 9, 46, 60
1, 77520, Note_on_c, 9, 54, 64
1, 77759, Note_on_c, 9, 46, 0
1, 77759, Note_on_c, 9, 54, 0
1, 77760, Note_on_c, 9, 42, 127
1, 77760, Note_on_c, 9, 54, 64
1, 77760, Note_on_c, 9, 36, 116
1, 77999, Note_on_c, 9, 42, 0
1, 77999, Note_on_c, 9, 54, 0
1, 78000, Note_on_c, 9, 42, 60
1, 78000, Note_on_c, 9, 54, 64
1, 78239, Note_on_c, 9, 36, 0
1, 78239, Note_on_c, 9, 42, 0
1, 78239, Note_on_c, 9, 54, 0
1, 78240, Note_on_c, 9, 38, 116
1, 78240, Note_on_c, 9, 39, 100
1, 78240, Note_on_c, 9, 42, 127
1, 78240, Note_on_c, 9, 54, 64
1, 78479, Note_on_c, 9, 38, 0
1, 78479, Note_on_c, 9, 39, 0
1, 78479, Note_on_c, 9, 42, 0
1, 78479, Note_on_c, 9, 54, 0
1, 78480, Note_on_c, 9, 42, 60
1, 78480, Note_on_c, 9, 54, 64
1, 78719, Note_on_c, 9, 42, 0
1, 78719, Note_on_c, 9, 54, 0
1, 78720, Note_on_c, 9, 42, 127
1, 78720, Note_on_c, 9, 54, 64
1, 78720, Note_on_c, 9, 36, 116
1, 78959, Note_on_c, 9, 42, 0
1, 78959, Note_on_c, 9, 54, 0
1, 78960, Note_on_c, 9, 42, 60
1, 78960, Note_on_c, 9, 54, 64
1, 79199, Note_on_c, 9, 36, 0
1, 79199, Note_on_c, 9, 42, 0
1, 79199, Note_on_c, 9, 54, 0
1, 79200, Note_on_c, 9, 38, 116
1, 79200, Note_on_c, 9, 39, 100
1, 79200, Note_on_c, 9, 42, 127
1, 79200, Note_on_c, 9, 54, 64
1, 79439, Note_on_c, 9, 38, 0
1, 79439, Note_on_c, 9, 39, 0
1, 79439, Note_on_c, 9, 42, 0
1, 79439, Note_on_c, 9, 54, 0
1, 79440, Note_on_c, 9, 42, 60
1, 79440, Note_on_c, 9, 54, 64
1, 79440, Note_on_c, 9, 36, 116
1, 79679, Note_on_c, 9, 42, 0
1, 79679, Note_on_c, 9, 54, 0
1, 79679, Note_on_c, 9, 36, 0
1, 79680, Note_on_c, 9, 38, 116
1, 79680, Note_on_c, 9, 39, 100
1, 79680, Note_on_c, 9, 42, 127
1, 79680, Note_on_c, 9, 54, 64
1, 79680, Note_on_c, 9, 36, 116
1, 79919, Note_on_c, 9, 38, 0
1, 79919, Note_on_c, 9, 39, 0
1, 79919, Note_on_c, 9, 42, 0
1, 79919, Note_on_c, 9, 54, 0
1, 79919, Note_on_c, 9, 36, 0
1, 79920, Note_on_c, 9, 42, 60
1, 79920, Note_on_c, 9, 54, 64
1, 79920, Note_on_c, 9, 36, 116
1, 80159, Note_on_c, 9, 42, 0
1, 80159, Note_on_c, 9, 54, 0
1, 80159, Note_on_c, 9, 36, 0
1, 80160, Note_on_c, 9, 38, 116
1, 80160, Note_on_c, 9, 39, 100
1, 80160, Note_on_c, 9, 42, 127
1, 80160, Note_on_c, 9, 54, 64
1, 80399, Note_on_c, 9, 38, 0
1, 80399, Note_on_c, 9, 39, 0
1, 80399, Note_on_c, 9, 42, 0
1, 80399, Note_on_c, 9, 54, 0
1, 80400, Note_on_c, 9, 42, 60
1, 80400, Note_on_c, 9, 54, 64
1, 80400, Note_on_c, 9, 36, 116
1, 80639, Note_on_c, 9, 42, 0
1, 80639, Note_on_c, 9, 54, 0
1, 80639, Note_on_c, 9, 36, 0
1, 80640, Note_on_c, 9, 42, 127
1, 80640, Note_on_c, 9, 54, 64
1, 80640, Note_on_c, 9, 36, 116
1, 80879, Note_on_c, 9, 42, 0
1, 80879, Note_on_c, 9, 54, 0
1, 80880, Note_on_c, 9, 42, 60
1, 81119, Note_on_c, 9, 36, 0
1, 81119, Note_on_c, 9, 42, 0
1, 81120, Note_on_c, 9, 38, 116
1, 81120, Note_on_c, 9, 42, 127
1, 81134, Note_on_c, 9, 38, 0
1, 81134, Note_on_c, 9, 42, 0
1, 81135, Note_on_c, 9, 39, 100
1, 81359, Note_on_c, 9, 39, 0
1, 81360, Note_on_c, 9, 42, 60
1, 81599, Note_on_c, 9, 42, 0
1, 81600, Note_on_c, 9, 42, 127
1, 81600, Note_on_c, 9, 54, 64
1, 81600, Note_on_c, 9, 36, 116
1, 81839, Note_on_c, 9, 42, 0
1, 81839, Note_on_c, 9, 54, 0
1, 81840, Note_on_c, 9, 42, 60
1, 81840, Note_on_c, 9, 54, 64
1, 82079, Note_on_c, 9, 36, 0
1, 82079, Note_on_c, 9, 42, 0
1, 82079, Note_on_c, 9, 54, 0
1, 82080, Note_on_c, 9, 38, 116
1, 82080, Note_on_c, 9, 39, 100
1, 82080, Note_on_c, 9, 42, 127
1, 82080, Note_on_c, 9, 54, 64
1, 82319, Note_on_c, 9, 38, 0
1, 82319, Note_on_c, 9, 39, 0
1, 82319, Note_on_c, 9, 42, 0
1, 82319, Note_on_c, 9, 54, 0
1, 82320, Note_on_c, 9, 42, 60
1, 82320, Note_on_c, 9, 54, 64
1, 82559, Note_on_c, 9, 42, 0
1, 82559, Note_on_c, 9, 54, 0
1, 82560, Note_on_c, 9, 42, 127
1, 82560, Note_on_c, 9, 54, 64
1, 82560, Note_on_c, 9, 36, 116
1, 82799, Note_on_c, 9, 42, 0
1, 82799, Note_on_c, 9, 54, 0
1, 82800, Note_on_c, 9, 42, 60
1, 82800, Note_on_c, 9, 54, 64
1, 83039, Note_on_c, 9, 36, 0
1, 83039, Note_on_c, 9, 42, 0
1, 83039, Note_on_c, 9, 54, 0
1, 83040, Note_on_c, 9, 38, 116
1, 83040, Note_on_c, 9, 39, 100
1, 83040, Note_on_c, 9, 42, 127
1, 83040, Note_on_c, 9, 54, 64
1, 83279, Note_on_c, 9, 38, 0
1, 83279, Note_on_c, 9, 39, 0
1, 83279, Note_on_c, 9, 42, 0
1, 83279, Note_on_c, 9, 54, 0
1, 83280, Note_on_c, 9, 42, 60
1, 83280, Note_on_c, 9, 54, 64
1, 83519, Note_on_c, 9, 42, 0
1, 83519, Note_on_c, 9, 54, 0
1, 83520, Note_on_c, 9, 42, 127
1, 83520, Note_on_c, 9, 54, 64
1, 83520, Note_on_c, 9, 36, 116
1, 83759, Note_on_c, 9, 42, 0
1, 83759, Note_on_c, 9, 54, 0
1, 83760, Note_on_c, 9, 42, 60
1, 83760, Note_on_c, 9, 54, 64
1, 83999, Note_on_c, 9, 36, 0
1, 83999, Note_on_c, 9, 42, 0
1, 83999, Note_on_c, 9, 54, 0
1, 84000, Note_on_c, 9, 38, 116
1, 84000, Note_on_c, 9, 39, 100
1, 84000, Note_on_c, 9, 42, 127
1, 84000, Note_on_c, 9, 54, 64
1, 84239, Note_on_c, 9, 38, 0
1, 84239, Note_on_c, 9, 39, 0
1, 84239, Note_on_c, 9, 42, 0
1, 84239, Note_on_c, 9, 54, 0
1, 84240, Note_on_c, 9, 42, 60
1, 84240, Note_on_c, 9, 54, 64
1, 84479, Note_on_c, 9, 42, 0
1, 84479, Note_on_c, 9, 54, 0
1, 84480, Note_on_c, 9, 42, 127
1, 84480, Note_on_c, 9, 54, 64
1, 84480, Note_on_c, 9, 36, 116
1, 84719, Note_on_c, 9, 42, 0
1, 84719, Note_on_c, 9, 54, 0
1, 84720, Note_on_c, 9, 42, 60
1, 84720, Note_on_c, 9, 54, 64
1, 84959, Note_on_c, 9, 36, 0
1, 84959, Note_on_c, 9, 42, 0
1, 84959, Note_on_c, 9, 54, 0
1, 84960, Note_on_c, 9, 38, 116
1, 84960, Note_on_c, 9, 39, 100
1, 84960, Note_on_c, 9, 42, 127
1, 84960, Note_on_c, 9, 54, 64
1, 85199, Note_on_c, 9, 38, 0
1, 85199, Note_on_c, 9, 39, 0
1, 85199, Note_on_c, 9, 42, 0
1, 85199, Note_on_c, 9, 54, 0
1, 85200, Note_on_c, 9, 46, 60
1, 85200, Note_on_c, 9, 54, 64
1, 85439, Note_on_c, 9, 46, 0
1, 85439, Note_on_c, 9, 54, 0
1, 85440, Note_on_c, 9, 42, 127
1, 85440, Note_on_c, 9, 54, 64
1, 85440, Note_on_c, 9, 36, 116
1, 85679, Note_on_c, 9, 42, 0
1, 85679, Note_on_c, 9, 54, 0
1, 85680, Note_on_c, 9, 42, 60
1, 85680, Note_on_c, 9, 54, 64
1, 85919, Note_on_c, 9, 36, 0
1, 85919, Note_on_c, 9, 42, 0
1, 85919, Note_on_c, 9, 54, 0
1, 85920, Note_on_c, 9, 38, 116
1, 85920, Note_on_c, 9, 39, 100
1, 85920, Note_on_c, 9, 42, 127
1, 85920, Note_on_c, 9, 54, 64
1, 86159, Note_on_c, 9, 38, 0
1, 86159, Note_on_c, 9, 39, 0
1, 86159, Note_on_c, 9, 42, 0
1, 86159, Note_on_c, 9, 54, 0
1, 86160, Note_on_c, 9, 42, 60
1, 86160, Note_on_c, 9, 54, 64
1, 86399, Note_on_c, 9, 42, 0
1, 86399, Note_on_c, 9, 54, 0
1, 86400, Note_on_c, 9, 42, 127
1, 86400, Note_on_c, 9, 54, 64
1, 86400, Note_on_c, 9, 36, 116
1, 86639, Note_on_c, 9, 42, 0
1, 86639, Note_on_c, 9, 54, 0
1, 86640, Note_on_c, 9, 42, 60
1, 86640, Note_on_c, 9, 54, 64
1, 86879, Note_on_c, 9, 36, 0
1, 86879, Note_on_c, 9, 42, 0
1, 86879, Note_on_c, 9, 54, 0
1, 86880, Note_on_c, 9, 38, 116
1, 86880, Note_on_c, 9, 39, 100
1, 86880, Note_on_c, 9, 42, 127
1, 86880, Note_on_c, 9, 54, 64
1, 87119, Note_on_c, 9, 38, 0
1, 87119, Note_on_c, 9, 39, 0
1, 87119, Note_on_c, 9, 42, 0
1, 87119, Note_on_c, 9, 54, 0
1, 87120, Note_on_c, 9, 42, 60
1, 87120, Note_on_c, 9, 54, 64
1, 87359, Note_on_c, 9, 42, 0
1, 87359, Note_on_c, 9, 54, 0
1, 87360, Note_on_c, 9, 42, 127
1, 87360, Note_on_c, 9, 54, 64
1, 87360, Note_on_c, 9, 36, 116
1, 87599, Note_on_c, 9, 42, 0
1, 87599, Note_on_c, 9, 54, 0
1, 87600, Note_on_c, 9, 42, 60
1, 87600, Note_on_c, 9, 54, 64
1, 87839, Note_on_c, 9, 36, 0
1, 87839, Note_on_c, 9, 42, 0
1, 87839, Note_on_c, 9, 54, 0
1, 87840, Note_on_c, 9, 38, 116
1, 87840, Note_on_c, 9, 39, 100
1, 87840, Note_on_c, 9, 42, 127
1, 87840, Note_on_c, 9, 54, 64
1, 88079, Note_on_c, 9, 38, 0
1, 88079, Note_on_c, 9, 39, 0
1, 88079, Note_on_c, 9, 42, 0
1, 88079, Note_on_c, 9, 54, 0
1, 88080, Note_on_c, 9, 42, 60
1, 88080, Note_on_c, 9, 54, 64
1, 88319, Note_on_c, 9, 42, 0
1, 88319, Note_on_c, 9, 54, 0
1, 88320, Note_on_c, 9, 42, 127
1, 88320, Note_on_c, 9, 46, 60
1, 88320, Note_on_c, 9, 54, 64
1, 88320, Note_on_c, 9, 36, 116
1, 88559, Note_on_c, 9, 42, 0
1, 88559, Note_on_c, 9, 46, 0
1, 88559, Note_on_c, 9, 54, 0
1, 88560, Note_on_c, 9, 42, 60
1, 88560, Note_on_c, 9, 54, 64
1, 88799, Note_on_c, 9, 36, 0
1, 88799, Note_on_c, 9, 42, 0
1, 88799, Note_on_c, 9, 54, 0
1, 88800, Note_on_c, 9, 38, 116
1, 88800, Note_on_c, 9, 39, 100
1, 88800, Note_on_c, 9, 42, 127
1, 88800, Note_on_c, 9, 54, 64
1, 89039, Note_on_c, 9, 38, 0
1, 89039, Note_on_c, 9, 39, 0
1, 89039, Note_on_c, 9, 42, 0
1, 89039, Note_on_c, 9, 54, 0
1, 89040, Note_on_c, 9, 42, 60
1, 89040, Note_on_c, 9, 54, 64
1, 89279, Note_on_c, 9, 42, 0
1, 89279, Note_on_c, 9, 54, 0
1, 89280, Note_on_c, 9, 42, 127
1, 89280, Note_on_c, 9, 54, 64
1, 89280, Note_on_c, 9, 36, 116
1, 89519, Note_on_c, 9, 42, 0
1, 89519, Note_on_c, 9, 54, 0
1, 89520, Note_on_c, 9, 42, 60
1, 89520, Note_on_c, 9, 54, 64
1, 89759, Note_on_c, 9, 36, 0
1, 89759, Note_on_c, 9, 42, 0
1, 89759, Note_on_c, 9, 54, 0
1, 89760, Note_on_c, 9, 38, 116
1, 89760, Note_on_c, 9, 39, 100
1, 89760, Note_on_c, 9, 42, 127
1, 89760, Note_on_c, 9, 54, 64
1, 89999, Note_on_c, 9, 38, 0
1, 89999, Note_on_c, 9, 39, 0
1, 89999, Note_on_c, 9, 42, 0
1, 89999, Note_on_c, 9, 54, 0
1, 90000, Note_on_c, 9, 42, 60
1, 90000, Note_on_c, 9, 54, 64
1, 90239, Note_on_c, 9, 42, 0
1, 90239, Note_on_c, 9, 54, 0
1, 90240, Note_on_c, 9, 42, 127
1, 90240, Note_on_c, 9, 54, 64
1, 90240, Note_on_c, 9, 36, 116
1, 90479, Note_on_c, 9, 42, 0
1, 90479, Note_on_c, 9, 54, 0
1, 90480, Note_on_c, 9, 42, 60
1, 90480, Note_on_c, 9, 54, 64
1, 90719, Note_on_c, 9, 36, 0
1, 90719, Note_on_c, 9, 42, 0
1, 90719, Note_on_c, 9, 54, 0
1, 90720, Note_on_c, 9, 38, 116
1, 90720, Note_on_c, 9, 39, 100
1, 90720, Note_on_c, 9, 42, 127
1, 90720, Note_on_c, 9, 54, 64
1, 90959, Note_on_c, 9, 38, 0
1, 90959, Note_on_c, 9, 39, 0
1, 90959, Note_on_c, 9, 42, 0
1, 90959, Note_on_c, 9, 54, 0
1, 90960, Note_on_c, 9, 42, 60
1, 90960, Note_on_c, 9, 54, 64
1, 91199, Note_on_c, 9, 42, 0
1, 91199, Note_on_c, 9, 54, 0
1, 91200, Note_on_c, 9, 42, 127
1, 91200, Note_on_c, 9, 54, 64
1, 91200, Note_on_c, 9, 36, 116
1, 91439, Note_on_c, 9, 42, 0
1, 91439, Note_on_c, 9, 54, 0
1, 91440, Note_on_c, 9, 42, 60
1, 91440, Note_on_c, 9, 54, 64
1, 91679, Note_on_c, 9, 36, 0
1, 91679, Note_on_c, 9, 42, 0
1, 91679, Note_on_c, 9, 54, 0
1, 91680, Note_on_c, 9, 38, 116
1, 91680, Note_on_c, 9, 39, 100
1, 91680, Note_on_c, 9, 42, 127
1, 91680, Note_on_c, 9, 54, 64
1, 91919, Note_on_c, 9, 38, 0
1, 91919, Note_on_c, 9, 39, 0
1, 91919, Note_on_c, 9, 42, 0
1, 91919, Note_on_c, 9, 54, 0
1, 91920, Note_on_c, 9, 42, 60
1, 91920, Note_on_c, 9, 54, 64
1, 92159, Note_on_c, 9, 42, 0
1, 92159, Note_on_c, 9, 54, 0
1, 92160, Note_on_c, 9, 42, 127
1, 92160, Note_on_c, 9, 54, 64
1, 92160, Note_on_c, 9, 36, 116
1, 92399, Note_on_c, 9, 42, 0
1, 92399, Note_on_c, 9, 54, 0
1, 92400, Note_on_c, 9, 42, 60
1, 92400, Note_on_c, 9, 54, 64
1, 92639, Note_on_c, 9, 36, 0
1, 92639, Note_on_c, 9, 42, 0
1, 92639, Note_on_c, 9, 54, 0
1, 92640, Note_on_c, 9, 38, 116
1, 92640, Note_on_c, 9, 39, 100
1, 92640, Note_on_c, 9, 42, 127
1, 92640, Note_on_c, 9, 54, 64
1, 92879, Note_on_c, 9, 38, 0
1, 92879, Note_on_c, 9, 39, 0
1, 92879, Note_on_c, 9, 42, 0
1, 92879, Note_on_c, 9, 54, 0
1, 92880, Note_on_c, 9, 46, 60
1, 92880, Note_on_c, 9, 54, 64
1, 93119, Note_on_c, 9, 46, 0
1, 93119, Note_on_c, 9, 54, 0
1, 93120, Note_on_c, 9, 42, 127
1, 93120, Note_on_c, 9, 54, 64
1, 93120, Note_on_c, 9, 36, 116
1, 93359, Note_on_c, 9, 42, 0
1, 93359, Note_on_c, 9, 54, 0
1, 93360, Note_on_c, 9, 42, 60
1, 93360, Note_on_c, 9, 54, 64
1, 93599, Note_on_c, 9, 36, 0
1, 93599, Note_on_c, 9, 42, 0
1, 93599, Note_on_c, 9, 54, 0
1, 93600, Note_on_c, 9, 38, 116
1, 93600, Note_on_c, 9, 39, 100
1, 93600, Note_on_c, 9, 42, 127
1, 93600, Note_on_c, 9, 54, 64
1, 93839, Note_on_c, 9, 38, 0
1, 93839, Note_on_c, 9, 39, 0
1, 93839, Note_on_c, 9, 42, 0
1, 93839, Note_on_c, 9, 54, 0
1, 93840, Note_on_c, 9, 42, 60
1, 93840, Note_on_c, 9, 54, 64
1, 94079, Note_on_c, 9, 42, 0
1, 94079, Note_on_c, 9, 54, 0
1, 94080, Note_on_c, 9, 42, 127
1, 94080, Note_on_c, 9, 54, 64
1, 94080, Note_on_c, 9, 36, 116
1, 94319, Note_on_c, 9, 42, 0
1, 94319, Note_on_c, 9, 54, 0
1, 94320, Note_on_c, 9, 42, 60
1, 94320, Note_on_c, 9, 54, 64
1, 94559, Note_on_c, 9, 36, 0
1, 94559, Note_on_c, 9, 42, 0
1, 94559, Note_on_c, 9, 54, 0
1, 94560, Note_on_c, 9, 38, 116
1, 94560, Note_on_c, 9, 39, 100
1, 94560, Note_on_c, 9, 42, 127
1, 94560, Note_on_c, 9, 54, 64
1, 94799, Note_on_c, 9, 38, 0
1, 94799, Note_on_c, 9, 39, 0
1, 94799, Note_on_c, 9, 42, 0
1, 94799, Note_on_c, 9, 54, 0
1, 94800, Note_on_c, 9, 42, 60
1, 94800, Note_on_c, 9, 54, 64
1, 94800, Note_on_c, 9, 36, 116
1, 95039, Note_on_c, 9, 42, 0
1, 95039, Note_on_c, 9, 54, 0
1, 95039, Note_on_c, 9, 36, 0
1, 95040, Note_on_c, 9, 38, 116
1, 95040, Note_on_c, 9, 39, 100
1, 95040, Note_on_c, 9, 42, 127
1, 95040, Note_on_c, 9, 54, 64
1, 95040, Note_on_c, 9, 36, 116
1, 95279, Note_on_c, 9, 38, 0
1, 95279, Note_on_c, 9, 39, 0
1, 95279, Note_on_c, 9, 42, 0
1, 95279, Note_on_c, 9, 54, 0
1, 95279, Note_on_c, 9, 36, 0
1, 95280, Note_on_c, 9, 42, 60
1, 95280, Note_on_c, 9, 36, 116
1, 95519, Note_on_c, 9, 42, 0
1, 95519, Note_on_c, 9, 36, 0
1, 95520, Note_on_c, 9, 38, 116
1, 95520, Note_on_c, 9, 39, 100
1, 95520, Note_on_c, 9, 42, 127
1, 95520, Note_on_c, 9, 54, 64
1, 95759, Note_on_c, 9, 38, 0
1, 95759, Note_on_c, 9, 39, 0
1, 95759, Note_on_c, 9, 42, 0
1, 95759, Note_on_c, 9, 54, 0
1, 95760, Note_on_c, 9, 42, 60
1, 95760, Note_on_c, 9, 36, 116
1, 95999, Note_on_c, 9, 42, 0
1, 95999, Note_on_c, 9, 36, 0
1, 96000, Note_on_c, 9, 42, 127
1, 96000, Note_on_c, 9, 36, 116
1, 96239, Note_on_c, 9, 42, 0
1, 96240, Note_on_c, 9, 42, 60
1, 96479, Note_on_c, 9, 36, 0
1, 96479, Note_on_c, 9, 42, 0
1, 96480, Note_on_c, 9, 38, 116
1, 96480, Note_on_c, 9, 42, 127
1, 96494, Note_on_c, 9, 38, 0
1, 96494, Note_on_c, 9, 42, 0
1, 96495, Note_on_c, 9, 39, 100
1, 96719, Note_on_c, 9, 39, 0
1, 96720, Note_on_c, 9, 42, 60
1, 96959, Note_on_c, 9, 42, 0
1, 96960, Note_on_c, 9, 42, 127
1, 96960, Note_on_c, 9, 36, 116
1, 97199, Note_on_c, 9, 42, 0
1, 97200, Note_on_c, 9, 42, 60
1, 97439, Note_on_c, 9, 36, 0
1, 97439, Note_on_c, 9, 42, 0
1, 97440, Note_on_c, 9, 38, 116
1, 97454, Note_on_c, 9, 38, 0
1, 97455, Note_on_c, 9, 39, 100
1, 97455, Note_on_c, 9, 42, 127
1, 97679, Note_on_c, 9, 39, 0
1, 97679, Note_on_c, 9, 42, 0
1, 97680, Note_on_c, 9, 42, 60
1, 97919, Note_on_c, 9, 42, 0
1, 97920, Note_on_c, 9, 42, 127
1, 97920, Note_on_c, 9, 36, 116
1, 98159, Note_on_c, 9, 42, 0
1, 98160, Note_on_c, 9, 42, 60
1, 98399, Note_on_c, 9, 36, 0
1, 98399, Note_on_c, 9, 42, 0
1, 98400, Note_on_c, 9, 38, 116
1, 98400, Note_on_c, 9, 42, 127
1, 98414, Note_on_c, 9, 38, 0
1, 98414, Note_on_c, 9, 42, 0
1, 98415, Note_on_c, 9, 39, 100
1, 98639, Note_on_c, 9, 39, 0
1, 98640, Note_on_c, 9, 42, 60
1, 98879, Note_on_c, 9, 42, 0
1, 98880, Note_on_c, 9, 42, 127
1, 98880, Note_on_c, 9, 36, 116
1, 99119, Note_on_c, 9, 42, 0
1, 99120, Note_on_c, 9, 42, 60
1, 99359, Note_on_c, 9, 36, 0
1, 99359, Note_on_c, 9, 42, 0
1, 99360, Note_on_c, 9, 38, 116
1, 99374, Note_on_c, 9, 38, 0
1, 99375, Note_on_c, 9, 39, 100
1, 99375, Note_on_c, 9, 42, 127
1, 99599, Note_on_c, 9, 39, 0
1, 99599, Note_on_c, 9, 42, 0
1, 99600, Note_on_c, 9, 42, 60
1, 99839, Note_on_c, 9, 42, 0
1, 99840, Note_on_c, 9, 42, 127
1, 99840, Note_on_c, 9, 36, 116
1, 100079, Note_on_c, 9, 42, 0
1, 100080, Note_on_c, 9, 42, 60
1, 100319, Note_on_c, 9, 36, 0
1, 100319, Note_on_c, 9, 42, 0
1, 100320, Note_on_c, 9, 38, 116
1, 100320, Note_on_c, 9, 42, 127
1, 100334, Note_on_c, 9, 38, 0
1, 100334, Note_on_c, 9, 42, 0
1, 100335, Note_on_c, 9, 39, 100
1, 100559, Note_on_c, 9, 39, 0
1, 100560, Note_on_c, 9, 46, 60
1, 100799, Note_on_c, 9, 46, 0
1, 100800, Note_on_c, 9, 42, 127
1, 100800, Note_on_c, 9, 36, 116
1, 101039, Note_on_c, 9, 42, 0
1, 101040, Note_on_c, 9, 42, 60
1, 101279, Note_on_c, 9, 36, 0
1, 101279, Note_on_c, 9, 42, 0
1, 101280, Note_on_c, 9, 38, 116
1, 101280, Note_on_c, 9, 42, 127
1, 101294, Note_on_c, 9, 38, 0
1, 101294, Note_on_c, 9, 42, 0
1, 101295, Note_on_c, 9, 39, 100
1, 101519, Note_on_c, 9, 39, 0
1, 101520, Note_on_c, 9, 42, 60
1, 101759, Note_on_c, 9, 42, 0
1, 101760, Note_on_c, 9, 42, 127
1, 101760, Note_on_c, 9, 36, 116
1, 101999, Note_on_c, 9, 42, 0
1, 102000, Note_on_c, 9, 42, 60
1, 102239, Note_on_c, 9, 36, 0
1, 102239, Note_on_c, 9, 42, 0
1, 102240, Note_on_c, 9, 38, 116
1, 102240, Note_on_c, 9, 42, 127
1, 102254, Note_on_c, 9, 38, 0
1, 102254, Note_on_c, 9, 42, 0
1, 102255, Note_on_c, 9, 39, 100
1, 102479, Note_on_c, 9, 39, 0
1, 102480, Note_on_c, 9, 42, 60
1, 102719, Note_on_c, 9, 42, 0
1, 102720, Note_on_c, 9, 42, 127
1, 102720, Note_on_c, 9, 36, 116
1, 102959, Note_on_c, 9, 42, 0
1, 102960, Note_on_c, 9, 42, 60
1, 103199, Note_on_c, 9, 36, 0
1, 103199, Note_on_c, 9, 42, 0
1, 103200, Note_on_c, 9, 38, 116
1, 103214, Note_on_c, 9, 38, 0
1, 103215, Note_on_c, 9, 39, 100
1, 103215, Note_on_c, 9, 42, 127
1, 103439, Note_on_c, 9, 39, 0
1, 103439, Note_on_c, 9, 42, 0
1, 103440, Note_on_c, 9, 42, 60
1, 103679, Note_on_c, 9, 42, 0
1, 103680, Note_on_c, 9, 42, 127
1, 103680, Note_on_c, 9, 36, 116
1, 103919, Note_on_c, 9, 42, 0
1, 103920, Note_on_c, 9, 42, 60
1, 104159, Note_on_c, 9, 36, 0
1, 104159, Note_on_c, 9, 42, 0
1, 104160, Note_on_c, 9, 38, 116
1, 104160, Note_on_c, 9, 42, 127
1, 104174, Note_on_c, 9, 38, 0
1, 104174, Note_on_c, 9, 42, 0
1, 104175, Note_on_c, 9, 39, 100
1, 104399, Note_on_c, 9, 39, 0
1, 104400, Note_on_c, 9, 42, 60
1, 104639, Note_on_c, 9, 42, 0
1, 104640, Note_on_c, 9, 42, 127
1, 104640, Note_on_c, 9, 36, 116
1, 104879, Note_on_c, 9, 42, 0
1, 104880, Note_on_c, 9, 42, 60
1, 105119, Note_on_c, 9, 36, 0
1, 105119, Note_on_c, 9, 42, 0
1, 105120, Note_on_c, 9, 38, 116
1, 105134, Note_on_c, 9, 38, 0
1, 105135, Note_on_c, 9, 39, 100
1, 105135, Note_on_c, 9, 42, 127
1, 105359, Note_on_c, 9, 39, 0
1, 105359, Note_on_c, 9, 42, 0
1, 105360, Note_on_c, 9, 42, 60
1, 105599, Note_on_c, 9, 42, 0
1, 105600, Note_on_c, 9, 42, 127
1, 105600, Note_on_c, 9, 36, 116
1, 105839, Note_on_c, 9, 42, 0
1, 105840, Note_on_c, 9, 42, 60
1, 106079, Note_on_c, 9, 36, 0
1, 106079, Note_on_c, 9, 42, 0
1, 106080, Note_on_c, 9, 38, 116
1, 106080, Note_on_c, 9, 42, 127
1, 106094, Note_on_c, 9, 38, 0
1, 106094, Note_on_c, 9, 42, 0
1, 106095, Note_on_c, 9, 39, 100
1, 106319, Note_on_c, 9, 39, 0
1, 106320, Note_on_c, 9, 42, 60
1, 106559, Note_on_c, 9, 42, 0
1, 106560, Note_on_c, 9, 42, 127
1, 106560, Note_on_c, 9, 36, 116
1, 106799, Note_on_c, 9, 42, 0
1, 106800, Note_on_c, 9, 42, 60
1, 107039, Note_on_c, 9, 36, 0
1, 107039, Note_on_c, 9, 42, 0
1, 107040, Note_on_c, 9, 38, 116
1, 107054, Note_on_c, 9, 38, 0
1, 107055, Note_on_c, 9, 39, 100
1, 107055, Note_on_c, 9, 42, 127
1, 107279, Note_on_c, 9, 39, 0
1, 107279, Note_on_c, 9, 42, 0
1, 107280, Note_on_c, 9, 42, 60
1, 107519, Note_on_c, 9, 42, 0
1, 107520, Note_on_c, 9, 42, 127
1, 107520, Note_on_c, 9, 36, 116
1, 107759, Note_on_c, 9, 42, 0
1, 107760, Note_on_c, 9, 42, 60
1, 107999, Note_on_c, 9, 36, 0
1, 107999, Note_on_c, 9, 42, 0
1, 108000, Note_on_c, 9, 38, 116
1, 108000, Note_on_c, 9, 42, 127
1, 108014, Note_on_c, 9, 38, 0
1, 108014, Note_on_c, 9, 42, 0
1, 108015, Note_on_c, 9, 39, 100
1, 108239, Note_on_c, 9, 39, 0
1, 108240, Note_on_c, 9, 46, 60
1, 108479, Note_on_c, 9, 46, 0
1, 108480, Note_on_c, 9, 42, 127
1, 108480, Note_on_c, 9, 36, 116
1, 108719, Note_on_c, 9, 42, 0
1, 108720, Note_on_c, 9, 42, 60
1, 108959, Note_on_c, 9, 36, 0
1, 108959, Note_on_c, 9, 42, 0
1, 108960, Note_on_c, 9, 38, 116
1, 108960, Note_on_c, 9, 42, 127
1, 108974, Note_on_c, 9, 38, 0
1, 108974, Note_on_c, 9, 42, 0
1, 108975, Note_on_c, 9, 39, 100
1, 109199, Note_on_c, 9, 39, 0
1, 109200, Note_on_c, 9, 42, 60
1, 109439, Note_on_c, 9, 42, 0
1, 109440, Note_on_c, 9, 42, 127
1, 109440, Note_on_c, 9, 36, 116
1, 109679, Note_on_c, 9, 42, 0
1, 109680, Note_on_c, 9, 42, 60
1, 109919, Note_on_c, 9, 36, 0
1, 109919, Note_on_c, 9, 42, 0
1, 109920, Note_on_c, 9, 38, 116
1, 109934, Note_on_c, 9, 38, 0
1, 109935, Note_on_c, 9, 39, 100
1, 109935, Note_on_c, 9, 42, 127
1, 110159, Note_on_c, 9, 39, 0
1, 110159, Note_on_c, 9, 42, 0
1, 110160, Note_on_c, 9, 42, 60
1, 110160, Note_on_c, 9, 36, 116
1, 110399, Note_on_c, 9, 42, 0
1, 110399, Note_on_c, 9, 36, 0
1, 110400, Note_on_c, 9, 38, 116
1, 110400, Note_on_c, 9, 36, 116
1, 110414, Note_on_c, 9, 38, 0
1, 110415, Note_on_c, 9, 39, 100
1, 110415, Note_on_c, 9, 42, 127
1, 110639, Note_on_c, 9, 36, 0
1, 110639, Note_on_c, 9, 39, 0
1, 110639, Note_on_c, 9, 42, 0
1, 110640, Note_on_c, 9, 42, 60
1, 110640, Note_on_c, 9, 36, 116
1, 110879, Note_on_c, 9, 42, 0
1, 110879, Note_on_c, 9, 36, 0
1, 110880, Note_on_c, 9, 38, 116
1, 110880, Note_on_c, 9, 42, 127
1, 110894, Note_on_c, 9, 38, 0
1, 110894, Note_on_c, 9, 42, 0
1, 110895, Note_on_c, 9, 39, 100
1, 111119, Note_on_c, 9, 39, 0
1, 111120, Note_on_c, 9, 42, 60
1, 111120, Note_on_c, 9, 36, 116
1, 111359, Note_on_c, 9, 42, 0
1, 111359, Note_on_c, 9, 36, 0
1, 111360, Note_on_c, 9, 42, 127
1, 111360, Note_on_c, 9, 46, 60
1, 111360, Note_on_c, 9, 54, 64
1, 111360, Note_on_c, 9, 36, 116
1, 111599, Note_on_c, 9, 42, 0
1, 111599, Note_on_c, 9, 46, 0
1, 111599, Note_on_c, 9, 54, 0
1, 111600, Note_on_c, 9, 42, 60
1, 111600, Note_on_c, 9, 54, 64
1, 111839, Note_on_c, 9, 36, 0
1, 111839, Note_on_c, 9, 42, 0
1, 111839, Note_on_c, 9, 54, 0
1, 111840, Note_on_c, 9, 38, 116
1, 111840, Note_on_c, 9, 39, 100
1, 111840, Note_on_c, 9, 42, 127
1, 111840, Note_on_c, 9, 54, 64
1, 112079, Note_on_c, 9, 38, 0
1, 112079, Note_on_c, 9, 39, 0
1, 112079, Note_on_c, 9, 42, 0
1, 112079, Note_on_c, 9, 54, 0
1, 112080, Note_on_c, 9, 42, 60
1, 112080, Note_on_c, 9, 54, 64
1, 112319, Note_on_c, 9, 42, 0
1, 112319, Note_on_c, 9, 54, 0
1, 112320, Note_on_c, 9, 42, 127
1, 112320, Note_on_c, 9, 54, 64
1, 112320, Note_on_c, 9, 36, 116
1, 112559, Note_on_c, 9, 42, 0
1, 112559, Note_on_c, 9, 54, 0
1, 112560, Note_on_c, 9, 42, 60
1, 112560, Note_on_c, 9, 54, 64
1, 112799, Note_on_c, 9, 36, 0
1, 112799, Note_on_c, 9, 42, 0
1, 112799, Note_on_c, 9, 54, 0
1, 112800, Note_on_c, 9, 38, 116
1, 112800, Note_on_c, 9, 39, 100
1, 112800, Note_on_c, 9, 42, 127
1, 112800, Note_on_c, 9, 54, 64
1, 113039, Note_on_c, 9, 38, 0
1, 113039, Note_on_c, 9, 39, 0
1, 113039, Note_on_c, 9, 42, 0
1, 113039, Note_on_c, 9, 54, 0
1, 113040, Note_on_c, 9, 42, 60
1, 113040, Note_on_c, 9, 54, 64
1, 113279, Note_on_c, 9, 42, 0
1, 113279, Note_on_c, 9, 54, 0
1, 113280, Note_on_c, 9, 42, 127
1, 113280, Note_on_c, 9, 54, 64
1, 113280, Note_on_c, 9, 36, 116
1, 113519, Note_on_c, 9, 42, 0
1, 113519, Note_on_c, 9, 54, 0
1, 113520, Note_on_c, 9, 42, 60
1, 113520, Note_on_c, 9, 54, 64
1, 113759, Note_on_c, 9, 36, 0
1, 113759, Note_on_c, 9, 42, 0
1, 113759, Note_on_c, 9, 54, 0
1, 113760, Note_on_c, 9, 38, 116
1, 113760, Note_on_c, 9, 39, 100
1, 113760, Note_on_c, 9, 42, 127
1, 113760, Note_on_c, 9, 54, 64
1, 113999, Note_on_c, 9, 38, 0
1, 113999, Note_on_c, 9, 39, 0
1, 113999, Note_on_c, 9, 42, 0
1, 113999, Note_on_c, 9, 54, 0
1, 114000, Note_on_c, 9, 42, 60
1, 114000, Note_on_c, 9, 54, 64
1, 114239, Note_on_c, 9, 42, 0
1, 114239, Note_on_c, 9, 54, 0
1, 114240, Note_on_c, 9, 42, 127
1, 114240, Note_on_c, 9, 54, 64
1, 114240, Note_on_c, 9, 36, 116
1, 114479, Note_on_c, 9, 42, 0
1, 114479, Note_on_c, 9, 54, 0
1, 114480, Note_on_c, 9, 42, 60
1, 114480, Note_on_c, 9, 54, 64
1, 114719, Note_on_c, 9, 36, 0
1, 114719, Note_on_c, 9, 42, 0
1, 114719, Note_on_c, 9, 54, 0
1, 114720, Note_on_c, 9, 38, 116
1, 114720, Note_on_c, 9, 39, 100
1, 114720, Note_on_c, 9, 42, 127
1, 114720, Note_on_c, 9, 54, 64
1, 114959, Note_on_c, 9, 38, 0
1, 114959, Note_on_c, 9, 39, 0
1, 114959, Note_on_c, 9, 42, 0
1, 114959, Note_on_c, 9, 54, 0
1, 114960, Note_on_c, 9, 42, 60
1, 114960, Note_on_c, 9, 54, 64
1, 115199, Note_on_c, 9, 42, 0
1, 115199, Note_on_c, 9, 54, 0
1, 115200, Note_on_c, 9, 42, 127
1, 115200, Note_on_c, 9, 54, 64
1, 115200, Note_on_c, 9, 36, 116
1, 115439, Note_on_c, 9, 42, 0
1, 115439, Note_on_c, 9, 54, 0
1, 115440, Note_on_c, 9, 42, 60
1, 115440, Note_on_c, 9, 54, 64
1, 115679, Note_on_c, 9, 36, 0
1, 115679, Note_on_c, 9, 42, 0
1, 115679, Note_on_c, 9, 54, 0
1, 115680, Note_on_c, 9, 38, 116
1, 115680, Note_on_c, 9, 39, 100
1, 115680, Note_on_c, 9, 42, 127
1, 115680, Note_on_c, 9, 54, 64
1, 115919, Note_on_c, 9, 38, 0
1, 115919, Note_on_c, 9, 39, 0
1, 115919, Note_on_c, 9, 42, 0
1, 115919, Note_on_c, 9, 54, 0
1, 115920, Note_on_c, 9, 46, 60
1, 115920, Note_on_c, 9, 54, 64
1, 116159, Note_on_c, 9, 46, 0
1, 116159, Note_on_c, 9, 54, 0
1, 116160, Note_on_c, 9, 42, 127
1, 116160, Note_on_c, 9, 54, 64
1, 116160, Note_on_c, 9, 36, 116
1, 116399, Note_on_c, 9, 42, 0
1, 116399, Note_on_c, 9, 54, 0
1, 116400, Note_on_c, 9, 42, 60
1, 116400, Note_on_c, 9, 54, 64
1, 116639, Note_on_c, 9, 36, 0
1, 116639, Note_on_c, 9, 42, 0
1, 116639, Note_on_c, 9, 54, 0
1, 116640, Note_on_c, 9, 38, 116
1, 116640, Note_on_c, 9, 39, 100
1, 116640, Note_on_c, 9, 42, 127
1, 116640, Note_on_c, 9, 54, 64
1, 116879, Note_on_c, 9, 38, 0
1, 116879, Note_on_c, 9, 39, 0
1, 116879, Note_on_c, 9, 42, 0
1, 116879, Note_on_c, 9, 54, 0
1, 116880, Note_on_c, 9, 42, 60
1, 116880, Note_on_c, 9, 54, 64
1, 117119, Note_on_c, 9, 42, 0
1, 117119, Note_on_c, 9, 54, 0
1, 117120, Note_on_c, 9, 42, 127
1, 117120, Note_on_c, 9, 54, 64
1, 117120, Note_on_c, 9, 36, 116
1, 117359, Note_on_c, 9, 42, 0
1, 117359, Note_on_c, 9, 54, 0
1, 117360, Note_on_c, 9, 42, 60
1, 117360, Note_on_c, 9, 54, 64
1, 117599, Note_on_c, 9, 36, 0
1, 117599, Note_on_c, 9, 42, 0
1, 117599, Note_on_c, 9, 54, 0
1, 117600, Note_on_c, 9, 38, 116
1, 117600, Note_on_c, 9, 39, 100
1, 117600, Note_on_c, 9, 42, 127
1, 117600, Note_on_c, 9, 54, 64
1, 117839, Note_on_c, 9, 38, 0
1, 117839, Note_on_c, 9, 39, 0
1, 117839, Note_on_c, 9, 42, 0
1, 117839, Note_on_c, 9, 54, 0
1, 117840, Note_on_c, 9, 42, 60
1, 117840, Note_on_c, 9, 54, 64
1, 118079, Note_on_c, 9, 42, 0
1, 118079, Note_on_c, 9, 54, 0
1, 118080, Note_on_c, 9, 42, 127
1, 118080, Note_on_c, 9, 54, 64
1, 118080, Note_on_c, 9, 36, 116
1, 118319, Note_on_c, 9, 42, 0
1, 118319, Note_on_c, 9, 54, 0
1, 118320, Note_on_c, 9, 42, 60
1, 118320, Note_on_c, 9, 54, 64
1, 118559, Note_on_c, 9, 36, 0
1, 118559, Note_on_c, 9, 42, 0
1, 118559, Note_on_c, 9, 54, 0
1, 118560, Note_on_c, 9, 38, 116
1, 118560, Note_on_c, 9, 39, 100
1, 118560, Note_on_c, 9, 42, 127
1, 118560, Note_on_c, 9, 54, 64
1, 118799, Note_on_c, 9, 38, 0
1, 118799, Note_on_c, 9, 39, 0
1, 118799, Note_on_c, 9, 42, 0
1, 118799, Note_on_c, 9, 54, 0
1, 118800, Note_on_c, 9, 42, 60
1, 118800, Note_on_c, 9, 54, 64
1, 119039, Note_on_c, 9, 42, 0
1, 119039, Note_on_c, 9, 54, 0
1, 119040, Note_on_c, 9, 42, 127
1, 119040, Note_on_c, 9, 54, 64
1, 119040, Note_on_c, 9, 36, 116
1, 119279, Note_on_c, 9, 42, 0
1, 119279, Note_on_c, 9, 54, 0
1, 119280, Note_on_c, 9, 42, 60
1, 119280, Note_on_c, 9, 54, 64
1, 119519, Note_on_c, 9, 36, 0
1, 119519, Note_on_c, 9, 42, 0
1, 119519, Note_on_c, 9, 54, 0
1, 119520, Note_on_c, 9, 38, 116
1, 119520, Note_on_c, 9, 39, 100
1, 119520, Note_on_c, 9, 42, 127
1, 119520, Note_on_c, 9, 54, 64
1, 119759, Note_on_c, 9, 38, 0
1, 119759, Note_on_c, 9, 39, 0
1, 119759, Note_on_c, 9, 42, 0
1, 119759, Note_on_c, 9, 54, 0
1, 119760, Note_on_c, 9, 42, 60
1, 119760, Note_on_c, 9, 54, 64
1, 119999, Note_on_c, 9, 42, 0
1, 119999, Note_on_c, 9, 54, 0
1, 120000, Note_on_c, 9, 42, 127
1, 120000, Note_on_c, 9, 54, 64
1, 120000, Note_on_c, 9, 36, 116
1, 120239, Note_on_c, 9, 42, 0
1, 120239, Note_on_c, 9, 54, 0
1, 120240, Note_on_c, 9, 42, 60
1, 120240, Note_on_c, 9, 54, 64
1, 120479, Note_on_c, 9, 36, 0
1, 120479, Note_on_c, 9, 42, 0
1, 120479, Note_on_c, 9, 54, 0
1, 120480, Note_on_c, 9, 38, 116
1, 120480, Note_on_c, 9, 39, 100
1, 120480, Note_on_c, 9, 42, 127
1, 120480, Note_on_c, 9, 54, 64
1, 120719, Note_on_c, 9, 38, 0
1, 120719, Note_on_c, 9, 39, 0
1, 120719, Note_on_c, 9, 42, 0
1, 120719, Note_on_c, 9, 54, 0
1, 120720, Note_on_c, 9, 42, 60
1, 120720, Note_on_c, 9, 54, 64
1, 120959, Note_on_c, 9, 42, 0
1, 120959, Note_on_c, 9, 54, 0
1, 120960, Note_on_c, 9, 42, 127
1, 120960, Note_on_c, 9, 54, 64
1, 120960, Note_on_c, 9, 36, 116
1, 121199, Note_on_c, 9, 42, 0
1, 121199, Note_on_c, 9, 54, 0
1, 121200, Note_on_c, 9, 42, 60
1, 121200, Note_on_c, 9, 54, 64
1, 121439, Note_on_c, 9, 36, 0
1, 121439, Note_on_c, 9, 42, 0
1, 121439, Note_on_c, 9, 54, 0
1, 121440, Note_on_c, 9, 38, 116
1, 121440, Note_on_c, 9, 39, 100
1, 121440, Note_on_c, 9, 42, 127
1, 121440, Note_on_c, 9, 54, 64
1, 121679, Note_on_c, 9, 38, 0
1, 121679, Note_on_c, 9, 39, 0
1, 121679, Note_on_c, 9, 42, 0
1, 121679, Note_on_c, 9, 54, 0
1, 121680, Note_on_c, 9, 42, 60
1, 121680, Note_on_c, 9, 54, 64
1, 121919, Note_on_c, 9, 42, 0
1, 121919, Note_on_c, 9, 54, 0
1, 121920, Note_on_c, 9, 42, 127
1, 121920, Note_on_c, 9, 54, 64
1, 121920, Note_on_c, 9, 36, 116
1, 122159, Note_on_c, 9, 42, 0
1, 122159, Note_on_c, 9, 54, 0
1, 122160, Note_on_c, 9, 42, 60
1, 122160, Note_on_c, 9, 54, 64
1, 122399, Note_on_c, 9, 36, 0
1, 122399, Note_on_c, 9, 42, 0
1, 122399, Note_on_c, 9, 54, 0
1, 122400, Note_on_c, 9, 38, 116
1, 122400, Note_on_c, 9, 39, 100
1, 122400, Note_on_c, 9, 42, 127
1, 122400, Note_on_c, 9, 54, 64
1, 122639, Note_on_c, 9, 38, 0
1, 122639, Note_on_c, 9, 39, 0
1, 122639, Note_on_c, 9, 42, 0
1, 122639, Note_on_c, 9, 54, 0
1, 122640, Note_on_c, 9, 42, 60
1, 122640, Note_on_c, 9, 54, 64
1, 122879, Note_on_c, 9, 42, 0
1, 122879, Note_on_c, 9, 54, 0
1, 122880, Note_on_c, 9, 42, 127
1, 122880, Note_on_c, 9, 54, 64
1, 122880, Note_on_c, 9, 36, 116
1, 123119, Note_on_c, 9, 42, 0
1, 123119, Note_on_c, 9, 54, 0
1, 123120, Note_on_c, 9, 42, 60
1, 123120, Note_on_c, 9, 54, 64
1, 123359, Note_on_c, 9, 36, 0
1, 123359, Note_on_c, 9, 42, 0
1, 123359, Note_on_c, 9, 54, 0
1, 123360, Note_on_c, 9, 38, 116
1, 123360, Note_on_c, 9, 39, 100
1, 123360, Note_on_c, 9, 42, 127
1, 123360, Note_on_c, 9, 54, 64
1, 123599, Note_on_c, 9, 38, 0
1, 123599, Note_on_c, 9, 39, 0
1, 123599, Note_on_c, 9, 42, 0
1, 123599, Note_on_c, 9, 54, 0
1, 123600, Note_on_c, 9, 46, 60
1, 123600, Note_on_c, 9, 54, 64
1, 123839, Note_on_c, 9, 46, 0
1, 123839, Note_on_c, 9, 54, 0
1, 123840, Note_on_c, 9, 42, 127
1, 123840, Note_on_c, 9, 54, 64
1, 123840, Note_on_c, 9, 36, 116
1, 124079, Note_on_c, 9, 42, 0
1, 124079, Note_on_c, 9, 54, 0
1, 124080, Note_on_c, 9, 42, 60
1, 124080, Note_on_c, 9, 54, 64
1, 124319, Note_on_c, 9, 36, 0
1, 124319, Note_on_c, 9, 42, 0
1, 124319, Note_on_c, 9, 54, 0
1, 124320, Note_on_c, 9, 38, 116
1, 124320, Note_on_c, 9, 39, 100
1, 124320, Note_on_c, 9, 42, 127
1, 124320, Note_on_c, 9, 54, 64
1, 124559, Note_on_c, 9, 38, 0
1, 124559, Note_on_c, 9, 39, 0
1, 124559, Note_on_c, 9, 42, 0
1, 124559, Note_on_c, 9, 54, 0
1, 124560, Note_on_c, 9, 42, 60
1, 124560, Note_on_c, 9, 54, 64
1, 124799, Note_on_c, 9, 42, 0
1, 124799, Note_on_c, 9, 54, 0
1, 124800, Note_on_c, 9, 42, 127
1, 124800, Note_on_c, 9, 54, 64
1, 124800, Note_on_c, 9, 36, 116
1, 125039, Note_on_c, 9, 42, 0
1, 125039, Note_on_c, 9, 54, 0
1, 125040, Note_on_c, 9, 42, 60
1, 125040, Note_on_c, 9, 54, 64
1, 125279, Note_on_c, 9, 36, 0
1, 125279, Note_on_c, 9, 42, 0
1, 125279, Note_on_c, 9, 54, 0
1, 125280, Note_on_c, 9, 38, 116
1, 125280, Note_on_c, 9, 39, 100
1, 125280, Note_on_c, 9, 42, 127
1, 125280, Note_on_c, 9, 54, 64
1, 125519, Note_on_c, 9, 38, 0
1, 125519, Note_on_c, 9, 39, 0
1, 125519, Note_on_c, 9, 42, 0
1, 125519, Note_on_c, 9, 54, 0
1, 125520, Note_on_c, 9, 42, 60
1, 125520, Note_on_c, 9, 54, 64
1, 125520, Note_on_c, 9, 36, 116
1, 125759, Note_on_c, 9, 42, 0
1, 125759, Note_on_c, 9, 54, 0
1, 125759, Note_on_c, 9, 36, 0
1, 125760, Note_on_c, 9, 38, 116
1, 125760, Note_on_c, 9, 39, 100
1, 125760, Note_on_c, 9, 42, 127
1, 125760, Note_on_c, 9, 54, 64
1, 125760, Note_on_c, 9, 36, 116
1, 125999, Note_on_c, 9, 38, 0
1, 125999, Note_on_c, 9, 39, 0
1, 125999, Note_on_c, 9, 42, 0
1, 125999, Note_on_c, 9, 54, 0
1, 125999, Note_on_c, 9, 36, 0
1, 126000, Note_on_c, 9, 42, 60
1, 126000, Note_on_c, 9, 54, 64
1, 126000, Note_on_c, 9, 36, 116
1, 126239, Note_on_c, 9, 42, 0
1, 126239, Note_on_c, 9, 54, 0
1, 126239, Note_on_c, 9, 36, 0
1, 126240, Note_on_c, 9, 38, 116
1, 126240, Note_on_c, 9, 39, 100
1, 126240, Note_on_c, 9, 42, 127
1, 126240, Note_on_c, 9, 54, 64
1, 126479, Note_on_c, 9, 38, 0
1, 126479, Note_on_c, 9, 39, 0
1, 126479, Note_on_c, 9, 42, 0
1, 126479, Note_on_c, 9, 54, 0
1, 126480, Note_on_c, 9, 42, 60
1, 126480, Note_on_c, 9, 54, 64
1, 126480, Note_on_c, 9, 36, 116
1, 126719, Note_on_c, 9, 42, 0
1, 126719, Note_on_c, 9, 54, 0
1, 126719, Note_on_c, 9, 36, 0
1, 126720, Note_on_c, 9, 42, 127
1, 126720, Note_on_c, 9, 46, 60
1, 126720, Note_on_c, 9, 54, 64
1, 126720, Note_on_c, 9, 36, 116
1, 126959, Note_on_c, 9, 42, 0
1, 126959, Note_on_c, 9, 46, 0
1, 126959, Note_on_c, 9, 54, 0
1, 126960, Note_on_c, 9, 42, 60
1, 127199, Note_on_c, 9, 36, 0
1, 127199, Note_on_c, 9, 42, 0
1, 127200, Note_on_c, 9, 38, 116
1, 127200, Note_on_c, 9, 39, 100
1, 127200, Note_on_c, 9, 42, 127
1, 127200, Note_on_c, 9, 54, 64
1, 127439, Note_on_c, 9, 38, 0
1, 127439, Note_on_c, 9, 39, 0
1, 127439, Note_on_c, 9, 42, 0
1, 127439, Note_on_c, 9, 54, 0
1, 127440, Note_on_c, 9, 42, 60
1, 127440, Note_on_c, 9, 54, 64
1, 127679, Note_on_c, 9, 42, 0
1, 127679, Note_on_c, 9, 54, 0
1, 127680, Note_on_c, 9, 42, 127
1, 127680, Note_on_c, 9, 54, 64
1, 127680, Note_on_c, 9, 36, 116
1, 127919, Note_on_c, 9, 42, 0
1, 127919, Note_on_c, 9, 54, 0
1, 127920, Note_on_c, 9, 42, 60
1, 127920, Note_on_c, 9, 54, 64
1, 128159, Note_on_c, 9, 36, 0
1, 128159, Note_on_c, 9, 42, 0
1, 128159, Note_on_c, 9, 54, 0
1, 128160, Note_on_c, 9, 38, 116
1, 128160, Note_on_c, 9, 39, 100
1, 128160, Note_on_c, 9, 42, 127
1, 128160, Note_on_c, 9, 54, 64
1, 128399, Note_on_c, 9, 38, 0
1, 128399, Note_on_c, 9, 39, 0
1, 128399, Note_on_c, 9, 42, 0
1, 128399, Note_on_c, 9, 54, 0
1, 128400, Note_on_c, 9, 42, 60
1, 128400, Note_on_c, 9, 54, 64
1, 128639, Note_on_c, 9, 42, 0
1, 128639, Note_on_c, 9, 54, 0
1, 128640, Note_on_c, 9, 42, 127
1, 128640, Note_on_c, 9, 54, 64
1, 128640, Note_on_c, 9, 36, 116
1, 128879, Note_on_c, 9, 42, 0
1, 128879, Note_on_c, 9, 54, 0
1, 128880, Note_on_c, 9, 42, 60
1, 128880, Note_on_c, 9, 54, 64
1, 129119, Note_on_c, 9, 36, 0
1, 129119, Note_on_c, 9, 42, 0
1, 129119, Note_on_c, 9, 54, 0
1, 129120, Note_on_c, 9, 38, 116
1, 129120, Note_on_c, 9, 39, 100
1, 129120, Note_on_c, 9, 42, 127
1, 129120, Note_on_c, 9, 54, 64
1, 129359, Note_on_c, 9, 38, 0
1, 129359, Note_on_c, 9, 39, 0
1, 129359, Note_on_c, 9, 42, 0
1, 129359, Note_on_c, 9, 54, 0
1, 129360, Note_on_c, 9, 42, 60
1, 129360, Note_on_c, 9, 54, 64
1, 129599, Note_on_c, 9, 42, 0
1, 129599, Note_on_c, 9, 54, 0
1, 129600, Note_on_c, 9, 42, 127
1, 129600, Note_on_c, 9, 54, 64
1, 129600, Note_on_c, 9, 36, 116
1, 129839, Note_on_c, 9, 42, 0
1, 129839, Note_on_c, 9, 54, 0
1, 129840, Note_on_c, 9, 42, 60
1, 129840, Note_on_c, 9, 54, 64
1, 130079, Note_on_c, 9, 36, 0
1, 130079, Note_on_c, 9, 42, 0
1, 130079, Note_on_c, 9, 54, 0
1, 130080, Note_on_c, 9, 38, 116
1, 130080, Note_on_c, 9, 39, 100
1, 130080, Note_on_c, 9, 42, 127
1, 130080, Note_on_c, 9, 54, 64
1, 130319, Note_on_c, 9, 38, 0
1, 130319, Note_on_c, 9, 39, 0
1, 130319, Note_on_c, 9, 42, 0
1, 130319, Note_on_c, 9, 54, 0
1, 130320, Note_on_c, 9, 42, 60
1, 130320, Note_on_c, 9, 54, 64
1, 130559, Note_on_c, 9, 42, 0
1, 130559, Note_on_c, 9, 54, 0
1, 130560, Note_on_c, 9, 42, 127
1, 130560, Note_on_c, 9, 54, 64
1, 130560, Note_on_c, 9, 36, 116
1, 130799, Note_on_c, 9, 42, 0
1, 130799, Note_on_c, 9, 54, 0
1, 130800, Note_on_c, 9, 42, 60
1, 130800, Note_on_c, 9, 54, 64
1, 131039, Note_on_c, 9, 36, 0
1, 131039, Note_on_c, 9, 42, 0
1, 131039, Note_on_c, 9, 54, 0
1, 131040, Note_on_c, 9, 38, 116
1, 131040, Note_on_c, 9, 39, 100
1, 131040, Note_on_c, 9, 42, 127
1, 131040, Note_on_c, 9, 54, 64
1, 131279, Note_on_c, 9, 38, 0
1, 131279, Note_on_c, 9, 39, 0
1, 131279, Note_on_c, 9, 42, 0
1, 131279, Note_on_c, 9, 54, 0
1, 131280, Note_on_c, 9, 46, 60
1, 131280, Note_on_c, 9, 54, 64
1, 131519, Note_on_c, 9, 46, 0
1, 131519, Note_on_c, 9, 54, 0
1, 131520, Note_on_c, 9, 42, 127
1, 131520, Note_on_c, 9, 54, 64
1, 131520, Note_on_c, 9, 36, 116
1, 131759, Note_on_c, 9, 42, 0
1, 131759, Note_on_c, 9, 54, 0
1, 131760, Note_on_c, 9, 42, 60
1, 131760, Note_on_c, 9, 54, 64
1, 131999, Note_on_c, 9, 36, 0
1, 131999, Note_on_c, 9, 42, 0
1, 131999, Note_on_c, 9, 54, 0
1, 132000, Note_on_c, 9, 38, 116
1, 132000, Note_on_c, 9, 39, 100
1, 132000, Note_on_c, 9, 42, 127
1, 132000, Note_on_c, 9, 54, 64
1, 132239, Note_on_c, 9, 38, 0
1, 132239, Note_on_c, 9, 39, 0
1, 132239, Note_on_c, 9, 42, 0
1, 132239, Note_on_c, 9, 54, 0
1, 132240, Note_on_c, 9, 42, 60
1, 132240, Note_on_c, 9, 54, 64
1, 132479, Note_on_c, 9, 42, 0
1, 132479, Note_on_c, 9, 54, 0
1, 132480, Note_on_c, 9, 42, 127
1, 132480, Note_on_c, 9, 54, 64
1, 132480, Note_on_c, 9, 36, 116
1, 132719, Note_on_c, 9, 42, 0
1, 132719, Note_on_c, 9, 54, 0
1, 132720, Note_on_c, 9, 42, 60
1, 132720, Note_on_c, 9, 54, 64
1, 132959, Note_on_c, 9, 36, 0
1, 132959, Note_on_c, 9, 42, 0
1, 132959, Note_on_c, 9, 54, 0
1, 132960, Note_on_c, 9, 38, 116
1, 132960, Note_on_c, 9, 39, 100
1, 132960, Note_on_c, 9, 42, 127
1, 132960, Note_on_c, 9, 54, 64
1, 133199, Note_on_c, 9, 38, 0
1, 133199, Note_on_c, 9, 39, 0
1, 133199, Note_on_c, 9, 42, 0
1, 133199, Note_on_c, 9, 54, 0
1, 133200, Note_on_c, 9, 42, 60
1, 133200, Note_on_c, 9, 54, 64
1, 133439, Note_on_c, 9, 42, 0
1, 133439, Note_on_c, 9, 54, 0
1, 133440, Note_on_c, 9, 42, 127
1, 133440, Note_on_c, 9, 54, 64
1, 133440, Note_on_c, 9, 36, 116
1, 133679, Note_on_c, 9, 42, 0
1, 133679, Note_on_c, 9, 54, 0
1, 133680, Note_on_c, 9, 42, 60
1, 133680, Note_on_c, 9, 54, 64
1, 133919, Note_on_c, 9, 36, 0
1, 133919, Note_on_c, 9, 42, 0
1, 133919, Note_on_c, 9, 54, 0
1, 133920, Note_on_c, 9, 38, 116
1, 133920, Note_on_c, 9, 39, 100
1, 133920, Note_on_c, 9, 42, 127
1, 133920, Note_on_c, 9, 54, 64
1, 134159, Note_on_c, 9, 38, 0
1, 134159, Note_on_c, 9, 39, 0
1, 134159, Note_on_c, 9, 42, 0
1, 134159, Note_on_c, 9, 54, 0
1, 134160, Note_on_c, 9, 42, 60
1, 134160, Note_on_c, 9, 54, 64
1, 134399, Note_on_c, 9, 42, 0
1, 134399, Note_on_c, 9, 54, 0
1, 134400, Note_on_c, 9, 42, 127
1, 134400, Note_on_c, 9, 54, 64
1, 134400, Note_on_c, 9, 36, 116
1, 134639, Note_on_c, 9, 42, 0
1, 134639, Note_on_c, 9, 54, 0
1, 134640, Note_on_c, 9, 42, 60
1, 134640, Note_on_c, 9, 54, 64
1, 134879, Note_on_c, 9, 36, 0
1, 134879, Note_on_c, 9, 42, 0
1, 134879, Note_on_c, 9, 54, 0
1, 134880, Note_on_c, 9, 38, 116
1, 134880, Note_on_c, 9, 39, 100
1, 134880, Note_on_c, 9, 42, 127
1, 134880, Note_on_c, 9, 54, 64
1, 135119, Note_on_c, 9, 38, 0
1, 135119, Note_on_c, 9, 39, 0
1, 135119, Note_on_c, 9, 42, 0
1, 135119, Note_on_c, 9, 54, 0
1, 135120, Note_on_c, 9, 42, 60
1, 135120, Note_on_c, 9, 54, 64
1, 135359, Note_on_c, 9, 42, 0
1, 135359, Note_on_c, 9, 54, 0
1, 135360, Note_on_c, 9, 42, 127
1, 135360, Note_on_c, 9, 54, 64
1, 135360, Note_on_c, 9, 36, 116
1, 135599, Note_on_c, 9, 42, 0
1, 135599, Note_on_c, 9, 54, 0
1, 135600, Note_on_c, 9, 42, 60
1, 135600, Note_on_c, 9, 54, 64
1, 135839, Note_on_c, 9, 36, 0
1, 135839, Note_on_c, 9, 42, 0
1, 135839, Note_on_c, 9, 54, 0
1, 135840, Note_on_c, 9, 38, 116
1, 135840, Note_on_c, 9, 39, 100
1, 135840, Note_on_c, 9, 42, 127
1, 135840, Note_on_c, 9, 54, 64
1, 136079, Note_on_c, 9, 38, 0
1, 136079, Note_on_c, 9, 39, 0
1, 136079, Note_on_c, 9, 42, 0
1, 136079, Note_on_c, 9, 54, 0
1, 136080, Note_on_c, 9, 42, 60
1, 136080, Note_on_c, 9, 54, 64
1, 136319, Note_on_c, 9, 42, 0
1, 136319, Note_on_c, 9, 54, 0
1, 136320, Note_on_c, 9, 42, 127
1, 136320, Note_on_c, 9, 54, 64
1, 136320, Note_on_c, 9, 36, 116
1, 136559, Note_on_c, 9, 42, 0
1, 136559, Note_on_c, 9, 54, 0
1, 136560, Note_on_c, 9, 42, 60
1, 136560, Note_on_c, 9, 54, 64
1, 136799, Note_on_c, 9, 36, 0
1, 136799, Note_on_c, 9, 42, 0
1, 136799, Note_on_c, 9, 54, 0
1, 136800, Note_on_c, 9, 38, 116
1, 136800, Note_on_c, 9, 39, 100
1, 136800, Note_on_c, 9, 42, 127
1, 136800, Note_on_c, 9, 54, 64
1, 137039, Note_on_c, 9, 38, 0
1, 137039, Note_on_c, 9, 39, 0
1, 137039, Note_on_c, 9, 42, 0
1, 137039, Note_on_c, 9, 54, 0
1, 137040, Note_on_c, 9, 42, 60
1, 137040, Note_on_c, 9, 54, 64
1, 137279, Note_on_c, 9, 42, 0
1, 137279, Note_on_c, 9, 54, 0
1, 137280, Note_on_c, 9, 42, 127
1, 137280, Note_on_c, 9, 54, 64
1, 137280, Note_on_c, 9, 36, 116
1, 137519, Note_on_c, 9, 42, 0
1, 137519, Note_on_c, 9, 54, 0
1, 137520, Note_on_c, 9, 42, 60
1, 137520, Note_on_c, 9, 54, 64
1, 137759, Note_on_c, 9, 36, 0
1, 137759, Note_on_c, 9, 42, 0
1, 137759, Note_on_c, 9, 54, 0
1, 137760, Note_on_c, 9, 38, 116
1, 137760, Note_on_c, 9, 39, 100
1, 137760, Note_on_c, 9, 42, 127
1, 137760, Note_on_c, 9, 54, 64
1, 137999, Note_on_c, 9, 38, 0
1, 137999, Note_on_c, 9, 39, 0
1, 137999, Note_on_c, 9, 42, 0
1, 137999, Note_on_c, 9, 54, 0
1, 138000, Note_on_c, 9, 42, 60
1, 138000, Note_on_c, 9, 54, 64
1, 138239, Note_on_c, 9, 42, 0
1, 138239, Note_on_c, 9, 54, 0
1, 138240, Note_on_c, 9, 42, 127
1, 138240, Note_on_c, 9, 54, 64
1, 138240, Note_on_c, 9, 36, 116
1, 138479, Note_on_c, 9, 42, 0
1, 138479, Note_on_c, 9, 54, 0
1, 138480, Note_on_c, 9, 42, 60
1, 138480, Note_on_c, 9, 54, 64
1, 138719, Note_on_c, 9, 36, 0
1, 138719, Note_on_c, 9, 42, 0
1, 138719, Note_on_c, 9, 54, 0
1, 138720, Note_on_c, 9, 38, 116
1, 138720, Note_on_c, 9, 39, 100
1, 138720, Note_on_c, 9, 42, 127
1, 138720, Note_on_c, 9, 54, 64
1, 138959, Note_on_c, 9, 38, 0
1, 138959, Note_on_c, 9, 39, 0
1, 138959, Note_on_c, 9, 42, 0
1, 138959, Note_on_c, 9, 54, 0
1, 138960, Note_on_c, 9, 46, 60
1, 138960, Note_on_c, 9, 54, 64
1, 139199, Note_on_c, 9, 46, 0
1, 139199, Note_on_c, 9, 54, 0
1, 139200, Note_on_c, 9, 42, 127
1, 139200, Note_on_c, 9, 54, 64
1, 139200, Note_on_c, 9, 36, 116
1, 139439, Note_on_c, 9, 42, 0
1, 139439, Note_on_c, 9, 54, 0
1, 139440, Note_on_c, 9, 42, 60
1, 139440, Note_on_c, 9, 54, 64
1, 139679, Note_on_c, 9, 36, 0
1, 139679, Note_on_c, 9, 42, 0
1, 139679, Note_on_c, 9, 54, 0
1, 139680, Note_on_c, 9, 38, 116
1, 139680, Note_on_c, 9, 39, 100
1, 139680, Note_on_c, 9, 42, 127
1, 139680, Note_on_c, 9, 54, 64
1, 139919, Note_on_c, 9, 38, 0
1, 139919, Note_on_c, 9, 39, 0
1, 139919, Note_on_c, 9, 42, 0
1, 139919, Note_on_c, 9, 54, 0
1, 139920, Note_on_c, 9, 42, 60
1, 139920, Note_on_c, 9, 54, 64
1, 140159, Note_on_c, 9, 42, 0
1, 140159, Note_on_c, 9, 54, 0
1, 140160, Note_on_c, 9, 42, 127
1, 140160, Note_on_c, 9, 54, 64
1, 140160, Note_on_c, 9, 36, 116
1, 140399, Note_on_c, 9, 42, 0
1, 140399, Note_on_c, 9, 54, 0
1, 140400, Note_on_c, 9, 42, 60
1, 140400, Note_on_c, 9, 54, 64
1, 140639, Note_on_c, 9, 36, 0
1, 140639, Note_on_c, 9, 42, 0
1, 140639, Note_on_c, 9, 54, 0
1, 140640, Note_on_c, 9, 38, 116
1, 140640, Note_on_c, 9, 39, 100
1, 140640, Note_on_c, 9, 42, 127
1, 140640, Note_on_c, 9, 54, 64
1, 140879, Note_on_c, 9, 38, 0
1, 140879, Note_on_c, 9, 39, 0
1, 140879, Note_on_c, 9, 42, 0
1, 140879, Note_on_c, 9, 54, 0
1, 140880, Note_on_c, 9, 42, 60
1, 140880, Note_on_c, 9, 54, 64
1, 140880, Note_on_c, 9, 36, 116
1, 141119, Note_on_c, 9, 42, 0
1, 141119, Note_on_c, 9, 54, 0
1, 141119, Note_on_c, 9, 36, 0
1, 141120, Note_on_c, 9, 38, 116
1, 141120, Note_on_c, 9, 39, 100
1, 141120, Note_on_c, 9, 42, 127
1, 141120, Note_on_c, 9, 54, 64
1, 141120, Note_on_c, 9, 36, 116
1, 141359, Note_on_c, 9, 38, 0
1, 141359, Note_on_c, 9, 39, 0
1, 141359, Note_on_c, 9, 42, 0
1, 141359, Note_on_c, 9, 54, 0
1, 141359, Note_on_c, 9, 36, 0
1, 141360, Note_on_c, 9, 42, 60
1, 141360, Note_on_c, 9, 54, 64
1, 141360, Note_on_c, 9, 36, 116
1, 141599, Note_on_c, 9, 42, 0
1, 141599, Note_on_c, 9, 54, 0
1, 141599, Note_on_c, 9, 36, 0
1, 141600, Note_on_c, 9, 38, 116
1, 141600, Note_on_c, 9, 39, 100
1, 141600, Note_on_c, 9, 42, 127
1, 141600, Note_on_c, 9, 54, 64
1, 141839, Note_on_c, 9, 38, 0
1, 141839, Note_on_c, 9, 39, 0
1, 141839, Note_on_c, 9, 42, 0
1, 141839, Note_on_c, 9, 54, 0
1, 141840, Note_on_c, 9, 42, 60
1, 141840, Note_on_c, 9, 54, 64
1, 141840, Note_on_c, 9, 36, 116
1, 142079, Note_on_c, 9, 42, 0
1, 142079, Note_on_c, 9, 54, 0
1, 142079, Note_on_c, 9, 36, 0
1, 142080, Note_on_c, 9, 42, 127
1, 142080, Note_on_c, 9, 54, 64
1, 142080, Note_on_c, 9, 36, 116
1, 142319, Note_on_c, 9, 42, 0
1, 142319, Note_on_c, 9, 54, 0
1, 142320, Note_on_c, 9, 42, 60
1, 142320, Note_on_c, 9, 54, 64
1, 142559, Note_on_c, 9, 36, 0
1, 142559, Note_on_c, 9, 42, 0
1, 142559, Note_on_c, 9, 54, 0
1, 142560, Note_on_c, 9, 38, 116
1, 142560, Note_on_c, 9, 39, 100
1, 142560, Note_on_c, 9, 42, 127
1, 142560, Note_on_c, 9, 54, 64
1, 142799, Note_on_c, 9, 38, 0
1, 142799, Note_on_c, 9, 39, 0
1, 142799, Note_on_c, 9, 42, 0
1, 142799, Note_on_c, 9, 54, 0
1, 142800, Note_on_c, 9, 42, 60
1, 142800, Note_on_c, 9, 54, 64
1, 143039, Note_on_c, 9, 42, 0
1, 143039, Note_on_c, 9, 54, 0
1, 143040, Note_on_c, 9, 42, 127
1, 143040, Note_on_c, 9, 54, 64
1, 143040, Note_on_c, 9, 36, 116
1, 143279, Note_on_c, 9, 42, 0
1, 143279, Note_on_c, 9, 54, 0
1, 143280, Note_on_c, 9, 42, 60
1, 143280, Note_on_c, 9, 54, 64
1, 143519, Note_on_c, 9, 36, 0
1, 143519, Note_on_c, 9, 42, 0
1, 143519, Note_on_c, 9, 54, 0
1, 143520, Note_on_c, 9, 38, 116
1, 143520, Note_on_c, 9, 39, 100
1, 143520, Note_on_c, 9, 42, 127
1, 143520, Note_on_c, 9, 54, 64
1, 143759, Note_on_c, 9, 38, 0
1, 143759, Note_on_c, 9, 39, 0
1, 143759, Note_on_c, 9, 42, 0
1, 143759, Note_on_c, 9, 54, 0
1, 143760, Note_on_c, 9, 42, 60
1, 143760, Note_on_c, 9, 54, 64
1, 143999, Note_on_c, 9, 42, 0
1, 143999, Note_on_c, 9, 54, 0
1, 144000, Note_on_c, 9, 42, 127
1, 144000, Note_on_c, 9, 54, 64
1, 144000, Note_on_c, 9, 36, 116
1, 144239, Note_on_c, 9, 42, 0
1, 144239, Note_on_c, 9, 54, 0
1, 144240, Note_on_c, 9, 42, 60
1, 144240, Note_on_c, 9, 54, 64
1, 144479, Note_on_c, 9, 36, 0
1, 144479, Note_on_c, 9, 42, 0
1, 144479, Note_on_c, 9, 54, 0
1, 144480, Note_on_c, 9, 38, 116
1, 144480, Note_on_c, 9, 39, 100
1, 144480, Note_on_c, 9, 42, 127
1, 144480, Note_on_c, 9, 54, 64
1, 144719, Note_on_c, 9, 38, 0
1, 144719, Note_on_c, 9, 39, 0
1, 144719, Note_on_c, 9, 42, 0
1, 144719, Note_on_c, 9, 54, 0
1, 144720, Note_on_c, 9, 42, 60
1, 144720, Note_on_c, 9, 54, 64
1, 144959, Note_on_c, 9, 42, 0
1, 144959, Note_on_c, 9, 54, 0
1, 144960, Note_on_c, 9, 42, 127
1, 144960, Note_on_c, 9, 54, 64
1, 144960, Note_on_c, 9, 36, 116
1, 145199, Note_on_c, 9, 42, 0
1, 145199, Note_on_c, 9, 54, 0
1, 145200, Note_on_c, 9, 42, 60
1, 145200, Note_on_c, 9, 54, 64
1, 145439, Note_on_c, 9, 36, 0
1, 145439, Note_on_c, 9, 42, 0
1, 145439, Note_on_c, 9, 54, 0
1, 145440, Note_on_c, 9, 38, 116
1, 145440, Note_on_c, 9, 39, 100
1, 145440, Note_on_c, 9, 42, 127
1, 145440, Note_on_c, 9, 54, 64
1, 145679, Note_on_c, 9, 38, 0
1, 145679, Note_on_c, 9, 39, 0
1, 145679, Note_on_c, 9, 42, 0
1, 145679, Note_on_c, 9, 54, 0
1, 145680, Note_on_c, 9, 42, 60
1, 145680, Note_on_c, 9, 54, 64
1, 145919, Note_on_c, 9, 42, 0
1, 145919, Note_on_c, 9, 54, 0
1, 145920, Note_on_c, 9, 42, 127
1, 145920, Note_on_c, 9, 54, 64
1, 145920, Note_on_c, 9, 36, 116
1, 146159, Note_on_c, 9, 42, 0
1, 146159, Note_on_c, 9, 54, 0
1, 146160, Note_on_c, 9, 42, 60
1, 146160, Note_on_c, 9, 54, 64
1, 146399, Note_on_c, 9, 36, 0
1, 146399, Note_on_c, 9, 42, 0
1, 146399, Note_on_c, 9, 54, 0
1, 146400, Note_on_c, 9, 38, 116
1, 146400, Note_on_c, 9, 39, 100
1, 146400, Note_on_c, 9, 42, 127
1, 146400, Note_on_c, 9, 54, 64
1, 146639, Note_on_c, 9, 38, 0
1, 146639, Note_on_c, 9, 39, 0
1, 146639, Note_on_c, 9, 42, 0
1, 146639, Note_on_c, 9, 54, 0
1, 146640, Note_on_c, 9, 46, 60
1, 146640, Note_on_c, 9, 54, 64
1, 146879, Note_on_c, 9, 46, 0
1, 146879, Note_on_c, 9, 54, 0
1, 146880, Note_on_c, 9, 42, 127
1, 146880, Note_on_c, 9, 54, 64
1, 146880, Note_on_c, 9, 36, 116
1, 147119, Note_on_c, 9, 42, 0
1, 147119, Note_on_c, 9, 54, 0
1, 147120, Note_on_c, 9, 42, 60
1, 147120, Note_on_c, 9, 54, 64
1, 147359, Note_on_c, 9, 36, 0
1, 147359, Note_on_c, 9, 42, 0
1, 147359, Note_on_c, 9, 54, 0
1, 147360, Note_on_c, 9, 38, 116
1, 147360, Note_on_c, 9, 39, 100
1, 147360, Note_on_c, 9, 42, 127
1, 147360, Note_on_c, 9, 54, 64
1, 147599, Note_on_c, 9, 38, 0
1, 147599, Note_on_c, 9, 39, 0
1, 147599, Note_on_c, 9, 42, 0
1, 147599, Note_on_c, 9, 54, 0
1, 147600, Note_on_c, 9, 42, 60
1, 147600, Note_on_c, 9, 54, 64
1, 147839, Note_on_c, 9, 42, 0
1, 147839, Note_on_c, 9, 54, 0
1, 147840, Note_on_c, 9, 42, 127
1, 147840, Note_on_c, 9, 54, 64
1, 147840, Note_on_c, 9, 36, 116
1, 148079, Note_on_c, 9, 42, 0
1, 148079, Note_on_c, 9, 54, 0
1, 148080, Note_on_c, 9, 42, 60
1, 148080, Note_on_c, 9, 54, 64
1, 148319, Note_on_c, 9, 36, 0
1, 148319, Note_on_c, 9, 42, 0
1, 148319, Note_on_c, 9, 54, 0
1, 148320, Note_on_c, 9, 38, 116
1, 148320, Note_on_c, 9, 39, 100
1, 148320, Note_on_c, 9, 42, 127
1, 148320, Note_on_c, 9, 54, 64
1, 148559, Note_on_c, 9, 38, 0
1, 148559, Note_on_c, 9, 39, 0
1, 148559, Note_on_c, 9, 42, 0
1, 148559, Note_on_c, 9, 54, 0
1, 148560, Note_on_c, 9, 42, 60
1, 148560, Note_on_c, 9, 54, 64
1, 148799, Note_on_c, 9, 42, 0
1, 148799, Note_on_c, 9, 54, 0
1, 148800, Note_on_c, 9, 42, 127
1, 148800, Note_on_c, 9, 54, 64
1, 148800, Note_on_c, 9, 36, 116
1, 149039, Note_on_c, 9, 42, 0
1, 149039, Note_on_c, 9, 54, 0
1, 149040, Note_on_c, 9, 42, 60
1, 149040, Note_on_c, 9, 54, 64
1, 149279, Note_on_c, 9, 36, 0
1, 149279, Note_on_c, 9, 42, 0
1, 149279, Note_on_c, 9, 54, 0
1, 149280, Note_on_c, 9, 38, 116
1, 149280, Note_on_c, 9, 39, 100
1, 149280, Note_on_c, 9, 42, 127
1, 149280, Note_on_c, 9, 54, 64
1, 149519, Note_on_c, 9, 38, 0
1, 149519, Note_on_c, 9, 39, 0
1, 149519, Note_on_c, 9, 42, 0
1, 149519, Note_on_c, 9, 54, 0
1, 149520, Note_on_c, 9, 42, 60
1, 149520, Note_on_c, 9, 54, 64
1, 149759, Note_on_c, 9, 42, 0
1, 149759, Note_on_c, 9, 54, 0
1, 149760, Note_on_c, 9, 42, 127
1, 149760, Note_on_c, 9, 46, 60
1, 149760, Note_on_c, 9, 54, 64
1, 149760, Note_on_c, 9, 36, 116
1, 149999, Note_on_c, 9, 42, 0
1, 149999, Note_on_c, 9, 46, 0
1, 149999, Note_on_c, 9, 54, 0
1, 150000, Note_on_c, 9, 42, 60
1, 150000, Note_on_c, 9, 54, 64
1, 150239, Note_on_c, 9, 36, 0
1, 150239, Note_on_c, 9, 42, 0
1, 150239, Note_on_c, 9, 54, 0
1, 150240, Note_on_c, 9, 38, 116
1, 150240, Note_on_c, 9, 39, 100
1, 150240, Note_on_c, 9, 42, 127
1, 150240, Note_on_c, 9, 54, 64
1, 150479, Note_on_c, 9, 38, 0
1, 150479, Note_on_c, 9, 39, 0
1, 150479, Note_on_c, 9, 42, 0
1, 150479, Note_on_c, 9, 54, 0
1, 150480, Note_on_c, 9, 42, 60
1, 150480, Note_on_c, 9, 54, 64
1, 150719, Note_on_c, 9, 42, 0
1, 150719, Note_on_c, 9, 54, 0
1, 150720, Note_on_c, 9, 42, 127
1, 150720, Note_on_c, 9, 54, 64
1, 150720, Note_on_c, 9, 36, 116
1, 150959, Note_on_c, 9, 42, 0
1, 150959, Note_on_c, 9, 54, 0
1, 150960, Note_on_c, 9, 42, 60
1, 150960, Note_on_c, 9, 54, 64
1, 151199, Note_on_c, 9, 36, 0
1, 151199, Note_on_c, 9, 42, 0
1, 151199, Note_on_c, 9, 54, 0
1, 151200, Note_on_c, 9, 38, 116
1, 151200, Note_on_c, 9, 39, 100
1, 151200, Note_on_c, 9, 42, 127
1, 151200, Note_on_c, 9, 54, 64
1, 151439, Note_on_c, 9, 38, 0
1, 151439, Note_on_c, 9, 39, 0
1, 151439, Note_on_c, 9, 42, 0
1, 151439, Note_on_c, 9, 54, 0
1, 151440, Note_on_c, 9, 42, 60
1, 151440, Note_on_c, 9, 54, 64
1, 151679, Note_on_c, 9, 42, 0
1, 151679, Note_on_c, 9, 54, 0
1, 151680, Note_on_c, 9, 42, 127
1, 151680, Note_on_c, 9, 54, 64
1, 151680, Note_on_c, 9, 36, 116
1, 151919, Note_on_c, 9, 42, 0
1, 151919, Note_on_c, 9, 54, 0
1, 151920, Note_on_c, 9, 42, 60
1, 151920, Note_on_c, 9, 54, 64
1, 152159, Note_on_c, 9, 36, 0
1, 152159, Note_on_c, 9, 42, 0
1, 152159, Note_on_c, 9, 54, 0
1, 152160, Note_on_c, 9, 38, 116
1, 152160, Note_on_c, 9, 39, 100
1, 152160, Note_on_c, 9, 42, 127
1, 152160, Note_on_c, 9, 54, 64
1, 152339, Note_on_c, 9, 54, 0
1, 152384, Note_on_c, 9, 38, 0
1, 152384, Note_on_c, 9, 39, 0
1, 152384, Note_on_c, 9, 42, 0
1, 152385, Note_on_c, 9, 42, 60
1, 152400, Note_on_c, 9, 54, 64
1, 152579, Note_on_c, 9, 42, 0
1, 152579, Note_on_c, 9, 54, 0
1, 152625, Note_on_c, 9, 42, 127
1, 152640, Note_on_c, 9, 54, 64
1, 152640, Note_on_c, 9, 36, 116
1, 152819, Note_on_c, 9, 42, 0
1, 152819, Note_on_c, 9, 54, 0
1, 152865, Note_on_c, 9, 42, 60
1, 152880, Note_on_c, 9, 54, 64
1, 153119, Note_on_c, 9, 36, 0
1, 153119, Note_on_c, 9, 42, 0
1, 153119, Note_on_c, 9, 54, 0
1, 153120, Note_on_c, 9, 38, 116
1, 153120, Note_on_c, 9, 39, 100
1, 153120, Note_on_c, 9, 42, 127
1, 153120, Note_on_c, 9, 54, 64
1, 153359, Note_on_c, 9, 38, 0
1, 153359, Note_on_c, 9, 39, 0
1, 153359, Note_on_c, 9, 42, 0
1, 153359, Note_on_c, 9, 54, 0
1, 153360, Note_on_c, 9, 42, 60
1, 153360, Note_on_c, 9, 54, 64
1, 153599, Note_on_c, 9, 42, 0
1, 153599, Note_on_c, 9, 54, 0
1, 153600, Note_on_c, 9, 42, 127
1, 153600, Note_on_c, 9, 54, 64
1, 153600, Note_on_c, 9, 36, 116
1, 153839, Note_on_c, 9, 42, 0
1, 153839, Note_on_c, 9, 54, 0
1, 153840, Note_on_c, 9, 42, 60
1, 153840, Note_on_c, 9, 54, 64
1, 154079, Note_on_c, 9, 36, 0
1, 154079, Note_on_c, 9, 42, 0
1, 154079, Note_on_c, 9, 54, 0
1, 154080, Note_on_c, 9, 38, 116
1, 154080, Note_on_c, 9, 42, 127
1, 154094, Note_on_c, 9, 38, 0
1, 154094, Note_on_c, 9, 42, 0
1, 154095, Note_on_c, 9, 39, 100
1, 154095, Note_on_c, 9, 54, 64
1, 154319, Note_on_c, 9, 39, 0
1, 154319, Note_on_c, 9, 54, 0
1, 154320, Note_on_c, 9, 46, 60
1, 154320, Note_on_c, 9, 54, 64
1, 154559, Note_on_c, 9, 46, 0
1, 154559, Note_on_c, 9, 54, 0
1, 154560, Note_on_c, 9, 42, 127
1, 154560, Note_on_c, 9, 54, 64
1, 154560, Note_on_c, 9, 36, 116
1, 154799, Note_on_c, 9, 42, 0
1, 154799, Note_on_c, 9, 54, 0
1, 154800, Note_on_c, 9, 42, 60
1, 154800, Note_on_c, 9, 54, 64
1, 155039, Note_on_c, 9, 36, 0
1, 155039, Note_on_c, 9, 42, 0
1, 155039, Note_on_c, 9, 54, 0
1, 155040, Note_on_c, 9, 38, 116
1, 155040, Note_on_c, 9, 39, 100
1, 155040, Note_on_c, 9, 42, 127
1, 155040, Note_on_c, 9, 54, 64
1, 155279, Note_on_c, 9, 38, 0
1, 155279, Note_on_c, 9, 39, 0
1, 155279, Note_on_c, 9, 42, 0
1, 155279, Note_on_c, 9, 54, 0
1, 155280, Note_on_c, 9, 42, 60
1, 155280, Note_on_c, 9, 54, 64
1, 155519, Note_on_c, 9, 42, 0
1, 155519, Note_on_c, 9, 54, 0
1, 155520, Note_on_c, 9, 42, 127
1, 155520, Note_on_c, 9, 36, 116
1, 155539, Note_on_c, 9, 42, 0
1, 155540, Note_on_c, 9, 54, 64
1, 155579, Note_on_c, 9, 54, 0
1, 155760, Note_on_c, 9, 42, 60
1, 155999, Note_on_c, 9, 36, 0
1, 155999, Note_on_c, 9, 42, 0
1, 156000, Note_on_c, 9, 38, 116
1, 156014, Note_on_c, 9, 38, 0
1, 156015, Note_on_c, 9, 39, 100
1, 156015, Note_on_c, 9, 42, 127
1, 156239, Note_on_c, 9, 39, 0
1, 156239, Note_on_c, 9, 42, 0
1, 156240, Note_on_c, 9, 42, 60
1, 156240, Note_on_c, 9, 36, 116
1, 156479, Note_on_c, 9, 42, 0
1, 156479, Note_on_c, 9, 36, 0
1, 156480, Note_on_c, 9, 38, 116
1, 156480, Note_on_c, 9, 36, 116
1, 156494, Note_on_c, 9, 38, 0
1, 156495, Note_on_c, 9, 39, 100
1, 156495, Note_on_c, 9, 42, 127
1, 156719, Note_on_c, 9, 36, 0
1, 156719, Note_on_c, 9, 39, 0
1, 156719, Note_on_c, 9, 42, 0
1, 156720, Note_on_c, 9, 42, 60
1, 156720, Note_on_c, 9, 36, 116
1, 156959, Note_on_c, 9, 42, 0
1, 156959, Note_on_c, 9, 36, 0
1, 156960, Note_on_c, 9, 38, 116
1, 156960, Note_on_c, 9, 42, 127
1, 156974, Note_on_c, 9, 38, 0
1, 156974, Note_on_c, 9, 42, 0
1, 156975, Note_on_c, 9, 39, 100
1, 157199, Note_on_c, 9, 39, 0
1, 157200, Note_on_c, 9, 42, 60
1, 157200, Note_on_c, 9, 36, 116
1, 157439, Note_on_c, 9, 42, 0
1, 157439, Note_on_c, 9, 36, 0
1, 157440, Note_on_c, 9, 42, 127
1, 157440, Note_on_c, 9, 46, 60
1, 157440, Note_on_c, 9, 36, 116
1, 157479, Note_on_c, 9, 42, 0
1, 157479, Note_on_c, 9, 46, 0
1, 157480, Note_on_c, 9, 54, 122
1, 157599, Note_on_c, 9, 54, 0
1, 157600, Note_on_c, 9, 54, 82
1, 157679, Note_on_c, 9, 54, 0
1, 157680, Note_on_c, 9, 42, 60
1, 157680, Note_on_c, 9, 54, 108
1, 157839, Note_on_c, 9, 42, 0
1, 157839, Note_on_c, 9, 54, 0
1, 157840, Note_on_c, 9, 54, 79
1, 157919, Note_on_c, 9, 36, 0
1, 157919, Note_on_c, 9, 54, 0
1, 157920, Note_on_c, 9, 38, 116
1, 157920, Note_on_c, 9, 39, 100
1, 157920, Note_on_c, 9, 42, 127
1, 157920, Note_on_c, 9, 54, 104
1, 158039, Note_on_c, 9, 38, 0
1, 158039, Note_on_c, 9, 39, 0
1, 158039, Note_on_c, 9, 42, 0
1, 158039, Note_on_c, 9, 54, 0
1, 158070, Note_on_c, 9, 54, 73
1, 158129, Note_on_c, 9, 54, 0
1, 158145, Note_on_c, 9, 42, 60
1, 158145, Note_on_c, 9, 54, 113
1, 158279, Note_on_c, 9, 42, 0
1, 158279, Note_on_c, 9, 54, 0
1, 158310, Note_on_c, 9, 54, 76
1, 158369, Note_on_c, 9, 54, 0
1, 158385, Note_on_c, 9, 42, 127
1, 158385, Note_on_c, 9, 54, 117
1, 158400, Note_on_c, 9, 36, 116
1, 158519, Note_on_c, 9, 42, 0
1, 158519, Note_on_c, 9, 54, 0
1, 158560, Note_on_c, 9, 54, 53
1, 158579, Note_on_c, 9, 54, 0
1, 158625, Note_on_c, 9, 42, 60
1, 158625, Note_on_c, 9, 54, 113
1, 158759, Note_on_c, 9, 42, 0
1, 158759, Note_on_c, 9, 54, 0
1, 158790, Note_on_c, 9, 54, 67
1, 158849, Note_on_c, 9, 54, 0
1, 158865, Note_on_c, 9, 38, 116
1, 158865, Note_on_c, 9, 39, 100
1, 158865, Note_on_c, 9, 42, 127
1, 158865, Note_on_c, 9, 54, 117
1, 158879, Note_on_c, 9, 36, 0
1, 158999, Note_on_c, 9, 38, 0
1, 158999, Note_on_c, 9, 39, 0
1, 158999, Note_on_c, 9, 42, 0
1, 158999, Note_on_c, 9, 54, 0
1, 159030, Note_on_c, 9, 54, 85
1, 159089, Note_on_c, 9, 54, 0
1, 159105, Note_on_c, 9, 42, 60
1, 159105, Note_on_c, 9, 54, 117
1, 159239, Note_on_c, 9, 42, 0
1, 159239, Note_on_c, 9, 54, 0
1, 159240, Note_on_c, 9, 54, 89
1, 159359, Note_on_c, 9, 54, 0
1, 159360, Note_on_c, 9, 42, 127
1, 159360, Note_on_c, 9, 54, 117
1, 159360, Note_on_c, 9, 36, 116
1, 159479, Note_on_c, 9, 42, 0
1, 159479, Note_on_c, 9, 54, 0
1, 159510, Note_on_c, 9, 54, 76
1, 159599, Note_on_c, 9, 54, 0
1, 159600, Note_on_c, 9, 42, 60
1, 159614, Note_on_c, 9, 42, 0
1, 159615, Note_on_c, 9, 54, 117
1, 159659, Note_on_c, 9, 54, 0
1, 159750, Note_on_c, 9, 54, 70
1, 159839, Note_on_c, 9, 36, 0
1, 159839, Note_on_c, 9, 54, 0
1, 159840, Note_on_c, 9, 38, 116
1, 159840, Note_on_c, 9, 42, 127
1, 159859, Note_on_c, 9, 38, 0
1, 159859, Note_on_c, 9, 42, 0
1, 159860, Note_on_c, 9, 39, 100
1, 159879, Note_on_c, 9, 39, 0
1, 159880, Note_on_c, 9, 54, 117
1, 159899, Note_on_c, 9, 54, 0
1, 159990, Note_on_c, 9, 54, 85
1, 160079, Note_on_c, 9, 54, 0
1, 160080, Note_on_c, 9, 42, 60
1, 160094, Note_on_c, 9, 42, 0
1, 160095, Note_on_c, 9, 54, 113
1, 160139, Note_on_c, 9, 54, 0
1, 160240, Note_on_c, 9, 54, 70
1, 160319, Note_on_c, 9, 54, 0
1, 160320, Note_on_c, 9, 42, 127
1, 160320, Note_on_c, 9, 36, 116
1, 160359, Note_on_c, 9, 42, 0
1, 160360, Note_on_c, 9, 54, 122
1, 160479, Note_on_c, 9, 54, 0
1, 160480, Note_on_c, 9, 54, 89
1, 160559, Note_on_c, 9, 54, 0
1, 160560, Note_on_c, 9, 42, 60
1, 160574, Note_on_c, 9, 42, 0
1, 160575, Note_on_c, 9, 54, 113
1, 160739, Note_on_c, 9, 54, 0
1, 160740, Note_on_c, 9, 54, 89
1, 160799, Note_on_c, 9, 36, 0
1, 160799, Note_on_c, 9, 54, 0
1, 160800, Note_on_c, 9, 38, 116
1, 160839, Note_on_c, 9, 38, 0
1, 160840, Note_on_c, 9, 39, 100
1, 160840, Note_on_c, 9, 42, 127
1, 160879, Note_on_c, 9, 39, 0
1, 160879, Note_on_c, 9, 42, 0
1, 160880, Note_on_c, 9, 54, 113
1, 160959, Note_on_c, 9, 54, 0
1, 160960, Note_on_c, 9, 54, 92
1, 161039, Note_on_c, 9, 54, 0
1, 161040, Note_on_c, 9, 42, 60
1, 161079, Note_on_c, 9, 42, 0
1, 161080, Note_on_c, 9, 54, 117
1, 161199, Note_on_c, 9, 54, 0
1, 161200, Note_on_c, 9, 54, 82
1, 161279, Note_on_c, 9, 54, 0
1, 161280, Note_on_c, 9, 42, 127
1, 161280, Note_on_c, 9, 36, 116
1, 161319, Note_on_c, 9, 42, 0
1, 161320, Note_on_c, 9, 54, 122
1, 161439, Note_on_c, 9, 54, 0
1, 161440, Note_on_c, 9, 54, 82
1, 161519, Note_on_c, 9, 54, 0
1, 161520, Note_on_c, 9, 42, 60
1, 161520, Note_on_c, 9, 54, 108
1, 161679, Note_on_c, 9, 42, 0
1, 161679, Note_on_c, 9, 54, 0
1, 161680, Note_on_c, 9, 54, 79
1, 161759, Note_on_c, 9, 36, 0
1, 161759, Note_on_c, 9, 54, 0
1, 161760, Note_on_c, 9, 38, 116
1, 161760, Note_on_c, 9, 39, 100
1, 161760, Note_on_c, 9, 42, 127
1, 161760, Note_on_c, 9, 54, 104
1, 161879, Note_on_c, 9, 38, 0
1, 161879, Note_on_c, 9, 39, 0
1, 161879, Note_on_c, 9, 42, 0
1, 161879, Note_on_c, 9, 54, 0
1, 161910, Note_on_c, 9, 54, 73
1, 161969, Note_on_c, 9, 54, 0
1, 161985, Note_on_c, 9, 46, 60
1, 161985, Note_on_c, 9, 54, 113
1, 162119, Note_on_c, 9, 46, 0
1, 162119, Note_on_c, 9, 54, 0
1, 162150, Note_on_c, 9, 54, 76
1, 162209, Note_on_c, 9, 54, 0
1, 162210, Note_on_c, 9, 54, 117
1, 162240, Note_on_c, 9, 42, 127
1, 162240, Note_on_c, 9, 36, 116
1, 162329, Note_on_c, 9, 54, 0
1, 162359, Note_on_c, 9, 42, 0
1, 162400, Note_on_c, 9, 54, 53
1, 162419, Note_on_c, 9, 54, 0
1, 162465, Note_on_c, 9, 42, 60
1, 162465, Note_on_c, 9, 54, 113
1, 162599, Note_on_c, 9, 42, 0
1, 162599, Note_on_c, 9, 54, 0
1, 162630, Note_on_c, 9, 54, 67
1, 162689, Note_on_c, 9, 54, 0
1, 162705, Note_on_c, 9, 38, 116
1, 162705, Note_on_c, 9, 39, 100
1, 162705, Note_on_c, 9, 42, 127
1, 162705, Note_on_c, 9, 54, 117
1, 162719, Note_on_c, 9, 36, 0
1, 162839, Note_on_c, 9, 38, 0
1, 162839, Note_on_c, 9, 39, 0
1, 162839, Note_on_c, 9, 42, 0
1, 162839, Note_on_c, 9, 54, 0
1, 162870, Note_on_c, 9, 54, 85
1, 162929, Note_on_c, 9, 54, 0
1, 162945, Note_on_c, 9, 42, 60
1, 162945, Note_on_c, 9, 54, 117
1, 163079, Note_on_c, 9, 42, 0
1, 163079, Note_on_c, 9, 54, 0
1, 163080, Note_on_c, 9, 54, 89
1, 163199, Note_on_c, 9, 54, 0
1, 163200, Note_on_c, 9, 42, 127
1, 163200, Note_on_c, 9, 54, 117
1, 163200, Note_on_c, 9, 36, 116
1, 163319, Note_on_c, 9, 42, 0
1, 163319, Note_on_c, 9, 54, 0
1, 163350, Note_on_c, 9, 54, 76
1, 163439, Note_on_c, 9, 54, 0
1, 163440, Note_on_c, 9, 42, 60
1, 163454, Note_on_c, 9, 42, 0
1, 163455, Note_on_c, 9, 54, 117
1, 163499, Note_on_c, 9, 54, 0
1, 163590, Note_on_c, 9, 54, 70
1, 163679, Note_on_c, 9, 36, 0
1, 163679, Note_on_c, 9, 54, 0
1, 163680, Note_on_c, 9, 38, 116
1, 163680, Note_on_c, 9, 42, 127
1, 163699, Note_on_c, 9, 38, 0
1, 163699, Note_on_c, 9, 42, 0
1, 163700, Note_on_c, 9, 39, 100
1, 163719, Note_on_c, 9, 39, 0
1, 163720, Note_on_c, 9, 54, 117
1, 163739, Note_on_c, 9, 54, 0
1, 163830, Note_on_c, 9, 54, 85
1, 163919, Note_on_c, 9, 54, 0
1, 163920, Note_on_c, 9, 42, 60
1, 163934, Note_on_c, 9, 42, 0
1, 163935, Note_on_c, 9, 54, 113
1, 163979, Note_on_c, 9, 54, 0
1, 164080, Note_on_c, 9, 54, 70
1, 164159, Note_on_c, 9, 54, 0
1, 164160, Note_on_c, 9, 42, 127
1, 164160, Note_on_c, 9, 36, 116
1, 164199, Note_on_c, 9, 42, 0
1, 164200, Note_on_c, 9, 54, 122
1, 164319, Note_on_c, 9, 54, 0
1, 164320, Note_on_c, 9, 54, 89
1, 164399, Note_on_c, 9, 54, 0
1, 164400, Note_on_c, 9, 42, 60
1, 164414, Note_on_c, 9, 42, 0
1, 164415, Note_on_c, 9, 54, 113
1, 164579, Note_on_c, 9, 54, 0
1, 164580, Note_on_c, 9, 54, 89
1, 164639, Note_on_c, 9, 36, 0
1, 164639, Note_on_c, 9, 54, 0
1, 164640, Note_on_c, 9, 38, 116
1, 164679, Note_on_c, 9, 38, 0
1, 164680, Note_on_c, 9, 39, 100
1, 164680, Note_on_c, 9, 42, 127
1, 164719, Note_on_c, 9, 39, 0
1, 164719, Note_on_c, 9, 42, 0
1, 164720, Note_on_c, 9, 54, 113
1, 164799, Note_on_c, 9, 54, 0
1, 164800, Note_on_c, 9, 54, 92
1, 164879, Note_on_c, 9, 54, 0
1, 164880, Note_on_c, 9, 42, 60
1, 164919, Note_on_c, 9, 42, 0
1, 164920, Note_on_c, 9, 54, 117
1, 165039, Note_on_c, 9, 54, 0
1, 165040, Note_on_c, 9, 54, 82
1, 165119, Note_on_c, 9, 54, 0
1, 165120, Note_on_c, 9, 42, 127
1, 165120, Note_on_c, 9, 36, 116
1, 165159, Note_on_c, 9, 42, 0
1, 165160, Note_on_c, 9, 46, 60
1, 165199, Note_on_c, 9, 46, 0
1, 165200, Note_on_c, 9, 54, 122
1, 165279, Note_on_c, 9, 54, 0
1, 165280, Note_on_c, 9, 54, 82
1, 165359, Note_on_c, 9, 54, 0
1, 165360, Note_on_c, 9, 42, 60
1, 165360, Note_on_c, 9, 54, 108
1, 165519, Note_on_c, 9, 42, 0
1, 165519, Note_on_c, 9, 54, 0
1, 165520, Note_on_c, 9, 54, 79
1, 165599, Note_on_c, 9, 36, 0
1, 165599, Note_on_c, 9, 54, 0
1, 165600, Note_on_c, 9, 38, 116
1, 165600, Note_on_c, 9, 39, 100
1, 165600, Note_on_c, 9, 42, 127
1, 165600, Note_on_c, 9, 54, 104
1, 165719, Note_on_c, 9, 38, 0
1, 165719, Note_on_c, 9, 39, 0
1, 165719, Note_on_c, 9, 42, 0
1, 165719, Note_on_c, 9, 54, 0
1, 165750, Note_on_c, 9, 54, 73
1, 165809, Note_on_c, 9, 54, 0
1, 165825, Note_on_c, 9, 42, 60
1, 165825, Note_on_c, 9, 54, 113
1, 165959, Note_on_c, 9, 42, 0
1, 165959, Note_on_c, 9, 54, 0
1, 165990, Note_on_c, 9, 54, 76
1, 166049, Note_on_c, 9, 54, 0
1, 166065, Note_on_c, 9, 42, 127
1, 166065, Note_on_c, 9, 54, 117
1, 166080, Note_on_c, 9, 36, 116
1, 166199, Note_on_c, 9, 42, 0
1, 166199, Note_on_c, 9, 54, 0
1, 166240, Note_on_c, 9, 54, 53
1, 166259, Note_on_c, 9, 54, 0
1, 166305, Note_on_c, 9, 42, 60
1, 166305, Note_on_c, 9, 54, 113
1, 166439, Note_on_c, 9, 42, 0
1, 166439, Note_on_c, 9, 54, 0
1, 166470, Note_on_c, 9, 54, 67
1, 166529, Note_on_c, 9, 54, 0
1, 166545, Note_on_c, 9, 38, 116
1, 166545, Note_on_c, 9, 39, 100
1, 166545, Note_on_c, 9, 42, 127
1, 166545, Note_on_c, 9, 54, 117
1, 166559, Note_on_c, 9, 36, 0
1, 166679, Note_on_c, 9, 38, 0
1, 166679, Note_on_c, 9, 39, 0
1, 166679, Note_on_c, 9, 42, 0
1, 166679, Note_on_c, 9, 54, 0
1, 166710, Note_on_c, 9, 54, 85
1, 166769, Note_on_c, 9, 54, 0
1, 166785, Note_on_c, 9, 42, 60
1, 166785, Note_on_c, 9, 54, 117
1, 166919, Note_on_c, 9, 42, 0
1, 166919, Note_on_c, 9, 54, 0
1, 166920, Note_on_c, 9, 54, 89
1, 167039, Note_on_c, 9, 54, 0
1, 167040, Note_on_c, 9, 42, 127
1, 167040, Note_on_c, 9, 54, 117
1, 167040, Note_on_c, 9, 36, 116
1, 167159, Note_on_c, 9, 42, 0
1, 167159, Note_on_c, 9, 54, 0
1, 167190, Note_on_c, 9, 54, 76
1, 167279, Note_on_c, 9, 54, 0
1, 167280, Note_on_c, 9, 42, 60
1, 167294, Note_on_c, 9, 42, 0
1, 167295, Note_on_c, 9, 54, 117
1, 167339, Note_on_c, 9, 54, 0
1, 167430, Note_on_c, 9, 54, 70
1, 167519, Note_on_c, 9, 36, 0
1, 167519, Note_on_c, 9, 54, 0
1, 167520, Note_on_c, 9, 38, 116
1, 167520, Note_on_c, 9, 42, 127
1, 167539, Note_on_c, 9, 38, 0
1, 167539, Note_on_c, 9, 42, 0
1, 167540, Note_on_c, 9, 39, 100
1, 167559, Note_on_c, 9, 39, 0
1, 167560, Note_on_c, 9, 54, 117
1, 167579, Note_on_c, 9, 54, 0
1, 167670, Note_on_c, 9, 54, 85
1, 167759, Note_on_c, 9, 54, 0
1, 167760, Note_on_c, 9, 42, 60
1, 167774, Note_on_c, 9, 42, 0
1, 167775, Note_on_c, 9, 54, 113
1, 167819, Note_on_c, 9, 54, 0
1, 167920, Note_on_c, 9, 54, 70
1, 167999, Note_on_c, 9, 54, 0
1, 168000, Note_on_c, 9, 42, 127
1, 168000, Note_on_c, 9, 36, 116
1, 168039, Note_on_c, 9, 42, 0
1, 168040, Note_on_c, 9, 54, 122
1, 168159, Note_on_c, 9, 54, 0
1, 168160, Note_on_c, 9, 54, 89
1, 168239, Note_on_c, 9, 54, 0
1, 168240, Note_on_c, 9, 42, 60
1, 168254, Note_on_c, 9, 42, 0
1, 168255, Note_on_c, 9, 54, 113
1, 168419, Note_on_c, 9, 54, 0
1, 168420, Note_on_c, 9, 54, 89
1, 168479, Note_on_c, 9, 36, 0
1, 168479, Note_on_c, 9, 54, 0
1, 168480, Note_on_c, 9, 38, 116
1, 168519, Note_on_c, 9, 38, 0
1, 168520, Note_on_c, 9, 39, 100
1, 168520, Note_on_c, 9, 42, 127
1, 168559, Note_on_c, 9, 39, 0
1, 168559, Note_on_c, 9, 42, 0
1, 168560, Note_on_c, 9, 54, 113
1, 168639, Note_on_c, 9, 54, 0
1, 168640, Note_on_c, 9, 54, 92
1, 168719, Note_on_c, 9, 54, 0
1, 168720, Note_on_c, 9, 42, 60
1, 168759, Note_on_c, 9, 42, 0
1, 168760, Note_on_c, 9, 54, 117
1, 168879, Note_on_c, 9, 54, 0
1, 168880, Note_on_c, 9, 54, 82
1, 168959, Note_on_c, 9, 54, 0
1, 168960, Note_on_c, 9, 42, 127
1, 168960, Note_on_c, 9, 36, 116
1, 168999, Note_on_c, 9, 42, 0
1, 169000, Note_on_c, 9, 54, 122
1, 169119, Note_on_c, 9, 54, 0
1, 169120, Note_on_c, 9, 54, 82
1, 169199, Note_on_c, 9, 54, 0
1, 169200, Note_on_c, 9, 42, 60
1, 169200, Note_on_c, 9, 54, 108
1, 169359, Note_on_c, 9, 42, 0
1, 169359, Note_on_c, 9, 54, 0
1, 169360, Note_on_c, 9, 54, 79
1, 169439, Note_on_c, 9, 36, 0
1, 169439, Note_on_c, 9, 54, 0
1, 169440, Note_on_c, 9, 38, 116
1, 169440, Note_on_c, 9, 39, 100
1, 169440, Note_on_c, 9, 42, 127
1, 169440, Note_on_c, 9, 54, 104
1, 169559, Note_on_c, 9, 38, 0
1, 169559, Note_on_c, 9, 39, 0
1, 169559, Note_on_c, 9, 42, 0
1, 169559, Note_on_c, 9, 54, 0
1, 169590, Note_on_c, 9, 54, 73
1, 169649, Note_on_c, 9, 54, 0
1, 169665, Note_on_c, 9, 46, 60
1, 169665, Note_on_c, 9, 54, 113
1, 169799, Note_on_c, 9, 46, 0
1, 169799, Note_on_c, 9, 54, 0
1, 169830, Note_on_c, 9, 54, 76
1, 169889, Note_on_c, 9, 54, 0
1, 169905, Note_on_c, 9, 42, 127
1, 169905, Note_on_c, 9, 54, 117
1, 169920, Note_on_c, 9, 36, 116
1, 170039, Note_on_c, 9, 42, 0
1, 170039, Note_on_c, 9, 54, 0
1, 170080, Note_on_c, 9, 54, 53
1, 170099, Note_on_c, 9, 54, 0
1, 170145, Note_on_c, 9, 42, 60
1, 170145, Note_on_c, 9, 54, 113
1, 170279, Note_on_c, 9, 42, 0
1, 170279, Note_on_c, 9, 54, 0
1, 170310, Note_on_c, 9, 54, 67
1, 170369, Note_on_c, 9, 54, 0
1, 170385, Note_on_c, 9, 38, 116
1, 170385, Note_on_c, 9, 39, 100
1, 170385, Note_on_c, 9, 42, 127
1, 170385, Note_on_c, 9, 54, 117
1, 170399, Note_on_c, 9, 36, 0
1, 170519, Note_on_c, 9, 38, 0
1, 170519, Note_on_c, 9, 39, 0
1, 170519, Note_on_c, 9, 42, 0
1, 170519, Note_on_c, 9, 54, 0
1, 170550, Note_on_c, 9, 54, 85
1, 170609, Note_on_c, 9, 54, 0
1, 170625, Note_on_c, 9, 42, 60
1, 170625, Note_on_c, 9, 54, 117
1, 170759, Note_on_c, 9, 42, 0
1, 170759, Note_on_c, 9, 54, 0
1, 170760, Note_on_c, 9, 54, 89
1, 170879, Note_on_c, 9, 54, 0
1, 170880, Note_on_c, 9, 42, 127
1, 170880, Note_on_c, 9, 54, 117
1, 170880, Note_on_c, 9, 36, 116
1, 170999, Note_on_c, 9, 42, 0
1, 170999, Note_on_c, 9, 54, 0
1, 171030, Note_on_c, 9, 54, 76
1, 171119, Note_on_c, 9, 54, 0
1, 171120, Note_on_c, 9, 42, 60
1, 171134, Note_on_c, 9, 42, 0
1, 171135, Note_on_c, 9, 54, 117
1, 171179, Note_on_c, 9, 54, 0
1, 171270, Note_on_c, 9, 54, 70
1, 171359, Note_on_c, 9, 36, 0
1, 171359, Note_on_c, 9, 54, 0
1, 171360, Note_on_c, 9, 38, 116
1, 171379, Note_on_c, 9, 38, 0
1, 171380, Note_on_c, 9, 39, 100
1, 171380, Note_on_c, 9, 42, 127
1, 171399, Note_on_c, 9, 39, 0
1, 171399, Note_on_c, 9, 42, 0
1, 171400, Note_on_c, 9, 54, 117
1, 171419, Note_on_c, 9, 54, 0
1, 171510, Note_on_c, 9, 54, 85
1, 171599, Note_on_c, 9, 54, 0
1, 171600, Note_on_c, 9, 42, 60
1, 171600, Note_on_c, 9, 36, 116
1, 171614, Note_on_c, 9, 42, 0
1, 171615, Note_on_c, 9, 54, 113
1, 171659, Note_on_c, 9, 54, 0
1, 171760, Note_on_c, 9, 54, 70
1, 171839, Note_on_c, 9, 36, 0
1, 171839, Note_on_c, 9, 54, 0
1, 171840, Note_on_c, 9, 38, 116
1, 171840, Note_on_c, 9, 36, 116
1, 171879, Note_on_c, 9, 38, 0
1, 171880, Note_on_c, 9, 39, 100
1, 171880, Note_on_c, 9, 42, 127
1, 171919, Note_on_c, 9, 39, 0
1, 171919, Note_on_c, 9, 42, 0
1, 171920, Note_on_c, 9, 54, 122
1, 171999, Note_on_c, 9, 54, 0
1, 172000, Note_on_c, 9, 54, 89
1, 172079, Note_on_c, 9, 36, 0
1, 172079, Note_on_c, 9, 54, 0
1, 172080, Note_on_c, 9, 42, 60
1, 172080, Note_on_c, 9, 36, 116
1, 172094, Note_on_c, 9, 42, 0
1, 172095, Note_on_c, 9, 54, 113
1, 172259, Note_on_c, 9, 54, 0
1, 172260, Note_on_c, 9, 54, 89
1, 172319, Note_on_c, 9, 36, 0
1, 172319, Note_on_c, 9, 54, 0
1, 172320, Note_on_c, 9, 38, 116
1, 172320, Note_on_c, 9, 42, 127
1, 172359, Note_on_c, 9, 38, 0
1, 172359, Note_on_c, 9, 42, 0
1, 172360, Note_on_c, 9, 39, 100
1, 172399, Note_on_c, 9, 39, 0
1, 172400, Note_on_c, 9, 54, 113
1, 172479, Note_on_c, 9, 54, 0
1, 172480, Note_on_c, 9, 54, 92
1, 172559, Note_on_c, 9, 54, 0
1, 172560, Note_on_c, 9, 42, 60
1, 172560, Note_on_c, 9, 36, 116
1, 172599, Note_on_c, 9, 42, 0
1, 172600, Note_on_c, 9, 54, 117
1, 172719, Note_on_c, 9, 54, 0
1, 172720, Note_on_c, 9, 54, 82
1, 172799, Note_on_c, 9, 36, 0
1, 172799, Note_on_c, 9, 54, 0
1, 172800, Note_on_c, 9, 42, 127
1, 172800, Note_on_c, 9, 46, 60
1, 172800, Note_on_c, 9, 36, 116
1, 172839, Note_on_c, 9, 42, 0
1, 172839, Note_on_c, 9, 46, 0
1, 172840, Note_on_c, 9, 54, 122
1, 172959, Note_on_c, 9, 54, 0
1, 172960, Note_on_c, 9, 54, 82
1, 173039, Note_on_c, 9, 54, 0
1, 173040, Note_on_c, 9, 42, 60
1, 173040, Note_on_c, 9, 54, 108
1, 173199, Note_on_c, 9, 42, 0
1, 173199, Note_on_c, 9, 54, 0
1, 173200, Note_on_c, 9, 54, 79
1, 173279, Note_on_c, 9, 36, 0
1, 173279, Note_on_c, 9, 54, 0
1, 173280, Note_on_c, 9, 38, 116
1, 173280, Note_on_c, 9, 39, 100
1, 173280, Note_on_c, 9, 42, 127
1, 173280, Note_on_c, 9, 54, 104
1, 173399, Note_on_c, 9, 38, 0
1, 173399, Note_on_c, 9, 39, 0
1, 173399, Note_on_c, 9, 42, 0
1, 173399, Note_on_c, 9, 54, 0
1, 173430, Note_on_c, 9, 54, 73
1, 173489, Note_on_c, 9, 54, 0
1, 173505, Note_on_c, 9, 42, 60
1, 173505, Note_on_c, 9, 54, 113
1, 173639, Note_on_c, 9, 42, 0
1, 173639, Note_on_c, 9, 54, 0
1, 173670, Note_on_c, 9, 54, 76
1, 173729, Note_on_c, 9, 54, 0
1, 173745, Note_on_c, 9, 42, 127
1, 173745, Note_on_c, 9, 54, 117
1, 173760, Note_on_c, 9, 36, 116
1, 173879, Note_on_c, 9, 42, 0
1, 173879, Note_on_c, 9, 54, 0
1, 173920, Note_on_c, 9, 54, 53
1, 173939, Note_on_c, 9, 54, 0
1, 173985, Note_on_c, 9, 42, 60
1, 173985, Note_on_c, 9, 54, 113
1, 174119, Note_on_c, 9, 42, 0
1, 174119, Note_on_c, 9, 54, 0
1, 174150, Note_on_c, 9, 54, 67
1, 174209, Note_on_c, 9, 54, 0
1, 174225, Note_on_c, 9, 38, 116
1, 174225, Note_on_c, 9, 39, 100
1, 174225, Note_on_c, 9, 42, 127
1, 174225, Note_on_c, 9, 54, 117
1, 174239, Note_on_c, 9, 36, 0
1, 174359, Note_on_c, 9, 38, 0
1, 174359, Note_on_c, 9, 39, 0
1, 174359, Note_on_c, 9, 42, 0
1, 174359, Note_on_c, 9, 54, 0
1, 174390, Note_on_c, 9, 54, 85
1, 174449, Note_on_c, 9, 54, 0
1, 174465, Note_on_c, 9, 42, 60
1, 174465, Note_on_c, 9, 54, 117
1, 174599, Note_on_c, 9, 42, 0
1, 174599, Note_on_c, 9, 54, 0
1, 174600, Note_on_c, 9, 54, 89
1, 174719, Note_on_c, 9, 54, 0
1, 174720, Note_on_c, 9, 42, 127
1, 174720, Note_on_c, 9, 54, 117
1, 174720, Note_on_c, 9, 36, 116
1, 174839, Note_on_c, 9, 42, 0
1, 174839, Note_on_c, 9, 54, 0
1, 174870, Note_on_c, 9, 54, 76
1, 174959, Note_on_c, 9, 54, 0
1, 174960, Note_on_c, 9, 42, 60
1, 174974, Note_on_c, 9, 42, 0
1, 174975, Note_on_c, 9, 54, 117
1, 175019, Note_on_c, 9, 54, 0
1, 175110, Note_on_c, 9, 54, 70
1, 175199, Note_on_c, 9, 36, 0
1, 175199, Note_on_c, 9, 54, 0
1, 175200, Note_on_c, 9, 38, 116
1, 175200, Note_on_c, 9, 42, 127
1, 175219, Note_on_c, 9, 38, 0
1, 175219, Note_on_c, 9, 42, 0
1, 175220, Note_on_c, 9, 39, 100
1, 175239, Note_on_c, 9, 39, 0
1, 175240, Note_on_c, 9, 54, 117
1, 175259, Note_on_c, 9, 54, 0
1, 175350, Note_on_c, 9, 54, 85
1, 175439, Note_on_c, 9, 54, 0
1, 175440, Note_on_c, 9, 42, 60
1, 175454, Note_on_c, 9, 42, 0
1, 175455, Note_on_c, 9, 54, 113
1, 175499, Note_on_c, 9, 54, 0
1, 175600, Note_on_c, 9, 54, 70
1, 175679, Note_on_c, 9, 54, 0
1, 175680, Note_on_c, 9, 42, 127
1, 175680, Note_on_c, 9, 36, 116
1, 175719, Note_on_c, 9, 42, 0
1, 175720, Note_on_c, 9, 54, 122
1, 175839, Note_on_c, 9, 54, 0
1, 175840, Note_on_c, 9, 54, 89
1, 175919, Note_on_c, 9, 54, 0
1, 175920, Note_on_c, 9, 42, 60
1, 175934, Note_on_c, 9, 42, 0
1, 175935, Note_on_c, 9, 54, 113
1, 176099, Note_on_c, 9, 54, 0
1, 176100, Note_on_c, 9, 54, 89
1, 176159, Note_on_c, 9, 36, 0
1, 176159, Note_on_c, 9, 54, 0
1, 176160, Note_on_c, 9, 38, 116
1, 176199, Note_on_c, 9, 38, 0
1, 176200, Note_on_c, 9, 39, 100
1, 176200, Note_on_c, 9, 42, 127
1, 176239, Note_on_c, 9, 39, 0
1, 176239, Note_on_c, 9, 42, 0
1, 176240, Note_on_c, 9, 54, 113
1, 176319, Note_on_c, 9, 54, 0
1, 176320, Note_on_c, 9, 54, 92
1, 176399, Note_on_c, 9, 54, 0
1, 176400, Note_on_c, 9, 42, 60
1, 176439, Note_on_c, 9, 42, 0
1, 176440, Note_on_c, 9, 54, 117
1, 176559, Note_on_c, 9, 54, 0
1, 176560, Note_on_c, 9, 54, 82
1, 176639, Note_on_c, 9, 54, 0
1, 176640, Note_on_c, 9, 42, 127
1, 176640, Note_on_c, 9, 36, 116
1, 176679, Note_on_c, 9, 42, 0
1, 176680, Note_on_c, 9, 54, 122
1, 176799, Note_on_c, 9, 54, 0
1, 176800, Note_on_c, 9, 54, 82
1, 176879, Note_on_c, 9, 54, 0
1, 176880, Note_on_c, 9, 42, 60
1, 176880, Note_on_c, 9, 54, 108
1, 177039, Note_on_c, 9, 42, 0
1, 177039, Note_on_c, 9, 54, 0
1, 177040, Note_on_c, 9, 54, 79
1, 177119, Note_on_c, 9, 36, 0
1, 177119, Note_on_c, 9, 54, 0
1, 177120, Note_on_c, 9, 38, 116
1, 177120, Note_on_c, 9, 39, 100
1, 177120, Note_on_c, 9, 42, 127
1, 177120, Note_on_c, 9, 54, 104
1, 177239, Note_on_c, 9, 38, 0
1, 177239, Note_on_c, 9, 39, 0
1, 177239, Note_on_c, 9, 42, 0
1, 177239, Note_on_c, 9, 54, 0
1, 177270, Note_on_c, 9, 54, 73
1, 177329, Note_on_c, 9, 54, 0
1, 177345, Note_on_c, 9, 46, 60
1, 177345, Note_on_c, 9, 54, 113
1, 177479, Note_on_c, 9, 46, 0
1, 177479, Note_on_c, 9, 54, 0
1, 177510, Note_on_c, 9, 54, 76
1, 177569, Note_on_c, 9, 54, 0
1, 177570, Note_on_c, 9, 54, 117
1, 177600, Note_on_c, 9, 42, 127
1, 177600, Note_on_c, 9, 36, 116
1, 177689, Note_on_c, 9, 54, 0
1, 177719, Note_on_c, 9, 42, 0
1, 177760, Note_on_c, 9, 54, 53
1, 177779, Note_on_c, 9, 54, 0
1, 177825, Note_on_c, 9, 42, 60
1, 177825, Note_on_c, 9, 54, 113
1, 177959, Note_on_c, 9, 42, 0
1, 177959, Note_on_c, 9, 54, 0
1, 177990, Note_on_c, 9, 54, 67
1, 178049, Note_on_c, 9, 54, 0
1, 178065, Note_on_c, 9, 38, 116
1, 178065, Note_on_c, 9, 39, 100
1, 178065, Note_on_c, 9, 42, 127
1, 178065, Note_on_c, 9, 54, 117
1, 178079, Note_on_c, 9, 36, 0
1, 178199, Note_on_c, 9, 38, 0
1, 178199, Note_on_c, 9, 39, 0
1, 178199, Note_on_c, 9, 42, 0
1, 178199, Note_on_c, 9, 54, 0
1, 178230, Note_on_c, 9, 54, 85
1, 178289, Note_on_c, 9, 54, 0
1, 178305, Note_on_c, 9, 42, 60
1, 178305, Note_on_c, 9, 54, 117
1, 178439, Note_on_c, 9, 42, 0
1, 178439, Note_on_c, 9, 54, 0
1, 178440, Note_on_c, 9, 54, 89
1, 178559, Note_on_c, 9, 54, 0
1, 178560, Note_on_c, 9, 42, 127
1, 178560, Note_on_c, 9, 54, 117
1, 178560, Note_on_c, 9, 36, 116
1, 178679, Note_on_c, 9, 42, 0
1, 178679, Note_on_c, 9, 54, 0
1, 178710, Note_on_c, 9, 54, 76
1, 178799, Note_on_c, 9, 54, 0
1, 178800, Note_on_c, 9, 42, 60
1, 178814, Note_on_c, 9, 42, 0
1, 178815, Note_on_c, 9, 54, 117
1, 178859, Note_on_c, 9, 54, 0
1, 178950, Note_on_c, 9, 54, 70
1, 179039, Note_on_c, 9, 36, 0
1, 179039, Note_on_c, 9, 54, 0
1, 179040, Note_on_c, 9, 38, 116
1, 179040, Note_on_c, 9, 42, 127
1, 179059, Note_on_c, 9, 38, 0
1, 179059, Note_on_c, 9, 42, 0
1, 179060, Note_on_c, 9, 39, 100
1, 179079, Note_on_c, 9, 39, 0
1, 179080, Note_on_c, 9, 54, 117
1, 179099, Note_on_c, 9, 54, 0
1, 179190, Note_on_c, 9, 54, 85
1, 179279, Note_on_c, 9, 54, 0
1, 179280, Note_on_c, 9, 42, 60
1, 179294, Note_on_c, 9, 42, 0
1, 179295, Note_on_c, 9, 54, 113
1, 179339, Note_on_c, 9, 54, 0
1, 179440, Note_on_c, 9, 54, 70
1, 179519, Note_on_c, 9, 54, 0
1, 179520, Note_on_c, 9, 42, 127
1, 179520, Note_on_c, 9, 36, 116
1, 179559, Note_on_c, 9, 42, 0
1, 179560, Note_on_c, 9, 54, 122
1, 179679, Note_on_c, 9, 54, 0
1, 179680, Note_on_c, 9, 54, 89
1, 179759, Note_on_c, 9, 54, 0
1, 179760, Note_on_c, 9, 42, 60
1, 179774, Note_on_c, 9, 42, 0
1, 179775, Note_on_c, 9, 54, 113
1, 179939, Note_on_c, 9, 54, 0
1, 179940, Note_on_c, 9, 54, 89
1, 179999, Note_on_c, 9, 36, 0
1, 179999, Note_on_c, 9, 54, 0
1, 180000, Note_on_c, 9, 38, 116
1, 180039, Note_on_c, 9, 38, 0
1, 180040, Note_on_c, 9, 39, 100
1, 180040, Note_on_c, 9, 42, 127
1, 180079, Note_on_c, 9, 39, 0
1, 180079, Note_on_c, 9, 42, 0
1, 180080, Note_on_c, 9, 54, 113
1, 180159, Note_on_c, 9, 54, 0
1, 180160, Note_on_c, 9, 54, 92
1, 180239, Note_on_c, 9, 54, 0
1, 180240, Note_on_c, 9, 42, 60
1, 180279, Note_on_c, 9, 42, 0
1, 180280, Note_on_c, 9, 54, 117
1, 180399, Note_on_c, 9, 54, 0
1, 180400, Note_on_c, 9, 54, 82
1, 180479, Note_on_c, 9, 54, 0
1, 180480, Note_on_c, 9, 42, 127
1, 180480, Note_on_c, 9, 36, 116
1, 180519, Note_on_c, 9, 42, 0
1, 180520, Note_on_c, 9, 54, 122
1, 180639, Note_on_c, 9, 54, 0
1, 180640, Note_on_c, 9, 54, 82
1, 180719, Note_on_c, 9, 54, 0
1, 180720, Note_on_c, 9, 42, 60
1, 180720, Note_on_c, 9, 54, 108
1, 180879, Note_on_c, 9, 42, 0
1, 180879, Note_on_c, 9, 54, 0
1, 180880, Note_on_c, 9, 54, 79
1, 180959, Note_on_c, 9, 36, 0
1, 180959, Note_on_c, 9, 54, 0
1, 180960, Note_on_c, 9, 38, 116
1, 180960, Note_on_c, 9, 39, 100
1, 180960, Note_on_c, 9, 42, 127
1, 180960, Note_on_c, 9, 54, 104
1, 181079, Note_on_c, 9, 38, 0
1, 181079, Note_on_c, 9, 39, 0
1, 181079, Note_on_c, 9, 42, 0
1, 181079, Note_on_c, 9, 54, 0
1, 181110, Note_on_c, 9, 54, 73
1, 181169, Note_on_c, 9, 54, 0
1, 181185, Note_on_c, 9, 42, 60
1, 181185, Note_on_c, 9, 54, 113
1, 181319, Note_on_c, 9, 42, 0
1, 181319, Note_on_c, 9, 54, 0
1, 181350, Note_on_c, 9, 54, 76
1, 181409, Note_on_c, 9, 54, 0
1, 181425, Note_on_c, 9, 42, 127
1, 181425, Note_on_c, 9, 54, 117
1, 181440, Note_on_c, 9, 36, 116
1, 181559, Note_on_c, 9, 42, 0
1, 181559, Note_on_c, 9, 54, 0
1, 181600, Note_on_c, 9, 54, 53
1, 181619, Note_on_c, 9, 54, 0
1, 181665, Note_on_c, 9, 42, 60
1, 181665, Note_on_c, 9, 54, 113
1, 181799, Note_on_c, 9, 42, 0
1, 181799, Note_on_c, 9, 54, 0
1, 181830, Note_on_c, 9, 54, 67
1, 181889, Note_on_c, 9, 54, 0
1, 181905, Note_on_c, 9, 38, 116
1, 181905, Note_on_c, 9, 39, 100
1, 181905, Note_on_c, 9, 42, 127
1, 181905, Note_on_c, 9, 54, 117
1, 181919, Note_on_c, 9, 36, 0
1, 182039, Note_on_c, 9, 38, 0
1, 182039, Note_on_c, 9, 39, 0
1, 182039, Note_on_c, 9, 42, 0
1, 182039, Note_on_c, 9, 54, 0
1, 182070, Note_on_c, 9, 54, 85
1, 182129, Note_on_c, 9, 54, 0
1, 182145, Note_on_c, 9, 42, 60
1, 182145, Note_on_c, 9, 54, 117
1, 182279, Note_on_c, 9, 42, 0
1, 182279, Note_on_c, 9, 54, 0
1, 182280, Note_on_c, 9, 54, 89
1, 182399, Note_on_c, 9, 54, 0
1, 182400, Note_on_c, 9, 42, 127
1, 182400, Note_on_c, 9, 54, 117
1, 182400, Note_on_c, 9, 36, 116
1, 182519, Note_on_c, 9, 42, 0
1, 182519, Note_on_c, 9, 54, 0
1, 182550, Note_on_c, 9, 54, 76
1, 182639, Note_on_c, 9, 54, 0
1, 182640, Note_on_c, 9, 42, 60
1, 182654, Note_on_c, 9, 42, 0
1, 182655, Note_on_c, 9, 54, 117
1, 182699, Note_on_c, 9, 54, 0
1, 182790, Note_on_c, 9, 54, 70
1, 182879, Note_on_c, 9, 36, 0
1, 182879, Note_on_c, 9, 54, 0
1, 182880, Note_on_c, 9, 38, 116
1, 182880, Note_on_c, 9, 42, 127
1, 182899, Note_on_c, 9, 38, 0
1, 182899, Note_on_c, 9, 42, 0
1, 182900, Note_on_c, 9, 39, 100
1, 182919, Note_on_c, 9, 39, 0
1, 182920, Note_on_c, 9, 54, 117
1, 182939, Note_on_c, 9, 54, 0
1, 183030, Note_on_c, 9, 54, 85
1, 183119, Note_on_c, 9, 54, 0
1, 183120, Note_on_c, 9, 42, 60
1, 183134, Note_on_c, 9, 42, 0
1, 183135, Note_on_c, 9, 54, 113
1, 183179, Note_on_c, 9, 54, 0
1, 183280, Note_on_c, 9, 54, 70
1, 183359, Note_on_c, 9, 54, 0
1, 183360, Note_on_c, 9, 42, 127
1, 183360, Note_on_c, 9, 36, 116
1, 183399, Note_on_c, 9, 42, 0
1, 183400, Note_on_c, 9, 54, 122
1, 183519, Note_on_c, 9, 54, 0
1, 183520, Note_on_c, 9, 54, 89
1, 183599, Note_on_c, 9, 54, 0
1, 183600, Note_on_c, 9, 42, 60
1, 183614, Note_on_c, 9, 42, 0
1, 183615, Note_on_c, 9, 54, 113
1, 183779, Note_on_c, 9, 54, 0
1, 183780, Note_on_c, 9, 54, 89
1, 183839, Note_on_c, 9, 36, 0
1, 183839, Note_on_c, 9, 54, 0
1, 183840, Note_on_c, 9, 38, 116
1, 183879, Note_on_c, 9, 38, 0
1, 183880, Note_on_c, 9, 39, 100
1, 183880, Note_on_c, 9, 42, 127
1, 183919, Note_on_c, 9, 39, 0
1, 183919, Note_on_c, 9, 42, 0
1, 183920, Note_on_c, 9, 54, 113
1, 183999, Note_on_c, 9, 54, 0
1, 184000, Note_on_c, 9, 54, 92
1, 184079, Note_on_c, 9, 54, 0
1, 184080, Note_on_c, 9, 42, 60
1, 184119, Note_on_c, 9, 42, 0
1, 184120, Note_on_c, 9, 54, 117
1, 184239, Note_on_c, 9, 54, 0
1, 184240, Note_on_c, 9, 54, 82
1, 184319, Note_on_c, 9, 54, 0
1, 184320, Note_on_c, 9, 42, 127
1, 184359, Note_on_c, 9, 42, 0
1, 184360, Note_on_c, 9, 54, 122
1, 184479, Note_on_c, 9, 54, 0
1, 184480, Note_on_c, 9, 54, 82
1, 184559, Note_on_c, 9, 54, 0
1, 184560, Note_on_c, 9, 42, 60
1, 184560, Note_on_c, 9, 54, 108
1, 184719, Note_on_c, 9, 42, 0
1, 184719, Note_on_c, 9, 54, 0
1, 184720, Note_on_c, 9, 54, 79
1, 184799, Note_on_c, 9, 54, 0
1, 184800, Note_on_c, 9, 38, 116
1, 184800, Note_on_c, 9, 39, 100
1, 184800, Note_on_c, 9, 42, 127
1, 184800, Note_on_c, 9, 54, 104
1, 184919, Note_on_c, 9, 38, 0
1, 184919, Note_on_c, 9, 39, 0
1, 184919, Note_on_c, 9, 42, 0
1, 184919, Note_on_c, 9, 54, 0
1, 184950, Note_on_c, 9, 54, 73
1, 185009, Note_on_c, 9, 54, 0
1, 185025, Note_on_c, 9, 46, 60
1, 185025, Note_on_c, 9, 54, 113
1, 185159, Note_on_c, 9, 46, 0
1, 185159, Note_on_c, 9, 54, 0
1, 185190, Note_on_c, 9, 54, 76
1, 185249, Note_on_c, 9, 54, 0
1, 185265, Note_on_c, 9, 42, 127
1, 185265, Note_on_c, 9, 54, 117
1, 185280, Note_on_c, 9, 36, 116
1, 185399, Note_on_c, 9, 42, 0
1, 185399, Note_on_c, 9, 54, 0
1, 185440, Note_on_c, 9, 54, 53
1, 185459, Note_on_c, 9, 54, 0
1, 185505, Note_on_c, 9, 42, 60
1, 185505, Note_on_c, 9, 54, 113
1, 185639, Note_on_c, 9, 42, 0
1, 185639, Note_on_c, 9, 54, 0
1, 185670, Note_on_c, 9, 54, 67
1, 185729, Note_on_c, 9, 54, 0
1, 185745, Note_on_c, 9, 38, 116
1, 185745, Note_on_c, 9, 39, 100
1, 185745, Note_on_c, 9, 42, 127
1, 185745, Note_on_c, 9, 54, 117
1, 185759, Note_on_c, 9, 36, 0
1, 185879, Note_on_c, 9, 38, 0
1, 185879, Note_on_c, 9, 39, 0
1, 185879, Note_on_c, 9, 42, 0
1, 185879, Note_on_c, 9, 54, 0
1, 185910, Note_on_c, 9, 54, 85
1, 185969, Note_on_c, 9, 54, 0
1, 185985, Note_on_c, 9, 42, 60
1, 185985, Note_on_c, 9, 54, 117
1, 186119, Note_on_c, 9, 42, 0
1, 186119, Note_on_c, 9, 54, 0
1, 186120, Note_on_c, 9, 54, 89
1, 186239, Note_on_c, 9, 54, 0
1, 186240, Note_on_c, 9, 42, 127
1, 186240, Note_on_c, 9, 54, 117
1, 186240, Note_on_c, 9, 36, 116
1, 186359, Note_on_c, 9, 42, 0
1, 186359, Note_on_c, 9, 54, 0
1, 186390, Note_on_c, 9, 54, 76
1, 186479, Note_on_c, 9, 54, 0
1, 186480, Note_on_c, 9, 42, 60
1, 186494, Note_on_c, 9, 42, 0
1, 186495, Note_on_c, 9, 54, 117
1, 186539, Note_on_c, 9, 54, 0
1, 186630, Note_on_c, 9, 54, 70
1, 186719, Note_on_c, 9, 36, 0
1, 186719, Note_on_c, 9, 54, 0
1, 186720, Note_on_c, 9, 38, 116
1, 186739, Note_on_c, 9, 38, 0
1, 186740, Note_on_c, 9, 39, 100
1, 186740, Note_on_c, 9, 42, 127
1, 186759, Note_on_c, 9, 39, 0
1, 186759, Note_on_c, 9, 42, 0
1, 186760, Note_on_c, 9, 54, 117
1, 186779, Note_on_c, 9, 54, 0
1, 186870, Note_on_c, 9, 54, 85
1, 186959, Note_on_c, 9, 54, 0
1, 186960, Note_on_c, 9, 42, 60
1, 186960, Note_on_c, 9, 36, 116
1, 186974, Note_on_c, 9, 42, 0
1, 186975, Note_on_c, 9, 54, 113
1, 187019, Note_on_c, 9, 54, 0
1, 187120, Note_on_c, 9, 54, 70
1, 187199, Note_on_c, 9, 36, 0
1, 187199, Note_on_c, 9, 54, 0
1, 187200, Note_on_c, 9, 38, 116
1, 187200, Note_on_c, 9, 36, 116
1, 187239, Note_on_c, 9, 38, 0
1, 187240, Note_on_c, 9, 39, 100
1, 187240, Note_on_c, 9, 42, 127
1, 187279, Note_on_c, 9, 39, 0
1, 187279, Note_on_c, 9, 42, 0
1, 187280, Note_on_c, 9, 54, 122
1, 187359, Note_on_c, 9, 54, 0
1, 187360, Note_on_c, 9, 54, 89
1, 187439, Note_on_c, 9, 36, 0
1, 187439, Note_on_c, 9, 54, 0
1, 187440, Note_on_c, 9, 42, 60
1, 187440, Note_on_c, 9, 36, 116
1, 187454, Note_on_c, 9, 42, 0
1, 187455, Note_on_c, 9, 54, 113
1, 187619, Note_on_c, 9, 54, 0
1, 187620, Note_on_c, 9, 54, 89
1, 187679, Note_on_c, 9, 36, 0
1, 187679, Note_on_c, 9, 54, 0
1, 187680, Note_on_c, 9, 38, 116
1, 187680, Note_on_c, 9, 42, 127
1, 187719, Note_on_c, 9, 38, 0
1, 187719, Note_on_c, 9, 42, 0
1, 187720, Note_on_c, 9, 39, 100
1, 187759, Note_on_c, 9, 39, 0
1, 187760, Note_on_c, 9, 54, 113
1, 187839, Note_on_c, 9, 54, 0
1, 187840, Note_on_c, 9, 54, 92
1, 187919, Note_on_c, 9, 54, 0
1, 187920, Note_on_c, 9, 42, 60
1, 187920, Note_on_c, 9, 36, 116
1, 187959, Note_on_c, 9, 42, 0
1, 187960, Note_on_c, 9, 54, 117
1, 188079, Note_on_c, 9, 54, 0
1, 188080, Note_on_c, 9, 54, 82
1, 188159, Note_on_c, 9, 36, 0
1, 188159, Note_on_c, 9, 54, 0
1, 188160, Note_on_c, 9, 42, 127
1, 188160, Note_on_c, 9, 36, 116
1, 188399, Note_on_c, 9, 42, 0
1, 188400, Note_on_c, 9, 42, 60
1, 188639, Note_on_c, 9, 36, 0
1, 188639, Note_on_c, 9, 42, 0
1, 188640, Note_on_c, 9, 42, 127
1, 188654, Note_on_c, 9, 42, 0
1, 188655, Note_on_c, 9, 39, 100
1, 188879, Note_on_c, 9, 39, 0
1, 188880, Note_on_c, 9, 42, 60
1, 189119, Note_on_c, 9, 42, 0
1, 189120, Note_on_c, 9, 42, 127
1, 189120, Note_on_c, 9, 36, 116
1, 189359, Note_on_c, 9, 42, 0
1, 189360, Note_on_c, 9, 42, 60
1, 189599, Note_on_c, 9, 36, 0
1, 189599, Note_on_c, 9, 42, 0
1, 189600, Note_on_c, 9, 39, 100
1, 189614, Note_on_c, 9, 39, 0
1, 189615, Note_on_c, 9, 42, 127
1, 189839, Note_on_c, 9, 42, 0
1, 189840, Note_on_c, 9, 42, 60
1, 190079, Note_on_c, 9, 42, 0
1, 190080, Note_on_c, 9, 42, 127
1, 190080, Note_on_c, 9, 36, 116
1, 190319, Note_on_c, 9, 42, 0
1, 190320, Note_on_c, 9, 42, 60
1, 190559, Note_on_c, 9, 36, 0
1, 190559, Note_on_c, 9, 42, 0
1, 190560, Note_on_c, 9, 42, 127
1, 190574, Note_on_c, 9, 42, 0
1, 190575, Note_on_c, 9, 39, 100
1, 190799, Note_on_c, 9, 39, 0
1, 190800, Note_on_c, 9, 42, 60
1, 191039, Note_on_c, 9, 42, 0
1, 191040, Note_on_c, 9, 42, 127
1, 191040, Note_on_c, 9, 36, 116
1, 191279, Note_on_c, 9, 42, 0
1, 191280, Note_on_c, 9, 42, 60
1, 191519, Note_on_c, 9, 36, 0
1, 191519, Note_on_c, 9, 42, 0
1, 191520, Note_on_c, 9, 39, 100
1, 191520, Note_on_c, 9, 42, 127
1, 191759, Note_on_c, 9, 39, 0
1, 191759, Note_on_c, 9, 42, 0
1, 191760, Note_on_c, 9, 42, 60
1, 191999, Note_on_c, 9, 42, 0
1, 192000, Note_on_c, 9, 42, 127
1, 192000, Note_on_c, 9, 36, 116
1, 192239, Note_on_c, 9, 42, 0
1, 192240, Note_on_c, 9, 42, 60
1, 192479, Note_on_c, 9, 36, 0
1, 192479, Note_on_c, 9, 42, 0
1, 192480, Note_on_c, 9, 42, 127
1, 192494, Note_on_c, 9, 42, 0
1, 192495, Note_on_c, 9, 39, 100
1, 192719, Note_on_c, 9, 39, 0
1, 192960, Note_on_c, 9, 42, 127
1, 192960, Note_on_c, 9, 36, 116
1, 193199, Note_on_c, 9, 42, 0
1, 193200, Note_on_c, 9, 42, 60
1, 193439, Note_on_c, 9, 36, 0
1, 193439, Note_on_c, 9, 42, 0
1, 193440, Note_on_c, 9, 42, 127
1, 193454, Note_on_c, 9, 42, 0
1, 193455, Note_on_c, 9, 39, 100
1, 193679, Note_on_c, 9, 39, 0
1, 193680, Note_on_c, 9, 42, 60
1, 193919, Note_on_c, 9, 42, 0
1, 193920, Note_on_c, 9, 42, 127
1, 193920, Note_on_c, 9, 36, 116
1, 194159, Note_on_c, 9, 42, 0
1, 194160, Note_on_c, 9, 42, 60
1, 194399, Note_on_c, 9, 36, 0
1, 194399, Note_on_c, 9, 42, 0
1, 194400, Note_on_c, 9, 39, 100
1, 194400, Note_on_c, 9, 42, 127
1, 194639, Note_on_c, 9, 39, 0
1, 194639, Note_on_c, 9, 42, 0
1, 194640, Note_on_c, 9, 42, 60
1, 194879, Note_on_c, 9, 42, 0
1, 194880, Note_on_c, 9, 42, 127
1, 194880, Note_on_c, 9, 36, 116
1, 195119, Note_on_c, 9, 42, 0
1, 195120, Note_on_c, 9, 42, 60
1, 195359, Note_on_c, 9, 36, 0
1, 195359, Note_on_c, 9, 42, 0
1, 195360, Note_on_c, 9, 39, 100
1, 195360, Note_on_c, 9, 42, 127
1, 195599, Note_on_c, 9, 39, 0
1, 195599, Note_on_c, 9, 42, 0
1, 195600, Note_on_c, 9, 42, 60
1, 195839, Note_on_c, 9, 42, 0
1, 195840, Note_on_c, 9, 42, 127
1, 195840, Note_on_c, 9, 36, 116
1, 196079, Note_on_c, 9, 42, 0
1, 196080, Note_on_c, 9, 42, 60
1, 196319, Note_on_c, 9, 36, 0
1, 196319, Note_on_c, 9, 42, 0
1, 196320, Note_on_c, 9, 42, 127
1, 196334, Note_on_c, 9, 42, 0
1, 196335, Note_on_c, 9, 39, 100
1, 196559, Note_on_c, 9, 39, 0
1, 196560, Note_on_c, 9, 42, 60
1, 196799, Note_on_c, 9, 42, 0
1, 196800, Note_on_c, 9, 42, 127
1, 196800, Note_on_c, 9, 36, 116
1, 197039, Note_on_c, 9, 42, 0
1, 197040, Note_on_c, 9, 42, 60
1, 197279, Note_on_c, 9, 36, 0
1, 197279, Note_on_c, 9, 42, 0
1, 197280, Note_on_c, 9, 39, 100
1, 197280, Note_on_c, 9, 42, 127
1, 197519, Note_on_c, 9, 39, 0
1, 197519, Note_on_c, 9, 42, 0
1, 197520, Note_on_c, 9, 42, 60
1, 197759, Note_on_c, 9, 42, 0
1, 197760, Note_on_c, 9, 42, 127
1, 197760, Note_on_c, 9, 36, 116
1, 197999, Note_on_c, 9, 42, 0
1, 198000, Note_on_c, 9, 42, 60
1, 198239, Note_on_c, 9, 36, 0
1, 198239, Note_on_c, 9, 42, 0
1, 198240, Note_on_c, 9, 42, 127
1, 198254, Note_on_c, 9, 42, 0
1, 198255, Note_on_c, 9, 39, 100
1, 198479, Note_on_c, 9, 39, 0
1, 198480, Note_on_c, 9, 42, 60
1, 198719, Note_on_c, 9, 42, 0
1, 198720, Note_on_c, 9, 42, 127
1, 198720, Note_on_c, 9, 36, 116
1, 198959, Note_on_c, 9, 42, 0
1, 198960, Note_on_c, 9, 42, 60
1, 199199, Note_on_c, 9, 36, 0
1, 199199, Note_on_c, 9, 42, 0
1, 199200, Note_on_c, 9, 39, 100
1, 199214, Note_on_c, 9, 39, 0
1, 199215, Note_on_c, 9, 42, 127
1, 199439, Note_on_c, 9, 42, 0
1, 199440, Note_on_c, 9, 42, 60
1, 199679, Note_on_c, 9, 42, 0
1, 199680, Note_on_c, 9, 42, 127
1, 199680, Note_on_c, 9, 36, 116
1, 199919, Note_on_c, 9, 42, 0
1, 199920, Note_on_c, 9, 42, 60
1, 200159, Note_on_c, 9, 36, 0
1, 200159, Note_on_c, 9, 42, 0
1, 200160, Note_on_c, 9, 42, 127
1, 200174, Note_on_c, 9, 42, 0
1, 200175, Note_on_c, 9, 39, 100
1, 200399, Note_on_c, 9, 39, 0
1, 200640, Note_on_c, 9, 42, 127
1, 200640, Note_on_c, 9, 36, 116
1, 200879, Note_on_c, 9, 42, 0
1, 200880, Note_on_c, 9, 42, 60
1, 201119, Note_on_c, 9, 36, 0
1, 201119, Note_on_c, 9, 42, 0
1, 201120, Note_on_c, 9, 39, 100
1, 201120, Note_on_c, 9, 42, 127
1, 201359, Note_on_c, 9, 39, 0
1, 201359, Note_on_c, 9, 42, 0
1, 201360, Note_on_c, 9, 42, 60
1, 201599, Note_on_c, 9, 42, 0
1, 201600, Note_on_c, 9, 42, 127
1, 201600, Note_on_c, 9, 36, 116
1, 201839, Note_on_c, 9, 42, 0
1, 201840, Note_on_c, 9, 42, 60
1, 202079, Note_on_c, 9, 36, 0
1, 202079, Note_on_c, 9, 42, 0
1, 202080, Note_on_c, 9, 38, 116
1, 202094, Note_on_c, 9, 38, 0
1, 202095, Note_on_c, 9, 39, 100
1, 202095, Note_on_c, 9, 42, 127
1, 202319, Note_on_c, 9, 39, 0
1, 202319, Note_on_c, 9, 42, 0
1, 202320, Note_on_c, 9, 42, 60
1, 202320, Note_on_c, 9, 36, 116
1, 202559, Note_on_c, 9, 42, 0
1, 202559, Note_on_c, 9, 36, 0
1, 202560, Note_on_c, 9, 38, 116
1, 202560, Note_on_c, 9, 36, 116
1, 202574, Note_on_c, 9, 38, 0
1, 202575, Note_on_c, 9, 39, 100
1, 202575, Note_on_c, 9, 42, 127
1, 202799, Note_on_c, 9, 36, 0
1, 202799, Note_on_c, 9, 39, 0
1, 202799, Note_on_c, 9, 42, 0
1, 202800, Note_on_c, 9, 42, 60
1, 202800, Note_on_c, 9, 36, 116
1, 203039, Note_on_c, 9, 42, 0
1, 203039, Note_on_c, 9, 36, 0
1, 203040, Note_on_c, 9, 38, 116
1, 203040, Note_on_c, 9, 42, 127
1, 203054, Note_on_c, 9, 38, 0
1, 203054, Note_on_c, 9, 42, 0
1, 203055, Note_on_c, 9, 39, 100
1, 203279, Note_on_c, 9, 39, 0
1, 203280, Note_on_c, 9, 42, 60
1, 203280, Note_on_c, 9, 36, 116
1, 203519, Note_on_c, 9, 42, 0
1, 203519, Note_on_c, 9, 36, 0
1, 203520, Note_on_c, 9, 42, 127
1, 203520, Note_on_c, 9, 46, 60
1, 203520, Note_on_c, 9, 36, 116
1, 203559, Note_on_c, 9, 42, 0
1, 203559, Note_on_c, 9, 46, 0
1, 203560, Note_on_c, 9, 54, 122
1, 203679, Note_on_c, 9, 54, 0
1, 203680, Note_on_c, 9, 54, 82
1, 203759, Note_on_c, 9, 54, 0
1, 203760, Note_on_c, 9, 42, 60
1, 203760, Note_on_c, 9, 54, 108
1, 203919, Note_on_c, 9, 42, 0
1, 203919, Note_on_c, 9, 54, 0
1, 203920, Note_on_c, 9, 54, 79
1, 203999, Note_on_c, 9, 36, 0
1, 203999, Note_on_c, 9, 54, 0
1, 204000, Note_on_c, 9, 38, 116
1, 204000, Note_on_c, 9, 39, 100
1, 204000, Note_on_c, 9, 42, 127
1, 204000, Note_on_c, 9, 54, 104
1, 204119, Note_on_c, 9, 38, 0
1, 204119, Note_on_c, 9, 39, 0
1, 204119, Note_on_c, 9, 42, 0
1, 204119, Note_on_c, 9, 54, 0
1, 204150, Note_on_c, 9, 54, 73
1, 204209, Note_on_c, 9, 54, 0
1, 204225, Note_on_c, 9, 42, 60
1, 204225, Note_on_c, 9, 54, 113
1, 204359, Note_on_c, 9, 42, 0
1, 204359, Note_on_c, 9, 54, 0
1, 204390, Note_on_c, 9, 54, 76
1, 204449, Note_on_c, 9, 54, 0
1, 204465, Note_on_c, 9, 42, 127
1, 204465, Note_on_c, 9, 54, 117
1, 204480, Note_on_c, 9, 36, 116
1, 204599, Note_on_c, 9, 42, 0
1, 204599, Note_on_c, 9, 54, 0
1, 204640, Note_on_c, 9, 54, 53
1, 204659, Note_on_c, 9, 54, 0
1, 204705, Note_on_c, 9, 42, 60
1, 204705, Note_on_c, 9, 54, 113
1, 204839, Note_on_c, 9, 42, 0
1, 204839, Note_on_c, 9, 54, 0
1, 204870, Note_on_c, 9, 54, 67
1, 204929, Note_on_c, 9, 54, 0
1, 204945, Note_on_c, 9, 38, 116
1, 204945, Note_on_c, 9, 39, 100
1, 204945, Note_on_c, 9, 42, 127
1, 204945, Note_on_c, 9, 54, 117
1, 204959, Note_on_c, 9, 36, 0
1, 205079, Note_on_c, 9, 38, 0
1, 205079, Note_on_c, 9, 39, 0
1, 205079, Note_on_c, 9, 42, 0
1, 205079, Note_on_c, 9, 54, 0
1, 205110, Note_on_c, 9, 54, 85
1, 205169, Note_on_c, 9, 54, 0
1, 205185, Note_on_c, 9, 42, 60
1, 205185, Note_on_c, 9, 54, 117
1, 205319, Note_on_c, 9, 42, 0
1, 205319, Note_on_c, 9, 54, 0
1, 205320, Note_on_c, 9, 54, 89
1, 205439, Note_on_c, 9, 54, 0
1, 205440, Note_on_c, 9, 42, 127
1, 205440, Note_on_c, 9, 54, 117
1, 205440, Note_on_c, 9, 36, 116
1, 205559, Note_on_c, 9, 42, 0
1, 205559, Note_on_c, 9, 54, 0
1, 205590, Note_on_c, 9, 54, 76
1, 205679, Note_on_c, 9, 54, 0
1, 205680, Note_on_c, 9, 42, 60
1, 205694, Note_on_c, 9, 42, 0
1, 205695, Note_on_c, 9, 54, 117
1, 205739, Note_on_c, 9, 54, 0
1, 205830, Note_on_c, 9, 54, 70
1, 205919, Note_on_c, 9, 36, 0
1, 205919, Note_on_c, 9, 54, 0
1, 205920, Note_on_c, 9, 38, 116
1, 205920, Note_on_c, 9, 42, 127
1, 205939, Note_on_c, 9, 38, 0
1, 205939, Note_on_c, 9, 42, 0
1, 205940, Note_on_c, 9, 39, 100
1, 205959, Note_on_c, 9, 39, 0
1, 205960, Note_on_c, 9, 54, 117
1, 205979, Note_on_c, 9, 54, 0
1, 206070, Note_on_c, 9, 54, 85
1, 206159, Note_on_c, 9, 54, 0
1, 206160, Note_on_c, 9, 42, 60
1, 206174, Note_on_c, 9, 42, 0
1, 206175, Note_on_c, 9, 54, 113
1, 206219, Note_on_c, 9, 54, 0
1, 206320, Note_on_c, 9, 54, 70
1, 206399, Note_on_c, 9, 54, 0
1, 206400, Note_on_c, 9, 42, 127
1, 206400, Note_on_c, 9, 36, 116
1, 206439, Note_on_c, 9, 42, 0
1, 206440, Note_on_c, 9, 54, 122
1, 206559, Note_on_c, 9, 54, 0
1, 206560, Note_on_c, 9, 54, 89
1, 206639, Note_on_c, 9, 54, 0
1, 206640, Note_on_c, 9, 42, 60
1, 206654, Note_on_c, 9, 42, 0
1, 206655, Note_on_c, 9, 54, 113
1, 206819, Note_on_c, 9, 54, 0
1, 206820, Note_on_c, 9, 54, 89
1, 206879, Note_on_c, 9, 36, 0
1, 206879, Note_on_c, 9, 54, 0
1, 206880, Note_on_c, 9, 38, 116
1, 206919, Note_on_c, 9, 38, 0
1, 206920, Note_on_c, 9, 39, 100
1, 206920, Note_on_c, 9, 42, 127
1, 206959, Note_on_c, 9, 39, 0
1, 206959, Note_on_c, 9, 42, 0
1, 206960, Note_on_c, 9, 54, 113
1, 207039, Note_on_c, 9, 54, 0
1, 207040, Note_on_c, 9, 54, 92
1, 207119, Note_on_c, 9, 54, 0
1, 207120, Note_on_c, 9, 42, 60
1, 207159, Note_on_c, 9, 42, 0
1, 207160, Note_on_c, 9, 54, 117
1, 207279, Note_on_c, 9, 54, 0
1, 207280, Note_on_c, 9, 54, 82
1, 207359, Note_on_c, 9, 54, 0
1, 207360, Note_on_c, 9, 42, 127
1, 207360, Note_on_c, 9, 36, 116
1, 207399, Note_on_c, 9, 42, 0
1, 207400, Note_on_c, 9, 54, 122
1, 207519, Note_on_c, 9, 54, 0
1, 207520, Note_on_c, 9, 54, 82
1, 207599, Note_on_c, 9, 54, 0
1, 207600, Note_on_c, 9, 42, 60
1, 207600, Note_on_c, 9, 54, 108
1, 207759, Note_on_c, 9, 42, 0
1, 207759, Note_on_c, 9, 54, 0
1, 207760, Note_on_c, 9, 54, 79
1, 207839, Note_on_c, 9, 36, 0
1, 207839, Note_on_c, 9, 54, 0
1, 207840, Note_on_c, 9, 38, 116
1, 207840, Note_on_c, 9, 39, 100
1, 207840, Note_on_c, 9, 42, 127
1, 207840, Note_on_c, 9, 54, 104
1, 207959, Note_on_c, 9, 38, 0
1, 207959, Note_on_c, 9, 39, 0
1, 207959, Note_on_c, 9, 42, 0
1, 207959, Note_on_c, 9, 54, 0
1, 207990, Note_on_c, 9, 54, 73
1, 208049, Note_on_c, 9, 54, 0
1, 208065, Note_on_c, 9, 46, 60
1, 208065, Note_on_c, 9, 54, 113
1, 208199, Note_on_c, 9, 46, 0
1, 208199, Note_on_c, 9, 54, 0
1, 208230, Note_on_c, 9, 54, 76
1, 208289, Note_on_c, 9, 54, 0
1, 208290, Note_on_c, 9, 54, 117
1, 208320, Note_on_c, 9, 42, 127
1, 208320, Note_on_c, 9, 36, 116
1, 208409, Note_on_c, 9, 54, 0
1, 208439, Note_on_c, 9, 42, 0
1, 208480, Note_on_c, 9, 54, 53
1, 208499, Note_on_c, 9, 54, 0
1, 208545, Note_on_c, 9, 42, 60
1, 208545, Note_on_c, 9, 54, 113
1, 208679, Note_on_c, 9, 42, 0
1, 208679, Note_on_c, 9, 54, 0
1, 208710, Note_on_c, 9, 54, 67
1, 208769, Note_on_c, 9, 54, 0
1, 208785, Note_on_c, 9, 38, 116
1, 208785, Note_on_c, 9, 39, 100
1, 208785, Note_on_c, 9, 42, 127
1, 208785, Note_on_c, 9, 54, 117
1, 208799, Note_on_c, 9, 36, 0
1, 208919, Note_on_c, 9, 38, 0
1, 208919, Note_on_c, 9, 39, 0
1, 208919, Note_on_c, 9, 42, 0
1, 208919, Note_on_c, 9, 54, 0
1, 208950, Note_on_c, 9, 54, 85
1, 209009, Note_on_c, 9, 54, 0
1, 209025, Note_on_c, 9, 42, 60
1, 209025, Note_on_c, 9, 54, 117
1, 209159, Note_on_c, 9, 42, 0
1, 209159, Note_on_c, 9, 54, 0
1, 209160, Note_on_c, 9, 54, 89
1, 209279, Note_on_c, 9, 54, 0
1, 209280, Note_on_c, 9, 42, 127
1, 209280, Note_on_c, 9, 54, 117
1, 209280, Note_on_c, 9, 36, 116
1, 209399, Note_on_c, 9, 42, 0
1, 209399, Note_on_c, 9, 54, 0
1, 209430, Note_on_c, 9, 54, 76
1, 209519, Note_on_c, 9, 54, 0
1, 209520, Note_on_c, 9, 42, 60
1, 209534, Note_on_c, 9, 42, 0
1, 209535, Note_on_c, 9, 54, 117
1, 209579, Note_on_c, 9, 54, 0
1, 209670, Note_on_c, 9, 54, 70
1, 209759, Note_on_c, 9, 36, 0
1, 209759, Note_on_c, 9, 54, 0
1, 209760, Note_on_c, 9, 38, 116
1, 209760, Note_on_c, 9, 42, 127
1, 209779, Note_on_c, 9, 38, 0
1, 209779, Note_on_c, 9, 42, 0
1, 209780, Note_on_c, 9, 39, 100
1, 209799, Note_on_c, 9, 39, 0
1, 209800, Note_on_c, 9, 54, 117
1, 209819, Note_on_c, 9, 54, 0
1, 209910, Note_on_c, 9, 54, 85
1, 209999, Note_on_c, 9, 54, 0
1, 210000, Note_on_c, 9, 42, 60
1, 210014, Note_on_c, 9, 42, 0
1, 210015, Note_on_c, 9, 54, 113
1, 210059, Note_on_c, 9, 54, 0
1, 210160, Note_on_c, 9, 54, 70
1, 210239, Note_on_c, 9, 54, 0
1, 210240, Note_on_c, 9, 42, 127
1, 210240, Note_on_c, 9, 36, 116
1, 210279, Note_on_c, 9, 42, 0
1, 210280, Note_on_c, 9, 54, 122
1, 210399, Note_on_c, 9, 54, 0
1, 210400, Note_on_c, 9, 54, 89
1, 210479, Note_on_c, 9, 54, 0
1, 210480, Note_on_c, 9, 42, 60
1, 210494, Note_on_c, 9, 42, 0
1, 210495, Note_on_c, 9, 54, 113
1, 210659, Note_on_c, 9, 54, 0
1, 210660, Note_on_c, 9, 54, 89
1, 210719, Note_on_c, 9, 36, 0
1, 210719, Note_on_c, 9, 54, 0
1, 210720, Note_on_c, 9, 38, 116
1, 210759, Note_on_c, 9, 38, 0
1, 210760, Note_on_c, 9, 39, 100
1, 210760, Note_on_c, 9, 42, 127
1, 210799, Note_on_c, 9, 39, 0
1, 210799, Note_on_c, 9, 42, 0
1, 210800, Note_on_c, 9, 54, 113
1, 210879, Note_on_c, 9, 54, 0
1, 210880, Note_on_c, 9, 54, 92
1, 210959, Note_on_c, 9, 54, 0
1, 210960, Note_on_c, 9, 42, 60
1, 210999, Note_on_c, 9, 42, 0
1, 211000, Note_on_c, 9, 54, 117
1, 211119, Note_on_c, 9, 54, 0
1, 211120, Note_on_c, 9, 54, 82
1, 211199, Note_on_c, 9, 54, 0
1, 211200, Note_on_c, 9, 42, 127
1, 211200, Note_on_c, 9, 36, 116
1, 211239, Note_on_c, 9, 42, 0
1, 211240, Note_on_c, 9, 54, 122
1, 211359, Note_on_c, 9, 54, 0
1, 211360, Note_on_c, 9, 54, 82
1, 211439, Note_on_c, 9, 54, 0
1, 211440, Note_on_c, 9, 42, 60
1, 211440, Note_on_c, 9, 54, 108
1, 211599, Note_on_c, 9, 42, 0
1, 211599, Note_on_c, 9, 54, 0
1, 211600, Note_on_c, 9, 54, 79
1, 211679, Note_on_c, 9, 36, 0
1, 211679, Note_on_c, 9, 54, 0
1, 211680, Note_on_c, 9, 38, 116
1, 211680, Note_on_c, 9, 39, 100
1, 211680, Note_on_c, 9, 42, 127
1, 211680, Note_on_c, 9, 54, 104
1, 211799, Note_on_c, 9, 38, 0
1, 211799, Note_on_c, 9, 39, 0
1, 211799, Note_on_c, 9, 42, 0
1, 211799, Note_on_c, 9, 54, 0
1, 211830, Note_on_c, 9, 54, 73
1, 211889, Note_on_c, 9, 54, 0
1, 211905, Note_on_c, 9, 42, 60
1, 211905, Note_on_c, 9, 54, 113
1, 212039, Note_on_c, 9, 42, 0
1, 212039, Note_on_c, 9, 54, 0
1, 212070, Note_on_c, 9, 54, 76
1, 212129, Note_on_c, 9, 54, 0
1, 212145, Note_on_c, 9, 42, 127
1, 212145, Note_on_c, 9, 54, 117
1, 212160, Note_on_c, 9, 36, 116
1, 212279, Note_on_c, 9, 42, 0
1, 212279, Note_on_c, 9, 54, 0
1, 212320, Note_on_c, 9, 54, 53
1, 212339, Note_on_c, 9, 54, 0
1, 212385, Note_on_c, 9, 42, 60
1, 212385, Note_on_c, 9, 54, 113
1, 212519, Note_on_c, 9, 42, 0
1, 212519, Note_on_c, 9, 54, 0
1, 212550, Note_on_c, 9, 54, 67
1, 212609, Note_on_c, 9, 54, 0
1, 212625, Note_on_c, 9, 38, 116
1, 212625, Note_on_c, 9, 39, 100
1, 212625, Note_on_c, 9, 42, 127
1, 212625, Note_on_c, 9, 54, 117
1, 212639, Note_on_c, 9, 36, 0
1, 212759, Note_on_c, 9, 38, 0
1, 212759, Note_on_c, 9, 39, 0
1, 212759, Note_on_c, 9, 42, 0
1, 212759, Note_on_c, 9, 54, 0
1, 212790, Note_on_c, 9, 54, 85
1, 212849, Note_on_c, 9, 54, 0
1, 212865, Note_on_c, 9, 42, 60
1, 212865, Note_on_c, 9, 54, 117
1, 212999, Note_on_c, 9, 42, 0
1, 212999, Note_on_c, 9, 54, 0
1, 213000, Note_on_c, 9, 54, 89
1, 213119, Note_on_c, 9, 54, 0
1, 213120, Note_on_c, 9, 42, 127
1, 213120, Note_on_c, 9, 54, 117
1, 213120, Note_on_c, 9, 36, 116
1, 213239, Note_on_c, 9, 42, 0
1, 213239, Note_on_c, 9, 54, 0
1, 213270, Note_on_c, 9, 54, 76
1, 213359, Note_on_c, 9, 54, 0
1, 213360, Note_on_c, 9, 42, 60
1, 213374, Note_on_c, 9, 42, 0
1, 213375, Note_on_c, 9, 54, 117
1, 213419, Note_on_c, 9, 54, 0
1, 213510, Note_on_c, 9, 54, 70
1, 213599, Note_on_c, 9, 36, 0
1, 213599, Note_on_c, 9, 54, 0
1, 213600, Note_on_c, 9, 38, 116
1, 213600, Note_on_c, 9, 42, 127
1, 213619, Note_on_c, 9, 38, 0
1, 213619, Note_on_c, 9, 42, 0
1, 213620, Note_on_c, 9, 39, 100
1, 213639, Note_on_c, 9, 39, 0
1, 213640, Note_on_c, 9, 54, 117
1, 213659, Note_on_c, 9, 54, 0
1, 213750, Note_on_c, 9, 54, 85
1, 213839, Note_on_c, 9, 54, 0
1, 213840, Note_on_c, 9, 42, 60
1, 213854, Note_on_c, 9, 42, 0
1, 213855, Note_on_c, 9, 54, 113
1, 213899, Note_on_c, 9, 54, 0
1, 214000, Note_on_c, 9, 54, 70
1, 214079, Note_on_c, 9, 54, 0
1, 214080, Note_on_c, 9, 42, 127
1, 214080, Note_on_c, 9, 36, 116
1, 214119, Note_on_c, 9, 42, 0
1, 214120, Note_on_c, 9, 54, 122
1, 214239, Note_on_c, 9, 54, 0
1, 214240, Note_on_c, 9, 54, 89
1, 214319, Note_on_c, 9, 54, 0
1, 214320, Note_on_c, 9, 42, 60
1, 214334, Note_on_c, 9, 42, 0
1, 214335, Note_on_c, 9, 54, 113
1, 214499, Note_on_c, 9, 54, 0
1, 214500, Note_on_c, 9, 54, 89
1, 214559, Note_on_c, 9, 36, 0
1, 214559, Note_on_c, 9, 54, 0
1, 214560, Note_on_c, 9, 38, 116
1, 214599, Note_on_c, 9, 38, 0
1, 214600, Note_on_c, 9, 39, 100
1, 214600, Note_on_c, 9, 42, 127
1, 214639, Note_on_c, 9, 39, 0
1, 214639, Note_on_c, 9, 42, 0
1, 214640, Note_on_c, 9, 54, 113
1, 214719, Note_on_c, 9, 54, 0
1, 214720, Note_on_c, 9, 54, 92
1, 214799, Note_on_c, 9, 54, 0
1, 214800, Note_on_c, 9, 42, 60
1, 214839, Note_on_c, 9, 42, 0
1, 214840, Note_on_c, 9, 54, 117
1, 214959, Note_on_c, 9, 54, 0
1, 214960, Note_on_c, 9, 54, 82
1, 215039, Note_on_c, 9, 54, 0
1, 215040, Note_on_c, 9, 42, 127
1, 215040, Note_on_c, 9, 36, 116
1, 215079, Note_on_c, 9, 42, 0
1, 215080, Note_on_c, 9, 54, 122
1, 215199, Note_on_c, 9, 54, 0
1, 215200, Note_on_c, 9, 54, 82
1, 215279, Note_on_c, 9, 54, 0
1, 215280, Note_on_c, 9, 42, 60
1, 215280, Note_on_c, 9, 54, 108
1, 215439, Note_on_c, 9, 42, 0
1, 215439, Note_on_c, 9, 54, 0
1, 215440, Note_on_c, 9, 54, 79
1, 215519, Note_on_c, 9, 36, 0
1, 215519, Note_on_c, 9, 54, 0
1, 215520, Note_on_c, 9, 38, 116
1, 215520, Note_on_c, 9, 39, 100
1, 215520, Note_on_c, 9, 42, 127
1, 215520, Note_on_c, 9, 54, 104
1, 215639, Note_on_c, 9, 38, 0
1, 215639, Note_on_c, 9, 39, 0
1, 215639, Note_on_c, 9, 42, 0
1, 215639, Note_on_c, 9, 54, 0
1, 215670, Note_on_c, 9, 54, 73
1, 215729, Note_on_c, 9, 54, 0
1, 215745, Note_on_c, 9, 46, 60
1, 215745, Note_on_c, 9, 54, 113
1, 215879, Note_on_c, 9, 46, 0
1, 215879, Note_on_c, 9, 54, 0
1, 215910, Note_on_c, 9, 54, 76
1, 215969, Note_on_c, 9, 54, 0
1, 215985, Note_on_c, 9, 42, 127
1, 215985, Note_on_c, 9, 54, 117
1, 216000, Note_on_c, 9, 36, 116
1, 216119, Note_on_c, 9, 42, 0
1, 216119, Note_on_c, 9, 54, 0
1, 216160, Note_on_c, 9, 54, 53
1, 216179, Note_on_c, 9, 54, 0
1, 216225, Note_on_c, 9, 42, 60
1, 216225, Note_on_c, 9, 54, 113
1, 216359, Note_on_c, 9, 42, 0
1, 216359, Note_on_c, 9, 54, 0
1, 216390, Note_on_c, 9, 54, 67
1, 216449, Note_on_c, 9, 54, 0
1, 216465, Note_on_c, 9, 38, 116
1, 216465, Note_on_c, 9, 39, 100
1, 216465, Note_on_c, 9, 42, 127
1, 216465, Note_on_c, 9, 54, 117
1, 216479, Note_on_c, 9, 36, 0
1, 216599, Note_on_c, 9, 38, 0
1, 216599, Note_on_c, 9, 39, 0
1, 216599, Note_on_c, 9, 42, 0
1, 216599, Note_on_c, 9, 54, 0
1, 216630, Note_on_c, 9, 54, 85
1, 216689, Note_on_c, 9, 54, 0
1, 216705, Note_on_c, 9, 42, 60
1, 216705, Note_on_c, 9, 54, 117
1, 216839, Note_on_c, 9, 42, 0
1, 216839, Note_on_c, 9, 54, 0
1, 216840, Note_on_c, 9, 54, 89
1, 216959, Note_on_c, 9, 54, 0
1, 216960, Note_on_c, 9, 42, 127
1, 216960, Note_on_c, 9, 54, 117
1, 216960, Note_on_c, 9, 36, 116
1, 217079, Note_on_c, 9, 42, 0
1, 217079, Note_on_c, 9, 54, 0
1, 217110, Note_on_c, 9, 54, 76
1, 217199, Note_on_c, 9, 54, 0
1, 217200, Note_on_c, 9, 42, 60
1, 217214, Note_on_c, 9, 42, 0
1, 217215, Note_on_c, 9, 54, 117
1, 217259, Note_on_c, 9, 54, 0
1, 217350, Note_on_c, 9, 54, 70
1, 217439, Note_on_c, 9, 36, 0
1, 217439, Note_on_c, 9, 54, 0
1, 217440, Note_on_c, 9, 38, 116
1, 217459, Note_on_c, 9, 38, 0
1, 217460, Note_on_c, 9, 39, 100
1, 217460, Note_on_c, 9, 42, 127
1, 217479, Note_on_c, 9, 39, 0
1, 217479, Note_on_c, 9, 42, 0
1, 217480, Note_on_c, 9, 54, 117
1, 217499, Note_on_c, 9, 54, 0
1, 217590, Note_on_c, 9, 54, 85
1, 217679, Note_on_c, 9, 54, 0
1, 217680, Note_on_c, 9, 42, 60
1, 217680, Note_on_c, 9, 36, 116
1, 217694, Note_on_c, 9, 42, 0
1, 217695, Note_on_c, 9, 54, 113
1, 217739, Note_on_c, 9, 54, 0
1, 217840, Note_on_c, 9, 54, 70
1, 217919, Note_on_c, 9, 36, 0
1, 217919, Note_on_c, 9, 54, 0
1, 217920, Note_on_c, 9, 38, 116
1, 217920, Note_on_c, 9, 36, 116
1, 217959, Note_on_c, 9, 38, 0
1, 217960, Note_on_c, 9, 39, 100
1, 217960, Note_on_c, 9, 42, 127
1, 217999, Note_on_c, 9, 39, 0
1, 217999, Note_on_c, 9, 42, 0
1, 218000, Note_on_c, 9, 54, 122
1, 218079, Note_on_c, 9, 54, 0
1, 218080, Note_on_c, 9, 54, 89
1, 218159, Note_on_c, 9, 36, 0
1, 218159, Note_on_c, 9, 54, 0
1, 218160, Note_on_c, 9, 42, 60
1, 218160, Note_on_c, 9, 36, 116
1, 218174, Note_on_c, 9, 42, 0
1, 218175, Note_on_c, 9, 54, 113
1, 218339, Note_on_c, 9, 54, 0
1, 218340, Note_on_c, 9, 54, 89
1, 218399, Note_on_c, 9, 36, 0
1, 218399, Note_on_c, 9, 54, 0
1, 218400, Note_on_c, 9, 38, 116
1, 218400, Note_on_c, 9, 42, 127
1, 218439, Note_on_c, 9, 38, 0
1, 218439, Note_on_c, 9, 42, 0
1, 218440, Note_on_c, 9, 39, 100
1, 218479, Note_on_c, 9, 39, 0
1, 218480, Note_on_c, 9, 54, 113
1, 218559, Note_on_c, 9, 54, 0
1, 218560, Note_on_c, 9, 54, 92
1, 218639, Note_on_c, 9, 54, 0
1, 218640, Note_on_c, 9, 42, 60
1, 218640, Note_on_c, 9, 36, 116
1, 218679, Note_on_c, 9, 42, 0
1, 218680, Note_on_c, 9, 54, 117
1, 218799, Note_on_c, 9, 54, 0
1, 218800, Note_on_c, 9, 54, 82
1, 218879, Note_on_c, 9, 36, 0
1, 218879, Note_on_c, 9, 54, 0
1, 218880, Note_on_c, 9, 42, 127
1, 218880, Note_on_c, 9, 46, 60
1, 218880, Note_on_c, 9, 36, 116
1, 218919, Note_on_c, 9, 42, 0
1, 218919, Note_on_c, 9, 46, 0
1, 218920, Note_on_c, 9, 54, 122
1, 219039, Note_on_c, 9, 54, 0
1, 219040, Note_on_c, 9, 54, 82
1, 219119, Note_on_c, 9, 54, 0
1, 219120, Note_on_c, 9, 42, 60
1, 219120, Note_on_c, 9, 54, 108
1, 219279, Note_on_c, 9, 42, 0
1, 219279, Note_on_c, 9, 54, 0
1, 219280, Note_on_c, 9, 54, 79
1, 219359, Note_on_c, 9, 36, 0
1, 219359, Note_on_c, 9, 54, 0
1, 219360, Note_on_c, 9, 38, 116
1, 219360, Note_on_c, 9, 39, 100
1, 219360, Note_on_c, 9, 42, 127
1, 219360, Note_on_c, 9, 54, 104
1, 219479, Note_on_c, 9, 38, 0
1, 219479, Note_on_c, 9, 39, 0
1, 219479, Note_on_c, 9, 42, 0
1, 219479, Note_on_c, 9, 54, 0
1, 219510, Note_on_c, 9, 54, 73
1, 219569, Note_on_c, 9, 54, 0
1, 219585, Note_on_c, 9, 42, 60
1, 219585, Note_on_c, 9, 54, 113
1, 219719, Note_on_c, 9, 42, 0
1, 219719, Note_on_c, 9, 54, 0
1, 219750, Note_on_c, 9, 54, 76
1, 219809, Note_on_c, 9, 54, 0
1, 219825, Note_on_c, 9, 42, 127
1, 219825, Note_on_c, 9, 54, 117
1, 219840, Note_on_c, 9, 36, 116
1, 219959, Note_on_c, 9, 42, 0
1, 219959, Note_on_c, 9, 54, 0
1, 220000, Note_on_c, 9, 54, 53
1, 220019, Note_on_c, 9, 54, 0
1, 220065, Note_on_c, 9, 42, 60
1, 220065, Note_on_c, 9, 54, 113
1, 220199, Note_on_c, 9, 42, 0
1, 220199, Note_on_c, 9, 54, 0
1, 220230, Note_on_c, 9, 54, 67
1, 220289, Note_on_c, 9, 54, 0
1, 220305, Note_on_c, 9, 38, 116
1, 220305, Note_on_c, 9, 39, 100
1, 220305, Note_on_c, 9, 42, 127
1, 220305, Note_on_c, 9, 54, 117
1, 220319, Note_on_c, 9, 36, 0
1, 220439, Note_on_c, 9, 38, 0
1, 220439, Note_on_c, 9, 39, 0
1, 220439, Note_on_c, 9, 42, 0
1, 220439, Note_on_c, 9, 54, 0
1, 220470, Note_on_c, 9, 54, 85
1, 220529, Note_on_c, 9, 54, 0
1, 220545, Note_on_c, 9, 42, 60
1, 220545, Note_on_c, 9, 54, 117
1, 220679, Note_on_c, 9, 42, 0
1, 220679, Note_on_c, 9, 54, 0
1, 220680, Note_on_c, 9, 54, 89
1, 220799, Note_on_c, 9, 54, 0
1, 220800, Note_on_c, 9, 42, 127
1, 220800, Note_on_c, 9, 54, 117
1, 220800, Note_on_c, 9, 36, 116
1, 220919, Note_on_c, 9, 42, 0
1, 220919, Note_on_c, 9, 54, 0
1, 220950, Note_on_c, 9, 54, 76
1, 221039, Note_on_c, 9, 54, 0
1, 221040, Note_on_c, 9, 42, 60
1, 221054, Note_on_c, 9, 42, 0
1, 221055, Note_on_c, 9, 54, 117
1, 221099, Note_on_c, 9, 54, 0
1, 221190, Note_on_c, 9, 54, 70
1, 221279, Note_on_c, 9, 36, 0
1, 221279, Note_on_c, 9, 54, 0
1, 221280, Note_on_c, 9, 38, 116
1, 221280, Note_on_c, 9, 42, 127
1, 221299, Note_on_c, 9, 38, 0
1, 221299, Note_on_c, 9, 42, 0
1, 221300, Note_on_c, 9, 39, 100
1, 221319, Note_on_c, 9, 39, 0
1, 221320, Note_on_c, 9, 54, 117
1, 221339, Note_on_c, 9, 54, 0
1, 221430, Note_on_c, 9, 54, 85
1, 221519, Note_on_c, 9, 54, 0
1, 221520, Note_on_c, 9, 42, 60
1, 221534, Note_on_c, 9, 42, 0
1, 221535, Note_on_c, 9, 54, 113
1, 221579, Note_on_c, 9, 54, 0
1, 221680, Note_on_c, 9, 54, 70
1, 221759, Note_on_c, 9, 54, 0
1, 221760, Note_on_c, 9, 42, 127
1, 221760, Note_on_c, 9, 36, 116
1, 221799, Note_on_c, 9, 42, 0
1, 221800, Note_on_c, 9, 54, 122
1, 221919, Note_on_c, 9, 54, 0
1, 221920, Note_on_c, 9, 54, 89
1, 221999, Note_on_c, 9, 54, 0
1, 222000, Note_on_c, 9, 42, 60
1, 222014, Note_on_c, 9, 42, 0
1, 222015, Note_on_c, 9, 54, 113
1, 222179, Note_on_c, 9, 54, 0
1, 222180, Note_on_c, 9, 54, 89
1, 222239, Note_on_c, 9, 36, 0
1, 222239, Note_on_c, 9, 54, 0
1, 222240, Note_on_c, 9, 38, 116
1, 222279, Note_on_c, 9, 38, 0
1, 222280, Note_on_c, 9, 39, 100
1, 222280, Note_on_c, 9, 42, 127
1, 222319, Note_on_c, 9, 39, 0
1, 222319, Note_on_c, 9, 42, 0
1, 222320, Note_on_c, 9, 54, 113
1, 222399, Note_on_c, 9, 54, 0
1, 222400, Note_on_c, 9, 54, 92
1, 222479, Note_on_c, 9, 54, 0
1, 222480, Note_on_c, 9, 42, 60
1, 222519, Note_on_c, 9, 42, 0
1, 222520, Note_on_c, 9, 54, 117
1, 222639, Note_on_c, 9, 54, 0
1, 222640, Note_on_c, 9, 54, 82
1, 222719, Note_on_c, 9, 54, 0
1, 222720, Note_on_c, 9, 42, 127
1, 222720, Note_on_c, 9, 36, 116
1, 222759, Note_on_c, 9, 42, 0
1, 222760, Note_on_c, 9, 54, 122
1, 222879, Note_on_c, 9, 54, 0
1, 222880, Note_on_c, 9, 54, 82
1, 222959, Note_on_c, 9, 54, 0
1, 222960, Note_on_c, 9, 42, 60
1, 222960, Note_on_c, 9, 54, 108
1, 223119, Note_on_c, 9, 42, 0
1, 223119, Note_on_c, 9, 54, 0
1, 223120, Note_on_c, 9, 54, 79
1, 223199, Note_on_c, 9, 36, 0
1, 223199, Note_on_c, 9, 54, 0
1, 223200, Note_on_c, 9, 38, 116
1, 223200, Note_on_c, 9, 39, 100
1, 223200, Note_on_c, 9, 42, 127
1, 223200, Note_on_c, 9, 54, 104
1, 223319, Note_on_c, 9, 38, 0
1, 223319, Note_on_c, 9, 39, 0
1, 223319, Note_on_c, 9, 42, 0
1, 223319, Note_on_c, 9, 54, 0
1, 223350, Note_on_c, 9, 54, 73
1, 223409, Note_on_c, 9, 54, 0
1, 223425, Note_on_c, 9, 46, 60
1, 223425, Note_on_c, 9, 54, 113
1, 223559, Note_on_c, 9, 46, 0
1, 223559, Note_on_c, 9, 54, 0
1, 223590, Note_on_c, 9, 54, 76
1, 223649, Note_on_c, 9, 54, 0
1, 223650, Note_on_c, 9, 54, 117
1, 223680, Note_on_c, 9, 42, 127
1, 223680, Note_on_c, 9, 36, 116
1, 223769, Note_on_c, 9, 54, 0
1, 223799, Note_on_c, 9, 42, 0
1, 223840, Note_on_c, 9, 54, 53
1, 223859, Note_on_c, 9, 54, 0
1, 223905, Note_on_c, 9, 42, 60
1, 223905, Note_on_c, 9, 54, 113
1, 224039, Note_on_c, 9, 42, 0
1, 224039, Note_on_c, 9, 54, 0
1, 224070, Note_on_c, 9, 54, 67
1, 224129, Note_on_c, 9, 54, 0
1, 224145, Note_on_c, 9, 38, 116
1, 224145, Note_on_c, 9, 39, 100
1, 224145, Note_on_c, 9, 42, 127
1, 224145, Note_on_c, 9, 54, 117
1, 224159, Note_on_c, 9, 36, 0
1, 224279, Note_on_c, 9, 38, 0
1, 224279, Note_on_c, 9, 39, 0
1, 224279, Note_on_c, 9, 42, 0
1, 224279, Note_on_c, 9, 54, 0
1, 224310, Note_on_c, 9, 54, 85
1, 224369, Note_on_c, 9, 54, 0
1, 224385, Note_on_c, 9, 42, 60
1, 224385, Note_on_c, 9, 54, 117
1, 224519, Note_on_c, 9, 42, 0
1, 224519, Note_on_c, 9, 54, 0
1, 224520, Note_on_c, 9, 54, 89
1, 224639, Note_on_c, 9, 54, 0
1, 224640, Note_on_c, 9, 42, 127
1, 224640, Note_on_c, 9, 54, 117
1, 224640, Note_on_c, 9, 36, 116
1, 224759, Note_on_c, 9, 42, 0
1, 224759, Note_on_c, 9, 54, 0
1, 224790, Note_on_c, 9, 54, 76
1, 224879, Note_on_c, 9, 54, 0
1, 224880, Note_on_c, 9, 42, 60
1, 224894, Note_on_c, 9, 42, 0
1, 224895, Note_on_c, 9, 54, 117
1, 224939, Note_on_c, 9, 54, 0
1, 225030, Note_on_c, 9, 54, 70
1, 225119, Note_on_c, 9, 36, 0
1, 225119, Note_on_c, 9, 54, 0
1, 225120, Note_on_c, 9, 38, 116
1, 225120, Note_on_c, 9, 42, 127
1, 225139, Note_on_c, 9, 38, 0
1, 225139, Note_on_c, 9, 42, 0
1, 225140, Note_on_c, 9, 39, 100
1, 225159, Note_on_c, 9, 39, 0
1, 225160, Note_on_c, 9, 54, 117
1, 225179, Note_on_c, 9, 54, 0
1, 225270, Note_on_c, 9, 54, 85
1, 225359, Note_on_c, 9, 54, 0
1, 225360, Note_on_c, 9, 42, 60
1, 225374, Note_on_c, 9, 42, 0
1, 225375, Note_on_c, 9, 54, 113
1, 225419, Note_on_c, 9, 54, 0
1, 225520, Note_on_c, 9, 54, 70
1, 225599, Note_on_c, 9, 54, 0
1, 225600, Note_on_c, 9, 42, 127
1, 225600, Note_on_c, 9, 36, 116
1, 225639, Note_on_c, 9, 42, 0
1, 225640, Note_on_c, 9, 54, 122
1, 225759, Note_on_c, 9, 54, 0
1, 225760, Note_on_c, 9, 54, 89
1, 225839, Note_on_c, 9, 54, 0
1, 225840, Note_on_c, 9, 42, 60
1, 225854, Note_on_c, 9, 42, 0
1, 225855, Note_on_c, 9, 54, 113
1, 226019, Note_on_c, 9, 54, 0
1, 226020, Note_on_c, 9, 54, 89
1, 226079, Note_on_c, 9, 36, 0
1, 226079, Note_on_c, 9, 54, 0
1, 226080, Note_on_c, 9, 38, 116
1, 226119, Note_on_c, 9, 38, 0
1, 226120, Note_on_c, 9, 39, 100
1, 226120, Note_on_c, 9, 42, 127
1, 226159, Note_on_c, 9, 39, 0
1, 226159, Note_on_c, 9, 42, 0
1, 226160, Note_on_c, 9, 54, 113
1, 226239, Note_on_c, 9, 54, 0
1, 226240, Note_on_c, 9, 54, 92
1, 226319, Note_on_c, 9, 54, 0
1, 226320, Note_on_c, 9, 42, 60
1, 226359, Note_on_c, 9, 42, 0
1, 226360, Note_on_c, 9, 54, 117
1, 226479, Note_on_c, 9, 54, 0
1, 226480, Note_on_c, 9, 54, 82
1, 226559, Note_on_c, 9, 54, 0
1, 226560, Note_on_c, 9, 42, 127
1, 226560, Note_on_c, 9, 36, 116
1, 226599, Note_on_c, 9, 42, 0
1, 226600, Note_on_c, 9, 54, 122
1, 226719, Note_on_c, 9, 54, 0
1, 226720, Note_on_c, 9, 54, 82
1, 226799, Note_on_c, 9, 54, 0
1, 226800, Note_on_c, 9, 42, 60
1, 226800, Note_on_c, 9, 54, 108
1, 226959, Note_on_c, 9, 42, 0
1, 226959, Note_on_c, 9, 54, 0
1, 226960, Note_on_c, 9, 54, 79
1, 227039, Note_on_c, 9, 36, 0
1, 227039, Note_on_c, 9, 54, 0
1, 227040, Note_on_c, 9, 38, 116
1, 227040, Note_on_c, 9, 39, 100
1, 227040, Note_on_c, 9, 42, 127
1, 227040, Note_on_c, 9, 54, 104
1, 227159, Note_on_c, 9, 38, 0
1, 227159, Note_on_c, 9, 39, 0
1, 227159, Note_on_c, 9, 42, 0
1, 227159, Note_on_c, 9, 54, 0
1, 227190, Note_on_c, 9, 54, 73
1, 227249, Note_on_c, 9, 54, 0
1, 227265, Note_on_c, 9, 42, 60
1, 227265, Note_on_c, 9, 54, 113
1, 227399, Note_on_c, 9, 42, 0
1, 227399, Note_on_c, 9, 54, 0
1, 227430, Note_on_c, 9, 54, 76
1, 227489, Note_on_c, 9, 54, 0
1, 227505, Note_on_c, 9, 42, 127
1, 227505, Note_on_c, 9, 54, 117
1, 227520, Note_on_c, 9, 36, 116
1, 227639, Note_on_c, 9, 42, 0
1, 227639, Note_on_c, 9, 54, 0
1, 227680, Note_on_c, 9, 54, 53
1, 227699, Note_on_c, 9, 54, 0
1, 227745, Note_on_c, 9, 42, 60
1, 227745, Note_on_c, 9, 54, 113
1, 227879, Note_on_c, 9, 42, 0
1, 227879, Note_on_c, 9, 54, 0
1, 227910, Note_on_c, 9, 54, 67
1, 227969, Note_on_c, 9, 54, 0
1, 227985, Note_on_c, 9, 38, 116
1, 227985, Note_on_c, 9, 39, 100
1, 227985, Note_on_c, 9, 42, 127
1, 227985, Note_on_c, 9, 54, 117
1, 227999, Note_on_c, 9, 36, 0
1, 228119, Note_on_c, 9, 38, 0
1, 228119, Note_on_c, 9, 39, 0
1, 228119, Note_on_c, 9, 42, 0
1, 228119, Note_on_c, 9, 54, 0
1, 228150, Note_on_c, 9, 54, 85
1, 228209, Note_on_c, 9, 54, 0
1, 228225, Note_on_c, 9, 42, 60
1, 228225, Note_on_c, 9, 54, 117
1, 228359, Note_on_c, 9, 42, 0
1, 228359, Note_on_c, 9, 54, 0
1, 228360, Note_on_c, 9, 54, 89
1, 228479, Note_on_c, 9, 54, 0
1, 228480, Note_on_c, 9, 42, 127
1, 228480, Note_on_c, 9, 54, 117
1, 228480, Note_on_c, 9, 36, 116
1, 228599, Note_on_c, 9, 42, 0
1, 228599, Note_on_c, 9, 54, 0
1, 228630, Note_on_c, 9, 54, 76
1, 228719, Note_on_c, 9, 54, 0
1, 228720, Note_on_c, 9, 42, 60
1, 228734, Note_on_c, 9, 42, 0
1, 228735, Note_on_c, 9, 54, 117
1, 228779, Note_on_c, 9, 54, 0
1, 228870, Note_on_c, 9, 54, 70
1, 228959, Note_on_c, 9, 36, 0
1, 228959, Note_on_c, 9, 54, 0
1, 228960, Note_on_c, 9, 38, 116
1, 228960, Note_on_c, 9, 42, 127
1, 228979, Note_on_c, 9, 38, 0
1, 228979, Note_on_c, 9, 42, 0
1, 228980, Note_on_c, 9, 39, 100
1, 228999, Note_on_c, 9, 39, 0
1, 229000, Note_on_c, 9, 54, 117
1, 229019, Note_on_c, 9, 54, 0
1, 229110, Note_on_c, 9, 54, 85
1, 229199, Note_on_c, 9, 54, 0
1, 229200, Note_on_c, 9, 42, 60
1, 229214, Note_on_c, 9, 42, 0
1, 229215, Note_on_c, 9, 54, 113
1, 229259, Note_on_c, 9, 54, 0
1, 229360, Note_on_c, 9, 54, 70
1, 229439, Note_on_c, 9, 54, 0
1, 229440, Note_on_c, 9, 42, 127
1, 229440, Note_on_c, 9, 36, 116
1, 229479, Note_on_c, 9, 42, 0
1, 229480, Note_on_c, 9, 54, 122
1, 229599, Note_on_c, 9, 54, 0
1, 229600, Note_on_c, 9, 54, 89
1, 229679, Note_on_c, 9, 54, 0
1, 229680, Note_on_c, 9, 42, 60
1, 229694, Note_on_c, 9, 42, 0
1, 229695, Note_on_c, 9, 54, 113
1, 229859, Note_on_c, 9, 54, 0
1, 229860, Note_on_c, 9, 54, 89
1, 229919, Note_on_c, 9, 36, 0
1, 229919, Note_on_c, 9, 54, 0
1, 229920, Note_on_c, 9, 38, 116
1, 229959, Note_on_c, 9, 38, 0
1, 229960, Note_on_c, 9, 39, 100
1, 229960, Note_on_c, 9, 42, 127
1, 229999, Note_on_c, 9, 39, 0
1, 229999, Note_on_c, 9, 42, 0
1, 230000, Note_on_c, 9, 54, 113
1, 230079, Note_on_c, 9, 54, 0
1, 230080, Note_on_c, 9, 54, 92
1, 230159, Note_on_c, 9, 54, 0
1, 230160, Note_on_c, 9, 42, 60
1, 230199, Note_on_c, 9, 42, 0
1, 230200, Note_on_c, 9, 54, 117
1, 230319, Note_on_c, 9, 54, 0
1, 230320, Note_on_c, 9, 54, 82
1, 230399, Note_on_c, 9, 54, 0
1, 230400, Note_on_c, 9, 42, 127
1, 230400, Note_on_c, 9, 36, 116
1, 230439, Note_on_c, 9, 42, 0
1, 230440, Note_on_c, 9, 54, 122
1, 230559, Note_on_c, 9, 54, 0
1, 230560, Note_on_c, 9, 54, 82
1, 230639, Note_on_c, 9, 54, 0
1, 230640, Note_on_c, 9, 42, 60
1, 230640, Note_on_c, 9, 54, 108
1, 230799, Note_on_c, 9, 42, 0
1, 230799, Note_on_c, 9, 54, 0
1, 230800, Note_on_c, 9, 54, 79
1, 230879, Note_on_c, 9, 36, 0
1, 230879, Note_on_c, 9, 54, 0
1, 230880, Note_on_c, 9, 38, 116
1, 230880, Note_on_c, 9, 39, 100
1, 230880, Note_on_c, 9, 42, 127
1, 230880, Note_on_c, 9, 54, 104
1, 230999, Note_on_c, 9, 38, 0
1, 230999, Note_on_c, 9, 39, 0
1, 230999, Note_on_c, 9, 42, 0
1, 230999, Note_on_c, 9, 54, 0
1, 231030, Note_on_c, 9, 54, 73
1, 231089, Note_on_c, 9, 54, 0
1, 231105, Note_on_c, 9, 46, 60
1, 231105, Note_on_c, 9, 54, 113
1, 231239, Note_on_c, 9, 46, 0
1, 231239, Note_on_c, 9, 54, 0
1, 231270, Note_on_c, 9, 54, 76
1, 231329, Note_on_c, 9, 54, 0
1, 231345, Note_on_c, 9, 42, 127
1, 231345, Note_on_c, 9, 54, 117
1, 231360, Note_on_c, 9, 36, 116
1, 231479, Note_on_c, 9, 42, 0
1, 231479, Note_on_c, 9, 54, 0
1, 231520, Note_on_c, 9, 54, 53
1, 231539, Note_on_c, 9, 54, 0
1, 231585, Note_on_c, 9, 42, 60
1, 231585, Note_on_c, 9, 54, 113
1, 231719, Note_on_c, 9, 42, 0
1, 231719, Note_on_c, 9, 54, 0
1, 231750, Note_on_c, 9, 54, 67
1, 231809, Note_on_c, 9, 54, 0
1, 231825, Note_on_c, 9, 38, 116
1, 231825, Note_on_c, 9, 39, 100
1, 231825, Note_on_c, 9, 42, 127
1, 231825, Note_on_c, 9, 54, 117
1, 231839, Note_on_c, 9, 36, 0
1, 231959, Note_on_c, 9, 38, 0
1, 231959, Note_on_c, 9, 39, 0
1, 231959, Note_on_c, 9, 42, 0
1, 231959, Note_on_c, 9, 54, 0
1, 231990, Note_on_c, 9, 54, 85
1, 232049, Note_on_c, 9, 54, 0
1, 232065, Note_on_c, 9, 42, 60
1, 232065, Note_on_c, 9, 54, 117
1, 232199, Note_on_c, 9, 42, 0
1, 232199, Note_on_c, 9, 54, 0
1, 232200, Note_on_c, 9, 54, 89
1, 232319, Note_on_c, 9, 54, 0
1, 232320, Note_on_c, 9, 42, 127
1, 232320, Note_on_c, 9, 54, 117
1, 232320, Note_on_c, 9, 36, 116
1, 232439, Note_on_c, 9, 42, 0
1, 232439, Note_on_c, 9, 54, 0
1, 232470, Note_on_c, 9, 54, 76
1, 232559, Note_on_c, 9, 54, 0
1, 232560, Note_on_c, 9, 42, 60
1, 232574, Note_on_c, 9, 42, 0
1, 232575, Note_on_c, 9, 54, 117
1, 232619, Note_on_c, 9, 54, 0
1, 232710, Note_on_c, 9, 54, 70
1, 232799, Note_on_c, 9, 36, 0
1, 232799, Note_on_c, 9, 54, 0
1, 232800, Note_on_c, 9, 38, 116
1, 232819, Note_on_c, 9, 38, 0
1, 232820, Note_on_c, 9, 39, 100
1, 232820, Note_on_c, 9, 42, 127
1, 232839, Note_on_c, 9, 39, 0
1, 232839, Note_on_c, 9, 42, 0
1, 232840, Note_on_c, 9, 54, 117
1, 232859, Note_on_c, 9, 54, 0
1, 232950, Note_on_c, 9, 54, 85
1, 233039, Note_on_c, 9, 54, 0
1, 233040, Note_on_c, 9, 42, 60
1, 233040, Note_on_c, 9, 36, 116
1, 233054, Note_on_c, 9, 42, 0
1, 233055, Note_on_c, 9, 54, 113
1, 233099, Note_on_c, 9, 54, 0
1, 233200, Note_on_c, 9, 54, 70
1, 233279, Note_on_c, 9, 36, 0
1, 233279, Note_on_c, 9, 54, 0
1, 233280, Note_on_c, 9, 38, 116
1, 233280, Note_on_c, 9, 36, 116
1, 233319, Note_on_c, 9, 38, 0
1, 233320, Note_on_c, 9, 39, 100
1, 233320, Note_on_c, 9, 42, 127
1, 233359, Note_on_c, 9, 39, 0
1, 233359, Note_on_c, 9, 42, 0
1, 233360, Note_on_c, 9, 54, 122
1, 233439, Note_on_c, 9, 54, 0
1, 233440, Note_on_c, 9, 54, 89
1, 233519, Note_on_c, 9, 36, 0
1, 233519, Note_on_c, 9, 54, 0
1, 233520, Note_on_c, 9, 42, 60
1, 233520, Note_on_c, 9, 36, 116
1, 233534, Note_on_c, 9, 42, 0
1, 233535, Note_on_c, 9, 54, 113
1, 233699, Note_on_c, 9, 54, 0
1, 233700, Note_on_c, 9, 54, 89
1, 233759, Note_on_c, 9, 36, 0
1, 233759, Note_on_c, 9, 54, 0
1, 233760, Note_on_c, 9, 38, 116
1, 233760, Note_on_c, 9, 42, 127
1, 233799, Note_on_c, 9, 38, 0
1, 233799, Note_on_c, 9, 42, 0
1, 233800, Note_on_c, 9, 39, 100
1, 233839, Note_on_c, 9, 39, 0
1, 233840, Note_on_c, 9, 54, 113
1, 233919, Note_on_c, 9, 54, 0
1, 233920, Note_on_c, 9, 54, 92
1, 233999, Note_on_c, 9, 54, 0
1, 234000, Note_on_c, 9, 42, 60
1, 234000, Note_on_c, 9, 36, 116
1, 234039, Note_on_c, 9, 42, 0
1, 234040, Note_on_c, 9, 54, 117
1, 234159, Note_on_c, 9, 54, 0
1, 234160, Note_on_c, 9, 54, 82
1, 234239, Note_on_c, 9, 36, 0
1, 234239, Note_on_c, 9, 54, 0
1, 234240, Note_on_c, 9, 42, 127
1, 234240, Note_on_c, 9, 46, 60
1, 234240, Note_on_c, 9, 36, 116
1, 234279, Note_on_c, 9, 42, 0
1, 234279, Note_on_c, 9, 46, 0
1, 234280, Note_on_c, 9, 54, 122
1, 234399, Note_on_c, 9, 54, 0
1, 234400, Note_on_c, 9, 54, 82
1, 234479, Note_on_c, 9, 54, 0
1, 234480, Note_on_c, 9, 42, 60
1, 234480, Note_on_c, 9, 54, 108
1, 234639, Note_on_c, 9, 42, 0
1, 234639, Note_on_c, 9, 54, 0
1, 234640, Note_on_c, 9, 54, 79
1, 234719, Note_on_c, 9, 36, 0
1, 234719, Note_on_c, 9, 54, 0
1, 234720, Note_on_c, 9, 38, 116
1, 234720, Note_on_c, 9, 39, 100
1, 234720, Note_on_c, 9, 42, 127
1, 234720, Note_on_c, 9, 54, 104
1, 234839, Note_on_c, 9, 38, 0
1, 234839, Note_on_c, 9, 39, 0
1, 234839, Note_on_c, 9, 42, 0
1, 234839, Note_on_c, 9, 54, 0
1, 234870, Note_on_c, 9, 54, 73
1, 234929, Note_on_c, 9, 54, 0
1, 234945, Note_on_c, 9, 42, 60
1, 234945, Note_on_c, 9, 54, 113
1, 235079, Note_on_c, 9, 42, 0
1, 235079, Note_on_c, 9, 54, 0
1, 235110, Note_on_c, 9, 54, 76
1, 235169, Note_on_c, 9, 54, 0
1, 235185, Note_on_c, 9, 42, 127
1, 235185, Note_on_c, 9, 54, 117
1, 235200, Note_on_c, 9, 36, 116
1, 235319, Note_on_c, 9, 42, 0
1, 235319, Note_on_c, 9, 54, 0
1, 235360, Note_on_c, 9, 54, 53
1, 235379, Note_on_c, 9, 54, 0
1, 235425, Note_on_c, 9, 42, 60
1, 235425, Note_on_c, 9, 54, 113
1, 235559, Note_on_c, 9, 42, 0
1, 235559, Note_on_c, 9, 54, 0
1, 235590, Note_on_c, 9, 54, 67
1, 235649, Note_on_c, 9, 54, 0
1, 235665, Note_on_c, 9, 38, 116
1, 235665, Note_on_c, 9, 39, 100
1, 235665, Note_on_c, 9, 42, 127
1, 235665, Note_on_c, 9, 54, 117
1, 235679, Note_on_c, 9, 36, 0
1, 235799, Note_on_c, 9, 38, 0
1, 235799, Note_on_c, 9, 39, 0
1, 235799, Note_on_c, 9, 42, 0
1, 235799, Note_on_c, 9, 54, 0
1, 235830, Note_on_c, 9, 54, 85
1, 235889, Note_on_c, 9, 54, 0
1, 235905, Note_on_c, 9, 42, 60
1, 235905, Note_on_c, 9, 54, 117
1, 236039, Note_on_c, 9, 42, 0
1, 236039, Note_on_c, 9, 54, 0
1, 236040, Note_on_c, 9, 54, 89
1, 236159, Note_on_c, 9, 54, 0
1, 236160, Note_on_c, 9, 42, 127
1, 236160, Note_on_c, 9, 54, 117
1, 236160, Note_on_c, 9, 36, 116
1, 236279, Note_on_c, 9, 42, 0
1, 236279, Note_on_c, 9, 54, 0
1, 236310, Note_on_c, 9, 54, 76
1, 236399, Note_on_c, 9, 54, 0
1, 236400, Note_on_c, 9, 42, 60
1, 236414, Note_on_c, 9, 42, 0
1, 236415, Note_on_c, 9, 54, 117
1, 236459, Note_on_c, 9, 54, 0
1, 236550, Note_on_c, 9, 54, 70
1, 236639, Note_on_c, 9, 36, 0
1, 236639, Note_on_c, 9, 54, 0
1, 236640, Note_on_c, 9, 38, 116
1, 236640, Note_on_c, 9, 42, 127
1, 236659, Note_on_c, 9, 38, 0
1, 236659, Note_on_c, 9, 42, 0
1, 236660, Note_on_c, 9, 39, 100
1, 236679, Note_on_c, 9, 39, 0
1, 236680, Note_on_c, 9, 54, 117
1, 236699, Note_on_c, 9, 54, 0
1, 236790, Note_on_c, 9, 54, 85
1, 236879, Note_on_c, 9, 54, 0
1, 236880, Note_on_c, 9, 42, 60
1, 236894, Note_on_c, 9, 42, 0
1, 236895, Note_on_c, 9, 54, 113
1, 236939, Note_on_c, 9, 54, 0
1, 237040, Note_on_c, 9, 54, 70
1, 237119, Note_on_c, 9, 54, 0
1, 237120, Note_on_c, 9, 42, 127
1, 237120, Note_on_c, 9, 36, 116
1, 237159, Note_on_c, 9, 42, 0
1, 237160, Note_on_c, 9, 54, 122
1, 237279, Note_on_c, 9, 54, 0
1, 237280, Note_on_c, 9, 54, 89
1, 237359, Note_on_c, 9, 54, 0
1, 237360, Note_on_c, 9, 42, 60
1, 237374, Note_on_c, 9, 42, 0
1, 237375, Note_on_c, 9, 54, 113
1, 237539, Note_on_c, 9, 54, 0
1, 237540, Note_on_c, 9, 54, 89
1, 237599, Note_on_c, 9, 36, 0
1, 237599, Note_on_c, 9, 54, 0
1, 237600, Note_on_c, 9, 38, 116
1, 237639, Note_on_c, 9, 38, 0
1, 237640, Note_on_c, 9, 39, 100
1, 237640, Note_on_c, 9, 42, 127
1, 237679, Note_on_c, 9, 39, 0
1, 237679, Note_on_c, 9, 42, 0
1, 237680, Note_on_c, 9, 54, 113
1, 237759, Note_on_c, 9, 54, 0
1, 237760, Note_on_c, 9, 54, 92
1, 237839, Note_on_c, 9, 54, 0
1, 237840, Note_on_c, 9, 42, 60
1, 237879, Note_on_c, 9, 42, 0
1, 237880, Note_on_c, 9, 54, 117
1, 237999, Note_on_c, 9, 54, 0
1, 238000, Note_on_c, 9, 54, 82
1, 238079, Note_on_c, 9, 54, 0
1, 238080, Note_on_c, 9, 42, 127
1, 238080, Note_on_c, 9, 36, 116
1, 238119, Note_on_c, 9, 42, 0
1, 238120, Note_on_c, 9, 54, 122
1, 238239, Note_on_c, 9, 54, 0
1, 238240, Note_on_c, 9, 54, 82
1, 238319, Note_on_c, 9, 54, 0
1, 238320, Note_on_c, 9, 42, 60
1, 238320, Note_on_c, 9, 54, 108
1, 238479, Note_on_c, 9, 42, 0
1, 238479, Note_on_c, 9, 54, 0
1, 238480, Note_on_c, 9, 54, 79
1, 238559, Note_on_c, 9, 36, 0
1, 238559, Note_on_c, 9, 54, 0
1, 238560, Note_on_c, 9, 38, 116
1, 238560, Note_on_c, 9, 39, 100
1, 238560, Note_on_c, 9, 42, 127
1, 238560, Note_on_c, 9, 54, 104
1, 238679, Note_on_c, 9, 38, 0
1, 238679, Note_on_c, 9, 39, 0
1, 238679, Note_on_c, 9, 42, 0
1, 238679, Note_on_c, 9, 54, 0
1, 238710, Note_on_c, 9, 54, 73
1, 238769, Note_on_c, 9, 54, 0
1, 238785, Note_on_c, 9, 46, 60
1, 238785, Note_on_c, 9, 54, 113
1, 238919, Note_on_c, 9, 46, 0
1, 238919, Note_on_c, 9, 54, 0
1, 238950, Note_on_c, 9, 54, 76
1, 239009, Note_on_c, 9, 54, 0
1, 239010, Note_on_c, 9, 54, 117
1, 239040, Note_on_c, 9, 42, 127
1, 239040, Note_on_c, 9, 36, 116
1, 239129, Note_on_c, 9, 54, 0
1, 239159, Note_on_c, 9, 42, 0
1, 239200, Note_on_c, 9, 54, 53
1, 239219, Note_on_c, 9, 54, 0
1, 239265, Note_on_c, 9, 42, 60
1, 239265, Note_on_c, 9, 54, 113
1, 239399, Note_on_c, 9, 42, 0
1, 239399, Note_on_c, 9, 54, 0
1, 239430, Note_on_c, 9, 54, 67
1, 239489, Note_on_c, 9, 54, 0
1, 239505, Note_on_c, 9, 38, 116
1, 239505, Note_on_c, 9, 39, 100
1, 239505, Note_on_c, 9, 42, 127
1, 239505, Note_on_c, 9, 54, 117
1, 239519, Note_on_c, 9, 36, 0
1, 239639, Note_on_c, 9, 38, 0
1, 239639, Note_on_c, 9, 39, 0
1, 239639, Note_on_c, 9, 42, 0
1, 239639, Note_on_c, 9, 54, 0
1, 239670, Note_on_c, 9, 54, 85
1, 239729, Note_on_c, 9, 54, 0
1, 239745, Note_on_c, 9, 42, 60
1, 239745, Note_on_c, 9, 54, 117
1, 239879, Note_on_c, 9, 42, 0
1, 239879, Note_on_c, 9, 54, 0
1, 239880, Note_on_c, 9, 54, 89
1, 239999, Note_on_c, 9, 54, 0
1, 240000, Note_on_c, 9, 42, 127
1, 240000, Note_on_c, 9, 54, 117
1, 240000, Note_on_c, 9, 36, 116
1, 240119, Note_on_c, 9, 42, 0
1, 240119, Note_on_c, 9, 54, 0
1, 240150, Note_on_c, 9, 54, 76
1, 240239, Note_on_c, 9, 54, 0
1, 240240, Note_on_c, 9, 42, 60
1, 240254, Note_on_c, 9, 42, 0
1, 240255, Note_on_c, 9, 54, 117
1, 240299, Note_on_c, 9, 54, 0
1, 240390, Note_on_c, 9, 54, 70
1, 240479, Note_on_c, 9, 36, 0
1, 240479, Note_on_c, 9, 54, 0
1, 240480, Note_on_c, 9, 38, 116
1, 240480, Note_on_c, 9, 42, 127
1, 240499, Note_on_c, 9, 38, 0
1, 240499, Note_on_c, 9, 42, 0
1, 240500, Note_on_c, 9, 39, 100
1, 240519, Note_on_c, 9, 39, 0
1, 240520, Note_on_c, 9, 54, 117
1, 240539, Note_on_c, 9, 54, 0
1, 240630, Note_on_c, 9, 54, 85
1, 240719, Note_on_c, 9, 54, 0
1, 240720, Note_on_c, 9, 42, 60
1, 240734, Note_on_c, 9, 42, 0
1, 240735, Note_on_c, 9, 54, 113
1, 240779, Note_on_c, 9, 54, 0
1, 240880, Note_on_c, 9, 54, 70
1, 240959, Note_on_c, 9, 54, 0
1, 240960, Note_on_c, 9, 42, 127
1, 240960, Note_on_c, 9, 36, 116
1, 240999, Note_on_c, 9, 42, 0
1, 241000, Note_on_c, 9, 54, 122
1, 241119, Note_on_c, 9, 54, 0
1, 241120, Note_on_c, 9, 54, 89
1, 241199, Note_on_c, 9, 54, 0
1, 241200, Note_on_c, 9, 42, 60
1, 241214, Note_on_c, 9, 42, 0
1, 241215, Note_on_c, 9, 54, 113
1, 241379, Note_on_c, 9, 54, 0
1, 241380, Note_on_c, 9, 54, 89
1, 241439, Note_on_c, 9, 36, 0
1, 241439, Note_on_c, 9, 54, 0
1, 241440, Note_on_c, 9, 38, 116
1, 241479, Note_on_c, 9, 38, 0
1, 241480, Note_on_c, 9, 39, 100
1, 241480, Note_on_c, 9, 42, 127
1, 241519, Note_on_c, 9, 39, 0
1, 241519, Note_on_c, 9, 42, 0
1, 241520, Note_on_c, 9, 54, 113
1, 241599, Note_on_c, 9, 54, 0
1, 241600, Note_on_c, 9, 54, 92
1, 241679, Note_on_c, 9, 54, 0
1, 241680, Note_on_c, 9, 42, 60
1, 241719, Note_on_c, 9, 42, 0
1, 241720, Note_on_c, 9, 54, 117
1, 241839, Note_on_c, 9, 54, 0
1, 241840, Note_on_c, 9, 54, 82
1, 241919, Note_on_c, 9, 54, 0
1, 241920, Note_on_c, 9, 42, 127
1, 241920, Note_on_c, 9, 36, 116
1, 241959, Note_on_c, 9, 42, 0
1, 241960, Note_on_c, 9, 54, 122
1, 242079, Note_on_c, 9, 54, 0
1, 242080, Note_on_c, 9, 54, 82
1, 242159, Note_on_c, 9, 54, 0
1, 242160, Note_on_c, 9, 42, 60
1, 242160, Note_on_c, 9, 54, 108
1, 242319, Note_on_c, 9, 42, 0
1, 242319, Note_on_c, 9, 54, 0
1, 242320, Note_on_c, 9, 54, 79
1, 242399, Note_on_c, 9, 36, 0
1, 242399, Note_on_c, 9, 54, 0
1, 242400, Note_on_c, 9, 38, 116
1, 242400, Note_on_c, 9, 39, 100
1, 242400, Note_on_c, 9, 42, 127
1, 242400, Note_on_c, 9, 54, 104
1, 242519, Note_on_c, 9, 38, 0
1, 242519, Note_on_c, 9, 39, 0
1, 242519, Note_on_c, 9, 42, 0
1, 242519, Note_on_c, 9, 54, 0
1, 242550, Note_on_c, 9, 54, 73
1, 242609, Note_on_c, 9, 54, 0
1, 242625, Note_on_c, 9, 42, 60
1, 242625, Note_on_c, 9, 54, 113
1, 242759, Note_on_c, 9, 42, 0
1, 242759, Note_on_c, 9, 54, 0
1, 242790, Note_on_c, 9, 54, 76
1, 242849, Note_on_c, 9, 54, 0
1, 242865, Note_on_c, 9, 42, 127
1, 242865, Note_on_c, 9, 54, 117
1, 242880, Note_on_c, 9, 36, 116
1, 242999, Note_on_c, 9, 42, 0
1, 242999, Note_on_c, 9, 54, 0
1, 243040, Note_on_c, 9, 54, 53
1, 243059, Note_on_c, 9, 54, 0
1, 243105, Note_on_c, 9, 42, 60
1, 243105, Note_on_c, 9, 54, 113
1, 243239, Note_on_c, 9, 42, 0
1, 243239, Note_on_c, 9, 54, 0
1, 243270, Note_on_c, 9, 54, 67
1, 243329, Note_on_c, 9, 54, 0
1, 243345, Note_on_c, 9, 38, 116
1, 243345, Note_on_c, 9, 39, 100
1, 243345, Note_on_c, 9, 42, 127
1, 243345, Note_on_c, 9, 54, 117
1, 243359, Note_on_c, 9, 36, 0
1, 243479, Note_on_c, 9, 38, 0
1, 243479, Note_on_c, 9, 39, 0
1, 243479, Note_on_c, 9, 42, 0
1, 243479, Note_on_c, 9, 54, 0
1, 243510, Note_on_c, 9, 54, 85
1, 243569, Note_on_c, 9, 54, 0
1, 243585, Note_on_c, 9, 42, 60
1, 243585, Note_on_c, 9, 54, 117
1, 243719, Note_on_c, 9, 42, 0
1, 243719, Note_on_c, 9, 54, 0
1, 243720, Note_on_c, 9, 54, 89
1, 243839, Note_on_c, 9, 54, 0
1, 243840, Note_on_c, 9, 42, 127
1, 243840, Note_on_c, 9, 54, 117
1, 243840, Note_on_c, 9, 36, 116
1, 243959, Note_on_c, 9, 42, 0
1, 243959, Note_on_c, 9, 54, 0
1, 243990, Note_on_c, 9, 54, 76
1, 244079, Note_on_c, 9, 54, 0
1, 244080, Note_on_c, 9, 42, 60
1, 244094, Note_on_c, 9, 42, 0
1, 244095, Note_on_c, 9, 54, 117
1, 244139, Note_on_c, 9, 54, 0
1, 244230, Note_on_c, 9, 54, 70
1, 244319, Note_on_c, 9, 36, 0
1, 244319, Note_on_c, 9, 54, 0
1, 244320, Note_on_c, 9, 38, 116
1, 244320, Note_on_c, 9, 42, 127
1, 244339, Note_on_c, 9, 38, 0
1, 244339, Note_on_c, 9, 42, 0
1, 244340, Note_on_c, 9, 39, 100
1, 244359, Note_on_c, 9, 39, 0
1, 244360, Note_on_c, 9, 54, 117
1, 244379, Note_on_c, 9, 54, 0
1, 244470, Note_on_c, 9, 54, 85
1, 244559, Note_on_c, 9, 54, 0
1, 244560, Note_on_c, 9, 42, 60
1, 244574, Note_on_c, 9, 42, 0
1, 244575, Note_on_c, 9, 54, 113
1, 244619, Note_on_c, 9, 54, 0
1, 244720, Note_on_c, 9, 54, 70
1, 244799, Note_on_c, 9, 54, 0
1, 244800, Note_on_c, 9, 42, 127
1, 244800, Note_on_c, 9, 36, 116
1, 244839, Note_on_c, 9, 42, 0
1, 244840, Note_on_c, 9, 54, 122
1, 244959, Note_on_c, 9, 54, 0
1, 244960, Note_on_c, 9, 54, 89
1, 245039, Note_on_c, 9, 54, 0
1, 245040, Note_on_c, 9, 42, 60
1, 245054, Note_on_c, 9, 42, 0
1, 245055, Note_on_c, 9, 54, 113
1, 245219, Note_on_c, 9, 54, 0
1, 245220, Note_on_c, 9, 54, 89
1, 245279, Note_on_c, 9, 36, 0
1, 245279, Note_on_c, 9, 54, 0
1, 245280, Note_on_c, 9, 38, 116
1, 245319, Note_on_c, 9, 38, 0
1, 245320, Note_on_c, 9, 39, 100
1, 245320, Note_on_c, 9, 42, 127
1, 245359, Note_on_c, 9, 39, 0
1, 245359, Note_on_c, 9, 42, 0
1, 245360, Note_on_c, 9, 54, 113
1, 245439, Note_on_c, 9, 54, 0
1, 245440, Note_on_c, 9, 54, 92
1, 245519, Note_on_c, 9, 54, 0
1, 245520, Note_on_c, 9, 42, 60
1, 245559, Note_on_c, 9, 42, 0
1, 245560, Note_on_c, 9, 54, 117
1, 245679, Note_on_c, 9, 54, 0
1, 245680, Note_on_c, 9, 54, 82
1, 245759, Note_on_c, 9, 54, 0
1, 245760, Note_on_c, 9, 42, 127
1, 245760, Note_on_c, 9, 36, 116
1, 245799, Note_on_c, 9, 42, 0
1, 245800, Note_on_c, 9, 54, 122
1, 245919, Note_on_c, 9, 54, 0
1, 245920, Note_on_c, 9, 54, 82
1, 245999, Note_on_c, 9, 54, 0
1, 246000, Note_on_c, 9, 42, 60
1, 246000, Note_on_c, 9, 54, 108
1, 246159, Note_on_c, 9, 42, 0
1, 246159, Note_on_c, 9, 54, 0
1, 246160, Note_on_c, 9, 54, 79
1, 246239, Note_on_c, 9, 36, 0
1, 246239, Note_on_c, 9, 54, 0
1, 246240, Note_on_c, 9, 38, 116
1, 246240, Note_on_c, 9, 39, 100
1, 246240, Note_on_c, 9, 42, 127
1, 246240, Note_on_c, 9, 54, 104
1, 246359, Note_on_c, 9, 38, 0
1, 246359, Note_on_c, 9, 39, 0
1, 246359, Note_on_c, 9, 42, 0
1, 246359, Note_on_c, 9, 54, 0
1, 246390, Note_on_c, 9, 54, 73
1, 246449, Note_on_c, 9, 54, 0
1, 246465, Note_on_c, 9, 46, 60
1, 246465, Note_on_c, 9, 54, 113
1, 246599, Note_on_c, 9, 46, 0
1, 246599, Note_on_c, 9, 54, 0
1, 246630, Note_on_c, 9, 54, 76
1, 246689, Note_on_c, 9, 54, 0
1, 246705, Note_on_c, 9, 42, 127
1, 246705, Note_on_c, 9, 54, 117
1, 246720, Note_on_c, 9, 36, 116
1, 246839, Note_on_c, 9, 42, 0
1, 246839, Note_on_c, 9, 54, 0
1, 246880, Note_on_c, 9, 54, 53
1, 246899, Note_on_c, 9, 54, 0
1, 246945, Note_on_c, 9, 42, 60
1, 246945, Note_on_c, 9, 54, 113
1, 247079, Note_on_c, 9, 42, 0
1, 247079, Note_on_c, 9, 54, 0
1, 247110, Note_on_c, 9, 54, 67
1, 247169, Note_on_c, 9, 54, 0
1, 247185, Note_on_c, 9, 38, 116
1, 247185, Note_on_c, 9, 39, 100
1, 247185, Note_on_c, 9, 42, 127
1, 247185, Note_on_c, 9, 54, 117
1, 247199, Note_on_c, 9, 36, 0
1, 247319, Note_on_c, 9, 38, 0
1, 247319, Note_on_c, 9, 39, 0
1, 247319, Note_on_c, 9, 42, 0
1, 247319, Note_on_c, 9, 54, 0
1, 247350, Note_on_c, 9, 54, 85
1, 247409, Note_on_c, 9, 54, 0
1, 247425, Note_on_c, 9, 42, 60
1, 247425, Note_on_c, 9, 54, 117
1, 247559, Note_on_c, 9, 42, 0
1, 247559, Note_on_c, 9, 54, 0
1, 247560, Note_on_c, 9, 54, 89
1, 247679, Note_on_c, 9, 54, 0
1, 247680, Note_on_c, 9, 42, 127
1, 247680, Note_on_c, 9, 54, 117
1, 247680, Note_on_c, 9, 36, 116
1, 247799, Note_on_c, 9, 42, 0
1, 247799, Note_on_c, 9, 54, 0
1, 247830, Note_on_c, 9, 54, 76
1, 247919, Note_on_c, 9, 54, 0
1, 247920, Note_on_c, 9, 42, 60
1, 247934, Note_on_c, 9, 42, 0
1, 247935, Note_on_c, 9, 54, 117
1, 247979, Note_on_c, 9, 54, 0
1, 248070, Note_on_c, 9, 54, 70
1, 248159, Note_on_c, 9, 36, 0
1, 248159, Note_on_c, 9, 54, 0
1, 248160, Note_on_c, 9, 38, 116
1, 248179, Note_on_c, 9, 38, 0
1, 248180, Note_on_c, 9, 39, 100
1, 248180, Note_on_c, 9, 42, 127
1, 248199, Note_on_c, 9, 39, 0
1, 248199, Note_on_c, 9, 42, 0
1, 248200, Note_on_c, 9, 54, 117
1, 248219, Note_on_c, 9, 54, 0
1, 248310, Note_on_c, 9, 54, 85
1, 248399, Note_on_c, 9, 54, 0
1, 248400, Note_on_c, 9, 42, 60
1, 248400, Note_on_c, 9, 36, 116
1, 248414, Note_on_c, 9, 42, 0
1, 248415, Note_on_c, 9, 54, 113
1, 248459, Note_on_c, 9, 54, 0
1, 248560, Note_on_c, 9, 54, 70
1, 248639, Note_on_c, 9, 36, 0
1, 248639, Note_on_c, 9, 54, 0
1, 248640, Note_on_c, 9, 38, 116
1, 248640, Note_on_c, 9, 36, 116
1, 248679, Note_on_c, 9, 38, 0
1, 248680, Note_on_c, 9, 39, 100
1, 248680, Note_on_c, 9, 42, 127
1, 248719, Note_on_c, 9, 39, 0
1, 248719, Note_on_c, 9, 42, 0
1, 248720, Note_on_c, 9, 54, 122
1, 248799, Note_on_c, 9, 54, 0
1, 248800, Note_on_c, 9, 54, 89
1, 248879, Note_on_c, 9, 36, 0
1, 248879, Note_on_c, 9, 54, 0
1, 248880, Note_on_c, 9, 42, 60
1, 248880, Note_on_c, 9, 36, 116
1, 248894, Note_on_c, 9, 42, 0
1, 248895, Note_on_c, 9, 54, 113
1, 249059, Note_on_c, 9, 54, 0
1, 249060, Note_on_c, 9, 54, 89
1, 249119, Note_on_c, 9, 36, 0
1, 249119, Note_on_c, 9, 54, 0
1, 249120, Note_on_c, 9, 38, 116
1, 249120, Note_on_c, 9, 42, 127
1, 249159, Note_on_c, 9, 38, 0
1, 249159, Note_on_c, 9, 42, 0
1, 249160, Note_on_c, 9, 39, 100
1, 249199, Note_on_c, 9, 39, 0
1, 249200, Note_on_c, 9, 54, 113
1, 249279, Note_on_c, 9, 54, 0
1, 249280, Note_on_c, 9, 54, 92
1, 249359, Note_on_c, 9, 54, 0
1, 249360, Note_on_c, 9, 42, 60
1, 249360, Note_on_c, 9, 36, 116
1, 249399, Note_on_c, 9, 42, 0
1, 249400, Note_on_c, 9, 54, 117
1, 249519, Note_on_c, 9, 54, 0
1, 249520, Note_on_c, 9, 54, 82
1, 249599, Note_on_c, 9, 36, 0
1, 249599, Note_on_c, 9, 54, 0
1, 249600, Note_on_c, 9, 42, 127
1, 249600, Note_on_c, 9, 46, 60
1, 249600, Note_on_c, 9, 36, 116
1, 249639, Note_on_c, 9, 42, 0
1, 249639, Note_on_c, 9, 46, 0
1, 249640, Note_on_c, 9, 54, 122
1, 249759, Note_on_c, 9, 54, 0
1, 249760, Note_on_c, 9, 54, 82
1, 249839, Note_on_c, 9, 54, 0
1, 249840, Note_on_c, 9, 42, 60
1, 249840, Note_on_c, 9, 54, 108
1, 249999, Note_on_c, 9, 42, 0
1, 249999, Note_on_c, 9, 54, 0
1, 250000, Note_on_c, 9, 54, 79
1, 250079, Note_on_c, 9, 36, 0
1, 250079, Note_on_c, 9, 54, 0
1, 250080, Note_on_c, 9, 38, 116
1, 250080, Note_on_c, 9, 39, 100
1, 250080, Note_on_c, 9, 42, 127
1, 250080, Note_on_c, 9, 54, 104
1, 250199, Note_on_c, 9, 38, 0
1, 250199, Note_on_c, 9, 39, 0
1, 250199, Note_on_c, 9, 42, 0
1, 250199, Note_on_c, 9, 54, 0
1, 250230, Note_on_c, 9, 54, 73
1, 250289, Note_on_c, 9, 54, 0
1, 250305, Note_on_c, 9, 42, 60
1, 250305, Note_on_c, 9, 54, 113
1, 250439, Note_on_c, 9, 42, 0
1, 250439, Note_on_c, 9, 54, 0
1, 250470, Note_on_c, 9, 54, 76
1, 250529, Note_on_c, 9, 54, 0
1, 250545, Note_on_c, 9, 42, 127
1, 250545, Note_on_c, 9, 54, 117
1, 250560, Note_on_c, 9, 36, 116
1, 250679, Note_on_c, 9, 42, 0
1, 250679, Note_on_c, 9, 54, 0
1, 250720, Note_on_c, 9, 54, 53
1, 250739, Note_on_c, 9, 54, 0
1, 250785, Note_on_c, 9, 42, 60
1, 250785, Note_on_c, 9, 54, 113
1, 250919, Note_on_c, 9, 42, 0
1, 250919, Note_on_c, 9, 54, 0
1, 250950, Note_on_c, 9, 54, 67
1, 251009, Note_on_c, 9, 54, 0
1, 251025, Note_on_c, 9, 38, 116
1, 251025, Note_on_c, 9, 39, 100
1, 251025, Note_on_c, 9, 42, 127
1, 251025, Note_on_c, 9, 54, 117
1, 251039, Note_on_c, 9, 36, 0
1, 251159, Note_on_c, 9, 38, 0
1, 251159, Note_on_c, 9, 39, 0
1, 251159, Note_on_c, 9, 42, 0
1, 251159, Note_on_c, 9, 54, 0
1, 251190, Note_on_c, 9, 54, 85
1, 251249, Note_on_c, 9, 54, 0
1, 251265, Note_on_c, 9, 42, 60
1, 251265, Note_on_c, 9, 54, 117
1, 251399, Note_on_c, 9, 42, 0
1, 251399, Note_on_c, 9, 54, 0
1, 251400, Note_on_c, 9, 54, 89
1, 251519, Note_on_c, 9, 54, 0
1, 251520, Note_on_c, 9, 42, 127
1, 251520, Note_on_c, 9, 54, 117
1, 251520, Note_on_c, 9, 36, 116
1, 251639, Note_on_c, 9, 42, 0
1, 251639, Note_on_c, 9, 54, 0
1, 251670, Note_on_c, 9, 54, 76
1, 251759, Note_on_c, 9, 54, 0
1, 251760, Note_on_c, 9, 42, 60
1, 251774, Note_on_c, 9, 42, 0
1, 251775, Note_on_c, 9, 54, 117
1, 251819, Note_on_c, 9, 54, 0
1, 251910, Note_on_c, 9, 54, 70
1, 251999, Note_on_c, 9, 36, 0
1, 251999, Note_on_c, 9, 54, 0
1, 252000, Note_on_c, 9, 38, 116
1, 252000, Note_on_c, 9, 42, 127
1, 252019, Note_on_c, 9, 38, 0
1, 252019, Note_on_c, 9, 42, 0
1, 252020, Note_on_c, 9, 39, 100
1, 252039, Note_on_c, 9, 39, 0
1, 252040, Note_on_c, 9, 54, 117
1, 252059, Note_on_c, 9, 54, 0
1, 252150, Note_on_c, 9, 54, 85
1, 252239, Note_on_c, 9, 54, 0
1, 252240, Note_on_c, 9, 42, 60
1, 252254, Note_on_c, 9, 42, 0
1, 252255, Note_on_c, 9, 54, 113
1, 252299, Note_on_c, 9, 54, 0
1, 252400, Note_on_c, 9, 54, 70
1, 252479, Note_on_c, 9, 54, 0
1, 252480, Note_on_c, 9, 42, 127
1, 252480, Note_on_c, 9, 36, 116
1, 252519, Note_on_c, 9, 42, 0
1, 252520, Note_on_c, 9, 54, 122
1, 252639, Note_on_c, 9, 54, 0
1, 252640, Note_on_c, 9, 54, 89
1, 252719, Note_on_c, 9, 54, 0
1, 252720, Note_on_c, 9, 42, 60
1, 252734, Note_on_c, 9, 42, 0
1, 252735, Note_on_c, 9, 54, 113
1, 252899, Note_on_c, 9, 54, 0
1, 252900, Note_on_c, 9, 54, 89
1, 252959, Note_on_c, 9, 36, 0
1, 252959, Note_on_c, 9, 54, 0
1, 252960, Note_on_c, 9, 38, 116
1, 252999, Note_on_c, 9, 38, 0
1, 253000, Note_on_c, 9, 39, 100
1, 253000, Note_on_c, 9, 42, 127
1, 253039, Note_on_c, 9, 39, 0
1, 253039, Note_on_c, 9, 42, 0
1, 253040, Note_on_c, 9, 54, 113
1, 253119, Note_on_c, 9, 54, 0
1, 253120, Note_on_c, 9, 54, 92
1, 253199, Note_on_c, 9, 54, 0
1, 253200, Note_on_c, 9, 42, 60
1, 253239, Note_on_c, 9, 42, 0
1, 253240, Note_on_c, 9, 54, 117
1, 253359, Note_on_c, 9, 54, 0
1, 253360, Note_on_c, 9, 54, 82
1, 253439, Note_on_c, 9, 54, 0
1, 253440, Note_on_c, 9, 42, 127
1, 253440, Note_on_c, 9, 36, 116
1, 253479, Note_on_c, 9, 42, 0
1, 253480, Note_on_c, 9, 54, 122
1, 253599, Note_on_c, 9, 54, 0
1, 253600, Note_on_c, 9, 54, 82
1, 253679, Note_on_c, 9, 54, 0
1, 253680, Note_on_c, 9, 42, 60
1, 253680, Note_on_c, 9, 54, 108
1, 253839, Note_on_c, 9, 42, 0
1, 253839, Note_on_c, 9, 54, 0
1, 253840, Note_on_c, 9, 54, 79
1, 253919, Note_on_c, 9, 36, 0
1, 253919, Note_on_c, 9, 54, 0
1, 253920, Note_on_c, 9, 38, 116
1, 253920, Note_on_c, 9, 39, 100
1, 253920, Note_on_c, 9, 42, 127
1, 253920, Note_on_c, 9, 54, 104
1, 254039, Note_on_c, 9, 38, 0
1, 254039, Note_on_c, 9, 39, 0
1, 254039, Note_on_c, 9, 42, 0
1, 254039, Note_on_c, 9, 54, 0
1, 254070, Note_on_c, 9, 54, 73
1, 254129, Note_on_c, 9, 54, 0
1, 254145, Note_on_c, 9, 46, 60
1, 254145, Note_on_c, 9, 54, 113
1, 254279, Note_on_c, 9, 46, 0
1, 254279, Note_on_c, 9, 54, 0
1, 254310, Note_on_c, 9, 54, 76
1, 254369, Note_on_c, 9, 54, 0
1, 254370, Note_on_c, 9, 54, 117
1, 254400, Note_on_c, 9, 42, 127
1, 254400, Note_on_c, 9, 36, 116
1, 254489, Note_on_c, 9, 54, 0
1, 254519, Note_on_c, 9, 42, 0
1, 254560, Note_on_c, 9, 54, 53
1, 254579, Note_on_c, 9, 54, 0
1, 254625, Note_on_c, 9, 42, 60
1, 254625, Note_on_c, 9, 54, 113
1, 254759, Note_on_c, 9, 42, 0
1, 254759, Note_on_c, 9, 54, 0
1, 254790, Note_on_c, 9, 54, 67
1, 254849, Note_on_c, 9, 54, 0
1, 254865, Note_on_c, 9, 38, 116
1, 254865, Note_on_c, 9, 39, 100
1, 254865, Note_on_c, 9, 42, 127
1, 254865, Note_on_c, 9, 54, 117
1, 254879, Note_on_c, 9, 36, 0
1, 254999, Note_on_c, 9, 38, 0
1, 254999, Note_on_c, 9, 39, 0
1, 254999, Note_on_c, 9, 42, 0
1, 254999, Note_on_c, 9, 54, 0
1, 255030, Note_on_c, 9, 54, 85
1, 255089, Note_on_c, 9, 54, 0
1, 255105, Note_on_c, 9, 42, 60
1, 255105, Note_on_c, 9, 54, 117
1, 255239, Note_on_c, 9, 42, 0
1, 255239, Note_on_c, 9, 54, 0
1, 255240, Note_on_c, 9, 54, 89
1, 255359, Note_on_c, 9, 54, 0
1, 255360, Note_on_c, 9, 42, 127
1, 255360, Note_on_c, 9, 54, 117
1, 255360, Note_on_c, 9, 36, 116
1, 255479, Note_on_c, 9, 42, 0
1, 255479, Note_on_c, 9, 54, 0
1, 255510, Note_on_c, 9, 54, 76
1, 255599, Note_on_c, 9, 54, 0
1, 255600, Note_on_c, 9, 42, 60
1, 255614, Note_on_c, 9, 42, 0
1, 255615, Note_on_c, 9, 54, 117
1, 255659, Note_on_c, 9, 54, 0
1, 255750, Note_on_c, 9, 54, 70
1, 255839, Note_on_c, 9, 36, 0
1, 255839, Note_on_c, 9, 54, 0
1, 255840, Note_on_c, 9, 38, 116
1, 255840, Note_on_c, 9, 42, 127
1, 255859, Note_on_c, 9, 38, 0
1, 255859, Note_on_c, 9, 42, 0
1, 255860, Note_on_c, 9, 39, 100
1, 255879, Note_on_c, 9, 39, 0
1, 255880, Note_on_c, 9, 54, 117
1, 255899, Note_on_c, 9, 54, 0
1, 255990, Note_on_c, 9, 54, 85
1, 256079, Note_on_c, 9, 54, 0
1, 256080, Note_on_c, 9, 42, 60
1, 256094, Note_on_c, 9, 42, 0
1, 256095, Note_on_c, 9, 54, 113
1, 256139, Note_on_c, 9, 54, 0
1, 256240, Note_on_c, 9, 54, 70
1, 256319, Note_on_c, 9, 54, 0
1, 256320, Note_on_c, 9, 42, 127
1, 256320, Note_on_c, 9, 36, 116
1, 256359, Note_on_c, 9, 42, 0
1, 256360, Note_on_c, 9, 54, 122
1, 256479, Note_on_c, 9, 54, 0
1, 256480, Note_on_c, 9, 54, 89
1, 256559, Note_on_c, 9, 54, 0
1, 256560, Note_on_c, 9, 42, 60
1, 256574, Note_on_c, 9, 42, 0
1, 256575, Note_on_c, 9, 54, 113
1, 256739, Note_on_c, 9, 54, 0
1, 256740, Note_on_c, 9, 54, 89
1, 256799, Note_on_c, 9, 36, 0
1, 256799, Note_on_c, 9, 54, 0
1, 256800, Note_on_c, 9, 38, 116
1, 256839, Note_on_c, 9, 38, 0
1, 256840, Note_on_c, 9, 39, 100
1, 256840, Note_on_c, 9, 42, 127
1, 256879, Note_on_c, 9, 39, 0
1, 256879, Note_on_c, 9, 42, 0
1, 256880, Note_on_c, 9, 54, 113
1, 256959, Note_on_c, 9, 54, 0
1, 256960, Note_on_c, 9, 54, 92
1, 257039, Note_on_c, 9, 54, 0
1, 257040, Note_on_c, 9, 42, 60
1, 257079, Note_on_c, 9, 42, 0
1, 257080, Note_on_c, 9, 54, 117
1, 257199, Note_on_c, 9, 54, 0
1, 257200, Note_on_c, 9, 54, 82
1, 257279, Note_on_c, 9, 54, 0
1, 257280, Note_on_c, 9, 42, 127
1, 257280, Note_on_c, 9, 36, 116
1, 257319, Note_on_c, 9, 42, 0
1, 257320, Note_on_c, 9, 54, 122
1, 257439, Note_on_c, 9, 54, 0
1, 257440, Note_on_c, 9, 54, 82
1, 257519, Note_on_c, 9, 54, 0
1, 257520, Note_on_c, 9, 42, 60
1, 257520, Note_on_c, 9, 54, 108
1, 257679, Note_on_c, 9, 42, 0
1, 257679, Note_on_c, 9, 54, 0
1, 257680, Note_on_c, 9, 54, 79
1, 257759, Note_on_c, 9, 36, 0
1, 257759, Note_on_c, 9, 54, 0
1, 257760, Note_on_c, 9, 38, 116
1, 257760, Note_on_c, 9, 39, 100
1, 257760, Note_on_c, 9, 42, 127
1, 257760, Note_on_c, 9, 54, 104
1, 257879, Note_on_c, 9, 38, 0
1, 257879, Note_on_c, 9, 39, 0
1, 257879, Note_on_c, 9, 42, 0
1, 257879, Note_on_c, 9, 54, 0
1, 257910, Note_on_c, 9, 54, 73
1, 257969, Note_on_c, 9, 54, 0
1, 257985, Note_on_c, 9, 42, 60
1, 257985, Note_on_c, 9, 54, 113
1, 258119, Note_on_c, 9, 42, 0
1, 258119, Note_on_c, 9, 54, 0
1, 258150, Note_on_c, 9, 54, 76
1, 258209, Note_on_c, 9, 54, 0
1, 258225, Note_on_c, 9, 42, 127
1, 258225, Note_on_c, 9, 54, 117
1, 258240, Note_on_c, 9, 36, 116
1, 258359, Note_on_c, 9, 42, 0
1, 258359, Note_on_c, 9, 54, 0
1, 258400, Note_on_c, 9, 54, 53
1, 258419, Note_on_c, 9, 54, 0
1, 258465, Note_on_c, 9, 42, 60
1, 258465, Note_on_c, 9, 54, 113
1, 258599, Note_on_c, 9, 42, 0
1, 258599, Note_on_c, 9, 54, 0
1, 258630, Note_on_c, 9, 54, 67
1, 258689, Note_on_c, 9, 54, 0
1, 258705, Note_on_c, 9, 38, 116
1, 258705, Note_on_c, 9, 39, 100
1, 258705, Note_on_c, 9, 42, 127
1, 258705, Note_on_c, 9, 54, 117
1, 258719, Note_on_c, 9, 36, 0
1, 258839, Note_on_c, 9, 38, 0
1, 258839, Note_on_c, 9, 39, 0
1, 258839, Note_on_c, 9, 42, 0
1, 258839, Note_on_c, 9, 54, 0
1, 258870, Note_on_c, 9, 54, 85
1, 258929, Note_on_c, 9, 54, 0
1, 258945, Note_on_c, 9, 42, 60
1, 258945, Note_on_c, 9, 54, 117
1, 259079, Note_on_c, 9, 42, 0
1, 259079, Note_on_c, 9, 54, 0
1, 259080, Note_on_c, 9, 54, 89
1, 259199, Note_on_c, 9, 54, 0
1, 259200, Note_on_c, 9, 42, 127
1, 259200, Note_on_c, 9, 54, 117
1, 259200, Note_on_c, 9, 36, 116
1, 259319, Note_on_c, 9, 42, 0
1, 259319, Note_on_c, 9, 54, 0
1, 259350, Note_on_c, 9, 54, 76
1, 259439, Note_on_c, 9, 54, 0
1, 259440, Note_on_c, 9, 42, 60
1, 259454, Note_on_c, 9, 42, 0
1, 259455, Note_on_c, 9, 54, 117
1, 259499, Note_on_c, 9, 54, 0
1, 259590, Note_on_c, 9, 54, 70
1, 259679, Note_on_c, 9, 36, 0
1, 259679, Note_on_c, 9, 54, 0
1, 259680, Note_on_c, 9, 38, 116
1, 259680, Note_on_c, 9, 42, 127
1, 259699, Note_on_c, 9, 38, 0
1, 259699, Note_on_c, 9, 42, 0
1, 259700, Note_on_c, 9, 39, 100
1, 259719, Note_on_c, 9, 39, 0
1, 259720, Note_on_c, 9, 54, 117
1, 259739, Note_on_c, 9, 54, 0
1, 259830, Note_on_c, 9, 54, 85
1, 259919, Note_on_c, 9, 54, 0
1, 259920, Note_on_c, 9, 42, 60
1, 259934, Note_on_c, 9, 42, 0
1, 259935, Note_on_c, 9, 54, 113
1, 259979, Note_on_c, 9, 54, 0
1, 260080, Note_on_c, 9, 54, 70
1, 260159, Note_on_c, 9, 54, 0
1, 260160, Note_on_c, 9, 42, 127
1, 260160, Note_on_c, 9, 36, 116
1, 260199, Note_on_c, 9, 42, 0
1, 260200, Note_on_c, 9, 54, 122
1, 260319, Note_on_c, 9, 54, 0
1, 260320, Note_on_c, 9, 54, 89
1, 260399, Note_on_c, 9, 54, 0
1, 260400, Note_on_c, 9, 42, 60
1, 260414, Note_on_c, 9, 42, 0
1, 260415, Note_on_c, 9, 54, 113
1, 260579, Note_on_c, 9, 54, 0
1, 260580, Note_on_c, 9, 54, 89
1, 260639, Note_on_c, 9, 36, 0
1, 260639, Note_on_c, 9, 54, 0
1, 260640, Note_on_c, 9, 38, 116
1, 260679, Note_on_c, 9, 38, 0
1, 260680, Note_on_c, 9, 39, 100
1, 260680, Note_on_c, 9, 42, 127
1, 260719, Note_on_c, 9, 39, 0
1, 260719, Note_on_c, 9, 42, 0
1, 260720, Note_on_c, 9, 54, 113
1, 260799, Note_on_c, 9, 54, 0
1, 260800, Note_on_c, 9, 54, 92
1, 260879, Note_on_c, 9, 54, 0
1, 260880, Note_on_c, 9, 42, 60
1, 260919, Note_on_c, 9, 42, 0
1, 260920, Note_on_c, 9, 54, 117
1, 261039, Note_on_c, 9, 54, 0
1, 261040, Note_on_c, 9, 54, 82
1, 261119, Note_on_c, 9, 54, 0
1, 261120, Note_on_c, 9, 42, 127
1, 261120, Note_on_c, 9, 36, 116
1, 261159, Note_on_c, 9, 42, 0
1, 261160, Note_on_c, 9, 54, 122
1, 261279, Note_on_c, 9, 54, 0
1, 261280, Note_on_c, 9, 54, 82
1, 261359, Note_on_c, 9, 54, 0
1, 261360, Note_on_c, 9, 42, 60
1, 261360, Note_on_c, 9, 54, 108
1, 261519, Note_on_c, 9, 42, 0
1, 261519, Note_on_c, 9, 54, 0
1, 261520, Note_on_c, 9, 54, 79
1, 261599, Note_on_c, 9, 36, 0
1, 261599, Note_on_c, 9, 54, 0
1, 261600, Note_on_c, 9, 38, 116
1, 261600, Note_on_c, 9, 39, 100
1, 261600, Note_on_c, 9, 42, 127
1, 261600, Note_on_c, 9, 54, 104
1, 261719, Note_on_c, 9, 38, 0
1, 261719, Note_on_c, 9, 39, 0
1, 261719, Note_on_c, 9, 42, 0
1, 261719, Note_on_c, 9, 54, 0
1, 261750, Note_on_c, 9, 54, 73
1, 261809, Note_on_c, 9, 54, 0
1, 261825, Note_on_c, 9, 46, 60
1, 261825, Note_on_c, 9, 54, 113
1, 261959, Note_on_c, 9, 46, 0
1, 261959, Note_on_c, 9, 54, 0
1, 261990, Note_on_c, 9, 54, 76
1, 262049, Note_on_c, 9, 54, 0
1, 262065, Note_on_c, 9, 42, 127
1, 262065, Note_on_c, 9, 54, 117
1, 262080, Note_on_c, 9, 36, 116
1, 262199, Note_on_c, 9, 42, 0
1, 262199, Note_on_c, 9, 54, 0
1, 262240, Note_on_c, 9, 54, 53
1, 262259, Note_on_c, 9, 54, 0
1, 262305, Note_on_c, 9, 42, 60
1, 262305, Note_on_c, 9, 54, 113
1, 262439, Note_on_c, 9, 42, 0
1, 262439, Note_on_c, 9, 54, 0
1, 262470, Note_on_c, 9, 54, 67
1, 262529, Note_on_c, 9, 54, 0
1, 262545, Note_on_c, 9, 38, 116
1, 262545, Note_on_c, 9, 39, 100
1, 262545, Note_on_c, 9, 42, 127
1, 262545, Note_on_c, 9, 54, 117
1, 262559, Note_on_c, 9, 36, 0
1, 262679, Note_on_c, 9, 38, 0
1, 262679, Note_on_c, 9, 39, 0
1, 262679, Note_on_c, 9, 42, 0
1, 262679, Note_on_c, 9, 54, 0
1, 262710, Note_on_c, 9, 54, 85
1, 262769, Note_on_c, 9, 54, 0
1, 262785, Note_on_c, 9, 42, 60
1, 262785, Note_on_c, 9, 54, 117
1, 262919, Note_on_c, 9, 42, 0
1, 262919, Note_on_c, 9, 54, 0
1, 262920, Note_on_c, 9, 54, 89
1, 263039, Note_on_c, 9, 54, 0
1, 263040, Note_on_c, 9, 42, 127
1, 263040, Note_on_c, 9, 54, 117
1, 263040, Note_on_c, 9, 36, 116
1, 263159, Note_on_c, 9, 42, 0
1, 263159, Note_on_c, 9, 54, 0
1, 263190, Note_on_c, 9, 54, 76
1, 263279, Note_on_c, 9, 54, 0
1, 263280, Note_on_c, 9, 42, 60
1, 263294, Note_on_c, 9, 42, 0
1, 263295, Note_on_c, 9, 54, 117
1, 263339, Note_on_c, 9, 54, 0
1, 263430, Note_on_c, 9, 54, 70
1, 263519, Note_on_c, 9, 36, 0
1, 263519, Note_on_c, 9, 54, 0
1, 263520, Note_on_c, 9, 38, 116
1, 263539, Note_on_c, 9, 38, 0
1, 263540, Note_on_c, 9, 39, 100
1, 263540, Note_on_c, 9, 42, 127
1, 263559, Note_on_c, 9, 39, 0
1, 263559, Note_on_c, 9, 42, 0
1, 263560, Note_on_c, 9, 54, 117
1, 263579, Note_on_c, 9, 54, 0
1, 263670, Note_on_c, 9, 54, 85
1, 263759, Note_on_c, 9, 54, 0
1, 263760, Note_on_c, 9, 42, 60
1, 263760, Note_on_c, 9, 36, 116
1, 263774, Note_on_c, 9, 42, 0
1, 263775, Note_on_c, 9, 54, 113
1, 263819, Note_on_c, 9, 54, 0
1, 263920, Note_on_c, 9, 54, 70
1, 263999, Note_on_c, 9, 36, 0
1, 263999, Note_on_c, 9, 54, 0
1, 264000, Note_on_c, 9, 38, 116
1, 264000, Note_on_c, 9, 36, 116
1, 264039, Note_on_c, 9, 38, 0
1, 264040, Note_on_c, 9, 39, 100
1, 264040, Note_on_c, 9, 42, 127
1, 264079, Note_on_c, 9, 39, 0
1, 264079, Note_on_c, 9, 42, 0
1, 264080, Note_on_c, 9, 54, 122
1, 264159, Note_on_c, 9, 54, 0
1, 264160, Note_on_c, 9, 54, 89
1, 264239, Note_on_c, 9, 36, 0
1, 264239, Note_on_c, 9, 54, 0
1, 264240, Note_on_c, 9, 42, 60
1, 264240, Note_on_c, 9, 36, 116
1, 264254, Note_on_c, 9, 42, 0
1, 264255, Note_on_c, 9, 54, 113
1, 264419, Note_on_c, 9, 54, 0
1, 264420, Note_on_c, 9, 54, 89
1, 264479, Note_on_c, 9, 36, 0
1, 264479, Note_on_c, 9, 54, 0
1, 264480, Note_on_c, 9, 38, 116
1, 264480, Note_on_c, 9, 42, 127
1, 264519, Note_on_c, 9, 38, 0
1, 264519, Note_on_c, 9, 42, 0
1, 264520, Note_on_c, 9, 39, 100
1, 264559, Note_on_c, 9, 39, 0
1, 264560, Note_on_c, 9, 54, 113
1, 264639, Note_on_c, 9, 54, 0
1, 264640, Note_on_c, 9, 54, 92
1, 264719, Note_on_c, 9, 54, 0
1, 264720, Note_on_c, 9, 42, 60
1, 264720, Note_on_c, 9, 36, 116
1, 264759, Note_on_c, 9, 42, 0
1, 264760, Note_on_c, 9, 54, 117
1, 264879, Note_on_c, 9, 54, 0
1, 264880, Note_on_c, 9, 54, 82
1, 264959, Note_on_c, 9, 36, 0
1, 264959, Note_on_c, 9, 54, 0
1, 264960, Note_on_c, 9, 38, 116
1, 264960, Note_on_c, 9, 42, 127
1, 264960, Note_on_c, 9, 36, 116
1, 265199, Note_on_c, 9, 38, 0
1, 265199, Note_on_c, 9, 42, 0
1, 265199, Note_on_c, 9, 36, 0
1, 265200, Note_on_c, 9, 38, 116
1, 265200, Note_on_c, 9, 42, 60
1, 265200, Note_on_c, 9, 36, 116
1, 265439, Note_on_c, 9, 38, 0
1, 265439, Note_on_c, 9, 42, 0
1, 265439, Note_on_c, 9, 36, 0
1, 265440, Note_on_c, 9, 42, 127
1, 265679, Note_on_c, 9, 42, 0
1, 265680, Note_on_c, 9, 42, 60
1, 265680, Note_on_c, 9, 36, 116
1, 265919, Note_on_c, 9, 42, 0
1, 265919, Note_on_c, 9, 36, 0
1, 265920, Note_on_c, 9, 42, 127
1, 266159, Note_on_c, 9, 42, 0
1, 266160, Note_on_c, 9, 42, 60
1, 266160, Note_on_c, 9, 36, 116
1, 266399, Note_on_c, 9, 42, 0
1, 266399, Note_on_c, 9, 36, 0
1, 266400, Note_on_c, 9, 42, 127
1, 266639, Note_on_c, 9, 42, 0
1, 266640, Note_on_c, 9, 42, 60
1, 266640, Note_on_c, 9, 36, 116
1, 266879, Note_on_c, 9, 42, 0
1, 266879, Note_on_c, 9, 36, 0
1, 266880, Note_on_c, 9, 38, 116
1, 266880, Note_on_c, 9, 39, 100
1, 266880, Note_on_c, 9, 36, 116
1, 266894, Note_on_c, 9, 38, 0
1, 266894, Note_on_c, 9, 39, 0
1, 266895, Note_on_c, 9, 42, 127
1, 266895, Note_on_c, 9, 49, 76
1, 267119, Note_on_c, 9, 42, 0
1, 267119, Note_on_c, 9, 49, 0
1, 267359, Note_on_c, 9, 36, 0
1, 267360, Note_on_c, 9, 48, 92
1, 267419, Note_on_c, 9, 48, 0
1, 267440, Note_on_c, 9, 48, 92
1, 267479, Note_on_c, 9, 48, 0
1, 267520, Note_on_c, 9, 48, 92
1, 267539, Note_on_c, 9, 48, 0
1, 267600, Note_on_c, 9, 48, 92
1, 267659, Note_on_c, 9, 48, 0
1, 267680, Note_on_c, 9, 48, 92
1, 267719, Note_on_c, 9, 48, 0
1, 267760, Note_on_c, 9, 48, 92
1, 267779, Note_on_c, 9, 48, 0
1, 267840, Note_on_c, 9, 45, 92
1, 267899, Note_on_c, 9, 45, 0
1, 267920, Note_on_c, 9, 45, 92
1, 267959, Note_on_c, 9, 45, 0
1, 268000, Note_on_c, 9, 45, 92
1, 268019, Note_on_c, 9, 45, 0
1, 268080, Note_on_c, 9, 45, 92
1, 268139, Note_on_c, 9, 45, 0
1, 268160, Note_on_c, 9, 45, 92
1, 268199, Note_on_c, 9, 45, 0
1, 268240, Note_on_c, 9, 45, 92
1, 268259, Note_on_c, 9, 45, 0
1, 268320, Note_on_c, 9, 41, 92
1, 268379, Note_on_c, 9, 41, 0
1, 268400, Note_on_c, 9, 41, 92
1, 268439, Note_on_c, 9, 41, 0
1, 268480, Note_on_c, 9, 41, 92
1, 268499, Note_on_c, 9, 41, 0
1, 268560, Note_on_c, 9, 41, 92
1, 268619, Note_on_c, 9, 41, 0
1, 268640, Note_on_c, 9, 41, 92
1, 268679, Note_on_c, 9, 41, 0
1, 268720, Note_on_c, 9, 41, 92
1, 268739, Note_on_c, 9, 41, 0
1, 268740, End_track
2, 0, Start_track
2, 0, Key_signature, 0, "major"
2, 0, Control_c, 9, 121, 0
2, 0, Program_c, 9, 0
2, 0, Control_c, 9, 7, 100
2, 0, Control_c, 9, 10, 64
2, 0, Control_c, 9, 91, 0
2, 0, Control_c, 9, 93, 0
2, 0, MIDI_port, 0
2, 1920, Note_on_c, 9, 36, 116
2, 2399, Note_on_c, 9, 36, 0
2, 2640, Note_on_c, 9, 36, 116
2, 2879, Note_on_c, 9, 36, 0
2, 3120, Note_on_c, 9, 36, 116
2, 3359, Note_on_c, 9, 36, 0
2, 3600, Note_on_c, 9, 36, 116
2, 3839, Note_on_c, 9, 36, 0
2, 3840, Note_on_c, 9, 36, 116
2, 4319, Note_on_c, 9, 36, 0
2, 4800, Note_on_c, 9, 36, 116
2, 5279, Note_on_c, 9, 36, 0
2, 5760, Note_on_c, 9, 36, 116
2, 6239, Note_on_c, 9, 36, 0
2, 6720, Note_on_c, 9, 36, 116
2, 7199, Note_on_c, 9, 36, 0
2, 7680, Note_on_c, 9, 36, 116
2, 8159, Note_on_c, 9, 36, 0
2, 8640, Note_on_c, 9, 36, 116
2, 9119, Note_on_c, 9, 36, 0
2, 9600, Note_on_c, 9, 36, 116
2, 10079, Note_on_c, 9, 36, 0
2, 10560, Note_on_c, 9, 36, 116
2, 11039, Note_on_c, 9, 36, 0
2, 11520, Note_on_c, 9, 36, 116
2, 11999, Note_on_c, 9, 36, 0
2, 12480, Note_on_c, 9, 36, 116
2, 12959, Note_on_c, 9, 36, 0
2, 13440, Note_on_c, 9, 36, 116
2, 13919, Note_on_c, 9, 36, 0
2, 14400, Note_on_c, 9, 36, 116
2, 14879, Note_on_c, 9, 36, 0
2, 15360, Note_on_c, 9, 36, 116
2, 15839, Note_on_c, 9, 36, 0
2, 16320, Note_on_c, 9, 36, 116
2, 16799, Note_on_c, 9, 36, 0
2, 17280, Note_on_c, 9, 36, 116
2, 17759, Note_on_c, 9, 36, 0
2, 18000, Note_on_c, 9, 36, 116
2, 18239, Note_on_c, 9, 36, 0
2, 18240, Note_on_c, 9, 36, 116
2, 18479, Note_on_c, 9, 36, 0
2, 18480, Note_on_c, 9, 36, 116
2, 18719, Note_on_c, 9, 36, 0
2, 18960, Note_on_c, 9, 36, 116
2, 19199, Note_on_c, 9, 36, 0
2, 19200, Note_on_c, 9, 36, 116
2, 19679, Note_on_c, 9, 36, 0
2, 20160, Note_on_c, 9, 36, 116
2, 20639, Note_on_c, 9, 36, 0
2, 21120, Note_on_c, 9, 36, 116
2, 21599, Note_on_c, 9, 36, 0
2, 22080, Note_on_c, 9, 36, 116
2, 22559, Note_on_c, 9, 36, 0
2, 23040, Note_on_c, 9, 36, 116
2, 23519, Note_on_c, 9, 36, 0
2, 24000, Note_on_c, 9, 36, 116
2, 24479, Note_on_c, 9, 36, 0
2, 24960, Note_on_c, 9, 36, 116
2, 25439, Note_on_c, 9, 36, 0
2, 25920, Note_on_c, 9, 36, 116
2, 26399, Note_on_c, 9, 36, 0
2, 26880, Note_on_c, 9, 36, 116
2, 27359, Note_on_c, 9, 36, 0
2, 27840, Note_on_c, 9, 36, 116
2, 28319, Note_on_c, 9, 36, 0
2, 28800, Note_on_c, 9, 36, 116
2, 29279, Note_on_c, 9, 36, 0
2, 29760, Note_on_c, 9, 36, 116
2, 30239, Note_on_c, 9, 36, 0
2, 30720, Note_on_c, 9, 36, 116
2, 31199, Note_on_c, 9, 36, 0
2, 31680, Note_on_c, 9, 36, 116
2, 32159, Note_on_c, 9, 36, 0
2, 32640, Note_on_c, 9, 36, 116
2, 33119, Note_on_c, 9, 36, 0
2, 34560, Note_on_c, 9, 36, 116
2, 35039, Note_on_c, 9, 36, 0
2, 35520, Note_on_c, 9, 36, 116
2, 35999, Note_on_c, 9, 36, 0
2, 36480, Note_on_c, 9, 36, 116
2, 36959, Note_on_c, 9, 36, 0
2, 37440, Note_on_c, 9, 36, 116
2, 37919, Note_on_c, 9, 36, 0
2, 38400, Note_on_c, 9, 36, 116
2, 38879, Note_on_c, 9, 36, 0
2, 39360, Note_on_c, 9, 36, 116
2, 39839, Note_on_c, 9, 36, 0
2, 40320, Note_on_c, 9, 36, 116
2, 40799, Note_on_c, 9, 36, 0
2, 41280, Note_on_c, 9, 36, 116
2, 41759, Note_on_c, 9, 36, 0
2, 42240, Note_on_c, 9, 36, 116
2, 42719, Note_on_c, 9, 36, 0
2, 43200, Note_on_c, 9, 36, 116
2, 43679, Note_on_c, 9, 36, 0
2, 44160, Note_on_c, 9, 36, 116
2, 44639, Note_on_c, 9, 36, 0
2, 45120, Note_on_c, 9, 36, 116
2, 45599, Note_on_c, 9, 36, 0
2, 46080, Note_on_c, 9, 36, 116
2, 46559, Note_on_c, 9, 36, 0
2, 47040, Note_on_c, 9, 36, 116
2, 47519, Note_on_c, 9, 36, 0
2, 48000, Note_on_c, 9, 36, 116
2, 48479, Note_on_c, 9, 36, 0
2, 48720, Note_on_c, 9, 36, 116
2, 48959, Note_on_c, 9, 36, 0
2, 48960, Note_on_c, 9, 36, 116
2, 49199, Note_on_c, 9, 36, 0
2, 49200, Note_on_c, 9, 36, 116
2, 49439, Note_on_c, 9, 36, 0
2, 49680, Note_on_c, 9, 36, 116
2, 49919, Note_on_c, 9, 36, 0
2, 49920, Note_on_c, 9, 36, 116
2, 50399, Note_on_c, 9, 36, 0
2, 50880, Note_on_c, 9, 36, 116
2, 51359, Note_on_c, 9, 36, 0
2, 51840, Note_on_c, 9, 36, 116
2, 52319, Note_on_c, 9, 36, 0
2, 52800, Note_on_c, 9, 36, 116
2, 53279, Note_on_c, 9, 36, 0
2, 53760, Note_on_c, 9, 36, 116
2, 54239, Note_on_c, 9, 36, 0
2, 54720, Note_on_c, 9, 36, 116
2, 55199, Note_on_c, 9, 36, 0
2, 55680, Note_on_c, 9, 36, 116
2, 56159, Note_on_c, 9, 36, 0
2, 56640, Note_on_c, 9, 36, 116
2, 57119, Note_on_c, 9, 36, 0
2, 57600, Note_on_c, 9, 36, 116
2, 58079, Note_on_c, 9, 36, 0
2, 58560, Note_on_c, 9, 36, 116
2, 59039, Note_on_c, 9, 36, 0
2, 59520, Note_on_c, 9, 36, 116
2, 59999, Note_on_c, 9, 36, 0
2, 60480, Note_on_c, 9, 36, 116
2, 60959, Note_on_c, 9, 36, 0
2, 61440, Note_on_c, 9, 36, 116
2, 61919, Note_on_c, 9, 36, 0
2, 62400, Note_on_c, 9, 36, 116
2, 62879, Note_on_c, 9, 36, 0
2, 63360, Note_on_c, 9, 36, 116
2, 63839, Note_on_c, 9, 36, 0
2, 64080, Note_on_c, 9, 36, 116
2, 64319, Note_on_c, 9, 36, 0
2, 64320, Note_on_c, 9, 36, 116
2, 64559, Note_on_c, 9, 36, 0
2, 64560, Note_on_c, 9, 36, 116
2, 64799, Note_on_c, 9, 36, 0
2, 65040, Note_on_c, 9, 36, 116
2, 65279, Note_on_c, 9, 36, 0
2, 65280, Note_on_c, 9, 36, 116
2, 65759, Note_on_c, 9, 36, 0
2, 66240, Note_on_c, 9, 36, 116
2, 66719, Note_on_c, 9, 36, 0
2, 67200, Note_on_c, 9, 36, 116
2, 67679, Note_on_c, 9, 36, 0
2, 68160, Note_on_c, 9, 36, 116
2, 68639, Note_on_c, 9, 36, 0
2, 69120, Note_on_c, 9, 36, 116
2, 69599, Note_on_c, 9, 36, 0
2, 70080, Note_on_c, 9, 36, 116
2, 70559, Note_on_c, 9, 36, 0
2, 71040, Note_on_c, 9, 36, 116
2, 71519, Note_on_c, 9, 36, 0
2, 72000, Note_on_c, 9, 36, 116
2, 72479, Note_on_c, 9, 36, 0
2, 72960, Note_on_c, 9, 36, 116
2, 73439, Note_on_c, 9, 36, 0
2, 73920, Note_on_c, 9, 36, 116
2, 74399, Note_on_c, 9, 36, 0
2, 74880, Note_on_c, 9, 36, 116
2, 75359, Note_on_c, 9, 36, 0
2, 75840, Note_on_c, 9, 36, 116
2, 76319, Note_on_c, 9, 36, 0
2, 76800, Note_on_c, 9, 36, 116
2, 77279, Note_on_c, 9, 36, 0
2, 77760, Note_on_c, 9, 36, 116
2, 78239, Note_on_c, 9, 36, 0
2, 78720, Note_on_c, 9, 36, 116
2, 79199, Note_on_c, 9, 36, 0
2, 79440, Note_on_c, 9, 36, 116
2, 79679, Note_on_c, 9, 36, 0
2, 79680, Note_on_c, 9, 36, 116
2, 79919, Note_on_c, 9, 36, 0
2, 79920, Note_on_c, 9, 36, 116
2, 80159, Note_on_c, 9, 36, 0
2, 80400, Note_on_c, 9, 36, 116
2, 80639, Note_on_c, 9, 36, 0
2, 80640, Note_on_c, 9, 36, 116
2, 81119, Note_on_c, 9, 36, 0
2, 81600, Note_on_c, 9, 36, 116
2, 82079, Note_on_c, 9, 36, 0
2, 82560, Note_on_c, 9, 36, 116
2, 83039, Note_on_c, 9, 36, 0
2, 83520, Note_on_c, 9, 36, 116
2, 83999, Note_on_c, 9, 36, 0
2, 84480, Note_on_c, 9, 36, 116
2, 84959, Note_on_c, 9, 36, 0
2, 85440, Note_on_c, 9, 36, 116
2, 85919, Note_on_c, 9, 36, 0
2, 86400, Note_on_c, 9, 36, 116
2, 86879, Note_on_c, 9, 36, 0
2, 87360, Note_on_c, 9, 36, 116
2, 87839, Note_on_c, 9, 36, 0
2, 88320, Note_on_c, 9, 36, 116
2, 88799, Note_on_c, 9, 36, 0
2, 89280, Note_on_c, 9, 36, 116
2, 89759, Note_on_c, 9, 36, 0
2, 90240, Note_on_c, 9, 36, 116
2, 90719, Note_on_c, 9, 36, 0
2, 91200, Note_on_c, 9, 36, 116
2, 91679, Note_on_c, 9, 36, 0
2, 92160, Note_on_c, 9, 36, 116
2, 92639, Note_on_c, 9, 36, 0
2, 93120, Note_on_c, 9, 36, 116
2, 93599, Note_on_c, 9, 36, 0
2, 94080, Note_on_c, 9, 36, 116
2, 94559, Note_on_c, 9, 36, 0
2, 94800, Note_on_c, 9, 36, 116
2, 95039, Note_on_c, 9, 36, 0
2, 95040, Note_on_c, 9, 36, 116
2, 95279, Note_on_c, 9, 36, 0
2, 95280, Note_on_c, 9, 36, 116
2, 95519, Note_on_c, 9, 36, 0
2, 95760, Note_on_c, 9, 36, 116
2, 95999, Note_on_c, 9, 36, 0
2, 96000, Note_on_c, 9, 36, 116
2, 96479, Note_on_c, 9, 36, 0
2, 96960, Note_on_c, 9, 36, 116
2, 97439, Note_on_c, 9, 36, 0
2, 97920, Note_on_c, 9, 36, 116
2, 98399, Note_on_c, 9, 36, 0
2, 98880, Note_on_c, 9, 36, 116
2, 99359, Note_on_c, 9, 36, 0
2, 99840, Note_on_c, 9, 36, 116
2, 100319, Note_on_c, 9, 36, 0
2, 100800, Note_on_c, 9, 36, 116
2, 101279, Note_on_c, 9, 36, 0
2, 101760, Note_on_c, 9, 36, 116
2, 102239, Note_on_c, 9, 36, 0
2, 102720, Note_on_c, 9, 36, 116
2, 103199, Note_on_c, 9, 36, 0
2, 103680, Note_on_c, 9, 36, 116
2, 104159, Note_on_c, 9, 36, 0
2, 104640, Note_on_c, 9, 36, 116
2, 105119, Note_on_c, 9, 36, 0
2, 105600, Note_on_c, 9, 36, 116
2, 106079, Note_on_c, 9, 36, 0
2, 106560, Note_on_c, 9, 36, 116
2, 107039, Note_on_c, 9, 36, 0
2, 107520, Note_on_c, 9, 36, 116
2, 107999, Note_on_c, 9, 36, 0
2, 108480, Note_on_c, 9, 36, 116
2, 108959, Note_on_c, 9, 36, 0
2, 109440, Note_on_c, 9, 36, 116
2, 109919, Note_on_c, 9, 36, 0
2, 110160, Note_on_c, 9, 36, 116
2, 110399, Note_on_c, 9, 36, 0
2, 110400, Note_on_c, 9, 36, 116
2, 110639, Note_on_c, 9, 36, 0
2, 110640, Note_on_c, 9, 36, 116
2, 110879, Note_on_c, 9, 36, 0
2, 111120, Note_on_c, 9, 36, 116
2, 111359, Note_on_c, 9, 36, 0
2, 111360, Note_on_c, 9, 36, 116
2, 111839, Note_on_c, 9, 36, 0
2, 112320, Note_on_c, 9, 36, 116
2, 112799, Note_on_c, 9, 36, 0
2, 113280, Note_on_c, 9, 36, 116
2, 113759, Note_on_c, 9, 36, 0
2, 114240, Note_on_c, 9, 36, 116
2, 114719, Note_on_c, 9, 36, 0
2, 115200, Note_on_c, 9, 36, 116
2, 115679, Note_on_c, 9, 36, 0
2, 116160, Note_on_c, 9, 36, 116
2, 116639, Note_on_c, 9, 36, 0
2, 117120, Note_on_c, 9, 36, 116
2, 117599, Note_on_c, 9, 36, 0
2, 118080, Note_on_c, 9, 36, 116
2, 118559, Note_on_c, 9, 36, 0
2, 119040, Note_on_c, 9, 36, 116
2, 119519, Note_on_c, 9, 36, 0
2, 120000, Note_on_c, 9, 36, 116
2, 120479, Note_on_c, 9, 36, 0
2, 120960, Note_on_c, 9, 36, 116
2, 121439, Note_on_c, 9, 36, 0
2, 121920, Note_on_c, 9, 36, 116
2, 122399, Note_on_c, 9, 36, 0
2, 122880, Note_on_c, 9, 36, 116
2, 123359, Note_on_c, 9, 36, 0
2, 123840, Note_on_c, 9, 36, 116
2, 124319, Note_on_c, 9, 36, 0
2, 124800, Note_on_c, 9, 36, 116
2, 125279, Note_on_c, 9, 36, 0
2, 125520, Note_on_c, 9, 36, 116
2, 125759, Note_on_c, 9, 36, 0
2, 125760, Note_on_c, 9, 36, 116
2, 125999, Note_on_c, 9, 36, 0
2, 126000, Note_on_c, 9, 36, 116
2, 126239, Note_on_c, 9, 36, 0
2, 126480, Note_on_c, 9, 36, 116
2, 126719, Note_on_c, 9, 36, 0
2, 126720, Note_on_c, 9, 36, 116
2, 127199, Note_on_c, 9, 36, 0
2, 127680, Note_on_c, 9, 36, 116
2, 128159, Note_on_c, 9, 36, 0
2, 128640, Note_on_c, 9, 36, 116
2, 129119, Note_on_c, 9, 36, 0
2, 129600, Note_on_c, 9, 36, 116
2, 130079, Note_on_c, 9, 36, 0
2, 130560, Note_on_c, 9, 36, 116
2, 131039, Note_on_c, 9, 36, 0
2, 131520, Note_on_c, 9, 36, 116
2, 131999, Note_on_c, 9, 36, 0
2, 132480, Note_on_c, 9, 36, 116
2, 132959, Note_on_c, 9, 36, 0
2, 133440, Note_on_c, 9, 36, 116
2, 133919, Note_on_c, 9, 36, 0
2, 134400, Note_on_c, 9, 36, 116
2, 134879, Note_on_c, 9, 36, 0
2, 135360, Note_on_c, 9, 36, 116
2, 135839, Note_on_c, 9, 36, 0
2, 136320, Note_on_c, 9, 36, 116
2, 136799, Note_on_c, 9, 36, 0
2, 137280, Note_on_c, 9, 36, 116
2, 137759, Note_on_c, 9, 36, 0
2, 138240, Note_on_c, 9, 36, 116
2, 138719, Note_on_c, 9, 36, 0
2, 139200, Note_on_c, 9, 36, 116
2, 139679, Note_on_c, 9, 36, 0
2, 140160, Note_on_c, 9, 36, 116
2, 140639, Note_on_c, 9, 36, 0
2, 140880, Note_on_c, 9, 36, 116
2, 141119, Note_on_c, 9, 36, 0
2, 141120, Note_on_c, 9, 36, 116
2, 141359, Note_on_c, 9, 36, 0
2, 141360, Note_on_c, 9, 36, 116
2, 141599, Note_on_c, 9, 36, 0
2, 141840, Note_on_c, 9, 36, 116
2, 142079, Note_on_c, 9, 36, 0
2, 142080, Note_on_c, 9, 36, 116
2, 142559, Note_on_c, 9, 36, 0
2, 143040, Note_on_c, 9, 36, 116
2, 143519, Note_on_c, 9, 36, 0
2, 144000, Note_on_c, 9, 36, 116
2, 144479, Note_on_c, 9, 36, 0
2, 144960, Note_on_c, 9, 36, 116
2, 145439, Note_on_c, 9, 36, 0
2, 145920, Note_on_c, 9, 36, 116
2, 146399, Note_on_c, 9, 36, 0
2, 146880, Note_on_c, 9, 36, 116
2, 147359, Note_on_c, 9, 36, 0
2, 147840, Note_on_c, 9, 36, 116
2, 148319, Note_on_c, 9, 36, 0
2, 148800, Note_on_c, 9, 36, 116
2, 149279, Note_on_c, 9, 36, 0
2, 149760, Note_on_c, 9, 36, 116
2, 150239, Note_on_c, 9, 36, 0
2, 150720, Note_on_c, 9, 36, 116
2, 151199, Note_on_c, 9, 36, 0
2, 151680, Note_on_c, 9, 36, 116
2, 152159, Note_on_c, 9, 36, 0
2, 152640, Note_on_c, 9, 36, 116
2, 153119, Note_on_c, 9, 36, 0
2, 153600, Note_on_c, 9, 36, 116
2, 154079, Note_on_c, 9, 36, 0
2, 154560, Note_on_c, 9, 36, 116
2, 155039, Note_on_c, 9, 36, 0
2, 155520, Note_on_c, 9, 36, 116
2, 155999, Note_on_c, 9, 36, 0
2, 156240, Note_on_c, 9, 36, 116
2, 156479, Note_on_c, 9, 36, 0
2, 156480, Note_on_c, 9, 36, 116
2, 156719, Note_on_c, 9, 36, 0
2, 156720, Note_on_c, 9, 36, 116
2, 156959, Note_on_c, 9, 36, 0
2, 157200, Note_on_c, 9, 36, 116
2, 157439, Note_on_c, 9, 36, 0
2, 157440, Note_on_c, 9, 36, 116
2, 157919, Note_on_c, 9, 36, 0
2, 158400, Note_on_c, 9, 36, 116
2, 158879, Note_on_c, 9, 36, 0
2, 159360, Note_on_c, 9, 36, 116
2, 159839, Note_on_c, 9, 36, 0
2, 160320, Note_on_c, 9, 36, 116
2, 160799, Note_on_c, 9, 36, 0
2, 161280, Note_on_c, 9, 36, 116
2, 161759, Note_on_c, 9, 36, 0
2, 162240, Note_on_c, 9, 36, 116
2, 162719, Note_on_c, 9, 36, 0
2, 163200, Note_on_c, 9, 36, 116
2, 163679, Note_on_c, 9, 36, 0
2, 164160, Note_on_c, 9, 36, 116
2, 164639, Note_on_c, 9, 36, 0
2, 165120, Note_on_c, 9, 36, 116
2, 165599, Note_on_c, 9, 36, 0
2, 166080, Note_on_c, 9, 36, 116
2, 166559, Note_on_c, 9, 36, 0
2, 167040, Note_on_c, 9, 36, 116
2, 167519, Note_on_c, 9, 36, 0
2, 168000, Note_on_c, 9, 36, 116
2, 168479, Note_on_c, 9, 36, 0
2, 168960, Note_on_c, 9, 36, 116
2, 169439, Note_on_c, 9, 36, 0
2, 169920, Note_on_c, 9, 36, 116
2, 170399, Note_on_c, 9, 36, 0
2, 170880, Note_on_c, 9, 36, 116
2, 171359, Note_on_c, 9, 36, 0
2, 171600, Note_on_c, 9, 36, 116
2, 171839, Note_on_c, 9, 36, 0
2, 171840, Note_on_c, 9, 36, 116
2, 172079, Note_on_c, 9, 36, 0
2, 172080, Note_on_c, 9, 36, 116
2, 172319, Note_on_c, 9, 36, 0
2, 172560, Note_on_c, 9, 36, 116
2, 172799, Note_on_c, 9, 36, 0
2, 172800, Note_on_c, 9, 36, 116
2, 173279, Note_on_c, 9, 36, 0
2, 173760, Note_on_c, 9, 36, 116
2, 174239, Note_on_c, 9, 36, 0
2, 174720, Note_on_c, 9, 36, 116
2, 175199, Note_on_c, 9, 36, 0
2, 175680, Note_on_c, 9, 36, 116
2, 176159, Note_on_c, 9, 36, 0
2, 176640, Note_on_c, 9, 36, 116
2, 177119, Note_on_c, 9, 36, 0
2, 177600, Note_on_c, 9, 36, 116
2, 178079, Note_on_c, 9, 36, 0
2, 178560, Note_on_c, 9, 36, 116
2, 179039, Note_on_c, 9, 36, 0
2, 179520, Note_on_c, 9, 36, 116
2, 179999, Note_on_c, 9, 36, 0
2, 180480, Note_on_c, 9, 36, 116
2, 180959, Note_on_c, 9, 36, 0
2, 181440, Note_on_c, 9, 36, 116
2, 181919, Note_on_c, 9, 36, 0
2, 182400, Note_on_c, 9, 36, 116
2, 182879, Note_on_c, 9, 36, 0
2, 183360, Note_on_c, 9, 36, 116
2, 183839, Note_on_c, 9, 36, 0
2, 185280, Note_on_c, 9, 36, 116
2, 185759, Note_on_c, 9, 36, 0
2, 186240, Note_on_c, 9, 36, 116
2, 186719, Note_on_c, 9, 36, 0
2, 186960, Note_on_c, 9, 36, 116
2, 187199, Note_on_c, 9, 36, 0
2, 187200, Note_on_c, 9, 36, 116
2, 187439, Note_on_c, 9, 36, 0
2, 187440, Note_on_c, 9, 36, 116
2, 187679, Note_on_c, 9, 36, 0
2, 187920, Note_on_c, 9, 36, 116
2, 188159, Note_on_c, 9, 36, 0
2, 188160, Note_on_c, 9, 36, 116
2, 188639, Note_on_c, 9, 36, 0
2, 189120, Note_on_c, 9, 36, 116
2, 189599, Note_on_c, 9, 36, 0
2, 190080, Note_on_c, 9, 36, 116
2, 190559, Note_on_c, 9, 36, 0
2, 191040, Note_on_c, 9, 36, 116
2, 191519, Note_on_c, 9, 36, 0
2, 192000, Note_on_c, 9, 36, 116
2, 192479, Note_on_c, 9, 36, 0
2, 192960, Note_on_c, 9, 36, 116
2, 193439, Note_on_c, 9, 36, 0
2, 193920, Note_on_c, 9, 36, 116
2, 194399, Note_on_c, 9, 36, 0
2, 194880, Note_on_c, 9, 36, 116
2, 195359, Note_on_c, 9, 36, 0
2, 195840, Note_on_c, 9, 36, 116
2, 196319, Note_on_c, 9, 36, 0
2, 196800, Note_on_c, 9, 36, 116
2, 197279, Note_on_c, 9, 36, 0
2, 197760, Note_on_c, 9, 36, 116
2, 198239, Note_on_c, 9, 36, 0
2, 198720, Note_on_c, 9, 36, 116
2, 199199, Note_on_c, 9, 36, 0
2, 199680, Note_on_c, 9, 36, 116
2, 200159, Note_on_c, 9, 36, 0
2, 200640, Note_on_c, 9, 36, 116
2, 201119, Note_on_c, 9, 36, 0
2, 201600, Note_on_c, 9, 36, 116
2, 202079, Note_on_c, 9, 36, 0
2, 202320, Note_on_c, 9, 36, 116
2, 202559, Note_on_c, 9, 36, 0
2, 202560, Note_on_c, 9, 36, 116
2, 202799, Note_on_c, 9, 36, 0
2, 202800, Note_on_c, 9, 36, 116
2, 203039, Note_on_c, 9, 36, 0
2, 203280, Note_on_c, 9, 36, 116
2, 203519, Note_on_c, 9, 36, 0
2, 203520, Note_on_c, 9, 36, 116
2, 203999, Note_on_c, 9, 36, 0
2, 204480, Note_on_c, 9, 36, 116
2, 204959, Note_on_c, 9, 36, 0
2, 205440, Note_on_c, 9, 36, 116
2, 205919, Note_on_c, 9, 36, 0
2, 206400, Note_on_c, 9, 36, 116
2, 206879, Note_on_c, 9, 36, 0
2, 207360, Note_on_c, 9, 36, 116
2, 207839, Note_on_c, 9, 36, 0
2, 208320, Note_on_c, 9, 36, 116
2, 208799, Note_on_c, 9, 36, 0
2, 209280, Note_on_c, 9, 36, 116
2, 209759, Note_on_c, 9, 36, 0
2, 210240, Note_on_c, 9, 36, 116
2, 210719, Note_on_c, 9, 36, 0
2, 211200, Note_on_c, 9, 36, 116
2, 211679, Note_on_c, 9, 36, 0
2, 212160, Note_on_c, 9, 36, 116
2, 212639, Note_on_c, 9, 36, 0
2, 213120, Note_on_c, 9, 36, 116
2, 213599, Note_on_c, 9, 36, 0
2, 214080, Note_on_c, 9, 36, 116
2, 214559, Note_on_c, 9, 36, 0
2, 215040, Note_on_c, 9, 36, 116
2, 215519, Note_on_c, 9, 36, 0
2, 216000, Note_on_c, 9, 36, 116
2, 216479, Note_on_c, 9, 36, 0
2, 216960, Note_on_c, 9, 36, 116
2, 217439, Note_on_c, 9, 36, 0
2, 217680, Note_on_c, 9, 36, 116
2, 217919, Note_on_c, 9, 36, 0
2, 217920, Note_on_c, 9, 36, 116
2, 218159, Note_on_c, 9, 36, 0
2, 218160, Note_on_c, 9, 36, 116
2, 218399, Note_on_c, 9, 36, 0
2, 218640, Note_on_c, 9, 36, 116
2, 218879, Note_on_c, 9, 36, 0
2, 218880, Note_on_c, 9, 36, 116
2, 219359, Note_on_c, 9, 36, 0
2, 219840, Note_on_c, 9, 36, 116
2, 220319, Note_on_c, 9, 36, 0
2, 220800, Note_on_c, 9, 36, 116
2, 221279, Note_on_c, 9, 36, 0
2, 221760, Note_on_c, 9, 36, 116
2, 222239, Note_on_c, 9, 36, 0
2, 222720, Note_on_c, 9, 36, 116
2, 223199, Note_on_c, 9, 36, 0
2, 223680, Note_on_c, 9, 36, 116
2, 224159, Note_on_c, 9, 36, 0
2, 224640, Note_on_c, 9, 36, 116
2, 225119, Note_on_c, 9, 36, 0
2, 225600, Note_on_c, 9, 36, 116
2, 226079, Note_on_c, 9, 36, 0
2, 226560, Note_on_c, 9, 36, 116
2, 227039, Note_on_c, 9, 36, 0
2, 227520, Note_on_c, 9, 36, 116
2, 227999, Note_on_c, 9, 36, 0
2, 228480, Note_on_c, 9, 36, 116
2, 228959, Note_on_c, 9, 36, 0
2, 229440, Note_on_c, 9, 36, 116
2, 229919, Note_on_c, 9, 36, 0
2, 230400, Note_on_c, 9, 36, 116
2, 230879, Note_on_c, 9, 36, 0
2, 231360, Note_on_c, 9, 36, 116
2, 231839, Note_on_c, 9, 36, 0
2, 232320, Note_on_c, 9, 36, 116
2, 232799, Note_on_c, 9, 36, 0
2, 233040, Note_on_c, 9, 36, 116
2, 233279, Note_on_c, 9, 36, 0
2, 233280, Note_on_c, 9, 36, 116
2, 233519, Note_on_c, 9, 36, 0
2, 233520, Note_on_c, 9, 36, 116
2, 233759, Note_on_c, 9, 36, 0
2, 234000, Note_on_c, 9, 36, 116
2, 234239, Note_on_c, 9, 36, 0
2, 234240, Note_on_c, 9, 36, 116
2, 234719, Note_on_c, 9, 36, 0
2, 235200, Note_on_c, 9, 36, 116
2, 235679, Note_on_c, 9, 36, 0
2, 236160, Note_on_c, 9, 36, 116
2, 236639, Note_on_c, 9, 36, 0
2, 237120, Note_on_c, 9, 36, 116
2, 237599, Note_on_c, 9, 36, 0
2, 238080, Note_on_c, 9, 36, 116
2, 238559, Note_on_c, 9, 36, 0
2, 239040, Note_on_c, 9, 36, 116
2, 239519, Note_on_c, 9, 36, 0
2, 240000, Note_on_c, 9, 36, 116
2, 240479, Note_on_c, 9, 36, 0
2, 240960, Note_on_c, 9, 36, 116
2, 241439, Note_on_c, 9, 36, 0
2, 241920, Note_on_c, 9, 36, 116
2, 242399, Note_on_c, 9, 36, 0
2, 242880, Note_on_c, 9, 36, 116
2, 243359, Note_on_c, 9, 36, 0
2, 243840, Note_on_c, 9, 36, 116
2, 244319, Note_on_c, 9, 36, 0
2, 244800, Note_on_c, 9, 36, 116
2, 245279, Note_on_c, 9, 36, 0
2, 245760, Note_on_c, 9, 36, 116
2, 246239, Note_on_c, 9, 36, 0
2, 246720, Note_on_c, 9, 36, 116
2, 247199, Note_on_c, 9, 36, 0
2, 247680, Note_on_c, 9, 36, 116
2, 248159, Note_on_c, 9, 36, 0
2, 248400, Note_on_c, 9, 36, 116
2, 248639, Note_on_c, 9, 36, 0
2, 248640, Note_on_c, 9, 36, 116
2, 248879, Note_on_c, 9, 36, 0
2, 248880, Note_on_c, 9, 36, 116
2, 249119, Note_on_c, 9, 36, 0
2, 249360, Note_on_c, 9, 36, 116
2, 249599, Note_on_c, 9, 36, 0
2, 249600, Note_on_c, 9, 36, 116
2, 250079, Note_on_c, 9, 36, 0
2, 250560, Note_on_c, 9, 36, 116
2, 251039, Note_on_c, 9, 36, 0
2, 251520, Note_on_c, 9, 36, 116
2, 251999, Note_on_c, 9, 36, 0
2, 252480, Note_on_c, 9, 36, 116
2, 252959, Note_on_c, 9, 36, 0
2, 253440, Note_on_c, 9, 36, 116
2, 253919, Note_on_c, 9, 36, 0
2, 254400, Note_on_c, 9, 36, 116
2, 254879, Note_on_c, 9, 36, 0
2, 255360, Note_on_c, 9, 36, 116
2, 255839, Note_on_c, 9, 36, 0
2, 256320, Note_on_c, 9, 36, 116
2, 256799, Note_on_c, 9, 36, 0
2, 257280, Note_on_c, 9, 36, 116
2, 257759, Note_on_c, 9, 36, 0
2, 258240, Note_on_c, 9, 36, 116
2, 258719, Note_on_c, 9, 36, 0
2, 259200, Note_on_c, 9, 36, 116
2, 259679, Note_on_c, 9, 36, 0
2, 260160, Note_on_c, 9, 36, 116
2, 260639, Note_on_c, 9, 36, 0
2, 261120, Note_on_c, 9, 36, 116
2, 261599, Note_on_c, 9, 36, 0
2, 262080, Note_on_c, 9, 36, 116
2, 262559, Note_on_c, 9, 36, 0
2, 263040, Note_on_c, 9, 36, 116
2, 263519, Note_on_c, 9, 36, 0
2, 263760, Note_on_c, 9, 36, 116
2, 263999, Note_on_c, 9, 36, 0
2, 264000, Note_on_c, 9, 36, 116
2, 264239, Note_on_c, 9, 36, 0
2, 264240, Note_on_c, 9, 36, 116
2, 264479, Note_on_c, 9, 36, 0
2, 264720, Note_on_c, 9, 36, 116
2, 264959, Note_on_c, 9, 36, 0
2, 264960, Note_on_c, 9, 36, 116
2, 265199, Note_on_c, 9, 36, 0
2, 265200, Note_on_c, 9, 36, 116
2, 265439, Note_on_c, 9, 36, 0
2, 265680, Note_on_c, 9, 36, 116
2, 265919, Note_on_c, 9, 36, 0
2, 266160, Note_on_c, 9, 36, 116
2, 266399, Note_on_c, 9, 36, 0
2, 266640, Note_on_c, 9, 36, 116
2, 266879, Note_on_c, 9, 36, 0
2, 266880, Note_on_c, 9, 36, 116
2, 267359, Note_on_c, 9, 36, 0
2, 267360, End_track
3, 0, Start_track
3, 0, Key_signature, 0, "major"
3, 0, Control_c, 9, 121, 0
3, 0, Program_c, 9, 0
3, 0, Control_c, 9, 7, 100
3, 0, Control_c, 9, 10, 64
3, 0, Control_c, 9, 91, 0
3, 0, Control_c, 9, 93, 0
3, 0, MIDI_port, 0
3, 2400, Note_on_c, 9, 38, 116
3, 2879, Note_on_c, 9, 38, 0
3, 2880, Note_on_c, 9, 38, 116
3, 3359, Note_on_c, 9, 38, 0
3, 3360, Note_on_c, 9, 38, 116
3, 3839, Note_on_c, 9, 38, 0
3, 4320, Note_on_c, 9, 38, 116
3, 4799, Note_on_c, 9, 38, 0
3, 5280, Note_on_c, 9, 38, 116
3, 5759, Note_on_c, 9, 38, 0
3, 6240, Note_on_c, 9, 38, 116
3, 6719, Note_on_c, 9, 38, 0
3, 7200, Note_on_c, 9, 38, 116
3, 7679, Note_on_c, 9, 38, 0
3, 8160, Note_on_c, 9, 38, 116
3, 8639, Note_on_c, 9, 38, 0
3, 9120, Note_on_c, 9, 38, 116
3, 9599, Note_on_c, 9, 38, 0
3, 10080, Note_on_c, 9, 38, 116
3, 10559, Note_on_c, 9, 38, 0
3, 11040, Note_on_c, 9, 38, 116
3, 11519, Note_on_c, 9, 38, 0
3, 12000, Note_on_c, 9, 38, 116
3, 12479, Note_on_c, 9, 38, 0
3, 12960, Note_on_c, 9, 38, 116
3, 13439, Note_on_c, 9, 38, 0
3, 13920, Note_on_c, 9, 38, 116
3, 14399, Note_on_c, 9, 38, 0
3, 14880, Note_on_c, 9, 38, 116
3, 15359, Note_on_c, 9, 38, 0
3, 15840, Note_on_c, 9, 38, 116
3, 16319, Note_on_c, 9, 38, 0
3, 16800, Note_on_c, 9, 38, 116
3, 17279, Note_on_c, 9, 38, 0
3, 17760, Note_on_c, 9, 38, 116
3, 18239, Note_on_c, 9, 38, 0
3, 18240, Note_on_c, 9, 38, 116
3, 18719, Note_on_c, 9, 38, 0
3, 18720, Note_on_c, 9, 38, 116
3, 19199, Note_on_c, 9, 38, 0
3, 19680, Note_on_c, 9, 38, 116
3, 20159, Note_on_c, 9, 38, 0
3, 20640, Note_on_c, 9, 38, 116
3, 21119, Note_on_c, 9, 38, 0
3, 21600, Note_on_c, 9, 38, 116
3, 22079, Note_on_c, 9, 38, 0
3, 22560, Note_on_c, 9, 38, 116
3, 23039, Note_on_c, 9, 38, 0
3, 23520, Note_on_c, 9, 38, 116
3, 23999, Note_on_c, 9, 38, 0
3, 24480, Note_on_c, 9, 38, 116
3, 24959, Note_on_c, 9, 38, 0
3, 25440, Note_on_c, 9, 38, 116
3, 25919, Note_on_c, 9, 38, 0
3, 26400, Note_on_c, 9, 38, 116
3, 26879, Note_on_c, 9, 38, 0
3, 27360, Note_on_c, 9, 38, 116
3, 27839, Note_on_c, 9, 38, 0
3, 28320, Note_on_c, 9, 38, 116
3, 28799, Note_on_c, 9, 38, 0
3, 29280, Note_on_c, 9, 38, 116
3, 29759, Note_on_c, 9, 38, 0
3, 30240, Note_on_c, 9, 38, 116
3, 30719, Note_on_c, 9, 38, 0
3, 31200, Note_on_c, 9, 38, 116
3, 31679, Note_on_c, 9, 38, 0
3, 32160, Note_on_c, 9, 38, 116
3, 32639, Note_on_c, 9, 38, 0
3, 35040, Note_on_c, 9, 38, 116
3, 35519, Note_on_c, 9, 38, 0
3, 36000, Note_on_c, 9, 38, 116
3, 36479, Note_on_c, 9, 38, 0
3, 36960, Note_on_c, 9, 38, 116
3, 37439, Note_on_c, 9, 38, 0
3, 37920, Note_on_c, 9, 38, 116
3, 38399, Note_on_c, 9, 38, 0
3, 38880, Note_on_c, 9, 38, 116
3, 39359, Note_on_c, 9, 38, 0
3, 39840, Note_on_c, 9, 38, 116
3, 40319, Note_on_c, 9, 38, 0
3, 40800, Note_on_c, 9, 38, 116
3, 41279, Note_on_c, 9, 38, 0
3, 41760, Note_on_c, 9, 38, 116
3, 42239, Note_on_c, 9, 38, 0
3, 42720, Note_on_c, 9, 38, 116
3, 43199, Note_on_c, 9, 38, 0
3, 43680, Note_on_c, 9, 38, 116
3, 44159, Note_on_c, 9, 38, 0
3, 44640, Note_on_c, 9, 38, 116
3, 45119, Note_on_c, 9, 38, 0
3, 45600, Note_on_c, 9, 38, 116
3, 46079, Note_on_c, 9, 38, 0
3, 46560, Note_on_c, 9, 38, 116
3, 47039, Note_on_c, 9, 38, 0
3, 47520, Note_on_c, 9, 38, 116
3, 47999, Note_on_c, 9, 38, 0
3, 48480, Note_on_c, 9, 38, 116
3, 48959, Note_on_c, 9, 38, 0
3, 48960, Note_on_c, 9, 38, 116
3, 49439, Note_on_c, 9, 38, 0
3, 49440, Note_on_c, 9, 38, 116
3, 49919, Note_on_c, 9, 38, 0
3, 50400, Note_on_c, 9, 38, 116
3, 50879, Note_on_c, 9, 38, 0
3, 51360, Note_on_c, 9, 38, 116
3, 51839, Note_on_c, 9, 38, 0
3, 52320, Note_on_c, 9, 38, 116
3, 52799, Note_on_c, 9, 38, 0
3, 53280, Note_on_c, 9, 38, 116
3, 53759, Note_on_c, 9, 38, 0
3, 54240, Note_on_c, 9, 38, 116
3, 54719, Note_on_c, 9, 38, 0
3, 55200, Note_on_c, 9, 38, 116
3, 55679, Note_on_c, 9, 38, 0
3, 56160, Note_on_c, 9, 38, 116
3, 56639, Note_on_c, 9, 38, 0
3, 57120, Note_on_c, 9, 38, 116
3, 57599, Note_on_c, 9, 38, 0
3, 58080, Note_on_c, 9, 38, 116
3, 58559, Note_on_c, 9, 38, 0
3, 59040, Note_on_c, 9, 38, 116
3, 59519, Note_on_c, 9, 38, 0
3, 60000, Note_on_c, 9, 38, 116
3, 60479, Note_on_c, 9, 38, 0
3, 60960, Note_on_c, 9, 38, 116
3, 61439, Note_on_c, 9, 38, 0
3, 61920, Note_on_c, 9, 38, 116
3, 62399, Note_on_c, 9, 38, 0
3, 62880, Note_on_c, 9, 38, 116
3, 63359, Note_on_c, 9, 38, 0
3, 63840, Note_on_c, 9, 38, 116
3, 64319, Note_on_c, 9, 38, 0
3, 64320, Note_on_c, 9, 38, 116
3, 64799, Note_on_c, 9, 38, 0
3, 64800, Note_on_c, 9, 38, 116
3, 65279, Note_on_c, 9, 38, 0
3, 65760, Note_on_c, 9, 38, 116
3, 66239, Note_on_c, 9, 38, 0
3, 66720, Note_on_c, 9, 38, 116
3, 67199, Note_on_c, 9, 38, 0
3, 67680, Note_on_c, 9, 38, 116
3, 68159, Note_on_c, 9, 38, 0
3, 68640, Note_on_c, 9, 38, 116
3, 69119, Note_on_c, 9, 38, 0
3, 69600, Note_on_c, 9, 38, 116
3, 70079, Note_on_c, 9, 38, 0
3, 70560, Note_on_c, 9, 38, 116
3, 71039, Note_on_c, 9, 38, 0
3, 71520, Note_on_c, 9, 38, 116
3, 71999, Note_on_c, 9, 38, 0
3, 72480, Note_on_c, 9, 38, 116
3, 72959, Note_on_c, 9, 38, 0
3, 73440, Note_on_c, 9, 38, 116
3, 73919, Note_on_c, 9, 38, 0
3, 74400, Note_on_c, 9, 38, 116
3, 74879, Note_on_c, 9, 38, 0
3, 75360, Note_on_c, 9, 38, 116
3, 75839, Note_on_c, 9, 38, 0
3, 76320, Note_on_c, 9, 38, 116
3, 76799, Note_on_c, 9, 38, 0
3, 77280, Note_on_c, 9, 38, 116
3, 77759, Note_on_c, 9, 38, 0
3, 78240, Note_on_c, 9, 38, 116
3, 78719, Note_on_c, 9, 38, 0
3, 79200, Note_on_c, 9, 38, 116
3, 79679, Note_on_c, 9, 38, 0
3, 79680, Note_on_c, 9, 38, 116
3, 80159, Note_on_c, 9, 38, 0
3, 80160, Note_on_c, 9, 38, 116
3, 80639, Note_on_c, 9, 38, 0
3, 81120, Note_on_c, 9, 38, 116
3, 81599, Note_on_c, 9, 38, 0
3, 82080, Note_on_c, 9, 38, 116
3, 82559, Note_on_c, 9, 38, 0
3, 83040, Note_on_c, 9, 38, 116
3, 83519, Note_on_c, 9, 38, 0
3, 84000, Note_on_c, 9, 38, 116
3, 84479, Note_on_c, 9, 38, 0
3, 84960, Note_on_c, 9, 38, 116
3, 85439, Note_on_c, 9, 38, 0
3, 85920, Note_on_c, 9, 38, 116
3, 86399, Note_on_c, 9, 38, 0
3, 86880, Note_on_c, 9, 38, 116
3, 87359, Note_on_c, 9, 38, 0
3, 87840, Note_on_c, 9, 38, 116
3, 88319, Note_on_c, 9, 38, 0
3, 88800, Note_on_c, 9, 38, 116
3, 89279, Note_on_c, 9, 38, 0
3, 89760, Note_on_c, 9, 38, 116
3, 90239, Note_on_c, 9, 38, 0
3, 90720, Note_on_c, 9, 38, 116
3, 91199, Note_on_c, 9, 38, 0
3, 91680, Note_on_c, 9, 38, 116
3, 92159, Note_on_c, 9, 38, 0
3, 92640, Note_on_c, 9, 38, 116
3, 93119, Note_on_c, 9, 38, 0
3, 93600, Note_on_c, 9, 38, 116
3, 94079, Note_on_c, 9, 38, 0
3, 94560, Note_on_c, 9, 38, 116
3, 95039, Note_on_c, 9, 38, 0
3, 95040, Note_on_c, 9, 38, 116
3, 95519, Note_on_c, 9, 38, 0
3, 95520, Note_on_c, 9, 38, 116
3, 95999, Note_on_c, 9, 38, 0
3, 96480, Note_on_c, 9, 38, 116
3, 96959, Note_on_c, 9, 38, 0
3, 97440, Note_on_c, 9, 38, 116
3, 97919, Note_on_c, 9, 38, 0
3, 98400, Note_on_c, 9, 38, 116
3, 98879, Note_on_c, 9, 38, 0
3, 99360, Note_on_c, 9, 38, 116
3, 99839, Note_on_c, 9, 38, 0
3, 100320, Note_on_c, 9, 38, 116
3, 100799, Note_on_c, 9, 38, 0
3, 101280, Note_on_c, 9, 38, 116
3, 101759, Note_on_c, 9, 38, 0
3, 102240, Note_on_c, 9, 38, 116
3, 102719, Note_on_c, 9, 38, 0
3, 103200, Note_on_c, 9, 38, 116
3, 103679, Note_on_c, 9, 38, 0
3, 104160, Note_on_c, 9, 38, 116
3, 104639, Note_on_c, 9, 38, 0
3, 105120, Note_on_c, 9, 38, 116
3, 105599, Note_on_c, 9, 38, 0
3, 106080, Note_on_c, 9, 38, 116
3, 106559, Note_on_c, 9, 38, 0
3, 107040, Note_on_c, 9, 38, 116
3, 107519, Note_on_c, 9, 38, 0
3, 108000, Note_on_c, 9, 38, 116
3, 108479, Note_on_c, 9, 38, 0
3, 108960, Note_on_c, 9, 38, 116
3, 109439, Note_on_c, 9, 38, 0
3, 109920, Note_on_c, 9, 38, 116
3, 110399, Note_on_c, 9, 38, 0
3, 110400, Note_on_c, 9, 38, 116
3, 110879, Note_on_c, 9, 38, 0
3, 110880, Note_on_c, 9, 38, 116
3, 111359, Note_on_c, 9, 38, 0
3, 111840, Note_on_c, 9, 38, 116
3, 112319, Note_on_c, 9, 38, 0
3, 112800, Note_on_c, 9, 38, 116
3, 113279, Note_on_c, 9, 38, 0
3, 113760, Note_on_c, 9, 38, 116
3, 114239, Note_on_c, 9, 38, 0
3, 114720, Note_on_c, 9, 38, 116
3, 115199, Note_on_c, 9, 38, 0
3, 115680, Note_on_c, 9, 38, 116
3, 116159, Note_on_c, 9, 38, 0
3, 116640, Note_on_c, 9, 38, 116
3, 117119, Note_on_c, 9, 38, 0
3, 117600, Note_on_c, 9, 38, 116
3, 118079, Note_on_c, 9, 38, 0
3, 118560, Note_on_c, 9, 38, 116
3, 119039, Note_on_c, 9, 38, 0
3, 119520, Note_on_c, 9, 38, 116
3, 119999, Note_on_c, 9, 38, 0
3, 120480, Note_on_c, 9, 38, 116
3, 120959, Note_on_c, 9, 38, 0
3, 121440, Note_on_c, 9, 38, 116
3, 121919, Note_on_c, 9, 38, 0
3, 122400, Note_on_c, 9, 38, 116
3, 122879, Note_on_c, 9, 38, 0
3, 123360, Note_on_c, 9, 38, 116
3, 123839, Note_on_c, 9, 38, 0
3, 124320, Note_on_c, 9, 38, 116
3, 124799, Note_on_c, 9, 38, 0
3, 125280, Note_on_c, 9, 38, 116
3, 125759, Note_on_c, 9, 38, 0
3, 125760, Note_on_c, 9, 38, 116
3, 126239, Note_on_c, 9, 38, 0
3, 126240, Note_on_c, 9, 38, 116
3, 126719, Note_on_c, 9, 38, 0
3, 127200, Note_on_c, 9, 38, 116
3, 127679, Note_on_c, 9, 38, 0
3, 128160, Note_on_c, 9, 38, 116
3, 128639, Note_on_c, 9, 38, 0
3, 129120, Note_on_c, 9, 38, 116
3, 129599, Note_on_c, 9, 38, 0
3, 130080, Note_on_c, 9, 38, 116
3, 130559, Note_on_c, 9, 38, 0
3, 131040, Note_on_c, 9, 38, 116
3, 131519, Note_on_c, 9, 38, 0
3, 132000, Note_on_c, 9, 38, 116
3, 132479, Note_on_c, 9, 38, 0
3, 132960, Note_on_c, 9, 38, 116
3, 133439, Note_on_c, 9, 38, 0
3, 133920, Note_on_c, 9, 38, 116
3, 134399, Note_on_c, 9, 38, 0
3, 134880, Note_on_c, 9, 38, 116
3, 135359, Note_on_c, 9, 38, 0
3, 135840, Note_on_c, 9, 38, 116
3, 136319, Note_on_c, 9, 38, 0
3, 136800, Note_on_c, 9, 38, 116
3, 137279, Note_on_c, 9, 38, 0
3, 137760, Note_on_c, 9, 38, 116
3, 138239, Note_on_c, 9, 38, 0
3, 138720, Note_on_c, 9, 38, 116
3, 139199, Note_on_c, 9, 38, 0
3, 139680, Note_on_c, 9, 38, 116
3, 140159, Note_on_c, 9, 38, 0
3, 140640, Note_on_c, 9, 38, 116
3, 141119, Note_on_c, 9, 38, 0
3, 141120, Note_on_c, 9, 38, 116
3, 141599, Note_on_c, 9, 38, 0
3, 141600, Note_on_c, 9, 38, 116
3, 142079, Note_on_c, 9, 38, 0
3, 142560, Note_on_c, 9, 38, 116
3, 143039, Note_on_c, 9, 38, 0
3, 143520, Note_on_c, 9, 38, 116
3, 143999, Note_on_c, 9, 38, 0
3, 144480, Note_on_c, 9, 38, 116
3, 144959, Note_on_c, 9, 38, 0
3, 145440, Note_on_c, 9, 38, 116
3, 145919, Note_on_c, 9, 38, 0
3, 146400, Note_on_c, 9, 38, 116
3, 146879, Note_on_c, 9, 38, 0
3, 147360, Note_on_c, 9, 38, 116
3, 147839, Note_on_c, 9, 38, 0
3, 148320, Note_on_c, 9, 38, 116
3, 148799, Note_on_c, 9, 38, 0
3, 149280, Note_on_c, 9, 38, 116
3, 149759, Note_on_c, 9, 38, 0
3, 150240, Note_on_c, 9, 38, 116
3, 150719, Note_on_c, 9, 38, 0
3, 151200, Note_on_c, 9, 38, 116
3, 151679, Note_on_c, 9, 38, 0
3, 152160, Note_on_c, 9, 38, 116
3, 152639, Note_on_c, 9, 38, 0
3, 153120, Note_on_c, 9, 38, 116
3, 153599, Note_on_c, 9, 38, 0
3, 154080, Note_on_c, 9, 38, 116
3, 154559, Note_on_c, 9, 38, 0
3, 155040, Note_on_c, 9, 38, 116
3, 155519, Note_on_c, 9, 38, 0
3, 156000, Note_on_c, 9, 38, 116
3, 156479, Note_on_c, 9, 38, 0
3, 156480, Note_on_c, 9, 38, 116
3, 156959, Note_on_c, 9, 38, 0
3, 156960, Note_on_c, 9, 38, 116
3, 157439, Note_on_c, 9, 38, 0
3, 157920, Note_on_c, 9, 38, 116
3, 158399, Note_on_c, 9, 38, 0
3, 158880, Note_on_c, 9, 38, 116
3, 159359, Note_on_c, 9, 38, 0
3, 159840, Note_on_c, 9, 38, 116
3, 160319, Note_on_c, 9, 38, 0
3, 160800, Note_on_c, 9, 38, 116
3, 161279, Note_on_c, 9, 38, 0
3, 161760, Note_on_c, 9, 38, 116
3, 162239, Note_on_c, 9, 38, 0
3, 162720, Note_on_c, 9, 38, 116
3, 163199, Note_on_c, 9, 38, 0
3, 163680, Note_on_c, 9, 38, 116
3, 164159, Note_on_c, 9, 38, 0
3, 164640, Note_on_c, 9, 38, 116
3, 165119, Note_on_c, 9, 38, 0
3, 165600, Note_on_c, 9, 38, 116
3, 166079, Note_on_c, 9, 38, 0
3, 166560, Note_on_c, 9, 38, 116
3, 167039, Note_on_c, 9, 38, 0
3, 167520, Note_on_c, 9, 38, 116
3, 167999, Note_on_c, 9, 38, 0
3, 168480, Note_on_c, 9, 38, 116
3, 168959, Note_on_c, 9, 38, 0
3, 169440, Note_on_c, 9, 38, 116
3, 169919, Note_on_c, 9, 38, 0
3, 170400, Note_on_c, 9, 38, 116
3, 170879, Note_on_c, 9, 38, 0
3, 171360, Note_on_c, 9, 38, 116
3, 171839, Note_on_c, 9, 38, 0
3, 171840, Note_on_c, 9, 38, 116
3, 172319, Note_on_c, 9, 38, 0
3, 172320, Note_on_c, 9, 38, 116
3, 172799, Note_on_c, 9, 38, 0
3, 173280, Note_on_c, 9, 38, 116
3, 173759, Note_on_c, 9, 38, 0
3, 174240, Note_on_c, 9, 38, 116
3, 174719, Note_on_c, 9, 38, 0
3, 175200, Note_on_c, 9, 38, 116
3, 175679, Note_on_c, 9, 38, 0
3, 176160, Note_on_c, 9, 38, 116
3, 176639, Note_on_c, 9, 38, 0
3, 177120, Note_on_c, 9, 38, 116
3, 177599, Note_on_c, 9, 38, 0
3, 178080, Note_on_c, 9, 38, 116
3, 178559, Note_on_c, 9, 38, 0
3, 179040, Note_on_c, 9, 38, 116
3, 179519, Note_on_c, 9, 38, 0
3, 180000, Note_on_c, 9, 38, 116
3, 180479, Note_on_c, 9, 38, 0
3, 180960, Note_on_c, 9, 38, 116
3, 181439, Note_on_c, 9, 38, 0
3, 181920, Note_on_c, 9, 38, 116
3, 182399, Note_on_c, 9, 38, 0
3, 182880, Note_on_c, 9, 38, 116
3, 183359, Note_on_c, 9, 38, 0
3, 183840, Note_on_c, 9, 38, 116
3, 184319, Note_on_c, 9, 38, 0
3, 184800, Note_on_c, 9, 38, 116
3, 185279, Note_on_c, 9, 38, 0
3, 185760, Note_on_c, 9, 38, 116
3, 186239, Note_on_c, 9, 38, 0
3, 186720, Note_on_c, 9, 38, 116
3, 187199, Note_on_c, 9, 38, 0
3, 187200, Note_on_c, 9, 38, 116
3, 187679, Note_on_c, 9, 38, 0
3, 187680, Note_on_c, 9, 38, 116
3, 188159, Note_on_c, 9, 38, 0
3, 202080, Note_on_c, 9, 38, 116
3, 202559, Note_on_c, 9, 38, 0
3, 202560, Note_on_c, 9, 38, 116
3, 203039, Note_on_c, 9, 38, 0
3, 203040, Note_on_c, 9, 38, 116
3, 203519, Note_on_c, 9, 38, 0
3, 204000, Note_on_c, 9, 38, 116
3, 204479, Note_on_c, 9, 38, 0
3, 204960, Note_on_c, 9, 38, 116
3, 205439, Note_on_c, 9, 38, 0
3, 205920, Note_on_c, 9, 38, 116
3, 206399, Note_on_c, 9, 38, 0
3, 206880, Note_on_c, 9, 38, 116
3, 207359, Note_on_c, 9, 38, 0
3, 207840, Note_on_c, 9, 38, 116
3, 208319, Note_on_c, 9, 38, 0
3, 208800, Note_on_c, 9, 38, 116
3, 209279, Note_on_c, 9, 38, 0
3, 209760, Note_on_c, 9, 38, 116
3, 210239, Note_on_c, 9, 38, 0
3, 210720, Note_on_c, 9, 38, 116
3, 211199, Note_on_c, 9, 38, 0
3, 211680, Note_on_c, 9, 38, 116
3, 212159, Note_on_c, 9, 38, 0
3, 212640, Note_on_c, 9, 38, 116
3, 213119, Note_on_c, 9, 38, 0
3, 213600, Note_on_c, 9, 38, 116
3, 214079, Note_on_c, 9, 38, 0
3, 214560, Note_on_c, 9, 38, 116
3, 215039, Note_on_c, 9, 38, 0
3, 215520, Note_on_c, 9, 38, 116
3, 215999, Note_on_c, 9, 38, 0
3, 216480, Note_on_c, 9, 38, 116
3, 216959, Note_on_c, 9, 38, 0
3, 217440, Note_on_c, 9, 38, 116
3, 217919, Note_on_c, 9, 38, 0
3, 217920, Note_on_c, 9, 38, 116
3, 218399, Note_on_c, 9, 38, 0
3, 218400, Note_on_c, 9, 38, 116
3, 218879, Note_on_c, 9, 38, 0
3, 219360, Note_on_c, 9, 38, 116
3, 219839, Note_on_c, 9, 38, 0
3, 220320, Note_on_c, 9, 38, 116
3, 220799, Note_on_c, 9, 38, 0
3, 221280, Note_on_c, 9, 38, 116
3, 221759, Note_on_c, 9, 38, 0
3, 222240, Note_on_c, 9, 38, 116
3, 222719, Note_on_c, 9, 38, 0
3, 223200, Note_on_c, 9, 38, 116
3, 223679, Note_on_c, 9, 38, 0
3, 224160, Note_on_c, 9, 38, 116
3, 224639, Note_on_c, 9, 38, 0
3, 225120, Note_on_c, 9, 38, 116
3, 225599, Note_on_c, 9, 38, 0
3, 226080, Note_on_c, 9, 38, 116
3, 226559, Note_on_c, 9, 38, 0
3, 227040, Note_on_c, 9, 38, 116
3, 227519, Note_on_c, 9, 38, 0
3, 228000, Note_on_c, 9, 38, 116
3, 228479, Note_on_c, 9, 38, 0
3, 228960, Note_on_c, 9, 38, 116
3, 229439, Note_on_c, 9, 38, 0
3, 229920, Note_on_c, 9, 38, 116
3, 230399, Note_on_c, 9, 38, 0
3, 230880, Note_on_c, 9, 38, 116
3, 231359, Note_on_c, 9, 38, 0
3, 231840, Note_on_c, 9, 38, 116
3, 232319, Note_on_c, 9, 38, 0
3, 232800, Note_on_c, 9, 38, 116
3, 233279, Note_on_c, 9, 38, 0
3, 233280, Note_on_c, 9, 38, 116
3, 233759, Note_on_c, 9, 38, 0
3, 233760, Note_on_c, 9, 38, 116
3, 234239, Note_on_c, 9, 38, 0
3, 234720, Note_on_c, 9, 38, 116
3, 235199, Note_on_c, 9, 38, 0
3, 235680, Note_on_c, 9, 38, 116
3, 236159, Note_on_c, 9, 38, 0
3, 236640, Note_on_c, 9, 38, 116
3, 237119, Note_on_c, 9, 38, 0
3, 237600, Note_on_c, 9, 38, 116
3, 238079, Note_on_c, 9, 38, 0
3, 238560, Note_on_c, 9, 38, 116
3, 239039, Note_on_c, 9, 38, 0
3, 239520, Note_on_c, 9, 38, 116
3, 239999, Note_on_c, 9, 38, 0
3, 240480, Note_on_c, 9, 38, 116
3, 240959, Note_on_c, 9, 38, 0
3, 241440, Note_on_c, 9, 38, 116
3, 241919, Note_on_c, 9, 38, 0
3, 242400, Note_on_c, 9, 38, 116
3, 242879, Note_on_c, 9, 38, 0
3, 243360, Note_on_c, 9, 38, 116
3, 243839, Note_on_c, 9, 38, 0
3, 244320, Note_on_c, 9, 38, 116
3, 244799, Note_on_c, 9, 38, 0
3, 245280, Note_on_c, 9, 38, 116
3, 245759, Note_on_c, 9, 38, 0
3, 246240, Note_on_c, 9, 38, 116
3, 246719, Note_on_c, 9, 38, 0
3, 247200, Note_on_c, 9, 38, 116
3, 247679, Note_on_c, 9, 38, 0
3, 248160, Note_on_c, 9, 38, 116
3, 248639, Note_on_c, 9, 38, 0
3, 248640, Note_on_c, 9, 38, 116
3, 249119, Note_on_c, 9, 38, 0
3, 249120, Note_on_c, 9, 38, 116
3, 249599, Note_on_c, 9, 38, 0
3, 250080, Note_on_c, 9, 38, 116
3, 250559, Note_on_c, 9, 38, 0
3, 251040, Note_on_c, 9, 38, 116
3, 251519, Note_on_c, 9, 38, 0
3, 252000, Note_on_c, 9, 38, 116
3, 252479, Note_on_c, 9, 38, 0
3, 252960, Note_on_c, 9, 38, 116
3, 253439, Note_on_c, 9, 38, 0
3, 253920, Note_on_c, 9, 38, 116
3, 254399, Note_on_c, 9, 38, 0
3, 254880, Note_on_c, 9, 38, 116
3, 255359, Note_on_c, 9, 38, 0
3, 255840, Note_on_c, 9, 38, 116
3, 256319, Note_on_c, 9, 38, 0
3, 256800, Note_on_c, 9, 38, 116
3, 257279, Note_on_c, 9, 38, 0
3, 257760, Note_on_c, 9, 38, 116
3, 258239, Note_on_c, 9, 38, 0
3, 258720, Note_on_c, 9, 38, 116
3, 259199, Note_on_c, 9, 38, 0
3, 259680, Note_on_c, 9, 38, 116
3, 260159, Note_on_c, 9, 38, 0
3, 260640, Note_on_c, 9, 38, 116
3, 261119, Note_on_c, 9, 38, 0
3, 261600, Note_on_c, 9, 38, 116
3, 262079, Note_on_c, 9, 38, 0
3, 262560, Note_on_c, 9, 38, 116
3, 263039, Note_on_c, 9, 38, 0
3, 263520, Note_on_c, 9, 38, 116
3, 263999, Note_on_c, 9, 38, 0
3, 264000, Note_on_c, 9, 38, 116
3, 264479, Note_on_c, 9, 38, 0
3, 264480, Note_on_c, 9, 38, 116
3, 264959, Note_on_c, 9, 38, 0
3, 264960, Note_on_c, 9, 38, 116
3, 265199, Note_on_c, 9, 38, 0
3, 265200, Note_on_c, 9, 38, 116
3, 265439, Note_on_c, 9, 38, 0
3, 266880, Note_on_c, 9, 38, 116
3, 267359, Note_on_c, 9, 38, 0
3, 267360, End_track
4, 0, Start_track
4, 0, Key_signature, 0, "major"
4, 0, Control_c, 9, 121, 0
4, 0, Program_c, 9, 0
4, 0, Control_c, 9, 7, 100
4, 0, Control_c, 9, 10, 64
4, 0, Control_c, 9, 91, 0
4, 0, Control_c, 9, 93, 0
4, 0, MIDI_port, 0
4, 4320, Note_on_c, 9, 39, 100
4, 4799, Note_on_c, 9, 39, 0
4, 5280, Note_on_c, 9, 39, 100
4, 5759, Note_on_c, 9, 39, 0
4, 6240, Note_on_c, 9, 39, 100
4, 6719, Note_on_c, 9, 39, 0
4, 7200, Note_on_c, 9, 39, 100
4, 7679, Note_on_c, 9, 39, 0
4, 8160, Note_on_c, 9, 39, 100
4, 8639, Note_on_c, 9, 39, 0
4, 9120, Note_on_c, 9, 39, 100
4, 9599, Note_on_c, 9, 39, 0
4, 10080, Note_on_c, 9, 39, 100
4, 10559, Note_on_c, 9, 39, 0
4, 11040, Note_on_c, 9, 39, 100
4, 11519, Note_on_c, 9, 39, 0
4, 12000, Note_on_c, 9, 39, 100
4, 12479, Note_on_c, 9, 39, 0
4, 12960, Note_on_c, 9, 39, 100
4, 13439, Note_on_c, 9, 39, 0
4, 13920, Note_on_c, 9, 39, 100
4, 14399, Note_on_c, 9, 39, 0
4, 14880, Note_on_c, 9, 39, 100
4, 15359, Note_on_c, 9, 39, 0
4, 15840, Note_on_c, 9, 39, 100
4, 16319, Note_on_c, 9, 39, 0
4, 16800, Note_on_c, 9, 39, 100
4, 17279, Note_on_c, 9, 39, 0
4, 17760, Note_on_c, 9, 39, 100
4, 18239, Note_on_c, 9, 39, 0
4, 18240, Note_on_c, 9, 39, 100
4, 18719, Note_on_c, 9, 39, 0
4, 18720, Note_on_c, 9, 39, 100
4, 19199, Note_on_c, 9, 39, 0
4, 19680, Note_on_c, 9, 39, 100
4, 20159, Note_on_c, 9, 39, 0
4, 20640, Note_on_c, 9, 39, 100
4, 21119, Note_on_c, 9, 39, 0
4, 21600, Note_on_c, 9, 39, 100
4, 22079, Note_on_c, 9, 39, 0
4, 22560, Note_on_c, 9, 39, 100
4, 23039, Note_on_c, 9, 39, 0
4, 23520, Note_on_c, 9, 39, 100
4, 23999, Note_on_c, 9, 39, 0
4, 24480, Note_on_c, 9, 39, 100
4, 24959, Note_on_c, 9, 39, 0
4, 25440, Note_on_c, 9, 39, 100
4, 25919, Note_on_c, 9, 39, 0
4, 26400, Note_on_c, 9, 39, 100
4, 26879, Note_on_c, 9, 39, 0
4, 27360, Note_on_c, 9, 39, 100
4, 27839, Note_on_c, 9, 39, 0
4, 28320, Note_on_c, 9, 39, 100
4, 28799, Note_on_c, 9, 39, 0
4, 29280, Note_on_c, 9, 39, 100
4, 29759, Note_on_c, 9, 39, 0
4, 30240, Note_on_c, 9, 39, 100
4, 30719, Note_on_c, 9, 39, 0
4, 31200, Note_on_c, 9, 39, 100
4, 31679, Note_on_c, 9, 39, 0
4, 32160, Note_on_c, 9, 39, 100
4, 32639, Note_on_c, 9, 39, 0
4, 33120, Note_on_c, 9, 39, 100
4, 33599, Note_on_c, 9, 39, 0
4, 33600, Note_on_c, 9, 39, 100
4, 34079, Note_on_c, 9, 39, 0
4, 34080, Note_on_c, 9, 39, 100
4, 34559, Note_on_c, 9, 39, 0
4, 35040, Note_on_c, 9, 39, 100
4, 35519, Note_on_c, 9, 39, 0
4, 36000, Note_on_c, 9, 39, 100
4, 36479, Note_on_c, 9, 39, 0
4, 36960, Note_on_c, 9, 39, 100
4, 37439, Note_on_c, 9, 39, 0
4, 37920, Note_on_c, 9, 39, 100
4, 38399, Note_on_c, 9, 39, 0
4, 38880, Note_on_c, 9, 39, 100
4, 39359, Note_on_c, 9, 39, 0
4, 39840, Note_on_c, 9, 39, 100
4, 40319, Note_on_c, 9, 39, 0
4, 40800, Note_on_c, 9, 39, 100
4, 41279, Note_on_c, 9, 39, 0
4, 41760, Note_on_c, 9, 39, 100
4, 42239, Note_on_c, 9, 39, 0
4, 42720, Note_on_c, 9, 39, 100
4, 43199, Note_on_c, 9, 39, 0
4, 43680, Note_on_c, 9, 39, 100
4, 44159, Note_on_c, 9, 39, 0
4, 44640, Note_on_c, 9, 39, 100
4, 45119, Note_on_c, 9, 39, 0
4, 45600, Note_on_c, 9, 39, 100
4, 46079, Note_on_c, 9, 39, 0
4, 46560, Note_on_c, 9, 39, 100
4, 47039, Note_on_c, 9, 39, 0
4, 47520, Note_on_c, 9, 39, 100
4, 47999, Note_on_c, 9, 39, 0
4, 48480, Note_on_c, 9, 39, 100
4, 48959, Note_on_c, 9, 39, 0
4, 48960, Note_on_c, 9, 39, 100
4, 49439, Note_on_c, 9, 39, 0
4, 49440, Note_on_c, 9, 39, 100
4, 49919, Note_on_c, 9, 39, 0
4, 50400, Note_on_c, 9, 39, 100
4, 50879, Note_on_c, 9, 39, 0
4, 51360, Note_on_c, 9, 39, 100
4, 51839, Note_on_c, 9, 39, 0
4, 52320, Note_on_c, 9, 39, 100
4, 52799, Note_on_c, 9, 39, 0
4, 53280, Note_on_c, 9, 39, 100
4, 53759, Note_on_c, 9, 39, 0
4, 54240, Note_on_c, 9, 39, 100
4, 54719, Note_on_c, 9, 39, 0
4, 55200, Note_on_c, 9, 39, 100
4, 55679, Note_on_c, 9, 39, 0
4, 56160, Note_on_c, 9, 39, 100
4, 56639, Note_on_c, 9, 39, 0
4, 57120, Note_on_c, 9, 39, 100
4, 57599, Note_on_c, 9, 39, 0
4, 58080, Note_on_c, 9, 39, 100
4, 58559, Note_on_c, 9, 39, 0
4, 59040, Note_on_c, 9, 39, 100
4, 59519, Note_on_c, 9, 39, 0
4, 60000, Note_on_c, 9, 39, 100
4, 60479, Note_on_c, 9, 39, 0
4, 60960, Note_on_c, 9, 39, 100
4, 61439, Note_on_c, 9, 39, 0
4, 61920, Note_on_c, 9, 39, 100
4, 62399, Note_on_c, 9, 39, 0
4, 62880, Note_on_c, 9, 39, 100
4, 63359, Note_on_c, 9, 39, 0
4, 63840, Note_on_c, 9, 39, 100
4, 64319, Note_on_c, 9, 39, 0
4, 64320, Note_on_c, 9, 39, 100
4, 64799, Note_on_c, 9, 39, 0
4, 64800, Note_on_c, 9, 39, 100
4, 65279, Note_on_c, 9, 39, 0
4, 65760, Note_on_c, 9, 39, 100
4, 66239, Note_on_c, 9, 39, 0
4, 66720, Note_on_c, 9, 39, 100
4, 67199, Note_on_c, 9, 39, 0
4, 67680, Note_on_c, 9, 39, 100
4, 68159, Note_on_c, 9, 39, 0
4, 68640, Note_on_c, 9, 39, 100
4, 69119, Note_on_c, 9, 39, 0
4, 69600, Note_on_c, 9, 39, 100
4, 70079, Note_on_c, 9, 39, 0
4, 70560, Note_on_c, 9, 39, 100
4, 71039, Note_on_c, 9, 39, 0
4, 71520, Note_on_c, 9, 39, 100
4, 71999, Note_on_c, 9, 39, 0
4, 72480, Note_on_c, 9, 39, 100
4, 72959, Note_on_c, 9, 39, 0
4, 73440, Note_on_c, 9, 39, 100
4, 73919, Note_on_c, 9, 39, 0
4, 74400, Note_on_c, 9, 39, 100
4, 74879, Note_on_c, 9, 39, 0
4, 75360, Note_on_c, 9, 39, 100
4, 75839, Note_on_c, 9, 39, 0
4, 76320, Note_on_c, 9, 39, 100
4, 76799, Note_on_c, 9, 39, 0
4, 77280, Note_on_c, 9, 39, 100
4, 77759, Note_on_c, 9, 39, 0
4, 78240, Note_on_c, 9, 39, 100
4, 78719, Note_on_c, 9, 39, 0
4, 79200, Note_on_c, 9, 39, 100
4, 79679, Note_on_c, 9, 39, 0
4, 79680, Note_on_c, 9, 39, 100
4, 80159, Note_on_c, 9, 39, 0
4, 80160, Note_on_c, 9, 39, 100
4, 80639, Note_on_c, 9, 39, 0
4, 81120, Note_on_c, 9, 39, 100
4, 81599, Note_on_c, 9, 39, 0
4, 82080, Note_on_c, 9, 39, 100
4, 82559, Note_on_c, 9, 39, 0
4, 83040, Note_on_c, 9, 39, 100
4, 83519, Note_on_c, 9, 39, 0
4, 84000, Note_on_c, 9, 39, 100
4, 84479, Note_on_c, 9, 39, 0
4, 84960, Note_on_c, 9, 39, 100
4, 85439, Note_on_c, 9, 39, 0
4, 85920, Note_on_c, 9, 39, 100
4, 86399, Note_on_c, 9, 39, 0
4, 86880, Note_on_c, 9, 39, 100
4, 87359, Note_on_c, 9, 39, 0
4, 87840, Note_on_c, 9, 39, 100
4, 88319, Note_on_c, 9, 39, 0
4, 88800, Note_on_c, 9, 39, 100
4, 89279, Note_on_c, 9, 39, 0
4, 89760, Note_on_c, 9, 39, 100
4, 90239, Note_on_c, 9, 39, 0
4, 90720, Note_on_c, 9, 39, 100
4, 91199, Note_on_c, 9, 39, 0
4, 91680, Note_on_c, 9, 39, 100
4, 92159, Note_on_c, 9, 39, 0
4, 92640, Note_on_c, 9, 39, 100
4, 93119, Note_on_c, 9, 39, 0
4, 93600, Note_on_c, 9, 39, 100
4, 94079, Note_on_c, 9, 39, 0
4, 94560, Note_on_c, 9, 39, 100
4, 95039, Note_on_c, 9, 39, 0
4, 95040, Note_on_c, 9, 39, 100
4, 95519, Note_on_c, 9, 39, 0
4, 95520, Note_on_c, 9, 39, 100
4, 95999, Note_on_c, 9, 39, 0
4, 96480, Note_on_c, 9, 39, 100
4, 96959, Note_on_c, 9, 39, 0
4, 97440, Note_on_c, 9, 39, 100
4, 97919, Note_on_c, 9, 39, 0
4, 98400, Note_on_c, 9, 39, 100
4, 98879, Note_on_c, 9, 39, 0
4, 99360, Note_on_c, 9, 39, 100
4, 99839, Note_on_c, 9, 39, 0
4, 100320, Note_on_c, 9, 39, 100
4, 100799, Note_on_c, 9, 39, 0
4, 101280, Note_on_c, 9, 39, 100
4, 101759, Note_on_c, 9, 39, 0
4, 102240, Note_on_c, 9, 39, 100
4, 102719, Note_on_c, 9, 39, 0
4, 103200, Note_on_c, 9, 39, 100
4, 103679, Note_on_c, 9, 39, 0
4, 104160, Note_on_c, 9, 39, 100
4, 104639, Note_on_c, 9, 39, 0
4, 105120, Note_on_c, 9, 39, 100
4, 105599, Note_on_c, 9, 39, 0
4, 106080, Note_on_c, 9, 39, 100
4, 106559, Note_on_c, 9, 39, 0
4, 107040, Note_on_c, 9, 39, 100
4, 107519, Note_on_c, 9, 39, 0
4, 108000, Note_on_c, 9, 39, 100
4, 108479, Note_on_c, 9, 39, 0
4, 108960, Note_on_c, 9, 39, 100
4, 109439, Note_on_c, 9, 39, 0
4, 109920, Note_on_c, 9, 39, 100
4, 110399, Note_on_c, 9, 39, 0
4, 110400, Note_on_c, 9, 39, 100
4, 110879, Note_on_c, 9, 39, 0
4, 110880, Note_on_c, 9, 39, 100
4, 111359, Note_on_c, 9, 39, 0
4, 111840, Note_on_c, 9, 39, 100
4, 112319, Note_on_c, 9, 39, 0
4, 112800, Note_on_c, 9, 39, 100
4, 113279, Note_on_c, 9, 39, 0
4, 113760, Note_on_c, 9, 39, 100
4, 114239, Note_on_c, 9, 39, 0
4, 114720, Note_on_c, 9, 39, 100
4, 115199, Note_on_c, 9, 39, 0
4, 115680, Note_on_c, 9, 39, 100
4, 116159, Note_on_c, 9, 39, 0
4, 116640, Note_on_c, 9, 39, 100
4, 117119, Note_on_c, 9, 39, 0
4, 117600, Note_on_c, 9, 39, 100
4, 118079, Note_on_c, 9, 39, 0
4, 118560, Note_on_c, 9, 39, 100
4, 119039, Note_on_c, 9, 39, 0
4, 119520, Note_on_c, 9, 39, 100
4, 119999, Note_on_c, 9, 39, 0
4, 120480, Note_on_c, 9, 39, 100
4, 120959, Note_on_c, 9, 39, 0
4, 121440, Note_on_c, 9, 39, 100
4, 121919, Note_on_c, 9, 39, 0
4, 122400, Note_on_c, 9, 39, 100
4, 122879, Note_on_c, 9, 39, 0
4, 123360, Note_on_c, 9, 39, 100
4, 123839, Note_on_c, 9, 39, 0
4, 124320, Note_on_c, 9, 39, 100
4, 124799, Note_on_c, 9, 39, 0
4, 125280, Note_on_c, 9, 39, 100
4, 125759, Note_on_c, 9, 39, 0
4, 125760, Note_on_c, 9, 39, 100
4, 126239, Note_on_c, 9, 39, 0
4, 126240, Note_on_c, 9, 39, 100
4, 126719, Note_on_c, 9, 39, 0
4, 127200, Note_on_c, 9, 39, 100
4, 127679, Note_on_c, 9, 39, 0
4, 128160, Note_on_c, 9, 39, 100
4, 128639, Note_on_c, 9, 39, 0
4, 129120, Note_on_c, 9, 39, 100
4, 129599, Note_on_c, 9, 39, 0
4, 130080, Note_on_c, 9, 39, 100
4, 130559, Note_on_c, 9, 39, 0
4, 131040, Note_on_c, 9, 39, 100
4, 131519, Note_on_c, 9, 39, 0
4, 132000, Note_on_c, 9, 39, 100
4, 132479, Note_on_c, 9, 39, 0
4, 132960, Note_on_c, 9, 39, 100
4, 133439, Note_on_c, 9, 39, 0
4, 133920, Note_on_c, 9, 39, 100
4, 134399, Note_on_c, 9, 39, 0
4, 134880, Note_on_c, 9, 39, 100
4, 135359, Note_on_c, 9, 39, 0
4, 135840, Note_on_c, 9, 39, 100
4, 136319, Note_on_c, 9, 39, 0
4, 136800, Note_on_c, 9, 39, 100
4, 137279, Note_on_c, 9, 39, 0
4, 137760, Note_on_c, 9, 39, 100
4, 138239, Note_on_c, 9, 39, 0
4, 138720, Note_on_c, 9, 39, 100
4, 139199, Note_on_c, 9, 39, 0
4, 139680, Note_on_c, 9, 39, 100
4, 140159, Note_on_c, 9, 39, 0
4, 140640, Note_on_c, 9, 39, 100
4, 141119, Note_on_c, 9, 39, 0
4, 141120, Note_on_c, 9, 39, 100
4, 141599, Note_on_c, 9, 39, 0
4, 141600, Note_on_c, 9, 39, 100
4, 142079, Note_on_c, 9, 39, 0
4, 142560, Note_on_c, 9, 39, 100
4, 143039, Note_on_c, 9, 39, 0
4, 143520, Note_on_c, 9, 39, 100
4, 143999, Note_on_c, 9, 39, 0
4, 144480, Note_on_c, 9, 39, 100
4, 144959, Note_on_c, 9, 39, 0
4, 145440, Note_on_c, 9, 39, 100
4, 145919, Note_on_c, 9, 39, 0
4, 146400, Note_on_c, 9, 39, 100
4, 146879, Note_on_c, 9, 39, 0
4, 147360, Note_on_c, 9, 39, 100
4, 147839, Note_on_c, 9, 39, 0
4, 148320, Note_on_c, 9, 39, 100
4, 148799, Note_on_c, 9, 39, 0
4, 149280, Note_on_c, 9, 39, 100
4, 149759, Note_on_c, 9, 39, 0
4, 150240, Note_on_c, 9, 39, 100
4, 150719, Note_on_c, 9, 39, 0
4, 151200, Note_on_c, 9, 39, 100
4, 151679, Note_on_c, 9, 39, 0
4, 152160, Note_on_c, 9, 39, 100
4, 152639, Note_on_c, 9, 39, 0
4, 153120, Note_on_c, 9, 39, 100
4, 153599, Note_on_c, 9, 39, 0
4, 154080, Note_on_c, 9, 39, 100
4, 154559, Note_on_c, 9, 39, 0
4, 155040, Note_on_c, 9, 39, 100
4, 155519, Note_on_c, 9, 39, 0
4, 156000, Note_on_c, 9, 39, 100
4, 156479, Note_on_c, 9, 39, 0
4, 156480, Note_on_c, 9, 39, 100
4, 156959, Note_on_c, 9, 39, 0
4, 156960, Note_on_c, 9, 39, 100
4, 157439, Note_on_c, 9, 39, 0
4, 157920, Note_on_c, 9, 39, 100
4, 158399, Note_on_c, 9, 39, 0
4, 158880, Note_on_c, 9, 39, 100
4, 159359, Note_on_c, 9, 39, 0
4, 159840, Note_on_c, 9, 39, 100
4, 160319, Note_on_c, 9, 39, 0
4, 160800, Note_on_c, 9, 39, 100
4, 161279, Note_on_c, 9, 39, 0
4, 161760, Note_on_c, 9, 39, 100
4, 162239, Note_on_c, 9, 39, 0
4, 162720, Note_on_c, 9, 39, 100
4, 163199, Note_on_c, 9, 39, 0
4, 163680, Note_on_c, 9, 39, 100
4, 164159, Note_on_c, 9, 39, 0
4, 164640, Note_on_c, 9, 39, 100
4, 165119, Note_on_c, 9, 39, 0
4, 165600, Note_on_c, 9, 39, 100
4, 166079, Note_on_c, 9, 39, 0
4, 166560, Note_on_c, 9, 39, 100
4, 167039, Note_on_c, 9, 39, 0
4, 167520, Note_on_c, 9, 39, 100
4, 167999, Note_on_c, 9, 39, 0
4, 168480, Note_on_c, 9, 39, 100
4, 168959, Note_on_c, 9, 39, 0
4, 169440, Note_on_c, 9, 39, 100
4, 169919, Note_on_c, 9, 39, 0
4, 170400, Note_on_c, 9, 39, 100
4, 170879, Note_on_c, 9, 39, 0
4, 171360, Note_on_c, 9, 39, 100
4, 171839, Note_on_c, 9, 39, 0
4, 171840, Note_on_c, 9, 39, 100
4, 172319, Note_on_c, 9, 39, 0
4, 172320, Note_on_c, 9, 39, 100
4, 172799, Note_on_c, 9, 39, 0
4, 173280, Note_on_c, 9, 39, 100
4, 173759, Note_on_c, 9, 39, 0
4, 174240, Note_on_c, 9, 39, 100
4, 174719, Note_on_c, 9, 39, 0
4, 175200, Note_on_c, 9, 39, 100
4, 175679, Note_on_c, 9, 39, 0
4, 176160, Note_on_c, 9, 39, 100
4, 176639, Note_on_c, 9, 39, 0
4, 177120, Note_on_c, 9, 39, 100
4, 177599, Note_on_c, 9, 39, 0
4, 178080, Note_on_c, 9, 39, 100
4, 178559, Note_on_c, 9, 39, 0
4, 179040, Note_on_c, 9, 39, 100
4, 179519, Note_on_c, 9, 39, 0
4, 180000, Note_on_c, 9, 39, 100
4, 180479, Note_on_c, 9, 39, 0
4, 180960, Note_on_c, 9, 39, 100
4, 181439, Note_on_c, 9, 39, 0
4, 181920, Note_on_c, 9, 39, 100
4, 182399, Note_on_c, 9, 39, 0
4, 182880, Note_on_c, 9, 39, 100
4, 183359, Note_on_c, 9, 39, 0
4, 183840, Note_on_c, 9, 39, 100
4, 184319, Note_on_c, 9, 39, 0
4, 184800, Note_on_c, 9, 39, 100
4, 185279, Note_on_c, 9, 39, 0
4, 185760, Note_on_c, 9, 39, 100
4, 186239, Note_on_c, 9, 39, 0
4, 186720, Note_on_c, 9, 39, 100
4, 187199, Note_on_c, 9, 39, 0
4, 187200, Note_on_c, 9, 39, 100
4, 187679, Note_on_c, 9, 39, 0
4, 187680, Note_on_c, 9, 39, 100
4, 188159, Note_on_c, 9, 39, 0
4, 188640, Note_on_c, 9, 39, 100
4, 189119, Note_on_c, 9, 39, 0
4, 189600, Note_on_c, 9, 39, 100
4, 190079, Note_on_c, 9, 39, 0
4, 190560, Note_on_c, 9, 39, 100
4, 191039, Note_on_c, 9, 39, 0
4, 191520, Note_on_c, 9, 39, 100
4, 191999, Note_on_c, 9, 39, 0
4, 192480, Note_on_c, 9, 39, 100
4, 192959, Note_on_c, 9, 39, 0
4, 193440, Note_on_c, 9, 39, 100
4, 193919, Note_on_c, 9, 39, 0
4, 194400, Note_on_c, 9, 39, 100
4, 194879, Note_on_c, 9, 39, 0
4, 195360, Note_on_c, 9, 39, 100
4, 195839, Note_on_c, 9, 39, 0
4, 196320, Note_on_c, 9, 39, 100
4, 196799, Note_on_c, 9, 39, 0
4, 197280, Note_on_c, 9, 39, 100
4, 197759, Note_on_c, 9, 39, 0
4, 198240, Note_on_c, 9, 39, 100
4, 198719, Note_on_c, 9, 39, 0
4, 199200, Note_on_c, 9, 39, 100
4, 199679, Note_on_c, 9, 39, 0
4, 200160, Note_on_c, 9, 39, 100
4, 200639, Note_on_c, 9, 39, 0
4, 201120, Note_on_c, 9, 39, 100
4, 201599, Note_on_c, 9, 39, 0
4, 202080, Note_on_c, 9, 39, 100
4, 202559, Note_on_c, 9, 39, 0
4, 202560, Note_on_c, 9, 39, 100
4, 203039, Note_on_c, 9, 39, 0
4, 203040, Note_on_c, 9, 39, 100
4, 203519, Note_on_c, 9, 39, 0
4, 204000, Note_on_c, 9, 39, 100
4, 204479, Note_on_c, 9, 39, 0
4, 204960, Note_on_c, 9, 39, 100
4, 205439, Note_on_c, 9, 39, 0
4, 205920, Note_on_c, 9, 39, 100
4, 206399, Note_on_c, 9, 39, 0
4, 206880, Note_on_c, 9, 39, 100
4, 207359, Note_on_c, 9, 39, 0
4, 207840, Note_on_c, 9, 39, 100
4, 208319, Note_on_c, 9, 39, 0
4, 208800, Note_on_c, 9, 39, 100
4, 209279, Note_on_c, 9, 39, 0
4, 209760, Note_on_c, 9, 39, 100
4, 210239, Note_on_c, 9, 39, 0
4, 210720, Note_on_c, 9, 39, 100
4, 211199, Note_on_c, 9, 39, 0
4, 211680, Note_on_c, 9, 39, 100
4, 212159, Note_on_c, 9, 39, 0
4, 212640, Note_on_c, 9, 39, 100
4, 213119, Note_on_c, 9, 39, 0
4, 213600, Note_on_c, 9, 39, 100
4, 214079, Note_on_c, 9, 39, 0
4, 214560, Note_on_c, 9, 39, 100
4, 215039, Note_on_c, 9, 39, 0
4, 215520, Note_on_c, 9, 39, 100
4, 215999, Note_on_c, 9, 39, 0
4, 216480, Note_on_c, 9, 39, 100
4, 216959, Note_on_c, 9, 39, 0
4, 217440, Note_on_c, 9, 39, 100
4, 217919, Note_on_c, 9, 39, 0
4, 217920, Note_on_c, 9, 39, 100
4, 218399, Note_on_c, 9, 39, 0
4, 218400, Note_on_c, 9, 39, 100
4, 218879, Note_on_c, 9, 39, 0
4, 219360, Note_on_c, 9, 39, 100
4, 219839, Note_on_c, 9, 39, 0
4, 220320, Note_on_c, 9, 39, 100
4, 220799, Note_on_c, 9, 39, 0
4, 221280, Note_on_c, 9, 39, 100
4, 221759, Note_on_c, 9, 39, 0
4, 222240, Note_on_c, 9, 39, 100
4, 222719, Note_on_c, 9, 39, 0
4, 223200, Note_on_c, 9, 39, 100
4, 223679, Note_on_c, 9, 39, 0
4, 224160, Note_on_c, 9, 39, 100
4, 224639, Note_on_c, 9, 39, 0
4, 225120, Note_on_c, 9, 39, 100
4, 225599, Note_on_c, 9, 39, 0
4, 226080, Note_on_c, 9, 39, 100
4, 226559, Note_on_c, 9, 39, 0
4, 227040, Note_on_c, 9, 39, 100
4, 227519, Note_on_c, 9, 39, 0
4, 228000, Note_on_c, 9, 39, 100
4, 228479, Note_on_c, 9, 39, 0
4, 228960, Note_on_c, 9, 39, 100
4, 229439, Note_on_c, 9, 39, 0
4, 229920, Note_on_c, 9, 39, 100
4, 230399, Note_on_c, 9, 39, 0
4, 230880, Note_on_c, 9, 39, 100
4, 231359, Note_on_c, 9, 39, 0
4, 231840, Note_on_c, 9, 39, 100
4, 232319, Note_on_c, 9, 39, 0
4, 232800, Note_on_c, 9, 39, 100
4, 233279, Note_on_c, 9, 39, 0
4, 233280, Note_on_c, 9, 39, 100
4, 233759, Note_on_c, 9, 39, 0
4, 233760, Note_on_c, 9, 39, 100
4, 234239, Note_on_c, 9, 39, 0
4, 234720, Note_on_c, 9, 39, 100
4, 235199, Note_on_c, 9, 39, 0
4, 235680, Note_on_c, 9, 39, 100
4, 236159, Note_on_c, 9, 39, 0
4, 236640, Note_on_c, 9, 39, 100
4, 237119, Note_on_c, 9, 39, 0
4, 237600, Note_on_c, 9, 39, 100
4, 238079, Note_on_c, 9, 39, 0
4, 238560, Note_on_c, 9, 39, 100
4, 239039, Note_on_c, 9, 39, 0
4, 239520, Note_on_c, 9, 39, 100
4, 239999, Note_on_c, 9, 39, 0
4, 240480, Note_on_c, 9, 39, 100
4, 240959, Note_on_c, 9, 39, 0
4, 241440, Note_on_c, 9, 39, 100
4, 241919, Note_on_c, 9, 39, 0
4, 242400, Note_on_c, 9, 39, 100
4, 242879, Note_on_c, 9, 39, 0
4, 243360, Note_on_c, 9, 39, 100
4, 243839, Note_on_c, 9, 39, 0
4, 244320, Note_on_c, 9, 39, 100
4, 244799, Note_on_c, 9, 39, 0
4, 245280, Note_on_c, 9, 39, 100
4, 245759, Note_on_c, 9, 39, 0
4, 246240, Note_on_c, 9, 39, 100
4, 246719, Note_on_c, 9, 39, 0
4, 247200, Note_on_c, 9, 39, 100
4, 247679, Note_on_c, 9, 39, 0
4, 248160, Note_on_c, 9, 39, 100
4, 248639, Note_on_c, 9, 39, 0
4, 248640, Note_on_c, 9, 39, 100
4, 249119, Note_on_c, 9, 39, 0
4, 249120, Note_on_c, 9, 39, 100
4, 249599, Note_on_c, 9, 39, 0
4, 250080, Note_on_c, 9, 39, 100
4, 250559, Note_on_c, 9, 39, 0
4, 251040, Note_on_c, 9, 39, 100
4, 251519, Note_on_c, 9, 39, 0
4, 252000, Note_on_c, 9, 39, 100
4, 252479, Note_on_c, 9, 39, 0
4, 252960, Note_on_c, 9, 39, 100
4, 253439, Note_on_c, 9, 39, 0
4, 253920, Note_on_c, 9, 39, 100
4, 254399, Note_on_c, 9, 39, 0
4, 254880, Note_on_c, 9, 39, 100
4, 255359, Note_on_c, 9, 39, 0
4, 255840, Note_on_c, 9, 39, 100
4, 256319, Note_on_c, 9, 39, 0
4, 256800, Note_on_c, 9, 39, 100
4, 257279, Note_on_c, 9, 39, 0
4, 257760, Note_on_c, 9, 39, 100
4, 258239, Note_on_c, 9, 39, 0
4, 258720, Note_on_c, 9, 39, 100
4, 259199, Note_on_c, 9, 39, 0
4, 259680, Note_on_c, 9, 39, 100
4, 260159, Note_on_c, 9, 39, 0
4, 260640, Note_on_c, 9, 39, 100
4, 261119, Note_on_c, 9, 39, 0
4, 261600, Note_on_c, 9, 39, 100
4, 262079, Note_on_c, 9, 39, 0
4, 262560, Note_on_c, 9, 39, 100
4, 263039, Note_on_c, 9, 39, 0
4, 263520, Note_on_c, 9, 39, 100
4, 263999, Note_on_c, 9, 39, 0
4, 264000, Note_on_c, 9, 39, 100
4, 264479, Note_on_c, 9, 39, 0
4, 264480, Note_on_c, 9, 39, 100
4, 264959, Note_on_c, 9, 39, 0
4, 266880, Note_on_c, 9, 39, 100
4, 267359, Note_on_c, 9, 39, 0
4, 267360, End_track
5, 0, Start_track
5, 0, Key_signature, 0, "major"
5, 0, Control_c, 9, 121, 0
5, 0, Program_c, 9, 0
5, 0, Control_c, 9, 7, 100
5, 0, Control_c, 9, 10, 64
5, 0, Control_c, 9, 91, 0
5, 0, Control_c, 9, 93, 0
5, 0, MIDI_port, 0
5, 5280, Note_on_c, 9, 41, 92
5, 5339, Note_on_c, 9, 41, 0
5, 5360, Note_on_c, 9, 41, 92
5, 5399, Note_on_c, 9, 41, 0
5, 5440, Note_on_c, 9, 41, 92
5, 5459, Note_on_c, 9, 41, 0
5, 5520, Note_on_c, 9, 41, 92
5, 5579, Note_on_c, 9, 41, 0
5, 5600, Note_on_c, 9, 41, 92
5, 5639, Note_on_c, 9, 41, 0
5, 5680, Note_on_c, 9, 41, 92
5, 5699, Note_on_c, 9, 41, 0
5, 268320, Note_on_c, 9, 41, 92
5, 268379, Note_on_c, 9, 41, 0
5, 268400, Note_on_c, 9, 41, 92
5, 268439, Note_on_c, 9, 41, 0
5, 268480, Note_on_c, 9, 41, 92
5, 268499, Note_on_c, 9, 41, 0
5, 268560, Note_on_c, 9, 41, 92
5, 268619, Note_on_c, 9, 41, 0
5, 268640, Note_on_c, 9, 41, 92
5, 268679, Note_on_c, 9, 41, 0
5, 268720, Note_on_c, 9, 41, 92
5, 268739, Note_on_c, 9, 41, 0
5, 268740, End_track
6, 0, Start_track
6, 0, Key_signature, 0, "major"
6, 0, Control_c, 9, 121, 0
6, 0, Program_c, 9, 0
6, 0, Control_c, 9, 7, 100
6, 0, Control_c, 9, 10, 64
6, 0, Control_c, 9, 91, 0
6, 0, Control_c, 9, 93, 0
6, 0, MIDI_port, 0
6, 3840, Note_on_c, 9, 42, 127
6, 4079, Note_on_c, 9, 42, 0
6, 4080, Note_on_c, 9, 42, 60
6, 4319, Note_on_c, 9, 42, 0
6, 4320, Note_on_c, 9, 42, 127
6, 4559, Note_on_c, 9, 42, 0
6, 4560, Note_on_c, 9, 42, 60
6, 4799, Note_on_c, 9, 42, 0
6, 4800, Note_on_c, 9, 42, 127
6, 5039, Note_on_c, 9, 42, 0
6, 5040, Note_on_c, 9, 42, 60
6, 5279, Note_on_c, 9, 42, 0
6, 5280, Note_on_c, 9, 42, 127
6, 5519, Note_on_c, 9, 42, 0
6, 5520, Note_on_c, 9, 42, 60
6, 5759, Note_on_c, 9, 42, 0
6, 5760, Note_on_c, 9, 42, 127
6, 5999, Note_on_c, 9, 42, 0
6, 6000, Note_on_c, 9, 42, 60
6, 6239, Note_on_c, 9, 42, 0
6, 6240, Note_on_c, 9, 42, 127
6, 6479, Note_on_c, 9, 42, 0
6, 6480, Note_on_c, 9, 42, 60
6, 6719, Note_on_c, 9, 42, 0
6, 6720, Note_on_c, 9, 42, 127
6, 6959, Note_on_c, 9, 42, 0
6, 6960, Note_on_c, 9, 42, 60
6, 7199, Note_on_c, 9, 42, 0
6, 7200, Note_on_c, 9, 42, 127
6, 7439, Note_on_c, 9, 42, 0
6, 7440, Note_on_c, 9, 42, 60
6, 7679, Note_on_c, 9, 42, 0
6, 7680, Note_on_c, 9, 42, 127
6, 7919, Note_on_c, 9, 42, 0
6, 7920, Note_on_c, 9, 42, 60
6, 8159, Note_on_c, 9, 42, 0
6, 8160, Note_on_c, 9, 42, 127
6, 8639, Note_on_c, 9, 42, 0
6, 8640, Note_on_c, 9, 42, 127
6, 8879, Note_on_c, 9, 42, 0
6, 8880, Note_on_c, 9, 42, 60
6, 9119, Note_on_c, 9, 42, 0
6, 9120, Note_on_c, 9, 42, 127
6, 9359, Note_on_c, 9, 42, 0
6, 9360, Note_on_c, 9, 42, 60
6, 9599, Note_on_c, 9, 42, 0
6, 9600, Note_on_c, 9, 42, 127
6, 9839, Note_on_c, 9, 42, 0
6, 9840, Note_on_c, 9, 42, 60
6, 10079, Note_on_c, 9, 42, 0
6, 10080, Note_on_c, 9, 42, 127
6, 10319, Note_on_c, 9, 42, 0
6, 10320, Note_on_c, 9, 42, 60
6, 10559, Note_on_c, 9, 42, 0
6, 10560, Note_on_c, 9, 42, 127
6, 10799, Note_on_c, 9, 42, 0
6, 10800, Note_on_c, 9, 42, 60
6, 11039, Note_on_c, 9, 42, 0
6, 11040, Note_on_c, 9, 42, 127
6, 11279, Note_on_c, 9, 42, 0
6, 11280, Note_on_c, 9, 42, 60
6, 11519, Note_on_c, 9, 42, 0
6, 11760, Note_on_c, 9, 42, 60
6, 11999, Note_on_c, 9, 42, 0
6, 12000, Note_on_c, 9, 42, 127
6, 12239, Note_on_c, 9, 42, 0
6, 12240, Note_on_c, 9, 42, 60
6, 12479, Note_on_c, 9, 42, 0
6, 12480, Note_on_c, 9, 42, 127
6, 12719, Note_on_c, 9, 42, 0
6, 12720, Note_on_c, 9, 42, 60
6, 12959, Note_on_c, 9, 42, 0
6, 12960, Note_on_c, 9, 42, 127
6, 13199, Note_on_c, 9, 42, 0
6, 13200, Note_on_c, 9, 42, 60
6, 13439, Note_on_c, 9, 42, 0
6, 13440, Note_on_c, 9, 42, 127
6, 13679, Note_on_c, 9, 42, 0
6, 13680, Note_on_c, 9, 42, 60
6, 13919, Note_on_c, 9, 42, 0
6, 13920, Note_on_c, 9, 42, 127
6, 14159, Note_on_c, 9, 42, 0
6, 14160, Note_on_c, 9, 42, 60
6, 14399, Note_on_c, 9, 42, 0
6, 14400, Note_on_c, 9, 42, 127
6, 14639, Note_on_c, 9, 42, 0
6, 14640, Note_on_c, 9, 42, 60
6, 14879, Note_on_c, 9, 42, 0
6, 14880, Note_on_c, 9, 42, 127
6, 15119, Note_on_c, 9, 42, 0
6, 15120, Note_on_c, 9, 42, 60
6, 15359, Note_on_c, 9, 42, 0
6, 15360, Note_on_c, 9, 42, 127
6, 15599, Note_on_c, 9, 42, 0
6, 15600, Note_on_c, 9, 42, 60
6, 15839, Note_on_c, 9, 42, 0
6, 15840, Note_on_c, 9, 42, 127
6, 16319, Note_on_c, 9, 42, 0
6, 16320, Note_on_c, 9, 42, 127
6, 16559, Note_on_c, 9, 42, 0
6, 16560, Note_on_c, 9, 42, 60
6, 16799, Note_on_c, 9, 42, 0
6, 16800, Note_on_c, 9, 42, 127
6, 17039, Note_on_c, 9, 42, 0
6, 17040, Note_on_c, 9, 42, 60
6, 17279, Note_on_c, 9, 42, 0
6, 17280, Note_on_c, 9, 42, 127
6, 17519, Note_on_c, 9, 42, 0
6, 17520, Note_on_c, 9, 42, 60
6, 17759, Note_on_c, 9, 42, 0
6, 17760, Note_on_c, 9, 42, 127
6, 17999, Note_on_c, 9, 42, 0
6, 18000, Note_on_c, 9, 42, 60
6, 18239, Note_on_c, 9, 42, 0
6, 18240, Note_on_c, 9, 42, 127
6, 18479, Note_on_c, 9, 42, 0
6, 18480, Note_on_c, 9, 42, 60
6, 18719, Note_on_c, 9, 42, 0
6, 18720, Note_on_c, 9, 42, 127
6, 18959, Note_on_c, 9, 42, 0
6, 18960, Note_on_c, 9, 42, 60
6, 19199, Note_on_c, 9, 42, 0
6, 19200, Note_on_c, 9, 42, 127
6, 19439, Note_on_c, 9, 42, 0
6, 19440, Note_on_c, 9, 42, 60
6, 19679, Note_on_c, 9, 42, 0
6, 19680, Note_on_c, 9, 42, 127
6, 19919, Note_on_c, 9, 42, 0
6, 19920, Note_on_c, 9, 42, 60
6, 20159, Note_on_c, 9, 42, 0
6, 20160, Note_on_c, 9, 42, 127
6, 20399, Note_on_c, 9, 42, 0
6, 20400, Note_on_c, 9, 42, 60
6, 20639, Note_on_c, 9, 42, 0
6, 20640, Note_on_c, 9, 42, 127
6, 20879, Note_on_c, 9, 42, 0
6, 20880, Note_on_c, 9, 42, 60
6, 21119, Note_on_c, 9, 42, 0
6, 21120, Note_on_c, 9, 42, 127
6, 21359, Note_on_c, 9, 42, 0
6, 21360, Note_on_c, 9, 42, 60
6, 21599, Note_on_c, 9, 42, 0
6, 21600, Note_on_c, 9, 42, 127
6, 21839, Note_on_c, 9, 42, 0
6, 21840, Note_on_c, 9, 42, 60
6, 22079, Note_on_c, 9, 42, 0
6, 22080, Note_on_c, 9, 42, 127
6, 22319, Note_on_c, 9, 42, 0
6, 22320, Note_on_c, 9, 42, 60
6, 22559, Note_on_c, 9, 42, 0
6, 22560, Note_on_c, 9, 42, 127
6, 22799, Note_on_c, 9, 42, 0
6, 22800, Note_on_c, 9, 42, 60
6, 23039, Note_on_c, 9, 42, 0
6, 23040, Note_on_c, 9, 42, 127
6, 23279, Note_on_c, 9, 42, 0
6, 23280, Note_on_c, 9, 42, 60
6, 23519, Note_on_c, 9, 42, 0
6, 23520, Note_on_c, 9, 42, 127
6, 23999, Note_on_c, 9, 42, 0
6, 24000, Note_on_c, 9, 42, 127
6, 24239, Note_on_c, 9, 42, 0
6, 24240, Note_on_c, 9, 42, 60
6, 24479, Note_on_c, 9, 42, 0
6, 24480, Note_on_c, 9, 42, 127
6, 24719, Note_on_c, 9, 42, 0
6, 24720, Note_on_c, 9, 42, 60
6, 24959, Note_on_c, 9, 42, 0
6, 24960, Note_on_c, 9, 42, 127
6, 25199, Note_on_c, 9, 42, 0
6, 25200, Note_on_c, 9, 42, 60
6, 25439, Note_on_c, 9, 42, 0
6, 25440, Note_on_c, 9, 42, 127
6, 25679, Note_on_c, 9, 42, 0
6, 25680, Note_on_c, 9, 42, 60
6, 25919, Note_on_c, 9, 42, 0
6, 25920, Note_on_c, 9, 42, 127
6, 26159, Note_on_c, 9, 42, 0
6, 26160, Note_on_c, 9, 42, 60
6, 26399, Note_on_c, 9, 42, 0
6, 26400, Note_on_c, 9, 42, 127
6, 26639, Note_on_c, 9, 42, 0
6, 26640, Note_on_c, 9, 42, 60
6, 26879, Note_on_c, 9, 42, 0
6, 26880, Note_on_c, 9, 42, 127
6, 27119, Note_on_c, 9, 42, 0
6, 27120, Note_on_c, 9, 42, 60
6, 27359, Note_on_c, 9, 42, 0
6, 27360, Note_on_c, 9, 42, 127
6, 27599, Note_on_c, 9, 42, 0
6, 27600, Note_on_c, 9, 42, 60
6, 27839, Note_on_c, 9, 42, 0
6, 27840, Note_on_c, 9, 42, 127
6, 28079, Note_on_c, 9, 42, 0
6, 28080, Note_on_c, 9, 42, 60
6, 28319, Note_on_c, 9, 42, 0
6, 28320, Note_on_c, 9, 42, 127
6, 28559, Note_on_c, 9, 42, 0
6, 28560, Note_on_c, 9, 42, 60
6, 28799, Note_on_c, 9, 42, 0
6, 28800, Note_on_c, 9, 42, 127
6, 29039, Note_on_c, 9, 42, 0
6, 29040, Note_on_c, 9, 42, 60
6, 29279, Note_on_c, 9, 42, 0
6, 29280, Note_on_c, 9, 42, 127
6, 29519, Note_on_c, 9, 42, 0
6, 29520, Note_on_c, 9, 42, 60
6, 29759, Note_on_c, 9, 42, 0
6, 29760, Note_on_c, 9, 42, 127
6, 29999, Note_on_c, 9, 42, 0
6, 30000, Note_on_c, 9, 42, 60
6, 30239, Note_on_c, 9, 42, 0
6, 30240, Note_on_c, 9, 42, 127
6, 30479, Note_on_c, 9, 42, 0
6, 30480, Note_on_c, 9, 42, 60
6, 30719, Note_on_c, 9, 42, 0
6, 30720, Note_on_c, 9, 42, 127
6, 30959, Note_on_c, 9, 42, 0
6, 30960, Note_on_c, 9, 42, 60
6, 31199, Note_on_c, 9, 42, 0
6, 31200, Note_on_c, 9, 42, 127
6, 31679, Note_on_c, 9, 42, 0
6, 31680, Note_on_c, 9, 42, 127
6, 31919, Note_on_c, 9, 42, 0
6, 31920, Note_on_c, 9, 42, 60
6, 32159, Note_on_c, 9, 42, 0
6, 32160, Note_on_c, 9, 42, 127
6, 32399, Note_on_c, 9, 42, 0
6, 32400, Note_on_c, 9, 42, 60
6, 32639, Note_on_c, 9, 42, 0
6, 32640, Note_on_c, 9, 42, 127
6, 33119, Note_on_c, 9, 42, 0
6, 34560, Note_on_c, 9, 42, 127
6, 34799, Note_on_c, 9, 42, 0
6, 34800, Note_on_c, 9, 42, 60
6, 35039, Note_on_c, 9, 42, 0
6, 35040, Note_on_c, 9, 42, 127
6, 35279, Note_on_c, 9, 42, 0
6, 35280, Note_on_c, 9, 42, 60
6, 35519, Note_on_c, 9, 42, 0
6, 35520, Note_on_c, 9, 42, 127
6, 35759, Note_on_c, 9, 42, 0
6, 35760, Note_on_c, 9, 42, 60
6, 35999, Note_on_c, 9, 42, 0
6, 36000, Note_on_c, 9, 42, 127
6, 36239, Note_on_c, 9, 42, 0
6, 36240, Note_on_c, 9, 42, 60
6, 36479, Note_on_c, 9, 42, 0
6, 36480, Note_on_c, 9, 42, 127
6, 36719, Note_on_c, 9, 42, 0
6, 36720, Note_on_c, 9, 42, 60
6, 36959, Note_on_c, 9, 42, 0
6, 36960, Note_on_c, 9, 42, 127
6, 37199, Note_on_c, 9, 42, 0
6, 37200, Note_on_c, 9, 42, 60
6, 37439, Note_on_c, 9, 42, 0
6, 37440, Note_on_c, 9, 42, 127
6, 37679, Note_on_c, 9, 42, 0
6, 37680, Note_on_c, 9, 42, 60
6, 37919, Note_on_c, 9, 42, 0
6, 37920, Note_on_c, 9, 42, 127
6, 38159, Note_on_c, 9, 42, 0
6, 38160, Note_on_c, 9, 42, 60
6, 38399, Note_on_c, 9, 42, 0
6, 38400, Note_on_c, 9, 42, 127
6, 38639, Note_on_c, 9, 42, 0
6, 38640, Note_on_c, 9, 42, 60
6, 38879, Note_on_c, 9, 42, 0
6, 38880, Note_on_c, 9, 42, 127
6, 39359, Note_on_c, 9, 42, 0
6, 39360, Note_on_c, 9, 42, 127
6, 39599, Note_on_c, 9, 42, 0
6, 39600, Note_on_c, 9, 42, 60
6, 39839, Note_on_c, 9, 42, 0
6, 39840, Note_on_c, 9, 42, 127
6, 40079, Note_on_c, 9, 42, 0
6, 40080, Note_on_c, 9, 42, 60
6, 40319, Note_on_c, 9, 42, 0
6, 40320, Note_on_c, 9, 42, 127
6, 40559, Note_on_c, 9, 42, 0
6, 40560, Note_on_c, 9, 42, 60
6, 40799, Note_on_c, 9, 42, 0
6, 40800, Note_on_c, 9, 42, 127
6, 41039, Note_on_c, 9, 42, 0
6, 41040, Note_on_c, 9, 42, 60
6, 41279, Note_on_c, 9, 42, 0
6, 41280, Note_on_c, 9, 42, 127
6, 41519, Note_on_c, 9, 42, 0
6, 41520, Note_on_c, 9, 42, 60
6, 41759, Note_on_c, 9, 42, 0
6, 41760, Note_on_c, 9, 42, 127
6, 41999, Note_on_c, 9, 42, 0
6, 42000, Note_on_c, 9, 42, 60
6, 42239, Note_on_c, 9, 42, 0
6, 42240, Note_on_c, 9, 42, 127
6, 42479, Note_on_c, 9, 42, 0
6, 42480, Note_on_c, 9, 42, 60
6, 42719, Note_on_c, 9, 42, 0
6, 42720, Note_on_c, 9, 42, 127
6, 42959, Note_on_c, 9, 42, 0
6, 42960, Note_on_c, 9, 42, 60
6, 43199, Note_on_c, 9, 42, 0
6, 43200, Note_on_c, 9, 42, 127
6, 43439, Note_on_c, 9, 42, 0
6, 43440, Note_on_c, 9, 42, 60
6, 43679, Note_on_c, 9, 42, 0
6, 43680, Note_on_c, 9, 42, 127
6, 43919, Note_on_c, 9, 42, 0
6, 43920, Note_on_c, 9, 42, 60
6, 44159, Note_on_c, 9, 42, 0
6, 44160, Note_on_c, 9, 42, 127
6, 44399, Note_on_c, 9, 42, 0
6, 44400, Note_on_c, 9, 42, 60
6, 44639, Note_on_c, 9, 42, 0
6, 44640, Note_on_c, 9, 42, 127
6, 44879, Note_on_c, 9, 42, 0
6, 44880, Note_on_c, 9, 42, 60
6, 45119, Note_on_c, 9, 42, 0
6, 45120, Note_on_c, 9, 42, 127
6, 45359, Note_on_c, 9, 42, 0
6, 45360, Note_on_c, 9, 42, 60
6, 45599, Note_on_c, 9, 42, 0
6, 45600, Note_on_c, 9, 42, 127
6, 45839, Note_on_c, 9, 42, 0
6, 45840, Note_on_c, 9, 42, 60
6, 46079, Note_on_c, 9, 42, 0
6, 46080, Note_on_c, 9, 42, 127
6, 46319, Note_on_c, 9, 42, 0
6, 46320, Note_on_c, 9, 42, 60
6, 46559, Note_on_c, 9, 42, 0
6, 46560, Note_on_c, 9, 42, 127
6, 47039, Note_on_c, 9, 42, 0
6, 47040, Note_on_c, 9, 42, 127
6, 47279, Note_on_c, 9, 42, 0
6, 47280, Note_on_c, 9, 42, 60
6, 47519, Note_on_c, 9, 42, 0
6, 47520, Note_on_c, 9, 42, 127
6, 47759, Note_on_c, 9, 42, 0
6, 47760, Note_on_c, 9, 42, 60
6, 47999, Note_on_c, 9, 42, 0
6, 48000, Note_on_c, 9, 42, 127
6, 48239, Note_on_c, 9, 42, 0
6, 48240, Note_on_c, 9, 42, 60
6, 48479, Note_on_c, 9, 42, 0
6, 48480, Note_on_c, 9, 42, 127
6, 48719, Note_on_c, 9, 42, 0
6, 48720, Note_on_c, 9, 42, 60
6, 48959, Note_on_c, 9, 42, 0
6, 48960, Note_on_c, 9, 42, 127
6, 49199, Note_on_c, 9, 42, 0
6, 49200, Note_on_c, 9, 42, 60
6, 49439, Note_on_c, 9, 42, 0
6, 49440, Note_on_c, 9, 42, 127
6, 49679, Note_on_c, 9, 42, 0
6, 49680, Note_on_c, 9, 42, 60
6, 49919, Note_on_c, 9, 42, 0
6, 49920, Note_on_c, 9, 42, 127
6, 50159, Note_on_c, 9, 42, 0
6, 50160, Note_on_c, 9, 42, 60
6, 50399, Note_on_c, 9, 42, 0
6, 50400, Note_on_c, 9, 42, 127
6, 50639, Note_on_c, 9, 42, 0
6, 50640, Note_on_c, 9, 42, 60
6, 50879, Note_on_c, 9, 42, 0
6, 50880, Note_on_c, 9, 42, 127
6, 51119, Note_on_c, 9, 42, 0
6, 51120, Note_on_c, 9, 42, 60
6, 51359, Note_on_c, 9, 42, 0
6, 51360, Note_on_c, 9, 42, 127
6, 51599, Note_on_c, 9, 42, 0
6, 51600, Note_on_c, 9, 42, 60
6, 51839, Note_on_c, 9, 42, 0
6, 51840, Note_on_c, 9, 42, 127
6, 52079, Note_on_c, 9, 42, 0
6, 52080, Note_on_c, 9, 42, 60
6, 52319, Note_on_c, 9, 42, 0
6, 52320, Note_on_c, 9, 42, 127
6, 52559, Note_on_c, 9, 42, 0
6, 52560, Note_on_c, 9, 42, 60
6, 52799, Note_on_c, 9, 42, 0
6, 52800, Note_on_c, 9, 42, 127
6, 53039, Note_on_c, 9, 42, 0
6, 53040, Note_on_c, 9, 42, 60
6, 53279, Note_on_c, 9, 42, 0
6, 53280, Note_on_c, 9, 42, 127
6, 53519, Note_on_c, 9, 42, 0
6, 53520, Note_on_c, 9, 42, 60
6, 53759, Note_on_c, 9, 42, 0
6, 53760, Note_on_c, 9, 42, 127
6, 53999, Note_on_c, 9, 42, 0
6, 54000, Note_on_c, 9, 42, 60
6, 54239, Note_on_c, 9, 42, 0
6, 54240, Note_on_c, 9, 42, 127
6, 54719, Note_on_c, 9, 42, 0
6, 54720, Note_on_c, 9, 42, 127
6, 54959, Note_on_c, 9, 42, 0
6, 54960, Note_on_c, 9, 42, 60
6, 55199, Note_on_c, 9, 42, 0
6, 55200, Note_on_c, 9, 42, 127
6, 55439, Note_on_c, 9, 42, 0
6, 55440, Note_on_c, 9, 42, 60
6, 55679, Note_on_c, 9, 42, 0
6, 55680, Note_on_c, 9, 42, 127
6, 55919, Note_on_c, 9, 42, 0
6, 55920, Note_on_c, 9, 42, 60
6, 56159, Note_on_c, 9, 42, 0
6, 56160, Note_on_c, 9, 42, 127
6, 56399, Note_on_c, 9, 42, 0
6, 56400, Note_on_c, 9, 42, 60
6, 56639, Note_on_c, 9, 42, 0
6, 56640, Note_on_c, 9, 42, 127
6, 56879, Note_on_c, 9, 42, 0
6, 56880, Note_on_c, 9, 42, 60
6, 57119, Note_on_c, 9, 42, 0
6, 57120, Note_on_c, 9, 42, 127
6, 57359, Note_on_c, 9, 42, 0
6, 57360, Note_on_c, 9, 42, 60
6, 57599, Note_on_c, 9, 42, 0
6, 57600, Note_on_c, 9, 42, 127
6, 57839, Note_on_c, 9, 42, 0
6, 57840, Note_on_c, 9, 42, 60
6, 58079, Note_on_c, 9, 42, 0
6, 58080, Note_on_c, 9, 42, 127
6, 58319, Note_on_c, 9, 42, 0
6, 58320, Note_on_c, 9, 42, 60
6, 58559, Note_on_c, 9, 42, 0
6, 58560, Note_on_c, 9, 42, 127
6, 58799, Note_on_c, 9, 42, 0
6, 58800, Note_on_c, 9, 42, 60
6, 59039, Note_on_c, 9, 42, 0
6, 59040, Note_on_c, 9, 42, 127
6, 59279, Note_on_c, 9, 42, 0
6, 59280, Note_on_c, 9, 42, 60
6, 59519, Note_on_c, 9, 42, 0
6, 59520, Note_on_c, 9, 42, 127
6, 59759, Note_on_c, 9, 42, 0
6, 59760, Note_on_c, 9, 42, 60
6, 59999, Note_on_c, 9, 42, 0
6, 60000, Note_on_c, 9, 42, 127
6, 60239, Note_on_c, 9, 42, 0
6, 60240, Note_on_c, 9, 42, 60
6, 60479, Note_on_c, 9, 42, 0
6, 60480, Note_on_c, 9, 42, 127
6, 60719, Note_on_c, 9, 42, 0
6, 60720, Note_on_c, 9, 42, 60
6, 60959, Note_on_c, 9, 42, 0
6, 60960, Note_on_c, 9, 42, 127
6, 61199, Note_on_c, 9, 42, 0
6, 61200, Note_on_c, 9, 42, 60
6, 61439, Note_on_c, 9, 42, 0
6, 61440, Note_on_c, 9, 42, 127
6, 61679, Note_on_c, 9, 42, 0
6, 61680, Note_on_c, 9, 42, 60
6, 61919, Note_on_c, 9, 42, 0
6, 61920, Note_on_c, 9, 42, 127
6, 62399, Note_on_c, 9, 42, 0
6, 62400, Note_on_c, 9, 42, 127
6, 62639, Note_on_c, 9, 42, 0
6, 62640, Note_on_c, 9, 42, 60
6, 62879, Note_on_c, 9, 42, 0
6, 62880, Note_on_c, 9, 42, 127
6, 63119, Note_on_c, 9, 42, 0
6, 63120, Note_on_c, 9, 42, 60
6, 63359, Note_on_c, 9, 42, 0
6, 63360, Note_on_c, 9, 42, 127
6, 63599, Note_on_c, 9, 42, 0
6, 63600, Note_on_c, 9, 42, 60
6, 63839, Note_on_c, 9, 42, 0
6, 63840, Note_on_c, 9, 42, 127
6, 64079, Note_on_c, 9, 42, 0
6, 64080, Note_on_c, 9, 42, 60
6, 64319, Note_on_c, 9, 42, 0
6, 64320, Note_on_c, 9, 42, 127
6, 64559, Note_on_c, 9, 42, 0
6, 64560, Note_on_c, 9, 42, 60
6, 64799, Note_on_c, 9, 42, 0
6, 64800, Note_on_c, 9, 42, 127
6, 65039, Note_on_c, 9, 42, 0
6, 65040, Note_on_c, 9, 42, 60
6, 65279, Note_on_c, 9, 42, 0
6, 65280, Note_on_c, 9, 42, 127
6, 65519, Note_on_c, 9, 42, 0
6, 65520, Note_on_c, 9, 42, 60
6, 65759, Note_on_c, 9, 42, 0
6, 65760, Note_on_c, 9, 42, 127
6, 65999, Note_on_c, 9, 42, 0
6, 66000, Note_on_c, 9, 42, 60
6, 66239, Note_on_c, 9, 42, 0
6, 66240, Note_on_c, 9, 42, 127
6, 66479, Note_on_c, 9, 42, 0
6, 66480, Note_on_c, 9, 42, 60
6, 66719, Note_on_c, 9, 42, 0
6, 66720, Note_on_c, 9, 42, 127
6, 66959, Note_on_c, 9, 42, 0
6, 66960, Note_on_c, 9, 42, 60
6, 67199, Note_on_c, 9, 42, 0
6, 67200, Note_on_c, 9, 42, 127
6, 67439, Note_on_c, 9, 42, 0
6, 67440, Note_on_c, 9, 42, 60
6, 67679, Note_on_c, 9, 42, 0
6, 67680, Note_on_c, 9, 42, 127
6, 67919, Note_on_c, 9, 42, 0
6, 67920, Note_on_c, 9, 42, 60
6, 68159, Note_on_c, 9, 42, 0
6, 68160, Note_on_c, 9, 42, 127
6, 68399, Note_on_c, 9, 42, 0
6, 68400, Note_on_c, 9, 42, 60
6, 68639, Note_on_c, 9, 42, 0
6, 68640, Note_on_c, 9, 42, 127
6, 68879, Note_on_c, 9, 42, 0
6, 68880, Note_on_c, 9, 42, 60
6, 69119, Note_on_c, 9, 42, 0
6, 69120, Note_on_c, 9, 42, 127
6, 69359, Note_on_c, 9, 42, 0
6, 69360, Note_on_c, 9, 42, 60
6, 69599, Note_on_c, 9, 42, 0
6, 69600, Note_on_c, 9, 42, 127
6, 70079, Note_on_c, 9, 42, 0
6, 70080, Note_on_c, 9, 42, 127
6, 70319, Note_on_c, 9, 42, 0
6, 70320, Note_on_c, 9, 42, 60
6, 70559, Note_on_c, 9, 42, 0
6, 70560, Note_on_c, 9, 42, 127
6, 70799, Note_on_c, 9, 42, 0
6, 70800, Note_on_c, 9, 42, 60
6, 71039, Note_on_c, 9, 42, 0
6, 71040, Note_on_c, 9, 42, 127
6, 71279, Note_on_c, 9, 42, 0
6, 71280, Note_on_c, 9, 42, 60
6, 71519, Note_on_c, 9, 42, 0
6, 71520, Note_on_c, 9, 42, 127
6, 71759, Note_on_c, 9, 42, 0
6, 71760, Note_on_c, 9, 42, 60
6, 71999, Note_on_c, 9, 42, 0
6, 72000, Note_on_c, 9, 42, 127
6, 72239, Note_on_c, 9, 42, 0
6, 72240, Note_on_c, 9, 42, 60
6, 72479, Note_on_c, 9, 42, 0
6, 72480, Note_on_c, 9, 42, 127
6, 72719, Note_on_c, 9, 42, 0
6, 72720, Note_on_c, 9, 42, 60
6, 72959, Note_on_c, 9, 42, 0
6, 72960, Note_on_c, 9, 42, 127
6, 73199, Note_on_c, 9, 42, 0
6, 73200, Note_on_c, 9, 42, 60
6, 73439, Note_on_c, 9, 42, 0
6, 73440, Note_on_c, 9, 42, 127
6, 73679, Note_on_c, 9, 42, 0
6, 73680, Note_on_c, 9, 42, 60
6, 73919, Note_on_c, 9, 42, 0
6, 73920, Note_on_c, 9, 42, 127
6, 74159, Note_on_c, 9, 42, 0
6, 74160, Note_on_c, 9, 42, 60
6, 74399, Note_on_c, 9, 42, 0
6, 74400, Note_on_c, 9, 42, 127
6, 74639, Note_on_c, 9, 42, 0
6, 74640, Note_on_c, 9, 42, 60
6, 74879, Note_on_c, 9, 42, 0
6, 74880, Note_on_c, 9, 42, 127
6, 75119, Note_on_c, 9, 42, 0
6, 75120, Note_on_c, 9, 42, 60
6, 75359, Note_on_c, 9, 42, 0
6, 75360, Note_on_c, 9, 42, 127
6, 75599, Note_on_c, 9, 42, 0
6, 75600, Note_on_c, 9, 42, 60
6, 75839, Note_on_c, 9, 42, 0
6, 75840, Note_on_c, 9, 42, 127
6, 76079, Note_on_c, 9, 42, 0
6, 76080, Note_on_c, 9, 42, 60
6, 76319, Note_on_c, 9, 42, 0
6, 76320, Note_on_c, 9, 42, 127
6, 76559, Note_on_c, 9, 42, 0
6, 76560, Note_on_c, 9, 42, 60
6, 76799, Note_on_c, 9, 42, 0
6, 76800, Note_on_c, 9, 42, 127
6, 77039, Note_on_c, 9, 42, 0
6, 77040, Note_on_c, 9, 42, 60
6, 77279, Note_on_c, 9, 42, 0
6, 77280, Note_on_c, 9, 42, 127
6, 77759, Note_on_c, 9, 42, 0
6, 77760, Note_on_c, 9, 42, 127
6, 77999, Note_on_c, 9, 42, 0
6, 78000, Note_on_c, 9, 42, 60
6, 78239, Note_on_c, 9, 42, 0
6, 78240, Note_on_c, 9, 42, 127
6, 78479, Note_on_c, 9, 42, 0
6, 78480, Note_on_c, 9, 42, 60
6, 78719, Note_on_c, 9, 42, 0
6, 78720, Note_on_c, 9, 42, 127
6, 78959, Note_on_c, 9, 42, 0
6, 78960, Note_on_c, 9, 42, 60
6, 79199, Note_on_c, 9, 42, 0
6, 79200, Note_on_c, 9, 42, 127
6, 79439, Note_on_c, 9, 42, 0
6, 79440, Note_on_c, 9, 42, 60
6, 79679, Note_on_c, 9, 42, 0
6, 79680, Note_on_c, 9, 42, 127
6, 79919, Note_on_c, 9, 42, 0
6, 79920, Note_on_c, 9, 42, 60
6, 80159, Note_on_c, 9, 42, 0
6, 80160, Note_on_c, 9, 42, 127
6, 80399, Note_on_c, 9, 42, 0
6, 80400, Note_on_c, 9, 42, 60
6, 80639, Note_on_c, 9, 42, 0
6, 80640, Note_on_c, 9, 42, 127
6, 80879, Note_on_c, 9, 42, 0
6, 80880, Note_on_c, 9, 42, 60
6, 81119, Note_on_c, 9, 42, 0
6, 81120, Note_on_c, 9, 42, 127
6, 81359, Note_on_c, 9, 42, 0
6, 81360, Note_on_c, 9, 42, 60
6, 81599, Note_on_c, 9, 42, 0
6, 81600, Note_on_c, 9, 42, 127
6, 81839, Note_on_c, 9, 42, 0
6, 81840, Note_on_c, 9, 42, 60
6, 82079, Note_on_c, 9, 42, 0
6, 82080, Note_on_c, 9, 42, 127
6, 82319, Note_on_c, 9, 42, 0
6, 82320, Note_on_c, 9, 42, 60
6, 82559, Note_on_c, 9, 42, 0
6, 82560, Note_on_c, 9, 42, 127
6, 82799, Note_on_c, 9, 42, 0
6, 82800, Note_on_c, 9, 42, 60
6, 83039, Note_on_c, 9, 42, 0
6, 83040, Note_on_c, 9, 42, 127
6, 83279, Note_on_c, 9, 42, 0
6, 83280, Note_on_c, 9, 42, 60
6, 83519, Note_on_c, 9, 42, 0
6, 83520, Note_on_c, 9, 42, 127
6, 83759, Note_on_c, 9, 42, 0
6, 83760, Note_on_c, 9, 42, 60
6, 83999, Note_on_c, 9, 42, 0
6, 84000, Note_on_c, 9, 42, 127
6, 84239, Note_on_c, 9, 42, 0
6, 84240, Note_on_c, 9, 42, 60
6, 84479, Note_on_c, 9, 42, 0
6, 84480, Note_on_c, 9, 42, 127
6, 84719, Note_on_c, 9, 42, 0
6, 84720, Note_on_c, 9, 42, 60
6, 84959, Note_on_c, 9, 42, 0
6, 84960, Note_on_c, 9, 42, 127
6, 85439, Note_on_c, 9, 42, 0
6, 85440, Note_on_c, 9, 42, 127
6, 85679, Note_on_c, 9, 42, 0
6, 85680, Note_on_c, 9, 42, 60
6, 85919, Note_on_c, 9, 42, 0
6, 85920, Note_on_c, 9, 42, 127
6, 86159, Note_on_c, 9, 42, 0
6, 86160, Note_on_c, 9, 42, 60
6, 86399, Note_on_c, 9, 42, 0
6, 86400, Note_on_c, 9, 42, 127
6, 86639, Note_on_c, 9, 42, 0
6, 86640, Note_on_c, 9, 42, 60
6, 86879, Note_on_c, 9, 42, 0
6, 86880, Note_on_c, 9, 42, 127
6, 87119, Note_on_c, 9, 42, 0
6, 87120, Note_on_c, 9, 42, 60
6, 87359, Note_on_c, 9, 42, 0
6, 87360, Note_on_c, 9, 42, 127
6, 87599, Note_on_c, 9, 42, 0
6, 87600, Note_on_c, 9, 42, 60
6, 87839, Note_on_c, 9, 42, 0
6, 87840, Note_on_c, 9, 42, 127
6, 88079, Note_on_c, 9, 42, 0
6, 88080, Note_on_c, 9, 42, 60
6, 88319, Note_on_c, 9, 42, 0
6, 88320, Note_on_c, 9, 42, 127
6, 88559, Note_on_c, 9, 42, 0
6, 88560, Note_on_c, 9, 42, 60
6, 88799, Note_on_c, 9, 42, 0
6, 88800, Note_on_c, 9, 42, 127
6, 89039, Note_on_c, 9, 42, 0
6, 89040, Note_on_c, 9, 42, 60
6, 89279, Note_on_c, 9, 42, 0
6, 89280, Note_on_c, 9, 42, 127
6, 89519, Note_on_c, 9, 42, 0
6, 89520, Note_on_c, 9, 42, 60
6, 89759, Note_on_c, 9, 42, 0
6, 89760, Note_on_c, 9, 42, 127
6, 89999, Note_on_c, 9, 42, 0
6, 90000, Note_on_c, 9, 42, 60
6, 90239, Note_on_c, 9, 42, 0
6, 90240, Note_on_c, 9, 42, 127
6, 90479, Note_on_c, 9, 42, 0
6, 90480, Note_on_c, 9, 42, 60
6, 90719, Note_on_c, 9, 42, 0
6, 90720, Note_on_c, 9, 42, 127
6, 90959, Note_on_c, 9, 42, 0
6, 90960, Note_on_c, 9, 42, 60
6, 91199, Note_on_c, 9, 42, 0
6, 91200, Note_on_c, 9, 42, 127
6, 91439, Note_on_c, 9, 42, 0
6, 91440, Note_on_c, 9, 42, 60
6, 91679, Note_on_c, 9, 42, 0
6, 91680, Note_on_c, 9, 42, 127
6, 91919, Note_on_c, 9, 42, 0
6, 91920, Note_on_c, 9, 42, 60
6, 92159, Note_on_c, 9, 42, 0
6, 92160, Note_on_c, 9, 42, 127
6, 92399, Note_on_c, 9, 42, 0
6, 92400, Note_on_c, 9, 42, 60
6, 92639, Note_on_c, 9, 42, 0
6, 92640, Note_on_c, 9, 42, 127
6, 93119, Note_on_c, 9, 42, 0
6, 93120, Note_on_c, 9, 42, 127
6, 93359, Note_on_c, 9, 42, 0
6, 93360, Note_on_c, 9, 42, 60
6, 93599, Note_on_c, 9, 42, 0
6, 93600, Note_on_c, 9, 42, 127
6, 93839, Note_on_c, 9, 42, 0
6, 93840, Note_on_c, 9, 42, 60
6, 94079, Note_on_c, 9, 42, 0
6, 94080, Note_on_c, 9, 42, 127
6, 94319, Note_on_c, 9, 42, 0
6, 94320, Note_on_c, 9, 42, 60
6, 94559, Note_on_c, 9, 42, 0
6, 94560, Note_on_c, 9, 42, 127
6, 94799, Note_on_c, 9, 42, 0
6, 94800, Note_on_c, 9, 42, 60
6, 95039, Note_on_c, 9, 42, 0
6, 95040, Note_on_c, 9, 42, 127
6, 95279, Note_on_c, 9, 42, 0
6, 95280, Note_on_c, 9, 42, 60
6, 95519, Note_on_c, 9, 42, 0
6, 95520, Note_on_c, 9, 42, 127
6, 95759, Note_on_c, 9, 42, 0
6, 95760, Note_on_c, 9, 42, 60
6, 95999, Note_on_c, 9, 42, 0
6, 96000, Note_on_c, 9, 42, 127
6, 96239, Note_on_c, 9, 42, 0
6, 96240, Note_on_c, 9, 42, 60
6, 96479, Note_on_c, 9, 42, 0
6, 96480, Note_on_c, 9, 42, 127
6, 96719, Note_on_c, 9, 42, 0
6, 96720, Note_on_c, 9, 42, 60
6, 96959, Note_on_c, 9, 42, 0
6, 96960, Note_on_c, 9, 42, 127
6, 97199, Note_on_c, 9, 42, 0
6, 97200, Note_on_c, 9, 42, 60
6, 97439, Note_on_c, 9, 42, 0
6, 97440, Note_on_c, 9, 42, 127
6, 97679, Note_on_c, 9, 42, 0
6, 97680, Note_on_c, 9, 42, 60
6, 97919, Note_on_c, 9, 42, 0
6, 97920, Note_on_c, 9, 42, 127
6, 98159, Note_on_c, 9, 42, 0
6, 98160, Note_on_c, 9, 42, 60
6, 98399, Note_on_c, 9, 42, 0
6, 98400, Note_on_c, 9, 42, 127
6, 98639, Note_on_c, 9, 42, 0
6, 98640, Note_on_c, 9, 42, 60
6, 98879, Note_on_c, 9, 42, 0
6, 98880, Note_on_c, 9, 42, 127
6, 99119, Note_on_c, 9, 42, 0
6, 99120, Note_on_c, 9, 42, 60
6, 99359, Note_on_c, 9, 42, 0
6, 99360, Note_on_c, 9, 42, 127
6, 99599, Note_on_c, 9, 42, 0
6, 99600, Note_on_c, 9, 42, 60
6, 99839, Note_on_c, 9, 42, 0
6, 99840, Note_on_c, 9, 42, 127
6, 100079, Note_on_c, 9, 42, 0
6, 100080, Note_on_c, 9, 42, 60
6, 100319, Note_on_c, 9, 42, 0
6, 100320, Note_on_c, 9, 42, 127
6, 100799, Note_on_c, 9, 42, 0
6, 100800, Note_on_c, 9, 42, 127
6, 101039, Note_on_c, 9, 42, 0
6, 101040, Note_on_c, 9, 42, 60
6, 101279, Note_on_c, 9, 42, 0
6, 101280, Note_on_c, 9, 42, 127
6, 101519, Note_on_c, 9, 42, 0
6, 101520, Note_on_c, 9, 42, 60
6, 101759, Note_on_c, 9, 42, 0
6, 101760, Note_on_c, 9, 42, 127
6, 101999, Note_on_c, 9, 42, 0
6, 102000, Note_on_c, 9, 42, 60
6, 102239, Note_on_c, 9, 42, 0
6, 102240, Note_on_c, 9, 42, 127
6, 102479, Note_on_c, 9, 42, 0
6, 102480, Note_on_c, 9, 42, 60
6, 102719, Note_on_c, 9, 42, 0
6, 102720, Note_on_c, 9, 42, 127
6, 102959, Note_on_c, 9, 42, 0
6, 102960, Note_on_c, 9, 42, 60
6, 103199, Note_on_c, 9, 42, 0
6, 103200, Note_on_c, 9, 42, 127
6, 103439, Note_on_c, 9, 42, 0
6, 103440, Note_on_c, 9, 42, 60
6, 103679, Note_on_c, 9, 42, 0
6, 103680, Note_on_c, 9, 42, 127
6, 103919, Note_on_c, 9, 42, 0
6, 103920, Note_on_c, 9, 42, 60
6, 104159, Note_on_c, 9, 42, 0
6, 104160, Note_on_c, 9, 42, 127
6, 104399, Note_on_c, 9, 42, 0
6, 104400, Note_on_c, 9, 42, 60
6, 104639, Note_on_c, 9, 42, 0
6, 104640, Note_on_c, 9, 42, 127
6, 104879, Note_on_c, 9, 42, 0
6, 104880, Note_on_c, 9, 42, 60
6, 105119, Note_on_c, 9, 42, 0
6, 105120, Note_on_c, 9, 42, 127
6, 105359, Note_on_c, 9, 42, 0
6, 105360, Note_on_c, 9, 42, 60
6, 105599, Note_on_c, 9, 42, 0
6, 105600, Note_on_c, 9, 42, 127
6, 105839, Note_on_c, 9, 42, 0
6, 105840, Note_on_c, 9, 42, 60
6, 106079, Note_on_c, 9, 42, 0
6, 106080, Note_on_c, 9, 42, 127
6, 106319, Note_on_c, 9, 42, 0
6, 106320, Note_on_c, 9, 42, 60
6, 106559, Note_on_c, 9, 42, 0
6, 106560, Note_on_c, 9, 42, 127
6, 106799, Note_on_c, 9, 42, 0
6, 106800, Note_on_c, 9, 42, 60
6, 107039, Note_on_c, 9, 42, 0
6, 107040, Note_on_c, 9, 42, 127
6, 107279, Note_on_c, 9, 42, 0
6, 107280, Note_on_c, 9, 42, 60
6, 107519, Note_on_c, 9, 42, 0
6, 107520, Note_on_c, 9, 42, 127
6, 107759, Note_on_c, 9, 42, 0
6, 107760, Note_on_c, 9, 42, 60
6, 107999, Note_on_c, 9, 42, 0
6, 108000, Note_on_c, 9, 42, 127
6, 108479, Note_on_c, 9, 42, 0
6, 108480, Note_on_c, 9, 42, 127
6, 108719, Note_on_c, 9, 42, 0
6, 108720, Note_on_c, 9, 42, 60
6, 108959, Note_on_c, 9, 42, 0
6, 108960, Note_on_c, 9, 42, 127
6, 109199, Note_on_c, 9, 42, 0
6, 109200, Note_on_c, 9, 42, 60
6, 109439, Note_on_c, 9, 42, 0
6, 109440, Note_on_c, 9, 42, 127
6, 109679, Note_on_c, 9, 42, 0
6, 109680, Note_on_c, 9, 42, 60
6, 109919, Note_on_c, 9, 42, 0
6, 109920, Note_on_c, 9, 42, 127
6, 110159, Note_on_c, 9, 42, 0
6, 110160, Note_on_c, 9, 42, 60
6, 110399, Note_on_c, 9, 42, 0
6, 110400, Note_on_c, 9, 42, 127
6, 110639, Note_on_c, 9, 42, 0
6, 110640, Note_on_c, 9, 42, 60
6, 110879, Note_on_c, 9, 42, 0
6, 110880, Note_on_c, 9, 42, 127
6, 111119, Note_on_c, 9, 42, 0
6, 111120, Note_on_c, 9, 42, 60
6, 111359, Note_on_c, 9, 42, 0
6, 111360, Note_on_c, 9, 42, 127
6, 111599, Note_on_c, 9, 42, 0
6, 111600, Note_on_c, 9, 42, 60
6, 111839, Note_on_c, 9, 42, 0
6, 111840, Note_on_c, 9, 42, 127
6, 112079, Note_on_c, 9, 42, 0
6, 112080, Note_on_c, 9, 42, 60
6, 112319, Note_on_c, 9, 42, 0
6, 112320, Note_on_c, 9, 42, 127
6, 112559, Note_on_c, 9, 42, 0
6, 112560, Note_on_c, 9, 42, 60
6, 112799, Note_on_c, 9, 42, 0
6, 112800, Note_on_c, 9, 42, 127
6, 113039, Note_on_c, 9, 42, 0
6, 113040, Note_on_c, 9, 42, 60
6, 113279, Note_on_c, 9, 42, 0
6, 113280, Note_on_c, 9, 42, 127
6, 113519, Note_on_c, 9, 42, 0
6, 113520, Note_on_c, 9, 42, 60
6, 113759, Note_on_c, 9, 42, 0
6, 113760, Note_on_c, 9, 42, 127
6, 113999, Note_on_c, 9, 42, 0
6, 114000, Note_on_c, 9, 42, 60
6, 114239, Note_on_c, 9, 42, 0
6, 114240, Note_on_c, 9, 42, 127
6, 114479, Note_on_c, 9, 42, 0
6, 114480, Note_on_c, 9, 42, 60
6, 114719, Note_on_c, 9, 42, 0
6, 114720, Note_on_c, 9, 42, 127
6, 114959, Note_on_c, 9, 42, 0
6, 114960, Note_on_c, 9, 42, 60
6, 115199, Note_on_c, 9, 42, 0
6, 115200, Note_on_c, 9, 42, 127
6, 115439, Note_on_c, 9, 42, 0
6, 115440, Note_on_c, 9, 42, 60
6, 115679, Note_on_c, 9, 42, 0
6, 115680, Note_on_c, 9, 42, 127
6, 116159, Note_on_c, 9, 42, 0
6, 116160, Note_on_c, 9, 42, 127
6, 116399, Note_on_c, 9, 42, 0
6, 116400, Note_on_c, 9, 42, 60
6, 116639, Note_on_c, 9, 42, 0
6, 116640, Note_on_c, 9, 42, 127
6, 116879, Note_on_c, 9, 42, 0
6, 116880, Note_on_c, 9, 42, 60
6, 117119, Note_on_c, 9, 42, 0
6, 117120, Note_on_c, 9, 42, 127
6, 117359, Note_on_c, 9, 42, 0
6, 117360, Note_on_c, 9, 42, 60
6, 117599, Note_on_c, 9, 42, 0
6, 117600, Note_on_c, 9, 42, 127
6, 117839, Note_on_c, 9, 42, 0
6, 117840, Note_on_c, 9, 42, 60
6, 118079, Note_on_c, 9, 42, 0
6, 118080, Note_on_c, 9, 42, 127
6, 118319, Note_on_c, 9, 42, 0
6, 118320, Note_on_c, 9, 42, 60
6, 118559, Note_on_c, 9, 42, 0
6, 118560, Note_on_c, 9, 42, 127
6, 118799, Note_on_c, 9, 42, 0
6, 118800, Note_on_c, 9, 42, 60
6, 119039, Note_on_c, 9, 42, 0
6, 119040, Note_on_c, 9, 42, 127
6, 119279, Note_on_c, 9, 42, 0
6, 119280, Note_on_c, 9, 42, 60
6, 119519, Note_on_c, 9, 42, 0
6, 119520, Note_on_c, 9, 42, 127
6, 119759, Note_on_c, 9, 42, 0
6, 119760, Note_on_c, 9, 42, 60
6, 119999, Note_on_c, 9, 42, 0
6, 120000, Note_on_c, 9, 42, 127
6, 120239, Note_on_c, 9, 42, 0
6, 120240, Note_on_c, 9, 42, 60
6, 120479, Note_on_c, 9, 42, 0
6, 120480, Note_on_c, 9, 42, 127
6, 120719, Note_on_c, 9, 42, 0
6, 120720, Note_on_c, 9, 42, 60
6, 120959, Note_on_c, 9, 42, 0
6, 120960, Note_on_c, 9, 42, 127
6, 121199, Note_on_c, 9, 42, 0
6, 121200, Note_on_c, 9, 42, 60
6, 121439, Note_on_c, 9, 42, 0
6, 121440, Note_on_c, 9, 42, 127
6, 121679, Note_on_c, 9, 42, 0
6, 121680, Note_on_c, 9, 42, 60
6, 121919, Note_on_c, 9, 42, 0
6, 121920, Note_on_c, 9, 42, 127
6, 122159, Note_on_c, 9, 42, 0
6, 122160, Note_on_c, 9, 42, 60
6, 122399, Note_on_c, 9, 42, 0
6, 122400, Note_on_c, 9, 42, 127
6, 122639, Note_on_c, 9, 42, 0
6, 122640, Note_on_c, 9, 42, 60
6, 122879, Note_on_c, 9, 42, 0
6, 122880, Note_on_c, 9, 42, 127
6, 123119, Note_on_c, 9, 42, 0
6, 123120, Note_on_c, 9, 42, 60
6, 123359, Note_on_c, 9, 42, 0
6, 123360, Note_on_c, 9, 42, 127
6, 123839, Note_on_c, 9, 42, 0
6, 123840, Note_on_c, 9, 42, 127
6, 124079, Note_on_c, 9, 42, 0
6, 124080, Note_on_c, 9, 42, 60
6, 124319, Note_on_c, 9, 42, 0
6, 124320, Note_on_c, 9, 42, 127
6, 124559, Note_on_c, 9, 42, 0
6, 124560, Note_on_c, 9, 42, 60
6, 124799, Note_on_c, 9, 42, 0
6, 124800, Note_on_c, 9, 42, 127
6, 125039, Note_on_c, 9, 42, 0
6, 125040, Note_on_c, 9, 42, 60
6, 125279, Note_on_c, 9, 42, 0
6, 125280, Note_on_c, 9, 42, 127
6, 125519, Note_on_c, 9, 42, 0
6, 125520, Note_on_c, 9, 42, 60
6, 125759, Note_on_c, 9, 42, 0
6, 125760, Note_on_c, 9, 42, 127
6, 125999, Note_on_c, 9, 42, 0
6, 126000, Note_on_c, 9, 42, 60
6, 126239, Note_on_c, 9, 42, 0
6, 126240, Note_on_c, 9, 42, 127
6, 126479, Note_on_c, 9, 42, 0
6, 126480, Note_on_c, 9, 42, 60
6, 126719, Note_on_c, 9, 42, 0
6, 126720, Note_on_c, 9, 42, 127
6, 126959, Note_on_c, 9, 42, 0
6, 126960, Note_on_c, 9, 42, 60
6, 127199, Note_on_c, 9, 42, 0
6, 127200, Note_on_c, 9, 42, 127
6, 127439, Note_on_c, 9, 42, 0
6, 127440, Note_on_c, 9, 42, 60
6, 127679, Note_on_c, 9, 42, 0
6, 127680, Note_on_c, 9, 42, 127
6, 127919, Note_on_c, 9, 42, 0
6, 127920, Note_on_c, 9, 42, 60
6, 128159, Note_on_c, 9, 42, 0
6, 128160, Note_on_c, 9, 42, 127
6, 128399, Note_on_c, 9, 42, 0
6, 128400, Note_on_c, 9, 42, 60
6, 128639, Note_on_c, 9, 42, 0
6, 128640, Note_on_c, 9, 42, 127
6, 128879, Note_on_c, 9, 42, 0
6, 128880, Note_on_c, 9, 42, 60
6, 129119, Note_on_c, 9, 42, 0
6, 129120, Note_on_c, 9, 42, 127
6, 129359, Note_on_c, 9, 42, 0
6, 129360, Note_on_c, 9, 42, 60
6, 129599, Note_on_c, 9, 42, 0
6, 129600, Note_on_c, 9, 42, 127
6, 129839, Note_on_c, 9, 42, 0
6, 129840, Note_on_c, 9, 42, 60
6, 130079, Note_on_c, 9, 42, 0
6, 130080, Note_on_c, 9, 42, 127
6, 130319, Note_on_c, 9, 42, 0
6, 130320, Note_on_c, 9, 42, 60
6, 130559, Note_on_c, 9, 42, 0
6, 130560, Note_on_c, 9, 42, 127
6, 130799, Note_on_c, 9, 42, 0
6, 130800, Note_on_c, 9, 42, 60
6, 131039, Note_on_c, 9, 42, 0
6, 131040, Note_on_c, 9, 42, 127
6, 131519, Note_on_c, 9, 42, 0
6, 131520, Note_on_c, 9, 42, 127
6, 131759, Note_on_c, 9, 42, 0
6, 131760, Note_on_c, 9, 42, 60
6, 131999, Note_on_c, 9, 42, 0
6, 132000, Note_on_c, 9, 42, 127
6, 132239, Note_on_c, 9, 42, 0
6, 132240, Note_on_c, 9, 42, 60
6, 132479, Note_on_c, 9, 42, 0
6, 132480, Note_on_c, 9, 42, 127
6, 132719, Note_on_c, 9, 42, 0
6, 132720, Note_on_c, 9, 42, 60
6, 132959, Note_on_c, 9, 42, 0
6, 132960, Note_on_c, 9, 42, 127
6, 133199, Note_on_c, 9, 42, 0
6, 133200, Note_on_c, 9, 42, 60
6, 133439, Note_on_c, 9, 42, 0
6, 133440, Note_on_c, 9, 42, 127
6, 133679, Note_on_c, 9, 42, 0
6, 133680, Note_on_c, 9, 42, 60
6, 133919, Note_on_c, 9, 42, 0
6, 133920, Note_on_c, 9, 42, 127
6, 134159, Note_on_c, 9, 42, 0
6, 134160, Note_on_c, 9, 42, 60
6, 134399, Note_on_c, 9, 42, 0
6, 134400, Note_on_c, 9, 42, 127
6, 134639, Note_on_c, 9, 42, 0
6, 134640, Note_on_c, 9, 42, 60
6, 134879, Note_on_c, 9, 42, 0
6, 134880, Note_on_c, 9, 42, 127
6, 135119, Note_on_c, 9, 42, 0
6, 135120, Note_on_c, 9, 42, 60
6, 135359, Note_on_c, 9, 42, 0
6, 135360, Note_on_c, 9, 42, 127
6, 135599, Note_on_c, 9, 42, 0
6, 135600, Note_on_c, 9, 42, 60
6, 135839, Note_on_c, 9, 42, 0
6, 135840, Note_on_c, 9, 42, 127
6, 136079, Note_on_c, 9, 42, 0
6, 136080, Note_on_c, 9, 42, 60
6, 136319, Note_on_c, 9, 42, 0
6, 136320, Note_on_c, 9, 42, 127
6, 136559, Note_on_c, 9, 42, 0
6, 136560, Note_on_c, 9, 42, 60
6, 136799, Note_on_c, 9, 42, 0
6, 136800, Note_on_c, 9, 42, 127
6, 137039, Note_on_c, 9, 42, 0
6, 137040, Note_on_c, 9, 42, 60
6, 137279, Note_on_c, 9, 42, 0
6, 137280, Note_on_c, 9, 42, 127
6, 137519, Note_on_c, 9, 42, 0
6, 137520, Note_on_c, 9, 42, 60
6, 137759, Note_on_c, 9, 42, 0
6, 137760, Note_on_c, 9, 42, 127
6, 137999, Note_on_c, 9, 42, 0
6, 138000, Note_on_c, 9, 42, 60
6, 138239, Note_on_c, 9, 42, 0
6, 138240, Note_on_c, 9, 42, 127
6, 138479, Note_on_c, 9, 42, 0
6, 138480, Note_on_c, 9, 42, 60
6, 138719, Note_on_c, 9, 42, 0
6, 138720, Note_on_c, 9, 42, 127
6, 139199, Note_on_c, 9, 42, 0
6, 139200, Note_on_c, 9, 42, 127
6, 139439, Note_on_c, 9, 42, 0
6, 139440, Note_on_c, 9, 42, 60
6, 139679, Note_on_c, 9, 42, 0
6, 139680, Note_on_c, 9, 42, 127
6, 139919, Note_on_c, 9, 42, 0
6, 139920, Note_on_c, 9, 42, 60
6, 140159, Note_on_c, 9, 42, 0
6, 140160, Note_on_c, 9, 42, 127
6, 140399, Note_on_c, 9, 42, 0
6, 140400, Note_on_c, 9, 42, 60
6, 140639, Note_on_c, 9, 42, 0
6, 140640, Note_on_c, 9, 42, 127
6, 140879, Note_on_c, 9, 42, 0
6, 140880, Note_on_c, 9, 42, 60
6, 141119, Note_on_c, 9, 42, 0
6, 141120, Note_on_c, 9, 42, 127
6, 141359, Note_on_c, 9, 42, 0
6, 141360, Note_on_c, 9, 42, 60
6, 141599, Note_on_c, 9, 42, 0
6, 141600, Note_on_c, 9, 42, 127
6, 141839, Note_on_c, 9, 42, 0
6, 141840, Note_on_c, 9, 42, 60
6, 142079, Note_on_c, 9, 42, 0
6, 142080, Note_on_c, 9, 42, 127
6, 142319, Note_on_c, 9, 42, 0
6, 142320, Note_on_c, 9, 42, 60
6, 142559, Note_on_c, 9, 42, 0
6, 142560, Note_on_c, 9, 42, 127
6, 142799, Note_on_c, 9, 42, 0
6, 142800, Note_on_c, 9, 42, 60
6, 143039, Note_on_c, 9, 42, 0
6, 143040, Note_on_c, 9, 42, 127
6, 143279, Note_on_c, 9, 42, 0
6, 143280, Note_on_c, 9, 42, 60
6, 143519, Note_on_c, 9, 42, 0
6, 143520, Note_on_c, 9, 42, 127
6, 143759, Note_on_c, 9, 42, 0
6, 143760, Note_on_c, 9, 42, 60
6, 143999, Note_on_c, 9, 42, 0
6, 144000, Note_on_c, 9, 42, 127
6, 144239, Note_on_c, 9, 42, 0
6, 144240, Note_on_c, 9, 42, 60
6, 144479, Note_on_c, 9, 42, 0
6, 144480, Note_on_c, 9, 42, 127
6, 144719, Note_on_c, 9, 42, 0
6, 144720, Note_on_c, 9, 42, 60
6, 144959, Note_on_c, 9, 42, 0
6, 144960, Note_on_c, 9, 42, 127
6, 145199, Note_on_c, 9, 42, 0
6, 145200, Note_on_c, 9, 42, 60
6, 145439, Note_on_c, 9, 42, 0
6, 145440, Note_on_c, 9, 42, 127
6, 145679, Note_on_c, 9, 42, 0
6, 145680, Note_on_c, 9, 42, 60
6, 145919, Note_on_c, 9, 42, 0
6, 145920, Note_on_c, 9, 42, 127
6, 146159, Note_on_c, 9, 42, 0
6, 146160, Note_on_c, 9, 42, 60
6, 146399, Note_on_c, 9, 42, 0
6, 146400, Note_on_c, 9, 42, 127
6, 146879, Note_on_c, 9, 42, 0
6, 146880, Note_on_c, 9, 42, 127
6, 147119, Note_on_c, 9, 42, 0
6, 147120, Note_on_c, 9, 42, 60
6, 147359, Note_on_c, 9, 42, 0
6, 147360, Note_on_c, 9, 42, 127
6, 147599, Note_on_c, 9, 42, 0
6, 147600, Note_on_c, 9, 42, 60
6, 147839, Note_on_c, 9, 42, 0
6, 147840, Note_on_c, 9, 42, 127
6, 148079, Note_on_c, 9, 42, 0
6, 148080, Note_on_c, 9, 42, 60
6, 148319, Note_on_c, 9, 42, 0
6, 148320, Note_on_c, 9, 42, 127
6, 148559, Note_on_c, 9, 42, 0
6, 148560, Note_on_c, 9, 42, 60
6, 148799, Note_on_c, 9, 42, 0
6, 148800, Note_on_c, 9, 42, 127
6, 149039, Note_on_c, 9, 42, 0
6, 149040, Note_on_c, 9, 42, 60
6, 149279, Note_on_c, 9, 42, 0
6, 149280, Note_on_c, 9, 42, 127
6, 149519, Note_on_c, 9, 42, 0
6, 149520, Note_on_c, 9, 42, 60
6, 149759, Note_on_c, 9, 42, 0
6, 149760, Note_on_c, 9, 42, 127
6, 149999, Note_on_c, 9, 42, 0
6, 150000, Note_on_c, 9, 42, 60
6, 150239, Note_on_c, 9, 42, 0
6, 150240, Note_on_c, 9, 42, 127
6, 150479, Note_on_c, 9, 42, 0
6, 150480, Note_on_c, 9, 42, 60
6, 150719, Note_on_c, 9, 42, 0
6, 150720, Note_on_c, 9, 42, 127
6, 150959, Note_on_c, 9, 42, 0
6, 150960, Note_on_c, 9, 42, 60
6, 151199, Note_on_c, 9, 42, 0
6, 151200, Note_on_c, 9, 42, 127
6, 151439, Note_on_c, 9, 42, 0
6, 151440, Note_on_c, 9, 42, 60
6, 151679, Note_on_c, 9, 42, 0
6, 151680, Note_on_c, 9, 42, 127
6, 151919, Note_on_c, 9, 42, 0
6, 151920, Note_on_c, 9, 42, 60
6, 152159, Note_on_c, 9, 42, 0
6, 152160, Note_on_c, 9, 42, 127
6, 152399, Note_on_c, 9, 42, 0
6, 152400, Note_on_c, 9, 42, 60
6, 152639, Note_on_c, 9, 42, 0
6, 152640, Note_on_c, 9, 42, 127
6, 152879, Note_on_c, 9, 42, 0
6, 152880, Note_on_c, 9, 42, 60
6, 153119, Note_on_c, 9, 42, 0
6, 153120, Note_on_c, 9, 42, 127
6, 153359, Note_on_c, 9, 42, 0
6, 153360, Note_on_c, 9, 42, 60
6, 153599, Note_on_c, 9, 42, 0
6, 153600, Note_on_c, 9, 42, 127
6, 153839, Note_on_c, 9, 42, 0
6, 153840, Note_on_c, 9, 42, 60
6, 154079, Note_on_c, 9, 42, 0
6, 154080, Note_on_c, 9, 42, 127
6, 154559, Note_on_c, 9, 42, 0
6, 154560, Note_on_c, 9, 42, 127
6, 154799, Note_on_c, 9, 42, 0
6, 154800, Note_on_c, 9, 42, 60
6, 155039, Note_on_c, 9, 42, 0
6, 155040, Note_on_c, 9, 42, 127
6, 155279, Note_on_c, 9, 42, 0
6, 155280, Note_on_c, 9, 42, 60
6, 155519, Note_on_c, 9, 42, 0
6, 155520, Note_on_c, 9, 42, 127
6, 155759, Note_on_c, 9, 42, 0
6, 155760, Note_on_c, 9, 42, 60
6, 155999, Note_on_c, 9, 42, 0
6, 156000, Note_on_c, 9, 42, 127
6, 156239, Note_on_c, 9, 42, 0
6, 156240, Note_on_c, 9, 42, 60
6, 156479, Note_on_c, 9, 42, 0
6, 156480, Note_on_c, 9, 42, 127
6, 156719, Note_on_c, 9, 42, 0
6, 156720, Note_on_c, 9, 42, 60
6, 156959, Note_on_c, 9, 42, 0
6, 156960, Note_on_c, 9, 42, 127
6, 157199, Note_on_c, 9, 42, 0
6, 157200, Note_on_c, 9, 42, 60
6, 157439, Note_on_c, 9, 42, 0
6, 157440, Note_on_c, 9, 42, 127
6, 157679, Note_on_c, 9, 42, 0
6, 157680, Note_on_c, 9, 42, 60
6, 157919, Note_on_c, 9, 42, 0
6, 157920, Note_on_c, 9, 42, 127
6, 158159, Note_on_c, 9, 42, 0
6, 158160, Note_on_c, 9, 42, 60
6, 158399, Note_on_c, 9, 42, 0
6, 158400, Note_on_c, 9, 42, 127
6, 158639, Note_on_c, 9, 42, 0
6, 158640, Note_on_c, 9, 42, 60
6, 158879, Note_on_c, 9, 42, 0
6, 158880, Note_on_c, 9, 42, 127
6, 159119, Note_on_c, 9, 42, 0
6, 159120, Note_on_c, 9, 42, 60
6, 159359, Note_on_c, 9, 42, 0
6, 159360, Note_on_c, 9, 42, 127
6, 159599, Note_on_c, 9, 42, 0
6, 159600, Note_on_c, 9, 42, 60
6, 159839, Note_on_c, 9, 42, 0
6, 159840, Note_on_c, 9, 42, 127
6, 160079, Note_on_c, 9, 42, 0
6, 160080, Note_on_c, 9, 42, 60
6, 160319, Note_on_c, 9, 42, 0
6, 160320, Note_on_c, 9, 42, 127
6, 160559, Note_on_c, 9, 42, 0
6, 160560, Note_on_c, 9, 42, 60
6, 160799, Note_on_c, 9, 42, 0
6, 160800, Note_on_c, 9, 42, 127
6, 161039, Note_on_c, 9, 42, 0
6, 161040, Note_on_c, 9, 42, 60
6, 161279, Note_on_c, 9, 42, 0
6, 161280, Note_on_c, 9, 42, 127
6, 161519, Note_on_c, 9, 42, 0
6, 161520, Note_on_c, 9, 42, 60
6, 161759, Note_on_c, 9, 42, 0
6, 161760, Note_on_c, 9, 42, 127
6, 162239, Note_on_c, 9, 42, 0
6, 162240, Note_on_c, 9, 42, 127
6, 162479, Note_on_c, 9, 42, 0
6, 162480, Note_on_c, 9, 42, 60
6, 162719, Note_on_c, 9, 42, 0
6, 162720, Note_on_c, 9, 42, 127
6, 162959, Note_on_c, 9, 42, 0
6, 162960, Note_on_c, 9, 42, 60
6, 163199, Note_on_c, 9, 42, 0
6, 163200, Note_on_c, 9, 42, 127
6, 163439, Note_on_c, 9, 42, 0
6, 163440, Note_on_c, 9, 42, 60
6, 163679, Note_on_c, 9, 42, 0
6, 163680, Note_on_c, 9, 42, 127
6, 163919, Note_on_c, 9, 42, 0
6, 163920, Note_on_c, 9, 42, 60
6, 164159, Note_on_c, 9, 42, 0
6, 164160, Note_on_c, 9, 42, 127
6, 164399, Note_on_c, 9, 42, 0
6, 164400, Note_on_c, 9, 42, 60
6, 164639, Note_on_c, 9, 42, 0
6, 164640, Note_on_c, 9, 42, 127
6, 164879, Note_on_c, 9, 42, 0
6, 164880, Note_on_c, 9, 42, 60
6, 165119, Note_on_c, 9, 42, 0
6, 165120, Note_on_c, 9, 42, 127
6, 165359, Note_on_c, 9, 42, 0
6, 165360, Note_on_c, 9, 42, 60
6, 165599, Note_on_c, 9, 42, 0
6, 165600, Note_on_c, 9, 42, 127
6, 165839, Note_on_c, 9, 42, 0
6, 165840, Note_on_c, 9, 42, 60
6, 166079, Note_on_c, 9, 42, 0
6, 166080, Note_on_c, 9, 42, 127
6, 166319, Note_on_c, 9, 42, 0
6, 166320, Note_on_c, 9, 42, 60
6, 166559, Note_on_c, 9, 42, 0
6, 166560, Note_on_c, 9, 42, 127
6, 166799, Note_on_c, 9, 42, 0
6, 166800, Note_on_c, 9, 42, 60
6, 167039, Note_on_c, 9, 42, 0
6, 167040, Note_on_c, 9, 42, 127
6, 167279, Note_on_c, 9, 42, 0
6, 167280, Note_on_c, 9, 42, 60
6, 167519, Note_on_c, 9, 42, 0
6, 167520, Note_on_c, 9, 42, 127
6, 167759, Note_on_c, 9, 42, 0
6, 167760, Note_on_c, 9, 42, 60
6, 167999, Note_on_c, 9, 42, 0
6, 168000, Note_on_c, 9, 42, 127
6, 168239, Note_on_c, 9, 42, 0
6, 168240, Note_on_c, 9, 42, 60
6, 168479, Note_on_c, 9, 42, 0
6, 168480, Note_on_c, 9, 42, 127
6, 168719, Note_on_c, 9, 42, 0
6, 168720, Note_on_c, 9, 42, 60
6, 168959, Note_on_c, 9, 42, 0
6, 168960, Note_on_c, 9, 42, 127
6, 169199, Note_on_c, 9, 42, 0
6, 169200, Note_on_c, 9, 42, 60
6, 169439, Note_on_c, 9, 42, 0
6, 169440, Note_on_c, 9, 42, 127
6, 169919, Note_on_c, 9, 42, 0
6, 169920, Note_on_c, 9, 42, 127
6, 170159, Note_on_c, 9, 42, 0
6, 170160, Note_on_c, 9, 42, 60
6, 170399, Note_on_c, 9, 42, 0
6, 170400, Note_on_c, 9, 42, 127
6, 170639, Note_on_c, 9, 42, 0
6, 170640, Note_on_c, 9, 42, 60
6, 170879, Note_on_c, 9, 42, 0
6, 170880, Note_on_c, 9, 42, 127
6, 171119, Note_on_c, 9, 42, 0
6, 171120, Note_on_c, 9, 42, 60
6, 171359, Note_on_c, 9, 42, 0
6, 171360, Note_on_c, 9, 42, 127
6, 171599, Note_on_c, 9, 42, 0
6, 171600, Note_on_c, 9, 42, 60
6, 171839, Note_on_c, 9, 42, 0
6, 171840, Note_on_c, 9, 42, 127
6, 172079, Note_on_c, 9, 42, 0
6, 172080, Note_on_c, 9, 42, 60
6, 172319, Note_on_c, 9, 42, 0
6, 172320, Note_on_c, 9, 42, 127
6, 172559, Note_on_c, 9, 42, 0
6, 172560, Note_on_c, 9, 42, 60
6, 172799, Note_on_c, 9, 42, 0
6, 172800, Note_on_c, 9, 42, 127
6, 173039, Note_on_c, 9, 42, 0
6, 173040, Note_on_c, 9, 42, 60
6, 173279, Note_on_c, 9, 42, 0
6, 173280, Note_on_c, 9, 42, 127
6, 173519, Note_on_c, 9, 42, 0
6, 173520, Note_on_c, 9, 42, 60
6, 173759, Note_on_c, 9, 42, 0
6, 173760, Note_on_c, 9, 42, 127
6, 173999, Note_on_c, 9, 42, 0
6, 174000, Note_on_c, 9, 42, 60
6, 174239, Note_on_c, 9, 42, 0
6, 174240, Note_on_c, 9, 42, 127
6, 174479, Note_on_c, 9, 42, 0
6, 174480, Note_on_c, 9, 42, 60
6, 174719, Note_on_c, 9, 42, 0
6, 174720, Note_on_c, 9, 42, 127
6, 174959, Note_on_c, 9, 42, 0
6, 174960, Note_on_c, 9, 42, 60
6, 175199, Note_on_c, 9, 42, 0
6, 175200, Note_on_c, 9, 42, 127
6, 175439, Note_on_c, 9, 42, 0
6, 175440, Note_on_c, 9, 42, 60
6, 175679, Note_on_c, 9, 42, 0
6, 175680, Note_on_c, 9, 42, 127
6, 175919, Note_on_c, 9, 42, 0
6, 175920, Note_on_c, 9, 42, 60
6, 176159, Note_on_c, 9, 42, 0
6, 176160, Note_on_c, 9, 42, 127
6, 176399, Note_on_c, 9, 42, 0
6, 176400, Note_on_c, 9, 42, 60
6, 176639, Note_on_c, 9, 42, 0
6, 176640, Note_on_c, 9, 42, 127
6, 176879, Note_on_c, 9, 42, 0
6, 176880, Note_on_c, 9, 42, 60
6, 177119, Note_on_c, 9, 42, 0
6, 177120, Note_on_c, 9, 42, 127
6, 177599, Note_on_c, 9, 42, 0
6, 177600, Note_on_c, 9, 42, 127
6, 177839, Note_on_c, 9, 42, 0
6, 177840, Note_on_c, 9, 42, 60
6, 178079, Note_on_c, 9, 42, 0
6, 178080, Note_on_c, 9, 42, 127
6, 178319, Note_on_c, 9, 42, 0
6, 178320, Note_on_c, 9, 42, 60
6, 178559, Note_on_c, 9, 42, 0
6, 178560, Note_on_c, 9, 42, 127
6, 178799, Note_on_c, 9, 42, 0
6, 178800, Note_on_c, 9, 42, 60
6, 179039, Note_on_c, 9, 42, 0
6, 179040, Note_on_c, 9, 42, 127
6, 179279, Note_on_c, 9, 42, 0
6, 179280, Note_on_c, 9, 42, 60
6, 179519, Note_on_c, 9, 42, 0
6, 179520, Note_on_c, 9, 42, 127
6, 179759, Note_on_c, 9, 42, 0
6, 179760, Note_on_c, 9, 42, 60
6, 179999, Note_on_c, 9, 42, 0
6, 180000, Note_on_c, 9, 42, 127
6, 180239, Note_on_c, 9, 42, 0
6, 180240, Note_on_c, 9, 42, 60
6, 180479, Note_on_c, 9, 42, 0
6, 180480, Note_on_c, 9, 42, 127
6, 180719, Note_on_c, 9, 42, 0
6, 180720, Note_on_c, 9, 42, 60
6, 180959, Note_on_c, 9, 42, 0
6, 180960, Note_on_c, 9, 42, 127
6, 181199, Note_on_c, 9, 42, 0
6, 181200, Note_on_c, 9, 42, 60
6, 181439, Note_on_c, 9, 42, 0
6, 181440, Note_on_c, 9, 42, 127
6, 181679, Note_on_c, 9, 42, 0
6, 181680, Note_on_c, 9, 42, 60
6, 181919, Note_on_c, 9, 42, 0
6, 181920, Note_on_c, 9, 42, 127
6, 182159, Note_on_c, 9, 42, 0
6, 182160, Note_on_c, 9, 42, 60
6, 182399, Note_on_c, 9, 42, 0
6, 182400, Note_on_c, 9, 42, 127
6, 182639, Note_on_c, 9, 42, 0
6, 182640, Note_on_c, 9, 42, 60
6, 182879, Note_on_c, 9, 42, 0
6, 182880, Note_on_c, 9, 42, 127
6, 183119, Note_on_c, 9, 42, 0
6, 183120, Note_on_c, 9, 42, 60
6, 183359, Note_on_c, 9, 42, 0
6, 183360, Note_on_c, 9, 42, 127
6, 183599, Note_on_c, 9, 42, 0
6, 183600, Note_on_c, 9, 42, 60
6, 183839, Note_on_c, 9, 42, 0
6, 183840, Note_on_c, 9, 42, 127
6, 184079, Note_on_c, 9, 42, 0
6, 184080, Note_on_c, 9, 42, 60
6, 184319, Note_on_c, 9, 42, 0
6, 184320, Note_on_c, 9, 42, 127
6, 184559, Note_on_c, 9, 42, 0
6, 184560, Note_on_c, 9, 42, 60
6, 184799, Note_on_c, 9, 42, 0
6, 184800, Note_on_c, 9, 42, 127
6, 185279, Note_on_c, 9, 42, 0
6, 185280, Note_on_c, 9, 42, 127
6, 185519, Note_on_c, 9, 42, 0
6, 185520, Note_on_c, 9, 42, 60
6, 185759, Note_on_c, 9, 42, 0
6, 185760, Note_on_c, 9, 42, 127
6, 185999, Note_on_c, 9, 42, 0
6, 186000, Note_on_c, 9, 42, 60
6, 186239, Note_on_c, 9, 42, 0
6, 186240, Note_on_c, 9, 42, 127
6, 186479, Note_on_c, 9, 42, 0
6, 186480, Note_on_c, 9, 42, 60
6, 186719, Note_on_c, 9, 42, 0
6, 186720, Note_on_c, 9, 42, 127
6, 186959, Note_on_c, 9, 42, 0
6, 186960, Note_on_c, 9, 42, 60
6, 187199, Note_on_c, 9, 42, 0
6, 187200, Note_on_c, 9, 42, 127
6, 187439, Note_on_c, 9, 42, 0
6, 187440, Note_on_c, 9, 42, 60
6, 187679, Note_on_c, 9, 42, 0
6, 187680, Note_on_c, 9, 42, 127
6, 187919, Note_on_c, 9, 42, 0
6, 187920, Note_on_c, 9, 42, 60
6, 188159, Note_on_c, 9, 42, 0
6, 188160, Note_on_c, 9, 42, 127
6, 188399, Note_on_c, 9, 42, 0
6, 188400, Note_on_c, 9, 42, 60
6, 188639, Note_on_c, 9, 42, 0
6, 188640, Note_on_c, 9, 42, 127
6, 188879, Note_on_c, 9, 42, 0
6, 188880, Note_on_c, 9, 42, 60
6, 189119, Note_on_c, 9, 42, 0
6, 189120, Note_on_c, 9, 42, 127
6, 189359, Note_on_c, 9, 42, 0
6, 189360, Note_on_c, 9, 42, 60
6, 189599, Note_on_c, 9, 42, 0
6, 189600, Note_on_c, 9, 42, 127
6, 189839, Note_on_c, 9, 42, 0
6, 189840, Note_on_c, 9, 42, 60
6, 190079, Note_on_c, 9, 42, 0
6, 190080, Note_on_c, 9, 42, 127
6, 190319, Note_on_c, 9, 42, 0
6, 190320, Note_on_c, 9, 42, 60
6, 190559, Note_on_c, 9, 42, 0
6, 190560, Note_on_c, 9, 42, 127
6, 190799, Note_on_c, 9, 42, 0
6, 190800, Note_on_c, 9, 42, 60
6, 191039, Note_on_c, 9, 42, 0
6, 191040, Note_on_c, 9, 42, 127
6, 191279, Note_on_c, 9, 42, 0
6, 191280, Note_on_c, 9, 42, 60
6, 191519, Note_on_c, 9, 42, 0
6, 191520, Note_on_c, 9, 42, 127
6, 191759, Note_on_c, 9, 42, 0
6, 191760, Note_on_c, 9, 42, 60
6, 191999, Note_on_c, 9, 42, 0
6, 192000, Note_on_c, 9, 42, 127
6, 192239, Note_on_c, 9, 42, 0
6, 192240, Note_on_c, 9, 42, 60
6, 192479, Note_on_c, 9, 42, 0
6, 192480, Note_on_c, 9, 42, 127
6, 192959, Note_on_c, 9, 42, 0
6, 192960, Note_on_c, 9, 42, 127
6, 193199, Note_on_c, 9, 42, 0
6, 193200, Note_on_c, 9, 42, 60
6, 193439, Note_on_c, 9, 42, 0
6, 193440, Note_on_c, 9, 42, 127
6, 193679, Note_on_c, 9, 42, 0
6, 193680, Note_on_c, 9, 42, 60
6, 193919, Note_on_c, 9, 42, 0
6, 193920, Note_on_c, 9, 42, 127
6, 194159, Note_on_c, 9, 42, 0
6, 194160, Note_on_c, 9, 42, 60
6, 194399, Note_on_c, 9, 42, 0
6, 194400, Note_on_c, 9, 42, 127
6, 194639, Note_on_c, 9, 42, 0
6, 194640, Note_on_c, 9, 42, 60
6, 194879, Note_on_c, 9, 42, 0
6, 194880, Note_on_c, 9, 42, 127
6, 195119, Note_on_c, 9, 42, 0
6, 195120, Note_on_c, 9, 42, 60
6, 195359, Note_on_c, 9, 42, 0
6, 195360, Note_on_c, 9, 42, 127
6, 195599, Note_on_c, 9, 42, 0
6, 195600, Note_on_c, 9, 42, 60
6, 195839, Note_on_c, 9, 42, 0
6, 195840, Note_on_c, 9, 42, 127
6, 196079, Note_on_c, 9, 42, 0
6, 196080, Note_on_c, 9, 42, 60
6, 196319, Note_on_c, 9, 42, 0
6, 196320, Note_on_c, 9, 42, 127
6, 196559, Note_on_c, 9, 42, 0
6, 196560, Note_on_c, 9, 42, 60
6, 196799, Note_on_c, 9, 42, 0
6, 196800, Note_on_c, 9, 42, 127
6, 197039, Note_on_c, 9, 42, 0
6, 197040, Note_on_c, 9, 42, 60
6, 197279, Note_on_c, 9, 42, 0
6, 197280, Note_on_c, 9, 42, 127
6, 197519, Note_on_c, 9, 42, 0
6, 197520, Note_on_c, 9, 42, 60
6, 197759, Note_on_c, 9, 42, 0
6, 197760, Note_on_c, 9, 42, 127
6, 197999, Note_on_c, 9, 42, 0
6, 198000, Note_on_c, 9, 42, 60
6, 198239, Note_on_c, 9, 42, 0
6, 198240, Note_on_c, 9, 42, 127
6, 198479, Note_on_c, 9, 42, 0
6, 198480, Note_on_c, 9, 42, 60
6, 198719, Note_on_c, 9, 42, 0
6, 198720, Note_on_c, 9, 42, 127
6, 198959, Note_on_c, 9, 42, 0
6, 198960, Note_on_c, 9, 42, 60
6, 199199, Note_on_c, 9, 42, 0
6, 199200, Note_on_c, 9, 42, 127
6, 199439, Note_on_c, 9, 42, 0
6, 199440, Note_on_c, 9, 42, 60
6, 199679, Note_on_c, 9, 42, 0
6, 199680, Note_on_c, 9, 42, 127
6, 199919, Note_on_c, 9, 42, 0
6, 199920, Note_on_c, 9, 42, 60
6, 200159, Note_on_c, 9, 42, 0
6, 200160, Note_on_c, 9, 42, 127
6, 200639, Note_on_c, 9, 42, 0
6, 200640, Note_on_c, 9, 42, 127
6, 200879, Note_on_c, 9, 42, 0
6, 200880, Note_on_c, 9, 42, 60
6, 201119, Note_on_c, 9, 42, 0
6, 201120, Note_on_c, 9, 42, 127
6, 201359, Note_on_c, 9, 42, 0
6, 201360, Note_on_c, 9, 42, 60
6, 201599, Note_on_c, 9, 42, 0
6, 201600, Note_on_c, 9, 42, 127
6, 201839, Note_on_c, 9, 42, 0
6, 201840, Note_on_c, 9, 42, 60
6, 202079, Note_on_c, 9, 42, 0
6, 202080, Note_on_c, 9, 42, 127
6, 202319, Note_on_c, 9, 42, 0
6, 202320, Note_on_c, 9, 42, 60
6, 202559, Note_on_c, 9, 42, 0
6, 202560, Note_on_c, 9, 42, 127
6, 202799, Note_on_c, 9, 42, 0
6, 202800, Note_on_c, 9, 42, 60
6, 203039, Note_on_c, 9, 42, 0
6, 203040, Note_on_c, 9, 42, 127
6, 203279, Note_on_c, 9, 42, 0
6, 203280, Note_on_c, 9, 42, 60
6, 203519, Note_on_c, 9, 42, 0
6, 203520, Note_on_c, 9, 42, 127
6, 203759, Note_on_c, 9, 42, 0
6, 203760, Note_on_c, 9, 42, 60
6, 203999, Note_on_c, 9, 42, 0
6, 204000, Note_on_c, 9, 42, 127
6, 204239, Note_on_c, 9, 42, 0
6, 204240, Note_on_c, 9, 42, 60
6, 204479, Note_on_c, 9, 42, 0
6, 204480, Note_on_c, 9, 42, 127
6, 204719, Note_on_c, 9, 42, 0
6, 204720, Note_on_c, 9, 42, 60
6, 204959, Note_on_c, 9, 42, 0
6, 204960, Note_on_c, 9, 42, 127
6, 205199, Note_on_c, 9, 42, 0
6, 205200, Note_on_c, 9, 42, 60
6, 205439, Note_on_c, 9, 42, 0
6, 205440, Note_on_c, 9, 42, 127
6, 205679, Note_on_c, 9, 42, 0
6, 205680, Note_on_c, 9, 42, 60
6, 205919, Note_on_c, 9, 42, 0
6, 205920, Note_on_c, 9, 42, 127
6, 206159, Note_on_c, 9, 42, 0
6, 206160, Note_on_c, 9, 42, 60
6, 206399, Note_on_c, 9, 42, 0
6, 206400, Note_on_c, 9, 42, 127
6, 206639, Note_on_c, 9, 42, 0
6, 206640, Note_on_c, 9, 42, 60
6, 206879, Note_on_c, 9, 42, 0
6, 206880, Note_on_c, 9, 42, 127
6, 207119, Note_on_c, 9, 42, 0
6, 207120, Note_on_c, 9, 42, 60
6, 207359, Note_on_c, 9, 42, 0
6, 207360, Note_on_c, 9, 42, 127
6, 207599, Note_on_c, 9, 42, 0
6, 207600, Note_on_c, 9, 42, 60
6, 207839, Note_on_c, 9, 42, 0
6, 207840, Note_on_c, 9, 42, 127
6, 208319, Note_on_c, 9, 42, 0
6, 208320, Note_on_c, 9, 42, 127
6, 208559, Note_on_c, 9, 42, 0
6, 208560, Note_on_c, 9, 42, 60
6, 208799, Note_on_c, 9, 42, 0
6, 208800, Note_on_c, 9, 42, 127
6, 209039, Note_on_c, 9, 42, 0
6, 209040, Note_on_c, 9, 42, 60
6, 209279, Note_on_c, 9, 42, 0
6, 209280, Note_on_c, 9, 42, 127
6, 209519, Note_on_c, 9, 42, 0
6, 209520, Note_on_c, 9, 42, 60
6, 209759, Note_on_c, 9, 42, 0
6, 209760, Note_on_c, 9, 42, 127
6, 209999, Note_on_c, 9, 42, 0
6, 210000, Note_on_c, 9, 42, 60
6, 210239, Note_on_c, 9, 42, 0
6, 210240, Note_on_c, 9, 42, 127
6, 210479, Note_on_c, 9, 42, 0
6, 210480, Note_on_c, 9, 42, 60
6, 210719, Note_on_c, 9, 42, 0
6, 210720, Note_on_c, 9, 42, 127
6, 210959, Note_on_c, 9, 42, 0
6, 210960, Note_on_c, 9, 42, 60
6, 211199, Note_on_c, 9, 42, 0
6, 211200, Note_on_c, 9, 42, 127
6, 211439, Note_on_c, 9, 42, 0
6, 211440, Note_on_c, 9, 42, 60
6, 211679, Note_on_c, 9, 42, 0
6, 211680, Note_on_c, 9, 42, 127
6, 211919, Note_on_c, 9, 42, 0
6, 211920, Note_on_c, 9, 42, 60
6, 212159, Note_on_c, 9, 42, 0
6, 212160, Note_on_c, 9, 42, 127
6, 212399, Note_on_c, 9, 42, 0
6, 212400, Note_on_c, 9, 42, 60
6, 212639, Note_on_c, 9, 42, 0
6, 212640, Note_on_c, 9, 42, 127
6, 212879, Note_on_c, 9, 42, 0
6, 212880, Note_on_c, 9, 42, 60
6, 213119, Note_on_c, 9, 42, 0
6, 213120, Note_on_c, 9, 42, 127
6, 213359, Note_on_c, 9, 42, 0
6, 213360, Note_on_c, 9, 42, 60
6, 213599, Note_on_c, 9, 42, 0
6, 213600, Note_on_c, 9, 42, 127
6, 213839, Note_on_c, 9, 42, 0
6, 213840, Note_on_c, 9, 42, 60
6, 214079, Note_on_c, 9, 42, 0
6, 214080, Note_on_c, 9, 42, 127
6, 214319, Note_on_c, 9, 42, 0
6, 214320, Note_on_c, 9, 42, 60
6, 214559, Note_on_c, 9, 42, 0
6, 214560, Note_on_c, 9, 42, 127
6, 214799, Note_on_c, 9, 42, 0
6, 214800, Note_on_c, 9, 42, 60
6, 215039, Note_on_c, 9, 42, 0
6, 215040, Note_on_c, 9, 42, 127
6, 215279, Note_on_c, 9, 42, 0
6, 215280, Note_on_c, 9, 42, 60
6, 215519, Note_on_c, 9, 42, 0
6, 215520, Note_on_c, 9, 42, 127
6, 215999, Note_on_c, 9, 42, 0
6, 216000, Note_on_c, 9, 42, 127
6, 216239, Note_on_c, 9, 42, 0
6, 216240, Note_on_c, 9, 42, 60
6, 216479, Note_on_c, 9, 42, 0
6, 216480, Note_on_c, 9, 42, 127
6, 216719, Note_on_c, 9, 42, 0
6, 216720, Note_on_c, 9, 42, 60
6, 216959, Note_on_c, 9, 42, 0
6, 216960, Note_on_c, 9, 42, 127
6, 217199, Note_on_c, 9, 42, 0
6, 217200, Note_on_c, 9, 42, 60
6, 217439, Note_on_c, 9, 42, 0
6, 217440, Note_on_c, 9, 42, 127
6, 217679, Note_on_c, 9, 42, 0
6, 217680, Note_on_c, 9, 42, 60
6, 217919, Note_on_c, 9, 42, 0
6, 217920, Note_on_c, 9, 42, 127
6, 218159, Note_on_c, 9, 42, 0
6, 218160, Note_on_c, 9, 42, 60
6, 218399, Note_on_c, 9, 42, 0
6, 218400, Note_on_c, 9, 42, 127
6, 218639, Note_on_c, 9, 42, 0
6, 218640, Note_on_c, 9, 42, 60
6, 218879, Note_on_c, 9, 42, 0
6, 218880, Note_on_c, 9, 42, 127
6, 219119, Note_on_c, 9, 42, 0
6, 219120, Note_on_c, 9, 42, 60
6, 219359, Note_on_c, 9, 42, 0
6, 219360, Note_on_c, 9, 42, 127
6, 219599, Note_on_c, 9, 42, 0
6, 219600, Note_on_c, 9, 42, 60
6, 219839, Note_on_c, 9, 42, 0
6, 219840, Note_on_c, 9, 42, 127
6, 220079, Note_on_c, 9, 42, 0
6, 220080, Note_on_c, 9, 42, 60
6, 220319, Note_on_c, 9, 42, 0
6, 220320, Note_on_c, 9, 42, 127
6, 220559, Note_on_c, 9, 42, 0
6, 220560, Note_on_c, 9, 42, 60
6, 220799, Note_on_c, 9, 42, 0
6, 220800, Note_on_c, 9, 42, 127
6, 221039, Note_on_c, 9, 42, 0
6, 221040, Note_on_c, 9, 42, 60
6, 221279, Note_on_c, 9, 42, 0
6, 221280, Note_on_c, 9, 42, 127
6, 221519, Note_on_c, 9, 42, 0
6, 221520, Note_on_c, 9, 42, 60
6, 221759, Note_on_c, 9, 42, 0
6, 221760, Note_on_c, 9, 42, 127
6, 221999, Note_on_c, 9, 42, 0
6, 222000, Note_on_c, 9, 42, 60
6, 222239, Note_on_c, 9, 42, 0
6, 222240, Note_on_c, 9, 42, 127
6, 222479, Note_on_c, 9, 42, 0
6, 222480, Note_on_c, 9, 42, 60
6, 222719, Note_on_c, 9, 42, 0
6, 222720, Note_on_c, 9, 42, 127
6, 222959, Note_on_c, 9, 42, 0
6, 222960, Note_on_c, 9, 42, 60
6, 223199, Note_on_c, 9, 42, 0
6, 223200, Note_on_c, 9, 42, 127
6, 223679, Note_on_c, 9, 42, 0
6, 223680, Note_on_c, 9, 42, 127
6, 223919, Note_on_c, 9, 42, 0
6, 223920, Note_on_c, 9, 42, 60
6, 224159, Note_on_c, 9, 42, 0
6, 224160, Note_on_c, 9, 42, 127
6, 224399, Note_on_c, 9, 42, 0
6, 224400, Note_on_c, 9, 42, 60
6, 224639, Note_on_c, 9, 42, 0
6, 224640, Note_on_c, 9, 42, 127
6, 224879, Note_on_c, 9, 42, 0
6, 224880, Note_on_c, 9, 42, 60
6, 225119, Note_on_c, 9, 42, 0
6, 225120, Note_on_c, 9, 42, 127
6, 225359, Note_on_c, 9, 42, 0
6, 225360, Note_on_c, 9, 42, 60
6, 225599, Note_on_c, 9, 42, 0
6, 225600, Note_on_c, 9, 42, 127
6, 225839, Note_on_c, 9, 42, 0
6, 225840, Note_on_c, 9, 42, 60
6, 226079, Note_on_c, 9, 42, 0
6, 226080, Note_on_c, 9, 42, 127
6, 226319, Note_on_c, 9, 42, 0
6, 226320, Note_on_c, 9, 42, 60
6, 226559, Note_on_c, 9, 42, 0
6, 226560, Note_on_c, 9, 42, 127
6, 226799, Note_on_c, 9, 42, 0
6, 226800, Note_on_c, 9, 42, 60
6, 227039, Note_on_c, 9, 42, 0
6, 227040, Note_on_c, 9, 42, 127
6, 227279, Note_on_c, 9, 42, 0
6, 227280, Note_on_c, 9, 42, 60
6, 227519, Note_on_c, 9, 42, 0
6, 227520, Note_on_c, 9, 42, 127
6, 227759, Note_on_c, 9, 42, 0
6, 227760, Note_on_c, 9, 42, 60
6, 227999, Note_on_c, 9, 42, 0
6, 228000, Note_on_c, 9, 42, 127
6, 228239, Note_on_c, 9, 42, 0
6, 228240, Note_on_c, 9, 42, 60
6, 228479, Note_on_c, 9, 42, 0
6, 228480, Note_on_c, 9, 42, 127
6, 228719, Note_on_c, 9, 42, 0
6, 228720, Note_on_c, 9, 42, 60
6, 228959, Note_on_c, 9, 42, 0
6, 228960, Note_on_c, 9, 42, 127
6, 229199, Note_on_c, 9, 42, 0
6, 229200, Note_on_c, 9, 42, 60
6, 229439, Note_on_c, 9, 42, 0
6, 229440, Note_on_c, 9, 42, 127
6, 229679, Note_on_c, 9, 42, 0
6, 229680, Note_on_c, 9, 42, 60
6, 229919, Note_on_c, 9, 42, 0
6, 229920, Note_on_c, 9, 42, 127
6, 230159, Note_on_c, 9, 42, 0
6, 230160, Note_on_c, 9, 42, 60
6, 230399, Note_on_c, 9, 42, 0
6, 230400, Note_on_c, 9, 42, 127
6, 230639, Note_on_c, 9, 42, 0
6, 230640, Note_on_c, 9, 42, 60
6, 230879, Note_on_c, 9, 42, 0
6, 230880, Note_on_c, 9, 42, 127
6, 231359, Note_on_c, 9, 42, 0
6, 231360, Note_on_c, 9, 42, 127
6, 231599, Note_on_c, 9, 42, 0
6, 231600, Note_on_c, 9, 42, 60
6, 231839, Note_on_c, 9, 42, 0
6, 231840, Note_on_c, 9, 42, 127
6, 232079, Note_on_c, 9, 42, 0
6, 232080, Note_on_c, 9, 42, 60
6, 232319, Note_on_c, 9, 42, 0
6, 232320, Note_on_c, 9, 42, 127
6, 232559, Note_on_c, 9, 42, 0
6, 232560, Note_on_c, 9, 42, 60
6, 232799, Note_on_c, 9, 42, 0
6, 232800, Note_on_c, 9, 42, 127
6, 233039, Note_on_c, 9, 42, 0
6, 233040, Note_on_c, 9, 42, 60
6, 233279, Note_on_c, 9, 42, 0
6, 233280, Note_on_c, 9, 42, 127
6, 233519, Note_on_c, 9, 42, 0
6, 233520, Note_on_c, 9, 42, 60
6, 233759, Note_on_c, 9, 42, 0
6, 233760, Note_on_c, 9, 42, 127
6, 233999, Note_on_c, 9, 42, 0
6, 234000, Note_on_c, 9, 42, 60
6, 234239, Note_on_c, 9, 42, 0
6, 234240, Note_on_c, 9, 42, 127
6, 234479, Note_on_c, 9, 42, 0
6, 234480, Note_on_c, 9, 42, 60
6, 234719, Note_on_c, 9, 42, 0
6, 234720, Note_on_c, 9, 42, 127
6, 234959, Note_on_c, 9, 42, 0
6, 234960, Note_on_c, 9, 42, 60
6, 235199, Note_on_c, 9, 42, 0
6, 235200, Note_on_c, 9, 42, 127
6, 235439, Note_on_c, 9, 42, 0
6, 235440, Note_on_c, 9, 42, 60
6, 235679, Note_on_c, 9, 42, 0
6, 235680, Note_on_c, 9, 42, 127
6, 235919, Note_on_c, 9, 42, 0
6, 235920, Note_on_c, 9, 42, 60
6, 236159, Note_on_c, 9, 42, 0
6, 236160, Note_on_c, 9, 42, 127
6, 236399, Note_on_c, 9, 42, 0
6, 236400, Note_on_c, 9, 42, 60
6, 236639, Note_on_c, 9, 42, 0
6, 236640, Note_on_c, 9, 42, 127
6, 236879, Note_on_c, 9, 42, 0
6, 236880, Note_on_c, 9, 42, 60
6, 237119, Note_on_c, 9, 42, 0
6, 237120, Note_on_c, 9, 42, 127
6, 237359, Note_on_c, 9, 42, 0
6, 237360, Note_on_c, 9, 42, 60
6, 237599, Note_on_c, 9, 42, 0
6, 237600, Note_on_c, 9, 42, 127
6, 237839, Note_on_c, 9, 42, 0
6, 237840, Note_on_c, 9, 42, 60
6, 238079, Note_on_c, 9, 42, 0
6, 238080, Note_on_c, 9, 42, 127
6, 238319, Note_on_c, 9, 42, 0
6, 238320, Note_on_c, 9, 42, 60
6, 238559, Note_on_c, 9, 42, 0
6, 238560, Note_on_c, 9, 42, 127
6, 239039, Note_on_c, 9, 42, 0
6, 239040, Note_on_c, 9, 42, 127
6, 239279, Note_on_c, 9, 42, 0
6, 239280, Note_on_c, 9, 42, 60
6, 239519, Note_on_c, 9, 42, 0
6, 239520, Note_on_c, 9, 42, 127
6, 239759, Note_on_c, 9, 42, 0
6, 239760, Note_on_c, 9, 42, 60
6, 239999, Note_on_c, 9, 42, 0
6, 240000, Note_on_c, 9, 42, 127
6, 240239, Note_on_c, 9, 42, 0
6, 240240, Note_on_c, 9, 42, 60
6, 240479, Note_on_c, 9, 42, 0
6, 240480, Note_on_c, 9, 42, 127
6, 240719, Note_on_c, 9, 42, 0
6, 240720, Note_on_c, 9, 42, 60
6, 240959, Note_on_c, 9, 42, 0
6, 240960, Note_on_c, 9, 42, 127
6, 241199, Note_on_c, 9, 42, 0
6, 241200, Note_on_c, 9, 42, 60
6, 241439, Note_on_c, 9, 42, 0
6, 241440, Note_on_c, 9, 42, 127
6, 241679, Note_on_c, 9, 42, 0
6, 241680, Note_on_c, 9, 42, 60
6, 241919, Note_on_c, 9, 42, 0
6, 241920, Note_on_c, 9, 42, 127
6, 242159, Note_on_c, 9, 42, 0
6, 242160, Note_on_c, 9, 42, 60
6, 242399, Note_on_c, 9, 42, 0
6, 242400, Note_on_c, 9, 42, 127
6, 242639, Note_on_c, 9, 42, 0
6, 242640, Note_on_c, 9, 42, 60
6, 242879, Note_on_c, 9, 42, 0
6, 242880, Note_on_c, 9, 42, 127
6, 243119, Note_on_c, 9, 42, 0
6, 243120, Note_on_c, 9, 42, 60
6, 243359, Note_on_c, 9, 42, 0
6, 243360, Note_on_c, 9, 42, 127
6, 243599, Note_on_c, 9, 42, 0
6, 243600, Note_on_c, 9, 42, 60
6, 243839, Note_on_c, 9, 42, 0
6, 243840, Note_on_c, 9, 42, 127
6, 244079, Note_on_c, 9, 42, 0
6, 244080, Note_on_c, 9, 42, 60
6, 244319, Note_on_c, 9, 42, 0
6, 244320, Note_on_c, 9, 42, 127
6, 244559, Note_on_c, 9, 42, 0
6, 244560, Note_on_c, 9, 42, 60
6, 244799, Note_on_c, 9, 42, 0
6, 244800, Note_on_c, 9, 42, 127
6, 245039, Note_on_c, 9, 42, 0
6, 245040, Note_on_c, 9, 42, 60
6, 245279, Note_on_c, 9, 42, 0
6, 245280, Note_on_c, 9, 42, 127
6, 245519, Note_on_c, 9, 42, 0
6, 245520, Note_on_c, 9, 42, 60
6, 245759, Note_on_c, 9, 42, 0
6, 245760, Note_on_c, 9, 42, 127
6, 245999, Note_on_c, 9, 42, 0
6, 246000, Note_on_c, 9, 42, 60
6, 246239, Note_on_c, 9, 42, 0
6, 246240, Note_on_c, 9, 42, 127
6, 246719, Note_on_c, 9, 42, 0
6, 246720, Note_on_c, 9, 42, 127
6, 246959, Note_on_c, 9, 42, 0
6, 246960, Note_on_c, 9, 42, 60
6, 247199, Note_on_c, 9, 42, 0
6, 247200, Note_on_c, 9, 42, 127
6, 247439, Note_on_c, 9, 42, 0
6, 247440, Note_on_c, 9, 42, 60
6, 247679, Note_on_c, 9, 42, 0
6, 247680, Note_on_c, 9, 42, 127
6, 247919, Note_on_c, 9, 42, 0
6, 247920, Note_on_c, 9, 42, 60
6, 248159, Note_on_c, 9, 42, 0
6, 248160, Note_on_c, 9, 42, 127
6, 248399, Note_on_c, 9, 42, 0
6, 248400, Note_on_c, 9, 42, 60
6, 248639, Note_on_c, 9, 42, 0
6, 248640, Note_on_c, 9, 42, 127
6, 248879, Note_on_c, 9, 42, 0
6, 248880, Note_on_c, 9, 42, 60
6, 249119, Note_on_c, 9, 42, 0
6, 249120, Note_on_c, 9, 42, 127
6, 249359, Note_on_c, 9, 42, 0
6, 249360, Note_on_c, 9, 42, 60
6, 249599, Note_on_c, 9, 42, 0
6, 249600, Note_on_c, 9, 42, 127
6, 249839, Note_on_c, 9, 42, 0
6, 249840, Note_on_c, 9, 42, 60
6, 250079, Note_on_c, 9, 42, 0
6, 250080, Note_on_c, 9, 42, 127
6, 250319, Note_on_c, 9, 42, 0
6, 250320, Note_on_c, 9, 42, 60
6, 250559, Note_on_c, 9, 42, 0
6, 250560, Note_on_c, 9, 42, 127
6, 250799, Note_on_c, 9, 42, 0
6, 250800, Note_on_c, 9, 42, 60
6, 251039, Note_on_c, 9, 42, 0
6, 251040, Note_on_c, 9, 42, 127
6, 251279, Note_on_c, 9, 42, 0
6, 251280, Note_on_c, 9, 42, 60
6, 251519, Note_on_c, 9, 42, 0
6, 251520, Note_on_c, 9, 42, 127
6, 251759, Note_on_c, 9, 42, 0
6, 251760, Note_on_c, 9, 42, 60
6, 251999, Note_on_c, 9, 42, 0
6, 252000, Note_on_c, 9, 42, 127
6, 252239, Note_on_c, 9, 42, 0
6, 252240, Note_on_c, 9, 42, 60
6, 252479, Note_on_c, 9, 42, 0
6, 252480, Note_on_c, 9, 42, 127
6, 252719, Note_on_c, 9, 42, 0
6, 252720, Note_on_c, 9, 42, 60
6, 252959, Note_on_c, 9, 42, 0
6, 252960, Note_on_c, 9, 42, 127
6, 253199, Note_on_c, 9, 42, 0
6, 253200, Note_on_c, 9, 42, 60
6, 253439, Note_on_c, 9, 42, 0
6, 253440, Note_on_c, 9, 42, 127
6, 253679, Note_on_c, 9, 42, 0
6, 253680, Note_on_c, 9, 42, 60
6, 253919, Note_on_c, 9, 42, 0
6, 253920, Note_on_c, 9, 42, 127
6, 254399, Note_on_c, 9, 42, 0
6, 254400, Note_on_c, 9, 42, 127
6, 254639, Note_on_c, 9, 42, 0
6, 254640, Note_on_c, 9, 42, 60
6, 254879, Note_on_c, 9, 42, 0
6, 254880, Note_on_c, 9, 42, 127
6, 255119, Note_on_c, 9, 42, 0
6, 255120, Note_on_c, 9, 42, 60
6, 255359, Note_on_c, 9, 42, 0
6, 255360, Note_on_c, 9, 42, 127
6, 255599, Note_on_c, 9, 42, 0
6, 255600, Note_on_c, 9, 42, 60
6, 255839, Note_on_c, 9, 42, 0
6, 255840, Note_on_c, 9, 42, 127
6, 256079, Note_on_c, 9, 42, 0
6, 256080, Note_on_c, 9, 42, 60
6, 256319, Note_on_c, 9, 42, 0
6, 256320, Note_on_c, 9, 42, 127
6, 256559, Note_on_c, 9, 42, 0
6, 256560, Note_on_c, 9, 42, 60
6, 256799, Note_on_c, 9, 42, 0
6, 256800, Note_on_c, 9, 42, 127
6, 257039, Note_on_c, 9, 42, 0
6, 257040, Note_on_c, 9, 42, 60
6, 257279, Note_on_c, 9, 42, 0
6, 257280, Note_on_c, 9, 42, 127
6, 257519, Note_on_c, 9, 42, 0
6, 257520, Note_on_c, 9, 42, 60
6, 257759, Note_on_c, 9, 42, 0
6, 257760, Note_on_c, 9, 42, 127
6, 257999, Note_on_c, 9, 42, 0
6, 258000, Note_on_c, 9, 42, 60
6, 258239, Note_on_c, 9, 42, 0
6, 258240, Note_on_c, 9, 42, 127
6, 258479, Note_on_c, 9, 42, 0
6, 258480, Note_on_c, 9, 42, 60
6, 258719, Note_on_c, 9, 42, 0
6, 258720, Note_on_c, 9, 42, 127
6, 258959, Note_on_c, 9, 42, 0
6, 258960, Note_on_c, 9, 42, 60
6, 259199, Note_on_c, 9, 42, 0
6, 259200, Note_on_c, 9, 42, 127
6, 259439, Note_on_c, 9, 42, 0
6, 259440, Note_on_c, 9, 42, 60
6, 259679, Note_on_c, 9, 42, 0
6, 259680, Note_on_c, 9, 42, 127
6, 259919, Note_on_c, 9, 42, 0
6, 259920, Note_on_c, 9, 42, 60
6, 260159, Note_on_c, 9, 42, 0
6, 260160, Note_on_c, 9, 42, 127
6, 260399, Note_on_c, 9, 42, 0
6, 260400, Note_on_c, 9, 42, 60
6, 260639, Note_on_c, 9, 42, 0
6, 260640, Note_on_c, 9, 42, 127
6, 260879, Note_on_c, 9, 42, 0
6, 260880, Note_on_c, 9, 42, 60
6, 261119, Note_on_c, 9, 42, 0
6, 261120, Note_on_c, 9, 42, 127
6, 261359, Note_on_c, 9, 42, 0
6, 261360, Note_on_c, 9, 42, 60
6, 261599, Note_on_c, 9, 42, 0
6, 261600, Note_on_c, 9, 42, 127
6, 262079, Note_on_c, 9, 42, 0
6, 262080, Note_on_c, 9, 42, 127
6, 262319, Note_on_c, 9, 42, 0
6, 262320, Note_on_c, 9, 42, 60
6, 262559, Note_on_c, 9, 42, 0
6, 262560, Note_on_c, 9, 42, 127
6, 262799, Note_on_c, 9, 42, 0
6, 262800, Note_on_c, 9, 42, 60
6, 263039, Note_on_c, 9, 42, 0
6, 263040, Note_on_c, 9, 42, 127
6, 263279, Note_on_c, 9, 42, 0
6, 263280, Note_on_c, 9, 42, 60
6, 263519, Note_on_c, 9, 42, 0
6, 263520, Note_on_c, 9, 42, 127
6, 263759, Note_on_c, 9, 42, 0
6, 263760, Note_on_c, 9, 42, 60
6, 263999, Note_on_c, 9, 42, 0
6, 264000, Note_on_c, 9, 42, 127
6, 264239, Note_on_c, 9, 42, 0
6, 264240, Note_on_c, 9, 42, 60
6, 264479, Note_on_c, 9, 42, 0
6, 264480, Note_on_c, 9, 42, 127
6, 264719, Note_on_c, 9, 42, 0
6, 264720, Note_on_c, 9, 42, 60
6, 264959, Note_on_c, 9, 42, 0
6, 264960, Note_on_c, 9, 42, 127
6, 265199, Note_on_c, 9, 42, 0
6, 265200, Note_on_c, 9, 42, 60
6, 265439, Note_on_c, 9, 42, 0
6, 265440, Note_on_c, 9, 42, 127
6, 265679, Note_on_c, 9, 42, 0
6, 265680, Note_on_c, 9, 42, 60
6, 265919, Note_on_c, 9, 42, 0
6, 265920, Note_on_c, 9, 42, 127
6, 266159, Note_on_c, 9, 42, 0
6, 266160, Note_on_c, 9, 42, 60
6, 266399, Note_on_c, 9, 42, 0
6, 266400, Note_on_c, 9, 42, 127
6, 266639, Note_on_c, 9, 42, 0
6, 266640, Note_on_c, 9, 42, 60
6, 266879, Note_on_c, 9, 42, 0
6, 266880, Note_on_c, 9, 42, 127
6, 267359, Note_on_c, 9, 42, 0
6, 267360, End_track
7, 0, Start_track
7, 0, Key_signature, 0, "major"
7, 0, Control_c, 9, 121, 0
7, 0, Program_c, 9, 0
7, 0, Control_c, 9, 7, 100
7, 0, Control_c, 9, 10, 64
7, 0, Control_c, 9, 91, 0
7, 0, Control_c, 9, 93, 0
7, 0, MIDI_port, 0
7, 4800, Note_on_c, 9, 45, 92
7, 4859, Note_on_c, 9, 45, 0
7, 4880, Note_on_c, 9, 45, 92
7, 4919, Note_on_c, 9, 45, 0
7, 4960, Note_on_c, 9, 45, 92
7, 4979, Note_on_c, 9, 45, 0
7, 5040, Note_on_c, 9, 45, 92
7, 5099, Note_on_c, 9, 45, 0
7, 5120, Note_on_c, 9, 45, 92
7, 5159, Note_on_c, 9, 45, 0
7, 5200, Note_on_c, 9, 45, 92
7, 5219, Note_on_c, 9, 45, 0
7, 267840, Note_on_c, 9, 45, 92
7, 267899, Note_on_c, 9, 45, 0
7, 267920, Note_on_c, 9, 45, 92
7, 267959, Note_on_c, 9, 45, 0
7, 268000, Note_on_c, 9, 45, 92
7, 268019, Note_on_c, 9, 45, 0
7, 268080, Note_on_c, 9, 45, 92
7, 268139, Note_on_c, 9, 45, 0
7, 268160, Note_on_c, 9, 45, 92
7, 268199, Note_on_c, 9, 45, 0
7, 268240, Note_on_c, 9, 45, 92
7, 268259, Note_on_c, 9, 45, 0
7, 268260, End_track
8, 0, Start_track
8, 0, Key_signature, 0, "major"
8, 0, Control_c, 9, 121, 0
8, 0, Program_c, 9, 0
8, 0, Control_c, 9, 7, 100
8, 0, Control_c, 9, 10, 64
8, 0, Control_c, 9, 91, 0
8, 0, Control_c, 9, 93, 0
8, 0, MIDI_port, 0
8, 1920, Note_on_c, 9, 46, 60
8, 2399, Note_on_c, 9, 46, 0
8, 8400, Note_on_c, 9, 46, 60
8, 8639, Note_on_c, 9, 46, 0
8, 11520, Note_on_c, 9, 46, 60
8, 11999, Note_on_c, 9, 46, 0
8, 16080, Note_on_c, 9, 46, 60
8, 16319, Note_on_c, 9, 46, 0
8, 19200, Note_on_c, 9, 46, 60
8, 19679, Note_on_c, 9, 46, 0
8, 23760, Note_on_c, 9, 46, 60
8, 23999, Note_on_c, 9, 46, 0
8, 26880, Note_on_c, 9, 46, 60
8, 27359, Note_on_c, 9, 46, 0
8, 31440, Note_on_c, 9, 46, 60
8, 31679, Note_on_c, 9, 46, 0
8, 39120, Note_on_c, 9, 46, 60
8, 39359, Note_on_c, 9, 46, 0
8, 46800, Note_on_c, 9, 46, 60
8, 47039, Note_on_c, 9, 46, 0
8, 54480, Note_on_c, 9, 46, 60
8, 54719, Note_on_c, 9, 46, 0
8, 62160, Note_on_c, 9, 46, 60
8, 62399, Note_on_c, 9, 46, 0
8, 65280, Note_on_c, 9, 46, 60
8, 65759, Note_on_c, 9, 46, 0
8, 69840, Note_on_c, 9, 46, 60
8, 70079, Note_on_c, 9, 46, 0
8, 77520, Note_on_c, 9, 46, 60
8, 77759, Note_on_c, 9, 46, 0
8, 85200, Note_on_c, 9, 46, 60
8, 85439, Note_on_c, 9, 46, 0
8, 88320, Note_on_c, 9, 46, 60
8, 88799, Note_on_c, 9, 46, 0
8, 92880, Note_on_c, 9, 46, 60
8, 93119, Note_on_c, 9, 46, 0
8, 100560, Note_on_c, 9, 46, 60
8, 100799, Note_on_c, 9, 46, 0
8, 108240, Note_on_c, 9, 46, 60
8, 108479, Note_on_c, 9, 46, 0
8, 111360, Note_on_c, 9, 46, 60
8, 111839, Note_on_c, 9, 46, 0
8, 115920, Note_on_c, 9, 46, 60
8, 116159, Note_on_c, 9, 46, 0
8, 123600, Note_on_c, 9, 46, 60
8, 123839, Note_on_c, 9, 46, 0
8, 126720, Note_on_c, 9, 46, 60
8, 127199, Note_on_c, 9, 46, 0
8, 131280, Note_on_c, 9, 46, 60
8, 131519, Note_on_c, 9, 46, 0
8, 138960, Note_on_c, 9, 46, 60
8, 139199, Note_on_c, 9, 46, 0
8, 146640, Note_on_c, 9, 46, 60
8, 146879, Note_on_c, 9, 46, 0
8, 149760, Note_on_c, 9, 46, 60
8, 150239, Note_on_c, 9, 46, 0
8, 154320, Note_on_c, 9, 46, 60
8, 154559, Note_on_c, 9, 46, 0
8, 157440, Note_on_c, 9, 46, 60
8, 157919, Note_on_c, 9, 46, 0
8, 162000, Note_on_c, 9, 46, 60
8, 162239, Note_on_c, 9, 46, 0
8, 165120, Note_on_c, 9, 46, 60
8, 165599, Note_on_c, 9, 46, 0
8, 169680, Note_on_c, 9, 46, 60
8, 169919, Note_on_c, 9, 46, 0
8, 172800, Note_on_c, 9, 46, 60
8, 173279, Note_on_c, 9, 46, 0
8, 177360, Note_on_c, 9, 46, 60
8, 177599, Note_on_c, 9, 46, 0
8, 185040, Note_on_c, 9, 46, 60
8, 185279, Note_on_c, 9, 46, 0
8, 203520, Note_on_c, 9, 46, 60
8, 203999, Note_on_c, 9, 46, 0
8, 208080, Note_on_c, 9, 46, 60
8, 208319, Note_on_c, 9, 46, 0
8, 215760, Note_on_c, 9, 46, 60
8, 215999, Note_on_c, 9, 46, 0
8, 218880, Note_on_c, 9, 46, 60
8, 219359, Note_on_c, 9, 46, 0
8, 223440, Note_on_c, 9, 46, 60
8, 223679, Note_on_c, 9, 46, 0
8, 231120, Note_on_c, 9, 46, 60
8, 231359, Note_on_c, 9, 46, 0
8, 234240, Note_on_c, 9, 46, 60
8, 234719, Note_on_c, 9, 46, 0
8, 238800, Note_on_c, 9, 46, 60
8, 239039, Note_on_c, 9, 46, 0
8, 246480, Note_on_c, 9, 46, 60
8, 246719, Note_on_c, 9, 46, 0
8, 249600, Note_on_c, 9, 46, 60
8, 250079, Note_on_c, 9, 46, 0
8, 254160, Note_on_c, 9, 46, 60
8, 254399, Note_on_c, 9, 46, 0
8, 261840, Note_on_c, 9, 46, 60
8, 262079, Note_on_c, 9, 46, 0
8, 262080, End_track
9, 0, Start_track
9, 0, Key_signature, 0, "major"
9, 0, Control_c, 9, 121, 0
9, 0, Program_c, 9, 0
9, 0, Control_c, 9, 7, 100
9, 0, Control_c, 9, 10, 64
9, 0, Control_c, 9, 91, 0
9, 0, Control_c, 9, 93, 0
9, 0, MIDI_port, 0
9, 4320, Note_on_c, 9, 48, 92
9, 4379, Note_on_c, 9, 48, 0
9, 4400, Note_on_c, 9, 48, 92
9, 4439, Note_on_c, 9, 48, 0
9, 4480, Note_on_c, 9, 48, 92
9, 4499, Note_on_c, 9, 48, 0
9, 4560, Note_on_c, 9, 48, 92
9, 4619, Note_on_c, 9, 48, 0
9, 4640, Note_on_c, 9, 48, 92
9, 4679, Note_on_c, 9, 48, 0
9, 4720, Note_on_c, 9, 48, 92
9, 4739, Note_on_c, 9, 48, 0
9, 267360, Note_on_c, 9, 48, 92
9, 267419, Note_on_c, 9, 48, 0
9, 267440, Note_on_c, 9, 48, 92
9, 267479, Note_on_c, 9, 48, 0
9, 267520, Note_on_c, 9, 48, 92
9, 267539, Note_on_c, 9, 48, 0
9, 267600, Note_on_c, 9, 48, 92
9, 267659, Note_on_c, 9, 48, 0
9, 267680, Note_on_c, 9, 48, 92
9, 267719, Note_on_c, 9, 48, 0
9, 267760, Note_on_c, 9, 48, 92
9, 267779, Note_on_c, 9, 48, 0
9, 267780, End_track
10, 0, Start_track
10, 0, Key_signature, 0, "major"
10, 0, Control_c, 9, 121, 0
10, 0, Program_c, 9, 0
10, 0, Control_c, 9, 7, 100
10, 0, Control_c, 9, 10, 64
10, 0, Control_c, 9, 91, 0
10, 0, Control_c, 9, 93, 0
10, 0, MIDI_port, 0
10, 3840, Note_on_c, 9, 49, 76
10, 4319, Note_on_c, 9, 49, 0
10, 266880, Note_on_c, 9, 49, 76
10, 267359, Note_on_c, 9, 49, 0
10, 267360, End_track
11, 0, Start_track
11, 0, Key_signature, 0, "major"
11, 0, Control_c, 9, 121, 0
11, 0, Program_c, 9, 0
11, 0, Control_c, 9, 7, 100
11, 0, Control_c, 9, 10, 64
11, 0, Control_c, 9, 91, 0
11, 0, Control_c, 9, 93, 0
11, 0, MIDI_port, 0
11, 0, Note_on_c, 9, 54, 64
11, 479, Note_on_c, 9, 54, 0
11, 480, Note_on_c, 9, 54, 64
11, 959, Note_on_c, 9, 54, 0
11, 960, Note_on_c, 9, 54, 64
11, 1439, Note_on_c, 9, 54, 0
11, 1440, Note_on_c, 9, 54, 64
11, 1919, Note_on_c, 9, 54, 0
11, 19200, Note_on_c, 9, 54, 64
11, 19439, Note_on_c, 9, 54, 0
11, 19440, Note_on_c, 9, 54, 64
11, 19679, Note_on_c, 9, 54, 0
11, 19680, Note_on_c, 9, 54, 64
11, 19919, Note_on_c, 9, 54, 0
11, 19920, Note_on_c, 9, 54, 64
11, 20159, Note_on_c, 9, 54, 0
11, 20160, Note_on_c, 9, 54, 64
11, 20399, Note_on_c, 9, 54, 0
11, 20400, Note_on_c, 9, 54, 64
11, 20639, Note_on_c, 9, 54, 0
11, 20640, Note_on_c, 9, 54, 64
11, 20879, Note_on_c, 9, 54, 0
11, 20880, Note_on_c, 9, 54, 64
11, 21119, Note_on_c, 9, 54, 0
11, 21120, Note_on_c, 9, 54, 64
11, 21359, Note_on_c, 9, 54, 0
11, 21360, Note_on_c, 9, 54, 64
11, 21599, Note_on_c, 9, 54, 0
11, 21600, Note_on_c, 9, 54, 64
11, 21839, Note_on_c, 9, 54, 0
11, 21840, Note_on_c, 9, 54, 64
11, 22079, Note_on_c, 9, 54, 0
11, 22080, Note_on_c, 9, 54, 64
11, 22319, Note_on_c, 9, 54, 0
11, 22320, Note_on_c, 9, 54, 64
11, 22559, Note_on_c, 9, 54, 0
11, 22560, Note_on_c, 9, 54, 64
11, 22799, Note_on_c, 9, 54, 0
11, 22800, Note_on_c, 9, 54, 64
11, 23039, Note_on_c, 9, 54, 0
11, 23040, Note_on_c, 9, 54, 64
11, 23279, Note_on_c, 9, 54, 0
11, 23280, Note_on_c, 9, 54, 64
11, 23519, Note_on_c, 9, 54, 0
11, 23520, Note_on_c, 9, 54, 64
11, 23759, Note_on_c, 9, 54, 0
11, 23760, Note_on_c, 9, 54, 64
11, 23999, Note_on_c, 9, 54, 0
11, 24000, Note_on_c, 9, 54, 64
11, 24239, Note_on_c, 9, 54, 0
11, 24240, Note_on_c, 9, 54, 64
11, 24479, Note_on_c, 9, 54, 0
11, 24480, Note_on_c, 9, 54, 64
11, 24719, Note_on_c, 9, 54, 0
11, 24720, Note_on_c, 9, 54, 64
11, 24959, Note_on_c, 9, 54, 0
11, 24960, Note_on_c, 9, 54, 64
11, 25199, Note_on_c, 9, 54, 0
11, 25200, Note_on_c, 9, 54, 64
11, 25439, Note_on_c, 9, 54, 0
11, 25440, Note_on_c, 9, 54, 64
11, 25679, Note_on_c, 9, 54, 0
11, 25680, Note_on_c, 9, 54, 64
11, 25919, Note_on_c, 9, 54, 0
11, 25920, Note_on_c, 9, 54, 64
11, 26159, Note_on_c, 9, 54, 0
11, 26160, Note_on_c, 9, 54, 64
11, 26399, Note_on_c, 9, 54, 0
11, 26400, Note_on_c, 9, 54, 64
11, 26639, Note_on_c, 9, 54, 0
11, 26640, Note_on_c, 9, 54, 64
11, 26879, Note_on_c, 9, 54, 0
11, 26880, Note_on_c, 9, 54, 64
11, 27119, Note_on_c, 9, 54, 0
11, 27120, Note_on_c, 9, 54, 64
11, 27359, Note_on_c, 9, 54, 0
11, 27360, Note_on_c, 9, 54, 64
11, 27599, Note_on_c, 9, 54, 0
11, 27600, Note_on_c, 9, 54, 64
11, 27839, Note_on_c, 9, 54, 0
11, 27840, Note_on_c, 9, 54, 64
11, 28079, Note_on_c, 9, 54, 0
11, 28080, Note_on_c, 9, 54, 64
11, 28319, Note_on_c, 9, 54, 0
11, 28320, Note_on_c, 9, 54, 64
11, 28559, Note_on_c, 9, 54, 0
11, 28560, Note_on_c, 9, 54, 64
11, 28799, Note_on_c, 9, 54, 0
11, 28800, Note_on_c, 9, 54, 64
11, 29039, Note_on_c, 9, 54, 0
11, 29040, Note_on_c, 9, 54, 64
11, 29279, Note_on_c, 9, 54, 0
11, 29280, Note_on_c, 9, 54, 64
11, 29519, Note_on_c, 9, 54, 0
11, 29520, Note_on_c, 9, 54, 64
11, 29759, Note_on_c, 9, 54, 0
11, 29760, Note_on_c, 9, 54, 64
11, 29999, Note_on_c, 9, 54, 0
11, 30000, Note_on_c, 9, 54, 64
11, 30239, Note_on_c, 9, 54, 0
11, 30240, Note_on_c, 9, 54, 64
11, 30479, Note_on_c, 9, 54, 0
11, 30480, Note_on_c, 9, 54, 64
11, 30719, Note_on_c, 9, 54, 0
11, 30720, Note_on_c, 9, 54, 64
11, 30959, Note_on_c, 9, 54, 0
11, 30960, Note_on_c, 9, 54, 64
11, 31199, Note_on_c, 9, 54, 0
11, 31200, Note_on_c, 9, 54, 64
11, 31439, Note_on_c, 9, 54, 0
11, 31440, Note_on_c, 9, 54, 64
11, 31679, Note_on_c, 9, 54, 0
11, 31680, Note_on_c, 9, 54, 64
11, 31919, Note_on_c, 9, 54, 0
11, 31920, Note_on_c, 9, 54, 64
11, 32159, Note_on_c, 9, 54, 0
11, 32160, Note_on_c, 9, 54, 64
11, 32399, Note_on_c, 9, 54, 0
11, 32400, Note_on_c, 9, 54, 64
11, 32639, Note_on_c, 9, 54, 0
11, 32640, Note_on_c, 9, 54, 64
11, 33119, Note_on_c, 9, 54, 0
11, 49920, Note_on_c, 9, 54, 64
11, 50159, Note_on_c, 9, 54, 0
11, 50160, Note_on_c, 9, 54, 64
11, 50399, Note_on_c, 9, 54, 0
11, 50400, Note_on_c, 9, 54, 64
11, 50639, Note_on_c, 9, 54, 0
11, 50640, Note_on_c, 9, 54, 64
11, 50879, Note_on_c, 9, 54, 0
11, 50880, Note_on_c, 9, 54, 64
11, 51119, Note_on_c, 9, 54, 0
11, 51120, Note_on_c, 9, 54, 64
11, 51359, Note_on_c, 9, 54, 0
11, 51360, Note_on_c, 9, 54, 64
11, 51599, Note_on_c, 9, 54, 0
11, 51600, Note_on_c, 9, 54, 64
11, 51839, Note_on_c, 9, 54, 0
11, 51840, Note_on_c, 9, 54, 64
11, 52079, Note_on_c, 9, 54, 0
11, 52080, Note_on_c, 9, 54, 64
11, 52319, Note_on_c, 9, 54, 0
11, 52320, Note_on_c, 9, 54, 64
11, 52559, Note_on_c, 9, 54, 0
11, 52560, Note_on_c, 9, 54, 64
11, 52799, Note_on_c, 9, 54, 0
11, 52800, Note_on_c, 9, 54, 64
11, 53039, Note_on_c, 9, 54, 0
11, 53040, Note_on_c, 9, 54, 64
11, 53279, Note_on_c, 9, 54, 0
11, 53280, Note_on_c, 9, 54, 64
11, 53519, Note_on_c, 9, 54, 0
11, 53520, Note_on_c, 9, 54, 64
11, 53759, Note_on_c, 9, 54, 0
11, 53760, Note_on_c, 9, 54, 64
11, 53999, Note_on_c, 9, 54, 0
11, 54000, Note_on_c, 9, 54, 64
11, 54239, Note_on_c, 9, 54, 0
11, 54240, Note_on_c, 9, 54, 64
11, 54479, Note_on_c, 9, 54, 0
11, 54480, Note_on_c, 9, 54, 64
11, 54719, Note_on_c, 9, 54, 0
11, 54720, Note_on_c, 9, 54, 64
11, 54959, Note_on_c, 9, 54, 0
11, 54960, Note_on_c, 9, 54, 64
11, 55199, Note_on_c, 9, 54, 0
11, 55200, Note_on_c, 9, 54, 64
11, 55439, Note_on_c, 9, 54, 0
11, 55440, Note_on_c, 9, 54, 64
11, 55679, Note_on_c, 9, 54, 0
11, 55680, Note_on_c, 9, 54, 64
11, 55919, Note_on_c, 9, 54, 0
11, 55920, Note_on_c, 9, 54, 64
11, 56159, Note_on_c, 9, 54, 0
11, 56160, Note_on_c, 9, 54, 64
11, 56399, Note_on_c, 9, 54, 0
11, 56400, Note_on_c, 9, 54, 64
11, 56639, Note_on_c, 9, 54, 0
11, 56640, Note_on_c, 9, 54, 64
11, 56879, Note_on_c, 9, 54, 0
11, 56880, Note_on_c, 9, 54, 64
11, 57119, Note_on_c, 9, 54, 0
11, 57120, Note_on_c, 9, 54, 64
11, 57359, Note_on_c, 9, 54, 0
11, 57360, Note_on_c, 9, 54, 64
11, 57599, Note_on_c, 9, 54, 0
11, 57600, Note_on_c, 9, 54, 64
11, 57839, Note_on_c, 9, 54, 0
11, 57840, Note_on_c, 9, 54, 64
11, 58079, Note_on_c, 9, 54, 0
11, 58080, Note_on_c, 9, 54, 64
11, 58319, Note_on_c, 9, 54, 0
11, 58320, Note_on_c, 9, 54, 64
11, 58559, Note_on_c, 9, 54, 0
11, 58560, Note_on_c, 9, 54, 64
11, 58799, Note_on_c, 9, 54, 0
11, 58800, Note_on_c, 9, 54, 64
11, 59039, Note_on_c, 9, 54, 0
11, 59040, Note_on_c, 9, 54, 64
11, 59279, Note_on_c, 9, 54, 0
11, 59280, Note_on_c, 9, 54, 64
11, 59519, Note_on_c, 9, 54, 0
11, 59520, Note_on_c, 9, 54, 64
11, 59759, Note_on_c, 9, 54, 0
11, 59760, Note_on_c, 9, 54, 64
11, 59999, Note_on_c, 9, 54, 0
11, 60000, Note_on_c, 9, 54, 64
11, 60239, Note_on_c, 9, 54, 0
11, 60240, Note_on_c, 9, 54, 64
11, 60479, Note_on_c, 9, 54, 0
11, 60480, Note_on_c, 9, 54, 64
11, 60719, Note_on_c, 9, 54, 0
11, 60720, Note_on_c, 9, 54, 64
11, 60959, Note_on_c, 9, 54, 0
11, 60960, Note_on_c, 9, 54, 64
11, 61199, Note_on_c, 9, 54, 0
11, 61200, Note_on_c, 9, 54, 64
11, 61439, Note_on_c, 9, 54, 0
11, 61440, Note_on_c, 9, 54, 64
11, 61679, Note_on_c, 9, 54, 0
11, 61680, Note_on_c, 9, 54, 64
11, 61919, Note_on_c, 9, 54, 0
11, 61920, Note_on_c, 9, 54, 64
11, 62159, Note_on_c, 9, 54, 0
11, 62160, Note_on_c, 9, 54, 64
11, 62399, Note_on_c, 9, 54, 0
11, 62400, Note_on_c, 9, 54, 64
11, 62639, Note_on_c, 9, 54, 0
11, 62640, Note_on_c, 9, 54, 64
11, 62879, Note_on_c, 9, 54, 0
11, 62880, Note_on_c, 9, 54, 64
11, 63119, Note_on_c, 9, 54, 0
11, 63120, Note_on_c, 9, 54, 64
11, 63359, Note_on_c, 9, 54, 0
11, 63360, Note_on_c, 9, 54, 64
11, 63599, Note_on_c, 9, 54, 0
11, 63600, Note_on_c, 9, 54, 64
11, 63839, Note_on_c, 9, 54, 0
11, 63840, Note_on_c, 9, 54, 64
11, 64079, Note_on_c, 9, 54, 0
11, 64080, Note_on_c, 9, 54, 64
11, 64319, Note_on_c, 9, 54, 0
11, 64320, Note_on_c, 9, 54, 64
11, 64559, Note_on_c, 9, 54, 0
11, 64560, Note_on_c, 9, 54, 64
11, 64799, Note_on_c, 9, 54, 0
11, 64800, Note_on_c, 9, 54, 64
11, 65039, Note_on_c, 9, 54, 0
11, 65040, Note_on_c, 9, 54, 64
11, 65279, Note_on_c, 9, 54, 0
11, 65280, Note_on_c, 9, 54, 64
11, 65519, Note_on_c, 9, 54, 0
11, 65520, Note_on_c, 9, 54, 64
11, 65759, Note_on_c, 9, 54, 0
11, 65760, Note_on_c, 9, 54, 64
11, 65999, Note_on_c, 9, 54, 0
11, 66000, Note_on_c, 9, 54, 64
11, 66239, Note_on_c, 9, 54, 0
11, 66240, Note_on_c, 9, 54, 64
11, 66479, Note_on_c, 9, 54, 0
11, 66480, Note_on_c, 9, 54, 64
11, 66719, Note_on_c, 9, 54, 0
11, 66720, Note_on_c, 9, 54, 64
11, 66959, Note_on_c, 9, 54, 0
11, 66960, Note_on_c, 9, 54, 64
11, 67199, Note_on_c, 9, 54, 0
11, 67200, Note_on_c, 9, 54, 64
11, 67439, Note_on_c, 9, 54, 0
11, 67440, Note_on_c, 9, 54, 64
11, 67679, Note_on_c, 9, 54, 0
11, 67680, Note_on_c, 9, 54, 64
11, 67919, Note_on_c, 9, 54, 0
11, 67920, Note_on_c, 9, 54, 64
11, 68159, Note_on_c, 9, 54, 0
11, 68160, Note_on_c, 9, 54, 64
11, 68399, Note_on_c, 9, 54, 0
11, 68400, Note_on_c, 9, 54, 64
11, 68639, Note_on_c, 9, 54, 0
11, 68640, Note_on_c, 9, 54, 64
11, 68879, Note_on_c, 9, 54, 0
11, 68880, Note_on_c, 9, 54, 64
11, 69119, Note_on_c, 9, 54, 0
11, 69120, Note_on_c, 9, 54, 64
11, 69359, Note_on_c, 9, 54, 0
11, 69360, Note_on_c, 9, 54, 64
11, 69599, Note_on_c, 9, 54, 0
11, 69600, Note_on_c, 9, 54, 64
11, 69839, Note_on_c, 9, 54, 0
11, 69840, Note_on_c, 9, 54, 64
11, 70079, Note_on_c, 9, 54, 0
11, 70080, Note_on_c, 9, 54, 64
11, 70319, Note_on_c, 9, 54, 0
11, 70320, Note_on_c, 9, 54, 64
11, 70559, Note_on_c, 9, 54, 0
11, 70560, Note_on_c, 9, 54, 64
11, 70799, Note_on_c, 9, 54, 0
11, 70800, Note_on_c, 9, 54, 64
11, 71039, Note_on_c, 9, 54, 0
11, 71040, Note_on_c, 9, 54, 64
11, 71279, Note_on_c, 9, 54, 0
11, 71280, Note_on_c, 9, 54, 64
11, 71519, Note_on_c, 9, 54, 0
11, 71520, Note_on_c, 9, 54, 64
11, 71759, Note_on_c, 9, 54, 0
11, 71760, Note_on_c, 9, 54, 64
11, 71999, Note_on_c, 9, 54, 0
11, 72000, Note_on_c, 9, 54, 64
11, 72239, Note_on_c, 9, 54, 0
11, 72240, Note_on_c, 9, 54, 64
11, 72479, Note_on_c, 9, 54, 0
11, 72480, Note_on_c, 9, 54, 64
11, 72719, Note_on_c, 9, 54, 0
11, 72720, Note_on_c, 9, 54, 64
11, 72959, Note_on_c, 9, 54, 0
11, 72960, Note_on_c, 9, 54, 64
11, 73199, Note_on_c, 9, 54, 0
11, 73200, Note_on_c, 9, 54, 64
11, 73439, Note_on_c, 9, 54, 0
11, 73440, Note_on_c, 9, 54, 64
11, 73679, Note_on_c, 9, 54, 0
11, 73680, Note_on_c, 9, 54, 64
11, 73919, Note_on_c, 9, 54, 0
11, 73920, Note_on_c, 9, 54, 64
11, 74159, Note_on_c, 9, 54, 0
11, 74160, Note_on_c, 9, 54, 64
11, 74399, Note_on_c, 9, 54, 0
11, 74400, Note_on_c, 9, 54, 64
11, 74639, Note_on_c, 9, 54, 0
11, 74640, Note_on_c, 9, 54, 64
11, 74879, Note_on_c, 9, 54, 0
11, 74880, Note_on_c, 9, 54, 64
11, 75119, Note_on_c, 9, 54, 0
11, 75120, Note_on_c, 9, 54, 64
11, 75359, Note_on_c, 9, 54, 0
11, 75360, Note_on_c, 9, 54, 64
11, 75599, Note_on_c, 9, 54, 0
11, 75600, Note_on_c, 9, 54, 64
11, 75839, Note_on_c, 9, 54, 0
11, 75840, Note_on_c, 9, 54, 64
11, 76079, Note_on_c, 9, 54, 0
11, 76080, Note_on_c, 9, 54, 64
11, 76319, Note_on_c, 9, 54, 0
11, 76320, Note_on_c, 9, 54, 64
11, 76559, Note_on_c, 9, 54, 0
11, 76560, Note_on_c, 9, 54, 64
11, 76799, Note_on_c, 9, 54, 0
11, 76800, Note_on_c, 9, 54, 64
11, 77039, Note_on_c, 9, 54, 0
11, 77040, Note_on_c, 9, 54, 64
11, 77279, Note_on_c, 9, 54, 0
11, 77280, Note_on_c, 9, 54, 64
11, 77519, Note_on_c, 9, 54, 0
11, 77520, Note_on_c, 9, 54, 64
11, 77759, Note_on_c, 9, 54, 0
11, 77760, Note_on_c, 9, 54, 64
11, 77999, Note_on_c, 9, 54, 0
11, 78000, Note_on_c, 9, 54, 64
11, 78239, Note_on_c, 9, 54, 0
11, 78240, Note_on_c, 9, 54, 64
11, 78479, Note_on_c, 9, 54, 0
11, 78480, Note_on_c, 9, 54, 64
11, 78719, Note_on_c, 9, 54, 0
11, 78720, Note_on_c, 9, 54, 64
11, 78959, Note_on_c, 9, 54, 0
11, 78960, Note_on_c, 9, 54, 64
11, 79199, Note_on_c, 9, 54, 0
11, 79200, Note_on_c, 9, 54, 64
11, 79439, Note_on_c, 9, 54, 0
11, 79440, Note_on_c, 9, 54, 64
11, 79679, Note_on_c, 9, 54, 0
11, 79680, Note_on_c, 9, 54, 64
11, 79919, Note_on_c, 9, 54, 0
11, 79920, Note_on_c, 9, 54, 64
11, 80159, Note_on_c, 9, 54, 0
11, 80160, Note_on_c, 9, 54, 64
11, 80399, Note_on_c, 9, 54, 0
11, 80400, Note_on_c, 9, 54, 64
11, 80639, Note_on_c, 9, 54, 0
11, 80640, Note_on_c, 9, 54, 64
11, 81119, Note_on_c, 9, 54, 0
11, 81600, Note_on_c, 9, 54, 64
11, 81839, Note_on_c, 9, 54, 0
11, 81840, Note_on_c, 9, 54, 64
11, 82079, Note_on_c, 9, 54, 0
11, 82080, Note_on_c, 9, 54, 64
11, 82319, Note_on_c, 9, 54, 0
11, 82320, Note_on_c, 9, 54, 64
11, 82559, Note_on_c, 9, 54, 0
11, 82560, Note_on_c, 9, 54, 64
11, 82799, Note_on_c, 9, 54, 0
11, 82800, Note_on_c, 9, 54, 64
11, 83039, Note_on_c, 9, 54, 0
11, 83040, Note_on_c, 9, 54, 64
11, 83279, Note_on_c, 9, 54, 0
11, 83280, Note_on_c, 9, 54, 64
11, 83519, Note_on_c, 9, 54, 0
11, 83520, Note_on_c, 9, 54, 64
11, 83759, Note_on_c, 9, 54, 0
11, 83760, Note_on_c, 9, 54, 64
11, 83999, Note_on_c, 9, 54, 0
11, 84000, Note_on_c, 9, 54, 64
11, 84239, Note_on_c, 9, 54, 0
11, 84240, Note_on_c, 9, 54, 64
11, 84479, Note_on_c, 9, 54, 0
11, 84480, Note_on_c, 9, 54, 64
11, 84719, Note_on_c, 9, 54, 0
11, 84720, Note_on_c, 9, 54, 64
11, 84959, Note_on_c, 9, 54, 0
11, 84960, Note_on_c, 9, 54, 64
11, 85199, Note_on_c, 9, 54, 0
11, 85200, Note_on_c, 9, 54, 64
11, 85439, Note_on_c, 9, 54, 0
11, 85440, Note_on_c, 9, 54, 64
11, 85679, Note_on_c, 9, 54, 0
11, 85680, Note_on_c, 9, 54, 64
11, 85919, Note_on_c, 9, 54, 0
11, 85920, Note_on_c, 9, 54, 64
11, 86159, Note_on_c, 9, 54, 0
11, 86160, Note_on_c, 9, 54, 64
11, 86399, Note_on_c, 9, 54, 0
11, 86400, Note_on_c, 9, 54, 64
11, 86639, Note_on_c, 9, 54, 0
11, 86640, Note_on_c, 9, 54, 64
11, 86879, Note_on_c, 9, 54, 0
11, 86880, Note_on_c, 9, 54, 64
11, 87119, Note_on_c, 9, 54, 0
11, 87120, Note_on_c, 9, 54, 64
11, 87359, Note_on_c, 9, 54, 0
11, 87360, Note_on_c, 9, 54, 64
11, 87599, Note_on_c, 9, 54, 0
11, 87600, Note_on_c, 9, 54, 64
11, 87839, Note_on_c, 9, 54, 0
11, 87840, Note_on_c, 9, 54, 64
11, 88079, Note_on_c, 9, 54, 0
11, 88080, Note_on_c, 9, 54, 64
11, 88319, Note_on_c, 9, 54, 0
11, 88320, Note_on_c, 9, 54, 64
11, 88559, Note_on_c, 9, 54, 0
11, 88560, Note_on_c, 9, 54, 64
11, 88799, Note_on_c, 9, 54, 0
11, 88800, Note_on_c, 9, 54, 64
11, 89039, Note_on_c, 9, 54, 0
11, 89040, Note_on_c, 9, 54, 64
11, 89279, Note_on_c, 9, 54, 0
11, 89280, Note_on_c, 9, 54, 64
11, 89519, Note_on_c, 9, 54, 0
11, 89520, Note_on_c, 9, 54, 64
11, 89759, Note_on_c, 9, 54, 0
11, 89760, Note_on_c, 9, 54, 64
11, 89999, Note_on_c, 9, 54, 0
11, 90000, Note_on_c, 9, 54, 64
11, 90239, Note_on_c, 9, 54, 0
11, 90240, Note_on_c, 9, 54, 64
11, 90479, Note_on_c, 9, 54, 0
11, 90480, Note_on_c, 9, 54, 64
11, 90719, Note_on_c, 9, 54, 0
11, 90720, Note_on_c, 9, 54, 64
11, 90959, Note_on_c, 9, 54, 0
11, 90960, Note_on_c, 9, 54, 64
11, 91199, Note_on_c, 9, 54, 0
11, 91200, Note_on_c, 9, 54, 64
11, 91439, Note_on_c, 9, 54, 0
11, 91440, Note_on_c, 9, 54, 64
11, 91679, Note_on_c, 9, 54, 0
11, 91680, Note_on_c, 9, 54, 64
11, 91919, Note_on_c, 9, 54, 0
11, 91920, Note_on_c, 9, 54, 64
11, 92159, Note_on_c, 9, 54, 0
11, 92160, Note_on_c, 9, 54, 64
11, 92399, Note_on_c, 9, 54, 0
11, 92400, Note_on_c, 9, 54, 64
11, 92639, Note_on_c, 9, 54, 0
11, 92640, Note_on_c, 9, 54, 64
11, 92879, Note_on_c, 9, 54, 0
11, 92880, Note_on_c, 9, 54, 64
11, 93119, Note_on_c, 9, 54, 0
11, 93120, Note_on_c, 9, 54, 64
11, 93359, Note_on_c, 9, 54, 0
11, 93360, Note_on_c, 9, 54, 64
11, 93599, Note_on_c, 9, 54, 0
11, 93600, Note_on_c, 9, 54, 64
11, 93839, Note_on_c, 9, 54, 0
11, 93840, Note_on_c, 9, 54, 64
11, 94079, Note_on_c, 9, 54, 0
11, 94080, Note_on_c, 9, 54, 64
11, 94319, Note_on_c, 9, 54, 0
11, 94320, Note_on_c, 9, 54, 64
11, 94559, Note_on_c, 9, 54, 0
11, 94560, Note_on_c, 9, 54, 64
11, 94799, Note_on_c, 9, 54, 0
11, 94800, Note_on_c, 9, 54, 64
11, 95039, Note_on_c, 9, 54, 0
11, 95040, Note_on_c, 9, 54, 64
11, 95519, Note_on_c, 9, 54, 0
11, 95520, Note_on_c, 9, 54, 64
11, 95999, Note_on_c, 9, 54, 0
11, 111360, Note_on_c, 9, 54, 64
11, 111599, Note_on_c, 9, 54, 0
11, 111600, Note_on_c, 9, 54, 64
11, 111839, Note_on_c, 9, 54, 0
11, 111840, Note_on_c, 9, 54, 64
11, 112079, Note_on_c, 9, 54, 0
11, 112080, Note_on_c, 9, 54, 64
11, 112319, Note_on_c, 9, 54, 0
11, 112320, Note_on_c, 9, 54, 64
11, 112559, Note_on_c, 9, 54, 0
11, 112560, Note_on_c, 9, 54, 64
11, 112799, Note_on_c, 9, 54, 0
11, 112800, Note_on_c, 9, 54, 64
11, 113039, Note_on_c, 9, 54, 0
11, 113040, Note_on_c, 9, 54, 64
11, 113279, Note_on_c, 9, 54, 0
11, 113280, Note_on_c, 9, 54, 64
11, 113519, Note_on_c, 9, 54, 0
11, 113520, Note_on_c, 9, 54, 64
11, 113759, Note_on_c, 9, 54, 0
11, 113760, Note_on_c, 9, 54, 64
11, 113999, Note_on_c, 9, 54, 0
11, 114000, Note_on_c, 9, 54, 64
11, 114239, Note_on_c, 9, 54, 0
11, 114240, Note_on_c, 9, 54, 64
11, 114479, Note_on_c, 9, 54, 0
11, 114480, Note_on_c, 9, 54, 64
11, 114719, Note_on_c, 9, 54, 0
11, 114720, Note_on_c, 9, 54, 64
11, 114959, Note_on_c, 9, 54, 0
11, 114960, Note_on_c, 9, 54, 64
11, 115199, Note_on_c, 9, 54, 0
11, 115200, Note_on_c, 9, 54, 64
11, 115439, Note_on_c, 9, 54, 0
11, 115440, Note_on_c, 9, 54, 64
11, 115679, Note_on_c, 9, 54, 0
11, 115680, Note_on_c, 9, 54, 64
11, 115919, Note_on_c, 9, 54, 0
11, 115920, Note_on_c, 9, 54, 64
11, 116159, Note_on_c, 9, 54, 0
11, 116160, Note_on_c, 9, 54, 64
11, 116399, Note_on_c, 9, 54, 0
11, 116400, Note_on_c, 9, 54, 64
11, 116639, Note_on_c, 9, 54, 0
11, 116640, Note_on_c, 9, 54, 64
11, 116879, Note_on_c, 9, 54, 0
11, 116880, Note_on_c, 9, 54, 64
11, 117119, Note_on_c, 9, 54, 0
11, 117120, Note_on_c, 9, 54, 64
11, 117359, Note_on_c, 9, 54, 0
11, 117360, Note_on_c, 9, 54, 64
11, 117599, Note_on_c, 9, 54, 0
11, 117600, Note_on_c, 9, 54, 64
11, 117839, Note_on_c, 9, 54, 0
11, 117840, Note_on_c, 9, 54, 64
11, 118079, Note_on_c, 9, 54, 0
11, 118080, Note_on_c, 9, 54, 64
11, 118319, Note_on_c, 9, 54, 0
11, 118320, Note_on_c, 9, 54, 64
11, 118559, Note_on_c, 9, 54, 0
11, 118560, Note_on_c, 9, 54, 64
11, 118799, Note_on_c, 9, 54, 0
11, 118800, Note_on_c, 9, 54, 64
11, 119039, Note_on_c, 9, 54, 0
11, 119040, Note_on_c, 9, 54, 64
11, 119279, Note_on_c, 9, 54, 0
11, 119280, Note_on_c, 9, 54, 64
11, 119519, Note_on_c, 9, 54, 0
11, 119520, Note_on_c, 9, 54, 64
11, 119759, Note_on_c, 9, 54, 0
11, 119760, Note_on_c, 9, 54, 64
11, 119999, Note_on_c, 9, 54, 0
11, 120000, Note_on_c, 9, 54, 64
11, 120239, Note_on_c, 9, 54, 0
11, 120240, Note_on_c, 9, 54, 64
11, 120479, Note_on_c, 9, 54, 0
11, 120480, Note_on_c, 9, 54, 64
11, 120719, Note_on_c, 9, 54, 0
11, 120720, Note_on_c, 9, 54, 64
11, 120959, Note_on_c, 9, 54, 0
11, 120960, Note_on_c, 9, 54, 64
11, 121199, Note_on_c, 9, 54, 0
11, 121200, Note_on_c, 9, 54, 64
11, 121439, Note_on_c, 9, 54, 0
11, 121440, Note_on_c, 9, 54, 64
11, 121679, Note_on_c, 9, 54, 0
11, 121680, Note_on_c, 9, 54, 64
11, 121919, Note_on_c, 9, 54, 0
11, 121920, Note_on_c, 9, 54, 64
11, 122159, Note_on_c, 9, 54, 0
11, 122160, Note_on_c, 9, 54, 64
11, 122399, Note_on_c, 9, 54, 0
11, 122400, Note_on_c, 9, 54, 64
11, 122639, Note_on_c, 9, 54, 0
11, 122640, Note_on_c, 9, 54, 64
11, 122879, Note_on_c, 9, 54, 0
11, 122880, Note_on_c, 9, 54, 64
11, 123119, Note_on_c, 9, 54, 0
11, 123120, Note_on_c, 9, 54, 64
11, 123359, Note_on_c, 9, 54, 0
11, 123360, Note_on_c, 9, 54, 64
11, 123599, Note_on_c, 9, 54, 0
11, 123600, Note_on_c, 9, 54, 64
11, 123839, Note_on_c, 9, 54, 0
11, 123840, Note_on_c, 9, 54, 64
11, 124079, Note_on_c, 9, 54, 0
11, 124080, Note_on_c, 9, 54, 64
11, 124319, Note_on_c, 9, 54, 0
11, 124320, Note_on_c, 9, 54, 64
11, 124559, Note_on_c, 9, 54, 0
11, 124560, Note_on_c, 9, 54, 64
11, 124799, Note_on_c, 9, 54, 0
11, 124800, Note_on_c, 9, 54, 64
11, 125039, Note_on_c, 9, 54, 0
11, 125040, Note_on_c, 9, 54, 64
11, 125279, Note_on_c, 9, 54, 0
11, 125280, Note_on_c, 9, 54, 64
11, 125519, Note_on_c, 9, 54, 0
11, 125520, Note_on_c, 9, 54, 64
11, 125759, Note_on_c, 9, 54, 0
11, 125760, Note_on_c, 9, 54, 64
11, 125999, Note_on_c, 9, 54, 0
11, 126000, Note_on_c, 9, 54, 64
11, 126239, Note_on_c, 9, 54, 0
11, 126240, Note_on_c, 9, 54, 64
11, 126479, Note_on_c, 9, 54, 0
11, 126480, Note_on_c, 9, 54, 64
11, 126719, Note_on_c, 9, 54, 0
11, 126720, Note_on_c, 9, 54, 64
11, 127199, Note_on_c, 9, 54, 0
11, 127200, Note_on_c, 9, 54, 64
11, 127439, Note_on_c, 9, 54, 0
11, 127440, Note_on_c, 9, 54, 64
11, 127679, Note_on_c, 9, 54, 0
11, 127680, Note_on_c, 9, 54, 64
11, 127919, Note_on_c, 9, 54, 0
11, 127920, Note_on_c, 9, 54, 64
11, 128159, Note_on_c, 9, 54, 0
11, 128160, Note_on_c, 9, 54, 64
11, 128399, Note_on_c, 9, 54, 0
11, 128400, Note_on_c, 9, 54, 64
11, 128639, Note_on_c, 9, 54, 0
11, 128640, Note_on_c, 9, 54, 64
11, 128879, Note_on_c, 9, 54, 0
11, 128880, Note_on_c, 9, 54, 64
11, 129119, Note_on_c, 9, 54, 0
11, 129120, Note_on_c, 9, 54, 64
11, 129359, Note_on_c, 9, 54, 0
11, 129360, Note_on_c, 9, 54, 64
11, 129599, Note_on_c, 9, 54, 0
11, 129600, Note_on_c, 9, 54, 64
11, 129839, Note_on_c, 9, 54, 0
11, 129840, Note_on_c, 9, 54, 64
11, 130079, Note_on_c, 9, 54, 0
11, 130080, Note_on_c, 9, 54, 64
11, 130319, Note_on_c, 9, 54, 0
11, 130320, Note_on_c, 9, 54, 64
11, 130559, Note_on_c, 9, 54, 0
11, 130560, Note_on_c, 9, 54, 64
11, 130799, Note_on_c, 9, 54, 0
11, 130800, Note_on_c, 9, 54, 64
11, 131039, Note_on_c, 9, 54, 0
11, 131040, Note_on_c, 9, 54, 64
11, 131279, Note_on_c, 9, 54, 0
11, 131280, Note_on_c, 9, 54, 64
11, 131519, Note_on_c, 9, 54, 0
11, 131520, Note_on_c, 9, 54, 64
11, 131759, Note_on_c, 9, 54, 0
11, 131760, Note_on_c, 9, 54, 64
11, 131999, Note_on_c, 9, 54, 0
11, 132000, Note_on_c, 9, 54, 64
11, 132239, Note_on_c, 9, 54, 0
11, 132240, Note_on_c, 9, 54, 64
11, 132479, Note_on_c, 9, 54, 0
11, 132480, Note_on_c, 9, 54, 64
11, 132719, Note_on_c, 9, 54, 0
11, 132720, Note_on_c, 9, 54, 64
11, 132959, Note_on_c, 9, 54, 0
11, 132960, Note_on_c, 9, 54, 64
11, 133199, Note_on_c, 9, 54, 0
11, 133200, Note_on_c, 9, 54, 64
11, 133439, Note_on_c, 9, 54, 0
11, 133440, Note_on_c, 9, 54, 64
11, 133679, Note_on_c, 9, 54, 0
11, 133680, Note_on_c, 9, 54, 64
11, 133919, Note_on_c, 9, 54, 0
11, 133920, Note_on_c, 9, 54, 64
11, 134159, Note_on_c, 9, 54, 0
11, 134160, Note_on_c, 9, 54, 64
11, 134399, Note_on_c, 9, 54, 0
11, 134400, Note_on_c, 9, 54, 64
11, 134639, Note_on_c, 9, 54, 0
11, 134640, Note_on_c, 9, 54, 64
11, 134879, Note_on_c, 9, 54, 0
11, 134880, Note_on_c, 9, 54, 64
11, 135119, Note_on_c, 9, 54, 0
11, 135120, Note_on_c, 9, 54, 64
11, 135359, Note_on_c, 9, 54, 0
11, 135360, Note_on_c, 9, 54, 64
11, 135599, Note_on_c, 9, 54, 0
11, 135600, Note_on_c, 9, 54, 64
11, 135839, Note_on_c, 9, 54, 0
11, 135840, Note_on_c, 9, 54, 64
11, 136079, Note_on_c, 9, 54, 0
11, 136080, Note_on_c, 9, 54, 64
11, 136319, Note_on_c, 9, 54, 0
11, 136320, Note_on_c, 9, 54, 64
11, 136559, Note_on_c, 9, 54, 0
11, 136560, Note_on_c, 9, 54, 64
11, 136799, Note_on_c, 9, 54, 0
11, 136800, Note_on_c, 9, 54, 64
11, 137039, Note_on_c, 9, 54, 0
11, 137040, Note_on_c, 9, 54, 64
11, 137279, Note_on_c, 9, 54, 0
11, 137280, Note_on_c, 9, 54, 64
11, 137519, Note_on_c, 9, 54, 0
11, 137520, Note_on_c, 9, 54, 64
11, 137759, Note_on_c, 9, 54, 0
11, 137760, Note_on_c, 9, 54, 64
11, 137999, Note_on_c, 9, 54, 0
11, 138000, Note_on_c, 9, 54, 64
11, 138239, Note_on_c, 9, 54, 0
11, 138240, Note_on_c, 9, 54, 64
11, 138479, Note_on_c, 9, 54, 0
11, 138480, Note_on_c, 9, 54, 64
11, 138719, Note_on_c, 9, 54, 0
11, 138720, Note_on_c, 9, 54, 64
11, 138959, Note_on_c, 9, 54, 0
11, 138960, Note_on_c, 9, 54, 64
11, 139199, Note_on_c, 9, 54, 0
11, 139200, Note_on_c, 9, 54, 64
11, 139439, Note_on_c, 9, 54, 0
11, 139440, Note_on_c, 9, 54, 64
11, 139679, Note_on_c, 9, 54, 0
11, 139680, Note_on_c, 9, 54, 64
11, 139919, Note_on_c, 9, 54, 0
11, 139920, Note_on_c, 9, 54, 64
11, 140159, Note_on_c, 9, 54, 0
11, 140160, Note_on_c, 9, 54, 64
11, 140399, Note_on_c, 9, 54, 0
11, 140400, Note_on_c, 9, 54, 64
11, 140639, Note_on_c, 9, 54, 0
11, 140640, Note_on_c, 9, 54, 64
11, 140879, Note_on_c, 9, 54, 0
11, 140880, Note_on_c, 9, 54, 64
11, 141119, Note_on_c, 9, 54, 0
11, 141120, Note_on_c, 9, 54, 64
11, 141359, Note_on_c, 9, 54, 0
11, 141360, Note_on_c, 9, 54, 64
11, 141599, Note_on_c, 9, 54, 0
11, 141600, Note_on_c, 9, 54, 64
11, 141839, Note_on_c, 9, 54, 0
11, 141840, Note_on_c, 9, 54, 64
11, 142079, Note_on_c, 9, 54, 0
11, 142080, Note_on_c, 9, 54, 64
11, 142319, Note_on_c, 9, 54, 0
11, 142320, Note_on_c, 9, 54, 64
11, 142559, Note_on_c, 9, 54, 0
11, 142560, Note_on_c, 9, 54, 64
11, 142799, Note_on_c, 9, 54, 0
11, 142800, Note_on_c, 9, 54, 64
11, 143039, Note_on_c, 9, 54, 0
11, 143040, Note_on_c, 9, 54, 64
11, 143279, Note_on_c, 9, 54, 0
11, 143280, Note_on_c, 9, 54, 64
11, 143519, Note_on_c, 9, 54, 0
11, 143520, Note_on_c, 9, 54, 64
11, 143759, Note_on_c, 9, 54, 0
11, 143760, Note_on_c, 9, 54, 64
11, 143999, Note_on_c, 9, 54, 0
11, 144000, Note_on_c, 9, 54, 64
11, 144239, Note_on_c, 9, 54, 0
11, 144240, Note_on_c, 9, 54, 64
11, 144479, Note_on_c, 9, 54, 0
11, 144480, Note_on_c, 9, 54, 64
11, 144719, Note_on_c, 9, 54, 0
11, 144720, Note_on_c, 9, 54, 64
11, 144959, Note_on_c, 9, 54, 0
11, 144960, Note_on_c, 9, 54, 64
11, 145199, Note_on_c, 9, 54, 0
11, 145200, Note_on_c, 9, 54, 64
11, 145439, Note_on_c, 9, 54, 0
11, 145440, Note_on_c, 9, 54, 64
11, 145679, Note_on_c, 9, 54, 0
11, 145680, Note_on_c, 9, 54, 64
11, 145919, Note_on_c, 9, 54, 0
11, 145920, Note_on_c, 9, 54, 64
11, 146159, Note_on_c, 9, 54, 0
11, 146160, Note_on_c, 9, 54, 64
11, 146399, Note_on_c, 9, 54, 0
11, 146400, Note_on_c, 9, 54, 64
11, 146639, Note_on_c, 9, 54, 0
11, 146640, Note_on_c, 9, 54, 64
11, 146879, Note_on_c, 9, 54, 0
11, 146880, Note_on_c, 9, 54, 64
11, 147119, Note_on_c, 9, 54, 0
11, 147120, Note_on_c, 9, 54, 64
11, 147359, Note_on_c, 9, 54, 0
11, 147360, Note_on_c, 9, 54, 64
11, 147599, Note_on_c, 9, 54, 0
11, 147600, Note_on_c, 9, 54, 64
11, 147839, Note_on_c, 9, 54, 0
11, 147840, Note_on_c, 9, 54, 64
11, 148079, Note_on_c, 9, 54, 0
11, 148080, Note_on_c, 9, 54, 64
11, 148319, Note_on_c, 9, 54, 0
11, 148320, Note_on_c, 9, 54, 64
11, 148559, Note_on_c, 9, 54, 0
11, 148560, Note_on_c, 9, 54, 64
11, 148799, Note_on_c, 9, 54, 0
11, 148800, Note_on_c, 9, 54, 64
11, 149039, Note_on_c, 9, 54, 0
11, 149040, Note_on_c, 9, 54, 64
11, 149279, Note_on_c, 9, 54, 0
11, 149280, Note_on_c, 9, 54, 64
11, 149519, Note_on_c, 9, 54, 0
11, 149520, Note_on_c, 9, 54, 64
11, 149759, Note_on_c, 9, 54, 0
11, 149760, Note_on_c, 9, 54, 64
11, 149999, Note_on_c, 9, 54, 0
11, 150000, Note_on_c, 9, 54, 64
11, 150239, Note_on_c, 9, 54, 0
11, 150240, Note_on_c, 9, 54, 64
11, 150479, Note_on_c, 9, 54, 0
11, 150480, Note_on_c, 9, 54, 64
11, 150719, Note_on_c, 9, 54, 0
11, 150720, Note_on_c, 9, 54, 64
11, 150959, Note_on_c, 9, 54, 0
11, 150960, Note_on_c, 9, 54, 64
11, 151199, Note_on_c, 9, 54, 0
11, 151200, Note_on_c, 9, 54, 64
11, 151439, Note_on_c, 9, 54, 0
11, 151440, Note_on_c, 9, 54, 64
11, 151679, Note_on_c, 9, 54, 0
11, 151680, Note_on_c, 9, 54, 64
11, 151919, Note_on_c, 9, 54, 0
11, 151920, Note_on_c, 9, 54, 64
11, 152159, Note_on_c, 9, 54, 0
11, 152160, Note_on_c, 9, 54, 64
11, 152399, Note_on_c, 9, 54, 0
11, 152400, Note_on_c, 9, 54, 64
11, 152639, Note_on_c, 9, 54, 0
11, 152640, Note_on_c, 9, 54, 64
11, 152879, Note_on_c, 9, 54, 0
11, 152880, Note_on_c, 9, 54, 64
11, 153119, Note_on_c, 9, 54, 0
11, 153120, Note_on_c, 9, 54, 64
11, 153359, Note_on_c, 9, 54, 0
11, 153360, Note_on_c, 9, 54, 64
11, 153599, Note_on_c, 9, 54, 0
11, 153600, Note_on_c, 9, 54, 64
11, 153839, Note_on_c, 9, 54, 0
11, 153840, Note_on_c, 9, 54, 64
11, 154079, Note_on_c, 9, 54, 0
11, 154080, Note_on_c, 9, 54, 64
11, 154319, Note_on_c, 9, 54, 0
11, 154320, Note_on_c, 9, 54, 64
11, 154559, Note_on_c, 9, 54, 0
11, 154560, Note_on_c, 9, 54, 64
11, 154799, Note_on_c, 9, 54, 0
11, 154800, Note_on_c, 9, 54, 64
11, 155039, Note_on_c, 9, 54, 0
11, 155040, Note_on_c, 9, 54, 64
11, 155279, Note_on_c, 9, 54, 0
11, 155280, Note_on_c, 9, 54, 64
11, 155519, Note_on_c, 9, 54, 0
11, 155520, Note_on_c, 9, 54, 64
11, 155999, Note_on_c, 9, 54, 0
11, 157440, Note_on_c, 9, 54, 122
11, 157599, Note_on_c, 9, 54, 0
11, 157600, Note_on_c, 9, 54, 82
11, 157679, Note_on_c, 9, 54, 0
11, 157680, Note_on_c, 9, 54, 108
11, 157839, Note_on_c, 9, 54, 0
11, 157840, Note_on_c, 9, 54, 79
11, 157919, Note_on_c, 9, 54, 0
11, 157920, Note_on_c, 9, 54, 104
11, 158079, Note_on_c, 9, 54, 0
11, 158080, Note_on_c, 9, 54, 73
11, 158159, Note_on_c, 9, 54, 0
11, 158160, Note_on_c, 9, 54, 113
11, 158279, Note_on_c, 9, 54, 0
11, 158310, Note_on_c, 9, 54, 76
11, 158399, Note_on_c, 9, 54, 0
11, 158400, Note_on_c, 9, 54, 117
11, 158559, Note_on_c, 9, 54, 0
11, 158560, Note_on_c, 9, 54, 53
11, 158639, Note_on_c, 9, 54, 0
11, 158640, Note_on_c, 9, 54, 113
11, 158759, Note_on_c, 9, 54, 0
11, 158790, Note_on_c, 9, 54, 67
11, 158879, Note_on_c, 9, 54, 0
11, 158880, Note_on_c, 9, 54, 117
11, 158999, Note_on_c, 9, 54, 0
11, 159030, Note_on_c, 9, 54, 85
11, 159119, Note_on_c, 9, 54, 0
11, 159120, Note_on_c, 9, 54, 117
11, 159279, Note_on_c, 9, 54, 0
11, 159280, Note_on_c, 9, 54, 89
11, 159359, Note_on_c, 9, 54, 0
11, 159360, Note_on_c, 9, 54, 117
11, 159479, Note_on_c, 9, 54, 0
11, 159510, Note_on_c, 9, 54, 76
11, 159599, Note_on_c, 9, 54, 0
11, 159600, Note_on_c, 9, 54, 117
11, 159759, Note_on_c, 9, 54, 0
11, 159760, Note_on_c, 9, 54, 70
11, 159839, Note_on_c, 9, 54, 0
11, 159860, Note_on_c, 9, 54, 117
11, 159899, Note_on_c, 9, 54, 0
11, 159990, Note_on_c, 9, 54, 85
11, 160079, Note_on_c, 9, 54, 0
11, 160095, Note_on_c, 9, 54, 113
11, 160139, Note_on_c, 9, 54, 0
11, 160240, Note_on_c, 9, 54, 70
11, 160319, Note_on_c, 9, 54, 0
11, 160320, Note_on_c, 9, 54, 122
11, 160479, Note_on_c, 9, 54, 0
11, 160480, Note_on_c, 9, 54, 89
11, 160559, Note_on_c, 9, 54, 0
11, 160575, Note_on_c, 9, 54, 113
11, 160739, Note_on_c, 9, 54, 0
11, 160740, Note_on_c, 9, 54, 89
11, 160799, Note_on_c, 9, 54, 0
11, 160800, Note_on_c, 9, 54, 113
11, 160959, Note_on_c, 9, 54, 0
11, 160960, Note_on_c, 9, 54, 92
11, 161039, Note_on_c, 9, 54, 0
11, 161040, Note_on_c, 9, 54, 117
11, 161199, Note_on_c, 9, 54, 0
11, 161200, Note_on_c, 9, 54, 82
11, 161279, Note_on_c, 9, 54, 0
11, 161280, Note_on_c, 9, 54, 122
11, 161439, Note_on_c, 9, 54, 0
11, 161440, Note_on_c, 9, 54, 82
11, 161519, Note_on_c, 9, 54, 0
11, 161520, Note_on_c, 9, 54, 108
11, 161679, Note_on_c, 9, 54, 0
11, 161680, Note_on_c, 9, 54, 79
11, 161759, Note_on_c, 9, 54, 0
11, 161760, Note_on_c, 9, 54, 104
11, 161919, Note_on_c, 9, 54, 0
11, 161920, Note_on_c, 9, 54, 73
11, 161999, Note_on_c, 9, 54, 0
11, 162000, Note_on_c, 9, 54, 113
11, 162119, Note_on_c, 9, 54, 0
11, 162150, Note_on_c, 9, 54, 76
11, 162239, Note_on_c, 9, 54, 0
11, 162240, Note_on_c, 9, 54, 117
11, 162399, Note_on_c, 9, 54, 0
11, 162400, Note_on_c, 9, 54, 53
11, 162479, Note_on_c, 9, 54, 0
11, 162480, Note_on_c, 9, 54, 113
11, 162599, Note_on_c, 9, 54, 0
11, 162630, Note_on_c, 9, 54, 67
11, 162719, Note_on_c, 9, 54, 0
11, 162720, Note_on_c, 9, 54, 117
11, 162839, Note_on_c, 9, 54, 0
11, 162870, Note_on_c, 9, 54, 85
11, 162959, Note_on_c, 9, 54, 0
11, 162960, Note_on_c, 9, 54, 117
11, 163119, Note_on_c, 9, 54, 0
11, 163120, Note_on_c, 9, 54, 89
11, 163199, Note_on_c, 9, 54, 0
11, 163200, Note_on_c, 9, 54, 117
11, 163319, Note_on_c, 9, 54, 0
11, 163350, Note_on_c, 9, 54, 76
11, 163439, Note_on_c, 9, 54, 0
11, 163440, Note_on_c, 9, 54, 117
11, 163599, Note_on_c, 9, 54, 0
11, 163600, Note_on_c, 9, 54, 70
11, 163679, Note_on_c, 9, 54, 0
11, 163700, Note_on_c, 9, 54, 117
11, 163739, Note_on_c, 9, 54, 0
11, 163830, Note_on_c, 9, 54, 85
11, 163919, Note_on_c, 9, 54, 0
11, 163935, Note_on_c, 9, 54, 113
11, 163979, Note_on_c, 9, 54, 0
11, 164080, Note_on_c, 9, 54, 70
11, 164159, Note_on_c, 9, 54, 0
11, 164160, Note_on_c, 9, 54, 122
11, 164319, Note_on_c, 9, 54, 0
11, 164320, Note_on_c, 9, 54, 89
11, 164399, Note_on_c, 9, 54, 0
11, 164415, Note_on_c, 9, 54, 113
11, 164579, Note_on_c, 9, 54, 0
11, 164580, Note_on_c, 9, 54, 89
11, 164639, Note_on_c, 9, 54, 0
11, 164640, Note_on_c, 9, 54, 113
11, 164799, Note_on_c, 9, 54, 0
11, 164800, Note_on_c, 9, 54, 92
11, 164879, Note_on_c, 9, 54, 0
11, 164880, Note_on_c, 9, 54, 117
11, 165039, Note_on_c, 9, 54, 0
11, 165040, Note_on_c, 9, 54, 82
11, 165119, Note_on_c, 9, 54, 0
11, 165120, Note_on_c, 9, 54, 122
11, 165279, Note_on_c, 9, 54, 0
11, 165280, Note_on_c, 9, 54, 82
11, 165359, Note_on_c, 9, 54, 0
11, 165360, Note_on_c, 9, 54, 108
11, 165519, Note_on_c, 9, 54, 0
11, 165520, Note_on_c, 9, 54, 79
11, 165599, Note_on_c, 9, 54, 0
11, 165600, Note_on_c, 9, 54, 104
11, 165759, Note_on_c, 9, 54, 0
11, 165760, Note_on_c, 9, 54, 73
11, 165839, Note_on_c, 9, 54, 0
11, 165840, Note_on_c, 9, 54, 113
11, 165959, Note_on_c, 9, 54, 0
11, 165990, Note_on_c, 9, 54, 76
11, 166079, Note_on_c, 9, 54, 0
11, 166080, Note_on_c, 9, 54, 117
11, 166239, Note_on_c, 9, 54, 0
11, 166240, Note_on_c, 9, 54, 53
11, 166319, Note_on_c, 9, 54, 0
11, 166320, Note_on_c, 9, 54, 113
11, 166439, Note_on_c, 9, 54, 0
11, 166470, Note_on_c, 9, 54, 67
11, 166559, Note_on_c, 9, 54, 0
11, 166560, Note_on_c, 9, 54, 117
11, 166679, Note_on_c, 9, 54, 0
11, 166710, Note_on_c, 9, 54, 85
11, 166799, Note_on_c, 9, 54, 0
11, 166800, Note_on_c, 9, 54, 117
11, 166959, Note_on_c, 9, 54, 0
11, 166960, Note_on_c, 9, 54, 89
11, 167039, Note_on_c, 9, 54, 0
11, 167040, Note_on_c, 9, 54, 117
11, 167159, Note_on_c, 9, 54, 0
11, 167190, Note_on_c, 9, 54, 76
11, 167279, Note_on_c, 9, 54, 0
11, 167280, Note_on_c, 9, 54, 117
11, 167439, Note_on_c, 9, 54, 0
11, 167440, Note_on_c, 9, 54, 70
11, 167519, Note_on_c, 9, 54, 0
11, 167540, Note_on_c, 9, 54, 117
11, 167579, Note_on_c, 9, 54, 0
11, 167670, Note_on_c, 9, 54, 85
11, 167759, Note_on_c, 9, 54, 0
11, 167775, Note_on_c, 9, 54, 113
11, 167819, Note_on_c, 9, 54, 0
11, 167920, Note_on_c, 9, 54, 70
11, 167999, Note_on_c, 9, 54, 0
11, 168000, Note_on_c, 9, 54, 122
11, 168159, Note_on_c, 9, 54, 0
11, 168160, Note_on_c, 9, 54, 89
11, 168239, Note_on_c, 9, 54, 0
11, 168255, Note_on_c, 9, 54, 113
11, 168419, Note_on_c, 9, 54, 0
11, 168420, Note_on_c, 9, 54, 89
11, 168479, Note_on_c, 9, 54, 0
11, 168480, Note_on_c, 9, 54, 113
11, 168639, Note_on_c, 9, 54, 0
11, 168640, Note_on_c, 9, 54, 92
11, 168719, Note_on_c, 9, 54, 0
11, 168720, Note_on_c, 9, 54, 117
11, 168879, Note_on_c, 9, 54, 0
11, 168880, Note_on_c, 9, 54, 82
11, 168959, Note_on_c, 9, 54, 0
11, 168960, Note_on_c, 9, 54, 122
11, 169119, Note_on_c, 9, 54, 0
11, 169120, Note_on_c, 9, 54, 82
11, 169199, Note_on_c, 9, 54, 0
11, 169200, Note_on_c, 9, 54, 108
11, 169359, Note_on_c, 9, 54, 0
11, 169360, Note_on_c, 9, 54, 79
11, 169439, Note_on_c, 9, 54, 0
11, 169440, Note_on_c, 9, 54, 104
11, 169599, Note_on_c, 9, 54, 0
11, 169600, Note_on_c, 9, 54, 73
11, 169679, Note_on_c, 9, 54, 0
11, 169680, Note_on_c, 9, 54, 113
11, 169799, Note_on_c, 9, 54, 0
11, 169830, Note_on_c, 9, 54, 76
11, 169919, Note_on_c, 9, 54, 0
11, 169920, Note_on_c, 9, 54, 117
11, 170079, Note_on_c, 9, 54, 0
11, 170080, Note_on_c, 9, 54, 53
11, 170159, Note_on_c, 9, 54, 0
11, 170160, Note_on_c, 9, 54, 113
11, 170279, Note_on_c, 9, 54, 0
11, 170310, Note_on_c, 9, 54, 67
11, 170399, Note_on_c, 9, 54, 0
11, 170400, Note_on_c, 9, 54, 117
11, 170519, Note_on_c, 9, 54, 0
11, 170550, Note_on_c, 9, 54, 85
11, 170639, Note_on_c, 9, 54, 0
11, 170640, Note_on_c, 9, 54, 117
11, 170799, Note_on_c, 9, 54, 0
11, 170800, Note_on_c, 9, 54, 89
11, 170879, Note_on_c, 9, 54, 0
11, 170880, Note_on_c, 9, 54, 117
11, 170999, Note_on_c, 9, 54, 0
11, 171030, Note_on_c, 9, 54, 76
11, 171119, Note_on_c, 9, 54, 0
11, 171120, Note_on_c, 9, 54, 117
11, 171279, Note_on_c, 9, 54, 0
11, 171280, Note_on_c, 9, 54, 70
11, 171359, Note_on_c, 9, 54, 0
11, 171380, Note_on_c, 9, 54, 117
11, 171419, Note_on_c, 9, 54, 0
11, 171510, Note_on_c, 9, 54, 85
11, 171599, Note_on_c, 9, 54, 0
11, 171615, Note_on_c, 9, 54, 113
11, 171659, Note_on_c, 9, 54, 0
11, 171760, Note_on_c, 9, 54, 70
11, 171839, Note_on_c, 9, 54, 0
11, 171840, Note_on_c, 9, 54, 122
11, 171999, Note_on_c, 9, 54, 0
11, 172000, Note_on_c, 9, 54, 89
11, 172079, Note_on_c, 9, 54, 0
11, 172095, Note_on_c, 9, 54, 113
11, 172259, Note_on_c, 9, 54, 0
11, 172260, Note_on_c, 9, 54, 89
11, 172319, Note_on_c, 9, 54, 0
11, 172320, Note_on_c, 9, 54, 113
11, 172479, Note_on_c, 9, 54, 0
11, 172480, Note_on_c, 9, 54, 92
11, 172559, Note_on_c, 9, 54, 0
11, 172560, Note_on_c, 9, 54, 117
11, 172719, Note_on_c, 9, 54, 0
11, 172720, Note_on_c, 9, 54, 82
11, 172799, Note_on_c, 9, 54, 0
11, 172800, Note_on_c, 9, 54, 122
11, 172959, Note_on_c, 9, 54, 0
11, 172960, Note_on_c, 9, 54, 82
11, 173039, Note_on_c, 9, 54, 0
11, 173040, Note_on_c, 9, 54, 108
11, 173199, Note_on_c, 9, 54, 0
11, 173200, Note_on_c, 9, 54, 79
11, 173279, Note_on_c, 9, 54, 0
11, 173280, Note_on_c, 9, 54, 104
11, 173439, Note_on_c, 9, 54, 0
11, 173440, Note_on_c, 9, 54, 73
11, 173519, Note_on_c, 9, 54, 0
11, 173520, Note_on_c, 9, 54, 113
11, 173639, Note_on_c, 9, 54, 0
11, 173670, Note_on_c, 9, 54, 76
11, 173759, Note_on_c, 9, 54, 0
11, 173760, Note_on_c, 9, 54, 117
11, 173919, Note_on_c, 9, 54, 0
11, 173920, Note_on_c, 9, 54, 53
11, 173999, Note_on_c, 9, 54, 0
11, 174000, Note_on_c, 9, 54, 113
11, 174119, Note_on_c, 9, 54, 0
11, 174150, Note_on_c, 9, 54, 67
11, 174239, Note_on_c, 9, 54, 0
11, 174240, Note_on_c, 9, 54, 117
11, 174359, Note_on_c, 9, 54, 0
11, 174390, Note_on_c, 9, 54, 85
11, 174479, Note_on_c, 9, 54, 0
11, 174480, Note_on_c, 9, 54, 117
11, 174639, Note_on_c, 9, 54, 0
11, 174640, Note_on_c, 9, 54, 89
11, 174719, Note_on_c, 9, 54, 0
11, 174720, Note_on_c, 9, 54, 117
11, 174839, Note_on_c, 9, 54, 0
11, 174870, Note_on_c, 9, 54, 76
11, 174959, Note_on_c, 9, 54, 0
11, 174960, Note_on_c, 9, 54, 117
11, 175119, Note_on_c, 9, 54, 0
11, 175120, Note_on_c, 9, 54, 70
11, 175199, Note_on_c, 9, 54, 0
11, 175220, Note_on_c, 9, 54, 117
11, 175259, Note_on_c, 9, 54, 0
11, 175350, Note_on_c, 9, 54, 85
11, 175439, Note_on_c, 9, 54, 0
11, 175455, Note_on_c, 9, 54, 113
11, 175499, Note_on_c, 9, 54, 0
11, 175600, Note_on_c, 9, 54, 70
11, 175679, Note_on_c, 9, 54, 0
11, 175680, Note_on_c, 9, 54, 122
11, 175839, Note_on_c, 9, 54, 0
11, 175840, Note_on_c, 9, 54, 89
11, 175919, Note_on_c, 9, 54, 0
11, 175935, Note_on_c, 9, 54, 113
11, 176099, Note_on_c, 9, 54, 0
11, 176100, Note_on_c, 9, 54, 89
11, 176159, Note_on_c, 9, 54, 0
11, 176160, Note_on_c, 9, 54, 113
11, 176319, Note_on_c, 9, 54, 0
11, 176320, Note_on_c, 9, 54, 92
11, 176399, Note_on_c, 9, 54, 0
11, 176400, Note_on_c, 9, 54, 117
11, 176559, Note_on_c, 9, 54, 0
11, 176560, Note_on_c, 9, 54, 82
11, 176639, Note_on_c, 9, 54, 0
11, 176640, Note_on_c, 9, 54, 122
11, 176799, Note_on_c, 9, 54, 0
11, 176800, Note_on_c, 9, 54, 82
11, 176879, Note_on_c, 9, 54, 0
11, 176880, Note_on_c, 9, 54, 108
11, 177039, Note_on_c, 9, 54, 0
11, 177040, Note_on_c, 9, 54, 79
11, 177119, Note_on_c, 9, 54, 0
11, 177120, Note_on_c, 9, 54, 104
11, 177279, Note_on_c, 9, 54, 0
11, 177280, Note_on_c, 9, 54, 73
11, 177359, Note_on_c, 9, 54, 0
11, 177360, Note_on_c, 9, 54, 113
11, 177479, Note_on_c, 9, 54, 0
11, 177510, Note_on_c, 9, 54, 76
11, 177599, Note_on_c, 9, 54, 0
11, 177600, Note_on_c, 9, 54, 117
11, 177759, Note_on_c, 9, 54, 0
11, 177760, Note_on_c, 9, 54, 53
11, 177839, Note_on_c, 9, 54, 0
11, 177840, Note_on_c, 9, 54, 113
11, 177959, Note_on_c, 9, 54, 0
11, 177990, Note_on_c, 9, 54, 67
11, 178079, Note_on_c, 9, 54, 0
11, 178080, Note_on_c, 9, 54, 117
11, 178199, Note_on_c, 9, 54, 0
11, 178230, Note_on_c, 9, 54, 85
11, 178319, Note_on_c, 9, 54, 0
11, 178320, Note_on_c, 9, 54, 117
11, 178479, Note_on_c, 9, 54, 0
11, 178480, Note_on_c, 9, 54, 89
11, 178559, Note_on_c, 9, 54, 0
11, 178560, Note_on_c, 9, 54, 117
11, 178679, Note_on_c, 9, 54, 0
11, 178710, Note_on_c, 9, 54, 76
11, 178799, Note_on_c, 9, 54, 0
11, 178800, Note_on_c, 9, 54, 117
11, 178959, Note_on_c, 9, 54, 0
11, 178960, Note_on_c, 9, 54, 70
11, 179039, Note_on_c, 9, 54, 0
11, 179060, Note_on_c, 9, 54, 117
11, 179099, Note_on_c, 9, 54, 0
11, 179190, Note_on_c, 9, 54, 85
11, 179279, Note_on_c, 9, 54, 0
11, 179295, Note_on_c, 9, 54, 113
11, 179339, Note_on_c, 9, 54, 0
11, 179440, Note_on_c, 9, 54, 70
11, 179519, Note_on_c, 9, 54, 0
11, 179520, Note_on_c, 9, 54, 122
11, 179679, Note_on_c, 9, 54, 0
11, 179680, Note_on_c, 9, 54, 89
11, 179759, Note_on_c, 9, 54, 0
11, 179775, Note_on_c, 9, 54, 113
11, 179939, Note_on_c, 9, 54, 0
11, 179940, Note_on_c, 9, 54, 89
11, 179999, Note_on_c, 9, 54, 0
11, 180000, Note_on_c, 9, 54, 113
11, 180159, Note_on_c, 9, 54, 0
11, 180160, Note_on_c, 9, 54, 92
11, 180239, Note_on_c, 9, 54, 0
11, 180240, Note_on_c, 9, 54, 117
11, 180399, Note_on_c, 9, 54, 0
11, 180400, Note_on_c, 9, 54, 82
11, 180479, Note_on_c, 9, 54, 0
11, 180480, Note_on_c, 9, 54, 122
11, 180639, Note_on_c, 9, 54, 0
11, 180640, Note_on_c, 9, 54, 82
11, 180719, Note_on_c, 9, 54, 0
11, 180720, Note_on_c, 9, 54, 108
11, 180879, Note_on_c, 9, 54, 0
11, 180880, Note_on_c, 9, 54, 79
11, 180959, Note_on_c, 9, 54, 0
11, 180960, Note_on_c, 9, 54, 104
11, 181119, Note_on_c, 9, 54, 0
11, 181120, Note_on_c, 9, 54, 73
11, 181199, Note_on_c, 9, 54, 0
11, 181200, Note_on_c, 9, 54, 113
11, 181319, Note_on_c, 9, 54, 0
11, 181350, Note_on_c, 9, 54, 76
11, 181439, Note_on_c, 9, 54, 0
11, 181440, Note_on_c, 9, 54, 117
11, 181599, Note_on_c, 9, 54, 0
11, 181600, Note_on_c, 9, 54, 53
11, 181679, Note_on_c, 9, 54, 0
11, 181680, Note_on_c, 9, 54, 113
11, 181799, Note_on_c, 9, 54, 0
11, 181830, Note_on_c, 9, 54, 67
11, 181919, Note_on_c, 9, 54, 0
11, 181920, Note_on_c, 9, 54, 117
11, 182039, Note_on_c, 9, 54, 0
11, 182070, Note_on_c, 9, 54, 85
11, 182159, Note_on_c, 9, 54, 0
11, 182160, Note_on_c, 9, 54, 117
11, 182319, Note_on_c, 9, 54, 0
11, 182320, Note_on_c, 9, 54, 89
11, 182399, Note_on_c, 9, 54, 0
11, 182400, Note_on_c, 9, 54, 117
11, 182519, Note_on_c, 9, 54, 0
11, 182550, Note_on_c, 9, 54, 76
11, 182639, Note_on_c, 9, 54, 0
11, 182640, Note_on_c, 9, 54, 117
11, 182799, Note_on_c, 9, 54, 0
11, 182800, Note_on_c, 9, 54, 70
11, 182879, Note_on_c, 9, 54, 0
11, 182900, Note_on_c, 9, 54, 117
11, 182939, Note_on_c, 9, 54, 0
11, 183030, Note_on_c, 9, 54, 85
11, 183119, Note_on_c, 9, 54, 0
11, 183135, Note_on_c, 9, 54, 113
11, 183179, Note_on_c, 9, 54, 0
11, 183280, Note_on_c, 9, 54, 70
11, 183359, Note_on_c, 9, 54, 0
11, 183360, Note_on_c, 9, 54, 122
11, 183519, Note_on_c, 9, 54, 0
11, 183520, Note_on_c, 9, 54, 89
11, 183599, Note_on_c, 9, 54, 0
11, 183615, Note_on_c, 9, 54, 113
11, 183779, Note_on_c, 9, 54, 0
11, 183780, Note_on_c, 9, 54, 89
11, 183839, Note_on_c, 9, 54, 0
11, 183840, Note_on_c, 9, 54, 113
11, 183999, Note_on_c, 9, 54, 0
11, 184000, Note_on_c, 9, 54, 92
11, 184079, Note_on_c, 9, 54, 0
11, 184080, Note_on_c, 9, 54, 117
11, 184239, Note_on_c, 9, 54, 0
11, 184240, Note_on_c, 9, 54, 82
11, 184319, Note_on_c, 9, 54, 0
11, 184320, Note_on_c, 9, 54, 122
11, 184479, Note_on_c, 9, 54, 0
11, 184480, Note_on_c, 9, 54, 82
11, 184559, Note_on_c, 9, 54, 0
11, 184560, Note_on_c, 9, 54, 108
11, 184719, Note_on_c, 9, 54, 0
11, 184720, Note_on_c, 9, 54, 79
11, 184799, Note_on_c, 9, 54, 0
11, 184800, Note_on_c, 9, 54, 104
11, 184959, Note_on_c, 9, 54, 0
11, 184960, Note_on_c, 9, 54, 73
11, 185039, Note_on_c, 9, 54, 0
11, 185040, Note_on_c, 9, 54, 113
11, 185159, Note_on_c, 9, 54, 0
11, 185190, Note_on_c, 9, 54, 76
11, 185279, Note_on_c, 9, 54, 0
11, 185280, Note_on_c, 9, 54, 117
11, 185439, Note_on_c, 9, 54, 0
11, 185440, Note_on_c, 9, 54, 53
11, 185519, Note_on_c, 9, 54, 0
11, 185520, Note_on_c, 9, 54, 113
11, 185639, Note_on_c, 9, 54, 0
11, 185670, Note_on_c, 9, 54, 67
11, 185759, Note_on_c, 9, 54, 0
11, 185760, Note_on_c, 9, 54, 117
11, 185879, Note_on_c, 9, 54, 0
11, 185910, Note_on_c, 9, 54, 85
11, 185999, Note_on_c, 9, 54, 0
11, 186000, Note_on_c, 9, 54, 117
11, 186159, Note_on_c, 9, 54, 0
11, 186160, Note_on_c, 9, 54, 89
11, 186239, Note_on_c, 9, 54, 0
11, 186240, Note_on_c, 9, 54, 117
11, 186359, Note_on_c, 9, 54, 0
11, 186390, Note_on_c, 9, 54, 76
11, 186479, Note_on_c, 9, 54, 0
11, 186480, Note_on_c, 9, 54, 117
11, 186639, Note_on_c, 9, 54, 0
11, 186640, Note_on_c, 9, 54, 70
11, 186719, Note_on_c, 9, 54, 0
11, 186740, Note_on_c, 9, 54, 117
11, 186779, Note_on_c, 9, 54, 0
11, 186870, Note_on_c, 9, 54, 85
11, 186959, Note_on_c, 9, 54, 0
11, 186975, Note_on_c, 9, 54, 113
11, 187019, Note_on_c, 9, 54, 0
11, 187120, Note_on_c, 9, 54, 70
11, 187199, Note_on_c, 9, 54, 0
11, 187200, Note_on_c, 9, 54, 122
11, 187359, Note_on_c, 9, 54, 0
11, 187360, Note_on_c, 9, 54, 89
11, 187439, Note_on_c, 9, 54, 0
11, 187455, Note_on_c, 9, 54, 113
11, 187619, Note_on_c, 9, 54, 0
11, 187620, Note_on_c, 9, 54, 89
11, 187679, Note_on_c, 9, 54, 0
11, 187680, Note_on_c, 9, 54, 113
11, 187839, Note_on_c, 9, 54, 0
11, 187840, Note_on_c, 9, 54, 92
11, 187919, Note_on_c, 9, 54, 0
11, 187920, Note_on_c, 9, 54, 117
11, 188079, Note_on_c, 9, 54, 0
11, 188080, Note_on_c, 9, 54, 82
11, 188159, Note_on_c, 9, 54, 0
11, 203520, Note_on_c, 9, 54, 122
11, 203679, Note_on_c, 9, 54, 0
11, 203680, Note_on_c, 9, 54, 82
11, 203759, Note_on_c, 9, 54, 0
11, 203760, Note_on_c, 9, 54, 108
11, 203919, Note_on_c, 9, 54, 0
11, 203920, Note_on_c, 9, 54, 79
11, 203999, Note_on_c, 9, 54, 0
11, 204000, Note_on_c, 9, 54, 104
11, 204159, Note_on_c, 9, 54, 0
11, 204160, Note_on_c, 9, 54, 73
11, 204239, Note_on_c, 9, 54, 0
11, 204240, Note_on_c, 9, 54, 113
11, 204359, Note_on_c, 9, 54, 0
11, 204390, Note_on_c, 9, 54, 76
11, 204479, Note_on_c, 9, 54, 0
11, 204480, Note_on_c, 9, 54, 117
11, 204639, Note_on_c, 9, 54, 0
11, 204640, Note_on_c, 9, 54, 53
11, 204719, Note_on_c, 9, 54, 0
11, 204720, Note_on_c, 9, 54, 113
11, 204839, Note_on_c, 9, 54, 0
11, 204870, Note_on_c, 9, 54, 67
11, 204959, Note_on_c, 9, 54, 0
11, 204960, Note_on_c, 9, 54, 117
11, 205079, Note_on_c, 9, 54, 0
11, 205110, Note_on_c, 9, 54, 85
11, 205199, Note_on_c, 9, 54, 0
11, 205200, Note_on_c, 9, 54, 117
11, 205359, Note_on_c, 9, 54, 0
11, 205360, Note_on_c, 9, 54, 89
11, 205439, Note_on_c, 9, 54, 0
11, 205440, Note_on_c, 9, 54, 117
11, 205559, Note_on_c, 9, 54, 0
11, 205590, Note_on_c, 9, 54, 76
11, 205679, Note_on_c, 9, 54, 0
11, 205680, Note_on_c, 9, 54, 117
11, 205839, Note_on_c, 9, 54, 0
11, 205840, Note_on_c, 9, 54, 70
11, 205919, Note_on_c, 9, 54, 0
11, 205940, Note_on_c, 9, 54, 117
11, 205979, Note_on_c, 9, 54, 0
11, 206070, Note_on_c, 9, 54, 85
11, 206159, Note_on_c, 9, 54, 0
11, 206175, Note_on_c, 9, 54, 113
11, 206219, Note_on_c, 9, 54, 0
11, 206320, Note_on_c, 9, 54, 70
11, 206399, Note_on_c, 9, 54, 0
11, 206400, Note_on_c, 9, 54, 122
11, 206559, Note_on_c, 9, 54, 0
11, 206560, Note_on_c, 9, 54, 89
11, 206639, Note_on_c, 9, 54, 0
11, 206655, Note_on_c, 9, 54, 113
11, 206819, Note_on_c, 9, 54, 0
11, 206820, Note_on_c, 9, 54, 89
11, 206879, Note_on_c, 9, 54, 0
11, 206880, Note_on_c, 9, 54, 113
11, 207039, Note_on_c, 9, 54, 0
11, 207040, Note_on_c, 9, 54, 92
11, 207119, Note_on_c, 9, 54, 0
11, 207120, Note_on_c, 9, 54, 117
11, 207279, Note_on_c, 9, 54, 0
11, 207280, Note_on_c, 9, 54, 82
11, 207359, Note_on_c, 9, 54, 0
11, 207360, Note_on_c, 9, 54, 122
11, 207519, Note_on_c, 9, 54, 0
11, 207520, Note_on_c, 9, 54, 82
11, 207599, Note_on_c, 9, 54, 0
11, 207600, Note_on_c, 9, 54, 108
11, 207759, Note_on_c, 9, 54, 0
11, 207760, Note_on_c, 9, 54, 79
11, 207839, Note_on_c, 9, 54, 0
11, 207840, Note_on_c, 9, 54, 104
11, 207999, Note_on_c, 9, 54, 0
11, 208000, Note_on_c, 9, 54, 73
11, 208079, Note_on_c, 9, 54, 0
11, 208080, Note_on_c, 9, 54, 113
11, 208199, Note_on_c, 9, 54, 0
11, 208230, Note_on_c, 9, 54, 76
11, 208319, Note_on_c, 9, 54, 0
11, 208320, Note_on_c, 9, 54, 117
11, 208479, Note_on_c, 9, 54, 0
11, 208480, Note_on_c, 9, 54, 53
11, 208559, Note_on_c, 9, 54, 0
11, 208560, Note_on_c, 9, 54, 113
11, 208679, Note_on_c, 9, 54, 0
11, 208710, Note_on_c, 9, 54, 67
11, 208799, Note_on_c, 9, 54, 0
11, 208800, Note_on_c, 9, 54, 117
11, 208919, Note_on_c, 9, 54, 0
11, 208950, Note_on_c, 9, 54, 85
11, 209039, Note_on_c, 9, 54, 0
11, 209040, Note_on_c, 9, 54, 117
11, 209199, Note_on_c, 9, 54, 0
11, 209200, Note_on_c, 9, 54, 89
11, 209279, Note_on_c, 9, 54, 0
11, 209280, Note_on_c, 9, 54, 117
11, 209399, Note_on_c, 9, 54, 0
11, 209430, Note_on_c, 9, 54, 76
11, 209519, Note_on_c, 9, 54, 0
11, 209520, Note_on_c, 9, 54, 117
11, 209679, Note_on_c, 9, 54, 0
11, 209680, Note_on_c, 9, 54, 70
11, 209759, Note_on_c, 9, 54, 0
11, 209780, Note_on_c, 9, 54, 117
11, 209819, Note_on_c, 9, 54, 0
11, 209910, Note_on_c, 9, 54, 85
11, 209999, Note_on_c, 9, 54, 0
11, 210015, Note_on_c, 9, 54, 113
11, 210059, Note_on_c, 9, 54, 0
11, 210160, Note_on_c, 9, 54, 70
11, 210239, Note_on_c, 9, 54, 0
11, 210240, Note_on_c, 9, 54, 122
11, 210399, Note_on_c, 9, 54, 0
11, 210400, Note_on_c, 9, 54, 89
11, 210479, Note_on_c, 9, 54, 0
11, 210495, Note_on_c, 9, 54, 113
11, 210659, Note_on_c, 9, 54, 0
11, 210660, Note_on_c, 9, 54, 89
11, 210719, Note_on_c, 9, 54, 0
11, 210720, Note_on_c, 9, 54, 113
11, 210879, Note_on_c, 9, 54, 0
11, 210880, Note_on_c, 9, 54, 92
11, 210959, Note_on_c, 9, 54, 0
11, 210960, Note_on_c, 9, 54, 117
11, 211119, Note_on_c, 9, 54, 0
11, 211120, Note_on_c, 9, 54, 82
11, 211199, Note_on_c, 9, 54, 0
11, 211200, Note_on_c, 9, 54, 122
11, 211359, Note_on_c, 9, 54, 0
11, 211360, Note_on_c, 9, 54, 82
11, 211439, Note_on_c, 9, 54, 0
11, 211440, Note_on_c, 9, 54, 108
11, 211599, Note_on_c, 9, 54, 0
11, 211600, Note_on_c, 9, 54, 79
11, 211679, Note_on_c, 9, 54, 0
11, 211680, Note_on_c, 9, 54, 104
11, 211839, Note_on_c, 9, 54, 0
11, 211840, Note_on_c, 9, 54, 73
11, 211919, Note_on_c, 9, 54, 0
11, 211920, Note_on_c, 9, 54, 113
11, 212039, Note_on_c, 9, 54, 0
11, 212070, Note_on_c, 9, 54, 76
11, 212159, Note_on_c, 9, 54, 0
11, 212160, Note_on_c, 9, 54, 117
11, 212319, Note_on_c, 9, 54, 0
11, 212320, Note_on_c, 9, 54, 53
11, 212399, Note_on_c, 9, 54, 0
11, 212400, Note_on_c, 9, 54, 113
11, 212519, Note_on_c, 9, 54, 0
11, 212550, Note_on_c, 9, 54, 67
11, 212639, Note_on_c, 9, 54, 0
11, 212640, Note_on_c, 9, 54, 117
11, 212759, Note_on_c, 9, 54, 0
11, 212790, Note_on_c, 9, 54, 85
11, 212879, Note_on_c, 9, 54, 0
11, 212880, Note_on_c, 9, 54, 117
11, 213039, Note_on_c, 9, 54, 0
11, 213040, Note_on_c, 9, 54, 89
11, 213119, Note_on_c, 9, 54, 0
11, 213120, Note_on_c, 9, 54, 117
11, 213239, Note_on_c, 9, 54, 0
11, 213270, Note_on_c, 9, 54, 76
11, 213359, Note_on_c, 9, 54, 0
11, 213360, Note_on_c, 9, 54, 117
11, 213519, Note_on_c, 9, 54, 0
11, 213520, Note_on_c, 9, 54, 70
11, 213599, Note_on_c, 9, 54, 0
11, 213620, Note_on_c, 9, 54, 117
11, 213659, Note_on_c, 9, 54, 0
11, 213750, Note_on_c, 9, 54, 85
11, 213839, Note_on_c, 9, 54, 0
11, 213855, Note_on_c, 9, 54, 113
11, 213899, Note_on_c, 9, 54, 0
11, 214000, Note_on_c, 9, 54, 70
11, 214079, Note_on_c, 9, 54, 0
11, 214080, Note_on_c, 9, 54, 122
11, 214239, Note_on_c, 9, 54, 0
11, 214240, Note_on_c, 9, 54, 89
11, 214319, Note_on_c, 9, 54, 0
11, 214335, Note_on_c, 9, 54, 113
11, 214499, Note_on_c, 9, 54, 0
11, 214500, Note_on_c, 9, 54, 89
11, 214559, Note_on_c, 9, 54, 0
11, 214560, Note_on_c, 9, 54, 113
11, 214719, Note_on_c, 9, 54, 0
11, 214720, Note_on_c, 9, 54, 92
11, 214799, Note_on_c, 9, 54, 0
11, 214800, Note_on_c, 9, 54, 117
11, 214959, Note_on_c, 9, 54, 0
11, 214960, Note_on_c, 9, 54, 82
11, 215039, Note_on_c, 9, 54, 0
11, 215040, Note_on_c, 9, 54, 122
11, 215199, Note_on_c, 9, 54, 0
11, 215200, Note_on_c, 9, 54, 82
11, 215279, Note_on_c, 9, 54, 0
11, 215280, Note_on_c, 9, 54, 108
11, 215439, Note_on_c, 9, 54, 0
11, 215440, Note_on_c, 9, 54, 79
11, 215519, Note_on_c, 9, 54, 0
11, 215520, Note_on_c, 9, 54, 104
11, 215679, Note_on_c, 9, 54, 0
11, 215680, Note_on_c, 9, 54, 73
11, 215759, Note_on_c, 9, 54, 0
11, 215760, Note_on_c, 9, 54, 113
11, 215879, Note_on_c, 9, 54, 0
11, 215910, Note_on_c, 9, 54, 76
11, 215999, Note_on_c, 9, 54, 0
11, 216000, Note_on_c, 9, 54, 117
11, 216159, Note_on_c, 9, 54, 0
11, 216160, Note_on_c, 9, 54, 53
11, 216239, Note_on_c, 9, 54, 0
11, 216240, Note_on_c, 9, 54, 113
11, 216359, Note_on_c, 9, 54, 0
11, 216390, Note_on_c, 9, 54, 67
11, 216479, Note_on_c, 9, 54, 0
11, 216480, Note_on_c, 9, 54, 117
11, 216599, Note_on_c, 9, 54, 0
11, 216630, Note_on_c, 9, 54, 85
11, 216719, Note_on_c, 9, 54, 0
11, 216720, Note_on_c, 9, 54, 117
11, 216879, Note_on_c, 9, 54, 0
11, 216880, Note_on_c, 9, 54, 89
11, 216959, Note_on_c, 9, 54, 0
11, 216960, Note_on_c, 9, 54, 117
11, 217079, Note_on_c, 9, 54, 0
11, 217110, Note_on_c, 9, 54, 76
11, 217199, Note_on_c, 9, 54, 0
11, 217200, Note_on_c, 9, 54, 117
11, 217359, Note_on_c, 9, 54, 0
11, 217360, Note_on_c, 9, 54, 70
11, 217439, Note_on_c, 9, 54, 0
11, 217460, Note_on_c, 9, 54, 117
11, 217499, Note_on_c, 9, 54, 0
11, 217590, Note_on_c, 9, 54, 85
11, 217679, Note_on_c, 9, 54, 0
11, 217695, Note_on_c, 9, 54, 113
11, 217739, Note_on_c, 9, 54, 0
11, 217840, Note_on_c, 9, 54, 70
11, 217919, Note_on_c, 9, 54, 0
11, 217920, Note_on_c, 9, 54, 122
11, 218079, Note_on_c, 9, 54, 0
11, 218080, Note_on_c, 9, 54, 89
11, 218159, Note_on_c, 9, 54, 0
11, 218175, Note_on_c, 9, 54, 113
11, 218339, Note_on_c, 9, 54, 0
11, 218340, Note_on_c, 9, 54, 89
11, 218399, Note_on_c, 9, 54, 0
11, 218400, Note_on_c, 9, 54, 113
11, 218559, Note_on_c, 9, 54, 0
11, 218560, Note_on_c, 9, 54, 92
11, 218639, Note_on_c, 9, 54, 0
11, 218640, Note_on_c, 9, 54, 117
11, 218799, Note_on_c, 9, 54, 0
11, 218800, Note_on_c, 9, 54, 82
11, 218879, Note_on_c, 9, 54, 0
11, 218880, Note_on_c, 9, 54, 122
11, 219039, Note_on_c, 9, 54, 0
11, 219040, Note_on_c, 9, 54, 82
11, 219119, Note_on_c, 9, 54, 0
11, 219120, Note_on_c, 9, 54, 108
11, 219279, Note_on_c, 9, 54, 0
11, 219280, Note_on_c, 9, 54, 79
11, 219359, Note_on_c, 9, 54, 0
11, 219360, Note_on_c, 9, 54, 104
11, 219519, Note_on_c, 9, 54, 0
11, 219520, Note_on_c, 9, 54, 73
11, 219599, Note_on_c, 9, 54, 0
11, 219600, Note_on_c, 9, 54, 113
11, 219719, Note_on_c, 9, 54, 0
11, 219750, Note_on_c, 9, 54, 76
11, 219839, Note_on_c, 9, 54, 0
11, 219840, Note_on_c, 9, 54, 117
11, 219999, Note_on_c, 9, 54, 0
11, 220000, Note_on_c, 9, 54, 53
11, 220079, Note_on_c, 9, 54, 0
11, 220080, Note_on_c, 9, 54, 113
11, 220199, Note_on_c, 9, 54, 0
11, 220230, Note_on_c, 9, 54, 67
11, 220319, Note_on_c, 9, 54, 0
11, 220320, Note_on_c, 9, 54, 117
11, 220439, Note_on_c, 9, 54, 0
11, 220470, Note_on_c, 9, 54, 85
11, 220559, Note_on_c, 9, 54, 0
11, 220560, Note_on_c, 9, 54, 117
11, 220719, Note_on_c, 9, 54, 0
11, 220720, Note_on_c, 9, 54, 89
11, 220799, Note_on_c, 9, 54, 0
11, 220800, Note_on_c, 9, 54, 117
11, 220919, Note_on_c, 9, 54, 0
11, 220950, Note_on_c, 9, 54, 76
11, 221039, Note_on_c, 9, 54, 0
11, 221040, Note_on_c, 9, 54, 117
11, 221199, Note_on_c, 9, 54, 0
11, 221200, Note_on_c, 9, 54, 70
11, 221279, Note_on_c, 9, 54, 0
11, 221300, Note_on_c, 9, 54, 117
11, 221339, Note_on_c, 9, 54, 0
11, 221430, Note_on_c, 9, 54, 85
11, 221519, Note_on_c, 9, 54, 0
11, 221535, Note_on_c, 9, 54, 113
11, 221579, Note_on_c, 9, 54, 0
11, 221680, Note_on_c, 9, 54, 70
11, 221759, Note_on_c, 9, 54, 0
11, 221760, Note_on_c, 9, 54, 122
11, 221919, Note_on_c, 9, 54, 0
11, 221920, Note_on_c, 9, 54, 89
11, 221999, Note_on_c, 9, 54, 0
11, 222015, Note_on_c, 9, 54, 113
11, 222179, Note_on_c, 9, 54, 0
11, 222180, Note_on_c, 9, 54, 89
11, 222239, Note_on_c, 9, 54, 0
11, 222240, Note_on_c, 9, 54, 113
11, 222399, Note_on_c, 9, 54, 0
11, 222400, Note_on_c, 9, 54, 92
11, 222479, Note_on_c, 9, 54, 0
11, 222480, Note_on_c, 9, 54, 117
11, 222639, Note_on_c, 9, 54, 0
11, 222640, Note_on_c, 9, 54, 82
11, 222719, Note_on_c, 9, 54, 0
11, 222720, Note_on_c, 9, 54, 122
11, 222879, Note_on_c, 9, 54, 0
11, 222880, Note_on_c, 9, 54, 82
11, 222959, Note_on_c, 9, 54, 0
11, 222960, Note_on_c, 9, 54, 108
11, 223119, Note_on_c, 9, 54, 0
11, 223120, Note_on_c, 9, 54, 79
11, 223199, Note_on_c, 9, 54, 0
11, 223200, Note_on_c, 9, 54, 104
11, 223359, Note_on_c, 9, 54, 0
11, 223360, Note_on_c, 9, 54, 73
11, 223439, Note_on_c, 9, 54, 0
11, 223440, Note_on_c, 9, 54, 113
11, 223559, Note_on_c, 9, 54, 0
11, 223590, Note_on_c, 9, 54, 76
11, 223679, Note_on_c, 9, 54, 0
11, 223680, Note_on_c, 9, 54, 117
11, 223839, Note_on_c, 9, 54, 0
11, 223840, Note_on_c, 9, 54, 53
11, 223919, Note_on_c, 9, 54, 0
11, 223920, Note_on_c, 9, 54, 113
11, 224039, Note_on_c, 9, 54, 0
11, 224070, Note_on_c, 9, 54, 67
11, 224159, Note_on_c, 9, 54, 0
11, 224160, Note_on_c, 9, 54, 117
11, 224279, Note_on_c, 9, 54, 0
11, 224310, Note_on_c, 9, 54, 85
11, 224399, Note_on_c, 9, 54, 0
11, 224400, Note_on_c, 9, 54, 117
11, 224559, Note_on_c, 9, 54, 0
11, 224560, Note_on_c, 9, 54, 89
11, 224639, Note_on_c, 9, 54, 0
11, 224640, Note_on_c, 9, 54, 117
11, 224759, Note_on_c, 9, 54, 0
11, 224790, Note_on_c, 9, 54, 76
11, 224879, Note_on_c, 9, 54, 0
11, 224880, Note_on_c, 9, 54, 117
11, 225039, Note_on_c, 9, 54, 0
11, 225040, Note_on_c, 9, 54, 70
11, 225119, Note_on_c, 9, 54, 0
11, 225140, Note_on_c, 9, 54, 117
11, 225179, Note_on_c, 9, 54, 0
11, 225270, Note_on_c, 9, 54, 85
11, 225359, Note_on_c, 9, 54, 0
11, 225375, Note_on_c, 9, 54, 113
11, 225419, Note_on_c, 9, 54, 0
11, 225520, Note_on_c, 9, 54, 70
11, 225599, Note_on_c, 9, 54, 0
11, 225600, Note_on_c, 9, 54, 122
11, 225759, Note_on_c, 9, 54, 0
11, 225760, Note_on_c, 9, 54, 89
11, 225839, Note_on_c, 9, 54, 0
11, 225855, Note_on_c, 9, 54, 113
11, 226019, Note_on_c, 9, 54, 0
11, 226020, Note_on_c, 9, 54, 89
11, 226079, Note_on_c, 9, 54, 0
11, 226080, Note_on_c, 9, 54, 113
11, 226239, Note_on_c, 9, 54, 0
11, 226240, Note_on_c, 9, 54, 92
11, 226319, Note_on_c, 9, 54, 0
11, 226320, Note_on_c, 9, 54, 117
11, 226479, Note_on_c, 9, 54, 0
11, 226480, Note_on_c, 9, 54, 82
11, 226559, Note_on_c, 9, 54, 0
11, 226560, Note_on_c, 9, 54, 122
11, 226719, Note_on_c, 9, 54, 0
11, 226720, Note_on_c, 9, 54, 82
11, 226799, Note_on_c, 9, 54, 0
11, 226800, Note_on_c, 9, 54, 108
11, 226959, Note_on_c, 9, 54, 0
11, 226960, Note_on_c, 9, 54, 79
11, 227039, Note_on_c, 9, 54, 0
11, 227040, Note_on_c, 9, 54, 104
11, 227199, Note_on_c, 9, 54, 0
11, 227200, Note_on_c, 9, 54, 73
11, 227279, Note_on_c, 9, 54, 0
11, 227280, Note_on_c, 9, 54, 113
11, 227399, Note_on_c, 9, 54, 0
11, 227430, Note_on_c, 9, 54, 76
11, 227519, Note_on_c, 9, 54, 0
11, 227520, Note_on_c, 9, 54, 117
11, 227679, Note_on_c, 9, 54, 0
11, 227680, Note_on_c, 9, 54, 53
11, 227759, Note_on_c, 9, 54, 0
11, 227760, Note_on_c, 9, 54, 113
11, 227879, Note_on_c, 9, 54, 0
11, 227910, Note_on_c, 9, 54, 67
11, 227999, Note_on_c, 9, 54, 0
11, 228000, Note_on_c, 9, 54, 117
11, 228119, Note_on_c, 9, 54, 0
11, 228150, Note_on_c, 9, 54, 85
11, 228239, Note_on_c, 9, 54, 0
11, 228240, Note_on_c, 9, 54, 117
11, 228399, Note_on_c, 9, 54, 0
11, 228400, Note_on_c, 9, 54, 89
11, 228479, Note_on_c, 9, 54, 0
11, 228480, Note_on_c, 9, 54, 117
11, 228599, Note_on_c, 9, 54, 0
11, 228630, Note_on_c, 9, 54, 76
11, 228719, Note_on_c, 9, 54, 0
11, 228720, Note_on_c, 9, 54, 117
11, 228879, Note_on_c, 9, 54, 0
11, 228880, Note_on_c, 9, 54, 70
11, 228959, Note_on_c, 9, 54, 0
11, 228980, Note_on_c, 9, 54, 117
11, 229019, Note_on_c, 9, 54, 0
11, 229110, Note_on_c, 9, 54, 85
11, 229199, Note_on_c, 9, 54, 0
11, 229215, Note_on_c, 9, 54, 113
11, 229259, Note_on_c, 9, 54, 0
11, 229360, Note_on_c, 9, 54, 70
11, 229439, Note_on_c, 9, 54, 0
11, 229440, Note_on_c, 9, 54, 122
11, 229599, Note_on_c, 9, 54, 0
11, 229600, Note_on_c, 9, 54, 89
11, 229679, Note_on_c, 9, 54, 0
11, 229695, Note_on_c, 9, 54, 113
11, 229859, Note_on_c, 9, 54, 0
11, 229860, Note_on_c, 9, 54, 89
11, 229919, Note_on_c, 9, 54, 0
11, 229920, Note_on_c, 9, 54, 113
11, 230079, Note_on_c, 9, 54, 0
11, 230080, Note_on_c, 9, 54, 92
11, 230159, Note_on_c, 9, 54, 0
11, 230160, Note_on_c, 9, 54, 117
11, 230319, Note_on_c, 9, 54, 0
11, 230320, Note_on_c, 9, 54, 82
11, 230399, Note_on_c, 9, 54, 0
11, 230400, Note_on_c, 9, 54, 122
11, 230559, Note_on_c, 9, 54, 0
11, 230560, Note_on_c, 9, 54, 82
11, 230639, Note_on_c, 9, 54, 0
11, 230640, Note_on_c, 9, 54, 108
11, 230799, Note_on_c, 9, 54, 0
11, 230800, Note_on_c, 9, 54, 79
11, 230879, Note_on_c, 9, 54, 0
11, 230880, Note_on_c, 9, 54, 104
11, 231039, Note_on_c, 9, 54, 0
11, 231040, Note_on_c, 9, 54, 73
11, 231119, Note_on_c, 9, 54, 0
11, 231120, Note_on_c, 9, 54, 113
11, 231239, Note_on_c, 9, 54, 0
11, 231270, Note_on_c, 9, 54, 76
11, 231359, Note_on_c, 9, 54, 0
11, 231360, Note_on_c, 9, 54, 117
11, 231519, Note_on_c, 9, 54, 0
11, 231520, Note_on_c, 9, 54, 53
11, 231599, Note_on_c, 9, 54, 0
11, 231600, Note_on_c, 9, 54, 113
11, 231719, Note_on_c, 9, 54, 0
11, 231750, Note_on_c, 9, 54, 67
11, 231839, Note_on_c, 9, 54, 0
11, 231840, Note_on_c, 9, 54, 117
11, 231959, Note_on_c, 9, 54, 0
11, 231990, Note_on_c, 9, 54, 85
11, 232079, Note_on_c, 9, 54, 0
11, 232080, Note_on_c, 9, 54, 117
11, 232239, Note_on_c, 9, 54, 0
11, 232240, Note_on_c, 9, 54, 89
11, 232319, Note_on_c, 9, 54, 0
11, 232320, Note_on_c, 9, 54, 117
11, 232439, Note_on_c, 9, 54, 0
11, 232470, Note_on_c, 9, 54, 76
11, 232559, Note_on_c, 9, 54, 0
11, 232560, Note_on_c, 9, 54, 117
11, 232719, Note_on_c, 9, 54, 0
11, 232720, Note_on_c, 9, 54, 70
11, 232799, Note_on_c, 9, 54, 0
11, 232820, Note_on_c, 9, 54, 117
11, 232859, Note_on_c, 9, 54, 0
11, 232950, Note_on_c, 9, 54, 85
11, 233039, Note_on_c, 9, 54, 0
11, 233055, Note_on_c, 9, 54, 113
11, 233099, Note_on_c, 9, 54, 0
11, 233200, Note_on_c, 9, 54, 70
11, 233279, Note_on_c, 9, 54, 0
11, 233280, Note_on_c, 9, 54, 122
11, 233439, Note_on_c, 9, 54, 0
11, 233440, Note_on_c, 9, 54, 89
11, 233519, Note_on_c, 9, 54, 0
11, 233535, Note_on_c, 9, 54, 113
11, 233699, Note_on_c, 9, 54, 0
11, 233700, Note_on_c, 9, 54, 89
11, 233759, Note_on_c, 9, 54, 0
11, 233760, Note_on_c, 9, 54, 113
11, 233919, Note_on_c, 9, 54, 0
11, 233920, Note_on_c, 9, 54, 92
11, 233999, Note_on_c, 9, 54, 0
11, 234000, Note_on_c, 9, 54, 117
11, 234159, Note_on_c, 9, 54, 0
11, 234160, Note_on_c, 9, 54, 82
11, 234239, Note_on_c, 9, 54, 0
11, 234240, Note_on_c, 9, 54, 122
11, 234399, Note_on_c, 9, 54, 0
11, 234400, Note_on_c, 9, 54, 82
11, 234479, Note_on_c, 9, 54, 0
11, 234480, Note_on_c, 9, 54, 108
11, 234639, Note_on_c, 9, 54, 0
11, 234640, Note_on_c, 9, 54, 79
11, 234719, Note_on_c, 9, 54, 0
11, 234720, Note_on_c, 9, 54, 104
11, 234879, Note_on_c, 9, 54, 0
11, 234880, Note_on_c, 9, 54, 73
11, 234959, Note_on_c, 9, 54, 0
11, 234960, Note_on_c, 9, 54, 113
11, 235079, Note_on_c, 9, 54, 0
11, 235110, Note_on_c, 9, 54, 76
11, 235199, Note_on_c, 9, 54, 0
11, 235200, Note_on_c, 9, 54, 117
11, 235359, Note_on_c, 9, 54, 0
11, 235360, Note_on_c, 9, 54, 53
11, 235439, Note_on_c, 9, 54, 0
11, 235440, Note_on_c, 9, 54, 113
11, 235559, Note_on_c, 9, 54, 0
11, 235590, Note_on_c, 9, 54, 67
11, 235679, Note_on_c, 9, 54, 0
11, 235680, Note_on_c, 9, 54, 117
11, 235799, Note_on_c, 9, 54, 0
11, 235830, Note_on_c, 9, 54, 85
11, 235919, Note_on_c, 9, 54, 0
11, 235920, Note_on_c, 9, 54, 117
11, 236079, Note_on_c, 9, 54, 0
11, 236080, Note_on_c, 9, 54, 89
11, 236159, Note_on_c, 9, 54, 0
11, 236160, Note_on_c, 9, 54, 117
11, 236279, Note_on_c, 9, 54, 0
11, 236310, Note_on_c, 9, 54, 76
11, 236399, Note_on_c, 9, 54, 0
11, 236400, Note_on_c, 9, 54, 117
11, 236559, Note_on_c, 9, 54, 0
11, 236560, Note_on_c, 9, 54, 70
11, 236639, Note_on_c, 9, 54, 0
11, 236660, Note_on_c, 9, 54, 117
11, 236699, Note_on_c, 9, 54, 0
11, 236790, Note_on_c, 9, 54, 85
11, 236879, Note_on_c, 9, 54, 0
11, 236895, Note_on_c, 9, 54, 113
11, 236939, Note_on_c, 9, 54, 0
11, 237040, Note_on_c, 9, 54, 70
11, 237119, Note_on_c, 9, 54, 0
11, 237120, Note_on_c, 9, 54, 122
11, 237279, Note_on_c, 9, 54, 0
11, 237280, Note_on_c, 9, 54, 89
11, 237359, Note_on_c, 9, 54, 0
11, 237375, Note_on_c, 9, 54, 113
11, 237539, Note_on_c, 9, 54, 0
11, 237540, Note_on_c, 9, 54, 89
11, 237599, Note_on_c, 9, 54, 0
11, 237600, Note_on_c, 9, 54, 113
11, 237759, Note_on_c, 9, 54, 0
11, 237760, Note_on_c, 9, 54, 92
11, 237839, Note_on_c, 9, 54, 0
11, 237840, Note_on_c, 9, 54, 117
11, 237999, Note_on_c, 9, 54, 0
11, 238000, Note_on_c, 9, 54, 82
11, 238079, Note_on_c, 9, 54, 0
11, 238080, Note_on_c, 9, 54, 122
11, 238239, Note_on_c, 9, 54, 0
11, 238240, Note_on_c, 9, 54, 82
11, 238319, Note_on_c, 9, 54, 0
11, 238320, Note_on_c, 9, 54, 108
11, 238479, Note_on_c, 9, 54, 0
11, 238480, Note_on_c, 9, 54, 79
11, 238559, Note_on_c, 9, 54, 0
11, 238560, Note_on_c, 9, 54, 104
11, 238719, Note_on_c, 9, 54, 0
11, 238720, Note_on_c, 9, 54, 73
11, 238799, Note_on_c, 9, 54, 0
11, 238800, Note_on_c, 9, 54, 113
11, 238919, Note_on_c, 9, 54, 0
11, 238950, Note_on_c, 9, 54, 76
11, 239039, Note_on_c, 9, 54, 0
11, 239040, Note_on_c, 9, 54, 117
11, 239199, Note_on_c, 9, 54, 0
11, 239200, Note_on_c, 9, 54, 53
11, 239279, Note_on_c, 9, 54, 0
11, 239280, Note_on_c, 9, 54, 113
11, 239399, Note_on_c, 9, 54, 0
11, 239430, Note_on_c, 9, 54, 67
11, 239519, Note_on_c, 9, 54, 0
11, 239520, Note_on_c, 9, 54, 117
11, 239639, Note_on_c, 9, 54, 0
11, 239670, Note_on_c, 9, 54, 85
11, 239759, Note_on_c, 9, 54, 0
11, 239760, Note_on_c, 9, 54, 117
11, 239919, Note_on_c, 9, 54, 0
11, 239920, Note_on_c, 9, 54, 89
11, 239999, Note_on_c, 9, 54, 0
11, 240000, Note_on_c, 9, 54, 117
11, 240119, Note_on_c, 9, 54, 0
11, 240150, Note_on_c, 9, 54, 76
11, 240239, Note_on_c, 9, 54, 0
11, 240240, Note_on_c, 9, 54, 117
11, 240399, Note_on_c, 9, 54, 0
11, 240400, Note_on_c, 9, 54, 70
11, 240479, Note_on_c, 9, 54, 0
11, 240500, Note_on_c, 9, 54, 117
11, 240539, Note_on_c, 9, 54, 0
11, 240630, Note_on_c, 9, 54, 85
11, 240719, Note_on_c, 9, 54, 0
11, 240735, Note_on_c, 9, 54, 113
11, 240779, Note_on_c, 9, 54, 0
11, 240880, Note_on_c, 9, 54, 70
11, 240959, Note_on_c, 9, 54, 0
11, 240960, Note_on_c, 9, 54, 122
11, 241119, Note_on_c, 9, 54, 0
11, 241120, Note_on_c, 9, 54, 89
11, 241199, Note_on_c, 9, 54, 0
11, 241215, Note_on_c, 9, 54, 113
11, 241379, Note_on_c, 9, 54, 0
11, 241380, Note_on_c, 9, 54, 89
11, 241439, Note_on_c, 9, 54, 0
11, 241440, Note_on_c, 9, 54, 113
11, 241599, Note_on_c, 9, 54, 0
11, 241600, Note_on_c, 9, 54, 92
11, 241679, Note_on_c, 9, 54, 0
11, 241680, Note_on_c, 9, 54, 117
11, 241839, Note_on_c, 9, 54, 0
11, 241840, Note_on_c, 9, 54, 82
11, 241919, Note_on_c, 9, 54, 0
11, 241920, Note_on_c, 9, 54, 122
11, 242079, Note_on_c, 9, 54, 0
11, 242080, Note_on_c, 9, 54, 82
11, 242159, Note_on_c, 9, 54, 0
11, 242160, Note_on_c, 9, 54, 108
11, 242319, Note_on_c, 9, 54, 0
11, 242320, Note_on_c, 9, 54, 79
11, 242399, Note_on_c, 9, 54, 0
11, 242400, Note_on_c, 9, 54, 104
11, 242559, Note_on_c, 9, 54, 0
11, 242560, Note_on_c, 9, 54, 73
11, 242639, Note_on_c, 9, 54, 0
11, 242640, Note_on_c, 9, 54, 113
11, 242759, Note_on_c, 9, 54, 0
11, 242790, Note_on_c, 9, 54, 76
11, 242879, Note_on_c, 9, 54, 0
11, 242880, Note_on_c, 9, 54, 117
11, 243039, Note_on_c, 9, 54, 0
11, 243040, Note_on_c, 9, 54, 53
11, 243119, Note_on_c, 9, 54, 0
11, 243120, Note_on_c, 9, 54, 113
11, 243239, Note_on_c, 9, 54, 0
11, 243270, Note_on_c, 9, 54, 67
11, 243359, Note_on_c, 9, 54, 0
11, 243360, Note_on_c, 9, 54, 117
11, 243479, Note_on_c, 9, 54, 0
11, 243510, Note_on_c, 9, 54, 85
11, 243599, Note_on_c, 9, 54, 0
11, 243600, Note_on_c, 9, 54, 117
11, 243759, Note_on_c, 9, 54, 0
11, 243760, Note_on_c, 9, 54, 89
11, 243839, Note_on_c, 9, 54, 0
11, 243840, Note_on_c, 9, 54, 117
11, 243959, Note_on_c, 9, 54, 0
11, 243990, Note_on_c, 9, 54, 76
11, 244079, Note_on_c, 9, 54, 0
11, 244080, Note_on_c, 9, 54, 117
11, 244239, Note_on_c, 9, 54, 0
11, 244240, Note_on_c, 9, 54, 70
11, 244319, Note_on_c, 9, 54, 0
11, 244340, Note_on_c, 9, 54, 117
11, 244379, Note_on_c, 9, 54, 0
11, 244470, Note_on_c, 9, 54, 85
11, 244559, Note_on_c, 9, 54, 0
11, 244575, Note_on_c, 9, 54, 113
11, 244619, Note_on_c, 9, 54, 0
11, 244720, Note_on_c, 9, 54, 70
11, 244799, Note_on_c, 9, 54, 0
11, 244800, Note_on_c, 9, 54, 122
11, 244959, Note_on_c, 9, 54, 0
11, 244960, Note_on_c, 9, 54, 89
11, 245039, Note_on_c, 9, 54, 0
11, 245055, Note_on_c, 9, 54, 113
11, 245219, Note_on_c, 9, 54, 0
11, 245220, Note_on_c, 9, 54, 89
11, 245279, Note_on_c, 9, 54, 0
11, 245280, Note_on_c, 9, 54, 113
11, 245439, Note_on_c, 9, 54, 0
11, 245440, Note_on_c, 9, 54, 92
11, 245519, Note_on_c, 9, 54, 0
11, 245520, Note_on_c, 9, 54, 117
11, 245679, Note_on_c, 9, 54, 0
11, 245680, Note_on_c, 9, 54, 82
11, 245759, Note_on_c, 9, 54, 0
11, 245760, Note_on_c, 9, 54, 122
11, 245919, Note_on_c, 9, 54, 0
11, 245920, Note_on_c, 9, 54, 82
11, 245999, Note_on_c, 9, 54, 0
11, 246000, Note_on_c, 9, 54, 108
11, 246159, Note_on_c, 9, 54, 0
11, 246160, Note_on_c, 9, 54, 79
11, 246239, Note_on_c, 9, 54, 0
11, 246240, Note_on_c, 9, 54, 104
11, 246399, Note_on_c, 9, 54, 0
11, 246400, Note_on_c, 9, 54, 73
11, 246479, Note_on_c, 9, 54, 0
11, 246480, Note_on_c, 9, 54, 113
11, 246599, Note_on_c, 9, 54, 0
11, 246630, Note_on_c, 9, 54, 76
11, 246719, Note_on_c, 9, 54, 0
11, 246720, Note_on_c, 9, 54, 117
11, 246879, Note_on_c, 9, 54, 0
11, 246880, Note_on_c, 9, 54, 53
11, 246959, Note_on_c, 9, 54, 0
11, 246960, Note_on_c, 9, 54, 113
11, 247079, Note_on_c, 9, 54, 0
11, 247110, Note_on_c, 9, 54, 67
11, 247199, Note_on_c, 9, 54, 0
11, 247200, Note_on_c, 9, 54, 117
11, 247319, Note_on_c, 9, 54, 0
11, 247350, Note_on_c, 9, 54, 85
11, 247439, Note_on_c, 9, 54, 0
11, 247440, Note_on_c, 9, 54, 117
11, 247599, Note_on_c, 9, 54, 0
11, 247600, Note_on_c, 9, 54, 89
11, 247679, Note_on_c, 9, 54, 0
11, 247680, Note_on_c, 9, 54, 117
11, 247799, Note_on_c, 9, 54, 0
11, 247830, Note_on_c, 9, 54, 76
11, 247919, Note_on_c, 9, 54, 0
11, 247920, Note_on_c, 9, 54, 117
11, 248079, Note_on_c, 9, 54, 0
11, 248080, Note_on_c, 9, 54, 70
11, 248159, Note_on_c, 9, 54, 0
11, 248180, Note_on_c, 9, 54, 117
11, 248219, Note_on_c, 9, 54, 0
11, 248310, Note_on_c, 9, 54, 85
11, 248399, Note_on_c, 9, 54, 0
11, 248415, Note_on_c, 9, 54, 113
11, 248459, Note_on_c, 9, 54, 0
11, 248560, Note_on_c, 9, 54, 70
11, 248639, Note_on_c, 9, 54, 0
11, 248640, Note_on_c, 9, 54, 122
11, 248799, Note_on_c, 9, 54, 0
11, 248800, Note_on_c, 9, 54, 89
11, 248879, Note_on_c, 9, 54, 0
11, 248895, Note_on_c, 9, 54, 113
11, 249059, Note_on_c, 9, 54, 0
11, 249060, Note_on_c, 9, 54, 89
11, 249119, Note_on_c, 9, 54, 0
11, 249120, Note_on_c, 9, 54, 113
11, 249279, Note_on_c, 9, 54, 0
11, 249280, Note_on_c, 9, 54, 92
11, 249359, Note_on_c, 9, 54, 0
11, 249360, Note_on_c, 9, 54, 117
11, 249519, Note_on_c, 9, 54, 0
11, 249520, Note_on_c, 9, 54, 82
11, 249599, Note_on_c, 9, 54, 0
11, 249600, Note_on_c, 9, 54, 122
11, 249759, Note_on_c, 9, 54, 0
11, 249760, Note_on_c, 9, 54, 82
11, 249839, Note_on_c, 9, 54, 0
11, 249840, Note_on_c, 9, 54, 108
11, 249999, Note_on_c, 9, 54, 0
11, 250000, Note_on_c, 9, 54, 79
11, 250079, Note_on_c, 9, 54, 0
11, 250080, Note_on_c, 9, 54, 104
11, 250239, Note_on_c, 9, 54, 0
11, 250240, Note_on_c, 9, 54, 73
11, 250319, Note_on_c, 9, 54, 0
11, 250320, Note_on_c, 9, 54, 113
11, 250439, Note_on_c, 9, 54, 0
11, 250470, Note_on_c, 9, 54, 76
11, 250559, Note_on_c, 9, 54, 0
11, 250560, Note_on_c, 9, 54, 117
11, 250719, Note_on_c, 9, 54, 0
11, 250720, Note_on_c, 9, 54, 53
11, 250799, Note_on_c, 9, 54, 0
11, 250800, Note_on_c, 9, 54, 113
11, 250919, Note_on_c, 9, 54, 0
11, 250950, Note_on_c, 9, 54, 67
11, 251039, Note_on_c, 9, 54, 0
11, 251040, Note_on_c, 9, 54, 117
11, 251159, Note_on_c, 9, 54, 0
11, 251190, Note_on_c, 9, 54, 85
11, 251279, Note_on_c, 9, 54, 0
11, 251280, Note_on_c, 9, 54, 117
11, 251439, Note_on_c, 9, 54, 0
11, 251440, Note_on_c, 9, 54, 89
11, 251519, Note_on_c, 9, 54, 0
11, 251520, Note_on_c, 9, 54, 117
11, 251639, Note_on_c, 9, 54, 0
11, 251670, Note_on_c, 9, 54, 76
11, 251759, Note_on_c, 9, 54, 0
11, 251760, Note_on_c, 9, 54, 117
11, 251919, Note_on_c, 9, 54, 0
11, 251920, Note_on_c, 9, 54, 70
11, 251999, Note_on_c, 9, 54, 0
11, 252020, Note_on_c, 9, 54, 117
11, 252059, Note_on_c, 9, 54, 0
11, 252150, Note_on_c, 9, 54, 85
11, 252239, Note_on_c, 9, 54, 0
11, 252255, Note_on_c, 9, 54, 113
11, 252299, Note_on_c, 9, 54, 0
11, 252400, Note_on_c, 9, 54, 70
11, 252479, Note_on_c, 9, 54, 0
11, 252480, Note_on_c, 9, 54, 122
11, 252639, Note_on_c, 9, 54, 0
11, 252640, Note_on_c, 9, 54, 89
11, 252719, Note_on_c, 9, 54, 0
11, 252735, Note_on_c, 9, 54, 113
11, 252899, Note_on_c, 9, 54, 0
11, 252900, Note_on_c, 9, 54, 89
11, 252959, Note_on_c, 9, 54, 0
11, 252960, Note_on_c, 9, 54, 113
11, 253119, Note_on_c, 9, 54, 0
11, 253120, Note_on_c, 9, 54, 92
11, 253199, Note_on_c, 9, 54, 0
11, 253200, Note_on_c, 9, 54, 117
11, 253359, Note_on_c, 9, 54, 0
11, 253360, Note_on_c, 9, 54, 82
11, 253439, Note_on_c, 9, 54, 0
11, 253440, Note_on_c, 9, 54, 122
11, 253599, Note_on_c, 9, 54, 0
11, 253600, Note_on_c, 9, 54, 82
11, 253679, Note_on_c, 9, 54, 0
11, 253680, Note_on_c, 9, 54, 108
11, 253839, Note_on_c, 9, 54, 0
11, 253840, Note_on_c, 9, 54, 79
11, 253919, Note_on_c, 9, 54, 0
11, 253920, Note_on_c, 9, 54, 104
11, 254079, Note_on_c, 9, 54, 0
11, 254080, Note_on_c, 9, 54, 73
11, 254159, Note_on_c, 9, 54, 0
11, 254160, Note_on_c, 9, 54, 113
11, 254279, Note_on_c, 9, 54, 0
11, 254310, Note_on_c, 9, 54, 76
11, 254399, Note_on_c, 9, 54, 0
11, 254400, Note_on_c, 9, 54, 117
11, 254559, Note_on_c, 9, 54, 0
11, 254560, Note_on_c, 9, 54, 53
11, 254639, Note_on_c, 9, 54, 0
11, 254640, Note_on_c, 9, 54, 113
11, 254759, Note_on_c, 9, 54, 0
11, 254790, Note_on_c, 9, 54, 67
11, 254879, Note_on_c, 9, 54, 0
11, 254880, Note_on_c, 9, 54, 117
11, 254999, Note_on_c, 9, 54, 0
11, 255030, Note_on_c, 9, 54, 85
11, 255119, Note_on_c, 9, 54, 0
11, 255120, Note_on_c, 9, 54, 117
11, 255279, Note_on_c, 9, 54, 0
11, 255280, Note_on_c, 9, 54, 89
11, 255359, Note_on_c, 9, 54, 0
11, 255360, Note_on_c, 9, 54, 117
11, 255479, Note_on_c, 9, 54, 0
11, 255510, Note_on_c, 9, 54, 76
11, 255599, Note_on_c, 9, 54, 0
11, 255600, Note_on_c, 9, 54, 117
11, 255759, Note_on_c, 9, 54, 0
11, 255760, Note_on_c, 9, 54, 70
11, 255839, Note_on_c, 9, 54, 0
11, 255860, Note_on_c, 9, 54, 117
11, 255899, Note_on_c, 9, 54, 0
11, 255990, Note_on_c, 9, 54, 85
11, 256079, Note_on_c, 9, 54, 0
11, 256095, Note_on_c, 9, 54, 113
11, 256139, Note_on_c, 9, 54, 0
11, 256240, Note_on_c, 9, 54, 70
11, 256319, Note_on_c, 9, 54, 0
11, 256320, Note_on_c, 9, 54, 122
11, 256479, Note_on_c, 9, 54, 0
11, 256480, Note_on_c, 9, 54, 89
11, 256559, Note_on_c, 9, 54, 0
11, 256575, Note_on_c, 9, 54, 113
11, 256739, Note_on_c, 9, 54, 0
11, 256740, Note_on_c, 9, 54, 89
11, 256799, Note_on_c, 9, 54, 0
11, 256800, Note_on_c, 9, 54, 113
11, 256959, Note_on_c, 9, 54, 0
11, 256960, Note_on_c, 9, 54, 92
11, 257039, Note_on_c, 9, 54, 0
11, 257040, Note_on_c, 9, 54, 117
11, 257199, Note_on_c, 9, 54, 0
11, 257200, Note_on_c, 9, 54, 82
11, 257279, Note_on_c, 9, 54, 0
11, 257280, Note_on_c, 9, 54, 122
11, 257439, Note_on_c, 9, 54, 0
11, 257440, Note_on_c, 9, 54, 82
11, 257519, Note_on_c, 9, 54, 0
11, 257520, Note_on_c, 9, 54, 108
11, 257679, Note_on_c, 9, 54, 0
11, 257680, Note_on_c, 9, 54, 79
11, 257759, Note_on_c, 9, 54, 0
11, 257760, Note_on_c, 9, 54, 104
11, 257919, Note_on_c, 9, 54, 0
11, 257920, Note_on_c, 9, 54, 73
11, 257999, Note_on_c, 9, 54, 0
11, 258000, Note_on_c, 9, 54, 113
11, 258119, Note_on_c, 9, 54, 0
11, 258150, Note_on_c, 9, 54, 76
11, 258239, Note_on_c, 9, 54, 0
11, 258240, Note_on_c, 9, 54, 117
11, 258399, Note_on_c, 9, 54, 0
11, 258400, Note_on_c, 9, 54, 53
11, 258479, Note_on_c, 9, 54, 0
11, 258480, Note_on_c, 9, 54, 113
11, 258599, Note_on_c, 9, 54, 0
11, 258630, Note_on_c, 9, 54, 67
11, 258719, Note_on_c, 9, 54, 0
11, 258720, Note_on_c, 9, 54, 117
11, 258839, Note_on_c, 9, 54, 0
11, 258870, Note_on_c, 9, 54, 85
11, 258959, Note_on_c, 9, 54, 0
11, 258960, Note_on_c, 9, 54, 117
11, 259119, Note_on_c, 9, 54, 0
11, 259120, Note_on_c, 9, 54, 89
11, 259199, Note_on_c, 9, 54, 0
11, 259200, Note_on_c, 9, 54, 117
11, 259319, Note_on_c, 9, 54, 0
11, 259350, Note_on_c, 9, 54, 76
11, 259439, Note_on_c, 9, 54, 0
11, 259440, Note_on_c, 9, 54, 117
11, 259599, Note_on_c, 9, 54, 0
11, 259600, Note_on_c, 9, 54, 70
11, 259679, Note_on_c, 9, 54, 0
11, 259700, Note_on_c, 9, 54, 117
11, 259739, Note_on_c, 9, 54, 0
11, 259830, Note_on_c, 9, 54, 85
11, 259919, Note_on_c, 9, 54, 0
11, 259935, Note_on_c, 9, 54, 113
11, 259979, Note_on_c, 9, 54, 0
11, 260080, Note_on_c, 9, 54, 70
11, 260159, Note_on_c, 9, 54, 0
11, 260160, Note_on_c, 9, 54, 122
11, 260319, Note_on_c, 9, 54, 0
11, 260320, Note_on_c, 9, 54, 89
11, 260399, Note_on_c, 9, 54, 0
11, 260415, Note_on_c, 9, 54, 113
11, 260579, Note_on_c, 9, 54, 0
11, 260580, Note_on_c, 9, 54, 89
11, 260639, Note_on_c, 9, 54, 0
11, 260640, Note_on_c, 9, 54, 113
11, 260799, Note_on_c, 9, 54, 0
11, 260800, Note_on_c, 9, 54, 92
11, 260879, Note_on_c, 9, 54, 0
11, 260880, Note_on_c, 9, 54, 117
11, 261039, Note_on_c, 9, 54, 0
11, 261040, Note_on_c, 9, 54, 82
11, 261119, Note_on_c, 9, 54, 0
11, 261120, Note_on_c, 9, 54, 122
11, 261279, Note_on_c, 9, 54, 0
11, 261280, Note_on_c, 9, 54, 82
11, 261359, Note_on_c, 9, 54, 0
11, 261360, Note_on_c, 9, 54, 108
11, 261519, Note_on_c, 9, 54, 0
11, 261520, Note_on_c, 9, 54, 79
11, 261599, Note_on_c, 9, 54, 0
11, 261600, Note_on_c, 9, 54, 104
11, 261759, Note_on_c, 9, 54, 0
11, 261760, Note_on_c, 9, 54, 73
11, 261839, Note_on_c, 9, 54, 0
11, 261840, Note_on_c, 9, 54, 113
11, 261959, Note_on_c, 9, 54, 0
11, 261990, Note_on_c, 9, 54, 76
11, 262079, Note_on_c, 9, 54, 0
11, 262080, Note_on_c, 9, 54, 117
11, 262239, Note_on_c, 9, 54, 0
11, 262240, Note_on_c, 9, 54, 53
11, 262319, Note_on_c, 9, 54, 0
11, 262320, Note_on_c, 9, 54, 113
11, 262439, Note_on_c, 9, 54, 0
11, 262470, Note_on_c, 9, 54, 67
11, 262559, Note_on_c, 9, 54, 0
11, 262560, Note_on_c, 9, 54, 117
11, 262679, Note_on_c, 9, 54, 0
11, 262710, Note_on_c, 9, 54, 85
11, 262799, Note_on_c, 9, 54, 0
11, 262800, Note_on_c, 9, 54, 117
11, 262959, Note_on_c, 9, 54, 0
11, 262960, Note_on_c, 9, 54, 89
11, 263039, Note_on_c, 9, 54, 0
11, 263040, Note_on_c, 9, 54, 117
11, 263159, Note_on_c, 9, 54, 0
11, 263190, Note_on_c, 9, 54, 76
11, 263279, Note_on_c, 9, 54, 0
11, 263280, Note_on_c, 9, 54, 117
11, 263439, Note_on_c, 9, 54, 0
11, 263440, Note_on_c, 9, 54, 70
11, 263519, Note_on_c, 9, 54, 0
11, 263540, Note_on_c, 9, 54, 117
11, 263579, Note_on_c, 9, 54, 0
11, 263670, Note_on_c, 9, 54, 85
11, 263759, Note_on_c, 9, 54, 0
11, 263775, Note_on_c, 9, 54, 113
11, 263819, Note_on_c, 9, 54, 0
11, 263920, Note_on_c, 9, 54, 70
11, 263999, Note_on_c, 9, 54, 0
11, 264000, Note_on_c, 9, 54, 122
11, 264159, Note_on_c, 9, 54, 0
11, 264160, Note_on_c, 9, 54, 89
11, 264239, Note_on_c, 9, 54, 0
11, 264255, Note_on_c, 9, 54, 113
11, 264419, Note_on_c, 9, 54, 0
11, 264420, Note_on_c, 9, 54, 89
11, 264479, Note_on_c, 9, 54, 0
11, 264480, Note_on_c, 9, 54, 113
11, 264639, Note_on_c, 9, 54, 0
11, 264640, Note_on_c, 9, 54, 92
11, 264719, Note_on_c, 9, 54, 0
11, 264720, Note_on_c, 9, 54, 117
11, 264879, Note_on_c, 9, 54, 0
11, 264880, Note_on_c, 9, 54, 82
11, 264959, Note_on_c, 9, 54, 0
11, 264960, End_track
12, 0, Start_track
12, 0, Key_signature, 0, "major"
12, 0, Control_c, 9, 121, 0
12, 0, Program_c, 9, 0
12, 0, Control_c, 9, 7, 100
12, 0, Control_c, 9, 10, 64
12, 0, Control_c, 9, 91, 0
12, 0, Control_c, 9, 93, 0
12, 0, MIDI_port, 0
12, 0, Note_on_c, 9, 70, 52
12, 479, Note_on_c, 9, 70, 0
12, 960, Note_on_c, 9, 70, 52
12, 1439, Note_on_c, 9, 70, 0
12, 1440, End_track
0, 0, End_of_file
