0, 0, Header, 1, 2, 480
1, 0, Start_track
1, 0, Time_signature, 4, 2, 24, 8
1, 0, Key_signature, 0, "major"
1, 0, Tempo, 382166
1, 0, Control_c, 9, 121, 0
1, 0, Program_c, 9, 0
1, 0, Control_c, 9, 7, 100
1, 0, Control_c, 9, 10, 64
1, 0, Control_c, 9, 91, 0
1, 0, Control_c, 9, 93, 0
1, 0, MIDI_port, 0
1, 3840, Note_on_c, 9, 35, 110
1, 4319, Note_on_c, 9, 35, 0
1, 4560, Note_on_c, 9, 35, 110
1, 4799, Note_on_c, 9, 35, 0
1, 4800, Note_on_c, 9, 40, 110
1, 5279, Note_on_c, 9, 40, 0
1, 5520, Note_on_c, 9, 35, 110
1, 5759, Note_on_c, 9, 35, 0
1, 5760, Note_on_c, 9, 35, 110
1, 6239, Note_on_c, 9, 35, 0
1, 6480, Note_on_c, 9, 35, 110
1, 6719, Note_on_c, 9, 35, 0
1, 6720, Note_on_c, 9, 40, 110
1, 7199, Note_on_c, 9, 40, 0
1, 7440, Note_on_c, 9, 35, 110
1, 7679, Note_on_c, 9, 35, 0
1, 7680, Note_on_c, 9, 35, 110
1, 8159, Note_on_c, 9, 35, 0
1, 8400, Note_on_c, 9, 35, 110
1, 8639, Note_on_c, 9, 35, 0
1, 8640, Note_on_c, 9, 40, 110
1, 9119, Note_on_c, 9, 40, 0
1, 9360, Note_on_c, 9, 35, 110
1, 9599, Note_on_c, 9, 35, 0
1, 9600, Note_on_c, 9, 35, 110
1, 10079, Note_on_c, 9, 35, 0
1, 10320, Note_on_c, 9, 35, 110
1, 10559, Note_on_c, 9, 35, 0
1, 10560, Note_on_c, 9, 40, 110
1, 11039, Note_on_c, 9, 40, 0
1, 11280, Note_on_c, 9, 35, 110
1, 11519, Note_on_c, 9, 35, 0
1, 11520, Note_on_c, 9, 35, 110
1, 11999, Note_on_c, 9, 35, 0
1, 12240, Note_on_c, 9, 35, 110
1, 12479, Note_on_c, 9, 35, 0
1, 12480, Note_on_c, 9, 40, 110
1, 12959, Note_on_c, 9, 40, 0
1, 13200, Note_on_c, 9, 35, 110
1, 13439, Note_on_c, 9, 35, 0
1, 13440, Note_on_c, 9, 35, 110
1, 13919, Note_on_c, 9, 35, 0
1, 14160, Note_on_c, 9, 35, 110
1, 14399, Note_on_c, 9, 35, 0
1, 14400, Note_on_c, 9, 40, 110
1, 14879, Note_on_c, 9, 40, 0
1, 15120, Note_on_c, 9, 35, 110
1, 15359, Note_on_c, 9, 35, 0
1, 15360, Note_on_c, 9, 35, 110
1, 15839, Note_on_c, 9, 35, 0
1, 16080, Note_on_c, 9, 35, 110
1, 16319, Note_on_c, 9, 35, 0
1, 16320, Note_on_c, 9, 40, 110
1, 16799, Note_on_c, 9, 40, 0
1, 17040, Note_on_c, 9, 35, 110
1, 17279, Note_on_c, 9, 35, 0
1, 17280, Note_on_c, 9, 35, 110
1, 17759, Note_on_c, 9, 35, 0
1, 18000, Note_on_c, 9, 35, 110
1, 18239, Note_on_c, 9, 35, 0
1, 18240, Note_on_c, 9, 40, 110
1, 18719, Note_on_c, 9, 40, 0
1, 18960, Note_on_c, 9, 35, 110
1, 19199, Note_on_c, 9, 35, 0
1, 19200, Note_on_c, 9, 35, 110
1, 19679, Note_on_c, 9, 35, 0
1, 19920, Note_on_c, 9, 35, 110
1, 20159, Note_on_c, 9, 35, 0
1, 20160, Note_on_c, 9, 40, 110
1, 20639, Note_on_c, 9, 40, 0
1, 20880, Note_on_c, 9, 35, 110
1, 21119, Note_on_c, 9, 35, 0
1, 21120, Note_on_c, 9, 35, 110
1, 21599, Note_on_c, 9, 35, 0
1, 21840, Note_on_c, 9, 35, 110
1, 22079, Note_on_c, 9, 35, 0
1, 22080, Note_on_c, 9, 40, 110
1, 22559, Note_on_c, 9, 40, 0
1, 22800, Note_on_c, 9, 35, 110
1, 23039, Note_on_c, 9, 35, 0
1, 23040, Note_on_c, 9, 35, 110
1, 23519, Note_on_c, 9, 35, 0
1, 23760, Note_on_c, 9, 35, 110
1, 23999, Note_on_c, 9, 35, 0
1, 24000, Note_on_c, 9, 40, 110
1, 24479, Note_on_c, 9, 40, 0
1, 24720, Note_on_c, 9, 35, 110
1, 24959, Note_on_c, 9, 35, 0
1, 24960, Note_on_c, 9, 35, 110
1, 25439, Note_on_c, 9, 35, 0
1, 25680, Note_on_c, 9, 35, 110
1, 25919, Note_on_c, 9, 35, 0
1, 25920, Note_on_c, 9, 40, 110
1, 26399, Note_on_c, 9, 40, 0
1, 26640, Note_on_c, 9, 35, 110
1, 26879, Note_on_c, 9, 35, 0
1, 26880, Note_on_c, 9, 35, 110
1, 27359, Note_on_c, 9, 35, 0
1, 27600, Note_on_c, 9, 35, 110
1, 27839, Note_on_c, 9, 35, 0
1, 27840, Note_on_c, 9, 40, 110
1, 28319, Note_on_c, 9, 40, 0
1, 28560, Note_on_c, 9, 35, 110
1, 28799, Note_on_c, 9, 35, 0
1, 28800, Note_on_c, 9, 35, 110
1, 29279, Note_on_c, 9, 35, 0
1, 29520, Note_on_c, 9, 35, 110
1, 29759, Note_on_c, 9, 35, 0
1, 29760, Note_on_c, 9, 40, 110
1, 30239, Note_on_c, 9, 40, 0
1, 30480, Note_on_c, 9, 35, 110
1, 30719, Note_on_c, 9, 35, 0
1, 30720, Note_on_c, 9, 35, 110
1, 31199, Note_on_c, 9, 35, 0
1, 31440, Note_on_c, 9, 35, 110
1, 31679, Note_on_c, 9, 35, 0
1, 31680, Note_on_c, 9, 40, 110
1, 32159, Note_on_c, 9, 40, 0
1, 32400, Note_on_c, 9, 35, 110
1, 32639, Note_on_c, 9, 35, 0
1, 32640, Note_on_c, 9, 35, 110
1, 33119, Note_on_c, 9, 35, 0
1, 33360, Note_on_c, 9, 35, 110
1, 33599, Note_on_c, 9, 35, 0
1, 33600, Note_on_c, 9, 40, 110
1, 34079, Note_on_c, 9, 40, 0
1, 34320, Note_on_c, 9, 35, 110
1, 34559, Note_on_c, 9, 35, 0
1, 34560, Note_on_c, 9, 35, 110
1, 35039, Note_on_c, 9, 35, 0
1, 35280, Note_on_c, 9, 35, 110
1, 35519, Note_on_c, 9, 35, 0
1, 35520, Note_on_c, 9, 40, 110
1, 35999, Note_on_c, 9, 40, 0
1, 36240, Note_on_c, 9, 35, 110
1, 36479, Note_on_c, 9, 35, 0
1, 36480, Note_on_c, 9, 35, 110
1, 36959, Note_on_c, 9, 35, 0
1, 37200, Note_on_c, 9, 35, 110
1, 37439, Note_on_c, 9, 35, 0
1, 37440, Note_on_c, 9, 40, 110
1, 37919, Note_on_c, 9, 40, 0
1, 38160, Note_on_c, 9, 35, 110
1, 38399, Note_on_c, 9, 35, 0
1, 38400, Note_on_c, 9, 35, 110
1, 38879, Note_on_c, 9, 35, 0
1, 39120, Note_on_c, 9, 35, 110
1, 39359, Note_on_c, 9, 35, 0
1, 39360, Note_on_c, 9, 40, 110
1, 39839, Note_on_c, 9, 40, 0
1, 40080, Note_on_c, 9, 35, 110
1, 40319, Note_on_c, 9, 35, 0
1, 40320, Note_on_c, 9, 35, 110
1, 40799, Note_on_c, 9, 35, 0
1, 41040, Note_on_c, 9, 35, 110
1, 41279, Note_on_c, 9, 35, 0
1, 41280, Note_on_c, 9, 40, 110
1, 41759, Note_on_c, 9, 40, 0
1, 42000, Note_on_c, 9, 35, 110
1, 42239, Note_on_c, 9, 35, 0
1, 42240, Note_on_c, 9, 35, 110
1, 42719, Note_on_c, 9, 35, 0
1, 42960, Note_on_c, 9, 35, 110
1, 43199, Note_on_c, 9, 35, 0
1, 43200, Note_on_c, 9, 40, 110
1, 43679, Note_on_c, 9, 40, 0
1, 43920, Note_on_c, 9, 35, 110
1, 44159, Note_on_c, 9, 35, 0
1, 44160, Note_on_c, 9, 35, 110
1, 44639, Note_on_c, 9, 35, 0
1, 44880, Note_on_c, 9, 35, 110
1, 45119, Note_on_c, 9, 35, 0
1, 45120, Note_on_c, 9, 40, 110
1, 45599, Note_on_c, 9, 40, 0
1, 45840, Note_on_c, 9, 35, 110
1, 46079, Note_on_c, 9, 35, 0
1, 46080, Note_on_c, 9, 35, 110
1, 46559, Note_on_c, 9, 35, 0
1, 46800, Note_on_c, 9, 35, 110
1, 47039, Note_on_c, 9, 35, 0
1, 47040, Note_on_c, 9, 40, 110
1, 47519, Note_on_c, 9, 40, 0
1, 47760, Note_on_c, 9, 35, 110
1, 47999, Note_on_c, 9, 35, 0
1, 48000, Note_on_c, 9, 35, 110
1, 48479, Note_on_c, 9, 35, 0
1, 48720, Note_on_c, 9, 35, 110
1, 48959, Note_on_c, 9, 35, 0
1, 48960, Note_on_c, 9, 40, 110
1, 49439, Note_on_c, 9, 40, 0
1, 49680, Note_on_c, 9, 35, 110
1, 49919, Note_on_c, 9, 35, 0
1, 49920, Note_on_c, 9, 35, 110
1, 50399, Note_on_c, 9, 35, 0
1, 51840, Note_on_c, 9, 35, 110
1, 52319, Note_on_c, 9, 35, 0
1, 52560, Note_on_c, 9, 35, 110
1, 52799, Note_on_c, 9, 35, 0
1, 52800, Note_on_c, 9, 40, 110
1, 53279, Note_on_c, 9, 40, 0
1, 53520, Note_on_c, 9, 35, 110
1, 53759, Note_on_c, 9, 35, 0
1, 53760, Note_on_c, 9, 35, 110
1, 54239, Note_on_c, 9, 35, 0
1, 54480, Note_on_c, 9, 35, 110
1, 54719, Note_on_c, 9, 35, 0
1, 54720, Note_on_c, 9, 40, 110
1, 55199, Note_on_c, 9, 40, 0
1, 55200, Note_on_c, 9, 35, 110
1, 55439, Note_on_c, 9, 35, 0
1, 55440, Note_on_c, 9, 35, 110
1, 55679, Note_on_c, 9, 35, 0
1, 55680, Note_on_c, 9, 35, 110
1, 56159, Note_on_c, 9, 35, 0
1, 56400, Note_on_c, 9, 35, 110
1, 56639, Note_on_c, 9, 35, 0
1, 56640, Note_on_c, 9, 40, 110
1, 57119, Note_on_c, 9, 40, 0
1, 57360, Note_on_c, 9, 35, 110
1, 57599, Note_on_c, 9, 35, 0
1, 57600, Note_on_c, 9, 35, 110
1, 58079, Note_on_c, 9, 35, 0
1, 58320, Note_on_c, 9, 35, 110
1, 58559, Note_on_c, 9, 35, 0
1, 58560, Note_on_c, 9, 40, 110
1, 59039, Note_on_c, 9, 40, 0
1, 59280, Note_on_c, 9, 35, 110
1, 59519, Note_on_c, 9, 35, 0
1, 59520, Note_on_c, 9, 35, 110
1, 59999, Note_on_c, 9, 35, 0
1, 60240, Note_on_c, 9, 35, 110
1, 60479, Note_on_c, 9, 35, 0
1, 60480, Note_on_c, 9, 40, 110
1, 60959, Note_on_c, 9, 40, 0
1, 61200, Note_on_c, 9, 35, 110
1, 61439, Note_on_c, 9, 35, 0
1, 61440, Note_on_c, 9, 35, 110
1, 61919, Note_on_c, 9, 35, 0
1, 62160, Note_on_c, 9, 35, 110
1, 62399, Note_on_c, 9, 35, 0
1, 62400, Note_on_c, 9, 40, 110
1, 62879, Note_on_c, 9, 40, 0
1, 63120, Note_on_c, 9, 35, 110
1, 63359, Note_on_c, 9, 35, 0
1, 63360, Note_on_c, 9, 35, 110
1, 63839, Note_on_c, 9, 35, 0
1, 64080, Note_on_c, 9, 35, 110
1, 64319, Note_on_c, 9, 35, 0
1, 64320, Note_on_c, 9, 40, 110
1, 64799, Note_on_c, 9, 40, 0
1, 65040, Note_on_c, 9, 35, 110
1, 65279, Note_on_c, 9, 35, 0
1, 65280, Note_on_c, 9, 35, 110
1, 65759, Note_on_c, 9, 35, 0
1, 66000, Note_on_c, 9, 35, 110
1, 66239, Note_on_c, 9, 35, 0
1, 66240, Note_on_c, 9, 40, 110
1, 66719, Note_on_c, 9, 40, 0
1, 66960, Note_on_c, 9, 35, 110
1, 67199, Note_on_c, 9, 35, 0
1, 67200, Note_on_c, 9, 35, 110
1, 67679, Note_on_c, 9, 35, 0
1, 67920, Note_on_c, 9, 35, 110
1, 68159, Note_on_c, 9, 35, 0
1, 68160, Note_on_c, 9, 40, 110
1, 68639, Note_on_c, 9, 40, 0
1, 68880, Note_on_c, 9, 35, 110
1, 69119, Note_on_c, 9, 35, 0
1, 69120, Note_on_c, 9, 35, 110
1, 69599, Note_on_c, 9, 35, 0
1, 69840, Note_on_c, 9, 35, 110
1, 70079, Note_on_c, 9, 35, 0
1, 70080, Note_on_c, 9, 40, 110
1, 70559, Note_on_c, 9, 40, 0
1, 70800, Note_on_c, 9, 35, 110
1, 71039, Note_on_c, 9, 35, 0
1, 71040, Note_on_c, 9, 35, 110
1, 71519, Note_on_c, 9, 35, 0
1, 71760, Note_on_c, 9, 35, 110
1, 71999, Note_on_c, 9, 35, 0
1, 72000, Note_on_c, 9, 40, 110
1, 72479, Note_on_c, 9, 40, 0
1, 72720, Note_on_c, 9, 35, 110
1, 72959, Note_on_c, 9, 35, 0
1, 72960, Note_on_c, 9, 35, 110
1, 73439, Note_on_c, 9, 35, 0
1, 73680, Note_on_c, 9, 35, 110
1, 73919, Note_on_c, 9, 35, 0
1, 73920, Note_on_c, 9, 40, 110
1, 74399, Note_on_c, 9, 40, 0
1, 74640, Note_on_c, 9, 35, 110
1, 74879, Note_on_c, 9, 35, 0
1, 74880, Note_on_c, 9, 35, 110
1, 75359, Note_on_c, 9, 35, 0
1, 75600, Note_on_c, 9, 35, 110
1, 75839, Note_on_c, 9, 35, 0
1, 75840, Note_on_c, 9, 40, 110
1, 76319, Note_on_c, 9, 40, 0
1, 76560, Note_on_c, 9, 35, 110
1, 76799, Note_on_c, 9, 35, 0
1, 76800, Note_on_c, 9, 35, 110
1, 77279, Note_on_c, 9, 35, 0
1, 77520, Note_on_c, 9, 35, 110
1, 77759, Note_on_c, 9, 35, 0
1, 77760, Note_on_c, 9, 40, 110
1, 78239, Note_on_c, 9, 40, 0
1, 78480, Note_on_c, 9, 35, 110
1, 78719, Note_on_c, 9, 35, 0
1, 78720, Note_on_c, 9, 35, 110
1, 79199, Note_on_c, 9, 35, 0
1, 79440, Note_on_c, 9, 35, 110
1, 79679, Note_on_c, 9, 35, 0
1, 79680, Note_on_c, 9, 40, 110
1, 80159, Note_on_c, 9, 40, 0
1, 80400, Note_on_c, 9, 35, 110
1, 80639, Note_on_c, 9, 35, 0
1, 80640, Note_on_c, 9, 35, 110
1, 81119, Note_on_c, 9, 35, 0
1, 81360, Note_on_c, 9, 35, 110
1, 81599, Note_on_c, 9, 35, 0
1, 81600, Note_on_c, 9, 40, 110
1, 82079, Note_on_c, 9, 40, 0
1, 82320, Note_on_c, 9, 35, 110
1, 82559, Note_on_c, 9, 35, 0
1, 82560, Note_on_c, 9, 35, 110
1, 83039, Note_on_c, 9, 35, 0
1, 83280, Note_on_c, 9, 35, 110
1, 83519, Note_on_c, 9, 35, 0
1, 83520, Note_on_c, 9, 40, 110
1, 83999, Note_on_c, 9, 40, 0
1, 84240, Note_on_c, 9, 35, 110
1, 84479, Note_on_c, 9, 35, 0
1, 84480, Note_on_c, 9, 35, 110
1, 84959, Note_on_c, 9, 35, 0
1, 85200, Note_on_c, 9, 35, 110
1, 85439, Note_on_c, 9, 35, 0
1, 85440, Note_on_c, 9, 40, 110
1, 85919, Note_on_c, 9, 40, 0
1, 86160, Note_on_c, 9, 35, 110
1, 86399, Note_on_c, 9, 35, 0
1, 86400, Note_on_c, 9, 35, 110
1, 86879, Note_on_c, 9, 35, 0
1, 87120, Note_on_c, 9, 35, 110
1, 87359, Note_on_c, 9, 35, 0
1, 87360, Note_on_c, 9, 40, 110
1, 87839, Note_on_c, 9, 40, 0
1, 88080, Note_on_c, 9, 35, 110
1, 88319, Note_on_c, 9, 35, 0
1, 88320, Note_on_c, 9, 35, 110
1, 88799, Note_on_c, 9, 35, 0
1, 89040, Note_on_c, 9, 35, 110
1, 89279, Note_on_c, 9, 35, 0
1, 89280, Note_on_c, 9, 40, 110
1, 89759, Note_on_c, 9, 40, 0
1, 90000, Note_on_c, 9, 35, 110
1, 90239, Note_on_c, 9, 35, 0
1, 90240, Note_on_c, 9, 35, 110
1, 90719, Note_on_c, 9, 35, 0
1, 90960, Note_on_c, 9, 35, 110
1, 91199, Note_on_c, 9, 35, 0
1, 91200, Note_on_c, 9, 40, 110
1, 91679, Note_on_c, 9, 40, 0
1, 91920, Note_on_c, 9, 35, 110
1, 92159, Note_on_c, 9, 35, 0
1, 92160, Note_on_c, 9, 35, 110
1, 92639, Note_on_c, 9, 35, 0
1, 92880, Note_on_c, 9, 35, 110
1, 93119, Note_on_c, 9, 35, 0
1, 93120, Note_on_c, 9, 40, 110
1, 93599, Note_on_c, 9, 40, 0
1, 93840, Note_on_c, 9, 35, 110
1, 94079, Note_on_c, 9, 35, 0
1, 94080, Note_on_c, 9, 35, 110
1, 94559, Note_on_c, 9, 35, 0
1, 94800, Note_on_c, 9, 35, 110
1, 95039, Note_on_c, 9, 35, 0
1, 95040, Note_on_c, 9, 40, 110
1, 95519, Note_on_c, 9, 40, 0
1, 95760, Note_on_c, 9, 35, 110
1, 95999, Note_on_c, 9, 35, 0
1, 96000, Note_on_c, 9, 35, 110
1, 96479, Note_on_c, 9, 35, 0
1, 96720, Note_on_c, 9, 35, 110
1, 96959, Note_on_c, 9, 35, 0
1, 96960, Note_on_c, 9, 40, 110
1, 97439, Note_on_c, 9, 40, 0
1, 97680, Note_on_c, 9, 35, 110
1, 97919, Note_on_c, 9, 35, 0
1, 97920, Note_on_c, 9, 35, 110
1, 98399, Note_on_c, 9, 35, 0
1, 98640, Note_on_c, 9, 35, 110
1, 98879, Note_on_c, 9, 35, 0
1, 98880, Note_on_c, 9, 40, 110
1, 99359, Note_on_c, 9, 40, 0
1, 99600, Note_on_c, 9, 35, 110
1, 99839, Note_on_c, 9, 35, 0
1, 99840, Note_on_c, 9, 35, 110
1, 100319, Note_on_c, 9, 35, 0
1, 100560, Note_on_c, 9, 35, 110
1, 100799, Note_on_c, 9, 35, 0
1, 100800, Note_on_c, 9, 40, 110
1, 101279, Note_on_c, 9, 40, 0
1, 101520, Note_on_c, 9, 35, 110
1, 101759, Note_on_c, 9, 35, 0
1, 101760, Note_on_c, 9, 35, 110
1, 102239, Note_on_c, 9, 35, 0
1, 102480, Note_on_c, 9, 35, 110
1, 102719, Note_on_c, 9, 35, 0
1, 102720, Note_on_c, 9, 40, 110
1, 103199, Note_on_c, 9, 40, 0
1, 103440, Note_on_c, 9, 35, 110
1, 103679, Note_on_c, 9, 35, 0
1, 103680, Note_on_c, 9, 35, 110
1, 104159, Note_on_c, 9, 35, 0
1, 104400, Note_on_c, 9, 35, 110
1, 104639, Note_on_c, 9, 35, 0
1, 104640, Note_on_c, 9, 40, 110
1, 105119, Note_on_c, 9, 40, 0
1, 105360, Note_on_c, 9, 35, 110
1, 105599, Note_on_c, 9, 35, 0
1, 105600, Note_on_c, 9, 35, 110
1, 106079, Note_on_c, 9, 35, 0
1, 106320, Note_on_c, 9, 35, 110
1, 106559, Note_on_c, 9, 35, 0
1, 106560, Note_on_c, 9, 40, 110
1, 107039, Note_on_c, 9, 40, 0
1, 107280, Note_on_c, 9, 35, 110
1, 107519, Note_on_c, 9, 35, 0
1, 107520, Note_on_c, 9, 35, 110
1, 107999, Note_on_c, 9, 35, 0
1, 108240, Note_on_c, 9, 35, 110
1, 108479, Note_on_c, 9, 35, 0
1, 108480, Note_on_c, 9, 40, 110
1, 108959, Note_on_c, 9, 40, 0
1, 109200, Note_on_c, 9, 35, 110
1, 109439, Note_on_c, 9, 35, 0
1, 109440, Note_on_c, 9, 35, 110
1, 109919, Note_on_c, 9, 35, 0
1, 110160, Note_on_c, 9, 35, 110
1, 110399, Note_on_c, 9, 35, 0
1, 110400, Note_on_c, 9, 40, 110
1, 110879, Note_on_c, 9, 40, 0
1, 111120, Note_on_c, 9, 35, 110
1, 111359, Note_on_c, 9, 35, 0
1, 111360, Note_on_c, 9, 35, 110
1, 111839, Note_on_c, 9, 35, 0
1, 113280, Note_on_c, 9, 35, 110
1, 113759, Note_on_c, 9, 35, 0
1, 114000, Note_on_c, 9, 35, 110
1, 114239, Note_on_c, 9, 35, 0
1, 114240, Note_on_c, 9, 40, 110
1, 114719, Note_on_c, 9, 40, 0
1, 114960, Note_on_c, 9, 35, 110
1, 115199, Note_on_c, 9, 35, 0
1, 115200, Note_on_c, 9, 35, 110
1, 115679, Note_on_c, 9, 35, 0
1, 115920, Note_on_c, 9, 35, 110
1, 116159, Note_on_c, 9, 35, 0
1, 116160, Note_on_c, 9, 40, 110
1, 116639, Note_on_c, 9, 40, 0
1, 116640, Note_on_c, 9, 35, 110
1, 116879, Note_on_c, 9, 35, 0
1, 116880, Note_on_c, 9, 35, 110
1, 117119, Note_on_c, 9, 35, 0
1, 117120, Note_on_c, 9, 35, 110
1, 117599, Note_on_c, 9, 35, 0
1, 117840, Note_on_c, 9, 35, 110
1, 118079, Note_on_c, 9, 35, 0
1, 118080, Note_on_c, 9, 40, 110
1, 118559, Note_on_c, 9, 40, 0
1, 118800, Note_on_c, 9, 35, 110
1, 119039, Note_on_c, 9, 35, 0
1, 119040, Note_on_c, 9, 35, 110
1, 119519, Note_on_c, 9, 35, 0
1, 119760, Note_on_c, 9, 35, 110
1, 119999, Note_on_c, 9, 35, 0
1, 120000, Note_on_c, 9, 40, 110
1, 120479, Note_on_c, 9, 40, 0
1, 120720, Note_on_c, 9, 35, 110
1, 120959, Note_on_c, 9, 35, 0
1, 120960, Note_on_c, 9, 35, 110
1, 121439, Note_on_c, 9, 35, 0
1, 121680, Note_on_c, 9, 35, 110
1, 121919, Note_on_c, 9, 35, 0
1, 121920, Note_on_c, 9, 40, 110
1, 122399, Note_on_c, 9, 40, 0
1, 122640, Note_on_c, 9, 35, 110
1, 122879, Note_on_c, 9, 35, 0
1, 122880, Note_on_c, 9, 35, 110
1, 123359, Note_on_c, 9, 35, 0
1, 123600, Note_on_c, 9, 35, 110
1, 123839, Note_on_c, 9, 35, 0
1, 123840, Note_on_c, 9, 40, 110
1, 124319, Note_on_c, 9, 40, 0
1, 124560, Note_on_c, 9, 35, 110
1, 124799, Note_on_c, 9, 35, 0
1, 124800, Note_on_c, 9, 35, 110
1, 125279, Note_on_c, 9, 35, 0
1, 125520, Note_on_c, 9, 35, 110
1, 125759, Note_on_c, 9, 35, 0
1, 125760, Note_on_c, 9, 40, 110
1, 126239, Note_on_c, 9, 40, 0
1, 126480, Note_on_c, 9, 35, 110
1, 126719, Note_on_c, 9, 35, 0
1, 126720, Note_on_c, 9, 35, 110
1, 127199, Note_on_c, 9, 35, 0
1, 127440, Note_on_c, 9, 35, 110
1, 127679, Note_on_c, 9, 35, 0
1, 127680, Note_on_c, 9, 40, 110
1, 128159, Note_on_c, 9, 40, 0
1, 128400, Note_on_c, 9, 35, 110
1, 128639, Note_on_c, 9, 35, 0
1, 128640, Note_on_c, 9, 35, 110
1, 129119, Note_on_c, 9, 35, 0
1, 129360, Note_on_c, 9, 35, 110
1, 129599, Note_on_c, 9, 35, 0
1, 129600, Note_on_c, 9, 40, 110
1, 130079, Note_on_c, 9, 40, 0
1, 130320, Note_on_c, 9, 35, 110
1, 130559, Note_on_c, 9, 35, 0
1, 130560, Note_on_c, 9, 35, 110
1, 131039, Note_on_c, 9, 35, 0
1, 131280, Note_on_c, 9, 35, 110
1, 131519, Note_on_c, 9, 35, 0
1, 131520, Note_on_c, 9, 40, 110
1, 131999, Note_on_c, 9, 40, 0
1, 132240, Note_on_c, 9, 35, 110
1, 132479, Note_on_c, 9, 35, 0
1, 132480, Note_on_c, 9, 35, 110
1, 132959, Note_on_c, 9, 35, 0
1, 133200, Note_on_c, 9, 35, 110
1, 133439, Note_on_c, 9, 35, 0
1, 133440, Note_on_c, 9, 40, 110
1, 133919, Note_on_c, 9, 40, 0
1, 134160, Note_on_c, 9, 35, 110
1, 134399, Note_on_c, 9, 35, 0
1, 134400, Note_on_c, 9, 35, 110
1, 134879, Note_on_c, 9, 35, 0
1, 135120, Note_on_c, 9, 35, 110
1, 135359, Note_on_c, 9, 35, 0
1, 135360, Note_on_c, 9, 40, 110
1, 135839, Note_on_c, 9, 40, 0
1, 136080, Note_on_c, 9, 35, 110
1, 136319, Note_on_c, 9, 35, 0
1, 136320, Note_on_c, 9, 35, 110
1, 136799, Note_on_c, 9, 35, 0
1, 137040, Note_on_c, 9, 35, 110
1, 137279, Note_on_c, 9, 35, 0
1, 137280, Note_on_c, 9, 40, 110
1, 137759, Note_on_c, 9, 40, 0
1, 138000, Note_on_c, 9, 35, 110
1, 138239, Note_on_c, 9, 35, 0
1, 138240, Note_on_c, 9, 35, 110
1, 138719, Note_on_c, 9, 35, 0
1, 138960, Note_on_c, 9, 35, 110
1, 139199, Note_on_c, 9, 35, 0
1, 139200, Note_on_c, 9, 40, 110
1, 139679, Note_on_c, 9, 40, 0
1, 139920, Note_on_c, 9, 35, 110
1, 140159, Note_on_c, 9, 35, 0
1, 140160, Note_on_c, 9, 35, 110
1, 140639, Note_on_c, 9, 35, 0
1, 140880, Note_on_c, 9, 35, 110
1, 141119, Note_on_c, 9, 35, 0
1, 141120, Note_on_c, 9, 40, 110
1, 141599, Note_on_c, 9, 40, 0
1, 141840, Note_on_c, 9, 35, 110
1, 142079, Note_on_c, 9, 35, 0
1, 142080, Note_on_c, 9, 35, 110
1, 142559, Note_on_c, 9, 35, 0
1, 142800, Note_on_c, 9, 35, 110
1, 143039, Note_on_c, 9, 35, 0
1, 143040, Note_on_c, 9, 40, 110
1, 143519, Note_on_c, 9, 40, 0
1, 143760, Note_on_c, 9, 35, 110
1, 143999, Note_on_c, 9, 35, 0
1, 144000, Note_on_c, 9, 35, 110
1, 144479, Note_on_c, 9, 35, 0
1, 144720, Note_on_c, 9, 35, 110
1, 144959, Note_on_c, 9, 35, 0
1, 144960, Note_on_c, 9, 40, 110
1, 145439, Note_on_c, 9, 40, 0
1, 145680, Note_on_c, 9, 35, 110
1, 145919, Note_on_c, 9, 35, 0
1, 145920, Note_on_c, 9, 35, 110
1, 146399, Note_on_c, 9, 35, 0
1, 146640, Note_on_c, 9, 35, 110
1, 146879, Note_on_c, 9, 35, 0
1, 146880, Note_on_c, 9, 40, 110
1, 147359, Note_on_c, 9, 40, 0
1, 147600, Note_on_c, 9, 35, 110
1, 147839, Note_on_c, 9, 35, 0
1, 147840, Note_on_c, 9, 35, 110
1, 148319, Note_on_c, 9, 35, 0
1, 148560, Note_on_c, 9, 35, 110
1, 148799, Note_on_c, 9, 35, 0
1, 148800, Note_on_c, 9, 40, 110
1, 149279, Note_on_c, 9, 40, 0
1, 149520, Note_on_c, 9, 35, 110
1, 149759, Note_on_c, 9, 35, 0
1, 149760, Note_on_c, 9, 35, 110
1, 150239, Note_on_c, 9, 35, 0
1, 150480, Note_on_c, 9, 35, 110
1, 150719, Note_on_c, 9, 35, 0
1, 150720, Note_on_c, 9, 40, 110
1, 151199, Note_on_c, 9, 40, 0
1, 151440, Note_on_c, 9, 35, 110
1, 151679, Note_on_c, 9, 35, 0
1, 151680, Note_on_c, 9, 35, 110
1, 152159, Note_on_c, 9, 35, 0
1, 152400, Note_on_c, 9, 35, 110
1, 152639, Note_on_c, 9, 35, 0
1, 152640, Note_on_c, 9, 40, 110
1, 153119, Note_on_c, 9, 40, 0
1, 153360, Note_on_c, 9, 35, 110
1, 153599, Note_on_c, 9, 35, 0
1, 153600, Note_on_c, 9, 35, 110
1, 154079, Note_on_c, 9, 35, 0
1, 154320, Note_on_c, 9, 35, 110
1, 154559, Note_on_c, 9, 35, 0
1, 154560, Note_on_c, 9, 40, 110
1, 155039, Note_on_c, 9, 40, 0
1, 155280, Note_on_c, 9, 35, 110
1, 155519, Note_on_c, 9, 35, 0
1, 155520, Note_on_c, 9, 35, 110
1, 155999, Note_on_c, 9, 35, 0
1, 156240, Note_on_c, 9, 35, 110
1, 156479, Note_on_c, 9, 35, 0
1, 156480, Note_on_c, 9, 40, 110
1, 156959, Note_on_c, 9, 40, 0
1, 157200, Note_on_c, 9, 35, 110
1, 157439, Note_on_c, 9, 35, 0
1, 157440, Note_on_c, 9, 35, 110
1, 157919, Note_on_c, 9, 35, 0
1, 158160, Note_on_c, 9, 35, 110
1, 158399, Note_on_c, 9, 35, 0
1, 158400, Note_on_c, 9, 40, 110
1, 158879, Note_on_c, 9, 40, 0
1, 159120, Note_on_c, 9, 59, 110
1, 159120, Note_on_c, 9, 35, 110
1, 159359, Note_on_c, 9, 59, 0
1, 159359, Note_on_c, 9, 35, 0
1, 159360, End_track
2, 0, Start_track
2, 0, Key_signature, 0, "major"
2, 0, Control_c, 9, 121, 0
2, 0, Program_c, 9, 0
2, 0, Control_c, 9, 7, 100
2, 0, Control_c, 9, 10, 64
2, 0, Control_c, 9, 91, 0
2, 0, Control_c, 9, 93, 0
2, 0, MIDI_port, 0
2, 1920, Note_on_c, 9, 42, 110
2, 1920, Note_on_c, 9, 57, 110
2, 2399, Note_on_c, 9, 42, 0
2, 2399, Note_on_c, 9, 57, 0
2, 2400, Note_on_c, 9, 42, 110
2, 2879, Note_on_c, 9, 42, 0
2, 2880, Note_on_c, 9, 42, 110
2, 3359, Note_on_c, 9, 42, 0
2, 3360, Note_on_c, 9, 42, 110
2, 3839, Note_on_c, 9, 42, 0
2, 3840, Note_on_c, 9, 42, 110
2, 3840, Note_on_c, 9, 57, 110
2, 4319, Note_on_c, 9, 42, 0
2, 4319, Note_on_c, 9, 57, 0
2, 4320, Note_on_c, 9, 42, 110
2, 4559, Note_on_c, 9, 42, 0
2, 4560, Note_on_c, 9, 46, 110
2, 4799, Note_on_c, 9, 46, 0
2, 4800, Note_on_c, 9, 42, 110
2, 5279, Note_on_c, 9, 42, 0
2, 5280, Note_on_c, 9, 42, 110
2, 5759, Note_on_c, 9, 42, 0
2, 5760, Note_on_c, 9, 42, 110
2, 6239, Note_on_c, 9, 42, 0
2, 6240, Note_on_c, 9, 42, 110
2, 6719, Note_on_c, 9, 42, 0
2, 6720, Note_on_c, 9, 42, 110
2, 7199, Note_on_c, 9, 42, 0
2, 7200, Note_on_c, 9, 42, 110
2, 7679, Note_on_c, 9, 42, 0
2, 7680, Note_on_c, 9, 42, 110
2, 8159, Note_on_c, 9, 42, 0
2, 8160, Note_on_c, 9, 42, 110
2, 8399, Note_on_c, 9, 42, 0
2, 8400, Note_on_c, 9, 46, 110
2, 8639, Note_on_c, 9, 46, 0
2, 8640, Note_on_c, 9, 42, 110
2, 9119, Note_on_c, 9, 42, 0
2, 9120, Note_on_c, 9, 42, 110
2, 9599, Note_on_c, 9, 42, 0
2, 9600, Note_on_c, 9, 42, 110
2, 10079, Note_on_c, 9, 42, 0
2, 10080, Note_on_c, 9, 42, 110
2, 10319, Note_on_c, 9, 42, 0
2, 10320, Note_on_c, 9, 46, 110
2, 10559, Note_on_c, 9, 46, 0
2, 10560, Note_on_c, 9, 42, 110
2, 11039, Note_on_c, 9, 42, 0
2, 11040, Note_on_c, 9, 42, 110
2, 11279, Note_on_c, 9, 42, 0
2, 11280, Note_on_c, 9, 46, 110
2, 11519, Note_on_c, 9, 46, 0
2, 11520, Note_on_c, 9, 42, 110
2, 11999, Note_on_c, 9, 42, 0
2, 12000, Note_on_c, 9, 42, 110
2, 12479, Note_on_c, 9, 42, 0
2, 12480, Note_on_c, 9, 42, 110
2, 12959, Note_on_c, 9, 42, 0
2, 12960, Note_on_c, 9, 42, 110
2, 13439, Note_on_c, 9, 42, 0
2, 13440, Note_on_c, 9, 42, 110
2, 13919, Note_on_c, 9, 42, 0
2, 13920, Note_on_c, 9, 42, 110
2, 14399, Note_on_c, 9, 42, 0
2, 14400, Note_on_c, 9, 42, 110
2, 14879, Note_on_c, 9, 42, 0
2, 14880, Note_on_c, 9, 42, 110
2, 15119, Note_on_c, 9, 42, 0
2, 15120, Note_on_c, 9, 46, 110
2, 15359, Note_on_c, 9, 46, 0
2, 15360, Note_on_c, 9, 42, 110
2, 15360, Note_on_c, 9, 57, 110
2, 15839, Note_on_c, 9, 42, 0
2, 15839, Note_on_c, 9, 57, 0
2, 15840, Note_on_c, 9, 42, 110
2, 16319, Note_on_c, 9, 42, 0
2, 16320, Note_on_c, 9, 42, 110
2, 16799, Note_on_c, 9, 42, 0
2, 16800, Note_on_c, 9, 42, 110
2, 17279, Note_on_c, 9, 42, 0
2, 17280, Note_on_c, 9, 42, 110
2, 17759, Note_on_c, 9, 42, 0
2, 17760, Note_on_c, 9, 42, 110
2, 17999, Note_on_c, 9, 42, 0
2, 18000, Note_on_c, 9, 46, 110
2, 18239, Note_on_c, 9, 46, 0
2, 18240, Note_on_c, 9, 42, 110
2, 18719, Note_on_c, 9, 42, 0
2, 18720, Note_on_c, 9, 42, 110
2, 18959, Note_on_c, 9, 42, 0
2, 18960, Note_on_c, 9, 46, 110
2, 19199, Note_on_c, 9, 46, 0
2, 19200, Note_on_c, 9, 42, 110
2, 19200, Note_on_c, 9, 57, 110
2, 19679, Note_on_c, 9, 42, 0
2, 19679, Note_on_c, 9, 57, 0
2, 19680, Note_on_c, 9, 42, 110
2, 19919, Note_on_c, 9, 42, 0
2, 19920, Note_on_c, 9, 46, 110
2, 20159, Note_on_c, 9, 46, 0
2, 20160, Note_on_c, 9, 42, 110
2, 20639, Note_on_c, 9, 42, 0
2, 20640, Note_on_c, 9, 42, 110
2, 20879, Note_on_c, 9, 42, 0
2, 20880, Note_on_c, 9, 42, 110
2, 21119, Note_on_c, 9, 42, 0
2, 21120, Note_on_c, 9, 42, 110
2, 21599, Note_on_c, 9, 42, 0
2, 21600, Note_on_c, 9, 42, 110
2, 21839, Note_on_c, 9, 42, 0
2, 21840, Note_on_c, 9, 46, 110
2, 22079, Note_on_c, 9, 46, 0
2, 22080, Note_on_c, 9, 42, 110
2, 22559, Note_on_c, 9, 42, 0
2, 22560, Note_on_c, 9, 42, 110
2, 22799, Note_on_c, 9, 42, 0
2, 22800, Note_on_c, 9, 42, 110
2, 23039, Note_on_c, 9, 42, 0
2, 23040, Note_on_c, 9, 42, 110
2, 23519, Note_on_c, 9, 42, 0
2, 23520, Note_on_c, 9, 42, 110
2, 23999, Note_on_c, 9, 42, 0
2, 24000, Note_on_c, 9, 42, 110
2, 24479, Note_on_c, 9, 42, 0
2, 24480, Note_on_c, 9, 42, 110
2, 24959, Note_on_c, 9, 42, 0
2, 24960, Note_on_c, 9, 42, 110
2, 25439, Note_on_c, 9, 42, 0
2, 25440, Note_on_c, 9, 42, 110
2, 25919, Note_on_c, 9, 42, 0
2, 25920, Note_on_c, 9, 42, 110
2, 26159, Note_on_c, 9, 42, 0
2, 26160, Note_on_c, 9, 42, 110
2, 26279, Note_on_c, 9, 42, 0
2, 26280, Note_on_c, 9, 42, 110
2, 26399, Note_on_c, 9, 42, 0
2, 26400, Note_on_c, 9, 42, 110
2, 26639, Note_on_c, 9, 42, 0
2, 26640, Note_on_c, 9, 46, 110
2, 26640, Note_on_c, 9, 42, 110
2, 26879, Note_on_c, 9, 46, 0
2, 26879, Note_on_c, 9, 42, 0
2, 26880, Note_on_c, 9, 42, 110
2, 27359, Note_on_c, 9, 42, 0
2, 27360, Note_on_c, 9, 42, 110
2, 27599, Note_on_c, 9, 42, 0
2, 27600, Note_on_c, 9, 46, 110
2, 27839, Note_on_c, 9, 46, 0
2, 27840, Note_on_c, 9, 42, 110
2, 28319, Note_on_c, 9, 42, 0
2, 28320, Note_on_c, 9, 42, 110
2, 28559, Note_on_c, 9, 42, 0
2, 28560, Note_on_c, 9, 46, 110
2, 28799, Note_on_c, 9, 46, 0
2, 28800, Note_on_c, 9, 42, 110
2, 29279, Note_on_c, 9, 42, 0
2, 29280, Note_on_c, 9, 42, 110
2, 29759, Note_on_c, 9, 42, 0
2, 29760, Note_on_c, 9, 42, 110
2, 30239, Note_on_c, 9, 42, 0
2, 30240, Note_on_c, 9, 42, 110
2, 30719, Note_on_c, 9, 42, 0
2, 30720, Note_on_c, 9, 42, 110
2, 31199, Note_on_c, 9, 42, 0
2, 31200, Note_on_c, 9, 42, 110
2, 31679, Note_on_c, 9, 42, 0
2, 31680, Note_on_c, 9, 42, 110
2, 32159, Note_on_c, 9, 42, 0
2, 32160, Note_on_c, 9, 42, 110
2, 32639, Note_on_c, 9, 42, 0
2, 32640, Note_on_c, 9, 42, 110
2, 33119, Note_on_c, 9, 42, 0
2, 33120, Note_on_c, 9, 42, 110
2, 33359, Note_on_c, 9, 42, 0
2, 33360, Note_on_c, 9, 46, 110
2, 33599, Note_on_c, 9, 46, 0
2, 33600, Note_on_c, 9, 42, 110
2, 34079, Note_on_c, 9, 42, 0
2, 34080, Note_on_c, 9, 42, 110
2, 34319, Note_on_c, 9, 42, 0
2, 34320, Note_on_c, 9, 46, 110
2, 34559, Note_on_c, 9, 46, 0
2, 34560, Note_on_c, 9, 42, 110
2, 34560, Note_on_c, 9, 57, 110
2, 35039, Note_on_c, 9, 42, 0
2, 35039, Note_on_c, 9, 57, 0
2, 35040, Note_on_c, 9, 42, 110
2, 35279, Note_on_c, 9, 42, 0
2, 35280, Note_on_c, 9, 46, 110
2, 35519, Note_on_c, 9, 46, 0
2, 35520, Note_on_c, 9, 42, 110
2, 35999, Note_on_c, 9, 42, 0
2, 36000, Note_on_c, 9, 42, 110
2, 36239, Note_on_c, 9, 42, 0
2, 36240, Note_on_c, 9, 46, 110
2, 36479, Note_on_c, 9, 46, 0
2, 36480, Note_on_c, 9, 42, 110
2, 36959, Note_on_c, 9, 42, 0
2, 36960, Note_on_c, 9, 42, 110
2, 37199, Note_on_c, 9, 42, 0
2, 37200, Note_on_c, 9, 46, 110
2, 37439, Note_on_c, 9, 46, 0
2, 37440, Note_on_c, 9, 42, 110
2, 37919, Note_on_c, 9, 42, 0
2, 37920, Note_on_c, 9, 42, 110
2, 38159, Note_on_c, 9, 42, 0
2, 38160, Note_on_c, 9, 46, 110
2, 38399, Note_on_c, 9, 46, 0
2, 38400, Note_on_c, 9, 42, 110
2, 38879, Note_on_c, 9, 42, 0
2, 38880, Note_on_c, 9, 42, 110
2, 39119, Note_on_c, 9, 42, 0
2, 39120, Note_on_c, 9, 46, 110
2, 39359, Note_on_c, 9, 46, 0
2, 39360, Note_on_c, 9, 42, 110
2, 39839, Note_on_c, 9, 42, 0
2, 39840, Note_on_c, 9, 42, 110
2, 40079, Note_on_c, 9, 42, 0
2, 40080, Note_on_c, 9, 46, 110
2, 40319, Note_on_c, 9, 46, 0
2, 40320, Note_on_c, 9, 42, 110
2, 40799, Note_on_c, 9, 42, 0
2, 40800, Note_on_c, 9, 42, 110
2, 41039, Note_on_c, 9, 42, 0
2, 41040, Note_on_c, 9, 46, 110
2, 41279, Note_on_c, 9, 46, 0
2, 41280, Note_on_c, 9, 42, 110
2, 41759, Note_on_c, 9, 42, 0
2, 41760, Note_on_c, 9, 42, 110
2, 41999, Note_on_c, 9, 42, 0
2, 42000, Note_on_c, 9, 46, 110
2, 42239, Note_on_c, 9, 46, 0
2, 42240, Note_on_c, 9, 42, 110
2, 42719, Note_on_c, 9, 42, 0
2, 42720, Note_on_c, 9, 42, 110
2, 42959, Note_on_c, 9, 42, 0
2, 42960, Note_on_c, 9, 46, 110
2, 43199, Note_on_c, 9, 46, 0
2, 43200, Note_on_c, 9, 42, 110
2, 43679, Note_on_c, 9, 42, 0
2, 43680, Note_on_c, 9, 42, 110
2, 43919, Note_on_c, 9, 42, 0
2, 43920, Note_on_c, 9, 46, 110
2, 44159, Note_on_c, 9, 46, 0
2, 44160, Note_on_c, 9, 42, 110
2, 44639, Note_on_c, 9, 42, 0
2, 44640, Note_on_c, 9, 42, 110
2, 44879, Note_on_c, 9, 42, 0
2, 44880, Note_on_c, 9, 46, 110
2, 45119, Note_on_c, 9, 46, 0
2, 45120, Note_on_c, 9, 42, 110
2, 45599, Note_on_c, 9, 42, 0
2, 45600, Note_on_c, 9, 42, 110
2, 45839, Note_on_c, 9, 42, 0
2, 45840, Note_on_c, 9, 46, 110
2, 46079, Note_on_c, 9, 46, 0
2, 46080, Note_on_c, 9, 42, 110
2, 46559, Note_on_c, 9, 42, 0
2, 46560, Note_on_c, 9, 42, 110
2, 46799, Note_on_c, 9, 42, 0
2, 46800, Note_on_c, 9, 46, 110
2, 47039, Note_on_c, 9, 46, 0
2, 47040, Note_on_c, 9, 42, 110
2, 47519, Note_on_c, 9, 42, 0
2, 47520, Note_on_c, 9, 42, 110
2, 47759, Note_on_c, 9, 42, 0
2, 47760, Note_on_c, 9, 46, 110
2, 47999, Note_on_c, 9, 46, 0
2, 48000, Note_on_c, 9, 42, 110
2, 48479, Note_on_c, 9, 42, 0
2, 48480, Note_on_c, 9, 42, 110
2, 48719, Note_on_c, 9, 42, 0
2, 48720, Note_on_c, 9, 46, 110
2, 48959, Note_on_c, 9, 46, 0
2, 48960, Note_on_c, 9, 42, 110
2, 49439, Note_on_c, 9, 42, 0
2, 49440, Note_on_c, 9, 42, 110
2, 49679, Note_on_c, 9, 42, 0
2, 49680, Note_on_c, 9, 46, 110
2, 49919, Note_on_c, 9, 46, 0
2, 49920, Note_on_c, 9, 42, 110
2, 49920, Note_on_c, 9, 57, 110
2, 50399, Note_on_c, 9, 42, 0
2, 50399, Note_on_c, 9, 57, 0
2, 50400, Note_on_c, 9, 42, 110
2, 50879, Note_on_c, 9, 42, 0
2, 50880, Note_on_c, 9, 42, 110
2, 51359, Note_on_c, 9, 42, 0
2, 51360, Note_on_c, 9, 42, 110
2, 51599, Note_on_c, 9, 42, 0
2, 51600, Note_on_c, 9, 42, 110
2, 51719, Note_on_c, 9, 42, 0
2, 51720, Note_on_c, 9, 42, 110
2, 51839, Note_on_c, 9, 42, 0
2, 51840, Note_on_c, 9, 42, 110
2, 51840, Note_on_c, 9, 57, 110
2, 52319, Note_on_c, 9, 42, 0
2, 52319, Note_on_c, 9, 57, 0
2, 52320, Note_on_c, 9, 42, 110
2, 52559, Note_on_c, 9, 42, 0
2, 52560, Note_on_c, 9, 46, 110
2, 52799, Note_on_c, 9, 46, 0
2, 52800, Note_on_c, 9, 42, 110
2, 53279, Note_on_c, 9, 42, 0
2, 53280, Note_on_c, 9, 42, 110
2, 53519, Note_on_c, 9, 42, 0
2, 53520, Note_on_c, 9, 46, 110
2, 53759, Note_on_c, 9, 46, 0
2, 53760, Note_on_c, 9, 42, 110
2, 53760, Note_on_c, 9, 57, 110
2, 54239, Note_on_c, 9, 42, 0
2, 54239, Note_on_c, 9, 57, 0
2, 54240, Note_on_c, 9, 42, 110
2, 54479, Note_on_c, 9, 42, 0
2, 54480, Note_on_c, 9, 46, 110
2, 54719, Note_on_c, 9, 46, 0
2, 54720, Note_on_c, 9, 42, 110
2, 55199, Note_on_c, 9, 42, 0
2, 55200, Note_on_c, 9, 42, 110
2, 55439, Note_on_c, 9, 42, 0
2, 55440, Note_on_c, 9, 46, 110
2, 55679, Note_on_c, 9, 46, 0
2, 55680, Note_on_c, 9, 42, 110
2, 56159, Note_on_c, 9, 42, 0
2, 56160, Note_on_c, 9, 42, 110
2, 56399, Note_on_c, 9, 42, 0
2, 56400, Note_on_c, 9, 46, 110
2, 56639, Note_on_c, 9, 46, 0
2, 56640, Note_on_c, 9, 42, 110
2, 57119, Note_on_c, 9, 42, 0
2, 57120, Note_on_c, 9, 42, 110
2, 57359, Note_on_c, 9, 42, 0
2, 57360, Note_on_c, 9, 46, 110
2, 57599, Note_on_c, 9, 46, 0
2, 57600, Note_on_c, 9, 42, 110
2, 58079, Note_on_c, 9, 42, 0
2, 58080, Note_on_c, 9, 42, 110
2, 58319, Note_on_c, 9, 42, 0
2, 58320, Note_on_c, 9, 46, 110
2, 58559, Note_on_c, 9, 46, 0
2, 58560, Note_on_c, 9, 42, 110
2, 59039, Note_on_c, 9, 42, 0
2, 59040, Note_on_c, 9, 42, 110
2, 59279, Note_on_c, 9, 42, 0
2, 59280, Note_on_c, 9, 46, 110
2, 59519, Note_on_c, 9, 46, 0
2, 59520, Note_on_c, 9, 42, 110
2, 59999, Note_on_c, 9, 42, 0
2, 60000, Note_on_c, 9, 42, 110
2, 60239, Note_on_c, 9, 42, 0
2, 60240, Note_on_c, 9, 46, 110
2, 60479, Note_on_c, 9, 46, 0
2, 60480, Note_on_c, 9, 42, 110
2, 60959, Note_on_c, 9, 42, 0
2, 60960, Note_on_c, 9, 42, 110
2, 61199, Note_on_c, 9, 42, 0
2, 61200, Note_on_c, 9, 46, 110
2, 61439, Note_on_c, 9, 46, 0
2, 61440, Note_on_c, 9, 42, 110
2, 61919, Note_on_c, 9, 42, 0
2, 61920, Note_on_c, 9, 42, 110
2, 62159, Note_on_c, 9, 42, 0
2, 62160, Note_on_c, 9, 46, 110
2, 62399, Note_on_c, 9, 46, 0
2, 62400, Note_on_c, 9, 42, 110
2, 62879, Note_on_c, 9, 42, 0
2, 62880, Note_on_c, 9, 42, 110
2, 63119, Note_on_c, 9, 42, 0
2, 63120, Note_on_c, 9, 46, 110
2, 63120, Note_on_c, 9, 57, 110
2, 63359, Note_on_c, 9, 46, 0
2, 63359, Note_on_c, 9, 57, 0
2, 63360, Note_on_c, 9, 42, 110
2, 63839, Note_on_c, 9, 42, 0
2, 63840, Note_on_c, 9, 42, 110
2, 64079, Note_on_c, 9, 42, 0
2, 64080, Note_on_c, 9, 46, 110
2, 64319, Note_on_c, 9, 46, 0
2, 64320, Note_on_c, 9, 42, 110
2, 64799, Note_on_c, 9, 42, 0
2, 64800, Note_on_c, 9, 42, 110
2, 65039, Note_on_c, 9, 42, 0
2, 65040, Note_on_c, 9, 46, 110
2, 65279, Note_on_c, 9, 46, 0
2, 65280, Note_on_c, 9, 42, 110
2, 65280, Note_on_c, 9, 57, 110
2, 65759, Note_on_c, 9, 42, 0
2, 65759, Note_on_c, 9, 57, 0
2, 65760, Note_on_c, 9, 42, 110
2, 65999, Note_on_c, 9, 42, 0
2, 66000, Note_on_c, 9, 46, 110
2, 66239, Note_on_c, 9, 46, 0
2, 66240, Note_on_c, 9, 42, 110
2, 66719, Note_on_c, 9, 42, 0
2, 66720, Note_on_c, 9, 42, 110
2, 66959, Note_on_c, 9, 42, 0
2, 66960, Note_on_c, 9, 46, 110
2, 67199, Note_on_c, 9, 46, 0
2, 67200, Note_on_c, 9, 42, 110
2, 67679, Note_on_c, 9, 42, 0
2, 67680, Note_on_c, 9, 42, 110
2, 67919, Note_on_c, 9, 42, 0
2, 67920, Note_on_c, 9, 46, 110
2, 68159, Note_on_c, 9, 46, 0
2, 68160, Note_on_c, 9, 42, 110
2, 68639, Note_on_c, 9, 42, 0
2, 68640, Note_on_c, 9, 42, 110
2, 68879, Note_on_c, 9, 42, 0
2, 68880, Note_on_c, 9, 46, 110
2, 69119, Note_on_c, 9, 46, 0
2, 69120, Note_on_c, 9, 42, 110
2, 69599, Note_on_c, 9, 42, 0
2, 69600, Note_on_c, 9, 42, 110
2, 69839, Note_on_c, 9, 42, 0
2, 69840, Note_on_c, 9, 46, 110
2, 70079, Note_on_c, 9, 46, 0
2, 70080, Note_on_c, 9, 42, 110
2, 70559, Note_on_c, 9, 42, 0
2, 70560, Note_on_c, 9, 42, 110
2, 70799, Note_on_c, 9, 42, 0
2, 70800, Note_on_c, 9, 46, 110
2, 71039, Note_on_c, 9, 46, 0
2, 71040, Note_on_c, 9, 42, 110
2, 71519, Note_on_c, 9, 42, 0
2, 71520, Note_on_c, 9, 42, 110
2, 71759, Note_on_c, 9, 42, 0
2, 71760, Note_on_c, 9, 46, 110
2, 71999, Note_on_c, 9, 46, 0
2, 72000, Note_on_c, 9, 42, 110
2, 72479, Note_on_c, 9, 42, 0
2, 72480, Note_on_c, 9, 42, 110
2, 72719, Note_on_c, 9, 42, 0
2, 72720, Note_on_c, 9, 46, 110
2, 72959, Note_on_c, 9, 46, 0
2, 72960, Note_on_c, 9, 42, 110
2, 73439, Note_on_c, 9, 42, 0
2, 73440, Note_on_c, 9, 42, 110
2, 73679, Note_on_c, 9, 42, 0
2, 73680, Note_on_c, 9, 46, 110
2, 73919, Note_on_c, 9, 46, 0
2, 73920, Note_on_c, 9, 42, 110
2, 74399, Note_on_c, 9, 42, 0
2, 74400, Note_on_c, 9, 42, 110
2, 74639, Note_on_c, 9, 42, 0
2, 74640, Note_on_c, 9, 46, 110
2, 74879, Note_on_c, 9, 46, 0
2, 74880, Note_on_c, 9, 42, 110
2, 75359, Note_on_c, 9, 42, 0
2, 75360, Note_on_c, 9, 42, 110
2, 75599, Note_on_c, 9, 42, 0
2, 75600, Note_on_c, 9, 46, 110
2, 75839, Note_on_c, 9, 46, 0
2, 75840, Note_on_c, 9, 42, 110
2, 76319, Note_on_c, 9, 42, 0
2, 76320, Note_on_c, 9, 42, 110
2, 76559, Note_on_c, 9, 42, 0
2, 76560, Note_on_c, 9, 46, 110
2, 76799, Note_on_c, 9, 46, 0
2, 76800, Note_on_c, 9, 42, 110
2, 77279, Note_on_c, 9, 42, 0
2, 77280, Note_on_c, 9, 42, 110
2, 77519, Note_on_c, 9, 42, 0
2, 77520, Note_on_c, 9, 46, 110
2, 77759, Note_on_c, 9, 46, 0
2, 77760, Note_on_c, 9, 42, 110
2, 78239, Note_on_c, 9, 42, 0
2, 78240, Note_on_c, 9, 42, 110
2, 78479, Note_on_c, 9, 42, 0
2, 78480, Note_on_c, 9, 46, 110
2, 78719, Note_on_c, 9, 46, 0
2, 78720, Note_on_c, 9, 42, 110
2, 79199, Note_on_c, 9, 42, 0
2, 79200, Note_on_c, 9, 57, 110
2, 79679, Note_on_c, 9, 57, 0
2, 80640, Note_on_c, 9, 42, 110
2, 80640, Note_on_c, 9, 57, 110
2, 81119, Note_on_c, 9, 42, 0
2, 81119, Note_on_c, 9, 57, 0
2, 81120, Note_on_c, 9, 42, 110
2, 81359, Note_on_c, 9, 42, 0
2, 81360, Note_on_c, 9, 46, 110
2, 81599, Note_on_c, 9, 46, 0
2, 81600, Note_on_c, 9, 42, 110
2, 82079, Note_on_c, 9, 42, 0
2, 82080, Note_on_c, 9, 42, 110
2, 82319, Note_on_c, 9, 42, 0
2, 82320, Note_on_c, 9, 42, 110
2, 82559, Note_on_c, 9, 42, 0
2, 82560, Note_on_c, 9, 42, 110
2, 83039, Note_on_c, 9, 42, 0
2, 83040, Note_on_c, 9, 42, 110
2, 83279, Note_on_c, 9, 42, 0
2, 83280, Note_on_c, 9, 46, 110
2, 83519, Note_on_c, 9, 46, 0
2, 83520, Note_on_c, 9, 42, 110
2, 83999, Note_on_c, 9, 42, 0
2, 84000, Note_on_c, 9, 42, 110
2, 84239, Note_on_c, 9, 42, 0
2, 84240, Note_on_c, 9, 42, 110
2, 84479, Note_on_c, 9, 42, 0
2, 84480, Note_on_c, 9, 42, 110
2, 84959, Note_on_c, 9, 42, 0
2, 84960, Note_on_c, 9, 42, 110
2, 85439, Note_on_c, 9, 42, 0
2, 85440, Note_on_c, 9, 42, 110
2, 85919, Note_on_c, 9, 42, 0
2, 85920, Note_on_c, 9, 42, 110
2, 86399, Note_on_c, 9, 42, 0
2, 86400, Note_on_c, 9, 42, 110
2, 86879, Note_on_c, 9, 42, 0
2, 86880, Note_on_c, 9, 42, 110
2, 87359, Note_on_c, 9, 42, 0
2, 87360, Note_on_c, 9, 42, 110
2, 87599, Note_on_c, 9, 42, 0
2, 87600, Note_on_c, 9, 42, 110
2, 87719, Note_on_c, 9, 42, 0
2, 87720, Note_on_c, 9, 42, 110
2, 87839, Note_on_c, 9, 42, 0
2, 87840, Note_on_c, 9, 42, 110
2, 88079, Note_on_c, 9, 42, 0
2, 88080, Note_on_c, 9, 46, 110
2, 88080, Note_on_c, 9, 42, 110
2, 88319, Note_on_c, 9, 46, 0
2, 88319, Note_on_c, 9, 42, 0
2, 88320, Note_on_c, 9, 42, 110
2, 88799, Note_on_c, 9, 42, 0
2, 88800, Note_on_c, 9, 42, 110
2, 89039, Note_on_c, 9, 42, 0
2, 89040, Note_on_c, 9, 46, 110
2, 89279, Note_on_c, 9, 46, 0
2, 89280, Note_on_c, 9, 42, 110
2, 89759, Note_on_c, 9, 42, 0
2, 89760, Note_on_c, 9, 42, 110
2, 89999, Note_on_c, 9, 42, 0
2, 90000, Note_on_c, 9, 46, 110
2, 90239, Note_on_c, 9, 46, 0
2, 90240, Note_on_c, 9, 42, 110
2, 90719, Note_on_c, 9, 42, 0
2, 90720, Note_on_c, 9, 42, 110
2, 91199, Note_on_c, 9, 42, 0
2, 91200, Note_on_c, 9, 42, 110
2, 91679, Note_on_c, 9, 42, 0
2, 91680, Note_on_c, 9, 42, 110
2, 92159, Note_on_c, 9, 42, 0
2, 92160, Note_on_c, 9, 42, 110
2, 92639, Note_on_c, 9, 42, 0
2, 92640, Note_on_c, 9, 42, 110
2, 93119, Note_on_c, 9, 42, 0
2, 93120, Note_on_c, 9, 42, 110
2, 93599, Note_on_c, 9, 42, 0
2, 93600, Note_on_c, 9, 42, 110
2, 94079, Note_on_c, 9, 42, 0
2, 94080, Note_on_c, 9, 42, 110
2, 94559, Note_on_c, 9, 42, 0
2, 94560, Note_on_c, 9, 42, 110
2, 94799, Note_on_c, 9, 42, 0
2, 94800, Note_on_c, 9, 46, 110
2, 95039, Note_on_c, 9, 46, 0
2, 95040, Note_on_c, 9, 42, 110
2, 95519, Note_on_c, 9, 42, 0
2, 95520, Note_on_c, 9, 42, 110
2, 95759, Note_on_c, 9, 42, 0
2, 95760, Note_on_c, 9, 46, 110
2, 95999, Note_on_c, 9, 46, 0
2, 96000, Note_on_c, 9, 42, 110
2, 96000, Note_on_c, 9, 57, 110
2, 96479, Note_on_c, 9, 42, 0
2, 96479, Note_on_c, 9, 57, 0
2, 96480, Note_on_c, 9, 42, 110
2, 96719, Note_on_c, 9, 42, 0
2, 96720, Note_on_c, 9, 46, 110
2, 96959, Note_on_c, 9, 46, 0
2, 96960, Note_on_c, 9, 42, 110
2, 97439, Note_on_c, 9, 42, 0
2, 97440, Note_on_c, 9, 42, 110
2, 97679, Note_on_c, 9, 42, 0
2, 97680, Note_on_c, 9, 46, 110
2, 97919, Note_on_c, 9, 46, 0
2, 97920, Note_on_c, 9, 42, 110
2, 98399, Note_on_c, 9, 42, 0
2, 98400, Note_on_c, 9, 42, 110
2, 98639, Note_on_c, 9, 42, 0
2, 98640, Note_on_c, 9, 46, 110
2, 98879, Note_on_c, 9, 46, 0
2, 98880, Note_on_c, 9, 42, 110
2, 99359, Note_on_c, 9, 42, 0
2, 99360, Note_on_c, 9, 42, 110
2, 99599, Note_on_c, 9, 42, 0
2, 99600, Note_on_c, 9, 46, 110
2, 99839, Note_on_c, 9, 46, 0
2, 99840, Note_on_c, 9, 42, 110
2, 100319, Note_on_c, 9, 42, 0
2, 100320, Note_on_c, 9, 42, 110
2, 100559, Note_on_c, 9, 42, 0
2, 100560, Note_on_c, 9, 46, 110
2, 100799, Note_on_c, 9, 46, 0
2, 100800, Note_on_c, 9, 42, 110
2, 101279, Note_on_c, 9, 42, 0
2, 101280, Note_on_c, 9, 42, 110
2, 101519, Note_on_c, 9, 42, 0
2, 101520, Note_on_c, 9, 46, 110
2, 101759, Note_on_c, 9, 46, 0
2, 101760, Note_on_c, 9, 42, 110
2, 102239, Note_on_c, 9, 42, 0
2, 102240, Note_on_c, 9, 42, 110
2, 102479, Note_on_c, 9, 42, 0
2, 102480, Note_on_c, 9, 46, 110
2, 102719, Note_on_c, 9, 46, 0
2, 102720, Note_on_c, 9, 42, 110
2, 103199, Note_on_c, 9, 42, 0
2, 103200, Note_on_c, 9, 42, 110
2, 103439, Note_on_c, 9, 42, 0
2, 103440, Note_on_c, 9, 46, 110
2, 103679, Note_on_c, 9, 46, 0
2, 103680, Note_on_c, 9, 42, 110
2, 104159, Note_on_c, 9, 42, 0
2, 104160, Note_on_c, 9, 42, 110
2, 104399, Note_on_c, 9, 42, 0
2, 104400, Note_on_c, 9, 46, 110
2, 104639, Note_on_c, 9, 46, 0
2, 104640, Note_on_c, 9, 42, 110
2, 105119, Note_on_c, 9, 42, 0
2, 105120, Note_on_c, 9, 42, 110
2, 105359, Note_on_c, 9, 42, 0
2, 105360, Note_on_c, 9, 46, 110
2, 105599, Note_on_c, 9, 46, 0
2, 105600, Note_on_c, 9, 42, 110
2, 106079, Note_on_c, 9, 42, 0
2, 106080, Note_on_c, 9, 42, 110
2, 106319, Note_on_c, 9, 42, 0
2, 106320, Note_on_c, 9, 46, 110
2, 106559, Note_on_c, 9, 46, 0
2, 106560, Note_on_c, 9, 42, 110
2, 107039, Note_on_c, 9, 42, 0
2, 107040, Note_on_c, 9, 42, 110
2, 107279, Note_on_c, 9, 42, 0
2, 107280, Note_on_c, 9, 46, 110
2, 107519, Note_on_c, 9, 46, 0
2, 107520, Note_on_c, 9, 42, 110
2, 107999, Note_on_c, 9, 42, 0
2, 108000, Note_on_c, 9, 42, 110
2, 108239, Note_on_c, 9, 42, 0
2, 108240, Note_on_c, 9, 46, 110
2, 108479, Note_on_c, 9, 46, 0
2, 108480, Note_on_c, 9, 42, 110
2, 108959, Note_on_c, 9, 42, 0
2, 108960, Note_on_c, 9, 42, 110
2, 109199, Note_on_c, 9, 42, 0
2, 109200, Note_on_c, 9, 46, 110
2, 109439, Note_on_c, 9, 46, 0
2, 109440, Note_on_c, 9, 42, 110
2, 109919, Note_on_c, 9, 42, 0
2, 109920, Note_on_c, 9, 42, 110
2, 110159, Note_on_c, 9, 42, 0
2, 110160, Note_on_c, 9, 46, 110
2, 110399, Note_on_c, 9, 46, 0
2, 110400, Note_on_c, 9, 42, 110
2, 110879, Note_on_c, 9, 42, 0
2, 110880, Note_on_c, 9, 42, 110
2, 111119, Note_on_c, 9, 42, 0
2, 111120, Note_on_c, 9, 46, 110
2, 111359, Note_on_c, 9, 46, 0
2, 111360, Note_on_c, 9, 42, 110
2, 111360, Note_on_c, 9, 57, 110
2, 111839, Note_on_c, 9, 42, 0
2, 111839, Note_on_c, 9, 57, 0
2, 111840, Note_on_c, 9, 42, 110
2, 112319, Note_on_c, 9, 42, 0
2, 112320, Note_on_c, 9, 42, 110
2, 112799, Note_on_c, 9, 42, 0
2, 112800, Note_on_c, 9, 42, 110
2, 113039, Note_on_c, 9, 42, 0
2, 113040, Note_on_c, 9, 42, 110
2, 113159, Note_on_c, 9, 42, 0
2, 113160, Note_on_c, 9, 42, 110
2, 113279, Note_on_c, 9, 42, 0
2, 113280, Note_on_c, 9, 42, 110
2, 113280, Note_on_c, 9, 57, 110
2, 113759, Note_on_c, 9, 42, 0
2, 113759, Note_on_c, 9, 57, 0
2, 113760, Note_on_c, 9, 42, 110
2, 113999, Note_on_c, 9, 42, 0
2, 114000, Note_on_c, 9, 46, 110
2, 114239, Note_on_c, 9, 46, 0
2, 114240, Note_on_c, 9, 42, 110
2, 114719, Note_on_c, 9, 42, 0
2, 114720, Note_on_c, 9, 42, 110
2, 114959, Note_on_c, 9, 42, 0
2, 114960, Note_on_c, 9, 46, 110
2, 115199, Note_on_c, 9, 46, 0
2, 115200, Note_on_c, 9, 42, 110
2, 115200, Note_on_c, 9, 57, 110
2, 115679, Note_on_c, 9, 42, 0
2, 115679, Note_on_c, 9, 57, 0
2, 115680, Note_on_c, 9, 42, 110
2, 115919, Note_on_c, 9, 42, 0
2, 115920, Note_on_c, 9, 46, 110
2, 116159, Note_on_c, 9, 46, 0
2, 116160, Note_on_c, 9, 42, 110
2, 116639, Note_on_c, 9, 42, 0
2, 116640, Note_on_c, 9, 42, 110
2, 116879, Note_on_c, 9, 42, 0
2, 116880, Note_on_c, 9, 46, 110
2, 117119, Note_on_c, 9, 46, 0
2, 117120, Note_on_c, 9, 42, 110
2, 117599, Note_on_c, 9, 42, 0
2, 117600, Note_on_c, 9, 42, 110
2, 117839, Note_on_c, 9, 42, 0
2, 117840, Note_on_c, 9, 46, 110
2, 118079, Note_on_c, 9, 46, 0
2, 118080, Note_on_c, 9, 42, 110
2, 118559, Note_on_c, 9, 42, 0
2, 118560, Note_on_c, 9, 42, 110
2, 118799, Note_on_c, 9, 42, 0
2, 118800, Note_on_c, 9, 46, 110
2, 119039, Note_on_c, 9, 46, 0
2, 119040, Note_on_c, 9, 42, 110
2, 119519, Note_on_c, 9, 42, 0
2, 119520, Note_on_c, 9, 42, 110
2, 119759, Note_on_c, 9, 42, 0
2, 119760, Note_on_c, 9, 46, 110
2, 119999, Note_on_c, 9, 46, 0
2, 120000, Note_on_c, 9, 42, 110
2, 120479, Note_on_c, 9, 42, 0
2, 120480, Note_on_c, 9, 42, 110
2, 120719, Note_on_c, 9, 42, 0
2, 120720, Note_on_c, 9, 46, 110
2, 120959, Note_on_c, 9, 46, 0
2, 120960, Note_on_c, 9, 42, 110
2, 121439, Note_on_c, 9, 42, 0
2, 121440, Note_on_c, 9, 42, 110
2, 121679, Note_on_c, 9, 42, 0
2, 121680, Note_on_c, 9, 46, 110
2, 121919, Note_on_c, 9, 46, 0
2, 121920, Note_on_c, 9, 42, 110
2, 122399, Note_on_c, 9, 42, 0
2, 122400, Note_on_c, 9, 42, 110
2, 122639, Note_on_c, 9, 42, 0
2, 122640, Note_on_c, 9, 46, 110
2, 122879, Note_on_c, 9, 46, 0
2, 122880, Note_on_c, 9, 42, 110
2, 123359, Note_on_c, 9, 42, 0
2, 123360, Note_on_c, 9, 42, 110
2, 123599, Note_on_c, 9, 42, 0
2, 123600, Note_on_c, 9, 46, 110
2, 123839, Note_on_c, 9, 46, 0
2, 123840, Note_on_c, 9, 42, 110
2, 124319, Note_on_c, 9, 42, 0
2, 124320, Note_on_c, 9, 42, 110
2, 124559, Note_on_c, 9, 42, 0
2, 124560, Note_on_c, 9, 46, 110
2, 124560, Note_on_c, 9, 57, 110
2, 124799, Note_on_c, 9, 46, 0
2, 124799, Note_on_c, 9, 57, 0
2, 124800, Note_on_c, 9, 42, 110
2, 125279, Note_on_c, 9, 42, 0
2, 125280, Note_on_c, 9, 42, 110
2, 125519, Note_on_c, 9, 42, 0
2, 125520, Note_on_c, 9, 46, 110
2, 125759, Note_on_c, 9, 46, 0
2, 125760, Note_on_c, 9, 42, 110
2, 126239, Note_on_c, 9, 42, 0
2, 126240, Note_on_c, 9, 42, 110
2, 126479, Note_on_c, 9, 42, 0
2, 126480, Note_on_c, 9, 46, 110
2, 126719, Note_on_c, 9, 46, 0
2, 126720, Note_on_c, 9, 42, 110
2, 126720, Note_on_c, 9, 57, 110
2, 127199, Note_on_c, 9, 42, 0
2, 127199, Note_on_c, 9, 57, 0
2, 127200, Note_on_c, 9, 42, 110
2, 127439, Note_on_c, 9, 42, 0
2, 127440, Note_on_c, 9, 46, 110
2, 127679, Note_on_c, 9, 46, 0
2, 127680, Note_on_c, 9, 42, 110
2, 128159, Note_on_c, 9, 42, 0
2, 128160, Note_on_c, 9, 42, 110
2, 128399, Note_on_c, 9, 42, 0
2, 128400, Note_on_c, 9, 46, 110
2, 128639, Note_on_c, 9, 46, 0
2, 128640, Note_on_c, 9, 42, 110
2, 129119, Note_on_c, 9, 42, 0
2, 129120, Note_on_c, 9, 42, 110
2, 129359, Note_on_c, 9, 42, 0
2, 129360, Note_on_c, 9, 46, 110
2, 129599, Note_on_c, 9, 46, 0
2, 129600, Note_on_c, 9, 42, 110
2, 130079, Note_on_c, 9, 42, 0
2, 130080, Note_on_c, 9, 42, 110
2, 130319, Note_on_c, 9, 42, 0
2, 130320, Note_on_c, 9, 46, 110
2, 130559, Note_on_c, 9, 46, 0
2, 130560, Note_on_c, 9, 42, 110
2, 131039, Note_on_c, 9, 42, 0
2, 131040, Note_on_c, 9, 42, 110
2, 131279, Note_on_c, 9, 42, 0
2, 131280, Note_on_c, 9, 46, 110
2, 131519, Note_on_c, 9, 46, 0
2, 131520, Note_on_c, 9, 42, 110
2, 131999, Note_on_c, 9, 42, 0
2, 132000, Note_on_c, 9, 42, 110
2, 132239, Note_on_c, 9, 42, 0
2, 132240, Note_on_c, 9, 46, 110
2, 132479, Note_on_c, 9, 46, 0
2, 132480, Note_on_c, 9, 42, 110
2, 132959, Note_on_c, 9, 42, 0
2, 132960, Note_on_c, 9, 42, 110
2, 133199, Note_on_c, 9, 42, 0
2, 133200, Note_on_c, 9, 46, 110
2, 133439, Note_on_c, 9, 46, 0
2, 133440, Note_on_c, 9, 42, 110
2, 133919, Note_on_c, 9, 42, 0
2, 133920, Note_on_c, 9, 42, 110
2, 134159, Note_on_c, 9, 42, 0
2, 134160, Note_on_c, 9, 46, 110
2, 134399, Note_on_c, 9, 46, 0
2, 134400, Note_on_c, 9, 42, 110
2, 134879, Note_on_c, 9, 42, 0
2, 134880, Note_on_c, 9, 42, 110
2, 135119, Note_on_c, 9, 42, 0
2, 135120, Note_on_c, 9, 46, 110
2, 135359, Note_on_c, 9, 46, 0
2, 135360, Note_on_c, 9, 42, 110
2, 135839, Note_on_c, 9, 42, 0
2, 135840, Note_on_c, 9, 42, 110
2, 136079, Note_on_c, 9, 42, 0
2, 136080, Note_on_c, 9, 46, 110
2, 136319, Note_on_c, 9, 46, 0
2, 136320, Note_on_c, 9, 42, 110
2, 136799, Note_on_c, 9, 42, 0
2, 136800, Note_on_c, 9, 42, 110
2, 137039, Note_on_c, 9, 42, 0
2, 137040, Note_on_c, 9, 46, 110
2, 137279, Note_on_c, 9, 46, 0
2, 137280, Note_on_c, 9, 42, 110
2, 137759, Note_on_c, 9, 42, 0
2, 137760, Note_on_c, 9, 42, 110
2, 137999, Note_on_c, 9, 42, 0
2, 138000, Note_on_c, 9, 46, 110
2, 138239, Note_on_c, 9, 46, 0
2, 138240, Note_on_c, 9, 42, 110
2, 138719, Note_on_c, 9, 42, 0
2, 138720, Note_on_c, 9, 42, 110
2, 138959, Note_on_c, 9, 42, 0
2, 138960, Note_on_c, 9, 46, 110
2, 139199, Note_on_c, 9, 46, 0
2, 139200, Note_on_c, 9, 42, 110
2, 139679, Note_on_c, 9, 42, 0
2, 139680, Note_on_c, 9, 42, 110
2, 139919, Note_on_c, 9, 42, 0
2, 139920, Note_on_c, 9, 46, 110
2, 140159, Note_on_c, 9, 46, 0
2, 140160, Note_on_c, 9, 42, 110
2, 140639, Note_on_c, 9, 42, 0
2, 140640, Note_on_c, 9, 57, 110
2, 141119, Note_on_c, 9, 57, 0
2, 142080, Note_on_c, 9, 42, 110
2, 142080, Note_on_c, 9, 57, 110
2, 142559, Note_on_c, 9, 42, 0
2, 142559, Note_on_c, 9, 57, 0
2, 142560, Note_on_c, 9, 42, 110
2, 142799, Note_on_c, 9, 42, 0
2, 142800, Note_on_c, 9, 46, 110
2, 143039, Note_on_c, 9, 46, 0
2, 143040, Note_on_c, 9, 42, 110
2, 143519, Note_on_c, 9, 42, 0
2, 143520, Note_on_c, 9, 42, 110
2, 143759, Note_on_c, 9, 42, 0
2, 143760, Note_on_c, 9, 42, 110
2, 143999, Note_on_c, 9, 42, 0
2, 144000, Note_on_c, 9, 42, 110
2, 144479, Note_on_c, 9, 42, 0
2, 144480, Note_on_c, 9, 42, 110
2, 144719, Note_on_c, 9, 42, 0
2, 144720, Note_on_c, 9, 46, 110
2, 144959, Note_on_c, 9, 46, 0
2, 144960, Note_on_c, 9, 42, 110
2, 145439, Note_on_c, 9, 42, 0
2, 145440, Note_on_c, 9, 42, 110
2, 145679, Note_on_c, 9, 42, 0
2, 145680, Note_on_c, 9, 42, 110
2, 145919, Note_on_c, 9, 42, 0
2, 145920, Note_on_c, 9, 42, 110
2, 146399, Note_on_c, 9, 42, 0
2, 146400, Note_on_c, 9, 42, 110
2, 146879, Note_on_c, 9, 42, 0
2, 146880, Note_on_c, 9, 42, 110
2, 147359, Note_on_c, 9, 42, 0
2, 147360, Note_on_c, 9, 42, 110
2, 147839, Note_on_c, 9, 42, 0
2, 147840, Note_on_c, 9, 42, 110
2, 148319, Note_on_c, 9, 42, 0
2, 148320, Note_on_c, 9, 42, 110
2, 148799, Note_on_c, 9, 42, 0
2, 148800, Note_on_c, 9, 42, 110
2, 149039, Note_on_c, 9, 42, 0
2, 149040, Note_on_c, 9, 42, 110
2, 149159, Note_on_c, 9, 42, 0
2, 149160, Note_on_c, 9, 42, 110
2, 149279, Note_on_c, 9, 42, 0
2, 149280, Note_on_c, 9, 42, 110
2, 149519, Note_on_c, 9, 42, 0
2, 149520, Note_on_c, 9, 46, 110
2, 149520, Note_on_c, 9, 42, 110
2, 149759, Note_on_c, 9, 46, 0
2, 149759, Note_on_c, 9, 42, 0
2, 149760, Note_on_c, 9, 42, 110
2, 150239, Note_on_c, 9, 42, 0
2, 150240, Note_on_c, 9, 42, 110
2, 150479, Note_on_c, 9, 42, 0
2, 150480, Note_on_c, 9, 46, 110
2, 150719, Note_on_c, 9, 46, 0
2, 150720, Note_on_c, 9, 42, 110
2, 151199, Note_on_c, 9, 42, 0
2, 151200, Note_on_c, 9, 42, 110
2, 151439, Note_on_c, 9, 42, 0
2, 151440, Note_on_c, 9, 46, 110
2, 151679, Note_on_c, 9, 46, 0
2, 151680, Note_on_c, 9, 42, 110
2, 152159, Note_on_c, 9, 42, 0
2, 152160, Note_on_c, 9, 42, 110
2, 152639, Note_on_c, 9, 42, 0
2, 152640, Note_on_c, 9, 42, 110
2, 153119, Note_on_c, 9, 42, 0
2, 153120, Note_on_c, 9, 42, 110
2, 153599, Note_on_c, 9, 42, 0
2, 153600, Note_on_c, 9, 42, 110
2, 154079, Note_on_c, 9, 42, 0
2, 154080, Note_on_c, 9, 42, 110
2, 154559, Note_on_c, 9, 42, 0
2, 154560, Note_on_c, 9, 42, 110
2, 155039, Note_on_c, 9, 42, 0
2, 155040, Note_on_c, 9, 42, 110
2, 155519, Note_on_c, 9, 42, 0
2, 155520, Note_on_c, 9, 42, 110
2, 155999, Note_on_c, 9, 42, 0
2, 156000, Note_on_c, 9, 42, 110
2, 156000, Note_on_c, 9, 57, 110
2, 156239, Note_on_c, 9, 42, 0
2, 156239, Note_on_c, 9, 57, 0
2, 156240, Note_on_c, 9, 46, 110
2, 156479, Note_on_c, 9, 46, 0
2, 156480, Note_on_c, 9, 42, 110
2, 156959, Note_on_c, 9, 42, 0
2, 156960, Note_on_c, 9, 42, 110
2, 157199, Note_on_c, 9, 42, 0
2, 157200, Note_on_c, 9, 46, 110
2, 157439, Note_on_c, 9, 46, 0
2, 157440, Note_on_c, 9, 42, 110
2, 157440, Note_on_c, 9, 57, 110
2, 157919, Note_on_c, 9, 42, 0
2, 157919, Note_on_c, 9, 57, 0
2, 157920, Note_on_c, 9, 42, 110
2, 158159, Note_on_c, 9, 42, 0
2, 158160, Note_on_c, 9, 46, 110
2, 158399, Note_on_c, 9, 46, 0
2, 158400, Note_on_c, 9, 42, 110
2, 158879, Note_on_c, 9, 42, 0
2, 158880, Note_on_c, 9, 42, 110
2, 159119, Note_on_c, 9, 42, 0
2, 159120, Note_on_c, 9, 46, 110
2, 159120, Note_on_c, 9, 57, 110
2, 159359, Note_on_c, 9, 46, 0
2, 159359, Note_on_c, 9, 57, 0
2, 159360, End_track
0, 0, End_of_file
