0, 0, Header, 1, 3, 480
1, 0, Start_track
1, 0, Time_signature, 4, 2, 24, 8
1, 0, Key_signature, -1, "major"
1, 0, Tempo, 434783
1, 0, Control_c, 9, 121, 0
1, 0, Program_c, 9, 0
1, 0, Control_c, 9, 7, 100
1, 0, Control_c, 9, 10, 64
1, 0, Control_c, 9, 91, 0
1, 0, Control_c, 9, 93, 0
1, 0, MIDI_port, 0
1, 1680, Note_on_c, 9, 35, 68
1, 1919, Note_on_c, 9, 35, 0
1, 1920, Note_on_c, 9, 35, 68
1, 2279, Note_on_c, 9, 35, 0
1, 2280, Note_on_c, 9, 35, 84
1, 2399, Note_on_c, 9, 35, 0
1, 2760, Note_on_c, 9, 35, 84
1, 2879, Note_on_c, 9, 35, 0
1, 2880, Note_on_c, 9, 35, 68
1, 3239, Note_on_c, 9, 35, 0
1, 3240, Note_on_c, 9, 35, 84
1, 3359, Note_on_c, 9, 35, 0
1, 3600, Note_on_c, 9, 35, 84
1, 3719, Note_on_c, 9, 35, 0
1, 3720, Note_on_c, 9, 35, 84
1, 3839, Note_on_c, 9, 35, 0
1, 3840, Note_on_c, 9, 35, 68
1, 4199, Note_on_c, 9, 35, 0
1, 4200, Note_on_c, 9, 35, 84
1, 4319, Note_on_c, 9, 35, 0
1, 4680, Note_on_c, 9, 35, 84
1, 4799, Note_on_c, 9, 35, 0
1, 4800, Note_on_c, 9, 35, 68
1, 5159, Note_on_c, 9, 35, 0
1, 5160, Note_on_c, 9, 35, 84
1, 5279, Note_on_c, 9, 35, 0
1, 5520, Note_on_c, 9, 35, 84
1, 5639, Note_on_c, 9, 35, 0
1, 5640, Note_on_c, 9, 35, 84
1, 5759, Note_on_c, 9, 35, 0
1, 5760, Note_on_c, 9, 35, 68
1, 6119, Note_on_c, 9, 35, 0
1, 6120, Note_on_c, 9, 35, 84
1, 6239, Note_on_c, 9, 35, 0
1, 6600, Note_on_c, 9, 35, 84
1, 6719, Note_on_c, 9, 35, 0
1, 6720, Note_on_c, 9, 35, 68
1, 7079, Note_on_c, 9, 35, 0
1, 7080, Note_on_c, 9, 35, 84
1, 7199, Note_on_c, 9, 35, 0
1, 7440, Note_on_c, 9, 35, 84
1, 7559, Note_on_c, 9, 35, 0
1, 7560, Note_on_c, 9, 35, 84
1, 7679, Note_on_c, 9, 35, 0
1, 7680, Note_on_c, 9, 35, 68
1, 8039, Note_on_c, 9, 35, 0
1, 8040, Note_on_c, 9, 35, 84
1, 8159, Note_on_c, 9, 35, 0
1, 8520, Note_on_c, 9, 35, 84
1, 8639, Note_on_c, 9, 35, 0
1, 8640, Note_on_c, 9, 35, 68
1, 8999, Note_on_c, 9, 35, 0
1, 9000, Note_on_c, 9, 35, 84
1, 9119, Note_on_c, 9, 35, 0
1, 9360, Note_on_c, 9, 35, 84
1, 9479, Note_on_c, 9, 35, 0
1, 9480, Note_on_c, 9, 35, 84
1, 9599, Note_on_c, 9, 35, 0
1, 9600, Note_on_c, 9, 35, 68
1, 9959, Note_on_c, 9, 35, 0
1, 9960, Note_on_c, 9, 35, 84
1, 10079, Note_on_c, 9, 35, 0
1, 10440, Note_on_c, 9, 35, 84
1, 10559, Note_on_c, 9, 35, 0
1, 10560, Note_on_c, 9, 35, 68
1, 10919, Note_on_c, 9, 35, 0
1, 10920, Note_on_c, 9, 35, 84
1, 11039, Note_on_c, 9, 35, 0
1, 11280, Note_on_c, 9, 35, 84
1, 11399, Note_on_c, 9, 35, 0
1, 11400, Note_on_c, 9, 35, 84
1, 11519, Note_on_c, 9, 35, 0
1, 11520, Note_on_c, 9, 35, 68
1, 11879, Note_on_c, 9, 35, 0
1, 11880, Note_on_c, 9, 35, 84
1, 11999, Note_on_c, 9, 35, 0
1, 12360, Note_on_c, 9, 35, 84
1, 12479, Note_on_c, 9, 35, 0
1, 12480, Note_on_c, 9, 35, 68
1, 12839, Note_on_c, 9, 35, 0
1, 12840, Note_on_c, 9, 35, 84
1, 12959, Note_on_c, 9, 35, 0
1, 13200, Note_on_c, 9, 35, 84
1, 13319, Note_on_c, 9, 35, 0
1, 13320, Note_on_c, 9, 35, 84
1, 13439, Note_on_c, 9, 35, 0
1, 13440, Note_on_c, 9, 35, 68
1, 13799, Note_on_c, 9, 35, 0
1, 13800, Note_on_c, 9, 35, 84
1, 13919, Note_on_c, 9, 35, 0
1, 14280, Note_on_c, 9, 35, 84
1, 14399, Note_on_c, 9, 35, 0
1, 14400, Note_on_c, 9, 35, 68
1, 14759, Note_on_c, 9, 35, 0
1, 14760, Note_on_c, 9, 35, 84
1, 14879, Note_on_c, 9, 35, 0
1, 15120, Note_on_c, 9, 35, 84
1, 15239, Note_on_c, 9, 35, 0
1, 15240, Note_on_c, 9, 35, 84
1, 15359, Note_on_c, 9, 35, 0
1, 15360, Note_on_c, 9, 35, 68
1, 15719, Note_on_c, 9, 35, 0
1, 15720, Note_on_c, 9, 35, 84
1, 15839, Note_on_c, 9, 35, 0
1, 16200, Note_on_c, 9, 35, 84
1, 16319, Note_on_c, 9, 35, 0
1, 16320, Note_on_c, 9, 35, 68
1, 16679, Note_on_c, 9, 35, 0
1, 16680, Note_on_c, 9, 35, 84
1, 16799, Note_on_c, 9, 35, 0
1, 17040, Note_on_c, 9, 35, 84
1, 17159, Note_on_c, 9, 35, 0
1, 17160, Note_on_c, 9, 35, 84
1, 17279, Note_on_c, 9, 35, 0
1, 17280, Note_on_c, 9, 35, 68
1, 17759, Note_on_c, 9, 35, 0
1, 18960, Note_on_c, 9, 35, 68
1, 19199, Note_on_c, 9, 35, 0
1, 19200, Note_on_c, 9, 35, 68
1, 19559, Note_on_c, 9, 35, 0
1, 19560, Note_on_c, 9, 35, 84
1, 19679, Note_on_c, 9, 35, 0
1, 20520, Note_on_c, 9, 35, 84
1, 20639, Note_on_c, 9, 35, 0
1, 21000, Note_on_c, 9, 35, 84
1, 21119, Note_on_c, 9, 35, 0
1, 21120, Note_on_c, 9, 35, 68
1, 21479, Note_on_c, 9, 35, 0
1, 21480, Note_on_c, 9, 35, 84
1, 21599, Note_on_c, 9, 35, 0
1, 22440, Note_on_c, 9, 35, 84
1, 22559, Note_on_c, 9, 35, 0
1, 22920, Note_on_c, 9, 35, 84
1, 23039, Note_on_c, 9, 35, 0
1, 23040, Note_on_c, 9, 35, 68
1, 23399, Note_on_c, 9, 35, 0
1, 23400, Note_on_c, 9, 35, 84
1, 23519, Note_on_c, 9, 35, 0
1, 24360, Note_on_c, 9, 35, 84
1, 24479, Note_on_c, 9, 35, 0
1, 24840, Note_on_c, 9, 35, 84
1, 24959, Note_on_c, 9, 35, 0
1, 24960, Note_on_c, 9, 35, 68
1, 25319, Note_on_c, 9, 35, 0
1, 25320, Note_on_c, 9, 35, 84
1, 25439, Note_on_c, 9, 35, 0
1, 26280, Note_on_c, 9, 35, 84
1, 26399, Note_on_c, 9, 35, 0
1, 26760, Note_on_c, 9, 35, 84
1, 26879, Note_on_c, 9, 35, 0
1, 26880, Note_on_c, 9, 35, 68
1, 27239, Note_on_c, 9, 35, 0
1, 27240, Note_on_c, 9, 35, 84
1, 27359, Note_on_c, 9, 35, 0
1, 28200, Note_on_c, 9, 35, 84
1, 28319, Note_on_c, 9, 35, 0
1, 28680, Note_on_c, 9, 35, 84
1, 28799, Note_on_c, 9, 35, 0
1, 28800, Note_on_c, 9, 35, 68
1, 29159, Note_on_c, 9, 35, 0
1, 29160, Note_on_c, 9, 35, 84
1, 29279, Note_on_c, 9, 35, 0
1, 30120, Note_on_c, 9, 35, 84
1, 30239, Note_on_c, 9, 35, 0
1, 30600, Note_on_c, 9, 35, 84
1, 30719, Note_on_c, 9, 35, 0
1, 30720, Note_on_c, 9, 35, 68
1, 31079, Note_on_c, 9, 35, 0
1, 31080, Note_on_c, 9, 35, 84
1, 31199, Note_on_c, 9, 35, 0
1, 32040, Note_on_c, 9, 35, 84
1, 32159, Note_on_c, 9, 35, 0
1, 32520, Note_on_c, 9, 35, 84
1, 32639, Note_on_c, 9, 35, 0
1, 34560, Note_on_c, 9, 35, 68
1, 34919, Note_on_c, 9, 35, 0
1, 34920, Note_on_c, 9, 35, 84
1, 35039, Note_on_c, 9, 35, 0
1, 35400, Note_on_c, 9, 35, 84
1, 35519, Note_on_c, 9, 35, 0
1, 35520, Note_on_c, 9, 35, 68
1, 35999, Note_on_c, 9, 35, 0
1, 36480, Note_on_c, 9, 35, 68
1, 36839, Note_on_c, 9, 35, 0
1, 36840, Note_on_c, 9, 35, 84
1, 36959, Note_on_c, 9, 35, 0
1, 37320, Note_on_c, 9, 35, 84
1, 37439, Note_on_c, 9, 35, 0
1, 37440, Note_on_c, 9, 35, 68
1, 37919, Note_on_c, 9, 35, 0
1, 38400, Note_on_c, 9, 35, 68
1, 38759, Note_on_c, 9, 35, 0
1, 38760, Note_on_c, 9, 35, 84
1, 38879, Note_on_c, 9, 35, 0
1, 39240, Note_on_c, 9, 35, 84
1, 39359, Note_on_c, 9, 35, 0
1, 39360, Note_on_c, 9, 35, 68
1, 39839, Note_on_c, 9, 35, 0
1, 40320, Note_on_c, 9, 35, 68
1, 40679, Note_on_c, 9, 35, 0
1, 40680, Note_on_c, 9, 35, 84
1, 40799, Note_on_c, 9, 35, 0
1, 41160, Note_on_c, 9, 35, 84
1, 41279, Note_on_c, 9, 35, 0
1, 41280, Note_on_c, 9, 35, 68
1, 41759, Note_on_c, 9, 35, 0
1, 42240, Note_on_c, 9, 35, 68
1, 42599, Note_on_c, 9, 35, 0
1, 42600, Note_on_c, 9, 35, 84
1, 42719, Note_on_c, 9, 35, 0
1, 43080, Note_on_c, 9, 35, 84
1, 43199, Note_on_c, 9, 35, 0
1, 43200, Note_on_c, 9, 35, 68
1, 43679, Note_on_c, 9, 35, 0
1, 44160, Note_on_c, 9, 35, 68
1, 44639, Note_on_c, 9, 35, 0
1, 45120, Note_on_c, 9, 35, 68
1, 45599, Note_on_c, 9, 35, 0
1, 46080, Note_on_c, 9, 35, 68
1, 46439, Note_on_c, 9, 35, 0
1, 46440, Note_on_c, 9, 35, 84
1, 46559, Note_on_c, 9, 35, 0
1, 46920, Note_on_c, 9, 35, 84
1, 47039, Note_on_c, 9, 35, 0
1, 47040, Note_on_c, 9, 35, 68
1, 47519, Note_on_c, 9, 35, 0
1, 48000, Note_on_c, 9, 35, 68
1, 48359, Note_on_c, 9, 35, 0
1, 48360, Note_on_c, 9, 35, 84
1, 48479, Note_on_c, 9, 35, 0
1, 48840, Note_on_c, 9, 35, 84
1, 48959, Note_on_c, 9, 35, 0
1, 48960, Note_on_c, 9, 35, 68
1, 49439, Note_on_c, 9, 35, 0
1, 49920, Note_on_c, 9, 35, 67
1, 50399, Note_on_c, 9, 35, 0
1, 51240, Note_on_c, 9, 35, 67
1, 51359, Note_on_c, 9, 35, 0
1, 51720, Note_on_c, 9, 35, 67
1, 51839, Note_on_c, 9, 35, 0
1, 51840, Note_on_c, 9, 35, 67
1, 52319, Note_on_c, 9, 35, 0
1, 53160, Note_on_c, 9, 35, 67
1, 53279, Note_on_c, 9, 35, 0
1, 53520, Note_on_c, 9, 35, 68
1, 53759, Note_on_c, 9, 35, 0
1, 53760, Note_on_c, 9, 35, 68
1, 54119, Note_on_c, 9, 35, 0
1, 54120, Note_on_c, 9, 35, 84
1, 54239, Note_on_c, 9, 35, 0
1, 55080, Note_on_c, 9, 35, 84
1, 55199, Note_on_c, 9, 35, 0
1, 55560, Note_on_c, 9, 35, 84
1, 55679, Note_on_c, 9, 35, 0
1, 55680, Note_on_c, 9, 35, 68
1, 56039, Note_on_c, 9, 35, 0
1, 56040, Note_on_c, 9, 35, 84
1, 56159, Note_on_c, 9, 35, 0
1, 57000, Note_on_c, 9, 35, 84
1, 57119, Note_on_c, 9, 35, 0
1, 57480, Note_on_c, 9, 35, 84
1, 57599, Note_on_c, 9, 35, 0
1, 57600, Note_on_c, 9, 35, 68
1, 57959, Note_on_c, 9, 35, 0
1, 57960, Note_on_c, 9, 35, 84
1, 58079, Note_on_c, 9, 35, 0
1, 58920, Note_on_c, 9, 35, 84
1, 59039, Note_on_c, 9, 35, 0
1, 59400, Note_on_c, 9, 35, 84
1, 59519, Note_on_c, 9, 35, 0
1, 59520, Note_on_c, 9, 35, 68
1, 59879, Note_on_c, 9, 35, 0
1, 59880, Note_on_c, 9, 35, 84
1, 59999, Note_on_c, 9, 35, 0
1, 60840, Note_on_c, 9, 35, 84
1, 60959, Note_on_c, 9, 35, 0
1, 61320, Note_on_c, 9, 35, 84
1, 61439, Note_on_c, 9, 35, 0
1, 61440, Note_on_c, 9, 35, 68
1, 61799, Note_on_c, 9, 35, 0
1, 61800, Note_on_c, 9, 35, 84
1, 61919, Note_on_c, 9, 35, 0
1, 62760, Note_on_c, 9, 35, 84
1, 62879, Note_on_c, 9, 35, 0
1, 63240, Note_on_c, 9, 35, 84
1, 63359, Note_on_c, 9, 35, 0
1, 63360, Note_on_c, 9, 35, 68
1, 63719, Note_on_c, 9, 35, 0
1, 63720, Note_on_c, 9, 35, 84
1, 63839, Note_on_c, 9, 35, 0
1, 64680, Note_on_c, 9, 35, 84
1, 64799, Note_on_c, 9, 35, 0
1, 65160, Note_on_c, 9, 35, 84
1, 65279, Note_on_c, 9, 35, 0
1, 65280, Note_on_c, 9, 35, 68
1, 65639, Note_on_c, 9, 35, 0
1, 65640, Note_on_c, 9, 35, 84
1, 65759, Note_on_c, 9, 35, 0
1, 66600, Note_on_c, 9, 35, 84
1, 66719, Note_on_c, 9, 35, 0
1, 67080, Note_on_c, 9, 35, 84
1, 67199, Note_on_c, 9, 35, 0
1, 69120, Note_on_c, 9, 35, 68
1, 69479, Note_on_c, 9, 35, 0
1, 69480, Note_on_c, 9, 35, 84
1, 69599, Note_on_c, 9, 35, 0
1, 69960, Note_on_c, 9, 35, 84
1, 70079, Note_on_c, 9, 35, 0
1, 70080, Note_on_c, 9, 35, 68
1, 70559, Note_on_c, 9, 35, 0
1, 71040, Note_on_c, 9, 35, 68
1, 71399, Note_on_c, 9, 35, 0
1, 71400, Note_on_c, 9, 35, 84
1, 71519, Note_on_c, 9, 35, 0
1, 71880, Note_on_c, 9, 35, 84
1, 71999, Note_on_c, 9, 35, 0
1, 72000, Note_on_c, 9, 35, 68
1, 72479, Note_on_c, 9, 35, 0
1, 72960, Note_on_c, 9, 35, 68
1, 73319, Note_on_c, 9, 35, 0
1, 73320, Note_on_c, 9, 35, 84
1, 73439, Note_on_c, 9, 35, 0
1, 73800, Note_on_c, 9, 35, 84
1, 73919, Note_on_c, 9, 35, 0
1, 73920, Note_on_c, 9, 35, 68
1, 74399, Note_on_c, 9, 35, 0
1, 74880, Note_on_c, 9, 35, 68
1, 75239, Note_on_c, 9, 35, 0
1, 75240, Note_on_c, 9, 35, 84
1, 75359, Note_on_c, 9, 35, 0
1, 75720, Note_on_c, 9, 35, 84
1, 75839, Note_on_c, 9, 35, 0
1, 75840, Note_on_c, 9, 35, 68
1, 76319, Note_on_c, 9, 35, 0
1, 76800, Note_on_c, 9, 35, 68
1, 77159, Note_on_c, 9, 35, 0
1, 77160, Note_on_c, 9, 35, 84
1, 77279, Note_on_c, 9, 35, 0
1, 77640, Note_on_c, 9, 35, 84
1, 77759, Note_on_c, 9, 35, 0
1, 77760, Note_on_c, 9, 35, 68
1, 78239, Note_on_c, 9, 35, 0
1, 78720, Note_on_c, 9, 35, 68
1, 79199, Note_on_c, 9, 35, 0
1, 79680, Note_on_c, 9, 35, 68
1, 80159, Note_on_c, 9, 35, 0
1, 80640, Note_on_c, 9, 35, 68
1, 80999, Note_on_c, 9, 35, 0
1, 81000, Note_on_c, 9, 35, 84
1, 81119, Note_on_c, 9, 35, 0
1, 81480, Note_on_c, 9, 35, 84
1, 81599, Note_on_c, 9, 35, 0
1, 81600, Note_on_c, 9, 35, 68
1, 82079, Note_on_c, 9, 35, 0
1, 82560, Note_on_c, 9, 35, 68
1, 82919, Note_on_c, 9, 35, 0
1, 82920, Note_on_c, 9, 35, 84
1, 83039, Note_on_c, 9, 35, 0
1, 83400, Note_on_c, 9, 35, 84
1, 83519, Note_on_c, 9, 35, 0
1, 83520, Note_on_c, 9, 35, 68
1, 83999, Note_on_c, 9, 35, 0
1, 84480, Note_on_c, 9, 35, 67
1, 84959, Note_on_c, 9, 35, 0
1, 85800, Note_on_c, 9, 35, 67
1, 85919, Note_on_c, 9, 35, 0
1, 86280, Note_on_c, 9, 35, 67
1, 86399, Note_on_c, 9, 35, 0
1, 88320, Note_on_c, 9, 35, 68
1, 88679, Note_on_c, 9, 35, 0
1, 88680, Note_on_c, 9, 35, 84
1, 88799, Note_on_c, 9, 35, 0
1, 89280, Note_on_c, 9, 35, 68
1, 89639, Note_on_c, 9, 35, 0
1, 89640, Note_on_c, 9, 35, 84
1, 89759, Note_on_c, 9, 35, 0
1, 90120, Note_on_c, 9, 35, 67
1, 90239, Note_on_c, 9, 35, 0
1, 90240, Note_on_c, 9, 35, 68
1, 90599, Note_on_c, 9, 35, 0
1, 90600, Note_on_c, 9, 35, 84
1, 90719, Note_on_c, 9, 35, 0
1, 91080, Note_on_c, 9, 35, 67
1, 91199, Note_on_c, 9, 35, 0
1, 91200, Note_on_c, 9, 35, 68
1, 91559, Note_on_c, 9, 35, 0
1, 91560, Note_on_c, 9, 35, 84
1, 91679, Note_on_c, 9, 35, 0
1, 92160, Note_on_c, 9, 35, 68
1, 92519, Note_on_c, 9, 35, 0
1, 92520, Note_on_c, 9, 35, 84
1, 92639, Note_on_c, 9, 35, 0
1, 93120, Note_on_c, 9, 35, 68
1, 93479, Note_on_c, 9, 35, 0
1, 93480, Note_on_c, 9, 35, 84
1, 93599, Note_on_c, 9, 35, 0
1, 93960, Note_on_c, 9, 35, 67
1, 94079, Note_on_c, 9, 35, 0
1, 94080, Note_on_c, 9, 35, 68
1, 94439, Note_on_c, 9, 35, 0
1, 94440, Note_on_c, 9, 35, 84
1, 94559, Note_on_c, 9, 35, 0
1, 94920, Note_on_c, 9, 35, 67
1, 95039, Note_on_c, 9, 35, 0
1, 95040, Note_on_c, 9, 35, 68
1, 95399, Note_on_c, 9, 35, 0
1, 95400, Note_on_c, 9, 35, 84
1, 95519, Note_on_c, 9, 35, 0
1, 96000, Note_on_c, 9, 35, 68
1, 96359, Note_on_c, 9, 35, 0
1, 96360, Note_on_c, 9, 35, 84
1, 96479, Note_on_c, 9, 35, 0
1, 96960, Note_on_c, 9, 35, 68
1, 97319, Note_on_c, 9, 35, 0
1, 97320, Note_on_c, 9, 35, 84
1, 97439, Note_on_c, 9, 35, 0
1, 97800, Note_on_c, 9, 35, 67
1, 97919, Note_on_c, 9, 35, 0
1, 97920, Note_on_c, 9, 35, 68
1, 98279, Note_on_c, 9, 35, 0
1, 98280, Note_on_c, 9, 35, 84
1, 98399, Note_on_c, 9, 35, 0
1, 98760, Note_on_c, 9, 35, 67
1, 98879, Note_on_c, 9, 35, 0
1, 98880, Note_on_c, 9, 35, 68
1, 99239, Note_on_c, 9, 35, 0
1, 99240, Note_on_c, 9, 35, 84
1, 99359, Note_on_c, 9, 35, 0
1, 99840, Note_on_c, 9, 35, 68
1, 100199, Note_on_c, 9, 35, 0
1, 100200, Note_on_c, 9, 35, 84
1, 100319, Note_on_c, 9, 35, 0
1, 100800, Note_on_c, 9, 35, 68
1, 101159, Note_on_c, 9, 35, 0
1, 101160, Note_on_c, 9, 35, 84
1, 101279, Note_on_c, 9, 35, 0
1, 101760, Note_on_c, 9, 35, 68
1, 102119, Note_on_c, 9, 35, 0
1, 102120, Note_on_c, 9, 35, 84
1, 102239, Note_on_c, 9, 35, 0
1, 102360, Note_on_c, 9, 35, 67
1, 102719, Note_on_c, 9, 35, 0
1, 102720, Note_on_c, 9, 35, 68
1, 103079, Note_on_c, 9, 35, 0
1, 103080, Note_on_c, 9, 35, 84
1, 103199, Note_on_c, 9, 35, 0
1, 103320, Note_on_c, 9, 35, 67
1, 103679, Note_on_c, 9, 35, 0
1, 103680, Note_on_c, 9, 35, 68
1, 104039, Note_on_c, 9, 35, 0
1, 104040, Note_on_c, 9, 35, 84
1, 104159, Note_on_c, 9, 35, 0
1, 104640, Note_on_c, 9, 35, 68
1, 104999, Note_on_c, 9, 35, 0
1, 105000, Note_on_c, 9, 35, 84
1, 105119, Note_on_c, 9, 35, 0
1, 105480, Note_on_c, 9, 35, 67
1, 105599, Note_on_c, 9, 35, 0
1, 105600, Note_on_c, 9, 35, 68
1, 105959, Note_on_c, 9, 35, 0
1, 105960, Note_on_c, 9, 35, 84
1, 106079, Note_on_c, 9, 35, 0
1, 106440, Note_on_c, 9, 35, 67
1, 106559, Note_on_c, 9, 35, 0
1, 106560, Note_on_c, 9, 35, 68
1, 106919, Note_on_c, 9, 35, 0
1, 106920, Note_on_c, 9, 35, 84
1, 107039, Note_on_c, 9, 35, 0
1, 107520, Note_on_c, 9, 35, 68
1, 107879, Note_on_c, 9, 35, 0
1, 107880, Note_on_c, 9, 35, 84
1, 107999, Note_on_c, 9, 35, 0
1, 108480, Note_on_c, 9, 35, 68
1, 108839, Note_on_c, 9, 35, 0
1, 108840, Note_on_c, 9, 35, 84
1, 108959, Note_on_c, 9, 35, 0
1, 109320, Note_on_c, 9, 35, 67
1, 109439, Note_on_c, 9, 35, 0
1, 109440, Note_on_c, 9, 35, 68
1, 109799, Note_on_c, 9, 35, 0
1, 109800, Note_on_c, 9, 35, 84
1, 109919, Note_on_c, 9, 35, 0
1, 110280, Note_on_c, 9, 35, 67
1, 110399, Note_on_c, 9, 35, 0
1, 110400, Note_on_c, 9, 35, 68
1, 110759, Note_on_c, 9, 35, 0
1, 110760, Note_on_c, 9, 35, 84
1, 110879, Note_on_c, 9, 35, 0
1, 111360, Note_on_c, 9, 35, 68
1, 111719, Note_on_c, 9, 35, 0
1, 111720, Note_on_c, 9, 35, 84
1, 111839, Note_on_c, 9, 35, 0
1, 112320, Note_on_c, 9, 35, 68
1, 112679, Note_on_c, 9, 35, 0
1, 112680, Note_on_c, 9, 35, 84
1, 112799, Note_on_c, 9, 35, 0
1, 113160, Note_on_c, 9, 35, 67
1, 113279, Note_on_c, 9, 35, 0
1, 113280, Note_on_c, 9, 35, 68
1, 113639, Note_on_c, 9, 35, 0
1, 113640, Note_on_c, 9, 35, 84
1, 113759, Note_on_c, 9, 35, 0
1, 114120, Note_on_c, 9, 35, 67
1, 114239, Note_on_c, 9, 35, 0
1, 114240, Note_on_c, 9, 35, 68
1, 114599, Note_on_c, 9, 35, 0
1, 114600, Note_on_c, 9, 35, 84
1, 114719, Note_on_c, 9, 35, 0
1, 115200, Note_on_c, 9, 35, 68
1, 115559, Note_on_c, 9, 35, 0
1, 115560, Note_on_c, 9, 35, 84
1, 115679, Note_on_c, 9, 35, 0
1, 116160, Note_on_c, 9, 35, 68
1, 116519, Note_on_c, 9, 35, 0
1, 116520, Note_on_c, 9, 35, 84
1, 116639, Note_on_c, 9, 35, 0
1, 117000, Note_on_c, 9, 35, 67
1, 117119, Note_on_c, 9, 35, 0
1, 117120, Note_on_c, 9, 35, 68
1, 117479, Note_on_c, 9, 35, 0
1, 117480, Note_on_c, 9, 35, 84
1, 117599, Note_on_c, 9, 35, 0
1, 117600, Note_on_c, 9, 35, 67
1, 117719, Note_on_c, 9, 35, 0
1, 117720, Note_on_c, 9, 35, 67
1, 118079, Note_on_c, 9, 35, 0
1, 118080, Note_on_c, 9, 35, 68
1, 118439, Note_on_c, 9, 35, 0
1, 118440, Note_on_c, 9, 35, 84
1, 118559, Note_on_c, 9, 35, 0
1, 118560, Note_on_c, 9, 35, 67
1, 118679, Note_on_c, 9, 35, 0
1, 118680, Note_on_c, 9, 35, 67
1, 119039, Note_on_c, 9, 35, 0
1, 119040, Note_on_c, 9, 35, 68
1, 119399, Note_on_c, 9, 35, 0
1, 119400, Note_on_c, 9, 35, 84
1, 119519, Note_on_c, 9, 35, 0
1, 120000, Note_on_c, 9, 35, 68
1, 120359, Note_on_c, 9, 35, 0
1, 120360, Note_on_c, 9, 35, 84
1, 120479, Note_on_c, 9, 35, 0
1, 120840, Note_on_c, 9, 35, 67
1, 120959, Note_on_c, 9, 35, 0
1, 120960, Note_on_c, 9, 35, 68
1, 121319, Note_on_c, 9, 35, 0
1, 121320, Note_on_c, 9, 35, 84
1, 121439, Note_on_c, 9, 35, 0
1, 121800, Note_on_c, 9, 35, 67
1, 121919, Note_on_c, 9, 35, 0
1, 121920, Note_on_c, 9, 35, 68
1, 122279, Note_on_c, 9, 35, 0
1, 122280, Note_on_c, 9, 35, 84
1, 122399, Note_on_c, 9, 35, 0
1, 122880, Note_on_c, 9, 35, 68
1, 123239, Note_on_c, 9, 35, 0
1, 123240, Note_on_c, 9, 35, 84
1, 123359, Note_on_c, 9, 35, 0
1, 123840, Note_on_c, 9, 35, 68
1, 124199, Note_on_c, 9, 35, 0
1, 124200, Note_on_c, 9, 35, 84
1, 124319, Note_on_c, 9, 35, 0
1, 124680, Note_on_c, 9, 35, 67
1, 124799, Note_on_c, 9, 35, 0
1, 124800, Note_on_c, 9, 35, 68
1, 125159, Note_on_c, 9, 35, 0
1, 125160, Note_on_c, 9, 35, 84
1, 125279, Note_on_c, 9, 35, 0
1, 125640, Note_on_c, 9, 35, 67
1, 125759, Note_on_c, 9, 35, 0
1, 125760, Note_on_c, 9, 35, 68
1, 126119, Note_on_c, 9, 35, 0
1, 126120, Note_on_c, 9, 35, 84
1, 126239, Note_on_c, 9, 35, 0
1, 126720, Note_on_c, 9, 35, 68
1, 127079, Note_on_c, 9, 35, 0
1, 127080, Note_on_c, 9, 35, 84
1, 127199, Note_on_c, 9, 35, 0
1, 127680, Note_on_c, 9, 35, 68
1, 128039, Note_on_c, 9, 35, 0
1, 128040, Note_on_c, 9, 35, 84
1, 128159, Note_on_c, 9, 35, 0
1, 128520, Note_on_c, 9, 35, 67
1, 128639, Note_on_c, 9, 35, 0
1, 128640, Note_on_c, 9, 35, 68
1, 128999, Note_on_c, 9, 35, 0
1, 129000, Note_on_c, 9, 35, 84
1, 129119, Note_on_c, 9, 35, 0
1, 129480, Note_on_c, 9, 35, 67
1, 129599, Note_on_c, 9, 35, 0
1, 129600, Note_on_c, 9, 35, 68
1, 129959, Note_on_c, 9, 35, 0
1, 129960, Note_on_c, 9, 35, 84
1, 130079, Note_on_c, 9, 35, 0
1, 130560, Note_on_c, 9, 35, 68
1, 130919, Note_on_c, 9, 35, 0
1, 130920, Note_on_c, 9, 35, 84
1, 131039, Note_on_c, 9, 35, 0
1, 131520, Note_on_c, 9, 35, 68
1, 131879, Note_on_c, 9, 35, 0
1, 131880, Note_on_c, 9, 35, 84
1, 131999, Note_on_c, 9, 35, 0
1, 132360, Note_on_c, 9, 35, 67
1, 132479, Note_on_c, 9, 35, 0
1, 132480, Note_on_c, 9, 35, 67
1, 132959, Note_on_c, 9, 35, 0
1, 134160, Note_on_c, 9, 34, 68
1, 134399, Note_on_c, 9, 34, 0
1, 134400, Note_on_c, 9, 35, 68
1, 134759, Note_on_c, 9, 35, 0
1, 134760, Note_on_c, 9, 35, 84
1, 134879, Note_on_c, 9, 35, 0
1, 135720, Note_on_c, 9, 35, 84
1, 135839, Note_on_c, 9, 35, 0
1, 136200, Note_on_c, 9, 35, 84
1, 136319, Note_on_c, 9, 35, 0
1, 136320, Note_on_c, 9, 35, 68
1, 136679, Note_on_c, 9, 35, 0
1, 136680, Note_on_c, 9, 35, 84
1, 136799, Note_on_c, 9, 35, 0
1, 137640, Note_on_c, 9, 35, 84
1, 137759, Note_on_c, 9, 35, 0
1, 138120, Note_on_c, 9, 35, 84
1, 138239, Note_on_c, 9, 35, 0
1, 138240, Note_on_c, 9, 35, 68
1, 138599, Note_on_c, 9, 35, 0
1, 138600, Note_on_c, 9, 35, 84
1, 138719, Note_on_c, 9, 35, 0
1, 139560, Note_on_c, 9, 35, 84
1, 139679, Note_on_c, 9, 35, 0
1, 140040, Note_on_c, 9, 35, 84
1, 140159, Note_on_c, 9, 35, 0
1, 140160, Note_on_c, 9, 35, 68
1, 140519, Note_on_c, 9, 35, 0
1, 140520, Note_on_c, 9, 35, 84
1, 140639, Note_on_c, 9, 35, 0
1, 141480, Note_on_c, 9, 35, 84
1, 141599, Note_on_c, 9, 35, 0
1, 141960, Note_on_c, 9, 35, 84
1, 142079, Note_on_c, 9, 35, 0
1, 142080, Note_on_c, 9, 35, 68
1, 142439, Note_on_c, 9, 35, 0
1, 142440, Note_on_c, 9, 35, 84
1, 142559, Note_on_c, 9, 35, 0
1, 143400, Note_on_c, 9, 35, 84
1, 143519, Note_on_c, 9, 35, 0
1, 143880, Note_on_c, 9, 35, 84
1, 143999, Note_on_c, 9, 35, 0
1, 144000, Note_on_c, 9, 35, 68
1, 144359, Note_on_c, 9, 35, 0
1, 144360, Note_on_c, 9, 35, 84
1, 144479, Note_on_c, 9, 35, 0
1, 145320, Note_on_c, 9, 35, 84
1, 145439, Note_on_c, 9, 35, 0
1, 145800, Note_on_c, 9, 35, 84
1, 145919, Note_on_c, 9, 35, 0
1, 145920, Note_on_c, 9, 35, 68
1, 146279, Note_on_c, 9, 35, 0
1, 146280, Note_on_c, 9, 35, 84
1, 146399, Note_on_c, 9, 35, 0
1, 147240, Note_on_c, 9, 35, 84
1, 147359, Note_on_c, 9, 35, 0
1, 147720, Note_on_c, 9, 35, 84
1, 147839, Note_on_c, 9, 35, 0
1, 149760, Note_on_c, 9, 35, 68
1, 150119, Note_on_c, 9, 35, 0
1, 150120, Note_on_c, 9, 35, 84
1, 150239, Note_on_c, 9, 35, 0
1, 150600, Note_on_c, 9, 35, 84
1, 150719, Note_on_c, 9, 35, 0
1, 150720, Note_on_c, 9, 35, 68
1, 151199, Note_on_c, 9, 35, 0
1, 151680, Note_on_c, 9, 35, 68
1, 152039, Note_on_c, 9, 35, 0
1, 152040, Note_on_c, 9, 35, 84
1, 152159, Note_on_c, 9, 35, 0
1, 152520, Note_on_c, 9, 35, 84
1, 152639, Note_on_c, 9, 35, 0
1, 152640, Note_on_c, 9, 35, 68
1, 153119, Note_on_c, 9, 35, 0
1, 153600, Note_on_c, 9, 35, 68
1, 153959, Note_on_c, 9, 35, 0
1, 153960, Note_on_c, 9, 35, 84
1, 154079, Note_on_c, 9, 35, 0
1, 154440, Note_on_c, 9, 35, 84
1, 154559, Note_on_c, 9, 35, 0
1, 154560, Note_on_c, 9, 35, 68
1, 155039, Note_on_c, 9, 35, 0
1, 155520, Note_on_c, 9, 35, 68
1, 155879, Note_on_c, 9, 35, 0
1, 155880, Note_on_c, 9, 35, 84
1, 155999, Note_on_c, 9, 35, 0
1, 156360, Note_on_c, 9, 35, 84
1, 156479, Note_on_c, 9, 35, 0
1, 156480, Note_on_c, 9, 35, 68
1, 156959, Note_on_c, 9, 35, 0
1, 157440, Note_on_c, 9, 35, 68
1, 157799, Note_on_c, 9, 35, 0
1, 157800, Note_on_c, 9, 35, 84
1, 157919, Note_on_c, 9, 35, 0
1, 158280, Note_on_c, 9, 35, 84
1, 158399, Note_on_c, 9, 35, 0
1, 158400, Note_on_c, 9, 35, 68
1, 158879, Note_on_c, 9, 35, 0
1, 159360, Note_on_c, 9, 35, 68
1, 159839, Note_on_c, 9, 35, 0
1, 160320, Note_on_c, 9, 35, 68
1, 160799, Note_on_c, 9, 35, 0
1, 161280, Note_on_c, 9, 35, 68
1, 161639, Note_on_c, 9, 35, 0
1, 161640, Note_on_c, 9, 35, 84
1, 161759, Note_on_c, 9, 35, 0
1, 162120, Note_on_c, 9, 35, 84
1, 162239, Note_on_c, 9, 35, 0
1, 162240, Note_on_c, 9, 35, 68
1, 162719, Note_on_c, 9, 35, 0
1, 163200, Note_on_c, 9, 35, 68
1, 163559, Note_on_c, 9, 35, 0
1, 163560, Note_on_c, 9, 35, 84
1, 163679, Note_on_c, 9, 35, 0
1, 164040, Note_on_c, 9, 35, 84
1, 164159, Note_on_c, 9, 35, 0
1, 164160, Note_on_c, 9, 35, 68
1, 164639, Note_on_c, 9, 35, 0
1, 165120, Note_on_c, 9, 35, 67
1, 165599, Note_on_c, 9, 35, 0
1, 166440, Note_on_c, 9, 35, 67
1, 166559, Note_on_c, 9, 35, 0
1, 166920, Note_on_c, 9, 35, 67
1, 167039, Note_on_c, 9, 35, 0
1, 167040, Note_on_c, 9, 35, 67
1, 167519, Note_on_c, 9, 35, 0
1, 168960, Note_on_c, 9, 35, 68
1, 169319, Note_on_c, 9, 35, 0
1, 169320, Note_on_c, 9, 35, 84
1, 169439, Note_on_c, 9, 35, 0
1, 169440, Note_on_c, 9, 39, 67
1, 169799, Note_on_c, 9, 39, 0
1, 169800, Note_on_c, 9, 39, 67
1, 169919, Note_on_c, 9, 39, 0
1, 169920, Note_on_c, 9, 35, 68
1, 170279, Note_on_c, 9, 35, 0
1, 170280, Note_on_c, 9, 35, 84
1, 170399, Note_on_c, 9, 35, 0
1, 170400, Note_on_c, 9, 39, 67
1, 170640, Note_on_c, 9, 35, 84
1, 170759, Note_on_c, 9, 35, 0
1, 170760, Note_on_c, 9, 35, 84
1, 170879, Note_on_c, 9, 39, 0
1, 170879, Note_on_c, 9, 35, 0
1, 170880, Note_on_c, 9, 35, 68
1, 171239, Note_on_c, 9, 35, 0
1, 171240, Note_on_c, 9, 35, 84
1, 171359, Note_on_c, 9, 35, 0
1, 171360, Note_on_c, 9, 39, 67
1, 171839, Note_on_c, 9, 39, 0
1, 171840, Note_on_c, 9, 35, 68
1, 172199, Note_on_c, 9, 35, 0
1, 172200, Note_on_c, 9, 35, 84
1, 172319, Note_on_c, 9, 35, 0
1, 172320, Note_on_c, 9, 39, 67
1, 172560, Note_on_c, 9, 35, 84
1, 172679, Note_on_c, 9, 35, 0
1, 172680, Note_on_c, 9, 35, 84
1, 172799, Note_on_c, 9, 39, 0
1, 172799, Note_on_c, 9, 35, 0
1, 172800, Note_on_c, 9, 35, 68
1, 173159, Note_on_c, 9, 35, 0
1, 173160, Note_on_c, 9, 35, 84
1, 173279, Note_on_c, 9, 35, 0
1, 173280, Note_on_c, 9, 39, 67
1, 173639, Note_on_c, 9, 39, 0
1, 173640, Note_on_c, 9, 39, 67
1, 173759, Note_on_c, 9, 39, 0
1, 173760, Note_on_c, 9, 35, 68
1, 174119, Note_on_c, 9, 35, 0
1, 174120, Note_on_c, 9, 35, 84
1, 174239, Note_on_c, 9, 35, 0
1, 174240, Note_on_c, 9, 39, 67
1, 174480, Note_on_c, 9, 35, 84
1, 174599, Note_on_c, 9, 35, 0
1, 174600, Note_on_c, 9, 35, 84
1, 174719, Note_on_c, 9, 39, 0
1, 174719, Note_on_c, 9, 35, 0
1, 174720, Note_on_c, 9, 35, 68
1, 175079, Note_on_c, 9, 35, 0
1, 175080, Note_on_c, 9, 35, 84
1, 175199, Note_on_c, 9, 35, 0
1, 175200, Note_on_c, 9, 39, 67
1, 175679, Note_on_c, 9, 39, 0
1, 175680, Note_on_c, 9, 35, 68
1, 176039, Note_on_c, 9, 35, 0
1, 176040, Note_on_c, 9, 35, 84
1, 176159, Note_on_c, 9, 35, 0
1, 176160, Note_on_c, 9, 39, 67
1, 176400, Note_on_c, 9, 35, 84
1, 176519, Note_on_c, 9, 35, 0
1, 176520, Note_on_c, 9, 35, 84
1, 176639, Note_on_c, 9, 39, 0
1, 176639, Note_on_c, 9, 35, 0
1, 176640, Note_on_c, 9, 35, 68
1, 176999, Note_on_c, 9, 35, 0
1, 177000, Note_on_c, 9, 35, 84
1, 177119, Note_on_c, 9, 35, 0
1, 177120, Note_on_c, 9, 39, 67
1, 177479, Note_on_c, 9, 39, 0
1, 177480, Note_on_c, 9, 39, 67
1, 177599, Note_on_c, 9, 39, 0
1, 177600, Note_on_c, 9, 35, 68
1, 177959, Note_on_c, 9, 35, 0
1, 177960, Note_on_c, 9, 35, 84
1, 178079, Note_on_c, 9, 35, 0
1, 178080, Note_on_c, 9, 39, 67
1, 178320, Note_on_c, 9, 35, 84
1, 178439, Note_on_c, 9, 35, 0
1, 178440, Note_on_c, 9, 35, 84
1, 178559, Note_on_c, 9, 39, 0
1, 178559, Note_on_c, 9, 35, 0
1, 178560, Note_on_c, 9, 35, 68
1, 178919, Note_on_c, 9, 35, 0
1, 178920, Note_on_c, 9, 35, 84
1, 179039, Note_on_c, 9, 35, 0
1, 179040, Note_on_c, 9, 39, 67
1, 179519, Note_on_c, 9, 39, 0
1, 179520, Note_on_c, 9, 35, 68
1, 179879, Note_on_c, 9, 35, 0
1, 179880, Note_on_c, 9, 35, 84
1, 179999, Note_on_c, 9, 35, 0
1, 180000, Note_on_c, 9, 39, 67
1, 180240, Note_on_c, 9, 35, 84
1, 180359, Note_on_c, 9, 35, 0
1, 180360, Note_on_c, 9, 35, 84
1, 180479, Note_on_c, 9, 39, 0
1, 180479, Note_on_c, 9, 35, 0
1, 180480, Note_on_c, 9, 35, 68
1, 180839, Note_on_c, 9, 35, 0
1, 180840, Note_on_c, 9, 35, 84
1, 180959, Note_on_c, 9, 35, 0
1, 180960, Note_on_c, 9, 39, 67
1, 181319, Note_on_c, 9, 39, 0
1, 181320, Note_on_c, 9, 39, 67
1, 181439, Note_on_c, 9, 39, 0
1, 181440, Note_on_c, 9, 35, 68
1, 181799, Note_on_c, 9, 35, 0
1, 181800, Note_on_c, 9, 35, 84
1, 181919, Note_on_c, 9, 35, 0
1, 181920, Note_on_c, 9, 39, 67
1, 182160, Note_on_c, 9, 35, 84
1, 182279, Note_on_c, 9, 35, 0
1, 182280, Note_on_c, 9, 35, 84
1, 182399, Note_on_c, 9, 39, 0
1, 182399, Note_on_c, 9, 35, 0
1, 184320, Note_on_c, 9, 35, 68
1, 184679, Note_on_c, 9, 35, 0
1, 184680, Note_on_c, 9, 35, 84
1, 184799, Note_on_c, 9, 35, 0
1, 185160, Note_on_c, 9, 35, 84
1, 185279, Note_on_c, 9, 35, 0
1, 185280, Note_on_c, 9, 35, 68
1, 185759, Note_on_c, 9, 35, 0
1, 186240, Note_on_c, 9, 35, 68
1, 186719, Note_on_c, 9, 35, 0
1, 187200, Note_on_c, 9, 35, 68
1, 187679, Note_on_c, 9, 35, 0
1, 188160, Note_on_c, 9, 35, 68
1, 188519, Note_on_c, 9, 35, 0
1, 188520, Note_on_c, 9, 35, 84
1, 188639, Note_on_c, 9, 35, 0
1, 189000, Note_on_c, 9, 35, 84
1, 189119, Note_on_c, 9, 35, 0
1, 189120, Note_on_c, 9, 35, 68
1, 189599, Note_on_c, 9, 35, 0
1, 190080, Note_on_c, 9, 35, 68
1, 190439, Note_on_c, 9, 35, 0
1, 190440, Note_on_c, 9, 35, 84
1, 190559, Note_on_c, 9, 35, 0
1, 190920, Note_on_c, 9, 35, 84
1, 191039, Note_on_c, 9, 35, 0
1, 191040, Note_on_c, 9, 35, 68
1, 191519, Note_on_c, 9, 35, 0
1, 192000, Note_on_c, 9, 35, 67
1, 192479, Note_on_c, 9, 35, 0
1, 193320, Note_on_c, 9, 35, 67
1, 193439, Note_on_c, 9, 35, 0
1, 193800, Note_on_c, 9, 35, 67
1, 193919, Note_on_c, 9, 35, 0
1, 193920, Note_on_c, 9, 35, 67
1, 194399, Note_on_c, 9, 35, 0
1, 194880, Note_on_c, 9, 35, 67
1, 195239, Note_on_c, 9, 35, 0
1, 195240, Note_on_c, 9, 35, 67
1, 195359, Note_on_c, 9, 35, 0
1, 195720, Note_on_c, 9, 35, 67
1, 195839, Note_on_c, 9, 35, 0
1, 195840, Note_on_c, 9, 35, 68
1, 196199, Note_on_c, 9, 35, 0
1, 196200, Note_on_c, 9, 35, 84
1, 196319, Note_on_c, 9, 35, 0
1, 196680, Note_on_c, 9, 35, 84
1, 196799, Note_on_c, 9, 35, 0
1, 196800, Note_on_c, 9, 35, 68
1, 197279, Note_on_c, 9, 35, 0
1, 197760, Note_on_c, 9, 35, 68
1, 198119, Note_on_c, 9, 35, 0
1, 198120, Note_on_c, 9, 35, 84
1, 198239, Note_on_c, 9, 35, 0
1, 198600, Note_on_c, 9, 35, 84
1, 198719, Note_on_c, 9, 35, 0
1, 198720, Note_on_c, 9, 35, 68
1, 199199, Note_on_c, 9, 35, 0
1, 199680, Note_on_c, 9, 35, 68
1, 200039, Note_on_c, 9, 35, 0
1, 200040, Note_on_c, 9, 35, 84
1, 200159, Note_on_c, 9, 35, 0
1, 200520, Note_on_c, 9, 35, 84
1, 200639, Note_on_c, 9, 35, 0
1, 200640, Note_on_c, 9, 35, 68
1, 201119, Note_on_c, 9, 35, 0
1, 201600, Note_on_c, 9, 35, 68
1, 201959, Note_on_c, 9, 35, 0
1, 201960, Note_on_c, 9, 35, 84
1, 202079, Note_on_c, 9, 35, 0
1, 202440, Note_on_c, 9, 35, 84
1, 202559, Note_on_c, 9, 35, 0
1, 202560, Note_on_c, 9, 35, 68
1, 203039, Note_on_c, 9, 35, 0
1, 203520, Note_on_c, 9, 35, 68
1, 203879, Note_on_c, 9, 35, 0
1, 203880, Note_on_c, 9, 35, 84
1, 203999, Note_on_c, 9, 35, 0
1, 204360, Note_on_c, 9, 35, 84
1, 204479, Note_on_c, 9, 35, 0
1, 204480, Note_on_c, 9, 35, 68
1, 204959, Note_on_c, 9, 35, 0
1, 205440, Note_on_c, 9, 35, 68
1, 205919, Note_on_c, 9, 35, 0
1, 206400, Note_on_c, 9, 35, 68
1, 206879, Note_on_c, 9, 35, 0
1, 207360, Note_on_c, 9, 35, 68
1, 207719, Note_on_c, 9, 35, 0
1, 207720, Note_on_c, 9, 35, 84
1, 207839, Note_on_c, 9, 35, 0
1, 208200, Note_on_c, 9, 35, 84
1, 208319, Note_on_c, 9, 35, 0
1, 208320, Note_on_c, 9, 35, 68
1, 208799, Note_on_c, 9, 35, 0
1, 209280, Tempo, 500000
1, 209280, Note_on_c, 9, 35, 68
1, 209325, Tempo, 504202
1, 209370, Tempo, 508475
1, 209415, Tempo, 512821
1, 209460, Tempo, 517241
1, 209505, Tempo, 521739
1, 209550, Tempo, 526316
1, 209595, Tempo, 530973
1, 209640, Tempo, 535714
1, 209685, Tempo, 540541
1, 209730, Tempo, 545455
1, 209759, Note_on_c, 9, 35, 0
1, 209775, Tempo, 550459
1, 209820, Tempo, 555556
1, 209865, Tempo, 560748
1, 209910, Tempo, 566038
1, 209955, Tempo, 571429
1, 210000, Tempo, 576923
1, 210045, Tempo, 582524
1, 210090, Tempo, 588235
1, 210135, Tempo, 594059
1, 210180, Tempo, 600000
1, 210225, Tempo, 606061
1, 210270, Tempo, 612245
1, 210315, Tempo, 618557
1, 210360, Tempo, 625000
1, 210405, Tempo, 631579
1, 210450, Tempo, 638298
1, 210495, Tempo, 645161
1, 210540, Tempo, 652174
1, 210560, Note_on_c, 9, 35, 61
1, 210585, Tempo, 659341
1, 210630, Tempo, 666667
1, 210675, Tempo, 674157
1, 210719, Note_on_c, 9, 35, 0
1, 210720, Tempo, 681818
1, 210765, Tempo, 689655
1, 210810, Tempo, 697674
1, 210855, Tempo, 705882
1, 210900, Tempo, 714286
1, 210945, Tempo, 722892
1, 210960, Note_on_c, 9, 35, 67
1, 210990, Tempo, 731707
1, 211035, Tempo, 740741
1, 211080, Tempo, 750000
1, 211199, Note_on_c, 9, 35, 0
1, 211200, Tempo, 1000000
1, 211200, Note_on_c, 9, 35, 67
1, 211679, Note_on_c, 9, 35, 0
1, 212520, Note_on_c, 9, 35, 67
1, 212639, Note_on_c, 9, 35, 0
1, 213120, Tempo, 750000
1, 216840, Note_on_c, 9, 35, 67
1, 216959, Note_on_c, 9, 35, 0
1, 216960, Note_on_c, 9, 35, 67
1, 217439, Note_on_c, 9, 35, 0
1, 217440, Note_on_c, 9, 35, 127
1, 217919, Note_on_c, 9, 35, 0
1, 217920, End_track
2, 0, Start_track
2, 0, Key_signature, 0, "major"
2, 0, Control_c, 9, 121, 0
2, 0, Program_c, 9, 0
2, 0, Control_c, 9, 7, 100
2, 0, Control_c, 9, 10, 64
2, 0, Control_c, 9, 91, 0
2, 0, Control_c, 9, 93, 0
2, 0, MIDI_port, 1
2, 2400, Note_on_c, 9, 38, 84
2, 2879, Note_on_c, 9, 38, 0
2, 3360, Note_on_c, 9, 38, 84
2, 3839, Note_on_c, 9, 38, 0
2, 4320, Note_on_c, 9, 38, 84
2, 4799, Note_on_c, 9, 38, 0
2, 5280, Note_on_c, 9, 38, 84
2, 5759, Note_on_c, 9, 38, 0
2, 6240, Note_on_c, 9, 38, 84
2, 6719, Note_on_c, 9, 38, 0
2, 7200, Note_on_c, 9, 38, 84
2, 7679, Note_on_c, 9, 38, 0
2, 8160, Note_on_c, 9, 38, 84
2, 8639, Note_on_c, 9, 38, 0
2, 9120, Note_on_c, 9, 38, 84
2, 9599, Note_on_c, 9, 38, 0
2, 10080, Note_on_c, 9, 38, 84
2, 10559, Note_on_c, 9, 38, 0
2, 11040, Note_on_c, 9, 38, 84
2, 11519, Note_on_c, 9, 38, 0
2, 12000, Note_on_c, 9, 38, 84
2, 12479, Note_on_c, 9, 38, 0
2, 12960, Note_on_c, 9, 38, 84
2, 13439, Note_on_c, 9, 38, 0
2, 13920, Note_on_c, 9, 38, 84
2, 14399, Note_on_c, 9, 38, 0
2, 14880, Note_on_c, 9, 38, 84
2, 15359, Note_on_c, 9, 38, 0
2, 15840, Note_on_c, 9, 38, 84
2, 16319, Note_on_c, 9, 38, 0
2, 16800, Note_on_c, 9, 38, 84
2, 17279, Note_on_c, 9, 38, 0
2, 17280, Note_on_c, 9, 38, 92
2, 17439, Note_on_c, 9, 38, 0
2, 17440, Note_on_c, 9, 38, 92
2, 17599, Note_on_c, 9, 38, 0
2, 17600, Note_on_c, 9, 38, 92
2, 17759, Note_on_c, 9, 38, 0
2, 17760, Note_on_c, 9, 38, 92
2, 17919, Note_on_c, 9, 38, 0
2, 17920, Note_on_c, 9, 38, 92
2, 18079, Note_on_c, 9, 38, 0
2, 18080, Note_on_c, 9, 38, 92
2, 18239, Note_on_c, 9, 38, 0
2, 18240, Note_on_c, 9, 38, 92
2, 18399, Note_on_c, 9, 38, 0
2, 18400, Note_on_c, 9, 38, 92
2, 18559, Note_on_c, 9, 38, 0
2, 18560, Note_on_c, 9, 38, 92
2, 18719, Note_on_c, 9, 38, 0
2, 18720, Note_on_c, 9, 38, 84
2, 19199, Note_on_c, 9, 38, 0
2, 19680, Note_on_c, 9, 38, 84
2, 20159, Note_on_c, 9, 38, 0
2, 20640, Note_on_c, 9, 38, 84
2, 21119, Note_on_c, 9, 38, 0
2, 21600, Note_on_c, 9, 38, 84
2, 22079, Note_on_c, 9, 38, 0
2, 22560, Note_on_c, 9, 38, 84
2, 23039, Note_on_c, 9, 38, 0
2, 23520, Note_on_c, 9, 38, 84
2, 23999, Note_on_c, 9, 38, 0
2, 24480, Note_on_c, 9, 38, 84
2, 24959, Note_on_c, 9, 38, 0
2, 25440, Note_on_c, 9, 38, 84
2, 25919, Note_on_c, 9, 38, 0
2, 26400, Note_on_c, 9, 38, 84
2, 26879, Note_on_c, 9, 38, 0
2, 27360, Note_on_c, 9, 38, 84
2, 27839, Note_on_c, 9, 38, 0
2, 28320, Note_on_c, 9, 38, 84
2, 28799, Note_on_c, 9, 38, 0
2, 29280, Note_on_c, 9, 38, 84
2, 29759, Note_on_c, 9, 38, 0
2, 30240, Note_on_c, 9, 38, 84
2, 30719, Note_on_c, 9, 38, 0
2, 31200, Note_on_c, 9, 38, 84
2, 31679, Note_on_c, 9, 38, 0
2, 32160, Note_on_c, 9, 38, 84
2, 32639, Note_on_c, 9, 38, 0
2, 32640, Note_on_c, 9, 38, 92
2, 32799, Note_on_c, 9, 38, 0
2, 32800, Note_on_c, 9, 38, 92
2, 32959, Note_on_c, 9, 38, 0
2, 32960, Note_on_c, 9, 38, 92
2, 33119, Note_on_c, 9, 38, 0
2, 33120, Note_on_c, 9, 38, 92
2, 33279, Note_on_c, 9, 38, 0
2, 33280, Note_on_c, 9, 38, 92
2, 33439, Note_on_c, 9, 38, 0
2, 33440, Note_on_c, 9, 38, 92
2, 33599, Note_on_c, 9, 38, 0
2, 33600, Note_on_c, 9, 38, 92
2, 33759, Note_on_c, 9, 38, 0
2, 33760, Note_on_c, 9, 38, 92
2, 33919, Note_on_c, 9, 38, 0
2, 33920, Note_on_c, 9, 38, 92
2, 34079, Note_on_c, 9, 38, 0
2, 34080, Note_on_c, 9, 38, 92
2, 34239, Note_on_c, 9, 38, 0
2, 34240, Note_on_c, 9, 38, 92
2, 34399, Note_on_c, 9, 38, 0
2, 34400, Note_on_c, 9, 38, 92
2, 34559, Note_on_c, 9, 38, 0
2, 34560, Key_signature, -1, "major"
2, 35040, Note_on_c, 9, 38, 84
2, 35519, Note_on_c, 9, 38, 0
2, 36000, Note_on_c, 9, 38, 84
2, 36479, Note_on_c, 9, 38, 0
2, 36960, Note_on_c, 9, 38, 84
2, 37439, Note_on_c, 9, 38, 0
2, 37920, Note_on_c, 9, 38, 84
2, 38399, Note_on_c, 9, 38, 0
2, 38880, Note_on_c, 9, 38, 84
2, 39359, Note_on_c, 9, 38, 0
2, 39840, Note_on_c, 9, 38, 84
2, 40319, Note_on_c, 9, 38, 0
2, 40800, Note_on_c, 9, 38, 84
2, 41279, Note_on_c, 9, 38, 0
2, 41760, Note_on_c, 9, 38, 84
2, 42239, Note_on_c, 9, 38, 0
2, 42720, Note_on_c, 9, 38, 84
2, 43199, Note_on_c, 9, 38, 0
2, 43680, Note_on_c, 9, 38, 84
2, 44159, Note_on_c, 9, 38, 0
2, 44640, Note_on_c, 9, 38, 84
2, 45119, Note_on_c, 9, 38, 0
2, 45600, Note_on_c, 9, 38, 84
2, 46079, Note_on_c, 9, 38, 0
2, 46560, Note_on_c, 9, 38, 84
2, 47039, Note_on_c, 9, 38, 0
2, 47520, Note_on_c, 9, 38, 84
2, 47999, Note_on_c, 9, 38, 0
2, 48480, Note_on_c, 9, 38, 84
2, 48959, Note_on_c, 9, 38, 0
2, 49440, Note_on_c, 9, 38, 84
2, 49919, Note_on_c, 9, 38, 0
2, 50400, Note_on_c, 9, 38, 84
2, 50879, Note_on_c, 9, 38, 0
2, 51360, Note_on_c, 9, 38, 84
2, 51839, Note_on_c, 9, 38, 0
2, 52320, Note_on_c, 9, 38, 84
2, 52799, Note_on_c, 9, 38, 0
2, 53280, Note_on_c, 9, 38, 84
2, 53759, Note_on_c, 9, 38, 0
2, 54240, Note_on_c, 9, 38, 84
2, 54719, Note_on_c, 9, 38, 0
2, 55200, Note_on_c, 9, 38, 84
2, 55679, Note_on_c, 9, 38, 0
2, 56160, Note_on_c, 9, 38, 84
2, 56639, Note_on_c, 9, 38, 0
2, 57120, Note_on_c, 9, 38, 84
2, 57599, Note_on_c, 9, 38, 0
2, 58080, Note_on_c, 9, 38, 84
2, 58559, Note_on_c, 9, 38, 0
2, 59040, Note_on_c, 9, 38, 84
2, 59519, Note_on_c, 9, 38, 0
2, 60000, Note_on_c, 9, 38, 84
2, 60479, Note_on_c, 9, 38, 0
2, 60960, Note_on_c, 9, 38, 84
2, 61439, Note_on_c, 9, 38, 0
2, 61920, Note_on_c, 9, 38, 84
2, 62399, Note_on_c, 9, 38, 0
2, 62880, Note_on_c, 9, 38, 84
2, 63359, Note_on_c, 9, 38, 0
2, 63840, Note_on_c, 9, 38, 84
2, 64319, Note_on_c, 9, 38, 0
2, 64800, Note_on_c, 9, 38, 84
2, 65279, Note_on_c, 9, 38, 0
2, 65760, Note_on_c, 9, 38, 84
2, 66239, Note_on_c, 9, 38, 0
2, 66720, Note_on_c, 9, 38, 84
2, 67199, Note_on_c, 9, 38, 0
2, 67200, Note_on_c, 9, 38, 92
2, 67359, Note_on_c, 9, 38, 0
2, 67360, Note_on_c, 9, 38, 92
2, 67519, Note_on_c, 9, 38, 0
2, 67520, Note_on_c, 9, 38, 92
2, 67679, Note_on_c, 9, 38, 0
2, 67680, Note_on_c, 9, 38, 92
2, 67839, Note_on_c, 9, 38, 0
2, 67840, Note_on_c, 9, 38, 92
2, 67999, Note_on_c, 9, 38, 0
2, 68000, Note_on_c, 9, 38, 92
2, 68159, Note_on_c, 9, 38, 0
2, 68160, Note_on_c, 9, 38, 92
2, 68319, Note_on_c, 9, 38, 0
2, 68320, Note_on_c, 9, 38, 92
2, 68479, Note_on_c, 9, 38, 0
2, 68480, Note_on_c, 9, 38, 92
2, 68639, Note_on_c, 9, 38, 0
2, 68640, Note_on_c, 9, 38, 92
2, 68799, Note_on_c, 9, 38, 0
2, 68800, Note_on_c, 9, 38, 92
2, 68959, Note_on_c, 9, 38, 0
2, 68960, Note_on_c, 9, 38, 92
2, 69119, Note_on_c, 9, 38, 0
2, 69600, Note_on_c, 9, 38, 84
2, 70079, Note_on_c, 9, 38, 0
2, 70560, Note_on_c, 9, 38, 84
2, 71039, Note_on_c, 9, 38, 0
2, 71520, Note_on_c, 9, 38, 84
2, 71999, Note_on_c, 9, 38, 0
2, 72480, Note_on_c, 9, 38, 84
2, 72959, Note_on_c, 9, 38, 0
2, 73440, Note_on_c, 9, 38, 84
2, 73919, Note_on_c, 9, 38, 0
2, 74400, Note_on_c, 9, 38, 84
2, 74879, Note_on_c, 9, 38, 0
2, 75360, Note_on_c, 9, 38, 84
2, 75839, Note_on_c, 9, 38, 0
2, 76320, Note_on_c, 9, 38, 84
2, 76799, Note_on_c, 9, 38, 0
2, 77280, Note_on_c, 9, 38, 84
2, 77759, Note_on_c, 9, 38, 0
2, 78240, Note_on_c, 9, 38, 84
2, 78719, Note_on_c, 9, 38, 0
2, 79200, Note_on_c, 9, 38, 84
2, 79679, Note_on_c, 9, 38, 0
2, 80160, Note_on_c, 9, 38, 84
2, 80639, Note_on_c, 9, 38, 0
2, 81120, Note_on_c, 9, 38, 84
2, 81599, Note_on_c, 9, 38, 0
2, 81960, Note_on_c, 9, 38, 84
2, 82079, Note_on_c, 9, 38, 0
2, 82080, Note_on_c, 9, 38, 84
2, 82559, Note_on_c, 9, 38, 0
2, 83040, Note_on_c, 9, 38, 84
2, 83519, Note_on_c, 9, 38, 0
2, 84000, Note_on_c, 9, 38, 84
2, 84479, Note_on_c, 9, 38, 0
2, 84960, Note_on_c, 9, 38, 84
2, 85439, Note_on_c, 9, 38, 0
2, 85920, Note_on_c, 9, 38, 84
2, 86399, Note_on_c, 9, 38, 0
2, 86400, Note_on_c, 9, 38, 92
2, 86559, Note_on_c, 9, 38, 0
2, 86560, Note_on_c, 9, 38, 92
2, 86719, Note_on_c, 9, 38, 0
2, 86720, Note_on_c, 9, 38, 92
2, 86879, Note_on_c, 9, 38, 0
2, 86880, Note_on_c, 9, 38, 92
2, 87039, Note_on_c, 9, 38, 0
2, 87040, Note_on_c, 9, 38, 92
2, 87199, Note_on_c, 9, 38, 0
2, 87200, Note_on_c, 9, 38, 92
2, 87359, Note_on_c, 9, 38, 0
2, 87360, Note_on_c, 9, 45, 92
2, 87519, Note_on_c, 9, 45, 0
2, 87520, Note_on_c, 9, 45, 92
2, 87679, Note_on_c, 9, 45, 0
2, 87680, Note_on_c, 9, 45, 92
2, 87839, Note_on_c, 9, 45, 0
2, 87840, Note_on_c, 9, 43, 92
2, 87999, Note_on_c, 9, 43, 0
2, 88000, Note_on_c, 9, 43, 92
2, 88159, Note_on_c, 9, 43, 0
2, 88160, Note_on_c, 9, 43, 92
2, 88319, Note_on_c, 9, 43, 0
2, 88800, Note_on_c, 9, 38, 84
2, 89279, Note_on_c, 9, 38, 0
2, 89760, Note_on_c, 9, 38, 84
2, 90239, Note_on_c, 9, 38, 0
2, 90720, Note_on_c, 9, 38, 84
2, 91199, Note_on_c, 9, 38, 0
2, 91680, Note_on_c, 9, 38, 84
2, 92159, Note_on_c, 9, 38, 0
2, 92640, Note_on_c, 9, 38, 84
2, 93119, Note_on_c, 9, 38, 0
2, 93600, Note_on_c, 9, 38, 84
2, 94079, Note_on_c, 9, 38, 0
2, 94560, Note_on_c, 9, 38, 84
2, 95039, Note_on_c, 9, 38, 0
2, 95520, Note_on_c, 9, 38, 84
2, 95999, Note_on_c, 9, 38, 0
2, 96480, Note_on_c, 9, 38, 84
2, 96959, Note_on_c, 9, 38, 0
2, 97440, Note_on_c, 9, 38, 84
2, 97919, Note_on_c, 9, 38, 0
2, 98400, Note_on_c, 9, 38, 84
2, 98879, Note_on_c, 9, 38, 0
2, 99360, Note_on_c, 9, 38, 84
2, 99839, Note_on_c, 9, 38, 0
2, 100320, Note_on_c, 9, 38, 84
2, 100799, Note_on_c, 9, 38, 0
2, 101280, Note_on_c, 9, 38, 84
2, 101759, Note_on_c, 9, 38, 0
2, 102240, Note_on_c, 9, 38, 84
2, 102719, Note_on_c, 9, 38, 0
2, 103200, Note_on_c, 9, 38, 84
2, 103679, Note_on_c, 9, 38, 0
2, 104160, Note_on_c, 9, 38, 84
2, 104639, Note_on_c, 9, 38, 0
2, 105120, Note_on_c, 9, 38, 84
2, 105599, Note_on_c, 9, 38, 0
2, 106080, Note_on_c, 9, 38, 84
2, 106559, Note_on_c, 9, 38, 0
2, 107040, Note_on_c, 9, 38, 84
2, 107519, Note_on_c, 9, 38, 0
2, 108000, Note_on_c, 9, 38, 84
2, 108479, Note_on_c, 9, 38, 0
2, 108960, Note_on_c, 9, 38, 84
2, 109439, Note_on_c, 9, 38, 0
2, 109920, Note_on_c, 9, 38, 84
2, 110399, Note_on_c, 9, 38, 0
2, 110880, Note_on_c, 9, 38, 84
2, 111359, Note_on_c, 9, 38, 0
2, 111840, Note_on_c, 9, 38, 84
2, 112319, Note_on_c, 9, 38, 0
2, 112800, Note_on_c, 9, 38, 84
2, 113279, Note_on_c, 9, 38, 0
2, 113760, Note_on_c, 9, 38, 84
2, 114239, Note_on_c, 9, 38, 0
2, 114720, Note_on_c, 9, 38, 84
2, 115199, Note_on_c, 9, 38, 0
2, 115680, Note_on_c, 9, 38, 84
2, 116159, Note_on_c, 9, 38, 0
2, 116640, Note_on_c, 9, 38, 84
2, 117119, Note_on_c, 9, 38, 0
2, 117600, Note_on_c, 9, 38, 100
2, 118079, Note_on_c, 9, 38, 0
2, 118560, Note_on_c, 9, 38, 100
2, 119039, Note_on_c, 9, 38, 0
2, 119520, Note_on_c, 9, 38, 84
2, 119999, Note_on_c, 9, 38, 0
2, 120480, Note_on_c, 9, 38, 84
2, 120959, Note_on_c, 9, 38, 0
2, 121440, Note_on_c, 9, 38, 84
2, 121919, Note_on_c, 9, 38, 0
2, 122400, Note_on_c, 9, 38, 84
2, 122879, Note_on_c, 9, 38, 0
2, 123360, Note_on_c, 9, 38, 84
2, 123839, Note_on_c, 9, 38, 0
2, 124320, Note_on_c, 9, 38, 84
2, 124799, Note_on_c, 9, 38, 0
2, 125280, Note_on_c, 9, 38, 84
2, 125759, Note_on_c, 9, 38, 0
2, 126240, Note_on_c, 9, 38, 84
2, 126719, Note_on_c, 9, 38, 0
2, 127200, Note_on_c, 9, 38, 84
2, 127679, Note_on_c, 9, 38, 0
2, 128160, Note_on_c, 9, 38, 84
2, 128639, Note_on_c, 9, 38, 0
2, 129120, Note_on_c, 9, 38, 84
2, 129599, Note_on_c, 9, 38, 0
2, 130080, Note_on_c, 9, 38, 84
2, 130559, Note_on_c, 9, 38, 0
2, 131040, Note_on_c, 9, 38, 84
2, 131519, Note_on_c, 9, 38, 0
2, 132000, Note_on_c, 9, 38, 84
2, 132479, Note_on_c, 9, 38, 0
2, 132480, Note_on_c, 9, 38, 92
2, 132639, Note_on_c, 9, 38, 0
2, 132640, Note_on_c, 9, 38, 92
2, 132799, Note_on_c, 9, 38, 0
2, 132800, Note_on_c, 9, 38, 92
2, 132959, Note_on_c, 9, 38, 0
2, 132960, Note_on_c, 9, 38, 92
2, 133119, Note_on_c, 9, 38, 0
2, 133120, Note_on_c, 9, 38, 92
2, 133279, Note_on_c, 9, 38, 0
2, 133280, Note_on_c, 9, 38, 92
2, 133439, Note_on_c, 9, 38, 0
2, 133440, Note_on_c, 9, 45, 92
2, 133599, Note_on_c, 9, 45, 0
2, 133600, Note_on_c, 9, 45, 92
2, 133759, Note_on_c, 9, 45, 0
2, 133760, Note_on_c, 9, 45, 92
2, 133919, Note_on_c, 9, 45, 0
2, 133920, Note_on_c, 9, 43, 92
2, 134079, Note_on_c, 9, 43, 0
2, 134080, Note_on_c, 9, 43, 92
2, 134239, Note_on_c, 9, 43, 0
2, 134240, Note_on_c, 9, 43, 92
2, 134399, Note_on_c, 9, 43, 0
2, 134880, Note_on_c, 9, 38, 84
2, 135359, Note_on_c, 9, 38, 0
2, 135840, Note_on_c, 9, 38, 84
2, 136319, Note_on_c, 9, 38, 0
2, 136800, Note_on_c, 9, 38, 84
2, 137279, Note_on_c, 9, 38, 0
2, 137760, Note_on_c, 9, 38, 84
2, 138239, Note_on_c, 9, 38, 0
2, 138720, Note_on_c, 9, 38, 84
2, 139199, Note_on_c, 9, 38, 0
2, 139680, Note_on_c, 9, 38, 84
2, 140159, Note_on_c, 9, 38, 0
2, 140640, Note_on_c, 9, 38, 84
2, 141119, Note_on_c, 9, 38, 0
2, 141600, Note_on_c, 9, 38, 84
2, 142079, Note_on_c, 9, 38, 0
2, 142560, Note_on_c, 9, 38, 84
2, 143039, Note_on_c, 9, 38, 0
2, 143520, Note_on_c, 9, 38, 84
2, 143999, Note_on_c, 9, 38, 0
2, 144480, Note_on_c, 9, 38, 84
2, 144959, Note_on_c, 9, 38, 0
2, 145440, Note_on_c, 9, 38, 84
2, 145919, Note_on_c, 9, 38, 0
2, 146400, Note_on_c, 9, 38, 84
2, 146879, Note_on_c, 9, 38, 0
2, 147360, Note_on_c, 9, 38, 84
2, 147839, Note_on_c, 9, 38, 0
2, 147840, Note_on_c, 9, 38, 92
2, 147999, Note_on_c, 9, 38, 0
2, 148000, Note_on_c, 9, 38, 92
2, 148159, Note_on_c, 9, 38, 0
2, 148160, Note_on_c, 9, 38, 92
2, 148319, Note_on_c, 9, 38, 0
2, 148320, Note_on_c, 9, 38, 92
2, 148479, Note_on_c, 9, 38, 0
2, 148480, Note_on_c, 9, 38, 92
2, 148639, Note_on_c, 9, 38, 0
2, 148640, Note_on_c, 9, 38, 92
2, 148799, Note_on_c, 9, 38, 0
2, 148800, Note_on_c, 9, 38, 92
2, 148959, Note_on_c, 9, 38, 0
2, 148960, Note_on_c, 9, 38, 92
2, 149119, Note_on_c, 9, 38, 0
2, 149120, Note_on_c, 9, 38, 92
2, 149279, Note_on_c, 9, 38, 0
2, 149280, Note_on_c, 9, 38, 92
2, 149439, Note_on_c, 9, 38, 0
2, 149440, Note_on_c, 9, 38, 92
2, 149599, Note_on_c, 9, 38, 0
2, 149600, Note_on_c, 9, 38, 92
2, 149759, Note_on_c, 9, 38, 0
2, 150240, Note_on_c, 9, 38, 84
2, 150719, Note_on_c, 9, 38, 0
2, 151200, Note_on_c, 9, 38, 84
2, 151679, Note_on_c, 9, 38, 0
2, 152160, Note_on_c, 9, 38, 84
2, 152639, Note_on_c, 9, 38, 0
2, 153120, Note_on_c, 9, 38, 84
2, 153599, Note_on_c, 9, 38, 0
2, 154080, Note_on_c, 9, 38, 84
2, 154559, Note_on_c, 9, 38, 0
2, 155040, Note_on_c, 9, 38, 84
2, 155519, Note_on_c, 9, 38, 0
2, 156000, Note_on_c, 9, 38, 84
2, 156479, Note_on_c, 9, 38, 0
2, 156960, Note_on_c, 9, 38, 84
2, 157439, Note_on_c, 9, 38, 0
2, 157920, Note_on_c, 9, 38, 84
2, 158399, Note_on_c, 9, 38, 0
2, 158880, Note_on_c, 9, 38, 84
2, 159359, Note_on_c, 9, 38, 0
2, 159840, Note_on_c, 9, 38, 84
2, 160319, Note_on_c, 9, 38, 0
2, 160800, Note_on_c, 9, 38, 84
2, 161279, Note_on_c, 9, 38, 0
2, 161760, Note_on_c, 9, 38, 84
2, 162239, Note_on_c, 9, 38, 0
2, 162600, Note_on_c, 9, 38, 84
2, 162719, Note_on_c, 9, 38, 0
2, 162720, Note_on_c, 9, 38, 84
2, 163199, Note_on_c, 9, 38, 0
2, 163680, Note_on_c, 9, 38, 84
2, 164159, Note_on_c, 9, 38, 0
2, 164640, Note_on_c, 9, 38, 84
2, 165119, Note_on_c, 9, 38, 0
2, 165600, Note_on_c, 9, 38, 100
2, 166079, Note_on_c, 9, 38, 0
2, 166560, Note_on_c, 9, 38, 100
2, 167039, Note_on_c, 9, 38, 0
2, 167200, Note_on_c, 9, 38, 92
2, 167359, Note_on_c, 9, 38, 0
2, 167360, Note_on_c, 9, 38, 92
2, 167519, Note_on_c, 9, 38, 0
2, 167520, Note_on_c, 9, 38, 92
2, 167679, Note_on_c, 9, 38, 0
2, 167680, Note_on_c, 9, 38, 92
2, 167839, Note_on_c, 9, 38, 0
2, 167840, Note_on_c, 9, 38, 92
2, 167999, Note_on_c, 9, 38, 0
2, 168000, Note_on_c, 9, 38, 92
2, 168159, Note_on_c, 9, 38, 0
2, 168160, Note_on_c, 9, 38, 92
2, 168319, Note_on_c, 9, 38, 0
2, 168320, Note_on_c, 9, 38, 92
2, 168479, Note_on_c, 9, 38, 0
2, 168480, Note_on_c, 9, 38, 92
2, 168639, Note_on_c, 9, 38, 0
2, 168640, Note_on_c, 9, 38, 92
2, 168799, Note_on_c, 9, 38, 0
2, 168800, Note_on_c, 9, 38, 92
2, 168959, Note_on_c, 9, 38, 0
2, 169440, Note_on_c, 9, 43, 84
2, 169919, Note_on_c, 9, 43, 0
2, 170400, Note_on_c, 9, 43, 84
2, 170879, Note_on_c, 9, 43, 0
2, 171360, Note_on_c, 9, 52, 100
2, 171360, Note_on_c, 9, 43, 84
2, 171839, Note_on_c, 9, 52, 0
2, 171839, Note_on_c, 9, 43, 0
2, 172320, Note_on_c, 9, 43, 84
2, 172799, Note_on_c, 9, 43, 0
2, 173280, Note_on_c, 9, 43, 84
2, 173759, Note_on_c, 9, 43, 0
2, 174240, Note_on_c, 9, 43, 84
2, 174719, Note_on_c, 9, 43, 0
2, 175200, Note_on_c, 9, 52, 100
2, 175200, Note_on_c, 9, 43, 84
2, 175679, Note_on_c, 9, 52, 0
2, 175679, Note_on_c, 9, 43, 0
2, 176160, Note_on_c, 9, 43, 84
2, 176639, Note_on_c, 9, 43, 0
2, 177120, Note_on_c, 9, 43, 84
2, 177599, Note_on_c, 9, 43, 0
2, 178080, Note_on_c, 9, 43, 84
2, 178559, Note_on_c, 9, 43, 0
2, 179040, Note_on_c, 9, 52, 100
2, 179040, Note_on_c, 9, 43, 84
2, 179519, Note_on_c, 9, 52, 0
2, 179519, Note_on_c, 9, 43, 0
2, 180000, Note_on_c, 9, 43, 84
2, 180479, Note_on_c, 9, 43, 0
2, 180960, Note_on_c, 9, 43, 84
2, 181439, Note_on_c, 9, 43, 0
2, 181920, Note_on_c, 9, 43, 84
2, 182399, Note_on_c, 9, 43, 0
2, 182400, Note_on_c, 9, 38, 92
2, 182559, Note_on_c, 9, 38, 0
2, 182560, Note_on_c, 9, 38, 92
2, 182719, Note_on_c, 9, 38, 0
2, 182720, Note_on_c, 9, 38, 92
2, 182879, Note_on_c, 9, 38, 0
2, 182880, Note_on_c, 9, 38, 92
2, 183039, Note_on_c, 9, 38, 0
2, 183040, Note_on_c, 9, 38, 92
2, 183199, Note_on_c, 9, 38, 0
2, 183200, Note_on_c, 9, 38, 92
2, 183359, Note_on_c, 9, 38, 0
2, 183360, Note_on_c, 9, 38, 92
2, 183519, Note_on_c, 9, 38, 0
2, 183520, Note_on_c, 9, 38, 92
2, 183679, Note_on_c, 9, 38, 0
2, 183680, Note_on_c, 9, 38, 92
2, 183839, Note_on_c, 9, 38, 0
2, 183840, Note_on_c, 9, 38, 92
2, 183999, Note_on_c, 9, 38, 0
2, 184000, Note_on_c, 9, 38, 92
2, 184159, Note_on_c, 9, 38, 0
2, 184160, Note_on_c, 9, 38, 92
2, 184319, Note_on_c, 9, 38, 0
2, 184800, Note_on_c, 9, 38, 84
2, 185279, Note_on_c, 9, 38, 0
2, 185760, Note_on_c, 9, 38, 84
2, 186239, Note_on_c, 9, 38, 0
2, 186720, Note_on_c, 9, 38, 84
2, 187199, Note_on_c, 9, 38, 0
2, 187680, Note_on_c, 9, 38, 84
2, 188159, Note_on_c, 9, 38, 0
2, 188640, Note_on_c, 9, 38, 84
2, 189119, Note_on_c, 9, 38, 0
2, 189480, Note_on_c, 9, 38, 84
2, 189599, Note_on_c, 9, 38, 0
2, 189600, Note_on_c, 9, 38, 84
2, 190079, Note_on_c, 9, 38, 0
2, 190560, Note_on_c, 9, 38, 84
2, 191039, Note_on_c, 9, 38, 0
2, 191520, Note_on_c, 9, 38, 84
2, 191999, Note_on_c, 9, 38, 0
2, 192480, Note_on_c, 9, 38, 100
2, 192959, Note_on_c, 9, 38, 0
2, 193440, Note_on_c, 9, 38, 100
2, 193919, Note_on_c, 9, 38, 0
2, 193920, Note_on_c, 9, 38, 100
2, 194079, Note_on_c, 9, 38, 0
2, 194080, Note_on_c, 9, 38, 92
2, 194239, Note_on_c, 9, 38, 0
2, 194240, Note_on_c, 9, 38, 92
2, 194399, Note_on_c, 9, 38, 0
2, 194400, Note_on_c, 9, 38, 92
2, 194559, Note_on_c, 9, 38, 0
2, 194560, Note_on_c, 9, 38, 92
2, 194719, Note_on_c, 9, 38, 0
2, 194720, Note_on_c, 9, 38, 92
2, 194879, Note_on_c, 9, 38, 0
2, 195360, Note_on_c, 9, 38, 100
2, 195839, Note_on_c, 9, 38, 0
2, 196320, Note_on_c, 9, 38, 84
2, 196799, Note_on_c, 9, 38, 0
2, 197280, Note_on_c, 9, 38, 84
2, 197759, Note_on_c, 9, 38, 0
2, 198240, Note_on_c, 9, 38, 84
2, 198719, Note_on_c, 9, 38, 0
2, 199200, Note_on_c, 9, 38, 84
2, 199679, Note_on_c, 9, 38, 0
2, 200160, Note_on_c, 9, 38, 84
2, 200639, Note_on_c, 9, 38, 0
2, 201120, Note_on_c, 9, 38, 84
2, 201599, Note_on_c, 9, 38, 0
2, 202080, Note_on_c, 9, 38, 84
2, 202559, Note_on_c, 9, 38, 0
2, 203040, Note_on_c, 9, 38, 84
2, 203519, Note_on_c, 9, 38, 0
2, 204000, Note_on_c, 9, 38, 84
2, 204479, Note_on_c, 9, 38, 0
2, 204960, Note_on_c, 9, 38, 84
2, 205439, Note_on_c, 9, 38, 0
2, 205920, Note_on_c, 9, 38, 84
2, 206399, Note_on_c, 9, 38, 0
2, 206880, Note_on_c, 9, 38, 84
2, 207359, Note_on_c, 9, 38, 0
2, 207840, Note_on_c, 9, 38, 84
2, 208319, Note_on_c, 9, 38, 0
2, 208680, Note_on_c, 9, 38, 84
2, 208799, Note_on_c, 9, 38, 0
2, 208800, Note_on_c, 9, 38, 84
2, 209279, Note_on_c, 9, 38, 0
2, 209280, Note_on_c, 9, 38, 100
2, 209759, Note_on_c, 9, 38, 0
2, 210240, Note_on_c, 9, 38, 92
2, 210399, Note_on_c, 9, 38, 0
2, 210400, Note_on_c, 9, 38, 92
2, 210479, Note_on_c, 9, 38, 0
2, 211680, Note_on_c, 9, 38, 84
2, 212159, Note_on_c, 9, 38, 0
2, 212640, Note_on_c, 9, 38, 84
2, 213119, Note_on_c, 9, 38, 0
2, 213120, End_track
3, 0, Start_track
3, 0, Key_signature, 0, "major"
3, 0, Control_c, 9, 121, 0
3, 0, Program_c, 9, 0
3, 0, Control_c, 9, 7, 100
3, 0, Control_c, 9, 10, 64
3, 0, Control_c, 9, 91, 0
3, 0, Control_c, 9, 93, 0
3, 0, MIDI_port, 2
3, 1680, Note_on_c, 9, 53, 100
3, 1919, Note_on_c, 9, 53, 0
3, 1920, Note_on_c, 9, 53, 100
3, 2399, Note_on_c, 9, 53, 0
3, 2400, Note_on_c, 9, 42, 66
3, 2879, Note_on_c, 9, 42, 0
3, 2880, Note_on_c, 9, 42, 66
3, 3359, Note_on_c, 9, 42, 0
3, 3360, Note_on_c, 9, 42, 66
3, 3839, Note_on_c, 9, 42, 0
3, 3840, Note_on_c, 9, 42, 66
3, 4319, Note_on_c, 9, 42, 0
3, 4320, Note_on_c, 9, 53, 100
3, 4799, Note_on_c, 9, 53, 0
3, 4800, Note_on_c, 9, 42, 66
3, 5279, Note_on_c, 9, 42, 0
3, 5280, Note_on_c, 9, 42, 66
3, 5759, Note_on_c, 9, 42, 0
3, 5760, Note_on_c, 9, 42, 66
3, 6239, Note_on_c, 9, 42, 0
3, 6240, Note_on_c, 9, 42, 100
3, 6719, Note_on_c, 9, 42, 0
3, 6720, Note_on_c, 9, 42, 66
3, 7199, Note_on_c, 9, 42, 0
3, 7200, Note_on_c, 9, 42, 66
3, 7679, Note_on_c, 9, 42, 0
3, 7680, Note_on_c, 9, 42, 66
3, 8159, Note_on_c, 9, 42, 0
3, 8160, Note_on_c, 9, 53, 66
3, 8639, Note_on_c, 9, 53, 0
3, 8640, Note_on_c, 9, 42, 66
3, 9119, Note_on_c, 9, 42, 0
3, 9120, Note_on_c, 9, 42, 66
3, 9599, Note_on_c, 9, 42, 0
3, 9600, Note_on_c, 9, 42, 66
3, 10079, Note_on_c, 9, 42, 0
3, 10080, Note_on_c, 9, 42, 66
3, 10559, Note_on_c, 9, 42, 0
3, 10560, Note_on_c, 9, 42, 66
3, 11039, Note_on_c, 9, 42, 0
3, 11040, Note_on_c, 9, 42, 66
3, 11519, Note_on_c, 9, 42, 0
3, 11520, Note_on_c, 9, 42, 66
3, 11999, Note_on_c, 9, 42, 0
3, 12000, Note_on_c, 9, 53, 66
3, 12479, Note_on_c, 9, 53, 0
3, 12480, Note_on_c, 9, 42, 66
3, 12959, Note_on_c, 9, 42, 0
3, 12960, Note_on_c, 9, 42, 66
3, 13439, Note_on_c, 9, 42, 0
3, 13440, Note_on_c, 9, 42, 66
3, 13919, Note_on_c, 9, 42, 0
3, 13920, Note_on_c, 9, 42, 66
3, 14399, Note_on_c, 9, 42, 0
3, 14400, Note_on_c, 9, 42, 66
3, 14879, Note_on_c, 9, 42, 0
3, 14880, Note_on_c, 9, 42, 66
3, 15359, Note_on_c, 9, 42, 0
3, 15360, Note_on_c, 9, 42, 66
3, 15839, Note_on_c, 9, 42, 0
3, 15840, Note_on_c, 9, 53, 66
3, 16319, Note_on_c, 9, 53, 0
3, 16320, Note_on_c, 9, 42, 66
3, 16799, Note_on_c, 9, 42, 0
3, 16800, Note_on_c, 9, 42, 66
3, 17279, Note_on_c, 9, 42, 0
3, 19200, Note_on_c, 9, 53, 66
3, 19679, Note_on_c, 9, 53, 0
3, 19680, Note_on_c, 9, 42, 66
3, 20159, Note_on_c, 9, 42, 0
3, 20160, Note_on_c, 9, 42, 66
3, 20639, Note_on_c, 9, 42, 0
3, 20640, Note_on_c, 9, 42, 66
3, 21119, Note_on_c, 9, 42, 0
3, 21120, Note_on_c, 9, 42, 66
3, 21599, Note_on_c, 9, 42, 0
3, 21600, Note_on_c, 9, 42, 66
3, 22079, Note_on_c, 9, 42, 0
3, 22080, Note_on_c, 9, 42, 66
3, 22559, Note_on_c, 9, 42, 0
3, 22560, Note_on_c, 9, 42, 66
3, 23039, Note_on_c, 9, 42, 0
3, 23040, Note_on_c, 9, 42, 66
3, 23519, Note_on_c, 9, 42, 0
3, 23520, Note_on_c, 9, 42, 66
3, 23999, Note_on_c, 9, 42, 0
3, 24000, Note_on_c, 9, 42, 66
3, 24479, Note_on_c, 9, 42, 0
3, 24480, Note_on_c, 9, 42, 66
3, 24959, Note_on_c, 9, 42, 0
3, 24960, Note_on_c, 9, 42, 66
3, 25439, Note_on_c, 9, 42, 0
3, 25440, Note_on_c, 9, 42, 66
3, 25919, Note_on_c, 9, 42, 0
3, 25920, Note_on_c, 9, 42, 66
3, 26399, Note_on_c, 9, 42, 0
3, 26400, Note_on_c, 9, 42, 66
3, 26879, Note_on_c, 9, 42, 0
3, 26880, Note_on_c, 9, 42, 66
3, 27359, Note_on_c, 9, 42, 0
3, 27360, Note_on_c, 9, 42, 66
3, 27839, Note_on_c, 9, 42, 0
3, 27840, Note_on_c, 9, 42, 66
3, 28319, Note_on_c, 9, 42, 0
3, 28320, Note_on_c, 9, 42, 66
3, 28799, Note_on_c, 9, 42, 0
3, 28800, Note_on_c, 9, 42, 66
3, 29279, Note_on_c, 9, 42, 0
3, 29280, Note_on_c, 9, 42, 66
3, 29759, Note_on_c, 9, 42, 0
3, 29760, Note_on_c, 9, 42, 66
3, 30239, Note_on_c, 9, 42, 0
3, 30240, Note_on_c, 9, 42, 66
3, 30719, Note_on_c, 9, 42, 0
3, 30720, Note_on_c, 9, 42, 66
3, 31199, Note_on_c, 9, 42, 0
3, 31200, Note_on_c, 9, 42, 66
3, 31679, Note_on_c, 9, 42, 0
3, 31680, Note_on_c, 9, 42, 66
3, 32159, Note_on_c, 9, 42, 0
3, 32160, Note_on_c, 9, 42, 66
3, 32639, Note_on_c, 9, 42, 0
3, 34560, Note_on_c, 9, 42, 66
3, 35039, Note_on_c, 9, 42, 0
3, 35040, Note_on_c, 9, 42, 66
3, 35519, Note_on_c, 9, 42, 0
3, 35520, Note_on_c, 9, 42, 66
3, 35999, Note_on_c, 9, 42, 0
3, 36000, Note_on_c, 9, 42, 66
3, 36479, Note_on_c, 9, 42, 0
3, 36480, Note_on_c, 9, 42, 66
3, 36959, Note_on_c, 9, 42, 0
3, 36960, Note_on_c, 9, 42, 66
3, 37439, Note_on_c, 9, 42, 0
3, 37440, Note_on_c, 9, 42, 66
3, 37919, Note_on_c, 9, 42, 0
3, 37920, Note_on_c, 9, 42, 66
3, 38399, Note_on_c, 9, 42, 0
3, 38400, Note_on_c, 9, 42, 66
3, 38879, Note_on_c, 9, 42, 0
3, 38880, Note_on_c, 9, 42, 66
3, 39359, Note_on_c, 9, 42, 0
3, 39360, Note_on_c, 9, 42, 66
3, 39839, Note_on_c, 9, 42, 0
3, 39840, Note_on_c, 9, 42, 66
3, 40319, Note_on_c, 9, 42, 0
3, 40320, Note_on_c, 9, 42, 66
3, 40799, Note_on_c, 9, 42, 0
3, 40800, Note_on_c, 9, 42, 66
3, 41279, Note_on_c, 9, 42, 0
3, 41280, Note_on_c, 9, 42, 66
3, 41759, Note_on_c, 9, 42, 0
3, 41760, Note_on_c, 9, 42, 66
3, 42239, Note_on_c, 9, 42, 0
3, 42240, Note_on_c, 9, 42, 66
3, 42719, Note_on_c, 9, 42, 0
3, 42720, Note_on_c, 9, 42, 66
3, 43199, Note_on_c, 9, 42, 0
3, 43200, Note_on_c, 9, 42, 66
3, 43679, Note_on_c, 9, 42, 0
3, 43680, Note_on_c, 9, 42, 66
3, 44159, Note_on_c, 9, 42, 0
3, 44160, Note_on_c, 9, 42, 66
3, 44639, Note_on_c, 9, 42, 0
3, 44640, Note_on_c, 9, 42, 66
3, 45119, Note_on_c, 9, 42, 0
3, 45120, Note_on_c, 9, 42, 66
3, 45599, Note_on_c, 9, 42, 0
3, 45600, Note_on_c, 9, 42, 66
3, 46079, Note_on_c, 9, 42, 0
3, 46080, Note_on_c, 9, 42, 66
3, 46559, Note_on_c, 9, 42, 0
3, 46560, Note_on_c, 9, 42, 66
3, 47039, Note_on_c, 9, 42, 0
3, 47040, Note_on_c, 9, 42, 66
3, 47519, Note_on_c, 9, 42, 0
3, 47520, Note_on_c, 9, 42, 66
3, 47999, Note_on_c, 9, 42, 0
3, 48000, Note_on_c, 9, 42, 66
3, 48479, Note_on_c, 9, 42, 0
3, 48480, Note_on_c, 9, 42, 66
3, 48959, Note_on_c, 9, 42, 0
3, 48960, Note_on_c, 9, 42, 66
3, 49439, Note_on_c, 9, 42, 0
3, 49440, Note_on_c, 9, 42, 66
3, 49919, Note_on_c, 9, 42, 0
3, 49920, Note_on_c, 9, 42, 66
3, 50399, Note_on_c, 9, 42, 0
3, 50400, Note_on_c, 9, 42, 66
3, 50879, Note_on_c, 9, 42, 0
3, 50880, Note_on_c, 9, 42, 66
3, 51359, Note_on_c, 9, 42, 0
3, 51360, Note_on_c, 9, 42, 66
3, 51839, Note_on_c, 9, 42, 0
3, 51840, Note_on_c, 9, 42, 66
3, 52319, Note_on_c, 9, 42, 0
3, 52320, Note_on_c, 9, 42, 66
3, 52799, Note_on_c, 9, 42, 0
3, 52800, Note_on_c, 9, 42, 66
3, 53279, Note_on_c, 9, 42, 0
3, 53280, Note_on_c, 9, 42, 66
3, 53759, Note_on_c, 9, 42, 0
3, 53760, Note_on_c, 9, 53, 66
3, 54239, Note_on_c, 9, 53, 0
3, 54240, Note_on_c, 9, 42, 66
3, 54719, Note_on_c, 9, 42, 0
3, 54720, Note_on_c, 9, 42, 66
3, 55199, Note_on_c, 9, 42, 0
3, 55200, Note_on_c, 9, 42, 66
3, 55679, Note_on_c, 9, 42, 0
3, 55680, Note_on_c, 9, 42, 66
3, 56159, Note_on_c, 9, 42, 0
3, 56160, Note_on_c, 9, 42, 66
3, 56639, Note_on_c, 9, 42, 0
3, 56640, Note_on_c, 9, 42, 66
3, 57119, Note_on_c, 9, 42, 0
3, 57120, Note_on_c, 9, 42, 66
3, 57599, Note_on_c, 9, 42, 0
3, 57600, Note_on_c, 9, 42, 66
3, 58079, Note_on_c, 9, 42, 0
3, 58080, Note_on_c, 9, 42, 66
3, 58559, Note_on_c, 9, 42, 0
3, 58560, Note_on_c, 9, 42, 66
3, 59039, Note_on_c, 9, 42, 0
3, 59040, Note_on_c, 9, 42, 66
3, 59519, Note_on_c, 9, 42, 0
3, 59520, Note_on_c, 9, 42, 66
3, 59999, Note_on_c, 9, 42, 0
3, 60000, Note_on_c, 9, 42, 66
3, 60479, Note_on_c, 9, 42, 0
3, 60480, Note_on_c, 9, 42, 66
3, 60959, Note_on_c, 9, 42, 0
3, 60960, Note_on_c, 9, 42, 66
3, 61439, Note_on_c, 9, 42, 0
3, 61440, Note_on_c, 9, 42, 66
3, 61919, Note_on_c, 9, 42, 0
3, 61920, Note_on_c, 9, 42, 66
3, 62399, Note_on_c, 9, 42, 0
3, 62400, Note_on_c, 9, 42, 66
3, 62879, Note_on_c, 9, 42, 0
3, 62880, Note_on_c, 9, 42, 66
3, 63359, Note_on_c, 9, 42, 0
3, 63360, Note_on_c, 9, 42, 66
3, 63839, Note_on_c, 9, 42, 0
3, 63840, Note_on_c, 9, 42, 66
3, 64319, Note_on_c, 9, 42, 0
3, 64320, Note_on_c, 9, 42, 66
3, 64799, Note_on_c, 9, 42, 0
3, 64800, Note_on_c, 9, 42, 66
3, 65279, Note_on_c, 9, 42, 0
3, 65280, Note_on_c, 9, 42, 66
3, 65759, Note_on_c, 9, 42, 0
3, 65760, Note_on_c, 9, 42, 66
3, 66239, Note_on_c, 9, 42, 0
3, 66240, Note_on_c, 9, 42, 66
3, 66719, Note_on_c, 9, 42, 0
3, 66720, Note_on_c, 9, 42, 66
3, 67199, Note_on_c, 9, 42, 0
3, 69120, Note_on_c, 9, 42, 66
3, 69599, Note_on_c, 9, 42, 0
3, 69600, Note_on_c, 9, 42, 66
3, 70079, Note_on_c, 9, 42, 0
3, 70080, Note_on_c, 9, 42, 66
3, 70559, Note_on_c, 9, 42, 0
3, 70560, Note_on_c, 9, 42, 66
3, 71039, Note_on_c, 9, 42, 0
3, 71040, Note_on_c, 9, 42, 66
3, 71519, Note_on_c, 9, 42, 0
3, 71520, Note_on_c, 9, 42, 66
3, 71999, Note_on_c, 9, 42, 0
3, 72000, Note_on_c, 9, 42, 66
3, 72479, Note_on_c, 9, 42, 0
3, 72480, Note_on_c, 9, 42, 66
3, 72959, Note_on_c, 9, 42, 0
3, 72960, Note_on_c, 9, 42, 66
3, 73439, Note_on_c, 9, 42, 0
3, 73440, Note_on_c, 9, 42, 66
3, 73919, Note_on_c, 9, 42, 0
3, 73920, Note_on_c, 9, 42, 66
3, 74399, Note_on_c, 9, 42, 0
3, 74400, Note_on_c, 9, 42, 66
3, 74879, Note_on_c, 9, 42, 0
3, 74880, Note_on_c, 9, 42, 66
3, 75359, Note_on_c, 9, 42, 0
3, 75360, Note_on_c, 9, 42, 66
3, 75839, Note_on_c, 9, 42, 0
3, 75840, Note_on_c, 9, 42, 66
3, 76319, Note_on_c, 9, 42, 0
3, 76320, Note_on_c, 9, 42, 66
3, 76799, Note_on_c, 9, 42, 0
3, 76800, Note_on_c, 9, 42, 66
3, 77279, Note_on_c, 9, 42, 0
3, 77280, Note_on_c, 9, 42, 66
3, 77759, Note_on_c, 9, 42, 0
3, 77760, Note_on_c, 9, 42, 66
3, 78239, Note_on_c, 9, 42, 0
3, 78240, Note_on_c, 9, 42, 66
3, 78719, Note_on_c, 9, 42, 0
3, 78720, Note_on_c, 9, 42, 66
3, 79199, Note_on_c, 9, 42, 0
3, 79200, Note_on_c, 9, 42, 66
3, 79679, Note_on_c, 9, 42, 0
3, 79680, Note_on_c, 9, 42, 66
3, 80159, Note_on_c, 9, 42, 0
3, 80160, Note_on_c, 9, 42, 66
3, 80639, Note_on_c, 9, 42, 0
3, 80640, Note_on_c, 9, 42, 66
3, 81119, Note_on_c, 9, 42, 0
3, 81120, Note_on_c, 9, 42, 66
3, 81599, Note_on_c, 9, 42, 0
3, 81600, Note_on_c, 9, 42, 66
3, 82079, Note_on_c, 9, 42, 0
3, 82080, Note_on_c, 9, 42, 66
3, 82559, Note_on_c, 9, 42, 0
3, 82560, Note_on_c, 9, 42, 66
3, 83039, Note_on_c, 9, 42, 0
3, 83040, Note_on_c, 9, 42, 66
3, 83519, Note_on_c, 9, 42, 0
3, 83520, Note_on_c, 9, 42, 66
3, 83999, Note_on_c, 9, 42, 0
3, 84000, Note_on_c, 9, 42, 66
3, 84479, Note_on_c, 9, 42, 0
3, 84480, Note_on_c, 9, 42, 66
3, 84959, Note_on_c, 9, 42, 0
3, 84960, Note_on_c, 9, 42, 66
3, 85439, Note_on_c, 9, 42, 0
3, 85440, Note_on_c, 9, 42, 66
3, 85919, Note_on_c, 9, 42, 0
3, 85920, Note_on_c, 9, 42, 66
3, 86399, Note_on_c, 9, 42, 0
3, 88320, Note_on_c, 9, 42, 66
3, 88799, Note_on_c, 9, 42, 0
3, 88800, Note_on_c, 9, 42, 66
3, 89279, Note_on_c, 9, 42, 0
3, 89280, Note_on_c, 9, 42, 66
3, 89759, Note_on_c, 9, 42, 0
3, 89760, Note_on_c, 9, 42, 66
3, 90239, Note_on_c, 9, 42, 0
3, 90240, Note_on_c, 9, 42, 66
3, 90719, Note_on_c, 9, 42, 0
3, 90720, Note_on_c, 9, 42, 66
3, 91199, Note_on_c, 9, 42, 0
3, 91200, Note_on_c, 9, 42, 66
3, 91679, Note_on_c, 9, 42, 0
3, 91680, Note_on_c, 9, 42, 66
3, 92159, Note_on_c, 9, 42, 0
3, 92160, Note_on_c, 9, 42, 66
3, 92639, Note_on_c, 9, 42, 0
3, 92640, Note_on_c, 9, 42, 66
3, 93119, Note_on_c, 9, 42, 0
3, 93120, Note_on_c, 9, 42, 66
3, 93599, Note_on_c, 9, 42, 0
3, 93600, Note_on_c, 9, 42, 66
3, 94079, Note_on_c, 9, 42, 0
3, 94080, Note_on_c, 9, 42, 66
3, 94559, Note_on_c, 9, 42, 0
3, 94560, Note_on_c, 9, 42, 66
3, 95039, Note_on_c, 9, 42, 0
3, 95040, Note_on_c, 9, 42, 66
3, 95519, Note_on_c, 9, 42, 0
3, 95520, Note_on_c, 9, 42, 66
3, 95999, Note_on_c, 9, 42, 0
3, 96000, Note_on_c, 9, 42, 66
3, 96479, Note_on_c, 9, 42, 0
3, 96480, Note_on_c, 9, 42, 66
3, 96959, Note_on_c, 9, 42, 0
3, 96960, Note_on_c, 9, 42, 66
3, 97439, Note_on_c, 9, 42, 0
3, 97440, Note_on_c, 9, 42, 66
3, 97919, Note_on_c, 9, 42, 0
3, 97920, Note_on_c, 9, 42, 66
3, 98399, Note_on_c, 9, 42, 0
3, 98400, Note_on_c, 9, 42, 66
3, 98879, Note_on_c, 9, 42, 0
3, 98880, Note_on_c, 9, 42, 66
3, 99359, Note_on_c, 9, 42, 0
3, 99360, Note_on_c, 9, 42, 66
3, 99839, Note_on_c, 9, 42, 0
3, 99840, Note_on_c, 9, 42, 66
3, 100319, Note_on_c, 9, 42, 0
3, 100320, Note_on_c, 9, 42, 66
3, 100799, Note_on_c, 9, 42, 0
3, 100800, Note_on_c, 9, 42, 66
3, 101279, Note_on_c, 9, 42, 0
3, 101280, Note_on_c, 9, 42, 66
3, 101759, Note_on_c, 9, 42, 0
3, 101760, Note_on_c, 9, 42, 66
3, 102239, Note_on_c, 9, 42, 0
3, 102240, Note_on_c, 9, 42, 66
3, 102719, Note_on_c, 9, 42, 0
3, 102720, Note_on_c, 9, 42, 66
3, 103199, Note_on_c, 9, 42, 0
3, 103200, Note_on_c, 9, 42, 66
3, 103679, Note_on_c, 9, 42, 0
3, 103680, Note_on_c, 9, 42, 66
3, 104159, Note_on_c, 9, 42, 0
3, 104160, Note_on_c, 9, 42, 66
3, 104639, Note_on_c, 9, 42, 0
3, 104640, Note_on_c, 9, 42, 66
3, 105119, Note_on_c, 9, 42, 0
3, 105120, Note_on_c, 9, 42, 66
3, 105599, Note_on_c, 9, 42, 0
3, 105600, Note_on_c, 9, 42, 66
3, 106079, Note_on_c, 9, 42, 0
3, 106080, Note_on_c, 9, 42, 66
3, 106559, Note_on_c, 9, 42, 0
3, 106560, Note_on_c, 9, 42, 66
3, 107039, Note_on_c, 9, 42, 0
3, 107040, Note_on_c, 9, 42, 66
3, 107519, Note_on_c, 9, 42, 0
3, 107520, Note_on_c, 9, 42, 66
3, 107999, Note_on_c, 9, 42, 0
3, 108000, Note_on_c, 9, 42, 66
3, 108479, Note_on_c, 9, 42, 0
3, 108480, Note_on_c, 9, 42, 66
3, 108959, Note_on_c, 9, 42, 0
3, 108960, Note_on_c, 9, 42, 66
3, 109439, Note_on_c, 9, 42, 0
3, 109440, Note_on_c, 9, 42, 66
3, 109919, Note_on_c, 9, 42, 0
3, 109920, Note_on_c, 9, 42, 66
3, 110399, Note_on_c, 9, 42, 0
3, 110400, Note_on_c, 9, 42, 66
3, 110879, Note_on_c, 9, 42, 0
3, 110880, Note_on_c, 9, 42, 66
3, 111359, Note_on_c, 9, 42, 0
3, 111360, Note_on_c, 9, 42, 66
3, 111839, Note_on_c, 9, 42, 0
3, 111840, Note_on_c, 9, 42, 66
3, 112319, Note_on_c, 9, 42, 0
3, 112320, Note_on_c, 9, 42, 66
3, 112799, Note_on_c, 9, 42, 0
3, 112800, Note_on_c, 9, 42, 66
3, 113279, Note_on_c, 9, 42, 0
3, 113280, Note_on_c, 9, 42, 66
3, 113759, Note_on_c, 9, 42, 0
3, 113760, Note_on_c, 9, 42, 66
3, 114239, Note_on_c, 9, 42, 0
3, 114240, Note_on_c, 9, 42, 66
3, 114719, Note_on_c, 9, 42, 0
3, 114720, Note_on_c, 9, 42, 66
3, 115199, Note_on_c, 9, 42, 0
3, 115200, Note_on_c, 9, 42, 66
3, 115679, Note_on_c, 9, 42, 0
3, 115680, Note_on_c, 9, 42, 66
3, 116159, Note_on_c, 9, 42, 0
3, 116160, Note_on_c, 9, 42, 66
3, 116639, Note_on_c, 9, 42, 0
3, 116640, Note_on_c, 9, 42, 66
3, 117119, Note_on_c, 9, 42, 0
3, 117120, Note_on_c, 9, 53, 71
3, 117479, Note_on_c, 9, 53, 0
3, 117480, Note_on_c, 9, 53, 71
3, 117599, Note_on_c, 9, 53, 0
3, 117600, Note_on_c, 9, 53, 71
3, 117719, Note_on_c, 9, 53, 0
3, 117720, Note_on_c, 9, 53, 71
3, 118079, Note_on_c, 9, 53, 0
3, 118080, Note_on_c, 9, 53, 71
3, 118439, Note_on_c, 9, 53, 0
3, 118440, Note_on_c, 9, 53, 71
3, 118559, Note_on_c, 9, 53, 0
3, 118560, Note_on_c, 9, 53, 71
3, 118679, Note_on_c, 9, 53, 0
3, 118680, Note_on_c, 9, 53, 71
3, 119039, Note_on_c, 9, 53, 0
3, 119040, Note_on_c, 9, 42, 66
3, 119519, Note_on_c, 9, 42, 0
3, 119520, Note_on_c, 9, 42, 66
3, 119999, Note_on_c, 9, 42, 0
3, 120000, Note_on_c, 9, 42, 66
3, 120479, Note_on_c, 9, 42, 0
3, 120480, Note_on_c, 9, 42, 66
3, 120959, Note_on_c, 9, 42, 0
3, 120960, Note_on_c, 9, 42, 66
3, 121439, Note_on_c, 9, 42, 0
3, 121440, Note_on_c, 9, 42, 66
3, 121919, Note_on_c, 9, 42, 0
3, 121920, Note_on_c, 9, 42, 66
3, 122399, Note_on_c, 9, 42, 0
3, 122400, Note_on_c, 9, 42, 66
3, 122879, Note_on_c, 9, 42, 0
3, 122880, Note_on_c, 9, 42, 66
3, 123359, Note_on_c, 9, 42, 0
3, 123360, Note_on_c, 9, 42, 66
3, 123839, Note_on_c, 9, 42, 0
3, 123840, Note_on_c, 9, 42, 66
3, 124319, Note_on_c, 9, 42, 0
3, 124320, Note_on_c, 9, 42, 66
3, 124799, Note_on_c, 9, 42, 0
3, 124800, Note_on_c, 9, 42, 66
3, 125279, Note_on_c, 9, 42, 0
3, 125280, Note_on_c, 9, 42, 66
3, 125759, Note_on_c, 9, 42, 0
3, 125760, Note_on_c, 9, 42, 66
3, 126239, Note_on_c, 9, 42, 0
3, 126240, Note_on_c, 9, 42, 66
3, 126719, Note_on_c, 9, 42, 0
3, 126720, Note_on_c, 9, 42, 66
3, 127199, Note_on_c, 9, 42, 0
3, 127200, Note_on_c, 9, 42, 66
3, 127679, Note_on_c, 9, 42, 0
3, 127680, Note_on_c, 9, 42, 66
3, 128159, Note_on_c, 9, 42, 0
3, 128160, Note_on_c, 9, 42, 66
3, 128639, Note_on_c, 9, 42, 0
3, 128640, Note_on_c, 9, 42, 66
3, 129119, Note_on_c, 9, 42, 0
3, 129120, Note_on_c, 9, 42, 66
3, 129599, Note_on_c, 9, 42, 0
3, 129600, Note_on_c, 9, 42, 66
3, 130079, Note_on_c, 9, 42, 0
3, 130080, Note_on_c, 9, 42, 66
3, 130559, Note_on_c, 9, 42, 0
3, 130560, Note_on_c, 9, 42, 66
3, 131039, Note_on_c, 9, 42, 0
3, 131040, Note_on_c, 9, 42, 66
3, 131519, Note_on_c, 9, 42, 0
3, 131520, Note_on_c, 9, 42, 66
3, 131999, Note_on_c, 9, 42, 0
3, 132000, Note_on_c, 9, 42, 66
3, 132479, Note_on_c, 9, 42, 0
3, 134400, Note_on_c, 9, 42, 66
3, 134879, Note_on_c, 9, 42, 0
3, 134880, Note_on_c, 9, 42, 66
3, 135359, Note_on_c, 9, 42, 0
3, 135360, Note_on_c, 9, 42, 66
3, 135839, Note_on_c, 9, 42, 0
3, 135840, Note_on_c, 9, 42, 66
3, 136319, Note_on_c, 9, 42, 0
3, 136320, Note_on_c, 9, 42, 66
3, 136799, Note_on_c, 9, 42, 0
3, 136800, Note_on_c, 9, 42, 66
3, 137279, Note_on_c, 9, 42, 0
3, 137280, Note_on_c, 9, 42, 66
3, 137759, Note_on_c, 9, 42, 0
3, 137760, Note_on_c, 9, 42, 66
3, 138239, Note_on_c, 9, 42, 0
3, 138240, Note_on_c, 9, 42, 66
3, 138719, Note_on_c, 9, 42, 0
3, 138720, Note_on_c, 9, 42, 66
3, 139199, Note_on_c, 9, 42, 0
3, 139200, Note_on_c, 9, 42, 66
3, 139679, Note_on_c, 9, 42, 0
3, 139680, Note_on_c, 9, 42, 66
3, 140159, Note_on_c, 9, 42, 0
3, 140160, Note_on_c, 9, 42, 66
3, 140639, Note_on_c, 9, 42, 0
3, 140640, Note_on_c, 9, 42, 66
3, 141119, Note_on_c, 9, 42, 0
3, 141120, Note_on_c, 9, 42, 66
3, 141599, Note_on_c, 9, 42, 0
3, 141600, Note_on_c, 9, 42, 66
3, 142079, Note_on_c, 9, 42, 0
3, 142080, Note_on_c, 9, 42, 66
3, 142559, Note_on_c, 9, 42, 0
3, 142560, Note_on_c, 9, 42, 66
3, 143039, Note_on_c, 9, 42, 0
3, 143040, Note_on_c, 9, 42, 66
3, 143519, Note_on_c, 9, 42, 0
3, 143520, Note_on_c, 9, 42, 66
3, 143999, Note_on_c, 9, 42, 0
3, 144000, Note_on_c, 9, 42, 66
3, 144479, Note_on_c, 9, 42, 0
3, 144480, Note_on_c, 9, 42, 66
3, 144959, Note_on_c, 9, 42, 0
3, 144960, Note_on_c, 9, 42, 66
3, 145439, Note_on_c, 9, 42, 0
3, 145440, Note_on_c, 9, 42, 66
3, 145919, Note_on_c, 9, 42, 0
3, 145920, Note_on_c, 9, 42, 66
3, 146399, Note_on_c, 9, 42, 0
3, 146400, Note_on_c, 9, 42, 66
3, 146879, Note_on_c, 9, 42, 0
3, 146880, Note_on_c, 9, 42, 66
3, 147359, Note_on_c, 9, 42, 0
3, 147360, Note_on_c, 9, 42, 66
3, 147839, Note_on_c, 9, 42, 0
3, 149760, Note_on_c, 9, 42, 66
3, 150239, Note_on_c, 9, 42, 0
3, 150240, Note_on_c, 9, 42, 66
3, 150719, Note_on_c, 9, 42, 0
3, 150720, Note_on_c, 9, 42, 66
3, 151199, Note_on_c, 9, 42, 0
3, 151200, Note_on_c, 9, 42, 66
3, 151679, Note_on_c, 9, 42, 0
3, 151680, Note_on_c, 9, 42, 66
3, 152159, Note_on_c, 9, 42, 0
3, 152160, Note_on_c, 9, 42, 66
3, 152639, Note_on_c, 9, 42, 0
3, 152640, Note_on_c, 9, 42, 66
3, 153119, Note_on_c, 9, 42, 0
3, 153120, Note_on_c, 9, 42, 66
3, 153599, Note_on_c, 9, 42, 0
3, 153600, Note_on_c, 9, 42, 66
3, 154079, Note_on_c, 9, 42, 0
3, 154080, Note_on_c, 9, 42, 66
3, 154559, Note_on_c, 9, 42, 0
3, 154560, Note_on_c, 9, 42, 66
3, 155039, Note_on_c, 9, 42, 0
3, 155040, Note_on_c, 9, 42, 66
3, 155519, Note_on_c, 9, 42, 0
3, 155520, Note_on_c, 9, 42, 66
3, 155999, Note_on_c, 9, 42, 0
3, 156000, Note_on_c, 9, 42, 66
3, 156479, Note_on_c, 9, 42, 0
3, 156480, Note_on_c, 9, 42, 66
3, 156959, Note_on_c, 9, 42, 0
3, 156960, Note_on_c, 9, 42, 66
3, 157439, Note_on_c, 9, 42, 0
3, 157440, Note_on_c, 9, 42, 66
3, 157919, Note_on_c, 9, 42, 0
3, 157920, Note_on_c, 9, 42, 66
3, 158399, Note_on_c, 9, 42, 0
3, 158400, Note_on_c, 9, 42, 66
3, 158879, Note_on_c, 9, 42, 0
3, 158880, Note_on_c, 9, 42, 66
3, 159359, Note_on_c, 9, 42, 0
3, 159360, Note_on_c, 9, 42, 66
3, 159839, Note_on_c, 9, 42, 0
3, 159840, Note_on_c, 9, 42, 66
3, 160319, Note_on_c, 9, 42, 0
3, 160320, Note_on_c, 9, 42, 66
3, 160799, Note_on_c, 9, 42, 0
3, 160800, Note_on_c, 9, 42, 66
3, 161279, Note_on_c, 9, 42, 0
3, 161280, Note_on_c, 9, 42, 66
3, 161759, Note_on_c, 9, 42, 0
3, 161760, Note_on_c, 9, 42, 66
3, 162239, Note_on_c, 9, 42, 0
3, 162240, Note_on_c, 9, 42, 66
3, 162719, Note_on_c, 9, 42, 0
3, 162720, Note_on_c, 9, 42, 66
3, 163199, Note_on_c, 9, 42, 0
3, 163200, Note_on_c, 9, 42, 66
3, 163679, Note_on_c, 9, 42, 0
3, 163680, Note_on_c, 9, 42, 66
3, 164159, Note_on_c, 9, 42, 0
3, 164160, Note_on_c, 9, 42, 66
3, 164639, Note_on_c, 9, 42, 0
3, 164640, Note_on_c, 9, 42, 66
3, 165119, Note_on_c, 9, 42, 0
3, 165120, Note_on_c, 9, 42, 66
3, 165599, Note_on_c, 9, 42, 0
3, 165600, Note_on_c, 9, 42, 71
3, 166079, Note_on_c, 9, 42, 0
3, 166080, Note_on_c, 9, 42, 71
3, 166559, Note_on_c, 9, 42, 0
3, 166560, Note_on_c, 9, 42, 71
3, 167039, Note_on_c, 9, 42, 0
3, 184320, Note_on_c, 9, 42, 66
3, 184799, Note_on_c, 9, 42, 0
3, 184800, Note_on_c, 9, 42, 66
3, 185279, Note_on_c, 9, 42, 0
3, 185280, Note_on_c, 9, 42, 66
3, 185759, Note_on_c, 9, 42, 0
3, 185760, Note_on_c, 9, 42, 66
3, 186239, Note_on_c, 9, 42, 0
3, 186240, Note_on_c, 9, 42, 66
3, 186719, Note_on_c, 9, 42, 0
3, 186720, Note_on_c, 9, 42, 66
3, 187199, Note_on_c, 9, 42, 0
3, 187200, Note_on_c, 9, 42, 66
3, 187679, Note_on_c, 9, 42, 0
3, 187680, Note_on_c, 9, 42, 66
3, 188159, Note_on_c, 9, 42, 0
3, 188160, Note_on_c, 9, 42, 66
3, 188639, Note_on_c, 9, 42, 0
3, 188640, Note_on_c, 9, 42, 66
3, 189119, Note_on_c, 9, 42, 0
3, 189120, Note_on_c, 9, 42, 66
3, 189599, Note_on_c, 9, 42, 0
3, 189600, Note_on_c, 9, 42, 66
3, 190079, Note_on_c, 9, 42, 0
3, 190080, Note_on_c, 9, 42, 66
3, 190559, Note_on_c, 9, 42, 0
3, 190560, Note_on_c, 9, 42, 66
3, 191039, Note_on_c, 9, 42, 0
3, 191040, Note_on_c, 9, 42, 66
3, 191519, Note_on_c, 9, 42, 0
3, 191520, Note_on_c, 9, 42, 66
3, 191999, Note_on_c, 9, 42, 0
3, 192000, Note_on_c, 9, 42, 66
3, 192479, Note_on_c, 9, 42, 0
3, 192480, Note_on_c, 9, 42, 71
3, 192959, Note_on_c, 9, 42, 0
3, 192960, Note_on_c, 9, 42, 71
3, 193439, Note_on_c, 9, 42, 0
3, 193440, Note_on_c, 9, 42, 71
3, 193919, Note_on_c, 9, 42, 0
3, 195840, Note_on_c, 9, 42, 66
3, 196319, Note_on_c, 9, 42, 0
3, 196320, Note_on_c, 9, 42, 66
3, 196799, Note_on_c, 9, 42, 0
3, 196800, Note_on_c, 9, 42, 66
3, 197279, Note_on_c, 9, 42, 0
3, 197280, Note_on_c, 9, 42, 66
3, 197759, Note_on_c, 9, 42, 0
3, 197760, Note_on_c, 9, 42, 66
3, 198239, Note_on_c, 9, 42, 0
3, 198240, Note_on_c, 9, 42, 66
3, 198719, Note_on_c, 9, 42, 0
3, 198720, Note_on_c, 9, 42, 66
3, 199199, Note_on_c, 9, 42, 0
3, 199200, Note_on_c, 9, 42, 66
3, 199679, Note_on_c, 9, 42, 0
3, 199680, Note_on_c, 9, 42, 66
3, 200159, Note_on_c, 9, 42, 0
3, 200160, Note_on_c, 9, 42, 66
3, 200639, Note_on_c, 9, 42, 0
3, 200640, Note_on_c, 9, 42, 66
3, 201119, Note_on_c, 9, 42, 0
3, 201120, Note_on_c, 9, 42, 66
3, 201599, Note_on_c, 9, 42, 0
3, 201600, Note_on_c, 9, 42, 66
3, 202079, Note_on_c, 9, 42, 0
3, 202080, Note_on_c, 9, 42, 66
3, 202559, Note_on_c, 9, 42, 0
3, 202560, Note_on_c, 9, 42, 66
3, 203039, Note_on_c, 9, 42, 0
3, 203040, Note_on_c, 9, 42, 66
3, 203519, Note_on_c, 9, 42, 0
3, 203520, Note_on_c, 9, 42, 66
3, 203999, Note_on_c, 9, 42, 0
3, 204000, Note_on_c, 9, 42, 66
3, 204479, Note_on_c, 9, 42, 0
3, 204480, Note_on_c, 9, 42, 66
3, 204959, Note_on_c, 9, 42, 0
3, 204960, Note_on_c, 9, 42, 66
3, 205439, Note_on_c, 9, 42, 0
3, 205440, Note_on_c, 9, 42, 66
3, 205919, Note_on_c, 9, 42, 0
3, 205920, Note_on_c, 9, 42, 66
3, 206399, Note_on_c, 9, 42, 0
3, 206400, Note_on_c, 9, 42, 66
3, 206879, Note_on_c, 9, 42, 0
3, 206880, Note_on_c, 9, 42, 66
3, 207359, Note_on_c, 9, 42, 0
3, 207360, Note_on_c, 9, 42, 66
3, 207839, Note_on_c, 9, 42, 0
3, 207840, Note_on_c, 9, 42, 66
3, 208319, Note_on_c, 9, 42, 0
3, 208320, Note_on_c, 9, 42, 66
3, 208799, Note_on_c, 9, 42, 0
3, 208800, Note_on_c, 9, 42, 66
3, 209279, Note_on_c, 9, 42, 0
3, 209280, Note_on_c, 9, 42, 71
3, 209759, Note_on_c, 9, 42, 0
3, 211200, Note_on_c, 9, 42, 66
3, 211679, Note_on_c, 9, 42, 0
3, 211680, Note_on_c, 9, 42, 66
3, 212159, Note_on_c, 9, 42, 0
3, 212160, Note_on_c, 9, 42, 66
3, 212639, Note_on_c, 9, 42, 0
3, 212640, Note_on_c, 9, 42, 66
3, 213119, Note_on_c, 9, 42, 0
3, 213120, End_track
0, 0, End_of_file
