0, 0, Header, 1, 3, 480
1, 0, Start_track
1, 0, Time_signature, 4, 2, 24, 8
1, 0, Key_signature, 0, "major"
1, 0, Tempo, 600000
1, 0, Control_c, 9, 121, 0
1, 0, Program_c, 9, 0
1, 0, Control_c, 9, 7, 100
1, 0, Control_c, 9, 10, 64
1, 0, Control_c, 9, 91, 0
1, 0, Control_c, 9, 93, 0
1, 0, MIDI_port, 0
1, 17280, Note_on_c, 9, 35, 106
1, 17759, Note_on_c, 9, 35, 0
1, 17760, Note_on_c, 9, 42, 109
1, 18160, Note_on_c, 9, 35, 104
1, 18239, Note_on_c, 9, 42, 0
1, 18239, Note_on_c, 9, 35, 0
1, 18240, Note_on_c, 9, 35, 106
1, 18479, Note_on_c, 9, 35, 0
1, 18480, Note_on_c, 9, 35, 105
1, 18719, Note_on_c, 9, 35, 0
1, 18720, Note_on_c, 9, 42, 109
1, 18960, Note_on_c, 9, 35, 101
1, 19199, Note_on_c, 9, 42, 0
1, 19199, Note_on_c, 9, 35, 0
1, 19200, Note_on_c, 9, 35, 109
1, 19679, Note_on_c, 9, 35, 0
1, 19680, Note_on_c, 9, 42, 109
1, 20080, Note_on_c, 9, 35, 103
1, 20159, Note_on_c, 9, 42, 0
1, 20159, Note_on_c, 9, 35, 0
1, 20160, Note_on_c, 9, 35, 106
1, 20399, Note_on_c, 9, 35, 0
1, 20400, Note_on_c, 9, 35, 105
1, 20639, Note_on_c, 9, 35, 0
1, 20640, Note_on_c, 9, 42, 103
1, 20880, Note_on_c, 9, 35, 104
1, 21119, Note_on_c, 9, 42, 0
1, 21119, Note_on_c, 9, 35, 0
1, 21120, Note_on_c, 9, 35, 109
1, 21599, Note_on_c, 9, 35, 0
1, 21600, Note_on_c, 9, 42, 109
1, 22000, Note_on_c, 9, 35, 104
1, 22079, Note_on_c, 9, 42, 0
1, 22079, Note_on_c, 9, 35, 0
1, 22080, Note_on_c, 9, 35, 106
1, 22319, Note_on_c, 9, 35, 0
1, 22320, Note_on_c, 9, 35, 105
1, 22559, Note_on_c, 9, 35, 0
1, 22560, Note_on_c, 9, 42, 109
1, 22800, Note_on_c, 9, 35, 104
1, 23039, Note_on_c, 9, 42, 0
1, 23039, Note_on_c, 9, 35, 0
1, 23040, Note_on_c, 9, 35, 109
1, 23519, Note_on_c, 9, 35, 0
1, 23520, Note_on_c, 9, 42, 109
1, 23920, Note_on_c, 9, 35, 103
1, 23999, Note_on_c, 9, 42, 0
1, 23999, Note_on_c, 9, 35, 0
1, 24000, Note_on_c, 9, 35, 106
1, 24239, Note_on_c, 9, 35, 0
1, 24240, Note_on_c, 9, 35, 105
1, 24479, Note_on_c, 9, 35, 0
1, 24480, Note_on_c, 9, 42, 103
1, 24720, Note_on_c, 9, 35, 104
1, 24959, Note_on_c, 9, 42, 0
1, 24959, Note_on_c, 9, 35, 0
1, 24960, Note_on_c, 9, 35, 106
1, 25439, Note_on_c, 9, 35, 0
1, 25440, Note_on_c, 9, 42, 109
1, 25840, Note_on_c, 9, 35, 104
1, 25919, Note_on_c, 9, 42, 0
1, 25919, Note_on_c, 9, 35, 0
1, 25920, Note_on_c, 9, 35, 106
1, 26159, Note_on_c, 9, 35, 0
1, 26160, Note_on_c, 9, 35, 105
1, 26399, Note_on_c, 9, 35, 0
1, 26400, Note_on_c, 9, 42, 109
1, 26640, Note_on_c, 9, 35, 101
1, 26879, Note_on_c, 9, 42, 0
1, 26879, Note_on_c, 9, 35, 0
1, 26880, Note_on_c, 9, 35, 109
1, 27359, Note_on_c, 9, 35, 0
1, 27360, Note_on_c, 9, 42, 109
1, 27760, Note_on_c, 9, 35, 103
1, 27839, Note_on_c, 9, 42, 0
1, 27839, Note_on_c, 9, 35, 0
1, 27840, Note_on_c, 9, 35, 106
1, 28079, Note_on_c, 9, 35, 0
1, 28080, Note_on_c, 9, 35, 105
1, 28319, Note_on_c, 9, 35, 0
1, 28320, Note_on_c, 9, 42, 103
1, 28560, Note_on_c, 9, 35, 104
1, 28799, Note_on_c, 9, 42, 0
1, 28799, Note_on_c, 9, 35, 0
1, 28800, Note_on_c, 9, 35, 109
1, 29279, Note_on_c, 9, 35, 0
1, 29280, Note_on_c, 9, 42, 109
1, 29680, Note_on_c, 9, 35, 104
1, 29759, Note_on_c, 9, 42, 0
1, 29759, Note_on_c, 9, 35, 0
1, 29760, Note_on_c, 9, 35, 106
1, 29999, Note_on_c, 9, 35, 0
1, 30000, Note_on_c, 9, 35, 105
1, 30239, Note_on_c, 9, 35, 0
1, 30240, Note_on_c, 9, 42, 109
1, 30480, Note_on_c, 9, 35, 104
1, 30719, Note_on_c, 9, 42, 0
1, 30719, Note_on_c, 9, 35, 0
1, 30720, Note_on_c, 9, 35, 109
1, 31199, Note_on_c, 9, 35, 0
1, 31200, Note_on_c, 9, 42, 109
1, 31600, Note_on_c, 9, 35, 103
1, 31679, Note_on_c, 9, 42, 0
1, 31679, Note_on_c, 9, 35, 0
1, 31680, Note_on_c, 9, 35, 106
1, 31919, Note_on_c, 9, 35, 0
1, 31920, Note_on_c, 9, 35, 105
1, 32159, Note_on_c, 9, 35, 0
1, 32160, Note_on_c, 9, 42, 103
1, 32400, Note_on_c, 9, 35, 104
1, 32639, Note_on_c, 9, 42, 0
1, 32639, Note_on_c, 9, 35, 0
1, 32640, Note_on_c, 9, 35, 106
1, 33119, Note_on_c, 9, 35, 0
1, 33120, Note_on_c, 9, 42, 109
1, 33520, Note_on_c, 9, 35, 104
1, 33599, Note_on_c, 9, 42, 0
1, 33599, Note_on_c, 9, 35, 0
1, 33600, Note_on_c, 9, 35, 106
1, 33839, Note_on_c, 9, 35, 0
1, 33840, Note_on_c, 9, 35, 105
1, 34079, Note_on_c, 9, 35, 0
1, 34080, Note_on_c, 9, 42, 109
1, 34320, Note_on_c, 9, 35, 101
1, 34559, Note_on_c, 9, 42, 0
1, 34559, Note_on_c, 9, 35, 0
1, 34560, Note_on_c, 9, 35, 109
1, 35039, Note_on_c, 9, 35, 0
1, 35040, Note_on_c, 9, 42, 109
1, 35440, Note_on_c, 9, 35, 103
1, 35519, Note_on_c, 9, 42, 0
1, 35519, Note_on_c, 9, 35, 0
1, 35520, Note_on_c, 9, 35, 106
1, 35759, Note_on_c, 9, 35, 0
1, 35760, Note_on_c, 9, 35, 105
1, 35999, Note_on_c, 9, 35, 0
1, 36000, Note_on_c, 9, 42, 103
1, 36240, Note_on_c, 9, 35, 104
1, 36479, Note_on_c, 9, 42, 0
1, 36479, Note_on_c, 9, 35, 0
1, 36480, Note_on_c, 9, 35, 109
1, 36959, Note_on_c, 9, 35, 0
1, 36960, Note_on_c, 9, 42, 109
1, 37360, Note_on_c, 9, 35, 104
1, 37439, Note_on_c, 9, 42, 0
1, 37439, Note_on_c, 9, 35, 0
1, 37440, Note_on_c, 9, 35, 106
1, 37679, Note_on_c, 9, 35, 0
1, 37680, Note_on_c, 9, 35, 105
1, 37919, Note_on_c, 9, 35, 0
1, 37920, Note_on_c, 9, 42, 109
1, 38160, Note_on_c, 9, 35, 104
1, 38399, Note_on_c, 9, 42, 0
1, 38399, Note_on_c, 9, 35, 0
1, 38400, Note_on_c, 9, 35, 109
1, 38879, Note_on_c, 9, 35, 0
1, 38880, Note_on_c, 9, 42, 109
1, 39280, Note_on_c, 9, 35, 103
1, 39359, Note_on_c, 9, 42, 0
1, 39359, Note_on_c, 9, 35, 0
1, 39360, Note_on_c, 9, 35, 106
1, 39599, Note_on_c, 9, 35, 0
1, 39600, Note_on_c, 9, 35, 105
1, 39839, Note_on_c, 9, 35, 0
1, 39840, Note_on_c, 9, 42, 103
1, 40080, Note_on_c, 9, 35, 104
1, 40319, Note_on_c, 9, 42, 0
1, 40319, Note_on_c, 9, 35, 0
1, 40320, Note_on_c, 9, 42, 108
1, 40320, Note_on_c, 9, 35, 106
1, 40559, Note_on_c, 9, 42, 0
1, 40560, Note_on_c, 9, 42, 108
1, 40799, Note_on_c, 9, 35, 0
1, 40799, Note_on_c, 9, 42, 0
1, 40800, Note_on_c, 9, 40, 100
1, 40800, Note_on_c, 9, 42, 108
1, 41039, Note_on_c, 9, 40, 0
1, 41039, Note_on_c, 9, 42, 0
1, 41040, Note_on_c, 9, 42, 108
1, 41200, Note_on_c, 9, 35, 104
1, 41279, Note_on_c, 9, 42, 0
1, 41279, Note_on_c, 9, 35, 0
1, 41280, Note_on_c, 9, 42, 108
1, 41280, Note_on_c, 9, 35, 106
1, 41519, Note_on_c, 9, 42, 0
1, 41519, Note_on_c, 9, 35, 0
1, 41520, Note_on_c, 9, 42, 108
1, 41520, Note_on_c, 9, 35, 105
1, 41759, Note_on_c, 9, 42, 0
1, 41759, Note_on_c, 9, 35, 0
1, 41760, Note_on_c, 9, 40, 100
1, 41760, Note_on_c, 9, 42, 108
1, 41999, Note_on_c, 9, 40, 0
1, 41999, Note_on_c, 9, 42, 0
1, 42000, Note_on_c, 9, 42, 108
1, 42000, Note_on_c, 9, 35, 101
1, 42239, Note_on_c, 9, 42, 0
1, 42239, Note_on_c, 9, 35, 0
1, 42240, Note_on_c, 9, 42, 108
1, 42240, Note_on_c, 9, 35, 109
1, 42479, Note_on_c, 9, 42, 0
1, 42480, Note_on_c, 9, 42, 108
1, 42719, Note_on_c, 9, 35, 0
1, 42719, Note_on_c, 9, 42, 0
1, 42720, Note_on_c, 9, 40, 100
1, 42720, Note_on_c, 9, 42, 108
1, 42959, Note_on_c, 9, 40, 0
1, 42959, Note_on_c, 9, 42, 0
1, 42960, Note_on_c, 9, 42, 108
1, 43120, Note_on_c, 9, 35, 103
1, 43199, Note_on_c, 9, 42, 0
1, 43199, Note_on_c, 9, 35, 0
1, 43200, Note_on_c, 9, 42, 108
1, 43200, Note_on_c, 9, 35, 106
1, 43439, Note_on_c, 9, 42, 0
1, 43439, Note_on_c, 9, 35, 0
1, 43440, Note_on_c, 9, 31, 104
1, 43440, Note_on_c, 9, 42, 108
1, 43440, Note_on_c, 9, 35, 105
1, 43679, Note_on_c, 9, 31, 0
1, 43679, Note_on_c, 9, 42, 0
1, 43679, Note_on_c, 9, 35, 0
1, 43680, Note_on_c, 9, 40, 100
1, 43680, Note_on_c, 9, 31, 108
1, 43680, Note_on_c, 9, 42, 108
1, 43919, Note_on_c, 9, 40, 0
1, 43919, Note_on_c, 9, 31, 0
1, 43919, Note_on_c, 9, 42, 0
1, 43920, Note_on_c, 9, 31, 111
1, 43920, Note_on_c, 9, 42, 108
1, 43920, Note_on_c, 9, 35, 104
1, 44159, Note_on_c, 9, 31, 0
1, 44159, Note_on_c, 9, 42, 0
1, 44159, Note_on_c, 9, 35, 0
1, 44160, Note_on_c, 9, 49, 108
1, 44160, Note_on_c, 9, 35, 109
1, 44639, Note_on_c, 9, 49, 0
1, 44639, Note_on_c, 9, 35, 0
1, 44640, Note_on_c, 9, 42, 109
1, 45040, Note_on_c, 9, 35, 104
1, 45119, Note_on_c, 9, 42, 0
1, 45119, Note_on_c, 9, 35, 0
1, 45120, Note_on_c, 9, 35, 106
1, 45359, Note_on_c, 9, 35, 0
1, 45360, Note_on_c, 9, 35, 105
1, 45599, Note_on_c, 9, 35, 0
1, 45600, Note_on_c, 9, 42, 109
1, 45840, Note_on_c, 9, 35, 104
1, 46079, Note_on_c, 9, 42, 0
1, 46079, Note_on_c, 9, 35, 0
1, 46080, Note_on_c, 9, 35, 109
1, 46559, Note_on_c, 9, 35, 0
1, 46560, Note_on_c, 9, 42, 109
1, 46960, Note_on_c, 9, 35, 103
1, 47039, Note_on_c, 9, 42, 0
1, 47039, Note_on_c, 9, 35, 0
1, 47040, Note_on_c, 9, 35, 106
1, 47279, Note_on_c, 9, 35, 0
1, 47280, Note_on_c, 9, 35, 105
1, 47519, Note_on_c, 9, 35, 0
1, 47520, Note_on_c, 9, 42, 103
1, 47760, Note_on_c, 9, 35, 104
1, 47999, Note_on_c, 9, 42, 0
1, 47999, Note_on_c, 9, 35, 0
1, 48000, Note_on_c, 9, 35, 106
1, 48479, Note_on_c, 9, 35, 0
1, 48480, Note_on_c, 9, 42, 109
1, 48880, Note_on_c, 9, 35, 104
1, 48959, Note_on_c, 9, 42, 0
1, 48959, Note_on_c, 9, 35, 0
1, 48960, Note_on_c, 9, 35, 106
1, 49199, Note_on_c, 9, 35, 0
1, 49200, Note_on_c, 9, 35, 105
1, 49439, Note_on_c, 9, 35, 0
1, 49440, Note_on_c, 9, 42, 109
1, 49680, Note_on_c, 9, 35, 101
1, 49919, Note_on_c, 9, 42, 0
1, 49919, Note_on_c, 9, 35, 0
1, 49920, Note_on_c, 9, 35, 109
1, 50399, Note_on_c, 9, 35, 0
1, 50400, Note_on_c, 9, 42, 109
1, 50800, Note_on_c, 9, 35, 103
1, 50879, Note_on_c, 9, 42, 0
1, 50879, Note_on_c, 9, 35, 0
1, 50880, Note_on_c, 9, 35, 106
1, 51119, Note_on_c, 9, 35, 0
1, 51120, Note_on_c, 9, 35, 105
1, 51359, Note_on_c, 9, 35, 0
1, 51360, Note_on_c, 9, 42, 103
1, 51600, Note_on_c, 9, 35, 104
1, 51839, Note_on_c, 9, 42, 0
1, 51839, Note_on_c, 9, 35, 0
1, 51840, Note_on_c, 9, 35, 106
1, 52319, Note_on_c, 9, 35, 0
1, 52320, Note_on_c, 9, 42, 109
1, 52720, Note_on_c, 9, 35, 104
1, 52799, Note_on_c, 9, 42, 0
1, 52799, Note_on_c, 9, 35, 0
1, 52800, Note_on_c, 9, 35, 106
1, 53039, Note_on_c, 9, 35, 0
1, 53040, Note_on_c, 9, 35, 105
1, 53279, Note_on_c, 9, 35, 0
1, 53280, Note_on_c, 9, 42, 109
1, 53520, Note_on_c, 9, 35, 101
1, 53759, Note_on_c, 9, 42, 0
1, 53759, Note_on_c, 9, 35, 0
1, 53760, Note_on_c, 9, 35, 109
1, 54239, Note_on_c, 9, 35, 0
1, 54240, Note_on_c, 9, 42, 109
1, 54640, Note_on_c, 9, 35, 103
1, 54719, Note_on_c, 9, 42, 0
1, 54719, Note_on_c, 9, 35, 0
1, 54720, Note_on_c, 9, 35, 106
1, 54959, Note_on_c, 9, 35, 0
1, 54960, Note_on_c, 9, 35, 105
1, 55199, Note_on_c, 9, 35, 0
1, 55200, Note_on_c, 9, 42, 103
1, 55440, Note_on_c, 9, 35, 104
1, 55679, Note_on_c, 9, 42, 0
1, 55679, Note_on_c, 9, 35, 0
1, 55680, Note_on_c, 9, 35, 109
1, 56159, Note_on_c, 9, 35, 0
1, 56160, Note_on_c, 9, 42, 109
1, 56560, Note_on_c, 9, 35, 104
1, 56639, Note_on_c, 9, 42, 0
1, 56639, Note_on_c, 9, 35, 0
1, 56640, Note_on_c, 9, 35, 106
1, 56879, Note_on_c, 9, 35, 0
1, 56880, Note_on_c, 9, 35, 105
1, 57119, Note_on_c, 9, 35, 0
1, 57120, Note_on_c, 9, 42, 109
1, 57360, Note_on_c, 9, 35, 104
1, 57599, Note_on_c, 9, 42, 0
1, 57599, Note_on_c, 9, 35, 0
1, 57600, Note_on_c, 9, 35, 109
1, 58079, Note_on_c, 9, 35, 0
1, 58080, Note_on_c, 9, 42, 109
1, 58480, Note_on_c, 9, 35, 103
1, 58559, Note_on_c, 9, 42, 0
1, 58559, Note_on_c, 9, 35, 0
1, 58560, Note_on_c, 9, 35, 106
1, 58799, Note_on_c, 9, 35, 0
1, 58800, Note_on_c, 9, 35, 105
1, 59039, Note_on_c, 9, 35, 0
1, 59040, Note_on_c, 9, 42, 103
1, 59280, Note_on_c, 9, 35, 104
1, 59519, Note_on_c, 9, 42, 0
1, 59519, Note_on_c, 9, 35, 0
1, 59520, Note_on_c, 9, 35, 106
1, 59999, Note_on_c, 9, 35, 0
1, 60000, Note_on_c, 9, 42, 109
1, 60400, Note_on_c, 9, 35, 104
1, 60479, Note_on_c, 9, 42, 0
1, 60479, Note_on_c, 9, 35, 0
1, 60480, Note_on_c, 9, 35, 106
1, 60719, Note_on_c, 9, 35, 0
1, 60720, Note_on_c, 9, 35, 105
1, 60959, Note_on_c, 9, 35, 0
1, 60960, Note_on_c, 9, 42, 109
1, 61200, Note_on_c, 9, 35, 101
1, 61439, Note_on_c, 9, 42, 0
1, 61439, Note_on_c, 9, 35, 0
1, 61440, Note_on_c, 9, 35, 109
1, 61919, Note_on_c, 9, 35, 0
1, 61920, Note_on_c, 9, 42, 109
1, 62320, Note_on_c, 9, 35, 103
1, 62399, Note_on_c, 9, 42, 0
1, 62399, Note_on_c, 9, 35, 0
1, 62400, Note_on_c, 9, 35, 106
1, 62639, Note_on_c, 9, 35, 0
1, 62640, Note_on_c, 9, 35, 105
1, 62879, Note_on_c, 9, 35, 0
1, 62880, Note_on_c, 9, 42, 103
1, 63120, Note_on_c, 9, 35, 104
1, 63359, Note_on_c, 9, 42, 0
1, 63359, Note_on_c, 9, 35, 0
1, 63360, Note_on_c, 9, 35, 109
1, 63839, Note_on_c, 9, 35, 0
1, 63840, Note_on_c, 9, 42, 109
1, 64240, Note_on_c, 9, 35, 104
1, 64319, Note_on_c, 9, 42, 0
1, 64319, Note_on_c, 9, 35, 0
1, 64320, Note_on_c, 9, 35, 106
1, 64559, Note_on_c, 9, 35, 0
1, 64560, Note_on_c, 9, 35, 105
1, 64799, Note_on_c, 9, 35, 0
1, 64800, Note_on_c, 9, 42, 109
1, 65040, Note_on_c, 9, 35, 104
1, 65279, Note_on_c, 9, 42, 0
1, 65279, Note_on_c, 9, 35, 0
1, 65280, Note_on_c, 9, 35, 109
1, 65759, Note_on_c, 9, 35, 0
1, 65760, Note_on_c, 9, 42, 109
1, 66160, Note_on_c, 9, 35, 103
1, 66239, Note_on_c, 9, 42, 0
1, 66239, Note_on_c, 9, 35, 0
1, 66240, Note_on_c, 9, 35, 106
1, 66479, Note_on_c, 9, 35, 0
1, 66480, Note_on_c, 9, 35, 105
1, 66719, Note_on_c, 9, 35, 0
1, 66720, Note_on_c, 9, 42, 103
1, 66960, Note_on_c, 9, 35, 104
1, 67199, Note_on_c, 9, 42, 0
1, 67199, Note_on_c, 9, 35, 0
1, 67200, Note_on_c, 9, 42, 108
1, 67200, Note_on_c, 9, 35, 106
1, 67439, Note_on_c, 9, 42, 0
1, 67440, Note_on_c, 9, 42, 108
1, 67679, Note_on_c, 9, 35, 0
1, 67679, Note_on_c, 9, 42, 0
1, 67680, Note_on_c, 9, 40, 100
1, 67680, Note_on_c, 9, 42, 108
1, 67919, Note_on_c, 9, 40, 0
1, 67919, Note_on_c, 9, 42, 0
1, 67920, Note_on_c, 9, 42, 108
1, 68080, Note_on_c, 9, 35, 104
1, 68159, Note_on_c, 9, 42, 0
1, 68159, Note_on_c, 9, 35, 0
1, 68160, Note_on_c, 9, 42, 108
1, 68160, Note_on_c, 9, 35, 106
1, 68399, Note_on_c, 9, 42, 0
1, 68399, Note_on_c, 9, 35, 0
1, 68400, Note_on_c, 9, 42, 108
1, 68400, Note_on_c, 9, 35, 105
1, 68639, Note_on_c, 9, 42, 0
1, 68639, Note_on_c, 9, 35, 0
1, 68640, Note_on_c, 9, 40, 100
1, 68640, Note_on_c, 9, 42, 108
1, 68879, Note_on_c, 9, 40, 0
1, 68879, Note_on_c, 9, 42, 0
1, 68880, Note_on_c, 9, 42, 108
1, 68880, Note_on_c, 9, 35, 101
1, 69119, Note_on_c, 9, 42, 0
1, 69119, Note_on_c, 9, 35, 0
1, 69120, Note_on_c, 9, 42, 108
1, 69120, Note_on_c, 9, 35, 109
1, 69359, Note_on_c, 9, 42, 0
1, 69360, Note_on_c, 9, 42, 108
1, 69599, Note_on_c, 9, 35, 0
1, 69599, Note_on_c, 9, 42, 0
1, 69600, Note_on_c, 9, 40, 100
1, 69600, Note_on_c, 9, 42, 108
1, 69839, Note_on_c, 9, 40, 0
1, 69839, Note_on_c, 9, 42, 0
1, 69840, Note_on_c, 9, 42, 108
1, 70000, Note_on_c, 9, 35, 103
1, 70079, Note_on_c, 9, 42, 0
1, 70079, Note_on_c, 9, 35, 0
1, 70080, Note_on_c, 9, 42, 108
1, 70080, Note_on_c, 9, 35, 106
1, 70319, Note_on_c, 9, 42, 0
1, 70319, Note_on_c, 9, 35, 0
1, 70320, Note_on_c, 9, 31, 104
1, 70320, Note_on_c, 9, 42, 108
1, 70320, Note_on_c, 9, 35, 105
1, 70559, Note_on_c, 9, 31, 0
1, 70559, Note_on_c, 9, 42, 0
1, 70559, Note_on_c, 9, 35, 0
1, 70560, Note_on_c, 9, 40, 100
1, 70560, Note_on_c, 9, 31, 108
1, 70560, Note_on_c, 9, 42, 108
1, 70799, Note_on_c, 9, 40, 0
1, 70799, Note_on_c, 9, 31, 0
1, 70799, Note_on_c, 9, 42, 0
1, 70800, Note_on_c, 9, 31, 111
1, 70800, Note_on_c, 9, 42, 108
1, 70800, Note_on_c, 9, 35, 104
1, 71039, Note_on_c, 9, 31, 0
1, 71039, Note_on_c, 9, 42, 0
1, 71039, Note_on_c, 9, 35, 0
1, 71040, Note_on_c, 9, 49, 108
1, 71040, Note_on_c, 9, 35, 104
1, 71519, Note_on_c, 9, 49, 0
1, 71519, Note_on_c, 9, 35, 0
1, 71520, Note_on_c, 9, 42, 109
1, 71920, Note_on_c, 9, 35, 104
1, 71999, Note_on_c, 9, 42, 0
1, 71999, Note_on_c, 9, 35, 0
1, 72000, Note_on_c, 9, 35, 106
1, 72239, Note_on_c, 9, 35, 0
1, 72240, Note_on_c, 9, 35, 105
1, 72479, Note_on_c, 9, 35, 0
1, 72480, Note_on_c, 9, 42, 109
1, 72720, Note_on_c, 9, 35, 104
1, 72959, Note_on_c, 9, 42, 0
1, 72959, Note_on_c, 9, 35, 0
1, 72960, Note_on_c, 9, 35, 109
1, 73439, Note_on_c, 9, 35, 0
1, 73440, Note_on_c, 9, 42, 109
1, 73840, Note_on_c, 9, 35, 103
1, 73919, Note_on_c, 9, 42, 0
1, 73919, Note_on_c, 9, 35, 0
1, 73920, Note_on_c, 9, 35, 106
1, 74159, Note_on_c, 9, 35, 0
1, 74160, Note_on_c, 9, 35, 105
1, 74399, Note_on_c, 9, 35, 0
1, 74400, Note_on_c, 9, 42, 103
1, 74640, Note_on_c, 9, 35, 104
1, 74879, Note_on_c, 9, 42, 0
1, 74879, Note_on_c, 9, 35, 0
1, 74880, Note_on_c, 9, 35, 106
1, 75359, Note_on_c, 9, 35, 0
1, 75360, Note_on_c, 9, 42, 109
1, 75760, Note_on_c, 9, 35, 104
1, 75839, Note_on_c, 9, 42, 0
1, 75839, Note_on_c, 9, 35, 0
1, 75840, Note_on_c, 9, 35, 106
1, 76079, Note_on_c, 9, 35, 0
1, 76080, Note_on_c, 9, 35, 105
1, 76319, Note_on_c, 9, 35, 0
1, 76320, Note_on_c, 9, 42, 109
1, 76560, Note_on_c, 9, 35, 101
1, 76799, Note_on_c, 9, 42, 0
1, 76799, Note_on_c, 9, 35, 0
1, 76800, Note_on_c, 9, 35, 109
1, 77279, Note_on_c, 9, 35, 0
1, 77280, Note_on_c, 9, 42, 109
1, 77680, Note_on_c, 9, 35, 103
1, 77759, Note_on_c, 9, 42, 0
1, 77759, Note_on_c, 9, 35, 0
1, 77760, Note_on_c, 9, 35, 106
1, 77999, Note_on_c, 9, 35, 0
1, 78000, Note_on_c, 9, 35, 105
1, 78239, Note_on_c, 9, 35, 0
1, 78240, Note_on_c, 9, 42, 103
1, 78480, Note_on_c, 9, 35, 104
1, 78719, Note_on_c, 9, 42, 0
1, 78719, Note_on_c, 9, 35, 0
1, 78720, Note_on_c, 9, 35, 106
1, 79199, Note_on_c, 9, 35, 0
1, 79200, Note_on_c, 9, 42, 109
1, 79600, Note_on_c, 9, 35, 104
1, 79679, Note_on_c, 9, 42, 0
1, 79679, Note_on_c, 9, 35, 0
1, 79680, Note_on_c, 9, 35, 106
1, 79919, Note_on_c, 9, 35, 0
1, 79920, Note_on_c, 9, 35, 105
1, 80159, Note_on_c, 9, 35, 0
1, 80160, Note_on_c, 9, 42, 109
1, 80400, Note_on_c, 9, 35, 101
1, 80639, Note_on_c, 9, 42, 0
1, 80639, Note_on_c, 9, 35, 0
1, 80640, Note_on_c, 9, 35, 109
1, 81119, Note_on_c, 9, 35, 0
1, 81120, Note_on_c, 9, 42, 109
1, 81520, Note_on_c, 9, 35, 103
1, 81599, Note_on_c, 9, 42, 0
1, 81599, Note_on_c, 9, 35, 0
1, 81600, Note_on_c, 9, 35, 106
1, 81839, Note_on_c, 9, 35, 0
1, 81840, Note_on_c, 9, 39, 101
1, 81840, Note_on_c, 9, 35, 105
1, 82079, Note_on_c, 9, 39, 0
1, 82079, Note_on_c, 9, 35, 0
1, 82080, Note_on_c, 9, 39, 101
1, 82080, Note_on_c, 9, 42, 103
1, 82320, Note_on_c, 9, 35, 104
1, 82559, Note_on_c, 9, 39, 0
1, 82559, Note_on_c, 9, 42, 0
1, 82559, Note_on_c, 9, 35, 0
1, 82560, Note_on_c, 9, 35, 109
1, 83039, Note_on_c, 9, 35, 0
1, 83040, Note_on_c, 9, 42, 109
1, 83440, Note_on_c, 9, 35, 104
1, 83519, Note_on_c, 9, 42, 0
1, 83519, Note_on_c, 9, 35, 0
1, 83520, Note_on_c, 9, 35, 106
1, 83759, Note_on_c, 9, 35, 0
1, 83760, Note_on_c, 9, 35, 105
1, 83999, Note_on_c, 9, 35, 0
1, 84000, Note_on_c, 9, 42, 109
1, 84240, Note_on_c, 9, 35, 104
1, 84479, Note_on_c, 9, 42, 0
1, 84479, Note_on_c, 9, 35, 0
1, 84480, Note_on_c, 9, 35, 109
1, 84959, Note_on_c, 9, 35, 0
1, 84960, Note_on_c, 9, 42, 109
1, 85360, Note_on_c, 9, 35, 103
1, 85439, Note_on_c, 9, 42, 0
1, 85439, Note_on_c, 9, 35, 0
1, 85440, Note_on_c, 9, 35, 106
1, 85679, Note_on_c, 9, 35, 0
1, 85680, Note_on_c, 9, 39, 101
1, 85680, Note_on_c, 9, 35, 105
1, 85919, Note_on_c, 9, 39, 0
1, 85919, Note_on_c, 9, 35, 0
1, 85920, Note_on_c, 9, 39, 101
1, 85920, Note_on_c, 9, 42, 103
1, 86160, Note_on_c, 9, 35, 104
1, 86399, Note_on_c, 9, 39, 0
1, 86399, Note_on_c, 9, 42, 0
1, 86399, Note_on_c, 9, 35, 0
1, 86400, Note_on_c, 9, 35, 106
1, 86879, Note_on_c, 9, 35, 0
1, 86880, Note_on_c, 9, 42, 109
1, 87280, Note_on_c, 9, 35, 104
1, 87359, Note_on_c, 9, 42, 0
1, 87359, Note_on_c, 9, 35, 0
1, 87360, Note_on_c, 9, 35, 106
1, 87599, Note_on_c, 9, 35, 0
1, 87600, Note_on_c, 9, 35, 105
1, 87839, Note_on_c, 9, 35, 0
1, 87840, Note_on_c, 9, 42, 109
1, 88080, Note_on_c, 9, 35, 101
1, 88319, Note_on_c, 9, 42, 0
1, 88319, Note_on_c, 9, 35, 0
1, 88320, Note_on_c, 9, 35, 109
1, 88799, Note_on_c, 9, 35, 0
1, 88800, Note_on_c, 9, 42, 109
1, 89200, Note_on_c, 9, 35, 103
1, 89279, Note_on_c, 9, 42, 0
1, 89279, Note_on_c, 9, 35, 0
1, 89280, Note_on_c, 9, 35, 106
1, 89519, Note_on_c, 9, 35, 0
1, 89520, Note_on_c, 9, 39, 101
1, 89520, Note_on_c, 9, 35, 105
1, 89759, Note_on_c, 9, 39, 0
1, 89759, Note_on_c, 9, 35, 0
1, 89760, Note_on_c, 9, 39, 101
1, 89760, Note_on_c, 9, 42, 103
1, 90000, Note_on_c, 9, 35, 104
1, 90239, Note_on_c, 9, 39, 0
1, 90239, Note_on_c, 9, 42, 0
1, 90239, Note_on_c, 9, 35, 0
1, 90240, Note_on_c, 9, 35, 109
1, 90719, Note_on_c, 9, 35, 0
1, 90720, Note_on_c, 9, 42, 109
1, 91120, Note_on_c, 9, 35, 104
1, 91199, Note_on_c, 9, 42, 0
1, 91199, Note_on_c, 9, 35, 0
1, 91200, Note_on_c, 9, 35, 106
1, 91439, Note_on_c, 9, 35, 0
1, 91440, Note_on_c, 9, 35, 105
1, 91679, Note_on_c, 9, 35, 0
1, 91680, Note_on_c, 9, 42, 109
1, 91920, Note_on_c, 9, 35, 104
1, 92159, Note_on_c, 9, 42, 0
1, 92159, Note_on_c, 9, 35, 0
1, 92160, Note_on_c, 9, 35, 109
1, 92639, Note_on_c, 9, 35, 0
1, 92640, Note_on_c, 9, 42, 109
1, 93040, Note_on_c, 9, 35, 103
1, 93119, Note_on_c, 9, 42, 0
1, 93119, Note_on_c, 9, 35, 0
1, 93120, Note_on_c, 9, 35, 106
1, 93359, Note_on_c, 9, 35, 0
1, 93360, Note_on_c, 9, 39, 101
1, 93360, Note_on_c, 9, 35, 105
1, 93599, Note_on_c, 9, 39, 0
1, 93599, Note_on_c, 9, 35, 0
1, 93600, Note_on_c, 9, 39, 101
1, 93600, Note_on_c, 9, 42, 103
1, 93840, Note_on_c, 9, 35, 104
1, 94079, Note_on_c, 9, 39, 0
1, 94079, Note_on_c, 9, 42, 0
1, 94079, Note_on_c, 9, 35, 0
1, 94080, Note_on_c, 9, 42, 108
1, 94080, Note_on_c, 9, 35, 106
1, 94319, Note_on_c, 9, 42, 0
1, 94320, Note_on_c, 9, 42, 108
1, 94559, Note_on_c, 9, 35, 0
1, 94559, Note_on_c, 9, 42, 0
1, 94560, Note_on_c, 9, 40, 100
1, 94560, Note_on_c, 9, 42, 108
1, 94799, Note_on_c, 9, 40, 0
1, 94799, Note_on_c, 9, 42, 0
1, 94800, Note_on_c, 9, 42, 108
1, 94960, Note_on_c, 9, 35, 104
1, 95039, Note_on_c, 9, 42, 0
1, 95039, Note_on_c, 9, 35, 0
1, 95040, Note_on_c, 9, 42, 108
1, 95040, Note_on_c, 9, 35, 106
1, 95279, Note_on_c, 9, 42, 0
1, 95279, Note_on_c, 9, 35, 0
1, 95280, Note_on_c, 9, 42, 108
1, 95280, Note_on_c, 9, 35, 105
1, 95519, Note_on_c, 9, 42, 0
1, 95519, Note_on_c, 9, 35, 0
1, 95520, Note_on_c, 9, 40, 100
1, 95520, Note_on_c, 9, 42, 108
1, 95759, Note_on_c, 9, 40, 0
1, 95759, Note_on_c, 9, 42, 0
1, 95760, Note_on_c, 9, 42, 108
1, 95760, Note_on_c, 9, 35, 101
1, 95999, Note_on_c, 9, 42, 0
1, 95999, Note_on_c, 9, 35, 0
1, 96000, Note_on_c, 9, 42, 108
1, 96000, Note_on_c, 9, 35, 109
1, 96239, Note_on_c, 9, 42, 0
1, 96240, Note_on_c, 9, 42, 108
1, 96479, Note_on_c, 9, 35, 0
1, 96479, Note_on_c, 9, 42, 0
1, 96480, Note_on_c, 9, 40, 100
1, 96480, Note_on_c, 9, 42, 108
1, 96719, Note_on_c, 9, 40, 0
1, 96719, Note_on_c, 9, 42, 0
1, 96720, Note_on_c, 9, 42, 108
1, 96880, Note_on_c, 9, 35, 103
1, 96959, Note_on_c, 9, 42, 0
1, 96959, Note_on_c, 9, 35, 0
1, 96960, Note_on_c, 9, 42, 108
1, 96960, Note_on_c, 9, 35, 106
1, 97199, Note_on_c, 9, 42, 0
1, 97199, Note_on_c, 9, 35, 0
1, 97200, Note_on_c, 9, 31, 104
1, 97200, Note_on_c, 9, 42, 108
1, 97200, Note_on_c, 9, 35, 105
1, 97439, Note_on_c, 9, 31, 0
1, 97439, Note_on_c, 9, 42, 0
1, 97439, Note_on_c, 9, 35, 0
1, 97440, Note_on_c, 9, 40, 100
1, 97440, Note_on_c, 9, 31, 108
1, 97440, Note_on_c, 9, 42, 108
1, 97679, Note_on_c, 9, 40, 0
1, 97679, Note_on_c, 9, 31, 0
1, 97679, Note_on_c, 9, 42, 0
1, 97680, Note_on_c, 9, 31, 111
1, 97680, Note_on_c, 9, 42, 108
1, 97680, Note_on_c, 9, 35, 104
1, 97919, Note_on_c, 9, 31, 0
1, 97919, Note_on_c, 9, 42, 0
1, 97919, Note_on_c, 9, 35, 0
1, 97920, Note_on_c, 9, 49, 104
1, 97920, Note_on_c, 9, 35, 110
1, 98399, Note_on_c, 9, 49, 0
1, 98399, Note_on_c, 9, 35, 0
1, 98400, Note_on_c, 9, 42, 109
1, 98800, Note_on_c, 9, 35, 104
1, 98879, Note_on_c, 9, 42, 0
1, 98879, Note_on_c, 9, 35, 0
1, 98880, Note_on_c, 9, 35, 106
1, 99119, Note_on_c, 9, 35, 0
1, 99120, Note_on_c, 9, 35, 105
1, 99359, Note_on_c, 9, 35, 0
1, 99360, Note_on_c, 9, 42, 109
1, 99600, Note_on_c, 9, 35, 104
1, 99839, Note_on_c, 9, 42, 0
1, 99839, Note_on_c, 9, 35, 0
1, 99840, Note_on_c, 9, 35, 109
1, 100319, Note_on_c, 9, 35, 0
1, 100320, Note_on_c, 9, 42, 109
1, 100720, Note_on_c, 9, 35, 103
1, 100799, Note_on_c, 9, 42, 0
1, 100799, Note_on_c, 9, 35, 0
1, 100800, Note_on_c, 9, 35, 106
1, 101039, Note_on_c, 9, 35, 0
1, 101040, Note_on_c, 9, 35, 105
1, 101279, Note_on_c, 9, 35, 0
1, 101280, Note_on_c, 9, 42, 103
1, 101520, Note_on_c, 9, 35, 104
1, 101759, Note_on_c, 9, 42, 0
1, 101759, Note_on_c, 9, 35, 0
1, 101760, Note_on_c, 9, 35, 106
1, 102239, Note_on_c, 9, 35, 0
1, 102240, Note_on_c, 9, 42, 109
1, 102640, Note_on_c, 9, 35, 104
1, 102719, Note_on_c, 9, 42, 0
1, 102719, Note_on_c, 9, 35, 0
1, 102720, Note_on_c, 9, 35, 106
1, 102959, Note_on_c, 9, 35, 0
1, 102960, Note_on_c, 9, 35, 105
1, 103199, Note_on_c, 9, 35, 0
1, 103200, Note_on_c, 9, 42, 109
1, 103440, Note_on_c, 9, 35, 101
1, 103679, Note_on_c, 9, 42, 0
1, 103679, Note_on_c, 9, 35, 0
1, 103680, Note_on_c, 9, 35, 109
1, 104159, Note_on_c, 9, 35, 0
1, 104160, Note_on_c, 9, 42, 109
1, 104560, Note_on_c, 9, 35, 103
1, 104639, Note_on_c, 9, 42, 0
1, 104639, Note_on_c, 9, 35, 0
1, 104640, Note_on_c, 9, 35, 106
1, 104879, Note_on_c, 9, 35, 0
1, 104880, Note_on_c, 9, 35, 105
1, 105119, Note_on_c, 9, 35, 0
1, 105120, Note_on_c, 9, 42, 103
1, 105360, Note_on_c, 9, 35, 104
1, 105599, Note_on_c, 9, 42, 0
1, 105599, Note_on_c, 9, 35, 0
1, 105600, Note_on_c, 9, 35, 106
1, 106079, Note_on_c, 9, 35, 0
1, 106080, Note_on_c, 9, 42, 109
1, 106480, Note_on_c, 9, 35, 104
1, 106559, Note_on_c, 9, 42, 0
1, 106559, Note_on_c, 9, 35, 0
1, 106560, Note_on_c, 9, 35, 106
1, 106799, Note_on_c, 9, 35, 0
1, 106800, Note_on_c, 9, 35, 105
1, 107039, Note_on_c, 9, 35, 0
1, 107040, Note_on_c, 9, 42, 109
1, 107280, Note_on_c, 9, 35, 101
1, 107519, Note_on_c, 9, 42, 0
1, 107519, Note_on_c, 9, 35, 0
1, 107520, Note_on_c, 9, 35, 109
1, 107999, Note_on_c, 9, 35, 0
1, 108000, Note_on_c, 9, 42, 109
1, 108400, Note_on_c, 9, 35, 103
1, 108479, Note_on_c, 9, 42, 0
1, 108479, Note_on_c, 9, 35, 0
1, 108480, Note_on_c, 9, 35, 106
1, 108719, Note_on_c, 9, 35, 0
1, 108720, Note_on_c, 9, 39, 101
1, 108720, Note_on_c, 9, 35, 105
1, 108959, Note_on_c, 9, 39, 0
1, 108959, Note_on_c, 9, 35, 0
1, 108960, Note_on_c, 9, 39, 101
1, 108960, Note_on_c, 9, 42, 103
1, 109200, Note_on_c, 9, 35, 104
1, 109439, Note_on_c, 9, 39, 0
1, 109439, Note_on_c, 9, 42, 0
1, 109439, Note_on_c, 9, 35, 0
1, 109440, Note_on_c, 9, 35, 109
1, 109919, Note_on_c, 9, 35, 0
1, 109920, Note_on_c, 9, 42, 109
1, 110320, Note_on_c, 9, 35, 104
1, 110399, Note_on_c, 9, 42, 0
1, 110399, Note_on_c, 9, 35, 0
1, 110400, Note_on_c, 9, 35, 106
1, 110639, Note_on_c, 9, 35, 0
1, 110640, Note_on_c, 9, 35, 105
1, 110879, Note_on_c, 9, 35, 0
1, 110880, Note_on_c, 9, 42, 109
1, 111120, Note_on_c, 9, 35, 104
1, 111359, Note_on_c, 9, 42, 0
1, 111359, Note_on_c, 9, 35, 0
1, 111360, Note_on_c, 9, 35, 109
1, 111839, Note_on_c, 9, 35, 0
1, 111840, Note_on_c, 9, 42, 109
1, 112240, Note_on_c, 9, 35, 103
1, 112319, Note_on_c, 9, 42, 0
1, 112319, Note_on_c, 9, 35, 0
1, 112320, Note_on_c, 9, 35, 106
1, 112559, Note_on_c, 9, 35, 0
1, 112560, Note_on_c, 9, 39, 101
1, 112560, Note_on_c, 9, 35, 105
1, 112799, Note_on_c, 9, 39, 0
1, 112799, Note_on_c, 9, 35, 0
1, 112800, Note_on_c, 9, 39, 101
1, 112800, Note_on_c, 9, 42, 103
1, 113040, Note_on_c, 9, 35, 104
1, 113279, Note_on_c, 9, 39, 0
1, 113279, Note_on_c, 9, 42, 0
1, 113279, Note_on_c, 9, 35, 0
1, 113280, Note_on_c, 9, 35, 106
1, 113759, Note_on_c, 9, 35, 0
1, 113760, Note_on_c, 9, 42, 109
1, 114160, Note_on_c, 9, 35, 104
1, 114239, Note_on_c, 9, 42, 0
1, 114239, Note_on_c, 9, 35, 0
1, 114240, Note_on_c, 9, 35, 106
1, 114479, Note_on_c, 9, 35, 0
1, 114480, Note_on_c, 9, 35, 105
1, 114719, Note_on_c, 9, 35, 0
1, 114720, Note_on_c, 9, 42, 109
1, 114960, Note_on_c, 9, 35, 101
1, 115199, Note_on_c, 9, 42, 0
1, 115199, Note_on_c, 9, 35, 0
1, 115200, Note_on_c, 9, 35, 109
1, 115679, Note_on_c, 9, 35, 0
1, 115680, Note_on_c, 9, 42, 109
1, 116080, Note_on_c, 9, 35, 103
1, 116159, Note_on_c, 9, 42, 0
1, 116159, Note_on_c, 9, 35, 0
1, 116160, Note_on_c, 9, 35, 106
1, 116399, Note_on_c, 9, 35, 0
1, 116400, Note_on_c, 9, 39, 101
1, 116400, Note_on_c, 9, 35, 105
1, 116639, Note_on_c, 9, 39, 0
1, 116639, Note_on_c, 9, 35, 0
1, 116640, Note_on_c, 9, 39, 101
1, 116640, Note_on_c, 9, 42, 103
1, 116880, Note_on_c, 9, 35, 104
1, 117119, Note_on_c, 9, 39, 0
1, 117119, Note_on_c, 9, 42, 0
1, 117119, Note_on_c, 9, 35, 0
1, 117120, Note_on_c, 9, 35, 109
1, 117599, Note_on_c, 9, 35, 0
1, 117600, Note_on_c, 9, 42, 109
1, 118000, Note_on_c, 9, 35, 104
1, 118079, Note_on_c, 9, 42, 0
1, 118079, Note_on_c, 9, 35, 0
1, 118080, Note_on_c, 9, 35, 106
1, 118319, Note_on_c, 9, 35, 0
1, 118320, Note_on_c, 9, 35, 105
1, 118559, Note_on_c, 9, 35, 0
1, 118560, Note_on_c, 9, 42, 109
1, 118800, Note_on_c, 9, 35, 104
1, 119039, Note_on_c, 9, 42, 0
1, 119039, Note_on_c, 9, 35, 0
1, 119040, Note_on_c, 9, 35, 109
1, 119519, Note_on_c, 9, 35, 0
1, 119520, Note_on_c, 9, 42, 109
1, 119920, Note_on_c, 9, 35, 103
1, 119999, Note_on_c, 9, 42, 0
1, 119999, Note_on_c, 9, 35, 0
1, 120000, Note_on_c, 9, 35, 106
1, 120239, Note_on_c, 9, 35, 0
1, 120240, Note_on_c, 9, 39, 101
1, 120240, Note_on_c, 9, 35, 105
1, 120479, Note_on_c, 9, 39, 0
1, 120479, Note_on_c, 9, 35, 0
1, 120480, Note_on_c, 9, 39, 101
1, 120480, Note_on_c, 9, 42, 103
1, 120720, Note_on_c, 9, 35, 104
1, 120959, Note_on_c, 9, 39, 0
1, 120959, Note_on_c, 9, 42, 0
1, 120959, Note_on_c, 9, 35, 0
1, 120960, Note_on_c, 9, 42, 108
1, 120960, Note_on_c, 9, 35, 106
1, 121199, Note_on_c, 9, 42, 0
1, 121200, Note_on_c, 9, 42, 108
1, 121439, Note_on_c, 9, 35, 0
1, 121439, Note_on_c, 9, 42, 0
1, 121440, Note_on_c, 9, 40, 100
1, 121440, Note_on_c, 9, 42, 108
1, 121679, Note_on_c, 9, 40, 0
1, 121679, Note_on_c, 9, 42, 0
1, 121680, Note_on_c, 9, 42, 108
1, 121840, Note_on_c, 9, 35, 104
1, 121919, Note_on_c, 9, 42, 0
1, 121919, Note_on_c, 9, 35, 0
1, 121920, Note_on_c, 9, 42, 108
1, 121920, Note_on_c, 9, 35, 106
1, 122159, Note_on_c, 9, 42, 0
1, 122159, Note_on_c, 9, 35, 0
1, 122160, Note_on_c, 9, 42, 108
1, 122160, Note_on_c, 9, 35, 105
1, 122399, Note_on_c, 9, 42, 0
1, 122399, Note_on_c, 9, 35, 0
1, 122400, Note_on_c, 9, 40, 100
1, 122400, Note_on_c, 9, 42, 108
1, 122639, Note_on_c, 9, 40, 0
1, 122639, Note_on_c, 9, 42, 0
1, 122640, Note_on_c, 9, 42, 108
1, 122640, Note_on_c, 9, 35, 101
1, 122879, Note_on_c, 9, 42, 0
1, 122879, Note_on_c, 9, 35, 0
1, 122880, Note_on_c, 9, 42, 108
1, 122880, Note_on_c, 9, 35, 109
1, 123119, Note_on_c, 9, 42, 0
1, 123120, Note_on_c, 9, 42, 108
1, 123359, Note_on_c, 9, 35, 0
1, 123359, Note_on_c, 9, 42, 0
1, 123360, Note_on_c, 9, 40, 100
1, 123360, Note_on_c, 9, 42, 108
1, 123599, Note_on_c, 9, 40, 0
1, 123599, Note_on_c, 9, 42, 0
1, 123600, Note_on_c, 9, 42, 108
1, 123760, Note_on_c, 9, 35, 103
1, 123839, Note_on_c, 9, 42, 0
1, 123839, Note_on_c, 9, 35, 0
1, 123840, Note_on_c, 9, 42, 108
1, 123840, Note_on_c, 9, 35, 106
1, 124079, Note_on_c, 9, 42, 0
1, 124079, Note_on_c, 9, 35, 0
1, 124080, Note_on_c, 9, 31, 104
1, 124080, Note_on_c, 9, 42, 108
1, 124080, Note_on_c, 9, 35, 105
1, 124319, Note_on_c, 9, 31, 0
1, 124319, Note_on_c, 9, 42, 0
1, 124319, Note_on_c, 9, 35, 0
1, 124320, Note_on_c, 9, 40, 100
1, 124320, Note_on_c, 9, 31, 108
1, 124320, Note_on_c, 9, 42, 108
1, 124559, Note_on_c, 9, 40, 0
1, 124559, Note_on_c, 9, 31, 0
1, 124559, Note_on_c, 9, 42, 0
1, 124560, Note_on_c, 9, 31, 111
1, 124560, Note_on_c, 9, 42, 108
1, 124560, Note_on_c, 9, 35, 104
1, 124799, Note_on_c, 9, 31, 0
1, 124799, Note_on_c, 9, 42, 0
1, 124799, Note_on_c, 9, 35, 0
1, 124800, Note_on_c, 9, 42, 108
1, 124800, Note_on_c, 9, 35, 106
1, 125039, Note_on_c, 9, 42, 0
1, 125040, Note_on_c, 9, 42, 108
1, 125279, Note_on_c, 9, 35, 0
1, 125279, Note_on_c, 9, 42, 0
1, 125280, Note_on_c, 9, 40, 100
1, 125280, Note_on_c, 9, 42, 108
1, 125519, Note_on_c, 9, 40, 0
1, 125519, Note_on_c, 9, 42, 0
1, 125520, Note_on_c, 9, 42, 108
1, 125680, Note_on_c, 9, 35, 104
1, 125759, Note_on_c, 9, 42, 0
1, 125759, Note_on_c, 9, 35, 0
1, 125760, Note_on_c, 9, 42, 108
1, 125760, Note_on_c, 9, 35, 106
1, 125999, Note_on_c, 9, 42, 0
1, 125999, Note_on_c, 9, 35, 0
1, 126000, Note_on_c, 9, 42, 108
1, 126000, Note_on_c, 9, 35, 105
1, 126239, Note_on_c, 9, 42, 0
1, 126239, Note_on_c, 9, 35, 0
1, 126240, Note_on_c, 9, 40, 100
1, 126240, Note_on_c, 9, 42, 108
1, 126479, Note_on_c, 9, 40, 0
1, 126479, Note_on_c, 9, 42, 0
1, 126480, Note_on_c, 9, 42, 108
1, 126480, Note_on_c, 9, 35, 101
1, 126719, Note_on_c, 9, 42, 0
1, 126719, Note_on_c, 9, 35, 0
1, 126720, Note_on_c, 9, 42, 108
1, 126720, Note_on_c, 9, 35, 109
1, 126959, Note_on_c, 9, 42, 0
1, 126960, Note_on_c, 9, 42, 108
1, 127199, Note_on_c, 9, 35, 0
1, 127199, Note_on_c, 9, 42, 0
1, 127200, Note_on_c, 9, 40, 100
1, 127200, Note_on_c, 9, 42, 108
1, 127439, Note_on_c, 9, 40, 0
1, 127439, Note_on_c, 9, 42, 0
1, 127440, Note_on_c, 9, 42, 108
1, 127600, Note_on_c, 9, 35, 103
1, 127679, Note_on_c, 9, 42, 0
1, 127679, Note_on_c, 9, 35, 0
1, 127680, Note_on_c, 9, 42, 108
1, 127680, Note_on_c, 9, 35, 106
1, 127919, Note_on_c, 9, 42, 0
1, 127919, Note_on_c, 9, 35, 0
1, 127920, Note_on_c, 9, 31, 104
1, 127920, Note_on_c, 9, 42, 108
1, 127920, Note_on_c, 9, 35, 105
1, 128159, Note_on_c, 9, 31, 0
1, 128159, Note_on_c, 9, 42, 0
1, 128159, Note_on_c, 9, 35, 0
1, 128160, Note_on_c, 9, 40, 100
1, 128160, Note_on_c, 9, 31, 108
1, 128160, Note_on_c, 9, 42, 108
1, 128399, Note_on_c, 9, 40, 0
1, 128399, Note_on_c, 9, 31, 0
1, 128399, Note_on_c, 9, 42, 0
1, 128400, Note_on_c, 9, 31, 111
1, 128400, Note_on_c, 9, 42, 108
1, 128400, Note_on_c, 9, 35, 104
1, 128639, Note_on_c, 9, 31, 0
1, 128639, Note_on_c, 9, 42, 0
1, 128639, Note_on_c, 9, 35, 0
1, 128640, Note_on_c, 9, 42, 108
1, 128640, Note_on_c, 9, 35, 106
1, 128879, Note_on_c, 9, 42, 0
1, 128880, Note_on_c, 9, 42, 108
1, 129119, Note_on_c, 9, 35, 0
1, 129119, Note_on_c, 9, 42, 0
1, 129120, Note_on_c, 9, 40, 100
1, 129120, Note_on_c, 9, 42, 108
1, 129359, Note_on_c, 9, 40, 0
1, 129359, Note_on_c, 9, 42, 0
1, 129360, Note_on_c, 9, 42, 108
1, 129520, Note_on_c, 9, 35, 104
1, 129599, Note_on_c, 9, 42, 0
1, 129599, Note_on_c, 9, 35, 0
1, 129600, Note_on_c, 9, 42, 108
1, 129600, Note_on_c, 9, 35, 106
1, 129839, Note_on_c, 9, 42, 0
1, 129839, Note_on_c, 9, 35, 0
1, 129840, Note_on_c, 9, 42, 108
1, 129840, Note_on_c, 9, 35, 105
1, 130079, Note_on_c, 9, 42, 0
1, 130079, Note_on_c, 9, 35, 0
1, 130080, Note_on_c, 9, 40, 100
1, 130080, Note_on_c, 9, 42, 108
1, 130319, Note_on_c, 9, 40, 0
1, 130319, Note_on_c, 9, 42, 0
1, 130320, Note_on_c, 9, 42, 108
1, 130320, Note_on_c, 9, 35, 101
1, 130559, Note_on_c, 9, 42, 0
1, 130559, Note_on_c, 9, 35, 0
1, 130560, Note_on_c, 9, 42, 108
1, 130560, Note_on_c, 9, 35, 109
1, 130799, Note_on_c, 9, 42, 0
1, 130800, Note_on_c, 9, 42, 108
1, 131039, Note_on_c, 9, 35, 0
1, 131039, Note_on_c, 9, 42, 0
1, 131040, Note_on_c, 9, 40, 100
1, 131040, Note_on_c, 9, 42, 108
1, 131279, Note_on_c, 9, 40, 0
1, 131279, Note_on_c, 9, 42, 0
1, 131280, Note_on_c, 9, 42, 108
1, 131440, Note_on_c, 9, 35, 103
1, 131519, Note_on_c, 9, 42, 0
1, 131519, Note_on_c, 9, 35, 0
1, 131520, Note_on_c, 9, 42, 108
1, 131520, Note_on_c, 9, 35, 106
1, 131759, Note_on_c, 9, 42, 0
1, 131759, Note_on_c, 9, 35, 0
1, 131760, Note_on_c, 9, 31, 104
1, 131760, Note_on_c, 9, 42, 108
1, 131760, Note_on_c, 9, 35, 105
1, 131999, Note_on_c, 9, 31, 0
1, 131999, Note_on_c, 9, 42, 0
1, 131999, Note_on_c, 9, 35, 0
1, 132000, Note_on_c, 9, 40, 100
1, 132000, Note_on_c, 9, 31, 108
1, 132000, Note_on_c, 9, 42, 108
1, 132239, Note_on_c, 9, 40, 0
1, 132239, Note_on_c, 9, 31, 0
1, 132239, Note_on_c, 9, 42, 0
1, 132240, Note_on_c, 9, 31, 111
1, 132240, Note_on_c, 9, 42, 108
1, 132240, Note_on_c, 9, 35, 104
1, 132479, Note_on_c, 9, 31, 0
1, 132479, Note_on_c, 9, 42, 0
1, 132479, Note_on_c, 9, 35, 0
1, 132480, Note_on_c, 9, 42, 108
1, 132480, Note_on_c, 9, 35, 106
1, 132719, Note_on_c, 9, 42, 0
1, 132720, Note_on_c, 9, 42, 108
1, 132959, Note_on_c, 9, 35, 0
1, 132959, Note_on_c, 9, 42, 0
1, 132960, Note_on_c, 9, 40, 100
1, 132960, Note_on_c, 9, 42, 108
1, 133199, Note_on_c, 9, 40, 0
1, 133199, Note_on_c, 9, 42, 0
1, 133200, Note_on_c, 9, 42, 108
1, 133360, Note_on_c, 9, 35, 104
1, 133439, Note_on_c, 9, 42, 0
1, 133439, Note_on_c, 9, 35, 0
1, 133440, Note_on_c, 9, 42, 108
1, 133440, Note_on_c, 9, 35, 106
1, 133679, Note_on_c, 9, 42, 0
1, 133679, Note_on_c, 9, 35, 0
1, 133680, Note_on_c, 9, 42, 108
1, 133680, Note_on_c, 9, 35, 105
1, 133919, Note_on_c, 9, 42, 0
1, 133919, Note_on_c, 9, 35, 0
1, 133920, Note_on_c, 9, 40, 100
1, 133920, Note_on_c, 9, 42, 108
1, 134159, Note_on_c, 9, 40, 0
1, 134159, Note_on_c, 9, 42, 0
1, 134160, Note_on_c, 9, 42, 108
1, 134160, Note_on_c, 9, 35, 101
1, 134399, Note_on_c, 9, 42, 0
1, 134399, Note_on_c, 9, 35, 0
1, 134400, Note_on_c, 9, 42, 108
1, 134400, Note_on_c, 9, 35, 109
1, 134639, Note_on_c, 9, 42, 0
1, 134640, Note_on_c, 9, 42, 108
1, 134879, Note_on_c, 9, 35, 0
1, 134879, Note_on_c, 9, 42, 0
1, 134880, Note_on_c, 9, 40, 100
1, 134880, Note_on_c, 9, 42, 108
1, 135119, Note_on_c, 9, 40, 0
1, 135119, Note_on_c, 9, 42, 0
1, 135120, Note_on_c, 9, 42, 108
1, 135280, Note_on_c, 9, 35, 103
1, 135359, Note_on_c, 9, 42, 0
1, 135359, Note_on_c, 9, 35, 0
1, 135360, Note_on_c, 9, 42, 108
1, 135360, Note_on_c, 9, 35, 106
1, 135599, Note_on_c, 9, 42, 0
1, 135599, Note_on_c, 9, 35, 0
1, 135600, Note_on_c, 9, 31, 104
1, 135600, Note_on_c, 9, 42, 108
1, 135600, Note_on_c, 9, 35, 105
1, 135839, Note_on_c, 9, 31, 0
1, 135839, Note_on_c, 9, 42, 0
1, 135839, Note_on_c, 9, 35, 0
1, 135840, Note_on_c, 9, 40, 100
1, 135840, Note_on_c, 9, 31, 108
1, 135840, Note_on_c, 9, 42, 108
1, 136079, Note_on_c, 9, 40, 0
1, 136079, Note_on_c, 9, 31, 0
1, 136079, Note_on_c, 9, 42, 0
1, 136080, Note_on_c, 9, 31, 111
1, 136080, Note_on_c, 9, 42, 108
1, 136080, Note_on_c, 9, 35, 104
1, 136319, Note_on_c, 9, 31, 0
1, 136319, Note_on_c, 9, 42, 0
1, 136319, Note_on_c, 9, 35, 0
1, 136320, Note_on_c, 9, 42, 108
1, 136320, Note_on_c, 9, 35, 106
1, 136559, Note_on_c, 9, 42, 0
1, 136560, Note_on_c, 9, 42, 108
1, 136799, Note_on_c, 9, 35, 0
1, 136799, Note_on_c, 9, 42, 0
1, 136800, Note_on_c, 9, 40, 100
1, 136800, Note_on_c, 9, 42, 108
1, 137039, Note_on_c, 9, 40, 0
1, 137039, Note_on_c, 9, 42, 0
1, 137040, Note_on_c, 9, 42, 108
1, 137200, Note_on_c, 9, 35, 104
1, 137279, Note_on_c, 9, 42, 0
1, 137279, Note_on_c, 9, 35, 0
1, 137280, Note_on_c, 9, 42, 108
1, 137280, Note_on_c, 9, 35, 106
1, 137519, Note_on_c, 9, 42, 0
1, 137519, Note_on_c, 9, 35, 0
1, 137520, Note_on_c, 9, 42, 108
1, 137520, Note_on_c, 9, 35, 105
1, 137759, Note_on_c, 9, 42, 0
1, 137759, Note_on_c, 9, 35, 0
1, 137760, Note_on_c, 9, 40, 100
1, 137760, Note_on_c, 9, 42, 108
1, 137999, Note_on_c, 9, 40, 0
1, 137999, Note_on_c, 9, 42, 0
1, 138000, Note_on_c, 9, 42, 108
1, 138000, Note_on_c, 9, 35, 101
1, 138239, Note_on_c, 9, 42, 0
1, 138239, Note_on_c, 9, 35, 0
1, 138240, Note_on_c, 9, 42, 108
1, 138240, Note_on_c, 9, 35, 109
1, 138479, Note_on_c, 9, 42, 0
1, 138480, Note_on_c, 9, 42, 108
1, 138719, Note_on_c, 9, 35, 0
1, 138719, Note_on_c, 9, 42, 0
1, 138720, Note_on_c, 9, 40, 100
1, 138720, Note_on_c, 9, 42, 108
1, 138959, Note_on_c, 9, 40, 0
1, 138959, Note_on_c, 9, 42, 0
1, 138960, Note_on_c, 9, 42, 108
1, 139120, Note_on_c, 9, 35, 103
1, 139199, Note_on_c, 9, 42, 0
1, 139199, Note_on_c, 9, 35, 0
1, 139200, Note_on_c, 9, 42, 108
1, 139200, Note_on_c, 9, 35, 106
1, 139439, Note_on_c, 9, 42, 0
1, 139439, Note_on_c, 9, 35, 0
1, 139440, Note_on_c, 9, 31, 104
1, 139440, Note_on_c, 9, 42, 108
1, 139440, Note_on_c, 9, 35, 105
1, 139679, Note_on_c, 9, 31, 0
1, 139679, Note_on_c, 9, 42, 0
1, 139679, Note_on_c, 9, 35, 0
1, 139680, Note_on_c, 9, 40, 100
1, 139680, Note_on_c, 9, 31, 108
1, 139680, Note_on_c, 9, 42, 108
1, 139919, Note_on_c, 9, 40, 0
1, 139919, Note_on_c, 9, 31, 0
1, 139919, Note_on_c, 9, 42, 0
1, 139920, Note_on_c, 9, 31, 111
1, 139920, Note_on_c, 9, 42, 108
1, 139920, Note_on_c, 9, 35, 104
1, 140159, Note_on_c, 9, 31, 0
1, 140159, Note_on_c, 9, 42, 0
1, 140159, Note_on_c, 9, 35, 0
1, 140160, Note_on_c, 9, 42, 108
1, 140160, Note_on_c, 9, 35, 106
1, 140399, Note_on_c, 9, 42, 0
1, 140400, Note_on_c, 9, 42, 108
1, 140639, Note_on_c, 9, 35, 0
1, 140639, Note_on_c, 9, 42, 0
1, 140640, Note_on_c, 9, 40, 100
1, 140640, Note_on_c, 9, 42, 108
1, 140879, Note_on_c, 9, 40, 0
1, 140879, Note_on_c, 9, 42, 0
1, 140880, Note_on_c, 9, 42, 108
1, 141040, Note_on_c, 9, 35, 104
1, 141119, Note_on_c, 9, 42, 0
1, 141119, Note_on_c, 9, 35, 0
1, 141120, Note_on_c, 9, 42, 108
1, 141120, Note_on_c, 9, 35, 106
1, 141359, Note_on_c, 9, 42, 0
1, 141359, Note_on_c, 9, 35, 0
1, 141360, Note_on_c, 9, 42, 108
1, 141360, Note_on_c, 9, 35, 105
1, 141599, Note_on_c, 9, 42, 0
1, 141599, Note_on_c, 9, 35, 0
1, 141600, Note_on_c, 9, 40, 100
1, 141600, Note_on_c, 9, 42, 108
1, 141839, Note_on_c, 9, 40, 0
1, 141839, Note_on_c, 9, 42, 0
1, 141840, Note_on_c, 9, 42, 108
1, 141840, Note_on_c, 9, 35, 101
1, 142079, Note_on_c, 9, 42, 0
1, 142079, Note_on_c, 9, 35, 0
1, 142080, Note_on_c, 9, 42, 108
1, 142080, Note_on_c, 9, 35, 109
1, 142319, Note_on_c, 9, 42, 0
1, 142320, Note_on_c, 9, 42, 108
1, 142559, Note_on_c, 9, 35, 0
1, 142559, Note_on_c, 9, 42, 0
1, 142560, Note_on_c, 9, 40, 100
1, 142560, Note_on_c, 9, 42, 108
1, 142799, Note_on_c, 9, 40, 0
1, 142799, Note_on_c, 9, 42, 0
1, 142800, Note_on_c, 9, 42, 108
1, 142960, Note_on_c, 9, 35, 103
1, 143039, Note_on_c, 9, 42, 0
1, 143039, Note_on_c, 9, 35, 0
1, 143040, Note_on_c, 9, 42, 108
1, 143040, Note_on_c, 9, 35, 106
1, 143279, Note_on_c, 9, 42, 0
1, 143279, Note_on_c, 9, 35, 0
1, 143280, Note_on_c, 9, 31, 104
1, 143280, Note_on_c, 9, 42, 108
1, 143280, Note_on_c, 9, 35, 105
1, 143519, Note_on_c, 9, 31, 0
1, 143519, Note_on_c, 9, 42, 0
1, 143519, Note_on_c, 9, 35, 0
1, 143520, Note_on_c, 9, 40, 100
1, 143520, Note_on_c, 9, 31, 108
1, 143520, Note_on_c, 9, 42, 108
1, 143759, Note_on_c, 9, 40, 0
1, 143759, Note_on_c, 9, 31, 0
1, 143759, Note_on_c, 9, 42, 0
1, 143760, Note_on_c, 9, 31, 111
1, 143760, Note_on_c, 9, 42, 108
1, 143760, Note_on_c, 9, 35, 104
1, 143999, Note_on_c, 9, 31, 0
1, 143999, Note_on_c, 9, 42, 0
1, 143999, Note_on_c, 9, 35, 0
1, 144000, Note_on_c, 9, 42, 108
1, 144000, Note_on_c, 9, 35, 106
1, 144239, Note_on_c, 9, 42, 0
1, 144240, Note_on_c, 9, 42, 108
1, 144479, Note_on_c, 9, 35, 0
1, 144479, Note_on_c, 9, 42, 0
1, 144480, Note_on_c, 9, 40, 100
1, 144480, Note_on_c, 9, 42, 108
1, 144719, Note_on_c, 9, 40, 0
1, 144719, Note_on_c, 9, 42, 0
1, 144720, Note_on_c, 9, 42, 108
1, 144880, Note_on_c, 9, 35, 104
1, 144959, Note_on_c, 9, 42, 0
1, 144959, Note_on_c, 9, 35, 0
1, 144960, Note_on_c, 9, 42, 108
1, 144960, Note_on_c, 9, 35, 106
1, 145199, Note_on_c, 9, 42, 0
1, 145199, Note_on_c, 9, 35, 0
1, 145200, Note_on_c, 9, 42, 108
1, 145200, Note_on_c, 9, 35, 105
1, 145439, Note_on_c, 9, 42, 0
1, 145439, Note_on_c, 9, 35, 0
1, 145440, Note_on_c, 9, 40, 100
1, 145440, Note_on_c, 9, 42, 108
1, 145679, Note_on_c, 9, 40, 0
1, 145679, Note_on_c, 9, 42, 0
1, 145680, Note_on_c, 9, 42, 108
1, 145680, Note_on_c, 9, 35, 101
1, 145919, Note_on_c, 9, 42, 0
1, 145919, Note_on_c, 9, 35, 0
1, 145920, Note_on_c, 9, 42, 108
1, 145920, Note_on_c, 9, 35, 109
1, 146159, Note_on_c, 9, 42, 0
1, 146160, Note_on_c, 9, 42, 108
1, 146399, Note_on_c, 9, 35, 0
1, 146399, Note_on_c, 9, 42, 0
1, 146400, Note_on_c, 9, 40, 100
1, 146400, Note_on_c, 9, 42, 108
1, 146639, Note_on_c, 9, 40, 0
1, 146639, Note_on_c, 9, 42, 0
1, 146640, Note_on_c, 9, 42, 108
1, 146800, Note_on_c, 9, 35, 103
1, 146879, Note_on_c, 9, 42, 0
1, 146879, Note_on_c, 9, 35, 0
1, 146880, Note_on_c, 9, 42, 108
1, 146880, Note_on_c, 9, 35, 106
1, 147119, Note_on_c, 9, 42, 0
1, 147119, Note_on_c, 9, 35, 0
1, 147120, Note_on_c, 9, 31, 104
1, 147120, Note_on_c, 9, 42, 108
1, 147120, Note_on_c, 9, 35, 105
1, 147359, Note_on_c, 9, 31, 0
1, 147359, Note_on_c, 9, 42, 0
1, 147359, Note_on_c, 9, 35, 0
1, 147360, Note_on_c, 9, 40, 100
1, 147360, Note_on_c, 9, 31, 108
1, 147360, Note_on_c, 9, 42, 108
1, 147599, Note_on_c, 9, 40, 0
1, 147599, Note_on_c, 9, 31, 0
1, 147599, Note_on_c, 9, 42, 0
1, 147600, Note_on_c, 9, 31, 111
1, 147600, Note_on_c, 9, 42, 108
1, 147600, Note_on_c, 9, 35, 104
1, 147839, Note_on_c, 9, 31, 0
1, 147839, Note_on_c, 9, 42, 0
1, 147839, Note_on_c, 9, 35, 0
1, 147840, Note_on_c, 9, 42, 108
1, 147840, Note_on_c, 9, 35, 106
1, 148079, Note_on_c, 9, 42, 0
1, 148080, Note_on_c, 9, 42, 108
1, 148319, Note_on_c, 9, 35, 0
1, 148319, Note_on_c, 9, 42, 0
1, 148320, Note_on_c, 9, 40, 100
1, 148320, Note_on_c, 9, 42, 108
1, 148559, Note_on_c, 9, 40, 0
1, 148559, Note_on_c, 9, 42, 0
1, 148560, Note_on_c, 9, 42, 108
1, 148720, Note_on_c, 9, 35, 104
1, 148799, Note_on_c, 9, 42, 0
1, 148799, Note_on_c, 9, 35, 0
1, 148800, Note_on_c, 9, 42, 108
1, 148800, Note_on_c, 9, 35, 106
1, 149039, Note_on_c, 9, 42, 0
1, 149039, Note_on_c, 9, 35, 0
1, 149040, Note_on_c, 9, 42, 108
1, 149040, Note_on_c, 9, 35, 105
1, 149279, Note_on_c, 9, 42, 0
1, 149279, Note_on_c, 9, 35, 0
1, 149280, Note_on_c, 9, 40, 100
1, 149280, Note_on_c, 9, 42, 108
1, 149519, Note_on_c, 9, 40, 0
1, 149519, Note_on_c, 9, 42, 0
1, 149520, Note_on_c, 9, 42, 108
1, 149520, Note_on_c, 9, 35, 101
1, 149759, Note_on_c, 9, 42, 0
1, 149759, Note_on_c, 9, 35, 0
1, 149760, End_track
2, 0, Start_track
2, 0, Key_signature, 0, "major"
2, 0, Control_c, 9, 121, 0
2, 0, Program_c, 9, 0
2, 0, Control_c, 9, 7, 100
2, 0, Control_c, 9, 10, 64
2, 0, Control_c, 9, 91, 0
2, 0, Control_c, 9, 93, 0
2, 0, MIDI_port, 0
2, 17760, Note_on_c, 9, 25, 104
2, 18239, Note_on_c, 9, 25, 0
2, 18720, Note_on_c, 9, 25, 104
2, 19199, Note_on_c, 9, 25, 0
2, 19680, Note_on_c, 9, 25, 104
2, 20159, Note_on_c, 9, 25, 0
2, 20640, Note_on_c, 9, 25, 104
2, 21119, Note_on_c, 9, 25, 0
2, 21600, Note_on_c, 9, 25, 104
2, 22079, Note_on_c, 9, 25, 0
2, 22560, Note_on_c, 9, 25, 104
2, 23039, Note_on_c, 9, 25, 0
2, 23520, Note_on_c, 9, 25, 104
2, 23999, Note_on_c, 9, 25, 0
2, 24480, Note_on_c, 9, 25, 104
2, 24959, Note_on_c, 9, 25, 0
2, 25440, Note_on_c, 9, 25, 104
2, 25919, Note_on_c, 9, 25, 0
2, 26400, Note_on_c, 9, 25, 104
2, 26879, Note_on_c, 9, 25, 0
2, 27360, Note_on_c, 9, 25, 104
2, 27839, Note_on_c, 9, 25, 0
2, 28320, Note_on_c, 9, 25, 104
2, 28799, Note_on_c, 9, 25, 0
2, 29280, Note_on_c, 9, 25, 104
2, 29759, Note_on_c, 9, 25, 0
2, 30240, Note_on_c, 9, 25, 104
2, 30719, Note_on_c, 9, 25, 0
2, 31200, Note_on_c, 9, 25, 104
2, 31679, Note_on_c, 9, 25, 0
2, 32160, Note_on_c, 9, 25, 104
2, 32639, Note_on_c, 9, 25, 0
2, 33120, Note_on_c, 9, 25, 104
2, 33599, Note_on_c, 9, 25, 0
2, 34080, Note_on_c, 9, 25, 104
2, 34559, Note_on_c, 9, 25, 0
2, 35040, Note_on_c, 9, 25, 104
2, 35519, Note_on_c, 9, 25, 0
2, 36000, Note_on_c, 9, 25, 104
2, 36479, Note_on_c, 9, 25, 0
2, 36960, Note_on_c, 9, 25, 104
2, 37439, Note_on_c, 9, 25, 0
2, 37920, Note_on_c, 9, 25, 104
2, 38399, Note_on_c, 9, 25, 0
2, 38880, Note_on_c, 9, 25, 104
2, 39359, Note_on_c, 9, 25, 0
2, 39840, Note_on_c, 9, 25, 104
2, 40319, Note_on_c, 9, 25, 0
2, 40800, Note_on_c, 9, 25, 104
2, 41279, Note_on_c, 9, 25, 0
2, 41760, Note_on_c, 9, 25, 104
2, 42239, Note_on_c, 9, 25, 0
2, 42720, Note_on_c, 9, 25, 104
2, 43199, Note_on_c, 9, 25, 0
2, 43680, Note_on_c, 9, 25, 104
2, 44159, Note_on_c, 9, 25, 0
2, 44640, Note_on_c, 9, 25, 104
2, 45119, Note_on_c, 9, 25, 0
2, 45600, Note_on_c, 9, 25, 104
2, 46079, Note_on_c, 9, 25, 0
2, 46560, Note_on_c, 9, 25, 104
2, 47039, Note_on_c, 9, 25, 0
2, 47520, Note_on_c, 9, 25, 104
2, 47999, Note_on_c, 9, 25, 0
2, 48480, Note_on_c, 9, 25, 104
2, 48959, Note_on_c, 9, 25, 0
2, 49440, Note_on_c, 9, 25, 104
2, 49919, Note_on_c, 9, 25, 0
2, 50400, Note_on_c, 9, 25, 104
2, 50879, Note_on_c, 9, 25, 0
2, 51360, Note_on_c, 9, 25, 104
2, 51839, Note_on_c, 9, 25, 0
2, 52320, Note_on_c, 9, 25, 104
2, 52799, Note_on_c, 9, 25, 0
2, 53280, Note_on_c, 9, 25, 104
2, 53759, Note_on_c, 9, 25, 0
2, 54240, Note_on_c, 9, 25, 104
2, 54719, Note_on_c, 9, 25, 0
2, 55200, Note_on_c, 9, 25, 104
2, 55679, Note_on_c, 9, 25, 0
2, 56160, Note_on_c, 9, 25, 104
2, 56639, Note_on_c, 9, 25, 0
2, 57120, Note_on_c, 9, 25, 104
2, 57599, Note_on_c, 9, 25, 0
2, 58080, Note_on_c, 9, 25, 104
2, 58559, Note_on_c, 9, 25, 0
2, 59040, Note_on_c, 9, 25, 104
2, 59519, Note_on_c, 9, 25, 0
2, 60000, Note_on_c, 9, 25, 104
2, 60479, Note_on_c, 9, 25, 0
2, 60960, Note_on_c, 9, 25, 104
2, 61439, Note_on_c, 9, 25, 0
2, 61920, Note_on_c, 9, 25, 104
2, 62399, Note_on_c, 9, 25, 0
2, 62880, Note_on_c, 9, 25, 104
2, 63359, Note_on_c, 9, 25, 0
2, 63840, Note_on_c, 9, 25, 104
2, 64319, Note_on_c, 9, 25, 0
2, 64800, Note_on_c, 9, 25, 104
2, 65279, Note_on_c, 9, 25, 0
2, 65760, Note_on_c, 9, 25, 104
2, 66239, Note_on_c, 9, 25, 0
2, 66720, Note_on_c, 9, 25, 104
2, 67199, Note_on_c, 9, 25, 0
2, 67680, Note_on_c, 9, 25, 104
2, 68159, Note_on_c, 9, 25, 0
2, 68640, Note_on_c, 9, 25, 104
2, 69119, Note_on_c, 9, 25, 0
2, 69600, Note_on_c, 9, 25, 104
2, 70079, Note_on_c, 9, 25, 0
2, 70560, Note_on_c, 9, 25, 104
2, 71039, Note_on_c, 9, 25, 0
2, 71520, Note_on_c, 9, 25, 104
2, 71999, Note_on_c, 9, 25, 0
2, 72480, Note_on_c, 9, 25, 104
2, 72959, Note_on_c, 9, 25, 0
2, 73440, Note_on_c, 9, 25, 104
2, 73919, Note_on_c, 9, 25, 0
2, 74400, Note_on_c, 9, 25, 104
2, 74879, Note_on_c, 9, 25, 0
2, 75360, Note_on_c, 9, 25, 104
2, 75839, Note_on_c, 9, 25, 0
2, 76320, Note_on_c, 9, 25, 104
2, 76799, Note_on_c, 9, 25, 0
2, 77280, Note_on_c, 9, 25, 104
2, 77759, Note_on_c, 9, 25, 0
2, 78240, Note_on_c, 9, 25, 104
2, 78719, Note_on_c, 9, 25, 0
2, 79200, Note_on_c, 9, 25, 104
2, 79679, Note_on_c, 9, 25, 0
2, 80160, Note_on_c, 9, 25, 104
2, 80639, Note_on_c, 9, 25, 0
2, 81120, Note_on_c, 9, 25, 104
2, 81599, Note_on_c, 9, 25, 0
2, 82080, Note_on_c, 9, 25, 104
2, 82559, Note_on_c, 9, 25, 0
2, 83040, Note_on_c, 9, 25, 104
2, 83519, Note_on_c, 9, 25, 0
2, 84000, Note_on_c, 9, 25, 104
2, 84479, Note_on_c, 9, 25, 0
2, 84960, Note_on_c, 9, 25, 104
2, 85439, Note_on_c, 9, 25, 0
2, 85920, Note_on_c, 9, 25, 104
2, 86399, Note_on_c, 9, 25, 0
2, 86880, Note_on_c, 9, 25, 104
2, 87359, Note_on_c, 9, 25, 0
2, 87840, Note_on_c, 9, 25, 104
2, 88319, Note_on_c, 9, 25, 0
2, 88800, Note_on_c, 9, 25, 104
2, 89279, Note_on_c, 9, 25, 0
2, 89760, Note_on_c, 9, 25, 104
2, 90239, Note_on_c, 9, 25, 0
2, 90720, Note_on_c, 9, 25, 104
2, 91199, Note_on_c, 9, 25, 0
2, 91680, Note_on_c, 9, 25, 104
2, 92159, Note_on_c, 9, 25, 0
2, 92640, Note_on_c, 9, 25, 104
2, 93119, Note_on_c, 9, 25, 0
2, 93600, Note_on_c, 9, 25, 104
2, 94079, Note_on_c, 9, 25, 0
2, 94560, Note_on_c, 9, 25, 104
2, 95039, Note_on_c, 9, 25, 0
2, 95520, Note_on_c, 9, 25, 104
2, 95999, Note_on_c, 9, 25, 0
2, 96480, Note_on_c, 9, 25, 104
2, 96959, Note_on_c, 9, 25, 0
2, 97440, Note_on_c, 9, 25, 104
2, 97919, Note_on_c, 9, 25, 0
2, 98400, Note_on_c, 9, 25, 104
2, 98879, Note_on_c, 9, 25, 0
2, 99360, Note_on_c, 9, 25, 104
2, 99839, Note_on_c, 9, 25, 0
2, 100320, Note_on_c, 9, 25, 104
2, 100799, Note_on_c, 9, 25, 0
2, 101280, Note_on_c, 9, 25, 104
2, 101759, Note_on_c, 9, 25, 0
2, 102240, Note_on_c, 9, 25, 104
2, 102719, Note_on_c, 9, 25, 0
2, 103200, Note_on_c, 9, 25, 104
2, 103679, Note_on_c, 9, 25, 0
2, 104160, Note_on_c, 9, 25, 104
2, 104639, Note_on_c, 9, 25, 0
2, 105120, Note_on_c, 9, 25, 104
2, 105599, Note_on_c, 9, 25, 0
2, 106080, Note_on_c, 9, 25, 104
2, 106559, Note_on_c, 9, 25, 0
2, 107040, Note_on_c, 9, 25, 104
2, 107519, Note_on_c, 9, 25, 0
2, 108000, Note_on_c, 9, 25, 104
2, 108479, Note_on_c, 9, 25, 0
2, 108960, Note_on_c, 9, 25, 104
2, 109439, Note_on_c, 9, 25, 0
2, 109920, Note_on_c, 9, 25, 104
2, 110399, Note_on_c, 9, 25, 0
2, 110880, Note_on_c, 9, 25, 104
2, 111359, Note_on_c, 9, 25, 0
2, 111840, Note_on_c, 9, 25, 104
2, 112319, Note_on_c, 9, 25, 0
2, 112800, Note_on_c, 9, 25, 104
2, 113279, Note_on_c, 9, 25, 0
2, 113760, Note_on_c, 9, 25, 104
2, 114239, Note_on_c, 9, 25, 0
2, 114720, Note_on_c, 9, 25, 104
2, 115199, Note_on_c, 9, 25, 0
2, 115680, Note_on_c, 9, 25, 104
2, 116159, Note_on_c, 9, 25, 0
2, 116640, Note_on_c, 9, 25, 104
2, 117119, Note_on_c, 9, 25, 0
2, 117600, Note_on_c, 9, 25, 104
2, 118079, Note_on_c, 9, 25, 0
2, 118560, Note_on_c, 9, 25, 104
2, 119039, Note_on_c, 9, 25, 0
2, 119520, Note_on_c, 9, 25, 104
2, 119999, Note_on_c, 9, 25, 0
2, 120480, Note_on_c, 9, 25, 104
2, 120959, Note_on_c, 9, 25, 0
2, 121440, Note_on_c, 9, 25, 104
2, 121919, Note_on_c, 9, 25, 0
2, 122400, Note_on_c, 9, 25, 104
2, 122879, Note_on_c, 9, 25, 0
2, 123360, Note_on_c, 9, 25, 104
2, 123839, Note_on_c, 9, 25, 0
2, 124320, Note_on_c, 9, 25, 104
2, 124799, Note_on_c, 9, 25, 0
2, 125280, Note_on_c, 9, 25, 104
2, 125759, Note_on_c, 9, 25, 0
2, 126240, Note_on_c, 9, 25, 104
2, 126719, Note_on_c, 9, 25, 0
2, 127200, Note_on_c, 9, 25, 104
2, 127679, Note_on_c, 9, 25, 0
2, 128160, Note_on_c, 9, 25, 104
2, 128639, Note_on_c, 9, 25, 0
2, 129120, Note_on_c, 9, 25, 104
2, 129599, Note_on_c, 9, 25, 0
2, 130080, Note_on_c, 9, 25, 104
2, 130559, Note_on_c, 9, 25, 0
2, 131040, Note_on_c, 9, 25, 104
2, 131519, Note_on_c, 9, 25, 0
2, 132000, Note_on_c, 9, 25, 104
2, 132479, Note_on_c, 9, 25, 0
2, 132960, Note_on_c, 9, 25, 104
2, 133439, Note_on_c, 9, 25, 0
2, 133920, Note_on_c, 9, 25, 104
2, 134399, Note_on_c, 9, 25, 0
2, 134880, Note_on_c, 9, 25, 104
2, 135359, Note_on_c, 9, 25, 0
2, 135840, Note_on_c, 9, 25, 104
2, 136319, Note_on_c, 9, 25, 0
2, 136800, Note_on_c, 9, 25, 104
2, 137279, Note_on_c, 9, 25, 0
2, 137760, Note_on_c, 9, 25, 104
2, 138239, Note_on_c, 9, 25, 0
2, 138720, Note_on_c, 9, 25, 104
2, 139199, Note_on_c, 9, 25, 0
2, 139680, Note_on_c, 9, 25, 104
2, 140159, Note_on_c, 9, 25, 0
2, 140640, Note_on_c, 9, 25, 104
2, 141119, Note_on_c, 9, 25, 0
2, 141600, Note_on_c, 9, 25, 104
2, 142079, Note_on_c, 9, 25, 0
2, 142560, Note_on_c, 9, 25, 104
2, 143039, Note_on_c, 9, 25, 0
2, 143520, Note_on_c, 9, 25, 104
2, 143999, Note_on_c, 9, 25, 0
2, 144480, Note_on_c, 9, 25, 104
2, 144959, Note_on_c, 9, 25, 0
2, 145440, Note_on_c, 9, 25, 104
2, 145919, Note_on_c, 9, 25, 0
2, 146400, Note_on_c, 9, 25, 104
2, 146879, Note_on_c, 9, 25, 0
2, 147360, Note_on_c, 9, 25, 104
2, 147839, Note_on_c, 9, 25, 0
2, 148320, Note_on_c, 9, 25, 104
2, 148799, Note_on_c, 9, 25, 0
2, 149280, Note_on_c, 9, 25, 104
2, 149759, Note_on_c, 9, 25, 0
2, 149760, End_track
3, 0, Start_track
3, 0, Key_signature, 0, "major"
3, 0, Control_c, 9, 121, 0
3, 0, Program_c, 9, 0
3, 0, Control_c, 9, 7, 100
3, 0, Control_c, 9, 10, 64
3, 0, Control_c, 9, 91, 0
3, 0, Control_c, 9, 93, 0
3, 0, MIDI_port, 0
3, 38400, Note_on_c, 9, 31, 114
3, 38879, Note_on_c, 9, 31, 0
3, 38880, Note_on_c, 9, 31, 114
3, 39359, Note_on_c, 9, 31, 0
3, 39360, Note_on_c, 9, 31, 102
3, 39599, Note_on_c, 9, 31, 0
3, 39600, Note_on_c, 9, 31, 106
3, 39839, Note_on_c, 9, 31, 0
3, 39840, Note_on_c, 9, 31, 110
3, 40079, Note_on_c, 9, 31, 0
3, 40080, Note_on_c, 9, 31, 109
3, 40319, Note_on_c, 9, 31, 0
3, 40320, Note_on_c, 9, 49, 117
3, 40799, Note_on_c, 9, 49, 0
3, 65280, Note_on_c, 9, 31, 114
3, 65759, Note_on_c, 9, 31, 0
3, 65760, Note_on_c, 9, 31, 114
3, 66239, Note_on_c, 9, 31, 0
3, 66240, Note_on_c, 9, 31, 102
3, 66479, Note_on_c, 9, 31, 0
3, 66480, Note_on_c, 9, 31, 106
3, 66719, Note_on_c, 9, 31, 0
3, 66720, Note_on_c, 9, 31, 110
3, 66959, Note_on_c, 9, 31, 0
3, 66960, Note_on_c, 9, 31, 109
3, 67199, Note_on_c, 9, 31, 0
3, 67200, Note_on_c, 9, 49, 117
3, 67679, Note_on_c, 9, 49, 0
3, 92160, Note_on_c, 9, 31, 56
3, 92399, Note_on_c, 9, 31, 0
3, 92400, Note_on_c, 9, 31, 65
3, 92639, Note_on_c, 9, 31, 0
3, 92640, Note_on_c, 9, 31, 74
3, 92879, Note_on_c, 9, 31, 0
3, 92880, Note_on_c, 9, 31, 83
3, 93119, Note_on_c, 9, 31, 0
3, 93120, Note_on_c, 9, 31, 92
3, 93359, Note_on_c, 9, 31, 0
3, 93360, Note_on_c, 9, 31, 101
3, 93599, Note_on_c, 9, 31, 0
3, 93600, Note_on_c, 9, 31, 110
3, 93839, Note_on_c, 9, 31, 0
3, 93840, Note_on_c, 9, 31, 119
3, 94079, Note_on_c, 9, 31, 0
3, 94080, Note_on_c, 9, 49, 117
3, 94559, Note_on_c, 9, 49, 0
3, 119040, Note_on_c, 9, 31, 114
3, 119519, Note_on_c, 9, 31, 0
3, 119520, Note_on_c, 9, 31, 114
3, 119999, Note_on_c, 9, 31, 0
3, 120240, Note_on_c, 9, 31, 106
3, 120479, Note_on_c, 9, 31, 0
3, 120480, Note_on_c, 9, 31, 110
3, 120719, Note_on_c, 9, 31, 0
3, 120720, Note_on_c, 9, 31, 109
3, 120959, Note_on_c, 9, 31, 0
3, 120960, Note_on_c, 9, 49, 117
3, 121439, Note_on_c, 9, 49, 0
3, 124800, Note_on_c, 9, 49, 117
3, 125279, Note_on_c, 9, 49, 0
3, 128640, Note_on_c, 9, 49, 117
3, 129119, Note_on_c, 9, 49, 0
3, 132480, Note_on_c, 9, 49, 117
3, 132959, Note_on_c, 9, 49, 0
3, 136320, Note_on_c, 9, 49, 117
3, 136799, Note_on_c, 9, 49, 0
3, 140160, Note_on_c, 9, 49, 117
3, 140639, Note_on_c, 9, 49, 0
3, 144000, Note_on_c, 9, 49, 117
3, 144479, Note_on_c, 9, 49, 0
3, 147840, Note_on_c, 9, 49, 117
3, 148319, Note_on_c, 9, 49, 0
3, 148320, End_track
0, 0, End_of_file
