0, 0, Header, 1, 12, 192
1, 0, Start_track
1, 0, Title_t, "untitled"
1, 0, Text_t, "       \012"
1, 0, Text_t, "       \012"
1, 0, Text_t, "Track-R\012"
1, 0, Text_t, "Track-1\012"
1, 0, Text_t, "Track-2\012"
1, 0, Text_t, "Track-3\012"
1, 0, Text_t, "Track-4\012"
1, 0, Text_t, "Track-5\012"
1, 0, Text_t, "Track-6\012"
1, 0, Text_t, "Track-7\012"
1, 0, Text_t, "Track-8\012"
1, 0, Text_t, "       \012"
1, 0, Text_t, "       \012"
1, 0, Text_t, "Track-R\012"
1, 0, Text_t, "Track-1\012"
1, 0, Text_t, "Track-2\012"
1, 0, Text_t, "Track-3\012"
1, 0, Text_t, "Track-4\012"
1, 0, Text_t, "Track-5\012"
1, 0, Text_t, "Track-6\012"
1, 0, Text_t, "Track-7\012"
1, 0, Text_t, "Track-8\012"
1, 0, Text_t, "       \012"
1, 0, SMPTE_offset, 96, 0, 3, 0, 0
1, 0, Time_signature, 2, 2, 24, 8
1, 0, Key_signature, 0, "major"
1, 0, Tempo, 659341
1, 384, Time_signature, 8, 2, 24, 8
1, 6528, Time_signature, 2, 2, 24, 8
1, 6538, Tempo, 652174
1, 6636, Tempo, 645161
1, 6662, Tempo, 631579
1, 6716, Tempo, 618557
1, 6738, Tempo, 612245
1, 6756, Tempo, 606061
1, 6790, Tempo, 600000
1, 6808, Tempo, 588235
1, 6822, Tempo, 582524
1, 6834, Tempo, 576923
1, 6912, Time_signature, 4, 2, 24, 8
1, 6958, Tempo, 571429
1, 7354, Tempo, 566038
1, 7354, End_track
2, 0, Start_track
2, 0, MIDI_port, 0
2, 0, Title_t, "Track-R             "
2, 0, Control_c, 9, 7, 115
2, 384, Note_on_c, 9, 51, 80
2, 408, Note_on_c, 9, 51, 0
2, 1920, Note_on_c, 9, 51, 80
2, 1944, Note_on_c, 9, 51, 0
2, 3456, Note_on_c, 9, 51, 80
2, 3480, Note_on_c, 9, 51, 0
2, 4992, Note_on_c, 9, 51, 80
2, 5016, Note_on_c, 9, 51, 0
2, 6816, Note_on_c, 9, 61, 97
2, 6840, Note_on_c, 9, 61, 0
2, 6864, Note_on_c, 9, 61, 113
2, 6888, Note_on_c, 9, 61, 0
2, 6912, Note_on_c, 9, 35, 96
2, 6912, Note_on_c, 9, 42, 80
2, 6936, Note_on_c, 9, 42, 0
2, 6960, Note_on_c, 9, 35, 0
2, 6960, Note_on_c, 9, 42, 64
2, 6984, Note_on_c, 9, 42, 0
2, 7008, Note_on_c, 9, 42, 80
2, 7032, Note_on_c, 9, 42, 0
2, 7056, Note_on_c, 9, 42, 64
2, 7080, Note_on_c, 9, 42, 0
2, 7104, Note_on_c, 9, 35, 96
2, 7104, Note_on_c, 9, 38, 112
2, 7104, Note_on_c, 9, 42, 80
2, 7104, Note_on_c, 9, 46, 80
2, 7128, Note_on_c, 9, 46, 0
2, 7128, Note_on_c, 9, 42, 0
2, 7152, Note_on_c, 9, 38, 0
2, 7152, Note_on_c, 9, 35, 0
2, 7152, Note_on_c, 9, 42, 80
2, 7176, Note_on_c, 9, 42, 0
2, 7200, Note_on_c, 9, 42, 64
2, 7224, Note_on_c, 9, 42, 0
2, 7248, Note_on_c, 9, 42, 96
2, 7248, Note_on_c, 9, 46, 112
2, 7272, Note_on_c, 9, 46, 0
2, 7272, Note_on_c, 9, 42, 0
2, 7296, Note_on_c, 9, 35, 96
2, 7296, Note_on_c, 9, 42, 80
2, 7320, Note_on_c, 9, 42, 0
2, 7344, Note_on_c, 9, 35, 0
2, 7344, Note_on_c, 9, 42, 64
2, 7344, Note_on_c, 9, 46, 112
2, 7368, Note_on_c, 9, 46, 0
2, 7368, Note_on_c, 9, 42, 0
2, 7392, Note_on_c, 9, 42, 80
2, 7416, Note_on_c, 9, 42, 0
2, 7440, Note_on_c, 9, 42, 80
2, 7464, Note_on_c, 9, 42, 0
2, 7488, Note_on_c, 9, 35, 96
2, 7488, Note_on_c, 9, 38, 112
2, 7488, Note_on_c, 9, 42, 64
2, 7488, Note_on_c, 9, 46, 112
2, 7512, Note_on_c, 9, 46, 0
2, 7512, Note_on_c, 9, 42, 0
2, 7536, Note_on_c, 9, 38, 0
2, 7536, Note_on_c, 9, 35, 0
2, 7536, Note_on_c, 9, 42, 96
2, 7560, Note_on_c, 9, 42, 0
2, 7584, Note_on_c, 9, 42, 80
2, 7608, Note_on_c, 9, 42, 0
2, 7632, Note_on_c, 9, 42, 64
2, 7656, Note_on_c, 9, 42, 0
2, 7680, Note_on_c, 9, 35, 96
2, 7680, Note_on_c, 9, 42, 80
2, 7704, Note_on_c, 9, 42, 0
2, 7728, Note_on_c, 9, 35, 0
2, 7728, Note_on_c, 9, 42, 64
2, 7752, Note_on_c, 9, 42, 0
2, 7776, Note_on_c, 9, 42, 80
2, 7800, Note_on_c, 9, 42, 0
2, 7824, Note_on_c, 9, 42, 64
2, 7848, Note_on_c, 9, 42, 0
2, 7872, Note_on_c, 9, 35, 96
2, 7872, Note_on_c, 9, 38, 112
2, 7872, Note_on_c, 9, 42, 80
2, 7872, Note_on_c, 9, 46, 80
2, 7896, Note_on_c, 9, 46, 0
2, 7896, Note_on_c, 9, 42, 0
2, 7920, Note_on_c, 9, 38, 0
2, 7920, Note_on_c, 9, 35, 0
2, 7920, Note_on_c, 9, 42, 80
2, 7944, Note_on_c, 9, 42, 0
2, 7968, Note_on_c, 9, 42, 64
2, 7992, Note_on_c, 9, 42, 0
2, 8016, Note_on_c, 9, 42, 96
2, 8016, Note_on_c, 9, 46, 112
2, 8040, Note_on_c, 9, 46, 0
2, 8040, Note_on_c, 9, 42, 0
2, 8064, Note_on_c, 9, 35, 96
2, 8064, Note_on_c, 9, 42, 80
2, 8088, Note_on_c, 9, 42, 0
2, 8112, Note_on_c, 9, 35, 0
2, 8112, Note_on_c, 9, 42, 64
2, 8112, Note_on_c, 9, 46, 112
2, 8136, Note_on_c, 9, 46, 0
2, 8136, Note_on_c, 9, 42, 0
2, 8160, Note_on_c, 9, 42, 80
2, 8184, Note_on_c, 9, 42, 0
2, 8208, Note_on_c, 9, 42, 80
2, 8232, Note_on_c, 9, 42, 0
2, 8256, Note_on_c, 9, 35, 96
2, 8256, Note_on_c, 9, 38, 112
2, 8256, Note_on_c, 9, 42, 64
2, 8256, Note_on_c, 9, 46, 112
2, 8280, Note_on_c, 9, 46, 0
2, 8280, Note_on_c, 9, 42, 0
2, 8304, Note_on_c, 9, 38, 0
2, 8304, Note_on_c, 9, 35, 0
2, 8304, Note_on_c, 9, 42, 96
2, 8328, Note_on_c, 9, 42, 0
2, 8352, Note_on_c, 9, 42, 80
2, 8376, Note_on_c, 9, 42, 0
2, 8400, Note_on_c, 9, 42, 64
2, 8424, Note_on_c, 9, 42, 0
2, 8448, Note_on_c, 9, 35, 96
2, 8448, Note_on_c, 9, 42, 80
2, 8472, Note_on_c, 9, 42, 0
2, 8496, Note_on_c, 9, 35, 0
2, 8496, Note_on_c, 9, 42, 64
2, 8520, Note_on_c, 9, 42, 0
2, 8544, Note_on_c, 9, 42, 80
2, 8568, Note_on_c, 9, 42, 0
2, 8592, Note_on_c, 9, 42, 64
2, 8616, Note_on_c, 9, 42, 0
2, 8640, Note_on_c, 9, 35, 96
2, 8640, Note_on_c, 9, 38, 112
2, 8640, Note_on_c, 9, 42, 80
2, 8640, Note_on_c, 9, 46, 80
2, 8664, Note_on_c, 9, 46, 0
2, 8664, Note_on_c, 9, 42, 0
2, 8688, Note_on_c, 9, 38, 0
2, 8688, Note_on_c, 9, 35, 0
2, 8688, Note_on_c, 9, 42, 80
2, 8712, Note_on_c, 9, 42, 0
2, 8736, Note_on_c, 9, 42, 64
2, 8760, Note_on_c, 9, 42, 0
2, 8784, Note_on_c, 9, 42, 96
2, 8784, Note_on_c, 9, 46, 112
2, 8808, Note_on_c, 9, 46, 0
2, 8808, Note_on_c, 9, 42, 0
2, 8832, Note_on_c, 9, 35, 96
2, 8832, Note_on_c, 9, 42, 80
2, 8856, Note_on_c, 9, 42, 0
2, 8880, Note_on_c, 9, 35, 0
2, 8880, Note_on_c, 9, 42, 64
2, 8880, Note_on_c, 9, 46, 112
2, 8904, Note_on_c, 9, 46, 0
2, 8904, Note_on_c, 9, 42, 0
2, 8928, Note_on_c, 9, 42, 80
2, 8952, Note_on_c, 9, 42, 0
2, 8976, Note_on_c, 9, 42, 80
2, 9000, Note_on_c, 9, 42, 0
2, 9024, Note_on_c, 9, 35, 96
2, 9024, Note_on_c, 9, 38, 112
2, 9024, Note_on_c, 9, 42, 64
2, 9024, Note_on_c, 9, 46, 112
2, 9048, Note_on_c, 9, 46, 0
2, 9048, Note_on_c, 9, 42, 0
2, 9072, Note_on_c, 9, 38, 0
2, 9072, Note_on_c, 9, 35, 0
2, 9072, Note_on_c, 9, 42, 96
2, 9096, Note_on_c, 9, 42, 0
2, 9120, Note_on_c, 9, 42, 80
2, 9144, Note_on_c, 9, 42, 0
2, 9168, Note_on_c, 9, 42, 64
2, 9192, Note_on_c, 9, 42, 0
2, 9216, Note_on_c, 9, 35, 96
2, 9216, Note_on_c, 9, 42, 80
2, 9240, Note_on_c, 9, 42, 0
2, 9264, Note_on_c, 9, 35, 0
2, 9264, Note_on_c, 9, 42, 64
2, 9288, Note_on_c, 9, 42, 0
2, 9312, Note_on_c, 9, 42, 80
2, 9336, Note_on_c, 9, 42, 0
2, 9360, Note_on_c, 9, 42, 64
2, 9384, Note_on_c, 9, 42, 0
2, 9408, Note_on_c, 9, 35, 96
2, 9408, Note_on_c, 9, 38, 112
2, 9408, Note_on_c, 9, 42, 80
2, 9408, Note_on_c, 9, 46, 80
2, 9432, Note_on_c, 9, 46, 0
2, 9432, Note_on_c, 9, 42, 0
2, 9456, Note_on_c, 9, 38, 0
2, 9456, Note_on_c, 9, 35, 0
2, 9456, Note_on_c, 9, 42, 80
2, 9480, Note_on_c, 9, 42, 0
2, 9504, Note_on_c, 9, 42, 64
2, 9528, Note_on_c, 9, 42, 0
2, 9552, Note_on_c, 9, 42, 96
2, 9552, Note_on_c, 9, 46, 112
2, 9576, Note_on_c, 9, 46, 0
2, 9576, Note_on_c, 9, 42, 0
2, 9600, Note_on_c, 9, 35, 96
2, 9600, Note_on_c, 9, 42, 80
2, 9624, Note_on_c, 9, 42, 0
2, 9648, Note_on_c, 9, 35, 0
2, 9648, Note_on_c, 9, 42, 64
2, 9648, Note_on_c, 9, 46, 112
2, 9672, Note_on_c, 9, 46, 0
2, 9672, Note_on_c, 9, 42, 0
2, 9696, Note_on_c, 9, 42, 80
2, 9720, Note_on_c, 9, 42, 0
2, 9744, Note_on_c, 9, 42, 80
2, 9768, Note_on_c, 9, 42, 0
2, 9792, Note_on_c, 9, 35, 96
2, 9792, Note_on_c, 9, 38, 112
2, 9792, Note_on_c, 9, 42, 64
2, 9792, Note_on_c, 9, 46, 112
2, 9816, Note_on_c, 9, 46, 0
2, 9816, Note_on_c, 9, 42, 0
2, 9840, Note_on_c, 9, 38, 0
2, 9840, Note_on_c, 9, 35, 0
2, 9840, Note_on_c, 9, 42, 96
2, 9864, Note_on_c, 9, 42, 0
2, 9888, Note_on_c, 9, 42, 80
2, 9912, Note_on_c, 9, 42, 0
2, 9936, Note_on_c, 9, 42, 64
2, 9960, Note_on_c, 9, 42, 0
2, 9984, Note_on_c, 9, 35, 96
2, 9984, Note_on_c, 9, 42, 80
2, 10008, Note_on_c, 9, 42, 0
2, 10032, Note_on_c, 9, 35, 0
2, 10032, Note_on_c, 9, 42, 64
2, 10056, Note_on_c, 9, 42, 0
2, 10080, Note_on_c, 9, 42, 80
2, 10104, Note_on_c, 9, 42, 0
2, 10128, Note_on_c, 9, 42, 64
2, 10152, Note_on_c, 9, 42, 0
2, 10176, Note_on_c, 9, 35, 96
2, 10176, Note_on_c, 9, 38, 112
2, 10176, Note_on_c, 9, 42, 80
2, 10176, Note_on_c, 9, 46, 80
2, 10200, Note_on_c, 9, 46, 0
2, 10200, Note_on_c, 9, 42, 0
2, 10224, Note_on_c, 9, 38, 0
2, 10224, Note_on_c, 9, 35, 0
2, 10224, Note_on_c, 9, 42, 80
2, 10248, Note_on_c, 9, 42, 0
2, 10272, Note_on_c, 9, 42, 64
2, 10296, Note_on_c, 9, 42, 0
2, 10320, Note_on_c, 9, 42, 96
2, 10320, Note_on_c, 9, 46, 112
2, 10344, Note_on_c, 9, 46, 0
2, 10344, Note_on_c, 9, 42, 0
2, 10368, Note_on_c, 9, 35, 96
2, 10368, Note_on_c, 9, 42, 80
2, 10392, Note_on_c, 9, 42, 0
2, 10416, Note_on_c, 9, 35, 0
2, 10416, Note_on_c, 9, 42, 64
2, 10416, Note_on_c, 9, 46, 112
2, 10440, Note_on_c, 9, 46, 0
2, 10440, Note_on_c, 9, 42, 0
2, 10464, Note_on_c, 9, 42, 80
2, 10488, Note_on_c, 9, 42, 0
2, 10512, Note_on_c, 9, 42, 80
2, 10536, Note_on_c, 9, 42, 0
2, 10560, Note_on_c, 9, 35, 96
2, 10560, Note_on_c, 9, 38, 112
2, 10560, Note_on_c, 9, 42, 64
2, 10560, Note_on_c, 9, 46, 112
2, 10584, Note_on_c, 9, 46, 0
2, 10584, Note_on_c, 9, 42, 0
2, 10608, Note_on_c, 9, 38, 0
2, 10608, Note_on_c, 9, 35, 0
2, 10608, Note_on_c, 9, 42, 96
2, 10632, Note_on_c, 9, 42, 0
2, 10656, Note_on_c, 9, 42, 80
2, 10680, Note_on_c, 9, 42, 0
2, 10704, Note_on_c, 9, 42, 64
2, 10728, Note_on_c, 9, 42, 0
2, 10752, Note_on_c, 9, 35, 96
2, 10752, Note_on_c, 9, 42, 80
2, 10776, Note_on_c, 9, 42, 0
2, 10800, Note_on_c, 9, 35, 0
2, 10800, Note_on_c, 9, 42, 64
2, 10824, Note_on_c, 9, 42, 0
2, 10848, Note_on_c, 9, 42, 80
2, 10872, Note_on_c, 9, 42, 0
2, 10896, Note_on_c, 9, 42, 64
2, 10920, Note_on_c, 9, 42, 0
2, 10944, Note_on_c, 9, 35, 96
2, 10944, Note_on_c, 9, 38, 112
2, 10944, Note_on_c, 9, 42, 80
2, 10944, Note_on_c, 9, 46, 80
2, 10968, Note_on_c, 9, 46, 0
2, 10968, Note_on_c, 9, 42, 0
2, 10992, Note_on_c, 9, 38, 0
2, 10992, Note_on_c, 9, 35, 0
2, 10992, Note_on_c, 9, 42, 80
2, 11016, Note_on_c, 9, 42, 0
2, 11040, Note_on_c, 9, 42, 64
2, 11064, Note_on_c, 9, 42, 0
2, 11088, Note_on_c, 9, 42, 96
2, 11088, Note_on_c, 9, 46, 112
2, 11112, Note_on_c, 9, 46, 0
2, 11112, Note_on_c, 9, 42, 0
2, 11136, Note_on_c, 9, 35, 96
2, 11136, Note_on_c, 9, 42, 80
2, 11160, Note_on_c, 9, 42, 0
2, 11184, Note_on_c, 9, 35, 0
2, 11184, Note_on_c, 9, 42, 64
2, 11184, Note_on_c, 9, 46, 112
2, 11208, Note_on_c, 9, 46, 0
2, 11208, Note_on_c, 9, 42, 0
2, 11232, Note_on_c, 9, 42, 80
2, 11256, Note_on_c, 9, 42, 0
2, 11280, Note_on_c, 9, 42, 80
2, 11304, Note_on_c, 9, 42, 0
2, 11328, Note_on_c, 9, 35, 96
2, 11328, Note_on_c, 9, 38, 112
2, 11328, Note_on_c, 9, 42, 64
2, 11328, Note_on_c, 9, 46, 112
2, 11352, Note_on_c, 9, 46, 0
2, 11352, Note_on_c, 9, 42, 0
2, 11376, Note_on_c, 9, 38, 0
2, 11376, Note_on_c, 9, 35, 0
2, 11376, Note_on_c, 9, 42, 96
2, 11400, Note_on_c, 9, 42, 0
2, 11424, Note_on_c, 9, 42, 80
2, 11448, Note_on_c, 9, 42, 0
2, 11472, Note_on_c, 9, 42, 64
2, 11496, Note_on_c, 9, 42, 0
2, 11520, Note_on_c, 9, 35, 96
2, 11520, Note_on_c, 9, 42, 80
2, 11544, Note_on_c, 9, 42, 0
2, 11568, Note_on_c, 9, 35, 0
2, 11568, Note_on_c, 9, 42, 64
2, 11592, Note_on_c, 9, 42, 0
2, 11616, Note_on_c, 9, 42, 80
2, 11640, Note_on_c, 9, 42, 0
2, 11664, Note_on_c, 9, 42, 64
2, 11688, Note_on_c, 9, 42, 0
2, 11712, Note_on_c, 9, 35, 96
2, 11712, Note_on_c, 9, 38, 112
2, 11712, Note_on_c, 9, 42, 80
2, 11712, Note_on_c, 9, 46, 80
2, 11736, Note_on_c, 9, 46, 0
2, 11736, Note_on_c, 9, 42, 0
2, 11760, Note_on_c, 9, 38, 0
2, 11760, Note_on_c, 9, 35, 0
2, 11760, Note_on_c, 9, 42, 80
2, 11784, Note_on_c, 9, 42, 0
2, 11808, Note_on_c, 9, 42, 64
2, 11832, Note_on_c, 9, 42, 0
2, 11856, Note_on_c, 9, 42, 96
2, 11856, Note_on_c, 9, 46, 112
2, 11880, Note_on_c, 9, 46, 0
2, 11880, Note_on_c, 9, 42, 0
2, 11904, Note_on_c, 9, 35, 96
2, 11904, Note_on_c, 9, 42, 80
2, 11928, Note_on_c, 9, 42, 0
2, 11952, Note_on_c, 9, 35, 0
2, 11952, Note_on_c, 9, 42, 64
2, 11952, Note_on_c, 9, 46, 112
2, 11976, Note_on_c, 9, 46, 0
2, 11976, Note_on_c, 9, 42, 0
2, 12000, Note_on_c, 9, 42, 80
2, 12024, Note_on_c, 9, 42, 0
2, 12048, Note_on_c, 9, 42, 80
2, 12072, Note_on_c, 9, 42, 0
2, 12096, Note_on_c, 9, 35, 96
2, 12096, Note_on_c, 9, 38, 112
2, 12096, Note_on_c, 9, 42, 64
2, 12096, Note_on_c, 9, 46, 112
2, 12120, Note_on_c, 9, 46, 0
2, 12120, Note_on_c, 9, 42, 0
2, 12144, Note_on_c, 9, 38, 0
2, 12144, Note_on_c, 9, 35, 0
2, 12144, Note_on_c, 9, 42, 96
2, 12168, Note_on_c, 9, 42, 0
2, 12192, Note_on_c, 9, 42, 80
2, 12216, Note_on_c, 9, 42, 0
2, 12240, Note_on_c, 9, 42, 64
2, 12264, Note_on_c, 9, 42, 0
2, 12288, Note_on_c, 9, 35, 96
2, 12288, Note_on_c, 9, 42, 80
2, 12312, Note_on_c, 9, 42, 0
2, 12336, Note_on_c, 9, 35, 0
2, 12336, Note_on_c, 9, 42, 64
2, 12360, Note_on_c, 9, 42, 0
2, 12384, Note_on_c, 9, 42, 80
2, 12408, Note_on_c, 9, 42, 0
2, 12432, Note_on_c, 9, 42, 64
2, 12456, Note_on_c, 9, 42, 0
2, 12480, Note_on_c, 9, 35, 96
2, 12480, Note_on_c, 9, 38, 112
2, 12480, Note_on_c, 9, 42, 80
2, 12504, Note_on_c, 9, 42, 0
2, 12504, Note_on_c, 9, 38, 0
2, 12528, Note_on_c, 9, 35, 0
2, 12528, Note_on_c, 9, 42, 80
2, 12552, Note_on_c, 9, 42, 0
2, 12576, Note_on_c, 9, 42, 64
2, 12600, Note_on_c, 9, 42, 0
2, 12624, Note_on_c, 9, 42, 96
2, 12648, Note_on_c, 9, 42, 0
2, 12672, Note_on_c, 9, 35, 96
2, 12672, Note_on_c, 9, 42, 80
2, 12672, Note_on_c, 9, 48, 96
2, 12696, Note_on_c, 9, 48, 0
2, 12696, Note_on_c, 9, 42, 0
2, 12720, Note_on_c, 9, 35, 0
2, 12720, Note_on_c, 9, 42, 64
2, 12744, Note_on_c, 9, 42, 0
2, 12768, Note_on_c, 9, 42, 80
2, 12768, Note_on_c, 9, 45, 96
2, 12792, Note_on_c, 9, 45, 0
2, 12792, Note_on_c, 9, 42, 0
2, 12816, Note_on_c, 9, 42, 80
2, 12840, Note_on_c, 9, 42, 0
2, 12864, Note_on_c, 9, 35, 96
2, 12864, Note_on_c, 9, 38, 112
2, 12864, Note_on_c, 9, 42, 64
2, 12888, Note_on_c, 9, 42, 0
2, 12888, Note_on_c, 9, 38, 0
2, 12912, Note_on_c, 9, 35, 0
2, 12912, Note_on_c, 9, 42, 96
2, 12936, Note_on_c, 9, 42, 0
2, 12960, Note_on_c, 9, 38, 80
2, 12960, Note_on_c, 9, 42, 80
2, 12984, Note_on_c, 9, 42, 0
2, 12984, Note_on_c, 9, 38, 0
2, 13008, Note_on_c, 9, 38, 112
2, 13008, Note_on_c, 9, 42, 64
2, 13032, Note_on_c, 9, 42, 0
2, 13032, Note_on_c, 9, 38, 0
2, 13056, Note_on_c, 9, 35, 96
2, 13056, Note_on_c, 9, 42, 80
2, 13080, Note_on_c, 9, 42, 0
2, 13104, Note_on_c, 9, 35, 0
2, 13104, Note_on_c, 9, 42, 64
2, 13128, Note_on_c, 9, 42, 0
2, 13152, Note_on_c, 9, 42, 80
2, 13176, Note_on_c, 9, 42, 0
2, 13200, Note_on_c, 9, 42, 64
2, 13224, Note_on_c, 9, 42, 0
2, 13248, Note_on_c, 9, 35, 96
2, 13248, Note_on_c, 9, 38, 112
2, 13248, Note_on_c, 9, 42, 80
2, 13272, Note_on_c, 9, 42, 0
2, 13296, Note_on_c, 9, 38, 0
2, 13296, Note_on_c, 9, 35, 0
2, 13296, Note_on_c, 9, 42, 80
2, 13320, Note_on_c, 9, 42, 0
2, 13344, Note_on_c, 9, 42, 64
2, 13368, Note_on_c, 9, 42, 0
2, 13392, Note_on_c, 9, 42, 96
2, 13416, Note_on_c, 9, 42, 0
2, 13440, Note_on_c, 9, 35, 96
2, 13440, Note_on_c, 9, 42, 80
2, 13464, Note_on_c, 9, 42, 0
2, 13488, Note_on_c, 9, 35, 0
2, 13488, Note_on_c, 9, 42, 64
2, 13512, Note_on_c, 9, 42, 0
2, 13536, Note_on_c, 9, 42, 80
2, 13560, Note_on_c, 9, 42, 0
2, 13584, Note_on_c, 9, 42, 80
2, 13608, Note_on_c, 9, 42, 0
2, 13632, Note_on_c, 9, 35, 96
2, 13632, Note_on_c, 9, 38, 112
2, 13632, Note_on_c, 9, 42, 64
2, 13656, Note_on_c, 9, 42, 0
2, 13680, Note_on_c, 9, 38, 0
2, 13680, Note_on_c, 9, 35, 0
2, 13680, Note_on_c, 9, 42, 96
2, 13704, Note_on_c, 9, 42, 0
2, 13728, Note_on_c, 9, 42, 80
2, 13752, Note_on_c, 9, 42, 0
2, 13776, Note_on_c, 9, 42, 64
2, 13800, Note_on_c, 9, 42, 0
2, 13824, Note_on_c, 9, 35, 96
2, 13824, Note_on_c, 9, 42, 80
2, 13848, Note_on_c, 9, 42, 0
2, 13872, Note_on_c, 9, 35, 0
2, 13872, Note_on_c, 9, 42, 64
2, 13896, Note_on_c, 9, 42, 0
2, 13920, Note_on_c, 9, 42, 80
2, 13944, Note_on_c, 9, 42, 0
2, 13968, Note_on_c, 9, 42, 64
2, 13992, Note_on_c, 9, 42, 0
2, 14016, Note_on_c, 9, 35, 96
2, 14016, Note_on_c, 9, 38, 112
2, 14016, Note_on_c, 9, 42, 80
2, 14040, Note_on_c, 9, 42, 0
2, 14064, Note_on_c, 9, 38, 0
2, 14064, Note_on_c, 9, 35, 0
2, 14064, Note_on_c, 9, 42, 80
2, 14088, Note_on_c, 9, 42, 0
2, 14112, Note_on_c, 9, 42, 64
2, 14136, Note_on_c, 9, 42, 0
2, 14160, Note_on_c, 9, 42, 96
2, 14184, Note_on_c, 9, 42, 0
2, 14208, Note_on_c, 9, 35, 96
2, 14208, Note_on_c, 9, 42, 80
2, 14232, Note_on_c, 9, 42, 0
2, 14256, Note_on_c, 9, 35, 0
2, 14256, Note_on_c, 9, 42, 64
2, 14280, Note_on_c, 9, 42, 0
2, 14304, Note_on_c, 9, 42, 80
2, 14328, Note_on_c, 9, 42, 0
2, 14352, Note_on_c, 9, 42, 80
2, 14376, Note_on_c, 9, 42, 0
2, 14400, Note_on_c, 9, 35, 96
2, 14400, Note_on_c, 9, 38, 112
2, 14400, Note_on_c, 9, 42, 64
2, 14424, Note_on_c, 9, 42, 0
2, 14448, Note_on_c, 9, 38, 0
2, 14448, Note_on_c, 9, 35, 0
2, 14448, Note_on_c, 9, 42, 96
2, 14472, Note_on_c, 9, 42, 0
2, 14496, Note_on_c, 9, 42, 80
2, 14520, Note_on_c, 9, 42, 0
2, 14544, Note_on_c, 9, 42, 64
2, 14568, Note_on_c, 9, 42, 0
2, 14592, Note_on_c, 9, 35, 96
2, 14592, Note_on_c, 9, 42, 80
2, 14616, Note_on_c, 9, 42, 0
2, 14640, Note_on_c, 9, 35, 0
2, 14640, Note_on_c, 9, 42, 64
2, 14664, Note_on_c, 9, 42, 0
2, 14688, Note_on_c, 9, 42, 80
2, 14712, Note_on_c, 9, 42, 0
2, 14736, Note_on_c, 9, 42, 64
2, 14760, Note_on_c, 9, 42, 0
2, 14784, Note_on_c, 9, 35, 96
2, 14784, Note_on_c, 9, 38, 112
2, 14784, Note_on_c, 9, 42, 80
2, 14808, Note_on_c, 9, 42, 0
2, 14832, Note_on_c, 9, 38, 0
2, 14832, Note_on_c, 9, 35, 0
2, 14832, Note_on_c, 9, 42, 80
2, 14856, Note_on_c, 9, 42, 0
2, 14880, Note_on_c, 9, 42, 64
2, 14904, Note_on_c, 9, 42, 0
2, 14928, Note_on_c, 9, 42, 96
2, 14952, Note_on_c, 9, 42, 0
2, 14976, Note_on_c, 9, 35, 96
2, 14976, Note_on_c, 9, 42, 80
2, 15000, Note_on_c, 9, 42, 0
2, 15024, Note_on_c, 9, 35, 0
2, 15024, Note_on_c, 9, 42, 64
2, 15048, Note_on_c, 9, 42, 0
2, 15072, Note_on_c, 9, 42, 80
2, 15096, Note_on_c, 9, 42, 0
2, 15120, Note_on_c, 9, 42, 80
2, 15144, Note_on_c, 9, 42, 0
2, 15168, Note_on_c, 9, 35, 96
2, 15168, Note_on_c, 9, 38, 112
2, 15168, Note_on_c, 9, 42, 64
2, 15192, Note_on_c, 9, 42, 0
2, 15216, Note_on_c, 9, 38, 0
2, 15216, Note_on_c, 9, 35, 0
2, 15216, Note_on_c, 9, 42, 96
2, 15240, Note_on_c, 9, 42, 0
2, 15264, Note_on_c, 9, 42, 80
2, 15288, Note_on_c, 9, 42, 0
2, 15312, Note_on_c, 9, 42, 64
2, 15336, Note_on_c, 9, 42, 0
2, 15360, Note_on_c, 9, 35, 96
2, 15360, Note_on_c, 9, 42, 80
2, 15384, Note_on_c, 9, 42, 0
2, 15408, Note_on_c, 9, 35, 0
2, 15408, Note_on_c, 9, 42, 64
2, 15432, Note_on_c, 9, 42, 0
2, 15456, Note_on_c, 9, 42, 80
2, 15480, Note_on_c, 9, 42, 0
2, 15504, Note_on_c, 9, 42, 64
2, 15528, Note_on_c, 9, 42, 0
2, 15552, Note_on_c, 9, 35, 96
2, 15552, Note_on_c, 9, 38, 112
2, 15552, Note_on_c, 9, 42, 80
2, 15576, Note_on_c, 9, 42, 0
2, 15600, Note_on_c, 9, 38, 0
2, 15600, Note_on_c, 9, 35, 0
2, 15600, Note_on_c, 9, 42, 80
2, 15624, Note_on_c, 9, 42, 0
2, 15648, Note_on_c, 9, 42, 64
2, 15672, Note_on_c, 9, 42, 0
2, 15696, Note_on_c, 9, 42, 96
2, 15720, Note_on_c, 9, 42, 0
2, 15744, Note_on_c, 9, 35, 96
2, 15744, Note_on_c, 9, 42, 80
2, 15768, Note_on_c, 9, 42, 0
2, 15792, Note_on_c, 9, 35, 0
2, 15792, Note_on_c, 9, 42, 64
2, 15816, Note_on_c, 9, 42, 0
2, 15840, Note_on_c, 9, 42, 80
2, 15864, Note_on_c, 9, 42, 0
2, 15888, Note_on_c, 9, 42, 80
2, 15912, Note_on_c, 9, 42, 0
2, 15936, Note_on_c, 9, 35, 96
2, 15936, Note_on_c, 9, 38, 112
2, 15936, Note_on_c, 9, 42, 64
2, 15960, Note_on_c, 9, 42, 0
2, 15984, Note_on_c, 9, 38, 0
2, 15984, Note_on_c, 9, 35, 0
2, 15984, Note_on_c, 9, 42, 96
2, 16008, Note_on_c, 9, 42, 0
2, 16032, Note_on_c, 9, 42, 80
2, 16056, Note_on_c, 9, 42, 0
2, 16080, Note_on_c, 9, 42, 64
2, 16104, Note_on_c, 9, 42, 0
2, 16128, Note_on_c, 9, 35, 96
2, 16128, Note_on_c, 9, 42, 80
2, 16152, Note_on_c, 9, 42, 0
2, 16176, Note_on_c, 9, 35, 0
2, 16176, Note_on_c, 9, 42, 64
2, 16200, Note_on_c, 9, 42, 0
2, 16224, Note_on_c, 9, 42, 80
2, 16248, Note_on_c, 9, 42, 0
2, 16272, Note_on_c, 9, 42, 64
2, 16296, Note_on_c, 9, 42, 0
2, 16320, Note_on_c, 9, 35, 96
2, 16320, Note_on_c, 9, 38, 112
2, 16320, Note_on_c, 9, 42, 80
2, 16344, Note_on_c, 9, 42, 0
2, 16368, Note_on_c, 9, 38, 0
2, 16368, Note_on_c, 9, 35, 0
2, 16368, Note_on_c, 9, 42, 80
2, 16392, Note_on_c, 9, 42, 0
2, 16416, Note_on_c, 9, 42, 64
2, 16440, Note_on_c, 9, 42, 0
2, 16464, Note_on_c, 9, 42, 96
2, 16488, Note_on_c, 9, 42, 0
2, 16512, Note_on_c, 9, 35, 96
2, 16512, Note_on_c, 9, 42, 80
2, 16536, Note_on_c, 9, 42, 0
2, 16560, Note_on_c, 9, 35, 0
2, 16560, Note_on_c, 9, 42, 64
2, 16584, Note_on_c, 9, 42, 0
2, 16608, Note_on_c, 9, 42, 80
2, 16632, Note_on_c, 9, 42, 0
2, 16656, Note_on_c, 9, 42, 80
2, 16680, Note_on_c, 9, 42, 0
2, 16704, Note_on_c, 9, 35, 96
2, 16704, Note_on_c, 9, 38, 112
2, 16704, Note_on_c, 9, 42, 64
2, 16728, Note_on_c, 9, 42, 0
2, 16752, Note_on_c, 9, 38, 0
2, 16752, Note_on_c, 9, 35, 0
2, 16752, Note_on_c, 9, 42, 96
2, 16776, Note_on_c, 9, 42, 0
2, 16800, Note_on_c, 9, 42, 80
2, 16824, Note_on_c, 9, 42, 0
2, 16848, Note_on_c, 9, 42, 64
2, 16872, Note_on_c, 9, 42, 0
2, 16896, Note_on_c, 9, 35, 96
2, 16896, Note_on_c, 9, 42, 80
2, 16920, Note_on_c, 9, 42, 0
2, 16944, Note_on_c, 9, 35, 0
2, 16944, Note_on_c, 9, 42, 64
2, 16968, Note_on_c, 9, 42, 0
2, 16992, Note_on_c, 9, 42, 80
2, 17016, Note_on_c, 9, 42, 0
2, 17040, Note_on_c, 9, 42, 64
2, 17064, Note_on_c, 9, 42, 0
2, 17088, Note_on_c, 9, 35, 96
2, 17088, Note_on_c, 9, 38, 112
2, 17088, Note_on_c, 9, 42, 80
2, 17112, Note_on_c, 9, 42, 0
2, 17136, Note_on_c, 9, 38, 0
2, 17136, Note_on_c, 9, 35, 0
2, 17136, Note_on_c, 9, 42, 80
2, 17160, Note_on_c, 9, 42, 0
2, 17184, Note_on_c, 9, 42, 64
2, 17208, Note_on_c, 9, 42, 0
2, 17232, Note_on_c, 9, 42, 96
2, 17256, Note_on_c, 9, 42, 0
2, 17280, Note_on_c, 9, 35, 96
2, 17280, Note_on_c, 9, 42, 80
2, 17304, Note_on_c, 9, 42, 0
2, 17328, Note_on_c, 9, 35, 0
2, 17328, Note_on_c, 9, 42, 64
2, 17352, Note_on_c, 9, 42, 0
2, 17376, Note_on_c, 9, 42, 80
2, 17400, Note_on_c, 9, 42, 0
2, 17424, Note_on_c, 9, 42, 80
2, 17448, Note_on_c, 9, 42, 0
2, 17472, Note_on_c, 9, 35, 96
2, 17472, Note_on_c, 9, 38, 112
2, 17472, Note_on_c, 9, 42, 64
2, 17496, Note_on_c, 9, 42, 0
2, 17520, Note_on_c, 9, 38, 0
2, 17520, Note_on_c, 9, 35, 0
2, 17520, Note_on_c, 9, 42, 96
2, 17544, Note_on_c, 9, 42, 0
2, 17568, Note_on_c, 9, 42, 80
2, 17592, Note_on_c, 9, 42, 0
2, 17616, Note_on_c, 9, 42, 64
2, 17640, Note_on_c, 9, 42, 0
2, 17664, Note_on_c, 9, 35, 96
2, 17664, Note_on_c, 9, 42, 80
2, 17688, Note_on_c, 9, 42, 0
2, 17712, Note_on_c, 9, 35, 0
2, 17712, Note_on_c, 9, 42, 64
2, 17736, Note_on_c, 9, 42, 0
2, 17760, Note_on_c, 9, 42, 80
2, 17784, Note_on_c, 9, 42, 0
2, 17808, Note_on_c, 9, 42, 64
2, 17832, Note_on_c, 9, 42, 0
2, 17856, Note_on_c, 9, 35, 96
2, 17856, Note_on_c, 9, 38, 112
2, 17856, Note_on_c, 9, 42, 80
2, 17880, Note_on_c, 9, 42, 0
2, 17904, Note_on_c, 9, 38, 0
2, 17904, Note_on_c, 9, 35, 0
2, 17904, Note_on_c, 9, 42, 80
2, 17928, Note_on_c, 9, 42, 0
2, 17952, Note_on_c, 9, 42, 64
2, 17976, Note_on_c, 9, 42, 0
2, 18000, Note_on_c, 9, 42, 96
2, 18024, Note_on_c, 9, 42, 0
2, 18048, Note_on_c, 9, 35, 96
2, 18048, Note_on_c, 9, 42, 80
2, 18072, Note_on_c, 9, 42, 0
2, 18096, Note_on_c, 9, 35, 0
2, 18096, Note_on_c, 9, 42, 64
2, 18120, Note_on_c, 9, 42, 0
2, 18144, Note_on_c, 9, 42, 80
2, 18168, Note_on_c, 9, 42, 0
2, 18192, Note_on_c, 9, 42, 80
2, 18216, Note_on_c, 9, 42, 0
2, 18240, Note_on_c, 9, 35, 96
2, 18240, Note_on_c, 9, 38, 112
2, 18240, Note_on_c, 9, 42, 64
2, 18264, Note_on_c, 9, 42, 0
2, 18288, Note_on_c, 9, 38, 0
2, 18288, Note_on_c, 9, 35, 0
2, 18288, Note_on_c, 9, 42, 96
2, 18312, Note_on_c, 9, 42, 0
2, 18336, Note_on_c, 9, 42, 80
2, 18360, Note_on_c, 9, 42, 0
2, 18384, Note_on_c, 9, 42, 64
2, 18408, Note_on_c, 9, 42, 0
2, 18432, Note_on_c, 9, 35, 96
2, 18432, Note_on_c, 9, 42, 80
2, 18456, Note_on_c, 9, 42, 0
2, 18480, Note_on_c, 9, 35, 0
2, 18480, Note_on_c, 9, 42, 64
2, 18504, Note_on_c, 9, 42, 0
2, 18528, Note_on_c, 9, 42, 80
2, 18552, Note_on_c, 9, 42, 0
2, 18576, Note_on_c, 9, 42, 64
2, 18600, Note_on_c, 9, 42, 0
2, 18624, Note_on_c, 9, 35, 96
2, 18624, Note_on_c, 9, 38, 112
2, 18624, Note_on_c, 9, 42, 80
2, 18648, Note_on_c, 9, 42, 0
2, 18648, Note_on_c, 9, 38, 0
2, 18672, Note_on_c, 9, 35, 0
2, 18672, Note_on_c, 9, 42, 80
2, 18696, Note_on_c, 9, 42, 0
2, 18720, Note_on_c, 9, 42, 64
2, 18744, Note_on_c, 9, 42, 0
2, 18768, Note_on_c, 9, 42, 96
2, 18792, Note_on_c, 9, 42, 0
2, 18816, Note_on_c, 9, 35, 96
2, 18816, Note_on_c, 9, 42, 80
2, 18840, Note_on_c, 9, 42, 0
2, 18864, Note_on_c, 9, 35, 0
2, 18864, Note_on_c, 9, 42, 64
2, 18888, Note_on_c, 9, 42, 0
2, 18912, Note_on_c, 9, 42, 80
2, 18936, Note_on_c, 9, 42, 0
2, 18960, Note_on_c, 9, 42, 80
2, 18984, Note_on_c, 9, 42, 0
2, 19008, Note_on_c, 9, 35, 96
2, 19008, Note_on_c, 9, 38, 112
2, 19008, Note_on_c, 9, 42, 64
2, 19032, Note_on_c, 9, 42, 0
2, 19032, Note_on_c, 9, 38, 0
2, 19056, Note_on_c, 9, 35, 0
2, 19056, Note_on_c, 9, 38, 80
2, 19056, Note_on_c, 9, 42, 96
2, 19080, Note_on_c, 9, 42, 0
2, 19080, Note_on_c, 9, 38, 0
2, 19104, Note_on_c, 9, 38, 96
2, 19104, Note_on_c, 9, 42, 80
2, 19128, Note_on_c, 9, 42, 0
2, 19128, Note_on_c, 9, 38, 0
2, 19152, Note_on_c, 9, 38, 112
2, 19152, Note_on_c, 9, 42, 64
2, 19176, Note_on_c, 9, 42, 0
2, 19176, Note_on_c, 9, 38, 0
2, 19176, Note_on_c, 9, 49, 96
2, 19188, Note_on_c, 9, 49, 0
2, 19200, Note_on_c, 9, 35, 96
2, 19200, Note_on_c, 9, 42, 80
2, 19224, Note_on_c, 9, 42, 0
2, 19248, Note_on_c, 9, 35, 0
2, 19248, Note_on_c, 9, 42, 64
2, 19272, Note_on_c, 9, 42, 0
2, 19296, Note_on_c, 9, 42, 80
2, 19320, Note_on_c, 9, 42, 0
2, 19344, Note_on_c, 9, 42, 64
2, 19368, Note_on_c, 9, 42, 0
2, 19392, Note_on_c, 9, 35, 96
2, 19392, Note_on_c, 9, 38, 112
2, 19392, Note_on_c, 9, 42, 80
2, 19392, Note_on_c, 9, 46, 80
2, 19416, Note_on_c, 9, 46, 0
2, 19416, Note_on_c, 9, 42, 0
2, 19440, Note_on_c, 9, 38, 0
2, 19440, Note_on_c, 9, 35, 0
2, 19440, Note_on_c, 9, 42, 80
2, 19464, Note_on_c, 9, 42, 0
2, 19488, Note_on_c, 9, 42, 64
2, 19512, Note_on_c, 9, 42, 0
2, 19536, Note_on_c, 9, 42, 96
2, 19536, Note_on_c, 9, 46, 112
2, 19560, Note_on_c, 9, 46, 0
2, 19560, Note_on_c, 9, 42, 0
2, 19584, Note_on_c, 9, 35, 96
2, 19584, Note_on_c, 9, 42, 80
2, 19608, Note_on_c, 9, 42, 0
2, 19632, Note_on_c, 9, 35, 0
2, 19632, Note_on_c, 9, 42, 64
2, 19632, Note_on_c, 9, 46, 112
2, 19656, Note_on_c, 9, 46, 0
2, 19656, Note_on_c, 9, 42, 0
2, 19680, Note_on_c, 9, 42, 80
2, 19704, Note_on_c, 9, 42, 0
2, 19728, Note_on_c, 9, 42, 80
2, 19752, Note_on_c, 9, 42, 0
2, 19776, Note_on_c, 9, 35, 96
2, 19776, Note_on_c, 9, 38, 112
2, 19776, Note_on_c, 9, 42, 64
2, 19776, Note_on_c, 9, 46, 112
2, 19800, Note_on_c, 9, 46, 0
2, 19800, Note_on_c, 9, 42, 0
2, 19824, Note_on_c, 9, 38, 0
2, 19824, Note_on_c, 9, 35, 0
2, 19824, Note_on_c, 9, 42, 96
2, 19848, Note_on_c, 9, 42, 0
2, 19872, Note_on_c, 9, 42, 80
2, 19896, Note_on_c, 9, 42, 0
2, 19920, Note_on_c, 9, 42, 64
2, 19944, Note_on_c, 9, 42, 0
2, 19968, Note_on_c, 9, 35, 96
2, 19968, Note_on_c, 9, 42, 80
2, 19992, Note_on_c, 9, 42, 0
2, 20016, Note_on_c, 9, 35, 0
2, 20016, Note_on_c, 9, 42, 64
2, 20040, Note_on_c, 9, 42, 0
2, 20064, Note_on_c, 9, 42, 80
2, 20088, Note_on_c, 9, 42, 0
2, 20112, Note_on_c, 9, 42, 64
2, 20136, Note_on_c, 9, 42, 0
2, 20160, Note_on_c, 9, 35, 96
2, 20160, Note_on_c, 9, 38, 112
2, 20160, Note_on_c, 9, 42, 80
2, 20160, Note_on_c, 9, 46, 80
2, 20184, Note_on_c, 9, 46, 0
2, 20184, Note_on_c, 9, 42, 0
2, 20208, Note_on_c, 9, 38, 0
2, 20208, Note_on_c, 9, 35, 0
2, 20208, Note_on_c, 9, 42, 80
2, 20232, Note_on_c, 9, 42, 0
2, 20256, Note_on_c, 9, 42, 64
2, 20280, Note_on_c, 9, 42, 0
2, 20304, Note_on_c, 9, 42, 96
2, 20304, Note_on_c, 9, 46, 112
2, 20328, Note_on_c, 9, 46, 0
2, 20328, Note_on_c, 9, 42, 0
2, 20352, Note_on_c, 9, 35, 96
2, 20352, Note_on_c, 9, 42, 80
2, 20376, Note_on_c, 9, 42, 0
2, 20400, Note_on_c, 9, 35, 0
2, 20400, Note_on_c, 9, 42, 64
2, 20400, Note_on_c, 9, 46, 112
2, 20424, Note_on_c, 9, 46, 0
2, 20424, Note_on_c, 9, 42, 0
2, 20448, Note_on_c, 9, 42, 80
2, 20472, Note_on_c, 9, 42, 0
2, 20496, Note_on_c, 9, 42, 80
2, 20520, Note_on_c, 9, 42, 0
2, 20544, Note_on_c, 9, 35, 96
2, 20544, Note_on_c, 9, 38, 112
2, 20544, Note_on_c, 9, 42, 64
2, 20544, Note_on_c, 9, 46, 112
2, 20568, Note_on_c, 9, 46, 0
2, 20568, Note_on_c, 9, 42, 0
2, 20592, Note_on_c, 9, 38, 0
2, 20592, Note_on_c, 9, 35, 0
2, 20592, Note_on_c, 9, 42, 96
2, 20616, Note_on_c, 9, 42, 0
2, 20640, Note_on_c, 9, 42, 80
2, 20664, Note_on_c, 9, 42, 0
2, 20688, Note_on_c, 9, 42, 64
2, 20712, Note_on_c, 9, 42, 0
2, 20736, Note_on_c, 9, 35, 96
2, 20736, Note_on_c, 9, 42, 80
2, 20760, Note_on_c, 9, 42, 0
2, 20784, Note_on_c, 9, 35, 0
2, 20784, Note_on_c, 9, 42, 64
2, 20808, Note_on_c, 9, 42, 0
2, 20832, Note_on_c, 9, 42, 80
2, 20856, Note_on_c, 9, 42, 0
2, 20880, Note_on_c, 9, 42, 64
2, 20904, Note_on_c, 9, 42, 0
2, 20928, Note_on_c, 9, 35, 96
2, 20928, Note_on_c, 9, 38, 112
2, 20928, Note_on_c, 9, 42, 80
2, 20928, Note_on_c, 9, 46, 80
2, 20952, Note_on_c, 9, 46, 0
2, 20952, Note_on_c, 9, 42, 0
2, 20976, Note_on_c, 9, 38, 0
2, 20976, Note_on_c, 9, 35, 0
2, 20976, Note_on_c, 9, 42, 80
2, 21000, Note_on_c, 9, 42, 0
2, 21024, Note_on_c, 9, 42, 64
2, 21048, Note_on_c, 9, 42, 0
2, 21072, Note_on_c, 9, 42, 96
2, 21072, Note_on_c, 9, 46, 112
2, 21096, Note_on_c, 9, 46, 0
2, 21096, Note_on_c, 9, 42, 0
2, 21120, Note_on_c, 9, 35, 96
2, 21120, Note_on_c, 9, 42, 80
2, 21144, Note_on_c, 9, 42, 0
2, 21168, Note_on_c, 9, 35, 0
2, 21168, Note_on_c, 9, 42, 64
2, 21168, Note_on_c, 9, 46, 112
2, 21192, Note_on_c, 9, 46, 0
2, 21192, Note_on_c, 9, 42, 0
2, 21216, Note_on_c, 9, 42, 80
2, 21240, Note_on_c, 9, 42, 0
2, 21264, Note_on_c, 9, 42, 80
2, 21288, Note_on_c, 9, 42, 0
2, 21312, Note_on_c, 9, 35, 96
2, 21312, Note_on_c, 9, 38, 112
2, 21312, Note_on_c, 9, 42, 64
2, 21312, Note_on_c, 9, 46, 112
2, 21336, Note_on_c, 9, 46, 0
2, 21336, Note_on_c, 9, 42, 0
2, 21360, Note_on_c, 9, 38, 0
2, 21360, Note_on_c, 9, 35, 0
2, 21360, Note_on_c, 9, 42, 96
2, 21384, Note_on_c, 9, 42, 0
2, 21408, Note_on_c, 9, 42, 80
2, 21432, Note_on_c, 9, 42, 0
2, 21456, Note_on_c, 9, 42, 64
2, 21480, Note_on_c, 9, 42, 0
2, 21504, Note_on_c, 9, 35, 96
2, 21504, Note_on_c, 9, 42, 80
2, 21528, Note_on_c, 9, 42, 0
2, 21552, Note_on_c, 9, 35, 0
2, 21552, Note_on_c, 9, 42, 64
2, 21576, Note_on_c, 9, 42, 0
2, 21600, Note_on_c, 9, 42, 80
2, 21624, Note_on_c, 9, 42, 0
2, 21648, Note_on_c, 9, 42, 64
2, 21672, Note_on_c, 9, 42, 0
2, 21696, Note_on_c, 9, 35, 96
2, 21696, Note_on_c, 9, 38, 112
2, 21696, Note_on_c, 9, 42, 80
2, 21696, Note_on_c, 9, 46, 80
2, 21720, Note_on_c, 9, 46, 0
2, 21720, Note_on_c, 9, 42, 0
2, 21744, Note_on_c, 9, 38, 0
2, 21744, Note_on_c, 9, 35, 0
2, 21744, Note_on_c, 9, 42, 80
2, 21768, Note_on_c, 9, 42, 0
2, 21792, Note_on_c, 9, 42, 64
2, 21816, Note_on_c, 9, 42, 0
2, 21840, Note_on_c, 9, 42, 96
2, 21840, Note_on_c, 9, 46, 112
2, 21864, Note_on_c, 9, 46, 0
2, 21864, Note_on_c, 9, 42, 0
2, 21888, Note_on_c, 9, 35, 96
2, 21888, Note_on_c, 9, 42, 80
2, 21912, Note_on_c, 9, 42, 0
2, 21936, Note_on_c, 9, 35, 0
2, 21936, Note_on_c, 9, 42, 64
2, 21936, Note_on_c, 9, 46, 112
2, 21960, Note_on_c, 9, 46, 0
2, 21960, Note_on_c, 9, 42, 0
2, 21984, Note_on_c, 9, 42, 80
2, 22008, Note_on_c, 9, 42, 0
2, 22032, Note_on_c, 9, 42, 80
2, 22056, Note_on_c, 9, 42, 0
2, 22080, Note_on_c, 9, 35, 96
2, 22080, Note_on_c, 9, 38, 112
2, 22080, Note_on_c, 9, 42, 64
2, 22080, Note_on_c, 9, 46, 112
2, 22104, Note_on_c, 9, 46, 0
2, 22104, Note_on_c, 9, 42, 0
2, 22128, Note_on_c, 9, 38, 0
2, 22128, Note_on_c, 9, 35, 0
2, 22128, Note_on_c, 9, 42, 96
2, 22152, Note_on_c, 9, 42, 0
2, 22176, Note_on_c, 9, 42, 80
2, 22200, Note_on_c, 9, 42, 0
2, 22224, Note_on_c, 9, 42, 64
2, 22248, Note_on_c, 9, 42, 0
2, 22272, Note_on_c, 9, 35, 96
2, 22272, Note_on_c, 9, 42, 80
2, 22296, Note_on_c, 9, 42, 0
2, 22320, Note_on_c, 9, 35, 0
2, 22320, Note_on_c, 9, 42, 64
2, 22344, Note_on_c, 9, 42, 0
2, 22368, Note_on_c, 9, 42, 80
2, 22392, Note_on_c, 9, 42, 0
2, 22416, Note_on_c, 9, 42, 64
2, 22440, Note_on_c, 9, 42, 0
2, 22464, Note_on_c, 9, 35, 96
2, 22464, Note_on_c, 9, 38, 112
2, 22464, Note_on_c, 9, 42, 80
2, 22464, Note_on_c, 9, 46, 80
2, 22488, Note_on_c, 9, 46, 0
2, 22488, Note_on_c, 9, 42, 0
2, 22512, Note_on_c, 9, 38, 0
2, 22512, Note_on_c, 9, 35, 0
2, 22512, Note_on_c, 9, 42, 80
2, 22536, Note_on_c, 9, 42, 0
2, 22560, Note_on_c, 9, 42, 64
2, 22584, Note_on_c, 9, 42, 0
2, 22608, Note_on_c, 9, 42, 96
2, 22608, Note_on_c, 9, 46, 112
2, 22632, Note_on_c, 9, 46, 0
2, 22632, Note_on_c, 9, 42, 0
2, 22656, Note_on_c, 9, 35, 96
2, 22656, Note_on_c, 9, 42, 80
2, 22680, Note_on_c, 9, 42, 0
2, 22704, Note_on_c, 9, 35, 0
2, 22704, Note_on_c, 9, 42, 64
2, 22704, Note_on_c, 9, 46, 112
2, 22728, Note_on_c, 9, 46, 0
2, 22728, Note_on_c, 9, 42, 0
2, 22752, Note_on_c, 9, 42, 80
2, 22776, Note_on_c, 9, 42, 0
2, 22800, Note_on_c, 9, 42, 80
2, 22824, Note_on_c, 9, 42, 0
2, 22848, Note_on_c, 9, 35, 96
2, 22848, Note_on_c, 9, 38, 112
2, 22848, Note_on_c, 9, 42, 64
2, 22848, Note_on_c, 9, 46, 112
2, 22872, Note_on_c, 9, 46, 0
2, 22872, Note_on_c, 9, 42, 0
2, 22896, Note_on_c, 9, 38, 0
2, 22896, Note_on_c, 9, 35, 0
2, 22896, Note_on_c, 9, 42, 96
2, 22920, Note_on_c, 9, 42, 0
2, 22944, Note_on_c, 9, 42, 80
2, 22968, Note_on_c, 9, 42, 0
2, 22992, Note_on_c, 9, 42, 64
2, 23016, Note_on_c, 9, 42, 0
2, 23040, Note_on_c, 9, 35, 96
2, 23040, Note_on_c, 9, 42, 80
2, 23064, Note_on_c, 9, 42, 0
2, 23088, Note_on_c, 9, 35, 0
2, 23088, Note_on_c, 9, 42, 64
2, 23112, Note_on_c, 9, 42, 0
2, 23136, Note_on_c, 9, 42, 80
2, 23160, Note_on_c, 9, 42, 0
2, 23184, Note_on_c, 9, 42, 64
2, 23208, Note_on_c, 9, 42, 0
2, 23232, Note_on_c, 9, 35, 96
2, 23232, Note_on_c, 9, 38, 112
2, 23232, Note_on_c, 9, 42, 80
2, 23232, Note_on_c, 9, 46, 80
2, 23256, Note_on_c, 9, 46, 0
2, 23256, Note_on_c, 9, 42, 0
2, 23280, Note_on_c, 9, 38, 0
2, 23280, Note_on_c, 9, 35, 0
2, 23280, Note_on_c, 9, 42, 80
2, 23304, Note_on_c, 9, 42, 0
2, 23328, Note_on_c, 9, 42, 64
2, 23352, Note_on_c, 9, 42, 0
2, 23376, Note_on_c, 9, 42, 96
2, 23376, Note_on_c, 9, 46, 112
2, 23400, Note_on_c, 9, 46, 0
2, 23400, Note_on_c, 9, 42, 0
2, 23424, Note_on_c, 9, 35, 96
2, 23424, Note_on_c, 9, 42, 80
2, 23448, Note_on_c, 9, 42, 0
2, 23472, Note_on_c, 9, 35, 0
2, 23472, Note_on_c, 9, 42, 64
2, 23472, Note_on_c, 9, 46, 112
2, 23496, Note_on_c, 9, 46, 0
2, 23496, Note_on_c, 9, 42, 0
2, 23520, Note_on_c, 9, 42, 80
2, 23544, Note_on_c, 9, 42, 0
2, 23568, Note_on_c, 9, 42, 80
2, 23592, Note_on_c, 9, 42, 0
2, 23616, Note_on_c, 9, 35, 96
2, 23616, Note_on_c, 9, 38, 112
2, 23616, Note_on_c, 9, 42, 64
2, 23616, Note_on_c, 9, 46, 112
2, 23640, Note_on_c, 9, 46, 0
2, 23640, Note_on_c, 9, 42, 0
2, 23664, Note_on_c, 9, 38, 0
2, 23664, Note_on_c, 9, 35, 0
2, 23664, Note_on_c, 9, 42, 96
2, 23688, Note_on_c, 9, 42, 0
2, 23712, Note_on_c, 9, 42, 80
2, 23736, Note_on_c, 9, 42, 0
2, 23760, Note_on_c, 9, 42, 64
2, 23784, Note_on_c, 9, 42, 0
2, 23808, Note_on_c, 9, 35, 96
2, 23808, Note_on_c, 9, 42, 80
2, 23832, Note_on_c, 9, 42, 0
2, 23856, Note_on_c, 9, 35, 0
2, 23856, Note_on_c, 9, 42, 64
2, 23880, Note_on_c, 9, 42, 0
2, 23904, Note_on_c, 9, 42, 80
2, 23928, Note_on_c, 9, 42, 0
2, 23952, Note_on_c, 9, 42, 64
2, 23976, Note_on_c, 9, 42, 0
2, 24000, Note_on_c, 9, 35, 96
2, 24000, Note_on_c, 9, 38, 112
2, 24000, Note_on_c, 9, 42, 80
2, 24000, Note_on_c, 9, 46, 80
2, 24024, Note_on_c, 9, 46, 0
2, 24024, Note_on_c, 9, 42, 0
2, 24048, Note_on_c, 9, 38, 0
2, 24048, Note_on_c, 9, 35, 0
2, 24048, Note_on_c, 9, 42, 80
2, 24072, Note_on_c, 9, 42, 0
2, 24096, Note_on_c, 9, 42, 64
2, 24120, Note_on_c, 9, 42, 0
2, 24144, Note_on_c, 9, 42, 96
2, 24144, Note_on_c, 9, 46, 112
2, 24168, Note_on_c, 9, 46, 0
2, 24168, Note_on_c, 9, 42, 0
2, 24192, Note_on_c, 9, 35, 96
2, 24192, Note_on_c, 9, 42, 80
2, 24216, Note_on_c, 9, 42, 0
2, 24240, Note_on_c, 9, 35, 0
2, 24240, Note_on_c, 9, 42, 64
2, 24240, Note_on_c, 9, 46, 112
2, 24264, Note_on_c, 9, 46, 0
2, 24264, Note_on_c, 9, 42, 0
2, 24288, Note_on_c, 9, 42, 80
2, 24312, Note_on_c, 9, 42, 0
2, 24336, Note_on_c, 9, 42, 80
2, 24360, Note_on_c, 9, 42, 0
2, 24384, Note_on_c, 9, 35, 96
2, 24384, Note_on_c, 9, 38, 112
2, 24384, Note_on_c, 9, 42, 64
2, 24384, Note_on_c, 9, 46, 112
2, 24408, Note_on_c, 9, 46, 0
2, 24408, Note_on_c, 9, 42, 0
2, 24432, Note_on_c, 9, 38, 0
2, 24432, Note_on_c, 9, 35, 0
2, 24432, Note_on_c, 9, 42, 96
2, 24456, Note_on_c, 9, 42, 0
2, 24480, Note_on_c, 9, 42, 80
2, 24504, Note_on_c, 9, 42, 0
2, 24528, Note_on_c, 9, 42, 64
2, 24552, Note_on_c, 9, 42, 0
2, 24576, Note_on_c, 9, 35, 96
2, 24576, Note_on_c, 9, 42, 80
2, 24600, Note_on_c, 9, 42, 0
2, 24624, Note_on_c, 9, 35, 0
2, 24624, Note_on_c, 9, 42, 64
2, 24648, Note_on_c, 9, 42, 0
2, 24672, Note_on_c, 9, 42, 80
2, 24696, Note_on_c, 9, 42, 0
2, 24720, Note_on_c, 9, 42, 64
2, 24744, Note_on_c, 9, 42, 0
2, 24768, Note_on_c, 9, 35, 96
2, 24768, Note_on_c, 9, 38, 112
2, 24768, Note_on_c, 9, 42, 80
2, 24768, Note_on_c, 9, 46, 80
2, 24792, Note_on_c, 9, 46, 0
2, 24792, Note_on_c, 9, 42, 0
2, 24792, Note_on_c, 9, 38, 0
2, 24816, Note_on_c, 9, 35, 0
2, 24816, Note_on_c, 9, 42, 80
2, 24840, Note_on_c, 9, 42, 0
2, 24864, Note_on_c, 9, 42, 64
2, 24888, Note_on_c, 9, 42, 0
2, 24912, Note_on_c, 9, 42, 96
2, 24912, Note_on_c, 9, 46, 112
2, 24936, Note_on_c, 9, 46, 0
2, 24936, Note_on_c, 9, 42, 0
2, 24960, Note_on_c, 9, 35, 96
2, 24960, Note_on_c, 9, 42, 80
2, 24984, Note_on_c, 9, 42, 0
2, 25008, Note_on_c, 9, 35, 0
2, 25008, Note_on_c, 9, 42, 64
2, 25008, Note_on_c, 9, 46, 112
2, 25032, Note_on_c, 9, 46, 0
2, 25032, Note_on_c, 9, 42, 0
2, 25056, Note_on_c, 9, 38, 80
2, 25056, Note_on_c, 9, 42, 80
2, 25080, Note_on_c, 9, 42, 0
2, 25080, Note_on_c, 9, 38, 0
2, 25104, Note_on_c, 9, 38, 80
2, 25104, Note_on_c, 9, 42, 80
2, 25128, Note_on_c, 9, 42, 0
2, 25128, Note_on_c, 9, 38, 0
2, 25152, Note_on_c, 9, 35, 96
2, 25152, Note_on_c, 9, 38, 80
2, 25152, Note_on_c, 9, 42, 64
2, 25152, Note_on_c, 9, 46, 112
2, 25176, Note_on_c, 9, 46, 0
2, 25176, Note_on_c, 9, 42, 0
2, 25176, Note_on_c, 9, 38, 0
2, 25200, Note_on_c, 9, 35, 0
2, 25200, Note_on_c, 9, 38, 96
2, 25200, Note_on_c, 9, 42, 96
2, 25224, Note_on_c, 9, 42, 0
2, 25224, Note_on_c, 9, 38, 0
2, 25248, Note_on_c, 9, 38, 96
2, 25248, Note_on_c, 9, 42, 80
2, 25272, Note_on_c, 9, 42, 0
2, 25272, Note_on_c, 9, 38, 0
2, 25296, Note_on_c, 9, 38, 112
2, 25296, Note_on_c, 9, 42, 64
2, 25320, Note_on_c, 9, 42, 0
2, 25320, Note_on_c, 9, 38, 0
2, 25320, Note_on_c, 9, 49, 96
2, 25332, Note_on_c, 9, 49, 0
2, 25344, Note_on_c, 9, 35, 96
2, 25344, Note_on_c, 9, 42, 80
2, 25368, Note_on_c, 9, 42, 0
2, 25392, Note_on_c, 9, 35, 0
2, 25392, Note_on_c, 9, 42, 64
2, 25416, Note_on_c, 9, 42, 0
2, 25440, Note_on_c, 9, 42, 80
2, 25464, Note_on_c, 9, 42, 0
2, 25488, Note_on_c, 9, 42, 64
2, 25512, Note_on_c, 9, 42, 0
2, 25536, Note_on_c, 9, 35, 96
2, 25536, Note_on_c, 9, 38, 112
2, 25536, Note_on_c, 9, 42, 80
2, 25560, Note_on_c, 9, 42, 0
2, 25584, Note_on_c, 9, 38, 0
2, 25584, Note_on_c, 9, 35, 0
2, 25584, Note_on_c, 9, 42, 80
2, 25608, Note_on_c, 9, 42, 0
2, 25632, Note_on_c, 9, 42, 64
2, 25656, Note_on_c, 9, 42, 0
2, 25680, Note_on_c, 9, 42, 96
2, 25704, Note_on_c, 9, 42, 0
2, 25728, Note_on_c, 9, 35, 96
2, 25728, Note_on_c, 9, 42, 80
2, 25752, Note_on_c, 9, 42, 0
2, 25776, Note_on_c, 9, 35, 0
2, 25776, Note_on_c, 9, 42, 64
2, 25800, Note_on_c, 9, 42, 0
2, 25824, Note_on_c, 9, 42, 80
2, 25848, Note_on_c, 9, 42, 0
2, 25872, Note_on_c, 9, 42, 80
2, 25896, Note_on_c, 9, 42, 0
2, 25920, Note_on_c, 9, 35, 96
2, 25920, Note_on_c, 9, 38, 112
2, 25920, Note_on_c, 9, 42, 64
2, 25944, Note_on_c, 9, 42, 0
2, 25968, Note_on_c, 9, 38, 0
2, 25968, Note_on_c, 9, 35, 0
2, 25968, Note_on_c, 9, 42, 96
2, 25992, Note_on_c, 9, 42, 0
2, 26016, Note_on_c, 9, 42, 80
2, 26040, Note_on_c, 9, 42, 0
2, 26064, Note_on_c, 9, 42, 64
2, 26088, Note_on_c, 9, 42, 0
2, 26112, Note_on_c, 9, 35, 96
2, 26112, Note_on_c, 9, 42, 80
2, 26136, Note_on_c, 9, 42, 0
2, 26160, Note_on_c, 9, 35, 0
2, 26160, Note_on_c, 9, 42, 64
2, 26184, Note_on_c, 9, 42, 0
2, 26208, Note_on_c, 9, 42, 80
2, 26232, Note_on_c, 9, 42, 0
2, 26256, Note_on_c, 9, 42, 64
2, 26280, Note_on_c, 9, 42, 0
2, 26304, Note_on_c, 9, 35, 96
2, 26304, Note_on_c, 9, 38, 112
2, 26304, Note_on_c, 9, 42, 80
2, 26328, Note_on_c, 9, 42, 0
2, 26352, Note_on_c, 9, 38, 0
2, 26352, Note_on_c, 9, 35, 0
2, 26352, Note_on_c, 9, 42, 80
2, 26376, Note_on_c, 9, 42, 0
2, 26400, Note_on_c, 9, 42, 64
2, 26424, Note_on_c, 9, 42, 0
2, 26448, Note_on_c, 9, 42, 96
2, 26472, Note_on_c, 9, 42, 0
2, 26496, Note_on_c, 9, 35, 96
2, 26496, Note_on_c, 9, 42, 80
2, 26520, Note_on_c, 9, 42, 0
2, 26544, Note_on_c, 9, 35, 0
2, 26544, Note_on_c, 9, 42, 64
2, 26568, Note_on_c, 9, 42, 0
2, 26592, Note_on_c, 9, 42, 80
2, 26616, Note_on_c, 9, 42, 0
2, 26640, Note_on_c, 9, 42, 80
2, 26664, Note_on_c, 9, 42, 0
2, 26688, Note_on_c, 9, 35, 96
2, 26688, Note_on_c, 9, 38, 112
2, 26688, Note_on_c, 9, 42, 64
2, 26712, Note_on_c, 9, 42, 0
2, 26736, Note_on_c, 9, 38, 0
2, 26736, Note_on_c, 9, 35, 0
2, 26736, Note_on_c, 9, 42, 96
2, 26760, Note_on_c, 9, 42, 0
2, 26784, Note_on_c, 9, 42, 80
2, 26808, Note_on_c, 9, 42, 0
2, 26832, Note_on_c, 9, 42, 64
2, 26856, Note_on_c, 9, 42, 0
2, 26880, Note_on_c, 9, 35, 96
2, 26880, Note_on_c, 9, 42, 80
2, 26904, Note_on_c, 9, 42, 0
2, 26928, Note_on_c, 9, 35, 0
2, 26928, Note_on_c, 9, 42, 64
2, 26952, Note_on_c, 9, 42, 0
2, 26976, Note_on_c, 9, 42, 80
2, 27000, Note_on_c, 9, 42, 0
2, 27024, Note_on_c, 9, 42, 64
2, 27048, Note_on_c, 9, 42, 0
2, 27072, Note_on_c, 9, 35, 96
2, 27072, Note_on_c, 9, 38, 112
2, 27072, Note_on_c, 9, 42, 80
2, 27096, Note_on_c, 9, 42, 0
2, 27120, Note_on_c, 9, 38, 0
2, 27120, Note_on_c, 9, 35, 0
2, 27120, Note_on_c, 9, 42, 80
2, 27144, Note_on_c, 9, 42, 0
2, 27168, Note_on_c, 9, 42, 64
2, 27192, Note_on_c, 9, 42, 0
2, 27216, Note_on_c, 9, 42, 96
2, 27240, Note_on_c, 9, 42, 0
2, 27264, Note_on_c, 9, 35, 96
2, 27264, Note_on_c, 9, 42, 80
2, 27288, Note_on_c, 9, 42, 0
2, 27312, Note_on_c, 9, 35, 0
2, 27312, Note_on_c, 9, 42, 64
2, 27336, Note_on_c, 9, 42, 0
2, 27360, Note_on_c, 9, 42, 80
2, 27384, Note_on_c, 9, 42, 0
2, 27408, Note_on_c, 9, 42, 80
2, 27432, Note_on_c, 9, 42, 0
2, 27456, Note_on_c, 9, 35, 96
2, 27456, Note_on_c, 9, 38, 112
2, 27456, Note_on_c, 9, 42, 64
2, 27480, Note_on_c, 9, 42, 0
2, 27504, Note_on_c, 9, 38, 0
2, 27504, Note_on_c, 9, 35, 0
2, 27504, Note_on_c, 9, 42, 96
2, 27528, Note_on_c, 9, 42, 0
2, 27552, Note_on_c, 9, 42, 80
2, 27576, Note_on_c, 9, 42, 0
2, 27600, Note_on_c, 9, 42, 64
2, 27624, Note_on_c, 9, 42, 0
2, 27648, Note_on_c, 9, 35, 96
2, 27648, Note_on_c, 9, 42, 80
2, 27672, Note_on_c, 9, 42, 0
2, 27696, Note_on_c, 9, 35, 0
2, 27696, Note_on_c, 9, 42, 64
2, 27720, Note_on_c, 9, 42, 0
2, 27744, Note_on_c, 9, 42, 80
2, 27768, Note_on_c, 9, 42, 0
2, 27792, Note_on_c, 9, 42, 64
2, 27816, Note_on_c, 9, 42, 0
2, 27840, Note_on_c, 9, 35, 96
2, 27840, Note_on_c, 9, 38, 112
2, 27840, Note_on_c, 9, 42, 80
2, 27864, Note_on_c, 9, 42, 0
2, 27888, Note_on_c, 9, 38, 0
2, 27888, Note_on_c, 9, 35, 0
2, 27888, Note_on_c, 9, 42, 80
2, 27912, Note_on_c, 9, 42, 0
2, 27936, Note_on_c, 9, 42, 64
2, 27960, Note_on_c, 9, 42, 0
2, 27984, Note_on_c, 9, 42, 96
2, 28008, Note_on_c, 9, 42, 0
2, 28032, Note_on_c, 9, 35, 96
2, 28032, Note_on_c, 9, 42, 80
2, 28056, Note_on_c, 9, 42, 0
2, 28080, Note_on_c, 9, 35, 0
2, 28080, Note_on_c, 9, 42, 64
2, 28104, Note_on_c, 9, 42, 0
2, 28128, Note_on_c, 9, 42, 80
2, 28152, Note_on_c, 9, 42, 0
2, 28176, Note_on_c, 9, 42, 80
2, 28200, Note_on_c, 9, 42, 0
2, 28224, Note_on_c, 9, 35, 96
2, 28224, Note_on_c, 9, 38, 112
2, 28224, Note_on_c, 9, 42, 64
2, 28248, Note_on_c, 9, 42, 0
2, 28272, Note_on_c, 9, 38, 0
2, 28272, Note_on_c, 9, 35, 0
2, 28272, Note_on_c, 9, 42, 96
2, 28296, Note_on_c, 9, 42, 0
2, 28320, Note_on_c, 9, 42, 80
2, 28344, Note_on_c, 9, 42, 0
2, 28368, Note_on_c, 9, 42, 64
2, 28392, Note_on_c, 9, 42, 0
2, 28416, Note_on_c, 9, 35, 96
2, 28416, Note_on_c, 9, 42, 80
2, 28440, Note_on_c, 9, 42, 0
2, 28464, Note_on_c, 9, 35, 0
2, 28464, Note_on_c, 9, 42, 64
2, 28488, Note_on_c, 9, 42, 0
2, 28512, Note_on_c, 9, 42, 80
2, 28536, Note_on_c, 9, 42, 0
2, 28560, Note_on_c, 9, 42, 64
2, 28584, Note_on_c, 9, 42, 0
2, 28608, Note_on_c, 9, 35, 96
2, 28608, Note_on_c, 9, 38, 112
2, 28608, Note_on_c, 9, 42, 80
2, 28632, Note_on_c, 9, 42, 0
2, 28656, Note_on_c, 9, 38, 0
2, 28656, Note_on_c, 9, 35, 0
2, 28656, Note_on_c, 9, 42, 80
2, 28680, Note_on_c, 9, 42, 0
2, 28704, Note_on_c, 9, 42, 64
2, 28728, Note_on_c, 9, 42, 0
2, 28752, Note_on_c, 9, 42, 96
2, 28776, Note_on_c, 9, 42, 0
2, 28800, Note_on_c, 9, 35, 96
2, 28800, Note_on_c, 9, 42, 80
2, 28824, Note_on_c, 9, 42, 0
2, 28848, Note_on_c, 9, 35, 0
2, 28848, Note_on_c, 9, 42, 64
2, 28872, Note_on_c, 9, 42, 0
2, 28896, Note_on_c, 9, 42, 80
2, 28920, Note_on_c, 9, 42, 0
2, 28944, Note_on_c, 9, 42, 80
2, 28968, Note_on_c, 9, 42, 0
2, 28992, Note_on_c, 9, 35, 96
2, 28992, Note_on_c, 9, 38, 112
2, 28992, Note_on_c, 9, 42, 64
2, 29016, Note_on_c, 9, 42, 0
2, 29040, Note_on_c, 9, 38, 0
2, 29040, Note_on_c, 9, 35, 0
2, 29040, Note_on_c, 9, 42, 96
2, 29064, Note_on_c, 9, 42, 0
2, 29088, Note_on_c, 9, 42, 80
2, 29112, Note_on_c, 9, 42, 0
2, 29136, Note_on_c, 9, 42, 64
2, 29160, Note_on_c, 9, 42, 0
2, 29184, Note_on_c, 9, 35, 96
2, 29184, Note_on_c, 9, 42, 80
2, 29208, Note_on_c, 9, 42, 0
2, 29232, Note_on_c, 9, 35, 0
2, 29232, Note_on_c, 9, 42, 64
2, 29256, Note_on_c, 9, 42, 0
2, 29280, Note_on_c, 9, 42, 80
2, 29304, Note_on_c, 9, 42, 0
2, 29328, Note_on_c, 9, 42, 64
2, 29352, Note_on_c, 9, 42, 0
2, 29376, Note_on_c, 9, 35, 96
2, 29376, Note_on_c, 9, 38, 112
2, 29376, Note_on_c, 9, 42, 80
2, 29400, Note_on_c, 9, 42, 0
2, 29424, Note_on_c, 9, 38, 0
2, 29424, Note_on_c, 9, 35, 0
2, 29424, Note_on_c, 9, 42, 80
2, 29448, Note_on_c, 9, 42, 0
2, 29472, Note_on_c, 9, 42, 64
2, 29496, Note_on_c, 9, 42, 0
2, 29520, Note_on_c, 9, 42, 96
2, 29544, Note_on_c, 9, 42, 0
2, 29568, Note_on_c, 9, 35, 96
2, 29568, Note_on_c, 9, 42, 80
2, 29592, Note_on_c, 9, 42, 0
2, 29616, Note_on_c, 9, 35, 0
2, 29616, Note_on_c, 9, 42, 64
2, 29640, Note_on_c, 9, 42, 0
2, 29664, Note_on_c, 9, 42, 80
2, 29688, Note_on_c, 9, 42, 0
2, 29712, Note_on_c, 9, 42, 80
2, 29736, Note_on_c, 9, 42, 0
2, 29760, Note_on_c, 9, 35, 96
2, 29760, Note_on_c, 9, 38, 112
2, 29760, Note_on_c, 9, 42, 64
2, 29784, Note_on_c, 9, 42, 0
2, 29808, Note_on_c, 9, 38, 0
2, 29808, Note_on_c, 9, 35, 0
2, 29808, Note_on_c, 9, 42, 96
2, 29832, Note_on_c, 9, 42, 0
2, 29856, Note_on_c, 9, 42, 80
2, 29880, Note_on_c, 9, 42, 0
2, 29904, Note_on_c, 9, 42, 64
2, 29928, Note_on_c, 9, 42, 0
2, 29952, Note_on_c, 9, 35, 96
2, 29952, Note_on_c, 9, 42, 80
2, 29976, Note_on_c, 9, 42, 0
2, 30000, Note_on_c, 9, 35, 0
2, 30000, Note_on_c, 9, 42, 64
2, 30024, Note_on_c, 9, 42, 0
2, 30048, Note_on_c, 9, 42, 80
2, 30072, Note_on_c, 9, 42, 0
2, 30096, Note_on_c, 9, 42, 64
2, 30120, Note_on_c, 9, 42, 0
2, 30144, Note_on_c, 9, 35, 96
2, 30144, Note_on_c, 9, 38, 112
2, 30144, Note_on_c, 9, 42, 80
2, 30168, Note_on_c, 9, 42, 0
2, 30192, Note_on_c, 9, 38, 0
2, 30192, Note_on_c, 9, 35, 0
2, 30192, Note_on_c, 9, 42, 80
2, 30216, Note_on_c, 9, 42, 0
2, 30240, Note_on_c, 9, 42, 64
2, 30264, Note_on_c, 9, 42, 0
2, 30288, Note_on_c, 9, 42, 96
2, 30312, Note_on_c, 9, 42, 0
2, 30336, Note_on_c, 9, 35, 96
2, 30336, Note_on_c, 9, 42, 80
2, 30360, Note_on_c, 9, 42, 0
2, 30384, Note_on_c, 9, 35, 0
2, 30384, Note_on_c, 9, 42, 64
2, 30408, Note_on_c, 9, 42, 0
2, 30432, Note_on_c, 9, 42, 80
2, 30456, Note_on_c, 9, 42, 0
2, 30480, Note_on_c, 9, 42, 80
2, 30504, Note_on_c, 9, 42, 0
2, 30528, Note_on_c, 9, 35, 96
2, 30528, Note_on_c, 9, 38, 112
2, 30528, Note_on_c, 9, 42, 64
2, 30552, Note_on_c, 9, 42, 0
2, 30576, Note_on_c, 9, 38, 0
2, 30576, Note_on_c, 9, 35, 0
2, 30576, Note_on_c, 9, 42, 96
2, 30600, Note_on_c, 9, 42, 0
2, 30624, Note_on_c, 9, 42, 80
2, 30648, Note_on_c, 9, 42, 0
2, 30672, Note_on_c, 9, 42, 64
2, 30696, Note_on_c, 9, 42, 0
2, 30720, Note_on_c, 9, 35, 96
2, 30720, Note_on_c, 9, 38, 48
2, 30720, Note_on_c, 9, 42, 80
2, 30744, Note_on_c, 9, 42, 0
2, 30744, Note_on_c, 9, 38, 0
2, 30768, Note_on_c, 9, 35, 0
2, 30768, Note_on_c, 9, 38, 48
2, 30768, Note_on_c, 9, 42, 64
2, 30792, Note_on_c, 9, 42, 0
2, 30792, Note_on_c, 9, 38, 0
2, 30816, Note_on_c, 9, 38, 48
2, 30816, Note_on_c, 9, 42, 80
2, 30840, Note_on_c, 9, 42, 0
2, 30840, Note_on_c, 9, 38, 0
2, 30864, Note_on_c, 9, 38, 48
2, 30864, Note_on_c, 9, 42, 64
2, 30888, Note_on_c, 9, 42, 0
2, 30888, Note_on_c, 9, 38, 0
2, 30912, Note_on_c, 9, 35, 96
2, 30912, Note_on_c, 9, 38, 64
2, 30912, Note_on_c, 9, 42, 80
2, 30936, Note_on_c, 9, 42, 0
2, 30936, Note_on_c, 9, 38, 0
2, 30960, Note_on_c, 9, 35, 0
2, 30960, Note_on_c, 9, 38, 64
2, 30960, Note_on_c, 9, 42, 80
2, 30984, Note_on_c, 9, 42, 0
2, 30984, Note_on_c, 9, 38, 0
2, 31008, Note_on_c, 9, 38, 64
2, 31008, Note_on_c, 9, 42, 64
2, 31032, Note_on_c, 9, 42, 0
2, 31032, Note_on_c, 9, 38, 0
2, 31056, Note_on_c, 9, 38, 64
2, 31056, Note_on_c, 9, 42, 96
2, 31080, Note_on_c, 9, 42, 0
2, 31080, Note_on_c, 9, 38, 0
2, 31104, Note_on_c, 9, 35, 96
2, 31104, Note_on_c, 9, 38, 80
2, 31104, Note_on_c, 9, 42, 80
2, 31128, Note_on_c, 9, 42, 0
2, 31128, Note_on_c, 9, 38, 0
2, 31152, Note_on_c, 9, 35, 0
2, 31152, Note_on_c, 9, 38, 80
2, 31152, Note_on_c, 9, 42, 64
2, 31176, Note_on_c, 9, 42, 0
2, 31176, Note_on_c, 9, 38, 0
2, 31200, Note_on_c, 9, 38, 80
2, 31200, Note_on_c, 9, 42, 80
2, 31224, Note_on_c, 9, 42, 0
2, 31224, Note_on_c, 9, 38, 0
2, 31248, Note_on_c, 9, 38, 80
2, 31248, Note_on_c, 9, 42, 80
2, 31272, Note_on_c, 9, 42, 0
2, 31272, Note_on_c, 9, 38, 0
2, 31296, Note_on_c, 9, 35, 96
2, 31296, Note_on_c, 9, 38, 96
2, 31296, Note_on_c, 9, 42, 64
2, 31320, Note_on_c, 9, 42, 0
2, 31320, Note_on_c, 9, 38, 0
2, 31344, Note_on_c, 9, 35, 0
2, 31344, Note_on_c, 9, 38, 96
2, 31344, Note_on_c, 9, 42, 96
2, 31368, Note_on_c, 9, 42, 0
2, 31368, Note_on_c, 9, 38, 0
2, 31392, Note_on_c, 9, 38, 112
2, 31392, Note_on_c, 9, 42, 80
2, 31416, Note_on_c, 9, 42, 0
2, 31416, Note_on_c, 9, 38, 0
2, 31440, Note_on_c, 9, 38, 127
2, 31440, Note_on_c, 9, 42, 64
2, 31464, Note_on_c, 9, 42, 0
2, 31464, Note_on_c, 9, 38, 0
2, 31464, Note_on_c, 9, 49, 96
2, 31476, Note_on_c, 9, 49, 0
2, 31488, Note_on_c, 9, 35, 96
2, 31488, Note_on_c, 9, 42, 80
2, 31512, Note_on_c, 9, 42, 0
2, 31536, Note_on_c, 9, 35, 0
2, 31536, Note_on_c, 9, 42, 64
2, 31560, Note_on_c, 9, 42, 0
2, 31584, Note_on_c, 9, 42, 80
2, 31608, Note_on_c, 9, 42, 0
2, 31632, Note_on_c, 9, 42, 64
2, 31656, Note_on_c, 9, 42, 0
2, 31680, Note_on_c, 9, 35, 96
2, 31680, Note_on_c, 9, 38, 112
2, 31680, Note_on_c, 9, 42, 80
2, 31680, Note_on_c, 9, 46, 80
2, 31704, Note_on_c, 9, 46, 0
2, 31704, Note_on_c, 9, 42, 0
2, 31728, Note_on_c, 9, 38, 0
2, 31728, Note_on_c, 9, 35, 0
2, 31728, Note_on_c, 9, 42, 80
2, 31752, Note_on_c, 9, 42, 0
2, 31776, Note_on_c, 9, 42, 64
2, 31800, Note_on_c, 9, 42, 0
2, 31824, Note_on_c, 9, 42, 96
2, 31824, Note_on_c, 9, 46, 112
2, 31848, Note_on_c, 9, 46, 0
2, 31848, Note_on_c, 9, 42, 0
2, 31872, Note_on_c, 9, 35, 96
2, 31872, Note_on_c, 9, 42, 80
2, 31896, Note_on_c, 9, 42, 0
2, 31920, Note_on_c, 9, 35, 0
2, 31920, Note_on_c, 9, 42, 64
2, 31920, Note_on_c, 9, 46, 112
2, 31944, Note_on_c, 9, 46, 0
2, 31944, Note_on_c, 9, 42, 0
2, 31968, Note_on_c, 9, 42, 80
2, 31992, Note_on_c, 9, 42, 0
2, 32016, Note_on_c, 9, 42, 80
2, 32040, Note_on_c, 9, 42, 0
2, 32064, Note_on_c, 9, 35, 96
2, 32064, Note_on_c, 9, 38, 112
2, 32064, Note_on_c, 9, 42, 64
2, 32064, Note_on_c, 9, 46, 112
2, 32088, Note_on_c, 9, 46, 0
2, 32088, Note_on_c, 9, 42, 0
2, 32112, Note_on_c, 9, 38, 0
2, 32112, Note_on_c, 9, 35, 0
2, 32112, Note_on_c, 9, 42, 96
2, 32136, Note_on_c, 9, 42, 0
2, 32160, Note_on_c, 9, 42, 80
2, 32184, Note_on_c, 9, 42, 0
2, 32208, Note_on_c, 9, 42, 64
2, 32232, Note_on_c, 9, 42, 0
2, 32256, Note_on_c, 9, 35, 96
2, 32256, Note_on_c, 9, 42, 80
2, 32280, Note_on_c, 9, 42, 0
2, 32304, Note_on_c, 9, 35, 0
2, 32304, Note_on_c, 9, 42, 64
2, 32328, Note_on_c, 9, 42, 0
2, 32352, Note_on_c, 9, 42, 80
2, 32376, Note_on_c, 9, 42, 0
2, 32400, Note_on_c, 9, 42, 64
2, 32424, Note_on_c, 9, 42, 0
2, 32448, Note_on_c, 9, 35, 96
2, 32448, Note_on_c, 9, 38, 112
2, 32448, Note_on_c, 9, 42, 80
2, 32448, Note_on_c, 9, 46, 80
2, 32472, Note_on_c, 9, 46, 0
2, 32472, Note_on_c, 9, 42, 0
2, 32496, Note_on_c, 9, 38, 0
2, 32496, Note_on_c, 9, 35, 0
2, 32496, Note_on_c, 9, 42, 80
2, 32520, Note_on_c, 9, 42, 0
2, 32544, Note_on_c, 9, 42, 64
2, 32568, Note_on_c, 9, 42, 0
2, 32592, Note_on_c, 9, 42, 96
2, 32592, Note_on_c, 9, 46, 112
2, 32616, Note_on_c, 9, 46, 0
2, 32616, Note_on_c, 9, 42, 0
2, 32640, Note_on_c, 9, 35, 96
2, 32640, Note_on_c, 9, 42, 80
2, 32664, Note_on_c, 9, 42, 0
2, 32688, Note_on_c, 9, 35, 0
2, 32688, Note_on_c, 9, 42, 64
2, 32688, Note_on_c, 9, 46, 112
2, 32712, Note_on_c, 9, 46, 0
2, 32712, Note_on_c, 9, 42, 0
2, 32736, Note_on_c, 9, 42, 80
2, 32760, Note_on_c, 9, 42, 0
2, 32784, Note_on_c, 9, 42, 80
2, 32808, Note_on_c, 9, 42, 0
2, 32832, Note_on_c, 9, 35, 96
2, 32832, Note_on_c, 9, 38, 112
2, 32832, Note_on_c, 9, 42, 64
2, 32832, Note_on_c, 9, 46, 112
2, 32856, Note_on_c, 9, 46, 0
2, 32856, Note_on_c, 9, 42, 0
2, 32880, Note_on_c, 9, 38, 0
2, 32880, Note_on_c, 9, 35, 0
2, 32880, Note_on_c, 9, 42, 96
2, 32904, Note_on_c, 9, 42, 0
2, 32928, Note_on_c, 9, 42, 80
2, 32952, Note_on_c, 9, 42, 0
2, 32976, Note_on_c, 9, 42, 64
2, 33000, Note_on_c, 9, 42, 0
2, 33024, Note_on_c, 9, 35, 96
2, 33024, Note_on_c, 9, 42, 80
2, 33048, Note_on_c, 9, 42, 0
2, 33072, Note_on_c, 9, 35, 0
2, 33072, Note_on_c, 9, 42, 64
2, 33096, Note_on_c, 9, 42, 0
2, 33120, Note_on_c, 9, 42, 80
2, 33144, Note_on_c, 9, 42, 0
2, 33168, Note_on_c, 9, 42, 64
2, 33192, Note_on_c, 9, 42, 0
2, 33216, Note_on_c, 9, 35, 96
2, 33216, Note_on_c, 9, 38, 112
2, 33216, Note_on_c, 9, 42, 80
2, 33216, Note_on_c, 9, 46, 80
2, 33240, Note_on_c, 9, 46, 0
2, 33240, Note_on_c, 9, 42, 0
2, 33264, Note_on_c, 9, 38, 0
2, 33264, Note_on_c, 9, 35, 0
2, 33264, Note_on_c, 9, 42, 80
2, 33288, Note_on_c, 9, 42, 0
2, 33312, Note_on_c, 9, 42, 64
2, 33336, Note_on_c, 9, 42, 0
2, 33360, Note_on_c, 9, 42, 96
2, 33360, Note_on_c, 9, 46, 112
2, 33384, Note_on_c, 9, 46, 0
2, 33384, Note_on_c, 9, 42, 0
2, 33408, Note_on_c, 9, 35, 96
2, 33408, Note_on_c, 9, 42, 80
2, 33432, Note_on_c, 9, 42, 0
2, 33456, Note_on_c, 9, 35, 0
2, 33456, Note_on_c, 9, 42, 64
2, 33456, Note_on_c, 9, 46, 112
2, 33480, Note_on_c, 9, 46, 0
2, 33480, Note_on_c, 9, 42, 0
2, 33504, Note_on_c, 9, 42, 80
2, 33528, Note_on_c, 9, 42, 0
2, 33552, Note_on_c, 9, 42, 80
2, 33576, Note_on_c, 9, 42, 0
2, 33600, Note_on_c, 9, 35, 96
2, 33600, Note_on_c, 9, 38, 112
2, 33600, Note_on_c, 9, 42, 64
2, 33600, Note_on_c, 9, 46, 112
2, 33624, Note_on_c, 9, 46, 0
2, 33624, Note_on_c, 9, 42, 0
2, 33648, Note_on_c, 9, 38, 0
2, 33648, Note_on_c, 9, 35, 0
2, 33648, Note_on_c, 9, 42, 96
2, 33672, Note_on_c, 9, 42, 0
2, 33696, Note_on_c, 9, 42, 80
2, 33720, Note_on_c, 9, 42, 0
2, 33744, Note_on_c, 9, 42, 64
2, 33768, Note_on_c, 9, 42, 0
2, 33792, Note_on_c, 9, 35, 96
2, 33792, Note_on_c, 9, 42, 80
2, 33816, Note_on_c, 9, 42, 0
2, 33840, Note_on_c, 9, 35, 0
2, 33840, Note_on_c, 9, 42, 64
2, 33864, Note_on_c, 9, 42, 0
2, 33888, Note_on_c, 9, 42, 80
2, 33912, Note_on_c, 9, 42, 0
2, 33936, Note_on_c, 9, 42, 64
2, 33960, Note_on_c, 9, 42, 0
2, 33984, Note_on_c, 9, 35, 96
2, 33984, Note_on_c, 9, 38, 112
2, 33984, Note_on_c, 9, 42, 80
2, 33984, Note_on_c, 9, 46, 80
2, 34008, Note_on_c, 9, 46, 0
2, 34008, Note_on_c, 9, 42, 0
2, 34032, Note_on_c, 9, 38, 0
2, 34032, Note_on_c, 9, 35, 0
2, 34032, Note_on_c, 9, 42, 80
2, 34056, Note_on_c, 9, 42, 0
2, 34080, Note_on_c, 9, 42, 64
2, 34104, Note_on_c, 9, 42, 0
2, 34128, Note_on_c, 9, 42, 96
2, 34128, Note_on_c, 9, 46, 112
2, 34152, Note_on_c, 9, 46, 0
2, 34152, Note_on_c, 9, 42, 0
2, 34176, Note_on_c, 9, 35, 96
2, 34176, Note_on_c, 9, 42, 80
2, 34200, Note_on_c, 9, 42, 0
2, 34224, Note_on_c, 9, 35, 0
2, 34224, Note_on_c, 9, 42, 64
2, 34224, Note_on_c, 9, 46, 112
2, 34248, Note_on_c, 9, 46, 0
2, 34248, Note_on_c, 9, 42, 0
2, 34272, Note_on_c, 9, 42, 80
2, 34296, Note_on_c, 9, 42, 0
2, 34320, Note_on_c, 9, 42, 80
2, 34344, Note_on_c, 9, 42, 0
2, 34368, Note_on_c, 9, 35, 96
2, 34368, Note_on_c, 9, 38, 112
2, 34368, Note_on_c, 9, 42, 64
2, 34368, Note_on_c, 9, 46, 112
2, 34392, Note_on_c, 9, 46, 0
2, 34392, Note_on_c, 9, 42, 0
2, 34416, Note_on_c, 9, 38, 0
2, 34416, Note_on_c, 9, 35, 0
2, 34416, Note_on_c, 9, 42, 96
2, 34440, Note_on_c, 9, 42, 0
2, 34464, Note_on_c, 9, 42, 80
2, 34488, Note_on_c, 9, 42, 0
2, 34512, Note_on_c, 9, 42, 64
2, 34536, Note_on_c, 9, 42, 0
2, 34560, Note_on_c, 9, 35, 96
2, 34560, Note_on_c, 9, 42, 80
2, 34584, Note_on_c, 9, 42, 0
2, 34608, Note_on_c, 9, 35, 0
2, 34608, Note_on_c, 9, 42, 64
2, 34632, Note_on_c, 9, 42, 0
2, 34656, Note_on_c, 9, 42, 80
2, 34680, Note_on_c, 9, 42, 0
2, 34704, Note_on_c, 9, 42, 64
2, 34728, Note_on_c, 9, 42, 0
2, 34752, Note_on_c, 9, 35, 96
2, 34752, Note_on_c, 9, 38, 112
2, 34752, Note_on_c, 9, 42, 80
2, 34752, Note_on_c, 9, 46, 80
2, 34776, Note_on_c, 9, 46, 0
2, 34776, Note_on_c, 9, 42, 0
2, 34800, Note_on_c, 9, 38, 0
2, 34800, Note_on_c, 9, 35, 0
2, 34800, Note_on_c, 9, 42, 80
2, 34824, Note_on_c, 9, 42, 0
2, 34848, Note_on_c, 9, 42, 64
2, 34872, Note_on_c, 9, 42, 0
2, 34896, Note_on_c, 9, 42, 96
2, 34896, Note_on_c, 9, 46, 112
2, 34920, Note_on_c, 9, 46, 0
2, 34920, Note_on_c, 9, 42, 0
2, 34944, Note_on_c, 9, 35, 96
2, 34944, Note_on_c, 9, 42, 80
2, 34968, Note_on_c, 9, 42, 0
2, 34992, Note_on_c, 9, 35, 0
2, 34992, Note_on_c, 9, 42, 64
2, 34992, Note_on_c, 9, 46, 112
2, 35016, Note_on_c, 9, 46, 0
2, 35016, Note_on_c, 9, 42, 0
2, 35040, Note_on_c, 9, 42, 80
2, 35064, Note_on_c, 9, 42, 0
2, 35088, Note_on_c, 9, 42, 80
2, 35112, Note_on_c, 9, 42, 0
2, 35136, Note_on_c, 9, 35, 96
2, 35136, Note_on_c, 9, 38, 112
2, 35136, Note_on_c, 9, 42, 64
2, 35136, Note_on_c, 9, 46, 112
2, 35160, Note_on_c, 9, 46, 0
2, 35160, Note_on_c, 9, 42, 0
2, 35184, Note_on_c, 9, 38, 0
2, 35184, Note_on_c, 9, 35, 0
2, 35184, Note_on_c, 9, 42, 96
2, 35208, Note_on_c, 9, 42, 0
2, 35232, Note_on_c, 9, 42, 80
2, 35256, Note_on_c, 9, 42, 0
2, 35280, Note_on_c, 9, 42, 64
2, 35304, Note_on_c, 9, 42, 0
2, 35328, Note_on_c, 9, 35, 96
2, 35328, Note_on_c, 9, 42, 80
2, 35352, Note_on_c, 9, 42, 0
2, 35376, Note_on_c, 9, 35, 0
2, 35376, Note_on_c, 9, 42, 64
2, 35400, Note_on_c, 9, 42, 0
2, 35424, Note_on_c, 9, 42, 80
2, 35448, Note_on_c, 9, 42, 0
2, 35472, Note_on_c, 9, 42, 64
2, 35496, Note_on_c, 9, 42, 0
2, 35520, Note_on_c, 9, 35, 96
2, 35520, Note_on_c, 9, 38, 112
2, 35520, Note_on_c, 9, 42, 80
2, 35520, Note_on_c, 9, 46, 80
2, 35544, Note_on_c, 9, 46, 0
2, 35544, Note_on_c, 9, 42, 0
2, 35568, Note_on_c, 9, 38, 0
2, 35568, Note_on_c, 9, 35, 0
2, 35568, Note_on_c, 9, 42, 80
2, 35592, Note_on_c, 9, 42, 0
2, 35616, Note_on_c, 9, 42, 64
2, 35640, Note_on_c, 9, 42, 0
2, 35664, Note_on_c, 9, 42, 96
2, 35664, Note_on_c, 9, 46, 112
2, 35688, Note_on_c, 9, 46, 0
2, 35688, Note_on_c, 9, 42, 0
2, 35712, Note_on_c, 9, 35, 96
2, 35712, Note_on_c, 9, 42, 80
2, 35736, Note_on_c, 9, 42, 0
2, 35760, Note_on_c, 9, 35, 0
2, 35760, Note_on_c, 9, 42, 64
2, 35760, Note_on_c, 9, 46, 112
2, 35784, Note_on_c, 9, 46, 0
2, 35784, Note_on_c, 9, 42, 0
2, 35808, Note_on_c, 9, 42, 80
2, 35832, Note_on_c, 9, 42, 0
2, 35856, Note_on_c, 9, 42, 80
2, 35880, Note_on_c, 9, 42, 0
2, 35904, Note_on_c, 9, 35, 96
2, 35904, Note_on_c, 9, 38, 112
2, 35904, Note_on_c, 9, 42, 64
2, 35904, Note_on_c, 9, 46, 112
2, 35928, Note_on_c, 9, 46, 0
2, 35928, Note_on_c, 9, 42, 0
2, 35952, Note_on_c, 9, 38, 0
2, 35952, Note_on_c, 9, 35, 0
2, 35952, Note_on_c, 9, 42, 96
2, 35976, Note_on_c, 9, 42, 0
2, 36000, Note_on_c, 9, 42, 80
2, 36024, Note_on_c, 9, 42, 0
2, 36048, Note_on_c, 9, 42, 64
2, 36072, Note_on_c, 9, 42, 0
2, 36096, Note_on_c, 9, 35, 96
2, 36096, Note_on_c, 9, 42, 80
2, 36120, Note_on_c, 9, 42, 0
2, 36144, Note_on_c, 9, 35, 0
2, 36144, Note_on_c, 9, 42, 64
2, 36168, Note_on_c, 9, 42, 0
2, 36192, Note_on_c, 9, 42, 80
2, 36216, Note_on_c, 9, 42, 0
2, 36240, Note_on_c, 9, 42, 64
2, 36264, Note_on_c, 9, 42, 0
2, 36288, Note_on_c, 9, 35, 96
2, 36288, Note_on_c, 9, 38, 112
2, 36288, Note_on_c, 9, 42, 80
2, 36288, Note_on_c, 9, 46, 80
2, 36312, Note_on_c, 9, 46, 0
2, 36312, Note_on_c, 9, 42, 0
2, 36336, Note_on_c, 9, 38, 0
2, 36336, Note_on_c, 9, 35, 0
2, 36336, Note_on_c, 9, 42, 80
2, 36360, Note_on_c, 9, 42, 0
2, 36384, Note_on_c, 9, 42, 64
2, 36408, Note_on_c, 9, 42, 0
2, 36432, Note_on_c, 9, 42, 96
2, 36432, Note_on_c, 9, 46, 112
2, 36456, Note_on_c, 9, 46, 0
2, 36456, Note_on_c, 9, 42, 0
2, 36480, Note_on_c, 9, 35, 96
2, 36480, Note_on_c, 9, 42, 80
2, 36504, Note_on_c, 9, 42, 0
2, 36528, Note_on_c, 9, 35, 0
2, 36528, Note_on_c, 9, 42, 64
2, 36528, Note_on_c, 9, 46, 112
2, 36552, Note_on_c, 9, 46, 0
2, 36552, Note_on_c, 9, 42, 0
2, 36576, Note_on_c, 9, 42, 80
2, 36600, Note_on_c, 9, 42, 0
2, 36624, Note_on_c, 9, 42, 80
2, 36648, Note_on_c, 9, 42, 0
2, 36672, Note_on_c, 9, 35, 96
2, 36672, Note_on_c, 9, 38, 112
2, 36672, Note_on_c, 9, 42, 64
2, 36672, Note_on_c, 9, 46, 112
2, 36696, Note_on_c, 9, 46, 0
2, 36696, Note_on_c, 9, 42, 0
2, 36720, Note_on_c, 9, 38, 0
2, 36720, Note_on_c, 9, 35, 0
2, 36720, Note_on_c, 9, 42, 96
2, 36744, Note_on_c, 9, 42, 0
2, 36768, Note_on_c, 9, 42, 80
2, 36792, Note_on_c, 9, 42, 0
2, 36816, Note_on_c, 9, 42, 64
2, 36840, Note_on_c, 9, 42, 0
2, 36864, Note_on_c, 9, 35, 96
2, 36864, Note_on_c, 9, 42, 80
2, 36888, Note_on_c, 9, 42, 0
2, 36912, Note_on_c, 9, 35, 0
2, 36912, Note_on_c, 9, 42, 64
2, 36936, Note_on_c, 9, 42, 0
2, 36960, Note_on_c, 9, 42, 80
2, 36984, Note_on_c, 9, 42, 0
2, 37008, Note_on_c, 9, 42, 64
2, 37032, Note_on_c, 9, 42, 0
2, 37056, Note_on_c, 9, 35, 96
2, 37056, Note_on_c, 9, 38, 112
2, 37056, Note_on_c, 9, 42, 80
2, 37056, Note_on_c, 9, 46, 80
2, 37080, Note_on_c, 9, 46, 0
2, 37080, Note_on_c, 9, 42, 0
2, 37080, Note_on_c, 9, 38, 0
2, 37104, Note_on_c, 9, 35, 0
2, 37104, Note_on_c, 9, 42, 80
2, 37128, Note_on_c, 9, 42, 0
2, 37152, Note_on_c, 9, 42, 64
2, 37176, Note_on_c, 9, 42, 0
2, 37200, Note_on_c, 9, 42, 96
2, 37200, Note_on_c, 9, 46, 112
2, 37224, Note_on_c, 9, 46, 0
2, 37224, Note_on_c, 9, 42, 0
2, 37248, Note_on_c, 9, 35, 96
2, 37248, Note_on_c, 9, 42, 80
2, 37272, Note_on_c, 9, 42, 0
2, 37296, Note_on_c, 9, 35, 0
2, 37296, Note_on_c, 9, 42, 64
2, 37296, Note_on_c, 9, 46, 112
2, 37320, Note_on_c, 9, 46, 0
2, 37320, Note_on_c, 9, 42, 0
2, 37344, Note_on_c, 9, 38, 80
2, 37344, Note_on_c, 9, 42, 80
2, 37368, Note_on_c, 9, 42, 0
2, 37368, Note_on_c, 9, 38, 0
2, 37392, Note_on_c, 9, 38, 80
2, 37392, Note_on_c, 9, 42, 80
2, 37416, Note_on_c, 9, 42, 0
2, 37416, Note_on_c, 9, 38, 0
2, 37440, Note_on_c, 9, 35, 96
2, 37440, Note_on_c, 9, 38, 80
2, 37440, Note_on_c, 9, 42, 64
2, 37440, Note_on_c, 9, 46, 112
2, 37464, Note_on_c, 9, 46, 0
2, 37464, Note_on_c, 9, 42, 0
2, 37464, Note_on_c, 9, 38, 0
2, 37488, Note_on_c, 9, 35, 0
2, 37488, Note_on_c, 9, 38, 96
2, 37488, Note_on_c, 9, 42, 96
2, 37512, Note_on_c, 9, 42, 0
2, 37512, Note_on_c, 9, 38, 0
2, 37536, Note_on_c, 9, 38, 96
2, 37536, Note_on_c, 9, 42, 80
2, 37560, Note_on_c, 9, 42, 0
2, 37560, Note_on_c, 9, 38, 0
2, 37584, Note_on_c, 9, 38, 112
2, 37584, Note_on_c, 9, 42, 64
2, 37608, Note_on_c, 9, 42, 0
2, 37608, Note_on_c, 9, 38, 0
2, 37608, Note_on_c, 9, 49, 96
2, 37620, Note_on_c, 9, 49, 0
2, 37632, Note_on_c, 9, 35, 96
2, 37632, Note_on_c, 9, 42, 80
2, 37656, Note_on_c, 9, 42, 0
2, 37680, Note_on_c, 9, 35, 0
2, 37680, Note_on_c, 9, 42, 64
2, 37704, Note_on_c, 9, 42, 0
2, 37728, Note_on_c, 9, 42, 80
2, 37752, Note_on_c, 9, 42, 0
2, 37776, Note_on_c, 9, 42, 64
2, 37800, Note_on_c, 9, 42, 0
2, 37824, Note_on_c, 9, 35, 96
2, 37824, Note_on_c, 9, 38, 112
2, 37824, Note_on_c, 9, 42, 80
2, 37824, Note_on_c, 9, 46, 80
2, 37848, Note_on_c, 9, 46, 0
2, 37848, Note_on_c, 9, 42, 0
2, 37872, Note_on_c, 9, 38, 0
2, 37872, Note_on_c, 9, 35, 0
2, 37872, Note_on_c, 9, 42, 80
2, 37896, Note_on_c, 9, 42, 0
2, 37920, Note_on_c, 9, 42, 64
2, 37944, Note_on_c, 9, 42, 0
2, 37968, Note_on_c, 9, 42, 96
2, 37968, Note_on_c, 9, 46, 112
2, 37992, Note_on_c, 9, 46, 0
2, 37992, Note_on_c, 9, 42, 0
2, 38016, Note_on_c, 9, 35, 96
2, 38016, Note_on_c, 9, 42, 80
2, 38040, Note_on_c, 9, 42, 0
2, 38064, Note_on_c, 9, 35, 0
2, 38064, Note_on_c, 9, 42, 64
2, 38064, Note_on_c, 9, 46, 112
2, 38088, Note_on_c, 9, 46, 0
2, 38088, Note_on_c, 9, 42, 0
2, 38112, Note_on_c, 9, 42, 80
2, 38136, Note_on_c, 9, 42, 0
2, 38160, Note_on_c, 9, 42, 80
2, 38184, Note_on_c, 9, 42, 0
2, 38208, Note_on_c, 9, 35, 96
2, 38208, Note_on_c, 9, 38, 112
2, 38208, Note_on_c, 9, 42, 64
2, 38208, Note_on_c, 9, 46, 112
2, 38232, Note_on_c, 9, 46, 0
2, 38232, Note_on_c, 9, 42, 0
2, 38256, Note_on_c, 9, 38, 0
2, 38256, Note_on_c, 9, 35, 0
2, 38256, Note_on_c, 9, 42, 96
2, 38280, Note_on_c, 9, 42, 0
2, 38304, Note_on_c, 9, 42, 80
2, 38328, Note_on_c, 9, 42, 0
2, 38352, Note_on_c, 9, 42, 64
2, 38376, Note_on_c, 9, 42, 0
2, 38400, Note_on_c, 9, 35, 96
2, 38400, Note_on_c, 9, 42, 80
2, 38424, Note_on_c, 9, 42, 0
2, 38448, Note_on_c, 9, 35, 0
2, 38448, Note_on_c, 9, 42, 64
2, 38472, Note_on_c, 9, 42, 0
2, 38496, Note_on_c, 9, 42, 80
2, 38520, Note_on_c, 9, 42, 0
2, 38544, Note_on_c, 9, 42, 64
2, 38568, Note_on_c, 9, 42, 0
2, 38592, Note_on_c, 9, 35, 96
2, 38592, Note_on_c, 9, 38, 112
2, 38592, Note_on_c, 9, 42, 80
2, 38592, Note_on_c, 9, 46, 80
2, 38616, Note_on_c, 9, 46, 0
2, 38616, Note_on_c, 9, 42, 0
2, 38640, Note_on_c, 9, 38, 0
2, 38640, Note_on_c, 9, 35, 0
2, 38640, Note_on_c, 9, 42, 80
2, 38664, Note_on_c, 9, 42, 0
2, 38688, Note_on_c, 9, 42, 64
2, 38712, Note_on_c, 9, 42, 0
2, 38736, Note_on_c, 9, 42, 96
2, 38736, Note_on_c, 9, 46, 112
2, 38760, Note_on_c, 9, 46, 0
2, 38760, Note_on_c, 9, 42, 0
2, 38784, Note_on_c, 9, 35, 96
2, 38784, Note_on_c, 9, 42, 80
2, 38808, Note_on_c, 9, 42, 0
2, 38832, Note_on_c, 9, 35, 0
2, 38832, Note_on_c, 9, 42, 64
2, 38832, Note_on_c, 9, 46, 112
2, 38856, Note_on_c, 9, 46, 0
2, 38856, Note_on_c, 9, 42, 0
2, 38880, Note_on_c, 9, 42, 80
2, 38904, Note_on_c, 9, 42, 0
2, 38928, Note_on_c, 9, 42, 80
2, 38952, Note_on_c, 9, 42, 0
2, 38976, Note_on_c, 9, 35, 96
2, 38976, Note_on_c, 9, 38, 112
2, 38976, Note_on_c, 9, 42, 64
2, 38976, Note_on_c, 9, 46, 112
2, 39000, Note_on_c, 9, 46, 0
2, 39000, Note_on_c, 9, 42, 0
2, 39024, Note_on_c, 9, 38, 0
2, 39024, Note_on_c, 9, 35, 0
2, 39024, Note_on_c, 9, 42, 96
2, 39048, Note_on_c, 9, 42, 0
2, 39072, Note_on_c, 9, 42, 80
2, 39096, Note_on_c, 9, 42, 0
2, 39120, Note_on_c, 9, 42, 64
2, 39144, Note_on_c, 9, 42, 0
2, 39168, Note_on_c, 9, 35, 96
2, 39168, Note_on_c, 9, 42, 80
2, 39192, Note_on_c, 9, 42, 0
2, 39216, Note_on_c, 9, 35, 0
2, 39216, Note_on_c, 9, 42, 64
2, 39240, Note_on_c, 9, 42, 0
2, 39264, Note_on_c, 9, 42, 80
2, 39288, Note_on_c, 9, 42, 0
2, 39312, Note_on_c, 9, 42, 64
2, 39336, Note_on_c, 9, 42, 0
2, 39360, Note_on_c, 9, 35, 96
2, 39360, Note_on_c, 9, 38, 112
2, 39360, Note_on_c, 9, 42, 80
2, 39360, Note_on_c, 9, 46, 80
2, 39384, Note_on_c, 9, 46, 0
2, 39384, Note_on_c, 9, 42, 0
2, 39408, Note_on_c, 9, 38, 0
2, 39408, Note_on_c, 9, 35, 0
2, 39408, Note_on_c, 9, 42, 80
2, 39432, Note_on_c, 9, 42, 0
2, 39456, Note_on_c, 9, 42, 64
2, 39480, Note_on_c, 9, 42, 0
2, 39504, Note_on_c, 9, 42, 96
2, 39504, Note_on_c, 9, 46, 112
2, 39528, Note_on_c, 9, 46, 0
2, 39528, Note_on_c, 9, 42, 0
2, 39552, Note_on_c, 9, 35, 96
2, 39552, Note_on_c, 9, 42, 80
2, 39576, Note_on_c, 9, 42, 0
2, 39600, Note_on_c, 9, 35, 0
2, 39600, Note_on_c, 9, 42, 64
2, 39600, Note_on_c, 9, 46, 112
2, 39624, Note_on_c, 9, 46, 0
2, 39624, Note_on_c, 9, 42, 0
2, 39648, Note_on_c, 9, 42, 80
2, 39672, Note_on_c, 9, 42, 0
2, 39696, Note_on_c, 9, 42, 80
2, 39720, Note_on_c, 9, 42, 0
2, 39744, Note_on_c, 9, 35, 96
2, 39744, Note_on_c, 9, 38, 112
2, 39744, Note_on_c, 9, 42, 64
2, 39744, Note_on_c, 9, 46, 112
2, 39768, Note_on_c, 9, 46, 0
2, 39768, Note_on_c, 9, 42, 0
2, 39792, Note_on_c, 9, 38, 0
2, 39792, Note_on_c, 9, 35, 0
2, 39792, Note_on_c, 9, 42, 96
2, 39816, Note_on_c, 9, 42, 0
2, 39840, Note_on_c, 9, 42, 80
2, 39864, Note_on_c, 9, 42, 0
2, 39888, Note_on_c, 9, 42, 64
2, 39912, Note_on_c, 9, 42, 0
2, 39936, Note_on_c, 9, 35, 96
2, 39936, Note_on_c, 9, 42, 80
2, 39960, Note_on_c, 9, 42, 0
2, 39984, Note_on_c, 9, 35, 0
2, 39984, Note_on_c, 9, 42, 64
2, 40008, Note_on_c, 9, 42, 0
2, 40032, Note_on_c, 9, 42, 80
2, 40056, Note_on_c, 9, 42, 0
2, 40080, Note_on_c, 9, 42, 64
2, 40104, Note_on_c, 9, 42, 0
2, 40128, Note_on_c, 9, 35, 96
2, 40128, Note_on_c, 9, 38, 112
2, 40128, Note_on_c, 9, 42, 80
2, 40128, Note_on_c, 9, 46, 80
2, 40152, Note_on_c, 9, 46, 0
2, 40152, Note_on_c, 9, 42, 0
2, 40176, Note_on_c, 9, 38, 0
2, 40176, Note_on_c, 9, 35, 0
2, 40176, Note_on_c, 9, 42, 80
2, 40200, Note_on_c, 9, 42, 0
2, 40224, Note_on_c, 9, 42, 64
2, 40248, Note_on_c, 9, 42, 0
2, 40272, Note_on_c, 9, 42, 96
2, 40272, Note_on_c, 9, 46, 112
2, 40296, Note_on_c, 9, 46, 0
2, 40296, Note_on_c, 9, 42, 0
2, 40320, Note_on_c, 9, 35, 96
2, 40320, Note_on_c, 9, 42, 80
2, 40344, Note_on_c, 9, 42, 0
2, 40368, Note_on_c, 9, 35, 0
2, 40368, Note_on_c, 9, 42, 64
2, 40368, Note_on_c, 9, 46, 112
2, 40392, Note_on_c, 9, 46, 0
2, 40392, Note_on_c, 9, 42, 0
2, 40416, Note_on_c, 9, 42, 80
2, 40440, Note_on_c, 9, 42, 0
2, 40464, Note_on_c, 9, 42, 80
2, 40488, Note_on_c, 9, 42, 0
2, 40512, Note_on_c, 9, 35, 96
2, 40512, Note_on_c, 9, 38, 112
2, 40512, Note_on_c, 9, 42, 64
2, 40512, Note_on_c, 9, 46, 112
2, 40536, Note_on_c, 9, 46, 0
2, 40536, Note_on_c, 9, 42, 0
2, 40560, Note_on_c, 9, 38, 0
2, 40560, Note_on_c, 9, 35, 0
2, 40560, Note_on_c, 9, 42, 96
2, 40584, Note_on_c, 9, 42, 0
2, 40608, Note_on_c, 9, 42, 80
2, 40632, Note_on_c, 9, 42, 0
2, 40656, Note_on_c, 9, 42, 64
2, 40680, Note_on_c, 9, 42, 0
2, 40704, Note_on_c, 9, 35, 96
2, 40704, Note_on_c, 9, 42, 80
2, 40728, Note_on_c, 9, 42, 0
2, 40752, Note_on_c, 9, 35, 0
2, 40752, Note_on_c, 9, 42, 64
2, 40776, Note_on_c, 9, 42, 0
2, 40800, Note_on_c, 9, 42, 80
2, 40824, Note_on_c, 9, 42, 0
2, 40848, Note_on_c, 9, 42, 64
2, 40872, Note_on_c, 9, 42, 0
2, 40896, Note_on_c, 9, 35, 96
2, 40896, Note_on_c, 9, 38, 112
2, 40896, Note_on_c, 9, 42, 80
2, 40896, Note_on_c, 9, 46, 80
2, 40920, Note_on_c, 9, 46, 0
2, 40920, Note_on_c, 9, 42, 0
2, 40944, Note_on_c, 9, 38, 0
2, 40944, Note_on_c, 9, 35, 0
2, 40944, Note_on_c, 9, 42, 80
2, 40968, Note_on_c, 9, 42, 0
2, 40992, Note_on_c, 9, 42, 64
2, 41016, Note_on_c, 9, 42, 0
2, 41040, Note_on_c, 9, 42, 96
2, 41040, Note_on_c, 9, 46, 112
2, 41064, Note_on_c, 9, 46, 0
2, 41064, Note_on_c, 9, 42, 0
2, 41088, Note_on_c, 9, 35, 96
2, 41088, Note_on_c, 9, 42, 80
2, 41112, Note_on_c, 9, 42, 0
2, 41136, Note_on_c, 9, 35, 0
2, 41136, Note_on_c, 9, 42, 64
2, 41136, Note_on_c, 9, 46, 112
2, 41160, Note_on_c, 9, 46, 0
2, 41160, Note_on_c, 9, 42, 0
2, 41184, Note_on_c, 9, 42, 80
2, 41208, Note_on_c, 9, 42, 0
2, 41232, Note_on_c, 9, 42, 80
2, 41256, Note_on_c, 9, 42, 0
2, 41280, Note_on_c, 9, 35, 96
2, 41280, Note_on_c, 9, 38, 112
2, 41280, Note_on_c, 9, 42, 64
2, 41280, Note_on_c, 9, 46, 112
2, 41304, Note_on_c, 9, 46, 0
2, 41304, Note_on_c, 9, 42, 0
2, 41328, Note_on_c, 9, 38, 0
2, 41328, Note_on_c, 9, 35, 0
2, 41328, Note_on_c, 9, 42, 96
2, 41352, Note_on_c, 9, 42, 0
2, 41376, Note_on_c, 9, 42, 80
2, 41400, Note_on_c, 9, 42, 0
2, 41424, Note_on_c, 9, 42, 64
2, 41448, Note_on_c, 9, 42, 0
2, 41472, Note_on_c, 9, 35, 96
2, 41472, Note_on_c, 9, 42, 80
2, 41496, Note_on_c, 9, 42, 0
2, 41520, Note_on_c, 9, 35, 0
2, 41520, Note_on_c, 9, 42, 64
2, 41544, Note_on_c, 9, 42, 0
2, 41568, Note_on_c, 9, 42, 80
2, 41592, Note_on_c, 9, 42, 0
2, 41616, Note_on_c, 9, 42, 64
2, 41640, Note_on_c, 9, 42, 0
2, 41664, Note_on_c, 9, 35, 96
2, 41664, Note_on_c, 9, 38, 112
2, 41664, Note_on_c, 9, 42, 80
2, 41664, Note_on_c, 9, 46, 80
2, 41688, Note_on_c, 9, 46, 0
2, 41688, Note_on_c, 9, 42, 0
2, 41712, Note_on_c, 9, 38, 0
2, 41712, Note_on_c, 9, 35, 0
2, 41712, Note_on_c, 9, 42, 80
2, 41736, Note_on_c, 9, 42, 0
2, 41760, Note_on_c, 9, 42, 64
2, 41784, Note_on_c, 9, 42, 0
2, 41808, Note_on_c, 9, 42, 96
2, 41808, Note_on_c, 9, 46, 112
2, 41832, Note_on_c, 9, 46, 0
2, 41832, Note_on_c, 9, 42, 0
2, 41856, Note_on_c, 9, 35, 96
2, 41856, Note_on_c, 9, 42, 80
2, 41880, Note_on_c, 9, 42, 0
2, 41904, Note_on_c, 9, 35, 0
2, 41904, Note_on_c, 9, 42, 64
2, 41904, Note_on_c, 9, 46, 112
2, 41928, Note_on_c, 9, 46, 0
2, 41928, Note_on_c, 9, 42, 0
2, 41952, Note_on_c, 9, 42, 80
2, 41976, Note_on_c, 9, 42, 0
2, 42000, Note_on_c, 9, 42, 80
2, 42024, Note_on_c, 9, 42, 0
2, 42048, Note_on_c, 9, 35, 96
2, 42048, Note_on_c, 9, 38, 112
2, 42048, Note_on_c, 9, 42, 64
2, 42048, Note_on_c, 9, 46, 112
2, 42072, Note_on_c, 9, 46, 0
2, 42072, Note_on_c, 9, 42, 0
2, 42096, Note_on_c, 9, 38, 0
2, 42096, Note_on_c, 9, 35, 0
2, 42096, Note_on_c, 9, 42, 96
2, 42120, Note_on_c, 9, 42, 0
2, 42144, Note_on_c, 9, 42, 80
2, 42168, Note_on_c, 9, 42, 0
2, 42192, Note_on_c, 9, 42, 64
2, 42216, Note_on_c, 9, 42, 0
2, 42240, Note_on_c, 9, 35, 96
2, 42240, Note_on_c, 9, 42, 80
2, 42264, Note_on_c, 9, 42, 0
2, 42288, Note_on_c, 9, 35, 0
2, 42288, Note_on_c, 9, 42, 64
2, 42312, Note_on_c, 9, 42, 0
2, 42336, Note_on_c, 9, 42, 80
2, 42360, Note_on_c, 9, 42, 0
2, 42384, Note_on_c, 9, 42, 64
2, 42408, Note_on_c, 9, 42, 0
2, 42432, Note_on_c, 9, 35, 96
2, 42432, Note_on_c, 9, 38, 112
2, 42432, Note_on_c, 9, 42, 80
2, 42432, Note_on_c, 9, 46, 80
2, 42456, Note_on_c, 9, 46, 0
2, 42456, Note_on_c, 9, 42, 0
2, 42480, Note_on_c, 9, 38, 0
2, 42480, Note_on_c, 9, 35, 0
2, 42480, Note_on_c, 9, 42, 80
2, 42504, Note_on_c, 9, 42, 0
2, 42528, Note_on_c, 9, 42, 64
2, 42552, Note_on_c, 9, 42, 0
2, 42576, Note_on_c, 9, 42, 96
2, 42576, Note_on_c, 9, 46, 112
2, 42600, Note_on_c, 9, 46, 0
2, 42600, Note_on_c, 9, 42, 0
2, 42624, Note_on_c, 9, 35, 96
2, 42624, Note_on_c, 9, 42, 80
2, 42648, Note_on_c, 9, 42, 0
2, 42672, Note_on_c, 9, 35, 0
2, 42672, Note_on_c, 9, 42, 64
2, 42672, Note_on_c, 9, 46, 112
2, 42696, Note_on_c, 9, 46, 0
2, 42696, Note_on_c, 9, 42, 0
2, 42720, Note_on_c, 9, 42, 80
2, 42744, Note_on_c, 9, 42, 0
2, 42768, Note_on_c, 9, 42, 80
2, 42792, Note_on_c, 9, 42, 0
2, 42816, Note_on_c, 9, 35, 96
2, 42816, Note_on_c, 9, 38, 112
2, 42816, Note_on_c, 9, 42, 64
2, 42816, Note_on_c, 9, 46, 112
2, 42840, Note_on_c, 9, 46, 0
2, 42840, Note_on_c, 9, 42, 0
2, 42864, Note_on_c, 9, 38, 0
2, 42864, Note_on_c, 9, 35, 0
2, 42864, Note_on_c, 9, 42, 96
2, 42888, Note_on_c, 9, 42, 0
2, 42912, Note_on_c, 9, 42, 80
2, 42936, Note_on_c, 9, 42, 0
2, 42960, Note_on_c, 9, 42, 64
2, 42984, Note_on_c, 9, 42, 0
2, 43008, Note_on_c, 9, 35, 96
2, 43008, Note_on_c, 9, 42, 80
2, 43032, Note_on_c, 9, 42, 0
2, 43056, Note_on_c, 9, 35, 0
2, 43056, Note_on_c, 9, 42, 64
2, 43080, Note_on_c, 9, 42, 0
2, 43104, Note_on_c, 9, 42, 80
2, 43128, Note_on_c, 9, 42, 0
2, 43152, Note_on_c, 9, 42, 64
2, 43176, Note_on_c, 9, 42, 0
2, 43200, Note_on_c, 9, 35, 96
2, 43200, Note_on_c, 9, 38, 112
2, 43200, Note_on_c, 9, 42, 80
2, 43200, Note_on_c, 9, 46, 80
2, 43224, Note_on_c, 9, 46, 0
2, 43224, Note_on_c, 9, 42, 0
2, 43224, Note_on_c, 9, 38, 0
2, 43248, Note_on_c, 9, 35, 0
2, 43248, Note_on_c, 9, 42, 80
2, 43272, Note_on_c, 9, 42, 0
2, 43296, Note_on_c, 9, 42, 64
2, 43320, Note_on_c, 9, 42, 0
2, 43344, Note_on_c, 9, 42, 96
2, 43344, Note_on_c, 9, 46, 112
2, 43368, Note_on_c, 9, 46, 0
2, 43368, Note_on_c, 9, 42, 0
2, 43392, Note_on_c, 9, 35, 96
2, 43392, Note_on_c, 9, 42, 80
2, 43416, Note_on_c, 9, 42, 0
2, 43440, Note_on_c, 9, 35, 0
2, 43440, Note_on_c, 9, 42, 64
2, 43440, Note_on_c, 9, 46, 112
2, 43464, Note_on_c, 9, 46, 0
2, 43464, Note_on_c, 9, 42, 0
2, 43488, Note_on_c, 9, 38, 80
2, 43488, Note_on_c, 9, 42, 80
2, 43512, Note_on_c, 9, 42, 0
2, 43512, Note_on_c, 9, 38, 0
2, 43536, Note_on_c, 9, 38, 80
2, 43536, Note_on_c, 9, 42, 80
2, 43560, Note_on_c, 9, 42, 0
2, 43560, Note_on_c, 9, 38, 0
2, 43584, Note_on_c, 9, 35, 96
2, 43584, Note_on_c, 9, 38, 80
2, 43584, Note_on_c, 9, 42, 64
2, 43584, Note_on_c, 9, 46, 112
2, 43608, Note_on_c, 9, 46, 0
2, 43608, Note_on_c, 9, 42, 0
2, 43608, Note_on_c, 9, 38, 0
2, 43632, Note_on_c, 9, 35, 0
2, 43632, Note_on_c, 9, 38, 96
2, 43632, Note_on_c, 9, 42, 96
2, 43656, Note_on_c, 9, 42, 0
2, 43656, Note_on_c, 9, 38, 0
2, 43680, Note_on_c, 9, 38, 96
2, 43680, Note_on_c, 9, 42, 80
2, 43704, Note_on_c, 9, 42, 0
2, 43704, Note_on_c, 9, 38, 0
2, 43728, Note_on_c, 9, 38, 112
2, 43728, Note_on_c, 9, 42, 64
2, 43752, Note_on_c, 9, 42, 0
2, 43752, Note_on_c, 9, 38, 0
2, 43752, Note_on_c, 9, 49, 96
2, 43764, Note_on_c, 9, 49, 0
2, 43776, Note_on_c, 9, 35, 96
2, 43776, Note_on_c, 9, 42, 80
2, 43800, Note_on_c, 9, 42, 0
2, 43824, Note_on_c, 9, 35, 0
2, 43824, Note_on_c, 9, 42, 64
2, 43848, Note_on_c, 9, 42, 0
2, 43872, Note_on_c, 9, 42, 80
2, 43896, Note_on_c, 9, 42, 0
2, 43920, Note_on_c, 9, 42, 64
2, 43944, Note_on_c, 9, 42, 0
2, 43968, Note_on_c, 9, 35, 96
2, 43968, Note_on_c, 9, 38, 112
2, 43968, Note_on_c, 9, 42, 80
2, 43968, Note_on_c, 9, 46, 80
2, 43992, Note_on_c, 9, 46, 0
2, 43992, Note_on_c, 9, 42, 0
2, 44016, Note_on_c, 9, 38, 0
2, 44016, Note_on_c, 9, 35, 0
2, 44016, Note_on_c, 9, 42, 80
2, 44040, Note_on_c, 9, 42, 0
2, 44064, Note_on_c, 9, 42, 64
2, 44088, Note_on_c, 9, 42, 0
2, 44112, Note_on_c, 9, 42, 96
2, 44112, Note_on_c, 9, 46, 112
2, 44136, Note_on_c, 9, 46, 0
2, 44136, Note_on_c, 9, 42, 0
2, 44160, Note_on_c, 9, 35, 96
2, 44160, Note_on_c, 9, 42, 80
2, 44184, Note_on_c, 9, 42, 0
2, 44208, Note_on_c, 9, 35, 0
2, 44208, Note_on_c, 9, 42, 64
2, 44208, Note_on_c, 9, 46, 112
2, 44232, Note_on_c, 9, 46, 0
2, 44232, Note_on_c, 9, 42, 0
2, 44256, Note_on_c, 9, 42, 80
2, 44280, Note_on_c, 9, 42, 0
2, 44304, Note_on_c, 9, 42, 80
2, 44328, Note_on_c, 9, 42, 0
2, 44352, Note_on_c, 9, 35, 96
2, 44352, Note_on_c, 9, 38, 112
2, 44352, Note_on_c, 9, 42, 64
2, 44352, Note_on_c, 9, 46, 112
2, 44376, Note_on_c, 9, 46, 0
2, 44376, Note_on_c, 9, 42, 0
2, 44400, Note_on_c, 9, 38, 0
2, 44400, Note_on_c, 9, 35, 0
2, 44400, Note_on_c, 9, 42, 96
2, 44424, Note_on_c, 9, 42, 0
2, 44448, Note_on_c, 9, 42, 80
2, 44472, Note_on_c, 9, 42, 0
2, 44496, Note_on_c, 9, 42, 64
2, 44520, Note_on_c, 9, 42, 0
2, 44544, Note_on_c, 9, 35, 96
2, 44544, Note_on_c, 9, 42, 80
2, 44568, Note_on_c, 9, 42, 0
2, 44592, Note_on_c, 9, 35, 0
2, 44592, Note_on_c, 9, 42, 64
2, 44616, Note_on_c, 9, 42, 0
2, 44640, Note_on_c, 9, 42, 80
2, 44664, Note_on_c, 9, 42, 0
2, 44688, Note_on_c, 9, 42, 64
2, 44712, Note_on_c, 9, 42, 0
2, 44736, Note_on_c, 9, 35, 96
2, 44736, Note_on_c, 9, 38, 112
2, 44736, Note_on_c, 9, 42, 80
2, 44736, Note_on_c, 9, 46, 80
2, 44760, Note_on_c, 9, 46, 0
2, 44760, Note_on_c, 9, 42, 0
2, 44784, Note_on_c, 9, 38, 0
2, 44784, Note_on_c, 9, 35, 0
2, 44784, Note_on_c, 9, 42, 80
2, 44808, Note_on_c, 9, 42, 0
2, 44832, Note_on_c, 9, 42, 64
2, 44856, Note_on_c, 9, 42, 0
2, 44880, Note_on_c, 9, 42, 96
2, 44880, Note_on_c, 9, 46, 112
2, 44904, Note_on_c, 9, 46, 0
2, 44904, Note_on_c, 9, 42, 0
2, 44928, Note_on_c, 9, 35, 96
2, 44928, Note_on_c, 9, 42, 80
2, 44952, Note_on_c, 9, 42, 0
2, 44976, Note_on_c, 9, 35, 0
2, 44976, Note_on_c, 9, 42, 64
2, 44976, Note_on_c, 9, 46, 112
2, 45000, Note_on_c, 9, 46, 0
2, 45000, Note_on_c, 9, 42, 0
2, 45024, Note_on_c, 9, 42, 80
2, 45048, Note_on_c, 9, 42, 0
2, 45072, Note_on_c, 9, 42, 80
2, 45096, Note_on_c, 9, 42, 0
2, 45120, Note_on_c, 9, 35, 96
2, 45120, Note_on_c, 9, 38, 112
2, 45120, Note_on_c, 9, 42, 64
2, 45120, Note_on_c, 9, 46, 112
2, 45144, Note_on_c, 9, 46, 0
2, 45144, Note_on_c, 9, 42, 0
2, 45168, Note_on_c, 9, 38, 0
2, 45168, Note_on_c, 9, 35, 0
2, 45168, Note_on_c, 9, 42, 96
2, 45192, Note_on_c, 9, 42, 0
2, 45216, Note_on_c, 9, 42, 80
2, 45240, Note_on_c, 9, 42, 0
2, 45264, Note_on_c, 9, 42, 64
2, 45288, Note_on_c, 9, 42, 0
2, 45312, Note_on_c, 9, 35, 96
2, 45312, Note_on_c, 9, 42, 80
2, 45336, Note_on_c, 9, 42, 0
2, 45360, Note_on_c, 9, 35, 0
2, 45360, Note_on_c, 9, 42, 64
2, 45384, Note_on_c, 9, 42, 0
2, 45408, Note_on_c, 9, 42, 80
2, 45432, Note_on_c, 9, 42, 0
2, 45456, Note_on_c, 9, 42, 64
2, 45480, Note_on_c, 9, 42, 0
2, 45504, Note_on_c, 9, 35, 96
2, 45504, Note_on_c, 9, 38, 112
2, 45504, Note_on_c, 9, 42, 80
2, 45504, Note_on_c, 9, 46, 80
2, 45528, Note_on_c, 9, 46, 0
2, 45528, Note_on_c, 9, 42, 0
2, 45552, Note_on_c, 9, 38, 0
2, 45552, Note_on_c, 9, 35, 0
2, 45552, Note_on_c, 9, 42, 80
2, 45576, Note_on_c, 9, 42, 0
2, 45600, Note_on_c, 9, 42, 64
2, 45624, Note_on_c, 9, 42, 0
2, 45648, Note_on_c, 9, 42, 96
2, 45648, Note_on_c, 9, 46, 112
2, 45672, Note_on_c, 9, 46, 0
2, 45672, Note_on_c, 9, 42, 0
2, 45696, Note_on_c, 9, 35, 96
2, 45696, Note_on_c, 9, 42, 80
2, 45720, Note_on_c, 9, 42, 0
2, 45744, Note_on_c, 9, 35, 0
2, 45744, Note_on_c, 9, 42, 64
2, 45744, Note_on_c, 9, 46, 112
2, 45768, Note_on_c, 9, 46, 0
2, 45768, Note_on_c, 9, 42, 0
2, 45792, Note_on_c, 9, 42, 80
2, 45816, Note_on_c, 9, 42, 0
2, 45840, Note_on_c, 9, 42, 80
2, 45864, Note_on_c, 9, 42, 0
2, 45888, Note_on_c, 9, 35, 96
2, 45888, Note_on_c, 9, 38, 112
2, 45888, Note_on_c, 9, 42, 64
2, 45888, Note_on_c, 9, 46, 112
2, 45912, Note_on_c, 9, 46, 0
2, 45912, Note_on_c, 9, 42, 0
2, 45936, Note_on_c, 9, 38, 0
2, 45936, Note_on_c, 9, 35, 0
2, 45936, Note_on_c, 9, 42, 96
2, 45960, Note_on_c, 9, 42, 0
2, 45984, Note_on_c, 9, 42, 80
2, 46008, Note_on_c, 9, 42, 0
2, 46032, Note_on_c, 9, 42, 64
2, 46056, Note_on_c, 9, 42, 0
2, 46080, Note_on_c, 9, 35, 96
2, 46080, Note_on_c, 9, 42, 80
2, 46104, Note_on_c, 9, 42, 0
2, 46128, Note_on_c, 9, 35, 0
2, 46128, Note_on_c, 9, 42, 64
2, 46152, Note_on_c, 9, 42, 0
2, 46176, Note_on_c, 9, 42, 80
2, 46200, Note_on_c, 9, 42, 0
2, 46224, Note_on_c, 9, 42, 64
2, 46248, Note_on_c, 9, 42, 0
2, 46272, Note_on_c, 9, 35, 96
2, 46272, Note_on_c, 9, 38, 112
2, 46272, Note_on_c, 9, 42, 80
2, 46272, Note_on_c, 9, 46, 80
2, 46296, Note_on_c, 9, 46, 0
2, 46296, Note_on_c, 9, 42, 0
2, 46320, Note_on_c, 9, 38, 0
2, 46320, Note_on_c, 9, 35, 0
2, 46320, Note_on_c, 9, 42, 80
2, 46344, Note_on_c, 9, 42, 0
2, 46368, Note_on_c, 9, 42, 64
2, 46392, Note_on_c, 9, 42, 0
2, 46416, Note_on_c, 9, 42, 96
2, 46416, Note_on_c, 9, 46, 112
2, 46440, Note_on_c, 9, 46, 0
2, 46440, Note_on_c, 9, 42, 0
2, 46464, Note_on_c, 9, 35, 96
2, 46464, Note_on_c, 9, 42, 80
2, 46488, Note_on_c, 9, 42, 0
2, 46512, Note_on_c, 9, 35, 0
2, 46512, Note_on_c, 9, 42, 64
2, 46512, Note_on_c, 9, 46, 112
2, 46536, Note_on_c, 9, 46, 0
2, 46536, Note_on_c, 9, 42, 0
2, 46560, Note_on_c, 9, 42, 80
2, 46584, Note_on_c, 9, 42, 0
2, 46608, Note_on_c, 9, 42, 80
2, 46632, Note_on_c, 9, 42, 0
2, 46656, Note_on_c, 9, 35, 96
2, 46656, Note_on_c, 9, 38, 112
2, 46656, Note_on_c, 9, 42, 64
2, 46656, Note_on_c, 9, 46, 112
2, 46680, Note_on_c, 9, 46, 0
2, 46680, Note_on_c, 9, 42, 0
2, 46704, Note_on_c, 9, 38, 0
2, 46704, Note_on_c, 9, 35, 0
2, 46704, Note_on_c, 9, 42, 96
2, 46728, Note_on_c, 9, 42, 0
2, 46752, Note_on_c, 9, 42, 80
2, 46776, Note_on_c, 9, 42, 0
2, 46800, Note_on_c, 9, 42, 64
2, 46824, Note_on_c, 9, 42, 0
2, 46848, Note_on_c, 9, 35, 96
2, 46848, Note_on_c, 9, 42, 80
2, 46872, Note_on_c, 9, 42, 0
2, 46896, Note_on_c, 9, 35, 0
2, 46896, Note_on_c, 9, 42, 64
2, 46920, Note_on_c, 9, 42, 0
2, 46944, Note_on_c, 9, 42, 80
2, 46968, Note_on_c, 9, 42, 0
2, 46992, Note_on_c, 9, 42, 64
2, 47016, Note_on_c, 9, 42, 0
2, 47040, Note_on_c, 9, 35, 96
2, 47040, Note_on_c, 9, 38, 112
2, 47040, Note_on_c, 9, 42, 80
2, 47040, Note_on_c, 9, 46, 80
2, 47064, Note_on_c, 9, 46, 0
2, 47064, Note_on_c, 9, 42, 0
2, 47088, Note_on_c, 9, 38, 0
2, 47088, Note_on_c, 9, 35, 0
2, 47088, Note_on_c, 9, 42, 80
2, 47112, Note_on_c, 9, 42, 0
2, 47136, Note_on_c, 9, 42, 64
2, 47160, Note_on_c, 9, 42, 0
2, 47184, Note_on_c, 9, 42, 96
2, 47184, Note_on_c, 9, 46, 112
2, 47208, Note_on_c, 9, 46, 0
2, 47208, Note_on_c, 9, 42, 0
2, 47232, Note_on_c, 9, 35, 96
2, 47232, Note_on_c, 9, 42, 80
2, 47256, Note_on_c, 9, 42, 0
2, 47280, Note_on_c, 9, 35, 0
2, 47280, Note_on_c, 9, 42, 64
2, 47280, Note_on_c, 9, 46, 112
2, 47304, Note_on_c, 9, 46, 0
2, 47304, Note_on_c, 9, 42, 0
2, 47328, Note_on_c, 9, 42, 80
2, 47352, Note_on_c, 9, 42, 0
2, 47376, Note_on_c, 9, 42, 80
2, 47400, Note_on_c, 9, 42, 0
2, 47424, Note_on_c, 9, 35, 96
2, 47424, Note_on_c, 9, 38, 112
2, 47424, Note_on_c, 9, 42, 64
2, 47424, Note_on_c, 9, 46, 112
2, 47448, Note_on_c, 9, 46, 0
2, 47448, Note_on_c, 9, 42, 0
2, 47472, Note_on_c, 9, 38, 0
2, 47472, Note_on_c, 9, 35, 0
2, 47472, Note_on_c, 9, 42, 96
2, 47496, Note_on_c, 9, 42, 0
2, 47520, Note_on_c, 9, 42, 80
2, 47544, Note_on_c, 9, 42, 0
2, 47568, Note_on_c, 9, 42, 64
2, 47592, Note_on_c, 9, 42, 0
2, 47616, Note_on_c, 9, 35, 96
2, 47616, Note_on_c, 9, 42, 80
2, 47640, Note_on_c, 9, 42, 0
2, 47664, Note_on_c, 9, 35, 0
2, 47664, Note_on_c, 9, 42, 64
2, 47688, Note_on_c, 9, 42, 0
2, 47712, Note_on_c, 9, 42, 80
2, 47736, Note_on_c, 9, 42, 0
2, 47760, Note_on_c, 9, 42, 64
2, 47784, Note_on_c, 9, 42, 0
2, 47808, Note_on_c, 9, 35, 96
2, 47808, Note_on_c, 9, 38, 112
2, 47808, Note_on_c, 9, 42, 80
2, 47808, Note_on_c, 9, 46, 80
2, 47832, Note_on_c, 9, 46, 0
2, 47832, Note_on_c, 9, 42, 0
2, 47856, Note_on_c, 9, 38, 0
2, 47856, Note_on_c, 9, 35, 0
2, 47856, Note_on_c, 9, 42, 80
2, 47880, Note_on_c, 9, 42, 0
2, 47904, Note_on_c, 9, 42, 64
2, 47928, Note_on_c, 9, 42, 0
2, 47952, Note_on_c, 9, 42, 96
2, 47952, Note_on_c, 9, 46, 112
2, 47976, Note_on_c, 9, 46, 0
2, 47976, Note_on_c, 9, 42, 0
2, 48000, Note_on_c, 9, 35, 96
2, 48000, Note_on_c, 9, 42, 80
2, 48024, Note_on_c, 9, 42, 0
2, 48048, Note_on_c, 9, 35, 0
2, 48048, Note_on_c, 9, 42, 64
2, 48048, Note_on_c, 9, 46, 112
2, 48072, Note_on_c, 9, 46, 0
2, 48072, Note_on_c, 9, 42, 0
2, 48096, Note_on_c, 9, 42, 80
2, 48120, Note_on_c, 9, 42, 0
2, 48144, Note_on_c, 9, 42, 80
2, 48168, Note_on_c, 9, 42, 0
2, 48192, Note_on_c, 9, 35, 96
2, 48192, Note_on_c, 9, 38, 112
2, 48192, Note_on_c, 9, 42, 64
2, 48192, Note_on_c, 9, 46, 112
2, 48216, Note_on_c, 9, 46, 0
2, 48216, Note_on_c, 9, 42, 0
2, 48240, Note_on_c, 9, 38, 0
2, 48240, Note_on_c, 9, 35, 0
2, 48240, Note_on_c, 9, 42, 96
2, 48264, Note_on_c, 9, 42, 0
2, 48288, Note_on_c, 9, 42, 80
2, 48312, Note_on_c, 9, 42, 0
2, 48336, Note_on_c, 9, 42, 64
2, 48360, Note_on_c, 9, 42, 0
2, 48384, Note_on_c, 9, 35, 96
2, 48384, Note_on_c, 9, 42, 80
2, 48408, Note_on_c, 9, 42, 0
2, 48432, Note_on_c, 9, 35, 0
2, 48432, Note_on_c, 9, 42, 64
2, 48456, Note_on_c, 9, 42, 0
2, 48480, Note_on_c, 9, 42, 80
2, 48504, Note_on_c, 9, 42, 0
2, 48528, Note_on_c, 9, 42, 64
2, 48552, Note_on_c, 9, 42, 0
2, 48576, Note_on_c, 9, 35, 96
2, 48576, Note_on_c, 9, 38, 112
2, 48576, Note_on_c, 9, 42, 80
2, 48576, Note_on_c, 9, 46, 80
2, 48600, Note_on_c, 9, 46, 0
2, 48600, Note_on_c, 9, 42, 0
2, 48624, Note_on_c, 9, 38, 0
2, 48624, Note_on_c, 9, 35, 0
2, 48624, Note_on_c, 9, 42, 80
2, 48648, Note_on_c, 9, 42, 0
2, 48672, Note_on_c, 9, 42, 64
2, 48696, Note_on_c, 9, 42, 0
2, 48720, Note_on_c, 9, 42, 96
2, 48720, Note_on_c, 9, 46, 112
2, 48744, Note_on_c, 9, 46, 0
2, 48744, Note_on_c, 9, 42, 0
2, 48768, Note_on_c, 9, 35, 96
2, 48768, Note_on_c, 9, 42, 80
2, 48792, Note_on_c, 9, 42, 0
2, 48816, Note_on_c, 9, 35, 0
2, 48816, Note_on_c, 9, 42, 64
2, 48816, Note_on_c, 9, 46, 112
2, 48840, Note_on_c, 9, 46, 0
2, 48840, Note_on_c, 9, 42, 0
2, 48864, Note_on_c, 9, 42, 80
2, 48888, Note_on_c, 9, 42, 0
2, 48912, Note_on_c, 9, 42, 80
2, 48936, Note_on_c, 9, 42, 0
2, 48960, Note_on_c, 9, 35, 96
2, 48960, Note_on_c, 9, 38, 112
2, 48960, Note_on_c, 9, 42, 64
2, 48960, Note_on_c, 9, 46, 112
2, 48984, Note_on_c, 9, 46, 0
2, 48984, Note_on_c, 9, 42, 0
2, 49008, Note_on_c, 9, 38, 0
2, 49008, Note_on_c, 9, 35, 0
2, 49008, Note_on_c, 9, 42, 96
2, 49032, Note_on_c, 9, 42, 0
2, 49056, Note_on_c, 9, 42, 80
2, 49080, Note_on_c, 9, 42, 0
2, 49104, Note_on_c, 9, 42, 64
2, 49128, Note_on_c, 9, 42, 0
2, 49152, Note_on_c, 9, 35, 96
2, 49152, Note_on_c, 9, 42, 80
2, 49176, Note_on_c, 9, 42, 0
2, 49200, Note_on_c, 9, 35, 0
2, 49200, Note_on_c, 9, 42, 64
2, 49224, Note_on_c, 9, 42, 0
2, 49248, Note_on_c, 9, 42, 80
2, 49248, Note_on_c, 9, 48, 80
2, 49272, Note_on_c, 9, 48, 0
2, 49272, Note_on_c, 9, 42, 0
2, 49296, Note_on_c, 9, 42, 64
2, 49320, Note_on_c, 9, 42, 0
2, 49344, Note_on_c, 9, 35, 96
2, 49344, Note_on_c, 9, 38, 112
2, 49344, Note_on_c, 9, 42, 80
2, 49344, Note_on_c, 9, 48, 80
2, 49368, Note_on_c, 9, 48, 0
2, 49368, Note_on_c, 9, 42, 0
2, 49392, Note_on_c, 9, 38, 0
2, 49392, Note_on_c, 9, 35, 0
2, 49392, Note_on_c, 9, 42, 80
2, 49416, Note_on_c, 9, 42, 0
2, 49440, Note_on_c, 9, 42, 64
2, 49440, Note_on_c, 9, 45, 96
2, 49464, Note_on_c, 9, 45, 0
2, 49464, Note_on_c, 9, 42, 0
2, 49488, Note_on_c, 9, 42, 96
2, 49512, Note_on_c, 9, 42, 0
2, 49536, Note_on_c, 9, 35, 96
2, 49536, Note_on_c, 9, 42, 80
2, 49536, Note_on_c, 9, 45, 96
2, 49560, Note_on_c, 9, 45, 0
2, 49560, Note_on_c, 9, 42, 0
2, 49584, Note_on_c, 9, 35, 0
2, 49584, Note_on_c, 9, 42, 64
2, 49608, Note_on_c, 9, 42, 0
2, 49632, Note_on_c, 9, 42, 80
2, 49632, Note_on_c, 9, 48, 96
2, 49656, Note_on_c, 9, 48, 0
2, 49656, Note_on_c, 9, 42, 0
2, 49680, Note_on_c, 9, 42, 80
2, 49680, Note_on_c, 9, 45, 96
2, 49704, Note_on_c, 9, 45, 0
2, 49704, Note_on_c, 9, 42, 0
2, 49728, Note_on_c, 9, 35, 96
2, 49728, Note_on_c, 9, 38, 112
2, 49728, Note_on_c, 9, 42, 64
2, 49752, Note_on_c, 9, 42, 0
2, 49776, Note_on_c, 9, 38, 0
2, 49776, Note_on_c, 9, 35, 0
2, 49776, Note_on_c, 9, 42, 96
2, 49776, Note_on_c, 9, 48, 96
2, 49800, Note_on_c, 9, 48, 0
2, 49800, Note_on_c, 9, 42, 0
2, 49824, Note_on_c, 9, 42, 80
2, 49824, Note_on_c, 9, 41, 80
2, 49848, Note_on_c, 9, 41, 0
2, 49848, Note_on_c, 9, 42, 0
2, 49872, Note_on_c, 9, 42, 64
2, 49872, Note_on_c, 9, 41, 80
2, 49896, Note_on_c, 9, 41, 0
2, 49896, Note_on_c, 9, 42, 0
2, 49896, Note_on_c, 9, 49, 96
2, 49908, Note_on_c, 9, 49, 0
2, 49920, Note_on_c, 9, 35, 96
2, 49920, Note_on_c, 9, 42, 80
2, 49944, Note_on_c, 9, 42, 0
2, 49968, Note_on_c, 9, 35, 0
2, 49968, Note_on_c, 9, 42, 64
2, 49992, Note_on_c, 9, 42, 0
2, 50016, Note_on_c, 9, 42, 80
2, 50040, Note_on_c, 9, 42, 0
2, 50064, Note_on_c, 9, 42, 64
2, 50088, Note_on_c, 9, 42, 0
2, 50112, Note_on_c, 9, 35, 96
2, 50112, Note_on_c, 9, 38, 112
2, 50112, Note_on_c, 9, 42, 80
2, 50112, Note_on_c, 9, 46, 80
2, 50136, Note_on_c, 9, 46, 0
2, 50136, Note_on_c, 9, 42, 0
2, 50160, Note_on_c, 9, 38, 0
2, 50160, Note_on_c, 9, 35, 0
2, 50160, Note_on_c, 9, 42, 80
2, 50184, Note_on_c, 9, 42, 0
2, 50208, Note_on_c, 9, 42, 64
2, 50232, Note_on_c, 9, 42, 0
2, 50256, Note_on_c, 9, 42, 96
2, 50256, Note_on_c, 9, 46, 112
2, 50280, Note_on_c, 9, 46, 0
2, 50280, Note_on_c, 9, 42, 0
2, 50304, Note_on_c, 9, 35, 96
2, 50304, Note_on_c, 9, 42, 80
2, 50328, Note_on_c, 9, 42, 0
2, 50352, Note_on_c, 9, 35, 0
2, 50352, Note_on_c, 9, 42, 64
2, 50352, Note_on_c, 9, 46, 112
2, 50376, Note_on_c, 9, 46, 0
2, 50376, Note_on_c, 9, 42, 0
2, 50400, Note_on_c, 9, 42, 80
2, 50424, Note_on_c, 9, 42, 0
2, 50448, Note_on_c, 9, 42, 80
2, 50472, Note_on_c, 9, 42, 0
2, 50496, Note_on_c, 9, 35, 96
2, 50496, Note_on_c, 9, 38, 112
2, 50496, Note_on_c, 9, 42, 64
2, 50496, Note_on_c, 9, 46, 112
2, 50520, Note_on_c, 9, 46, 0
2, 50520, Note_on_c, 9, 42, 0
2, 50544, Note_on_c, 9, 38, 0
2, 50544, Note_on_c, 9, 35, 0
2, 50544, Note_on_c, 9, 42, 96
2, 50568, Note_on_c, 9, 42, 0
2, 50592, Note_on_c, 9, 42, 80
2, 50616, Note_on_c, 9, 42, 0
2, 50640, Note_on_c, 9, 42, 64
2, 50664, Note_on_c, 9, 42, 0
2, 50688, Note_on_c, 9, 35, 96
2, 50688, Note_on_c, 9, 42, 80
2, 50712, Note_on_c, 9, 42, 0
2, 50736, Note_on_c, 9, 35, 0
2, 50736, Note_on_c, 9, 42, 64
2, 50760, Note_on_c, 9, 42, 0
2, 50784, Note_on_c, 9, 42, 80
2, 50808, Note_on_c, 9, 42, 0
2, 50832, Note_on_c, 9, 42, 64
2, 50856, Note_on_c, 9, 42, 0
2, 50880, Note_on_c, 9, 35, 96
2, 50880, Note_on_c, 9, 38, 112
2, 50880, Note_on_c, 9, 42, 80
2, 50880, Note_on_c, 9, 46, 80
2, 50904, Note_on_c, 9, 46, 0
2, 50904, Note_on_c, 9, 42, 0
2, 50928, Note_on_c, 9, 38, 0
2, 50928, Note_on_c, 9, 35, 0
2, 50928, Note_on_c, 9, 42, 80
2, 50952, Note_on_c, 9, 42, 0
2, 50976, Note_on_c, 9, 42, 64
2, 51000, Note_on_c, 9, 42, 0
2, 51024, Note_on_c, 9, 42, 96
2, 51024, Note_on_c, 9, 46, 112
2, 51048, Note_on_c, 9, 46, 0
2, 51048, Note_on_c, 9, 42, 0
2, 51072, Note_on_c, 9, 35, 96
2, 51072, Note_on_c, 9, 42, 80
2, 51096, Note_on_c, 9, 42, 0
2, 51120, Note_on_c, 9, 35, 0
2, 51120, Note_on_c, 9, 42, 64
2, 51120, Note_on_c, 9, 46, 112
2, 51144, Note_on_c, 9, 46, 0
2, 51144, Note_on_c, 9, 42, 0
2, 51168, Note_on_c, 9, 42, 80
2, 51192, Note_on_c, 9, 42, 0
2, 51216, Note_on_c, 9, 42, 80
2, 51240, Note_on_c, 9, 42, 0
2, 51264, Note_on_c, 9, 35, 96
2, 51264, Note_on_c, 9, 38, 112
2, 51264, Note_on_c, 9, 42, 64
2, 51264, Note_on_c, 9, 46, 112
2, 51288, Note_on_c, 9, 46, 0
2, 51288, Note_on_c, 9, 42, 0
2, 51312, Note_on_c, 9, 38, 0
2, 51312, Note_on_c, 9, 35, 0
2, 51312, Note_on_c, 9, 42, 96
2, 51336, Note_on_c, 9, 42, 0
2, 51360, Note_on_c, 9, 42, 80
2, 51384, Note_on_c, 9, 42, 0
2, 51408, Note_on_c, 9, 42, 64
2, 51432, Note_on_c, 9, 42, 0
2, 51456, Note_on_c, 9, 35, 96
2, 51456, Note_on_c, 9, 42, 80
2, 51480, Note_on_c, 9, 42, 0
2, 51504, Note_on_c, 9, 35, 0
2, 51504, Note_on_c, 9, 42, 64
2, 51528, Note_on_c, 9, 42, 0
2, 51552, Note_on_c, 9, 42, 80
2, 51576, Note_on_c, 9, 42, 0
2, 51600, Note_on_c, 9, 42, 64
2, 51624, Note_on_c, 9, 42, 0
2, 51648, Note_on_c, 9, 35, 96
2, 51648, Note_on_c, 9, 38, 112
2, 51648, Note_on_c, 9, 42, 80
2, 51648, Note_on_c, 9, 46, 80
2, 51672, Note_on_c, 9, 46, 0
2, 51672, Note_on_c, 9, 42, 0
2, 51696, Note_on_c, 9, 38, 0
2, 51696, Note_on_c, 9, 35, 0
2, 51696, Note_on_c, 9, 42, 80
2, 51720, Note_on_c, 9, 42, 0
2, 51744, Note_on_c, 9, 42, 64
2, 51768, Note_on_c, 9, 42, 0
2, 51792, Note_on_c, 9, 42, 96
2, 51792, Note_on_c, 9, 46, 112
2, 51816, Note_on_c, 9, 46, 0
2, 51816, Note_on_c, 9, 42, 0
2, 51840, Note_on_c, 9, 35, 96
2, 51840, Note_on_c, 9, 42, 80
2, 51864, Note_on_c, 9, 42, 0
2, 51888, Note_on_c, 9, 35, 0
2, 51888, Note_on_c, 9, 42, 64
2, 51888, Note_on_c, 9, 46, 112
2, 51912, Note_on_c, 9, 46, 0
2, 51912, Note_on_c, 9, 42, 0
2, 51936, Note_on_c, 9, 42, 80
2, 51960, Note_on_c, 9, 42, 0
2, 51984, Note_on_c, 9, 42, 80
2, 52008, Note_on_c, 9, 42, 0
2, 52032, Note_on_c, 9, 35, 96
2, 52032, Note_on_c, 9, 38, 112
2, 52032, Note_on_c, 9, 42, 64
2, 52032, Note_on_c, 9, 46, 112
2, 52056, Note_on_c, 9, 46, 0
2, 52056, Note_on_c, 9, 42, 0
2, 52080, Note_on_c, 9, 38, 0
2, 52080, Note_on_c, 9, 35, 0
2, 52080, Note_on_c, 9, 42, 96
2, 52104, Note_on_c, 9, 42, 0
2, 52128, Note_on_c, 9, 42, 80
2, 52152, Note_on_c, 9, 42, 0
2, 52176, Note_on_c, 9, 42, 64
2, 52200, Note_on_c, 9, 42, 0
2, 52224, Note_on_c, 9, 35, 96
2, 52224, Note_on_c, 9, 42, 80
2, 52248, Note_on_c, 9, 42, 0
2, 52272, Note_on_c, 9, 35, 0
2, 52272, Note_on_c, 9, 42, 64
2, 52296, Note_on_c, 9, 42, 0
2, 52320, Note_on_c, 9, 42, 80
2, 52344, Note_on_c, 9, 42, 0
2, 52368, Note_on_c, 9, 42, 64
2, 52392, Note_on_c, 9, 42, 0
2, 52416, Note_on_c, 9, 35, 96
2, 52416, Note_on_c, 9, 38, 112
2, 52416, Note_on_c, 9, 42, 80
2, 52416, Note_on_c, 9, 46, 80
2, 52440, Note_on_c, 9, 46, 0
2, 52440, Note_on_c, 9, 42, 0
2, 52464, Note_on_c, 9, 38, 0
2, 52464, Note_on_c, 9, 35, 0
2, 52464, Note_on_c, 9, 42, 80
2, 52488, Note_on_c, 9, 42, 0
2, 52512, Note_on_c, 9, 42, 64
2, 52536, Note_on_c, 9, 42, 0
2, 52560, Note_on_c, 9, 42, 96
2, 52560, Note_on_c, 9, 46, 112
2, 52584, Note_on_c, 9, 46, 0
2, 52584, Note_on_c, 9, 42, 0
2, 52608, Note_on_c, 9, 35, 96
2, 52608, Note_on_c, 9, 42, 80
2, 52632, Note_on_c, 9, 42, 0
2, 52656, Note_on_c, 9, 35, 0
2, 52656, Note_on_c, 9, 42, 64
2, 52656, Note_on_c, 9, 46, 112
2, 52680, Note_on_c, 9, 46, 0
2, 52680, Note_on_c, 9, 42, 0
2, 52704, Note_on_c, 9, 42, 80
2, 52728, Note_on_c, 9, 42, 0
2, 52752, Note_on_c, 9, 42, 80
2, 52776, Note_on_c, 9, 42, 0
2, 52800, Note_on_c, 9, 35, 96
2, 52800, Note_on_c, 9, 38, 112
2, 52800, Note_on_c, 9, 42, 64
2, 52800, Note_on_c, 9, 46, 112
2, 52824, Note_on_c, 9, 46, 0
2, 52824, Note_on_c, 9, 42, 0
2, 52848, Note_on_c, 9, 38, 0
2, 52848, Note_on_c, 9, 35, 0
2, 52848, Note_on_c, 9, 42, 96
2, 52872, Note_on_c, 9, 42, 0
2, 52896, Note_on_c, 9, 42, 80
2, 52920, Note_on_c, 9, 42, 0
2, 52944, Note_on_c, 9, 42, 64
2, 52968, Note_on_c, 9, 42, 0
2, 52992, Note_on_c, 9, 35, 96
2, 52992, Note_on_c, 9, 42, 80
2, 53016, Note_on_c, 9, 42, 0
2, 53040, Note_on_c, 9, 35, 0
2, 53040, Note_on_c, 9, 42, 64
2, 53064, Note_on_c, 9, 42, 0
2, 53088, Note_on_c, 9, 42, 80
2, 53112, Note_on_c, 9, 42, 0
2, 53136, Note_on_c, 9, 42, 64
2, 53160, Note_on_c, 9, 42, 0
2, 53184, Note_on_c, 9, 35, 96
2, 53184, Note_on_c, 9, 38, 112
2, 53184, Note_on_c, 9, 42, 80
2, 53184, Note_on_c, 9, 46, 80
2, 53208, Note_on_c, 9, 46, 0
2, 53208, Note_on_c, 9, 42, 0
2, 53232, Note_on_c, 9, 38, 0
2, 53232, Note_on_c, 9, 35, 0
2, 53232, Note_on_c, 9, 42, 80
2, 53256, Note_on_c, 9, 42, 0
2, 53280, Note_on_c, 9, 42, 64
2, 53304, Note_on_c, 9, 42, 0
2, 53328, Note_on_c, 9, 42, 96
2, 53328, Note_on_c, 9, 46, 112
2, 53352, Note_on_c, 9, 46, 0
2, 53352, Note_on_c, 9, 42, 0
2, 53376, Note_on_c, 9, 35, 96
2, 53376, Note_on_c, 9, 42, 80
2, 53400, Note_on_c, 9, 42, 0
2, 53424, Note_on_c, 9, 35, 0
2, 53424, Note_on_c, 9, 42, 64
2, 53424, Note_on_c, 9, 46, 112
2, 53448, Note_on_c, 9, 46, 0
2, 53448, Note_on_c, 9, 42, 0
2, 53472, Note_on_c, 9, 42, 80
2, 53496, Note_on_c, 9, 42, 0
2, 53520, Note_on_c, 9, 42, 80
2, 53544, Note_on_c, 9, 42, 0
2, 53568, Note_on_c, 9, 35, 96
2, 53568, Note_on_c, 9, 38, 112
2, 53568, Note_on_c, 9, 42, 64
2, 53568, Note_on_c, 9, 46, 112
2, 53592, Note_on_c, 9, 46, 0
2, 53592, Note_on_c, 9, 42, 0
2, 53616, Note_on_c, 9, 38, 0
2, 53616, Note_on_c, 9, 35, 0
2, 53616, Note_on_c, 9, 42, 96
2, 53640, Note_on_c, 9, 42, 0
2, 53664, Note_on_c, 9, 42, 80
2, 53688, Note_on_c, 9, 42, 0
2, 53712, Note_on_c, 9, 42, 64
2, 53736, Note_on_c, 9, 42, 0
2, 53760, Note_on_c, 9, 35, 96
2, 53760, Note_on_c, 9, 42, 80
2, 53784, Note_on_c, 9, 42, 0
2, 53808, Note_on_c, 9, 35, 0
2, 53808, Note_on_c, 9, 42, 64
2, 53832, Note_on_c, 9, 42, 0
2, 53856, Note_on_c, 9, 42, 80
2, 53880, Note_on_c, 9, 42, 0
2, 53904, Note_on_c, 9, 42, 64
2, 53928, Note_on_c, 9, 42, 0
2, 53952, Note_on_c, 9, 35, 96
2, 53952, Note_on_c, 9, 38, 112
2, 53952, Note_on_c, 9, 42, 80
2, 53952, Note_on_c, 9, 46, 80
2, 53976, Note_on_c, 9, 46, 0
2, 53976, Note_on_c, 9, 42, 0
2, 54000, Note_on_c, 9, 38, 0
2, 54000, Note_on_c, 9, 35, 0
2, 54000, Note_on_c, 9, 42, 80
2, 54024, Note_on_c, 9, 42, 0
2, 54048, Note_on_c, 9, 42, 64
2, 54072, Note_on_c, 9, 42, 0
2, 54096, Note_on_c, 9, 42, 96
2, 54096, Note_on_c, 9, 46, 112
2, 54120, Note_on_c, 9, 46, 0
2, 54120, Note_on_c, 9, 42, 0
2, 54144, Note_on_c, 9, 35, 96
2, 54144, Note_on_c, 9, 42, 80
2, 54168, Note_on_c, 9, 42, 0
2, 54192, Note_on_c, 9, 35, 0
2, 54192, Note_on_c, 9, 42, 64
2, 54192, Note_on_c, 9, 46, 112
2, 54216, Note_on_c, 9, 46, 0
2, 54216, Note_on_c, 9, 42, 0
2, 54240, Note_on_c, 9, 42, 80
2, 54264, Note_on_c, 9, 42, 0
2, 54288, Note_on_c, 9, 42, 80
2, 54312, Note_on_c, 9, 42, 0
2, 54336, Note_on_c, 9, 35, 96
2, 54336, Note_on_c, 9, 38, 112
2, 54336, Note_on_c, 9, 42, 64
2, 54336, Note_on_c, 9, 46, 112
2, 54360, Note_on_c, 9, 46, 0
2, 54360, Note_on_c, 9, 42, 0
2, 54384, Note_on_c, 9, 38, 0
2, 54384, Note_on_c, 9, 35, 0
2, 54384, Note_on_c, 9, 42, 96
2, 54408, Note_on_c, 9, 42, 0
2, 54432, Note_on_c, 9, 42, 80
2, 54456, Note_on_c, 9, 42, 0
2, 54480, Note_on_c, 9, 42, 64
2, 54504, Note_on_c, 9, 42, 0
2, 54528, Note_on_c, 9, 35, 96
2, 54528, Note_on_c, 9, 42, 80
2, 54552, Note_on_c, 9, 42, 0
2, 54576, Note_on_c, 9, 35, 0
2, 54576, Note_on_c, 9, 42, 64
2, 54600, Note_on_c, 9, 42, 0
2, 54624, Note_on_c, 9, 42, 80
2, 54648, Note_on_c, 9, 42, 0
2, 54672, Note_on_c, 9, 42, 64
2, 54696, Note_on_c, 9, 42, 0
2, 54720, Note_on_c, 9, 35, 96
2, 54720, Note_on_c, 9, 38, 112
2, 54720, Note_on_c, 9, 42, 80
2, 54720, Note_on_c, 9, 46, 80
2, 54744, Note_on_c, 9, 46, 0
2, 54744, Note_on_c, 9, 42, 0
2, 54768, Note_on_c, 9, 38, 0
2, 54768, Note_on_c, 9, 35, 0
2, 54768, Note_on_c, 9, 42, 80
2, 54792, Note_on_c, 9, 42, 0
2, 54816, Note_on_c, 9, 42, 64
2, 54840, Note_on_c, 9, 42, 0
2, 54864, Note_on_c, 9, 42, 96
2, 54864, Note_on_c, 9, 46, 112
2, 54888, Note_on_c, 9, 46, 0
2, 54888, Note_on_c, 9, 42, 0
2, 54912, Note_on_c, 9, 35, 96
2, 54912, Note_on_c, 9, 42, 80
2, 54936, Note_on_c, 9, 42, 0
2, 54960, Note_on_c, 9, 35, 0
2, 54960, Note_on_c, 9, 42, 64
2, 54960, Note_on_c, 9, 46, 112
2, 54984, Note_on_c, 9, 46, 0
2, 54984, Note_on_c, 9, 42, 0
2, 55008, Note_on_c, 9, 42, 80
2, 55032, Note_on_c, 9, 42, 0
2, 55056, Note_on_c, 9, 42, 80
2, 55080, Note_on_c, 9, 42, 0
2, 55104, Note_on_c, 9, 35, 96
2, 55104, Note_on_c, 9, 38, 112
2, 55104, Note_on_c, 9, 42, 64
2, 55104, Note_on_c, 9, 46, 112
2, 55128, Note_on_c, 9, 46, 0
2, 55128, Note_on_c, 9, 42, 0
2, 55152, Note_on_c, 9, 38, 0
2, 55152, Note_on_c, 9, 35, 0
2, 55152, Note_on_c, 9, 42, 96
2, 55176, Note_on_c, 9, 42, 0
2, 55200, Note_on_c, 9, 42, 80
2, 55224, Note_on_c, 9, 42, 0
2, 55248, Note_on_c, 9, 42, 64
2, 55272, Note_on_c, 9, 42, 0
2, 55296, Note_on_c, 9, 35, 96
2, 55296, Note_on_c, 9, 38, 48
2, 55296, Note_on_c, 9, 42, 80
2, 55320, Note_on_c, 9, 42, 0
2, 55320, Note_on_c, 9, 38, 0
2, 55344, Note_on_c, 9, 35, 0
2, 55344, Note_on_c, 9, 38, 48
2, 55344, Note_on_c, 9, 42, 64
2, 55368, Note_on_c, 9, 42, 0
2, 55368, Note_on_c, 9, 38, 0
2, 55392, Note_on_c, 9, 38, 48
2, 55392, Note_on_c, 9, 42, 80
2, 55416, Note_on_c, 9, 42, 0
2, 55416, Note_on_c, 9, 38, 0
2, 55440, Note_on_c, 9, 38, 48
2, 55440, Note_on_c, 9, 42, 64
2, 55464, Note_on_c, 9, 42, 0
2, 55464, Note_on_c, 9, 38, 0
2, 55488, Note_on_c, 9, 35, 96
2, 55488, Note_on_c, 9, 38, 64
2, 55488, Note_on_c, 9, 42, 80
2, 55512, Note_on_c, 9, 42, 0
2, 55512, Note_on_c, 9, 38, 0
2, 55536, Note_on_c, 9, 35, 0
2, 55536, Note_on_c, 9, 38, 64
2, 55536, Note_on_c, 9, 42, 80
2, 55560, Note_on_c, 9, 42, 0
2, 55560, Note_on_c, 9, 38, 0
2, 55584, Note_on_c, 9, 38, 64
2, 55584, Note_on_c, 9, 42, 64
2, 55608, Note_on_c, 9, 42, 0
2, 55608, Note_on_c, 9, 38, 0
2, 55632, Note_on_c, 9, 38, 64
2, 55632, Note_on_c, 9, 42, 96
2, 55656, Note_on_c, 9, 42, 0
2, 55656, Note_on_c, 9, 38, 0
2, 55680, Note_on_c, 9, 35, 96
2, 55680, Note_on_c, 9, 38, 80
2, 55680, Note_on_c, 9, 42, 80
2, 55704, Note_on_c, 9, 42, 0
2, 55704, Note_on_c, 9, 38, 0
2, 55728, Note_on_c, 9, 35, 0
2, 55728, Note_on_c, 9, 38, 80
2, 55728, Note_on_c, 9, 42, 64
2, 55752, Note_on_c, 9, 42, 0
2, 55752, Note_on_c, 9, 38, 0
2, 55776, Note_on_c, 9, 38, 80
2, 55776, Note_on_c, 9, 42, 80
2, 55800, Note_on_c, 9, 42, 0
2, 55800, Note_on_c, 9, 38, 0
2, 55824, Note_on_c, 9, 38, 80
2, 55824, Note_on_c, 9, 42, 80
2, 55848, Note_on_c, 9, 42, 0
2, 55848, Note_on_c, 9, 38, 0
2, 55872, Note_on_c, 9, 35, 96
2, 55872, Note_on_c, 9, 38, 96
2, 55872, Note_on_c, 9, 42, 64
2, 55896, Note_on_c, 9, 42, 0
2, 55896, Note_on_c, 9, 38, 0
2, 55920, Note_on_c, 9, 35, 0
2, 55920, Note_on_c, 9, 38, 96
2, 55920, Note_on_c, 9, 42, 96
2, 55944, Note_on_c, 9, 42, 0
2, 55944, Note_on_c, 9, 38, 0
2, 55968, Note_on_c, 9, 38, 112
2, 55968, Note_on_c, 9, 42, 80
2, 55992, Note_on_c, 9, 42, 0
2, 55992, Note_on_c, 9, 38, 0
2, 56016, Note_on_c, 9, 38, 127
2, 56016, Note_on_c, 9, 42, 64
2, 56040, Note_on_c, 9, 42, 0
2, 56040, Note_on_c, 9, 38, 0
2, 56040, Note_on_c, 9, 49, 96
2, 56052, Note_on_c, 9, 49, 0
2, 56064, Note_on_c, 9, 35, 96
2, 56064, Note_on_c, 9, 42, 80
2, 56088, Note_on_c, 9, 42, 0
2, 56112, Note_on_c, 9, 35, 0
2, 56112, Note_on_c, 9, 42, 64
2, 56136, Note_on_c, 9, 42, 0
2, 56160, Note_on_c, 9, 42, 80
2, 56184, Note_on_c, 9, 42, 0
2, 56208, Note_on_c, 9, 42, 64
2, 56232, Note_on_c, 9, 42, 0
2, 56256, Note_on_c, 9, 35, 96
2, 56256, Note_on_c, 9, 38, 112
2, 56256, Note_on_c, 9, 42, 80
2, 56256, Note_on_c, 9, 46, 80
2, 56280, Note_on_c, 9, 46, 0
2, 56280, Note_on_c, 9, 42, 0
2, 56304, Note_on_c, 9, 38, 0
2, 56304, Note_on_c, 9, 35, 0
2, 56304, Note_on_c, 9, 42, 80
2, 56328, Note_on_c, 9, 42, 0
2, 56352, Note_on_c, 9, 42, 64
2, 56376, Note_on_c, 9, 42, 0
2, 56400, Note_on_c, 9, 42, 96
2, 56400, Note_on_c, 9, 46, 112
2, 56424, Note_on_c, 9, 46, 0
2, 56424, Note_on_c, 9, 42, 0
2, 56448, Note_on_c, 9, 35, 96
2, 56448, Note_on_c, 9, 42, 80
2, 56472, Note_on_c, 9, 42, 0
2, 56496, Note_on_c, 9, 35, 0
2, 56496, Note_on_c, 9, 42, 64
2, 56496, Note_on_c, 9, 46, 112
2, 56520, Note_on_c, 9, 46, 0
2, 56520, Note_on_c, 9, 42, 0
2, 56544, Note_on_c, 9, 42, 80
2, 56568, Note_on_c, 9, 42, 0
2, 56592, Note_on_c, 9, 42, 80
2, 56616, Note_on_c, 9, 42, 0
2, 56640, Note_on_c, 9, 35, 96
2, 56640, Note_on_c, 9, 38, 112
2, 56640, Note_on_c, 9, 42, 64
2, 56640, Note_on_c, 9, 46, 112
2, 56664, Note_on_c, 9, 46, 0
2, 56664, Note_on_c, 9, 42, 0
2, 56688, Note_on_c, 9, 38, 0
2, 56688, Note_on_c, 9, 35, 0
2, 56688, Note_on_c, 9, 42, 96
2, 56712, Note_on_c, 9, 42, 0
2, 56736, Note_on_c, 9, 42, 80
2, 56760, Note_on_c, 9, 42, 0
2, 56784, Note_on_c, 9, 42, 64
2, 56808, Note_on_c, 9, 42, 0
2, 56832, Note_on_c, 9, 35, 96
2, 56832, Note_on_c, 9, 42, 80
2, 56856, Note_on_c, 9, 42, 0
2, 56880, Note_on_c, 9, 35, 0
2, 56880, Note_on_c, 9, 42, 64
2, 56904, Note_on_c, 9, 42, 0
2, 56928, Note_on_c, 9, 42, 80
2, 56952, Note_on_c, 9, 42, 0
2, 56976, Note_on_c, 9, 42, 64
2, 57000, Note_on_c, 9, 42, 0
2, 57024, Note_on_c, 9, 35, 96
2, 57024, Note_on_c, 9, 38, 112
2, 57024, Note_on_c, 9, 42, 80
2, 57024, Note_on_c, 9, 46, 80
2, 57048, Note_on_c, 9, 46, 0
2, 57048, Note_on_c, 9, 42, 0
2, 57072, Note_on_c, 9, 38, 0
2, 57072, Note_on_c, 9, 35, 0
2, 57072, Note_on_c, 9, 42, 80
2, 57096, Note_on_c, 9, 42, 0
2, 57120, Note_on_c, 9, 42, 64
2, 57144, Note_on_c, 9, 42, 0
2, 57168, Note_on_c, 9, 42, 96
2, 57168, Note_on_c, 9, 46, 112
2, 57192, Note_on_c, 9, 46, 0
2, 57192, Note_on_c, 9, 42, 0
2, 57216, Note_on_c, 9, 35, 96
2, 57216, Note_on_c, 9, 42, 80
2, 57240, Note_on_c, 9, 42, 0
2, 57264, Note_on_c, 9, 35, 0
2, 57264, Note_on_c, 9, 42, 64
2, 57264, Note_on_c, 9, 46, 112
2, 57288, Note_on_c, 9, 46, 0
2, 57288, Note_on_c, 9, 42, 0
2, 57312, Note_on_c, 9, 42, 80
2, 57336, Note_on_c, 9, 42, 0
2, 57360, Note_on_c, 9, 42, 80
2, 57384, Note_on_c, 9, 42, 0
2, 57408, Note_on_c, 9, 35, 96
2, 57408, Note_on_c, 9, 38, 112
2, 57408, Note_on_c, 9, 42, 64
2, 57408, Note_on_c, 9, 46, 112
2, 57432, Note_on_c, 9, 46, 0
2, 57432, Note_on_c, 9, 42, 0
2, 57456, Note_on_c, 9, 38, 0
2, 57456, Note_on_c, 9, 35, 0
2, 57456, Note_on_c, 9, 42, 96
2, 57480, Note_on_c, 9, 42, 0
2, 57504, Note_on_c, 9, 42, 80
2, 57528, Note_on_c, 9, 42, 0
2, 57552, Note_on_c, 9, 42, 64
2, 57576, Note_on_c, 9, 42, 0
2, 57600, Note_on_c, 9, 35, 96
2, 57600, Note_on_c, 9, 42, 80
2, 57624, Note_on_c, 9, 42, 0
2, 57648, Note_on_c, 9, 35, 0
2, 57648, Note_on_c, 9, 42, 64
2, 57672, Note_on_c, 9, 42, 0
2, 57696, Note_on_c, 9, 42, 80
2, 57720, Note_on_c, 9, 42, 0
2, 57744, Note_on_c, 9, 42, 64
2, 57768, Note_on_c, 9, 42, 0
2, 57792, Note_on_c, 9, 35, 96
2, 57792, Note_on_c, 9, 38, 112
2, 57792, Note_on_c, 9, 42, 80
2, 57792, Note_on_c, 9, 46, 80
2, 57816, Note_on_c, 9, 46, 0
2, 57816, Note_on_c, 9, 42, 0
2, 57840, Note_on_c, 9, 38, 0
2, 57840, Note_on_c, 9, 35, 0
2, 57840, Note_on_c, 9, 42, 80
2, 57864, Note_on_c, 9, 42, 0
2, 57888, Note_on_c, 9, 42, 64
2, 57912, Note_on_c, 9, 42, 0
2, 57936, Note_on_c, 9, 42, 96
2, 57936, Note_on_c, 9, 46, 112
2, 57960, Note_on_c, 9, 46, 0
2, 57960, Note_on_c, 9, 42, 0
2, 57984, Note_on_c, 9, 35, 96
2, 57984, Note_on_c, 9, 42, 80
2, 58008, Note_on_c, 9, 42, 0
2, 58032, Note_on_c, 9, 35, 0
2, 58032, Note_on_c, 9, 42, 64
2, 58032, Note_on_c, 9, 46, 112
2, 58056, Note_on_c, 9, 46, 0
2, 58056, Note_on_c, 9, 42, 0
2, 58080, Note_on_c, 9, 42, 80
2, 58104, Note_on_c, 9, 42, 0
2, 58128, Note_on_c, 9, 42, 80
2, 58152, Note_on_c, 9, 42, 0
2, 58176, Note_on_c, 9, 35, 96
2, 58176, Note_on_c, 9, 38, 112
2, 58176, Note_on_c, 9, 42, 64
2, 58176, Note_on_c, 9, 46, 112
2, 58200, Note_on_c, 9, 46, 0
2, 58200, Note_on_c, 9, 42, 0
2, 58224, Note_on_c, 9, 38, 0
2, 58224, Note_on_c, 9, 35, 0
2, 58224, Note_on_c, 9, 42, 96
2, 58248, Note_on_c, 9, 42, 0
2, 58272, Note_on_c, 9, 42, 80
2, 58296, Note_on_c, 9, 42, 0
2, 58320, Note_on_c, 9, 42, 64
2, 58344, Note_on_c, 9, 42, 0
2, 58368, Note_on_c, 9, 35, 96
2, 58368, Note_on_c, 9, 42, 80
2, 58392, Note_on_c, 9, 42, 0
2, 58416, Note_on_c, 9, 35, 0
2, 58416, Note_on_c, 9, 42, 64
2, 58440, Note_on_c, 9, 42, 0
2, 58464, Note_on_c, 9, 42, 80
2, 58488, Note_on_c, 9, 42, 0
2, 58512, Note_on_c, 9, 42, 64
2, 58536, Note_on_c, 9, 42, 0
2, 58560, Note_on_c, 9, 35, 96
2, 58560, Note_on_c, 9, 38, 112
2, 58560, Note_on_c, 9, 42, 80
2, 58560, Note_on_c, 9, 46, 80
2, 58584, Note_on_c, 9, 46, 0
2, 58584, Note_on_c, 9, 42, 0
2, 58608, Note_on_c, 9, 38, 0
2, 58608, Note_on_c, 9, 35, 0
2, 58608, Note_on_c, 9, 42, 80
2, 58632, Note_on_c, 9, 42, 0
2, 58656, Note_on_c, 9, 42, 64
2, 58680, Note_on_c, 9, 42, 0
2, 58704, Note_on_c, 9, 42, 96
2, 58704, Note_on_c, 9, 46, 112
2, 58728, Note_on_c, 9, 46, 0
2, 58728, Note_on_c, 9, 42, 0
2, 58752, Note_on_c, 9, 35, 96
2, 58752, Note_on_c, 9, 42, 80
2, 58776, Note_on_c, 9, 42, 0
2, 58800, Note_on_c, 9, 35, 0
2, 58800, Note_on_c, 9, 42, 64
2, 58800, Note_on_c, 9, 46, 112
2, 58824, Note_on_c, 9, 46, 0
2, 58824, Note_on_c, 9, 42, 0
2, 58848, Note_on_c, 9, 42, 80
2, 58872, Note_on_c, 9, 42, 0
2, 58896, Note_on_c, 9, 42, 80
2, 58920, Note_on_c, 9, 42, 0
2, 58944, Note_on_c, 9, 35, 96
2, 58944, Note_on_c, 9, 38, 112
2, 58944, Note_on_c, 9, 42, 64
2, 58944, Note_on_c, 9, 46, 112
2, 58968, Note_on_c, 9, 46, 0
2, 58968, Note_on_c, 9, 42, 0
2, 58992, Note_on_c, 9, 38, 0
2, 58992, Note_on_c, 9, 35, 0
2, 58992, Note_on_c, 9, 42, 96
2, 59016, Note_on_c, 9, 42, 0
2, 59040, Note_on_c, 9, 42, 80
2, 59064, Note_on_c, 9, 42, 0
2, 59088, Note_on_c, 9, 42, 64
2, 59112, Note_on_c, 9, 42, 0
2, 59136, Note_on_c, 9, 35, 96
2, 59136, Note_on_c, 9, 42, 80
2, 59160, Note_on_c, 9, 42, 0
2, 59184, Note_on_c, 9, 35, 0
2, 59184, Note_on_c, 9, 42, 64
2, 59208, Note_on_c, 9, 42, 0
2, 59232, Note_on_c, 9, 42, 80
2, 59256, Note_on_c, 9, 42, 0
2, 59280, Note_on_c, 9, 42, 64
2, 59304, Note_on_c, 9, 42, 0
2, 59328, Note_on_c, 9, 35, 96
2, 59328, Note_on_c, 9, 38, 112
2, 59328, Note_on_c, 9, 42, 80
2, 59328, Note_on_c, 9, 46, 80
2, 59352, Note_on_c, 9, 46, 0
2, 59352, Note_on_c, 9, 42, 0
2, 59376, Note_on_c, 9, 38, 0
2, 59376, Note_on_c, 9, 35, 0
2, 59376, Note_on_c, 9, 42, 80
2, 59400, Note_on_c, 9, 42, 0
2, 59424, Note_on_c, 9, 42, 64
2, 59448, Note_on_c, 9, 42, 0
2, 59472, Note_on_c, 9, 42, 96
2, 59472, Note_on_c, 9, 46, 112
2, 59496, Note_on_c, 9, 46, 0
2, 59496, Note_on_c, 9, 42, 0
2, 59520, Note_on_c, 9, 35, 96
2, 59520, Note_on_c, 9, 42, 80
2, 59544, Note_on_c, 9, 42, 0
2, 59568, Note_on_c, 9, 35, 0
2, 59568, Note_on_c, 9, 42, 64
2, 59568, Note_on_c, 9, 46, 112
2, 59592, Note_on_c, 9, 46, 0
2, 59592, Note_on_c, 9, 42, 0
2, 59616, Note_on_c, 9, 42, 80
2, 59640, Note_on_c, 9, 42, 0
2, 59664, Note_on_c, 9, 42, 80
2, 59688, Note_on_c, 9, 42, 0
2, 59712, Note_on_c, 9, 35, 96
2, 59712, Note_on_c, 9, 38, 112
2, 59712, Note_on_c, 9, 42, 64
2, 59712, Note_on_c, 9, 46, 112
2, 59736, Note_on_c, 9, 46, 0
2, 59736, Note_on_c, 9, 42, 0
2, 59760, Note_on_c, 9, 38, 0
2, 59760, Note_on_c, 9, 35, 0
2, 59760, Note_on_c, 9, 42, 96
2, 59784, Note_on_c, 9, 42, 0
2, 59808, Note_on_c, 9, 42, 80
2, 59832, Note_on_c, 9, 42, 0
2, 59856, Note_on_c, 9, 42, 64
2, 59880, Note_on_c, 9, 42, 0
2, 59904, Note_on_c, 9, 35, 96
2, 59904, Note_on_c, 9, 42, 80
2, 59928, Note_on_c, 9, 42, 0
2, 59952, Note_on_c, 9, 35, 0
2, 59952, Note_on_c, 9, 42, 64
2, 59976, Note_on_c, 9, 42, 0
2, 60000, Note_on_c, 9, 42, 80
2, 60024, Note_on_c, 9, 42, 0
2, 60048, Note_on_c, 9, 42, 64
2, 60072, Note_on_c, 9, 42, 0
2, 60096, Note_on_c, 9, 35, 96
2, 60096, Note_on_c, 9, 38, 112
2, 60096, Note_on_c, 9, 42, 80
2, 60096, Note_on_c, 9, 46, 80
2, 60120, Note_on_c, 9, 46, 0
2, 60120, Note_on_c, 9, 42, 0
2, 60144, Note_on_c, 9, 38, 0
2, 60144, Note_on_c, 9, 35, 0
2, 60144, Note_on_c, 9, 42, 80
2, 60168, Note_on_c, 9, 42, 0
2, 60192, Note_on_c, 9, 42, 64
2, 60216, Note_on_c, 9, 42, 0
2, 60240, Note_on_c, 9, 42, 96
2, 60240, Note_on_c, 9, 46, 112
2, 60264, Note_on_c, 9, 46, 0
2, 60264, Note_on_c, 9, 42, 0
2, 60288, Note_on_c, 9, 35, 96
2, 60288, Note_on_c, 9, 42, 80
2, 60312, Note_on_c, 9, 42, 0
2, 60336, Note_on_c, 9, 35, 0
2, 60336, Note_on_c, 9, 42, 64
2, 60336, Note_on_c, 9, 46, 112
2, 60360, Note_on_c, 9, 46, 0
2, 60360, Note_on_c, 9, 42, 0
2, 60384, Note_on_c, 9, 42, 80
2, 60408, Note_on_c, 9, 42, 0
2, 60432, Note_on_c, 9, 42, 80
2, 60456, Note_on_c, 9, 42, 0
2, 60480, Note_on_c, 9, 35, 96
2, 60480, Note_on_c, 9, 38, 112
2, 60480, Note_on_c, 9, 42, 64
2, 60480, Note_on_c, 9, 46, 112
2, 60504, Note_on_c, 9, 46, 0
2, 60504, Note_on_c, 9, 42, 0
2, 60528, Note_on_c, 9, 38, 0
2, 60528, Note_on_c, 9, 35, 0
2, 60528, Note_on_c, 9, 42, 96
2, 60552, Note_on_c, 9, 42, 0
2, 60576, Note_on_c, 9, 42, 80
2, 60600, Note_on_c, 9, 42, 0
2, 60624, Note_on_c, 9, 42, 64
2, 60648, Note_on_c, 9, 42, 0
2, 60672, Note_on_c, 9, 35, 96
2, 60672, Note_on_c, 9, 42, 80
2, 60696, Note_on_c, 9, 42, 0
2, 60720, Note_on_c, 9, 35, 0
2, 60720, Note_on_c, 9, 42, 64
2, 60744, Note_on_c, 9, 42, 0
2, 60768, Note_on_c, 9, 42, 80
2, 60792, Note_on_c, 9, 42, 0
2, 60816, Note_on_c, 9, 42, 64
2, 60840, Note_on_c, 9, 42, 0
2, 60864, Note_on_c, 9, 35, 96
2, 60864, Note_on_c, 9, 38, 112
2, 60864, Note_on_c, 9, 42, 80
2, 60864, Note_on_c, 9, 46, 80
2, 60888, Note_on_c, 9, 46, 0
2, 60888, Note_on_c, 9, 42, 0
2, 60912, Note_on_c, 9, 38, 0
2, 60912, Note_on_c, 9, 35, 0
2, 60912, Note_on_c, 9, 42, 80
2, 60936, Note_on_c, 9, 42, 0
2, 60960, Note_on_c, 9, 42, 64
2, 60984, Note_on_c, 9, 42, 0
2, 61008, Note_on_c, 9, 42, 96
2, 61008, Note_on_c, 9, 46, 112
2, 61032, Note_on_c, 9, 46, 0
2, 61032, Note_on_c, 9, 42, 0
2, 61056, Note_on_c, 9, 35, 96
2, 61056, Note_on_c, 9, 42, 80
2, 61080, Note_on_c, 9, 42, 0
2, 61104, Note_on_c, 9, 35, 0
2, 61104, Note_on_c, 9, 42, 64
2, 61104, Note_on_c, 9, 46, 112
2, 61128, Note_on_c, 9, 46, 0
2, 61128, Note_on_c, 9, 42, 0
2, 61152, Note_on_c, 9, 42, 80
2, 61176, Note_on_c, 9, 42, 0
2, 61200, Note_on_c, 9, 42, 80
2, 61224, Note_on_c, 9, 42, 0
2, 61248, Note_on_c, 9, 35, 96
2, 61248, Note_on_c, 9, 38, 112
2, 61248, Note_on_c, 9, 42, 64
2, 61248, Note_on_c, 9, 46, 112
2, 61272, Note_on_c, 9, 46, 0
2, 61272, Note_on_c, 9, 42, 0
2, 61296, Note_on_c, 9, 38, 0
2, 61296, Note_on_c, 9, 35, 0
2, 61296, Note_on_c, 9, 42, 96
2, 61320, Note_on_c, 9, 42, 0
2, 61344, Note_on_c, 9, 42, 80
2, 61368, Note_on_c, 9, 42, 0
2, 61392, Note_on_c, 9, 42, 64
2, 61416, Note_on_c, 9, 42, 0
2, 61440, Note_on_c, 9, 35, 96
2, 61440, Note_on_c, 9, 42, 80
2, 61464, Note_on_c, 9, 42, 0
2, 61488, Note_on_c, 9, 35, 0
2, 61488, Note_on_c, 9, 42, 64
2, 61512, Note_on_c, 9, 42, 0
2, 61536, Note_on_c, 9, 42, 80
2, 61560, Note_on_c, 9, 42, 0
2, 61584, Note_on_c, 9, 42, 64
2, 61608, Note_on_c, 9, 42, 0
2, 61632, Note_on_c, 9, 35, 96
2, 61632, Note_on_c, 9, 38, 112
2, 61632, Note_on_c, 9, 42, 80
2, 61632, Note_on_c, 9, 46, 80
2, 61656, Note_on_c, 9, 46, 0
2, 61656, Note_on_c, 9, 42, 0
2, 61680, Note_on_c, 9, 38, 0
2, 61680, Note_on_c, 9, 35, 0
2, 61680, Note_on_c, 9, 42, 80
2, 61704, Note_on_c, 9, 42, 0
2, 61728, Note_on_c, 9, 42, 64
2, 61752, Note_on_c, 9, 42, 0
2, 61776, Note_on_c, 9, 42, 96
2, 61776, Note_on_c, 9, 46, 112
2, 61800, Note_on_c, 9, 46, 0
2, 61800, Note_on_c, 9, 42, 0
2, 61824, Note_on_c, 9, 35, 96
2, 61824, Note_on_c, 9, 42, 80
2, 61848, Note_on_c, 9, 42, 0
2, 61872, Note_on_c, 9, 35, 0
2, 61872, Note_on_c, 9, 42, 64
2, 61872, Note_on_c, 9, 46, 112
2, 61896, Note_on_c, 9, 46, 0
2, 61896, Note_on_c, 9, 42, 0
2, 61920, Note_on_c, 9, 42, 80
2, 61944, Note_on_c, 9, 42, 0
2, 61968, Note_on_c, 9, 42, 80
2, 61992, Note_on_c, 9, 42, 0
2, 62016, Note_on_c, 9, 35, 96
2, 62016, Note_on_c, 9, 38, 112
2, 62016, Note_on_c, 9, 42, 64
2, 62016, Note_on_c, 9, 46, 112
2, 62040, Note_on_c, 9, 46, 0
2, 62040, Note_on_c, 9, 42, 0
2, 62064, Note_on_c, 9, 38, 0
2, 62064, Note_on_c, 9, 35, 0
2, 62064, Note_on_c, 9, 42, 96
2, 62088, Note_on_c, 9, 42, 0
2, 62112, Note_on_c, 9, 42, 80
2, 62136, Note_on_c, 9, 42, 0
2, 62160, Note_on_c, 9, 42, 64
2, 62184, Note_on_c, 9, 42, 0
2, 62208, Note_on_c, 9, 42, 80
2, 62220, Note_on_c, 9, 42, 0
2, 62304, Note_on_c, 9, 35, 96
2, 62304, Note_on_c, 9, 38, 80
2, 62304, Note_on_c, 9, 39, 96
2, 62328, Note_on_c, 9, 39, 0
2, 62328, Note_on_c, 9, 38, 0
2, 62328, Note_on_c, 9, 35, 0
2, 62424, Note_on_c, 9, 42, 32
2, 62436, Note_on_c, 9, 42, 0
2, 62448, Note_on_c, 9, 35, 80
2, 62448, Note_on_c, 9, 36, 80
2, 62448, Note_on_c, 9, 42, 32
2, 62448, Note_on_c, 9, 45, 96
2, 62460, Note_on_c, 9, 42, 0
2, 62472, Note_on_c, 9, 35, 0
2, 62472, Note_on_c, 9, 36, 0
2, 62472, Note_on_c, 9, 45, 0
2, 62472, Note_on_c, 9, 42, 32
2, 62484, Note_on_c, 9, 42, 0
2, 62496, Note_on_c, 9, 42, 48
2, 62508, Note_on_c, 9, 42, 0
2, 62520, Note_on_c, 9, 42, 64
2, 62532, Note_on_c, 9, 42, 0
2, 62544, Note_on_c, 9, 42, 80
2, 62556, Note_on_c, 9, 42, 0
2, 62568, Note_on_c, 9, 42, 96
2, 62580, Note_on_c, 9, 42, 0
2, 62592, Note_on_c, 9, 35, 96
2, 62592, Note_on_c, 9, 38, 96
2, 62592, Note_on_c, 9, 42, 127
2, 62592, Note_on_c, 9, 39, 127
2, 62604, Note_on_c, 9, 42, 0
2, 62616, Note_on_c, 9, 35, 0
2, 62616, Note_on_c, 9, 38, 0
2, 62616, Note_on_c, 9, 39, 0
2, 62616, End_track
3, 0, Start_track
3, 0, MIDI_port, 0
3, 0, Title_t, "Track-1             "
3, 0, Control_c, 1, 7, 127
3, 384, Note_on_c, 1, 72, 87
3, 384, Note_on_c, 1, 76, 76
3, 384, Note_on_c, 1, 67, 82
3, 384, Note_on_c, 1, 60, 64
3, 394, Pitch_bend_c, 1, 7695
3, 398, Pitch_bend_c, 1, 3723
3, 402, Pitch_bend_c, 1, 1820
3, 406, Pitch_bend_c, 1, 744
3, 410, Pitch_bend_c, 1, 330
3, 422, Pitch_bend_c, 1, 1737
3, 426, Pitch_bend_c, 1, 3640
3, 430, Pitch_bend_c, 1, 5709
3, 434, Pitch_bend_c, 1, 8109
3, 440, Pitch_bend_c, 1, 8192
3, 460, Pitch_bend_c, 1, 7281
3, 464, Pitch_bend_c, 1, 4633
3, 468, Pitch_bend_c, 1, 2647
3, 472, Pitch_bend_c, 1, 1158
3, 476, Pitch_bend_c, 1, 579
3, 488, Pitch_bend_c, 1, 1075
3, 492, Pitch_bend_c, 1, 1985
3, 496, Pitch_bend_c, 1, 3061
3, 500, Pitch_bend_c, 1, 4385
3, 504, Pitch_bend_c, 1, 5130
3, 516, Pitch_bend_c, 1, 4551
3, 520, Pitch_bend_c, 1, 3227
3, 524, Pitch_bend_c, 1, 2151
3, 528, Pitch_bend_c, 1, 1489
3, 532, Pitch_bend_c, 1, 1158
3, 544, Pitch_bend_c, 1, 1241
3, 548, Pitch_bend_c, 1, 2234
3, 552, Pitch_bend_c, 1, 3640
3, 556, Pitch_bend_c, 1, 5378
3, 560, Pitch_bend_c, 1, 6867
3, 564, Pitch_bend_c, 1, 7778
3, 570, Pitch_bend_c, 1, 7943
3, 576, Pitch_bend_c, 1, 7529
3, 582, Pitch_bend_c, 1, 5957
3, 586, Pitch_bend_c, 1, 4220
3, 590, Pitch_bend_c, 1, 2482
3, 594, Pitch_bend_c, 1, 827
3, 598, Pitch_bend_c, 1, 0
3, 614, Pitch_bend_c, 1, 165
3, 618, Pitch_bend_c, 1, 1158
3, 622, Pitch_bend_c, 1, 2399
3, 626, Pitch_bend_c, 1, 3558
3, 630, Pitch_bend_c, 1, 5047
3, 634, Pitch_bend_c, 1, 6371
3, 638, Pitch_bend_c, 1, 7281
3, 642, Pitch_bend_c, 1, 7778
3, 654, Pitch_bend_c, 1, 7033
3, 658, Pitch_bend_c, 1, 5543
3, 662, Pitch_bend_c, 1, 3971
3, 666, Pitch_bend_c, 1, 2565
3, 670, Pitch_bend_c, 1, 1820
3, 686, Pitch_bend_c, 1, 2399
3, 690, Pitch_bend_c, 1, 3227
3, 696, Pitch_bend_c, 1, 3889
3, 698, Pitch_bend_c, 1, 4220
3, 712, Pitch_bend_c, 1, 3723
3, 716, Pitch_bend_c, 1, 2647
3, 720, Pitch_bend_c, 1, 1158
3, 724, Pitch_bend_c, 1, 0
3, 744, Pitch_bend_c, 1, 248
3, 748, Pitch_bend_c, 1, 1654
3, 752, Pitch_bend_c, 1, 3309
3, 756, Pitch_bend_c, 1, 4716
3, 760, Pitch_bend_c, 1, 5792
3, 764, Pitch_bend_c, 1, 6536
3, 768, Pitch_bend_c, 1, 6785
3, 780, Pitch_bend_c, 1, 5792
3, 784, Pitch_bend_c, 1, 4385
3, 788, Pitch_bend_c, 1, 2565
3, 792, Pitch_bend_c, 1, 910
3, 796, Pitch_bend_c, 1, 0
3, 812, Pitch_bend_c, 1, 82
3, 818, Pitch_bend_c, 1, 1323
3, 820, Pitch_bend_c, 1, 2565
3, 826, Pitch_bend_c, 1, 3971
3, 830, Pitch_bend_c, 1, 4882
3, 832, Pitch_bend_c, 1, 5295
3, 846, Pitch_bend_c, 1, 4633
3, 850, Pitch_bend_c, 1, 3227
3, 854, Pitch_bend_c, 1, 1737
3, 858, Pitch_bend_c, 1, 330
3, 862, Pitch_bend_c, 1, 0
3, 878, Pitch_bend_c, 1, 992
3, 882, Pitch_bend_c, 1, 2316
3, 886, Pitch_bend_c, 1, 3971
3, 890, Pitch_bend_c, 1, 5461
3, 894, Pitch_bend_c, 1, 6619
3, 898, Pitch_bend_c, 1, 7364
3, 902, Pitch_bend_c, 1, 7529
3, 914, Pitch_bend_c, 1, 6205
3, 918, Pitch_bend_c, 1, 4716
3, 922, Pitch_bend_c, 1, 2813
3, 926, Pitch_bend_c, 1, 1158
3, 930, Pitch_bend_c, 1, 82
3, 934, Pitch_bend_c, 1, 0
3, 946, Pitch_bend_c, 1, 496
3, 952, Pitch_bend_c, 1, 2068
3, 954, Pitch_bend_c, 1, 3640
3, 960, Pitch_bend_c, 1, 5130
3, 964, Pitch_bend_c, 1, 5957
3, 976, Pitch_bend_c, 1, 5709
3, 980, Pitch_bend_c, 1, 4468
3, 984, Pitch_bend_c, 1, 2730
3, 988, Pitch_bend_c, 1, 910
3, 992, Pitch_bend_c, 1, 0
3, 1012, Pitch_bend_c, 1, 661
3, 1016, Pitch_bend_c, 1, 1985
3, 1020, Pitch_bend_c, 1, 3227
3, 1024, Pitch_bend_c, 1, 4137
3, 1028, Pitch_bend_c, 1, 4385
3, 1036, Pitch_bend_c, 1, 4137
3, 1040, Pitch_bend_c, 1, 2896
3, 1044, Pitch_bend_c, 1, 1075
3, 1048, Pitch_bend_c, 1, 0
3, 1072, Pitch_bend_c, 1, 82
3, 1076, Pitch_bend_c, 1, 1406
3, 1082, Pitch_bend_c, 1, 2399
3, 1086, Pitch_bend_c, 1, 2978
3, 1098, Pitch_bend_c, 1, 2896
3, 1102, Pitch_bend_c, 1, 1654
3, 1106, Pitch_bend_c, 1, 0
3, 1138, Pitch_bend_c, 1, 82
3, 1142, Pitch_bend_c, 1, 1406
3, 1146, Pitch_bend_c, 1, 2151
3, 1162, Pitch_bend_c, 1, 1075
3, 1166, Pitch_bend_c, 1, 0
3, 1190, Pitch_bend_c, 1, 248
3, 1194, Pitch_bend_c, 1, 1654
3, 1198, Pitch_bend_c, 1, 2730
3, 1202, Pitch_bend_c, 1, 3558
3, 1208, Pitch_bend_c, 1, 3971
3, 1220, Pitch_bend_c, 1, 3558
3, 1222, Pitch_bend_c, 1, 2316
3, 1228, Pitch_bend_c, 1, 744
3, 1232, Pitch_bend_c, 1, 0
3, 1260, Pitch_bend_c, 1, 330
3, 1264, Pitch_bend_c, 1, 2151
3, 1268, Pitch_bend_c, 1, 3723
3, 1272, Pitch_bend_c, 1, 4882
3, 1276, Pitch_bend_c, 1, 5709
3, 1280, Pitch_bend_c, 1, 5957
3, 1288, Pitch_bend_c, 1, 5874
3, 1292, Pitch_bend_c, 1, 4468
3, 1296, Pitch_bend_c, 1, 2896
3, 1300, Pitch_bend_c, 1, 1158
3, 1304, Pitch_bend_c, 1, 0
3, 1328, Pitch_bend_c, 1, 330
3, 1332, Pitch_bend_c, 1, 1985
3, 1338, Pitch_bend_c, 1, 3640
3, 1342, Pitch_bend_c, 1, 4716
3, 1344, Pitch_bend_c, 1, 5213
3, 1356, Pitch_bend_c, 1, 4882
3, 1362, Pitch_bend_c, 1, 3475
3, 1366, Pitch_bend_c, 1, 1820
3, 1370, Pitch_bend_c, 1, 413
3, 1374, Pitch_bend_c, 1, 0
3, 1390, Pitch_bend_c, 1, 1323
3, 1394, Pitch_bend_c, 1, 3061
3, 1398, Pitch_bend_c, 1, 4964
3, 1402, Pitch_bend_c, 1, 6371
3, 1406, Pitch_bend_c, 1, 7033
3, 1414, Pitch_bend_c, 1, 6950
3, 1418, Pitch_bend_c, 1, 5543
3, 1422, Pitch_bend_c, 1, 3640
3, 1426, Pitch_bend_c, 1, 1654
3, 1430, Pitch_bend_c, 1, 165
3, 1434, Pitch_bend_c, 1, 0
3, 1450, Pitch_bend_c, 1, 1075
3, 1454, Pitch_bend_c, 1, 2896
3, 1458, Pitch_bend_c, 1, 4716
3, 1464, Pitch_bend_c, 1, 6040
3, 1466, Pitch_bend_c, 1, 6867
3, 1478, Pitch_bend_c, 1, 6619
3, 1484, Pitch_bend_c, 1, 5047
3, 1488, Pitch_bend_c, 1, 2978
3, 1492, Pitch_bend_c, 1, 1075
3, 1496, Pitch_bend_c, 1, 0
3, 1520, Pitch_bend_c, 1, 661
3, 1524, Pitch_bend_c, 1, 2565
3, 1528, Pitch_bend_c, 1, 4302
3, 1532, Pitch_bend_c, 1, 5957
3, 1536, Pitch_bend_c, 1, 7116
3, 1552, Pitch_bend_c, 1, 6040
3, 1556, Pitch_bend_c, 1, 4137
3, 1560, Pitch_bend_c, 1, 2151
3, 1564, Pitch_bend_c, 1, 413
3, 1568, Pitch_bend_c, 1, 0
3, 1584, Pitch_bend_c, 1, 1654
3, 1588, Pitch_bend_c, 1, 3309
3, 1592, Pitch_bend_c, 1, 5047
3, 1598, Pitch_bend_c, 1, 6288
3, 1600, Pitch_bend_c, 1, 6950
3, 1614, Pitch_bend_c, 1, 6454
3, 1618, Pitch_bend_c, 1, 4633
3, 1622, Pitch_bend_c, 1, 2399
3, 1626, Pitch_bend_c, 1, 579
3, 1630, Pitch_bend_c, 1, 0
3, 1646, Pitch_bend_c, 1, 579
3, 1650, Pitch_bend_c, 1, 2234
3, 1654, Pitch_bend_c, 1, 4220
3, 1658, Pitch_bend_c, 1, 5957
3, 1662, Pitch_bend_c, 1, 7033
3, 1666, Pitch_bend_c, 1, 7612
3, 1678, Pitch_bend_c, 1, 6371
3, 1682, Pitch_bend_c, 1, 4468
3, 1686, Pitch_bend_c, 1, 2647
3, 1690, Pitch_bend_c, 1, 744
3, 1694, Pitch_bend_c, 1, 0
3, 1710, Pitch_bend_c, 1, 910
3, 1714, Pitch_bend_c, 1, 2896
3, 1720, Pitch_bend_c, 1, 4882
3, 1722, Pitch_bend_c, 1, 6619
3, 1726, Pitch_bend_c, 1, 8026
3, 1732, Pitch_bend_c, 1, 8192
3, 1744, Note_on_c, 1, 67, 0
3, 1744, Pitch_bend_c, 1, 7943
3, 1748, Pitch_bend_c, 1, 6123
3, 1750, Note_on_c, 1, 76, 0
3, 1752, Note_on_c, 1, 72, 0
3, 1752, Pitch_bend_c, 1, 3640
3, 1756, Pitch_bend_c, 1, 1241
3, 1760, Pitch_bend_c, 1, 0
3, 1784, Pitch_bend_c, 1, 1654
3, 1790, Pitch_bend_c, 1, 3806
3, 1794, Pitch_bend_c, 1, 5792
3, 1798, Pitch_bend_c, 1, 7033
3, 1802, Pitch_bend_c, 1, 7695
3, 1810, Pitch_bend_c, 1, 7612
3, 1814, Pitch_bend_c, 1, 6288
3, 1818, Pitch_bend_c, 1, 4468
3, 1822, Pitch_bend_c, 1, 2647
3, 1826, Pitch_bend_c, 1, 992
3, 1830, Pitch_bend_c, 1, 0
3, 1842, Pitch_bend_c, 1, 82
3, 1846, Pitch_bend_c, 1, 1572
3, 1850, Pitch_bend_c, 1, 3806
3, 1854, Pitch_bend_c, 1, 6040
3, 1858, Pitch_bend_c, 1, 7778
3, 1862, Pitch_bend_c, 1, 8192
3, 1878, Note_on_c, 1, 60, 0
3, 1878, Pitch_bend_c, 1, 6371
3, 1882, Pitch_bend_c, 1, 4302
3, 1886, Pitch_bend_c, 1, 1820
3, 1890, Pitch_bend_c, 1, 0
3, 1918, Pitch_bend_c, 1, 1903
3, 1920, Note_on_c, 1, 69, 85
3, 1920, Note_on_c, 1, 74, 82
3, 1920, Note_on_c, 1, 77, 78
3, 1920, Note_on_c, 1, 62, 59
3, 1922, Pitch_bend_c, 1, 4799
3, 1926, Pitch_bend_c, 1, 6288
3, 1930, Pitch_bend_c, 1, 6867
3, 1938, Pitch_bend_c, 1, 6785
3, 1942, Pitch_bend_c, 1, 4964
3, 1946, Pitch_bend_c, 1, 2730
3, 1950, Pitch_bend_c, 1, 82
3, 1954, Pitch_bend_c, 1, 0
3, 1978, Pitch_bend_c, 1, 1654
3, 1982, Pitch_bend_c, 1, 3806
3, 1986, Pitch_bend_c, 1, 5874
3, 1992, Pitch_bend_c, 1, 7281
3, 1994, Pitch_bend_c, 1, 7778
3, 2006, Pitch_bend_c, 1, 6867
3, 2012, Pitch_bend_c, 1, 5130
3, 2016, Pitch_bend_c, 1, 3144
3, 2020, Pitch_bend_c, 1, 1654
3, 2024, Pitch_bend_c, 1, 910
3, 2036, Pitch_bend_c, 1, 1406
3, 2040, Pitch_bend_c, 1, 2978
3, 2044, Pitch_bend_c, 1, 4799
3, 2048, Pitch_bend_c, 1, 6950
3, 2052, Pitch_bend_c, 1, 8192
3, 2072, Pitch_bend_c, 1, 6867
3, 2076, Pitch_bend_c, 1, 4468
3, 2080, Pitch_bend_c, 1, 2482
3, 2084, Pitch_bend_c, 1, 827
3, 2088, Pitch_bend_c, 1, 82
3, 2096, Pitch_bend_c, 1, 165
3, 2100, Pitch_bend_c, 1, 1489
3, 2104, Pitch_bend_c, 1, 3144
3, 2108, Pitch_bend_c, 1, 5378
3, 2112, Pitch_bend_c, 1, 7364
3, 2116, Pitch_bend_c, 1, 8192
3, 2128, Pitch_bend_c, 1, 7943
3, 2134, Pitch_bend_c, 1, 5957
3, 2138, Pitch_bend_c, 1, 3806
3, 2142, Pitch_bend_c, 1, 2068
3, 2146, Pitch_bend_c, 1, 992
3, 2150, Pitch_bend_c, 1, 661
3, 2158, Pitch_bend_c, 1, 1406
3, 2162, Pitch_bend_c, 1, 3144
3, 2166, Pitch_bend_c, 1, 5130
3, 2170, Pitch_bend_c, 1, 7116
3, 2174, Pitch_bend_c, 1, 8192
3, 2190, Pitch_bend_c, 1, 8109
3, 2194, Pitch_bend_c, 1, 6288
3, 2198, Pitch_bend_c, 1, 4302
3, 2202, Pitch_bend_c, 1, 2565
3, 2206, Pitch_bend_c, 1, 1241
3, 2210, Pitch_bend_c, 1, 827
3, 2218, Pitch_bend_c, 1, 992
3, 2222, Pitch_bend_c, 1, 2565
3, 2226, Pitch_bend_c, 1, 4385
3, 2230, Pitch_bend_c, 1, 6371
3, 2234, Pitch_bend_c, 1, 8026
3, 2238, Pitch_bend_c, 1, 8192
3, 2254, Pitch_bend_c, 1, 7612
3, 2260, Pitch_bend_c, 1, 5543
3, 2262, Pitch_bend_c, 1, 3723
3, 2268, Pitch_bend_c, 1, 2151
3, 2272, Pitch_bend_c, 1, 1241
3, 2284, Pitch_bend_c, 1, 1903
3, 2288, Pitch_bend_c, 1, 3227
3, 2292, Pitch_bend_c, 1, 5130
3, 2296, Pitch_bend_c, 1, 6785
3, 2300, Pitch_bend_c, 1, 7860
3, 2304, Pitch_bend_c, 1, 8192
3, 2316, Pitch_bend_c, 1, 7695
3, 2320, Pitch_bend_c, 1, 5792
3, 2324, Pitch_bend_c, 1, 3971
3, 2328, Pitch_bend_c, 1, 2068
3, 2332, Pitch_bend_c, 1, 661
3, 2336, Pitch_bend_c, 1, 82
3, 2344, Pitch_bend_c, 1, 165
3, 2348, Pitch_bend_c, 1, 1406
3, 2352, Pitch_bend_c, 1, 3227
3, 2356, Pitch_bend_c, 1, 5295
3, 2360, Pitch_bend_c, 1, 6950
3, 2364, Pitch_bend_c, 1, 8109
3, 2368, Pitch_bend_c, 1, 8192
3, 2380, Pitch_bend_c, 1, 6867
3, 2384, Pitch_bend_c, 1, 4964
3, 2388, Pitch_bend_c, 1, 2896
3, 2394, Pitch_bend_c, 1, 1241
3, 2396, Pitch_bend_c, 1, 248
3, 2402, Pitch_bend_c, 1, 82
3, 2410, Pitch_bend_c, 1, 413
3, 2414, Pitch_bend_c, 1, 2068
3, 2418, Pitch_bend_c, 1, 4137
3, 2422, Pitch_bend_c, 1, 6040
3, 2426, Pitch_bend_c, 1, 7778
3, 2430, Pitch_bend_c, 1, 8192
3, 2446, Pitch_bend_c, 1, 7198
3, 2450, Pitch_bend_c, 1, 4964
3, 2454, Pitch_bend_c, 1, 2730
3, 2458, Pitch_bend_c, 1, 1075
3, 2462, Pitch_bend_c, 1, 0
3, 2478, Pitch_bend_c, 1, 910
3, 2482, Pitch_bend_c, 1, 2482
3, 2486, Pitch_bend_c, 1, 4551
3, 2490, Pitch_bend_c, 1, 6371
3, 2494, Pitch_bend_c, 1, 7695
3, 2498, Pitch_bend_c, 1, 8192
3, 2510, Pitch_bend_c, 1, 8109
3, 2514, Pitch_bend_c, 1, 6536
3, 2518, Pitch_bend_c, 1, 4551
3, 2522, Pitch_bend_c, 1, 2316
3, 2528, Pitch_bend_c, 1, 330
3, 2530, Pitch_bend_c, 1, 0
3, 2544, Pitch_bend_c, 1, 82
3, 2548, Pitch_bend_c, 1, 1985
3, 2552, Pitch_bend_c, 1, 4220
3, 2556, Pitch_bend_c, 1, 5874
3, 2560, Pitch_bend_c, 1, 7198
3, 2572, Pitch_bend_c, 1, 7033
3, 2576, Pitch_bend_c, 1, 5461
3, 2580, Pitch_bend_c, 1, 3723
3, 2584, Pitch_bend_c, 1, 1820
3, 2588, Pitch_bend_c, 1, 82
3, 2592, Pitch_bend_c, 1, 0
3, 2608, Pitch_bend_c, 1, 1158
3, 2612, Pitch_bend_c, 1, 2978
3, 2616, Pitch_bend_c, 1, 4468
3, 2620, Pitch_bend_c, 1, 5792
3, 2624, Pitch_bend_c, 1, 6536
3, 2636, Pitch_bend_c, 1, 5792
3, 2640, Pitch_bend_c, 1, 4137
3, 2644, Pitch_bend_c, 1, 2234
3, 2648, Pitch_bend_c, 1, 413
3, 2652, Pitch_bend_c, 1, 0
3, 2670, Pitch_bend_c, 1, 910
3, 2674, Pitch_bend_c, 1, 2978
3, 2678, Pitch_bend_c, 1, 4716
3, 2682, Pitch_bend_c, 1, 6288
3, 2686, Pitch_bend_c, 1, 6950
3, 2698, Pitch_bend_c, 1, 5543
3, 2702, Pitch_bend_c, 1, 3889
3, 2706, Pitch_bend_c, 1, 2068
3, 2710, Pitch_bend_c, 1, 661
3, 2714, Pitch_bend_c, 1, 0
3, 2726, Pitch_bend_c, 1, 330
3, 2730, Pitch_bend_c, 1, 1985
3, 2734, Pitch_bend_c, 1, 3971
3, 2738, Pitch_bend_c, 1, 5626
3, 2742, Pitch_bend_c, 1, 7116
3, 2746, Pitch_bend_c, 1, 7860
3, 2758, Pitch_bend_c, 1, 6950
3, 2762, Pitch_bend_c, 1, 5295
3, 2766, Pitch_bend_c, 1, 3144
3, 2770, Pitch_bend_c, 1, 1158
3, 2774, Pitch_bend_c, 1, 0
3, 2796, Pitch_bend_c, 1, 82
3, 2798, Pitch_bend_c, 1, 1820
3, 2804, Pitch_bend_c, 1, 3806
3, 2808, Pitch_bend_c, 1, 5543
3, 2812, Pitch_bend_c, 1, 6702
3, 2816, Pitch_bend_c, 1, 7447
3, 2828, Pitch_bend_c, 1, 6950
3, 2832, Pitch_bend_c, 1, 5130
3, 2836, Pitch_bend_c, 1, 3309
3, 2840, Pitch_bend_c, 1, 1406
3, 2844, Pitch_bend_c, 1, 0
3, 2864, Pitch_bend_c, 1, 1075
3, 2868, Pitch_bend_c, 1, 3144
3, 2872, Pitch_bend_c, 1, 5130
3, 2876, Pitch_bend_c, 1, 6702
3, 2880, Pitch_bend_c, 1, 7529
3, 2892, Pitch_bend_c, 1, 6205
3, 2896, Pitch_bend_c, 1, 4385
3, 2900, Pitch_bend_c, 1, 2068
3, 2904, Pitch_bend_c, 1, 0
3, 2930, Pitch_bend_c, 1, 413
3, 2932, Pitch_bend_c, 1, 2482
3, 2938, Pitch_bend_c, 1, 4468
3, 2942, Pitch_bend_c, 1, 5874
3, 2946, Pitch_bend_c, 1, 6454
3, 2954, Pitch_bend_c, 1, 6371
3, 2958, Pitch_bend_c, 1, 5047
3, 2962, Pitch_bend_c, 1, 3144
3, 2966, Pitch_bend_c, 1, 1406
3, 2970, Pitch_bend_c, 1, 0
3, 2990, Pitch_bend_c, 1, 744
3, 2994, Pitch_bend_c, 1, 2565
3, 2998, Pitch_bend_c, 1, 4633
3, 3002, Pitch_bend_c, 1, 6288
3, 3006, Pitch_bend_c, 1, 7281
3, 3010, Pitch_bend_c, 1, 7612
3, 3018, Pitch_bend_c, 1, 7281
3, 3022, Pitch_bend_c, 1, 5461
3, 3026, Pitch_bend_c, 1, 3309
3, 3030, Pitch_bend_c, 1, 1323
3, 3034, Pitch_bend_c, 1, 0
3, 3058, Pitch_bend_c, 1, 248
3, 3064, Pitch_bend_c, 1, 2234
3, 3068, Pitch_bend_c, 1, 3806
3, 3070, Pitch_bend_c, 1, 4882
3, 3076, Pitch_bend_c, 1, 5213
3, 3084, Pitch_bend_c, 1, 4633
3, 3088, Pitch_bend_c, 1, 2813
3, 3092, Pitch_bend_c, 1, 1075
3, 3096, Pitch_bend_c, 1, 0
3, 3124, Pitch_bend_c, 1, 82
3, 3128, Pitch_bend_c, 1, 1737
3, 3132, Pitch_bend_c, 1, 3061
3, 3136, Pitch_bend_c, 1, 3640
3, 3148, Pitch_bend_c, 1, 2482
3, 3152, Pitch_bend_c, 1, 1075
3, 3156, Pitch_bend_c, 1, 0
3, 3180, Pitch_bend_c, 1, 496
3, 3184, Pitch_bend_c, 1, 2730
3, 3188, Pitch_bend_c, 1, 4716
3, 3192, Pitch_bend_c, 1, 6619
3, 3198, Pitch_bend_c, 1, 7695
3, 3202, Pitch_bend_c, 1, 7943
3, 3210, Pitch_bend_c, 1, 7198
3, 3214, Pitch_bend_c, 1, 5295
3, 3218, Pitch_bend_c, 1, 2896
3, 3222, Pitch_bend_c, 1, 330
3, 3226, Pitch_bend_c, 1, 0
3, 3250, Pitch_bend_c, 1, 165
3, 3254, Pitch_bend_c, 1, 2399
3, 3258, Pitch_bend_c, 1, 4385
3, 3262, Pitch_bend_c, 1, 5626
3, 3264, Note_on_c, 1, 74, 0
3, 3266, Pitch_bend_c, 1, 5874
3, 3274, Note_on_c, 1, 69, 0
3, 3274, Pitch_bend_c, 1, 4964
3, 3278, Pitch_bend_c, 1, 2896
3, 3284, Pitch_bend_c, 1, 992
3, 3288, Pitch_bend_c, 1, 0
3, 3300, Note_on_c, 1, 77, 0
3, 3308, Pitch_bend_c, 1, 248
3, 3312, Pitch_bend_c, 1, 2316
3, 3316, Pitch_bend_c, 1, 4716
3, 3320, Pitch_bend_c, 1, 6867
3, 3324, Pitch_bend_c, 1, 8109
3, 3328, Pitch_bend_c, 1, 8192
3, 3340, Pitch_bend_c, 1, 7529
3, 3344, Pitch_bend_c, 1, 5378
3, 3348, Pitch_bend_c, 1, 3144
3, 3352, Pitch_bend_c, 1, 827
3, 3356, Pitch_bend_c, 1, 0
3, 3380, Pitch_bend_c, 1, 744
3, 3384, Pitch_bend_c, 1, 2647
3, 3388, Pitch_bend_c, 1, 4468
3, 3392, Pitch_bend_c, 1, 5543
3, 3396, Pitch_bend_c, 1, 5709
3, 3404, Pitch_bend_c, 1, 4716
3, 3408, Pitch_bend_c, 1, 3061
3, 3414, Pitch_bend_c, 1, 1075
3, 3418, Pitch_bend_c, 1, 0
3, 3442, Pitch_bend_c, 1, 827
3, 3446, Note_on_c, 1, 62, 0
3, 3446, Pitch_bend_c, 1, 3227
3, 3450, Pitch_bend_c, 1, 5792
3, 3456, Pitch_bend_c, 1, 7612
3, 3456, Note_on_c, 1, 72, 85
3, 3456, Note_on_c, 1, 76, 70
3, 3456, Note_on_c, 1, 67, 64
3, 3456, Note_on_c, 1, 60, 54
3, 3460, Pitch_bend_c, 1, 8192
3, 3468, Pitch_bend_c, 1, 7116
3, 3474, Pitch_bend_c, 1, 5047
3, 3478, Pitch_bend_c, 1, 2647
3, 3482, Pitch_bend_c, 1, 330
3, 3484, Pitch_bend_c, 1, 0
3, 3506, Pitch_bend_c, 1, 1406
3, 3510, Pitch_bend_c, 1, 3723
3, 3514, Pitch_bend_c, 1, 6040
3, 3518, Pitch_bend_c, 1, 7695
3, 3522, Pitch_bend_c, 1, 8109
3, 3530, Pitch_bend_c, 1, 7529
3, 3534, Pitch_bend_c, 1, 5874
3, 3538, Pitch_bend_c, 1, 3889
3, 3542, Pitch_bend_c, 1, 2151
3, 3546, Pitch_bend_c, 1, 1075
3, 3562, Pitch_bend_c, 1, 2482
3, 3566, Pitch_bend_c, 1, 4468
3, 3570, Pitch_bend_c, 1, 6205
3, 3574, Pitch_bend_c, 1, 7612
3, 3580, Pitch_bend_c, 1, 7943
3, 3586, Pitch_bend_c, 1, 7281
3, 3590, Pitch_bend_c, 1, 5130
3, 3594, Pitch_bend_c, 1, 2896
3, 3598, Pitch_bend_c, 1, 661
3, 3604, Pitch_bend_c, 1, 0
3, 3628, Pitch_bend_c, 1, 1158
3, 3632, Pitch_bend_c, 1, 3061
3, 3636, Pitch_bend_c, 1, 4882
3, 3640, Pitch_bend_c, 1, 5792
3, 3652, Pitch_bend_c, 1, 4716
3, 3656, Pitch_bend_c, 1, 3144
3, 3660, Pitch_bend_c, 1, 1489
3, 3664, Pitch_bend_c, 1, 248
3, 3668, Pitch_bend_c, 1, 0
3, 3680, Pitch_bend_c, 1, 330
3, 3684, Pitch_bend_c, 1, 2068
3, 3688, Pitch_bend_c, 1, 3971
3, 3692, Pitch_bend_c, 1, 5543
3, 3696, Pitch_bend_c, 1, 6785
3, 3700, Pitch_bend_c, 1, 7033
3, 3708, Pitch_bend_c, 1, 6619
3, 3712, Pitch_bend_c, 1, 4716
3, 3716, Pitch_bend_c, 1, 2896
3, 3720, Pitch_bend_c, 1, 1075
3, 3726, Pitch_bend_c, 1, 0
3, 3750, Pitch_bend_c, 1, 1820
3, 3754, Pitch_bend_c, 1, 3558
3, 3758, Pitch_bend_c, 1, 5213
3, 3762, Pitch_bend_c, 1, 6040
3, 3774, Pitch_bend_c, 1, 4964
3, 3778, Pitch_bend_c, 1, 3309
3, 3782, Pitch_bend_c, 1, 1572
3, 3786, Pitch_bend_c, 1, 82
3, 3790, Pitch_bend_c, 1, 0
3, 3806, Pitch_bend_c, 1, 661
3, 3810, Pitch_bend_c, 1, 2647
3, 3814, Pitch_bend_c, 1, 4551
3, 3818, Pitch_bend_c, 1, 6288
3, 3822, Pitch_bend_c, 1, 7447
3, 3826, Pitch_bend_c, 1, 7695
3, 3834, Pitch_bend_c, 1, 7198
3, 3838, Pitch_bend_c, 1, 5626
3, 3842, Pitch_bend_c, 1, 3558
3, 3846, Pitch_bend_c, 1, 1241
3, 3850, Pitch_bend_c, 1, 0
3, 3880, Pitch_bend_c, 1, 661
3, 3884, Pitch_bend_c, 1, 2896
3, 3888, Pitch_bend_c, 1, 4716
3, 3892, Pitch_bend_c, 1, 6040
3, 3896, Pitch_bend_c, 1, 6785
3, 3908, Pitch_bend_c, 1, 5792
3, 3912, Pitch_bend_c, 1, 4220
3, 3916, Pitch_bend_c, 1, 2151
3, 3920, Pitch_bend_c, 1, 330
3, 3924, Pitch_bend_c, 1, 0
3, 3940, Pitch_bend_c, 1, 1572
3, 3944, Pitch_bend_c, 1, 3723
3, 3948, Pitch_bend_c, 1, 5709
3, 3952, Pitch_bend_c, 1, 7529
3, 3956, Pitch_bend_c, 1, 8192
3, 3968, Pitch_bend_c, 1, 7529
3, 3972, Pitch_bend_c, 1, 5626
3, 3976, Pitch_bend_c, 1, 3061
3, 3980, Pitch_bend_c, 1, 744
3, 3984, Pitch_bend_c, 1, 0
3, 4010, Pitch_bend_c, 1, 910
3, 4014, Pitch_bend_c, 1, 3475
3, 4018, Pitch_bend_c, 1, 5792
3, 4022, Pitch_bend_c, 1, 7281
3, 4026, Pitch_bend_c, 1, 7860
3, 4034, Pitch_bend_c, 1, 7529
3, 4038, Pitch_bend_c, 1, 5626
3, 4042, Pitch_bend_c, 1, 3475
3, 4046, Pitch_bend_c, 1, 1654
3, 4050, Pitch_bend_c, 1, 82
3, 4054, Pitch_bend_c, 1, 0
3, 4070, Pitch_bend_c, 1, 1323
3, 4074, Pitch_bend_c, 1, 3475
3, 4078, Pitch_bend_c, 1, 5792
3, 4082, Pitch_bend_c, 1, 7612
3, 4086, Pitch_bend_c, 1, 8192
3, 4102, Pitch_bend_c, 1, 7612
3, 4106, Pitch_bend_c, 1, 5461
3, 4110, Pitch_bend_c, 1, 2896
3, 4116, Pitch_bend_c, 1, 330
3, 4118, Pitch_bend_c, 1, 0
3, 4140, Pitch_bend_c, 1, 82
3, 4144, Pitch_bend_c, 1, 2647
3, 4148, Pitch_bend_c, 1, 5295
3, 4152, Pitch_bend_c, 1, 7364
3, 4156, Pitch_bend_c, 1, 8192
3, 4168, Pitch_bend_c, 1, 7529
3, 4172, Pitch_bend_c, 1, 5543
3, 4176, Pitch_bend_c, 1, 3227
3, 4180, Pitch_bend_c, 1, 1241
3, 4184, Pitch_bend_c, 1, 0
3, 4208, Pitch_bend_c, 1, 1985
3, 4212, Pitch_bend_c, 1, 4302
3, 4216, Pitch_bend_c, 1, 6040
3, 4220, Pitch_bend_c, 1, 7447
3, 4224, Pitch_bend_c, 1, 7860
3, 4236, Pitch_bend_c, 1, 6454
3, 4240, Pitch_bend_c, 1, 4633
3, 4244, Pitch_bend_c, 1, 2399
3, 4250, Pitch_bend_c, 1, 165
3, 4252, Pitch_bend_c, 1, 0
3, 4274, Pitch_bend_c, 1, 1985
3, 4278, Pitch_bend_c, 1, 4220
3, 4282, Pitch_bend_c, 1, 6371
3, 4286, Pitch_bend_c, 1, 7695
3, 4290, Pitch_bend_c, 1, 7860
3, 4298, Pitch_bend_c, 1, 7033
3, 4302, Pitch_bend_c, 1, 5295
3, 4306, Pitch_bend_c, 1, 3309
3, 4310, Pitch_bend_c, 1, 1406
3, 4314, Pitch_bend_c, 1, 0
3, 4334, Pitch_bend_c, 1, 1075
3, 4338, Pitch_bend_c, 1, 2813
3, 4342, Pitch_bend_c, 1, 4633
3, 4346, Pitch_bend_c, 1, 6288
3, 4350, Pitch_bend_c, 1, 7116
3, 4354, Pitch_bend_c, 1, 7364
3, 4362, Pitch_bend_c, 1, 6619
3, 4366, Pitch_bend_c, 1, 4716
3, 4370, Pitch_bend_c, 1, 2565
3, 4374, Pitch_bend_c, 1, 744
3, 4378, Pitch_bend_c, 1, 0
3, 4400, Pitch_bend_c, 1, 248
3, 4404, Pitch_bend_c, 1, 2565
3, 4408, Pitch_bend_c, 1, 5047
3, 4412, Pitch_bend_c, 1, 6867
3, 4416, Pitch_bend_c, 1, 7943
3, 4428, Pitch_bend_c, 1, 6619
3, 4432, Pitch_bend_c, 1, 4385
3, 4436, Pitch_bend_c, 1, 2316
3, 4440, Pitch_bend_c, 1, 330
3, 4444, Pitch_bend_c, 1, 0
3, 4460, Pitch_bend_c, 1, 413
3, 4464, Pitch_bend_c, 1, 2482
3, 4468, Pitch_bend_c, 1, 4716
3, 4472, Pitch_bend_c, 1, 6536
3, 4476, Pitch_bend_c, 1, 7778
3, 4480, Pitch_bend_c, 1, 8109
3, 4488, Pitch_bend_c, 1, 7860
3, 4492, Pitch_bend_c, 1, 6371
3, 4496, Pitch_bend_c, 1, 4716
3, 4500, Pitch_bend_c, 1, 2896
3, 4504, Pitch_bend_c, 1, 1075
3, 4508, Pitch_bend_c, 1, 0
3, 4530, Pitch_bend_c, 1, 661
3, 4534, Pitch_bend_c, 1, 2565
3, 4538, Pitch_bend_c, 1, 4551
3, 4542, Pitch_bend_c, 1, 6040
3, 4546, Pitch_bend_c, 1, 6702
3, 4558, Pitch_bend_c, 1, 5295
3, 4562, Pitch_bend_c, 1, 3309
3, 4566, Pitch_bend_c, 1, 1572
3, 4570, Pitch_bend_c, 1, 165
3, 4574, Pitch_bend_c, 1, 0
3, 4590, Pitch_bend_c, 1, 1489
3, 4594, Pitch_bend_c, 1, 3392
3, 4598, Pitch_bend_c, 1, 5543
3, 4602, Pitch_bend_c, 1, 7033
3, 4606, Pitch_bend_c, 1, 7695
3, 4618, Pitch_bend_c, 1, 6371
3, 4622, Pitch_bend_c, 1, 4385
3, 4628, Pitch_bend_c, 1, 2068
3, 4630, Pitch_bend_c, 1, 165
3, 4634, Pitch_bend_c, 1, 0
3, 4656, Pitch_bend_c, 1, 1406
3, 4660, Pitch_bend_c, 1, 3806
3, 4664, Pitch_bend_c, 1, 5957
3, 4668, Pitch_bend_c, 1, 7364
3, 4672, Pitch_bend_c, 1, 8191
3, 4676, Pitch_bend_c, 1, 8192
3, 4684, Pitch_bend_c, 1, 7860
3, 4688, Pitch_bend_c, 1, 5957
3, 4692, Pitch_bend_c, 1, 3806
3, 4696, Pitch_bend_c, 1, 1489
3, 4700, Pitch_bend_c, 1, 0
3, 4720, Pitch_bend_c, 1, 827
3, 4724, Pitch_bend_c, 1, 3061
3, 4728, Pitch_bend_c, 1, 5047
3, 4732, Pitch_bend_c, 1, 6619
3, 4736, Pitch_bend_c, 1, 7116
3, 4744, Pitch_bend_c, 1, 6702
3, 4748, Pitch_bend_c, 1, 4633
3, 4752, Pitch_bend_c, 1, 2565
3, 4756, Pitch_bend_c, 1, 248
3, 4760, Pitch_bend_c, 1, 0
3, 4786, Pitch_bend_c, 1, 1820
3, 4788, Pitch_bend_c, 1, 4220
3, 4794, Pitch_bend_c, 1, 6619
3, 4798, Pitch_bend_c, 1, 8191
3, 4802, Pitch_bend_c, 1, 8192
3, 4812, Note_on_c, 1, 67, 0
3, 4814, Pitch_bend_c, 1, 6619
3, 4818, Pitch_bend_c, 1, 4054
3, 4822, Pitch_bend_c, 1, 1737
3, 4826, Pitch_bend_c, 1, 0
3, 4830, Note_on_c, 1, 72, 0
3, 4832, Note_on_c, 1, 76, 0
3, 4850, Pitch_bend_c, 1, 1158
3, 4856, Pitch_bend_c, 1, 3392
3, 4858, Pitch_bend_c, 1, 5461
3, 4864, Pitch_bend_c, 1, 6785
3, 4868, Pitch_bend_c, 1, 7447
3, 4872, Note_on_c, 1, 60, 0
3, 4876, Pitch_bend_c, 1, 7281
3, 4880, Pitch_bend_c, 1, 5626
3, 4884, Pitch_bend_c, 1, 3392
3, 4888, Pitch_bend_c, 1, 1323
3, 4892, Pitch_bend_c, 1, 0
3, 4912, Pitch_bend_c, 1, 330
3, 4916, Pitch_bend_c, 1, 2813
3, 4920, Pitch_bend_c, 1, 5130
3, 4924, Pitch_bend_c, 1, 6619
3, 4928, Pitch_bend_c, 1, 7198
3, 4936, Pitch_bend_c, 1, 6785
3, 4940, Pitch_bend_c, 1, 4716
3, 4944, Pitch_bend_c, 1, 2565
3, 4948, Pitch_bend_c, 1, 579
3, 4952, Pitch_bend_c, 1, 0
3, 4972, Pitch_bend_c, 1, 1654
3, 4976, Pitch_bend_c, 1, 4054
3, 4980, Pitch_bend_c, 1, 6040
3, 4984, Pitch_bend_c, 1, 7281
3, 4992, Note_on_c, 1, 74, 82
3, 4992, Note_on_c, 1, 77, 70
3, 4992, Note_on_c, 1, 69, 70
3, 4992, Note_on_c, 1, 62, 57
3, 5000, Pitch_bend_c, 1, 6123
3, 5004, Pitch_bend_c, 1, 4054
3, 5008, Pitch_bend_c, 1, 1820
3, 5012, Pitch_bend_c, 1, 82
3, 5016, Pitch_bend_c, 1, 0
3, 5036, Pitch_bend_c, 1, 1323
3, 5040, Pitch_bend_c, 1, 3640
3, 5044, Pitch_bend_c, 1, 5957
3, 5048, Pitch_bend_c, 1, 7364
3, 5052, Pitch_bend_c, 1, 7943
3, 5060, Pitch_bend_c, 1, 7529
3, 5064, Pitch_bend_c, 1, 5543
3, 5070, Pitch_bend_c, 1, 3309
3, 5074, Pitch_bend_c, 1, 1241
3, 5078, Pitch_bend_c, 1, 0
3, 5098, Pitch_bend_c, 1, 1406
3, 5102, Pitch_bend_c, 1, 3971
3, 5106, Pitch_bend_c, 1, 6040
3, 5110, Pitch_bend_c, 1, 7281
3, 5114, Pitch_bend_c, 1, 7447
3, 5122, Pitch_bend_c, 1, 6040
3, 5126, Pitch_bend_c, 1, 3971
3, 5130, Pitch_bend_c, 1, 1903
3, 5134, Pitch_bend_c, 1, 248
3, 5138, Pitch_bend_c, 1, 0
3, 5154, Pitch_bend_c, 1, 744
3, 5158, Pitch_bend_c, 1, 2647
3, 5162, Pitch_bend_c, 1, 4716
3, 5166, Pitch_bend_c, 1, 6371
3, 5170, Pitch_bend_c, 1, 7364
3, 5182, Pitch_bend_c, 1, 7033
3, 5186, Pitch_bend_c, 1, 5213
3, 5192, Pitch_bend_c, 1, 3061
3, 5194, Pitch_bend_c, 1, 1158
3, 5198, Pitch_bend_c, 1, 0
3, 5220, Pitch_bend_c, 1, 165
3, 5224, Pitch_bend_c, 1, 2565
3, 5228, Pitch_bend_c, 1, 4964
3, 5232, Pitch_bend_c, 1, 6702
3, 5236, Pitch_bend_c, 1, 7612
3, 5248, Pitch_bend_c, 1, 6123
3, 5252, Pitch_bend_c, 1, 4054
3, 5256, Pitch_bend_c, 1, 2234
3, 5260, Pitch_bend_c, 1, 496
3, 5264, Pitch_bend_c, 1, 0
3, 5280, Pitch_bend_c, 1, 1737
3, 5284, Pitch_bend_c, 1, 4054
3, 5288, Pitch_bend_c, 1, 6205
3, 5292, Pitch_bend_c, 1, 7695
3, 5296, Pitch_bend_c, 1, 8192
3, 5304, Pitch_bend_c, 1, 8026
3, 5308, Pitch_bend_c, 1, 6205
3, 5312, Pitch_bend_c, 1, 3971
3, 5316, Pitch_bend_c, 1, 1985
3, 5322, Pitch_bend_c, 1, 165
3, 5326, Pitch_bend_c, 1, 0
3, 5340, Pitch_bend_c, 1, 992
3, 5346, Pitch_bend_c, 1, 3061
3, 5350, Pitch_bend_c, 1, 5130
3, 5354, Pitch_bend_c, 1, 6288
3, 5358, Pitch_bend_c, 1, 6785
3, 5366, Pitch_bend_c, 1, 6288
3, 5370, Pitch_bend_c, 1, 4468
3, 5374, Pitch_bend_c, 1, 2399
3, 5378, Pitch_bend_c, 1, 579
3, 5382, Pitch_bend_c, 1, 0
3, 5406, Pitch_bend_c, 1, 2068
3, 5410, Pitch_bend_c, 1, 4633
3, 5414, Pitch_bend_c, 1, 6785
3, 5418, Pitch_bend_c, 1, 8192
3, 5434, Pitch_bend_c, 1, 6702
3, 5438, Pitch_bend_c, 1, 4799
3, 5442, Pitch_bend_c, 1, 2813
3, 5446, Pitch_bend_c, 1, 1075
3, 5450, Pitch_bend_c, 1, 0
3, 5462, Pitch_bend_c, 1, 82
3, 5466, Pitch_bend_c, 1, 1737
3, 5472, Pitch_bend_c, 1, 3806
3, 5476, Pitch_bend_c, 1, 5792
3, 5480, Pitch_bend_c, 1, 7612
3, 5484, Pitch_bend_c, 1, 8192
3, 5496, Pitch_bend_c, 1, 7943
3, 5500, Pitch_bend_c, 1, 6205
3, 5504, Pitch_bend_c, 1, 3723
3, 5508, Pitch_bend_c, 1, 1406
3, 5512, Pitch_bend_c, 1, 0
3, 5532, Pitch_bend_c, 1, 1572
3, 5536, Pitch_bend_c, 1, 3723
3, 5540, Pitch_bend_c, 1, 5792
3, 5544, Pitch_bend_c, 1, 7198
3, 5556, Pitch_bend_c, 1, 6619
3, 5560, Pitch_bend_c, 1, 4633
3, 5564, Pitch_bend_c, 1, 2316
3, 5568, Pitch_bend_c, 1, 165
3, 5572, Pitch_bend_c, 1, 0
3, 5592, Pitch_bend_c, 1, 1241
3, 5596, Pitch_bend_c, 1, 3309
3, 5602, Pitch_bend_c, 1, 5295
3, 5606, Pitch_bend_c, 1, 6702
3, 5608, Pitch_bend_c, 1, 7116
3, 5618, Pitch_bend_c, 1, 6867
3, 5622, Pitch_bend_c, 1, 5295
3, 5626, Pitch_bend_c, 1, 3227
3, 5630, Pitch_bend_c, 1, 1158
3, 5634, Pitch_bend_c, 1, 0
3, 5658, Pitch_bend_c, 1, 1075
3, 5662, Pitch_bend_c, 1, 3723
3, 5666, Pitch_bend_c, 1, 6288
3, 5670, Pitch_bend_c, 1, 8026
3, 5674, Pitch_bend_c, 1, 8192
3, 5690, Pitch_bend_c, 1, 6785
3, 5694, Pitch_bend_c, 1, 4468
3, 5698, Pitch_bend_c, 1, 2151
3, 5702, Pitch_bend_c, 1, 413
3, 5706, Pitch_bend_c, 1, 0
3, 5718, Pitch_bend_c, 1, 1654
3, 5722, Pitch_bend_c, 1, 3971
3, 5726, Pitch_bend_c, 1, 6288
3, 5732, Pitch_bend_c, 1, 7943
3, 5736, Pitch_bend_c, 1, 8192
3, 5748, Pitch_bend_c, 1, 7116
3, 5752, Pitch_bend_c, 1, 4882
3, 5756, Pitch_bend_c, 1, 2978
3, 5760, Pitch_bend_c, 1, 1323
3, 5764, Pitch_bend_c, 1, 744
3, 5772, Pitch_bend_c, 1, 910
3, 5776, Pitch_bend_c, 1, 2316
3, 5780, Pitch_bend_c, 1, 3806
3, 5784, Pitch_bend_c, 1, 5461
3, 5788, Pitch_bend_c, 1, 6785
3, 5792, Pitch_bend_c, 1, 7364
3, 5804, Pitch_bend_c, 1, 6123
3, 5808, Pitch_bend_c, 1, 4054
3, 5812, Pitch_bend_c, 1, 1737
3, 5816, Pitch_bend_c, 1, 0
3, 5840, Pitch_bend_c, 1, 1820
3, 5844, Pitch_bend_c, 1, 4137
3, 5850, Pitch_bend_c, 1, 6040
3, 5852, Pitch_bend_c, 1, 7033
3, 5864, Pitch_bend_c, 1, 5461
3, 5870, Pitch_bend_c, 1, 3144
3, 5874, Pitch_bend_c, 1, 1075
3, 5878, Pitch_bend_c, 1, 0
3, 5894, Pitch_bend_c, 1, 496
3, 5898, Pitch_bend_c, 1, 2482
3, 5902, Pitch_bend_c, 1, 4551
3, 5906, Pitch_bend_c, 1, 6454
3, 5910, Pitch_bend_c, 1, 7778
3, 5926, Pitch_bend_c, 1, 6288
3, 5930, Pitch_bend_c, 1, 4137
3, 5934, Pitch_bend_c, 1, 1820
3, 5938, Pitch_bend_c, 1, 165
3, 5942, Pitch_bend_c, 1, 0
3, 5958, Pitch_bend_c, 1, 910
3, 5962, Pitch_bend_c, 1, 2978
3, 5966, Pitch_bend_c, 1, 5626
3, 5970, Pitch_bend_c, 1, 7943
3, 5974, Pitch_bend_c, 1, 8192
3, 5996, Pitch_bend_c, 1, 6950
3, 5998, Pitch_bend_c, 1, 4716
3, 6004, Pitch_bend_c, 1, 2730
3, 6008, Pitch_bend_c, 1, 1406
3, 6012, Pitch_bend_c, 1, 1075
3, 6024, Pitch_bend_c, 1, 2399
3, 6028, Pitch_bend_c, 1, 4385
3, 6032, Pitch_bend_c, 1, 6371
3, 6036, Pitch_bend_c, 1, 8026
3, 6040, Pitch_bend_c, 1, 8192
3, 6056, Pitch_bend_c, 1, 7364
3, 6060, Pitch_bend_c, 1, 5047
3, 6064, Pitch_bend_c, 1, 2565
3, 6068, Pitch_bend_c, 1, 413
3, 6072, Pitch_bend_c, 1, 0
3, 6088, Pitch_bend_c, 1, 1737
3, 6092, Pitch_bend_c, 1, 4385
3, 6096, Pitch_bend_c, 1, 6619
3, 6100, Pitch_bend_c, 1, 8192
3, 6112, Pitch_bend_c, 1, 8026
3, 6116, Pitch_bend_c, 1, 5957
3, 6120, Pitch_bend_c, 1, 3723
3, 6124, Pitch_bend_c, 1, 1406
3, 6130, Pitch_bend_c, 1, 0
3, 6150, Pitch_bend_c, 1, 1489
3, 6154, Pitch_bend_c, 1, 3889
3, 6158, Pitch_bend_c, 1, 6040
3, 6162, Pitch_bend_c, 1, 8026
3, 6166, Pitch_bend_c, 1, 8192
3, 6182, Pitch_bend_c, 1, 7695
3, 6186, Pitch_bend_c, 1, 5295
3, 6190, Pitch_bend_c, 1, 2730
3, 6194, Pitch_bend_c, 1, 496
3, 6198, Pitch_bend_c, 1, 0
3, 6222, Pitch_bend_c, 1, 2565
3, 6226, Pitch_bend_c, 1, 5461
3, 6230, Pitch_bend_c, 1, 7778
3, 6234, Pitch_bend_c, 1, 8192
3, 6250, Pitch_bend_c, 1, 6702
3, 6254, Pitch_bend_c, 1, 4220
3, 6258, Pitch_bend_c, 1, 1572
3, 6262, Pitch_bend_c, 1, 0
3, 6284, Pitch_bend_c, 1, 744
3, 6288, Pitch_bend_c, 1, 3227
3, 6292, Pitch_bend_c, 1, 5792
3, 6296, Pitch_bend_c, 1, 8109
3, 6300, Pitch_bend_c, 1, 8192
3, 6304, Note_on_c, 1, 69, 0
3, 6308, Note_on_c, 1, 74, 0
3, 6310, Note_on_c, 1, 77, 0
3, 6316, Pitch_bend_c, 1, 7612
3, 6320, Pitch_bend_c, 1, 4799
3, 6324, Pitch_bend_c, 1, 2068
3, 6328, Pitch_bend_c, 1, 0
3, 6350, Pitch_bend_c, 1, 827
3, 6352, Pitch_bend_c, 1, 3061
3, 6358, Pitch_bend_c, 1, 5626
3, 6362, Pitch_bend_c, 1, 7778
3, 6366, Pitch_bend_c, 1, 8192
3, 6378, Pitch_bend_c, 1, 8109
3, 6382, Pitch_bend_c, 1, 5957
3, 6386, Pitch_bend_c, 1, 3309
3, 6390, Pitch_bend_c, 1, 1075
3, 6394, Pitch_bend_c, 1, 0
3, 6414, Pitch_bend_c, 1, 1820
3, 6418, Pitch_bend_c, 1, 4468
3, 6422, Pitch_bend_c, 1, 6785
3, 6426, Pitch_bend_c, 1, 8191
3, 6430, Pitch_bend_c, 1, 8192
3, 6442, Pitch_bend_c, 1, 6619
3, 6446, Pitch_bend_c, 1, 4302
3, 6450, Pitch_bend_c, 1, 2316
3, 6454, Pitch_bend_c, 1, 661
3, 6458, Pitch_bend_c, 1, 0
3, 6470, Pitch_bend_c, 1, 744
3, 6474, Pitch_bend_c, 1, 2482
3, 6478, Pitch_bend_c, 1, 4799
3, 6484, Pitch_bend_c, 1, 7281
3, 6486, Pitch_bend_c, 1, 8192
3, 6504, Pitch_bend_c, 1, 7778
3, 6508, Pitch_bend_c, 1, 5295
3, 6512, Pitch_bend_c, 1, 2978
3, 6516, Pitch_bend_c, 1, 992
3, 6520, Pitch_bend_c, 1, 0
3, 6536, Pitch_bend_c, 1, 1158
3, 6540, Pitch_bend_c, 1, 3309
3, 6544, Pitch_bend_c, 1, 5709
3, 6548, Pitch_bend_c, 1, 7612
3, 6552, Pitch_bend_c, 1, 8192
3, 6564, Pitch_bend_c, 1, 7778
3, 6568, Pitch_bend_c, 1, 5543
3, 6572, Pitch_bend_c, 1, 3144
3, 6576, Pitch_bend_c, 1, 827
3, 6580, Note_on_c, 1, 62, 0
3, 6580, Pitch_bend_c, 1, 0
3, 6592, Pitch_bend_c, 1, 744
3, 6596, Pitch_bend_c, 1, 2978
3, 6600, Pitch_bend_c, 1, 5957
3, 6604, Pitch_bend_c, 1, 8192
3, 6630, Pitch_bend_c, 1, 6371
3, 6632, Pitch_bend_c, 1, 4633
3, 6638, Pitch_bend_c, 1, 3144
3, 6642, Pitch_bend_c, 1, 2647
3, 6650, Pitch_bend_c, 1, 2730
3, 6654, Pitch_bend_c, 1, 3806
3, 6658, Pitch_bend_c, 1, 5626
3, 6662, Pitch_bend_c, 1, 7860
3, 6666, Pitch_bend_c, 1, 8192
3, 6862, Pitch_bend_c, 1, 5047
3, 6866, Pitch_bend_c, 1, 6867
3, 6870, Pitch_bend_c, 1, 8192
3, 6906, Pitch_bend_c, 1, 7281
3, 6910, Pitch_bend_c, 1, 5792
3, 6914, Pitch_bend_c, 1, 5047
3, 6928, Pitch_bend_c, 1, 5957
3, 6930, Pitch_bend_c, 1, 7695
3, 6934, Pitch_bend_c, 1, 8192
3, 6972, Pitch_bend_c, 1, 6040
3, 6976, Pitch_bend_c, 1, 4220
3, 6980, Pitch_bend_c, 1, 3144
3, 6992, Pitch_bend_c, 1, 4220
3, 6996, Pitch_bend_c, 1, 6288
3, 7000, Pitch_bend_c, 1, 8192
3, 7040, Pitch_bend_c, 1, 6619
3, 7044, Pitch_bend_c, 1, 4633
3, 7048, Pitch_bend_c, 1, 3309
3, 7052, Pitch_bend_c, 1, 2896
3, 7062, Pitch_bend_c, 1, 3309
3, 7066, Pitch_bend_c, 1, 5213
3, 7070, Pitch_bend_c, 1, 8026
3, 7074, Pitch_bend_c, 1, 8192
3, 7110, Pitch_bend_c, 1, 6785
3, 7114, Pitch_bend_c, 1, 5543
3, 7118, Pitch_bend_c, 1, 4964
3, 7130, Pitch_bend_c, 1, 5047
3, 7134, Pitch_bend_c, 1, 6040
3, 7138, Pitch_bend_c, 1, 7695
3, 7142, Pitch_bend_c, 1, 8192
3, 7178, Pitch_bend_c, 1, 6867
3, 7182, Pitch_bend_c, 1, 5626
3, 7186, Pitch_bend_c, 1, 5461
3, 7196, Pitch_bend_c, 1, 6950
3, 7198, Pitch_bend_c, 1, 8192
3, 7244, Pitch_bend_c, 1, 7364
3, 7248, Pitch_bend_c, 1, 6702
3, 7256, Pitch_bend_c, 1, 6536
3, 7264, Pitch_bend_c, 1, 7612
3, 7268, Pitch_bend_c, 1, 8192
3, 7268, End_track
4, 0, Start_track
4, 0, MIDI_port, 0
4, 0, Title_t, "Track-2             "
4, 0, Program_c, 2, 104
4, 0, Control_c, 2, 7, 100
4, 384, Note_on_c, 2, 72, 34
4, 400, Note_on_c, 2, 74, 28
4, 412, Note_on_c, 2, 72, 0
4, 432, Note_on_c, 2, 75, 20
4, 446, Note_on_c, 2, 74, 0
4, 468, Note_on_c, 2, 77, 18
4, 482, Note_on_c, 2, 75, 0
4, 502, Note_on_c, 2, 79, 22
4, 514, Note_on_c, 2, 77, 0
4, 530, Note_on_c, 2, 81, 26
4, 544, Note_on_c, 2, 79, 0
4, 560, Note_on_c, 2, 82, 30
4, 572, Note_on_c, 2, 81, 0
4, 584, Note_on_c, 2, 84, 43
4, 594, Note_on_c, 2, 82, 0
4, 632, Note_on_c, 2, 86, 35
4, 640, Note_on_c, 2, 84, 0
4, 714, Note_on_c, 2, 84, 37
4, 732, Note_on_c, 2, 86, 0
4, 740, Note_on_c, 2, 82, 39
4, 754, Note_on_c, 2, 84, 0
4, 762, Note_on_c, 2, 81, 39
4, 774, Note_on_c, 2, 82, 0
4, 782, Note_on_c, 2, 79, 41
4, 796, Note_on_c, 2, 81, 0
4, 804, Note_on_c, 2, 77, 36
4, 820, Note_on_c, 2, 79, 0
4, 834, Note_on_c, 2, 75, 29
4, 852, Note_on_c, 2, 77, 0
4, 870, Note_on_c, 2, 74, 29
4, 886, Note_on_c, 2, 75, 0
4, 984, Note_on_c, 2, 75, 10
4, 994, Note_on_c, 2, 74, 0
4, 1010, Note_on_c, 2, 77, 25
4, 1028, Note_on_c, 2, 75, 0
4, 1044, Note_on_c, 2, 79, 11
4, 1066, Note_on_c, 2, 77, 0
4, 1086, Note_on_c, 2, 81, 25
4, 1104, Note_on_c, 2, 79, 0
4, 1126, Note_on_c, 2, 82, 20
4, 1140, Note_on_c, 2, 81, 0
4, 1170, Note_on_c, 2, 84, 19
4, 1186, Note_on_c, 2, 82, 0
4, 1200, Note_on_c, 2, 82, 59
4, 1220, Note_on_c, 2, 84, 0
4, 1298, Note_on_c, 2, 81, 10
4, 1308, Note_on_c, 2, 82, 0
4, 1320, Note_on_c, 2, 79, 35
4, 1334, Note_on_c, 2, 81, 0
4, 1348, Note_on_c, 2, 77, 28
4, 1364, Note_on_c, 2, 79, 0
4, 1378, Note_on_c, 2, 75, 27
4, 1394, Note_on_c, 2, 77, 0
4, 1410, Note_on_c, 2, 74, 27
4, 1426, Note_on_c, 2, 75, 0
4, 1446, Note_on_c, 2, 72, 21
4, 1466, Note_on_c, 2, 74, 0
4, 1572, Note_on_c, 2, 74, 26
4, 1618, Note_on_c, 2, 72, 0
4, 1618, Note_on_c, 2, 75, 11
4, 1660, Note_on_c, 2, 74, 0
4, 1668, Note_on_c, 2, 77, 17
4, 1694, Note_on_c, 2, 75, 0
4, 1702, Note_on_c, 2, 79, 20
4, 1728, Note_on_c, 2, 77, 0
4, 1734, Note_on_c, 2, 81, 24
4, 1764, Note_on_c, 2, 79, 0
4, 1774, Note_on_c, 2, 82, 16
4, 1790, Note_on_c, 2, 81, 0
4, 1808, Note_on_c, 2, 84, 28
4, 1818, Note_on_c, 2, 82, 0
4, 1840, Note_on_c, 2, 86, 47
4, 1852, Note_on_c, 2, 84, 0
4, 1912, Note_on_c, 2, 84, 10
4, 1914, Note_on_c, 2, 82, 27
4, 1920, Note_on_c, 2, 86, 0
4, 1930, Note_on_c, 2, 84, 0
4, 1940, Note_on_c, 2, 81, 27
4, 1962, Note_on_c, 2, 82, 0
4, 1972, Note_on_c, 2, 79, 31
4, 1990, Note_on_c, 2, 81, 0
4, 2000, Note_on_c, 2, 77, 26
4, 2020, Note_on_c, 2, 79, 0
4, 2030, Note_on_c, 2, 75, 28
4, 2050, Note_on_c, 2, 77, 0
4, 2062, Note_on_c, 2, 74, 23
4, 2082, Note_on_c, 2, 75, 0
4, 2094, Note_on_c, 2, 72, 28
4, 2114, Note_on_c, 2, 74, 0
4, 2128, Note_on_c, 2, 70, 30
4, 2144, Note_on_c, 2, 72, 0
4, 2180, Note_on_c, 2, 72, 47
4, 2222, Note_on_c, 2, 74, 10
4, 2228, Note_on_c, 2, 70, 0
4, 2256, Note_on_c, 2, 72, 0
4, 2256, Note_on_c, 2, 75, 31
4, 2284, Note_on_c, 2, 74, 0
4, 2286, Note_on_c, 2, 77, 27
4, 2318, Note_on_c, 2, 75, 0
4, 2324, Note_on_c, 2, 79, 23
4, 2344, Note_on_c, 2, 77, 0
4, 2356, Note_on_c, 2, 81, 30
4, 2372, Note_on_c, 2, 79, 0
4, 2388, Note_on_c, 2, 82, 29
4, 2404, Note_on_c, 2, 81, 0
4, 2424, Note_on_c, 2, 84, 25
4, 2438, Note_on_c, 2, 82, 0
4, 2472, Note_on_c, 2, 82, 61
4, 2516, Note_on_c, 2, 84, 0
4, 2540, Note_on_c, 2, 81, 26
4, 2560, Note_on_c, 2, 82, 0
4, 2574, Note_on_c, 2, 79, 27
4, 2594, Note_on_c, 2, 81, 0
4, 2606, Note_on_c, 2, 77, 27
4, 2626, Note_on_c, 2, 79, 0
4, 2642, Note_on_c, 2, 75, 25
4, 2662, Note_on_c, 2, 77, 0
4, 2682, Note_on_c, 2, 74, 26
4, 2702, Note_on_c, 2, 75, 0
4, 2720, Note_on_c, 2, 72, 26
4, 2738, Note_on_c, 2, 74, 0
4, 2764, Note_on_c, 2, 70, 18
4, 2780, Note_on_c, 2, 72, 0
4, 2790, Note_on_c, 2, 72, 57
4, 2840, Note_on_c, 2, 70, 0
4, 2866, Note_on_c, 2, 74, 10
4, 2890, Note_on_c, 2, 72, 0
4, 2894, Note_on_c, 2, 75, 27
4, 2914, Note_on_c, 2, 74, 0
4, 2924, Note_on_c, 2, 77, 28
4, 2942, Note_on_c, 2, 75, 0
4, 2956, Note_on_c, 2, 79, 25
4, 2974, Note_on_c, 2, 77, 0
4, 2990, Note_on_c, 2, 81, 26
4, 3010, Note_on_c, 2, 79, 0
4, 3036, Note_on_c, 2, 82, 16
4, 3050, Note_on_c, 2, 81, 0
4, 3156, Note_on_c, 2, 81, 14
4, 3182, Note_on_c, 2, 82, 0
4, 3202, Note_on_c, 2, 79, 23
4, 3218, Note_on_c, 2, 81, 0
4, 3236, Note_on_c, 2, 77, 30
4, 3252, Note_on_c, 2, 79, 0
4, 3274, Note_on_c, 2, 75, 27
4, 3292, Note_on_c, 2, 77, 0
4, 3314, Note_on_c, 2, 74, 23
4, 3332, Note_on_c, 2, 75, 0
4, 3356, Note_on_c, 2, 72, 22
4, 3368, Note_on_c, 2, 74, 0
4, 3406, Note_on_c, 2, 74, 38
4, 3468, Note_on_c, 2, 72, 0
4, 3474, Note_on_c, 2, 75, 18
4, 3492, Note_on_c, 2, 74, 0
4, 3504, Note_on_c, 2, 77, 31
4, 3514, Note_on_c, 2, 75, 0
4, 3536, Note_on_c, 2, 79, 20
4, 3552, Note_on_c, 2, 77, 0
4, 3576, Note_on_c, 2, 81, 21
4, 3592, Note_on_c, 2, 79, 0
4, 3620, Note_on_c, 2, 82, 26
4, 3636, Note_on_c, 2, 81, 0
4, 3694, Note_on_c, 2, 84, 10
4, 3706, Note_on_c, 2, 82, 0
4, 3742, Note_on_c, 2, 82, 52
4, 3778, Note_on_c, 2, 84, 0
4, 3808, Note_on_c, 2, 81, 17
4, 3832, Note_on_c, 2, 82, 0
4, 3844, Note_on_c, 2, 79, 28
4, 3862, Note_on_c, 2, 81, 0
4, 3878, Note_on_c, 2, 77, 20
4, 3902, Note_on_c, 2, 79, 0
4, 3920, Note_on_c, 2, 75, 23
4, 3938, Note_on_c, 2, 77, 0
4, 3954, Note_on_c, 2, 74, 29
4, 3970, Note_on_c, 2, 75, 0
4, 3988, Note_on_c, 2, 72, 28
4, 4002, Note_on_c, 2, 74, 0
4, 4082, Note_on_c, 2, 72, 0
4, 4082, Note_on_c, 2, 74, 33
4, 4136, Note_on_c, 2, 75, 10
4, 4152, Note_on_c, 2, 74, 0
4, 4164, Note_on_c, 2, 77, 28
4, 4178, Note_on_c, 2, 75, 0
4, 4188, Note_on_c, 2, 79, 32
4, 4200, Note_on_c, 2, 77, 0
4, 4214, Note_on_c, 2, 81, 31
4, 4232, Note_on_c, 2, 79, 0
4, 4256, Note_on_c, 2, 82, 19
4, 4272, Note_on_c, 2, 81, 0
4, 4308, Note_on_c, 2, 84, 30
4, 4316, Note_on_c, 2, 82, 0
4, 4336, Note_on_c, 2, 82, 68
4, 4342, Note_on_c, 2, 84, 0
4, 4380, Note_on_c, 2, 81, 21
4, 4410, Note_on_c, 2, 82, 0
4, 4420, Note_on_c, 2, 79, 24
4, 4440, Note_on_c, 2, 81, 0
4, 4448, Note_on_c, 2, 77, 27
4, 4470, Note_on_c, 2, 79, 0
4, 4482, Note_on_c, 2, 75, 23
4, 4506, Note_on_c, 2, 77, 0
4, 4524, Note_on_c, 2, 74, 18
4, 4544, Note_on_c, 2, 75, 0
4, 4564, Note_on_c, 2, 72, 22
4, 4580, Note_on_c, 2, 74, 0
4, 4606, Note_on_c, 2, 70, 23
4, 4620, Note_on_c, 2, 72, 0
4, 4648, Note_on_c, 2, 72, 27
4, 4684, Note_on_c, 2, 70, 0
4, 4692, Note_on_c, 2, 74, 20
4, 4720, Note_on_c, 2, 72, 0
4, 4720, Note_on_c, 2, 75, 35
4, 4748, Note_on_c, 2, 74, 0
4, 4754, Note_on_c, 2, 77, 29
4, 4776, Note_on_c, 2, 75, 0
4, 4788, Note_on_c, 2, 79, 25
4, 4804, Note_on_c, 2, 77, 0
4, 4818, Note_on_c, 2, 81, 32
4, 4834, Note_on_c, 2, 79, 0
4, 4856, Note_on_c, 2, 82, 26
4, 4866, Note_on_c, 2, 81, 0
4, 4894, Note_on_c, 2, 84, 46
4, 4910, Note_on_c, 2, 84, 0
4, 4944, Note_on_c, 2, 81, 41
4, 4972, Note_on_c, 2, 82, 0
4, 4978, Note_on_c, 2, 79, 27
4, 5002, Note_on_c, 2, 81, 0
4, 5010, Note_on_c, 2, 77, 25
4, 5032, Note_on_c, 2, 79, 0
4, 5040, Note_on_c, 2, 75, 27
4, 5060, Note_on_c, 2, 77, 0
4, 5074, Note_on_c, 2, 74, 25
4, 5092, Note_on_c, 2, 75, 0
4, 5108, Note_on_c, 2, 72, 23
4, 5132, Note_on_c, 2, 74, 0
4, 5148, Note_on_c, 2, 70, 23
4, 5170, Note_on_c, 2, 72, 0
4, 5202, Note_on_c, 2, 72, 60
4, 5214, Note_on_c, 2, 70, 0
4, 5230, Note_on_c, 2, 74, 10
4, 5256, Note_on_c, 2, 72, 0
4, 5262, Note_on_c, 2, 75, 29
4, 5278, Note_on_c, 2, 74, 0
4, 5294, Note_on_c, 2, 77, 26
4, 5308, Note_on_c, 2, 75, 0
4, 5330, Note_on_c, 2, 79, 15
4, 5348, Note_on_c, 2, 77, 0
4, 5370, Note_on_c, 2, 81, 23
4, 5386, Note_on_c, 2, 79, 0
4, 5412, Note_on_c, 2, 82, 28
4, 5426, Note_on_c, 2, 81, 0
4, 5460, Note_on_c, 2, 84, 41
4, 5472, Note_on_c, 2, 82, 0
4, 5484, Note_on_c, 2, 82, 47
4, 5494, Note_on_c, 2, 84, 0
4, 5524, Note_on_c, 2, 81, 22
4, 5544, Note_on_c, 2, 82, 0
4, 5554, Note_on_c, 2, 79, 26
4, 5572, Note_on_c, 2, 81, 0
4, 5582, Note_on_c, 2, 77, 26
4, 5600, Note_on_c, 2, 79, 0
4, 5614, Note_on_c, 2, 75, 23
4, 5636, Note_on_c, 2, 77, 0
4, 5662, Note_on_c, 2, 74, 17
4, 5678, Note_on_c, 2, 75, 0
4, 5790, Note_on_c, 2, 75, 13
4, 5820, Note_on_c, 2, 74, 0
4, 5822, Note_on_c, 2, 77, 27
4, 5842, Note_on_c, 2, 75, 0
4, 5848, Note_on_c, 2, 79, 25
4, 5868, Note_on_c, 2, 77, 0
4, 5880, Note_on_c, 2, 81, 28
4, 5894, Note_on_c, 2, 79, 0
4, 5918, Note_on_c, 2, 82, 22
4, 5936, Note_on_c, 2, 81, 0
4, 6046, Note_on_c, 2, 81, 32
4, 6050, Note_on_c, 2, 79, 49
4, 6052, Note_on_c, 2, 82, 0
4, 6072, Note_on_c, 2, 81, 0
4, 6092, Note_on_c, 2, 77, 10
4, 6124, Note_on_c, 2, 79, 0
4, 6138, Note_on_c, 2, 75, 22
4, 6170, Note_on_c, 2, 77, 0
4, 6202, Note_on_c, 2, 74, 10
4, 6228, Note_on_c, 2, 75, 0
4, 6252, Note_on_c, 2, 72, 10
4, 6276, Note_on_c, 2, 74, 0
4, 6376, Note_on_c, 2, 72, 0
4, 6376, End_track
5, 0, Start_track
5, 0, MIDI_port, 0
5, 0, Title_t, "Track-2           2 "
5, 0, Control_c, 3, 7, 127
5, 864, Note_on_c, 3, 67, 29
5, 864, Note_on_c, 3, 72, 60
5, 888, Note_on_c, 3, 67, 0
5, 912, Note_on_c, 3, 77, 60
5, 922, Note_on_c, 3, 72, 0
5, 1008, Note_on_c, 3, 76, 41
5, 1032, Note_on_c, 3, 77, 0
5, 1104, Note_on_c, 3, 74, 30
5, 1200, Note_on_c, 3, 72, 35
5, 1210, Note_on_c, 3, 76, 0
5, 1294, Note_on_c, 3, 72, 0
5, 1312, Note_on_c, 3, 74, 0
5, 1344, Note_on_c, 3, 79, 59
5, 1674, Note_on_c, 3, 79, 0
5, 2448, Note_on_c, 3, 69, 19
5, 2448, Note_on_c, 3, 74, 58
5, 2496, Note_on_c, 3, 69, 0
5, 2496, Note_on_c, 3, 77, 72
5, 2512, Note_on_c, 3, 74, 0
5, 2554, Note_on_c, 3, 77, 0
5, 2688, Note_on_c, 3, 74, 25
5, 2688, Note_on_c, 3, 77, 49
5, 2718, Note_on_c, 3, 74, 0
5, 2734, Note_on_c, 3, 77, 0
5, 2736, Note_on_c, 3, 81, 57
5, 2852, Note_on_c, 3, 81, 0
5, 3792, Note_on_c, 3, 67, 32
5, 3828, Note_on_c, 3, 67, 0
5, 3840, Note_on_c, 3, 72, 70
5, 3888, Note_on_c, 3, 77, 53
5, 3900, Note_on_c, 3, 72, 0
5, 3936, Note_on_c, 3, 76, 45
5, 4008, Note_on_c, 3, 77, 0
5, 4032, Note_on_c, 3, 74, 51
5, 4094, Note_on_c, 3, 76, 0
5, 4128, Note_on_c, 3, 72, 44
5, 4226, Note_on_c, 3, 72, 0
5, 4230, Note_on_c, 3, 74, 0
5, 4272, Note_on_c, 3, 79, 39
5, 4502, Note_on_c, 3, 79, 0
5, 5376, Note_on_c, 3, 69, 52
5, 5414, Note_on_c, 3, 69, 0
5, 5424, Note_on_c, 3, 74, 57
5, 5424, Note_on_c, 3, 77, 60
5, 5474, Note_on_c, 3, 74, 0
5, 5492, Note_on_c, 3, 77, 0
5, 5568, Note_on_c, 3, 74, 49
5, 5612, Note_on_c, 3, 74, 0
5, 5616, Note_on_c, 3, 77, 49
5, 5664, Note_on_c, 3, 81, 47
5, 5678, Note_on_c, 3, 77, 0
5, 5856, Note_on_c, 3, 86, 52
5, 5876, Note_on_c, 3, 81, 0
5, 6040, Note_on_c, 3, 86, 0
5, 6040, End_track
6, 0, Start_track
6, 0, MIDI_port, 0
6, 0, Title_t, "Track-3             "
6, 0, Program_c, 0, 32
6, 0, Control_c, 0, 7, 127
6, 6912, Note_on_c, 0, 36, 107
6, 6942, Note_on_c, 0, 36, 0
6, 6960, Note_on_c, 0, 36, 89
6, 6988, Note_on_c, 0, 36, 0
6, 7200, Note_on_c, 0, 36, 110
6, 7238, Note_on_c, 0, 36, 0
6, 7248, Note_on_c, 0, 36, 91
6, 7272, Note_on_c, 0, 36, 0
6, 7344, Note_on_c, 0, 36, 107
6, 7380, Note_on_c, 0, 36, 0
6, 7392, Note_on_c, 0, 36, 91
6, 7414, Note_on_c, 0, 36, 0
6, 7488, Note_on_c, 0, 36, 102
6, 7528, Note_on_c, 0, 36, 0
6, 7536, Note_on_c, 0, 34, 74
6, 7578, Note_on_c, 0, 34, 0
6, 7584, Note_on_c, 0, 31, 85
6, 7614, Note_on_c, 0, 31, 0
6, 7680, Note_on_c, 0, 36, 107
6, 7710, Note_on_c, 0, 36, 0
6, 7728, Note_on_c, 0, 36, 89
6, 7756, Note_on_c, 0, 36, 0
6, 7968, Note_on_c, 0, 36, 110
6, 8006, Note_on_c, 0, 36, 0
6, 8016, Note_on_c, 0, 36, 91
6, 8040, Note_on_c, 0, 36, 0
6, 8112, Note_on_c, 0, 36, 107
6, 8148, Note_on_c, 0, 36, 0
6, 8160, Note_on_c, 0, 36, 91
6, 8182, Note_on_c, 0, 36, 0
6, 8256, Note_on_c, 0, 36, 102
6, 8296, Note_on_c, 0, 36, 0
6, 8304, Note_on_c, 0, 34, 74
6, 8346, Note_on_c, 0, 34, 0
6, 8352, Note_on_c, 0, 31, 85
6, 8382, Note_on_c, 0, 31, 0
6, 8448, Note_on_c, 0, 38, 113
6, 8486, Note_on_c, 0, 38, 0
6, 8496, Note_on_c, 0, 38, 100
6, 8520, Note_on_c, 0, 38, 0
6, 8736, Note_on_c, 0, 38, 116
6, 8778, Note_on_c, 0, 38, 0
6, 8784, Note_on_c, 0, 38, 87
6, 8808, Note_on_c, 0, 38, 0
6, 8880, Note_on_c, 0, 38, 110
6, 8914, Note_on_c, 0, 38, 0
6, 8928, Note_on_c, 0, 38, 76
6, 8954, Note_on_c, 0, 38, 0
6, 9024, Note_on_c, 0, 38, 100
6, 9072, Note_on_c, 0, 36, 102
6, 9074, Note_on_c, 0, 38, 0
6, 9116, Note_on_c, 0, 36, 0
6, 9120, Note_on_c, 0, 33, 85
6, 9144, Note_on_c, 0, 33, 0
6, 9216, Note_on_c, 0, 38, 113
6, 9254, Note_on_c, 0, 38, 0
6, 9264, Note_on_c, 0, 38, 100
6, 9288, Note_on_c, 0, 38, 0
6, 9504, Note_on_c, 0, 38, 116
6, 9546, Note_on_c, 0, 38, 0
6, 9552, Note_on_c, 0, 38, 87
6, 9576, Note_on_c, 0, 38, 0
6, 9648, Note_on_c, 0, 38, 110
6, 9682, Note_on_c, 0, 38, 0
6, 9696, Note_on_c, 0, 38, 76
6, 9722, Note_on_c, 0, 38, 0
6, 9792, Note_on_c, 0, 38, 100
6, 9840, Note_on_c, 0, 36, 102
6, 9842, Note_on_c, 0, 38, 0
6, 9884, Note_on_c, 0, 36, 0
6, 9888, Note_on_c, 0, 33, 85
6, 9912, Note_on_c, 0, 33, 0
6, 9984, Note_on_c, 0, 36, 107
6, 10014, Note_on_c, 0, 36, 0
6, 10032, Note_on_c, 0, 36, 89
6, 10060, Note_on_c, 0, 36, 0
6, 10272, Note_on_c, 0, 36, 110
6, 10310, Note_on_c, 0, 36, 0
6, 10320, Note_on_c, 0, 36, 91
6, 10344, Note_on_c, 0, 36, 0
6, 10416, Note_on_c, 0, 36, 107
6, 10452, Note_on_c, 0, 36, 0
6, 10464, Note_on_c, 0, 36, 91
6, 10486, Note_on_c, 0, 36, 0
6, 10560, Note_on_c, 0, 36, 102
6, 10600, Note_on_c, 0, 36, 0
6, 10608, Note_on_c, 0, 34, 74
6, 10650, Note_on_c, 0, 34, 0
6, 10656, Note_on_c, 0, 31, 85
6, 10686, Note_on_c, 0, 31, 0
6, 10752, Note_on_c, 0, 36, 107
6, 10782, Note_on_c, 0, 36, 0
6, 10800, Note_on_c, 0, 36, 89
6, 10828, Note_on_c, 0, 36, 0
6, 11040, Note_on_c, 0, 36, 110
6, 11078, Note_on_c, 0, 36, 0
6, 11088, Note_on_c, 0, 36, 91
6, 11112, Note_on_c, 0, 36, 0
6, 11184, Note_on_c, 0, 36, 107
6, 11220, Note_on_c, 0, 36, 0
6, 11232, Note_on_c, 0, 36, 91
6, 11254, Note_on_c, 0, 36, 0
6, 11328, Note_on_c, 0, 36, 102
6, 11368, Note_on_c, 0, 36, 0
6, 11376, Note_on_c, 0, 34, 74
6, 11418, Note_on_c, 0, 34, 0
6, 11424, Note_on_c, 0, 31, 85
6, 11454, Note_on_c, 0, 31, 0
6, 11520, Note_on_c, 0, 38, 113
6, 11558, Note_on_c, 0, 38, 0
6, 11568, Note_on_c, 0, 38, 100
6, 11592, Note_on_c, 0, 38, 0
6, 11808, Note_on_c, 0, 38, 116
6, 11850, Note_on_c, 0, 38, 0
6, 11856, Note_on_c, 0, 38, 87
6, 11880, Note_on_c, 0, 38, 0
6, 11952, Note_on_c, 0, 38, 110
6, 11986, Note_on_c, 0, 38, 0
6, 12000, Note_on_c, 0, 38, 76
6, 12026, Note_on_c, 0, 38, 0
6, 12096, Note_on_c, 0, 38, 100
6, 12144, Note_on_c, 0, 36, 102
6, 12146, Note_on_c, 0, 38, 0
6, 12188, Note_on_c, 0, 36, 0
6, 12192, Note_on_c, 0, 33, 85
6, 12216, Note_on_c, 0, 33, 0
6, 12288, Note_on_c, 0, 38, 113
6, 12326, Note_on_c, 0, 38, 0
6, 12336, Note_on_c, 0, 38, 100
6, 12360, Note_on_c, 0, 38, 0
6, 12576, Note_on_c, 0, 38, 116
6, 12618, Note_on_c, 0, 38, 0
6, 12624, Note_on_c, 0, 38, 87
6, 12648, Note_on_c, 0, 38, 0
6, 12720, Note_on_c, 0, 38, 110
6, 12754, Note_on_c, 0, 38, 0
6, 12768, Note_on_c, 0, 38, 76
6, 12794, Note_on_c, 0, 38, 0
6, 12864, Note_on_c, 0, 38, 100
6, 12912, Note_on_c, 0, 36, 102
6, 12914, Note_on_c, 0, 38, 0
6, 12956, Note_on_c, 0, 36, 0
6, 12960, Note_on_c, 0, 33, 85
6, 12984, Note_on_c, 0, 33, 0
6, 13056, Note_on_c, 0, 36, 107
6, 13086, Note_on_c, 0, 36, 0
6, 13104, Note_on_c, 0, 36, 89
6, 13132, Note_on_c, 0, 36, 0
6, 13344, Note_on_c, 0, 36, 110
6, 13382, Note_on_c, 0, 36, 0
6, 13392, Note_on_c, 0, 36, 91
6, 13416, Note_on_c, 0, 36, 0
6, 13488, Note_on_c, 0, 36, 107
6, 13524, Note_on_c, 0, 36, 0
6, 13536, Note_on_c, 0, 36, 91
6, 13558, Note_on_c, 0, 36, 0
6, 13632, Note_on_c, 0, 36, 102
6, 13672, Note_on_c, 0, 36, 0
6, 13680, Note_on_c, 0, 34, 74
6, 13722, Note_on_c, 0, 34, 0
6, 13728, Note_on_c, 0, 31, 85
6, 13758, Note_on_c, 0, 31, 0
6, 13824, Note_on_c, 0, 38, 113
6, 13862, Note_on_c, 0, 38, 0
6, 13872, Note_on_c, 0, 38, 100
6, 13896, Note_on_c, 0, 38, 0
6, 14112, Note_on_c, 0, 38, 116
6, 14154, Note_on_c, 0, 38, 0
6, 14160, Note_on_c, 0, 38, 87
6, 14184, Note_on_c, 0, 38, 0
6, 14256, Note_on_c, 0, 38, 110
6, 14290, Note_on_c, 0, 38, 0
6, 14304, Note_on_c, 0, 38, 76
6, 14330, Note_on_c, 0, 38, 0
6, 14400, Note_on_c, 0, 38, 100
6, 14448, Note_on_c, 0, 36, 102
6, 14450, Note_on_c, 0, 38, 0
6, 14492, Note_on_c, 0, 36, 0
6, 14496, Note_on_c, 0, 33, 85
6, 14520, Note_on_c, 0, 33, 0
6, 14592, Note_on_c, 0, 36, 107
6, 14622, Note_on_c, 0, 36, 0
6, 14640, Note_on_c, 0, 36, 89
6, 14668, Note_on_c, 0, 36, 0
6, 14880, Note_on_c, 0, 36, 110
6, 14918, Note_on_c, 0, 36, 0
6, 14928, Note_on_c, 0, 36, 91
6, 14952, Note_on_c, 0, 36, 0
6, 15024, Note_on_c, 0, 36, 107
6, 15060, Note_on_c, 0, 36, 0
6, 15072, Note_on_c, 0, 36, 91
6, 15094, Note_on_c, 0, 36, 0
6, 15168, Note_on_c, 0, 36, 102
6, 15208, Note_on_c, 0, 36, 0
6, 15216, Note_on_c, 0, 34, 74
6, 15258, Note_on_c, 0, 34, 0
6, 15264, Note_on_c, 0, 31, 85
6, 15294, Note_on_c, 0, 31, 0
6, 15360, Note_on_c, 0, 38, 113
6, 15398, Note_on_c, 0, 38, 0
6, 15408, Note_on_c, 0, 38, 100
6, 15432, Note_on_c, 0, 38, 0
6, 15648, Note_on_c, 0, 38, 116
6, 15690, Note_on_c, 0, 38, 0
6, 15696, Note_on_c, 0, 38, 87
6, 15720, Note_on_c, 0, 38, 0
6, 15792, Note_on_c, 0, 38, 110
6, 15826, Note_on_c, 0, 38, 0
6, 15840, Note_on_c, 0, 38, 76
6, 15866, Note_on_c, 0, 38, 0
6, 15936, Note_on_c, 0, 38, 100
6, 15984, Note_on_c, 0, 36, 102
6, 15986, Note_on_c, 0, 38, 0
6, 16028, Note_on_c, 0, 36, 0
6, 16032, Note_on_c, 0, 33, 85
6, 16056, Note_on_c, 0, 33, 0
6, 16128, Note_on_c, 0, 36, 107
6, 16158, Note_on_c, 0, 36, 0
6, 16176, Note_on_c, 0, 36, 89
6, 16204, Note_on_c, 0, 36, 0
6, 16416, Note_on_c, 0, 36, 110
6, 16454, Note_on_c, 0, 36, 0
6, 16464, Note_on_c, 0, 36, 91
6, 16488, Note_on_c, 0, 36, 0
6, 16560, Note_on_c, 0, 36, 107
6, 16596, Note_on_c, 0, 36, 0
6, 16608, Note_on_c, 0, 36, 91
6, 16630, Note_on_c, 0, 36, 0
6, 16704, Note_on_c, 0, 36, 102
6, 16744, Note_on_c, 0, 36, 0
6, 16752, Note_on_c, 0, 34, 74
6, 16794, Note_on_c, 0, 34, 0
6, 16800, Note_on_c, 0, 31, 85
6, 16830, Note_on_c, 0, 31, 0
6, 16896, Note_on_c, 0, 38, 113
6, 16934, Note_on_c, 0, 38, 0
6, 16944, Note_on_c, 0, 38, 100
6, 16968, Note_on_c, 0, 38, 0
6, 17184, Note_on_c, 0, 38, 116
6, 17226, Note_on_c, 0, 38, 0
6, 17232, Note_on_c, 0, 38, 87
6, 17256, Note_on_c, 0, 38, 0
6, 17328, Note_on_c, 0, 38, 110
6, 17362, Note_on_c, 0, 38, 0
6, 17376, Note_on_c, 0, 38, 76
6, 17402, Note_on_c, 0, 38, 0
6, 17472, Note_on_c, 0, 38, 100
6, 17520, Note_on_c, 0, 36, 102
6, 17522, Note_on_c, 0, 38, 0
6, 17564, Note_on_c, 0, 36, 0
6, 17568, Note_on_c, 0, 33, 85
6, 17592, Note_on_c, 0, 33, 0
6, 17664, Note_on_c, 0, 36, 107
6, 17694, Note_on_c, 0, 36, 0
6, 17712, Note_on_c, 0, 36, 89
6, 17740, Note_on_c, 0, 36, 0
6, 17952, Note_on_c, 0, 36, 110
6, 17990, Note_on_c, 0, 36, 0
6, 18000, Note_on_c, 0, 36, 91
6, 18024, Note_on_c, 0, 36, 0
6, 18096, Note_on_c, 0, 36, 107
6, 18132, Note_on_c, 0, 36, 0
6, 18144, Note_on_c, 0, 36, 91
6, 18166, Note_on_c, 0, 36, 0
6, 18240, Note_on_c, 0, 36, 102
6, 18280, Note_on_c, 0, 36, 0
6, 18288, Note_on_c, 0, 34, 74
6, 18330, Note_on_c, 0, 34, 0
6, 18336, Note_on_c, 0, 31, 85
6, 18366, Note_on_c, 0, 31, 0
6, 18432, Note_on_c, 0, 31, 113
6, 18456, Note_on_c, 0, 31, 0
6, 18480, Note_on_c, 0, 31, 95
6, 18510, Note_on_c, 0, 31, 0
6, 18720, Note_on_c, 0, 31, 113
6, 18754, Note_on_c, 0, 31, 0
6, 18768, Note_on_c, 0, 31, 91
6, 18796, Note_on_c, 0, 31, 0
6, 18864, Note_on_c, 0, 31, 105
6, 18894, Note_on_c, 0, 31, 0
6, 18912, Note_on_c, 0, 31, 80
6, 18944, Note_on_c, 0, 31, 0
6, 19008, Note_on_c, 0, 31, 105
6, 19038, Note_on_c, 0, 31, 0
6, 19056, Note_on_c, 0, 31, 68
6, 19090, Note_on_c, 0, 31, 0
6, 19104, Note_on_c, 0, 31, 113
6, 19136, Note_on_c, 0, 31, 0
6, 19200, Note_on_c, 0, 36, 107
6, 19230, Note_on_c, 0, 36, 0
6, 19248, Note_on_c, 0, 36, 89
6, 19276, Note_on_c, 0, 36, 0
6, 19488, Note_on_c, 0, 36, 110
6, 19526, Note_on_c, 0, 36, 0
6, 19536, Note_on_c, 0, 36, 91
6, 19560, Note_on_c, 0, 36, 0
6, 19632, Note_on_c, 0, 36, 107
6, 19668, Note_on_c, 0, 36, 0
6, 19680, Note_on_c, 0, 36, 91
6, 19702, Note_on_c, 0, 36, 0
6, 19776, Note_on_c, 0, 36, 102
6, 19816, Note_on_c, 0, 36, 0
6, 19824, Note_on_c, 0, 34, 74
6, 19866, Note_on_c, 0, 34, 0
6, 19872, Note_on_c, 0, 31, 85
6, 19902, Note_on_c, 0, 31, 0
6, 19968, Note_on_c, 0, 36, 107
6, 19998, Note_on_c, 0, 36, 0
6, 20016, Note_on_c, 0, 36, 89
6, 20044, Note_on_c, 0, 36, 0
6, 20256, Note_on_c, 0, 36, 110
6, 20294, Note_on_c, 0, 36, 0
6, 20304, Note_on_c, 0, 36, 91
6, 20328, Note_on_c, 0, 36, 0
6, 20400, Note_on_c, 0, 36, 107
6, 20436, Note_on_c, 0, 36, 0
6, 20448, Note_on_c, 0, 36, 91
6, 20470, Note_on_c, 0, 36, 0
6, 20544, Note_on_c, 0, 36, 102
6, 20584, Note_on_c, 0, 36, 0
6, 20592, Note_on_c, 0, 34, 74
6, 20634, Note_on_c, 0, 34, 0
6, 20640, Note_on_c, 0, 31, 85
6, 20670, Note_on_c, 0, 31, 0
6, 20736, Note_on_c, 0, 38, 113
6, 20774, Note_on_c, 0, 38, 0
6, 20784, Note_on_c, 0, 38, 100
6, 20808, Note_on_c, 0, 38, 0
6, 21024, Note_on_c, 0, 38, 116
6, 21066, Note_on_c, 0, 38, 0
6, 21072, Note_on_c, 0, 38, 87
6, 21096, Note_on_c, 0, 38, 0
6, 21168, Note_on_c, 0, 38, 110
6, 21202, Note_on_c, 0, 38, 0
6, 21216, Note_on_c, 0, 38, 76
6, 21242, Note_on_c, 0, 38, 0
6, 21312, Note_on_c, 0, 38, 100
6, 21360, Note_on_c, 0, 36, 102
6, 21362, Note_on_c, 0, 38, 0
6, 21404, Note_on_c, 0, 36, 0
6, 21408, Note_on_c, 0, 33, 85
6, 21432, Note_on_c, 0, 33, 0
6, 21504, Note_on_c, 0, 38, 113
6, 21542, Note_on_c, 0, 38, 0
6, 21552, Note_on_c, 0, 38, 100
6, 21576, Note_on_c, 0, 38, 0
6, 21792, Note_on_c, 0, 38, 116
6, 21834, Note_on_c, 0, 38, 0
6, 21840, Note_on_c, 0, 38, 87
6, 21864, Note_on_c, 0, 38, 0
6, 21936, Note_on_c, 0, 38, 110
6, 21970, Note_on_c, 0, 38, 0
6, 21984, Note_on_c, 0, 38, 76
6, 22010, Note_on_c, 0, 38, 0
6, 22080, Note_on_c, 0, 38, 100
6, 22128, Note_on_c, 0, 36, 102
6, 22130, Note_on_c, 0, 38, 0
6, 22172, Note_on_c, 0, 36, 0
6, 22176, Note_on_c, 0, 33, 85
6, 22200, Note_on_c, 0, 33, 0
6, 22272, Note_on_c, 0, 36, 107
6, 22302, Note_on_c, 0, 36, 0
6, 22320, Note_on_c, 0, 36, 89
6, 22348, Note_on_c, 0, 36, 0
6, 22560, Note_on_c, 0, 36, 110
6, 22598, Note_on_c, 0, 36, 0
6, 22608, Note_on_c, 0, 36, 91
6, 22632, Note_on_c, 0, 36, 0
6, 22704, Note_on_c, 0, 36, 107
6, 22740, Note_on_c, 0, 36, 0
6, 22752, Note_on_c, 0, 36, 91
6, 22774, Note_on_c, 0, 36, 0
6, 22848, Note_on_c, 0, 36, 102
6, 22888, Note_on_c, 0, 36, 0
6, 22896, Note_on_c, 0, 34, 74
6, 22938, Note_on_c, 0, 34, 0
6, 22944, Note_on_c, 0, 31, 85
6, 22974, Note_on_c, 0, 31, 0
6, 23040, Note_on_c, 0, 36, 107
6, 23070, Note_on_c, 0, 36, 0
6, 23088, Note_on_c, 0, 36, 89
6, 23116, Note_on_c, 0, 36, 0
6, 23328, Note_on_c, 0, 36, 110
6, 23366, Note_on_c, 0, 36, 0
6, 23376, Note_on_c, 0, 36, 91
6, 23400, Note_on_c, 0, 36, 0
6, 23472, Note_on_c, 0, 36, 107
6, 23508, Note_on_c, 0, 36, 0
6, 23520, Note_on_c, 0, 36, 91
6, 23542, Note_on_c, 0, 36, 0
6, 23616, Note_on_c, 0, 36, 102
6, 23656, Note_on_c, 0, 36, 0
6, 23664, Note_on_c, 0, 34, 74
6, 23706, Note_on_c, 0, 34, 0
6, 23712, Note_on_c, 0, 31, 85
6, 23742, Note_on_c, 0, 31, 0
6, 23808, Note_on_c, 0, 38, 113
6, 23846, Note_on_c, 0, 38, 0
6, 23856, Note_on_c, 0, 38, 100
6, 23880, Note_on_c, 0, 38, 0
6, 24096, Note_on_c, 0, 38, 116
6, 24138, Note_on_c, 0, 38, 0
6, 24144, Note_on_c, 0, 38, 87
6, 24168, Note_on_c, 0, 38, 0
6, 24240, Note_on_c, 0, 38, 110
6, 24274, Note_on_c, 0, 38, 0
6, 24288, Note_on_c, 0, 38, 76
6, 24314, Note_on_c, 0, 38, 0
6, 24384, Note_on_c, 0, 38, 100
6, 24432, Note_on_c, 0, 36, 102
6, 24434, Note_on_c, 0, 38, 0
6, 24476, Note_on_c, 0, 36, 0
6, 24480, Note_on_c, 0, 33, 85
6, 24504, Note_on_c, 0, 33, 0
6, 24576, Note_on_c, 0, 38, 113
6, 24614, Note_on_c, 0, 38, 0
6, 24624, Note_on_c, 0, 38, 100
6, 24648, Note_on_c, 0, 38, 0
6, 24864, Note_on_c, 0, 38, 116
6, 24906, Note_on_c, 0, 38, 0
6, 24912, Note_on_c, 0, 38, 87
6, 24936, Note_on_c, 0, 38, 0
6, 25008, Note_on_c, 0, 38, 110
6, 25042, Note_on_c, 0, 38, 0
6, 25056, Note_on_c, 0, 38, 76
6, 25082, Note_on_c, 0, 38, 0
6, 25152, Note_on_c, 0, 38, 100
6, 25200, Note_on_c, 0, 36, 102
6, 25202, Note_on_c, 0, 38, 0
6, 25244, Note_on_c, 0, 36, 0
6, 25248, Note_on_c, 0, 33, 85
6, 25272, Note_on_c, 0, 33, 0
6, 25344, Note_on_c, 0, 36, 107
6, 25374, Note_on_c, 0, 36, 0
6, 25392, Note_on_c, 0, 36, 89
6, 25420, Note_on_c, 0, 36, 0
6, 25632, Note_on_c, 0, 36, 110
6, 25670, Note_on_c, 0, 36, 0
6, 25680, Note_on_c, 0, 36, 91
6, 25704, Note_on_c, 0, 36, 0
6, 25776, Note_on_c, 0, 36, 107
6, 25812, Note_on_c, 0, 36, 0
6, 25824, Note_on_c, 0, 36, 91
6, 25846, Note_on_c, 0, 36, 0
6, 25920, Note_on_c, 0, 36, 102
6, 25960, Note_on_c, 0, 36, 0
6, 25968, Note_on_c, 0, 34, 74
6, 26010, Note_on_c, 0, 34, 0
6, 26016, Note_on_c, 0, 31, 85
6, 26046, Note_on_c, 0, 31, 0
6, 26112, Note_on_c, 0, 38, 113
6, 26150, Note_on_c, 0, 38, 0
6, 26160, Note_on_c, 0, 38, 100
6, 26184, Note_on_c, 0, 38, 0
6, 26400, Note_on_c, 0, 38, 116
6, 26442, Note_on_c, 0, 38, 0
6, 26448, Note_on_c, 0, 38, 87
6, 26472, Note_on_c, 0, 38, 0
6, 26544, Note_on_c, 0, 38, 110
6, 26578, Note_on_c, 0, 38, 0
6, 26592, Note_on_c, 0, 38, 76
6, 26618, Note_on_c, 0, 38, 0
6, 26688, Note_on_c, 0, 38, 100
6, 26736, Note_on_c, 0, 36, 102
6, 26738, Note_on_c, 0, 38, 0
6, 26780, Note_on_c, 0, 36, 0
6, 26784, Note_on_c, 0, 33, 85
6, 26808, Note_on_c, 0, 33, 0
6, 26880, Note_on_c, 0, 36, 107
6, 26910, Note_on_c, 0, 36, 0
6, 26928, Note_on_c, 0, 36, 89
6, 26956, Note_on_c, 0, 36, 0
6, 27168, Note_on_c, 0, 36, 110
6, 27206, Note_on_c, 0, 36, 0
6, 27216, Note_on_c, 0, 36, 91
6, 27240, Note_on_c, 0, 36, 0
6, 27312, Note_on_c, 0, 36, 107
6, 27348, Note_on_c, 0, 36, 0
6, 27360, Note_on_c, 0, 36, 91
6, 27382, Note_on_c, 0, 36, 0
6, 27456, Note_on_c, 0, 36, 102
6, 27496, Note_on_c, 0, 36, 0
6, 27504, Note_on_c, 0, 34, 74
6, 27546, Note_on_c, 0, 34, 0
6, 27552, Note_on_c, 0, 31, 85
6, 27582, Note_on_c, 0, 31, 0
6, 27648, Note_on_c, 0, 38, 113
6, 27686, Note_on_c, 0, 38, 0
6, 27696, Note_on_c, 0, 38, 100
6, 27720, Note_on_c, 0, 38, 0
6, 27936, Note_on_c, 0, 38, 116
6, 27978, Note_on_c, 0, 38, 0
6, 27984, Note_on_c, 0, 38, 87
6, 28008, Note_on_c, 0, 38, 0
6, 28080, Note_on_c, 0, 38, 110
6, 28114, Note_on_c, 0, 38, 0
6, 28128, Note_on_c, 0, 38, 76
6, 28154, Note_on_c, 0, 38, 0
6, 28224, Note_on_c, 0, 38, 100
6, 28272, Note_on_c, 0, 36, 102
6, 28274, Note_on_c, 0, 38, 0
6, 28316, Note_on_c, 0, 36, 0
6, 28320, Note_on_c, 0, 33, 85
6, 28344, Note_on_c, 0, 33, 0
6, 28416, Note_on_c, 0, 36, 107
6, 28446, Note_on_c, 0, 36, 0
6, 28464, Note_on_c, 0, 36, 89
6, 28492, Note_on_c, 0, 36, 0
6, 28704, Note_on_c, 0, 36, 110
6, 28742, Note_on_c, 0, 36, 0
6, 28752, Note_on_c, 0, 36, 91
6, 28776, Note_on_c, 0, 36, 0
6, 28848, Note_on_c, 0, 36, 107
6, 28884, Note_on_c, 0, 36, 0
6, 28896, Note_on_c, 0, 36, 91
6, 28918, Note_on_c, 0, 36, 0
6, 28992, Note_on_c, 0, 36, 102
6, 29032, Note_on_c, 0, 36, 0
6, 29040, Note_on_c, 0, 34, 74
6, 29082, Note_on_c, 0, 34, 0
6, 29088, Note_on_c, 0, 31, 85
6, 29118, Note_on_c, 0, 31, 0
6, 29184, Note_on_c, 0, 38, 113
6, 29222, Note_on_c, 0, 38, 0
6, 29232, Note_on_c, 0, 38, 100
6, 29256, Note_on_c, 0, 38, 0
6, 29472, Note_on_c, 0, 38, 116
6, 29514, Note_on_c, 0, 38, 0
6, 29520, Note_on_c, 0, 38, 87
6, 29544, Note_on_c, 0, 38, 0
6, 29616, Note_on_c, 0, 38, 110
6, 29650, Note_on_c, 0, 38, 0
6, 29664, Note_on_c, 0, 38, 76
6, 29690, Note_on_c, 0, 38, 0
6, 29760, Note_on_c, 0, 38, 100
6, 29808, Note_on_c, 0, 36, 102
6, 29810, Note_on_c, 0, 38, 0
6, 29852, Note_on_c, 0, 36, 0
6, 29856, Note_on_c, 0, 33, 85
6, 29880, Note_on_c, 0, 33, 0
6, 29952, Note_on_c, 0, 36, 107
6, 29982, Note_on_c, 0, 36, 0
6, 30000, Note_on_c, 0, 36, 89
6, 30028, Note_on_c, 0, 36, 0
6, 30240, Note_on_c, 0, 36, 110
6, 30278, Note_on_c, 0, 36, 0
6, 30288, Note_on_c, 0, 36, 91
6, 30312, Note_on_c, 0, 36, 0
6, 30384, Note_on_c, 0, 36, 107
6, 30420, Note_on_c, 0, 36, 0
6, 30432, Note_on_c, 0, 36, 91
6, 30454, Note_on_c, 0, 36, 0
6, 30528, Note_on_c, 0, 36, 102
6, 30568, Note_on_c, 0, 36, 0
6, 30576, Note_on_c, 0, 34, 74
6, 30618, Note_on_c, 0, 34, 0
6, 30624, Note_on_c, 0, 31, 85
6, 30654, Note_on_c, 0, 31, 0
6, 30720, Note_on_c, 0, 31, 113
6, 30744, Note_on_c, 0, 31, 0
6, 30768, Note_on_c, 0, 31, 95
6, 30798, Note_on_c, 0, 31, 0
6, 31008, Note_on_c, 0, 31, 113
6, 31042, Note_on_c, 0, 31, 0
6, 31056, Note_on_c, 0, 31, 91
6, 31084, Note_on_c, 0, 31, 0
6, 31152, Note_on_c, 0, 31, 105
6, 31182, Note_on_c, 0, 31, 0
6, 31200, Note_on_c, 0, 31, 80
6, 31232, Note_on_c, 0, 31, 0
6, 31296, Note_on_c, 0, 31, 105
6, 31326, Note_on_c, 0, 31, 0
6, 31344, Note_on_c, 0, 31, 68
6, 31378, Note_on_c, 0, 31, 0
6, 31392, Note_on_c, 0, 31, 113
6, 31424, Note_on_c, 0, 31, 0
6, 31488, Note_on_c, 0, 36, 107
6, 31518, Note_on_c, 0, 36, 0
6, 31536, Note_on_c, 0, 36, 89
6, 31564, Note_on_c, 0, 36, 0
6, 31776, Note_on_c, 0, 36, 110
6, 31814, Note_on_c, 0, 36, 0
6, 31824, Note_on_c, 0, 36, 91
6, 31848, Note_on_c, 0, 36, 0
6, 31920, Note_on_c, 0, 36, 107
6, 31956, Note_on_c, 0, 36, 0
6, 31968, Note_on_c, 0, 36, 91
6, 31990, Note_on_c, 0, 36, 0
6, 32064, Note_on_c, 0, 36, 102
6, 32104, Note_on_c, 0, 36, 0
6, 32112, Note_on_c, 0, 34, 74
6, 32154, Note_on_c, 0, 34, 0
6, 32160, Note_on_c, 0, 31, 85
6, 32190, Note_on_c, 0, 31, 0
6, 32256, Note_on_c, 0, 36, 107
6, 32286, Note_on_c, 0, 36, 0
6, 32304, Note_on_c, 0, 36, 89
6, 32332, Note_on_c, 0, 36, 0
6, 32544, Note_on_c, 0, 36, 110
6, 32582, Note_on_c, 0, 36, 0
6, 32592, Note_on_c, 0, 36, 91
6, 32616, Note_on_c, 0, 36, 0
6, 32688, Note_on_c, 0, 36, 107
6, 32724, Note_on_c, 0, 36, 0
6, 32736, Note_on_c, 0, 36, 91
6, 32758, Note_on_c, 0, 36, 0
6, 32832, Note_on_c, 0, 36, 102
6, 32872, Note_on_c, 0, 36, 0
6, 32880, Note_on_c, 0, 34, 74
6, 32922, Note_on_c, 0, 34, 0
6, 32928, Note_on_c, 0, 31, 85
6, 32958, Note_on_c, 0, 31, 0
6, 33024, Note_on_c, 0, 38, 113
6, 33062, Note_on_c, 0, 38, 0
6, 33072, Note_on_c, 0, 38, 100
6, 33096, Note_on_c, 0, 38, 0
6, 33312, Note_on_c, 0, 38, 116
6, 33354, Note_on_c, 0, 38, 0
6, 33360, Note_on_c, 0, 38, 87
6, 33384, Note_on_c, 0, 38, 0
6, 33456, Note_on_c, 0, 38, 110
6, 33490, Note_on_c, 0, 38, 0
6, 33504, Note_on_c, 0, 38, 76
6, 33530, Note_on_c, 0, 38, 0
6, 33600, Note_on_c, 0, 38, 100
6, 33648, Note_on_c, 0, 36, 102
6, 33650, Note_on_c, 0, 38, 0
6, 33692, Note_on_c, 0, 36, 0
6, 33696, Note_on_c, 0, 33, 85
6, 33720, Note_on_c, 0, 33, 0
6, 33792, Note_on_c, 0, 38, 113
6, 33830, Note_on_c, 0, 38, 0
6, 33840, Note_on_c, 0, 38, 100
6, 33864, Note_on_c, 0, 38, 0
6, 34080, Note_on_c, 0, 38, 116
6, 34122, Note_on_c, 0, 38, 0
6, 34128, Note_on_c, 0, 38, 87
6, 34152, Note_on_c, 0, 38, 0
6, 34224, Note_on_c, 0, 38, 110
6, 34258, Note_on_c, 0, 38, 0
6, 34272, Note_on_c, 0, 38, 76
6, 34298, Note_on_c, 0, 38, 0
6, 34368, Note_on_c, 0, 38, 100
6, 34416, Note_on_c, 0, 36, 102
6, 34418, Note_on_c, 0, 38, 0
6, 34460, Note_on_c, 0, 36, 0
6, 34464, Note_on_c, 0, 33, 85
6, 34488, Note_on_c, 0, 33, 0
6, 34560, Note_on_c, 0, 36, 107
6, 34590, Note_on_c, 0, 36, 0
6, 34608, Note_on_c, 0, 36, 89
6, 34636, Note_on_c, 0, 36, 0
6, 34848, Note_on_c, 0, 36, 110
6, 34886, Note_on_c, 0, 36, 0
6, 34896, Note_on_c, 0, 36, 91
6, 34920, Note_on_c, 0, 36, 0
6, 34992, Note_on_c, 0, 36, 107
6, 35028, Note_on_c, 0, 36, 0
6, 35040, Note_on_c, 0, 36, 91
6, 35062, Note_on_c, 0, 36, 0
6, 35136, Note_on_c, 0, 36, 102
6, 35176, Note_on_c, 0, 36, 0
6, 35184, Note_on_c, 0, 34, 74
6, 35226, Note_on_c, 0, 34, 0
6, 35232, Note_on_c, 0, 31, 85
6, 35262, Note_on_c, 0, 31, 0
6, 35328, Note_on_c, 0, 36, 107
6, 35358, Note_on_c, 0, 36, 0
6, 35376, Note_on_c, 0, 36, 89
6, 35404, Note_on_c, 0, 36, 0
6, 35616, Note_on_c, 0, 36, 110
6, 35654, Note_on_c, 0, 36, 0
6, 35664, Note_on_c, 0, 36, 91
6, 35688, Note_on_c, 0, 36, 0
6, 35760, Note_on_c, 0, 36, 107
6, 35796, Note_on_c, 0, 36, 0
6, 35808, Note_on_c, 0, 36, 91
6, 35830, Note_on_c, 0, 36, 0
6, 35904, Note_on_c, 0, 36, 102
6, 35944, Note_on_c, 0, 36, 0
6, 35952, Note_on_c, 0, 34, 74
6, 35994, Note_on_c, 0, 34, 0
6, 36000, Note_on_c, 0, 31, 85
6, 36030, Note_on_c, 0, 31, 0
6, 36096, Note_on_c, 0, 38, 113
6, 36134, Note_on_c, 0, 38, 0
6, 36144, Note_on_c, 0, 38, 100
6, 36168, Note_on_c, 0, 38, 0
6, 36384, Note_on_c, 0, 38, 116
6, 36426, Note_on_c, 0, 38, 0
6, 36432, Note_on_c, 0, 38, 87
6, 36456, Note_on_c, 0, 38, 0
6, 36528, Note_on_c, 0, 38, 110
6, 36562, Note_on_c, 0, 38, 0
6, 36576, Note_on_c, 0, 38, 76
6, 36602, Note_on_c, 0, 38, 0
6, 36672, Note_on_c, 0, 38, 100
6, 36720, Note_on_c, 0, 36, 102
6, 36722, Note_on_c, 0, 38, 0
6, 36764, Note_on_c, 0, 36, 0
6, 36768, Note_on_c, 0, 33, 85
6, 36792, Note_on_c, 0, 33, 0
6, 36864, Note_on_c, 0, 38, 113
6, 36902, Note_on_c, 0, 38, 0
6, 36912, Note_on_c, 0, 38, 100
6, 36936, Note_on_c, 0, 38, 0
6, 37152, Note_on_c, 0, 38, 116
6, 37194, Note_on_c, 0, 38, 0
6, 37200, Note_on_c, 0, 38, 87
6, 37224, Note_on_c, 0, 38, 0
6, 37296, Note_on_c, 0, 38, 110
6, 37330, Note_on_c, 0, 38, 0
6, 37344, Note_on_c, 0, 38, 76
6, 37370, Note_on_c, 0, 38, 0
6, 37440, Note_on_c, 0, 38, 100
6, 37488, Note_on_c, 0, 36, 102
6, 37490, Note_on_c, 0, 38, 0
6, 37532, Note_on_c, 0, 36, 0
6, 37536, Note_on_c, 0, 33, 85
6, 37560, Note_on_c, 0, 33, 0
6, 37632, Note_on_c, 0, 33, 110
6, 37668, Note_on_c, 0, 33, 0
6, 37680, Note_on_c, 0, 33, 87
6, 37704, Note_on_c, 0, 33, 0
6, 37920, Note_on_c, 0, 33, 116
6, 37958, Note_on_c, 0, 33, 0
6, 37968, Note_on_c, 0, 33, 74
6, 37988, Note_on_c, 0, 33, 0
6, 38064, Note_on_c, 0, 33, 110
6, 38102, Note_on_c, 0, 33, 0
6, 38112, Note_on_c, 0, 33, 63
6, 38136, Note_on_c, 0, 33, 0
6, 38208, Note_on_c, 0, 33, 93
6, 38278, Note_on_c, 0, 33, 0
6, 38304, Note_on_c, 0, 28, 110
6, 38326, Note_on_c, 0, 28, 0
6, 38352, Note_on_c, 0, 31, 102
6, 38372, Note_on_c, 0, 31, 0
6, 38400, Note_on_c, 0, 33, 100
6, 38464, Note_on_c, 0, 33, 0
6, 38688, Note_on_c, 0, 33, 110
6, 38720, Note_on_c, 0, 33, 0
6, 38736, Note_on_c, 0, 33, 72
6, 38754, Note_on_c, 0, 33, 0
6, 38832, Note_on_c, 0, 33, 105
6, 38872, Note_on_c, 0, 33, 0
6, 38880, Note_on_c, 0, 33, 76
6, 38898, Note_on_c, 0, 33, 0
6, 38976, Note_on_c, 0, 33, 107
6, 39024, Note_on_c, 0, 33, 0
6, 39072, Note_on_c, 0, 33, 91
6, 39072, Note_on_c, 0, 34, 91
6, 39088, Note_on_c, 0, 34, 0
6, 39094, Note_on_c, 0, 33, 0
6, 39120, Note_on_c, 0, 36, 95
6, 39144, Note_on_c, 0, 36, 0
6, 39168, Note_on_c, 0, 38, 110
6, 39194, Note_on_c, 0, 38, 0
6, 39216, Note_on_c, 0, 38, 102
6, 39240, Note_on_c, 0, 38, 0
6, 39456, Note_on_c, 0, 38, 113
6, 39498, Note_on_c, 0, 38, 0
6, 39504, Note_on_c, 0, 38, 78
6, 39528, Note_on_c, 0, 38, 0
6, 39600, Note_on_c, 0, 38, 105
6, 39634, Note_on_c, 0, 38, 0
6, 39648, Note_on_c, 0, 38, 70
6, 39670, Note_on_c, 0, 38, 0
6, 39744, Note_on_c, 0, 38, 113
6, 39770, Note_on_c, 0, 38, 0
6, 39792, Note_on_c, 0, 38, 63
6, 39816, Note_on_c, 0, 38, 0
6, 39840, Note_on_c, 0, 33, 100
6, 39870, Note_on_c, 0, 33, 0
6, 39888, Note_on_c, 0, 36, 91
6, 39914, Note_on_c, 0, 36, 0
6, 39936, Note_on_c, 0, 38, 113
6, 40002, Note_on_c, 0, 38, 0
6, 40224, Note_on_c, 0, 38, 110
6, 40262, Note_on_c, 0, 38, 0
6, 40272, Note_on_c, 0, 38, 80
6, 40294, Note_on_c, 0, 38, 0
6, 40368, Note_on_c, 0, 38, 102
6, 40402, Note_on_c, 0, 38, 0
6, 40416, Note_on_c, 0, 38, 66
6, 40434, Note_on_c, 0, 38, 0
6, 40512, Note_on_c, 0, 38, 110
6, 40576, Note_on_c, 0, 38, 0
6, 40608, Note_on_c, 0, 28, 110
6, 40628, Note_on_c, 0, 28, 0
6, 40656, Note_on_c, 0, 31, 87
6, 40680, Note_on_c, 0, 31, 0
6, 40704, Note_on_c, 0, 33, 110
6, 40732, Note_on_c, 0, 33, 0
6, 40752, Note_on_c, 0, 33, 61
6, 40752, Note_on_c, 0, 34, 70
6, 40772, Note_on_c, 0, 34, 0
6, 40778, Note_on_c, 0, 33, 0
6, 40992, Note_on_c, 0, 33, 105
6, 41022, Note_on_c, 0, 33, 0
6, 41040, Note_on_c, 0, 33, 72
6, 41060, Note_on_c, 0, 33, 0
6, 41136, Note_on_c, 0, 33, 105
6, 41170, Note_on_c, 0, 33, 0
6, 41184, Note_on_c, 0, 33, 66
6, 41206, Note_on_c, 0, 33, 0
6, 41280, Note_on_c, 0, 33, 110
6, 41324, Note_on_c, 0, 33, 0
6, 41328, Note_on_c, 0, 33, 82
6, 41350, Note_on_c, 0, 33, 0
6, 41376, Note_on_c, 0, 28, 110
6, 41400, Note_on_c, 0, 28, 0
6, 41424, Note_on_c, 0, 31, 85
6, 41456, Note_on_c, 0, 31, 0
6, 41472, Note_on_c, 0, 33, 122
6, 41504, Note_on_c, 0, 33, 0
6, 41520, Note_on_c, 0, 33, 82
6, 41544, Note_on_c, 0, 33, 0
6, 41760, Note_on_c, 0, 33, 107
6, 41798, Note_on_c, 0, 33, 0
6, 41808, Note_on_c, 0, 33, 85
6, 41830, Note_on_c, 0, 33, 0
6, 41904, Note_on_c, 0, 33, 110
6, 41944, Note_on_c, 0, 33, 0
6, 41952, Note_on_c, 0, 33, 82
6, 41976, Note_on_c, 0, 33, 0
6, 42048, Note_on_c, 0, 33, 107
6, 42068, Note_on_c, 0, 33, 0
6, 42096, Note_on_c, 0, 33, 85
6, 42106, Note_on_c, 0, 33, 0
6, 42144, Note_on_c, 0, 33, 98
6, 42170, Note_on_c, 0, 33, 0
6, 42192, Note_on_c, 0, 36, 102
6, 42208, Note_on_c, 0, 36, 0
6, 42240, Note_on_c, 0, 38, 113
6, 42268, Note_on_c, 0, 38, 0
6, 42288, Note_on_c, 0, 36, 57
6, 42288, Note_on_c, 0, 38, 63
6, 42296, Note_on_c, 0, 36, 0
6, 42308, Note_on_c, 0, 38, 0
6, 42528, Note_on_c, 0, 38, 113
6, 42558, Note_on_c, 0, 38, 0
6, 42576, Note_on_c, 0, 38, 57
6, 42596, Note_on_c, 0, 38, 0
6, 42672, Note_on_c, 0, 38, 107
6, 42702, Note_on_c, 0, 38, 0
6, 42720, Note_on_c, 0, 38, 70
6, 42740, Note_on_c, 0, 38, 0
6, 42816, Note_on_c, 0, 38, 105
6, 42848, Note_on_c, 0, 38, 0
6, 42912, Note_on_c, 0, 36, 82
6, 42948, Note_on_c, 0, 36, 0
6, 42960, Note_on_c, 0, 33, 85
6, 42984, Note_on_c, 0, 33, 0
6, 43008, Note_on_c, 0, 38, 110
6, 43070, Note_on_c, 0, 38, 0
6, 43296, Note_on_c, 0, 31, 105
6, 43318, Note_on_c, 0, 31, 0
6, 43344, Note_on_c, 0, 31, 91
6, 43366, Note_on_c, 0, 31, 0
6, 43440, Note_on_c, 0, 31, 82
6, 43460, Note_on_c, 0, 31, 0
6, 43488, Note_on_c, 0, 31, 87
6, 43516, Note_on_c, 0, 31, 0
6, 43584, Note_on_c, 0, 31, 91
6, 43632, Note_on_c, 0, 33, 78
6, 43636, Note_on_c, 0, 31, 0
6, 43660, Note_on_c, 0, 33, 0
6, 43680, Note_on_c, 0, 36, 100
6, 43720, Note_on_c, 0, 36, 0
6, 43728, Note_on_c, 0, 33, 85
6, 43756, Note_on_c, 0, 33, 0
6, 43776, Note_on_c, 0, 36, 107
6, 43806, Note_on_c, 0, 36, 0
6, 43824, Note_on_c, 0, 36, 89
6, 43852, Note_on_c, 0, 36, 0
6, 44064, Note_on_c, 0, 36, 110
6, 44102, Note_on_c, 0, 36, 0
6, 44112, Note_on_c, 0, 36, 91
6, 44136, Note_on_c, 0, 36, 0
6, 44208, Note_on_c, 0, 36, 107
6, 44244, Note_on_c, 0, 36, 0
6, 44256, Note_on_c, 0, 36, 91
6, 44278, Note_on_c, 0, 36, 0
6, 44352, Note_on_c, 0, 36, 102
6, 44392, Note_on_c, 0, 36, 0
6, 44400, Note_on_c, 0, 34, 74
6, 44442, Note_on_c, 0, 34, 0
6, 44448, Note_on_c, 0, 31, 85
6, 44478, Note_on_c, 0, 31, 0
6, 44544, Note_on_c, 0, 36, 107
6, 44574, Note_on_c, 0, 36, 0
6, 44592, Note_on_c, 0, 36, 89
6, 44620, Note_on_c, 0, 36, 0
6, 44832, Note_on_c, 0, 36, 110
6, 44870, Note_on_c, 0, 36, 0
6, 44880, Note_on_c, 0, 36, 91
6, 44904, Note_on_c, 0, 36, 0
6, 44976, Note_on_c, 0, 36, 107
6, 45012, Note_on_c, 0, 36, 0
6, 45024, Note_on_c, 0, 36, 91
6, 45046, Note_on_c, 0, 36, 0
6, 45120, Note_on_c, 0, 36, 102
6, 45160, Note_on_c, 0, 36, 0
6, 45168, Note_on_c, 0, 34, 74
6, 45210, Note_on_c, 0, 34, 0
6, 45216, Note_on_c, 0, 31, 85
6, 45246, Note_on_c, 0, 31, 0
6, 45312, Note_on_c, 0, 38, 113
6, 45350, Note_on_c, 0, 38, 0
6, 45360, Note_on_c, 0, 38, 100
6, 45384, Note_on_c, 0, 38, 0
6, 45600, Note_on_c, 0, 38, 116
6, 45642, Note_on_c, 0, 38, 0
6, 45648, Note_on_c, 0, 38, 87
6, 45672, Note_on_c, 0, 38, 0
6, 45744, Note_on_c, 0, 38, 110
6, 45778, Note_on_c, 0, 38, 0
6, 45792, Note_on_c, 0, 38, 76
6, 45818, Note_on_c, 0, 38, 0
6, 45888, Note_on_c, 0, 38, 100
6, 45936, Note_on_c, 0, 36, 102
6, 45938, Note_on_c, 0, 38, 0
6, 45980, Note_on_c, 0, 36, 0
6, 45984, Note_on_c, 0, 33, 85
6, 46008, Note_on_c, 0, 33, 0
6, 46080, Note_on_c, 0, 38, 113
6, 46118, Note_on_c, 0, 38, 0
6, 46128, Note_on_c, 0, 38, 100
6, 46152, Note_on_c, 0, 38, 0
6, 46368, Note_on_c, 0, 38, 116
6, 46410, Note_on_c, 0, 38, 0
6, 46416, Note_on_c, 0, 38, 87
6, 46440, Note_on_c, 0, 38, 0
6, 46512, Note_on_c, 0, 38, 110
6, 46546, Note_on_c, 0, 38, 0
6, 46560, Note_on_c, 0, 38, 76
6, 46586, Note_on_c, 0, 38, 0
6, 46656, Note_on_c, 0, 38, 100
6, 46704, Note_on_c, 0, 36, 102
6, 46706, Note_on_c, 0, 38, 0
6, 46748, Note_on_c, 0, 36, 0
6, 46752, Note_on_c, 0, 33, 85
6, 46776, Note_on_c, 0, 33, 0
6, 46848, Note_on_c, 0, 36, 107
6, 46878, Note_on_c, 0, 36, 0
6, 46896, Note_on_c, 0, 36, 89
6, 46924, Note_on_c, 0, 36, 0
6, 47136, Note_on_c, 0, 36, 110
6, 47174, Note_on_c, 0, 36, 0
6, 47184, Note_on_c, 0, 36, 91
6, 47208, Note_on_c, 0, 36, 0
6, 47280, Note_on_c, 0, 36, 107
6, 47316, Note_on_c, 0, 36, 0
6, 47328, Note_on_c, 0, 36, 91
6, 47350, Note_on_c, 0, 36, 0
6, 47424, Note_on_c, 0, 36, 102
6, 47464, Note_on_c, 0, 36, 0
6, 47472, Note_on_c, 0, 34, 74
6, 47514, Note_on_c, 0, 34, 0
6, 47520, Note_on_c, 0, 31, 85
6, 47550, Note_on_c, 0, 31, 0
6, 47616, Note_on_c, 0, 36, 107
6, 47646, Note_on_c, 0, 36, 0
6, 47664, Note_on_c, 0, 36, 89
6, 47692, Note_on_c, 0, 36, 0
6, 47904, Note_on_c, 0, 36, 110
6, 47942, Note_on_c, 0, 36, 0
6, 47952, Note_on_c, 0, 36, 91
6, 47976, Note_on_c, 0, 36, 0
6, 48048, Note_on_c, 0, 36, 107
6, 48084, Note_on_c, 0, 36, 0
6, 48096, Note_on_c, 0, 36, 91
6, 48118, Note_on_c, 0, 36, 0
6, 48192, Note_on_c, 0, 36, 102
6, 48232, Note_on_c, 0, 36, 0
6, 48240, Note_on_c, 0, 34, 74
6, 48282, Note_on_c, 0, 34, 0
6, 48288, Note_on_c, 0, 31, 85
6, 48318, Note_on_c, 0, 31, 0
6, 48384, Note_on_c, 0, 38, 113
6, 48422, Note_on_c, 0, 38, 0
6, 48432, Note_on_c, 0, 38, 100
6, 48456, Note_on_c, 0, 38, 0
6, 48672, Note_on_c, 0, 38, 116
6, 48714, Note_on_c, 0, 38, 0
6, 48720, Note_on_c, 0, 38, 87
6, 48744, Note_on_c, 0, 38, 0
6, 48816, Note_on_c, 0, 38, 110
6, 48850, Note_on_c, 0, 38, 0
6, 48864, Note_on_c, 0, 38, 76
6, 48890, Note_on_c, 0, 38, 0
6, 48960, Note_on_c, 0, 38, 100
6, 49008, Note_on_c, 0, 36, 102
6, 49010, Note_on_c, 0, 38, 0
6, 49052, Note_on_c, 0, 36, 0
6, 49056, Note_on_c, 0, 33, 85
6, 49080, Note_on_c, 0, 33, 0
6, 49152, Note_on_c, 0, 38, 113
6, 49190, Note_on_c, 0, 38, 0
6, 49200, Note_on_c, 0, 38, 100
6, 49224, Note_on_c, 0, 38, 0
6, 49440, Note_on_c, 0, 38, 116
6, 49482, Note_on_c, 0, 38, 0
6, 49488, Note_on_c, 0, 38, 87
6, 49512, Note_on_c, 0, 38, 0
6, 49584, Note_on_c, 0, 38, 110
6, 49618, Note_on_c, 0, 38, 0
6, 49632, Note_on_c, 0, 38, 76
6, 49658, Note_on_c, 0, 38, 0
6, 49728, Note_on_c, 0, 38, 100
6, 49776, Note_on_c, 0, 36, 102
6, 49778, Note_on_c, 0, 38, 0
6, 49820, Note_on_c, 0, 36, 0
6, 49824, Note_on_c, 0, 33, 85
6, 49848, Note_on_c, 0, 33, 0
6, 49920, Note_on_c, 0, 36, 107
6, 49950, Note_on_c, 0, 36, 0
6, 49968, Note_on_c, 0, 36, 89
6, 49996, Note_on_c, 0, 36, 0
6, 50208, Note_on_c, 0, 36, 110
6, 50246, Note_on_c, 0, 36, 0
6, 50256, Note_on_c, 0, 36, 91
6, 50280, Note_on_c, 0, 36, 0
6, 50352, Note_on_c, 0, 36, 107
6, 50388, Note_on_c, 0, 36, 0
6, 50400, Note_on_c, 0, 36, 91
6, 50422, Note_on_c, 0, 36, 0
6, 50496, Note_on_c, 0, 36, 102
6, 50536, Note_on_c, 0, 36, 0
6, 50544, Note_on_c, 0, 34, 74
6, 50586, Note_on_c, 0, 34, 0
6, 50592, Note_on_c, 0, 31, 85
6, 50622, Note_on_c, 0, 31, 0
6, 50688, Note_on_c, 0, 36, 107
6, 50718, Note_on_c, 0, 36, 0
6, 50736, Note_on_c, 0, 36, 89
6, 50764, Note_on_c, 0, 36, 0
6, 50976, Note_on_c, 0, 36, 110
6, 51014, Note_on_c, 0, 36, 0
6, 51024, Note_on_c, 0, 36, 91
6, 51048, Note_on_c, 0, 36, 0
6, 51120, Note_on_c, 0, 36, 107
6, 51156, Note_on_c, 0, 36, 0
6, 51168, Note_on_c, 0, 36, 91
6, 51190, Note_on_c, 0, 36, 0
6, 51264, Note_on_c, 0, 36, 102
6, 51304, Note_on_c, 0, 36, 0
6, 51312, Note_on_c, 0, 34, 74
6, 51354, Note_on_c, 0, 34, 0
6, 51360, Note_on_c, 0, 31, 85
6, 51390, Note_on_c, 0, 31, 0
6, 51456, Note_on_c, 0, 38, 113
6, 51494, Note_on_c, 0, 38, 0
6, 51504, Note_on_c, 0, 38, 100
6, 51528, Note_on_c, 0, 38, 0
6, 51744, Note_on_c, 0, 38, 116
6, 51786, Note_on_c, 0, 38, 0
6, 51792, Note_on_c, 0, 38, 87
6, 51816, Note_on_c, 0, 38, 0
6, 51888, Note_on_c, 0, 38, 110
6, 51922, Note_on_c, 0, 38, 0
6, 51936, Note_on_c, 0, 38, 76
6, 51962, Note_on_c, 0, 38, 0
6, 52032, Note_on_c, 0, 38, 100
6, 52080, Note_on_c, 0, 36, 102
6, 52082, Note_on_c, 0, 38, 0
6, 52124, Note_on_c, 0, 36, 0
6, 52128, Note_on_c, 0, 33, 85
6, 52152, Note_on_c, 0, 33, 0
6, 52224, Note_on_c, 0, 38, 113
6, 52262, Note_on_c, 0, 38, 0
6, 52272, Note_on_c, 0, 38, 100
6, 52296, Note_on_c, 0, 38, 0
6, 52512, Note_on_c, 0, 38, 116
6, 52554, Note_on_c, 0, 38, 0
6, 52560, Note_on_c, 0, 38, 87
6, 52584, Note_on_c, 0, 38, 0
6, 52656, Note_on_c, 0, 38, 110
6, 52690, Note_on_c, 0, 38, 0
6, 52704, Note_on_c, 0, 38, 76
6, 52730, Note_on_c, 0, 38, 0
6, 52800, Note_on_c, 0, 38, 100
6, 52848, Note_on_c, 0, 36, 102
6, 52850, Note_on_c, 0, 38, 0
6, 52892, Note_on_c, 0, 36, 0
6, 52896, Note_on_c, 0, 33, 85
6, 52920, Note_on_c, 0, 33, 0
6, 52992, Note_on_c, 0, 36, 107
6, 53022, Note_on_c, 0, 36, 0
6, 53040, Note_on_c, 0, 36, 89
6, 53068, Note_on_c, 0, 36, 0
6, 53280, Note_on_c, 0, 36, 110
6, 53318, Note_on_c, 0, 36, 0
6, 53328, Note_on_c, 0, 36, 91
6, 53352, Note_on_c, 0, 36, 0
6, 53424, Note_on_c, 0, 36, 107
6, 53460, Note_on_c, 0, 36, 0
6, 53472, Note_on_c, 0, 36, 91
6, 53494, Note_on_c, 0, 36, 0
6, 53568, Note_on_c, 0, 36, 102
6, 53608, Note_on_c, 0, 36, 0
6, 53616, Note_on_c, 0, 34, 74
6, 53658, Note_on_c, 0, 34, 0
6, 53664, Note_on_c, 0, 31, 85
6, 53694, Note_on_c, 0, 31, 0
6, 53760, Note_on_c, 0, 36, 107
6, 53790, Note_on_c, 0, 36, 0
6, 53808, Note_on_c, 0, 36, 89
6, 53836, Note_on_c, 0, 36, 0
6, 54048, Note_on_c, 0, 36, 110
6, 54086, Note_on_c, 0, 36, 0
6, 54096, Note_on_c, 0, 36, 91
6, 54120, Note_on_c, 0, 36, 0
6, 54192, Note_on_c, 0, 36, 107
6, 54228, Note_on_c, 0, 36, 0
6, 54240, Note_on_c, 0, 36, 91
6, 54262, Note_on_c, 0, 36, 0
6, 54336, Note_on_c, 0, 36, 102
6, 54376, Note_on_c, 0, 36, 0
6, 54384, Note_on_c, 0, 34, 74
6, 54426, Note_on_c, 0, 34, 0
6, 54432, Note_on_c, 0, 31, 85
6, 54462, Note_on_c, 0, 31, 0
6, 54528, Note_on_c, 0, 38, 113
6, 54566, Note_on_c, 0, 38, 0
6, 54576, Note_on_c, 0, 38, 100
6, 54600, Note_on_c, 0, 38, 0
6, 54816, Note_on_c, 0, 38, 116
6, 54858, Note_on_c, 0, 38, 0
6, 54864, Note_on_c, 0, 38, 87
6, 54888, Note_on_c, 0, 38, 0
6, 54960, Note_on_c, 0, 38, 110
6, 54994, Note_on_c, 0, 38, 0
6, 55008, Note_on_c, 0, 38, 76
6, 55034, Note_on_c, 0, 38, 0
6, 55104, Note_on_c, 0, 38, 100
6, 55152, Note_on_c, 0, 36, 102
6, 55154, Note_on_c, 0, 38, 0
6, 55196, Note_on_c, 0, 36, 0
6, 55200, Note_on_c, 0, 33, 85
6, 55224, Note_on_c, 0, 33, 0
6, 55296, Note_on_c, 0, 38, 113
6, 55334, Note_on_c, 0, 38, 0
6, 55344, Note_on_c, 0, 38, 100
6, 55368, Note_on_c, 0, 38, 0
6, 55584, Note_on_c, 0, 38, 116
6, 55626, Note_on_c, 0, 38, 0
6, 55632, Note_on_c, 0, 38, 87
6, 55656, Note_on_c, 0, 38, 0
6, 55728, Note_on_c, 0, 38, 110
6, 55762, Note_on_c, 0, 38, 0
6, 55776, Note_on_c, 0, 38, 76
6, 55802, Note_on_c, 0, 38, 0
6, 55872, Note_on_c, 0, 38, 100
6, 55920, Note_on_c, 0, 36, 102
6, 55922, Note_on_c, 0, 38, 0
6, 55964, Note_on_c, 0, 36, 0
6, 55968, Note_on_c, 0, 33, 85
6, 55992, Note_on_c, 0, 33, 0
6, 56064, Note_on_c, 0, 36, 107
6, 56094, Note_on_c, 0, 36, 0
6, 56112, Note_on_c, 0, 36, 89
6, 56140, Note_on_c, 0, 36, 0
6, 56352, Note_on_c, 0, 36, 110
6, 56390, Note_on_c, 0, 36, 0
6, 56400, Note_on_c, 0, 36, 91
6, 56424, Note_on_c, 0, 36, 0
6, 56496, Note_on_c, 0, 36, 107
6, 56532, Note_on_c, 0, 36, 0
6, 56544, Note_on_c, 0, 36, 91
6, 56566, Note_on_c, 0, 36, 0
6, 56640, Note_on_c, 0, 36, 102
6, 56680, Note_on_c, 0, 36, 0
6, 56688, Note_on_c, 0, 34, 74
6, 56730, Note_on_c, 0, 34, 0
6, 56736, Note_on_c, 0, 31, 85
6, 56766, Note_on_c, 0, 31, 0
6, 56832, Note_on_c, 0, 36, 107
6, 56862, Note_on_c, 0, 36, 0
6, 56880, Note_on_c, 0, 36, 89
6, 56908, Note_on_c, 0, 36, 0
6, 57120, Note_on_c, 0, 36, 110
6, 57158, Note_on_c, 0, 36, 0
6, 57168, Note_on_c, 0, 36, 91
6, 57192, Note_on_c, 0, 36, 0
6, 57264, Note_on_c, 0, 36, 107
6, 57300, Note_on_c, 0, 36, 0
6, 57312, Note_on_c, 0, 36, 91
6, 57334, Note_on_c, 0, 36, 0
6, 57408, Note_on_c, 0, 36, 102
6, 57448, Note_on_c, 0, 36, 0
6, 57456, Note_on_c, 0, 34, 74
6, 57498, Note_on_c, 0, 34, 0
6, 57504, Note_on_c, 0, 31, 85
6, 57534, Note_on_c, 0, 31, 0
6, 57600, Note_on_c, 0, 38, 113
6, 57638, Note_on_c, 0, 38, 0
6, 57648, Note_on_c, 0, 38, 100
6, 57672, Note_on_c, 0, 38, 0
6, 57888, Note_on_c, 0, 38, 116
6, 57930, Note_on_c, 0, 38, 0
6, 57936, Note_on_c, 0, 38, 87
6, 57960, Note_on_c, 0, 38, 0
6, 58032, Note_on_c, 0, 38, 110
6, 58066, Note_on_c, 0, 38, 0
6, 58080, Note_on_c, 0, 38, 76
6, 58106, Note_on_c, 0, 38, 0
6, 58176, Note_on_c, 0, 38, 100
6, 58224, Note_on_c, 0, 36, 102
6, 58226, Note_on_c, 0, 38, 0
6, 58268, Note_on_c, 0, 36, 0
6, 58272, Note_on_c, 0, 33, 85
6, 58296, Note_on_c, 0, 33, 0
6, 58368, Note_on_c, 0, 38, 113
6, 58406, Note_on_c, 0, 38, 0
6, 58416, Note_on_c, 0, 38, 100
6, 58440, Note_on_c, 0, 38, 0
6, 58656, Note_on_c, 0, 38, 116
6, 58698, Note_on_c, 0, 38, 0
6, 58704, Note_on_c, 0, 38, 87
6, 58728, Note_on_c, 0, 38, 0
6, 58800, Note_on_c, 0, 38, 110
6, 58834, Note_on_c, 0, 38, 0
6, 58848, Note_on_c, 0, 38, 76
6, 58874, Note_on_c, 0, 38, 0
6, 58944, Note_on_c, 0, 38, 100
6, 58992, Note_on_c, 0, 36, 102
6, 58994, Note_on_c, 0, 38, 0
6, 59036, Note_on_c, 0, 36, 0
6, 59040, Note_on_c, 0, 33, 85
6, 59064, Note_on_c, 0, 33, 0
6, 59136, Note_on_c, 0, 36, 107
6, 59166, Note_on_c, 0, 36, 0
6, 59184, Note_on_c, 0, 36, 89
6, 59212, Note_on_c, 0, 36, 0
6, 59424, Note_on_c, 0, 36, 110
6, 59462, Note_on_c, 0, 36, 0
6, 59472, Note_on_c, 0, 36, 91
6, 59496, Note_on_c, 0, 36, 0
6, 59568, Note_on_c, 0, 36, 107
6, 59604, Note_on_c, 0, 36, 0
6, 59616, Note_on_c, 0, 36, 91
6, 59638, Note_on_c, 0, 36, 0
6, 59712, Note_on_c, 0, 36, 102
6, 59752, Note_on_c, 0, 36, 0
6, 59760, Note_on_c, 0, 34, 74
6, 59802, Note_on_c, 0, 34, 0
6, 59808, Note_on_c, 0, 31, 85
6, 59838, Note_on_c, 0, 31, 0
6, 59904, Note_on_c, 0, 36, 107
6, 59934, Note_on_c, 0, 36, 0
6, 59952, Note_on_c, 0, 36, 89
6, 59980, Note_on_c, 0, 36, 0
6, 60192, Note_on_c, 0, 36, 110
6, 60230, Note_on_c, 0, 36, 0
6, 60240, Note_on_c, 0, 36, 91
6, 60264, Note_on_c, 0, 36, 0
6, 60336, Note_on_c, 0, 36, 107
6, 60372, Note_on_c, 0, 36, 0
6, 60384, Note_on_c, 0, 36, 91
6, 60406, Note_on_c, 0, 36, 0
6, 60480, Note_on_c, 0, 36, 102
6, 60520, Note_on_c, 0, 36, 0
6, 60528, Note_on_c, 0, 34, 74
6, 60570, Note_on_c, 0, 34, 0
6, 60576, Note_on_c, 0, 31, 85
6, 60606, Note_on_c, 0, 31, 0
6, 60672, Note_on_c, 0, 38, 113
6, 60710, Note_on_c, 0, 38, 0
6, 60720, Note_on_c, 0, 38, 100
6, 60744, Note_on_c, 0, 38, 0
6, 60960, Note_on_c, 0, 38, 116
6, 61002, Note_on_c, 0, 38, 0
6, 61008, Note_on_c, 0, 38, 87
6, 61032, Note_on_c, 0, 38, 0
6, 61104, Note_on_c, 0, 38, 110
6, 61138, Note_on_c, 0, 38, 0
6, 61152, Note_on_c, 0, 38, 76
6, 61178, Note_on_c, 0, 38, 0
6, 61248, Note_on_c, 0, 38, 100
6, 61296, Note_on_c, 0, 36, 102
6, 61298, Note_on_c, 0, 38, 0
6, 61340, Note_on_c, 0, 36, 0
6, 61344, Note_on_c, 0, 33, 85
6, 61368, Note_on_c, 0, 33, 0
6, 61440, Note_on_c, 0, 38, 113
6, 61478, Note_on_c, 0, 38, 0
6, 61488, Note_on_c, 0, 38, 100
6, 61512, Note_on_c, 0, 38, 0
6, 61728, Note_on_c, 0, 38, 116
6, 61770, Note_on_c, 0, 38, 0
6, 61776, Note_on_c, 0, 38, 87
6, 61800, Note_on_c, 0, 38, 0
6, 61872, Note_on_c, 0, 38, 110
6, 61906, Note_on_c, 0, 38, 0
6, 61920, Note_on_c, 0, 38, 76
6, 61946, Note_on_c, 0, 38, 0
6, 62016, Note_on_c, 0, 38, 100
6, 62064, Note_on_c, 0, 36, 102
6, 62066, Note_on_c, 0, 38, 0
6, 62108, Note_on_c, 0, 36, 0
6, 62112, Note_on_c, 0, 33, 85
6, 62136, Note_on_c, 0, 33, 0
6, 62592, Note_on_c, 0, 36, 105
6, 62670, Note_on_c, 0, 36, 0
6, 62670, End_track
7, 0, Start_track
7, 0, MIDI_port, 0
7, 0, Title_t, "Track-4             "
7, 0, Program_c, 4, 73
7, 0, Control_c, 4, 7, 127
7, 3664, Note_on_c, 4, 93, 87
7, 3692, Note_on_c, 4, 93, 0
7, 3708, Note_on_c, 4, 93, 80
7, 3736, Note_on_c, 4, 93, 0
7, 3760, Note_on_c, 4, 93, 85
7, 3786, Note_on_c, 4, 93, 0
7, 3812, Note_on_c, 4, 93, 87
7, 3840, Note_on_c, 4, 93, 0
7, 3868, Note_on_c, 4, 91, 78
7, 3914, Note_on_c, 4, 91, 0
7, 3970, Note_on_c, 4, 91, 68
7, 3992, Note_on_c, 4, 91, 0
7, 4022, Note_on_c, 4, 91, 66
7, 4058, Note_on_c, 4, 91, 0
7, 4080, Note_on_c, 4, 88, 62
7, 4124, Note_on_c, 4, 88, 0
7, 4190, Note_on_c, 4, 88, 78
7, 4236, Note_on_c, 4, 88, 0
7, 4318, Note_on_c, 4, 91, 64
7, 4760, Note_on_c, 4, 91, 0
7, 5330, Note_on_c, 4, 89, 78
7, 5382, Note_on_c, 4, 89, 0
7, 5384, Note_on_c, 4, 88, 61
7, 5418, Note_on_c, 4, 88, 0
7, 5440, Note_on_c, 4, 89, 85
7, 5484, Note_on_c, 4, 89, 0
7, 5548, Note_on_c, 4, 88, 80
7, 5602, Note_on_c, 4, 86, 60
7, 5604, Note_on_c, 4, 88, 0
7, 5650, Note_on_c, 4, 86, 0
7, 5666, Note_on_c, 4, 88, 89
7, 5714, Note_on_c, 4, 88, 0
7, 5778, Note_on_c, 4, 86, 64
7, 5832, Note_on_c, 4, 86, 0
7, 5840, Note_on_c, 4, 84, 74
7, 5882, Note_on_c, 4, 84, 0
7, 5902, Note_on_c, 4, 86, 80
7, 5972, Note_on_c, 4, 86, 0
7, 6026, Note_on_c, 4, 81, 52
7, 6094, Note_on_c, 4, 81, 0
7, 6182, Note_on_c, 4, 81, 61
7, 6560, Note_on_c, 4, 81, 0
7, 14292, Pitch_bend_c, 4, 7447
7, 14296, Pitch_bend_c, 4, 4799
7, 14300, Pitch_bend_c, 4, 2813
7, 14304, Pitch_bend_c, 4, 1737
7, 14304, Note_on_c, 4, 88, 113
7, 14310, Pitch_bend_c, 4, 1241
7, 14316, Pitch_bend_c, 4, 2151
7, 14320, Pitch_bend_c, 4, 4633
7, 14324, Pitch_bend_c, 4, 8192
7, 14352, Note_on_c, 4, 86, 104
7, 14362, Note_on_c, 4, 88, 0
7, 14378, Note_on_c, 4, 86, 0
7, 14400, Note_on_c, 4, 81, 81
7, 14420, Note_on_c, 4, 81, 0
7, 14448, Note_on_c, 4, 84, 113
7, 14572, Pitch_bend_c, 4, 8109
7, 14576, Pitch_bend_c, 4, 7447
7, 14580, Pitch_bend_c, 4, 6536
7, 14582, Pitch_bend_c, 4, 5461
7, 14586, Note_on_c, 4, 84, 0
7, 14586, Pitch_bend_c, 4, 4302
7, 14590, Pitch_bend_c, 4, 3475
7, 14594, Pitch_bend_c, 4, 3309
7, 14604, Pitch_bend_c, 4, 3971
7, 14608, Pitch_bend_c, 4, 6288
7, 14612, Pitch_bend_c, 4, 8192
7, 15840, Note_on_c, 4, 86, 113
7, 15844, Pitch_bend_c, 4, 6702
7, 15850, Pitch_bend_c, 4, 5461
7, 15854, Pitch_bend_c, 4, 5047
7, 15866, Pitch_bend_c, 4, 5626
7, 15870, Pitch_bend_c, 4, 7612
7, 15876, Pitch_bend_c, 4, 8192
7, 15888, Note_on_c, 4, 84, 81
7, 15890, Note_on_c, 4, 86, 0
7, 15932, Note_on_c, 4, 84, 0
7, 15936, Note_on_c, 4, 81, 69
7, 15968, Note_on_c, 4, 81, 0
7, 15984, Note_on_c, 4, 93, 113
7, 16002, Pitch_bend_c, 4, 5792
7, 16008, Pitch_bend_c, 4, 4054
7, 16012, Pitch_bend_c, 4, 3558
7, 16024, Pitch_bend_c, 4, 3640
7, 16028, Pitch_bend_c, 4, 4799
7, 16034, Pitch_bend_c, 4, 7281
7, 16040, Pitch_bend_c, 4, 8192
7, 16134, Pitch_bend_c, 4, 8191
7, 16138, Pitch_bend_c, 4, 7695
7, 16142, Note_on_c, 4, 93, 0
7, 16142, Pitch_bend_c, 4, 6702
7, 16148, Pitch_bend_c, 4, 6371
7, 16150, Pitch_bend_c, 4, 5957
7, 16156, Pitch_bend_c, 4, 5792
7, 16160, Pitch_bend_c, 4, 5461
7, 16164, Pitch_bend_c, 4, 5213
7, 16184, Pitch_bend_c, 4, 5792
7, 16188, Pitch_bend_c, 4, 8192
7, 17376, Note_on_c, 4, 88, 111
7, 17424, Note_on_c, 4, 86, 79
7, 17438, Note_on_c, 4, 88, 0
7, 17452, Note_on_c, 4, 86, 0
7, 17472, Note_on_c, 4, 81, 83
7, 17498, Note_on_c, 4, 81, 0
7, 17520, Note_on_c, 4, 84, 116
7, 17520, Note_on_c, 4, 86, 118
7, 17536, Note_on_c, 4, 86, 0
7, 17604, Pitch_bend_c, 4, 8191
7, 17608, Pitch_bend_c, 4, 7364
7, 17612, Pitch_bend_c, 4, 6867
7, 17630, Pitch_bend_c, 4, 6785
7, 17634, Pitch_bend_c, 4, 6371
7, 17638, Pitch_bend_c, 4, 6040
7, 17644, Pitch_bend_c, 4, 5626
7, 17648, Pitch_bend_c, 4, 5295
7, 17652, Pitch_bend_c, 4, 5130
7, 17656, Pitch_bend_c, 4, 4882
7, 17660, Pitch_bend_c, 4, 4302
7, 17664, Note_on_c, 4, 84, 0
7, 17664, Pitch_bend_c, 4, 3558
7, 17672, Pitch_bend_c, 4, 2647
7, 17676, Pitch_bend_c, 4, 1489
7, 17680, Pitch_bend_c, 4, 1323
7, 17694, Pitch_bend_c, 4, 2151
7, 17698, Pitch_bend_c, 4, 5626
7, 17702, Pitch_bend_c, 4, 8192
7, 62548, Pitch_bend_c, 4, 7860
7, 62552, Pitch_bend_c, 4, 6371
7, 62556, Pitch_bend_c, 4, 4882
7, 62562, Pitch_bend_c, 4, 4137
7, 62566, Pitch_bend_c, 4, 3806
7, 62572, Pitch_bend_c, 4, 3640
7, 62576, Pitch_bend_c, 4, 3392
7, 62582, Pitch_bend_c, 4, 3309
7, 62598, Note_on_c, 4, 84, 113
7, 62606, Pitch_bend_c, 4, 4716
7, 62610, Pitch_bend_c, 4, 6950
7, 62614, Pitch_bend_c, 4, 8192
7, 62696, Note_on_c, 4, 84, 0
7, 62696, End_track
8, 0, Start_track
8, 0, MIDI_port, 0
8, 0, Title_t, "Track-5             "
8, 0, Program_c, 5, 48
8, 0, Control_c, 5, 7, 127
8, 384, Note_on_c, 5, 76, 80
8, 384, Note_on_c, 5, 60, 84
8, 1928, Note_on_c, 5, 77, 68
8, 1928, Note_on_c, 5, 62, 64
8, 1930, Note_on_c, 5, 60, 0
8, 1938, Note_on_c, 5, 76, 0
8, 3452, Note_on_c, 5, 76, 79
8, 3454, Note_on_c, 5, 60, 68
8, 3458, Note_on_c, 5, 62, 0
8, 3460, Note_on_c, 5, 77, 0
8, 5002, Note_on_c, 5, 77, 59
8, 5004, Note_on_c, 5, 76, 0
8, 5008, Note_on_c, 5, 62, 82
8, 5012, Note_on_c, 5, 60, 0
8, 6158, Note_on_c, 5, 62, 0
8, 6162, Note_on_c, 5, 77, 0
8, 13056, Note_on_c, 5, 60, 64
8, 13056, Note_on_c, 5, 76, 48
8, 13056, Note_on_c, 5, 72, 64
8, 13056, Note_on_c, 5, 67, 62
8, 13714, Note_on_c, 5, 67, 0
8, 13778, Note_on_c, 5, 76, 0
8, 13794, Note_on_c, 5, 72, 0
8, 13812, Note_on_c, 5, 60, 0
8, 13824, Note_on_c, 5, 74, 62
8, 13824, Note_on_c, 5, 69, 52
8, 13824, Note_on_c, 5, 62, 62
8, 13824, Note_on_c, 5, 77, 42
8, 14512, Note_on_c, 5, 69, 0
8, 14564, Note_on_c, 5, 77, 0
8, 14568, Note_on_c, 5, 74, 0
8, 14592, Note_on_c, 5, 62, 0
8, 14592, Note_on_c, 5, 76, 20
8, 14592, Note_on_c, 5, 72, 47
8, 14592, Note_on_c, 5, 67, 51
8, 14592, Note_on_c, 5, 60, 70
8, 15276, Note_on_c, 5, 67, 0
8, 15324, Note_on_c, 5, 76, 0
8, 15330, Note_on_c, 5, 72, 0
8, 15334, Note_on_c, 5, 60, 0
8, 15360, Note_on_c, 5, 74, 68
8, 15360, Note_on_c, 5, 69, 55
8, 15360, Note_on_c, 5, 77, 52
8, 15360, Note_on_c, 5, 62, 49
8, 16000, Note_on_c, 5, 69, 0
8, 16104, Note_on_c, 5, 77, 0
8, 16114, Note_on_c, 5, 74, 0
8, 16120, Note_on_c, 5, 62, 0
8, 16128, Note_on_c, 5, 60, 67
8, 16128, Note_on_c, 5, 67, 58
8, 16128, Note_on_c, 5, 76, 58
8, 16128, Note_on_c, 5, 72, 54
8, 16802, Note_on_c, 5, 67, 0
8, 16854, Note_on_c, 5, 76, 0
8, 16882, Note_on_c, 5, 60, 0
8, 16896, Note_on_c, 5, 69, 57
8, 16896, Note_on_c, 5, 77, 47
8, 16896, Note_on_c, 5, 74, 71
8, 16896, Note_on_c, 5, 62, 57
8, 16898, Note_on_c, 5, 72, 0
8, 17616, Note_on_c, 5, 69, 0
8, 17626, Note_on_c, 5, 74, 0
8, 17640, Note_on_c, 5, 77, 0
8, 17652, Note_on_c, 5, 62, 0
8, 17664, Note_on_c, 5, 60, 68
8, 17664, Note_on_c, 5, 72, 64
8, 17664, Note_on_c, 5, 67, 60
8, 17664, Note_on_c, 5, 76, 53
8, 18390, Note_on_c, 5, 72, 0
8, 18396, Note_on_c, 5, 76, 0
8, 18432, Note_on_c, 5, 55, 64
8, 18432, Note_on_c, 5, 74, 70
8, 18432, Note_on_c, 5, 71, 54
8, 18434, Note_on_c, 5, 60, 0
8, 19118, Note_on_c, 5, 67, 0
8, 19120, Note_on_c, 5, 71, 0
8, 19126, Note_on_c, 5, 74, 0
8, 19132, Note_on_c, 5, 55, 0
8, 25344, Note_on_c, 5, 60, 65
8, 25344, Note_on_c, 5, 76, 43
8, 25344, Note_on_c, 5, 72, 65
8, 25344, Note_on_c, 5, 67, 56
8, 26026, Note_on_c, 5, 67, 0
8, 26050, Note_on_c, 5, 76, 0
8, 26080, Note_on_c, 5, 72, 0
8, 26080, Note_on_c, 5, 60, 0
8, 26112, Note_on_c, 5, 69, 48
8, 26112, Note_on_c, 5, 74, 68
8, 26112, Note_on_c, 5, 62, 62
8, 26112, Note_on_c, 5, 77, 60
8, 26834, Note_on_c, 5, 69, 0
8, 26852, Note_on_c, 5, 74, 0
8, 26858, Note_on_c, 5, 77, 0
8, 26880, Note_on_c, 5, 60, 75
8, 26880, Note_on_c, 5, 72, 67
8, 26880, Note_on_c, 5, 67, 59
8, 26880, Note_on_c, 5, 76, 59
8, 26882, Note_on_c, 5, 62, 0
8, 27546, Note_on_c, 5, 67, 0
8, 27590, Note_on_c, 5, 76, 0
8, 27632, Note_on_c, 5, 60, 0
8, 27634, Note_on_c, 5, 72, 0
8, 27648, Note_on_c, 5, 69, 60
8, 27648, Note_on_c, 5, 74, 71
8, 27648, Note_on_c, 5, 62, 68
8, 27648, Note_on_c, 5, 77, 46
8, 28368, Note_on_c, 5, 69, 0
8, 28386, Note_on_c, 5, 77, 0
8, 28394, Note_on_c, 5, 74, 0
8, 28398, Note_on_c, 5, 62, 0
8, 28416, Note_on_c, 5, 60, 62
8, 28416, Note_on_c, 5, 76, 39
8, 28416, Note_on_c, 5, 72, 65
8, 28416, Note_on_c, 5, 67, 59
8, 29112, Note_on_c, 5, 67, 0
8, 29148, Note_on_c, 5, 76, 0
8, 29168, Note_on_c, 5, 60, 0
8, 29178, Note_on_c, 5, 72, 0
8, 29184, Note_on_c, 5, 62, 62
8, 29184, Note_on_c, 5, 74, 56
8, 29184, Note_on_c, 5, 69, 45
8, 29184, Note_on_c, 5, 77, 43
8, 29904, Note_on_c, 5, 69, 0
8, 29918, Note_on_c, 5, 74, 0
8, 29942, Note_on_c, 5, 77, 0
8, 29952, Note_on_c, 5, 60, 68
8, 29952, Note_on_c, 5, 76, 41
8, 29952, Note_on_c, 5, 72, 73
8, 29952, Note_on_c, 5, 67, 59
8, 29958, Note_on_c, 5, 62, 0
8, 30670, Note_on_c, 5, 72, 0
8, 30678, Note_on_c, 5, 76, 0
8, 30712, Note_on_c, 5, 60, 0
8, 30720, Note_on_c, 5, 55, 77
8, 30720, Note_on_c, 5, 74, 65
8, 30720, Note_on_c, 5, 71, 54
8, 31456, Note_on_c, 5, 67, 0
8, 31462, Note_on_c, 5, 71, 0
8, 31464, Note_on_c, 5, 74, 0
8, 31474, Note_on_c, 5, 55, 0
8, 37632, Note_on_c, 5, 76, 53
8, 37632, Note_on_c, 5, 69, 61
8, 37632, Note_on_c, 5, 72, 73
8, 37632, Note_on_c, 5, 57, 68
8, 39096, Note_on_c, 5, 72, 0
8, 39096, Note_on_c, 5, 76, 0
8, 39152, Note_on_c, 5, 57, 0
8, 39168, Note_on_c, 5, 77, 51
8, 39168, Note_on_c, 5, 74, 59
8, 39168, Note_on_c, 5, 62, 47
8, 40566, Note_on_c, 5, 69, 0
8, 40588, Note_on_c, 5, 77, 0
8, 40600, Note_on_c, 5, 74, 0
8, 40694, Note_on_c, 5, 62, 0
8, 40704, Note_on_c, 5, 72, 61
8, 40704, Note_on_c, 5, 76, 56
8, 40704, Note_on_c, 5, 81, 54
8, 40704, Note_on_c, 5, 57, 54
8, 42136, Note_on_c, 5, 72, 0
8, 42180, Note_on_c, 5, 76, 0
8, 42240, Note_on_c, 5, 77, 65
8, 42240, Note_on_c, 5, 74, 59
8, 42240, Note_on_c, 5, 62, 68
8, 42242, Note_on_c, 5, 57, 0
8, 43230, Note_on_c, 5, 77, 0
8, 43248, Note_on_c, 5, 81, 0
8, 43256, Note_on_c, 5, 74, 0
8, 43342, Note_on_c, 5, 62, 0
8, 43342, End_track
9, 0, Start_track
9, 0, MIDI_port, 0
9, 0, Title_t, "Track-6             "
9, 0, Program_c, 5, 48
9, 0, Control_c, 5, 7, 127
9, 19968, Note_on_c, 5, 81, 117
9, 19968, Note_on_c, 5, 69, 109
9, 19990, Note_on_c, 5, 69, 0
9, 19992, Note_on_c, 5, 81, 0
9, 20016, Note_on_c, 5, 81, 97
9, 20016, Note_on_c, 5, 69, 87
9, 20034, Note_on_c, 5, 69, 0
9, 20038, Note_on_c, 5, 81, 0
9, 20064, Note_on_c, 5, 81, 92
9, 20064, Note_on_c, 5, 69, 87
9, 20084, Note_on_c, 5, 69, 0
9, 20084, Note_on_c, 5, 81, 0
9, 20112, Note_on_c, 5, 81, 90
9, 20112, Note_on_c, 5, 69, 96
9, 20136, Note_on_c, 5, 69, 0
9, 20144, Note_on_c, 5, 81, 0
9, 20160, Note_on_c, 5, 79, 124
9, 20160, Note_on_c, 5, 67, 70
9, 20182, Note_on_c, 5, 67, 0
9, 20190, Note_on_c, 5, 79, 0
9, 20256, Note_on_c, 5, 79, 99
9, 20256, Note_on_c, 5, 67, 90
9, 20274, Note_on_c, 5, 67, 0
9, 20278, Note_on_c, 5, 79, 0
9, 20304, Note_on_c, 5, 67, 78
9, 20304, Note_on_c, 5, 79, 104
9, 20336, Note_on_c, 5, 79, 0
9, 20336, Note_on_c, 5, 67, 0
9, 20352, Note_on_c, 5, 76, 112
9, 20352, Note_on_c, 5, 64, 66
9, 20376, Note_on_c, 5, 76, 0
9, 20382, Note_on_c, 5, 64, 0
9, 20448, Note_on_c, 5, 76, 90
9, 20448, Note_on_c, 5, 64, 74
9, 20478, Note_on_c, 5, 76, 0
9, 20486, Note_on_c, 5, 64, 0
9, 20544, Note_on_c, 5, 79, 102
9, 20544, Note_on_c, 5, 67, 92
9, 20650, Note_on_c, 5, 67, 0
9, 20674, Note_on_c, 5, 79, 0
9, 21408, Note_on_c, 5, 77, 114
9, 21408, Note_on_c, 5, 65, 109
9, 21448, Note_on_c, 5, 77, 0
9, 21452, Note_on_c, 5, 65, 0
9, 21456, Note_on_c, 5, 76, 87
9, 21456, Note_on_c, 5, 64, 69
9, 21482, Note_on_c, 5, 64, 0
9, 21490, Note_on_c, 5, 76, 0
9, 21504, Note_on_c, 5, 77, 102
9, 21504, Note_on_c, 5, 65, 96
9, 21540, Note_on_c, 5, 65, 0
9, 21544, Note_on_c, 5, 77, 0
9, 21600, Note_on_c, 5, 76, 112
9, 21600, Note_on_c, 5, 64, 99
9, 21642, Note_on_c, 5, 64, 0
9, 21644, Note_on_c, 5, 76, 0
9, 21648, Note_on_c, 5, 74, 63
9, 21648, Note_on_c, 5, 62, 55
9, 21676, Note_on_c, 5, 62, 0
9, 21680, Note_on_c, 5, 74, 0
9, 21696, Note_on_c, 5, 64, 87
9, 21696, Note_on_c, 5, 76, 112
9, 21736, Note_on_c, 5, 64, 0
9, 21744, Note_on_c, 5, 76, 0
9, 21792, Note_on_c, 5, 74, 86
9, 21792, Note_on_c, 5, 62, 74
9, 21826, Note_on_c, 5, 74, 0
9, 21840, Note_on_c, 5, 72, 75
9, 21840, Note_on_c, 5, 60, 89
9, 21846, Note_on_c, 5, 62, 0
9, 21870, Note_on_c, 5, 60, 0
9, 21870, Note_on_c, 5, 72, 0
9, 21888, Note_on_c, 5, 74, 104
9, 21888, Note_on_c, 5, 62, 87
9, 21924, Note_on_c, 5, 62, 0
9, 21924, Note_on_c, 5, 74, 0
9, 21984, Note_on_c, 5, 69, 92
9, 21984, Note_on_c, 5, 57, 81
9, 22018, Note_on_c, 5, 57, 0
9, 22020, Note_on_c, 5, 69, 0
9, 22080, Note_on_c, 5, 69, 104
9, 22080, Note_on_c, 5, 57, 84
9, 22158, Note_on_c, 5, 57, 0
9, 22190, Note_on_c, 5, 69, 0
9, 23040, Note_on_c, 5, 81, 117
9, 23040, Note_on_c, 5, 69, 94
9, 23064, Note_on_c, 5, 69, 0
9, 23064, Note_on_c, 5, 81, 0
9, 23088, Note_on_c, 5, 81, 86
9, 23088, Note_on_c, 5, 69, 77
9, 23110, Note_on_c, 5, 69, 0
9, 23110, Note_on_c, 5, 81, 0
9, 23136, Note_on_c, 5, 81, 87
9, 23136, Note_on_c, 5, 69, 76
9, 23156, Note_on_c, 5, 81, 0
9, 23158, Note_on_c, 5, 69, 0
9, 23184, Note_on_c, 5, 81, 102
9, 23184, Note_on_c, 5, 69, 71
9, 23212, Note_on_c, 5, 69, 0
9, 23222, Note_on_c, 5, 81, 0
9, 23232, Note_on_c, 5, 69, 43
9, 23232, Note_on_c, 5, 79, 120
9, 23232, Note_on_c, 5, 67, 92
9, 23250, Note_on_c, 5, 69, 0
9, 23264, Note_on_c, 5, 79, 0
9, 23272, Note_on_c, 5, 67, 0
9, 23328, Note_on_c, 5, 79, 104
9, 23328, Note_on_c, 5, 67, 73
9, 23350, Note_on_c, 5, 79, 0
9, 23354, Note_on_c, 5, 67, 0
9, 23376, Note_on_c, 5, 79, 90
9, 23376, Note_on_c, 5, 67, 70
9, 23402, Note_on_c, 5, 67, 0
9, 23406, Note_on_c, 5, 79, 0
9, 23424, Note_on_c, 5, 76, 93
9, 23424, Note_on_c, 5, 64, 103
9, 23454, Note_on_c, 5, 64, 0
9, 23454, Note_on_c, 5, 76, 0
9, 23520, Note_on_c, 5, 76, 103
9, 23520, Note_on_c, 5, 64, 87
9, 23552, Note_on_c, 5, 64, 0
9, 23554, Note_on_c, 5, 76, 0
9, 23616, Note_on_c, 5, 79, 104
9, 23616, Note_on_c, 5, 67, 86
9, 23714, Note_on_c, 5, 67, 0
9, 23726, Note_on_c, 5, 79, 0
9, 24480, Note_on_c, 5, 65, 99
9, 24480, Note_on_c, 5, 77, 109
9, 24518, Note_on_c, 5, 77, 0
9, 24522, Note_on_c, 5, 65, 0
9, 24528, Note_on_c, 5, 76, 96
9, 24528, Note_on_c, 5, 64, 72
9, 24558, Note_on_c, 5, 64, 0
9, 24560, Note_on_c, 5, 76, 0
9, 24576, Note_on_c, 5, 77, 104
9, 24576, Note_on_c, 5, 65, 87
9, 24606, Note_on_c, 5, 65, 0
9, 24616, Note_on_c, 5, 77, 0
9, 24672, Note_on_c, 5, 76, 107
9, 24672, Note_on_c, 5, 64, 80
9, 24716, Note_on_c, 5, 64, 0
9, 24718, Note_on_c, 5, 76, 0
9, 24720, Note_on_c, 5, 74, 70
9, 24720, Note_on_c, 5, 62, 62
9, 24748, Note_on_c, 5, 62, 0
9, 24752, Note_on_c, 5, 74, 0
9, 24768, Note_on_c, 5, 76, 112
9, 24768, Note_on_c, 5, 64, 76
9, 24796, Note_on_c, 5, 76, 0
9, 24798, Note_on_c, 5, 64, 0
9, 24864, Note_on_c, 5, 62, 82
9, 24864, Note_on_c, 5, 74, 92
9, 24908, Note_on_c, 5, 62, 0
9, 24912, Note_on_c, 5, 60, 66
9, 24912, Note_on_c, 5, 72, 96
9, 24916, Note_on_c, 5, 74, 0
9, 24944, Note_on_c, 5, 72, 0
9, 24944, Note_on_c, 5, 60, 0
9, 24960, Note_on_c, 5, 74, 104
9, 24960, Note_on_c, 5, 62, 90
9, 24994, Note_on_c, 5, 62, 0
9, 25002, Note_on_c, 5, 74, 0
9, 25056, Note_on_c, 5, 57, 78
9, 25056, Note_on_c, 5, 69, 94
9, 25092, Note_on_c, 5, 69, 0
9, 25098, Note_on_c, 5, 57, 0
9, 25152, Note_on_c, 5, 57, 77
9, 25152, Note_on_c, 5, 69, 97
9, 25230, Note_on_c, 5, 57, 0
9, 25268, Note_on_c, 5, 69, 0
9, 32256, Note_on_c, 5, 81, 117
9, 32256, Note_on_c, 5, 69, 109
9, 32278, Note_on_c, 5, 69, 0
9, 32280, Note_on_c, 5, 81, 0
9, 32304, Note_on_c, 5, 81, 97
9, 32304, Note_on_c, 5, 69, 87
9, 32322, Note_on_c, 5, 69, 0
9, 32326, Note_on_c, 5, 81, 0
9, 32352, Note_on_c, 5, 81, 92
9, 32352, Note_on_c, 5, 69, 87
9, 32372, Note_on_c, 5, 69, 0
9, 32372, Note_on_c, 5, 81, 0
9, 32400, Note_on_c, 5, 81, 90
9, 32400, Note_on_c, 5, 69, 96
9, 32424, Note_on_c, 5, 69, 0
9, 32432, Note_on_c, 5, 81, 0
9, 32448, Note_on_c, 5, 79, 124
9, 32448, Note_on_c, 5, 67, 70
9, 32470, Note_on_c, 5, 67, 0
9, 32478, Note_on_c, 5, 79, 0
9, 32544, Note_on_c, 5, 79, 99
9, 32544, Note_on_c, 5, 67, 90
9, 32562, Note_on_c, 5, 67, 0
9, 32566, Note_on_c, 5, 79, 0
9, 32592, Note_on_c, 5, 67, 78
9, 32592, Note_on_c, 5, 79, 104
9, 32624, Note_on_c, 5, 79, 0
9, 32624, Note_on_c, 5, 67, 0
9, 32640, Note_on_c, 5, 76, 112
9, 32640, Note_on_c, 5, 64, 66
9, 32664, Note_on_c, 5, 76, 0
9, 32670, Note_on_c, 5, 64, 0
9, 32736, Note_on_c, 5, 76, 90
9, 32736, Note_on_c, 5, 64, 74
9, 32766, Note_on_c, 5, 76, 0
9, 32774, Note_on_c, 5, 64, 0
9, 32832, Note_on_c, 5, 79, 102
9, 32832, Note_on_c, 5, 67, 92
9, 32938, Note_on_c, 5, 67, 0
9, 32962, Note_on_c, 5, 79, 0
9, 33696, Note_on_c, 5, 77, 114
9, 33696, Note_on_c, 5, 65, 109
9, 33736, Note_on_c, 5, 77, 0
9, 33740, Note_on_c, 5, 65, 0
9, 33744, Note_on_c, 5, 76, 87
9, 33744, Note_on_c, 5, 64, 69
9, 33770, Note_on_c, 5, 64, 0
9, 33778, Note_on_c, 5, 76, 0
9, 33792, Note_on_c, 5, 77, 102
9, 33792, Note_on_c, 5, 65, 96
9, 33828, Note_on_c, 5, 65, 0
9, 33832, Note_on_c, 5, 77, 0
9, 33888, Note_on_c, 5, 76, 112
9, 33888, Note_on_c, 5, 64, 99
9, 33930, Note_on_c, 5, 64, 0
9, 33932, Note_on_c, 5, 76, 0
9, 33936, Note_on_c, 5, 74, 63
9, 33936, Note_on_c, 5, 62, 55
9, 33964, Note_on_c, 5, 62, 0
9, 33968, Note_on_c, 5, 74, 0
9, 33984, Note_on_c, 5, 64, 87
9, 33984, Note_on_c, 5, 76, 112
9, 34024, Note_on_c, 5, 64, 0
9, 34032, Note_on_c, 5, 76, 0
9, 34080, Note_on_c, 5, 74, 86
9, 34080, Note_on_c, 5, 62, 74
9, 34114, Note_on_c, 5, 74, 0
9, 34128, Note_on_c, 5, 72, 75
9, 34128, Note_on_c, 5, 60, 89
9, 34134, Note_on_c, 5, 62, 0
9, 34158, Note_on_c, 5, 60, 0
9, 34158, Note_on_c, 5, 72, 0
9, 34176, Note_on_c, 5, 74, 104
9, 34176, Note_on_c, 5, 62, 87
9, 34212, Note_on_c, 5, 62, 0
9, 34212, Note_on_c, 5, 74, 0
9, 34272, Note_on_c, 5, 69, 92
9, 34272, Note_on_c, 5, 57, 81
9, 34306, Note_on_c, 5, 57, 0
9, 34308, Note_on_c, 5, 69, 0
9, 34368, Note_on_c, 5, 69, 104
9, 34368, Note_on_c, 5, 57, 84
9, 34446, Note_on_c, 5, 57, 0
9, 34478, Note_on_c, 5, 69, 0
9, 35328, Note_on_c, 5, 81, 117
9, 35328, Note_on_c, 5, 69, 94
9, 35352, Note_on_c, 5, 69, 0
9, 35352, Note_on_c, 5, 81, 0
9, 35376, Note_on_c, 5, 81, 86
9, 35376, Note_on_c, 5, 69, 77
9, 35398, Note_on_c, 5, 69, 0
9, 35398, Note_on_c, 5, 81, 0
9, 35424, Note_on_c, 5, 81, 87
9, 35424, Note_on_c, 5, 69, 76
9, 35444, Note_on_c, 5, 81, 0
9, 35446, Note_on_c, 5, 69, 0
9, 35472, Note_on_c, 5, 81, 102
9, 35472, Note_on_c, 5, 69, 71
9, 35500, Note_on_c, 5, 69, 0
9, 35510, Note_on_c, 5, 81, 0
9, 35520, Note_on_c, 5, 69, 43
9, 35520, Note_on_c, 5, 79, 120
9, 35520, Note_on_c, 5, 67, 92
9, 35538, Note_on_c, 5, 69, 0
9, 35552, Note_on_c, 5, 79, 0
9, 35560, Note_on_c, 5, 67, 0
9, 35616, Note_on_c, 5, 79, 104
9, 35616, Note_on_c, 5, 67, 73
9, 35638, Note_on_c, 5, 79, 0
9, 35642, Note_on_c, 5, 67, 0
9, 35664, Note_on_c, 5, 79, 90
9, 35664, Note_on_c, 5, 67, 70
9, 35690, Note_on_c, 5, 67, 0
9, 35694, Note_on_c, 5, 79, 0
9, 35712, Note_on_c, 5, 76, 93
9, 35712, Note_on_c, 5, 64, 103
9, 35742, Note_on_c, 5, 64, 0
9, 35742, Note_on_c, 5, 76, 0
9, 35808, Note_on_c, 5, 76, 103
9, 35808, Note_on_c, 5, 64, 87
9, 35840, Note_on_c, 5, 64, 0
9, 35842, Note_on_c, 5, 76, 0
9, 35904, Note_on_c, 5, 79, 104
9, 35904, Note_on_c, 5, 67, 86
9, 36002, Note_on_c, 5, 67, 0
9, 36014, Note_on_c, 5, 79, 0
9, 36768, Note_on_c, 5, 65, 99
9, 36768, Note_on_c, 5, 77, 109
9, 36806, Note_on_c, 5, 77, 0
9, 36810, Note_on_c, 5, 65, 0
9, 36816, Note_on_c, 5, 76, 96
9, 36816, Note_on_c, 5, 64, 72
9, 36846, Note_on_c, 5, 64, 0
9, 36848, Note_on_c, 5, 76, 0
9, 36864, Note_on_c, 5, 77, 104
9, 36864, Note_on_c, 5, 65, 87
9, 36894, Note_on_c, 5, 65, 0
9, 36904, Note_on_c, 5, 77, 0
9, 36960, Note_on_c, 5, 76, 107
9, 36960, Note_on_c, 5, 64, 80
9, 37004, Note_on_c, 5, 64, 0
9, 37006, Note_on_c, 5, 76, 0
9, 37008, Note_on_c, 5, 74, 70
9, 37008, Note_on_c, 5, 62, 62
9, 37036, Note_on_c, 5, 62, 0
9, 37040, Note_on_c, 5, 74, 0
9, 37056, Note_on_c, 5, 76, 112
9, 37056, Note_on_c, 5, 64, 76
9, 37084, Note_on_c, 5, 76, 0
9, 37086, Note_on_c, 5, 64, 0
9, 37152, Note_on_c, 5, 62, 82
9, 37152, Note_on_c, 5, 74, 92
9, 37196, Note_on_c, 5, 62, 0
9, 37200, Note_on_c, 5, 60, 66
9, 37200, Note_on_c, 5, 72, 96
9, 37204, Note_on_c, 5, 74, 0
9, 37232, Note_on_c, 5, 72, 0
9, 37232, Note_on_c, 5, 60, 0
9, 37248, Note_on_c, 5, 74, 104
9, 37248, Note_on_c, 5, 62, 90
9, 37282, Note_on_c, 5, 62, 0
9, 37290, Note_on_c, 5, 74, 0
9, 37344, Note_on_c, 5, 57, 78
9, 37344, Note_on_c, 5, 69, 94
9, 37380, Note_on_c, 5, 69, 0
9, 37386, Note_on_c, 5, 57, 0
9, 37440, Note_on_c, 5, 57, 77
9, 37440, Note_on_c, 5, 69, 97
9, 37518, Note_on_c, 5, 57, 0
9, 37556, Note_on_c, 5, 69, 0
9, 42912, Note_on_c, 5, 65, 109
9, 42912, Note_on_c, 5, 77, 114
9, 42954, Note_on_c, 5, 65, 0
9, 42960, Note_on_c, 5, 64, 87
9, 42960, Note_on_c, 5, 76, 103
9, 42962, Note_on_c, 5, 77, 0
9, 42996, Note_on_c, 5, 76, 0
9, 43000, Note_on_c, 5, 64, 0
9, 43008, Note_on_c, 5, 65, 84
9, 43008, Note_on_c, 5, 77, 90
9, 43046, Note_on_c, 5, 77, 0
9, 43046, Note_on_c, 5, 65, 0
9, 43104, Note_on_c, 5, 76, 103
9, 43104, Note_on_c, 5, 64, 99
9, 43146, Note_on_c, 5, 64, 0
9, 43146, Note_on_c, 5, 76, 0
9, 43152, Note_on_c, 5, 74, 67
9, 43152, Note_on_c, 5, 62, 60
9, 43188, Note_on_c, 5, 62, 0
9, 43190, Note_on_c, 5, 74, 0
9, 43200, Note_on_c, 5, 64, 66
9, 43200, Note_on_c, 5, 76, 93
9, 43242, Note_on_c, 5, 76, 0
9, 43244, Note_on_c, 5, 64, 0
9, 43248, Note_on_c, 5, 74, 78
9, 43248, Note_on_c, 5, 62, 63
9, 43278, Note_on_c, 5, 62, 0
9, 43280, Note_on_c, 5, 74, 0
9, 43296, Note_on_c, 5, 72, 78
9, 43296, Note_on_c, 5, 60, 71
9, 43328, Note_on_c, 5, 60, 0
9, 43332, Note_on_c, 5, 72, 0
9, 43344, Note_on_c, 5, 62, 94
9, 43344, Note_on_c, 5, 74, 96
9, 43408, Note_on_c, 5, 62, 0
9, 43410, Note_on_c, 5, 74, 0
9, 43440, Note_on_c, 5, 79, 106
9, 43488, Note_on_c, 5, 67, 106
9, 43580, Note_on_c, 5, 67, 0
9, 43620, Note_on_c, 5, 79, 0
9, 44544, Note_on_c, 5, 81, 117
9, 44544, Note_on_c, 5, 69, 109
9, 44566, Note_on_c, 5, 69, 0
9, 44568, Note_on_c, 5, 81, 0
9, 44592, Note_on_c, 5, 81, 97
9, 44592, Note_on_c, 5, 69, 87
9, 44610, Note_on_c, 5, 69, 0
9, 44614, Note_on_c, 5, 81, 0
9, 44640, Note_on_c, 5, 81, 92
9, 44640, Note_on_c, 5, 69, 87
9, 44660, Note_on_c, 5, 69, 0
9, 44660, Note_on_c, 5, 81, 0
9, 44688, Note_on_c, 5, 81, 90
9, 44688, Note_on_c, 5, 69, 96
9, 44712, Note_on_c, 5, 69, 0
9, 44720, Note_on_c, 5, 81, 0
9, 44736, Note_on_c, 5, 79, 124
9, 44736, Note_on_c, 5, 67, 70
9, 44758, Note_on_c, 5, 67, 0
9, 44766, Note_on_c, 5, 79, 0
9, 44832, Note_on_c, 5, 79, 99
9, 44832, Note_on_c, 5, 67, 90
9, 44850, Note_on_c, 5, 67, 0
9, 44854, Note_on_c, 5, 79, 0
9, 44880, Note_on_c, 5, 67, 78
9, 44880, Note_on_c, 5, 79, 104
9, 44912, Note_on_c, 5, 79, 0
9, 44912, Note_on_c, 5, 67, 0
9, 44928, Note_on_c, 5, 76, 112
9, 44928, Note_on_c, 5, 64, 66
9, 44952, Note_on_c, 5, 76, 0
9, 44958, Note_on_c, 5, 64, 0
9, 45024, Note_on_c, 5, 76, 90
9, 45024, Note_on_c, 5, 64, 74
9, 45054, Note_on_c, 5, 76, 0
9, 45062, Note_on_c, 5, 64, 0
9, 45120, Note_on_c, 5, 79, 102
9, 45120, Note_on_c, 5, 67, 92
9, 45226, Note_on_c, 5, 67, 0
9, 45250, Note_on_c, 5, 79, 0
9, 45984, Note_on_c, 5, 77, 114
9, 45984, Note_on_c, 5, 65, 109
9, 46024, Note_on_c, 5, 77, 0
9, 46028, Note_on_c, 5, 65, 0
9, 46032, Note_on_c, 5, 76, 87
9, 46032, Note_on_c, 5, 64, 69
9, 46058, Note_on_c, 5, 64, 0
9, 46066, Note_on_c, 5, 76, 0
9, 46080, Note_on_c, 5, 77, 102
9, 46080, Note_on_c, 5, 65, 96
9, 46116, Note_on_c, 5, 65, 0
9, 46120, Note_on_c, 5, 77, 0
9, 46176, Note_on_c, 5, 76, 112
9, 46176, Note_on_c, 5, 64, 99
9, 46218, Note_on_c, 5, 64, 0
9, 46220, Note_on_c, 5, 76, 0
9, 46224, Note_on_c, 5, 74, 63
9, 46224, Note_on_c, 5, 62, 55
9, 46252, Note_on_c, 5, 62, 0
9, 46256, Note_on_c, 5, 74, 0
9, 46272, Note_on_c, 5, 64, 87
9, 46272, Note_on_c, 5, 76, 112
9, 46312, Note_on_c, 5, 64, 0
9, 46320, Note_on_c, 5, 76, 0
9, 46368, Note_on_c, 5, 74, 86
9, 46368, Note_on_c, 5, 62, 74
9, 46402, Note_on_c, 5, 74, 0
9, 46416, Note_on_c, 5, 72, 75
9, 46416, Note_on_c, 5, 60, 89
9, 46422, Note_on_c, 5, 62, 0
9, 46446, Note_on_c, 5, 60, 0
9, 46446, Note_on_c, 5, 72, 0
9, 46464, Note_on_c, 5, 74, 104
9, 46464, Note_on_c, 5, 62, 87
9, 46500, Note_on_c, 5, 62, 0
9, 46500, Note_on_c, 5, 74, 0
9, 46560, Note_on_c, 5, 69, 92
9, 46560, Note_on_c, 5, 57, 81
9, 46594, Note_on_c, 5, 57, 0
9, 46596, Note_on_c, 5, 69, 0
9, 46656, Note_on_c, 5, 69, 104
9, 46656, Note_on_c, 5, 57, 84
9, 46734, Note_on_c, 5, 57, 0
9, 46766, Note_on_c, 5, 69, 0
9, 47616, Note_on_c, 5, 81, 117
9, 47616, Note_on_c, 5, 69, 94
9, 47640, Note_on_c, 5, 69, 0
9, 47640, Note_on_c, 5, 81, 0
9, 47664, Note_on_c, 5, 81, 86
9, 47664, Note_on_c, 5, 69, 77
9, 47686, Note_on_c, 5, 69, 0
9, 47686, Note_on_c, 5, 81, 0
9, 47712, Note_on_c, 5, 81, 87
9, 47712, Note_on_c, 5, 69, 76
9, 47732, Note_on_c, 5, 81, 0
9, 47734, Note_on_c, 5, 69, 0
9, 47760, Note_on_c, 5, 81, 102
9, 47760, Note_on_c, 5, 69, 71
9, 47788, Note_on_c, 5, 69, 0
9, 47798, Note_on_c, 5, 81, 0
9, 47808, Note_on_c, 5, 69, 43
9, 47808, Note_on_c, 5, 79, 120
9, 47808, Note_on_c, 5, 67, 92
9, 47826, Note_on_c, 5, 69, 0
9, 47840, Note_on_c, 5, 79, 0
9, 47848, Note_on_c, 5, 67, 0
9, 47904, Note_on_c, 5, 79, 104
9, 47904, Note_on_c, 5, 67, 73
9, 47926, Note_on_c, 5, 79, 0
9, 47930, Note_on_c, 5, 67, 0
9, 47952, Note_on_c, 5, 79, 90
9, 47952, Note_on_c, 5, 67, 70
9, 47978, Note_on_c, 5, 67, 0
9, 47982, Note_on_c, 5, 79, 0
9, 48000, Note_on_c, 5, 76, 93
9, 48000, Note_on_c, 5, 64, 103
9, 48030, Note_on_c, 5, 64, 0
9, 48030, Note_on_c, 5, 76, 0
9, 48096, Note_on_c, 5, 76, 103
9, 48096, Note_on_c, 5, 64, 87
9, 48128, Note_on_c, 5, 64, 0
9, 48130, Note_on_c, 5, 76, 0
9, 48192, Note_on_c, 5, 79, 104
9, 48192, Note_on_c, 5, 67, 86
9, 48290, Note_on_c, 5, 67, 0
9, 48302, Note_on_c, 5, 79, 0
9, 49056, Note_on_c, 5, 65, 99
9, 49056, Note_on_c, 5, 77, 109
9, 49094, Note_on_c, 5, 77, 0
9, 49098, Note_on_c, 5, 65, 0
9, 49104, Note_on_c, 5, 76, 96
9, 49104, Note_on_c, 5, 64, 72
9, 49134, Note_on_c, 5, 64, 0
9, 49136, Note_on_c, 5, 76, 0
9, 49152, Note_on_c, 5, 77, 104
9, 49152, Note_on_c, 5, 65, 87
9, 49182, Note_on_c, 5, 65, 0
9, 49192, Note_on_c, 5, 77, 0
9, 49248, Note_on_c, 5, 76, 107
9, 49248, Note_on_c, 5, 64, 80
9, 49292, Note_on_c, 5, 64, 0
9, 49294, Note_on_c, 5, 76, 0
9, 49296, Note_on_c, 5, 74, 70
9, 49296, Note_on_c, 5, 62, 62
9, 49324, Note_on_c, 5, 62, 0
9, 49328, Note_on_c, 5, 74, 0
9, 49344, Note_on_c, 5, 76, 112
9, 49344, Note_on_c, 5, 64, 76
9, 49372, Note_on_c, 5, 76, 0
9, 49374, Note_on_c, 5, 64, 0
9, 49440, Note_on_c, 5, 62, 82
9, 49440, Note_on_c, 5, 74, 92
9, 49484, Note_on_c, 5, 62, 0
9, 49488, Note_on_c, 5, 60, 66
9, 49488, Note_on_c, 5, 72, 96
9, 49492, Note_on_c, 5, 74, 0
9, 49520, Note_on_c, 5, 72, 0
9, 49520, Note_on_c, 5, 60, 0
9, 49536, Note_on_c, 5, 74, 104
9, 49536, Note_on_c, 5, 62, 90
9, 49570, Note_on_c, 5, 62, 0
9, 49578, Note_on_c, 5, 74, 0
9, 49632, Note_on_c, 5, 57, 78
9, 49632, Note_on_c, 5, 69, 94
9, 49668, Note_on_c, 5, 69, 0
9, 49674, Note_on_c, 5, 57, 0
9, 49728, Note_on_c, 5, 57, 77
9, 49728, Note_on_c, 5, 69, 97
9, 49806, Note_on_c, 5, 57, 0
9, 49844, Note_on_c, 5, 69, 0
9, 50688, Note_on_c, 5, 81, 117
9, 50688, Note_on_c, 5, 69, 109
9, 50710, Note_on_c, 5, 69, 0
9, 50712, Note_on_c, 5, 81, 0
9, 50736, Note_on_c, 5, 81, 97
9, 50736, Note_on_c, 5, 69, 87
9, 50754, Note_on_c, 5, 69, 0
9, 50758, Note_on_c, 5, 81, 0
9, 50784, Note_on_c, 5, 81, 92
9, 50784, Note_on_c, 5, 69, 87
9, 50804, Note_on_c, 5, 69, 0
9, 50804, Note_on_c, 5, 81, 0
9, 50832, Note_on_c, 5, 81, 90
9, 50832, Note_on_c, 5, 69, 96
9, 50856, Note_on_c, 5, 69, 0
9, 50864, Note_on_c, 5, 81, 0
9, 50880, Note_on_c, 5, 79, 124
9, 50880, Note_on_c, 5, 67, 70
9, 50902, Note_on_c, 5, 67, 0
9, 50910, Note_on_c, 5, 79, 0
9, 50976, Note_on_c, 5, 79, 99
9, 50976, Note_on_c, 5, 67, 90
9, 50994, Note_on_c, 5, 67, 0
9, 50998, Note_on_c, 5, 79, 0
9, 51024, Note_on_c, 5, 67, 78
9, 51024, Note_on_c, 5, 79, 104
9, 51056, Note_on_c, 5, 79, 0
9, 51056, Note_on_c, 5, 67, 0
9, 51072, Note_on_c, 5, 76, 112
9, 51072, Note_on_c, 5, 64, 66
9, 51096, Note_on_c, 5, 76, 0
9, 51102, Note_on_c, 5, 64, 0
9, 51168, Note_on_c, 5, 76, 90
9, 51168, Note_on_c, 5, 64, 74
9, 51198, Note_on_c, 5, 76, 0
9, 51206, Note_on_c, 5, 64, 0
9, 51264, Note_on_c, 5, 79, 102
9, 51264, Note_on_c, 5, 67, 92
9, 51370, Note_on_c, 5, 67, 0
9, 51394, Note_on_c, 5, 79, 0
9, 52128, Note_on_c, 5, 77, 114
9, 52128, Note_on_c, 5, 65, 109
9, 52168, Note_on_c, 5, 77, 0
9, 52172, Note_on_c, 5, 65, 0
9, 52176, Note_on_c, 5, 76, 87
9, 52176, Note_on_c, 5, 64, 69
9, 52202, Note_on_c, 5, 64, 0
9, 52210, Note_on_c, 5, 76, 0
9, 52224, Note_on_c, 5, 77, 102
9, 52224, Note_on_c, 5, 65, 96
9, 52260, Note_on_c, 5, 65, 0
9, 52264, Note_on_c, 5, 77, 0
9, 52320, Note_on_c, 5, 76, 112
9, 52320, Note_on_c, 5, 64, 99
9, 52362, Note_on_c, 5, 64, 0
9, 52364, Note_on_c, 5, 76, 0
9, 52368, Note_on_c, 5, 74, 63
9, 52368, Note_on_c, 5, 62, 55
9, 52396, Note_on_c, 5, 62, 0
9, 52400, Note_on_c, 5, 74, 0
9, 52416, Note_on_c, 5, 64, 87
9, 52416, Note_on_c, 5, 76, 112
9, 52456, Note_on_c, 5, 64, 0
9, 52464, Note_on_c, 5, 76, 0
9, 52512, Note_on_c, 5, 74, 86
9, 52512, Note_on_c, 5, 62, 74
9, 52546, Note_on_c, 5, 74, 0
9, 52560, Note_on_c, 5, 72, 75
9, 52560, Note_on_c, 5, 60, 89
9, 52566, Note_on_c, 5, 62, 0
9, 52590, Note_on_c, 5, 60, 0
9, 52590, Note_on_c, 5, 72, 0
9, 52608, Note_on_c, 5, 74, 104
9, 52608, Note_on_c, 5, 62, 87
9, 52644, Note_on_c, 5, 62, 0
9, 52644, Note_on_c, 5, 74, 0
9, 52704, Note_on_c, 5, 69, 92
9, 52704, Note_on_c, 5, 57, 81
9, 52738, Note_on_c, 5, 57, 0
9, 52740, Note_on_c, 5, 69, 0
9, 52800, Note_on_c, 5, 69, 104
9, 52800, Note_on_c, 5, 57, 84
9, 52878, Note_on_c, 5, 57, 0
9, 52910, Note_on_c, 5, 69, 0
9, 53760, Note_on_c, 5, 81, 117
9, 53760, Note_on_c, 5, 69, 94
9, 53784, Note_on_c, 5, 69, 0
9, 53784, Note_on_c, 5, 81, 0
9, 53808, Note_on_c, 5, 81, 86
9, 53808, Note_on_c, 5, 69, 77
9, 53830, Note_on_c, 5, 69, 0
9, 53830, Note_on_c, 5, 81, 0
9, 53856, Note_on_c, 5, 81, 87
9, 53856, Note_on_c, 5, 69, 76
9, 53876, Note_on_c, 5, 81, 0
9, 53878, Note_on_c, 5, 69, 0
9, 53904, Note_on_c, 5, 81, 102
9, 53904, Note_on_c, 5, 69, 71
9, 53932, Note_on_c, 5, 69, 0
9, 53942, Note_on_c, 5, 81, 0
9, 53952, Note_on_c, 5, 69, 43
9, 53952, Note_on_c, 5, 79, 120
9, 53952, Note_on_c, 5, 67, 92
9, 53970, Note_on_c, 5, 69, 0
9, 53984, Note_on_c, 5, 79, 0
9, 53992, Note_on_c, 5, 67, 0
9, 54048, Note_on_c, 5, 79, 104
9, 54048, Note_on_c, 5, 67, 73
9, 54070, Note_on_c, 5, 79, 0
9, 54074, Note_on_c, 5, 67, 0
9, 54096, Note_on_c, 5, 79, 90
9, 54096, Note_on_c, 5, 67, 70
9, 54122, Note_on_c, 5, 67, 0
9, 54126, Note_on_c, 5, 79, 0
9, 54144, Note_on_c, 5, 76, 93
9, 54144, Note_on_c, 5, 64, 103
9, 54174, Note_on_c, 5, 64, 0
9, 54174, Note_on_c, 5, 76, 0
9, 54240, Note_on_c, 5, 76, 103
9, 54240, Note_on_c, 5, 64, 87
9, 54272, Note_on_c, 5, 64, 0
9, 54274, Note_on_c, 5, 76, 0
9, 54336, Note_on_c, 5, 79, 104
9, 54336, Note_on_c, 5, 67, 86
9, 54434, Note_on_c, 5, 67, 0
9, 54446, Note_on_c, 5, 79, 0
9, 55200, Note_on_c, 5, 65, 99
9, 55200, Note_on_c, 5, 77, 109
9, 55238, Note_on_c, 5, 77, 0
9, 55242, Note_on_c, 5, 65, 0
9, 55248, Note_on_c, 5, 76, 96
9, 55248, Note_on_c, 5, 64, 72
9, 55278, Note_on_c, 5, 64, 0
9, 55280, Note_on_c, 5, 76, 0
9, 55296, Note_on_c, 5, 77, 104
9, 55296, Note_on_c, 5, 65, 87
9, 55326, Note_on_c, 5, 65, 0
9, 55336, Note_on_c, 5, 77, 0
9, 55392, Note_on_c, 5, 76, 107
9, 55392, Note_on_c, 5, 64, 80
9, 55436, Note_on_c, 5, 64, 0
9, 55438, Note_on_c, 5, 76, 0
9, 55440, Note_on_c, 5, 74, 70
9, 55440, Note_on_c, 5, 62, 62
9, 55468, Note_on_c, 5, 62, 0
9, 55472, Note_on_c, 5, 74, 0
9, 55488, Note_on_c, 5, 76, 112
9, 55488, Note_on_c, 5, 64, 76
9, 55516, Note_on_c, 5, 76, 0
9, 55518, Note_on_c, 5, 64, 0
9, 55584, Note_on_c, 5, 62, 82
9, 55584, Note_on_c, 5, 74, 92
9, 55628, Note_on_c, 5, 62, 0
9, 55632, Note_on_c, 5, 60, 66
9, 55632, Note_on_c, 5, 72, 96
9, 55636, Note_on_c, 5, 74, 0
9, 55664, Note_on_c, 5, 72, 0
9, 55664, Note_on_c, 5, 60, 0
9, 55680, Note_on_c, 5, 74, 104
9, 55680, Note_on_c, 5, 62, 90
9, 55714, Note_on_c, 5, 62, 0
9, 55722, Note_on_c, 5, 74, 0
9, 55776, Note_on_c, 5, 57, 78
9, 55776, Note_on_c, 5, 69, 94
9, 55812, Note_on_c, 5, 69, 0
9, 55818, Note_on_c, 5, 57, 0
9, 55872, Note_on_c, 5, 57, 77
9, 55872, Note_on_c, 5, 69, 97
9, 55950, Note_on_c, 5, 57, 0
9, 55988, Note_on_c, 5, 69, 0
9, 56832, Note_on_c, 5, 81, 117
9, 56832, Note_on_c, 5, 69, 109
9, 56854, Note_on_c, 5, 69, 0
9, 56856, Note_on_c, 5, 81, 0
9, 56880, Note_on_c, 5, 81, 97
9, 56880, Note_on_c, 5, 69, 87
9, 56898, Note_on_c, 5, 69, 0
9, 56902, Note_on_c, 5, 81, 0
9, 56928, Note_on_c, 5, 81, 92
9, 56928, Note_on_c, 5, 69, 87
9, 56948, Note_on_c, 5, 69, 0
9, 56948, Note_on_c, 5, 81, 0
9, 56976, Note_on_c, 5, 81, 90
9, 56976, Note_on_c, 5, 69, 96
9, 57000, Note_on_c, 5, 69, 0
9, 57008, Note_on_c, 5, 81, 0
9, 57024, Note_on_c, 5, 79, 124
9, 57024, Note_on_c, 5, 67, 70
9, 57046, Note_on_c, 5, 67, 0
9, 57054, Note_on_c, 5, 79, 0
9, 57120, Note_on_c, 5, 79, 99
9, 57120, Note_on_c, 5, 67, 90
9, 57138, Note_on_c, 5, 67, 0
9, 57142, Note_on_c, 5, 79, 0
9, 57168, Note_on_c, 5, 67, 78
9, 57168, Note_on_c, 5, 79, 104
9, 57200, Note_on_c, 5, 79, 0
9, 57200, Note_on_c, 5, 67, 0
9, 57216, Note_on_c, 5, 76, 112
9, 57216, Note_on_c, 5, 64, 66
9, 57240, Note_on_c, 5, 76, 0
9, 57246, Note_on_c, 5, 64, 0
9, 57312, Note_on_c, 5, 76, 90
9, 57312, Note_on_c, 5, 64, 74
9, 57342, Note_on_c, 5, 76, 0
9, 57350, Note_on_c, 5, 64, 0
9, 57408, Note_on_c, 5, 79, 102
9, 57408, Note_on_c, 5, 67, 92
9, 57514, Note_on_c, 5, 67, 0
9, 57538, Note_on_c, 5, 79, 0
9, 58272, Note_on_c, 5, 77, 114
9, 58272, Note_on_c, 5, 65, 109
9, 58312, Note_on_c, 5, 77, 0
9, 58316, Note_on_c, 5, 65, 0
9, 58320, Note_on_c, 5, 76, 87
9, 58320, Note_on_c, 5, 64, 69
9, 58346, Note_on_c, 5, 64, 0
9, 58354, Note_on_c, 5, 76, 0
9, 58368, Note_on_c, 5, 77, 102
9, 58368, Note_on_c, 5, 65, 96
9, 58404, Note_on_c, 5, 65, 0
9, 58408, Note_on_c, 5, 77, 0
9, 58464, Note_on_c, 5, 76, 112
9, 58464, Note_on_c, 5, 64, 99
9, 58506, Note_on_c, 5, 64, 0
9, 58508, Note_on_c, 5, 76, 0
9, 58512, Note_on_c, 5, 74, 63
9, 58512, Note_on_c, 5, 62, 55
9, 58540, Note_on_c, 5, 62, 0
9, 58544, Note_on_c, 5, 74, 0
9, 58560, Note_on_c, 5, 64, 87
9, 58560, Note_on_c, 5, 76, 112
9, 58600, Note_on_c, 5, 64, 0
9, 58608, Note_on_c, 5, 76, 0
9, 58656, Note_on_c, 5, 74, 86
9, 58656, Note_on_c, 5, 62, 74
9, 58690, Note_on_c, 5, 74, 0
9, 58704, Note_on_c, 5, 72, 75
9, 58704, Note_on_c, 5, 60, 89
9, 58710, Note_on_c, 5, 62, 0
9, 58734, Note_on_c, 5, 60, 0
9, 58734, Note_on_c, 5, 72, 0
9, 58752, Note_on_c, 5, 74, 104
9, 58752, Note_on_c, 5, 62, 87
9, 58788, Note_on_c, 5, 62, 0
9, 58788, Note_on_c, 5, 74, 0
9, 58848, Note_on_c, 5, 69, 92
9, 58848, Note_on_c, 5, 57, 81
9, 58882, Note_on_c, 5, 57, 0
9, 58884, Note_on_c, 5, 69, 0
9, 58944, Note_on_c, 5, 69, 104
9, 58944, Note_on_c, 5, 57, 84
9, 59022, Note_on_c, 5, 57, 0
9, 59054, Note_on_c, 5, 69, 0
9, 59904, Note_on_c, 5, 81, 117
9, 59904, Note_on_c, 5, 69, 109
9, 59926, Note_on_c, 5, 69, 0
9, 59928, Note_on_c, 5, 81, 0
9, 59952, Note_on_c, 5, 81, 97
9, 59952, Note_on_c, 5, 69, 87
9, 59970, Note_on_c, 5, 69, 0
9, 59974, Note_on_c, 5, 81, 0
9, 60000, Note_on_c, 5, 81, 92
9, 60000, Note_on_c, 5, 69, 87
9, 60020, Note_on_c, 5, 69, 0
9, 60020, Note_on_c, 5, 81, 0
9, 60048, Note_on_c, 5, 81, 90
9, 60048, Note_on_c, 5, 69, 96
9, 60072, Note_on_c, 5, 69, 0
9, 60080, Note_on_c, 5, 81, 0
9, 60096, Note_on_c, 5, 79, 124
9, 60096, Note_on_c, 5, 67, 70
9, 60118, Note_on_c, 5, 67, 0
9, 60126, Note_on_c, 5, 79, 0
9, 60192, Note_on_c, 5, 79, 99
9, 60192, Note_on_c, 5, 67, 90
9, 60210, Note_on_c, 5, 67, 0
9, 60214, Note_on_c, 5, 79, 0
9, 60240, Note_on_c, 5, 67, 78
9, 60240, Note_on_c, 5, 79, 104
9, 60272, Note_on_c, 5, 79, 0
9, 60272, Note_on_c, 5, 67, 0
9, 60288, Note_on_c, 5, 76, 112
9, 60288, Note_on_c, 5, 64, 66
9, 60312, Note_on_c, 5, 76, 0
9, 60318, Note_on_c, 5, 64, 0
9, 60384, Note_on_c, 5, 76, 90
9, 60384, Note_on_c, 5, 64, 74
9, 60414, Note_on_c, 5, 76, 0
9, 60422, Note_on_c, 5, 64, 0
9, 60480, Note_on_c, 5, 79, 102
9, 60480, Note_on_c, 5, 67, 92
9, 60586, Note_on_c, 5, 67, 0
9, 60610, Note_on_c, 5, 79, 0
9, 61344, Note_on_c, 5, 77, 114
9, 61344, Note_on_c, 5, 65, 109
9, 61384, Note_on_c, 5, 77, 0
9, 61388, Note_on_c, 5, 65, 0
9, 61392, Note_on_c, 5, 76, 87
9, 61392, Note_on_c, 5, 64, 69
9, 61418, Note_on_c, 5, 64, 0
9, 61426, Note_on_c, 5, 76, 0
9, 61440, Note_on_c, 5, 77, 102
9, 61440, Note_on_c, 5, 65, 96
9, 61476, Note_on_c, 5, 65, 0
9, 61480, Note_on_c, 5, 77, 0
9, 61536, Note_on_c, 5, 76, 112
9, 61536, Note_on_c, 5, 64, 99
9, 61578, Note_on_c, 5, 64, 0
9, 61580, Note_on_c, 5, 76, 0
9, 61584, Note_on_c, 5, 74, 63
9, 61584, Note_on_c, 5, 62, 55
9, 61612, Note_on_c, 5, 62, 0
9, 61616, Note_on_c, 5, 74, 0
9, 61632, Note_on_c, 5, 64, 87
9, 61632, Note_on_c, 5, 76, 112
9, 61672, Note_on_c, 5, 64, 0
9, 61680, Note_on_c, 5, 76, 0
9, 61728, Note_on_c, 5, 74, 86
9, 61728, Note_on_c, 5, 62, 74
9, 61762, Note_on_c, 5, 74, 0
9, 61776, Note_on_c, 5, 72, 75
9, 61776, Note_on_c, 5, 60, 89
9, 61782, Note_on_c, 5, 62, 0
9, 61806, Note_on_c, 5, 60, 0
9, 61806, Note_on_c, 5, 72, 0
9, 61824, Note_on_c, 5, 74, 104
9, 61824, Note_on_c, 5, 62, 87
9, 61860, Note_on_c, 5, 62, 0
9, 61860, Note_on_c, 5, 74, 0
9, 61920, Note_on_c, 5, 69, 92
9, 61920, Note_on_c, 5, 57, 81
9, 61954, Note_on_c, 5, 57, 0
9, 61956, Note_on_c, 5, 69, 0
9, 62016, Note_on_c, 5, 69, 104
9, 62016, Note_on_c, 5, 57, 84
9, 62094, Note_on_c, 5, 57, 0
9, 62126, Note_on_c, 5, 69, 0
9, 62126, End_track
10, 0, Start_track
10, 0, MIDI_port, 0
10, 0, Title_t, "Track-7             "
10, 19968, Note_on_c, 4, 93, 117
10, 19968, Note_on_c, 4, 81, 109
10, 19990, Note_on_c, 4, 81, 0
10, 19992, Note_on_c, 4, 93, 0
10, 20016, Note_on_c, 4, 93, 97
10, 20016, Note_on_c, 4, 81, 87
10, 20034, Note_on_c, 4, 81, 0
10, 20038, Note_on_c, 4, 93, 0
10, 20064, Note_on_c, 4, 93, 92
10, 20064, Note_on_c, 4, 81, 87
10, 20084, Note_on_c, 4, 81, 0
10, 20084, Note_on_c, 4, 93, 0
10, 20112, Note_on_c, 4, 93, 90
10, 20112, Note_on_c, 4, 81, 96
10, 20136, Note_on_c, 4, 81, 0
10, 20144, Note_on_c, 4, 93, 0
10, 20160, Note_on_c, 4, 91, 124
10, 20160, Note_on_c, 4, 79, 70
10, 20182, Note_on_c, 4, 79, 0
10, 20190, Note_on_c, 4, 91, 0
10, 20256, Note_on_c, 4, 91, 99
10, 20256, Note_on_c, 4, 79, 90
10, 20274, Note_on_c, 4, 79, 0
10, 20278, Note_on_c, 4, 91, 0
10, 20304, Note_on_c, 4, 79, 78
10, 20304, Note_on_c, 4, 91, 104
10, 20336, Note_on_c, 4, 91, 0
10, 20336, Note_on_c, 4, 79, 0
10, 20352, Note_on_c, 4, 88, 112
10, 20352, Note_on_c, 4, 76, 66
10, 20376, Note_on_c, 4, 88, 0
10, 20382, Note_on_c, 4, 76, 0
10, 20448, Note_on_c, 4, 88, 90
10, 20448, Note_on_c, 4, 76, 74
10, 20478, Note_on_c, 4, 88, 0
10, 20486, Note_on_c, 4, 76, 0
10, 20544, Note_on_c, 4, 91, 102
10, 20544, Note_on_c, 4, 79, 92
10, 20650, Note_on_c, 4, 79, 0
10, 20674, Note_on_c, 4, 91, 0
10, 21408, Note_on_c, 4, 89, 114
10, 21408, Note_on_c, 4, 77, 109
10, 21448, Note_on_c, 4, 89, 0
10, 21452, Note_on_c, 4, 77, 0
10, 21456, Note_on_c, 4, 88, 87
10, 21456, Note_on_c, 4, 76, 69
10, 21482, Note_on_c, 4, 76, 0
10, 21490, Note_on_c, 4, 88, 0
10, 21504, Note_on_c, 4, 89, 102
10, 21504, Note_on_c, 4, 77, 96
10, 21540, Note_on_c, 4, 77, 0
10, 21544, Note_on_c, 4, 89, 0
10, 21600, Note_on_c, 4, 88, 112
10, 21600, Note_on_c, 4, 76, 99
10, 21642, Note_on_c, 4, 76, 0
10, 21644, Note_on_c, 4, 88, 0
10, 21648, Note_on_c, 4, 86, 63
10, 21648, Note_on_c, 4, 74, 55
10, 21676, Note_on_c, 4, 74, 0
10, 21680, Note_on_c, 4, 86, 0
10, 21696, Note_on_c, 4, 76, 87
10, 21696, Note_on_c, 4, 88, 112
10, 21736, Note_on_c, 4, 76, 0
10, 21744, Note_on_c, 4, 88, 0
10, 21792, Note_on_c, 4, 86, 86
10, 21792, Note_on_c, 4, 74, 74
10, 21826, Note_on_c, 4, 86, 0
10, 21840, Note_on_c, 4, 84, 75
10, 21840, Note_on_c, 4, 72, 89
10, 21846, Note_on_c, 4, 74, 0
10, 21870, Note_on_c, 4, 72, 0
10, 21870, Note_on_c, 4, 84, 0
10, 21888, Note_on_c, 4, 86, 104
10, 21888, Note_on_c, 4, 74, 87
10, 21924, Note_on_c, 4, 74, 0
10, 21924, Note_on_c, 4, 86, 0
10, 21984, Note_on_c, 4, 81, 92
10, 21984, Note_on_c, 4, 69, 81
10, 22018, Note_on_c, 4, 69, 0
10, 22020, Note_on_c, 4, 81, 0
10, 22080, Note_on_c, 4, 81, 104
10, 22080, Note_on_c, 4, 69, 84
10, 22158, Note_on_c, 4, 69, 0
10, 22190, Note_on_c, 4, 81, 0
10, 23040, Note_on_c, 4, 93, 117
10, 23040, Note_on_c, 4, 81, 94
10, 23064, Note_on_c, 4, 81, 0
10, 23064, Note_on_c, 4, 93, 0
10, 23088, Note_on_c, 4, 93, 86
10, 23088, Note_on_c, 4, 81, 77
10, 23110, Note_on_c, 4, 81, 0
10, 23110, Note_on_c, 4, 93, 0
10, 23136, Note_on_c, 4, 93, 87
10, 23136, Note_on_c, 4, 81, 76
10, 23156, Note_on_c, 4, 93, 0
10, 23158, Note_on_c, 4, 81, 0
10, 23184, Note_on_c, 4, 93, 102
10, 23184, Note_on_c, 4, 81, 71
10, 23212, Note_on_c, 4, 81, 0
10, 23222, Note_on_c, 4, 93, 0
10, 23232, Note_on_c, 4, 81, 43
10, 23232, Note_on_c, 4, 91, 120
10, 23232, Note_on_c, 4, 79, 92
10, 23250, Note_on_c, 4, 81, 0
10, 23264, Note_on_c, 4, 91, 0
10, 23272, Note_on_c, 4, 79, 0
10, 23328, Note_on_c, 4, 91, 104
10, 23328, Note_on_c, 4, 79, 73
10, 23350, Note_on_c, 4, 91, 0
10, 23354, Note_on_c, 4, 79, 0
10, 23376, Note_on_c, 4, 91, 90
10, 23376, Note_on_c, 4, 79, 70
10, 23402, Note_on_c, 4, 79, 0
10, 23406, Note_on_c, 4, 91, 0
10, 23424, Note_on_c, 4, 88, 93
10, 23424, Note_on_c, 4, 76, 103
10, 23454, Note_on_c, 4, 76, 0
10, 23454, Note_on_c, 4, 88, 0
10, 23520, Note_on_c, 4, 88, 103
10, 23520, Note_on_c, 4, 76, 87
10, 23552, Note_on_c, 4, 76, 0
10, 23554, Note_on_c, 4, 88, 0
10, 23616, Note_on_c, 4, 91, 104
10, 23616, Note_on_c, 4, 79, 86
10, 23714, Note_on_c, 4, 79, 0
10, 23726, Note_on_c, 4, 91, 0
10, 24480, Note_on_c, 4, 77, 99
10, 24480, Note_on_c, 4, 89, 109
10, 24518, Note_on_c, 4, 89, 0
10, 24522, Note_on_c, 4, 77, 0
10, 24528, Note_on_c, 4, 88, 96
10, 24528, Note_on_c, 4, 76, 72
10, 24558, Note_on_c, 4, 76, 0
10, 24560, Note_on_c, 4, 88, 0
10, 24576, Note_on_c, 4, 89, 104
10, 24576, Note_on_c, 4, 77, 87
10, 24606, Note_on_c, 4, 77, 0
10, 24616, Note_on_c, 4, 89, 0
10, 24672, Note_on_c, 4, 88, 107
10, 24672, Note_on_c, 4, 76, 80
10, 24716, Note_on_c, 4, 76, 0
10, 24718, Note_on_c, 4, 88, 0
10, 24720, Note_on_c, 4, 86, 70
10, 24720, Note_on_c, 4, 74, 62
10, 24748, Note_on_c, 4, 74, 0
10, 24752, Note_on_c, 4, 86, 0
10, 24768, Note_on_c, 4, 88, 112
10, 24768, Note_on_c, 4, 76, 76
10, 24796, Note_on_c, 4, 88, 0
10, 24798, Note_on_c, 4, 76, 0
10, 24864, Note_on_c, 4, 74, 82
10, 24864, Note_on_c, 4, 86, 92
10, 24908, Note_on_c, 4, 74, 0
10, 24912, Note_on_c, 4, 72, 66
10, 24912, Note_on_c, 4, 84, 96
10, 24916, Note_on_c, 4, 86, 0
10, 24944, Note_on_c, 4, 84, 0
10, 24944, Note_on_c, 4, 72, 0
10, 24960, Note_on_c, 4, 86, 104
10, 24960, Note_on_c, 4, 74, 90
10, 24994, Note_on_c, 4, 74, 0
10, 25002, Note_on_c, 4, 86, 0
10, 25056, Note_on_c, 4, 69, 78
10, 25056, Note_on_c, 4, 81, 94
10, 25092, Note_on_c, 4, 81, 0
10, 25098, Note_on_c, 4, 69, 0
10, 25152, Note_on_c, 4, 69, 77
10, 25152, Note_on_c, 4, 81, 97
10, 25230, Note_on_c, 4, 69, 0
10, 25268, Note_on_c, 4, 81, 0
10, 32256, Note_on_c, 4, 93, 117
10, 32256, Note_on_c, 4, 81, 109
10, 32278, Note_on_c, 4, 81, 0
10, 32280, Note_on_c, 4, 93, 0
10, 32304, Note_on_c, 4, 93, 97
10, 32304, Note_on_c, 4, 81, 87
10, 32322, Note_on_c, 4, 81, 0
10, 32326, Note_on_c, 4, 93, 0
10, 32352, Note_on_c, 4, 93, 92
10, 32352, Note_on_c, 4, 81, 87
10, 32372, Note_on_c, 4, 81, 0
10, 32372, Note_on_c, 4, 93, 0
10, 32400, Note_on_c, 4, 93, 90
10, 32400, Note_on_c, 4, 81, 96
10, 32424, Note_on_c, 4, 81, 0
10, 32432, Note_on_c, 4, 93, 0
10, 32448, Note_on_c, 4, 91, 124
10, 32448, Note_on_c, 4, 79, 70
10, 32470, Note_on_c, 4, 79, 0
10, 32478, Note_on_c, 4, 91, 0
10, 32544, Note_on_c, 4, 91, 99
10, 32544, Note_on_c, 4, 79, 90
10, 32562, Note_on_c, 4, 79, 0
10, 32566, Note_on_c, 4, 91, 0
10, 32592, Note_on_c, 4, 79, 78
10, 32592, Note_on_c, 4, 91, 104
10, 32624, Note_on_c, 4, 91, 0
10, 32624, Note_on_c, 4, 79, 0
10, 32640, Note_on_c, 4, 88, 112
10, 32640, Note_on_c, 4, 76, 66
10, 32664, Note_on_c, 4, 88, 0
10, 32670, Note_on_c, 4, 76, 0
10, 32736, Note_on_c, 4, 88, 90
10, 32736, Note_on_c, 4, 76, 74
10, 32766, Note_on_c, 4, 88, 0
10, 32774, Note_on_c, 4, 76, 0
10, 32832, Note_on_c, 4, 91, 102
10, 32832, Note_on_c, 4, 79, 92
10, 32938, Note_on_c, 4, 79, 0
10, 32962, Note_on_c, 4, 91, 0
10, 33696, Note_on_c, 4, 89, 114
10, 33696, Note_on_c, 4, 77, 109
10, 33736, Note_on_c, 4, 89, 0
10, 33740, Note_on_c, 4, 77, 0
10, 33744, Note_on_c, 4, 88, 87
10, 33744, Note_on_c, 4, 76, 69
10, 33770, Note_on_c, 4, 76, 0
10, 33778, Note_on_c, 4, 88, 0
10, 33792, Note_on_c, 4, 89, 102
10, 33792, Note_on_c, 4, 77, 96
10, 33828, Note_on_c, 4, 77, 0
10, 33832, Note_on_c, 4, 89, 0
10, 33888, Note_on_c, 4, 88, 112
10, 33888, Note_on_c, 4, 76, 99
10, 33930, Note_on_c, 4, 76, 0
10, 33932, Note_on_c, 4, 88, 0
10, 33936, Note_on_c, 4, 86, 63
10, 33936, Note_on_c, 4, 74, 55
10, 33964, Note_on_c, 4, 74, 0
10, 33968, Note_on_c, 4, 86, 0
10, 33984, Note_on_c, 4, 76, 87
10, 33984, Note_on_c, 4, 88, 112
10, 34024, Note_on_c, 4, 76, 0
10, 34032, Note_on_c, 4, 88, 0
10, 34080, Note_on_c, 4, 86, 86
10, 34080, Note_on_c, 4, 74, 74
10, 34114, Note_on_c, 4, 86, 0
10, 34128, Note_on_c, 4, 84, 75
10, 34128, Note_on_c, 4, 72, 89
10, 34134, Note_on_c, 4, 74, 0
10, 34158, Note_on_c, 4, 72, 0
10, 34158, Note_on_c, 4, 84, 0
10, 34176, Note_on_c, 4, 86, 104
10, 34176, Note_on_c, 4, 74, 87
10, 34212, Note_on_c, 4, 74, 0
10, 34212, Note_on_c, 4, 86, 0
10, 34272, Note_on_c, 4, 81, 92
10, 34272, Note_on_c, 4, 69, 81
10, 34306, Note_on_c, 4, 69, 0
10, 34308, Note_on_c, 4, 81, 0
10, 34368, Note_on_c, 4, 81, 104
10, 34368, Note_on_c, 4, 69, 84
10, 34446, Note_on_c, 4, 69, 0
10, 34478, Note_on_c, 4, 81, 0
10, 35328, Note_on_c, 4, 93, 117
10, 35328, Note_on_c, 4, 81, 94
10, 35352, Note_on_c, 4, 81, 0
10, 35352, Note_on_c, 4, 93, 0
10, 35376, Note_on_c, 4, 93, 86
10, 35376, Note_on_c, 4, 81, 77
10, 35398, Note_on_c, 4, 81, 0
10, 35398, Note_on_c, 4, 93, 0
10, 35424, Note_on_c, 4, 93, 87
10, 35424, Note_on_c, 4, 81, 76
10, 35444, Note_on_c, 4, 93, 0
10, 35446, Note_on_c, 4, 81, 0
10, 35472, Note_on_c, 4, 93, 102
10, 35472, Note_on_c, 4, 81, 71
10, 35500, Note_on_c, 4, 81, 0
10, 35510, Note_on_c, 4, 93, 0
10, 35520, Note_on_c, 4, 81, 43
10, 35520, Note_on_c, 4, 91, 120
10, 35520, Note_on_c, 4, 79, 92
10, 35538, Note_on_c, 4, 81, 0
10, 35552, Note_on_c, 4, 91, 0
10, 35560, Note_on_c, 4, 79, 0
10, 35616, Note_on_c, 4, 91, 104
10, 35616, Note_on_c, 4, 79, 73
10, 35638, Note_on_c, 4, 91, 0
10, 35642, Note_on_c, 4, 79, 0
10, 35664, Note_on_c, 4, 91, 90
10, 35664, Note_on_c, 4, 79, 70
10, 35690, Note_on_c, 4, 79, 0
10, 35694, Note_on_c, 4, 91, 0
10, 35712, Note_on_c, 4, 88, 93
10, 35712, Note_on_c, 4, 76, 103
10, 35742, Note_on_c, 4, 76, 0
10, 35742, Note_on_c, 4, 88, 0
10, 35808, Note_on_c, 4, 88, 103
10, 35808, Note_on_c, 4, 76, 87
10, 35840, Note_on_c, 4, 76, 0
10, 35842, Note_on_c, 4, 88, 0
10, 35904, Note_on_c, 4, 91, 104
10, 35904, Note_on_c, 4, 79, 86
10, 36002, Note_on_c, 4, 79, 0
10, 36014, Note_on_c, 4, 91, 0
10, 36768, Note_on_c, 4, 77, 99
10, 36768, Note_on_c, 4, 89, 109
10, 36806, Note_on_c, 4, 89, 0
10, 36810, Note_on_c, 4, 77, 0
10, 36816, Note_on_c, 4, 88, 96
10, 36816, Note_on_c, 4, 76, 72
10, 36846, Note_on_c, 4, 76, 0
10, 36848, Note_on_c, 4, 88, 0
10, 36864, Note_on_c, 4, 89, 104
10, 36864, Note_on_c, 4, 77, 87
10, 36894, Note_on_c, 4, 77, 0
10, 36904, Note_on_c, 4, 89, 0
10, 36960, Note_on_c, 4, 88, 107
10, 36960, Note_on_c, 4, 76, 80
10, 37004, Note_on_c, 4, 76, 0
10, 37006, Note_on_c, 4, 88, 0
10, 37008, Note_on_c, 4, 86, 70
10, 37008, Note_on_c, 4, 74, 62
10, 37036, Note_on_c, 4, 74, 0
10, 37040, Note_on_c, 4, 86, 0
10, 37056, Note_on_c, 4, 88, 112
10, 37056, Note_on_c, 4, 76, 76
10, 37084, Note_on_c, 4, 88, 0
10, 37086, Note_on_c, 4, 76, 0
10, 37152, Note_on_c, 4, 74, 82
10, 37152, Note_on_c, 4, 86, 92
10, 37196, Note_on_c, 4, 74, 0
10, 37200, Note_on_c, 4, 72, 66
10, 37200, Note_on_c, 4, 84, 96
10, 37204, Note_on_c, 4, 86, 0
10, 37232, Note_on_c, 4, 84, 0
10, 37232, Note_on_c, 4, 72, 0
10, 37248, Note_on_c, 4, 86, 104
10, 37248, Note_on_c, 4, 74, 90
10, 37282, Note_on_c, 4, 74, 0
10, 37290, Note_on_c, 4, 86, 0
10, 37344, Note_on_c, 4, 69, 78
10, 37344, Note_on_c, 4, 81, 94
10, 37380, Note_on_c, 4, 81, 0
10, 37386, Note_on_c, 4, 69, 0
10, 37440, Note_on_c, 4, 69, 77
10, 37440, Note_on_c, 4, 81, 97
10, 37518, Note_on_c, 4, 69, 0
10, 37556, Note_on_c, 4, 81, 0
10, 42912, Note_on_c, 4, 77, 109
10, 42912, Note_on_c, 4, 89, 114
10, 42954, Note_on_c, 4, 77, 0
10, 42960, Note_on_c, 4, 76, 87
10, 42960, Note_on_c, 4, 88, 103
10, 42962, Note_on_c, 4, 89, 0
10, 42996, Note_on_c, 4, 88, 0
10, 43000, Note_on_c, 4, 76, 0
10, 43008, Note_on_c, 4, 77, 84
10, 43008, Note_on_c, 4, 89, 90
10, 43046, Note_on_c, 4, 89, 0
10, 43046, Note_on_c, 4, 77, 0
10, 43104, Note_on_c, 4, 88, 103
10, 43104, Note_on_c, 4, 76, 99
10, 43146, Note_on_c, 4, 76, 0
10, 43146, Note_on_c, 4, 88, 0
10, 43152, Note_on_c, 4, 86, 67
10, 43152, Note_on_c, 4, 74, 60
10, 43188, Note_on_c, 4, 74, 0
10, 43190, Note_on_c, 4, 86, 0
10, 43200, Note_on_c, 4, 76, 66
10, 43200, Note_on_c, 4, 88, 93
10, 43242, Note_on_c, 4, 88, 0
10, 43244, Note_on_c, 4, 76, 0
10, 43248, Note_on_c, 4, 86, 78
10, 43248, Note_on_c, 4, 74, 63
10, 43278, Note_on_c, 4, 74, 0
10, 43280, Note_on_c, 4, 86, 0
10, 43296, Note_on_c, 4, 84, 78
10, 43296, Note_on_c, 4, 72, 71
10, 43328, Note_on_c, 4, 72, 0
10, 43332, Note_on_c, 4, 84, 0
10, 43344, Note_on_c, 4, 74, 94
10, 43344, Note_on_c, 4, 86, 96
10, 43408, Note_on_c, 4, 74, 0
10, 43410, Note_on_c, 4, 86, 0
10, 43440, Note_on_c, 4, 91, 106
10, 43488, Note_on_c, 4, 79, 106
10, 43580, Note_on_c, 4, 79, 0
10, 43620, Note_on_c, 4, 91, 0
10, 44544, Note_on_c, 4, 93, 117
10, 44544, Note_on_c, 4, 81, 109
10, 44566, Note_on_c, 4, 81, 0
10, 44568, Note_on_c, 4, 93, 0
10, 44592, Note_on_c, 4, 93, 97
10, 44592, Note_on_c, 4, 81, 87
10, 44610, Note_on_c, 4, 81, 0
10, 44614, Note_on_c, 4, 93, 0
10, 44640, Note_on_c, 4, 93, 92
10, 44640, Note_on_c, 4, 81, 87
10, 44660, Note_on_c, 4, 81, 0
10, 44660, Note_on_c, 4, 93, 0
10, 44688, Note_on_c, 4, 93, 90
10, 44688, Note_on_c, 4, 81, 96
10, 44712, Note_on_c, 4, 81, 0
10, 44720, Note_on_c, 4, 93, 0
10, 44736, Note_on_c, 4, 91, 124
10, 44736, Note_on_c, 4, 79, 70
10, 44758, Note_on_c, 4, 79, 0
10, 44766, Note_on_c, 4, 91, 0
10, 44832, Note_on_c, 4, 91, 99
10, 44832, Note_on_c, 4, 79, 90
10, 44850, Note_on_c, 4, 79, 0
10, 44854, Note_on_c, 4, 91, 0
10, 44880, Note_on_c, 4, 79, 78
10, 44880, Note_on_c, 4, 91, 104
10, 44912, Note_on_c, 4, 91, 0
10, 44912, Note_on_c, 4, 79, 0
10, 44928, Note_on_c, 4, 88, 112
10, 44928, Note_on_c, 4, 76, 66
10, 44952, Note_on_c, 4, 88, 0
10, 44958, Note_on_c, 4, 76, 0
10, 45024, Note_on_c, 4, 88, 90
10, 45024, Note_on_c, 4, 76, 74
10, 45054, Note_on_c, 4, 88, 0
10, 45062, Note_on_c, 4, 76, 0
10, 45120, Note_on_c, 4, 91, 102
10, 45120, Note_on_c, 4, 79, 92
10, 45226, Note_on_c, 4, 79, 0
10, 45250, Note_on_c, 4, 91, 0
10, 45984, Note_on_c, 4, 89, 114
10, 45984, Note_on_c, 4, 77, 109
10, 46024, Note_on_c, 4, 89, 0
10, 46028, Note_on_c, 4, 77, 0
10, 46032, Note_on_c, 4, 88, 87
10, 46032, Note_on_c, 4, 76, 69
10, 46058, Note_on_c, 4, 76, 0
10, 46066, Note_on_c, 4, 88, 0
10, 46080, Note_on_c, 4, 89, 102
10, 46080, Note_on_c, 4, 77, 96
10, 46116, Note_on_c, 4, 77, 0
10, 46120, Note_on_c, 4, 89, 0
10, 46176, Note_on_c, 4, 88, 112
10, 46176, Note_on_c, 4, 76, 99
10, 46218, Note_on_c, 4, 76, 0
10, 46220, Note_on_c, 4, 88, 0
10, 46224, Note_on_c, 4, 86, 63
10, 46224, Note_on_c, 4, 74, 55
10, 46252, Note_on_c, 4, 74, 0
10, 46256, Note_on_c, 4, 86, 0
10, 46272, Note_on_c, 4, 76, 87
10, 46272, Note_on_c, 4, 88, 112
10, 46312, Note_on_c, 4, 76, 0
10, 46320, Note_on_c, 4, 88, 0
10, 46368, Note_on_c, 4, 86, 86
10, 46368, Note_on_c, 4, 74, 74
10, 46402, Note_on_c, 4, 86, 0
10, 46416, Note_on_c, 4, 84, 75
10, 46416, Note_on_c, 4, 72, 89
10, 46422, Note_on_c, 4, 74, 0
10, 46446, Note_on_c, 4, 72, 0
10, 46446, Note_on_c, 4, 84, 0
10, 46464, Note_on_c, 4, 86, 104
10, 46464, Note_on_c, 4, 74, 87
10, 46500, Note_on_c, 4, 74, 0
10, 46500, Note_on_c, 4, 86, 0
10, 46560, Note_on_c, 4, 81, 92
10, 46560, Note_on_c, 4, 69, 81
10, 46594, Note_on_c, 4, 69, 0
10, 46596, Note_on_c, 4, 81, 0
10, 46656, Note_on_c, 4, 81, 104
10, 46656, Note_on_c, 4, 69, 84
10, 46734, Note_on_c, 4, 69, 0
10, 46766, Note_on_c, 4, 81, 0
10, 47616, Note_on_c, 4, 93, 117
10, 47616, Note_on_c, 4, 81, 94
10, 47640, Note_on_c, 4, 81, 0
10, 47640, Note_on_c, 4, 93, 0
10, 47664, Note_on_c, 4, 93, 86
10, 47664, Note_on_c, 4, 81, 77
10, 47686, Note_on_c, 4, 81, 0
10, 47686, Note_on_c, 4, 93, 0
10, 47712, Note_on_c, 4, 93, 87
10, 47712, Note_on_c, 4, 81, 76
10, 47732, Note_on_c, 4, 93, 0
10, 47734, Note_on_c, 4, 81, 0
10, 47760, Note_on_c, 4, 93, 102
10, 47760, Note_on_c, 4, 81, 71
10, 47788, Note_on_c, 4, 81, 0
10, 47798, Note_on_c, 4, 93, 0
10, 47808, Note_on_c, 4, 81, 43
10, 47808, Note_on_c, 4, 91, 120
10, 47808, Note_on_c, 4, 79, 92
10, 47826, Note_on_c, 4, 81, 0
10, 47840, Note_on_c, 4, 91, 0
10, 47848, Note_on_c, 4, 79, 0
10, 47904, Note_on_c, 4, 91, 104
10, 47904, Note_on_c, 4, 79, 73
10, 47926, Note_on_c, 4, 91, 0
10, 47930, Note_on_c, 4, 79, 0
10, 47952, Note_on_c, 4, 91, 90
10, 47952, Note_on_c, 4, 79, 70
10, 47978, Note_on_c, 4, 79, 0
10, 47982, Note_on_c, 4, 91, 0
10, 48000, Note_on_c, 4, 88, 93
10, 48000, Note_on_c, 4, 76, 103
10, 48030, Note_on_c, 4, 76, 0
10, 48030, Note_on_c, 4, 88, 0
10, 48096, Note_on_c, 4, 88, 103
10, 48096, Note_on_c, 4, 76, 87
10, 48128, Note_on_c, 4, 76, 0
10, 48130, Note_on_c, 4, 88, 0
10, 48192, Note_on_c, 4, 91, 104
10, 48192, Note_on_c, 4, 79, 86
10, 48290, Note_on_c, 4, 79, 0
10, 48302, Note_on_c, 4, 91, 0
10, 49056, Note_on_c, 4, 77, 99
10, 49056, Note_on_c, 4, 89, 109
10, 49094, Note_on_c, 4, 89, 0
10, 49098, Note_on_c, 4, 77, 0
10, 49104, Note_on_c, 4, 88, 96
10, 49104, Note_on_c, 4, 76, 72
10, 49134, Note_on_c, 4, 76, 0
10, 49136, Note_on_c, 4, 88, 0
10, 49152, Note_on_c, 4, 89, 104
10, 49152, Note_on_c, 4, 77, 87
10, 49182, Note_on_c, 4, 77, 0
10, 49192, Note_on_c, 4, 89, 0
10, 49248, Note_on_c, 4, 88, 107
10, 49248, Note_on_c, 4, 76, 80
10, 49292, Note_on_c, 4, 76, 0
10, 49294, Note_on_c, 4, 88, 0
10, 49296, Note_on_c, 4, 86, 70
10, 49296, Note_on_c, 4, 74, 62
10, 49324, Note_on_c, 4, 74, 0
10, 49328, Note_on_c, 4, 86, 0
10, 49344, Note_on_c, 4, 88, 112
10, 49344, Note_on_c, 4, 76, 76
10, 49372, Note_on_c, 4, 88, 0
10, 49374, Note_on_c, 4, 76, 0
10, 49440, Note_on_c, 4, 74, 82
10, 49440, Note_on_c, 4, 86, 92
10, 49484, Note_on_c, 4, 74, 0
10, 49488, Note_on_c, 4, 72, 66
10, 49488, Note_on_c, 4, 84, 96
10, 49492, Note_on_c, 4, 86, 0
10, 49520, Note_on_c, 4, 84, 0
10, 49520, Note_on_c, 4, 72, 0
10, 49536, Note_on_c, 4, 86, 104
10, 49536, Note_on_c, 4, 74, 90
10, 49570, Note_on_c, 4, 74, 0
10, 49578, Note_on_c, 4, 86, 0
10, 49632, Note_on_c, 4, 69, 78
10, 49632, Note_on_c, 4, 81, 94
10, 49668, Note_on_c, 4, 81, 0
10, 49674, Note_on_c, 4, 69, 0
10, 49728, Note_on_c, 4, 69, 77
10, 49728, Note_on_c, 4, 81, 97
10, 49806, Note_on_c, 4, 69, 0
10, 49844, Note_on_c, 4, 81, 0
10, 50688, Note_on_c, 4, 93, 117
10, 50688, Note_on_c, 4, 81, 109
10, 50710, Note_on_c, 4, 81, 0
10, 50712, Note_on_c, 4, 93, 0
10, 50736, Note_on_c, 4, 93, 97
10, 50736, Note_on_c, 4, 81, 87
10, 50754, Note_on_c, 4, 81, 0
10, 50758, Note_on_c, 4, 93, 0
10, 50784, Note_on_c, 4, 93, 92
10, 50784, Note_on_c, 4, 81, 87
10, 50804, Note_on_c, 4, 81, 0
10, 50804, Note_on_c, 4, 93, 0
10, 50832, Note_on_c, 4, 93, 90
10, 50832, Note_on_c, 4, 81, 96
10, 50856, Note_on_c, 4, 81, 0
10, 50864, Note_on_c, 4, 93, 0
10, 50880, Note_on_c, 4, 91, 124
10, 50880, Note_on_c, 4, 79, 70
10, 50902, Note_on_c, 4, 79, 0
10, 50910, Note_on_c, 4, 91, 0
10, 50976, Note_on_c, 4, 91, 99
10, 50976, Note_on_c, 4, 79, 90
10, 50994, Note_on_c, 4, 79, 0
10, 50998, Note_on_c, 4, 91, 0
10, 51024, Note_on_c, 4, 79, 78
10, 51024, Note_on_c, 4, 91, 104
10, 51056, Note_on_c, 4, 91, 0
10, 51056, Note_on_c, 4, 79, 0
10, 51072, Note_on_c, 4, 88, 112
10, 51072, Note_on_c, 4, 76, 66
10, 51096, Note_on_c, 4, 88, 0
10, 51102, Note_on_c, 4, 76, 0
10, 51168, Note_on_c, 4, 88, 90
10, 51168, Note_on_c, 4, 76, 74
10, 51198, Note_on_c, 4, 88, 0
10, 51206, Note_on_c, 4, 76, 0
10, 51264, Note_on_c, 4, 91, 102
10, 51264, Note_on_c, 4, 79, 92
10, 51370, Note_on_c, 4, 79, 0
10, 51394, Note_on_c, 4, 91, 0
10, 52128, Note_on_c, 4, 89, 114
10, 52128, Note_on_c, 4, 77, 109
10, 52168, Note_on_c, 4, 89, 0
10, 52172, Note_on_c, 4, 77, 0
10, 52176, Note_on_c, 4, 88, 87
10, 52176, Note_on_c, 4, 76, 69
10, 52202, Note_on_c, 4, 76, 0
10, 52210, Note_on_c, 4, 88, 0
10, 52224, Note_on_c, 4, 89, 102
10, 52224, Note_on_c, 4, 77, 96
10, 52260, Note_on_c, 4, 77, 0
10, 52264, Note_on_c, 4, 89, 0
10, 52320, Note_on_c, 4, 88, 112
10, 52320, Note_on_c, 4, 76, 99
10, 52362, Note_on_c, 4, 76, 0
10, 52364, Note_on_c, 4, 88, 0
10, 52368, Note_on_c, 4, 86, 63
10, 52368, Note_on_c, 4, 74, 55
10, 52396, Note_on_c, 4, 74, 0
10, 52400, Note_on_c, 4, 86, 0
10, 52416, Note_on_c, 4, 76, 87
10, 52416, Note_on_c, 4, 88, 112
10, 52456, Note_on_c, 4, 76, 0
10, 52464, Note_on_c, 4, 88, 0
10, 52512, Note_on_c, 4, 86, 86
10, 52512, Note_on_c, 4, 74, 74
10, 52546, Note_on_c, 4, 86, 0
10, 52560, Note_on_c, 4, 84, 75
10, 52560, Note_on_c, 4, 72, 89
10, 52566, Note_on_c, 4, 74, 0
10, 52590, Note_on_c, 4, 72, 0
10, 52590, Note_on_c, 4, 84, 0
10, 52608, Note_on_c, 4, 86, 104
10, 52608, Note_on_c, 4, 74, 87
10, 52644, Note_on_c, 4, 74, 0
10, 52644, Note_on_c, 4, 86, 0
10, 52704, Note_on_c, 4, 81, 92
10, 52704, Note_on_c, 4, 69, 81
10, 52738, Note_on_c, 4, 69, 0
10, 52740, Note_on_c, 4, 81, 0
10, 52800, Note_on_c, 4, 81, 104
10, 52800, Note_on_c, 4, 69, 84
10, 52878, Note_on_c, 4, 69, 0
10, 52910, Note_on_c, 4, 81, 0
10, 53760, Note_on_c, 4, 93, 117
10, 53760, Note_on_c, 4, 81, 94
10, 53784, Note_on_c, 4, 81, 0
10, 53784, Note_on_c, 4, 93, 0
10, 53808, Note_on_c, 4, 93, 86
10, 53808, Note_on_c, 4, 81, 77
10, 53830, Note_on_c, 4, 81, 0
10, 53830, Note_on_c, 4, 93, 0
10, 53856, Note_on_c, 4, 93, 87
10, 53856, Note_on_c, 4, 81, 76
10, 53876, Note_on_c, 4, 93, 0
10, 53878, Note_on_c, 4, 81, 0
10, 53904, Note_on_c, 4, 93, 102
10, 53904, Note_on_c, 4, 81, 71
10, 53932, Note_on_c, 4, 81, 0
10, 53942, Note_on_c, 4, 93, 0
10, 53952, Note_on_c, 4, 81, 43
10, 53952, Note_on_c, 4, 91, 120
10, 53952, Note_on_c, 4, 79, 92
10, 53970, Note_on_c, 4, 81, 0
10, 53984, Note_on_c, 4, 91, 0
10, 53992, Note_on_c, 4, 79, 0
10, 54048, Note_on_c, 4, 91, 104
10, 54048, Note_on_c, 4, 79, 73
10, 54070, Note_on_c, 4, 91, 0
10, 54074, Note_on_c, 4, 79, 0
10, 54096, Note_on_c, 4, 91, 90
10, 54096, Note_on_c, 4, 79, 70
10, 54122, Note_on_c, 4, 79, 0
10, 54126, Note_on_c, 4, 91, 0
10, 54144, Note_on_c, 4, 88, 93
10, 54144, Note_on_c, 4, 76, 103
10, 54174, Note_on_c, 4, 76, 0
10, 54174, Note_on_c, 4, 88, 0
10, 54240, Note_on_c, 4, 88, 103
10, 54240, Note_on_c, 4, 76, 87
10, 54272, Note_on_c, 4, 76, 0
10, 54274, Note_on_c, 4, 88, 0
10, 54336, Note_on_c, 4, 91, 104
10, 54336, Note_on_c, 4, 79, 86
10, 54434, Note_on_c, 4, 79, 0
10, 54446, Note_on_c, 4, 91, 0
10, 55200, Note_on_c, 4, 77, 99
10, 55200, Note_on_c, 4, 89, 109
10, 55238, Note_on_c, 4, 89, 0
10, 55242, Note_on_c, 4, 77, 0
10, 55248, Note_on_c, 4, 88, 96
10, 55248, Note_on_c, 4, 76, 72
10, 55278, Note_on_c, 4, 76, 0
10, 55280, Note_on_c, 4, 88, 0
10, 55296, Note_on_c, 4, 89, 104
10, 55296, Note_on_c, 4, 77, 87
10, 55326, Note_on_c, 4, 77, 0
10, 55336, Note_on_c, 4, 89, 0
10, 55392, Note_on_c, 4, 88, 107
10, 55392, Note_on_c, 4, 76, 80
10, 55436, Note_on_c, 4, 76, 0
10, 55438, Note_on_c, 4, 88, 0
10, 55440, Note_on_c, 4, 86, 70
10, 55440, Note_on_c, 4, 74, 62
10, 55468, Note_on_c, 4, 74, 0
10, 55472, Note_on_c, 4, 86, 0
10, 55488, Note_on_c, 4, 88, 112
10, 55488, Note_on_c, 4, 76, 76
10, 55516, Note_on_c, 4, 88, 0
10, 55518, Note_on_c, 4, 76, 0
10, 55584, Note_on_c, 4, 74, 82
10, 55584, Note_on_c, 4, 86, 92
10, 55628, Note_on_c, 4, 74, 0
10, 55632, Note_on_c, 4, 72, 66
10, 55632, Note_on_c, 4, 84, 96
10, 55636, Note_on_c, 4, 86, 0
10, 55664, Note_on_c, 4, 84, 0
10, 55664, Note_on_c, 4, 72, 0
10, 55680, Note_on_c, 4, 86, 104
10, 55680, Note_on_c, 4, 74, 90
10, 55714, Note_on_c, 4, 74, 0
10, 55722, Note_on_c, 4, 86, 0
10, 55776, Note_on_c, 4, 69, 78
10, 55776, Note_on_c, 4, 81, 94
10, 55812, Note_on_c, 4, 81, 0
10, 55818, Note_on_c, 4, 69, 0
10, 55872, Note_on_c, 4, 69, 77
10, 55872, Note_on_c, 4, 81, 97
10, 55950, Note_on_c, 4, 69, 0
10, 55988, Note_on_c, 4, 81, 0
10, 56832, Note_on_c, 4, 93, 117
10, 56832, Note_on_c, 4, 81, 109
10, 56854, Note_on_c, 4, 81, 0
10, 56856, Note_on_c, 4, 93, 0
10, 56880, Note_on_c, 4, 93, 97
10, 56880, Note_on_c, 4, 81, 87
10, 56898, Note_on_c, 4, 81, 0
10, 56902, Note_on_c, 4, 93, 0
10, 56928, Note_on_c, 4, 93, 92
10, 56928, Note_on_c, 4, 81, 87
10, 56948, Note_on_c, 4, 81, 0
10, 56948, Note_on_c, 4, 93, 0
10, 56976, Note_on_c, 4, 93, 90
10, 56976, Note_on_c, 4, 81, 96
10, 57000, Note_on_c, 4, 81, 0
10, 57008, Note_on_c, 4, 93, 0
10, 57024, Note_on_c, 4, 91, 124
10, 57024, Note_on_c, 4, 79, 70
10, 57046, Note_on_c, 4, 79, 0
10, 57054, Note_on_c, 4, 91, 0
10, 57120, Note_on_c, 4, 91, 99
10, 57120, Note_on_c, 4, 79, 90
10, 57138, Note_on_c, 4, 79, 0
10, 57142, Note_on_c, 4, 91, 0
10, 57168, Note_on_c, 4, 79, 78
10, 57168, Note_on_c, 4, 91, 104
10, 57200, Note_on_c, 4, 91, 0
10, 57200, Note_on_c, 4, 79, 0
10, 57216, Note_on_c, 4, 88, 112
10, 57216, Note_on_c, 4, 76, 66
10, 57240, Note_on_c, 4, 88, 0
10, 57246, Note_on_c, 4, 76, 0
10, 57312, Note_on_c, 4, 88, 90
10, 57312, Note_on_c, 4, 76, 74
10, 57342, Note_on_c, 4, 88, 0
10, 57350, Note_on_c, 4, 76, 0
10, 57408, Note_on_c, 4, 91, 102
10, 57408, Note_on_c, 4, 79, 92
10, 57514, Note_on_c, 4, 79, 0
10, 57538, Note_on_c, 4, 91, 0
10, 58272, Note_on_c, 4, 89, 114
10, 58272, Note_on_c, 4, 77, 109
10, 58312, Note_on_c, 4, 89, 0
10, 58316, Note_on_c, 4, 77, 0
10, 58320, Note_on_c, 4, 88, 87
10, 58320, Note_on_c, 4, 76, 69
10, 58346, Note_on_c, 4, 76, 0
10, 58354, Note_on_c, 4, 88, 0
10, 58368, Note_on_c, 4, 89, 102
10, 58368, Note_on_c, 4, 77, 96
10, 58404, Note_on_c, 4, 77, 0
10, 58408, Note_on_c, 4, 89, 0
10, 58464, Note_on_c, 4, 88, 112
10, 58464, Note_on_c, 4, 76, 99
10, 58506, Note_on_c, 4, 76, 0
10, 58508, Note_on_c, 4, 88, 0
10, 58512, Note_on_c, 4, 86, 63
10, 58512, Note_on_c, 4, 74, 55
10, 58540, Note_on_c, 4, 74, 0
10, 58544, Note_on_c, 4, 86, 0
10, 58560, Note_on_c, 4, 76, 87
10, 58560, Note_on_c, 4, 88, 112
10, 58600, Note_on_c, 4, 76, 0
10, 58608, Note_on_c, 4, 88, 0
10, 58656, Note_on_c, 4, 86, 86
10, 58656, Note_on_c, 4, 74, 74
10, 58690, Note_on_c, 4, 86, 0
10, 58704, Note_on_c, 4, 84, 75
10, 58704, Note_on_c, 4, 72, 89
10, 58710, Note_on_c, 4, 74, 0
10, 58734, Note_on_c, 4, 72, 0
10, 58734, Note_on_c, 4, 84, 0
10, 58752, Note_on_c, 4, 86, 104
10, 58752, Note_on_c, 4, 74, 87
10, 58788, Note_on_c, 4, 74, 0
10, 58788, Note_on_c, 4, 86, 0
10, 58848, Note_on_c, 4, 81, 92
10, 58848, Note_on_c, 4, 69, 81
10, 58882, Note_on_c, 4, 69, 0
10, 58884, Note_on_c, 4, 81, 0
10, 58944, Note_on_c, 4, 81, 104
10, 58944, Note_on_c, 4, 69, 84
10, 59022, Note_on_c, 4, 69, 0
10, 59054, Note_on_c, 4, 81, 0
10, 59904, Note_on_c, 4, 93, 117
10, 59904, Note_on_c, 4, 81, 109
10, 59926, Note_on_c, 4, 81, 0
10, 59928, Note_on_c, 4, 93, 0
10, 59952, Note_on_c, 4, 93, 97
10, 59952, Note_on_c, 4, 81, 87
10, 59970, Note_on_c, 4, 81, 0
10, 59974, Note_on_c, 4, 93, 0
10, 60000, Note_on_c, 4, 93, 92
10, 60000, Note_on_c, 4, 81, 87
10, 60020, Note_on_c, 4, 81, 0
10, 60020, Note_on_c, 4, 93, 0
10, 60048, Note_on_c, 4, 93, 90
10, 60048, Note_on_c, 4, 81, 96
10, 60072, Note_on_c, 4, 81, 0
10, 60080, Note_on_c, 4, 93, 0
10, 60096, Note_on_c, 4, 91, 124
10, 60096, Note_on_c, 4, 79, 70
10, 60118, Note_on_c, 4, 79, 0
10, 60126, Note_on_c, 4, 91, 0
10, 60192, Note_on_c, 4, 91, 99
10, 60192, Note_on_c, 4, 79, 90
10, 60210, Note_on_c, 4, 79, 0
10, 60214, Note_on_c, 4, 91, 0
10, 60240, Note_on_c, 4, 79, 78
10, 60240, Note_on_c, 4, 91, 104
10, 60272, Note_on_c, 4, 91, 0
10, 60272, Note_on_c, 4, 79, 0
10, 60288, Note_on_c, 4, 88, 112
10, 60288, Note_on_c, 4, 76, 66
10, 60312, Note_on_c, 4, 88, 0
10, 60318, Note_on_c, 4, 76, 0
10, 60384, Note_on_c, 4, 88, 90
10, 60384, Note_on_c, 4, 76, 74
10, 60414, Note_on_c, 4, 88, 0
10, 60422, Note_on_c, 4, 76, 0
10, 60480, Note_on_c, 4, 91, 102
10, 60480, Note_on_c, 4, 79, 92
10, 60586, Note_on_c, 4, 79, 0
10, 60610, Note_on_c, 4, 91, 0
10, 61344, Note_on_c, 4, 89, 114
10, 61344, Note_on_c, 4, 77, 109
10, 61384, Note_on_c, 4, 89, 0
10, 61388, Note_on_c, 4, 77, 0
10, 61392, Note_on_c, 4, 88, 87
10, 61392, Note_on_c, 4, 76, 69
10, 61418, Note_on_c, 4, 76, 0
10, 61426, Note_on_c, 4, 88, 0
10, 61440, Note_on_c, 4, 89, 102
10, 61440, Note_on_c, 4, 77, 96
10, 61476, Note_on_c, 4, 77, 0
10, 61480, Note_on_c, 4, 89, 0
10, 61536, Note_on_c, 4, 88, 112
10, 61536, Note_on_c, 4, 76, 99
10, 61578, Note_on_c, 4, 76, 0
10, 61580, Note_on_c, 4, 88, 0
10, 61584, Note_on_c, 4, 86, 63
10, 61584, Note_on_c, 4, 74, 55
10, 61612, Note_on_c, 4, 74, 0
10, 61616, Note_on_c, 4, 86, 0
10, 61632, Note_on_c, 4, 76, 87
10, 61632, Note_on_c, 4, 88, 112
10, 61672, Note_on_c, 4, 76, 0
10, 61680, Note_on_c, 4, 88, 0
10, 61728, Note_on_c, 4, 86, 86
10, 61728, Note_on_c, 4, 74, 74
10, 61762, Note_on_c, 4, 86, 0
10, 61776, Note_on_c, 4, 84, 75
10, 61776, Note_on_c, 4, 72, 89
10, 61782, Note_on_c, 4, 74, 0
10, 61806, Note_on_c, 4, 72, 0
10, 61806, Note_on_c, 4, 84, 0
10, 61824, Note_on_c, 4, 86, 104
10, 61824, Note_on_c, 4, 74, 87
10, 61860, Note_on_c, 4, 74, 0
10, 61860, Note_on_c, 4, 86, 0
10, 61920, Note_on_c, 4, 81, 92
10, 61920, Note_on_c, 4, 69, 81
10, 61954, Note_on_c, 4, 69, 0
10, 61956, Note_on_c, 4, 81, 0
10, 62016, Note_on_c, 4, 81, 104
10, 62016, Note_on_c, 4, 69, 84
10, 62094, Note_on_c, 4, 69, 0
10, 62126, Note_on_c, 4, 81, 0
10, 62126, End_track
11, 0, Start_track
11, 0, MIDI_port, 0
11, 0, Title_t, "New Track           "
11, 0, End_track
12, 0, Start_track
12, 0, MIDI_port, 0
12, 0, Title_t, "Track-R             "
12, 384, Note_on_c, 9, 51, 80
12, 408, Note_on_c, 9, 51, 0
12, 1920, Note_on_c, 9, 51, 80
12, 1944, Note_on_c, 9, 51, 0
12, 3456, Note_on_c, 9, 51, 80
12, 3480, Note_on_c, 9, 51, 0
12, 4992, Note_on_c, 9, 51, 80
12, 5016, Note_on_c, 9, 51, 0
12, 6816, Note_on_c, 9, 61, 97
12, 6840, Note_on_c, 9, 61, 0
12, 6864, Note_on_c, 9, 61, 113
12, 6888, Note_on_c, 9, 61, 0
12, 6912, Note_on_c, 9, 35, 96
12, 6912, Note_on_c, 9, 42, 80
12, 6936, Note_on_c, 9, 42, 0
12, 6960, Note_on_c, 9, 35, 0
12, 6960, Note_on_c, 9, 42, 64
12, 6984, Note_on_c, 9, 42, 0
12, 7008, Note_on_c, 9, 42, 80
12, 7032, Note_on_c, 9, 42, 0
12, 7056, Note_on_c, 9, 42, 64
12, 7080, Note_on_c, 9, 42, 0
12, 7104, Note_on_c, 9, 35, 96
12, 7104, Note_on_c, 9, 38, 112
12, 7104, Note_on_c, 9, 42, 80
12, 7104, Note_on_c, 9, 46, 80
12, 7128, Note_on_c, 9, 46, 0
12, 7128, Note_on_c, 9, 42, 0
12, 7152, Note_on_c, 9, 38, 0
12, 7152, Note_on_c, 9, 35, 0
12, 7152, Note_on_c, 9, 42, 80
12, 7176, Note_on_c, 9, 42, 0
12, 7200, Note_on_c, 9, 42, 64
12, 7224, Note_on_c, 9, 42, 0
12, 7248, Note_on_c, 9, 42, 96
12, 7248, Note_on_c, 9, 46, 112
12, 7272, Note_on_c, 9, 46, 0
12, 7272, Note_on_c, 9, 42, 0
12, 7296, Note_on_c, 9, 35, 96
12, 7296, Note_on_c, 9, 42, 80
12, 7320, Note_on_c, 9, 42, 0
12, 7344, Note_on_c, 9, 35, 0
12, 7344, Note_on_c, 9, 42, 64
12, 7344, Note_on_c, 9, 46, 112
12, 7368, Note_on_c, 9, 46, 0
12, 7368, Note_on_c, 9, 42, 0
12, 7392, Note_on_c, 9, 42, 80
12, 7416, Note_on_c, 9, 42, 0
12, 7440, Note_on_c, 9, 42, 80
12, 7464, Note_on_c, 9, 42, 0
12, 7488, Note_on_c, 9, 35, 96
12, 7488, Note_on_c, 9, 38, 112
12, 7488, Note_on_c, 9, 42, 64
12, 7488, Note_on_c, 9, 46, 112
12, 7512, Note_on_c, 9, 46, 0
12, 7512, Note_on_c, 9, 42, 0
12, 7536, Note_on_c, 9, 38, 0
12, 7536, Note_on_c, 9, 35, 0
12, 7536, Note_on_c, 9, 42, 96
12, 7560, Note_on_c, 9, 42, 0
12, 7584, Note_on_c, 9, 42, 80
12, 7608, Note_on_c, 9, 42, 0
12, 7632, Note_on_c, 9, 42, 64
12, 7656, Note_on_c, 9, 42, 0
12, 7680, Note_on_c, 9, 35, 96
12, 7680, Note_on_c, 9, 42, 80
12, 7704, Note_on_c, 9, 42, 0
12, 7728, Note_on_c, 9, 35, 0
12, 7728, Note_on_c, 9, 42, 64
12, 7752, Note_on_c, 9, 42, 0
12, 7776, Note_on_c, 9, 42, 80
12, 7800, Note_on_c, 9, 42, 0
12, 7824, Note_on_c, 9, 42, 64
12, 7848, Note_on_c, 9, 42, 0
12, 7872, Note_on_c, 9, 35, 96
12, 7872, Note_on_c, 9, 38, 112
12, 7872, Note_on_c, 9, 42, 80
12, 7872, Note_on_c, 9, 46, 80
12, 7896, Note_on_c, 9, 46, 0
12, 7896, Note_on_c, 9, 42, 0
12, 7920, Note_on_c, 9, 38, 0
12, 7920, Note_on_c, 9, 35, 0
12, 7920, Note_on_c, 9, 42, 80
12, 7944, Note_on_c, 9, 42, 0
12, 7968, Note_on_c, 9, 42, 64
12, 7992, Note_on_c, 9, 42, 0
12, 8016, Note_on_c, 9, 42, 96
12, 8016, Note_on_c, 9, 46, 112
12, 8040, Note_on_c, 9, 46, 0
12, 8040, Note_on_c, 9, 42, 0
12, 8064, Note_on_c, 9, 35, 96
12, 8064, Note_on_c, 9, 42, 80
12, 8088, Note_on_c, 9, 42, 0
12, 8112, Note_on_c, 9, 35, 0
12, 8112, Note_on_c, 9, 42, 64
12, 8112, Note_on_c, 9, 46, 112
12, 8136, Note_on_c, 9, 46, 0
12, 8136, Note_on_c, 9, 42, 0
12, 8160, Note_on_c, 9, 42, 80
12, 8184, Note_on_c, 9, 42, 0
12, 8208, Note_on_c, 9, 42, 80
12, 8232, Note_on_c, 9, 42, 0
12, 8256, Note_on_c, 9, 35, 96
12, 8256, Note_on_c, 9, 38, 112
12, 8256, Note_on_c, 9, 42, 64
12, 8256, Note_on_c, 9, 46, 112
12, 8280, Note_on_c, 9, 46, 0
12, 8280, Note_on_c, 9, 42, 0
12, 8304, Note_on_c, 9, 38, 0
12, 8304, Note_on_c, 9, 35, 0
12, 8304, Note_on_c, 9, 42, 96
12, 8328, Note_on_c, 9, 42, 0
12, 8352, Note_on_c, 9, 42, 80
12, 8376, Note_on_c, 9, 42, 0
12, 8400, Note_on_c, 9, 42, 64
12, 8424, Note_on_c, 9, 42, 0
12, 8448, Note_on_c, 9, 35, 96
12, 8448, Note_on_c, 9, 42, 80
12, 8472, Note_on_c, 9, 42, 0
12, 8496, Note_on_c, 9, 35, 0
12, 8496, Note_on_c, 9, 42, 64
12, 8520, Note_on_c, 9, 42, 0
12, 8544, Note_on_c, 9, 42, 80
12, 8568, Note_on_c, 9, 42, 0
12, 8592, Note_on_c, 9, 42, 64
12, 8616, Note_on_c, 9, 42, 0
12, 8640, Note_on_c, 9, 35, 96
12, 8640, Note_on_c, 9, 38, 112
12, 8640, Note_on_c, 9, 42, 80
12, 8640, Note_on_c, 9, 46, 80
12, 8664, Note_on_c, 9, 46, 0
12, 8664, Note_on_c, 9, 42, 0
12, 8688, Note_on_c, 9, 38, 0
12, 8688, Note_on_c, 9, 35, 0
12, 8688, Note_on_c, 9, 42, 80
12, 8712, Note_on_c, 9, 42, 0
12, 8736, Note_on_c, 9, 42, 64
12, 8760, Note_on_c, 9, 42, 0
12, 8784, Note_on_c, 9, 42, 96
12, 8784, Note_on_c, 9, 46, 112
12, 8808, Note_on_c, 9, 46, 0
12, 8808, Note_on_c, 9, 42, 0
12, 8832, Note_on_c, 9, 35, 96
12, 8832, Note_on_c, 9, 42, 80
12, 8856, Note_on_c, 9, 42, 0
12, 8880, Note_on_c, 9, 35, 0
12, 8880, Note_on_c, 9, 42, 64
12, 8880, Note_on_c, 9, 46, 112
12, 8904, Note_on_c, 9, 46, 0
12, 8904, Note_on_c, 9, 42, 0
12, 8928, Note_on_c, 9, 42, 80
12, 8952, Note_on_c, 9, 42, 0
12, 8976, Note_on_c, 9, 42, 80
12, 9000, Note_on_c, 9, 42, 0
12, 9024, Note_on_c, 9, 35, 96
12, 9024, Note_on_c, 9, 38, 112
12, 9024, Note_on_c, 9, 42, 64
12, 9024, Note_on_c, 9, 46, 112
12, 9048, Note_on_c, 9, 46, 0
12, 9048, Note_on_c, 9, 42, 0
12, 9072, Note_on_c, 9, 38, 0
12, 9072, Note_on_c, 9, 35, 0
12, 9072, Note_on_c, 9, 42, 96
12, 9096, Note_on_c, 9, 42, 0
12, 9120, Note_on_c, 9, 42, 80
12, 9144, Note_on_c, 9, 42, 0
12, 9168, Note_on_c, 9, 42, 64
12, 9192, Note_on_c, 9, 42, 0
12, 9216, Note_on_c, 9, 35, 96
12, 9216, Note_on_c, 9, 42, 80
12, 9240, Note_on_c, 9, 42, 0
12, 9264, Note_on_c, 9, 35, 0
12, 9264, Note_on_c, 9, 42, 64
12, 9288, Note_on_c, 9, 42, 0
12, 9312, Note_on_c, 9, 42, 80
12, 9336, Note_on_c, 9, 42, 0
12, 9360, Note_on_c, 9, 42, 64
12, 9384, Note_on_c, 9, 42, 0
12, 9408, Note_on_c, 9, 35, 96
12, 9408, Note_on_c, 9, 38, 112
12, 9408, Note_on_c, 9, 42, 80
12, 9408, Note_on_c, 9, 46, 80
12, 9432, Note_on_c, 9, 46, 0
12, 9432, Note_on_c, 9, 42, 0
12, 9456, Note_on_c, 9, 38, 0
12, 9456, Note_on_c, 9, 35, 0
12, 9456, Note_on_c, 9, 42, 80
12, 9480, Note_on_c, 9, 42, 0
12, 9504, Note_on_c, 9, 42, 64
12, 9528, Note_on_c, 9, 42, 0
12, 9552, Note_on_c, 9, 42, 96
12, 9552, Note_on_c, 9, 46, 112
12, 9576, Note_on_c, 9, 46, 0
12, 9576, Note_on_c, 9, 42, 0
12, 9600, Note_on_c, 9, 35, 96
12, 9600, Note_on_c, 9, 42, 80
12, 9624, Note_on_c, 9, 42, 0
12, 9648, Note_on_c, 9, 35, 0
12, 9648, Note_on_c, 9, 42, 64
12, 9648, Note_on_c, 9, 46, 112
12, 9672, Note_on_c, 9, 46, 0
12, 9672, Note_on_c, 9, 42, 0
12, 9696, Note_on_c, 9, 42, 80
12, 9720, Note_on_c, 9, 42, 0
12, 9744, Note_on_c, 9, 42, 80
12, 9768, Note_on_c, 9, 42, 0
12, 9792, Note_on_c, 9, 35, 96
12, 9792, Note_on_c, 9, 38, 112
12, 9792, Note_on_c, 9, 42, 64
12, 9792, Note_on_c, 9, 46, 112
12, 9816, Note_on_c, 9, 46, 0
12, 9816, Note_on_c, 9, 42, 0
12, 9840, Note_on_c, 9, 38, 0
12, 9840, Note_on_c, 9, 35, 0
12, 9840, Note_on_c, 9, 42, 96
12, 9864, Note_on_c, 9, 42, 0
12, 9888, Note_on_c, 9, 42, 80
12, 9912, Note_on_c, 9, 42, 0
12, 9936, Note_on_c, 9, 42, 64
12, 9960, Note_on_c, 9, 42, 0
12, 9984, Note_on_c, 9, 35, 96
12, 9984, Note_on_c, 9, 42, 80
12, 10008, Note_on_c, 9, 42, 0
12, 10032, Note_on_c, 9, 35, 0
12, 10032, Note_on_c, 9, 42, 64
12, 10056, Note_on_c, 9, 42, 0
12, 10080, Note_on_c, 9, 42, 80
12, 10104, Note_on_c, 9, 42, 0
12, 10128, Note_on_c, 9, 42, 64
12, 10152, Note_on_c, 9, 42, 0
12, 10176, Note_on_c, 9, 35, 96
12, 10176, Note_on_c, 9, 38, 112
12, 10176, Note_on_c, 9, 42, 80
12, 10176, Note_on_c, 9, 46, 80
12, 10200, Note_on_c, 9, 46, 0
12, 10200, Note_on_c, 9, 42, 0
12, 10224, Note_on_c, 9, 38, 0
12, 10224, Note_on_c, 9, 35, 0
12, 10224, Note_on_c, 9, 42, 80
12, 10248, Note_on_c, 9, 42, 0
12, 10272, Note_on_c, 9, 42, 64
12, 10296, Note_on_c, 9, 42, 0
12, 10320, Note_on_c, 9, 42, 96
12, 10320, Note_on_c, 9, 46, 112
12, 10344, Note_on_c, 9, 46, 0
12, 10344, Note_on_c, 9, 42, 0
12, 10368, Note_on_c, 9, 35, 96
12, 10368, Note_on_c, 9, 42, 80
12, 10392, Note_on_c, 9, 42, 0
12, 10416, Note_on_c, 9, 35, 0
12, 10416, Note_on_c, 9, 42, 64
12, 10416, Note_on_c, 9, 46, 112
12, 10440, Note_on_c, 9, 46, 0
12, 10440, Note_on_c, 9, 42, 0
12, 10464, Note_on_c, 9, 42, 80
12, 10488, Note_on_c, 9, 42, 0
12, 10512, Note_on_c, 9, 42, 80
12, 10536, Note_on_c, 9, 42, 0
12, 10560, Note_on_c, 9, 35, 96
12, 10560, Note_on_c, 9, 38, 112
12, 10560, Note_on_c, 9, 42, 64
12, 10560, Note_on_c, 9, 46, 112
12, 10584, Note_on_c, 9, 46, 0
12, 10584, Note_on_c, 9, 42, 0
12, 10608, Note_on_c, 9, 38, 0
12, 10608, Note_on_c, 9, 35, 0
12, 10608, Note_on_c, 9, 42, 96
12, 10632, Note_on_c, 9, 42, 0
12, 10656, Note_on_c, 9, 42, 80
12, 10680, Note_on_c, 9, 42, 0
12, 10704, Note_on_c, 9, 42, 64
12, 10728, Note_on_c, 9, 42, 0
12, 10752, Note_on_c, 9, 35, 96
12, 10752, Note_on_c, 9, 42, 80
12, 10776, Note_on_c, 9, 42, 0
12, 10800, Note_on_c, 9, 35, 0
12, 10800, Note_on_c, 9, 42, 64
12, 10824, Note_on_c, 9, 42, 0
12, 10848, Note_on_c, 9, 42, 80
12, 10872, Note_on_c, 9, 42, 0
12, 10896, Note_on_c, 9, 42, 64
12, 10920, Note_on_c, 9, 42, 0
12, 10944, Note_on_c, 9, 35, 96
12, 10944, Note_on_c, 9, 38, 112
12, 10944, Note_on_c, 9, 42, 80
12, 10944, Note_on_c, 9, 46, 80
12, 10968, Note_on_c, 9, 46, 0
12, 10968, Note_on_c, 9, 42, 0
12, 10992, Note_on_c, 9, 38, 0
12, 10992, Note_on_c, 9, 35, 0
12, 10992, Note_on_c, 9, 42, 80
12, 11016, Note_on_c, 9, 42, 0
12, 11040, Note_on_c, 9, 42, 64
12, 11064, Note_on_c, 9, 42, 0
12, 11088, Note_on_c, 9, 42, 96
12, 11088, Note_on_c, 9, 46, 112
12, 11112, Note_on_c, 9, 46, 0
12, 11112, Note_on_c, 9, 42, 0
12, 11136, Note_on_c, 9, 35, 96
12, 11136, Note_on_c, 9, 42, 80
12, 11160, Note_on_c, 9, 42, 0
12, 11184, Note_on_c, 9, 35, 0
12, 11184, Note_on_c, 9, 42, 64
12, 11184, Note_on_c, 9, 46, 112
12, 11208, Note_on_c, 9, 46, 0
12, 11208, Note_on_c, 9, 42, 0
12, 11232, Note_on_c, 9, 42, 80
12, 11256, Note_on_c, 9, 42, 0
12, 11280, Note_on_c, 9, 42, 80
12, 11304, Note_on_c, 9, 42, 0
12, 11328, Note_on_c, 9, 35, 96
12, 11328, Note_on_c, 9, 38, 112
12, 11328, Note_on_c, 9, 42, 64
12, 11328, Note_on_c, 9, 46, 112
12, 11352, Note_on_c, 9, 46, 0
12, 11352, Note_on_c, 9, 42, 0
12, 11376, Note_on_c, 9, 38, 0
12, 11376, Note_on_c, 9, 35, 0
12, 11376, Note_on_c, 9, 42, 96
12, 11400, Note_on_c, 9, 42, 0
12, 11424, Note_on_c, 9, 42, 80
12, 11448, Note_on_c, 9, 42, 0
12, 11472, Note_on_c, 9, 42, 64
12, 11496, Note_on_c, 9, 42, 0
12, 11520, Note_on_c, 9, 35, 96
12, 11520, Note_on_c, 9, 42, 80
12, 11544, Note_on_c, 9, 42, 0
12, 11568, Note_on_c, 9, 35, 0
12, 11568, Note_on_c, 9, 42, 64
12, 11592, Note_on_c, 9, 42, 0
12, 11616, Note_on_c, 9, 42, 80
12, 11640, Note_on_c, 9, 42, 0
12, 11664, Note_on_c, 9, 42, 64
12, 11688, Note_on_c, 9, 42, 0
12, 11712, Note_on_c, 9, 35, 96
12, 11712, Note_on_c, 9, 38, 112
12, 11712, Note_on_c, 9, 42, 80
12, 11712, Note_on_c, 9, 46, 80
12, 11736, Note_on_c, 9, 46, 0
12, 11736, Note_on_c, 9, 42, 0
12, 11760, Note_on_c, 9, 38, 0
12, 11760, Note_on_c, 9, 35, 0
12, 11760, Note_on_c, 9, 42, 80
12, 11784, Note_on_c, 9, 42, 0
12, 11808, Note_on_c, 9, 42, 64
12, 11832, Note_on_c, 9, 42, 0
12, 11856, Note_on_c, 9, 42, 96
12, 11856, Note_on_c, 9, 46, 112
12, 11880, Note_on_c, 9, 46, 0
12, 11880, Note_on_c, 9, 42, 0
12, 11904, Note_on_c, 9, 35, 96
12, 11904, Note_on_c, 9, 42, 80
12, 11928, Note_on_c, 9, 42, 0
12, 11952, Note_on_c, 9, 35, 0
12, 11952, Note_on_c, 9, 42, 64
12, 11952, Note_on_c, 9, 46, 112
12, 11976, Note_on_c, 9, 46, 0
12, 11976, Note_on_c, 9, 42, 0
12, 12000, Note_on_c, 9, 42, 80
12, 12024, Note_on_c, 9, 42, 0
12, 12048, Note_on_c, 9, 42, 80
12, 12072, Note_on_c, 9, 42, 0
12, 12096, Note_on_c, 9, 35, 96
12, 12096, Note_on_c, 9, 38, 112
12, 12096, Note_on_c, 9, 42, 64
12, 12096, Note_on_c, 9, 46, 112
12, 12120, Note_on_c, 9, 46, 0
12, 12120, Note_on_c, 9, 42, 0
12, 12144, Note_on_c, 9, 38, 0
12, 12144, Note_on_c, 9, 35, 0
12, 12144, Note_on_c, 9, 42, 96
12, 12168, Note_on_c, 9, 42, 0
12, 12192, Note_on_c, 9, 42, 80
12, 12216, Note_on_c, 9, 42, 0
12, 12240, Note_on_c, 9, 42, 64
12, 12264, Note_on_c, 9, 42, 0
12, 12288, Note_on_c, 9, 35, 96
12, 12288, Note_on_c, 9, 42, 80
12, 12312, Note_on_c, 9, 42, 0
12, 12336, Note_on_c, 9, 35, 0
12, 12336, Note_on_c, 9, 42, 64
12, 12360, Note_on_c, 9, 42, 0
12, 12384, Note_on_c, 9, 42, 80
12, 12408, Note_on_c, 9, 42, 0
12, 12432, Note_on_c, 9, 42, 64
12, 12456, Note_on_c, 9, 42, 0
12, 12480, Note_on_c, 9, 35, 96
12, 12480, Note_on_c, 9, 38, 112
12, 12480, Note_on_c, 9, 42, 80
12, 12504, Note_on_c, 9, 42, 0
12, 12504, Note_on_c, 9, 38, 0
12, 12528, Note_on_c, 9, 35, 0
12, 12528, Note_on_c, 9, 42, 80
12, 12552, Note_on_c, 9, 42, 0
12, 12576, Note_on_c, 9, 42, 64
12, 12600, Note_on_c, 9, 42, 0
12, 12624, Note_on_c, 9, 42, 96
12, 12648, Note_on_c, 9, 42, 0
12, 12672, Note_on_c, 9, 35, 96
12, 12672, Note_on_c, 9, 42, 80
12, 12672, Note_on_c, 9, 48, 96
12, 12696, Note_on_c, 9, 48, 0
12, 12696, Note_on_c, 9, 42, 0
12, 12720, Note_on_c, 9, 35, 0
12, 12720, Note_on_c, 9, 42, 64
12, 12744, Note_on_c, 9, 42, 0
12, 12768, Note_on_c, 9, 42, 80
12, 12768, Note_on_c, 9, 45, 96
12, 12792, Note_on_c, 9, 45, 0
12, 12792, Note_on_c, 9, 42, 0
12, 12816, Note_on_c, 9, 42, 80
12, 12840, Note_on_c, 9, 42, 0
12, 12864, Note_on_c, 9, 35, 96
12, 12864, Note_on_c, 9, 38, 112
12, 12864, Note_on_c, 9, 42, 64
12, 12888, Note_on_c, 9, 42, 0
12, 12888, Note_on_c, 9, 38, 0
12, 12912, Note_on_c, 9, 35, 0
12, 12912, Note_on_c, 9, 42, 96
12, 12936, Note_on_c, 9, 42, 0
12, 12960, Note_on_c, 9, 38, 80
12, 12960, Note_on_c, 9, 42, 80
12, 12984, Note_on_c, 9, 42, 0
12, 12984, Note_on_c, 9, 38, 0
12, 13008, Note_on_c, 9, 38, 112
12, 13008, Note_on_c, 9, 42, 64
12, 13032, Note_on_c, 9, 42, 0
12, 13032, Note_on_c, 9, 38, 0
12, 13056, Note_on_c, 9, 35, 96
12, 13056, Note_on_c, 9, 42, 80
12, 13080, Note_on_c, 9, 42, 0
12, 13104, Note_on_c, 9, 35, 0
12, 13104, Note_on_c, 9, 42, 64
12, 13128, Note_on_c, 9, 42, 0
12, 13152, Note_on_c, 9, 42, 80
12, 13176, Note_on_c, 9, 42, 0
12, 13200, Note_on_c, 9, 42, 64
12, 13224, Note_on_c, 9, 42, 0
12, 13248, Note_on_c, 9, 35, 96
12, 13248, Note_on_c, 9, 38, 112
12, 13248, Note_on_c, 9, 42, 80
12, 13272, Note_on_c, 9, 42, 0
12, 13296, Note_on_c, 9, 38, 0
12, 13296, Note_on_c, 9, 35, 0
12, 13296, Note_on_c, 9, 42, 80
12, 13320, Note_on_c, 9, 42, 0
12, 13344, Note_on_c, 9, 42, 64
12, 13368, Note_on_c, 9, 42, 0
12, 13392, Note_on_c, 9, 42, 96
12, 13416, Note_on_c, 9, 42, 0
12, 13440, Note_on_c, 9, 35, 96
12, 13440, Note_on_c, 9, 42, 80
12, 13464, Note_on_c, 9, 42, 0
12, 13488, Note_on_c, 9, 35, 0
12, 13488, Note_on_c, 9, 42, 64
12, 13512, Note_on_c, 9, 42, 0
12, 13536, Note_on_c, 9, 42, 80
12, 13560, Note_on_c, 9, 42, 0
12, 13584, Note_on_c, 9, 42, 80
12, 13608, Note_on_c, 9, 42, 0
12, 13632, Note_on_c, 9, 35, 96
12, 13632, Note_on_c, 9, 38, 112
12, 13632, Note_on_c, 9, 42, 64
12, 13656, Note_on_c, 9, 42, 0
12, 13680, Note_on_c, 9, 38, 0
12, 13680, Note_on_c, 9, 35, 0
12, 13680, Note_on_c, 9, 42, 96
12, 13704, Note_on_c, 9, 42, 0
12, 13728, Note_on_c, 9, 42, 80
12, 13752, Note_on_c, 9, 42, 0
12, 13776, Note_on_c, 9, 42, 64
12, 13800, Note_on_c, 9, 42, 0
12, 13824, Note_on_c, 9, 35, 96
12, 13824, Note_on_c, 9, 42, 80
12, 13848, Note_on_c, 9, 42, 0
12, 13872, Note_on_c, 9, 35, 0
12, 13872, Note_on_c, 9, 42, 64
12, 13896, Note_on_c, 9, 42, 0
12, 13920, Note_on_c, 9, 42, 80
12, 13944, Note_on_c, 9, 42, 0
12, 13968, Note_on_c, 9, 42, 64
12, 13992, Note_on_c, 9, 42, 0
12, 14016, Note_on_c, 9, 35, 96
12, 14016, Note_on_c, 9, 38, 112
12, 14016, Note_on_c, 9, 42, 80
12, 14040, Note_on_c, 9, 42, 0
12, 14064, Note_on_c, 9, 38, 0
12, 14064, Note_on_c, 9, 35, 0
12, 14064, Note_on_c, 9, 42, 80
12, 14088, Note_on_c, 9, 42, 0
12, 14112, Note_on_c, 9, 42, 64
12, 14136, Note_on_c, 9, 42, 0
12, 14160, Note_on_c, 9, 42, 96
12, 14184, Note_on_c, 9, 42, 0
12, 14208, Note_on_c, 9, 35, 96
12, 14208, Note_on_c, 9, 42, 80
12, 14232, Note_on_c, 9, 42, 0
12, 14256, Note_on_c, 9, 35, 0
12, 14256, Note_on_c, 9, 42, 64
12, 14280, Note_on_c, 9, 42, 0
12, 14304, Note_on_c, 9, 42, 80
12, 14328, Note_on_c, 9, 42, 0
12, 14352, Note_on_c, 9, 42, 80
12, 14376, Note_on_c, 9, 42, 0
12, 14400, Note_on_c, 9, 35, 96
12, 14400, Note_on_c, 9, 38, 112
12, 14400, Note_on_c, 9, 42, 64
12, 14424, Note_on_c, 9, 42, 0
12, 14448, Note_on_c, 9, 38, 0
12, 14448, Note_on_c, 9, 35, 0
12, 14448, Note_on_c, 9, 42, 96
12, 14472, Note_on_c, 9, 42, 0
12, 14496, Note_on_c, 9, 42, 80
12, 14520, Note_on_c, 9, 42, 0
12, 14544, Note_on_c, 9, 42, 64
12, 14568, Note_on_c, 9, 42, 0
12, 14592, Note_on_c, 9, 35, 96
12, 14592, Note_on_c, 9, 42, 80
12, 14616, Note_on_c, 9, 42, 0
12, 14640, Note_on_c, 9, 35, 0
12, 14640, Note_on_c, 9, 42, 64
12, 14664, Note_on_c, 9, 42, 0
12, 14688, Note_on_c, 9, 42, 80
12, 14712, Note_on_c, 9, 42, 0
12, 14736, Note_on_c, 9, 42, 64
12, 14760, Note_on_c, 9, 42, 0
12, 14784, Note_on_c, 9, 35, 96
12, 14784, Note_on_c, 9, 38, 112
12, 14784, Note_on_c, 9, 42, 80
12, 14808, Note_on_c, 9, 42, 0
12, 14832, Note_on_c, 9, 38, 0
12, 14832, Note_on_c, 9, 35, 0
12, 14832, Note_on_c, 9, 42, 80
12, 14856, Note_on_c, 9, 42, 0
12, 14880, Note_on_c, 9, 42, 64
12, 14904, Note_on_c, 9, 42, 0
12, 14928, Note_on_c, 9, 42, 96
12, 14952, Note_on_c, 9, 42, 0
12, 14976, Note_on_c, 9, 35, 96
12, 14976, Note_on_c, 9, 42, 80
12, 15000, Note_on_c, 9, 42, 0
12, 15024, Note_on_c, 9, 35, 0
12, 15024, Note_on_c, 9, 42, 64
12, 15048, Note_on_c, 9, 42, 0
12, 15072, Note_on_c, 9, 42, 80
12, 15096, Note_on_c, 9, 42, 0
12, 15120, Note_on_c, 9, 42, 80
12, 15144, Note_on_c, 9, 42, 0
12, 15168, Note_on_c, 9, 35, 96
12, 15168, Note_on_c, 9, 38, 112
12, 15168, Note_on_c, 9, 42, 64
12, 15192, Note_on_c, 9, 42, 0
12, 15216, Note_on_c, 9, 38, 0
12, 15216, Note_on_c, 9, 35, 0
12, 15216, Note_on_c, 9, 42, 96
12, 15240, Note_on_c, 9, 42, 0
12, 15264, Note_on_c, 9, 42, 80
12, 15288, Note_on_c, 9, 42, 0
12, 15312, Note_on_c, 9, 42, 64
12, 15336, Note_on_c, 9, 42, 0
12, 15360, Note_on_c, 9, 35, 96
12, 15360, Note_on_c, 9, 42, 80
12, 15384, Note_on_c, 9, 42, 0
12, 15408, Note_on_c, 9, 35, 0
12, 15408, Note_on_c, 9, 42, 64
12, 15432, Note_on_c, 9, 42, 0
12, 15456, Note_on_c, 9, 42, 80
12, 15480, Note_on_c, 9, 42, 0
12, 15504, Note_on_c, 9, 42, 64
12, 15528, Note_on_c, 9, 42, 0
12, 15552, Note_on_c, 9, 35, 96
12, 15552, Note_on_c, 9, 38, 112
12, 15552, Note_on_c, 9, 42, 80
12, 15576, Note_on_c, 9, 42, 0
12, 15600, Note_on_c, 9, 38, 0
12, 15600, Note_on_c, 9, 35, 0
12, 15600, Note_on_c, 9, 42, 80
12, 15624, Note_on_c, 9, 42, 0
12, 15648, Note_on_c, 9, 42, 64
12, 15672, Note_on_c, 9, 42, 0
12, 15696, Note_on_c, 9, 42, 96
12, 15720, Note_on_c, 9, 42, 0
12, 15744, Note_on_c, 9, 35, 96
12, 15744, Note_on_c, 9, 42, 80
12, 15768, Note_on_c, 9, 42, 0
12, 15792, Note_on_c, 9, 35, 0
12, 15792, Note_on_c, 9, 42, 64
12, 15816, Note_on_c, 9, 42, 0
12, 15840, Note_on_c, 9, 42, 80
12, 15864, Note_on_c, 9, 42, 0
12, 15888, Note_on_c, 9, 42, 80
12, 15912, Note_on_c, 9, 42, 0
12, 15936, Note_on_c, 9, 35, 96
12, 15936, Note_on_c, 9, 38, 112
12, 15936, Note_on_c, 9, 42, 64
12, 15960, Note_on_c, 9, 42, 0
12, 15984, Note_on_c, 9, 38, 0
12, 15984, Note_on_c, 9, 35, 0
12, 15984, Note_on_c, 9, 42, 96
12, 16008, Note_on_c, 9, 42, 0
12, 16032, Note_on_c, 9, 42, 80
12, 16056, Note_on_c, 9, 42, 0
12, 16080, Note_on_c, 9, 42, 64
12, 16104, Note_on_c, 9, 42, 0
12, 16128, Note_on_c, 9, 35, 96
12, 16128, Note_on_c, 9, 42, 80
12, 16152, Note_on_c, 9, 42, 0
12, 16176, Note_on_c, 9, 35, 0
12, 16176, Note_on_c, 9, 42, 64
12, 16200, Note_on_c, 9, 42, 0
12, 16224, Note_on_c, 9, 42, 80
12, 16248, Note_on_c, 9, 42, 0
12, 16272, Note_on_c, 9, 42, 64
12, 16296, Note_on_c, 9, 42, 0
12, 16320, Note_on_c, 9, 35, 96
12, 16320, Note_on_c, 9, 38, 112
12, 16320, Note_on_c, 9, 42, 80
12, 16344, Note_on_c, 9, 42, 0
12, 16368, Note_on_c, 9, 38, 0
12, 16368, Note_on_c, 9, 35, 0
12, 16368, Note_on_c, 9, 42, 80
12, 16392, Note_on_c, 9, 42, 0
12, 16416, Note_on_c, 9, 42, 64
12, 16440, Note_on_c, 9, 42, 0
12, 16464, Note_on_c, 9, 42, 96
12, 16488, Note_on_c, 9, 42, 0
12, 16512, Note_on_c, 9, 35, 96
12, 16512, Note_on_c, 9, 42, 80
12, 16536, Note_on_c, 9, 42, 0
12, 16560, Note_on_c, 9, 35, 0
12, 16560, Note_on_c, 9, 42, 64
12, 16584, Note_on_c, 9, 42, 0
12, 16608, Note_on_c, 9, 42, 80
12, 16632, Note_on_c, 9, 42, 0
12, 16656, Note_on_c, 9, 42, 80
12, 16680, Note_on_c, 9, 42, 0
12, 16704, Note_on_c, 9, 35, 96
12, 16704, Note_on_c, 9, 38, 112
12, 16704, Note_on_c, 9, 42, 64
12, 16728, Note_on_c, 9, 42, 0
12, 16752, Note_on_c, 9, 38, 0
12, 16752, Note_on_c, 9, 35, 0
12, 16752, Note_on_c, 9, 42, 96
12, 16776, Note_on_c, 9, 42, 0
12, 16800, Note_on_c, 9, 42, 80
12, 16824, Note_on_c, 9, 42, 0
12, 16848, Note_on_c, 9, 42, 64
12, 16872, Note_on_c, 9, 42, 0
12, 16896, Note_on_c, 9, 35, 96
12, 16896, Note_on_c, 9, 42, 80
12, 16920, Note_on_c, 9, 42, 0
12, 16944, Note_on_c, 9, 35, 0
12, 16944, Note_on_c, 9, 42, 64
12, 16968, Note_on_c, 9, 42, 0
12, 16992, Note_on_c, 9, 42, 80
12, 17016, Note_on_c, 9, 42, 0
12, 17040, Note_on_c, 9, 42, 64
12, 17064, Note_on_c, 9, 42, 0
12, 17088, Note_on_c, 9, 35, 96
12, 17088, Note_on_c, 9, 38, 112
12, 17088, Note_on_c, 9, 42, 80
12, 17112, Note_on_c, 9, 42, 0
12, 17136, Note_on_c, 9, 38, 0
12, 17136, Note_on_c, 9, 35, 0
12, 17136, Note_on_c, 9, 42, 80
12, 17160, Note_on_c, 9, 42, 0
12, 17184, Note_on_c, 9, 42, 64
12, 17208, Note_on_c, 9, 42, 0
12, 17232, Note_on_c, 9, 42, 96
12, 17256, Note_on_c, 9, 42, 0
12, 17280, Note_on_c, 9, 35, 96
12, 17280, Note_on_c, 9, 42, 80
12, 17304, Note_on_c, 9, 42, 0
12, 17328, Note_on_c, 9, 35, 0
12, 17328, Note_on_c, 9, 42, 64
12, 17352, Note_on_c, 9, 42, 0
12, 17376, Note_on_c, 9, 42, 80
12, 17400, Note_on_c, 9, 42, 0
12, 17424, Note_on_c, 9, 42, 80
12, 17448, Note_on_c, 9, 42, 0
12, 17472, Note_on_c, 9, 35, 96
12, 17472, Note_on_c, 9, 38, 112
12, 17472, Note_on_c, 9, 42, 64
12, 17496, Note_on_c, 9, 42, 0
12, 17520, Note_on_c, 9, 38, 0
12, 17520, Note_on_c, 9, 35, 0
12, 17520, Note_on_c, 9, 42, 96
12, 17544, Note_on_c, 9, 42, 0
12, 17568, Note_on_c, 9, 42, 80
12, 17592, Note_on_c, 9, 42, 0
12, 17616, Note_on_c, 9, 42, 64
12, 17640, Note_on_c, 9, 42, 0
12, 17664, Note_on_c, 9, 35, 96
12, 17664, Note_on_c, 9, 42, 80
12, 17688, Note_on_c, 9, 42, 0
12, 17712, Note_on_c, 9, 35, 0
12, 17712, Note_on_c, 9, 42, 64
12, 17736, Note_on_c, 9, 42, 0
12, 17760, Note_on_c, 9, 42, 80
12, 17784, Note_on_c, 9, 42, 0
12, 17808, Note_on_c, 9, 42, 64
12, 17832, Note_on_c, 9, 42, 0
12, 17856, Note_on_c, 9, 35, 96
12, 17856, Note_on_c, 9, 38, 112
12, 17856, Note_on_c, 9, 42, 80
12, 17880, Note_on_c, 9, 42, 0
12, 17904, Note_on_c, 9, 38, 0
12, 17904, Note_on_c, 9, 35, 0
12, 17904, Note_on_c, 9, 42, 80
12, 17928, Note_on_c, 9, 42, 0
12, 17952, Note_on_c, 9, 42, 64
12, 17976, Note_on_c, 9, 42, 0
12, 18000, Note_on_c, 9, 42, 96
12, 18024, Note_on_c, 9, 42, 0
12, 18048, Note_on_c, 9, 35, 96
12, 18048, Note_on_c, 9, 42, 80
12, 18072, Note_on_c, 9, 42, 0
12, 18096, Note_on_c, 9, 35, 0
12, 18096, Note_on_c, 9, 42, 64
12, 18120, Note_on_c, 9, 42, 0
12, 18144, Note_on_c, 9, 42, 80
12, 18168, Note_on_c, 9, 42, 0
12, 18192, Note_on_c, 9, 42, 80
12, 18216, Note_on_c, 9, 42, 0
12, 18240, Note_on_c, 9, 35, 96
12, 18240, Note_on_c, 9, 38, 112
12, 18240, Note_on_c, 9, 42, 64
12, 18264, Note_on_c, 9, 42, 0
12, 18288, Note_on_c, 9, 38, 0
12, 18288, Note_on_c, 9, 35, 0
12, 18288, Note_on_c, 9, 42, 96
12, 18312, Note_on_c, 9, 42, 0
12, 18336, Note_on_c, 9, 42, 80
12, 18360, Note_on_c, 9, 42, 0
12, 18384, Note_on_c, 9, 42, 64
12, 18408, Note_on_c, 9, 42, 0
12, 18432, Note_on_c, 9, 35, 96
12, 18432, Note_on_c, 9, 42, 80
12, 18456, Note_on_c, 9, 42, 0
12, 18480, Note_on_c, 9, 35, 0
12, 18480, Note_on_c, 9, 42, 64
12, 18504, Note_on_c, 9, 42, 0
12, 18528, Note_on_c, 9, 42, 80
12, 18552, Note_on_c, 9, 42, 0
12, 18576, Note_on_c, 9, 42, 64
12, 18600, Note_on_c, 9, 42, 0
12, 18624, Note_on_c, 9, 35, 96
12, 18624, Note_on_c, 9, 38, 112
12, 18624, Note_on_c, 9, 42, 80
12, 18648, Note_on_c, 9, 42, 0
12, 18648, Note_on_c, 9, 38, 0
12, 18672, Note_on_c, 9, 35, 0
12, 18672, Note_on_c, 9, 42, 80
12, 18696, Note_on_c, 9, 42, 0
12, 18720, Note_on_c, 9, 42, 64
12, 18744, Note_on_c, 9, 42, 0
12, 18768, Note_on_c, 9, 42, 96
12, 18792, Note_on_c, 9, 42, 0
12, 18816, Note_on_c, 9, 35, 96
12, 18816, Note_on_c, 9, 42, 80
12, 18840, Note_on_c, 9, 42, 0
12, 18864, Note_on_c, 9, 35, 0
12, 18864, Note_on_c, 9, 42, 64
12, 18888, Note_on_c, 9, 42, 0
12, 18912, Note_on_c, 9, 42, 80
12, 18936, Note_on_c, 9, 42, 0
12, 18960, Note_on_c, 9, 42, 80
12, 18984, Note_on_c, 9, 42, 0
12, 19008, Note_on_c, 9, 35, 96
12, 19008, Note_on_c, 9, 38, 112
12, 19008, Note_on_c, 9, 42, 64
12, 19032, Note_on_c, 9, 42, 0
12, 19032, Note_on_c, 9, 38, 0
12, 19056, Note_on_c, 9, 35, 0
12, 19056, Note_on_c, 9, 38, 80
12, 19056, Note_on_c, 9, 42, 96
12, 19080, Note_on_c, 9, 42, 0
12, 19080, Note_on_c, 9, 38, 0
12, 19104, Note_on_c, 9, 38, 96
12, 19104, Note_on_c, 9, 42, 80
12, 19128, Note_on_c, 9, 42, 0
12, 19128, Note_on_c, 9, 38, 0
12, 19152, Note_on_c, 9, 38, 112
12, 19152, Note_on_c, 9, 42, 64
12, 19176, Note_on_c, 9, 42, 0
12, 19176, Note_on_c, 9, 38, 0
12, 19176, Note_on_c, 9, 49, 96
12, 19188, Note_on_c, 9, 49, 0
12, 19200, Note_on_c, 9, 35, 96
12, 19200, Note_on_c, 9, 42, 80
12, 19224, Note_on_c, 9, 42, 0
12, 19248, Note_on_c, 9, 35, 0
12, 19248, Note_on_c, 9, 42, 64
12, 19272, Note_on_c, 9, 42, 0
12, 19296, Note_on_c, 9, 42, 80
12, 19320, Note_on_c, 9, 42, 0
12, 19344, Note_on_c, 9, 42, 64
12, 19368, Note_on_c, 9, 42, 0
12, 19392, Note_on_c, 9, 35, 96
12, 19392, Note_on_c, 9, 38, 112
12, 19392, Note_on_c, 9, 42, 80
12, 19392, Note_on_c, 9, 46, 80
12, 19416, Note_on_c, 9, 46, 0
12, 19416, Note_on_c, 9, 42, 0
12, 19440, Note_on_c, 9, 38, 0
12, 19440, Note_on_c, 9, 35, 0
12, 19440, Note_on_c, 9, 42, 80
12, 19464, Note_on_c, 9, 42, 0
12, 19488, Note_on_c, 9, 42, 64
12, 19512, Note_on_c, 9, 42, 0
12, 19536, Note_on_c, 9, 42, 96
12, 19536, Note_on_c, 9, 46, 112
12, 19560, Note_on_c, 9, 46, 0
12, 19560, Note_on_c, 9, 42, 0
12, 19584, Note_on_c, 9, 35, 96
12, 19584, Note_on_c, 9, 42, 80
12, 19608, Note_on_c, 9, 42, 0
12, 19632, Note_on_c, 9, 35, 0
12, 19632, Note_on_c, 9, 42, 64
12, 19632, Note_on_c, 9, 46, 112
12, 19656, Note_on_c, 9, 46, 0
12, 19656, Note_on_c, 9, 42, 0
12, 19680, Note_on_c, 9, 42, 80
12, 19704, Note_on_c, 9, 42, 0
12, 19728, Note_on_c, 9, 42, 80
12, 19752, Note_on_c, 9, 42, 0
12, 19776, Note_on_c, 9, 35, 96
12, 19776, Note_on_c, 9, 38, 112
12, 19776, Note_on_c, 9, 42, 64
12, 19776, Note_on_c, 9, 46, 112
12, 19800, Note_on_c, 9, 46, 0
12, 19800, Note_on_c, 9, 42, 0
12, 19824, Note_on_c, 9, 38, 0
12, 19824, Note_on_c, 9, 35, 0
12, 19824, Note_on_c, 9, 42, 96
12, 19848, Note_on_c, 9, 42, 0
12, 19872, Note_on_c, 9, 42, 80
12, 19896, Note_on_c, 9, 42, 0
12, 19920, Note_on_c, 9, 42, 64
12, 19944, Note_on_c, 9, 42, 0
12, 19968, Note_on_c, 9, 35, 96
12, 19968, Note_on_c, 9, 42, 80
12, 19992, Note_on_c, 9, 42, 0
12, 20016, Note_on_c, 9, 35, 0
12, 20016, Note_on_c, 9, 42, 64
12, 20040, Note_on_c, 9, 42, 0
12, 20064, Note_on_c, 9, 42, 80
12, 20088, Note_on_c, 9, 42, 0
12, 20112, Note_on_c, 9, 42, 64
12, 20136, Note_on_c, 9, 42, 0
12, 20160, Note_on_c, 9, 35, 96
12, 20160, Note_on_c, 9, 38, 112
12, 20160, Note_on_c, 9, 42, 80
12, 20160, Note_on_c, 9, 46, 80
12, 20184, Note_on_c, 9, 46, 0
12, 20184, Note_on_c, 9, 42, 0
12, 20208, Note_on_c, 9, 38, 0
12, 20208, Note_on_c, 9, 35, 0
12, 20208, Note_on_c, 9, 42, 80
12, 20232, Note_on_c, 9, 42, 0
12, 20256, Note_on_c, 9, 42, 64
12, 20280, Note_on_c, 9, 42, 0
12, 20304, Note_on_c, 9, 42, 96
12, 20304, Note_on_c, 9, 46, 112
12, 20328, Note_on_c, 9, 46, 0
12, 20328, Note_on_c, 9, 42, 0
12, 20352, Note_on_c, 9, 35, 96
12, 20352, Note_on_c, 9, 42, 80
12, 20376, Note_on_c, 9, 42, 0
12, 20400, Note_on_c, 9, 35, 0
12, 20400, Note_on_c, 9, 42, 64
12, 20400, Note_on_c, 9, 46, 112
12, 20424, Note_on_c, 9, 46, 0
12, 20424, Note_on_c, 9, 42, 0
12, 20448, Note_on_c, 9, 42, 80
12, 20472, Note_on_c, 9, 42, 0
12, 20496, Note_on_c, 9, 42, 80
12, 20520, Note_on_c, 9, 42, 0
12, 20544, Note_on_c, 9, 35, 96
12, 20544, Note_on_c, 9, 38, 112
12, 20544, Note_on_c, 9, 42, 64
12, 20544, Note_on_c, 9, 46, 112
12, 20568, Note_on_c, 9, 46, 0
12, 20568, Note_on_c, 9, 42, 0
12, 20592, Note_on_c, 9, 38, 0
12, 20592, Note_on_c, 9, 35, 0
12, 20592, Note_on_c, 9, 42, 96
12, 20616, Note_on_c, 9, 42, 0
12, 20640, Note_on_c, 9, 42, 80
12, 20664, Note_on_c, 9, 42, 0
12, 20688, Note_on_c, 9, 42, 64
12, 20712, Note_on_c, 9, 42, 0
12, 20736, Note_on_c, 9, 35, 96
12, 20736, Note_on_c, 9, 42, 80
12, 20760, Note_on_c, 9, 42, 0
12, 20784, Note_on_c, 9, 35, 0
12, 20784, Note_on_c, 9, 42, 64
12, 20808, Note_on_c, 9, 42, 0
12, 20832, Note_on_c, 9, 42, 80
12, 20856, Note_on_c, 9, 42, 0
12, 20880, Note_on_c, 9, 42, 64
12, 20904, Note_on_c, 9, 42, 0
12, 20928, Note_on_c, 9, 35, 96
12, 20928, Note_on_c, 9, 38, 112
12, 20928, Note_on_c, 9, 42, 80
12, 20928, Note_on_c, 9, 46, 80
12, 20952, Note_on_c, 9, 46, 0
12, 20952, Note_on_c, 9, 42, 0
12, 20976, Note_on_c, 9, 38, 0
12, 20976, Note_on_c, 9, 35, 0
12, 20976, Note_on_c, 9, 42, 80
12, 21000, Note_on_c, 9, 42, 0
12, 21024, Note_on_c, 9, 42, 64
12, 21048, Note_on_c, 9, 42, 0
12, 21072, Note_on_c, 9, 42, 96
12, 21072, Note_on_c, 9, 46, 112
12, 21096, Note_on_c, 9, 46, 0
12, 21096, Note_on_c, 9, 42, 0
12, 21120, Note_on_c, 9, 35, 96
12, 21120, Note_on_c, 9, 42, 80
12, 21144, Note_on_c, 9, 42, 0
12, 21168, Note_on_c, 9, 35, 0
12, 21168, Note_on_c, 9, 42, 64
12, 21168, Note_on_c, 9, 46, 112
12, 21192, Note_on_c, 9, 46, 0
12, 21192, Note_on_c, 9, 42, 0
12, 21216, Note_on_c, 9, 42, 80
12, 21240, Note_on_c, 9, 42, 0
12, 21264, Note_on_c, 9, 42, 80
12, 21288, Note_on_c, 9, 42, 0
12, 21312, Note_on_c, 9, 35, 96
12, 21312, Note_on_c, 9, 38, 112
12, 21312, Note_on_c, 9, 42, 64
12, 21312, Note_on_c, 9, 46, 112
12, 21336, Note_on_c, 9, 46, 0
12, 21336, Note_on_c, 9, 42, 0
12, 21360, Note_on_c, 9, 38, 0
12, 21360, Note_on_c, 9, 35, 0
12, 21360, Note_on_c, 9, 42, 96
12, 21384, Note_on_c, 9, 42, 0
12, 21408, Note_on_c, 9, 42, 80
12, 21432, Note_on_c, 9, 42, 0
12, 21456, Note_on_c, 9, 42, 64
12, 21480, Note_on_c, 9, 42, 0
12, 21504, Note_on_c, 9, 35, 96
12, 21504, Note_on_c, 9, 42, 80
12, 21528, Note_on_c, 9, 42, 0
12, 21552, Note_on_c, 9, 35, 0
12, 21552, Note_on_c, 9, 42, 64
12, 21576, Note_on_c, 9, 42, 0
12, 21600, Note_on_c, 9, 42, 80
12, 21624, Note_on_c, 9, 42, 0
12, 21648, Note_on_c, 9, 42, 64
12, 21672, Note_on_c, 9, 42, 0
12, 21696, Note_on_c, 9, 35, 96
12, 21696, Note_on_c, 9, 38, 112
12, 21696, Note_on_c, 9, 42, 80
12, 21696, Note_on_c, 9, 46, 80
12, 21720, Note_on_c, 9, 46, 0
12, 21720, Note_on_c, 9, 42, 0
12, 21744, Note_on_c, 9, 38, 0
12, 21744, Note_on_c, 9, 35, 0
12, 21744, Note_on_c, 9, 42, 80
12, 21768, Note_on_c, 9, 42, 0
12, 21792, Note_on_c, 9, 42, 64
12, 21816, Note_on_c, 9, 42, 0
12, 21840, Note_on_c, 9, 42, 96
12, 21840, Note_on_c, 9, 46, 112
12, 21864, Note_on_c, 9, 46, 0
12, 21864, Note_on_c, 9, 42, 0
12, 21888, Note_on_c, 9, 35, 96
12, 21888, Note_on_c, 9, 42, 80
12, 21912, Note_on_c, 9, 42, 0
12, 21936, Note_on_c, 9, 35, 0
12, 21936, Note_on_c, 9, 42, 64
12, 21936, Note_on_c, 9, 46, 112
12, 21960, Note_on_c, 9, 46, 0
12, 21960, Note_on_c, 9, 42, 0
12, 21984, Note_on_c, 9, 42, 80
12, 22008, Note_on_c, 9, 42, 0
12, 22032, Note_on_c, 9, 42, 80
12, 22056, Note_on_c, 9, 42, 0
12, 22080, Note_on_c, 9, 35, 96
12, 22080, Note_on_c, 9, 38, 112
12, 22080, Note_on_c, 9, 42, 64
12, 22080, Note_on_c, 9, 46, 112
12, 22104, Note_on_c, 9, 46, 0
12, 22104, Note_on_c, 9, 42, 0
12, 22128, Note_on_c, 9, 38, 0
12, 22128, Note_on_c, 9, 35, 0
12, 22128, Note_on_c, 9, 42, 96
12, 22152, Note_on_c, 9, 42, 0
12, 22176, Note_on_c, 9, 42, 80
12, 22200, Note_on_c, 9, 42, 0
12, 22224, Note_on_c, 9, 42, 64
12, 22248, Note_on_c, 9, 42, 0
12, 22272, Note_on_c, 9, 35, 96
12, 22272, Note_on_c, 9, 42, 80
12, 22296, Note_on_c, 9, 42, 0
12, 22320, Note_on_c, 9, 35, 0
12, 22320, Note_on_c, 9, 42, 64
12, 22344, Note_on_c, 9, 42, 0
12, 22368, Note_on_c, 9, 42, 80
12, 22392, Note_on_c, 9, 42, 0
12, 22416, Note_on_c, 9, 42, 64
12, 22440, Note_on_c, 9, 42, 0
12, 22464, Note_on_c, 9, 35, 96
12, 22464, Note_on_c, 9, 38, 112
12, 22464, Note_on_c, 9, 42, 80
12, 22464, Note_on_c, 9, 46, 80
12, 22488, Note_on_c, 9, 46, 0
12, 22488, Note_on_c, 9, 42, 0
12, 22512, Note_on_c, 9, 38, 0
12, 22512, Note_on_c, 9, 35, 0
12, 22512, Note_on_c, 9, 42, 80
12, 22536, Note_on_c, 9, 42, 0
12, 22560, Note_on_c, 9, 42, 64
12, 22584, Note_on_c, 9, 42, 0
12, 22608, Note_on_c, 9, 42, 96
12, 22608, Note_on_c, 9, 46, 112
12, 22632, Note_on_c, 9, 46, 0
12, 22632, Note_on_c, 9, 42, 0
12, 22656, Note_on_c, 9, 35, 96
12, 22656, Note_on_c, 9, 42, 80
12, 22680, Note_on_c, 9, 42, 0
12, 22704, Note_on_c, 9, 35, 0
12, 22704, Note_on_c, 9, 42, 64
12, 22704, Note_on_c, 9, 46, 112
12, 22728, Note_on_c, 9, 46, 0
12, 22728, Note_on_c, 9, 42, 0
12, 22752, Note_on_c, 9, 42, 80
12, 22776, Note_on_c, 9, 42, 0
12, 22800, Note_on_c, 9, 42, 80
12, 22824, Note_on_c, 9, 42, 0
12, 22848, Note_on_c, 9, 35, 96
12, 22848, Note_on_c, 9, 38, 112
12, 22848, Note_on_c, 9, 42, 64
12, 22848, Note_on_c, 9, 46, 112
12, 22872, Note_on_c, 9, 46, 0
12, 22872, Note_on_c, 9, 42, 0
12, 22896, Note_on_c, 9, 38, 0
12, 22896, Note_on_c, 9, 35, 0
12, 22896, Note_on_c, 9, 42, 96
12, 22920, Note_on_c, 9, 42, 0
12, 22944, Note_on_c, 9, 42, 80
12, 22968, Note_on_c, 9, 42, 0
12, 22992, Note_on_c, 9, 42, 64
12, 23016, Note_on_c, 9, 42, 0
12, 23040, Note_on_c, 9, 35, 96
12, 23040, Note_on_c, 9, 42, 80
12, 23064, Note_on_c, 9, 42, 0
12, 23088, Note_on_c, 9, 35, 0
12, 23088, Note_on_c, 9, 42, 64
12, 23112, Note_on_c, 9, 42, 0
12, 23136, Note_on_c, 9, 42, 80
12, 23160, Note_on_c, 9, 42, 0
12, 23184, Note_on_c, 9, 42, 64
12, 23208, Note_on_c, 9, 42, 0
12, 23232, Note_on_c, 9, 35, 96
12, 23232, Note_on_c, 9, 38, 112
12, 23232, Note_on_c, 9, 42, 80
12, 23232, Note_on_c, 9, 46, 80
12, 23256, Note_on_c, 9, 46, 0
12, 23256, Note_on_c, 9, 42, 0
12, 23280, Note_on_c, 9, 38, 0
12, 23280, Note_on_c, 9, 35, 0
12, 23280, Note_on_c, 9, 42, 80
12, 23304, Note_on_c, 9, 42, 0
12, 23328, Note_on_c, 9, 42, 64
12, 23352, Note_on_c, 9, 42, 0
12, 23376, Note_on_c, 9, 42, 96
12, 23376, Note_on_c, 9, 46, 112
12, 23400, Note_on_c, 9, 46, 0
12, 23400, Note_on_c, 9, 42, 0
12, 23424, Note_on_c, 9, 35, 96
12, 23424, Note_on_c, 9, 42, 80
12, 23448, Note_on_c, 9, 42, 0
12, 23472, Note_on_c, 9, 35, 0
12, 23472, Note_on_c, 9, 42, 64
12, 23472, Note_on_c, 9, 46, 112
12, 23496, Note_on_c, 9, 46, 0
12, 23496, Note_on_c, 9, 42, 0
12, 23520, Note_on_c, 9, 42, 80
12, 23544, Note_on_c, 9, 42, 0
12, 23568, Note_on_c, 9, 42, 80
12, 23592, Note_on_c, 9, 42, 0
12, 23616, Note_on_c, 9, 35, 96
12, 23616, Note_on_c, 9, 38, 112
12, 23616, Note_on_c, 9, 42, 64
12, 23616, Note_on_c, 9, 46, 112
12, 23640, Note_on_c, 9, 46, 0
12, 23640, Note_on_c, 9, 42, 0
12, 23664, Note_on_c, 9, 38, 0
12, 23664, Note_on_c, 9, 35, 0
12, 23664, Note_on_c, 9, 42, 96
12, 23688, Note_on_c, 9, 42, 0
12, 23712, Note_on_c, 9, 42, 80
12, 23736, Note_on_c, 9, 42, 0
12, 23760, Note_on_c, 9, 42, 64
12, 23784, Note_on_c, 9, 42, 0
12, 23808, Note_on_c, 9, 35, 96
12, 23808, Note_on_c, 9, 42, 80
12, 23832, Note_on_c, 9, 42, 0
12, 23856, Note_on_c, 9, 35, 0
12, 23856, Note_on_c, 9, 42, 64
12, 23880, Note_on_c, 9, 42, 0
12, 23904, Note_on_c, 9, 42, 80
12, 23928, Note_on_c, 9, 42, 0
12, 23952, Note_on_c, 9, 42, 64
12, 23976, Note_on_c, 9, 42, 0
12, 24000, Note_on_c, 9, 35, 96
12, 24000, Note_on_c, 9, 38, 112
12, 24000, Note_on_c, 9, 42, 80
12, 24000, Note_on_c, 9, 46, 80
12, 24024, Note_on_c, 9, 46, 0
12, 24024, Note_on_c, 9, 42, 0
12, 24048, Note_on_c, 9, 38, 0
12, 24048, Note_on_c, 9, 35, 0
12, 24048, Note_on_c, 9, 42, 80
12, 24072, Note_on_c, 9, 42, 0
12, 24096, Note_on_c, 9, 42, 64
12, 24120, Note_on_c, 9, 42, 0
12, 24144, Note_on_c, 9, 42, 96
12, 24144, Note_on_c, 9, 46, 112
12, 24168, Note_on_c, 9, 46, 0
12, 24168, Note_on_c, 9, 42, 0
12, 24192, Note_on_c, 9, 35, 96
12, 24192, Note_on_c, 9, 42, 80
12, 24216, Note_on_c, 9, 42, 0
12, 24240, Note_on_c, 9, 35, 0
12, 24240, Note_on_c, 9, 42, 64
12, 24240, Note_on_c, 9, 46, 112
12, 24264, Note_on_c, 9, 46, 0
12, 24264, Note_on_c, 9, 42, 0
12, 24288, Note_on_c, 9, 42, 80
12, 24312, Note_on_c, 9, 42, 0
12, 24336, Note_on_c, 9, 42, 80
12, 24360, Note_on_c, 9, 42, 0
12, 24384, Note_on_c, 9, 35, 96
12, 24384, Note_on_c, 9, 38, 112
12, 24384, Note_on_c, 9, 42, 64
12, 24384, Note_on_c, 9, 46, 112
12, 24408, Note_on_c, 9, 46, 0
12, 24408, Note_on_c, 9, 42, 0
12, 24432, Note_on_c, 9, 38, 0
12, 24432, Note_on_c, 9, 35, 0
12, 24432, Note_on_c, 9, 42, 96
12, 24456, Note_on_c, 9, 42, 0
12, 24480, Note_on_c, 9, 42, 80
12, 24504, Note_on_c, 9, 42, 0
12, 24528, Note_on_c, 9, 42, 64
12, 24552, Note_on_c, 9, 42, 0
12, 24576, Note_on_c, 9, 35, 96
12, 24576, Note_on_c, 9, 42, 80
12, 24600, Note_on_c, 9, 42, 0
12, 24624, Note_on_c, 9, 35, 0
12, 24624, Note_on_c, 9, 42, 64
12, 24648, Note_on_c, 9, 42, 0
12, 24672, Note_on_c, 9, 42, 80
12, 24696, Note_on_c, 9, 42, 0
12, 24720, Note_on_c, 9, 42, 64
12, 24744, Note_on_c, 9, 42, 0
12, 24768, Note_on_c, 9, 35, 96
12, 24768, Note_on_c, 9, 38, 112
12, 24768, Note_on_c, 9, 42, 80
12, 24768, Note_on_c, 9, 46, 80
12, 24792, Note_on_c, 9, 46, 0
12, 24792, Note_on_c, 9, 42, 0
12, 24792, Note_on_c, 9, 38, 0
12, 24816, Note_on_c, 9, 35, 0
12, 24816, Note_on_c, 9, 42, 80
12, 24840, Note_on_c, 9, 42, 0
12, 24864, Note_on_c, 9, 42, 64
12, 24888, Note_on_c, 9, 42, 0
12, 24912, Note_on_c, 9, 42, 96
12, 24912, Note_on_c, 9, 46, 112
12, 24936, Note_on_c, 9, 46, 0
12, 24936, Note_on_c, 9, 42, 0
12, 24960, Note_on_c, 9, 35, 96
12, 24960, Note_on_c, 9, 42, 80
12, 24984, Note_on_c, 9, 42, 0
12, 25008, Note_on_c, 9, 35, 0
12, 25008, Note_on_c, 9, 42, 64
12, 25008, Note_on_c, 9, 46, 112
12, 25032, Note_on_c, 9, 46, 0
12, 25032, Note_on_c, 9, 42, 0
12, 25056, Note_on_c, 9, 38, 80
12, 25056, Note_on_c, 9, 42, 80
12, 25080, Note_on_c, 9, 42, 0
12, 25080, Note_on_c, 9, 38, 0
12, 25104, Note_on_c, 9, 38, 80
12, 25104, Note_on_c, 9, 42, 80
12, 25128, Note_on_c, 9, 42, 0
12, 25128, Note_on_c, 9, 38, 0
12, 25152, Note_on_c, 9, 35, 96
12, 25152, Note_on_c, 9, 38, 80
12, 25152, Note_on_c, 9, 42, 64
12, 25152, Note_on_c, 9, 46, 112
12, 25176, Note_on_c, 9, 46, 0
12, 25176, Note_on_c, 9, 42, 0
12, 25176, Note_on_c, 9, 38, 0
12, 25200, Note_on_c, 9, 35, 0
12, 25200, Note_on_c, 9, 38, 96
12, 25200, Note_on_c, 9, 42, 96
12, 25224, Note_on_c, 9, 42, 0
12, 25224, Note_on_c, 9, 38, 0
12, 25248, Note_on_c, 9, 38, 96
12, 25248, Note_on_c, 9, 42, 80
12, 25272, Note_on_c, 9, 42, 0
12, 25272, Note_on_c, 9, 38, 0
12, 25296, Note_on_c, 9, 38, 112
12, 25296, Note_on_c, 9, 42, 64
12, 25320, Note_on_c, 9, 42, 0
12, 25320, Note_on_c, 9, 38, 0
12, 25320, Note_on_c, 9, 49, 96
12, 25332, Note_on_c, 9, 49, 0
12, 25344, Note_on_c, 9, 35, 96
12, 25344, Note_on_c, 9, 42, 80
12, 25368, Note_on_c, 9, 42, 0
12, 25392, Note_on_c, 9, 35, 0
12, 25392, Note_on_c, 9, 42, 64
12, 25416, Note_on_c, 9, 42, 0
12, 25440, Note_on_c, 9, 42, 80
12, 25464, Note_on_c, 9, 42, 0
12, 25488, Note_on_c, 9, 42, 64
12, 25512, Note_on_c, 9, 42, 0
12, 25536, Note_on_c, 9, 35, 96
12, 25536, Note_on_c, 9, 38, 112
12, 25536, Note_on_c, 9, 42, 80
12, 25560, Note_on_c, 9, 42, 0
12, 25584, Note_on_c, 9, 38, 0
12, 25584, Note_on_c, 9, 35, 0
12, 25584, Note_on_c, 9, 42, 80
12, 25608, Note_on_c, 9, 42, 0
12, 25632, Note_on_c, 9, 42, 64
12, 25656, Note_on_c, 9, 42, 0
12, 25680, Note_on_c, 9, 42, 96
12, 25704, Note_on_c, 9, 42, 0
12, 25728, Note_on_c, 9, 35, 96
12, 25728, Note_on_c, 9, 42, 80
12, 25752, Note_on_c, 9, 42, 0
12, 25776, Note_on_c, 9, 35, 0
12, 25776, Note_on_c, 9, 42, 64
12, 25800, Note_on_c, 9, 42, 0
12, 25824, Note_on_c, 9, 42, 80
12, 25848, Note_on_c, 9, 42, 0
12, 25872, Note_on_c, 9, 42, 80
12, 25896, Note_on_c, 9, 42, 0
12, 25920, Note_on_c, 9, 35, 96
12, 25920, Note_on_c, 9, 38, 112
12, 25920, Note_on_c, 9, 42, 64
12, 25944, Note_on_c, 9, 42, 0
12, 25968, Note_on_c, 9, 38, 0
12, 25968, Note_on_c, 9, 35, 0
12, 25968, Note_on_c, 9, 42, 96
12, 25992, Note_on_c, 9, 42, 0
12, 26016, Note_on_c, 9, 42, 80
12, 26040, Note_on_c, 9, 42, 0
12, 26064, Note_on_c, 9, 42, 64
12, 26088, Note_on_c, 9, 42, 0
12, 26112, Note_on_c, 9, 35, 96
12, 26112, Note_on_c, 9, 42, 80
12, 26136, Note_on_c, 9, 42, 0
12, 26160, Note_on_c, 9, 35, 0
12, 26160, Note_on_c, 9, 42, 64
12, 26184, Note_on_c, 9, 42, 0
12, 26208, Note_on_c, 9, 42, 80
12, 26232, Note_on_c, 9, 42, 0
12, 26256, Note_on_c, 9, 42, 64
12, 26280, Note_on_c, 9, 42, 0
12, 26304, Note_on_c, 9, 35, 96
12, 26304, Note_on_c, 9, 38, 112
12, 26304, Note_on_c, 9, 42, 80
12, 26328, Note_on_c, 9, 42, 0
12, 26352, Note_on_c, 9, 38, 0
12, 26352, Note_on_c, 9, 35, 0
12, 26352, Note_on_c, 9, 42, 80
12, 26376, Note_on_c, 9, 42, 0
12, 26400, Note_on_c, 9, 42, 64
12, 26424, Note_on_c, 9, 42, 0
12, 26448, Note_on_c, 9, 42, 96
12, 26472, Note_on_c, 9, 42, 0
12, 26496, Note_on_c, 9, 35, 96
12, 26496, Note_on_c, 9, 42, 80
12, 26520, Note_on_c, 9, 42, 0
12, 26544, Note_on_c, 9, 35, 0
12, 26544, Note_on_c, 9, 42, 64
12, 26568, Note_on_c, 9, 42, 0
12, 26592, Note_on_c, 9, 42, 80
12, 26616, Note_on_c, 9, 42, 0
12, 26640, Note_on_c, 9, 42, 80
12, 26664, Note_on_c, 9, 42, 0
12, 26688, Note_on_c, 9, 35, 96
12, 26688, Note_on_c, 9, 38, 112
12, 26688, Note_on_c, 9, 42, 64
12, 26712, Note_on_c, 9, 42, 0
12, 26736, Note_on_c, 9, 38, 0
12, 26736, Note_on_c, 9, 35, 0
12, 26736, Note_on_c, 9, 42, 96
12, 26760, Note_on_c, 9, 42, 0
12, 26784, Note_on_c, 9, 42, 80
12, 26808, Note_on_c, 9, 42, 0
12, 26832, Note_on_c, 9, 42, 64
12, 26856, Note_on_c, 9, 42, 0
12, 26880, Note_on_c, 9, 35, 96
12, 26880, Note_on_c, 9, 42, 80
12, 26904, Note_on_c, 9, 42, 0
12, 26928, Note_on_c, 9, 35, 0
12, 26928, Note_on_c, 9, 42, 64
12, 26952, Note_on_c, 9, 42, 0
12, 26976, Note_on_c, 9, 42, 80
12, 27000, Note_on_c, 9, 42, 0
12, 27024, Note_on_c, 9, 42, 64
12, 27048, Note_on_c, 9, 42, 0
12, 27072, Note_on_c, 9, 35, 96
12, 27072, Note_on_c, 9, 38, 112
12, 27072, Note_on_c, 9, 42, 80
12, 27096, Note_on_c, 9, 42, 0
12, 27120, Note_on_c, 9, 38, 0
12, 27120, Note_on_c, 9, 35, 0
12, 27120, Note_on_c, 9, 42, 80
12, 27144, Note_on_c, 9, 42, 0
12, 27168, Note_on_c, 9, 42, 64
12, 27192, Note_on_c, 9, 42, 0
12, 27216, Note_on_c, 9, 42, 96
12, 27240, Note_on_c, 9, 42, 0
12, 27264, Note_on_c, 9, 35, 96
12, 27264, Note_on_c, 9, 42, 80
12, 27288, Note_on_c, 9, 42, 0
12, 27312, Note_on_c, 9, 35, 0
12, 27312, Note_on_c, 9, 42, 64
12, 27336, Note_on_c, 9, 42, 0
12, 27360, Note_on_c, 9, 42, 80
12, 27384, Note_on_c, 9, 42, 0
12, 27408, Note_on_c, 9, 42, 80
12, 27432, Note_on_c, 9, 42, 0
12, 27456, Note_on_c, 9, 35, 96
12, 27456, Note_on_c, 9, 38, 112
12, 27456, Note_on_c, 9, 42, 64
12, 27480, Note_on_c, 9, 42, 0
12, 27504, Note_on_c, 9, 38, 0
12, 27504, Note_on_c, 9, 35, 0
12, 27504, Note_on_c, 9, 42, 96
12, 27528, Note_on_c, 9, 42, 0
12, 27552, Note_on_c, 9, 42, 80
12, 27576, Note_on_c, 9, 42, 0
12, 27600, Note_on_c, 9, 42, 64
12, 27624, Note_on_c, 9, 42, 0
12, 27648, Note_on_c, 9, 35, 96
12, 27648, Note_on_c, 9, 42, 80
12, 27672, Note_on_c, 9, 42, 0
12, 27696, Note_on_c, 9, 35, 0
12, 27696, Note_on_c, 9, 42, 64
12, 27720, Note_on_c, 9, 42, 0
12, 27744, Note_on_c, 9, 42, 80
12, 27768, Note_on_c, 9, 42, 0
12, 27792, Note_on_c, 9, 42, 64
12, 27816, Note_on_c, 9, 42, 0
12, 27840, Note_on_c, 9, 35, 96
12, 27840, Note_on_c, 9, 38, 112
12, 27840, Note_on_c, 9, 42, 80
12, 27864, Note_on_c, 9, 42, 0
12, 27888, Note_on_c, 9, 38, 0
12, 27888, Note_on_c, 9, 35, 0
12, 27888, Note_on_c, 9, 42, 80
12, 27912, Note_on_c, 9, 42, 0
12, 27936, Note_on_c, 9, 42, 64
12, 27960, Note_on_c, 9, 42, 0
12, 27984, Note_on_c, 9, 42, 96
12, 28008, Note_on_c, 9, 42, 0
12, 28032, Note_on_c, 9, 35, 96
12, 28032, Note_on_c, 9, 42, 80
12, 28056, Note_on_c, 9, 42, 0
12, 28080, Note_on_c, 9, 35, 0
12, 28080, Note_on_c, 9, 42, 64
12, 28104, Note_on_c, 9, 42, 0
12, 28128, Note_on_c, 9, 42, 80
12, 28152, Note_on_c, 9, 42, 0
12, 28176, Note_on_c, 9, 42, 80
12, 28200, Note_on_c, 9, 42, 0
12, 28224, Note_on_c, 9, 35, 96
12, 28224, Note_on_c, 9, 38, 112
12, 28224, Note_on_c, 9, 42, 64
12, 28248, Note_on_c, 9, 42, 0
12, 28272, Note_on_c, 9, 38, 0
12, 28272, Note_on_c, 9, 35, 0
12, 28272, Note_on_c, 9, 42, 96
12, 28296, Note_on_c, 9, 42, 0
12, 28320, Note_on_c, 9, 42, 80
12, 28344, Note_on_c, 9, 42, 0
12, 28368, Note_on_c, 9, 42, 64
12, 28392, Note_on_c, 9, 42, 0
12, 28416, Note_on_c, 9, 35, 96
12, 28416, Note_on_c, 9, 42, 80
12, 28440, Note_on_c, 9, 42, 0
12, 28464, Note_on_c, 9, 35, 0
12, 28464, Note_on_c, 9, 42, 64
12, 28488, Note_on_c, 9, 42, 0
12, 28512, Note_on_c, 9, 42, 80
12, 28536, Note_on_c, 9, 42, 0
12, 28560, Note_on_c, 9, 42, 64
12, 28584, Note_on_c, 9, 42, 0
12, 28608, Note_on_c, 9, 35, 96
12, 28608, Note_on_c, 9, 38, 112
12, 28608, Note_on_c, 9, 42, 80
12, 28632, Note_on_c, 9, 42, 0
12, 28656, Note_on_c, 9, 38, 0
12, 28656, Note_on_c, 9, 35, 0
12, 28656, Note_on_c, 9, 42, 80
12, 28680, Note_on_c, 9, 42, 0
12, 28704, Note_on_c, 9, 42, 64
12, 28728, Note_on_c, 9, 42, 0
12, 28752, Note_on_c, 9, 42, 96
12, 28776, Note_on_c, 9, 42, 0
12, 28800, Note_on_c, 9, 35, 96
12, 28800, Note_on_c, 9, 42, 80
12, 28824, Note_on_c, 9, 42, 0
12, 28848, Note_on_c, 9, 35, 0
12, 28848, Note_on_c, 9, 42, 64
12, 28872, Note_on_c, 9, 42, 0
12, 28896, Note_on_c, 9, 42, 80
12, 28920, Note_on_c, 9, 42, 0
12, 28944, Note_on_c, 9, 42, 80
12, 28968, Note_on_c, 9, 42, 0
12, 28992, Note_on_c, 9, 35, 96
12, 28992, Note_on_c, 9, 38, 112
12, 28992, Note_on_c, 9, 42, 64
12, 29016, Note_on_c, 9, 42, 0
12, 29040, Note_on_c, 9, 38, 0
12, 29040, Note_on_c, 9, 35, 0
12, 29040, Note_on_c, 9, 42, 96
12, 29064, Note_on_c, 9, 42, 0
12, 29088, Note_on_c, 9, 42, 80
12, 29112, Note_on_c, 9, 42, 0
12, 29136, Note_on_c, 9, 42, 64
12, 29160, Note_on_c, 9, 42, 0
12, 29184, Note_on_c, 9, 35, 96
12, 29184, Note_on_c, 9, 42, 80
12, 29208, Note_on_c, 9, 42, 0
12, 29232, Note_on_c, 9, 35, 0
12, 29232, Note_on_c, 9, 42, 64
12, 29256, Note_on_c, 9, 42, 0
12, 29280, Note_on_c, 9, 42, 80
12, 29304, Note_on_c, 9, 42, 0
12, 29328, Note_on_c, 9, 42, 64
12, 29352, Note_on_c, 9, 42, 0
12, 29376, Note_on_c, 9, 35, 96
12, 29376, Note_on_c, 9, 38, 112
12, 29376, Note_on_c, 9, 42, 80
12, 29400, Note_on_c, 9, 42, 0
12, 29424, Note_on_c, 9, 38, 0
12, 29424, Note_on_c, 9, 35, 0
12, 29424, Note_on_c, 9, 42, 80
12, 29448, Note_on_c, 9, 42, 0
12, 29472, Note_on_c, 9, 42, 64
12, 29496, Note_on_c, 9, 42, 0
12, 29520, Note_on_c, 9, 42, 96
12, 29544, Note_on_c, 9, 42, 0
12, 29568, Note_on_c, 9, 35, 96
12, 29568, Note_on_c, 9, 42, 80
12, 29592, Note_on_c, 9, 42, 0
12, 29616, Note_on_c, 9, 35, 0
12, 29616, Note_on_c, 9, 42, 64
12, 29640, Note_on_c, 9, 42, 0
12, 29664, Note_on_c, 9, 42, 80
12, 29688, Note_on_c, 9, 42, 0
12, 29712, Note_on_c, 9, 42, 80
12, 29736, Note_on_c, 9, 42, 0
12, 29760, Note_on_c, 9, 35, 96
12, 29760, Note_on_c, 9, 38, 112
12, 29760, Note_on_c, 9, 42, 64
12, 29784, Note_on_c, 9, 42, 0
12, 29808, Note_on_c, 9, 38, 0
12, 29808, Note_on_c, 9, 35, 0
12, 29808, Note_on_c, 9, 42, 96
12, 29832, Note_on_c, 9, 42, 0
12, 29856, Note_on_c, 9, 42, 80
12, 29880, Note_on_c, 9, 42, 0
12, 29904, Note_on_c, 9, 42, 64
12, 29928, Note_on_c, 9, 42, 0
12, 29952, Note_on_c, 9, 35, 96
12, 29952, Note_on_c, 9, 42, 80
12, 29976, Note_on_c, 9, 42, 0
12, 30000, Note_on_c, 9, 35, 0
12, 30000, Note_on_c, 9, 42, 64
12, 30024, Note_on_c, 9, 42, 0
12, 30048, Note_on_c, 9, 42, 80
12, 30072, Note_on_c, 9, 42, 0
12, 30096, Note_on_c, 9, 42, 64
12, 30120, Note_on_c, 9, 42, 0
12, 30144, Note_on_c, 9, 35, 96
12, 30144, Note_on_c, 9, 38, 112
12, 30144, Note_on_c, 9, 42, 80
12, 30168, Note_on_c, 9, 42, 0
12, 30192, Note_on_c, 9, 38, 0
12, 30192, Note_on_c, 9, 35, 0
12, 30192, Note_on_c, 9, 42, 80
12, 30216, Note_on_c, 9, 42, 0
12, 30240, Note_on_c, 9, 42, 64
12, 30264, Note_on_c, 9, 42, 0
12, 30288, Note_on_c, 9, 42, 96
12, 30312, Note_on_c, 9, 42, 0
12, 30336, Note_on_c, 9, 35, 96
12, 30336, Note_on_c, 9, 42, 80
12, 30360, Note_on_c, 9, 42, 0
12, 30384, Note_on_c, 9, 35, 0
12, 30384, Note_on_c, 9, 42, 64
12, 30408, Note_on_c, 9, 42, 0
12, 30432, Note_on_c, 9, 42, 80
12, 30456, Note_on_c, 9, 42, 0
12, 30480, Note_on_c, 9, 42, 80
12, 30504, Note_on_c, 9, 42, 0
12, 30528, Note_on_c, 9, 35, 96
12, 30528, Note_on_c, 9, 38, 112
12, 30528, Note_on_c, 9, 42, 64
12, 30552, Note_on_c, 9, 42, 0
12, 30576, Note_on_c, 9, 38, 0
12, 30576, Note_on_c, 9, 35, 0
12, 30576, Note_on_c, 9, 42, 96
12, 30600, Note_on_c, 9, 42, 0
12, 30624, Note_on_c, 9, 42, 80
12, 30648, Note_on_c, 9, 42, 0
12, 30672, Note_on_c, 9, 42, 64
12, 30696, Note_on_c, 9, 42, 0
12, 30720, Note_on_c, 9, 35, 96
12, 30720, Note_on_c, 9, 38, 48
12, 30720, Note_on_c, 9, 42, 80
12, 30744, Note_on_c, 9, 42, 0
12, 30744, Note_on_c, 9, 38, 0
12, 30768, Note_on_c, 9, 35, 0
12, 30768, Note_on_c, 9, 38, 48
12, 30768, Note_on_c, 9, 42, 64
12, 30792, Note_on_c, 9, 42, 0
12, 30792, Note_on_c, 9, 38, 0
12, 30816, Note_on_c, 9, 38, 48
12, 30816, Note_on_c, 9, 42, 80
12, 30840, Note_on_c, 9, 42, 0
12, 30840, Note_on_c, 9, 38, 0
12, 30864, Note_on_c, 9, 38, 48
12, 30864, Note_on_c, 9, 42, 64
12, 30888, Note_on_c, 9, 42, 0
12, 30888, Note_on_c, 9, 38, 0
12, 30912, Note_on_c, 9, 35, 96
12, 30912, Note_on_c, 9, 38, 64
12, 30912, Note_on_c, 9, 42, 80
12, 30936, Note_on_c, 9, 42, 0
12, 30936, Note_on_c, 9, 38, 0
12, 30960, Note_on_c, 9, 35, 0
12, 30960, Note_on_c, 9, 38, 64
12, 30960, Note_on_c, 9, 42, 80
12, 30984, Note_on_c, 9, 42, 0
12, 30984, Note_on_c, 9, 38, 0
12, 31008, Note_on_c, 9, 38, 64
12, 31008, Note_on_c, 9, 42, 64
12, 31032, Note_on_c, 9, 42, 0
12, 31032, Note_on_c, 9, 38, 0
12, 31056, Note_on_c, 9, 38, 64
12, 31056, Note_on_c, 9, 42, 96
12, 31080, Note_on_c, 9, 42, 0
12, 31080, Note_on_c, 9, 38, 0
12, 31104, Note_on_c, 9, 35, 96
12, 31104, Note_on_c, 9, 38, 80
12, 31104, Note_on_c, 9, 42, 80
12, 31128, Note_on_c, 9, 42, 0
12, 31128, Note_on_c, 9, 38, 0
12, 31152, Note_on_c, 9, 35, 0
12, 31152, Note_on_c, 9, 38, 80
12, 31152, Note_on_c, 9, 42, 64
12, 31176, Note_on_c, 9, 42, 0
12, 31176, Note_on_c, 9, 38, 0
12, 31200, Note_on_c, 9, 38, 80
12, 31200, Note_on_c, 9, 42, 80
12, 31224, Note_on_c, 9, 42, 0
12, 31224, Note_on_c, 9, 38, 0
12, 31248, Note_on_c, 9, 38, 80
12, 31248, Note_on_c, 9, 42, 80
12, 31272, Note_on_c, 9, 42, 0
12, 31272, Note_on_c, 9, 38, 0
12, 31296, Note_on_c, 9, 35, 96
12, 31296, Note_on_c, 9, 38, 96
12, 31296, Note_on_c, 9, 42, 64
12, 31320, Note_on_c, 9, 42, 0
12, 31320, Note_on_c, 9, 38, 0
12, 31344, Note_on_c, 9, 35, 0
12, 31344, Note_on_c, 9, 38, 96
12, 31344, Note_on_c, 9, 42, 96
12, 31368, Note_on_c, 9, 42, 0
12, 31368, Note_on_c, 9, 38, 0
12, 31392, Note_on_c, 9, 38, 112
12, 31392, Note_on_c, 9, 42, 80
12, 31416, Note_on_c, 9, 42, 0
12, 31416, Note_on_c, 9, 38, 0
12, 31440, Note_on_c, 9, 38, 127
12, 31440, Note_on_c, 9, 42, 64
12, 31464, Note_on_c, 9, 42, 0
12, 31464, Note_on_c, 9, 38, 0
12, 31464, Note_on_c, 9, 49, 96
12, 31476, Note_on_c, 9, 49, 0
12, 31488, Note_on_c, 9, 35, 96
12, 31488, Note_on_c, 9, 42, 80
12, 31512, Note_on_c, 9, 42, 0
12, 31536, Note_on_c, 9, 35, 0
12, 31536, Note_on_c, 9, 42, 64
12, 31560, Note_on_c, 9, 42, 0
12, 31584, Note_on_c, 9, 42, 80
12, 31608, Note_on_c, 9, 42, 0
12, 31632, Note_on_c, 9, 42, 64
12, 31656, Note_on_c, 9, 42, 0
12, 31680, Note_on_c, 9, 35, 96
12, 31680, Note_on_c, 9, 38, 112
12, 31680, Note_on_c, 9, 42, 80
12, 31680, Note_on_c, 9, 46, 80
12, 31704, Note_on_c, 9, 46, 0
12, 31704, Note_on_c, 9, 42, 0
12, 31728, Note_on_c, 9, 38, 0
12, 31728, Note_on_c, 9, 35, 0
12, 31728, Note_on_c, 9, 42, 80
12, 31752, Note_on_c, 9, 42, 0
12, 31776, Note_on_c, 9, 42, 64
12, 31800, Note_on_c, 9, 42, 0
12, 31824, Note_on_c, 9, 42, 96
12, 31824, Note_on_c, 9, 46, 112
12, 31848, Note_on_c, 9, 46, 0
12, 31848, Note_on_c, 9, 42, 0
12, 31872, Note_on_c, 9, 35, 96
12, 31872, Note_on_c, 9, 42, 80
12, 31896, Note_on_c, 9, 42, 0
12, 31920, Note_on_c, 9, 35, 0
12, 31920, Note_on_c, 9, 42, 64
12, 31920, Note_on_c, 9, 46, 112
12, 31944, Note_on_c, 9, 46, 0
12, 31944, Note_on_c, 9, 42, 0
12, 31968, Note_on_c, 9, 42, 80
12, 31992, Note_on_c, 9, 42, 0
12, 32016, Note_on_c, 9, 42, 80
12, 32040, Note_on_c, 9, 42, 0
12, 32064, Note_on_c, 9, 35, 96
12, 32064, Note_on_c, 9, 38, 112
12, 32064, Note_on_c, 9, 42, 64
12, 32064, Note_on_c, 9, 46, 112
12, 32088, Note_on_c, 9, 46, 0
12, 32088, Note_on_c, 9, 42, 0
12, 32112, Note_on_c, 9, 38, 0
12, 32112, Note_on_c, 9, 35, 0
12, 32112, Note_on_c, 9, 42, 96
12, 32136, Note_on_c, 9, 42, 0
12, 32160, Note_on_c, 9, 42, 80
12, 32184, Note_on_c, 9, 42, 0
12, 32208, Note_on_c, 9, 42, 64
12, 32232, Note_on_c, 9, 42, 0
12, 32256, Note_on_c, 9, 35, 96
12, 32256, Note_on_c, 9, 42, 80
12, 32280, Note_on_c, 9, 42, 0
12, 32304, Note_on_c, 9, 35, 0
12, 32304, Note_on_c, 9, 42, 64
12, 32328, Note_on_c, 9, 42, 0
12, 32352, Note_on_c, 9, 42, 80
12, 32376, Note_on_c, 9, 42, 0
12, 32400, Note_on_c, 9, 42, 64
12, 32424, Note_on_c, 9, 42, 0
12, 32448, Note_on_c, 9, 35, 96
12, 32448, Note_on_c, 9, 38, 112
12, 32448, Note_on_c, 9, 42, 80
12, 32448, Note_on_c, 9, 46, 80
12, 32472, Note_on_c, 9, 46, 0
12, 32472, Note_on_c, 9, 42, 0
12, 32496, Note_on_c, 9, 38, 0
12, 32496, Note_on_c, 9, 35, 0
12, 32496, Note_on_c, 9, 42, 80
12, 32520, Note_on_c, 9, 42, 0
12, 32544, Note_on_c, 9, 42, 64
12, 32568, Note_on_c, 9, 42, 0
12, 32592, Note_on_c, 9, 42, 96
12, 32592, Note_on_c, 9, 46, 112
12, 32616, Note_on_c, 9, 46, 0
12, 32616, Note_on_c, 9, 42, 0
12, 32640, Note_on_c, 9, 35, 96
12, 32640, Note_on_c, 9, 42, 80
12, 32664, Note_on_c, 9, 42, 0
12, 32688, Note_on_c, 9, 35, 0
12, 32688, Note_on_c, 9, 42, 64
12, 32688, Note_on_c, 9, 46, 112
12, 32712, Note_on_c, 9, 46, 0
12, 32712, Note_on_c, 9, 42, 0
12, 32736, Note_on_c, 9, 42, 80
12, 32760, Note_on_c, 9, 42, 0
12, 32784, Note_on_c, 9, 42, 80
12, 32808, Note_on_c, 9, 42, 0
12, 32832, Note_on_c, 9, 35, 96
12, 32832, Note_on_c, 9, 38, 112
12, 32832, Note_on_c, 9, 42, 64
12, 32832, Note_on_c, 9, 46, 112
12, 32856, Note_on_c, 9, 46, 0
12, 32856, Note_on_c, 9, 42, 0
12, 32880, Note_on_c, 9, 38, 0
12, 32880, Note_on_c, 9, 35, 0
12, 32880, Note_on_c, 9, 42, 96
12, 32904, Note_on_c, 9, 42, 0
12, 32928, Note_on_c, 9, 42, 80
12, 32952, Note_on_c, 9, 42, 0
12, 32976, Note_on_c, 9, 42, 64
12, 33000, Note_on_c, 9, 42, 0
12, 33024, Note_on_c, 9, 35, 96
12, 33024, Note_on_c, 9, 42, 80
12, 33048, Note_on_c, 9, 42, 0
12, 33072, Note_on_c, 9, 35, 0
12, 33072, Note_on_c, 9, 42, 64
12, 33096, Note_on_c, 9, 42, 0
12, 33120, Note_on_c, 9, 42, 80
12, 33144, Note_on_c, 9, 42, 0
12, 33168, Note_on_c, 9, 42, 64
12, 33192, Note_on_c, 9, 42, 0
12, 33216, Note_on_c, 9, 35, 96
12, 33216, Note_on_c, 9, 38, 112
12, 33216, Note_on_c, 9, 42, 80
12, 33216, Note_on_c, 9, 46, 80
12, 33240, Note_on_c, 9, 46, 0
12, 33240, Note_on_c, 9, 42, 0
12, 33264, Note_on_c, 9, 38, 0
12, 33264, Note_on_c, 9, 35, 0
12, 33264, Note_on_c, 9, 42, 80
12, 33288, Note_on_c, 9, 42, 0
12, 33312, Note_on_c, 9, 42, 64
12, 33336, Note_on_c, 9, 42, 0
12, 33360, Note_on_c, 9, 42, 96
12, 33360, Note_on_c, 9, 46, 112
12, 33384, Note_on_c, 9, 46, 0
12, 33384, Note_on_c, 9, 42, 0
12, 33408, Note_on_c, 9, 35, 96
12, 33408, Note_on_c, 9, 42, 80
12, 33432, Note_on_c, 9, 42, 0
12, 33456, Note_on_c, 9, 35, 0
12, 33456, Note_on_c, 9, 42, 64
12, 33456, Note_on_c, 9, 46, 112
12, 33480, Note_on_c, 9, 46, 0
12, 33480, Note_on_c, 9, 42, 0
12, 33504, Note_on_c, 9, 42, 80
12, 33528, Note_on_c, 9, 42, 0
12, 33552, Note_on_c, 9, 42, 80
12, 33576, Note_on_c, 9, 42, 0
12, 33600, Note_on_c, 9, 35, 96
12, 33600, Note_on_c, 9, 38, 112
12, 33600, Note_on_c, 9, 42, 64
12, 33600, Note_on_c, 9, 46, 112
12, 33624, Note_on_c, 9, 46, 0
12, 33624, Note_on_c, 9, 42, 0
12, 33648, Note_on_c, 9, 38, 0
12, 33648, Note_on_c, 9, 35, 0
12, 33648, Note_on_c, 9, 42, 96
12, 33672, Note_on_c, 9, 42, 0
12, 33696, Note_on_c, 9, 42, 80
12, 33720, Note_on_c, 9, 42, 0
12, 33744, Note_on_c, 9, 42, 64
12, 33768, Note_on_c, 9, 42, 0
12, 33792, Note_on_c, 9, 35, 96
12, 33792, Note_on_c, 9, 42, 80
12, 33816, Note_on_c, 9, 42, 0
12, 33840, Note_on_c, 9, 35, 0
12, 33840, Note_on_c, 9, 42, 64
12, 33864, Note_on_c, 9, 42, 0
12, 33888, Note_on_c, 9, 42, 80
12, 33912, Note_on_c, 9, 42, 0
12, 33936, Note_on_c, 9, 42, 64
12, 33960, Note_on_c, 9, 42, 0
12, 33984, Note_on_c, 9, 35, 96
12, 33984, Note_on_c, 9, 38, 112
12, 33984, Note_on_c, 9, 42, 80
12, 33984, Note_on_c, 9, 46, 80
12, 34008, Note_on_c, 9, 46, 0
12, 34008, Note_on_c, 9, 42, 0
12, 34032, Note_on_c, 9, 38, 0
12, 34032, Note_on_c, 9, 35, 0
12, 34032, Note_on_c, 9, 42, 80
12, 34056, Note_on_c, 9, 42, 0
12, 34080, Note_on_c, 9, 42, 64
12, 34104, Note_on_c, 9, 42, 0
12, 34128, Note_on_c, 9, 42, 96
12, 34128, Note_on_c, 9, 46, 112
12, 34152, Note_on_c, 9, 46, 0
12, 34152, Note_on_c, 9, 42, 0
12, 34176, Note_on_c, 9, 35, 96
12, 34176, Note_on_c, 9, 42, 80
12, 34200, Note_on_c, 9, 42, 0
12, 34224, Note_on_c, 9, 35, 0
12, 34224, Note_on_c, 9, 42, 64
12, 34224, Note_on_c, 9, 46, 112
12, 34248, Note_on_c, 9, 46, 0
12, 34248, Note_on_c, 9, 42, 0
12, 34272, Note_on_c, 9, 42, 80
12, 34296, Note_on_c, 9, 42, 0
12, 34320, Note_on_c, 9, 42, 80
12, 34344, Note_on_c, 9, 42, 0
12, 34368, Note_on_c, 9, 35, 96
12, 34368, Note_on_c, 9, 38, 112
12, 34368, Note_on_c, 9, 42, 64
12, 34368, Note_on_c, 9, 46, 112
12, 34392, Note_on_c, 9, 46, 0
12, 34392, Note_on_c, 9, 42, 0
12, 34416, Note_on_c, 9, 38, 0
12, 34416, Note_on_c, 9, 35, 0
12, 34416, Note_on_c, 9, 42, 96
12, 34440, Note_on_c, 9, 42, 0
12, 34464, Note_on_c, 9, 42, 80
12, 34488, Note_on_c, 9, 42, 0
12, 34512, Note_on_c, 9, 42, 64
12, 34536, Note_on_c, 9, 42, 0
12, 34560, Note_on_c, 9, 35, 96
12, 34560, Note_on_c, 9, 42, 80
12, 34584, Note_on_c, 9, 42, 0
12, 34608, Note_on_c, 9, 35, 0
12, 34608, Note_on_c, 9, 42, 64
12, 34632, Note_on_c, 9, 42, 0
12, 34656, Note_on_c, 9, 42, 80
12, 34680, Note_on_c, 9, 42, 0
12, 34704, Note_on_c, 9, 42, 64
12, 34728, Note_on_c, 9, 42, 0
12, 34752, Note_on_c, 9, 35, 96
12, 34752, Note_on_c, 9, 38, 112
12, 34752, Note_on_c, 9, 42, 80
12, 34752, Note_on_c, 9, 46, 80
12, 34776, Note_on_c, 9, 46, 0
12, 34776, Note_on_c, 9, 42, 0
12, 34800, Note_on_c, 9, 38, 0
12, 34800, Note_on_c, 9, 35, 0
12, 34800, Note_on_c, 9, 42, 80
12, 34824, Note_on_c, 9, 42, 0
12, 34848, Note_on_c, 9, 42, 64
12, 34872, Note_on_c, 9, 42, 0
12, 34896, Note_on_c, 9, 42, 96
12, 34896, Note_on_c, 9, 46, 112
12, 34920, Note_on_c, 9, 46, 0
12, 34920, Note_on_c, 9, 42, 0
12, 34944, Note_on_c, 9, 35, 96
12, 34944, Note_on_c, 9, 42, 80
12, 34968, Note_on_c, 9, 42, 0
12, 34992, Note_on_c, 9, 35, 0
12, 34992, Note_on_c, 9, 42, 64
12, 34992, Note_on_c, 9, 46, 112
12, 35016, Note_on_c, 9, 46, 0
12, 35016, Note_on_c, 9, 42, 0
12, 35040, Note_on_c, 9, 42, 80
12, 35064, Note_on_c, 9, 42, 0
12, 35088, Note_on_c, 9, 42, 80
12, 35112, Note_on_c, 9, 42, 0
12, 35136, Note_on_c, 9, 35, 96
12, 35136, Note_on_c, 9, 38, 112
12, 35136, Note_on_c, 9, 42, 64
12, 35136, Note_on_c, 9, 46, 112
12, 35160, Note_on_c, 9, 46, 0
12, 35160, Note_on_c, 9, 42, 0
12, 35184, Note_on_c, 9, 38, 0
12, 35184, Note_on_c, 9, 35, 0
12, 35184, Note_on_c, 9, 42, 96
12, 35208, Note_on_c, 9, 42, 0
12, 35232, Note_on_c, 9, 42, 80
12, 35256, Note_on_c, 9, 42, 0
12, 35280, Note_on_c, 9, 42, 64
12, 35304, Note_on_c, 9, 42, 0
12, 35328, Note_on_c, 9, 35, 96
12, 35328, Note_on_c, 9, 42, 80
12, 35352, Note_on_c, 9, 42, 0
12, 35376, Note_on_c, 9, 35, 0
12, 35376, Note_on_c, 9, 42, 64
12, 35400, Note_on_c, 9, 42, 0
12, 35424, Note_on_c, 9, 42, 80
12, 35448, Note_on_c, 9, 42, 0
12, 35472, Note_on_c, 9, 42, 64
12, 35496, Note_on_c, 9, 42, 0
12, 35520, Note_on_c, 9, 35, 96
12, 35520, Note_on_c, 9, 38, 112
12, 35520, Note_on_c, 9, 42, 80
12, 35520, Note_on_c, 9, 46, 80
12, 35544, Note_on_c, 9, 46, 0
12, 35544, Note_on_c, 9, 42, 0
12, 35568, Note_on_c, 9, 38, 0
12, 35568, Note_on_c, 9, 35, 0
12, 35568, Note_on_c, 9, 42, 80
12, 35592, Note_on_c, 9, 42, 0
12, 35616, Note_on_c, 9, 42, 64
12, 35640, Note_on_c, 9, 42, 0
12, 35664, Note_on_c, 9, 42, 96
12, 35664, Note_on_c, 9, 46, 112
12, 35688, Note_on_c, 9, 46, 0
12, 35688, Note_on_c, 9, 42, 0
12, 35712, Note_on_c, 9, 35, 96
12, 35712, Note_on_c, 9, 42, 80
12, 35736, Note_on_c, 9, 42, 0
12, 35760, Note_on_c, 9, 35, 0
12, 35760, Note_on_c, 9, 42, 64
12, 35760, Note_on_c, 9, 46, 112
12, 35784, Note_on_c, 9, 46, 0
12, 35784, Note_on_c, 9, 42, 0
12, 35808, Note_on_c, 9, 42, 80
12, 35832, Note_on_c, 9, 42, 0
12, 35856, Note_on_c, 9, 42, 80
12, 35880, Note_on_c, 9, 42, 0
12, 35904, Note_on_c, 9, 35, 96
12, 35904, Note_on_c, 9, 38, 112
12, 35904, Note_on_c, 9, 42, 64
12, 35904, Note_on_c, 9, 46, 112
12, 35928, Note_on_c, 9, 46, 0
12, 35928, Note_on_c, 9, 42, 0
12, 35952, Note_on_c, 9, 38, 0
12, 35952, Note_on_c, 9, 35, 0
12, 35952, Note_on_c, 9, 42, 96
12, 35976, Note_on_c, 9, 42, 0
12, 36000, Note_on_c, 9, 42, 80
12, 36024, Note_on_c, 9, 42, 0
12, 36048, Note_on_c, 9, 42, 64
12, 36072, Note_on_c, 9, 42, 0
12, 36096, Note_on_c, 9, 35, 96
12, 36096, Note_on_c, 9, 42, 80
12, 36120, Note_on_c, 9, 42, 0
12, 36144, Note_on_c, 9, 35, 0
12, 36144, Note_on_c, 9, 42, 64
12, 36168, Note_on_c, 9, 42, 0
12, 36192, Note_on_c, 9, 42, 80
12, 36216, Note_on_c, 9, 42, 0
12, 36240, Note_on_c, 9, 42, 64
12, 36264, Note_on_c, 9, 42, 0
12, 36288, Note_on_c, 9, 35, 96
12, 36288, Note_on_c, 9, 38, 112
12, 36288, Note_on_c, 9, 42, 80
12, 36288, Note_on_c, 9, 46, 80
12, 36312, Note_on_c, 9, 46, 0
12, 36312, Note_on_c, 9, 42, 0
12, 36336, Note_on_c, 9, 38, 0
12, 36336, Note_on_c, 9, 35, 0
12, 36336, Note_on_c, 9, 42, 80
12, 36360, Note_on_c, 9, 42, 0
12, 36384, Note_on_c, 9, 42, 64
12, 36408, Note_on_c, 9, 42, 0
12, 36432, Note_on_c, 9, 42, 96
12, 36432, Note_on_c, 9, 46, 112
12, 36456, Note_on_c, 9, 46, 0
12, 36456, Note_on_c, 9, 42, 0
12, 36480, Note_on_c, 9, 35, 96
12, 36480, Note_on_c, 9, 42, 80
12, 36504, Note_on_c, 9, 42, 0
12, 36528, Note_on_c, 9, 35, 0
12, 36528, Note_on_c, 9, 42, 64
12, 36528, Note_on_c, 9, 46, 112
12, 36552, Note_on_c, 9, 46, 0
12, 36552, Note_on_c, 9, 42, 0
12, 36576, Note_on_c, 9, 42, 80
12, 36600, Note_on_c, 9, 42, 0
12, 36624, Note_on_c, 9, 42, 80
12, 36648, Note_on_c, 9, 42, 0
12, 36672, Note_on_c, 9, 35, 96
12, 36672, Note_on_c, 9, 38, 112
12, 36672, Note_on_c, 9, 42, 64
12, 36672, Note_on_c, 9, 46, 112
12, 36696, Note_on_c, 9, 46, 0
12, 36696, Note_on_c, 9, 42, 0
12, 36720, Note_on_c, 9, 38, 0
12, 36720, Note_on_c, 9, 35, 0
12, 36720, Note_on_c, 9, 42, 96
12, 36744, Note_on_c, 9, 42, 0
12, 36768, Note_on_c, 9, 42, 80
12, 36792, Note_on_c, 9, 42, 0
12, 36816, Note_on_c, 9, 42, 64
12, 36840, Note_on_c, 9, 42, 0
12, 36864, Note_on_c, 9, 35, 96
12, 36864, Note_on_c, 9, 42, 80
12, 36888, Note_on_c, 9, 42, 0
12, 36912, Note_on_c, 9, 35, 0
12, 36912, Note_on_c, 9, 42, 64
12, 36936, Note_on_c, 9, 42, 0
12, 36960, Note_on_c, 9, 42, 80
12, 36984, Note_on_c, 9, 42, 0
12, 37008, Note_on_c, 9, 42, 64
12, 37032, Note_on_c, 9, 42, 0
12, 37056, Note_on_c, 9, 35, 96
12, 37056, Note_on_c, 9, 38, 112
12, 37056, Note_on_c, 9, 42, 80
12, 37056, Note_on_c, 9, 46, 80
12, 37080, Note_on_c, 9, 46, 0
12, 37080, Note_on_c, 9, 42, 0
12, 37080, Note_on_c, 9, 38, 0
12, 37104, Note_on_c, 9, 35, 0
12, 37104, Note_on_c, 9, 42, 80
12, 37128, Note_on_c, 9, 42, 0
12, 37152, Note_on_c, 9, 42, 64
12, 37176, Note_on_c, 9, 42, 0
12, 37200, Note_on_c, 9, 42, 96
12, 37200, Note_on_c, 9, 46, 112
12, 37224, Note_on_c, 9, 46, 0
12, 37224, Note_on_c, 9, 42, 0
12, 37248, Note_on_c, 9, 35, 96
12, 37248, Note_on_c, 9, 42, 80
12, 37272, Note_on_c, 9, 42, 0
12, 37296, Note_on_c, 9, 35, 0
12, 37296, Note_on_c, 9, 42, 64
12, 37296, Note_on_c, 9, 46, 112
12, 37320, Note_on_c, 9, 46, 0
12, 37320, Note_on_c, 9, 42, 0
12, 37344, Note_on_c, 9, 38, 80
12, 37344, Note_on_c, 9, 42, 80
12, 37368, Note_on_c, 9, 42, 0
12, 37368, Note_on_c, 9, 38, 0
12, 37392, Note_on_c, 9, 38, 80
12, 37392, Note_on_c, 9, 42, 80
12, 37416, Note_on_c, 9, 42, 0
12, 37416, Note_on_c, 9, 38, 0
12, 37440, Note_on_c, 9, 35, 96
12, 37440, Note_on_c, 9, 38, 80
12, 37440, Note_on_c, 9, 42, 64
12, 37440, Note_on_c, 9, 46, 112
12, 37464, Note_on_c, 9, 46, 0
12, 37464, Note_on_c, 9, 42, 0
12, 37464, Note_on_c, 9, 38, 0
12, 37488, Note_on_c, 9, 35, 0
12, 37488, Note_on_c, 9, 38, 96
12, 37488, Note_on_c, 9, 42, 96
12, 37512, Note_on_c, 9, 42, 0
12, 37512, Note_on_c, 9, 38, 0
12, 37536, Note_on_c, 9, 38, 96
12, 37536, Note_on_c, 9, 42, 80
12, 37560, Note_on_c, 9, 42, 0
12, 37560, Note_on_c, 9, 38, 0
12, 37584, Note_on_c, 9, 38, 112
12, 37584, Note_on_c, 9, 42, 64
12, 37608, Note_on_c, 9, 42, 0
12, 37608, Note_on_c, 9, 38, 0
12, 37608, Note_on_c, 9, 49, 96
12, 37620, Note_on_c, 9, 49, 0
12, 37632, Note_on_c, 9, 35, 96
12, 37632, Note_on_c, 9, 42, 80
12, 37656, Note_on_c, 9, 42, 0
12, 37680, Note_on_c, 9, 35, 0
12, 37680, Note_on_c, 9, 42, 64
12, 37704, Note_on_c, 9, 42, 0
12, 37728, Note_on_c, 9, 42, 80
12, 37752, Note_on_c, 9, 42, 0
12, 37776, Note_on_c, 9, 42, 64
12, 37800, Note_on_c, 9, 42, 0
12, 37824, Note_on_c, 9, 35, 96
12, 37824, Note_on_c, 9, 38, 112
12, 37824, Note_on_c, 9, 42, 80
12, 37824, Note_on_c, 9, 46, 80
12, 37848, Note_on_c, 9, 46, 0
12, 37848, Note_on_c, 9, 42, 0
12, 37872, Note_on_c, 9, 38, 0
12, 37872, Note_on_c, 9, 35, 0
12, 37872, Note_on_c, 9, 42, 80
12, 37896, Note_on_c, 9, 42, 0
12, 37920, Note_on_c, 9, 42, 64
12, 37944, Note_on_c, 9, 42, 0
12, 37968, Note_on_c, 9, 42, 96
12, 37968, Note_on_c, 9, 46, 112
12, 37992, Note_on_c, 9, 46, 0
12, 37992, Note_on_c, 9, 42, 0
12, 38016, Note_on_c, 9, 35, 96
12, 38016, Note_on_c, 9, 42, 80
12, 38040, Note_on_c, 9, 42, 0
12, 38064, Note_on_c, 9, 35, 0
12, 38064, Note_on_c, 9, 42, 64
12, 38064, Note_on_c, 9, 46, 112
12, 38088, Note_on_c, 9, 46, 0
12, 38088, Note_on_c, 9, 42, 0
12, 38112, Note_on_c, 9, 42, 80
12, 38136, Note_on_c, 9, 42, 0
12, 38160, Note_on_c, 9, 42, 80
12, 38184, Note_on_c, 9, 42, 0
12, 38208, Note_on_c, 9, 35, 96
12, 38208, Note_on_c, 9, 38, 112
12, 38208, Note_on_c, 9, 42, 64
12, 38208, Note_on_c, 9, 46, 112
12, 38232, Note_on_c, 9, 46, 0
12, 38232, Note_on_c, 9, 42, 0
12, 38256, Note_on_c, 9, 38, 0
12, 38256, Note_on_c, 9, 35, 0
12, 38256, Note_on_c, 9, 42, 96
12, 38280, Note_on_c, 9, 42, 0
12, 38304, Note_on_c, 9, 42, 80
12, 38328, Note_on_c, 9, 42, 0
12, 38352, Note_on_c, 9, 42, 64
12, 38376, Note_on_c, 9, 42, 0
12, 38400, Note_on_c, 9, 35, 96
12, 38400, Note_on_c, 9, 42, 80
12, 38424, Note_on_c, 9, 42, 0
12, 38448, Note_on_c, 9, 35, 0
12, 38448, Note_on_c, 9, 42, 64
12, 38472, Note_on_c, 9, 42, 0
12, 38496, Note_on_c, 9, 42, 80
12, 38520, Note_on_c, 9, 42, 0
12, 38544, Note_on_c, 9, 42, 64
12, 38568, Note_on_c, 9, 42, 0
12, 38592, Note_on_c, 9, 35, 96
12, 38592, Note_on_c, 9, 38, 112
12, 38592, Note_on_c, 9, 42, 80
12, 38592, Note_on_c, 9, 46, 80
12, 38616, Note_on_c, 9, 46, 0
12, 38616, Note_on_c, 9, 42, 0
12, 38640, Note_on_c, 9, 38, 0
12, 38640, Note_on_c, 9, 35, 0
12, 38640, Note_on_c, 9, 42, 80
12, 38664, Note_on_c, 9, 42, 0
12, 38688, Note_on_c, 9, 42, 64
12, 38712, Note_on_c, 9, 42, 0
12, 38736, Note_on_c, 9, 42, 96
12, 38736, Note_on_c, 9, 46, 112
12, 38760, Note_on_c, 9, 46, 0
12, 38760, Note_on_c, 9, 42, 0
12, 38784, Note_on_c, 9, 35, 96
12, 38784, Note_on_c, 9, 42, 80
12, 38808, Note_on_c, 9, 42, 0
12, 38832, Note_on_c, 9, 35, 0
12, 38832, Note_on_c, 9, 42, 64
12, 38832, Note_on_c, 9, 46, 112
12, 38856, Note_on_c, 9, 46, 0
12, 38856, Note_on_c, 9, 42, 0
12, 38880, Note_on_c, 9, 42, 80
12, 38904, Note_on_c, 9, 42, 0
12, 38928, Note_on_c, 9, 42, 80
12, 38952, Note_on_c, 9, 42, 0
12, 38976, Note_on_c, 9, 35, 96
12, 38976, Note_on_c, 9, 38, 112
12, 38976, Note_on_c, 9, 42, 64
12, 38976, Note_on_c, 9, 46, 112
12, 39000, Note_on_c, 9, 46, 0
12, 39000, Note_on_c, 9, 42, 0
12, 39024, Note_on_c, 9, 38, 0
12, 39024, Note_on_c, 9, 35, 0
12, 39024, Note_on_c, 9, 42, 96
12, 39048, Note_on_c, 9, 42, 0
12, 39072, Note_on_c, 9, 42, 80
12, 39096, Note_on_c, 9, 42, 0
12, 39120, Note_on_c, 9, 42, 64
12, 39144, Note_on_c, 9, 42, 0
12, 39168, Note_on_c, 9, 35, 96
12, 39168, Note_on_c, 9, 42, 80
12, 39192, Note_on_c, 9, 42, 0
12, 39216, Note_on_c, 9, 35, 0
12, 39216, Note_on_c, 9, 42, 64
12, 39240, Note_on_c, 9, 42, 0
12, 39264, Note_on_c, 9, 42, 80
12, 39288, Note_on_c, 9, 42, 0
12, 39312, Note_on_c, 9, 42, 64
12, 39336, Note_on_c, 9, 42, 0
12, 39360, Note_on_c, 9, 35, 96
12, 39360, Note_on_c, 9, 38, 112
12, 39360, Note_on_c, 9, 42, 80
12, 39360, Note_on_c, 9, 46, 80
12, 39384, Note_on_c, 9, 46, 0
12, 39384, Note_on_c, 9, 42, 0
12, 39408, Note_on_c, 9, 38, 0
12, 39408, Note_on_c, 9, 35, 0
12, 39408, Note_on_c, 9, 42, 80
12, 39432, Note_on_c, 9, 42, 0
12, 39456, Note_on_c, 9, 42, 64
12, 39480, Note_on_c, 9, 42, 0
12, 39504, Note_on_c, 9, 42, 96
12, 39504, Note_on_c, 9, 46, 112
12, 39528, Note_on_c, 9, 46, 0
12, 39528, Note_on_c, 9, 42, 0
12, 39552, Note_on_c, 9, 35, 96
12, 39552, Note_on_c, 9, 42, 80
12, 39576, Note_on_c, 9, 42, 0
12, 39600, Note_on_c, 9, 35, 0
12, 39600, Note_on_c, 9, 42, 64
12, 39600, Note_on_c, 9, 46, 112
12, 39624, Note_on_c, 9, 46, 0
12, 39624, Note_on_c, 9, 42, 0
12, 39648, Note_on_c, 9, 42, 80
12, 39672, Note_on_c, 9, 42, 0
12, 39696, Note_on_c, 9, 42, 80
12, 39720, Note_on_c, 9, 42, 0
12, 39744, Note_on_c, 9, 35, 96
12, 39744, Note_on_c, 9, 38, 112
12, 39744, Note_on_c, 9, 42, 64
12, 39744, Note_on_c, 9, 46, 112
12, 39768, Note_on_c, 9, 46, 0
12, 39768, Note_on_c, 9, 42, 0
12, 39792, Note_on_c, 9, 38, 0
12, 39792, Note_on_c, 9, 35, 0
12, 39792, Note_on_c, 9, 42, 96
12, 39816, Note_on_c, 9, 42, 0
12, 39840, Note_on_c, 9, 42, 80
12, 39864, Note_on_c, 9, 42, 0
12, 39888, Note_on_c, 9, 42, 64
12, 39912, Note_on_c, 9, 42, 0
12, 39936, Note_on_c, 9, 35, 96
12, 39936, Note_on_c, 9, 42, 80
12, 39960, Note_on_c, 9, 42, 0
12, 39984, Note_on_c, 9, 35, 0
12, 39984, Note_on_c, 9, 42, 64
12, 40008, Note_on_c, 9, 42, 0
12, 40032, Note_on_c, 9, 42, 80
12, 40056, Note_on_c, 9, 42, 0
12, 40080, Note_on_c, 9, 42, 64
12, 40104, Note_on_c, 9, 42, 0
12, 40128, Note_on_c, 9, 35, 96
12, 40128, Note_on_c, 9, 38, 112
12, 40128, Note_on_c, 9, 42, 80
12, 40128, Note_on_c, 9, 46, 80
12, 40152, Note_on_c, 9, 46, 0
12, 40152, Note_on_c, 9, 42, 0
12, 40176, Note_on_c, 9, 38, 0
12, 40176, Note_on_c, 9, 35, 0
12, 40176, Note_on_c, 9, 42, 80
12, 40200, Note_on_c, 9, 42, 0
12, 40224, Note_on_c, 9, 42, 64
12, 40248, Note_on_c, 9, 42, 0
12, 40272, Note_on_c, 9, 42, 96
12, 40272, Note_on_c, 9, 46, 112
12, 40296, Note_on_c, 9, 46, 0
12, 40296, Note_on_c, 9, 42, 0
12, 40320, Note_on_c, 9, 35, 96
12, 40320, Note_on_c, 9, 42, 80
12, 40344, Note_on_c, 9, 42, 0
12, 40368, Note_on_c, 9, 35, 0
12, 40368, Note_on_c, 9, 42, 64
12, 40368, Note_on_c, 9, 46, 112
12, 40392, Note_on_c, 9, 46, 0
12, 40392, Note_on_c, 9, 42, 0
12, 40416, Note_on_c, 9, 42, 80
12, 40440, Note_on_c, 9, 42, 0
12, 40464, Note_on_c, 9, 42, 80
12, 40488, Note_on_c, 9, 42, 0
12, 40512, Note_on_c, 9, 35, 96
12, 40512, Note_on_c, 9, 38, 112
12, 40512, Note_on_c, 9, 42, 64
12, 40512, Note_on_c, 9, 46, 112
12, 40536, Note_on_c, 9, 46, 0
12, 40536, Note_on_c, 9, 42, 0
12, 40560, Note_on_c, 9, 38, 0
12, 40560, Note_on_c, 9, 35, 0
12, 40560, Note_on_c, 9, 42, 96
12, 40584, Note_on_c, 9, 42, 0
12, 40608, Note_on_c, 9, 42, 80
12, 40632, Note_on_c, 9, 42, 0
12, 40656, Note_on_c, 9, 42, 64
12, 40680, Note_on_c, 9, 42, 0
12, 40704, Note_on_c, 9, 35, 96
12, 40704, Note_on_c, 9, 42, 80
12, 40728, Note_on_c, 9, 42, 0
12, 40752, Note_on_c, 9, 35, 0
12, 40752, Note_on_c, 9, 42, 64
12, 40776, Note_on_c, 9, 42, 0
12, 40800, Note_on_c, 9, 42, 80
12, 40824, Note_on_c, 9, 42, 0
12, 40848, Note_on_c, 9, 42, 64
12, 40872, Note_on_c, 9, 42, 0
12, 40896, Note_on_c, 9, 35, 96
12, 40896, Note_on_c, 9, 38, 112
12, 40896, Note_on_c, 9, 42, 80
12, 40896, Note_on_c, 9, 46, 80
12, 40920, Note_on_c, 9, 46, 0
12, 40920, Note_on_c, 9, 42, 0
12, 40944, Note_on_c, 9, 38, 0
12, 40944, Note_on_c, 9, 35, 0
12, 40944, Note_on_c, 9, 42, 80
12, 40968, Note_on_c, 9, 42, 0
12, 40992, Note_on_c, 9, 42, 64
12, 41016, Note_on_c, 9, 42, 0
12, 41040, Note_on_c, 9, 42, 96
12, 41040, Note_on_c, 9, 46, 112
12, 41064, Note_on_c, 9, 46, 0
12, 41064, Note_on_c, 9, 42, 0
12, 41088, Note_on_c, 9, 35, 96
12, 41088, Note_on_c, 9, 42, 80
12, 41112, Note_on_c, 9, 42, 0
12, 41136, Note_on_c, 9, 35, 0
12, 41136, Note_on_c, 9, 42, 64
12, 41136, Note_on_c, 9, 46, 112
12, 41160, Note_on_c, 9, 46, 0
12, 41160, Note_on_c, 9, 42, 0
12, 41184, Note_on_c, 9, 42, 80
12, 41208, Note_on_c, 9, 42, 0
12, 41232, Note_on_c, 9, 42, 80
12, 41256, Note_on_c, 9, 42, 0
12, 41280, Note_on_c, 9, 35, 96
12, 41280, Note_on_c, 9, 38, 112
12, 41280, Note_on_c, 9, 42, 64
12, 41280, Note_on_c, 9, 46, 112
12, 41304, Note_on_c, 9, 46, 0
12, 41304, Note_on_c, 9, 42, 0
12, 41328, Note_on_c, 9, 38, 0
12, 41328, Note_on_c, 9, 35, 0
12, 41328, Note_on_c, 9, 42, 96
12, 41352, Note_on_c, 9, 42, 0
12, 41376, Note_on_c, 9, 42, 80
12, 41400, Note_on_c, 9, 42, 0
12, 41424, Note_on_c, 9, 42, 64
12, 41448, Note_on_c, 9, 42, 0
12, 41472, Note_on_c, 9, 35, 96
12, 41472, Note_on_c, 9, 42, 80
12, 41496, Note_on_c, 9, 42, 0
12, 41520, Note_on_c, 9, 35, 0
12, 41520, Note_on_c, 9, 42, 64
12, 41544, Note_on_c, 9, 42, 0
12, 41568, Note_on_c, 9, 42, 80
12, 41592, Note_on_c, 9, 42, 0
12, 41616, Note_on_c, 9, 42, 64
12, 41640, Note_on_c, 9, 42, 0
12, 41664, Note_on_c, 9, 35, 96
12, 41664, Note_on_c, 9, 38, 112
12, 41664, Note_on_c, 9, 42, 80
12, 41664, Note_on_c, 9, 46, 80
12, 41688, Note_on_c, 9, 46, 0
12, 41688, Note_on_c, 9, 42, 0
12, 41712, Note_on_c, 9, 38, 0
12, 41712, Note_on_c, 9, 35, 0
12, 41712, Note_on_c, 9, 42, 80
12, 41736, Note_on_c, 9, 42, 0
12, 41760, Note_on_c, 9, 42, 64
12, 41784, Note_on_c, 9, 42, 0
12, 41808, Note_on_c, 9, 42, 96
12, 41808, Note_on_c, 9, 46, 112
12, 41832, Note_on_c, 9, 46, 0
12, 41832, Note_on_c, 9, 42, 0
12, 41856, Note_on_c, 9, 35, 96
12, 41856, Note_on_c, 9, 42, 80
12, 41880, Note_on_c, 9, 42, 0
12, 41904, Note_on_c, 9, 35, 0
12, 41904, Note_on_c, 9, 42, 64
12, 41904, Note_on_c, 9, 46, 112
12, 41928, Note_on_c, 9, 46, 0
12, 41928, Note_on_c, 9, 42, 0
12, 41952, Note_on_c, 9, 42, 80
12, 41976, Note_on_c, 9, 42, 0
12, 42000, Note_on_c, 9, 42, 80
12, 42024, Note_on_c, 9, 42, 0
12, 42048, Note_on_c, 9, 35, 96
12, 42048, Note_on_c, 9, 38, 112
12, 42048, Note_on_c, 9, 42, 64
12, 42048, Note_on_c, 9, 46, 112
12, 42072, Note_on_c, 9, 46, 0
12, 42072, Note_on_c, 9, 42, 0
12, 42096, Note_on_c, 9, 38, 0
12, 42096, Note_on_c, 9, 35, 0
12, 42096, Note_on_c, 9, 42, 96
12, 42120, Note_on_c, 9, 42, 0
12, 42144, Note_on_c, 9, 42, 80
12, 42168, Note_on_c, 9, 42, 0
12, 42192, Note_on_c, 9, 42, 64
12, 42216, Note_on_c, 9, 42, 0
12, 42240, Note_on_c, 9, 35, 96
12, 42240, Note_on_c, 9, 42, 80
12, 42264, Note_on_c, 9, 42, 0
12, 42288, Note_on_c, 9, 35, 0
12, 42288, Note_on_c, 9, 42, 64
12, 42312, Note_on_c, 9, 42, 0
12, 42336, Note_on_c, 9, 42, 80
12, 42360, Note_on_c, 9, 42, 0
12, 42384, Note_on_c, 9, 42, 64
12, 42408, Note_on_c, 9, 42, 0
12, 42432, Note_on_c, 9, 35, 96
12, 42432, Note_on_c, 9, 38, 112
12, 42432, Note_on_c, 9, 42, 80
12, 42432, Note_on_c, 9, 46, 80
12, 42456, Note_on_c, 9, 46, 0
12, 42456, Note_on_c, 9, 42, 0
12, 42480, Note_on_c, 9, 38, 0
12, 42480, Note_on_c, 9, 35, 0
12, 42480, Note_on_c, 9, 42, 80
12, 42504, Note_on_c, 9, 42, 0
12, 42528, Note_on_c, 9, 42, 64
12, 42552, Note_on_c, 9, 42, 0
12, 42576, Note_on_c, 9, 42, 96
12, 42576, Note_on_c, 9, 46, 112
12, 42600, Note_on_c, 9, 46, 0
12, 42600, Note_on_c, 9, 42, 0
12, 42624, Note_on_c, 9, 35, 96
12, 42624, Note_on_c, 9, 42, 80
12, 42648, Note_on_c, 9, 42, 0
12, 42672, Note_on_c, 9, 35, 0
12, 42672, Note_on_c, 9, 42, 64
12, 42672, Note_on_c, 9, 46, 112
12, 42696, Note_on_c, 9, 46, 0
12, 42696, Note_on_c, 9, 42, 0
12, 42720, Note_on_c, 9, 42, 80
12, 42744, Note_on_c, 9, 42, 0
12, 42768, Note_on_c, 9, 42, 80
12, 42792, Note_on_c, 9, 42, 0
12, 42816, Note_on_c, 9, 35, 96
12, 42816, Note_on_c, 9, 38, 112
12, 42816, Note_on_c, 9, 42, 64
12, 42816, Note_on_c, 9, 46, 112
12, 42840, Note_on_c, 9, 46, 0
12, 42840, Note_on_c, 9, 42, 0
12, 42864, Note_on_c, 9, 38, 0
12, 42864, Note_on_c, 9, 35, 0
12, 42864, Note_on_c, 9, 42, 96
12, 42888, Note_on_c, 9, 42, 0
12, 42912, Note_on_c, 9, 42, 80
12, 42936, Note_on_c, 9, 42, 0
12, 42960, Note_on_c, 9, 42, 64
12, 42984, Note_on_c, 9, 42, 0
12, 43008, Note_on_c, 9, 35, 96
12, 43008, Note_on_c, 9, 42, 80
12, 43032, Note_on_c, 9, 42, 0
12, 43056, Note_on_c, 9, 35, 0
12, 43056, Note_on_c, 9, 42, 64
12, 43080, Note_on_c, 9, 42, 0
12, 43104, Note_on_c, 9, 42, 80
12, 43128, Note_on_c, 9, 42, 0
12, 43152, Note_on_c, 9, 42, 64
12, 43176, Note_on_c, 9, 42, 0
12, 43200, Note_on_c, 9, 35, 96
12, 43200, Note_on_c, 9, 38, 112
12, 43200, Note_on_c, 9, 42, 80
12, 43200, Note_on_c, 9, 46, 80
12, 43224, Note_on_c, 9, 46, 0
12, 43224, Note_on_c, 9, 42, 0
12, 43224, Note_on_c, 9, 38, 0
12, 43248, Note_on_c, 9, 35, 0
12, 43248, Note_on_c, 9, 42, 80
12, 43272, Note_on_c, 9, 42, 0
12, 43296, Note_on_c, 9, 42, 64
12, 43320, Note_on_c, 9, 42, 0
12, 43344, Note_on_c, 9, 42, 96
12, 43344, Note_on_c, 9, 46, 112
12, 43368, Note_on_c, 9, 46, 0
12, 43368, Note_on_c, 9, 42, 0
12, 43392, Note_on_c, 9, 35, 96
12, 43392, Note_on_c, 9, 42, 80
12, 43416, Note_on_c, 9, 42, 0
12, 43440, Note_on_c, 9, 35, 0
12, 43440, Note_on_c, 9, 42, 64
12, 43440, Note_on_c, 9, 46, 112
12, 43464, Note_on_c, 9, 46, 0
12, 43464, Note_on_c, 9, 42, 0
12, 43488, Note_on_c, 9, 38, 80
12, 43488, Note_on_c, 9, 42, 80
12, 43512, Note_on_c, 9, 42, 0
12, 43512, Note_on_c, 9, 38, 0
12, 43536, Note_on_c, 9, 38, 80
12, 43536, Note_on_c, 9, 42, 80
12, 43560, Note_on_c, 9, 42, 0
12, 43560, Note_on_c, 9, 38, 0
12, 43584, Note_on_c, 9, 35, 96
12, 43584, Note_on_c, 9, 38, 80
12, 43584, Note_on_c, 9, 42, 64
12, 43584, Note_on_c, 9, 46, 112
12, 43608, Note_on_c, 9, 46, 0
12, 43608, Note_on_c, 9, 42, 0
12, 43608, Note_on_c, 9, 38, 0
12, 43632, Note_on_c, 9, 35, 0
12, 43632, Note_on_c, 9, 38, 96
12, 43632, Note_on_c, 9, 42, 96
12, 43656, Note_on_c, 9, 42, 0
12, 43656, Note_on_c, 9, 38, 0
12, 43680, Note_on_c, 9, 38, 96
12, 43680, Note_on_c, 9, 42, 80
12, 43704, Note_on_c, 9, 42, 0
12, 43704, Note_on_c, 9, 38, 0
12, 43728, Note_on_c, 9, 38, 112
12, 43728, Note_on_c, 9, 42, 64
12, 43752, Note_on_c, 9, 42, 0
12, 43752, Note_on_c, 9, 38, 0
12, 43752, Note_on_c, 9, 49, 96
12, 43764, Note_on_c, 9, 49, 0
12, 43776, Note_on_c, 9, 35, 96
12, 43776, Note_on_c, 9, 42, 80
12, 43800, Note_on_c, 9, 42, 0
12, 43824, Note_on_c, 9, 35, 0
12, 43824, Note_on_c, 9, 42, 64
12, 43848, Note_on_c, 9, 42, 0
12, 43872, Note_on_c, 9, 42, 80
12, 43896, Note_on_c, 9, 42, 0
12, 43920, Note_on_c, 9, 42, 64
12, 43944, Note_on_c, 9, 42, 0
12, 43968, Note_on_c, 9, 35, 96
12, 43968, Note_on_c, 9, 38, 112
12, 43968, Note_on_c, 9, 42, 80
12, 43968, Note_on_c, 9, 46, 80
12, 43992, Note_on_c, 9, 46, 0
12, 43992, Note_on_c, 9, 42, 0
12, 44016, Note_on_c, 9, 38, 0
12, 44016, Note_on_c, 9, 35, 0
12, 44016, Note_on_c, 9, 42, 80
12, 44040, Note_on_c, 9, 42, 0
12, 44064, Note_on_c, 9, 42, 64
12, 44088, Note_on_c, 9, 42, 0
12, 44112, Note_on_c, 9, 42, 96
12, 44112, Note_on_c, 9, 46, 112
12, 44136, Note_on_c, 9, 46, 0
12, 44136, Note_on_c, 9, 42, 0
12, 44160, Note_on_c, 9, 35, 96
12, 44160, Note_on_c, 9, 42, 80
12, 44184, Note_on_c, 9, 42, 0
12, 44208, Note_on_c, 9, 35, 0
12, 44208, Note_on_c, 9, 42, 64
12, 44208, Note_on_c, 9, 46, 112
12, 44232, Note_on_c, 9, 46, 0
12, 44232, Note_on_c, 9, 42, 0
12, 44256, Note_on_c, 9, 42, 80
12, 44280, Note_on_c, 9, 42, 0
12, 44304, Note_on_c, 9, 42, 80
12, 44328, Note_on_c, 9, 42, 0
12, 44352, Note_on_c, 9, 35, 96
12, 44352, Note_on_c, 9, 38, 112
12, 44352, Note_on_c, 9, 42, 64
12, 44352, Note_on_c, 9, 46, 112
12, 44376, Note_on_c, 9, 46, 0
12, 44376, Note_on_c, 9, 42, 0
12, 44400, Note_on_c, 9, 38, 0
12, 44400, Note_on_c, 9, 35, 0
12, 44400, Note_on_c, 9, 42, 96
12, 44424, Note_on_c, 9, 42, 0
12, 44448, Note_on_c, 9, 42, 80
12, 44472, Note_on_c, 9, 42, 0
12, 44496, Note_on_c, 9, 42, 64
12, 44520, Note_on_c, 9, 42, 0
12, 44544, Note_on_c, 9, 35, 96
12, 44544, Note_on_c, 9, 42, 80
12, 44568, Note_on_c, 9, 42, 0
12, 44592, Note_on_c, 9, 35, 0
12, 44592, Note_on_c, 9, 42, 64
12, 44616, Note_on_c, 9, 42, 0
12, 44640, Note_on_c, 9, 42, 80
12, 44664, Note_on_c, 9, 42, 0
12, 44688, Note_on_c, 9, 42, 64
12, 44712, Note_on_c, 9, 42, 0
12, 44736, Note_on_c, 9, 35, 96
12, 44736, Note_on_c, 9, 38, 112
12, 44736, Note_on_c, 9, 42, 80
12, 44736, Note_on_c, 9, 46, 80
12, 44760, Note_on_c, 9, 46, 0
12, 44760, Note_on_c, 9, 42, 0
12, 44784, Note_on_c, 9, 38, 0
12, 44784, Note_on_c, 9, 35, 0
12, 44784, Note_on_c, 9, 42, 80
12, 44808, Note_on_c, 9, 42, 0
12, 44832, Note_on_c, 9, 42, 64
12, 44856, Note_on_c, 9, 42, 0
12, 44880, Note_on_c, 9, 42, 96
12, 44880, Note_on_c, 9, 46, 112
12, 44904, Note_on_c, 9, 46, 0
12, 44904, Note_on_c, 9, 42, 0
12, 44928, Note_on_c, 9, 35, 96
12, 44928, Note_on_c, 9, 42, 80
12, 44952, Note_on_c, 9, 42, 0
12, 44976, Note_on_c, 9, 35, 0
12, 44976, Note_on_c, 9, 42, 64
12, 44976, Note_on_c, 9, 46, 112
12, 45000, Note_on_c, 9, 46, 0
12, 45000, Note_on_c, 9, 42, 0
12, 45024, Note_on_c, 9, 42, 80
12, 45048, Note_on_c, 9, 42, 0
12, 45072, Note_on_c, 9, 42, 80
12, 45096, Note_on_c, 9, 42, 0
12, 45120, Note_on_c, 9, 35, 96
12, 45120, Note_on_c, 9, 38, 112
12, 45120, Note_on_c, 9, 42, 64
12, 45120, Note_on_c, 9, 46, 112
12, 45144, Note_on_c, 9, 46, 0
12, 45144, Note_on_c, 9, 42, 0
12, 45168, Note_on_c, 9, 38, 0
12, 45168, Note_on_c, 9, 35, 0
12, 45168, Note_on_c, 9, 42, 96
12, 45192, Note_on_c, 9, 42, 0
12, 45216, Note_on_c, 9, 42, 80
12, 45240, Note_on_c, 9, 42, 0
12, 45264, Note_on_c, 9, 42, 64
12, 45288, Note_on_c, 9, 42, 0
12, 45312, Note_on_c, 9, 35, 96
12, 45312, Note_on_c, 9, 42, 80
12, 45336, Note_on_c, 9, 42, 0
12, 45360, Note_on_c, 9, 35, 0
12, 45360, Note_on_c, 9, 42, 64
12, 45384, Note_on_c, 9, 42, 0
12, 45408, Note_on_c, 9, 42, 80
12, 45432, Note_on_c, 9, 42, 0
12, 45456, Note_on_c, 9, 42, 64
12, 45480, Note_on_c, 9, 42, 0
12, 45504, Note_on_c, 9, 35, 96
12, 45504, Note_on_c, 9, 38, 112
12, 45504, Note_on_c, 9, 42, 80
12, 45504, Note_on_c, 9, 46, 80
12, 45528, Note_on_c, 9, 46, 0
12, 45528, Note_on_c, 9, 42, 0
12, 45552, Note_on_c, 9, 38, 0
12, 45552, Note_on_c, 9, 35, 0
12, 45552, Note_on_c, 9, 42, 80
12, 45576, Note_on_c, 9, 42, 0
12, 45600, Note_on_c, 9, 42, 64
12, 45624, Note_on_c, 9, 42, 0
12, 45648, Note_on_c, 9, 42, 96
12, 45648, Note_on_c, 9, 46, 112
12, 45672, Note_on_c, 9, 46, 0
12, 45672, Note_on_c, 9, 42, 0
12, 45696, Note_on_c, 9, 35, 96
12, 45696, Note_on_c, 9, 42, 80
12, 45720, Note_on_c, 9, 42, 0
12, 45744, Note_on_c, 9, 35, 0
12, 45744, Note_on_c, 9, 42, 64
12, 45744, Note_on_c, 9, 46, 112
12, 45768, Note_on_c, 9, 46, 0
12, 45768, Note_on_c, 9, 42, 0
12, 45792, Note_on_c, 9, 42, 80
12, 45816, Note_on_c, 9, 42, 0
12, 45840, Note_on_c, 9, 42, 80
12, 45864, Note_on_c, 9, 42, 0
12, 45888, Note_on_c, 9, 35, 96
12, 45888, Note_on_c, 9, 38, 112
12, 45888, Note_on_c, 9, 42, 64
12, 45888, Note_on_c, 9, 46, 112
12, 45912, Note_on_c, 9, 46, 0
12, 45912, Note_on_c, 9, 42, 0
12, 45936, Note_on_c, 9, 38, 0
12, 45936, Note_on_c, 9, 35, 0
12, 45936, Note_on_c, 9, 42, 96
12, 45960, Note_on_c, 9, 42, 0
12, 45984, Note_on_c, 9, 42, 80
12, 46008, Note_on_c, 9, 42, 0
12, 46032, Note_on_c, 9, 42, 64
12, 46056, Note_on_c, 9, 42, 0
12, 46080, Note_on_c, 9, 35, 96
12, 46080, Note_on_c, 9, 42, 80
12, 46104, Note_on_c, 9, 42, 0
12, 46128, Note_on_c, 9, 35, 0
12, 46128, Note_on_c, 9, 42, 64
12, 46152, Note_on_c, 9, 42, 0
12, 46176, Note_on_c, 9, 42, 80
12, 46200, Note_on_c, 9, 42, 0
12, 46224, Note_on_c, 9, 42, 64
12, 46248, Note_on_c, 9, 42, 0
12, 46272, Note_on_c, 9, 35, 96
12, 46272, Note_on_c, 9, 38, 112
12, 46272, Note_on_c, 9, 42, 80
12, 46272, Note_on_c, 9, 46, 80
12, 46296, Note_on_c, 9, 46, 0
12, 46296, Note_on_c, 9, 42, 0
12, 46320, Note_on_c, 9, 38, 0
12, 46320, Note_on_c, 9, 35, 0
12, 46320, Note_on_c, 9, 42, 80
12, 46344, Note_on_c, 9, 42, 0
12, 46368, Note_on_c, 9, 42, 64
12, 46392, Note_on_c, 9, 42, 0
12, 46416, Note_on_c, 9, 42, 96
12, 46416, Note_on_c, 9, 46, 112
12, 46440, Note_on_c, 9, 46, 0
12, 46440, Note_on_c, 9, 42, 0
12, 46464, Note_on_c, 9, 35, 96
12, 46464, Note_on_c, 9, 42, 80
12, 46488, Note_on_c, 9, 42, 0
12, 46512, Note_on_c, 9, 35, 0
12, 46512, Note_on_c, 9, 42, 64
12, 46512, Note_on_c, 9, 46, 112
12, 46536, Note_on_c, 9, 46, 0
12, 46536, Note_on_c, 9, 42, 0
12, 46560, Note_on_c, 9, 42, 80
12, 46584, Note_on_c, 9, 42, 0
12, 46608, Note_on_c, 9, 42, 80
12, 46632, Note_on_c, 9, 42, 0
12, 46656, Note_on_c, 9, 35, 96
12, 46656, Note_on_c, 9, 38, 112
12, 46656, Note_on_c, 9, 42, 64
12, 46656, Note_on_c, 9, 46, 112
12, 46680, Note_on_c, 9, 46, 0
12, 46680, Note_on_c, 9, 42, 0
12, 46704, Note_on_c, 9, 38, 0
12, 46704, Note_on_c, 9, 35, 0
12, 46704, Note_on_c, 9, 42, 96
12, 46728, Note_on_c, 9, 42, 0
12, 46752, Note_on_c, 9, 42, 80
12, 46776, Note_on_c, 9, 42, 0
12, 46800, Note_on_c, 9, 42, 64
12, 46824, Note_on_c, 9, 42, 0
12, 46848, Note_on_c, 9, 35, 96
12, 46848, Note_on_c, 9, 42, 80
12, 46872, Note_on_c, 9, 42, 0
12, 46896, Note_on_c, 9, 35, 0
12, 46896, Note_on_c, 9, 42, 64
12, 46920, Note_on_c, 9, 42, 0
12, 46944, Note_on_c, 9, 42, 80
12, 46968, Note_on_c, 9, 42, 0
12, 46992, Note_on_c, 9, 42, 64
12, 47016, Note_on_c, 9, 42, 0
12, 47040, Note_on_c, 9, 35, 96
12, 47040, Note_on_c, 9, 38, 112
12, 47040, Note_on_c, 9, 42, 80
12, 47040, Note_on_c, 9, 46, 80
12, 47064, Note_on_c, 9, 46, 0
12, 47064, Note_on_c, 9, 42, 0
12, 47088, Note_on_c, 9, 38, 0
12, 47088, Note_on_c, 9, 35, 0
12, 47088, Note_on_c, 9, 42, 80
12, 47112, Note_on_c, 9, 42, 0
12, 47136, Note_on_c, 9, 42, 64
12, 47160, Note_on_c, 9, 42, 0
12, 47184, Note_on_c, 9, 42, 96
12, 47184, Note_on_c, 9, 46, 112
12, 47208, Note_on_c, 9, 46, 0
12, 47208, Note_on_c, 9, 42, 0
12, 47232, Note_on_c, 9, 35, 96
12, 47232, Note_on_c, 9, 42, 80
12, 47256, Note_on_c, 9, 42, 0
12, 47280, Note_on_c, 9, 35, 0
12, 47280, Note_on_c, 9, 42, 64
12, 47280, Note_on_c, 9, 46, 112
12, 47304, Note_on_c, 9, 46, 0
12, 47304, Note_on_c, 9, 42, 0
12, 47328, Note_on_c, 9, 42, 80
12, 47352, Note_on_c, 9, 42, 0
12, 47376, Note_on_c, 9, 42, 80
12, 47400, Note_on_c, 9, 42, 0
12, 47424, Note_on_c, 9, 35, 96
12, 47424, Note_on_c, 9, 38, 112
12, 47424, Note_on_c, 9, 42, 64
12, 47424, Note_on_c, 9, 46, 112
12, 47448, Note_on_c, 9, 46, 0
12, 47448, Note_on_c, 9, 42, 0
12, 47472, Note_on_c, 9, 38, 0
12, 47472, Note_on_c, 9, 35, 0
12, 47472, Note_on_c, 9, 42, 96
12, 47496, Note_on_c, 9, 42, 0
12, 47520, Note_on_c, 9, 42, 80
12, 47544, Note_on_c, 9, 42, 0
12, 47568, Note_on_c, 9, 42, 64
12, 47592, Note_on_c, 9, 42, 0
12, 47616, Note_on_c, 9, 35, 96
12, 47616, Note_on_c, 9, 42, 80
12, 47640, Note_on_c, 9, 42, 0
12, 47664, Note_on_c, 9, 35, 0
12, 47664, Note_on_c, 9, 42, 64
12, 47688, Note_on_c, 9, 42, 0
12, 47712, Note_on_c, 9, 42, 80
12, 47736, Note_on_c, 9, 42, 0
12, 47760, Note_on_c, 9, 42, 64
12, 47784, Note_on_c, 9, 42, 0
12, 47808, Note_on_c, 9, 35, 96
12, 47808, Note_on_c, 9, 38, 112
12, 47808, Note_on_c, 9, 42, 80
12, 47808, Note_on_c, 9, 46, 80
12, 47832, Note_on_c, 9, 46, 0
12, 47832, Note_on_c, 9, 42, 0
12, 47856, Note_on_c, 9, 38, 0
12, 47856, Note_on_c, 9, 35, 0
12, 47856, Note_on_c, 9, 42, 80
12, 47880, Note_on_c, 9, 42, 0
12, 47904, Note_on_c, 9, 42, 64
12, 47928, Note_on_c, 9, 42, 0
12, 47952, Note_on_c, 9, 42, 96
12, 47952, Note_on_c, 9, 46, 112
12, 47976, Note_on_c, 9, 46, 0
12, 47976, Note_on_c, 9, 42, 0
12, 48000, Note_on_c, 9, 35, 96
12, 48000, Note_on_c, 9, 42, 80
12, 48024, Note_on_c, 9, 42, 0
12, 48048, Note_on_c, 9, 35, 0
12, 48048, Note_on_c, 9, 42, 64
12, 48048, Note_on_c, 9, 46, 112
12, 48072, Note_on_c, 9, 46, 0
12, 48072, Note_on_c, 9, 42, 0
12, 48096, Note_on_c, 9, 42, 80
12, 48120, Note_on_c, 9, 42, 0
12, 48144, Note_on_c, 9, 42, 80
12, 48168, Note_on_c, 9, 42, 0
12, 48192, Note_on_c, 9, 35, 96
12, 48192, Note_on_c, 9, 38, 112
12, 48192, Note_on_c, 9, 42, 64
12, 48192, Note_on_c, 9, 46, 112
12, 48216, Note_on_c, 9, 46, 0
12, 48216, Note_on_c, 9, 42, 0
12, 48240, Note_on_c, 9, 38, 0
12, 48240, Note_on_c, 9, 35, 0
12, 48240, Note_on_c, 9, 42, 96
12, 48264, Note_on_c, 9, 42, 0
12, 48288, Note_on_c, 9, 42, 80
12, 48312, Note_on_c, 9, 42, 0
12, 48336, Note_on_c, 9, 42, 64
12, 48360, Note_on_c, 9, 42, 0
12, 48384, Note_on_c, 9, 35, 96
12, 48384, Note_on_c, 9, 42, 80
12, 48408, Note_on_c, 9, 42, 0
12, 48432, Note_on_c, 9, 35, 0
12, 48432, Note_on_c, 9, 42, 64
12, 48456, Note_on_c, 9, 42, 0
12, 48480, Note_on_c, 9, 42, 80
12, 48504, Note_on_c, 9, 42, 0
12, 48528, Note_on_c, 9, 42, 64
12, 48552, Note_on_c, 9, 42, 0
12, 48576, Note_on_c, 9, 35, 96
12, 48576, Note_on_c, 9, 38, 112
12, 48576, Note_on_c, 9, 42, 80
12, 48576, Note_on_c, 9, 46, 80
12, 48600, Note_on_c, 9, 46, 0
12, 48600, Note_on_c, 9, 42, 0
12, 48624, Note_on_c, 9, 38, 0
12, 48624, Note_on_c, 9, 35, 0
12, 48624, Note_on_c, 9, 42, 80
12, 48648, Note_on_c, 9, 42, 0
12, 48672, Note_on_c, 9, 42, 64
12, 48696, Note_on_c, 9, 42, 0
12, 48720, Note_on_c, 9, 42, 96
12, 48720, Note_on_c, 9, 46, 112
12, 48744, Note_on_c, 9, 46, 0
12, 48744, Note_on_c, 9, 42, 0
12, 48768, Note_on_c, 9, 35, 96
12, 48768, Note_on_c, 9, 42, 80
12, 48792, Note_on_c, 9, 42, 0
12, 48816, Note_on_c, 9, 35, 0
12, 48816, Note_on_c, 9, 42, 64
12, 48816, Note_on_c, 9, 46, 112
12, 48840, Note_on_c, 9, 46, 0
12, 48840, Note_on_c, 9, 42, 0
12, 48864, Note_on_c, 9, 42, 80
12, 48888, Note_on_c, 9, 42, 0
12, 48912, Note_on_c, 9, 42, 80
12, 48936, Note_on_c, 9, 42, 0
12, 48960, Note_on_c, 9, 35, 96
12, 48960, Note_on_c, 9, 38, 112
12, 48960, Note_on_c, 9, 42, 64
12, 48960, Note_on_c, 9, 46, 112
12, 48984, Note_on_c, 9, 46, 0
12, 48984, Note_on_c, 9, 42, 0
12, 49008, Note_on_c, 9, 38, 0
12, 49008, Note_on_c, 9, 35, 0
12, 49008, Note_on_c, 9, 42, 96
12, 49032, Note_on_c, 9, 42, 0
12, 49056, Note_on_c, 9, 42, 80
12, 49080, Note_on_c, 9, 42, 0
12, 49104, Note_on_c, 9, 42, 64
12, 49128, Note_on_c, 9, 42, 0
12, 49152, Note_on_c, 9, 35, 96
12, 49152, Note_on_c, 9, 42, 80
12, 49176, Note_on_c, 9, 42, 0
12, 49200, Note_on_c, 9, 35, 0
12, 49200, Note_on_c, 9, 42, 64
12, 49224, Note_on_c, 9, 42, 0
12, 49248, Note_on_c, 9, 42, 80
12, 49248, Note_on_c, 9, 48, 80
12, 49272, Note_on_c, 9, 48, 0
12, 49272, Note_on_c, 9, 42, 0
12, 49296, Note_on_c, 9, 42, 64
12, 49320, Note_on_c, 9, 42, 0
12, 49344, Note_on_c, 9, 35, 96
12, 49344, Note_on_c, 9, 38, 112
12, 49344, Note_on_c, 9, 42, 80
12, 49344, Note_on_c, 9, 48, 80
12, 49368, Note_on_c, 9, 48, 0
12, 49368, Note_on_c, 9, 42, 0
12, 49392, Note_on_c, 9, 38, 0
12, 49392, Note_on_c, 9, 35, 0
12, 49392, Note_on_c, 9, 42, 80
12, 49416, Note_on_c, 9, 42, 0
12, 49440, Note_on_c, 9, 42, 64
12, 49440, Note_on_c, 9, 45, 96
12, 49464, Note_on_c, 9, 45, 0
12, 49464, Note_on_c, 9, 42, 0
12, 49488, Note_on_c, 9, 42, 96
12, 49512, Note_on_c, 9, 42, 0
12, 49536, Note_on_c, 9, 35, 96
12, 49536, Note_on_c, 9, 42, 80
12, 49536, Note_on_c, 9, 45, 96
12, 49560, Note_on_c, 9, 45, 0
12, 49560, Note_on_c, 9, 42, 0
12, 49584, Note_on_c, 9, 35, 0
12, 49584, Note_on_c, 9, 42, 64
12, 49608, Note_on_c, 9, 42, 0
12, 49632, Note_on_c, 9, 42, 80
12, 49632, Note_on_c, 9, 48, 96
12, 49656, Note_on_c, 9, 48, 0
12, 49656, Note_on_c, 9, 42, 0
12, 49680, Note_on_c, 9, 42, 80
12, 49680, Note_on_c, 9, 45, 96
12, 49704, Note_on_c, 9, 45, 0
12, 49704, Note_on_c, 9, 42, 0
12, 49728, Note_on_c, 9, 35, 96
12, 49728, Note_on_c, 9, 38, 112
12, 49728, Note_on_c, 9, 42, 64
12, 49752, Note_on_c, 9, 42, 0
12, 49776, Note_on_c, 9, 38, 0
12, 49776, Note_on_c, 9, 35, 0
12, 49776, Note_on_c, 9, 42, 96
12, 49776, Note_on_c, 9, 48, 96
12, 49800, Note_on_c, 9, 48, 0
12, 49800, Note_on_c, 9, 42, 0
12, 49824, Note_on_c, 9, 42, 80
12, 49824, Note_on_c, 9, 41, 80
12, 49848, Note_on_c, 9, 41, 0
12, 49848, Note_on_c, 9, 42, 0
12, 49872, Note_on_c, 9, 42, 64
12, 49872, Note_on_c, 9, 41, 80
12, 49896, Note_on_c, 9, 41, 0
12, 49896, Note_on_c, 9, 42, 0
12, 49896, Note_on_c, 9, 49, 96
12, 49908, Note_on_c, 9, 49, 0
12, 49920, Note_on_c, 9, 35, 96
12, 49920, Note_on_c, 9, 42, 80
12, 49944, Note_on_c, 9, 42, 0
12, 49968, Note_on_c, 9, 35, 0
12, 49968, Note_on_c, 9, 42, 64
12, 49992, Note_on_c, 9, 42, 0
12, 50016, Note_on_c, 9, 42, 80
12, 50040, Note_on_c, 9, 42, 0
12, 50064, Note_on_c, 9, 42, 64
12, 50088, Note_on_c, 9, 42, 0
12, 50112, Note_on_c, 9, 35, 96
12, 50112, Note_on_c, 9, 38, 112
12, 50112, Note_on_c, 9, 42, 80
12, 50112, Note_on_c, 9, 46, 80
12, 50136, Note_on_c, 9, 46, 0
12, 50136, Note_on_c, 9, 42, 0
12, 50160, Note_on_c, 9, 38, 0
12, 50160, Note_on_c, 9, 35, 0
12, 50160, Note_on_c, 9, 42, 80
12, 50184, Note_on_c, 9, 42, 0
12, 50208, Note_on_c, 9, 42, 64
12, 50232, Note_on_c, 9, 42, 0
12, 50256, Note_on_c, 9, 42, 96
12, 50256, Note_on_c, 9, 46, 112
12, 50280, Note_on_c, 9, 46, 0
12, 50280, Note_on_c, 9, 42, 0
12, 50304, Note_on_c, 9, 35, 96
12, 50304, Note_on_c, 9, 42, 80
12, 50328, Note_on_c, 9, 42, 0
12, 50352, Note_on_c, 9, 35, 0
12, 50352, Note_on_c, 9, 42, 64
12, 50352, Note_on_c, 9, 46, 112
12, 50376, Note_on_c, 9, 46, 0
12, 50376, Note_on_c, 9, 42, 0
12, 50400, Note_on_c, 9, 42, 80
12, 50424, Note_on_c, 9, 42, 0
12, 50448, Note_on_c, 9, 42, 80
12, 50472, Note_on_c, 9, 42, 0
12, 50496, Note_on_c, 9, 35, 96
12, 50496, Note_on_c, 9, 38, 112
12, 50496, Note_on_c, 9, 42, 64
12, 50496, Note_on_c, 9, 46, 112
12, 50520, Note_on_c, 9, 46, 0
12, 50520, Note_on_c, 9, 42, 0
12, 50544, Note_on_c, 9, 38, 0
12, 50544, Note_on_c, 9, 35, 0
12, 50544, Note_on_c, 9, 42, 96
12, 50568, Note_on_c, 9, 42, 0
12, 50592, Note_on_c, 9, 42, 80
12, 50616, Note_on_c, 9, 42, 0
12, 50640, Note_on_c, 9, 42, 64
12, 50664, Note_on_c, 9, 42, 0
12, 50688, Note_on_c, 9, 35, 96
12, 50688, Note_on_c, 9, 42, 80
12, 50712, Note_on_c, 9, 42, 0
12, 50736, Note_on_c, 9, 35, 0
12, 50736, Note_on_c, 9, 42, 64
12, 50760, Note_on_c, 9, 42, 0
12, 50784, Note_on_c, 9, 42, 80
12, 50808, Note_on_c, 9, 42, 0
12, 50832, Note_on_c, 9, 42, 64
12, 50856, Note_on_c, 9, 42, 0
12, 50880, Note_on_c, 9, 35, 96
12, 50880, Note_on_c, 9, 38, 112
12, 50880, Note_on_c, 9, 42, 80
12, 50880, Note_on_c, 9, 46, 80
12, 50904, Note_on_c, 9, 46, 0
12, 50904, Note_on_c, 9, 42, 0
12, 50928, Note_on_c, 9, 38, 0
12, 50928, Note_on_c, 9, 35, 0
12, 50928, Note_on_c, 9, 42, 80
12, 50952, Note_on_c, 9, 42, 0
12, 50976, Note_on_c, 9, 42, 64
12, 51000, Note_on_c, 9, 42, 0
12, 51024, Note_on_c, 9, 42, 96
12, 51024, Note_on_c, 9, 46, 112
12, 51048, Note_on_c, 9, 46, 0
12, 51048, Note_on_c, 9, 42, 0
12, 51072, Note_on_c, 9, 35, 96
12, 51072, Note_on_c, 9, 42, 80
12, 51096, Note_on_c, 9, 42, 0
12, 51120, Note_on_c, 9, 35, 0
12, 51120, Note_on_c, 9, 42, 64
12, 51120, Note_on_c, 9, 46, 112
12, 51144, Note_on_c, 9, 46, 0
12, 51144, Note_on_c, 9, 42, 0
12, 51168, Note_on_c, 9, 42, 80
12, 51192, Note_on_c, 9, 42, 0
12, 51216, Note_on_c, 9, 42, 80
12, 51240, Note_on_c, 9, 42, 0
12, 51264, Note_on_c, 9, 35, 96
12, 51264, Note_on_c, 9, 38, 112
12, 51264, Note_on_c, 9, 42, 64
12, 51264, Note_on_c, 9, 46, 112
12, 51288, Note_on_c, 9, 46, 0
12, 51288, Note_on_c, 9, 42, 0
12, 51312, Note_on_c, 9, 38, 0
12, 51312, Note_on_c, 9, 35, 0
12, 51312, Note_on_c, 9, 42, 96
12, 51336, Note_on_c, 9, 42, 0
12, 51360, Note_on_c, 9, 42, 80
12, 51384, Note_on_c, 9, 42, 0
12, 51408, Note_on_c, 9, 42, 64
12, 51432, Note_on_c, 9, 42, 0
12, 51456, Note_on_c, 9, 35, 96
12, 51456, Note_on_c, 9, 42, 80
12, 51480, Note_on_c, 9, 42, 0
12, 51504, Note_on_c, 9, 35, 0
12, 51504, Note_on_c, 9, 42, 64
12, 51528, Note_on_c, 9, 42, 0
12, 51552, Note_on_c, 9, 42, 80
12, 51576, Note_on_c, 9, 42, 0
12, 51600, Note_on_c, 9, 42, 64
12, 51624, Note_on_c, 9, 42, 0
12, 51648, Note_on_c, 9, 35, 96
12, 51648, Note_on_c, 9, 38, 112
12, 51648, Note_on_c, 9, 42, 80
12, 51648, Note_on_c, 9, 46, 80
12, 51672, Note_on_c, 9, 46, 0
12, 51672, Note_on_c, 9, 42, 0
12, 51696, Note_on_c, 9, 38, 0
12, 51696, Note_on_c, 9, 35, 0
12, 51696, Note_on_c, 9, 42, 80
12, 51720, Note_on_c, 9, 42, 0
12, 51744, Note_on_c, 9, 42, 64
12, 51768, Note_on_c, 9, 42, 0
12, 51792, Note_on_c, 9, 42, 96
12, 51792, Note_on_c, 9, 46, 112
12, 51816, Note_on_c, 9, 46, 0
12, 51816, Note_on_c, 9, 42, 0
12, 51840, Note_on_c, 9, 35, 96
12, 51840, Note_on_c, 9, 42, 80
12, 51864, Note_on_c, 9, 42, 0
12, 51888, Note_on_c, 9, 35, 0
12, 51888, Note_on_c, 9, 42, 64
12, 51888, Note_on_c, 9, 46, 112
12, 51912, Note_on_c, 9, 46, 0
12, 51912, Note_on_c, 9, 42, 0
12, 51936, Note_on_c, 9, 42, 80
12, 51960, Note_on_c, 9, 42, 0
12, 51984, Note_on_c, 9, 42, 80
12, 52008, Note_on_c, 9, 42, 0
12, 52032, Note_on_c, 9, 35, 96
12, 52032, Note_on_c, 9, 38, 112
12, 52032, Note_on_c, 9, 42, 64
12, 52032, Note_on_c, 9, 46, 112
12, 52056, Note_on_c, 9, 46, 0
12, 52056, Note_on_c, 9, 42, 0
12, 52080, Note_on_c, 9, 38, 0
12, 52080, Note_on_c, 9, 35, 0
12, 52080, Note_on_c, 9, 42, 96
12, 52104, Note_on_c, 9, 42, 0
12, 52128, Note_on_c, 9, 42, 80
12, 52152, Note_on_c, 9, 42, 0
12, 52176, Note_on_c, 9, 42, 64
12, 52200, Note_on_c, 9, 42, 0
12, 52224, Note_on_c, 9, 35, 96
12, 52224, Note_on_c, 9, 42, 80
12, 52248, Note_on_c, 9, 42, 0
12, 52272, Note_on_c, 9, 35, 0
12, 52272, Note_on_c, 9, 42, 64
12, 52296, Note_on_c, 9, 42, 0
12, 52320, Note_on_c, 9, 42, 80
12, 52344, Note_on_c, 9, 42, 0
12, 52368, Note_on_c, 9, 42, 64
12, 52392, Note_on_c, 9, 42, 0
12, 52416, Note_on_c, 9, 35, 96
12, 52416, Note_on_c, 9, 38, 112
12, 52416, Note_on_c, 9, 42, 80
12, 52416, Note_on_c, 9, 46, 80
12, 52440, Note_on_c, 9, 46, 0
12, 52440, Note_on_c, 9, 42, 0
12, 52464, Note_on_c, 9, 38, 0
12, 52464, Note_on_c, 9, 35, 0
12, 52464, Note_on_c, 9, 42, 80
12, 52488, Note_on_c, 9, 42, 0
12, 52512, Note_on_c, 9, 42, 64
12, 52536, Note_on_c, 9, 42, 0
12, 52560, Note_on_c, 9, 42, 96
12, 52560, Note_on_c, 9, 46, 112
12, 52584, Note_on_c, 9, 46, 0
12, 52584, Note_on_c, 9, 42, 0
12, 52608, Note_on_c, 9, 35, 96
12, 52608, Note_on_c, 9, 42, 80
12, 52632, Note_on_c, 9, 42, 0
12, 52656, Note_on_c, 9, 35, 0
12, 52656, Note_on_c, 9, 42, 64
12, 52656, Note_on_c, 9, 46, 112
12, 52680, Note_on_c, 9, 46, 0
12, 52680, Note_on_c, 9, 42, 0
12, 52704, Note_on_c, 9, 42, 80
12, 52728, Note_on_c, 9, 42, 0
12, 52752, Note_on_c, 9, 42, 80
12, 52776, Note_on_c, 9, 42, 0
12, 52800, Note_on_c, 9, 35, 96
12, 52800, Note_on_c, 9, 38, 112
12, 52800, Note_on_c, 9, 42, 64
12, 52800, Note_on_c, 9, 46, 112
12, 52824, Note_on_c, 9, 46, 0
12, 52824, Note_on_c, 9, 42, 0
12, 52848, Note_on_c, 9, 38, 0
12, 52848, Note_on_c, 9, 35, 0
12, 52848, Note_on_c, 9, 42, 96
12, 52872, Note_on_c, 9, 42, 0
12, 52896, Note_on_c, 9, 42, 80
12, 52920, Note_on_c, 9, 42, 0
12, 52944, Note_on_c, 9, 42, 64
12, 52968, Note_on_c, 9, 42, 0
12, 52992, Note_on_c, 9, 35, 96
12, 52992, Note_on_c, 9, 42, 80
12, 53016, Note_on_c, 9, 42, 0
12, 53040, Note_on_c, 9, 35, 0
12, 53040, Note_on_c, 9, 42, 64
12, 53064, Note_on_c, 9, 42, 0
12, 53088, Note_on_c, 9, 42, 80
12, 53112, Note_on_c, 9, 42, 0
12, 53136, Note_on_c, 9, 42, 64
12, 53160, Note_on_c, 9, 42, 0
12, 53184, Note_on_c, 9, 35, 96
12, 53184, Note_on_c, 9, 38, 112
12, 53184, Note_on_c, 9, 42, 80
12, 53184, Note_on_c, 9, 46, 80
12, 53208, Note_on_c, 9, 46, 0
12, 53208, Note_on_c, 9, 42, 0
12, 53232, Note_on_c, 9, 38, 0
12, 53232, Note_on_c, 9, 35, 0
12, 53232, Note_on_c, 9, 42, 80
12, 53256, Note_on_c, 9, 42, 0
12, 53280, Note_on_c, 9, 42, 64
12, 53304, Note_on_c, 9, 42, 0
12, 53328, Note_on_c, 9, 42, 96
12, 53328, Note_on_c, 9, 46, 112
12, 53352, Note_on_c, 9, 46, 0
12, 53352, Note_on_c, 9, 42, 0
12, 53376, Note_on_c, 9, 35, 96
12, 53376, Note_on_c, 9, 42, 80
12, 53400, Note_on_c, 9, 42, 0
12, 53424, Note_on_c, 9, 35, 0
12, 53424, Note_on_c, 9, 42, 64
12, 53424, Note_on_c, 9, 46, 112
12, 53448, Note_on_c, 9, 46, 0
12, 53448, Note_on_c, 9, 42, 0
12, 53472, Note_on_c, 9, 42, 80
12, 53496, Note_on_c, 9, 42, 0
12, 53520, Note_on_c, 9, 42, 80
12, 53544, Note_on_c, 9, 42, 0
12, 53568, Note_on_c, 9, 35, 96
12, 53568, Note_on_c, 9, 38, 112
12, 53568, Note_on_c, 9, 42, 64
12, 53568, Note_on_c, 9, 46, 112
12, 53592, Note_on_c, 9, 46, 0
12, 53592, Note_on_c, 9, 42, 0
12, 53616, Note_on_c, 9, 38, 0
12, 53616, Note_on_c, 9, 35, 0
12, 53616, Note_on_c, 9, 42, 96
12, 53640, Note_on_c, 9, 42, 0
12, 53664, Note_on_c, 9, 42, 80
12, 53688, Note_on_c, 9, 42, 0
12, 53712, Note_on_c, 9, 42, 64
12, 53736, Note_on_c, 9, 42, 0
12, 53760, Note_on_c, 9, 35, 96
12, 53760, Note_on_c, 9, 42, 80
12, 53784, Note_on_c, 9, 42, 0
12, 53808, Note_on_c, 9, 35, 0
12, 53808, Note_on_c, 9, 42, 64
12, 53832, Note_on_c, 9, 42, 0
12, 53856, Note_on_c, 9, 42, 80
12, 53880, Note_on_c, 9, 42, 0
12, 53904, Note_on_c, 9, 42, 64
12, 53928, Note_on_c, 9, 42, 0
12, 53952, Note_on_c, 9, 35, 96
12, 53952, Note_on_c, 9, 38, 112
12, 53952, Note_on_c, 9, 42, 80
12, 53952, Note_on_c, 9, 46, 80
12, 53976, Note_on_c, 9, 46, 0
12, 53976, Note_on_c, 9, 42, 0
12, 54000, Note_on_c, 9, 38, 0
12, 54000, Note_on_c, 9, 35, 0
12, 54000, Note_on_c, 9, 42, 80
12, 54024, Note_on_c, 9, 42, 0
12, 54048, Note_on_c, 9, 42, 64
12, 54072, Note_on_c, 9, 42, 0
12, 54096, Note_on_c, 9, 42, 96
12, 54096, Note_on_c, 9, 46, 112
12, 54120, Note_on_c, 9, 46, 0
12, 54120, Note_on_c, 9, 42, 0
12, 54144, Note_on_c, 9, 35, 96
12, 54144, Note_on_c, 9, 42, 80
12, 54168, Note_on_c, 9, 42, 0
12, 54192, Note_on_c, 9, 35, 0
12, 54192, Note_on_c, 9, 42, 64
12, 54192, Note_on_c, 9, 46, 112
12, 54216, Note_on_c, 9, 46, 0
12, 54216, Note_on_c, 9, 42, 0
12, 54240, Note_on_c, 9, 42, 80
12, 54264, Note_on_c, 9, 42, 0
12, 54288, Note_on_c, 9, 42, 80
12, 54312, Note_on_c, 9, 42, 0
12, 54336, Note_on_c, 9, 35, 96
12, 54336, Note_on_c, 9, 38, 112
12, 54336, Note_on_c, 9, 42, 64
12, 54336, Note_on_c, 9, 46, 112
12, 54360, Note_on_c, 9, 46, 0
12, 54360, Note_on_c, 9, 42, 0
12, 54384, Note_on_c, 9, 38, 0
12, 54384, Note_on_c, 9, 35, 0
12, 54384, Note_on_c, 9, 42, 96
12, 54408, Note_on_c, 9, 42, 0
12, 54432, Note_on_c, 9, 42, 80
12, 54456, Note_on_c, 9, 42, 0
12, 54480, Note_on_c, 9, 42, 64
12, 54504, Note_on_c, 9, 42, 0
12, 54528, Note_on_c, 9, 35, 96
12, 54528, Note_on_c, 9, 42, 80
12, 54552, Note_on_c, 9, 42, 0
12, 54576, Note_on_c, 9, 35, 0
12, 54576, Note_on_c, 9, 42, 64
12, 54600, Note_on_c, 9, 42, 0
12, 54624, Note_on_c, 9, 42, 80
12, 54648, Note_on_c, 9, 42, 0
12, 54672, Note_on_c, 9, 42, 64
12, 54696, Note_on_c, 9, 42, 0
12, 54720, Note_on_c, 9, 35, 96
12, 54720, Note_on_c, 9, 38, 112
12, 54720, Note_on_c, 9, 42, 80
12, 54720, Note_on_c, 9, 46, 80
12, 54744, Note_on_c, 9, 46, 0
12, 54744, Note_on_c, 9, 42, 0
12, 54768, Note_on_c, 9, 38, 0
12, 54768, Note_on_c, 9, 35, 0
12, 54768, Note_on_c, 9, 42, 80
12, 54792, Note_on_c, 9, 42, 0
12, 54816, Note_on_c, 9, 42, 64
12, 54840, Note_on_c, 9, 42, 0
12, 54864, Note_on_c, 9, 42, 96
12, 54864, Note_on_c, 9, 46, 112
12, 54888, Note_on_c, 9, 46, 0
12, 54888, Note_on_c, 9, 42, 0
12, 54912, Note_on_c, 9, 35, 96
12, 54912, Note_on_c, 9, 42, 80
12, 54936, Note_on_c, 9, 42, 0
12, 54960, Note_on_c, 9, 35, 0
12, 54960, Note_on_c, 9, 42, 64
12, 54960, Note_on_c, 9, 46, 112
12, 54984, Note_on_c, 9, 46, 0
12, 54984, Note_on_c, 9, 42, 0
12, 55008, Note_on_c, 9, 42, 80
12, 55032, Note_on_c, 9, 42, 0
12, 55056, Note_on_c, 9, 42, 80
12, 55080, Note_on_c, 9, 42, 0
12, 55104, Note_on_c, 9, 35, 96
12, 55104, Note_on_c, 9, 38, 112
12, 55104, Note_on_c, 9, 42, 64
12, 55104, Note_on_c, 9, 46, 112
12, 55128, Note_on_c, 9, 46, 0
12, 55128, Note_on_c, 9, 42, 0
12, 55152, Note_on_c, 9, 38, 0
12, 55152, Note_on_c, 9, 35, 0
12, 55152, Note_on_c, 9, 42, 96
12, 55176, Note_on_c, 9, 42, 0
12, 55200, Note_on_c, 9, 42, 80
12, 55224, Note_on_c, 9, 42, 0
12, 55248, Note_on_c, 9, 42, 64
12, 55272, Note_on_c, 9, 42, 0
12, 55296, Note_on_c, 9, 35, 96
12, 55296, Note_on_c, 9, 38, 48
12, 55296, Note_on_c, 9, 42, 80
12, 55320, Note_on_c, 9, 42, 0
12, 55320, Note_on_c, 9, 38, 0
12, 55344, Note_on_c, 9, 35, 0
12, 55344, Note_on_c, 9, 38, 48
12, 55344, Note_on_c, 9, 42, 64
12, 55368, Note_on_c, 9, 42, 0
12, 55368, Note_on_c, 9, 38, 0
12, 55392, Note_on_c, 9, 38, 48
12, 55392, Note_on_c, 9, 42, 80
12, 55416, Note_on_c, 9, 42, 0
12, 55416, Note_on_c, 9, 38, 0
12, 55440, Note_on_c, 9, 38, 48
12, 55440, Note_on_c, 9, 42, 64
12, 55464, Note_on_c, 9, 42, 0
12, 55464, Note_on_c, 9, 38, 0
12, 55488, Note_on_c, 9, 35, 96
12, 55488, Note_on_c, 9, 38, 64
12, 55488, Note_on_c, 9, 42, 80
12, 55512, Note_on_c, 9, 42, 0
12, 55512, Note_on_c, 9, 38, 0
12, 55536, Note_on_c, 9, 35, 0
12, 55536, Note_on_c, 9, 38, 64
12, 55536, Note_on_c, 9, 42, 80
12, 55560, Note_on_c, 9, 42, 0
12, 55560, Note_on_c, 9, 38, 0
12, 55584, Note_on_c, 9, 38, 64
12, 55584, Note_on_c, 9, 42, 64
12, 55608, Note_on_c, 9, 42, 0
12, 55608, Note_on_c, 9, 38, 0
12, 55632, Note_on_c, 9, 38, 64
12, 55632, Note_on_c, 9, 42, 96
12, 55656, Note_on_c, 9, 42, 0
12, 55656, Note_on_c, 9, 38, 0
12, 55680, Note_on_c, 9, 35, 96
12, 55680, Note_on_c, 9, 38, 80
12, 55680, Note_on_c, 9, 42, 80
12, 55704, Note_on_c, 9, 42, 0
12, 55704, Note_on_c, 9, 38, 0
12, 55728, Note_on_c, 9, 35, 0
12, 55728, Note_on_c, 9, 38, 80
12, 55728, Note_on_c, 9, 42, 64
12, 55752, Note_on_c, 9, 42, 0
12, 55752, Note_on_c, 9, 38, 0
12, 55776, Note_on_c, 9, 38, 80
12, 55776, Note_on_c, 9, 42, 80
12, 55800, Note_on_c, 9, 42, 0
12, 55800, Note_on_c, 9, 38, 0
12, 55824, Note_on_c, 9, 38, 80
12, 55824, Note_on_c, 9, 42, 80
12, 55848, Note_on_c, 9, 42, 0
12, 55848, Note_on_c, 9, 38, 0
12, 55872, Note_on_c, 9, 35, 96
12, 55872, Note_on_c, 9, 38, 96
12, 55872, Note_on_c, 9, 42, 64
12, 55896, Note_on_c, 9, 42, 0
12, 55896, Note_on_c, 9, 38, 0
12, 55920, Note_on_c, 9, 35, 0
12, 55920, Note_on_c, 9, 38, 96
12, 55920, Note_on_c, 9, 42, 96
12, 55944, Note_on_c, 9, 42, 0
12, 55944, Note_on_c, 9, 38, 0
12, 55968, Note_on_c, 9, 38, 112
12, 55968, Note_on_c, 9, 42, 80
12, 55992, Note_on_c, 9, 42, 0
12, 55992, Note_on_c, 9, 38, 0
12, 56016, Note_on_c, 9, 38, 127
12, 56016, Note_on_c, 9, 42, 64
12, 56040, Note_on_c, 9, 42, 0
12, 56040, Note_on_c, 9, 38, 0
12, 56040, Note_on_c, 9, 49, 96
12, 56052, Note_on_c, 9, 49, 0
12, 56064, Note_on_c, 9, 35, 96
12, 56064, Note_on_c, 9, 42, 80
12, 56088, Note_on_c, 9, 42, 0
12, 56112, Note_on_c, 9, 35, 0
12, 56112, Note_on_c, 9, 42, 64
12, 56136, Note_on_c, 9, 42, 0
12, 56160, Note_on_c, 9, 42, 80
12, 56184, Note_on_c, 9, 42, 0
12, 56208, Note_on_c, 9, 42, 64
12, 56232, Note_on_c, 9, 42, 0
12, 56256, Note_on_c, 9, 35, 96
12, 56256, Note_on_c, 9, 38, 112
12, 56256, Note_on_c, 9, 42, 80
12, 56256, Note_on_c, 9, 46, 80
12, 56280, Note_on_c, 9, 46, 0
12, 56280, Note_on_c, 9, 42, 0
12, 56304, Note_on_c, 9, 38, 0
12, 56304, Note_on_c, 9, 35, 0
12, 56304, Note_on_c, 9, 42, 80
12, 56328, Note_on_c, 9, 42, 0
12, 56352, Note_on_c, 9, 42, 64
12, 56376, Note_on_c, 9, 42, 0
12, 56400, Note_on_c, 9, 42, 96
12, 56400, Note_on_c, 9, 46, 112
12, 56424, Note_on_c, 9, 46, 0
12, 56424, Note_on_c, 9, 42, 0
12, 56448, Note_on_c, 9, 35, 96
12, 56448, Note_on_c, 9, 42, 80
12, 56472, Note_on_c, 9, 42, 0
12, 56496, Note_on_c, 9, 35, 0
12, 56496, Note_on_c, 9, 42, 64
12, 56496, Note_on_c, 9, 46, 112
12, 56520, Note_on_c, 9, 46, 0
12, 56520, Note_on_c, 9, 42, 0
12, 56544, Note_on_c, 9, 42, 80
12, 56568, Note_on_c, 9, 42, 0
12, 56592, Note_on_c, 9, 42, 80
12, 56616, Note_on_c, 9, 42, 0
12, 56640, Note_on_c, 9, 35, 96
12, 56640, Note_on_c, 9, 38, 112
12, 56640, Note_on_c, 9, 42, 64
12, 56640, Note_on_c, 9, 46, 112
12, 56664, Note_on_c, 9, 46, 0
12, 56664, Note_on_c, 9, 42, 0
12, 56688, Note_on_c, 9, 38, 0
12, 56688, Note_on_c, 9, 35, 0
12, 56688, Note_on_c, 9, 42, 96
12, 56712, Note_on_c, 9, 42, 0
12, 56736, Note_on_c, 9, 42, 80
12, 56760, Note_on_c, 9, 42, 0
12, 56784, Note_on_c, 9, 42, 64
12, 56808, Note_on_c, 9, 42, 0
12, 56832, Note_on_c, 9, 35, 96
12, 56832, Note_on_c, 9, 42, 80
12, 56856, Note_on_c, 9, 42, 0
12, 56880, Note_on_c, 9, 35, 0
12, 56880, Note_on_c, 9, 42, 64
12, 56904, Note_on_c, 9, 42, 0
12, 56928, Note_on_c, 9, 42, 80
12, 56952, Note_on_c, 9, 42, 0
12, 56976, Note_on_c, 9, 42, 64
12, 57000, Note_on_c, 9, 42, 0
12, 57024, Note_on_c, 9, 35, 96
12, 57024, Note_on_c, 9, 38, 112
12, 57024, Note_on_c, 9, 42, 80
12, 57024, Note_on_c, 9, 46, 80
12, 57048, Note_on_c, 9, 46, 0
12, 57048, Note_on_c, 9, 42, 0
12, 57072, Note_on_c, 9, 38, 0
12, 57072, Note_on_c, 9, 35, 0
12, 57072, Note_on_c, 9, 42, 80
12, 57096, Note_on_c, 9, 42, 0
12, 57120, Note_on_c, 9, 42, 64
12, 57144, Note_on_c, 9, 42, 0
12, 57168, Note_on_c, 9, 42, 96
12, 57168, Note_on_c, 9, 46, 112
12, 57192, Note_on_c, 9, 46, 0
12, 57192, Note_on_c, 9, 42, 0
12, 57216, Note_on_c, 9, 35, 96
12, 57216, Note_on_c, 9, 42, 80
12, 57240, Note_on_c, 9, 42, 0
12, 57264, Note_on_c, 9, 35, 0
12, 57264, Note_on_c, 9, 42, 64
12, 57264, Note_on_c, 9, 46, 112
12, 57288, Note_on_c, 9, 46, 0
12, 57288, Note_on_c, 9, 42, 0
12, 57312, Note_on_c, 9, 42, 80
12, 57336, Note_on_c, 9, 42, 0
12, 57360, Note_on_c, 9, 42, 80
12, 57384, Note_on_c, 9, 42, 0
12, 57408, Note_on_c, 9, 35, 96
12, 57408, Note_on_c, 9, 38, 112
12, 57408, Note_on_c, 9, 42, 64
12, 57408, Note_on_c, 9, 46, 112
12, 57432, Note_on_c, 9, 46, 0
12, 57432, Note_on_c, 9, 42, 0
12, 57456, Note_on_c, 9, 38, 0
12, 57456, Note_on_c, 9, 35, 0
12, 57456, Note_on_c, 9, 42, 96
12, 57480, Note_on_c, 9, 42, 0
12, 57504, Note_on_c, 9, 42, 80
12, 57528, Note_on_c, 9, 42, 0
12, 57552, Note_on_c, 9, 42, 64
12, 57576, Note_on_c, 9, 42, 0
12, 57600, Note_on_c, 9, 35, 96
12, 57600, Note_on_c, 9, 42, 80
12, 57624, Note_on_c, 9, 42, 0
12, 57648, Note_on_c, 9, 35, 0
12, 57648, Note_on_c, 9, 42, 64
12, 57672, Note_on_c, 9, 42, 0
12, 57696, Note_on_c, 9, 42, 80
12, 57720, Note_on_c, 9, 42, 0
12, 57744, Note_on_c, 9, 42, 64
12, 57768, Note_on_c, 9, 42, 0
12, 57792, Note_on_c, 9, 35, 96
12, 57792, Note_on_c, 9, 38, 112
12, 57792, Note_on_c, 9, 42, 80
12, 57792, Note_on_c, 9, 46, 80
12, 57816, Note_on_c, 9, 46, 0
12, 57816, Note_on_c, 9, 42, 0
12, 57840, Note_on_c, 9, 38, 0
12, 57840, Note_on_c, 9, 35, 0
12, 57840, Note_on_c, 9, 42, 80
12, 57864, Note_on_c, 9, 42, 0
12, 57888, Note_on_c, 9, 42, 64
12, 57912, Note_on_c, 9, 42, 0
12, 57936, Note_on_c, 9, 42, 96
12, 57936, Note_on_c, 9, 46, 112
12, 57960, Note_on_c, 9, 46, 0
12, 57960, Note_on_c, 9, 42, 0
12, 57984, Note_on_c, 9, 35, 96
12, 57984, Note_on_c, 9, 42, 80
12, 58008, Note_on_c, 9, 42, 0
12, 58032, Note_on_c, 9, 35, 0
12, 58032, Note_on_c, 9, 42, 64
12, 58032, Note_on_c, 9, 46, 112
12, 58056, Note_on_c, 9, 46, 0
12, 58056, Note_on_c, 9, 42, 0
12, 58080, Note_on_c, 9, 42, 80
12, 58104, Note_on_c, 9, 42, 0
12, 58128, Note_on_c, 9, 42, 80
12, 58152, Note_on_c, 9, 42, 0
12, 58176, Note_on_c, 9, 35, 96
12, 58176, Note_on_c, 9, 38, 112
12, 58176, Note_on_c, 9, 42, 64
12, 58176, Note_on_c, 9, 46, 112
12, 58200, Note_on_c, 9, 46, 0
12, 58200, Note_on_c, 9, 42, 0
12, 58224, Note_on_c, 9, 38, 0
12, 58224, Note_on_c, 9, 35, 0
12, 58224, Note_on_c, 9, 42, 96
12, 58248, Note_on_c, 9, 42, 0
12, 58272, Note_on_c, 9, 42, 80
12, 58296, Note_on_c, 9, 42, 0
12, 58320, Note_on_c, 9, 42, 64
12, 58344, Note_on_c, 9, 42, 0
12, 58368, Note_on_c, 9, 35, 96
12, 58368, Note_on_c, 9, 42, 80
12, 58392, Note_on_c, 9, 42, 0
12, 58416, Note_on_c, 9, 35, 0
12, 58416, Note_on_c, 9, 42, 64
12, 58440, Note_on_c, 9, 42, 0
12, 58464, Note_on_c, 9, 42, 80
12, 58488, Note_on_c, 9, 42, 0
12, 58512, Note_on_c, 9, 42, 64
12, 58536, Note_on_c, 9, 42, 0
12, 58560, Note_on_c, 9, 35, 96
12, 58560, Note_on_c, 9, 38, 112
12, 58560, Note_on_c, 9, 42, 80
12, 58560, Note_on_c, 9, 46, 80
12, 58584, Note_on_c, 9, 46, 0
12, 58584, Note_on_c, 9, 42, 0
12, 58608, Note_on_c, 9, 38, 0
12, 58608, Note_on_c, 9, 35, 0
12, 58608, Note_on_c, 9, 42, 80
12, 58632, Note_on_c, 9, 42, 0
12, 58656, Note_on_c, 9, 42, 64
12, 58680, Note_on_c, 9, 42, 0
12, 58704, Note_on_c, 9, 42, 96
12, 58704, Note_on_c, 9, 46, 112
12, 58728, Note_on_c, 9, 46, 0
12, 58728, Note_on_c, 9, 42, 0
12, 58752, Note_on_c, 9, 35, 96
12, 58752, Note_on_c, 9, 42, 80
12, 58776, Note_on_c, 9, 42, 0
12, 58800, Note_on_c, 9, 35, 0
12, 58800, Note_on_c, 9, 42, 64
12, 58800, Note_on_c, 9, 46, 112
12, 58824, Note_on_c, 9, 46, 0
12, 58824, Note_on_c, 9, 42, 0
12, 58848, Note_on_c, 9, 42, 80
12, 58872, Note_on_c, 9, 42, 0
12, 58896, Note_on_c, 9, 42, 80
12, 58920, Note_on_c, 9, 42, 0
12, 58944, Note_on_c, 9, 35, 96
12, 58944, Note_on_c, 9, 38, 112
12, 58944, Note_on_c, 9, 42, 64
12, 58944, Note_on_c, 9, 46, 112
12, 58968, Note_on_c, 9, 46, 0
12, 58968, Note_on_c, 9, 42, 0
12, 58992, Note_on_c, 9, 38, 0
12, 58992, Note_on_c, 9, 35, 0
12, 58992, Note_on_c, 9, 42, 96
12, 59016, Note_on_c, 9, 42, 0
12, 59040, Note_on_c, 9, 42, 80
12, 59064, Note_on_c, 9, 42, 0
12, 59088, Note_on_c, 9, 42, 64
12, 59112, Note_on_c, 9, 42, 0
12, 59136, Note_on_c, 9, 35, 96
12, 59136, Note_on_c, 9, 42, 80
12, 59160, Note_on_c, 9, 42, 0
12, 59184, Note_on_c, 9, 35, 0
12, 59184, Note_on_c, 9, 42, 64
12, 59208, Note_on_c, 9, 42, 0
12, 59232, Note_on_c, 9, 42, 80
12, 59256, Note_on_c, 9, 42, 0
12, 59280, Note_on_c, 9, 42, 64
12, 59304, Note_on_c, 9, 42, 0
12, 59328, Note_on_c, 9, 35, 96
12, 59328, Note_on_c, 9, 38, 112
12, 59328, Note_on_c, 9, 42, 80
12, 59328, Note_on_c, 9, 46, 80
12, 59352, Note_on_c, 9, 46, 0
12, 59352, Note_on_c, 9, 42, 0
12, 59376, Note_on_c, 9, 38, 0
12, 59376, Note_on_c, 9, 35, 0
12, 59376, Note_on_c, 9, 42, 80
12, 59400, Note_on_c, 9, 42, 0
12, 59424, Note_on_c, 9, 42, 64
12, 59448, Note_on_c, 9, 42, 0
12, 59472, Note_on_c, 9, 42, 96
12, 59472, Note_on_c, 9, 46, 112
12, 59496, Note_on_c, 9, 46, 0
12, 59496, Note_on_c, 9, 42, 0
12, 59520, Note_on_c, 9, 35, 96
12, 59520, Note_on_c, 9, 42, 80
12, 59544, Note_on_c, 9, 42, 0
12, 59568, Note_on_c, 9, 35, 0
12, 59568, Note_on_c, 9, 42, 64
12, 59568, Note_on_c, 9, 46, 112
12, 59592, Note_on_c, 9, 46, 0
12, 59592, Note_on_c, 9, 42, 0
12, 59616, Note_on_c, 9, 42, 80
12, 59640, Note_on_c, 9, 42, 0
12, 59664, Note_on_c, 9, 42, 80
12, 59688, Note_on_c, 9, 42, 0
12, 59712, Note_on_c, 9, 35, 96
12, 59712, Note_on_c, 9, 38, 112
12, 59712, Note_on_c, 9, 42, 64
12, 59712, Note_on_c, 9, 46, 112
12, 59736, Note_on_c, 9, 46, 0
12, 59736, Note_on_c, 9, 42, 0
12, 59760, Note_on_c, 9, 38, 0
12, 59760, Note_on_c, 9, 35, 0
12, 59760, Note_on_c, 9, 42, 96
12, 59784, Note_on_c, 9, 42, 0
12, 59808, Note_on_c, 9, 42, 80
12, 59832, Note_on_c, 9, 42, 0
12, 59856, Note_on_c, 9, 42, 64
12, 59880, Note_on_c, 9, 42, 0
12, 59904, Note_on_c, 9, 35, 96
12, 59904, Note_on_c, 9, 42, 80
12, 59928, Note_on_c, 9, 42, 0
12, 59952, Note_on_c, 9, 35, 0
12, 59952, Note_on_c, 9, 42, 64
12, 59976, Note_on_c, 9, 42, 0
12, 60000, Note_on_c, 9, 42, 80
12, 60024, Note_on_c, 9, 42, 0
12, 60048, Note_on_c, 9, 42, 64
12, 60072, Note_on_c, 9, 42, 0
12, 60096, Note_on_c, 9, 35, 96
12, 60096, Note_on_c, 9, 38, 112
12, 60096, Note_on_c, 9, 42, 80
12, 60096, Note_on_c, 9, 46, 80
12, 60120, Note_on_c, 9, 46, 0
12, 60120, Note_on_c, 9, 42, 0
12, 60144, Note_on_c, 9, 38, 0
12, 60144, Note_on_c, 9, 35, 0
12, 60144, Note_on_c, 9, 42, 80
12, 60168, Note_on_c, 9, 42, 0
12, 60192, Note_on_c, 9, 42, 64
12, 60216, Note_on_c, 9, 42, 0
12, 60240, Note_on_c, 9, 42, 96
12, 60240, Note_on_c, 9, 46, 112
12, 60264, Note_on_c, 9, 46, 0
12, 60264, Note_on_c, 9, 42, 0
12, 60288, Note_on_c, 9, 35, 96
12, 60288, Note_on_c, 9, 42, 80
12, 60312, Note_on_c, 9, 42, 0
12, 60336, Note_on_c, 9, 35, 0
12, 60336, Note_on_c, 9, 42, 64
12, 60336, Note_on_c, 9, 46, 112
12, 60360, Note_on_c, 9, 46, 0
12, 60360, Note_on_c, 9, 42, 0
12, 60384, Note_on_c, 9, 42, 80
12, 60408, Note_on_c, 9, 42, 0
12, 60432, Note_on_c, 9, 42, 80
12, 60456, Note_on_c, 9, 42, 0
12, 60480, Note_on_c, 9, 35, 96
12, 60480, Note_on_c, 9, 38, 112
12, 60480, Note_on_c, 9, 42, 64
12, 60480, Note_on_c, 9, 46, 112
12, 60504, Note_on_c, 9, 46, 0
12, 60504, Note_on_c, 9, 42, 0
12, 60528, Note_on_c, 9, 38, 0
12, 60528, Note_on_c, 9, 35, 0
12, 60528, Note_on_c, 9, 42, 96
12, 60552, Note_on_c, 9, 42, 0
12, 60576, Note_on_c, 9, 42, 80
12, 60600, Note_on_c, 9, 42, 0
12, 60624, Note_on_c, 9, 42, 64
12, 60648, Note_on_c, 9, 42, 0
12, 60672, Note_on_c, 9, 35, 96
12, 60672, Note_on_c, 9, 42, 80
12, 60696, Note_on_c, 9, 42, 0
12, 60720, Note_on_c, 9, 35, 0
12, 60720, Note_on_c, 9, 42, 64
12, 60744, Note_on_c, 9, 42, 0
12, 60768, Note_on_c, 9, 42, 80
12, 60792, Note_on_c, 9, 42, 0
12, 60816, Note_on_c, 9, 42, 64
12, 60840, Note_on_c, 9, 42, 0
12, 60864, Note_on_c, 9, 35, 96
12, 60864, Note_on_c, 9, 38, 112
12, 60864, Note_on_c, 9, 42, 80
12, 60864, Note_on_c, 9, 46, 80
12, 60888, Note_on_c, 9, 46, 0
12, 60888, Note_on_c, 9, 42, 0
12, 60912, Note_on_c, 9, 38, 0
12, 60912, Note_on_c, 9, 35, 0
12, 60912, Note_on_c, 9, 42, 80
12, 60936, Note_on_c, 9, 42, 0
12, 60960, Note_on_c, 9, 42, 64
12, 60984, Note_on_c, 9, 42, 0
12, 61008, Note_on_c, 9, 42, 96
12, 61008, Note_on_c, 9, 46, 112
12, 61032, Note_on_c, 9, 46, 0
12, 61032, Note_on_c, 9, 42, 0
12, 61056, Note_on_c, 9, 35, 96
12, 61056, Note_on_c, 9, 42, 80
12, 61080, Note_on_c, 9, 42, 0
12, 61104, Note_on_c, 9, 35, 0
12, 61104, Note_on_c, 9, 42, 64
12, 61104, Note_on_c, 9, 46, 112
12, 61128, Note_on_c, 9, 46, 0
12, 61128, Note_on_c, 9, 42, 0
12, 61152, Note_on_c, 9, 42, 80
12, 61176, Note_on_c, 9, 42, 0
12, 61200, Note_on_c, 9, 42, 80
12, 61224, Note_on_c, 9, 42, 0
12, 61248, Note_on_c, 9, 35, 96
12, 61248, Note_on_c, 9, 38, 112
12, 61248, Note_on_c, 9, 42, 64
12, 61248, Note_on_c, 9, 46, 112
12, 61272, Note_on_c, 9, 46, 0
12, 61272, Note_on_c, 9, 42, 0
12, 61296, Note_on_c, 9, 38, 0
12, 61296, Note_on_c, 9, 35, 0
12, 61296, Note_on_c, 9, 42, 96
12, 61320, Note_on_c, 9, 42, 0
12, 61344, Note_on_c, 9, 42, 80
12, 61368, Note_on_c, 9, 42, 0
12, 61392, Note_on_c, 9, 42, 64
12, 61416, Note_on_c, 9, 42, 0
12, 61440, Note_on_c, 9, 35, 96
12, 61440, Note_on_c, 9, 42, 80
12, 61464, Note_on_c, 9, 42, 0
12, 61488, Note_on_c, 9, 35, 0
12, 61488, Note_on_c, 9, 42, 64
12, 61512, Note_on_c, 9, 42, 0
12, 61536, Note_on_c, 9, 42, 80
12, 61560, Note_on_c, 9, 42, 0
12, 61584, Note_on_c, 9, 42, 64
12, 61608, Note_on_c, 9, 42, 0
12, 61632, Note_on_c, 9, 35, 96
12, 61632, Note_on_c, 9, 38, 112
12, 61632, Note_on_c, 9, 42, 80
12, 61632, Note_on_c, 9, 46, 80
12, 61656, Note_on_c, 9, 46, 0
12, 61656, Note_on_c, 9, 42, 0
12, 61680, Note_on_c, 9, 38, 0
12, 61680, Note_on_c, 9, 35, 0
12, 61680, Note_on_c, 9, 42, 80
12, 61704, Note_on_c, 9, 42, 0
12, 61728, Note_on_c, 9, 42, 64
12, 61752, Note_on_c, 9, 42, 0
12, 61776, Note_on_c, 9, 42, 96
12, 61776, Note_on_c, 9, 46, 112
12, 61800, Note_on_c, 9, 46, 0
12, 61800, Note_on_c, 9, 42, 0
12, 61824, Note_on_c, 9, 35, 96
12, 61824, Note_on_c, 9, 42, 80
12, 61848, Note_on_c, 9, 42, 0
12, 61872, Note_on_c, 9, 35, 0
12, 61872, Note_on_c, 9, 42, 64
12, 61872, Note_on_c, 9, 46, 112
12, 61896, Note_on_c, 9, 46, 0
12, 61896, Note_on_c, 9, 42, 0
12, 61920, Note_on_c, 9, 42, 80
12, 61944, Note_on_c, 9, 42, 0
12, 61968, Note_on_c, 9, 42, 80
12, 61992, Note_on_c, 9, 42, 0
12, 62016, Note_on_c, 9, 35, 96
12, 62016, Note_on_c, 9, 38, 112
12, 62016, Note_on_c, 9, 42, 64
12, 62016, Note_on_c, 9, 46, 112
12, 62040, Note_on_c, 9, 46, 0
12, 62040, Note_on_c, 9, 42, 0
12, 62064, Note_on_c, 9, 38, 0
12, 62064, Note_on_c, 9, 35, 0
12, 62064, Note_on_c, 9, 42, 96
12, 62088, Note_on_c, 9, 42, 0
12, 62112, Note_on_c, 9, 42, 80
12, 62136, Note_on_c, 9, 42, 0
12, 62160, Note_on_c, 9, 42, 64
12, 62184, Note_on_c, 9, 42, 0
12, 62208, Note_on_c, 9, 42, 80
12, 62220, Note_on_c, 9, 42, 0
12, 62304, Note_on_c, 9, 35, 96
12, 62304, Note_on_c, 9, 38, 80
12, 62304, Note_on_c, 9, 39, 96
12, 62328, Note_on_c, 9, 39, 0
12, 62328, Note_on_c, 9, 38, 0
12, 62328, Note_on_c, 9, 35, 0
12, 62424, Note_on_c, 9, 42, 32
12, 62436, Note_on_c, 9, 42, 0
12, 62448, Note_on_c, 9, 35, 80
12, 62448, Note_on_c, 9, 36, 80
12, 62448, Note_on_c, 9, 42, 32
12, 62448, Note_on_c, 9, 45, 96
12, 62460, Note_on_c, 9, 42, 0
12, 62472, Note_on_c, 9, 35, 0
12, 62472, Note_on_c, 9, 36, 0
12, 62472, Note_on_c, 9, 45, 0
12, 62472, Note_on_c, 9, 42, 32
12, 62484, Note_on_c, 9, 42, 0
12, 62496, Note_on_c, 9, 42, 48
12, 62508, Note_on_c, 9, 42, 0
12, 62520, Note_on_c, 9, 42, 64
12, 62532, Note_on_c, 9, 42, 0
12, 62544, Note_on_c, 9, 42, 80
12, 62556, Note_on_c, 9, 42, 0
12, 62568, Note_on_c, 9, 42, 96
12, 62580, Note_on_c, 9, 42, 0
12, 62592, Note_on_c, 9, 35, 96
12, 62592, Note_on_c, 9, 38, 96
12, 62592, Note_on_c, 9, 42, 127
12, 62592, Note_on_c, 9, 39, 127
12, 62604, Note_on_c, 9, 42, 0
12, 62616, Note_on_c, 9, 35, 0
12, 62616, Note_on_c, 9, 38, 0
12, 62616, Note_on_c, 9, 39, 0
12, 62616, End_track
0, 0, End_of_file
