0, 0, Header, 1, 1, 480
1, 0, Start_track
1, 0, Time_signature, 4, 2, 24, 8
1, 0, Key_signature, 0, "major"
1, 0, Tempo, 500000
1, 0, Control_c, 9, 121, 0
1, 0, Program_c, 9, 0
1, 0, Control_c, 9, 7, 100
1, 0, Control_c, 9, 10, 64
1, 0, Control_c, 9, 91, 0
1, 0, Control_c, 9, 93, 0
1, 0, MIDI_port, 0
1, 0, Note_on_c, 9, 37, 108
1, 479, Note_on_c, 9, 37, 0
1, 960, Note_on_c, 9, 37, 114
1, 1439, Note_on_c, 9, 37, 0
1, 1920, Note_on_c, 9, 37, 100
1, 2399, Note_on_c, 9, 37, 0
1, 2400, Note_on_c, 9, 37, 108
1, 2879, Note_on_c, 9, 37, 0
1, 2880, Note_on_c, 9, 37, 96
1, 3359, Note_on_c, 9, 37, 0
1, 3360, Note_on_c, 9, 37, 108
1, 3839, Note_on_c, 9, 37, 0
1, 3840, Note_on_c, 9, 82, 94
1, 3840, Note_on_c, 9, 42, 123
1, 3840, Note_on_c, 9, 44, 125
1, 3840, Note_on_c, 9, 36, 105
1, 4079, Note_on_c, 9, 82, 0
1, 4079, Note_on_c, 9, 42, 0
1, 4079, Note_on_c, 9, 44, 0
1, 4079, Note_on_c, 9, 36, 0
1, 4080, Note_on_c, 9, 82, 50
1, 4080, Note_on_c, 9, 42, 46
1, 4080, Note_on_c, 9, 44, 62
1, 4319, Note_on_c, 9, 82, 0
1, 4319, Note_on_c, 9, 42, 0
1, 4319, Note_on_c, 9, 44, 0
1, 4320, Note_on_c, 9, 44, 108
1, 4335, Note_on_c, 9, 40, 93
1, 4335, Note_on_c, 9, 82, 63
1, 4335, Note_on_c, 9, 42, 120
1, 4559, Note_on_c, 9, 44, 0
1, 4559, Note_on_c, 9, 82, 0
1, 4574, Note_on_c, 9, 40, 0
1, 4574, Note_on_c, 9, 42, 0
1, 4590, Note_on_c, 9, 82, 86
1, 4590, Note_on_c, 9, 42, 69
1, 4590, Note_on_c, 9, 44, 94
1, 4649, Note_on_c, 9, 82, 0
1, 4649, Note_on_c, 9, 44, 0
1, 4679, Note_on_c, 9, 42, 0
1, 4800, Note_on_c, 9, 42, 80
1, 4800, Note_on_c, 9, 44, 84
1, 4800, Note_on_c, 9, 36, 109
1, 5039, Note_on_c, 9, 42, 0
1, 5039, Note_on_c, 9, 44, 0
1, 5039, Note_on_c, 9, 36, 0
1, 5085, Note_on_c, 9, 82, 73
1, 5085, Note_on_c, 9, 42, 104
1, 5085, Note_on_c, 9, 44, 102
1, 5144, Note_on_c, 9, 82, 0
1, 5279, Note_on_c, 9, 42, 0
1, 5279, Note_on_c, 9, 44, 0
1, 5280, Note_on_c, 9, 40, 73
1, 5280, Note_on_c, 9, 82, 73
1, 5280, Note_on_c, 9, 42, 117
1, 5280, Note_on_c, 9, 44, 123
1, 5519, Note_on_c, 9, 40, 0
1, 5519, Note_on_c, 9, 82, 0
1, 5519, Note_on_c, 9, 42, 0
1, 5519, Note_on_c, 9, 44, 0
1, 5520, Note_on_c, 9, 44, 88
1, 5565, Note_on_c, 9, 82, 27
1, 5565, Note_on_c, 9, 42, 90
1, 5624, Note_on_c, 9, 42, 0
1, 5759, Note_on_c, 9, 44, 0
1, 5759, Note_on_c, 9, 82, 0
1, 5820, Note_on_c, 9, 82, 51
1, 5820, Note_on_c, 9, 42, 102
1, 5820, Note_on_c, 9, 44, 106
1, 5820, Note_on_c, 9, 36, 105
1, 5999, Note_on_c, 9, 82, 0
1, 5999, Note_on_c, 9, 42, 0
1, 5999, Note_on_c, 9, 44, 0
1, 5999, Note_on_c, 9, 36, 0
1, 6045, Note_on_c, 9, 44, 98
1, 6060, Note_on_c, 9, 82, 73
1, 6060, Note_on_c, 9, 42, 90
1, 6239, Note_on_c, 9, 44, 0
1, 6239, Note_on_c, 9, 82, 0
1, 6239, Note_on_c, 9, 42, 0
1, 6240, Note_on_c, 9, 40, 80
1, 6240, Note_on_c, 9, 42, 125
1, 6240, Note_on_c, 9, 44, 123
1, 6479, Note_on_c, 9, 40, 0
1, 6479, Note_on_c, 9, 42, 0
1, 6479, Note_on_c, 9, 44, 0
1, 6480, Note_on_c, 9, 82, 84
1, 6480, Note_on_c, 9, 42, 60
1, 6480, Note_on_c, 9, 44, 76
1, 6719, Note_on_c, 9, 82, 0
1, 6719, Note_on_c, 9, 42, 0
1, 6719, Note_on_c, 9, 44, 0
1, 6720, Note_on_c, 9, 82, 72
1, 6720, Note_on_c, 9, 42, 102
1, 6720, Note_on_c, 9, 44, 108
1, 6720, Note_on_c, 9, 36, 100
1, 6959, Note_on_c, 9, 82, 0
1, 6959, Note_on_c, 9, 42, 0
1, 6959, Note_on_c, 9, 44, 0
1, 6959, Note_on_c, 9, 36, 0
1, 6960, Note_on_c, 9, 44, 94
1, 6990, Note_on_c, 9, 42, 86
1, 7079, Note_on_c, 9, 42, 0
1, 7199, Note_on_c, 9, 44, 0
1, 7200, Note_on_c, 9, 40, 80
1, 7200, Note_on_c, 9, 82, 92
1, 7200, Note_on_c, 9, 42, 120
1, 7200, Note_on_c, 9, 44, 110
1, 7439, Note_on_c, 9, 40, 0
1, 7439, Note_on_c, 9, 82, 0
1, 7439, Note_on_c, 9, 42, 0
1, 7439, Note_on_c, 9, 44, 0
1, 7440, Note_on_c, 9, 82, 60
1, 7440, Note_on_c, 9, 42, 90
1, 7440, Note_on_c, 9, 44, 98
1, 7679, Note_on_c, 9, 82, 0
1, 7679, Note_on_c, 9, 42, 0
1, 7679, Note_on_c, 9, 44, 0
1, 7680, Note_on_c, 9, 82, 85
1, 7680, Note_on_c, 9, 42, 125
1, 7680, Note_on_c, 9, 44, 110
1, 7680, Note_on_c, 9, 36, 96
1, 7919, Note_on_c, 9, 82, 0
1, 7919, Note_on_c, 9, 42, 0
1, 7919, Note_on_c, 9, 44, 0
1, 7919, Note_on_c, 9, 36, 0
1, 7920, Note_on_c, 9, 42, 72
1, 7920, Note_on_c, 9, 44, 74
1, 8159, Note_on_c, 9, 42, 0
1, 8159, Note_on_c, 9, 44, 0
1, 8160, Note_on_c, 9, 40, 84
1, 8160, Note_on_c, 9, 82, 54
1, 8160, Note_on_c, 9, 42, 117
1, 8160, Note_on_c, 9, 44, 120
1, 8399, Note_on_c, 9, 40, 0
1, 8399, Note_on_c, 9, 82, 0
1, 8399, Note_on_c, 9, 42, 0
1, 8399, Note_on_c, 9, 44, 0
1, 8400, Note_on_c, 9, 82, 65
1, 8400, Note_on_c, 9, 42, 86
1, 8400, Note_on_c, 9, 44, 98
1, 8639, Note_on_c, 9, 82, 0
1, 8639, Note_on_c, 9, 42, 0
1, 8639, Note_on_c, 9, 44, 0
1, 8640, Note_on_c, 9, 82, 66
1, 8640, Note_on_c, 9, 42, 100
1, 8685, Note_on_c, 9, 44, 90
1, 8685, Note_on_c, 9, 36, 109
1, 8744, Note_on_c, 9, 36, 0
1, 8879, Note_on_c, 9, 82, 0
1, 8879, Note_on_c, 9, 42, 0
1, 8879, Note_on_c, 9, 44, 0
1, 8880, Note_on_c, 9, 82, 78
1, 8880, Note_on_c, 9, 42, 81
1, 8880, Note_on_c, 9, 44, 92
1, 9119, Note_on_c, 9, 82, 0
1, 9119, Note_on_c, 9, 42, 0
1, 9119, Note_on_c, 9, 44, 0
1, 9120, Note_on_c, 9, 40, 80
1, 9120, Note_on_c, 9, 42, 110
1, 9150, Note_on_c, 9, 44, 114
1, 9209, Note_on_c, 9, 44, 0
1, 9359, Note_on_c, 9, 40, 0
1, 9359, Note_on_c, 9, 42, 0
1, 9360, Note_on_c, 9, 44, 76
1, 9390, Note_on_c, 9, 82, 81
1, 9390, Note_on_c, 9, 42, 72
1, 9449, Note_on_c, 9, 82, 0
1, 9479, Note_on_c, 9, 42, 0
1, 9599, Note_on_c, 9, 44, 0
1, 9600, Note_on_c, 9, 82, 81
1, 9600, Note_on_c, 9, 42, 106
1, 9600, Note_on_c, 9, 44, 106
1, 9600, Note_on_c, 9, 36, 103
1, 9839, Note_on_c, 9, 82, 0
1, 9839, Note_on_c, 9, 42, 0
1, 9839, Note_on_c, 9, 44, 0
1, 9839, Note_on_c, 9, 36, 0
1, 9885, Note_on_c, 9, 42, 85
1, 9885, Note_on_c, 9, 44, 78
1, 10079, Note_on_c, 9, 42, 0
1, 10079, Note_on_c, 9, 44, 0
1, 10080, Note_on_c, 9, 40, 79
1, 10080, Note_on_c, 9, 42, 110
1, 10140, Note_on_c, 9, 44, 110
1, 10319, Note_on_c, 9, 40, 0
1, 10319, Note_on_c, 9, 42, 0
1, 10319, Note_on_c, 9, 44, 0
1, 10320, Note_on_c, 9, 44, 104
1, 10365, Note_on_c, 9, 82, 65
1, 10365, Note_on_c, 9, 42, 96
1, 10424, Note_on_c, 9, 82, 0
1, 10559, Note_on_c, 9, 44, 0
1, 10559, Note_on_c, 9, 42, 0
1, 10560, Note_on_c, 9, 44, 100
1, 10560, Note_on_c, 9, 36, 98
1, 10605, Note_on_c, 9, 82, 76
1, 10605, Note_on_c, 9, 42, 94
1, 10664, Note_on_c, 9, 82, 0
1, 10799, Note_on_c, 9, 44, 0
1, 10799, Note_on_c, 9, 36, 0
1, 10799, Note_on_c, 9, 42, 0
1, 10800, Note_on_c, 9, 44, 88
1, 10815, Note_on_c, 9, 82, 82
1, 10815, Note_on_c, 9, 42, 85
1, 10874, Note_on_c, 9, 82, 0
1, 11039, Note_on_c, 9, 44, 0
1, 11039, Note_on_c, 9, 42, 0
1, 11040, Note_on_c, 9, 40, 76
1, 11040, Note_on_c, 9, 42, 114
1, 11040, Note_on_c, 9, 44, 117
1, 11279, Note_on_c, 9, 40, 0
1, 11279, Note_on_c, 9, 42, 0
1, 11279, Note_on_c, 9, 44, 0
1, 11280, Note_on_c, 9, 82, 59
1, 11280, Note_on_c, 9, 42, 92
1, 11280, Note_on_c, 9, 44, 85
1, 11519, Note_on_c, 9, 82, 0
1, 11519, Note_on_c, 9, 42, 0
1, 11519, Note_on_c, 9, 44, 0
1, 11520, Note_on_c, 9, 82, 84
1, 11520, Note_on_c, 9, 42, 104
1, 11520, Note_on_c, 9, 44, 102
1, 11520, Note_on_c, 9, 36, 105
1, 11759, Note_on_c, 9, 82, 0
1, 11759, Note_on_c, 9, 42, 0
1, 11759, Note_on_c, 9, 44, 0
1, 11759, Note_on_c, 9, 36, 0
1, 11760, Note_on_c, 9, 42, 70
1, 11760, Note_on_c, 9, 44, 69
1, 11999, Note_on_c, 9, 42, 0
1, 11999, Note_on_c, 9, 44, 0
1, 12000, Note_on_c, 9, 40, 81
1, 12000, Note_on_c, 9, 42, 114
1, 12000, Note_on_c, 9, 44, 106
1, 12239, Note_on_c, 9, 40, 0
1, 12239, Note_on_c, 9, 42, 0
1, 12239, Note_on_c, 9, 44, 0
1, 12240, Note_on_c, 9, 44, 81
1, 12270, Note_on_c, 9, 82, 80
1, 12270, Note_on_c, 9, 42, 68
1, 12329, Note_on_c, 9, 82, 0
1, 12359, Note_on_c, 9, 42, 0
1, 12479, Note_on_c, 9, 44, 0
1, 12480, Note_on_c, 9, 82, 66
1, 12480, Note_on_c, 9, 42, 96
1, 12480, Note_on_c, 9, 44, 85
1, 12480, Note_on_c, 9, 36, 99
1, 12719, Note_on_c, 9, 82, 0
1, 12719, Note_on_c, 9, 42, 0
1, 12719, Note_on_c, 9, 44, 0
1, 12719, Note_on_c, 9, 36, 0
1, 12720, Note_on_c, 9, 82, 82
1, 12720, Note_on_c, 9, 42, 78
1, 12720, Note_on_c, 9, 44, 82
1, 12959, Note_on_c, 9, 82, 0
1, 12959, Note_on_c, 9, 42, 0
1, 12959, Note_on_c, 9, 44, 0
1, 12960, Note_on_c, 9, 40, 80
1, 12960, Note_on_c, 9, 42, 108
1, 12960, Note_on_c, 9, 44, 102
1, 13199, Note_on_c, 9, 40, 0
1, 13199, Note_on_c, 9, 42, 0
1, 13199, Note_on_c, 9, 44, 0
1, 13200, Note_on_c, 9, 44, 76
1, 13245, Note_on_c, 9, 82, 73
1, 13245, Note_on_c, 9, 42, 74
1, 13304, Note_on_c, 9, 82, 0
1, 13439, Note_on_c, 9, 44, 0
1, 13439, Note_on_c, 9, 42, 0
1, 13500, Note_on_c, 9, 82, 81
1, 13500, Note_on_c, 9, 42, 96
1, 13500, Note_on_c, 9, 44, 100
1, 13500, Note_on_c, 9, 36, 107
1, 13679, Note_on_c, 9, 82, 0
1, 13679, Note_on_c, 9, 42, 0
1, 13679, Note_on_c, 9, 44, 0
1, 13679, Note_on_c, 9, 36, 0
1, 13680, Note_on_c, 9, 44, 74
1, 13710, Note_on_c, 9, 42, 53
1, 13799, Note_on_c, 9, 42, 0
1, 13919, Note_on_c, 9, 44, 0
1, 13920, Note_on_c, 9, 40, 77
1, 13920, Note_on_c, 9, 42, 106
1, 13920, Note_on_c, 9, 44, 108
1, 14159, Note_on_c, 9, 40, 0
1, 14159, Note_on_c, 9, 42, 0
1, 14159, Note_on_c, 9, 44, 0
1, 14160, Note_on_c, 9, 82, 68
1, 14160, Note_on_c, 9, 42, 92
1, 14160, Note_on_c, 9, 44, 96
1, 14399, Note_on_c, 9, 82, 0
1, 14399, Note_on_c, 9, 42, 0
1, 14399, Note_on_c, 9, 44, 0
1, 14400, Note_on_c, 9, 82, 67
1, 14400, Note_on_c, 9, 42, 96
1, 14400, Note_on_c, 9, 44, 98
1, 14400, Note_on_c, 9, 36, 105
1, 14639, Note_on_c, 9, 82, 0
1, 14639, Note_on_c, 9, 42, 0
1, 14639, Note_on_c, 9, 44, 0
1, 14639, Note_on_c, 9, 36, 0
1, 14640, Note_on_c, 9, 44, 65
1, 14655, Note_on_c, 9, 82, 80
1, 14655, Note_on_c, 9, 42, 62
1, 14714, Note_on_c, 9, 82, 0
1, 14879, Note_on_c, 9, 44, 0
1, 14879, Note_on_c, 9, 42, 0
1, 14880, Note_on_c, 9, 40, 75
1, 14880, Note_on_c, 9, 42, 117
1, 14880, Note_on_c, 9, 44, 117
1, 15119, Note_on_c, 9, 40, 0
1, 15119, Note_on_c, 9, 42, 0
1, 15119, Note_on_c, 9, 44, 0
1, 15120, Note_on_c, 9, 82, 64
1, 15120, Note_on_c, 9, 42, 61
1, 15120, Note_on_c, 9, 44, 73
1, 15359, Note_on_c, 9, 82, 0
1, 15359, Note_on_c, 9, 42, 0
1, 15359, Note_on_c, 9, 44, 0
1, 15360, Note_on_c, 9, 82, 80
1, 15360, Note_on_c, 9, 42, 98
1, 15360, Note_on_c, 9, 44, 100
1, 15360, Note_on_c, 9, 36, 89
1, 15599, Note_on_c, 9, 82, 0
1, 15599, Note_on_c, 9, 42, 0
1, 15599, Note_on_c, 9, 44, 0
1, 15599, Note_on_c, 9, 36, 0
1, 15600, Note_on_c, 9, 44, 82
1, 15615, Note_on_c, 9, 42, 78
1, 15839, Note_on_c, 9, 44, 0
1, 15839, Note_on_c, 9, 42, 0
1, 15840, Note_on_c, 9, 40, 80
1, 15840, Note_on_c, 9, 42, 100
1, 15840, Note_on_c, 9, 44, 106
1, 16079, Note_on_c, 9, 40, 0
1, 16079, Note_on_c, 9, 42, 0
1, 16079, Note_on_c, 9, 44, 0
1, 16080, Note_on_c, 9, 44, 82
1, 16095, Note_on_c, 9, 82, 60
1, 16095, Note_on_c, 9, 42, 77
1, 16154, Note_on_c, 9, 82, 0
1, 16319, Note_on_c, 9, 44, 0
1, 16319, Note_on_c, 9, 42, 0
1, 16320, Note_on_c, 9, 82, 68
1, 16320, Note_on_c, 9, 42, 96
1, 16320, Note_on_c, 9, 44, 106
1, 16320, Note_on_c, 9, 36, 107
1, 16559, Note_on_c, 9, 82, 0
1, 16559, Note_on_c, 9, 42, 0
1, 16559, Note_on_c, 9, 44, 0
1, 16559, Note_on_c, 9, 36, 0
1, 16560, Note_on_c, 9, 82, 73
1, 16560, Note_on_c, 9, 42, 81
1, 16560, Note_on_c, 9, 44, 69
1, 16799, Note_on_c, 9, 82, 0
1, 16799, Note_on_c, 9, 42, 0
1, 16799, Note_on_c, 9, 44, 0
1, 16800, Note_on_c, 9, 40, 81
1, 16800, Note_on_c, 9, 42, 104
1, 16800, Note_on_c, 9, 44, 114
1, 17039, Note_on_c, 9, 40, 0
1, 17039, Note_on_c, 9, 42, 0
1, 17039, Note_on_c, 9, 44, 0
1, 17040, Note_on_c, 9, 82, 61
1, 17040, Note_on_c, 9, 42, 78
1, 17040, Note_on_c, 9, 44, 94
1, 17279, Note_on_c, 9, 82, 0
1, 17279, Note_on_c, 9, 42, 0
1, 17279, Note_on_c, 9, 44, 0
1, 17280, Note_on_c, 9, 82, 80
1, 17280, Note_on_c, 9, 42, 82
1, 17280, Note_on_c, 9, 44, 88
1, 17280, Note_on_c, 9, 36, 95
1, 17519, Note_on_c, 9, 82, 0
1, 17519, Note_on_c, 9, 42, 0
1, 17519, Note_on_c, 9, 44, 0
1, 17519, Note_on_c, 9, 36, 0
1, 17550, Note_on_c, 9, 42, 80
1, 17550, Note_on_c, 9, 44, 80
1, 17639, Note_on_c, 9, 42, 0
1, 17639, Note_on_c, 9, 44, 0
1, 17760, Note_on_c, 9, 40, 76
1, 17760, Note_on_c, 9, 42, 120
1, 17760, Note_on_c, 9, 44, 117
1, 17999, Note_on_c, 9, 40, 0
1, 17999, Note_on_c, 9, 42, 0
1, 17999, Note_on_c, 9, 44, 0
1, 18000, Note_on_c, 9, 44, 84
1, 18015, Note_on_c, 9, 82, 44
1, 18015, Note_on_c, 9, 42, 70
1, 18074, Note_on_c, 9, 82, 0
1, 18239, Note_on_c, 9, 44, 0
1, 18239, Note_on_c, 9, 42, 0
1, 18240, Note_on_c, 9, 82, 70
1, 18240, Note_on_c, 9, 42, 98
1, 18240, Note_on_c, 9, 44, 108
1, 18240, Note_on_c, 9, 36, 100
1, 18479, Note_on_c, 9, 82, 0
1, 18479, Note_on_c, 9, 42, 0
1, 18479, Note_on_c, 9, 44, 0
1, 18479, Note_on_c, 9, 36, 0
1, 18480, Note_on_c, 9, 82, 65
1, 18480, Note_on_c, 9, 42, 102
1, 18480, Note_on_c, 9, 44, 102
1, 18719, Note_on_c, 9, 82, 0
1, 18719, Note_on_c, 9, 42, 0
1, 18719, Note_on_c, 9, 44, 0
1, 18720, Note_on_c, 9, 40, 79
1, 18720, Note_on_c, 9, 42, 108
1, 18720, Note_on_c, 9, 44, 117
1, 18959, Note_on_c, 9, 40, 0
1, 18959, Note_on_c, 9, 42, 0
1, 18959, Note_on_c, 9, 44, 0
1, 18960, Note_on_c, 9, 82, 68
1, 18960, Note_on_c, 9, 42, 96
1, 18960, Note_on_c, 9, 44, 100
1, 19199, Note_on_c, 9, 82, 0
1, 19199, Note_on_c, 9, 42, 0
1, 19199, Note_on_c, 9, 44, 0
1, 19200, Note_on_c, 9, 82, 59
1, 19200, Note_on_c, 9, 42, 39
1, 19200, Note_on_c, 9, 36, 95
1, 19439, Note_on_c, 9, 82, 0
1, 19439, Note_on_c, 9, 42, 0
1, 19470, Note_on_c, 9, 42, 86
1, 19559, Note_on_c, 9, 42, 0
1, 19679, Note_on_c, 9, 36, 0
1, 19695, Note_on_c, 9, 40, 77
1, 19695, Note_on_c, 9, 42, 106
1, 19754, Note_on_c, 9, 40, 0
1, 19919, Note_on_c, 9, 42, 0
1, 19920, Note_on_c, 9, 42, 68
1, 19920, Note_on_c, 9, 36, 59
1, 20159, Note_on_c, 9, 42, 0
1, 20159, Note_on_c, 9, 36, 0
1, 20160, Note_on_c, 9, 36, 100
1, 20190, Note_on_c, 9, 42, 86
1, 20279, Note_on_c, 9, 42, 0
1, 20400, Note_on_c, 9, 42, 70
1, 20639, Note_on_c, 9, 36, 0
1, 20639, Note_on_c, 9, 42, 0
1, 20640, Note_on_c, 9, 40, 73
1, 20640, Note_on_c, 9, 42, 108
1, 20879, Note_on_c, 9, 40, 0
1, 20879, Note_on_c, 9, 42, 0
1, 20880, Note_on_c, 9, 42, 86
1, 21119, Note_on_c, 9, 42, 0
1, 21120, Note_on_c, 9, 42, 84
1, 21120, Note_on_c, 9, 36, 95
1, 21359, Note_on_c, 9, 42, 0
1, 21375, Note_on_c, 9, 42, 74
1, 21599, Note_on_c, 9, 36, 0
1, 21599, Note_on_c, 9, 42, 0
1, 21600, Note_on_c, 9, 40, 74
1, 21600, Note_on_c, 9, 42, 110
1, 21839, Note_on_c, 9, 40, 0
1, 21839, Note_on_c, 9, 42, 0
1, 21840, Note_on_c, 9, 42, 72
1, 21840, Note_on_c, 9, 36, 89
1, 22079, Note_on_c, 9, 42, 0
1, 22079, Note_on_c, 9, 36, 0
1, 22080, Note_on_c, 9, 42, 88
1, 22080, Note_on_c, 9, 36, 82
1, 22319, Note_on_c, 9, 42, 0
1, 22335, Note_on_c, 9, 42, 78
1, 22559, Note_on_c, 9, 36, 0
1, 22559, Note_on_c, 9, 42, 0
1, 22560, Note_on_c, 9, 40, 76
1, 22560, Note_on_c, 9, 42, 96
1, 22799, Note_on_c, 9, 40, 0
1, 22799, Note_on_c, 9, 42, 0
1, 22800, Note_on_c, 9, 42, 73
1, 23039, Note_on_c, 9, 42, 0
1, 23040, Note_on_c, 9, 42, 82
1, 23040, Note_on_c, 9, 36, 82
1, 23279, Note_on_c, 9, 42, 0
1, 23280, Note_on_c, 9, 42, 64
1, 23519, Note_on_c, 9, 36, 0
1, 23519, Note_on_c, 9, 42, 0
1, 23520, Note_on_c, 9, 40, 79
1, 23520, Note_on_c, 9, 42, 104
1, 23759, Note_on_c, 9, 40, 0
1, 23759, Note_on_c, 9, 42, 0
1, 23760, Note_on_c, 9, 42, 51
1, 23760, Note_on_c, 9, 36, 67
1, 23999, Note_on_c, 9, 42, 0
1, 23999, Note_on_c, 9, 36, 0
1, 24000, Note_on_c, 9, 42, 88
1, 24000, Note_on_c, 9, 36, 95
1, 24239, Note_on_c, 9, 42, 0
1, 24240, Note_on_c, 9, 42, 58
1, 24479, Note_on_c, 9, 36, 0
1, 24479, Note_on_c, 9, 42, 0
1, 24480, Note_on_c, 9, 40, 81
1, 24480, Note_on_c, 9, 42, 100
1, 24719, Note_on_c, 9, 40, 0
1, 24719, Note_on_c, 9, 42, 0
1, 24720, Note_on_c, 9, 42, 80
1, 24959, Note_on_c, 9, 42, 0
1, 24960, Note_on_c, 9, 42, 80
1, 24960, Note_on_c, 9, 36, 99
1, 25199, Note_on_c, 9, 42, 0
1, 25200, Note_on_c, 9, 42, 70
1, 25439, Note_on_c, 9, 36, 0
1, 25439, Note_on_c, 9, 42, 0
1, 25440, Note_on_c, 9, 40, 76
1, 25440, Note_on_c, 9, 42, 106
1, 25679, Note_on_c, 9, 40, 0
1, 25679, Note_on_c, 9, 42, 0
1, 25680, Note_on_c, 9, 42, 81
1, 25680, Note_on_c, 9, 36, 95
1, 25919, Note_on_c, 9, 42, 0
1, 25919, Note_on_c, 9, 36, 0
1, 25920, Note_on_c, 9, 42, 90
1, 25920, Note_on_c, 9, 36, 96
1, 26159, Note_on_c, 9, 42, 0
1, 26160, Note_on_c, 9, 42, 77
1, 26399, Note_on_c, 9, 36, 0
1, 26399, Note_on_c, 9, 42, 0
1, 26400, Note_on_c, 9, 40, 77
1, 26400, Note_on_c, 9, 42, 100
1, 26639, Note_on_c, 9, 40, 0
1, 26639, Note_on_c, 9, 42, 0
1, 26640, Note_on_c, 9, 42, 80
1, 26879, Note_on_c, 9, 42, 0
1, 26880, Note_on_c, 9, 36, 92
1, 26910, Note_on_c, 9, 42, 94
1, 26969, Note_on_c, 9, 42, 0
1, 27120, Note_on_c, 9, 42, 67
1, 27359, Note_on_c, 9, 36, 0
1, 27359, Note_on_c, 9, 42, 0
1, 27360, Note_on_c, 9, 40, 77
1, 27360, Note_on_c, 9, 42, 106
1, 27599, Note_on_c, 9, 40, 0
1, 27599, Note_on_c, 9, 42, 0
1, 27600, Note_on_c, 9, 42, 59
1, 27600, Note_on_c, 9, 36, 72
1, 27839, Note_on_c, 9, 42, 0
1, 27839, Note_on_c, 9, 36, 0
1, 27840, Note_on_c, 9, 42, 90
1, 27840, Note_on_c, 9, 36, 92
1, 28079, Note_on_c, 9, 42, 0
1, 28080, Note_on_c, 9, 42, 70
1, 28319, Note_on_c, 9, 36, 0
1, 28319, Note_on_c, 9, 42, 0
1, 28320, Note_on_c, 9, 40, 82
1, 28320, Note_on_c, 9, 42, 102
1, 28559, Note_on_c, 9, 40, 0
1, 28559, Note_on_c, 9, 42, 0
1, 28560, Note_on_c, 9, 42, 80
1, 28799, Note_on_c, 9, 42, 0
1, 28800, Note_on_c, 9, 42, 98
1, 28800, Note_on_c, 9, 36, 90
1, 29039, Note_on_c, 9, 42, 0
1, 29040, Note_on_c, 9, 42, 94
1, 29279, Note_on_c, 9, 36, 0
1, 29279, Note_on_c, 9, 42, 0
1, 29280, Note_on_c, 9, 40, 79
1, 29280, Note_on_c, 9, 42, 98
1, 29519, Note_on_c, 9, 40, 0
1, 29519, Note_on_c, 9, 42, 0
1, 29520, Note_on_c, 9, 42, 98
1, 29520, Note_on_c, 9, 36, 96
1, 29759, Note_on_c, 9, 42, 0
1, 29759, Note_on_c, 9, 36, 0
1, 29760, Note_on_c, 9, 42, 106
1, 29760, Note_on_c, 9, 36, 75
1, 29999, Note_on_c, 9, 42, 0
1, 30000, Note_on_c, 9, 42, 88
1, 30239, Note_on_c, 9, 36, 0
1, 30239, Note_on_c, 9, 42, 0
1, 30240, Note_on_c, 9, 40, 80
1, 30240, Note_on_c, 9, 42, 85
1, 30479, Note_on_c, 9, 40, 0
1, 30479, Note_on_c, 9, 42, 0
1, 30480, Note_on_c, 9, 42, 90
1, 30719, Note_on_c, 9, 42, 0
1, 30720, Note_on_c, 9, 42, 94
1, 30720, Note_on_c, 9, 36, 98
1, 30959, Note_on_c, 9, 42, 0
1, 30960, Note_on_c, 9, 42, 74
1, 31199, Note_on_c, 9, 36, 0
1, 31199, Note_on_c, 9, 42, 0
1, 31200, Note_on_c, 9, 40, 74
1, 31200, Note_on_c, 9, 42, 102
1, 31200, Note_on_c, 9, 36, 89
1, 31439, Note_on_c, 9, 40, 0
1, 31439, Note_on_c, 9, 42, 0
1, 31440, Note_on_c, 9, 42, 85
1, 31679, Note_on_c, 9, 36, 0
1, 31679, Note_on_c, 9, 42, 0
1, 31680, Note_on_c, 9, 42, 98
1, 31680, Note_on_c, 9, 36, 95
1, 31919, Note_on_c, 9, 42, 0
1, 31920, Note_on_c, 9, 42, 104
1, 32159, Note_on_c, 9, 36, 0
1, 32159, Note_on_c, 9, 42, 0
1, 32160, Note_on_c, 9, 40, 80
1, 32160, Note_on_c, 9, 42, 102
1, 32160, Note_on_c, 9, 36, 67
1, 32399, Note_on_c, 9, 40, 0
1, 32399, Note_on_c, 9, 42, 0
1, 32400, Note_on_c, 9, 42, 96
1, 32639, Note_on_c, 9, 36, 0
1, 32639, Note_on_c, 9, 42, 0
1, 32640, Note_on_c, 9, 42, 106
1, 32640, Note_on_c, 9, 36, 87
1, 32879, Note_on_c, 9, 42, 0
1, 32880, Note_on_c, 9, 42, 86
1, 33119, Note_on_c, 9, 36, 0
1, 33119, Note_on_c, 9, 42, 0
1, 33120, Note_on_c, 9, 40, 77
1, 33120, Note_on_c, 9, 42, 108
1, 33120, Note_on_c, 9, 36, 87
1, 33359, Note_on_c, 9, 40, 0
1, 33359, Note_on_c, 9, 42, 0
1, 33360, Note_on_c, 9, 42, 117
1, 33599, Note_on_c, 9, 36, 0
1, 33599, Note_on_c, 9, 42, 0
1, 33600, Note_on_c, 9, 46, 117
1, 33600, Note_on_c, 9, 36, 90
1, 34079, Note_on_c, 9, 46, 0
1, 34079, Note_on_c, 9, 36, 0
1, 34080, Note_on_c, 9, 40, 80
1, 34080, Note_on_c, 9, 42, 123
1, 34080, Note_on_c, 9, 36, 93
1, 34319, Note_on_c, 9, 40, 0
1, 34319, Note_on_c, 9, 42, 0
1, 34320, Note_on_c, 9, 42, 104
1, 34559, Note_on_c, 9, 36, 0
1, 34559, Note_on_c, 9, 42, 0
1, 34560, Note_on_c, 9, 44, 120
1, 34560, Note_on_c, 9, 36, 107
1, 34575, Note_on_c, 9, 74, 84
1, 34575, Note_on_c, 9, 82, 73
1, 34575, Note_on_c, 9, 42, 120
1, 34634, Note_on_c, 9, 74, 0
1, 34634, Note_on_c, 9, 82, 0
1, 34799, Note_on_c, 9, 42, 0
1, 34800, Note_on_c, 9, 42, 35
1, 35039, Note_on_c, 9, 44, 0
1, 35039, Note_on_c, 9, 36, 0
1, 35039, Note_on_c, 9, 42, 0
1, 35040, Note_on_c, 9, 40, 75
1, 35040, Note_on_c, 9, 73, 86
1, 35040, Note_on_c, 9, 42, 123
1, 35040, Note_on_c, 9, 44, 125
1, 35279, Note_on_c, 9, 40, 0
1, 35279, Note_on_c, 9, 73, 0
1, 35279, Note_on_c, 9, 42, 0
1, 35279, Note_on_c, 9, 44, 0
1, 35280, Note_on_c, 9, 44, 90
1, 35295, Note_on_c, 9, 73, 102
1, 35295, Note_on_c, 9, 82, 77
1, 35295, Note_on_c, 9, 42, 57
1, 35354, Note_on_c, 9, 73, 0
1, 35354, Note_on_c, 9, 82, 0
1, 35519, Note_on_c, 9, 44, 0
1, 35519, Note_on_c, 9, 42, 0
1, 35520, Note_on_c, 9, 74, 107
1, 35520, Note_on_c, 9, 82, 85
1, 35520, Note_on_c, 9, 42, 104
1, 35520, Note_on_c, 9, 36, 107
1, 35759, Note_on_c, 9, 74, 0
1, 35759, Note_on_c, 9, 82, 0
1, 35759, Note_on_c, 9, 42, 0
1, 35759, Note_on_c, 9, 36, 0
1, 35760, Note_on_c, 9, 44, 78
1, 35790, Note_on_c, 9, 82, 90
1, 35790, Note_on_c, 9, 42, 67
1, 35849, Note_on_c, 9, 82, 0
1, 35879, Note_on_c, 9, 42, 0
1, 35999, Note_on_c, 9, 44, 0
1, 36000, Note_on_c, 9, 44, 125
1, 36045, Note_on_c, 9, 40, 77
1, 36045, Note_on_c, 9, 73, 60
1, 36045, Note_on_c, 9, 42, 126
1, 36104, Note_on_c, 9, 40, 0
1, 36104, Note_on_c, 9, 73, 0
1, 36239, Note_on_c, 9, 44, 0
1, 36239, Note_on_c, 9, 42, 0
1, 36240, Note_on_c, 9, 44, 92
1, 36270, Note_on_c, 9, 73, 94
1, 36270, Note_on_c, 9, 82, 78
1, 36270, Note_on_c, 9, 42, 92
1, 36329, Note_on_c, 9, 73, 0
1, 36329, Note_on_c, 9, 82, 0
1, 36359, Note_on_c, 9, 42, 0
1, 36479, Note_on_c, 9, 44, 0
1, 36480, Note_on_c, 9, 74, 85
1, 36480, Note_on_c, 9, 82, 94
1, 36480, Note_on_c, 9, 42, 88
1, 36510, Note_on_c, 9, 44, 78
1, 36510, Note_on_c, 9, 36, 111
1, 36569, Note_on_c, 9, 36, 0
1, 36599, Note_on_c, 9, 44, 0
1, 36719, Note_on_c, 9, 74, 0
1, 36719, Note_on_c, 9, 82, 0
1, 36719, Note_on_c, 9, 42, 0
1, 36735, Note_on_c, 9, 42, 73
1, 36735, Note_on_c, 9, 44, 77
1, 36959, Note_on_c, 9, 42, 0
1, 36959, Note_on_c, 9, 44, 0
1, 36960, Note_on_c, 9, 40, 77
1, 36960, Note_on_c, 9, 73, 102
1, 36960, Note_on_c, 9, 42, 120
1, 36960, Note_on_c, 9, 44, 120
1, 37199, Note_on_c, 9, 40, 0
1, 37199, Note_on_c, 9, 73, 0
1, 37199, Note_on_c, 9, 42, 0
1, 37199, Note_on_c, 9, 44, 0
1, 37200, Note_on_c, 9, 73, 104
1, 37200, Note_on_c, 9, 82, 80
1, 37200, Note_on_c, 9, 44, 61
1, 37439, Note_on_c, 9, 73, 0
1, 37439, Note_on_c, 9, 82, 0
1, 37439, Note_on_c, 9, 44, 0
1, 37440, Note_on_c, 9, 74, 73
1, 37440, Note_on_c, 9, 82, 78
1, 37440, Note_on_c, 9, 42, 82
1, 37440, Note_on_c, 9, 44, 90
1, 37440, Note_on_c, 9, 36, 103
1, 37679, Note_on_c, 9, 74, 0
1, 37679, Note_on_c, 9, 82, 0
1, 37679, Note_on_c, 9, 42, 0
1, 37680, Note_on_c, 9, 82, 88
1, 37680, Note_on_c, 9, 42, 81
1, 37919, Note_on_c, 9, 44, 0
1, 37919, Note_on_c, 9, 36, 0
1, 37919, Note_on_c, 9, 82, 0
1, 37919, Note_on_c, 9, 42, 0
1, 37920, Note_on_c, 9, 44, 120
1, 37935, Note_on_c, 9, 40, 79
1, 37935, Note_on_c, 9, 73, 92
1, 37935, Note_on_c, 9, 42, 106
1, 38159, Note_on_c, 9, 44, 0
1, 38159, Note_on_c, 9, 42, 0
1, 38160, Note_on_c, 9, 44, 85
1, 38174, Note_on_c, 9, 40, 0
1, 38174, Note_on_c, 9, 73, 0
1, 38175, Note_on_c, 9, 73, 92
1, 38175, Note_on_c, 9, 82, 70
1, 38175, Note_on_c, 9, 42, 76
1, 38234, Note_on_c, 9, 73, 0
1, 38234, Note_on_c, 9, 82, 0
1, 38399, Note_on_c, 9, 44, 0
1, 38399, Note_on_c, 9, 42, 0
1, 38400, Note_on_c, 9, 74, 72
1, 38400, Note_on_c, 9, 82, 82
1, 38400, Note_on_c, 9, 42, 92
1, 38400, Note_on_c, 9, 36, 98
1, 38639, Note_on_c, 9, 74, 0
1, 38639, Note_on_c, 9, 82, 0
1, 38639, Note_on_c, 9, 42, 0
1, 38640, Note_on_c, 9, 42, 43
1, 38879, Note_on_c, 9, 36, 0
1, 38879, Note_on_c, 9, 42, 0
1, 38880, Note_on_c, 9, 40, 72
1, 38880, Note_on_c, 9, 73, 92
1, 38880, Note_on_c, 9, 42, 117
1, 38880, Note_on_c, 9, 44, 120
1, 39119, Note_on_c, 9, 40, 0
1, 39119, Note_on_c, 9, 73, 0
1, 39119, Note_on_c, 9, 42, 0
1, 39119, Note_on_c, 9, 44, 0
1, 39120, Note_on_c, 9, 73, 96
1, 39120, Note_on_c, 9, 82, 69
1, 39120, Note_on_c, 9, 44, 70
1, 39359, Note_on_c, 9, 73, 0
1, 39359, Note_on_c, 9, 82, 0
1, 39359, Note_on_c, 9, 44, 0
1, 39360, Note_on_c, 9, 74, 72
1, 39360, Note_on_c, 9, 82, 86
1, 39360, Note_on_c, 9, 42, 106
1, 39360, Note_on_c, 9, 44, 100
1, 39360, Note_on_c, 9, 36, 105
1, 39599, Note_on_c, 9, 74, 0
1, 39599, Note_on_c, 9, 82, 0
1, 39599, Note_on_c, 9, 42, 0
1, 39600, Note_on_c, 9, 42, 84
1, 39839, Note_on_c, 9, 44, 0
1, 39839, Note_on_c, 9, 36, 0
1, 39839, Note_on_c, 9, 42, 0
1, 39840, Note_on_c, 9, 40, 79
1, 39840, Note_on_c, 9, 73, 106
1, 39840, Note_on_c, 9, 42, 117
1, 39840, Note_on_c, 9, 44, 106
1, 40079, Note_on_c, 9, 40, 0
1, 40079, Note_on_c, 9, 73, 0
1, 40079, Note_on_c, 9, 42, 0
1, 40079, Note_on_c, 9, 44, 0
1, 40080, Note_on_c, 9, 73, 106
1, 40080, Note_on_c, 9, 82, 78
1, 40080, Note_on_c, 9, 44, 62
1, 40319, Note_on_c, 9, 73, 0
1, 40319, Note_on_c, 9, 82, 0
1, 40319, Note_on_c, 9, 44, 0
1, 40320, Note_on_c, 9, 74, 93
1, 40320, Note_on_c, 9, 82, 86
1, 40320, Note_on_c, 9, 42, 92
1, 40320, Note_on_c, 9, 44, 96
1, 40320, Note_on_c, 9, 36, 105
1, 40559, Note_on_c, 9, 74, 0
1, 40559, Note_on_c, 9, 82, 0
1, 40559, Note_on_c, 9, 42, 0
1, 40560, Note_on_c, 9, 42, 31
1, 40799, Note_on_c, 9, 44, 0
1, 40799, Note_on_c, 9, 36, 0
1, 40799, Note_on_c, 9, 42, 0
1, 40800, Note_on_c, 9, 40, 81
1, 40800, Note_on_c, 9, 73, 100
1, 40800, Note_on_c, 9, 42, 120
1, 40800, Note_on_c, 9, 44, 117
1, 41039, Note_on_c, 9, 40, 0
1, 41039, Note_on_c, 9, 73, 0
1, 41039, Note_on_c, 9, 42, 0
1, 41039, Note_on_c, 9, 44, 0
1, 41040, Note_on_c, 9, 73, 100
1, 41040, Note_on_c, 9, 82, 80
1, 41040, Note_on_c, 9, 42, 60
1, 41040, Note_on_c, 9, 44, 85
1, 41279, Note_on_c, 9, 73, 0
1, 41279, Note_on_c, 9, 82, 0
1, 41279, Note_on_c, 9, 42, 0
1, 41279, Note_on_c, 9, 44, 0
1, 41280, Note_on_c, 9, 74, 75
1, 41280, Note_on_c, 9, 82, 86
1, 41280, Note_on_c, 9, 42, 85
1, 41280, Note_on_c, 9, 44, 76
1, 41280, Note_on_c, 9, 36, 93
1, 41519, Note_on_c, 9, 74, 0
1, 41519, Note_on_c, 9, 82, 0
1, 41519, Note_on_c, 9, 42, 0
1, 41520, Note_on_c, 9, 40, 82
1, 41520, Note_on_c, 9, 42, 80
1, 41759, Note_on_c, 9, 44, 0
1, 41759, Note_on_c, 9, 36, 0
1, 41759, Note_on_c, 9, 40, 0
1, 41759, Note_on_c, 9, 42, 0
1, 41760, Note_on_c, 9, 40, 81
1, 41760, Note_on_c, 9, 73, 94
1, 41760, Note_on_c, 9, 42, 98
1, 41760, Note_on_c, 9, 44, 106
1, 41999, Note_on_c, 9, 40, 0
1, 41999, Note_on_c, 9, 73, 0
1, 41999, Note_on_c, 9, 42, 0
1, 41999, Note_on_c, 9, 44, 0
1, 42000, Note_on_c, 9, 73, 85
1, 42000, Note_on_c, 9, 82, 67
1, 42000, Note_on_c, 9, 42, 92
1, 42000, Note_on_c, 9, 44, 98
1, 42239, Note_on_c, 9, 73, 0
1, 42239, Note_on_c, 9, 82, 0
1, 42239, Note_on_c, 9, 42, 0
1, 42239, Note_on_c, 9, 44, 0
1, 42240, Note_on_c, 9, 36, 90
1, 42270, Note_on_c, 9, 74, 76
1, 42270, Note_on_c, 9, 82, 92
1, 42270, Note_on_c, 9, 42, 108
1, 42329, Note_on_c, 9, 74, 0
1, 42329, Note_on_c, 9, 82, 0
1, 42329, Note_on_c, 9, 42, 0
1, 42495, Note_on_c, 9, 42, 21
1, 42719, Note_on_c, 9, 36, 0
1, 42719, Note_on_c, 9, 42, 0
1, 42720, Note_on_c, 9, 40, 82
1, 42720, Note_on_c, 9, 73, 106
1, 42720, Note_on_c, 9, 42, 114
1, 42720, Note_on_c, 9, 44, 104
1, 42959, Note_on_c, 9, 40, 0
1, 42959, Note_on_c, 9, 73, 0
1, 42959, Note_on_c, 9, 42, 0
1, 42959, Note_on_c, 9, 44, 0
1, 42960, Note_on_c, 9, 73, 96
1, 42960, Note_on_c, 9, 82, 84
1, 42960, Note_on_c, 9, 42, 74
1, 42960, Note_on_c, 9, 44, 85
1, 43199, Note_on_c, 9, 73, 0
1, 43199, Note_on_c, 9, 82, 0
1, 43199, Note_on_c, 9, 42, 0
1, 43199, Note_on_c, 9, 44, 0
1, 43200, Note_on_c, 9, 74, 82
1, 43200, Note_on_c, 9, 82, 92
1, 43200, Note_on_c, 9, 42, 96
1, 43200, Note_on_c, 9, 36, 93
1, 43439, Note_on_c, 9, 74, 0
1, 43439, Note_on_c, 9, 82, 0
1, 43439, Note_on_c, 9, 42, 0
1, 43439, Note_on_c, 9, 36, 0
1, 43440, Note_on_c, 9, 82, 78
1, 43440, Note_on_c, 9, 42, 77
1, 43440, Note_on_c, 9, 44, 73
1, 43679, Note_on_c, 9, 82, 0
1, 43679, Note_on_c, 9, 42, 0
1, 43679, Note_on_c, 9, 44, 0
1, 43680, Note_on_c, 9, 40, 85
1, 43680, Note_on_c, 9, 73, 102
1, 43680, Note_on_c, 9, 42, 100
1, 43680, Note_on_c, 9, 44, 110
1, 43919, Note_on_c, 9, 40, 0
1, 43919, Note_on_c, 9, 73, 0
1, 43919, Note_on_c, 9, 42, 0
1, 43919, Note_on_c, 9, 44, 0
1, 43920, Note_on_c, 9, 73, 96
1, 43920, Note_on_c, 9, 82, 63
1, 43920, Note_on_c, 9, 44, 67
1, 44159, Note_on_c, 9, 73, 0
1, 44159, Note_on_c, 9, 82, 0
1, 44159, Note_on_c, 9, 44, 0
1, 44160, Note_on_c, 9, 74, 80
1, 44160, Note_on_c, 9, 82, 81
1, 44160, Note_on_c, 9, 42, 100
1, 44190, Note_on_c, 9, 44, 102
1, 44190, Note_on_c, 9, 36, 99
1, 44399, Note_on_c, 9, 74, 0
1, 44399, Note_on_c, 9, 82, 0
1, 44399, Note_on_c, 9, 42, 0
1, 44400, Note_on_c, 9, 42, 31
1, 44429, Note_on_c, 9, 44, 0
1, 44429, Note_on_c, 9, 36, 0
1, 44430, Note_on_c, 9, 44, 28
1, 44519, Note_on_c, 9, 44, 0
1, 44639, Note_on_c, 9, 42, 0
1, 44640, Note_on_c, 9, 40, 81
1, 44640, Note_on_c, 9, 73, 92
1, 44640, Note_on_c, 9, 42, 106
1, 44640, Note_on_c, 9, 44, 117
1, 44879, Note_on_c, 9, 40, 0
1, 44879, Note_on_c, 9, 73, 0
1, 44879, Note_on_c, 9, 42, 0
1, 44879, Note_on_c, 9, 44, 0
1, 44880, Note_on_c, 9, 73, 96
1, 44880, Note_on_c, 9, 82, 52
1, 44880, Note_on_c, 9, 42, 67
1, 44880, Note_on_c, 9, 44, 77
1, 45119, Note_on_c, 9, 73, 0
1, 45119, Note_on_c, 9, 82, 0
1, 45119, Note_on_c, 9, 42, 0
1, 45119, Note_on_c, 9, 44, 0
1, 45120, Note_on_c, 9, 74, 92
1, 45120, Note_on_c, 9, 82, 86
1, 45120, Note_on_c, 9, 42, 84
1, 45120, Note_on_c, 9, 44, 96
1, 45120, Note_on_c, 9, 36, 98
1, 45359, Note_on_c, 9, 74, 0
1, 45359, Note_on_c, 9, 82, 0
1, 45359, Note_on_c, 9, 42, 0
1, 45360, Note_on_c, 9, 42, 61
1, 45599, Note_on_c, 9, 44, 0
1, 45599, Note_on_c, 9, 36, 0
1, 45599, Note_on_c, 9, 42, 0
1, 45600, Note_on_c, 9, 40, 80
1, 45600, Note_on_c, 9, 73, 92
1, 45600, Note_on_c, 9, 42, 117
1, 45600, Note_on_c, 9, 44, 106
1, 45839, Note_on_c, 9, 40, 0
1, 45839, Note_on_c, 9, 73, 0
1, 45839, Note_on_c, 9, 42, 0
1, 45839, Note_on_c, 9, 44, 0
1, 45840, Note_on_c, 9, 73, 102
1, 45840, Note_on_c, 9, 82, 74
1, 45840, Note_on_c, 9, 42, 60
1, 45840, Note_on_c, 9, 44, 74
1, 46079, Note_on_c, 9, 73, 0
1, 46079, Note_on_c, 9, 82, 0
1, 46079, Note_on_c, 9, 42, 0
1, 46079, Note_on_c, 9, 44, 0
1, 46080, Note_on_c, 9, 74, 93
1, 46080, Note_on_c, 9, 82, 84
1, 46080, Note_on_c, 9, 42, 106
1, 46080, Note_on_c, 9, 44, 80
1, 46080, Note_on_c, 9, 36, 100
1, 46319, Note_on_c, 9, 74, 0
1, 46319, Note_on_c, 9, 82, 0
1, 46319, Note_on_c, 9, 42, 0
1, 46319, Note_on_c, 9, 44, 0
1, 46319, Note_on_c, 9, 36, 0
1, 46320, Note_on_c, 9, 42, 82
1, 46320, Note_on_c, 9, 44, 84
1, 46559, Note_on_c, 9, 42, 0
1, 46559, Note_on_c, 9, 44, 0
1, 46560, Note_on_c, 9, 40, 73
1, 46560, Note_on_c, 9, 73, 102
1, 46560, Note_on_c, 9, 42, 117
1, 46560, Note_on_c, 9, 44, 120
1, 46799, Note_on_c, 9, 40, 0
1, 46799, Note_on_c, 9, 73, 0
1, 46799, Note_on_c, 9, 42, 0
1, 46799, Note_on_c, 9, 44, 0
1, 46800, Note_on_c, 9, 73, 94
1, 46800, Note_on_c, 9, 82, 74
1, 46800, Note_on_c, 9, 42, 72
1, 46800, Note_on_c, 9, 44, 82
1, 47039, Note_on_c, 9, 73, 0
1, 47039, Note_on_c, 9, 82, 0
1, 47039, Note_on_c, 9, 42, 0
1, 47039, Note_on_c, 9, 44, 0
1, 47040, Note_on_c, 9, 74, 82
1, 47040, Note_on_c, 9, 82, 80
1, 47040, Note_on_c, 9, 42, 98
1, 47040, Note_on_c, 9, 44, 90
1, 47040, Note_on_c, 9, 36, 89
1, 47279, Note_on_c, 9, 74, 0
1, 47279, Note_on_c, 9, 82, 0
1, 47279, Note_on_c, 9, 42, 0
1, 47279, Note_on_c, 9, 44, 0
1, 47279, Note_on_c, 9, 36, 0
1, 47280, Note_on_c, 9, 42, 88
1, 47280, Note_on_c, 9, 44, 94
1, 47519, Note_on_c, 9, 42, 0
1, 47519, Note_on_c, 9, 44, 0
1, 47520, Note_on_c, 9, 44, 106
1, 47550, Note_on_c, 9, 40, 79
1, 47550, Note_on_c, 9, 73, 104
1, 47609, Note_on_c, 9, 40, 0
1, 47609, Note_on_c, 9, 73, 0
1, 47759, Note_on_c, 9, 44, 0
1, 47760, Note_on_c, 9, 82, 70
1, 47760, Note_on_c, 9, 42, 104
1, 47760, Note_on_c, 9, 44, 102
1, 47999, Note_on_c, 9, 82, 0
1, 47999, Note_on_c, 9, 42, 0
1, 47999, Note_on_c, 9, 44, 0
1, 48000, Note_on_c, 9, 74, 71
1, 48000, Note_on_c, 9, 82, 80
1, 48000, Note_on_c, 9, 42, 106
1, 48000, Note_on_c, 9, 44, 90
1, 48000, Note_on_c, 9, 36, 96
1, 48239, Note_on_c, 9, 44, 0
1, 48239, Note_on_c, 9, 36, 0
1, 48240, Note_on_c, 9, 44, 96
1, 48479, Note_on_c, 9, 74, 0
1, 48479, Note_on_c, 9, 82, 0
1, 48479, Note_on_c, 9, 42, 0
1, 48479, Note_on_c, 9, 44, 0
1, 48510, Note_on_c, 9, 40, 80
1, 48510, Note_on_c, 9, 73, 64
1, 48510, Note_on_c, 9, 42, 110
1, 48510, Note_on_c, 9, 44, 110
1, 48569, Note_on_c, 9, 40, 0
1, 48569, Note_on_c, 9, 73, 0
1, 48569, Note_on_c, 9, 42, 0
1, 48569, Note_on_c, 9, 44, 0
1, 48720, Note_on_c, 9, 44, 84
1, 48780, Note_on_c, 9, 73, 108
1, 48780, Note_on_c, 9, 82, 81
1, 48780, Note_on_c, 9, 42, 76
1, 48959, Note_on_c, 9, 44, 0
1, 48959, Note_on_c, 9, 73, 0
1, 48959, Note_on_c, 9, 82, 0
1, 48959, Note_on_c, 9, 42, 0
1, 48960, Note_on_c, 9, 74, 105
1, 48960, Note_on_c, 9, 82, 90
1, 48960, Note_on_c, 9, 42, 110
1, 48960, Note_on_c, 9, 55, 76
1, 48960, Note_on_c, 9, 44, 82
1, 48960, Note_on_c, 9, 36, 96
1, 49199, Note_on_c, 9, 74, 0
1, 49199, Note_on_c, 9, 82, 0
1, 49199, Note_on_c, 9, 42, 0
1, 49199, Note_on_c, 9, 55, 0
1, 49199, Note_on_c, 9, 44, 0
1, 49199, Note_on_c, 9, 36, 0
1, 49200, Note_on_c, 9, 42, 52
1, 49200, Note_on_c, 9, 44, 80
1, 49439, Note_on_c, 9, 42, 0
1, 49439, Note_on_c, 9, 44, 0
1, 49440, Note_on_c, 9, 40, 73
1, 49440, Note_on_c, 9, 73, 114
1, 49440, Note_on_c, 9, 42, 108
1, 49440, Note_on_c, 9, 44, 108
1, 49679, Note_on_c, 9, 40, 0
1, 49679, Note_on_c, 9, 73, 0
1, 49679, Note_on_c, 9, 42, 0
1, 49679, Note_on_c, 9, 44, 0
1, 49680, Note_on_c, 9, 40, 89
1, 49680, Note_on_c, 9, 73, 126
1, 49680, Note_on_c, 9, 42, 62
1, 49680, Note_on_c, 9, 44, 84
1, 49919, Note_on_c, 9, 40, 0
1, 49919, Note_on_c, 9, 73, 0
1, 49919, Note_on_c, 9, 42, 0
1, 49919, Note_on_c, 9, 44, 0
1, 49920, Note_on_c, 9, 42, 85
1, 49920, Note_on_c, 9, 44, 31
1, 49920, Note_on_c, 9, 36, 100
1, 50399, Note_on_c, 9, 42, 0
1, 50399, Note_on_c, 9, 44, 0
1, 50399, Note_on_c, 9, 36, 0
1, 50400, Note_on_c, 9, 40, 82
1, 50400, Note_on_c, 9, 42, 117
1, 50639, Note_on_c, 9, 40, 0
1, 50639, Note_on_c, 9, 42, 0
1, 50640, Note_on_c, 9, 42, 66
1, 50640, Note_on_c, 9, 36, 80
1, 50879, Note_on_c, 9, 42, 0
1, 50879, Note_on_c, 9, 36, 0
1, 50880, Note_on_c, 9, 36, 70
1, 50895, Note_on_c, 9, 42, 36
1, 51119, Note_on_c, 9, 42, 0
1, 51120, Note_on_c, 9, 42, 64
1, 51359, Note_on_c, 9, 36, 0
1, 51359, Note_on_c, 9, 42, 0
1, 51360, Note_on_c, 9, 40, 81
1, 51360, Note_on_c, 9, 42, 114
1, 51599, Note_on_c, 9, 40, 0
1, 51599, Note_on_c, 9, 42, 0
1, 51600, Note_on_c, 9, 42, 85
1, 51839, Note_on_c, 9, 42, 0
1, 51840, Note_on_c, 9, 42, 86
1, 51840, Note_on_c, 9, 36, 68
1, 52079, Note_on_c, 9, 42, 0
1, 52080, Note_on_c, 9, 42, 55
1, 52319, Note_on_c, 9, 36, 0
1, 52319, Note_on_c, 9, 42, 0
1, 52320, Note_on_c, 9, 40, 79
1, 52320, Note_on_c, 9, 42, 108
1, 52559, Note_on_c, 9, 40, 0
1, 52559, Note_on_c, 9, 42, 0
1, 52560, Note_on_c, 9, 42, 73
1, 52560, Note_on_c, 9, 36, 96
1, 52799, Note_on_c, 9, 42, 0
1, 52799, Note_on_c, 9, 36, 0
1, 52800, Note_on_c, 9, 42, 84
1, 52800, Note_on_c, 9, 36, 74
1, 53039, Note_on_c, 9, 42, 0
1, 53040, Note_on_c, 9, 42, 70
1, 53279, Note_on_c, 9, 36, 0
1, 53279, Note_on_c, 9, 42, 0
1, 53280, Note_on_c, 9, 40, 80
1, 53280, Note_on_c, 9, 42, 108
1, 53519, Note_on_c, 9, 40, 0
1, 53519, Note_on_c, 9, 42, 0
1, 53520, Note_on_c, 9, 42, 49
1, 53759, Note_on_c, 9, 42, 0
1, 53760, Note_on_c, 9, 42, 94
1, 53760, Note_on_c, 9, 36, 89
1, 53999, Note_on_c, 9, 42, 0
1, 54000, Note_on_c, 9, 42, 88
1, 54239, Note_on_c, 9, 36, 0
1, 54239, Note_on_c, 9, 42, 0
1, 54240, Note_on_c, 9, 40, 81
1, 54240, Note_on_c, 9, 42, 104
1, 54479, Note_on_c, 9, 40, 0
1, 54479, Note_on_c, 9, 42, 0
1, 54480, Note_on_c, 9, 42, 84
1, 54480, Note_on_c, 9, 36, 80
1, 54719, Note_on_c, 9, 42, 0
1, 54719, Note_on_c, 9, 36, 0
1, 54720, Note_on_c, 9, 42, 96
1, 54720, Note_on_c, 9, 36, 74
1, 54959, Note_on_c, 9, 42, 0
1, 54960, Note_on_c, 9, 42, 73
1, 55199, Note_on_c, 9, 36, 0
1, 55199, Note_on_c, 9, 42, 0
1, 55200, Note_on_c, 9, 40, 80
1, 55200, Note_on_c, 9, 42, 104
1, 55439, Note_on_c, 9, 40, 0
1, 55439, Note_on_c, 9, 42, 0
1, 55440, Note_on_c, 9, 42, 80
1, 55679, Note_on_c, 9, 42, 0
1, 55680, Note_on_c, 9, 42, 90
1, 55680, Note_on_c, 9, 36, 84
1, 55919, Note_on_c, 9, 42, 0
1, 55920, Note_on_c, 9, 42, 85
1, 56159, Note_on_c, 9, 36, 0
1, 56159, Note_on_c, 9, 42, 0
1, 56160, Note_on_c, 9, 40, 85
1, 56160, Note_on_c, 9, 42, 102
1, 56399, Note_on_c, 9, 40, 0
1, 56399, Note_on_c, 9, 42, 0
1, 56400, Note_on_c, 9, 42, 84
1, 56400, Note_on_c, 9, 36, 82
1, 56639, Note_on_c, 9, 42, 0
1, 56639, Note_on_c, 9, 36, 0
1, 56640, Note_on_c, 9, 42, 96
1, 56640, Note_on_c, 9, 36, 74
1, 56879, Note_on_c, 9, 42, 0
1, 56880, Note_on_c, 9, 42, 70
1, 57119, Note_on_c, 9, 36, 0
1, 57119, Note_on_c, 9, 42, 0
1, 57120, Note_on_c, 9, 40, 82
1, 57120, Note_on_c, 9, 42, 102
1, 57359, Note_on_c, 9, 40, 0
1, 57359, Note_on_c, 9, 42, 0
1, 57360, Note_on_c, 9, 42, 86
1, 57599, Note_on_c, 9, 42, 0
1, 57600, Note_on_c, 9, 42, 102
1, 57600, Note_on_c, 9, 36, 90
1, 57839, Note_on_c, 9, 42, 0
1, 57840, Note_on_c, 9, 42, 72
1, 58079, Note_on_c, 9, 36, 0
1, 58079, Note_on_c, 9, 42, 0
1, 58080, Note_on_c, 9, 40, 80
1, 58080, Note_on_c, 9, 42, 106
1, 58319, Note_on_c, 9, 40, 0
1, 58319, Note_on_c, 9, 42, 0
1, 58320, Note_on_c, 9, 42, 77
1, 58320, Note_on_c, 9, 36, 96
1, 58559, Note_on_c, 9, 42, 0
1, 58559, Note_on_c, 9, 36, 0
1, 58560, Note_on_c, 9, 42, 102
1, 58560, Note_on_c, 9, 36, 80
1, 58799, Note_on_c, 9, 42, 0
1, 58800, Note_on_c, 9, 42, 77
1, 59039, Note_on_c, 9, 36, 0
1, 59039, Note_on_c, 9, 42, 0
1, 59040, Note_on_c, 9, 40, 81
1, 59040, Note_on_c, 9, 42, 94
1, 59279, Note_on_c, 9, 40, 0
1, 59279, Note_on_c, 9, 42, 0
1, 59280, Note_on_c, 9, 42, 94
1, 59519, Note_on_c, 9, 42, 0
1, 59520, Note_on_c, 9, 42, 98
1, 59520, Note_on_c, 9, 36, 84
1, 59759, Note_on_c, 9, 42, 0
1, 59760, Note_on_c, 9, 42, 84
1, 59999, Note_on_c, 9, 36, 0
1, 59999, Note_on_c, 9, 42, 0
1, 60000, Note_on_c, 9, 40, 85
1, 60000, Note_on_c, 9, 42, 100
1, 60239, Note_on_c, 9, 40, 0
1, 60239, Note_on_c, 9, 42, 0
1, 60240, Note_on_c, 9, 42, 69
1, 60240, Note_on_c, 9, 36, 79
1, 60479, Note_on_c, 9, 42, 0
1, 60479, Note_on_c, 9, 36, 0
1, 60480, Note_on_c, 9, 42, 96
1, 60480, Note_on_c, 9, 36, 84
1, 60719, Note_on_c, 9, 42, 0
1, 60720, Note_on_c, 9, 42, 77
1, 60959, Note_on_c, 9, 36, 0
1, 60959, Note_on_c, 9, 42, 0
1, 60960, Note_on_c, 9, 40, 79
1, 60960, Note_on_c, 9, 42, 100
1, 61199, Note_on_c, 9, 40, 0
1, 61199, Note_on_c, 9, 42, 0
1, 61200, Note_on_c, 9, 42, 78
1, 61439, Note_on_c, 9, 42, 0
1, 61440, Note_on_c, 9, 42, 96
1, 61440, Note_on_c, 9, 36, 87
1, 61679, Note_on_c, 9, 42, 0
1, 61680, Note_on_c, 9, 42, 88
1, 61919, Note_on_c, 9, 36, 0
1, 61919, Note_on_c, 9, 42, 0
1, 61920, Note_on_c, 9, 40, 81
1, 61920, Note_on_c, 9, 42, 102
1, 61920, Note_on_c, 9, 36, 95
1, 62159, Note_on_c, 9, 40, 0
1, 62159, Note_on_c, 9, 42, 0
1, 62160, Note_on_c, 9, 42, 88
1, 62399, Note_on_c, 9, 36, 0
1, 62399, Note_on_c, 9, 42, 0
1, 62400, Note_on_c, 9, 42, 92
1, 62400, Note_on_c, 9, 36, 95
1, 62639, Note_on_c, 9, 42, 0
1, 62700, Note_on_c, 9, 42, 96
1, 62879, Note_on_c, 9, 36, 0
1, 62879, Note_on_c, 9, 42, 0
1, 62880, Note_on_c, 9, 36, 86
1, 62940, Note_on_c, 9, 40, 79
1, 62940, Note_on_c, 9, 42, 106
1, 63119, Note_on_c, 9, 40, 0
1, 63119, Note_on_c, 9, 42, 0
1, 63120, Note_on_c, 9, 42, 98
1, 63359, Note_on_c, 9, 36, 0
1, 63359, Note_on_c, 9, 42, 0
1, 63360, Note_on_c, 9, 42, 104
1, 63360, Note_on_c, 9, 36, 86
1, 63599, Note_on_c, 9, 42, 0
1, 63645, Note_on_c, 9, 42, 81
1, 63839, Note_on_c, 9, 36, 0
1, 63839, Note_on_c, 9, 42, 0
1, 63840, Note_on_c, 9, 36, 90
1, 63870, Note_on_c, 9, 40, 80
1, 63870, Note_on_c, 9, 42, 108
1, 63929, Note_on_c, 9, 40, 0
1, 63929, Note_on_c, 9, 42, 0
1, 64140, Note_on_c, 9, 78, 110
1, 64140, Note_on_c, 9, 42, 96
1, 64319, Note_on_c, 9, 36, 0
1, 64319, Note_on_c, 9, 78, 0
1, 64319, Note_on_c, 9, 42, 0
1, 64320, Note_on_c, 9, 46, 104
1, 64320, Note_on_c, 9, 42, 108
1, 64320, Note_on_c, 9, 36, 85
1, 64559, Note_on_c, 9, 46, 0
1, 64559, Note_on_c, 9, 42, 0
1, 64560, Note_on_c, 9, 42, 86
1, 64799, Note_on_c, 9, 36, 0
1, 64799, Note_on_c, 9, 42, 0
1, 64800, Note_on_c, 9, 40, 74
1, 64800, Note_on_c, 9, 42, 117
1, 64800, Note_on_c, 9, 36, 95
1, 65039, Note_on_c, 9, 40, 0
1, 65039, Note_on_c, 9, 42, 0
1, 65040, Note_on_c, 9, 42, 108
1, 65279, Note_on_c, 9, 36, 0
1, 65279, Note_on_c, 9, 42, 0
1, 65280, Note_on_c, 9, 44, 96
1, 65280, Note_on_c, 9, 36, 99
1, 65325, Note_on_c, 9, 74, 95
1, 65325, Note_on_c, 9, 42, 63
1, 65384, Note_on_c, 9, 74, 0
1, 65519, Note_on_c, 9, 44, 0
1, 65519, Note_on_c, 9, 36, 0
1, 65519, Note_on_c, 9, 42, 0
1, 65520, Note_on_c, 9, 44, 26
1, 65759, Note_on_c, 9, 44, 0
1, 65760, Note_on_c, 9, 40, 84
1, 65760, Note_on_c, 9, 73, 94
1, 65760, Note_on_c, 9, 42, 125
1, 65760, Note_on_c, 9, 44, 114
1, 65999, Note_on_c, 9, 40, 0
1, 65999, Note_on_c, 9, 73, 0
1, 65999, Note_on_c, 9, 42, 0
1, 65999, Note_on_c, 9, 44, 0
1, 66000, Note_on_c, 9, 73, 114
1, 66000, Note_on_c, 9, 44, 63
1, 66239, Note_on_c, 9, 73, 0
1, 66239, Note_on_c, 9, 44, 0
1, 66240, Note_on_c, 9, 74, 113
1, 66240, Note_on_c, 9, 42, 81
1, 66240, Note_on_c, 9, 44, 90
1, 66240, Note_on_c, 9, 36, 95
1, 66479, Note_on_c, 9, 74, 0
1, 66479, Note_on_c, 9, 42, 0
1, 66479, Note_on_c, 9, 44, 0
1, 66479, Note_on_c, 9, 36, 0
1, 66480, Note_on_c, 9, 40, 98
1, 66480, Note_on_c, 9, 44, 29
1, 66719, Note_on_c, 9, 40, 0
1, 66719, Note_on_c, 9, 44, 0
1, 66720, Note_on_c, 9, 40, 79
1, 66720, Note_on_c, 9, 73, 110
1, 66720, Note_on_c, 9, 42, 125
1, 66720, Note_on_c, 9, 44, 114
1, 66959, Note_on_c, 9, 40, 0
1, 66959, Note_on_c, 9, 73, 0
1, 66959, Note_on_c, 9, 42, 0
1, 66959, Note_on_c, 9, 44, 0
1, 66960, Note_on_c, 9, 73, 117
1, 66960, Note_on_c, 9, 42, 74
1, 66960, Note_on_c, 9, 44, 84
1, 67199, Note_on_c, 9, 73, 0
1, 67199, Note_on_c, 9, 42, 0
1, 67199, Note_on_c, 9, 44, 0
1, 67200, Note_on_c, 9, 44, 108
1, 67200, Note_on_c, 9, 36, 99
1, 67230, Note_on_c, 9, 74, 113
1, 67230, Note_on_c, 9, 42, 104
1, 67289, Note_on_c, 9, 74, 0
1, 67319, Note_on_c, 9, 42, 0
1, 67439, Note_on_c, 9, 44, 0
1, 67439, Note_on_c, 9, 36, 0
1, 67440, Note_on_c, 9, 42, 62
1, 67440, Note_on_c, 9, 44, 73
1, 67679, Note_on_c, 9, 42, 0
1, 67679, Note_on_c, 9, 44, 0
1, 67680, Note_on_c, 9, 40, 80
1, 67680, Note_on_c, 9, 73, 108
1, 67680, Note_on_c, 9, 42, 114
1, 67680, Note_on_c, 9, 44, 117
1, 67919, Note_on_c, 9, 40, 0
1, 67919, Note_on_c, 9, 73, 0
1, 67919, Note_on_c, 9, 42, 0
1, 67919, Note_on_c, 9, 44, 0
1, 67920, Note_on_c, 9, 73, 106
1, 67920, Note_on_c, 9, 42, 84
1, 67920, Note_on_c, 9, 44, 92
1, 68159, Note_on_c, 9, 73, 0
1, 68159, Note_on_c, 9, 42, 0
1, 68159, Note_on_c, 9, 44, 0
1, 68160, Note_on_c, 9, 74, 103
1, 68160, Note_on_c, 9, 42, 106
1, 68160, Note_on_c, 9, 44, 104
1, 68160, Note_on_c, 9, 36, 98
1, 68399, Note_on_c, 9, 74, 0
1, 68399, Note_on_c, 9, 42, 0
1, 68399, Note_on_c, 9, 44, 0
1, 68399, Note_on_c, 9, 36, 0
1, 68400, Note_on_c, 9, 42, 80
1, 68400, Note_on_c, 9, 44, 77
1, 68639, Note_on_c, 9, 42, 0
1, 68639, Note_on_c, 9, 44, 0
1, 68640, Note_on_c, 9, 40, 77
1, 68640, Note_on_c, 9, 73, 96
1, 68640, Note_on_c, 9, 42, 106
1, 68640, Note_on_c, 9, 44, 114
1, 68879, Note_on_c, 9, 40, 0
1, 68879, Note_on_c, 9, 73, 0
1, 68879, Note_on_c, 9, 42, 0
1, 68879, Note_on_c, 9, 44, 0
1, 68880, Note_on_c, 9, 73, 114
1, 68880, Note_on_c, 9, 42, 60
1, 68880, Note_on_c, 9, 44, 80
1, 69119, Note_on_c, 9, 73, 0
1, 69119, Note_on_c, 9, 42, 0
1, 69119, Note_on_c, 9, 44, 0
1, 69120, Note_on_c, 9, 74, 105
1, 69120, Note_on_c, 9, 42, 104
1, 69120, Note_on_c, 9, 44, 108
1, 69120, Note_on_c, 9, 36, 96
1, 69359, Note_on_c, 9, 74, 0
1, 69359, Note_on_c, 9, 42, 0
1, 69359, Note_on_c, 9, 44, 0
1, 69359, Note_on_c, 9, 36, 0
1, 69360, Note_on_c, 9, 42, 59
1, 69360, Note_on_c, 9, 44, 82
1, 69599, Note_on_c, 9, 42, 0
1, 69599, Note_on_c, 9, 44, 0
1, 69600, Note_on_c, 9, 40, 73
1, 69600, Note_on_c, 9, 73, 104
1, 69600, Note_on_c, 9, 42, 100
1, 69600, Note_on_c, 9, 44, 110
1, 69839, Note_on_c, 9, 40, 0
1, 69839, Note_on_c, 9, 73, 0
1, 69839, Note_on_c, 9, 42, 0
1, 69839, Note_on_c, 9, 44, 0
1, 69840, Note_on_c, 9, 73, 106
1, 69840, Note_on_c, 9, 42, 81
1, 69840, Note_on_c, 9, 44, 102
1, 70079, Note_on_c, 9, 73, 0
1, 70079, Note_on_c, 9, 42, 0
1, 70079, Note_on_c, 9, 44, 0
1, 70080, Note_on_c, 9, 74, 90
1, 70080, Note_on_c, 9, 42, 104
1, 70080, Note_on_c, 9, 44, 106
1, 70080, Note_on_c, 9, 36, 103
1, 70319, Note_on_c, 9, 74, 0
1, 70319, Note_on_c, 9, 42, 0
1, 70319, Note_on_c, 9, 44, 0
1, 70319, Note_on_c, 9, 36, 0
1, 70320, Note_on_c, 9, 42, 72
1, 70320, Note_on_c, 9, 44, 73
1, 70559, Note_on_c, 9, 42, 0
1, 70559, Note_on_c, 9, 44, 0
1, 70560, Note_on_c, 9, 40, 79
1, 70560, Note_on_c, 9, 73, 106
1, 70560, Note_on_c, 9, 42, 104
1, 70590, Note_on_c, 9, 44, 108
1, 70649, Note_on_c, 9, 44, 0
1, 70799, Note_on_c, 9, 40, 0
1, 70799, Note_on_c, 9, 73, 0
1, 70799, Note_on_c, 9, 42, 0
1, 70800, Note_on_c, 9, 73, 96
1, 70800, Note_on_c, 9, 42, 77
1, 70800, Note_on_c, 9, 44, 81
1, 71039, Note_on_c, 9, 73, 0
1, 71039, Note_on_c, 9, 42, 0
1, 71039, Note_on_c, 9, 44, 0
1, 71040, Note_on_c, 9, 74, 116
1, 71040, Note_on_c, 9, 42, 106
1, 71040, Note_on_c, 9, 44, 110
1, 71040, Note_on_c, 9, 36, 96
1, 71279, Note_on_c, 9, 74, 0
1, 71279, Note_on_c, 9, 42, 0
1, 71279, Note_on_c, 9, 44, 0
1, 71279, Note_on_c, 9, 36, 0
1, 71280, Note_on_c, 9, 44, 86
1, 71340, Note_on_c, 9, 42, 73
1, 71519, Note_on_c, 9, 44, 0
1, 71519, Note_on_c, 9, 42, 0
1, 71520, Note_on_c, 9, 40, 80
1, 71520, Note_on_c, 9, 73, 96
1, 71520, Note_on_c, 9, 42, 110
1, 71550, Note_on_c, 9, 44, 114
1, 71609, Note_on_c, 9, 44, 0
1, 71759, Note_on_c, 9, 40, 0
1, 71759, Note_on_c, 9, 73, 0
1, 71759, Note_on_c, 9, 42, 0
1, 71760, Note_on_c, 9, 44, 92
1, 71790, Note_on_c, 9, 73, 108
1, 71790, Note_on_c, 9, 42, 76
1, 71849, Note_on_c, 9, 73, 0
1, 71879, Note_on_c, 9, 42, 0
1, 71999, Note_on_c, 9, 44, 0
1, 72000, Note_on_c, 9, 74, 103
1, 72000, Note_on_c, 9, 42, 100
1, 72000, Note_on_c, 9, 44, 104
1, 72000, Note_on_c, 9, 36, 84
1, 72239, Note_on_c, 9, 74, 0
1, 72239, Note_on_c, 9, 42, 0
1, 72239, Note_on_c, 9, 44, 0
1, 72239, Note_on_c, 9, 36, 0
1, 72240, Note_on_c, 9, 40, 79
1, 72240, Note_on_c, 9, 42, 80
1, 72240, Note_on_c, 9, 44, 85
1, 72479, Note_on_c, 9, 40, 0
1, 72479, Note_on_c, 9, 42, 0
1, 72479, Note_on_c, 9, 44, 0
1, 72480, Note_on_c, 9, 40, 81
1, 72480, Note_on_c, 9, 73, 110
1, 72480, Note_on_c, 9, 42, 98
1, 72480, Note_on_c, 9, 44, 106
1, 72719, Note_on_c, 9, 40, 0
1, 72719, Note_on_c, 9, 73, 0
1, 72719, Note_on_c, 9, 42, 0
1, 72719, Note_on_c, 9, 44, 0
1, 72720, Note_on_c, 9, 73, 114
1, 72720, Note_on_c, 9, 42, 96
1, 72720, Note_on_c, 9, 44, 100
1, 72959, Note_on_c, 9, 73, 0
1, 72959, Note_on_c, 9, 42, 0
1, 72959, Note_on_c, 9, 44, 0
1, 72960, Note_on_c, 9, 74, 86
1, 72960, Note_on_c, 9, 42, 104
1, 72960, Note_on_c, 9, 44, 106
1, 72960, Note_on_c, 9, 36, 93
1, 73199, Note_on_c, 9, 74, 0
1, 73199, Note_on_c, 9, 42, 0
1, 73199, Note_on_c, 9, 44, 0
1, 73199, Note_on_c, 9, 36, 0
1, 73200, Note_on_c, 9, 44, 76
1, 73230, Note_on_c, 9, 42, 52
1, 73319, Note_on_c, 9, 42, 0
1, 73439, Note_on_c, 9, 44, 0
1, 73440, Note_on_c, 9, 40, 80
1, 73440, Note_on_c, 9, 73, 108
1, 73440, Note_on_c, 9, 42, 86
1, 73440, Note_on_c, 9, 44, 108
1, 73679, Note_on_c, 9, 40, 0
1, 73679, Note_on_c, 9, 73, 0
1, 73679, Note_on_c, 9, 42, 0
1, 73679, Note_on_c, 9, 44, 0
1, 73680, Note_on_c, 9, 73, 106
1, 73680, Note_on_c, 9, 42, 81
1, 73740, Note_on_c, 9, 44, 90
1, 73919, Note_on_c, 9, 73, 0
1, 73919, Note_on_c, 9, 42, 0
1, 73919, Note_on_c, 9, 44, 0
1, 73980, Note_on_c, 9, 74, 96
1, 73980, Note_on_c, 9, 42, 85
1, 73980, Note_on_c, 9, 44, 100
1, 73980, Note_on_c, 9, 36, 96
1, 74159, Note_on_c, 9, 74, 0
1, 74159, Note_on_c, 9, 42, 0
1, 74159, Note_on_c, 9, 44, 0
1, 74159, Note_on_c, 9, 36, 0
1, 74160, Note_on_c, 9, 44, 102
1, 74205, Note_on_c, 9, 42, 88
1, 74399, Note_on_c, 9, 44, 0
1, 74399, Note_on_c, 9, 42, 0
1, 74400, Note_on_c, 9, 44, 108
1, 74430, Note_on_c, 9, 40, 80
1, 74430, Note_on_c, 9, 73, 117
1, 74430, Note_on_c, 9, 42, 104
1, 74489, Note_on_c, 9, 40, 0
1, 74489, Note_on_c, 9, 73, 0
1, 74519, Note_on_c, 9, 42, 0
1, 74639, Note_on_c, 9, 44, 0
1, 74640, Note_on_c, 9, 73, 114
1, 74640, Note_on_c, 9, 42, 94
1, 74640, Note_on_c, 9, 44, 106
1, 74879, Note_on_c, 9, 73, 0
1, 74879, Note_on_c, 9, 42, 0
1, 74879, Note_on_c, 9, 44, 0
1, 74880, Note_on_c, 9, 74, 107
1, 74880, Note_on_c, 9, 42, 82
1, 74910, Note_on_c, 9, 44, 102
1, 74910, Note_on_c, 9, 36, 96
1, 74969, Note_on_c, 9, 44, 0
1, 74969, Note_on_c, 9, 36, 0
1, 75119, Note_on_c, 9, 74, 0
1, 75119, Note_on_c, 9, 42, 0
1, 75120, Note_on_c, 9, 42, 62
1, 75120, Note_on_c, 9, 44, 74
1, 75359, Note_on_c, 9, 42, 0
1, 75359, Note_on_c, 9, 44, 0
1, 75360, Note_on_c, 9, 40, 77
1, 75360, Note_on_c, 9, 73, 110
1, 75360, Note_on_c, 9, 42, 100
1, 75360, Note_on_c, 9, 44, 108
1, 75599, Note_on_c, 9, 40, 0
1, 75599, Note_on_c, 9, 73, 0
1, 75599, Note_on_c, 9, 42, 0
1, 75599, Note_on_c, 9, 44, 0
1, 75600, Note_on_c, 9, 44, 88
1, 75615, Note_on_c, 9, 73, 114
1, 75615, Note_on_c, 9, 42, 77
1, 75674, Note_on_c, 9, 73, 0
1, 75839, Note_on_c, 9, 44, 0
1, 75839, Note_on_c, 9, 42, 0
1, 75840, Note_on_c, 9, 74, 109
1, 75840, Note_on_c, 9, 42, 84
1, 75840, Note_on_c, 9, 44, 104
1, 75840, Note_on_c, 9, 36, 92
1, 76079, Note_on_c, 9, 74, 0
1, 76079, Note_on_c, 9, 42, 0
1, 76079, Note_on_c, 9, 44, 0
1, 76079, Note_on_c, 9, 36, 0
1, 76080, Note_on_c, 9, 42, 66
1, 76080, Note_on_c, 9, 44, 78
1, 76319, Note_on_c, 9, 42, 0
1, 76319, Note_on_c, 9, 44, 0
1, 76320, Note_on_c, 9, 40, 80
1, 76320, Note_on_c, 9, 73, 108
1, 76320, Note_on_c, 9, 42, 96
1, 76320, Note_on_c, 9, 44, 108
1, 76559, Note_on_c, 9, 40, 0
1, 76559, Note_on_c, 9, 73, 0
1, 76559, Note_on_c, 9, 42, 0
1, 76559, Note_on_c, 9, 44, 0
1, 76560, Note_on_c, 9, 73, 117
1, 76560, Note_on_c, 9, 42, 51
1, 76560, Note_on_c, 9, 44, 76
1, 76799, Note_on_c, 9, 73, 0
1, 76799, Note_on_c, 9, 42, 0
1, 76799, Note_on_c, 9, 44, 0
1, 76800, Note_on_c, 9, 74, 93
1, 76800, Note_on_c, 9, 42, 104
1, 76800, Note_on_c, 9, 44, 110
1, 76800, Note_on_c, 9, 36, 89
1, 77039, Note_on_c, 9, 74, 0
1, 77039, Note_on_c, 9, 42, 0
1, 77039, Note_on_c, 9, 44, 0
1, 77039, Note_on_c, 9, 36, 0
1, 77040, Note_on_c, 9, 42, 62
1, 77040, Note_on_c, 9, 44, 72
1, 77279, Note_on_c, 9, 42, 0
1, 77279, Note_on_c, 9, 44, 0
1, 77280, Note_on_c, 9, 40, 76
1, 77280, Note_on_c, 9, 73, 110
1, 77280, Note_on_c, 9, 42, 100
1, 77280, Note_on_c, 9, 44, 110
1, 77519, Note_on_c, 9, 40, 0
1, 77519, Note_on_c, 9, 73, 0
1, 77519, Note_on_c, 9, 42, 0
1, 77519, Note_on_c, 9, 44, 0
1, 77520, Note_on_c, 9, 73, 114
1, 77520, Note_on_c, 9, 44, 44
1, 77759, Note_on_c, 9, 73, 0
1, 77759, Note_on_c, 9, 44, 0
1, 77760, Note_on_c, 9, 74, 99
1, 77760, Note_on_c, 9, 42, 76
1, 77760, Note_on_c, 9, 44, 90
1, 77760, Note_on_c, 9, 36, 100
1, 77999, Note_on_c, 9, 74, 0
1, 77999, Note_on_c, 9, 42, 0
1, 77999, Note_on_c, 9, 44, 0
1, 77999, Note_on_c, 9, 36, 0
1, 78000, Note_on_c, 9, 42, 26
1, 78000, Note_on_c, 9, 44, 57
1, 78239, Note_on_c, 9, 42, 0
1, 78239, Note_on_c, 9, 44, 0
1, 78240, Note_on_c, 9, 40, 76
1, 78240, Note_on_c, 9, 73, 106
1, 78240, Note_on_c, 9, 42, 104
1, 78240, Note_on_c, 9, 44, 114
1, 78479, Note_on_c, 9, 40, 0
1, 78479, Note_on_c, 9, 73, 0
1, 78479, Note_on_c, 9, 42, 0
1, 78479, Note_on_c, 9, 44, 0
1, 78480, Note_on_c, 9, 73, 108
1, 78480, Note_on_c, 9, 42, 84
1, 78480, Note_on_c, 9, 44, 98
1, 78719, Note_on_c, 9, 73, 0
1, 78719, Note_on_c, 9, 42, 0
1, 78719, Note_on_c, 9, 44, 0
1, 78720, Note_on_c, 9, 74, 103
1, 78720, Note_on_c, 9, 42, 90
1, 78720, Note_on_c, 9, 44, 98
1, 78720, Note_on_c, 9, 36, 93
1, 78959, Note_on_c, 9, 74, 0
1, 78959, Note_on_c, 9, 42, 0
1, 78959, Note_on_c, 9, 44, 0
1, 78959, Note_on_c, 9, 36, 0
1, 78960, Note_on_c, 9, 44, 65
1, 78990, Note_on_c, 9, 42, 29
1, 79079, Note_on_c, 9, 42, 0
1, 79199, Note_on_c, 9, 44, 0
1, 79200, Note_on_c, 9, 40, 82
1, 79200, Note_on_c, 9, 73, 110
1, 79200, Note_on_c, 9, 42, 98
1, 79200, Note_on_c, 9, 44, 104
1, 79439, Note_on_c, 9, 40, 0
1, 79439, Note_on_c, 9, 73, 0
1, 79439, Note_on_c, 9, 42, 0
1, 79439, Note_on_c, 9, 44, 0
1, 79440, Note_on_c, 9, 44, 96
1, 79485, Note_on_c, 9, 73, 110
1, 79485, Note_on_c, 9, 42, 77
1, 79544, Note_on_c, 9, 73, 0
1, 79679, Note_on_c, 9, 44, 0
1, 79679, Note_on_c, 9, 42, 0
1, 79680, Note_on_c, 9, 74, 111
1, 79680, Note_on_c, 9, 42, 74
1, 79680, Note_on_c, 9, 55, 86
1, 79680, Note_on_c, 9, 44, 88
1, 79680, Note_on_c, 9, 36, 98
1, 79919, Note_on_c, 9, 74, 0
1, 79919, Note_on_c, 9, 42, 0
1, 79919, Note_on_c, 9, 55, 0
1, 79919, Note_on_c, 9, 44, 0
1, 79919, Note_on_c, 9, 36, 0
1, 79920, Note_on_c, 9, 42, 64
1, 79980, Note_on_c, 9, 44, 88
1, 80159, Note_on_c, 9, 42, 0
1, 80159, Note_on_c, 9, 44, 0
1, 80220, Note_on_c, 9, 40, 75
1, 80220, Note_on_c, 9, 73, 110
1, 80220, Note_on_c, 9, 42, 110
1, 80220, Note_on_c, 9, 44, 108
1, 80399, Note_on_c, 9, 40, 0
1, 80399, Note_on_c, 9, 73, 0
1, 80399, Note_on_c, 9, 42, 0
1, 80399, Note_on_c, 9, 44, 0
1, 80400, Note_on_c, 9, 73, 126
1, 80400, Note_on_c, 9, 42, 62
1, 80639, Note_on_c, 9, 73, 0
1, 80639, Note_on_c, 9, 42, 0
1, 80640, Note_on_c, 9, 42, 120
1, 80640, Note_on_c, 9, 44, 108
1, 80640, Note_on_c, 9, 36, 96
1, 80879, Note_on_c, 9, 42, 0
1, 80910, Note_on_c, 9, 42, 58
1, 80999, Note_on_c, 9, 42, 0
1, 81119, Note_on_c, 9, 44, 0
1, 81119, Note_on_c, 9, 36, 0
1, 81120, Note_on_c, 9, 40, 80
1, 81120, Note_on_c, 9, 42, 100
1, 81120, Note_on_c, 9, 44, 120
1, 81359, Note_on_c, 9, 40, 0
1, 81359, Note_on_c, 9, 42, 0
1, 81359, Note_on_c, 9, 44, 0
1, 81360, Note_on_c, 9, 44, 81
1, 81360, Note_on_c, 9, 36, 93
1, 81375, Note_on_c, 9, 42, 81
1, 81599, Note_on_c, 9, 44, 0
1, 81599, Note_on_c, 9, 36, 0
1, 81599, Note_on_c, 9, 42, 0
1, 81600, Note_on_c, 9, 36, 65
1, 81630, Note_on_c, 9, 42, 77
1, 81839, Note_on_c, 9, 36, 0
1, 81840, Note_on_c, 9, 44, 102
1, 81840, Note_on_c, 9, 36, 89
1, 81869, Note_on_c, 9, 42, 0
1, 81870, Note_on_c, 9, 42, 63
1, 81959, Note_on_c, 9, 42, 0
1, 82079, Note_on_c, 9, 44, 0
1, 82079, Note_on_c, 9, 36, 0
1, 82080, Note_on_c, 9, 40, 73
1, 82080, Note_on_c, 9, 42, 117
1, 82319, Note_on_c, 9, 40, 0
1, 82319, Note_on_c, 9, 42, 0
1, 82320, Note_on_c, 9, 42, 69
1, 82559, Note_on_c, 9, 42, 0
1, 82560, Note_on_c, 9, 36, 109
1, 82590, Note_on_c, 9, 42, 90
1, 82649, Note_on_c, 9, 42, 0
1, 82800, Note_on_c, 9, 42, 54
1, 83039, Note_on_c, 9, 36, 0
1, 83039, Note_on_c, 9, 42, 0
1, 83040, Note_on_c, 9, 40, 80
1, 83040, Note_on_c, 9, 44, 110
1, 83279, Note_on_c, 9, 40, 0
1, 83279, Note_on_c, 9, 44, 0
1, 83280, Note_on_c, 9, 42, 49
1, 83280, Note_on_c, 9, 44, 64
1, 83280, Note_on_c, 9, 36, 92
1, 83519, Note_on_c, 9, 42, 0
1, 83519, Note_on_c, 9, 44, 0
1, 83519, Note_on_c, 9, 36, 0
1, 83520, Note_on_c, 9, 42, 96
1, 83520, Note_on_c, 9, 36, 87
1, 83759, Note_on_c, 9, 42, 0
1, 83760, Note_on_c, 9, 40, 54
1, 83760, Note_on_c, 9, 42, 55
1, 83999, Note_on_c, 9, 36, 0
1, 83999, Note_on_c, 9, 40, 0
1, 83999, Note_on_c, 9, 42, 0
1, 84000, Note_on_c, 9, 40, 86
1, 84000, Note_on_c, 9, 44, 100
1, 84239, Note_on_c, 9, 40, 0
1, 84240, Note_on_c, 9, 42, 66
1, 84479, Note_on_c, 9, 44, 0
1, 84479, Note_on_c, 9, 42, 0
1, 84480, Note_on_c, 9, 42, 77
1, 84480, Note_on_c, 9, 36, 96
1, 84719, Note_on_c, 9, 42, 0
1, 84720, Note_on_c, 9, 42, 86
1, 84959, Note_on_c, 9, 36, 0
1, 84959, Note_on_c, 9, 42, 0
1, 84960, Note_on_c, 9, 40, 81
1, 84960, Note_on_c, 9, 44, 108
1, 85199, Note_on_c, 9, 40, 0
1, 85199, Note_on_c, 9, 44, 0
1, 85200, Note_on_c, 9, 42, 61
1, 85200, Note_on_c, 9, 36, 93
1, 85439, Note_on_c, 9, 42, 0
1, 85439, Note_on_c, 9, 36, 0
1, 85440, Note_on_c, 9, 36, 92
1, 85470, Note_on_c, 9, 42, 80
1, 85529, Note_on_c, 9, 42, 0
1, 85680, Note_on_c, 9, 42, 80
1, 85919, Note_on_c, 9, 36, 0
1, 85919, Note_on_c, 9, 42, 0
1, 85920, Note_on_c, 9, 40, 81
1, 85920, Note_on_c, 9, 42, 104
1, 85920, Note_on_c, 9, 44, 114
1, 86159, Note_on_c, 9, 44, 0
1, 86160, Note_on_c, 9, 44, 62
1, 86399, Note_on_c, 9, 40, 0
1, 86399, Note_on_c, 9, 42, 0
1, 86399, Note_on_c, 9, 44, 0
1, 86400, Note_on_c, 9, 42, 38
1, 86400, Note_on_c, 9, 44, 85
1, 86400, Note_on_c, 9, 36, 105
1, 86639, Note_on_c, 9, 42, 0
1, 86640, Note_on_c, 9, 42, 58
1, 86879, Note_on_c, 9, 44, 0
1, 86879, Note_on_c, 9, 36, 0
1, 86879, Note_on_c, 9, 42, 0
1, 86880, Note_on_c, 9, 40, 84
1, 86880, Note_on_c, 9, 42, 92
1, 86880, Note_on_c, 9, 44, 108
1, 87119, Note_on_c, 9, 40, 0
1, 87119, Note_on_c, 9, 42, 0
1, 87119, Note_on_c, 9, 44, 0
1, 87120, Note_on_c, 9, 44, 82
1, 87120, Note_on_c, 9, 36, 90
1, 87135, Note_on_c, 9, 42, 57
1, 87359, Note_on_c, 9, 44, 0
1, 87359, Note_on_c, 9, 36, 0
1, 87359, Note_on_c, 9, 42, 0
1, 87360, Note_on_c, 9, 42, 86
1, 87360, Note_on_c, 9, 44, 102
1, 87360, Note_on_c, 9, 36, 81
1, 87599, Note_on_c, 9, 42, 0
1, 87599, Note_on_c, 9, 44, 0
1, 87599, Note_on_c, 9, 36, 0
1, 87600, Note_on_c, 9, 42, 82
1, 87600, Note_on_c, 9, 44, 80
1, 87839, Note_on_c, 9, 42, 0
1, 87839, Note_on_c, 9, 44, 0
1, 87840, Note_on_c, 9, 40, 75
1, 87840, Note_on_c, 9, 42, 78
1, 87840, Note_on_c, 9, 44, 96
1, 88079, Note_on_c, 9, 40, 0
1, 88079, Note_on_c, 9, 42, 0
1, 88079, Note_on_c, 9, 44, 0
1, 88080, Note_on_c, 9, 42, 73
1, 88080, Note_on_c, 9, 44, 76
1, 88319, Note_on_c, 9, 42, 0
1, 88319, Note_on_c, 9, 44, 0
1, 88320, Note_on_c, 9, 44, 110
1, 88320, Note_on_c, 9, 36, 96
1, 88350, Note_on_c, 9, 42, 96
1, 88439, Note_on_c, 9, 42, 0
1, 88559, Note_on_c, 9, 44, 0
1, 88559, Note_on_c, 9, 36, 0
1, 88560, Note_on_c, 9, 44, 59
1, 88575, Note_on_c, 9, 42, 31
1, 88799, Note_on_c, 9, 44, 0
1, 88799, Note_on_c, 9, 42, 0
1, 88800, Note_on_c, 9, 40, 81
1, 88800, Note_on_c, 9, 42, 84
1, 88800, Note_on_c, 9, 44, 100
1, 89039, Note_on_c, 9, 40, 0
1, 89039, Note_on_c, 9, 42, 0
1, 89039, Note_on_c, 9, 44, 0
1, 89040, Note_on_c, 9, 42, 76
1, 89040, Note_on_c, 9, 44, 85
1, 89040, Note_on_c, 9, 36, 82
1, 89279, Note_on_c, 9, 42, 0
1, 89279, Note_on_c, 9, 44, 0
1, 89279, Note_on_c, 9, 36, 0
1, 89280, Note_on_c, 9, 42, 100
1, 89280, Note_on_c, 9, 44, 106
1, 89280, Note_on_c, 9, 36, 74
1, 89519, Note_on_c, 9, 42, 0
1, 89519, Note_on_c, 9, 44, 0
1, 89519, Note_on_c, 9, 36, 0
1, 89520, Note_on_c, 9, 42, 82
1, 89520, Note_on_c, 9, 44, 85
1, 89759, Note_on_c, 9, 42, 0
1, 89759, Note_on_c, 9, 44, 0
1, 89760, Note_on_c, 9, 40, 81
1, 89760, Note_on_c, 9, 42, 85
1, 89760, Note_on_c, 9, 44, 102
1, 89999, Note_on_c, 9, 40, 0
1, 89999, Note_on_c, 9, 42, 0
1, 89999, Note_on_c, 9, 44, 0
1, 90000, Note_on_c, 9, 42, 76
1, 90000, Note_on_c, 9, 44, 80
1, 90239, Note_on_c, 9, 42, 0
1, 90239, Note_on_c, 9, 44, 0
1, 90240, Note_on_c, 9, 42, 85
1, 90240, Note_on_c, 9, 44, 98
1, 90240, Note_on_c, 9, 36, 92
1, 90479, Note_on_c, 9, 42, 0
1, 90479, Note_on_c, 9, 44, 0
1, 90479, Note_on_c, 9, 36, 0
1, 90480, Note_on_c, 9, 42, 76
1, 90480, Note_on_c, 9, 44, 82
1, 90719, Note_on_c, 9, 42, 0
1, 90719, Note_on_c, 9, 44, 0
1, 90720, Note_on_c, 9, 40, 77
1, 90720, Note_on_c, 9, 42, 88
1, 90720, Note_on_c, 9, 44, 100
1, 90959, Note_on_c, 9, 40, 0
1, 90959, Note_on_c, 9, 42, 0
1, 90959, Note_on_c, 9, 44, 0
1, 90960, Note_on_c, 9, 42, 57
1, 90960, Note_on_c, 9, 44, 76
1, 90960, Note_on_c, 9, 36, 98
1, 91199, Note_on_c, 9, 42, 0
1, 91199, Note_on_c, 9, 44, 0
1, 91199, Note_on_c, 9, 36, 0
1, 91200, Note_on_c, 9, 42, 100
1, 91200, Note_on_c, 9, 44, 108
1, 91200, Note_on_c, 9, 36, 81
1, 91439, Note_on_c, 9, 42, 0
1, 91439, Note_on_c, 9, 44, 0
1, 91439, Note_on_c, 9, 36, 0
1, 91440, Note_on_c, 9, 42, 52
1, 91440, Note_on_c, 9, 44, 62
1, 91679, Note_on_c, 9, 42, 0
1, 91679, Note_on_c, 9, 44, 0
1, 91680, Note_on_c, 9, 40, 81
1, 91680, Note_on_c, 9, 42, 82
1, 91680, Note_on_c, 9, 44, 100
1, 91919, Note_on_c, 9, 40, 0
1, 91919, Note_on_c, 9, 42, 0
1, 91919, Note_on_c, 9, 44, 0
1, 91920, Note_on_c, 9, 42, 69
1, 91920, Note_on_c, 9, 44, 84
1, 92159, Note_on_c, 9, 42, 0
1, 92159, Note_on_c, 9, 44, 0
1, 92160, Note_on_c, 9, 42, 102
1, 92160, Note_on_c, 9, 44, 106
1, 92160, Note_on_c, 9, 36, 82
1, 92399, Note_on_c, 9, 42, 0
1, 92399, Note_on_c, 9, 44, 0
1, 92399, Note_on_c, 9, 36, 0
1, 92400, Note_on_c, 9, 42, 80
1, 92400, Note_on_c, 9, 44, 86
1, 92639, Note_on_c, 9, 42, 0
1, 92639, Note_on_c, 9, 44, 0
1, 92640, Note_on_c, 9, 40, 76
1, 92640, Note_on_c, 9, 42, 80
1, 92640, Note_on_c, 9, 44, 98
1, 92879, Note_on_c, 9, 40, 0
1, 92879, Note_on_c, 9, 42, 0
1, 92879, Note_on_c, 9, 44, 0
1, 92880, Note_on_c, 9, 42, 86
1, 92880, Note_on_c, 9, 44, 100
1, 92880, Note_on_c, 9, 36, 89
1, 93119, Note_on_c, 9, 42, 0
1, 93119, Note_on_c, 9, 44, 0
1, 93119, Note_on_c, 9, 36, 0
1, 93120, Note_on_c, 9, 42, 84
1, 93120, Note_on_c, 9, 44, 94
1, 93120, Note_on_c, 9, 36, 85
1, 93359, Note_on_c, 9, 42, 0
1, 93359, Note_on_c, 9, 44, 0
1, 93359, Note_on_c, 9, 36, 0
1, 93360, Note_on_c, 9, 42, 81
1, 93360, Note_on_c, 9, 44, 100
1, 93599, Note_on_c, 9, 42, 0
1, 93599, Note_on_c, 9, 44, 0
1, 93600, Note_on_c, 9, 40, 75
1, 93600, Note_on_c, 9, 42, 86
1, 93600, Note_on_c, 9, 44, 102
1, 93839, Note_on_c, 9, 40, 0
1, 93839, Note_on_c, 9, 42, 0
1, 93839, Note_on_c, 9, 44, 0
1, 93840, Note_on_c, 9, 42, 88
1, 93840, Note_on_c, 9, 44, 100
1, 94079, Note_on_c, 9, 42, 0
1, 94079, Note_on_c, 9, 44, 0
1, 94080, Note_on_c, 9, 42, 108
1, 94080, Note_on_c, 9, 44, 106
1, 94080, Note_on_c, 9, 36, 99
1, 94319, Note_on_c, 9, 42, 0
1, 94319, Note_on_c, 9, 44, 0
1, 94319, Note_on_c, 9, 36, 0
1, 94320, Note_on_c, 9, 62, 60
1, 94320, Note_on_c, 9, 42, 81
1, 94320, Note_on_c, 9, 44, 98
1, 94559, Note_on_c, 9, 62, 0
1, 94559, Note_on_c, 9, 42, 0
1, 94559, Note_on_c, 9, 44, 0
1, 94560, Note_on_c, 9, 40, 75
1, 94560, Note_on_c, 9, 62, 61
1, 94560, Note_on_c, 9, 42, 102
1, 94560, Note_on_c, 9, 44, 104
1, 94799, Note_on_c, 9, 40, 0
1, 94799, Note_on_c, 9, 62, 0
1, 94799, Note_on_c, 9, 42, 0
1, 94799, Note_on_c, 9, 44, 0
1, 94800, Note_on_c, 9, 62, 68
1, 94800, Note_on_c, 9, 44, 98
1, 94800, Note_on_c, 9, 36, 98
1, 95039, Note_on_c, 9, 62, 0
1, 95039, Note_on_c, 9, 44, 0
1, 95039, Note_on_c, 9, 36, 0
1, 95040, Note_on_c, 9, 62, 75
1, 95040, Note_on_c, 9, 42, 51
1, 95040, Note_on_c, 9, 44, 85
1, 95040, Note_on_c, 9, 36, 90
1, 95279, Note_on_c, 9, 62, 0
1, 95279, Note_on_c, 9, 42, 0
1, 95279, Note_on_c, 9, 44, 0
1, 95279, Note_on_c, 9, 36, 0
1, 95280, Note_on_c, 9, 62, 70
1, 95280, Note_on_c, 9, 42, 82
1, 95280, Note_on_c, 9, 44, 81
1, 95519, Note_on_c, 9, 62, 0
1, 95519, Note_on_c, 9, 42, 0
1, 95519, Note_on_c, 9, 44, 0
1, 95520, Note_on_c, 9, 62, 72
1, 95520, Note_on_c, 9, 42, 104
1, 95520, Note_on_c, 9, 44, 106
1, 95520, Note_on_c, 9, 36, 98
1, 95759, Note_on_c, 9, 62, 0
1, 95759, Note_on_c, 9, 42, 0
1, 95759, Note_on_c, 9, 44, 0
1, 95759, Note_on_c, 9, 36, 0
1, 95760, Note_on_c, 9, 62, 76
1, 95760, Note_on_c, 9, 42, 94
1, 95760, Note_on_c, 9, 44, 102
1, 95999, Note_on_c, 9, 62, 0
1, 95999, Note_on_c, 9, 42, 0
1, 95999, Note_on_c, 9, 44, 0
1, 96000, Note_on_c, 9, 74, 86
1, 96000, Note_on_c, 9, 82, 104
1, 96000, Note_on_c, 9, 42, 100
1, 96000, Note_on_c, 9, 36, 98
1, 96239, Note_on_c, 9, 74, 0
1, 96239, Note_on_c, 9, 82, 0
1, 96239, Note_on_c, 9, 42, 0
1, 96240, Note_on_c, 9, 82, 65
1, 96479, Note_on_c, 9, 36, 0
1, 96479, Note_on_c, 9, 82, 0
1, 96480, Note_on_c, 9, 40, 82
1, 96480, Note_on_c, 9, 73, 86
1, 96480, Note_on_c, 9, 42, 98
1, 96480, Note_on_c, 9, 44, 100
1, 96480, Note_on_c, 9, 36, 95
1, 96719, Note_on_c, 9, 40, 0
1, 96719, Note_on_c, 9, 73, 0
1, 96719, Note_on_c, 9, 42, 0
1, 96720, Note_on_c, 9, 73, 106
1, 96720, Note_on_c, 9, 82, 94
1, 96959, Note_on_c, 9, 44, 0
1, 96959, Note_on_c, 9, 36, 0
1, 96959, Note_on_c, 9, 73, 0
1, 96959, Note_on_c, 9, 82, 0
1, 96960, Note_on_c, 9, 74, 96
1, 96960, Note_on_c, 9, 82, 104
1, 96960, Note_on_c, 9, 42, 108
1, 96990, Note_on_c, 9, 44, 114
1, 96990, Note_on_c, 9, 36, 96
1, 97049, Note_on_c, 9, 44, 0
1, 97049, Note_on_c, 9, 36, 0
1, 97199, Note_on_c, 9, 74, 0
1, 97199, Note_on_c, 9, 82, 0
1, 97199, Note_on_c, 9, 42, 0
1, 97200, Note_on_c, 9, 82, 96
1, 97200, Note_on_c, 9, 42, 74
1, 97200, Note_on_c, 9, 44, 67
1, 97439, Note_on_c, 9, 82, 0
1, 97439, Note_on_c, 9, 42, 0
1, 97439, Note_on_c, 9, 44, 0
1, 97500, Note_on_c, 9, 40, 86
1, 97500, Note_on_c, 9, 73, 110
1, 97500, Note_on_c, 9, 42, 106
1, 97500, Note_on_c, 9, 44, 110
1, 97500, Note_on_c, 9, 36, 107
1, 97679, Note_on_c, 9, 40, 0
1, 97679, Note_on_c, 9, 73, 0
1, 97679, Note_on_c, 9, 42, 0
1, 97679, Note_on_c, 9, 44, 0
1, 97679, Note_on_c, 9, 36, 0
1, 97740, Note_on_c, 9, 73, 117
1, 97740, Note_on_c, 9, 82, 96
1, 97740, Note_on_c, 9, 42, 76
1, 97740, Note_on_c, 9, 44, 88
1, 97919, Note_on_c, 9, 73, 0
1, 97919, Note_on_c, 9, 82, 0
1, 97919, Note_on_c, 9, 42, 0
1, 97919, Note_on_c, 9, 44, 0
1, 97920, Note_on_c, 9, 74, 70
1, 97920, Note_on_c, 9, 82, 102
1, 97920, Note_on_c, 9, 42, 94
1, 97920, Note_on_c, 9, 44, 108
1, 97920, Note_on_c, 9, 36, 107
1, 98159, Note_on_c, 9, 74, 0
1, 98159, Note_on_c, 9, 82, 0
1, 98159, Note_on_c, 9, 42, 0
1, 98159, Note_on_c, 9, 44, 0
1, 98159, Note_on_c, 9, 36, 0
1, 98160, Note_on_c, 9, 44, 68
1, 98205, Note_on_c, 9, 42, 38
1, 98399, Note_on_c, 9, 44, 0
1, 98399, Note_on_c, 9, 42, 0
1, 98400, Note_on_c, 9, 40, 82
1, 98400, Note_on_c, 9, 73, 108
1, 98400, Note_on_c, 9, 42, 102
1, 98430, Note_on_c, 9, 44, 108
1, 98430, Note_on_c, 9, 36, 107
1, 98639, Note_on_c, 9, 40, 0
1, 98639, Note_on_c, 9, 73, 0
1, 98639, Note_on_c, 9, 42, 0
1, 98669, Note_on_c, 9, 44, 0
1, 98669, Note_on_c, 9, 36, 0
1, 98670, Note_on_c, 9, 73, 108
1, 98670, Note_on_c, 9, 82, 86
1, 98670, Note_on_c, 9, 42, 40
1, 98670, Note_on_c, 9, 44, 66
1, 98729, Note_on_c, 9, 73, 0
1, 98729, Note_on_c, 9, 82, 0
1, 98729, Note_on_c, 9, 44, 0
1, 98759, Note_on_c, 9, 42, 0
1, 98880, Note_on_c, 9, 74, 75
1, 98880, Note_on_c, 9, 82, 85
1, 98880, Note_on_c, 9, 42, 58
1, 98880, Note_on_c, 9, 44, 78
1, 98880, Note_on_c, 9, 36, 100
1, 99119, Note_on_c, 9, 74, 0
1, 99119, Note_on_c, 9, 82, 0
1, 99119, Note_on_c, 9, 42, 0
1, 99119, Note_on_c, 9, 44, 0
1, 99119, Note_on_c, 9, 36, 0
1, 99120, Note_on_c, 9, 82, 102
1, 99120, Note_on_c, 9, 42, 90
1, 99120, Note_on_c, 9, 44, 92
1, 99359, Note_on_c, 9, 82, 0
1, 99359, Note_on_c, 9, 42, 0
1, 99359, Note_on_c, 9, 44, 0
1, 99360, Note_on_c, 9, 40, 81
1, 99360, Note_on_c, 9, 73, 98
1, 99360, Note_on_c, 9, 42, 110
1, 99360, Note_on_c, 9, 44, 120
1, 99360, Note_on_c, 9, 36, 98
1, 99599, Note_on_c, 9, 40, 0
1, 99599, Note_on_c, 9, 73, 0
1, 99599, Note_on_c, 9, 42, 0
1, 99599, Note_on_c, 9, 44, 0
1, 99599, Note_on_c, 9, 36, 0
1, 99600, Note_on_c, 9, 73, 117
1, 99600, Note_on_c, 9, 82, 92
1, 99600, Note_on_c, 9, 42, 31
1, 99600, Note_on_c, 9, 44, 52
1, 99839, Note_on_c, 9, 73, 0
1, 99839, Note_on_c, 9, 82, 0
1, 99839, Note_on_c, 9, 42, 0
1, 99839, Note_on_c, 9, 44, 0
1, 99840, Note_on_c, 9, 74, 71
1, 99840, Note_on_c, 9, 82, 106
1, 99840, Note_on_c, 9, 42, 102
1, 99840, Note_on_c, 9, 44, 108
1, 99840, Note_on_c, 9, 36, 105
1, 100079, Note_on_c, 9, 74, 0
1, 100079, Note_on_c, 9, 82, 0
1, 100079, Note_on_c, 9, 42, 0
1, 100079, Note_on_c, 9, 44, 0
1, 100079, Note_on_c, 9, 36, 0
1, 100080, Note_on_c, 9, 42, 78
1, 100080, Note_on_c, 9, 44, 80
1, 100319, Note_on_c, 9, 42, 0
1, 100319, Note_on_c, 9, 44, 0
1, 100320, Note_on_c, 9, 40, 86
1, 100320, Note_on_c, 9, 73, 92
1, 100320, Note_on_c, 9, 42, 82
1, 100350, Note_on_c, 9, 44, 104
1, 100350, Note_on_c, 9, 36, 96
1, 100409, Note_on_c, 9, 44, 0
1, 100409, Note_on_c, 9, 36, 0
1, 100559, Note_on_c, 9, 40, 0
1, 100559, Note_on_c, 9, 73, 0
1, 100559, Note_on_c, 9, 42, 0
1, 100560, Note_on_c, 9, 73, 108
1, 100560, Note_on_c, 9, 82, 94
1, 100560, Note_on_c, 9, 42, 81
1, 100560, Note_on_c, 9, 44, 96
1, 100799, Note_on_c, 9, 73, 0
1, 100799, Note_on_c, 9, 82, 0
1, 100799, Note_on_c, 9, 42, 0
1, 100799, Note_on_c, 9, 44, 0
1, 100800, Note_on_c, 9, 74, 75
1, 100800, Note_on_c, 9, 82, 100
1, 100800, Note_on_c, 9, 42, 98
1, 100800, Note_on_c, 9, 44, 106
1, 100800, Note_on_c, 9, 36, 105
1, 101039, Note_on_c, 9, 74, 0
1, 101039, Note_on_c, 9, 82, 0
1, 101039, Note_on_c, 9, 42, 0
1, 101039, Note_on_c, 9, 44, 0
1, 101039, Note_on_c, 9, 36, 0
1, 101040, Note_on_c, 9, 82, 104
1, 101040, Note_on_c, 9, 42, 73
1, 101040, Note_on_c, 9, 44, 60
1, 101279, Note_on_c, 9, 82, 0
1, 101279, Note_on_c, 9, 42, 0
1, 101279, Note_on_c, 9, 44, 0
1, 101280, Note_on_c, 9, 40, 86
1, 101280, Note_on_c, 9, 73, 96
1, 101280, Note_on_c, 9, 42, 104
1, 101280, Note_on_c, 9, 44, 114
1, 101280, Note_on_c, 9, 36, 98
1, 101519, Note_on_c, 9, 40, 0
1, 101519, Note_on_c, 9, 73, 0
1, 101519, Note_on_c, 9, 42, 0
1, 101519, Note_on_c, 9, 44, 0
1, 101519, Note_on_c, 9, 36, 0
1, 101520, Note_on_c, 9, 73, 108
1, 101520, Note_on_c, 9, 82, 90
1, 101520, Note_on_c, 9, 42, 82
1, 101520, Note_on_c, 9, 44, 98
1, 101759, Note_on_c, 9, 73, 0
1, 101759, Note_on_c, 9, 82, 0
1, 101759, Note_on_c, 9, 42, 0
1, 101759, Note_on_c, 9, 44, 0
1, 101760, Note_on_c, 9, 74, 72
1, 101760, Note_on_c, 9, 82, 104
1, 101760, Note_on_c, 9, 42, 90
1, 101760, Note_on_c, 9, 44, 98
1, 101760, Note_on_c, 9, 36, 95
1, 101999, Note_on_c, 9, 74, 0
1, 101999, Note_on_c, 9, 82, 0
1, 101999, Note_on_c, 9, 42, 0
1, 101999, Note_on_c, 9, 44, 0
1, 101999, Note_on_c, 9, 36, 0
1, 102000, Note_on_c, 9, 42, 52
1, 102000, Note_on_c, 9, 44, 68
1, 102239, Note_on_c, 9, 42, 0
1, 102239, Note_on_c, 9, 44, 0
1, 102240, Note_on_c, 9, 40, 89
1, 102240, Note_on_c, 9, 73, 96
1, 102240, Note_on_c, 9, 42, 90
1, 102240, Note_on_c, 9, 44, 106
1, 102240, Note_on_c, 9, 36, 95
1, 102479, Note_on_c, 9, 40, 0
1, 102479, Note_on_c, 9, 73, 0
1, 102479, Note_on_c, 9, 42, 0
1, 102479, Note_on_c, 9, 44, 0
1, 102479, Note_on_c, 9, 36, 0
1, 102480, Note_on_c, 9, 73, 104
1, 102480, Note_on_c, 9, 82, 94
1, 102480, Note_on_c, 9, 42, 92
1, 102480, Note_on_c, 9, 44, 102
1, 102719, Note_on_c, 9, 73, 0
1, 102719, Note_on_c, 9, 82, 0
1, 102719, Note_on_c, 9, 42, 0
1, 102719, Note_on_c, 9, 44, 0
1, 102720, Note_on_c, 9, 74, 70
1, 102720, Note_on_c, 9, 82, 100
1, 102720, Note_on_c, 9, 42, 92
1, 102720, Note_on_c, 9, 44, 100
1, 102720, Note_on_c, 9, 36, 92
1, 102959, Note_on_c, 9, 74, 0
1, 102959, Note_on_c, 9, 82, 0
1, 102959, Note_on_c, 9, 42, 0
1, 102959, Note_on_c, 9, 44, 0
1, 102959, Note_on_c, 9, 36, 0
1, 102960, Note_on_c, 9, 82, 100
1, 102960, Note_on_c, 9, 42, 82
1, 102960, Note_on_c, 9, 44, 86
1, 103199, Note_on_c, 9, 82, 0
1, 103199, Note_on_c, 9, 42, 0
1, 103199, Note_on_c, 9, 44, 0
1, 103200, Note_on_c, 9, 40, 85
1, 103200, Note_on_c, 9, 73, 98
1, 103200, Note_on_c, 9, 42, 98
1, 103200, Note_on_c, 9, 55, 68
1, 103200, Note_on_c, 9, 44, 108
1, 103200, Note_on_c, 9, 36, 100
1, 103439, Note_on_c, 9, 40, 0
1, 103439, Note_on_c, 9, 73, 0
1, 103439, Note_on_c, 9, 42, 0
1, 103439, Note_on_c, 9, 55, 0
1, 103439, Note_on_c, 9, 44, 0
1, 103439, Note_on_c, 9, 36, 0
1, 103440, Note_on_c, 9, 73, 106
1, 103440, Note_on_c, 9, 82, 92
1, 103440, Note_on_c, 9, 42, 68
1, 103440, Note_on_c, 9, 44, 85
1, 103679, Note_on_c, 9, 73, 0
1, 103679, Note_on_c, 9, 82, 0
1, 103679, Note_on_c, 9, 42, 0
1, 103679, Note_on_c, 9, 44, 0
1, 103680, Note_on_c, 9, 74, 75
1, 103680, Note_on_c, 9, 82, 96
1, 103680, Note_on_c, 9, 42, 86
1, 103680, Note_on_c, 9, 44, 100
1, 103680, Note_on_c, 9, 36, 95
1, 103919, Note_on_c, 9, 74, 0
1, 103919, Note_on_c, 9, 82, 0
1, 103919, Note_on_c, 9, 42, 0
1, 103919, Note_on_c, 9, 44, 0
1, 103919, Note_on_c, 9, 36, 0
1, 103920, Note_on_c, 9, 42, 51
1, 103920, Note_on_c, 9, 44, 61
1, 104159, Note_on_c, 9, 42, 0
1, 104159, Note_on_c, 9, 44, 0
1, 104160, Note_on_c, 9, 40, 82
1, 104160, Note_on_c, 9, 73, 88
1, 104160, Note_on_c, 9, 42, 100
1, 104160, Note_on_c, 9, 44, 106
1, 104160, Note_on_c, 9, 36, 87
1, 104399, Note_on_c, 9, 40, 0
1, 104399, Note_on_c, 9, 73, 0
1, 104399, Note_on_c, 9, 42, 0
1, 104399, Note_on_c, 9, 44, 0
1, 104399, Note_on_c, 9, 36, 0
1, 104430, Note_on_c, 9, 73, 108
1, 104430, Note_on_c, 9, 82, 86
1, 104430, Note_on_c, 9, 42, 49
1, 104430, Note_on_c, 9, 44, 76
1, 104489, Note_on_c, 9, 73, 0
1, 104489, Note_on_c, 9, 82, 0
1, 104489, Note_on_c, 9, 44, 0
1, 104519, Note_on_c, 9, 42, 0
1, 104640, Note_on_c, 9, 74, 80
1, 104640, Note_on_c, 9, 82, 98
1, 104640, Note_on_c, 9, 42, 86
1, 104640, Note_on_c, 9, 44, 94
1, 104640, Note_on_c, 9, 36, 90
1, 104879, Note_on_c, 9, 74, 0
1, 104879, Note_on_c, 9, 82, 0
1, 104879, Note_on_c, 9, 42, 0
1, 104879, Note_on_c, 9, 44, 0
1, 104879, Note_on_c, 9, 36, 0
1, 104925, Note_on_c, 9, 82, 94
1, 104925, Note_on_c, 9, 42, 74
1, 104925, Note_on_c, 9, 44, 77
1, 104984, Note_on_c, 9, 82, 0
1, 105119, Note_on_c, 9, 42, 0
1, 105119, Note_on_c, 9, 44, 0
1, 105120, Note_on_c, 9, 40, 82
1, 105120, Note_on_c, 9, 73, 90
1, 105120, Note_on_c, 9, 42, 100
1, 105120, Note_on_c, 9, 44, 110
1, 105120, Note_on_c, 9, 36, 92
1, 105359, Note_on_c, 9, 40, 0
1, 105359, Note_on_c, 9, 73, 0
1, 105359, Note_on_c, 9, 42, 0
1, 105359, Note_on_c, 9, 44, 0
1, 105359, Note_on_c, 9, 36, 0
1, 105360, Note_on_c, 9, 73, 106
1, 105360, Note_on_c, 9, 82, 86
1, 105360, Note_on_c, 9, 42, 54
1, 105360, Note_on_c, 9, 44, 69
1, 105599, Note_on_c, 9, 73, 0
1, 105599, Note_on_c, 9, 82, 0
1, 105599, Note_on_c, 9, 42, 0
1, 105599, Note_on_c, 9, 44, 0
1, 105600, Note_on_c, 9, 74, 79
1, 105600, Note_on_c, 9, 82, 88
1, 105600, Note_on_c, 9, 42, 86
1, 105600, Note_on_c, 9, 44, 100
1, 105600, Note_on_c, 9, 36, 89
1, 105839, Note_on_c, 9, 74, 0
1, 105839, Note_on_c, 9, 82, 0
1, 105839, Note_on_c, 9, 42, 0
1, 105839, Note_on_c, 9, 44, 0
1, 105839, Note_on_c, 9, 36, 0
1, 105840, Note_on_c, 9, 42, 70
1, 105840, Note_on_c, 9, 44, 76
1, 106079, Note_on_c, 9, 42, 0
1, 106079, Note_on_c, 9, 44, 0
1, 106080, Note_on_c, 9, 40, 82
1, 106080, Note_on_c, 9, 73, 110
1, 106080, Note_on_c, 9, 42, 94
1, 106080, Note_on_c, 9, 44, 108
1, 106080, Note_on_c, 9, 36, 90
1, 106319, Note_on_c, 9, 40, 0
1, 106319, Note_on_c, 9, 73, 0
1, 106319, Note_on_c, 9, 42, 0
1, 106319, Note_on_c, 9, 44, 0
1, 106319, Note_on_c, 9, 36, 0
1, 106320, Note_on_c, 9, 44, 72
1, 106350, Note_on_c, 9, 73, 114
1, 106350, Note_on_c, 9, 82, 82
1, 106350, Note_on_c, 9, 42, 64
1, 106409, Note_on_c, 9, 73, 0
1, 106409, Note_on_c, 9, 82, 0
1, 106439, Note_on_c, 9, 42, 0
1, 106559, Note_on_c, 9, 44, 0
1, 106560, Note_on_c, 9, 74, 73
1, 106560, Note_on_c, 9, 82, 94
1, 106560, Note_on_c, 9, 42, 96
1, 106590, Note_on_c, 9, 44, 102
1, 106590, Note_on_c, 9, 36, 82
1, 106799, Note_on_c, 9, 74, 0
1, 106799, Note_on_c, 9, 82, 0
1, 106799, Note_on_c, 9, 42, 0
1, 106829, Note_on_c, 9, 44, 0
1, 106829, Note_on_c, 9, 36, 0
1, 106845, Note_on_c, 9, 82, 102
1, 106845, Note_on_c, 9, 42, 76
1, 106845, Note_on_c, 9, 44, 78
1, 106904, Note_on_c, 9, 82, 0
1, 107039, Note_on_c, 9, 42, 0
1, 107039, Note_on_c, 9, 44, 0
1, 107100, Note_on_c, 9, 40, 84
1, 107100, Note_on_c, 9, 73, 110
1, 107100, Note_on_c, 9, 42, 92
1, 107100, Note_on_c, 9, 44, 108
1, 107100, Note_on_c, 9, 36, 84
1, 107279, Note_on_c, 9, 40, 0
1, 107279, Note_on_c, 9, 73, 0
1, 107279, Note_on_c, 9, 44, 0
1, 107279, Note_on_c, 9, 36, 0
1, 107280, Note_on_c, 9, 44, 70
1, 107324, Note_on_c, 9, 42, 0
1, 107325, Note_on_c, 9, 73, 114
1, 107325, Note_on_c, 9, 82, 88
1, 107325, Note_on_c, 9, 42, 51
1, 107384, Note_on_c, 9, 73, 0
1, 107384, Note_on_c, 9, 82, 0
1, 107519, Note_on_c, 9, 44, 0
1, 107519, Note_on_c, 9, 42, 0
1, 107520, Note_on_c, 9, 74, 72
1, 107520, Note_on_c, 9, 82, 96
1, 107520, Note_on_c, 9, 42, 81
1, 107550, Note_on_c, 9, 44, 90
1, 107550, Note_on_c, 9, 36, 86
1, 107609, Note_on_c, 9, 44, 0
1, 107609, Note_on_c, 9, 36, 0
1, 107759, Note_on_c, 9, 74, 0
1, 107759, Note_on_c, 9, 82, 0
1, 107759, Note_on_c, 9, 42, 0
1, 107760, Note_on_c, 9, 44, 49
1, 107775, Note_on_c, 9, 42, 24
1, 107999, Note_on_c, 9, 44, 0
1, 107999, Note_on_c, 9, 42, 0
1, 108000, Note_on_c, 9, 40, 81
1, 108000, Note_on_c, 9, 73, 106
1, 108000, Note_on_c, 9, 42, 90
1, 108000, Note_on_c, 9, 44, 106
1, 108000, Note_on_c, 9, 36, 95
1, 108239, Note_on_c, 9, 40, 0
1, 108239, Note_on_c, 9, 73, 0
1, 108239, Note_on_c, 9, 42, 0
1, 108239, Note_on_c, 9, 44, 0
1, 108239, Note_on_c, 9, 36, 0
1, 108240, Note_on_c, 9, 73, 106
1, 108240, Note_on_c, 9, 82, 92
1, 108240, Note_on_c, 9, 42, 67
1, 108240, Note_on_c, 9, 44, 77
1, 108479, Note_on_c, 9, 73, 0
1, 108479, Note_on_c, 9, 82, 0
1, 108479, Note_on_c, 9, 42, 0
1, 108479, Note_on_c, 9, 44, 0
1, 108480, Note_on_c, 9, 74, 75
1, 108480, Note_on_c, 9, 82, 90
1, 108480, Note_on_c, 9, 42, 94
1, 108480, Note_on_c, 9, 44, 98
1, 108480, Note_on_c, 9, 36, 107
1, 108719, Note_on_c, 9, 74, 0
1, 108719, Note_on_c, 9, 82, 0
1, 108719, Note_on_c, 9, 42, 0
1, 108719, Note_on_c, 9, 44, 0
1, 108719, Note_on_c, 9, 36, 0
1, 108720, Note_on_c, 9, 44, 58
1, 108750, Note_on_c, 9, 82, 104
1, 108750, Note_on_c, 9, 42, 20
1, 108809, Note_on_c, 9, 82, 0
1, 108839, Note_on_c, 9, 42, 0
1, 108959, Note_on_c, 9, 44, 0
1, 108960, Note_on_c, 9, 40, 80
1, 108960, Note_on_c, 9, 73, 110
1, 108960, Note_on_c, 9, 42, 104
1, 108960, Note_on_c, 9, 44, 108
1, 108960, Note_on_c, 9, 36, 98
1, 109199, Note_on_c, 9, 40, 0
1, 109199, Note_on_c, 9, 73, 0
1, 109199, Note_on_c, 9, 42, 0
1, 109199, Note_on_c, 9, 44, 0
1, 109199, Note_on_c, 9, 36, 0
1, 109200, Note_on_c, 9, 73, 106
1, 109200, Note_on_c, 9, 82, 88
1, 109200, Note_on_c, 9, 42, 77
1, 109260, Note_on_c, 9, 44, 90
1, 109439, Note_on_c, 9, 73, 0
1, 109439, Note_on_c, 9, 82, 0
1, 109439, Note_on_c, 9, 42, 0
1, 109439, Note_on_c, 9, 44, 0
1, 109500, Note_on_c, 9, 74, 100
1, 109500, Note_on_c, 9, 82, 104
1, 109500, Note_on_c, 9, 42, 92
1, 109500, Note_on_c, 9, 44, 100
1, 109500, Note_on_c, 9, 36, 103
1, 109679, Note_on_c, 9, 74, 0
1, 109679, Note_on_c, 9, 82, 0
1, 109679, Note_on_c, 9, 42, 0
1, 109679, Note_on_c, 9, 44, 0
1, 109679, Note_on_c, 9, 36, 0
1, 109680, Note_on_c, 9, 82, 96
1, 109680, Note_on_c, 9, 42, 78
1, 109680, Note_on_c, 9, 44, 78
1, 109919, Note_on_c, 9, 82, 0
1, 109919, Note_on_c, 9, 42, 0
1, 109919, Note_on_c, 9, 44, 0
1, 109920, Note_on_c, 9, 40, 84
1, 109920, Note_on_c, 9, 73, 106
1, 109920, Note_on_c, 9, 42, 85
1, 109950, Note_on_c, 9, 44, 106
1, 109950, Note_on_c, 9, 36, 98
1, 110009, Note_on_c, 9, 44, 0
1, 110009, Note_on_c, 9, 36, 0
1, 110159, Note_on_c, 9, 40, 0
1, 110159, Note_on_c, 9, 73, 0
1, 110159, Note_on_c, 9, 42, 0
1, 110160, Note_on_c, 9, 73, 98
1, 110160, Note_on_c, 9, 82, 81
1, 110160, Note_on_c, 9, 44, 82
1, 110399, Note_on_c, 9, 73, 0
1, 110399, Note_on_c, 9, 82, 0
1, 110399, Note_on_c, 9, 44, 0
1, 110400, Note_on_c, 9, 74, 73
1, 110400, Note_on_c, 9, 82, 88
1, 110400, Note_on_c, 9, 42, 94
1, 110400, Note_on_c, 9, 44, 102
1, 110400, Note_on_c, 9, 36, 100
1, 110639, Note_on_c, 9, 74, 0
1, 110639, Note_on_c, 9, 82, 0
1, 110639, Note_on_c, 9, 42, 0
1, 110639, Note_on_c, 9, 44, 0
1, 110639, Note_on_c, 9, 36, 0
1, 110640, Note_on_c, 9, 44, 78
1, 110685, Note_on_c, 9, 82, 108
1, 110685, Note_on_c, 9, 42, 78
1, 110744, Note_on_c, 9, 82, 0
1, 110879, Note_on_c, 9, 44, 0
1, 110879, Note_on_c, 9, 42, 0
1, 110880, Note_on_c, 9, 40, 77
1, 110880, Note_on_c, 9, 73, 108
1, 110880, Note_on_c, 9, 42, 100
1, 110880, Note_on_c, 9, 44, 114
1, 110880, Note_on_c, 9, 36, 96
1, 111119, Note_on_c, 9, 40, 0
1, 111119, Note_on_c, 9, 73, 0
1, 111119, Note_on_c, 9, 42, 0
1, 111119, Note_on_c, 9, 44, 0
1, 111119, Note_on_c, 9, 36, 0
1, 111120, Note_on_c, 9, 73, 114
1, 111120, Note_on_c, 9, 82, 94
1, 111120, Note_on_c, 9, 42, 70
1, 111150, Note_on_c, 9, 44, 94
1, 111209, Note_on_c, 9, 44, 0
1, 111359, Note_on_c, 9, 73, 0
1, 111359, Note_on_c, 9, 82, 0
1, 111359, Note_on_c, 9, 42, 0
1, 111360, Note_on_c, 9, 74, 96
1, 111360, Note_on_c, 9, 82, 94
1, 111360, Note_on_c, 9, 42, 88
1, 111360, Note_on_c, 9, 44, 96
1, 111360, Note_on_c, 9, 36, 107
1, 111599, Note_on_c, 9, 74, 0
1, 111599, Note_on_c, 9, 82, 0
1, 111599, Note_on_c, 9, 42, 0
1, 111599, Note_on_c, 9, 44, 0
1, 111599, Note_on_c, 9, 36, 0
1, 111600, Note_on_c, 9, 44, 65
1, 111630, Note_on_c, 9, 82, 100
1, 111630, Note_on_c, 9, 42, 65
1, 111689, Note_on_c, 9, 82, 0
1, 111719, Note_on_c, 9, 42, 0
1, 111839, Note_on_c, 9, 44, 0
1, 111840, Note_on_c, 9, 40, 82
1, 111840, Note_on_c, 9, 73, 117
1, 111840, Note_on_c, 9, 42, 98
1, 111840, Note_on_c, 9, 44, 102
1, 111840, Note_on_c, 9, 36, 111
1, 112079, Note_on_c, 9, 40, 0
1, 112079, Note_on_c, 9, 73, 0
1, 112079, Note_on_c, 9, 42, 0
1, 112079, Note_on_c, 9, 44, 0
1, 112079, Note_on_c, 9, 36, 0
1, 112080, Note_on_c, 9, 44, 102
1, 112110, Note_on_c, 9, 73, 117
1, 112110, Note_on_c, 9, 82, 104
1, 112110, Note_on_c, 9, 42, 73
1, 112169, Note_on_c, 9, 73, 0
1, 112169, Note_on_c, 9, 82, 0
1, 112199, Note_on_c, 9, 42, 0
1, 112319, Note_on_c, 9, 44, 0
1, 112320, Note_on_c, 9, 74, 75
1, 112320, Note_on_c, 9, 82, 102
1, 112320, Note_on_c, 9, 42, 102
1, 112320, Note_on_c, 9, 44, 104
1, 112320, Note_on_c, 9, 36, 111
1, 112559, Note_on_c, 9, 74, 0
1, 112559, Note_on_c, 9, 82, 0
1, 112559, Note_on_c, 9, 42, 0
1, 112559, Note_on_c, 9, 44, 0
1, 112559, Note_on_c, 9, 36, 0
1, 112560, Note_on_c, 9, 44, 98
1, 112605, Note_on_c, 9, 82, 108
1, 112605, Note_on_c, 9, 42, 78
1, 112664, Note_on_c, 9, 82, 0
1, 112799, Note_on_c, 9, 44, 0
1, 112799, Note_on_c, 9, 42, 0
1, 112860, Note_on_c, 9, 40, 84
1, 112860, Note_on_c, 9, 73, 110
1, 112860, Note_on_c, 9, 42, 108
1, 112860, Note_on_c, 9, 44, 108
1, 112860, Note_on_c, 9, 36, 109
1, 113039, Note_on_c, 9, 40, 0
1, 113039, Note_on_c, 9, 73, 0
1, 113039, Note_on_c, 9, 42, 0
1, 113039, Note_on_c, 9, 44, 0
1, 113039, Note_on_c, 9, 36, 0
1, 113070, Note_on_c, 9, 73, 114
1, 113070, Note_on_c, 9, 82, 94
1, 113070, Note_on_c, 9, 42, 82
1, 113070, Note_on_c, 9, 44, 100
1, 113129, Note_on_c, 9, 73, 0
1, 113129, Note_on_c, 9, 82, 0
1, 113159, Note_on_c, 9, 42, 0
1, 113159, Note_on_c, 9, 44, 0
1, 113280, Note_on_c, 9, 74, 127
1, 113280, Note_on_c, 9, 82, 114
1, 113280, Note_on_c, 9, 42, 114
1, 113280, Note_on_c, 9, 44, 120
1, 113280, Note_on_c, 9, 36, 116
1, 113759, Note_on_c, 9, 74, 0
1, 113759, Note_on_c, 9, 82, 0
1, 113759, Note_on_c, 9, 42, 0
1, 113759, Note_on_c, 9, 44, 0
1, 113759, Note_on_c, 9, 36, 0
1, 114000, Note_on_c, 9, 36, 116
1, 114239, Note_on_c, 9, 36, 0
1, 114240, Note_on_c, 9, 36, 111
1, 114719, Note_on_c, 9, 36, 0
1, 115680, Note_on_c, 9, 40, 85
1, 115680, Note_on_c, 9, 73, 110
1, 115680, Note_on_c, 9, 82, 98
1, 115680, Note_on_c, 9, 36, 121
1, 115919, Note_on_c, 9, 40, 0
1, 115919, Note_on_c, 9, 73, 0
1, 115919, Note_on_c, 9, 82, 0
1, 115919, Note_on_c, 9, 36, 0
1, 115920, Note_on_c, 9, 40, 71
1, 115920, Note_on_c, 9, 73, 110
1, 115920, Note_on_c, 9, 82, 100
1, 115920, Note_on_c, 9, 36, 118
1, 116159, Note_on_c, 9, 40, 0
1, 116159, Note_on_c, 9, 73, 0
1, 116159, Note_on_c, 9, 82, 0
1, 116159, Note_on_c, 9, 36, 0
1, 116160, Note_on_c, 9, 40, 95
1, 116160, Note_on_c, 9, 73, 126
1, 116160, Note_on_c, 9, 82, 117
1, 116160, Note_on_c, 9, 36, 127
1, 116639, Note_on_c, 9, 40, 0
1, 116639, Note_on_c, 9, 73, 0
1, 116639, Note_on_c, 9, 82, 0
1, 116639, Note_on_c, 9, 36, 0
1, 116640, End_track
0, 0, End_of_file
