0, 0, Header, 1, 1, 480
1, 0, Start_track
1, 0, Time_signature, 4, 2, 24, 8
1, 0, Key_signature, 0, "major"
1, 0, Tempo, 500000
1, 0, Control_c, 9, 121, 0
1, 0, Program_c, 9, 0
1, 0, Control_c, 9, 7, 100
1, 0, Control_c, 9, 10, 64
1, 0, Control_c, 9, 91, 0
1, 0, Control_c, 9, 93, 0
1, 0, MIDI_port, 0
1, 0, Note_on_c, 9, 42, 54
1, 479, Note_on_c, 9, 42, 0
1, 480, Note_on_c, 9, 42, 54
1, 959, Note_on_c, 9, 42, 0
1, 960, Note_on_c, 9, 42, 54
1, 1439, Note_on_c, 9, 42, 0
1, 1440, Note_on_c, 9, 42, 54
1, 1919, Note_on_c, 9, 42, 0
1, 2160, Note_on_c, 9, 42, 54
1, 2399, Note_on_c, 9, 42, 0
1, 2400, Note_on_c, 9, 42, 63
1, 2639, Note_on_c, 9, 42, 0
1, 2640, Note_on_c, 9, 42, 57
1, 2879, Note_on_c, 9, 42, 0
1, 2880, Note_on_c, 9, 42, 56
1, 3119, Note_on_c, 9, 42, 0
1, 3120, Note_on_c, 9, 42, 64
1, 3359, Note_on_c, 9, 42, 0
1, 3360, Note_on_c, 9, 42, 58
1, 3599, Note_on_c, 9, 42, 0
1, 3600, Note_on_c, 9, 42, 55
1, 3839, Note_on_c, 9, 42, 0
1, 4080, Note_on_c, 9, 42, 63
1, 4319, Note_on_c, 9, 42, 0
1, 4320, Note_on_c, 9, 42, 64
1, 4559, Note_on_c, 9, 42, 0
1, 4560, Note_on_c, 9, 42, 63
1, 4799, Note_on_c, 9, 42, 0
1, 4800, Note_on_c, 9, 42, 59
1, 5039, Note_on_c, 9, 42, 0
1, 5040, Note_on_c, 9, 42, 57
1, 5279, Note_on_c, 9, 42, 0
1, 5280, Note_on_c, 9, 42, 56
1, 5519, Note_on_c, 9, 42, 0
1, 5520, Note_on_c, 9, 42, 61
1, 5759, Note_on_c, 9, 42, 0
1, 6000, Note_on_c, 9, 42, 63
1, 6239, Note_on_c, 9, 42, 0
1, 6240, Note_on_c, 9, 42, 64
1, 6479, Note_on_c, 9, 42, 0
1, 6480, Note_on_c, 9, 42, 62
1, 6719, Note_on_c, 9, 42, 0
1, 6720, Note_on_c, 9, 42, 57
1, 6959, Note_on_c, 9, 42, 0
1, 6960, Note_on_c, 9, 42, 63
1, 7199, Note_on_c, 9, 42, 0
1, 7200, Note_on_c, 9, 42, 61
1, 7439, Note_on_c, 9, 42, 0
1, 7440, Note_on_c, 9, 42, 58
1, 7679, Note_on_c, 9, 42, 0
1, 7920, Note_on_c, 9, 42, 56
1, 8159, Note_on_c, 9, 42, 0
1, 8160, Note_on_c, 9, 42, 58
1, 8399, Note_on_c, 9, 42, 0
1, 8400, Note_on_c, 9, 42, 62
1, 8639, Note_on_c, 9, 42, 0
1, 8640, Note_on_c, 9, 42, 55
1, 8879, Note_on_c, 9, 42, 0
1, 8880, Note_on_c, 9, 42, 62
1, 9119, Note_on_c, 9, 42, 0
1, 9120, Note_on_c, 9, 42, 58
1, 9359, Note_on_c, 9, 42, 0
1, 9360, Note_on_c, 9, 42, 60
1, 9599, Note_on_c, 9, 42, 0
1, 9840, Note_on_c, 9, 42, 59
1, 10079, Note_on_c, 9, 42, 0
1, 10080, Note_on_c, 9, 42, 65
1, 10319, Note_on_c, 9, 42, 0
1, 10320, Note_on_c, 9, 42, 61
1, 10559, Note_on_c, 9, 42, 0
1, 10560, Note_on_c, 9, 42, 65
1, 10799, Note_on_c, 9, 42, 0
1, 10800, Note_on_c, 9, 42, 64
1, 11039, Note_on_c, 9, 42, 0
1, 11040, Note_on_c, 9, 42, 58
1, 11279, Note_on_c, 9, 42, 0
1, 11280, Note_on_c, 9, 42, 61
1, 11519, Note_on_c, 9, 42, 0
1, 11760, Note_on_c, 9, 42, 65
1, 11999, Note_on_c, 9, 42, 0
1, 12000, Note_on_c, 9, 42, 58
1, 12239, Note_on_c, 9, 42, 0
1, 12240, Note_on_c, 9, 42, 55
1, 12479, Note_on_c, 9, 42, 0
1, 12480, Note_on_c, 9, 42, 55
1, 12719, Note_on_c, 9, 42, 0
1, 12720, Note_on_c, 9, 42, 54
1, 12959, Note_on_c, 9, 42, 0
1, 12960, Note_on_c, 9, 42, 61
1, 13199, Note_on_c, 9, 42, 0
1, 13200, Note_on_c, 9, 42, 62
1, 13439, Note_on_c, 9, 42, 0
1, 13680, Note_on_c, 9, 42, 56
1, 13919, Note_on_c, 9, 42, 0
1, 13920, Note_on_c, 9, 42, 55
1, 14159, Note_on_c, 9, 42, 0
1, 14160, Note_on_c, 9, 42, 56
1, 14399, Note_on_c, 9, 42, 0
1, 14400, Note_on_c, 9, 42, 54
1, 14639, Note_on_c, 9, 42, 0
1, 14640, Note_on_c, 9, 42, 65
1, 14879, Note_on_c, 9, 42, 0
1, 14880, Note_on_c, 9, 42, 65
1, 15119, Note_on_c, 9, 42, 0
1, 15120, Note_on_c, 9, 42, 54
1, 15359, Note_on_c, 9, 42, 0
1, 15600, Note_on_c, 9, 42, 54
1, 15839, Note_on_c, 9, 42, 0
1, 15840, Note_on_c, 9, 42, 59
1, 16079, Note_on_c, 9, 42, 0
1, 16080, Note_on_c, 9, 42, 64
1, 16319, Note_on_c, 9, 42, 0
1, 16320, Note_on_c, 9, 42, 57
1, 16559, Note_on_c, 9, 42, 0
1, 16560, Note_on_c, 9, 42, 63
1, 16799, Note_on_c, 9, 42, 0
1, 16800, Note_on_c, 9, 42, 57
1, 17039, Note_on_c, 9, 42, 0
1, 17040, Note_on_c, 9, 42, 64
1, 17279, Note_on_c, 9, 42, 0
1, 17520, Note_on_c, 9, 42, 63
1, 17759, Note_on_c, 9, 42, 0
1, 17760, Note_on_c, 9, 42, 59
1, 17999, Note_on_c, 9, 42, 0
1, 18000, Note_on_c, 9, 42, 60
1, 18239, Note_on_c, 9, 42, 0
1, 18240, Note_on_c, 9, 42, 62
1, 18479, Note_on_c, 9, 42, 0
1, 18480, Note_on_c, 9, 42, 56
1, 18719, Note_on_c, 9, 42, 0
1, 18720, Note_on_c, 9, 42, 65
1, 18959, Note_on_c, 9, 42, 0
1, 18960, Note_on_c, 9, 42, 56
1, 19199, Note_on_c, 9, 42, 0
1, 19440, Note_on_c, 9, 42, 61
1, 19679, Note_on_c, 9, 42, 0
1, 19680, Note_on_c, 9, 42, 61
1, 19919, Note_on_c, 9, 42, 0
1, 19920, Note_on_c, 9, 42, 54
1, 20159, Note_on_c, 9, 42, 0
1, 20160, Note_on_c, 9, 42, 55
1, 20399, Note_on_c, 9, 42, 0
1, 20400, Note_on_c, 9, 42, 56
1, 20639, Note_on_c, 9, 42, 0
1, 20640, Note_on_c, 9, 42, 55
1, 20879, Note_on_c, 9, 42, 0
1, 20880, Note_on_c, 9, 42, 63
1, 21119, Note_on_c, 9, 42, 0
1, 21360, Note_on_c, 9, 42, 55
1, 21599, Note_on_c, 9, 42, 0
1, 21600, Note_on_c, 9, 42, 60
1, 21839, Note_on_c, 9, 42, 0
1, 21840, Note_on_c, 9, 42, 61
1, 22079, Note_on_c, 9, 42, 0
1, 22080, Note_on_c, 9, 42, 61
1, 22319, Note_on_c, 9, 42, 0
1, 22320, Note_on_c, 9, 42, 55
1, 22559, Note_on_c, 9, 42, 0
1, 22560, Note_on_c, 9, 42, 60
1, 22799, Note_on_c, 9, 42, 0
1, 22800, Note_on_c, 9, 42, 62
1, 23039, Note_on_c, 9, 42, 0
1, 23280, Note_on_c, 9, 42, 61
1, 23519, Note_on_c, 9, 42, 0
1, 23520, Note_on_c, 9, 42, 56
1, 23759, Note_on_c, 9, 42, 0
1, 23760, Note_on_c, 9, 42, 65
1, 23999, Note_on_c, 9, 42, 0
1, 24000, Note_on_c, 9, 42, 57
1, 24239, Note_on_c, 9, 42, 0
1, 24240, Note_on_c, 9, 42, 61
1, 24479, Note_on_c, 9, 42, 0
1, 24480, Note_on_c, 9, 42, 57
1, 24719, Note_on_c, 9, 42, 0
1, 24720, Note_on_c, 9, 42, 56
1, 24959, Note_on_c, 9, 42, 0
1, 25200, Note_on_c, 9, 42, 58
1, 25439, Note_on_c, 9, 42, 0
1, 25440, Note_on_c, 9, 42, 59
1, 25679, Note_on_c, 9, 42, 0
1, 25680, Note_on_c, 9, 42, 60
1, 25919, Note_on_c, 9, 42, 0
1, 25920, Note_on_c, 9, 42, 63
1, 26159, Note_on_c, 9, 42, 0
1, 26160, Note_on_c, 9, 42, 62
1, 26399, Note_on_c, 9, 42, 0
1, 26400, Note_on_c, 9, 42, 59
1, 26639, Note_on_c, 9, 42, 0
1, 26640, Note_on_c, 9, 42, 63
1, 26879, Note_on_c, 9, 42, 0
1, 27120, Note_on_c, 9, 42, 64
1, 27359, Note_on_c, 9, 42, 0
1, 27360, Note_on_c, 9, 42, 59
1, 27599, Note_on_c, 9, 42, 0
1, 27600, Note_on_c, 9, 42, 61
1, 27839, Note_on_c, 9, 42, 0
1, 27840, Note_on_c, 9, 42, 59
1, 28079, Note_on_c, 9, 42, 0
1, 28080, Note_on_c, 9, 42, 57
1, 28319, Note_on_c, 9, 42, 0
1, 28320, Note_on_c, 9, 42, 59
1, 28559, Note_on_c, 9, 42, 0
1, 28560, Note_on_c, 9, 42, 56
1, 28799, Note_on_c, 9, 42, 0
1, 29040, Note_on_c, 9, 42, 63
1, 29279, Note_on_c, 9, 42, 0
1, 29280, Note_on_c, 9, 42, 59
1, 29519, Note_on_c, 9, 42, 0
1, 29520, Note_on_c, 9, 42, 56
1, 29759, Note_on_c, 9, 42, 0
1, 29760, Note_on_c, 9, 42, 62
1, 29999, Note_on_c, 9, 42, 0
1, 30000, Note_on_c, 9, 42, 65
1, 30239, Note_on_c, 9, 42, 0
1, 30240, Note_on_c, 9, 42, 60
1, 30479, Note_on_c, 9, 42, 0
1, 30480, Note_on_c, 9, 42, 55
1, 30719, Note_on_c, 9, 42, 0
1, 30960, Note_on_c, 9, 42, 57
1, 31199, Note_on_c, 9, 42, 0
1, 31200, Note_on_c, 9, 42, 56
1, 31439, Note_on_c, 9, 42, 0
1, 31440, Note_on_c, 9, 42, 58
1, 31679, Note_on_c, 9, 42, 0
1, 31680, Note_on_c, 9, 42, 64
1, 31919, Note_on_c, 9, 42, 0
1, 31920, Note_on_c, 9, 42, 61
1, 32159, Note_on_c, 9, 42, 0
1, 32160, Note_on_c, 9, 42, 61
1, 32399, Note_on_c, 9, 42, 0
1, 32400, Note_on_c, 9, 42, 56
1, 32639, Note_on_c, 9, 42, 0
1, 32880, Note_on_c, 9, 42, 65
1, 33119, Note_on_c, 9, 42, 0
1, 33120, Note_on_c, 9, 42, 64
1, 33359, Note_on_c, 9, 42, 0
1, 33360, Note_on_c, 9, 42, 58
1, 33599, Note_on_c, 9, 42, 0
1, 33600, Note_on_c, 9, 42, 62
1, 33839, Note_on_c, 9, 42, 0
1, 33840, Note_on_c, 9, 42, 54
1, 34079, Note_on_c, 9, 42, 0
1, 34080, Note_on_c, 9, 42, 60
1, 34319, Note_on_c, 9, 42, 0
1, 34320, Note_on_c, 9, 42, 58
1, 34559, Note_on_c, 9, 42, 0
1, 34800, Note_on_c, 9, 42, 54
1, 35039, Note_on_c, 9, 42, 0
1, 35040, Note_on_c, 9, 42, 58
1, 35279, Note_on_c, 9, 42, 0
1, 35280, Note_on_c, 9, 42, 64
1, 35519, Note_on_c, 9, 42, 0
1, 35520, Note_on_c, 9, 42, 57
1, 35759, Note_on_c, 9, 42, 0
1, 35760, Note_on_c, 9, 42, 54
1, 35999, Note_on_c, 9, 42, 0
1, 36000, Note_on_c, 9, 42, 62
1, 36239, Note_on_c, 9, 42, 0
1, 36240, Note_on_c, 9, 42, 62
1, 36479, Note_on_c, 9, 42, 0
1, 36720, Note_on_c, 9, 42, 60
1, 36959, Note_on_c, 9, 42, 0
1, 36960, Note_on_c, 9, 42, 60
1, 37199, Note_on_c, 9, 42, 0
1, 37200, Note_on_c, 9, 42, 54
1, 37439, Note_on_c, 9, 42, 0
1, 37440, Note_on_c, 9, 42, 57
1, 37679, Note_on_c, 9, 42, 0
1, 37680, Note_on_c, 9, 42, 64
1, 37919, Note_on_c, 9, 42, 0
1, 37920, Note_on_c, 9, 42, 54
1, 38159, Note_on_c, 9, 42, 0
1, 38160, Note_on_c, 9, 42, 56
1, 38399, Note_on_c, 9, 42, 0
1, 38640, Note_on_c, 9, 42, 60
1, 38879, Note_on_c, 9, 42, 0
1, 38880, Note_on_c, 9, 42, 54
1, 39119, Note_on_c, 9, 42, 0
1, 39120, Note_on_c, 9, 42, 62
1, 39359, Note_on_c, 9, 42, 0
1, 39360, Note_on_c, 9, 42, 62
1, 39599, Note_on_c, 9, 42, 0
1, 39600, Note_on_c, 9, 42, 65
1, 39839, Note_on_c, 9, 42, 0
1, 39840, Note_on_c, 9, 42, 64
1, 40079, Note_on_c, 9, 42, 0
1, 40080, Note_on_c, 9, 42, 54
1, 40319, Note_on_c, 9, 42, 0
1, 40560, Note_on_c, 9, 42, 59
1, 40799, Note_on_c, 9, 42, 0
1, 40800, Note_on_c, 9, 42, 65
1, 41039, Note_on_c, 9, 42, 0
1, 41040, Note_on_c, 9, 42, 64
1, 41279, Note_on_c, 9, 42, 0
1, 41280, Note_on_c, 9, 42, 60
1, 41519, Note_on_c, 9, 42, 0
1, 41520, Note_on_c, 9, 42, 61
1, 41759, Note_on_c, 9, 42, 0
1, 41760, Note_on_c, 9, 42, 55
1, 41999, Note_on_c, 9, 42, 0
1, 42000, Note_on_c, 9, 42, 56
1, 42239, Note_on_c, 9, 42, 0
1, 42480, Note_on_c, 9, 42, 62
1, 42719, Note_on_c, 9, 42, 0
1, 42720, Note_on_c, 9, 42, 56
1, 42959, Note_on_c, 9, 42, 0
1, 42960, Note_on_c, 9, 42, 56
1, 43199, Note_on_c, 9, 42, 0
1, 43200, Note_on_c, 9, 42, 58
1, 43439, Note_on_c, 9, 42, 0
1, 43440, Note_on_c, 9, 42, 59
1, 43679, Note_on_c, 9, 42, 0
1, 43680, Note_on_c, 9, 42, 62
1, 43919, Note_on_c, 9, 42, 0
1, 43920, Note_on_c, 9, 42, 54
1, 44159, Note_on_c, 9, 42, 0
1, 44400, Note_on_c, 9, 42, 64
1, 44639, Note_on_c, 9, 42, 0
1, 44640, Note_on_c, 9, 42, 63
1, 44879, Note_on_c, 9, 42, 0
1, 44880, Note_on_c, 9, 42, 65
1, 45119, Note_on_c, 9, 42, 0
1, 45120, Note_on_c, 9, 42, 55
1, 45359, Note_on_c, 9, 42, 0
1, 45360, Note_on_c, 9, 42, 57
1, 45599, Note_on_c, 9, 42, 0
1, 45600, Note_on_c, 9, 42, 60
1, 45839, Note_on_c, 9, 42, 0
1, 45840, Note_on_c, 9, 42, 57
1, 46079, Note_on_c, 9, 42, 0
1, 46320, Note_on_c, 9, 42, 62
1, 46559, Note_on_c, 9, 42, 0
1, 46560, Note_on_c, 9, 42, 57
1, 46799, Note_on_c, 9, 42, 0
1, 46800, Note_on_c, 9, 42, 59
1, 47039, Note_on_c, 9, 42, 0
1, 47040, Note_on_c, 9, 42, 57
1, 47279, Note_on_c, 9, 42, 0
1, 47280, Note_on_c, 9, 42, 60
1, 47519, Note_on_c, 9, 42, 0
1, 47520, Note_on_c, 9, 42, 59
1, 47759, Note_on_c, 9, 42, 0
1, 47760, Note_on_c, 9, 42, 58
1, 47999, Note_on_c, 9, 42, 0
1, 48240, Note_on_c, 9, 42, 61
1, 48479, Note_on_c, 9, 42, 0
1, 48480, Note_on_c, 9, 42, 58
1, 48719, Note_on_c, 9, 42, 0
1, 48720, Note_on_c, 9, 42, 56
1, 48959, Note_on_c, 9, 42, 0
1, 48960, Note_on_c, 9, 42, 56
1, 49199, Note_on_c, 9, 42, 0
1, 49200, Note_on_c, 9, 42, 62
1, 49439, Note_on_c, 9, 42, 0
1, 49440, Note_on_c, 9, 42, 64
1, 49679, Note_on_c, 9, 42, 0
1, 49680, Note_on_c, 9, 42, 63
1, 49919, Note_on_c, 9, 42, 0
1, 50160, Note_on_c, 9, 42, 57
1, 50399, Note_on_c, 9, 42, 0
1, 50400, Note_on_c, 9, 42, 64
1, 50639, Note_on_c, 9, 42, 0
1, 50640, Note_on_c, 9, 42, 57
1, 50879, Note_on_c, 9, 42, 0
1, 50880, Note_on_c, 9, 42, 54
1, 51119, Note_on_c, 9, 42, 0
1, 51120, Note_on_c, 9, 42, 56
1, 51359, Note_on_c, 9, 42, 0
1, 51360, Note_on_c, 9, 42, 56
1, 51599, Note_on_c, 9, 42, 0
1, 51600, Note_on_c, 9, 42, 62
1, 51839, Note_on_c, 9, 42, 0
1, 52080, Note_on_c, 9, 42, 62
1, 52319, Note_on_c, 9, 42, 0
1, 52320, Note_on_c, 9, 42, 63
1, 52559, Note_on_c, 9, 42, 0
1, 52560, Note_on_c, 9, 42, 56
1, 52799, Note_on_c, 9, 42, 0
1, 52800, Note_on_c, 9, 42, 55
1, 53039, Note_on_c, 9, 42, 0
1, 53040, Note_on_c, 9, 42, 63
1, 53279, Note_on_c, 9, 42, 0
1, 53280, Note_on_c, 9, 42, 56
1, 53519, Note_on_c, 9, 42, 0
1, 53520, Note_on_c, 9, 42, 62
1, 53759, Note_on_c, 9, 42, 0
1, 54000, Note_on_c, 9, 42, 60
1, 54239, Note_on_c, 9, 42, 0
1, 54240, Note_on_c, 9, 42, 54
1, 54479, Note_on_c, 9, 42, 0
1, 54480, Note_on_c, 9, 42, 64
1, 54719, Note_on_c, 9, 42, 0
1, 54720, Note_on_c, 9, 42, 64
1, 54959, Note_on_c, 9, 42, 0
1, 54960, Note_on_c, 9, 42, 63
1, 55199, Note_on_c, 9, 42, 0
1, 55200, Note_on_c, 9, 42, 58
1, 55439, Note_on_c, 9, 42, 0
1, 55440, Note_on_c, 9, 42, 54
1, 55679, Note_on_c, 9, 42, 0
1, 55920, Note_on_c, 9, 42, 55
1, 56159, Note_on_c, 9, 42, 0
1, 56160, Note_on_c, 9, 42, 58
1, 56399, Note_on_c, 9, 42, 0
1, 56400, Note_on_c, 9, 42, 58
1, 56639, Note_on_c, 9, 42, 0
1, 56640, Note_on_c, 9, 42, 56
1, 56879, Note_on_c, 9, 42, 0
1, 56880, Note_on_c, 9, 42, 61
1, 57119, Note_on_c, 9, 42, 0
1, 57120, Note_on_c, 9, 42, 65
1, 57359, Note_on_c, 9, 42, 0
1, 57360, Note_on_c, 9, 42, 61
1, 57599, Note_on_c, 9, 42, 0
1, 57840, Note_on_c, 9, 42, 56
1, 58079, Note_on_c, 9, 42, 0
1, 58080, Note_on_c, 9, 42, 59
1, 58319, Note_on_c, 9, 42, 0
1, 58320, Note_on_c, 9, 42, 57
1, 58559, Note_on_c, 9, 42, 0
1, 58560, Note_on_c, 9, 42, 54
1, 58799, Note_on_c, 9, 42, 0
1, 58800, Note_on_c, 9, 42, 59
1, 59039, Note_on_c, 9, 42, 0
1, 59040, Note_on_c, 9, 42, 57
1, 59279, Note_on_c, 9, 42, 0
1, 59280, Note_on_c, 9, 42, 63
1, 59519, Note_on_c, 9, 42, 0
1, 59760, Note_on_c, 9, 42, 58
1, 59999, Note_on_c, 9, 42, 0
1, 60000, Note_on_c, 9, 42, 60
1, 60239, Note_on_c, 9, 42, 0
1, 60240, Note_on_c, 9, 42, 64
1, 60479, Note_on_c, 9, 42, 0
1, 60480, Note_on_c, 9, 42, 55
1, 60719, Note_on_c, 9, 42, 0
1, 60720, Note_on_c, 9, 42, 54
1, 60959, Note_on_c, 9, 42, 0
1, 60960, Note_on_c, 9, 42, 63
1, 61199, Note_on_c, 9, 42, 0
1, 61200, Note_on_c, 9, 42, 62
1, 61439, Note_on_c, 9, 42, 0
1, 61680, Note_on_c, 9, 42, 60
1, 61919, Note_on_c, 9, 42, 0
1, 61920, Note_on_c, 9, 42, 62
1, 62159, Note_on_c, 9, 42, 0
1, 62160, Note_on_c, 9, 42, 63
1, 62399, Note_on_c, 9, 42, 0
1, 62400, Note_on_c, 9, 42, 54
1, 62639, Note_on_c, 9, 42, 0
1, 62640, Note_on_c, 9, 42, 55
1, 62879, Note_on_c, 9, 42, 0
1, 62880, Note_on_c, 9, 42, 61
1, 63119, Note_on_c, 9, 42, 0
1, 63120, Note_on_c, 9, 42, 61
1, 63359, Note_on_c, 9, 42, 0
1, 63600, Note_on_c, 9, 42, 63
1, 63839, Note_on_c, 9, 42, 0
1, 63840, Note_on_c, 9, 42, 54
1, 64079, Note_on_c, 9, 42, 0
1, 64080, Note_on_c, 9, 42, 65
1, 64319, Note_on_c, 9, 42, 0
1, 64320, Note_on_c, 9, 42, 59
1, 64559, Note_on_c, 9, 42, 0
1, 64560, Note_on_c, 9, 42, 63
1, 64799, Note_on_c, 9, 42, 0
1, 64800, Note_on_c, 9, 42, 57
1, 65039, Note_on_c, 9, 42, 0
1, 65040, Note_on_c, 9, 42, 65
1, 65279, Note_on_c, 9, 42, 0
1, 65520, Note_on_c, 9, 42, 60
1, 65759, Note_on_c, 9, 42, 0
1, 65760, Note_on_c, 9, 42, 63
1, 65999, Note_on_c, 9, 42, 0
1, 66000, Note_on_c, 9, 42, 58
1, 66239, Note_on_c, 9, 42, 0
1, 66240, Note_on_c, 9, 42, 55
1, 66479, Note_on_c, 9, 42, 0
1, 66480, Note_on_c, 9, 42, 65
1, 66719, Note_on_c, 9, 42, 0
1, 66720, Note_on_c, 9, 42, 65
1, 66959, Note_on_c, 9, 42, 0
1, 66960, Note_on_c, 9, 42, 61
1, 67199, Note_on_c, 9, 42, 0
1, 67440, Note_on_c, 9, 42, 61
1, 67679, Note_on_c, 9, 42, 0
1, 67680, Note_on_c, 9, 42, 57
1, 67919, Note_on_c, 9, 42, 0
1, 67920, Note_on_c, 9, 42, 58
1, 68159, Note_on_c, 9, 42, 0
1, 68160, Note_on_c, 9, 42, 61
1, 68399, Note_on_c, 9, 42, 0
1, 68400, Note_on_c, 9, 42, 57
1, 68639, Note_on_c, 9, 42, 0
1, 68640, Note_on_c, 9, 42, 62
1, 68879, Note_on_c, 9, 42, 0
1, 68880, Note_on_c, 9, 42, 62
1, 69119, Note_on_c, 9, 42, 0
1, 69360, Note_on_c, 9, 42, 65
1, 69599, Note_on_c, 9, 42, 0
1, 69600, Note_on_c, 9, 42, 60
1, 69839, Note_on_c, 9, 42, 0
1, 69840, Note_on_c, 9, 42, 54
1, 70079, Note_on_c, 9, 42, 0
1, 70080, Note_on_c, 9, 42, 62
1, 70319, Note_on_c, 9, 42, 0
1, 70320, Note_on_c, 9, 42, 59
1, 70559, Note_on_c, 9, 42, 0
1, 70560, Note_on_c, 9, 42, 64
1, 70799, Note_on_c, 9, 42, 0
1, 70800, Note_on_c, 9, 42, 62
1, 71039, Note_on_c, 9, 42, 0
1, 71280, Note_on_c, 9, 42, 58
1, 71519, Note_on_c, 9, 42, 0
1, 71520, Note_on_c, 9, 42, 57
1, 71759, Note_on_c, 9, 42, 0
1, 71760, Note_on_c, 9, 42, 56
1, 71999, Note_on_c, 9, 42, 0
1, 72000, Note_on_c, 9, 42, 60
1, 72239, Note_on_c, 9, 42, 0
1, 72240, Note_on_c, 9, 42, 62
1, 72479, Note_on_c, 9, 42, 0
1, 72480, Note_on_c, 9, 42, 61
1, 72719, Note_on_c, 9, 42, 0
1, 72720, Note_on_c, 9, 42, 59
1, 72959, Note_on_c, 9, 42, 0
1, 73200, Note_on_c, 9, 42, 63
1, 73439, Note_on_c, 9, 42, 0
1, 73440, Note_on_c, 9, 42, 65
1, 73679, Note_on_c, 9, 42, 0
1, 73680, Note_on_c, 9, 42, 54
1, 73919, Note_on_c, 9, 42, 0
1, 73920, Note_on_c, 9, 42, 58
1, 74159, Note_on_c, 9, 42, 0
1, 74160, Note_on_c, 9, 42, 54
1, 74399, Note_on_c, 9, 42, 0
1, 74400, Note_on_c, 9, 42, 64
1, 74639, Note_on_c, 9, 42, 0
1, 74640, Note_on_c, 9, 42, 64
1, 74879, Note_on_c, 9, 42, 0
1, 75120, Note_on_c, 9, 42, 55
1, 75359, Note_on_c, 9, 42, 0
1, 75360, Note_on_c, 9, 42, 61
1, 75599, Note_on_c, 9, 42, 0
1, 75600, Note_on_c, 9, 42, 65
1, 75839, Note_on_c, 9, 42, 0
1, 75840, Note_on_c, 9, 42, 60
1, 76079, Note_on_c, 9, 42, 0
1, 76080, Note_on_c, 9, 42, 55
1, 76319, Note_on_c, 9, 42, 0
1, 76320, Note_on_c, 9, 42, 62
1, 76559, Note_on_c, 9, 42, 0
1, 76560, Note_on_c, 9, 42, 64
1, 76799, Note_on_c, 9, 42, 0
1, 77040, Note_on_c, 9, 42, 54
1, 77279, Note_on_c, 9, 42, 0
1, 77280, Note_on_c, 9, 42, 60
1, 77519, Note_on_c, 9, 42, 0
1, 77520, Note_on_c, 9, 42, 55
1, 77759, Note_on_c, 9, 42, 0
1, 77760, Note_on_c, 9, 42, 60
1, 77999, Note_on_c, 9, 42, 0
1, 78000, Note_on_c, 9, 42, 55
1, 78239, Note_on_c, 9, 42, 0
1, 78240, Note_on_c, 9, 42, 65
1, 78479, Note_on_c, 9, 42, 0
1, 78480, Note_on_c, 9, 42, 60
1, 78719, Note_on_c, 9, 42, 0
1, 78960, Note_on_c, 9, 42, 56
1, 79199, Note_on_c, 9, 42, 0
1, 79200, Note_on_c, 9, 42, 57
1, 79439, Note_on_c, 9, 42, 0
1, 79440, Note_on_c, 9, 42, 65
1, 79679, Note_on_c, 9, 42, 0
1, 79680, Note_on_c, 9, 42, 58
1, 79919, Note_on_c, 9, 42, 0
1, 79920, Note_on_c, 9, 42, 63
1, 80159, Note_on_c, 9, 42, 0
1, 80160, Note_on_c, 9, 42, 57
1, 80399, Note_on_c, 9, 42, 0
1, 80400, Note_on_c, 9, 42, 61
1, 80639, Note_on_c, 9, 42, 0
1, 80880, Note_on_c, 9, 42, 61
1, 81119, Note_on_c, 9, 42, 0
1, 81120, Note_on_c, 9, 42, 61
1, 81359, Note_on_c, 9, 42, 0
1, 81360, Note_on_c, 9, 42, 58
1, 81599, Note_on_c, 9, 42, 0
1, 81600, Note_on_c, 9, 42, 62
1, 81839, Note_on_c, 9, 42, 0
1, 81840, Note_on_c, 9, 42, 63
1, 82079, Note_on_c, 9, 42, 0
1, 82080, Note_on_c, 9, 42, 63
1, 82319, Note_on_c, 9, 42, 0
1, 82320, Note_on_c, 9, 42, 62
1, 82559, Note_on_c, 9, 42, 0
1, 82800, Note_on_c, 9, 42, 62
1, 83039, Note_on_c, 9, 42, 0
1, 83040, Note_on_c, 9, 42, 65
1, 83279, Note_on_c, 9, 42, 0
1, 83280, Note_on_c, 9, 42, 54
1, 83519, Note_on_c, 9, 42, 0
1, 83520, Note_on_c, 9, 42, 57
1, 83759, Note_on_c, 9, 42, 0
1, 83760, Note_on_c, 9, 42, 61
1, 83999, Note_on_c, 9, 42, 0
1, 84000, Note_on_c, 9, 42, 54
1, 84239, Note_on_c, 9, 42, 0
1, 84240, Note_on_c, 9, 42, 61
1, 84479, Note_on_c, 9, 42, 0
1, 84720, Note_on_c, 9, 42, 59
1, 84959, Note_on_c, 9, 42, 0
1, 84960, Note_on_c, 9, 42, 60
1, 85199, Note_on_c, 9, 42, 0
1, 85200, Note_on_c, 9, 42, 55
1, 85439, Note_on_c, 9, 42, 0
1, 85440, Note_on_c, 9, 42, 55
1, 85679, Note_on_c, 9, 42, 0
1, 85680, Note_on_c, 9, 42, 65
1, 85919, Note_on_c, 9, 42, 0
1, 85920, Note_on_c, 9, 42, 55
1, 86159, Note_on_c, 9, 42, 0
1, 86160, Note_on_c, 9, 42, 63
1, 86399, Note_on_c, 9, 42, 0
1, 86640, Note_on_c, 9, 42, 62
1, 86879, Note_on_c, 9, 42, 0
1, 86880, Note_on_c, 9, 42, 54
1, 87119, Note_on_c, 9, 42, 0
1, 87120, Note_on_c, 9, 42, 58
1, 87359, Note_on_c, 9, 42, 0
1, 87360, Note_on_c, 9, 42, 63
1, 87599, Note_on_c, 9, 42, 0
1, 87600, Note_on_c, 9, 42, 60
1, 87839, Note_on_c, 9, 42, 0
1, 87840, Note_on_c, 9, 42, 54
1, 88079, Note_on_c, 9, 42, 0
1, 88080, Note_on_c, 9, 42, 57
1, 88319, Note_on_c, 9, 42, 0
1, 88560, Note_on_c, 9, 42, 65
1, 88799, Note_on_c, 9, 42, 0
1, 88800, Note_on_c, 9, 42, 62
1, 89039, Note_on_c, 9, 42, 0
1, 89040, Note_on_c, 9, 42, 61
1, 89279, Note_on_c, 9, 42, 0
1, 89280, Note_on_c, 9, 42, 55
1, 89519, Note_on_c, 9, 42, 0
1, 89520, Note_on_c, 9, 42, 60
1, 89759, Note_on_c, 9, 42, 0
1, 89760, Note_on_c, 9, 42, 55
1, 89999, Note_on_c, 9, 42, 0
1, 90000, Note_on_c, 9, 42, 56
1, 90239, Note_on_c, 9, 42, 0
1, 90480, Note_on_c, 9, 42, 65
1, 90719, Note_on_c, 9, 42, 0
1, 90720, Note_on_c, 9, 42, 61
1, 90959, Note_on_c, 9, 42, 0
1, 90960, Note_on_c, 9, 42, 64
1, 91199, Note_on_c, 9, 42, 0
1, 91200, Note_on_c, 9, 42, 54
1, 91439, Note_on_c, 9, 42, 0
1, 91440, Note_on_c, 9, 42, 58
1, 91679, Note_on_c, 9, 42, 0
1, 91680, Note_on_c, 9, 42, 54
1, 91919, Note_on_c, 9, 42, 0
1, 91920, Note_on_c, 9, 42, 55
1, 92159, Note_on_c, 9, 42, 0
1, 92400, Note_on_c, 9, 42, 63
1, 92639, Note_on_c, 9, 42, 0
1, 92640, Note_on_c, 9, 42, 56
1, 92879, Note_on_c, 9, 42, 0
1, 92880, Note_on_c, 9, 42, 61
1, 93119, Note_on_c, 9, 42, 0
1, 93120, Note_on_c, 9, 42, 64
1, 93359, Note_on_c, 9, 42, 0
1, 93360, Note_on_c, 9, 42, 56
1, 93599, Note_on_c, 9, 42, 0
1, 93600, Note_on_c, 9, 42, 59
1, 93839, Note_on_c, 9, 42, 0
1, 93840, Note_on_c, 9, 42, 57
1, 94079, Note_on_c, 9, 42, 0
1, 94320, Note_on_c, 9, 42, 65
1, 94559, Note_on_c, 9, 42, 0
1, 94560, Note_on_c, 9, 42, 64
1, 94799, Note_on_c, 9, 42, 0
1, 94800, Note_on_c, 9, 42, 61
1, 95039, Note_on_c, 9, 42, 0
1, 95040, Note_on_c, 9, 42, 54
1, 95279, Note_on_c, 9, 42, 0
1, 95280, Note_on_c, 9, 42, 56
1, 95519, Note_on_c, 9, 42, 0
1, 95520, Note_on_c, 9, 42, 61
1, 95759, Note_on_c, 9, 42, 0
1, 95760, Note_on_c, 9, 42, 59
1, 95999, Note_on_c, 9, 42, 0
1, 96240, Note_on_c, 9, 42, 64
1, 96479, Note_on_c, 9, 42, 0
1, 96480, Note_on_c, 9, 42, 63
1, 96719, Note_on_c, 9, 42, 0
1, 96720, Note_on_c, 9, 42, 58
1, 96959, Note_on_c, 9, 42, 0
1, 96960, Note_on_c, 9, 42, 60
1, 97199, Note_on_c, 9, 42, 0
1, 97200, Note_on_c, 9, 42, 65
1, 97439, Note_on_c, 9, 42, 0
1, 97440, Note_on_c, 9, 42, 56
1, 97679, Note_on_c, 9, 42, 0
1, 97680, Note_on_c, 9, 42, 58
1, 97919, Note_on_c, 9, 42, 0
1, 98160, Note_on_c, 9, 42, 61
1, 98399, Note_on_c, 9, 42, 0
1, 98400, Note_on_c, 9, 42, 58
1, 98639, Note_on_c, 9, 42, 0
1, 98640, Note_on_c, 9, 42, 57
1, 98879, Note_on_c, 9, 42, 0
1, 98880, Note_on_c, 9, 42, 64
1, 99119, Note_on_c, 9, 42, 0
1, 99120, Note_on_c, 9, 42, 56
1, 99359, Note_on_c, 9, 42, 0
1, 99360, Note_on_c, 9, 42, 65
1, 99599, Note_on_c, 9, 42, 0
1, 99600, Note_on_c, 9, 42, 58
1, 99839, Note_on_c, 9, 42, 0
1, 100080, Note_on_c, 9, 42, 58
1, 100319, Note_on_c, 9, 42, 0
1, 100320, Note_on_c, 9, 42, 56
1, 100559, Note_on_c, 9, 42, 0
1, 100560, Note_on_c, 9, 42, 61
1, 100799, Note_on_c, 9, 42, 0
1, 100800, Note_on_c, 9, 42, 55
1, 101039, Note_on_c, 9, 42, 0
1, 101040, Note_on_c, 9, 42, 58
1, 101279, Note_on_c, 9, 42, 0
1, 101280, Note_on_c, 9, 42, 62
1, 101519, Note_on_c, 9, 42, 0
1, 101520, Note_on_c, 9, 42, 54
1, 101759, Note_on_c, 9, 42, 0
1, 102000, Note_on_c, 9, 42, 63
1, 102239, Note_on_c, 9, 42, 0
1, 102240, Note_on_c, 9, 42, 55
1, 102479, Note_on_c, 9, 42, 0
1, 102480, Note_on_c, 9, 42, 64
1, 102719, Note_on_c, 9, 42, 0
1, 102720, Note_on_c, 9, 42, 62
1, 102959, Note_on_c, 9, 42, 0
1, 102960, Note_on_c, 9, 42, 61
1, 103199, Note_on_c, 9, 42, 0
1, 103200, Note_on_c, 9, 42, 61
1, 103439, Note_on_c, 9, 42, 0
1, 103440, Note_on_c, 9, 42, 56
1, 103679, Note_on_c, 9, 42, 0
1, 103920, Note_on_c, 9, 42, 63
1, 104159, Note_on_c, 9, 42, 0
1, 104160, Note_on_c, 9, 42, 58
1, 104399, Note_on_c, 9, 42, 0
1, 104400, Note_on_c, 9, 42, 60
1, 104639, Note_on_c, 9, 42, 0
1, 104640, Note_on_c, 9, 42, 58
1, 104879, Note_on_c, 9, 42, 0
1, 104880, Note_on_c, 9, 42, 54
1, 105119, Note_on_c, 9, 42, 0
1, 105120, Note_on_c, 9, 42, 57
1, 105359, Note_on_c, 9, 42, 0
1, 105360, Note_on_c, 9, 42, 56
1, 105599, Note_on_c, 9, 42, 0
1, 105840, Note_on_c, 9, 42, 65
1, 106079, Note_on_c, 9, 42, 0
1, 106080, Note_on_c, 9, 42, 58
1, 106319, Note_on_c, 9, 42, 0
1, 106320, Note_on_c, 9, 42, 64
1, 106559, Note_on_c, 9, 42, 0
1, 106560, Note_on_c, 9, 42, 56
1, 106799, Note_on_c, 9, 42, 0
1, 106800, Note_on_c, 9, 42, 58
1, 107039, Note_on_c, 9, 42, 0
1, 107040, Note_on_c, 9, 42, 63
1, 107279, Note_on_c, 9, 42, 0
1, 107280, Note_on_c, 9, 42, 62
1, 107519, Note_on_c, 9, 42, 0
1, 107760, Note_on_c, 9, 42, 60
1, 107999, Note_on_c, 9, 42, 0
1, 108000, Note_on_c, 9, 42, 63
1, 108239, Note_on_c, 9, 42, 0
1, 108240, Note_on_c, 9, 42, 54
1, 108479, Note_on_c, 9, 42, 0
1, 108480, Note_on_c, 9, 42, 64
1, 108719, Note_on_c, 9, 42, 0
1, 108720, Note_on_c, 9, 42, 57
1, 108959, Note_on_c, 9, 42, 0
1, 108960, Note_on_c, 9, 42, 62
1, 109199, Note_on_c, 9, 42, 0
1, 109200, Note_on_c, 9, 42, 57
1, 109439, Note_on_c, 9, 42, 0
1, 109680, Note_on_c, 9, 42, 64
1, 109919, Note_on_c, 9, 42, 0
1, 109920, Note_on_c, 9, 42, 55
1, 110159, Note_on_c, 9, 42, 0
1, 110160, Note_on_c, 9, 42, 61
1, 110399, Note_on_c, 9, 42, 0
1, 110400, Note_on_c, 9, 42, 62
1, 110639, Note_on_c, 9, 42, 0
1, 110640, Note_on_c, 9, 42, 57
1, 110879, Note_on_c, 9, 42, 0
1, 110880, Note_on_c, 9, 42, 55
1, 111119, Note_on_c, 9, 42, 0
1, 111120, Note_on_c, 9, 42, 57
1, 111359, Note_on_c, 9, 42, 0
1, 111600, Note_on_c, 9, 42, 55
1, 111839, Note_on_c, 9, 42, 0
1, 111840, Note_on_c, 9, 42, 54
1, 112079, Note_on_c, 9, 42, 0
1, 112080, Note_on_c, 9, 42, 61
1, 112319, Note_on_c, 9, 42, 0
1, 112320, Note_on_c, 9, 42, 58
1, 112559, Note_on_c, 9, 42, 0
1, 112560, Note_on_c, 9, 42, 61
1, 112799, Note_on_c, 9, 42, 0
1, 112800, Note_on_c, 9, 42, 54
1, 113039, Note_on_c, 9, 42, 0
1, 113040, Note_on_c, 9, 42, 60
1, 113279, Note_on_c, 9, 42, 0
1, 113520, Note_on_c, 9, 42, 64
1, 113759, Note_on_c, 9, 42, 0
1, 113760, Note_on_c, 9, 42, 60
1, 113999, Note_on_c, 9, 42, 0
1, 114000, Note_on_c, 9, 42, 55
1, 114239, Note_on_c, 9, 42, 0
1, 114240, Note_on_c, 9, 42, 54
1, 114479, Note_on_c, 9, 42, 0
1, 114480, Note_on_c, 9, 42, 56
1, 114719, Note_on_c, 9, 42, 0
1, 114720, Note_on_c, 9, 42, 65
1, 114959, Note_on_c, 9, 42, 0
1, 114960, Note_on_c, 9, 42, 60
1, 115199, Note_on_c, 9, 42, 0
1, 115440, Note_on_c, 9, 42, 55
1, 115679, Note_on_c, 9, 42, 0
1, 115680, Note_on_c, 9, 42, 54
1, 115919, Note_on_c, 9, 42, 0
1, 115920, Note_on_c, 9, 42, 64
1, 116159, Note_on_c, 9, 42, 0
1, 116160, Note_on_c, 9, 42, 59
1, 116399, Note_on_c, 9, 42, 0
1, 116400, Note_on_c, 9, 42, 64
1, 116639, Note_on_c, 9, 42, 0
1, 116640, Note_on_c, 9, 42, 59
1, 116879, Note_on_c, 9, 42, 0
1, 116880, Note_on_c, 9, 42, 60
1, 117119, Note_on_c, 9, 42, 0
1, 117360, Note_on_c, 9, 42, 60
1, 117599, Note_on_c, 9, 42, 0
1, 117600, Note_on_c, 9, 42, 54
1, 117839, Note_on_c, 9, 42, 0
1, 117840, Note_on_c, 9, 42, 62
1, 118079, Note_on_c, 9, 42, 0
1, 118080, Note_on_c, 9, 42, 58
1, 118319, Note_on_c, 9, 42, 0
1, 118320, Note_on_c, 9, 42, 60
1, 118559, Note_on_c, 9, 42, 0
1, 118560, Note_on_c, 9, 42, 64
1, 118799, Note_on_c, 9, 42, 0
1, 118800, Note_on_c, 9, 42, 54
1, 119039, Note_on_c, 9, 42, 0
1, 119280, Note_on_c, 9, 42, 58
1, 119519, Note_on_c, 9, 42, 0
1, 119520, Note_on_c, 9, 42, 60
1, 119759, Note_on_c, 9, 42, 0
1, 119760, Note_on_c, 9, 42, 58
1, 119999, Note_on_c, 9, 42, 0
1, 120000, Note_on_c, 9, 42, 64
1, 120239, Note_on_c, 9, 42, 0
1, 120240, Note_on_c, 9, 42, 54
1, 120479, Note_on_c, 9, 42, 0
1, 120480, Note_on_c, 9, 42, 59
1, 120719, Note_on_c, 9, 42, 0
1, 120720, Note_on_c, 9, 42, 63
1, 120959, Note_on_c, 9, 42, 0
1, 121200, Note_on_c, 9, 42, 58
1, 121439, Note_on_c, 9, 42, 0
1, 121440, Note_on_c, 9, 42, 57
1, 121679, Note_on_c, 9, 42, 0
1, 121680, Note_on_c, 9, 42, 61
1, 121919, Note_on_c, 9, 42, 0
1, 121920, Note_on_c, 9, 42, 57
1, 122159, Note_on_c, 9, 42, 0
1, 122160, Note_on_c, 9, 42, 65
1, 122399, Note_on_c, 9, 42, 0
1, 122400, Note_on_c, 9, 42, 62
1, 122639, Note_on_c, 9, 42, 0
1, 122640, Note_on_c, 9, 42, 60
1, 122879, Note_on_c, 9, 42, 0
1, 122880, Note_on_c, 9, 42, 54
1, 123119, Note_on_c, 9, 42, 0
1, 123120, Note_on_c, 9, 42, 61
1, 123239, Note_on_c, 9, 42, 0
1, 123240, Note_on_c, 9, 42, 60
1, 123359, Note_on_c, 9, 42, 0
1, 123360, Note_on_c, 9, 42, 63
1, 123599, Note_on_c, 9, 42, 0
1, 123600, Note_on_c, 9, 42, 62
1, 123719, Note_on_c, 9, 42, 0
1, 123720, Note_on_c, 9, 42, 55
1, 123839, Note_on_c, 9, 42, 0
1, 123840, Note_on_c, 9, 42, 56
1, 124079, Note_on_c, 9, 42, 0
1, 124080, Note_on_c, 9, 42, 54
1, 124199, Note_on_c, 9, 42, 0
1, 124200, Note_on_c, 9, 42, 65
1, 124319, Note_on_c, 9, 42, 0
1, 124320, Note_on_c, 9, 42, 61
1, 124559, Note_on_c, 9, 42, 0
1, 124560, Note_on_c, 9, 42, 60
1, 124679, Note_on_c, 9, 42, 0
1, 124680, Note_on_c, 9, 42, 65
1, 124799, Note_on_c, 9, 42, 0
1, 124800, Note_on_c, 9, 42, 58
1, 125039, Note_on_c, 9, 42, 0
1, 125040, Note_on_c, 9, 42, 61
1, 125159, Note_on_c, 9, 42, 0
1, 125160, Note_on_c, 9, 42, 61
1, 125279, Note_on_c, 9, 42, 0
1, 125280, Note_on_c, 9, 42, 64
1, 125519, Note_on_c, 9, 42, 0
1, 125520, Note_on_c, 9, 42, 64
1, 125639, Note_on_c, 9, 42, 0
1, 125640, Note_on_c, 9, 42, 58
1, 125759, Note_on_c, 9, 42, 0
1, 125760, Note_on_c, 9, 42, 57
1, 125999, Note_on_c, 9, 42, 0
1, 126000, Note_on_c, 9, 42, 58
1, 126119, Note_on_c, 9, 42, 0
1, 126120, Note_on_c, 9, 42, 64
1, 126239, Note_on_c, 9, 42, 0
1, 126240, Note_on_c, 9, 42, 54
1, 126479, Note_on_c, 9, 42, 0
1, 126480, Note_on_c, 9, 42, 56
1, 126599, Note_on_c, 9, 42, 0
1, 126600, Note_on_c, 9, 42, 63
1, 126719, Note_on_c, 9, 42, 0
1, 126720, Note_on_c, 9, 42, 59
1, 126959, Note_on_c, 9, 42, 0
1, 126960, Note_on_c, 9, 42, 62
1, 127079, Note_on_c, 9, 42, 0
1, 127080, Note_on_c, 9, 42, 57
1, 127199, Note_on_c, 9, 42, 0
1, 127200, Note_on_c, 9, 42, 65
1, 127439, Note_on_c, 9, 42, 0
1, 127440, Note_on_c, 9, 42, 60
1, 127559, Note_on_c, 9, 42, 0
1, 127560, Note_on_c, 9, 42, 59
1, 127679, Note_on_c, 9, 42, 0
1, 127680, Note_on_c, 9, 42, 61
1, 127919, Note_on_c, 9, 42, 0
1, 127920, Note_on_c, 9, 42, 62
1, 128039, Note_on_c, 9, 42, 0
1, 128040, Note_on_c, 9, 42, 60
1, 128159, Note_on_c, 9, 42, 0
1, 128160, Note_on_c, 9, 42, 64
1, 128399, Note_on_c, 9, 42, 0
1, 128400, Note_on_c, 9, 42, 63
1, 128519, Note_on_c, 9, 42, 0
1, 128520, Note_on_c, 9, 42, 62
1, 128639, Note_on_c, 9, 42, 0
1, 128640, Note_on_c, 9, 42, 55
1, 128879, Note_on_c, 9, 42, 0
1, 128880, Note_on_c, 9, 42, 56
1, 128999, Note_on_c, 9, 42, 0
1, 129000, Note_on_c, 9, 42, 54
1, 129119, Note_on_c, 9, 42, 0
1, 129120, Note_on_c, 9, 42, 61
1, 129359, Note_on_c, 9, 42, 0
1, 129360, Note_on_c, 9, 42, 59
1, 129479, Note_on_c, 9, 42, 0
1, 129480, Note_on_c, 9, 42, 56
1, 129599, Note_on_c, 9, 42, 0
1, 129600, Note_on_c, 9, 42, 63
1, 129839, Note_on_c, 9, 42, 0
1, 129840, Note_on_c, 9, 42, 58
1, 129959, Note_on_c, 9, 42, 0
1, 129960, Note_on_c, 9, 42, 59
1, 130079, Note_on_c, 9, 42, 0
1, 130080, Note_on_c, 9, 42, 59
1, 130319, Note_on_c, 9, 42, 0
1, 130320, Note_on_c, 9, 42, 57
1, 130439, Note_on_c, 9, 42, 0
1, 130440, Note_on_c, 9, 42, 64
1, 130559, Note_on_c, 9, 42, 0
1, 130560, Note_on_c, 9, 42, 65
1, 130799, Note_on_c, 9, 42, 0
1, 130800, Note_on_c, 9, 42, 61
1, 130919, Note_on_c, 9, 42, 0
1, 130920, Note_on_c, 9, 42, 59
1, 131039, Note_on_c, 9, 42, 0
1, 131040, Note_on_c, 9, 42, 65
1, 131279, Note_on_c, 9, 42, 0
1, 131280, Note_on_c, 9, 42, 64
1, 131399, Note_on_c, 9, 42, 0
1, 131400, Note_on_c, 9, 42, 65
1, 131519, Note_on_c, 9, 42, 0
1, 131520, Note_on_c, 9, 42, 54
1, 131759, Note_on_c, 9, 42, 0
1, 131760, Note_on_c, 9, 42, 57
1, 131879, Note_on_c, 9, 42, 0
1, 131880, Note_on_c, 9, 42, 61
1, 131999, Note_on_c, 9, 42, 0
1, 132000, Note_on_c, 9, 42, 60
1, 132239, Note_on_c, 9, 42, 0
1, 132240, Note_on_c, 9, 42, 61
1, 132359, Note_on_c, 9, 42, 0
1, 132360, Note_on_c, 9, 42, 61
1, 132479, Note_on_c, 9, 42, 0
1, 132480, Note_on_c, 9, 42, 64
1, 132719, Note_on_c, 9, 42, 0
1, 132720, Note_on_c, 9, 42, 59
1, 132839, Note_on_c, 9, 42, 0
1, 132840, Note_on_c, 9, 42, 62
1, 132959, Note_on_c, 9, 42, 0
1, 132960, Note_on_c, 9, 42, 64
1, 133199, Note_on_c, 9, 42, 0
1, 133200, Note_on_c, 9, 42, 62
1, 133319, Note_on_c, 9, 42, 0
1, 133320, Note_on_c, 9, 42, 56
1, 133439, Note_on_c, 9, 42, 0
1, 133440, Note_on_c, 9, 42, 63
1, 133679, Note_on_c, 9, 42, 0
1, 133680, Note_on_c, 9, 42, 62
1, 133799, Note_on_c, 9, 42, 0
1, 133800, Note_on_c, 9, 42, 65
1, 133919, Note_on_c, 9, 42, 0
1, 133920, Note_on_c, 9, 42, 62
1, 134159, Note_on_c, 9, 42, 0
1, 134160, Note_on_c, 9, 42, 64
1, 134279, Note_on_c, 9, 42, 0
1, 134280, Note_on_c, 9, 42, 63
1, 134399, Note_on_c, 9, 42, 0
1, 134400, Note_on_c, 9, 42, 60
1, 134639, Note_on_c, 9, 42, 0
1, 134640, Note_on_c, 9, 42, 58
1, 134759, Note_on_c, 9, 42, 0
1, 134760, Note_on_c, 9, 42, 60
1, 134879, Note_on_c, 9, 42, 0
1, 134880, Note_on_c, 9, 42, 58
1, 135119, Note_on_c, 9, 42, 0
1, 135120, Note_on_c, 9, 42, 54
1, 135239, Note_on_c, 9, 42, 0
1, 135240, Note_on_c, 9, 42, 60
1, 135359, Note_on_c, 9, 42, 0
1, 135360, Note_on_c, 9, 42, 55
1, 135599, Note_on_c, 9, 42, 0
1, 135600, Note_on_c, 9, 42, 59
1, 135719, Note_on_c, 9, 42, 0
1, 135720, Note_on_c, 9, 42, 57
1, 135839, Note_on_c, 9, 42, 0
1, 135840, Note_on_c, 9, 42, 56
1, 136079, Note_on_c, 9, 42, 0
1, 136080, Note_on_c, 9, 42, 65
1, 136199, Note_on_c, 9, 42, 0
1, 136200, Note_on_c, 9, 42, 55
1, 136319, Note_on_c, 9, 42, 0
1, 136320, Note_on_c, 9, 42, 56
1, 136559, Note_on_c, 9, 42, 0
1, 136560, Note_on_c, 9, 42, 54
1, 136679, Note_on_c, 9, 42, 0
1, 136680, Note_on_c, 9, 42, 58
1, 136799, Note_on_c, 9, 42, 0
1, 136800, Note_on_c, 9, 42, 63
1, 137039, Note_on_c, 9, 42, 0
1, 137040, Note_on_c, 9, 42, 61
1, 137159, Note_on_c, 9, 42, 0
1, 137160, Note_on_c, 9, 42, 58
1, 137279, Note_on_c, 9, 42, 0
1, 137280, Note_on_c, 9, 42, 61
1, 137519, Note_on_c, 9, 42, 0
1, 137520, Note_on_c, 9, 42, 57
1, 137639, Note_on_c, 9, 42, 0
1, 137640, Note_on_c, 9, 42, 56
1, 137759, Note_on_c, 9, 42, 0
1, 137760, Note_on_c, 9, 42, 62
1, 137999, Note_on_c, 9, 42, 0
1, 138000, Note_on_c, 9, 42, 54
1, 138119, Note_on_c, 9, 42, 0
1, 138120, Note_on_c, 9, 42, 55
1, 138239, Note_on_c, 9, 42, 0
1, 138480, Note_on_c, 9, 42, 54
1, 138719, Note_on_c, 9, 42, 0
1, 138720, Note_on_c, 9, 42, 57
1, 138959, Note_on_c, 9, 42, 0
1, 138960, Note_on_c, 9, 42, 54
1, 139199, Note_on_c, 9, 42, 0
1, 139200, Note_on_c, 9, 42, 64
1, 139439, Note_on_c, 9, 42, 0
1, 139440, Note_on_c, 9, 42, 56
1, 139679, Note_on_c, 9, 42, 0
1, 139680, Note_on_c, 9, 42, 58
1, 139919, Note_on_c, 9, 42, 0
1, 139920, Note_on_c, 9, 42, 64
1, 140159, Note_on_c, 9, 42, 0
1, 140400, Note_on_c, 9, 42, 59
1, 140639, Note_on_c, 9, 42, 0
1, 140640, Note_on_c, 9, 42, 64
1, 140879, Note_on_c, 9, 42, 0
1, 140880, Note_on_c, 9, 42, 56
1, 141119, Note_on_c, 9, 42, 0
1, 141120, Note_on_c, 9, 42, 57
1, 141359, Note_on_c, 9, 42, 0
1, 141360, Note_on_c, 9, 42, 55
1, 141599, Note_on_c, 9, 42, 0
1, 141600, Note_on_c, 9, 42, 58
1, 141839, Note_on_c, 9, 42, 0
1, 141840, Note_on_c, 9, 42, 64
1, 142079, Note_on_c, 9, 42, 0
1, 142320, Note_on_c, 9, 42, 57
1, 142559, Note_on_c, 9, 42, 0
1, 142560, Note_on_c, 9, 42, 62
1, 142799, Note_on_c, 9, 42, 0
1, 142800, Note_on_c, 9, 42, 63
1, 143039, Note_on_c, 9, 42, 0
1, 143040, Note_on_c, 9, 42, 55
1, 143279, Note_on_c, 9, 42, 0
1, 143280, Note_on_c, 9, 42, 62
1, 143519, Note_on_c, 9, 42, 0
1, 143520, Note_on_c, 9, 42, 55
1, 143759, Note_on_c, 9, 42, 0
1, 143760, Note_on_c, 9, 42, 57
1, 143999, Note_on_c, 9, 42, 0
1, 144240, Note_on_c, 9, 42, 58
1, 144479, Note_on_c, 9, 42, 0
1, 144480, Note_on_c, 9, 42, 61
1, 144719, Note_on_c, 9, 42, 0
1, 144720, Note_on_c, 9, 42, 60
1, 144959, Note_on_c, 9, 42, 0
1, 144960, Note_on_c, 9, 42, 57
1, 145199, Note_on_c, 9, 42, 0
1, 145200, Note_on_c, 9, 42, 59
1, 145439, Note_on_c, 9, 42, 0
1, 145440, Note_on_c, 9, 42, 57
1, 145679, Note_on_c, 9, 42, 0
1, 145680, Note_on_c, 9, 42, 58
1, 145919, Note_on_c, 9, 42, 0
1, 146160, Note_on_c, 9, 42, 55
1, 146399, Note_on_c, 9, 42, 0
1, 146400, Note_on_c, 9, 42, 56
1, 146639, Note_on_c, 9, 42, 0
1, 146640, Note_on_c, 9, 42, 54
1, 146879, Note_on_c, 9, 42, 0
1, 146880, Note_on_c, 9, 42, 63
1, 147119, Note_on_c, 9, 42, 0
1, 147120, Note_on_c, 9, 42, 60
1, 147359, Note_on_c, 9, 42, 0
1, 147360, Note_on_c, 9, 42, 59
1, 147599, Note_on_c, 9, 42, 0
1, 147600, Note_on_c, 9, 42, 61
1, 147839, Note_on_c, 9, 42, 0
1, 148080, Note_on_c, 9, 42, 61
1, 148319, Note_on_c, 9, 42, 0
1, 148320, Note_on_c, 9, 42, 60
1, 148559, Note_on_c, 9, 42, 0
1, 148560, Note_on_c, 9, 42, 60
1, 148799, Note_on_c, 9, 42, 0
1, 148800, Note_on_c, 9, 42, 61
1, 149039, Note_on_c, 9, 42, 0
1, 149040, Note_on_c, 9, 42, 57
1, 149279, Note_on_c, 9, 42, 0
1, 149280, Note_on_c, 9, 42, 61
1, 149519, Note_on_c, 9, 42, 0
1, 149520, Note_on_c, 9, 42, 64
1, 149759, Note_on_c, 9, 42, 0
1, 150000, Note_on_c, 9, 42, 59
1, 150239, Note_on_c, 9, 42, 0
1, 150240, Note_on_c, 9, 42, 55
1, 150479, Note_on_c, 9, 42, 0
1, 150480, Note_on_c, 9, 42, 54
1, 150719, Note_on_c, 9, 42, 0
1, 150720, Note_on_c, 9, 42, 63
1, 150959, Note_on_c, 9, 42, 0
1, 150960, Note_on_c, 9, 42, 61
1, 151199, Note_on_c, 9, 42, 0
1, 151200, Note_on_c, 9, 42, 58
1, 151439, Note_on_c, 9, 42, 0
1, 151440, Note_on_c, 9, 42, 62
1, 151679, Note_on_c, 9, 42, 0
1, 151920, Note_on_c, 9, 42, 65
1, 152159, Note_on_c, 9, 42, 0
1, 152160, Note_on_c, 9, 42, 65
1, 152399, Note_on_c, 9, 42, 0
1, 152400, Note_on_c, 9, 42, 61
1, 152639, Note_on_c, 9, 42, 0
1, 152640, Note_on_c, 9, 42, 64
1, 152879, Note_on_c, 9, 42, 0
1, 152880, Note_on_c, 9, 42, 60
1, 153119, Note_on_c, 9, 42, 0
1, 153120, Note_on_c, 9, 42, 62
1, 153359, Note_on_c, 9, 42, 0
1, 153360, Note_on_c, 9, 42, 60
1, 153599, Note_on_c, 9, 42, 0
1, 153840, Note_on_c, 9, 42, 56
1, 154079, Note_on_c, 9, 42, 0
1, 154080, Note_on_c, 9, 42, 57
1, 154319, Note_on_c, 9, 42, 0
1, 154320, Note_on_c, 9, 42, 54
1, 154559, Note_on_c, 9, 42, 0
1, 154560, Note_on_c, 9, 42, 64
1, 154799, Note_on_c, 9, 42, 0
1, 154800, Note_on_c, 9, 42, 58
1, 155039, Note_on_c, 9, 42, 0
1, 155040, Note_on_c, 9, 42, 63
1, 155279, Note_on_c, 9, 42, 0
1, 155280, Note_on_c, 9, 42, 63
1, 155519, Note_on_c, 9, 42, 0
1, 155760, Note_on_c, 9, 42, 65
1, 155999, Note_on_c, 9, 42, 0
1, 156000, Note_on_c, 9, 42, 62
1, 156239, Note_on_c, 9, 42, 0
1, 156240, Note_on_c, 9, 42, 58
1, 156479, Note_on_c, 9, 42, 0
1, 156480, Note_on_c, 9, 42, 55
1, 156719, Note_on_c, 9, 42, 0
1, 156720, Note_on_c, 9, 42, 54
1, 156959, Note_on_c, 9, 42, 0
1, 156960, Note_on_c, 9, 42, 54
1, 157199, Note_on_c, 9, 42, 0
1, 157200, Note_on_c, 9, 42, 65
1, 157439, Note_on_c, 9, 42, 0
1, 157680, Note_on_c, 9, 42, 57
1, 157919, Note_on_c, 9, 42, 0
1, 157920, Note_on_c, 9, 42, 59
1, 158159, Note_on_c, 9, 42, 0
1, 158160, Note_on_c, 9, 42, 58
1, 158399, Note_on_c, 9, 42, 0
1, 158400, Note_on_c, 9, 42, 58
1, 158639, Note_on_c, 9, 42, 0
1, 158640, Note_on_c, 9, 42, 60
1, 158879, Note_on_c, 9, 42, 0
1, 158880, Note_on_c, 9, 42, 61
1, 159119, Note_on_c, 9, 42, 0
1, 159120, Note_on_c, 9, 42, 57
1, 159359, Note_on_c, 9, 42, 0
1, 159600, Note_on_c, 9, 42, 57
1, 159839, Note_on_c, 9, 42, 0
1, 159840, Note_on_c, 9, 42, 58
1, 160079, Note_on_c, 9, 42, 0
1, 160080, Note_on_c, 9, 42, 61
1, 160319, Note_on_c, 9, 42, 0
1, 160320, Note_on_c, 9, 42, 62
1, 160799, Note_on_c, 9, 42, 0
1, 160800, End_track
0, 0, End_of_file
