0, 0, Header, 1, 1, 480
1, 0, Start_track
1, 0, Time_signature, 4, 2, 24, 8
1, 0, Key_signature, 0, "major"
1, 0, Tempo, 500000
1, 0, Control_c, 9, 121, 0
1, 0, Program_c, 9, 48
1, 0, Control_c, 9, 7, 100
1, 0, Control_c, 9, 10, 64
1, 0, Control_c, 9, 91, 0
1, 0, Control_c, 9, 93, 0
1, 0, MIDI_port, 0
1, 24960, Note_on_c, 9, 42, 84
1, 24960, Note_on_c, 9, 36, 84
1, 25199, Note_on_c, 9, 42, 0
1, 25200, Note_on_c, 9, 42, 84
1, 25439, Note_on_c, 9, 36, 0
1, 25439, Note_on_c, 9, 42, 0
1, 25440, Note_on_c, 9, 38, 84
1, 25440, Note_on_c, 9, 42, 84
1, 25440, Note_on_c, 9, 54, 106
1, 25679, Note_on_c, 9, 38, 0
1, 25679, Note_on_c, 9, 42, 0
1, 25679, Note_on_c, 9, 54, 0
1, 25680, Note_on_c, 9, 42, 84
1, 25919, Note_on_c, 9, 42, 0
1, 25920, Note_on_c, 9, 42, 84
1, 25920, Note_on_c, 9, 36, 84
1, 26159, Note_on_c, 9, 42, 0
1, 26160, Note_on_c, 9, 42, 84
1, 26399, Note_on_c, 9, 36, 0
1, 26399, Note_on_c, 9, 42, 0
1, 26400, Note_on_c, 9, 38, 84
1, 26400, Note_on_c, 9, 42, 84
1, 26400, Note_on_c, 9, 54, 106
1, 26639, Note_on_c, 9, 38, 0
1, 26639, Note_on_c, 9, 42, 0
1, 26639, Note_on_c, 9, 54, 0
1, 26640, Note_on_c, 9, 42, 84
1, 26879, Note_on_c, 9, 42, 0
1, 26880, Note_on_c, 9, 42, 84
1, 26880, Note_on_c, 9, 36, 84
1, 27119, Note_on_c, 9, 42, 0
1, 27120, Note_on_c, 9, 42, 84
1, 27359, Note_on_c, 9, 36, 0
1, 27359, Note_on_c, 9, 42, 0
1, 27360, Note_on_c, 9, 38, 84
1, 27360, Note_on_c, 9, 42, 84
1, 27360, Note_on_c, 9, 54, 106
1, 27599, Note_on_c, 9, 38, 0
1, 27599, Note_on_c, 9, 42, 0
1, 27599, Note_on_c, 9, 54, 0
1, 27600, Note_on_c, 9, 42, 84
1, 27839, Note_on_c, 9, 42, 0
1, 27840, Note_on_c, 9, 42, 84
1, 27840, Note_on_c, 9, 36, 84
1, 28079, Note_on_c, 9, 42, 0
1, 28080, Note_on_c, 9, 42, 84
1, 28319, Note_on_c, 9, 36, 0
1, 28319, Note_on_c, 9, 42, 0
1, 28320, Note_on_c, 9, 38, 84
1, 28320, Note_on_c, 9, 42, 84
1, 28320, Note_on_c, 9, 54, 106
1, 28559, Note_on_c, 9, 38, 0
1, 28559, Note_on_c, 9, 42, 0
1, 28559, Note_on_c, 9, 54, 0
1, 28560, Note_on_c, 9, 42, 84
1, 28799, Note_on_c, 9, 42, 0
1, 28800, Note_on_c, 9, 42, 84
1, 28800, Note_on_c, 9, 36, 84
1, 29039, Note_on_c, 9, 42, 0
1, 29040, Note_on_c, 9, 42, 84
1, 29279, Note_on_c, 9, 36, 0
1, 29279, Note_on_c, 9, 42, 0
1, 29280, Note_on_c, 9, 38, 84
1, 29280, Note_on_c, 9, 42, 84
1, 29280, Note_on_c, 9, 54, 106
1, 29519, Note_on_c, 9, 38, 0
1, 29519, Note_on_c, 9, 42, 0
1, 29519, Note_on_c, 9, 54, 0
1, 29520, Note_on_c, 9, 42, 84
1, 29759, Note_on_c, 9, 42, 0
1, 29760, Note_on_c, 9, 42, 84
1, 29760, Note_on_c, 9, 36, 84
1, 29999, Note_on_c, 9, 42, 0
1, 30000, Note_on_c, 9, 42, 84
1, 30239, Note_on_c, 9, 36, 0
1, 30239, Note_on_c, 9, 42, 0
1, 30240, Note_on_c, 9, 38, 84
1, 30240, Note_on_c, 9, 42, 84
1, 30240, Note_on_c, 9, 54, 106
1, 30479, Note_on_c, 9, 38, 0
1, 30479, Note_on_c, 9, 42, 0
1, 30479, Note_on_c, 9, 54, 0
1, 30480, Note_on_c, 9, 42, 84
1, 30719, Note_on_c, 9, 42, 0
1, 30720, Note_on_c, 9, 42, 84
1, 30720, Note_on_c, 9, 36, 84
1, 30959, Note_on_c, 9, 42, 0
1, 30960, Note_on_c, 9, 42, 84
1, 31199, Note_on_c, 9, 36, 0
1, 31199, Note_on_c, 9, 42, 0
1, 31200, Note_on_c, 9, 38, 84
1, 31200, Note_on_c, 9, 42, 84
1, 31200, Note_on_c, 9, 54, 106
1, 31439, Note_on_c, 9, 38, 0
1, 31439, Note_on_c, 9, 42, 0
1, 31439, Note_on_c, 9, 54, 0
1, 31440, Note_on_c, 9, 42, 84
1, 31679, Note_on_c, 9, 42, 0
1, 31680, Note_on_c, 9, 42, 84
1, 31680, Note_on_c, 9, 36, 84
1, 31919, Note_on_c, 9, 42, 0
1, 31920, Note_on_c, 9, 42, 84
1, 32159, Note_on_c, 9, 36, 0
1, 32159, Note_on_c, 9, 42, 0
1, 32160, Note_on_c, 9, 38, 84
1, 32160, Note_on_c, 9, 42, 84
1, 32160, Note_on_c, 9, 54, 106
1, 32399, Note_on_c, 9, 38, 0
1, 32399, Note_on_c, 9, 42, 0
1, 32399, Note_on_c, 9, 54, 0
1, 32400, Note_on_c, 9, 42, 84
1, 32639, Note_on_c, 9, 42, 0
1, 32640, Note_on_c, 9, 42, 84
1, 32640, Note_on_c, 9, 36, 84
1, 32879, Note_on_c, 9, 42, 0
1, 32880, Note_on_c, 9, 42, 84
1, 33119, Note_on_c, 9, 36, 0
1, 33119, Note_on_c, 9, 42, 0
1, 33120, Note_on_c, 9, 38, 84
1, 33120, Note_on_c, 9, 42, 84
1, 33120, Note_on_c, 9, 54, 106
1, 33359, Note_on_c, 9, 38, 0
1, 33359, Note_on_c, 9, 42, 0
1, 33359, Note_on_c, 9, 54, 0
1, 33360, Note_on_c, 9, 42, 84
1, 33599, Note_on_c, 9, 42, 0
1, 33600, Note_on_c, 9, 42, 84
1, 33600, Note_on_c, 9, 36, 84
1, 33839, Note_on_c, 9, 42, 0
1, 33840, Note_on_c, 9, 42, 84
1, 34079, Note_on_c, 9, 36, 0
1, 34079, Note_on_c, 9, 42, 0
1, 34080, Note_on_c, 9, 38, 84
1, 34080, Note_on_c, 9, 42, 84
1, 34080, Note_on_c, 9, 54, 106
1, 34319, Note_on_c, 9, 38, 0
1, 34319, Note_on_c, 9, 42, 0
1, 34319, Note_on_c, 9, 54, 0
1, 34320, Note_on_c, 9, 42, 84
1, 34559, Note_on_c, 9, 42, 0
1, 34560, Note_on_c, 9, 42, 84
1, 34560, Note_on_c, 9, 36, 84
1, 34799, Note_on_c, 9, 42, 0
1, 34800, Note_on_c, 9, 42, 84
1, 35039, Note_on_c, 9, 36, 0
1, 35039, Note_on_c, 9, 42, 0
1, 35040, Note_on_c, 9, 38, 84
1, 35040, Note_on_c, 9, 42, 84
1, 35040, Note_on_c, 9, 54, 106
1, 35279, Note_on_c, 9, 38, 0
1, 35279, Note_on_c, 9, 42, 0
1, 35279, Note_on_c, 9, 54, 0
1, 35280, Note_on_c, 9, 42, 84
1, 35519, Note_on_c, 9, 42, 0
1, 35520, Note_on_c, 9, 36, 84
1, 35999, Note_on_c, 9, 36, 0
1, 40320, Time_signature, 2, 2, 24, 8
1, 41280, Time_signature, 4, 2, 24, 8
1, 41280, Note_on_c, 9, 42, 84
1, 41280, Note_on_c, 9, 36, 84
1, 41519, Note_on_c, 9, 42, 0
1, 41520, Note_on_c, 9, 42, 84
1, 41759, Note_on_c, 9, 36, 0
1, 41759, Note_on_c, 9, 42, 0
1, 41760, Note_on_c, 9, 38, 84
1, 41760, Note_on_c, 9, 42, 84
1, 41760, Note_on_c, 9, 54, 106
1, 41999, Note_on_c, 9, 38, 0
1, 41999, Note_on_c, 9, 42, 0
1, 41999, Note_on_c, 9, 54, 0
1, 42000, Note_on_c, 9, 42, 84
1, 42239, Note_on_c, 9, 42, 0
1, 42240, Note_on_c, 9, 42, 84
1, 42240, Note_on_c, 9, 36, 84
1, 42479, Note_on_c, 9, 42, 0
1, 42480, Note_on_c, 9, 42, 84
1, 42719, Note_on_c, 9, 36, 0
1, 42719, Note_on_c, 9, 42, 0
1, 42720, Note_on_c, 9, 38, 84
1, 42720, Note_on_c, 9, 42, 84
1, 42720, Note_on_c, 9, 54, 106
1, 42959, Note_on_c, 9, 38, 0
1, 42959, Note_on_c, 9, 42, 0
1, 42959, Note_on_c, 9, 54, 0
1, 42960, Note_on_c, 9, 42, 84
1, 43199, Note_on_c, 9, 42, 0
1, 43200, Note_on_c, 9, 42, 84
1, 43200, Note_on_c, 9, 36, 84
1, 43439, Note_on_c, 9, 42, 0
1, 43440, Note_on_c, 9, 42, 84
1, 43679, Note_on_c, 9, 36, 0
1, 43679, Note_on_c, 9, 42, 0
1, 43680, Note_on_c, 9, 38, 84
1, 43680, Note_on_c, 9, 42, 84
1, 43680, Note_on_c, 9, 54, 106
1, 43919, Note_on_c, 9, 38, 0
1, 43919, Note_on_c, 9, 42, 0
1, 43919, Note_on_c, 9, 54, 0
1, 43920, Note_on_c, 9, 42, 84
1, 44159, Note_on_c, 9, 42, 0
1, 44160, Note_on_c, 9, 42, 84
1, 44160, Note_on_c, 9, 36, 84
1, 44399, Note_on_c, 9, 42, 0
1, 44400, Note_on_c, 9, 42, 84
1, 44639, Note_on_c, 9, 36, 0
1, 44639, Note_on_c, 9, 42, 0
1, 44640, Note_on_c, 9, 38, 84
1, 44640, Note_on_c, 9, 42, 84
1, 44640, Note_on_c, 9, 54, 106
1, 44879, Note_on_c, 9, 38, 0
1, 44879, Note_on_c, 9, 42, 0
1, 44879, Note_on_c, 9, 54, 0
1, 44880, Note_on_c, 9, 42, 84
1, 45119, Note_on_c, 9, 42, 0
1, 45120, Note_on_c, 9, 42, 84
1, 45120, Note_on_c, 9, 36, 84
1, 45359, Note_on_c, 9, 42, 0
1, 45360, Note_on_c, 9, 42, 84
1, 45599, Note_on_c, 9, 36, 0
1, 45599, Note_on_c, 9, 42, 0
1, 45600, Note_on_c, 9, 38, 84
1, 45600, Note_on_c, 9, 42, 84
1, 45600, Note_on_c, 9, 54, 106
1, 45839, Note_on_c, 9, 38, 0
1, 45839, Note_on_c, 9, 42, 0
1, 45839, Note_on_c, 9, 54, 0
1, 45840, Note_on_c, 9, 42, 84
1, 46079, Note_on_c, 9, 42, 0
1, 46080, Note_on_c, 9, 42, 84
1, 46080, Note_on_c, 9, 36, 84
1, 46319, Note_on_c, 9, 42, 0
1, 46320, Note_on_c, 9, 42, 84
1, 46559, Note_on_c, 9, 36, 0
1, 46559, Note_on_c, 9, 42, 0
1, 46560, Note_on_c, 9, 38, 84
1, 46560, Note_on_c, 9, 42, 84
1, 46560, Note_on_c, 9, 54, 106
1, 46799, Note_on_c, 9, 38, 0
1, 46799, Note_on_c, 9, 42, 0
1, 46799, Note_on_c, 9, 54, 0
1, 46800, Note_on_c, 9, 42, 84
1, 47039, Note_on_c, 9, 42, 0
1, 47040, Note_on_c, 9, 42, 84
1, 47040, Note_on_c, 9, 36, 84
1, 47279, Note_on_c, 9, 42, 0
1, 47280, Note_on_c, 9, 42, 84
1, 47519, Note_on_c, 9, 36, 0
1, 47519, Note_on_c, 9, 42, 0
1, 47520, Note_on_c, 9, 38, 84
1, 47520, Note_on_c, 9, 42, 84
1, 47520, Note_on_c, 9, 54, 106
1, 47759, Note_on_c, 9, 38, 0
1, 47759, Note_on_c, 9, 42, 0
1, 47759, Note_on_c, 9, 54, 0
1, 47760, Note_on_c, 9, 42, 84
1, 47999, Note_on_c, 9, 42, 0
1, 48000, Note_on_c, 9, 42, 84
1, 48000, Note_on_c, 9, 36, 84
1, 48479, Note_on_c, 9, 42, 0
1, 48479, Note_on_c, 9, 36, 0
1, 48960, Note_on_c, 9, 42, 84
1, 48960, Note_on_c, 9, 36, 84
1, 49199, Note_on_c, 9, 42, 0
1, 49200, Note_on_c, 9, 42, 84
1, 49439, Note_on_c, 9, 36, 0
1, 49439, Note_on_c, 9, 42, 0
1, 49440, Note_on_c, 9, 38, 84
1, 49440, Note_on_c, 9, 42, 84
1, 49440, Note_on_c, 9, 54, 106
1, 49679, Note_on_c, 9, 38, 0
1, 49679, Note_on_c, 9, 42, 0
1, 49679, Note_on_c, 9, 54, 0
1, 49680, Note_on_c, 9, 42, 84
1, 49919, Note_on_c, 9, 42, 0
1, 49920, Note_on_c, 9, 42, 84
1, 49920, Note_on_c, 9, 36, 84
1, 50159, Note_on_c, 9, 42, 0
1, 50160, Note_on_c, 9, 42, 84
1, 50399, Note_on_c, 9, 36, 0
1, 50399, Note_on_c, 9, 42, 0
1, 50400, Note_on_c, 9, 38, 84
1, 50400, Note_on_c, 9, 42, 84
1, 50400, Note_on_c, 9, 54, 106
1, 50639, Note_on_c, 9, 38, 0
1, 50639, Note_on_c, 9, 42, 0
1, 50639, Note_on_c, 9, 54, 0
1, 50640, Note_on_c, 9, 42, 84
1, 50879, Note_on_c, 9, 42, 0
1, 50880, Note_on_c, 9, 42, 84
1, 50880, Note_on_c, 9, 36, 84
1, 51119, Note_on_c, 9, 42, 0
1, 51120, Note_on_c, 9, 42, 84
1, 51359, Note_on_c, 9, 36, 0
1, 51359, Note_on_c, 9, 42, 0
1, 51360, Note_on_c, 9, 38, 84
1, 51360, Note_on_c, 9, 42, 84
1, 51360, Note_on_c, 9, 54, 106
1, 51599, Note_on_c, 9, 38, 0
1, 51599, Note_on_c, 9, 42, 0
1, 51599, Note_on_c, 9, 54, 0
1, 51600, Note_on_c, 9, 42, 84
1, 51839, Note_on_c, 9, 42, 0
1, 51840, Note_on_c, 9, 42, 84
1, 51840, Note_on_c, 9, 36, 84
1, 52079, Note_on_c, 9, 42, 0
1, 52080, Note_on_c, 9, 42, 84
1, 52319, Note_on_c, 9, 36, 0
1, 52319, Note_on_c, 9, 42, 0
1, 52320, Note_on_c, 9, 38, 84
1, 52320, Note_on_c, 9, 42, 84
1, 52320, Note_on_c, 9, 54, 106
1, 52559, Note_on_c, 9, 38, 0
1, 52559, Note_on_c, 9, 42, 0
1, 52559, Note_on_c, 9, 54, 0
1, 52560, Note_on_c, 9, 42, 84
1, 52799, Note_on_c, 9, 42, 0
1, 52800, Note_on_c, 9, 42, 84
1, 52800, Note_on_c, 9, 36, 84
1, 53039, Note_on_c, 9, 42, 0
1, 53040, Note_on_c, 9, 42, 84
1, 53279, Note_on_c, 9, 36, 0
1, 53279, Note_on_c, 9, 42, 0
1, 53280, Note_on_c, 9, 38, 84
1, 53280, Note_on_c, 9, 42, 84
1, 53280, Note_on_c, 9, 54, 106
1, 53519, Note_on_c, 9, 38, 0
1, 53519, Note_on_c, 9, 42, 0
1, 53519, Note_on_c, 9, 54, 0
1, 53520, Note_on_c, 9, 42, 84
1, 53759, Note_on_c, 9, 42, 0
1, 53760, Note_on_c, 9, 42, 84
1, 53760, Note_on_c, 9, 36, 84
1, 53999, Note_on_c, 9, 42, 0
1, 54000, Note_on_c, 9, 42, 84
1, 54239, Note_on_c, 9, 36, 0
1, 54239, Note_on_c, 9, 42, 0
1, 54240, Note_on_c, 9, 38, 84
1, 54240, Note_on_c, 9, 42, 84
1, 54240, Note_on_c, 9, 54, 106
1, 54479, Note_on_c, 9, 38, 0
1, 54479, Note_on_c, 9, 42, 0
1, 54479, Note_on_c, 9, 54, 0
1, 54480, Note_on_c, 9, 42, 84
1, 54719, Note_on_c, 9, 42, 0
1, 54720, Note_on_c, 9, 42, 84
1, 54720, Note_on_c, 9, 36, 84
1, 54959, Note_on_c, 9, 42, 0
1, 54960, Note_on_c, 9, 42, 84
1, 55199, Note_on_c, 9, 36, 0
1, 55199, Note_on_c, 9, 42, 0
1, 55200, Note_on_c, 9, 38, 84
1, 55200, Note_on_c, 9, 42, 84
1, 55200, Note_on_c, 9, 54, 106
1, 55439, Note_on_c, 9, 38, 0
1, 55439, Note_on_c, 9, 42, 0
1, 55439, Note_on_c, 9, 54, 0
1, 55440, Note_on_c, 9, 42, 84
1, 55679, Note_on_c, 9, 42, 0
1, 55680, Note_on_c, 9, 42, 84
1, 55680, Note_on_c, 9, 36, 84
1, 55919, Note_on_c, 9, 42, 0
1, 55920, Note_on_c, 9, 42, 84
1, 56159, Note_on_c, 9, 36, 0
1, 56159, Note_on_c, 9, 42, 0
1, 56160, Note_on_c, 9, 38, 84
1, 56160, Note_on_c, 9, 42, 84
1, 56160, Note_on_c, 9, 54, 106
1, 56399, Note_on_c, 9, 38, 0
1, 56399, Note_on_c, 9, 42, 0
1, 56399, Note_on_c, 9, 54, 0
1, 56400, Note_on_c, 9, 42, 84
1, 56639, Note_on_c, 9, 42, 0
1, 56640, Note_on_c, 9, 42, 84
1, 56640, Note_on_c, 9, 36, 84
1, 56879, Note_on_c, 9, 42, 0
1, 56880, Note_on_c, 9, 42, 84
1, 57119, Note_on_c, 9, 36, 0
1, 57119, Note_on_c, 9, 42, 0
1, 57120, Note_on_c, 9, 38, 84
1, 57120, Note_on_c, 9, 42, 84
1, 57120, Note_on_c, 9, 54, 106
1, 57359, Note_on_c, 9, 38, 0
1, 57359, Note_on_c, 9, 42, 0
1, 57359, Note_on_c, 9, 54, 0
1, 57360, Note_on_c, 9, 42, 84
1, 57599, Note_on_c, 9, 42, 0
1, 57600, Note_on_c, 9, 42, 84
1, 57600, Note_on_c, 9, 36, 84
1, 57839, Note_on_c, 9, 42, 0
1, 57840, Note_on_c, 9, 42, 84
1, 58079, Note_on_c, 9, 36, 0
1, 58079, Note_on_c, 9, 42, 0
1, 58080, Note_on_c, 9, 38, 84
1, 58080, Note_on_c, 9, 42, 84
1, 58080, Note_on_c, 9, 54, 106
1, 58319, Note_on_c, 9, 38, 0
1, 58319, Note_on_c, 9, 42, 0
1, 58319, Note_on_c, 9, 54, 0
1, 58320, Note_on_c, 9, 42, 84
1, 58559, Note_on_c, 9, 42, 0
1, 58560, Note_on_c, 9, 42, 84
1, 58560, Note_on_c, 9, 36, 84
1, 58799, Note_on_c, 9, 42, 0
1, 58800, Note_on_c, 9, 42, 84
1, 59039, Note_on_c, 9, 36, 0
1, 59039, Note_on_c, 9, 42, 0
1, 59040, Note_on_c, 9, 38, 84
1, 59040, Note_on_c, 9, 42, 84
1, 59040, Note_on_c, 9, 54, 106
1, 59279, Note_on_c, 9, 38, 0
1, 59279, Note_on_c, 9, 42, 0
1, 59279, Note_on_c, 9, 54, 0
1, 59280, Note_on_c, 9, 42, 84
1, 59519, Note_on_c, 9, 42, 0
1, 59520, Note_on_c, 9, 42, 84
1, 59520, Note_on_c, 9, 36, 84
1, 59759, Note_on_c, 9, 42, 0
1, 59760, Note_on_c, 9, 42, 84
1, 59999, Note_on_c, 9, 36, 0
1, 59999, Note_on_c, 9, 42, 0
1, 60000, Note_on_c, 9, 38, 84
1, 60000, Note_on_c, 9, 42, 84
1, 60000, Note_on_c, 9, 54, 106
1, 60239, Note_on_c, 9, 38, 0
1, 60239, Note_on_c, 9, 42, 0
1, 60239, Note_on_c, 9, 54, 0
1, 60240, Note_on_c, 9, 42, 84
1, 60479, Note_on_c, 9, 42, 0
1, 60480, Note_on_c, 9, 42, 84
1, 60480, Note_on_c, 9, 36, 84
1, 60719, Note_on_c, 9, 42, 0
1, 60720, Note_on_c, 9, 42, 84
1, 60959, Note_on_c, 9, 36, 0
1, 60959, Note_on_c, 9, 42, 0
1, 60960, Note_on_c, 9, 38, 84
1, 60960, Note_on_c, 9, 42, 84
1, 60960, Note_on_c, 9, 54, 106
1, 61199, Note_on_c, 9, 38, 0
1, 61199, Note_on_c, 9, 42, 0
1, 61199, Note_on_c, 9, 54, 0
1, 61200, Note_on_c, 9, 42, 84
1, 61439, Note_on_c, 9, 42, 0
1, 61440, Note_on_c, 9, 42, 84
1, 61440, Note_on_c, 9, 36, 84
1, 61679, Note_on_c, 9, 42, 0
1, 61680, Note_on_c, 9, 42, 84
1, 61919, Note_on_c, 9, 36, 0
1, 61919, Note_on_c, 9, 42, 0
1, 61920, Note_on_c, 9, 38, 84
1, 61920, Note_on_c, 9, 42, 84
1, 61920, Note_on_c, 9, 54, 106
1, 62159, Note_on_c, 9, 38, 0
1, 62159, Note_on_c, 9, 42, 0
1, 62159, Note_on_c, 9, 54, 0
1, 62160, Note_on_c, 9, 42, 84
1, 62399, Note_on_c, 9, 42, 0
1, 62400, Note_on_c, 9, 42, 84
1, 62400, Note_on_c, 9, 36, 84
1, 62639, Note_on_c, 9, 42, 0
1, 62640, Note_on_c, 9, 42, 84
1, 62879, Note_on_c, 9, 36, 0
1, 62879, Note_on_c, 9, 42, 0
1, 62880, Note_on_c, 9, 38, 84
1, 62880, Note_on_c, 9, 42, 84
1, 62880, Note_on_c, 9, 54, 106
1, 63119, Note_on_c, 9, 38, 0
1, 63119, Note_on_c, 9, 42, 0
1, 63119, Note_on_c, 9, 54, 0
1, 63120, Note_on_c, 9, 42, 84
1, 63359, Note_on_c, 9, 42, 0
1, 63360, Note_on_c, 9, 42, 84
1, 63360, Note_on_c, 9, 36, 84
1, 63599, Note_on_c, 9, 42, 0
1, 63600, Note_on_c, 9, 42, 84
1, 63839, Note_on_c, 9, 36, 0
1, 63839, Note_on_c, 9, 42, 0
1, 63840, Note_on_c, 9, 38, 84
1, 63840, Note_on_c, 9, 42, 84
1, 63840, Note_on_c, 9, 54, 106
1, 64079, Note_on_c, 9, 38, 0
1, 64079, Note_on_c, 9, 42, 0
1, 64079, Note_on_c, 9, 54, 0
1, 64080, Note_on_c, 9, 42, 84
1, 64319, Note_on_c, 9, 42, 0
1, 64320, Note_on_c, 9, 42, 84
1, 64320, Note_on_c, 9, 36, 84
1, 64559, Note_on_c, 9, 42, 0
1, 64560, Note_on_c, 9, 42, 84
1, 64799, Note_on_c, 9, 36, 0
1, 64799, Note_on_c, 9, 42, 0
1, 64800, Note_on_c, 9, 38, 84
1, 64800, Note_on_c, 9, 42, 84
1, 64800, Note_on_c, 9, 54, 106
1, 65039, Note_on_c, 9, 38, 0
1, 65039, Note_on_c, 9, 42, 0
1, 65039, Note_on_c, 9, 54, 0
1, 65040, Note_on_c, 9, 42, 84
1, 65279, Note_on_c, 9, 42, 0
1, 65280, Note_on_c, 9, 42, 84
1, 65280, Note_on_c, 9, 36, 84
1, 65519, Note_on_c, 9, 42, 0
1, 65520, Note_on_c, 9, 42, 84
1, 65759, Note_on_c, 9, 36, 0
1, 65759, Note_on_c, 9, 42, 0
1, 65760, Note_on_c, 9, 38, 84
1, 65760, Note_on_c, 9, 42, 84
1, 65760, Note_on_c, 9, 54, 106
1, 65999, Note_on_c, 9, 38, 0
1, 65999, Note_on_c, 9, 42, 0
1, 65999, Note_on_c, 9, 54, 0
1, 66000, Note_on_c, 9, 42, 84
1, 66239, Note_on_c, 9, 42, 0
1, 66240, Note_on_c, 9, 42, 84
1, 66240, Note_on_c, 9, 36, 84
1, 66479, Note_on_c, 9, 42, 0
1, 66480, Note_on_c, 9, 42, 84
1, 66719, Note_on_c, 9, 36, 0
1, 66719, Note_on_c, 9, 42, 0
1, 66720, Note_on_c, 9, 38, 84
1, 66720, Note_on_c, 9, 42, 84
1, 66720, Note_on_c, 9, 54, 106
1, 66959, Note_on_c, 9, 38, 0
1, 66959, Note_on_c, 9, 42, 0
1, 66959, Note_on_c, 9, 54, 0
1, 66960, Note_on_c, 9, 42, 84
1, 67199, Note_on_c, 9, 42, 0
1, 67200, Note_on_c, 9, 42, 84
1, 67200, Note_on_c, 9, 36, 84
1, 67439, Note_on_c, 9, 42, 0
1, 67440, Note_on_c, 9, 42, 84
1, 67679, Note_on_c, 9, 36, 0
1, 67679, Note_on_c, 9, 42, 0
1, 67680, Note_on_c, 9, 38, 84
1, 67680, Note_on_c, 9, 42, 84
1, 67680, Note_on_c, 9, 54, 106
1, 67919, Note_on_c, 9, 38, 0
1, 67919, Note_on_c, 9, 42, 0
1, 67919, Note_on_c, 9, 54, 0
1, 67920, Note_on_c, 9, 42, 84
1, 68159, Note_on_c, 9, 42, 0
1, 68160, Note_on_c, 9, 42, 84
1, 68160, Note_on_c, 9, 36, 84
1, 68399, Note_on_c, 9, 42, 0
1, 68400, Note_on_c, 9, 42, 84
1, 68639, Note_on_c, 9, 36, 0
1, 68639, Note_on_c, 9, 42, 0
1, 68640, Note_on_c, 9, 38, 84
1, 68640, Note_on_c, 9, 42, 84
1, 68640, Note_on_c, 9, 54, 106
1, 68879, Note_on_c, 9, 38, 0
1, 68879, Note_on_c, 9, 42, 0
1, 68879, Note_on_c, 9, 54, 0
1, 68880, Note_on_c, 9, 42, 84
1, 69119, Note_on_c, 9, 42, 0
1, 69120, Note_on_c, 9, 42, 84
1, 69120, Note_on_c, 9, 36, 84
1, 69359, Note_on_c, 9, 42, 0
1, 69360, Note_on_c, 9, 42, 84
1, 69599, Note_on_c, 9, 36, 0
1, 69599, Note_on_c, 9, 42, 0
1, 69600, Note_on_c, 9, 38, 84
1, 69600, Note_on_c, 9, 42, 84
1, 69600, Note_on_c, 9, 54, 106
1, 69839, Note_on_c, 9, 38, 0
1, 69839, Note_on_c, 9, 42, 0
1, 69839, Note_on_c, 9, 54, 0
1, 69840, Note_on_c, 9, 42, 84
1, 70079, Note_on_c, 9, 42, 0
1, 70080, Note_on_c, 9, 42, 84
1, 70080, Note_on_c, 9, 36, 84
1, 70319, Note_on_c, 9, 42, 0
1, 70320, Note_on_c, 9, 42, 84
1, 70559, Note_on_c, 9, 36, 0
1, 70559, Note_on_c, 9, 42, 0
1, 70560, Note_on_c, 9, 38, 84
1, 70560, Note_on_c, 9, 42, 84
1, 70560, Note_on_c, 9, 54, 106
1, 70799, Note_on_c, 9, 38, 0
1, 70799, Note_on_c, 9, 42, 0
1, 70799, Note_on_c, 9, 54, 0
1, 70800, Note_on_c, 9, 42, 84
1, 71039, Note_on_c, 9, 42, 0
1, 71040, Note_on_c, 9, 42, 84
1, 71040, Note_on_c, 9, 36, 84
1, 71519, Note_on_c, 9, 42, 0
1, 71519, Note_on_c, 9, 36, 0
1, 75840, Time_signature, 2, 2, 24, 8
1, 76800, Time_signature, 4, 2, 24, 8
1, 76800, Note_on_c, 9, 42, 84
1, 76800, Note_on_c, 9, 36, 84
1, 77039, Note_on_c, 9, 42, 0
1, 77040, Note_on_c, 9, 42, 84
1, 77279, Note_on_c, 9, 36, 0
1, 77279, Note_on_c, 9, 42, 0
1, 77280, Note_on_c, 9, 38, 84
1, 77280, Note_on_c, 9, 42, 84
1, 77280, Note_on_c, 9, 54, 106
1, 77519, Note_on_c, 9, 38, 0
1, 77519, Note_on_c, 9, 42, 0
1, 77519, Note_on_c, 9, 54, 0
1, 77520, Note_on_c, 9, 42, 84
1, 77759, Note_on_c, 9, 42, 0
1, 77760, Note_on_c, 9, 42, 84
1, 77760, Note_on_c, 9, 36, 84
1, 77999, Note_on_c, 9, 42, 0
1, 78000, Note_on_c, 9, 42, 84
1, 78239, Note_on_c, 9, 36, 0
1, 78239, Note_on_c, 9, 42, 0
1, 78240, Note_on_c, 9, 38, 84
1, 78240, Note_on_c, 9, 42, 84
1, 78240, Note_on_c, 9, 54, 106
1, 78479, Note_on_c, 9, 38, 0
1, 78479, Note_on_c, 9, 42, 0
1, 78479, Note_on_c, 9, 54, 0
1, 78480, Note_on_c, 9, 42, 84
1, 78719, Note_on_c, 9, 42, 0
1, 78720, Note_on_c, 9, 42, 84
1, 78720, Note_on_c, 9, 36, 84
1, 78959, Note_on_c, 9, 42, 0
1, 78960, Note_on_c, 9, 42, 84
1, 79199, Note_on_c, 9, 36, 0
1, 79199, Note_on_c, 9, 42, 0
1, 79200, Note_on_c, 9, 38, 84
1, 79200, Note_on_c, 9, 42, 84
1, 79200, Note_on_c, 9, 54, 106
1, 79439, Note_on_c, 9, 38, 0
1, 79439, Note_on_c, 9, 42, 0
1, 79439, Note_on_c, 9, 54, 0
1, 79440, Note_on_c, 9, 42, 84
1, 79679, Note_on_c, 9, 42, 0
1, 79680, Note_on_c, 9, 42, 84
1, 79680, Note_on_c, 9, 36, 84
1, 79919, Note_on_c, 9, 42, 0
1, 79920, Note_on_c, 9, 42, 84
1, 80159, Note_on_c, 9, 36, 0
1, 80159, Note_on_c, 9, 42, 0
1, 80160, Note_on_c, 9, 38, 84
1, 80160, Note_on_c, 9, 42, 84
1, 80160, Note_on_c, 9, 54, 106
1, 80399, Note_on_c, 9, 38, 0
1, 80399, Note_on_c, 9, 42, 0
1, 80399, Note_on_c, 9, 54, 0
1, 80400, Note_on_c, 9, 42, 84
1, 80639, Note_on_c, 9, 42, 0
1, 80640, Note_on_c, 9, 42, 84
1, 80640, Note_on_c, 9, 36, 84
1, 80879, Note_on_c, 9, 42, 0
1, 80880, Note_on_c, 9, 42, 84
1, 81119, Note_on_c, 9, 36, 0
1, 81119, Note_on_c, 9, 42, 0
1, 81120, Note_on_c, 9, 38, 84
1, 81120, Note_on_c, 9, 42, 84
1, 81120, Note_on_c, 9, 54, 106
1, 81359, Note_on_c, 9, 38, 0
1, 81359, Note_on_c, 9, 42, 0
1, 81359, Note_on_c, 9, 54, 0
1, 81360, Note_on_c, 9, 42, 84
1, 81599, Note_on_c, 9, 42, 0
1, 81600, Note_on_c, 9, 42, 84
1, 81600, Note_on_c, 9, 36, 84
1, 81839, Note_on_c, 9, 42, 0
1, 81840, Note_on_c, 9, 42, 84
1, 82079, Note_on_c, 9, 36, 0
1, 82079, Note_on_c, 9, 42, 0
1, 82080, Note_on_c, 9, 38, 84
1, 82080, Note_on_c, 9, 42, 84
1, 82080, Note_on_c, 9, 54, 106
1, 82319, Note_on_c, 9, 38, 0
1, 82319, Note_on_c, 9, 42, 0
1, 82319, Note_on_c, 9, 54, 0
1, 82320, Note_on_c, 9, 42, 84
1, 82559, Note_on_c, 9, 42, 0
1, 82560, Note_on_c, 9, 42, 84
1, 82560, Note_on_c, 9, 36, 84
1, 82799, Note_on_c, 9, 42, 0
1, 82800, Note_on_c, 9, 42, 84
1, 83039, Note_on_c, 9, 36, 0
1, 83039, Note_on_c, 9, 42, 0
1, 83040, Note_on_c, 9, 38, 84
1, 83040, Note_on_c, 9, 42, 84
1, 83040, Note_on_c, 9, 54, 106
1, 83279, Note_on_c, 9, 38, 0
1, 83279, Note_on_c, 9, 42, 0
1, 83279, Note_on_c, 9, 54, 0
1, 83280, Note_on_c, 9, 42, 84
1, 83519, Note_on_c, 9, 42, 0
1, 83520, Note_on_c, 9, 42, 84
1, 83520, Note_on_c, 9, 36, 84
1, 83759, Note_on_c, 9, 42, 0
1, 83760, Note_on_c, 9, 42, 84
1, 83999, Note_on_c, 9, 36, 0
1, 83999, Note_on_c, 9, 42, 0
1, 84000, Note_on_c, 9, 38, 84
1, 84000, Note_on_c, 9, 42, 84
1, 84000, Note_on_c, 9, 54, 106
1, 84239, Note_on_c, 9, 38, 0
1, 84239, Note_on_c, 9, 42, 0
1, 84239, Note_on_c, 9, 54, 0
1, 84240, Note_on_c, 9, 42, 84
1, 84479, Note_on_c, 9, 42, 0
1, 84480, Note_on_c, 9, 42, 84
1, 84480, Note_on_c, 9, 36, 84
1, 84719, Note_on_c, 9, 42, 0
1, 84720, Note_on_c, 9, 42, 84
1, 84959, Note_on_c, 9, 36, 0
1, 84959, Note_on_c, 9, 42, 0
1, 84960, Note_on_c, 9, 38, 84
1, 84960, Note_on_c, 9, 42, 84
1, 84960, Note_on_c, 9, 54, 106
1, 85199, Note_on_c, 9, 38, 0
1, 85199, Note_on_c, 9, 42, 0
1, 85199, Note_on_c, 9, 54, 0
1, 85200, Note_on_c, 9, 42, 84
1, 85439, Note_on_c, 9, 42, 0
1, 85440, Note_on_c, 9, 42, 84
1, 85440, Note_on_c, 9, 36, 84
1, 85679, Note_on_c, 9, 42, 0
1, 85680, Note_on_c, 9, 42, 84
1, 85919, Note_on_c, 9, 36, 0
1, 85919, Note_on_c, 9, 42, 0
1, 85920, Note_on_c, 9, 38, 84
1, 85920, Note_on_c, 9, 42, 84
1, 85920, Note_on_c, 9, 54, 106
1, 86159, Note_on_c, 9, 38, 0
1, 86159, Note_on_c, 9, 42, 0
1, 86159, Note_on_c, 9, 54, 0
1, 86160, Note_on_c, 9, 42, 84
1, 86399, Note_on_c, 9, 42, 0
1, 86400, Note_on_c, 9, 42, 84
1, 86400, Note_on_c, 9, 36, 84
1, 86639, Note_on_c, 9, 42, 0
1, 86640, Note_on_c, 9, 42, 84
1, 86879, Note_on_c, 9, 36, 0
1, 86879, Note_on_c, 9, 42, 0
1, 86880, Note_on_c, 9, 38, 84
1, 86880, Note_on_c, 9, 42, 84
1, 86880, Note_on_c, 9, 54, 106
1, 87119, Note_on_c, 9, 38, 0
1, 87119, Note_on_c, 9, 42, 0
1, 87119, Note_on_c, 9, 54, 0
1, 87120, Note_on_c, 9, 42, 84
1, 87359, Note_on_c, 9, 42, 0
1, 87360, Note_on_c, 9, 42, 84
1, 87360, Note_on_c, 9, 36, 84
1, 87599, Note_on_c, 9, 42, 0
1, 87600, Note_on_c, 9, 42, 84
1, 87839, Note_on_c, 9, 36, 0
1, 87839, Note_on_c, 9, 42, 0
1, 87840, Note_on_c, 9, 38, 84
1, 87840, Note_on_c, 9, 42, 84
1, 87840, Note_on_c, 9, 54, 106
1, 88079, Note_on_c, 9, 38, 0
1, 88079, Note_on_c, 9, 42, 0
1, 88079, Note_on_c, 9, 54, 0
1, 88080, Note_on_c, 9, 42, 84
1, 88319, Note_on_c, 9, 42, 0
1, 88320, Note_on_c, 9, 42, 84
1, 88320, Note_on_c, 9, 36, 84
1, 88559, Note_on_c, 9, 42, 0
1, 88560, Note_on_c, 9, 42, 84
1, 88799, Note_on_c, 9, 36, 0
1, 88799, Note_on_c, 9, 42, 0
1, 88800, Note_on_c, 9, 38, 84
1, 88800, Note_on_c, 9, 42, 84
1, 88800, Note_on_c, 9, 54, 106
1, 89039, Note_on_c, 9, 38, 0
1, 89039, Note_on_c, 9, 42, 0
1, 89039, Note_on_c, 9, 54, 0
1, 89040, Note_on_c, 9, 42, 84
1, 89279, Note_on_c, 9, 42, 0
1, 89280, Note_on_c, 9, 42, 84
1, 89280, Note_on_c, 9, 36, 84
1, 89519, Note_on_c, 9, 42, 0
1, 89520, Note_on_c, 9, 42, 84
1, 89759, Note_on_c, 9, 36, 0
1, 89759, Note_on_c, 9, 42, 0
1, 89760, Note_on_c, 9, 38, 84
1, 89760, Note_on_c, 9, 42, 84
1, 89760, Note_on_c, 9, 54, 106
1, 89999, Note_on_c, 9, 38, 0
1, 89999, Note_on_c, 9, 42, 0
1, 89999, Note_on_c, 9, 54, 0
1, 90000, Note_on_c, 9, 42, 84
1, 90239, Note_on_c, 9, 42, 0
1, 90240, Note_on_c, 9, 42, 84
1, 90240, Note_on_c, 9, 36, 84
1, 90479, Note_on_c, 9, 42, 0
1, 90480, Note_on_c, 9, 42, 84
1, 90719, Note_on_c, 9, 36, 0
1, 90719, Note_on_c, 9, 42, 0
1, 90720, Note_on_c, 9, 38, 84
1, 90720, Note_on_c, 9, 42, 84
1, 90720, Note_on_c, 9, 54, 106
1, 90959, Note_on_c, 9, 38, 0
1, 90959, Note_on_c, 9, 42, 0
1, 90959, Note_on_c, 9, 54, 0
1, 90960, Note_on_c, 9, 42, 84
1, 91199, Note_on_c, 9, 42, 0
1, 91200, Note_on_c, 9, 42, 84
1, 91200, Note_on_c, 9, 36, 84
1, 91439, Note_on_c, 9, 42, 0
1, 91440, Note_on_c, 9, 42, 84
1, 91679, Note_on_c, 9, 36, 0
1, 91679, Note_on_c, 9, 42, 0
1, 91680, Note_on_c, 9, 38, 84
1, 91680, Note_on_c, 9, 42, 84
1, 91680, Note_on_c, 9, 54, 106
1, 91919, Note_on_c, 9, 38, 0
1, 91919, Note_on_c, 9, 42, 0
1, 91919, Note_on_c, 9, 54, 0
1, 91920, Note_on_c, 9, 42, 84
1, 92159, Note_on_c, 9, 42, 0
1, 92160, Note_on_c, 9, 42, 84
1, 92160, Note_on_c, 9, 36, 84
1, 92399, Note_on_c, 9, 42, 0
1, 92400, Note_on_c, 9, 42, 84
1, 92639, Note_on_c, 9, 36, 0
1, 92639, Note_on_c, 9, 42, 0
1, 92640, Note_on_c, 9, 38, 84
1, 92640, Note_on_c, 9, 42, 84
1, 92640, Note_on_c, 9, 54, 106
1, 92879, Note_on_c, 9, 38, 0
1, 92879, Note_on_c, 9, 42, 0
1, 92879, Note_on_c, 9, 54, 0
1, 92880, Note_on_c, 9, 42, 84
1, 93119, Note_on_c, 9, 42, 0
1, 93120, Note_on_c, 9, 42, 84
1, 93120, Note_on_c, 9, 36, 84
1, 93359, Note_on_c, 9, 42, 0
1, 93360, Note_on_c, 9, 42, 84
1, 93599, Note_on_c, 9, 36, 0
1, 93599, Note_on_c, 9, 42, 0
1, 93600, Note_on_c, 9, 38, 84
1, 93600, Note_on_c, 9, 42, 84
1, 93600, Note_on_c, 9, 54, 106
1, 93839, Note_on_c, 9, 38, 0
1, 93839, Note_on_c, 9, 42, 0
1, 93839, Note_on_c, 9, 54, 0
1, 93840, Note_on_c, 9, 42, 84
1, 94079, Note_on_c, 9, 42, 0
1, 94080, Note_on_c, 9, 42, 84
1, 94080, Note_on_c, 9, 36, 84
1, 94319, Note_on_c, 9, 42, 0
1, 94320, Note_on_c, 9, 42, 84
1, 94559, Note_on_c, 9, 36, 0
1, 94559, Note_on_c, 9, 42, 0
1, 94560, Note_on_c, 9, 38, 84
1, 94560, Note_on_c, 9, 42, 84
1, 94560, Note_on_c, 9, 54, 106
1, 94799, Note_on_c, 9, 38, 0
1, 94799, Note_on_c, 9, 42, 0
1, 94799, Note_on_c, 9, 54, 0
1, 94800, Note_on_c, 9, 42, 84
1, 95039, Note_on_c, 9, 42, 0
1, 95040, Note_on_c, 9, 42, 84
1, 95040, Note_on_c, 9, 36, 84
1, 95279, Note_on_c, 9, 42, 0
1, 95280, Note_on_c, 9, 42, 84
1, 95519, Note_on_c, 9, 36, 0
1, 95519, Note_on_c, 9, 42, 0
1, 95520, Note_on_c, 9, 38, 84
1, 95520, Note_on_c, 9, 42, 84
1, 95520, Note_on_c, 9, 54, 106
1, 95759, Note_on_c, 9, 38, 0
1, 95759, Note_on_c, 9, 42, 0
1, 95759, Note_on_c, 9, 54, 0
1, 95760, Note_on_c, 9, 42, 84
1, 95999, Note_on_c, 9, 42, 0
1, 96000, Note_on_c, 9, 42, 84
1, 96000, Note_on_c, 9, 36, 84
1, 96239, Note_on_c, 9, 42, 0
1, 96240, Note_on_c, 9, 42, 84
1, 96479, Note_on_c, 9, 36, 0
1, 96479, Note_on_c, 9, 42, 0
1, 96480, Note_on_c, 9, 38, 84
1, 96480, Note_on_c, 9, 42, 84
1, 96480, Note_on_c, 9, 54, 106
1, 96719, Note_on_c, 9, 38, 0
1, 96719, Note_on_c, 9, 42, 0
1, 96719, Note_on_c, 9, 54, 0
1, 96720, Note_on_c, 9, 42, 84
1, 96959, Note_on_c, 9, 42, 0
1, 96960, Note_on_c, 9, 42, 84
1, 96960, Note_on_c, 9, 36, 84
1, 97199, Note_on_c, 9, 42, 0
1, 97200, Note_on_c, 9, 42, 84
1, 97439, Note_on_c, 9, 36, 0
1, 97439, Note_on_c, 9, 42, 0
1, 97440, Note_on_c, 9, 38, 84
1, 97440, Note_on_c, 9, 42, 84
1, 97440, Note_on_c, 9, 54, 106
1, 97679, Note_on_c, 9, 38, 0
1, 97679, Note_on_c, 9, 42, 0
1, 97679, Note_on_c, 9, 54, 0
1, 97680, Note_on_c, 9, 42, 84
1, 97919, Note_on_c, 9, 42, 0
1, 97920, Note_on_c, 9, 42, 84
1, 97920, Note_on_c, 9, 36, 84
1, 98159, Note_on_c, 9, 42, 0
1, 98160, Note_on_c, 9, 42, 84
1, 98399, Note_on_c, 9, 36, 0
1, 98399, Note_on_c, 9, 42, 0
1, 98400, Note_on_c, 9, 38, 84
1, 98400, Note_on_c, 9, 42, 84
1, 98400, Note_on_c, 9, 54, 106
1, 98639, Note_on_c, 9, 38, 0
1, 98639, Note_on_c, 9, 42, 0
1, 98639, Note_on_c, 9, 54, 0
1, 98640, Note_on_c, 9, 42, 84
1, 98879, Note_on_c, 9, 42, 0
1, 98880, Note_on_c, 9, 42, 84
1, 98880, Note_on_c, 9, 36, 84
1, 99119, Note_on_c, 9, 42, 0
1, 99120, Note_on_c, 9, 42, 84
1, 99359, Note_on_c, 9, 36, 0
1, 99359, Note_on_c, 9, 42, 0
1, 99360, Note_on_c, 9, 38, 84
1, 99360, Note_on_c, 9, 42, 84
1, 99360, Note_on_c, 9, 54, 106
1, 99599, Note_on_c, 9, 38, 0
1, 99599, Note_on_c, 9, 42, 0
1, 99599, Note_on_c, 9, 54, 0
1, 99600, Note_on_c, 9, 42, 84
1, 99839, Note_on_c, 9, 42, 0
1, 99840, Note_on_c, 9, 42, 84
1, 99840, Note_on_c, 9, 36, 84
1, 100079, Note_on_c, 9, 42, 0
1, 100080, Note_on_c, 9, 42, 84
1, 100319, Note_on_c, 9, 36, 0
1, 100319, Note_on_c, 9, 42, 0
1, 100320, Note_on_c, 9, 38, 84
1, 100320, Note_on_c, 9, 42, 84
1, 100320, Note_on_c, 9, 54, 106
1, 100559, Note_on_c, 9, 38, 0
1, 100559, Note_on_c, 9, 42, 0
1, 100559, Note_on_c, 9, 54, 0
1, 100560, Note_on_c, 9, 42, 84
1, 100799, Note_on_c, 9, 42, 0
1, 100800, Note_on_c, 9, 42, 84
1, 100800, Note_on_c, 9, 36, 84
1, 101039, Note_on_c, 9, 42, 0
1, 101040, Note_on_c, 9, 42, 84
1, 101279, Note_on_c, 9, 36, 0
1, 101279, Note_on_c, 9, 42, 0
1, 101280, Note_on_c, 9, 38, 84
1, 101280, Note_on_c, 9, 42, 84
1, 101280, Note_on_c, 9, 54, 106
1, 101519, Note_on_c, 9, 38, 0
1, 101519, Note_on_c, 9, 42, 0
1, 101519, Note_on_c, 9, 54, 0
1, 101520, Note_on_c, 9, 42, 84
1, 101759, Note_on_c, 9, 42, 0
1, 101760, Note_on_c, 9, 42, 84
1, 101760, Note_on_c, 9, 36, 84
1, 101999, Note_on_c, 9, 42, 0
1, 102000, Note_on_c, 9, 42, 84
1, 102239, Note_on_c, 9, 36, 0
1, 102239, Note_on_c, 9, 42, 0
1, 102240, Note_on_c, 9, 38, 84
1, 102240, Note_on_c, 9, 42, 84
1, 102240, Note_on_c, 9, 54, 106
1, 102479, Note_on_c, 9, 38, 0
1, 102479, Note_on_c, 9, 42, 0
1, 102479, Note_on_c, 9, 54, 0
1, 102480, Note_on_c, 9, 42, 84
1, 102719, Note_on_c, 9, 42, 0
1, 102720, Note_on_c, 9, 42, 84
1, 102720, Note_on_c, 9, 36, 84
1, 102959, Note_on_c, 9, 42, 0
1, 102960, Note_on_c, 9, 42, 84
1, 103199, Note_on_c, 9, 36, 0
1, 103199, Note_on_c, 9, 42, 0
1, 103200, Note_on_c, 9, 38, 84
1, 103200, Note_on_c, 9, 42, 84
1, 103200, Note_on_c, 9, 54, 106
1, 103439, Note_on_c, 9, 38, 0
1, 103439, Note_on_c, 9, 42, 0
1, 103439, Note_on_c, 9, 54, 0
1, 103440, Note_on_c, 9, 42, 84
1, 103679, Note_on_c, 9, 42, 0
1, 103680, Note_on_c, 9, 42, 84
1, 103680, Note_on_c, 9, 36, 84
1, 103919, Note_on_c, 9, 42, 0
1, 103920, Note_on_c, 9, 42, 84
1, 104159, Note_on_c, 9, 36, 0
1, 104159, Note_on_c, 9, 42, 0
1, 104160, Note_on_c, 9, 38, 84
1, 104160, Note_on_c, 9, 42, 84
1, 104160, Note_on_c, 9, 54, 106
1, 104399, Note_on_c, 9, 38, 0
1, 104399, Note_on_c, 9, 42, 0
1, 104399, Note_on_c, 9, 54, 0
1, 104400, Note_on_c, 9, 42, 84
1, 104639, Note_on_c, 9, 42, 0
1, 104640, Note_on_c, 9, 42, 84
1, 104640, Note_on_c, 9, 36, 84
1, 104879, Note_on_c, 9, 42, 0
1, 104880, Note_on_c, 9, 42, 84
1, 105119, Note_on_c, 9, 36, 0
1, 105119, Note_on_c, 9, 42, 0
1, 105120, Note_on_c, 9, 38, 84
1, 105120, Note_on_c, 9, 42, 84
1, 105120, Note_on_c, 9, 54, 106
1, 105359, Note_on_c, 9, 38, 0
1, 105359, Note_on_c, 9, 42, 0
1, 105359, Note_on_c, 9, 54, 0
1, 105360, Note_on_c, 9, 42, 84
1, 105599, Note_on_c, 9, 42, 0
1, 105600, Note_on_c, 9, 42, 84
1, 105600, Note_on_c, 9, 36, 84
1, 105839, Note_on_c, 9, 42, 0
1, 105840, Note_on_c, 9, 42, 84
1, 106079, Note_on_c, 9, 36, 0
1, 106079, Note_on_c, 9, 42, 0
1, 106080, Note_on_c, 9, 38, 84
1, 106080, Note_on_c, 9, 42, 84
1, 106080, Note_on_c, 9, 54, 106
1, 106319, Note_on_c, 9, 38, 0
1, 106319, Note_on_c, 9, 42, 0
1, 106319, Note_on_c, 9, 54, 0
1, 106320, Note_on_c, 9, 42, 84
1, 106559, Note_on_c, 9, 42, 0
1, 106560, Note_on_c, 9, 42, 84
1, 106560, Note_on_c, 9, 36, 84
1, 106799, Note_on_c, 9, 42, 0
1, 106800, Note_on_c, 9, 42, 84
1, 107039, Note_on_c, 9, 36, 0
1, 107039, Note_on_c, 9, 42, 0
1, 107040, Note_on_c, 9, 38, 84
1, 107040, Note_on_c, 9, 42, 84
1, 107040, Note_on_c, 9, 54, 106
1, 107279, Note_on_c, 9, 38, 0
1, 107279, Note_on_c, 9, 42, 0
1, 107279, Note_on_c, 9, 54, 0
1, 107280, Note_on_c, 9, 42, 84
1, 107519, Note_on_c, 9, 42, 0
1, 107520, Note_on_c, 9, 42, 84
1, 107520, Note_on_c, 9, 36, 84
1, 107759, Note_on_c, 9, 42, 0
1, 107760, Note_on_c, 9, 42, 84
1, 107999, Note_on_c, 9, 36, 0
1, 107999, Note_on_c, 9, 42, 0
1, 108000, Note_on_c, 9, 38, 84
1, 108000, Note_on_c, 9, 42, 84
1, 108000, Note_on_c, 9, 54, 106
1, 108239, Note_on_c, 9, 38, 0
1, 108239, Note_on_c, 9, 42, 0
1, 108239, Note_on_c, 9, 54, 0
1, 108240, Note_on_c, 9, 42, 84
1, 108479, Note_on_c, 9, 42, 0
1, 108480, Note_on_c, 9, 42, 84
1, 108480, Note_on_c, 9, 36, 84
1, 108959, Note_on_c, 9, 42, 0
1, 108959, Note_on_c, 9, 36, 0
1, 111360, Time_signature, 2, 2, 24, 8
1, 112320, Time_signature, 4, 2, 24, 8
1, 112320, Note_on_c, 9, 42, 84
1, 112320, Note_on_c, 9, 36, 84
1, 112559, Note_on_c, 9, 42, 0
1, 112560, Note_on_c, 9, 42, 84
1, 112799, Note_on_c, 9, 36, 0
1, 112799, Note_on_c, 9, 42, 0
1, 112800, Note_on_c, 9, 38, 84
1, 112800, Note_on_c, 9, 42, 84
1, 112800, Note_on_c, 9, 54, 106
1, 113039, Note_on_c, 9, 38, 0
1, 113039, Note_on_c, 9, 42, 0
1, 113039, Note_on_c, 9, 54, 0
1, 113040, Note_on_c, 9, 42, 84
1, 113279, Note_on_c, 9, 42, 0
1, 113280, Note_on_c, 9, 42, 84
1, 113280, Note_on_c, 9, 36, 84
1, 113519, Note_on_c, 9, 42, 0
1, 113520, Note_on_c, 9, 42, 84
1, 113759, Note_on_c, 9, 36, 0
1, 113759, Note_on_c, 9, 42, 0
1, 113760, Note_on_c, 9, 38, 84
1, 113760, Note_on_c, 9, 42, 84
1, 113760, Note_on_c, 9, 54, 106
1, 113999, Note_on_c, 9, 38, 0
1, 113999, Note_on_c, 9, 42, 0
1, 113999, Note_on_c, 9, 54, 0
1, 114000, Note_on_c, 9, 42, 84
1, 114239, Note_on_c, 9, 42, 0
1, 114240, Note_on_c, 9, 42, 84
1, 114240, Note_on_c, 9, 36, 84
1, 114479, Note_on_c, 9, 42, 0
1, 114480, Note_on_c, 9, 42, 84
1, 114719, Note_on_c, 9, 36, 0
1, 114719, Note_on_c, 9, 42, 0
1, 114720, Note_on_c, 9, 38, 84
1, 114720, Note_on_c, 9, 42, 84
1, 114720, Note_on_c, 9, 54, 106
1, 114959, Note_on_c, 9, 38, 0
1, 114959, Note_on_c, 9, 42, 0
1, 114959, Note_on_c, 9, 54, 0
1, 114960, Note_on_c, 9, 42, 84
1, 115199, Note_on_c, 9, 42, 0
1, 115200, Note_on_c, 9, 42, 84
1, 115200, Note_on_c, 9, 36, 84
1, 115439, Note_on_c, 9, 42, 0
1, 115440, Note_on_c, 9, 42, 84
1, 115679, Note_on_c, 9, 36, 0
1, 115679, Note_on_c, 9, 42, 0
1, 115680, Note_on_c, 9, 38, 84
1, 115680, Note_on_c, 9, 42, 84
1, 115680, Note_on_c, 9, 54, 106
1, 115919, Note_on_c, 9, 38, 0
1, 115919, Note_on_c, 9, 42, 0
1, 115919, Note_on_c, 9, 54, 0
1, 115920, Note_on_c, 9, 42, 84
1, 116159, Note_on_c, 9, 42, 0
1, 116160, Note_on_c, 9, 42, 84
1, 116160, Note_on_c, 9, 36, 84
1, 116399, Note_on_c, 9, 42, 0
1, 116400, Note_on_c, 9, 42, 84
1, 116639, Note_on_c, 9, 36, 0
1, 116639, Note_on_c, 9, 42, 0
1, 116640, Note_on_c, 9, 38, 84
1, 116640, Note_on_c, 9, 42, 84
1, 116640, Note_on_c, 9, 54, 106
1, 116879, Note_on_c, 9, 38, 0
1, 116879, Note_on_c, 9, 42, 0
1, 116879, Note_on_c, 9, 54, 0
1, 116880, Note_on_c, 9, 42, 84
1, 117119, Note_on_c, 9, 42, 0
1, 117120, Note_on_c, 9, 42, 84
1, 117120, Note_on_c, 9, 36, 84
1, 117359, Note_on_c, 9, 42, 0
1, 117360, Note_on_c, 9, 42, 84
1, 117599, Note_on_c, 9, 36, 0
1, 117599, Note_on_c, 9, 42, 0
1, 117600, Note_on_c, 9, 38, 84
1, 117600, Note_on_c, 9, 42, 84
1, 117600, Note_on_c, 9, 54, 106
1, 117839, Note_on_c, 9, 38, 0
1, 117839, Note_on_c, 9, 42, 0
1, 117839, Note_on_c, 9, 54, 0
1, 117840, Note_on_c, 9, 42, 84
1, 118079, Note_on_c, 9, 42, 0
1, 118080, Note_on_c, 9, 42, 84
1, 118080, Note_on_c, 9, 36, 84
1, 118319, Note_on_c, 9, 42, 0
1, 118320, Note_on_c, 9, 42, 84
1, 118559, Note_on_c, 9, 36, 0
1, 118559, Note_on_c, 9, 42, 0
1, 118560, Note_on_c, 9, 38, 84
1, 118560, Note_on_c, 9, 42, 84
1, 118560, Note_on_c, 9, 54, 106
1, 118799, Note_on_c, 9, 38, 0
1, 118799, Note_on_c, 9, 42, 0
1, 118799, Note_on_c, 9, 54, 0
1, 118800, Note_on_c, 9, 42, 84
1, 119039, Note_on_c, 9, 42, 0
1, 119040, Note_on_c, 9, 42, 84
1, 119040, Note_on_c, 9, 36, 84
1, 119519, Note_on_c, 9, 42, 0
1, 119519, Note_on_c, 9, 36, 0
1, 131640, Tempo, 705882
1, 131760, Tempo, 714286
1, 131880, Tempo, 740741
1, 132000, Tempo, 750000
1, 132120, Tempo, 769231
1, 132240, Tempo, 789474
1, 132360, Tempo, 810811
1, 132480, Tempo, 821918
1, 132480, Note_on_c, 9, 42, 84
1, 132480, Note_on_c, 9, 49, 63
1, 132480, Note_on_c, 9, 36, 84
1, 132600, Tempo, 857143
1, 132720, Tempo, 869565
1, 132840, Tempo, 895522
1, 132960, Tempo, 923077
1, 133080, Tempo, 952381
1, 133200, Tempo, 967742
1, 133320, Tempo, 1016949
1, 133440, Tempo, 1034483
1, 133560, Tempo, 1052632
1, 133680, Tempo, 1111111
1, 133800, Tempo, 1132075
1, 133920, Tempo, 1176471
1, 134040, Tempo, 1250000
1, 134160, Tempo, 1276596
1, 134280, Tempo, 1304348
1, 134399, Note_on_c, 9, 42, 0
1, 134399, Note_on_c, 9, 49, 0
1, 134399, Note_on_c, 9, 36, 0
1, 134400, Tempo, 1395349
1, 134520, Tempo, 1428571
1, 134640, Tempo, 1500000
1, 134760, Tempo, 1578947
1, 134880, Tempo, 1666667
1, 135000, Tempo, 1714286
1, 135120, Tempo, 1875000
1, 135240, Tempo, 1935484
1, 135241, End_track
0, 0, End_of_file
