0, 0, Header, 1, 2, 480
1, 0, Start_track
1, 0, Time_signature, 4, 2, 24, 8
1, 0, Key_signature, 0, "major"
1, 0, Tempo, 800000
1, 0, Control_c, 8, 121, 0
1, 0, Program_c, 8, 48
1, 0, Control_c, 8, 7, 100
1, 0, Control_c, 8, 10, 64
1, 0, Control_c, 8, 91, 0
1, 0, Control_c, 8, 93, 0
1, 0, MIDI_port, 0
1, 64800, Note_on_c, 8, 68, 127
1, 65279, Note_on_c, 8, 68, 0
1, 65280, End_track
2, 0, Start_track
2, 0, Key_signature, 0, "major"
2, 0, Control_c, 9, 121, 0
2, 0, Program_c, 9, 0
2, 0, Control_c, 9, 7, 100
2, 0, Control_c, 9, 10, 64
2, 0, Control_c, 9, 91, 0
2, 0, Control_c, 9, 93, 0
2, 0, MIDI_port, 0
2, 1920, Note_on_c, 9, 42, 87
2, 2399, Note_on_c, 9, 42, 0
2, 2400, Note_on_c, 9, 42, 40
2, 2879, Note_on_c, 9, 42, 0
2, 2880, Note_on_c, 9, 42, 31
2, 3359, Note_on_c, 9, 42, 0
2, 3360, Note_on_c, 9, 42, 24
2, 3839, Note_on_c, 9, 42, 0
2, 40800, Note_on_c, 9, 36, 47
2, 41279, Note_on_c, 9, 36, 0
2, 41280, Note_on_c, 9, 44, 105
2, 41759, Note_on_c, 9, 44, 0
2, 41760, Note_on_c, 9, 36, 47
2, 42239, Note_on_c, 9, 36, 0
2, 42240, Note_on_c, 9, 44, 102
2, 42719, Note_on_c, 9, 44, 0
2, 42720, Note_on_c, 9, 36, 47
2, 43199, Note_on_c, 9, 36, 0
2, 43200, Note_on_c, 9, 44, 92
2, 43679, Note_on_c, 9, 44, 0
2, 43680, Note_on_c, 9, 36, 47
2, 44040, Note_on_c, 9, 38, 97
2, 44159, Note_on_c, 9, 36, 0
2, 44159, Note_on_c, 9, 38, 0
2, 44160, Note_on_c, 9, 38, 107
2, 44160, Note_on_c, 9, 44, 107
2, 44279, Note_on_c, 9, 38, 0
2, 44280, Note_on_c, 9, 45, 59
2, 44399, Note_on_c, 9, 44, 0
2, 44400, Note_on_c, 9, 43, 56
2, 44519, Note_on_c, 9, 45, 0
2, 44519, Note_on_c, 9, 43, 0
2, 44520, Note_on_c, 9, 41, 75
2, 44520, Note_on_c, 9, 43, 75
2, 44639, Note_on_c, 9, 41, 0
2, 44639, Note_on_c, 9, 43, 0
2, 44640, Note_on_c, 9, 42, 97
2, 44640, Note_on_c, 9, 49, 72
2, 44640, Note_on_c, 9, 36, 47
2, 44879, Note_on_c, 9, 42, 0
2, 44879, Note_on_c, 9, 49, 0
2, 44880, Note_on_c, 9, 42, 59
2, 45119, Note_on_c, 9, 36, 0
2, 45119, Note_on_c, 9, 42, 0
2, 45120, Note_on_c, 9, 38, 92
2, 45120, Note_on_c, 9, 54, 105
2, 45120, Note_on_c, 9, 42, 92
2, 45359, Note_on_c, 9, 38, 0
2, 45359, Note_on_c, 9, 54, 0
2, 45359, Note_on_c, 9, 42, 0
2, 45360, Note_on_c, 9, 42, 61
2, 45480, Note_on_c, 9, 36, 40
2, 45599, Note_on_c, 9, 42, 0
2, 45599, Note_on_c, 9, 36, 0
2, 45600, Note_on_c, 9, 42, 92
2, 45600, Note_on_c, 9, 36, 47
2, 45839, Note_on_c, 9, 42, 0
2, 45840, Note_on_c, 9, 42, 73
2, 46079, Note_on_c, 9, 36, 0
2, 46079, Note_on_c, 9, 42, 0
2, 46080, Note_on_c, 9, 38, 107
2, 46080, Note_on_c, 9, 54, 107
2, 46080, Note_on_c, 9, 42, 107
2, 46319, Note_on_c, 9, 38, 0
2, 46319, Note_on_c, 9, 54, 0
2, 46319, Note_on_c, 9, 42, 0
2, 46320, Note_on_c, 9, 42, 64
2, 46559, Note_on_c, 9, 42, 0
2, 46560, Note_on_c, 9, 42, 97
2, 46560, Note_on_c, 9, 36, 47
2, 46799, Note_on_c, 9, 42, 0
2, 46800, Note_on_c, 9, 42, 75
2, 47039, Note_on_c, 9, 36, 0
2, 47039, Note_on_c, 9, 42, 0
2, 47040, Note_on_c, 9, 38, 97
2, 47040, Note_on_c, 9, 54, 105
2, 47040, Note_on_c, 9, 42, 97
2, 47279, Note_on_c, 9, 38, 0
2, 47279, Note_on_c, 9, 54, 0
2, 47279, Note_on_c, 9, 42, 0
2, 47280, Note_on_c, 9, 42, 68
2, 47280, Note_on_c, 9, 36, 47
2, 47519, Note_on_c, 9, 42, 0
2, 47519, Note_on_c, 9, 36, 0
2, 47520, Note_on_c, 9, 42, 92
2, 47520, Note_on_c, 9, 36, 47
2, 47759, Note_on_c, 9, 42, 0
2, 47760, Note_on_c, 9, 42, 71
2, 47999, Note_on_c, 9, 36, 0
2, 47999, Note_on_c, 9, 42, 0
2, 48000, Note_on_c, 9, 38, 107
2, 48000, Note_on_c, 9, 54, 107
2, 48000, Note_on_c, 9, 42, 107
2, 48239, Note_on_c, 9, 38, 0
2, 48239, Note_on_c, 9, 54, 0
2, 48239, Note_on_c, 9, 42, 0
2, 48240, Note_on_c, 9, 46, 62
2, 48479, Note_on_c, 9, 46, 0
2, 48480, Note_on_c, 9, 42, 97
2, 48480, Note_on_c, 9, 36, 47
2, 48719, Note_on_c, 9, 42, 0
2, 48720, Note_on_c, 9, 42, 64
2, 48959, Note_on_c, 9, 36, 0
2, 48959, Note_on_c, 9, 42, 0
2, 48960, Note_on_c, 9, 38, 105
2, 48960, Note_on_c, 9, 54, 105
2, 48960, Note_on_c, 9, 42, 105
2, 49199, Note_on_c, 9, 38, 0
2, 49199, Note_on_c, 9, 54, 0
2, 49199, Note_on_c, 9, 42, 0
2, 49200, Note_on_c, 9, 42, 75
2, 49320, Note_on_c, 9, 36, 40
2, 49439, Note_on_c, 9, 42, 0
2, 49439, Note_on_c, 9, 36, 0
2, 49440, Note_on_c, 9, 42, 98
2, 49440, Note_on_c, 9, 36, 47
2, 49679, Note_on_c, 9, 42, 0
2, 49680, Note_on_c, 9, 42, 102
2, 49919, Note_on_c, 9, 36, 0
2, 49919, Note_on_c, 9, 42, 0
2, 49920, Note_on_c, 9, 38, 102
2, 49920, Note_on_c, 9, 54, 102
2, 49920, Note_on_c, 9, 42, 102
2, 50159, Note_on_c, 9, 38, 0
2, 50159, Note_on_c, 9, 54, 0
2, 50159, Note_on_c, 9, 42, 0
2, 50160, Note_on_c, 9, 42, 68
2, 50399, Note_on_c, 9, 42, 0
2, 50400, Note_on_c, 9, 42, 97
2, 50400, Note_on_c, 9, 36, 47
2, 50639, Note_on_c, 9, 42, 0
2, 50640, Note_on_c, 9, 42, 50
2, 50879, Note_on_c, 9, 36, 0
2, 50879, Note_on_c, 9, 42, 0
2, 50880, Note_on_c, 9, 38, 92
2, 50880, Note_on_c, 9, 54, 105
2, 50880, Note_on_c, 9, 42, 92
2, 51119, Note_on_c, 9, 38, 0
2, 51119, Note_on_c, 9, 54, 0
2, 51119, Note_on_c, 9, 42, 0
2, 51120, Note_on_c, 9, 42, 59
2, 51120, Note_on_c, 9, 36, 36
2, 51359, Note_on_c, 9, 42, 0
2, 51359, Note_on_c, 9, 36, 0
2, 51360, Note_on_c, 9, 42, 102
2, 51360, Note_on_c, 9, 36, 47
2, 51599, Note_on_c, 9, 42, 0
2, 51600, Note_on_c, 9, 42, 69
2, 51719, Note_on_c, 9, 42, 0
2, 51720, Note_on_c, 9, 42, 97
2, 51839, Note_on_c, 9, 36, 0
2, 51839, Note_on_c, 9, 42, 0
2, 51840, Note_on_c, 9, 38, 107
2, 51840, Note_on_c, 9, 54, 107
2, 51840, Note_on_c, 9, 42, 107
2, 52079, Note_on_c, 9, 38, 0
2, 52079, Note_on_c, 9, 54, 0
2, 52079, Note_on_c, 9, 42, 0
2, 52080, Note_on_c, 9, 38, 56
2, 52080, Note_on_c, 9, 42, 56
2, 52199, Note_on_c, 9, 38, 0
2, 52199, Note_on_c, 9, 42, 0
2, 52200, Note_on_c, 9, 38, 75
2, 52200, Note_on_c, 9, 42, 75
2, 52319, Note_on_c, 9, 38, 0
2, 52319, Note_on_c, 9, 42, 0
2, 52320, Note_on_c, 9, 42, 97
2, 52320, Note_on_c, 9, 36, 47
2, 52559, Note_on_c, 9, 42, 0
2, 52560, Note_on_c, 9, 42, 59
2, 52799, Note_on_c, 9, 36, 0
2, 52799, Note_on_c, 9, 42, 0
2, 52800, Note_on_c, 9, 38, 92
2, 52800, Note_on_c, 9, 54, 105
2, 52800, Note_on_c, 9, 42, 92
2, 53039, Note_on_c, 9, 38, 0
2, 53039, Note_on_c, 9, 54, 0
2, 53039, Note_on_c, 9, 42, 0
2, 53040, Note_on_c, 9, 42, 61
2, 53160, Note_on_c, 9, 36, 37
2, 53279, Note_on_c, 9, 42, 0
2, 53279, Note_on_c, 9, 36, 0
2, 53280, Note_on_c, 9, 42, 92
2, 53280, Note_on_c, 9, 36, 47
2, 53519, Note_on_c, 9, 42, 0
2, 53520, Note_on_c, 9, 42, 73
2, 53759, Note_on_c, 9, 36, 0
2, 53759, Note_on_c, 9, 42, 0
2, 53760, Note_on_c, 9, 38, 107
2, 53760, Note_on_c, 9, 54, 107
2, 53760, Note_on_c, 9, 42, 107
2, 53999, Note_on_c, 9, 38, 0
2, 53999, Note_on_c, 9, 54, 0
2, 53999, Note_on_c, 9, 42, 0
2, 54000, Note_on_c, 9, 42, 64
2, 54239, Note_on_c, 9, 42, 0
2, 54240, Note_on_c, 9, 42, 97
2, 54240, Note_on_c, 9, 36, 47
2, 54479, Note_on_c, 9, 42, 0
2, 54480, Note_on_c, 9, 42, 75
2, 54719, Note_on_c, 9, 36, 0
2, 54719, Note_on_c, 9, 42, 0
2, 54720, Note_on_c, 9, 38, 97
2, 54720, Note_on_c, 9, 54, 105
2, 54720, Note_on_c, 9, 42, 97
2, 54959, Note_on_c, 9, 38, 0
2, 54959, Note_on_c, 9, 54, 0
2, 54959, Note_on_c, 9, 42, 0
2, 54960, Note_on_c, 9, 42, 68
2, 54960, Note_on_c, 9, 36, 30
2, 55199, Note_on_c, 9, 42, 0
2, 55199, Note_on_c, 9, 36, 0
2, 55200, Note_on_c, 9, 42, 92
2, 55200, Note_on_c, 9, 36, 47
2, 55439, Note_on_c, 9, 42, 0
2, 55440, Note_on_c, 9, 42, 71
2, 55679, Note_on_c, 9, 36, 0
2, 55679, Note_on_c, 9, 42, 0
2, 55680, Note_on_c, 9, 38, 107
2, 55680, Note_on_c, 9, 54, 107
2, 55680, Note_on_c, 9, 42, 107
2, 55919, Note_on_c, 9, 38, 0
2, 55919, Note_on_c, 9, 54, 0
2, 55919, Note_on_c, 9, 42, 0
2, 55920, Note_on_c, 9, 46, 62
2, 56159, Note_on_c, 9, 46, 0
2, 56160, Note_on_c, 9, 42, 97
2, 56160, Note_on_c, 9, 36, 47
2, 56399, Note_on_c, 9, 42, 0
2, 56400, Note_on_c, 9, 42, 64
2, 56639, Note_on_c, 9, 36, 0
2, 56639, Note_on_c, 9, 42, 0
2, 56640, Note_on_c, 9, 38, 105
2, 56640, Note_on_c, 9, 54, 105
2, 56640, Note_on_c, 9, 42, 105
2, 56879, Note_on_c, 9, 38, 0
2, 56879, Note_on_c, 9, 54, 0
2, 56879, Note_on_c, 9, 42, 0
2, 56880, Note_on_c, 9, 42, 75
2, 57000, Note_on_c, 9, 36, 31
2, 57119, Note_on_c, 9, 42, 0
2, 57119, Note_on_c, 9, 36, 0
2, 57120, Note_on_c, 9, 42, 98
2, 57120, Note_on_c, 9, 36, 47
2, 57359, Note_on_c, 9, 42, 0
2, 57360, Note_on_c, 9, 42, 102
2, 57599, Note_on_c, 9, 36, 0
2, 57599, Note_on_c, 9, 42, 0
2, 57600, Note_on_c, 9, 38, 102
2, 57600, Note_on_c, 9, 54, 102
2, 57600, Note_on_c, 9, 42, 102
2, 57839, Note_on_c, 9, 38, 0
2, 57839, Note_on_c, 9, 54, 0
2, 57839, Note_on_c, 9, 42, 0
2, 57840, Note_on_c, 9, 42, 68
2, 58079, Note_on_c, 9, 42, 0
2, 58080, Note_on_c, 9, 42, 97
2, 58080, Note_on_c, 9, 49, 61
2, 58080, Note_on_c, 9, 36, 47
2, 58319, Note_on_c, 9, 42, 0
2, 58319, Note_on_c, 9, 49, 0
2, 58320, Note_on_c, 9, 42, 50
2, 58559, Note_on_c, 9, 36, 0
2, 58559, Note_on_c, 9, 42, 0
2, 58560, Note_on_c, 9, 38, 92
2, 58560, Note_on_c, 9, 42, 92
2, 58560, Note_on_c, 9, 49, 56
2, 58799, Note_on_c, 9, 38, 0
2, 58799, Note_on_c, 9, 42, 0
2, 58799, Note_on_c, 9, 49, 0
2, 58800, Note_on_c, 9, 42, 59
2, 58800, Note_on_c, 9, 36, 31
2, 59039, Note_on_c, 9, 42, 0
2, 59039, Note_on_c, 9, 36, 0
2, 59040, Note_on_c, 9, 42, 102
2, 59040, Note_on_c, 9, 36, 47
2, 59279, Note_on_c, 9, 42, 0
2, 59280, Note_on_c, 9, 42, 69
2, 59519, Note_on_c, 9, 36, 0
2, 59519, Note_on_c, 9, 42, 0
2, 59520, Note_on_c, 9, 38, 107
2, 59520, Note_on_c, 9, 42, 107
2, 59759, Note_on_c, 9, 38, 0
2, 59759, Note_on_c, 9, 42, 0
2, 59760, Note_on_c, 9, 42, 56
2, 59999, Note_on_c, 9, 42, 0
2, 60000, Note_on_c, 9, 42, 89
2, 60000, Note_on_c, 9, 36, 47
2, 60239, Note_on_c, 9, 42, 0
2, 60240, Note_on_c, 9, 42, 73
2, 60479, Note_on_c, 9, 36, 0
2, 60479, Note_on_c, 9, 42, 0
2, 60480, Note_on_c, 9, 38, 104
2, 60480, Note_on_c, 9, 42, 81
2, 60719, Note_on_c, 9, 38, 0
2, 60719, Note_on_c, 9, 42, 0
2, 60720, Note_on_c, 9, 42, 96
2, 60959, Note_on_c, 9, 42, 0
2, 60960, Note_on_c, 9, 42, 96
2, 60960, Note_on_c, 9, 36, 47
2, 61199, Note_on_c, 9, 42, 0
2, 61199, Note_on_c, 9, 36, 0
2, 61200, Note_on_c, 9, 42, 89
2, 61200, Note_on_c, 9, 36, 47
2, 61439, Note_on_c, 9, 42, 0
2, 61439, Note_on_c, 9, 36, 0
2, 61440, Note_on_c, 9, 42, 81
2, 61440, Note_on_c, 9, 49, 57
2, 61440, Note_on_c, 9, 36, 47
2, 61679, Note_on_c, 9, 42, 0
2, 61679, Note_on_c, 9, 49, 0
2, 61680, Note_on_c, 9, 42, 49
2, 61919, Note_on_c, 9, 36, 0
2, 61919, Note_on_c, 9, 42, 0
2, 61920, Note_on_c, 9, 38, 100
2, 61920, Note_on_c, 9, 44, 81
2, 62159, Note_on_c, 9, 38, 0
2, 62160, Note_on_c, 9, 42, 44
2, 62279, Note_on_c, 9, 44, 0
2, 62280, Note_on_c, 9, 36, 32
2, 62399, Note_on_c, 9, 42, 0
2, 62399, Note_on_c, 9, 36, 0
2, 62400, Note_on_c, 9, 42, 81
2, 62400, Note_on_c, 9, 36, 47
2, 62639, Note_on_c, 9, 42, 0
2, 62640, Note_on_c, 9, 42, 54
2, 62879, Note_on_c, 9, 36, 0
2, 62879, Note_on_c, 9, 42, 0
2, 62880, Note_on_c, 9, 38, 107
2, 62880, Note_on_c, 9, 44, 101
2, 63119, Note_on_c, 9, 38, 0
2, 63120, Note_on_c, 9, 42, 46
2, 63359, Note_on_c, 9, 44, 0
2, 63359, Note_on_c, 9, 42, 0
2, 63360, Note_on_c, 9, 42, 81
2, 63360, Note_on_c, 9, 36, 47
2, 63599, Note_on_c, 9, 42, 0
2, 63600, Note_on_c, 9, 42, 81
2, 63839, Note_on_c, 9, 36, 0
2, 63839, Note_on_c, 9, 42, 0
2, 63840, Note_on_c, 9, 38, 104
2, 63840, Note_on_c, 9, 42, 89
2, 63959, Note_on_c, 9, 38, 0
2, 63959, Note_on_c, 9, 42, 0
2, 63960, Note_on_c, 9, 42, 81
2, 64079, Note_on_c, 9, 42, 0
2, 64080, Note_on_c, 9, 46, 73
2, 64080, Note_on_c, 9, 36, 47
2, 64199, Note_on_c, 9, 46, 0
2, 64200, Note_on_c, 9, 42, 54
2, 64319, Note_on_c, 9, 36, 0
2, 64319, Note_on_c, 9, 42, 0
2, 64320, Note_on_c, 9, 38, 104
2, 64559, Note_on_c, 9, 38, 0
2, 64560, Note_on_c, 9, 38, 104
2, 64799, Note_on_c, 9, 38, 0
2, 64800, Note_on_c, 9, 48, 85
2, 64919, Note_on_c, 9, 48, 0
2, 64920, Note_on_c, 9, 47, 56
2, 65039, Note_on_c, 9, 47, 0
2, 65040, Note_on_c, 9, 45, 54
2, 65160, Note_on_c, 9, 36, 34
2, 65160, Note_on_c, 9, 43, 45
2, 65279, Note_on_c, 9, 45, 0
2, 65279, Note_on_c, 9, 36, 0
2, 65279, Note_on_c, 9, 43, 0
2, 65280, Note_on_c, 9, 51, 107
2, 65280, Note_on_c, 9, 49, 83
2, 65280, Note_on_c, 9, 36, 30
2, 65519, Note_on_c, 9, 51, 0
2, 65519, Note_on_c, 9, 49, 0
2, 65520, Note_on_c, 9, 51, 47
2, 65759, Note_on_c, 9, 36, 0
2, 65759, Note_on_c, 9, 51, 0
2, 65760, Note_on_c, 9, 38, 92
2, 65760, Note_on_c, 9, 54, 105
2, 65760, Note_on_c, 9, 51, 107
2, 65999, Note_on_c, 9, 38, 0
2, 65999, Note_on_c, 9, 54, 0
2, 65999, Note_on_c, 9, 51, 0
2, 66000, Note_on_c, 9, 51, 66
2, 66120, Note_on_c, 9, 36, 23
2, 66239, Note_on_c, 9, 51, 0
2, 66239, Note_on_c, 9, 36, 0
2, 66240, Note_on_c, 9, 51, 107
2, 66240, Note_on_c, 9, 36, 30
2, 66479, Note_on_c, 9, 51, 0
2, 66480, Note_on_c, 9, 51, 72
2, 66719, Note_on_c, 9, 36, 0
2, 66719, Note_on_c, 9, 51, 0
2, 66720, Note_on_c, 9, 38, 107
2, 66720, Note_on_c, 9, 54, 107
2, 66720, Note_on_c, 9, 51, 107
2, 66959, Note_on_c, 9, 38, 0
2, 66959, Note_on_c, 9, 54, 0
2, 66959, Note_on_c, 9, 51, 0
2, 66960, Note_on_c, 9, 51, 79
2, 67199, Note_on_c, 9, 51, 0
2, 67200, Note_on_c, 9, 51, 107
2, 67200, Note_on_c, 9, 36, 30
2, 67679, Note_on_c, 9, 51, 0
2, 67679, Note_on_c, 9, 36, 0
2, 67680, Note_on_c, 9, 38, 97
2, 67680, Note_on_c, 9, 54, 105
2, 67680, Note_on_c, 9, 51, 92
2, 67919, Note_on_c, 9, 38, 0
2, 67919, Note_on_c, 9, 54, 0
2, 67919, Note_on_c, 9, 51, 0
2, 67920, Note_on_c, 9, 51, 66
2, 67920, Note_on_c, 9, 36, 30
2, 68159, Note_on_c, 9, 51, 0
2, 68159, Note_on_c, 9, 36, 0
2, 68160, Note_on_c, 9, 51, 92
2, 68160, Note_on_c, 9, 36, 30
2, 68399, Note_on_c, 9, 51, 0
2, 68400, Note_on_c, 9, 51, 68
2, 68639, Note_on_c, 9, 36, 0
2, 68639, Note_on_c, 9, 51, 0
2, 68640, Note_on_c, 9, 38, 107
2, 68640, Note_on_c, 9, 54, 107
2, 68640, Note_on_c, 9, 51, 92
2, 68879, Note_on_c, 9, 38, 0
2, 68879, Note_on_c, 9, 54, 0
2, 68879, Note_on_c, 9, 51, 0
2, 68880, Note_on_c, 9, 51, 83
2, 68999, Note_on_c, 9, 51, 0
2, 69000, Note_on_c, 9, 51, 72
2, 69119, Note_on_c, 9, 51, 0
2, 69120, Note_on_c, 9, 51, 92
2, 69120, Note_on_c, 9, 36, 30
2, 69359, Note_on_c, 9, 51, 0
2, 69360, Note_on_c, 9, 51, 44
2, 69599, Note_on_c, 9, 36, 0
2, 69599, Note_on_c, 9, 51, 0
2, 69600, Note_on_c, 9, 38, 105
2, 69600, Note_on_c, 9, 54, 105
2, 69600, Note_on_c, 9, 51, 107
2, 69959, Note_on_c, 9, 38, 0
2, 69959, Note_on_c, 9, 54, 0
2, 69959, Note_on_c, 9, 51, 0
2, 69960, Note_on_c, 9, 51, 75
2, 69960, Note_on_c, 9, 36, 23
2, 70079, Note_on_c, 9, 51, 0
2, 70079, Note_on_c, 9, 36, 0
2, 70080, Note_on_c, 9, 51, 92
2, 70080, Note_on_c, 9, 36, 30
2, 70319, Note_on_c, 9, 51, 0
2, 70320, Note_on_c, 9, 51, 29
2, 70559, Note_on_c, 9, 36, 0
2, 70559, Note_on_c, 9, 51, 0
2, 70560, Note_on_c, 9, 38, 102
2, 70560, Note_on_c, 9, 54, 102
2, 70560, Note_on_c, 9, 51, 92
2, 71039, Note_on_c, 9, 38, 0
2, 71039, Note_on_c, 9, 54, 0
2, 71039, Note_on_c, 9, 51, 0
2, 71040, Note_on_c, 9, 51, 92
2, 71040, Note_on_c, 9, 36, 30
2, 71279, Note_on_c, 9, 51, 0
2, 71280, Note_on_c, 9, 51, 52
2, 71519, Note_on_c, 9, 36, 0
2, 71519, Note_on_c, 9, 51, 0
2, 71520, Note_on_c, 9, 38, 92
2, 71520, Note_on_c, 9, 54, 105
2, 71520, Note_on_c, 9, 51, 92
2, 71759, Note_on_c, 9, 38, 0
2, 71759, Note_on_c, 9, 54, 0
2, 71759, Note_on_c, 9, 51, 0
2, 71760, Note_on_c, 9, 51, 66
2, 71760, Note_on_c, 9, 36, 19
2, 71999, Note_on_c, 9, 51, 0
2, 71999, Note_on_c, 9, 36, 0
2, 72000, Note_on_c, 9, 51, 92
2, 72000, Note_on_c, 9, 36, 30
2, 72239, Note_on_c, 9, 51, 0
2, 72240, Note_on_c, 9, 51, 66
2, 72479, Note_on_c, 9, 36, 0
2, 72479, Note_on_c, 9, 51, 0
2, 72480, Note_on_c, 9, 38, 107
2, 72480, Note_on_c, 9, 54, 107
2, 72480, Note_on_c, 9, 51, 107
2, 72719, Note_on_c, 9, 38, 0
2, 72719, Note_on_c, 9, 54, 0
2, 72719, Note_on_c, 9, 51, 0
2, 72720, Note_on_c, 9, 38, 56
2, 72720, Note_on_c, 9, 51, 87
2, 72839, Note_on_c, 9, 38, 0
2, 72839, Note_on_c, 9, 51, 0
2, 72840, Note_on_c, 9, 38, 75
2, 72959, Note_on_c, 9, 38, 0
2, 72960, Note_on_c, 9, 51, 107
2, 72960, Note_on_c, 9, 49, 83
2, 72960, Note_on_c, 9, 36, 47
2, 73199, Note_on_c, 9, 51, 0
2, 73199, Note_on_c, 9, 49, 0
2, 73200, Note_on_c, 9, 51, 87
2, 73319, Note_on_c, 9, 51, 0
2, 73320, Note_on_c, 9, 51, 87
2, 73439, Note_on_c, 9, 36, 0
2, 73439, Note_on_c, 9, 51, 0
2, 73440, Note_on_c, 9, 38, 92
2, 73440, Note_on_c, 9, 54, 105
2, 73440, Note_on_c, 9, 51, 107
2, 73679, Note_on_c, 9, 38, 0
2, 73679, Note_on_c, 9, 54, 0
2, 73679, Note_on_c, 9, 51, 0
2, 73680, Note_on_c, 9, 51, 83
2, 73799, Note_on_c, 9, 51, 0
2, 73800, Note_on_c, 9, 51, 83
2, 73800, Note_on_c, 9, 36, 40
2, 73919, Note_on_c, 9, 51, 0
2, 73919, Note_on_c, 9, 36, 0
2, 73920, Note_on_c, 9, 51, 92
2, 73920, Note_on_c, 9, 36, 47
2, 74159, Note_on_c, 9, 51, 0
2, 74160, Note_on_c, 9, 51, 87
2, 74279, Note_on_c, 9, 51, 0
2, 74280, Note_on_c, 9, 51, 92
2, 74399, Note_on_c, 9, 36, 0
2, 74399, Note_on_c, 9, 51, 0
2, 74400, Note_on_c, 9, 38, 107
2, 74400, Note_on_c, 9, 54, 107
2, 74400, Note_on_c, 9, 51, 107
2, 74639, Note_on_c, 9, 38, 0
2, 74639, Note_on_c, 9, 54, 0
2, 74639, Note_on_c, 9, 51, 0
2, 74640, Note_on_c, 9, 51, 87
2, 74759, Note_on_c, 9, 51, 0
2, 74760, Note_on_c, 9, 51, 92
2, 74879, Note_on_c, 9, 51, 0
2, 74880, Note_on_c, 9, 51, 107
2, 74880, Note_on_c, 9, 36, 47
2, 75119, Note_on_c, 9, 51, 0
2, 75120, Note_on_c, 9, 51, 92
2, 75239, Note_on_c, 9, 51, 0
2, 75240, Note_on_c, 9, 51, 87
2, 75359, Note_on_c, 9, 36, 0
2, 75359, Note_on_c, 9, 51, 0
2, 75360, Note_on_c, 9, 38, 97
2, 75360, Note_on_c, 9, 54, 105
2, 75360, Note_on_c, 9, 51, 107
2, 75599, Note_on_c, 9, 38, 0
2, 75599, Note_on_c, 9, 54, 0
2, 75599, Note_on_c, 9, 51, 0
2, 75600, Note_on_c, 9, 51, 107
2, 75600, Note_on_c, 9, 36, 47
2, 75719, Note_on_c, 9, 51, 0
2, 75720, Note_on_c, 9, 51, 79
2, 75839, Note_on_c, 9, 36, 0
2, 75839, Note_on_c, 9, 51, 0
2, 75840, Note_on_c, 9, 51, 92
2, 75840, Note_on_c, 9, 36, 47
2, 76079, Note_on_c, 9, 51, 0
2, 76080, Note_on_c, 9, 51, 107
2, 76319, Note_on_c, 9, 36, 0
2, 76319, Note_on_c, 9, 51, 0
2, 76320, Note_on_c, 9, 38, 107
2, 76320, Note_on_c, 9, 54, 107
2, 76320, Note_on_c, 9, 51, 107
2, 76439, Note_on_c, 9, 38, 0
2, 76439, Note_on_c, 9, 54, 0
2, 76439, Note_on_c, 9, 51, 0
2, 76440, Note_on_c, 9, 51, 68
2, 76559, Note_on_c, 9, 51, 0
2, 76560, Note_on_c, 9, 51, 107
2, 76679, Note_on_c, 9, 51, 0
2, 76680, Note_on_c, 9, 51, 79
2, 76799, Note_on_c, 9, 51, 0
2, 76800, Note_on_c, 9, 51, 87
2, 76800, Note_on_c, 9, 36, 47
2, 77039, Note_on_c, 9, 51, 0
2, 77040, Note_on_c, 9, 51, 92
2, 77159, Note_on_c, 9, 51, 0
2, 77160, Note_on_c, 9, 51, 87
2, 77279, Note_on_c, 9, 36, 0
2, 77279, Note_on_c, 9, 51, 0
2, 77280, Note_on_c, 9, 38, 105
2, 77280, Note_on_c, 9, 54, 105
2, 77280, Note_on_c, 9, 51, 107
2, 77519, Note_on_c, 9, 38, 0
2, 77519, Note_on_c, 9, 54, 0
2, 77519, Note_on_c, 9, 51, 0
2, 77520, Note_on_c, 9, 51, 92
2, 77639, Note_on_c, 9, 51, 0
2, 77640, Note_on_c, 9, 51, 87
2, 77640, Note_on_c, 9, 36, 40
2, 77759, Note_on_c, 9, 51, 0
2, 77759, Note_on_c, 9, 36, 0
2, 77760, Note_on_c, 9, 51, 107
2, 77760, Note_on_c, 9, 36, 47
2, 77999, Note_on_c, 9, 51, 0
2, 78000, Note_on_c, 9, 51, 107
2, 78119, Note_on_c, 9, 51, 0
2, 78120, Note_on_c, 9, 51, 87
2, 78239, Note_on_c, 9, 36, 0
2, 78239, Note_on_c, 9, 51, 0
2, 78240, Note_on_c, 9, 38, 102
2, 78240, Note_on_c, 9, 54, 102
2, 78240, Note_on_c, 9, 51, 107
2, 78479, Note_on_c, 9, 38, 0
2, 78479, Note_on_c, 9, 54, 0
2, 78479, Note_on_c, 9, 51, 0
2, 78480, Note_on_c, 9, 51, 107
2, 78599, Note_on_c, 9, 51, 0
2, 78600, Note_on_c, 9, 51, 79
2, 78719, Note_on_c, 9, 51, 0
2, 78720, Note_on_c, 9, 51, 92
2, 78720, Note_on_c, 9, 36, 47
2, 78959, Note_on_c, 9, 51, 0
2, 78960, Note_on_c, 9, 51, 92
2, 79079, Note_on_c, 9, 51, 0
2, 79080, Note_on_c, 9, 51, 83
2, 79199, Note_on_c, 9, 36, 0
2, 79199, Note_on_c, 9, 51, 0
2, 79200, Note_on_c, 9, 38, 92
2, 79200, Note_on_c, 9, 54, 105
2, 79200, Note_on_c, 9, 51, 92
2, 79439, Note_on_c, 9, 38, 0
2, 79439, Note_on_c, 9, 54, 0
2, 79439, Note_on_c, 9, 51, 0
2, 79440, Note_on_c, 9, 51, 87
2, 79440, Note_on_c, 9, 36, 36
2, 79559, Note_on_c, 9, 51, 0
2, 79560, Note_on_c, 9, 51, 83
2, 79679, Note_on_c, 9, 36, 0
2, 79679, Note_on_c, 9, 51, 0
2, 79680, Note_on_c, 9, 51, 92
2, 79680, Note_on_c, 9, 36, 47
2, 79919, Note_on_c, 9, 51, 0
2, 79920, Note_on_c, 9, 51, 92
2, 80039, Note_on_c, 9, 51, 0
2, 80040, Note_on_c, 9, 51, 87
2, 80159, Note_on_c, 9, 36, 0
2, 80159, Note_on_c, 9, 51, 0
2, 80160, Note_on_c, 9, 38, 107
2, 80160, Note_on_c, 9, 54, 107
2, 80160, Note_on_c, 9, 51, 92
2, 80399, Note_on_c, 9, 38, 0
2, 80399, Note_on_c, 9, 54, 0
2, 80399, Note_on_c, 9, 51, 0
2, 80400, Note_on_c, 9, 38, 56
2, 80400, Note_on_c, 9, 51, 107
2, 80519, Note_on_c, 9, 38, 0
2, 80519, Note_on_c, 9, 51, 0
2, 80520, Note_on_c, 9, 38, 75
2, 80520, Note_on_c, 9, 51, 92
2, 80639, Note_on_c, 9, 38, 0
2, 80639, Note_on_c, 9, 51, 0
2, 80640, Note_on_c, 9, 51, 107
2, 80640, Note_on_c, 9, 49, 83
2, 80640, Note_on_c, 9, 36, 30
2, 80879, Note_on_c, 9, 51, 0
2, 80879, Note_on_c, 9, 49, 0
2, 80880, Note_on_c, 9, 51, 47
2, 81119, Note_on_c, 9, 36, 0
2, 81119, Note_on_c, 9, 51, 0
2, 81120, Note_on_c, 9, 38, 92
2, 81120, Note_on_c, 9, 54, 105
2, 81120, Note_on_c, 9, 51, 107
2, 81359, Note_on_c, 9, 38, 0
2, 81359, Note_on_c, 9, 54, 0
2, 81359, Note_on_c, 9, 51, 0
2, 81360, Note_on_c, 9, 51, 66
2, 81480, Note_on_c, 9, 36, 23
2, 81599, Note_on_c, 9, 51, 0
2, 81599, Note_on_c, 9, 36, 0
2, 81600, Note_on_c, 9, 51, 107
2, 81600, Note_on_c, 9, 36, 30
2, 81839, Note_on_c, 9, 51, 0
2, 81840, Note_on_c, 9, 51, 72
2, 82079, Note_on_c, 9, 36, 0
2, 82079, Note_on_c, 9, 51, 0
2, 82080, Note_on_c, 9, 38, 107
2, 82080, Note_on_c, 9, 54, 107
2, 82080, Note_on_c, 9, 51, 107
2, 82319, Note_on_c, 9, 38, 0
2, 82319, Note_on_c, 9, 54, 0
2, 82319, Note_on_c, 9, 51, 0
2, 82320, Note_on_c, 9, 51, 79
2, 82559, Note_on_c, 9, 51, 0
2, 82560, Note_on_c, 9, 51, 107
2, 82560, Note_on_c, 9, 36, 30
2, 83039, Note_on_c, 9, 51, 0
2, 83039, Note_on_c, 9, 36, 0
2, 83040, Note_on_c, 9, 38, 97
2, 83040, Note_on_c, 9, 54, 105
2, 83040, Note_on_c, 9, 51, 92
2, 83279, Note_on_c, 9, 38, 0
2, 83279, Note_on_c, 9, 54, 0
2, 83279, Note_on_c, 9, 51, 0
2, 83280, Note_on_c, 9, 51, 66
2, 83280, Note_on_c, 9, 36, 30
2, 83519, Note_on_c, 9, 51, 0
2, 83519, Note_on_c, 9, 36, 0
2, 83520, Note_on_c, 9, 51, 92
2, 83520, Note_on_c, 9, 36, 30
2, 83759, Note_on_c, 9, 51, 0
2, 83760, Note_on_c, 9, 51, 68
2, 83999, Note_on_c, 9, 36, 0
2, 83999, Note_on_c, 9, 51, 0
2, 84000, Note_on_c, 9, 38, 107
2, 84000, Note_on_c, 9, 54, 107
2, 84000, Note_on_c, 9, 51, 92
2, 84239, Note_on_c, 9, 38, 0
2, 84239, Note_on_c, 9, 54, 0
2, 84239, Note_on_c, 9, 51, 0
2, 84240, Note_on_c, 9, 51, 83
2, 84359, Note_on_c, 9, 51, 0
2, 84360, Note_on_c, 9, 51, 72
2, 84479, Note_on_c, 9, 51, 0
2, 84480, Note_on_c, 9, 51, 92
2, 84480, Note_on_c, 9, 36, 30
2, 84719, Note_on_c, 9, 51, 0
2, 84720, Note_on_c, 9, 51, 44
2, 84959, Note_on_c, 9, 36, 0
2, 84959, Note_on_c, 9, 51, 0
2, 84960, Note_on_c, 9, 38, 105
2, 84960, Note_on_c, 9, 54, 105
2, 84960, Note_on_c, 9, 51, 107
2, 85319, Note_on_c, 9, 38, 0
2, 85319, Note_on_c, 9, 54, 0
2, 85319, Note_on_c, 9, 51, 0
2, 85320, Note_on_c, 9, 51, 75
2, 85320, Note_on_c, 9, 36, 23
2, 85439, Note_on_c, 9, 51, 0
2, 85439, Note_on_c, 9, 36, 0
2, 85440, Note_on_c, 9, 51, 92
2, 85440, Note_on_c, 9, 36, 30
2, 85679, Note_on_c, 9, 51, 0
2, 85680, Note_on_c, 9, 51, 29
2, 85919, Note_on_c, 9, 36, 0
2, 85919, Note_on_c, 9, 51, 0
2, 85920, Note_on_c, 9, 38, 102
2, 85920, Note_on_c, 9, 54, 102
2, 85920, Note_on_c, 9, 51, 92
2, 86399, Note_on_c, 9, 38, 0
2, 86399, Note_on_c, 9, 54, 0
2, 86399, Note_on_c, 9, 51, 0
2, 86400, Note_on_c, 9, 51, 92
2, 86400, Note_on_c, 9, 36, 30
2, 86639, Note_on_c, 9, 51, 0
2, 86640, Note_on_c, 9, 51, 52
2, 86879, Note_on_c, 9, 36, 0
2, 86879, Note_on_c, 9, 51, 0
2, 86880, Note_on_c, 9, 38, 92
2, 86880, Note_on_c, 9, 54, 105
2, 86880, Note_on_c, 9, 51, 92
2, 87119, Note_on_c, 9, 38, 0
2, 87119, Note_on_c, 9, 54, 0
2, 87119, Note_on_c, 9, 51, 0
2, 87120, Note_on_c, 9, 51, 66
2, 87120, Note_on_c, 9, 36, 19
2, 87359, Note_on_c, 9, 51, 0
2, 87359, Note_on_c, 9, 36, 0
2, 87360, Note_on_c, 9, 51, 92
2, 87360, Note_on_c, 9, 36, 30
2, 87599, Note_on_c, 9, 51, 0
2, 87600, Note_on_c, 9, 51, 66
2, 87839, Note_on_c, 9, 36, 0
2, 87839, Note_on_c, 9, 51, 0
2, 87840, Note_on_c, 9, 38, 107
2, 87840, Note_on_c, 9, 54, 107
2, 87840, Note_on_c, 9, 51, 107
2, 88079, Note_on_c, 9, 38, 0
2, 88079, Note_on_c, 9, 54, 0
2, 88079, Note_on_c, 9, 51, 0
2, 88080, Note_on_c, 9, 38, 56
2, 88080, Note_on_c, 9, 51, 87
2, 88199, Note_on_c, 9, 38, 0
2, 88199, Note_on_c, 9, 51, 0
2, 88200, Note_on_c, 9, 38, 75
2, 88319, Note_on_c, 9, 38, 0
2, 88320, Note_on_c, 9, 51, 92
2, 88320, Note_on_c, 9, 36, 51
2, 88559, Note_on_c, 9, 51, 0
2, 88560, Note_on_c, 9, 51, 68
2, 88679, Note_on_c, 9, 51, 0
2, 88680, Note_on_c, 9, 51, 79
2, 88799, Note_on_c, 9, 36, 0
2, 88799, Note_on_c, 9, 51, 0
2, 88800, Note_on_c, 9, 38, 92
2, 88800, Note_on_c, 9, 54, 105
2, 88800, Note_on_c, 9, 51, 92
2, 89039, Note_on_c, 9, 38, 0
2, 89039, Note_on_c, 9, 54, 0
2, 89039, Note_on_c, 9, 51, 0
2, 89040, Note_on_c, 9, 51, 75
2, 89159, Note_on_c, 9, 51, 0
2, 89160, Note_on_c, 9, 51, 72
2, 89160, Note_on_c, 9, 36, 41
2, 89279, Note_on_c, 9, 51, 0
2, 89279, Note_on_c, 9, 36, 0
2, 89280, Note_on_c, 9, 51, 92
2, 89280, Note_on_c, 9, 36, 51
2, 89519, Note_on_c, 9, 51, 0
2, 89520, Note_on_c, 9, 51, 68
2, 89639, Note_on_c, 9, 51, 0
2, 89640, Note_on_c, 9, 51, 66
2, 89759, Note_on_c, 9, 36, 0
2, 89759, Note_on_c, 9, 51, 0
2, 89760, Note_on_c, 9, 38, 107
2, 89760, Note_on_c, 9, 54, 107
2, 89760, Note_on_c, 9, 51, 107
2, 89999, Note_on_c, 9, 38, 0
2, 89999, Note_on_c, 9, 54, 0
2, 89999, Note_on_c, 9, 51, 0
2, 90000, Note_on_c, 9, 51, 79
2, 90119, Note_on_c, 9, 51, 0
2, 90120, Note_on_c, 9, 51, 75
2, 90239, Note_on_c, 9, 51, 0
2, 90240, Note_on_c, 9, 51, 83
2, 90240, Note_on_c, 9, 36, 51
2, 90479, Note_on_c, 9, 51, 0
2, 90480, Note_on_c, 9, 51, 79
2, 90599, Note_on_c, 9, 51, 0
2, 90600, Note_on_c, 9, 51, 83
2, 90719, Note_on_c, 9, 36, 0
2, 90719, Note_on_c, 9, 51, 0
2, 90720, Note_on_c, 9, 38, 97
2, 90720, Note_on_c, 9, 54, 105
2, 90720, Note_on_c, 9, 51, 92
2, 90959, Note_on_c, 9, 38, 0
2, 90959, Note_on_c, 9, 54, 0
2, 90959, Note_on_c, 9, 51, 0
2, 90960, Note_on_c, 9, 51, 79
2, 90960, Note_on_c, 9, 36, 34
2, 91079, Note_on_c, 9, 51, 0
2, 91080, Note_on_c, 9, 51, 72
2, 91199, Note_on_c, 9, 36, 0
2, 91199, Note_on_c, 9, 51, 0
2, 91200, Note_on_c, 9, 51, 87
2, 91200, Note_on_c, 9, 36, 51
2, 91439, Note_on_c, 9, 51, 0
2, 91440, Note_on_c, 9, 51, 68
2, 91559, Note_on_c, 9, 51, 0
2, 91560, Note_on_c, 9, 51, 79
2, 91679, Note_on_c, 9, 36, 0
2, 91679, Note_on_c, 9, 51, 0
2, 91680, Note_on_c, 9, 38, 107
2, 91680, Note_on_c, 9, 54, 107
2, 91680, Note_on_c, 9, 51, 92
2, 91919, Note_on_c, 9, 38, 0
2, 91919, Note_on_c, 9, 54, 0
2, 91919, Note_on_c, 9, 51, 0
2, 91920, Note_on_c, 9, 46, 62
2, 91920, Note_on_c, 9, 51, 92
2, 92159, Note_on_c, 9, 46, 0
2, 92159, Note_on_c, 9, 51, 0
2, 92160, Note_on_c, 9, 51, 83
2, 92160, Note_on_c, 9, 36, 51
2, 92399, Note_on_c, 9, 51, 0
2, 92400, Note_on_c, 9, 51, 79
2, 92519, Note_on_c, 9, 51, 0
2, 92520, Note_on_c, 9, 51, 79
2, 92639, Note_on_c, 9, 36, 0
2, 92639, Note_on_c, 9, 51, 0
2, 92640, Note_on_c, 9, 38, 105
2, 92640, Note_on_c, 9, 54, 105
2, 92640, Note_on_c, 9, 51, 92
2, 92879, Note_on_c, 9, 38, 0
2, 92879, Note_on_c, 9, 54, 0
2, 92879, Note_on_c, 9, 51, 0
2, 92880, Note_on_c, 9, 51, 79
2, 92999, Note_on_c, 9, 51, 0
2, 93000, Note_on_c, 9, 51, 75
2, 93000, Note_on_c, 9, 36, 35
2, 93119, Note_on_c, 9, 51, 0
2, 93119, Note_on_c, 9, 36, 0
2, 93120, Note_on_c, 9, 51, 92
2, 93120, Note_on_c, 9, 36, 51
2, 93359, Note_on_c, 9, 51, 0
2, 93360, Note_on_c, 9, 51, 72
2, 93479, Note_on_c, 9, 51, 0
2, 93480, Note_on_c, 9, 51, 79
2, 93599, Note_on_c, 9, 36, 0
2, 93599, Note_on_c, 9, 51, 0
2, 93600, Note_on_c, 9, 38, 102
2, 93600, Note_on_c, 9, 54, 102
2, 93600, Note_on_c, 9, 51, 107
2, 93839, Note_on_c, 9, 38, 0
2, 93839, Note_on_c, 9, 54, 0
2, 93839, Note_on_c, 9, 51, 0
2, 93840, Note_on_c, 9, 51, 83
2, 94079, Note_on_c, 9, 51, 0
2, 94080, Note_on_c, 9, 51, 87
2, 94080, Note_on_c, 9, 49, 61
2, 94080, Note_on_c, 9, 36, 51
2, 94319, Note_on_c, 9, 51, 0
2, 94319, Note_on_c, 9, 49, 0
2, 94320, Note_on_c, 9, 51, 79
2, 94559, Note_on_c, 9, 36, 0
2, 94559, Note_on_c, 9, 51, 0
2, 94560, Note_on_c, 9, 38, 92
2, 94560, Note_on_c, 9, 49, 56
2, 94800, Note_on_c, 9, 36, 35
2, 95039, Note_on_c, 9, 38, 0
2, 95039, Note_on_c, 9, 49, 0
2, 95039, Note_on_c, 9, 36, 0
2, 95040, Note_on_c, 9, 36, 51
2, 95519, Note_on_c, 9, 36, 0
2, 95520, Note_on_c, 9, 38, 107
2, 95999, Note_on_c, 9, 38, 0
2, 96000, Note_on_c, 9, 36, 51
2, 96479, Note_on_c, 9, 36, 0
2, 96480, Note_on_c, 9, 38, 104
2, 96719, Note_on_c, 9, 38, 0
2, 96720, Note_on_c, 9, 45, 94
2, 96839, Note_on_c, 9, 45, 0
2, 96840, Note_on_c, 9, 45, 62
2, 96959, Note_on_c, 9, 45, 0
2, 96960, Note_on_c, 9, 36, 51
2, 96960, Note_on_c, 9, 43, 71
2, 97439, Note_on_c, 9, 36, 0
2, 97439, Note_on_c, 9, 43, 0
2, 97440, Note_on_c, 9, 49, 57
2, 97440, Note_on_c, 9, 36, 51
2, 97919, Note_on_c, 9, 49, 0
2, 97919, Note_on_c, 9, 36, 0
2, 97920, End_track
0, 0, End_of_file
