0, 0, Header, 1, 1, 480
1, 0, Start_track
1, 0, Time_signature, 4, 2, 24, 8
1, 0, Key_signature, 0, "major"
1, 0, Tempo, 923077
1, 0, Control_c, 9, 121, 0
1, 0, Program_c, 9, 0
1, 0, Control_c, 9, 7, 100
1, 0, Control_c, 9, 10, 64
1, 0, Control_c, 9, 91, 0
1, 0, Control_c, 9, 93, 0
1, 0, MIDI_port, 0
1, 26400, Note_on_c, 9, 36, 90
1, 26879, Note_on_c, 9, 36, 0
1, 26880, Note_on_c, 9, 36, 75
1, 27359, Note_on_c, 9, 36, 0
1, 27600, Note_on_c, 9, 36, 74
1, 27839, Note_on_c, 9, 36, 0
1, 27840, Note_on_c, 9, 36, 75
1, 28319, Note_on_c, 9, 36, 0
1, 28560, Note_on_c, 9, 36, 74
1, 28799, Note_on_c, 9, 36, 0
1, 28800, Note_on_c, 9, 36, 75
1, 29279, Note_on_c, 9, 36, 0
1, 29520, Note_on_c, 9, 36, 74
1, 29759, Note_on_c, 9, 36, 0
1, 29760, Note_on_c, 9, 36, 75
1, 30239, Note_on_c, 9, 36, 0
1, 30480, Note_on_c, 9, 36, 74
1, 30719, Note_on_c, 9, 36, 0
1, 30720, Note_on_c, 9, 36, 75
1, 31199, Note_on_c, 9, 36, 0
1, 31440, Note_on_c, 9, 36, 74
1, 31679, Note_on_c, 9, 36, 0
1, 31680, Note_on_c, 9, 36, 75
1, 32159, Note_on_c, 9, 36, 0
1, 32400, Note_on_c, 9, 36, 74
1, 32639, Note_on_c, 9, 36, 0
1, 32640, Note_on_c, 9, 36, 75
1, 33119, Note_on_c, 9, 36, 0
1, 33360, Note_on_c, 9, 36, 74
1, 33599, Note_on_c, 9, 36, 0
1, 33600, Note_on_c, 9, 36, 75
1, 33839, Note_on_c, 9, 36, 0
1, 33840, Note_on_c, 9, 36, 90
1, 34079, Note_on_c, 9, 36, 0
1, 34080, Note_on_c, 9, 36, 90
1, 34319, Note_on_c, 9, 36, 0
1, 34320, Note_on_c, 9, 36, 74
1, 34559, Note_on_c, 9, 36, 0
1, 34560, Note_on_c, 9, 36, 75
1, 35039, Note_on_c, 9, 36, 0
1, 35280, Note_on_c, 9, 36, 74
1, 35519, Note_on_c, 9, 36, 0
1, 35520, Note_on_c, 9, 36, 75
1, 35999, Note_on_c, 9, 36, 0
1, 36240, Note_on_c, 9, 36, 74
1, 36479, Note_on_c, 9, 36, 0
1, 36480, Note_on_c, 9, 36, 75
1, 36959, Note_on_c, 9, 36, 0
1, 37200, Note_on_c, 9, 36, 74
1, 37439, Note_on_c, 9, 36, 0
1, 37440, Note_on_c, 9, 36, 75
1, 37919, Note_on_c, 9, 36, 0
1, 38160, Note_on_c, 9, 36, 74
1, 38399, Note_on_c, 9, 36, 0
1, 38400, Note_on_c, 9, 36, 75
1, 38879, Note_on_c, 9, 36, 0
1, 39120, Note_on_c, 9, 36, 74
1, 39359, Note_on_c, 9, 36, 0
1, 39360, Note_on_c, 9, 36, 75
1, 39839, Note_on_c, 9, 36, 0
1, 40080, Note_on_c, 9, 36, 74
1, 40319, Note_on_c, 9, 36, 0
1, 40320, Note_on_c, 9, 36, 75
1, 40799, Note_on_c, 9, 36, 0
1, 41040, Note_on_c, 9, 36, 74
1, 41279, Note_on_c, 9, 36, 0
1, 41280, Note_on_c, 9, 36, 75
1, 41759, Note_on_c, 9, 36, 0
1, 42000, Note_on_c, 9, 36, 74
1, 42239, Note_on_c, 9, 36, 0
1, 42240, Note_on_c, 9, 36, 75
1, 42719, Note_on_c, 9, 36, 0
1, 42960, Note_on_c, 9, 36, 74
1, 43199, Note_on_c, 9, 36, 0
1, 43200, Note_on_c, 9, 36, 75
1, 43679, Note_on_c, 9, 36, 0
1, 43920, Note_on_c, 9, 36, 74
1, 44159, Note_on_c, 9, 36, 0
1, 44160, Note_on_c, 9, 36, 75
1, 44639, Note_on_c, 9, 36, 0
1, 44880, Note_on_c, 9, 36, 74
1, 45119, Note_on_c, 9, 36, 0
1, 45120, Note_on_c, 9, 36, 75
1, 45599, Note_on_c, 9, 36, 0
1, 45840, Note_on_c, 9, 36, 74
1, 46079, Note_on_c, 9, 36, 0
1, 46080, Note_on_c, 9, 36, 75
1, 46559, Note_on_c, 9, 36, 0
1, 46800, Note_on_c, 9, 36, 74
1, 47039, Note_on_c, 9, 36, 0
1, 47040, Note_on_c, 9, 36, 75
1, 47519, Note_on_c, 9, 36, 0
1, 47760, Note_on_c, 9, 36, 74
1, 47999, Note_on_c, 9, 36, 0
1, 48000, Note_on_c, 9, 36, 75
1, 48479, Note_on_c, 9, 36, 0
1, 48720, Note_on_c, 9, 36, 74
1, 48959, Note_on_c, 9, 36, 0
1, 48960, Note_on_c, 9, 36, 75
1, 49439, Note_on_c, 9, 36, 0
1, 49680, Note_on_c, 9, 36, 74
1, 49919, Note_on_c, 9, 36, 0
1, 49920, Note_on_c, 9, 36, 75
1, 50399, Note_on_c, 9, 36, 0
1, 50640, Note_on_c, 9, 36, 74
1, 50879, Note_on_c, 9, 36, 0
1, 50880, Note_on_c, 9, 36, 75
1, 51359, Note_on_c, 9, 36, 0
1, 51600, Note_on_c, 9, 36, 74
1, 51839, Note_on_c, 9, 36, 0
1, 51840, Note_on_c, 9, 36, 75
1, 52319, Note_on_c, 9, 36, 0
1, 52560, Note_on_c, 9, 36, 74
1, 52799, Note_on_c, 9, 36, 0
1, 52800, Note_on_c, 9, 36, 75
1, 53279, Note_on_c, 9, 36, 0
1, 53520, Note_on_c, 9, 36, 74
1, 53759, Note_on_c, 9, 36, 0
1, 53760, Note_on_c, 9, 36, 75
1, 54239, Note_on_c, 9, 36, 0
1, 54480, Note_on_c, 9, 36, 74
1, 54719, Note_on_c, 9, 36, 0
1, 54720, Note_on_c, 9, 36, 75
1, 55199, Note_on_c, 9, 36, 0
1, 55440, Note_on_c, 9, 36, 74
1, 55679, Note_on_c, 9, 36, 0
1, 55680, Note_on_c, 9, 36, 75
1, 56159, Note_on_c, 9, 36, 0
1, 56400, Note_on_c, 9, 36, 74
1, 56639, Note_on_c, 9, 36, 0
1, 56640, Note_on_c, 9, 36, 75
1, 57119, Note_on_c, 9, 36, 0
1, 57360, Note_on_c, 9, 36, 74
1, 57599, Note_on_c, 9, 36, 0
1, 57600, Note_on_c, 9, 36, 75
1, 58079, Note_on_c, 9, 36, 0
1, 58320, Note_on_c, 9, 36, 74
1, 58559, Note_on_c, 9, 36, 0
1, 58560, Note_on_c, 9, 36, 75
1, 59039, Note_on_c, 9, 36, 0
1, 59280, Note_on_c, 9, 36, 74
1, 59519, Note_on_c, 9, 36, 0
1, 59520, Note_on_c, 9, 36, 75
1, 59999, Note_on_c, 9, 36, 0
1, 60240, Note_on_c, 9, 36, 74
1, 60479, Note_on_c, 9, 36, 0
1, 60480, Note_on_c, 9, 36, 75
1, 60719, Note_on_c, 9, 36, 0
1, 60720, Note_on_c, 9, 36, 90
1, 60959, Note_on_c, 9, 36, 0
1, 60960, Note_on_c, 9, 36, 90
1, 61199, Note_on_c, 9, 36, 0
1, 61200, Note_on_c, 9, 36, 74
1, 61439, Note_on_c, 9, 36, 0
1, 61440, Note_on_c, 9, 36, 75
1, 61919, Note_on_c, 9, 36, 0
1, 62160, Note_on_c, 9, 36, 74
1, 62399, Note_on_c, 9, 36, 0
1, 62400, Note_on_c, 9, 36, 75
1, 62879, Note_on_c, 9, 36, 0
1, 63120, Note_on_c, 9, 36, 74
1, 63359, Note_on_c, 9, 36, 0
1, 63360, Note_on_c, 9, 36, 75
1, 63839, Note_on_c, 9, 36, 0
1, 64080, Note_on_c, 9, 36, 74
1, 64319, Note_on_c, 9, 36, 0
1, 64320, Note_on_c, 9, 36, 75
1, 64799, Note_on_c, 9, 36, 0
1, 65040, Note_on_c, 9, 36, 74
1, 65279, Note_on_c, 9, 36, 0
1, 65280, Note_on_c, 9, 36, 75
1, 65759, Note_on_c, 9, 36, 0
1, 66000, Note_on_c, 9, 36, 74
1, 66239, Note_on_c, 9, 36, 0
1, 66240, Note_on_c, 9, 36, 75
1, 66719, Note_on_c, 9, 36, 0
1, 66960, Note_on_c, 9, 36, 74
1, 67199, Note_on_c, 9, 36, 0
1, 67200, Note_on_c, 9, 36, 75
1, 67679, Note_on_c, 9, 36, 0
1, 67920, Note_on_c, 9, 36, 74
1, 68159, Note_on_c, 9, 36, 0
1, 68160, Note_on_c, 9, 36, 75
1, 68399, Note_on_c, 9, 36, 0
1, 68400, Note_on_c, 9, 36, 90
1, 68639, Note_on_c, 9, 36, 0
1, 68640, Note_on_c, 9, 36, 90
1, 68879, Note_on_c, 9, 36, 0
1, 68880, Note_on_c, 9, 36, 74
1, 69119, Note_on_c, 9, 36, 0
1, 69120, Note_on_c, 9, 36, 75
1, 69599, Note_on_c, 9, 36, 0
1, 69840, Note_on_c, 9, 36, 74
1, 70079, Note_on_c, 9, 36, 0
1, 70080, Note_on_c, 9, 36, 75
1, 70559, Note_on_c, 9, 36, 0
1, 70800, Note_on_c, 9, 36, 74
1, 71039, Note_on_c, 9, 36, 0
1, 71040, Note_on_c, 9, 36, 75
1, 71519, Note_on_c, 9, 36, 0
1, 71760, Note_on_c, 9, 36, 74
1, 71999, Note_on_c, 9, 36, 0
1, 72000, Note_on_c, 9, 36, 75
1, 72479, Note_on_c, 9, 36, 0
1, 72720, Note_on_c, 9, 36, 74
1, 72959, Note_on_c, 9, 36, 0
1, 72960, Note_on_c, 9, 36, 75
1, 73439, Note_on_c, 9, 36, 0
1, 73680, Note_on_c, 9, 36, 74
1, 73919, Note_on_c, 9, 36, 0
1, 73920, Note_on_c, 9, 36, 75
1, 74399, Note_on_c, 9, 36, 0
1, 74640, Note_on_c, 9, 36, 74
1, 74879, Note_on_c, 9, 36, 0
1, 74880, Note_on_c, 9, 36, 75
1, 75359, Note_on_c, 9, 36, 0
1, 75600, Note_on_c, 9, 36, 74
1, 75839, Note_on_c, 9, 36, 0
1, 75840, Note_on_c, 9, 36, 75
1, 76079, Note_on_c, 9, 36, 0
1, 76080, Note_on_c, 9, 36, 90
1, 76319, Note_on_c, 9, 36, 0
1, 76320, Note_on_c, 9, 36, 90
1, 76559, Note_on_c, 9, 36, 0
1, 76560, Note_on_c, 9, 36, 74
1, 76799, Note_on_c, 9, 36, 0
1, 76800, Note_on_c, 9, 36, 75
1, 77279, Note_on_c, 9, 36, 0
1, 77520, Note_on_c, 9, 36, 74
1, 77759, Note_on_c, 9, 36, 0
1, 77760, Note_on_c, 9, 36, 75
1, 78239, Note_on_c, 9, 36, 0
1, 78480, Note_on_c, 9, 36, 74
1, 78719, Note_on_c, 9, 36, 0
1, 78720, Note_on_c, 9, 36, 75
1, 79199, Note_on_c, 9, 36, 0
1, 79440, Note_on_c, 9, 36, 74
1, 79679, Note_on_c, 9, 36, 0
1, 79680, Note_on_c, 9, 36, 75
1, 80159, Note_on_c, 9, 36, 0
1, 80400, Note_on_c, 9, 36, 74
1, 80639, Note_on_c, 9, 36, 0
1, 80640, Note_on_c, 9, 36, 75
1, 81119, Note_on_c, 9, 36, 0
1, 81360, Note_on_c, 9, 36, 74
1, 81599, Note_on_c, 9, 36, 0
1, 81600, Note_on_c, 9, 36, 75
1, 82079, Note_on_c, 9, 36, 0
1, 82320, Note_on_c, 9, 36, 74
1, 82559, Note_on_c, 9, 36, 0
1, 82560, Note_on_c, 9, 36, 75
1, 83039, Note_on_c, 9, 36, 0
1, 83280, Note_on_c, 9, 36, 74
1, 83519, Note_on_c, 9, 36, 0
1, 83520, Note_on_c, 9, 36, 75
1, 83999, Note_on_c, 9, 36, 0
1, 84240, Note_on_c, 9, 36, 74
1, 84479, Note_on_c, 9, 36, 0
1, 84480, Note_on_c, 9, 36, 75
1, 84959, Note_on_c, 9, 36, 0
1, 85200, Note_on_c, 9, 36, 74
1, 85439, Note_on_c, 9, 36, 0
1, 85440, Note_on_c, 9, 36, 75
1, 85919, Note_on_c, 9, 36, 0
1, 86160, Note_on_c, 9, 36, 74
1, 86399, Note_on_c, 9, 36, 0
1, 86400, Note_on_c, 9, 36, 75
1, 86879, Note_on_c, 9, 36, 0
1, 87120, Note_on_c, 9, 36, 74
1, 87359, Note_on_c, 9, 36, 0
1, 87360, Note_on_c, 9, 36, 75
1, 87839, Note_on_c, 9, 36, 0
1, 88080, Note_on_c, 9, 36, 74
1, 88319, Note_on_c, 9, 36, 0
1, 88320, Note_on_c, 9, 36, 75
1, 88799, Note_on_c, 9, 36, 0
1, 89040, Note_on_c, 9, 36, 74
1, 89279, Note_on_c, 9, 36, 0
1, 89280, Note_on_c, 9, 36, 75
1, 89759, Note_on_c, 9, 36, 0
1, 90000, Note_on_c, 9, 36, 74
1, 90239, Note_on_c, 9, 36, 0
1, 90240, Note_on_c, 9, 36, 75
1, 90719, Note_on_c, 9, 36, 0
1, 90960, Note_on_c, 9, 36, 74
1, 91199, Note_on_c, 9, 36, 0
1, 91200, Note_on_c, 9, 36, 75
1, 91439, Note_on_c, 9, 36, 0
1, 91440, Note_on_c, 9, 36, 90
1, 91679, Note_on_c, 9, 36, 0
1, 91680, Note_on_c, 9, 36, 90
1, 91919, Note_on_c, 9, 36, 0
1, 91920, Note_on_c, 9, 36, 74
1, 92159, Note_on_c, 9, 36, 0
1, 92160, Note_on_c, 9, 36, 75
1, 92639, Note_on_c, 9, 36, 0
1, 92880, Note_on_c, 9, 36, 74
1, 93119, Note_on_c, 9, 36, 0
1, 93120, Note_on_c, 9, 36, 75
1, 93599, Note_on_c, 9, 36, 0
1, 93840, Note_on_c, 9, 36, 74
1, 94079, Note_on_c, 9, 36, 0
1, 94080, Note_on_c, 9, 36, 75
1, 94559, Note_on_c, 9, 36, 0
1, 94800, Note_on_c, 9, 36, 74
1, 95039, Note_on_c, 9, 36, 0
1, 95040, Note_on_c, 9, 36, 75
1, 95519, Note_on_c, 9, 36, 0
1, 95760, Note_on_c, 9, 36, 74
1, 95999, Note_on_c, 9, 36, 0
1, 96000, Note_on_c, 9, 36, 75
1, 96479, Note_on_c, 9, 36, 0
1, 96720, Note_on_c, 9, 36, 74
1, 96959, Note_on_c, 9, 36, 0
1, 96960, Note_on_c, 9, 36, 75
1, 97439, Note_on_c, 9, 36, 0
1, 97680, Note_on_c, 9, 36, 74
1, 97919, Note_on_c, 9, 36, 0
1, 97920, Note_on_c, 9, 36, 75
1, 98399, Note_on_c, 9, 36, 0
1, 98640, Note_on_c, 9, 36, 74
1, 98879, Note_on_c, 9, 36, 0
1, 98880, Note_on_c, 9, 36, 75
1, 99119, Note_on_c, 9, 36, 0
1, 99120, Note_on_c, 9, 36, 90
1, 99359, Note_on_c, 9, 36, 0
1, 99360, Note_on_c, 9, 36, 90
1, 99599, Note_on_c, 9, 36, 0
1, 99600, Note_on_c, 9, 36, 74
1, 99839, Note_on_c, 9, 36, 0
1, 99840, Note_on_c, 9, 36, 75
1, 100319, Note_on_c, 9, 36, 0
1, 100560, Note_on_c, 9, 36, 74
1, 100799, Note_on_c, 9, 36, 0
1, 100800, Note_on_c, 9, 36, 75
1, 101279, Note_on_c, 9, 36, 0
1, 101520, Note_on_c, 9, 36, 74
1, 101759, Note_on_c, 9, 36, 0
1, 101760, Note_on_c, 9, 36, 75
1, 102239, Note_on_c, 9, 36, 0
1, 102480, Note_on_c, 9, 36, 74
1, 102719, Note_on_c, 9, 36, 0
1, 102720, Note_on_c, 9, 36, 75
1, 103199, Note_on_c, 9, 36, 0
1, 103440, Note_on_c, 9, 36, 74
1, 103679, Note_on_c, 9, 36, 0
1, 103680, Note_on_c, 9, 36, 75
1, 104159, Note_on_c, 9, 36, 0
1, 104400, Note_on_c, 9, 36, 74
1, 104639, Note_on_c, 9, 36, 0
1, 104640, Note_on_c, 9, 36, 75
1, 105119, Note_on_c, 9, 36, 0
1, 105360, Note_on_c, 9, 36, 74
1, 105599, Note_on_c, 9, 36, 0
1, 105600, Note_on_c, 9, 36, 75
1, 106079, Note_on_c, 9, 36, 0
1, 106320, Note_on_c, 9, 36, 74
1, 106559, Note_on_c, 9, 36, 0
1, 106560, Note_on_c, 9, 36, 75
1, 106799, Note_on_c, 9, 36, 0
1, 106800, Note_on_c, 9, 36, 90
1, 107039, Note_on_c, 9, 36, 0
1, 107040, Note_on_c, 9, 36, 90
1, 107279, Note_on_c, 9, 36, 0
1, 107280, Note_on_c, 9, 36, 74
1, 107519, Note_on_c, 9, 36, 0
1, 107520, Note_on_c, 9, 36, 75
1, 107999, Note_on_c, 9, 36, 0
1, 108240, Note_on_c, 9, 36, 74
1, 108479, Note_on_c, 9, 36, 0
1, 108480, Note_on_c, 9, 36, 75
1, 108959, Note_on_c, 9, 36, 0
1, 109200, Note_on_c, 9, 36, 74
1, 109439, Note_on_c, 9, 36, 0
1, 109440, Note_on_c, 9, 36, 75
1, 109919, Note_on_c, 9, 36, 0
1, 110160, Note_on_c, 9, 36, 74
1, 110399, Note_on_c, 9, 36, 0
1, 110400, Note_on_c, 9, 36, 75
1, 110879, Note_on_c, 9, 36, 0
1, 111120, Note_on_c, 9, 36, 74
1, 111359, Note_on_c, 9, 36, 0
1, 111360, Note_on_c, 9, 36, 75
1, 111839, Note_on_c, 9, 36, 0
1, 112080, Note_on_c, 9, 36, 74
1, 112319, Note_on_c, 9, 36, 0
1, 112320, Note_on_c, 9, 36, 75
1, 112799, Note_on_c, 9, 36, 0
1, 113040, Note_on_c, 9, 36, 74
1, 113279, Note_on_c, 9, 36, 0
1, 113280, Note_on_c, 9, 36, 75
1, 113759, Note_on_c, 9, 36, 0
1, 114000, Note_on_c, 9, 36, 74
1, 114239, Note_on_c, 9, 36, 0
1, 114240, Note_on_c, 9, 36, 75
1, 114479, Note_on_c, 9, 36, 0
1, 114480, Note_on_c, 9, 36, 90
1, 114719, Note_on_c, 9, 36, 0
1, 114720, Note_on_c, 9, 36, 90
1, 114959, Note_on_c, 9, 36, 0
1, 114960, Note_on_c, 9, 36, 74
1, 115199, Note_on_c, 9, 36, 0
1, 115200, Note_on_c, 9, 36, 75
1, 115679, Note_on_c, 9, 36, 0
1, 115920, Note_on_c, 9, 36, 74
1, 116159, Note_on_c, 9, 36, 0
1, 116160, Note_on_c, 9, 36, 75
1, 116639, Note_on_c, 9, 36, 0
1, 116880, Note_on_c, 9, 36, 74
1, 117119, Note_on_c, 9, 36, 0
1, 117120, Note_on_c, 9, 36, 75
1, 117599, Note_on_c, 9, 36, 0
1, 117840, Note_on_c, 9, 36, 74
1, 118079, Note_on_c, 9, 36, 0
1, 118080, Note_on_c, 9, 36, 75
1, 118559, Note_on_c, 9, 36, 0
1, 118800, Note_on_c, 9, 36, 74
1, 119039, Note_on_c, 9, 36, 0
1, 119040, Note_on_c, 9, 36, 75
1, 119519, Note_on_c, 9, 36, 0
1, 119760, Note_on_c, 9, 36, 74
1, 119999, Note_on_c, 9, 36, 0
1, 120000, Note_on_c, 9, 36, 75
1, 120479, Note_on_c, 9, 36, 0
1, 120720, Note_on_c, 9, 36, 74
1, 120959, Note_on_c, 9, 36, 0
1, 120960, Note_on_c, 9, 36, 75
1, 121439, Note_on_c, 9, 36, 0
1, 121680, Note_on_c, 9, 36, 74
1, 121919, Note_on_c, 9, 36, 0
1, 121920, Note_on_c, 9, 36, 75
1, 122159, Note_on_c, 9, 36, 0
1, 122160, Note_on_c, 9, 36, 90
1, 122399, Note_on_c, 9, 36, 0
1, 122400, Note_on_c, 9, 36, 90
1, 122639, Note_on_c, 9, 36, 0
1, 122640, Note_on_c, 9, 36, 74
1, 122879, Note_on_c, 9, 36, 0
1, 122880, Note_on_c, 9, 36, 74
1, 123359, Note_on_c, 9, 36, 0
1, 123600, Note_on_c, 9, 36, 69
1, 123839, Note_on_c, 9, 36, 0
1, 123840, Note_on_c, 9, 36, 65
1, 124319, Note_on_c, 9, 36, 0
1, 124560, Note_on_c, 9, 36, 59
1, 124799, Note_on_c, 9, 36, 0
1, 124800, Note_on_c, 9, 36, 58
1, 125279, Note_on_c, 9, 36, 0
1, 125520, Note_on_c, 9, 36, 55
1, 125759, Note_on_c, 9, 36, 0
1, 125760, Note_on_c, 9, 36, 52
1, 126239, Note_on_c, 9, 36, 0
1, 126480, Note_on_c, 9, 36, 49
1, 126719, Note_on_c, 9, 36, 0
1, 126720, Note_on_c, 9, 36, 48
1, 127199, Note_on_c, 9, 36, 0
1, 127440, Note_on_c, 9, 36, 42
1, 127679, Note_on_c, 9, 36, 0
1, 127680, Note_on_c, 9, 36, 41
1, 128159, Note_on_c, 9, 36, 0
1, 128400, Note_on_c, 9, 36, 37
1, 128639, Note_on_c, 9, 36, 0
1, 128640, Note_on_c, 9, 36, 34
1, 129119, Note_on_c, 9, 36, 0
1, 129360, Note_on_c, 9, 36, 31
1, 129599, Note_on_c, 9, 36, 0
1, 129600, Note_on_c, 9, 36, 30
1, 129839, Note_on_c, 9, 36, 0
1, 129840, Note_on_c, 9, 36, 29
1, 130079, Note_on_c, 9, 36, 0
1, 130080, Note_on_c, 9, 36, 28
1, 130319, Note_on_c, 9, 36, 0
1, 130320, Note_on_c, 9, 36, 25
1, 130559, Note_on_c, 9, 36, 0
1, 130560, Note_on_c, 9, 36, 24
1, 131039, Note_on_c, 9, 36, 0
1, 131280, Note_on_c, 9, 36, 21
1, 131519, Note_on_c, 9, 36, 0
1, 131520, Note_on_c, 9, 36, 19
1, 131999, Note_on_c, 9, 36, 0
1, 132240, Note_on_c, 9, 36, 14
1, 132479, Note_on_c, 9, 36, 0
1, 132480, Note_on_c, 9, 36, 13
1, 132959, Note_on_c, 9, 36, 0
1, 133200, Note_on_c, 9, 36, 7
1, 133439, Note_on_c, 9, 36, 0
1, 133440, Note_on_c, 9, 36, 6
1, 133919, Note_on_c, 9, 36, 0
1, 134160, Note_on_c, 9, 36, 6
1, 134399, Note_on_c, 9, 36, 0
1, 134400, Note_on_c, 9, 36, 6
1, 134879, Note_on_c, 9, 36, 0
1, 135120, Note_on_c, 9, 36, 6
1, 135359, Note_on_c, 9, 36, 0
1, 135360, Note_on_c, 9, 36, 6
1, 135839, Note_on_c, 9, 36, 0
1, 136080, Note_on_c, 9, 36, 6
1, 136319, Note_on_c, 9, 36, 0
1, 136320, Note_on_c, 9, 36, 6
1, 136799, Note_on_c, 9, 36, 0
1, 137040, Note_on_c, 9, 36, 1
1, 137279, Note_on_c, 9, 36, 0
1, 137280, Note_on_c, 9, 36, 1
1, 137759, Note_on_c, 9, 36, 0
1, 137760, End_track
0, 0, End_of_file
