0, 0, Header, 1, 2, 480
1, 0, Start_track
1, 0, Time_signature, 4, 2, 24, 8
1, 0, Key_signature, 0, "major"
1, 0, Tempo, 530973
1, 0, Control_c, 9, 121, 0
1, 0, Program_c, 9, 0
1, 0, Control_c, 9, 7, 100
1, 0, Control_c, 9, 10, 64
1, 0, Control_c, 9, 91, 0
1, 0, Control_c, 9, 93, 0
1, 0, MIDI_port, 0
1, 3360, Note_on_c, 9, 41, 86
1, 3360, Note_on_c, 9, 36, 127
1, 3839, Note_on_c, 9, 41, 0
1, 3839, Note_on_c, 9, 36, 0
1, 4560, Note_on_c, 9, 40, 104
1, 4679, Note_on_c, 9, 40, 0
1, 4680, Note_on_c, 9, 40, 115
1, 4799, Note_on_c, 9, 40, 0
1, 5760, Note_on_c, 9, 54, 34
1, 5760, Note_on_c, 9, 42, 86
1, 5760, Note_on_c, 9, 36, 104
1, 5999, Note_on_c, 9, 54, 0
1, 5999, Note_on_c, 9, 42, 0
1, 6000, Note_on_c, 9, 54, 36
1, 6000, Note_on_c, 9, 42, 68
1, 6239, Note_on_c, 9, 36, 0
1, 6239, Note_on_c, 9, 54, 0
1, 6239, Note_on_c, 9, 42, 0
1, 6240, Note_on_c, 9, 40, 115
1, 6240, Note_on_c, 9, 54, 86
1, 6240, Note_on_c, 9, 39, 79
1, 6240, Note_on_c, 9, 42, 79
1, 6479, Note_on_c, 9, 40, 0
1, 6479, Note_on_c, 9, 54, 0
1, 6479, Note_on_c, 9, 39, 0
1, 6479, Note_on_c, 9, 42, 0
1, 6480, Note_on_c, 9, 54, 44
1, 6480, Note_on_c, 9, 42, 59
1, 6480, Note_on_c, 9, 36, 104
1, 6599, Note_on_c, 9, 54, 0
1, 6599, Note_on_c, 9, 42, 0
1, 6600, Note_on_c, 9, 54, 51
1, 6719, Note_on_c, 9, 36, 0
1, 6719, Note_on_c, 9, 54, 0
1, 6720, Note_on_c, 9, 54, 34
1, 6720, Note_on_c, 9, 42, 73
1, 6720, Note_on_c, 9, 36, 115
1, 6959, Note_on_c, 9, 54, 0
1, 6959, Note_on_c, 9, 42, 0
1, 6960, Note_on_c, 9, 54, 32
1, 6960, Note_on_c, 9, 42, 63
1, 7199, Note_on_c, 9, 36, 0
1, 7199, Note_on_c, 9, 54, 0
1, 7199, Note_on_c, 9, 42, 0
1, 7200, Note_on_c, 9, 40, 104
1, 7200, Note_on_c, 9, 54, 86
1, 7200, Note_on_c, 9, 39, 94
1, 7200, Note_on_c, 9, 42, 79
1, 7439, Note_on_c, 9, 40, 0
1, 7439, Note_on_c, 9, 54, 0
1, 7439, Note_on_c, 9, 39, 0
1, 7439, Note_on_c, 9, 42, 0
1, 7440, Note_on_c, 9, 54, 28
1, 7440, Note_on_c, 9, 42, 63
1, 7440, Note_on_c, 9, 36, 115
1, 7679, Note_on_c, 9, 54, 0
1, 7679, Note_on_c, 9, 42, 0
1, 7679, Note_on_c, 9, 36, 0
1, 7680, Note_on_c, 9, 54, 23
1, 7680, Note_on_c, 9, 42, 79
1, 7919, Note_on_c, 9, 54, 0
1, 7919, Note_on_c, 9, 42, 0
1, 7920, Note_on_c, 9, 54, 27
1, 7920, Note_on_c, 9, 42, 63
1, 7920, Note_on_c, 9, 36, 104
1, 8159, Note_on_c, 9, 54, 0
1, 8159, Note_on_c, 9, 42, 0
1, 8159, Note_on_c, 9, 36, 0
1, 8160, Note_on_c, 9, 40, 104
1, 8160, Note_on_c, 9, 54, 79
1, 8160, Note_on_c, 9, 39, 86
1, 8160, Note_on_c, 9, 42, 79
1, 8280, Note_on_c, 9, 36, 104
1, 8399, Note_on_c, 9, 40, 0
1, 8399, Note_on_c, 9, 54, 0
1, 8399, Note_on_c, 9, 39, 0
1, 8399, Note_on_c, 9, 42, 0
1, 8400, Note_on_c, 9, 54, 38
1, 8400, Note_on_c, 9, 42, 32
1, 8519, Note_on_c, 9, 54, 0
1, 8519, Note_on_c, 9, 42, 0
1, 8520, Note_on_c, 9, 54, 13
1, 8639, Note_on_c, 9, 36, 0
1, 8639, Note_on_c, 9, 54, 0
1, 8640, Note_on_c, 9, 54, 38
1, 8640, Note_on_c, 9, 42, 86
1, 8640, Note_on_c, 9, 36, 115
1, 8879, Note_on_c, 9, 54, 0
1, 8879, Note_on_c, 9, 42, 0
1, 8880, Note_on_c, 9, 54, 33
1, 8880, Note_on_c, 9, 42, 47
1, 9119, Note_on_c, 9, 36, 0
1, 9119, Note_on_c, 9, 54, 0
1, 9119, Note_on_c, 9, 42, 0
1, 9120, Note_on_c, 9, 40, 115
1, 9120, Note_on_c, 9, 54, 79
1, 9120, Note_on_c, 9, 39, 79
1, 9120, Note_on_c, 9, 42, 79
1, 9359, Note_on_c, 9, 40, 0
1, 9359, Note_on_c, 9, 54, 0
1, 9359, Note_on_c, 9, 39, 0
1, 9359, Note_on_c, 9, 42, 0
1, 9360, Note_on_c, 9, 54, 26
1, 9360, Note_on_c, 9, 42, 34
1, 9360, Note_on_c, 9, 36, 86
1, 9599, Note_on_c, 9, 54, 0
1, 9599, Note_on_c, 9, 42, 0
1, 9599, Note_on_c, 9, 36, 0
1, 9600, Note_on_c, 9, 54, 25
1, 9600, Note_on_c, 9, 42, 79
1, 9600, Note_on_c, 9, 36, 104
1, 9839, Note_on_c, 9, 54, 0
1, 9839, Note_on_c, 9, 42, 0
1, 9840, Note_on_c, 9, 54, 22
1, 9840, Note_on_c, 9, 42, 51
1, 10079, Note_on_c, 9, 36, 0
1, 10079, Note_on_c, 9, 54, 0
1, 10079, Note_on_c, 9, 42, 0
1, 10080, Note_on_c, 9, 40, 104
1, 10080, Note_on_c, 9, 54, 86
1, 10080, Note_on_c, 9, 39, 86
1, 10080, Note_on_c, 9, 42, 86
1, 10319, Note_on_c, 9, 40, 0
1, 10319, Note_on_c, 9, 54, 0
1, 10319, Note_on_c, 9, 39, 0
1, 10319, Note_on_c, 9, 42, 0
1, 10320, Note_on_c, 9, 54, 33
1, 10320, Note_on_c, 9, 42, 33
1, 10320, Note_on_c, 9, 36, 94
1, 10439, Note_on_c, 9, 54, 0
1, 10439, Note_on_c, 9, 42, 0
1, 10440, Note_on_c, 9, 54, 29
1, 10559, Note_on_c, 9, 36, 0
1, 10559, Note_on_c, 9, 54, 0
1, 10560, Note_on_c, 9, 54, 33
1, 10560, Note_on_c, 9, 42, 68
1, 10560, Note_on_c, 9, 36, 104
1, 10799, Note_on_c, 9, 54, 0
1, 10799, Note_on_c, 9, 42, 0
1, 10800, Note_on_c, 9, 54, 23
1, 10800, Note_on_c, 9, 42, 31
1, 11039, Note_on_c, 9, 36, 0
1, 11039, Note_on_c, 9, 54, 0
1, 11039, Note_on_c, 9, 42, 0
1, 11040, Note_on_c, 9, 40, 104
1, 11040, Note_on_c, 9, 54, 86
1, 11040, Note_on_c, 9, 39, 86
1, 11040, Note_on_c, 9, 42, 79
1, 11279, Note_on_c, 9, 40, 0
1, 11279, Note_on_c, 9, 54, 0
1, 11279, Note_on_c, 9, 39, 0
1, 11279, Note_on_c, 9, 42, 0
1, 11280, Note_on_c, 9, 54, 25
1, 11280, Note_on_c, 9, 42, 47
1, 11280, Note_on_c, 9, 36, 104
1, 11519, Note_on_c, 9, 54, 0
1, 11519, Note_on_c, 9, 42, 0
1, 11519, Note_on_c, 9, 36, 0
1, 11520, Note_on_c, 9, 54, 27
1, 11520, Note_on_c, 9, 42, 79
1, 11759, Note_on_c, 9, 54, 0
1, 11759, Note_on_c, 9, 42, 0
1, 11760, Note_on_c, 9, 54, 24
1, 11760, Note_on_c, 9, 42, 68
1, 11760, Note_on_c, 9, 36, 104
1, 11999, Note_on_c, 9, 54, 0
1, 11999, Note_on_c, 9, 42, 0
1, 11999, Note_on_c, 9, 36, 0
1, 12000, Note_on_c, 9, 40, 115
1, 12000, Note_on_c, 9, 54, 86
1, 12000, Note_on_c, 9, 39, 86
1, 12000, Note_on_c, 9, 42, 68
1, 12120, Note_on_c, 9, 36, 104
1, 12239, Note_on_c, 9, 40, 0
1, 12239, Note_on_c, 9, 54, 0
1, 12239, Note_on_c, 9, 39, 0
1, 12239, Note_on_c, 9, 42, 0
1, 12240, Note_on_c, 9, 54, 30
1, 12240, Note_on_c, 9, 42, 36
1, 12359, Note_on_c, 9, 54, 0
1, 12359, Note_on_c, 9, 42, 0
1, 12360, Note_on_c, 9, 54, 29
1, 12479, Note_on_c, 9, 36, 0
1, 12479, Note_on_c, 9, 54, 0
1, 12480, Note_on_c, 9, 54, 30
1, 12480, Note_on_c, 9, 42, 73
1, 12480, Note_on_c, 9, 36, 104
1, 12719, Note_on_c, 9, 54, 0
1, 12719, Note_on_c, 9, 42, 0
1, 12720, Note_on_c, 9, 54, 26
1, 12720, Note_on_c, 9, 42, 55
1, 12959, Note_on_c, 9, 36, 0
1, 12959, Note_on_c, 9, 54, 0
1, 12959, Note_on_c, 9, 42, 0
1, 12960, Note_on_c, 9, 40, 104
1, 12960, Note_on_c, 9, 54, 86
1, 12960, Note_on_c, 9, 39, 94
1, 12960, Note_on_c, 9, 42, 79
1, 13199, Note_on_c, 9, 40, 0
1, 13199, Note_on_c, 9, 54, 0
1, 13199, Note_on_c, 9, 39, 0
1, 13199, Note_on_c, 9, 42, 0
1, 13200, Note_on_c, 9, 54, 29
1, 13200, Note_on_c, 9, 46, 68
1, 13200, Note_on_c, 9, 36, 86
1, 13439, Note_on_c, 9, 54, 0
1, 13439, Note_on_c, 9, 46, 0
1, 13439, Note_on_c, 9, 36, 0
1, 13440, Note_on_c, 9, 54, 34
1, 13440, Note_on_c, 9, 42, 86
1, 13440, Note_on_c, 9, 36, 104
1, 13679, Note_on_c, 9, 54, 0
1, 13679, Note_on_c, 9, 42, 0
1, 13680, Note_on_c, 9, 54, 36
1, 13680, Note_on_c, 9, 42, 68
1, 13919, Note_on_c, 9, 36, 0
1, 13919, Note_on_c, 9, 54, 0
1, 13919, Note_on_c, 9, 42, 0
1, 13920, Note_on_c, 9, 40, 115
1, 13920, Note_on_c, 9, 54, 86
1, 13920, Note_on_c, 9, 39, 79
1, 13920, Note_on_c, 9, 42, 79
1, 14159, Note_on_c, 9, 40, 0
1, 14159, Note_on_c, 9, 54, 0
1, 14159, Note_on_c, 9, 39, 0
1, 14159, Note_on_c, 9, 42, 0
1, 14160, Note_on_c, 9, 54, 44
1, 14160, Note_on_c, 9, 42, 59
1, 14160, Note_on_c, 9, 36, 104
1, 14279, Note_on_c, 9, 54, 0
1, 14279, Note_on_c, 9, 42, 0
1, 14280, Note_on_c, 9, 54, 51
1, 14399, Note_on_c, 9, 36, 0
1, 14399, Note_on_c, 9, 54, 0
1, 14400, Note_on_c, 9, 54, 34
1, 14400, Note_on_c, 9, 42, 73
1, 14400, Note_on_c, 9, 36, 115
1, 14639, Note_on_c, 9, 54, 0
1, 14639, Note_on_c, 9, 42, 0
1, 14640, Note_on_c, 9, 54, 32
1, 14640, Note_on_c, 9, 42, 63
1, 14879, Note_on_c, 9, 36, 0
1, 14879, Note_on_c, 9, 54, 0
1, 14879, Note_on_c, 9, 42, 0
1, 14880, Note_on_c, 9, 40, 104
1, 14880, Note_on_c, 9, 54, 86
1, 14880, Note_on_c, 9, 39, 94
1, 14880, Note_on_c, 9, 42, 79
1, 15119, Note_on_c, 9, 40, 0
1, 15119, Note_on_c, 9, 54, 0
1, 15119, Note_on_c, 9, 39, 0
1, 15119, Note_on_c, 9, 42, 0
1, 15120, Note_on_c, 9, 54, 28
1, 15120, Note_on_c, 9, 42, 63
1, 15120, Note_on_c, 9, 36, 115
1, 15359, Note_on_c, 9, 54, 0
1, 15359, Note_on_c, 9, 42, 0
1, 15359, Note_on_c, 9, 36, 0
1, 15360, Note_on_c, 9, 54, 23
1, 15360, Note_on_c, 9, 42, 79
1, 15599, Note_on_c, 9, 54, 0
1, 15599, Note_on_c, 9, 42, 0
1, 15600, Note_on_c, 9, 54, 27
1, 15600, Note_on_c, 9, 42, 63
1, 15600, Note_on_c, 9, 36, 104
1, 15839, Note_on_c, 9, 54, 0
1, 15839, Note_on_c, 9, 42, 0
1, 15839, Note_on_c, 9, 36, 0
1, 15840, Note_on_c, 9, 40, 104
1, 15840, Note_on_c, 9, 54, 79
1, 15840, Note_on_c, 9, 39, 86
1, 15840, Note_on_c, 9, 42, 79
1, 15960, Note_on_c, 9, 36, 104
1, 16079, Note_on_c, 9, 40, 0
1, 16079, Note_on_c, 9, 54, 0
1, 16079, Note_on_c, 9, 39, 0
1, 16079, Note_on_c, 9, 42, 0
1, 16080, Note_on_c, 9, 54, 38
1, 16080, Note_on_c, 9, 42, 32
1, 16199, Note_on_c, 9, 54, 0
1, 16199, Note_on_c, 9, 42, 0
1, 16200, Note_on_c, 9, 54, 13
1, 16319, Note_on_c, 9, 36, 0
1, 16319, Note_on_c, 9, 54, 0
1, 16320, Note_on_c, 9, 54, 38
1, 16320, Note_on_c, 9, 42, 86
1, 16320, Note_on_c, 9, 36, 115
1, 16559, Note_on_c, 9, 54, 0
1, 16559, Note_on_c, 9, 42, 0
1, 16560, Note_on_c, 9, 54, 33
1, 16560, Note_on_c, 9, 42, 47
1, 16799, Note_on_c, 9, 36, 0
1, 16799, Note_on_c, 9, 54, 0
1, 16799, Note_on_c, 9, 42, 0
1, 16800, Note_on_c, 9, 40, 115
1, 16800, Note_on_c, 9, 54, 79
1, 16800, Note_on_c, 9, 39, 79
1, 16800, Note_on_c, 9, 42, 79
1, 17039, Note_on_c, 9, 40, 0
1, 17039, Note_on_c, 9, 54, 0
1, 17039, Note_on_c, 9, 39, 0
1, 17039, Note_on_c, 9, 42, 0
1, 17040, Note_on_c, 9, 54, 26
1, 17040, Note_on_c, 9, 42, 34
1, 17040, Note_on_c, 9, 36, 86
1, 17279, Note_on_c, 9, 54, 0
1, 17279, Note_on_c, 9, 42, 0
1, 17279, Note_on_c, 9, 36, 0
1, 17280, Note_on_c, 9, 54, 25
1, 17280, Note_on_c, 9, 42, 79
1, 17280, Note_on_c, 9, 36, 104
1, 17519, Note_on_c, 9, 54, 0
1, 17519, Note_on_c, 9, 42, 0
1, 17520, Note_on_c, 9, 54, 22
1, 17520, Note_on_c, 9, 42, 51
1, 17759, Note_on_c, 9, 36, 0
1, 17759, Note_on_c, 9, 54, 0
1, 17759, Note_on_c, 9, 42, 0
1, 17760, Note_on_c, 9, 40, 104
1, 17760, Note_on_c, 9, 54, 86
1, 17760, Note_on_c, 9, 39, 86
1, 17760, Note_on_c, 9, 42, 86
1, 17999, Note_on_c, 9, 40, 0
1, 17999, Note_on_c, 9, 54, 0
1, 17999, Note_on_c, 9, 39, 0
1, 17999, Note_on_c, 9, 42, 0
1, 18000, Note_on_c, 9, 54, 33
1, 18000, Note_on_c, 9, 42, 33
1, 18000, Note_on_c, 9, 36, 94
1, 18119, Note_on_c, 9, 54, 0
1, 18119, Note_on_c, 9, 42, 0
1, 18120, Note_on_c, 9, 54, 29
1, 18239, Note_on_c, 9, 36, 0
1, 18239, Note_on_c, 9, 54, 0
1, 18240, Note_on_c, 9, 54, 33
1, 18240, Note_on_c, 9, 42, 68
1, 18240, Note_on_c, 9, 36, 104
1, 18479, Note_on_c, 9, 54, 0
1, 18479, Note_on_c, 9, 42, 0
1, 18480, Note_on_c, 9, 54, 23
1, 18480, Note_on_c, 9, 42, 31
1, 18719, Note_on_c, 9, 36, 0
1, 18719, Note_on_c, 9, 54, 0
1, 18719, Note_on_c, 9, 42, 0
1, 18720, Note_on_c, 9, 40, 104
1, 18720, Note_on_c, 9, 54, 86
1, 18720, Note_on_c, 9, 39, 86
1, 18720, Note_on_c, 9, 42, 79
1, 18959, Note_on_c, 9, 40, 0
1, 18959, Note_on_c, 9, 54, 0
1, 18959, Note_on_c, 9, 39, 0
1, 18959, Note_on_c, 9, 42, 0
1, 18960, Note_on_c, 9, 54, 25
1, 18960, Note_on_c, 9, 42, 47
1, 18960, Note_on_c, 9, 36, 104
1, 19199, Note_on_c, 9, 54, 0
1, 19199, Note_on_c, 9, 42, 0
1, 19199, Note_on_c, 9, 36, 0
1, 19200, Note_on_c, 9, 54, 27
1, 19200, Note_on_c, 9, 42, 79
1, 19439, Note_on_c, 9, 54, 0
1, 19439, Note_on_c, 9, 42, 0
1, 19440, Note_on_c, 9, 54, 24
1, 19440, Note_on_c, 9, 42, 68
1, 19440, Note_on_c, 9, 36, 104
1, 19679, Note_on_c, 9, 54, 0
1, 19679, Note_on_c, 9, 42, 0
1, 19679, Note_on_c, 9, 36, 0
1, 19680, Note_on_c, 9, 40, 115
1, 19680, Note_on_c, 9, 54, 86
1, 19680, Note_on_c, 9, 39, 86
1, 19680, Note_on_c, 9, 42, 68
1, 19800, Note_on_c, 9, 36, 104
1, 19919, Note_on_c, 9, 40, 0
1, 19919, Note_on_c, 9, 54, 0
1, 19919, Note_on_c, 9, 39, 0
1, 19919, Note_on_c, 9, 42, 0
1, 19920, Note_on_c, 9, 54, 30
1, 19920, Note_on_c, 9, 42, 36
1, 20039, Note_on_c, 9, 54, 0
1, 20039, Note_on_c, 9, 42, 0
1, 20040, Note_on_c, 9, 54, 29
1, 20159, Note_on_c, 9, 36, 0
1, 20159, Note_on_c, 9, 54, 0
1, 20160, Note_on_c, 9, 54, 30
1, 20160, Note_on_c, 9, 42, 73
1, 20160, Note_on_c, 9, 36, 104
1, 20399, Note_on_c, 9, 54, 0
1, 20399, Note_on_c, 9, 42, 0
1, 20400, Note_on_c, 9, 54, 26
1, 20400, Note_on_c, 9, 42, 55
1, 20639, Note_on_c, 9, 36, 0
1, 20639, Note_on_c, 9, 54, 0
1, 20639, Note_on_c, 9, 42, 0
1, 20640, Note_on_c, 9, 40, 104
1, 20640, Note_on_c, 9, 54, 86
1, 20640, Note_on_c, 9, 39, 94
1, 20640, Note_on_c, 9, 42, 79
1, 20879, Note_on_c, 9, 40, 0
1, 20879, Note_on_c, 9, 54, 0
1, 20879, Note_on_c, 9, 39, 0
1, 20879, Note_on_c, 9, 42, 0
1, 20880, Note_on_c, 9, 54, 29
1, 20880, Note_on_c, 9, 42, 68
1, 20880, Note_on_c, 9, 36, 86
1, 21119, Note_on_c, 9, 54, 0
1, 21119, Note_on_c, 9, 42, 0
1, 21119, Note_on_c, 9, 36, 0
1, 21120, Note_on_c, 9, 54, 34
1, 21120, Note_on_c, 9, 42, 86
1, 21120, Note_on_c, 9, 36, 104
1, 21359, Note_on_c, 9, 54, 0
1, 21359, Note_on_c, 9, 42, 0
1, 21360, Note_on_c, 9, 54, 36
1, 21360, Note_on_c, 9, 42, 68
1, 21599, Note_on_c, 9, 36, 0
1, 21599, Note_on_c, 9, 54, 0
1, 21599, Note_on_c, 9, 42, 0
1, 21600, Note_on_c, 9, 40, 115
1, 21600, Note_on_c, 9, 54, 86
1, 21600, Note_on_c, 9, 39, 79
1, 21600, Note_on_c, 9, 42, 79
1, 21839, Note_on_c, 9, 40, 0
1, 21839, Note_on_c, 9, 54, 0
1, 21839, Note_on_c, 9, 39, 0
1, 21839, Note_on_c, 9, 42, 0
1, 21840, Note_on_c, 9, 54, 44
1, 21840, Note_on_c, 9, 42, 59
1, 21840, Note_on_c, 9, 36, 104
1, 21959, Note_on_c, 9, 54, 0
1, 21959, Note_on_c, 9, 42, 0
1, 21960, Note_on_c, 9, 54, 51
1, 22079, Note_on_c, 9, 36, 0
1, 22079, Note_on_c, 9, 54, 0
1, 22080, Note_on_c, 9, 54, 34
1, 22080, Note_on_c, 9, 42, 73
1, 22080, Note_on_c, 9, 36, 115
1, 22319, Note_on_c, 9, 54, 0
1, 22319, Note_on_c, 9, 42, 0
1, 22320, Note_on_c, 9, 54, 32
1, 22320, Note_on_c, 9, 42, 63
1, 22559, Note_on_c, 9, 36, 0
1, 22559, Note_on_c, 9, 54, 0
1, 22559, Note_on_c, 9, 42, 0
1, 22560, Note_on_c, 9, 40, 104
1, 22560, Note_on_c, 9, 54, 86
1, 22560, Note_on_c, 9, 39, 94
1, 22560, Note_on_c, 9, 42, 79
1, 22799, Note_on_c, 9, 40, 0
1, 22799, Note_on_c, 9, 54, 0
1, 22799, Note_on_c, 9, 39, 0
1, 22799, Note_on_c, 9, 42, 0
1, 22800, Note_on_c, 9, 54, 28
1, 22800, Note_on_c, 9, 42, 63
1, 22800, Note_on_c, 9, 36, 115
1, 23039, Note_on_c, 9, 54, 0
1, 23039, Note_on_c, 9, 42, 0
1, 23039, Note_on_c, 9, 36, 0
1, 23040, Note_on_c, 9, 54, 23
1, 23040, Note_on_c, 9, 42, 79
1, 23279, Note_on_c, 9, 54, 0
1, 23279, Note_on_c, 9, 42, 0
1, 23280, Note_on_c, 9, 54, 27
1, 23280, Note_on_c, 9, 42, 63
1, 23280, Note_on_c, 9, 36, 104
1, 23519, Note_on_c, 9, 54, 0
1, 23519, Note_on_c, 9, 42, 0
1, 23519, Note_on_c, 9, 36, 0
1, 23520, Note_on_c, 9, 40, 104
1, 23520, Note_on_c, 9, 54, 79
1, 23520, Note_on_c, 9, 39, 86
1, 23520, Note_on_c, 9, 42, 79
1, 23640, Note_on_c, 9, 36, 104
1, 23759, Note_on_c, 9, 40, 0
1, 23759, Note_on_c, 9, 54, 0
1, 23759, Note_on_c, 9, 39, 0
1, 23759, Note_on_c, 9, 42, 0
1, 23760, Note_on_c, 9, 54, 38
1, 23760, Note_on_c, 9, 42, 32
1, 23879, Note_on_c, 9, 54, 0
1, 23879, Note_on_c, 9, 42, 0
1, 23880, Note_on_c, 9, 54, 13
1, 23999, Note_on_c, 9, 36, 0
1, 23999, Note_on_c, 9, 54, 0
1, 24000, Note_on_c, 9, 54, 38
1, 24000, Note_on_c, 9, 42, 86
1, 24000, Note_on_c, 9, 36, 115
1, 24239, Note_on_c, 9, 54, 0
1, 24239, Note_on_c, 9, 42, 0
1, 24240, Note_on_c, 9, 54, 33
1, 24240, Note_on_c, 9, 42, 47
1, 24479, Note_on_c, 9, 36, 0
1, 24479, Note_on_c, 9, 54, 0
1, 24479, Note_on_c, 9, 42, 0
1, 24480, Note_on_c, 9, 40, 115
1, 24480, Note_on_c, 9, 54, 79
1, 24480, Note_on_c, 9, 39, 79
1, 24480, Note_on_c, 9, 42, 79
1, 24719, Note_on_c, 9, 40, 0
1, 24719, Note_on_c, 9, 54, 0
1, 24719, Note_on_c, 9, 39, 0
1, 24719, Note_on_c, 9, 42, 0
1, 24720, Note_on_c, 9, 54, 26
1, 24720, Note_on_c, 9, 42, 34
1, 24720, Note_on_c, 9, 36, 86
1, 24959, Note_on_c, 9, 54, 0
1, 24959, Note_on_c, 9, 42, 0
1, 24959, Note_on_c, 9, 36, 0
1, 24960, Note_on_c, 9, 54, 25
1, 24960, Note_on_c, 9, 42, 79
1, 24960, Note_on_c, 9, 36, 104
1, 25199, Note_on_c, 9, 54, 0
1, 25199, Note_on_c, 9, 42, 0
1, 25200, Note_on_c, 9, 54, 22
1, 25200, Note_on_c, 9, 42, 51
1, 25439, Note_on_c, 9, 36, 0
1, 25439, Note_on_c, 9, 54, 0
1, 25439, Note_on_c, 9, 42, 0
1, 25440, Note_on_c, 9, 40, 104
1, 25440, Note_on_c, 9, 54, 86
1, 25440, Note_on_c, 9, 39, 86
1, 25440, Note_on_c, 9, 42, 86
1, 25679, Note_on_c, 9, 40, 0
1, 25679, Note_on_c, 9, 54, 0
1, 25679, Note_on_c, 9, 39, 0
1, 25679, Note_on_c, 9, 42, 0
1, 25680, Note_on_c, 9, 54, 33
1, 25680, Note_on_c, 9, 42, 33
1, 25680, Note_on_c, 9, 36, 94
1, 25799, Note_on_c, 9, 54, 0
1, 25799, Note_on_c, 9, 42, 0
1, 25800, Note_on_c, 9, 54, 29
1, 25919, Note_on_c, 9, 36, 0
1, 25919, Note_on_c, 9, 54, 0
1, 25920, Note_on_c, 9, 54, 33
1, 25920, Note_on_c, 9, 42, 68
1, 25920, Note_on_c, 9, 36, 104
1, 26159, Note_on_c, 9, 54, 0
1, 26159, Note_on_c, 9, 42, 0
1, 26160, Note_on_c, 9, 54, 23
1, 26160, Note_on_c, 9, 42, 31
1, 26399, Note_on_c, 9, 36, 0
1, 26399, Note_on_c, 9, 54, 0
1, 26399, Note_on_c, 9, 42, 0
1, 26400, Note_on_c, 9, 40, 104
1, 26400, Note_on_c, 9, 54, 86
1, 26400, Note_on_c, 9, 39, 86
1, 26400, Note_on_c, 9, 42, 79
1, 26639, Note_on_c, 9, 40, 0
1, 26639, Note_on_c, 9, 54, 0
1, 26639, Note_on_c, 9, 39, 0
1, 26639, Note_on_c, 9, 42, 0
1, 26640, Note_on_c, 9, 54, 25
1, 26640, Note_on_c, 9, 42, 47
1, 26640, Note_on_c, 9, 36, 104
1, 26879, Note_on_c, 9, 54, 0
1, 26879, Note_on_c, 9, 42, 0
1, 26879, Note_on_c, 9, 36, 0
1, 26880, Note_on_c, 9, 54, 27
1, 26880, Note_on_c, 9, 42, 79
1, 27119, Note_on_c, 9, 54, 0
1, 27119, Note_on_c, 9, 42, 0
1, 27120, Note_on_c, 9, 54, 24
1, 27120, Note_on_c, 9, 42, 68
1, 27120, Note_on_c, 9, 36, 104
1, 27359, Note_on_c, 9, 54, 0
1, 27359, Note_on_c, 9, 42, 0
1, 27359, Note_on_c, 9, 36, 0
1, 27360, Note_on_c, 9, 40, 115
1, 27360, Note_on_c, 9, 54, 86
1, 27360, Note_on_c, 9, 39, 86
1, 27360, Note_on_c, 9, 42, 68
1, 27480, Note_on_c, 9, 36, 104
1, 27599, Note_on_c, 9, 40, 0
1, 27599, Note_on_c, 9, 54, 0
1, 27599, Note_on_c, 9, 39, 0
1, 27599, Note_on_c, 9, 42, 0
1, 27600, Note_on_c, 9, 54, 30
1, 27600, Note_on_c, 9, 42, 36
1, 27719, Note_on_c, 9, 54, 0
1, 27719, Note_on_c, 9, 42, 0
1, 27720, Note_on_c, 9, 54, 29
1, 27839, Note_on_c, 9, 36, 0
1, 27839, Note_on_c, 9, 54, 0
1, 27840, Note_on_c, 9, 54, 30
1, 27840, Note_on_c, 9, 42, 73
1, 27840, Note_on_c, 9, 36, 104
1, 28079, Note_on_c, 9, 54, 0
1, 28079, Note_on_c, 9, 42, 0
1, 28080, Note_on_c, 9, 54, 26
1, 28080, Note_on_c, 9, 42, 55
1, 28319, Note_on_c, 9, 36, 0
1, 28319, Note_on_c, 9, 54, 0
1, 28319, Note_on_c, 9, 42, 0
1, 28320, Note_on_c, 9, 40, 104
1, 28320, Note_on_c, 9, 54, 86
1, 28320, Note_on_c, 9, 39, 94
1, 28320, Note_on_c, 9, 42, 79
1, 28559, Note_on_c, 9, 40, 0
1, 28559, Note_on_c, 9, 54, 0
1, 28559, Note_on_c, 9, 39, 0
1, 28559, Note_on_c, 9, 42, 0
1, 28560, Note_on_c, 9, 54, 29
1, 28560, Note_on_c, 9, 46, 68
1, 28560, Note_on_c, 9, 36, 86
1, 28799, Note_on_c, 9, 54, 0
1, 28799, Note_on_c, 9, 46, 0
1, 28799, Note_on_c, 9, 36, 0
1, 28800, Note_on_c, 9, 54, 34
1, 28800, Note_on_c, 9, 42, 86
1, 28800, Note_on_c, 9, 36, 104
1, 29039, Note_on_c, 9, 54, 0
1, 29039, Note_on_c, 9, 42, 0
1, 29040, Note_on_c, 9, 54, 36
1, 29040, Note_on_c, 9, 42, 68
1, 29279, Note_on_c, 9, 36, 0
1, 29279, Note_on_c, 9, 54, 0
1, 29279, Note_on_c, 9, 42, 0
1, 29280, Note_on_c, 9, 40, 115
1, 29280, Note_on_c, 9, 54, 86
1, 29280, Note_on_c, 9, 39, 79
1, 29280, Note_on_c, 9, 42, 79
1, 29519, Note_on_c, 9, 40, 0
1, 29519, Note_on_c, 9, 54, 0
1, 29519, Note_on_c, 9, 39, 0
1, 29519, Note_on_c, 9, 42, 0
1, 29520, Note_on_c, 9, 54, 44
1, 29520, Note_on_c, 9, 42, 59
1, 29520, Note_on_c, 9, 36, 104
1, 29639, Note_on_c, 9, 54, 0
1, 29639, Note_on_c, 9, 42, 0
1, 29640, Note_on_c, 9, 54, 51
1, 29759, Note_on_c, 9, 36, 0
1, 29759, Note_on_c, 9, 54, 0
1, 29760, Note_on_c, 9, 54, 34
1, 29760, Note_on_c, 9, 42, 73
1, 29760, Note_on_c, 9, 36, 115
1, 29999, Note_on_c, 9, 54, 0
1, 29999, Note_on_c, 9, 42, 0
1, 30000, Note_on_c, 9, 54, 32
1, 30000, Note_on_c, 9, 42, 63
1, 30239, Note_on_c, 9, 36, 0
1, 30239, Note_on_c, 9, 54, 0
1, 30239, Note_on_c, 9, 42, 0
1, 30240, Note_on_c, 9, 40, 104
1, 30240, Note_on_c, 9, 54, 86
1, 30240, Note_on_c, 9, 39, 94
1, 30240, Note_on_c, 9, 42, 79
1, 30479, Note_on_c, 9, 40, 0
1, 30479, Note_on_c, 9, 54, 0
1, 30479, Note_on_c, 9, 39, 0
1, 30479, Note_on_c, 9, 42, 0
1, 30480, Note_on_c, 9, 54, 28
1, 30480, Note_on_c, 9, 42, 63
1, 30480, Note_on_c, 9, 36, 115
1, 30719, Note_on_c, 9, 54, 0
1, 30719, Note_on_c, 9, 42, 0
1, 30719, Note_on_c, 9, 36, 0
1, 30720, Note_on_c, 9, 54, 23
1, 30720, Note_on_c, 9, 42, 79
1, 30959, Note_on_c, 9, 54, 0
1, 30959, Note_on_c, 9, 42, 0
1, 30960, Note_on_c, 9, 54, 27
1, 30960, Note_on_c, 9, 42, 63
1, 30960, Note_on_c, 9, 36, 104
1, 31199, Note_on_c, 9, 54, 0
1, 31199, Note_on_c, 9, 42, 0
1, 31199, Note_on_c, 9, 36, 0
1, 31200, Note_on_c, 9, 40, 104
1, 31200, Note_on_c, 9, 54, 79
1, 31200, Note_on_c, 9, 39, 86
1, 31200, Note_on_c, 9, 42, 79
1, 31320, Note_on_c, 9, 36, 104
1, 31439, Note_on_c, 9, 40, 0
1, 31439, Note_on_c, 9, 54, 0
1, 31439, Note_on_c, 9, 39, 0
1, 31439, Note_on_c, 9, 42, 0
1, 31440, Note_on_c, 9, 54, 38
1, 31440, Note_on_c, 9, 42, 32
1, 31559, Note_on_c, 9, 54, 0
1, 31559, Note_on_c, 9, 42, 0
1, 31560, Note_on_c, 9, 54, 13
1, 31679, Note_on_c, 9, 36, 0
1, 31679, Note_on_c, 9, 54, 0
1, 31680, Note_on_c, 9, 54, 38
1, 31680, Note_on_c, 9, 42, 86
1, 31680, Note_on_c, 9, 36, 115
1, 31919, Note_on_c, 9, 54, 0
1, 31919, Note_on_c, 9, 42, 0
1, 31920, Note_on_c, 9, 54, 33
1, 31920, Note_on_c, 9, 42, 47
1, 32159, Note_on_c, 9, 36, 0
1, 32159, Note_on_c, 9, 54, 0
1, 32159, Note_on_c, 9, 42, 0
1, 32160, Note_on_c, 9, 40, 115
1, 32160, Note_on_c, 9, 54, 79
1, 32160, Note_on_c, 9, 39, 79
1, 32160, Note_on_c, 9, 42, 79
1, 32399, Note_on_c, 9, 40, 0
1, 32399, Note_on_c, 9, 54, 0
1, 32399, Note_on_c, 9, 39, 0
1, 32399, Note_on_c, 9, 42, 0
1, 32400, Note_on_c, 9, 54, 26
1, 32400, Note_on_c, 9, 42, 34
1, 32400, Note_on_c, 9, 36, 86
1, 32639, Note_on_c, 9, 54, 0
1, 32639, Note_on_c, 9, 42, 0
1, 32639, Note_on_c, 9, 36, 0
1, 32640, Note_on_c, 9, 54, 25
1, 32640, Note_on_c, 9, 42, 79
1, 32640, Note_on_c, 9, 36, 104
1, 32879, Note_on_c, 9, 54, 0
1, 32879, Note_on_c, 9, 42, 0
1, 32880, Note_on_c, 9, 54, 22
1, 32880, Note_on_c, 9, 42, 51
1, 33119, Note_on_c, 9, 36, 0
1, 33119, Note_on_c, 9, 54, 0
1, 33119, Note_on_c, 9, 42, 0
1, 33120, Note_on_c, 9, 40, 104
1, 33120, Note_on_c, 9, 54, 86
1, 33120, Note_on_c, 9, 39, 86
1, 33120, Note_on_c, 9, 42, 86
1, 33359, Note_on_c, 9, 40, 0
1, 33359, Note_on_c, 9, 54, 0
1, 33359, Note_on_c, 9, 39, 0
1, 33359, Note_on_c, 9, 42, 0
1, 33360, Note_on_c, 9, 54, 33
1, 33360, Note_on_c, 9, 42, 33
1, 33360, Note_on_c, 9, 36, 94
1, 33479, Note_on_c, 9, 54, 0
1, 33479, Note_on_c, 9, 42, 0
1, 33480, Note_on_c, 9, 54, 29
1, 33599, Note_on_c, 9, 36, 0
1, 33599, Note_on_c, 9, 54, 0
1, 33600, Note_on_c, 9, 54, 33
1, 33600, Note_on_c, 9, 42, 68
1, 33600, Note_on_c, 9, 36, 104
1, 33839, Note_on_c, 9, 54, 0
1, 33839, Note_on_c, 9, 42, 0
1, 33840, Note_on_c, 9, 54, 23
1, 33840, Note_on_c, 9, 42, 31
1, 34079, Note_on_c, 9, 36, 0
1, 34079, Note_on_c, 9, 54, 0
1, 34079, Note_on_c, 9, 42, 0
1, 34080, Note_on_c, 9, 40, 104
1, 34080, Note_on_c, 9, 54, 86
1, 34080, Note_on_c, 9, 39, 86
1, 34080, Note_on_c, 9, 42, 79
1, 34319, Note_on_c, 9, 40, 0
1, 34319, Note_on_c, 9, 54, 0
1, 34319, Note_on_c, 9, 39, 0
1, 34319, Note_on_c, 9, 42, 0
1, 34320, Note_on_c, 9, 54, 25
1, 34320, Note_on_c, 9, 42, 47
1, 34320, Note_on_c, 9, 36, 104
1, 34559, Note_on_c, 9, 54, 0
1, 34559, Note_on_c, 9, 42, 0
1, 34559, Note_on_c, 9, 36, 0
1, 34560, Note_on_c, 9, 54, 27
1, 34560, Note_on_c, 9, 42, 79
1, 34799, Note_on_c, 9, 54, 0
1, 34799, Note_on_c, 9, 42, 0
1, 34800, Note_on_c, 9, 54, 24
1, 34800, Note_on_c, 9, 42, 68
1, 34800, Note_on_c, 9, 36, 104
1, 35039, Note_on_c, 9, 54, 0
1, 35039, Note_on_c, 9, 42, 0
1, 35039, Note_on_c, 9, 36, 0
1, 35040, Note_on_c, 9, 40, 115
1, 35040, Note_on_c, 9, 54, 86
1, 35040, Note_on_c, 9, 39, 86
1, 35040, Note_on_c, 9, 42, 68
1, 35160, Note_on_c, 9, 36, 104
1, 35279, Note_on_c, 9, 40, 0
1, 35279, Note_on_c, 9, 54, 0
1, 35279, Note_on_c, 9, 39, 0
1, 35279, Note_on_c, 9, 42, 0
1, 35280, Note_on_c, 9, 54, 30
1, 35280, Note_on_c, 9, 42, 36
1, 35399, Note_on_c, 9, 54, 0
1, 35399, Note_on_c, 9, 42, 0
1, 35400, Note_on_c, 9, 54, 29
1, 35519, Note_on_c, 9, 36, 0
1, 35519, Note_on_c, 9, 54, 0
1, 35520, Note_on_c, 9, 54, 30
1, 35520, Note_on_c, 9, 42, 73
1, 35520, Note_on_c, 9, 36, 104
1, 35759, Note_on_c, 9, 54, 0
1, 35759, Note_on_c, 9, 42, 0
1, 35760, Note_on_c, 9, 54, 26
1, 35760, Note_on_c, 9, 42, 55
1, 35999, Note_on_c, 9, 36, 0
1, 35999, Note_on_c, 9, 54, 0
1, 35999, Note_on_c, 9, 42, 0
1, 36000, Note_on_c, 9, 40, 104
1, 36000, Note_on_c, 9, 54, 86
1, 36000, Note_on_c, 9, 39, 94
1, 36000, Note_on_c, 9, 42, 79
1, 36239, Note_on_c, 9, 40, 0
1, 36239, Note_on_c, 9, 54, 0
1, 36239, Note_on_c, 9, 39, 0
1, 36239, Note_on_c, 9, 42, 0
1, 36240, Note_on_c, 9, 54, 29
1, 36240, Note_on_c, 9, 42, 68
1, 36240, Note_on_c, 9, 36, 86
1, 36479, Note_on_c, 9, 54, 0
1, 36479, Note_on_c, 9, 42, 0
1, 36479, Note_on_c, 9, 36, 0
1, 36480, Note_on_c, 9, 54, 34
1, 36480, Note_on_c, 9, 42, 86
1, 36480, Note_on_c, 9, 36, 104
1, 36719, Note_on_c, 9, 54, 0
1, 36719, Note_on_c, 9, 42, 0
1, 36720, Note_on_c, 9, 54, 36
1, 36720, Note_on_c, 9, 42, 68
1, 36959, Note_on_c, 9, 36, 0
1, 36959, Note_on_c, 9, 54, 0
1, 36959, Note_on_c, 9, 42, 0
1, 36960, Note_on_c, 9, 40, 115
1, 36960, Note_on_c, 9, 54, 86
1, 36960, Note_on_c, 9, 39, 79
1, 36960, Note_on_c, 9, 42, 79
1, 37199, Note_on_c, 9, 40, 0
1, 37199, Note_on_c, 9, 54, 0
1, 37199, Note_on_c, 9, 39, 0
1, 37199, Note_on_c, 9, 42, 0
1, 37200, Note_on_c, 9, 54, 44
1, 37200, Note_on_c, 9, 42, 59
1, 37200, Note_on_c, 9, 36, 104
1, 37319, Note_on_c, 9, 54, 0
1, 37319, Note_on_c, 9, 42, 0
1, 37320, Note_on_c, 9, 54, 51
1, 37439, Note_on_c, 9, 36, 0
1, 37439, Note_on_c, 9, 54, 0
1, 37440, Note_on_c, 9, 54, 34
1, 37440, Note_on_c, 9, 42, 73
1, 37440, Note_on_c, 9, 36, 115
1, 37679, Note_on_c, 9, 54, 0
1, 37679, Note_on_c, 9, 42, 0
1, 37680, Note_on_c, 9, 54, 32
1, 37680, Note_on_c, 9, 42, 63
1, 37919, Note_on_c, 9, 36, 0
1, 37919, Note_on_c, 9, 54, 0
1, 37919, Note_on_c, 9, 42, 0
1, 37920, Note_on_c, 9, 40, 104
1, 37920, Note_on_c, 9, 54, 86
1, 37920, Note_on_c, 9, 39, 94
1, 37920, Note_on_c, 9, 42, 79
1, 38159, Note_on_c, 9, 40, 0
1, 38159, Note_on_c, 9, 54, 0
1, 38159, Note_on_c, 9, 39, 0
1, 38159, Note_on_c, 9, 42, 0
1, 38160, Note_on_c, 9, 54, 28
1, 38160, Note_on_c, 9, 42, 63
1, 38160, Note_on_c, 9, 36, 115
1, 38399, Note_on_c, 9, 54, 0
1, 38399, Note_on_c, 9, 42, 0
1, 38399, Note_on_c, 9, 36, 0
1, 38400, Note_on_c, 9, 54, 23
1, 38400, Note_on_c, 9, 42, 79
1, 38639, Note_on_c, 9, 54, 0
1, 38639, Note_on_c, 9, 42, 0
1, 38640, Note_on_c, 9, 54, 27
1, 38640, Note_on_c, 9, 42, 63
1, 38640, Note_on_c, 9, 36, 104
1, 38879, Note_on_c, 9, 54, 0
1, 38879, Note_on_c, 9, 42, 0
1, 38879, Note_on_c, 9, 36, 0
1, 38880, Note_on_c, 9, 40, 104
1, 38880, Note_on_c, 9, 54, 79
1, 38880, Note_on_c, 9, 39, 86
1, 38880, Note_on_c, 9, 42, 79
1, 39000, Note_on_c, 9, 36, 104
1, 39119, Note_on_c, 9, 40, 0
1, 39119, Note_on_c, 9, 54, 0
1, 39119, Note_on_c, 9, 39, 0
1, 39119, Note_on_c, 9, 42, 0
1, 39120, Note_on_c, 9, 54, 38
1, 39120, Note_on_c, 9, 42, 32
1, 39239, Note_on_c, 9, 54, 0
1, 39239, Note_on_c, 9, 42, 0
1, 39240, Note_on_c, 9, 54, 13
1, 39359, Note_on_c, 9, 36, 0
1, 39359, Note_on_c, 9, 54, 0
1, 39360, Note_on_c, 9, 54, 38
1, 39360, Note_on_c, 9, 42, 86
1, 39360, Note_on_c, 9, 36, 115
1, 39599, Note_on_c, 9, 54, 0
1, 39599, Note_on_c, 9, 42, 0
1, 39600, Note_on_c, 9, 54, 33
1, 39600, Note_on_c, 9, 42, 47
1, 39839, Note_on_c, 9, 36, 0
1, 39839, Note_on_c, 9, 54, 0
1, 39839, Note_on_c, 9, 42, 0
1, 39840, Note_on_c, 9, 40, 115
1, 39840, Note_on_c, 9, 54, 79
1, 39840, Note_on_c, 9, 39, 79
1, 39840, Note_on_c, 9, 42, 79
1, 40079, Note_on_c, 9, 40, 0
1, 40079, Note_on_c, 9, 54, 0
1, 40079, Note_on_c, 9, 39, 0
1, 40079, Note_on_c, 9, 42, 0
1, 40080, Note_on_c, 9, 54, 26
1, 40080, Note_on_c, 9, 42, 34
1, 40080, Note_on_c, 9, 36, 86
1, 40319, Note_on_c, 9, 54, 0
1, 40319, Note_on_c, 9, 42, 0
1, 40319, Note_on_c, 9, 36, 0
1, 40320, Note_on_c, 9, 54, 25
1, 40320, Note_on_c, 9, 42, 79
1, 40320, Note_on_c, 9, 36, 104
1, 40559, Note_on_c, 9, 54, 0
1, 40559, Note_on_c, 9, 42, 0
1, 40560, Note_on_c, 9, 54, 22
1, 40560, Note_on_c, 9, 42, 51
1, 40799, Note_on_c, 9, 36, 0
1, 40799, Note_on_c, 9, 54, 0
1, 40799, Note_on_c, 9, 42, 0
1, 40800, Note_on_c, 9, 40, 104
1, 40800, Note_on_c, 9, 54, 86
1, 40800, Note_on_c, 9, 39, 86
1, 40800, Note_on_c, 9, 42, 86
1, 41039, Note_on_c, 9, 40, 0
1, 41039, Note_on_c, 9, 54, 0
1, 41039, Note_on_c, 9, 39, 0
1, 41039, Note_on_c, 9, 42, 0
1, 41040, Note_on_c, 9, 54, 33
1, 41040, Note_on_c, 9, 42, 33
1, 41040, Note_on_c, 9, 36, 94
1, 41159, Note_on_c, 9, 54, 0
1, 41159, Note_on_c, 9, 42, 0
1, 41160, Note_on_c, 9, 54, 29
1, 41279, Note_on_c, 9, 36, 0
1, 41279, Note_on_c, 9, 54, 0
1, 41280, Note_on_c, 9, 54, 33
1, 41280, Note_on_c, 9, 42, 68
1, 41280, Note_on_c, 9, 36, 104
1, 41519, Note_on_c, 9, 54, 0
1, 41519, Note_on_c, 9, 42, 0
1, 41520, Note_on_c, 9, 54, 23
1, 41520, Note_on_c, 9, 42, 31
1, 41759, Note_on_c, 9, 36, 0
1, 41759, Note_on_c, 9, 54, 0
1, 41759, Note_on_c, 9, 42, 0
1, 41760, Note_on_c, 9, 40, 104
1, 41760, Note_on_c, 9, 54, 86
1, 41760, Note_on_c, 9, 39, 86
1, 41760, Note_on_c, 9, 42, 79
1, 41999, Note_on_c, 9, 40, 0
1, 41999, Note_on_c, 9, 54, 0
1, 41999, Note_on_c, 9, 39, 0
1, 41999, Note_on_c, 9, 42, 0
1, 42000, Note_on_c, 9, 54, 25
1, 42000, Note_on_c, 9, 42, 47
1, 42000, Note_on_c, 9, 36, 104
1, 42239, Note_on_c, 9, 54, 0
1, 42239, Note_on_c, 9, 42, 0
1, 42239, Note_on_c, 9, 36, 0
1, 42240, Note_on_c, 9, 54, 27
1, 42240, Note_on_c, 9, 42, 79
1, 42479, Note_on_c, 9, 54, 0
1, 42479, Note_on_c, 9, 42, 0
1, 42480, Note_on_c, 9, 54, 24
1, 42480, Note_on_c, 9, 42, 68
1, 42480, Note_on_c, 9, 36, 104
1, 42719, Note_on_c, 9, 54, 0
1, 42719, Note_on_c, 9, 42, 0
1, 42719, Note_on_c, 9, 36, 0
1, 42720, Note_on_c, 9, 40, 115
1, 42720, Note_on_c, 9, 54, 86
1, 42720, Note_on_c, 9, 39, 86
1, 42720, Note_on_c, 9, 42, 68
1, 42840, Note_on_c, 9, 36, 104
1, 42959, Note_on_c, 9, 40, 0
1, 42959, Note_on_c, 9, 54, 0
1, 42959, Note_on_c, 9, 39, 0
1, 42959, Note_on_c, 9, 42, 0
1, 42960, Note_on_c, 9, 54, 30
1, 42960, Note_on_c, 9, 42, 36
1, 43079, Note_on_c, 9, 54, 0
1, 43079, Note_on_c, 9, 42, 0
1, 43080, Note_on_c, 9, 54, 29
1, 43199, Note_on_c, 9, 36, 0
1, 43199, Note_on_c, 9, 54, 0
1, 43200, Note_on_c, 9, 54, 30
1, 43200, Note_on_c, 9, 42, 73
1, 43200, Note_on_c, 9, 36, 104
1, 43439, Note_on_c, 9, 54, 0
1, 43439, Note_on_c, 9, 42, 0
1, 43440, Note_on_c, 9, 54, 26
1, 43440, Note_on_c, 9, 42, 55
1, 43559, Note_on_c, 9, 54, 0
1, 43559, Note_on_c, 9, 42, 0
1, 43560, Note_on_c, 9, 40, 104
1, 43679, Note_on_c, 9, 36, 0
1, 43679, Note_on_c, 9, 40, 0
1, 43680, Note_on_c, 9, 40, 104
1, 43680, Note_on_c, 9, 54, 86
1, 43680, Note_on_c, 9, 39, 94
1, 43680, Note_on_c, 9, 42, 79
1, 43919, Note_on_c, 9, 40, 0
1, 43919, Note_on_c, 9, 54, 0
1, 43919, Note_on_c, 9, 39, 0
1, 43919, Note_on_c, 9, 42, 0
1, 43920, Note_on_c, 9, 40, 94
1, 43920, Note_on_c, 9, 54, 29
1, 43920, Note_on_c, 9, 46, 68
1, 43920, Note_on_c, 9, 36, 86
1, 44159, Note_on_c, 9, 40, 0
1, 44159, Note_on_c, 9, 54, 0
1, 44159, Note_on_c, 9, 46, 0
1, 44159, Note_on_c, 9, 36, 0
1, 44160, Note_on_c, 9, 42, 86
1, 44160, Note_on_c, 9, 36, 115
1, 44399, Note_on_c, 9, 42, 0
1, 44400, Note_on_c, 9, 46, 94
1, 44639, Note_on_c, 9, 36, 0
1, 44639, Note_on_c, 9, 46, 0
1, 44640, Note_on_c, 9, 40, 115
1, 44640, Note_on_c, 9, 54, 94
1, 44640, Note_on_c, 9, 42, 79
1, 44879, Note_on_c, 9, 40, 0
1, 44879, Note_on_c, 9, 54, 0
1, 44879, Note_on_c, 9, 42, 0
1, 44880, Note_on_c, 9, 46, 94
1, 44880, Note_on_c, 9, 36, 104
1, 45119, Note_on_c, 9, 46, 0
1, 45119, Note_on_c, 9, 36, 0
1, 45120, Note_on_c, 9, 42, 94
1, 45120, Note_on_c, 9, 36, 115
1, 45359, Note_on_c, 9, 42, 0
1, 45360, Note_on_c, 9, 46, 86
1, 45599, Note_on_c, 9, 36, 0
1, 45599, Note_on_c, 9, 46, 0
1, 45600, Note_on_c, 9, 40, 104
1, 45600, Note_on_c, 9, 54, 94
1, 45600, Note_on_c, 9, 42, 79
1, 45839, Note_on_c, 9, 40, 0
1, 45839, Note_on_c, 9, 54, 0
1, 45839, Note_on_c, 9, 42, 0
1, 45840, Note_on_c, 9, 46, 86
1, 45840, Note_on_c, 9, 36, 104
1, 46079, Note_on_c, 9, 46, 0
1, 46079, Note_on_c, 9, 36, 0
1, 46080, Note_on_c, 9, 42, 86
1, 46080, Note_on_c, 9, 36, 115
1, 46319, Note_on_c, 9, 42, 0
1, 46320, Note_on_c, 9, 46, 79
1, 46559, Note_on_c, 9, 36, 0
1, 46559, Note_on_c, 9, 46, 0
1, 46560, Note_on_c, 9, 40, 104
1, 46560, Note_on_c, 9, 54, 104
1, 46560, Note_on_c, 9, 42, 94
1, 46799, Note_on_c, 9, 40, 0
1, 46799, Note_on_c, 9, 54, 0
1, 46799, Note_on_c, 9, 42, 0
1, 46800, Note_on_c, 9, 46, 79
1, 46800, Note_on_c, 9, 36, 104
1, 47039, Note_on_c, 9, 46, 0
1, 47039, Note_on_c, 9, 36, 0
1, 47040, Note_on_c, 9, 42, 86
1, 47040, Note_on_c, 9, 36, 104
1, 47279, Note_on_c, 9, 42, 0
1, 47280, Note_on_c, 9, 46, 86
1, 47519, Note_on_c, 9, 36, 0
1, 47519, Note_on_c, 9, 46, 0
1, 47520, Note_on_c, 9, 40, 104
1, 47520, Note_on_c, 9, 54, 104
1, 47520, Note_on_c, 9, 42, 86
1, 47759, Note_on_c, 9, 40, 0
1, 47759, Note_on_c, 9, 54, 0
1, 47759, Note_on_c, 9, 42, 0
1, 47760, Note_on_c, 9, 46, 73
1, 47760, Note_on_c, 9, 36, 104
1, 47999, Note_on_c, 9, 46, 0
1, 47999, Note_on_c, 9, 36, 0
1, 48000, Note_on_c, 9, 42, 94
1, 48000, Note_on_c, 9, 36, 104
1, 48239, Note_on_c, 9, 42, 0
1, 48240, Note_on_c, 9, 46, 73
1, 48479, Note_on_c, 9, 36, 0
1, 48479, Note_on_c, 9, 46, 0
1, 48480, Note_on_c, 9, 40, 104
1, 48480, Note_on_c, 9, 54, 94
1, 48480, Note_on_c, 9, 42, 86
1, 48719, Note_on_c, 9, 40, 0
1, 48719, Note_on_c, 9, 54, 0
1, 48719, Note_on_c, 9, 42, 0
1, 48720, Note_on_c, 9, 46, 73
1, 48720, Note_on_c, 9, 36, 94
1, 48959, Note_on_c, 9, 46, 0
1, 48959, Note_on_c, 9, 36, 0
1, 48960, Note_on_c, 9, 42, 79
1, 48960, Note_on_c, 9, 36, 104
1, 49199, Note_on_c, 9, 42, 0
1, 49200, Note_on_c, 9, 46, 86
1, 49439, Note_on_c, 9, 36, 0
1, 49439, Note_on_c, 9, 46, 0
1, 49440, Note_on_c, 9, 40, 115
1, 49440, Note_on_c, 9, 54, 104
1, 49440, Note_on_c, 9, 42, 79
1, 49679, Note_on_c, 9, 40, 0
1, 49679, Note_on_c, 9, 54, 0
1, 49679, Note_on_c, 9, 42, 0
1, 49680, Note_on_c, 9, 46, 79
1, 49680, Note_on_c, 9, 36, 94
1, 49919, Note_on_c, 9, 46, 0
1, 49919, Note_on_c, 9, 36, 0
1, 49920, Note_on_c, 9, 42, 86
1, 49920, Note_on_c, 9, 36, 104
1, 50159, Note_on_c, 9, 42, 0
1, 50160, Note_on_c, 9, 46, 79
1, 50399, Note_on_c, 9, 36, 0
1, 50399, Note_on_c, 9, 46, 0
1, 50400, Note_on_c, 9, 40, 115
1, 50400, Note_on_c, 9, 54, 94
1, 50400, Note_on_c, 9, 42, 86
1, 50639, Note_on_c, 9, 40, 0
1, 50639, Note_on_c, 9, 54, 0
1, 50639, Note_on_c, 9, 42, 0
1, 50640, Note_on_c, 9, 46, 86
1, 50640, Note_on_c, 9, 36, 86
1, 50879, Note_on_c, 9, 46, 0
1, 50879, Note_on_c, 9, 36, 0
1, 50880, Note_on_c, 9, 42, 86
1, 50880, Note_on_c, 9, 36, 115
1, 51119, Note_on_c, 9, 42, 0
1, 51120, Note_on_c, 9, 46, 86
1, 51359, Note_on_c, 9, 36, 0
1, 51359, Note_on_c, 9, 46, 0
1, 51360, Note_on_c, 9, 40, 115
1, 51360, Note_on_c, 9, 54, 94
1, 51360, Note_on_c, 9, 42, 86
1, 51599, Note_on_c, 9, 40, 0
1, 51599, Note_on_c, 9, 54, 0
1, 51599, Note_on_c, 9, 42, 0
1, 51600, Note_on_c, 9, 46, 79
1, 51600, Note_on_c, 9, 36, 104
1, 51839, Note_on_c, 9, 46, 0
1, 51839, Note_on_c, 9, 36, 0
1, 51840, Note_on_c, 9, 42, 86
1, 51840, Note_on_c, 9, 36, 115
1, 52079, Note_on_c, 9, 42, 0
1, 52080, Note_on_c, 9, 46, 73
1, 52319, Note_on_c, 9, 36, 0
1, 52319, Note_on_c, 9, 46, 0
1, 52320, Note_on_c, 9, 40, 104
1, 52320, Note_on_c, 9, 54, 94
1, 52320, Note_on_c, 9, 42, 86
1, 52559, Note_on_c, 9, 40, 0
1, 52559, Note_on_c, 9, 54, 0
1, 52559, Note_on_c, 9, 42, 0
1, 52560, Note_on_c, 9, 46, 73
1, 52560, Note_on_c, 9, 36, 94
1, 52799, Note_on_c, 9, 46, 0
1, 52799, Note_on_c, 9, 36, 0
1, 52800, Note_on_c, 9, 42, 94
1, 52800, Note_on_c, 9, 36, 104
1, 53039, Note_on_c, 9, 42, 0
1, 53040, Note_on_c, 9, 46, 68
1, 53279, Note_on_c, 9, 36, 0
1, 53279, Note_on_c, 9, 46, 0
1, 53280, Note_on_c, 9, 40, 104
1, 53280, Note_on_c, 9, 54, 104
1, 53280, Note_on_c, 9, 42, 86
1, 53519, Note_on_c, 9, 40, 0
1, 53519, Note_on_c, 9, 54, 0
1, 53519, Note_on_c, 9, 42, 0
1, 53520, Note_on_c, 9, 46, 73
1, 53520, Note_on_c, 9, 36, 94
1, 53759, Note_on_c, 9, 46, 0
1, 53759, Note_on_c, 9, 36, 0
1, 53760, Note_on_c, 9, 42, 86
1, 53760, Note_on_c, 9, 36, 94
1, 53999, Note_on_c, 9, 42, 0
1, 54000, Note_on_c, 9, 46, 79
1, 54239, Note_on_c, 9, 36, 0
1, 54239, Note_on_c, 9, 46, 0
1, 54240, Note_on_c, 9, 40, 115
1, 54240, Note_on_c, 9, 54, 104
1, 54240, Note_on_c, 9, 42, 94
1, 54479, Note_on_c, 9, 40, 0
1, 54479, Note_on_c, 9, 54, 0
1, 54479, Note_on_c, 9, 42, 0
1, 54480, Note_on_c, 9, 46, 86
1, 54480, Note_on_c, 9, 36, 104
1, 54719, Note_on_c, 9, 46, 0
1, 54719, Note_on_c, 9, 36, 0
1, 54720, Note_on_c, 9, 42, 86
1, 54720, Note_on_c, 9, 36, 94
1, 54959, Note_on_c, 9, 42, 0
1, 54960, Note_on_c, 9, 46, 73
1, 55199, Note_on_c, 9, 36, 0
1, 55199, Note_on_c, 9, 46, 0
1, 55200, Note_on_c, 9, 40, 104
1, 55200, Note_on_c, 9, 54, 104
1, 55200, Note_on_c, 9, 42, 94
1, 55439, Note_on_c, 9, 40, 0
1, 55439, Note_on_c, 9, 54, 0
1, 55439, Note_on_c, 9, 42, 0
1, 55440, Note_on_c, 9, 46, 73
1, 55440, Note_on_c, 9, 36, 86
1, 55679, Note_on_c, 9, 46, 0
1, 55679, Note_on_c, 9, 36, 0
1, 55680, Note_on_c, 9, 42, 94
1, 55680, Note_on_c, 9, 36, 94
1, 55919, Note_on_c, 9, 42, 0
1, 55920, Note_on_c, 9, 46, 73
1, 56159, Note_on_c, 9, 36, 0
1, 56159, Note_on_c, 9, 46, 0
1, 56160, Note_on_c, 9, 40, 104
1, 56160, Note_on_c, 9, 54, 104
1, 56160, Note_on_c, 9, 42, 94
1, 56399, Note_on_c, 9, 40, 0
1, 56399, Note_on_c, 9, 54, 0
1, 56399, Note_on_c, 9, 42, 0
1, 56400, Note_on_c, 9, 46, 73
1, 56400, Note_on_c, 9, 36, 86
1, 56639, Note_on_c, 9, 46, 0
1, 56639, Note_on_c, 9, 36, 0
1, 56640, Note_on_c, 9, 42, 79
1, 56640, Note_on_c, 9, 36, 104
1, 56879, Note_on_c, 9, 42, 0
1, 56880, Note_on_c, 9, 46, 73
1, 57119, Note_on_c, 9, 36, 0
1, 57119, Note_on_c, 9, 46, 0
1, 57120, Note_on_c, 9, 40, 115
1, 57120, Note_on_c, 9, 54, 104
1, 57120, Note_on_c, 9, 42, 86
1, 57359, Note_on_c, 9, 40, 0
1, 57359, Note_on_c, 9, 54, 0
1, 57359, Note_on_c, 9, 42, 0
1, 57360, Note_on_c, 9, 46, 86
1, 57599, Note_on_c, 9, 46, 0
1, 57600, Note_on_c, 9, 40, 104
1, 57839, Note_on_c, 9, 40, 0
1, 57840, Note_on_c, 9, 40, 104
1, 58079, Note_on_c, 9, 40, 0
1, 58080, Note_on_c, 9, 40, 104
1, 58319, Note_on_c, 9, 40, 0
1, 58320, Note_on_c, 9, 40, 104
1, 58439, Note_on_c, 9, 40, 0
1, 58440, Note_on_c, 9, 40, 104
1, 58559, Note_on_c, 9, 40, 0
1, 59520, Note_on_c, 9, 54, 34
1, 59520, Note_on_c, 9, 42, 86
1, 59520, Note_on_c, 9, 36, 104
1, 59759, Note_on_c, 9, 54, 0
1, 59759, Note_on_c, 9, 42, 0
1, 59760, Note_on_c, 9, 54, 36
1, 59760, Note_on_c, 9, 42, 68
1, 59999, Note_on_c, 9, 36, 0
1, 59999, Note_on_c, 9, 54, 0
1, 59999, Note_on_c, 9, 42, 0
1, 60000, Note_on_c, 9, 40, 115
1, 60000, Note_on_c, 9, 54, 86
1, 60000, Note_on_c, 9, 39, 79
1, 60000, Note_on_c, 9, 42, 79
1, 60239, Note_on_c, 9, 40, 0
1, 60239, Note_on_c, 9, 54, 0
1, 60239, Note_on_c, 9, 39, 0
1, 60239, Note_on_c, 9, 42, 0
1, 60240, Note_on_c, 9, 54, 44
1, 60240, Note_on_c, 9, 42, 59
1, 60240, Note_on_c, 9, 36, 104
1, 60359, Note_on_c, 9, 54, 0
1, 60359, Note_on_c, 9, 42, 0
1, 60360, Note_on_c, 9, 54, 51
1, 60479, Note_on_c, 9, 36, 0
1, 60479, Note_on_c, 9, 54, 0
1, 60480, Note_on_c, 9, 54, 34
1, 60480, Note_on_c, 9, 42, 73
1, 60480, Note_on_c, 9, 36, 115
1, 60719, Note_on_c, 9, 54, 0
1, 60719, Note_on_c, 9, 42, 0
1, 60720, Note_on_c, 9, 54, 32
1, 60720, Note_on_c, 9, 42, 63
1, 60959, Note_on_c, 9, 36, 0
1, 60959, Note_on_c, 9, 54, 0
1, 60959, Note_on_c, 9, 42, 0
1, 60960, Note_on_c, 9, 40, 104
1, 60960, Note_on_c, 9, 54, 86
1, 60960, Note_on_c, 9, 39, 94
1, 60960, Note_on_c, 9, 42, 79
1, 61199, Note_on_c, 9, 40, 0
1, 61199, Note_on_c, 9, 54, 0
1, 61199, Note_on_c, 9, 39, 0
1, 61199, Note_on_c, 9, 42, 0
1, 61200, Note_on_c, 9, 54, 28
1, 61200, Note_on_c, 9, 42, 63
1, 61200, Note_on_c, 9, 36, 115
1, 61439, Note_on_c, 9, 54, 0
1, 61439, Note_on_c, 9, 42, 0
1, 61439, Note_on_c, 9, 36, 0
1, 61440, Note_on_c, 9, 54, 23
1, 61440, Note_on_c, 9, 42, 79
1, 61679, Note_on_c, 9, 54, 0
1, 61679, Note_on_c, 9, 42, 0
1, 61680, Note_on_c, 9, 54, 27
1, 61680, Note_on_c, 9, 42, 63
1, 61680, Note_on_c, 9, 36, 104
1, 61919, Note_on_c, 9, 54, 0
1, 61919, Note_on_c, 9, 42, 0
1, 61919, Note_on_c, 9, 36, 0
1, 61920, Note_on_c, 9, 40, 104
1, 61920, Note_on_c, 9, 54, 79
1, 61920, Note_on_c, 9, 39, 86
1, 61920, Note_on_c, 9, 42, 79
1, 62040, Note_on_c, 9, 36, 104
1, 62159, Note_on_c, 9, 40, 0
1, 62159, Note_on_c, 9, 54, 0
1, 62159, Note_on_c, 9, 39, 0
1, 62159, Note_on_c, 9, 42, 0
1, 62160, Note_on_c, 9, 54, 38
1, 62160, Note_on_c, 9, 42, 32
1, 62279, Note_on_c, 9, 54, 0
1, 62279, Note_on_c, 9, 42, 0
1, 62280, Note_on_c, 9, 54, 13
1, 62399, Note_on_c, 9, 36, 0
1, 62399, Note_on_c, 9, 54, 0
1, 62400, Note_on_c, 9, 54, 38
1, 62400, Note_on_c, 9, 42, 86
1, 62400, Note_on_c, 9, 36, 115
1, 62639, Note_on_c, 9, 54, 0
1, 62639, Note_on_c, 9, 42, 0
1, 62640, Note_on_c, 9, 54, 33
1, 62640, Note_on_c, 9, 42, 47
1, 62879, Note_on_c, 9, 36, 0
1, 62879, Note_on_c, 9, 54, 0
1, 62879, Note_on_c, 9, 42, 0
1, 62880, Note_on_c, 9, 40, 115
1, 62880, Note_on_c, 9, 54, 79
1, 62880, Note_on_c, 9, 39, 79
1, 62880, Note_on_c, 9, 42, 79
1, 63119, Note_on_c, 9, 40, 0
1, 63119, Note_on_c, 9, 54, 0
1, 63119, Note_on_c, 9, 39, 0
1, 63119, Note_on_c, 9, 42, 0
1, 63120, Note_on_c, 9, 54, 26
1, 63120, Note_on_c, 9, 42, 34
1, 63120, Note_on_c, 9, 36, 86
1, 63359, Note_on_c, 9, 54, 0
1, 63359, Note_on_c, 9, 42, 0
1, 63359, Note_on_c, 9, 36, 0
1, 63360, Note_on_c, 9, 54, 25
1, 63360, Note_on_c, 9, 42, 79
1, 63360, Note_on_c, 9, 36, 104
1, 63599, Note_on_c, 9, 54, 0
1, 63599, Note_on_c, 9, 42, 0
1, 63600, Note_on_c, 9, 54, 22
1, 63600, Note_on_c, 9, 42, 51
1, 63839, Note_on_c, 9, 36, 0
1, 63839, Note_on_c, 9, 54, 0
1, 63839, Note_on_c, 9, 42, 0
1, 63840, Note_on_c, 9, 40, 104
1, 63840, Note_on_c, 9, 54, 86
1, 63840, Note_on_c, 9, 39, 86
1, 63840, Note_on_c, 9, 42, 86
1, 64079, Note_on_c, 9, 40, 0
1, 64079, Note_on_c, 9, 54, 0
1, 64079, Note_on_c, 9, 39, 0
1, 64079, Note_on_c, 9, 42, 0
1, 64080, Note_on_c, 9, 54, 33
1, 64080, Note_on_c, 9, 42, 33
1, 64080, Note_on_c, 9, 36, 94
1, 64199, Note_on_c, 9, 54, 0
1, 64199, Note_on_c, 9, 42, 0
1, 64200, Note_on_c, 9, 54, 29
1, 64319, Note_on_c, 9, 36, 0
1, 64319, Note_on_c, 9, 54, 0
1, 64320, Note_on_c, 9, 54, 33
1, 64320, Note_on_c, 9, 42, 68
1, 64320, Note_on_c, 9, 36, 104
1, 64559, Note_on_c, 9, 54, 0
1, 64559, Note_on_c, 9, 42, 0
1, 64560, Note_on_c, 9, 54, 23
1, 64560, Note_on_c, 9, 42, 31
1, 64799, Note_on_c, 9, 36, 0
1, 64799, Note_on_c, 9, 54, 0
1, 64799, Note_on_c, 9, 42, 0
1, 64800, Note_on_c, 9, 40, 104
1, 64800, Note_on_c, 9, 54, 86
1, 64800, Note_on_c, 9, 39, 86
1, 64800, Note_on_c, 9, 42, 79
1, 65039, Note_on_c, 9, 40, 0
1, 65039, Note_on_c, 9, 54, 0
1, 65039, Note_on_c, 9, 39, 0
1, 65039, Note_on_c, 9, 42, 0
1, 65040, Note_on_c, 9, 54, 25
1, 65040, Note_on_c, 9, 42, 47
1, 65040, Note_on_c, 9, 36, 104
1, 65279, Note_on_c, 9, 54, 0
1, 65279, Note_on_c, 9, 42, 0
1, 65279, Note_on_c, 9, 36, 0
1, 65280, Note_on_c, 9, 54, 27
1, 65280, Note_on_c, 9, 42, 79
1, 65519, Note_on_c, 9, 54, 0
1, 65519, Note_on_c, 9, 42, 0
1, 65520, Note_on_c, 9, 54, 24
1, 65520, Note_on_c, 9, 42, 68
1, 65520, Note_on_c, 9, 36, 104
1, 65759, Note_on_c, 9, 54, 0
1, 65759, Note_on_c, 9, 42, 0
1, 65759, Note_on_c, 9, 36, 0
1, 65760, Note_on_c, 9, 40, 115
1, 65760, Note_on_c, 9, 54, 86
1, 65760, Note_on_c, 9, 39, 86
1, 65760, Note_on_c, 9, 42, 68
1, 65880, Note_on_c, 9, 36, 104
1, 65999, Note_on_c, 9, 40, 0
1, 65999, Note_on_c, 9, 54, 0
1, 65999, Note_on_c, 9, 39, 0
1, 65999, Note_on_c, 9, 42, 0
1, 66000, Note_on_c, 9, 54, 30
1, 66000, Note_on_c, 9, 42, 36
1, 66119, Note_on_c, 9, 54, 0
1, 66119, Note_on_c, 9, 42, 0
1, 66120, Note_on_c, 9, 54, 29
1, 66239, Note_on_c, 9, 36, 0
1, 66239, Note_on_c, 9, 54, 0
1, 66240, Note_on_c, 9, 54, 30
1, 66240, Note_on_c, 9, 42, 73
1, 66240, Note_on_c, 9, 36, 104
1, 66479, Note_on_c, 9, 54, 0
1, 66479, Note_on_c, 9, 42, 0
1, 66480, Note_on_c, 9, 54, 26
1, 66480, Note_on_c, 9, 42, 55
1, 66719, Note_on_c, 9, 36, 0
1, 66719, Note_on_c, 9, 54, 0
1, 66719, Note_on_c, 9, 42, 0
1, 66720, Note_on_c, 9, 40, 104
1, 66720, Note_on_c, 9, 54, 86
1, 66720, Note_on_c, 9, 39, 94
1, 66720, Note_on_c, 9, 42, 79
1, 66959, Note_on_c, 9, 40, 0
1, 66959, Note_on_c, 9, 54, 0
1, 66959, Note_on_c, 9, 39, 0
1, 66959, Note_on_c, 9, 42, 0
1, 66960, Note_on_c, 9, 54, 29
1, 66960, Note_on_c, 9, 42, 68
1, 66960, Note_on_c, 9, 36, 86
1, 67199, Note_on_c, 9, 54, 0
1, 67199, Note_on_c, 9, 42, 0
1, 67199, Note_on_c, 9, 36, 0
1, 67200, Note_on_c, 9, 54, 34
1, 67200, Note_on_c, 9, 42, 86
1, 67200, Note_on_c, 9, 36, 104
1, 67439, Note_on_c, 9, 54, 0
1, 67439, Note_on_c, 9, 42, 0
1, 67440, Note_on_c, 9, 54, 36
1, 67440, Note_on_c, 9, 42, 68
1, 67679, Note_on_c, 9, 36, 0
1, 67679, Note_on_c, 9, 54, 0
1, 67679, Note_on_c, 9, 42, 0
1, 67680, Note_on_c, 9, 40, 115
1, 67680, Note_on_c, 9, 54, 86
1, 67680, Note_on_c, 9, 39, 79
1, 67680, Note_on_c, 9, 42, 79
1, 67919, Note_on_c, 9, 40, 0
1, 67919, Note_on_c, 9, 54, 0
1, 67919, Note_on_c, 9, 39, 0
1, 67919, Note_on_c, 9, 42, 0
1, 67920, Note_on_c, 9, 54, 44
1, 67920, Note_on_c, 9, 42, 59
1, 67920, Note_on_c, 9, 36, 104
1, 68039, Note_on_c, 9, 54, 0
1, 68039, Note_on_c, 9, 42, 0
1, 68040, Note_on_c, 9, 54, 51
1, 68159, Note_on_c, 9, 36, 0
1, 68159, Note_on_c, 9, 54, 0
1, 68160, Note_on_c, 9, 54, 34
1, 68160, Note_on_c, 9, 42, 73
1, 68160, Note_on_c, 9, 36, 115
1, 68399, Note_on_c, 9, 54, 0
1, 68399, Note_on_c, 9, 42, 0
1, 68400, Note_on_c, 9, 54, 32
1, 68400, Note_on_c, 9, 42, 63
1, 68639, Note_on_c, 9, 36, 0
1, 68639, Note_on_c, 9, 54, 0
1, 68639, Note_on_c, 9, 42, 0
1, 68640, Note_on_c, 9, 40, 104
1, 68640, Note_on_c, 9, 54, 86
1, 68640, Note_on_c, 9, 39, 94
1, 68640, Note_on_c, 9, 42, 79
1, 68879, Note_on_c, 9, 40, 0
1, 68879, Note_on_c, 9, 54, 0
1, 68879, Note_on_c, 9, 39, 0
1, 68879, Note_on_c, 9, 42, 0
1, 68880, Note_on_c, 9, 54, 28
1, 68880, Note_on_c, 9, 42, 63
1, 68880, Note_on_c, 9, 36, 115
1, 69119, Note_on_c, 9, 54, 0
1, 69119, Note_on_c, 9, 42, 0
1, 69119, Note_on_c, 9, 36, 0
1, 69120, Note_on_c, 9, 54, 23
1, 69120, Note_on_c, 9, 42, 79
1, 69359, Note_on_c, 9, 54, 0
1, 69359, Note_on_c, 9, 42, 0
1, 69360, Note_on_c, 9, 54, 27
1, 69360, Note_on_c, 9, 42, 63
1, 69360, Note_on_c, 9, 36, 104
1, 69599, Note_on_c, 9, 54, 0
1, 69599, Note_on_c, 9, 42, 0
1, 69599, Note_on_c, 9, 36, 0
1, 69600, Note_on_c, 9, 40, 104
1, 69600, Note_on_c, 9, 54, 79
1, 69600, Note_on_c, 9, 39, 86
1, 69600, Note_on_c, 9, 42, 79
1, 69720, Note_on_c, 9, 36, 104
1, 69839, Note_on_c, 9, 40, 0
1, 69839, Note_on_c, 9, 54, 0
1, 69839, Note_on_c, 9, 39, 0
1, 69839, Note_on_c, 9, 42, 0
1, 69840, Note_on_c, 9, 54, 38
1, 69840, Note_on_c, 9, 42, 32
1, 69959, Note_on_c, 9, 54, 0
1, 69959, Note_on_c, 9, 42, 0
1, 69960, Note_on_c, 9, 54, 13
1, 70079, Note_on_c, 9, 36, 0
1, 70079, Note_on_c, 9, 54, 0
1, 70080, Note_on_c, 9, 54, 38
1, 70080, Note_on_c, 9, 42, 86
1, 70080, Note_on_c, 9, 36, 115
1, 70319, Note_on_c, 9, 54, 0
1, 70319, Note_on_c, 9, 42, 0
1, 70320, Note_on_c, 9, 54, 33
1, 70320, Note_on_c, 9, 42, 47
1, 70559, Note_on_c, 9, 36, 0
1, 70559, Note_on_c, 9, 54, 0
1, 70559, Note_on_c, 9, 42, 0
1, 70560, Note_on_c, 9, 40, 115
1, 70560, Note_on_c, 9, 54, 79
1, 70560, Note_on_c, 9, 39, 79
1, 70560, Note_on_c, 9, 42, 79
1, 70799, Note_on_c, 9, 40, 0
1, 70799, Note_on_c, 9, 54, 0
1, 70799, Note_on_c, 9, 39, 0
1, 70799, Note_on_c, 9, 42, 0
1, 70800, Note_on_c, 9, 54, 26
1, 70800, Note_on_c, 9, 42, 34
1, 70800, Note_on_c, 9, 36, 86
1, 71039, Note_on_c, 9, 54, 0
1, 71039, Note_on_c, 9, 42, 0
1, 71039, Note_on_c, 9, 36, 0
1, 71040, Note_on_c, 9, 54, 25
1, 71040, Note_on_c, 9, 42, 79
1, 71040, Note_on_c, 9, 36, 104
1, 71279, Note_on_c, 9, 54, 0
1, 71279, Note_on_c, 9, 42, 0
1, 71280, Note_on_c, 9, 54, 22
1, 71280, Note_on_c, 9, 42, 51
1, 71519, Note_on_c, 9, 36, 0
1, 71519, Note_on_c, 9, 54, 0
1, 71519, Note_on_c, 9, 42, 0
1, 71520, Note_on_c, 9, 40, 104
1, 71520, Note_on_c, 9, 54, 86
1, 71520, Note_on_c, 9, 39, 86
1, 71520, Note_on_c, 9, 42, 86
1, 71759, Note_on_c, 9, 40, 0
1, 71759, Note_on_c, 9, 54, 0
1, 71759, Note_on_c, 9, 39, 0
1, 71759, Note_on_c, 9, 42, 0
1, 71760, Note_on_c, 9, 54, 33
1, 71760, Note_on_c, 9, 42, 33
1, 71760, Note_on_c, 9, 36, 94
1, 71879, Note_on_c, 9, 54, 0
1, 71879, Note_on_c, 9, 42, 0
1, 71880, Note_on_c, 9, 54, 29
1, 71999, Note_on_c, 9, 36, 0
1, 71999, Note_on_c, 9, 54, 0
1, 72000, Note_on_c, 9, 54, 33
1, 72000, Note_on_c, 9, 42, 68
1, 72000, Note_on_c, 9, 36, 104
1, 72239, Note_on_c, 9, 54, 0
1, 72239, Note_on_c, 9, 42, 0
1, 72240, Note_on_c, 9, 54, 23
1, 72240, Note_on_c, 9, 42, 31
1, 72479, Note_on_c, 9, 36, 0
1, 72479, Note_on_c, 9, 54, 0
1, 72479, Note_on_c, 9, 42, 0
1, 72480, Note_on_c, 9, 40, 104
1, 72480, Note_on_c, 9, 54, 86
1, 72480, Note_on_c, 9, 39, 86
1, 72480, Note_on_c, 9, 42, 79
1, 72719, Note_on_c, 9, 40, 0
1, 72719, Note_on_c, 9, 54, 0
1, 72719, Note_on_c, 9, 39, 0
1, 72719, Note_on_c, 9, 42, 0
1, 72720, Note_on_c, 9, 54, 25
1, 72720, Note_on_c, 9, 42, 47
1, 72720, Note_on_c, 9, 36, 104
1, 72959, Note_on_c, 9, 54, 0
1, 72959, Note_on_c, 9, 42, 0
1, 72959, Note_on_c, 9, 36, 0
1, 72960, Note_on_c, 9, 54, 27
1, 72960, Note_on_c, 9, 42, 79
1, 73199, Note_on_c, 9, 54, 0
1, 73199, Note_on_c, 9, 42, 0
1, 73200, Note_on_c, 9, 54, 24
1, 73200, Note_on_c, 9, 42, 68
1, 73200, Note_on_c, 9, 36, 104
1, 73439, Note_on_c, 9, 54, 0
1, 73439, Note_on_c, 9, 42, 0
1, 73439, Note_on_c, 9, 36, 0
1, 73440, Note_on_c, 9, 40, 115
1, 73440, Note_on_c, 9, 54, 86
1, 73440, Note_on_c, 9, 39, 86
1, 73440, Note_on_c, 9, 42, 68
1, 73560, Note_on_c, 9, 36, 104
1, 73679, Note_on_c, 9, 40, 0
1, 73679, Note_on_c, 9, 54, 0
1, 73679, Note_on_c, 9, 39, 0
1, 73679, Note_on_c, 9, 42, 0
1, 73680, Note_on_c, 9, 54, 30
1, 73680, Note_on_c, 9, 42, 36
1, 73799, Note_on_c, 9, 54, 0
1, 73799, Note_on_c, 9, 42, 0
1, 73800, Note_on_c, 9, 54, 29
1, 73919, Note_on_c, 9, 36, 0
1, 73919, Note_on_c, 9, 54, 0
1, 73920, Note_on_c, 9, 54, 30
1, 73920, Note_on_c, 9, 42, 73
1, 73920, Note_on_c, 9, 36, 104
1, 74159, Note_on_c, 9, 54, 0
1, 74159, Note_on_c, 9, 42, 0
1, 74160, Note_on_c, 9, 54, 26
1, 74160, Note_on_c, 9, 42, 55
1, 74279, Note_on_c, 9, 54, 0
1, 74279, Note_on_c, 9, 42, 0
1, 74280, Note_on_c, 9, 40, 104
1, 74399, Note_on_c, 9, 36, 0
1, 74399, Note_on_c, 9, 40, 0
1, 74400, Note_on_c, 9, 40, 104
1, 74400, Note_on_c, 9, 54, 86
1, 74400, Note_on_c, 9, 39, 94
1, 74400, Note_on_c, 9, 42, 79
1, 74639, Note_on_c, 9, 40, 0
1, 74639, Note_on_c, 9, 54, 0
1, 74639, Note_on_c, 9, 39, 0
1, 74639, Note_on_c, 9, 42, 0
1, 74640, Note_on_c, 9, 40, 94
1, 74640, Note_on_c, 9, 54, 29
1, 74640, Note_on_c, 9, 46, 68
1, 74640, Note_on_c, 9, 36, 86
1, 74879, Note_on_c, 9, 40, 0
1, 74879, Note_on_c, 9, 54, 0
1, 74879, Note_on_c, 9, 46, 0
1, 74879, Note_on_c, 9, 36, 0
1, 74880, Note_on_c, 9, 42, 86
1, 74880, Note_on_c, 9, 36, 115
1, 75119, Note_on_c, 9, 42, 0
1, 75120, Note_on_c, 9, 46, 94
1, 75359, Note_on_c, 9, 36, 0
1, 75359, Note_on_c, 9, 46, 0
1, 75360, Note_on_c, 9, 40, 115
1, 75360, Note_on_c, 9, 54, 94
1, 75360, Note_on_c, 9, 42, 79
1, 75599, Note_on_c, 9, 40, 0
1, 75599, Note_on_c, 9, 54, 0
1, 75599, Note_on_c, 9, 42, 0
1, 75600, Note_on_c, 9, 46, 94
1, 75600, Note_on_c, 9, 36, 104
1, 75839, Note_on_c, 9, 46, 0
1, 75839, Note_on_c, 9, 36, 0
1, 75840, Note_on_c, 9, 42, 94
1, 75840, Note_on_c, 9, 36, 115
1, 76079, Note_on_c, 9, 42, 0
1, 76080, Note_on_c, 9, 46, 86
1, 76319, Note_on_c, 9, 36, 0
1, 76319, Note_on_c, 9, 46, 0
1, 76320, Note_on_c, 9, 40, 104
1, 76320, Note_on_c, 9, 54, 94
1, 76320, Note_on_c, 9, 42, 79
1, 76559, Note_on_c, 9, 40, 0
1, 76559, Note_on_c, 9, 54, 0
1, 76559, Note_on_c, 9, 42, 0
1, 76560, Note_on_c, 9, 46, 86
1, 76560, Note_on_c, 9, 36, 104
1, 76799, Note_on_c, 9, 46, 0
1, 76799, Note_on_c, 9, 36, 0
1, 76800, Note_on_c, 9, 42, 86
1, 76800, Note_on_c, 9, 36, 115
1, 77039, Note_on_c, 9, 42, 0
1, 77040, Note_on_c, 9, 46, 79
1, 77279, Note_on_c, 9, 36, 0
1, 77279, Note_on_c, 9, 46, 0
1, 77280, Note_on_c, 9, 40, 104
1, 77280, Note_on_c, 9, 54, 104
1, 77280, Note_on_c, 9, 42, 94
1, 77519, Note_on_c, 9, 40, 0
1, 77519, Note_on_c, 9, 54, 0
1, 77519, Note_on_c, 9, 42, 0
1, 77520, Note_on_c, 9, 46, 79
1, 77520, Note_on_c, 9, 36, 104
1, 77759, Note_on_c, 9, 46, 0
1, 77759, Note_on_c, 9, 36, 0
1, 77760, Note_on_c, 9, 42, 86
1, 77760, Note_on_c, 9, 36, 104
1, 77999, Note_on_c, 9, 42, 0
1, 78000, Note_on_c, 9, 46, 86
1, 78239, Note_on_c, 9, 36, 0
1, 78239, Note_on_c, 9, 46, 0
1, 78240, Note_on_c, 9, 40, 104
1, 78240, Note_on_c, 9, 54, 104
1, 78240, Note_on_c, 9, 42, 86
1, 78479, Note_on_c, 9, 40, 0
1, 78479, Note_on_c, 9, 54, 0
1, 78479, Note_on_c, 9, 42, 0
1, 78480, Note_on_c, 9, 46, 73
1, 78480, Note_on_c, 9, 36, 104
1, 78719, Note_on_c, 9, 46, 0
1, 78719, Note_on_c, 9, 36, 0
1, 78720, Note_on_c, 9, 42, 94
1, 78720, Note_on_c, 9, 36, 104
1, 78959, Note_on_c, 9, 42, 0
1, 78960, Note_on_c, 9, 46, 73
1, 79199, Note_on_c, 9, 36, 0
1, 79199, Note_on_c, 9, 46, 0
1, 79200, Note_on_c, 9, 40, 104
1, 79200, Note_on_c, 9, 54, 94
1, 79200, Note_on_c, 9, 42, 86
1, 79439, Note_on_c, 9, 40, 0
1, 79439, Note_on_c, 9, 54, 0
1, 79439, Note_on_c, 9, 42, 0
1, 79440, Note_on_c, 9, 46, 73
1, 79440, Note_on_c, 9, 36, 94
1, 79679, Note_on_c, 9, 46, 0
1, 79679, Note_on_c, 9, 36, 0
1, 79680, Note_on_c, 9, 42, 79
1, 79680, Note_on_c, 9, 36, 104
1, 79919, Note_on_c, 9, 42, 0
1, 79920, Note_on_c, 9, 46, 86
1, 80159, Note_on_c, 9, 36, 0
1, 80159, Note_on_c, 9, 46, 0
1, 80160, Note_on_c, 9, 40, 115
1, 80160, Note_on_c, 9, 54, 104
1, 80160, Note_on_c, 9, 42, 79
1, 80399, Note_on_c, 9, 40, 0
1, 80399, Note_on_c, 9, 54, 0
1, 80399, Note_on_c, 9, 42, 0
1, 80400, Note_on_c, 9, 46, 79
1, 80400, Note_on_c, 9, 36, 94
1, 80639, Note_on_c, 9, 46, 0
1, 80639, Note_on_c, 9, 36, 0
1, 80640, Note_on_c, 9, 42, 86
1, 80640, Note_on_c, 9, 36, 104
1, 80879, Note_on_c, 9, 42, 0
1, 80880, Note_on_c, 9, 46, 79
1, 81119, Note_on_c, 9, 36, 0
1, 81119, Note_on_c, 9, 46, 0
1, 81120, Note_on_c, 9, 40, 115
1, 81120, Note_on_c, 9, 54, 94
1, 81120, Note_on_c, 9, 42, 86
1, 81359, Note_on_c, 9, 40, 0
1, 81359, Note_on_c, 9, 54, 0
1, 81359, Note_on_c, 9, 42, 0
1, 81360, Note_on_c, 9, 46, 86
1, 81360, Note_on_c, 9, 36, 86
1, 81599, Note_on_c, 9, 46, 0
1, 81599, Note_on_c, 9, 36, 0
1, 81600, Note_on_c, 9, 42, 86
1, 81600, Note_on_c, 9, 36, 115
1, 81839, Note_on_c, 9, 42, 0
1, 81840, Note_on_c, 9, 46, 86
1, 82079, Note_on_c, 9, 36, 0
1, 82079, Note_on_c, 9, 46, 0
1, 82080, Note_on_c, 9, 40, 115
1, 82080, Note_on_c, 9, 54, 94
1, 82080, Note_on_c, 9, 42, 86
1, 82319, Note_on_c, 9, 40, 0
1, 82319, Note_on_c, 9, 54, 0
1, 82319, Note_on_c, 9, 42, 0
1, 82320, Note_on_c, 9, 46, 79
1, 82320, Note_on_c, 9, 36, 104
1, 82559, Note_on_c, 9, 46, 0
1, 82559, Note_on_c, 9, 36, 0
1, 82560, Note_on_c, 9, 42, 86
1, 82560, Note_on_c, 9, 36, 115
1, 82799, Note_on_c, 9, 42, 0
1, 82800, Note_on_c, 9, 46, 73
1, 83039, Note_on_c, 9, 36, 0
1, 83039, Note_on_c, 9, 46, 0
1, 83040, Note_on_c, 9, 40, 104
1, 83040, Note_on_c, 9, 54, 94
1, 83040, Note_on_c, 9, 42, 86
1, 83279, Note_on_c, 9, 40, 0
1, 83279, Note_on_c, 9, 54, 0
1, 83279, Note_on_c, 9, 42, 0
1, 83280, Note_on_c, 9, 46, 73
1, 83280, Note_on_c, 9, 36, 94
1, 83519, Note_on_c, 9, 46, 0
1, 83519, Note_on_c, 9, 36, 0
1, 83520, Note_on_c, 9, 42, 94
1, 83520, Note_on_c, 9, 36, 104
1, 83759, Note_on_c, 9, 42, 0
1, 83760, Note_on_c, 9, 46, 68
1, 83999, Note_on_c, 9, 36, 0
1, 83999, Note_on_c, 9, 46, 0
1, 84000, Note_on_c, 9, 40, 104
1, 84000, Note_on_c, 9, 54, 104
1, 84000, Note_on_c, 9, 42, 86
1, 84239, Note_on_c, 9, 40, 0
1, 84239, Note_on_c, 9, 54, 0
1, 84239, Note_on_c, 9, 42, 0
1, 84240, Note_on_c, 9, 46, 73
1, 84240, Note_on_c, 9, 36, 94
1, 84479, Note_on_c, 9, 46, 0
1, 84479, Note_on_c, 9, 36, 0
1, 84480, Note_on_c, 9, 42, 86
1, 84480, Note_on_c, 9, 36, 94
1, 84719, Note_on_c, 9, 42, 0
1, 84720, Note_on_c, 9, 46, 79
1, 84959, Note_on_c, 9, 36, 0
1, 84959, Note_on_c, 9, 46, 0
1, 84960, Note_on_c, 9, 40, 115
1, 84960, Note_on_c, 9, 54, 104
1, 84960, Note_on_c, 9, 42, 94
1, 85199, Note_on_c, 9, 40, 0
1, 85199, Note_on_c, 9, 54, 0
1, 85199, Note_on_c, 9, 42, 0
1, 85200, Note_on_c, 9, 46, 86
1, 85200, Note_on_c, 9, 36, 104
1, 85439, Note_on_c, 9, 46, 0
1, 85439, Note_on_c, 9, 36, 0
1, 85440, Note_on_c, 9, 42, 86
1, 85440, Note_on_c, 9, 36, 94
1, 85679, Note_on_c, 9, 42, 0
1, 85680, Note_on_c, 9, 46, 73
1, 85919, Note_on_c, 9, 36, 0
1, 85919, Note_on_c, 9, 46, 0
1, 85920, Note_on_c, 9, 40, 104
1, 85920, Note_on_c, 9, 54, 104
1, 85920, Note_on_c, 9, 42, 94
1, 86159, Note_on_c, 9, 40, 0
1, 86159, Note_on_c, 9, 54, 0
1, 86159, Note_on_c, 9, 42, 0
1, 86160, Note_on_c, 9, 46, 73
1, 86160, Note_on_c, 9, 36, 86
1, 86399, Note_on_c, 9, 46, 0
1, 86399, Note_on_c, 9, 36, 0
1, 86400, Note_on_c, 9, 42, 94
1, 86400, Note_on_c, 9, 36, 94
1, 86639, Note_on_c, 9, 42, 0
1, 86640, Note_on_c, 9, 46, 73
1, 86879, Note_on_c, 9, 36, 0
1, 86879, Note_on_c, 9, 46, 0
1, 86880, Note_on_c, 9, 40, 104
1, 86880, Note_on_c, 9, 54, 104
1, 86880, Note_on_c, 9, 42, 94
1, 87119, Note_on_c, 9, 40, 0
1, 87119, Note_on_c, 9, 54, 0
1, 87119, Note_on_c, 9, 42, 0
1, 87120, Note_on_c, 9, 46, 73
1, 87120, Note_on_c, 9, 36, 86
1, 87359, Note_on_c, 9, 46, 0
1, 87359, Note_on_c, 9, 36, 0
1, 87360, Note_on_c, 9, 42, 79
1, 87360, Note_on_c, 9, 36, 104
1, 87599, Note_on_c, 9, 42, 0
1, 87600, Note_on_c, 9, 46, 73
1, 87839, Note_on_c, 9, 36, 0
1, 87839, Note_on_c, 9, 46, 0
1, 87840, Note_on_c, 9, 40, 115
1, 87840, Note_on_c, 9, 54, 104
1, 87840, Note_on_c, 9, 42, 86
1, 88079, Note_on_c, 9, 40, 0
1, 88079, Note_on_c, 9, 54, 0
1, 88079, Note_on_c, 9, 42, 0
1, 88080, Note_on_c, 9, 46, 86
1, 88319, Note_on_c, 9, 46, 0
1, 88320, Note_on_c, 9, 42, 94
1, 88320, Note_on_c, 9, 36, 115
1, 88559, Note_on_c, 9, 42, 0
1, 88560, Note_on_c, 9, 42, 79
1, 88799, Note_on_c, 9, 36, 0
1, 88799, Note_on_c, 9, 42, 0
1, 88800, Note_on_c, 9, 54, 63
1, 88800, Note_on_c, 9, 42, 79
1, 88800, Note_on_c, 9, 36, 115
1, 89039, Note_on_c, 9, 54, 0
1, 89039, Note_on_c, 9, 42, 0
1, 89040, Note_on_c, 9, 42, 73
1, 89279, Note_on_c, 9, 36, 0
1, 89279, Note_on_c, 9, 42, 0
1, 89280, Note_on_c, 9, 40, 104
1, 89280, Note_on_c, 9, 42, 86
1, 89280, Note_on_c, 9, 36, 95
1, 89519, Note_on_c, 9, 40, 0
1, 89519, Note_on_c, 9, 42, 0
1, 89520, Note_on_c, 9, 40, 115
1, 89520, Note_on_c, 9, 42, 73
1, 89759, Note_on_c, 9, 36, 0
1, 89759, Note_on_c, 9, 40, 0
1, 89759, Note_on_c, 9, 42, 0
1, 89760, Note_on_c, 9, 40, 115
1, 89760, Note_on_c, 9, 54, 86
1, 89760, Note_on_c, 9, 42, 86
1, 89760, Note_on_c, 9, 36, 75
1, 89999, Note_on_c, 9, 40, 0
1, 89999, Note_on_c, 9, 54, 0
1, 89999, Note_on_c, 9, 42, 0
1, 90000, Note_on_c, 9, 40, 115
1, 90000, Note_on_c, 9, 42, 86
1, 90239, Note_on_c, 9, 36, 0
1, 90239, Note_on_c, 9, 40, 0
1, 90239, Note_on_c, 9, 42, 0
1, 90240, Note_on_c, 9, 40, 115
1, 90359, Note_on_c, 9, 40, 0
1, 90360, Note_on_c, 9, 40, 115
1, 90719, Note_on_c, 9, 40, 0
1, 92160, Note_on_c, 9, 54, 34
1, 92160, Note_on_c, 9, 42, 86
1, 92160, Note_on_c, 9, 49, 86
1, 92160, Note_on_c, 9, 36, 104
1, 92399, Note_on_c, 9, 54, 0
1, 92399, Note_on_c, 9, 42, 0
1, 92399, Note_on_c, 9, 49, 0
1, 92400, Note_on_c, 9, 54, 36
1, 92400, Note_on_c, 9, 42, 68
1, 92639, Note_on_c, 9, 36, 0
1, 92639, Note_on_c, 9, 54, 0
1, 92639, Note_on_c, 9, 42, 0
1, 92640, Note_on_c, 9, 40, 115
1, 92640, Note_on_c, 9, 54, 86
1, 92640, Note_on_c, 9, 39, 79
1, 92640, Note_on_c, 9, 42, 79
1, 92879, Note_on_c, 9, 40, 0
1, 92879, Note_on_c, 9, 54, 0
1, 92879, Note_on_c, 9, 39, 0
1, 92879, Note_on_c, 9, 42, 0
1, 92880, Note_on_c, 9, 54, 44
1, 92880, Note_on_c, 9, 42, 59
1, 92880, Note_on_c, 9, 36, 104
1, 92999, Note_on_c, 9, 54, 0
1, 92999, Note_on_c, 9, 42, 0
1, 93000, Note_on_c, 9, 54, 51
1, 93119, Note_on_c, 9, 36, 0
1, 93119, Note_on_c, 9, 54, 0
1, 93120, Note_on_c, 9, 54, 34
1, 93120, Note_on_c, 9, 42, 73
1, 93120, Note_on_c, 9, 36, 115
1, 93359, Note_on_c, 9, 54, 0
1, 93359, Note_on_c, 9, 42, 0
1, 93360, Note_on_c, 9, 54, 32
1, 93360, Note_on_c, 9, 42, 63
1, 93599, Note_on_c, 9, 36, 0
1, 93599, Note_on_c, 9, 54, 0
1, 93599, Note_on_c, 9, 42, 0
1, 93600, Note_on_c, 9, 40, 104
1, 93600, Note_on_c, 9, 54, 86
1, 93600, Note_on_c, 9, 39, 94
1, 93600, Note_on_c, 9, 42, 79
1, 93839, Note_on_c, 9, 40, 0
1, 93839, Note_on_c, 9, 54, 0
1, 93839, Note_on_c, 9, 39, 0
1, 93839, Note_on_c, 9, 42, 0
1, 93840, Note_on_c, 9, 54, 28
1, 93840, Note_on_c, 9, 42, 63
1, 93840, Note_on_c, 9, 36, 115
1, 94079, Note_on_c, 9, 54, 0
1, 94079, Note_on_c, 9, 42, 0
1, 94079, Note_on_c, 9, 36, 0
1, 94080, Note_on_c, 9, 54, 23
1, 94080, Note_on_c, 9, 42, 79
1, 94319, Note_on_c, 9, 54, 0
1, 94319, Note_on_c, 9, 42, 0
1, 94320, Note_on_c, 9, 54, 27
1, 94320, Note_on_c, 9, 42, 63
1, 94320, Note_on_c, 9, 36, 104
1, 94559, Note_on_c, 9, 54, 0
1, 94559, Note_on_c, 9, 42, 0
1, 94559, Note_on_c, 9, 36, 0
1, 94560, Note_on_c, 9, 40, 104
1, 94560, Note_on_c, 9, 54, 79
1, 94560, Note_on_c, 9, 39, 86
1, 94560, Note_on_c, 9, 42, 79
1, 94680, Note_on_c, 9, 36, 104
1, 94799, Note_on_c, 9, 40, 0
1, 94799, Note_on_c, 9, 54, 0
1, 94799, Note_on_c, 9, 39, 0
1, 94799, Note_on_c, 9, 42, 0
1, 94800, Note_on_c, 9, 54, 38
1, 94800, Note_on_c, 9, 42, 32
1, 94919, Note_on_c, 9, 54, 0
1, 94919, Note_on_c, 9, 42, 0
1, 94920, Note_on_c, 9, 54, 13
1, 95039, Note_on_c, 9, 36, 0
1, 95039, Note_on_c, 9, 54, 0
1, 95040, Note_on_c, 9, 54, 38
1, 95040, Note_on_c, 9, 42, 86
1, 95040, Note_on_c, 9, 36, 115
1, 95279, Note_on_c, 9, 54, 0
1, 95279, Note_on_c, 9, 42, 0
1, 95280, Note_on_c, 9, 54, 33
1, 95280, Note_on_c, 9, 42, 47
1, 95519, Note_on_c, 9, 36, 0
1, 95519, Note_on_c, 9, 54, 0
1, 95519, Note_on_c, 9, 42, 0
1, 95520, Note_on_c, 9, 40, 115
1, 95520, Note_on_c, 9, 54, 79
1, 95520, Note_on_c, 9, 39, 79
1, 95520, Note_on_c, 9, 42, 79
1, 95759, Note_on_c, 9, 40, 0
1, 95759, Note_on_c, 9, 54, 0
1, 95759, Note_on_c, 9, 39, 0
1, 95759, Note_on_c, 9, 42, 0
1, 95760, Note_on_c, 9, 54, 26
1, 95760, Note_on_c, 9, 42, 34
1, 95760, Note_on_c, 9, 36, 86
1, 95999, Note_on_c, 9, 54, 0
1, 95999, Note_on_c, 9, 42, 0
1, 95999, Note_on_c, 9, 36, 0
1, 96000, Note_on_c, 9, 54, 25
1, 96000, Note_on_c, 9, 42, 79
1, 96000, Note_on_c, 9, 36, 104
1, 96239, Note_on_c, 9, 54, 0
1, 96239, Note_on_c, 9, 42, 0
1, 96240, Note_on_c, 9, 54, 22
1, 96240, Note_on_c, 9, 42, 51
1, 96479, Note_on_c, 9, 36, 0
1, 96479, Note_on_c, 9, 54, 0
1, 96479, Note_on_c, 9, 42, 0
1, 96480, Note_on_c, 9, 40, 104
1, 96480, Note_on_c, 9, 54, 86
1, 96480, Note_on_c, 9, 39, 86
1, 96480, Note_on_c, 9, 42, 86
1, 96719, Note_on_c, 9, 40, 0
1, 96719, Note_on_c, 9, 54, 0
1, 96719, Note_on_c, 9, 39, 0
1, 96719, Note_on_c, 9, 42, 0
1, 96720, Note_on_c, 9, 54, 33
1, 96720, Note_on_c, 9, 42, 33
1, 96720, Note_on_c, 9, 36, 94
1, 96839, Note_on_c, 9, 54, 0
1, 96839, Note_on_c, 9, 42, 0
1, 96840, Note_on_c, 9, 54, 29
1, 96959, Note_on_c, 9, 36, 0
1, 96959, Note_on_c, 9, 54, 0
1, 96960, Note_on_c, 9, 54, 33
1, 96960, Note_on_c, 9, 42, 68
1, 96960, Note_on_c, 9, 36, 104
1, 97199, Note_on_c, 9, 54, 0
1, 97199, Note_on_c, 9, 42, 0
1, 97200, Note_on_c, 9, 54, 23
1, 97200, Note_on_c, 9, 42, 31
1, 97439, Note_on_c, 9, 36, 0
1, 97439, Note_on_c, 9, 54, 0
1, 97439, Note_on_c, 9, 42, 0
1, 97440, Note_on_c, 9, 40, 104
1, 97440, Note_on_c, 9, 54, 86
1, 97440, Note_on_c, 9, 39, 86
1, 97440, Note_on_c, 9, 42, 79
1, 97679, Note_on_c, 9, 40, 0
1, 97679, Note_on_c, 9, 54, 0
1, 97679, Note_on_c, 9, 39, 0
1, 97679, Note_on_c, 9, 42, 0
1, 97680, Note_on_c, 9, 54, 25
1, 97680, Note_on_c, 9, 42, 47
1, 97680, Note_on_c, 9, 36, 104
1, 97919, Note_on_c, 9, 54, 0
1, 97919, Note_on_c, 9, 42, 0
1, 97919, Note_on_c, 9, 36, 0
1, 97920, Note_on_c, 9, 54, 27
1, 97920, Note_on_c, 9, 42, 79
1, 98159, Note_on_c, 9, 54, 0
1, 98159, Note_on_c, 9, 42, 0
1, 98160, Note_on_c, 9, 54, 24
1, 98160, Note_on_c, 9, 42, 68
1, 98160, Note_on_c, 9, 36, 104
1, 98399, Note_on_c, 9, 54, 0
1, 98399, Note_on_c, 9, 42, 0
1, 98399, Note_on_c, 9, 36, 0
1, 98400, Note_on_c, 9, 40, 115
1, 98400, Note_on_c, 9, 54, 86
1, 98400, Note_on_c, 9, 39, 86
1, 98400, Note_on_c, 9, 42, 68
1, 98520, Note_on_c, 9, 36, 104
1, 98639, Note_on_c, 9, 40, 0
1, 98639, Note_on_c, 9, 54, 0
1, 98639, Note_on_c, 9, 39, 0
1, 98639, Note_on_c, 9, 42, 0
1, 98640, Note_on_c, 9, 54, 30
1, 98640, Note_on_c, 9, 42, 36
1, 98759, Note_on_c, 9, 54, 0
1, 98759, Note_on_c, 9, 42, 0
1, 98760, Note_on_c, 9, 54, 29
1, 98879, Note_on_c, 9, 36, 0
1, 98879, Note_on_c, 9, 54, 0
1, 98880, Note_on_c, 9, 54, 30
1, 98880, Note_on_c, 9, 42, 73
1, 98880, Note_on_c, 9, 36, 104
1, 99119, Note_on_c, 9, 54, 0
1, 99119, Note_on_c, 9, 42, 0
1, 99120, Note_on_c, 9, 54, 26
1, 99120, Note_on_c, 9, 42, 55
1, 99359, Note_on_c, 9, 36, 0
1, 99359, Note_on_c, 9, 54, 0
1, 99359, Note_on_c, 9, 42, 0
1, 99360, Note_on_c, 9, 40, 104
1, 99360, Note_on_c, 9, 54, 86
1, 99360, Note_on_c, 9, 39, 94
1, 99360, Note_on_c, 9, 42, 79
1, 99599, Note_on_c, 9, 40, 0
1, 99599, Note_on_c, 9, 54, 0
1, 99599, Note_on_c, 9, 39, 0
1, 99599, Note_on_c, 9, 42, 0
1, 99600, Note_on_c, 9, 54, 29
1, 99600, Note_on_c, 9, 42, 68
1, 99600, Note_on_c, 9, 36, 86
1, 99839, Note_on_c, 9, 54, 0
1, 99839, Note_on_c, 9, 42, 0
1, 99839, Note_on_c, 9, 36, 0
1, 99840, Note_on_c, 9, 54, 34
1, 99840, Note_on_c, 9, 42, 86
1, 99840, Note_on_c, 9, 36, 104
1, 100079, Note_on_c, 9, 54, 0
1, 100079, Note_on_c, 9, 42, 0
1, 100080, Note_on_c, 9, 54, 36
1, 100080, Note_on_c, 9, 42, 68
1, 100319, Note_on_c, 9, 36, 0
1, 100319, Note_on_c, 9, 54, 0
1, 100319, Note_on_c, 9, 42, 0
1, 100320, Note_on_c, 9, 40, 115
1, 100320, Note_on_c, 9, 54, 86
1, 100320, Note_on_c, 9, 39, 79
1, 100320, Note_on_c, 9, 42, 79
1, 100559, Note_on_c, 9, 40, 0
1, 100559, Note_on_c, 9, 54, 0
1, 100559, Note_on_c, 9, 39, 0
1, 100559, Note_on_c, 9, 42, 0
1, 100560, Note_on_c, 9, 54, 44
1, 100560, Note_on_c, 9, 42, 59
1, 100560, Note_on_c, 9, 36, 104
1, 100679, Note_on_c, 9, 54, 0
1, 100679, Note_on_c, 9, 42, 0
1, 100680, Note_on_c, 9, 54, 51
1, 100799, Note_on_c, 9, 36, 0
1, 100799, Note_on_c, 9, 54, 0
1, 100800, Note_on_c, 9, 54, 34
1, 100800, Note_on_c, 9, 42, 73
1, 100800, Note_on_c, 9, 36, 115
1, 101039, Note_on_c, 9, 54, 0
1, 101039, Note_on_c, 9, 42, 0
1, 101040, Note_on_c, 9, 54, 32
1, 101040, Note_on_c, 9, 42, 63
1, 101279, Note_on_c, 9, 36, 0
1, 101279, Note_on_c, 9, 54, 0
1, 101279, Note_on_c, 9, 42, 0
1, 101280, Note_on_c, 9, 40, 104
1, 101280, Note_on_c, 9, 54, 86
1, 101280, Note_on_c, 9, 39, 94
1, 101280, Note_on_c, 9, 42, 79
1, 101519, Note_on_c, 9, 40, 0
1, 101519, Note_on_c, 9, 54, 0
1, 101519, Note_on_c, 9, 39, 0
1, 101519, Note_on_c, 9, 42, 0
1, 101520, Note_on_c, 9, 54, 28
1, 101520, Note_on_c, 9, 42, 63
1, 101520, Note_on_c, 9, 36, 115
1, 101759, Note_on_c, 9, 54, 0
1, 101759, Note_on_c, 9, 42, 0
1, 101759, Note_on_c, 9, 36, 0
1, 101760, Note_on_c, 9, 54, 23
1, 101760, Note_on_c, 9, 42, 79
1, 101999, Note_on_c, 9, 54, 0
1, 101999, Note_on_c, 9, 42, 0
1, 102000, Note_on_c, 9, 54, 27
1, 102000, Note_on_c, 9, 42, 63
1, 102000, Note_on_c, 9, 36, 104
1, 102239, Note_on_c, 9, 54, 0
1, 102239, Note_on_c, 9, 42, 0
1, 102239, Note_on_c, 9, 36, 0
1, 102240, Note_on_c, 9, 40, 104
1, 102240, Note_on_c, 9, 54, 79
1, 102240, Note_on_c, 9, 39, 86
1, 102240, Note_on_c, 9, 42, 79
1, 102360, Note_on_c, 9, 36, 104
1, 102479, Note_on_c, 9, 40, 0
1, 102479, Note_on_c, 9, 54, 0
1, 102479, Note_on_c, 9, 39, 0
1, 102479, Note_on_c, 9, 42, 0
1, 102480, Note_on_c, 9, 54, 38
1, 102480, Note_on_c, 9, 42, 32
1, 102599, Note_on_c, 9, 54, 0
1, 102599, Note_on_c, 9, 42, 0
1, 102600, Note_on_c, 9, 54, 13
1, 102719, Note_on_c, 9, 36, 0
1, 102719, Note_on_c, 9, 54, 0
1, 102720, Note_on_c, 9, 54, 38
1, 102720, Note_on_c, 9, 42, 86
1, 102720, Note_on_c, 9, 36, 115
1, 102959, Note_on_c, 9, 54, 0
1, 102959, Note_on_c, 9, 42, 0
1, 102960, Note_on_c, 9, 54, 33
1, 102960, Note_on_c, 9, 42, 47
1, 103199, Note_on_c, 9, 36, 0
1, 103199, Note_on_c, 9, 54, 0
1, 103199, Note_on_c, 9, 42, 0
1, 103200, Note_on_c, 9, 40, 115
1, 103200, Note_on_c, 9, 54, 79
1, 103200, Note_on_c, 9, 39, 79
1, 103200, Note_on_c, 9, 42, 79
1, 103439, Note_on_c, 9, 40, 0
1, 103439, Note_on_c, 9, 54, 0
1, 103439, Note_on_c, 9, 39, 0
1, 103439, Note_on_c, 9, 42, 0
1, 103440, Note_on_c, 9, 54, 26
1, 103440, Note_on_c, 9, 42, 34
1, 103440, Note_on_c, 9, 36, 86
1, 103679, Note_on_c, 9, 54, 0
1, 103679, Note_on_c, 9, 42, 0
1, 103679, Note_on_c, 9, 36, 0
1, 103680, Note_on_c, 9, 54, 25
1, 103680, Note_on_c, 9, 42, 79
1, 103680, Note_on_c, 9, 36, 104
1, 103919, Note_on_c, 9, 54, 0
1, 103919, Note_on_c, 9, 42, 0
1, 103920, Note_on_c, 9, 54, 22
1, 103920, Note_on_c, 9, 42, 51
1, 104159, Note_on_c, 9, 36, 0
1, 104159, Note_on_c, 9, 54, 0
1, 104159, Note_on_c, 9, 42, 0
1, 104160, Note_on_c, 9, 40, 104
1, 104160, Note_on_c, 9, 54, 86
1, 104160, Note_on_c, 9, 39, 86
1, 104160, Note_on_c, 9, 42, 86
1, 104399, Note_on_c, 9, 40, 0
1, 104399, Note_on_c, 9, 54, 0
1, 104399, Note_on_c, 9, 39, 0
1, 104399, Note_on_c, 9, 42, 0
1, 104400, Note_on_c, 9, 54, 33
1, 104400, Note_on_c, 9, 42, 33
1, 104400, Note_on_c, 9, 36, 94
1, 104519, Note_on_c, 9, 54, 0
1, 104519, Note_on_c, 9, 42, 0
1, 104520, Note_on_c, 9, 54, 29
1, 104639, Note_on_c, 9, 36, 0
1, 104639, Note_on_c, 9, 54, 0
1, 104640, Note_on_c, 9, 54, 33
1, 104640, Note_on_c, 9, 42, 68
1, 104640, Note_on_c, 9, 36, 104
1, 104879, Note_on_c, 9, 54, 0
1, 104879, Note_on_c, 9, 42, 0
1, 104880, Note_on_c, 9, 54, 23
1, 104880, Note_on_c, 9, 42, 31
1, 105119, Note_on_c, 9, 36, 0
1, 105119, Note_on_c, 9, 54, 0
1, 105119, Note_on_c, 9, 42, 0
1, 105120, Note_on_c, 9, 40, 104
1, 105120, Note_on_c, 9, 54, 86
1, 105120, Note_on_c, 9, 39, 86
1, 105120, Note_on_c, 9, 42, 79
1, 105359, Note_on_c, 9, 40, 0
1, 105359, Note_on_c, 9, 54, 0
1, 105359, Note_on_c, 9, 39, 0
1, 105359, Note_on_c, 9, 42, 0
1, 105360, Note_on_c, 9, 54, 25
1, 105360, Note_on_c, 9, 42, 47
1, 105360, Note_on_c, 9, 36, 104
1, 105599, Note_on_c, 9, 54, 0
1, 105599, Note_on_c, 9, 42, 0
1, 105599, Note_on_c, 9, 36, 0
1, 105600, Note_on_c, 9, 54, 27
1, 105600, Note_on_c, 9, 42, 79
1, 105839, Note_on_c, 9, 54, 0
1, 105839, Note_on_c, 9, 42, 0
1, 105840, Note_on_c, 9, 54, 24
1, 105840, Note_on_c, 9, 42, 68
1, 105840, Note_on_c, 9, 36, 104
1, 106079, Note_on_c, 9, 54, 0
1, 106079, Note_on_c, 9, 42, 0
1, 106079, Note_on_c, 9, 36, 0
1, 106080, Note_on_c, 9, 40, 115
1, 106080, Note_on_c, 9, 54, 86
1, 106080, Note_on_c, 9, 39, 86
1, 106080, Note_on_c, 9, 42, 68
1, 106200, Note_on_c, 9, 36, 104
1, 106319, Note_on_c, 9, 40, 0
1, 106319, Note_on_c, 9, 54, 0
1, 106319, Note_on_c, 9, 39, 0
1, 106319, Note_on_c, 9, 42, 0
1, 106320, Note_on_c, 9, 54, 30
1, 106320, Note_on_c, 9, 42, 36
1, 106439, Note_on_c, 9, 54, 0
1, 106439, Note_on_c, 9, 42, 0
1, 106440, Note_on_c, 9, 54, 29
1, 106559, Note_on_c, 9, 36, 0
1, 106559, Note_on_c, 9, 54, 0
1, 106560, Note_on_c, 9, 54, 30
1, 106560, Note_on_c, 9, 42, 73
1, 106560, Note_on_c, 9, 36, 104
1, 106799, Note_on_c, 9, 54, 0
1, 106799, Note_on_c, 9, 42, 0
1, 106800, Note_on_c, 9, 54, 26
1, 106800, Note_on_c, 9, 42, 55
1, 107039, Note_on_c, 9, 36, 0
1, 107039, Note_on_c, 9, 54, 0
1, 107039, Note_on_c, 9, 42, 0
1, 107040, Note_on_c, 9, 40, 104
1, 107040, Note_on_c, 9, 54, 86
1, 107040, Note_on_c, 9, 39, 94
1, 107040, Note_on_c, 9, 42, 79
1, 107279, Note_on_c, 9, 40, 0
1, 107279, Note_on_c, 9, 54, 0
1, 107279, Note_on_c, 9, 39, 0
1, 107279, Note_on_c, 9, 42, 0
1, 107280, Note_on_c, 9, 54, 29
1, 107280, Note_on_c, 9, 46, 68
1, 107280, Note_on_c, 9, 36, 86
1, 107519, Note_on_c, 9, 54, 0
1, 107519, Note_on_c, 9, 46, 0
1, 107519, Note_on_c, 9, 36, 0
1, 107520, Note_on_c, 9, 54, 34
1, 107520, Note_on_c, 9, 42, 86
1, 107520, Note_on_c, 9, 36, 104
1, 107759, Note_on_c, 9, 54, 0
1, 107759, Note_on_c, 9, 42, 0
1, 107760, Note_on_c, 9, 54, 36
1, 107760, Note_on_c, 9, 42, 68
1, 107999, Note_on_c, 9, 36, 0
1, 107999, Note_on_c, 9, 54, 0
1, 107999, Note_on_c, 9, 42, 0
1, 108000, Note_on_c, 9, 40, 115
1, 108000, Note_on_c, 9, 54, 86
1, 108000, Note_on_c, 9, 39, 79
1, 108000, Note_on_c, 9, 42, 79
1, 108239, Note_on_c, 9, 40, 0
1, 108239, Note_on_c, 9, 54, 0
1, 108239, Note_on_c, 9, 39, 0
1, 108239, Note_on_c, 9, 42, 0
1, 108240, Note_on_c, 9, 54, 44
1, 108240, Note_on_c, 9, 42, 59
1, 108240, Note_on_c, 9, 36, 104
1, 108359, Note_on_c, 9, 54, 0
1, 108359, Note_on_c, 9, 42, 0
1, 108360, Note_on_c, 9, 54, 51
1, 108479, Note_on_c, 9, 36, 0
1, 108479, Note_on_c, 9, 54, 0
1, 108480, Note_on_c, 9, 54, 34
1, 108480, Note_on_c, 9, 42, 73
1, 108480, Note_on_c, 9, 36, 115
1, 108719, Note_on_c, 9, 54, 0
1, 108719, Note_on_c, 9, 42, 0
1, 108720, Note_on_c, 9, 54, 32
1, 108720, Note_on_c, 9, 42, 63
1, 108959, Note_on_c, 9, 36, 0
1, 108959, Note_on_c, 9, 54, 0
1, 108959, Note_on_c, 9, 42, 0
1, 108960, Note_on_c, 9, 40, 104
1, 108960, Note_on_c, 9, 54, 86
1, 108960, Note_on_c, 9, 39, 94
1, 108960, Note_on_c, 9, 42, 79
1, 109199, Note_on_c, 9, 40, 0
1, 109199, Note_on_c, 9, 54, 0
1, 109199, Note_on_c, 9, 39, 0
1, 109199, Note_on_c, 9, 42, 0
1, 109200, Note_on_c, 9, 54, 28
1, 109200, Note_on_c, 9, 42, 63
1, 109200, Note_on_c, 9, 36, 115
1, 109439, Note_on_c, 9, 54, 0
1, 109439, Note_on_c, 9, 42, 0
1, 109439, Note_on_c, 9, 36, 0
1, 109440, Note_on_c, 9, 54, 23
1, 109440, Note_on_c, 9, 42, 79
1, 109679, Note_on_c, 9, 54, 0
1, 109679, Note_on_c, 9, 42, 0
1, 109680, Note_on_c, 9, 54, 27
1, 109680, Note_on_c, 9, 42, 63
1, 109680, Note_on_c, 9, 36, 104
1, 109919, Note_on_c, 9, 54, 0
1, 109919, Note_on_c, 9, 42, 0
1, 109919, Note_on_c, 9, 36, 0
1, 109920, Note_on_c, 9, 40, 104
1, 109920, Note_on_c, 9, 54, 79
1, 109920, Note_on_c, 9, 39, 86
1, 109920, Note_on_c, 9, 42, 79
1, 110040, Note_on_c, 9, 36, 104
1, 110159, Note_on_c, 9, 40, 0
1, 110159, Note_on_c, 9, 54, 0
1, 110159, Note_on_c, 9, 39, 0
1, 110159, Note_on_c, 9, 42, 0
1, 110160, Note_on_c, 9, 54, 38
1, 110160, Note_on_c, 9, 42, 32
1, 110279, Note_on_c, 9, 54, 0
1, 110279, Note_on_c, 9, 42, 0
1, 110280, Note_on_c, 9, 54, 13
1, 110399, Note_on_c, 9, 36, 0
1, 110399, Note_on_c, 9, 54, 0
1, 110400, Note_on_c, 9, 54, 38
1, 110400, Note_on_c, 9, 42, 86
1, 110400, Note_on_c, 9, 36, 115
1, 110639, Note_on_c, 9, 54, 0
1, 110639, Note_on_c, 9, 42, 0
1, 110640, Note_on_c, 9, 54, 33
1, 110640, Note_on_c, 9, 42, 47
1, 110879, Note_on_c, 9, 36, 0
1, 110879, Note_on_c, 9, 54, 0
1, 110879, Note_on_c, 9, 42, 0
1, 110880, Note_on_c, 9, 40, 115
1, 110880, Note_on_c, 9, 54, 79
1, 110880, Note_on_c, 9, 39, 79
1, 110880, Note_on_c, 9, 42, 79
1, 111119, Note_on_c, 9, 40, 0
1, 111119, Note_on_c, 9, 54, 0
1, 111119, Note_on_c, 9, 39, 0
1, 111119, Note_on_c, 9, 42, 0
1, 111120, Note_on_c, 9, 54, 26
1, 111120, Note_on_c, 9, 42, 34
1, 111120, Note_on_c, 9, 36, 86
1, 111359, Note_on_c, 9, 54, 0
1, 111359, Note_on_c, 9, 42, 0
1, 111359, Note_on_c, 9, 36, 0
1, 111360, Note_on_c, 9, 54, 25
1, 111360, Note_on_c, 9, 42, 79
1, 111360, Note_on_c, 9, 36, 104
1, 111599, Note_on_c, 9, 54, 0
1, 111599, Note_on_c, 9, 42, 0
1, 111600, Note_on_c, 9, 54, 22
1, 111600, Note_on_c, 9, 42, 51
1, 111839, Note_on_c, 9, 36, 0
1, 111839, Note_on_c, 9, 54, 0
1, 111839, Note_on_c, 9, 42, 0
1, 111840, Note_on_c, 9, 40, 104
1, 111840, Note_on_c, 9, 54, 86
1, 111840, Note_on_c, 9, 39, 86
1, 111840, Note_on_c, 9, 42, 86
1, 112079, Note_on_c, 9, 40, 0
1, 112079, Note_on_c, 9, 54, 0
1, 112079, Note_on_c, 9, 39, 0
1, 112079, Note_on_c, 9, 42, 0
1, 112080, Note_on_c, 9, 54, 33
1, 112080, Note_on_c, 9, 42, 33
1, 112080, Note_on_c, 9, 36, 94
1, 112199, Note_on_c, 9, 54, 0
1, 112199, Note_on_c, 9, 42, 0
1, 112200, Note_on_c, 9, 54, 29
1, 112319, Note_on_c, 9, 36, 0
1, 112319, Note_on_c, 9, 54, 0
1, 112320, Note_on_c, 9, 54, 33
1, 112320, Note_on_c, 9, 42, 68
1, 112320, Note_on_c, 9, 36, 104
1, 112559, Note_on_c, 9, 54, 0
1, 112559, Note_on_c, 9, 42, 0
1, 112560, Note_on_c, 9, 54, 23
1, 112560, Note_on_c, 9, 42, 31
1, 112799, Note_on_c, 9, 36, 0
1, 112799, Note_on_c, 9, 54, 0
1, 112799, Note_on_c, 9, 42, 0
1, 112800, Note_on_c, 9, 40, 104
1, 112800, Note_on_c, 9, 54, 86
1, 112800, Note_on_c, 9, 39, 86
1, 112800, Note_on_c, 9, 42, 79
1, 113039, Note_on_c, 9, 40, 0
1, 113039, Note_on_c, 9, 54, 0
1, 113039, Note_on_c, 9, 39, 0
1, 113039, Note_on_c, 9, 42, 0
1, 113040, Note_on_c, 9, 54, 25
1, 113040, Note_on_c, 9, 42, 47
1, 113040, Note_on_c, 9, 36, 104
1, 113279, Note_on_c, 9, 54, 0
1, 113279, Note_on_c, 9, 42, 0
1, 113279, Note_on_c, 9, 36, 0
1, 113280, Note_on_c, 9, 54, 27
1, 113280, Note_on_c, 9, 42, 79
1, 113519, Note_on_c, 9, 54, 0
1, 113519, Note_on_c, 9, 42, 0
1, 113520, Note_on_c, 9, 54, 24
1, 113520, Note_on_c, 9, 42, 68
1, 113520, Note_on_c, 9, 36, 104
1, 113759, Note_on_c, 9, 54, 0
1, 113759, Note_on_c, 9, 42, 0
1, 113759, Note_on_c, 9, 36, 0
1, 113760, Note_on_c, 9, 40, 115
1, 113760, Note_on_c, 9, 54, 86
1, 113760, Note_on_c, 9, 39, 86
1, 113760, Note_on_c, 9, 42, 68
1, 113880, Note_on_c, 9, 36, 104
1, 113999, Note_on_c, 9, 40, 0
1, 113999, Note_on_c, 9, 54, 0
1, 113999, Note_on_c, 9, 39, 0
1, 113999, Note_on_c, 9, 42, 0
1, 114000, Note_on_c, 9, 54, 30
1, 114000, Note_on_c, 9, 42, 36
1, 114119, Note_on_c, 9, 54, 0
1, 114119, Note_on_c, 9, 42, 0
1, 114120, Note_on_c, 9, 54, 29
1, 114239, Note_on_c, 9, 36, 0
1, 114239, Note_on_c, 9, 54, 0
1, 114240, Note_on_c, 9, 54, 30
1, 114240, Note_on_c, 9, 42, 73
1, 114240, Note_on_c, 9, 36, 104
1, 114479, Note_on_c, 9, 54, 0
1, 114479, Note_on_c, 9, 42, 0
1, 114480, Note_on_c, 9, 54, 26
1, 114480, Note_on_c, 9, 42, 55
1, 114719, Note_on_c, 9, 36, 0
1, 114719, Note_on_c, 9, 54, 0
1, 114719, Note_on_c, 9, 42, 0
1, 114720, Note_on_c, 9, 40, 104
1, 114720, Note_on_c, 9, 54, 86
1, 114720, Note_on_c, 9, 39, 94
1, 114720, Note_on_c, 9, 42, 79
1, 114959, Note_on_c, 9, 40, 0
1, 114959, Note_on_c, 9, 54, 0
1, 114959, Note_on_c, 9, 39, 0
1, 114959, Note_on_c, 9, 42, 0
1, 114960, Note_on_c, 9, 54, 29
1, 114960, Note_on_c, 9, 42, 68
1, 114960, Note_on_c, 9, 36, 86
1, 115199, Note_on_c, 9, 54, 0
1, 115199, Note_on_c, 9, 42, 0
1, 115199, Note_on_c, 9, 36, 0
1, 115200, Note_on_c, 9, 54, 34
1, 115200, Note_on_c, 9, 42, 86
1, 115200, Note_on_c, 9, 36, 104
1, 115439, Note_on_c, 9, 54, 0
1, 115439, Note_on_c, 9, 42, 0
1, 115440, Note_on_c, 9, 54, 36
1, 115440, Note_on_c, 9, 42, 68
1, 115679, Note_on_c, 9, 36, 0
1, 115679, Note_on_c, 9, 54, 0
1, 115679, Note_on_c, 9, 42, 0
1, 115680, Note_on_c, 9, 40, 115
1, 115680, Note_on_c, 9, 54, 86
1, 115680, Note_on_c, 9, 39, 79
1, 115680, Note_on_c, 9, 42, 79
1, 115919, Note_on_c, 9, 40, 0
1, 115919, Note_on_c, 9, 54, 0
1, 115919, Note_on_c, 9, 39, 0
1, 115919, Note_on_c, 9, 42, 0
1, 115920, Note_on_c, 9, 54, 44
1, 115920, Note_on_c, 9, 42, 59
1, 115920, Note_on_c, 9, 36, 104
1, 116039, Note_on_c, 9, 54, 0
1, 116039, Note_on_c, 9, 42, 0
1, 116040, Note_on_c, 9, 54, 51
1, 116159, Note_on_c, 9, 36, 0
1, 116159, Note_on_c, 9, 54, 0
1, 116160, Note_on_c, 9, 54, 34
1, 116160, Note_on_c, 9, 42, 73
1, 116160, Note_on_c, 9, 36, 115
1, 116399, Note_on_c, 9, 54, 0
1, 116399, Note_on_c, 9, 42, 0
1, 116400, Note_on_c, 9, 54, 32
1, 116400, Note_on_c, 9, 42, 63
1, 116639, Note_on_c, 9, 36, 0
1, 116639, Note_on_c, 9, 54, 0
1, 116639, Note_on_c, 9, 42, 0
1, 116640, Note_on_c, 9, 40, 104
1, 116640, Note_on_c, 9, 54, 86
1, 116640, Note_on_c, 9, 39, 94
1, 116640, Note_on_c, 9, 42, 79
1, 116879, Note_on_c, 9, 40, 0
1, 116879, Note_on_c, 9, 54, 0
1, 116879, Note_on_c, 9, 39, 0
1, 116879, Note_on_c, 9, 42, 0
1, 116880, Note_on_c, 9, 54, 28
1, 116880, Note_on_c, 9, 42, 63
1, 116880, Note_on_c, 9, 36, 115
1, 117119, Note_on_c, 9, 54, 0
1, 117119, Note_on_c, 9, 42, 0
1, 117119, Note_on_c, 9, 36, 0
1, 117120, Note_on_c, 9, 54, 23
1, 117120, Note_on_c, 9, 42, 79
1, 117359, Note_on_c, 9, 54, 0
1, 117359, Note_on_c, 9, 42, 0
1, 117360, Note_on_c, 9, 54, 27
1, 117360, Note_on_c, 9, 42, 63
1, 117360, Note_on_c, 9, 36, 104
1, 117599, Note_on_c, 9, 54, 0
1, 117599, Note_on_c, 9, 42, 0
1, 117599, Note_on_c, 9, 36, 0
1, 117600, Note_on_c, 9, 40, 104
1, 117600, Note_on_c, 9, 54, 79
1, 117600, Note_on_c, 9, 39, 86
1, 117600, Note_on_c, 9, 42, 79
1, 117720, Note_on_c, 9, 36, 104
1, 117839, Note_on_c, 9, 40, 0
1, 117839, Note_on_c, 9, 54, 0
1, 117839, Note_on_c, 9, 39, 0
1, 117839, Note_on_c, 9, 42, 0
1, 117840, Note_on_c, 9, 54, 38
1, 117840, Note_on_c, 9, 42, 32
1, 117959, Note_on_c, 9, 54, 0
1, 117959, Note_on_c, 9, 42, 0
1, 117960, Note_on_c, 9, 54, 13
1, 118079, Note_on_c, 9, 36, 0
1, 118079, Note_on_c, 9, 54, 0
1, 118080, Note_on_c, 9, 54, 38
1, 118080, Note_on_c, 9, 42, 86
1, 118080, Note_on_c, 9, 36, 115
1, 118319, Note_on_c, 9, 54, 0
1, 118319, Note_on_c, 9, 42, 0
1, 118320, Note_on_c, 9, 54, 33
1, 118320, Note_on_c, 9, 42, 47
1, 118559, Note_on_c, 9, 36, 0
1, 118559, Note_on_c, 9, 54, 0
1, 118559, Note_on_c, 9, 42, 0
1, 118560, Note_on_c, 9, 40, 115
1, 118560, Note_on_c, 9, 54, 79
1, 118560, Note_on_c, 9, 39, 79
1, 118560, Note_on_c, 9, 42, 79
1, 118799, Note_on_c, 9, 40, 0
1, 118799, Note_on_c, 9, 54, 0
1, 118799, Note_on_c, 9, 39, 0
1, 118799, Note_on_c, 9, 42, 0
1, 118800, Note_on_c, 9, 54, 26
1, 118800, Note_on_c, 9, 42, 34
1, 118800, Note_on_c, 9, 36, 86
1, 119039, Note_on_c, 9, 54, 0
1, 119039, Note_on_c, 9, 42, 0
1, 119039, Note_on_c, 9, 36, 0
1, 119040, Note_on_c, 9, 54, 25
1, 119040, Note_on_c, 9, 42, 79
1, 119040, Note_on_c, 9, 36, 104
1, 119279, Note_on_c, 9, 54, 0
1, 119279, Note_on_c, 9, 42, 0
1, 119280, Note_on_c, 9, 54, 22
1, 119280, Note_on_c, 9, 42, 51
1, 119519, Note_on_c, 9, 36, 0
1, 119519, Note_on_c, 9, 54, 0
1, 119519, Note_on_c, 9, 42, 0
1, 119520, Note_on_c, 9, 40, 104
1, 119520, Note_on_c, 9, 54, 86
1, 119520, Note_on_c, 9, 39, 86
1, 119520, Note_on_c, 9, 42, 86
1, 119759, Note_on_c, 9, 40, 0
1, 119759, Note_on_c, 9, 54, 0
1, 119759, Note_on_c, 9, 39, 0
1, 119759, Note_on_c, 9, 42, 0
1, 119760, Note_on_c, 9, 54, 33
1, 119760, Note_on_c, 9, 42, 33
1, 119760, Note_on_c, 9, 36, 94
1, 119879, Note_on_c, 9, 54, 0
1, 119879, Note_on_c, 9, 42, 0
1, 119880, Note_on_c, 9, 54, 29
1, 119999, Note_on_c, 9, 36, 0
1, 119999, Note_on_c, 9, 54, 0
1, 120000, Note_on_c, 9, 54, 33
1, 120000, Note_on_c, 9, 42, 68
1, 120000, Note_on_c, 9, 36, 104
1, 120239, Note_on_c, 9, 54, 0
1, 120239, Note_on_c, 9, 42, 0
1, 120240, Note_on_c, 9, 54, 23
1, 120240, Note_on_c, 9, 42, 31
1, 120479, Note_on_c, 9, 36, 0
1, 120479, Note_on_c, 9, 54, 0
1, 120479, Note_on_c, 9, 42, 0
1, 120480, Note_on_c, 9, 40, 104
1, 120480, Note_on_c, 9, 54, 86
1, 120480, Note_on_c, 9, 39, 86
1, 120480, Note_on_c, 9, 42, 79
1, 120719, Note_on_c, 9, 40, 0
1, 120719, Note_on_c, 9, 54, 0
1, 120719, Note_on_c, 9, 39, 0
1, 120719, Note_on_c, 9, 42, 0
1, 120720, Note_on_c, 9, 54, 25
1, 120720, Note_on_c, 9, 42, 47
1, 120720, Note_on_c, 9, 36, 104
1, 120959, Note_on_c, 9, 54, 0
1, 120959, Note_on_c, 9, 42, 0
1, 120959, Note_on_c, 9, 36, 0
1, 120960, Note_on_c, 9, 54, 27
1, 120960, Note_on_c, 9, 42, 79
1, 121199, Note_on_c, 9, 54, 0
1, 121199, Note_on_c, 9, 42, 0
1, 121200, Note_on_c, 9, 54, 24
1, 121200, Note_on_c, 9, 42, 68
1, 121200, Note_on_c, 9, 36, 104
1, 121439, Note_on_c, 9, 54, 0
1, 121439, Note_on_c, 9, 42, 0
1, 121439, Note_on_c, 9, 36, 0
1, 121440, Note_on_c, 9, 40, 115
1, 121440, Note_on_c, 9, 54, 86
1, 121440, Note_on_c, 9, 39, 86
1, 121440, Note_on_c, 9, 42, 68
1, 121560, Note_on_c, 9, 36, 104
1, 121679, Note_on_c, 9, 40, 0
1, 121679, Note_on_c, 9, 54, 0
1, 121679, Note_on_c, 9, 39, 0
1, 121679, Note_on_c, 9, 42, 0
1, 121680, Note_on_c, 9, 54, 30
1, 121680, Note_on_c, 9, 42, 36
1, 121799, Note_on_c, 9, 54, 0
1, 121799, Note_on_c, 9, 42, 0
1, 121800, Note_on_c, 9, 54, 29
1, 121919, Note_on_c, 9, 36, 0
1, 121919, Note_on_c, 9, 54, 0
1, 121920, Note_on_c, 9, 54, 30
1, 121920, Note_on_c, 9, 42, 73
1, 121920, Note_on_c, 9, 36, 104
1, 122159, Note_on_c, 9, 54, 0
1, 122159, Note_on_c, 9, 42, 0
1, 122160, Note_on_c, 9, 54, 26
1, 122160, Note_on_c, 9, 42, 55
1, 122399, Note_on_c, 9, 36, 0
1, 122399, Note_on_c, 9, 54, 0
1, 122399, Note_on_c, 9, 42, 0
1, 122400, Note_on_c, 9, 40, 104
1, 122400, Note_on_c, 9, 54, 86
1, 122400, Note_on_c, 9, 39, 94
1, 122400, Note_on_c, 9, 42, 79
1, 122639, Note_on_c, 9, 40, 0
1, 122639, Note_on_c, 9, 54, 0
1, 122639, Note_on_c, 9, 39, 0
1, 122639, Note_on_c, 9, 42, 0
1, 122640, Note_on_c, 9, 54, 29
1, 122640, Note_on_c, 9, 46, 68
1, 122640, Note_on_c, 9, 36, 86
1, 122879, Note_on_c, 9, 54, 0
1, 122879, Note_on_c, 9, 46, 0
1, 122879, Note_on_c, 9, 36, 0
1, 122880, Note_on_c, 9, 54, 34
1, 122880, Note_on_c, 9, 42, 86
1, 122880, Note_on_c, 9, 36, 104
1, 123119, Note_on_c, 9, 54, 0
1, 123119, Note_on_c, 9, 42, 0
1, 123120, Note_on_c, 9, 54, 36
1, 123120, Note_on_c, 9, 42, 68
1, 123359, Note_on_c, 9, 36, 0
1, 123359, Note_on_c, 9, 54, 0
1, 123359, Note_on_c, 9, 42, 0
1, 123360, Note_on_c, 9, 40, 115
1, 123360, Note_on_c, 9, 54, 86
1, 123360, Note_on_c, 9, 39, 79
1, 123360, Note_on_c, 9, 42, 79
1, 123599, Note_on_c, 9, 40, 0
1, 123599, Note_on_c, 9, 54, 0
1, 123599, Note_on_c, 9, 39, 0
1, 123599, Note_on_c, 9, 42, 0
1, 123600, Note_on_c, 9, 54, 44
1, 123600, Note_on_c, 9, 42, 59
1, 123600, Note_on_c, 9, 36, 104
1, 123719, Note_on_c, 9, 54, 0
1, 123719, Note_on_c, 9, 42, 0
1, 123720, Note_on_c, 9, 54, 51
1, 123839, Note_on_c, 9, 36, 0
1, 123839, Note_on_c, 9, 54, 0
1, 123840, Note_on_c, 9, 54, 34
1, 123840, Note_on_c, 9, 42, 73
1, 123840, Note_on_c, 9, 36, 115
1, 124079, Note_on_c, 9, 54, 0
1, 124079, Note_on_c, 9, 42, 0
1, 124080, Note_on_c, 9, 54, 32
1, 124080, Note_on_c, 9, 42, 63
1, 124319, Note_on_c, 9, 36, 0
1, 124319, Note_on_c, 9, 54, 0
1, 124319, Note_on_c, 9, 42, 0
1, 124320, Note_on_c, 9, 40, 104
1, 124320, Note_on_c, 9, 54, 86
1, 124320, Note_on_c, 9, 39, 94
1, 124320, Note_on_c, 9, 42, 79
1, 124559, Note_on_c, 9, 40, 0
1, 124559, Note_on_c, 9, 54, 0
1, 124559, Note_on_c, 9, 39, 0
1, 124559, Note_on_c, 9, 42, 0
1, 124560, Note_on_c, 9, 54, 28
1, 124560, Note_on_c, 9, 42, 63
1, 124560, Note_on_c, 9, 36, 115
1, 124799, Note_on_c, 9, 54, 0
1, 124799, Note_on_c, 9, 42, 0
1, 124799, Note_on_c, 9, 36, 0
1, 124800, Note_on_c, 9, 54, 23
1, 124800, Note_on_c, 9, 42, 79
1, 125039, Note_on_c, 9, 54, 0
1, 125039, Note_on_c, 9, 42, 0
1, 125040, Note_on_c, 9, 54, 27
1, 125040, Note_on_c, 9, 42, 63
1, 125040, Note_on_c, 9, 36, 104
1, 125279, Note_on_c, 9, 54, 0
1, 125279, Note_on_c, 9, 42, 0
1, 125279, Note_on_c, 9, 36, 0
1, 125280, Note_on_c, 9, 40, 104
1, 125280, Note_on_c, 9, 54, 79
1, 125280, Note_on_c, 9, 39, 86
1, 125280, Note_on_c, 9, 42, 79
1, 125400, Note_on_c, 9, 36, 104
1, 125519, Note_on_c, 9, 40, 0
1, 125519, Note_on_c, 9, 54, 0
1, 125519, Note_on_c, 9, 39, 0
1, 125519, Note_on_c, 9, 42, 0
1, 125520, Note_on_c, 9, 54, 38
1, 125520, Note_on_c, 9, 42, 32
1, 125639, Note_on_c, 9, 54, 0
1, 125639, Note_on_c, 9, 42, 0
1, 125640, Note_on_c, 9, 54, 13
1, 125759, Note_on_c, 9, 36, 0
1, 125759, Note_on_c, 9, 54, 0
1, 125760, Note_on_c, 9, 54, 38
1, 125760, Note_on_c, 9, 42, 86
1, 125760, Note_on_c, 9, 36, 115
1, 125999, Note_on_c, 9, 54, 0
1, 125999, Note_on_c, 9, 42, 0
1, 126000, Note_on_c, 9, 54, 33
1, 126000, Note_on_c, 9, 42, 47
1, 126239, Note_on_c, 9, 36, 0
1, 126239, Note_on_c, 9, 54, 0
1, 126239, Note_on_c, 9, 42, 0
1, 126240, Note_on_c, 9, 40, 115
1, 126240, Note_on_c, 9, 54, 79
1, 126240, Note_on_c, 9, 39, 79
1, 126240, Note_on_c, 9, 42, 79
1, 126479, Note_on_c, 9, 40, 0
1, 126479, Note_on_c, 9, 54, 0
1, 126479, Note_on_c, 9, 39, 0
1, 126479, Note_on_c, 9, 42, 0
1, 126480, Note_on_c, 9, 54, 26
1, 126480, Note_on_c, 9, 42, 34
1, 126480, Note_on_c, 9, 36, 86
1, 126719, Note_on_c, 9, 54, 0
1, 126719, Note_on_c, 9, 42, 0
1, 126719, Note_on_c, 9, 36, 0
1, 126720, Note_on_c, 9, 54, 25
1, 126720, Note_on_c, 9, 42, 79
1, 126720, Note_on_c, 9, 36, 104
1, 126959, Note_on_c, 9, 54, 0
1, 126959, Note_on_c, 9, 42, 0
1, 126960, Note_on_c, 9, 54, 22
1, 126960, Note_on_c, 9, 42, 51
1, 127199, Note_on_c, 9, 36, 0
1, 127199, Note_on_c, 9, 54, 0
1, 127199, Note_on_c, 9, 42, 0
1, 127200, Note_on_c, 9, 40, 104
1, 127200, Note_on_c, 9, 54, 86
1, 127200, Note_on_c, 9, 39, 86
1, 127200, Note_on_c, 9, 42, 86
1, 127439, Note_on_c, 9, 40, 0
1, 127439, Note_on_c, 9, 54, 0
1, 127439, Note_on_c, 9, 39, 0
1, 127439, Note_on_c, 9, 42, 0
1, 127440, Note_on_c, 9, 54, 33
1, 127440, Note_on_c, 9, 42, 33
1, 127440, Note_on_c, 9, 36, 94
1, 127559, Note_on_c, 9, 54, 0
1, 127559, Note_on_c, 9, 42, 0
1, 127560, Note_on_c, 9, 54, 29
1, 127679, Note_on_c, 9, 36, 0
1, 127679, Note_on_c, 9, 54, 0
1, 127680, Note_on_c, 9, 54, 33
1, 127680, Note_on_c, 9, 42, 68
1, 127680, Note_on_c, 9, 36, 104
1, 127919, Note_on_c, 9, 54, 0
1, 127919, Note_on_c, 9, 42, 0
1, 127920, Note_on_c, 9, 54, 23
1, 127920, Note_on_c, 9, 42, 31
1, 128159, Note_on_c, 9, 36, 0
1, 128159, Note_on_c, 9, 54, 0
1, 128159, Note_on_c, 9, 42, 0
1, 128160, Note_on_c, 9, 40, 104
1, 128160, Note_on_c, 9, 54, 86
1, 128160, Note_on_c, 9, 39, 86
1, 128160, Note_on_c, 9, 42, 79
1, 128399, Note_on_c, 9, 40, 0
1, 128399, Note_on_c, 9, 54, 0
1, 128399, Note_on_c, 9, 39, 0
1, 128399, Note_on_c, 9, 42, 0
1, 128400, Note_on_c, 9, 54, 25
1, 128400, Note_on_c, 9, 42, 47
1, 128400, Note_on_c, 9, 36, 104
1, 128639, Note_on_c, 9, 54, 0
1, 128639, Note_on_c, 9, 42, 0
1, 128639, Note_on_c, 9, 36, 0
1, 128640, Note_on_c, 9, 54, 27
1, 128640, Note_on_c, 9, 42, 79
1, 128879, Note_on_c, 9, 54, 0
1, 128879, Note_on_c, 9, 42, 0
1, 128880, Note_on_c, 9, 54, 24
1, 128880, Note_on_c, 9, 42, 68
1, 128880, Note_on_c, 9, 36, 104
1, 129119, Note_on_c, 9, 54, 0
1, 129119, Note_on_c, 9, 42, 0
1, 129119, Note_on_c, 9, 36, 0
1, 129120, Note_on_c, 9, 40, 115
1, 129120, Note_on_c, 9, 54, 86
1, 129120, Note_on_c, 9, 39, 86
1, 129120, Note_on_c, 9, 42, 68
1, 129240, Note_on_c, 9, 36, 104
1, 129359, Note_on_c, 9, 40, 0
1, 129359, Note_on_c, 9, 54, 0
1, 129359, Note_on_c, 9, 39, 0
1, 129359, Note_on_c, 9, 42, 0
1, 129360, Note_on_c, 9, 54, 30
1, 129360, Note_on_c, 9, 42, 36
1, 129479, Note_on_c, 9, 54, 0
1, 129479, Note_on_c, 9, 42, 0
1, 129480, Note_on_c, 9, 54, 29
1, 129599, Note_on_c, 9, 36, 0
1, 129599, Note_on_c, 9, 54, 0
1, 129600, Note_on_c, 9, 54, 30
1, 129600, Note_on_c, 9, 42, 73
1, 129600, Note_on_c, 9, 36, 104
1, 129839, Note_on_c, 9, 54, 0
1, 129839, Note_on_c, 9, 42, 0
1, 129840, Note_on_c, 9, 54, 26
1, 129840, Note_on_c, 9, 42, 55
1, 130079, Note_on_c, 9, 36, 0
1, 130079, Note_on_c, 9, 54, 0
1, 130079, Note_on_c, 9, 42, 0
1, 130080, Note_on_c, 9, 40, 104
1, 130080, Note_on_c, 9, 54, 86
1, 130080, Note_on_c, 9, 39, 94
1, 130080, Note_on_c, 9, 42, 79
1, 130319, Note_on_c, 9, 40, 0
1, 130319, Note_on_c, 9, 54, 0
1, 130319, Note_on_c, 9, 39, 0
1, 130319, Note_on_c, 9, 42, 0
1, 130320, Note_on_c, 9, 54, 29
1, 130320, Note_on_c, 9, 42, 68
1, 130320, Note_on_c, 9, 36, 86
1, 130559, Note_on_c, 9, 54, 0
1, 130559, Note_on_c, 9, 42, 0
1, 130559, Note_on_c, 9, 36, 0
1, 130560, Note_on_c, 9, 54, 34
1, 130560, Note_on_c, 9, 42, 86
1, 130560, Note_on_c, 9, 36, 104
1, 130799, Note_on_c, 9, 54, 0
1, 130799, Note_on_c, 9, 42, 0
1, 130800, Note_on_c, 9, 54, 36
1, 130800, Note_on_c, 9, 42, 68
1, 131039, Note_on_c, 9, 36, 0
1, 131039, Note_on_c, 9, 54, 0
1, 131039, Note_on_c, 9, 42, 0
1, 131040, Note_on_c, 9, 40, 115
1, 131040, Note_on_c, 9, 54, 86
1, 131040, Note_on_c, 9, 39, 79
1, 131040, Note_on_c, 9, 42, 79
1, 131279, Note_on_c, 9, 40, 0
1, 131279, Note_on_c, 9, 54, 0
1, 131279, Note_on_c, 9, 39, 0
1, 131279, Note_on_c, 9, 42, 0
1, 131280, Note_on_c, 9, 54, 44
1, 131280, Note_on_c, 9, 42, 59
1, 131280, Note_on_c, 9, 36, 104
1, 131399, Note_on_c, 9, 54, 0
1, 131399, Note_on_c, 9, 42, 0
1, 131400, Note_on_c, 9, 54, 51
1, 131519, Note_on_c, 9, 36, 0
1, 131519, Note_on_c, 9, 54, 0
1, 131520, Note_on_c, 9, 54, 34
1, 131520, Note_on_c, 9, 42, 73
1, 131520, Note_on_c, 9, 36, 115
1, 131759, Note_on_c, 9, 54, 0
1, 131759, Note_on_c, 9, 42, 0
1, 131760, Note_on_c, 9, 54, 32
1, 131760, Note_on_c, 9, 42, 63
1, 131999, Note_on_c, 9, 36, 0
1, 131999, Note_on_c, 9, 54, 0
1, 131999, Note_on_c, 9, 42, 0
1, 132000, Note_on_c, 9, 40, 104
1, 132000, Note_on_c, 9, 54, 86
1, 132000, Note_on_c, 9, 39, 94
1, 132000, Note_on_c, 9, 42, 79
1, 132239, Note_on_c, 9, 40, 0
1, 132239, Note_on_c, 9, 54, 0
1, 132239, Note_on_c, 9, 39, 0
1, 132239, Note_on_c, 9, 42, 0
1, 132240, Note_on_c, 9, 54, 28
1, 132240, Note_on_c, 9, 42, 63
1, 132240, Note_on_c, 9, 36, 115
1, 132479, Note_on_c, 9, 54, 0
1, 132479, Note_on_c, 9, 42, 0
1, 132479, Note_on_c, 9, 36, 0
1, 132480, Note_on_c, 9, 54, 23
1, 132480, Note_on_c, 9, 42, 79
1, 132719, Note_on_c, 9, 54, 0
1, 132719, Note_on_c, 9, 42, 0
1, 132720, Note_on_c, 9, 54, 27
1, 132720, Note_on_c, 9, 42, 63
1, 132720, Note_on_c, 9, 36, 104
1, 132959, Note_on_c, 9, 54, 0
1, 132959, Note_on_c, 9, 42, 0
1, 132959, Note_on_c, 9, 36, 0
1, 132960, Note_on_c, 9, 40, 104
1, 132960, Note_on_c, 9, 54, 79
1, 132960, Note_on_c, 9, 39, 86
1, 132960, Note_on_c, 9, 42, 79
1, 133080, Note_on_c, 9, 36, 104
1, 133199, Note_on_c, 9, 40, 0
1, 133199, Note_on_c, 9, 54, 0
1, 133199, Note_on_c, 9, 39, 0
1, 133199, Note_on_c, 9, 42, 0
1, 133200, Note_on_c, 9, 54, 38
1, 133200, Note_on_c, 9, 42, 32
1, 133319, Note_on_c, 9, 54, 0
1, 133319, Note_on_c, 9, 42, 0
1, 133320, Note_on_c, 9, 54, 13
1, 133439, Note_on_c, 9, 36, 0
1, 133439, Note_on_c, 9, 54, 0
1, 133440, Note_on_c, 9, 54, 38
1, 133440, Note_on_c, 9, 42, 86
1, 133440, Note_on_c, 9, 36, 115
1, 133679, Note_on_c, 9, 54, 0
1, 133679, Note_on_c, 9, 42, 0
1, 133680, Note_on_c, 9, 54, 33
1, 133680, Note_on_c, 9, 42, 47
1, 133919, Note_on_c, 9, 36, 0
1, 133919, Note_on_c, 9, 54, 0
1, 133919, Note_on_c, 9, 42, 0
1, 133920, Note_on_c, 9, 40, 115
1, 133920, Note_on_c, 9, 54, 79
1, 133920, Note_on_c, 9, 39, 79
1, 133920, Note_on_c, 9, 42, 79
1, 134159, Note_on_c, 9, 40, 0
1, 134159, Note_on_c, 9, 54, 0
1, 134159, Note_on_c, 9, 39, 0
1, 134159, Note_on_c, 9, 42, 0
1, 134160, Note_on_c, 9, 54, 26
1, 134160, Note_on_c, 9, 42, 34
1, 134160, Note_on_c, 9, 36, 86
1, 134399, Note_on_c, 9, 54, 0
1, 134399, Note_on_c, 9, 42, 0
1, 134399, Note_on_c, 9, 36, 0
1, 134400, Note_on_c, 9, 54, 34
1, 134400, Note_on_c, 9, 42, 86
1, 134400, Note_on_c, 9, 36, 104
1, 134639, Note_on_c, 9, 54, 0
1, 134639, Note_on_c, 9, 42, 0
1, 134640, Note_on_c, 9, 54, 36
1, 134640, Note_on_c, 9, 42, 68
1, 134879, Note_on_c, 9, 36, 0
1, 134879, Note_on_c, 9, 54, 0
1, 134879, Note_on_c, 9, 42, 0
1, 134880, Note_on_c, 9, 40, 115
1, 134880, Note_on_c, 9, 54, 86
1, 134880, Note_on_c, 9, 39, 79
1, 134880, Note_on_c, 9, 42, 79
1, 135119, Note_on_c, 9, 40, 0
1, 135119, Note_on_c, 9, 54, 0
1, 135119, Note_on_c, 9, 39, 0
1, 135119, Note_on_c, 9, 42, 0
1, 135120, Note_on_c, 9, 54, 44
1, 135120, Note_on_c, 9, 42, 59
1, 135120, Note_on_c, 9, 36, 104
1, 135239, Note_on_c, 9, 54, 0
1, 135239, Note_on_c, 9, 42, 0
1, 135240, Note_on_c, 9, 54, 51
1, 135359, Note_on_c, 9, 36, 0
1, 135359, Note_on_c, 9, 54, 0
1, 135360, Note_on_c, 9, 54, 34
1, 135360, Note_on_c, 9, 42, 73
1, 135360, Note_on_c, 9, 36, 115
1, 135599, Note_on_c, 9, 54, 0
1, 135599, Note_on_c, 9, 42, 0
1, 135600, Note_on_c, 9, 54, 32
1, 135600, Note_on_c, 9, 42, 63
1, 135839, Note_on_c, 9, 36, 0
1, 135839, Note_on_c, 9, 54, 0
1, 135839, Note_on_c, 9, 42, 0
1, 135840, Note_on_c, 9, 40, 104
1, 135840, Note_on_c, 9, 54, 86
1, 135840, Note_on_c, 9, 39, 94
1, 135840, Note_on_c, 9, 42, 79
1, 136079, Note_on_c, 9, 40, 0
1, 136079, Note_on_c, 9, 54, 0
1, 136079, Note_on_c, 9, 39, 0
1, 136079, Note_on_c, 9, 42, 0
1, 136080, Note_on_c, 9, 54, 28
1, 136080, Note_on_c, 9, 42, 63
1, 136080, Note_on_c, 9, 36, 115
1, 136319, Note_on_c, 9, 54, 0
1, 136319, Note_on_c, 9, 42, 0
1, 136319, Note_on_c, 9, 36, 0
1, 136320, Note_on_c, 9, 54, 23
1, 136320, Note_on_c, 9, 42, 79
1, 136559, Note_on_c, 9, 54, 0
1, 136559, Note_on_c, 9, 42, 0
1, 136560, Note_on_c, 9, 54, 27
1, 136560, Note_on_c, 9, 42, 63
1, 136560, Note_on_c, 9, 36, 104
1, 136799, Note_on_c, 9, 54, 0
1, 136799, Note_on_c, 9, 42, 0
1, 136799, Note_on_c, 9, 36, 0
1, 136800, Note_on_c, 9, 40, 104
1, 136800, Note_on_c, 9, 54, 79
1, 136800, Note_on_c, 9, 39, 86
1, 136800, Note_on_c, 9, 42, 79
1, 136920, Note_on_c, 9, 36, 104
1, 137039, Note_on_c, 9, 40, 0
1, 137039, Note_on_c, 9, 54, 0
1, 137039, Note_on_c, 9, 39, 0
1, 137039, Note_on_c, 9, 42, 0
1, 137040, Note_on_c, 9, 54, 38
1, 137040, Note_on_c, 9, 42, 32
1, 137159, Note_on_c, 9, 54, 0
1, 137159, Note_on_c, 9, 42, 0
1, 137160, Note_on_c, 9, 54, 13
1, 137279, Note_on_c, 9, 36, 0
1, 137279, Note_on_c, 9, 54, 0
1, 137280, Note_on_c, 9, 54, 38
1, 137280, Note_on_c, 9, 42, 86
1, 137280, Note_on_c, 9, 36, 115
1, 137519, Note_on_c, 9, 54, 0
1, 137519, Note_on_c, 9, 42, 0
1, 137520, Note_on_c, 9, 54, 33
1, 137520, Note_on_c, 9, 42, 47
1, 137759, Note_on_c, 9, 36, 0
1, 137759, Note_on_c, 9, 54, 0
1, 137759, Note_on_c, 9, 42, 0
1, 137760, Note_on_c, 9, 40, 115
1, 137760, Note_on_c, 9, 54, 79
1, 137760, Note_on_c, 9, 39, 79
1, 137760, Note_on_c, 9, 42, 79
1, 137999, Note_on_c, 9, 40, 0
1, 137999, Note_on_c, 9, 54, 0
1, 137999, Note_on_c, 9, 39, 0
1, 137999, Note_on_c, 9, 42, 0
1, 138000, Note_on_c, 9, 54, 26
1, 138000, Note_on_c, 9, 42, 34
1, 138000, Note_on_c, 9, 36, 86
1, 138239, Note_on_c, 9, 54, 0
1, 138239, Note_on_c, 9, 42, 0
1, 138239, Note_on_c, 9, 36, 0
1, 138240, Note_on_c, 9, 54, 25
1, 138240, Note_on_c, 9, 42, 79
1, 138240, Note_on_c, 9, 36, 104
1, 138479, Note_on_c, 9, 54, 0
1, 138479, Note_on_c, 9, 42, 0
1, 138480, Note_on_c, 9, 54, 22
1, 138480, Note_on_c, 9, 42, 51
1, 138719, Note_on_c, 9, 36, 0
1, 138719, Note_on_c, 9, 54, 0
1, 138719, Note_on_c, 9, 42, 0
1, 138720, Note_on_c, 9, 40, 104
1, 138720, Note_on_c, 9, 54, 86
1, 138720, Note_on_c, 9, 39, 86
1, 138720, Note_on_c, 9, 42, 86
1, 138959, Note_on_c, 9, 40, 0
1, 138959, Note_on_c, 9, 54, 0
1, 138959, Note_on_c, 9, 39, 0
1, 138959, Note_on_c, 9, 42, 0
1, 138960, Note_on_c, 9, 54, 33
1, 138960, Note_on_c, 9, 42, 33
1, 138960, Note_on_c, 9, 36, 94
1, 139079, Note_on_c, 9, 54, 0
1, 139079, Note_on_c, 9, 42, 0
1, 139080, Note_on_c, 9, 54, 29
1, 139199, Note_on_c, 9, 36, 0
1, 139199, Note_on_c, 9, 54, 0
1, 139200, Note_on_c, 9, 54, 33
1, 139200, Note_on_c, 9, 42, 68
1, 139200, Note_on_c, 9, 36, 104
1, 139439, Note_on_c, 9, 54, 0
1, 139439, Note_on_c, 9, 42, 0
1, 139440, Note_on_c, 9, 54, 23
1, 139440, Note_on_c, 9, 42, 31
1, 139679, Note_on_c, 9, 36, 0
1, 139679, Note_on_c, 9, 54, 0
1, 139679, Note_on_c, 9, 42, 0
1, 139680, Note_on_c, 9, 40, 104
1, 139680, Note_on_c, 9, 54, 86
1, 139680, Note_on_c, 9, 39, 86
1, 139680, Note_on_c, 9, 42, 79
1, 139919, Note_on_c, 9, 40, 0
1, 139919, Note_on_c, 9, 54, 0
1, 139919, Note_on_c, 9, 39, 0
1, 139919, Note_on_c, 9, 42, 0
1, 139920, Note_on_c, 9, 54, 25
1, 139920, Note_on_c, 9, 42, 47
1, 139920, Note_on_c, 9, 36, 104
1, 140159, Note_on_c, 9, 54, 0
1, 140159, Note_on_c, 9, 42, 0
1, 140159, Note_on_c, 9, 36, 0
1, 140160, Note_on_c, 9, 54, 27
1, 140160, Note_on_c, 9, 42, 79
1, 140399, Note_on_c, 9, 54, 0
1, 140399, Note_on_c, 9, 42, 0
1, 140400, Note_on_c, 9, 54, 24
1, 140400, Note_on_c, 9, 42, 68
1, 140400, Note_on_c, 9, 36, 104
1, 140639, Note_on_c, 9, 54, 0
1, 140639, Note_on_c, 9, 42, 0
1, 140639, Note_on_c, 9, 36, 0
1, 140640, Note_on_c, 9, 40, 115
1, 140640, Note_on_c, 9, 54, 86
1, 140640, Note_on_c, 9, 39, 86
1, 140640, Note_on_c, 9, 42, 68
1, 140760, Note_on_c, 9, 36, 104
1, 140879, Note_on_c, 9, 40, 0
1, 140879, Note_on_c, 9, 54, 0
1, 140879, Note_on_c, 9, 39, 0
1, 140879, Note_on_c, 9, 42, 0
1, 140880, Note_on_c, 9, 54, 30
1, 140880, Note_on_c, 9, 42, 36
1, 140999, Note_on_c, 9, 54, 0
1, 140999, Note_on_c, 9, 42, 0
1, 141000, Note_on_c, 9, 54, 29
1, 141119, Note_on_c, 9, 36, 0
1, 141119, Note_on_c, 9, 54, 0
1, 141120, Note_on_c, 9, 54, 30
1, 141120, Note_on_c, 9, 42, 73
1, 141120, Note_on_c, 9, 36, 104
1, 141359, Note_on_c, 9, 54, 0
1, 141359, Note_on_c, 9, 42, 0
1, 141360, Note_on_c, 9, 54, 26
1, 141360, Note_on_c, 9, 42, 55
1, 141599, Note_on_c, 9, 36, 0
1, 141599, Note_on_c, 9, 54, 0
1, 141599, Note_on_c, 9, 42, 0
1, 141600, Note_on_c, 9, 40, 104
1, 141600, Note_on_c, 9, 54, 86
1, 141600, Note_on_c, 9, 39, 94
1, 141600, Note_on_c, 9, 42, 79
1, 141839, Note_on_c, 9, 40, 0
1, 141839, Note_on_c, 9, 54, 0
1, 141839, Note_on_c, 9, 39, 0
1, 141839, Note_on_c, 9, 42, 0
1, 141840, Note_on_c, 9, 54, 29
1, 141840, Note_on_c, 9, 42, 68
1, 141840, Note_on_c, 9, 36, 86
1, 142079, Note_on_c, 9, 54, 0
1, 142079, Note_on_c, 9, 42, 0
1, 142079, Note_on_c, 9, 36, 0
1, 142080, Note_on_c, 9, 54, 34
1, 142080, Note_on_c, 9, 42, 86
1, 142080, Note_on_c, 9, 36, 104
1, 142319, Note_on_c, 9, 54, 0
1, 142319, Note_on_c, 9, 42, 0
1, 142320, Note_on_c, 9, 54, 36
1, 142320, Note_on_c, 9, 42, 68
1, 142559, Note_on_c, 9, 36, 0
1, 142559, Note_on_c, 9, 54, 0
1, 142559, Note_on_c, 9, 42, 0
1, 142560, Note_on_c, 9, 40, 115
1, 142560, Note_on_c, 9, 54, 86
1, 142560, Note_on_c, 9, 39, 79
1, 142560, Note_on_c, 9, 42, 79
1, 142799, Note_on_c, 9, 40, 0
1, 142799, Note_on_c, 9, 54, 0
1, 142799, Note_on_c, 9, 39, 0
1, 142799, Note_on_c, 9, 42, 0
1, 142800, Note_on_c, 9, 54, 44
1, 142800, Note_on_c, 9, 42, 59
1, 142800, Note_on_c, 9, 36, 104
1, 142919, Note_on_c, 9, 54, 0
1, 142919, Note_on_c, 9, 42, 0
1, 142920, Note_on_c, 9, 54, 51
1, 143039, Note_on_c, 9, 36, 0
1, 143039, Note_on_c, 9, 54, 0
1, 143040, Note_on_c, 9, 54, 34
1, 143040, Note_on_c, 9, 42, 73
1, 143040, Note_on_c, 9, 36, 115
1, 143279, Note_on_c, 9, 54, 0
1, 143279, Note_on_c, 9, 42, 0
1, 143280, Note_on_c, 9, 54, 32
1, 143280, Note_on_c, 9, 42, 63
1, 143519, Note_on_c, 9, 36, 0
1, 143519, Note_on_c, 9, 54, 0
1, 143519, Note_on_c, 9, 42, 0
1, 143520, Note_on_c, 9, 40, 104
1, 143520, Note_on_c, 9, 54, 86
1, 143520, Note_on_c, 9, 39, 94
1, 143520, Note_on_c, 9, 42, 79
1, 143759, Note_on_c, 9, 40, 0
1, 143759, Note_on_c, 9, 54, 0
1, 143759, Note_on_c, 9, 39, 0
1, 143759, Note_on_c, 9, 42, 0
1, 143760, Note_on_c, 9, 54, 28
1, 143760, Note_on_c, 9, 42, 63
1, 143760, Note_on_c, 9, 36, 115
1, 143999, Note_on_c, 9, 54, 0
1, 143999, Note_on_c, 9, 42, 0
1, 143999, Note_on_c, 9, 36, 0
1, 144000, Note_on_c, 9, 54, 23
1, 144000, Note_on_c, 9, 42, 79
1, 144239, Note_on_c, 9, 54, 0
1, 144239, Note_on_c, 9, 42, 0
1, 144240, Note_on_c, 9, 54, 27
1, 144240, Note_on_c, 9, 42, 63
1, 144240, Note_on_c, 9, 36, 104
1, 144479, Note_on_c, 9, 54, 0
1, 144479, Note_on_c, 9, 42, 0
1, 144479, Note_on_c, 9, 36, 0
1, 144480, Note_on_c, 9, 40, 104
1, 144480, Note_on_c, 9, 54, 79
1, 144480, Note_on_c, 9, 39, 86
1, 144480, Note_on_c, 9, 42, 79
1, 144600, Note_on_c, 9, 36, 104
1, 144719, Note_on_c, 9, 40, 0
1, 144719, Note_on_c, 9, 54, 0
1, 144719, Note_on_c, 9, 39, 0
1, 144719, Note_on_c, 9, 42, 0
1, 144720, Note_on_c, 9, 54, 38
1, 144720, Note_on_c, 9, 42, 32
1, 144839, Note_on_c, 9, 54, 0
1, 144839, Note_on_c, 9, 42, 0
1, 144840, Note_on_c, 9, 54, 13
1, 144959, Note_on_c, 9, 36, 0
1, 144959, Note_on_c, 9, 54, 0
1, 144960, Note_on_c, 9, 54, 38
1, 144960, Note_on_c, 9, 42, 86
1, 144960, Note_on_c, 9, 36, 115
1, 145199, Note_on_c, 9, 54, 0
1, 145199, Note_on_c, 9, 42, 0
1, 145200, Note_on_c, 9, 54, 33
1, 145200, Note_on_c, 9, 42, 47
1, 145439, Note_on_c, 9, 36, 0
1, 145439, Note_on_c, 9, 54, 0
1, 145439, Note_on_c, 9, 42, 0
1, 145440, Note_on_c, 9, 40, 115
1, 145440, Note_on_c, 9, 54, 79
1, 145440, Note_on_c, 9, 39, 79
1, 145440, Note_on_c, 9, 42, 79
1, 145679, Note_on_c, 9, 40, 0
1, 145679, Note_on_c, 9, 54, 0
1, 145679, Note_on_c, 9, 39, 0
1, 145679, Note_on_c, 9, 42, 0
1, 145680, Note_on_c, 9, 54, 26
1, 145680, Note_on_c, 9, 42, 34
1, 145680, Note_on_c, 9, 36, 86
1, 145919, Note_on_c, 9, 54, 0
1, 145919, Note_on_c, 9, 42, 0
1, 145919, Note_on_c, 9, 36, 0
1, 145920, Note_on_c, 9, 54, 25
1, 145920, Note_on_c, 9, 42, 79
1, 145920, Note_on_c, 9, 36, 104
1, 146159, Note_on_c, 9, 54, 0
1, 146159, Note_on_c, 9, 42, 0
1, 146160, Note_on_c, 9, 54, 22
1, 146160, Note_on_c, 9, 42, 51
1, 146399, Note_on_c, 9, 36, 0
1, 146399, Note_on_c, 9, 54, 0
1, 146399, Note_on_c, 9, 42, 0
1, 146400, Note_on_c, 9, 40, 104
1, 146400, Note_on_c, 9, 54, 86
1, 146400, Note_on_c, 9, 39, 86
1, 146400, Note_on_c, 9, 42, 86
1, 146639, Note_on_c, 9, 40, 0
1, 146639, Note_on_c, 9, 54, 0
1, 146639, Note_on_c, 9, 39, 0
1, 146639, Note_on_c, 9, 42, 0
1, 146640, Note_on_c, 9, 54, 33
1, 146640, Note_on_c, 9, 42, 33
1, 146640, Note_on_c, 9, 36, 94
1, 146759, Note_on_c, 9, 54, 0
1, 146759, Note_on_c, 9, 42, 0
1, 146760, Note_on_c, 9, 54, 29
1, 146879, Note_on_c, 9, 36, 0
1, 146879, Note_on_c, 9, 54, 0
1, 146880, Note_on_c, 9, 54, 33
1, 146880, Note_on_c, 9, 42, 68
1, 146880, Note_on_c, 9, 36, 104
1, 147119, Note_on_c, 9, 54, 0
1, 147119, Note_on_c, 9, 42, 0
1, 147120, Note_on_c, 9, 54, 23
1, 147120, Note_on_c, 9, 42, 31
1, 147359, Note_on_c, 9, 36, 0
1, 147359, Note_on_c, 9, 54, 0
1, 147359, Note_on_c, 9, 42, 0
1, 147360, Note_on_c, 9, 40, 104
1, 147360, Note_on_c, 9, 54, 86
1, 147360, Note_on_c, 9, 39, 86
1, 147360, Note_on_c, 9, 42, 79
1, 147599, Note_on_c, 9, 40, 0
1, 147599, Note_on_c, 9, 54, 0
1, 147599, Note_on_c, 9, 39, 0
1, 147599, Note_on_c, 9, 42, 0
1, 147600, Note_on_c, 9, 54, 25
1, 147600, Note_on_c, 9, 42, 47
1, 147600, Note_on_c, 9, 36, 104
1, 147839, Note_on_c, 9, 54, 0
1, 147839, Note_on_c, 9, 42, 0
1, 147839, Note_on_c, 9, 36, 0
1, 147840, Note_on_c, 9, 54, 27
1, 147840, Note_on_c, 9, 42, 79
1, 148079, Note_on_c, 9, 54, 0
1, 148079, Note_on_c, 9, 42, 0
1, 148080, Note_on_c, 9, 54, 24
1, 148080, Note_on_c, 9, 42, 68
1, 148080, Note_on_c, 9, 36, 104
1, 148319, Note_on_c, 9, 54, 0
1, 148319, Note_on_c, 9, 42, 0
1, 148319, Note_on_c, 9, 36, 0
1, 148320, Note_on_c, 9, 40, 115
1, 148320, Note_on_c, 9, 54, 86
1, 148320, Note_on_c, 9, 39, 86
1, 148320, Note_on_c, 9, 42, 68
1, 148440, Note_on_c, 9, 36, 104
1, 148559, Note_on_c, 9, 40, 0
1, 148559, Note_on_c, 9, 54, 0
1, 148559, Note_on_c, 9, 39, 0
1, 148559, Note_on_c, 9, 42, 0
1, 148560, Note_on_c, 9, 54, 30
1, 148560, Note_on_c, 9, 42, 36
1, 148679, Note_on_c, 9, 54, 0
1, 148679, Note_on_c, 9, 42, 0
1, 148680, Note_on_c, 9, 54, 29
1, 148799, Note_on_c, 9, 36, 0
1, 148799, Note_on_c, 9, 54, 0
1, 148800, Note_on_c, 9, 54, 30
1, 148800, Note_on_c, 9, 42, 73
1, 148800, Note_on_c, 9, 36, 104
1, 149039, Note_on_c, 9, 54, 0
1, 149039, Note_on_c, 9, 42, 0
1, 149040, Note_on_c, 9, 54, 26
1, 149040, Note_on_c, 9, 42, 55
1, 149279, Note_on_c, 9, 36, 0
1, 149279, Note_on_c, 9, 54, 0
1, 149279, Note_on_c, 9, 42, 0
1, 149280, Note_on_c, 9, 40, 104
1, 149280, Note_on_c, 9, 54, 86
1, 149280, Note_on_c, 9, 39, 94
1, 149280, Note_on_c, 9, 42, 79
1, 149519, Note_on_c, 9, 40, 0
1, 149519, Note_on_c, 9, 54, 0
1, 149519, Note_on_c, 9, 39, 0
1, 149519, Note_on_c, 9, 42, 0
1, 149520, Note_on_c, 9, 54, 29
1, 149520, Note_on_c, 9, 46, 68
1, 149520, Note_on_c, 9, 36, 86
1, 149759, Note_on_c, 9, 54, 0
1, 149759, Note_on_c, 9, 46, 0
1, 149759, Note_on_c, 9, 36, 0
1, 149760, Note_on_c, 9, 54, 34
1, 149760, Note_on_c, 9, 42, 86
1, 149760, Note_on_c, 9, 36, 104
1, 149999, Note_on_c, 9, 54, 0
1, 149999, Note_on_c, 9, 42, 0
1, 150000, Note_on_c, 9, 54, 36
1, 150000, Note_on_c, 9, 42, 68
1, 150239, Note_on_c, 9, 36, 0
1, 150239, Note_on_c, 9, 54, 0
1, 150239, Note_on_c, 9, 42, 0
1, 150240, Note_on_c, 9, 40, 115
1, 150240, Note_on_c, 9, 54, 86
1, 150240, Note_on_c, 9, 39, 79
1, 150240, Note_on_c, 9, 42, 79
1, 150479, Note_on_c, 9, 40, 0
1, 150479, Note_on_c, 9, 54, 0
1, 150479, Note_on_c, 9, 39, 0
1, 150479, Note_on_c, 9, 42, 0
1, 150480, Note_on_c, 9, 54, 44
1, 150480, Note_on_c, 9, 42, 59
1, 150480, Note_on_c, 9, 36, 104
1, 150599, Note_on_c, 9, 54, 0
1, 150599, Note_on_c, 9, 42, 0
1, 150600, Note_on_c, 9, 54, 51
1, 150719, Note_on_c, 9, 36, 0
1, 150719, Note_on_c, 9, 54, 0
1, 150720, Note_on_c, 9, 54, 34
1, 150720, Note_on_c, 9, 42, 73
1, 150720, Note_on_c, 9, 36, 115
1, 150959, Note_on_c, 9, 54, 0
1, 150959, Note_on_c, 9, 42, 0
1, 150960, Note_on_c, 9, 54, 32
1, 150960, Note_on_c, 9, 42, 63
1, 151199, Note_on_c, 9, 36, 0
1, 151199, Note_on_c, 9, 54, 0
1, 151199, Note_on_c, 9, 42, 0
1, 151200, Note_on_c, 9, 40, 104
1, 151200, Note_on_c, 9, 54, 86
1, 151200, Note_on_c, 9, 39, 94
1, 151200, Note_on_c, 9, 42, 79
1, 151439, Note_on_c, 9, 40, 0
1, 151439, Note_on_c, 9, 54, 0
1, 151439, Note_on_c, 9, 39, 0
1, 151439, Note_on_c, 9, 42, 0
1, 151440, Note_on_c, 9, 54, 28
1, 151440, Note_on_c, 9, 42, 63
1, 151440, Note_on_c, 9, 36, 115
1, 151679, Note_on_c, 9, 54, 0
1, 151679, Note_on_c, 9, 42, 0
1, 151679, Note_on_c, 9, 36, 0
1, 151680, Note_on_c, 9, 54, 23
1, 151680, Note_on_c, 9, 42, 79
1, 151919, Note_on_c, 9, 54, 0
1, 151919, Note_on_c, 9, 42, 0
1, 151920, Note_on_c, 9, 54, 27
1, 151920, Note_on_c, 9, 42, 63
1, 151920, Note_on_c, 9, 36, 104
1, 152159, Note_on_c, 9, 54, 0
1, 152159, Note_on_c, 9, 42, 0
1, 152159, Note_on_c, 9, 36, 0
1, 152160, Note_on_c, 9, 40, 104
1, 152160, Note_on_c, 9, 54, 79
1, 152160, Note_on_c, 9, 39, 86
1, 152160, Note_on_c, 9, 42, 79
1, 152280, Note_on_c, 9, 36, 104
1, 152399, Note_on_c, 9, 40, 0
1, 152399, Note_on_c, 9, 54, 0
1, 152399, Note_on_c, 9, 39, 0
1, 152399, Note_on_c, 9, 42, 0
1, 152400, Note_on_c, 9, 54, 38
1, 152400, Note_on_c, 9, 42, 32
1, 152519, Note_on_c, 9, 54, 0
1, 152519, Note_on_c, 9, 42, 0
1, 152520, Note_on_c, 9, 54, 13
1, 152639, Note_on_c, 9, 36, 0
1, 152639, Note_on_c, 9, 54, 0
1, 152640, Note_on_c, 9, 54, 38
1, 152640, Note_on_c, 9, 42, 86
1, 152640, Note_on_c, 9, 36, 115
1, 152879, Note_on_c, 9, 54, 0
1, 152879, Note_on_c, 9, 42, 0
1, 152880, Note_on_c, 9, 54, 33
1, 152880, Note_on_c, 9, 42, 47
1, 153119, Note_on_c, 9, 36, 0
1, 153119, Note_on_c, 9, 54, 0
1, 153119, Note_on_c, 9, 42, 0
1, 153120, Note_on_c, 9, 40, 115
1, 153120, Note_on_c, 9, 54, 79
1, 153120, Note_on_c, 9, 39, 79
1, 153120, Note_on_c, 9, 42, 79
1, 153359, Note_on_c, 9, 40, 0
1, 153359, Note_on_c, 9, 54, 0
1, 153359, Note_on_c, 9, 39, 0
1, 153359, Note_on_c, 9, 42, 0
1, 153360, Note_on_c, 9, 54, 26
1, 153360, Note_on_c, 9, 42, 34
1, 153360, Note_on_c, 9, 36, 86
1, 153599, Note_on_c, 9, 54, 0
1, 153599, Note_on_c, 9, 42, 0
1, 153599, Note_on_c, 9, 36, 0
1, 153600, Note_on_c, 9, 54, 25
1, 153600, Note_on_c, 9, 42, 79
1, 153600, Note_on_c, 9, 36, 104
1, 153839, Note_on_c, 9, 54, 0
1, 153839, Note_on_c, 9, 42, 0
1, 153840, Note_on_c, 9, 54, 22
1, 153840, Note_on_c, 9, 42, 51
1, 154079, Note_on_c, 9, 36, 0
1, 154079, Note_on_c, 9, 54, 0
1, 154079, Note_on_c, 9, 42, 0
1, 154080, Note_on_c, 9, 40, 104
1, 154080, Note_on_c, 9, 54, 86
1, 154080, Note_on_c, 9, 39, 86
1, 154080, Note_on_c, 9, 42, 86
1, 154319, Note_on_c, 9, 40, 0
1, 154319, Note_on_c, 9, 54, 0
1, 154319, Note_on_c, 9, 39, 0
1, 154319, Note_on_c, 9, 42, 0
1, 154320, Note_on_c, 9, 54, 33
1, 154320, Note_on_c, 9, 42, 33
1, 154320, Note_on_c, 9, 36, 94
1, 154439, Note_on_c, 9, 54, 0
1, 154439, Note_on_c, 9, 42, 0
1, 154440, Note_on_c, 9, 54, 29
1, 154559, Note_on_c, 9, 36, 0
1, 154559, Note_on_c, 9, 54, 0
1, 154560, Note_on_c, 9, 54, 33
1, 154560, Note_on_c, 9, 42, 68
1, 154560, Note_on_c, 9, 36, 104
1, 154799, Note_on_c, 9, 54, 0
1, 154799, Note_on_c, 9, 42, 0
1, 154800, Note_on_c, 9, 54, 23
1, 154800, Note_on_c, 9, 42, 31
1, 155039, Note_on_c, 9, 36, 0
1, 155039, Note_on_c, 9, 54, 0
1, 155039, Note_on_c, 9, 42, 0
1, 155040, Note_on_c, 9, 40, 104
1, 155040, Note_on_c, 9, 54, 86
1, 155040, Note_on_c, 9, 39, 86
1, 155040, Note_on_c, 9, 42, 79
1, 155279, Note_on_c, 9, 40, 0
1, 155279, Note_on_c, 9, 54, 0
1, 155279, Note_on_c, 9, 39, 0
1, 155279, Note_on_c, 9, 42, 0
1, 155280, Note_on_c, 9, 54, 25
1, 155280, Note_on_c, 9, 42, 47
1, 155280, Note_on_c, 9, 36, 104
1, 155519, Note_on_c, 9, 54, 0
1, 155519, Note_on_c, 9, 42, 0
1, 155519, Note_on_c, 9, 36, 0
1, 155520, Note_on_c, 9, 54, 27
1, 155520, Note_on_c, 9, 42, 79
1, 155759, Note_on_c, 9, 54, 0
1, 155759, Note_on_c, 9, 42, 0
1, 155760, Note_on_c, 9, 54, 24
1, 155760, Note_on_c, 9, 42, 68
1, 155760, Note_on_c, 9, 36, 104
1, 155999, Note_on_c, 9, 54, 0
1, 155999, Note_on_c, 9, 42, 0
1, 155999, Note_on_c, 9, 36, 0
1, 156000, Note_on_c, 9, 40, 115
1, 156000, Note_on_c, 9, 54, 86
1, 156000, Note_on_c, 9, 39, 86
1, 156000, Note_on_c, 9, 42, 68
1, 156120, Note_on_c, 9, 36, 104
1, 156239, Note_on_c, 9, 40, 0
1, 156239, Note_on_c, 9, 54, 0
1, 156239, Note_on_c, 9, 39, 0
1, 156239, Note_on_c, 9, 42, 0
1, 156240, Note_on_c, 9, 54, 30
1, 156240, Note_on_c, 9, 42, 36
1, 156359, Note_on_c, 9, 54, 0
1, 156359, Note_on_c, 9, 42, 0
1, 156360, Note_on_c, 9, 54, 29
1, 156479, Note_on_c, 9, 36, 0
1, 156479, Note_on_c, 9, 54, 0
1, 156480, Note_on_c, 9, 54, 30
1, 156480, Note_on_c, 9, 42, 73
1, 156480, Note_on_c, 9, 36, 104
1, 156719, Note_on_c, 9, 54, 0
1, 156719, Note_on_c, 9, 42, 0
1, 156720, Note_on_c, 9, 54, 26
1, 156720, Note_on_c, 9, 42, 55
1, 156959, Note_on_c, 9, 36, 0
1, 156959, Note_on_c, 9, 54, 0
1, 156959, Note_on_c, 9, 42, 0
1, 156960, Note_on_c, 9, 40, 104
1, 156960, Note_on_c, 9, 54, 86
1, 156960, Note_on_c, 9, 39, 94
1, 156960, Note_on_c, 9, 42, 79
1, 157199, Note_on_c, 9, 40, 0
1, 157199, Note_on_c, 9, 54, 0
1, 157199, Note_on_c, 9, 39, 0
1, 157199, Note_on_c, 9, 42, 0
1, 157200, Note_on_c, 9, 54, 29
1, 157200, Note_on_c, 9, 42, 68
1, 157200, Note_on_c, 9, 36, 86
1, 157439, Note_on_c, 9, 54, 0
1, 157439, Note_on_c, 9, 42, 0
1, 157439, Note_on_c, 9, 36, 0
1, 157440, Note_on_c, 9, 54, 34
1, 157440, Note_on_c, 9, 42, 86
1, 157440, Note_on_c, 9, 36, 104
1, 157679, Note_on_c, 9, 54, 0
1, 157679, Note_on_c, 9, 42, 0
1, 157680, Note_on_c, 9, 54, 36
1, 157680, Note_on_c, 9, 42, 68
1, 157919, Note_on_c, 9, 36, 0
1, 157919, Note_on_c, 9, 54, 0
1, 157919, Note_on_c, 9, 42, 0
1, 157920, Note_on_c, 9, 40, 115
1, 157920, Note_on_c, 9, 54, 86
1, 157920, Note_on_c, 9, 39, 79
1, 157920, Note_on_c, 9, 42, 79
1, 158159, Note_on_c, 9, 40, 0
1, 158159, Note_on_c, 9, 54, 0
1, 158159, Note_on_c, 9, 39, 0
1, 158159, Note_on_c, 9, 42, 0
1, 158160, Note_on_c, 9, 54, 44
1, 158160, Note_on_c, 9, 42, 59
1, 158160, Note_on_c, 9, 36, 104
1, 158279, Note_on_c, 9, 54, 0
1, 158279, Note_on_c, 9, 42, 0
1, 158280, Note_on_c, 9, 54, 51
1, 158399, Note_on_c, 9, 36, 0
1, 158399, Note_on_c, 9, 54, 0
1, 158400, Note_on_c, 9, 54, 34
1, 158400, Note_on_c, 9, 42, 73
1, 158400, Note_on_c, 9, 36, 115
1, 158639, Note_on_c, 9, 54, 0
1, 158639, Note_on_c, 9, 42, 0
1, 158640, Note_on_c, 9, 54, 32
1, 158640, Note_on_c, 9, 42, 63
1, 158879, Note_on_c, 9, 36, 0
1, 158879, Note_on_c, 9, 54, 0
1, 158879, Note_on_c, 9, 42, 0
1, 158880, Note_on_c, 9, 40, 104
1, 158880, Note_on_c, 9, 54, 86
1, 158880, Note_on_c, 9, 39, 94
1, 158880, Note_on_c, 9, 42, 79
1, 159119, Note_on_c, 9, 40, 0
1, 159119, Note_on_c, 9, 54, 0
1, 159119, Note_on_c, 9, 39, 0
1, 159119, Note_on_c, 9, 42, 0
1, 159120, Note_on_c, 9, 54, 28
1, 159120, Note_on_c, 9, 42, 63
1, 159120, Note_on_c, 9, 36, 115
1, 159359, Note_on_c, 9, 54, 0
1, 159359, Note_on_c, 9, 42, 0
1, 159359, Note_on_c, 9, 36, 0
1, 159360, Note_on_c, 9, 54, 23
1, 159360, Note_on_c, 9, 42, 79
1, 159599, Note_on_c, 9, 54, 0
1, 159599, Note_on_c, 9, 42, 0
1, 159600, Note_on_c, 9, 54, 27
1, 159600, Note_on_c, 9, 42, 63
1, 159600, Note_on_c, 9, 36, 104
1, 159839, Note_on_c, 9, 54, 0
1, 159839, Note_on_c, 9, 42, 0
1, 159839, Note_on_c, 9, 36, 0
1, 159840, Note_on_c, 9, 40, 104
1, 159840, Note_on_c, 9, 54, 79
1, 159840, Note_on_c, 9, 39, 86
1, 159840, Note_on_c, 9, 42, 79
1, 159960, Note_on_c, 9, 36, 104
1, 160079, Note_on_c, 9, 40, 0
1, 160079, Note_on_c, 9, 54, 0
1, 160079, Note_on_c, 9, 39, 0
1, 160079, Note_on_c, 9, 42, 0
1, 160080, Note_on_c, 9, 54, 38
1, 160080, Note_on_c, 9, 42, 32
1, 160199, Note_on_c, 9, 54, 0
1, 160199, Note_on_c, 9, 42, 0
1, 160200, Note_on_c, 9, 54, 13
1, 160319, Note_on_c, 9, 36, 0
1, 160319, Note_on_c, 9, 54, 0
1, 160320, Note_on_c, 9, 54, 38
1, 160320, Note_on_c, 9, 42, 86
1, 160320, Note_on_c, 9, 36, 115
1, 160559, Note_on_c, 9, 54, 0
1, 160559, Note_on_c, 9, 42, 0
1, 160560, Note_on_c, 9, 54, 33
1, 160560, Note_on_c, 9, 42, 47
1, 160799, Note_on_c, 9, 36, 0
1, 160799, Note_on_c, 9, 54, 0
1, 160799, Note_on_c, 9, 42, 0
1, 160800, Note_on_c, 9, 40, 115
1, 160800, Note_on_c, 9, 54, 79
1, 160800, Note_on_c, 9, 39, 79
1, 160800, Note_on_c, 9, 42, 79
1, 161039, Note_on_c, 9, 40, 0
1, 161039, Note_on_c, 9, 54, 0
1, 161039, Note_on_c, 9, 39, 0
1, 161039, Note_on_c, 9, 42, 0
1, 161040, Note_on_c, 9, 54, 26
1, 161040, Note_on_c, 9, 42, 34
1, 161040, Note_on_c, 9, 36, 86
1, 161279, Note_on_c, 9, 54, 0
1, 161279, Note_on_c, 9, 42, 0
1, 161279, Note_on_c, 9, 36, 0
1, 161280, Note_on_c, 9, 54, 25
1, 161280, Note_on_c, 9, 42, 79
1, 161280, Note_on_c, 9, 36, 104
1, 161519, Note_on_c, 9, 54, 0
1, 161519, Note_on_c, 9, 42, 0
1, 161520, Note_on_c, 9, 54, 22
1, 161520, Note_on_c, 9, 42, 51
1, 161759, Note_on_c, 9, 36, 0
1, 161759, Note_on_c, 9, 54, 0
1, 161759, Note_on_c, 9, 42, 0
1, 161760, Note_on_c, 9, 40, 104
1, 161760, Note_on_c, 9, 54, 86
1, 161760, Note_on_c, 9, 39, 86
1, 161760, Note_on_c, 9, 42, 86
1, 161999, Note_on_c, 9, 40, 0
1, 161999, Note_on_c, 9, 54, 0
1, 161999, Note_on_c, 9, 39, 0
1, 161999, Note_on_c, 9, 42, 0
1, 162000, Note_on_c, 9, 54, 33
1, 162000, Note_on_c, 9, 42, 33
1, 162000, Note_on_c, 9, 36, 94
1, 162119, Note_on_c, 9, 54, 0
1, 162119, Note_on_c, 9, 42, 0
1, 162120, Note_on_c, 9, 54, 29
1, 162239, Note_on_c, 9, 36, 0
1, 162239, Note_on_c, 9, 54, 0
1, 162240, Note_on_c, 9, 54, 33
1, 162240, Note_on_c, 9, 42, 68
1, 162240, Note_on_c, 9, 36, 104
1, 162479, Note_on_c, 9, 54, 0
1, 162479, Note_on_c, 9, 42, 0
1, 162480, Note_on_c, 9, 54, 23
1, 162480, Note_on_c, 9, 42, 31
1, 162719, Note_on_c, 9, 36, 0
1, 162719, Note_on_c, 9, 54, 0
1, 162719, Note_on_c, 9, 42, 0
1, 162720, Note_on_c, 9, 40, 104
1, 162720, Note_on_c, 9, 54, 86
1, 162720, Note_on_c, 9, 39, 86
1, 162720, Note_on_c, 9, 42, 79
1, 162959, Note_on_c, 9, 40, 0
1, 162959, Note_on_c, 9, 54, 0
1, 162959, Note_on_c, 9, 39, 0
1, 162959, Note_on_c, 9, 42, 0
1, 162960, Note_on_c, 9, 54, 25
1, 162960, Note_on_c, 9, 42, 47
1, 162960, Note_on_c, 9, 36, 104
1, 163199, Note_on_c, 9, 54, 0
1, 163199, Note_on_c, 9, 42, 0
1, 163199, Note_on_c, 9, 36, 0
1, 163200, Note_on_c, 9, 54, 27
1, 163200, Note_on_c, 9, 42, 79
1, 163439, Note_on_c, 9, 54, 0
1, 163439, Note_on_c, 9, 42, 0
1, 163440, Note_on_c, 9, 54, 24
1, 163440, Note_on_c, 9, 42, 68
1, 163440, Note_on_c, 9, 36, 104
1, 163679, Note_on_c, 9, 54, 0
1, 163679, Note_on_c, 9, 42, 0
1, 163679, Note_on_c, 9, 36, 0
1, 163680, Note_on_c, 9, 40, 115
1, 163680, Note_on_c, 9, 54, 86
1, 163680, Note_on_c, 9, 39, 86
1, 163680, Note_on_c, 9, 42, 68
1, 163800, Note_on_c, 9, 36, 104
1, 163919, Note_on_c, 9, 40, 0
1, 163919, Note_on_c, 9, 54, 0
1, 163919, Note_on_c, 9, 39, 0
1, 163919, Note_on_c, 9, 42, 0
1, 163920, Note_on_c, 9, 54, 30
1, 163920, Note_on_c, 9, 42, 36
1, 164039, Note_on_c, 9, 54, 0
1, 164039, Note_on_c, 9, 42, 0
1, 164040, Note_on_c, 9, 54, 29
1, 164159, Note_on_c, 9, 36, 0
1, 164159, Note_on_c, 9, 54, 0
1, 164160, Note_on_c, 9, 54, 30
1, 164160, Note_on_c, 9, 42, 73
1, 164160, Note_on_c, 9, 36, 104
1, 164399, Note_on_c, 9, 54, 0
1, 164399, Note_on_c, 9, 42, 0
1, 164400, Note_on_c, 9, 54, 26
1, 164400, Note_on_c, 9, 42, 55
1, 164639, Note_on_c, 9, 36, 0
1, 164639, Note_on_c, 9, 54, 0
1, 164639, Note_on_c, 9, 42, 0
1, 164640, Note_on_c, 9, 40, 104
1, 164640, Note_on_c, 9, 54, 86
1, 164640, Note_on_c, 9, 39, 94
1, 164640, Note_on_c, 9, 42, 79
1, 164879, Note_on_c, 9, 40, 0
1, 164879, Note_on_c, 9, 54, 0
1, 164879, Note_on_c, 9, 39, 0
1, 164879, Note_on_c, 9, 42, 0
1, 164880, Note_on_c, 9, 54, 29
1, 164880, Note_on_c, 9, 46, 68
1, 164880, Note_on_c, 9, 36, 86
1, 165119, Note_on_c, 9, 54, 0
1, 165119, Note_on_c, 9, 46, 0
1, 165119, Note_on_c, 9, 36, 0
1, 165120, Note_on_c, 9, 54, 34
1, 165120, Note_on_c, 9, 42, 86
1, 165120, Note_on_c, 9, 36, 104
1, 165359, Note_on_c, 9, 54, 0
1, 165359, Note_on_c, 9, 42, 0
1, 165360, Note_on_c, 9, 54, 36
1, 165360, Note_on_c, 9, 42, 68
1, 165599, Note_on_c, 9, 36, 0
1, 165599, Note_on_c, 9, 54, 0
1, 165599, Note_on_c, 9, 42, 0
1, 165600, Note_on_c, 9, 40, 115
1, 165600, Note_on_c, 9, 54, 86
1, 165600, Note_on_c, 9, 39, 79
1, 165600, Note_on_c, 9, 42, 79
1, 165839, Note_on_c, 9, 40, 0
1, 165839, Note_on_c, 9, 54, 0
1, 165839, Note_on_c, 9, 39, 0
1, 165839, Note_on_c, 9, 42, 0
1, 165840, Note_on_c, 9, 54, 44
1, 165840, Note_on_c, 9, 42, 59
1, 165840, Note_on_c, 9, 36, 104
1, 165959, Note_on_c, 9, 54, 0
1, 165959, Note_on_c, 9, 42, 0
1, 165960, Note_on_c, 9, 54, 51
1, 166079, Note_on_c, 9, 36, 0
1, 166079, Note_on_c, 9, 54, 0
1, 166080, Note_on_c, 9, 54, 34
1, 166080, Note_on_c, 9, 42, 73
1, 166080, Note_on_c, 9, 36, 115
1, 166319, Note_on_c, 9, 54, 0
1, 166319, Note_on_c, 9, 42, 0
1, 166320, Note_on_c, 9, 54, 32
1, 166320, Note_on_c, 9, 42, 63
1, 166559, Note_on_c, 9, 36, 0
1, 166559, Note_on_c, 9, 54, 0
1, 166559, Note_on_c, 9, 42, 0
1, 166560, Note_on_c, 9, 40, 104
1, 166560, Note_on_c, 9, 54, 86
1, 166560, Note_on_c, 9, 39, 94
1, 166560, Note_on_c, 9, 42, 79
1, 166799, Note_on_c, 9, 40, 0
1, 166799, Note_on_c, 9, 54, 0
1, 166799, Note_on_c, 9, 39, 0
1, 166799, Note_on_c, 9, 42, 0
1, 166800, Note_on_c, 9, 54, 28
1, 166800, Note_on_c, 9, 42, 63
1, 166800, Note_on_c, 9, 36, 115
1, 167039, Note_on_c, 9, 54, 0
1, 167039, Note_on_c, 9, 42, 0
1, 167039, Note_on_c, 9, 36, 0
1, 167040, Note_on_c, 9, 54, 23
1, 167040, Note_on_c, 9, 42, 79
1, 167279, Note_on_c, 9, 54, 0
1, 167279, Note_on_c, 9, 42, 0
1, 167280, Note_on_c, 9, 54, 27
1, 167280, Note_on_c, 9, 42, 63
1, 167280, Note_on_c, 9, 36, 104
1, 167519, Note_on_c, 9, 54, 0
1, 167519, Note_on_c, 9, 42, 0
1, 167519, Note_on_c, 9, 36, 0
1, 167520, Note_on_c, 9, 40, 104
1, 167520, Note_on_c, 9, 54, 79
1, 167520, Note_on_c, 9, 39, 86
1, 167520, Note_on_c, 9, 42, 79
1, 167640, Note_on_c, 9, 36, 104
1, 167759, Note_on_c, 9, 40, 0
1, 167759, Note_on_c, 9, 54, 0
1, 167759, Note_on_c, 9, 39, 0
1, 167759, Note_on_c, 9, 42, 0
1, 167760, Note_on_c, 9, 54, 38
1, 167760, Note_on_c, 9, 42, 32
1, 167879, Note_on_c, 9, 54, 0
1, 167879, Note_on_c, 9, 42, 0
1, 167880, Note_on_c, 9, 54, 13
1, 167999, Note_on_c, 9, 36, 0
1, 167999, Note_on_c, 9, 54, 0
1, 168000, Note_on_c, 9, 54, 38
1, 168000, Note_on_c, 9, 42, 86
1, 168000, Note_on_c, 9, 36, 115
1, 168239, Note_on_c, 9, 54, 0
1, 168239, Note_on_c, 9, 42, 0
1, 168240, Note_on_c, 9, 54, 33
1, 168240, Note_on_c, 9, 42, 47
1, 168479, Note_on_c, 9, 36, 0
1, 168479, Note_on_c, 9, 54, 0
1, 168479, Note_on_c, 9, 42, 0
1, 168480, Note_on_c, 9, 40, 115
1, 168480, Note_on_c, 9, 54, 79
1, 168480, Note_on_c, 9, 39, 79
1, 168480, Note_on_c, 9, 42, 79
1, 168719, Note_on_c, 9, 40, 0
1, 168719, Note_on_c, 9, 54, 0
1, 168719, Note_on_c, 9, 39, 0
1, 168719, Note_on_c, 9, 42, 0
1, 168720, Note_on_c, 9, 54, 26
1, 168720, Note_on_c, 9, 42, 34
1, 168720, Note_on_c, 9, 36, 86
1, 168959, Note_on_c, 9, 54, 0
1, 168959, Note_on_c, 9, 42, 0
1, 168959, Note_on_c, 9, 36, 0
1, 168960, Note_on_c, 9, 54, 25
1, 168960, Note_on_c, 9, 42, 79
1, 168960, Note_on_c, 9, 36, 104
1, 169199, Note_on_c, 9, 54, 0
1, 169199, Note_on_c, 9, 42, 0
1, 169200, Note_on_c, 9, 54, 22
1, 169200, Note_on_c, 9, 42, 51
1, 169439, Note_on_c, 9, 36, 0
1, 169439, Note_on_c, 9, 54, 0
1, 169439, Note_on_c, 9, 42, 0
1, 169440, Note_on_c, 9, 40, 104
1, 169440, Note_on_c, 9, 54, 86
1, 169440, Note_on_c, 9, 39, 86
1, 169440, Note_on_c, 9, 42, 86
1, 169679, Note_on_c, 9, 40, 0
1, 169679, Note_on_c, 9, 54, 0
1, 169679, Note_on_c, 9, 39, 0
1, 169679, Note_on_c, 9, 42, 0
1, 169680, Note_on_c, 9, 54, 33
1, 169680, Note_on_c, 9, 42, 33
1, 169680, Note_on_c, 9, 36, 94
1, 169799, Note_on_c, 9, 54, 0
1, 169799, Note_on_c, 9, 42, 0
1, 169800, Note_on_c, 9, 54, 29
1, 169919, Note_on_c, 9, 36, 0
1, 169919, Note_on_c, 9, 54, 0
1, 169920, Note_on_c, 9, 54, 33
1, 169920, Note_on_c, 9, 42, 68
1, 169920, Note_on_c, 9, 36, 104
1, 170159, Note_on_c, 9, 54, 0
1, 170159, Note_on_c, 9, 42, 0
1, 170160, Note_on_c, 9, 54, 23
1, 170160, Note_on_c, 9, 42, 31
1, 170399, Note_on_c, 9, 36, 0
1, 170399, Note_on_c, 9, 54, 0
1, 170399, Note_on_c, 9, 42, 0
1, 170400, Note_on_c, 9, 40, 104
1, 170400, Note_on_c, 9, 54, 86
1, 170400, Note_on_c, 9, 39, 86
1, 170400, Note_on_c, 9, 42, 79
1, 170639, Note_on_c, 9, 40, 0
1, 170639, Note_on_c, 9, 54, 0
1, 170639, Note_on_c, 9, 39, 0
1, 170639, Note_on_c, 9, 42, 0
1, 170640, Note_on_c, 9, 54, 25
1, 170640, Note_on_c, 9, 42, 47
1, 170640, Note_on_c, 9, 36, 104
1, 170879, Note_on_c, 9, 54, 0
1, 170879, Note_on_c, 9, 42, 0
1, 170879, Note_on_c, 9, 36, 0
1, 170880, Note_on_c, 9, 54, 27
1, 170880, Note_on_c, 9, 42, 79
1, 171119, Note_on_c, 9, 54, 0
1, 171119, Note_on_c, 9, 42, 0
1, 171120, Note_on_c, 9, 54, 24
1, 171120, Note_on_c, 9, 42, 68
1, 171120, Note_on_c, 9, 36, 104
1, 171359, Note_on_c, 9, 54, 0
1, 171359, Note_on_c, 9, 42, 0
1, 171359, Note_on_c, 9, 36, 0
1, 171360, Note_on_c, 9, 40, 115
1, 171360, Note_on_c, 9, 54, 86
1, 171360, Note_on_c, 9, 39, 86
1, 171360, Note_on_c, 9, 42, 68
1, 171480, Note_on_c, 9, 36, 104
1, 171599, Note_on_c, 9, 40, 0
1, 171599, Note_on_c, 9, 54, 0
1, 171599, Note_on_c, 9, 39, 0
1, 171599, Note_on_c, 9, 42, 0
1, 171600, Note_on_c, 9, 54, 30
1, 171600, Note_on_c, 9, 42, 36
1, 171719, Note_on_c, 9, 54, 0
1, 171719, Note_on_c, 9, 42, 0
1, 171720, Note_on_c, 9, 54, 29
1, 171839, Note_on_c, 9, 36, 0
1, 171839, Note_on_c, 9, 54, 0
1, 171840, Note_on_c, 9, 54, 30
1, 171840, Note_on_c, 9, 42, 73
1, 171840, Note_on_c, 9, 36, 104
1, 172079, Note_on_c, 9, 54, 0
1, 172079, Note_on_c, 9, 42, 0
1, 172080, Note_on_c, 9, 54, 26
1, 172080, Note_on_c, 9, 42, 55
1, 172319, Note_on_c, 9, 36, 0
1, 172319, Note_on_c, 9, 54, 0
1, 172319, Note_on_c, 9, 42, 0
1, 172320, Note_on_c, 9, 40, 104
1, 172320, Note_on_c, 9, 54, 86
1, 172320, Note_on_c, 9, 39, 94
1, 172320, Note_on_c, 9, 42, 79
1, 172559, Note_on_c, 9, 40, 0
1, 172559, Note_on_c, 9, 54, 0
1, 172559, Note_on_c, 9, 39, 0
1, 172559, Note_on_c, 9, 42, 0
1, 172560, Note_on_c, 9, 54, 29
1, 172560, Note_on_c, 9, 42, 68
1, 172560, Note_on_c, 9, 36, 86
1, 172799, Note_on_c, 9, 54, 0
1, 172799, Note_on_c, 9, 42, 0
1, 172799, Note_on_c, 9, 36, 0
1, 172800, Note_on_c, 9, 54, 34
1, 172800, Note_on_c, 9, 42, 86
1, 172800, Note_on_c, 9, 36, 104
1, 173039, Note_on_c, 9, 54, 0
1, 173039, Note_on_c, 9, 42, 0
1, 173040, Note_on_c, 9, 54, 36
1, 173040, Note_on_c, 9, 42, 68
1, 173279, Note_on_c, 9, 36, 0
1, 173279, Note_on_c, 9, 54, 0
1, 173279, Note_on_c, 9, 42, 0
1, 173280, Note_on_c, 9, 40, 115
1, 173280, Note_on_c, 9, 54, 86
1, 173280, Note_on_c, 9, 39, 79
1, 173280, Note_on_c, 9, 42, 79
1, 173519, Note_on_c, 9, 40, 0
1, 173519, Note_on_c, 9, 54, 0
1, 173519, Note_on_c, 9, 39, 0
1, 173519, Note_on_c, 9, 42, 0
1, 173520, Note_on_c, 9, 54, 44
1, 173520, Note_on_c, 9, 42, 59
1, 173520, Note_on_c, 9, 36, 104
1, 173639, Note_on_c, 9, 54, 0
1, 173639, Note_on_c, 9, 42, 0
1, 173640, Note_on_c, 9, 54, 51
1, 173759, Note_on_c, 9, 36, 0
1, 173759, Note_on_c, 9, 54, 0
1, 173760, Note_on_c, 9, 54, 34
1, 173760, Note_on_c, 9, 42, 73
1, 173760, Note_on_c, 9, 36, 115
1, 173999, Note_on_c, 9, 54, 0
1, 173999, Note_on_c, 9, 42, 0
1, 174000, Note_on_c, 9, 54, 32
1, 174000, Note_on_c, 9, 42, 63
1, 174239, Note_on_c, 9, 36, 0
1, 174239, Note_on_c, 9, 54, 0
1, 174239, Note_on_c, 9, 42, 0
1, 174240, Note_on_c, 9, 40, 104
1, 174240, Note_on_c, 9, 54, 86
1, 174240, Note_on_c, 9, 39, 94
1, 174240, Note_on_c, 9, 42, 79
1, 174479, Note_on_c, 9, 40, 0
1, 174479, Note_on_c, 9, 54, 0
1, 174479, Note_on_c, 9, 39, 0
1, 174479, Note_on_c, 9, 42, 0
1, 174480, Note_on_c, 9, 54, 28
1, 174480, Note_on_c, 9, 42, 63
1, 174480, Note_on_c, 9, 36, 115
1, 174719, Note_on_c, 9, 54, 0
1, 174719, Note_on_c, 9, 42, 0
1, 174719, Note_on_c, 9, 36, 0
1, 174720, Note_on_c, 9, 54, 23
1, 174720, Note_on_c, 9, 42, 79
1, 174959, Note_on_c, 9, 54, 0
1, 174959, Note_on_c, 9, 42, 0
1, 174960, Note_on_c, 9, 54, 27
1, 174960, Note_on_c, 9, 42, 63
1, 174960, Note_on_c, 9, 36, 104
1, 175199, Note_on_c, 9, 54, 0
1, 175199, Note_on_c, 9, 42, 0
1, 175199, Note_on_c, 9, 36, 0
1, 175200, Note_on_c, 9, 40, 104
1, 175200, Note_on_c, 9, 54, 79
1, 175200, Note_on_c, 9, 39, 86
1, 175200, Note_on_c, 9, 42, 79
1, 175320, Note_on_c, 9, 36, 104
1, 175439, Note_on_c, 9, 40, 0
1, 175439, Note_on_c, 9, 54, 0
1, 175439, Note_on_c, 9, 39, 0
1, 175439, Note_on_c, 9, 42, 0
1, 175440, Note_on_c, 9, 54, 38
1, 175440, Note_on_c, 9, 42, 32
1, 175559, Note_on_c, 9, 54, 0
1, 175559, Note_on_c, 9, 42, 0
1, 175560, Note_on_c, 9, 54, 13
1, 175679, Note_on_c, 9, 36, 0
1, 175679, Note_on_c, 9, 54, 0
1, 175680, Note_on_c, 9, 54, 38
1, 175680, Note_on_c, 9, 42, 86
1, 175680, Note_on_c, 9, 36, 115
1, 175919, Note_on_c, 9, 54, 0
1, 175919, Note_on_c, 9, 42, 0
1, 175920, Note_on_c, 9, 54, 33
1, 175920, Note_on_c, 9, 42, 47
1, 176159, Note_on_c, 9, 36, 0
1, 176159, Note_on_c, 9, 54, 0
1, 176159, Note_on_c, 9, 42, 0
1, 176160, Note_on_c, 9, 40, 115
1, 176160, Note_on_c, 9, 54, 79
1, 176160, Note_on_c, 9, 39, 79
1, 176160, Note_on_c, 9, 42, 79
1, 176399, Note_on_c, 9, 40, 0
1, 176399, Note_on_c, 9, 54, 0
1, 176399, Note_on_c, 9, 39, 0
1, 176399, Note_on_c, 9, 42, 0
1, 176400, Note_on_c, 9, 54, 26
1, 176400, Note_on_c, 9, 42, 34
1, 176400, Note_on_c, 9, 36, 86
1, 176639, Note_on_c, 9, 54, 0
1, 176639, Note_on_c, 9, 42, 0
1, 176639, Note_on_c, 9, 36, 0
1, 176640, Note_on_c, 9, 54, 25
1, 176640, Note_on_c, 9, 42, 79
1, 176640, Note_on_c, 9, 36, 104
1, 176879, Note_on_c, 9, 54, 0
1, 176879, Note_on_c, 9, 42, 0
1, 176880, Note_on_c, 9, 54, 22
1, 176880, Note_on_c, 9, 42, 51
1, 177119, Note_on_c, 9, 36, 0
1, 177119, Note_on_c, 9, 54, 0
1, 177119, Note_on_c, 9, 42, 0
1, 177120, Note_on_c, 9, 40, 104
1, 177120, Note_on_c, 9, 54, 86
1, 177120, Note_on_c, 9, 39, 86
1, 177120, Note_on_c, 9, 42, 86
1, 177359, Note_on_c, 9, 40, 0
1, 177359, Note_on_c, 9, 54, 0
1, 177359, Note_on_c, 9, 39, 0
1, 177359, Note_on_c, 9, 42, 0
1, 177360, Note_on_c, 9, 54, 33
1, 177360, Note_on_c, 9, 42, 33
1, 177360, Note_on_c, 9, 36, 94
1, 177479, Note_on_c, 9, 54, 0
1, 177479, Note_on_c, 9, 42, 0
1, 177480, Note_on_c, 9, 54, 29
1, 177599, Note_on_c, 9, 36, 0
1, 177599, Note_on_c, 9, 54, 0
1, 177600, Note_on_c, 9, 54, 33
1, 177600, Note_on_c, 9, 42, 68
1, 177600, Note_on_c, 9, 36, 104
1, 177839, Note_on_c, 9, 54, 0
1, 177839, Note_on_c, 9, 42, 0
1, 177840, Note_on_c, 9, 54, 23
1, 177840, Note_on_c, 9, 42, 31
1, 178079, Note_on_c, 9, 36, 0
1, 178079, Note_on_c, 9, 54, 0
1, 178079, Note_on_c, 9, 42, 0
1, 178080, Note_on_c, 9, 40, 104
1, 178080, Note_on_c, 9, 54, 86
1, 178080, Note_on_c, 9, 39, 86
1, 178080, Note_on_c, 9, 42, 79
1, 178319, Note_on_c, 9, 40, 0
1, 178319, Note_on_c, 9, 54, 0
1, 178319, Note_on_c, 9, 39, 0
1, 178319, Note_on_c, 9, 42, 0
1, 178320, Note_on_c, 9, 54, 25
1, 178320, Note_on_c, 9, 42, 47
1, 178320, Note_on_c, 9, 36, 104
1, 178559, Note_on_c, 9, 54, 0
1, 178559, Note_on_c, 9, 42, 0
1, 178559, Note_on_c, 9, 36, 0
1, 178560, Note_on_c, 9, 54, 27
1, 178560, Note_on_c, 9, 42, 79
1, 178799, Note_on_c, 9, 54, 0
1, 178799, Note_on_c, 9, 42, 0
1, 178800, Note_on_c, 9, 54, 24
1, 178800, Note_on_c, 9, 42, 68
1, 178800, Note_on_c, 9, 36, 104
1, 179039, Note_on_c, 9, 54, 0
1, 179039, Note_on_c, 9, 42, 0
1, 179039, Note_on_c, 9, 36, 0
1, 179040, Note_on_c, 9, 40, 115
1, 179040, Note_on_c, 9, 54, 86
1, 179040, Note_on_c, 9, 39, 86
1, 179040, Note_on_c, 9, 42, 68
1, 179160, Note_on_c, 9, 36, 104
1, 179279, Note_on_c, 9, 40, 0
1, 179279, Note_on_c, 9, 54, 0
1, 179279, Note_on_c, 9, 39, 0
1, 179279, Note_on_c, 9, 42, 0
1, 179280, Note_on_c, 9, 54, 30
1, 179280, Note_on_c, 9, 42, 36
1, 179399, Note_on_c, 9, 54, 0
1, 179399, Note_on_c, 9, 42, 0
1, 179400, Note_on_c, 9, 54, 29
1, 179519, Note_on_c, 9, 36, 0
1, 179519, Note_on_c, 9, 54, 0
1, 179520, Note_on_c, 9, 54, 30
1, 179520, Note_on_c, 9, 42, 73
1, 179520, Note_on_c, 9, 36, 104
1, 179759, Note_on_c, 9, 54, 0
1, 179759, Note_on_c, 9, 42, 0
1, 179760, Note_on_c, 9, 54, 26
1, 179760, Note_on_c, 9, 42, 55
1, 179999, Note_on_c, 9, 36, 0
1, 179999, Note_on_c, 9, 54, 0
1, 179999, Note_on_c, 9, 42, 0
1, 180000, Note_on_c, 9, 40, 104
1, 180000, Note_on_c, 9, 54, 86
1, 180000, Note_on_c, 9, 39, 94
1, 180000, Note_on_c, 9, 42, 79
1, 180239, Note_on_c, 9, 40, 0
1, 180239, Note_on_c, 9, 54, 0
1, 180239, Note_on_c, 9, 39, 0
1, 180239, Note_on_c, 9, 42, 0
1, 180240, Note_on_c, 9, 54, 29
1, 180240, Note_on_c, 9, 46, 68
1, 180240, Note_on_c, 9, 36, 86
1, 180479, Note_on_c, 9, 54, 0
1, 180479, Note_on_c, 9, 46, 0
1, 180479, Note_on_c, 9, 36, 0
1, 180480, Note_on_c, 9, 54, 34
1, 180480, Note_on_c, 9, 42, 86
1, 180480, Note_on_c, 9, 36, 104
1, 180719, Note_on_c, 9, 54, 0
1, 180719, Note_on_c, 9, 42, 0
1, 180720, Note_on_c, 9, 54, 36
1, 180720, Note_on_c, 9, 42, 68
1, 180959, Note_on_c, 9, 36, 0
1, 180959, Note_on_c, 9, 54, 0
1, 180959, Note_on_c, 9, 42, 0
1, 180960, Note_on_c, 9, 40, 115
1, 180960, Note_on_c, 9, 54, 86
1, 180960, Note_on_c, 9, 39, 79
1, 180960, Note_on_c, 9, 42, 79
1, 181199, Note_on_c, 9, 40, 0
1, 181199, Note_on_c, 9, 54, 0
1, 181199, Note_on_c, 9, 39, 0
1, 181199, Note_on_c, 9, 42, 0
1, 181200, Note_on_c, 9, 54, 44
1, 181200, Note_on_c, 9, 42, 59
1, 181200, Note_on_c, 9, 36, 104
1, 181319, Note_on_c, 9, 54, 0
1, 181319, Note_on_c, 9, 42, 0
1, 181320, Note_on_c, 9, 54, 51
1, 181439, Note_on_c, 9, 36, 0
1, 181439, Note_on_c, 9, 54, 0
1, 181440, Note_on_c, 9, 54, 34
1, 181440, Note_on_c, 9, 42, 73
1, 181440, Note_on_c, 9, 36, 115
1, 181679, Note_on_c, 9, 54, 0
1, 181679, Note_on_c, 9, 42, 0
1, 181680, Note_on_c, 9, 54, 32
1, 181680, Note_on_c, 9, 42, 63
1, 181919, Note_on_c, 9, 36, 0
1, 181919, Note_on_c, 9, 54, 0
1, 181919, Note_on_c, 9, 42, 0
1, 181920, Note_on_c, 9, 40, 104
1, 181920, Note_on_c, 9, 54, 86
1, 181920, Note_on_c, 9, 39, 94
1, 181920, Note_on_c, 9, 42, 79
1, 182159, Note_on_c, 9, 40, 0
1, 182159, Note_on_c, 9, 54, 0
1, 182159, Note_on_c, 9, 39, 0
1, 182159, Note_on_c, 9, 42, 0
1, 182160, Note_on_c, 9, 54, 28
1, 182160, Note_on_c, 9, 42, 63
1, 182160, Note_on_c, 9, 36, 115
1, 182399, Note_on_c, 9, 54, 0
1, 182399, Note_on_c, 9, 42, 0
1, 182399, Note_on_c, 9, 36, 0
1, 182400, Note_on_c, 9, 54, 23
1, 182400, Note_on_c, 9, 42, 79
1, 182639, Note_on_c, 9, 54, 0
1, 182639, Note_on_c, 9, 42, 0
1, 182640, Note_on_c, 9, 54, 27
1, 182640, Note_on_c, 9, 42, 63
1, 182640, Note_on_c, 9, 36, 104
1, 182879, Note_on_c, 9, 54, 0
1, 182879, Note_on_c, 9, 42, 0
1, 182879, Note_on_c, 9, 36, 0
1, 182880, Note_on_c, 9, 40, 104
1, 182880, Note_on_c, 9, 54, 79
1, 182880, Note_on_c, 9, 39, 86
1, 182880, Note_on_c, 9, 42, 79
1, 183000, Note_on_c, 9, 36, 104
1, 183119, Note_on_c, 9, 40, 0
1, 183119, Note_on_c, 9, 54, 0
1, 183119, Note_on_c, 9, 39, 0
1, 183119, Note_on_c, 9, 42, 0
1, 183120, Note_on_c, 9, 54, 38
1, 183120, Note_on_c, 9, 42, 32
1, 183239, Note_on_c, 9, 54, 0
1, 183239, Note_on_c, 9, 42, 0
1, 183240, Note_on_c, 9, 54, 13
1, 183359, Note_on_c, 9, 36, 0
1, 183359, Note_on_c, 9, 54, 0
1, 183360, Note_on_c, 9, 54, 38
1, 183360, Note_on_c, 9, 42, 86
1, 183360, Note_on_c, 9, 36, 115
1, 183599, Note_on_c, 9, 54, 0
1, 183599, Note_on_c, 9, 42, 0
1, 183600, Note_on_c, 9, 54, 33
1, 183600, Note_on_c, 9, 42, 47
1, 183839, Note_on_c, 9, 36, 0
1, 183839, Note_on_c, 9, 54, 0
1, 183839, Note_on_c, 9, 42, 0
1, 183840, Note_on_c, 9, 40, 115
1, 183840, Note_on_c, 9, 54, 79
1, 183840, Note_on_c, 9, 39, 79
1, 183840, Note_on_c, 9, 42, 79
1, 184079, Note_on_c, 9, 40, 0
1, 184079, Note_on_c, 9, 54, 0
1, 184079, Note_on_c, 9, 39, 0
1, 184079, Note_on_c, 9, 42, 0
1, 184080, Note_on_c, 9, 54, 26
1, 184080, Note_on_c, 9, 42, 34
1, 184080, Note_on_c, 9, 36, 86
1, 184319, Note_on_c, 9, 54, 0
1, 184319, Note_on_c, 9, 42, 0
1, 184319, Note_on_c, 9, 36, 0
1, 184320, Note_on_c, 9, 54, 25
1, 184320, Note_on_c, 9, 42, 79
1, 184320, Note_on_c, 9, 36, 104
1, 184559, Note_on_c, 9, 54, 0
1, 184559, Note_on_c, 9, 42, 0
1, 184560, Note_on_c, 9, 54, 22
1, 184560, Note_on_c, 9, 42, 51
1, 184799, Note_on_c, 9, 36, 0
1, 184799, Note_on_c, 9, 54, 0
1, 184799, Note_on_c, 9, 42, 0
1, 184800, Note_on_c, 9, 40, 104
1, 184800, Note_on_c, 9, 54, 86
1, 184800, Note_on_c, 9, 39, 86
1, 184800, Note_on_c, 9, 42, 86
1, 185039, Note_on_c, 9, 40, 0
1, 185039, Note_on_c, 9, 54, 0
1, 185039, Note_on_c, 9, 39, 0
1, 185039, Note_on_c, 9, 42, 0
1, 185040, Note_on_c, 9, 54, 33
1, 185040, Note_on_c, 9, 42, 33
1, 185040, Note_on_c, 9, 36, 94
1, 185159, Note_on_c, 9, 54, 0
1, 185159, Note_on_c, 9, 42, 0
1, 185160, Note_on_c, 9, 54, 29
1, 185279, Note_on_c, 9, 36, 0
1, 185279, Note_on_c, 9, 54, 0
1, 185280, Note_on_c, 9, 54, 33
1, 185280, Note_on_c, 9, 42, 68
1, 185280, Note_on_c, 9, 36, 104
1, 185519, Note_on_c, 9, 54, 0
1, 185519, Note_on_c, 9, 42, 0
1, 185520, Note_on_c, 9, 54, 23
1, 185520, Note_on_c, 9, 42, 31
1, 185759, Note_on_c, 9, 36, 0
1, 185759, Note_on_c, 9, 54, 0
1, 185759, Note_on_c, 9, 42, 0
1, 185760, Note_on_c, 9, 40, 104
1, 185760, Note_on_c, 9, 54, 86
1, 185760, Note_on_c, 9, 39, 86
1, 185760, Note_on_c, 9, 42, 79
1, 185999, Note_on_c, 9, 40, 0
1, 185999, Note_on_c, 9, 54, 0
1, 185999, Note_on_c, 9, 39, 0
1, 185999, Note_on_c, 9, 42, 0
1, 186000, Note_on_c, 9, 54, 25
1, 186000, Note_on_c, 9, 42, 47
1, 186000, Note_on_c, 9, 36, 104
1, 186239, Note_on_c, 9, 54, 0
1, 186239, Note_on_c, 9, 42, 0
1, 186239, Note_on_c, 9, 36, 0
1, 186240, Note_on_c, 9, 54, 27
1, 186240, Note_on_c, 9, 42, 79
1, 186479, Note_on_c, 9, 54, 0
1, 186479, Note_on_c, 9, 42, 0
1, 186480, Note_on_c, 9, 54, 24
1, 186480, Note_on_c, 9, 42, 68
1, 186480, Note_on_c, 9, 36, 104
1, 186719, Note_on_c, 9, 54, 0
1, 186719, Note_on_c, 9, 42, 0
1, 186719, Note_on_c, 9, 36, 0
1, 186720, Note_on_c, 9, 40, 115
1, 186720, Note_on_c, 9, 54, 86
1, 186720, Note_on_c, 9, 39, 86
1, 186720, Note_on_c, 9, 42, 68
1, 186840, Note_on_c, 9, 36, 104
1, 186959, Note_on_c, 9, 40, 0
1, 186959, Note_on_c, 9, 54, 0
1, 186959, Note_on_c, 9, 39, 0
1, 186959, Note_on_c, 9, 42, 0
1, 186960, Note_on_c, 9, 54, 30
1, 186960, Note_on_c, 9, 42, 36
1, 187079, Note_on_c, 9, 54, 0
1, 187079, Note_on_c, 9, 42, 0
1, 187080, Note_on_c, 9, 54, 29
1, 187199, Note_on_c, 9, 36, 0
1, 187199, Note_on_c, 9, 54, 0
1, 187200, Note_on_c, 9, 54, 30
1, 187200, Note_on_c, 9, 42, 73
1, 187200, Note_on_c, 9, 36, 104
1, 187439, Note_on_c, 9, 54, 0
1, 187439, Note_on_c, 9, 42, 0
1, 187440, Note_on_c, 9, 54, 26
1, 187440, Note_on_c, 9, 42, 55
1, 187679, Note_on_c, 9, 36, 0
1, 187679, Note_on_c, 9, 54, 0
1, 187679, Note_on_c, 9, 42, 0
1, 187680, Note_on_c, 9, 40, 104
1, 187680, Note_on_c, 9, 54, 86
1, 187680, Note_on_c, 9, 39, 94
1, 187680, Note_on_c, 9, 42, 79
1, 187919, Note_on_c, 9, 40, 0
1, 187919, Note_on_c, 9, 54, 0
1, 187919, Note_on_c, 9, 39, 0
1, 187919, Note_on_c, 9, 42, 0
1, 187920, Note_on_c, 9, 54, 29
1, 187920, Note_on_c, 9, 42, 68
1, 187920, Note_on_c, 9, 36, 86
1, 188159, Note_on_c, 9, 54, 0
1, 188159, Note_on_c, 9, 42, 0
1, 188159, Note_on_c, 9, 36, 0
1, 188160, Note_on_c, 9, 54, 34
1, 188160, Note_on_c, 9, 42, 86
1, 188160, Note_on_c, 9, 36, 104
1, 188399, Note_on_c, 9, 54, 0
1, 188399, Note_on_c, 9, 42, 0
1, 188400, Note_on_c, 9, 54, 36
1, 188400, Note_on_c, 9, 42, 68
1, 188639, Note_on_c, 9, 36, 0
1, 188639, Note_on_c, 9, 54, 0
1, 188639, Note_on_c, 9, 42, 0
1, 188640, Note_on_c, 9, 40, 115
1, 188640, Note_on_c, 9, 54, 86
1, 188640, Note_on_c, 9, 39, 79
1, 188640, Note_on_c, 9, 42, 79
1, 188879, Note_on_c, 9, 40, 0
1, 188879, Note_on_c, 9, 54, 0
1, 188879, Note_on_c, 9, 39, 0
1, 188879, Note_on_c, 9, 42, 0
1, 188880, Note_on_c, 9, 54, 44
1, 188880, Note_on_c, 9, 42, 59
1, 188880, Note_on_c, 9, 36, 104
1, 188999, Note_on_c, 9, 54, 0
1, 188999, Note_on_c, 9, 42, 0
1, 189000, Note_on_c, 9, 54, 51
1, 189119, Note_on_c, 9, 36, 0
1, 189119, Note_on_c, 9, 54, 0
1, 189120, Note_on_c, 9, 54, 34
1, 189120, Note_on_c, 9, 42, 73
1, 189120, Note_on_c, 9, 36, 115
1, 189359, Note_on_c, 9, 54, 0
1, 189359, Note_on_c, 9, 42, 0
1, 189360, Note_on_c, 9, 54, 32
1, 189360, Note_on_c, 9, 42, 63
1, 189599, Note_on_c, 9, 36, 0
1, 189599, Note_on_c, 9, 54, 0
1, 189599, Note_on_c, 9, 42, 0
1, 189600, Note_on_c, 9, 40, 104
1, 189600, Note_on_c, 9, 54, 86
1, 189600, Note_on_c, 9, 39, 94
1, 189600, Note_on_c, 9, 42, 79
1, 189839, Note_on_c, 9, 40, 0
1, 189839, Note_on_c, 9, 54, 0
1, 189839, Note_on_c, 9, 39, 0
1, 189839, Note_on_c, 9, 42, 0
1, 189840, Note_on_c, 9, 54, 28
1, 189840, Note_on_c, 9, 42, 63
1, 189840, Note_on_c, 9, 36, 115
1, 190079, Note_on_c, 9, 54, 0
1, 190079, Note_on_c, 9, 42, 0
1, 190079, Note_on_c, 9, 36, 0
1, 190080, Note_on_c, 9, 54, 23
1, 190080, Note_on_c, 9, 42, 79
1, 190319, Note_on_c, 9, 54, 0
1, 190319, Note_on_c, 9, 42, 0
1, 190320, Note_on_c, 9, 54, 27
1, 190320, Note_on_c, 9, 42, 63
1, 190320, Note_on_c, 9, 36, 104
1, 190559, Note_on_c, 9, 54, 0
1, 190559, Note_on_c, 9, 42, 0
1, 190559, Note_on_c, 9, 36, 0
1, 190560, Note_on_c, 9, 40, 104
1, 190560, Note_on_c, 9, 54, 79
1, 190560, Note_on_c, 9, 39, 86
1, 190560, Note_on_c, 9, 42, 79
1, 190680, Note_on_c, 9, 36, 104
1, 190799, Note_on_c, 9, 40, 0
1, 190799, Note_on_c, 9, 54, 0
1, 190799, Note_on_c, 9, 39, 0
1, 190799, Note_on_c, 9, 42, 0
1, 190800, Note_on_c, 9, 54, 38
1, 190800, Note_on_c, 9, 42, 32
1, 190919, Note_on_c, 9, 54, 0
1, 190919, Note_on_c, 9, 42, 0
1, 190920, Note_on_c, 9, 54, 13
1, 191039, Note_on_c, 9, 36, 0
1, 191039, Note_on_c, 9, 54, 0
1, 191040, Note_on_c, 9, 54, 38
1, 191040, Note_on_c, 9, 42, 86
1, 191040, Note_on_c, 9, 36, 115
1, 191279, Note_on_c, 9, 54, 0
1, 191279, Note_on_c, 9, 42, 0
1, 191280, Note_on_c, 9, 54, 33
1, 191280, Note_on_c, 9, 42, 47
1, 191519, Note_on_c, 9, 36, 0
1, 191519, Note_on_c, 9, 54, 0
1, 191519, Note_on_c, 9, 42, 0
1, 191520, Note_on_c, 9, 40, 115
1, 191520, Note_on_c, 9, 54, 79
1, 191520, Note_on_c, 9, 39, 79
1, 191520, Note_on_c, 9, 42, 79
1, 191759, Note_on_c, 9, 40, 0
1, 191759, Note_on_c, 9, 54, 0
1, 191759, Note_on_c, 9, 39, 0
1, 191759, Note_on_c, 9, 42, 0
1, 191760, Note_on_c, 9, 54, 26
1, 191760, Note_on_c, 9, 42, 34
1, 191760, Note_on_c, 9, 36, 86
1, 191999, Note_on_c, 9, 54, 0
1, 191999, Note_on_c, 9, 42, 0
1, 191999, Note_on_c, 9, 36, 0
1, 192000, Note_on_c, 9, 54, 25
1, 192000, Note_on_c, 9, 42, 79
1, 192000, Note_on_c, 9, 36, 104
1, 192239, Note_on_c, 9, 54, 0
1, 192239, Note_on_c, 9, 42, 0
1, 192240, Note_on_c, 9, 54, 22
1, 192240, Note_on_c, 9, 42, 51
1, 192479, Note_on_c, 9, 36, 0
1, 192479, Note_on_c, 9, 54, 0
1, 192479, Note_on_c, 9, 42, 0
1, 192480, Note_on_c, 9, 40, 104
1, 192480, Note_on_c, 9, 54, 86
1, 192480, Note_on_c, 9, 39, 86
1, 192480, Note_on_c, 9, 42, 86
1, 192719, Note_on_c, 9, 40, 0
1, 192719, Note_on_c, 9, 54, 0
1, 192719, Note_on_c, 9, 39, 0
1, 192719, Note_on_c, 9, 42, 0
1, 192720, Note_on_c, 9, 54, 33
1, 192720, Note_on_c, 9, 42, 33
1, 192720, Note_on_c, 9, 36, 94
1, 192839, Note_on_c, 9, 54, 0
1, 192839, Note_on_c, 9, 42, 0
1, 192840, Note_on_c, 9, 54, 29
1, 192959, Note_on_c, 9, 36, 0
1, 192959, Note_on_c, 9, 54, 0
1, 192960, Note_on_c, 9, 54, 33
1, 192960, Note_on_c, 9, 42, 68
1, 192960, Note_on_c, 9, 36, 104
1, 193199, Note_on_c, 9, 54, 0
1, 193199, Note_on_c, 9, 42, 0
1, 193200, Note_on_c, 9, 54, 23
1, 193200, Note_on_c, 9, 42, 31
1, 193439, Note_on_c, 9, 36, 0
1, 193439, Note_on_c, 9, 54, 0
1, 193439, Note_on_c, 9, 42, 0
1, 193440, Note_on_c, 9, 40, 104
1, 193440, Note_on_c, 9, 54, 86
1, 193440, Note_on_c, 9, 39, 86
1, 193440, Note_on_c, 9, 42, 79
1, 193679, Note_on_c, 9, 40, 0
1, 193679, Note_on_c, 9, 54, 0
1, 193679, Note_on_c, 9, 39, 0
1, 193679, Note_on_c, 9, 42, 0
1, 193680, Note_on_c, 9, 54, 25
1, 193680, Note_on_c, 9, 42, 47
1, 193680, Note_on_c, 9, 36, 104
1, 193919, Note_on_c, 9, 54, 0
1, 193919, Note_on_c, 9, 42, 0
1, 193919, Note_on_c, 9, 36, 0
1, 193920, Note_on_c, 9, 54, 27
1, 193920, Note_on_c, 9, 42, 79
1, 194159, Note_on_c, 9, 54, 0
1, 194159, Note_on_c, 9, 42, 0
1, 194160, Note_on_c, 9, 54, 24
1, 194160, Note_on_c, 9, 42, 68
1, 194160, Note_on_c, 9, 36, 104
1, 194399, Note_on_c, 9, 54, 0
1, 194399, Note_on_c, 9, 42, 0
1, 194399, Note_on_c, 9, 36, 0
1, 194400, Note_on_c, 9, 40, 115
1, 194400, Note_on_c, 9, 54, 86
1, 194400, Note_on_c, 9, 39, 86
1, 194400, Note_on_c, 9, 42, 68
1, 194520, Note_on_c, 9, 36, 104
1, 194639, Note_on_c, 9, 40, 0
1, 194639, Note_on_c, 9, 54, 0
1, 194639, Note_on_c, 9, 39, 0
1, 194639, Note_on_c, 9, 42, 0
1, 194640, Note_on_c, 9, 54, 30
1, 194640, Note_on_c, 9, 42, 36
1, 194759, Note_on_c, 9, 54, 0
1, 194759, Note_on_c, 9, 42, 0
1, 194760, Note_on_c, 9, 54, 29
1, 194879, Note_on_c, 9, 36, 0
1, 194879, Note_on_c, 9, 54, 0
1, 194880, Note_on_c, 9, 54, 30
1, 194880, Note_on_c, 9, 42, 73
1, 194880, Note_on_c, 9, 36, 104
1, 195119, Note_on_c, 9, 54, 0
1, 195119, Note_on_c, 9, 42, 0
1, 195120, Note_on_c, 9, 54, 26
1, 195120, Note_on_c, 9, 42, 55
1, 195359, Note_on_c, 9, 36, 0
1, 195359, Note_on_c, 9, 54, 0
1, 195359, Note_on_c, 9, 42, 0
1, 195360, Note_on_c, 9, 40, 104
1, 195360, Note_on_c, 9, 54, 86
1, 195360, Note_on_c, 9, 39, 94
1, 195360, Note_on_c, 9, 42, 79
1, 195599, Note_on_c, 9, 40, 0
1, 195599, Note_on_c, 9, 54, 0
1, 195599, Note_on_c, 9, 39, 0
1, 195599, Note_on_c, 9, 42, 0
1, 195600, Note_on_c, 9, 54, 29
1, 195600, Note_on_c, 9, 46, 68
1, 195600, Note_on_c, 9, 36, 86
1, 195839, Note_on_c, 9, 54, 0
1, 195839, Note_on_c, 9, 46, 0
1, 195839, Note_on_c, 9, 36, 0
1, 195840, Note_on_c, 9, 54, 34
1, 195840, Note_on_c, 9, 42, 86
1, 195840, Note_on_c, 9, 36, 104
1, 196079, Note_on_c, 9, 54, 0
1, 196079, Note_on_c, 9, 42, 0
1, 196080, Note_on_c, 9, 54, 36
1, 196080, Note_on_c, 9, 42, 68
1, 196319, Note_on_c, 9, 36, 0
1, 196319, Note_on_c, 9, 54, 0
1, 196319, Note_on_c, 9, 42, 0
1, 196320, Note_on_c, 9, 40, 115
1, 196320, Note_on_c, 9, 54, 86
1, 196320, Note_on_c, 9, 39, 79
1, 196320, Note_on_c, 9, 42, 79
1, 196559, Note_on_c, 9, 40, 0
1, 196559, Note_on_c, 9, 54, 0
1, 196559, Note_on_c, 9, 39, 0
1, 196559, Note_on_c, 9, 42, 0
1, 196560, Note_on_c, 9, 54, 44
1, 196560, Note_on_c, 9, 42, 59
1, 196560, Note_on_c, 9, 36, 104
1, 196679, Note_on_c, 9, 54, 0
1, 196679, Note_on_c, 9, 42, 0
1, 196680, Note_on_c, 9, 54, 51
1, 196799, Note_on_c, 9, 36, 0
1, 196799, Note_on_c, 9, 54, 0
1, 196800, Note_on_c, 9, 54, 34
1, 196800, Note_on_c, 9, 42, 73
1, 196800, Note_on_c, 9, 36, 115
1, 197039, Note_on_c, 9, 54, 0
1, 197039, Note_on_c, 9, 42, 0
1, 197040, Note_on_c, 9, 54, 32
1, 197040, Note_on_c, 9, 42, 63
1, 197279, Note_on_c, 9, 36, 0
1, 197279, Note_on_c, 9, 54, 0
1, 197279, Note_on_c, 9, 42, 0
1, 197280, Note_on_c, 9, 40, 104
1, 197280, Note_on_c, 9, 54, 86
1, 197280, Note_on_c, 9, 39, 94
1, 197280, Note_on_c, 9, 42, 79
1, 197519, Note_on_c, 9, 40, 0
1, 197519, Note_on_c, 9, 54, 0
1, 197519, Note_on_c, 9, 39, 0
1, 197519, Note_on_c, 9, 42, 0
1, 197520, Note_on_c, 9, 54, 28
1, 197520, Note_on_c, 9, 42, 63
1, 197520, Note_on_c, 9, 36, 115
1, 197759, Note_on_c, 9, 54, 0
1, 197759, Note_on_c, 9, 42, 0
1, 197759, Note_on_c, 9, 36, 0
1, 197760, Note_on_c, 9, 54, 23
1, 197760, Note_on_c, 9, 42, 79
1, 197999, Note_on_c, 9, 54, 0
1, 197999, Note_on_c, 9, 42, 0
1, 198000, Note_on_c, 9, 54, 27
1, 198000, Note_on_c, 9, 42, 63
1, 198000, Note_on_c, 9, 36, 104
1, 198239, Note_on_c, 9, 54, 0
1, 198239, Note_on_c, 9, 42, 0
1, 198239, Note_on_c, 9, 36, 0
1, 198240, Note_on_c, 9, 40, 104
1, 198240, Note_on_c, 9, 54, 79
1, 198240, Note_on_c, 9, 39, 86
1, 198240, Note_on_c, 9, 42, 79
1, 198360, Note_on_c, 9, 36, 104
1, 198479, Note_on_c, 9, 40, 0
1, 198479, Note_on_c, 9, 54, 0
1, 198479, Note_on_c, 9, 39, 0
1, 198479, Note_on_c, 9, 42, 0
1, 198480, Note_on_c, 9, 54, 38
1, 198480, Note_on_c, 9, 42, 32
1, 198599, Note_on_c, 9, 54, 0
1, 198599, Note_on_c, 9, 42, 0
1, 198600, Note_on_c, 9, 54, 13
1, 198719, Note_on_c, 9, 36, 0
1, 198719, Note_on_c, 9, 54, 0
1, 198720, Note_on_c, 9, 54, 38
1, 198720, Note_on_c, 9, 42, 86
1, 198720, Note_on_c, 9, 36, 115
1, 198959, Note_on_c, 9, 54, 0
1, 198959, Note_on_c, 9, 42, 0
1, 198960, Note_on_c, 9, 54, 33
1, 198960, Note_on_c, 9, 42, 47
1, 199199, Note_on_c, 9, 36, 0
1, 199199, Note_on_c, 9, 54, 0
1, 199199, Note_on_c, 9, 42, 0
1, 199200, Note_on_c, 9, 40, 115
1, 199200, Note_on_c, 9, 54, 79
1, 199200, Note_on_c, 9, 39, 79
1, 199200, Note_on_c, 9, 42, 79
1, 199439, Note_on_c, 9, 40, 0
1, 199439, Note_on_c, 9, 54, 0
1, 199439, Note_on_c, 9, 39, 0
1, 199439, Note_on_c, 9, 42, 0
1, 199440, Note_on_c, 9, 54, 26
1, 199440, Note_on_c, 9, 42, 34
1, 199440, Note_on_c, 9, 36, 86
1, 199679, Note_on_c, 9, 54, 0
1, 199679, Note_on_c, 9, 42, 0
1, 199679, Note_on_c, 9, 36, 0
1, 199680, Note_on_c, 9, 54, 25
1, 199680, Note_on_c, 9, 42, 79
1, 199680, Note_on_c, 9, 36, 104
1, 199919, Note_on_c, 9, 54, 0
1, 199919, Note_on_c, 9, 42, 0
1, 199920, Note_on_c, 9, 54, 22
1, 199920, Note_on_c, 9, 42, 51
1, 200159, Note_on_c, 9, 36, 0
1, 200159, Note_on_c, 9, 54, 0
1, 200159, Note_on_c, 9, 42, 0
1, 200160, Note_on_c, 9, 40, 104
1, 200160, Note_on_c, 9, 54, 86
1, 200160, Note_on_c, 9, 39, 86
1, 200160, Note_on_c, 9, 42, 86
1, 200399, Note_on_c, 9, 40, 0
1, 200399, Note_on_c, 9, 54, 0
1, 200399, Note_on_c, 9, 39, 0
1, 200399, Note_on_c, 9, 42, 0
1, 200400, Note_on_c, 9, 54, 33
1, 200400, Note_on_c, 9, 42, 33
1, 200400, Note_on_c, 9, 36, 94
1, 200519, Note_on_c, 9, 54, 0
1, 200519, Note_on_c, 9, 42, 0
1, 200520, Note_on_c, 9, 54, 29
1, 200639, Note_on_c, 9, 36, 0
1, 200639, Note_on_c, 9, 54, 0
1, 200640, Note_on_c, 9, 54, 33
1, 200640, Note_on_c, 9, 42, 68
1, 200640, Note_on_c, 9, 36, 104
1, 200879, Note_on_c, 9, 54, 0
1, 200879, Note_on_c, 9, 42, 0
1, 200880, Note_on_c, 9, 54, 23
1, 200880, Note_on_c, 9, 42, 31
1, 201119, Note_on_c, 9, 36, 0
1, 201119, Note_on_c, 9, 54, 0
1, 201119, Note_on_c, 9, 42, 0
1, 201120, Note_on_c, 9, 40, 104
1, 201120, Note_on_c, 9, 54, 86
1, 201120, Note_on_c, 9, 39, 86
1, 201120, Note_on_c, 9, 42, 79
1, 201359, Note_on_c, 9, 40, 0
1, 201359, Note_on_c, 9, 54, 0
1, 201359, Note_on_c, 9, 39, 0
1, 201359, Note_on_c, 9, 42, 0
1, 201360, Note_on_c, 9, 54, 25
1, 201360, Note_on_c, 9, 42, 47
1, 201360, Note_on_c, 9, 36, 104
1, 201599, Note_on_c, 9, 54, 0
1, 201599, Note_on_c, 9, 42, 0
1, 201599, Note_on_c, 9, 36, 0
1, 201600, Note_on_c, 9, 54, 27
1, 201600, Note_on_c, 9, 42, 79
1, 201839, Note_on_c, 9, 54, 0
1, 201839, Note_on_c, 9, 42, 0
1, 201840, Note_on_c, 9, 54, 24
1, 201840, Note_on_c, 9, 42, 68
1, 201840, Note_on_c, 9, 36, 104
1, 202079, Note_on_c, 9, 54, 0
1, 202079, Note_on_c, 9, 42, 0
1, 202079, Note_on_c, 9, 36, 0
1, 202080, Note_on_c, 9, 40, 115
1, 202080, Note_on_c, 9, 54, 86
1, 202080, Note_on_c, 9, 39, 86
1, 202080, Note_on_c, 9, 42, 68
1, 202200, Note_on_c, 9, 36, 104
1, 202319, Note_on_c, 9, 40, 0
1, 202319, Note_on_c, 9, 54, 0
1, 202319, Note_on_c, 9, 39, 0
1, 202319, Note_on_c, 9, 42, 0
1, 202320, Note_on_c, 9, 54, 30
1, 202320, Note_on_c, 9, 42, 36
1, 202439, Note_on_c, 9, 54, 0
1, 202439, Note_on_c, 9, 42, 0
1, 202440, Note_on_c, 9, 54, 29
1, 202559, Note_on_c, 9, 36, 0
1, 202559, Note_on_c, 9, 54, 0
1, 202560, Note_on_c, 9, 54, 30
1, 202560, Note_on_c, 9, 42, 73
1, 202560, Note_on_c, 9, 36, 104
1, 202799, Note_on_c, 9, 54, 0
1, 202799, Note_on_c, 9, 42, 0
1, 202800, Note_on_c, 9, 54, 26
1, 202800, Note_on_c, 9, 42, 55
1, 203039, Note_on_c, 9, 36, 0
1, 203039, Note_on_c, 9, 54, 0
1, 203039, Note_on_c, 9, 42, 0
1, 203040, Note_on_c, 9, 40, 104
1, 203040, Note_on_c, 9, 54, 86
1, 203040, Note_on_c, 9, 39, 94
1, 203040, Note_on_c, 9, 42, 79
1, 203279, Note_on_c, 9, 40, 0
1, 203279, Note_on_c, 9, 54, 0
1, 203279, Note_on_c, 9, 39, 0
1, 203279, Note_on_c, 9, 42, 0
1, 203280, Note_on_c, 9, 54, 29
1, 203280, Note_on_c, 9, 42, 68
1, 203280, Note_on_c, 9, 36, 86
1, 203519, Note_on_c, 9, 54, 0
1, 203519, Note_on_c, 9, 42, 0
1, 203519, Note_on_c, 9, 36, 0
1, 203520, Note_on_c, 9, 54, 34
1, 203520, Note_on_c, 9, 42, 86
1, 203520, Note_on_c, 9, 36, 104
1, 203759, Note_on_c, 9, 54, 0
1, 203759, Note_on_c, 9, 42, 0
1, 203760, Note_on_c, 9, 54, 36
1, 203760, Note_on_c, 9, 42, 68
1, 203999, Note_on_c, 9, 36, 0
1, 203999, Note_on_c, 9, 54, 0
1, 203999, Note_on_c, 9, 42, 0
1, 204000, Note_on_c, 9, 40, 115
1, 204000, Note_on_c, 9, 54, 86
1, 204000, Note_on_c, 9, 39, 79
1, 204000, Note_on_c, 9, 42, 79
1, 204239, Note_on_c, 9, 40, 0
1, 204239, Note_on_c, 9, 54, 0
1, 204239, Note_on_c, 9, 39, 0
1, 204239, Note_on_c, 9, 42, 0
1, 204240, Note_on_c, 9, 54, 44
1, 204240, Note_on_c, 9, 42, 59
1, 204240, Note_on_c, 9, 36, 104
1, 204359, Note_on_c, 9, 54, 0
1, 204359, Note_on_c, 9, 42, 0
1, 204360, Note_on_c, 9, 54, 51
1, 204479, Note_on_c, 9, 36, 0
1, 204479, Note_on_c, 9, 54, 0
1, 204480, Note_on_c, 9, 54, 34
1, 204480, Note_on_c, 9, 42, 73
1, 204480, Note_on_c, 9, 36, 115
1, 204719, Note_on_c, 9, 54, 0
1, 204719, Note_on_c, 9, 42, 0
1, 204720, Note_on_c, 9, 54, 32
1, 204720, Note_on_c, 9, 42, 63
1, 204959, Note_on_c, 9, 36, 0
1, 204959, Note_on_c, 9, 54, 0
1, 204959, Note_on_c, 9, 42, 0
1, 204960, Note_on_c, 9, 40, 104
1, 204960, Note_on_c, 9, 54, 86
1, 204960, Note_on_c, 9, 39, 94
1, 204960, Note_on_c, 9, 42, 79
1, 205199, Note_on_c, 9, 40, 0
1, 205199, Note_on_c, 9, 54, 0
1, 205199, Note_on_c, 9, 39, 0
1, 205199, Note_on_c, 9, 42, 0
1, 205200, Note_on_c, 9, 54, 28
1, 205200, Note_on_c, 9, 42, 63
1, 205200, Note_on_c, 9, 36, 115
1, 205439, Note_on_c, 9, 54, 0
1, 205439, Note_on_c, 9, 42, 0
1, 205439, Note_on_c, 9, 36, 0
1, 205440, Note_on_c, 9, 54, 23
1, 205440, Note_on_c, 9, 42, 79
1, 205679, Note_on_c, 9, 54, 0
1, 205679, Note_on_c, 9, 42, 0
1, 205680, Note_on_c, 9, 54, 27
1, 205680, Note_on_c, 9, 42, 63
1, 205680, Note_on_c, 9, 36, 104
1, 205919, Note_on_c, 9, 54, 0
1, 205919, Note_on_c, 9, 42, 0
1, 205919, Note_on_c, 9, 36, 0
1, 205920, Note_on_c, 9, 40, 104
1, 205920, Note_on_c, 9, 54, 79
1, 205920, Note_on_c, 9, 39, 86
1, 205920, Note_on_c, 9, 42, 79
1, 206040, Note_on_c, 9, 36, 104
1, 206159, Note_on_c, 9, 40, 0
1, 206159, Note_on_c, 9, 54, 0
1, 206159, Note_on_c, 9, 39, 0
1, 206159, Note_on_c, 9, 42, 0
1, 206160, Note_on_c, 9, 54, 38
1, 206160, Note_on_c, 9, 42, 32
1, 206279, Note_on_c, 9, 54, 0
1, 206279, Note_on_c, 9, 42, 0
1, 206280, Note_on_c, 9, 54, 13
1, 206399, Note_on_c, 9, 36, 0
1, 206399, Note_on_c, 9, 54, 0
1, 206400, Note_on_c, 9, 54, 38
1, 206400, Note_on_c, 9, 42, 86
1, 206400, Note_on_c, 9, 36, 115
1, 206639, Note_on_c, 9, 54, 0
1, 206639, Note_on_c, 9, 42, 0
1, 206640, Note_on_c, 9, 54, 33
1, 206640, Note_on_c, 9, 42, 47
1, 206879, Note_on_c, 9, 36, 0
1, 206879, Note_on_c, 9, 54, 0
1, 206879, Note_on_c, 9, 42, 0
1, 206880, Note_on_c, 9, 40, 115
1, 206880, Note_on_c, 9, 54, 79
1, 206880, Note_on_c, 9, 39, 79
1, 206880, Note_on_c, 9, 42, 79
1, 207119, Note_on_c, 9, 40, 0
1, 207119, Note_on_c, 9, 54, 0
1, 207119, Note_on_c, 9, 39, 0
1, 207119, Note_on_c, 9, 42, 0
1, 207120, Note_on_c, 9, 54, 26
1, 207120, Note_on_c, 9, 42, 34
1, 207120, Note_on_c, 9, 36, 86
1, 207359, Note_on_c, 9, 54, 0
1, 207359, Note_on_c, 9, 42, 0
1, 207359, Note_on_c, 9, 36, 0
1, 207360, Note_on_c, 9, 54, 25
1, 207360, Note_on_c, 9, 42, 79
1, 207360, Note_on_c, 9, 36, 104
1, 207599, Note_on_c, 9, 54, 0
1, 207599, Note_on_c, 9, 42, 0
1, 207600, Note_on_c, 9, 54, 22
1, 207600, Note_on_c, 9, 42, 51
1, 207839, Note_on_c, 9, 36, 0
1, 207839, Note_on_c, 9, 54, 0
1, 207839, Note_on_c, 9, 42, 0
1, 207840, Note_on_c, 9, 40, 104
1, 207840, Note_on_c, 9, 54, 86
1, 207840, Note_on_c, 9, 39, 86
1, 207840, Note_on_c, 9, 42, 86
1, 208079, Note_on_c, 9, 40, 0
1, 208079, Note_on_c, 9, 54, 0
1, 208079, Note_on_c, 9, 39, 0
1, 208079, Note_on_c, 9, 42, 0
1, 208080, Note_on_c, 9, 54, 33
1, 208080, Note_on_c, 9, 42, 33
1, 208080, Note_on_c, 9, 36, 94
1, 208199, Note_on_c, 9, 54, 0
1, 208199, Note_on_c, 9, 42, 0
1, 208200, Note_on_c, 9, 54, 29
1, 208319, Note_on_c, 9, 36, 0
1, 208319, Note_on_c, 9, 54, 0
1, 208320, Note_on_c, 9, 54, 33
1, 208320, Note_on_c, 9, 42, 68
1, 208320, Note_on_c, 9, 36, 104
1, 208559, Note_on_c, 9, 54, 0
1, 208559, Note_on_c, 9, 42, 0
1, 208560, Note_on_c, 9, 54, 23
1, 208560, Note_on_c, 9, 42, 31
1, 208799, Note_on_c, 9, 36, 0
1, 208799, Note_on_c, 9, 54, 0
1, 208799, Note_on_c, 9, 42, 0
1, 208800, Note_on_c, 9, 40, 104
1, 208800, Note_on_c, 9, 54, 86
1, 208800, Note_on_c, 9, 39, 86
1, 208800, Note_on_c, 9, 42, 79
1, 209039, Note_on_c, 9, 40, 0
1, 209039, Note_on_c, 9, 54, 0
1, 209039, Note_on_c, 9, 39, 0
1, 209039, Note_on_c, 9, 42, 0
1, 209040, Note_on_c, 9, 54, 25
1, 209040, Note_on_c, 9, 42, 47
1, 209040, Note_on_c, 9, 36, 104
1, 209279, Note_on_c, 9, 54, 0
1, 209279, Note_on_c, 9, 42, 0
1, 209279, Note_on_c, 9, 36, 0
1, 209280, Note_on_c, 9, 54, 27
1, 209280, Note_on_c, 9, 42, 79
1, 209519, Note_on_c, 9, 54, 0
1, 209519, Note_on_c, 9, 42, 0
1, 209520, Note_on_c, 9, 54, 24
1, 209520, Note_on_c, 9, 42, 68
1, 209520, Note_on_c, 9, 36, 104
1, 209759, Note_on_c, 9, 54, 0
1, 209759, Note_on_c, 9, 42, 0
1, 209759, Note_on_c, 9, 36, 0
1, 209760, Note_on_c, 9, 40, 115
1, 209760, Note_on_c, 9, 54, 86
1, 209760, Note_on_c, 9, 39, 86
1, 209760, Note_on_c, 9, 42, 68
1, 209880, Note_on_c, 9, 36, 104
1, 209999, Note_on_c, 9, 40, 0
1, 209999, Note_on_c, 9, 54, 0
1, 209999, Note_on_c, 9, 39, 0
1, 209999, Note_on_c, 9, 42, 0
1, 210000, Note_on_c, 9, 54, 30
1, 210000, Note_on_c, 9, 42, 36
1, 210119, Note_on_c, 9, 54, 0
1, 210119, Note_on_c, 9, 42, 0
1, 210120, Note_on_c, 9, 54, 29
1, 210239, Note_on_c, 9, 36, 0
1, 210239, Note_on_c, 9, 54, 0
1, 210240, Note_on_c, 9, 54, 30
1, 210240, Note_on_c, 9, 42, 73
1, 210240, Note_on_c, 9, 36, 104
1, 210479, Note_on_c, 9, 54, 0
1, 210479, Note_on_c, 9, 42, 0
1, 210480, Note_on_c, 9, 54, 26
1, 210480, Note_on_c, 9, 42, 55
1, 210719, Note_on_c, 9, 36, 0
1, 210719, Note_on_c, 9, 54, 0
1, 210719, Note_on_c, 9, 42, 0
1, 210720, Note_on_c, 9, 40, 104
1, 210720, Note_on_c, 9, 54, 86
1, 210720, Note_on_c, 9, 39, 94
1, 210720, Note_on_c, 9, 42, 79
1, 210959, Note_on_c, 9, 40, 0
1, 210959, Note_on_c, 9, 54, 0
1, 210959, Note_on_c, 9, 39, 0
1, 210959, Note_on_c, 9, 42, 0
1, 210960, Note_on_c, 9, 54, 29
1, 210960, Note_on_c, 9, 46, 68
1, 210960, Note_on_c, 9, 36, 86
1, 211199, Note_on_c, 9, 54, 0
1, 211199, Note_on_c, 9, 46, 0
1, 211199, Note_on_c, 9, 36, 0
1, 211200, Note_on_c, 9, 54, 34
1, 211200, Note_on_c, 9, 42, 86
1, 211200, Note_on_c, 9, 36, 104
1, 211439, Note_on_c, 9, 54, 0
1, 211439, Note_on_c, 9, 42, 0
1, 211440, Note_on_c, 9, 54, 36
1, 211440, Note_on_c, 9, 42, 68
1, 211679, Note_on_c, 9, 36, 0
1, 211679, Note_on_c, 9, 54, 0
1, 211679, Note_on_c, 9, 42, 0
1, 211680, Note_on_c, 9, 40, 115
1, 211680, Note_on_c, 9, 54, 86
1, 211680, Note_on_c, 9, 39, 79
1, 211680, Note_on_c, 9, 42, 79
1, 211919, Note_on_c, 9, 40, 0
1, 211919, Note_on_c, 9, 54, 0
1, 211919, Note_on_c, 9, 39, 0
1, 211919, Note_on_c, 9, 42, 0
1, 211920, Note_on_c, 9, 54, 44
1, 211920, Note_on_c, 9, 42, 59
1, 211920, Note_on_c, 9, 36, 104
1, 212039, Note_on_c, 9, 54, 0
1, 212039, Note_on_c, 9, 42, 0
1, 212040, Note_on_c, 9, 54, 51
1, 212159, Note_on_c, 9, 36, 0
1, 212159, Note_on_c, 9, 54, 0
1, 212160, Note_on_c, 9, 54, 34
1, 212160, Note_on_c, 9, 42, 73
1, 212160, Note_on_c, 9, 36, 115
1, 212399, Note_on_c, 9, 54, 0
1, 212399, Note_on_c, 9, 42, 0
1, 212400, Note_on_c, 9, 54, 32
1, 212400, Note_on_c, 9, 42, 63
1, 212639, Note_on_c, 9, 36, 0
1, 212639, Note_on_c, 9, 54, 0
1, 212639, Note_on_c, 9, 42, 0
1, 212640, Note_on_c, 9, 40, 104
1, 212640, Note_on_c, 9, 54, 86
1, 212640, Note_on_c, 9, 39, 94
1, 212640, Note_on_c, 9, 42, 79
1, 212879, Note_on_c, 9, 40, 0
1, 212879, Note_on_c, 9, 54, 0
1, 212879, Note_on_c, 9, 39, 0
1, 212879, Note_on_c, 9, 42, 0
1, 212880, Note_on_c, 9, 54, 28
1, 212880, Note_on_c, 9, 42, 63
1, 212880, Note_on_c, 9, 36, 115
1, 213119, Note_on_c, 9, 54, 0
1, 213119, Note_on_c, 9, 42, 0
1, 213119, Note_on_c, 9, 36, 0
1, 213120, Note_on_c, 9, 54, 23
1, 213120, Note_on_c, 9, 42, 79
1, 213359, Note_on_c, 9, 54, 0
1, 213359, Note_on_c, 9, 42, 0
1, 213360, Note_on_c, 9, 54, 27
1, 213360, Note_on_c, 9, 42, 63
1, 213360, Note_on_c, 9, 36, 104
1, 213599, Note_on_c, 9, 54, 0
1, 213599, Note_on_c, 9, 42, 0
1, 213599, Note_on_c, 9, 36, 0
1, 213600, Note_on_c, 9, 40, 104
1, 213600, Note_on_c, 9, 54, 79
1, 213600, Note_on_c, 9, 39, 86
1, 213600, Note_on_c, 9, 42, 79
1, 213720, Note_on_c, 9, 36, 104
1, 213839, Note_on_c, 9, 40, 0
1, 213839, Note_on_c, 9, 54, 0
1, 213839, Note_on_c, 9, 39, 0
1, 213839, Note_on_c, 9, 42, 0
1, 213840, Note_on_c, 9, 54, 38
1, 213840, Note_on_c, 9, 42, 32
1, 213959, Note_on_c, 9, 54, 0
1, 213959, Note_on_c, 9, 42, 0
1, 213960, Note_on_c, 9, 54, 13
1, 214079, Note_on_c, 9, 36, 0
1, 214079, Note_on_c, 9, 54, 0
1, 214080, Note_on_c, 9, 54, 38
1, 214080, Note_on_c, 9, 42, 86
1, 214080, Note_on_c, 9, 36, 115
1, 214319, Note_on_c, 9, 54, 0
1, 214319, Note_on_c, 9, 42, 0
1, 214320, Note_on_c, 9, 54, 33
1, 214320, Note_on_c, 9, 42, 47
1, 214559, Note_on_c, 9, 36, 0
1, 214559, Note_on_c, 9, 54, 0
1, 214559, Note_on_c, 9, 42, 0
1, 214560, Note_on_c, 9, 40, 115
1, 214560, Note_on_c, 9, 54, 79
1, 214560, Note_on_c, 9, 39, 79
1, 214560, Note_on_c, 9, 42, 79
1, 214799, Note_on_c, 9, 40, 0
1, 214799, Note_on_c, 9, 54, 0
1, 214799, Note_on_c, 9, 39, 0
1, 214799, Note_on_c, 9, 42, 0
1, 214800, Note_on_c, 9, 54, 26
1, 214800, Note_on_c, 9, 42, 34
1, 214800, Note_on_c, 9, 36, 86
1, 215039, Note_on_c, 9, 54, 0
1, 215039, Note_on_c, 9, 42, 0
1, 215039, Note_on_c, 9, 36, 0
1, 215040, Note_on_c, 9, 54, 25
1, 215040, Note_on_c, 9, 42, 79
1, 215040, Note_on_c, 9, 36, 104
1, 215279, Note_on_c, 9, 54, 0
1, 215279, Note_on_c, 9, 42, 0
1, 215280, Note_on_c, 9, 54, 22
1, 215280, Note_on_c, 9, 42, 51
1, 215519, Note_on_c, 9, 36, 0
1, 215519, Note_on_c, 9, 54, 0
1, 215519, Note_on_c, 9, 42, 0
1, 215520, Note_on_c, 9, 40, 104
1, 215520, Note_on_c, 9, 54, 86
1, 215520, Note_on_c, 9, 39, 86
1, 215520, Note_on_c, 9, 42, 86
1, 215759, Note_on_c, 9, 40, 0
1, 215759, Note_on_c, 9, 54, 0
1, 215759, Note_on_c, 9, 39, 0
1, 215759, Note_on_c, 9, 42, 0
1, 215760, Note_on_c, 9, 54, 33
1, 215760, Note_on_c, 9, 42, 33
1, 215760, Note_on_c, 9, 36, 94
1, 215879, Note_on_c, 9, 54, 0
1, 215879, Note_on_c, 9, 42, 0
1, 215880, Note_on_c, 9, 54, 29
1, 215999, Note_on_c, 9, 36, 0
1, 215999, Note_on_c, 9, 54, 0
1, 216000, Note_on_c, 9, 54, 33
1, 216000, Note_on_c, 9, 42, 68
1, 216000, Note_on_c, 9, 36, 104
1, 216239, Note_on_c, 9, 54, 0
1, 216239, Note_on_c, 9, 42, 0
1, 216240, Note_on_c, 9, 54, 23
1, 216240, Note_on_c, 9, 42, 31
1, 216479, Note_on_c, 9, 36, 0
1, 216479, Note_on_c, 9, 54, 0
1, 216479, Note_on_c, 9, 42, 0
1, 216480, Note_on_c, 9, 40, 104
1, 216480, Note_on_c, 9, 54, 86
1, 216480, Note_on_c, 9, 39, 86
1, 216480, Note_on_c, 9, 42, 79
1, 216719, Note_on_c, 9, 40, 0
1, 216719, Note_on_c, 9, 54, 0
1, 216719, Note_on_c, 9, 39, 0
1, 216719, Note_on_c, 9, 42, 0
1, 216720, Note_on_c, 9, 54, 25
1, 216720, Note_on_c, 9, 42, 47
1, 216720, Note_on_c, 9, 36, 104
1, 216959, Note_on_c, 9, 54, 0
1, 216959, Note_on_c, 9, 42, 0
1, 216959, Note_on_c, 9, 36, 0
1, 216960, Note_on_c, 9, 54, 27
1, 216960, Note_on_c, 9, 42, 79
1, 217199, Note_on_c, 9, 54, 0
1, 217199, Note_on_c, 9, 42, 0
1, 217200, Note_on_c, 9, 54, 24
1, 217200, Note_on_c, 9, 42, 68
1, 217200, Note_on_c, 9, 36, 104
1, 217439, Note_on_c, 9, 54, 0
1, 217439, Note_on_c, 9, 42, 0
1, 217439, Note_on_c, 9, 36, 0
1, 217440, Note_on_c, 9, 40, 115
1, 217440, Note_on_c, 9, 54, 86
1, 217440, Note_on_c, 9, 39, 86
1, 217440, Note_on_c, 9, 42, 68
1, 217560, Note_on_c, 9, 36, 104
1, 217679, Note_on_c, 9, 40, 0
1, 217679, Note_on_c, 9, 54, 0
1, 217679, Note_on_c, 9, 39, 0
1, 217679, Note_on_c, 9, 42, 0
1, 217680, Note_on_c, 9, 54, 30
1, 217680, Note_on_c, 9, 42, 36
1, 217799, Note_on_c, 9, 54, 0
1, 217799, Note_on_c, 9, 42, 0
1, 217800, Note_on_c, 9, 54, 29
1, 217919, Note_on_c, 9, 36, 0
1, 217919, Note_on_c, 9, 54, 0
1, 217920, Note_on_c, 9, 54, 30
1, 217920, Note_on_c, 9, 42, 73
1, 217920, Note_on_c, 9, 36, 104
1, 218159, Note_on_c, 9, 54, 0
1, 218159, Note_on_c, 9, 42, 0
1, 218160, Note_on_c, 9, 54, 26
1, 218160, Note_on_c, 9, 42, 55
1, 218399, Note_on_c, 9, 36, 0
1, 218399, Note_on_c, 9, 54, 0
1, 218399, Note_on_c, 9, 42, 0
1, 218400, Note_on_c, 9, 40, 104
1, 218400, Note_on_c, 9, 54, 86
1, 218400, Note_on_c, 9, 39, 94
1, 218400, Note_on_c, 9, 42, 79
1, 218639, Note_on_c, 9, 40, 0
1, 218639, Note_on_c, 9, 54, 0
1, 218639, Note_on_c, 9, 39, 0
1, 218639, Note_on_c, 9, 42, 0
1, 218640, Note_on_c, 9, 54, 29
1, 218640, Note_on_c, 9, 42, 68
1, 218640, Note_on_c, 9, 36, 86
1, 218879, Note_on_c, 9, 54, 0
1, 218879, Note_on_c, 9, 42, 0
1, 218879, Note_on_c, 9, 36, 0
1, 218880, Note_on_c, 9, 54, 34
1, 218880, Note_on_c, 9, 42, 86
1, 218880, Note_on_c, 9, 36, 104
1, 219119, Note_on_c, 9, 54, 0
1, 219119, Note_on_c, 9, 42, 0
1, 219120, Note_on_c, 9, 54, 36
1, 219120, Note_on_c, 9, 42, 68
1, 219359, Note_on_c, 9, 36, 0
1, 219359, Note_on_c, 9, 54, 0
1, 219359, Note_on_c, 9, 42, 0
1, 219360, Note_on_c, 9, 40, 115
1, 219360, Note_on_c, 9, 54, 86
1, 219360, Note_on_c, 9, 39, 79
1, 219360, Note_on_c, 9, 42, 79
1, 219599, Note_on_c, 9, 40, 0
1, 219599, Note_on_c, 9, 54, 0
1, 219599, Note_on_c, 9, 39, 0
1, 219599, Note_on_c, 9, 42, 0
1, 219600, Note_on_c, 9, 54, 44
1, 219600, Note_on_c, 9, 42, 59
1, 219600, Note_on_c, 9, 36, 104
1, 219719, Note_on_c, 9, 54, 0
1, 219719, Note_on_c, 9, 42, 0
1, 219720, Note_on_c, 9, 54, 51
1, 219839, Note_on_c, 9, 36, 0
1, 219839, Note_on_c, 9, 54, 0
1, 219840, Note_on_c, 9, 54, 34
1, 219840, Note_on_c, 9, 42, 73
1, 219840, Note_on_c, 9, 36, 115
1, 220079, Note_on_c, 9, 54, 0
1, 220079, Note_on_c, 9, 42, 0
1, 220080, Note_on_c, 9, 54, 32
1, 220080, Note_on_c, 9, 42, 63
1, 220319, Note_on_c, 9, 36, 0
1, 220319, Note_on_c, 9, 54, 0
1, 220319, Note_on_c, 9, 42, 0
1, 220320, Note_on_c, 9, 40, 104
1, 220320, Note_on_c, 9, 54, 86
1, 220320, Note_on_c, 9, 39, 94
1, 220320, Note_on_c, 9, 42, 79
1, 220559, Note_on_c, 9, 40, 0
1, 220559, Note_on_c, 9, 54, 0
1, 220559, Note_on_c, 9, 39, 0
1, 220559, Note_on_c, 9, 42, 0
1, 220560, Note_on_c, 9, 54, 28
1, 220560, Note_on_c, 9, 42, 63
1, 220560, Note_on_c, 9, 36, 115
1, 220799, Note_on_c, 9, 54, 0
1, 220799, Note_on_c, 9, 42, 0
1, 220799, Note_on_c, 9, 36, 0
1, 220800, Note_on_c, 9, 54, 23
1, 220800, Note_on_c, 9, 42, 79
1, 221039, Note_on_c, 9, 54, 0
1, 221039, Note_on_c, 9, 42, 0
1, 221040, Note_on_c, 9, 54, 27
1, 221040, Note_on_c, 9, 42, 63
1, 221040, Note_on_c, 9, 36, 104
1, 221279, Note_on_c, 9, 54, 0
1, 221279, Note_on_c, 9, 42, 0
1, 221279, Note_on_c, 9, 36, 0
1, 221280, Note_on_c, 9, 40, 104
1, 221280, Note_on_c, 9, 54, 79
1, 221280, Note_on_c, 9, 39, 86
1, 221280, Note_on_c, 9, 42, 79
1, 221400, Note_on_c, 9, 36, 104
1, 221519, Note_on_c, 9, 40, 0
1, 221519, Note_on_c, 9, 54, 0
1, 221519, Note_on_c, 9, 39, 0
1, 221519, Note_on_c, 9, 42, 0
1, 221520, Note_on_c, 9, 54, 38
1, 221520, Note_on_c, 9, 42, 32
1, 221639, Note_on_c, 9, 54, 0
1, 221639, Note_on_c, 9, 42, 0
1, 221640, Note_on_c, 9, 54, 13
1, 221759, Note_on_c, 9, 36, 0
1, 221759, Note_on_c, 9, 54, 0
1, 221760, Note_on_c, 9, 54, 38
1, 221760, Note_on_c, 9, 42, 86
1, 221760, Note_on_c, 9, 36, 115
1, 221999, Note_on_c, 9, 54, 0
1, 221999, Note_on_c, 9, 42, 0
1, 222000, Note_on_c, 9, 54, 33
1, 222000, Note_on_c, 9, 42, 47
1, 222239, Note_on_c, 9, 36, 0
1, 222239, Note_on_c, 9, 54, 0
1, 222239, Note_on_c, 9, 42, 0
1, 222240, Note_on_c, 9, 40, 115
1, 222240, Note_on_c, 9, 54, 79
1, 222240, Note_on_c, 9, 39, 79
1, 222240, Note_on_c, 9, 42, 79
1, 222479, Note_on_c, 9, 40, 0
1, 222479, Note_on_c, 9, 54, 0
1, 222479, Note_on_c, 9, 39, 0
1, 222479, Note_on_c, 9, 42, 0
1, 222480, Note_on_c, 9, 54, 26
1, 222480, Note_on_c, 9, 42, 34
1, 222480, Note_on_c, 9, 36, 86
1, 222719, Note_on_c, 9, 54, 0
1, 222719, Note_on_c, 9, 42, 0
1, 222719, Note_on_c, 9, 36, 0
1, 222720, Note_on_c, 9, 54, 25
1, 222720, Note_on_c, 9, 42, 79
1, 222720, Note_on_c, 9, 36, 104
1, 222959, Note_on_c, 9, 54, 0
1, 222959, Note_on_c, 9, 42, 0
1, 222960, Note_on_c, 9, 54, 22
1, 222960, Note_on_c, 9, 42, 51
1, 223199, Note_on_c, 9, 36, 0
1, 223199, Note_on_c, 9, 54, 0
1, 223199, Note_on_c, 9, 42, 0
1, 223200, Note_on_c, 9, 40, 104
1, 223200, Note_on_c, 9, 54, 86
1, 223200, Note_on_c, 9, 39, 86
1, 223200, Note_on_c, 9, 42, 86
1, 223439, Note_on_c, 9, 40, 0
1, 223439, Note_on_c, 9, 54, 0
1, 223439, Note_on_c, 9, 39, 0
1, 223439, Note_on_c, 9, 42, 0
1, 223440, Note_on_c, 9, 54, 33
1, 223440, Note_on_c, 9, 42, 33
1, 223440, Note_on_c, 9, 36, 94
1, 223559, Note_on_c, 9, 54, 0
1, 223559, Note_on_c, 9, 42, 0
1, 223560, Note_on_c, 9, 54, 29
1, 223679, Note_on_c, 9, 36, 0
1, 223679, Note_on_c, 9, 54, 0
1, 223680, Note_on_c, 9, 54, 33
1, 223680, Note_on_c, 9, 42, 68
1, 223680, Note_on_c, 9, 36, 104
1, 223919, Note_on_c, 9, 54, 0
1, 223919, Note_on_c, 9, 42, 0
1, 223920, Note_on_c, 9, 54, 23
1, 223920, Note_on_c, 9, 42, 31
1, 224159, Note_on_c, 9, 36, 0
1, 224159, Note_on_c, 9, 54, 0
1, 224159, Note_on_c, 9, 42, 0
1, 224160, Note_on_c, 9, 40, 104
1, 224160, Note_on_c, 9, 54, 86
1, 224160, Note_on_c, 9, 39, 86
1, 224160, Note_on_c, 9, 42, 79
1, 224399, Note_on_c, 9, 40, 0
1, 224399, Note_on_c, 9, 54, 0
1, 224399, Note_on_c, 9, 39, 0
1, 224399, Note_on_c, 9, 42, 0
1, 224400, Note_on_c, 9, 54, 25
1, 224400, Note_on_c, 9, 42, 47
1, 224400, Note_on_c, 9, 36, 104
1, 224639, Note_on_c, 9, 54, 0
1, 224639, Note_on_c, 9, 42, 0
1, 224639, Note_on_c, 9, 36, 0
1, 224640, Note_on_c, 9, 54, 27
1, 224640, Note_on_c, 9, 42, 79
1, 224879, Note_on_c, 9, 54, 0
1, 224879, Note_on_c, 9, 42, 0
1, 224880, Note_on_c, 9, 54, 24
1, 224880, Note_on_c, 9, 42, 68
1, 224880, Note_on_c, 9, 36, 104
1, 225119, Note_on_c, 9, 54, 0
1, 225119, Note_on_c, 9, 42, 0
1, 225119, Note_on_c, 9, 36, 0
1, 225120, Note_on_c, 9, 40, 115
1, 225120, Note_on_c, 9, 54, 86
1, 225120, Note_on_c, 9, 39, 86
1, 225120, Note_on_c, 9, 42, 68
1, 225240, Note_on_c, 9, 36, 104
1, 225359, Note_on_c, 9, 40, 0
1, 225359, Note_on_c, 9, 54, 0
1, 225359, Note_on_c, 9, 39, 0
1, 225359, Note_on_c, 9, 42, 0
1, 225360, Note_on_c, 9, 54, 30
1, 225360, Note_on_c, 9, 42, 36
1, 225479, Note_on_c, 9, 54, 0
1, 225479, Note_on_c, 9, 42, 0
1, 225480, Note_on_c, 9, 54, 29
1, 225599, Note_on_c, 9, 36, 0
1, 225599, Note_on_c, 9, 54, 0
1, 225600, Note_on_c, 9, 54, 30
1, 225600, Note_on_c, 9, 42, 73
1, 225600, Note_on_c, 9, 36, 104
1, 225839, Note_on_c, 9, 54, 0
1, 225839, Note_on_c, 9, 42, 0
1, 225840, Note_on_c, 9, 54, 26
1, 225840, Note_on_c, 9, 42, 55
1, 226079, Note_on_c, 9, 36, 0
1, 226079, Note_on_c, 9, 54, 0
1, 226079, Note_on_c, 9, 42, 0
1, 226080, Note_on_c, 9, 40, 104
1, 226080, Note_on_c, 9, 54, 86
1, 226080, Note_on_c, 9, 39, 94
1, 226080, Note_on_c, 9, 42, 79
1, 226319, Note_on_c, 9, 40, 0
1, 226319, Note_on_c, 9, 54, 0
1, 226319, Note_on_c, 9, 39, 0
1, 226319, Note_on_c, 9, 42, 0
1, 226320, Note_on_c, 9, 54, 29
1, 226320, Note_on_c, 9, 46, 68
1, 226320, Note_on_c, 9, 36, 86
1, 226559, Note_on_c, 9, 54, 0
1, 226559, Note_on_c, 9, 46, 0
1, 226559, Note_on_c, 9, 36, 0
1, 226560, Note_on_c, 9, 54, 34
1, 226560, Note_on_c, 9, 42, 86
1, 226560, Note_on_c, 9, 36, 104
1, 226799, Note_on_c, 9, 54, 0
1, 226799, Note_on_c, 9, 42, 0
1, 226800, Note_on_c, 9, 54, 36
1, 226800, Note_on_c, 9, 42, 68
1, 227039, Note_on_c, 9, 36, 0
1, 227039, Note_on_c, 9, 54, 0
1, 227039, Note_on_c, 9, 42, 0
1, 227040, Note_on_c, 9, 40, 115
1, 227040, Note_on_c, 9, 54, 86
1, 227040, Note_on_c, 9, 39, 79
1, 227040, Note_on_c, 9, 42, 79
1, 227279, Note_on_c, 9, 40, 0
1, 227279, Note_on_c, 9, 54, 0
1, 227279, Note_on_c, 9, 39, 0
1, 227279, Note_on_c, 9, 42, 0
1, 227280, Note_on_c, 9, 54, 44
1, 227280, Note_on_c, 9, 42, 59
1, 227280, Note_on_c, 9, 36, 104
1, 227399, Note_on_c, 9, 54, 0
1, 227399, Note_on_c, 9, 42, 0
1, 227400, Note_on_c, 9, 54, 51
1, 227519, Note_on_c, 9, 36, 0
1, 227519, Note_on_c, 9, 54, 0
1, 227520, Note_on_c, 9, 54, 34
1, 227520, Note_on_c, 9, 42, 73
1, 227520, Note_on_c, 9, 36, 115
1, 227759, Note_on_c, 9, 54, 0
1, 227759, Note_on_c, 9, 42, 0
1, 227760, Note_on_c, 9, 54, 32
1, 227760, Note_on_c, 9, 42, 63
1, 227999, Note_on_c, 9, 36, 0
1, 227999, Note_on_c, 9, 54, 0
1, 227999, Note_on_c, 9, 42, 0
1, 228000, Note_on_c, 9, 40, 104
1, 228000, Note_on_c, 9, 54, 86
1, 228000, Note_on_c, 9, 39, 94
1, 228000, Note_on_c, 9, 42, 79
1, 228239, Note_on_c, 9, 40, 0
1, 228239, Note_on_c, 9, 54, 0
1, 228239, Note_on_c, 9, 39, 0
1, 228239, Note_on_c, 9, 42, 0
1, 228240, Note_on_c, 9, 54, 28
1, 228240, Note_on_c, 9, 42, 63
1, 228240, Note_on_c, 9, 36, 115
1, 228479, Note_on_c, 9, 54, 0
1, 228479, Note_on_c, 9, 42, 0
1, 228479, Note_on_c, 9, 36, 0
1, 228480, Note_on_c, 9, 54, 23
1, 228480, Note_on_c, 9, 42, 79
1, 228719, Note_on_c, 9, 54, 0
1, 228719, Note_on_c, 9, 42, 0
1, 228720, Note_on_c, 9, 54, 27
1, 228720, Note_on_c, 9, 42, 63
1, 228720, Note_on_c, 9, 36, 104
1, 228959, Note_on_c, 9, 54, 0
1, 228959, Note_on_c, 9, 42, 0
1, 228959, Note_on_c, 9, 36, 0
1, 228960, Note_on_c, 9, 40, 104
1, 228960, Note_on_c, 9, 54, 79
1, 228960, Note_on_c, 9, 39, 86
1, 228960, Note_on_c, 9, 42, 79
1, 229080, Note_on_c, 9, 36, 104
1, 229199, Note_on_c, 9, 40, 0
1, 229199, Note_on_c, 9, 54, 0
1, 229199, Note_on_c, 9, 39, 0
1, 229199, Note_on_c, 9, 42, 0
1, 229200, Note_on_c, 9, 54, 38
1, 229200, Note_on_c, 9, 42, 32
1, 229319, Note_on_c, 9, 54, 0
1, 229319, Note_on_c, 9, 42, 0
1, 229320, Note_on_c, 9, 54, 13
1, 229439, Note_on_c, 9, 36, 0
1, 229439, Note_on_c, 9, 54, 0
1, 229440, Note_on_c, 9, 54, 38
1, 229440, Note_on_c, 9, 42, 86
1, 229440, Note_on_c, 9, 36, 115
1, 229679, Note_on_c, 9, 54, 0
1, 229679, Note_on_c, 9, 42, 0
1, 229680, Note_on_c, 9, 54, 33
1, 229680, Note_on_c, 9, 42, 47
1, 229919, Note_on_c, 9, 36, 0
1, 229919, Note_on_c, 9, 54, 0
1, 229919, Note_on_c, 9, 42, 0
1, 229920, Note_on_c, 9, 40, 115
1, 229920, Note_on_c, 9, 54, 79
1, 229920, Note_on_c, 9, 39, 79
1, 229920, Note_on_c, 9, 42, 79
1, 230159, Note_on_c, 9, 40, 0
1, 230159, Note_on_c, 9, 54, 0
1, 230159, Note_on_c, 9, 39, 0
1, 230159, Note_on_c, 9, 42, 0
1, 230160, Note_on_c, 9, 54, 26
1, 230160, Note_on_c, 9, 42, 34
1, 230160, Note_on_c, 9, 36, 86
1, 230399, Note_on_c, 9, 54, 0
1, 230399, Note_on_c, 9, 42, 0
1, 230399, Note_on_c, 9, 36, 0
1, 230400, Note_on_c, 9, 54, 25
1, 230400, Note_on_c, 9, 42, 79
1, 230400, Note_on_c, 9, 36, 104
1, 230639, Note_on_c, 9, 54, 0
1, 230639, Note_on_c, 9, 42, 0
1, 230640, Note_on_c, 9, 54, 22
1, 230640, Note_on_c, 9, 42, 51
1, 230879, Note_on_c, 9, 36, 0
1, 230879, Note_on_c, 9, 54, 0
1, 230879, Note_on_c, 9, 42, 0
1, 230880, Note_on_c, 9, 40, 104
1, 230880, Note_on_c, 9, 54, 86
1, 230880, Note_on_c, 9, 39, 86
1, 230880, Note_on_c, 9, 42, 86
1, 231119, Note_on_c, 9, 40, 0
1, 231119, Note_on_c, 9, 54, 0
1, 231119, Note_on_c, 9, 39, 0
1, 231119, Note_on_c, 9, 42, 0
1, 231120, Note_on_c, 9, 54, 33
1, 231120, Note_on_c, 9, 42, 33
1, 231120, Note_on_c, 9, 36, 94
1, 231239, Note_on_c, 9, 54, 0
1, 231239, Note_on_c, 9, 42, 0
1, 231240, Note_on_c, 9, 54, 29
1, 231359, Note_on_c, 9, 36, 0
1, 231359, Note_on_c, 9, 54, 0
1, 231360, Note_on_c, 9, 54, 33
1, 231360, Note_on_c, 9, 42, 68
1, 231360, Note_on_c, 9, 36, 104
1, 231599, Note_on_c, 9, 54, 0
1, 231599, Note_on_c, 9, 42, 0
1, 231600, Note_on_c, 9, 54, 23
1, 231600, Note_on_c, 9, 42, 31
1, 231839, Note_on_c, 9, 36, 0
1, 231839, Note_on_c, 9, 54, 0
1, 231839, Note_on_c, 9, 42, 0
1, 231840, Note_on_c, 9, 40, 104
1, 231840, Note_on_c, 9, 54, 86
1, 231840, Note_on_c, 9, 39, 86
1, 231840, Note_on_c, 9, 42, 79
1, 232079, Note_on_c, 9, 40, 0
1, 232079, Note_on_c, 9, 54, 0
1, 232079, Note_on_c, 9, 39, 0
1, 232079, Note_on_c, 9, 42, 0
1, 232080, Note_on_c, 9, 54, 25
1, 232080, Note_on_c, 9, 42, 47
1, 232080, Note_on_c, 9, 36, 104
1, 232319, Note_on_c, 9, 54, 0
1, 232319, Note_on_c, 9, 42, 0
1, 232319, Note_on_c, 9, 36, 0
1, 232320, Note_on_c, 9, 54, 27
1, 232320, Note_on_c, 9, 42, 79
1, 232559, Note_on_c, 9, 54, 0
1, 232559, Note_on_c, 9, 42, 0
1, 232560, Note_on_c, 9, 54, 24
1, 232560, Note_on_c, 9, 42, 68
1, 232560, Note_on_c, 9, 36, 104
1, 232799, Note_on_c, 9, 54, 0
1, 232799, Note_on_c, 9, 42, 0
1, 232799, Note_on_c, 9, 36, 0
1, 232800, Note_on_c, 9, 40, 115
1, 232800, Note_on_c, 9, 54, 86
1, 232800, Note_on_c, 9, 39, 86
1, 232800, Note_on_c, 9, 42, 68
1, 232920, Note_on_c, 9, 36, 104
1, 233039, Note_on_c, 9, 40, 0
1, 233039, Note_on_c, 9, 54, 0
1, 233039, Note_on_c, 9, 39, 0
1, 233039, Note_on_c, 9, 42, 0
1, 233040, Note_on_c, 9, 54, 30
1, 233040, Note_on_c, 9, 42, 36
1, 233159, Note_on_c, 9, 54, 0
1, 233159, Note_on_c, 9, 42, 0
1, 233160, Note_on_c, 9, 54, 29
1, 233279, Note_on_c, 9, 36, 0
1, 233279, Note_on_c, 9, 54, 0
1, 233280, Note_on_c, 9, 54, 30
1, 233280, Note_on_c, 9, 42, 73
1, 233280, Note_on_c, 9, 36, 104
1, 233519, Note_on_c, 9, 54, 0
1, 233519, Note_on_c, 9, 42, 0
1, 233520, Note_on_c, 9, 54, 26
1, 233520, Note_on_c, 9, 42, 55
1, 233759, Note_on_c, 9, 36, 0
1, 233759, Note_on_c, 9, 54, 0
1, 233759, Note_on_c, 9, 42, 0
1, 233760, Note_on_c, 9, 40, 104
1, 233760, Note_on_c, 9, 54, 86
1, 233760, Note_on_c, 9, 39, 94
1, 233760, Note_on_c, 9, 42, 79
1, 233999, Note_on_c, 9, 40, 0
1, 233999, Note_on_c, 9, 54, 0
1, 233999, Note_on_c, 9, 39, 0
1, 233999, Note_on_c, 9, 42, 0
1, 234000, Note_on_c, 9, 54, 29
1, 234000, Note_on_c, 9, 42, 68
1, 234000, Note_on_c, 9, 36, 86
1, 234239, Note_on_c, 9, 54, 0
1, 234239, Note_on_c, 9, 42, 0
1, 234239, Note_on_c, 9, 36, 0
1, 234240, Note_on_c, 9, 54, 34
1, 234240, Note_on_c, 9, 42, 86
1, 234240, Note_on_c, 9, 36, 104
1, 234479, Note_on_c, 9, 54, 0
1, 234479, Note_on_c, 9, 42, 0
1, 234480, Note_on_c, 9, 54, 36
1, 234480, Note_on_c, 9, 42, 68
1, 234719, Note_on_c, 9, 36, 0
1, 234719, Note_on_c, 9, 54, 0
1, 234719, Note_on_c, 9, 42, 0
1, 234720, Note_on_c, 9, 40, 115
1, 234720, Note_on_c, 9, 54, 86
1, 234720, Note_on_c, 9, 39, 79
1, 234720, Note_on_c, 9, 42, 79
1, 234959, Note_on_c, 9, 40, 0
1, 234959, Note_on_c, 9, 54, 0
1, 234959, Note_on_c, 9, 39, 0
1, 234959, Note_on_c, 9, 42, 0
1, 234960, Note_on_c, 9, 54, 44
1, 234960, Note_on_c, 9, 42, 59
1, 234960, Note_on_c, 9, 36, 104
1, 235079, Note_on_c, 9, 54, 0
1, 235079, Note_on_c, 9, 42, 0
1, 235080, Note_on_c, 9, 54, 51
1, 235199, Note_on_c, 9, 36, 0
1, 235199, Note_on_c, 9, 54, 0
1, 235200, Note_on_c, 9, 54, 34
1, 235200, Note_on_c, 9, 42, 73
1, 235200, Note_on_c, 9, 36, 115
1, 235439, Note_on_c, 9, 54, 0
1, 235439, Note_on_c, 9, 42, 0
1, 235440, Note_on_c, 9, 54, 32
1, 235440, Note_on_c, 9, 42, 63
1, 235679, Note_on_c, 9, 36, 0
1, 235679, Note_on_c, 9, 54, 0
1, 235679, Note_on_c, 9, 42, 0
1, 235680, Note_on_c, 9, 40, 104
1, 235680, Note_on_c, 9, 54, 86
1, 235680, Note_on_c, 9, 39, 94
1, 235680, Note_on_c, 9, 42, 79
1, 235919, Note_on_c, 9, 40, 0
1, 235919, Note_on_c, 9, 54, 0
1, 235919, Note_on_c, 9, 39, 0
1, 235919, Note_on_c, 9, 42, 0
1, 235920, Note_on_c, 9, 54, 28
1, 235920, Note_on_c, 9, 42, 63
1, 235920, Note_on_c, 9, 36, 115
1, 236159, Note_on_c, 9, 54, 0
1, 236159, Note_on_c, 9, 42, 0
1, 236159, Note_on_c, 9, 36, 0
1, 236160, Note_on_c, 9, 54, 23
1, 236160, Note_on_c, 9, 42, 79
1, 236399, Note_on_c, 9, 54, 0
1, 236399, Note_on_c, 9, 42, 0
1, 236400, Note_on_c, 9, 54, 27
1, 236400, Note_on_c, 9, 42, 63
1, 236400, Note_on_c, 9, 36, 104
1, 236639, Note_on_c, 9, 54, 0
1, 236639, Note_on_c, 9, 42, 0
1, 236639, Note_on_c, 9, 36, 0
1, 236640, Note_on_c, 9, 40, 104
1, 236640, Note_on_c, 9, 54, 79
1, 236640, Note_on_c, 9, 39, 86
1, 236640, Note_on_c, 9, 42, 79
1, 236760, Note_on_c, 9, 36, 104
1, 236879, Note_on_c, 9, 40, 0
1, 236879, Note_on_c, 9, 54, 0
1, 236879, Note_on_c, 9, 39, 0
1, 236879, Note_on_c, 9, 42, 0
1, 236880, Note_on_c, 9, 54, 38
1, 236880, Note_on_c, 9, 42, 32
1, 236999, Note_on_c, 9, 54, 0
1, 236999, Note_on_c, 9, 42, 0
1, 237000, Note_on_c, 9, 54, 13
1, 237119, Note_on_c, 9, 36, 0
1, 237119, Note_on_c, 9, 54, 0
1, 237120, Note_on_c, 9, 54, 38
1, 237120, Note_on_c, 9, 42, 86
1, 237120, Note_on_c, 9, 36, 115
1, 237359, Note_on_c, 9, 54, 0
1, 237359, Note_on_c, 9, 42, 0
1, 237360, Note_on_c, 9, 54, 33
1, 237360, Note_on_c, 9, 42, 47
1, 237599, Note_on_c, 9, 36, 0
1, 237599, Note_on_c, 9, 54, 0
1, 237599, Note_on_c, 9, 42, 0
1, 237600, Note_on_c, 9, 40, 115
1, 237600, Note_on_c, 9, 54, 79
1, 237600, Note_on_c, 9, 39, 79
1, 237600, Note_on_c, 9, 42, 79
1, 237839, Note_on_c, 9, 40, 0
1, 237839, Note_on_c, 9, 54, 0
1, 237839, Note_on_c, 9, 39, 0
1, 237839, Note_on_c, 9, 42, 0
1, 237840, Note_on_c, 9, 54, 26
1, 237840, Note_on_c, 9, 42, 34
1, 237840, Note_on_c, 9, 36, 86
1, 238079, Note_on_c, 9, 54, 0
1, 238079, Note_on_c, 9, 42, 0
1, 238079, Note_on_c, 9, 36, 0
1, 238080, Note_on_c, 9, 54, 25
1, 238080, Note_on_c, 9, 42, 79
1, 238080, Note_on_c, 9, 36, 104
1, 238319, Note_on_c, 9, 54, 0
1, 238319, Note_on_c, 9, 42, 0
1, 238320, Note_on_c, 9, 54, 22
1, 238320, Note_on_c, 9, 42, 51
1, 238559, Note_on_c, 9, 36, 0
1, 238559, Note_on_c, 9, 54, 0
1, 238559, Note_on_c, 9, 42, 0
1, 238560, Note_on_c, 9, 40, 104
1, 238560, Note_on_c, 9, 54, 86
1, 238560, Note_on_c, 9, 39, 86
1, 238560, Note_on_c, 9, 42, 86
1, 238799, Note_on_c, 9, 40, 0
1, 238799, Note_on_c, 9, 54, 0
1, 238799, Note_on_c, 9, 39, 0
1, 238799, Note_on_c, 9, 42, 0
1, 238800, Note_on_c, 9, 54, 33
1, 238800, Note_on_c, 9, 42, 33
1, 238800, Note_on_c, 9, 36, 94
1, 238919, Note_on_c, 9, 54, 0
1, 238919, Note_on_c, 9, 42, 0
1, 238920, Note_on_c, 9, 54, 29
1, 239039, Note_on_c, 9, 36, 0
1, 239039, Note_on_c, 9, 54, 0
1, 239040, Note_on_c, 9, 54, 33
1, 239040, Note_on_c, 9, 42, 68
1, 239040, Note_on_c, 9, 36, 104
1, 239279, Note_on_c, 9, 54, 0
1, 239279, Note_on_c, 9, 42, 0
1, 239280, Note_on_c, 9, 54, 23
1, 239280, Note_on_c, 9, 42, 31
1, 239519, Note_on_c, 9, 36, 0
1, 239519, Note_on_c, 9, 54, 0
1, 239519, Note_on_c, 9, 42, 0
1, 239520, Note_on_c, 9, 40, 104
1, 239520, Note_on_c, 9, 54, 86
1, 239520, Note_on_c, 9, 39, 86
1, 239520, Note_on_c, 9, 42, 79
1, 239759, Note_on_c, 9, 40, 0
1, 239759, Note_on_c, 9, 54, 0
1, 239759, Note_on_c, 9, 39, 0
1, 239759, Note_on_c, 9, 42, 0
1, 239760, Note_on_c, 9, 54, 25
1, 239760, Note_on_c, 9, 42, 47
1, 239760, Note_on_c, 9, 36, 104
1, 239999, Note_on_c, 9, 54, 0
1, 239999, Note_on_c, 9, 42, 0
1, 239999, Note_on_c, 9, 36, 0
1, 240000, Note_on_c, 9, 54, 27
1, 240000, Note_on_c, 9, 42, 79
1, 240239, Note_on_c, 9, 54, 0
1, 240239, Note_on_c, 9, 42, 0
1, 240240, Note_on_c, 9, 54, 24
1, 240240, Note_on_c, 9, 42, 68
1, 240240, Note_on_c, 9, 36, 104
1, 240479, Note_on_c, 9, 54, 0
1, 240479, Note_on_c, 9, 42, 0
1, 240479, Note_on_c, 9, 36, 0
1, 240480, Note_on_c, 9, 40, 115
1, 240480, Note_on_c, 9, 54, 86
1, 240480, Note_on_c, 9, 39, 86
1, 240480, Note_on_c, 9, 42, 68
1, 240600, Note_on_c, 9, 36, 104
1, 240719, Note_on_c, 9, 40, 0
1, 240719, Note_on_c, 9, 54, 0
1, 240719, Note_on_c, 9, 39, 0
1, 240719, Note_on_c, 9, 42, 0
1, 240720, Note_on_c, 9, 54, 30
1, 240720, Note_on_c, 9, 42, 36
1, 240839, Note_on_c, 9, 54, 0
1, 240839, Note_on_c, 9, 42, 0
1, 240840, Note_on_c, 9, 54, 29
1, 240959, Note_on_c, 9, 36, 0
1, 240959, Note_on_c, 9, 54, 0
1, 240960, Note_on_c, 9, 54, 30
1, 240960, Note_on_c, 9, 42, 73
1, 240960, Note_on_c, 9, 36, 104
1, 241199, Note_on_c, 9, 54, 0
1, 241199, Note_on_c, 9, 42, 0
1, 241200, Note_on_c, 9, 54, 26
1, 241200, Note_on_c, 9, 42, 55
1, 241439, Note_on_c, 9, 36, 0
1, 241439, Note_on_c, 9, 54, 0
1, 241439, Note_on_c, 9, 42, 0
1, 241440, Note_on_c, 9, 40, 104
1, 241440, Note_on_c, 9, 54, 86
1, 241440, Note_on_c, 9, 39, 94
1, 241440, Note_on_c, 9, 42, 79
1, 241679, Note_on_c, 9, 40, 0
1, 241679, Note_on_c, 9, 54, 0
1, 241679, Note_on_c, 9, 39, 0
1, 241679, Note_on_c, 9, 42, 0
1, 241680, Note_on_c, 9, 54, 29
1, 241680, Note_on_c, 9, 46, 68
1, 241680, Note_on_c, 9, 36, 86
1, 241919, Note_on_c, 9, 54, 0
1, 241919, Note_on_c, 9, 46, 0
1, 241919, Note_on_c, 9, 36, 0
1, 241920, Note_on_c, 9, 54, 34
1, 241920, Note_on_c, 9, 42, 86
1, 241920, Note_on_c, 9, 36, 104
1, 242159, Note_on_c, 9, 54, 0
1, 242159, Note_on_c, 9, 42, 0
1, 242160, Note_on_c, 9, 54, 36
1, 242160, Note_on_c, 9, 42, 68
1, 242399, Note_on_c, 9, 36, 0
1, 242399, Note_on_c, 9, 54, 0
1, 242399, Note_on_c, 9, 42, 0
1, 242400, Note_on_c, 9, 40, 115
1, 242400, Note_on_c, 9, 54, 86
1, 242400, Note_on_c, 9, 39, 79
1, 242400, Note_on_c, 9, 42, 79
1, 242639, Note_on_c, 9, 40, 0
1, 242639, Note_on_c, 9, 54, 0
1, 242639, Note_on_c, 9, 39, 0
1, 242639, Note_on_c, 9, 42, 0
1, 242640, Note_on_c, 9, 54, 44
1, 242640, Note_on_c, 9, 42, 59
1, 242640, Note_on_c, 9, 36, 104
1, 242759, Note_on_c, 9, 54, 0
1, 242759, Note_on_c, 9, 42, 0
1, 242760, Note_on_c, 9, 54, 51
1, 242879, Note_on_c, 9, 36, 0
1, 242879, Note_on_c, 9, 54, 0
1, 242880, Note_on_c, 9, 54, 34
1, 242880, Note_on_c, 9, 42, 73
1, 242880, Note_on_c, 9, 36, 115
1, 243119, Note_on_c, 9, 54, 0
1, 243119, Note_on_c, 9, 42, 0
1, 243120, Note_on_c, 9, 54, 32
1, 243120, Note_on_c, 9, 42, 63
1, 243359, Note_on_c, 9, 36, 0
1, 243359, Note_on_c, 9, 54, 0
1, 243359, Note_on_c, 9, 42, 0
1, 243360, Note_on_c, 9, 40, 104
1, 243360, Note_on_c, 9, 54, 86
1, 243360, Note_on_c, 9, 39, 94
1, 243360, Note_on_c, 9, 42, 79
1, 243599, Note_on_c, 9, 40, 0
1, 243599, Note_on_c, 9, 54, 0
1, 243599, Note_on_c, 9, 39, 0
1, 243599, Note_on_c, 9, 42, 0
1, 243600, Note_on_c, 9, 54, 28
1, 243600, Note_on_c, 9, 42, 63
1, 243600, Note_on_c, 9, 36, 115
1, 243839, Note_on_c, 9, 54, 0
1, 243839, Note_on_c, 9, 42, 0
1, 243839, Note_on_c, 9, 36, 0
1, 243840, Note_on_c, 9, 54, 23
1, 243840, Note_on_c, 9, 42, 79
1, 244079, Note_on_c, 9, 54, 0
1, 244079, Note_on_c, 9, 42, 0
1, 244080, Note_on_c, 9, 54, 27
1, 244080, Note_on_c, 9, 42, 63
1, 244080, Note_on_c, 9, 36, 104
1, 244319, Note_on_c, 9, 54, 0
1, 244319, Note_on_c, 9, 42, 0
1, 244319, Note_on_c, 9, 36, 0
1, 244320, Note_on_c, 9, 40, 104
1, 244320, Note_on_c, 9, 54, 79
1, 244320, Note_on_c, 9, 39, 86
1, 244320, Note_on_c, 9, 42, 79
1, 244440, Note_on_c, 9, 36, 104
1, 244559, Note_on_c, 9, 40, 0
1, 244559, Note_on_c, 9, 54, 0
1, 244559, Note_on_c, 9, 39, 0
1, 244559, Note_on_c, 9, 42, 0
1, 244560, Note_on_c, 9, 54, 38
1, 244560, Note_on_c, 9, 42, 32
1, 244679, Note_on_c, 9, 54, 0
1, 244679, Note_on_c, 9, 42, 0
1, 244680, Note_on_c, 9, 54, 13
1, 244799, Note_on_c, 9, 36, 0
1, 244799, Note_on_c, 9, 54, 0
1, 244800, Note_on_c, 9, 54, 38
1, 244800, Note_on_c, 9, 42, 86
1, 244800, Note_on_c, 9, 36, 115
1, 245039, Note_on_c, 9, 54, 0
1, 245039, Note_on_c, 9, 42, 0
1, 245040, Note_on_c, 9, 54, 33
1, 245040, Note_on_c, 9, 42, 47
1, 245279, Note_on_c, 9, 36, 0
1, 245279, Note_on_c, 9, 54, 0
1, 245279, Note_on_c, 9, 42, 0
1, 245280, Note_on_c, 9, 40, 115
1, 245280, Note_on_c, 9, 54, 79
1, 245280, Note_on_c, 9, 39, 79
1, 245280, Note_on_c, 9, 42, 79
1, 245519, Note_on_c, 9, 40, 0
1, 245519, Note_on_c, 9, 54, 0
1, 245519, Note_on_c, 9, 39, 0
1, 245519, Note_on_c, 9, 42, 0
1, 245520, Note_on_c, 9, 54, 26
1, 245520, Note_on_c, 9, 42, 34
1, 245520, Note_on_c, 9, 36, 86
1, 245759, Note_on_c, 9, 54, 0
1, 245759, Note_on_c, 9, 42, 0
1, 245759, Note_on_c, 9, 36, 0
1, 245760, Note_on_c, 9, 54, 25
1, 245760, Note_on_c, 9, 42, 79
1, 245760, Note_on_c, 9, 36, 104
1, 245999, Note_on_c, 9, 54, 0
1, 245999, Note_on_c, 9, 42, 0
1, 246000, Note_on_c, 9, 54, 22
1, 246000, Note_on_c, 9, 42, 51
1, 246239, Note_on_c, 9, 36, 0
1, 246239, Note_on_c, 9, 54, 0
1, 246239, Note_on_c, 9, 42, 0
1, 246240, Note_on_c, 9, 40, 104
1, 246240, Note_on_c, 9, 54, 86
1, 246240, Note_on_c, 9, 39, 86
1, 246240, Note_on_c, 9, 42, 86
1, 246479, Note_on_c, 9, 40, 0
1, 246479, Note_on_c, 9, 54, 0
1, 246479, Note_on_c, 9, 39, 0
1, 246479, Note_on_c, 9, 42, 0
1, 246480, Note_on_c, 9, 54, 33
1, 246480, Note_on_c, 9, 42, 33
1, 246480, Note_on_c, 9, 36, 94
1, 246599, Note_on_c, 9, 54, 0
1, 246599, Note_on_c, 9, 42, 0
1, 246600, Note_on_c, 9, 54, 29
1, 246719, Note_on_c, 9, 36, 0
1, 246719, Note_on_c, 9, 54, 0
1, 246720, Note_on_c, 9, 54, 33
1, 246720, Note_on_c, 9, 42, 68
1, 246720, Note_on_c, 9, 36, 104
1, 246959, Note_on_c, 9, 54, 0
1, 246959, Note_on_c, 9, 42, 0
1, 246960, Note_on_c, 9, 54, 23
1, 246960, Note_on_c, 9, 42, 31
1, 247199, Note_on_c, 9, 36, 0
1, 247199, Note_on_c, 9, 54, 0
1, 247199, Note_on_c, 9, 42, 0
1, 247200, Note_on_c, 9, 40, 104
1, 247200, Note_on_c, 9, 54, 86
1, 247200, Note_on_c, 9, 39, 86
1, 247200, Note_on_c, 9, 42, 79
1, 247439, Note_on_c, 9, 40, 0
1, 247439, Note_on_c, 9, 54, 0
1, 247439, Note_on_c, 9, 39, 0
1, 247439, Note_on_c, 9, 42, 0
1, 247440, Note_on_c, 9, 54, 25
1, 247440, Note_on_c, 9, 42, 47
1, 247440, Note_on_c, 9, 36, 104
1, 247679, Note_on_c, 9, 54, 0
1, 247679, Note_on_c, 9, 42, 0
1, 247679, Note_on_c, 9, 36, 0
1, 247680, Note_on_c, 9, 54, 27
1, 247680, Note_on_c, 9, 42, 79
1, 247919, Note_on_c, 9, 54, 0
1, 247919, Note_on_c, 9, 42, 0
1, 247920, Note_on_c, 9, 54, 24
1, 247920, Note_on_c, 9, 42, 68
1, 247920, Note_on_c, 9, 36, 104
1, 248159, Note_on_c, 9, 54, 0
1, 248159, Note_on_c, 9, 42, 0
1, 248159, Note_on_c, 9, 36, 0
1, 248160, Note_on_c, 9, 40, 115
1, 248160, Note_on_c, 9, 54, 86
1, 248160, Note_on_c, 9, 39, 86
1, 248160, Note_on_c, 9, 42, 68
1, 248280, Note_on_c, 9, 36, 104
1, 248399, Note_on_c, 9, 40, 0
1, 248399, Note_on_c, 9, 54, 0
1, 248399, Note_on_c, 9, 39, 0
1, 248399, Note_on_c, 9, 42, 0
1, 248400, Note_on_c, 9, 54, 30
1, 248400, Note_on_c, 9, 42, 36
1, 248519, Note_on_c, 9, 54, 0
1, 248519, Note_on_c, 9, 42, 0
1, 248520, Note_on_c, 9, 54, 29
1, 248639, Note_on_c, 9, 36, 0
1, 248639, Note_on_c, 9, 54, 0
1, 248640, Note_on_c, 9, 54, 30
1, 248640, Note_on_c, 9, 42, 73
1, 248640, Note_on_c, 9, 36, 104
1, 248879, Note_on_c, 9, 54, 0
1, 248879, Note_on_c, 9, 42, 0
1, 248880, Note_on_c, 9, 54, 26
1, 248880, Note_on_c, 9, 42, 55
1, 249119, Note_on_c, 9, 36, 0
1, 249119, Note_on_c, 9, 54, 0
1, 249119, Note_on_c, 9, 42, 0
1, 249120, Note_on_c, 9, 40, 104
1, 249120, Note_on_c, 9, 54, 86
1, 249120, Note_on_c, 9, 39, 94
1, 249120, Note_on_c, 9, 42, 79
1, 249359, Note_on_c, 9, 40, 0
1, 249359, Note_on_c, 9, 54, 0
1, 249359, Note_on_c, 9, 39, 0
1, 249359, Note_on_c, 9, 42, 0
1, 249360, Note_on_c, 9, 54, 29
1, 249360, Note_on_c, 9, 42, 68
1, 249360, Note_on_c, 9, 36, 86
1, 249599, Note_on_c, 9, 54, 0
1, 249599, Note_on_c, 9, 42, 0
1, 249599, Note_on_c, 9, 36, 0
1, 249600, Note_on_c, 9, 54, 34
1, 249600, Note_on_c, 9, 42, 86
1, 249600, Note_on_c, 9, 36, 104
1, 249839, Note_on_c, 9, 54, 0
1, 249839, Note_on_c, 9, 42, 0
1, 249840, Note_on_c, 9, 54, 36
1, 249840, Note_on_c, 9, 42, 68
1, 250079, Note_on_c, 9, 36, 0
1, 250079, Note_on_c, 9, 54, 0
1, 250079, Note_on_c, 9, 42, 0
1, 250080, Note_on_c, 9, 40, 115
1, 250080, Note_on_c, 9, 54, 86
1, 250080, Note_on_c, 9, 39, 79
1, 250080, Note_on_c, 9, 42, 79
1, 250319, Note_on_c, 9, 40, 0
1, 250319, Note_on_c, 9, 54, 0
1, 250319, Note_on_c, 9, 39, 0
1, 250319, Note_on_c, 9, 42, 0
1, 250320, Note_on_c, 9, 54, 44
1, 250320, Note_on_c, 9, 42, 59
1, 250320, Note_on_c, 9, 36, 104
1, 250439, Note_on_c, 9, 54, 0
1, 250439, Note_on_c, 9, 42, 0
1, 250440, Note_on_c, 9, 54, 51
1, 250559, Note_on_c, 9, 36, 0
1, 250559, Note_on_c, 9, 54, 0
1, 250560, Note_on_c, 9, 54, 34
1, 250560, Note_on_c, 9, 42, 73
1, 250560, Note_on_c, 9, 36, 115
1, 250799, Note_on_c, 9, 54, 0
1, 250799, Note_on_c, 9, 42, 0
1, 250800, Note_on_c, 9, 54, 32
1, 250800, Note_on_c, 9, 42, 63
1, 251039, Note_on_c, 9, 36, 0
1, 251039, Note_on_c, 9, 54, 0
1, 251039, Note_on_c, 9, 42, 0
1, 251040, Note_on_c, 9, 40, 104
1, 251040, Note_on_c, 9, 54, 86
1, 251040, Note_on_c, 9, 39, 94
1, 251040, Note_on_c, 9, 42, 79
1, 251279, Note_on_c, 9, 40, 0
1, 251279, Note_on_c, 9, 54, 0
1, 251279, Note_on_c, 9, 39, 0
1, 251279, Note_on_c, 9, 42, 0
1, 251280, Note_on_c, 9, 54, 28
1, 251280, Note_on_c, 9, 42, 63
1, 251280, Note_on_c, 9, 36, 115
1, 251519, Note_on_c, 9, 54, 0
1, 251519, Note_on_c, 9, 42, 0
1, 251519, Note_on_c, 9, 36, 0
1, 251520, Note_on_c, 9, 54, 23
1, 251520, Note_on_c, 9, 42, 79
1, 251759, Note_on_c, 9, 54, 0
1, 251759, Note_on_c, 9, 42, 0
1, 251760, Note_on_c, 9, 54, 27
1, 251760, Note_on_c, 9, 42, 63
1, 251760, Note_on_c, 9, 36, 104
1, 251999, Note_on_c, 9, 54, 0
1, 251999, Note_on_c, 9, 42, 0
1, 251999, Note_on_c, 9, 36, 0
1, 252000, Note_on_c, 9, 40, 104
1, 252000, Note_on_c, 9, 54, 79
1, 252000, Note_on_c, 9, 39, 86
1, 252000, Note_on_c, 9, 42, 79
1, 252120, Note_on_c, 9, 36, 104
1, 252239, Note_on_c, 9, 40, 0
1, 252239, Note_on_c, 9, 54, 0
1, 252239, Note_on_c, 9, 39, 0
1, 252239, Note_on_c, 9, 42, 0
1, 252240, Note_on_c, 9, 54, 38
1, 252240, Note_on_c, 9, 42, 32
1, 252359, Note_on_c, 9, 54, 0
1, 252359, Note_on_c, 9, 42, 0
1, 252360, Note_on_c, 9, 54, 13
1, 252479, Note_on_c, 9, 36, 0
1, 252479, Note_on_c, 9, 54, 0
1, 252480, Note_on_c, 9, 54, 38
1, 252480, Note_on_c, 9, 42, 86
1, 252480, Note_on_c, 9, 36, 115
1, 252719, Note_on_c, 9, 54, 0
1, 252719, Note_on_c, 9, 42, 0
1, 252720, Note_on_c, 9, 54, 33
1, 252720, Note_on_c, 9, 42, 47
1, 252959, Note_on_c, 9, 36, 0
1, 252959, Note_on_c, 9, 54, 0
1, 252959, Note_on_c, 9, 42, 0
1, 252960, Note_on_c, 9, 40, 115
1, 252960, Note_on_c, 9, 54, 79
1, 252960, Note_on_c, 9, 39, 79
1, 252960, Note_on_c, 9, 42, 79
1, 253199, Note_on_c, 9, 40, 0
1, 253199, Note_on_c, 9, 54, 0
1, 253199, Note_on_c, 9, 39, 0
1, 253199, Note_on_c, 9, 42, 0
1, 253200, Note_on_c, 9, 54, 26
1, 253200, Note_on_c, 9, 42, 34
1, 253200, Note_on_c, 9, 36, 86
1, 253439, Note_on_c, 9, 54, 0
1, 253439, Note_on_c, 9, 42, 0
1, 253439, Note_on_c, 9, 36, 0
1, 253440, Note_on_c, 9, 54, 25
1, 253440, Note_on_c, 9, 42, 79
1, 253440, Note_on_c, 9, 36, 104
1, 253679, Note_on_c, 9, 54, 0
1, 253679, Note_on_c, 9, 42, 0
1, 253680, Note_on_c, 9, 54, 22
1, 253680, Note_on_c, 9, 42, 51
1, 253919, Note_on_c, 9, 36, 0
1, 253919, Note_on_c, 9, 54, 0
1, 253919, Note_on_c, 9, 42, 0
1, 253920, Note_on_c, 9, 40, 104
1, 253920, Note_on_c, 9, 54, 86
1, 253920, Note_on_c, 9, 39, 86
1, 253920, Note_on_c, 9, 42, 86
1, 254159, Note_on_c, 9, 40, 0
1, 254159, Note_on_c, 9, 54, 0
1, 254159, Note_on_c, 9, 39, 0
1, 254159, Note_on_c, 9, 42, 0
1, 254160, Note_on_c, 9, 54, 33
1, 254160, Note_on_c, 9, 42, 33
1, 254160, Note_on_c, 9, 36, 94
1, 254279, Note_on_c, 9, 54, 0
1, 254279, Note_on_c, 9, 42, 0
1, 254280, Note_on_c, 9, 54, 29
1, 254399, Note_on_c, 9, 36, 0
1, 254399, Note_on_c, 9, 54, 0
1, 254400, Note_on_c, 9, 54, 33
1, 254400, Note_on_c, 9, 42, 68
1, 254400, Note_on_c, 9, 36, 104
1, 254639, Note_on_c, 9, 54, 0
1, 254639, Note_on_c, 9, 42, 0
1, 254640, Note_on_c, 9, 54, 23
1, 254640, Note_on_c, 9, 42, 31
1, 254879, Note_on_c, 9, 36, 0
1, 254879, Note_on_c, 9, 54, 0
1, 254879, Note_on_c, 9, 42, 0
1, 254880, Note_on_c, 9, 40, 104
1, 254880, Note_on_c, 9, 54, 86
1, 254880, Note_on_c, 9, 39, 86
1, 254880, Note_on_c, 9, 42, 79
1, 255119, Note_on_c, 9, 40, 0
1, 255119, Note_on_c, 9, 54, 0
1, 255119, Note_on_c, 9, 39, 0
1, 255119, Note_on_c, 9, 42, 0
1, 255120, Note_on_c, 9, 54, 25
1, 255120, Note_on_c, 9, 42, 47
1, 255120, Note_on_c, 9, 36, 104
1, 255359, Note_on_c, 9, 54, 0
1, 255359, Note_on_c, 9, 42, 0
1, 255359, Note_on_c, 9, 36, 0
1, 255360, Note_on_c, 9, 54, 27
1, 255360, Note_on_c, 9, 42, 79
1, 255599, Note_on_c, 9, 54, 0
1, 255599, Note_on_c, 9, 42, 0
1, 255600, Note_on_c, 9, 54, 24
1, 255600, Note_on_c, 9, 42, 68
1, 255600, Note_on_c, 9, 36, 104
1, 255839, Note_on_c, 9, 54, 0
1, 255839, Note_on_c, 9, 42, 0
1, 255839, Note_on_c, 9, 36, 0
1, 255840, Note_on_c, 9, 40, 115
1, 255840, Note_on_c, 9, 54, 86
1, 255840, Note_on_c, 9, 39, 86
1, 255840, Note_on_c, 9, 42, 68
1, 255960, Note_on_c, 9, 36, 104
1, 256079, Note_on_c, 9, 40, 0
1, 256079, Note_on_c, 9, 54, 0
1, 256079, Note_on_c, 9, 39, 0
1, 256079, Note_on_c, 9, 42, 0
1, 256080, Note_on_c, 9, 54, 30
1, 256080, Note_on_c, 9, 42, 36
1, 256199, Note_on_c, 9, 54, 0
1, 256199, Note_on_c, 9, 42, 0
1, 256200, Note_on_c, 9, 54, 29
1, 256319, Note_on_c, 9, 36, 0
1, 256319, Note_on_c, 9, 54, 0
1, 256320, Note_on_c, 9, 54, 30
1, 256320, Note_on_c, 9, 42, 73
1, 256320, Note_on_c, 9, 36, 104
1, 256559, Note_on_c, 9, 54, 0
1, 256559, Note_on_c, 9, 42, 0
1, 256560, Note_on_c, 9, 54, 26
1, 256560, Note_on_c, 9, 42, 55
1, 256799, Note_on_c, 9, 36, 0
1, 256799, Note_on_c, 9, 54, 0
1, 256799, Note_on_c, 9, 42, 0
1, 256800, Note_on_c, 9, 40, 104
1, 256800, Note_on_c, 9, 54, 86
1, 256800, Note_on_c, 9, 39, 94
1, 256800, Note_on_c, 9, 42, 79
1, 257039, Note_on_c, 9, 40, 0
1, 257039, Note_on_c, 9, 54, 0
1, 257039, Note_on_c, 9, 39, 0
1, 257039, Note_on_c, 9, 42, 0
1, 257040, Note_on_c, 9, 54, 29
1, 257040, Note_on_c, 9, 46, 68
1, 257040, Note_on_c, 9, 36, 86
1, 257279, Note_on_c, 9, 54, 0
1, 257279, Note_on_c, 9, 46, 0
1, 257279, Note_on_c, 9, 36, 0
1, 257280, Note_on_c, 9, 54, 34
1, 257280, Note_on_c, 9, 42, 86
1, 257280, Note_on_c, 9, 36, 104
1, 257519, Note_on_c, 9, 54, 0
1, 257519, Note_on_c, 9, 42, 0
1, 257520, Note_on_c, 9, 54, 36
1, 257520, Note_on_c, 9, 42, 68
1, 257759, Note_on_c, 9, 36, 0
1, 257759, Note_on_c, 9, 54, 0
1, 257759, Note_on_c, 9, 42, 0
1, 257760, Note_on_c, 9, 40, 115
1, 257760, Note_on_c, 9, 54, 86
1, 257760, Note_on_c, 9, 39, 79
1, 257760, Note_on_c, 9, 42, 79
1, 257999, Note_on_c, 9, 40, 0
1, 257999, Note_on_c, 9, 54, 0
1, 257999, Note_on_c, 9, 39, 0
1, 257999, Note_on_c, 9, 42, 0
1, 258000, Note_on_c, 9, 54, 44
1, 258000, Note_on_c, 9, 42, 59
1, 258000, Note_on_c, 9, 36, 104
1, 258119, Note_on_c, 9, 54, 0
1, 258119, Note_on_c, 9, 42, 0
1, 258120, Note_on_c, 9, 54, 51
1, 258239, Note_on_c, 9, 36, 0
1, 258239, Note_on_c, 9, 54, 0
1, 258240, Note_on_c, 9, 54, 34
1, 258240, Note_on_c, 9, 42, 73
1, 258240, Note_on_c, 9, 36, 115
1, 258479, Note_on_c, 9, 54, 0
1, 258479, Note_on_c, 9, 42, 0
1, 258480, Note_on_c, 9, 54, 32
1, 258480, Note_on_c, 9, 42, 63
1, 258719, Note_on_c, 9, 36, 0
1, 258719, Note_on_c, 9, 54, 0
1, 258719, Note_on_c, 9, 42, 0
1, 258720, Note_on_c, 9, 40, 104
1, 258720, Note_on_c, 9, 54, 86
1, 258720, Note_on_c, 9, 39, 94
1, 258720, Note_on_c, 9, 42, 79
1, 258959, Note_on_c, 9, 40, 0
1, 258959, Note_on_c, 9, 54, 0
1, 258959, Note_on_c, 9, 39, 0
1, 258959, Note_on_c, 9, 42, 0
1, 258960, Note_on_c, 9, 54, 28
1, 258960, Note_on_c, 9, 42, 63
1, 258960, Note_on_c, 9, 36, 115
1, 259199, Note_on_c, 9, 54, 0
1, 259199, Note_on_c, 9, 42, 0
1, 259199, Note_on_c, 9, 36, 0
1, 259200, Note_on_c, 9, 54, 23
1, 259200, Note_on_c, 9, 42, 79
1, 259439, Note_on_c, 9, 54, 0
1, 259439, Note_on_c, 9, 42, 0
1, 259440, Note_on_c, 9, 54, 27
1, 259440, Note_on_c, 9, 42, 63
1, 259440, Note_on_c, 9, 36, 104
1, 259679, Note_on_c, 9, 54, 0
1, 259679, Note_on_c, 9, 42, 0
1, 259679, Note_on_c, 9, 36, 0
1, 259680, Note_on_c, 9, 40, 104
1, 259680, Note_on_c, 9, 54, 79
1, 259680, Note_on_c, 9, 39, 86
1, 259680, Note_on_c, 9, 42, 79
1, 259800, Note_on_c, 9, 36, 104
1, 259919, Note_on_c, 9, 40, 0
1, 259919, Note_on_c, 9, 54, 0
1, 259919, Note_on_c, 9, 39, 0
1, 259919, Note_on_c, 9, 42, 0
1, 259920, Note_on_c, 9, 54, 38
1, 259920, Note_on_c, 9, 42, 32
1, 260039, Note_on_c, 9, 54, 0
1, 260039, Note_on_c, 9, 42, 0
1, 260040, Note_on_c, 9, 54, 13
1, 260159, Note_on_c, 9, 36, 0
1, 260159, Note_on_c, 9, 54, 0
1, 260160, Note_on_c, 9, 54, 38
1, 260160, Note_on_c, 9, 42, 86
1, 260160, Note_on_c, 9, 36, 115
1, 260399, Note_on_c, 9, 54, 0
1, 260399, Note_on_c, 9, 42, 0
1, 260400, Note_on_c, 9, 54, 33
1, 260400, Note_on_c, 9, 42, 47
1, 260639, Note_on_c, 9, 36, 0
1, 260639, Note_on_c, 9, 54, 0
1, 260639, Note_on_c, 9, 42, 0
1, 260640, Note_on_c, 9, 40, 115
1, 260640, Note_on_c, 9, 54, 79
1, 260640, Note_on_c, 9, 39, 79
1, 260640, Note_on_c, 9, 42, 79
1, 260879, Note_on_c, 9, 40, 0
1, 260879, Note_on_c, 9, 54, 0
1, 260879, Note_on_c, 9, 39, 0
1, 260879, Note_on_c, 9, 42, 0
1, 260880, Note_on_c, 9, 54, 26
1, 260880, Note_on_c, 9, 42, 34
1, 260880, Note_on_c, 9, 36, 86
1, 261119, Note_on_c, 9, 54, 0
1, 261119, Note_on_c, 9, 42, 0
1, 261119, Note_on_c, 9, 36, 0
1, 261120, Note_on_c, 9, 54, 25
1, 261120, Note_on_c, 9, 42, 79
1, 261120, Note_on_c, 9, 36, 104
1, 261359, Note_on_c, 9, 54, 0
1, 261359, Note_on_c, 9, 42, 0
1, 261360, Note_on_c, 9, 54, 22
1, 261360, Note_on_c, 9, 42, 51
1, 261599, Note_on_c, 9, 36, 0
1, 261599, Note_on_c, 9, 54, 0
1, 261599, Note_on_c, 9, 42, 0
1, 261600, Note_on_c, 9, 40, 104
1, 261600, Note_on_c, 9, 54, 86
1, 261600, Note_on_c, 9, 39, 86
1, 261600, Note_on_c, 9, 42, 86
1, 261839, Note_on_c, 9, 40, 0
1, 261839, Note_on_c, 9, 54, 0
1, 261839, Note_on_c, 9, 39, 0
1, 261839, Note_on_c, 9, 42, 0
1, 261840, Note_on_c, 9, 54, 33
1, 261840, Note_on_c, 9, 42, 33
1, 261840, Note_on_c, 9, 36, 94
1, 261959, Note_on_c, 9, 54, 0
1, 261959, Note_on_c, 9, 42, 0
1, 261960, Note_on_c, 9, 54, 29
1, 262079, Note_on_c, 9, 36, 0
1, 262079, Note_on_c, 9, 54, 0
1, 262080, Note_on_c, 9, 54, 33
1, 262080, Note_on_c, 9, 42, 68
1, 262080, Note_on_c, 9, 36, 104
1, 262319, Note_on_c, 9, 54, 0
1, 262319, Note_on_c, 9, 42, 0
1, 262320, Note_on_c, 9, 54, 23
1, 262320, Note_on_c, 9, 42, 31
1, 262559, Note_on_c, 9, 36, 0
1, 262559, Note_on_c, 9, 54, 0
1, 262559, Note_on_c, 9, 42, 0
1, 262560, Note_on_c, 9, 40, 104
1, 262560, Note_on_c, 9, 54, 86
1, 262560, Note_on_c, 9, 39, 86
1, 262560, Note_on_c, 9, 42, 79
1, 262799, Note_on_c, 9, 40, 0
1, 262799, Note_on_c, 9, 54, 0
1, 262799, Note_on_c, 9, 39, 0
1, 262799, Note_on_c, 9, 42, 0
1, 262800, Note_on_c, 9, 54, 25
1, 262800, Note_on_c, 9, 42, 47
1, 262800, Note_on_c, 9, 36, 104
1, 263039, Note_on_c, 9, 54, 0
1, 263039, Note_on_c, 9, 42, 0
1, 263039, Note_on_c, 9, 36, 0
1, 263040, Note_on_c, 9, 54, 27
1, 263040, Note_on_c, 9, 42, 79
1, 263279, Note_on_c, 9, 54, 0
1, 263279, Note_on_c, 9, 42, 0
1, 263280, Note_on_c, 9, 54, 24
1, 263280, Note_on_c, 9, 42, 68
1, 263280, Note_on_c, 9, 36, 104
1, 263519, Note_on_c, 9, 54, 0
1, 263519, Note_on_c, 9, 42, 0
1, 263519, Note_on_c, 9, 36, 0
1, 263520, Note_on_c, 9, 40, 115
1, 263520, Note_on_c, 9, 54, 86
1, 263520, Note_on_c, 9, 39, 86
1, 263520, Note_on_c, 9, 42, 68
1, 263640, Note_on_c, 9, 36, 104
1, 263759, Note_on_c, 9, 40, 0
1, 263759, Note_on_c, 9, 54, 0
1, 263759, Note_on_c, 9, 39, 0
1, 263759, Note_on_c, 9, 42, 0
1, 263760, Note_on_c, 9, 54, 30
1, 263760, Note_on_c, 9, 42, 36
1, 263879, Note_on_c, 9, 54, 0
1, 263879, Note_on_c, 9, 42, 0
1, 263880, Note_on_c, 9, 54, 29
1, 263999, Note_on_c, 9, 36, 0
1, 263999, Note_on_c, 9, 54, 0
1, 264000, Note_on_c, 9, 54, 30
1, 264000, Note_on_c, 9, 42, 73
1, 264000, Note_on_c, 9, 36, 104
1, 264239, Note_on_c, 9, 54, 0
1, 264239, Note_on_c, 9, 42, 0
1, 264240, Note_on_c, 9, 54, 26
1, 264240, Note_on_c, 9, 42, 55
1, 264479, Note_on_c, 9, 36, 0
1, 264479, Note_on_c, 9, 54, 0
1, 264479, Note_on_c, 9, 42, 0
1, 264480, Note_on_c, 9, 40, 104
1, 264480, Note_on_c, 9, 54, 86
1, 264480, Note_on_c, 9, 39, 94
1, 264480, Note_on_c, 9, 42, 79
1, 264719, Note_on_c, 9, 40, 0
1, 264719, Note_on_c, 9, 54, 0
1, 264719, Note_on_c, 9, 39, 0
1, 264719, Note_on_c, 9, 42, 0
1, 264720, Note_on_c, 9, 54, 29
1, 264720, Note_on_c, 9, 42, 68
1, 264720, Note_on_c, 9, 36, 86
1, 264959, Note_on_c, 9, 54, 0
1, 264959, Note_on_c, 9, 42, 0
1, 264959, Note_on_c, 9, 36, 0
1, 264960, Note_on_c, 9, 54, 34
1, 264960, Note_on_c, 9, 42, 86
1, 264960, Note_on_c, 9, 36, 104
1, 265199, Note_on_c, 9, 54, 0
1, 265199, Note_on_c, 9, 42, 0
1, 265200, Note_on_c, 9, 54, 36
1, 265200, Note_on_c, 9, 42, 68
1, 265439, Note_on_c, 9, 36, 0
1, 265439, Note_on_c, 9, 54, 0
1, 265439, Note_on_c, 9, 42, 0
1, 265440, Note_on_c, 9, 40, 115
1, 265440, Note_on_c, 9, 54, 86
1, 265440, Note_on_c, 9, 39, 79
1, 265440, Note_on_c, 9, 42, 79
1, 265679, Note_on_c, 9, 40, 0
1, 265679, Note_on_c, 9, 54, 0
1, 265679, Note_on_c, 9, 39, 0
1, 265679, Note_on_c, 9, 42, 0
1, 265680, Note_on_c, 9, 54, 44
1, 265680, Note_on_c, 9, 42, 59
1, 265680, Note_on_c, 9, 36, 104
1, 265799, Note_on_c, 9, 54, 0
1, 265799, Note_on_c, 9, 42, 0
1, 265800, Note_on_c, 9, 54, 51
1, 265919, Note_on_c, 9, 36, 0
1, 265919, Note_on_c, 9, 54, 0
1, 265920, Note_on_c, 9, 54, 34
1, 265920, Note_on_c, 9, 42, 73
1, 265920, Note_on_c, 9, 36, 115
1, 266159, Note_on_c, 9, 54, 0
1, 266159, Note_on_c, 9, 42, 0
1, 266160, Note_on_c, 9, 54, 32
1, 266160, Note_on_c, 9, 42, 63
1, 266399, Note_on_c, 9, 36, 0
1, 266399, Note_on_c, 9, 54, 0
1, 266399, Note_on_c, 9, 42, 0
1, 266400, Note_on_c, 9, 40, 104
1, 266400, Note_on_c, 9, 54, 86
1, 266400, Note_on_c, 9, 39, 94
1, 266400, Note_on_c, 9, 42, 79
1, 266639, Note_on_c, 9, 40, 0
1, 266639, Note_on_c, 9, 54, 0
1, 266639, Note_on_c, 9, 39, 0
1, 266639, Note_on_c, 9, 42, 0
1, 266640, Note_on_c, 9, 54, 28
1, 266640, Note_on_c, 9, 42, 63
1, 266640, Note_on_c, 9, 36, 115
1, 266879, Note_on_c, 9, 54, 0
1, 266879, Note_on_c, 9, 42, 0
1, 266879, Note_on_c, 9, 36, 0
1, 266880, Note_on_c, 9, 54, 23
1, 266880, Note_on_c, 9, 42, 79
1, 267119, Note_on_c, 9, 54, 0
1, 267119, Note_on_c, 9, 42, 0
1, 267120, Note_on_c, 9, 54, 27
1, 267120, Note_on_c, 9, 42, 63
1, 267120, Note_on_c, 9, 36, 104
1, 267359, Note_on_c, 9, 54, 0
1, 267359, Note_on_c, 9, 42, 0
1, 267359, Note_on_c, 9, 36, 0
1, 267360, Note_on_c, 9, 40, 104
1, 267360, Note_on_c, 9, 54, 79
1, 267360, Note_on_c, 9, 39, 86
1, 267360, Note_on_c, 9, 42, 79
1, 267480, Note_on_c, 9, 36, 104
1, 267599, Note_on_c, 9, 40, 0
1, 267599, Note_on_c, 9, 54, 0
1, 267599, Note_on_c, 9, 39, 0
1, 267599, Note_on_c, 9, 42, 0
1, 267600, Note_on_c, 9, 54, 38
1, 267600, Note_on_c, 9, 42, 32
1, 267719, Note_on_c, 9, 54, 0
1, 267719, Note_on_c, 9, 42, 0
1, 267720, Note_on_c, 9, 54, 13
1, 267839, Note_on_c, 9, 36, 0
1, 267839, Note_on_c, 9, 54, 0
1, 267840, Note_on_c, 9, 54, 38
1, 267840, Note_on_c, 9, 42, 86
1, 267840, Note_on_c, 9, 36, 115
1, 268079, Note_on_c, 9, 54, 0
1, 268079, Note_on_c, 9, 42, 0
1, 268080, Note_on_c, 9, 54, 33
1, 268080, Note_on_c, 9, 42, 47
1, 268319, Note_on_c, 9, 36, 0
1, 268319, Note_on_c, 9, 54, 0
1, 268319, Note_on_c, 9, 42, 0
1, 268320, Note_on_c, 9, 40, 115
1, 268320, Note_on_c, 9, 54, 79
1, 268320, Note_on_c, 9, 39, 79
1, 268320, Note_on_c, 9, 42, 79
1, 268559, Note_on_c, 9, 40, 0
1, 268559, Note_on_c, 9, 54, 0
1, 268559, Note_on_c, 9, 39, 0
1, 268559, Note_on_c, 9, 42, 0
1, 268560, Note_on_c, 9, 54, 26
1, 268560, Note_on_c, 9, 42, 34
1, 268560, Note_on_c, 9, 36, 86
1, 268799, Note_on_c, 9, 54, 0
1, 268799, Note_on_c, 9, 42, 0
1, 268799, Note_on_c, 9, 36, 0
1, 268800, Note_on_c, 9, 54, 25
1, 268800, Note_on_c, 9, 42, 79
1, 268800, Note_on_c, 9, 36, 104
1, 269039, Note_on_c, 9, 54, 0
1, 269039, Note_on_c, 9, 42, 0
1, 269040, Note_on_c, 9, 54, 22
1, 269040, Note_on_c, 9, 42, 51
1, 269279, Note_on_c, 9, 36, 0
1, 269279, Note_on_c, 9, 54, 0
1, 269279, Note_on_c, 9, 42, 0
1, 269280, Note_on_c, 9, 40, 104
1, 269280, Note_on_c, 9, 54, 86
1, 269280, Note_on_c, 9, 39, 86
1, 269280, Note_on_c, 9, 42, 86
1, 269519, Note_on_c, 9, 40, 0
1, 269519, Note_on_c, 9, 54, 0
1, 269519, Note_on_c, 9, 39, 0
1, 269519, Note_on_c, 9, 42, 0
1, 269520, Note_on_c, 9, 54, 33
1, 269520, Note_on_c, 9, 42, 33
1, 269520, Note_on_c, 9, 36, 94
1, 269639, Note_on_c, 9, 54, 0
1, 269639, Note_on_c, 9, 42, 0
1, 269640, Note_on_c, 9, 54, 29
1, 269759, Note_on_c, 9, 36, 0
1, 269759, Note_on_c, 9, 54, 0
1, 269760, Note_on_c, 9, 54, 33
1, 269760, Note_on_c, 9, 42, 68
1, 269760, Note_on_c, 9, 36, 104
1, 269999, Note_on_c, 9, 54, 0
1, 269999, Note_on_c, 9, 42, 0
1, 270000, Note_on_c, 9, 54, 23
1, 270000, Note_on_c, 9, 42, 31
1, 270239, Note_on_c, 9, 36, 0
1, 270239, Note_on_c, 9, 54, 0
1, 270239, Note_on_c, 9, 42, 0
1, 270240, Note_on_c, 9, 40, 104
1, 270240, Note_on_c, 9, 54, 86
1, 270240, Note_on_c, 9, 39, 86
1, 270240, Note_on_c, 9, 42, 79
1, 270479, Note_on_c, 9, 40, 0
1, 270479, Note_on_c, 9, 54, 0
1, 270479, Note_on_c, 9, 39, 0
1, 270479, Note_on_c, 9, 42, 0
1, 270480, Note_on_c, 9, 54, 25
1, 270480, Note_on_c, 9, 42, 47
1, 270480, Note_on_c, 9, 36, 104
1, 270719, Note_on_c, 9, 54, 0
1, 270719, Note_on_c, 9, 42, 0
1, 270719, Note_on_c, 9, 36, 0
1, 270720, Note_on_c, 9, 54, 27
1, 270720, Note_on_c, 9, 42, 79
1, 270959, Note_on_c, 9, 54, 0
1, 270959, Note_on_c, 9, 42, 0
1, 270960, Note_on_c, 9, 54, 24
1, 270960, Note_on_c, 9, 42, 68
1, 270960, Note_on_c, 9, 36, 104
1, 271199, Note_on_c, 9, 54, 0
1, 271199, Note_on_c, 9, 42, 0
1, 271199, Note_on_c, 9, 36, 0
1, 271200, Note_on_c, 9, 40, 115
1, 271200, Note_on_c, 9, 54, 86
1, 271200, Note_on_c, 9, 39, 86
1, 271200, Note_on_c, 9, 42, 68
1, 271320, Note_on_c, 9, 36, 104
1, 271439, Note_on_c, 9, 40, 0
1, 271439, Note_on_c, 9, 54, 0
1, 271439, Note_on_c, 9, 39, 0
1, 271439, Note_on_c, 9, 42, 0
1, 271440, Note_on_c, 9, 54, 30
1, 271440, Note_on_c, 9, 42, 36
1, 271559, Note_on_c, 9, 54, 0
1, 271559, Note_on_c, 9, 42, 0
1, 271560, Note_on_c, 9, 54, 29
1, 271679, Note_on_c, 9, 36, 0
1, 271679, Note_on_c, 9, 54, 0
1, 271680, Note_on_c, 9, 54, 30
1, 271680, Note_on_c, 9, 42, 73
1, 271680, Note_on_c, 9, 36, 104
1, 271919, Note_on_c, 9, 54, 0
1, 271919, Note_on_c, 9, 42, 0
1, 271920, Note_on_c, 9, 54, 26
1, 271920, Note_on_c, 9, 42, 55
1, 272159, Note_on_c, 9, 36, 0
1, 272159, Note_on_c, 9, 54, 0
1, 272159, Note_on_c, 9, 42, 0
1, 272160, Note_on_c, 9, 40, 104
1, 272160, Note_on_c, 9, 54, 86
1, 272160, Note_on_c, 9, 39, 94
1, 272160, Note_on_c, 9, 42, 79
1, 272399, Note_on_c, 9, 40, 0
1, 272399, Note_on_c, 9, 54, 0
1, 272399, Note_on_c, 9, 39, 0
1, 272399, Note_on_c, 9, 42, 0
1, 272400, Note_on_c, 9, 54, 29
1, 272400, Note_on_c, 9, 46, 68
1, 272400, Note_on_c, 9, 36, 86
1, 272639, Note_on_c, 9, 54, 0
1, 272639, Note_on_c, 9, 46, 0
1, 272639, Note_on_c, 9, 36, 0
1, 272640, Note_on_c, 9, 54, 34
1, 272640, Note_on_c, 9, 42, 86
1, 272640, Note_on_c, 9, 36, 104
1, 272879, Note_on_c, 9, 54, 0
1, 272879, Note_on_c, 9, 42, 0
1, 272880, Note_on_c, 9, 54, 36
1, 272880, Note_on_c, 9, 42, 68
1, 273119, Note_on_c, 9, 36, 0
1, 273119, Note_on_c, 9, 54, 0
1, 273119, Note_on_c, 9, 42, 0
1, 273120, Note_on_c, 9, 40, 115
1, 273120, Note_on_c, 9, 54, 86
1, 273120, Note_on_c, 9, 39, 79
1, 273120, Note_on_c, 9, 42, 79
1, 273359, Note_on_c, 9, 40, 0
1, 273359, Note_on_c, 9, 54, 0
1, 273359, Note_on_c, 9, 39, 0
1, 273359, Note_on_c, 9, 42, 0
1, 273360, Note_on_c, 9, 54, 44
1, 273360, Note_on_c, 9, 42, 59
1, 273360, Note_on_c, 9, 36, 104
1, 273479, Note_on_c, 9, 54, 0
1, 273479, Note_on_c, 9, 42, 0
1, 273480, Note_on_c, 9, 54, 51
1, 273599, Note_on_c, 9, 36, 0
1, 273599, Note_on_c, 9, 54, 0
1, 273600, Note_on_c, 9, 54, 34
1, 273600, Note_on_c, 9, 42, 73
1, 273600, Note_on_c, 9, 36, 115
1, 273839, Note_on_c, 9, 54, 0
1, 273839, Note_on_c, 9, 42, 0
1, 273840, Note_on_c, 9, 54, 32
1, 273840, Note_on_c, 9, 42, 63
1, 274079, Note_on_c, 9, 36, 0
1, 274079, Note_on_c, 9, 54, 0
1, 274079, Note_on_c, 9, 42, 0
1, 274080, Note_on_c, 9, 40, 104
1, 274080, Note_on_c, 9, 54, 86
1, 274080, Note_on_c, 9, 39, 94
1, 274080, Note_on_c, 9, 42, 79
1, 274319, Note_on_c, 9, 40, 0
1, 274319, Note_on_c, 9, 54, 0
1, 274319, Note_on_c, 9, 39, 0
1, 274319, Note_on_c, 9, 42, 0
1, 274320, Note_on_c, 9, 54, 28
1, 274320, Note_on_c, 9, 42, 63
1, 274320, Note_on_c, 9, 36, 115
1, 274559, Note_on_c, 9, 54, 0
1, 274559, Note_on_c, 9, 42, 0
1, 274559, Note_on_c, 9, 36, 0
1, 274560, Note_on_c, 9, 54, 23
1, 274560, Note_on_c, 9, 42, 79
1, 274799, Note_on_c, 9, 54, 0
1, 274799, Note_on_c, 9, 42, 0
1, 274800, Note_on_c, 9, 54, 27
1, 274800, Note_on_c, 9, 42, 63
1, 274800, Note_on_c, 9, 36, 104
1, 275039, Note_on_c, 9, 54, 0
1, 275039, Note_on_c, 9, 42, 0
1, 275039, Note_on_c, 9, 36, 0
1, 275040, Note_on_c, 9, 40, 104
1, 275040, Note_on_c, 9, 54, 79
1, 275040, Note_on_c, 9, 39, 86
1, 275040, Note_on_c, 9, 42, 79
1, 275160, Note_on_c, 9, 36, 104
1, 275279, Note_on_c, 9, 40, 0
1, 275279, Note_on_c, 9, 54, 0
1, 275279, Note_on_c, 9, 39, 0
1, 275279, Note_on_c, 9, 42, 0
1, 275280, Note_on_c, 9, 54, 38
1, 275280, Note_on_c, 9, 42, 32
1, 275399, Note_on_c, 9, 54, 0
1, 275399, Note_on_c, 9, 42, 0
1, 275400, Note_on_c, 9, 54, 13
1, 275519, Note_on_c, 9, 36, 0
1, 275519, Note_on_c, 9, 54, 0
1, 275520, Note_on_c, 9, 54, 38
1, 275520, Note_on_c, 9, 42, 86
1, 275520, Note_on_c, 9, 36, 115
1, 275759, Note_on_c, 9, 54, 0
1, 275759, Note_on_c, 9, 42, 0
1, 275760, Note_on_c, 9, 54, 33
1, 275760, Note_on_c, 9, 42, 47
1, 275999, Note_on_c, 9, 36, 0
1, 275999, Note_on_c, 9, 54, 0
1, 275999, Note_on_c, 9, 42, 0
1, 276000, Note_on_c, 9, 40, 115
1, 276000, Note_on_c, 9, 54, 79
1, 276000, Note_on_c, 9, 39, 79
1, 276000, Note_on_c, 9, 42, 79
1, 276239, Note_on_c, 9, 40, 0
1, 276239, Note_on_c, 9, 54, 0
1, 276239, Note_on_c, 9, 39, 0
1, 276239, Note_on_c, 9, 42, 0
1, 276240, Note_on_c, 9, 54, 26
1, 276240, Note_on_c, 9, 42, 34
1, 276240, Note_on_c, 9, 36, 86
1, 276479, Note_on_c, 9, 54, 0
1, 276479, Note_on_c, 9, 42, 0
1, 276479, Note_on_c, 9, 36, 0
1, 276480, Note_on_c, 9, 54, 25
1, 276480, Note_on_c, 9, 42, 79
1, 276480, Note_on_c, 9, 36, 104
1, 276719, Note_on_c, 9, 54, 0
1, 276719, Note_on_c, 9, 42, 0
1, 276720, Note_on_c, 9, 54, 22
1, 276720, Note_on_c, 9, 42, 51
1, 276959, Note_on_c, 9, 36, 0
1, 276959, Note_on_c, 9, 54, 0
1, 276959, Note_on_c, 9, 42, 0
1, 276960, Note_on_c, 9, 40, 104
1, 276960, Note_on_c, 9, 54, 86
1, 276960, Note_on_c, 9, 39, 86
1, 276960, Note_on_c, 9, 42, 86
1, 277199, Note_on_c, 9, 40, 0
1, 277199, Note_on_c, 9, 54, 0
1, 277199, Note_on_c, 9, 39, 0
1, 277199, Note_on_c, 9, 42, 0
1, 277200, Note_on_c, 9, 54, 33
1, 277200, Note_on_c, 9, 42, 33
1, 277200, Note_on_c, 9, 36, 94
1, 277319, Note_on_c, 9, 54, 0
1, 277319, Note_on_c, 9, 42, 0
1, 277320, Note_on_c, 9, 54, 29
1, 277439, Note_on_c, 9, 36, 0
1, 277439, Note_on_c, 9, 54, 0
1, 277440, Note_on_c, 9, 54, 33
1, 277440, Note_on_c, 9, 42, 68
1, 277440, Note_on_c, 9, 36, 104
1, 277679, Note_on_c, 9, 54, 0
1, 277679, Note_on_c, 9, 42, 0
1, 277680, Note_on_c, 9, 54, 23
1, 277680, Note_on_c, 9, 42, 31
1, 277919, Note_on_c, 9, 36, 0
1, 277919, Note_on_c, 9, 54, 0
1, 277919, Note_on_c, 9, 42, 0
1, 277920, Note_on_c, 9, 40, 104
1, 277920, Note_on_c, 9, 54, 86
1, 277920, Note_on_c, 9, 39, 86
1, 277920, Note_on_c, 9, 42, 79
1, 278159, Note_on_c, 9, 40, 0
1, 278159, Note_on_c, 9, 54, 0
1, 278159, Note_on_c, 9, 39, 0
1, 278159, Note_on_c, 9, 42, 0
1, 278160, Note_on_c, 9, 54, 25
1, 278160, Note_on_c, 9, 42, 47
1, 278160, Note_on_c, 9, 36, 104
1, 278399, Note_on_c, 9, 54, 0
1, 278399, Note_on_c, 9, 42, 0
1, 278399, Note_on_c, 9, 36, 0
1, 279840, Note_on_c, 9, 41, 86
1, 279840, Note_on_c, 9, 36, 127
1, 280319, Note_on_c, 9, 41, 0
1, 280319, Note_on_c, 9, 36, 0
1, 281040, Note_on_c, 9, 40, 104
1, 281159, Note_on_c, 9, 40, 0
1, 281160, Note_on_c, 9, 40, 115
1, 281279, Note_on_c, 9, 40, 0
1, 281280, End_track
2, 0, Start_track
2, 0, Key_signature, 0, "major"
2, 0, Control_c, 9, 121, 0
2, 0, Program_c, 9, 0
2, 0, Control_c, 9, 7, 100
2, 0, Control_c, 9, 10, 64
2, 0, Control_c, 9, 91, 0
2, 0, Control_c, 9, 93, 0
2, 0, MIDI_port, 1
2, 134640, Note_on_c, 9, 60, 51
2, 134759, Note_on_c, 9, 60, 0
2, 134760, Note_on_c, 9, 60, 80
2, 134879, Note_on_c, 9, 60, 0
2, 134880, Note_on_c, 9, 60, 51
2, 134999, Note_on_c, 9, 60, 0
2, 135000, Note_on_c, 9, 60, 51
2, 135119, Note_on_c, 9, 60, 0
2, 135120, Note_on_c, 9, 60, 38
2, 135359, Note_on_c, 9, 60, 0
2, 135600, Note_on_c, 9, 60, 56
2, 135719, Note_on_c, 9, 60, 0
2, 135720, Note_on_c, 9, 60, 49
2, 135839, Note_on_c, 9, 60, 0
2, 135840, Note_on_c, 9, 60, 74
2, 135959, Note_on_c, 9, 60, 0
2, 135960, Note_on_c, 9, 60, 29
2, 136079, Note_on_c, 9, 60, 0
2, 136080, Note_on_c, 9, 60, 56
2, 136319, Note_on_c, 9, 60, 0
2, 136320, Note_on_c, 9, 60, 49
2, 136439, Note_on_c, 9, 60, 0
2, 136440, Note_on_c, 9, 60, 43
2, 136559, Note_on_c, 9, 60, 0
2, 136560, Note_on_c, 9, 60, 56
2, 136799, Note_on_c, 9, 60, 0
2, 136800, Note_on_c, 9, 60, 85
2, 136919, Note_on_c, 9, 60, 0
2, 136920, Note_on_c, 9, 60, 56
2, 137039, Note_on_c, 9, 60, 0
2, 137040, Note_on_c, 9, 60, 14
2, 137159, Note_on_c, 9, 60, 0
2, 137160, Note_on_c, 9, 60, 49
2, 137279, Note_on_c, 9, 60, 0
2, 137280, Note_on_c, 9, 60, 85
2, 137759, Note_on_c, 9, 60, 0
2, 138480, Note_on_c, 9, 60, 51
2, 138599, Note_on_c, 9, 60, 0
2, 138600, Note_on_c, 9, 60, 80
2, 138719, Note_on_c, 9, 60, 0
2, 138720, Note_on_c, 9, 60, 51
2, 138839, Note_on_c, 9, 60, 0
2, 138840, Note_on_c, 9, 60, 51
2, 138959, Note_on_c, 9, 60, 0
2, 138960, Note_on_c, 9, 60, 38
2, 139199, Note_on_c, 9, 60, 0
2, 139440, Note_on_c, 9, 60, 56
2, 139559, Note_on_c, 9, 60, 0
2, 139560, Note_on_c, 9, 60, 49
2, 139679, Note_on_c, 9, 60, 0
2, 139680, Note_on_c, 9, 60, 74
2, 139799, Note_on_c, 9, 60, 0
2, 139800, Note_on_c, 9, 60, 29
2, 139919, Note_on_c, 9, 60, 0
2, 139920, Note_on_c, 9, 60, 56
2, 140159, Note_on_c, 9, 60, 0
2, 140160, Note_on_c, 9, 60, 49
2, 140279, Note_on_c, 9, 60, 0
2, 140280, Note_on_c, 9, 60, 43
2, 140399, Note_on_c, 9, 60, 0
2, 140400, Note_on_c, 9, 60, 56
2, 140639, Note_on_c, 9, 60, 0
2, 140640, Note_on_c, 9, 60, 85
2, 140759, Note_on_c, 9, 60, 0
2, 140760, Note_on_c, 9, 60, 56
2, 140879, Note_on_c, 9, 60, 0
2, 140880, Note_on_c, 9, 60, 14
2, 140999, Note_on_c, 9, 60, 0
2, 141000, Note_on_c, 9, 60, 49
2, 141119, Note_on_c, 9, 60, 0
2, 141120, Note_on_c, 9, 60, 85
2, 141599, Note_on_c, 9, 60, 0
2, 142320, Note_on_c, 9, 60, 51
2, 142439, Note_on_c, 9, 60, 0
2, 142440, Note_on_c, 9, 60, 80
2, 142559, Note_on_c, 9, 60, 0
2, 142560, Note_on_c, 9, 60, 51
2, 142679, Note_on_c, 9, 60, 0
2, 142680, Note_on_c, 9, 60, 51
2, 142799, Note_on_c, 9, 60, 0
2, 142800, Note_on_c, 9, 60, 38
2, 143039, Note_on_c, 9, 60, 0
2, 143280, Note_on_c, 9, 60, 56
2, 143399, Note_on_c, 9, 60, 0
2, 143400, Note_on_c, 9, 60, 49
2, 143519, Note_on_c, 9, 60, 0
2, 143520, Note_on_c, 9, 60, 74
2, 143639, Note_on_c, 9, 60, 0
2, 143640, Note_on_c, 9, 60, 29
2, 143759, Note_on_c, 9, 60, 0
2, 143760, Note_on_c, 9, 60, 56
2, 143999, Note_on_c, 9, 60, 0
2, 144000, Note_on_c, 9, 60, 49
2, 144119, Note_on_c, 9, 60, 0
2, 144120, Note_on_c, 9, 60, 43
2, 144239, Note_on_c, 9, 60, 0
2, 144240, Note_on_c, 9, 60, 56
2, 144479, Note_on_c, 9, 60, 0
2, 144480, Note_on_c, 9, 60, 85
2, 144599, Note_on_c, 9, 60, 0
2, 144600, Note_on_c, 9, 60, 56
2, 144719, Note_on_c, 9, 60, 0
2, 144720, Note_on_c, 9, 60, 14
2, 144839, Note_on_c, 9, 60, 0
2, 144840, Note_on_c, 9, 60, 49
2, 144959, Note_on_c, 9, 60, 0
2, 144960, Note_on_c, 9, 60, 85
2, 145439, Note_on_c, 9, 60, 0
2, 146160, Note_on_c, 9, 60, 51
2, 146279, Note_on_c, 9, 60, 0
2, 146280, Note_on_c, 9, 60, 80
2, 146399, Note_on_c, 9, 60, 0
2, 146400, Note_on_c, 9, 60, 51
2, 146519, Note_on_c, 9, 60, 0
2, 146520, Note_on_c, 9, 60, 51
2, 146639, Note_on_c, 9, 60, 0
2, 146640, Note_on_c, 9, 60, 38
2, 146879, Note_on_c, 9, 60, 0
2, 147120, Note_on_c, 9, 60, 56
2, 147239, Note_on_c, 9, 60, 0
2, 147240, Note_on_c, 9, 60, 49
2, 147359, Note_on_c, 9, 60, 0
2, 147360, Note_on_c, 9, 60, 74
2, 147479, Note_on_c, 9, 60, 0
2, 147480, Note_on_c, 9, 60, 29
2, 147599, Note_on_c, 9, 60, 0
2, 147600, Note_on_c, 9, 60, 56
2, 147839, Note_on_c, 9, 60, 0
2, 147840, Note_on_c, 9, 60, 49
2, 147959, Note_on_c, 9, 60, 0
2, 147960, Note_on_c, 9, 60, 43
2, 148079, Note_on_c, 9, 60, 0
2, 148080, Note_on_c, 9, 60, 56
2, 148319, Note_on_c, 9, 60, 0
2, 148320, Note_on_c, 9, 60, 85
2, 148439, Note_on_c, 9, 60, 0
2, 148440, Note_on_c, 9, 60, 56
2, 148559, Note_on_c, 9, 60, 0
2, 148560, Note_on_c, 9, 60, 14
2, 148679, Note_on_c, 9, 60, 0
2, 148680, Note_on_c, 9, 60, 49
2, 148799, Note_on_c, 9, 60, 0
2, 148800, Note_on_c, 9, 60, 85
2, 149279, Note_on_c, 9, 60, 0
2, 150000, Note_on_c, 9, 60, 51
2, 150119, Note_on_c, 9, 60, 0
2, 150120, Note_on_c, 9, 60, 80
2, 150239, Note_on_c, 9, 60, 0
2, 150240, Note_on_c, 9, 60, 51
2, 150359, Note_on_c, 9, 60, 0
2, 150360, Note_on_c, 9, 60, 51
2, 150479, Note_on_c, 9, 60, 0
2, 150480, Note_on_c, 9, 60, 38
2, 150719, Note_on_c, 9, 60, 0
2, 150960, Note_on_c, 9, 60, 56
2, 151079, Note_on_c, 9, 60, 0
2, 151080, Note_on_c, 9, 60, 49
2, 151199, Note_on_c, 9, 60, 0
2, 151200, Note_on_c, 9, 60, 74
2, 151319, Note_on_c, 9, 60, 0
2, 151320, Note_on_c, 9, 60, 29
2, 151439, Note_on_c, 9, 60, 0
2, 151440, Note_on_c, 9, 60, 56
2, 151679, Note_on_c, 9, 60, 0
2, 151680, Note_on_c, 9, 60, 49
2, 151799, Note_on_c, 9, 60, 0
2, 151800, Note_on_c, 9, 60, 43
2, 151919, Note_on_c, 9, 60, 0
2, 151920, Note_on_c, 9, 60, 56
2, 152159, Note_on_c, 9, 60, 0
2, 152160, Note_on_c, 9, 60, 85
2, 152279, Note_on_c, 9, 60, 0
2, 152280, Note_on_c, 9, 60, 56
2, 152399, Note_on_c, 9, 60, 0
2, 152400, Note_on_c, 9, 60, 14
2, 152519, Note_on_c, 9, 60, 0
2, 152520, Note_on_c, 9, 60, 49
2, 152639, Note_on_c, 9, 60, 0
2, 152640, Note_on_c, 9, 60, 85
2, 153119, Note_on_c, 9, 60, 0
2, 153840, Note_on_c, 9, 60, 51
2, 153959, Note_on_c, 9, 60, 0
2, 153960, Note_on_c, 9, 60, 80
2, 154079, Note_on_c, 9, 60, 0
2, 154080, Note_on_c, 9, 60, 51
2, 154199, Note_on_c, 9, 60, 0
2, 154200, Note_on_c, 9, 60, 51
2, 154319, Note_on_c, 9, 60, 0
2, 154320, Note_on_c, 9, 60, 38
2, 154559, Note_on_c, 9, 60, 0
2, 154800, Note_on_c, 9, 60, 56
2, 154919, Note_on_c, 9, 60, 0
2, 154920, Note_on_c, 9, 60, 49
2, 155039, Note_on_c, 9, 60, 0
2, 155040, Note_on_c, 9, 60, 74
2, 155159, Note_on_c, 9, 60, 0
2, 155160, Note_on_c, 9, 60, 29
2, 155279, Note_on_c, 9, 60, 0
2, 155280, Note_on_c, 9, 60, 56
2, 155519, Note_on_c, 9, 60, 0
2, 155520, Note_on_c, 9, 60, 49
2, 155639, Note_on_c, 9, 60, 0
2, 155640, Note_on_c, 9, 60, 43
2, 155759, Note_on_c, 9, 60, 0
2, 155760, Note_on_c, 9, 60, 56
2, 155999, Note_on_c, 9, 60, 0
2, 156000, Note_on_c, 9, 60, 85
2, 156119, Note_on_c, 9, 60, 0
2, 156120, Note_on_c, 9, 60, 56
2, 156239, Note_on_c, 9, 60, 0
2, 156240, Note_on_c, 9, 60, 14
2, 156359, Note_on_c, 9, 60, 0
2, 156360, Note_on_c, 9, 60, 49
2, 156479, Note_on_c, 9, 60, 0
2, 156480, Note_on_c, 9, 60, 85
2, 156959, Note_on_c, 9, 60, 0
2, 157680, Note_on_c, 9, 60, 51
2, 157799, Note_on_c, 9, 60, 0
2, 157800, Note_on_c, 9, 60, 80
2, 157919, Note_on_c, 9, 60, 0
2, 157920, Note_on_c, 9, 60, 51
2, 158039, Note_on_c, 9, 60, 0
2, 158040, Note_on_c, 9, 60, 51
2, 158159, Note_on_c, 9, 60, 0
2, 158160, Note_on_c, 9, 60, 38
2, 158399, Note_on_c, 9, 60, 0
2, 158640, Note_on_c, 9, 60, 56
2, 158759, Note_on_c, 9, 60, 0
2, 158760, Note_on_c, 9, 60, 49
2, 158879, Note_on_c, 9, 60, 0
2, 158880, Note_on_c, 9, 60, 74
2, 158999, Note_on_c, 9, 60, 0
2, 159000, Note_on_c, 9, 60, 29
2, 159119, Note_on_c, 9, 60, 0
2, 159120, Note_on_c, 9, 60, 56
2, 159359, Note_on_c, 9, 60, 0
2, 159360, Note_on_c, 9, 60, 49
2, 159479, Note_on_c, 9, 60, 0
2, 159480, Note_on_c, 9, 60, 43
2, 159599, Note_on_c, 9, 60, 0
2, 159600, Note_on_c, 9, 60, 56
2, 159839, Note_on_c, 9, 60, 0
2, 159840, Note_on_c, 9, 60, 85
2, 159959, Note_on_c, 9, 60, 0
2, 159960, Note_on_c, 9, 60, 56
2, 160079, Note_on_c, 9, 60, 0
2, 160080, Note_on_c, 9, 60, 14
2, 160199, Note_on_c, 9, 60, 0
2, 160200, Note_on_c, 9, 60, 49
2, 160319, Note_on_c, 9, 60, 0
2, 160320, Note_on_c, 9, 60, 85
2, 160799, Note_on_c, 9, 60, 0
2, 161520, Note_on_c, 9, 60, 51
2, 161639, Note_on_c, 9, 60, 0
2, 161640, Note_on_c, 9, 60, 80
2, 161759, Note_on_c, 9, 60, 0
2, 161760, Note_on_c, 9, 60, 51
2, 161879, Note_on_c, 9, 60, 0
2, 161880, Note_on_c, 9, 60, 51
2, 161999, Note_on_c, 9, 60, 0
2, 162000, Note_on_c, 9, 60, 38
2, 162239, Note_on_c, 9, 60, 0
2, 162480, Note_on_c, 9, 60, 56
2, 162599, Note_on_c, 9, 60, 0
2, 162600, Note_on_c, 9, 60, 49
2, 162719, Note_on_c, 9, 60, 0
2, 162720, Note_on_c, 9, 60, 74
2, 162839, Note_on_c, 9, 60, 0
2, 162840, Note_on_c, 9, 60, 29
2, 162959, Note_on_c, 9, 60, 0
2, 162960, Note_on_c, 9, 60, 56
2, 163199, Note_on_c, 9, 60, 0
2, 163200, Note_on_c, 9, 60, 49
2, 163319, Note_on_c, 9, 60, 0
2, 163320, Note_on_c, 9, 60, 43
2, 163439, Note_on_c, 9, 60, 0
2, 163440, Note_on_c, 9, 60, 56
2, 163679, Note_on_c, 9, 60, 0
2, 163680, Note_on_c, 9, 60, 85
2, 163799, Note_on_c, 9, 60, 0
2, 163800, Note_on_c, 9, 60, 56
2, 163919, Note_on_c, 9, 60, 0
2, 163920, Note_on_c, 9, 60, 14
2, 164039, Note_on_c, 9, 60, 0
2, 164040, Note_on_c, 9, 60, 49
2, 164159, Note_on_c, 9, 60, 0
2, 164160, Note_on_c, 9, 60, 85
2, 164639, Note_on_c, 9, 60, 0
2, 165360, Note_on_c, 9, 60, 51
2, 165479, Note_on_c, 9, 60, 0
2, 165480, Note_on_c, 9, 60, 80
2, 165599, Note_on_c, 9, 60, 0
2, 165600, Note_on_c, 9, 60, 51
2, 165719, Note_on_c, 9, 60, 0
2, 165720, Note_on_c, 9, 60, 51
2, 165839, Note_on_c, 9, 60, 0
2, 165840, Note_on_c, 9, 60, 38
2, 166079, Note_on_c, 9, 60, 0
2, 166320, Note_on_c, 9, 60, 56
2, 166439, Note_on_c, 9, 60, 0
2, 166440, Note_on_c, 9, 60, 49
2, 166559, Note_on_c, 9, 60, 0
2, 166560, Note_on_c, 9, 60, 74
2, 166679, Note_on_c, 9, 60, 0
2, 166680, Note_on_c, 9, 60, 29
2, 166799, Note_on_c, 9, 60, 0
2, 166800, Note_on_c, 9, 60, 56
2, 167039, Note_on_c, 9, 60, 0
2, 167040, Note_on_c, 9, 60, 49
2, 167159, Note_on_c, 9, 60, 0
2, 167160, Note_on_c, 9, 60, 43
2, 167279, Note_on_c, 9, 60, 0
2, 167280, Note_on_c, 9, 60, 56
2, 167519, Note_on_c, 9, 60, 0
2, 167520, Note_on_c, 9, 60, 85
2, 167639, Note_on_c, 9, 60, 0
2, 167640, Note_on_c, 9, 60, 56
2, 167759, Note_on_c, 9, 60, 0
2, 167760, Note_on_c, 9, 60, 14
2, 167879, Note_on_c, 9, 60, 0
2, 167880, Note_on_c, 9, 60, 49
2, 167999, Note_on_c, 9, 60, 0
2, 168000, Note_on_c, 9, 60, 85
2, 168479, Note_on_c, 9, 60, 0
2, 169200, Note_on_c, 9, 60, 51
2, 169319, Note_on_c, 9, 60, 0
2, 169320, Note_on_c, 9, 60, 80
2, 169439, Note_on_c, 9, 60, 0
2, 169440, Note_on_c, 9, 60, 51
2, 169559, Note_on_c, 9, 60, 0
2, 169560, Note_on_c, 9, 60, 51
2, 169679, Note_on_c, 9, 60, 0
2, 169680, Note_on_c, 9, 60, 38
2, 169919, Note_on_c, 9, 60, 0
2, 170160, Note_on_c, 9, 60, 56
2, 170279, Note_on_c, 9, 60, 0
2, 170280, Note_on_c, 9, 60, 49
2, 170399, Note_on_c, 9, 60, 0
2, 170400, Note_on_c, 9, 60, 74
2, 170519, Note_on_c, 9, 60, 0
2, 170520, Note_on_c, 9, 60, 29
2, 170639, Note_on_c, 9, 60, 0
2, 170640, Note_on_c, 9, 60, 56
2, 170879, Note_on_c, 9, 60, 0
2, 170880, Note_on_c, 9, 60, 49
2, 170999, Note_on_c, 9, 60, 0
2, 171000, Note_on_c, 9, 60, 43
2, 171119, Note_on_c, 9, 60, 0
2, 171120, Note_on_c, 9, 60, 56
2, 171359, Note_on_c, 9, 60, 0
2, 171360, Note_on_c, 9, 60, 85
2, 171479, Note_on_c, 9, 60, 0
2, 171480, Note_on_c, 9, 60, 56
2, 171599, Note_on_c, 9, 60, 0
2, 171600, Note_on_c, 9, 60, 14
2, 171719, Note_on_c, 9, 60, 0
2, 171720, Note_on_c, 9, 60, 49
2, 171839, Note_on_c, 9, 60, 0
2, 171840, Note_on_c, 9, 60, 85
2, 172319, Note_on_c, 9, 60, 0
2, 173040, Note_on_c, 9, 60, 51
2, 173159, Note_on_c, 9, 60, 0
2, 173160, Note_on_c, 9, 60, 80
2, 173279, Note_on_c, 9, 60, 0
2, 173280, Note_on_c, 9, 60, 51
2, 173399, Note_on_c, 9, 60, 0
2, 173400, Note_on_c, 9, 60, 51
2, 173519, Note_on_c, 9, 60, 0
2, 173520, Note_on_c, 9, 60, 38
2, 173759, Note_on_c, 9, 60, 0
2, 174000, Note_on_c, 9, 60, 56
2, 174119, Note_on_c, 9, 60, 0
2, 174120, Note_on_c, 9, 60, 49
2, 174239, Note_on_c, 9, 60, 0
2, 174240, Note_on_c, 9, 60, 74
2, 174359, Note_on_c, 9, 60, 0
2, 174360, Note_on_c, 9, 60, 29
2, 174479, Note_on_c, 9, 60, 0
2, 174480, Note_on_c, 9, 60, 56
2, 174719, Note_on_c, 9, 60, 0
2, 174720, Note_on_c, 9, 60, 49
2, 174839, Note_on_c, 9, 60, 0
2, 174840, Note_on_c, 9, 60, 43
2, 174959, Note_on_c, 9, 60, 0
2, 174960, Note_on_c, 9, 60, 56
2, 175199, Note_on_c, 9, 60, 0
2, 175200, Note_on_c, 9, 60, 85
2, 175319, Note_on_c, 9, 60, 0
2, 175320, Note_on_c, 9, 60, 56
2, 175439, Note_on_c, 9, 60, 0
2, 175440, Note_on_c, 9, 60, 14
2, 175559, Note_on_c, 9, 60, 0
2, 175560, Note_on_c, 9, 60, 49
2, 175679, Note_on_c, 9, 60, 0
2, 175680, Note_on_c, 9, 60, 85
2, 176159, Note_on_c, 9, 60, 0
2, 176880, Note_on_c, 9, 60, 51
2, 176999, Note_on_c, 9, 60, 0
2, 177000, Note_on_c, 9, 60, 80
2, 177119, Note_on_c, 9, 60, 0
2, 177120, Note_on_c, 9, 60, 51
2, 177239, Note_on_c, 9, 60, 0
2, 177240, Note_on_c, 9, 60, 51
2, 177359, Note_on_c, 9, 60, 0
2, 177360, Note_on_c, 9, 60, 38
2, 177599, Note_on_c, 9, 60, 0
2, 177840, Note_on_c, 9, 60, 56
2, 177959, Note_on_c, 9, 60, 0
2, 177960, Note_on_c, 9, 60, 49
2, 178079, Note_on_c, 9, 60, 0
2, 178080, Note_on_c, 9, 60, 74
2, 178199, Note_on_c, 9, 60, 0
2, 178200, Note_on_c, 9, 60, 29
2, 178319, Note_on_c, 9, 60, 0
2, 178320, Note_on_c, 9, 60, 56
2, 178559, Note_on_c, 9, 60, 0
2, 178560, Note_on_c, 9, 60, 49
2, 178679, Note_on_c, 9, 60, 0
2, 178680, Note_on_c, 9, 60, 43
2, 178799, Note_on_c, 9, 60, 0
2, 178800, Note_on_c, 9, 60, 56
2, 179039, Note_on_c, 9, 60, 0
2, 179040, Note_on_c, 9, 60, 85
2, 179159, Note_on_c, 9, 60, 0
2, 179160, Note_on_c, 9, 60, 56
2, 179279, Note_on_c, 9, 60, 0
2, 179280, Note_on_c, 9, 60, 14
2, 179399, Note_on_c, 9, 60, 0
2, 179400, Note_on_c, 9, 60, 49
2, 179519, Note_on_c, 9, 60, 0
2, 179520, Note_on_c, 9, 60, 85
2, 179999, Note_on_c, 9, 60, 0
2, 180720, Note_on_c, 9, 60, 51
2, 180839, Note_on_c, 9, 60, 0
2, 180840, Note_on_c, 9, 60, 80
2, 180959, Note_on_c, 9, 60, 0
2, 180960, Note_on_c, 9, 60, 51
2, 181079, Note_on_c, 9, 60, 0
2, 181080, Note_on_c, 9, 60, 51
2, 181199, Note_on_c, 9, 60, 0
2, 181200, Note_on_c, 9, 60, 38
2, 181439, Note_on_c, 9, 60, 0
2, 181680, Note_on_c, 9, 60, 56
2, 181799, Note_on_c, 9, 60, 0
2, 181800, Note_on_c, 9, 60, 49
2, 181919, Note_on_c, 9, 60, 0
2, 181920, Note_on_c, 9, 60, 74
2, 182039, Note_on_c, 9, 60, 0
2, 182040, Note_on_c, 9, 60, 29
2, 182159, Note_on_c, 9, 60, 0
2, 182160, Note_on_c, 9, 60, 56
2, 182399, Note_on_c, 9, 60, 0
2, 182400, Note_on_c, 9, 60, 49
2, 182519, Note_on_c, 9, 60, 0
2, 182520, Note_on_c, 9, 60, 43
2, 182639, Note_on_c, 9, 60, 0
2, 182640, Note_on_c, 9, 60, 56
2, 182879, Note_on_c, 9, 60, 0
2, 182880, Note_on_c, 9, 60, 85
2, 182999, Note_on_c, 9, 60, 0
2, 183000, Note_on_c, 9, 60, 56
2, 183119, Note_on_c, 9, 60, 0
2, 183120, Note_on_c, 9, 60, 14
2, 183239, Note_on_c, 9, 60, 0
2, 183240, Note_on_c, 9, 60, 49
2, 183359, Note_on_c, 9, 60, 0
2, 183360, Note_on_c, 9, 60, 85
2, 183839, Note_on_c, 9, 60, 0
2, 184560, Note_on_c, 9, 60, 51
2, 184679, Note_on_c, 9, 60, 0
2, 184680, Note_on_c, 9, 60, 80
2, 184799, Note_on_c, 9, 60, 0
2, 184800, Note_on_c, 9, 60, 51
2, 184919, Note_on_c, 9, 60, 0
2, 184920, Note_on_c, 9, 60, 51
2, 185039, Note_on_c, 9, 60, 0
2, 185040, Note_on_c, 9, 60, 38
2, 185279, Note_on_c, 9, 60, 0
2, 185520, Note_on_c, 9, 60, 56
2, 185639, Note_on_c, 9, 60, 0
2, 185640, Note_on_c, 9, 60, 49
2, 185759, Note_on_c, 9, 60, 0
2, 185760, Note_on_c, 9, 60, 74
2, 185879, Note_on_c, 9, 60, 0
2, 185880, Note_on_c, 9, 60, 29
2, 185999, Note_on_c, 9, 60, 0
2, 186000, Note_on_c, 9, 60, 56
2, 186239, Note_on_c, 9, 60, 0
2, 186240, Note_on_c, 9, 60, 49
2, 186359, Note_on_c, 9, 60, 0
2, 186360, Note_on_c, 9, 60, 43
2, 186479, Note_on_c, 9, 60, 0
2, 186480, Note_on_c, 9, 60, 56
2, 186719, Note_on_c, 9, 60, 0
2, 186720, Note_on_c, 9, 60, 85
2, 186839, Note_on_c, 9, 60, 0
2, 186840, Note_on_c, 9, 60, 56
2, 186959, Note_on_c, 9, 60, 0
2, 186960, Note_on_c, 9, 60, 14
2, 187079, Note_on_c, 9, 60, 0
2, 187080, Note_on_c, 9, 60, 49
2, 187199, Note_on_c, 9, 60, 0
2, 187200, Note_on_c, 9, 60, 85
2, 187679, Note_on_c, 9, 60, 0
2, 188400, Note_on_c, 9, 60, 51
2, 188519, Note_on_c, 9, 60, 0
2, 188520, Note_on_c, 9, 60, 80
2, 188639, Note_on_c, 9, 60, 0
2, 188640, Note_on_c, 9, 60, 51
2, 188759, Note_on_c, 9, 60, 0
2, 188760, Note_on_c, 9, 60, 51
2, 188879, Note_on_c, 9, 60, 0
2, 188880, Note_on_c, 9, 60, 38
2, 189119, Note_on_c, 9, 60, 0
2, 189360, Note_on_c, 9, 60, 56
2, 189479, Note_on_c, 9, 60, 0
2, 189480, Note_on_c, 9, 60, 49
2, 189599, Note_on_c, 9, 60, 0
2, 189600, Note_on_c, 9, 60, 74
2, 189719, Note_on_c, 9, 60, 0
2, 189720, Note_on_c, 9, 60, 29
2, 189839, Note_on_c, 9, 60, 0
2, 189840, Note_on_c, 9, 60, 56
2, 190079, Note_on_c, 9, 60, 0
2, 190080, Note_on_c, 9, 60, 49
2, 190199, Note_on_c, 9, 60, 0
2, 190200, Note_on_c, 9, 60, 43
2, 190319, Note_on_c, 9, 60, 0
2, 190320, Note_on_c, 9, 60, 56
2, 190559, Note_on_c, 9, 60, 0
2, 190560, Note_on_c, 9, 60, 85
2, 190679, Note_on_c, 9, 60, 0
2, 190680, Note_on_c, 9, 60, 56
2, 190799, Note_on_c, 9, 60, 0
2, 190800, Note_on_c, 9, 60, 14
2, 190919, Note_on_c, 9, 60, 0
2, 190920, Note_on_c, 9, 60, 49
2, 191039, Note_on_c, 9, 60, 0
2, 191040, Note_on_c, 9, 60, 85
2, 191519, Note_on_c, 9, 60, 0
2, 192240, Note_on_c, 9, 60, 51
2, 192359, Note_on_c, 9, 60, 0
2, 192360, Note_on_c, 9, 60, 80
2, 192479, Note_on_c, 9, 60, 0
2, 192480, Note_on_c, 9, 60, 51
2, 192599, Note_on_c, 9, 60, 0
2, 192600, Note_on_c, 9, 60, 51
2, 192719, Note_on_c, 9, 60, 0
2, 192720, Note_on_c, 9, 60, 38
2, 192959, Note_on_c, 9, 60, 0
2, 193200, Note_on_c, 9, 60, 56
2, 193319, Note_on_c, 9, 60, 0
2, 193320, Note_on_c, 9, 60, 49
2, 193439, Note_on_c, 9, 60, 0
2, 193440, Note_on_c, 9, 60, 74
2, 193559, Note_on_c, 9, 60, 0
2, 193560, Note_on_c, 9, 60, 29
2, 193679, Note_on_c, 9, 60, 0
2, 193680, Note_on_c, 9, 60, 56
2, 193919, Note_on_c, 9, 60, 0
2, 193920, Note_on_c, 9, 60, 49
2, 194039, Note_on_c, 9, 60, 0
2, 194040, Note_on_c, 9, 60, 43
2, 194159, Note_on_c, 9, 60, 0
2, 194160, Note_on_c, 9, 60, 56
2, 194399, Note_on_c, 9, 60, 0
2, 194400, Note_on_c, 9, 60, 85
2, 194519, Note_on_c, 9, 60, 0
2, 194520, Note_on_c, 9, 60, 56
2, 194639, Note_on_c, 9, 60, 0
2, 194640, Note_on_c, 9, 60, 14
2, 194759, Note_on_c, 9, 60, 0
2, 194760, Note_on_c, 9, 60, 49
2, 194879, Note_on_c, 9, 60, 0
2, 194880, Note_on_c, 9, 60, 85
2, 195359, Note_on_c, 9, 60, 0
2, 196080, Note_on_c, 9, 60, 51
2, 196199, Note_on_c, 9, 60, 0
2, 196200, Note_on_c, 9, 60, 80
2, 196319, Note_on_c, 9, 60, 0
2, 196320, Note_on_c, 9, 60, 51
2, 196439, Note_on_c, 9, 60, 0
2, 196440, Note_on_c, 9, 60, 51
2, 196559, Note_on_c, 9, 60, 0
2, 196560, Note_on_c, 9, 60, 38
2, 196799, Note_on_c, 9, 60, 0
2, 197040, Note_on_c, 9, 60, 56
2, 197159, Note_on_c, 9, 60, 0
2, 197160, Note_on_c, 9, 60, 49
2, 197279, Note_on_c, 9, 60, 0
2, 197280, Note_on_c, 9, 60, 74
2, 197399, Note_on_c, 9, 60, 0
2, 197400, Note_on_c, 9, 60, 29
2, 197519, Note_on_c, 9, 60, 0
2, 197520, Note_on_c, 9, 60, 56
2, 197759, Note_on_c, 9, 60, 0
2, 197760, Note_on_c, 9, 60, 49
2, 197879, Note_on_c, 9, 60, 0
2, 197880, Note_on_c, 9, 60, 43
2, 197999, Note_on_c, 9, 60, 0
2, 198000, Note_on_c, 9, 60, 56
2, 198239, Note_on_c, 9, 60, 0
2, 198240, Note_on_c, 9, 60, 85
2, 198359, Note_on_c, 9, 60, 0
2, 198360, Note_on_c, 9, 60, 56
2, 198479, Note_on_c, 9, 60, 0
2, 198480, Note_on_c, 9, 60, 14
2, 198599, Note_on_c, 9, 60, 0
2, 198600, Note_on_c, 9, 60, 49
2, 198719, Note_on_c, 9, 60, 0
2, 198720, Note_on_c, 9, 60, 85
2, 199199, Note_on_c, 9, 60, 0
2, 199920, Note_on_c, 9, 60, 51
2, 200039, Note_on_c, 9, 60, 0
2, 200040, Note_on_c, 9, 60, 80
2, 200159, Note_on_c, 9, 60, 0
2, 200160, Note_on_c, 9, 60, 51
2, 200279, Note_on_c, 9, 60, 0
2, 200280, Note_on_c, 9, 60, 51
2, 200399, Note_on_c, 9, 60, 0
2, 200400, Note_on_c, 9, 60, 38
2, 200639, Note_on_c, 9, 60, 0
2, 200880, Note_on_c, 9, 60, 56
2, 200999, Note_on_c, 9, 60, 0
2, 201000, Note_on_c, 9, 60, 49
2, 201119, Note_on_c, 9, 60, 0
2, 201120, Note_on_c, 9, 60, 74
2, 201239, Note_on_c, 9, 60, 0
2, 201240, Note_on_c, 9, 60, 29
2, 201359, Note_on_c, 9, 60, 0
2, 201360, Note_on_c, 9, 60, 56
2, 201599, Note_on_c, 9, 60, 0
2, 201600, Note_on_c, 9, 60, 49
2, 201719, Note_on_c, 9, 60, 0
2, 201720, Note_on_c, 9, 60, 43
2, 201839, Note_on_c, 9, 60, 0
2, 201840, Note_on_c, 9, 60, 56
2, 202079, Note_on_c, 9, 60, 0
2, 202080, Note_on_c, 9, 60, 85
2, 202199, Note_on_c, 9, 60, 0
2, 202200, Note_on_c, 9, 60, 56
2, 202319, Note_on_c, 9, 60, 0
2, 202320, Note_on_c, 9, 60, 14
2, 202439, Note_on_c, 9, 60, 0
2, 202440, Note_on_c, 9, 60, 49
2, 202559, Note_on_c, 9, 60, 0
2, 202560, Note_on_c, 9, 60, 85
2, 203039, Note_on_c, 9, 60, 0
2, 203760, Note_on_c, 9, 60, 51
2, 203879, Note_on_c, 9, 60, 0
2, 203880, Note_on_c, 9, 60, 80
2, 203999, Note_on_c, 9, 60, 0
2, 204000, Note_on_c, 9, 60, 51
2, 204119, Note_on_c, 9, 60, 0
2, 204120, Note_on_c, 9, 60, 51
2, 204239, Note_on_c, 9, 60, 0
2, 204240, Note_on_c, 9, 60, 38
2, 204479, Note_on_c, 9, 60, 0
2, 204720, Note_on_c, 9, 60, 56
2, 204839, Note_on_c, 9, 60, 0
2, 204840, Note_on_c, 9, 60, 49
2, 204959, Note_on_c, 9, 60, 0
2, 204960, Note_on_c, 9, 60, 74
2, 205079, Note_on_c, 9, 60, 0
2, 205080, Note_on_c, 9, 60, 29
2, 205199, Note_on_c, 9, 60, 0
2, 205200, Note_on_c, 9, 60, 56
2, 205439, Note_on_c, 9, 60, 0
2, 205440, Note_on_c, 9, 60, 49
2, 205559, Note_on_c, 9, 60, 0
2, 205560, Note_on_c, 9, 60, 43
2, 205679, Note_on_c, 9, 60, 0
2, 205680, Note_on_c, 9, 60, 56
2, 205919, Note_on_c, 9, 60, 0
2, 205920, Note_on_c, 9, 60, 85
2, 206039, Note_on_c, 9, 60, 0
2, 206040, Note_on_c, 9, 60, 56
2, 206159, Note_on_c, 9, 60, 0
2, 206160, Note_on_c, 9, 60, 14
2, 206279, Note_on_c, 9, 60, 0
2, 206280, Note_on_c, 9, 60, 49
2, 206399, Note_on_c, 9, 60, 0
2, 206400, Note_on_c, 9, 60, 85
2, 206879, Note_on_c, 9, 60, 0
2, 207600, Note_on_c, 9, 60, 51
2, 207719, Note_on_c, 9, 60, 0
2, 207720, Note_on_c, 9, 60, 80
2, 207839, Note_on_c, 9, 60, 0
2, 207840, Note_on_c, 9, 60, 51
2, 207959, Note_on_c, 9, 60, 0
2, 207960, Note_on_c, 9, 60, 51
2, 208079, Note_on_c, 9, 60, 0
2, 208080, Note_on_c, 9, 60, 38
2, 208319, Note_on_c, 9, 60, 0
2, 208560, Note_on_c, 9, 60, 56
2, 208679, Note_on_c, 9, 60, 0
2, 208680, Note_on_c, 9, 60, 49
2, 208799, Note_on_c, 9, 60, 0
2, 208800, Note_on_c, 9, 60, 74
2, 208919, Note_on_c, 9, 60, 0
2, 208920, Note_on_c, 9, 60, 29
2, 209039, Note_on_c, 9, 60, 0
2, 209040, Note_on_c, 9, 60, 56
2, 209279, Note_on_c, 9, 60, 0
2, 209280, Note_on_c, 9, 60, 49
2, 209399, Note_on_c, 9, 60, 0
2, 209400, Note_on_c, 9, 60, 43
2, 209519, Note_on_c, 9, 60, 0
2, 209520, Note_on_c, 9, 60, 56
2, 209759, Note_on_c, 9, 60, 0
2, 209760, Note_on_c, 9, 60, 85
2, 209879, Note_on_c, 9, 60, 0
2, 209880, Note_on_c, 9, 60, 56
2, 209999, Note_on_c, 9, 60, 0
2, 210000, Note_on_c, 9, 60, 14
2, 210119, Note_on_c, 9, 60, 0
2, 210120, Note_on_c, 9, 60, 49
2, 210239, Note_on_c, 9, 60, 0
2, 210240, Note_on_c, 9, 60, 85
2, 210719, Note_on_c, 9, 60, 0
2, 211440, Note_on_c, 9, 60, 51
2, 211559, Note_on_c, 9, 60, 0
2, 211560, Note_on_c, 9, 60, 80
2, 211679, Note_on_c, 9, 60, 0
2, 211680, Note_on_c, 9, 60, 51
2, 211799, Note_on_c, 9, 60, 0
2, 211800, Note_on_c, 9, 60, 51
2, 211919, Note_on_c, 9, 60, 0
2, 211920, Note_on_c, 9, 60, 38
2, 212159, Note_on_c, 9, 60, 0
2, 212400, Note_on_c, 9, 60, 56
2, 212519, Note_on_c, 9, 60, 0
2, 212520, Note_on_c, 9, 60, 49
2, 212639, Note_on_c, 9, 60, 0
2, 212640, Note_on_c, 9, 60, 74
2, 212759, Note_on_c, 9, 60, 0
2, 212760, Note_on_c, 9, 60, 29
2, 212879, Note_on_c, 9, 60, 0
2, 212880, Note_on_c, 9, 60, 56
2, 213119, Note_on_c, 9, 60, 0
2, 213120, Note_on_c, 9, 60, 49
2, 213239, Note_on_c, 9, 60, 0
2, 213240, Note_on_c, 9, 60, 43
2, 213359, Note_on_c, 9, 60, 0
2, 213360, Note_on_c, 9, 60, 56
2, 213599, Note_on_c, 9, 60, 0
2, 213600, Note_on_c, 9, 60, 85
2, 213719, Note_on_c, 9, 60, 0
2, 213720, Note_on_c, 9, 60, 56
2, 213839, Note_on_c, 9, 60, 0
2, 213840, Note_on_c, 9, 60, 14
2, 213959, Note_on_c, 9, 60, 0
2, 213960, Note_on_c, 9, 60, 49
2, 214079, Note_on_c, 9, 60, 0
2, 214080, Note_on_c, 9, 60, 85
2, 214559, Note_on_c, 9, 60, 0
2, 215280, Note_on_c, 9, 60, 51
2, 215399, Note_on_c, 9, 60, 0
2, 215400, Note_on_c, 9, 60, 80
2, 215519, Note_on_c, 9, 60, 0
2, 215520, Note_on_c, 9, 60, 51
2, 215639, Note_on_c, 9, 60, 0
2, 215640, Note_on_c, 9, 60, 51
2, 215759, Note_on_c, 9, 60, 0
2, 215760, Note_on_c, 9, 60, 38
2, 215999, Note_on_c, 9, 60, 0
2, 216240, Note_on_c, 9, 60, 56
2, 216359, Note_on_c, 9, 60, 0
2, 216360, Note_on_c, 9, 60, 49
2, 216479, Note_on_c, 9, 60, 0
2, 216480, Note_on_c, 9, 60, 74
2, 216599, Note_on_c, 9, 60, 0
2, 216600, Note_on_c, 9, 60, 29
2, 216719, Note_on_c, 9, 60, 0
2, 216720, Note_on_c, 9, 60, 56
2, 216959, Note_on_c, 9, 60, 0
2, 216960, Note_on_c, 9, 60, 49
2, 217079, Note_on_c, 9, 60, 0
2, 217080, Note_on_c, 9, 60, 43
2, 217199, Note_on_c, 9, 60, 0
2, 217200, Note_on_c, 9, 60, 56
2, 217439, Note_on_c, 9, 60, 0
2, 217440, Note_on_c, 9, 60, 85
2, 217559, Note_on_c, 9, 60, 0
2, 217560, Note_on_c, 9, 60, 56
2, 217679, Note_on_c, 9, 60, 0
2, 217680, Note_on_c, 9, 60, 14
2, 217799, Note_on_c, 9, 60, 0
2, 217800, Note_on_c, 9, 60, 49
2, 217919, Note_on_c, 9, 60, 0
2, 217920, Note_on_c, 9, 60, 85
2, 218399, Note_on_c, 9, 60, 0
2, 219120, Note_on_c, 9, 60, 51
2, 219239, Note_on_c, 9, 60, 0
2, 219240, Note_on_c, 9, 60, 80
2, 219359, Note_on_c, 9, 60, 0
2, 219360, Note_on_c, 9, 60, 51
2, 219479, Note_on_c, 9, 60, 0
2, 219480, Note_on_c, 9, 60, 51
2, 219599, Note_on_c, 9, 60, 0
2, 219600, Note_on_c, 9, 60, 38
2, 219839, Note_on_c, 9, 60, 0
2, 220080, Note_on_c, 9, 60, 56
2, 220199, Note_on_c, 9, 60, 0
2, 220200, Note_on_c, 9, 60, 49
2, 220319, Note_on_c, 9, 60, 0
2, 220320, Note_on_c, 9, 60, 74
2, 220439, Note_on_c, 9, 60, 0
2, 220440, Note_on_c, 9, 60, 29
2, 220559, Note_on_c, 9, 60, 0
2, 220560, Note_on_c, 9, 60, 56
2, 220799, Note_on_c, 9, 60, 0
2, 220800, Note_on_c, 9, 60, 49
2, 220919, Note_on_c, 9, 60, 0
2, 220920, Note_on_c, 9, 60, 43
2, 221039, Note_on_c, 9, 60, 0
2, 221040, Note_on_c, 9, 60, 56
2, 221279, Note_on_c, 9, 60, 0
2, 221280, Note_on_c, 9, 60, 85
2, 221399, Note_on_c, 9, 60, 0
2, 221400, Note_on_c, 9, 60, 56
2, 221519, Note_on_c, 9, 60, 0
2, 221520, Note_on_c, 9, 60, 14
2, 221639, Note_on_c, 9, 60, 0
2, 221640, Note_on_c, 9, 60, 49
2, 221759, Note_on_c, 9, 60, 0
2, 221760, Note_on_c, 9, 60, 85
2, 222239, Note_on_c, 9, 60, 0
2, 222960, Note_on_c, 9, 60, 51
2, 223079, Note_on_c, 9, 60, 0
2, 223080, Note_on_c, 9, 60, 80
2, 223199, Note_on_c, 9, 60, 0
2, 223200, Note_on_c, 9, 60, 51
2, 223319, Note_on_c, 9, 60, 0
2, 223320, Note_on_c, 9, 60, 51
2, 223439, Note_on_c, 9, 60, 0
2, 223440, Note_on_c, 9, 60, 38
2, 223679, Note_on_c, 9, 60, 0
2, 223920, Note_on_c, 9, 60, 56
2, 224039, Note_on_c, 9, 60, 0
2, 224040, Note_on_c, 9, 60, 49
2, 224159, Note_on_c, 9, 60, 0
2, 224160, Note_on_c, 9, 60, 74
2, 224279, Note_on_c, 9, 60, 0
2, 224280, Note_on_c, 9, 60, 29
2, 224399, Note_on_c, 9, 60, 0
2, 224400, Note_on_c, 9, 60, 56
2, 224639, Note_on_c, 9, 60, 0
2, 224640, Note_on_c, 9, 60, 49
2, 224759, Note_on_c, 9, 60, 0
2, 224760, Note_on_c, 9, 60, 43
2, 224879, Note_on_c, 9, 60, 0
2, 224880, Note_on_c, 9, 60, 56
2, 225119, Note_on_c, 9, 60, 0
2, 225120, Note_on_c, 9, 60, 85
2, 225239, Note_on_c, 9, 60, 0
2, 225240, Note_on_c, 9, 60, 56
2, 225359, Note_on_c, 9, 60, 0
2, 225360, Note_on_c, 9, 60, 14
2, 225479, Note_on_c, 9, 60, 0
2, 225480, Note_on_c, 9, 60, 49
2, 225599, Note_on_c, 9, 60, 0
2, 225600, Note_on_c, 9, 60, 85
2, 226079, Note_on_c, 9, 60, 0
2, 226080, End_track
0, 0, End_of_file
