0, 0, Header, 1, 1, 480
1, 0, Start_track
1, 0, Time_signature, 4, 2, 24, 8
1, 0, Key_signature, 0, "major"
1, 0, Tempo, 545455
1, 0, Control_c, 9, 121, 0
1, 0, Program_c, 9, 0
1, 0, Control_c, 9, 7, 95
1, 0, Control_c, 9, 10, 64
1, 0, Control_c, 9, 91, 0
1, 0, Control_c, 9, 93, 0
1, 0, MIDI_port, 0
1, 1920, Note_on_c, 9, 42, 70
1, 2399, Note_on_c, 9, 42, 0
1, 2400, Note_on_c, 9, 42, 76
1, 2879, Note_on_c, 9, 42, 0
1, 2880, Note_on_c, 9, 42, 82
1, 3359, Note_on_c, 9, 42, 0
1, 3360, Note_on_c, 9, 42, 88
1, 3839, Note_on_c, 9, 42, 0
1, 3840, Note_on_c, 9, 54, 105
1, 3840, Note_on_c, 9, 56, 124
1, 3840, Note_on_c, 9, 42, 114
1, 4079, Note_on_c, 9, 54, 0
1, 4079, Note_on_c, 9, 56, 0
1, 4079, Note_on_c, 9, 42, 0
1, 4080, Note_on_c, 9, 42, 98
1, 4199, Note_on_c, 9, 42, 0
1, 4200, Note_on_c, 9, 42, 105
1, 4319, Note_on_c, 9, 42, 0
1, 4320, Note_on_c, 9, 54, 103
1, 4320, Note_on_c, 9, 56, 121
1, 4320, Note_on_c, 9, 42, 114
1, 4559, Note_on_c, 9, 54, 0
1, 4559, Note_on_c, 9, 56, 0
1, 4559, Note_on_c, 9, 42, 0
1, 4560, Note_on_c, 9, 54, 96
1, 4560, Note_on_c, 9, 42, 107
1, 4799, Note_on_c, 9, 54, 0
1, 4799, Note_on_c, 9, 42, 0
1, 4800, Note_on_c, 9, 54, 100
1, 4800, Note_on_c, 9, 56, 121
1, 4800, Note_on_c, 9, 42, 115
1, 5039, Note_on_c, 9, 54, 0
1, 5039, Note_on_c, 9, 56, 0
1, 5039, Note_on_c, 9, 42, 0
1, 5040, Note_on_c, 9, 70, 113
1, 5040, Note_on_c, 9, 42, 102
1, 5279, Note_on_c, 9, 70, 0
1, 5279, Note_on_c, 9, 42, 0
1, 5280, Note_on_c, 9, 54, 106
1, 5280, Note_on_c, 9, 56, 121
1, 5280, Note_on_c, 9, 42, 115
1, 5519, Note_on_c, 9, 54, 0
1, 5519, Note_on_c, 9, 56, 0
1, 5519, Note_on_c, 9, 42, 0
1, 5520, Note_on_c, 9, 69, 114
1, 5520, Note_on_c, 9, 42, 102
1, 5759, Note_on_c, 9, 69, 0
1, 5759, Note_on_c, 9, 42, 0
1, 5760, Note_on_c, 9, 54, 104
1, 5760, Note_on_c, 9, 56, 124
1, 5760, Note_on_c, 9, 69, 124
1, 5760, Note_on_c, 9, 42, 117
1, 5999, Note_on_c, 9, 54, 0
1, 5999, Note_on_c, 9, 56, 0
1, 5999, Note_on_c, 9, 69, 0
1, 5999, Note_on_c, 9, 42, 0
1, 6000, Note_on_c, 9, 42, 108
1, 6119, Note_on_c, 9, 42, 0
1, 6120, Note_on_c, 9, 42, 106
1, 6239, Note_on_c, 9, 42, 0
1, 6240, Note_on_c, 9, 54, 106
1, 6240, Note_on_c, 9, 56, 121
1, 6240, Note_on_c, 9, 42, 113
1, 6479, Note_on_c, 9, 54, 0
1, 6479, Note_on_c, 9, 56, 0
1, 6479, Note_on_c, 9, 42, 0
1, 6480, Note_on_c, 9, 54, 97
1, 6480, Note_on_c, 9, 42, 106
1, 6719, Note_on_c, 9, 54, 0
1, 6719, Note_on_c, 9, 42, 0
1, 6720, Note_on_c, 9, 54, 100
1, 6720, Note_on_c, 9, 56, 121
1, 6720, Note_on_c, 9, 42, 108
1, 6959, Note_on_c, 9, 54, 0
1, 6959, Note_on_c, 9, 56, 0
1, 6959, Note_on_c, 9, 42, 0
1, 6960, Note_on_c, 9, 70, 125
1, 6960, Note_on_c, 9, 42, 105
1, 7199, Note_on_c, 9, 70, 0
1, 7199, Note_on_c, 9, 42, 0
1, 7200, Note_on_c, 9, 54, 104
1, 7200, Note_on_c, 9, 56, 121
1, 7200, Note_on_c, 9, 42, 110
1, 7439, Note_on_c, 9, 54, 0
1, 7439, Note_on_c, 9, 56, 0
1, 7439, Note_on_c, 9, 42, 0
1, 7440, Note_on_c, 9, 69, 110
1, 7440, Note_on_c, 9, 42, 96
1, 7679, Note_on_c, 9, 69, 0
1, 7679, Note_on_c, 9, 42, 0
1, 7680, Note_on_c, 9, 54, 105
1, 7680, Note_on_c, 9, 56, 124
1, 7680, Note_on_c, 9, 69, 115
1, 7680, Note_on_c, 9, 42, 111
1, 7919, Note_on_c, 9, 54, 0
1, 7919, Note_on_c, 9, 56, 0
1, 7919, Note_on_c, 9, 69, 0
1, 7919, Note_on_c, 9, 42, 0
1, 7920, Note_on_c, 9, 42, 106
1, 8039, Note_on_c, 9, 42, 0
1, 8040, Note_on_c, 9, 42, 104
1, 8159, Note_on_c, 9, 42, 0
1, 8160, Note_on_c, 9, 54, 91
1, 8160, Note_on_c, 9, 56, 121
1, 8160, Note_on_c, 9, 42, 110
1, 8399, Note_on_c, 9, 54, 0
1, 8399, Note_on_c, 9, 56, 0
1, 8399, Note_on_c, 9, 42, 0
1, 8400, Note_on_c, 9, 54, 95
1, 8400, Note_on_c, 9, 42, 107
1, 8639, Note_on_c, 9, 54, 0
1, 8639, Note_on_c, 9, 42, 0
1, 8640, Note_on_c, 9, 54, 104
1, 8640, Note_on_c, 9, 56, 121
1, 8640, Note_on_c, 9, 42, 109
1, 8879, Note_on_c, 9, 54, 0
1, 8879, Note_on_c, 9, 56, 0
1, 8879, Note_on_c, 9, 42, 0
1, 8880, Note_on_c, 9, 70, 113
1, 8880, Note_on_c, 9, 42, 100
1, 9119, Note_on_c, 9, 70, 0
1, 9119, Note_on_c, 9, 42, 0
1, 9120, Note_on_c, 9, 54, 97
1, 9120, Note_on_c, 9, 56, 121
1, 9120, Note_on_c, 9, 42, 111
1, 9359, Note_on_c, 9, 54, 0
1, 9359, Note_on_c, 9, 56, 0
1, 9359, Note_on_c, 9, 42, 0
1, 9360, Note_on_c, 9, 69, 103
1, 9360, Note_on_c, 9, 42, 93
1, 9599, Note_on_c, 9, 69, 0
1, 9599, Note_on_c, 9, 42, 0
1, 9600, Note_on_c, 9, 54, 105
1, 9600, Note_on_c, 9, 56, 124
1, 9600, Note_on_c, 9, 69, 122
1, 9600, Note_on_c, 9, 42, 110
1, 9839, Note_on_c, 9, 54, 0
1, 9839, Note_on_c, 9, 56, 0
1, 9839, Note_on_c, 9, 69, 0
1, 9839, Note_on_c, 9, 42, 0
1, 9840, Note_on_c, 9, 42, 103
1, 9959, Note_on_c, 9, 42, 0
1, 9960, Note_on_c, 9, 42, 105
1, 10079, Note_on_c, 9, 42, 0
1, 10080, Note_on_c, 9, 54, 87
1, 10080, Note_on_c, 9, 56, 121
1, 10080, Note_on_c, 9, 42, 110
1, 10319, Note_on_c, 9, 54, 0
1, 10319, Note_on_c, 9, 56, 0
1, 10319, Note_on_c, 9, 42, 0
1, 10320, Note_on_c, 9, 54, 91
1, 10320, Note_on_c, 9, 42, 104
1, 10559, Note_on_c, 9, 54, 0
1, 10559, Note_on_c, 9, 42, 0
1, 10560, Note_on_c, 9, 54, 101
1, 10560, Note_on_c, 9, 56, 121
1, 10560, Note_on_c, 9, 42, 107
1, 10799, Note_on_c, 9, 54, 0
1, 10799, Note_on_c, 9, 56, 0
1, 10799, Note_on_c, 9, 42, 0
1, 10800, Note_on_c, 9, 70, 119
1, 10800, Note_on_c, 9, 42, 102
1, 11039, Note_on_c, 9, 70, 0
1, 11039, Note_on_c, 9, 42, 0
1, 11040, Note_on_c, 9, 54, 103
1, 11040, Note_on_c, 9, 56, 121
1, 11040, Note_on_c, 9, 42, 111
1, 11279, Note_on_c, 9, 54, 0
1, 11279, Note_on_c, 9, 56, 0
1, 11279, Note_on_c, 9, 42, 0
1, 11280, Note_on_c, 9, 69, 117
1, 11280, Note_on_c, 9, 42, 100
1, 11519, Note_on_c, 9, 69, 0
1, 11519, Note_on_c, 9, 42, 0
1, 11520, Note_on_c, 9, 54, 103
1, 11520, Note_on_c, 9, 56, 124
1, 11520, Note_on_c, 9, 69, 125
1, 11520, Note_on_c, 9, 42, 114
1, 11759, Note_on_c, 9, 54, 0
1, 11759, Note_on_c, 9, 56, 0
1, 11759, Note_on_c, 9, 69, 0
1, 11759, Note_on_c, 9, 42, 0
1, 11760, Note_on_c, 9, 42, 104
1, 11879, Note_on_c, 9, 42, 0
1, 11880, Note_on_c, 9, 42, 103
1, 11999, Note_on_c, 9, 42, 0
1, 12000, Note_on_c, 9, 54, 97
1, 12000, Note_on_c, 9, 56, 121
1, 12000, Note_on_c, 9, 42, 114
1, 12239, Note_on_c, 9, 54, 0
1, 12239, Note_on_c, 9, 56, 0
1, 12239, Note_on_c, 9, 42, 0
1, 12240, Note_on_c, 9, 54, 92
1, 12240, Note_on_c, 9, 42, 109
1, 12479, Note_on_c, 9, 54, 0
1, 12479, Note_on_c, 9, 42, 0
1, 12480, Note_on_c, 9, 54, 101
1, 12480, Note_on_c, 9, 56, 121
1, 12480, Note_on_c, 9, 42, 107
1, 12719, Note_on_c, 9, 54, 0
1, 12719, Note_on_c, 9, 56, 0
1, 12719, Note_on_c, 9, 42, 0
1, 12720, Note_on_c, 9, 70, 125
1, 12720, Note_on_c, 9, 42, 98
1, 12959, Note_on_c, 9, 70, 0
1, 12959, Note_on_c, 9, 42, 0
1, 12960, Note_on_c, 9, 54, 106
1, 12960, Note_on_c, 9, 56, 121
1, 12960, Note_on_c, 9, 42, 105
1, 13199, Note_on_c, 9, 54, 0
1, 13199, Note_on_c, 9, 56, 0
1, 13199, Note_on_c, 9, 42, 0
1, 13200, Note_on_c, 9, 69, 115
1, 13200, Note_on_c, 9, 42, 100
1, 13439, Note_on_c, 9, 69, 0
1, 13439, Note_on_c, 9, 42, 0
1, 13440, Note_on_c, 9, 54, 106
1, 13440, Note_on_c, 9, 56, 124
1, 13440, Note_on_c, 9, 69, 125
1, 13440, Note_on_c, 9, 42, 108
1, 13679, Note_on_c, 9, 54, 0
1, 13679, Note_on_c, 9, 56, 0
1, 13679, Note_on_c, 9, 69, 0
1, 13679, Note_on_c, 9, 42, 0
1, 13680, Note_on_c, 9, 42, 106
1, 13799, Note_on_c, 9, 42, 0
1, 13800, Note_on_c, 9, 42, 107
1, 13919, Note_on_c, 9, 42, 0
1, 13920, Note_on_c, 9, 54, 100
1, 13920, Note_on_c, 9, 56, 121
1, 13920, Note_on_c, 9, 42, 110
1, 14159, Note_on_c, 9, 54, 0
1, 14159, Note_on_c, 9, 56, 0
1, 14159, Note_on_c, 9, 42, 0
1, 14160, Note_on_c, 9, 54, 93
1, 14160, Note_on_c, 9, 42, 108
1, 14399, Note_on_c, 9, 54, 0
1, 14399, Note_on_c, 9, 42, 0
1, 14400, Note_on_c, 9, 54, 116
1, 14400, Note_on_c, 9, 56, 121
1, 14400, Note_on_c, 9, 42, 115
1, 14639, Note_on_c, 9, 54, 0
1, 14639, Note_on_c, 9, 56, 0
1, 14639, Note_on_c, 9, 42, 0
1, 14640, Note_on_c, 9, 70, 125
1, 14640, Note_on_c, 9, 42, 108
1, 14879, Note_on_c, 9, 70, 0
1, 14879, Note_on_c, 9, 42, 0
1, 14880, Note_on_c, 9, 54, 105
1, 14880, Note_on_c, 9, 56, 121
1, 14880, Note_on_c, 9, 42, 110
1, 15119, Note_on_c, 9, 54, 0
1, 15119, Note_on_c, 9, 56, 0
1, 15119, Note_on_c, 9, 42, 0
1, 15120, Note_on_c, 9, 69, 105
1, 15120, Note_on_c, 9, 42, 105
1, 15359, Note_on_c, 9, 69, 0
1, 15359, Note_on_c, 9, 42, 0
1, 15360, Note_on_c, 9, 54, 106
1, 15360, Note_on_c, 9, 56, 124
1, 15360, Note_on_c, 9, 69, 125
1, 15360, Note_on_c, 9, 42, 111
1, 15599, Note_on_c, 9, 54, 0
1, 15599, Note_on_c, 9, 56, 0
1, 15599, Note_on_c, 9, 69, 0
1, 15599, Note_on_c, 9, 42, 0
1, 15600, Note_on_c, 9, 42, 113
1, 15719, Note_on_c, 9, 42, 0
1, 15720, Note_on_c, 9, 42, 107
1, 15839, Note_on_c, 9, 42, 0
1, 15840, Note_on_c, 9, 54, 92
1, 15840, Note_on_c, 9, 56, 121
1, 15840, Note_on_c, 9, 42, 110
1, 16079, Note_on_c, 9, 54, 0
1, 16079, Note_on_c, 9, 56, 0
1, 16079, Note_on_c, 9, 42, 0
1, 16080, Note_on_c, 9, 54, 91
1, 16080, Note_on_c, 9, 42, 107
1, 16319, Note_on_c, 9, 54, 0
1, 16319, Note_on_c, 9, 42, 0
1, 16320, Note_on_c, 9, 54, 106
1, 16320, Note_on_c, 9, 56, 121
1, 16320, Note_on_c, 9, 42, 107
1, 16559, Note_on_c, 9, 54, 0
1, 16559, Note_on_c, 9, 56, 0
1, 16559, Note_on_c, 9, 42, 0
1, 16560, Note_on_c, 9, 70, 112
1, 16560, Note_on_c, 9, 42, 99
1, 16799, Note_on_c, 9, 70, 0
1, 16799, Note_on_c, 9, 42, 0
1, 16800, Note_on_c, 9, 54, 103
1, 16800, Note_on_c, 9, 56, 121
1, 16800, Note_on_c, 9, 42, 113
1, 17039, Note_on_c, 9, 54, 0
1, 17039, Note_on_c, 9, 56, 0
1, 17039, Note_on_c, 9, 42, 0
1, 17040, Note_on_c, 9, 69, 107
1, 17040, Note_on_c, 9, 42, 108
1, 17279, Note_on_c, 9, 69, 0
1, 17279, Note_on_c, 9, 42, 0
1, 17280, Note_on_c, 9, 54, 104
1, 17280, Note_on_c, 9, 56, 124
1, 17280, Note_on_c, 9, 69, 124
1, 17280, Note_on_c, 9, 42, 113
1, 17519, Note_on_c, 9, 54, 0
1, 17519, Note_on_c, 9, 56, 0
1, 17519, Note_on_c, 9, 69, 0
1, 17519, Note_on_c, 9, 42, 0
1, 17520, Note_on_c, 9, 42, 108
1, 17639, Note_on_c, 9, 42, 0
1, 17640, Note_on_c, 9, 42, 110
1, 17759, Note_on_c, 9, 42, 0
1, 17760, Note_on_c, 9, 54, 99
1, 17760, Note_on_c, 9, 56, 121
1, 17760, Note_on_c, 9, 42, 114
1, 17999, Note_on_c, 9, 54, 0
1, 17999, Note_on_c, 9, 56, 0
1, 17999, Note_on_c, 9, 42, 0
1, 18000, Note_on_c, 9, 54, 94
1, 18000, Note_on_c, 9, 42, 114
1, 18239, Note_on_c, 9, 54, 0
1, 18239, Note_on_c, 9, 42, 0
1, 18240, Note_on_c, 9, 54, 103
1, 18240, Note_on_c, 9, 56, 121
1, 18240, Note_on_c, 9, 42, 108
1, 18479, Note_on_c, 9, 54, 0
1, 18479, Note_on_c, 9, 56, 0
1, 18479, Note_on_c, 9, 42, 0
1, 18480, Note_on_c, 9, 70, 109
1, 18480, Note_on_c, 9, 42, 107
1, 18719, Note_on_c, 9, 70, 0
1, 18719, Note_on_c, 9, 42, 0
1, 18720, Note_on_c, 9, 54, 105
1, 18720, Note_on_c, 9, 56, 121
1, 18720, Note_on_c, 9, 42, 110
1, 18959, Note_on_c, 9, 54, 0
1, 18959, Note_on_c, 9, 56, 0
1, 18959, Note_on_c, 9, 42, 0
1, 18960, Note_on_c, 9, 69, 101
1, 18960, Note_on_c, 9, 44, 121
1, 19199, Note_on_c, 9, 69, 0
1, 19199, Note_on_c, 9, 44, 0
1, 19200, Note_on_c, 9, 54, 105
1, 19200, Note_on_c, 9, 56, 124
1, 19200, Note_on_c, 9, 69, 124
1, 19200, Note_on_c, 9, 42, 115
1, 19439, Note_on_c, 9, 54, 0
1, 19439, Note_on_c, 9, 56, 0
1, 19439, Note_on_c, 9, 69, 0
1, 19439, Note_on_c, 9, 42, 0
1, 19440, Note_on_c, 9, 42, 114
1, 19559, Note_on_c, 9, 42, 0
1, 19560, Note_on_c, 9, 42, 106
1, 19679, Note_on_c, 9, 42, 0
1, 19680, Note_on_c, 9, 54, 94
1, 19680, Note_on_c, 9, 56, 121
1, 19680, Note_on_c, 9, 42, 111
1, 19919, Note_on_c, 9, 54, 0
1, 19919, Note_on_c, 9, 56, 0
1, 19919, Note_on_c, 9, 42, 0
1, 19920, Note_on_c, 9, 54, 94
1, 19920, Note_on_c, 9, 42, 111
1, 20159, Note_on_c, 9, 54, 0
1, 20159, Note_on_c, 9, 42, 0
1, 20160, Note_on_c, 9, 54, 107
1, 20160, Note_on_c, 9, 56, 121
1, 20160, Note_on_c, 9, 42, 114
1, 20399, Note_on_c, 9, 54, 0
1, 20399, Note_on_c, 9, 56, 0
1, 20399, Note_on_c, 9, 42, 0
1, 20400, Note_on_c, 9, 70, 113
1, 20400, Note_on_c, 9, 42, 109
1, 20639, Note_on_c, 9, 70, 0
1, 20639, Note_on_c, 9, 42, 0
1, 20640, Note_on_c, 9, 54, 100
1, 20640, Note_on_c, 9, 56, 121
1, 20640, Note_on_c, 9, 42, 113
1, 20879, Note_on_c, 9, 54, 0
1, 20879, Note_on_c, 9, 56, 0
1, 20879, Note_on_c, 9, 42, 0
1, 20880, Note_on_c, 9, 69, 106
1, 20880, Note_on_c, 9, 42, 102
1, 21119, Note_on_c, 9, 69, 0
1, 21119, Note_on_c, 9, 42, 0
1, 21120, Note_on_c, 9, 54, 99
1, 21120, Note_on_c, 9, 56, 124
1, 21120, Note_on_c, 9, 69, 125
1, 21120, Note_on_c, 9, 42, 113
1, 21359, Note_on_c, 9, 54, 0
1, 21359, Note_on_c, 9, 56, 0
1, 21359, Note_on_c, 9, 69, 0
1, 21359, Note_on_c, 9, 42, 0
1, 21360, Note_on_c, 9, 42, 105
1, 21479, Note_on_c, 9, 42, 0
1, 21480, Note_on_c, 9, 42, 98
1, 21599, Note_on_c, 9, 42, 0
1, 21600, Note_on_c, 9, 54, 84
1, 21600, Note_on_c, 9, 56, 121
1, 21600, Note_on_c, 9, 42, 109
1, 21839, Note_on_c, 9, 54, 0
1, 21839, Note_on_c, 9, 56, 0
1, 21839, Note_on_c, 9, 42, 0
1, 21840, Note_on_c, 9, 54, 88
1, 21840, Note_on_c, 9, 42, 105
1, 22079, Note_on_c, 9, 54, 0
1, 22079, Note_on_c, 9, 42, 0
1, 22080, Note_on_c, 9, 54, 101
1, 22080, Note_on_c, 9, 56, 121
1, 22080, Note_on_c, 9, 42, 105
1, 22319, Note_on_c, 9, 54, 0
1, 22319, Note_on_c, 9, 56, 0
1, 22319, Note_on_c, 9, 42, 0
1, 22320, Note_on_c, 9, 70, 113
1, 22320, Note_on_c, 9, 42, 93
1, 22559, Note_on_c, 9, 70, 0
1, 22559, Note_on_c, 9, 42, 0
1, 22560, Note_on_c, 9, 54, 103
1, 22560, Note_on_c, 9, 56, 121
1, 22560, Note_on_c, 9, 42, 110
1, 22799, Note_on_c, 9, 54, 0
1, 22799, Note_on_c, 9, 56, 0
1, 22799, Note_on_c, 9, 42, 0
1, 22800, Note_on_c, 9, 69, 113
1, 22800, Note_on_c, 9, 42, 101
1, 23039, Note_on_c, 9, 69, 0
1, 23039, Note_on_c, 9, 42, 0
1, 23040, Note_on_c, 9, 54, 104
1, 23040, Note_on_c, 9, 56, 124
1, 23040, Note_on_c, 9, 69, 122
1, 23040, Note_on_c, 9, 42, 116
1, 23279, Note_on_c, 9, 54, 0
1, 23279, Note_on_c, 9, 56, 0
1, 23279, Note_on_c, 9, 69, 0
1, 23279, Note_on_c, 9, 42, 0
1, 23280, Note_on_c, 9, 42, 108
1, 23399, Note_on_c, 9, 42, 0
1, 23400, Note_on_c, 9, 42, 102
1, 23519, Note_on_c, 9, 42, 0
1, 23520, Note_on_c, 9, 54, 87
1, 23520, Note_on_c, 9, 56, 121
1, 23520, Note_on_c, 9, 42, 109
1, 23759, Note_on_c, 9, 54, 0
1, 23759, Note_on_c, 9, 56, 0
1, 23759, Note_on_c, 9, 42, 0
1, 23760, Note_on_c, 9, 54, 88
1, 23760, Note_on_c, 9, 42, 105
1, 23999, Note_on_c, 9, 54, 0
1, 23999, Note_on_c, 9, 42, 0
1, 24000, Note_on_c, 9, 54, 105
1, 24000, Note_on_c, 9, 56, 121
1, 24000, Note_on_c, 9, 42, 110
1, 24239, Note_on_c, 9, 54, 0
1, 24239, Note_on_c, 9, 56, 0
1, 24239, Note_on_c, 9, 42, 0
1, 24240, Note_on_c, 9, 70, 121
1, 24240, Note_on_c, 9, 42, 106
1, 24479, Note_on_c, 9, 70, 0
1, 24479, Note_on_c, 9, 42, 0
1, 24480, Note_on_c, 9, 54, 100
1, 24480, Note_on_c, 9, 56, 121
1, 24480, Note_on_c, 9, 42, 115
1, 24719, Note_on_c, 9, 54, 0
1, 24719, Note_on_c, 9, 56, 0
1, 24719, Note_on_c, 9, 42, 0
1, 24720, Note_on_c, 9, 69, 113
1, 24720, Note_on_c, 9, 42, 102
1, 24959, Note_on_c, 9, 69, 0
1, 24959, Note_on_c, 9, 42, 0
1, 24960, Note_on_c, 9, 54, 101
1, 24960, Note_on_c, 9, 56, 124
1, 24960, Note_on_c, 9, 69, 124
1, 24960, Note_on_c, 9, 42, 115
1, 25199, Note_on_c, 9, 54, 0
1, 25199, Note_on_c, 9, 56, 0
1, 25199, Note_on_c, 9, 69, 0
1, 25199, Note_on_c, 9, 42, 0
1, 25200, Note_on_c, 9, 42, 105
1, 25319, Note_on_c, 9, 42, 0
1, 25320, Note_on_c, 9, 42, 106
1, 25439, Note_on_c, 9, 42, 0
1, 25440, Note_on_c, 9, 54, 92
1, 25440, Note_on_c, 9, 56, 121
1, 25440, Note_on_c, 9, 42, 113
1, 25679, Note_on_c, 9, 54, 0
1, 25679, Note_on_c, 9, 56, 0
1, 25679, Note_on_c, 9, 42, 0
1, 25680, Note_on_c, 9, 54, 100
1, 25680, Note_on_c, 9, 42, 102
1, 25919, Note_on_c, 9, 54, 0
1, 25919, Note_on_c, 9, 42, 0
1, 25920, Note_on_c, 9, 54, 104
1, 25920, Note_on_c, 9, 56, 121
1, 25920, Note_on_c, 9, 42, 114
1, 26159, Note_on_c, 9, 54, 0
1, 26159, Note_on_c, 9, 56, 0
1, 26159, Note_on_c, 9, 42, 0
1, 26160, Note_on_c, 9, 70, 119
1, 26160, Note_on_c, 9, 42, 100
1, 26399, Note_on_c, 9, 70, 0
1, 26399, Note_on_c, 9, 42, 0
1, 26400, Note_on_c, 9, 54, 99
1, 26400, Note_on_c, 9, 56, 121
1, 26400, Note_on_c, 9, 42, 109
1, 26639, Note_on_c, 9, 54, 0
1, 26639, Note_on_c, 9, 56, 0
1, 26639, Note_on_c, 9, 42, 0
1, 26640, Note_on_c, 9, 69, 107
1, 26640, Note_on_c, 9, 42, 108
1, 26879, Note_on_c, 9, 69, 0
1, 26879, Note_on_c, 9, 42, 0
1, 26880, Note_on_c, 9, 54, 103
1, 26880, Note_on_c, 9, 56, 124
1, 26880, Note_on_c, 9, 69, 122
1, 26880, Note_on_c, 9, 42, 110
1, 27119, Note_on_c, 9, 54, 0
1, 27119, Note_on_c, 9, 56, 0
1, 27119, Note_on_c, 9, 69, 0
1, 27119, Note_on_c, 9, 42, 0
1, 27120, Note_on_c, 9, 42, 106
1, 27239, Note_on_c, 9, 42, 0
1, 27240, Note_on_c, 9, 42, 102
1, 27359, Note_on_c, 9, 42, 0
1, 27360, Note_on_c, 9, 54, 92
1, 27360, Note_on_c, 9, 56, 121
1, 27360, Note_on_c, 9, 42, 107
1, 27599, Note_on_c, 9, 54, 0
1, 27599, Note_on_c, 9, 56, 0
1, 27599, Note_on_c, 9, 42, 0
1, 27600, Note_on_c, 9, 54, 91
1, 27600, Note_on_c, 9, 42, 103
1, 27839, Note_on_c, 9, 54, 0
1, 27839, Note_on_c, 9, 42, 0
1, 27840, Note_on_c, 9, 54, 100
1, 27840, Note_on_c, 9, 56, 121
1, 27840, Note_on_c, 9, 42, 111
1, 28079, Note_on_c, 9, 54, 0
1, 28079, Note_on_c, 9, 56, 0
1, 28079, Note_on_c, 9, 42, 0
1, 28080, Note_on_c, 9, 70, 117
1, 28080, Note_on_c, 9, 42, 104
1, 28319, Note_on_c, 9, 70, 0
1, 28319, Note_on_c, 9, 42, 0
1, 28320, Note_on_c, 9, 54, 100
1, 28320, Note_on_c, 9, 56, 121
1, 28320, Note_on_c, 9, 42, 115
1, 28559, Note_on_c, 9, 54, 0
1, 28559, Note_on_c, 9, 56, 0
1, 28559, Note_on_c, 9, 42, 0
1, 28560, Note_on_c, 9, 69, 114
1, 28560, Note_on_c, 9, 42, 107
1, 28799, Note_on_c, 9, 69, 0
1, 28799, Note_on_c, 9, 42, 0
1, 28800, Note_on_c, 9, 54, 104
1, 28800, Note_on_c, 9, 56, 124
1, 28800, Note_on_c, 9, 69, 122
1, 28800, Note_on_c, 9, 42, 115
1, 29039, Note_on_c, 9, 54, 0
1, 29039, Note_on_c, 9, 56, 0
1, 29039, Note_on_c, 9, 69, 0
1, 29039, Note_on_c, 9, 42, 0
1, 29040, Note_on_c, 9, 42, 106
1, 29159, Note_on_c, 9, 42, 0
1, 29160, Note_on_c, 9, 42, 101
1, 29279, Note_on_c, 9, 42, 0
1, 29280, Note_on_c, 9, 54, 99
1, 29280, Note_on_c, 9, 56, 121
1, 29280, Note_on_c, 9, 42, 108
1, 29519, Note_on_c, 9, 54, 0
1, 29519, Note_on_c, 9, 56, 0
1, 29519, Note_on_c, 9, 42, 0
1, 29520, Note_on_c, 9, 54, 97
1, 29520, Note_on_c, 9, 42, 105
1, 29759, Note_on_c, 9, 54, 0
1, 29759, Note_on_c, 9, 42, 0
1, 29760, Note_on_c, 9, 54, 104
1, 29760, Note_on_c, 9, 56, 121
1, 29760, Note_on_c, 9, 42, 110
1, 29999, Note_on_c, 9, 54, 0
1, 29999, Note_on_c, 9, 56, 0
1, 29999, Note_on_c, 9, 42, 0
1, 30000, Note_on_c, 9, 70, 121
1, 30000, Note_on_c, 9, 42, 96
1, 30239, Note_on_c, 9, 70, 0
1, 30239, Note_on_c, 9, 42, 0
1, 30240, Note_on_c, 9, 54, 100
1, 30240, Note_on_c, 9, 56, 121
1, 30240, Note_on_c, 9, 42, 113
1, 30479, Note_on_c, 9, 54, 0
1, 30479, Note_on_c, 9, 56, 0
1, 30479, Note_on_c, 9, 42, 0
1, 30480, Note_on_c, 9, 69, 113
1, 30480, Note_on_c, 9, 42, 105
1, 30719, Note_on_c, 9, 69, 0
1, 30719, Note_on_c, 9, 42, 0
1, 30720, Note_on_c, 9, 54, 105
1, 30720, Note_on_c, 9, 56, 124
1, 30720, Note_on_c, 9, 69, 125
1, 30720, Note_on_c, 9, 42, 117
1, 30959, Note_on_c, 9, 54, 0
1, 30959, Note_on_c, 9, 56, 0
1, 30959, Note_on_c, 9, 69, 0
1, 30959, Note_on_c, 9, 42, 0
1, 30960, Note_on_c, 9, 42, 107
1, 31079, Note_on_c, 9, 42, 0
1, 31080, Note_on_c, 9, 42, 102
1, 31199, Note_on_c, 9, 42, 0
1, 31200, Note_on_c, 9, 54, 95
1, 31200, Note_on_c, 9, 56, 121
1, 31200, Note_on_c, 9, 42, 106
1, 31439, Note_on_c, 9, 54, 0
1, 31439, Note_on_c, 9, 56, 0
1, 31439, Note_on_c, 9, 42, 0
1, 31440, Note_on_c, 9, 54, 101
1, 31440, Note_on_c, 9, 42, 110
1, 31679, Note_on_c, 9, 54, 0
1, 31679, Note_on_c, 9, 42, 0
1, 31680, Note_on_c, 9, 54, 106
1, 31680, Note_on_c, 9, 56, 121
1, 31680, Note_on_c, 9, 42, 115
1, 31919, Note_on_c, 9, 54, 0
1, 31919, Note_on_c, 9, 56, 0
1, 31919, Note_on_c, 9, 42, 0
1, 31920, Note_on_c, 9, 70, 117
1, 31920, Note_on_c, 9, 42, 102
1, 32159, Note_on_c, 9, 70, 0
1, 32159, Note_on_c, 9, 42, 0
1, 32160, Note_on_c, 9, 54, 104
1, 32160, Note_on_c, 9, 56, 121
1, 32160, Note_on_c, 9, 42, 115
1, 32399, Note_on_c, 9, 54, 0
1, 32399, Note_on_c, 9, 56, 0
1, 32399, Note_on_c, 9, 42, 0
1, 32400, Note_on_c, 9, 69, 106
1, 32400, Note_on_c, 9, 42, 106
1, 32639, Note_on_c, 9, 69, 0
1, 32639, Note_on_c, 9, 42, 0
1, 32640, Note_on_c, 9, 54, 106
1, 32640, Note_on_c, 9, 56, 124
1, 32640, Note_on_c, 9, 69, 120
1, 32640, Note_on_c, 9, 42, 116
1, 32879, Note_on_c, 9, 54, 0
1, 32879, Note_on_c, 9, 56, 0
1, 32879, Note_on_c, 9, 69, 0
1, 32879, Note_on_c, 9, 42, 0
1, 32880, Note_on_c, 9, 42, 108
1, 32999, Note_on_c, 9, 42, 0
1, 33000, Note_on_c, 9, 42, 102
1, 33119, Note_on_c, 9, 42, 0
1, 33120, Note_on_c, 9, 54, 86
1, 33120, Note_on_c, 9, 56, 121
1, 33120, Note_on_c, 9, 42, 111
1, 33359, Note_on_c, 9, 54, 0
1, 33359, Note_on_c, 9, 56, 0
1, 33359, Note_on_c, 9, 42, 0
1, 33360, Note_on_c, 9, 54, 96
1, 33360, Note_on_c, 9, 42, 105
1, 33599, Note_on_c, 9, 54, 0
1, 33599, Note_on_c, 9, 42, 0
1, 33600, Note_on_c, 9, 54, 105
1, 33600, Note_on_c, 9, 56, 121
1, 33600, Note_on_c, 9, 42, 111
1, 33839, Note_on_c, 9, 54, 0
1, 33839, Note_on_c, 9, 56, 0
1, 33839, Note_on_c, 9, 42, 0
1, 33840, Note_on_c, 9, 70, 119
1, 33840, Note_on_c, 9, 42, 92
1, 34079, Note_on_c, 9, 70, 0
1, 34079, Note_on_c, 9, 42, 0
1, 34080, Note_on_c, 9, 54, 106
1, 34080, Note_on_c, 9, 56, 121
1, 34080, Note_on_c, 9, 42, 115
1, 34319, Note_on_c, 9, 54, 0
1, 34319, Note_on_c, 9, 56, 0
1, 34319, Note_on_c, 9, 42, 0
1, 34320, Note_on_c, 9, 69, 110
1, 34320, Note_on_c, 9, 44, 123
1, 34559, Note_on_c, 9, 69, 0
1, 34559, Note_on_c, 9, 44, 0
1, 34560, Note_on_c, 9, 54, 97
1, 34560, Note_on_c, 9, 56, 124
1, 34560, Note_on_c, 9, 69, 117
1, 34560, Note_on_c, 9, 42, 117
1, 34560, Note_on_c, 9, 36, 125
1, 34799, Note_on_c, 9, 54, 0
1, 34799, Note_on_c, 9, 56, 0
1, 34799, Note_on_c, 9, 69, 0
1, 34799, Note_on_c, 9, 42, 0
1, 34800, Note_on_c, 9, 42, 116
1, 34919, Note_on_c, 9, 42, 0
1, 34920, Note_on_c, 9, 42, 117
1, 35039, Note_on_c, 9, 36, 0
1, 35039, Note_on_c, 9, 42, 0
1, 35040, Note_on_c, 9, 54, 92
1, 35040, Note_on_c, 9, 56, 121
1, 35040, Note_on_c, 9, 42, 115
1, 35279, Note_on_c, 9, 54, 0
1, 35279, Note_on_c, 9, 56, 0
1, 35279, Note_on_c, 9, 42, 0
1, 35280, Note_on_c, 9, 54, 99
1, 35280, Note_on_c, 9, 42, 119
1, 35280, Note_on_c, 9, 36, 125
1, 35519, Note_on_c, 9, 54, 0
1, 35519, Note_on_c, 9, 42, 0
1, 35519, Note_on_c, 9, 36, 0
1, 35520, Note_on_c, 9, 54, 100
1, 35520, Note_on_c, 9, 56, 121
1, 35520, Note_on_c, 9, 42, 115
1, 35520, Note_on_c, 9, 36, 125
1, 35759, Note_on_c, 9, 54, 0
1, 35759, Note_on_c, 9, 56, 0
1, 35759, Note_on_c, 9, 42, 0
1, 35760, Note_on_c, 9, 70, 116
1, 35760, Note_on_c, 9, 42, 111
1, 35999, Note_on_c, 9, 36, 0
1, 35999, Note_on_c, 9, 70, 0
1, 35999, Note_on_c, 9, 42, 0
1, 36000, Note_on_c, 9, 54, 101
1, 36000, Note_on_c, 9, 56, 121
1, 36000, Note_on_c, 9, 68, 69
1, 36000, Note_on_c, 9, 42, 117
1, 36239, Note_on_c, 9, 54, 0
1, 36239, Note_on_c, 9, 56, 0
1, 36239, Note_on_c, 9, 68, 0
1, 36239, Note_on_c, 9, 42, 0
1, 36240, Note_on_c, 9, 69, 102
1, 36240, Note_on_c, 9, 42, 104
1, 36479, Note_on_c, 9, 69, 0
1, 36479, Note_on_c, 9, 42, 0
1, 36480, Note_on_c, 9, 54, 99
1, 36480, Note_on_c, 9, 56, 124
1, 36480, Note_on_c, 9, 69, 117
1, 36480, Note_on_c, 9, 42, 116
1, 36480, Note_on_c, 9, 36, 125
1, 36719, Note_on_c, 9, 54, 0
1, 36719, Note_on_c, 9, 56, 0
1, 36719, Note_on_c, 9, 69, 0
1, 36719, Note_on_c, 9, 42, 0
1, 36720, Note_on_c, 9, 42, 110
1, 36839, Note_on_c, 9, 42, 0
1, 36840, Note_on_c, 9, 42, 109
1, 36959, Note_on_c, 9, 36, 0
1, 36959, Note_on_c, 9, 42, 0
1, 36960, Note_on_c, 9, 54, 96
1, 36960, Note_on_c, 9, 56, 121
1, 36960, Note_on_c, 9, 42, 109
1, 37199, Note_on_c, 9, 54, 0
1, 37199, Note_on_c, 9, 56, 0
1, 37199, Note_on_c, 9, 42, 0
1, 37200, Note_on_c, 9, 54, 97
1, 37200, Note_on_c, 9, 42, 110
1, 37200, Note_on_c, 9, 36, 125
1, 37439, Note_on_c, 9, 54, 0
1, 37439, Note_on_c, 9, 42, 0
1, 37439, Note_on_c, 9, 36, 0
1, 37440, Note_on_c, 9, 54, 105
1, 37440, Note_on_c, 9, 56, 121
1, 37440, Note_on_c, 9, 42, 115
1, 37440, Note_on_c, 9, 36, 125
1, 37679, Note_on_c, 9, 54, 0
1, 37679, Note_on_c, 9, 56, 0
1, 37679, Note_on_c, 9, 42, 0
1, 37680, Note_on_c, 9, 70, 117
1, 37680, Note_on_c, 9, 42, 103
1, 37919, Note_on_c, 9, 36, 0
1, 37919, Note_on_c, 9, 70, 0
1, 37919, Note_on_c, 9, 42, 0
1, 37920, Note_on_c, 9, 54, 100
1, 37920, Note_on_c, 9, 56, 121
1, 37920, Note_on_c, 9, 68, 69
1, 37920, Note_on_c, 9, 42, 117
1, 38159, Note_on_c, 9, 54, 0
1, 38159, Note_on_c, 9, 56, 0
1, 38159, Note_on_c, 9, 68, 0
1, 38159, Note_on_c, 9, 42, 0
1, 38160, Note_on_c, 9, 69, 109
1, 38160, Note_on_c, 9, 42, 106
1, 38399, Note_on_c, 9, 69, 0
1, 38399, Note_on_c, 9, 42, 0
1, 38400, Note_on_c, 9, 54, 109
1, 38400, Note_on_c, 9, 56, 124
1, 38400, Note_on_c, 9, 69, 119
1, 38400, Note_on_c, 9, 42, 115
1, 38400, Note_on_c, 9, 36, 125
1, 38639, Note_on_c, 9, 54, 0
1, 38639, Note_on_c, 9, 56, 0
1, 38639, Note_on_c, 9, 69, 0
1, 38639, Note_on_c, 9, 42, 0
1, 38640, Note_on_c, 9, 42, 111
1, 38759, Note_on_c, 9, 42, 0
1, 38760, Note_on_c, 9, 42, 108
1, 38879, Note_on_c, 9, 36, 0
1, 38879, Note_on_c, 9, 42, 0
1, 38880, Note_on_c, 9, 54, 94
1, 38880, Note_on_c, 9, 56, 121
1, 38880, Note_on_c, 9, 42, 113
1, 39119, Note_on_c, 9, 54, 0
1, 39119, Note_on_c, 9, 56, 0
1, 39119, Note_on_c, 9, 42, 0
1, 39120, Note_on_c, 9, 54, 97
1, 39120, Note_on_c, 9, 42, 111
1, 39120, Note_on_c, 9, 36, 125
1, 39359, Note_on_c, 9, 54, 0
1, 39359, Note_on_c, 9, 42, 0
1, 39359, Note_on_c, 9, 36, 0
1, 39360, Note_on_c, 9, 54, 105
1, 39360, Note_on_c, 9, 56, 121
1, 39360, Note_on_c, 9, 42, 116
1, 39360, Note_on_c, 9, 36, 125
1, 39599, Note_on_c, 9, 54, 0
1, 39599, Note_on_c, 9, 56, 0
1, 39599, Note_on_c, 9, 42, 0
1, 39600, Note_on_c, 9, 70, 117
1, 39600, Note_on_c, 9, 42, 104
1, 39839, Note_on_c, 9, 36, 0
1, 39839, Note_on_c, 9, 70, 0
1, 39839, Note_on_c, 9, 42, 0
1, 39840, Note_on_c, 9, 54, 98
1, 39840, Note_on_c, 9, 56, 121
1, 39840, Note_on_c, 9, 68, 69
1, 39840, Note_on_c, 9, 42, 116
1, 40079, Note_on_c, 9, 54, 0
1, 40079, Note_on_c, 9, 56, 0
1, 40079, Note_on_c, 9, 68, 0
1, 40079, Note_on_c, 9, 42, 0
1, 40080, Note_on_c, 9, 69, 111
1, 40080, Note_on_c, 9, 42, 108
1, 40319, Note_on_c, 9, 69, 0
1, 40319, Note_on_c, 9, 42, 0
1, 40320, Note_on_c, 9, 54, 101
1, 40320, Note_on_c, 9, 56, 124
1, 40320, Note_on_c, 9, 69, 122
1, 40320, Note_on_c, 9, 42, 114
1, 40320, Note_on_c, 9, 36, 125
1, 40559, Note_on_c, 9, 54, 0
1, 40559, Note_on_c, 9, 56, 0
1, 40559, Note_on_c, 9, 69, 0
1, 40559, Note_on_c, 9, 42, 0
1, 40560, Note_on_c, 9, 42, 111
1, 40679, Note_on_c, 9, 42, 0
1, 40680, Note_on_c, 9, 42, 106
1, 40799, Note_on_c, 9, 36, 0
1, 40799, Note_on_c, 9, 42, 0
1, 40800, Note_on_c, 9, 54, 90
1, 40800, Note_on_c, 9, 56, 121
1, 40800, Note_on_c, 9, 42, 111
1, 41039, Note_on_c, 9, 54, 0
1, 41039, Note_on_c, 9, 56, 0
1, 41039, Note_on_c, 9, 42, 0
1, 41040, Note_on_c, 9, 54, 93
1, 41040, Note_on_c, 9, 42, 109
1, 41040, Note_on_c, 9, 36, 125
1, 41279, Note_on_c, 9, 54, 0
1, 41279, Note_on_c, 9, 42, 0
1, 41279, Note_on_c, 9, 36, 0
1, 41280, Note_on_c, 9, 54, 103
1, 41280, Note_on_c, 9, 56, 121
1, 41280, Note_on_c, 9, 42, 119
1, 41280, Note_on_c, 9, 36, 125
1, 41519, Note_on_c, 9, 54, 0
1, 41519, Note_on_c, 9, 56, 0
1, 41519, Note_on_c, 9, 42, 0
1, 41520, Note_on_c, 9, 70, 123
1, 41520, Note_on_c, 9, 42, 102
1, 41759, Note_on_c, 9, 36, 0
1, 41759, Note_on_c, 9, 70, 0
1, 41759, Note_on_c, 9, 42, 0
1, 41760, Note_on_c, 9, 54, 105
1, 41760, Note_on_c, 9, 56, 121
1, 41760, Note_on_c, 9, 68, 69
1, 41760, Note_on_c, 9, 42, 117
1, 41999, Note_on_c, 9, 54, 0
1, 41999, Note_on_c, 9, 56, 0
1, 41999, Note_on_c, 9, 68, 0
1, 41999, Note_on_c, 9, 42, 0
1, 42000, Note_on_c, 9, 69, 111
1, 42000, Note_on_c, 9, 42, 103
1, 42239, Note_on_c, 9, 69, 0
1, 42239, Note_on_c, 9, 42, 0
1, 42240, Note_on_c, 9, 54, 101
1, 42240, Note_on_c, 9, 56, 124
1, 42240, Note_on_c, 9, 69, 124
1, 42240, Note_on_c, 9, 42, 116
1, 42240, Note_on_c, 9, 36, 125
1, 42479, Note_on_c, 9, 54, 0
1, 42479, Note_on_c, 9, 56, 0
1, 42479, Note_on_c, 9, 69, 0
1, 42479, Note_on_c, 9, 42, 0
1, 42480, Note_on_c, 9, 42, 109
1, 42599, Note_on_c, 9, 42, 0
1, 42600, Note_on_c, 9, 42, 107
1, 42719, Note_on_c, 9, 36, 0
1, 42719, Note_on_c, 9, 42, 0
1, 42720, Note_on_c, 9, 54, 92
1, 42720, Note_on_c, 9, 56, 121
1, 42720, Note_on_c, 9, 42, 113
1, 42959, Note_on_c, 9, 54, 0
1, 42959, Note_on_c, 9, 56, 0
1, 42959, Note_on_c, 9, 42, 0
1, 42960, Note_on_c, 9, 54, 101
1, 42960, Note_on_c, 9, 42, 109
1, 42960, Note_on_c, 9, 36, 125
1, 43199, Note_on_c, 9, 54, 0
1, 43199, Note_on_c, 9, 42, 0
1, 43199, Note_on_c, 9, 36, 0
1, 43200, Note_on_c, 9, 54, 103
1, 43200, Note_on_c, 9, 56, 121
1, 43200, Note_on_c, 9, 42, 114
1, 43200, Note_on_c, 9, 36, 125
1, 43439, Note_on_c, 9, 54, 0
1, 43439, Note_on_c, 9, 56, 0
1, 43439, Note_on_c, 9, 42, 0
1, 43440, Note_on_c, 9, 70, 118
1, 43440, Note_on_c, 9, 42, 104
1, 43679, Note_on_c, 9, 36, 0
1, 43679, Note_on_c, 9, 70, 0
1, 43679, Note_on_c, 9, 42, 0
1, 43680, Note_on_c, 9, 54, 98
1, 43680, Note_on_c, 9, 56, 121
1, 43680, Note_on_c, 9, 68, 69
1, 43680, Note_on_c, 9, 42, 119
1, 43919, Note_on_c, 9, 54, 0
1, 43919, Note_on_c, 9, 56, 0
1, 43919, Note_on_c, 9, 68, 0
1, 43919, Note_on_c, 9, 42, 0
1, 43920, Note_on_c, 9, 69, 110
1, 43920, Note_on_c, 9, 42, 106
1, 44159, Note_on_c, 9, 69, 0
1, 44159, Note_on_c, 9, 42, 0
1, 44160, Note_on_c, 9, 54, 103
1, 44160, Note_on_c, 9, 56, 124
1, 44160, Note_on_c, 9, 69, 120
1, 44160, Note_on_c, 9, 42, 117
1, 44160, Note_on_c, 9, 36, 125
1, 44399, Note_on_c, 9, 54, 0
1, 44399, Note_on_c, 9, 56, 0
1, 44399, Note_on_c, 9, 69, 0
1, 44399, Note_on_c, 9, 42, 0
1, 44400, Note_on_c, 9, 42, 107
1, 44519, Note_on_c, 9, 42, 0
1, 44520, Note_on_c, 9, 42, 106
1, 44639, Note_on_c, 9, 36, 0
1, 44639, Note_on_c, 9, 42, 0
1, 44640, Note_on_c, 9, 54, 74
1, 44640, Note_on_c, 9, 56, 121
1, 44640, Note_on_c, 9, 42, 113
1, 44879, Note_on_c, 9, 54, 0
1, 44879, Note_on_c, 9, 56, 0
1, 44879, Note_on_c, 9, 42, 0
1, 44880, Note_on_c, 9, 54, 92
1, 44880, Note_on_c, 9, 42, 105
1, 44880, Note_on_c, 9, 36, 125
1, 45119, Note_on_c, 9, 54, 0
1, 45119, Note_on_c, 9, 42, 0
1, 45119, Note_on_c, 9, 36, 0
1, 45120, Note_on_c, 9, 54, 104
1, 45120, Note_on_c, 9, 56, 121
1, 45120, Note_on_c, 9, 42, 119
1, 45120, Note_on_c, 9, 36, 125
1, 45359, Note_on_c, 9, 54, 0
1, 45359, Note_on_c, 9, 56, 0
1, 45359, Note_on_c, 9, 42, 0
1, 45360, Note_on_c, 9, 70, 121
1, 45360, Note_on_c, 9, 42, 105
1, 45599, Note_on_c, 9, 36, 0
1, 45599, Note_on_c, 9, 70, 0
1, 45599, Note_on_c, 9, 42, 0
1, 45600, Note_on_c, 9, 54, 101
1, 45600, Note_on_c, 9, 56, 121
1, 45600, Note_on_c, 9, 68, 69
1, 45600, Note_on_c, 9, 42, 117
1, 45839, Note_on_c, 9, 54, 0
1, 45839, Note_on_c, 9, 56, 0
1, 45839, Note_on_c, 9, 68, 0
1, 45839, Note_on_c, 9, 42, 0
1, 45840, Note_on_c, 9, 69, 111
1, 45840, Note_on_c, 9, 42, 102
1, 46079, Note_on_c, 9, 69, 0
1, 46079, Note_on_c, 9, 42, 0
1, 46080, Note_on_c, 9, 54, 103
1, 46080, Note_on_c, 9, 56, 124
1, 46080, Note_on_c, 9, 69, 119
1, 46080, Note_on_c, 9, 42, 119
1, 46080, Note_on_c, 9, 36, 125
1, 46319, Note_on_c, 9, 54, 0
1, 46319, Note_on_c, 9, 56, 0
1, 46319, Note_on_c, 9, 69, 0
1, 46319, Note_on_c, 9, 42, 0
1, 46320, Note_on_c, 9, 42, 109
1, 46439, Note_on_c, 9, 42, 0
1, 46440, Note_on_c, 9, 42, 102
1, 46559, Note_on_c, 9, 36, 0
1, 46559, Note_on_c, 9, 42, 0
1, 46560, Note_on_c, 9, 54, 95
1, 46560, Note_on_c, 9, 56, 121
1, 46560, Note_on_c, 9, 42, 110
1, 46799, Note_on_c, 9, 54, 0
1, 46799, Note_on_c, 9, 56, 0
1, 46799, Note_on_c, 9, 42, 0
1, 46800, Note_on_c, 9, 54, 97
1, 46800, Note_on_c, 9, 42, 104
1, 46800, Note_on_c, 9, 36, 125
1, 47039, Note_on_c, 9, 54, 0
1, 47039, Note_on_c, 9, 42, 0
1, 47039, Note_on_c, 9, 36, 0
1, 47040, Note_on_c, 9, 54, 105
1, 47040, Note_on_c, 9, 56, 121
1, 47040, Note_on_c, 9, 42, 119
1, 47040, Note_on_c, 9, 36, 125
1, 47279, Note_on_c, 9, 54, 0
1, 47279, Note_on_c, 9, 56, 0
1, 47279, Note_on_c, 9, 42, 0
1, 47280, Note_on_c, 9, 70, 117
1, 47280, Note_on_c, 9, 42, 104
1, 47519, Note_on_c, 9, 36, 0
1, 47519, Note_on_c, 9, 70, 0
1, 47519, Note_on_c, 9, 42, 0
1, 47520, Note_on_c, 9, 54, 105
1, 47520, Note_on_c, 9, 56, 121
1, 47520, Note_on_c, 9, 68, 69
1, 47520, Note_on_c, 9, 42, 114
1, 47759, Note_on_c, 9, 54, 0
1, 47759, Note_on_c, 9, 56, 0
1, 47759, Note_on_c, 9, 68, 0
1, 47759, Note_on_c, 9, 42, 0
1, 47760, Note_on_c, 9, 69, 111
1, 47760, Note_on_c, 9, 42, 101
1, 47999, Note_on_c, 9, 69, 0
1, 47999, Note_on_c, 9, 42, 0
1, 48000, Note_on_c, 9, 54, 105
1, 48000, Note_on_c, 9, 56, 124
1, 48000, Note_on_c, 9, 69, 114
1, 48000, Note_on_c, 9, 42, 117
1, 48000, Note_on_c, 9, 36, 125
1, 48239, Note_on_c, 9, 54, 0
1, 48239, Note_on_c, 9, 56, 0
1, 48239, Note_on_c, 9, 69, 0
1, 48239, Note_on_c, 9, 42, 0
1, 48240, Note_on_c, 9, 42, 108
1, 48359, Note_on_c, 9, 42, 0
1, 48360, Note_on_c, 9, 42, 104
1, 48479, Note_on_c, 9, 36, 0
1, 48479, Note_on_c, 9, 42, 0
1, 48480, Note_on_c, 9, 54, 89
1, 48480, Note_on_c, 9, 56, 121
1, 48480, Note_on_c, 9, 42, 113
1, 48719, Note_on_c, 9, 54, 0
1, 48719, Note_on_c, 9, 56, 0
1, 48719, Note_on_c, 9, 42, 0
1, 48720, Note_on_c, 9, 54, 100
1, 48720, Note_on_c, 9, 42, 107
1, 48720, Note_on_c, 9, 36, 125
1, 48959, Note_on_c, 9, 54, 0
1, 48959, Note_on_c, 9, 42, 0
1, 48959, Note_on_c, 9, 36, 0
1, 48960, Note_on_c, 9, 54, 103
1, 48960, Note_on_c, 9, 56, 121
1, 48960, Note_on_c, 9, 42, 117
1, 48960, Note_on_c, 9, 36, 125
1, 49199, Note_on_c, 9, 54, 0
1, 49199, Note_on_c, 9, 56, 0
1, 49199, Note_on_c, 9, 42, 0
1, 49199, Note_on_c, 9, 36, 0
1, 49200, Note_on_c, 9, 70, 117
1, 49200, Note_on_c, 9, 44, 115
1, 49439, Note_on_c, 9, 70, 0
1, 49439, Note_on_c, 9, 44, 0
1, 49440, Note_on_c, 9, 54, 105
1, 49440, Note_on_c, 9, 56, 121
1, 49440, Note_on_c, 9, 68, 69
1, 49440, Note_on_c, 9, 42, 115
1, 49679, Note_on_c, 9, 54, 0
1, 49679, Note_on_c, 9, 56, 0
1, 49679, Note_on_c, 9, 68, 0
1, 49679, Note_on_c, 9, 42, 0
1, 49680, Note_on_c, 9, 69, 113
1, 49680, Note_on_c, 9, 44, 116
1, 49919, Note_on_c, 9, 69, 0
1, 49919, Note_on_c, 9, 44, 0
1, 49920, Note_on_c, 9, 54, 101
1, 49920, Note_on_c, 9, 56, 124
1, 49920, Note_on_c, 9, 69, 119
1, 49920, Note_on_c, 9, 42, 123
1, 49920, Note_on_c, 9, 36, 125
1, 50159, Note_on_c, 9, 54, 0
1, 50159, Note_on_c, 9, 56, 0
1, 50159, Note_on_c, 9, 69, 0
1, 50159, Note_on_c, 9, 42, 0
1, 50160, Note_on_c, 9, 42, 113
1, 50279, Note_on_c, 9, 42, 0
1, 50280, Note_on_c, 9, 42, 103
1, 50399, Note_on_c, 9, 36, 0
1, 50399, Note_on_c, 9, 42, 0
1, 50400, Note_on_c, 9, 54, 98
1, 50400, Note_on_c, 9, 56, 121
1, 50400, Note_on_c, 9, 42, 111
1, 50639, Note_on_c, 9, 54, 0
1, 50639, Note_on_c, 9, 56, 0
1, 50639, Note_on_c, 9, 42, 0
1, 50640, Note_on_c, 9, 54, 98
1, 50640, Note_on_c, 9, 42, 119
1, 50640, Note_on_c, 9, 36, 125
1, 50879, Note_on_c, 9, 54, 0
1, 50879, Note_on_c, 9, 42, 0
1, 50879, Note_on_c, 9, 36, 0
1, 50880, Note_on_c, 9, 54, 103
1, 50880, Note_on_c, 9, 56, 121
1, 50880, Note_on_c, 9, 42, 114
1, 50880, Note_on_c, 9, 36, 125
1, 51119, Note_on_c, 9, 54, 0
1, 51119, Note_on_c, 9, 56, 0
1, 51119, Note_on_c, 9, 42, 0
1, 51120, Note_on_c, 9, 70, 116
1, 51120, Note_on_c, 9, 42, 106
1, 51359, Note_on_c, 9, 36, 0
1, 51359, Note_on_c, 9, 70, 0
1, 51359, Note_on_c, 9, 42, 0
1, 51360, Note_on_c, 9, 54, 104
1, 51360, Note_on_c, 9, 56, 121
1, 51360, Note_on_c, 9, 68, 69
1, 51360, Note_on_c, 9, 42, 116
1, 51599, Note_on_c, 9, 54, 0
1, 51599, Note_on_c, 9, 56, 0
1, 51599, Note_on_c, 9, 68, 0
1, 51599, Note_on_c, 9, 42, 0
1, 51600, Note_on_c, 9, 69, 106
1, 51600, Note_on_c, 9, 42, 110
1, 51839, Note_on_c, 9, 69, 0
1, 51839, Note_on_c, 9, 42, 0
1, 51840, Note_on_c, 9, 54, 101
1, 51840, Note_on_c, 9, 56, 124
1, 51840, Note_on_c, 9, 69, 115
1, 51840, Note_on_c, 9, 42, 116
1, 51840, Note_on_c, 9, 36, 125
1, 52079, Note_on_c, 9, 54, 0
1, 52079, Note_on_c, 9, 56, 0
1, 52079, Note_on_c, 9, 69, 0
1, 52079, Note_on_c, 9, 42, 0
1, 52080, Note_on_c, 9, 42, 111
1, 52199, Note_on_c, 9, 42, 0
1, 52200, Note_on_c, 9, 42, 107
1, 52319, Note_on_c, 9, 36, 0
1, 52319, Note_on_c, 9, 42, 0
1, 52320, Note_on_c, 9, 54, 96
1, 52320, Note_on_c, 9, 56, 121
1, 52320, Note_on_c, 9, 42, 111
1, 52559, Note_on_c, 9, 54, 0
1, 52559, Note_on_c, 9, 56, 0
1, 52559, Note_on_c, 9, 42, 0
1, 52560, Note_on_c, 9, 54, 94
1, 52560, Note_on_c, 9, 42, 108
1, 52560, Note_on_c, 9, 36, 125
1, 52799, Note_on_c, 9, 54, 0
1, 52799, Note_on_c, 9, 42, 0
1, 52799, Note_on_c, 9, 36, 0
1, 52800, Note_on_c, 9, 54, 101
1, 52800, Note_on_c, 9, 56, 121
1, 52800, Note_on_c, 9, 42, 116
1, 52800, Note_on_c, 9, 36, 125
1, 53039, Note_on_c, 9, 54, 0
1, 53039, Note_on_c, 9, 56, 0
1, 53039, Note_on_c, 9, 42, 0
1, 53040, Note_on_c, 9, 70, 121
1, 53040, Note_on_c, 9, 42, 105
1, 53279, Note_on_c, 9, 36, 0
1, 53279, Note_on_c, 9, 70, 0
1, 53279, Note_on_c, 9, 42, 0
1, 53280, Note_on_c, 9, 54, 105
1, 53280, Note_on_c, 9, 56, 121
1, 53280, Note_on_c, 9, 68, 69
1, 53280, Note_on_c, 9, 42, 116
1, 53519, Note_on_c, 9, 54, 0
1, 53519, Note_on_c, 9, 56, 0
1, 53519, Note_on_c, 9, 68, 0
1, 53519, Note_on_c, 9, 42, 0
1, 53520, Note_on_c, 9, 69, 110
1, 53520, Note_on_c, 9, 42, 106
1, 53759, Note_on_c, 9, 69, 0
1, 53759, Note_on_c, 9, 42, 0
1, 53760, Note_on_c, 9, 54, 103
1, 53760, Note_on_c, 9, 56, 124
1, 53760, Note_on_c, 9, 69, 119
1, 53760, Note_on_c, 9, 42, 116
1, 53760, Note_on_c, 9, 36, 125
1, 53999, Note_on_c, 9, 54, 0
1, 53999, Note_on_c, 9, 56, 0
1, 53999, Note_on_c, 9, 69, 0
1, 53999, Note_on_c, 9, 42, 0
1, 54000, Note_on_c, 9, 42, 110
1, 54119, Note_on_c, 9, 42, 0
1, 54120, Note_on_c, 9, 42, 104
1, 54239, Note_on_c, 9, 36, 0
1, 54239, Note_on_c, 9, 42, 0
1, 54240, Note_on_c, 9, 54, 92
1, 54240, Note_on_c, 9, 56, 121
1, 54240, Note_on_c, 9, 42, 110
1, 54479, Note_on_c, 9, 54, 0
1, 54479, Note_on_c, 9, 56, 0
1, 54479, Note_on_c, 9, 42, 0
1, 54480, Note_on_c, 9, 54, 98
1, 54480, Note_on_c, 9, 42, 109
1, 54480, Note_on_c, 9, 36, 125
1, 54719, Note_on_c, 9, 54, 0
1, 54719, Note_on_c, 9, 42, 0
1, 54719, Note_on_c, 9, 36, 0
1, 54720, Note_on_c, 9, 54, 105
1, 54720, Note_on_c, 9, 56, 121
1, 54720, Note_on_c, 9, 42, 121
1, 54720, Note_on_c, 9, 36, 125
1, 54959, Note_on_c, 9, 54, 0
1, 54959, Note_on_c, 9, 56, 0
1, 54959, Note_on_c, 9, 42, 0
1, 54960, Note_on_c, 9, 70, 123
1, 54960, Note_on_c, 9, 42, 106
1, 55199, Note_on_c, 9, 36, 0
1, 55199, Note_on_c, 9, 70, 0
1, 55199, Note_on_c, 9, 42, 0
1, 55200, Note_on_c, 9, 54, 105
1, 55200, Note_on_c, 9, 56, 121
1, 55200, Note_on_c, 9, 68, 69
1, 55200, Note_on_c, 9, 42, 119
1, 55439, Note_on_c, 9, 54, 0
1, 55439, Note_on_c, 9, 56, 0
1, 55439, Note_on_c, 9, 68, 0
1, 55439, Note_on_c, 9, 42, 0
1, 55440, Note_on_c, 9, 69, 113
1, 55440, Note_on_c, 9, 42, 106
1, 55679, Note_on_c, 9, 69, 0
1, 55679, Note_on_c, 9, 42, 0
1, 55680, Note_on_c, 9, 54, 104
1, 55680, Note_on_c, 9, 56, 124
1, 55680, Note_on_c, 9, 69, 117
1, 55680, Note_on_c, 9, 42, 117
1, 55680, Note_on_c, 9, 36, 125
1, 55919, Note_on_c, 9, 54, 0
1, 55919, Note_on_c, 9, 56, 0
1, 55919, Note_on_c, 9, 69, 0
1, 55919, Note_on_c, 9, 42, 0
1, 55920, Note_on_c, 9, 42, 111
1, 56039, Note_on_c, 9, 42, 0
1, 56040, Note_on_c, 9, 42, 105
1, 56159, Note_on_c, 9, 36, 0
1, 56159, Note_on_c, 9, 42, 0
1, 56160, Note_on_c, 9, 54, 93
1, 56160, Note_on_c, 9, 56, 121
1, 56160, Note_on_c, 9, 42, 111
1, 56399, Note_on_c, 9, 54, 0
1, 56399, Note_on_c, 9, 56, 0
1, 56399, Note_on_c, 9, 42, 0
1, 56400, Note_on_c, 9, 54, 99
1, 56400, Note_on_c, 9, 42, 108
1, 56400, Note_on_c, 9, 36, 125
1, 56639, Note_on_c, 9, 54, 0
1, 56639, Note_on_c, 9, 42, 0
1, 56639, Note_on_c, 9, 36, 0
1, 56640, Note_on_c, 9, 36, 125
1, 56655, Note_on_c, 9, 54, 104
1, 56655, Note_on_c, 9, 56, 121
1, 56655, Note_on_c, 9, 42, 119
1, 56879, Note_on_c, 9, 54, 0
1, 56879, Note_on_c, 9, 56, 0
1, 56879, Note_on_c, 9, 42, 0
1, 56880, Note_on_c, 9, 70, 118
1, 56880, Note_on_c, 9, 42, 102
1, 57119, Note_on_c, 9, 36, 0
1, 57119, Note_on_c, 9, 70, 0
1, 57119, Note_on_c, 9, 42, 0
1, 57120, Note_on_c, 9, 54, 104
1, 57120, Note_on_c, 9, 56, 121
1, 57120, Note_on_c, 9, 68, 69
1, 57120, Note_on_c, 9, 42, 119
1, 57359, Note_on_c, 9, 54, 0
1, 57359, Note_on_c, 9, 56, 0
1, 57359, Note_on_c, 9, 68, 0
1, 57359, Note_on_c, 9, 42, 0
1, 57360, Note_on_c, 9, 69, 111
1, 57360, Note_on_c, 9, 42, 107
1, 57599, Note_on_c, 9, 69, 0
1, 57599, Note_on_c, 9, 42, 0
1, 57600, Note_on_c, 9, 54, 106
1, 57600, Note_on_c, 9, 56, 124
1, 57600, Note_on_c, 9, 69, 125
1, 57600, Note_on_c, 9, 42, 117
1, 57600, Note_on_c, 9, 36, 125
1, 57839, Note_on_c, 9, 54, 0
1, 57839, Note_on_c, 9, 56, 0
1, 57839, Note_on_c, 9, 69, 0
1, 57839, Note_on_c, 9, 42, 0
1, 57840, Note_on_c, 9, 42, 114
1, 57959, Note_on_c, 9, 42, 0
1, 57960, Note_on_c, 9, 42, 108
1, 58079, Note_on_c, 9, 36, 0
1, 58079, Note_on_c, 9, 42, 0
1, 58080, Note_on_c, 9, 54, 86
1, 58080, Note_on_c, 9, 56, 121
1, 58080, Note_on_c, 9, 42, 111
1, 58319, Note_on_c, 9, 54, 0
1, 58319, Note_on_c, 9, 56, 0
1, 58319, Note_on_c, 9, 42, 0
1, 58320, Note_on_c, 9, 54, 97
1, 58320, Note_on_c, 9, 42, 106
1, 58320, Note_on_c, 9, 36, 125
1, 58559, Note_on_c, 9, 54, 0
1, 58559, Note_on_c, 9, 42, 0
1, 58559, Note_on_c, 9, 36, 0
1, 58560, Note_on_c, 9, 56, 121
1, 58560, Note_on_c, 9, 42, 116
1, 58560, Note_on_c, 9, 57, 104
1, 58560, Note_on_c, 9, 36, 125
1, 58799, Note_on_c, 9, 56, 0
1, 58799, Note_on_c, 9, 42, 0
1, 58799, Note_on_c, 9, 57, 0
1, 58800, Note_on_c, 9, 70, 118
1, 58800, Note_on_c, 9, 42, 104
1, 59039, Note_on_c, 9, 36, 0
1, 59039, Note_on_c, 9, 70, 0
1, 59039, Note_on_c, 9, 42, 0
1, 59040, Note_on_c, 9, 56, 121
1, 59040, Note_on_c, 9, 68, 69
1, 59040, Note_on_c, 9, 42, 114
1, 59040, Note_on_c, 9, 57, 103
1, 59279, Note_on_c, 9, 56, 0
1, 59279, Note_on_c, 9, 68, 0
1, 59279, Note_on_c, 9, 42, 0
1, 59279, Note_on_c, 9, 57, 0
1, 59280, Note_on_c, 9, 69, 114
1, 59280, Note_on_c, 9, 42, 109
1, 59519, Note_on_c, 9, 69, 0
1, 59519, Note_on_c, 9, 42, 0
1, 59520, Note_on_c, 9, 54, 105
1, 59520, Note_on_c, 9, 56, 124
1, 59520, Note_on_c, 9, 69, 122
1, 59520, Note_on_c, 9, 42, 115
1, 59520, Note_on_c, 9, 36, 125
1, 59759, Note_on_c, 9, 54, 0
1, 59759, Note_on_c, 9, 56, 0
1, 59759, Note_on_c, 9, 69, 0
1, 59759, Note_on_c, 9, 42, 0
1, 59760, Note_on_c, 9, 42, 109
1, 59879, Note_on_c, 9, 42, 0
1, 59880, Note_on_c, 9, 42, 104
1, 59999, Note_on_c, 9, 36, 0
1, 59999, Note_on_c, 9, 42, 0
1, 60000, Note_on_c, 9, 54, 88
1, 60000, Note_on_c, 9, 56, 121
1, 60000, Note_on_c, 9, 42, 108
1, 60239, Note_on_c, 9, 54, 0
1, 60239, Note_on_c, 9, 56, 0
1, 60239, Note_on_c, 9, 42, 0
1, 60240, Note_on_c, 9, 54, 100
1, 60240, Note_on_c, 9, 42, 106
1, 60240, Note_on_c, 9, 36, 125
1, 60479, Note_on_c, 9, 54, 0
1, 60479, Note_on_c, 9, 42, 0
1, 60479, Note_on_c, 9, 36, 0
1, 60480, Note_on_c, 9, 54, 104
1, 60480, Note_on_c, 9, 56, 121
1, 60480, Note_on_c, 9, 42, 115
1, 60480, Note_on_c, 9, 36, 125
1, 60719, Note_on_c, 9, 54, 0
1, 60719, Note_on_c, 9, 56, 0
1, 60719, Note_on_c, 9, 42, 0
1, 60720, Note_on_c, 9, 70, 118
1, 60720, Note_on_c, 9, 42, 102
1, 60959, Note_on_c, 9, 36, 0
1, 60959, Note_on_c, 9, 70, 0
1, 60959, Note_on_c, 9, 42, 0
1, 60960, Note_on_c, 9, 54, 104
1, 60960, Note_on_c, 9, 56, 121
1, 60960, Note_on_c, 9, 68, 69
1, 60960, Note_on_c, 9, 42, 114
1, 61199, Note_on_c, 9, 54, 0
1, 61199, Note_on_c, 9, 56, 0
1, 61199, Note_on_c, 9, 68, 0
1, 61199, Note_on_c, 9, 42, 0
1, 61200, Note_on_c, 9, 69, 113
1, 61200, Note_on_c, 9, 42, 104
1, 61439, Note_on_c, 9, 69, 0
1, 61439, Note_on_c, 9, 42, 0
1, 61440, Note_on_c, 9, 54, 104
1, 61440, Note_on_c, 9, 56, 124
1, 61440, Note_on_c, 9, 69, 120
1, 61440, Note_on_c, 9, 42, 117
1, 61440, Note_on_c, 9, 36, 125
1, 61679, Note_on_c, 9, 54, 0
1, 61679, Note_on_c, 9, 56, 0
1, 61679, Note_on_c, 9, 69, 0
1, 61679, Note_on_c, 9, 42, 0
1, 61680, Note_on_c, 9, 42, 109
1, 61799, Note_on_c, 9, 42, 0
1, 61800, Note_on_c, 9, 42, 104
1, 61919, Note_on_c, 9, 36, 0
1, 61919, Note_on_c, 9, 42, 0
1, 61920, Note_on_c, 9, 54, 86
1, 61920, Note_on_c, 9, 56, 121
1, 61920, Note_on_c, 9, 42, 113
1, 62159, Note_on_c, 9, 54, 0
1, 62159, Note_on_c, 9, 56, 0
1, 62159, Note_on_c, 9, 42, 0
1, 62160, Note_on_c, 9, 54, 96
1, 62160, Note_on_c, 9, 42, 106
1, 62160, Note_on_c, 9, 36, 125
1, 62399, Note_on_c, 9, 54, 0
1, 62399, Note_on_c, 9, 42, 0
1, 62399, Note_on_c, 9, 36, 0
1, 62400, Note_on_c, 9, 54, 107
1, 62400, Note_on_c, 9, 56, 121
1, 62400, Note_on_c, 9, 42, 113
1, 62400, Note_on_c, 9, 36, 125
1, 62639, Note_on_c, 9, 54, 0
1, 62639, Note_on_c, 9, 56, 0
1, 62639, Note_on_c, 9, 42, 0
1, 62640, Note_on_c, 9, 70, 118
1, 62640, Note_on_c, 9, 42, 102
1, 62879, Note_on_c, 9, 36, 0
1, 62879, Note_on_c, 9, 70, 0
1, 62879, Note_on_c, 9, 42, 0
1, 62880, Note_on_c, 9, 54, 104
1, 62880, Note_on_c, 9, 56, 121
1, 62880, Note_on_c, 9, 68, 69
1, 62880, Note_on_c, 9, 42, 117
1, 63119, Note_on_c, 9, 54, 0
1, 63119, Note_on_c, 9, 56, 0
1, 63119, Note_on_c, 9, 68, 0
1, 63119, Note_on_c, 9, 42, 0
1, 63120, Note_on_c, 9, 69, 113
1, 63120, Note_on_c, 9, 42, 96
1, 63359, Note_on_c, 9, 69, 0
1, 63359, Note_on_c, 9, 42, 0
1, 63360, Note_on_c, 9, 54, 106
1, 63360, Note_on_c, 9, 56, 124
1, 63360, Note_on_c, 9, 69, 117
1, 63360, Note_on_c, 9, 42, 114
1, 63360, Note_on_c, 9, 36, 125
1, 63599, Note_on_c, 9, 54, 0
1, 63599, Note_on_c, 9, 56, 0
1, 63599, Note_on_c, 9, 69, 0
1, 63599, Note_on_c, 9, 42, 0
1, 63600, Note_on_c, 9, 42, 109
1, 63719, Note_on_c, 9, 42, 0
1, 63720, Note_on_c, 9, 42, 102
1, 63839, Note_on_c, 9, 36, 0
1, 63839, Note_on_c, 9, 42, 0
1, 63840, Note_on_c, 9, 54, 92
1, 63840, Note_on_c, 9, 56, 121
1, 63840, Note_on_c, 9, 42, 113
1, 64079, Note_on_c, 9, 54, 0
1, 64079, Note_on_c, 9, 56, 0
1, 64079, Note_on_c, 9, 42, 0
1, 64080, Note_on_c, 9, 54, 99
1, 64080, Note_on_c, 9, 42, 104
1, 64080, Note_on_c, 9, 36, 125
1, 64319, Note_on_c, 9, 54, 0
1, 64319, Note_on_c, 9, 42, 0
1, 64319, Note_on_c, 9, 36, 0
1, 64320, Note_on_c, 9, 54, 111
1, 64320, Note_on_c, 9, 56, 121
1, 64320, Note_on_c, 9, 42, 110
1, 64320, Note_on_c, 9, 36, 125
1, 64559, Note_on_c, 9, 54, 0
1, 64559, Note_on_c, 9, 56, 0
1, 64559, Note_on_c, 9, 42, 0
1, 64560, Note_on_c, 9, 38, 104
1, 64560, Note_on_c, 9, 70, 119
1, 64560, Note_on_c, 9, 42, 107
1, 64679, Note_on_c, 9, 38, 0
1, 64679, Note_on_c, 9, 70, 0
1, 64679, Note_on_c, 9, 42, 0
1, 64680, Note_on_c, 9, 38, 105
1, 64799, Note_on_c, 9, 36, 0
1, 64799, Note_on_c, 9, 38, 0
1, 64800, Note_on_c, 9, 38, 118
1, 64800, Note_on_c, 9, 56, 121
1, 64800, Note_on_c, 9, 68, 69
1, 64800, Note_on_c, 9, 42, 115
1, 64919, Note_on_c, 9, 38, 0
1, 64919, Note_on_c, 9, 56, 0
1, 64919, Note_on_c, 9, 68, 0
1, 64919, Note_on_c, 9, 42, 0
1, 64920, Note_on_c, 9, 38, 125
1, 65039, Note_on_c, 9, 38, 0
1, 65040, Note_on_c, 9, 45, 125
1, 65040, Note_on_c, 9, 69, 109
1, 65040, Note_on_c, 9, 44, 125
1, 65279, Note_on_c, 9, 45, 0
1, 65279, Note_on_c, 9, 69, 0
1, 65279, Note_on_c, 9, 44, 0
1, 65280, Note_on_c, 9, 56, 124
1, 65280, Note_on_c, 9, 69, 124
1, 65280, Note_on_c, 9, 42, 119
1, 65280, Note_on_c, 9, 49, 123
1, 65280, Note_on_c, 9, 36, 125
1, 65519, Note_on_c, 9, 56, 0
1, 65519, Note_on_c, 9, 69, 0
1, 65519, Note_on_c, 9, 42, 0
1, 65519, Note_on_c, 9, 49, 0
1, 65520, Note_on_c, 9, 42, 116
1, 65639, Note_on_c, 9, 42, 0
1, 65640, Note_on_c, 9, 42, 113
1, 65759, Note_on_c, 9, 36, 0
1, 65759, Note_on_c, 9, 42, 0
1, 65760, Note_on_c, 9, 38, 125
1, 65760, Note_on_c, 9, 56, 121
1, 65760, Note_on_c, 9, 68, 69
1, 65760, Note_on_c, 9, 42, 114
1, 65999, Note_on_c, 9, 38, 0
1, 65999, Note_on_c, 9, 56, 0
1, 65999, Note_on_c, 9, 68, 0
1, 65999, Note_on_c, 9, 42, 0
1, 66000, Note_on_c, 9, 42, 115
1, 66000, Note_on_c, 9, 36, 125
1, 66239, Note_on_c, 9, 42, 0
1, 66239, Note_on_c, 9, 36, 0
1, 66240, Note_on_c, 9, 56, 121
1, 66240, Note_on_c, 9, 42, 117
1, 66240, Note_on_c, 9, 36, 125
1, 66479, Note_on_c, 9, 56, 0
1, 66479, Note_on_c, 9, 42, 0
1, 66480, Note_on_c, 9, 70, 119
1, 66480, Note_on_c, 9, 42, 108
1, 66719, Note_on_c, 9, 36, 0
1, 66719, Note_on_c, 9, 70, 0
1, 66719, Note_on_c, 9, 42, 0
1, 66720, Note_on_c, 9, 38, 125
1, 66720, Note_on_c, 9, 56, 121
1, 66720, Note_on_c, 9, 68, 69
1, 66720, Note_on_c, 9, 42, 121
1, 66959, Note_on_c, 9, 38, 0
1, 66959, Note_on_c, 9, 56, 0
1, 66959, Note_on_c, 9, 68, 0
1, 66959, Note_on_c, 9, 42, 0
1, 66960, Note_on_c, 9, 69, 112
1, 66960, Note_on_c, 9, 42, 106
1, 67199, Note_on_c, 9, 69, 0
1, 67199, Note_on_c, 9, 42, 0
1, 67200, Note_on_c, 9, 56, 124
1, 67200, Note_on_c, 9, 69, 115
1, 67200, Note_on_c, 9, 42, 115
1, 67200, Note_on_c, 9, 36, 125
1, 67439, Note_on_c, 9, 56, 0
1, 67439, Note_on_c, 9, 69, 0
1, 67439, Note_on_c, 9, 42, 0
1, 67440, Note_on_c, 9, 42, 108
1, 67559, Note_on_c, 9, 42, 0
1, 67560, Note_on_c, 9, 42, 103
1, 67679, Note_on_c, 9, 36, 0
1, 67679, Note_on_c, 9, 42, 0
1, 67680, Note_on_c, 9, 38, 125
1, 67680, Note_on_c, 9, 56, 121
1, 67680, Note_on_c, 9, 68, 69
1, 67680, Note_on_c, 9, 42, 109
1, 67919, Note_on_c, 9, 38, 0
1, 67919, Note_on_c, 9, 56, 0
1, 67919, Note_on_c, 9, 68, 0
1, 67919, Note_on_c, 9, 42, 0
1, 67920, Note_on_c, 9, 42, 113
1, 67920, Note_on_c, 9, 36, 125
1, 68159, Note_on_c, 9, 42, 0
1, 68159, Note_on_c, 9, 36, 0
1, 68160, Note_on_c, 9, 56, 121
1, 68160, Note_on_c, 9, 42, 111
1, 68160, Note_on_c, 9, 36, 125
1, 68399, Note_on_c, 9, 56, 0
1, 68399, Note_on_c, 9, 42, 0
1, 68400, Note_on_c, 9, 70, 118
1, 68400, Note_on_c, 9, 42, 107
1, 68639, Note_on_c, 9, 36, 0
1, 68639, Note_on_c, 9, 70, 0
1, 68639, Note_on_c, 9, 42, 0
1, 68640, Note_on_c, 9, 38, 125
1, 68640, Note_on_c, 9, 56, 121
1, 68640, Note_on_c, 9, 68, 69
1, 68640, Note_on_c, 9, 42, 117
1, 68879, Note_on_c, 9, 38, 0
1, 68879, Note_on_c, 9, 56, 0
1, 68879, Note_on_c, 9, 68, 0
1, 68879, Note_on_c, 9, 42, 0
1, 68880, Note_on_c, 9, 69, 112
1, 68880, Note_on_c, 9, 42, 107
1, 69119, Note_on_c, 9, 69, 0
1, 69119, Note_on_c, 9, 42, 0
1, 69120, Note_on_c, 9, 56, 124
1, 69120, Note_on_c, 9, 69, 122
1, 69120, Note_on_c, 9, 42, 119
1, 69120, Note_on_c, 9, 36, 125
1, 69359, Note_on_c, 9, 56, 0
1, 69359, Note_on_c, 9, 69, 0
1, 69359, Note_on_c, 9, 42, 0
1, 69360, Note_on_c, 9, 42, 109
1, 69479, Note_on_c, 9, 42, 0
1, 69480, Note_on_c, 9, 42, 113
1, 69599, Note_on_c, 9, 36, 0
1, 69599, Note_on_c, 9, 42, 0
1, 69600, Note_on_c, 9, 38, 125
1, 69600, Note_on_c, 9, 56, 121
1, 69600, Note_on_c, 9, 68, 69
1, 69600, Note_on_c, 9, 42, 110
1, 69839, Note_on_c, 9, 38, 0
1, 69839, Note_on_c, 9, 56, 0
1, 69839, Note_on_c, 9, 68, 0
1, 69839, Note_on_c, 9, 42, 0
1, 69840, Note_on_c, 9, 42, 107
1, 69840, Note_on_c, 9, 36, 125
1, 70079, Note_on_c, 9, 42, 0
1, 70079, Note_on_c, 9, 36, 0
1, 70080, Note_on_c, 9, 56, 121
1, 70080, Note_on_c, 9, 42, 116
1, 70080, Note_on_c, 9, 36, 125
1, 70319, Note_on_c, 9, 56, 0
1, 70319, Note_on_c, 9, 42, 0
1, 70320, Note_on_c, 9, 70, 121
1, 70320, Note_on_c, 9, 42, 113
1, 70559, Note_on_c, 9, 36, 0
1, 70559, Note_on_c, 9, 70, 0
1, 70559, Note_on_c, 9, 42, 0
1, 70560, Note_on_c, 9, 38, 125
1, 70560, Note_on_c, 9, 56, 121
1, 70560, Note_on_c, 9, 68, 69
1, 70560, Note_on_c, 9, 42, 115
1, 70799, Note_on_c, 9, 38, 0
1, 70799, Note_on_c, 9, 56, 0
1, 70799, Note_on_c, 9, 68, 0
1, 70799, Note_on_c, 9, 42, 0
1, 70800, Note_on_c, 9, 69, 109
1, 70800, Note_on_c, 9, 42, 106
1, 71039, Note_on_c, 9, 69, 0
1, 71039, Note_on_c, 9, 42, 0
1, 71040, Note_on_c, 9, 56, 124
1, 71040, Note_on_c, 9, 69, 114
1, 71040, Note_on_c, 9, 42, 116
1, 71040, Note_on_c, 9, 36, 125
1, 71279, Note_on_c, 9, 56, 0
1, 71279, Note_on_c, 9, 69, 0
1, 71279, Note_on_c, 9, 42, 0
1, 71280, Note_on_c, 9, 42, 110
1, 71399, Note_on_c, 9, 42, 0
1, 71400, Note_on_c, 9, 42, 110
1, 71519, Note_on_c, 9, 36, 0
1, 71519, Note_on_c, 9, 42, 0
1, 71520, Note_on_c, 9, 38, 125
1, 71520, Note_on_c, 9, 56, 121
1, 71520, Note_on_c, 9, 68, 69
1, 71520, Note_on_c, 9, 42, 108
1, 71759, Note_on_c, 9, 38, 0
1, 71759, Note_on_c, 9, 56, 0
1, 71759, Note_on_c, 9, 68, 0
1, 71759, Note_on_c, 9, 42, 0
1, 71760, Note_on_c, 9, 42, 105
1, 71760, Note_on_c, 9, 36, 125
1, 71999, Note_on_c, 9, 42, 0
1, 71999, Note_on_c, 9, 36, 0
1, 72000, Note_on_c, 9, 56, 121
1, 72000, Note_on_c, 9, 42, 116
1, 72000, Note_on_c, 9, 36, 125
1, 72239, Note_on_c, 9, 56, 0
1, 72239, Note_on_c, 9, 42, 0
1, 72240, Note_on_c, 9, 70, 109
1, 72240, Note_on_c, 9, 42, 110
1, 72479, Note_on_c, 9, 36, 0
1, 72479, Note_on_c, 9, 70, 0
1, 72479, Note_on_c, 9, 42, 0
1, 72480, Note_on_c, 9, 38, 125
1, 72480, Note_on_c, 9, 56, 121
1, 72480, Note_on_c, 9, 68, 69
1, 72480, Note_on_c, 9, 42, 115
1, 72719, Note_on_c, 9, 38, 0
1, 72719, Note_on_c, 9, 56, 0
1, 72719, Note_on_c, 9, 68, 0
1, 72719, Note_on_c, 9, 42, 0
1, 72720, Note_on_c, 9, 69, 110
1, 72720, Note_on_c, 9, 44, 114
1, 72959, Note_on_c, 9, 69, 0
1, 72959, Note_on_c, 9, 44, 0
1, 72960, Note_on_c, 9, 56, 124
1, 72960, Note_on_c, 9, 69, 117
1, 72960, Note_on_c, 9, 42, 115
1, 72960, Note_on_c, 9, 36, 125
1, 73199, Note_on_c, 9, 56, 0
1, 73199, Note_on_c, 9, 69, 0
1, 73199, Note_on_c, 9, 42, 0
1, 73200, Note_on_c, 9, 42, 111
1, 73319, Note_on_c, 9, 42, 0
1, 73320, Note_on_c, 9, 42, 113
1, 73439, Note_on_c, 9, 36, 0
1, 73439, Note_on_c, 9, 42, 0
1, 73440, Note_on_c, 9, 38, 125
1, 73440, Note_on_c, 9, 56, 121
1, 73440, Note_on_c, 9, 68, 69
1, 73440, Note_on_c, 9, 42, 113
1, 73679, Note_on_c, 9, 38, 0
1, 73679, Note_on_c, 9, 56, 0
1, 73679, Note_on_c, 9, 68, 0
1, 73679, Note_on_c, 9, 42, 0
1, 73680, Note_on_c, 9, 42, 111
1, 73680, Note_on_c, 9, 36, 125
1, 73919, Note_on_c, 9, 42, 0
1, 73919, Note_on_c, 9, 36, 0
1, 73920, Note_on_c, 9, 56, 121
1, 73920, Note_on_c, 9, 42, 117
1, 73920, Note_on_c, 9, 36, 125
1, 74159, Note_on_c, 9, 56, 0
1, 74159, Note_on_c, 9, 42, 0
1, 74160, Note_on_c, 9, 70, 119
1, 74160, Note_on_c, 9, 42, 109
1, 74399, Note_on_c, 9, 36, 0
1, 74399, Note_on_c, 9, 70, 0
1, 74399, Note_on_c, 9, 42, 0
1, 74400, Note_on_c, 9, 38, 125
1, 74400, Note_on_c, 9, 56, 121
1, 74400, Note_on_c, 9, 68, 69
1, 74400, Note_on_c, 9, 42, 119
1, 74639, Note_on_c, 9, 38, 0
1, 74639, Note_on_c, 9, 56, 0
1, 74639, Note_on_c, 9, 68, 0
1, 74639, Note_on_c, 9, 42, 0
1, 74640, Note_on_c, 9, 69, 102
1, 74640, Note_on_c, 9, 42, 111
1, 74879, Note_on_c, 9, 69, 0
1, 74879, Note_on_c, 9, 42, 0
1, 74880, Note_on_c, 9, 56, 124
1, 74880, Note_on_c, 9, 69, 119
1, 74880, Note_on_c, 9, 42, 116
1, 74880, Note_on_c, 9, 36, 125
1, 75119, Note_on_c, 9, 56, 0
1, 75119, Note_on_c, 9, 69, 0
1, 75119, Note_on_c, 9, 42, 0
1, 75120, Note_on_c, 9, 42, 111
1, 75239, Note_on_c, 9, 42, 0
1, 75240, Note_on_c, 9, 42, 113
1, 75359, Note_on_c, 9, 36, 0
1, 75359, Note_on_c, 9, 42, 0
1, 75360, Note_on_c, 9, 38, 125
1, 75360, Note_on_c, 9, 56, 121
1, 75360, Note_on_c, 9, 68, 69
1, 75360, Note_on_c, 9, 42, 113
1, 75599, Note_on_c, 9, 38, 0
1, 75599, Note_on_c, 9, 56, 0
1, 75599, Note_on_c, 9, 68, 0
1, 75599, Note_on_c, 9, 42, 0
1, 75600, Note_on_c, 9, 42, 109
1, 75600, Note_on_c, 9, 36, 125
1, 75839, Note_on_c, 9, 42, 0
1, 75839, Note_on_c, 9, 36, 0
1, 75840, Note_on_c, 9, 56, 121
1, 75840, Note_on_c, 9, 42, 116
1, 75840, Note_on_c, 9, 36, 125
1, 76079, Note_on_c, 9, 56, 0
1, 76079, Note_on_c, 9, 42, 0
1, 76080, Note_on_c, 9, 70, 117
1, 76080, Note_on_c, 9, 42, 108
1, 76319, Note_on_c, 9, 36, 0
1, 76319, Note_on_c, 9, 70, 0
1, 76319, Note_on_c, 9, 42, 0
1, 76320, Note_on_c, 9, 38, 125
1, 76320, Note_on_c, 9, 56, 121
1, 76320, Note_on_c, 9, 68, 69
1, 76320, Note_on_c, 9, 42, 117
1, 76559, Note_on_c, 9, 38, 0
1, 76559, Note_on_c, 9, 56, 0
1, 76559, Note_on_c, 9, 68, 0
1, 76559, Note_on_c, 9, 42, 0
1, 76560, Note_on_c, 9, 69, 110
1, 76560, Note_on_c, 9, 42, 109
1, 76799, Note_on_c, 9, 69, 0
1, 76799, Note_on_c, 9, 42, 0
1, 76800, Note_on_c, 9, 56, 124
1, 76800, Note_on_c, 9, 69, 115
1, 76800, Note_on_c, 9, 42, 119
1, 76800, Note_on_c, 9, 36, 125
1, 77039, Note_on_c, 9, 56, 0
1, 77039, Note_on_c, 9, 69, 0
1, 77039, Note_on_c, 9, 42, 0
1, 77040, Note_on_c, 9, 42, 111
1, 77159, Note_on_c, 9, 42, 0
1, 77160, Note_on_c, 9, 42, 113
1, 77279, Note_on_c, 9, 36, 0
1, 77279, Note_on_c, 9, 42, 0
1, 77280, Note_on_c, 9, 38, 125
1, 77280, Note_on_c, 9, 56, 121
1, 77280, Note_on_c, 9, 68, 69
1, 77280, Note_on_c, 9, 42, 113
1, 77519, Note_on_c, 9, 38, 0
1, 77519, Note_on_c, 9, 56, 0
1, 77519, Note_on_c, 9, 68, 0
1, 77519, Note_on_c, 9, 42, 0
1, 77520, Note_on_c, 9, 42, 113
1, 77520, Note_on_c, 9, 36, 125
1, 77759, Note_on_c, 9, 42, 0
1, 77759, Note_on_c, 9, 36, 0
1, 77760, Note_on_c, 9, 56, 121
1, 77760, Note_on_c, 9, 42, 115
1, 77760, Note_on_c, 9, 36, 125
1, 77999, Note_on_c, 9, 56, 0
1, 77999, Note_on_c, 9, 42, 0
1, 78000, Note_on_c, 9, 70, 117
1, 78000, Note_on_c, 9, 42, 107
1, 78239, Note_on_c, 9, 36, 0
1, 78239, Note_on_c, 9, 70, 0
1, 78239, Note_on_c, 9, 42, 0
1, 78240, Note_on_c, 9, 38, 125
1, 78240, Note_on_c, 9, 56, 121
1, 78240, Note_on_c, 9, 68, 69
1, 78240, Note_on_c, 9, 42, 119
1, 78479, Note_on_c, 9, 38, 0
1, 78479, Note_on_c, 9, 56, 0
1, 78479, Note_on_c, 9, 68, 0
1, 78479, Note_on_c, 9, 42, 0
1, 78480, Note_on_c, 9, 69, 112
1, 78480, Note_on_c, 9, 42, 103
1, 78719, Note_on_c, 9, 69, 0
1, 78719, Note_on_c, 9, 42, 0
1, 78720, Note_on_c, 9, 56, 124
1, 78720, Note_on_c, 9, 69, 115
1, 78720, Note_on_c, 9, 42, 115
1, 78720, Note_on_c, 9, 36, 125
1, 78959, Note_on_c, 9, 56, 0
1, 78959, Note_on_c, 9, 69, 0
1, 78959, Note_on_c, 9, 42, 0
1, 78960, Note_on_c, 9, 42, 108
1, 79079, Note_on_c, 9, 42, 0
1, 79080, Note_on_c, 9, 42, 113
1, 79199, Note_on_c, 9, 36, 0
1, 79199, Note_on_c, 9, 42, 0
1, 79200, Note_on_c, 9, 38, 125
1, 79200, Note_on_c, 9, 56, 121
1, 79200, Note_on_c, 9, 68, 69
1, 79200, Note_on_c, 9, 42, 113
1, 79439, Note_on_c, 9, 38, 0
1, 79439, Note_on_c, 9, 56, 0
1, 79439, Note_on_c, 9, 68, 0
1, 79439, Note_on_c, 9, 42, 0
1, 79440, Note_on_c, 9, 42, 107
1, 79440, Note_on_c, 9, 36, 125
1, 79679, Note_on_c, 9, 42, 0
1, 79679, Note_on_c, 9, 36, 0
1, 79680, Note_on_c, 9, 56, 121
1, 79680, Note_on_c, 9, 42, 114
1, 79680, Note_on_c, 9, 36, 125
1, 79919, Note_on_c, 9, 56, 0
1, 79919, Note_on_c, 9, 42, 0
1, 79920, Note_on_c, 9, 38, 100
1, 79920, Note_on_c, 9, 70, 118
1, 79920, Note_on_c, 9, 42, 107
1, 80039, Note_on_c, 9, 38, 0
1, 80039, Note_on_c, 9, 70, 0
1, 80039, Note_on_c, 9, 42, 0
1, 80040, Note_on_c, 9, 38, 108
1, 80159, Note_on_c, 9, 36, 0
1, 80159, Note_on_c, 9, 38, 0
1, 80160, Note_on_c, 9, 38, 121
1, 80160, Note_on_c, 9, 56, 121
1, 80160, Note_on_c, 9, 68, 69
1, 80160, Note_on_c, 9, 42, 119
1, 80279, Note_on_c, 9, 38, 0
1, 80279, Note_on_c, 9, 56, 0
1, 80279, Note_on_c, 9, 68, 0
1, 80279, Note_on_c, 9, 42, 0
1, 80280, Note_on_c, 9, 38, 125
1, 80399, Note_on_c, 9, 38, 0
1, 80400, Note_on_c, 9, 45, 125
1, 80400, Note_on_c, 9, 69, 112
1, 80400, Note_on_c, 9, 44, 121
1, 80639, Note_on_c, 9, 45, 0
1, 80639, Note_on_c, 9, 69, 0
1, 80639, Note_on_c, 9, 44, 0
1, 80640, Note_on_c, 9, 56, 124
1, 80640, Note_on_c, 9, 69, 113
1, 80640, Note_on_c, 9, 42, 117
1, 80640, Note_on_c, 9, 49, 123
1, 80640, Note_on_c, 9, 36, 125
1, 80879, Note_on_c, 9, 56, 0
1, 80879, Note_on_c, 9, 69, 0
1, 80879, Note_on_c, 9, 42, 0
1, 80879, Note_on_c, 9, 49, 0
1, 80880, Note_on_c, 9, 42, 115
1, 80999, Note_on_c, 9, 42, 0
1, 81000, Note_on_c, 9, 42, 113
1, 81119, Note_on_c, 9, 36, 0
1, 81119, Note_on_c, 9, 42, 0
1, 81120, Note_on_c, 9, 38, 125
1, 81120, Note_on_c, 9, 56, 121
1, 81120, Note_on_c, 9, 68, 69
1, 81120, Note_on_c, 9, 42, 115
1, 81359, Note_on_c, 9, 38, 0
1, 81359, Note_on_c, 9, 56, 0
1, 81359, Note_on_c, 9, 68, 0
1, 81359, Note_on_c, 9, 42, 0
1, 81360, Note_on_c, 9, 42, 113
1, 81360, Note_on_c, 9, 36, 125
1, 81599, Note_on_c, 9, 42, 0
1, 81599, Note_on_c, 9, 36, 0
1, 81600, Note_on_c, 9, 56, 121
1, 81600, Note_on_c, 9, 42, 119
1, 81600, Note_on_c, 9, 36, 125
1, 81839, Note_on_c, 9, 56, 0
1, 81839, Note_on_c, 9, 42, 0
1, 81840, Note_on_c, 9, 70, 117
1, 81840, Note_on_c, 9, 42, 109
1, 82079, Note_on_c, 9, 36, 0
1, 82079, Note_on_c, 9, 70, 0
1, 82079, Note_on_c, 9, 42, 0
1, 82080, Note_on_c, 9, 38, 125
1, 82080, Note_on_c, 9, 56, 121
1, 82080, Note_on_c, 9, 68, 69
1, 82080, Note_on_c, 9, 42, 121
1, 82319, Note_on_c, 9, 38, 0
1, 82319, Note_on_c, 9, 56, 0
1, 82319, Note_on_c, 9, 68, 0
1, 82319, Note_on_c, 9, 42, 0
1, 82320, Note_on_c, 9, 69, 114
1, 82320, Note_on_c, 9, 42, 109
1, 82559, Note_on_c, 9, 69, 0
1, 82559, Note_on_c, 9, 42, 0
1, 82560, Note_on_c, 9, 56, 124
1, 82560, Note_on_c, 9, 69, 111
1, 82560, Note_on_c, 9, 42, 116
1, 82560, Note_on_c, 9, 36, 125
1, 82799, Note_on_c, 9, 56, 0
1, 82799, Note_on_c, 9, 69, 0
1, 82799, Note_on_c, 9, 42, 0
1, 82800, Note_on_c, 9, 42, 113
1, 82919, Note_on_c, 9, 42, 0
1, 82920, Note_on_c, 9, 42, 113
1, 83039, Note_on_c, 9, 36, 0
1, 83039, Note_on_c, 9, 42, 0
1, 83040, Note_on_c, 9, 38, 125
1, 83040, Note_on_c, 9, 56, 121
1, 83040, Note_on_c, 9, 68, 69
1, 83040, Note_on_c, 9, 42, 111
1, 83279, Note_on_c, 9, 38, 0
1, 83279, Note_on_c, 9, 56, 0
1, 83279, Note_on_c, 9, 68, 0
1, 83279, Note_on_c, 9, 42, 0
1, 83280, Note_on_c, 9, 42, 109
1, 83280, Note_on_c, 9, 36, 125
1, 83519, Note_on_c, 9, 42, 0
1, 83519, Note_on_c, 9, 36, 0
1, 83520, Note_on_c, 9, 56, 121
1, 83520, Note_on_c, 9, 42, 117
1, 83520, Note_on_c, 9, 36, 125
1, 83759, Note_on_c, 9, 56, 0
1, 83759, Note_on_c, 9, 42, 0
1, 83760, Note_on_c, 9, 70, 116
1, 83760, Note_on_c, 9, 42, 102
1, 83999, Note_on_c, 9, 36, 0
1, 83999, Note_on_c, 9, 70, 0
1, 83999, Note_on_c, 9, 42, 0
1, 84000, Note_on_c, 9, 38, 125
1, 84000, Note_on_c, 9, 56, 121
1, 84000, Note_on_c, 9, 68, 69
1, 84000, Note_on_c, 9, 42, 119
1, 84239, Note_on_c, 9, 38, 0
1, 84239, Note_on_c, 9, 56, 0
1, 84239, Note_on_c, 9, 68, 0
1, 84239, Note_on_c, 9, 42, 0
1, 84240, Note_on_c, 9, 69, 115
1, 84240, Note_on_c, 9, 42, 107
1, 84479, Note_on_c, 9, 69, 0
1, 84479, Note_on_c, 9, 42, 0
1, 84480, Note_on_c, 9, 56, 124
1, 84480, Note_on_c, 9, 69, 117
1, 84480, Note_on_c, 9, 42, 121
1, 84480, Note_on_c, 9, 36, 125
1, 84719, Note_on_c, 9, 56, 0
1, 84719, Note_on_c, 9, 69, 0
1, 84719, Note_on_c, 9, 42, 0
1, 84720, Note_on_c, 9, 42, 110
1, 84839, Note_on_c, 9, 42, 0
1, 84840, Note_on_c, 9, 42, 113
1, 84959, Note_on_c, 9, 36, 0
1, 84959, Note_on_c, 9, 42, 0
1, 84960, Note_on_c, 9, 38, 125
1, 84960, Note_on_c, 9, 56, 121
1, 84960, Note_on_c, 9, 68, 69
1, 84960, Note_on_c, 9, 42, 116
1, 85199, Note_on_c, 9, 38, 0
1, 85199, Note_on_c, 9, 56, 0
1, 85199, Note_on_c, 9, 68, 0
1, 85199, Note_on_c, 9, 42, 0
1, 85200, Note_on_c, 9, 42, 111
1, 85200, Note_on_c, 9, 36, 125
1, 85439, Note_on_c, 9, 42, 0
1, 85439, Note_on_c, 9, 36, 0
1, 85440, Note_on_c, 9, 56, 121
1, 85440, Note_on_c, 9, 42, 119
1, 85440, Note_on_c, 9, 36, 125
1, 85679, Note_on_c, 9, 56, 0
1, 85679, Note_on_c, 9, 42, 0
1, 85680, Note_on_c, 9, 70, 117
1, 85680, Note_on_c, 9, 42, 106
1, 85919, Note_on_c, 9, 36, 0
1, 85919, Note_on_c, 9, 70, 0
1, 85919, Note_on_c, 9, 42, 0
1, 85920, Note_on_c, 9, 38, 125
1, 85920, Note_on_c, 9, 56, 121
1, 85920, Note_on_c, 9, 68, 69
1, 85920, Note_on_c, 9, 42, 121
1, 86159, Note_on_c, 9, 38, 0
1, 86159, Note_on_c, 9, 56, 0
1, 86159, Note_on_c, 9, 68, 0
1, 86159, Note_on_c, 9, 42, 0
1, 86160, Note_on_c, 9, 69, 114
1, 86160, Note_on_c, 9, 42, 107
1, 86399, Note_on_c, 9, 69, 0
1, 86399, Note_on_c, 9, 42, 0
1, 86400, Note_on_c, 9, 56, 124
1, 86400, Note_on_c, 9, 69, 119
1, 86400, Note_on_c, 9, 42, 117
1, 86400, Note_on_c, 9, 36, 125
1, 86639, Note_on_c, 9, 56, 0
1, 86639, Note_on_c, 9, 69, 0
1, 86639, Note_on_c, 9, 42, 0
1, 86640, Note_on_c, 9, 42, 111
1, 86759, Note_on_c, 9, 42, 0
1, 86760, Note_on_c, 9, 42, 107
1, 86879, Note_on_c, 9, 36, 0
1, 86879, Note_on_c, 9, 42, 0
1, 86880, Note_on_c, 9, 38, 125
1, 86880, Note_on_c, 9, 56, 121
1, 86880, Note_on_c, 9, 68, 69
1, 86880, Note_on_c, 9, 42, 110
1, 87119, Note_on_c, 9, 38, 0
1, 87119, Note_on_c, 9, 56, 0
1, 87119, Note_on_c, 9, 68, 0
1, 87119, Note_on_c, 9, 42, 0
1, 87120, Note_on_c, 9, 42, 101
1, 87120, Note_on_c, 9, 36, 125
1, 87359, Note_on_c, 9, 42, 0
1, 87359, Note_on_c, 9, 36, 0
1, 87360, Note_on_c, 9, 56, 121
1, 87360, Note_on_c, 9, 42, 115
1, 87360, Note_on_c, 9, 36, 125
1, 87599, Note_on_c, 9, 56, 0
1, 87599, Note_on_c, 9, 42, 0
1, 87599, Note_on_c, 9, 36, 0
1, 87600, Note_on_c, 9, 70, 118
1, 87600, Note_on_c, 9, 44, 111
1, 87839, Note_on_c, 9, 70, 0
1, 87839, Note_on_c, 9, 44, 0
1, 87840, Note_on_c, 9, 38, 125
1, 87840, Note_on_c, 9, 56, 121
1, 87840, Note_on_c, 9, 68, 69
1, 87840, Note_on_c, 9, 42, 114
1, 88079, Note_on_c, 9, 38, 0
1, 88079, Note_on_c, 9, 56, 0
1, 88079, Note_on_c, 9, 68, 0
1, 88079, Note_on_c, 9, 42, 0
1, 88080, Note_on_c, 9, 69, 114
1, 88080, Note_on_c, 9, 44, 106
1, 88319, Note_on_c, 9, 69, 0
1, 88319, Note_on_c, 9, 44, 0
1, 88320, Note_on_c, 9, 56, 124
1, 88320, Note_on_c, 9, 69, 120
1, 88320, Note_on_c, 9, 42, 119
1, 88320, Note_on_c, 9, 36, 125
1, 88559, Note_on_c, 9, 56, 0
1, 88559, Note_on_c, 9, 69, 0
1, 88559, Note_on_c, 9, 42, 0
1, 88560, Note_on_c, 9, 42, 111
1, 88679, Note_on_c, 9, 42, 0
1, 88680, Note_on_c, 9, 42, 114
1, 88799, Note_on_c, 9, 36, 0
1, 88799, Note_on_c, 9, 42, 0
1, 88800, Note_on_c, 9, 38, 125
1, 88800, Note_on_c, 9, 56, 121
1, 88800, Note_on_c, 9, 68, 69
1, 88800, Note_on_c, 9, 42, 111
1, 89039, Note_on_c, 9, 38, 0
1, 89039, Note_on_c, 9, 56, 0
1, 89039, Note_on_c, 9, 68, 0
1, 89039, Note_on_c, 9, 42, 0
1, 89040, Note_on_c, 9, 42, 110
1, 89040, Note_on_c, 9, 36, 125
1, 89279, Note_on_c, 9, 42, 0
1, 89279, Note_on_c, 9, 36, 0
1, 89280, Note_on_c, 9, 56, 121
1, 89280, Note_on_c, 9, 42, 116
1, 89280, Note_on_c, 9, 36, 125
1, 89519, Note_on_c, 9, 56, 0
1, 89519, Note_on_c, 9, 42, 0
1, 89520, Note_on_c, 9, 70, 119
1, 89520, Note_on_c, 9, 42, 105
1, 89759, Note_on_c, 9, 36, 0
1, 89759, Note_on_c, 9, 70, 0
1, 89759, Note_on_c, 9, 42, 0
1, 89760, Note_on_c, 9, 38, 125
1, 89760, Note_on_c, 9, 56, 121
1, 89760, Note_on_c, 9, 68, 69
1, 89760, Note_on_c, 9, 42, 117
1, 89999, Note_on_c, 9, 38, 0
1, 89999, Note_on_c, 9, 56, 0
1, 89999, Note_on_c, 9, 68, 0
1, 89999, Note_on_c, 9, 42, 0
1, 90000, Note_on_c, 9, 69, 115
1, 90000, Note_on_c, 9, 42, 110
1, 90239, Note_on_c, 9, 69, 0
1, 90239, Note_on_c, 9, 42, 0
1, 90240, Note_on_c, 9, 56, 124
1, 90240, Note_on_c, 9, 69, 120
1, 90240, Note_on_c, 9, 42, 117
1, 90240, Note_on_c, 9, 36, 125
1, 90479, Note_on_c, 9, 56, 0
1, 90479, Note_on_c, 9, 69, 0
1, 90479, Note_on_c, 9, 42, 0
1, 90480, Note_on_c, 9, 42, 113
1, 90599, Note_on_c, 9, 42, 0
1, 90600, Note_on_c, 9, 42, 113
1, 90719, Note_on_c, 9, 36, 0
1, 90719, Note_on_c, 9, 42, 0
1, 90720, Note_on_c, 9, 38, 125
1, 90720, Note_on_c, 9, 56, 121
1, 90720, Note_on_c, 9, 68, 69
1, 90720, Note_on_c, 9, 42, 111
1, 90959, Note_on_c, 9, 38, 0
1, 90959, Note_on_c, 9, 56, 0
1, 90959, Note_on_c, 9, 68, 0
1, 90959, Note_on_c, 9, 42, 0
1, 90960, Note_on_c, 9, 42, 107
1, 90960, Note_on_c, 9, 36, 125
1, 91199, Note_on_c, 9, 42, 0
1, 91199, Note_on_c, 9, 36, 0
1, 91200, Note_on_c, 9, 56, 121
1, 91200, Note_on_c, 9, 42, 116
1, 91200, Note_on_c, 9, 36, 125
1, 91439, Note_on_c, 9, 56, 0
1, 91439, Note_on_c, 9, 42, 0
1, 91440, Note_on_c, 9, 70, 116
1, 91440, Note_on_c, 9, 42, 104
1, 91679, Note_on_c, 9, 36, 0
1, 91679, Note_on_c, 9, 70, 0
1, 91679, Note_on_c, 9, 42, 0
1, 91680, Note_on_c, 9, 38, 125
1, 91680, Note_on_c, 9, 56, 121
1, 91680, Note_on_c, 9, 68, 69
1, 91680, Note_on_c, 9, 42, 117
1, 91919, Note_on_c, 9, 38, 0
1, 91919, Note_on_c, 9, 56, 0
1, 91919, Note_on_c, 9, 68, 0
1, 91919, Note_on_c, 9, 42, 0
1, 91920, Note_on_c, 9, 69, 117
1, 91920, Note_on_c, 9, 42, 108
1, 92159, Note_on_c, 9, 69, 0
1, 92159, Note_on_c, 9, 42, 0
1, 92160, Note_on_c, 9, 56, 124
1, 92160, Note_on_c, 9, 69, 115
1, 92160, Note_on_c, 9, 42, 119
1, 92160, Note_on_c, 9, 36, 125
1, 92399, Note_on_c, 9, 56, 0
1, 92399, Note_on_c, 9, 69, 0
1, 92399, Note_on_c, 9, 42, 0
1, 92400, Note_on_c, 9, 42, 110
1, 92519, Note_on_c, 9, 42, 0
1, 92520, Note_on_c, 9, 42, 114
1, 92639, Note_on_c, 9, 36, 0
1, 92639, Note_on_c, 9, 42, 0
1, 92640, Note_on_c, 9, 38, 125
1, 92640, Note_on_c, 9, 56, 121
1, 92640, Note_on_c, 9, 68, 69
1, 92640, Note_on_c, 9, 42, 111
1, 92879, Note_on_c, 9, 38, 0
1, 92879, Note_on_c, 9, 56, 0
1, 92879, Note_on_c, 9, 68, 0
1, 92879, Note_on_c, 9, 42, 0
1, 92880, Note_on_c, 9, 42, 111
1, 92880, Note_on_c, 9, 36, 125
1, 93119, Note_on_c, 9, 42, 0
1, 93119, Note_on_c, 9, 36, 0
1, 93120, Note_on_c, 9, 56, 121
1, 93120, Note_on_c, 9, 42, 119
1, 93120, Note_on_c, 9, 36, 125
1, 93359, Note_on_c, 9, 56, 0
1, 93359, Note_on_c, 9, 42, 0
1, 93360, Note_on_c, 9, 70, 115
1, 93360, Note_on_c, 9, 42, 107
1, 93599, Note_on_c, 9, 36, 0
1, 93599, Note_on_c, 9, 70, 0
1, 93599, Note_on_c, 9, 42, 0
1, 93600, Note_on_c, 9, 38, 125
1, 93600, Note_on_c, 9, 56, 121
1, 93600, Note_on_c, 9, 68, 69
1, 93600, Note_on_c, 9, 42, 116
1, 93839, Note_on_c, 9, 38, 0
1, 93839, Note_on_c, 9, 56, 0
1, 93839, Note_on_c, 9, 68, 0
1, 93839, Note_on_c, 9, 42, 0
1, 93840, Note_on_c, 9, 69, 111
1, 93840, Note_on_c, 9, 42, 109
1, 94079, Note_on_c, 9, 69, 0
1, 94079, Note_on_c, 9, 42, 0
1, 94080, Note_on_c, 9, 56, 124
1, 94080, Note_on_c, 9, 69, 125
1, 94080, Note_on_c, 9, 42, 115
1, 94080, Note_on_c, 9, 36, 125
1, 94319, Note_on_c, 9, 56, 0
1, 94319, Note_on_c, 9, 69, 0
1, 94319, Note_on_c, 9, 42, 0
1, 94320, Note_on_c, 9, 42, 109
1, 94439, Note_on_c, 9, 42, 0
1, 94440, Note_on_c, 9, 42, 115
1, 94559, Note_on_c, 9, 36, 0
1, 94559, Note_on_c, 9, 42, 0
1, 94560, Note_on_c, 9, 38, 125
1, 94560, Note_on_c, 9, 56, 121
1, 94560, Note_on_c, 9, 68, 69
1, 94560, Note_on_c, 9, 42, 111
1, 94799, Note_on_c, 9, 38, 0
1, 94799, Note_on_c, 9, 56, 0
1, 94799, Note_on_c, 9, 68, 0
1, 94799, Note_on_c, 9, 42, 0
1, 94800, Note_on_c, 9, 42, 114
1, 94800, Note_on_c, 9, 36, 125
1, 95039, Note_on_c, 9, 42, 0
1, 95039, Note_on_c, 9, 36, 0
1, 95040, Note_on_c, 9, 38, 125
1, 95040, Note_on_c, 9, 56, 121
1, 95040, Note_on_c, 9, 42, 113
1, 95040, Note_on_c, 9, 36, 125
1, 95279, Note_on_c, 9, 38, 0
1, 95279, Note_on_c, 9, 56, 0
1, 95279, Note_on_c, 9, 42, 0
1, 95280, Note_on_c, 9, 70, 116
1, 95280, Note_on_c, 9, 42, 102
1, 95399, Note_on_c, 9, 70, 0
1, 95399, Note_on_c, 9, 42, 0
1, 95400, Note_on_c, 9, 38, 125
1, 95519, Note_on_c, 9, 36, 0
1, 95519, Note_on_c, 9, 38, 0
1, 95520, Note_on_c, 9, 38, 125
1, 95520, Note_on_c, 9, 56, 121
1, 95520, Note_on_c, 9, 68, 69
1, 95520, Note_on_c, 9, 42, 125
1, 95759, Note_on_c, 9, 38, 0
1, 95759, Note_on_c, 9, 56, 0
1, 95759, Note_on_c, 9, 68, 0
1, 95759, Note_on_c, 9, 42, 0
1, 95760, Note_on_c, 9, 45, 125
1, 95760, Note_on_c, 9, 69, 113
1, 95760, Note_on_c, 9, 44, 116
1, 95999, Note_on_c, 9, 45, 0
1, 95999, Note_on_c, 9, 69, 0
1, 95999, Note_on_c, 9, 44, 0
1, 96000, Note_on_c, 9, 56, 124
1, 96000, Note_on_c, 9, 69, 120
1, 96000, Note_on_c, 9, 42, 116
1, 96000, Note_on_c, 9, 49, 123
1, 96000, Note_on_c, 9, 36, 125
1, 96239, Note_on_c, 9, 56, 0
1, 96239, Note_on_c, 9, 69, 0
1, 96239, Note_on_c, 9, 42, 0
1, 96239, Note_on_c, 9, 49, 0
1, 96240, Note_on_c, 9, 42, 113
1, 96359, Note_on_c, 9, 42, 0
1, 96360, Note_on_c, 9, 42, 115
1, 96479, Note_on_c, 9, 36, 0
1, 96479, Note_on_c, 9, 42, 0
1, 96480, Note_on_c, 9, 38, 125
1, 96480, Note_on_c, 9, 56, 121
1, 96480, Note_on_c, 9, 68, 69
1, 96480, Note_on_c, 9, 42, 111
1, 96719, Note_on_c, 9, 38, 0
1, 96719, Note_on_c, 9, 56, 0
1, 96719, Note_on_c, 9, 68, 0
1, 96719, Note_on_c, 9, 42, 0
1, 96720, Note_on_c, 9, 42, 109
1, 96720, Note_on_c, 9, 36, 125
1, 96959, Note_on_c, 9, 42, 0
1, 96959, Note_on_c, 9, 36, 0
1, 96960, Note_on_c, 9, 56, 121
1, 96960, Note_on_c, 9, 42, 116
1, 96960, Note_on_c, 9, 36, 125
1, 97199, Note_on_c, 9, 56, 0
1, 97199, Note_on_c, 9, 42, 0
1, 97200, Note_on_c, 9, 70, 119
1, 97200, Note_on_c, 9, 42, 104
1, 97439, Note_on_c, 9, 36, 0
1, 97439, Note_on_c, 9, 70, 0
1, 97439, Note_on_c, 9, 42, 0
1, 97440, Note_on_c, 9, 38, 125
1, 97440, Note_on_c, 9, 56, 121
1, 97440, Note_on_c, 9, 68, 69
1, 97440, Note_on_c, 9, 42, 117
1, 97679, Note_on_c, 9, 38, 0
1, 97679, Note_on_c, 9, 56, 0
1, 97679, Note_on_c, 9, 68, 0
1, 97679, Note_on_c, 9, 42, 0
1, 97680, Note_on_c, 9, 69, 117
1, 97680, Note_on_c, 9, 42, 102
1, 97919, Note_on_c, 9, 69, 0
1, 97919, Note_on_c, 9, 42, 0
1, 97920, Note_on_c, 9, 56, 124
1, 97920, Note_on_c, 9, 69, 119
1, 97920, Note_on_c, 9, 42, 117
1, 97920, Note_on_c, 9, 36, 125
1, 98159, Note_on_c, 9, 56, 0
1, 98159, Note_on_c, 9, 69, 0
1, 98159, Note_on_c, 9, 42, 0
1, 98160, Note_on_c, 9, 42, 111
1, 98279, Note_on_c, 9, 42, 0
1, 98280, Note_on_c, 9, 42, 109
1, 98399, Note_on_c, 9, 36, 0
1, 98399, Note_on_c, 9, 42, 0
1, 98400, Note_on_c, 9, 38, 125
1, 98400, Note_on_c, 9, 56, 121
1, 98400, Note_on_c, 9, 68, 69
1, 98400, Note_on_c, 9, 42, 115
1, 98639, Note_on_c, 9, 38, 0
1, 98639, Note_on_c, 9, 56, 0
1, 98639, Note_on_c, 9, 68, 0
1, 98639, Note_on_c, 9, 42, 0
1, 98640, Note_on_c, 9, 42, 110
1, 98640, Note_on_c, 9, 36, 125
1, 98879, Note_on_c, 9, 42, 0
1, 98879, Note_on_c, 9, 36, 0
1, 98880, Note_on_c, 9, 56, 121
1, 98880, Note_on_c, 9, 42, 119
1, 98880, Note_on_c, 9, 36, 125
1, 99119, Note_on_c, 9, 56, 0
1, 99119, Note_on_c, 9, 42, 0
1, 99120, Note_on_c, 9, 70, 119
1, 99120, Note_on_c, 9, 42, 104
1, 99359, Note_on_c, 9, 36, 0
1, 99359, Note_on_c, 9, 70, 0
1, 99359, Note_on_c, 9, 42, 0
1, 99360, Note_on_c, 9, 38, 125
1, 99360, Note_on_c, 9, 56, 121
1, 99360, Note_on_c, 9, 68, 69
1, 99360, Note_on_c, 9, 42, 121
1, 99599, Note_on_c, 9, 38, 0
1, 99599, Note_on_c, 9, 56, 0
1, 99599, Note_on_c, 9, 68, 0
1, 99599, Note_on_c, 9, 42, 0
1, 99600, Note_on_c, 9, 69, 115
1, 99600, Note_on_c, 9, 42, 104
1, 99839, Note_on_c, 9, 69, 0
1, 99839, Note_on_c, 9, 42, 0
1, 99840, Note_on_c, 9, 56, 124
1, 99840, Note_on_c, 9, 69, 125
1, 99840, Note_on_c, 9, 42, 116
1, 99840, Note_on_c, 9, 36, 125
1, 100079, Note_on_c, 9, 56, 0
1, 100079, Note_on_c, 9, 69, 0
1, 100079, Note_on_c, 9, 42, 0
1, 100080, Note_on_c, 9, 42, 109
1, 100199, Note_on_c, 9, 42, 0
1, 100200, Note_on_c, 9, 42, 108
1, 100319, Note_on_c, 9, 36, 0
1, 100319, Note_on_c, 9, 42, 0
1, 100320, Note_on_c, 9, 38, 123
1, 100320, Note_on_c, 9, 56, 121
1, 100320, Note_on_c, 9, 68, 69
1, 100320, Note_on_c, 9, 42, 110
1, 100559, Note_on_c, 9, 38, 0
1, 100559, Note_on_c, 9, 56, 0
1, 100559, Note_on_c, 9, 68, 0
1, 100559, Note_on_c, 9, 42, 0
1, 100560, Note_on_c, 9, 42, 102
1, 100560, Note_on_c, 9, 36, 125
1, 100799, Note_on_c, 9, 42, 0
1, 100799, Note_on_c, 9, 36, 0
1, 100800, Note_on_c, 9, 56, 121
1, 100800, Note_on_c, 9, 42, 106
1, 100800, Note_on_c, 9, 36, 125
1, 101039, Note_on_c, 9, 56, 0
1, 101039, Note_on_c, 9, 42, 0
1, 101040, Note_on_c, 9, 70, 119
1, 101040, Note_on_c, 9, 42, 98
1, 101279, Note_on_c, 9, 36, 0
1, 101279, Note_on_c, 9, 70, 0
1, 101279, Note_on_c, 9, 42, 0
1, 101280, Note_on_c, 9, 38, 125
1, 101280, Note_on_c, 9, 56, 121
1, 101280, Note_on_c, 9, 68, 69
1, 101280, Note_on_c, 9, 42, 117
1, 101519, Note_on_c, 9, 38, 0
1, 101519, Note_on_c, 9, 56, 0
1, 101519, Note_on_c, 9, 68, 0
1, 101519, Note_on_c, 9, 42, 0
1, 101520, Note_on_c, 9, 69, 114
1, 101520, Note_on_c, 9, 42, 103
1, 101759, Note_on_c, 9, 69, 0
1, 101759, Note_on_c, 9, 42, 0
1, 101760, Note_on_c, 9, 56, 124
1, 101760, Note_on_c, 9, 69, 122
1, 101760, Note_on_c, 9, 42, 117
1, 101760, Note_on_c, 9, 36, 125
1, 101999, Note_on_c, 9, 56, 0
1, 101999, Note_on_c, 9, 69, 0
1, 101999, Note_on_c, 9, 42, 0
1, 102000, Note_on_c, 9, 42, 107
1, 102119, Note_on_c, 9, 42, 0
1, 102120, Note_on_c, 9, 42, 105
1, 102239, Note_on_c, 9, 36, 0
1, 102239, Note_on_c, 9, 42, 0
1, 102240, Note_on_c, 9, 38, 125
1, 102240, Note_on_c, 9, 56, 121
1, 102240, Note_on_c, 9, 68, 69
1, 102240, Note_on_c, 9, 42, 104
1, 102479, Note_on_c, 9, 38, 0
1, 102479, Note_on_c, 9, 56, 0
1, 102479, Note_on_c, 9, 68, 0
1, 102479, Note_on_c, 9, 42, 0
1, 102480, Note_on_c, 9, 42, 107
1, 102480, Note_on_c, 9, 36, 125
1, 102719, Note_on_c, 9, 42, 0
1, 102719, Note_on_c, 9, 36, 0
1, 102720, Note_on_c, 9, 56, 121
1, 102720, Note_on_c, 9, 42, 116
1, 102720, Note_on_c, 9, 36, 125
1, 102959, Note_on_c, 9, 56, 0
1, 102959, Note_on_c, 9, 42, 0
1, 102960, Note_on_c, 9, 70, 121
1, 102960, Note_on_c, 9, 42, 103
1, 103199, Note_on_c, 9, 36, 0
1, 103199, Note_on_c, 9, 70, 0
1, 103199, Note_on_c, 9, 42, 0
1, 103200, Note_on_c, 9, 38, 125
1, 103200, Note_on_c, 9, 56, 121
1, 103200, Note_on_c, 9, 68, 69
1, 103200, Note_on_c, 9, 42, 116
1, 103439, Note_on_c, 9, 38, 0
1, 103439, Note_on_c, 9, 56, 0
1, 103439, Note_on_c, 9, 68, 0
1, 103439, Note_on_c, 9, 42, 0
1, 103440, Note_on_c, 9, 69, 115
1, 103440, Note_on_c, 9, 42, 103
1, 103679, Note_on_c, 9, 69, 0
1, 103679, Note_on_c, 9, 42, 0
1, 103680, Note_on_c, 9, 56, 124
1, 103680, Note_on_c, 9, 69, 120
1, 103680, Note_on_c, 9, 42, 117
1, 103680, Note_on_c, 9, 36, 125
1, 103919, Note_on_c, 9, 56, 0
1, 103919, Note_on_c, 9, 69, 0
1, 103919, Note_on_c, 9, 42, 0
1, 103920, Note_on_c, 9, 42, 110
1, 104039, Note_on_c, 9, 42, 0
1, 104040, Note_on_c, 9, 42, 114
1, 104159, Note_on_c, 9, 36, 0
1, 104159, Note_on_c, 9, 42, 0
1, 104160, Note_on_c, 9, 38, 125
1, 104160, Note_on_c, 9, 56, 121
1, 104160, Note_on_c, 9, 68, 69
1, 104160, Note_on_c, 9, 42, 108
1, 104399, Note_on_c, 9, 38, 0
1, 104399, Note_on_c, 9, 56, 0
1, 104399, Note_on_c, 9, 68, 0
1, 104399, Note_on_c, 9, 42, 0
1, 104400, Note_on_c, 9, 42, 109
1, 104400, Note_on_c, 9, 36, 125
1, 104639, Note_on_c, 9, 42, 0
1, 104639, Note_on_c, 9, 36, 0
1, 104640, Note_on_c, 9, 56, 121
1, 104640, Note_on_c, 9, 42, 110
1, 104640, Note_on_c, 9, 36, 125
1, 104879, Note_on_c, 9, 56, 0
1, 104879, Note_on_c, 9, 42, 0
1, 104880, Note_on_c, 9, 70, 109
1, 104880, Note_on_c, 9, 42, 103
1, 105119, Note_on_c, 9, 36, 0
1, 105119, Note_on_c, 9, 70, 0
1, 105119, Note_on_c, 9, 42, 0
1, 105120, Note_on_c, 9, 38, 125
1, 105120, Note_on_c, 9, 56, 121
1, 105120, Note_on_c, 9, 68, 69
1, 105120, Note_on_c, 9, 42, 114
1, 105359, Note_on_c, 9, 38, 0
1, 105359, Note_on_c, 9, 56, 0
1, 105359, Note_on_c, 9, 68, 0
1, 105359, Note_on_c, 9, 42, 0
1, 105360, Note_on_c, 9, 69, 108
1, 105360, Note_on_c, 9, 42, 106
1, 105599, Note_on_c, 9, 69, 0
1, 105599, Note_on_c, 9, 42, 0
1, 105600, Note_on_c, 9, 56, 124
1, 105600, Note_on_c, 9, 69, 119
1, 105600, Note_on_c, 9, 42, 119
1, 105600, Note_on_c, 9, 36, 125
1, 105839, Note_on_c, 9, 56, 0
1, 105839, Note_on_c, 9, 69, 0
1, 105839, Note_on_c, 9, 42, 0
1, 105840, Note_on_c, 9, 42, 108
1, 105959, Note_on_c, 9, 42, 0
1, 105960, Note_on_c, 9, 42, 108
1, 106079, Note_on_c, 9, 36, 0
1, 106079, Note_on_c, 9, 42, 0
1, 106080, Note_on_c, 9, 38, 125
1, 106080, Note_on_c, 9, 56, 121
1, 106080, Note_on_c, 9, 68, 69
1, 106080, Note_on_c, 9, 42, 106
1, 106319, Note_on_c, 9, 38, 0
1, 106319, Note_on_c, 9, 56, 0
1, 106319, Note_on_c, 9, 68, 0
1, 106319, Note_on_c, 9, 42, 0
1, 106320, Note_on_c, 9, 42, 108
1, 106320, Note_on_c, 9, 36, 125
1, 106559, Note_on_c, 9, 42, 0
1, 106559, Note_on_c, 9, 36, 0
1, 106560, Note_on_c, 9, 56, 121
1, 106560, Note_on_c, 9, 42, 115
1, 106560, Note_on_c, 9, 36, 125
1, 106799, Note_on_c, 9, 56, 0
1, 106799, Note_on_c, 9, 42, 0
1, 106800, Note_on_c, 9, 70, 113
1, 106800, Note_on_c, 9, 42, 107
1, 107039, Note_on_c, 9, 36, 0
1, 107039, Note_on_c, 9, 70, 0
1, 107039, Note_on_c, 9, 42, 0
1, 107040, Note_on_c, 9, 38, 125
1, 107040, Note_on_c, 9, 56, 121
1, 107040, Note_on_c, 9, 68, 69
1, 107040, Note_on_c, 9, 42, 116
1, 107279, Note_on_c, 9, 38, 0
1, 107279, Note_on_c, 9, 56, 0
1, 107279, Note_on_c, 9, 68, 0
1, 107279, Note_on_c, 9, 42, 0
1, 107280, Note_on_c, 9, 69, 111
1, 107280, Note_on_c, 9, 42, 110
1, 107519, Note_on_c, 9, 69, 0
1, 107519, Note_on_c, 9, 42, 0
1, 107520, Note_on_c, 9, 56, 124
1, 107520, Note_on_c, 9, 69, 120
1, 107520, Note_on_c, 9, 42, 116
1, 107520, Note_on_c, 9, 36, 125
1, 107759, Note_on_c, 9, 56, 0
1, 107759, Note_on_c, 9, 69, 0
1, 107759, Note_on_c, 9, 42, 0
1, 107760, Note_on_c, 9, 42, 109
1, 107879, Note_on_c, 9, 42, 0
1, 107880, Note_on_c, 9, 42, 109
1, 107999, Note_on_c, 9, 36, 0
1, 107999, Note_on_c, 9, 42, 0
1, 108000, Note_on_c, 9, 38, 125
1, 108000, Note_on_c, 9, 56, 121
1, 108000, Note_on_c, 9, 68, 69
1, 108000, Note_on_c, 9, 42, 110
1, 108239, Note_on_c, 9, 38, 0
1, 108239, Note_on_c, 9, 56, 0
1, 108239, Note_on_c, 9, 68, 0
1, 108239, Note_on_c, 9, 42, 0
1, 108240, Note_on_c, 9, 42, 113
1, 108240, Note_on_c, 9, 36, 125
1, 108479, Note_on_c, 9, 42, 0
1, 108479, Note_on_c, 9, 36, 0
1, 108480, Note_on_c, 9, 56, 121
1, 108480, Note_on_c, 9, 42, 113
1, 108480, Note_on_c, 9, 36, 125
1, 108719, Note_on_c, 9, 56, 0
1, 108719, Note_on_c, 9, 42, 0
1, 108720, Note_on_c, 9, 70, 119
1, 108720, Note_on_c, 9, 42, 106
1, 108959, Note_on_c, 9, 36, 0
1, 108959, Note_on_c, 9, 70, 0
1, 108959, Note_on_c, 9, 42, 0
1, 108960, Note_on_c, 9, 38, 125
1, 108960, Note_on_c, 9, 56, 121
1, 108960, Note_on_c, 9, 68, 69
1, 108960, Note_on_c, 9, 42, 119
1, 109199, Note_on_c, 9, 38, 0
1, 109199, Note_on_c, 9, 56, 0
1, 109199, Note_on_c, 9, 68, 0
1, 109199, Note_on_c, 9, 42, 0
1, 109200, Note_on_c, 9, 69, 112
1, 109200, Note_on_c, 9, 42, 113
1, 109439, Note_on_c, 9, 69, 0
1, 109439, Note_on_c, 9, 42, 0
1, 109440, Note_on_c, 9, 56, 124
1, 109440, Note_on_c, 9, 69, 120
1, 109440, Note_on_c, 9, 42, 116
1, 109440, Note_on_c, 9, 36, 125
1, 109679, Note_on_c, 9, 56, 0
1, 109679, Note_on_c, 9, 69, 0
1, 109679, Note_on_c, 9, 42, 0
1, 109680, Note_on_c, 9, 42, 110
1, 109799, Note_on_c, 9, 42, 0
1, 109800, Note_on_c, 9, 42, 108
1, 109919, Note_on_c, 9, 36, 0
1, 109919, Note_on_c, 9, 42, 0
1, 109920, Note_on_c, 9, 38, 125
1, 109920, Note_on_c, 9, 56, 121
1, 109920, Note_on_c, 9, 68, 69
1, 109920, Note_on_c, 9, 42, 109
1, 110159, Note_on_c, 9, 38, 0
1, 110159, Note_on_c, 9, 56, 0
1, 110159, Note_on_c, 9, 68, 0
1, 110159, Note_on_c, 9, 42, 0
1, 110160, Note_on_c, 9, 42, 107
1, 110160, Note_on_c, 9, 36, 125
1, 110399, Note_on_c, 9, 42, 0
1, 110399, Note_on_c, 9, 36, 0
1, 110400, Note_on_c, 9, 56, 121
1, 110400, Note_on_c, 9, 42, 115
1, 110400, Note_on_c, 9, 36, 125
1, 110639, Note_on_c, 9, 56, 0
1, 110639, Note_on_c, 9, 42, 0
1, 110639, Note_on_c, 9, 36, 0
1, 110640, Note_on_c, 9, 70, 116
1, 110640, Note_on_c, 9, 44, 114
1, 110879, Note_on_c, 9, 70, 0
1, 110879, Note_on_c, 9, 44, 0
1, 110880, Note_on_c, 9, 38, 125
1, 110880, Note_on_c, 9, 56, 121
1, 110880, Note_on_c, 9, 68, 69
1, 110880, Note_on_c, 9, 42, 116
1, 111119, Note_on_c, 9, 38, 0
1, 111119, Note_on_c, 9, 56, 0
1, 111119, Note_on_c, 9, 68, 0
1, 111119, Note_on_c, 9, 42, 0
1, 111120, Note_on_c, 9, 69, 112
1, 111120, Note_on_c, 9, 44, 110
1, 111359, Note_on_c, 9, 69, 0
1, 111359, Note_on_c, 9, 44, 0
1, 111360, Note_on_c, 9, 56, 124
1, 111360, Note_on_c, 9, 69, 117
1, 111360, Note_on_c, 9, 42, 119
1, 111360, Note_on_c, 9, 49, 123
1, 111360, Note_on_c, 9, 36, 125
1, 111599, Note_on_c, 9, 56, 0
1, 111599, Note_on_c, 9, 69, 0
1, 111599, Note_on_c, 9, 42, 0
1, 111599, Note_on_c, 9, 49, 0
1, 111600, Note_on_c, 9, 42, 114
1, 111719, Note_on_c, 9, 42, 0
1, 111720, Note_on_c, 9, 42, 111
1, 111839, Note_on_c, 9, 36, 0
1, 111839, Note_on_c, 9, 42, 0
1, 111840, Note_on_c, 9, 38, 125
1, 111840, Note_on_c, 9, 56, 121
1, 111840, Note_on_c, 9, 68, 69
1, 111840, Note_on_c, 9, 42, 114
1, 112079, Note_on_c, 9, 38, 0
1, 112079, Note_on_c, 9, 56, 0
1, 112079, Note_on_c, 9, 68, 0
1, 112079, Note_on_c, 9, 42, 0
1, 112080, Note_on_c, 9, 42, 108
1, 112080, Note_on_c, 9, 36, 125
1, 112319, Note_on_c, 9, 42, 0
1, 112319, Note_on_c, 9, 36, 0
1, 112320, Note_on_c, 9, 56, 121
1, 112320, Note_on_c, 9, 42, 115
1, 112320, Note_on_c, 9, 36, 125
1, 112559, Note_on_c, 9, 56, 0
1, 112559, Note_on_c, 9, 42, 0
1, 112560, Note_on_c, 9, 70, 121
1, 112560, Note_on_c, 9, 42, 103
1, 112799, Note_on_c, 9, 36, 0
1, 112799, Note_on_c, 9, 70, 0
1, 112799, Note_on_c, 9, 42, 0
1, 112800, Note_on_c, 9, 38, 125
1, 112800, Note_on_c, 9, 56, 121
1, 112800, Note_on_c, 9, 68, 69
1, 112800, Note_on_c, 9, 42, 115
1, 113039, Note_on_c, 9, 38, 0
1, 113039, Note_on_c, 9, 56, 0
1, 113039, Note_on_c, 9, 68, 0
1, 113039, Note_on_c, 9, 42, 0
1, 113040, Note_on_c, 9, 69, 114
1, 113040, Note_on_c, 9, 42, 102
1, 113279, Note_on_c, 9, 69, 0
1, 113279, Note_on_c, 9, 42, 0
1, 113280, Note_on_c, 9, 56, 124
1, 113280, Note_on_c, 9, 69, 114
1, 113280, Note_on_c, 9, 42, 116
1, 113280, Note_on_c, 9, 36, 125
1, 113519, Note_on_c, 9, 56, 0
1, 113519, Note_on_c, 9, 69, 0
1, 113519, Note_on_c, 9, 42, 0
1, 113520, Note_on_c, 9, 42, 110
1, 113639, Note_on_c, 9, 42, 0
1, 113640, Note_on_c, 9, 42, 111
1, 113759, Note_on_c, 9, 36, 0
1, 113759, Note_on_c, 9, 42, 0
1, 113760, Note_on_c, 9, 38, 125
1, 113760, Note_on_c, 9, 56, 121
1, 113760, Note_on_c, 9, 68, 69
1, 113760, Note_on_c, 9, 42, 114
1, 113999, Note_on_c, 9, 38, 0
1, 113999, Note_on_c, 9, 56, 0
1, 113999, Note_on_c, 9, 68, 0
1, 113999, Note_on_c, 9, 42, 0
1, 114000, Note_on_c, 9, 42, 109
1, 114000, Note_on_c, 9, 36, 125
1, 114239, Note_on_c, 9, 42, 0
1, 114239, Note_on_c, 9, 36, 0
1, 114240, Note_on_c, 9, 56, 121
1, 114240, Note_on_c, 9, 42, 113
1, 114240, Note_on_c, 9, 36, 125
1, 114479, Note_on_c, 9, 56, 0
1, 114479, Note_on_c, 9, 42, 0
1, 114480, Note_on_c, 9, 70, 119
1, 114480, Note_on_c, 9, 42, 104
1, 114719, Note_on_c, 9, 36, 0
1, 114719, Note_on_c, 9, 70, 0
1, 114719, Note_on_c, 9, 42, 0
1, 114720, Note_on_c, 9, 38, 125
1, 114720, Note_on_c, 9, 56, 121
1, 114720, Note_on_c, 9, 68, 69
1, 114720, Note_on_c, 9, 42, 121
1, 114959, Note_on_c, 9, 38, 0
1, 114959, Note_on_c, 9, 56, 0
1, 114959, Note_on_c, 9, 68, 0
1, 114959, Note_on_c, 9, 42, 0
1, 114960, Note_on_c, 9, 69, 114
1, 114960, Note_on_c, 9, 42, 104
1, 115199, Note_on_c, 9, 69, 0
1, 115199, Note_on_c, 9, 42, 0
1, 115200, Note_on_c, 9, 56, 124
1, 115200, Note_on_c, 9, 69, 120
1, 115200, Note_on_c, 9, 42, 115
1, 115200, Note_on_c, 9, 36, 125
1, 115439, Note_on_c, 9, 56, 0
1, 115439, Note_on_c, 9, 69, 0
1, 115439, Note_on_c, 9, 42, 0
1, 115440, Note_on_c, 9, 42, 114
1, 115559, Note_on_c, 9, 42, 0
1, 115560, Note_on_c, 9, 42, 113
1, 115679, Note_on_c, 9, 36, 0
1, 115679, Note_on_c, 9, 42, 0
1, 115680, Note_on_c, 9, 38, 125
1, 115680, Note_on_c, 9, 56, 121
1, 115680, Note_on_c, 9, 68, 69
1, 115680, Note_on_c, 9, 42, 114
1, 115919, Note_on_c, 9, 38, 0
1, 115919, Note_on_c, 9, 56, 0
1, 115919, Note_on_c, 9, 68, 0
1, 115919, Note_on_c, 9, 42, 0
1, 115920, Note_on_c, 9, 42, 107
1, 115920, Note_on_c, 9, 36, 125
1, 116159, Note_on_c, 9, 42, 0
1, 116159, Note_on_c, 9, 36, 0
1, 116160, Note_on_c, 9, 56, 121
1, 116160, Note_on_c, 9, 42, 115
1, 116160, Note_on_c, 9, 36, 125
1, 116399, Note_on_c, 9, 56, 0
1, 116399, Note_on_c, 9, 42, 0
1, 116400, Note_on_c, 9, 70, 117
1, 116400, Note_on_c, 9, 42, 107
1, 116639, Note_on_c, 9, 36, 0
1, 116639, Note_on_c, 9, 70, 0
1, 116639, Note_on_c, 9, 42, 0
1, 116640, Note_on_c, 9, 38, 125
1, 116640, Note_on_c, 9, 56, 121
1, 116640, Note_on_c, 9, 68, 69
1, 116640, Note_on_c, 9, 42, 116
1, 116879, Note_on_c, 9, 38, 0
1, 116879, Note_on_c, 9, 56, 0
1, 116879, Note_on_c, 9, 68, 0
1, 116879, Note_on_c, 9, 42, 0
1, 116880, Note_on_c, 9, 69, 113
1, 116880, Note_on_c, 9, 42, 108
1, 117119, Note_on_c, 9, 69, 0
1, 117119, Note_on_c, 9, 42, 0
1, 117120, Note_on_c, 9, 56, 124
1, 117120, Note_on_c, 9, 69, 122
1, 117120, Note_on_c, 9, 42, 117
1, 117120, Note_on_c, 9, 36, 125
1, 117359, Note_on_c, 9, 56, 0
1, 117359, Note_on_c, 9, 69, 0
1, 117359, Note_on_c, 9, 42, 0
1, 117360, Note_on_c, 9, 42, 113
1, 117479, Note_on_c, 9, 42, 0
1, 117480, Note_on_c, 9, 42, 107
1, 117599, Note_on_c, 9, 36, 0
1, 117599, Note_on_c, 9, 42, 0
1, 117600, Note_on_c, 9, 38, 125
1, 117600, Note_on_c, 9, 56, 121
1, 117600, Note_on_c, 9, 68, 69
1, 117600, Note_on_c, 9, 42, 111
1, 117839, Note_on_c, 9, 38, 0
1, 117839, Note_on_c, 9, 56, 0
1, 117839, Note_on_c, 9, 68, 0
1, 117839, Note_on_c, 9, 42, 0
1, 117840, Note_on_c, 9, 42, 110
1, 117840, Note_on_c, 9, 36, 125
1, 118079, Note_on_c, 9, 42, 0
1, 118079, Note_on_c, 9, 36, 0
1, 118080, Note_on_c, 9, 56, 121
1, 118080, Note_on_c, 9, 42, 113
1, 118080, Note_on_c, 9, 36, 125
1, 118319, Note_on_c, 9, 56, 0
1, 118319, Note_on_c, 9, 42, 0
1, 118320, Note_on_c, 9, 70, 118
1, 118320, Note_on_c, 9, 42, 108
1, 118559, Note_on_c, 9, 36, 0
1, 118559, Note_on_c, 9, 70, 0
1, 118559, Note_on_c, 9, 42, 0
1, 118560, Note_on_c, 9, 38, 125
1, 118560, Note_on_c, 9, 56, 121
1, 118560, Note_on_c, 9, 68, 69
1, 118560, Note_on_c, 9, 42, 114
1, 118799, Note_on_c, 9, 38, 0
1, 118799, Note_on_c, 9, 56, 0
1, 118799, Note_on_c, 9, 68, 0
1, 118799, Note_on_c, 9, 42, 0
1, 118800, Note_on_c, 9, 69, 117
1, 118800, Note_on_c, 9, 44, 114
1, 119039, Note_on_c, 9, 69, 0
1, 119039, Note_on_c, 9, 44, 0
1, 119040, Note_on_c, 9, 56, 124
1, 119040, Note_on_c, 9, 69, 124
1, 119040, Note_on_c, 9, 42, 116
1, 119040, Note_on_c, 9, 36, 125
1, 119279, Note_on_c, 9, 56, 0
1, 119279, Note_on_c, 9, 69, 0
1, 119279, Note_on_c, 9, 42, 0
1, 119280, Note_on_c, 9, 42, 116
1, 119399, Note_on_c, 9, 42, 0
1, 119400, Note_on_c, 9, 42, 116
1, 119519, Note_on_c, 9, 36, 0
1, 119519, Note_on_c, 9, 42, 0
1, 119520, Note_on_c, 9, 38, 125
1, 119520, Note_on_c, 9, 56, 121
1, 119520, Note_on_c, 9, 68, 69
1, 119520, Note_on_c, 9, 42, 113
1, 119759, Note_on_c, 9, 38, 0
1, 119759, Note_on_c, 9, 56, 0
1, 119759, Note_on_c, 9, 68, 0
1, 119759, Note_on_c, 9, 42, 0
1, 119760, Note_on_c, 9, 42, 111
1, 119760, Note_on_c, 9, 36, 125
1, 119999, Note_on_c, 9, 42, 0
1, 119999, Note_on_c, 9, 36, 0
1, 120000, Note_on_c, 9, 56, 121
1, 120000, Note_on_c, 9, 42, 116
1, 120000, Note_on_c, 9, 36, 125
1, 120239, Note_on_c, 9, 56, 0
1, 120239, Note_on_c, 9, 42, 0
1, 120240, Note_on_c, 9, 70, 117
1, 120240, Note_on_c, 9, 42, 110
1, 120479, Note_on_c, 9, 36, 0
1, 120479, Note_on_c, 9, 70, 0
1, 120479, Note_on_c, 9, 42, 0
1, 120480, Note_on_c, 9, 38, 125
1, 120480, Note_on_c, 9, 56, 121
1, 120480, Note_on_c, 9, 68, 69
1, 120480, Note_on_c, 9, 42, 123
1, 120719, Note_on_c, 9, 38, 0
1, 120719, Note_on_c, 9, 56, 0
1, 120719, Note_on_c, 9, 68, 0
1, 120719, Note_on_c, 9, 42, 0
1, 120720, Note_on_c, 9, 69, 110
1, 120720, Note_on_c, 9, 42, 114
1, 120959, Note_on_c, 9, 69, 0
1, 120959, Note_on_c, 9, 42, 0
1, 120960, Note_on_c, 9, 56, 124
1, 120960, Note_on_c, 9, 69, 124
1, 120960, Note_on_c, 9, 42, 121
1, 120960, Note_on_c, 9, 36, 125
1, 121199, Note_on_c, 9, 56, 0
1, 121199, Note_on_c, 9, 69, 0
1, 121199, Note_on_c, 9, 42, 0
1, 121200, Note_on_c, 9, 42, 110
1, 121319, Note_on_c, 9, 42, 0
1, 121320, Note_on_c, 9, 42, 114
1, 121439, Note_on_c, 9, 36, 0
1, 121439, Note_on_c, 9, 42, 0
1, 121440, Note_on_c, 9, 38, 125
1, 121440, Note_on_c, 9, 56, 121
1, 121440, Note_on_c, 9, 68, 69
1, 121440, Note_on_c, 9, 42, 113
1, 121679, Note_on_c, 9, 38, 0
1, 121679, Note_on_c, 9, 56, 0
1, 121679, Note_on_c, 9, 68, 0
1, 121679, Note_on_c, 9, 42, 0
1, 121680, Note_on_c, 9, 42, 110
1, 121680, Note_on_c, 9, 36, 125
1, 121919, Note_on_c, 9, 42, 0
1, 121919, Note_on_c, 9, 36, 0
1, 121920, Note_on_c, 9, 56, 121
1, 121920, Note_on_c, 9, 42, 115
1, 121920, Note_on_c, 9, 36, 125
1, 122159, Note_on_c, 9, 56, 0
1, 122159, Note_on_c, 9, 42, 0
1, 122160, Note_on_c, 9, 70, 118
1, 122160, Note_on_c, 9, 42, 106
1, 122399, Note_on_c, 9, 36, 0
1, 122399, Note_on_c, 9, 70, 0
1, 122399, Note_on_c, 9, 42, 0
1, 122400, Note_on_c, 9, 38, 125
1, 122400, Note_on_c, 9, 56, 121
1, 122400, Note_on_c, 9, 68, 69
1, 122400, Note_on_c, 9, 42, 119
1, 122639, Note_on_c, 9, 38, 0
1, 122639, Note_on_c, 9, 56, 0
1, 122639, Note_on_c, 9, 68, 0
1, 122639, Note_on_c, 9, 42, 0
1, 122640, Note_on_c, 9, 69, 114
1, 122640, Note_on_c, 9, 42, 107
1, 122879, Note_on_c, 9, 69, 0
1, 122879, Note_on_c, 9, 42, 0
1, 122880, Note_on_c, 9, 56, 124
1, 122880, Note_on_c, 9, 69, 119
1, 122880, Note_on_c, 9, 42, 121
1, 122880, Note_on_c, 9, 36, 125
1, 123119, Note_on_c, 9, 56, 0
1, 123119, Note_on_c, 9, 69, 0
1, 123119, Note_on_c, 9, 42, 0
1, 123120, Note_on_c, 9, 42, 110
1, 123239, Note_on_c, 9, 42, 0
1, 123240, Note_on_c, 9, 42, 113
1, 123359, Note_on_c, 9, 36, 0
1, 123359, Note_on_c, 9, 42, 0
1, 123360, Note_on_c, 9, 38, 125
1, 123360, Note_on_c, 9, 56, 121
1, 123360, Note_on_c, 9, 68, 69
1, 123360, Note_on_c, 9, 42, 113
1, 123599, Note_on_c, 9, 38, 0
1, 123599, Note_on_c, 9, 56, 0
1, 123599, Note_on_c, 9, 68, 0
1, 123599, Note_on_c, 9, 42, 0
1, 123600, Note_on_c, 9, 42, 113
1, 123600, Note_on_c, 9, 36, 125
1, 123839, Note_on_c, 9, 42, 0
1, 123839, Note_on_c, 9, 36, 0
1, 123840, Note_on_c, 9, 56, 121
1, 123840, Note_on_c, 9, 42, 110
1, 123840, Note_on_c, 9, 36, 125
1, 124079, Note_on_c, 9, 56, 0
1, 124079, Note_on_c, 9, 42, 0
1, 124080, Note_on_c, 9, 70, 119
1, 124080, Note_on_c, 9, 42, 103
1, 124319, Note_on_c, 9, 36, 0
1, 124319, Note_on_c, 9, 70, 0
1, 124319, Note_on_c, 9, 42, 0
1, 124320, Note_on_c, 9, 38, 125
1, 124320, Note_on_c, 9, 56, 121
1, 124320, Note_on_c, 9, 68, 69
1, 124320, Note_on_c, 9, 42, 116
1, 124559, Note_on_c, 9, 38, 0
1, 124559, Note_on_c, 9, 56, 0
1, 124559, Note_on_c, 9, 68, 0
1, 124559, Note_on_c, 9, 42, 0
1, 124560, Note_on_c, 9, 69, 113
1, 124560, Note_on_c, 9, 42, 99
1, 124799, Note_on_c, 9, 69, 0
1, 124799, Note_on_c, 9, 42, 0
1, 124800, Note_on_c, 9, 56, 124
1, 124800, Note_on_c, 9, 69, 122
1, 124800, Note_on_c, 9, 42, 119
1, 124800, Note_on_c, 9, 36, 125
1, 125039, Note_on_c, 9, 56, 0
1, 125039, Note_on_c, 9, 69, 0
1, 125039, Note_on_c, 9, 42, 0
1, 125040, Note_on_c, 9, 42, 110
1, 125159, Note_on_c, 9, 42, 0
1, 125160, Note_on_c, 9, 42, 107
1, 125279, Note_on_c, 9, 36, 0
1, 125279, Note_on_c, 9, 42, 0
1, 125280, Note_on_c, 9, 38, 125
1, 125280, Note_on_c, 9, 56, 121
1, 125280, Note_on_c, 9, 68, 69
1, 125280, Note_on_c, 9, 42, 109
1, 125519, Note_on_c, 9, 38, 0
1, 125519, Note_on_c, 9, 56, 0
1, 125519, Note_on_c, 9, 68, 0
1, 125519, Note_on_c, 9, 42, 0
1, 125520, Note_on_c, 9, 42, 105
1, 125520, Note_on_c, 9, 36, 125
1, 125759, Note_on_c, 9, 42, 0
1, 125759, Note_on_c, 9, 36, 0
1, 125760, Note_on_c, 9, 38, 125
1, 125760, Note_on_c, 9, 56, 121
1, 125760, Note_on_c, 9, 42, 113
1, 125760, Note_on_c, 9, 36, 125
1, 125999, Note_on_c, 9, 38, 0
1, 125999, Note_on_c, 9, 56, 0
1, 125999, Note_on_c, 9, 42, 0
1, 125999, Note_on_c, 9, 36, 0
1, 126000, Note_on_c, 9, 70, 119
1, 126000, Note_on_c, 9, 44, 117
1, 126119, Note_on_c, 9, 70, 0
1, 126120, Note_on_c, 9, 38, 125
1, 126239, Note_on_c, 9, 44, 0
1, 126239, Note_on_c, 9, 38, 0
1, 126240, Note_on_c, 9, 38, 125
1, 126240, Note_on_c, 9, 56, 121
1, 126240, Note_on_c, 9, 68, 69
1, 126240, Note_on_c, 9, 42, 113
1, 126479, Note_on_c, 9, 38, 0
1, 126479, Note_on_c, 9, 56, 0
1, 126479, Note_on_c, 9, 68, 0
1, 126479, Note_on_c, 9, 42, 0
1, 126480, Note_on_c, 9, 45, 125
1, 126480, Note_on_c, 9, 69, 112
1, 126480, Note_on_c, 9, 44, 119
1, 126719, Note_on_c, 9, 45, 0
1, 126719, Note_on_c, 9, 69, 0
1, 126719, Note_on_c, 9, 44, 0
1, 126720, Note_on_c, 9, 56, 124
1, 126720, Note_on_c, 9, 69, 120
1, 126720, Note_on_c, 9, 42, 119
1, 126720, Note_on_c, 9, 49, 123
1, 126720, Note_on_c, 9, 36, 125
1, 126959, Note_on_c, 9, 56, 0
1, 126959, Note_on_c, 9, 69, 0
1, 126959, Note_on_c, 9, 42, 0
1, 126959, Note_on_c, 9, 49, 0
1, 126960, Note_on_c, 9, 42, 111
1, 127079, Note_on_c, 9, 42, 0
1, 127080, Note_on_c, 9, 42, 115
1, 127199, Note_on_c, 9, 36, 0
1, 127199, Note_on_c, 9, 42, 0
1, 127200, Note_on_c, 9, 38, 125
1, 127200, Note_on_c, 9, 56, 121
1, 127200, Note_on_c, 9, 68, 69
1, 127200, Note_on_c, 9, 42, 114
1, 127439, Note_on_c, 9, 38, 0
1, 127439, Note_on_c, 9, 56, 0
1, 127439, Note_on_c, 9, 68, 0
1, 127439, Note_on_c, 9, 42, 0
1, 127440, Note_on_c, 9, 42, 115
1, 127440, Note_on_c, 9, 36, 125
1, 127679, Note_on_c, 9, 42, 0
1, 127679, Note_on_c, 9, 36, 0
1, 127680, Note_on_c, 9, 56, 121
1, 127680, Note_on_c, 9, 42, 113
1, 127680, Note_on_c, 9, 36, 125
1, 127919, Note_on_c, 9, 56, 0
1, 127919, Note_on_c, 9, 42, 0
1, 127920, Note_on_c, 9, 70, 116
1, 127920, Note_on_c, 9, 42, 110
1, 128159, Note_on_c, 9, 36, 0
1, 128159, Note_on_c, 9, 70, 0
1, 128159, Note_on_c, 9, 42, 0
1, 128160, Note_on_c, 9, 38, 125
1, 128160, Note_on_c, 9, 56, 121
1, 128160, Note_on_c, 9, 68, 69
1, 128160, Note_on_c, 9, 42, 116
1, 128399, Note_on_c, 9, 38, 0
1, 128399, Note_on_c, 9, 56, 0
1, 128399, Note_on_c, 9, 68, 0
1, 128399, Note_on_c, 9, 42, 0
1, 128400, Note_on_c, 9, 69, 112
1, 128400, Note_on_c, 9, 42, 101
1, 128639, Note_on_c, 9, 69, 0
1, 128639, Note_on_c, 9, 42, 0
1, 128640, Note_on_c, 9, 56, 124
1, 128640, Note_on_c, 9, 69, 125
1, 128640, Note_on_c, 9, 42, 121
1, 128640, Note_on_c, 9, 36, 125
1, 128879, Note_on_c, 9, 56, 0
1, 128879, Note_on_c, 9, 69, 0
1, 128879, Note_on_c, 9, 42, 0
1, 128880, Note_on_c, 9, 42, 114
1, 128999, Note_on_c, 9, 42, 0
1, 129000, Note_on_c, 9, 42, 106
1, 129119, Note_on_c, 9, 36, 0
1, 129119, Note_on_c, 9, 42, 0
1, 129120, Note_on_c, 9, 38, 125
1, 129120, Note_on_c, 9, 56, 121
1, 129120, Note_on_c, 9, 68, 69
1, 129120, Note_on_c, 9, 42, 113
1, 129359, Note_on_c, 9, 38, 0
1, 129359, Note_on_c, 9, 56, 0
1, 129359, Note_on_c, 9, 68, 0
1, 129359, Note_on_c, 9, 42, 0
1, 129360, Note_on_c, 9, 42, 108
1, 129360, Note_on_c, 9, 36, 125
1, 129599, Note_on_c, 9, 42, 0
1, 129599, Note_on_c, 9, 36, 0
1, 129600, Note_on_c, 9, 56, 121
1, 129600, Note_on_c, 9, 42, 115
1, 129600, Note_on_c, 9, 36, 125
1, 129839, Note_on_c, 9, 56, 0
1, 129839, Note_on_c, 9, 42, 0
1, 129840, Note_on_c, 9, 70, 116
1, 129840, Note_on_c, 9, 42, 105
1, 130079, Note_on_c, 9, 36, 0
1, 130079, Note_on_c, 9, 70, 0
1, 130079, Note_on_c, 9, 42, 0
1, 130080, Note_on_c, 9, 38, 125
1, 130080, Note_on_c, 9, 56, 121
1, 130080, Note_on_c, 9, 68, 69
1, 130080, Note_on_c, 9, 42, 117
1, 130319, Note_on_c, 9, 38, 0
1, 130319, Note_on_c, 9, 56, 0
1, 130319, Note_on_c, 9, 68, 0
1, 130319, Note_on_c, 9, 42, 0
1, 130320, Note_on_c, 9, 69, 115
1, 130320, Note_on_c, 9, 42, 102
1, 130559, Note_on_c, 9, 69, 0
1, 130559, Note_on_c, 9, 42, 0
1, 130560, Note_on_c, 9, 56, 124
1, 130560, Note_on_c, 9, 69, 125
1, 130560, Note_on_c, 9, 42, 116
1, 130560, Note_on_c, 9, 36, 125
1, 130799, Note_on_c, 9, 56, 0
1, 130799, Note_on_c, 9, 69, 0
1, 130799, Note_on_c, 9, 42, 0
1, 130800, Note_on_c, 9, 42, 111
1, 130919, Note_on_c, 9, 42, 0
1, 130920, Note_on_c, 9, 42, 106
1, 131039, Note_on_c, 9, 36, 0
1, 131039, Note_on_c, 9, 42, 0
1, 131040, Note_on_c, 9, 38, 125
1, 131040, Note_on_c, 9, 56, 121
1, 131040, Note_on_c, 9, 68, 69
1, 131040, Note_on_c, 9, 42, 113
1, 131279, Note_on_c, 9, 38, 0
1, 131279, Note_on_c, 9, 56, 0
1, 131279, Note_on_c, 9, 68, 0
1, 131279, Note_on_c, 9, 42, 0
1, 131280, Note_on_c, 9, 42, 105
1, 131280, Note_on_c, 9, 36, 125
1, 131519, Note_on_c, 9, 42, 0
1, 131519, Note_on_c, 9, 36, 0
1, 131520, Note_on_c, 9, 56, 121
1, 131520, Note_on_c, 9, 42, 114
1, 131520, Note_on_c, 9, 36, 125
1, 131759, Note_on_c, 9, 56, 0
1, 131759, Note_on_c, 9, 42, 0
1, 131760, Note_on_c, 9, 70, 125
1, 131760, Note_on_c, 9, 42, 108
1, 131999, Note_on_c, 9, 36, 0
1, 131999, Note_on_c, 9, 70, 0
1, 131999, Note_on_c, 9, 42, 0
1, 132000, Note_on_c, 9, 38, 125
1, 132000, Note_on_c, 9, 56, 121
1, 132000, Note_on_c, 9, 68, 69
1, 132000, Note_on_c, 9, 42, 119
1, 132239, Note_on_c, 9, 38, 0
1, 132239, Note_on_c, 9, 56, 0
1, 132239, Note_on_c, 9, 68, 0
1, 132239, Note_on_c, 9, 42, 0
1, 132240, Note_on_c, 9, 69, 110
1, 132240, Note_on_c, 9, 42, 107
1, 132479, Note_on_c, 9, 69, 0
1, 132479, Note_on_c, 9, 42, 0
1, 132480, Note_on_c, 9, 56, 124
1, 132480, Note_on_c, 9, 69, 119
1, 132480, Note_on_c, 9, 42, 119
1, 132480, Note_on_c, 9, 36, 125
1, 132719, Note_on_c, 9, 56, 0
1, 132719, Note_on_c, 9, 69, 0
1, 132719, Note_on_c, 9, 42, 0
1, 132720, Note_on_c, 9, 42, 111
1, 132839, Note_on_c, 9, 42, 0
1, 132840, Note_on_c, 9, 42, 102
1, 132959, Note_on_c, 9, 36, 0
1, 132959, Note_on_c, 9, 42, 0
1, 132960, Note_on_c, 9, 38, 125
1, 132960, Note_on_c, 9, 56, 121
1, 132960, Note_on_c, 9, 68, 69
1, 132960, Note_on_c, 9, 42, 115
1, 133199, Note_on_c, 9, 38, 0
1, 133199, Note_on_c, 9, 56, 0
1, 133199, Note_on_c, 9, 68, 0
1, 133199, Note_on_c, 9, 42, 0
1, 133200, Note_on_c, 9, 42, 105
1, 133200, Note_on_c, 9, 36, 125
1, 133439, Note_on_c, 9, 42, 0
1, 133439, Note_on_c, 9, 36, 0
1, 133440, Note_on_c, 9, 56, 121
1, 133440, Note_on_c, 9, 42, 119
1, 133440, Note_on_c, 9, 36, 125
1, 133679, Note_on_c, 9, 56, 0
1, 133679, Note_on_c, 9, 42, 0
1, 133680, Note_on_c, 9, 70, 123
1, 133680, Note_on_c, 9, 42, 103
1, 133919, Note_on_c, 9, 36, 0
1, 133919, Note_on_c, 9, 70, 0
1, 133919, Note_on_c, 9, 42, 0
1, 133920, Note_on_c, 9, 38, 125
1, 133920, Note_on_c, 9, 56, 121
1, 133920, Note_on_c, 9, 68, 69
1, 133920, Note_on_c, 9, 42, 117
1, 134159, Note_on_c, 9, 38, 0
1, 134159, Note_on_c, 9, 56, 0
1, 134159, Note_on_c, 9, 68, 0
1, 134159, Note_on_c, 9, 42, 0
1, 134160, Note_on_c, 9, 69, 115
1, 134160, Note_on_c, 9, 42, 107
1, 134399, Note_on_c, 9, 69, 0
1, 134399, Note_on_c, 9, 42, 0
1, 134400, Note_on_c, 9, 56, 124
1, 134400, Note_on_c, 9, 69, 120
1, 134400, Note_on_c, 9, 42, 116
1, 134400, Note_on_c, 9, 36, 125
1, 134639, Note_on_c, 9, 56, 0
1, 134639, Note_on_c, 9, 69, 0
1, 134639, Note_on_c, 9, 42, 0
1, 134640, Note_on_c, 9, 42, 113
1, 134759, Note_on_c, 9, 42, 0
1, 134760, Note_on_c, 9, 42, 107
1, 134879, Note_on_c, 9, 36, 0
1, 134879, Note_on_c, 9, 42, 0
1, 134880, Note_on_c, 9, 38, 125
1, 134880, Note_on_c, 9, 56, 121
1, 134880, Note_on_c, 9, 68, 69
1, 134880, Note_on_c, 9, 42, 111
1, 135119, Note_on_c, 9, 38, 0
1, 135119, Note_on_c, 9, 56, 0
1, 135119, Note_on_c, 9, 68, 0
1, 135119, Note_on_c, 9, 42, 0
1, 135120, Note_on_c, 9, 42, 110
1, 135120, Note_on_c, 9, 36, 125
1, 135359, Note_on_c, 9, 42, 0
1, 135359, Note_on_c, 9, 36, 0
1, 135360, Note_on_c, 9, 56, 121
1, 135360, Note_on_c, 9, 42, 114
1, 135360, Note_on_c, 9, 36, 125
1, 135599, Note_on_c, 9, 56, 0
1, 135599, Note_on_c, 9, 42, 0
1, 135600, Note_on_c, 9, 70, 121
1, 135600, Note_on_c, 9, 42, 101
1, 135839, Note_on_c, 9, 36, 0
1, 135839, Note_on_c, 9, 70, 0
1, 135839, Note_on_c, 9, 42, 0
1, 135840, Note_on_c, 9, 38, 125
1, 135840, Note_on_c, 9, 56, 121
1, 135840, Note_on_c, 9, 68, 69
1, 135840, Note_on_c, 9, 42, 121
1, 136079, Note_on_c, 9, 38, 0
1, 136079, Note_on_c, 9, 56, 0
1, 136079, Note_on_c, 9, 68, 0
1, 136079, Note_on_c, 9, 42, 0
1, 136080, Note_on_c, 9, 69, 117
1, 136080, Note_on_c, 9, 42, 103
1, 136319, Note_on_c, 9, 69, 0
1, 136319, Note_on_c, 9, 42, 0
1, 136320, Note_on_c, 9, 56, 124
1, 136320, Note_on_c, 9, 69, 122
1, 136320, Note_on_c, 9, 42, 116
1, 136320, Note_on_c, 9, 36, 125
1, 136559, Note_on_c, 9, 56, 0
1, 136559, Note_on_c, 9, 69, 0
1, 136559, Note_on_c, 9, 42, 0
1, 136560, Note_on_c, 9, 42, 109
1, 136679, Note_on_c, 9, 42, 0
1, 136680, Note_on_c, 9, 42, 106
1, 136799, Note_on_c, 9, 36, 0
1, 136799, Note_on_c, 9, 42, 0
1, 136800, Note_on_c, 9, 38, 125
1, 136800, Note_on_c, 9, 56, 121
1, 136800, Note_on_c, 9, 68, 69
1, 136800, Note_on_c, 9, 42, 111
1, 137039, Note_on_c, 9, 38, 0
1, 137039, Note_on_c, 9, 56, 0
1, 137039, Note_on_c, 9, 68, 0
1, 137039, Note_on_c, 9, 42, 0
1, 137040, Note_on_c, 9, 42, 102
1, 137040, Note_on_c, 9, 36, 125
1, 137279, Note_on_c, 9, 42, 0
1, 137279, Note_on_c, 9, 36, 0
1, 137280, Note_on_c, 9, 56, 121
1, 137280, Note_on_c, 9, 42, 117
1, 137280, Note_on_c, 9, 36, 125
1, 137519, Note_on_c, 9, 56, 0
1, 137519, Note_on_c, 9, 42, 0
1, 137520, Note_on_c, 9, 70, 119
1, 137520, Note_on_c, 9, 42, 101
1, 137759, Note_on_c, 9, 36, 0
1, 137759, Note_on_c, 9, 70, 0
1, 137759, Note_on_c, 9, 42, 0
1, 137760, Note_on_c, 9, 38, 125
1, 137760, Note_on_c, 9, 56, 121
1, 137760, Note_on_c, 9, 68, 69
1, 137760, Note_on_c, 9, 42, 116
1, 137999, Note_on_c, 9, 38, 0
1, 137999, Note_on_c, 9, 56, 0
1, 137999, Note_on_c, 9, 68, 0
1, 137999, Note_on_c, 9, 42, 0
1, 138000, Note_on_c, 9, 69, 115
1, 138000, Note_on_c, 9, 42, 105
1, 138239, Note_on_c, 9, 69, 0
1, 138239, Note_on_c, 9, 42, 0
1, 138240, Note_on_c, 9, 56, 124
1, 138240, Note_on_c, 9, 69, 124
1, 138240, Note_on_c, 9, 42, 119
1, 138240, Note_on_c, 9, 36, 125
1, 138479, Note_on_c, 9, 56, 0
1, 138479, Note_on_c, 9, 69, 0
1, 138479, Note_on_c, 9, 42, 0
1, 138480, Note_on_c, 9, 42, 105
1, 138599, Note_on_c, 9, 42, 0
1, 138600, Note_on_c, 9, 42, 103
1, 138719, Note_on_c, 9, 36, 0
1, 138719, Note_on_c, 9, 42, 0
1, 138720, Note_on_c, 9, 38, 125
1, 138720, Note_on_c, 9, 56, 121
1, 138720, Note_on_c, 9, 68, 69
1, 138720, Note_on_c, 9, 42, 113
1, 138959, Note_on_c, 9, 38, 0
1, 138959, Note_on_c, 9, 56, 0
1, 138959, Note_on_c, 9, 68, 0
1, 138959, Note_on_c, 9, 42, 0
1, 138960, Note_on_c, 9, 42, 109
1, 138960, Note_on_c, 9, 36, 125
1, 139199, Note_on_c, 9, 42, 0
1, 139199, Note_on_c, 9, 36, 0
1, 139200, Note_on_c, 9, 56, 121
1, 139200, Note_on_c, 9, 42, 119
1, 139200, Note_on_c, 9, 36, 125
1, 139439, Note_on_c, 9, 56, 0
1, 139439, Note_on_c, 9, 42, 0
1, 139440, Note_on_c, 9, 70, 118
1, 139440, Note_on_c, 9, 42, 105
1, 139679, Note_on_c, 9, 36, 0
1, 139679, Note_on_c, 9, 70, 0
1, 139679, Note_on_c, 9, 42, 0
1, 139680, Note_on_c, 9, 38, 125
1, 139680, Note_on_c, 9, 56, 121
1, 139680, Note_on_c, 9, 68, 69
1, 139680, Note_on_c, 9, 42, 119
1, 139919, Note_on_c, 9, 38, 0
1, 139919, Note_on_c, 9, 56, 0
1, 139919, Note_on_c, 9, 68, 0
1, 139919, Note_on_c, 9, 42, 0
1, 139920, Note_on_c, 9, 69, 117
1, 139920, Note_on_c, 9, 42, 101
1, 140159, Note_on_c, 9, 69, 0
1, 140159, Note_on_c, 9, 42, 0
1, 140160, Note_on_c, 9, 56, 124
1, 140160, Note_on_c, 9, 69, 122
1, 140160, Note_on_c, 9, 42, 119
1, 140160, Note_on_c, 9, 36, 125
1, 140399, Note_on_c, 9, 56, 0
1, 140399, Note_on_c, 9, 69, 0
1, 140399, Note_on_c, 9, 42, 0
1, 140400, Note_on_c, 9, 42, 109
1, 140519, Note_on_c, 9, 42, 0
1, 140520, Note_on_c, 9, 42, 106
1, 140639, Note_on_c, 9, 36, 0
1, 140639, Note_on_c, 9, 42, 0
1, 140640, Note_on_c, 9, 38, 125
1, 140640, Note_on_c, 9, 56, 121
1, 140640, Note_on_c, 9, 68, 69
1, 140640, Note_on_c, 9, 42, 113
1, 140879, Note_on_c, 9, 38, 0
1, 140879, Note_on_c, 9, 56, 0
1, 140879, Note_on_c, 9, 68, 0
1, 140879, Note_on_c, 9, 42, 0
1, 140880, Note_on_c, 9, 42, 103
1, 140880, Note_on_c, 9, 36, 125
1, 141119, Note_on_c, 9, 42, 0
1, 141119, Note_on_c, 9, 36, 0
1, 141120, Note_on_c, 9, 56, 121
1, 141120, Note_on_c, 9, 42, 115
1, 141120, Note_on_c, 9, 36, 125
1, 141359, Note_on_c, 9, 56, 0
1, 141359, Note_on_c, 9, 42, 0
1, 141360, Note_on_c, 9, 70, 116
1, 141360, Note_on_c, 9, 42, 111
1, 141599, Note_on_c, 9, 36, 0
1, 141599, Note_on_c, 9, 70, 0
1, 141599, Note_on_c, 9, 42, 0
1, 141600, Note_on_c, 9, 38, 125
1, 141600, Note_on_c, 9, 56, 121
1, 141600, Note_on_c, 9, 68, 69
1, 141600, Note_on_c, 9, 42, 119
1, 141839, Note_on_c, 9, 38, 0
1, 141839, Note_on_c, 9, 56, 0
1, 141839, Note_on_c, 9, 68, 0
1, 141839, Note_on_c, 9, 42, 0
1, 141840, Note_on_c, 9, 38, 125
1, 141840, Note_on_c, 9, 69, 112
1, 141840, Note_on_c, 9, 44, 119
1, 141959, Note_on_c, 9, 38, 0
1, 141959, Note_on_c, 9, 69, 0
1, 141960, Note_on_c, 9, 38, 125
1, 142079, Note_on_c, 9, 44, 0
1, 142079, Note_on_c, 9, 38, 0
1, 142080, Note_on_c, 9, 56, 124
1, 142080, Note_on_c, 9, 69, 119
1, 142080, Note_on_c, 9, 42, 117
1, 142080, Note_on_c, 9, 49, 123
1, 142080, Note_on_c, 9, 36, 125
1, 142319, Note_on_c, 9, 56, 0
1, 142319, Note_on_c, 9, 69, 0
1, 142319, Note_on_c, 9, 42, 0
1, 142319, Note_on_c, 9, 49, 0
1, 142320, Note_on_c, 9, 42, 114
1, 142439, Note_on_c, 9, 42, 0
1, 142440, Note_on_c, 9, 42, 111
1, 142559, Note_on_c, 9, 36, 0
1, 142559, Note_on_c, 9, 42, 0
1, 142560, Note_on_c, 9, 38, 125
1, 142560, Note_on_c, 9, 56, 121
1, 142560, Note_on_c, 9, 68, 69
1, 142560, Note_on_c, 9, 42, 113
1, 142799, Note_on_c, 9, 38, 0
1, 142799, Note_on_c, 9, 56, 0
1, 142799, Note_on_c, 9, 68, 0
1, 142799, Note_on_c, 9, 42, 0
1, 142800, Note_on_c, 9, 42, 110
1, 142800, Note_on_c, 9, 36, 125
1, 143039, Note_on_c, 9, 42, 0
1, 143039, Note_on_c, 9, 36, 0
1, 143040, Note_on_c, 9, 56, 121
1, 143040, Note_on_c, 9, 42, 115
1, 143040, Note_on_c, 9, 36, 125
1, 143279, Note_on_c, 9, 56, 0
1, 143279, Note_on_c, 9, 42, 0
1, 143280, Note_on_c, 9, 70, 118
1, 143280, Note_on_c, 9, 42, 101
1, 143519, Note_on_c, 9, 36, 0
1, 143519, Note_on_c, 9, 70, 0
1, 143519, Note_on_c, 9, 42, 0
1, 143520, Note_on_c, 9, 38, 125
1, 143520, Note_on_c, 9, 56, 121
1, 143520, Note_on_c, 9, 68, 69
1, 143520, Note_on_c, 9, 42, 121
1, 143759, Note_on_c, 9, 38, 0
1, 143759, Note_on_c, 9, 56, 0
1, 143759, Note_on_c, 9, 68, 0
1, 143759, Note_on_c, 9, 42, 0
1, 143760, Note_on_c, 9, 69, 112
1, 143760, Note_on_c, 9, 42, 110
1, 143999, Note_on_c, 9, 69, 0
1, 143999, Note_on_c, 9, 42, 0
1, 144000, Note_on_c, 9, 56, 124
1, 144000, Note_on_c, 9, 69, 124
1, 144000, Note_on_c, 9, 42, 117
1, 144000, Note_on_c, 9, 36, 125
1, 144239, Note_on_c, 9, 56, 0
1, 144239, Note_on_c, 9, 69, 0
1, 144239, Note_on_c, 9, 42, 0
1, 144240, Note_on_c, 9, 42, 110
1, 144359, Note_on_c, 9, 42, 0
1, 144360, Note_on_c, 9, 42, 106
1, 144479, Note_on_c, 9, 36, 0
1, 144479, Note_on_c, 9, 42, 0
1, 144480, Note_on_c, 9, 38, 125
1, 144480, Note_on_c, 9, 56, 121
1, 144480, Note_on_c, 9, 68, 69
1, 144480, Note_on_c, 9, 42, 114
1, 144719, Note_on_c, 9, 38, 0
1, 144719, Note_on_c, 9, 56, 0
1, 144719, Note_on_c, 9, 68, 0
1, 144719, Note_on_c, 9, 42, 0
1, 144720, Note_on_c, 9, 42, 102
1, 144720, Note_on_c, 9, 36, 125
1, 144959, Note_on_c, 9, 42, 0
1, 144959, Note_on_c, 9, 36, 0
1, 144960, Note_on_c, 9, 56, 121
1, 144960, Note_on_c, 9, 42, 115
1, 144960, Note_on_c, 9, 36, 125
1, 145199, Note_on_c, 9, 56, 0
1, 145199, Note_on_c, 9, 42, 0
1, 145200, Note_on_c, 9, 70, 119
1, 145200, Note_on_c, 9, 42, 104
1, 145439, Note_on_c, 9, 36, 0
1, 145439, Note_on_c, 9, 70, 0
1, 145439, Note_on_c, 9, 42, 0
1, 145440, Note_on_c, 9, 38, 125
1, 145440, Note_on_c, 9, 56, 121
1, 145440, Note_on_c, 9, 68, 69
1, 145440, Note_on_c, 9, 42, 121
1, 145679, Note_on_c, 9, 38, 0
1, 145679, Note_on_c, 9, 56, 0
1, 145679, Note_on_c, 9, 68, 0
1, 145679, Note_on_c, 9, 42, 0
1, 145680, Note_on_c, 9, 69, 114
1, 145680, Note_on_c, 9, 42, 107
1, 145919, Note_on_c, 9, 69, 0
1, 145919, Note_on_c, 9, 42, 0
1, 145920, Note_on_c, 9, 56, 124
1, 145920, Note_on_c, 9, 69, 119
1, 145920, Note_on_c, 9, 42, 117
1, 145920, Note_on_c, 9, 36, 125
1, 146159, Note_on_c, 9, 56, 0
1, 146159, Note_on_c, 9, 69, 0
1, 146159, Note_on_c, 9, 42, 0
1, 146160, Note_on_c, 9, 42, 111
1, 146279, Note_on_c, 9, 42, 0
1, 146280, Note_on_c, 9, 42, 110
1, 146399, Note_on_c, 9, 36, 0
1, 146399, Note_on_c, 9, 42, 0
1, 146400, Note_on_c, 9, 38, 125
1, 146400, Note_on_c, 9, 56, 121
1, 146400, Note_on_c, 9, 68, 69
1, 146400, Note_on_c, 9, 42, 110
1, 146639, Note_on_c, 9, 38, 0
1, 146639, Note_on_c, 9, 56, 0
1, 146639, Note_on_c, 9, 68, 0
1, 146639, Note_on_c, 9, 42, 0
1, 146640, Note_on_c, 9, 42, 107
1, 146640, Note_on_c, 9, 36, 125
1, 146879, Note_on_c, 9, 42, 0
1, 146879, Note_on_c, 9, 36, 0
1, 146880, Note_on_c, 9, 56, 121
1, 146880, Note_on_c, 9, 42, 121
1, 146880, Note_on_c, 9, 36, 125
1, 147119, Note_on_c, 9, 56, 0
1, 147119, Note_on_c, 9, 42, 0
1, 147120, Note_on_c, 9, 70, 119
1, 147120, Note_on_c, 9, 42, 104
1, 147359, Note_on_c, 9, 36, 0
1, 147359, Note_on_c, 9, 70, 0
1, 147359, Note_on_c, 9, 42, 0
1, 147360, Note_on_c, 9, 38, 125
1, 147360, Note_on_c, 9, 56, 121
1, 147360, Note_on_c, 9, 68, 69
1, 147360, Note_on_c, 9, 42, 123
1, 147599, Note_on_c, 9, 38, 0
1, 147599, Note_on_c, 9, 56, 0
1, 147599, Note_on_c, 9, 68, 0
1, 147599, Note_on_c, 9, 42, 0
1, 147600, Note_on_c, 9, 69, 117
1, 147600, Note_on_c, 9, 42, 106
1, 147839, Note_on_c, 9, 69, 0
1, 147839, Note_on_c, 9, 42, 0
1, 147840, Note_on_c, 9, 56, 124
1, 147840, Note_on_c, 9, 69, 124
1, 147840, Note_on_c, 9, 42, 117
1, 147840, Note_on_c, 9, 36, 125
1, 148079, Note_on_c, 9, 56, 0
1, 148079, Note_on_c, 9, 69, 0
1, 148079, Note_on_c, 9, 42, 0
1, 148080, Note_on_c, 9, 42, 111
1, 148199, Note_on_c, 9, 42, 0
1, 148200, Note_on_c, 9, 42, 108
1, 148319, Note_on_c, 9, 36, 0
1, 148319, Note_on_c, 9, 42, 0
1, 148320, Note_on_c, 9, 38, 125
1, 148320, Note_on_c, 9, 56, 121
1, 148320, Note_on_c, 9, 68, 69
1, 148320, Note_on_c, 9, 42, 116
1, 148559, Note_on_c, 9, 38, 0
1, 148559, Note_on_c, 9, 56, 0
1, 148559, Note_on_c, 9, 68, 0
1, 148559, Note_on_c, 9, 42, 0
1, 148560, Note_on_c, 9, 42, 109
1, 148560, Note_on_c, 9, 36, 125
1, 148799, Note_on_c, 9, 42, 0
1, 148799, Note_on_c, 9, 36, 0
1, 148800, Note_on_c, 9, 56, 121
1, 148800, Note_on_c, 9, 42, 116
1, 148800, Note_on_c, 9, 36, 125
1, 149039, Note_on_c, 9, 56, 0
1, 149039, Note_on_c, 9, 42, 0
1, 149040, Note_on_c, 9, 70, 117
1, 149040, Note_on_c, 9, 42, 107
1, 149279, Note_on_c, 9, 36, 0
1, 149279, Note_on_c, 9, 70, 0
1, 149279, Note_on_c, 9, 42, 0
1, 149280, Note_on_c, 9, 38, 125
1, 149280, Note_on_c, 9, 56, 121
1, 149280, Note_on_c, 9, 68, 69
1, 149280, Note_on_c, 9, 42, 119
1, 149519, Note_on_c, 9, 38, 0
1, 149519, Note_on_c, 9, 56, 0
1, 149519, Note_on_c, 9, 68, 0
1, 149519, Note_on_c, 9, 42, 0
1, 149520, Note_on_c, 9, 69, 111
1, 149520, Note_on_c, 9, 42, 109
1, 149759, Note_on_c, 9, 69, 0
1, 149759, Note_on_c, 9, 42, 0
1, 149760, Note_on_c, 9, 56, 124
1, 149760, Note_on_c, 9, 69, 122
1, 149760, Note_on_c, 9, 42, 116
1, 149760, Note_on_c, 9, 36, 125
1, 149999, Note_on_c, 9, 56, 0
1, 149999, Note_on_c, 9, 69, 0
1, 149999, Note_on_c, 9, 42, 0
1, 150000, Note_on_c, 9, 42, 108
1, 150119, Note_on_c, 9, 42, 0
1, 150120, Note_on_c, 9, 42, 109
1, 150239, Note_on_c, 9, 36, 0
1, 150239, Note_on_c, 9, 42, 0
1, 150240, Note_on_c, 9, 38, 125
1, 150240, Note_on_c, 9, 56, 121
1, 150240, Note_on_c, 9, 68, 69
1, 150240, Note_on_c, 9, 42, 114
1, 150479, Note_on_c, 9, 38, 0
1, 150479, Note_on_c, 9, 56, 0
1, 150479, Note_on_c, 9, 68, 0
1, 150479, Note_on_c, 9, 42, 0
1, 150480, Note_on_c, 9, 42, 111
1, 150480, Note_on_c, 9, 36, 125
1, 150719, Note_on_c, 9, 42, 0
1, 150719, Note_on_c, 9, 36, 0
1, 150720, Note_on_c, 9, 56, 121
1, 150720, Note_on_c, 9, 42, 117
1, 150720, Note_on_c, 9, 36, 125
1, 150959, Note_on_c, 9, 56, 0
1, 150959, Note_on_c, 9, 42, 0
1, 150960, Note_on_c, 9, 70, 119
1, 150960, Note_on_c, 9, 42, 106
1, 151199, Note_on_c, 9, 36, 0
1, 151199, Note_on_c, 9, 70, 0
1, 151199, Note_on_c, 9, 42, 0
1, 151200, Note_on_c, 9, 38, 125
1, 151200, Note_on_c, 9, 56, 121
1, 151200, Note_on_c, 9, 68, 69
1, 151200, Note_on_c, 9, 42, 123
1, 151439, Note_on_c, 9, 38, 0
1, 151439, Note_on_c, 9, 56, 0
1, 151439, Note_on_c, 9, 68, 0
1, 151439, Note_on_c, 9, 42, 0
1, 151440, Note_on_c, 9, 69, 119
1, 151440, Note_on_c, 9, 42, 108
1, 151679, Note_on_c, 9, 69, 0
1, 151679, Note_on_c, 9, 42, 0
1, 151680, Note_on_c, 9, 56, 124
1, 151680, Note_on_c, 9, 69, 120
1, 151680, Note_on_c, 9, 42, 116
1, 151680, Note_on_c, 9, 36, 125
1, 151919, Note_on_c, 9, 56, 0
1, 151919, Note_on_c, 9, 69, 0
1, 151919, Note_on_c, 9, 42, 0
1, 151920, Note_on_c, 9, 42, 114
1, 152039, Note_on_c, 9, 42, 0
1, 152040, Note_on_c, 9, 42, 113
1, 152159, Note_on_c, 9, 36, 0
1, 152159, Note_on_c, 9, 42, 0
1, 152160, Note_on_c, 9, 38, 125
1, 152160, Note_on_c, 9, 56, 121
1, 152160, Note_on_c, 9, 68, 69
1, 152160, Note_on_c, 9, 42, 117
1, 152399, Note_on_c, 9, 38, 0
1, 152399, Note_on_c, 9, 56, 0
1, 152399, Note_on_c, 9, 68, 0
1, 152399, Note_on_c, 9, 42, 0
1, 152400, Note_on_c, 9, 42, 110
1, 152400, Note_on_c, 9, 36, 125
1, 152639, Note_on_c, 9, 42, 0
1, 152639, Note_on_c, 9, 36, 0
1, 152640, Note_on_c, 9, 56, 121
1, 152640, Note_on_c, 9, 42, 117
1, 152640, Note_on_c, 9, 36, 125
1, 152879, Note_on_c, 9, 56, 0
1, 152879, Note_on_c, 9, 42, 0
1, 152880, Note_on_c, 9, 70, 119
1, 152880, Note_on_c, 9, 42, 106
1, 153119, Note_on_c, 9, 36, 0
1, 153119, Note_on_c, 9, 70, 0
1, 153119, Note_on_c, 9, 42, 0
1, 153120, Note_on_c, 9, 38, 125
1, 153120, Note_on_c, 9, 56, 121
1, 153120, Note_on_c, 9, 68, 69
1, 153120, Note_on_c, 9, 42, 121
1, 153359, Note_on_c, 9, 38, 0
1, 153359, Note_on_c, 9, 56, 0
1, 153359, Note_on_c, 9, 68, 0
1, 153359, Note_on_c, 9, 42, 0
1, 153360, Note_on_c, 9, 69, 113
1, 153360, Note_on_c, 9, 42, 105
1, 153599, Note_on_c, 9, 69, 0
1, 153599, Note_on_c, 9, 42, 0
1, 153600, Note_on_c, 9, 56, 124
1, 153600, Note_on_c, 9, 69, 122
1, 153600, Note_on_c, 9, 42, 119
1, 153600, Note_on_c, 9, 36, 125
1, 153839, Note_on_c, 9, 56, 0
1, 153839, Note_on_c, 9, 69, 0
1, 153839, Note_on_c, 9, 42, 0
1, 153840, Note_on_c, 9, 42, 110
1, 153959, Note_on_c, 9, 42, 0
1, 153960, Note_on_c, 9, 42, 110
1, 154079, Note_on_c, 9, 36, 0
1, 154079, Note_on_c, 9, 42, 0
1, 154080, Note_on_c, 9, 38, 125
1, 154080, Note_on_c, 9, 56, 121
1, 154080, Note_on_c, 9, 68, 69
1, 154080, Note_on_c, 9, 42, 114
1, 154319, Note_on_c, 9, 38, 0
1, 154319, Note_on_c, 9, 56, 0
1, 154319, Note_on_c, 9, 68, 0
1, 154319, Note_on_c, 9, 42, 0
1, 154320, Note_on_c, 9, 42, 103
1, 154320, Note_on_c, 9, 36, 125
1, 154559, Note_on_c, 9, 42, 0
1, 154559, Note_on_c, 9, 36, 0
1, 154560, Note_on_c, 9, 56, 121
1, 154560, Note_on_c, 9, 42, 121
1, 154560, Note_on_c, 9, 36, 125
1, 154799, Note_on_c, 9, 56, 0
1, 154799, Note_on_c, 9, 42, 0
1, 154800, Note_on_c, 9, 70, 121
1, 154800, Note_on_c, 9, 42, 105
1, 155039, Note_on_c, 9, 36, 0
1, 155039, Note_on_c, 9, 70, 0
1, 155039, Note_on_c, 9, 42, 0
1, 155040, Note_on_c, 9, 38, 125
1, 155040, Note_on_c, 9, 56, 121
1, 155040, Note_on_c, 9, 68, 69
1, 155040, Note_on_c, 9, 42, 119
1, 155279, Note_on_c, 9, 38, 0
1, 155279, Note_on_c, 9, 56, 0
1, 155279, Note_on_c, 9, 68, 0
1, 155279, Note_on_c, 9, 42, 0
1, 155280, Note_on_c, 9, 69, 114
1, 155280, Note_on_c, 9, 42, 108
1, 155519, Note_on_c, 9, 69, 0
1, 155519, Note_on_c, 9, 42, 0
1, 155520, Note_on_c, 9, 56, 124
1, 155520, Note_on_c, 9, 69, 122
1, 155520, Note_on_c, 9, 42, 121
1, 155520, Note_on_c, 9, 36, 125
1, 155759, Note_on_c, 9, 56, 0
1, 155759, Note_on_c, 9, 69, 0
1, 155759, Note_on_c, 9, 42, 0
1, 155760, Note_on_c, 9, 42, 111
1, 155879, Note_on_c, 9, 42, 0
1, 155880, Note_on_c, 9, 42, 109
1, 155999, Note_on_c, 9, 36, 0
1, 155999, Note_on_c, 9, 42, 0
1, 156000, Note_on_c, 9, 38, 125
1, 156000, Note_on_c, 9, 56, 121
1, 156000, Note_on_c, 9, 68, 69
1, 156000, Note_on_c, 9, 42, 115
1, 156239, Note_on_c, 9, 38, 0
1, 156239, Note_on_c, 9, 56, 0
1, 156239, Note_on_c, 9, 68, 0
1, 156239, Note_on_c, 9, 42, 0
1, 156240, Note_on_c, 9, 42, 113
1, 156240, Note_on_c, 9, 36, 125
1, 156479, Note_on_c, 9, 42, 0
1, 156479, Note_on_c, 9, 36, 0
1, 156480, Note_on_c, 9, 56, 121
1, 156480, Note_on_c, 9, 42, 113
1, 156480, Note_on_c, 9, 36, 125
1, 156719, Note_on_c, 9, 56, 0
1, 156719, Note_on_c, 9, 42, 0
1, 156720, Note_on_c, 9, 70, 111
1, 156720, Note_on_c, 9, 42, 111
1, 156839, Note_on_c, 9, 70, 0
1, 156839, Note_on_c, 9, 42, 0
1, 156840, Note_on_c, 9, 38, 114
1, 156959, Note_on_c, 9, 36, 0
1, 156959, Note_on_c, 9, 38, 0
1, 156960, Note_on_c, 9, 38, 125
1, 156960, Note_on_c, 9, 56, 121
1, 156960, Note_on_c, 9, 68, 69
1, 156960, Note_on_c, 9, 42, 123
1, 157079, Note_on_c, 9, 38, 0
1, 157079, Note_on_c, 9, 56, 0
1, 157079, Note_on_c, 9, 68, 0
1, 157079, Note_on_c, 9, 42, 0
1, 157080, Note_on_c, 9, 38, 125
1, 157199, Note_on_c, 9, 38, 0
1, 157200, Note_on_c, 9, 45, 125
1, 157200, Note_on_c, 9, 69, 103
1, 157200, Note_on_c, 9, 44, 114
1, 157439, Note_on_c, 9, 45, 0
1, 157439, Note_on_c, 9, 69, 0
1, 157439, Note_on_c, 9, 44, 0
1, 157440, Note_on_c, 9, 56, 124
1, 157440, Note_on_c, 9, 69, 120
1, 157440, Note_on_c, 9, 42, 121
1, 157440, Note_on_c, 9, 49, 123
1, 157440, Note_on_c, 9, 36, 125
1, 157679, Note_on_c, 9, 56, 0
1, 157679, Note_on_c, 9, 69, 0
1, 157679, Note_on_c, 9, 42, 0
1, 157679, Note_on_c, 9, 49, 0
1, 157680, Note_on_c, 9, 42, 113
1, 157799, Note_on_c, 9, 42, 0
1, 157800, Note_on_c, 9, 42, 110
1, 157919, Note_on_c, 9, 36, 0
1, 157919, Note_on_c, 9, 42, 0
1, 157920, Note_on_c, 9, 38, 125
1, 157920, Note_on_c, 9, 56, 121
1, 157920, Note_on_c, 9, 68, 69
1, 157920, Note_on_c, 9, 42, 115
1, 158159, Note_on_c, 9, 38, 0
1, 158159, Note_on_c, 9, 56, 0
1, 158159, Note_on_c, 9, 68, 0
1, 158159, Note_on_c, 9, 42, 0
1, 158160, Note_on_c, 9, 42, 114
1, 158160, Note_on_c, 9, 36, 125
1, 158399, Note_on_c, 9, 42, 0
1, 158399, Note_on_c, 9, 36, 0
1, 158400, Note_on_c, 9, 56, 121
1, 158400, Note_on_c, 9, 42, 116
1, 158400, Note_on_c, 9, 36, 125
1, 158639, Note_on_c, 9, 56, 0
1, 158639, Note_on_c, 9, 42, 0
1, 158640, Note_on_c, 9, 70, 115
1, 158640, Note_on_c, 9, 42, 108
1, 158879, Note_on_c, 9, 36, 0
1, 158879, Note_on_c, 9, 70, 0
1, 158879, Note_on_c, 9, 42, 0
1, 158880, Note_on_c, 9, 38, 125
1, 158880, Note_on_c, 9, 56, 121
1, 158880, Note_on_c, 9, 68, 69
1, 158880, Note_on_c, 9, 42, 119
1, 159119, Note_on_c, 9, 38, 0
1, 159119, Note_on_c, 9, 56, 0
1, 159119, Note_on_c, 9, 68, 0
1, 159119, Note_on_c, 9, 42, 0
1, 159120, Note_on_c, 9, 69, 112
1, 159120, Note_on_c, 9, 42, 113
1, 159359, Note_on_c, 9, 69, 0
1, 159359, Note_on_c, 9, 42, 0
1, 159360, Note_on_c, 9, 56, 124
1, 159360, Note_on_c, 9, 69, 124
1, 159360, Note_on_c, 9, 42, 116
1, 159360, Note_on_c, 9, 36, 125
1, 159599, Note_on_c, 9, 56, 0
1, 159599, Note_on_c, 9, 69, 0
1, 159599, Note_on_c, 9, 42, 0
1, 159600, Note_on_c, 9, 42, 109
1, 159719, Note_on_c, 9, 42, 0
1, 159720, Note_on_c, 9, 42, 104
1, 159839, Note_on_c, 9, 36, 0
1, 159839, Note_on_c, 9, 42, 0
1, 159840, Note_on_c, 9, 38, 125
1, 159840, Note_on_c, 9, 56, 121
1, 159840, Note_on_c, 9, 68, 69
1, 159840, Note_on_c, 9, 42, 111
1, 160079, Note_on_c, 9, 38, 0
1, 160079, Note_on_c, 9, 56, 0
1, 160079, Note_on_c, 9, 68, 0
1, 160079, Note_on_c, 9, 42, 0
1, 160080, Note_on_c, 9, 42, 107
1, 160080, Note_on_c, 9, 36, 125
1, 160319, Note_on_c, 9, 42, 0
1, 160319, Note_on_c, 9, 36, 0
1, 160320, Note_on_c, 9, 56, 121
1, 160320, Note_on_c, 9, 42, 116
1, 160320, Note_on_c, 9, 36, 125
1, 160559, Note_on_c, 9, 56, 0
1, 160559, Note_on_c, 9, 42, 0
1, 160560, Note_on_c, 9, 70, 113
1, 160560, Note_on_c, 9, 42, 109
1, 160799, Note_on_c, 9, 36, 0
1, 160799, Note_on_c, 9, 70, 0
1, 160799, Note_on_c, 9, 42, 0
1, 160800, Note_on_c, 9, 38, 125
1, 160800, Note_on_c, 9, 56, 121
1, 160800, Note_on_c, 9, 68, 69
1, 160800, Note_on_c, 9, 42, 117
1, 161039, Note_on_c, 9, 38, 0
1, 161039, Note_on_c, 9, 56, 0
1, 161039, Note_on_c, 9, 68, 0
1, 161039, Note_on_c, 9, 42, 0
1, 161040, Note_on_c, 9, 69, 110
1, 161040, Note_on_c, 9, 42, 108
1, 161279, Note_on_c, 9, 69, 0
1, 161279, Note_on_c, 9, 42, 0
1, 161280, Note_on_c, 9, 56, 124
1, 161280, Note_on_c, 9, 69, 124
1, 161280, Note_on_c, 9, 42, 117
1, 161280, Note_on_c, 9, 36, 125
1, 161519, Note_on_c, 9, 56, 0
1, 161519, Note_on_c, 9, 69, 0
1, 161519, Note_on_c, 9, 42, 0
1, 161520, Note_on_c, 9, 42, 111
1, 161639, Note_on_c, 9, 42, 0
1, 161640, Note_on_c, 9, 42, 108
1, 161759, Note_on_c, 9, 36, 0
1, 161759, Note_on_c, 9, 42, 0
1, 161760, Note_on_c, 9, 38, 125
1, 161760, Note_on_c, 9, 56, 121
1, 161760, Note_on_c, 9, 68, 69
1, 161760, Note_on_c, 9, 42, 113
1, 161999, Note_on_c, 9, 38, 0
1, 161999, Note_on_c, 9, 56, 0
1, 161999, Note_on_c, 9, 68, 0
1, 161999, Note_on_c, 9, 42, 0
1, 162000, Note_on_c, 9, 42, 109
1, 162000, Note_on_c, 9, 36, 125
1, 162239, Note_on_c, 9, 42, 0
1, 162239, Note_on_c, 9, 36, 0
1, 162240, Note_on_c, 9, 56, 121
1, 162240, Note_on_c, 9, 42, 117
1, 162240, Note_on_c, 9, 36, 125
1, 162479, Note_on_c, 9, 56, 0
1, 162479, Note_on_c, 9, 42, 0
1, 162480, Note_on_c, 9, 70, 117
1, 162480, Note_on_c, 9, 42, 108
1, 162719, Note_on_c, 9, 36, 0
1, 162719, Note_on_c, 9, 70, 0
1, 162719, Note_on_c, 9, 42, 0
1, 162720, Note_on_c, 9, 38, 125
1, 162720, Note_on_c, 9, 56, 121
1, 162720, Note_on_c, 9, 68, 69
1, 162720, Note_on_c, 9, 42, 119
1, 162959, Note_on_c, 9, 38, 0
1, 162959, Note_on_c, 9, 56, 0
1, 162959, Note_on_c, 9, 68, 0
1, 162959, Note_on_c, 9, 42, 0
1, 162960, Note_on_c, 9, 69, 110
1, 162960, Note_on_c, 9, 42, 106
1, 163199, Note_on_c, 9, 69, 0
1, 163199, Note_on_c, 9, 42, 0
1, 163200, Note_on_c, 9, 56, 124
1, 163200, Note_on_c, 9, 69, 117
1, 163200, Note_on_c, 9, 42, 117
1, 163200, Note_on_c, 9, 36, 125
1, 163439, Note_on_c, 9, 56, 0
1, 163439, Note_on_c, 9, 69, 0
1, 163439, Note_on_c, 9, 42, 0
1, 163440, Note_on_c, 9, 42, 107
1, 163559, Note_on_c, 9, 42, 0
1, 163560, Note_on_c, 9, 42, 111
1, 163679, Note_on_c, 9, 36, 0
1, 163679, Note_on_c, 9, 42, 0
1, 163680, Note_on_c, 9, 38, 125
1, 163680, Note_on_c, 9, 56, 121
1, 163680, Note_on_c, 9, 68, 69
1, 163680, Note_on_c, 9, 42, 113
1, 163919, Note_on_c, 9, 38, 0
1, 163919, Note_on_c, 9, 56, 0
1, 163919, Note_on_c, 9, 68, 0
1, 163919, Note_on_c, 9, 42, 0
1, 163920, Note_on_c, 9, 42, 105
1, 163920, Note_on_c, 9, 36, 125
1, 164159, Note_on_c, 9, 42, 0
1, 164159, Note_on_c, 9, 36, 0
1, 164160, Note_on_c, 9, 56, 121
1, 164160, Note_on_c, 9, 42, 115
1, 164160, Note_on_c, 9, 36, 125
1, 164399, Note_on_c, 9, 56, 0
1, 164399, Note_on_c, 9, 42, 0
1, 164400, Note_on_c, 9, 70, 119
1, 164400, Note_on_c, 9, 42, 110
1, 164639, Note_on_c, 9, 36, 0
1, 164639, Note_on_c, 9, 70, 0
1, 164639, Note_on_c, 9, 42, 0
1, 164640, Note_on_c, 9, 38, 125
1, 164640, Note_on_c, 9, 56, 121
1, 164640, Note_on_c, 9, 68, 69
1, 164640, Note_on_c, 9, 42, 119
1, 164879, Note_on_c, 9, 38, 0
1, 164879, Note_on_c, 9, 56, 0
1, 164879, Note_on_c, 9, 68, 0
1, 164879, Note_on_c, 9, 42, 0
1, 164880, Note_on_c, 9, 69, 106
1, 164880, Note_on_c, 9, 44, 116
1, 165119, Note_on_c, 9, 69, 0
1, 165119, Note_on_c, 9, 44, 0
1, 165120, Note_on_c, 9, 56, 124
1, 165120, Note_on_c, 9, 69, 119
1, 165120, Note_on_c, 9, 42, 116
1, 165120, Note_on_c, 9, 36, 125
1, 165359, Note_on_c, 9, 56, 0
1, 165359, Note_on_c, 9, 69, 0
1, 165359, Note_on_c, 9, 42, 0
1, 165360, Note_on_c, 9, 42, 114
1, 165479, Note_on_c, 9, 42, 0
1, 165480, Note_on_c, 9, 42, 113
1, 165599, Note_on_c, 9, 36, 0
1, 165599, Note_on_c, 9, 42, 0
1, 165600, Note_on_c, 9, 38, 125
1, 165600, Note_on_c, 9, 56, 121
1, 165600, Note_on_c, 9, 68, 69
1, 165600, Note_on_c, 9, 42, 115
1, 165839, Note_on_c, 9, 38, 0
1, 165839, Note_on_c, 9, 56, 0
1, 165839, Note_on_c, 9, 68, 0
1, 165839, Note_on_c, 9, 42, 0
1, 165840, Note_on_c, 9, 42, 103
1, 165840, Note_on_c, 9, 36, 125
1, 166079, Note_on_c, 9, 42, 0
1, 166079, Note_on_c, 9, 36, 0
1, 166080, Note_on_c, 9, 56, 121
1, 166080, Note_on_c, 9, 42, 121
1, 166080, Note_on_c, 9, 36, 125
1, 166319, Note_on_c, 9, 56, 0
1, 166319, Note_on_c, 9, 42, 0
1, 166320, Note_on_c, 9, 70, 113
1, 166320, Note_on_c, 9, 42, 100
1, 166559, Note_on_c, 9, 36, 0
1, 166559, Note_on_c, 9, 70, 0
1, 166559, Note_on_c, 9, 42, 0
1, 166560, Note_on_c, 9, 38, 125
1, 166560, Note_on_c, 9, 56, 121
1, 166560, Note_on_c, 9, 68, 69
1, 166560, Note_on_c, 9, 42, 119
1, 166799, Note_on_c, 9, 38, 0
1, 166799, Note_on_c, 9, 56, 0
1, 166799, Note_on_c, 9, 68, 0
1, 166799, Note_on_c, 9, 42, 0
1, 166800, Note_on_c, 9, 69, 115
1, 166800, Note_on_c, 9, 42, 105
1, 167039, Note_on_c, 9, 69, 0
1, 167039, Note_on_c, 9, 42, 0
1, 167040, Note_on_c, 9, 56, 124
1, 167040, Note_on_c, 9, 69, 122
1, 167040, Note_on_c, 9, 42, 116
1, 167040, Note_on_c, 9, 36, 125
1, 167279, Note_on_c, 9, 56, 0
1, 167279, Note_on_c, 9, 69, 0
1, 167279, Note_on_c, 9, 42, 0
1, 167280, Note_on_c, 9, 42, 111
1, 167399, Note_on_c, 9, 42, 0
1, 167400, Note_on_c, 9, 42, 105
1, 167519, Note_on_c, 9, 36, 0
1, 167519, Note_on_c, 9, 42, 0
1, 167520, Note_on_c, 9, 38, 125
1, 167520, Note_on_c, 9, 56, 121
1, 167520, Note_on_c, 9, 68, 69
1, 167520, Note_on_c, 9, 42, 110
1, 167759, Note_on_c, 9, 38, 0
1, 167759, Note_on_c, 9, 56, 0
1, 167759, Note_on_c, 9, 68, 0
1, 167759, Note_on_c, 9, 42, 0
1, 167760, Note_on_c, 9, 42, 104
1, 167760, Note_on_c, 9, 36, 125
1, 167999, Note_on_c, 9, 42, 0
1, 167999, Note_on_c, 9, 36, 0
1, 168000, Note_on_c, 9, 56, 121
1, 168000, Note_on_c, 9, 42, 116
1, 168000, Note_on_c, 9, 36, 125
1, 168239, Note_on_c, 9, 56, 0
1, 168239, Note_on_c, 9, 42, 0
1, 168240, Note_on_c, 9, 70, 119
1, 168240, Note_on_c, 9, 42, 106
1, 168479, Note_on_c, 9, 36, 0
1, 168479, Note_on_c, 9, 70, 0
1, 168479, Note_on_c, 9, 42, 0
1, 168480, Note_on_c, 9, 38, 125
1, 168480, Note_on_c, 9, 56, 121
1, 168480, Note_on_c, 9, 68, 69
1, 168480, Note_on_c, 9, 42, 119
1, 168719, Note_on_c, 9, 38, 0
1, 168719, Note_on_c, 9, 56, 0
1, 168719, Note_on_c, 9, 68, 0
1, 168719, Note_on_c, 9, 42, 0
1, 168720, Note_on_c, 9, 69, 115
1, 168720, Note_on_c, 9, 42, 104
1, 168959, Note_on_c, 9, 69, 0
1, 168959, Note_on_c, 9, 42, 0
1, 168960, Note_on_c, 9, 56, 124
1, 168960, Note_on_c, 9, 69, 120
1, 168960, Note_on_c, 9, 42, 119
1, 168960, Note_on_c, 9, 36, 125
1, 169199, Note_on_c, 9, 56, 0
1, 169199, Note_on_c, 9, 69, 0
1, 169199, Note_on_c, 9, 42, 0
1, 169200, Note_on_c, 9, 42, 111
1, 169319, Note_on_c, 9, 42, 0
1, 169320, Note_on_c, 9, 42, 106
1, 169439, Note_on_c, 9, 36, 0
1, 169439, Note_on_c, 9, 42, 0
1, 169440, Note_on_c, 9, 38, 125
1, 169440, Note_on_c, 9, 56, 121
1, 169440, Note_on_c, 9, 68, 69
1, 169440, Note_on_c, 9, 42, 116
1, 169679, Note_on_c, 9, 38, 0
1, 169679, Note_on_c, 9, 56, 0
1, 169679, Note_on_c, 9, 68, 0
1, 169679, Note_on_c, 9, 42, 0
1, 169680, Note_on_c, 9, 42, 105
1, 169680, Note_on_c, 9, 36, 125
1, 169919, Note_on_c, 9, 42, 0
1, 169919, Note_on_c, 9, 36, 0
1, 169920, Note_on_c, 9, 56, 121
1, 169920, Note_on_c, 9, 42, 119
1, 169920, Note_on_c, 9, 36, 125
1, 170159, Note_on_c, 9, 56, 0
1, 170159, Note_on_c, 9, 42, 0
1, 170160, Note_on_c, 9, 70, 115
1, 170160, Note_on_c, 9, 42, 104
1, 170399, Note_on_c, 9, 36, 0
1, 170399, Note_on_c, 9, 70, 0
1, 170399, Note_on_c, 9, 42, 0
1, 170400, Note_on_c, 9, 38, 125
1, 170400, Note_on_c, 9, 56, 121
1, 170400, Note_on_c, 9, 68, 69
1, 170400, Note_on_c, 9, 42, 119
1, 170639, Note_on_c, 9, 38, 0
1, 170639, Note_on_c, 9, 56, 0
1, 170639, Note_on_c, 9, 68, 0
1, 170639, Note_on_c, 9, 42, 0
1, 170640, Note_on_c, 9, 69, 119
1, 170640, Note_on_c, 9, 42, 102
1, 170879, Note_on_c, 9, 69, 0
1, 170879, Note_on_c, 9, 42, 0
1, 170880, Note_on_c, 9, 56, 124
1, 170880, Note_on_c, 9, 69, 120
1, 170880, Note_on_c, 9, 42, 119
1, 170880, Note_on_c, 9, 36, 125
1, 171119, Note_on_c, 9, 56, 0
1, 171119, Note_on_c, 9, 69, 0
1, 171119, Note_on_c, 9, 42, 0
1, 171120, Note_on_c, 9, 42, 111
1, 171239, Note_on_c, 9, 42, 0
1, 171240, Note_on_c, 9, 42, 108
1, 171359, Note_on_c, 9, 36, 0
1, 171359, Note_on_c, 9, 42, 0
1, 171360, Note_on_c, 9, 38, 125
1, 171360, Note_on_c, 9, 56, 121
1, 171360, Note_on_c, 9, 68, 69
1, 171360, Note_on_c, 9, 42, 114
1, 171599, Note_on_c, 9, 38, 0
1, 171599, Note_on_c, 9, 56, 0
1, 171599, Note_on_c, 9, 68, 0
1, 171599, Note_on_c, 9, 42, 0
1, 171600, Note_on_c, 9, 42, 106
1, 171600, Note_on_c, 9, 36, 125
1, 171839, Note_on_c, 9, 42, 0
1, 171839, Note_on_c, 9, 36, 0
1, 171840, Note_on_c, 9, 56, 121
1, 171840, Note_on_c, 9, 42, 116
1, 171840, Note_on_c, 9, 36, 125
1, 172079, Note_on_c, 9, 56, 0
1, 172079, Note_on_c, 9, 42, 0
1, 172079, Note_on_c, 9, 36, 0
1, 172080, Note_on_c, 9, 70, 117
1, 172080, Note_on_c, 9, 44, 115
1, 172199, Note_on_c, 9, 70, 0
1, 172200, Note_on_c, 9, 38, 125
1, 172319, Note_on_c, 9, 44, 0
1, 172319, Note_on_c, 9, 38, 0
1, 172320, Note_on_c, 9, 38, 125
1, 172320, Note_on_c, 9, 56, 121
1, 172320, Note_on_c, 9, 68, 69
1, 172320, Note_on_c, 9, 42, 113
1, 172559, Note_on_c, 9, 38, 0
1, 172559, Note_on_c, 9, 56, 0
1, 172559, Note_on_c, 9, 68, 0
1, 172559, Note_on_c, 9, 42, 0
1, 172560, Note_on_c, 9, 38, 125
1, 172560, Note_on_c, 9, 45, 125
1, 172560, Note_on_c, 9, 69, 117
1, 172560, Note_on_c, 9, 44, 115
1, 172799, Note_on_c, 9, 38, 0
1, 172799, Note_on_c, 9, 45, 0
1, 172799, Note_on_c, 9, 69, 0
1, 172799, Note_on_c, 9, 44, 0
1, 172800, Note_on_c, 9, 56, 124
1, 172800, Note_on_c, 9, 69, 119
1, 172800, Note_on_c, 9, 42, 125
1, 172800, Note_on_c, 9, 49, 123
1, 172800, Note_on_c, 9, 36, 125
1, 173039, Note_on_c, 9, 56, 0
1, 173039, Note_on_c, 9, 69, 0
1, 173039, Note_on_c, 9, 42, 0
1, 173039, Note_on_c, 9, 49, 0
1, 173040, Note_on_c, 9, 42, 114
1, 173159, Note_on_c, 9, 42, 0
1, 173160, Note_on_c, 9, 42, 114
1, 173279, Note_on_c, 9, 36, 0
1, 173279, Note_on_c, 9, 42, 0
1, 173280, Note_on_c, 9, 38, 125
1, 173280, Note_on_c, 9, 56, 121
1, 173280, Note_on_c, 9, 68, 69
1, 173280, Note_on_c, 9, 42, 115
1, 173519, Note_on_c, 9, 38, 0
1, 173519, Note_on_c, 9, 56, 0
1, 173519, Note_on_c, 9, 68, 0
1, 173519, Note_on_c, 9, 42, 0
1, 173520, Note_on_c, 9, 42, 111
1, 173520, Note_on_c, 9, 36, 125
1, 173759, Note_on_c, 9, 42, 0
1, 173759, Note_on_c, 9, 36, 0
1, 173760, Note_on_c, 9, 56, 121
1, 173760, Note_on_c, 9, 42, 119
1, 173760, Note_on_c, 9, 36, 125
1, 173999, Note_on_c, 9, 56, 0
1, 173999, Note_on_c, 9, 42, 0
1, 174000, Note_on_c, 9, 70, 115
1, 174000, Note_on_c, 9, 42, 109
1, 174239, Note_on_c, 9, 36, 0
1, 174239, Note_on_c, 9, 70, 0
1, 174239, Note_on_c, 9, 42, 0
1, 174240, Note_on_c, 9, 38, 125
1, 174240, Note_on_c, 9, 56, 121
1, 174240, Note_on_c, 9, 68, 69
1, 174240, Note_on_c, 9, 42, 123
1, 174479, Note_on_c, 9, 38, 0
1, 174479, Note_on_c, 9, 56, 0
1, 174479, Note_on_c, 9, 68, 0
1, 174479, Note_on_c, 9, 42, 0
1, 174480, Note_on_c, 9, 69, 115
1, 174480, Note_on_c, 9, 42, 109
1, 174719, Note_on_c, 9, 69, 0
1, 174719, Note_on_c, 9, 42, 0
1, 174720, Note_on_c, 9, 56, 124
1, 174720, Note_on_c, 9, 69, 119
1, 174720, Note_on_c, 9, 42, 119
1, 174720, Note_on_c, 9, 36, 125
1, 174959, Note_on_c, 9, 56, 0
1, 174959, Note_on_c, 9, 69, 0
1, 174959, Note_on_c, 9, 42, 0
1, 174960, Note_on_c, 9, 42, 110
1, 175079, Note_on_c, 9, 42, 0
1, 175080, Note_on_c, 9, 42, 106
1, 175199, Note_on_c, 9, 36, 0
1, 175199, Note_on_c, 9, 42, 0
1, 175200, Note_on_c, 9, 38, 125
1, 175200, Note_on_c, 9, 56, 121
1, 175200, Note_on_c, 9, 68, 69
1, 175200, Note_on_c, 9, 42, 113
1, 175439, Note_on_c, 9, 38, 0
1, 175439, Note_on_c, 9, 56, 0
1, 175439, Note_on_c, 9, 68, 0
1, 175439, Note_on_c, 9, 42, 0
1, 175440, Note_on_c, 9, 42, 104
1, 175440, Note_on_c, 9, 36, 125
1, 175679, Note_on_c, 9, 42, 0
1, 175679, Note_on_c, 9, 36, 0
1, 175680, Note_on_c, 9, 56, 121
1, 175680, Note_on_c, 9, 42, 123
1, 175680, Note_on_c, 9, 36, 125
1, 175919, Note_on_c, 9, 56, 0
1, 175919, Note_on_c, 9, 42, 0
1, 175920, Note_on_c, 9, 70, 117
1, 175920, Note_on_c, 9, 42, 103
1, 176159, Note_on_c, 9, 36, 0
1, 176159, Note_on_c, 9, 70, 0
1, 176159, Note_on_c, 9, 42, 0
1, 176160, Note_on_c, 9, 38, 125
1, 176160, Note_on_c, 9, 56, 121
1, 176160, Note_on_c, 9, 68, 69
1, 176160, Note_on_c, 9, 42, 121
1, 176399, Note_on_c, 9, 38, 0
1, 176399, Note_on_c, 9, 56, 0
1, 176399, Note_on_c, 9, 68, 0
1, 176399, Note_on_c, 9, 42, 0
1, 176400, Note_on_c, 9, 69, 115
1, 176400, Note_on_c, 9, 42, 107
1, 176639, Note_on_c, 9, 69, 0
1, 176639, Note_on_c, 9, 42, 0
1, 176640, Note_on_c, 9, 56, 124
1, 176640, Note_on_c, 9, 69, 122
1, 176640, Note_on_c, 9, 42, 117
1, 176640, Note_on_c, 9, 36, 125
1, 176879, Note_on_c, 9, 56, 0
1, 176879, Note_on_c, 9, 69, 0
1, 176879, Note_on_c, 9, 42, 0
1, 176880, Note_on_c, 9, 42, 104
1, 176999, Note_on_c, 9, 42, 0
1, 177000, Note_on_c, 9, 42, 100
1, 177119, Note_on_c, 9, 36, 0
1, 177119, Note_on_c, 9, 42, 0
1, 177120, Note_on_c, 9, 38, 125
1, 177120, Note_on_c, 9, 56, 121
1, 177120, Note_on_c, 9, 68, 69
1, 177120, Note_on_c, 9, 42, 105
1, 177359, Note_on_c, 9, 38, 0
1, 177359, Note_on_c, 9, 56, 0
1, 177359, Note_on_c, 9, 68, 0
1, 177359, Note_on_c, 9, 42, 0
1, 177360, Note_on_c, 9, 42, 108
1, 177360, Note_on_c, 9, 36, 125
1, 177599, Note_on_c, 9, 42, 0
1, 177599, Note_on_c, 9, 36, 0
1, 177600, Note_on_c, 9, 56, 121
1, 177600, Note_on_c, 9, 42, 119
1, 177600, Note_on_c, 9, 36, 125
1, 177839, Note_on_c, 9, 56, 0
1, 177839, Note_on_c, 9, 42, 0
1, 177840, Note_on_c, 9, 70, 118
1, 177840, Note_on_c, 9, 42, 100
1, 178079, Note_on_c, 9, 36, 0
1, 178079, Note_on_c, 9, 70, 0
1, 178079, Note_on_c, 9, 42, 0
1, 178080, Note_on_c, 9, 38, 125
1, 178080, Note_on_c, 9, 56, 121
1, 178080, Note_on_c, 9, 68, 69
1, 178080, Note_on_c, 9, 42, 123
1, 178319, Note_on_c, 9, 38, 0
1, 178319, Note_on_c, 9, 56, 0
1, 178319, Note_on_c, 9, 68, 0
1, 178319, Note_on_c, 9, 42, 0
1, 178320, Note_on_c, 9, 69, 115
1, 178320, Note_on_c, 9, 42, 107
1, 178559, Note_on_c, 9, 69, 0
1, 178559, Note_on_c, 9, 42, 0
1, 178560, Note_on_c, 9, 56, 124
1, 178560, Note_on_c, 9, 69, 122
1, 178560, Note_on_c, 9, 42, 116
1, 178560, Note_on_c, 9, 36, 125
1, 178799, Note_on_c, 9, 56, 0
1, 178799, Note_on_c, 9, 69, 0
1, 178799, Note_on_c, 9, 42, 0
1, 178800, Note_on_c, 9, 42, 110
1, 178919, Note_on_c, 9, 42, 0
1, 178920, Note_on_c, 9, 42, 102
1, 179039, Note_on_c, 9, 36, 0
1, 179039, Note_on_c, 9, 42, 0
1, 179040, Note_on_c, 9, 38, 125
1, 179040, Note_on_c, 9, 56, 121
1, 179040, Note_on_c, 9, 68, 69
1, 179040, Note_on_c, 9, 42, 110
1, 179279, Note_on_c, 9, 38, 0
1, 179279, Note_on_c, 9, 56, 0
1, 179279, Note_on_c, 9, 68, 0
1, 179279, Note_on_c, 9, 42, 0
1, 179280, Note_on_c, 9, 42, 103
1, 179280, Note_on_c, 9, 36, 125
1, 179519, Note_on_c, 9, 42, 0
1, 179519, Note_on_c, 9, 36, 0
1, 179520, Note_on_c, 9, 56, 121
1, 179520, Note_on_c, 9, 42, 114
1, 179520, Note_on_c, 9, 36, 125
1, 179759, Note_on_c, 9, 56, 0
1, 179759, Note_on_c, 9, 42, 0
1, 179760, Note_on_c, 9, 70, 118
1, 179760, Note_on_c, 9, 42, 113
1, 179999, Note_on_c, 9, 36, 0
1, 179999, Note_on_c, 9, 70, 0
1, 179999, Note_on_c, 9, 42, 0
1, 180000, Note_on_c, 9, 38, 125
1, 180000, Note_on_c, 9, 56, 121
1, 180000, Note_on_c, 9, 68, 69
1, 180000, Note_on_c, 9, 42, 114
1, 180239, Note_on_c, 9, 38, 0
1, 180239, Note_on_c, 9, 56, 0
1, 180239, Note_on_c, 9, 68, 0
1, 180239, Note_on_c, 9, 42, 0
1, 180240, Note_on_c, 9, 69, 117
1, 180240, Note_on_c, 9, 44, 119
1, 180479, Note_on_c, 9, 69, 0
1, 180479, Note_on_c, 9, 44, 0
1, 180480, Note_on_c, 9, 56, 124
1, 180480, Note_on_c, 9, 69, 122
1, 180480, Note_on_c, 9, 42, 116
1, 180480, Note_on_c, 9, 36, 125
1, 180719, Note_on_c, 9, 56, 0
1, 180719, Note_on_c, 9, 69, 0
1, 180719, Note_on_c, 9, 42, 0
1, 180720, Note_on_c, 9, 42, 111
1, 180839, Note_on_c, 9, 42, 0
1, 180840, Note_on_c, 9, 42, 115
1, 180959, Note_on_c, 9, 36, 0
1, 180959, Note_on_c, 9, 42, 0
1, 180960, Note_on_c, 9, 38, 125
1, 180960, Note_on_c, 9, 56, 121
1, 180960, Note_on_c, 9, 68, 69
1, 180960, Note_on_c, 9, 42, 113
1, 181199, Note_on_c, 9, 38, 0
1, 181199, Note_on_c, 9, 56, 0
1, 181199, Note_on_c, 9, 68, 0
1, 181199, Note_on_c, 9, 42, 0
1, 181200, Note_on_c, 9, 42, 110
1, 181200, Note_on_c, 9, 36, 125
1, 181439, Note_on_c, 9, 42, 0
1, 181439, Note_on_c, 9, 36, 0
1, 181440, Note_on_c, 9, 56, 121
1, 181440, Note_on_c, 9, 42, 119
1, 181440, Note_on_c, 9, 36, 125
1, 181679, Note_on_c, 9, 56, 0
1, 181679, Note_on_c, 9, 42, 0
1, 181680, Note_on_c, 9, 70, 117
1, 181680, Note_on_c, 9, 42, 107
1, 181919, Note_on_c, 9, 36, 0
1, 181919, Note_on_c, 9, 70, 0
1, 181919, Note_on_c, 9, 42, 0
1, 181920, Note_on_c, 9, 38, 125
1, 181920, Note_on_c, 9, 56, 121
1, 181920, Note_on_c, 9, 68, 69
1, 181920, Note_on_c, 9, 42, 121
1, 182159, Note_on_c, 9, 38, 0
1, 182159, Note_on_c, 9, 56, 0
1, 182159, Note_on_c, 9, 68, 0
1, 182159, Note_on_c, 9, 42, 0
1, 182160, Note_on_c, 9, 69, 117
1, 182160, Note_on_c, 9, 42, 107
1, 182399, Note_on_c, 9, 69, 0
1, 182399, Note_on_c, 9, 42, 0
1, 182400, Note_on_c, 9, 56, 124
1, 182400, Note_on_c, 9, 69, 122
1, 182400, Note_on_c, 9, 42, 121
1, 182400, Note_on_c, 9, 36, 125
1, 182639, Note_on_c, 9, 56, 0
1, 182639, Note_on_c, 9, 69, 0
1, 182639, Note_on_c, 9, 42, 0
1, 182640, Note_on_c, 9, 42, 107
1, 182759, Note_on_c, 9, 42, 0
1, 182760, Note_on_c, 9, 42, 111
1, 182879, Note_on_c, 9, 36, 0
1, 182879, Note_on_c, 9, 42, 0
1, 182880, Note_on_c, 9, 38, 125
1, 182880, Note_on_c, 9, 56, 121
1, 182880, Note_on_c, 9, 68, 69
1, 182880, Note_on_c, 9, 42, 117
1, 183119, Note_on_c, 9, 38, 0
1, 183119, Note_on_c, 9, 56, 0
1, 183119, Note_on_c, 9, 68, 0
1, 183119, Note_on_c, 9, 42, 0
1, 183120, Note_on_c, 9, 42, 106
1, 183120, Note_on_c, 9, 36, 125
1, 183359, Note_on_c, 9, 42, 0
1, 183359, Note_on_c, 9, 36, 0
1, 183360, Note_on_c, 9, 56, 121
1, 183360, Note_on_c, 9, 42, 119
1, 183360, Note_on_c, 9, 36, 125
1, 183599, Note_on_c, 9, 56, 0
1, 183599, Note_on_c, 9, 42, 0
1, 183600, Note_on_c, 9, 70, 121
1, 183600, Note_on_c, 9, 42, 108
1, 183839, Note_on_c, 9, 36, 0
1, 183839, Note_on_c, 9, 70, 0
1, 183839, Note_on_c, 9, 42, 0
1, 183840, Note_on_c, 9, 38, 125
1, 183840, Note_on_c, 9, 56, 121
1, 183840, Note_on_c, 9, 68, 69
1, 183840, Note_on_c, 9, 42, 125
1, 184079, Note_on_c, 9, 38, 0
1, 184079, Note_on_c, 9, 56, 0
1, 184079, Note_on_c, 9, 68, 0
1, 184079, Note_on_c, 9, 42, 0
1, 184080, Note_on_c, 9, 69, 115
1, 184080, Note_on_c, 9, 42, 109
1, 184319, Note_on_c, 9, 69, 0
1, 184319, Note_on_c, 9, 42, 0
1, 184320, Note_on_c, 9, 56, 124
1, 184320, Note_on_c, 9, 69, 125
1, 184320, Note_on_c, 9, 42, 121
1, 184320, Note_on_c, 9, 36, 125
1, 184559, Note_on_c, 9, 56, 0
1, 184559, Note_on_c, 9, 69, 0
1, 184559, Note_on_c, 9, 42, 0
1, 184560, Note_on_c, 9, 42, 110
1, 184679, Note_on_c, 9, 42, 0
1, 184680, Note_on_c, 9, 42, 104
1, 184799, Note_on_c, 9, 36, 0
1, 184799, Note_on_c, 9, 42, 0
1, 184800, Note_on_c, 9, 38, 125
1, 184800, Note_on_c, 9, 56, 121
1, 184800, Note_on_c, 9, 68, 69
1, 184800, Note_on_c, 9, 42, 115
1, 185039, Note_on_c, 9, 38, 0
1, 185039, Note_on_c, 9, 56, 0
1, 185039, Note_on_c, 9, 68, 0
1, 185039, Note_on_c, 9, 42, 0
1, 185040, Note_on_c, 9, 42, 108
1, 185040, Note_on_c, 9, 36, 125
1, 185279, Note_on_c, 9, 42, 0
1, 185279, Note_on_c, 9, 36, 0
1, 185280, Note_on_c, 9, 56, 121
1, 185280, Note_on_c, 9, 42, 125
1, 185280, Note_on_c, 9, 36, 125
1, 185519, Note_on_c, 9, 56, 0
1, 185519, Note_on_c, 9, 42, 0
1, 185520, Note_on_c, 9, 70, 125
1, 185520, Note_on_c, 9, 42, 105
1, 185759, Note_on_c, 9, 36, 0
1, 185759, Note_on_c, 9, 70, 0
1, 185759, Note_on_c, 9, 42, 0
1, 185760, Note_on_c, 9, 38, 125
1, 185760, Note_on_c, 9, 56, 121
1, 185760, Note_on_c, 9, 68, 69
1, 185760, Note_on_c, 9, 42, 123
1, 185999, Note_on_c, 9, 38, 0
1, 185999, Note_on_c, 9, 56, 0
1, 185999, Note_on_c, 9, 68, 0
1, 185999, Note_on_c, 9, 42, 0
1, 186000, Note_on_c, 9, 69, 108
1, 186000, Note_on_c, 9, 42, 115
1, 186239, Note_on_c, 9, 69, 0
1, 186239, Note_on_c, 9, 42, 0
1, 186240, Note_on_c, 9, 56, 124
1, 186240, Note_on_c, 9, 69, 114
1, 186240, Note_on_c, 9, 42, 121
1, 186240, Note_on_c, 9, 36, 125
1, 186479, Note_on_c, 9, 56, 0
1, 186479, Note_on_c, 9, 69, 0
1, 186479, Note_on_c, 9, 42, 0
1, 186480, Note_on_c, 9, 42, 109
1, 186599, Note_on_c, 9, 42, 0
1, 186600, Note_on_c, 9, 42, 105
1, 186719, Note_on_c, 9, 36, 0
1, 186719, Note_on_c, 9, 42, 0
1, 186720, Note_on_c, 9, 38, 125
1, 186720, Note_on_c, 9, 56, 121
1, 186720, Note_on_c, 9, 68, 69
1, 186720, Note_on_c, 9, 42, 114
1, 186959, Note_on_c, 9, 38, 0
1, 186959, Note_on_c, 9, 56, 0
1, 186959, Note_on_c, 9, 68, 0
1, 186959, Note_on_c, 9, 42, 0
1, 186960, Note_on_c, 9, 42, 114
1, 186960, Note_on_c, 9, 36, 125
1, 187199, Note_on_c, 9, 42, 0
1, 187199, Note_on_c, 9, 36, 0
1, 187200, Note_on_c, 9, 56, 121
1, 187200, Note_on_c, 9, 42, 115
1, 187200, Note_on_c, 9, 36, 125
1, 187439, Note_on_c, 9, 56, 0
1, 187439, Note_on_c, 9, 42, 0
1, 187439, Note_on_c, 9, 36, 0
1, 187440, Note_on_c, 9, 70, 110
1, 187440, Note_on_c, 9, 44, 117
1, 187559, Note_on_c, 9, 70, 0
1, 187560, Note_on_c, 9, 38, 118
1, 187679, Note_on_c, 9, 44, 0
1, 187679, Note_on_c, 9, 38, 0
1, 187680, Note_on_c, 9, 38, 125
1, 187680, Note_on_c, 9, 56, 121
1, 187680, Note_on_c, 9, 68, 69
1, 187680, Note_on_c, 9, 42, 117
1, 187799, Note_on_c, 9, 38, 0
1, 187799, Note_on_c, 9, 56, 0
1, 187799, Note_on_c, 9, 68, 0
1, 187799, Note_on_c, 9, 42, 0
1, 187800, Note_on_c, 9, 38, 125
1, 187919, Note_on_c, 9, 38, 0
1, 187920, Note_on_c, 9, 45, 125
1, 187920, Note_on_c, 9, 69, 119
1, 187920, Note_on_c, 9, 44, 110
1, 188159, Note_on_c, 9, 45, 0
1, 188159, Note_on_c, 9, 69, 0
1, 188159, Note_on_c, 9, 44, 0
1, 188160, Note_on_c, 9, 56, 124
1, 188160, Note_on_c, 9, 69, 119
1, 188160, Note_on_c, 9, 42, 119
1, 188160, Note_on_c, 9, 49, 123
1, 188160, Note_on_c, 9, 36, 125
1, 188399, Note_on_c, 9, 56, 0
1, 188399, Note_on_c, 9, 69, 0
1, 188399, Note_on_c, 9, 42, 0
1, 188399, Note_on_c, 9, 49, 0
1, 188400, Note_on_c, 9, 42, 114
1, 188519, Note_on_c, 9, 42, 0
1, 188520, Note_on_c, 9, 42, 114
1, 188639, Note_on_c, 9, 36, 0
1, 188639, Note_on_c, 9, 42, 0
1, 188640, Note_on_c, 9, 38, 125
1, 188640, Note_on_c, 9, 56, 121
1, 188640, Note_on_c, 9, 68, 69
1, 188640, Note_on_c, 9, 42, 121
1, 188879, Note_on_c, 9, 38, 0
1, 188879, Note_on_c, 9, 56, 0
1, 188879, Note_on_c, 9, 68, 0
1, 188879, Note_on_c, 9, 42, 0
1, 188880, Note_on_c, 9, 42, 110
1, 188880, Note_on_c, 9, 36, 125
1, 189119, Note_on_c, 9, 42, 0
1, 189119, Note_on_c, 9, 36, 0
1, 189120, Note_on_c, 9, 56, 121
1, 189120, Note_on_c, 9, 42, 119
1, 189120, Note_on_c, 9, 36, 125
1, 189359, Note_on_c, 9, 56, 0
1, 189359, Note_on_c, 9, 42, 0
1, 189360, Note_on_c, 9, 70, 112
1, 189360, Note_on_c, 9, 42, 107
1, 189599, Note_on_c, 9, 36, 0
1, 189599, Note_on_c, 9, 70, 0
1, 189599, Note_on_c, 9, 42, 0
1, 189600, Note_on_c, 9, 38, 125
1, 189600, Note_on_c, 9, 56, 121
1, 189600, Note_on_c, 9, 68, 69
1, 189600, Note_on_c, 9, 42, 123
1, 189839, Note_on_c, 9, 38, 0
1, 189839, Note_on_c, 9, 56, 0
1, 189839, Note_on_c, 9, 68, 0
1, 189839, Note_on_c, 9, 42, 0
1, 189840, Note_on_c, 9, 69, 111
1, 189840, Note_on_c, 9, 42, 108
1, 190079, Note_on_c, 9, 69, 0
1, 190079, Note_on_c, 9, 42, 0
1, 190080, Note_on_c, 9, 56, 124
1, 190080, Note_on_c, 9, 69, 122
1, 190080, Note_on_c, 9, 42, 121
1, 190080, Note_on_c, 9, 36, 125
1, 190319, Note_on_c, 9, 56, 0
1, 190319, Note_on_c, 9, 69, 0
1, 190319, Note_on_c, 9, 42, 0
1, 190320, Note_on_c, 9, 42, 111
1, 190439, Note_on_c, 9, 42, 0
1, 190440, Note_on_c, 9, 42, 104
1, 190559, Note_on_c, 9, 36, 0
1, 190559, Note_on_c, 9, 42, 0
1, 190560, Note_on_c, 9, 38, 125
1, 190560, Note_on_c, 9, 56, 121
1, 190560, Note_on_c, 9, 68, 69
1, 190560, Note_on_c, 9, 42, 114
1, 190799, Note_on_c, 9, 38, 0
1, 190799, Note_on_c, 9, 56, 0
1, 190799, Note_on_c, 9, 68, 0
1, 190799, Note_on_c, 9, 42, 0
1, 190800, Note_on_c, 9, 42, 108
1, 190800, Note_on_c, 9, 36, 125
1, 191039, Note_on_c, 9, 42, 0
1, 191039, Note_on_c, 9, 36, 0
1, 191040, Note_on_c, 9, 56, 121
1, 191040, Note_on_c, 9, 42, 117
1, 191040, Note_on_c, 9, 36, 125
1, 191279, Note_on_c, 9, 56, 0
1, 191279, Note_on_c, 9, 42, 0
1, 191280, Note_on_c, 9, 70, 112
1, 191280, Note_on_c, 9, 42, 108
1, 191519, Note_on_c, 9, 36, 0
1, 191519, Note_on_c, 9, 70, 0
1, 191519, Note_on_c, 9, 42, 0
1, 191520, Note_on_c, 9, 38, 125
1, 191520, Note_on_c, 9, 56, 121
1, 191520, Note_on_c, 9, 68, 69
1, 191520, Note_on_c, 9, 42, 115
1, 191759, Note_on_c, 9, 38, 0
1, 191759, Note_on_c, 9, 56, 0
1, 191759, Note_on_c, 9, 68, 0
1, 191759, Note_on_c, 9, 42, 0
1, 191760, Note_on_c, 9, 69, 110
1, 191760, Note_on_c, 9, 42, 106
1, 191999, Note_on_c, 9, 69, 0
1, 191999, Note_on_c, 9, 42, 0
1, 192000, Note_on_c, 9, 56, 124
1, 192000, Note_on_c, 9, 69, 122
1, 192000, Note_on_c, 9, 42, 119
1, 192000, Note_on_c, 9, 36, 125
1, 192239, Note_on_c, 9, 56, 0
1, 192239, Note_on_c, 9, 69, 0
1, 192239, Note_on_c, 9, 42, 0
1, 192240, Note_on_c, 9, 42, 110
1, 192359, Note_on_c, 9, 42, 0
1, 192360, Note_on_c, 9, 42, 109
1, 192479, Note_on_c, 9, 36, 0
1, 192479, Note_on_c, 9, 42, 0
1, 192480, Note_on_c, 9, 38, 125
1, 192480, Note_on_c, 9, 56, 121
1, 192480, Note_on_c, 9, 68, 69
1, 192480, Note_on_c, 9, 42, 111
1, 192719, Note_on_c, 9, 38, 0
1, 192719, Note_on_c, 9, 56, 0
1, 192719, Note_on_c, 9, 68, 0
1, 192719, Note_on_c, 9, 42, 0
1, 192720, Note_on_c, 9, 42, 110
1, 192720, Note_on_c, 9, 36, 125
1, 192959, Note_on_c, 9, 42, 0
1, 192959, Note_on_c, 9, 36, 0
1, 192960, Note_on_c, 9, 56, 121
1, 192960, Note_on_c, 9, 42, 115
1, 192960, Note_on_c, 9, 36, 125
1, 193199, Note_on_c, 9, 56, 0
1, 193199, Note_on_c, 9, 42, 0
1, 193200, Note_on_c, 9, 70, 112
1, 193200, Note_on_c, 9, 42, 108
1, 193439, Note_on_c, 9, 36, 0
1, 193439, Note_on_c, 9, 70, 0
1, 193439, Note_on_c, 9, 42, 0
1, 193440, Note_on_c, 9, 38, 125
1, 193440, Note_on_c, 9, 56, 121
1, 193440, Note_on_c, 9, 68, 69
1, 193440, Note_on_c, 9, 42, 119
1, 193679, Note_on_c, 9, 38, 0
1, 193679, Note_on_c, 9, 56, 0
1, 193679, Note_on_c, 9, 68, 0
1, 193679, Note_on_c, 9, 42, 0
1, 193680, Note_on_c, 9, 69, 108
1, 193680, Note_on_c, 9, 42, 109
1, 193919, Note_on_c, 9, 69, 0
1, 193919, Note_on_c, 9, 42, 0
1, 193920, Note_on_c, 9, 56, 124
1, 193920, Note_on_c, 9, 69, 120
1, 193920, Note_on_c, 9, 42, 119
1, 193920, Note_on_c, 9, 36, 125
1, 194159, Note_on_c, 9, 56, 0
1, 194159, Note_on_c, 9, 69, 0
1, 194159, Note_on_c, 9, 42, 0
1, 194160, Note_on_c, 9, 42, 108
1, 194279, Note_on_c, 9, 42, 0
1, 194280, Note_on_c, 9, 42, 113
1, 194399, Note_on_c, 9, 36, 0
1, 194399, Note_on_c, 9, 42, 0
1, 194400, Note_on_c, 9, 38, 125
1, 194400, Note_on_c, 9, 56, 121
1, 194400, Note_on_c, 9, 68, 69
1, 194400, Note_on_c, 9, 42, 115
1, 194639, Note_on_c, 9, 38, 0
1, 194639, Note_on_c, 9, 56, 0
1, 194639, Note_on_c, 9, 68, 0
1, 194639, Note_on_c, 9, 42, 0
1, 194640, Note_on_c, 9, 42, 106
1, 194640, Note_on_c, 9, 36, 125
1, 194879, Note_on_c, 9, 42, 0
1, 194879, Note_on_c, 9, 36, 0
1, 194880, Note_on_c, 9, 56, 121
1, 194880, Note_on_c, 9, 42, 121
1, 194880, Note_on_c, 9, 36, 125
1, 195119, Note_on_c, 9, 56, 0
1, 195119, Note_on_c, 9, 42, 0
1, 195120, Note_on_c, 9, 70, 113
1, 195120, Note_on_c, 9, 42, 102
1, 195359, Note_on_c, 9, 36, 0
1, 195359, Note_on_c, 9, 70, 0
1, 195359, Note_on_c, 9, 42, 0
1, 195360, Note_on_c, 9, 38, 125
1, 195360, Note_on_c, 9, 56, 121
1, 195360, Note_on_c, 9, 68, 69
1, 195360, Note_on_c, 9, 42, 119
1, 195599, Note_on_c, 9, 38, 0
1, 195599, Note_on_c, 9, 56, 0
1, 195599, Note_on_c, 9, 68, 0
1, 195599, Note_on_c, 9, 42, 0
1, 195600, Note_on_c, 9, 69, 113
1, 195600, Note_on_c, 9, 42, 110
1, 195839, Note_on_c, 9, 69, 0
1, 195839, Note_on_c, 9, 42, 0
1, 195840, Note_on_c, 9, 56, 124
1, 195840, Note_on_c, 9, 69, 120
1, 195840, Note_on_c, 9, 42, 121
1, 195840, Note_on_c, 9, 36, 125
1, 196079, Note_on_c, 9, 56, 0
1, 196079, Note_on_c, 9, 69, 0
1, 196079, Note_on_c, 9, 42, 0
1, 196080, Note_on_c, 9, 42, 111
1, 196199, Note_on_c, 9, 42, 0
1, 196200, Note_on_c, 9, 42, 107
1, 196319, Note_on_c, 9, 36, 0
1, 196319, Note_on_c, 9, 42, 0
1, 196320, Note_on_c, 9, 38, 125
1, 196320, Note_on_c, 9, 56, 121
1, 196320, Note_on_c, 9, 68, 69
1, 196320, Note_on_c, 9, 42, 115
1, 196559, Note_on_c, 9, 38, 0
1, 196559, Note_on_c, 9, 56, 0
1, 196559, Note_on_c, 9, 68, 0
1, 196559, Note_on_c, 9, 42, 0
1, 196560, Note_on_c, 9, 42, 110
1, 196560, Note_on_c, 9, 36, 125
1, 196799, Note_on_c, 9, 42, 0
1, 196799, Note_on_c, 9, 36, 0
1, 196800, Note_on_c, 9, 56, 121
1, 196800, Note_on_c, 9, 42, 121
1, 196800, Note_on_c, 9, 36, 125
1, 197039, Note_on_c, 9, 56, 0
1, 197039, Note_on_c, 9, 42, 0
1, 197040, Note_on_c, 9, 70, 112
1, 197040, Note_on_c, 9, 42, 105
1, 197279, Note_on_c, 9, 36, 0
1, 197279, Note_on_c, 9, 70, 0
1, 197279, Note_on_c, 9, 42, 0
1, 197280, Note_on_c, 9, 38, 125
1, 197280, Note_on_c, 9, 56, 121
1, 197280, Note_on_c, 9, 68, 69
1, 197280, Note_on_c, 9, 42, 123
1, 197519, Note_on_c, 9, 38, 0
1, 197519, Note_on_c, 9, 56, 0
1, 197519, Note_on_c, 9, 68, 0
1, 197519, Note_on_c, 9, 42, 0
1, 197520, Note_on_c, 9, 69, 110
1, 197520, Note_on_c, 9, 42, 109
1, 197759, Note_on_c, 9, 69, 0
1, 197759, Note_on_c, 9, 42, 0
1, 197760, Note_on_c, 9, 56, 124
1, 197760, Note_on_c, 9, 69, 120
1, 197760, Note_on_c, 9, 42, 119
1, 197760, Note_on_c, 9, 36, 125
1, 197999, Note_on_c, 9, 56, 0
1, 197999, Note_on_c, 9, 69, 0
1, 197999, Note_on_c, 9, 42, 0
1, 198000, Note_on_c, 9, 42, 109
1, 198119, Note_on_c, 9, 42, 0
1, 198120, Note_on_c, 9, 42, 104
1, 198239, Note_on_c, 9, 36, 0
1, 198239, Note_on_c, 9, 42, 0
1, 198240, Note_on_c, 9, 38, 125
1, 198240, Note_on_c, 9, 56, 121
1, 198240, Note_on_c, 9, 68, 69
1, 198240, Note_on_c, 9, 42, 114
1, 198479, Note_on_c, 9, 38, 0
1, 198479, Note_on_c, 9, 56, 0
1, 198479, Note_on_c, 9, 68, 0
1, 198479, Note_on_c, 9, 42, 0
1, 198480, Note_on_c, 9, 42, 105
1, 198480, Note_on_c, 9, 36, 125
1, 198719, Note_on_c, 9, 42, 0
1, 198719, Note_on_c, 9, 36, 0
1, 198720, Note_on_c, 9, 56, 121
1, 198720, Note_on_c, 9, 42, 121
1, 198720, Note_on_c, 9, 36, 125
1, 198959, Note_on_c, 9, 56, 0
1, 198959, Note_on_c, 9, 42, 0
1, 198960, Note_on_c, 9, 70, 117
1, 198960, Note_on_c, 9, 42, 102
1, 199199, Note_on_c, 9, 36, 0
1, 199199, Note_on_c, 9, 70, 0
1, 199199, Note_on_c, 9, 42, 0
1, 199200, Note_on_c, 9, 38, 125
1, 199200, Note_on_c, 9, 56, 121
1, 199200, Note_on_c, 9, 68, 69
1, 199200, Note_on_c, 9, 42, 119
1, 199439, Note_on_c, 9, 38, 0
1, 199439, Note_on_c, 9, 56, 0
1, 199439, Note_on_c, 9, 68, 0
1, 199439, Note_on_c, 9, 42, 0
1, 199440, Note_on_c, 9, 69, 108
1, 199440, Note_on_c, 9, 42, 113
1, 199679, Note_on_c, 9, 69, 0
1, 199679, Note_on_c, 9, 42, 0
1, 199680, Note_on_c, 9, 56, 124
1, 199680, Note_on_c, 9, 69, 120
1, 199680, Note_on_c, 9, 42, 121
1, 199680, Note_on_c, 9, 36, 125
1, 199919, Note_on_c, 9, 56, 0
1, 199919, Note_on_c, 9, 69, 0
1, 199919, Note_on_c, 9, 42, 0
1, 199920, Note_on_c, 9, 42, 108
1, 200039, Note_on_c, 9, 42, 0
1, 200040, Note_on_c, 9, 42, 106
1, 200159, Note_on_c, 9, 36, 0
1, 200159, Note_on_c, 9, 42, 0
1, 200160, Note_on_c, 9, 38, 125
1, 200160, Note_on_c, 9, 56, 121
1, 200160, Note_on_c, 9, 68, 69
1, 200160, Note_on_c, 9, 42, 110
1, 200399, Note_on_c, 9, 38, 0
1, 200399, Note_on_c, 9, 56, 0
1, 200399, Note_on_c, 9, 68, 0
1, 200399, Note_on_c, 9, 42, 0
1, 200400, Note_on_c, 9, 42, 111
1, 200400, Note_on_c, 9, 36, 125
1, 200639, Note_on_c, 9, 42, 0
1, 200639, Note_on_c, 9, 36, 0
1, 200640, Note_on_c, 9, 56, 121
1, 200640, Note_on_c, 9, 42, 123
1, 200640, Note_on_c, 9, 36, 125
1, 200879, Note_on_c, 9, 56, 0
1, 200879, Note_on_c, 9, 42, 0
1, 200880, Note_on_c, 9, 70, 118
1, 200880, Note_on_c, 9, 42, 109
1, 201119, Note_on_c, 9, 36, 0
1, 201119, Note_on_c, 9, 70, 0
1, 201119, Note_on_c, 9, 42, 0
1, 201120, Note_on_c, 9, 38, 125
1, 201120, Note_on_c, 9, 56, 121
1, 201120, Note_on_c, 9, 68, 69
1, 201120, Note_on_c, 9, 42, 116
1, 201359, Note_on_c, 9, 38, 0
1, 201359, Note_on_c, 9, 56, 0
1, 201359, Note_on_c, 9, 68, 0
1, 201359, Note_on_c, 9, 42, 0
1, 201360, Note_on_c, 9, 69, 112
1, 201360, Note_on_c, 9, 42, 110
1, 201599, Note_on_c, 9, 69, 0
1, 201599, Note_on_c, 9, 42, 0
1, 201600, Note_on_c, 9, 56, 124
1, 201600, Note_on_c, 9, 69, 114
1, 201600, Note_on_c, 9, 42, 121
1, 201600, Note_on_c, 9, 36, 125
1, 201839, Note_on_c, 9, 56, 0
1, 201839, Note_on_c, 9, 69, 0
1, 201839, Note_on_c, 9, 42, 0
1, 201840, Note_on_c, 9, 42, 114
1, 201959, Note_on_c, 9, 42, 0
1, 201960, Note_on_c, 9, 42, 109
1, 202079, Note_on_c, 9, 36, 0
1, 202079, Note_on_c, 9, 42, 0
1, 202080, Note_on_c, 9, 38, 125
1, 202080, Note_on_c, 9, 56, 121
1, 202080, Note_on_c, 9, 68, 69
1, 202080, Note_on_c, 9, 42, 117
1, 202319, Note_on_c, 9, 38, 0
1, 202319, Note_on_c, 9, 56, 0
1, 202319, Note_on_c, 9, 68, 0
1, 202319, Note_on_c, 9, 42, 0
1, 202320, Note_on_c, 9, 42, 116
1, 202320, Note_on_c, 9, 36, 125
1, 202439, Note_on_c, 9, 42, 0
1, 202440, Note_on_c, 9, 38, 121
1, 202559, Note_on_c, 9, 36, 0
1, 202559, Note_on_c, 9, 38, 0
1, 202560, Note_on_c, 9, 38, 121
1, 202560, Note_on_c, 9, 56, 121
1, 202560, Note_on_c, 9, 42, 123
1, 202560, Note_on_c, 9, 36, 125
1, 202799, Note_on_c, 9, 38, 0
1, 202799, Note_on_c, 9, 56, 0
1, 202799, Note_on_c, 9, 42, 0
1, 202799, Note_on_c, 9, 36, 0
1, 202800, Note_on_c, 9, 38, 125
1, 202800, Note_on_c, 9, 70, 123
1, 202800, Note_on_c, 9, 44, 114
1, 203039, Note_on_c, 9, 38, 0
1, 203039, Note_on_c, 9, 70, 0
1, 203039, Note_on_c, 9, 44, 0
1, 203040, Note_on_c, 9, 38, 125
1, 203040, Note_on_c, 9, 56, 121
1, 203040, Note_on_c, 9, 68, 69
1, 203040, Note_on_c, 9, 42, 115
1, 203159, Note_on_c, 9, 38, 0
1, 203159, Note_on_c, 9, 56, 0
1, 203159, Note_on_c, 9, 68, 0
1, 203159, Note_on_c, 9, 42, 0
1, 203160, Note_on_c, 9, 38, 125
1, 203279, Note_on_c, 9, 38, 0
1, 203280, Note_on_c, 9, 45, 125
1, 203280, Note_on_c, 9, 69, 122
1, 203280, Note_on_c, 9, 44, 111
1, 203519, Note_on_c, 9, 45, 0
1, 203519, Note_on_c, 9, 69, 0
1, 203519, Note_on_c, 9, 44, 0
1, 203520, Note_on_c, 9, 69, 119
1, 203520, Note_on_c, 9, 42, 121
1, 203520, Note_on_c, 9, 49, 123
1, 203520, Note_on_c, 9, 36, 123
1, 203999, Note_on_c, 9, 69, 0
1, 203999, Note_on_c, 9, 42, 0
1, 203999, Note_on_c, 9, 49, 0
1, 203999, Note_on_c, 9, 36, 0
1, 204000, End_track
0, 0, End_of_file
