0, 0, Header, 1, 1, 480
1, 0, Start_track
1, 0, Time_signature, 4, 2, 24, 8
1, 0, Key_signature, 0, "major"
1, 0, Tempo, 387097
1, 0, Control_c, 9, 121, 0
1, 0, Program_c, 9, 0
1, 0, Control_c, 9, 7, 90
1, 0, Control_c, 9, 10, 64
1, 0, Control_c, 9, 91, 0
1, 0, Control_c, 9, 93, 0
1, 0, MIDI_port, 0
1, 0, Note_on_c, 9, 37, 74
1, 479, Note_on_c, 9, 37, 0
1, 480, Note_on_c, 9, 37, 94
1, 959, Note_on_c, 9, 37, 0
1, 960, Note_on_c, 9, 37, 74
1, 1439, Note_on_c, 9, 37, 0
1, 1440, Note_on_c, 9, 37, 94
1, 1919, Note_on_c, 9, 37, 0
1, 1920, Note_on_c, 9, 51, 100
1, 1920, Note_on_c, 9, 49, 90
1, 1920, Note_on_c, 9, 35, 100
1, 2399, Note_on_c, 9, 51, 0
1, 2399, Note_on_c, 9, 49, 0
1, 2399, Note_on_c, 9, 35, 0
1, 2400, Note_on_c, 9, 38, 100
1, 2400, Note_on_c, 9, 51, 100
1, 2400, Note_on_c, 9, 42, 100
1, 2639, Note_on_c, 9, 38, 0
1, 2639, Note_on_c, 9, 51, 0
1, 2639, Note_on_c, 9, 42, 0
1, 2720, Note_on_c, 9, 51, 70
1, 2879, Note_on_c, 9, 51, 0
1, 2880, Note_on_c, 9, 51, 100
1, 2880, Note_on_c, 9, 35, 90
1, 3359, Note_on_c, 9, 51, 0
1, 3359, Note_on_c, 9, 35, 0
1, 3360, Note_on_c, 9, 38, 100
1, 3360, Note_on_c, 9, 51, 100
1, 3360, Note_on_c, 9, 42, 100
1, 3599, Note_on_c, 9, 38, 0
1, 3599, Note_on_c, 9, 51, 0
1, 3599, Note_on_c, 9, 42, 0
1, 3680, Note_on_c, 9, 51, 70
1, 3839, Note_on_c, 9, 51, 0
1, 3840, Note_on_c, 9, 51, 100
1, 3840, Note_on_c, 9, 35, 100
1, 4319, Note_on_c, 9, 51, 0
1, 4319, Note_on_c, 9, 35, 0
1, 4320, Note_on_c, 9, 38, 100
1, 4320, Note_on_c, 9, 51, 100
1, 4559, Note_on_c, 9, 38, 0
1, 4559, Note_on_c, 9, 51, 0
1, 4640, Note_on_c, 9, 51, 70
1, 4799, Note_on_c, 9, 51, 0
1, 4800, Note_on_c, 9, 51, 100
1, 4800, Note_on_c, 9, 35, 90
1, 5039, Note_on_c, 9, 51, 0
1, 5120, Note_on_c, 9, 51, 70
1, 5279, Note_on_c, 9, 35, 0
1, 5279, Note_on_c, 9, 51, 0
1, 5280, Note_on_c, 9, 38, 100
1, 5280, Note_on_c, 9, 51, 100
1, 5519, Note_on_c, 9, 38, 0
1, 5519, Note_on_c, 9, 51, 0
1, 5600, Note_on_c, 9, 38, 64
1, 5600, Note_on_c, 9, 51, 70
1, 5759, Note_on_c, 9, 38, 0
1, 5759, Note_on_c, 9, 51, 0
1, 5760, Note_on_c, 9, 51, 100
1, 5760, Note_on_c, 9, 35, 100
1, 5999, Note_on_c, 9, 51, 0
1, 6080, Note_on_c, 9, 51, 70
1, 6239, Note_on_c, 9, 35, 0
1, 6239, Note_on_c, 9, 51, 0
1, 6240, Note_on_c, 9, 38, 100
1, 6240, Note_on_c, 9, 51, 100
1, 6479, Note_on_c, 9, 38, 0
1, 6479, Note_on_c, 9, 51, 0
1, 6560, Note_on_c, 9, 51, 70
1, 6719, Note_on_c, 9, 51, 0
1, 6720, Note_on_c, 9, 51, 100
1, 6720, Note_on_c, 9, 35, 90
1, 7199, Note_on_c, 9, 51, 0
1, 7199, Note_on_c, 9, 35, 0
1, 7200, Note_on_c, 9, 38, 100
1, 7200, Note_on_c, 9, 51, 100
1, 7439, Note_on_c, 9, 38, 0
1, 7439, Note_on_c, 9, 51, 0
1, 7520, Note_on_c, 9, 38, 64
1, 7520, Note_on_c, 9, 51, 70
1, 7679, Note_on_c, 9, 38, 0
1, 7679, Note_on_c, 9, 51, 0
1, 7680, Note_on_c, 9, 51, 100
1, 7680, Note_on_c, 9, 35, 100
1, 7919, Note_on_c, 9, 51, 0
1, 8000, Note_on_c, 9, 51, 70
1, 8159, Note_on_c, 9, 35, 0
1, 8159, Note_on_c, 9, 51, 0
1, 8160, Note_on_c, 9, 38, 100
1, 8160, Note_on_c, 9, 51, 100
1, 8399, Note_on_c, 9, 38, 0
1, 8399, Note_on_c, 9, 51, 0
1, 8480, Note_on_c, 9, 51, 70
1, 8639, Note_on_c, 9, 51, 0
1, 8640, Note_on_c, 9, 51, 100
1, 8640, Note_on_c, 9, 35, 90
1, 9119, Note_on_c, 9, 51, 0
1, 9119, Note_on_c, 9, 35, 0
1, 9120, Note_on_c, 9, 38, 100
1, 9120, Note_on_c, 9, 51, 100
1, 9359, Note_on_c, 9, 38, 0
1, 9359, Note_on_c, 9, 51, 0
1, 9440, Note_on_c, 9, 51, 70
1, 9599, Note_on_c, 9, 51, 0
1, 9600, Note_on_c, 9, 51, 100
1, 9600, Note_on_c, 9, 35, 100
1, 10079, Note_on_c, 9, 51, 0
1, 10079, Note_on_c, 9, 35, 0
1, 10080, Note_on_c, 9, 38, 100
1, 10080, Note_on_c, 9, 51, 100
1, 10319, Note_on_c, 9, 38, 0
1, 10319, Note_on_c, 9, 51, 0
1, 10400, Note_on_c, 9, 51, 70
1, 10559, Note_on_c, 9, 51, 0
1, 10560, Note_on_c, 9, 51, 100
1, 10560, Note_on_c, 9, 35, 90
1, 11039, Note_on_c, 9, 51, 0
1, 11039, Note_on_c, 9, 35, 0
1, 11040, Note_on_c, 9, 38, 100
1, 11040, Note_on_c, 9, 51, 100
1, 11279, Note_on_c, 9, 38, 0
1, 11279, Note_on_c, 9, 51, 0
1, 11360, Note_on_c, 9, 51, 70
1, 11360, Note_on_c, 9, 35, 90
1, 11519, Note_on_c, 9, 51, 0
1, 11519, Note_on_c, 9, 35, 0
1, 11520, Note_on_c, 9, 51, 100
1, 11520, Note_on_c, 9, 35, 100
1, 11999, Note_on_c, 9, 51, 0
1, 11999, Note_on_c, 9, 35, 0
1, 12000, Note_on_c, 9, 38, 100
1, 12000, Note_on_c, 9, 51, 100
1, 12239, Note_on_c, 9, 38, 0
1, 12239, Note_on_c, 9, 51, 0
1, 12320, Note_on_c, 9, 51, 70
1, 12479, Note_on_c, 9, 51, 0
1, 12480, Note_on_c, 9, 51, 100
1, 12480, Note_on_c, 9, 35, 90
1, 12959, Note_on_c, 9, 51, 0
1, 12959, Note_on_c, 9, 35, 0
1, 12960, Note_on_c, 9, 38, 100
1, 12960, Note_on_c, 9, 51, 100
1, 13199, Note_on_c, 9, 38, 0
1, 13199, Note_on_c, 9, 51, 0
1, 13280, Note_on_c, 9, 38, 64
1, 13280, Note_on_c, 9, 51, 70
1, 13439, Note_on_c, 9, 38, 0
1, 13439, Note_on_c, 9, 51, 0
1, 13440, Note_on_c, 9, 51, 100
1, 13440, Note_on_c, 9, 35, 100
1, 13919, Note_on_c, 9, 51, 0
1, 13919, Note_on_c, 9, 35, 0
1, 13920, Note_on_c, 9, 38, 100
1, 13920, Note_on_c, 9, 51, 100
1, 14159, Note_on_c, 9, 38, 0
1, 14159, Note_on_c, 9, 51, 0
1, 14240, Note_on_c, 9, 51, 70
1, 14399, Note_on_c, 9, 51, 0
1, 14400, Note_on_c, 9, 51, 100
1, 14400, Note_on_c, 9, 35, 90
1, 14879, Note_on_c, 9, 51, 0
1, 14879, Note_on_c, 9, 35, 0
1, 14880, Note_on_c, 9, 38, 100
1, 14880, Note_on_c, 9, 51, 100
1, 15119, Note_on_c, 9, 38, 0
1, 15119, Note_on_c, 9, 51, 0
1, 15200, Note_on_c, 9, 51, 70
1, 15359, Note_on_c, 9, 51, 0
1, 15360, Note_on_c, 9, 51, 100
1, 15360, Note_on_c, 9, 35, 100
1, 15599, Note_on_c, 9, 51, 0
1, 15680, Note_on_c, 9, 51, 70
1, 15839, Note_on_c, 9, 35, 0
1, 15839, Note_on_c, 9, 51, 0
1, 15840, Note_on_c, 9, 38, 100
1, 15840, Note_on_c, 9, 51, 100
1, 16079, Note_on_c, 9, 38, 0
1, 16079, Note_on_c, 9, 51, 0
1, 16160, Note_on_c, 9, 51, 70
1, 16319, Note_on_c, 9, 51, 0
1, 16320, Note_on_c, 9, 51, 100
1, 16320, Note_on_c, 9, 35, 90
1, 16799, Note_on_c, 9, 51, 0
1, 16799, Note_on_c, 9, 35, 0
1, 16800, Note_on_c, 9, 38, 100
1, 16800, Note_on_c, 9, 51, 100
1, 17039, Note_on_c, 9, 38, 0
1, 17039, Note_on_c, 9, 51, 0
1, 17120, Note_on_c, 9, 38, 64
1, 17120, Note_on_c, 9, 51, 70
1, 17279, Note_on_c, 9, 38, 0
1, 17279, Note_on_c, 9, 51, 0
1, 17280, Note_on_c, 9, 51, 100
1, 17280, Note_on_c, 9, 35, 100
1, 17759, Note_on_c, 9, 51, 0
1, 17759, Note_on_c, 9, 35, 0
1, 17760, Note_on_c, 9, 38, 100
1, 17760, Note_on_c, 9, 51, 100
1, 17999, Note_on_c, 9, 38, 0
1, 17999, Note_on_c, 9, 51, 0
1, 18080, Note_on_c, 9, 51, 70
1, 18239, Note_on_c, 9, 51, 0
1, 18240, Note_on_c, 9, 51, 100
1, 18240, Note_on_c, 9, 35, 90
1, 18719, Note_on_c, 9, 51, 0
1, 18719, Note_on_c, 9, 35, 0
1, 18720, Note_on_c, 9, 38, 100
1, 18720, Note_on_c, 9, 51, 100
1, 18959, Note_on_c, 9, 38, 0
1, 18959, Note_on_c, 9, 51, 0
1, 19040, Note_on_c, 9, 51, 70
1, 19199, Note_on_c, 9, 51, 0
1, 19200, Note_on_c, 9, 51, 100
1, 19200, Note_on_c, 9, 35, 100
1, 19679, Note_on_c, 9, 51, 0
1, 19679, Note_on_c, 9, 35, 0
1, 19680, Note_on_c, 9, 38, 100
1, 19680, Note_on_c, 9, 51, 100
1, 19919, Note_on_c, 9, 38, 0
1, 19919, Note_on_c, 9, 51, 0
1, 20000, Note_on_c, 9, 51, 70
1, 20159, Note_on_c, 9, 51, 0
1, 20160, Note_on_c, 9, 51, 100
1, 20160, Note_on_c, 9, 35, 90
1, 20639, Note_on_c, 9, 51, 0
1, 20639, Note_on_c, 9, 35, 0
1, 20640, Note_on_c, 9, 38, 100
1, 20640, Note_on_c, 9, 51, 100
1, 20879, Note_on_c, 9, 38, 0
1, 20879, Note_on_c, 9, 51, 0
1, 20960, Note_on_c, 9, 51, 70
1, 20960, Note_on_c, 9, 35, 90
1, 21119, Note_on_c, 9, 51, 0
1, 21119, Note_on_c, 9, 35, 0
1, 21120, Note_on_c, 9, 51, 100
1, 21120, Note_on_c, 9, 35, 100
1, 21599, Note_on_c, 9, 51, 0
1, 21599, Note_on_c, 9, 35, 0
1, 21600, Note_on_c, 9, 38, 100
1, 21600, Note_on_c, 9, 51, 100
1, 21839, Note_on_c, 9, 38, 0
1, 21839, Note_on_c, 9, 51, 0
1, 21920, Note_on_c, 9, 51, 70
1, 22079, Note_on_c, 9, 51, 0
1, 22080, Note_on_c, 9, 51, 100
1, 22080, Note_on_c, 9, 35, 90
1, 22559, Note_on_c, 9, 51, 0
1, 22559, Note_on_c, 9, 35, 0
1, 22560, Note_on_c, 9, 38, 100
1, 22560, Note_on_c, 9, 51, 100
1, 22719, Note_on_c, 9, 38, 0
1, 22719, Note_on_c, 9, 51, 0
1, 22720, Note_on_c, 9, 51, 60
1, 22879, Note_on_c, 9, 51, 0
1, 22880, Note_on_c, 9, 51, 70
1, 22880, Note_on_c, 9, 35, 90
1, 23039, Note_on_c, 9, 51, 0
1, 23039, Note_on_c, 9, 35, 0
1, 23040, Note_on_c, 9, 51, 100
1, 23040, Note_on_c, 9, 35, 100
1, 23519, Note_on_c, 9, 51, 0
1, 23519, Note_on_c, 9, 35, 0
1, 23520, Note_on_c, 9, 38, 100
1, 23520, Note_on_c, 9, 51, 100
1, 23759, Note_on_c, 9, 38, 0
1, 23759, Note_on_c, 9, 51, 0
1, 23840, Note_on_c, 9, 51, 70
1, 23999, Note_on_c, 9, 51, 0
1, 24000, Note_on_c, 9, 51, 100
1, 24000, Note_on_c, 9, 35, 90
1, 24239, Note_on_c, 9, 51, 0
1, 24320, Note_on_c, 9, 51, 70
1, 24479, Note_on_c, 9, 35, 0
1, 24479, Note_on_c, 9, 51, 0
1, 24480, Note_on_c, 9, 38, 100
1, 24480, Note_on_c, 9, 51, 100
1, 24639, Note_on_c, 9, 38, 0
1, 24639, Note_on_c, 9, 51, 0
1, 24640, Note_on_c, 9, 51, 60
1, 24799, Note_on_c, 9, 51, 0
1, 24800, Note_on_c, 9, 51, 70
1, 24959, Note_on_c, 9, 51, 0
1, 24960, Note_on_c, 9, 37, 100
1, 24960, Note_on_c, 9, 53, 100
1, 25439, Note_on_c, 9, 37, 0
1, 25439, Note_on_c, 9, 53, 0
1, 25440, Note_on_c, 9, 40, 100
1, 25440, Note_on_c, 9, 53, 100
1, 25679, Note_on_c, 9, 40, 0
1, 25679, Note_on_c, 9, 53, 0
1, 25760, Note_on_c, 9, 53, 70
1, 25919, Note_on_c, 9, 53, 0
1, 25920, Note_on_c, 9, 37, 90
1, 25920, Note_on_c, 9, 53, 100
1, 26399, Note_on_c, 9, 37, 0
1, 26399, Note_on_c, 9, 53, 0
1, 26400, Note_on_c, 9, 40, 100
1, 26400, Note_on_c, 9, 53, 100
1, 26639, Note_on_c, 9, 40, 0
1, 26639, Note_on_c, 9, 53, 0
1, 26720, Note_on_c, 9, 53, 70
1, 26879, Note_on_c, 9, 53, 0
1, 26880, Note_on_c, 9, 37, 100
1, 26880, Note_on_c, 9, 53, 100
1, 27359, Note_on_c, 9, 37, 0
1, 27359, Note_on_c, 9, 53, 0
1, 27360, Note_on_c, 9, 40, 100
1, 27360, Note_on_c, 9, 53, 100
1, 27599, Note_on_c, 9, 40, 0
1, 27599, Note_on_c, 9, 53, 0
1, 27680, Note_on_c, 9, 53, 70
1, 27839, Note_on_c, 9, 53, 0
1, 27840, Note_on_c, 9, 37, 90
1, 27840, Note_on_c, 9, 53, 100
1, 28319, Note_on_c, 9, 37, 0
1, 28319, Note_on_c, 9, 53, 0
1, 28320, Note_on_c, 9, 40, 100
1, 28320, Note_on_c, 9, 53, 100
1, 28479, Note_on_c, 9, 40, 0
1, 28479, Note_on_c, 9, 53, 0
1, 28480, Note_on_c, 9, 53, 60
1, 28639, Note_on_c, 9, 53, 0
1, 28640, Note_on_c, 9, 37, 90
1, 28640, Note_on_c, 9, 53, 70
1, 28799, Note_on_c, 9, 37, 0
1, 28799, Note_on_c, 9, 53, 0
1, 28800, Note_on_c, 9, 37, 100
1, 28800, Note_on_c, 9, 53, 100
1, 29279, Note_on_c, 9, 37, 0
1, 29279, Note_on_c, 9, 53, 0
1, 29280, Note_on_c, 9, 40, 100
1, 29280, Note_on_c, 9, 53, 100
1, 29519, Note_on_c, 9, 40, 0
1, 29519, Note_on_c, 9, 53, 0
1, 29600, Note_on_c, 9, 53, 70
1, 29759, Note_on_c, 9, 53, 0
1, 29760, Note_on_c, 9, 37, 90
1, 29760, Note_on_c, 9, 53, 100
1, 29999, Note_on_c, 9, 37, 0
1, 29999, Note_on_c, 9, 53, 0
1, 30080, Note_on_c, 9, 53, 70
1, 30239, Note_on_c, 9, 53, 0
1, 30240, Note_on_c, 9, 40, 100
1, 30240, Note_on_c, 9, 53, 100
1, 30479, Note_on_c, 9, 40, 0
1, 30479, Note_on_c, 9, 53, 0
1, 30560, Note_on_c, 9, 53, 70
1, 30719, Note_on_c, 9, 53, 0
1, 30720, Note_on_c, 9, 37, 100
1, 30720, Note_on_c, 9, 53, 100
1, 31199, Note_on_c, 9, 37, 0
1, 31199, Note_on_c, 9, 53, 0
1, 31200, Note_on_c, 9, 40, 100
1, 31200, Note_on_c, 9, 53, 100
1, 31439, Note_on_c, 9, 40, 0
1, 31439, Note_on_c, 9, 53, 0
1, 31520, Note_on_c, 9, 53, 70
1, 31679, Note_on_c, 9, 53, 0
1, 31680, Note_on_c, 9, 37, 90
1, 31680, Note_on_c, 9, 53, 100
1, 31919, Note_on_c, 9, 37, 0
1, 31919, Note_on_c, 9, 53, 0
1, 32000, Note_on_c, 9, 53, 70
1, 32159, Note_on_c, 9, 53, 0
1, 32160, Note_on_c, 9, 40, 100
1, 32160, Note_on_c, 9, 53, 100
1, 32399, Note_on_c, 9, 40, 0
1, 32399, Note_on_c, 9, 53, 0
1, 32480, Note_on_c, 9, 37, 90
1, 32480, Note_on_c, 9, 53, 70
1, 32639, Note_on_c, 9, 37, 0
1, 32639, Note_on_c, 9, 53, 0
1, 32640, Note_on_c, 9, 37, 100
1, 32640, Note_on_c, 9, 53, 100
1, 33119, Note_on_c, 9, 37, 0
1, 33119, Note_on_c, 9, 53, 0
1, 33120, Note_on_c, 9, 40, 100
1, 33120, Note_on_c, 9, 53, 100
1, 33359, Note_on_c, 9, 40, 0
1, 33359, Note_on_c, 9, 53, 0
1, 33440, Note_on_c, 9, 53, 70
1, 33599, Note_on_c, 9, 53, 0
1, 33600, Note_on_c, 9, 37, 90
1, 33600, Note_on_c, 9, 53, 100
1, 34079, Note_on_c, 9, 37, 0
1, 34079, Note_on_c, 9, 53, 0
1, 34080, Note_on_c, 9, 40, 100
1, 34080, Note_on_c, 9, 53, 100
1, 34319, Note_on_c, 9, 40, 0
1, 34319, Note_on_c, 9, 53, 0
1, 34400, Note_on_c, 9, 37, 90
1, 34400, Note_on_c, 9, 53, 70
1, 34559, Note_on_c, 9, 37, 0
1, 34559, Note_on_c, 9, 53, 0
1, 34560, Note_on_c, 9, 37, 100
1, 34560, Note_on_c, 9, 53, 100
1, 35039, Note_on_c, 9, 37, 0
1, 35039, Note_on_c, 9, 53, 0
1, 35040, Note_on_c, 9, 40, 100
1, 35040, Note_on_c, 9, 53, 100
1, 35279, Note_on_c, 9, 40, 0
1, 35279, Note_on_c, 9, 53, 0
1, 35360, Note_on_c, 9, 53, 70
1, 35519, Note_on_c, 9, 53, 0
1, 35520, Note_on_c, 9, 37, 90
1, 35520, Note_on_c, 9, 53, 100
1, 35999, Note_on_c, 9, 37, 0
1, 35999, Note_on_c, 9, 53, 0
1, 36000, Note_on_c, 9, 40, 100
1, 36000, Note_on_c, 9, 53, 100
1, 36159, Note_on_c, 9, 40, 0
1, 36159, Note_on_c, 9, 53, 0
1, 36160, Note_on_c, 9, 53, 60
1, 36319, Note_on_c, 9, 53, 0
1, 36320, Note_on_c, 9, 37, 90
1, 36320, Note_on_c, 9, 53, 70
1, 36479, Note_on_c, 9, 37, 0
1, 36479, Note_on_c, 9, 53, 0
1, 36480, Note_on_c, 9, 37, 100
1, 36480, Note_on_c, 9, 53, 100
1, 36959, Note_on_c, 9, 37, 0
1, 36959, Note_on_c, 9, 53, 0
1, 36960, Note_on_c, 9, 40, 100
1, 36960, Note_on_c, 9, 53, 100
1, 37199, Note_on_c, 9, 40, 0
1, 37199, Note_on_c, 9, 53, 0
1, 37280, Note_on_c, 9, 53, 70
1, 37439, Note_on_c, 9, 53, 0
1, 37440, Note_on_c, 9, 37, 90
1, 37440, Note_on_c, 9, 53, 100
1, 37919, Note_on_c, 9, 37, 0
1, 37919, Note_on_c, 9, 53, 0
1, 37920, Note_on_c, 9, 40, 100
1, 37920, Note_on_c, 9, 53, 100
1, 38159, Note_on_c, 9, 40, 0
1, 38159, Note_on_c, 9, 53, 0
1, 38240, Note_on_c, 9, 53, 70
1, 38399, Note_on_c, 9, 53, 0
1, 38400, Note_on_c, 9, 37, 100
1, 38400, Note_on_c, 9, 53, 100
1, 38879, Note_on_c, 9, 37, 0
1, 38879, Note_on_c, 9, 53, 0
1, 38880, Note_on_c, 9, 40, 100
1, 38880, Note_on_c, 9, 53, 100
1, 39119, Note_on_c, 9, 40, 0
1, 39119, Note_on_c, 9, 53, 0
1, 39200, Note_on_c, 9, 53, 70
1, 39359, Note_on_c, 9, 53, 0
1, 39360, Note_on_c, 9, 37, 90
1, 39360, Note_on_c, 9, 53, 100
1, 39839, Note_on_c, 9, 37, 0
1, 39839, Note_on_c, 9, 53, 0
1, 39840, Note_on_c, 9, 40, 100
1, 39840, Note_on_c, 9, 53, 100
1, 40079, Note_on_c, 9, 40, 0
1, 40079, Note_on_c, 9, 53, 0
1, 40160, Note_on_c, 9, 37, 90
1, 40160, Note_on_c, 9, 53, 70
1, 40319, Note_on_c, 9, 37, 0
1, 40319, Note_on_c, 9, 53, 0
1, 40320, Note_on_c, 9, 37, 100
1, 40320, Note_on_c, 9, 53, 100
1, 40799, Note_on_c, 9, 37, 0
1, 40799, Note_on_c, 9, 53, 0
1, 40800, Note_on_c, 9, 40, 100
1, 40800, Note_on_c, 9, 53, 100
1, 41039, Note_on_c, 9, 40, 0
1, 41039, Note_on_c, 9, 53, 0
1, 41120, Note_on_c, 9, 53, 70
1, 41279, Note_on_c, 9, 53, 0
1, 41280, Note_on_c, 9, 37, 90
1, 41280, Note_on_c, 9, 53, 100
1, 41759, Note_on_c, 9, 37, 0
1, 41759, Note_on_c, 9, 53, 0
1, 41760, Note_on_c, 9, 40, 100
1, 41760, Note_on_c, 9, 53, 100
1, 41999, Note_on_c, 9, 40, 0
1, 41999, Note_on_c, 9, 53, 0
1, 42080, Note_on_c, 9, 53, 70
1, 42239, Note_on_c, 9, 53, 0
1, 42240, Note_on_c, 9, 37, 100
1, 42240, Note_on_c, 9, 53, 100
1, 42719, Note_on_c, 9, 37, 0
1, 42719, Note_on_c, 9, 53, 0
1, 42720, Note_on_c, 9, 40, 100
1, 42720, Note_on_c, 9, 53, 100
1, 42959, Note_on_c, 9, 40, 0
1, 42959, Note_on_c, 9, 53, 0
1, 43040, Note_on_c, 9, 53, 70
1, 43199, Note_on_c, 9, 53, 0
1, 43200, Note_on_c, 9, 37, 90
1, 43200, Note_on_c, 9, 53, 100
1, 43679, Note_on_c, 9, 37, 0
1, 43679, Note_on_c, 9, 53, 0
1, 43680, Note_on_c, 9, 40, 100
1, 43680, Note_on_c, 9, 53, 100
1, 43919, Note_on_c, 9, 40, 0
1, 43919, Note_on_c, 9, 53, 0
1, 44000, Note_on_c, 9, 37, 90
1, 44000, Note_on_c, 9, 53, 70
1, 44159, Note_on_c, 9, 37, 0
1, 44159, Note_on_c, 9, 53, 0
1, 44160, Note_on_c, 9, 37, 100
1, 44160, Note_on_c, 9, 53, 100
1, 44639, Note_on_c, 9, 37, 0
1, 44639, Note_on_c, 9, 53, 0
1, 44640, Note_on_c, 9, 40, 100
1, 44640, Note_on_c, 9, 53, 100
1, 44879, Note_on_c, 9, 40, 0
1, 44879, Note_on_c, 9, 53, 0
1, 44960, Note_on_c, 9, 53, 70
1, 45119, Note_on_c, 9, 53, 0
1, 45120, Note_on_c, 9, 37, 90
1, 45120, Note_on_c, 9, 53, 100
1, 45599, Note_on_c, 9, 37, 0
1, 45599, Note_on_c, 9, 53, 0
1, 45600, Note_on_c, 9, 40, 100
1, 45600, Note_on_c, 9, 53, 100
1, 45839, Note_on_c, 9, 40, 0
1, 45839, Note_on_c, 9, 53, 0
1, 45920, Note_on_c, 9, 40, 64
1, 45920, Note_on_c, 9, 53, 70
1, 46079, Note_on_c, 9, 40, 0
1, 46079, Note_on_c, 9, 53, 0
1, 46080, Note_on_c, 9, 37, 100
1, 46080, Note_on_c, 9, 40, 110
1, 46559, Note_on_c, 9, 37, 0
1, 46559, Note_on_c, 9, 40, 0
1, 46560, Note_on_c, 9, 44, 100
1, 47039, Note_on_c, 9, 44, 0
1, 47360, Note_on_c, 9, 47, 100
1, 47519, Note_on_c, 9, 47, 0
1, 47520, Note_on_c, 9, 40, 110
1, 47520, Note_on_c, 9, 44, 100
1, 47759, Note_on_c, 9, 40, 0
1, 47840, Note_on_c, 9, 40, 70
1, 47999, Note_on_c, 9, 44, 0
1, 47999, Note_on_c, 9, 40, 0
1, 48000, Note_on_c, 9, 37, 100
1, 48000, Note_on_c, 9, 51, 90
1, 48000, Note_on_c, 9, 53, 100
1, 48239, Note_on_c, 9, 37, 0
1, 48239, Note_on_c, 9, 51, 0
1, 48239, Note_on_c, 9, 53, 0
1, 48320, Note_on_c, 9, 53, 70
1, 48479, Note_on_c, 9, 53, 0
1, 48480, Note_on_c, 9, 40, 100
1, 48480, Note_on_c, 9, 53, 100
1, 48480, Note_on_c, 9, 44, 100
1, 48719, Note_on_c, 9, 40, 0
1, 48719, Note_on_c, 9, 53, 0
1, 48800, Note_on_c, 9, 53, 70
1, 48959, Note_on_c, 9, 44, 0
1, 48959, Note_on_c, 9, 53, 0
1, 48960, Note_on_c, 9, 37, 90
1, 48960, Note_on_c, 9, 53, 100
1, 49439, Note_on_c, 9, 37, 0
1, 49439, Note_on_c, 9, 53, 0
1, 49440, Note_on_c, 9, 40, 100
1, 49440, Note_on_c, 9, 53, 100
1, 49440, Note_on_c, 9, 44, 100
1, 49679, Note_on_c, 9, 40, 0
1, 49679, Note_on_c, 9, 53, 0
1, 49760, Note_on_c, 9, 53, 70
1, 49919, Note_on_c, 9, 44, 0
1, 49919, Note_on_c, 9, 53, 0
1, 49920, Note_on_c, 9, 37, 100
1, 49920, Note_on_c, 9, 53, 100
1, 50399, Note_on_c, 9, 37, 0
1, 50399, Note_on_c, 9, 53, 0
1, 50400, Note_on_c, 9, 40, 100
1, 50400, Note_on_c, 9, 53, 100
1, 50639, Note_on_c, 9, 40, 0
1, 50639, Note_on_c, 9, 53, 0
1, 50720, Note_on_c, 9, 53, 70
1, 50879, Note_on_c, 9, 53, 0
1, 50880, Note_on_c, 9, 37, 90
1, 50880, Note_on_c, 9, 53, 100
1, 51359, Note_on_c, 9, 37, 0
1, 51359, Note_on_c, 9, 53, 0
1, 51360, Note_on_c, 9, 40, 100
1, 51360, Note_on_c, 9, 53, 100
1, 51599, Note_on_c, 9, 40, 0
1, 51599, Note_on_c, 9, 53, 0
1, 51680, Note_on_c, 9, 40, 64
1, 51680, Note_on_c, 9, 53, 70
1, 51839, Note_on_c, 9, 40, 0
1, 51839, Note_on_c, 9, 53, 0
1, 51840, Note_on_c, 9, 37, 100
1, 51840, Note_on_c, 9, 53, 100
1, 52319, Note_on_c, 9, 37, 0
1, 52319, Note_on_c, 9, 53, 0
1, 52320, Note_on_c, 9, 40, 100
1, 52320, Note_on_c, 9, 53, 100
1, 52559, Note_on_c, 9, 40, 0
1, 52559, Note_on_c, 9, 53, 0
1, 52640, Note_on_c, 9, 53, 70
1, 52799, Note_on_c, 9, 53, 0
1, 52800, Note_on_c, 9, 37, 90
1, 52800, Note_on_c, 9, 53, 100
1, 53279, Note_on_c, 9, 37, 0
1, 53279, Note_on_c, 9, 53, 0
1, 53280, Note_on_c, 9, 40, 100
1, 53280, Note_on_c, 9, 53, 100
1, 53519, Note_on_c, 9, 40, 0
1, 53519, Note_on_c, 9, 53, 0
1, 53600, Note_on_c, 9, 40, 64
1, 53600, Note_on_c, 9, 53, 70
1, 53759, Note_on_c, 9, 40, 0
1, 53759, Note_on_c, 9, 53, 0
1, 53760, Note_on_c, 9, 37, 100
1, 53760, Note_on_c, 9, 53, 100
1, 54239, Note_on_c, 9, 37, 0
1, 54239, Note_on_c, 9, 53, 0
1, 54240, Note_on_c, 9, 40, 100
1, 54240, Note_on_c, 9, 53, 100
1, 54479, Note_on_c, 9, 40, 0
1, 54479, Note_on_c, 9, 53, 0
1, 54560, Note_on_c, 9, 53, 70
1, 54719, Note_on_c, 9, 53, 0
1, 54720, Note_on_c, 9, 37, 90
1, 54720, Note_on_c, 9, 53, 100
1, 54959, Note_on_c, 9, 37, 0
1, 54959, Note_on_c, 9, 53, 0
1, 55040, Note_on_c, 9, 53, 70
1, 55199, Note_on_c, 9, 53, 0
1, 55200, Note_on_c, 9, 40, 100
1, 55200, Note_on_c, 9, 53, 100
1, 55439, Note_on_c, 9, 40, 0
1, 55439, Note_on_c, 9, 53, 0
1, 55520, Note_on_c, 9, 37, 90
1, 55520, Note_on_c, 9, 53, 70
1, 55679, Note_on_c, 9, 37, 0
1, 55679, Note_on_c, 9, 53, 0
1, 55680, Note_on_c, 9, 37, 100
1, 55680, Note_on_c, 9, 53, 100
1, 56159, Note_on_c, 9, 37, 0
1, 56159, Note_on_c, 9, 53, 0
1, 56160, Note_on_c, 9, 40, 100
1, 56160, Note_on_c, 9, 53, 100
1, 56399, Note_on_c, 9, 40, 0
1, 56399, Note_on_c, 9, 53, 0
1, 56480, Note_on_c, 9, 53, 70
1, 56639, Note_on_c, 9, 53, 0
1, 56640, Note_on_c, 9, 37, 90
1, 56640, Note_on_c, 9, 53, 100
1, 56879, Note_on_c, 9, 37, 0
1, 56879, Note_on_c, 9, 53, 0
1, 56960, Note_on_c, 9, 53, 70
1, 57119, Note_on_c, 9, 53, 0
1, 57120, Note_on_c, 9, 40, 100
1, 57120, Note_on_c, 9, 53, 100
1, 57359, Note_on_c, 9, 40, 0
1, 57359, Note_on_c, 9, 53, 0
1, 57440, Note_on_c, 9, 53, 70
1, 57599, Note_on_c, 9, 53, 0
1, 57600, Note_on_c, 9, 37, 100
1, 57600, Note_on_c, 9, 53, 100
1, 58079, Note_on_c, 9, 37, 0
1, 58079, Note_on_c, 9, 53, 0
1, 58080, Note_on_c, 9, 40, 100
1, 58080, Note_on_c, 9, 53, 100
1, 58319, Note_on_c, 9, 40, 0
1, 58319, Note_on_c, 9, 53, 0
1, 58400, Note_on_c, 9, 40, 80
1, 58400, Note_on_c, 9, 53, 70
1, 58559, Note_on_c, 9, 40, 0
1, 58559, Note_on_c, 9, 53, 0
1, 58560, Note_on_c, 9, 37, 90
1, 58560, Note_on_c, 9, 53, 100
1, 59039, Note_on_c, 9, 37, 0
1, 59039, Note_on_c, 9, 53, 0
1, 59040, Note_on_c, 9, 40, 100
1, 59040, Note_on_c, 9, 53, 100
1, 59279, Note_on_c, 9, 40, 0
1, 59279, Note_on_c, 9, 53, 0
1, 59360, Note_on_c, 9, 53, 70
1, 59519, Note_on_c, 9, 53, 0
1, 59520, Note_on_c, 9, 37, 100
1, 59520, Note_on_c, 9, 53, 100
1, 59999, Note_on_c, 9, 37, 0
1, 59999, Note_on_c, 9, 53, 0
1, 60000, Note_on_c, 9, 40, 100
1, 60000, Note_on_c, 9, 53, 100
1, 60239, Note_on_c, 9, 40, 0
1, 60239, Note_on_c, 9, 53, 0
1, 60320, Note_on_c, 9, 53, 70
1, 60479, Note_on_c, 9, 53, 0
1, 60480, Note_on_c, 9, 37, 90
1, 60480, Note_on_c, 9, 53, 100
1, 60959, Note_on_c, 9, 37, 0
1, 60959, Note_on_c, 9, 53, 0
1, 60960, Note_on_c, 9, 40, 100
1, 60960, Note_on_c, 9, 53, 100
1, 61199, Note_on_c, 9, 40, 0
1, 61199, Note_on_c, 9, 53, 0
1, 61280, Note_on_c, 9, 37, 90
1, 61280, Note_on_c, 9, 53, 70
1, 61439, Note_on_c, 9, 37, 0
1, 61439, Note_on_c, 9, 53, 0
1, 61440, Note_on_c, 9, 37, 100
1, 61440, Note_on_c, 9, 53, 100
1, 61919, Note_on_c, 9, 37, 0
1, 61919, Note_on_c, 9, 53, 0
1, 61920, Note_on_c, 9, 40, 100
1, 61920, Note_on_c, 9, 53, 100
1, 62159, Note_on_c, 9, 40, 0
1, 62159, Note_on_c, 9, 53, 0
1, 62240, Note_on_c, 9, 53, 70
1, 62399, Note_on_c, 9, 53, 0
1, 62400, Note_on_c, 9, 37, 90
1, 62400, Note_on_c, 9, 53, 100
1, 62879, Note_on_c, 9, 37, 0
1, 62879, Note_on_c, 9, 53, 0
1, 62880, Note_on_c, 9, 40, 100
1, 62880, Note_on_c, 9, 53, 100
1, 63119, Note_on_c, 9, 40, 0
1, 63119, Note_on_c, 9, 53, 0
1, 63200, Note_on_c, 9, 53, 70
1, 63359, Note_on_c, 9, 53, 0
1, 63360, Note_on_c, 9, 37, 100
1, 63360, Note_on_c, 9, 53, 100
1, 63839, Note_on_c, 9, 37, 0
1, 63839, Note_on_c, 9, 53, 0
1, 63840, Note_on_c, 9, 40, 100
1, 63840, Note_on_c, 9, 53, 100
1, 64079, Note_on_c, 9, 40, 0
1, 64079, Note_on_c, 9, 53, 0
1, 64160, Note_on_c, 9, 53, 70
1, 64319, Note_on_c, 9, 53, 0
1, 64320, Note_on_c, 9, 37, 90
1, 64320, Note_on_c, 9, 53, 100
1, 64799, Note_on_c, 9, 37, 0
1, 64799, Note_on_c, 9, 53, 0
1, 64800, Note_on_c, 9, 40, 100
1, 64800, Note_on_c, 9, 53, 100
1, 65039, Note_on_c, 9, 40, 0
1, 65039, Note_on_c, 9, 53, 0
1, 65120, Note_on_c, 9, 37, 90
1, 65120, Note_on_c, 9, 53, 70
1, 65279, Note_on_c, 9, 37, 0
1, 65279, Note_on_c, 9, 53, 0
1, 65280, Note_on_c, 9, 37, 100
1, 65280, Note_on_c, 9, 53, 100
1, 65759, Note_on_c, 9, 37, 0
1, 65759, Note_on_c, 9, 53, 0
1, 65760, Note_on_c, 9, 40, 100
1, 65760, Note_on_c, 9, 53, 100
1, 65999, Note_on_c, 9, 40, 0
1, 65999, Note_on_c, 9, 53, 0
1, 66080, Note_on_c, 9, 53, 70
1, 66239, Note_on_c, 9, 53, 0
1, 66240, Note_on_c, 9, 37, 90
1, 66240, Note_on_c, 9, 53, 100
1, 66719, Note_on_c, 9, 37, 0
1, 66719, Note_on_c, 9, 53, 0
1, 66720, Note_on_c, 9, 40, 100
1, 66720, Note_on_c, 9, 53, 100
1, 66959, Note_on_c, 9, 40, 0
1, 66959, Note_on_c, 9, 53, 0
1, 67040, Note_on_c, 9, 37, 90
1, 67040, Note_on_c, 9, 53, 70
1, 67199, Note_on_c, 9, 37, 0
1, 67199, Note_on_c, 9, 53, 0
1, 67200, Note_on_c, 9, 37, 100
1, 67200, Note_on_c, 9, 53, 100
1, 67679, Note_on_c, 9, 37, 0
1, 67679, Note_on_c, 9, 53, 0
1, 67680, Note_on_c, 9, 40, 100
1, 67680, Note_on_c, 9, 53, 100
1, 67919, Note_on_c, 9, 40, 0
1, 67919, Note_on_c, 9, 53, 0
1, 68000, Note_on_c, 9, 40, 80
1, 68000, Note_on_c, 9, 53, 70
1, 68159, Note_on_c, 9, 40, 0
1, 68159, Note_on_c, 9, 53, 0
1, 68160, Note_on_c, 9, 37, 90
1, 68160, Note_on_c, 9, 53, 100
1, 68639, Note_on_c, 9, 37, 0
1, 68639, Note_on_c, 9, 53, 0
1, 68640, Note_on_c, 9, 40, 100
1, 68640, Note_on_c, 9, 53, 100
1, 68879, Note_on_c, 9, 40, 0
1, 68879, Note_on_c, 9, 53, 0
1, 68960, Note_on_c, 9, 37, 90
1, 68960, Note_on_c, 9, 53, 70
1, 69119, Note_on_c, 9, 37, 0
1, 69119, Note_on_c, 9, 53, 0
1, 69120, Note_on_c, 9, 37, 100
1, 69120, Note_on_c, 9, 53, 100
1, 69599, Note_on_c, 9, 37, 0
1, 69599, Note_on_c, 9, 53, 0
1, 69600, Note_on_c, 9, 40, 100
1, 69600, Note_on_c, 9, 53, 100
1, 69839, Note_on_c, 9, 40, 0
1, 69839, Note_on_c, 9, 53, 0
1, 69920, Note_on_c, 9, 40, 80
1, 69920, Note_on_c, 9, 53, 70
1, 70079, Note_on_c, 9, 40, 0
1, 70079, Note_on_c, 9, 53, 0
1, 70080, Note_on_c, 9, 37, 90
1, 70080, Note_on_c, 9, 53, 100
1, 70559, Note_on_c, 9, 37, 0
1, 70559, Note_on_c, 9, 53, 0
1, 70560, Note_on_c, 9, 40, 100
1, 70560, Note_on_c, 9, 53, 100
1, 70799, Note_on_c, 9, 40, 0
1, 70799, Note_on_c, 9, 53, 0
1, 70880, Note_on_c, 9, 53, 70
1, 71039, Note_on_c, 9, 53, 0
1, 71040, Note_on_c, 9, 37, 100
1, 71040, Note_on_c, 9, 53, 100
1, 71279, Note_on_c, 9, 37, 0
1, 71279, Note_on_c, 9, 53, 0
1, 71360, Note_on_c, 9, 53, 70
1, 71519, Note_on_c, 9, 53, 0
1, 71520, Note_on_c, 9, 40, 100
1, 71520, Note_on_c, 9, 53, 100
1, 71759, Note_on_c, 9, 40, 0
1, 71759, Note_on_c, 9, 53, 0
1, 71840, Note_on_c, 9, 53, 70
1, 71999, Note_on_c, 9, 53, 0
1, 72000, Note_on_c, 9, 37, 90
1, 72000, Note_on_c, 9, 53, 100
1, 72479, Note_on_c, 9, 37, 0
1, 72479, Note_on_c, 9, 53, 0
1, 72480, Note_on_c, 9, 40, 100
1, 72480, Note_on_c, 9, 53, 100
1, 72639, Note_on_c, 9, 40, 0
1, 72639, Note_on_c, 9, 53, 0
1, 72640, Note_on_c, 9, 53, 60
1, 72799, Note_on_c, 9, 53, 0
1, 72800, Note_on_c, 9, 53, 70
1, 72959, Note_on_c, 9, 53, 0
1, 72960, Note_on_c, 9, 37, 100
1, 72960, Note_on_c, 9, 53, 100
1, 73439, Note_on_c, 9, 37, 0
1, 73439, Note_on_c, 9, 53, 0
1, 73440, Note_on_c, 9, 40, 100
1, 73440, Note_on_c, 9, 53, 100
1, 73679, Note_on_c, 9, 40, 0
1, 73679, Note_on_c, 9, 53, 0
1, 73760, Note_on_c, 9, 53, 70
1, 73919, Note_on_c, 9, 53, 0
1, 73920, Note_on_c, 9, 37, 90
1, 73920, Note_on_c, 9, 53, 100
1, 74399, Note_on_c, 9, 37, 0
1, 74399, Note_on_c, 9, 53, 0
1, 74400, Note_on_c, 9, 40, 100
1, 74400, Note_on_c, 9, 53, 100
1, 74639, Note_on_c, 9, 40, 0
1, 74639, Note_on_c, 9, 53, 0
1, 74720, Note_on_c, 9, 40, 64
1, 74720, Note_on_c, 9, 53, 70
1, 74879, Note_on_c, 9, 40, 0
1, 74879, Note_on_c, 9, 53, 0
1, 74880, Note_on_c, 9, 37, 100
1, 74880, Note_on_c, 9, 53, 100
1, 75359, Note_on_c, 9, 37, 0
1, 75359, Note_on_c, 9, 53, 0
1, 75360, Note_on_c, 9, 40, 100
1, 75360, Note_on_c, 9, 53, 100
1, 75599, Note_on_c, 9, 40, 0
1, 75599, Note_on_c, 9, 53, 0
1, 75680, Note_on_c, 9, 53, 70
1, 75839, Note_on_c, 9, 53, 0
1, 75840, Note_on_c, 9, 37, 90
1, 75840, Note_on_c, 9, 53, 100
1, 76319, Note_on_c, 9, 37, 0
1, 76319, Note_on_c, 9, 53, 0
1, 76320, Note_on_c, 9, 40, 100
1, 76320, Note_on_c, 9, 53, 100
1, 76559, Note_on_c, 9, 40, 0
1, 76559, Note_on_c, 9, 53, 0
1, 76640, Note_on_c, 9, 37, 90
1, 76640, Note_on_c, 9, 53, 70
1, 76799, Note_on_c, 9, 37, 0
1, 76799, Note_on_c, 9, 53, 0
1, 76800, Note_on_c, 9, 37, 100
1, 76800, Note_on_c, 9, 53, 100
1, 77279, Note_on_c, 9, 37, 0
1, 77279, Note_on_c, 9, 53, 0
1, 77280, Note_on_c, 9, 40, 100
1, 77280, Note_on_c, 9, 53, 100
1, 77519, Note_on_c, 9, 40, 0
1, 77519, Note_on_c, 9, 53, 0
1, 77600, Note_on_c, 9, 53, 70
1, 77759, Note_on_c, 9, 53, 0
1, 77760, Note_on_c, 9, 37, 90
1, 77760, Note_on_c, 9, 53, 100
1, 78239, Note_on_c, 9, 37, 0
1, 78239, Note_on_c, 9, 53, 0
1, 78240, Note_on_c, 9, 40, 100
1, 78240, Note_on_c, 9, 53, 100
1, 78479, Note_on_c, 9, 40, 0
1, 78479, Note_on_c, 9, 53, 0
1, 78560, Note_on_c, 9, 37, 90
1, 78560, Note_on_c, 9, 53, 70
1, 78719, Note_on_c, 9, 37, 0
1, 78719, Note_on_c, 9, 53, 0
1, 78720, Note_on_c, 9, 37, 100
1, 78720, Note_on_c, 9, 53, 100
1, 79199, Note_on_c, 9, 37, 0
1, 79199, Note_on_c, 9, 53, 0
1, 79200, Note_on_c, 9, 40, 100
1, 79200, Note_on_c, 9, 53, 100
1, 79439, Note_on_c, 9, 40, 0
1, 79439, Note_on_c, 9, 53, 0
1, 79520, Note_on_c, 9, 53, 70
1, 79679, Note_on_c, 9, 53, 0
1, 79680, Note_on_c, 9, 37, 90
1, 79680, Note_on_c, 9, 53, 100
1, 79919, Note_on_c, 9, 37, 0
1, 79919, Note_on_c, 9, 53, 0
1, 80000, Note_on_c, 9, 53, 70
1, 80159, Note_on_c, 9, 53, 0
1, 80160, Note_on_c, 9, 40, 100
1, 80160, Note_on_c, 9, 53, 100
1, 80399, Note_on_c, 9, 40, 0
1, 80399, Note_on_c, 9, 53, 0
1, 80480, Note_on_c, 9, 53, 70
1, 80639, Note_on_c, 9, 53, 0
1, 80640, Note_on_c, 9, 37, 100
1, 80640, Note_on_c, 9, 53, 100
1, 81119, Note_on_c, 9, 37, 0
1, 81119, Note_on_c, 9, 53, 0
1, 81120, Note_on_c, 9, 40, 100
1, 81120, Note_on_c, 9, 53, 100
1, 81359, Note_on_c, 9, 40, 0
1, 81359, Note_on_c, 9, 53, 0
1, 81440, Note_on_c, 9, 53, 70
1, 81599, Note_on_c, 9, 53, 0
1, 81600, Note_on_c, 9, 37, 90
1, 81600, Note_on_c, 9, 53, 100
1, 82079, Note_on_c, 9, 37, 0
1, 82079, Note_on_c, 9, 53, 0
1, 82080, Note_on_c, 9, 40, 100
1, 82080, Note_on_c, 9, 53, 100
1, 82239, Note_on_c, 9, 40, 0
1, 82239, Note_on_c, 9, 53, 0
1, 82240, Note_on_c, 9, 53, 60
1, 82399, Note_on_c, 9, 53, 0
1, 82400, Note_on_c, 9, 37, 90
1, 82400, Note_on_c, 9, 53, 70
1, 82559, Note_on_c, 9, 37, 0
1, 82559, Note_on_c, 9, 53, 0
1, 82560, Note_on_c, 9, 37, 100
1, 82560, Note_on_c, 9, 53, 100
1, 82799, Note_on_c, 9, 37, 0
1, 82799, Note_on_c, 9, 53, 0
1, 82880, Note_on_c, 9, 53, 70
1, 83039, Note_on_c, 9, 53, 0
1, 83040, Note_on_c, 9, 40, 100
1, 83040, Note_on_c, 9, 53, 100
1, 83279, Note_on_c, 9, 40, 0
1, 83279, Note_on_c, 9, 53, 0
1, 83360, Note_on_c, 9, 53, 70
1, 83519, Note_on_c, 9, 53, 0
1, 83520, Note_on_c, 9, 37, 90
1, 83520, Note_on_c, 9, 53, 100
1, 83999, Note_on_c, 9, 37, 0
1, 83999, Note_on_c, 9, 53, 0
1, 84000, Note_on_c, 9, 40, 100
1, 84000, Note_on_c, 9, 53, 100
1, 84159, Note_on_c, 9, 40, 0
1, 84159, Note_on_c, 9, 53, 0
1, 84160, Note_on_c, 9, 53, 60
1, 84319, Note_on_c, 9, 53, 0
1, 84320, Note_on_c, 9, 37, 90
1, 84320, Note_on_c, 9, 53, 70
1, 84479, Note_on_c, 9, 37, 0
1, 84479, Note_on_c, 9, 53, 0
1, 84480, Note_on_c, 9, 37, 100
1, 84480, Note_on_c, 9, 53, 100
1, 84959, Note_on_c, 9, 37, 0
1, 84959, Note_on_c, 9, 53, 0
1, 84960, Note_on_c, 9, 40, 100
1, 84960, Note_on_c, 9, 53, 100
1, 85199, Note_on_c, 9, 40, 0
1, 85199, Note_on_c, 9, 53, 0
1, 85280, Note_on_c, 9, 53, 70
1, 85439, Note_on_c, 9, 53, 0
1, 85440, Note_on_c, 9, 37, 90
1, 85440, Note_on_c, 9, 53, 100
1, 85919, Note_on_c, 9, 37, 0
1, 85919, Note_on_c, 9, 53, 0
1, 85920, Note_on_c, 9, 40, 100
1, 85920, Note_on_c, 9, 53, 100
1, 86159, Note_on_c, 9, 40, 0
1, 86159, Note_on_c, 9, 53, 0
1, 86240, Note_on_c, 9, 40, 64
1, 86240, Note_on_c, 9, 53, 70
1, 86399, Note_on_c, 9, 40, 0
1, 86399, Note_on_c, 9, 53, 0
1, 86400, Note_on_c, 9, 37, 100
1, 86400, Note_on_c, 9, 53, 100
1, 86879, Note_on_c, 9, 37, 0
1, 86879, Note_on_c, 9, 53, 0
1, 86880, Note_on_c, 9, 40, 100
1, 86880, Note_on_c, 9, 53, 100
1, 87119, Note_on_c, 9, 40, 0
1, 87119, Note_on_c, 9, 53, 0
1, 87200, Note_on_c, 9, 53, 70
1, 87359, Note_on_c, 9, 53, 0
1, 87360, Note_on_c, 9, 37, 90
1, 87360, Note_on_c, 9, 53, 100
1, 87839, Note_on_c, 9, 37, 0
1, 87839, Note_on_c, 9, 53, 0
1, 87840, Note_on_c, 9, 40, 100
1, 87840, Note_on_c, 9, 53, 100
1, 88079, Note_on_c, 9, 40, 0
1, 88079, Note_on_c, 9, 53, 0
1, 88160, Note_on_c, 9, 40, 64
1, 88160, Note_on_c, 9, 53, 70
1, 88319, Note_on_c, 9, 40, 0
1, 88319, Note_on_c, 9, 53, 0
1, 88320, Note_on_c, 9, 37, 100
1, 88320, Note_on_c, 9, 53, 100
1, 88799, Note_on_c, 9, 37, 0
1, 88799, Note_on_c, 9, 53, 0
1, 88800, Note_on_c, 9, 40, 100
1, 88800, Note_on_c, 9, 53, 100
1, 89039, Note_on_c, 9, 40, 0
1, 89039, Note_on_c, 9, 53, 0
1, 89120, Note_on_c, 9, 53, 70
1, 89279, Note_on_c, 9, 53, 0
1, 89280, Note_on_c, 9, 37, 90
1, 89280, Note_on_c, 9, 53, 100
1, 89759, Note_on_c, 9, 37, 0
1, 89759, Note_on_c, 9, 53, 0
1, 89760, Note_on_c, 9, 40, 100
1, 89760, Note_on_c, 9, 53, 100
1, 89999, Note_on_c, 9, 40, 0
1, 89999, Note_on_c, 9, 53, 0
1, 90080, Note_on_c, 9, 40, 64
1, 90080, Note_on_c, 9, 53, 70
1, 90239, Note_on_c, 9, 40, 0
1, 90239, Note_on_c, 9, 53, 0
1, 90240, Note_on_c, 9, 37, 100
1, 90240, Note_on_c, 9, 53, 100
1, 90719, Note_on_c, 9, 37, 0
1, 90719, Note_on_c, 9, 53, 0
1, 90720, Note_on_c, 9, 40, 100
1, 90720, Note_on_c, 9, 53, 100
1, 90959, Note_on_c, 9, 40, 0
1, 90959, Note_on_c, 9, 53, 0
1, 91040, Note_on_c, 9, 53, 70
1, 91199, Note_on_c, 9, 53, 0
1, 91200, Note_on_c, 9, 37, 90
1, 91200, Note_on_c, 9, 53, 100
1, 91679, Note_on_c, 9, 37, 0
1, 91679, Note_on_c, 9, 53, 0
1, 91680, Note_on_c, 9, 40, 100
1, 91680, Note_on_c, 9, 53, 100
1, 91919, Note_on_c, 9, 40, 0
1, 91919, Note_on_c, 9, 53, 0
1, 92000, Note_on_c, 9, 37, 90
1, 92000, Note_on_c, 9, 53, 70
1, 92159, Note_on_c, 9, 37, 0
1, 92159, Note_on_c, 9, 53, 0
1, 92160, Note_on_c, 9, 37, 100
1, 92160, Note_on_c, 9, 40, 110
1, 92639, Note_on_c, 9, 37, 0
1, 92639, Note_on_c, 9, 40, 0
1, 92640, Note_on_c, 9, 44, 100
1, 93119, Note_on_c, 9, 44, 0
1, 93440, Note_on_c, 9, 40, 100
1, 93599, Note_on_c, 9, 40, 0
1, 93600, Note_on_c, 9, 40, 110
1, 93600, Note_on_c, 9, 44, 100
1, 93839, Note_on_c, 9, 40, 0
1, 93920, Note_on_c, 9, 40, 60
1, 94079, Note_on_c, 9, 44, 0
1, 94079, Note_on_c, 9, 40, 0
1, 94080, Note_on_c, 9, 37, 100
1, 94080, Note_on_c, 9, 51, 90
1, 94080, Note_on_c, 9, 53, 100
1, 94559, Note_on_c, 9, 37, 0
1, 94559, Note_on_c, 9, 51, 0
1, 94559, Note_on_c, 9, 53, 0
1, 94560, Note_on_c, 9, 40, 100
1, 94560, Note_on_c, 9, 53, 100
1, 94560, Note_on_c, 9, 44, 100
1, 94799, Note_on_c, 9, 40, 0
1, 94799, Note_on_c, 9, 53, 0
1, 94880, Note_on_c, 9, 53, 70
1, 95039, Note_on_c, 9, 44, 0
1, 95039, Note_on_c, 9, 53, 0
1, 95040, Note_on_c, 9, 37, 90
1, 95040, Note_on_c, 9, 53, 100
1, 95519, Note_on_c, 9, 37, 0
1, 95519, Note_on_c, 9, 53, 0
1, 95520, Note_on_c, 9, 40, 100
1, 95520, Note_on_c, 9, 53, 100
1, 95520, Note_on_c, 9, 44, 100
1, 95759, Note_on_c, 9, 40, 0
1, 95759, Note_on_c, 9, 53, 0
1, 95840, Note_on_c, 9, 53, 70
1, 95999, Note_on_c, 9, 44, 0
1, 95999, Note_on_c, 9, 53, 0
1, 96000, Note_on_c, 9, 37, 100
1, 96000, Note_on_c, 9, 53, 100
1, 96479, Note_on_c, 9, 37, 0
1, 96479, Note_on_c, 9, 53, 0
1, 96480, Note_on_c, 9, 40, 100
1, 96480, Note_on_c, 9, 53, 100
1, 96719, Note_on_c, 9, 40, 0
1, 96719, Note_on_c, 9, 53, 0
1, 96800, Note_on_c, 9, 53, 70
1, 96959, Note_on_c, 9, 53, 0
1, 96960, Note_on_c, 9, 37, 90
1, 96960, Note_on_c, 9, 53, 100
1, 97439, Note_on_c, 9, 37, 0
1, 97439, Note_on_c, 9, 53, 0
1, 97440, Note_on_c, 9, 40, 100
1, 97440, Note_on_c, 9, 53, 100
1, 97679, Note_on_c, 9, 40, 0
1, 97679, Note_on_c, 9, 53, 0
1, 97760, Note_on_c, 9, 40, 64
1, 97760, Note_on_c, 9, 53, 70
1, 97919, Note_on_c, 9, 40, 0
1, 97919, Note_on_c, 9, 53, 0
1, 97920, Note_on_c, 9, 37, 100
1, 97920, Note_on_c, 9, 53, 100
1, 98399, Note_on_c, 9, 37, 0
1, 98399, Note_on_c, 9, 53, 0
1, 98400, Note_on_c, 9, 40, 100
1, 98400, Note_on_c, 9, 53, 100
1, 98639, Note_on_c, 9, 40, 0
1, 98639, Note_on_c, 9, 53, 0
1, 98720, Note_on_c, 9, 53, 70
1, 98879, Note_on_c, 9, 53, 0
1, 98880, Note_on_c, 9, 37, 90
1, 98880, Note_on_c, 9, 53, 100
1, 99359, Note_on_c, 9, 37, 0
1, 99359, Note_on_c, 9, 53, 0
1, 99360, Note_on_c, 9, 40, 100
1, 99360, Note_on_c, 9, 53, 100
1, 99599, Note_on_c, 9, 40, 0
1, 99599, Note_on_c, 9, 53, 0
1, 99680, Note_on_c, 9, 37, 90
1, 99680, Note_on_c, 9, 53, 70
1, 99839, Note_on_c, 9, 37, 0
1, 99839, Note_on_c, 9, 53, 0
1, 99840, Note_on_c, 9, 37, 100
1, 99840, Note_on_c, 9, 53, 100
1, 100319, Note_on_c, 9, 37, 0
1, 100319, Note_on_c, 9, 53, 0
1, 100320, Note_on_c, 9, 40, 100
1, 100320, Note_on_c, 9, 53, 100
1, 100559, Note_on_c, 9, 40, 0
1, 100559, Note_on_c, 9, 53, 0
1, 100640, Note_on_c, 9, 53, 70
1, 100799, Note_on_c, 9, 53, 0
1, 100800, Note_on_c, 9, 37, 90
1, 100800, Note_on_c, 9, 53, 100
1, 101039, Note_on_c, 9, 37, 0
1, 101039, Note_on_c, 9, 53, 0
1, 101120, Note_on_c, 9, 53, 70
1, 101279, Note_on_c, 9, 53, 0
1, 101280, Note_on_c, 9, 40, 100
1, 101280, Note_on_c, 9, 53, 100
1, 101519, Note_on_c, 9, 40, 0
1, 101519, Note_on_c, 9, 53, 0
1, 101600, Note_on_c, 9, 40, 64
1, 101600, Note_on_c, 9, 53, 70
1, 101759, Note_on_c, 9, 40, 0
1, 101759, Note_on_c, 9, 53, 0
1, 101760, Note_on_c, 9, 37, 100
1, 101760, Note_on_c, 9, 53, 100
1, 102239, Note_on_c, 9, 37, 0
1, 102239, Note_on_c, 9, 53, 0
1, 102240, Note_on_c, 9, 40, 100
1, 102240, Note_on_c, 9, 53, 100
1, 102479, Note_on_c, 9, 40, 0
1, 102479, Note_on_c, 9, 53, 0
1, 102560, Note_on_c, 9, 53, 70
1, 102719, Note_on_c, 9, 53, 0
1, 102720, Note_on_c, 9, 37, 90
1, 102720, Note_on_c, 9, 53, 100
1, 103199, Note_on_c, 9, 37, 0
1, 103199, Note_on_c, 9, 53, 0
1, 103200, Note_on_c, 9, 40, 100
1, 103200, Note_on_c, 9, 53, 100
1, 103439, Note_on_c, 9, 40, 0
1, 103439, Note_on_c, 9, 53, 0
1, 103520, Note_on_c, 9, 37, 90
1, 103520, Note_on_c, 9, 53, 70
1, 103679, Note_on_c, 9, 37, 0
1, 103679, Note_on_c, 9, 53, 0
1, 103680, Note_on_c, 9, 37, 100
1, 103680, Note_on_c, 9, 53, 100
1, 104159, Note_on_c, 9, 37, 0
1, 104159, Note_on_c, 9, 53, 0
1, 104160, Note_on_c, 9, 40, 100
1, 104160, Note_on_c, 9, 53, 100
1, 104399, Note_on_c, 9, 40, 0
1, 104399, Note_on_c, 9, 53, 0
1, 104480, Note_on_c, 9, 40, 80
1, 104480, Note_on_c, 9, 53, 70
1, 104639, Note_on_c, 9, 40, 0
1, 104639, Note_on_c, 9, 53, 0
1, 104640, Note_on_c, 9, 37, 90
1, 104640, Note_on_c, 9, 53, 100
1, 105119, Note_on_c, 9, 37, 0
1, 105119, Note_on_c, 9, 53, 0
1, 105120, Note_on_c, 9, 40, 100
1, 105120, Note_on_c, 9, 53, 100
1, 105279, Note_on_c, 9, 40, 0
1, 105279, Note_on_c, 9, 53, 0
1, 105280, Note_on_c, 9, 53, 60
1, 105439, Note_on_c, 9, 53, 0
1, 105440, Note_on_c, 9, 53, 70
1, 105599, Note_on_c, 9, 53, 0
1, 105600, Note_on_c, 9, 37, 100
1, 105600, Note_on_c, 9, 53, 100
1, 106079, Note_on_c, 9, 37, 0
1, 106079, Note_on_c, 9, 53, 0
1, 106080, Note_on_c, 9, 40, 100
1, 106080, Note_on_c, 9, 53, 100
1, 106319, Note_on_c, 9, 40, 0
1, 106319, Note_on_c, 9, 53, 0
1, 106400, Note_on_c, 9, 53, 70
1, 106559, Note_on_c, 9, 53, 0
1, 106560, Note_on_c, 9, 37, 90
1, 106560, Note_on_c, 9, 53, 100
1, 107039, Note_on_c, 9, 37, 0
1, 107039, Note_on_c, 9, 53, 0
1, 107040, Note_on_c, 9, 40, 100
1, 107040, Note_on_c, 9, 53, 100
1, 107279, Note_on_c, 9, 40, 0
1, 107279, Note_on_c, 9, 53, 0
1, 107360, Note_on_c, 9, 53, 70
1, 107519, Note_on_c, 9, 53, 0
1, 107520, Note_on_c, 9, 37, 100
1, 107520, Note_on_c, 9, 53, 100
1, 107999, Note_on_c, 9, 37, 0
1, 107999, Note_on_c, 9, 53, 0
1, 108000, Note_on_c, 9, 40, 100
1, 108000, Note_on_c, 9, 53, 100
1, 108239, Note_on_c, 9, 40, 0
1, 108239, Note_on_c, 9, 53, 0
1, 108320, Note_on_c, 9, 53, 70
1, 108479, Note_on_c, 9, 53, 0
1, 108480, Note_on_c, 9, 37, 90
1, 108480, Note_on_c, 9, 53, 100
1, 108959, Note_on_c, 9, 37, 0
1, 108959, Note_on_c, 9, 53, 0
1, 108960, Note_on_c, 9, 40, 100
1, 108960, Note_on_c, 9, 53, 100
1, 109199, Note_on_c, 9, 40, 0
1, 109199, Note_on_c, 9, 53, 0
1, 109280, Note_on_c, 9, 37, 90
1, 109280, Note_on_c, 9, 53, 70
1, 109439, Note_on_c, 9, 37, 0
1, 109439, Note_on_c, 9, 53, 0
1, 109440, Note_on_c, 9, 37, 100
1, 109440, Note_on_c, 9, 53, 100
1, 109919, Note_on_c, 9, 37, 0
1, 109919, Note_on_c, 9, 53, 0
1, 109920, Note_on_c, 9, 40, 100
1, 109920, Note_on_c, 9, 53, 100
1, 110159, Note_on_c, 9, 40, 0
1, 110159, Note_on_c, 9, 53, 0
1, 110240, Note_on_c, 9, 53, 70
1, 110399, Note_on_c, 9, 53, 0
1, 110400, Note_on_c, 9, 37, 90
1, 110400, Note_on_c, 9, 53, 100
1, 110879, Note_on_c, 9, 37, 0
1, 110879, Note_on_c, 9, 53, 0
1, 110880, Note_on_c, 9, 40, 100
1, 110880, Note_on_c, 9, 53, 100
1, 111119, Note_on_c, 9, 40, 0
1, 111119, Note_on_c, 9, 53, 0
1, 111200, Note_on_c, 9, 37, 90
1, 111200, Note_on_c, 9, 53, 70
1, 111359, Note_on_c, 9, 37, 0
1, 111359, Note_on_c, 9, 53, 0
1, 111360, Note_on_c, 9, 37, 100
1, 111360, Note_on_c, 9, 53, 100
1, 111839, Note_on_c, 9, 37, 0
1, 111839, Note_on_c, 9, 53, 0
1, 111840, Note_on_c, 9, 40, 100
1, 111840, Note_on_c, 9, 53, 100
1, 112079, Note_on_c, 9, 40, 0
1, 112079, Note_on_c, 9, 53, 0
1, 112160, Note_on_c, 9, 40, 80
1, 112160, Note_on_c, 9, 53, 70
1, 112319, Note_on_c, 9, 40, 0
1, 112319, Note_on_c, 9, 53, 0
1, 112320, Note_on_c, 9, 37, 90
1, 112320, Note_on_c, 9, 53, 100
1, 112799, Note_on_c, 9, 37, 0
1, 112799, Note_on_c, 9, 53, 0
1, 112800, Note_on_c, 9, 40, 100
1, 112800, Note_on_c, 9, 53, 100
1, 113039, Note_on_c, 9, 40, 0
1, 113039, Note_on_c, 9, 53, 0
1, 113120, Note_on_c, 9, 37, 90
1, 113120, Note_on_c, 9, 53, 70
1, 113279, Note_on_c, 9, 37, 0
1, 113279, Note_on_c, 9, 53, 0
1, 113280, Note_on_c, 9, 37, 100
1, 113280, Note_on_c, 9, 53, 100
1, 113759, Note_on_c, 9, 37, 0
1, 113759, Note_on_c, 9, 53, 0
1, 113760, Note_on_c, 9, 40, 100
1, 113760, Note_on_c, 9, 53, 100
1, 113999, Note_on_c, 9, 40, 0
1, 113999, Note_on_c, 9, 53, 0
1, 114080, Note_on_c, 9, 53, 70
1, 114239, Note_on_c, 9, 53, 0
1, 114240, Note_on_c, 9, 37, 90
1, 114240, Note_on_c, 9, 53, 100
1, 114719, Note_on_c, 9, 37, 0
1, 114719, Note_on_c, 9, 53, 0
1, 114720, Note_on_c, 9, 40, 100
1, 114720, Note_on_c, 9, 53, 100
1, 114959, Note_on_c, 9, 40, 0
1, 114959, Note_on_c, 9, 53, 0
1, 115040, Note_on_c, 9, 53, 70
1, 115199, Note_on_c, 9, 53, 0
1, 115200, Note_on_c, 9, 37, 100
1, 115200, Note_on_c, 9, 53, 100
1, 115679, Note_on_c, 9, 37, 0
1, 115679, Note_on_c, 9, 53, 0
1, 115680, Note_on_c, 9, 40, 100
1, 115680, Note_on_c, 9, 53, 100
1, 115919, Note_on_c, 9, 40, 0
1, 115919, Note_on_c, 9, 53, 0
1, 116000, Note_on_c, 9, 40, 80
1, 116000, Note_on_c, 9, 53, 70
1, 116159, Note_on_c, 9, 40, 0
1, 116159, Note_on_c, 9, 53, 0
1, 116160, Note_on_c, 9, 37, 90
1, 116160, Note_on_c, 9, 53, 100
1, 116639, Note_on_c, 9, 37, 0
1, 116639, Note_on_c, 9, 53, 0
1, 116640, Note_on_c, 9, 40, 100
1, 116640, Note_on_c, 9, 53, 100
1, 116879, Note_on_c, 9, 40, 0
1, 116879, Note_on_c, 9, 53, 0
1, 116960, Note_on_c, 9, 40, 64
1, 116960, Note_on_c, 9, 53, 70
1, 117119, Note_on_c, 9, 40, 0
1, 117119, Note_on_c, 9, 53, 0
1, 117120, Note_on_c, 9, 37, 100
1, 117120, Note_on_c, 9, 53, 100
1, 117599, Note_on_c, 9, 37, 0
1, 117599, Note_on_c, 9, 53, 0
1, 117600, Note_on_c, 9, 40, 100
1, 117600, Note_on_c, 9, 53, 100
1, 117839, Note_on_c, 9, 40, 0
1, 117839, Note_on_c, 9, 53, 0
1, 117920, Note_on_c, 9, 53, 70
1, 118079, Note_on_c, 9, 53, 0
1, 118080, Note_on_c, 9, 37, 90
1, 118080, Note_on_c, 9, 53, 100
1, 118559, Note_on_c, 9, 37, 0
1, 118559, Note_on_c, 9, 53, 0
1, 118560, Note_on_c, 9, 40, 100
1, 118560, Note_on_c, 9, 53, 100
1, 118799, Note_on_c, 9, 40, 0
1, 118799, Note_on_c, 9, 53, 0
1, 118880, Note_on_c, 9, 53, 70
1, 119039, Note_on_c, 9, 53, 0
1, 119040, Note_on_c, 9, 37, 100
1, 119040, Note_on_c, 9, 53, 100
1, 119519, Note_on_c, 9, 37, 0
1, 119519, Note_on_c, 9, 53, 0
1, 119520, Note_on_c, 9, 40, 100
1, 119520, Note_on_c, 9, 53, 100
1, 119759, Note_on_c, 9, 40, 0
1, 119759, Note_on_c, 9, 53, 0
1, 119840, Note_on_c, 9, 53, 70
1, 119999, Note_on_c, 9, 53, 0
1, 120000, Note_on_c, 9, 37, 90
1, 120000, Note_on_c, 9, 53, 100
1, 120479, Note_on_c, 9, 37, 0
1, 120479, Note_on_c, 9, 53, 0
1, 120480, Note_on_c, 9, 40, 100
1, 120480, Note_on_c, 9, 53, 100
1, 120719, Note_on_c, 9, 40, 0
1, 120719, Note_on_c, 9, 53, 0
1, 120800, Note_on_c, 9, 40, 64
1, 120800, Note_on_c, 9, 53, 70
1, 120959, Note_on_c, 9, 40, 0
1, 120959, Note_on_c, 9, 53, 0
1, 120960, Note_on_c, 9, 37, 100
1, 120960, Note_on_c, 9, 53, 100
1, 121439, Note_on_c, 9, 37, 0
1, 121439, Note_on_c, 9, 53, 0
1, 121440, Note_on_c, 9, 40, 100
1, 121440, Note_on_c, 9, 53, 100
1, 121679, Note_on_c, 9, 40, 0
1, 121679, Note_on_c, 9, 53, 0
1, 121760, Note_on_c, 9, 53, 70
1, 121919, Note_on_c, 9, 53, 0
1, 121920, Note_on_c, 9, 37, 90
1, 121920, Note_on_c, 9, 53, 100
1, 122399, Note_on_c, 9, 37, 0
1, 122399, Note_on_c, 9, 53, 0
1, 122400, Note_on_c, 9, 40, 100
1, 122400, Note_on_c, 9, 53, 100
1, 122639, Note_on_c, 9, 40, 0
1, 122639, Note_on_c, 9, 53, 0
1, 122720, Note_on_c, 9, 37, 90
1, 122720, Note_on_c, 9, 53, 70
1, 122879, Note_on_c, 9, 37, 0
1, 122879, Note_on_c, 9, 53, 0
1, 122880, Note_on_c, 9, 37, 100
1, 122880, Note_on_c, 9, 53, 100
1, 123359, Note_on_c, 9, 37, 0
1, 123359, Note_on_c, 9, 53, 0
1, 123360, Note_on_c, 9, 40, 100
1, 123360, Note_on_c, 9, 53, 100
1, 123599, Note_on_c, 9, 40, 0
1, 123599, Note_on_c, 9, 53, 0
1, 123680, Note_on_c, 9, 53, 70
1, 123839, Note_on_c, 9, 53, 0
1, 123840, Note_on_c, 9, 37, 90
1, 123840, Note_on_c, 9, 53, 100
1, 124319, Note_on_c, 9, 37, 0
1, 124319, Note_on_c, 9, 53, 0
1, 124320, Note_on_c, 9, 40, 100
1, 124320, Note_on_c, 9, 53, 100
1, 124559, Note_on_c, 9, 40, 0
1, 124559, Note_on_c, 9, 53, 0
1, 124640, Note_on_c, 9, 53, 70
1, 124799, Note_on_c, 9, 53, 0
1, 124800, Note_on_c, 9, 37, 100
1, 124800, Note_on_c, 9, 53, 100
1, 125279, Note_on_c, 9, 37, 0
1, 125279, Note_on_c, 9, 53, 0
1, 125280, Note_on_c, 9, 40, 100
1, 125280, Note_on_c, 9, 53, 100
1, 125519, Note_on_c, 9, 40, 0
1, 125519, Note_on_c, 9, 53, 0
1, 125600, Note_on_c, 9, 53, 70
1, 125759, Note_on_c, 9, 53, 0
1, 125760, Note_on_c, 9, 37, 90
1, 125760, Note_on_c, 9, 53, 100
1, 126239, Note_on_c, 9, 37, 0
1, 126239, Note_on_c, 9, 53, 0
1, 126240, Note_on_c, 9, 40, 100
1, 126240, Note_on_c, 9, 53, 100
1, 126479, Note_on_c, 9, 40, 0
1, 126479, Note_on_c, 9, 53, 0
1, 126560, Note_on_c, 9, 37, 90
1, 126560, Note_on_c, 9, 53, 70
1, 126719, Note_on_c, 9, 37, 0
1, 126719, Note_on_c, 9, 53, 0
1, 126720, Note_on_c, 9, 37, 100
1, 126720, Note_on_c, 9, 53, 100
1, 127199, Note_on_c, 9, 37, 0
1, 127199, Note_on_c, 9, 53, 0
1, 127200, Note_on_c, 9, 40, 100
1, 127200, Note_on_c, 9, 53, 100
1, 127439, Note_on_c, 9, 40, 0
1, 127439, Note_on_c, 9, 53, 0
1, 127520, Note_on_c, 9, 53, 70
1, 127679, Note_on_c, 9, 53, 0
1, 127680, Note_on_c, 9, 37, 90
1, 127680, Note_on_c, 9, 53, 100
1, 128159, Note_on_c, 9, 37, 0
1, 128159, Note_on_c, 9, 53, 0
1, 128160, Note_on_c, 9, 40, 100
1, 128160, Note_on_c, 9, 53, 100
1, 128399, Note_on_c, 9, 40, 0
1, 128399, Note_on_c, 9, 53, 0
1, 128480, Note_on_c, 9, 53, 70
1, 128639, Note_on_c, 9, 53, 0
1, 128640, Note_on_c, 9, 37, 100
1, 128640, Note_on_c, 9, 53, 100
1, 129119, Note_on_c, 9, 37, 0
1, 129119, Note_on_c, 9, 53, 0
1, 129120, Note_on_c, 9, 40, 100
1, 129120, Note_on_c, 9, 53, 100
1, 129359, Note_on_c, 9, 40, 0
1, 129359, Note_on_c, 9, 53, 0
1, 129440, Note_on_c, 9, 40, 80
1, 129440, Note_on_c, 9, 53, 70
1, 129599, Note_on_c, 9, 40, 0
1, 129599, Note_on_c, 9, 53, 0
1, 129600, Note_on_c, 9, 37, 90
1, 129600, Note_on_c, 9, 53, 100
1, 129839, Note_on_c, 9, 37, 0
1, 129839, Note_on_c, 9, 53, 0
1, 129920, Note_on_c, 9, 53, 70
1, 130079, Note_on_c, 9, 53, 0
1, 130080, Note_on_c, 9, 40, 100
1, 130080, Note_on_c, 9, 53, 100
1, 130319, Note_on_c, 9, 40, 0
1, 130319, Note_on_c, 9, 53, 0
1, 130400, Note_on_c, 9, 53, 70
1, 130559, Note_on_c, 9, 53, 0
1, 130560, Note_on_c, 9, 37, 100
1, 130560, Note_on_c, 9, 53, 100
1, 131039, Note_on_c, 9, 37, 0
1, 131039, Note_on_c, 9, 53, 0
1, 131040, Note_on_c, 9, 40, 100
1, 131040, Note_on_c, 9, 53, 100
1, 131279, Note_on_c, 9, 40, 0
1, 131279, Note_on_c, 9, 53, 0
1, 131360, Note_on_c, 9, 53, 70
1, 131519, Note_on_c, 9, 53, 0
1, 131520, Note_on_c, 9, 37, 90
1, 131520, Note_on_c, 9, 53, 100
1, 131999, Note_on_c, 9, 37, 0
1, 131999, Note_on_c, 9, 53, 0
1, 132000, Note_on_c, 9, 40, 100
1, 132000, Note_on_c, 9, 53, 100
1, 132239, Note_on_c, 9, 40, 0
1, 132239, Note_on_c, 9, 53, 0
1, 132320, Note_on_c, 9, 37, 90
1, 132320, Note_on_c, 9, 53, 70
1, 132479, Note_on_c, 9, 37, 0
1, 132479, Note_on_c, 9, 53, 0
1, 132480, Note_on_c, 9, 37, 100
1, 132480, Note_on_c, 9, 53, 100
1, 132959, Note_on_c, 9, 37, 0
1, 132959, Note_on_c, 9, 53, 0
1, 132960, Note_on_c, 9, 40, 100
1, 132960, Note_on_c, 9, 53, 100
1, 133199, Note_on_c, 9, 40, 0
1, 133199, Note_on_c, 9, 53, 0
1, 133280, Note_on_c, 9, 53, 70
1, 133439, Note_on_c, 9, 53, 0
1, 133440, Note_on_c, 9, 37, 90
1, 133440, Note_on_c, 9, 53, 100
1, 133919, Note_on_c, 9, 37, 0
1, 133919, Note_on_c, 9, 53, 0
1, 133920, Note_on_c, 9, 40, 100
1, 133920, Note_on_c, 9, 53, 100
1, 134159, Note_on_c, 9, 40, 0
1, 134159, Note_on_c, 9, 53, 0
1, 134240, Note_on_c, 9, 53, 70
1, 134399, Note_on_c, 9, 53, 0
1, 134400, Note_on_c, 9, 37, 100
1, 134400, Note_on_c, 9, 53, 100
1, 134879, Note_on_c, 9, 37, 0
1, 134879, Note_on_c, 9, 53, 0
1, 134880, Note_on_c, 9, 40, 100
1, 134880, Note_on_c, 9, 53, 100
1, 135119, Note_on_c, 9, 40, 0
1, 135119, Note_on_c, 9, 53, 0
1, 135200, Note_on_c, 9, 40, 80
1, 135200, Note_on_c, 9, 53, 70
1, 135359, Note_on_c, 9, 40, 0
1, 135359, Note_on_c, 9, 53, 0
1, 135360, Note_on_c, 9, 37, 90
1, 135360, Note_on_c, 9, 53, 100
1, 135839, Note_on_c, 9, 37, 0
1, 135839, Note_on_c, 9, 53, 0
1, 135840, Note_on_c, 9, 40, 100
1, 135840, Note_on_c, 9, 53, 100
1, 135999, Note_on_c, 9, 40, 0
1, 135999, Note_on_c, 9, 53, 0
1, 136000, Note_on_c, 9, 53, 60
1, 136159, Note_on_c, 9, 53, 0
1, 136160, Note_on_c, 9, 53, 70
1, 136319, Note_on_c, 9, 53, 0
1, 136320, Note_on_c, 9, 37, 100
1, 136320, Note_on_c, 9, 53, 100
1, 136799, Note_on_c, 9, 37, 0
1, 136799, Note_on_c, 9, 53, 0
1, 136800, Note_on_c, 9, 40, 100
1, 136800, Note_on_c, 9, 53, 100
1, 137039, Note_on_c, 9, 40, 0
1, 137039, Note_on_c, 9, 53, 0
1, 137120, Note_on_c, 9, 40, 80
1, 137120, Note_on_c, 9, 53, 70
1, 137279, Note_on_c, 9, 40, 0
1, 137279, Note_on_c, 9, 53, 0
1, 137280, Note_on_c, 9, 37, 90
1, 137280, Note_on_c, 9, 53, 100
1, 137759, Note_on_c, 9, 37, 0
1, 137759, Note_on_c, 9, 53, 0
1, 137760, Note_on_c, 9, 40, 100
1, 137760, Note_on_c, 9, 53, 100
1, 137999, Note_on_c, 9, 40, 0
1, 137999, Note_on_c, 9, 53, 0
1, 138080, Note_on_c, 9, 37, 90
1, 138080, Note_on_c, 9, 53, 70
1, 138239, Note_on_c, 9, 37, 0
1, 138239, Note_on_c, 9, 53, 0
1, 138240, Note_on_c, 9, 37, 100
1, 138240, Note_on_c, 9, 40, 110
1, 138399, Note_on_c, 9, 37, 0
1, 138399, Note_on_c, 9, 40, 0
1, 138400, Note_on_c, 9, 40, 70
1, 138559, Note_on_c, 9, 40, 0
1, 138560, Note_on_c, 9, 40, 60
1, 138719, Note_on_c, 9, 40, 0
1, 138720, Note_on_c, 9, 50, 110
1, 138720, Note_on_c, 9, 44, 100
1, 138879, Note_on_c, 9, 50, 0
1, 138880, Note_on_c, 9, 40, 70
1, 139039, Note_on_c, 9, 40, 0
1, 139040, Note_on_c, 9, 40, 60
1, 139199, Note_on_c, 9, 44, 0
1, 139199, Note_on_c, 9, 40, 0
1, 139200, Note_on_c, 9, 47, 110
1, 139359, Note_on_c, 9, 47, 0
1, 139360, Note_on_c, 9, 40, 60
1, 139519, Note_on_c, 9, 40, 0
1, 139520, Note_on_c, 9, 47, 100
1, 139679, Note_on_c, 9, 47, 0
1, 139680, Note_on_c, 9, 44, 100
1, 139680, Note_on_c, 9, 43, 110
1, 139840, Note_on_c, 9, 40, 60
1, 139919, Note_on_c, 9, 44, 0
1, 139919, Note_on_c, 9, 43, 0
1, 139919, Note_on_c, 9, 40, 0
1, 140000, Note_on_c, 9, 43, 100
1, 140159, Note_on_c, 9, 43, 0
1, 140160, Note_on_c, 9, 51, 100
1, 140160, Note_on_c, 9, 49, 90
1, 140160, Note_on_c, 9, 35, 100
1, 140639, Note_on_c, 9, 51, 0
1, 140639, Note_on_c, 9, 49, 0
1, 140639, Note_on_c, 9, 35, 0
1, 140640, Note_on_c, 9, 38, 100
1, 140640, Note_on_c, 9, 51, 100
1, 140640, Note_on_c, 9, 42, 100
1, 140879, Note_on_c, 9, 38, 0
1, 140879, Note_on_c, 9, 51, 0
1, 140879, Note_on_c, 9, 42, 0
1, 140960, Note_on_c, 9, 51, 70
1, 141119, Note_on_c, 9, 51, 0
1, 141120, Note_on_c, 9, 51, 100
1, 141120, Note_on_c, 9, 35, 90
1, 141599, Note_on_c, 9, 51, 0
1, 141599, Note_on_c, 9, 35, 0
1, 141600, Note_on_c, 9, 38, 100
1, 141600, Note_on_c, 9, 51, 100
1, 141600, Note_on_c, 9, 42, 100
1, 141839, Note_on_c, 9, 38, 0
1, 141839, Note_on_c, 9, 51, 0
1, 141839, Note_on_c, 9, 42, 0
1, 141920, Note_on_c, 9, 51, 70
1, 142079, Note_on_c, 9, 51, 0
1, 142080, Note_on_c, 9, 51, 100
1, 142080, Note_on_c, 9, 35, 100
1, 142559, Note_on_c, 9, 51, 0
1, 142559, Note_on_c, 9, 35, 0
1, 142560, Note_on_c, 9, 38, 100
1, 142560, Note_on_c, 9, 51, 100
1, 142799, Note_on_c, 9, 38, 0
1, 142799, Note_on_c, 9, 51, 0
1, 142880, Note_on_c, 9, 51, 70
1, 143039, Note_on_c, 9, 51, 0
1, 143040, Note_on_c, 9, 51, 100
1, 143040, Note_on_c, 9, 35, 90
1, 143519, Note_on_c, 9, 51, 0
1, 143519, Note_on_c, 9, 35, 0
1, 143520, Note_on_c, 9, 38, 100
1, 143520, Note_on_c, 9, 51, 100
1, 143759, Note_on_c, 9, 38, 0
1, 143759, Note_on_c, 9, 51, 0
1, 143840, Note_on_c, 9, 38, 64
1, 143840, Note_on_c, 9, 51, 70
1, 143999, Note_on_c, 9, 38, 0
1, 143999, Note_on_c, 9, 51, 0
1, 144000, Note_on_c, 9, 51, 100
1, 144000, Note_on_c, 9, 35, 100
1, 144479, Note_on_c, 9, 51, 0
1, 144479, Note_on_c, 9, 35, 0
1, 144480, Note_on_c, 9, 38, 100
1, 144480, Note_on_c, 9, 51, 100
1, 144719, Note_on_c, 9, 38, 0
1, 144719, Note_on_c, 9, 51, 0
1, 144800, Note_on_c, 9, 51, 70
1, 144959, Note_on_c, 9, 51, 0
1, 144960, Note_on_c, 9, 51, 100
1, 144960, Note_on_c, 9, 35, 90
1, 145439, Note_on_c, 9, 51, 0
1, 145439, Note_on_c, 9, 35, 0
1, 145440, Note_on_c, 9, 38, 100
1, 145440, Note_on_c, 9, 51, 100
1, 145679, Note_on_c, 9, 38, 0
1, 145679, Note_on_c, 9, 51, 0
1, 145760, Note_on_c, 9, 51, 70
1, 145760, Note_on_c, 9, 35, 90
1, 145919, Note_on_c, 9, 51, 0
1, 145919, Note_on_c, 9, 35, 0
1, 145920, Note_on_c, 9, 51, 100
1, 145920, Note_on_c, 9, 35, 100
1, 146399, Note_on_c, 9, 51, 0
1, 146399, Note_on_c, 9, 35, 0
1, 146400, Note_on_c, 9, 38, 100
1, 146400, Note_on_c, 9, 51, 100
1, 146639, Note_on_c, 9, 38, 0
1, 146639, Note_on_c, 9, 51, 0
1, 146720, Note_on_c, 9, 51, 70
1, 146879, Note_on_c, 9, 51, 0
1, 146880, Note_on_c, 9, 51, 100
1, 146880, Note_on_c, 9, 35, 90
1, 147359, Note_on_c, 9, 51, 0
1, 147359, Note_on_c, 9, 35, 0
1, 147360, Note_on_c, 9, 38, 100
1, 147360, Note_on_c, 9, 51, 100
1, 147519, Note_on_c, 9, 38, 0
1, 147519, Note_on_c, 9, 51, 0
1, 147520, Note_on_c, 9, 51, 60
1, 147679, Note_on_c, 9, 51, 0
1, 147680, Note_on_c, 9, 51, 70
1, 147680, Note_on_c, 9, 35, 90
1, 147839, Note_on_c, 9, 51, 0
1, 147839, Note_on_c, 9, 35, 0
1, 147840, Note_on_c, 9, 51, 100
1, 147840, Note_on_c, 9, 35, 100
1, 148319, Note_on_c, 9, 51, 0
1, 148319, Note_on_c, 9, 35, 0
1, 148320, Note_on_c, 9, 38, 100
1, 148320, Note_on_c, 9, 51, 100
1, 148559, Note_on_c, 9, 38, 0
1, 148559, Note_on_c, 9, 51, 0
1, 148640, Note_on_c, 9, 51, 70
1, 148799, Note_on_c, 9, 51, 0
1, 148800, Note_on_c, 9, 51, 100
1, 148800, Note_on_c, 9, 35, 90
1, 149279, Note_on_c, 9, 51, 0
1, 149279, Note_on_c, 9, 35, 0
1, 149280, Note_on_c, 9, 38, 100
1, 149280, Note_on_c, 9, 51, 100
1, 149519, Note_on_c, 9, 38, 0
1, 149519, Note_on_c, 9, 51, 0
1, 149600, Note_on_c, 9, 38, 64
1, 149600, Note_on_c, 9, 51, 70
1, 149759, Note_on_c, 9, 38, 0
1, 149759, Note_on_c, 9, 51, 0
1, 149760, Note_on_c, 9, 51, 100
1, 149760, Note_on_c, 9, 35, 100
1, 150239, Note_on_c, 9, 51, 0
1, 150239, Note_on_c, 9, 35, 0
1, 150240, Note_on_c, 9, 38, 100
1, 150240, Note_on_c, 9, 51, 100
1, 150479, Note_on_c, 9, 38, 0
1, 150479, Note_on_c, 9, 51, 0
1, 150560, Note_on_c, 9, 51, 70
1, 150719, Note_on_c, 9, 51, 0
1, 150720, Note_on_c, 9, 51, 100
1, 150720, Note_on_c, 9, 35, 90
1, 151199, Note_on_c, 9, 51, 0
1, 151199, Note_on_c, 9, 35, 0
1, 151200, Note_on_c, 9, 38, 100
1, 151200, Note_on_c, 9, 51, 100
1, 151439, Note_on_c, 9, 38, 0
1, 151439, Note_on_c, 9, 51, 0
1, 151520, Note_on_c, 9, 51, 70
1, 151679, Note_on_c, 9, 51, 0
1, 151680, Note_on_c, 9, 51, 100
1, 151680, Note_on_c, 9, 35, 100
1, 152159, Note_on_c, 9, 51, 0
1, 152159, Note_on_c, 9, 35, 0
1, 152160, Note_on_c, 9, 38, 100
1, 152160, Note_on_c, 9, 51, 100
1, 152399, Note_on_c, 9, 38, 0
1, 152399, Note_on_c, 9, 51, 0
1, 152480, Note_on_c, 9, 51, 70
1, 152639, Note_on_c, 9, 51, 0
1, 152640, Note_on_c, 9, 51, 100
1, 152640, Note_on_c, 9, 35, 90
1, 153119, Note_on_c, 9, 51, 0
1, 153119, Note_on_c, 9, 35, 0
1, 153120, Note_on_c, 9, 38, 100
1, 153120, Note_on_c, 9, 51, 100
1, 153359, Note_on_c, 9, 38, 0
1, 153359, Note_on_c, 9, 51, 0
1, 153440, Note_on_c, 9, 51, 70
1, 153440, Note_on_c, 9, 35, 90
1, 153599, Note_on_c, 9, 51, 0
1, 153599, Note_on_c, 9, 35, 0
1, 153600, Note_on_c, 9, 51, 100
1, 153600, Note_on_c, 9, 35, 100
1, 154079, Note_on_c, 9, 51, 0
1, 154079, Note_on_c, 9, 35, 0
1, 154080, Note_on_c, 9, 38, 100
1, 154080, Note_on_c, 9, 51, 100
1, 154319, Note_on_c, 9, 38, 0
1, 154319, Note_on_c, 9, 51, 0
1, 154400, Note_on_c, 9, 51, 70
1, 154559, Note_on_c, 9, 51, 0
1, 154560, Note_on_c, 9, 51, 100
1, 154560, Note_on_c, 9, 35, 90
1, 155039, Note_on_c, 9, 51, 0
1, 155039, Note_on_c, 9, 35, 0
1, 155040, Note_on_c, 9, 38, 100
1, 155040, Note_on_c, 9, 51, 100
1, 155279, Note_on_c, 9, 38, 0
1, 155279, Note_on_c, 9, 51, 0
1, 155360, Note_on_c, 9, 51, 70
1, 155360, Note_on_c, 9, 35, 90
1, 155519, Note_on_c, 9, 51, 0
1, 155519, Note_on_c, 9, 35, 0
1, 155520, Note_on_c, 9, 51, 100
1, 155520, Note_on_c, 9, 35, 100
1, 155999, Note_on_c, 9, 51, 0
1, 155999, Note_on_c, 9, 35, 0
1, 156000, Note_on_c, 9, 38, 100
1, 156000, Note_on_c, 9, 51, 100
1, 156239, Note_on_c, 9, 38, 0
1, 156239, Note_on_c, 9, 51, 0
1, 156320, Note_on_c, 9, 51, 70
1, 156479, Note_on_c, 9, 51, 0
1, 156480, Note_on_c, 9, 51, 100
1, 156480, Note_on_c, 9, 35, 90
1, 156959, Note_on_c, 9, 51, 0
1, 156959, Note_on_c, 9, 35, 0
1, 156960, Note_on_c, 9, 38, 100
1, 156960, Note_on_c, 9, 51, 100
1, 157199, Note_on_c, 9, 38, 0
1, 157199, Note_on_c, 9, 51, 0
1, 157280, Note_on_c, 9, 51, 70
1, 157439, Note_on_c, 9, 51, 0
1, 157440, Note_on_c, 9, 51, 100
1, 157440, Note_on_c, 9, 35, 100
1, 157919, Note_on_c, 9, 51, 0
1, 157919, Note_on_c, 9, 35, 0
1, 157920, Note_on_c, 9, 38, 100
1, 157920, Note_on_c, 9, 51, 100
1, 158159, Note_on_c, 9, 38, 0
1, 158159, Note_on_c, 9, 51, 0
1, 158240, Note_on_c, 9, 51, 70
1, 158399, Note_on_c, 9, 51, 0
1, 158400, Note_on_c, 9, 51, 100
1, 158400, Note_on_c, 9, 35, 90
1, 158879, Note_on_c, 9, 51, 0
1, 158879, Note_on_c, 9, 35, 0
1, 158880, Note_on_c, 9, 38, 100
1, 158880, Note_on_c, 9, 51, 100
1, 159119, Note_on_c, 9, 38, 0
1, 159119, Note_on_c, 9, 51, 0
1, 159200, Note_on_c, 9, 51, 70
1, 159200, Note_on_c, 9, 35, 90
1, 159359, Note_on_c, 9, 51, 0
1, 159359, Note_on_c, 9, 35, 0
1, 159360, Note_on_c, 9, 51, 100
1, 159360, Note_on_c, 9, 35, 100
1, 159839, Note_on_c, 9, 51, 0
1, 159839, Note_on_c, 9, 35, 0
1, 159840, Note_on_c, 9, 38, 100
1, 159840, Note_on_c, 9, 51, 100
1, 160079, Note_on_c, 9, 38, 0
1, 160079, Note_on_c, 9, 51, 0
1, 160160, Note_on_c, 9, 51, 70
1, 160319, Note_on_c, 9, 51, 0
1, 160320, Note_on_c, 9, 51, 100
1, 160320, Note_on_c, 9, 35, 90
1, 160799, Note_on_c, 9, 51, 0
1, 160799, Note_on_c, 9, 35, 0
1, 160800, Note_on_c, 9, 38, 100
1, 160800, Note_on_c, 9, 51, 100
1, 160959, Note_on_c, 9, 38, 0
1, 160959, Note_on_c, 9, 51, 0
1, 160960, Note_on_c, 9, 51, 60
1, 161119, Note_on_c, 9, 51, 0
1, 161120, Note_on_c, 9, 51, 70
1, 161120, Note_on_c, 9, 35, 90
1, 161279, Note_on_c, 9, 51, 0
1, 161279, Note_on_c, 9, 35, 0
1, 161280, Note_on_c, 9, 51, 100
1, 161280, Note_on_c, 9, 35, 100
1, 161759, Note_on_c, 9, 51, 0
1, 161759, Note_on_c, 9, 35, 0
1, 161760, Note_on_c, 9, 38, 100
1, 161760, Note_on_c, 9, 51, 100
1, 161999, Note_on_c, 9, 38, 0
1, 161999, Note_on_c, 9, 51, 0
1, 162080, Note_on_c, 9, 51, 70
1, 162239, Note_on_c, 9, 51, 0
1, 162240, Note_on_c, 9, 51, 100
1, 162240, Note_on_c, 9, 35, 90
1, 162719, Note_on_c, 9, 51, 0
1, 162719, Note_on_c, 9, 35, 0
1, 162720, Note_on_c, 9, 38, 100
1, 162720, Note_on_c, 9, 51, 100
1, 162959, Note_on_c, 9, 38, 0
1, 162959, Note_on_c, 9, 51, 0
1, 163040, Note_on_c, 9, 51, 70
1, 163199, Note_on_c, 9, 51, 0
1, 163200, Note_on_c, 9, 51, 100
1, 163200, Note_on_c, 9, 35, 100
1, 163679, Note_on_c, 9, 51, 0
1, 163679, Note_on_c, 9, 35, 0
1, 163680, Note_on_c, 9, 38, 100
1, 163680, Note_on_c, 9, 51, 100
1, 163919, Note_on_c, 9, 38, 0
1, 163919, Note_on_c, 9, 51, 0
1, 164000, Note_on_c, 9, 51, 70
1, 164159, Note_on_c, 9, 51, 0
1, 164160, Note_on_c, 9, 51, 100
1, 164160, Note_on_c, 9, 35, 90
1, 164639, Note_on_c, 9, 51, 0
1, 164639, Note_on_c, 9, 35, 0
1, 164640, Note_on_c, 9, 38, 100
1, 164640, Note_on_c, 9, 51, 100
1, 164799, Note_on_c, 9, 38, 0
1, 164799, Note_on_c, 9, 51, 0
1, 164800, Note_on_c, 9, 51, 60
1, 164959, Note_on_c, 9, 51, 0
1, 164960, Note_on_c, 9, 51, 70
1, 164960, Note_on_c, 9, 35, 90
1, 165119, Note_on_c, 9, 51, 0
1, 165119, Note_on_c, 9, 35, 0
1, 165120, Note_on_c, 9, 51, 100
1, 165120, Note_on_c, 9, 35, 100
1, 165599, Note_on_c, 9, 51, 0
1, 165599, Note_on_c, 9, 35, 0
1, 165600, Note_on_c, 9, 38, 100
1, 165600, Note_on_c, 9, 51, 100
1, 165839, Note_on_c, 9, 38, 0
1, 165839, Note_on_c, 9, 51, 0
1, 165920, Note_on_c, 9, 51, 70
1, 166079, Note_on_c, 9, 51, 0
1, 166080, Note_on_c, 9, 51, 100
1, 166080, Note_on_c, 9, 35, 90
1, 166559, Note_on_c, 9, 51, 0
1, 166559, Note_on_c, 9, 35, 0
1, 166560, Note_on_c, 9, 38, 100
1, 166560, Note_on_c, 9, 51, 100
1, 166799, Note_on_c, 9, 38, 0
1, 166799, Note_on_c, 9, 51, 0
1, 166880, Note_on_c, 9, 51, 70
1, 166880, Note_on_c, 9, 35, 90
1, 167039, Note_on_c, 9, 51, 0
1, 167039, Note_on_c, 9, 35, 0
1, 167040, Note_on_c, 9, 51, 100
1, 167040, Note_on_c, 9, 35, 100
1, 167519, Note_on_c, 9, 51, 0
1, 167519, Note_on_c, 9, 35, 0
1, 167520, Note_on_c, 9, 38, 100
1, 167520, Note_on_c, 9, 51, 100
1, 167759, Note_on_c, 9, 38, 0
1, 167759, Note_on_c, 9, 51, 0
1, 167840, Note_on_c, 9, 51, 70
1, 167999, Note_on_c, 9, 51, 0
1, 168000, Note_on_c, 9, 51, 100
1, 168000, Note_on_c, 9, 35, 90
1, 168479, Note_on_c, 9, 51, 0
1, 168479, Note_on_c, 9, 35, 0
1, 168480, Note_on_c, 9, 38, 100
1, 168480, Note_on_c, 9, 51, 100
1, 168719, Note_on_c, 9, 38, 0
1, 168719, Note_on_c, 9, 51, 0
1, 168800, Note_on_c, 9, 51, 70
1, 168959, Note_on_c, 9, 51, 0
1, 168960, Note_on_c, 9, 51, 100
1, 168960, Note_on_c, 9, 35, 100
1, 169439, Note_on_c, 9, 51, 0
1, 169439, Note_on_c, 9, 35, 0
1, 169440, Note_on_c, 9, 38, 100
1, 169440, Note_on_c, 9, 51, 100
1, 169679, Note_on_c, 9, 38, 0
1, 169679, Note_on_c, 9, 51, 0
1, 169760, Note_on_c, 9, 51, 70
1, 169919, Note_on_c, 9, 51, 0
1, 169920, Note_on_c, 9, 51, 100
1, 169920, Note_on_c, 9, 35, 90
1, 170399, Note_on_c, 9, 51, 0
1, 170399, Note_on_c, 9, 35, 0
1, 170400, Note_on_c, 9, 38, 100
1, 170400, Note_on_c, 9, 51, 100
1, 170639, Note_on_c, 9, 38, 0
1, 170639, Note_on_c, 9, 51, 0
1, 170720, Note_on_c, 9, 51, 70
1, 170720, Note_on_c, 9, 35, 90
1, 170879, Note_on_c, 9, 51, 0
1, 170879, Note_on_c, 9, 35, 0
1, 170880, Note_on_c, 9, 51, 100
1, 170880, Note_on_c, 9, 35, 100
1, 171119, Note_on_c, 9, 51, 0
1, 171200, Note_on_c, 9, 51, 70
1, 171359, Note_on_c, 9, 35, 0
1, 171359, Note_on_c, 9, 51, 0
1, 171360, Note_on_c, 9, 38, 100
1, 171360, Note_on_c, 9, 51, 100
1, 171599, Note_on_c, 9, 38, 0
1, 171599, Note_on_c, 9, 51, 0
1, 171680, Note_on_c, 9, 51, 70
1, 171839, Note_on_c, 9, 51, 0
1, 171840, Note_on_c, 9, 51, 100
1, 171840, Note_on_c, 9, 35, 90
1, 172319, Note_on_c, 9, 51, 0
1, 172319, Note_on_c, 9, 35, 0
1, 172320, Note_on_c, 9, 38, 100
1, 172320, Note_on_c, 9, 51, 100
1, 172559, Note_on_c, 9, 38, 0
1, 172559, Note_on_c, 9, 51, 0
1, 172640, Note_on_c, 9, 51, 70
1, 172640, Note_on_c, 9, 35, 90
1, 172799, Note_on_c, 9, 51, 0
1, 172799, Note_on_c, 9, 35, 0
1, 172800, Note_on_c, 9, 51, 100
1, 172800, Note_on_c, 9, 35, 100
1, 173279, Note_on_c, 9, 51, 0
1, 173279, Note_on_c, 9, 35, 0
1, 173280, Note_on_c, 9, 38, 100
1, 173280, Note_on_c, 9, 51, 100
1, 173519, Note_on_c, 9, 38, 0
1, 173519, Note_on_c, 9, 51, 0
1, 173600, Note_on_c, 9, 51, 70
1, 173759, Note_on_c, 9, 51, 0
1, 173760, Note_on_c, 9, 51, 100
1, 173760, Note_on_c, 9, 35, 90
1, 174239, Note_on_c, 9, 51, 0
1, 174239, Note_on_c, 9, 35, 0
1, 174240, Note_on_c, 9, 38, 100
1, 174240, Note_on_c, 9, 51, 100
1, 174479, Note_on_c, 9, 38, 0
1, 174479, Note_on_c, 9, 51, 0
1, 174560, Note_on_c, 9, 51, 70
1, 174560, Note_on_c, 9, 35, 90
1, 174719, Note_on_c, 9, 51, 0
1, 174719, Note_on_c, 9, 35, 0
1, 174720, Note_on_c, 9, 51, 100
1, 174720, Note_on_c, 9, 35, 100
1, 175199, Note_on_c, 9, 51, 0
1, 175199, Note_on_c, 9, 35, 0
1, 175200, Note_on_c, 9, 38, 100
1, 175200, Note_on_c, 9, 51, 100
1, 175439, Note_on_c, 9, 38, 0
1, 175439, Note_on_c, 9, 51, 0
1, 175520, Note_on_c, 9, 51, 70
1, 175679, Note_on_c, 9, 51, 0
1, 175680, Note_on_c, 9, 51, 100
1, 175680, Note_on_c, 9, 35, 90
1, 176159, Note_on_c, 9, 51, 0
1, 176159, Note_on_c, 9, 35, 0
1, 176160, Note_on_c, 9, 38, 100
1, 176160, Note_on_c, 9, 51, 100
1, 176319, Note_on_c, 9, 38, 0
1, 176319, Note_on_c, 9, 51, 0
1, 176320, Note_on_c, 9, 51, 60
1, 176479, Note_on_c, 9, 51, 0
1, 176480, Note_on_c, 9, 51, 70
1, 176639, Note_on_c, 9, 51, 0
1, 176640, Note_on_c, 9, 51, 100
1, 176640, Note_on_c, 9, 35, 100
1, 177119, Note_on_c, 9, 51, 0
1, 177119, Note_on_c, 9, 35, 0
1, 177120, Note_on_c, 9, 38, 100
1, 177120, Note_on_c, 9, 51, 100
1, 177359, Note_on_c, 9, 38, 0
1, 177359, Note_on_c, 9, 51, 0
1, 177440, Note_on_c, 9, 38, 80
1, 177440, Note_on_c, 9, 51, 70
1, 177599, Note_on_c, 9, 38, 0
1, 177599, Note_on_c, 9, 51, 0
1, 177600, Note_on_c, 9, 51, 100
1, 177600, Note_on_c, 9, 35, 90
1, 177839, Note_on_c, 9, 51, 0
1, 177920, Note_on_c, 9, 51, 70
1, 178079, Note_on_c, 9, 35, 0
1, 178079, Note_on_c, 9, 51, 0
1, 178080, Note_on_c, 9, 38, 100
1, 178080, Note_on_c, 9, 51, 100
1, 178319, Note_on_c, 9, 38, 0
1, 178319, Note_on_c, 9, 51, 0
1, 178400, Note_on_c, 9, 51, 70
1, 178559, Note_on_c, 9, 51, 0
1, 178560, Note_on_c, 9, 51, 100
1, 178560, Note_on_c, 9, 35, 100
1, 179039, Note_on_c, 9, 51, 0
1, 179039, Note_on_c, 9, 35, 0
1, 179040, Note_on_c, 9, 38, 100
1, 179040, Note_on_c, 9, 51, 100
1, 179279, Note_on_c, 9, 38, 0
1, 179279, Note_on_c, 9, 51, 0
1, 179360, Note_on_c, 9, 38, 80
1, 179360, Note_on_c, 9, 51, 70
1, 179519, Note_on_c, 9, 38, 0
1, 179519, Note_on_c, 9, 51, 0
1, 179520, Note_on_c, 9, 51, 100
1, 179520, Note_on_c, 9, 35, 90
1, 179999, Note_on_c, 9, 51, 0
1, 179999, Note_on_c, 9, 35, 0
1, 180000, Note_on_c, 9, 38, 100
1, 180000, Note_on_c, 9, 51, 100
1, 180239, Note_on_c, 9, 38, 0
1, 180239, Note_on_c, 9, 51, 0
1, 180320, Note_on_c, 9, 51, 70
1, 180320, Note_on_c, 9, 35, 90
1, 180479, Note_on_c, 9, 51, 0
1, 180479, Note_on_c, 9, 35, 0
1, 180480, Note_on_c, 9, 51, 100
1, 180480, Note_on_c, 9, 35, 100
1, 180959, Note_on_c, 9, 51, 0
1, 180959, Note_on_c, 9, 35, 0
1, 180960, Note_on_c, 9, 38, 100
1, 180960, Note_on_c, 9, 51, 100
1, 181199, Note_on_c, 9, 38, 0
1, 181199, Note_on_c, 9, 51, 0
1, 181280, Note_on_c, 9, 51, 70
1, 181439, Note_on_c, 9, 51, 0
1, 181440, Note_on_c, 9, 51, 100
1, 181440, Note_on_c, 9, 35, 90
1, 181919, Note_on_c, 9, 51, 0
1, 181919, Note_on_c, 9, 35, 0
1, 181920, Note_on_c, 9, 38, 100
1, 181920, Note_on_c, 9, 51, 100
1, 182079, Note_on_c, 9, 38, 0
1, 182079, Note_on_c, 9, 51, 0
1, 182080, Note_on_c, 9, 51, 60
1, 182239, Note_on_c, 9, 51, 0
1, 182240, Note_on_c, 9, 51, 70
1, 182240, Note_on_c, 9, 35, 90
1, 182399, Note_on_c, 9, 51, 0
1, 182399, Note_on_c, 9, 35, 0
1, 182400, Note_on_c, 9, 51, 100
1, 182400, Note_on_c, 9, 35, 100
1, 182879, Note_on_c, 9, 51, 0
1, 182879, Note_on_c, 9, 35, 0
1, 182880, Note_on_c, 9, 38, 100
1, 182880, Note_on_c, 9, 51, 100
1, 183119, Note_on_c, 9, 38, 0
1, 183119, Note_on_c, 9, 51, 0
1, 183200, Note_on_c, 9, 51, 70
1, 183359, Note_on_c, 9, 51, 0
1, 183360, Note_on_c, 9, 51, 100
1, 183360, Note_on_c, 9, 35, 90
1, 183839, Note_on_c, 9, 51, 0
1, 183839, Note_on_c, 9, 35, 0
1, 183840, Note_on_c, 9, 38, 100
1, 183840, Note_on_c, 9, 51, 100
1, 184079, Note_on_c, 9, 38, 0
1, 184079, Note_on_c, 9, 51, 0
1, 184160, Note_on_c, 9, 51, 70
1, 184160, Note_on_c, 9, 35, 90
1, 184319, Note_on_c, 9, 51, 0
1, 184319, Note_on_c, 9, 35, 0
1, 184320, Note_on_c, 9, 38, 110
1, 184320, Note_on_c, 9, 35, 100
1, 184479, Note_on_c, 9, 38, 0
1, 184480, Note_on_c, 9, 38, 70
1, 184639, Note_on_c, 9, 38, 0
1, 184640, Note_on_c, 9, 38, 60
1, 184799, Note_on_c, 9, 35, 0
1, 184799, Note_on_c, 9, 38, 0
1, 184800, Note_on_c, 9, 48, 110
1, 184800, Note_on_c, 9, 42, 100
1, 184959, Note_on_c, 9, 48, 0
1, 184959, Note_on_c, 9, 42, 0
1, 184960, Note_on_c, 9, 38, 70
1, 185119, Note_on_c, 9, 38, 0
1, 185120, Note_on_c, 9, 38, 60
1, 185279, Note_on_c, 9, 38, 0
1, 185280, Note_on_c, 9, 45, 110
1, 185439, Note_on_c, 9, 45, 0
1, 185440, Note_on_c, 9, 38, 60
1, 185599, Note_on_c, 9, 38, 0
1, 185600, Note_on_c, 9, 45, 100
1, 185759, Note_on_c, 9, 45, 0
1, 185760, Note_on_c, 9, 41, 110
1, 185760, Note_on_c, 9, 42, 100
1, 185919, Note_on_c, 9, 41, 0
1, 185919, Note_on_c, 9, 42, 0
1, 185920, Note_on_c, 9, 38, 60
1, 186079, Note_on_c, 9, 38, 0
1, 186080, Note_on_c, 9, 41, 100
1, 186239, Note_on_c, 9, 41, 0
1, 186240, Note_on_c, 9, 51, 100
1, 186240, Note_on_c, 9, 49, 90
1, 186240, Note_on_c, 9, 35, 100
1, 186719, Note_on_c, 9, 51, 0
1, 186719, Note_on_c, 9, 49, 0
1, 186719, Note_on_c, 9, 35, 0
1, 186720, Note_on_c, 9, 38, 100
1, 186720, Note_on_c, 9, 51, 100
1, 186720, Note_on_c, 9, 42, 100
1, 186959, Note_on_c, 9, 38, 0
1, 186959, Note_on_c, 9, 51, 0
1, 186959, Note_on_c, 9, 42, 0
1, 187040, Note_on_c, 9, 51, 70
1, 187199, Note_on_c, 9, 51, 0
1, 187200, Note_on_c, 9, 51, 100
1, 187200, Note_on_c, 9, 35, 90
1, 187679, Note_on_c, 9, 51, 0
1, 187679, Note_on_c, 9, 35, 0
1, 187680, Note_on_c, 9, 38, 100
1, 187680, Note_on_c, 9, 51, 100
1, 187680, Note_on_c, 9, 42, 100
1, 187919, Note_on_c, 9, 38, 0
1, 187919, Note_on_c, 9, 51, 0
1, 187919, Note_on_c, 9, 42, 0
1, 188000, Note_on_c, 9, 51, 70
1, 188159, Note_on_c, 9, 51, 0
1, 188160, Note_on_c, 9, 51, 100
1, 188160, Note_on_c, 9, 35, 100
1, 188639, Note_on_c, 9, 51, 0
1, 188639, Note_on_c, 9, 35, 0
1, 188640, Note_on_c, 9, 38, 100
1, 188640, Note_on_c, 9, 51, 100
1, 188879, Note_on_c, 9, 38, 0
1, 188879, Note_on_c, 9, 51, 0
1, 188960, Note_on_c, 9, 51, 70
1, 189119, Note_on_c, 9, 51, 0
1, 189120, Note_on_c, 9, 51, 100
1, 189120, Note_on_c, 9, 35, 90
1, 189599, Note_on_c, 9, 51, 0
1, 189599, Note_on_c, 9, 35, 0
1, 189600, Note_on_c, 9, 38, 100
1, 189600, Note_on_c, 9, 51, 100
1, 189839, Note_on_c, 9, 38, 0
1, 189839, Note_on_c, 9, 51, 0
1, 189920, Note_on_c, 9, 51, 70
1, 189920, Note_on_c, 9, 35, 90
1, 190079, Note_on_c, 9, 51, 0
1, 190079, Note_on_c, 9, 35, 0
1, 190080, Note_on_c, 9, 51, 100
1, 190080, Note_on_c, 9, 35, 100
1, 190319, Note_on_c, 9, 51, 0
1, 190400, Note_on_c, 9, 51, 70
1, 190559, Note_on_c, 9, 35, 0
1, 190559, Note_on_c, 9, 51, 0
1, 190560, Note_on_c, 9, 38, 100
1, 190560, Note_on_c, 9, 51, 100
1, 190799, Note_on_c, 9, 38, 0
1, 190799, Note_on_c, 9, 51, 0
1, 190880, Note_on_c, 9, 38, 80
1, 190880, Note_on_c, 9, 51, 70
1, 191039, Note_on_c, 9, 38, 0
1, 191039, Note_on_c, 9, 51, 0
1, 191040, Note_on_c, 9, 51, 100
1, 191040, Note_on_c, 9, 35, 90
1, 191519, Note_on_c, 9, 51, 0
1, 191519, Note_on_c, 9, 35, 0
1, 191520, Note_on_c, 9, 38, 100
1, 191520, Note_on_c, 9, 51, 100
1, 191759, Note_on_c, 9, 38, 0
1, 191759, Note_on_c, 9, 51, 0
1, 191840, Note_on_c, 9, 38, 64
1, 191840, Note_on_c, 9, 51, 70
1, 191999, Note_on_c, 9, 38, 0
1, 191999, Note_on_c, 9, 51, 0
1, 192000, Note_on_c, 9, 51, 100
1, 192000, Note_on_c, 9, 35, 100
1, 192479, Note_on_c, 9, 51, 0
1, 192479, Note_on_c, 9, 35, 0
1, 192480, Note_on_c, 9, 38, 100
1, 192480, Note_on_c, 9, 51, 100
1, 192719, Note_on_c, 9, 38, 0
1, 192719, Note_on_c, 9, 51, 0
1, 192800, Note_on_c, 9, 51, 70
1, 192959, Note_on_c, 9, 51, 0
1, 192960, Note_on_c, 9, 51, 100
1, 192960, Note_on_c, 9, 35, 90
1, 193439, Note_on_c, 9, 51, 0
1, 193439, Note_on_c, 9, 35, 0
1, 193440, Note_on_c, 9, 38, 100
1, 193440, Note_on_c, 9, 51, 100
1, 193679, Note_on_c, 9, 38, 0
1, 193679, Note_on_c, 9, 51, 0
1, 193760, Note_on_c, 9, 51, 70
1, 193760, Note_on_c, 9, 35, 90
1, 193919, Note_on_c, 9, 51, 0
1, 193919, Note_on_c, 9, 35, 0
1, 193920, Note_on_c, 9, 51, 100
1, 193920, Note_on_c, 9, 35, 100
1, 194399, Note_on_c, 9, 51, 0
1, 194399, Note_on_c, 9, 35, 0
1, 194400, Note_on_c, 9, 38, 100
1, 194400, Note_on_c, 9, 51, 100
1, 194639, Note_on_c, 9, 38, 0
1, 194639, Note_on_c, 9, 51, 0
1, 194720, Note_on_c, 9, 51, 70
1, 194879, Note_on_c, 9, 51, 0
1, 194880, Note_on_c, 9, 51, 100
1, 194880, Note_on_c, 9, 35, 90
1, 195359, Note_on_c, 9, 51, 0
1, 195359, Note_on_c, 9, 35, 0
1, 195360, Note_on_c, 9, 38, 100
1, 195360, Note_on_c, 9, 51, 100
1, 195599, Note_on_c, 9, 38, 0
1, 195599, Note_on_c, 9, 51, 0
1, 195680, Note_on_c, 9, 51, 70
1, 195680, Note_on_c, 9, 35, 90
1, 195839, Note_on_c, 9, 51, 0
1, 195839, Note_on_c, 9, 35, 0
1, 195840, Note_on_c, 9, 51, 100
1, 195840, Note_on_c, 9, 35, 100
1, 196319, Note_on_c, 9, 51, 0
1, 196319, Note_on_c, 9, 35, 0
1, 196320, Note_on_c, 9, 38, 100
1, 196320, Note_on_c, 9, 51, 100
1, 196559, Note_on_c, 9, 38, 0
1, 196559, Note_on_c, 9, 51, 0
1, 196640, Note_on_c, 9, 38, 80
1, 196640, Note_on_c, 9, 51, 70
1, 196799, Note_on_c, 9, 38, 0
1, 196799, Note_on_c, 9, 51, 0
1, 196800, Note_on_c, 9, 51, 100
1, 196800, Note_on_c, 9, 35, 90
1, 197039, Note_on_c, 9, 51, 0
1, 197120, Note_on_c, 9, 51, 70
1, 197279, Note_on_c, 9, 35, 0
1, 197279, Note_on_c, 9, 51, 0
1, 197280, Note_on_c, 9, 38, 100
1, 197280, Note_on_c, 9, 51, 100
1, 197519, Note_on_c, 9, 38, 0
1, 197519, Note_on_c, 9, 51, 0
1, 197600, Note_on_c, 9, 38, 64
1, 197600, Note_on_c, 9, 51, 70
1, 197759, Note_on_c, 9, 38, 0
1, 197759, Note_on_c, 9, 51, 0
1, 197760, Note_on_c, 9, 51, 100
1, 197760, Note_on_c, 9, 35, 100
1, 198239, Note_on_c, 9, 51, 0
1, 198239, Note_on_c, 9, 35, 0
1, 198240, Note_on_c, 9, 38, 100
1, 198240, Note_on_c, 9, 51, 100
1, 198479, Note_on_c, 9, 38, 0
1, 198479, Note_on_c, 9, 51, 0
1, 198560, Note_on_c, 9, 51, 70
1, 198719, Note_on_c, 9, 51, 0
1, 198720, Note_on_c, 9, 51, 100
1, 198720, Note_on_c, 9, 35, 90
1, 199199, Note_on_c, 9, 51, 0
1, 199199, Note_on_c, 9, 35, 0
1, 199200, Note_on_c, 9, 38, 100
1, 199200, Note_on_c, 9, 51, 100
1, 199439, Note_on_c, 9, 38, 0
1, 199439, Note_on_c, 9, 51, 0
1, 199520, Note_on_c, 9, 51, 70
1, 199520, Note_on_c, 9, 35, 90
1, 199679, Note_on_c, 9, 51, 0
1, 199679, Note_on_c, 9, 35, 0
1, 199680, Note_on_c, 9, 51, 100
1, 199680, Note_on_c, 9, 35, 100
1, 200159, Note_on_c, 9, 51, 0
1, 200159, Note_on_c, 9, 35, 0
1, 200160, Note_on_c, 9, 38, 100
1, 200160, Note_on_c, 9, 51, 100
1, 200399, Note_on_c, 9, 38, 0
1, 200399, Note_on_c, 9, 51, 0
1, 200480, Note_on_c, 9, 51, 70
1, 200639, Note_on_c, 9, 51, 0
1, 200640, Note_on_c, 9, 51, 100
1, 200640, Note_on_c, 9, 35, 90
1, 201119, Note_on_c, 9, 51, 0
1, 201119, Note_on_c, 9, 35, 0
1, 201120, Note_on_c, 9, 38, 100
1, 201120, Note_on_c, 9, 51, 100
1, 201359, Note_on_c, 9, 38, 0
1, 201359, Note_on_c, 9, 51, 0
1, 201440, Note_on_c, 9, 51, 70
1, 201440, Note_on_c, 9, 35, 90
1, 201599, Note_on_c, 9, 51, 0
1, 201599, Note_on_c, 9, 35, 0
1, 201600, Note_on_c, 9, 51, 100
1, 201600, Note_on_c, 9, 35, 100
1, 202079, Note_on_c, 9, 51, 0
1, 202079, Note_on_c, 9, 35, 0
1, 202080, Note_on_c, 9, 38, 100
1, 202080, Note_on_c, 9, 51, 100
1, 202319, Note_on_c, 9, 38, 0
1, 202319, Note_on_c, 9, 51, 0
1, 202400, Note_on_c, 9, 38, 80
1, 202400, Note_on_c, 9, 51, 70
1, 202559, Note_on_c, 9, 38, 0
1, 202559, Note_on_c, 9, 51, 0
1, 202560, Note_on_c, 9, 51, 100
1, 202560, Note_on_c, 9, 35, 90
1, 203039, Note_on_c, 9, 51, 0
1, 203039, Note_on_c, 9, 35, 0
1, 203040, Note_on_c, 9, 38, 100
1, 203040, Note_on_c, 9, 51, 100
1, 203279, Note_on_c, 9, 38, 0
1, 203279, Note_on_c, 9, 51, 0
1, 203360, Note_on_c, 9, 51, 70
1, 203360, Note_on_c, 9, 35, 90
1, 203519, Note_on_c, 9, 51, 0
1, 203519, Note_on_c, 9, 35, 0
1, 203520, Note_on_c, 9, 51, 100
1, 203520, Note_on_c, 9, 35, 100
1, 203999, Note_on_c, 9, 51, 0
1, 203999, Note_on_c, 9, 35, 0
1, 204000, Note_on_c, 9, 38, 100
1, 204000, Note_on_c, 9, 51, 100
1, 204239, Note_on_c, 9, 38, 0
1, 204239, Note_on_c, 9, 51, 0
1, 204320, Note_on_c, 9, 51, 70
1, 204479, Note_on_c, 9, 51, 0
1, 204480, Note_on_c, 9, 51, 100
1, 204480, Note_on_c, 9, 35, 90
1, 204959, Note_on_c, 9, 51, 0
1, 204959, Note_on_c, 9, 35, 0
1, 204960, Note_on_c, 9, 38, 100
1, 204960, Note_on_c, 9, 51, 100
1, 205119, Note_on_c, 9, 38, 0
1, 205119, Note_on_c, 9, 51, 0
1, 205120, Note_on_c, 9, 51, 60
1, 205279, Note_on_c, 9, 51, 0
1, 205280, Note_on_c, 9, 51, 70
1, 205439, Note_on_c, 9, 51, 0
1, 205440, Note_on_c, 9, 51, 100
1, 205440, Note_on_c, 9, 35, 100
1, 205919, Note_on_c, 9, 51, 0
1, 205919, Note_on_c, 9, 35, 0
1, 205920, Note_on_c, 9, 38, 100
1, 205920, Note_on_c, 9, 51, 100
1, 206159, Note_on_c, 9, 38, 0
1, 206159, Note_on_c, 9, 51, 0
1, 206240, Note_on_c, 9, 51, 70
1, 206399, Note_on_c, 9, 51, 0
1, 206400, Note_on_c, 9, 51, 100
1, 206400, Note_on_c, 9, 35, 90
1, 206879, Note_on_c, 9, 51, 0
1, 206879, Note_on_c, 9, 35, 0
1, 206880, Note_on_c, 9, 38, 100
1, 206880, Note_on_c, 9, 51, 100
1, 207039, Note_on_c, 9, 38, 0
1, 207039, Note_on_c, 9, 51, 0
1, 207040, Note_on_c, 9, 51, 60
1, 207199, Note_on_c, 9, 51, 0
1, 207200, Note_on_c, 9, 51, 70
1, 207200, Note_on_c, 9, 35, 90
1, 207359, Note_on_c, 9, 51, 0
1, 207359, Note_on_c, 9, 35, 0
1, 207360, Note_on_c, 9, 51, 100
1, 207360, Note_on_c, 9, 35, 100
1, 207839, Note_on_c, 9, 51, 0
1, 207839, Note_on_c, 9, 35, 0
1, 207840, Note_on_c, 9, 38, 100
1, 207840, Note_on_c, 9, 51, 100
1, 208079, Note_on_c, 9, 38, 0
1, 208079, Note_on_c, 9, 51, 0
1, 208160, Note_on_c, 9, 51, 70
1, 208319, Note_on_c, 9, 51, 0
1, 208320, Note_on_c, 9, 51, 100
1, 208320, Note_on_c, 9, 35, 90
1, 208799, Note_on_c, 9, 51, 0
1, 208799, Note_on_c, 9, 35, 0
1, 208800, Note_on_c, 9, 38, 100
1, 208800, Note_on_c, 9, 51, 100
1, 209039, Note_on_c, 9, 38, 0
1, 209039, Note_on_c, 9, 51, 0
1, 209120, Note_on_c, 9, 51, 70
1, 209120, Note_on_c, 9, 35, 90
1, 209279, Note_on_c, 9, 51, 0
1, 209279, Note_on_c, 9, 35, 0
1, 209280, Note_on_c, 9, 51, 100
1, 209280, Note_on_c, 9, 35, 100
1, 209519, Note_on_c, 9, 51, 0
1, 209600, Note_on_c, 9, 53, 70
1, 209759, Note_on_c, 9, 35, 0
1, 209759, Note_on_c, 9, 53, 0
1, 209760, Note_on_c, 9, 40, 100
1, 209760, Note_on_c, 9, 53, 100
1, 209999, Note_on_c, 9, 40, 0
1, 209999, Note_on_c, 9, 53, 0
1, 210080, Note_on_c, 9, 53, 70
1, 210239, Note_on_c, 9, 53, 0
1, 210240, Note_on_c, 9, 37, 90
1, 210240, Note_on_c, 9, 53, 100
1, 210719, Note_on_c, 9, 37, 0
1, 210719, Note_on_c, 9, 53, 0
1, 210720, Note_on_c, 9, 40, 100
1, 210720, Note_on_c, 9, 53, 100
1, 210879, Note_on_c, 9, 40, 0
1, 210879, Note_on_c, 9, 53, 0
1, 210880, Note_on_c, 9, 53, 60
1, 211039, Note_on_c, 9, 53, 0
1, 211040, Note_on_c, 9, 53, 70
1, 211199, Note_on_c, 9, 53, 0
1, 211200, Note_on_c, 9, 37, 100
1, 211200, Note_on_c, 9, 53, 100
1, 211679, Note_on_c, 9, 37, 0
1, 211679, Note_on_c, 9, 53, 0
1, 211680, Note_on_c, 9, 40, 100
1, 211680, Note_on_c, 9, 53, 100
1, 211919, Note_on_c, 9, 40, 0
1, 211919, Note_on_c, 9, 53, 0
1, 212000, Note_on_c, 9, 53, 70
1, 212159, Note_on_c, 9, 53, 0
1, 212160, Note_on_c, 9, 37, 90
1, 212160, Note_on_c, 9, 53, 100
1, 212639, Note_on_c, 9, 37, 0
1, 212639, Note_on_c, 9, 53, 0
1, 212640, Note_on_c, 9, 40, 100
1, 212640, Note_on_c, 9, 53, 100
1, 212879, Note_on_c, 9, 40, 0
1, 212879, Note_on_c, 9, 53, 0
1, 212960, Note_on_c, 9, 53, 70
1, 213119, Note_on_c, 9, 53, 0
1, 213120, Note_on_c, 9, 37, 100
1, 213120, Note_on_c, 9, 53, 100
1, 213599, Note_on_c, 9, 37, 0
1, 213599, Note_on_c, 9, 53, 0
1, 213600, Note_on_c, 9, 40, 100
1, 213600, Note_on_c, 9, 53, 100
1, 213839, Note_on_c, 9, 40, 0
1, 213839, Note_on_c, 9, 53, 0
1, 213920, Note_on_c, 9, 53, 70
1, 214079, Note_on_c, 9, 53, 0
1, 214080, Note_on_c, 9, 37, 90
1, 214080, Note_on_c, 9, 53, 100
1, 214559, Note_on_c, 9, 37, 0
1, 214559, Note_on_c, 9, 53, 0
1, 214560, Note_on_c, 9, 40, 100
1, 214560, Note_on_c, 9, 53, 100
1, 214799, Note_on_c, 9, 40, 0
1, 214799, Note_on_c, 9, 53, 0
1, 214880, Note_on_c, 9, 53, 70
1, 215039, Note_on_c, 9, 53, 0
1, 215040, Note_on_c, 9, 37, 100
1, 215040, Note_on_c, 9, 53, 100
1, 215519, Note_on_c, 9, 37, 0
1, 215519, Note_on_c, 9, 53, 0
1, 215520, Note_on_c, 9, 40, 100
1, 215520, Note_on_c, 9, 53, 100
1, 215759, Note_on_c, 9, 40, 0
1, 215759, Note_on_c, 9, 53, 0
1, 215840, Note_on_c, 9, 53, 70
1, 215999, Note_on_c, 9, 53, 0
1, 216000, Note_on_c, 9, 37, 90
1, 216000, Note_on_c, 9, 53, 100
1, 216479, Note_on_c, 9, 37, 0
1, 216479, Note_on_c, 9, 53, 0
1, 216480, Note_on_c, 9, 40, 100
1, 216480, Note_on_c, 9, 53, 100
1, 216719, Note_on_c, 9, 40, 0
1, 216719, Note_on_c, 9, 53, 0
1, 216800, Note_on_c, 9, 37, 90
1, 216800, Note_on_c, 9, 53, 70
1, 216959, Note_on_c, 9, 37, 0
1, 216959, Note_on_c, 9, 53, 0
1, 216960, Note_on_c, 9, 37, 100
1, 216960, Note_on_c, 9, 53, 100
1, 217199, Note_on_c, 9, 37, 0
1, 217199, Note_on_c, 9, 53, 0
1, 217280, Note_on_c, 9, 53, 70
1, 217439, Note_on_c, 9, 53, 0
1, 217440, Note_on_c, 9, 40, 100
1, 217440, Note_on_c, 9, 53, 100
1, 217679, Note_on_c, 9, 40, 0
1, 217679, Note_on_c, 9, 53, 0
1, 217760, Note_on_c, 9, 53, 70
1, 217919, Note_on_c, 9, 53, 0
1, 217920, Note_on_c, 9, 37, 90
1, 217920, Note_on_c, 9, 53, 100
1, 218399, Note_on_c, 9, 37, 0
1, 218399, Note_on_c, 9, 53, 0
1, 218400, Note_on_c, 9, 40, 100
1, 218400, Note_on_c, 9, 53, 100
1, 218639, Note_on_c, 9, 40, 0
1, 218639, Note_on_c, 9, 53, 0
1, 218720, Note_on_c, 9, 37, 90
1, 218720, Note_on_c, 9, 53, 70
1, 218879, Note_on_c, 9, 37, 0
1, 218879, Note_on_c, 9, 53, 0
1, 218880, Note_on_c, 9, 37, 100
1, 218880, Note_on_c, 9, 53, 100
1, 219359, Note_on_c, 9, 37, 0
1, 219359, Note_on_c, 9, 53, 0
1, 219360, Note_on_c, 9, 40, 100
1, 219360, Note_on_c, 9, 53, 100
1, 219599, Note_on_c, 9, 40, 0
1, 219599, Note_on_c, 9, 53, 0
1, 219680, Note_on_c, 9, 53, 70
1, 219839, Note_on_c, 9, 53, 0
1, 219840, Note_on_c, 9, 37, 90
1, 219840, Note_on_c, 9, 53, 100
1, 220319, Note_on_c, 9, 37, 0
1, 220319, Note_on_c, 9, 53, 0
1, 220320, Note_on_c, 9, 40, 100
1, 220320, Note_on_c, 9, 53, 100
1, 220559, Note_on_c, 9, 40, 0
1, 220559, Note_on_c, 9, 53, 0
1, 220640, Note_on_c, 9, 40, 64
1, 220640, Note_on_c, 9, 53, 70
1, 220799, Note_on_c, 9, 40, 0
1, 220799, Note_on_c, 9, 53, 0
1, 220800, Note_on_c, 9, 37, 100
1, 220800, Note_on_c, 9, 53, 100
1, 221279, Note_on_c, 9, 37, 0
1, 221279, Note_on_c, 9, 53, 0
1, 221280, Note_on_c, 9, 40, 100
1, 221280, Note_on_c, 9, 53, 100
1, 221519, Note_on_c, 9, 40, 0
1, 221519, Note_on_c, 9, 53, 0
1, 221600, Note_on_c, 9, 53, 70
1, 221759, Note_on_c, 9, 53, 0
1, 221760, Note_on_c, 9, 37, 90
1, 221760, Note_on_c, 9, 53, 100
1, 222239, Note_on_c, 9, 37, 0
1, 222239, Note_on_c, 9, 53, 0
1, 222240, Note_on_c, 9, 40, 100
1, 222240, Note_on_c, 9, 53, 100
1, 222479, Note_on_c, 9, 40, 0
1, 222479, Note_on_c, 9, 53, 0
1, 222560, Note_on_c, 9, 53, 70
1, 222719, Note_on_c, 9, 53, 0
1, 222720, Note_on_c, 9, 37, 100
1, 222720, Note_on_c, 9, 53, 100
1, 223199, Note_on_c, 9, 37, 0
1, 223199, Note_on_c, 9, 53, 0
1, 223200, Note_on_c, 9, 40, 100
1, 223200, Note_on_c, 9, 53, 100
1, 223439, Note_on_c, 9, 40, 0
1, 223439, Note_on_c, 9, 53, 0
1, 223520, Note_on_c, 9, 53, 70
1, 223679, Note_on_c, 9, 53, 0
1, 223680, Note_on_c, 9, 37, 90
1, 223680, Note_on_c, 9, 53, 100
1, 224159, Note_on_c, 9, 37, 0
1, 224159, Note_on_c, 9, 53, 0
1, 224160, Note_on_c, 9, 40, 100
1, 224160, Note_on_c, 9, 53, 100
1, 224319, Note_on_c, 9, 40, 0
1, 224319, Note_on_c, 9, 53, 0
1, 224320, Note_on_c, 9, 53, 60
1, 224479, Note_on_c, 9, 53, 0
1, 224480, Note_on_c, 9, 53, 70
1, 224639, Note_on_c, 9, 53, 0
1, 224640, Note_on_c, 9, 37, 100
1, 224640, Note_on_c, 9, 53, 100
1, 225119, Note_on_c, 9, 37, 0
1, 225119, Note_on_c, 9, 53, 0
1, 225120, Note_on_c, 9, 40, 100
1, 225120, Note_on_c, 9, 53, 100
1, 225359, Note_on_c, 9, 40, 0
1, 225359, Note_on_c, 9, 53, 0
1, 225440, Note_on_c, 9, 53, 70
1, 225599, Note_on_c, 9, 53, 0
1, 225600, Note_on_c, 9, 37, 90
1, 225600, Note_on_c, 9, 53, 100
1, 226079, Note_on_c, 9, 37, 0
1, 226079, Note_on_c, 9, 53, 0
1, 226080, Note_on_c, 9, 40, 100
1, 226080, Note_on_c, 9, 53, 100
1, 226319, Note_on_c, 9, 40, 0
1, 226319, Note_on_c, 9, 53, 0
1, 226400, Note_on_c, 9, 53, 70
1, 226559, Note_on_c, 9, 53, 0
1, 226560, Note_on_c, 9, 37, 100
1, 226560, Note_on_c, 9, 53, 100
1, 227039, Note_on_c, 9, 37, 0
1, 227039, Note_on_c, 9, 53, 0
1, 227040, Note_on_c, 9, 40, 100
1, 227040, Note_on_c, 9, 53, 100
1, 227279, Note_on_c, 9, 40, 0
1, 227279, Note_on_c, 9, 53, 0
1, 227360, Note_on_c, 9, 53, 70
1, 227519, Note_on_c, 9, 53, 0
1, 227520, Note_on_c, 9, 37, 90
1, 227520, Note_on_c, 9, 53, 100
1, 227999, Note_on_c, 9, 37, 0
1, 227999, Note_on_c, 9, 53, 0
1, 228000, Note_on_c, 9, 40, 100
1, 228000, Note_on_c, 9, 53, 100
1, 228239, Note_on_c, 9, 40, 0
1, 228239, Note_on_c, 9, 53, 0
1, 228320, Note_on_c, 9, 37, 90
1, 228320, Note_on_c, 9, 53, 70
1, 228479, Note_on_c, 9, 37, 0
1, 228479, Note_on_c, 9, 53, 0
1, 228480, Note_on_c, 9, 37, 100
1, 228480, Note_on_c, 9, 53, 100
1, 228959, Note_on_c, 9, 37, 0
1, 228959, Note_on_c, 9, 53, 0
1, 228960, Note_on_c, 9, 40, 100
1, 228960, Note_on_c, 9, 53, 100
1, 229199, Note_on_c, 9, 40, 0
1, 229199, Note_on_c, 9, 53, 0
1, 229280, Note_on_c, 9, 53, 70
1, 229439, Note_on_c, 9, 53, 0
1, 229440, Note_on_c, 9, 37, 90
1, 229440, Note_on_c, 9, 53, 100
1, 229919, Note_on_c, 9, 37, 0
1, 229919, Note_on_c, 9, 53, 0
1, 229920, Note_on_c, 9, 40, 100
1, 229920, Note_on_c, 9, 53, 100
1, 230159, Note_on_c, 9, 40, 0
1, 230159, Note_on_c, 9, 53, 0
1, 230240, Note_on_c, 9, 37, 90
1, 230240, Note_on_c, 9, 53, 70
1, 230399, Note_on_c, 9, 37, 0
1, 230399, Note_on_c, 9, 53, 0
1, 230400, Note_on_c, 9, 37, 100
1, 230400, Note_on_c, 9, 40, 110
1, 230879, Note_on_c, 9, 37, 0
1, 230879, Note_on_c, 9, 40, 0
1, 230880, Note_on_c, 9, 44, 100
1, 231359, Note_on_c, 9, 44, 0
1, 231680, Note_on_c, 9, 40, 100
1, 231839, Note_on_c, 9, 40, 0
1, 231840, Note_on_c, 9, 40, 110
1, 231840, Note_on_c, 9, 44, 100
1, 232079, Note_on_c, 9, 40, 0
1, 232160, Note_on_c, 9, 40, 60
1, 232319, Note_on_c, 9, 44, 0
1, 232319, Note_on_c, 9, 40, 0
1, 232320, Note_on_c, 9, 37, 100
1, 232320, Note_on_c, 9, 51, 90
1, 232320, Note_on_c, 9, 53, 100
1, 232799, Note_on_c, 9, 37, 0
1, 232799, Note_on_c, 9, 51, 0
1, 232799, Note_on_c, 9, 53, 0
1, 232800, Note_on_c, 9, 40, 100
1, 232800, Note_on_c, 9, 53, 100
1, 232800, Note_on_c, 9, 44, 100
1, 233039, Note_on_c, 9, 40, 0
1, 233039, Note_on_c, 9, 53, 0
1, 233120, Note_on_c, 9, 53, 70
1, 233279, Note_on_c, 9, 44, 0
1, 233279, Note_on_c, 9, 53, 0
1, 233280, Note_on_c, 9, 37, 90
1, 233280, Note_on_c, 9, 53, 100
1, 233759, Note_on_c, 9, 37, 0
1, 233759, Note_on_c, 9, 53, 0
1, 233760, Note_on_c, 9, 40, 100
1, 233760, Note_on_c, 9, 53, 100
1, 233760, Note_on_c, 9, 44, 100
1, 233999, Note_on_c, 9, 40, 0
1, 233999, Note_on_c, 9, 53, 0
1, 234080, Note_on_c, 9, 53, 70
1, 234239, Note_on_c, 9, 44, 0
1, 234239, Note_on_c, 9, 53, 0
1, 234240, Note_on_c, 9, 37, 100
1, 234240, Note_on_c, 9, 53, 100
1, 234719, Note_on_c, 9, 37, 0
1, 234719, Note_on_c, 9, 53, 0
1, 234720, Note_on_c, 9, 40, 100
1, 234720, Note_on_c, 9, 53, 100
1, 234959, Note_on_c, 9, 40, 0
1, 234959, Note_on_c, 9, 53, 0
1, 235040, Note_on_c, 9, 40, 80
1, 235040, Note_on_c, 9, 53, 70
1, 235199, Note_on_c, 9, 40, 0
1, 235199, Note_on_c, 9, 53, 0
1, 235200, Note_on_c, 9, 37, 90
1, 235200, Note_on_c, 9, 53, 100
1, 235439, Note_on_c, 9, 37, 0
1, 235439, Note_on_c, 9, 53, 0
1, 235520, Note_on_c, 9, 53, 70
1, 235679, Note_on_c, 9, 53, 0
1, 235680, Note_on_c, 9, 40, 100
1, 235680, Note_on_c, 9, 53, 100
1, 235919, Note_on_c, 9, 40, 0
1, 235919, Note_on_c, 9, 53, 0
1, 236000, Note_on_c, 9, 37, 90
1, 236000, Note_on_c, 9, 53, 70
1, 236159, Note_on_c, 9, 37, 0
1, 236159, Note_on_c, 9, 53, 0
1, 236160, Note_on_c, 9, 37, 100
1, 236160, Note_on_c, 9, 53, 100
1, 236639, Note_on_c, 9, 37, 0
1, 236639, Note_on_c, 9, 53, 0
1, 236640, Note_on_c, 9, 40, 100
1, 236640, Note_on_c, 9, 53, 100
1, 236879, Note_on_c, 9, 40, 0
1, 236879, Note_on_c, 9, 53, 0
1, 236960, Note_on_c, 9, 53, 70
1, 237119, Note_on_c, 9, 53, 0
1, 237120, Note_on_c, 9, 37, 90
1, 237120, Note_on_c, 9, 53, 100
1, 237599, Note_on_c, 9, 37, 0
1, 237599, Note_on_c, 9, 53, 0
1, 237600, Note_on_c, 9, 40, 100
1, 237600, Note_on_c, 9, 53, 100
1, 237839, Note_on_c, 9, 40, 0
1, 237839, Note_on_c, 9, 53, 0
1, 237920, Note_on_c, 9, 53, 70
1, 238079, Note_on_c, 9, 53, 0
1, 238080, Note_on_c, 9, 37, 100
1, 238080, Note_on_c, 9, 53, 100
1, 238559, Note_on_c, 9, 37, 0
1, 238559, Note_on_c, 9, 53, 0
1, 238560, Note_on_c, 9, 40, 100
1, 238560, Note_on_c, 9, 53, 100
1, 238799, Note_on_c, 9, 40, 0
1, 238799, Note_on_c, 9, 53, 0
1, 238880, Note_on_c, 9, 53, 70
1, 239039, Note_on_c, 9, 53, 0
1, 239040, Note_on_c, 9, 37, 90
1, 239040, Note_on_c, 9, 53, 100
1, 239519, Note_on_c, 9, 37, 0
1, 239519, Note_on_c, 9, 53, 0
1, 239520, Note_on_c, 9, 40, 100
1, 239520, Note_on_c, 9, 53, 100
1, 239759, Note_on_c, 9, 40, 0
1, 239759, Note_on_c, 9, 53, 0
1, 239840, Note_on_c, 9, 37, 90
1, 239840, Note_on_c, 9, 53, 70
1, 239999, Note_on_c, 9, 37, 0
1, 239999, Note_on_c, 9, 53, 0
1, 240000, Note_on_c, 9, 37, 100
1, 240000, Note_on_c, 9, 53, 100
1, 240479, Note_on_c, 9, 37, 0
1, 240479, Note_on_c, 9, 53, 0
1, 240480, Note_on_c, 9, 40, 100
1, 240480, Note_on_c, 9, 53, 100
1, 240719, Note_on_c, 9, 40, 0
1, 240719, Note_on_c, 9, 53, 0
1, 240800, Note_on_c, 9, 53, 70
1, 240959, Note_on_c, 9, 53, 0
1, 240960, Note_on_c, 9, 37, 90
1, 240960, Note_on_c, 9, 53, 100
1, 241439, Note_on_c, 9, 37, 0
1, 241439, Note_on_c, 9, 53, 0
1, 241440, Note_on_c, 9, 40, 100
1, 241440, Note_on_c, 9, 53, 100
1, 241679, Note_on_c, 9, 40, 0
1, 241679, Note_on_c, 9, 53, 0
1, 241760, Note_on_c, 9, 40, 64
1, 241760, Note_on_c, 9, 53, 70
1, 241919, Note_on_c, 9, 40, 0
1, 241919, Note_on_c, 9, 53, 0
1, 241920, Note_on_c, 9, 37, 100
1, 241920, Note_on_c, 9, 53, 100
1, 242399, Note_on_c, 9, 37, 0
1, 242399, Note_on_c, 9, 53, 0
1, 242400, Note_on_c, 9, 40, 100
1, 242400, Note_on_c, 9, 53, 100
1, 242639, Note_on_c, 9, 40, 0
1, 242639, Note_on_c, 9, 53, 0
1, 242720, Note_on_c, 9, 53, 70
1, 242879, Note_on_c, 9, 53, 0
1, 242880, Note_on_c, 9, 37, 90
1, 242880, Note_on_c, 9, 53, 100
1, 243359, Note_on_c, 9, 37, 0
1, 243359, Note_on_c, 9, 53, 0
1, 243360, Note_on_c, 9, 40, 100
1, 243360, Note_on_c, 9, 53, 100
1, 243599, Note_on_c, 9, 40, 0
1, 243599, Note_on_c, 9, 53, 0
1, 243680, Note_on_c, 9, 37, 90
1, 243680, Note_on_c, 9, 53, 70
1, 243839, Note_on_c, 9, 37, 0
1, 243839, Note_on_c, 9, 53, 0
1, 243840, Note_on_c, 9, 37, 100
1, 243840, Note_on_c, 9, 53, 100
1, 244319, Note_on_c, 9, 37, 0
1, 244319, Note_on_c, 9, 53, 0
1, 244320, Note_on_c, 9, 40, 100
1, 244320, Note_on_c, 9, 53, 100
1, 244559, Note_on_c, 9, 40, 0
1, 244559, Note_on_c, 9, 53, 0
1, 244640, Note_on_c, 9, 53, 70
1, 244799, Note_on_c, 9, 53, 0
1, 244800, Note_on_c, 9, 37, 90
1, 244800, Note_on_c, 9, 53, 100
1, 245279, Note_on_c, 9, 37, 0
1, 245279, Note_on_c, 9, 53, 0
1, 245280, Note_on_c, 9, 40, 100
1, 245280, Note_on_c, 9, 53, 100
1, 245519, Note_on_c, 9, 40, 0
1, 245519, Note_on_c, 9, 53, 0
1, 245600, Note_on_c, 9, 37, 90
1, 245600, Note_on_c, 9, 53, 70
1, 245759, Note_on_c, 9, 37, 0
1, 245759, Note_on_c, 9, 53, 0
1, 245760, Note_on_c, 9, 37, 100
1, 245760, Note_on_c, 9, 53, 100
1, 246239, Note_on_c, 9, 37, 0
1, 246239, Note_on_c, 9, 53, 0
1, 246240, Note_on_c, 9, 40, 100
1, 246240, Note_on_c, 9, 53, 100
1, 246479, Note_on_c, 9, 40, 0
1, 246479, Note_on_c, 9, 53, 0
1, 246560, Note_on_c, 9, 53, 70
1, 246719, Note_on_c, 9, 53, 0
1, 246720, Note_on_c, 9, 37, 90
1, 246720, Note_on_c, 9, 53, 100
1, 247199, Note_on_c, 9, 37, 0
1, 247199, Note_on_c, 9, 53, 0
1, 247200, Note_on_c, 9, 40, 100
1, 247200, Note_on_c, 9, 53, 100
1, 247439, Note_on_c, 9, 40, 0
1, 247439, Note_on_c, 9, 53, 0
1, 247520, Note_on_c, 9, 37, 90
1, 247520, Note_on_c, 9, 53, 70
1, 247679, Note_on_c, 9, 37, 0
1, 247679, Note_on_c, 9, 53, 0
1, 247680, Note_on_c, 9, 37, 100
1, 247680, Note_on_c, 9, 53, 100
1, 248159, Note_on_c, 9, 37, 0
1, 248159, Note_on_c, 9, 53, 0
1, 248160, Note_on_c, 9, 40, 100
1, 248160, Note_on_c, 9, 53, 100
1, 248399, Note_on_c, 9, 40, 0
1, 248399, Note_on_c, 9, 53, 0
1, 248480, Note_on_c, 9, 53, 70
1, 248639, Note_on_c, 9, 53, 0
1, 248640, Note_on_c, 9, 37, 90
1, 248640, Note_on_c, 9, 53, 100
1, 249119, Note_on_c, 9, 37, 0
1, 249119, Note_on_c, 9, 53, 0
1, 249120, Note_on_c, 9, 40, 100
1, 249120, Note_on_c, 9, 53, 100
1, 249359, Note_on_c, 9, 40, 0
1, 249359, Note_on_c, 9, 53, 0
1, 249440, Note_on_c, 9, 53, 70
1, 249599, Note_on_c, 9, 53, 0
1, 249600, Note_on_c, 9, 37, 100
1, 249600, Note_on_c, 9, 53, 100
1, 250079, Note_on_c, 9, 37, 0
1, 250079, Note_on_c, 9, 53, 0
1, 250080, Note_on_c, 9, 40, 100
1, 250080, Note_on_c, 9, 53, 100
1, 250319, Note_on_c, 9, 40, 0
1, 250319, Note_on_c, 9, 53, 0
1, 250400, Note_on_c, 9, 53, 70
1, 250559, Note_on_c, 9, 53, 0
1, 250560, Note_on_c, 9, 37, 90
1, 250560, Note_on_c, 9, 53, 100
1, 251039, Note_on_c, 9, 37, 0
1, 251039, Note_on_c, 9, 53, 0
1, 251040, Note_on_c, 9, 40, 100
1, 251040, Note_on_c, 9, 53, 100
1, 251279, Note_on_c, 9, 40, 0
1, 251279, Note_on_c, 9, 53, 0
1, 251360, Note_on_c, 9, 37, 90
1, 251360, Note_on_c, 9, 53, 70
1, 251519, Note_on_c, 9, 37, 0
1, 251519, Note_on_c, 9, 53, 0
1, 251520, Note_on_c, 9, 37, 100
1, 251520, Note_on_c, 9, 53, 100
1, 251999, Note_on_c, 9, 37, 0
1, 251999, Note_on_c, 9, 53, 0
1, 252000, Note_on_c, 9, 40, 100
1, 252000, Note_on_c, 9, 53, 100
1, 252239, Note_on_c, 9, 40, 0
1, 252239, Note_on_c, 9, 53, 0
1, 252320, Note_on_c, 9, 53, 70
1, 252479, Note_on_c, 9, 53, 0
1, 252480, Note_on_c, 9, 37, 90
1, 252480, Note_on_c, 9, 53, 100
1, 252959, Note_on_c, 9, 37, 0
1, 252959, Note_on_c, 9, 53, 0
1, 252960, Note_on_c, 9, 40, 100
1, 252960, Note_on_c, 9, 53, 100
1, 253199, Note_on_c, 9, 40, 0
1, 253199, Note_on_c, 9, 53, 0
1, 253280, Note_on_c, 9, 53, 70
1, 253439, Note_on_c, 9, 53, 0
1, 253440, Note_on_c, 9, 37, 100
1, 253440, Note_on_c, 9, 53, 100
1, 253919, Note_on_c, 9, 37, 0
1, 253919, Note_on_c, 9, 53, 0
1, 253920, Note_on_c, 9, 40, 100
1, 253920, Note_on_c, 9, 53, 100
1, 254159, Note_on_c, 9, 40, 0
1, 254159, Note_on_c, 9, 53, 0
1, 254240, Note_on_c, 9, 53, 70
1, 254399, Note_on_c, 9, 53, 0
1, 254400, Note_on_c, 9, 37, 90
1, 254400, Note_on_c, 9, 53, 100
1, 254879, Note_on_c, 9, 37, 0
1, 254879, Note_on_c, 9, 53, 0
1, 254880, Note_on_c, 9, 40, 100
1, 254880, Note_on_c, 9, 53, 100
1, 255119, Note_on_c, 9, 40, 0
1, 255119, Note_on_c, 9, 53, 0
1, 255200, Note_on_c, 9, 53, 70
1, 255359, Note_on_c, 9, 53, 0
1, 255360, Note_on_c, 9, 37, 100
1, 255360, Note_on_c, 9, 53, 100
1, 255839, Note_on_c, 9, 37, 0
1, 255839, Note_on_c, 9, 53, 0
1, 255840, Note_on_c, 9, 40, 100
1, 255840, Note_on_c, 9, 53, 100
1, 256079, Note_on_c, 9, 40, 0
1, 256079, Note_on_c, 9, 53, 0
1, 256160, Note_on_c, 9, 40, 80
1, 256160, Note_on_c, 9, 53, 70
1, 256319, Note_on_c, 9, 40, 0
1, 256319, Note_on_c, 9, 53, 0
1, 256320, Note_on_c, 9, 37, 90
1, 256320, Note_on_c, 9, 53, 100
1, 256799, Note_on_c, 9, 37, 0
1, 256799, Note_on_c, 9, 53, 0
1, 256800, Note_on_c, 9, 40, 100
1, 256800, Note_on_c, 9, 53, 100
1, 257039, Note_on_c, 9, 40, 0
1, 257039, Note_on_c, 9, 53, 0
1, 257120, Note_on_c, 9, 53, 70
1, 257279, Note_on_c, 9, 53, 0
1, 257280, Note_on_c, 9, 37, 100
1, 257280, Note_on_c, 9, 53, 100
1, 257759, Note_on_c, 9, 37, 0
1, 257759, Note_on_c, 9, 53, 0
1, 257760, Note_on_c, 9, 40, 100
1, 257760, Note_on_c, 9, 53, 100
1, 257999, Note_on_c, 9, 40, 0
1, 257999, Note_on_c, 9, 53, 0
1, 258080, Note_on_c, 9, 53, 70
1, 258239, Note_on_c, 9, 53, 0
1, 258240, Note_on_c, 9, 37, 90
1, 258240, Note_on_c, 9, 53, 100
1, 258479, Note_on_c, 9, 37, 0
1, 258479, Note_on_c, 9, 53, 0
1, 258560, Note_on_c, 9, 53, 70
1, 258719, Note_on_c, 9, 53, 0
1, 258720, Note_on_c, 9, 40, 100
1, 258720, Note_on_c, 9, 53, 100
1, 258959, Note_on_c, 9, 40, 0
1, 258959, Note_on_c, 9, 53, 0
1, 259040, Note_on_c, 9, 37, 90
1, 259040, Note_on_c, 9, 53, 70
1, 259199, Note_on_c, 9, 37, 0
1, 259199, Note_on_c, 9, 53, 0
1, 259200, Note_on_c, 9, 37, 100
1, 259200, Note_on_c, 9, 53, 100
1, 259679, Note_on_c, 9, 37, 0
1, 259679, Note_on_c, 9, 53, 0
1, 259680, Note_on_c, 9, 40, 100
1, 259680, Note_on_c, 9, 53, 100
1, 259919, Note_on_c, 9, 40, 0
1, 259919, Note_on_c, 9, 53, 0
1, 260000, Note_on_c, 9, 53, 70
1, 260159, Note_on_c, 9, 53, 0
1, 260160, Note_on_c, 9, 37, 90
1, 260160, Note_on_c, 9, 53, 100
1, 260639, Note_on_c, 9, 37, 0
1, 260639, Note_on_c, 9, 53, 0
1, 260640, Note_on_c, 9, 40, 100
1, 260640, Note_on_c, 9, 53, 100
1, 260879, Note_on_c, 9, 40, 0
1, 260879, Note_on_c, 9, 53, 0
1, 260960, Note_on_c, 9, 53, 70
1, 261119, Note_on_c, 9, 53, 0
1, 261120, Note_on_c, 9, 37, 100
1, 261120, Note_on_c, 9, 53, 100
1, 261599, Note_on_c, 9, 37, 0
1, 261599, Note_on_c, 9, 53, 0
1, 261600, Note_on_c, 9, 40, 100
1, 261600, Note_on_c, 9, 53, 100
1, 261839, Note_on_c, 9, 40, 0
1, 261839, Note_on_c, 9, 53, 0
1, 261920, Note_on_c, 9, 53, 70
1, 262079, Note_on_c, 9, 53, 0
1, 262080, Note_on_c, 9, 37, 90
1, 262080, Note_on_c, 9, 53, 100
1, 262559, Note_on_c, 9, 37, 0
1, 262559, Note_on_c, 9, 53, 0
1, 262560, Note_on_c, 9, 40, 100
1, 262560, Note_on_c, 9, 53, 100
1, 262799, Note_on_c, 9, 40, 0
1, 262799, Note_on_c, 9, 53, 0
1, 262880, Note_on_c, 9, 53, 70
1, 263039, Note_on_c, 9, 53, 0
1, 263040, Note_on_c, 9, 37, 100
1, 263040, Note_on_c, 9, 53, 100
1, 263519, Note_on_c, 9, 37, 0
1, 263519, Note_on_c, 9, 53, 0
1, 263520, Note_on_c, 9, 40, 100
1, 263520, Note_on_c, 9, 53, 100
1, 263759, Note_on_c, 9, 40, 0
1, 263759, Note_on_c, 9, 53, 0
1, 263840, Note_on_c, 9, 53, 70
1, 263999, Note_on_c, 9, 53, 0
1, 264000, Note_on_c, 9, 37, 90
1, 264000, Note_on_c, 9, 53, 100
1, 264239, Note_on_c, 9, 37, 0
1, 264239, Note_on_c, 9, 53, 0
1, 264320, Note_on_c, 9, 53, 70
1, 264479, Note_on_c, 9, 53, 0
1, 264480, Note_on_c, 9, 40, 100
1, 264480, Note_on_c, 9, 53, 100
1, 264719, Note_on_c, 9, 40, 0
1, 264719, Note_on_c, 9, 53, 0
1, 264800, Note_on_c, 9, 40, 64
1, 264800, Note_on_c, 9, 53, 70
1, 264959, Note_on_c, 9, 40, 0
1, 264959, Note_on_c, 9, 53, 0
1, 264960, Note_on_c, 9, 37, 100
1, 264960, Note_on_c, 9, 53, 100
1, 265439, Note_on_c, 9, 37, 0
1, 265439, Note_on_c, 9, 53, 0
1, 265440, Note_on_c, 9, 40, 100
1, 265440, Note_on_c, 9, 53, 100
1, 265679, Note_on_c, 9, 40, 0
1, 265679, Note_on_c, 9, 53, 0
1, 265760, Note_on_c, 9, 53, 70
1, 265919, Note_on_c, 9, 53, 0
1, 265920, Note_on_c, 9, 37, 90
1, 265920, Note_on_c, 9, 53, 100
1, 266399, Note_on_c, 9, 37, 0
1, 266399, Note_on_c, 9, 53, 0
1, 266400, Note_on_c, 9, 40, 100
1, 266400, Note_on_c, 9, 53, 100
1, 266639, Note_on_c, 9, 40, 0
1, 266639, Note_on_c, 9, 53, 0
1, 266720, Note_on_c, 9, 37, 90
1, 266720, Note_on_c, 9, 53, 70
1, 266879, Note_on_c, 9, 37, 0
1, 266879, Note_on_c, 9, 53, 0
1, 266880, Note_on_c, 9, 37, 100
1, 266880, Note_on_c, 9, 53, 100
1, 267359, Note_on_c, 9, 37, 0
1, 267359, Note_on_c, 9, 53, 0
1, 267360, Note_on_c, 9, 40, 100
1, 267360, Note_on_c, 9, 53, 100
1, 267599, Note_on_c, 9, 40, 0
1, 267599, Note_on_c, 9, 53, 0
1, 267680, Note_on_c, 9, 53, 70
1, 267839, Note_on_c, 9, 53, 0
1, 267840, Note_on_c, 9, 37, 90
1, 267840, Note_on_c, 9, 53, 100
1, 268319, Note_on_c, 9, 37, 0
1, 268319, Note_on_c, 9, 53, 0
1, 268320, Note_on_c, 9, 40, 100
1, 268320, Note_on_c, 9, 53, 100
1, 268559, Note_on_c, 9, 40, 0
1, 268559, Note_on_c, 9, 53, 0
1, 268640, Note_on_c, 9, 37, 90
1, 268640, Note_on_c, 9, 53, 70
1, 268799, Note_on_c, 9, 37, 0
1, 268799, Note_on_c, 9, 53, 0
1, 268800, Note_on_c, 9, 37, 100
1, 268800, Note_on_c, 9, 53, 100
1, 269279, Note_on_c, 9, 37, 0
1, 269279, Note_on_c, 9, 53, 0
1, 269280, Note_on_c, 9, 40, 100
1, 269280, Note_on_c, 9, 53, 100
1, 269519, Note_on_c, 9, 40, 0
1, 269519, Note_on_c, 9, 53, 0
1, 269600, Note_on_c, 9, 53, 70
1, 269759, Note_on_c, 9, 53, 0
1, 269760, Note_on_c, 9, 37, 90
1, 269760, Note_on_c, 9, 53, 100
1, 270239, Note_on_c, 9, 37, 0
1, 270239, Note_on_c, 9, 53, 0
1, 270240, Note_on_c, 9, 40, 100
1, 270240, Note_on_c, 9, 53, 100
1, 270479, Note_on_c, 9, 40, 0
1, 270479, Note_on_c, 9, 53, 0
1, 270560, Note_on_c, 9, 53, 70
1, 270719, Note_on_c, 9, 53, 0
1, 270720, Note_on_c, 9, 37, 100
1, 270720, Note_on_c, 9, 53, 100
1, 271199, Note_on_c, 9, 37, 0
1, 271199, Note_on_c, 9, 53, 0
1, 271200, Note_on_c, 9, 40, 100
1, 271200, Note_on_c, 9, 53, 100
1, 271439, Note_on_c, 9, 40, 0
1, 271439, Note_on_c, 9, 53, 0
1, 271520, Note_on_c, 9, 53, 70
1, 271679, Note_on_c, 9, 53, 0
1, 271680, Note_on_c, 9, 37, 90
1, 271680, Note_on_c, 9, 53, 100
1, 272159, Note_on_c, 9, 37, 0
1, 272159, Note_on_c, 9, 53, 0
1, 272160, Note_on_c, 9, 40, 100
1, 272160, Note_on_c, 9, 53, 100
1, 272399, Note_on_c, 9, 40, 0
1, 272399, Note_on_c, 9, 53, 0
1, 272480, Note_on_c, 9, 40, 64
1, 272480, Note_on_c, 9, 53, 70
1, 272639, Note_on_c, 9, 40, 0
1, 272639, Note_on_c, 9, 53, 0
1, 272640, Note_on_c, 9, 37, 100
1, 272640, Note_on_c, 9, 53, 100
1, 273119, Note_on_c, 9, 37, 0
1, 273119, Note_on_c, 9, 53, 0
1, 273120, Note_on_c, 9, 40, 100
1, 273120, Note_on_c, 9, 53, 100
1, 273359, Note_on_c, 9, 40, 0
1, 273359, Note_on_c, 9, 53, 0
1, 273440, Note_on_c, 9, 53, 70
1, 273599, Note_on_c, 9, 53, 0
1, 273600, Note_on_c, 9, 37, 90
1, 273600, Note_on_c, 9, 53, 100
1, 274079, Note_on_c, 9, 37, 0
1, 274079, Note_on_c, 9, 53, 0
1, 274080, Note_on_c, 9, 40, 100
1, 274080, Note_on_c, 9, 53, 100
1, 274319, Note_on_c, 9, 40, 0
1, 274319, Note_on_c, 9, 53, 0
1, 274400, Note_on_c, 9, 37, 90
1, 274400, Note_on_c, 9, 53, 70
1, 274559, Note_on_c, 9, 37, 0
1, 274559, Note_on_c, 9, 53, 0
1, 274560, Note_on_c, 9, 37, 100
1, 274560, Note_on_c, 9, 53, 100
1, 275039, Note_on_c, 9, 37, 0
1, 275039, Note_on_c, 9, 53, 0
1, 275040, Note_on_c, 9, 40, 100
1, 275040, Note_on_c, 9, 53, 100
1, 275279, Note_on_c, 9, 40, 0
1, 275279, Note_on_c, 9, 53, 0
1, 275360, Note_on_c, 9, 40, 80
1, 275360, Note_on_c, 9, 53, 70
1, 275519, Note_on_c, 9, 40, 0
1, 275519, Note_on_c, 9, 53, 0
1, 275520, Note_on_c, 9, 37, 90
1, 275520, Note_on_c, 9, 53, 100
1, 275999, Note_on_c, 9, 37, 0
1, 275999, Note_on_c, 9, 53, 0
1, 276000, Note_on_c, 9, 40, 100
1, 276000, Note_on_c, 9, 53, 100
1, 276239, Note_on_c, 9, 40, 0
1, 276239, Note_on_c, 9, 53, 0
1, 276320, Note_on_c, 9, 37, 90
1, 276320, Note_on_c, 9, 53, 70
1, 276479, Note_on_c, 9, 37, 0
1, 276479, Note_on_c, 9, 53, 0
1, 276480, Note_on_c, 9, 37, 100
1, 276480, Note_on_c, 9, 40, 110
1, 276639, Note_on_c, 9, 37, 0
1, 276639, Note_on_c, 9, 40, 0
1, 276640, Note_on_c, 9, 40, 70
1, 276799, Note_on_c, 9, 40, 0
1, 276800, Note_on_c, 9, 40, 60
1, 276959, Note_on_c, 9, 40, 0
1, 276960, Note_on_c, 9, 50, 110
1, 276960, Note_on_c, 9, 44, 100
1, 277119, Note_on_c, 9, 50, 0
1, 277120, Note_on_c, 9, 40, 70
1, 277279, Note_on_c, 9, 40, 0
1, 277280, Note_on_c, 9, 40, 60
1, 277439, Note_on_c, 9, 44, 0
1, 277439, Note_on_c, 9, 40, 0
1, 277440, Note_on_c, 9, 47, 110
1, 277599, Note_on_c, 9, 47, 0
1, 277600, Note_on_c, 9, 40, 60
1, 277759, Note_on_c, 9, 40, 0
1, 277760, Note_on_c, 9, 47, 100
1, 277919, Note_on_c, 9, 47, 0
1, 277920, Note_on_c, 9, 44, 100
1, 277920, Note_on_c, 9, 43, 110
1, 278080, Note_on_c, 9, 40, 60
1, 278159, Note_on_c, 9, 44, 0
1, 278159, Note_on_c, 9, 43, 0
1, 278159, Note_on_c, 9, 40, 0
1, 278240, Note_on_c, 9, 43, 100
1, 278399, Note_on_c, 9, 43, 0
1, 278400, Note_on_c, 9, 37, 110
1, 278400, Note_on_c, 9, 40, 125
1, 278400, Note_on_c, 9, 48, 110
1, 278879, Note_on_c, 9, 37, 0
1, 278879, Note_on_c, 9, 40, 0
1, 278879, Note_on_c, 9, 48, 0
1, 278880, Note_on_c, 9, 44, 100
1, 279119, Note_on_c, 9, 44, 0
1, 279200, Note_on_c, 9, 44, 70
1, 279359, Note_on_c, 9, 44, 0
1, 279360, Note_on_c, 9, 48, 110
1, 279839, Note_on_c, 9, 48, 0
1, 279840, Note_on_c, 9, 44, 100
1, 280079, Note_on_c, 9, 44, 0
1, 280160, Note_on_c, 9, 44, 70
1, 280319, Note_on_c, 9, 44, 0
1, 280320, Note_on_c, 9, 37, 110
1, 280320, Note_on_c, 9, 40, 125
1, 280799, Note_on_c, 9, 37, 0
1, 280799, Note_on_c, 9, 40, 0
1, 280800, Note_on_c, 9, 40, 110
1, 281039, Note_on_c, 9, 40, 0
1, 281120, Note_on_c, 9, 40, 125
1, 281120, Note_on_c, 9, 48, 110
1, 281279, Note_on_c, 9, 40, 0
1, 281279, Note_on_c, 9, 48, 0
1, 281280, Note_on_c, 9, 44, 11
1, 281759, Note_on_c, 9, 44, 0
1, 281760, Note_on_c, 9, 43, 125
1, 282239, Note_on_c, 9, 43, 0
1, 282240, End_track
0, 0, End_of_file
