0, 0, Header, 1, 1, 480
1, 0, Start_track
1, 0, Time_signature, 4, 2, 24, 8
1, 0, Key_signature, 0, "major"
1, 0, Tempo, 320856
1, 0, Control_c, 9, 121, 0
1, 0, Program_c, 9, 48
1, 0, Control_c, 9, 7, 127
1, 0, Control_c, 9, 10, 64
1, 0, Control_c, 9, 91, 0
1, 0, Control_c, 9, 93, 0
1, 0, MIDI_port, 0
1, 480, Note_on_c, 9, 31, 80
1, 959, Note_on_c, 9, 31, 0
1, 1440, Note_on_c, 9, 31, 80
1, 1919, Note_on_c, 9, 31, 0
1, 2400, Note_on_c, 9, 31, 80
1, 2879, Note_on_c, 9, 31, 0
1, 3680, Note_on_c, 9, 38, 96
1, 3719, Note_on_c, 9, 38, 0
1, 3840, Note_on_c, 9, 38, 126
1, 4319, Note_on_c, 9, 38, 0
1, 4320, Note_on_c, 9, 31, 80
1, 4559, Note_on_c, 9, 31, 0
1, 4640, Note_on_c, 9, 42, 90
1, 4679, Note_on_c, 9, 42, 0
1, 4800, Note_on_c, 9, 38, 112
1, 4800, Note_on_c, 9, 42, 106
1, 4800, Note_on_c, 9, 46, 95
1, 5039, Note_on_c, 9, 38, 0
1, 5039, Note_on_c, 9, 42, 0
1, 5039, Note_on_c, 9, 46, 0
1, 5040, Note_on_c, 9, 38, 112
1, 5119, Note_on_c, 9, 38, 0
1, 5120, Note_on_c, 9, 42, 90
1, 5159, Note_on_c, 9, 42, 0
1, 5280, Note_on_c, 9, 42, 106
1, 5519, Note_on_c, 9, 42, 0
1, 5600, Note_on_c, 9, 42, 90
1, 5639, Note_on_c, 9, 42, 0
1, 5760, Note_on_c, 9, 38, 126
1, 5760, Note_on_c, 9, 42, 106
1, 5760, Note_on_c, 9, 46, 95
1, 5999, Note_on_c, 9, 38, 0
1, 5999, Note_on_c, 9, 42, 0
1, 5999, Note_on_c, 9, 46, 0
1, 6100, Note_on_c, 9, 42, 90
1, 6119, Note_on_c, 9, 42, 0
1, 6240, Note_on_c, 9, 42, 120
1, 6479, Note_on_c, 9, 42, 0
1, 6560, Note_on_c, 9, 42, 90
1, 6599, Note_on_c, 9, 42, 0
1, 6720, Note_on_c, 9, 38, 112
1, 6720, Note_on_c, 9, 42, 106
1, 6720, Note_on_c, 9, 46, 95
1, 6959, Note_on_c, 9, 38, 0
1, 6959, Note_on_c, 9, 42, 0
1, 6959, Note_on_c, 9, 46, 0
1, 6960, Note_on_c, 9, 38, 112
1, 7039, Note_on_c, 9, 38, 0
1, 7040, Note_on_c, 9, 42, 90
1, 7079, Note_on_c, 9, 42, 0
1, 7200, Note_on_c, 9, 42, 106
1, 7439, Note_on_c, 9, 42, 0
1, 7520, Note_on_c, 9, 42, 90
1, 7559, Note_on_c, 9, 42, 0
1, 7680, Note_on_c, 9, 38, 126
1, 7680, Note_on_c, 9, 42, 106
1, 7680, Note_on_c, 9, 46, 95
1, 7919, Note_on_c, 9, 38, 0
1, 7919, Note_on_c, 9, 42, 0
1, 7919, Note_on_c, 9, 46, 0
1, 8000, Note_on_c, 9, 42, 90
1, 8039, Note_on_c, 9, 42, 0
1, 8180, Note_on_c, 9, 42, 120
1, 8219, Note_on_c, 9, 42, 0
1, 8480, Note_on_c, 9, 42, 90
1, 8519, Note_on_c, 9, 42, 0
1, 8640, Note_on_c, 9, 38, 112
1, 8640, Note_on_c, 9, 42, 106
1, 8640, Note_on_c, 9, 46, 95
1, 8879, Note_on_c, 9, 38, 0
1, 8879, Note_on_c, 9, 42, 0
1, 8879, Note_on_c, 9, 46, 0
1, 8880, Note_on_c, 9, 38, 112
1, 8959, Note_on_c, 9, 38, 0
1, 8960, Note_on_c, 9, 42, 90
1, 8999, Note_on_c, 9, 42, 0
1, 9120, Note_on_c, 9, 42, 106
1, 9359, Note_on_c, 9, 42, 0
1, 9440, Note_on_c, 9, 42, 90
1, 9479, Note_on_c, 9, 42, 0
1, 9600, Note_on_c, 9, 38, 126
1, 9600, Note_on_c, 9, 42, 106
1, 9600, Note_on_c, 9, 46, 95
1, 9839, Note_on_c, 9, 38, 0
1, 9839, Note_on_c, 9, 42, 0
1, 9839, Note_on_c, 9, 46, 0
1, 9940, Note_on_c, 9, 42, 90
1, 9959, Note_on_c, 9, 42, 0
1, 10080, Note_on_c, 9, 42, 120
1, 10319, Note_on_c, 9, 42, 0
1, 10400, Note_on_c, 9, 42, 90
1, 10439, Note_on_c, 9, 42, 0
1, 10560, Note_on_c, 9, 38, 112
1, 10560, Note_on_c, 9, 42, 106
1, 10560, Note_on_c, 9, 46, 95
1, 10799, Note_on_c, 9, 38, 0
1, 10799, Note_on_c, 9, 42, 0
1, 10799, Note_on_c, 9, 46, 0
1, 10800, Note_on_c, 9, 38, 112
1, 10879, Note_on_c, 9, 38, 0
1, 10880, Note_on_c, 9, 42, 90
1, 10919, Note_on_c, 9, 42, 0
1, 11040, Note_on_c, 9, 42, 106
1, 11279, Note_on_c, 9, 42, 0
1, 11360, Note_on_c, 9, 42, 90
1, 11399, Note_on_c, 9, 42, 0
1, 11520, Note_on_c, 9, 38, 126
1, 11520, Note_on_c, 9, 42, 106
1, 11520, Note_on_c, 9, 46, 95
1, 11759, Note_on_c, 9, 38, 0
1, 11759, Note_on_c, 9, 42, 0
1, 11759, Note_on_c, 9, 46, 0
1, 11840, Note_on_c, 9, 42, 90
1, 11879, Note_on_c, 9, 42, 0
1, 12000, Note_on_c, 9, 42, 120
1, 12239, Note_on_c, 9, 42, 0
1, 12320, Note_on_c, 9, 42, 90
1, 12359, Note_on_c, 9, 42, 0
1, 12480, Note_on_c, 9, 38, 112
1, 12480, Note_on_c, 9, 42, 106
1, 12480, Note_on_c, 9, 46, 95
1, 12719, Note_on_c, 9, 38, 0
1, 12719, Note_on_c, 9, 42, 0
1, 12719, Note_on_c, 9, 46, 0
1, 12720, Note_on_c, 9, 38, 112
1, 12799, Note_on_c, 9, 38, 0
1, 12800, Note_on_c, 9, 42, 90
1, 12839, Note_on_c, 9, 42, 0
1, 12960, Note_on_c, 9, 42, 106
1, 13199, Note_on_c, 9, 42, 0
1, 13280, Note_on_c, 9, 42, 90
1, 13319, Note_on_c, 9, 42, 0
1, 13440, Note_on_c, 9, 38, 126
1, 13440, Note_on_c, 9, 42, 106
1, 13440, Note_on_c, 9, 46, 95
1, 13679, Note_on_c, 9, 38, 0
1, 13679, Note_on_c, 9, 42, 0
1, 13679, Note_on_c, 9, 46, 0
1, 13760, Note_on_c, 9, 42, 90
1, 13799, Note_on_c, 9, 42, 0
1, 13920, Note_on_c, 9, 42, 120
1, 14159, Note_on_c, 9, 42, 0
1, 14240, Note_on_c, 9, 42, 90
1, 14279, Note_on_c, 9, 42, 0
1, 14400, Note_on_c, 9, 38, 112
1, 14400, Note_on_c, 9, 42, 106
1, 14400, Note_on_c, 9, 46, 95
1, 14639, Note_on_c, 9, 38, 0
1, 14639, Note_on_c, 9, 42, 0
1, 14639, Note_on_c, 9, 46, 0
1, 14640, Note_on_c, 9, 38, 112
1, 14719, Note_on_c, 9, 38, 0
1, 14720, Note_on_c, 9, 42, 90
1, 14759, Note_on_c, 9, 42, 0
1, 14880, Note_on_c, 9, 42, 106
1, 15119, Note_on_c, 9, 42, 0
1, 15200, Note_on_c, 9, 42, 90
1, 15239, Note_on_c, 9, 42, 0
1, 15360, Note_on_c, 9, 38, 126
1, 15360, Note_on_c, 9, 42, 106
1, 15360, Note_on_c, 9, 46, 95
1, 15599, Note_on_c, 9, 38, 0
1, 15599, Note_on_c, 9, 42, 0
1, 15599, Note_on_c, 9, 46, 0
1, 15680, Note_on_c, 9, 42, 90
1, 15719, Note_on_c, 9, 42, 0
1, 15840, Note_on_c, 9, 42, 120
1, 16079, Note_on_c, 9, 42, 0
1, 16160, Note_on_c, 9, 42, 90
1, 16199, Note_on_c, 9, 42, 0
1, 16320, Note_on_c, 9, 38, 112
1, 16320, Note_on_c, 9, 42, 106
1, 16320, Note_on_c, 9, 46, 95
1, 16559, Note_on_c, 9, 38, 0
1, 16559, Note_on_c, 9, 42, 0
1, 16559, Note_on_c, 9, 46, 0
1, 16580, Note_on_c, 9, 38, 112
1, 16619, Note_on_c, 9, 38, 0
1, 16660, Note_on_c, 9, 42, 90
1, 16679, Note_on_c, 9, 42, 0
1, 16800, Note_on_c, 9, 42, 106
1, 17039, Note_on_c, 9, 42, 0
1, 17120, Note_on_c, 9, 42, 90
1, 17159, Note_on_c, 9, 42, 0
1, 17280, Note_on_c, 9, 38, 126
1, 17280, Note_on_c, 9, 42, 106
1, 17280, Note_on_c, 9, 46, 95
1, 17519, Note_on_c, 9, 38, 0
1, 17519, Note_on_c, 9, 42, 0
1, 17519, Note_on_c, 9, 46, 0
1, 17600, Note_on_c, 9, 42, 90
1, 17639, Note_on_c, 9, 42, 0
1, 17760, Note_on_c, 9, 42, 120
1, 17999, Note_on_c, 9, 42, 0
1, 18080, Note_on_c, 9, 42, 90
1, 18119, Note_on_c, 9, 42, 0
1, 18240, Note_on_c, 9, 38, 112
1, 18240, Note_on_c, 9, 42, 106
1, 18240, Note_on_c, 9, 46, 95
1, 18479, Note_on_c, 9, 38, 0
1, 18479, Note_on_c, 9, 42, 0
1, 18479, Note_on_c, 9, 46, 0
1, 18480, Note_on_c, 9, 38, 112
1, 18559, Note_on_c, 9, 38, 0
1, 18560, Note_on_c, 9, 42, 90
1, 18599, Note_on_c, 9, 42, 0
1, 18720, Note_on_c, 9, 42, 106
1, 18959, Note_on_c, 9, 42, 0
1, 19040, Note_on_c, 9, 42, 90
1, 19079, Note_on_c, 9, 42, 0
1, 19200, Note_on_c, 9, 38, 126
1, 19200, Note_on_c, 9, 42, 106
1, 19200, Note_on_c, 9, 46, 95
1, 19439, Note_on_c, 9, 38, 0
1, 19439, Note_on_c, 9, 42, 0
1, 19439, Note_on_c, 9, 46, 0
1, 19520, Note_on_c, 9, 42, 90
1, 19559, Note_on_c, 9, 42, 0
1, 19680, Note_on_c, 9, 42, 120
1, 19919, Note_on_c, 9, 42, 0
1, 20000, Note_on_c, 9, 42, 90
1, 20039, Note_on_c, 9, 42, 0
1, 20160, Note_on_c, 9, 38, 112
1, 20160, Note_on_c, 9, 42, 106
1, 20160, Note_on_c, 9, 46, 95
1, 20399, Note_on_c, 9, 38, 0
1, 20399, Note_on_c, 9, 42, 0
1, 20399, Note_on_c, 9, 46, 0
1, 20400, Note_on_c, 9, 38, 112
1, 20479, Note_on_c, 9, 38, 0
1, 20480, Note_on_c, 9, 42, 90
1, 20519, Note_on_c, 9, 42, 0
1, 20640, Note_on_c, 9, 42, 106
1, 20879, Note_on_c, 9, 42, 0
1, 20960, Note_on_c, 9, 42, 90
1, 20999, Note_on_c, 9, 42, 0
1, 21120, Note_on_c, 9, 38, 126
1, 21120, Note_on_c, 9, 42, 106
1, 21120, Note_on_c, 9, 46, 95
1, 21359, Note_on_c, 9, 38, 0
1, 21359, Note_on_c, 9, 42, 0
1, 21359, Note_on_c, 9, 46, 0
1, 21440, Note_on_c, 9, 42, 90
1, 21479, Note_on_c, 9, 42, 0
1, 21600, Note_on_c, 9, 42, 120
1, 21839, Note_on_c, 9, 42, 0
1, 21920, Note_on_c, 9, 42, 90
1, 21959, Note_on_c, 9, 42, 0
1, 22080, Note_on_c, 9, 38, 112
1, 22080, Note_on_c, 9, 42, 106
1, 22080, Note_on_c, 9, 46, 95
1, 22319, Note_on_c, 9, 38, 0
1, 22319, Note_on_c, 9, 42, 0
1, 22319, Note_on_c, 9, 46, 0
1, 22320, Note_on_c, 9, 38, 112
1, 22399, Note_on_c, 9, 38, 0
1, 22400, Note_on_c, 9, 42, 90
1, 22439, Note_on_c, 9, 42, 0
1, 22560, Note_on_c, 9, 42, 106
1, 22799, Note_on_c, 9, 42, 0
1, 22880, Note_on_c, 9, 42, 90
1, 22919, Note_on_c, 9, 42, 0
1, 23040, Note_on_c, 9, 38, 126
1, 23040, Note_on_c, 9, 42, 106
1, 23040, Note_on_c, 9, 46, 95
1, 23279, Note_on_c, 9, 38, 0
1, 23279, Note_on_c, 9, 42, 0
1, 23279, Note_on_c, 9, 46, 0
1, 23360, Note_on_c, 9, 42, 90
1, 23399, Note_on_c, 9, 42, 0
1, 23520, Note_on_c, 9, 42, 120
1, 23759, Note_on_c, 9, 42, 0
1, 23840, Note_on_c, 9, 42, 90
1, 23879, Note_on_c, 9, 42, 0
1, 24000, Note_on_c, 9, 38, 112
1, 24000, Note_on_c, 9, 42, 106
1, 24000, Note_on_c, 9, 46, 95
1, 24239, Note_on_c, 9, 38, 0
1, 24239, Note_on_c, 9, 42, 0
1, 24239, Note_on_c, 9, 46, 0
1, 24240, Note_on_c, 9, 38, 112
1, 24319, Note_on_c, 9, 38, 0
1, 24320, Note_on_c, 9, 42, 90
1, 24359, Note_on_c, 9, 42, 0
1, 24480, Note_on_c, 9, 42, 106
1, 24719, Note_on_c, 9, 42, 0
1, 24800, Note_on_c, 9, 42, 90
1, 24839, Note_on_c, 9, 42, 0
1, 24960, Note_on_c, 9, 38, 126
1, 24960, Note_on_c, 9, 42, 106
1, 24960, Note_on_c, 9, 46, 95
1, 25199, Note_on_c, 9, 38, 0
1, 25199, Note_on_c, 9, 42, 0
1, 25199, Note_on_c, 9, 46, 0
1, 25280, Note_on_c, 9, 42, 90
1, 25319, Note_on_c, 9, 42, 0
1, 25440, Note_on_c, 9, 42, 120
1, 25679, Note_on_c, 9, 42, 0
1, 25760, Note_on_c, 9, 42, 90
1, 25799, Note_on_c, 9, 42, 0
1, 25920, Note_on_c, 9, 38, 112
1, 25920, Note_on_c, 9, 42, 106
1, 25920, Note_on_c, 9, 46, 95
1, 26159, Note_on_c, 9, 38, 0
1, 26159, Note_on_c, 9, 42, 0
1, 26159, Note_on_c, 9, 46, 0
1, 26160, Note_on_c, 9, 38, 112
1, 26239, Note_on_c, 9, 38, 0
1, 26240, Note_on_c, 9, 42, 90
1, 26279, Note_on_c, 9, 42, 0
1, 26420, Note_on_c, 9, 42, 106
1, 26459, Note_on_c, 9, 42, 0
1, 26720, Note_on_c, 9, 42, 90
1, 26759, Note_on_c, 9, 42, 0
1, 26880, Note_on_c, 9, 38, 126
1, 26880, Note_on_c, 9, 42, 106
1, 26880, Note_on_c, 9, 46, 95
1, 27119, Note_on_c, 9, 38, 0
1, 27119, Note_on_c, 9, 42, 0
1, 27119, Note_on_c, 9, 46, 0
1, 27200, Note_on_c, 9, 42, 90
1, 27239, Note_on_c, 9, 42, 0
1, 27360, Note_on_c, 9, 42, 120
1, 27599, Note_on_c, 9, 42, 0
1, 27680, Note_on_c, 9, 42, 90
1, 27719, Note_on_c, 9, 42, 0
1, 27840, Note_on_c, 9, 38, 112
1, 27840, Note_on_c, 9, 42, 106
1, 27840, Note_on_c, 9, 46, 95
1, 28079, Note_on_c, 9, 38, 0
1, 28079, Note_on_c, 9, 42, 0
1, 28079, Note_on_c, 9, 46, 0
1, 28080, Note_on_c, 9, 38, 112
1, 28159, Note_on_c, 9, 38, 0
1, 28160, Note_on_c, 9, 42, 90
1, 28199, Note_on_c, 9, 42, 0
1, 28320, Note_on_c, 9, 42, 106
1, 28559, Note_on_c, 9, 42, 0
1, 28640, Note_on_c, 9, 42, 90
1, 28679, Note_on_c, 9, 42, 0
1, 28800, Note_on_c, 9, 38, 126
1, 28800, Note_on_c, 9, 42, 106
1, 28800, Note_on_c, 9, 46, 95
1, 29039, Note_on_c, 9, 38, 0
1, 29039, Note_on_c, 9, 42, 0
1, 29039, Note_on_c, 9, 46, 0
1, 29120, Note_on_c, 9, 42, 90
1, 29159, Note_on_c, 9, 42, 0
1, 29280, Note_on_c, 9, 42, 120
1, 29519, Note_on_c, 9, 42, 0
1, 29600, Note_on_c, 9, 42, 98
1, 29639, Note_on_c, 9, 42, 0
1, 29760, Note_on_c, 9, 38, 120
1, 29760, Note_on_c, 9, 42, 114
1, 29760, Note_on_c, 9, 46, 95
1, 29999, Note_on_c, 9, 38, 0
1, 29999, Note_on_c, 9, 42, 0
1, 29999, Note_on_c, 9, 46, 0
1, 30000, Note_on_c, 9, 38, 120
1, 30079, Note_on_c, 9, 38, 0
1, 30080, Note_on_c, 9, 42, 98
1, 30119, Note_on_c, 9, 42, 0
1, 30240, Note_on_c, 9, 42, 114
1, 30479, Note_on_c, 9, 42, 0
1, 30560, Note_on_c, 9, 42, 98
1, 30599, Note_on_c, 9, 42, 0
1, 30720, Note_on_c, 9, 38, 126
1, 30720, Note_on_c, 9, 42, 114
1, 30720, Note_on_c, 9, 46, 95
1, 30959, Note_on_c, 9, 38, 0
1, 30959, Note_on_c, 9, 42, 0
1, 30959, Note_on_c, 9, 46, 0
1, 31040, Note_on_c, 9, 42, 98
1, 31079, Note_on_c, 9, 42, 0
1, 31200, Note_on_c, 9, 42, 120
1, 31439, Note_on_c, 9, 42, 0
1, 31520, Note_on_c, 9, 42, 98
1, 31559, Note_on_c, 9, 42, 0
1, 31680, Note_on_c, 9, 38, 120
1, 31680, Note_on_c, 9, 42, 114
1, 31680, Note_on_c, 9, 46, 95
1, 31919, Note_on_c, 9, 38, 0
1, 31919, Note_on_c, 9, 42, 0
1, 31919, Note_on_c, 9, 46, 0
1, 31920, Note_on_c, 9, 38, 120
1, 31999, Note_on_c, 9, 38, 0
1, 32000, Note_on_c, 9, 42, 98
1, 32039, Note_on_c, 9, 42, 0
1, 32160, Note_on_c, 9, 42, 114
1, 32399, Note_on_c, 9, 42, 0
1, 32480, Note_on_c, 9, 42, 98
1, 32519, Note_on_c, 9, 42, 0
1, 32640, Note_on_c, 9, 38, 126
1, 32640, Note_on_c, 9, 42, 114
1, 32640, Note_on_c, 9, 46, 95
1, 32879, Note_on_c, 9, 38, 0
1, 32879, Note_on_c, 9, 42, 0
1, 32879, Note_on_c, 9, 46, 0
1, 32960, Note_on_c, 9, 42, 98
1, 32999, Note_on_c, 9, 42, 0
1, 33120, Note_on_c, 9, 42, 120
1, 33359, Note_on_c, 9, 42, 0
1, 33440, Note_on_c, 9, 42, 98
1, 33479, Note_on_c, 9, 42, 0
1, 33600, Note_on_c, 9, 38, 126
1, 33600, Note_on_c, 9, 42, 114
1, 33839, Note_on_c, 9, 38, 0
1, 33839, Note_on_c, 9, 42, 0
1, 33920, Note_on_c, 9, 42, 98
1, 33959, Note_on_c, 9, 42, 0
1, 34080, Note_on_c, 9, 46, 95
1, 34319, Note_on_c, 9, 46, 0
1, 34400, Note_on_c, 9, 38, 88
1, 34559, Note_on_c, 9, 38, 0
1, 34560, Note_on_c, 9, 38, 120
1, 34799, Note_on_c, 9, 38, 0
1, 34880, Note_on_c, 9, 38, 126
1, 35039, Note_on_c, 9, 38, 0
1, 35040, Note_on_c, 9, 42, 120
1, 35279, Note_on_c, 9, 42, 0
1, 35360, Note_on_c, 9, 42, 98
1, 35399, Note_on_c, 9, 42, 0
1, 35520, Note_on_c, 9, 38, 120
1, 35520, Note_on_c, 9, 42, 114
1, 35520, Note_on_c, 9, 46, 95
1, 35759, Note_on_c, 9, 38, 0
1, 35759, Note_on_c, 9, 42, 0
1, 35759, Note_on_c, 9, 46, 0
1, 35760, Note_on_c, 9, 38, 120
1, 35839, Note_on_c, 9, 38, 0
1, 35840, Note_on_c, 9, 42, 98
1, 35879, Note_on_c, 9, 42, 0
1, 36000, Note_on_c, 9, 42, 114
1, 36239, Note_on_c, 9, 42, 0
1, 36320, Note_on_c, 9, 42, 98
1, 36359, Note_on_c, 9, 42, 0
1, 36480, Note_on_c, 9, 38, 126
1, 36480, Note_on_c, 9, 42, 114
1, 36480, Note_on_c, 9, 46, 95
1, 36719, Note_on_c, 9, 38, 0
1, 36719, Note_on_c, 9, 42, 0
1, 36719, Note_on_c, 9, 46, 0
1, 36800, Note_on_c, 9, 42, 98
1, 36839, Note_on_c, 9, 42, 0
1, 36960, Note_on_c, 9, 42, 120
1, 37199, Note_on_c, 9, 42, 0
1, 37280, Note_on_c, 9, 42, 98
1, 37319, Note_on_c, 9, 42, 0
1, 37440, Note_on_c, 9, 38, 120
1, 37440, Note_on_c, 9, 42, 114
1, 37440, Note_on_c, 9, 46, 95
1, 37679, Note_on_c, 9, 38, 0
1, 37679, Note_on_c, 9, 42, 0
1, 37679, Note_on_c, 9, 46, 0
1, 37680, Note_on_c, 9, 38, 120
1, 37759, Note_on_c, 9, 38, 0
1, 37760, Note_on_c, 9, 42, 98
1, 37799, Note_on_c, 9, 42, 0
1, 37920, Note_on_c, 9, 42, 114
1, 38159, Note_on_c, 9, 42, 0
1, 38240, Note_on_c, 9, 42, 98
1, 38279, Note_on_c, 9, 42, 0
1, 38400, Note_on_c, 9, 38, 126
1, 38400, Note_on_c, 9, 42, 114
1, 38400, Note_on_c, 9, 46, 95
1, 38639, Note_on_c, 9, 38, 0
1, 38639, Note_on_c, 9, 42, 0
1, 38639, Note_on_c, 9, 46, 0
1, 38720, Note_on_c, 9, 42, 98
1, 38759, Note_on_c, 9, 42, 0
1, 38880, Note_on_c, 9, 42, 120
1, 39119, Note_on_c, 9, 42, 0
1, 39200, Note_on_c, 9, 42, 98
1, 39239, Note_on_c, 9, 42, 0
1, 39360, Note_on_c, 9, 38, 120
1, 39360, Note_on_c, 9, 42, 114
1, 39360, Note_on_c, 9, 46, 95
1, 39599, Note_on_c, 9, 38, 0
1, 39599, Note_on_c, 9, 42, 0
1, 39599, Note_on_c, 9, 46, 0
1, 39600, Note_on_c, 9, 38, 120
1, 39679, Note_on_c, 9, 38, 0
1, 39680, Note_on_c, 9, 42, 98
1, 39719, Note_on_c, 9, 42, 0
1, 39840, Note_on_c, 9, 42, 114
1, 40079, Note_on_c, 9, 42, 0
1, 40160, Note_on_c, 9, 42, 98
1, 40199, Note_on_c, 9, 42, 0
1, 40320, Note_on_c, 9, 38, 126
1, 40320, Note_on_c, 9, 42, 114
1, 40320, Note_on_c, 9, 46, 95
1, 40559, Note_on_c, 9, 38, 0
1, 40559, Note_on_c, 9, 42, 0
1, 40559, Note_on_c, 9, 46, 0
1, 40640, Note_on_c, 9, 42, 98
1, 40679, Note_on_c, 9, 42, 0
1, 40800, Note_on_c, 9, 42, 120
1, 41039, Note_on_c, 9, 42, 0
1, 41120, Note_on_c, 9, 42, 90
1, 41159, Note_on_c, 9, 42, 0
1, 41280, Note_on_c, 9, 38, 112
1, 41280, Note_on_c, 9, 42, 106
1, 41280, Note_on_c, 9, 46, 95
1, 41519, Note_on_c, 9, 38, 0
1, 41519, Note_on_c, 9, 42, 0
1, 41519, Note_on_c, 9, 46, 0
1, 41520, Note_on_c, 9, 38, 112
1, 41599, Note_on_c, 9, 38, 0
1, 41600, Note_on_c, 9, 42, 90
1, 41639, Note_on_c, 9, 42, 0
1, 41760, Note_on_c, 9, 42, 106
1, 41999, Note_on_c, 9, 42, 0
1, 42080, Note_on_c, 9, 42, 90
1, 42119, Note_on_c, 9, 42, 0
1, 42240, Note_on_c, 9, 38, 126
1, 42240, Note_on_c, 9, 42, 106
1, 42240, Note_on_c, 9, 46, 95
1, 42479, Note_on_c, 9, 38, 0
1, 42479, Note_on_c, 9, 42, 0
1, 42479, Note_on_c, 9, 46, 0
1, 42560, Note_on_c, 9, 42, 90
1, 42599, Note_on_c, 9, 42, 0
1, 42720, Note_on_c, 9, 42, 120
1, 42959, Note_on_c, 9, 42, 0
1, 43040, Note_on_c, 9, 42, 90
1, 43079, Note_on_c, 9, 42, 0
1, 43200, Note_on_c, 9, 38, 112
1, 43200, Note_on_c, 9, 42, 106
1, 43200, Note_on_c, 9, 46, 95
1, 43439, Note_on_c, 9, 38, 0
1, 43439, Note_on_c, 9, 42, 0
1, 43439, Note_on_c, 9, 46, 0
1, 43440, Note_on_c, 9, 38, 112
1, 43519, Note_on_c, 9, 38, 0
1, 43520, Note_on_c, 9, 42, 90
1, 43559, Note_on_c, 9, 42, 0
1, 43680, Note_on_c, 9, 42, 106
1, 43919, Note_on_c, 9, 42, 0
1, 44000, Note_on_c, 9, 42, 90
1, 44039, Note_on_c, 9, 42, 0
1, 44160, Note_on_c, 9, 38, 126
1, 44160, Note_on_c, 9, 42, 106
1, 44160, Note_on_c, 9, 46, 95
1, 44399, Note_on_c, 9, 38, 0
1, 44399, Note_on_c, 9, 42, 0
1, 44399, Note_on_c, 9, 46, 0
1, 44480, Note_on_c, 9, 42, 90
1, 44519, Note_on_c, 9, 42, 0
1, 44640, Note_on_c, 9, 42, 120
1, 44879, Note_on_c, 9, 42, 0
1, 44960, Note_on_c, 9, 42, 90
1, 44999, Note_on_c, 9, 42, 0
1, 45120, Note_on_c, 9, 38, 112
1, 45120, Note_on_c, 9, 42, 106
1, 45120, Note_on_c, 9, 46, 95
1, 45359, Note_on_c, 9, 38, 0
1, 45359, Note_on_c, 9, 42, 0
1, 45359, Note_on_c, 9, 46, 0
1, 45360, Note_on_c, 9, 38, 112
1, 45439, Note_on_c, 9, 38, 0
1, 45440, Note_on_c, 9, 42, 90
1, 45479, Note_on_c, 9, 42, 0
1, 45600, Note_on_c, 9, 42, 106
1, 45839, Note_on_c, 9, 42, 0
1, 45920, Note_on_c, 9, 42, 90
1, 45959, Note_on_c, 9, 42, 0
1, 46080, Note_on_c, 9, 38, 126
1, 46080, Note_on_c, 9, 42, 106
1, 46080, Note_on_c, 9, 46, 95
1, 46319, Note_on_c, 9, 38, 0
1, 46319, Note_on_c, 9, 42, 0
1, 46319, Note_on_c, 9, 46, 0
1, 46400, Note_on_c, 9, 42, 90
1, 46439, Note_on_c, 9, 42, 0
1, 46560, Note_on_c, 9, 42, 120
1, 46799, Note_on_c, 9, 42, 0
1, 46880, Note_on_c, 9, 42, 90
1, 46919, Note_on_c, 9, 42, 0
1, 47040, Note_on_c, 9, 38, 112
1, 47040, Note_on_c, 9, 42, 106
1, 47040, Note_on_c, 9, 46, 95
1, 47279, Note_on_c, 9, 38, 0
1, 47279, Note_on_c, 9, 42, 0
1, 47279, Note_on_c, 9, 46, 0
1, 47280, Note_on_c, 9, 38, 112
1, 47359, Note_on_c, 9, 38, 0
1, 47360, Note_on_c, 9, 42, 90
1, 47399, Note_on_c, 9, 42, 0
1, 47520, Note_on_c, 9, 42, 106
1, 47759, Note_on_c, 9, 42, 0
1, 47840, Note_on_c, 9, 42, 90
1, 47879, Note_on_c, 9, 42, 0
1, 48000, Note_on_c, 9, 38, 126
1, 48000, Note_on_c, 9, 42, 106
1, 48000, Note_on_c, 9, 46, 95
1, 48239, Note_on_c, 9, 38, 0
1, 48239, Note_on_c, 9, 42, 0
1, 48239, Note_on_c, 9, 46, 0
1, 48320, Note_on_c, 9, 42, 90
1, 48359, Note_on_c, 9, 42, 0
1, 48480, Note_on_c, 9, 38, 16
1, 48480, Note_on_c, 9, 42, 120
1, 48719, Note_on_c, 9, 38, 0
1, 48719, Note_on_c, 9, 42, 0
1, 48800, Note_on_c, 9, 42, 90
1, 48839, Note_on_c, 9, 42, 0
1, 48960, Note_on_c, 9, 38, 126
1, 48960, Note_on_c, 9, 42, 106
1, 49199, Note_on_c, 9, 38, 0
1, 49199, Note_on_c, 9, 42, 0
1, 49280, Note_on_c, 9, 42, 90
1, 49319, Note_on_c, 9, 42, 0
1, 49440, Note_on_c, 9, 38, 32
1, 49440, Note_on_c, 9, 42, 106
1, 49440, Note_on_c, 9, 46, 95
1, 49679, Note_on_c, 9, 38, 0
1, 49679, Note_on_c, 9, 42, 0
1, 49679, Note_on_c, 9, 46, 0
1, 49760, Note_on_c, 9, 38, 48
1, 49919, Note_on_c, 9, 38, 0
1, 49920, Note_on_c, 9, 38, 64
1, 50079, Note_on_c, 9, 38, 0
1, 50080, Note_on_c, 9, 38, 96
1, 50239, Note_on_c, 9, 38, 0
1, 50240, Note_on_c, 9, 38, 126
1, 50399, Note_on_c, 9, 38, 0
1, 50400, Note_on_c, 9, 42, 120
1, 50400, Note_on_c, 9, 49, 125
1, 50639, Note_on_c, 9, 42, 0
1, 50639, Note_on_c, 9, 49, 0
1, 50720, Note_on_c, 9, 42, 90
1, 50759, Note_on_c, 9, 42, 0
1, 50880, Note_on_c, 9, 38, 112
1, 50880, Note_on_c, 9, 42, 106
1, 50880, Note_on_c, 9, 46, 95
1, 51119, Note_on_c, 9, 38, 0
1, 51119, Note_on_c, 9, 42, 0
1, 51119, Note_on_c, 9, 46, 0
1, 51200, Note_on_c, 9, 42, 90
1, 51239, Note_on_c, 9, 42, 0
1, 51360, Note_on_c, 9, 42, 106
1, 51599, Note_on_c, 9, 42, 0
1, 51680, Note_on_c, 9, 42, 90
1, 51719, Note_on_c, 9, 42, 0
1, 51840, Note_on_c, 9, 38, 112
1, 51840, Note_on_c, 9, 42, 106
1, 51840, Note_on_c, 9, 46, 95
1, 52079, Note_on_c, 9, 38, 0
1, 52079, Note_on_c, 9, 42, 0
1, 52079, Note_on_c, 9, 46, 0
1, 52160, Note_on_c, 9, 42, 90
1, 52199, Note_on_c, 9, 42, 0
1, 52320, Note_on_c, 9, 42, 120
1, 52559, Note_on_c, 9, 42, 0
1, 52640, Note_on_c, 9, 42, 90
1, 52679, Note_on_c, 9, 42, 0
1, 52800, Note_on_c, 9, 38, 112
1, 52800, Note_on_c, 9, 42, 106
1, 52800, Note_on_c, 9, 46, 95
1, 53039, Note_on_c, 9, 38, 0
1, 53039, Note_on_c, 9, 42, 0
1, 53039, Note_on_c, 9, 46, 0
1, 53040, Note_on_c, 9, 38, 112
1, 53119, Note_on_c, 9, 38, 0
1, 53120, Note_on_c, 9, 42, 90
1, 53159, Note_on_c, 9, 42, 0
1, 53280, Note_on_c, 9, 42, 106
1, 53519, Note_on_c, 9, 42, 0
1, 53600, Note_on_c, 9, 42, 90
1, 53639, Note_on_c, 9, 42, 0
1, 53760, Note_on_c, 9, 38, 126
1, 53760, Note_on_c, 9, 42, 106
1, 53760, Note_on_c, 9, 46, 95
1, 53999, Note_on_c, 9, 38, 0
1, 53999, Note_on_c, 9, 42, 0
1, 53999, Note_on_c, 9, 46, 0
1, 54080, Note_on_c, 9, 42, 90
1, 54119, Note_on_c, 9, 42, 0
1, 54240, Note_on_c, 9, 42, 120
1, 54479, Note_on_c, 9, 42, 0
1, 54560, Note_on_c, 9, 42, 90
1, 54599, Note_on_c, 9, 42, 0
1, 54720, Note_on_c, 9, 38, 112
1, 54720, Note_on_c, 9, 42, 106
1, 54720, Note_on_c, 9, 46, 95
1, 54959, Note_on_c, 9, 38, 0
1, 54959, Note_on_c, 9, 42, 0
1, 54959, Note_on_c, 9, 46, 0
1, 54960, Note_on_c, 9, 38, 112
1, 55039, Note_on_c, 9, 38, 0
1, 55040, Note_on_c, 9, 42, 90
1, 55079, Note_on_c, 9, 42, 0
1, 55200, Note_on_c, 9, 42, 106
1, 55439, Note_on_c, 9, 42, 0
1, 55520, Note_on_c, 9, 42, 90
1, 55559, Note_on_c, 9, 42, 0
1, 55680, Note_on_c, 9, 38, 126
1, 55680, Note_on_c, 9, 42, 106
1, 55680, Note_on_c, 9, 46, 95
1, 55919, Note_on_c, 9, 38, 0
1, 55919, Note_on_c, 9, 42, 0
1, 55919, Note_on_c, 9, 46, 0
1, 56000, Note_on_c, 9, 42, 90
1, 56039, Note_on_c, 9, 42, 0
1, 56160, Note_on_c, 9, 42, 120
1, 56399, Note_on_c, 9, 42, 0
1, 56480, Note_on_c, 9, 42, 90
1, 56519, Note_on_c, 9, 42, 0
1, 56640, Note_on_c, 9, 38, 112
1, 56640, Note_on_c, 9, 42, 106
1, 56640, Note_on_c, 9, 46, 95
1, 56879, Note_on_c, 9, 38, 0
1, 56879, Note_on_c, 9, 42, 0
1, 56879, Note_on_c, 9, 46, 0
1, 56880, Note_on_c, 9, 38, 112
1, 56959, Note_on_c, 9, 38, 0
1, 56960, Note_on_c, 9, 42, 90
1, 56999, Note_on_c, 9, 42, 0
1, 57120, Note_on_c, 9, 42, 106
1, 57359, Note_on_c, 9, 42, 0
1, 57440, Note_on_c, 9, 42, 90
1, 57479, Note_on_c, 9, 42, 0
1, 57600, Note_on_c, 9, 38, 126
1, 57600, Note_on_c, 9, 42, 106
1, 57600, Note_on_c, 9, 46, 95
1, 57839, Note_on_c, 9, 38, 0
1, 57839, Note_on_c, 9, 42, 0
1, 57839, Note_on_c, 9, 46, 0
1, 57920, Note_on_c, 9, 42, 90
1, 57959, Note_on_c, 9, 42, 0
1, 58080, Note_on_c, 9, 42, 120
1, 58319, Note_on_c, 9, 42, 0
1, 58400, Note_on_c, 9, 42, 90
1, 58439, Note_on_c, 9, 42, 0
1, 58560, Note_on_c, 9, 38, 112
1, 58560, Note_on_c, 9, 42, 106
1, 58560, Note_on_c, 9, 46, 95
1, 58799, Note_on_c, 9, 38, 0
1, 58799, Note_on_c, 9, 42, 0
1, 58799, Note_on_c, 9, 46, 0
1, 58800, Note_on_c, 9, 38, 112
1, 58879, Note_on_c, 9, 38, 0
1, 58880, Note_on_c, 9, 42, 90
1, 58919, Note_on_c, 9, 42, 0
1, 59040, Note_on_c, 9, 42, 106
1, 59279, Note_on_c, 9, 42, 0
1, 59360, Note_on_c, 9, 42, 90
1, 59399, Note_on_c, 9, 42, 0
1, 59520, Note_on_c, 9, 38, 126
1, 59520, Note_on_c, 9, 42, 106
1, 59520, Note_on_c, 9, 46, 95
1, 59759, Note_on_c, 9, 38, 0
1, 59759, Note_on_c, 9, 42, 0
1, 59759, Note_on_c, 9, 46, 0
1, 59840, Note_on_c, 9, 42, 90
1, 59879, Note_on_c, 9, 42, 0
1, 60000, Note_on_c, 9, 42, 120
1, 60239, Note_on_c, 9, 42, 0
1, 60320, Note_on_c, 9, 42, 90
1, 60359, Note_on_c, 9, 42, 0
1, 60480, Note_on_c, 9, 38, 112
1, 60480, Note_on_c, 9, 42, 106
1, 60480, Note_on_c, 9, 46, 95
1, 60719, Note_on_c, 9, 38, 0
1, 60719, Note_on_c, 9, 42, 0
1, 60719, Note_on_c, 9, 46, 0
1, 60720, Note_on_c, 9, 38, 112
1, 60799, Note_on_c, 9, 38, 0
1, 60800, Note_on_c, 9, 42, 90
1, 60839, Note_on_c, 9, 42, 0
1, 60960, Note_on_c, 9, 42, 106
1, 61199, Note_on_c, 9, 42, 0
1, 61280, Note_on_c, 9, 42, 90
1, 61319, Note_on_c, 9, 42, 0
1, 61440, Note_on_c, 9, 38, 126
1, 61440, Note_on_c, 9, 42, 106
1, 61440, Note_on_c, 9, 46, 95
1, 61679, Note_on_c, 9, 38, 0
1, 61679, Note_on_c, 9, 42, 0
1, 61679, Note_on_c, 9, 46, 0
1, 61760, Note_on_c, 9, 42, 90
1, 61799, Note_on_c, 9, 42, 0
1, 61920, Note_on_c, 9, 42, 120
1, 62159, Note_on_c, 9, 42, 0
1, 62240, Note_on_c, 9, 42, 90
1, 62279, Note_on_c, 9, 42, 0
1, 62400, Note_on_c, 9, 38, 112
1, 62400, Note_on_c, 9, 42, 106
1, 62400, Note_on_c, 9, 46, 95
1, 62639, Note_on_c, 9, 38, 0
1, 62639, Note_on_c, 9, 42, 0
1, 62639, Note_on_c, 9, 46, 0
1, 62640, Note_on_c, 9, 38, 112
1, 62719, Note_on_c, 9, 38, 0
1, 62720, Note_on_c, 9, 42, 90
1, 62759, Note_on_c, 9, 42, 0
1, 62880, Note_on_c, 9, 42, 106
1, 63119, Note_on_c, 9, 42, 0
1, 63200, Note_on_c, 9, 42, 90
1, 63239, Note_on_c, 9, 42, 0
1, 63360, Note_on_c, 9, 38, 126
1, 63360, Note_on_c, 9, 42, 106
1, 63360, Note_on_c, 9, 46, 95
1, 63599, Note_on_c, 9, 38, 0
1, 63599, Note_on_c, 9, 42, 0
1, 63599, Note_on_c, 9, 46, 0
1, 63680, Note_on_c, 9, 42, 90
1, 63719, Note_on_c, 9, 42, 0
1, 63840, Note_on_c, 9, 38, 126
1, 63840, Note_on_c, 9, 49, 107
1, 64079, Note_on_c, 9, 38, 0
1, 64079, Note_on_c, 9, 49, 0
1, 64160, Note_on_c, 9, 38, 112
1, 64319, Note_on_c, 9, 38, 0
1, 64320, Note_on_c, 9, 38, 126
1, 64320, Note_on_c, 9, 49, 107
1, 64559, Note_on_c, 9, 38, 0
1, 64559, Note_on_c, 9, 49, 0
1, 64640, Note_on_c, 9, 38, 112
1, 64799, Note_on_c, 9, 38, 0
1, 64800, Note_on_c, 9, 38, 126
1, 65039, Note_on_c, 9, 38, 0
1, 65120, Note_on_c, 9, 38, 112
1, 65279, Note_on_c, 9, 38, 0
1, 65280, Note_on_c, 9, 38, 126
1, 65280, Note_on_c, 9, 49, 107
1, 65519, Note_on_c, 9, 38, 0
1, 65519, Note_on_c, 9, 49, 0
1, 65600, Note_on_c, 9, 38, 126
1, 65759, Note_on_c, 9, 38, 0
1, 65760, Note_on_c, 9, 51, 120
1, 65999, Note_on_c, 9, 51, 0
1, 66080, Note_on_c, 9, 51, 90
1, 66119, Note_on_c, 9, 51, 0
1, 66240, Note_on_c, 9, 38, 126
1, 66240, Note_on_c, 9, 51, 106
1, 66479, Note_on_c, 9, 38, 0
1, 66479, Note_on_c, 9, 51, 0
1, 66560, Note_on_c, 9, 51, 90
1, 66599, Note_on_c, 9, 51, 0
1, 66720, Note_on_c, 9, 51, 106
1, 66959, Note_on_c, 9, 51, 0
1, 67040, Note_on_c, 9, 51, 90
1, 67079, Note_on_c, 9, 51, 0
1, 67200, Note_on_c, 9, 38, 126
1, 67200, Note_on_c, 9, 51, 106
1, 67439, Note_on_c, 9, 38, 0
1, 67439, Note_on_c, 9, 51, 0
1, 67520, Note_on_c, 9, 51, 106
1, 67559, Note_on_c, 9, 51, 0
1, 67680, Note_on_c, 9, 51, 120
1, 67919, Note_on_c, 9, 51, 0
1, 68000, Note_on_c, 9, 51, 90
1, 68039, Note_on_c, 9, 51, 0
1, 68160, Note_on_c, 9, 38, 126
1, 68160, Note_on_c, 9, 51, 106
1, 68399, Note_on_c, 9, 38, 0
1, 68399, Note_on_c, 9, 51, 0
1, 68480, Note_on_c, 9, 51, 90
1, 68519, Note_on_c, 9, 51, 0
1, 68640, Note_on_c, 9, 51, 106
1, 68879, Note_on_c, 9, 51, 0
1, 68960, Note_on_c, 9, 51, 90
1, 68999, Note_on_c, 9, 51, 0
1, 69120, Note_on_c, 9, 38, 126
1, 69120, Note_on_c, 9, 51, 106
1, 69359, Note_on_c, 9, 38, 0
1, 69359, Note_on_c, 9, 51, 0
1, 69440, Note_on_c, 9, 51, 106
1, 69479, Note_on_c, 9, 51, 0
1, 69600, Note_on_c, 9, 51, 120
1, 69839, Note_on_c, 9, 51, 0
1, 69920, Note_on_c, 9, 51, 90
1, 69959, Note_on_c, 9, 51, 0
1, 70080, Note_on_c, 9, 38, 126
1, 70080, Note_on_c, 9, 51, 106
1, 70319, Note_on_c, 9, 38, 0
1, 70319, Note_on_c, 9, 51, 0
1, 70400, Note_on_c, 9, 51, 90
1, 70439, Note_on_c, 9, 51, 0
1, 70560, Note_on_c, 9, 51, 106
1, 70799, Note_on_c, 9, 51, 0
1, 70880, Note_on_c, 9, 51, 90
1, 70919, Note_on_c, 9, 51, 0
1, 71040, Note_on_c, 9, 38, 126
1, 71040, Note_on_c, 9, 51, 106
1, 71279, Note_on_c, 9, 38, 0
1, 71279, Note_on_c, 9, 51, 0
1, 71360, Note_on_c, 9, 51, 106
1, 71399, Note_on_c, 9, 51, 0
1, 71520, Note_on_c, 9, 51, 120
1, 71759, Note_on_c, 9, 51, 0
1, 71840, Note_on_c, 9, 51, 90
1, 71879, Note_on_c, 9, 51, 0
1, 72000, Note_on_c, 9, 38, 126
1, 72000, Note_on_c, 9, 51, 106
1, 72239, Note_on_c, 9, 38, 0
1, 72239, Note_on_c, 9, 51, 0
1, 72320, Note_on_c, 9, 51, 90
1, 72359, Note_on_c, 9, 51, 0
1, 72480, Note_on_c, 9, 51, 106
1, 72719, Note_on_c, 9, 51, 0
1, 72800, Note_on_c, 9, 51, 90
1, 72839, Note_on_c, 9, 51, 0
1, 72960, Note_on_c, 9, 38, 126
1, 72960, Note_on_c, 9, 51, 106
1, 73199, Note_on_c, 9, 38, 0
1, 73199, Note_on_c, 9, 51, 0
1, 73280, Note_on_c, 9, 51, 106
1, 73319, Note_on_c, 9, 51, 0
1, 73440, Note_on_c, 9, 51, 120
1, 73679, Note_on_c, 9, 51, 0
1, 73760, Note_on_c, 9, 51, 90
1, 73799, Note_on_c, 9, 51, 0
1, 73920, Note_on_c, 9, 38, 126
1, 73920, Note_on_c, 9, 51, 106
1, 74159, Note_on_c, 9, 38, 0
1, 74159, Note_on_c, 9, 51, 0
1, 74240, Note_on_c, 9, 51, 90
1, 74279, Note_on_c, 9, 51, 0
1, 74400, Note_on_c, 9, 51, 106
1, 74639, Note_on_c, 9, 51, 0
1, 74720, Note_on_c, 9, 51, 90
1, 74759, Note_on_c, 9, 51, 0
1, 74880, Note_on_c, 9, 38, 126
1, 74880, Note_on_c, 9, 51, 106
1, 75119, Note_on_c, 9, 38, 0
1, 75119, Note_on_c, 9, 51, 0
1, 75200, Note_on_c, 9, 51, 106
1, 75239, Note_on_c, 9, 51, 0
1, 75360, Note_on_c, 9, 51, 120
1, 75599, Note_on_c, 9, 51, 0
1, 75680, Note_on_c, 9, 51, 90
1, 75719, Note_on_c, 9, 51, 0
1, 75840, Note_on_c, 9, 38, 126
1, 75840, Note_on_c, 9, 51, 106
1, 76079, Note_on_c, 9, 38, 0
1, 76079, Note_on_c, 9, 51, 0
1, 76160, Note_on_c, 9, 51, 90
1, 76199, Note_on_c, 9, 51, 0
1, 76320, Note_on_c, 9, 51, 106
1, 76559, Note_on_c, 9, 51, 0
1, 76640, Note_on_c, 9, 51, 90
1, 76679, Note_on_c, 9, 51, 0
1, 76800, Note_on_c, 9, 38, 126
1, 76800, Note_on_c, 9, 51, 106
1, 77039, Note_on_c, 9, 38, 0
1, 77039, Note_on_c, 9, 51, 0
1, 77120, Note_on_c, 9, 51, 106
1, 77159, Note_on_c, 9, 51, 0
1, 77280, Note_on_c, 9, 51, 120
1, 77519, Note_on_c, 9, 51, 0
1, 77600, Note_on_c, 9, 51, 90
1, 77639, Note_on_c, 9, 51, 0
1, 77760, Note_on_c, 9, 38, 126
1, 77760, Note_on_c, 9, 51, 106
1, 77999, Note_on_c, 9, 38, 0
1, 77999, Note_on_c, 9, 51, 0
1, 78080, Note_on_c, 9, 51, 90
1, 78119, Note_on_c, 9, 51, 0
1, 78240, Note_on_c, 9, 51, 106
1, 78479, Note_on_c, 9, 51, 0
1, 78560, Note_on_c, 9, 51, 90
1, 78599, Note_on_c, 9, 51, 0
1, 78720, Note_on_c, 9, 38, 126
1, 78720, Note_on_c, 9, 51, 106
1, 78959, Note_on_c, 9, 38, 0
1, 78959, Note_on_c, 9, 51, 0
1, 79040, Note_on_c, 9, 51, 106
1, 79079, Note_on_c, 9, 51, 0
1, 79200, Note_on_c, 9, 51, 120
1, 79439, Note_on_c, 9, 51, 0
1, 79520, Note_on_c, 9, 51, 90
1, 79559, Note_on_c, 9, 51, 0
1, 79680, Note_on_c, 9, 38, 126
1, 79680, Note_on_c, 9, 51, 106
1, 79919, Note_on_c, 9, 38, 0
1, 79919, Note_on_c, 9, 51, 0
1, 80000, Note_on_c, 9, 51, 90
1, 80039, Note_on_c, 9, 51, 0
1, 80160, Note_on_c, 9, 51, 106
1, 80399, Note_on_c, 9, 51, 0
1, 80480, Note_on_c, 9, 51, 90
1, 80519, Note_on_c, 9, 51, 0
1, 80640, Note_on_c, 9, 38, 126
1, 80640, Note_on_c, 9, 51, 106
1, 80879, Note_on_c, 9, 38, 0
1, 80879, Note_on_c, 9, 51, 0
1, 80960, Note_on_c, 9, 51, 106
1, 80999, Note_on_c, 9, 51, 0
1, 81120, Note_on_c, 9, 51, 120
1, 81359, Note_on_c, 9, 51, 0
1, 81440, Note_on_c, 9, 51, 90
1, 81479, Note_on_c, 9, 51, 0
1, 81600, Note_on_c, 9, 38, 126
1, 81600, Note_on_c, 9, 51, 106
1, 81839, Note_on_c, 9, 38, 0
1, 81839, Note_on_c, 9, 51, 0
1, 81920, Note_on_c, 9, 51, 90
1, 81959, Note_on_c, 9, 51, 0
1, 82080, Note_on_c, 9, 51, 106
1, 82319, Note_on_c, 9, 51, 0
1, 82400, Note_on_c, 9, 51, 90
1, 82439, Note_on_c, 9, 51, 0
1, 82560, Note_on_c, 9, 38, 126
1, 82560, Note_on_c, 9, 51, 106
1, 82799, Note_on_c, 9, 38, 0
1, 82799, Note_on_c, 9, 51, 0
1, 82880, Note_on_c, 9, 51, 106
1, 82919, Note_on_c, 9, 51, 0
1, 83040, Note_on_c, 9, 51, 120
1, 83279, Note_on_c, 9, 51, 0
1, 83360, Note_on_c, 9, 51, 90
1, 83399, Note_on_c, 9, 51, 0
1, 83520, Note_on_c, 9, 38, 126
1, 83520, Note_on_c, 9, 51, 106
1, 83759, Note_on_c, 9, 38, 0
1, 83759, Note_on_c, 9, 51, 0
1, 83840, Note_on_c, 9, 51, 90
1, 83879, Note_on_c, 9, 51, 0
1, 84000, Note_on_c, 9, 51, 106
1, 84239, Note_on_c, 9, 51, 0
1, 84320, Note_on_c, 9, 51, 90
1, 84359, Note_on_c, 9, 51, 0
1, 84480, Note_on_c, 9, 38, 126
1, 84480, Note_on_c, 9, 51, 106
1, 84719, Note_on_c, 9, 38, 0
1, 84719, Note_on_c, 9, 51, 0
1, 84800, Note_on_c, 9, 51, 106
1, 84839, Note_on_c, 9, 51, 0
1, 84960, Note_on_c, 9, 51, 120
1, 85199, Note_on_c, 9, 51, 0
1, 85280, Note_on_c, 9, 51, 90
1, 85319, Note_on_c, 9, 51, 0
1, 85440, Note_on_c, 9, 38, 126
1, 85440, Note_on_c, 9, 51, 106
1, 85679, Note_on_c, 9, 38, 0
1, 85679, Note_on_c, 9, 51, 0
1, 85760, Note_on_c, 9, 51, 90
1, 85799, Note_on_c, 9, 51, 0
1, 85920, Note_on_c, 9, 51, 106
1, 86159, Note_on_c, 9, 51, 0
1, 86240, Note_on_c, 9, 51, 90
1, 86279, Note_on_c, 9, 51, 0
1, 86400, Note_on_c, 9, 38, 126
1, 86400, Note_on_c, 9, 51, 106
1, 86639, Note_on_c, 9, 38, 0
1, 86639, Note_on_c, 9, 51, 0
1, 86720, Note_on_c, 9, 51, 106
1, 86759, Note_on_c, 9, 51, 0
1, 86880, Note_on_c, 9, 51, 120
1, 87119, Note_on_c, 9, 51, 0
1, 87200, Note_on_c, 9, 51, 90
1, 87239, Note_on_c, 9, 51, 0
1, 87360, Note_on_c, 9, 38, 126
1, 87360, Note_on_c, 9, 51, 106
1, 87599, Note_on_c, 9, 38, 0
1, 87599, Note_on_c, 9, 51, 0
1, 87680, Note_on_c, 9, 51, 90
1, 87719, Note_on_c, 9, 51, 0
1, 87840, Note_on_c, 9, 51, 106
1, 88079, Note_on_c, 9, 51, 0
1, 88160, Note_on_c, 9, 51, 90
1, 88199, Note_on_c, 9, 51, 0
1, 88320, Note_on_c, 9, 38, 126
1, 88320, Note_on_c, 9, 51, 106
1, 88559, Note_on_c, 9, 38, 0
1, 88559, Note_on_c, 9, 51, 0
1, 88640, Note_on_c, 9, 51, 106
1, 88679, Note_on_c, 9, 51, 0
1, 88800, Note_on_c, 9, 51, 120
1, 89039, Note_on_c, 9, 51, 0
1, 89120, Note_on_c, 9, 51, 98
1, 89159, Note_on_c, 9, 51, 0
1, 89280, Note_on_c, 9, 38, 126
1, 89280, Note_on_c, 9, 51, 114
1, 89519, Note_on_c, 9, 38, 0
1, 89519, Note_on_c, 9, 51, 0
1, 89600, Note_on_c, 9, 51, 98
1, 89639, Note_on_c, 9, 51, 0
1, 89760, Note_on_c, 9, 51, 114
1, 89999, Note_on_c, 9, 51, 0
1, 90080, Note_on_c, 9, 51, 98
1, 90119, Note_on_c, 9, 51, 0
1, 90240, Note_on_c, 9, 38, 126
1, 90240, Note_on_c, 9, 51, 114
1, 90479, Note_on_c, 9, 38, 0
1, 90479, Note_on_c, 9, 51, 0
1, 90560, Note_on_c, 9, 51, 114
1, 90599, Note_on_c, 9, 51, 0
1, 90720, Note_on_c, 9, 51, 120
1, 90959, Note_on_c, 9, 51, 0
1, 91040, Note_on_c, 9, 51, 90
1, 91079, Note_on_c, 9, 51, 0
1, 91200, Note_on_c, 9, 38, 126
1, 91200, Note_on_c, 9, 51, 106
1, 91439, Note_on_c, 9, 38, 0
1, 91439, Note_on_c, 9, 51, 0
1, 91520, Note_on_c, 9, 51, 90
1, 91559, Note_on_c, 9, 51, 0
1, 91680, Note_on_c, 9, 51, 106
1, 91919, Note_on_c, 9, 51, 0
1, 92000, Note_on_c, 9, 51, 90
1, 92039, Note_on_c, 9, 51, 0
1, 92160, Note_on_c, 9, 38, 126
1, 92160, Note_on_c, 9, 51, 106
1, 92399, Note_on_c, 9, 38, 0
1, 92399, Note_on_c, 9, 51, 0
1, 92480, Note_on_c, 9, 51, 106
1, 92519, Note_on_c, 9, 51, 0
1, 92640, Note_on_c, 9, 51, 120
1, 92879, Note_on_c, 9, 51, 0
1, 92960, Note_on_c, 9, 51, 90
1, 92999, Note_on_c, 9, 51, 0
1, 93120, Note_on_c, 9, 38, 126
1, 93120, Note_on_c, 9, 51, 106
1, 93359, Note_on_c, 9, 38, 0
1, 93359, Note_on_c, 9, 51, 0
1, 93440, Note_on_c, 9, 51, 90
1, 93479, Note_on_c, 9, 51, 0
1, 93600, Note_on_c, 9, 51, 106
1, 93839, Note_on_c, 9, 51, 0
1, 93920, Note_on_c, 9, 51, 90
1, 93959, Note_on_c, 9, 51, 0
1, 94080, Note_on_c, 9, 38, 126
1, 94080, Note_on_c, 9, 51, 106
1, 94399, Note_on_c, 9, 38, 0
1, 94399, Note_on_c, 9, 51, 0
1, 94400, Note_on_c, 9, 51, 106
1, 94559, Note_on_c, 9, 51, 0
1, 94560, Note_on_c, 9, 38, 32
1, 94560, Note_on_c, 9, 49, 125
1, 94879, Note_on_c, 9, 38, 0
1, 94879, Note_on_c, 9, 49, 0
1, 94880, Note_on_c, 9, 38, 126
1, 95039, Note_on_c, 9, 38, 0
1, 95040, Note_on_c, 9, 41, 120
1, 95040, Note_on_c, 9, 45, 120
1, 95519, Note_on_c, 9, 41, 0
1, 95519, Note_on_c, 9, 45, 0
1, 95520, Note_on_c, 9, 38, 64
1, 95534, Note_on_c, 9, 38, 0
1, 95535, Note_on_c, 9, 38, 64
1, 95594, Note_on_c, 9, 38, 0
1, 95700, Note_on_c, 9, 38, 64
1, 95759, Note_on_c, 9, 38, 0
1, 95820, Note_on_c, 9, 38, 64
1, 95999, Note_on_c, 9, 38, 0
1, 96000, Note_on_c, 9, 38, 48
1, 96000, Note_on_c, 9, 45, 120
1, 96159, Note_on_c, 9, 38, 0
1, 96159, Note_on_c, 9, 45, 0
1, 96160, Note_on_c, 9, 38, 80
1, 96239, Note_on_c, 9, 38, 0
1, 96320, Note_on_c, 9, 38, 64
1, 96320, Note_on_c, 9, 41, 120
1, 96339, Note_on_c, 9, 38, 0
1, 96339, Note_on_c, 9, 41, 0
1, 96340, Note_on_c, 9, 38, 64
1, 96359, Note_on_c, 9, 38, 0
1, 96480, Note_on_c, 9, 42, 120
1, 96480, Note_on_c, 9, 49, 125
1, 96719, Note_on_c, 9, 42, 0
1, 96719, Note_on_c, 9, 49, 0
1, 96800, Note_on_c, 9, 42, 90
1, 96839, Note_on_c, 9, 42, 0
1, 96960, Note_on_c, 9, 38, 112
1, 96960, Note_on_c, 9, 42, 106
1, 96960, Note_on_c, 9, 46, 95
1, 97199, Note_on_c, 9, 38, 0
1, 97199, Note_on_c, 9, 42, 0
1, 97199, Note_on_c, 9, 46, 0
1, 97280, Note_on_c, 9, 42, 90
1, 97319, Note_on_c, 9, 42, 0
1, 97440, Note_on_c, 9, 42, 106
1, 97679, Note_on_c, 9, 42, 0
1, 97760, Note_on_c, 9, 42, 90
1, 97799, Note_on_c, 9, 42, 0
1, 97920, Note_on_c, 9, 38, 112
1, 97920, Note_on_c, 9, 42, 106
1, 97920, Note_on_c, 9, 46, 95
1, 98159, Note_on_c, 9, 38, 0
1, 98159, Note_on_c, 9, 42, 0
1, 98159, Note_on_c, 9, 46, 0
1, 98240, Note_on_c, 9, 42, 90
1, 98279, Note_on_c, 9, 42, 0
1, 98400, Note_on_c, 9, 42, 120
1, 98639, Note_on_c, 9, 42, 0
1, 98720, Note_on_c, 9, 42, 90
1, 98759, Note_on_c, 9, 42, 0
1, 98880, Note_on_c, 9, 38, 112
1, 98880, Note_on_c, 9, 42, 106
1, 98880, Note_on_c, 9, 46, 95
1, 99119, Note_on_c, 9, 38, 0
1, 99119, Note_on_c, 9, 42, 0
1, 99119, Note_on_c, 9, 46, 0
1, 99120, Note_on_c, 9, 38, 112
1, 99199, Note_on_c, 9, 38, 0
1, 99200, Note_on_c, 9, 42, 90
1, 99239, Note_on_c, 9, 42, 0
1, 99360, Note_on_c, 9, 42, 106
1, 99599, Note_on_c, 9, 42, 0
1, 99680, Note_on_c, 9, 42, 90
1, 99719, Note_on_c, 9, 42, 0
1, 99840, Note_on_c, 9, 38, 126
1, 99840, Note_on_c, 9, 42, 106
1, 99840, Note_on_c, 9, 46, 95
1, 100079, Note_on_c, 9, 38, 0
1, 100079, Note_on_c, 9, 42, 0
1, 100079, Note_on_c, 9, 46, 0
1, 100160, Note_on_c, 9, 42, 90
1, 100199, Note_on_c, 9, 42, 0
1, 100320, Note_on_c, 9, 42, 120
1, 100559, Note_on_c, 9, 42, 0
1, 100640, Note_on_c, 9, 42, 90
1, 100679, Note_on_c, 9, 42, 0
1, 100800, Note_on_c, 9, 38, 112
1, 100800, Note_on_c, 9, 42, 106
1, 100800, Note_on_c, 9, 46, 95
1, 101039, Note_on_c, 9, 38, 0
1, 101039, Note_on_c, 9, 42, 0
1, 101039, Note_on_c, 9, 46, 0
1, 101040, Note_on_c, 9, 38, 112
1, 101119, Note_on_c, 9, 38, 0
1, 101120, Note_on_c, 9, 42, 90
1, 101159, Note_on_c, 9, 42, 0
1, 101280, Note_on_c, 9, 42, 106
1, 101519, Note_on_c, 9, 42, 0
1, 101600, Note_on_c, 9, 42, 90
1, 101639, Note_on_c, 9, 42, 0
1, 101760, Note_on_c, 9, 38, 126
1, 101760, Note_on_c, 9, 42, 106
1, 101760, Note_on_c, 9, 46, 95
1, 101999, Note_on_c, 9, 38, 0
1, 101999, Note_on_c, 9, 42, 0
1, 101999, Note_on_c, 9, 46, 0
1, 102080, Note_on_c, 9, 42, 90
1, 102119, Note_on_c, 9, 42, 0
1, 102240, Note_on_c, 9, 42, 120
1, 102479, Note_on_c, 9, 42, 0
1, 102560, Note_on_c, 9, 42, 90
1, 102599, Note_on_c, 9, 42, 0
1, 102720, Note_on_c, 9, 38, 112
1, 102720, Note_on_c, 9, 42, 106
1, 102720, Note_on_c, 9, 46, 95
1, 102959, Note_on_c, 9, 38, 0
1, 102959, Note_on_c, 9, 42, 0
1, 102959, Note_on_c, 9, 46, 0
1, 102960, Note_on_c, 9, 38, 112
1, 103039, Note_on_c, 9, 38, 0
1, 103040, Note_on_c, 9, 42, 90
1, 103079, Note_on_c, 9, 42, 0
1, 103200, Note_on_c, 9, 42, 106
1, 103439, Note_on_c, 9, 42, 0
1, 103520, Note_on_c, 9, 42, 90
1, 103559, Note_on_c, 9, 42, 0
1, 103680, Note_on_c, 9, 38, 126
1, 103680, Note_on_c, 9, 42, 106
1, 103680, Note_on_c, 9, 46, 95
1, 103919, Note_on_c, 9, 38, 0
1, 103919, Note_on_c, 9, 42, 0
1, 103919, Note_on_c, 9, 46, 0
1, 104000, Note_on_c, 9, 42, 90
1, 104039, Note_on_c, 9, 42, 0
1, 104160, Note_on_c, 9, 42, 120
1, 104399, Note_on_c, 9, 42, 0
1, 104480, Note_on_c, 9, 42, 90
1, 104519, Note_on_c, 9, 42, 0
1, 104640, Note_on_c, 9, 38, 112
1, 104640, Note_on_c, 9, 42, 106
1, 104640, Note_on_c, 9, 46, 95
1, 104879, Note_on_c, 9, 38, 0
1, 104879, Note_on_c, 9, 42, 0
1, 104879, Note_on_c, 9, 46, 0
1, 104880, Note_on_c, 9, 38, 112
1, 104959, Note_on_c, 9, 38, 0
1, 104960, Note_on_c, 9, 42, 90
1, 104999, Note_on_c, 9, 42, 0
1, 105120, Note_on_c, 9, 42, 106
1, 105359, Note_on_c, 9, 42, 0
1, 105440, Note_on_c, 9, 42, 90
1, 105479, Note_on_c, 9, 42, 0
1, 105600, Note_on_c, 9, 38, 126
1, 105600, Note_on_c, 9, 42, 106
1, 105600, Note_on_c, 9, 46, 95
1, 105839, Note_on_c, 9, 38, 0
1, 105839, Note_on_c, 9, 42, 0
1, 105839, Note_on_c, 9, 46, 0
1, 105920, Note_on_c, 9, 42, 90
1, 105959, Note_on_c, 9, 42, 0
1, 106080, Note_on_c, 9, 42, 120
1, 106319, Note_on_c, 9, 42, 0
1, 106400, Note_on_c, 9, 42, 90
1, 106439, Note_on_c, 9, 42, 0
1, 106560, Note_on_c, 9, 38, 112
1, 106560, Note_on_c, 9, 42, 106
1, 106560, Note_on_c, 9, 46, 95
1, 106799, Note_on_c, 9, 38, 0
1, 106799, Note_on_c, 9, 42, 0
1, 106799, Note_on_c, 9, 46, 0
1, 106800, Note_on_c, 9, 38, 112
1, 106879, Note_on_c, 9, 38, 0
1, 106880, Note_on_c, 9, 42, 90
1, 106919, Note_on_c, 9, 42, 0
1, 107040, Note_on_c, 9, 42, 106
1, 107279, Note_on_c, 9, 42, 0
1, 107360, Note_on_c, 9, 42, 90
1, 107399, Note_on_c, 9, 42, 0
1, 107520, Note_on_c, 9, 38, 126
1, 107520, Note_on_c, 9, 42, 106
1, 107520, Note_on_c, 9, 46, 95
1, 107759, Note_on_c, 9, 38, 0
1, 107759, Note_on_c, 9, 42, 0
1, 107759, Note_on_c, 9, 46, 0
1, 107840, Note_on_c, 9, 42, 90
1, 107879, Note_on_c, 9, 42, 0
1, 108000, Note_on_c, 9, 42, 120
1, 108239, Note_on_c, 9, 42, 0
1, 108320, Note_on_c, 9, 42, 90
1, 108359, Note_on_c, 9, 42, 0
1, 108480, Note_on_c, 9, 38, 112
1, 108480, Note_on_c, 9, 42, 106
1, 108480, Note_on_c, 9, 46, 95
1, 108719, Note_on_c, 9, 38, 0
1, 108719, Note_on_c, 9, 42, 0
1, 108719, Note_on_c, 9, 46, 0
1, 108720, Note_on_c, 9, 38, 112
1, 108799, Note_on_c, 9, 38, 0
1, 108800, Note_on_c, 9, 42, 90
1, 108839, Note_on_c, 9, 42, 0
1, 108960, Note_on_c, 9, 42, 106
1, 109199, Note_on_c, 9, 42, 0
1, 109280, Note_on_c, 9, 42, 90
1, 109319, Note_on_c, 9, 42, 0
1, 109440, Note_on_c, 9, 38, 126
1, 109440, Note_on_c, 9, 42, 106
1, 109440, Note_on_c, 9, 46, 95
1, 109679, Note_on_c, 9, 38, 0
1, 109679, Note_on_c, 9, 42, 0
1, 109679, Note_on_c, 9, 46, 0
1, 109760, Note_on_c, 9, 42, 90
1, 109799, Note_on_c, 9, 42, 0
1, 109920, Note_on_c, 9, 42, 120
1, 110159, Note_on_c, 9, 42, 0
1, 110240, Note_on_c, 9, 42, 90
1, 110279, Note_on_c, 9, 42, 0
1, 110400, Note_on_c, 9, 38, 126
1, 110400, Note_on_c, 9, 42, 106
1, 110639, Note_on_c, 9, 38, 0
1, 110639, Note_on_c, 9, 42, 0
1, 110720, Note_on_c, 9, 42, 90
1, 110759, Note_on_c, 9, 42, 0
1, 110880, Note_on_c, 9, 46, 95
1, 111119, Note_on_c, 9, 46, 0
1, 111200, Note_on_c, 9, 38, 80
1, 111359, Note_on_c, 9, 38, 0
1, 111360, Note_on_c, 9, 38, 112
1, 111599, Note_on_c, 9, 38, 0
1, 111680, Note_on_c, 9, 38, 126
1, 111839, Note_on_c, 9, 38, 0
1, 111840, Note_on_c, 9, 42, 120
1, 111840, Note_on_c, 9, 49, 125
1, 112079, Note_on_c, 9, 42, 0
1, 112079, Note_on_c, 9, 49, 0
1, 112160, Note_on_c, 9, 42, 90
1, 112199, Note_on_c, 9, 42, 0
1, 112320, Note_on_c, 9, 38, 112
1, 112320, Note_on_c, 9, 42, 106
1, 112320, Note_on_c, 9, 46, 95
1, 112559, Note_on_c, 9, 38, 0
1, 112559, Note_on_c, 9, 42, 0
1, 112559, Note_on_c, 9, 46, 0
1, 112640, Note_on_c, 9, 42, 90
1, 112679, Note_on_c, 9, 42, 0
1, 112800, Note_on_c, 9, 42, 106
1, 113039, Note_on_c, 9, 42, 0
1, 113120, Note_on_c, 9, 42, 90
1, 113159, Note_on_c, 9, 42, 0
1, 113280, Note_on_c, 9, 38, 112
1, 113280, Note_on_c, 9, 42, 106
1, 113280, Note_on_c, 9, 46, 95
1, 113519, Note_on_c, 9, 38, 0
1, 113519, Note_on_c, 9, 42, 0
1, 113519, Note_on_c, 9, 46, 0
1, 113600, Note_on_c, 9, 42, 90
1, 113639, Note_on_c, 9, 42, 0
1, 113760, Note_on_c, 9, 42, 120
1, 113999, Note_on_c, 9, 42, 0
1, 114080, Note_on_c, 9, 42, 90
1, 114119, Note_on_c, 9, 42, 0
1, 114240, Note_on_c, 9, 38, 112
1, 114240, Note_on_c, 9, 42, 106
1, 114240, Note_on_c, 9, 46, 95
1, 114479, Note_on_c, 9, 38, 0
1, 114479, Note_on_c, 9, 42, 0
1, 114479, Note_on_c, 9, 46, 0
1, 114480, Note_on_c, 9, 38, 112
1, 114559, Note_on_c, 9, 38, 0
1, 114560, Note_on_c, 9, 42, 90
1, 114599, Note_on_c, 9, 42, 0
1, 114720, Note_on_c, 9, 42, 106
1, 114959, Note_on_c, 9, 42, 0
1, 115040, Note_on_c, 9, 42, 90
1, 115079, Note_on_c, 9, 42, 0
1, 115200, Note_on_c, 9, 38, 126
1, 115200, Note_on_c, 9, 42, 106
1, 115200, Note_on_c, 9, 46, 95
1, 115439, Note_on_c, 9, 38, 0
1, 115439, Note_on_c, 9, 42, 0
1, 115439, Note_on_c, 9, 46, 0
1, 115520, Note_on_c, 9, 42, 90
1, 115559, Note_on_c, 9, 42, 0
1, 115680, Note_on_c, 9, 42, 120
1, 115919, Note_on_c, 9, 42, 0
1, 116000, Note_on_c, 9, 42, 90
1, 116039, Note_on_c, 9, 42, 0
1, 116160, Note_on_c, 9, 38, 112
1, 116160, Note_on_c, 9, 42, 106
1, 116160, Note_on_c, 9, 46, 95
1, 116399, Note_on_c, 9, 38, 0
1, 116399, Note_on_c, 9, 42, 0
1, 116399, Note_on_c, 9, 46, 0
1, 116400, Note_on_c, 9, 38, 112
1, 116479, Note_on_c, 9, 38, 0
1, 116480, Note_on_c, 9, 42, 90
1, 116519, Note_on_c, 9, 42, 0
1, 116640, Note_on_c, 9, 42, 106
1, 116879, Note_on_c, 9, 42, 0
1, 116960, Note_on_c, 9, 42, 90
1, 116999, Note_on_c, 9, 42, 0
1, 117120, Note_on_c, 9, 38, 126
1, 117120, Note_on_c, 9, 42, 106
1, 117120, Note_on_c, 9, 46, 95
1, 117359, Note_on_c, 9, 38, 0
1, 117359, Note_on_c, 9, 42, 0
1, 117359, Note_on_c, 9, 46, 0
1, 117440, Note_on_c, 9, 42, 90
1, 117479, Note_on_c, 9, 42, 0
1, 117600, Note_on_c, 9, 42, 120
1, 117839, Note_on_c, 9, 42, 0
1, 117920, Note_on_c, 9, 42, 90
1, 117959, Note_on_c, 9, 42, 0
1, 118080, Note_on_c, 9, 38, 112
1, 118080, Note_on_c, 9, 42, 106
1, 118080, Note_on_c, 9, 46, 95
1, 118319, Note_on_c, 9, 38, 0
1, 118319, Note_on_c, 9, 42, 0
1, 118319, Note_on_c, 9, 46, 0
1, 118320, Note_on_c, 9, 38, 112
1, 118399, Note_on_c, 9, 38, 0
1, 118400, Note_on_c, 9, 42, 90
1, 118439, Note_on_c, 9, 42, 0
1, 118560, Note_on_c, 9, 42, 106
1, 118799, Note_on_c, 9, 42, 0
1, 118880, Note_on_c, 9, 42, 90
1, 118919, Note_on_c, 9, 42, 0
1, 119040, Note_on_c, 9, 38, 126
1, 119040, Note_on_c, 9, 42, 106
1, 119040, Note_on_c, 9, 46, 95
1, 119279, Note_on_c, 9, 38, 0
1, 119279, Note_on_c, 9, 42, 0
1, 119279, Note_on_c, 9, 46, 0
1, 119360, Note_on_c, 9, 42, 90
1, 119399, Note_on_c, 9, 42, 0
1, 119520, Note_on_c, 9, 42, 120
1, 119759, Note_on_c, 9, 42, 0
1, 119840, Note_on_c, 9, 42, 90
1, 119879, Note_on_c, 9, 42, 0
1, 120000, Note_on_c, 9, 38, 112
1, 120000, Note_on_c, 9, 42, 106
1, 120000, Note_on_c, 9, 46, 95
1, 120239, Note_on_c, 9, 38, 0
1, 120239, Note_on_c, 9, 42, 0
1, 120239, Note_on_c, 9, 46, 0
1, 120240, Note_on_c, 9, 38, 112
1, 120319, Note_on_c, 9, 38, 0
1, 120320, Note_on_c, 9, 42, 90
1, 120359, Note_on_c, 9, 42, 0
1, 120480, Note_on_c, 9, 42, 106
1, 120719, Note_on_c, 9, 42, 0
1, 120800, Note_on_c, 9, 42, 90
1, 120839, Note_on_c, 9, 42, 0
1, 120960, Note_on_c, 9, 38, 126
1, 120960, Note_on_c, 9, 42, 106
1, 120960, Note_on_c, 9, 46, 95
1, 121199, Note_on_c, 9, 38, 0
1, 121199, Note_on_c, 9, 42, 0
1, 121199, Note_on_c, 9, 46, 0
1, 121280, Note_on_c, 9, 42, 90
1, 121319, Note_on_c, 9, 42, 0
1, 121440, Note_on_c, 9, 42, 120
1, 121679, Note_on_c, 9, 42, 0
1, 121760, Note_on_c, 9, 42, 90
1, 121799, Note_on_c, 9, 42, 0
1, 121920, Note_on_c, 9, 38, 112
1, 121920, Note_on_c, 9, 42, 106
1, 121920, Note_on_c, 9, 46, 95
1, 122159, Note_on_c, 9, 38, 0
1, 122159, Note_on_c, 9, 42, 0
1, 122159, Note_on_c, 9, 46, 0
1, 122160, Note_on_c, 9, 38, 112
1, 122239, Note_on_c, 9, 38, 0
1, 122240, Note_on_c, 9, 42, 90
1, 122279, Note_on_c, 9, 42, 0
1, 122400, Note_on_c, 9, 42, 106
1, 122639, Note_on_c, 9, 42, 0
1, 122720, Note_on_c, 9, 42, 90
1, 122759, Note_on_c, 9, 42, 0
1, 122880, Note_on_c, 9, 38, 126
1, 122880, Note_on_c, 9, 42, 106
1, 122880, Note_on_c, 9, 46, 95
1, 123119, Note_on_c, 9, 38, 0
1, 123119, Note_on_c, 9, 42, 0
1, 123119, Note_on_c, 9, 46, 0
1, 123200, Note_on_c, 9, 42, 90
1, 123239, Note_on_c, 9, 42, 0
1, 123360, Note_on_c, 9, 42, 120
1, 123599, Note_on_c, 9, 42, 0
1, 123680, Note_on_c, 9, 42, 90
1, 123719, Note_on_c, 9, 42, 0
1, 123840, Note_on_c, 9, 38, 112
1, 123840, Note_on_c, 9, 42, 106
1, 123840, Note_on_c, 9, 46, 95
1, 124079, Note_on_c, 9, 38, 0
1, 124079, Note_on_c, 9, 42, 0
1, 124079, Note_on_c, 9, 46, 0
1, 124080, Note_on_c, 9, 38, 112
1, 124159, Note_on_c, 9, 38, 0
1, 124160, Note_on_c, 9, 42, 90
1, 124199, Note_on_c, 9, 42, 0
1, 124320, Note_on_c, 9, 42, 106
1, 124559, Note_on_c, 9, 42, 0
1, 124640, Note_on_c, 9, 42, 90
1, 124679, Note_on_c, 9, 42, 0
1, 124800, Note_on_c, 9, 38, 126
1, 124800, Note_on_c, 9, 42, 106
1, 124800, Note_on_c, 9, 46, 95
1, 125039, Note_on_c, 9, 38, 0
1, 125039, Note_on_c, 9, 42, 0
1, 125039, Note_on_c, 9, 46, 0
1, 125120, Note_on_c, 9, 42, 90
1, 125159, Note_on_c, 9, 42, 0
1, 125280, Note_on_c, 9, 38, 126
1, 125280, Note_on_c, 9, 49, 107
1, 125519, Note_on_c, 9, 38, 0
1, 125519, Note_on_c, 9, 49, 0
1, 125600, Note_on_c, 9, 38, 112
1, 125759, Note_on_c, 9, 38, 0
1, 125760, Note_on_c, 9, 38, 126
1, 125760, Note_on_c, 9, 49, 107
1, 125999, Note_on_c, 9, 38, 0
1, 125999, Note_on_c, 9, 49, 0
1, 126080, Note_on_c, 9, 38, 112
1, 126239, Note_on_c, 9, 38, 0
1, 126240, Note_on_c, 9, 38, 126
1, 126479, Note_on_c, 9, 38, 0
1, 126560, Note_on_c, 9, 38, 112
1, 126719, Note_on_c, 9, 38, 0
1, 126720, Note_on_c, 9, 38, 126
1, 126720, Note_on_c, 9, 49, 107
1, 126959, Note_on_c, 9, 38, 0
1, 126959, Note_on_c, 9, 49, 0
1, 127040, Note_on_c, 9, 38, 126
1, 127199, Note_on_c, 9, 38, 0
1, 127200, Note_on_c, 9, 51, 120
1, 127439, Note_on_c, 9, 51, 0
1, 127520, Note_on_c, 9, 51, 90
1, 127559, Note_on_c, 9, 51, 0
1, 127680, Note_on_c, 9, 38, 126
1, 127680, Note_on_c, 9, 51, 106
1, 127919, Note_on_c, 9, 38, 0
1, 127919, Note_on_c, 9, 51, 0
1, 128000, Note_on_c, 9, 51, 90
1, 128039, Note_on_c, 9, 51, 0
1, 128160, Note_on_c, 9, 51, 106
1, 128399, Note_on_c, 9, 51, 0
1, 128480, Note_on_c, 9, 51, 90
1, 128519, Note_on_c, 9, 51, 0
1, 128640, Note_on_c, 9, 38, 126
1, 128640, Note_on_c, 9, 51, 106
1, 128879, Note_on_c, 9, 38, 0
1, 128879, Note_on_c, 9, 51, 0
1, 128960, Note_on_c, 9, 51, 106
1, 128999, Note_on_c, 9, 51, 0
1, 129120, Note_on_c, 9, 51, 120
1, 129359, Note_on_c, 9, 51, 0
1, 129440, Note_on_c, 9, 51, 90
1, 129479, Note_on_c, 9, 51, 0
1, 129600, Note_on_c, 9, 38, 126
1, 129600, Note_on_c, 9, 51, 106
1, 129839, Note_on_c, 9, 38, 0
1, 129839, Note_on_c, 9, 51, 0
1, 129920, Note_on_c, 9, 51, 90
1, 129959, Note_on_c, 9, 51, 0
1, 130080, Note_on_c, 9, 51, 106
1, 130319, Note_on_c, 9, 51, 0
1, 130400, Note_on_c, 9, 51, 90
1, 130439, Note_on_c, 9, 51, 0
1, 130560, Note_on_c, 9, 38, 126
1, 130560, Note_on_c, 9, 51, 106
1, 130799, Note_on_c, 9, 38, 0
1, 130799, Note_on_c, 9, 51, 0
1, 130880, Note_on_c, 9, 51, 106
1, 130919, Note_on_c, 9, 51, 0
1, 131040, Note_on_c, 9, 51, 120
1, 131279, Note_on_c, 9, 51, 0
1, 131360, Note_on_c, 9, 51, 90
1, 131399, Note_on_c, 9, 51, 0
1, 131520, Note_on_c, 9, 38, 126
1, 131520, Note_on_c, 9, 51, 106
1, 131759, Note_on_c, 9, 38, 0
1, 131759, Note_on_c, 9, 51, 0
1, 131840, Note_on_c, 9, 51, 90
1, 131879, Note_on_c, 9, 51, 0
1, 132000, Note_on_c, 9, 51, 106
1, 132239, Note_on_c, 9, 51, 0
1, 132320, Note_on_c, 9, 51, 90
1, 132359, Note_on_c, 9, 51, 0
1, 132480, Note_on_c, 9, 38, 126
1, 132480, Note_on_c, 9, 51, 106
1, 132719, Note_on_c, 9, 38, 0
1, 132719, Note_on_c, 9, 51, 0
1, 132800, Note_on_c, 9, 51, 106
1, 132839, Note_on_c, 9, 51, 0
1, 132960, Note_on_c, 9, 51, 120
1, 133199, Note_on_c, 9, 51, 0
1, 133280, Note_on_c, 9, 51, 90
1, 133319, Note_on_c, 9, 51, 0
1, 133440, Note_on_c, 9, 38, 126
1, 133440, Note_on_c, 9, 51, 106
1, 133679, Note_on_c, 9, 38, 0
1, 133679, Note_on_c, 9, 51, 0
1, 133760, Note_on_c, 9, 51, 90
1, 133799, Note_on_c, 9, 51, 0
1, 133920, Note_on_c, 9, 51, 106
1, 134159, Note_on_c, 9, 51, 0
1, 134240, Note_on_c, 9, 51, 90
1, 134279, Note_on_c, 9, 51, 0
1, 134400, Note_on_c, 9, 38, 126
1, 134400, Note_on_c, 9, 51, 106
1, 134639, Note_on_c, 9, 38, 0
1, 134639, Note_on_c, 9, 51, 0
1, 134720, Note_on_c, 9, 51, 106
1, 134759, Note_on_c, 9, 51, 0
1, 134880, Note_on_c, 9, 51, 120
1, 135119, Note_on_c, 9, 51, 0
1, 135200, Note_on_c, 9, 51, 90
1, 135239, Note_on_c, 9, 51, 0
1, 135360, Note_on_c, 9, 38, 126
1, 135360, Note_on_c, 9, 51, 106
1, 135599, Note_on_c, 9, 38, 0
1, 135599, Note_on_c, 9, 51, 0
1, 135680, Note_on_c, 9, 51, 90
1, 135719, Note_on_c, 9, 51, 0
1, 135840, Note_on_c, 9, 51, 106
1, 136079, Note_on_c, 9, 51, 0
1, 136160, Note_on_c, 9, 51, 90
1, 136199, Note_on_c, 9, 51, 0
1, 136320, Note_on_c, 9, 38, 126
1, 136320, Note_on_c, 9, 51, 106
1, 136559, Note_on_c, 9, 38, 0
1, 136559, Note_on_c, 9, 51, 0
1, 136640, Note_on_c, 9, 51, 106
1, 136679, Note_on_c, 9, 51, 0
1, 136800, Note_on_c, 9, 51, 120
1, 137039, Note_on_c, 9, 51, 0
1, 137120, Note_on_c, 9, 51, 90
1, 137159, Note_on_c, 9, 51, 0
1, 137280, Note_on_c, 9, 38, 126
1, 137280, Note_on_c, 9, 51, 106
1, 137519, Note_on_c, 9, 38, 0
1, 137519, Note_on_c, 9, 51, 0
1, 137600, Note_on_c, 9, 51, 90
1, 137639, Note_on_c, 9, 51, 0
1, 137760, Note_on_c, 9, 51, 106
1, 137999, Note_on_c, 9, 51, 0
1, 138080, Note_on_c, 9, 51, 90
1, 138119, Note_on_c, 9, 51, 0
1, 138240, Note_on_c, 9, 38, 126
1, 138240, Note_on_c, 9, 51, 106
1, 138479, Note_on_c, 9, 38, 0
1, 138479, Note_on_c, 9, 51, 0
1, 138560, Note_on_c, 9, 51, 106
1, 138599, Note_on_c, 9, 51, 0
1, 138720, Note_on_c, 9, 51, 120
1, 138959, Note_on_c, 9, 51, 0
1, 139040, Note_on_c, 9, 51, 90
1, 139079, Note_on_c, 9, 51, 0
1, 139200, Note_on_c, 9, 38, 126
1, 139200, Note_on_c, 9, 51, 106
1, 139439, Note_on_c, 9, 38, 0
1, 139439, Note_on_c, 9, 51, 0
1, 139520, Note_on_c, 9, 51, 90
1, 139559, Note_on_c, 9, 51, 0
1, 139680, Note_on_c, 9, 51, 106
1, 139919, Note_on_c, 9, 51, 0
1, 140000, Note_on_c, 9, 51, 90
1, 140039, Note_on_c, 9, 51, 0
1, 140160, Note_on_c, 9, 38, 126
1, 140160, Note_on_c, 9, 51, 106
1, 140399, Note_on_c, 9, 38, 0
1, 140399, Note_on_c, 9, 51, 0
1, 140480, Note_on_c, 9, 51, 106
1, 140519, Note_on_c, 9, 51, 0
1, 140640, Note_on_c, 9, 51, 120
1, 140879, Note_on_c, 9, 51, 0
1, 140960, Note_on_c, 9, 51, 90
1, 140999, Note_on_c, 9, 51, 0
1, 141120, Note_on_c, 9, 38, 126
1, 141120, Note_on_c, 9, 51, 106
1, 141359, Note_on_c, 9, 38, 0
1, 141359, Note_on_c, 9, 51, 0
1, 141440, Note_on_c, 9, 51, 90
1, 141479, Note_on_c, 9, 51, 0
1, 141600, Note_on_c, 9, 51, 106
1, 141839, Note_on_c, 9, 51, 0
1, 141920, Note_on_c, 9, 51, 90
1, 141959, Note_on_c, 9, 51, 0
1, 142080, Note_on_c, 9, 38, 126
1, 142080, Note_on_c, 9, 51, 106
1, 142319, Note_on_c, 9, 38, 0
1, 142319, Note_on_c, 9, 51, 0
1, 142400, Note_on_c, 9, 51, 106
1, 142439, Note_on_c, 9, 51, 0
1, 142560, Note_on_c, 9, 51, 120
1, 142799, Note_on_c, 9, 51, 0
1, 142880, Note_on_c, 9, 51, 90
1, 142919, Note_on_c, 9, 51, 0
1, 143040, Note_on_c, 9, 38, 126
1, 143040, Note_on_c, 9, 51, 106
1, 143279, Note_on_c, 9, 38, 0
1, 143279, Note_on_c, 9, 51, 0
1, 143360, Note_on_c, 9, 51, 90
1, 143399, Note_on_c, 9, 51, 0
1, 143520, Note_on_c, 9, 51, 106
1, 143759, Note_on_c, 9, 51, 0
1, 143840, Note_on_c, 9, 51, 90
1, 143879, Note_on_c, 9, 51, 0
1, 144000, Note_on_c, 9, 38, 126
1, 144000, Note_on_c, 9, 51, 106
1, 144239, Note_on_c, 9, 38, 0
1, 144239, Note_on_c, 9, 51, 0
1, 144320, Note_on_c, 9, 51, 106
1, 144359, Note_on_c, 9, 51, 0
1, 144480, Note_on_c, 9, 51, 120
1, 144719, Note_on_c, 9, 51, 0
1, 144800, Note_on_c, 9, 51, 90
1, 144839, Note_on_c, 9, 51, 0
1, 144960, Note_on_c, 9, 38, 126
1, 144960, Note_on_c, 9, 51, 106
1, 145199, Note_on_c, 9, 38, 0
1, 145199, Note_on_c, 9, 51, 0
1, 145280, Note_on_c, 9, 51, 90
1, 145319, Note_on_c, 9, 51, 0
1, 145440, Note_on_c, 9, 51, 106
1, 145679, Note_on_c, 9, 51, 0
1, 145760, Note_on_c, 9, 51, 90
1, 145799, Note_on_c, 9, 51, 0
1, 145920, Note_on_c, 9, 38, 126
1, 145920, Note_on_c, 9, 51, 106
1, 146159, Note_on_c, 9, 38, 0
1, 146159, Note_on_c, 9, 51, 0
1, 146240, Note_on_c, 9, 51, 106
1, 146279, Note_on_c, 9, 51, 0
1, 146400, Note_on_c, 9, 51, 120
1, 146639, Note_on_c, 9, 51, 0
1, 146720, Note_on_c, 9, 51, 90
1, 146759, Note_on_c, 9, 51, 0
1, 146880, Note_on_c, 9, 38, 126
1, 146880, Note_on_c, 9, 51, 106
1, 147119, Note_on_c, 9, 38, 0
1, 147119, Note_on_c, 9, 51, 0
1, 147200, Note_on_c, 9, 51, 90
1, 147239, Note_on_c, 9, 51, 0
1, 147360, Note_on_c, 9, 51, 106
1, 147599, Note_on_c, 9, 51, 0
1, 147680, Note_on_c, 9, 51, 90
1, 147719, Note_on_c, 9, 51, 0
1, 147840, Note_on_c, 9, 38, 126
1, 147840, Note_on_c, 9, 51, 106
1, 148079, Note_on_c, 9, 38, 0
1, 148079, Note_on_c, 9, 51, 0
1, 148160, Note_on_c, 9, 51, 106
1, 148199, Note_on_c, 9, 51, 0
1, 148320, Note_on_c, 9, 51, 120
1, 148559, Note_on_c, 9, 51, 0
1, 148640, Note_on_c, 9, 51, 90
1, 148679, Note_on_c, 9, 51, 0
1, 148800, Note_on_c, 9, 38, 126
1, 148800, Note_on_c, 9, 51, 106
1, 149039, Note_on_c, 9, 38, 0
1, 149039, Note_on_c, 9, 51, 0
1, 149120, Note_on_c, 9, 51, 90
1, 149159, Note_on_c, 9, 51, 0
1, 149280, Note_on_c, 9, 51, 106
1, 149519, Note_on_c, 9, 51, 0
1, 149600, Note_on_c, 9, 51, 90
1, 149639, Note_on_c, 9, 51, 0
1, 149760, Note_on_c, 9, 38, 126
1, 149760, Note_on_c, 9, 51, 106
1, 149999, Note_on_c, 9, 38, 0
1, 149999, Note_on_c, 9, 51, 0
1, 150080, Note_on_c, 9, 51, 106
1, 150119, Note_on_c, 9, 51, 0
1, 150240, Note_on_c, 9, 51, 120
1, 150479, Note_on_c, 9, 51, 0
1, 150560, Note_on_c, 9, 51, 98
1, 150599, Note_on_c, 9, 51, 0
1, 150720, Note_on_c, 9, 38, 126
1, 150720, Note_on_c, 9, 51, 114
1, 150959, Note_on_c, 9, 38, 0
1, 150959, Note_on_c, 9, 51, 0
1, 151040, Note_on_c, 9, 51, 98
1, 151079, Note_on_c, 9, 51, 0
1, 151200, Note_on_c, 9, 51, 114
1, 151439, Note_on_c, 9, 51, 0
1, 151520, Note_on_c, 9, 51, 98
1, 151559, Note_on_c, 9, 51, 0
1, 151680, Note_on_c, 9, 38, 126
1, 151680, Note_on_c, 9, 51, 114
1, 151919, Note_on_c, 9, 38, 0
1, 151919, Note_on_c, 9, 51, 0
1, 152000, Note_on_c, 9, 51, 114
1, 152039, Note_on_c, 9, 51, 0
1, 152160, Note_on_c, 9, 51, 120
1, 152399, Note_on_c, 9, 51, 0
1, 152480, Note_on_c, 9, 51, 90
1, 152519, Note_on_c, 9, 51, 0
1, 152640, Note_on_c, 9, 38, 126
1, 152640, Note_on_c, 9, 51, 106
1, 152879, Note_on_c, 9, 38, 0
1, 152879, Note_on_c, 9, 51, 0
1, 152960, Note_on_c, 9, 51, 90
1, 152999, Note_on_c, 9, 51, 0
1, 153120, Note_on_c, 9, 51, 106
1, 153359, Note_on_c, 9, 51, 0
1, 153440, Note_on_c, 9, 51, 90
1, 153479, Note_on_c, 9, 51, 0
1, 153600, Note_on_c, 9, 38, 126
1, 153600, Note_on_c, 9, 51, 106
1, 153839, Note_on_c, 9, 38, 0
1, 153839, Note_on_c, 9, 51, 0
1, 153920, Note_on_c, 9, 51, 106
1, 153959, Note_on_c, 9, 51, 0
1, 154080, Note_on_c, 9, 51, 120
1, 154319, Note_on_c, 9, 51, 0
1, 154400, Note_on_c, 9, 51, 90
1, 154439, Note_on_c, 9, 51, 0
1, 154560, Note_on_c, 9, 38, 126
1, 154560, Note_on_c, 9, 51, 106
1, 154799, Note_on_c, 9, 38, 0
1, 154799, Note_on_c, 9, 51, 0
1, 154880, Note_on_c, 9, 51, 90
1, 154919, Note_on_c, 9, 51, 0
1, 155040, Note_on_c, 9, 51, 106
1, 155279, Note_on_c, 9, 51, 0
1, 155360, Note_on_c, 9, 51, 90
1, 155399, Note_on_c, 9, 51, 0
1, 155520, Note_on_c, 9, 38, 126
1, 155520, Note_on_c, 9, 51, 106
1, 155839, Note_on_c, 9, 38, 0
1, 155839, Note_on_c, 9, 51, 0
1, 155840, Note_on_c, 9, 51, 106
1, 155999, Note_on_c, 9, 51, 0
1, 156000, Note_on_c, 9, 38, 32
1, 156000, Note_on_c, 9, 49, 125
1, 156319, Note_on_c, 9, 38, 0
1, 156319, Note_on_c, 9, 49, 0
1, 156320, Note_on_c, 9, 38, 126
1, 156479, Note_on_c, 9, 38, 0
1, 156480, Note_on_c, 9, 41, 120
1, 156480, Note_on_c, 9, 45, 120
1, 156959, Note_on_c, 9, 41, 0
1, 156959, Note_on_c, 9, 45, 0
1, 156960, Note_on_c, 9, 38, 64
1, 156974, Note_on_c, 9, 38, 0
1, 156975, Note_on_c, 9, 38, 64
1, 157034, Note_on_c, 9, 38, 0
1, 157140, Note_on_c, 9, 38, 64
1, 157199, Note_on_c, 9, 38, 0
1, 157260, Note_on_c, 9, 38, 64
1, 157439, Note_on_c, 9, 38, 0
1, 157440, Note_on_c, 9, 38, 48
1, 157440, Note_on_c, 9, 45, 120
1, 157599, Note_on_c, 9, 38, 0
1, 157599, Note_on_c, 9, 45, 0
1, 157600, Note_on_c, 9, 38, 80
1, 157679, Note_on_c, 9, 38, 0
1, 157760, Note_on_c, 9, 38, 64
1, 157760, Note_on_c, 9, 41, 120
1, 157779, Note_on_c, 9, 38, 0
1, 157779, Note_on_c, 9, 41, 0
1, 157780, Note_on_c, 9, 38, 64
1, 157799, Note_on_c, 9, 38, 0
1, 157920, Note_on_c, 9, 42, 120
1, 157920, Note_on_c, 9, 49, 125
1, 158159, Note_on_c, 9, 42, 0
1, 158159, Note_on_c, 9, 49, 0
1, 158240, Note_on_c, 9, 42, 90
1, 158279, Note_on_c, 9, 42, 0
1, 158400, Note_on_c, 9, 38, 112
1, 158400, Note_on_c, 9, 42, 106
1, 158400, Note_on_c, 9, 46, 95
1, 158639, Note_on_c, 9, 38, 0
1, 158639, Note_on_c, 9, 42, 0
1, 158639, Note_on_c, 9, 46, 0
1, 158720, Note_on_c, 9, 42, 90
1, 158759, Note_on_c, 9, 42, 0
1, 158880, Note_on_c, 9, 42, 106
1, 159119, Note_on_c, 9, 42, 0
1, 159200, Note_on_c, 9, 42, 90
1, 159239, Note_on_c, 9, 42, 0
1, 159360, Note_on_c, 9, 38, 112
1, 159360, Note_on_c, 9, 42, 106
1, 159360, Note_on_c, 9, 46, 95
1, 159599, Note_on_c, 9, 38, 0
1, 159599, Note_on_c, 9, 42, 0
1, 159599, Note_on_c, 9, 46, 0
1, 159680, Note_on_c, 9, 42, 90
1, 159719, Note_on_c, 9, 42, 0
1, 159840, Note_on_c, 9, 42, 120
1, 160079, Note_on_c, 9, 42, 0
1, 160160, Note_on_c, 9, 42, 90
1, 160199, Note_on_c, 9, 42, 0
1, 160320, Note_on_c, 9, 38, 112
1, 160320, Note_on_c, 9, 42, 106
1, 160320, Note_on_c, 9, 46, 95
1, 160559, Note_on_c, 9, 38, 0
1, 160559, Note_on_c, 9, 42, 0
1, 160559, Note_on_c, 9, 46, 0
1, 160560, Note_on_c, 9, 38, 112
1, 160639, Note_on_c, 9, 38, 0
1, 160640, Note_on_c, 9, 42, 90
1, 160679, Note_on_c, 9, 42, 0
1, 160800, Note_on_c, 9, 42, 106
1, 161039, Note_on_c, 9, 42, 0
1, 161120, Note_on_c, 9, 42, 90
1, 161159, Note_on_c, 9, 42, 0
1, 161280, Note_on_c, 9, 38, 126
1, 161280, Note_on_c, 9, 42, 106
1, 161280, Note_on_c, 9, 46, 95
1, 161519, Note_on_c, 9, 38, 0
1, 161519, Note_on_c, 9, 42, 0
1, 161519, Note_on_c, 9, 46, 0
1, 161600, Note_on_c, 9, 42, 90
1, 161639, Note_on_c, 9, 42, 0
1, 161760, Note_on_c, 9, 42, 120
1, 161999, Note_on_c, 9, 42, 0
1, 162080, Note_on_c, 9, 42, 90
1, 162119, Note_on_c, 9, 42, 0
1, 162240, Note_on_c, 9, 38, 112
1, 162240, Note_on_c, 9, 42, 106
1, 162240, Note_on_c, 9, 46, 95
1, 162479, Note_on_c, 9, 38, 0
1, 162479, Note_on_c, 9, 42, 0
1, 162479, Note_on_c, 9, 46, 0
1, 162480, Note_on_c, 9, 38, 112
1, 162559, Note_on_c, 9, 38, 0
1, 162560, Note_on_c, 9, 42, 90
1, 162599, Note_on_c, 9, 42, 0
1, 162720, Note_on_c, 9, 42, 106
1, 162959, Note_on_c, 9, 42, 0
1, 163040, Note_on_c, 9, 42, 90
1, 163079, Note_on_c, 9, 42, 0
1, 163200, Note_on_c, 9, 38, 126
1, 163200, Note_on_c, 9, 42, 106
1, 163200, Note_on_c, 9, 46, 95
1, 163439, Note_on_c, 9, 38, 0
1, 163439, Note_on_c, 9, 42, 0
1, 163439, Note_on_c, 9, 46, 0
1, 163520, Note_on_c, 9, 42, 90
1, 163559, Note_on_c, 9, 42, 0
1, 163680, Note_on_c, 9, 42, 120
1, 163919, Note_on_c, 9, 42, 0
1, 164000, Note_on_c, 9, 42, 90
1, 164039, Note_on_c, 9, 42, 0
1, 164160, Note_on_c, 9, 38, 112
1, 164160, Note_on_c, 9, 42, 106
1, 164160, Note_on_c, 9, 46, 95
1, 164399, Note_on_c, 9, 38, 0
1, 164399, Note_on_c, 9, 42, 0
1, 164399, Note_on_c, 9, 46, 0
1, 164400, Note_on_c, 9, 38, 112
1, 164479, Note_on_c, 9, 38, 0
1, 164480, Note_on_c, 9, 42, 90
1, 164519, Note_on_c, 9, 42, 0
1, 164640, Note_on_c, 9, 42, 106
1, 164879, Note_on_c, 9, 42, 0
1, 164960, Note_on_c, 9, 42, 90
1, 164999, Note_on_c, 9, 42, 0
1, 165120, Note_on_c, 9, 38, 126
1, 165120, Note_on_c, 9, 42, 106
1, 165120, Note_on_c, 9, 46, 95
1, 165359, Note_on_c, 9, 38, 0
1, 165359, Note_on_c, 9, 42, 0
1, 165359, Note_on_c, 9, 46, 0
1, 165440, Note_on_c, 9, 42, 90
1, 165479, Note_on_c, 9, 42, 0
1, 165600, Note_on_c, 9, 42, 120
1, 165839, Note_on_c, 9, 42, 0
1, 165920, Note_on_c, 9, 42, 90
1, 165959, Note_on_c, 9, 42, 0
1, 166080, Note_on_c, 9, 38, 112
1, 166080, Note_on_c, 9, 42, 106
1, 166080, Note_on_c, 9, 46, 95
1, 166319, Note_on_c, 9, 38, 0
1, 166319, Note_on_c, 9, 42, 0
1, 166319, Note_on_c, 9, 46, 0
1, 166320, Note_on_c, 9, 38, 112
1, 166399, Note_on_c, 9, 38, 0
1, 166400, Note_on_c, 9, 42, 90
1, 166439, Note_on_c, 9, 42, 0
1, 166560, Note_on_c, 9, 42, 106
1, 166799, Note_on_c, 9, 42, 0
1, 166880, Note_on_c, 9, 42, 90
1, 166919, Note_on_c, 9, 42, 0
1, 167040, Note_on_c, 9, 38, 126
1, 167040, Note_on_c, 9, 42, 106
1, 167040, Note_on_c, 9, 46, 95
1, 167279, Note_on_c, 9, 38, 0
1, 167279, Note_on_c, 9, 42, 0
1, 167279, Note_on_c, 9, 46, 0
1, 167360, Note_on_c, 9, 42, 90
1, 167399, Note_on_c, 9, 42, 0
1, 167520, Note_on_c, 9, 42, 120
1, 167759, Note_on_c, 9, 42, 0
1, 167840, Note_on_c, 9, 42, 90
1, 167879, Note_on_c, 9, 42, 0
1, 168000, Note_on_c, 9, 38, 112
1, 168000, Note_on_c, 9, 42, 106
1, 168000, Note_on_c, 9, 46, 95
1, 168239, Note_on_c, 9, 38, 0
1, 168239, Note_on_c, 9, 42, 0
1, 168239, Note_on_c, 9, 46, 0
1, 168240, Note_on_c, 9, 38, 112
1, 168319, Note_on_c, 9, 38, 0
1, 168320, Note_on_c, 9, 42, 90
1, 168359, Note_on_c, 9, 42, 0
1, 168480, Note_on_c, 9, 42, 106
1, 168719, Note_on_c, 9, 42, 0
1, 168800, Note_on_c, 9, 42, 90
1, 168839, Note_on_c, 9, 42, 0
1, 168960, Note_on_c, 9, 38, 126
1, 168960, Note_on_c, 9, 42, 106
1, 168960, Note_on_c, 9, 46, 95
1, 169199, Note_on_c, 9, 38, 0
1, 169199, Note_on_c, 9, 42, 0
1, 169199, Note_on_c, 9, 46, 0
1, 169280, Note_on_c, 9, 42, 90
1, 169319, Note_on_c, 9, 42, 0
1, 169440, Note_on_c, 9, 42, 120
1, 169679, Note_on_c, 9, 42, 0
1, 169760, Note_on_c, 9, 42, 90
1, 169799, Note_on_c, 9, 42, 0
1, 169920, Note_on_c, 9, 38, 112
1, 169920, Note_on_c, 9, 42, 106
1, 169920, Note_on_c, 9, 46, 95
1, 170159, Note_on_c, 9, 38, 0
1, 170159, Note_on_c, 9, 42, 0
1, 170159, Note_on_c, 9, 46, 0
1, 170160, Note_on_c, 9, 38, 112
1, 170239, Note_on_c, 9, 38, 0
1, 170240, Note_on_c, 9, 42, 90
1, 170279, Note_on_c, 9, 42, 0
1, 170400, Note_on_c, 9, 42, 106
1, 170639, Note_on_c, 9, 42, 0
1, 170720, Note_on_c, 9, 42, 90
1, 170759, Note_on_c, 9, 42, 0
1, 170880, Note_on_c, 9, 38, 126
1, 170880, Note_on_c, 9, 42, 106
1, 170880, Note_on_c, 9, 46, 95
1, 171119, Note_on_c, 9, 38, 0
1, 171119, Note_on_c, 9, 42, 0
1, 171119, Note_on_c, 9, 46, 0
1, 171200, Note_on_c, 9, 42, 90
1, 171239, Note_on_c, 9, 42, 0
1, 171360, Note_on_c, 9, 42, 120
1, 171599, Note_on_c, 9, 42, 0
1, 171680, Note_on_c, 9, 42, 90
1, 171719, Note_on_c, 9, 42, 0
1, 171840, Note_on_c, 9, 38, 126
1, 171840, Note_on_c, 9, 42, 106
1, 172079, Note_on_c, 9, 38, 0
1, 172079, Note_on_c, 9, 42, 0
1, 172160, Note_on_c, 9, 42, 90
1, 172199, Note_on_c, 9, 42, 0
1, 172320, Note_on_c, 9, 46, 95
1, 172559, Note_on_c, 9, 46, 0
1, 172640, Note_on_c, 9, 38, 80
1, 172799, Note_on_c, 9, 38, 0
1, 172800, Note_on_c, 9, 38, 112
1, 173039, Note_on_c, 9, 38, 0
1, 173120, Note_on_c, 9, 38, 126
1, 173279, Note_on_c, 9, 38, 0
1, 173280, Note_on_c, 9, 42, 120
1, 173280, Note_on_c, 9, 49, 125
1, 173519, Note_on_c, 9, 42, 0
1, 173519, Note_on_c, 9, 49, 0
1, 173600, Note_on_c, 9, 42, 90
1, 173639, Note_on_c, 9, 42, 0
1, 173760, Note_on_c, 9, 38, 112
1, 173760, Note_on_c, 9, 42, 106
1, 173760, Note_on_c, 9, 46, 95
1, 173999, Note_on_c, 9, 38, 0
1, 173999, Note_on_c, 9, 42, 0
1, 173999, Note_on_c, 9, 46, 0
1, 174080, Note_on_c, 9, 42, 90
1, 174119, Note_on_c, 9, 42, 0
1, 174240, Note_on_c, 9, 42, 106
1, 174479, Note_on_c, 9, 42, 0
1, 174560, Note_on_c, 9, 42, 90
1, 174599, Note_on_c, 9, 42, 0
1, 174720, Note_on_c, 9, 38, 112
1, 174720, Note_on_c, 9, 42, 106
1, 174720, Note_on_c, 9, 46, 95
1, 174959, Note_on_c, 9, 38, 0
1, 174959, Note_on_c, 9, 42, 0
1, 174959, Note_on_c, 9, 46, 0
1, 175040, Note_on_c, 9, 42, 90
1, 175079, Note_on_c, 9, 42, 0
1, 175200, Note_on_c, 9, 42, 120
1, 175439, Note_on_c, 9, 42, 0
1, 175520, Note_on_c, 9, 42, 90
1, 175559, Note_on_c, 9, 42, 0
1, 175680, Note_on_c, 9, 38, 112
1, 175680, Note_on_c, 9, 42, 106
1, 175680, Note_on_c, 9, 46, 95
1, 175919, Note_on_c, 9, 38, 0
1, 175919, Note_on_c, 9, 42, 0
1, 175919, Note_on_c, 9, 46, 0
1, 175920, Note_on_c, 9, 38, 112
1, 175999, Note_on_c, 9, 38, 0
1, 176000, Note_on_c, 9, 42, 90
1, 176039, Note_on_c, 9, 42, 0
1, 176160, Note_on_c, 9, 42, 106
1, 176399, Note_on_c, 9, 42, 0
1, 176480, Note_on_c, 9, 42, 90
1, 176519, Note_on_c, 9, 42, 0
1, 176640, Note_on_c, 9, 38, 126
1, 176640, Note_on_c, 9, 42, 106
1, 176640, Note_on_c, 9, 46, 95
1, 176879, Note_on_c, 9, 38, 0
1, 176879, Note_on_c, 9, 42, 0
1, 176879, Note_on_c, 9, 46, 0
1, 176960, Note_on_c, 9, 42, 90
1, 176999, Note_on_c, 9, 42, 0
1, 177120, Note_on_c, 9, 42, 120
1, 177359, Note_on_c, 9, 42, 0
1, 177440, Note_on_c, 9, 42, 90
1, 177479, Note_on_c, 9, 42, 0
1, 177600, Note_on_c, 9, 38, 112
1, 177600, Note_on_c, 9, 42, 106
1, 177600, Note_on_c, 9, 46, 95
1, 177839, Note_on_c, 9, 38, 0
1, 177839, Note_on_c, 9, 42, 0
1, 177839, Note_on_c, 9, 46, 0
1, 177840, Note_on_c, 9, 38, 112
1, 177919, Note_on_c, 9, 38, 0
1, 177920, Note_on_c, 9, 42, 90
1, 177959, Note_on_c, 9, 42, 0
1, 178080, Note_on_c, 9, 42, 106
1, 178319, Note_on_c, 9, 42, 0
1, 178400, Note_on_c, 9, 42, 90
1, 178439, Note_on_c, 9, 42, 0
1, 178560, Note_on_c, 9, 38, 126
1, 178560, Note_on_c, 9, 42, 106
1, 178560, Note_on_c, 9, 46, 95
1, 178799, Note_on_c, 9, 38, 0
1, 178799, Note_on_c, 9, 42, 0
1, 178799, Note_on_c, 9, 46, 0
1, 178880, Note_on_c, 9, 42, 90
1, 178919, Note_on_c, 9, 42, 0
1, 179040, Note_on_c, 9, 42, 120
1, 179279, Note_on_c, 9, 42, 0
1, 179360, Note_on_c, 9, 42, 90
1, 179399, Note_on_c, 9, 42, 0
1, 179520, Note_on_c, 9, 38, 112
1, 179520, Note_on_c, 9, 42, 106
1, 179520, Note_on_c, 9, 46, 95
1, 179759, Note_on_c, 9, 38, 0
1, 179759, Note_on_c, 9, 42, 0
1, 179759, Note_on_c, 9, 46, 0
1, 179760, Note_on_c, 9, 38, 112
1, 179839, Note_on_c, 9, 38, 0
1, 179840, Note_on_c, 9, 42, 90
1, 179879, Note_on_c, 9, 42, 0
1, 180000, Note_on_c, 9, 42, 106
1, 180239, Note_on_c, 9, 42, 0
1, 180320, Note_on_c, 9, 42, 90
1, 180359, Note_on_c, 9, 42, 0
1, 180480, Note_on_c, 9, 38, 126
1, 180480, Note_on_c, 9, 42, 106
1, 180480, Note_on_c, 9, 46, 95
1, 180719, Note_on_c, 9, 38, 0
1, 180719, Note_on_c, 9, 42, 0
1, 180719, Note_on_c, 9, 46, 0
1, 180800, Note_on_c, 9, 42, 90
1, 180839, Note_on_c, 9, 42, 0
1, 180960, Note_on_c, 9, 42, 120
1, 181199, Note_on_c, 9, 42, 0
1, 181280, Note_on_c, 9, 42, 90
1, 181319, Note_on_c, 9, 42, 0
1, 181440, Note_on_c, 9, 38, 112
1, 181440, Note_on_c, 9, 42, 106
1, 181440, Note_on_c, 9, 46, 95
1, 181679, Note_on_c, 9, 38, 0
1, 181679, Note_on_c, 9, 42, 0
1, 181679, Note_on_c, 9, 46, 0
1, 181680, Note_on_c, 9, 38, 112
1, 181759, Note_on_c, 9, 38, 0
1, 181760, Note_on_c, 9, 42, 90
1, 181799, Note_on_c, 9, 42, 0
1, 181920, Note_on_c, 9, 42, 106
1, 182159, Note_on_c, 9, 42, 0
1, 182240, Note_on_c, 9, 42, 90
1, 182279, Note_on_c, 9, 42, 0
1, 182400, Note_on_c, 9, 38, 126
1, 182400, Note_on_c, 9, 42, 106
1, 182400, Note_on_c, 9, 46, 95
1, 182639, Note_on_c, 9, 38, 0
1, 182639, Note_on_c, 9, 42, 0
1, 182639, Note_on_c, 9, 46, 0
1, 182720, Note_on_c, 9, 42, 90
1, 182759, Note_on_c, 9, 42, 0
1, 182880, Note_on_c, 9, 42, 120
1, 183119, Note_on_c, 9, 42, 0
1, 183200, Note_on_c, 9, 42, 90
1, 183239, Note_on_c, 9, 42, 0
1, 183360, Note_on_c, 9, 38, 112
1, 183360, Note_on_c, 9, 42, 106
1, 183360, Note_on_c, 9, 46, 95
1, 183599, Note_on_c, 9, 38, 0
1, 183599, Note_on_c, 9, 42, 0
1, 183599, Note_on_c, 9, 46, 0
1, 183600, Note_on_c, 9, 38, 112
1, 183679, Note_on_c, 9, 38, 0
1, 183680, Note_on_c, 9, 42, 90
1, 183719, Note_on_c, 9, 42, 0
1, 183840, Note_on_c, 9, 42, 106
1, 184079, Note_on_c, 9, 42, 0
1, 184160, Note_on_c, 9, 42, 90
1, 184199, Note_on_c, 9, 42, 0
1, 184320, Note_on_c, 9, 38, 126
1, 184320, Note_on_c, 9, 42, 106
1, 184320, Note_on_c, 9, 46, 95
1, 184559, Note_on_c, 9, 38, 0
1, 184559, Note_on_c, 9, 42, 0
1, 184559, Note_on_c, 9, 46, 0
1, 184640, Note_on_c, 9, 42, 90
1, 184679, Note_on_c, 9, 42, 0
1, 184800, Note_on_c, 9, 42, 120
1, 185039, Note_on_c, 9, 42, 0
1, 185120, Note_on_c, 9, 42, 90
1, 185159, Note_on_c, 9, 42, 0
1, 185280, Note_on_c, 9, 38, 112
1, 185280, Note_on_c, 9, 42, 106
1, 185280, Note_on_c, 9, 46, 95
1, 185519, Note_on_c, 9, 38, 0
1, 185519, Note_on_c, 9, 42, 0
1, 185519, Note_on_c, 9, 46, 0
1, 185520, Note_on_c, 9, 38, 112
1, 185599, Note_on_c, 9, 38, 0
1, 185600, Note_on_c, 9, 42, 90
1, 185639, Note_on_c, 9, 42, 0
1, 185760, Note_on_c, 9, 42, 106
1, 185999, Note_on_c, 9, 42, 0
1, 186080, Note_on_c, 9, 42, 90
1, 186119, Note_on_c, 9, 42, 0
1, 186240, Note_on_c, 9, 38, 126
1, 186240, Note_on_c, 9, 42, 106
1, 186240, Note_on_c, 9, 46, 95
1, 186479, Note_on_c, 9, 38, 0
1, 186479, Note_on_c, 9, 42, 0
1, 186479, Note_on_c, 9, 46, 0
1, 186560, Note_on_c, 9, 42, 90
1, 186599, Note_on_c, 9, 42, 0
1, 186720, Note_on_c, 9, 42, 120
1, 186959, Note_on_c, 9, 42, 0
1, 187040, Note_on_c, 9, 42, 90
1, 187079, Note_on_c, 9, 42, 0
1, 187200, Note_on_c, 9, 38, 112
1, 187200, Note_on_c, 9, 42, 106
1, 187200, Note_on_c, 9, 46, 95
1, 187439, Note_on_c, 9, 38, 0
1, 187439, Note_on_c, 9, 42, 0
1, 187439, Note_on_c, 9, 46, 0
1, 187440, Note_on_c, 9, 38, 112
1, 187519, Note_on_c, 9, 38, 0
1, 187520, Note_on_c, 9, 42, 90
1, 187559, Note_on_c, 9, 42, 0
1, 187680, Note_on_c, 9, 42, 106
1, 187919, Note_on_c, 9, 42, 0
1, 188000, Note_on_c, 9, 42, 90
1, 188039, Note_on_c, 9, 42, 0
1, 188160, Note_on_c, 9, 38, 126
1, 188160, Note_on_c, 9, 42, 106
1, 188160, Note_on_c, 9, 46, 95
1, 188399, Note_on_c, 9, 38, 0
1, 188399, Note_on_c, 9, 42, 0
1, 188399, Note_on_c, 9, 46, 0
1, 188480, Note_on_c, 9, 42, 90
1, 188519, Note_on_c, 9, 42, 0
1, 188640, Note_on_c, 9, 42, 120
1, 188879, Note_on_c, 9, 42, 0
1, 188960, Note_on_c, 9, 42, 90
1, 188999, Note_on_c, 9, 42, 0
1, 189120, Note_on_c, 9, 38, 112
1, 189120, Note_on_c, 9, 42, 106
1, 189120, Note_on_c, 9, 46, 95
1, 189359, Note_on_c, 9, 38, 0
1, 189359, Note_on_c, 9, 42, 0
1, 189359, Note_on_c, 9, 46, 0
1, 189360, Note_on_c, 9, 38, 112
1, 189439, Note_on_c, 9, 38, 0
1, 189440, Note_on_c, 9, 42, 90
1, 189479, Note_on_c, 9, 42, 0
1, 189600, Note_on_c, 9, 42, 106
1, 189839, Note_on_c, 9, 42, 0
1, 189920, Note_on_c, 9, 42, 90
1, 189959, Note_on_c, 9, 42, 0
1, 190080, Note_on_c, 9, 38, 126
1, 190080, Note_on_c, 9, 42, 106
1, 190080, Note_on_c, 9, 46, 95
1, 190319, Note_on_c, 9, 38, 0
1, 190319, Note_on_c, 9, 42, 0
1, 190319, Note_on_c, 9, 46, 0
1, 190400, Note_on_c, 9, 42, 90
1, 190439, Note_on_c, 9, 42, 0
1, 190560, Note_on_c, 9, 42, 120
1, 190799, Note_on_c, 9, 42, 0
1, 190880, Note_on_c, 9, 42, 90
1, 190919, Note_on_c, 9, 42, 0
1, 191040, Note_on_c, 9, 38, 112
1, 191040, Note_on_c, 9, 42, 106
1, 191040, Note_on_c, 9, 46, 95
1, 191279, Note_on_c, 9, 38, 0
1, 191279, Note_on_c, 9, 42, 0
1, 191279, Note_on_c, 9, 46, 0
1, 191280, Note_on_c, 9, 38, 112
1, 191359, Note_on_c, 9, 38, 0
1, 191360, Note_on_c, 9, 42, 90
1, 191399, Note_on_c, 9, 42, 0
1, 191520, Note_on_c, 9, 42, 106
1, 191759, Note_on_c, 9, 42, 0
1, 191840, Note_on_c, 9, 42, 90
1, 191879, Note_on_c, 9, 42, 0
1, 192000, Note_on_c, 9, 38, 126
1, 192000, Note_on_c, 9, 42, 106
1, 192000, Note_on_c, 9, 46, 95
1, 192239, Note_on_c, 9, 38, 0
1, 192239, Note_on_c, 9, 42, 0
1, 192239, Note_on_c, 9, 46, 0
1, 192320, Note_on_c, 9, 42, 90
1, 192359, Note_on_c, 9, 42, 0
1, 192480, Note_on_c, 9, 42, 120
1, 192719, Note_on_c, 9, 42, 0
1, 192800, Note_on_c, 9, 42, 90
1, 192839, Note_on_c, 9, 42, 0
1, 192960, Note_on_c, 9, 38, 112
1, 192960, Note_on_c, 9, 42, 106
1, 192960, Note_on_c, 9, 46, 95
1, 193199, Note_on_c, 9, 38, 0
1, 193199, Note_on_c, 9, 42, 0
1, 193199, Note_on_c, 9, 46, 0
1, 193200, Note_on_c, 9, 38, 112
1, 193279, Note_on_c, 9, 38, 0
1, 193280, Note_on_c, 9, 42, 90
1, 193319, Note_on_c, 9, 42, 0
1, 193440, Note_on_c, 9, 42, 106
1, 193679, Note_on_c, 9, 42, 0
1, 193760, Note_on_c, 9, 42, 90
1, 193799, Note_on_c, 9, 42, 0
1, 193920, Note_on_c, 9, 38, 126
1, 193920, Note_on_c, 9, 42, 106
1, 193920, Note_on_c, 9, 46, 95
1, 194159, Note_on_c, 9, 38, 0
1, 194159, Note_on_c, 9, 42, 0
1, 194159, Note_on_c, 9, 46, 0
1, 194240, Note_on_c, 9, 42, 90
1, 194279, Note_on_c, 9, 42, 0
1, 194400, Note_on_c, 9, 42, 120
1, 194639, Note_on_c, 9, 42, 0
1, 194720, Note_on_c, 9, 42, 90
1, 194759, Note_on_c, 9, 42, 0
1, 194880, Note_on_c, 9, 38, 112
1, 194880, Note_on_c, 9, 42, 106
1, 194880, Note_on_c, 9, 46, 95
1, 195119, Note_on_c, 9, 38, 0
1, 195119, Note_on_c, 9, 42, 0
1, 195119, Note_on_c, 9, 46, 0
1, 195120, Note_on_c, 9, 38, 112
1, 195199, Note_on_c, 9, 38, 0
1, 195200, Note_on_c, 9, 42, 90
1, 195239, Note_on_c, 9, 42, 0
1, 195360, Note_on_c, 9, 42, 106
1, 195599, Note_on_c, 9, 42, 0
1, 195680, Note_on_c, 9, 42, 90
1, 195719, Note_on_c, 9, 42, 0
1, 195840, Note_on_c, 9, 38, 126
1, 195840, Note_on_c, 9, 42, 106
1, 195840, Note_on_c, 9, 46, 95
1, 196079, Note_on_c, 9, 38, 0
1, 196079, Note_on_c, 9, 42, 0
1, 196079, Note_on_c, 9, 46, 0
1, 196160, Note_on_c, 9, 42, 90
1, 196199, Note_on_c, 9, 42, 0
1, 196320, Note_on_c, 9, 42, 120
1, 196559, Note_on_c, 9, 42, 0
1, 196640, Note_on_c, 9, 42, 90
1, 196679, Note_on_c, 9, 42, 0
1, 196800, Note_on_c, 9, 38, 126
1, 196800, Note_on_c, 9, 42, 106
1, 197039, Note_on_c, 9, 38, 0
1, 197039, Note_on_c, 9, 42, 0
1, 197120, Note_on_c, 9, 42, 90
1, 197159, Note_on_c, 9, 42, 0
1, 197280, Note_on_c, 9, 46, 95
1, 197519, Note_on_c, 9, 46, 0
1, 197600, Note_on_c, 9, 38, 80
1, 197759, Note_on_c, 9, 38, 0
1, 197760, Note_on_c, 9, 38, 112
1, 197999, Note_on_c, 9, 38, 0
1, 198080, Note_on_c, 9, 38, 126
1, 198239, Note_on_c, 9, 38, 0
1, 198240, Note_on_c, 9, 42, 120
1, 198479, Note_on_c, 9, 42, 0
1, 198560, Note_on_c, 9, 42, 90
1, 198599, Note_on_c, 9, 42, 0
1, 198720, Note_on_c, 9, 38, 112
1, 198720, Note_on_c, 9, 42, 106
1, 198720, Note_on_c, 9, 46, 95
1, 198959, Note_on_c, 9, 38, 0
1, 198959, Note_on_c, 9, 42, 0
1, 198959, Note_on_c, 9, 46, 0
1, 198960, Note_on_c, 9, 38, 112
1, 199039, Note_on_c, 9, 38, 0
1, 199040, Note_on_c, 9, 42, 90
1, 199079, Note_on_c, 9, 42, 0
1, 199200, Note_on_c, 9, 42, 106
1, 199439, Note_on_c, 9, 42, 0
1, 199520, Note_on_c, 9, 42, 90
1, 199559, Note_on_c, 9, 42, 0
1, 199680, Note_on_c, 9, 38, 126
1, 199680, Note_on_c, 9, 42, 106
1, 199680, Note_on_c, 9, 46, 95
1, 199919, Note_on_c, 9, 38, 0
1, 199919, Note_on_c, 9, 42, 0
1, 199919, Note_on_c, 9, 46, 0
1, 200000, Note_on_c, 9, 42, 90
1, 200039, Note_on_c, 9, 42, 0
1, 200160, Note_on_c, 9, 38, 32
1, 200160, Note_on_c, 9, 49, 125
1, 200479, Note_on_c, 9, 38, 0
1, 200479, Note_on_c, 9, 49, 0
1, 200480, Note_on_c, 9, 38, 126
1, 200639, Note_on_c, 9, 38, 0
1, 200640, Note_on_c, 9, 41, 120
1, 200640, Note_on_c, 9, 45, 120
1, 201119, Note_on_c, 9, 41, 0
1, 201119, Note_on_c, 9, 45, 0
1, 201120, Note_on_c, 9, 38, 64
1, 201134, Note_on_c, 9, 38, 0
1, 201135, Note_on_c, 9, 38, 64
1, 201194, Note_on_c, 9, 38, 0
1, 201300, Note_on_c, 9, 38, 64
1, 201359, Note_on_c, 9, 38, 0
1, 201420, Note_on_c, 9, 38, 64
1, 201599, Note_on_c, 9, 38, 0
1, 201600, Note_on_c, 9, 38, 48
1, 201600, Note_on_c, 9, 45, 120
1, 201759, Note_on_c, 9, 38, 0
1, 201759, Note_on_c, 9, 45, 0
1, 201760, Note_on_c, 9, 38, 80
1, 201839, Note_on_c, 9, 38, 0
1, 201920, Note_on_c, 9, 38, 64
1, 201920, Note_on_c, 9, 41, 120
1, 201939, Note_on_c, 9, 38, 0
1, 201939, Note_on_c, 9, 41, 0
1, 201940, Note_on_c, 9, 38, 64
1, 201959, Note_on_c, 9, 38, 0
1, 202080, Note_on_c, 9, 49, 125
1, 202559, Note_on_c, 9, 49, 0
1, 203040, Note_on_c, 9, 38, 32
1, 203040, Note_on_c, 9, 49, 125
1, 203159, Note_on_c, 9, 38, 0
1, 203159, Note_on_c, 9, 49, 0
1, 203160, Note_on_c, 9, 41, 90
1, 203279, Note_on_c, 9, 41, 0
1, 203280, Note_on_c, 9, 41, 106
1, 203519, Note_on_c, 9, 41, 0
1, 203520, Note_on_c, 9, 38, 48
1, 203520, Note_on_c, 9, 41, 74
1, 203520, Note_on_c, 9, 48, 90
1, 203639, Note_on_c, 9, 38, 0
1, 203639, Note_on_c, 9, 41, 0
1, 203639, Note_on_c, 9, 48, 0
1, 203680, Note_on_c, 9, 38, 64
1, 203759, Note_on_c, 9, 38, 0
1, 203760, Note_on_c, 9, 38, 32
1, 203879, Note_on_c, 9, 38, 0
1, 203910, Note_on_c, 9, 38, 80
1, 203999, Note_on_c, 9, 38, 0
1, 204000, Note_on_c, 9, 48, 90
1, 204039, Note_on_c, 9, 48, 0
1, 204080, Note_on_c, 9, 38, 48
1, 204159, Note_on_c, 9, 38, 0
1, 204160, Note_on_c, 9, 38, 48
1, 204239, Note_on_c, 9, 38, 0
1, 204240, Note_on_c, 9, 38, 80
1, 204329, Note_on_c, 9, 38, 0
1, 204330, Note_on_c, 9, 38, 32
1, 204359, Note_on_c, 9, 38, 0
1, 204360, Note_on_c, 9, 45, 120
1, 204389, Note_on_c, 9, 45, 0
1, 204390, Note_on_c, 9, 38, 64
1, 204479, Note_on_c, 9, 38, 0
1, 204570, Note_on_c, 9, 38, 48
1, 204599, Note_on_c, 9, 38, 0
1, 204600, Note_on_c, 9, 45, 120
1, 204629, Note_on_c, 9, 45, 0
1, 204630, Note_on_c, 9, 38, 80
1, 204719, Note_on_c, 9, 38, 0
1, 204720, Note_on_c, 9, 38, 64
1, 204809, Note_on_c, 9, 38, 0
1, 204810, Note_on_c, 9, 38, 48
1, 204839, Note_on_c, 9, 38, 0
1, 204870, Note_on_c, 9, 38, 32
1, 204959, Note_on_c, 9, 38, 0
1, 204960, Note_on_c, 9, 38, 64
1, 204960, Note_on_c, 9, 45, 120
1, 205049, Note_on_c, 9, 38, 0
1, 205049, Note_on_c, 9, 45, 0
1, 205050, Note_on_c, 9, 38, 96
1, 205079, Note_on_c, 9, 38, 0
1, 205110, Note_on_c, 9, 38, 96
1, 205199, Note_on_c, 9, 38, 0
1, 205200, Note_on_c, 9, 38, 16
1, 205289, Note_on_c, 9, 38, 0
1, 205290, Note_on_c, 9, 38, 112
1, 205319, Note_on_c, 9, 38, 0
1, 205320, Note_on_c, 9, 41, 120
1, 205349, Note_on_c, 9, 41, 0
1, 205350, Note_on_c, 9, 38, 112
1, 205439, Note_on_c, 9, 38, 0
1, 205440, Note_on_c, 9, 38, 80
1, 205440, Note_on_c, 9, 48, 58
1, 205499, Note_on_c, 9, 38, 0
1, 205499, Note_on_c, 9, 48, 0
1, 205520, Note_on_c, 9, 38, 126
1, 205559, Note_on_c, 9, 38, 0
1, 205560, Note_on_c, 9, 48, 74
1, 205599, Note_on_c, 9, 48, 0
1, 205600, Note_on_c, 9, 38, 48
1, 205619, Note_on_c, 9, 38, 0
1, 205680, Note_on_c, 9, 38, 80
1, 205680, Note_on_c, 9, 41, 120
1, 205680, Note_on_c, 9, 48, 74
1, 205769, Note_on_c, 9, 38, 0
1, 205769, Note_on_c, 9, 41, 0
1, 205769, Note_on_c, 9, 48, 0
1, 205770, Note_on_c, 9, 38, 126
1, 205799, Note_on_c, 9, 38, 0
1, 205800, Note_on_c, 9, 48, 74
1, 205829, Note_on_c, 9, 48, 0
1, 205830, Note_on_c, 9, 38, 16
1, 205919, Note_on_c, 9, 38, 0
1, 205920, Note_on_c, 9, 38, 16
1, 206009, Note_on_c, 9, 38, 0
1, 206010, Note_on_c, 9, 38, 16
1, 206039, Note_on_c, 9, 38, 0
1, 206040, Note_on_c, 9, 41, 120
1, 206040, Note_on_c, 9, 48, 58
1, 206069, Note_on_c, 9, 41, 0
1, 206069, Note_on_c, 9, 48, 0
1, 206070, Note_on_c, 9, 38, 16
1, 206159, Note_on_c, 9, 38, 0
1, 206160, Note_on_c, 9, 38, 32
1, 206160, Note_on_c, 9, 48, 58
1, 206249, Note_on_c, 9, 38, 0
1, 206249, Note_on_c, 9, 48, 0
1, 206250, Note_on_c, 9, 38, 16
1, 206279, Note_on_c, 9, 38, 0
1, 206280, Note_on_c, 9, 45, 74
1, 206324, Note_on_c, 9, 45, 0
1, 206325, Note_on_c, 9, 38, 80
1, 206339, Note_on_c, 9, 38, 0
1, 206340, Note_on_c, 9, 38, 80
1, 206399, Note_on_c, 9, 38, 0
1, 206480, Note_on_c, 9, 38, 32
1, 206519, Note_on_c, 9, 38, 0
1, 206520, Note_on_c, 9, 45, 120
1, 206549, Note_on_c, 9, 45, 0
1, 206550, Note_on_c, 9, 38, 126
1, 206639, Note_on_c, 9, 38, 0
1, 206640, Note_on_c, 9, 38, 32
1, 206759, Note_on_c, 9, 38, 0
1, 206760, Note_on_c, 9, 45, 120
1, 206789, Note_on_c, 9, 45, 0
1, 206790, Note_on_c, 9, 38, 16
1, 206879, Note_on_c, 9, 38, 0
1, 206880, Note_on_c, 9, 38, 126
1, 206969, Note_on_c, 9, 38, 0
1, 206970, Note_on_c, 9, 38, 16
1, 206999, Note_on_c, 9, 38, 0
1, 207000, Note_on_c, 9, 45, 120
1, 207029, Note_on_c, 9, 45, 0
1, 207030, Note_on_c, 9, 38, 16
1, 207119, Note_on_c, 9, 38, 0
1, 207120, Note_on_c, 9, 38, 80
1, 207239, Note_on_c, 9, 38, 0
1, 207240, Note_on_c, 9, 45, 120
1, 207359, Note_on_c, 9, 45, 0
1, 207360, Note_on_c, 9, 49, 125
1, 207839, Note_on_c, 9, 49, 0
1, 207840, End_track
0, 0, End_of_file
