0, 0, Header, 1, 1, 480
1, 0, Start_track
1, 0, Time_signature, 4, 2, 24, 8
1, 0, Key_signature, 0, "major"
1, 0, Tempo, 500000
1, 0, Control_c, 9, 121, 0
1, 0, Program_c, 9, 0
1, 0, Control_c, 9, 7, 100
1, 0, Control_c, 9, 10, 64
1, 0, Control_c, 9, 91, 0
1, 0, Control_c, 9, 93, 0
1, 0, MIDI_port, 0
1, 0, Note_on_c, 9, 42, 127
1, 479, Note_on_c, 9, 42, 0
1, 615, Note_on_c, 9, 42, 127
1, 659, Note_on_c, 9, 42, 0
1, 1440, Note_on_c, 9, 42, 127
1, 1919, Note_on_c, 9, 42, 0
1, 2520, Note_on_c, 9, 42, 127
1, 2879, Note_on_c, 9, 42, 0
1, 3360, Note_on_c, 9, 46, 127
1, 3599, Note_on_c, 9, 46, 0
1, 3600, Note_on_c, 9, 42, 127
1, 3839, Note_on_c, 9, 42, 0
1, 3840, Note_on_c, 9, 46, 127
1, 4319, Note_on_c, 9, 46, 0
1, 4320, Note_on_c, 9, 42, 127
1, 4799, Note_on_c, 9, 42, 0
1, 4800, Note_on_c, 9, 42, 127
1, 5279, Note_on_c, 9, 42, 0
1, 5280, Note_on_c, 9, 42, 127
1, 5684, Note_on_c, 9, 42, 0
1, 5685, Note_on_c, 9, 38, 43
1, 5699, Note_on_c, 9, 38, 0
1, 5760, Note_on_c, 9, 38, 127
1, 5760, Note_on_c, 9, 42, 127
1, 5925, Note_on_c, 9, 36, 127
1, 5939, Note_on_c, 9, 36, 0
1, 5999, Note_on_c, 9, 38, 0
1, 5999, Note_on_c, 9, 42, 0
1, 6000, Note_on_c, 9, 42, 127
1, 6000, Note_on_c, 9, 36, 127
1, 6239, Note_on_c, 9, 42, 0
1, 6239, Note_on_c, 9, 36, 0
1, 6240, Note_on_c, 9, 38, 127
1, 6240, Note_on_c, 9, 42, 127
1, 6359, Note_on_c, 9, 38, 0
1, 6359, Note_on_c, 9, 42, 0
1, 6360, Note_on_c, 9, 42, 43
1, 6479, Note_on_c, 9, 42, 0
1, 6480, Note_on_c, 9, 42, 127
1, 6480, Note_on_c, 9, 36, 127
1, 6719, Note_on_c, 9, 42, 0
1, 6719, Note_on_c, 9, 36, 0
1, 6720, Note_on_c, 9, 38, 127
1, 6720, Note_on_c, 9, 42, 127
1, 6839, Note_on_c, 9, 38, 0
1, 6839, Note_on_c, 9, 42, 0
1, 6840, Note_on_c, 9, 42, 43
1, 6959, Note_on_c, 9, 42, 0
1, 6960, Note_on_c, 9, 42, 127
1, 6960, Note_on_c, 9, 36, 127
1, 7199, Note_on_c, 9, 42, 0
1, 7199, Note_on_c, 9, 36, 0
1, 7200, Note_on_c, 9, 38, 127
1, 7200, Note_on_c, 9, 42, 127
1, 7319, Note_on_c, 9, 38, 0
1, 7319, Note_on_c, 9, 42, 0
1, 7320, Note_on_c, 9, 42, 43
1, 7439, Note_on_c, 9, 42, 0
1, 7440, Note_on_c, 9, 42, 127
1, 7440, Note_on_c, 9, 36, 127
1, 7679, Note_on_c, 9, 42, 0
1, 7679, Note_on_c, 9, 36, 0
1, 7680, Note_on_c, 9, 38, 127
1, 7680, Note_on_c, 9, 42, 127
1, 7799, Note_on_c, 9, 38, 0
1, 7799, Note_on_c, 9, 42, 0
1, 7800, Note_on_c, 9, 42, 43
1, 7919, Note_on_c, 9, 42, 0
1, 7920, Note_on_c, 9, 42, 127
1, 7920, Note_on_c, 9, 36, 127
1, 8159, Note_on_c, 9, 42, 0
1, 8159, Note_on_c, 9, 36, 0
1, 8160, Note_on_c, 9, 38, 127
1, 8160, Note_on_c, 9, 42, 127
1, 8279, Note_on_c, 9, 38, 0
1, 8279, Note_on_c, 9, 42, 0
1, 8280, Note_on_c, 9, 42, 43
1, 8399, Note_on_c, 9, 42, 0
1, 8415, Note_on_c, 9, 42, 127
1, 8415, Note_on_c, 9, 36, 127
1, 8639, Note_on_c, 9, 42, 0
1, 8639, Note_on_c, 9, 36, 0
1, 8640, Note_on_c, 9, 38, 127
1, 8640, Note_on_c, 9, 42, 127
1, 8759, Note_on_c, 9, 38, 0
1, 8759, Note_on_c, 9, 42, 0
1, 8775, Note_on_c, 9, 42, 43
1, 8819, Note_on_c, 9, 42, 0
1, 8895, Note_on_c, 9, 42, 127
1, 8895, Note_on_c, 9, 36, 127
1, 9119, Note_on_c, 9, 42, 0
1, 9119, Note_on_c, 9, 36, 0
1, 9120, Note_on_c, 9, 38, 127
1, 9120, Note_on_c, 9, 42, 127
1, 9239, Note_on_c, 9, 38, 0
1, 9239, Note_on_c, 9, 42, 0
1, 9240, Note_on_c, 9, 42, 43
1, 9359, Note_on_c, 9, 42, 0
1, 9360, Note_on_c, 9, 42, 127
1, 9360, Note_on_c, 9, 36, 127
1, 9599, Note_on_c, 9, 42, 0
1, 9599, Note_on_c, 9, 36, 0
1, 9600, Note_on_c, 9, 38, 127
1, 9600, Note_on_c, 9, 42, 127
1, 9719, Note_on_c, 9, 38, 0
1, 9719, Note_on_c, 9, 42, 0
1, 9720, Note_on_c, 9, 42, 43
1, 9839, Note_on_c, 9, 42, 0
1, 9840, Note_on_c, 9, 38, 127
1, 9840, Note_on_c, 9, 42, 127
1, 9840, Note_on_c, 9, 36, 127
1, 9959, Note_on_c, 9, 38, 0
1, 9959, Note_on_c, 9, 42, 0
1, 9960, Note_on_c, 9, 38, 43
1, 10079, Note_on_c, 9, 36, 0
1, 10079, Note_on_c, 9, 38, 0
1, 10080, Note_on_c, 9, 42, 127
1, 10199, Note_on_c, 9, 42, 0
1, 10200, Note_on_c, 9, 38, 43
1, 10200, Note_on_c, 9, 42, 43
1, 10319, Note_on_c, 9, 38, 0
1, 10319, Note_on_c, 9, 42, 0
1, 10320, Note_on_c, 9, 38, 127
1, 10320, Note_on_c, 9, 42, 127
1, 10320, Note_on_c, 9, 36, 127
1, 10439, Note_on_c, 9, 38, 0
1, 10439, Note_on_c, 9, 42, 0
1, 10440, Note_on_c, 9, 38, 43
1, 10559, Note_on_c, 9, 36, 0
1, 10559, Note_on_c, 9, 38, 0
1, 10560, Note_on_c, 9, 42, 127
1, 10679, Note_on_c, 9, 42, 0
1, 10680, Note_on_c, 9, 38, 43
1, 10680, Note_on_c, 9, 42, 43
1, 10799, Note_on_c, 9, 38, 0
1, 10799, Note_on_c, 9, 42, 0
1, 10800, Note_on_c, 9, 38, 127
1, 10800, Note_on_c, 9, 42, 127
1, 10800, Note_on_c, 9, 36, 127
1, 10919, Note_on_c, 9, 38, 0
1, 10919, Note_on_c, 9, 42, 0
1, 10920, Note_on_c, 9, 38, 43
1, 11039, Note_on_c, 9, 36, 0
1, 11039, Note_on_c, 9, 38, 0
1, 11040, Note_on_c, 9, 42, 127
1, 11159, Note_on_c, 9, 42, 0
1, 11160, Note_on_c, 9, 38, 43
1, 11160, Note_on_c, 9, 42, 43
1, 11279, Note_on_c, 9, 38, 0
1, 11279, Note_on_c, 9, 42, 0
1, 11280, Note_on_c, 9, 42, 127
1, 11280, Note_on_c, 9, 36, 127
1, 11399, Note_on_c, 9, 42, 0
1, 11400, Note_on_c, 9, 38, 43
1, 11459, Note_on_c, 9, 38, 0
1, 11460, Note_on_c, 9, 38, 25
1, 11519, Note_on_c, 9, 36, 0
1, 11519, Note_on_c, 9, 38, 0
1, 11520, Note_on_c, 9, 38, 43
1, 11520, Note_on_c, 9, 42, 127
1, 11579, Note_on_c, 9, 38, 0
1, 11579, Note_on_c, 9, 42, 0
1, 11580, Note_on_c, 9, 38, 43
1, 11639, Note_on_c, 9, 38, 0
1, 11640, Note_on_c, 9, 38, 127
1, 11640, Note_on_c, 9, 42, 43
1, 11699, Note_on_c, 9, 38, 0
1, 11699, Note_on_c, 9, 42, 0
1, 11700, Note_on_c, 9, 38, 127
1, 11759, Note_on_c, 9, 38, 0
1, 11760, Note_on_c, 9, 42, 127
1, 11760, Note_on_c, 9, 36, 127
1, 11999, Note_on_c, 9, 42, 0
1, 11999, Note_on_c, 9, 36, 0
1, 12000, Note_on_c, 9, 38, 127
1, 12000, Note_on_c, 9, 42, 127
1, 12119, Note_on_c, 9, 38, 0
1, 12119, Note_on_c, 9, 42, 0
1, 12120, Note_on_c, 9, 42, 43
1, 12239, Note_on_c, 9, 42, 0
1, 12240, Note_on_c, 9, 42, 127
1, 12240, Note_on_c, 9, 36, 127
1, 12479, Note_on_c, 9, 42, 0
1, 12479, Note_on_c, 9, 36, 0
1, 12480, Note_on_c, 9, 38, 127
1, 12480, Note_on_c, 9, 42, 127
1, 12599, Note_on_c, 9, 38, 0
1, 12599, Note_on_c, 9, 42, 0
1, 12600, Note_on_c, 9, 42, 43
1, 12719, Note_on_c, 9, 42, 0
1, 12720, Note_on_c, 9, 42, 127
1, 12720, Note_on_c, 9, 36, 127
1, 12959, Note_on_c, 9, 42, 0
1, 12959, Note_on_c, 9, 36, 0
1, 12960, Note_on_c, 9, 38, 127
1, 12960, Note_on_c, 9, 42, 127
1, 13079, Note_on_c, 9, 38, 0
1, 13079, Note_on_c, 9, 42, 0
1, 13080, Note_on_c, 9, 42, 43
1, 13199, Note_on_c, 9, 42, 0
1, 13200, Note_on_c, 9, 42, 127
1, 13200, Note_on_c, 9, 36, 127
1, 13439, Note_on_c, 9, 42, 0
1, 13439, Note_on_c, 9, 36, 0
1, 13440, Note_on_c, 9, 38, 127
1, 13440, Note_on_c, 9, 42, 127
1, 13559, Note_on_c, 9, 38, 0
1, 13559, Note_on_c, 9, 42, 0
1, 13560, Note_on_c, 9, 42, 43
1, 13679, Note_on_c, 9, 42, 0
1, 13680, Note_on_c, 9, 42, 127
1, 13680, Note_on_c, 9, 36, 127
1, 13919, Note_on_c, 9, 42, 0
1, 13919, Note_on_c, 9, 36, 0
1, 13920, Note_on_c, 9, 38, 127
1, 13920, Note_on_c, 9, 42, 127
1, 14039, Note_on_c, 9, 38, 0
1, 14039, Note_on_c, 9, 42, 0
1, 14040, Note_on_c, 9, 42, 43
1, 14159, Note_on_c, 9, 42, 0
1, 14160, Note_on_c, 9, 42, 127
1, 14160, Note_on_c, 9, 36, 127
1, 14399, Note_on_c, 9, 42, 0
1, 14399, Note_on_c, 9, 36, 0
1, 14400, Note_on_c, 9, 38, 127
1, 14400, Note_on_c, 9, 42, 127
1, 14519, Note_on_c, 9, 38, 0
1, 14519, Note_on_c, 9, 42, 0
1, 14520, Note_on_c, 9, 42, 43
1, 14639, Note_on_c, 9, 42, 0
1, 14640, Note_on_c, 9, 42, 127
1, 14640, Note_on_c, 9, 36, 127
1, 14879, Note_on_c, 9, 42, 0
1, 14879, Note_on_c, 9, 36, 0
1, 14880, Note_on_c, 9, 38, 127
1, 14880, Note_on_c, 9, 42, 127
1, 14999, Note_on_c, 9, 38, 0
1, 14999, Note_on_c, 9, 42, 0
1, 15000, Note_on_c, 9, 42, 43
1, 15119, Note_on_c, 9, 42, 0
1, 15120, Note_on_c, 9, 42, 127
1, 15120, Note_on_c, 9, 36, 127
1, 15359, Note_on_c, 9, 42, 0
1, 15359, Note_on_c, 9, 36, 0
1, 15360, Note_on_c, 9, 38, 127
1, 15360, Note_on_c, 9, 42, 127
1, 15479, Note_on_c, 9, 38, 0
1, 15479, Note_on_c, 9, 42, 0
1, 15480, Note_on_c, 9, 42, 43
1, 15599, Note_on_c, 9, 42, 0
1, 15600, Note_on_c, 9, 42, 127
1, 15600, Note_on_c, 9, 36, 127
1, 15839, Note_on_c, 9, 42, 0
1, 15839, Note_on_c, 9, 36, 0
1, 15840, Note_on_c, 9, 38, 127
1, 15840, Note_on_c, 9, 42, 127
1, 15959, Note_on_c, 9, 38, 0
1, 15959, Note_on_c, 9, 42, 0
1, 15960, Note_on_c, 9, 42, 43
1, 16079, Note_on_c, 9, 42, 0
1, 16080, Note_on_c, 9, 42, 127
1, 16080, Note_on_c, 9, 36, 127
1, 16319, Note_on_c, 9, 42, 0
1, 16319, Note_on_c, 9, 36, 0
1, 16320, Note_on_c, 9, 38, 127
1, 16320, Note_on_c, 9, 42, 127
1, 16439, Note_on_c, 9, 38, 0
1, 16439, Note_on_c, 9, 42, 0
1, 16440, Note_on_c, 9, 42, 43
1, 16559, Note_on_c, 9, 42, 0
1, 16560, Note_on_c, 9, 42, 127
1, 16560, Note_on_c, 9, 36, 127
1, 16799, Note_on_c, 9, 42, 0
1, 16799, Note_on_c, 9, 36, 0
1, 16800, Note_on_c, 9, 38, 127
1, 16800, Note_on_c, 9, 42, 127
1, 16919, Note_on_c, 9, 38, 0
1, 16919, Note_on_c, 9, 42, 0
1, 16920, Note_on_c, 9, 42, 43
1, 17039, Note_on_c, 9, 42, 0
1, 17040, Note_on_c, 9, 42, 127
1, 17040, Note_on_c, 9, 36, 127
1, 17279, Note_on_c, 9, 42, 0
1, 17279, Note_on_c, 9, 36, 0
1, 17280, Note_on_c, 9, 38, 127
1, 17280, Note_on_c, 9, 42, 127
1, 17399, Note_on_c, 9, 38, 0
1, 17399, Note_on_c, 9, 42, 0
1, 17400, Note_on_c, 9, 42, 43
1, 17519, Note_on_c, 9, 42, 0
1, 17520, Note_on_c, 9, 42, 127
1, 17520, Note_on_c, 9, 36, 127
1, 17759, Note_on_c, 9, 42, 0
1, 17759, Note_on_c, 9, 36, 0
1, 17760, Note_on_c, 9, 38, 127
1, 17760, Note_on_c, 9, 42, 127
1, 17879, Note_on_c, 9, 38, 0
1, 17879, Note_on_c, 9, 42, 0
1, 17880, Note_on_c, 9, 42, 43
1, 17999, Note_on_c, 9, 42, 0
1, 18000, Note_on_c, 9, 42, 127
1, 18000, Note_on_c, 9, 36, 127
1, 18239, Note_on_c, 9, 42, 0
1, 18239, Note_on_c, 9, 36, 0
1, 18240, Note_on_c, 9, 38, 127
1, 18240, Note_on_c, 9, 42, 127
1, 18359, Note_on_c, 9, 38, 0
1, 18359, Note_on_c, 9, 42, 0
1, 18360, Note_on_c, 9, 42, 43
1, 18479, Note_on_c, 9, 42, 0
1, 18480, Note_on_c, 9, 42, 127
1, 18480, Note_on_c, 9, 36, 127
1, 18719, Note_on_c, 9, 42, 0
1, 18719, Note_on_c, 9, 36, 0
1, 18720, Note_on_c, 9, 38, 127
1, 18720, Note_on_c, 9, 42, 127
1, 18839, Note_on_c, 9, 38, 0
1, 18839, Note_on_c, 9, 42, 0
1, 18840, Note_on_c, 9, 42, 43
1, 18959, Note_on_c, 9, 42, 0
1, 18960, Note_on_c, 9, 42, 127
1, 18960, Note_on_c, 9, 36, 127
1, 19199, Note_on_c, 9, 42, 0
1, 19199, Note_on_c, 9, 36, 0
1, 19200, Note_on_c, 9, 38, 127
1, 19200, Note_on_c, 9, 42, 127
1, 19319, Note_on_c, 9, 38, 0
1, 19319, Note_on_c, 9, 42, 0
1, 19320, Note_on_c, 9, 42, 43
1, 19439, Note_on_c, 9, 42, 0
1, 19440, Note_on_c, 9, 46, 127
1, 19440, Note_on_c, 9, 36, 127
1, 19679, Note_on_c, 9, 46, 0
1, 19679, Note_on_c, 9, 36, 0
1, 19680, Note_on_c, 9, 38, 127
1, 19680, Note_on_c, 9, 42, 127
1, 19799, Note_on_c, 9, 38, 0
1, 19799, Note_on_c, 9, 42, 0
1, 19800, Note_on_c, 9, 42, 43
1, 19800, Note_on_c, 9, 36, 127
1, 19919, Note_on_c, 9, 42, 0
1, 19919, Note_on_c, 9, 36, 0
1, 19920, Note_on_c, 9, 46, 127
1, 19920, Note_on_c, 9, 36, 127
1, 20159, Note_on_c, 9, 46, 0
1, 20159, Note_on_c, 9, 36, 0
1, 20160, Note_on_c, 9, 38, 127
1, 20160, Note_on_c, 9, 42, 127
1, 20280, Note_on_c, 9, 36, 127
1, 20399, Note_on_c, 9, 38, 0
1, 20399, Note_on_c, 9, 42, 0
1, 20400, Note_on_c, 9, 46, 127
1, 20519, Note_on_c, 9, 36, 0
1, 20520, Note_on_c, 9, 36, 127
1, 20639, Note_on_c, 9, 46, 0
1, 20639, Note_on_c, 9, 36, 0
1, 20640, Note_on_c, 9, 38, 127
1, 20640, Note_on_c, 9, 42, 127
1, 20759, Note_on_c, 9, 38, 0
1, 20759, Note_on_c, 9, 42, 0
1, 20760, Note_on_c, 9, 46, 127
1, 20760, Note_on_c, 9, 36, 127
1, 20999, Note_on_c, 9, 36, 0
1, 21000, Note_on_c, 9, 36, 127
1, 21119, Note_on_c, 9, 46, 0
1, 21119, Note_on_c, 9, 36, 0
1, 21120, Note_on_c, 9, 38, 127
1, 21120, Note_on_c, 9, 42, 127
1, 21239, Note_on_c, 9, 38, 0
1, 21239, Note_on_c, 9, 42, 0
1, 21240, Note_on_c, 9, 42, 43
1, 21240, Note_on_c, 9, 36, 127
1, 21359, Note_on_c, 9, 42, 0
1, 21359, Note_on_c, 9, 36, 0
1, 21360, Note_on_c, 9, 42, 127
1, 21360, Note_on_c, 9, 36, 127
1, 21599, Note_on_c, 9, 42, 0
1, 21599, Note_on_c, 9, 36, 0
1, 21600, Note_on_c, 9, 38, 127
1, 21600, Note_on_c, 9, 42, 127
1, 21719, Note_on_c, 9, 38, 0
1, 21719, Note_on_c, 9, 42, 0
1, 21720, Note_on_c, 9, 42, 43
1, 21839, Note_on_c, 9, 42, 0
1, 21840, Note_on_c, 9, 42, 127
1, 21840, Note_on_c, 9, 36, 127
1, 22079, Note_on_c, 9, 42, 0
1, 22079, Note_on_c, 9, 36, 0
1, 22080, Note_on_c, 9, 38, 127
1, 22080, Note_on_c, 9, 42, 127
1, 22199, Note_on_c, 9, 38, 0
1, 22199, Note_on_c, 9, 42, 0
1, 22200, Note_on_c, 9, 42, 43
1, 22319, Note_on_c, 9, 42, 0
1, 22320, Note_on_c, 9, 42, 127
1, 22320, Note_on_c, 9, 36, 127
1, 22559, Note_on_c, 9, 42, 0
1, 22559, Note_on_c, 9, 36, 0
1, 22560, Note_on_c, 9, 38, 127
1, 22560, Note_on_c, 9, 42, 127
1, 22679, Note_on_c, 9, 38, 0
1, 22679, Note_on_c, 9, 42, 0
1, 22680, Note_on_c, 9, 42, 43
1, 22799, Note_on_c, 9, 42, 0
1, 22800, Note_on_c, 9, 42, 127
1, 22800, Note_on_c, 9, 36, 127
1, 23039, Note_on_c, 9, 42, 0
1, 23039, Note_on_c, 9, 36, 0
1, 23040, Note_on_c, 9, 38, 127
1, 23040, Note_on_c, 9, 42, 127
1, 23159, Note_on_c, 9, 38, 0
1, 23159, Note_on_c, 9, 42, 0
1, 23160, Note_on_c, 9, 42, 43
1, 23279, Note_on_c, 9, 42, 0
1, 23280, Note_on_c, 9, 42, 127
1, 23280, Note_on_c, 9, 36, 127
1, 23519, Note_on_c, 9, 42, 0
1, 23519, Note_on_c, 9, 36, 0
1, 23520, Note_on_c, 9, 38, 127
1, 23520, Note_on_c, 9, 42, 127
1, 23639, Note_on_c, 9, 38, 0
1, 23639, Note_on_c, 9, 42, 0
1, 23640, Note_on_c, 9, 42, 43
1, 23759, Note_on_c, 9, 42, 0
1, 23760, Note_on_c, 9, 42, 127
1, 23760, Note_on_c, 9, 36, 127
1, 23999, Note_on_c, 9, 42, 0
1, 23999, Note_on_c, 9, 36, 0
1, 24000, Note_on_c, 9, 38, 127
1, 24000, Note_on_c, 9, 42, 127
1, 24119, Note_on_c, 9, 38, 0
1, 24119, Note_on_c, 9, 42, 0
1, 24120, Note_on_c, 9, 42, 43
1, 24239, Note_on_c, 9, 42, 0
1, 24240, Note_on_c, 9, 42, 127
1, 24240, Note_on_c, 9, 36, 127
1, 24479, Note_on_c, 9, 42, 0
1, 24479, Note_on_c, 9, 36, 0
1, 24480, Note_on_c, 9, 38, 127
1, 24480, Note_on_c, 9, 42, 127
1, 24599, Note_on_c, 9, 38, 0
1, 24599, Note_on_c, 9, 42, 0
1, 24600, Note_on_c, 9, 42, 43
1, 24719, Note_on_c, 9, 42, 0
1, 24720, Note_on_c, 9, 42, 127
1, 24720, Note_on_c, 9, 36, 127
1, 24959, Note_on_c, 9, 42, 0
1, 24959, Note_on_c, 9, 36, 0
1, 24960, Note_on_c, 9, 38, 127
1, 24960, Note_on_c, 9, 42, 127
1, 25079, Note_on_c, 9, 38, 0
1, 25079, Note_on_c, 9, 42, 0
1, 25080, Note_on_c, 9, 42, 43
1, 25199, Note_on_c, 9, 42, 0
1, 25200, Note_on_c, 9, 42, 127
1, 25200, Note_on_c, 9, 36, 127
1, 25439, Note_on_c, 9, 42, 0
1, 25439, Note_on_c, 9, 36, 0
1, 25440, Note_on_c, 9, 38, 127
1, 25440, Note_on_c, 9, 42, 127
1, 25559, Note_on_c, 9, 38, 0
1, 25559, Note_on_c, 9, 42, 0
1, 25560, Note_on_c, 9, 42, 43
1, 25679, Note_on_c, 9, 42, 0
1, 25680, Note_on_c, 9, 42, 127
1, 25680, Note_on_c, 9, 36, 127
1, 25919, Note_on_c, 9, 42, 0
1, 25919, Note_on_c, 9, 36, 0
1, 25920, Note_on_c, 9, 38, 127
1, 25920, Note_on_c, 9, 42, 127
1, 26039, Note_on_c, 9, 38, 0
1, 26039, Note_on_c, 9, 42, 0
1, 26040, Note_on_c, 9, 42, 43
1, 26159, Note_on_c, 9, 42, 0
1, 26160, Note_on_c, 9, 42, 127
1, 26160, Note_on_c, 9, 36, 127
1, 26399, Note_on_c, 9, 42, 0
1, 26399, Note_on_c, 9, 36, 0
1, 26400, Note_on_c, 9, 38, 127
1, 26400, Note_on_c, 9, 42, 127
1, 26519, Note_on_c, 9, 38, 0
1, 26519, Note_on_c, 9, 42, 0
1, 26520, Note_on_c, 9, 42, 43
1, 26639, Note_on_c, 9, 42, 0
1, 26640, Note_on_c, 9, 42, 127
1, 26640, Note_on_c, 9, 36, 127
1, 26879, Note_on_c, 9, 42, 0
1, 26879, Note_on_c, 9, 36, 0
1, 26880, Note_on_c, 9, 38, 127
1, 26880, Note_on_c, 9, 42, 127
1, 26999, Note_on_c, 9, 38, 0
1, 26999, Note_on_c, 9, 42, 0
1, 27000, Note_on_c, 9, 42, 43
1, 27119, Note_on_c, 9, 42, 0
1, 27120, Note_on_c, 9, 42, 127
1, 27120, Note_on_c, 9, 36, 127
1, 27359, Note_on_c, 9, 42, 0
1, 27359, Note_on_c, 9, 36, 0
1, 27360, Note_on_c, 9, 38, 127
1, 27360, Note_on_c, 9, 42, 127
1, 27479, Note_on_c, 9, 38, 0
1, 27479, Note_on_c, 9, 42, 0
1, 27480, Note_on_c, 9, 42, 43
1, 27599, Note_on_c, 9, 42, 0
1, 27600, Note_on_c, 9, 42, 127
1, 27600, Note_on_c, 9, 36, 127
1, 27839, Note_on_c, 9, 42, 0
1, 27839, Note_on_c, 9, 36, 0
1, 27840, Note_on_c, 9, 38, 127
1, 27840, Note_on_c, 9, 42, 127
1, 27959, Note_on_c, 9, 38, 0
1, 27959, Note_on_c, 9, 42, 0
1, 27960, Note_on_c, 9, 42, 43
1, 28079, Note_on_c, 9, 42, 0
1, 28080, Note_on_c, 9, 42, 127
1, 28080, Note_on_c, 9, 36, 127
1, 28319, Note_on_c, 9, 42, 0
1, 28319, Note_on_c, 9, 36, 0
1, 28320, Note_on_c, 9, 38, 127
1, 28320, Note_on_c, 9, 42, 127
1, 28439, Note_on_c, 9, 38, 0
1, 28439, Note_on_c, 9, 42, 0
1, 28440, Note_on_c, 9, 42, 43
1, 28559, Note_on_c, 9, 42, 0
1, 28560, Note_on_c, 9, 42, 127
1, 28560, Note_on_c, 9, 36, 127
1, 28799, Note_on_c, 9, 42, 0
1, 28799, Note_on_c, 9, 36, 0
1, 28800, Note_on_c, 9, 38, 127
1, 28800, Note_on_c, 9, 42, 127
1, 28919, Note_on_c, 9, 38, 0
1, 28919, Note_on_c, 9, 42, 0
1, 28920, Note_on_c, 9, 42, 43
1, 29039, Note_on_c, 9, 42, 0
1, 29040, Note_on_c, 9, 46, 127
1, 29040, Note_on_c, 9, 36, 127
1, 29279, Note_on_c, 9, 46, 0
1, 29279, Note_on_c, 9, 36, 0
1, 29280, Note_on_c, 9, 38, 127
1, 29280, Note_on_c, 9, 42, 127
1, 29399, Note_on_c, 9, 38, 0
1, 29399, Note_on_c, 9, 42, 0
1, 29400, Note_on_c, 9, 42, 43
1, 29400, Note_on_c, 9, 36, 127
1, 29519, Note_on_c, 9, 42, 0
1, 29519, Note_on_c, 9, 36, 0
1, 29520, Note_on_c, 9, 46, 127
1, 29520, Note_on_c, 9, 36, 127
1, 29759, Note_on_c, 9, 46, 0
1, 29759, Note_on_c, 9, 36, 0
1, 29760, Note_on_c, 9, 38, 127
1, 29760, Note_on_c, 9, 42, 127
1, 29880, Note_on_c, 9, 36, 127
1, 29999, Note_on_c, 9, 38, 0
1, 29999, Note_on_c, 9, 42, 0
1, 30000, Note_on_c, 9, 46, 127
1, 30119, Note_on_c, 9, 36, 0
1, 30120, Note_on_c, 9, 36, 127
1, 30239, Note_on_c, 9, 46, 0
1, 30239, Note_on_c, 9, 36, 0
1, 30240, Note_on_c, 9, 38, 127
1, 30240, Note_on_c, 9, 42, 127
1, 30359, Note_on_c, 9, 38, 0
1, 30359, Note_on_c, 9, 42, 0
1, 30360, Note_on_c, 9, 46, 127
1, 30360, Note_on_c, 9, 36, 127
1, 30599, Note_on_c, 9, 36, 0
1, 30600, Note_on_c, 9, 36, 127
1, 30719, Note_on_c, 9, 46, 0
1, 30719, Note_on_c, 9, 36, 0
1, 30720, Note_on_c, 9, 38, 127
1, 30720, Note_on_c, 9, 42, 127
1, 30839, Note_on_c, 9, 38, 0
1, 30839, Note_on_c, 9, 42, 0
1, 30840, Note_on_c, 9, 42, 43
1, 30840, Note_on_c, 9, 36, 127
1, 30959, Note_on_c, 9, 42, 0
1, 30959, Note_on_c, 9, 36, 0
1, 30960, Note_on_c, 9, 42, 127
1, 30960, Note_on_c, 9, 36, 127
1, 31199, Note_on_c, 9, 42, 0
1, 31199, Note_on_c, 9, 36, 0
1, 31200, Note_on_c, 9, 38, 127
1, 31200, Note_on_c, 9, 42, 127
1, 31319, Note_on_c, 9, 38, 0
1, 31319, Note_on_c, 9, 42, 0
1, 31320, Note_on_c, 9, 42, 43
1, 31439, Note_on_c, 9, 42, 0
1, 31440, Note_on_c, 9, 42, 127
1, 31440, Note_on_c, 9, 36, 127
1, 31679, Note_on_c, 9, 42, 0
1, 31679, Note_on_c, 9, 36, 0
1, 31680, Note_on_c, 9, 38, 127
1, 31680, Note_on_c, 9, 42, 127
1, 31799, Note_on_c, 9, 38, 0
1, 31799, Note_on_c, 9, 42, 0
1, 31800, Note_on_c, 9, 42, 43
1, 31919, Note_on_c, 9, 42, 0
1, 31920, Note_on_c, 9, 42, 127
1, 31920, Note_on_c, 9, 36, 127
1, 32159, Note_on_c, 9, 42, 0
1, 32159, Note_on_c, 9, 36, 0
1, 32160, Note_on_c, 9, 38, 127
1, 32160, Note_on_c, 9, 42, 127
1, 32279, Note_on_c, 9, 38, 0
1, 32279, Note_on_c, 9, 42, 0
1, 32280, Note_on_c, 9, 42, 43
1, 32399, Note_on_c, 9, 42, 0
1, 32400, Note_on_c, 9, 42, 127
1, 32400, Note_on_c, 9, 36, 127
1, 32639, Note_on_c, 9, 42, 0
1, 32639, Note_on_c, 9, 36, 0
1, 32640, Note_on_c, 9, 38, 127
1, 32640, Note_on_c, 9, 42, 127
1, 32759, Note_on_c, 9, 38, 0
1, 32759, Note_on_c, 9, 42, 0
1, 32760, Note_on_c, 9, 42, 43
1, 32879, Note_on_c, 9, 42, 0
1, 32880, Note_on_c, 9, 42, 127
1, 32880, Note_on_c, 9, 36, 127
1, 33119, Note_on_c, 9, 42, 0
1, 33119, Note_on_c, 9, 36, 0
1, 33120, Note_on_c, 9, 38, 127
1, 33120, Note_on_c, 9, 42, 127
1, 33239, Note_on_c, 9, 38, 0
1, 33239, Note_on_c, 9, 42, 0
1, 33240, Note_on_c, 9, 42, 43
1, 33359, Note_on_c, 9, 42, 0
1, 33360, Note_on_c, 9, 42, 127
1, 33360, Note_on_c, 9, 36, 127
1, 33599, Note_on_c, 9, 42, 0
1, 33599, Note_on_c, 9, 36, 0
1, 33600, Note_on_c, 9, 38, 127
1, 33600, Note_on_c, 9, 42, 127
1, 33719, Note_on_c, 9, 38, 0
1, 33719, Note_on_c, 9, 42, 0
1, 33720, Note_on_c, 9, 42, 43
1, 33839, Note_on_c, 9, 42, 0
1, 33840, Note_on_c, 9, 42, 127
1, 33840, Note_on_c, 9, 36, 127
1, 34079, Note_on_c, 9, 42, 0
1, 34079, Note_on_c, 9, 36, 0
1, 34080, Note_on_c, 9, 38, 127
1, 34080, Note_on_c, 9, 42, 127
1, 34199, Note_on_c, 9, 38, 0
1, 34199, Note_on_c, 9, 42, 0
1, 34200, Note_on_c, 9, 42, 43
1, 34319, Note_on_c, 9, 42, 0
1, 34320, Note_on_c, 9, 42, 127
1, 34320, Note_on_c, 9, 36, 127
1, 34559, Note_on_c, 9, 42, 0
1, 34559, Note_on_c, 9, 36, 0
1, 34560, Note_on_c, 9, 38, 127
1, 34560, Note_on_c, 9, 42, 127
1, 34679, Note_on_c, 9, 38, 0
1, 34679, Note_on_c, 9, 42, 0
1, 34680, Note_on_c, 9, 42, 43
1, 34799, Note_on_c, 9, 42, 0
1, 34800, Note_on_c, 9, 42, 127
1, 34800, Note_on_c, 9, 36, 127
1, 35039, Note_on_c, 9, 42, 0
1, 35039, Note_on_c, 9, 36, 0
1, 35040, Note_on_c, 9, 38, 127
1, 35040, Note_on_c, 9, 42, 127
1, 35159, Note_on_c, 9, 38, 0
1, 35159, Note_on_c, 9, 42, 0
1, 35160, Note_on_c, 9, 42, 43
1, 35279, Note_on_c, 9, 42, 0
1, 35280, Note_on_c, 9, 42, 127
1, 35280, Note_on_c, 9, 36, 127
1, 35519, Note_on_c, 9, 42, 0
1, 35519, Note_on_c, 9, 36, 0
1, 35520, Note_on_c, 9, 38, 127
1, 35520, Note_on_c, 9, 42, 127
1, 35639, Note_on_c, 9, 38, 0
1, 35639, Note_on_c, 9, 42, 0
1, 35640, Note_on_c, 9, 42, 43
1, 35759, Note_on_c, 9, 42, 0
1, 35760, Note_on_c, 9, 42, 127
1, 35760, Note_on_c, 9, 36, 127
1, 35999, Note_on_c, 9, 42, 0
1, 35999, Note_on_c, 9, 36, 0
1, 36000, Note_on_c, 9, 38, 127
1, 36000, Note_on_c, 9, 42, 127
1, 36119, Note_on_c, 9, 38, 0
1, 36119, Note_on_c, 9, 42, 0
1, 36120, Note_on_c, 9, 42, 43
1, 36239, Note_on_c, 9, 42, 0
1, 36240, Note_on_c, 9, 42, 127
1, 36240, Note_on_c, 9, 36, 127
1, 36479, Note_on_c, 9, 42, 0
1, 36479, Note_on_c, 9, 36, 0
1, 36480, Note_on_c, 9, 38, 127
1, 36480, Note_on_c, 9, 42, 127
1, 36599, Note_on_c, 9, 38, 0
1, 36599, Note_on_c, 9, 42, 0
1, 36600, Note_on_c, 9, 42, 43
1, 36719, Note_on_c, 9, 42, 0
1, 36720, Note_on_c, 9, 42, 127
1, 36720, Note_on_c, 9, 36, 127
1, 36959, Note_on_c, 9, 42, 0
1, 36959, Note_on_c, 9, 36, 0
1, 36960, Note_on_c, 9, 38, 127
1, 36960, Note_on_c, 9, 42, 127
1, 37079, Note_on_c, 9, 38, 0
1, 37079, Note_on_c, 9, 42, 0
1, 37080, Note_on_c, 9, 42, 43
1, 37199, Note_on_c, 9, 42, 0
1, 37200, Note_on_c, 9, 42, 127
1, 37200, Note_on_c, 9, 36, 127
1, 37439, Note_on_c, 9, 42, 0
1, 37439, Note_on_c, 9, 36, 0
1, 37440, Note_on_c, 9, 38, 127
1, 37440, Note_on_c, 9, 42, 127
1, 37559, Note_on_c, 9, 38, 0
1, 37559, Note_on_c, 9, 42, 0
1, 37560, Note_on_c, 9, 42, 43
1, 37679, Note_on_c, 9, 42, 0
1, 37680, Note_on_c, 9, 42, 127
1, 37680, Note_on_c, 9, 36, 127
1, 37919, Note_on_c, 9, 42, 0
1, 37919, Note_on_c, 9, 36, 0
1, 37920, Note_on_c, 9, 38, 127
1, 37920, Note_on_c, 9, 42, 127
1, 38039, Note_on_c, 9, 38, 0
1, 38039, Note_on_c, 9, 42, 0
1, 38040, Note_on_c, 9, 42, 43
1, 38159, Note_on_c, 9, 42, 0
1, 38160, Note_on_c, 9, 42, 127
1, 38160, Note_on_c, 9, 36, 127
1, 38399, Note_on_c, 9, 42, 0
1, 38399, Note_on_c, 9, 36, 0
1, 38400, Note_on_c, 9, 38, 127
1, 38400, Note_on_c, 9, 42, 127
1, 38519, Note_on_c, 9, 38, 0
1, 38519, Note_on_c, 9, 42, 0
1, 38520, Note_on_c, 9, 42, 43
1, 38639, Note_on_c, 9, 42, 0
1, 38655, Note_on_c, 9, 46, 127
1, 38655, Note_on_c, 9, 36, 127
1, 38879, Note_on_c, 9, 46, 0
1, 38879, Note_on_c, 9, 36, 0
1, 38880, Note_on_c, 9, 38, 127
1, 38880, Note_on_c, 9, 42, 127
1, 38999, Note_on_c, 9, 38, 0
1, 38999, Note_on_c, 9, 42, 0
1, 39000, Note_on_c, 9, 42, 43
1, 39000, Note_on_c, 9, 36, 127
1, 39119, Note_on_c, 9, 42, 0
1, 39119, Note_on_c, 9, 36, 0
1, 39120, Note_on_c, 9, 46, 127
1, 39120, Note_on_c, 9, 36, 127
1, 39359, Note_on_c, 9, 46, 0
1, 39359, Note_on_c, 9, 36, 0
1, 39360, Note_on_c, 9, 38, 127
1, 39360, Note_on_c, 9, 42, 127
1, 39480, Note_on_c, 9, 36, 127
1, 39599, Note_on_c, 9, 38, 0
1, 39599, Note_on_c, 9, 42, 0
1, 39600, Note_on_c, 9, 46, 127
1, 39719, Note_on_c, 9, 36, 0
1, 39720, Note_on_c, 9, 36, 127
1, 39839, Note_on_c, 9, 46, 0
1, 39839, Note_on_c, 9, 36, 0
1, 39855, Note_on_c, 9, 38, 127
1, 39855, Note_on_c, 9, 42, 127
1, 39899, Note_on_c, 9, 38, 0
1, 39899, Note_on_c, 9, 42, 0
1, 39975, Note_on_c, 9, 46, 127
1, 39975, Note_on_c, 9, 36, 127
1, 40019, Note_on_c, 9, 46, 0
1, 40019, Note_on_c, 9, 36, 0
1, 40200, Note_on_c, 9, 36, 127
1, 40319, Note_on_c, 9, 36, 0
1, 40320, Note_on_c, 9, 38, 127
1, 40320, Note_on_c, 9, 42, 127
1, 40439, Note_on_c, 9, 38, 0
1, 40439, Note_on_c, 9, 42, 0
1, 40440, Note_on_c, 9, 42, 43
1, 40440, Note_on_c, 9, 36, 127
1, 40559, Note_on_c, 9, 42, 0
1, 40559, Note_on_c, 9, 36, 0
1, 40560, Note_on_c, 9, 42, 127
1, 40560, Note_on_c, 9, 36, 127
1, 40799, Note_on_c, 9, 42, 0
1, 40799, Note_on_c, 9, 36, 0
1, 40800, Note_on_c, 9, 38, 127
1, 40800, Note_on_c, 9, 42, 127
1, 40919, Note_on_c, 9, 38, 0
1, 40919, Note_on_c, 9, 42, 0
1, 40920, Note_on_c, 9, 42, 43
1, 41039, Note_on_c, 9, 42, 0
1, 41040, Note_on_c, 9, 42, 127
1, 41040, Note_on_c, 9, 36, 127
1, 41279, Note_on_c, 9, 42, 0
1, 41279, Note_on_c, 9, 36, 0
1, 41280, Note_on_c, 9, 38, 127
1, 41280, Note_on_c, 9, 42, 127
1, 41399, Note_on_c, 9, 38, 0
1, 41399, Note_on_c, 9, 42, 0
1, 41400, Note_on_c, 9, 42, 43
1, 41519, Note_on_c, 9, 42, 0
1, 41520, Note_on_c, 9, 42, 127
1, 41520, Note_on_c, 9, 36, 127
1, 41759, Note_on_c, 9, 42, 0
1, 41759, Note_on_c, 9, 36, 0
1, 41760, Note_on_c, 9, 38, 127
1, 41760, Note_on_c, 9, 42, 127
1, 41879, Note_on_c, 9, 38, 0
1, 41879, Note_on_c, 9, 42, 0
1, 41880, Note_on_c, 9, 42, 43
1, 41999, Note_on_c, 9, 42, 0
1, 42000, Note_on_c, 9, 42, 127
1, 42000, Note_on_c, 9, 36, 127
1, 42239, Note_on_c, 9, 42, 0
1, 42239, Note_on_c, 9, 36, 0
1, 42240, Note_on_c, 9, 38, 127
1, 42240, Note_on_c, 9, 42, 127
1, 42359, Note_on_c, 9, 38, 0
1, 42359, Note_on_c, 9, 42, 0
1, 42360, Note_on_c, 9, 42, 43
1, 42479, Note_on_c, 9, 42, 0
1, 42480, Note_on_c, 9, 42, 127
1, 42480, Note_on_c, 9, 36, 127
1, 42719, Note_on_c, 9, 42, 0
1, 42719, Note_on_c, 9, 36, 0
1, 42720, Note_on_c, 9, 38, 127
1, 42720, Note_on_c, 9, 42, 127
1, 42839, Note_on_c, 9, 38, 0
1, 42839, Note_on_c, 9, 42, 0
1, 42840, Note_on_c, 9, 42, 43
1, 42959, Note_on_c, 9, 42, 0
1, 42960, Note_on_c, 9, 42, 127
1, 42960, Note_on_c, 9, 36, 127
1, 43199, Note_on_c, 9, 42, 0
1, 43199, Note_on_c, 9, 36, 0
1, 43200, Note_on_c, 9, 38, 127
1, 43200, Note_on_c, 9, 42, 127
1, 43319, Note_on_c, 9, 38, 0
1, 43319, Note_on_c, 9, 42, 0
1, 43320, Note_on_c, 9, 42, 43
1, 43439, Note_on_c, 9, 42, 0
1, 43440, Note_on_c, 9, 42, 127
1, 43440, Note_on_c, 9, 36, 127
1, 43679, Note_on_c, 9, 42, 0
1, 43679, Note_on_c, 9, 36, 0
1, 43680, Note_on_c, 9, 38, 127
1, 43680, Note_on_c, 9, 42, 127
1, 43799, Note_on_c, 9, 38, 0
1, 43799, Note_on_c, 9, 42, 0
1, 43800, Note_on_c, 9, 42, 43
1, 43919, Note_on_c, 9, 42, 0
1, 43920, Note_on_c, 9, 42, 127
1, 43920, Note_on_c, 9, 36, 127
1, 44159, Note_on_c, 9, 42, 0
1, 44159, Note_on_c, 9, 36, 0
1, 44160, Note_on_c, 9, 38, 127
1, 44160, Note_on_c, 9, 42, 127
1, 44279, Note_on_c, 9, 38, 0
1, 44279, Note_on_c, 9, 42, 0
1, 44280, Note_on_c, 9, 42, 43
1, 44399, Note_on_c, 9, 42, 0
1, 44400, Note_on_c, 9, 42, 127
1, 44400, Note_on_c, 9, 36, 127
1, 44639, Note_on_c, 9, 42, 0
1, 44639, Note_on_c, 9, 36, 0
1, 44640, Note_on_c, 9, 38, 127
1, 44640, Note_on_c, 9, 42, 127
1, 44759, Note_on_c, 9, 38, 0
1, 44759, Note_on_c, 9, 42, 0
1, 44760, Note_on_c, 9, 42, 43
1, 44879, Note_on_c, 9, 42, 0
1, 44880, Note_on_c, 9, 42, 127
1, 44880, Note_on_c, 9, 36, 127
1, 45119, Note_on_c, 9, 42, 0
1, 45119, Note_on_c, 9, 36, 0
1, 45120, Note_on_c, 9, 38, 127
1, 45120, Note_on_c, 9, 42, 127
1, 45239, Note_on_c, 9, 38, 0
1, 45239, Note_on_c, 9, 42, 0
1, 45240, Note_on_c, 9, 42, 43
1, 45359, Note_on_c, 9, 42, 0
1, 45360, Note_on_c, 9, 42, 127
1, 45360, Note_on_c, 9, 36, 127
1, 45599, Note_on_c, 9, 42, 0
1, 45599, Note_on_c, 9, 36, 0
1, 45600, Note_on_c, 9, 38, 127
1, 45600, Note_on_c, 9, 42, 127
1, 45719, Note_on_c, 9, 38, 0
1, 45719, Note_on_c, 9, 42, 0
1, 45720, Note_on_c, 9, 42, 43
1, 45839, Note_on_c, 9, 42, 0
1, 45840, Note_on_c, 9, 42, 127
1, 45840, Note_on_c, 9, 36, 127
1, 46079, Note_on_c, 9, 42, 0
1, 46079, Note_on_c, 9, 36, 0
1, 46080, Note_on_c, 9, 38, 127
1, 46080, Note_on_c, 9, 42, 127
1, 46199, Note_on_c, 9, 38, 0
1, 46199, Note_on_c, 9, 42, 0
1, 46200, Note_on_c, 9, 42, 43
1, 46319, Note_on_c, 9, 42, 0
1, 46320, Note_on_c, 9, 42, 127
1, 46320, Note_on_c, 9, 36, 127
1, 46559, Note_on_c, 9, 42, 0
1, 46559, Note_on_c, 9, 36, 0
1, 46560, Note_on_c, 9, 38, 127
1, 46560, Note_on_c, 9, 42, 127
1, 46679, Note_on_c, 9, 38, 0
1, 46679, Note_on_c, 9, 42, 0
1, 46680, Note_on_c, 9, 42, 43
1, 46799, Note_on_c, 9, 42, 0
1, 46800, Note_on_c, 9, 42, 127
1, 46800, Note_on_c, 9, 36, 127
1, 47039, Note_on_c, 9, 42, 0
1, 47039, Note_on_c, 9, 36, 0
1, 47040, Note_on_c, 9, 38, 127
1, 47040, Note_on_c, 9, 42, 127
1, 47159, Note_on_c, 9, 38, 0
1, 47159, Note_on_c, 9, 42, 0
1, 47160, Note_on_c, 9, 42, 43
1, 47279, Note_on_c, 9, 42, 0
1, 47280, Note_on_c, 9, 42, 127
1, 47280, Note_on_c, 9, 36, 127
1, 47519, Note_on_c, 9, 42, 0
1, 47519, Note_on_c, 9, 36, 0
1, 47520, Note_on_c, 9, 38, 127
1, 47520, Note_on_c, 9, 42, 127
1, 47639, Note_on_c, 9, 38, 0
1, 47639, Note_on_c, 9, 42, 0
1, 47640, Note_on_c, 9, 42, 43
1, 47759, Note_on_c, 9, 42, 0
1, 47760, Note_on_c, 9, 42, 127
1, 47760, Note_on_c, 9, 36, 127
1, 47999, Note_on_c, 9, 42, 0
1, 47999, Note_on_c, 9, 36, 0
1, 48000, Note_on_c, 9, 38, 127
1, 48000, Note_on_c, 9, 42, 127
1, 48119, Note_on_c, 9, 38, 0
1, 48119, Note_on_c, 9, 42, 0
1, 48120, Note_on_c, 9, 42, 43
1, 48239, Note_on_c, 9, 42, 0
1, 48255, Note_on_c, 9, 46, 127
1, 48255, Note_on_c, 9, 36, 127
1, 48479, Note_on_c, 9, 46, 0
1, 48479, Note_on_c, 9, 36, 0
1, 48480, Note_on_c, 9, 38, 127
1, 48480, Note_on_c, 9, 42, 127
1, 48599, Note_on_c, 9, 38, 0
1, 48599, Note_on_c, 9, 42, 0
1, 48600, Note_on_c, 9, 42, 43
1, 48600, Note_on_c, 9, 36, 127
1, 48719, Note_on_c, 9, 42, 0
1, 48719, Note_on_c, 9, 36, 0
1, 48720, Note_on_c, 9, 46, 127
1, 48720, Note_on_c, 9, 36, 127
1, 48959, Note_on_c, 9, 46, 0
1, 48959, Note_on_c, 9, 36, 0
1, 48960, Note_on_c, 9, 38, 127
1, 48960, Note_on_c, 9, 42, 127
1, 49080, Note_on_c, 9, 36, 127
1, 49199, Note_on_c, 9, 38, 0
1, 49199, Note_on_c, 9, 42, 0
1, 49200, Note_on_c, 9, 46, 127
1, 49319, Note_on_c, 9, 36, 0
1, 49320, Note_on_c, 9, 36, 127
1, 49439, Note_on_c, 9, 46, 0
1, 49439, Note_on_c, 9, 36, 0
1, 49440, Note_on_c, 9, 38, 127
1, 49440, Note_on_c, 9, 42, 127
1, 49559, Note_on_c, 9, 38, 0
1, 49559, Note_on_c, 9, 42, 0
1, 49575, Note_on_c, 9, 46, 127
1, 49575, Note_on_c, 9, 36, 127
1, 49619, Note_on_c, 9, 46, 0
1, 49619, Note_on_c, 9, 36, 0
1, 49800, Note_on_c, 9, 36, 127
1, 49919, Note_on_c, 9, 36, 0
1, 49920, Note_on_c, 9, 38, 127
1, 49920, Note_on_c, 9, 42, 127
1, 50039, Note_on_c, 9, 38, 0
1, 50039, Note_on_c, 9, 42, 0
1, 50040, Note_on_c, 9, 42, 43
1, 50040, Note_on_c, 9, 36, 127
1, 50159, Note_on_c, 9, 42, 0
1, 50159, Note_on_c, 9, 36, 0
1, 50175, Note_on_c, 9, 42, 127
1, 50175, Note_on_c, 9, 36, 127
1, 50399, Note_on_c, 9, 42, 0
1, 50399, Note_on_c, 9, 36, 0
1, 50400, Note_on_c, 9, 38, 127
1, 50400, Note_on_c, 9, 42, 127
1, 50519, Note_on_c, 9, 38, 0
1, 50519, Note_on_c, 9, 42, 0
1, 50550, Note_on_c, 9, 42, 43
1, 50639, Note_on_c, 9, 42, 0
1, 50670, Note_on_c, 9, 42, 127
1, 50670, Note_on_c, 9, 36, 127
1, 50759, Note_on_c, 9, 42, 0
1, 50759, Note_on_c, 9, 36, 0
1, 50910, Note_on_c, 9, 38, 127
1, 50910, Note_on_c, 9, 42, 127
1, 50999, Note_on_c, 9, 38, 0
1, 50999, Note_on_c, 9, 42, 0
1, 51030, Note_on_c, 9, 42, 43
1, 51119, Note_on_c, 9, 42, 0
1, 51135, Note_on_c, 9, 42, 127
1, 51135, Note_on_c, 9, 36, 127
1, 51359, Note_on_c, 9, 42, 0
1, 51359, Note_on_c, 9, 36, 0
1, 51360, Note_on_c, 9, 38, 127
1, 51360, Note_on_c, 9, 42, 127
1, 51479, Note_on_c, 9, 38, 0
1, 51479, Note_on_c, 9, 42, 0
1, 51480, Note_on_c, 9, 42, 43
1, 51599, Note_on_c, 9, 42, 0
1, 51615, Note_on_c, 9, 42, 127
1, 51615, Note_on_c, 9, 36, 127
1, 51839, Note_on_c, 9, 42, 0
1, 51839, Note_on_c, 9, 36, 0
1, 51840, Note_on_c, 9, 38, 127
1, 51840, Note_on_c, 9, 42, 127
1, 51959, Note_on_c, 9, 38, 0
1, 51959, Note_on_c, 9, 42, 0
1, 51960, Note_on_c, 9, 42, 43
1, 52079, Note_on_c, 9, 42, 0
1, 52080, Note_on_c, 9, 42, 127
1, 52080, Note_on_c, 9, 36, 127
1, 52319, Note_on_c, 9, 42, 0
1, 52319, Note_on_c, 9, 36, 0
1, 52320, Note_on_c, 9, 38, 127
1, 52320, Note_on_c, 9, 42, 127
1, 52439, Note_on_c, 9, 38, 0
1, 52439, Note_on_c, 9, 42, 0
1, 52470, Note_on_c, 9, 42, 43
1, 52559, Note_on_c, 9, 42, 0
1, 52590, Note_on_c, 9, 42, 127
1, 52590, Note_on_c, 9, 36, 127
1, 52679, Note_on_c, 9, 42, 0
1, 52679, Note_on_c, 9, 36, 0
1, 52845, Note_on_c, 9, 38, 127
1, 52845, Note_on_c, 9, 42, 127
1, 52859, Note_on_c, 9, 38, 0
1, 52859, Note_on_c, 9, 42, 0
1, 52950, Note_on_c, 9, 42, 43
1, 53039, Note_on_c, 9, 42, 0
1, 53070, Note_on_c, 9, 42, 127
1, 53070, Note_on_c, 9, 36, 127
1, 53159, Note_on_c, 9, 42, 0
1, 53159, Note_on_c, 9, 36, 0
1, 53295, Note_on_c, 9, 38, 127
1, 53295, Note_on_c, 9, 42, 127
1, 53339, Note_on_c, 9, 38, 0
1, 53339, Note_on_c, 9, 42, 0
1, 53400, Note_on_c, 9, 42, 43
1, 53519, Note_on_c, 9, 42, 0
1, 53520, Note_on_c, 9, 42, 127
1, 53520, Note_on_c, 9, 36, 127
1, 53759, Note_on_c, 9, 42, 0
1, 53759, Note_on_c, 9, 36, 0
1, 53760, Note_on_c, 9, 38, 127
1, 53760, Note_on_c, 9, 42, 127
1, 53879, Note_on_c, 9, 38, 0
1, 53879, Note_on_c, 9, 42, 0
1, 53880, Note_on_c, 9, 42, 43
1, 53999, Note_on_c, 9, 42, 0
1, 54000, Note_on_c, 9, 42, 127
1, 54000, Note_on_c, 9, 36, 127
1, 54239, Note_on_c, 9, 42, 0
1, 54239, Note_on_c, 9, 36, 0
1, 54240, Note_on_c, 9, 38, 127
1, 54240, Note_on_c, 9, 42, 127
1, 54359, Note_on_c, 9, 38, 0
1, 54359, Note_on_c, 9, 42, 0
1, 54390, Note_on_c, 9, 42, 43
1, 54479, Note_on_c, 9, 42, 0
1, 54510, Note_on_c, 9, 42, 127
1, 54510, Note_on_c, 9, 36, 127
1, 54599, Note_on_c, 9, 42, 0
1, 54599, Note_on_c, 9, 36, 0
1, 54750, Note_on_c, 9, 38, 127
1, 54750, Note_on_c, 9, 42, 127
1, 54839, Note_on_c, 9, 38, 0
1, 54839, Note_on_c, 9, 42, 0
1, 54870, Note_on_c, 9, 42, 43
1, 54959, Note_on_c, 9, 42, 0
1, 54975, Note_on_c, 9, 42, 127
1, 54975, Note_on_c, 9, 36, 127
1, 55199, Note_on_c, 9, 42, 0
1, 55199, Note_on_c, 9, 36, 0
1, 55200, Note_on_c, 9, 38, 127
1, 55200, Note_on_c, 9, 42, 127
1, 55319, Note_on_c, 9, 38, 0
1, 55319, Note_on_c, 9, 42, 0
1, 55320, Note_on_c, 9, 42, 43
1, 55439, Note_on_c, 9, 42, 0
1, 55455, Note_on_c, 9, 42, 127
1, 55455, Note_on_c, 9, 36, 127
1, 55679, Note_on_c, 9, 42, 0
1, 55679, Note_on_c, 9, 36, 0
1, 55680, Note_on_c, 9, 38, 127
1, 55680, Note_on_c, 9, 42, 127
1, 55799, Note_on_c, 9, 38, 0
1, 55799, Note_on_c, 9, 42, 0
1, 55800, Note_on_c, 9, 42, 43
1, 55919, Note_on_c, 9, 42, 0
1, 55920, Note_on_c, 9, 42, 127
1, 55920, Note_on_c, 9, 36, 127
1, 56159, Note_on_c, 9, 42, 0
1, 56159, Note_on_c, 9, 36, 0
1, 56160, Note_on_c, 9, 38, 127
1, 56160, Note_on_c, 9, 42, 127
1, 56279, Note_on_c, 9, 38, 0
1, 56279, Note_on_c, 9, 42, 0
1, 56280, Note_on_c, 9, 42, 43
1, 56399, Note_on_c, 9, 42, 0
1, 56400, Note_on_c, 9, 42, 127
1, 56400, Note_on_c, 9, 36, 127
1, 56639, Note_on_c, 9, 42, 0
1, 56639, Note_on_c, 9, 36, 0
1, 56640, Note_on_c, 9, 38, 127
1, 56640, Note_on_c, 9, 42, 127
1, 56759, Note_on_c, 9, 38, 0
1, 56759, Note_on_c, 9, 42, 0
1, 56760, Note_on_c, 9, 42, 43
1, 56879, Note_on_c, 9, 42, 0
1, 56880, Note_on_c, 9, 42, 127
1, 56880, Note_on_c, 9, 36, 127
1, 57119, Note_on_c, 9, 42, 0
1, 57119, Note_on_c, 9, 36, 0
1, 57120, Note_on_c, 9, 38, 127
1, 57120, Note_on_c, 9, 42, 127
1, 57239, Note_on_c, 9, 38, 0
1, 57239, Note_on_c, 9, 42, 0
1, 57255, Note_on_c, 9, 42, 43
1, 57299, Note_on_c, 9, 42, 0
1, 57375, Note_on_c, 9, 42, 127
1, 57375, Note_on_c, 9, 36, 127
1, 57599, Note_on_c, 9, 42, 0
1, 57599, Note_on_c, 9, 36, 0
1, 57600, Note_on_c, 9, 38, 127
1, 57600, Note_on_c, 9, 42, 127
1, 57719, Note_on_c, 9, 38, 0
1, 57719, Note_on_c, 9, 42, 0
1, 57720, Note_on_c, 9, 42, 43
1, 57839, Note_on_c, 9, 42, 0
1, 57840, Note_on_c, 9, 42, 127
1, 57840, Note_on_c, 9, 36, 127
1, 58079, Note_on_c, 9, 42, 0
1, 58079, Note_on_c, 9, 36, 0
1, 58080, Note_on_c, 9, 38, 127
1, 58080, Note_on_c, 9, 42, 127
1, 58199, Note_on_c, 9, 38, 0
1, 58199, Note_on_c, 9, 42, 0
1, 58200, Note_on_c, 9, 42, 43
1, 58319, Note_on_c, 9, 42, 0
1, 58320, Note_on_c, 9, 42, 127
1, 58320, Note_on_c, 9, 36, 127
1, 58559, Note_on_c, 9, 42, 0
1, 58559, Note_on_c, 9, 36, 0
1, 58560, Note_on_c, 9, 38, 127
1, 58560, Note_on_c, 9, 42, 127
1, 58679, Note_on_c, 9, 38, 0
1, 58679, Note_on_c, 9, 42, 0
1, 58680, Note_on_c, 9, 42, 43
1, 58799, Note_on_c, 9, 42, 0
1, 58800, Note_on_c, 9, 42, 127
1, 58800, Note_on_c, 9, 36, 127
1, 59039, Note_on_c, 9, 42, 0
1, 59039, Note_on_c, 9, 36, 0
1, 59040, Note_on_c, 9, 38, 127
1, 59040, Note_on_c, 9, 42, 127
1, 59159, Note_on_c, 9, 38, 0
1, 59159, Note_on_c, 9, 42, 0
1, 59160, Note_on_c, 9, 42, 43
1, 59279, Note_on_c, 9, 42, 0
1, 59280, Note_on_c, 9, 42, 127
1, 59280, Note_on_c, 9, 36, 127
1, 59519, Note_on_c, 9, 42, 0
1, 59519, Note_on_c, 9, 36, 0
1, 59520, Note_on_c, 9, 38, 127
1, 59520, Note_on_c, 9, 42, 127
1, 59639, Note_on_c, 9, 38, 0
1, 59639, Note_on_c, 9, 42, 0
1, 59640, Note_on_c, 9, 42, 43
1, 59759, Note_on_c, 9, 42, 0
1, 59760, Note_on_c, 9, 42, 127
1, 59760, Note_on_c, 9, 36, 127
1, 59999, Note_on_c, 9, 42, 0
1, 59999, Note_on_c, 9, 36, 0
1, 60000, Note_on_c, 9, 38, 127
1, 60000, Note_on_c, 9, 42, 127
1, 60119, Note_on_c, 9, 38, 0
1, 60119, Note_on_c, 9, 42, 0
1, 60120, Note_on_c, 9, 42, 43
1, 60239, Note_on_c, 9, 42, 0
1, 60240, Note_on_c, 9, 42, 127
1, 60240, Note_on_c, 9, 36, 127
1, 60479, Note_on_c, 9, 42, 0
1, 60479, Note_on_c, 9, 36, 0
1, 60480, Note_on_c, 9, 38, 127
1, 60480, Note_on_c, 9, 42, 127
1, 60599, Note_on_c, 9, 38, 0
1, 60599, Note_on_c, 9, 42, 0
1, 60600, Note_on_c, 9, 42, 43
1, 60719, Note_on_c, 9, 42, 0
1, 60720, Note_on_c, 9, 42, 127
1, 60720, Note_on_c, 9, 36, 127
1, 60959, Note_on_c, 9, 42, 0
1, 60959, Note_on_c, 9, 36, 0
1, 60960, Note_on_c, 9, 38, 127
1, 60960, Note_on_c, 9, 42, 127
1, 61079, Note_on_c, 9, 38, 0
1, 61079, Note_on_c, 9, 42, 0
1, 61080, Note_on_c, 9, 42, 43
1, 61199, Note_on_c, 9, 42, 0
1, 61200, Note_on_c, 9, 42, 127
1, 61200, Note_on_c, 9, 36, 127
1, 61439, Note_on_c, 9, 42, 0
1, 61439, Note_on_c, 9, 36, 0
1, 61440, Note_on_c, 9, 38, 127
1, 61440, Note_on_c, 9, 42, 127
1, 61559, Note_on_c, 9, 38, 0
1, 61559, Note_on_c, 9, 42, 0
1, 61560, Note_on_c, 9, 42, 43
1, 61679, Note_on_c, 9, 42, 0
1, 61680, Note_on_c, 9, 42, 127
1, 61680, Note_on_c, 9, 36, 127
1, 61919, Note_on_c, 9, 42, 0
1, 61919, Note_on_c, 9, 36, 0
1, 61920, Note_on_c, 9, 38, 127
1, 61920, Note_on_c, 9, 42, 127
1, 62039, Note_on_c, 9, 38, 0
1, 62039, Note_on_c, 9, 42, 0
1, 62040, Note_on_c, 9, 42, 43
1, 62159, Note_on_c, 9, 42, 0
1, 62160, Note_on_c, 9, 42, 127
1, 62160, Note_on_c, 9, 36, 127
1, 62399, Note_on_c, 9, 42, 0
1, 62399, Note_on_c, 9, 36, 0
1, 62400, Note_on_c, 9, 38, 127
1, 62400, Note_on_c, 9, 42, 127
1, 62519, Note_on_c, 9, 38, 0
1, 62519, Note_on_c, 9, 42, 0
1, 62520, Note_on_c, 9, 42, 43
1, 62639, Note_on_c, 9, 42, 0
1, 62640, Note_on_c, 9, 42, 127
1, 62640, Note_on_c, 9, 36, 127
1, 62879, Note_on_c, 9, 42, 0
1, 62879, Note_on_c, 9, 36, 0
1, 62880, Note_on_c, 9, 38, 127
1, 62880, Note_on_c, 9, 42, 127
1, 62999, Note_on_c, 9, 38, 0
1, 62999, Note_on_c, 9, 42, 0
1, 63000, Note_on_c, 9, 42, 43
1, 63119, Note_on_c, 9, 42, 0
1, 63120, Note_on_c, 9, 42, 127
1, 63120, Note_on_c, 9, 36, 127
1, 63359, Note_on_c, 9, 42, 0
1, 63359, Note_on_c, 9, 36, 0
1, 63360, Note_on_c, 9, 38, 127
1, 63360, Note_on_c, 9, 42, 127
1, 63479, Note_on_c, 9, 38, 0
1, 63479, Note_on_c, 9, 42, 0
1, 63480, Note_on_c, 9, 42, 43
1, 63599, Note_on_c, 9, 42, 0
1, 63600, Note_on_c, 9, 42, 127
1, 63600, Note_on_c, 9, 36, 127
1, 63839, Note_on_c, 9, 42, 0
1, 63839, Note_on_c, 9, 36, 0
1, 63840, Note_on_c, 9, 38, 127
1, 63840, Note_on_c, 9, 42, 127
1, 63959, Note_on_c, 9, 38, 0
1, 63959, Note_on_c, 9, 42, 0
1, 63960, Note_on_c, 9, 42, 43
1, 64079, Note_on_c, 9, 42, 0
1, 64080, Note_on_c, 9, 42, 127
1, 64080, Note_on_c, 9, 36, 127
1, 64319, Note_on_c, 9, 42, 0
1, 64319, Note_on_c, 9, 36, 0
1, 64320, Note_on_c, 9, 38, 127
1, 64320, Note_on_c, 9, 42, 127
1, 64439, Note_on_c, 9, 38, 0
1, 64439, Note_on_c, 9, 42, 0
1, 64440, Note_on_c, 9, 42, 43
1, 64559, Note_on_c, 9, 42, 0
1, 64560, Note_on_c, 9, 42, 127
1, 64560, Note_on_c, 9, 36, 127
1, 64799, Note_on_c, 9, 42, 0
1, 64799, Note_on_c, 9, 36, 0
1, 64800, Note_on_c, 9, 38, 127
1, 64800, Note_on_c, 9, 42, 127
1, 64919, Note_on_c, 9, 38, 0
1, 64919, Note_on_c, 9, 42, 0
1, 64920, Note_on_c, 9, 42, 43
1, 65039, Note_on_c, 9, 42, 0
1, 65040, Note_on_c, 9, 42, 127
1, 65040, Note_on_c, 9, 36, 127
1, 65279, Note_on_c, 9, 42, 0
1, 65279, Note_on_c, 9, 36, 0
1, 65280, Note_on_c, 9, 38, 127
1, 65280, Note_on_c, 9, 42, 127
1, 65399, Note_on_c, 9, 38, 0
1, 65399, Note_on_c, 9, 42, 0
1, 65400, Note_on_c, 9, 42, 43
1, 65519, Note_on_c, 9, 42, 0
1, 65535, Note_on_c, 9, 46, 127
1, 65535, Note_on_c, 9, 36, 127
1, 65759, Note_on_c, 9, 46, 0
1, 65759, Note_on_c, 9, 36, 0
1, 65760, Note_on_c, 9, 38, 127
1, 65760, Note_on_c, 9, 42, 127
1, 65879, Note_on_c, 9, 38, 0
1, 65879, Note_on_c, 9, 42, 0
1, 65880, Note_on_c, 9, 42, 43
1, 65880, Note_on_c, 9, 36, 127
1, 65999, Note_on_c, 9, 42, 0
1, 65999, Note_on_c, 9, 36, 0
1, 66000, Note_on_c, 9, 46, 127
1, 66000, Note_on_c, 9, 36, 127
1, 66239, Note_on_c, 9, 46, 0
1, 66239, Note_on_c, 9, 36, 0
1, 66240, Note_on_c, 9, 38, 127
1, 66240, Note_on_c, 9, 42, 127
1, 66360, Note_on_c, 9, 36, 127
1, 66479, Note_on_c, 9, 38, 0
1, 66479, Note_on_c, 9, 42, 0
1, 66480, Note_on_c, 9, 46, 127
1, 66599, Note_on_c, 9, 36, 0
1, 66600, Note_on_c, 9, 36, 127
1, 66719, Note_on_c, 9, 46, 0
1, 66719, Note_on_c, 9, 36, 0
1, 66720, Note_on_c, 9, 38, 127
1, 66720, Note_on_c, 9, 42, 127
1, 66839, Note_on_c, 9, 38, 0
1, 66839, Note_on_c, 9, 42, 0
1, 66855, Note_on_c, 9, 46, 127
1, 66855, Note_on_c, 9, 36, 127
1, 66899, Note_on_c, 9, 46, 0
1, 66899, Note_on_c, 9, 36, 0
1, 67080, Note_on_c, 9, 36, 127
1, 67199, Note_on_c, 9, 36, 0
1, 67200, Note_on_c, 9, 38, 127
1, 67200, Note_on_c, 9, 42, 127
1, 67319, Note_on_c, 9, 38, 0
1, 67319, Note_on_c, 9, 42, 0
1, 67320, Note_on_c, 9, 42, 43
1, 67320, Note_on_c, 9, 36, 127
1, 67439, Note_on_c, 9, 42, 0
1, 67439, Note_on_c, 9, 36, 0
1, 67440, Note_on_c, 9, 42, 127
1, 67440, Note_on_c, 9, 36, 127
1, 67679, Note_on_c, 9, 42, 0
1, 67679, Note_on_c, 9, 36, 0
1, 67680, Note_on_c, 9, 38, 127
1, 67680, Note_on_c, 9, 42, 127
1, 67799, Note_on_c, 9, 38, 0
1, 67799, Note_on_c, 9, 42, 0
1, 67800, Note_on_c, 9, 42, 43
1, 67919, Note_on_c, 9, 42, 0
1, 67920, Note_on_c, 9, 42, 127
1, 67920, Note_on_c, 9, 36, 127
1, 68159, Note_on_c, 9, 42, 0
1, 68159, Note_on_c, 9, 36, 0
1, 68160, Note_on_c, 9, 38, 127
1, 68160, Note_on_c, 9, 42, 127
1, 68279, Note_on_c, 9, 38, 0
1, 68279, Note_on_c, 9, 42, 0
1, 68280, Note_on_c, 9, 42, 43
1, 68399, Note_on_c, 9, 42, 0
1, 68400, Note_on_c, 9, 42, 127
1, 68400, Note_on_c, 9, 36, 127
1, 68639, Note_on_c, 9, 42, 0
1, 68639, Note_on_c, 9, 36, 0
1, 68640, Note_on_c, 9, 38, 127
1, 68640, Note_on_c, 9, 42, 127
1, 68759, Note_on_c, 9, 38, 0
1, 68759, Note_on_c, 9, 42, 0
1, 68760, Note_on_c, 9, 42, 43
1, 68879, Note_on_c, 9, 42, 0
1, 68880, Note_on_c, 9, 42, 127
1, 68880, Note_on_c, 9, 36, 127
1, 69119, Note_on_c, 9, 42, 0
1, 69119, Note_on_c, 9, 36, 0
1, 69120, Note_on_c, 9, 38, 127
1, 69120, Note_on_c, 9, 42, 127
1, 69239, Note_on_c, 9, 38, 0
1, 69239, Note_on_c, 9, 42, 0
1, 69240, Note_on_c, 9, 42, 43
1, 69359, Note_on_c, 9, 42, 0
1, 69360, Note_on_c, 9, 42, 127
1, 69360, Note_on_c, 9, 36, 127
1, 69599, Note_on_c, 9, 42, 0
1, 69599, Note_on_c, 9, 36, 0
1, 69600, Note_on_c, 9, 38, 127
1, 69600, Note_on_c, 9, 42, 127
1, 69719, Note_on_c, 9, 38, 0
1, 69719, Note_on_c, 9, 42, 0
1, 69720, Note_on_c, 9, 42, 43
1, 69839, Note_on_c, 9, 42, 0
1, 69840, Note_on_c, 9, 42, 127
1, 69840, Note_on_c, 9, 36, 127
1, 70079, Note_on_c, 9, 42, 0
1, 70079, Note_on_c, 9, 36, 0
1, 70080, Note_on_c, 9, 38, 127
1, 70080, Note_on_c, 9, 42, 127
1, 70199, Note_on_c, 9, 38, 0
1, 70199, Note_on_c, 9, 42, 0
1, 70200, Note_on_c, 9, 42, 43
1, 70319, Note_on_c, 9, 42, 0
1, 70320, Note_on_c, 9, 42, 127
1, 70320, Note_on_c, 9, 36, 127
1, 70559, Note_on_c, 9, 42, 0
1, 70559, Note_on_c, 9, 36, 0
1, 70560, Note_on_c, 9, 38, 127
1, 70560, Note_on_c, 9, 42, 127
1, 70679, Note_on_c, 9, 38, 0
1, 70679, Note_on_c, 9, 42, 0
1, 70680, Note_on_c, 9, 42, 43
1, 70799, Note_on_c, 9, 42, 0
1, 70800, Note_on_c, 9, 42, 127
1, 70800, Note_on_c, 9, 36, 127
1, 71039, Note_on_c, 9, 42, 0
1, 71039, Note_on_c, 9, 36, 0
1, 71040, Note_on_c, 9, 38, 127
1, 71040, Note_on_c, 9, 42, 127
1, 71159, Note_on_c, 9, 38, 0
1, 71159, Note_on_c, 9, 42, 0
1, 71160, Note_on_c, 9, 42, 43
1, 71279, Note_on_c, 9, 42, 0
1, 71280, Note_on_c, 9, 42, 127
1, 71280, Note_on_c, 9, 36, 127
1, 71519, Note_on_c, 9, 42, 0
1, 71519, Note_on_c, 9, 36, 0
1, 71520, Note_on_c, 9, 38, 127
1, 71520, Note_on_c, 9, 42, 127
1, 71639, Note_on_c, 9, 38, 0
1, 71639, Note_on_c, 9, 42, 0
1, 71640, Note_on_c, 9, 42, 43
1, 71759, Note_on_c, 9, 42, 0
1, 71760, Note_on_c, 9, 42, 127
1, 71760, Note_on_c, 9, 36, 127
1, 71999, Note_on_c, 9, 42, 0
1, 71999, Note_on_c, 9, 36, 0
1, 72000, Note_on_c, 9, 38, 127
1, 72000, Note_on_c, 9, 42, 127
1, 72119, Note_on_c, 9, 38, 0
1, 72119, Note_on_c, 9, 42, 0
1, 72120, Note_on_c, 9, 42, 43
1, 72239, Note_on_c, 9, 42, 0
1, 72240, Note_on_c, 9, 42, 127
1, 72240, Note_on_c, 9, 36, 127
1, 72479, Note_on_c, 9, 42, 0
1, 72479, Note_on_c, 9, 36, 0
1, 72480, Note_on_c, 9, 38, 127
1, 72480, Note_on_c, 9, 42, 127
1, 72599, Note_on_c, 9, 38, 0
1, 72599, Note_on_c, 9, 42, 0
1, 72600, Note_on_c, 9, 42, 43
1, 72719, Note_on_c, 9, 42, 0
1, 72720, Note_on_c, 9, 42, 127
1, 72720, Note_on_c, 9, 36, 127
1, 72959, Note_on_c, 9, 42, 0
1, 72959, Note_on_c, 9, 36, 0
1, 72960, Note_on_c, 9, 38, 127
1, 72960, Note_on_c, 9, 42, 127
1, 73079, Note_on_c, 9, 38, 0
1, 73079, Note_on_c, 9, 42, 0
1, 73080, Note_on_c, 9, 42, 43
1, 73199, Note_on_c, 9, 42, 0
1, 73200, Note_on_c, 9, 42, 127
1, 73200, Note_on_c, 9, 36, 127
1, 73439, Note_on_c, 9, 42, 0
1, 73439, Note_on_c, 9, 36, 0
1, 73440, Note_on_c, 9, 38, 127
1, 73440, Note_on_c, 9, 42, 127
1, 73559, Note_on_c, 9, 38, 0
1, 73559, Note_on_c, 9, 42, 0
1, 73560, Note_on_c, 9, 42, 43
1, 73679, Note_on_c, 9, 42, 0
1, 73680, Note_on_c, 9, 42, 127
1, 73680, Note_on_c, 9, 36, 127
1, 73919, Note_on_c, 9, 42, 0
1, 73919, Note_on_c, 9, 36, 0
1, 73920, Note_on_c, 9, 38, 127
1, 73920, Note_on_c, 9, 42, 127
1, 74039, Note_on_c, 9, 38, 0
1, 74039, Note_on_c, 9, 42, 0
1, 74040, Note_on_c, 9, 42, 43
1, 74159, Note_on_c, 9, 42, 0
1, 74160, Note_on_c, 9, 42, 127
1, 74160, Note_on_c, 9, 36, 127
1, 74399, Note_on_c, 9, 42, 0
1, 74399, Note_on_c, 9, 36, 0
1, 74400, Note_on_c, 9, 38, 127
1, 74400, Note_on_c, 9, 42, 127
1, 74519, Note_on_c, 9, 38, 0
1, 74519, Note_on_c, 9, 42, 0
1, 74520, Note_on_c, 9, 42, 43
1, 74639, Note_on_c, 9, 42, 0
1, 74640, Note_on_c, 9, 42, 127
1, 74640, Note_on_c, 9, 36, 127
1, 74879, Note_on_c, 9, 42, 0
1, 74879, Note_on_c, 9, 36, 0
1, 74880, Note_on_c, 9, 38, 127
1, 74880, Note_on_c, 9, 42, 127
1, 74999, Note_on_c, 9, 38, 0
1, 74999, Note_on_c, 9, 42, 0
1, 75000, Note_on_c, 9, 42, 43
1, 75119, Note_on_c, 9, 42, 0
1, 75135, Note_on_c, 9, 46, 127
1, 75135, Note_on_c, 9, 36, 127
1, 75359, Note_on_c, 9, 46, 0
1, 75359, Note_on_c, 9, 36, 0
1, 75375, Note_on_c, 9, 38, 127
1, 75375, Note_on_c, 9, 42, 127
1, 75419, Note_on_c, 9, 38, 0
1, 75419, Note_on_c, 9, 42, 0
1, 75480, Note_on_c, 9, 42, 43
1, 75495, Note_on_c, 9, 36, 127
1, 75539, Note_on_c, 9, 36, 0
1, 75599, Note_on_c, 9, 42, 0
1, 75600, Note_on_c, 9, 46, 127
1, 75600, Note_on_c, 9, 36, 127
1, 75839, Note_on_c, 9, 46, 0
1, 75839, Note_on_c, 9, 36, 0
1, 75840, Note_on_c, 9, 38, 127
1, 75840, Note_on_c, 9, 42, 127
1, 75960, Note_on_c, 9, 36, 127
1, 76079, Note_on_c, 9, 38, 0
1, 76079, Note_on_c, 9, 42, 0
1, 76080, Note_on_c, 9, 46, 127
1, 76199, Note_on_c, 9, 36, 0
1, 76200, Note_on_c, 9, 36, 127
1, 76319, Note_on_c, 9, 46, 0
1, 76319, Note_on_c, 9, 36, 0
1, 76320, Note_on_c, 9, 38, 127
1, 76320, Note_on_c, 9, 42, 127
1, 76439, Note_on_c, 9, 38, 0
1, 76439, Note_on_c, 9, 42, 0
1, 76455, Note_on_c, 9, 46, 127
1, 76455, Note_on_c, 9, 36, 127
1, 76499, Note_on_c, 9, 46, 0
1, 76499, Note_on_c, 9, 36, 0
1, 76680, Note_on_c, 9, 36, 127
1, 76799, Note_on_c, 9, 36, 0
1, 76800, Note_on_c, 9, 38, 127
1, 76800, Note_on_c, 9, 42, 127
1, 76919, Note_on_c, 9, 38, 0
1, 76919, Note_on_c, 9, 42, 0
1, 76920, Note_on_c, 9, 42, 43
1, 76920, Note_on_c, 9, 36, 127
1, 77039, Note_on_c, 9, 42, 0
1, 77039, Note_on_c, 9, 36, 0
1, 77040, Note_on_c, 9, 42, 127
1, 77040, Note_on_c, 9, 36, 127
1, 77279, Note_on_c, 9, 42, 0
1, 77279, Note_on_c, 9, 36, 0
1, 77280, Note_on_c, 9, 38, 127
1, 77280, Note_on_c, 9, 42, 127
1, 77399, Note_on_c, 9, 38, 0
1, 77399, Note_on_c, 9, 42, 0
1, 77400, Note_on_c, 9, 42, 43
1, 77519, Note_on_c, 9, 42, 0
1, 77520, Note_on_c, 9, 42, 127
1, 77520, Note_on_c, 9, 36, 127
1, 77759, Note_on_c, 9, 42, 0
1, 77759, Note_on_c, 9, 36, 0
1, 77760, Note_on_c, 9, 38, 127
1, 77760, Note_on_c, 9, 42, 127
1, 77879, Note_on_c, 9, 38, 0
1, 77879, Note_on_c, 9, 42, 0
1, 77880, Note_on_c, 9, 42, 43
1, 77999, Note_on_c, 9, 42, 0
1, 78000, Note_on_c, 9, 42, 127
1, 78000, Note_on_c, 9, 36, 127
1, 78239, Note_on_c, 9, 42, 0
1, 78239, Note_on_c, 9, 36, 0
1, 78240, Note_on_c, 9, 38, 127
1, 78240, Note_on_c, 9, 42, 127
1, 78359, Note_on_c, 9, 38, 0
1, 78359, Note_on_c, 9, 42, 0
1, 78360, Note_on_c, 9, 42, 43
1, 78479, Note_on_c, 9, 42, 0
1, 78480, Note_on_c, 9, 42, 127
1, 78480, Note_on_c, 9, 36, 127
1, 78719, Note_on_c, 9, 42, 0
1, 78719, Note_on_c, 9, 36, 0
1, 78720, Note_on_c, 9, 38, 127
1, 78720, Note_on_c, 9, 42, 127
1, 78839, Note_on_c, 9, 38, 0
1, 78839, Note_on_c, 9, 42, 0
1, 78840, Note_on_c, 9, 42, 43
1, 78959, Note_on_c, 9, 42, 0
1, 78960, Note_on_c, 9, 42, 127
1, 78960, Note_on_c, 9, 36, 127
1, 79199, Note_on_c, 9, 42, 0
1, 79199, Note_on_c, 9, 36, 0
1, 79200, Note_on_c, 9, 38, 127
1, 79200, Note_on_c, 9, 42, 127
1, 79319, Note_on_c, 9, 38, 0
1, 79319, Note_on_c, 9, 42, 0
1, 79320, Note_on_c, 9, 42, 43
1, 79439, Note_on_c, 9, 42, 0
1, 79440, Note_on_c, 9, 42, 127
1, 79440, Note_on_c, 9, 36, 127
1, 79679, Note_on_c, 9, 42, 0
1, 79679, Note_on_c, 9, 36, 0
1, 79680, Note_on_c, 9, 38, 127
1, 79680, Note_on_c, 9, 42, 127
1, 79799, Note_on_c, 9, 38, 0
1, 79799, Note_on_c, 9, 42, 0
1, 79800, Note_on_c, 9, 42, 43
1, 79919, Note_on_c, 9, 42, 0
1, 79920, Note_on_c, 9, 42, 127
1, 79920, Note_on_c, 9, 36, 127
1, 80159, Note_on_c, 9, 42, 0
1, 80159, Note_on_c, 9, 36, 0
1, 80160, Note_on_c, 9, 38, 127
1, 80160, Note_on_c, 9, 42, 127
1, 80279, Note_on_c, 9, 38, 0
1, 80279, Note_on_c, 9, 42, 0
1, 80280, Note_on_c, 9, 42, 43
1, 80399, Note_on_c, 9, 42, 0
1, 80400, Note_on_c, 9, 42, 127
1, 80400, Note_on_c, 9, 36, 127
1, 80639, Note_on_c, 9, 42, 0
1, 80639, Note_on_c, 9, 36, 0
1, 80640, Note_on_c, 9, 38, 127
1, 80640, Note_on_c, 9, 42, 127
1, 80759, Note_on_c, 9, 38, 0
1, 80759, Note_on_c, 9, 42, 0
1, 80760, Note_on_c, 9, 42, 43
1, 80879, Note_on_c, 9, 42, 0
1, 80880, Note_on_c, 9, 42, 127
1, 80880, Note_on_c, 9, 36, 127
1, 81119, Note_on_c, 9, 42, 0
1, 81119, Note_on_c, 9, 36, 0
1, 81120, Note_on_c, 9, 38, 127
1, 81120, Note_on_c, 9, 42, 127
1, 81239, Note_on_c, 9, 38, 0
1, 81239, Note_on_c, 9, 42, 0
1, 81240, Note_on_c, 9, 42, 43
1, 81359, Note_on_c, 9, 42, 0
1, 81360, Note_on_c, 9, 42, 127
1, 81360, Note_on_c, 9, 36, 127
1, 81599, Note_on_c, 9, 42, 0
1, 81599, Note_on_c, 9, 36, 0
1, 81600, Note_on_c, 9, 38, 127
1, 81600, Note_on_c, 9, 42, 127
1, 81719, Note_on_c, 9, 38, 0
1, 81719, Note_on_c, 9, 42, 0
1, 81720, Note_on_c, 9, 42, 43
1, 81839, Note_on_c, 9, 42, 0
1, 81840, Note_on_c, 9, 42, 127
1, 81840, Note_on_c, 9, 36, 127
1, 82079, Note_on_c, 9, 42, 0
1, 82079, Note_on_c, 9, 36, 0
1, 82080, Note_on_c, 9, 38, 127
1, 82080, Note_on_c, 9, 42, 127
1, 82199, Note_on_c, 9, 38, 0
1, 82199, Note_on_c, 9, 42, 0
1, 82200, Note_on_c, 9, 42, 43
1, 82319, Note_on_c, 9, 42, 0
1, 82320, Note_on_c, 9, 42, 127
1, 82320, Note_on_c, 9, 36, 127
1, 82559, Note_on_c, 9, 42, 0
1, 82559, Note_on_c, 9, 36, 0
1, 82560, Note_on_c, 9, 38, 127
1, 82560, Note_on_c, 9, 42, 127
1, 82679, Note_on_c, 9, 38, 0
1, 82679, Note_on_c, 9, 42, 0
1, 82680, Note_on_c, 9, 42, 43
1, 82799, Note_on_c, 9, 42, 0
1, 82800, Note_on_c, 9, 42, 127
1, 82800, Note_on_c, 9, 36, 127
1, 83039, Note_on_c, 9, 42, 0
1, 83039, Note_on_c, 9, 36, 0
1, 83040, Note_on_c, 9, 38, 127
1, 83040, Note_on_c, 9, 42, 127
1, 83159, Note_on_c, 9, 38, 0
1, 83159, Note_on_c, 9, 42, 0
1, 83160, Note_on_c, 9, 42, 43
1, 83279, Note_on_c, 9, 42, 0
1, 83280, Note_on_c, 9, 42, 127
1, 83280, Note_on_c, 9, 36, 127
1, 83519, Note_on_c, 9, 42, 0
1, 83519, Note_on_c, 9, 36, 0
1, 83520, Note_on_c, 9, 38, 127
1, 83520, Note_on_c, 9, 42, 127
1, 83639, Note_on_c, 9, 38, 0
1, 83639, Note_on_c, 9, 42, 0
1, 83640, Note_on_c, 9, 42, 43
1, 83759, Note_on_c, 9, 42, 0
1, 83775, Note_on_c, 9, 42, 127
1, 83775, Note_on_c, 9, 36, 127
1, 83999, Note_on_c, 9, 42, 0
1, 83999, Note_on_c, 9, 36, 0
1, 84015, Note_on_c, 9, 38, 127
1, 84015, Note_on_c, 9, 42, 127
1, 84059, Note_on_c, 9, 38, 0
1, 84059, Note_on_c, 9, 42, 0
1, 84135, Note_on_c, 9, 42, 43
1, 84179, Note_on_c, 9, 42, 0
1, 84255, Note_on_c, 9, 42, 127
1, 84255, Note_on_c, 9, 36, 127
1, 84479, Note_on_c, 9, 42, 0
1, 84479, Note_on_c, 9, 36, 0
1, 84480, Note_on_c, 9, 38, 127
1, 84480, Note_on_c, 9, 42, 127
1, 84599, Note_on_c, 9, 38, 0
1, 84599, Note_on_c, 9, 42, 0
1, 84600, Note_on_c, 9, 42, 43
1, 84719, Note_on_c, 9, 42, 0
1, 84735, Note_on_c, 9, 46, 127
1, 84735, Note_on_c, 9, 36, 127
1, 84959, Note_on_c, 9, 46, 0
1, 84959, Note_on_c, 9, 36, 0
1, 84960, Note_on_c, 9, 38, 127
1, 84960, Note_on_c, 9, 42, 127
1, 85079, Note_on_c, 9, 38, 0
1, 85079, Note_on_c, 9, 42, 0
1, 85080, Note_on_c, 9, 42, 43
1, 85080, Note_on_c, 9, 36, 127
1, 85199, Note_on_c, 9, 42, 0
1, 85199, Note_on_c, 9, 36, 0
1, 85200, Note_on_c, 9, 46, 127
1, 85200, Note_on_c, 9, 36, 127
1, 85439, Note_on_c, 9, 46, 0
1, 85439, Note_on_c, 9, 36, 0
1, 85440, Note_on_c, 9, 38, 127
1, 85440, Note_on_c, 9, 42, 127
1, 85560, Note_on_c, 9, 36, 127
1, 85679, Note_on_c, 9, 38, 0
1, 85679, Note_on_c, 9, 42, 0
1, 85680, Note_on_c, 9, 46, 127
1, 85799, Note_on_c, 9, 36, 0
1, 85815, Note_on_c, 9, 36, 127
1, 85859, Note_on_c, 9, 36, 0
1, 85919, Note_on_c, 9, 46, 0
1, 85920, Note_on_c, 9, 38, 127
1, 85920, Note_on_c, 9, 42, 127
1, 86039, Note_on_c, 9, 38, 0
1, 86039, Note_on_c, 9, 42, 0
1, 86055, Note_on_c, 9, 46, 127
1, 86055, Note_on_c, 9, 36, 127
1, 86099, Note_on_c, 9, 46, 0
1, 86099, Note_on_c, 9, 36, 0
1, 86280, Note_on_c, 9, 36, 127
1, 86399, Note_on_c, 9, 36, 0
1, 86400, Note_on_c, 9, 38, 127
1, 86400, Note_on_c, 9, 42, 127
1, 86519, Note_on_c, 9, 38, 0
1, 86519, Note_on_c, 9, 42, 0
1, 86520, Note_on_c, 9, 42, 43
1, 86520, Note_on_c, 9, 36, 127
1, 86639, Note_on_c, 9, 42, 0
1, 86639, Note_on_c, 9, 36, 0
1, 86640, Note_on_c, 9, 42, 127
1, 86640, Note_on_c, 9, 36, 127
1, 86879, Note_on_c, 9, 42, 0
1, 86879, Note_on_c, 9, 36, 0
1, 86880, Note_on_c, 9, 38, 127
1, 86880, Note_on_c, 9, 42, 127
1, 86999, Note_on_c, 9, 38, 0
1, 86999, Note_on_c, 9, 42, 0
1, 87000, Note_on_c, 9, 42, 43
1, 87119, Note_on_c, 9, 42, 0
1, 87120, Note_on_c, 9, 42, 127
1, 87120, Note_on_c, 9, 36, 127
1, 87359, Note_on_c, 9, 42, 0
1, 87359, Note_on_c, 9, 36, 0
1, 87360, Note_on_c, 9, 38, 127
1, 87360, Note_on_c, 9, 42, 127
1, 87479, Note_on_c, 9, 38, 0
1, 87479, Note_on_c, 9, 42, 0
1, 87480, Note_on_c, 9, 42, 43
1, 87599, Note_on_c, 9, 42, 0
1, 87600, Note_on_c, 9, 42, 127
1, 87600, Note_on_c, 9, 36, 127
1, 87839, Note_on_c, 9, 42, 0
1, 87839, Note_on_c, 9, 36, 0
1, 87840, Note_on_c, 9, 38, 127
1, 87840, Note_on_c, 9, 42, 127
1, 87959, Note_on_c, 9, 38, 0
1, 87959, Note_on_c, 9, 42, 0
1, 87960, Note_on_c, 9, 42, 43
1, 88079, Note_on_c, 9, 42, 0
1, 88080, Note_on_c, 9, 42, 127
1, 88080, Note_on_c, 9, 36, 127
1, 88319, Note_on_c, 9, 42, 0
1, 88319, Note_on_c, 9, 36, 0
1, 88320, Note_on_c, 9, 38, 127
1, 88320, Note_on_c, 9, 42, 127
1, 88439, Note_on_c, 9, 38, 0
1, 88439, Note_on_c, 9, 42, 0
1, 88440, Note_on_c, 9, 42, 43
1, 88559, Note_on_c, 9, 42, 0
1, 88560, Note_on_c, 9, 42, 127
1, 88560, Note_on_c, 9, 36, 127
1, 88799, Note_on_c, 9, 42, 0
1, 88799, Note_on_c, 9, 36, 0
1, 88800, Note_on_c, 9, 38, 127
1, 88800, Note_on_c, 9, 42, 127
1, 88919, Note_on_c, 9, 38, 0
1, 88919, Note_on_c, 9, 42, 0
1, 88920, Note_on_c, 9, 42, 43
1, 89039, Note_on_c, 9, 42, 0
1, 89040, Note_on_c, 9, 42, 127
1, 89040, Note_on_c, 9, 36, 127
1, 89279, Note_on_c, 9, 42, 0
1, 89279, Note_on_c, 9, 36, 0
1, 89280, Note_on_c, 9, 38, 127
1, 89280, Note_on_c, 9, 42, 127
1, 89399, Note_on_c, 9, 38, 0
1, 89399, Note_on_c, 9, 42, 0
1, 89400, Note_on_c, 9, 42, 43
1, 89519, Note_on_c, 9, 42, 0
1, 89520, Note_on_c, 9, 42, 127
1, 89520, Note_on_c, 9, 36, 127
1, 89759, Note_on_c, 9, 42, 0
1, 89759, Note_on_c, 9, 36, 0
1, 89760, Note_on_c, 9, 38, 127
1, 89760, Note_on_c, 9, 42, 127
1, 89879, Note_on_c, 9, 38, 0
1, 89879, Note_on_c, 9, 42, 0
1, 89880, Note_on_c, 9, 42, 43
1, 89999, Note_on_c, 9, 42, 0
1, 90000, Note_on_c, 9, 42, 127
1, 90000, Note_on_c, 9, 36, 127
1, 90239, Note_on_c, 9, 42, 0
1, 90239, Note_on_c, 9, 36, 0
1, 90240, Note_on_c, 9, 38, 127
1, 90240, Note_on_c, 9, 42, 127
1, 90359, Note_on_c, 9, 38, 0
1, 90359, Note_on_c, 9, 42, 0
1, 90360, Note_on_c, 9, 42, 43
1, 90479, Note_on_c, 9, 42, 0
1, 90480, Note_on_c, 9, 42, 127
1, 90480, Note_on_c, 9, 36, 127
1, 90719, Note_on_c, 9, 42, 0
1, 90719, Note_on_c, 9, 36, 0
1, 90720, Note_on_c, 9, 38, 127
1, 90720, Note_on_c, 9, 42, 127
1, 90839, Note_on_c, 9, 38, 0
1, 90839, Note_on_c, 9, 42, 0
1, 90840, Note_on_c, 9, 42, 43
1, 90959, Note_on_c, 9, 42, 0
1, 90960, Note_on_c, 9, 42, 127
1, 90960, Note_on_c, 9, 36, 127
1, 91199, Note_on_c, 9, 42, 0
1, 91199, Note_on_c, 9, 36, 0
1, 91200, Note_on_c, 9, 38, 127
1, 91200, Note_on_c, 9, 42, 127
1, 91319, Note_on_c, 9, 38, 0
1, 91319, Note_on_c, 9, 42, 0
1, 91320, Note_on_c, 9, 42, 43
1, 91439, Note_on_c, 9, 42, 0
1, 91440, Note_on_c, 9, 42, 127
1, 91440, Note_on_c, 9, 36, 127
1, 91679, Note_on_c, 9, 42, 0
1, 91679, Note_on_c, 9, 36, 0
1, 91680, Note_on_c, 9, 38, 127
1, 91680, Note_on_c, 9, 42, 127
1, 91799, Note_on_c, 9, 38, 0
1, 91799, Note_on_c, 9, 42, 0
1, 91800, Note_on_c, 9, 42, 43
1, 91919, Note_on_c, 9, 42, 0
1, 91920, Note_on_c, 9, 42, 127
1, 91920, Note_on_c, 9, 36, 127
1, 92159, Note_on_c, 9, 42, 0
1, 92159, Note_on_c, 9, 36, 0
1, 92160, Note_on_c, 9, 38, 127
1, 92160, Note_on_c, 9, 42, 127
1, 92279, Note_on_c, 9, 38, 0
1, 92279, Note_on_c, 9, 42, 0
1, 92280, Note_on_c, 9, 42, 43
1, 92399, Note_on_c, 9, 42, 0
1, 92400, Note_on_c, 9, 42, 127
1, 92400, Note_on_c, 9, 36, 127
1, 92639, Note_on_c, 9, 42, 0
1, 92639, Note_on_c, 9, 36, 0
1, 92640, Note_on_c, 9, 38, 127
1, 92640, Note_on_c, 9, 42, 127
1, 92759, Note_on_c, 9, 38, 0
1, 92759, Note_on_c, 9, 42, 0
1, 92760, Note_on_c, 9, 42, 43
1, 92879, Note_on_c, 9, 42, 0
1, 92880, Note_on_c, 9, 42, 127
1, 92880, Note_on_c, 9, 36, 127
1, 93119, Note_on_c, 9, 42, 0
1, 93119, Note_on_c, 9, 36, 0
1, 93120, Note_on_c, 9, 38, 127
1, 93120, Note_on_c, 9, 42, 127
1, 93239, Note_on_c, 9, 38, 0
1, 93239, Note_on_c, 9, 42, 0
1, 93240, Note_on_c, 9, 42, 43
1, 93359, Note_on_c, 9, 42, 0
1, 93360, Note_on_c, 9, 42, 127
1, 93360, Note_on_c, 9, 36, 127
1, 93599, Note_on_c, 9, 42, 0
1, 93599, Note_on_c, 9, 36, 0
1, 93600, Note_on_c, 9, 38, 127
1, 93600, Note_on_c, 9, 42, 127
1, 93719, Note_on_c, 9, 38, 0
1, 93719, Note_on_c, 9, 42, 0
1, 93720, Note_on_c, 9, 42, 43
1, 93839, Note_on_c, 9, 42, 0
1, 93840, Note_on_c, 9, 42, 127
1, 93840, Note_on_c, 9, 36, 127
1, 94079, Note_on_c, 9, 42, 0
1, 94079, Note_on_c, 9, 36, 0
1, 94080, Note_on_c, 9, 38, 127
1, 94080, Note_on_c, 9, 42, 127
1, 94199, Note_on_c, 9, 38, 0
1, 94199, Note_on_c, 9, 42, 0
1, 94200, Note_on_c, 9, 42, 43
1, 94319, Note_on_c, 9, 42, 0
1, 94335, Note_on_c, 9, 46, 127
1, 94335, Note_on_c, 9, 36, 127
1, 94559, Note_on_c, 9, 46, 0
1, 94559, Note_on_c, 9, 36, 0
1, 94560, Note_on_c, 9, 38, 127
1, 94560, Note_on_c, 9, 42, 127
1, 94679, Note_on_c, 9, 38, 0
1, 94679, Note_on_c, 9, 42, 0
1, 94680, Note_on_c, 9, 42, 43
1, 94680, Note_on_c, 9, 36, 127
1, 94799, Note_on_c, 9, 42, 0
1, 94799, Note_on_c, 9, 36, 0
1, 94800, Note_on_c, 9, 46, 127
1, 94800, Note_on_c, 9, 36, 127
1, 95039, Note_on_c, 9, 46, 0
1, 95039, Note_on_c, 9, 36, 0
1, 95040, Note_on_c, 9, 38, 127
1, 95040, Note_on_c, 9, 42, 127
1, 95160, Note_on_c, 9, 36, 127
1, 95279, Note_on_c, 9, 38, 0
1, 95279, Note_on_c, 9, 42, 0
1, 95280, Note_on_c, 9, 46, 127
1, 95399, Note_on_c, 9, 36, 0
1, 95400, Note_on_c, 9, 36, 127
1, 95519, Note_on_c, 9, 46, 0
1, 95519, Note_on_c, 9, 36, 0
1, 95520, Note_on_c, 9, 38, 127
1, 95520, Note_on_c, 9, 42, 127
1, 95639, Note_on_c, 9, 38, 0
1, 95639, Note_on_c, 9, 42, 0
1, 95655, Note_on_c, 9, 46, 127
1, 95655, Note_on_c, 9, 36, 127
1, 95699, Note_on_c, 9, 46, 0
1, 95699, Note_on_c, 9, 36, 0
1, 95880, Note_on_c, 9, 36, 127
1, 95999, Note_on_c, 9, 36, 0
1, 96000, Note_on_c, 9, 38, 127
1, 96000, Note_on_c, 9, 42, 127
1, 96119, Note_on_c, 9, 38, 0
1, 96119, Note_on_c, 9, 42, 0
1, 96120, Note_on_c, 9, 42, 43
1, 96120, Note_on_c, 9, 36, 127
1, 96239, Note_on_c, 9, 42, 0
1, 96239, Note_on_c, 9, 36, 0
1, 96240, Note_on_c, 9, 42, 127
1, 96240, Note_on_c, 9, 36, 127
1, 96479, Note_on_c, 9, 42, 0
1, 96479, Note_on_c, 9, 36, 0
1, 96480, Note_on_c, 9, 38, 127
1, 96480, Note_on_c, 9, 42, 127
1, 96599, Note_on_c, 9, 38, 0
1, 96599, Note_on_c, 9, 42, 0
1, 96600, Note_on_c, 9, 42, 43
1, 96719, Note_on_c, 9, 42, 0
1, 96720, Note_on_c, 9, 42, 127
1, 96720, Note_on_c, 9, 36, 127
1, 96959, Note_on_c, 9, 42, 0
1, 96959, Note_on_c, 9, 36, 0
1, 96960, Note_on_c, 9, 38, 127
1, 96960, Note_on_c, 9, 42, 127
1, 97079, Note_on_c, 9, 38, 0
1, 97079, Note_on_c, 9, 42, 0
1, 97080, Note_on_c, 9, 42, 43
1, 97199, Note_on_c, 9, 42, 0
1, 97200, Note_on_c, 9, 42, 127
1, 97200, Note_on_c, 9, 36, 127
1, 97439, Note_on_c, 9, 42, 0
1, 97439, Note_on_c, 9, 36, 0
1, 97440, Note_on_c, 9, 38, 127
1, 97440, Note_on_c, 9, 42, 127
1, 97559, Note_on_c, 9, 38, 0
1, 97559, Note_on_c, 9, 42, 0
1, 97560, Note_on_c, 9, 42, 43
1, 97679, Note_on_c, 9, 42, 0
1, 97680, Note_on_c, 9, 42, 127
1, 97680, Note_on_c, 9, 36, 127
1, 97919, Note_on_c, 9, 42, 0
1, 97919, Note_on_c, 9, 36, 0
1, 97920, Note_on_c, 9, 38, 127
1, 97920, Note_on_c, 9, 42, 127
1, 98039, Note_on_c, 9, 38, 0
1, 98039, Note_on_c, 9, 42, 0
1, 98040, Note_on_c, 9, 42, 43
1, 98159, Note_on_c, 9, 42, 0
1, 98160, Note_on_c, 9, 42, 127
1, 98160, Note_on_c, 9, 36, 127
1, 98399, Note_on_c, 9, 42, 0
1, 98399, Note_on_c, 9, 36, 0
1, 98400, Note_on_c, 9, 38, 127
1, 98400, Note_on_c, 9, 42, 127
1, 98519, Note_on_c, 9, 38, 0
1, 98519, Note_on_c, 9, 42, 0
1, 98520, Note_on_c, 9, 42, 43
1, 98639, Note_on_c, 9, 42, 0
1, 98640, Note_on_c, 9, 42, 127
1, 98640, Note_on_c, 9, 36, 127
1, 98879, Note_on_c, 9, 42, 0
1, 98879, Note_on_c, 9, 36, 0
1, 98880, Note_on_c, 9, 38, 127
1, 98880, Note_on_c, 9, 42, 127
1, 98999, Note_on_c, 9, 38, 0
1, 98999, Note_on_c, 9, 42, 0
1, 99000, Note_on_c, 9, 42, 43
1, 99119, Note_on_c, 9, 42, 0
1, 99120, Note_on_c, 9, 42, 127
1, 99120, Note_on_c, 9, 36, 127
1, 99359, Note_on_c, 9, 42, 0
1, 99359, Note_on_c, 9, 36, 0
1, 99360, Note_on_c, 9, 38, 127
1, 99360, Note_on_c, 9, 42, 127
1, 99479, Note_on_c, 9, 38, 0
1, 99479, Note_on_c, 9, 42, 0
1, 99480, Note_on_c, 9, 42, 43
1, 99599, Note_on_c, 9, 42, 0
1, 99600, Note_on_c, 9, 42, 127
1, 99600, Note_on_c, 9, 36, 127
1, 99839, Note_on_c, 9, 42, 0
1, 99839, Note_on_c, 9, 36, 0
1, 99840, Note_on_c, 9, 38, 127
1, 99840, Note_on_c, 9, 42, 127
1, 99959, Note_on_c, 9, 38, 0
1, 99959, Note_on_c, 9, 42, 0
1, 99960, Note_on_c, 9, 42, 43
1, 100079, Note_on_c, 9, 42, 0
1, 100080, Note_on_c, 9, 42, 127
1, 100080, Note_on_c, 9, 36, 127
1, 100319, Note_on_c, 9, 42, 0
1, 100319, Note_on_c, 9, 36, 0
1, 100320, Note_on_c, 9, 38, 127
1, 100320, Note_on_c, 9, 42, 127
1, 100439, Note_on_c, 9, 38, 0
1, 100439, Note_on_c, 9, 42, 0
1, 100440, Note_on_c, 9, 42, 43
1, 100559, Note_on_c, 9, 42, 0
1, 100560, Note_on_c, 9, 42, 127
1, 100560, Note_on_c, 9, 36, 127
1, 100799, Note_on_c, 9, 42, 0
1, 100799, Note_on_c, 9, 36, 0
1, 100800, Note_on_c, 9, 38, 127
1, 100800, Note_on_c, 9, 42, 127
1, 100919, Note_on_c, 9, 38, 0
1, 100919, Note_on_c, 9, 42, 0
1, 100920, Note_on_c, 9, 42, 43
1, 101039, Note_on_c, 9, 42, 0
1, 101040, Note_on_c, 9, 42, 127
1, 101040, Note_on_c, 9, 36, 127
1, 101279, Note_on_c, 9, 42, 0
1, 101279, Note_on_c, 9, 36, 0
1, 101280, Note_on_c, 9, 38, 127
1, 101280, Note_on_c, 9, 42, 127
1, 101399, Note_on_c, 9, 38, 0
1, 101399, Note_on_c, 9, 42, 0
1, 101400, Note_on_c, 9, 42, 43
1, 101519, Note_on_c, 9, 42, 0
1, 101520, Note_on_c, 9, 42, 127
1, 101520, Note_on_c, 9, 36, 127
1, 101759, Note_on_c, 9, 42, 0
1, 101759, Note_on_c, 9, 36, 0
1, 101760, Note_on_c, 9, 38, 127
1, 101760, Note_on_c, 9, 42, 127
1, 101879, Note_on_c, 9, 38, 0
1, 101879, Note_on_c, 9, 42, 0
1, 101880, Note_on_c, 9, 42, 43
1, 101999, Note_on_c, 9, 42, 0
1, 102000, Note_on_c, 9, 42, 127
1, 102000, Note_on_c, 9, 36, 127
1, 102239, Note_on_c, 9, 42, 0
1, 102239, Note_on_c, 9, 36, 0
1, 102240, Note_on_c, 9, 38, 127
1, 102240, Note_on_c, 9, 42, 127
1, 102359, Note_on_c, 9, 38, 0
1, 102359, Note_on_c, 9, 42, 0
1, 102360, Note_on_c, 9, 42, 43
1, 102479, Note_on_c, 9, 42, 0
1, 102480, Note_on_c, 9, 42, 127
1, 102480, Note_on_c, 9, 36, 127
1, 102719, Note_on_c, 9, 42, 0
1, 102719, Note_on_c, 9, 36, 0
1, 102720, Note_on_c, 9, 38, 127
1, 102720, Note_on_c, 9, 42, 127
1, 102839, Note_on_c, 9, 38, 0
1, 102839, Note_on_c, 9, 42, 0
1, 102840, Note_on_c, 9, 42, 43
1, 102959, Note_on_c, 9, 42, 0
1, 102960, Note_on_c, 9, 42, 127
1, 102960, Note_on_c, 9, 36, 127
1, 103199, Note_on_c, 9, 42, 0
1, 103199, Note_on_c, 9, 36, 0
1, 103200, Note_on_c, 9, 38, 127
1, 103200, Note_on_c, 9, 42, 127
1, 103319, Note_on_c, 9, 38, 0
1, 103319, Note_on_c, 9, 42, 0
1, 103320, Note_on_c, 9, 42, 43
1, 103439, Note_on_c, 9, 42, 0
1, 103440, Note_on_c, 9, 42, 127
1, 103440, Note_on_c, 9, 36, 127
1, 103679, Note_on_c, 9, 42, 0
1, 103679, Note_on_c, 9, 36, 0
1, 103680, Note_on_c, 9, 38, 127
1, 103680, Note_on_c, 9, 42, 127
1, 103799, Note_on_c, 9, 38, 0
1, 103799, Note_on_c, 9, 42, 0
1, 103800, Note_on_c, 9, 42, 43
1, 103919, Note_on_c, 9, 42, 0
1, 103935, Note_on_c, 9, 46, 127
1, 103935, Note_on_c, 9, 36, 127
1, 104159, Note_on_c, 9, 46, 0
1, 104159, Note_on_c, 9, 36, 0
1, 104160, Note_on_c, 9, 38, 127
1, 104160, Note_on_c, 9, 42, 127
1, 104279, Note_on_c, 9, 38, 0
1, 104279, Note_on_c, 9, 42, 0
1, 104280, Note_on_c, 9, 42, 43
1, 104280, Note_on_c, 9, 36, 127
1, 104399, Note_on_c, 9, 42, 0
1, 104399, Note_on_c, 9, 36, 0
1, 104400, Note_on_c, 9, 46, 127
1, 104400, Note_on_c, 9, 36, 127
1, 104639, Note_on_c, 9, 46, 0
1, 104639, Note_on_c, 9, 36, 0
1, 104640, Note_on_c, 9, 38, 127
1, 104640, Note_on_c, 9, 42, 127
1, 104760, Note_on_c, 9, 36, 127
1, 104879, Note_on_c, 9, 38, 0
1, 104879, Note_on_c, 9, 42, 0
1, 104880, Note_on_c, 9, 46, 127
1, 104999, Note_on_c, 9, 36, 0
1, 105000, Note_on_c, 9, 36, 127
1, 105119, Note_on_c, 9, 46, 0
1, 105119, Note_on_c, 9, 36, 0
1, 105120, Note_on_c, 9, 38, 127
1, 105120, Note_on_c, 9, 42, 127
1, 105239, Note_on_c, 9, 38, 0
1, 105239, Note_on_c, 9, 42, 0
1, 105255, Note_on_c, 9, 46, 127
1, 105255, Note_on_c, 9, 36, 127
1, 105299, Note_on_c, 9, 46, 0
1, 105299, Note_on_c, 9, 36, 0
1, 105480, Note_on_c, 9, 36, 127
1, 105599, Note_on_c, 9, 36, 0
1, 105600, Note_on_c, 9, 38, 127
1, 105600, Note_on_c, 9, 42, 127
1, 105719, Note_on_c, 9, 38, 0
1, 105719, Note_on_c, 9, 42, 0
1, 105720, Note_on_c, 9, 42, 43
1, 105720, Note_on_c, 9, 36, 127
1, 105839, Note_on_c, 9, 42, 0
1, 105839, Note_on_c, 9, 36, 0
1, 105855, Note_on_c, 9, 51, 127
1, 105855, Note_on_c, 9, 42, 127
1, 105855, Note_on_c, 9, 36, 127
1, 106079, Note_on_c, 9, 51, 0
1, 106079, Note_on_c, 9, 42, 0
1, 106079, Note_on_c, 9, 36, 0
1, 106080, Note_on_c, 9, 38, 127
1, 106080, Note_on_c, 9, 42, 127
1, 106199, Note_on_c, 9, 38, 0
1, 106199, Note_on_c, 9, 42, 0
1, 106230, Note_on_c, 9, 42, 43
1, 106319, Note_on_c, 9, 42, 0
1, 106350, Note_on_c, 9, 51, 127
1, 106350, Note_on_c, 9, 42, 127
1, 106350, Note_on_c, 9, 36, 127
1, 106439, Note_on_c, 9, 51, 0
1, 106439, Note_on_c, 9, 42, 0
1, 106439, Note_on_c, 9, 36, 0
1, 106590, Note_on_c, 9, 38, 127
1, 106590, Note_on_c, 9, 42, 127
1, 106679, Note_on_c, 9, 38, 0
1, 106679, Note_on_c, 9, 42, 0
1, 106710, Note_on_c, 9, 42, 43
1, 106799, Note_on_c, 9, 42, 0
1, 106815, Note_on_c, 9, 51, 127
1, 106815, Note_on_c, 9, 42, 127
1, 106815, Note_on_c, 9, 36, 127
1, 107039, Note_on_c, 9, 51, 0
1, 107039, Note_on_c, 9, 42, 0
1, 107039, Note_on_c, 9, 36, 0
1, 107040, Note_on_c, 9, 38, 127
1, 107040, Note_on_c, 9, 42, 127
1, 107159, Note_on_c, 9, 38, 0
1, 107159, Note_on_c, 9, 42, 0
1, 107160, Note_on_c, 9, 42, 43
1, 107279, Note_on_c, 9, 42, 0
1, 107295, Note_on_c, 9, 51, 127
1, 107295, Note_on_c, 9, 42, 127
1, 107295, Note_on_c, 9, 36, 127
1, 107519, Note_on_c, 9, 51, 0
1, 107519, Note_on_c, 9, 42, 0
1, 107519, Note_on_c, 9, 36, 0
1, 107520, Note_on_c, 9, 38, 127
1, 107520, Note_on_c, 9, 42, 127
1, 107639, Note_on_c, 9, 38, 0
1, 107639, Note_on_c, 9, 42, 0
1, 107640, Note_on_c, 9, 42, 43
1, 107759, Note_on_c, 9, 42, 0
1, 107760, Note_on_c, 9, 51, 127
1, 107760, Note_on_c, 9, 42, 127
1, 107760, Note_on_c, 9, 36, 127
1, 107999, Note_on_c, 9, 51, 0
1, 107999, Note_on_c, 9, 42, 0
1, 107999, Note_on_c, 9, 36, 0
1, 108000, Note_on_c, 9, 38, 127
1, 108000, Note_on_c, 9, 42, 127
1, 108119, Note_on_c, 9, 38, 0
1, 108119, Note_on_c, 9, 42, 0
1, 108150, Note_on_c, 9, 42, 43
1, 108239, Note_on_c, 9, 42, 0
1, 108270, Note_on_c, 9, 51, 127
1, 108270, Note_on_c, 9, 42, 127
1, 108270, Note_on_c, 9, 36, 127
1, 108359, Note_on_c, 9, 51, 0
1, 108359, Note_on_c, 9, 42, 0
1, 108359, Note_on_c, 9, 36, 0
1, 108510, Note_on_c, 9, 38, 127
1, 108510, Note_on_c, 9, 42, 127
1, 108599, Note_on_c, 9, 38, 0
1, 108599, Note_on_c, 9, 42, 0
1, 108630, Note_on_c, 9, 42, 43
1, 108719, Note_on_c, 9, 42, 0
1, 108735, Note_on_c, 9, 51, 127
1, 108735, Note_on_c, 9, 42, 127
1, 108735, Note_on_c, 9, 36, 127
1, 108959, Note_on_c, 9, 51, 0
1, 108959, Note_on_c, 9, 42, 0
1, 108959, Note_on_c, 9, 36, 0
1, 108960, Note_on_c, 9, 38, 127
1, 108960, Note_on_c, 9, 42, 127
1, 109079, Note_on_c, 9, 38, 0
1, 109079, Note_on_c, 9, 42, 0
1, 109080, Note_on_c, 9, 42, 43
1, 109199, Note_on_c, 9, 42, 0
1, 109215, Note_on_c, 9, 51, 127
1, 109215, Note_on_c, 9, 42, 127
1, 109215, Note_on_c, 9, 36, 127
1, 109439, Note_on_c, 9, 51, 0
1, 109439, Note_on_c, 9, 42, 0
1, 109439, Note_on_c, 9, 36, 0
1, 109440, Note_on_c, 9, 38, 127
1, 109440, Note_on_c, 9, 42, 127
1, 109559, Note_on_c, 9, 38, 0
1, 109559, Note_on_c, 9, 42, 0
1, 109560, Note_on_c, 9, 42, 43
1, 109679, Note_on_c, 9, 42, 0
1, 109680, Note_on_c, 9, 51, 127
1, 109680, Note_on_c, 9, 42, 127
1, 109680, Note_on_c, 9, 36, 127
1, 109919, Note_on_c, 9, 51, 0
1, 109919, Note_on_c, 9, 42, 0
1, 109919, Note_on_c, 9, 36, 0
1, 109920, Note_on_c, 9, 38, 127
1, 109920, Note_on_c, 9, 42, 127
1, 110039, Note_on_c, 9, 38, 0
1, 110039, Note_on_c, 9, 42, 0
1, 110070, Note_on_c, 9, 42, 43
1, 110159, Note_on_c, 9, 42, 0
1, 110190, Note_on_c, 9, 51, 127
1, 110190, Note_on_c, 9, 42, 127
1, 110190, Note_on_c, 9, 36, 127
1, 110279, Note_on_c, 9, 51, 0
1, 110279, Note_on_c, 9, 42, 0
1, 110279, Note_on_c, 9, 36, 0
1, 110430, Note_on_c, 9, 38, 127
1, 110430, Note_on_c, 9, 42, 127
1, 110519, Note_on_c, 9, 38, 0
1, 110519, Note_on_c, 9, 42, 0
1, 110550, Note_on_c, 9, 42, 43
1, 110639, Note_on_c, 9, 42, 0
1, 110655, Note_on_c, 9, 51, 127
1, 110655, Note_on_c, 9, 42, 127
1, 110655, Note_on_c, 9, 36, 127
1, 110879, Note_on_c, 9, 51, 0
1, 110879, Note_on_c, 9, 42, 0
1, 110879, Note_on_c, 9, 36, 0
1, 110880, Note_on_c, 9, 38, 127
1, 110880, Note_on_c, 9, 42, 127
1, 110999, Note_on_c, 9, 38, 0
1, 110999, Note_on_c, 9, 42, 0
1, 111000, Note_on_c, 9, 42, 43
1, 111119, Note_on_c, 9, 42, 0
1, 111135, Note_on_c, 9, 51, 127
1, 111135, Note_on_c, 9, 42, 127
1, 111135, Note_on_c, 9, 36, 127
1, 111359, Note_on_c, 9, 51, 0
1, 111359, Note_on_c, 9, 42, 0
1, 111359, Note_on_c, 9, 36, 0
1, 111360, Note_on_c, 9, 38, 127
1, 111360, Note_on_c, 9, 42, 127
1, 111479, Note_on_c, 9, 38, 0
1, 111479, Note_on_c, 9, 42, 0
1, 111480, Note_on_c, 9, 42, 43
1, 111599, Note_on_c, 9, 42, 0
1, 111600, Note_on_c, 9, 51, 127
1, 111600, Note_on_c, 9, 42, 127
1, 111600, Note_on_c, 9, 36, 127
1, 111839, Note_on_c, 9, 51, 0
1, 111839, Note_on_c, 9, 42, 0
1, 111839, Note_on_c, 9, 36, 0
1, 111840, Note_on_c, 9, 38, 127
1, 111840, Note_on_c, 9, 42, 127
1, 111959, Note_on_c, 9, 38, 0
1, 111959, Note_on_c, 9, 42, 0
1, 111960, Note_on_c, 9, 42, 43
1, 112079, Note_on_c, 9, 42, 0
1, 112080, Note_on_c, 9, 51, 127
1, 112080, Note_on_c, 9, 42, 127
1, 112080, Note_on_c, 9, 36, 127
1, 112319, Note_on_c, 9, 51, 0
1, 112319, Note_on_c, 9, 42, 0
1, 112319, Note_on_c, 9, 36, 0
1, 112320, Note_on_c, 9, 38, 127
1, 112320, Note_on_c, 9, 42, 127
1, 112439, Note_on_c, 9, 38, 0
1, 112439, Note_on_c, 9, 42, 0
1, 112440, Note_on_c, 9, 42, 43
1, 112559, Note_on_c, 9, 42, 0
1, 112560, Note_on_c, 9, 51, 127
1, 112560, Note_on_c, 9, 42, 127
1, 112560, Note_on_c, 9, 36, 127
1, 112799, Note_on_c, 9, 51, 0
1, 112799, Note_on_c, 9, 42, 0
1, 112799, Note_on_c, 9, 36, 0
1, 112800, Note_on_c, 9, 38, 127
1, 112800, Note_on_c, 9, 42, 127
1, 112919, Note_on_c, 9, 38, 0
1, 112919, Note_on_c, 9, 42, 0
1, 112935, Note_on_c, 9, 42, 43
1, 112979, Note_on_c, 9, 42, 0
1, 113055, Note_on_c, 9, 51, 127
1, 113055, Note_on_c, 9, 42, 127
1, 113055, Note_on_c, 9, 36, 127
1, 113279, Note_on_c, 9, 51, 0
1, 113279, Note_on_c, 9, 42, 0
1, 113279, Note_on_c, 9, 36, 0
1, 113280, Note_on_c, 9, 38, 127
1, 113280, Note_on_c, 9, 42, 127
1, 113399, Note_on_c, 9, 38, 0
1, 113399, Note_on_c, 9, 42, 0
1, 113400, Note_on_c, 9, 42, 43
1, 113519, Note_on_c, 9, 42, 0
1, 113520, Note_on_c, 9, 42, 127
1, 113520, Note_on_c, 9, 36, 127
1, 113759, Note_on_c, 9, 42, 0
1, 113759, Note_on_c, 9, 36, 0
1, 113760, Note_on_c, 9, 38, 127
1, 113760, Note_on_c, 9, 42, 127
1, 113879, Note_on_c, 9, 38, 0
1, 113879, Note_on_c, 9, 42, 0
1, 113880, Note_on_c, 9, 42, 43
1, 113999, Note_on_c, 9, 42, 0
1, 114000, Note_on_c, 9, 42, 127
1, 114000, Note_on_c, 9, 36, 127
1, 114239, Note_on_c, 9, 42, 0
1, 114239, Note_on_c, 9, 36, 0
1, 114240, Note_on_c, 9, 38, 127
1, 114240, Note_on_c, 9, 42, 127
1, 114359, Note_on_c, 9, 38, 0
1, 114359, Note_on_c, 9, 42, 0
1, 114360, Note_on_c, 9, 42, 43
1, 114479, Note_on_c, 9, 42, 0
1, 114480, Note_on_c, 9, 42, 127
1, 114480, Note_on_c, 9, 36, 127
1, 114719, Note_on_c, 9, 42, 0
1, 114719, Note_on_c, 9, 36, 0
1, 114720, Note_on_c, 9, 38, 127
1, 114720, Note_on_c, 9, 42, 127
1, 114839, Note_on_c, 9, 38, 0
1, 114839, Note_on_c, 9, 42, 0
1, 114840, Note_on_c, 9, 42, 43
1, 114959, Note_on_c, 9, 42, 0
1, 114960, Note_on_c, 9, 42, 127
1, 114960, Note_on_c, 9, 36, 127
1, 115199, Note_on_c, 9, 42, 0
1, 115199, Note_on_c, 9, 36, 0
1, 115200, Note_on_c, 9, 38, 127
1, 115200, Note_on_c, 9, 42, 127
1, 115319, Note_on_c, 9, 38, 0
1, 115319, Note_on_c, 9, 42, 0
1, 115320, Note_on_c, 9, 42, 43
1, 115439, Note_on_c, 9, 42, 0
1, 115440, Note_on_c, 9, 42, 127
1, 115440, Note_on_c, 9, 36, 127
1, 115679, Note_on_c, 9, 42, 0
1, 115679, Note_on_c, 9, 36, 0
1, 115680, Note_on_c, 9, 38, 127
1, 115680, Note_on_c, 9, 42, 127
1, 115799, Note_on_c, 9, 38, 0
1, 115799, Note_on_c, 9, 42, 0
1, 115800, Note_on_c, 9, 42, 43
1, 115919, Note_on_c, 9, 42, 0
1, 115920, Note_on_c, 9, 42, 127
1, 115920, Note_on_c, 9, 36, 127
1, 116159, Note_on_c, 9, 42, 0
1, 116159, Note_on_c, 9, 36, 0
1, 116160, Note_on_c, 9, 38, 127
1, 116160, Note_on_c, 9, 42, 127
1, 116279, Note_on_c, 9, 38, 0
1, 116279, Note_on_c, 9, 42, 0
1, 116280, Note_on_c, 9, 42, 43
1, 116399, Note_on_c, 9, 42, 0
1, 116400, Note_on_c, 9, 42, 127
1, 116400, Note_on_c, 9, 36, 127
1, 116639, Note_on_c, 9, 42, 0
1, 116639, Note_on_c, 9, 36, 0
1, 116640, Note_on_c, 9, 38, 127
1, 116640, Note_on_c, 9, 42, 127
1, 116759, Note_on_c, 9, 38, 0
1, 116759, Note_on_c, 9, 42, 0
1, 116760, Note_on_c, 9, 42, 43
1, 116879, Note_on_c, 9, 42, 0
1, 116880, Note_on_c, 9, 42, 127
1, 116880, Note_on_c, 9, 36, 127
1, 117119, Note_on_c, 9, 42, 0
1, 117119, Note_on_c, 9, 36, 0
1, 117120, Note_on_c, 9, 38, 127
1, 117120, Note_on_c, 9, 42, 127
1, 117239, Note_on_c, 9, 38, 0
1, 117239, Note_on_c, 9, 42, 0
1, 117240, Note_on_c, 9, 42, 43
1, 117359, Note_on_c, 9, 42, 0
1, 117360, Note_on_c, 9, 42, 127
1, 117360, Note_on_c, 9, 36, 127
1, 117599, Note_on_c, 9, 42, 0
1, 117599, Note_on_c, 9, 36, 0
1, 117600, Note_on_c, 9, 38, 127
1, 117600, Note_on_c, 9, 42, 127
1, 117719, Note_on_c, 9, 38, 0
1, 117719, Note_on_c, 9, 42, 0
1, 117720, Note_on_c, 9, 42, 43
1, 117839, Note_on_c, 9, 42, 0
1, 117840, Note_on_c, 9, 42, 127
1, 117840, Note_on_c, 9, 36, 127
1, 118079, Note_on_c, 9, 42, 0
1, 118079, Note_on_c, 9, 36, 0
1, 118080, Note_on_c, 9, 38, 127
1, 118080, Note_on_c, 9, 42, 127
1, 118199, Note_on_c, 9, 38, 0
1, 118199, Note_on_c, 9, 42, 0
1, 118200, Note_on_c, 9, 42, 43
1, 118319, Note_on_c, 9, 42, 0
1, 118320, Note_on_c, 9, 42, 127
1, 118320, Note_on_c, 9, 36, 127
1, 118559, Note_on_c, 9, 42, 0
1, 118559, Note_on_c, 9, 36, 0
1, 118560, Note_on_c, 9, 38, 127
1, 118560, Note_on_c, 9, 42, 127
1, 118679, Note_on_c, 9, 38, 0
1, 118679, Note_on_c, 9, 42, 0
1, 118680, Note_on_c, 9, 42, 43
1, 118799, Note_on_c, 9, 42, 0
1, 118800, Note_on_c, 9, 42, 127
1, 118800, Note_on_c, 9, 36, 127
1, 119039, Note_on_c, 9, 42, 0
1, 119039, Note_on_c, 9, 36, 0
1, 119040, Note_on_c, 9, 38, 127
1, 119040, Note_on_c, 9, 42, 127
1, 119159, Note_on_c, 9, 38, 0
1, 119159, Note_on_c, 9, 42, 0
1, 119160, Note_on_c, 9, 42, 43
1, 119279, Note_on_c, 9, 42, 0
1, 119280, Note_on_c, 9, 42, 127
1, 119280, Note_on_c, 9, 36, 127
1, 119519, Note_on_c, 9, 42, 0
1, 119519, Note_on_c, 9, 36, 0
1, 119520, Note_on_c, 9, 38, 127
1, 119520, Note_on_c, 9, 42, 127
1, 119639, Note_on_c, 9, 38, 0
1, 119639, Note_on_c, 9, 42, 0
1, 119640, Note_on_c, 9, 42, 43
1, 119759, Note_on_c, 9, 42, 0
1, 119760, Note_on_c, 9, 42, 127
1, 119760, Note_on_c, 9, 36, 127
1, 119999, Note_on_c, 9, 42, 0
1, 119999, Note_on_c, 9, 36, 0
1, 120000, Note_on_c, 9, 38, 127
1, 120000, Note_on_c, 9, 42, 127
1, 120119, Note_on_c, 9, 38, 0
1, 120119, Note_on_c, 9, 42, 0
1, 120120, Note_on_c, 9, 42, 43
1, 120239, Note_on_c, 9, 42, 0
1, 120255, Note_on_c, 9, 42, 127
1, 120255, Note_on_c, 9, 36, 127
1, 120479, Note_on_c, 9, 42, 0
1, 120479, Note_on_c, 9, 36, 0
1, 120480, Note_on_c, 9, 38, 127
1, 120480, Note_on_c, 9, 42, 127
1, 120599, Note_on_c, 9, 38, 0
1, 120599, Note_on_c, 9, 42, 0
1, 120615, Note_on_c, 9, 42, 43
1, 120659, Note_on_c, 9, 42, 0
1, 120735, Note_on_c, 9, 42, 127
1, 120735, Note_on_c, 9, 36, 127
1, 120959, Note_on_c, 9, 42, 0
1, 120959, Note_on_c, 9, 36, 0
1, 120960, Note_on_c, 9, 38, 127
1, 120960, Note_on_c, 9, 42, 127
1, 121079, Note_on_c, 9, 38, 0
1, 121079, Note_on_c, 9, 42, 0
1, 121080, Note_on_c, 9, 42, 43
1, 121199, Note_on_c, 9, 42, 0
1, 121215, Note_on_c, 9, 46, 127
1, 121215, Note_on_c, 9, 36, 127
1, 121439, Note_on_c, 9, 46, 0
1, 121439, Note_on_c, 9, 36, 0
1, 121440, Note_on_c, 9, 38, 127
1, 121440, Note_on_c, 9, 42, 127
1, 121559, Note_on_c, 9, 38, 0
1, 121559, Note_on_c, 9, 42, 0
1, 121560, Note_on_c, 9, 42, 43
1, 121560, Note_on_c, 9, 36, 127
1, 121679, Note_on_c, 9, 42, 0
1, 121679, Note_on_c, 9, 36, 0
1, 121680, Note_on_c, 9, 46, 127
1, 121680, Note_on_c, 9, 36, 127
1, 121919, Note_on_c, 9, 46, 0
1, 121919, Note_on_c, 9, 36, 0
1, 121920, Note_on_c, 9, 38, 127
1, 121920, Note_on_c, 9, 42, 127
1, 122040, Note_on_c, 9, 36, 127
1, 122159, Note_on_c, 9, 38, 0
1, 122159, Note_on_c, 9, 42, 0
1, 122160, Note_on_c, 9, 46, 127
1, 122279, Note_on_c, 9, 36, 0
1, 122280, Note_on_c, 9, 36, 127
1, 122399, Note_on_c, 9, 46, 0
1, 122399, Note_on_c, 9, 36, 0
1, 122400, Note_on_c, 9, 38, 127
1, 122400, Note_on_c, 9, 42, 127
1, 122519, Note_on_c, 9, 38, 0
1, 122519, Note_on_c, 9, 42, 0
1, 122535, Note_on_c, 9, 46, 127
1, 122535, Note_on_c, 9, 36, 127
1, 122579, Note_on_c, 9, 46, 0
1, 122579, Note_on_c, 9, 36, 0
1, 122760, Note_on_c, 9, 36, 127
1, 122879, Note_on_c, 9, 36, 0
1, 122880, Note_on_c, 9, 38, 127
1, 122880, Note_on_c, 9, 42, 127
1, 122999, Note_on_c, 9, 38, 0
1, 122999, Note_on_c, 9, 42, 0
1, 123000, Note_on_c, 9, 42, 43
1, 123000, Note_on_c, 9, 36, 127
1, 123119, Note_on_c, 9, 42, 0
1, 123119, Note_on_c, 9, 36, 0
1, 123120, Note_on_c, 9, 42, 127
1, 123120, Note_on_c, 9, 36, 127
1, 123359, Note_on_c, 9, 42, 0
1, 123359, Note_on_c, 9, 36, 0
1, 123360, Note_on_c, 9, 38, 127
1, 123360, Note_on_c, 9, 42, 127
1, 123479, Note_on_c, 9, 38, 0
1, 123479, Note_on_c, 9, 42, 0
1, 123480, Note_on_c, 9, 42, 43
1, 123599, Note_on_c, 9, 42, 0
1, 123600, Note_on_c, 9, 42, 127
1, 123600, Note_on_c, 9, 36, 127
1, 123839, Note_on_c, 9, 42, 0
1, 123839, Note_on_c, 9, 36, 0
1, 123840, Note_on_c, 9, 38, 127
1, 123840, Note_on_c, 9, 42, 127
1, 123959, Note_on_c, 9, 38, 0
1, 123959, Note_on_c, 9, 42, 0
1, 123960, Note_on_c, 9, 42, 43
1, 124079, Note_on_c, 9, 42, 0
1, 124080, Note_on_c, 9, 42, 127
1, 124080, Note_on_c, 9, 36, 127
1, 124319, Note_on_c, 9, 42, 0
1, 124319, Note_on_c, 9, 36, 0
1, 124320, Note_on_c, 9, 38, 127
1, 124320, Note_on_c, 9, 42, 127
1, 124439, Note_on_c, 9, 38, 0
1, 124439, Note_on_c, 9, 42, 0
1, 124440, Note_on_c, 9, 42, 43
1, 124559, Note_on_c, 9, 42, 0
1, 124560, Note_on_c, 9, 42, 127
1, 124560, Note_on_c, 9, 36, 127
1, 124799, Note_on_c, 9, 42, 0
1, 124799, Note_on_c, 9, 36, 0
1, 124800, Note_on_c, 9, 38, 127
1, 124800, Note_on_c, 9, 42, 127
1, 124919, Note_on_c, 9, 38, 0
1, 124919, Note_on_c, 9, 42, 0
1, 124920, Note_on_c, 9, 42, 43
1, 125039, Note_on_c, 9, 42, 0
1, 125040, Note_on_c, 9, 42, 127
1, 125040, Note_on_c, 9, 36, 127
1, 125279, Note_on_c, 9, 42, 0
1, 125279, Note_on_c, 9, 36, 0
1, 125280, Note_on_c, 9, 38, 127
1, 125280, Note_on_c, 9, 42, 127
1, 125399, Note_on_c, 9, 38, 0
1, 125399, Note_on_c, 9, 42, 0
1, 125400, Note_on_c, 9, 42, 43
1, 125519, Note_on_c, 9, 42, 0
1, 125535, Note_on_c, 9, 42, 127
1, 125535, Note_on_c, 9, 36, 127
1, 125759, Note_on_c, 9, 42, 0
1, 125759, Note_on_c, 9, 36, 0
1, 125775, Note_on_c, 9, 38, 127
1, 125775, Note_on_c, 9, 42, 127
1, 125819, Note_on_c, 9, 38, 0
1, 125819, Note_on_c, 9, 42, 0
1, 125895, Note_on_c, 9, 42, 43
1, 125939, Note_on_c, 9, 42, 0
1, 126015, Note_on_c, 9, 42, 127
1, 126015, Note_on_c, 9, 36, 127
1, 126239, Note_on_c, 9, 42, 0
1, 126239, Note_on_c, 9, 36, 0
1, 126240, Note_on_c, 9, 38, 127
1, 126240, Note_on_c, 9, 42, 127
1, 126359, Note_on_c, 9, 38, 0
1, 126359, Note_on_c, 9, 42, 0
1, 126360, Note_on_c, 9, 42, 43
1, 126479, Note_on_c, 9, 42, 0
1, 126480, Note_on_c, 9, 42, 127
1, 126480, Note_on_c, 9, 36, 127
1, 126719, Note_on_c, 9, 42, 0
1, 126719, Note_on_c, 9, 36, 0
1, 126720, Note_on_c, 9, 38, 127
1, 126720, Note_on_c, 9, 42, 127
1, 126839, Note_on_c, 9, 38, 0
1, 126839, Note_on_c, 9, 42, 0
1, 126840, Note_on_c, 9, 42, 43
1, 126959, Note_on_c, 9, 42, 0
1, 126960, Note_on_c, 9, 42, 127
1, 126960, Note_on_c, 9, 36, 127
1, 127199, Note_on_c, 9, 42, 0
1, 127199, Note_on_c, 9, 36, 0
1, 127200, Note_on_c, 9, 38, 127
1, 127200, Note_on_c, 9, 42, 127
1, 127319, Note_on_c, 9, 38, 0
1, 127319, Note_on_c, 9, 42, 0
1, 127320, Note_on_c, 9, 42, 43
1, 127439, Note_on_c, 9, 42, 0
1, 127440, Note_on_c, 9, 42, 127
1, 127440, Note_on_c, 9, 36, 127
1, 127679, Note_on_c, 9, 42, 0
1, 127679, Note_on_c, 9, 36, 0
1, 127680, Note_on_c, 9, 38, 127
1, 127680, Note_on_c, 9, 42, 127
1, 127799, Note_on_c, 9, 38, 0
1, 127799, Note_on_c, 9, 42, 0
1, 127800, Note_on_c, 9, 42, 43
1, 127919, Note_on_c, 9, 42, 0
1, 127920, Note_on_c, 9, 42, 127
1, 127920, Note_on_c, 9, 36, 127
1, 128159, Note_on_c, 9, 42, 0
1, 128159, Note_on_c, 9, 36, 0
1, 128160, Note_on_c, 9, 38, 127
1, 128160, Note_on_c, 9, 42, 127
1, 128279, Note_on_c, 9, 38, 0
1, 128279, Note_on_c, 9, 42, 0
1, 128280, Note_on_c, 9, 42, 43
1, 128399, Note_on_c, 9, 42, 0
1, 128400, Note_on_c, 9, 42, 127
1, 128400, Note_on_c, 9, 36, 127
1, 128639, Note_on_c, 9, 42, 0
1, 128639, Note_on_c, 9, 36, 0
1, 128640, Note_on_c, 9, 38, 127
1, 128640, Note_on_c, 9, 42, 127
1, 128759, Note_on_c, 9, 38, 0
1, 128759, Note_on_c, 9, 42, 0
1, 128760, Note_on_c, 9, 42, 43
1, 128879, Note_on_c, 9, 42, 0
1, 128880, Note_on_c, 9, 42, 127
1, 128880, Note_on_c, 9, 36, 127
1, 129119, Note_on_c, 9, 42, 0
1, 129119, Note_on_c, 9, 36, 0
1, 129120, Note_on_c, 9, 38, 127
1, 129120, Note_on_c, 9, 42, 127
1, 129239, Note_on_c, 9, 38, 0
1, 129239, Note_on_c, 9, 42, 0
1, 129240, Note_on_c, 9, 42, 43
1, 129359, Note_on_c, 9, 42, 0
1, 129360, Note_on_c, 9, 42, 127
1, 129360, Note_on_c, 9, 36, 127
1, 129599, Note_on_c, 9, 42, 0
1, 129599, Note_on_c, 9, 36, 0
1, 129600, Note_on_c, 9, 38, 127
1, 129600, Note_on_c, 9, 42, 127
1, 129719, Note_on_c, 9, 38, 0
1, 129719, Note_on_c, 9, 42, 0
1, 129720, Note_on_c, 9, 42, 43
1, 129839, Note_on_c, 9, 42, 0
1, 129840, Note_on_c, 9, 42, 127
1, 129840, Note_on_c, 9, 36, 127
1, 130079, Note_on_c, 9, 42, 0
1, 130079, Note_on_c, 9, 36, 0
1, 130080, Note_on_c, 9, 38, 127
1, 130080, Note_on_c, 9, 42, 127
1, 130199, Note_on_c, 9, 38, 0
1, 130199, Note_on_c, 9, 42, 0
1, 130200, Note_on_c, 9, 42, 43
1, 130319, Note_on_c, 9, 42, 0
1, 130320, Note_on_c, 9, 42, 127
1, 130320, Note_on_c, 9, 36, 127
1, 130559, Note_on_c, 9, 42, 0
1, 130559, Note_on_c, 9, 36, 0
1, 130560, Note_on_c, 9, 38, 127
1, 130560, Note_on_c, 9, 42, 127
1, 130679, Note_on_c, 9, 38, 0
1, 130679, Note_on_c, 9, 42, 0
1, 130680, Note_on_c, 9, 42, 43
1, 130799, Note_on_c, 9, 42, 0
1, 130815, Note_on_c, 9, 46, 127
1, 130815, Note_on_c, 9, 36, 127
1, 131039, Note_on_c, 9, 46, 0
1, 131039, Note_on_c, 9, 36, 0
1, 131055, Note_on_c, 9, 38, 127
1, 131055, Note_on_c, 9, 42, 127
1, 131099, Note_on_c, 9, 38, 0
1, 131099, Note_on_c, 9, 42, 0
1, 131160, Note_on_c, 9, 42, 43
1, 131175, Note_on_c, 9, 36, 127
1, 131219, Note_on_c, 9, 36, 0
1, 131279, Note_on_c, 9, 42, 0
1, 131280, Note_on_c, 9, 46, 127
1, 131280, Note_on_c, 9, 36, 127
1, 131519, Note_on_c, 9, 46, 0
1, 131519, Note_on_c, 9, 36, 0
1, 131520, Note_on_c, 9, 38, 127
1, 131520, Note_on_c, 9, 42, 127
1, 131640, Note_on_c, 9, 36, 127
1, 131759, Note_on_c, 9, 38, 0
1, 131759, Note_on_c, 9, 42, 0
1, 131760, Note_on_c, 9, 46, 127
1, 131879, Note_on_c, 9, 36, 0
1, 131880, Note_on_c, 9, 36, 127
1, 131999, Note_on_c, 9, 46, 0
1, 131999, Note_on_c, 9, 36, 0
1, 132000, Note_on_c, 9, 38, 127
1, 132000, Note_on_c, 9, 42, 127
1, 132119, Note_on_c, 9, 38, 0
1, 132119, Note_on_c, 9, 42, 0
1, 132135, Note_on_c, 9, 46, 127
1, 132135, Note_on_c, 9, 36, 127
1, 132179, Note_on_c, 9, 46, 0
1, 132179, Note_on_c, 9, 36, 0
1, 132360, Note_on_c, 9, 36, 127
1, 132479, Note_on_c, 9, 36, 0
1, 132480, Note_on_c, 9, 38, 127
1, 132480, Note_on_c, 9, 42, 127
1, 132599, Note_on_c, 9, 38, 0
1, 132599, Note_on_c, 9, 42, 0
1, 132600, Note_on_c, 9, 42, 43
1, 132600, Note_on_c, 9, 36, 127
1, 132719, Note_on_c, 9, 42, 0
1, 132719, Note_on_c, 9, 36, 0
1, 132720, Note_on_c, 9, 42, 127
1, 132720, Note_on_c, 9, 36, 127
1, 132959, Note_on_c, 9, 42, 0
1, 132959, Note_on_c, 9, 36, 0
1, 132960, Note_on_c, 9, 38, 127
1, 132960, Note_on_c, 9, 42, 127
1, 133079, Note_on_c, 9, 38, 0
1, 133079, Note_on_c, 9, 42, 0
1, 133080, Note_on_c, 9, 42, 43
1, 133199, Note_on_c, 9, 42, 0
1, 133200, Note_on_c, 9, 42, 127
1, 133200, Note_on_c, 9, 36, 127
1, 133439, Note_on_c, 9, 42, 0
1, 133439, Note_on_c, 9, 36, 0
1, 133440, Note_on_c, 9, 38, 127
1, 133440, Note_on_c, 9, 42, 127
1, 133559, Note_on_c, 9, 38, 0
1, 133559, Note_on_c, 9, 42, 0
1, 133560, Note_on_c, 9, 42, 43
1, 133679, Note_on_c, 9, 42, 0
1, 133680, Note_on_c, 9, 42, 127
1, 133680, Note_on_c, 9, 36, 127
1, 133919, Note_on_c, 9, 42, 0
1, 133919, Note_on_c, 9, 36, 0
1, 133920, Note_on_c, 9, 38, 127
1, 133920, Note_on_c, 9, 42, 127
1, 134039, Note_on_c, 9, 38, 0
1, 134039, Note_on_c, 9, 42, 0
1, 134040, Note_on_c, 9, 42, 43
1, 134159, Note_on_c, 9, 42, 0
1, 134160, Note_on_c, 9, 42, 127
1, 134160, Note_on_c, 9, 36, 127
1, 134399, Note_on_c, 9, 42, 0
1, 134399, Note_on_c, 9, 36, 0
1, 134400, Note_on_c, 9, 38, 127
1, 134400, Note_on_c, 9, 42, 127
1, 134519, Note_on_c, 9, 38, 0
1, 134519, Note_on_c, 9, 42, 0
1, 134520, Note_on_c, 9, 42, 43
1, 134639, Note_on_c, 9, 42, 0
1, 134640, Note_on_c, 9, 42, 127
1, 134640, Note_on_c, 9, 36, 127
1, 134879, Note_on_c, 9, 42, 0
1, 134879, Note_on_c, 9, 36, 0
1, 134880, Note_on_c, 9, 38, 127
1, 134880, Note_on_c, 9, 42, 127
1, 134999, Note_on_c, 9, 38, 0
1, 134999, Note_on_c, 9, 42, 0
1, 135000, Note_on_c, 9, 42, 43
1, 135119, Note_on_c, 9, 42, 0
1, 135120, Note_on_c, 9, 42, 127
1, 135120, Note_on_c, 9, 36, 127
1, 135359, Note_on_c, 9, 42, 0
1, 135359, Note_on_c, 9, 36, 0
1, 135360, Note_on_c, 9, 38, 127
1, 135360, Note_on_c, 9, 42, 127
1, 135479, Note_on_c, 9, 38, 0
1, 135479, Note_on_c, 9, 42, 0
1, 135480, Note_on_c, 9, 42, 43
1, 135599, Note_on_c, 9, 42, 0
1, 135600, Note_on_c, 9, 42, 127
1, 135600, Note_on_c, 9, 36, 127
1, 135839, Note_on_c, 9, 42, 0
1, 135839, Note_on_c, 9, 36, 0
1, 135840, Note_on_c, 9, 38, 127
1, 135840, Note_on_c, 9, 42, 127
1, 135959, Note_on_c, 9, 38, 0
1, 135959, Note_on_c, 9, 42, 0
1, 135960, Note_on_c, 9, 42, 43
1, 136079, Note_on_c, 9, 42, 0
1, 136080, Note_on_c, 9, 42, 127
1, 136080, Note_on_c, 9, 36, 127
1, 136319, Note_on_c, 9, 42, 0
1, 136319, Note_on_c, 9, 36, 0
1, 136320, Note_on_c, 9, 38, 127
1, 136320, Note_on_c, 9, 42, 127
1, 136439, Note_on_c, 9, 38, 0
1, 136439, Note_on_c, 9, 42, 0
1, 136440, Note_on_c, 9, 42, 43
1, 136559, Note_on_c, 9, 42, 0
1, 136560, Note_on_c, 9, 42, 127
1, 136560, Note_on_c, 9, 36, 127
1, 136799, Note_on_c, 9, 42, 0
1, 136799, Note_on_c, 9, 36, 0
1, 136800, Note_on_c, 9, 38, 127
1, 136800, Note_on_c, 9, 42, 127
1, 136919, Note_on_c, 9, 38, 0
1, 136919, Note_on_c, 9, 42, 0
1, 136920, Note_on_c, 9, 42, 43
1, 137039, Note_on_c, 9, 42, 0
1, 137040, Note_on_c, 9, 42, 127
1, 137040, Note_on_c, 9, 36, 127
1, 137279, Note_on_c, 9, 42, 0
1, 137279, Note_on_c, 9, 36, 0
1, 137280, Note_on_c, 9, 38, 127
1, 137280, Note_on_c, 9, 42, 127
1, 137399, Note_on_c, 9, 38, 0
1, 137399, Note_on_c, 9, 42, 0
1, 137400, Note_on_c, 9, 42, 43
1, 137519, Note_on_c, 9, 42, 0
1, 137520, Note_on_c, 9, 42, 127
1, 137520, Note_on_c, 9, 36, 127
1, 137759, Note_on_c, 9, 42, 0
1, 137759, Note_on_c, 9, 36, 0
1, 137760, Note_on_c, 9, 38, 127
1, 137760, Note_on_c, 9, 42, 127
1, 137879, Note_on_c, 9, 38, 0
1, 137879, Note_on_c, 9, 42, 0
1, 137880, Note_on_c, 9, 42, 43
1, 137999, Note_on_c, 9, 42, 0
1, 138000, Note_on_c, 9, 42, 127
1, 138000, Note_on_c, 9, 36, 127
1, 138239, Note_on_c, 9, 42, 0
1, 138239, Note_on_c, 9, 36, 0
1, 138240, Note_on_c, 9, 38, 127
1, 138240, Note_on_c, 9, 42, 127
1, 138359, Note_on_c, 9, 38, 0
1, 138359, Note_on_c, 9, 42, 0
1, 138360, Note_on_c, 9, 42, 43
1, 138479, Note_on_c, 9, 42, 0
1, 138480, Note_on_c, 9, 42, 127
1, 138480, Note_on_c, 9, 36, 127
1, 138719, Note_on_c, 9, 42, 0
1, 138719, Note_on_c, 9, 36, 0
1, 138720, Note_on_c, 9, 38, 127
1, 138720, Note_on_c, 9, 42, 127
1, 138839, Note_on_c, 9, 38, 0
1, 138839, Note_on_c, 9, 42, 0
1, 138840, Note_on_c, 9, 42, 43
1, 138959, Note_on_c, 9, 42, 0
1, 138960, Note_on_c, 9, 42, 127
1, 138960, Note_on_c, 9, 36, 127
1, 139199, Note_on_c, 9, 42, 0
1, 139199, Note_on_c, 9, 36, 0
1, 139200, Note_on_c, 9, 38, 127
1, 139200, Note_on_c, 9, 42, 127
1, 139319, Note_on_c, 9, 38, 0
1, 139319, Note_on_c, 9, 42, 0
1, 139320, Note_on_c, 9, 42, 43
1, 139439, Note_on_c, 9, 42, 0
1, 139440, Note_on_c, 9, 42, 127
1, 139440, Note_on_c, 9, 36, 127
1, 139679, Note_on_c, 9, 42, 0
1, 139679, Note_on_c, 9, 36, 0
1, 139680, Note_on_c, 9, 38, 127
1, 139680, Note_on_c, 9, 42, 127
1, 139799, Note_on_c, 9, 38, 0
1, 139799, Note_on_c, 9, 42, 0
1, 139800, Note_on_c, 9, 42, 43
1, 139919, Note_on_c, 9, 42, 0
1, 139920, Note_on_c, 9, 42, 127
1, 139920, Note_on_c, 9, 36, 127
1, 140159, Note_on_c, 9, 42, 0
1, 140159, Note_on_c, 9, 36, 0
1, 140160, Note_on_c, 9, 38, 127
1, 140160, Note_on_c, 9, 42, 127
1, 140279, Note_on_c, 9, 38, 0
1, 140279, Note_on_c, 9, 42, 0
1, 140280, Note_on_c, 9, 42, 43
1, 140399, Note_on_c, 9, 42, 0
1, 140415, Note_on_c, 9, 46, 127
1, 140415, Note_on_c, 9, 36, 127
1, 140639, Note_on_c, 9, 46, 0
1, 140639, Note_on_c, 9, 36, 0
1, 140640, Note_on_c, 9, 38, 127
1, 140640, Note_on_c, 9, 42, 127
1, 140759, Note_on_c, 9, 38, 0
1, 140759, Note_on_c, 9, 42, 0
1, 140760, Note_on_c, 9, 42, 43
1, 140760, Note_on_c, 9, 36, 127
1, 140879, Note_on_c, 9, 42, 0
1, 140879, Note_on_c, 9, 36, 0
1, 140880, Note_on_c, 9, 46, 127
1, 140880, Note_on_c, 9, 36, 127
1, 141119, Note_on_c, 9, 46, 0
1, 141119, Note_on_c, 9, 36, 0
1, 141120, Note_on_c, 9, 38, 127
1, 141120, Note_on_c, 9, 42, 127
1, 141240, Note_on_c, 9, 36, 127
1, 141359, Note_on_c, 9, 38, 0
1, 141359, Note_on_c, 9, 42, 0
1, 141360, Note_on_c, 9, 46, 127
1, 141479, Note_on_c, 9, 36, 0
1, 141480, Note_on_c, 9, 36, 127
1, 141599, Note_on_c, 9, 46, 0
1, 141599, Note_on_c, 9, 36, 0
1, 141600, Note_on_c, 9, 38, 127
1, 141600, Note_on_c, 9, 42, 127
1, 141719, Note_on_c, 9, 38, 0
1, 141719, Note_on_c, 9, 42, 0
1, 141735, Note_on_c, 9, 46, 127
1, 141735, Note_on_c, 9, 36, 127
1, 141779, Note_on_c, 9, 46, 0
1, 141779, Note_on_c, 9, 36, 0
1, 141960, Note_on_c, 9, 36, 127
1, 142079, Note_on_c, 9, 36, 0
1, 142080, Note_on_c, 9, 38, 127
1, 142080, Note_on_c, 9, 42, 127
1, 142199, Note_on_c, 9, 38, 0
1, 142199, Note_on_c, 9, 42, 0
1, 142200, Note_on_c, 9, 42, 43
1, 142200, Note_on_c, 9, 36, 127
1, 142319, Note_on_c, 9, 42, 0
1, 142319, Note_on_c, 9, 36, 0
1, 142335, Note_on_c, 9, 46, 127
1, 142335, Note_on_c, 9, 36, 127
1, 142559, Note_on_c, 9, 46, 0
1, 142559, Note_on_c, 9, 36, 0
1, 142560, Note_on_c, 9, 38, 127
1, 142560, Note_on_c, 9, 42, 127
1, 142679, Note_on_c, 9, 38, 0
1, 142679, Note_on_c, 9, 42, 0
1, 142680, Note_on_c, 9, 42, 43
1, 142680, Note_on_c, 9, 36, 127
1, 142799, Note_on_c, 9, 42, 0
1, 142799, Note_on_c, 9, 36, 0
1, 142800, Note_on_c, 9, 46, 127
1, 142800, Note_on_c, 9, 36, 127
1, 143039, Note_on_c, 9, 46, 0
1, 143039, Note_on_c, 9, 36, 0
1, 143040, Note_on_c, 9, 38, 127
1, 143040, Note_on_c, 9, 42, 127
1, 143160, Note_on_c, 9, 36, 127
1, 143279, Note_on_c, 9, 38, 0
1, 143279, Note_on_c, 9, 42, 0
1, 143280, Note_on_c, 9, 46, 127
1, 143399, Note_on_c, 9, 36, 0
1, 143400, Note_on_c, 9, 36, 127
1, 143519, Note_on_c, 9, 46, 0
1, 143519, Note_on_c, 9, 36, 0
1, 143520, Note_on_c, 9, 38, 127
1, 143520, Note_on_c, 9, 42, 127
1, 143639, Note_on_c, 9, 38, 0
1, 143639, Note_on_c, 9, 42, 0
1, 143655, Note_on_c, 9, 46, 127
1, 143655, Note_on_c, 9, 36, 127
1, 143699, Note_on_c, 9, 46, 0
1, 143699, Note_on_c, 9, 36, 0
1, 143880, Note_on_c, 9, 36, 127
1, 143999, Note_on_c, 9, 36, 0
1, 144000, Note_on_c, 9, 38, 127
1, 144000, Note_on_c, 9, 42, 127
1, 144119, Note_on_c, 9, 38, 0
1, 144119, Note_on_c, 9, 42, 0
1, 144120, Note_on_c, 9, 42, 43
1, 144120, Note_on_c, 9, 36, 127
1, 144239, Note_on_c, 9, 42, 0
1, 144239, Note_on_c, 9, 36, 0
1, 144240, Note_on_c, 9, 42, 127
1, 144240, Note_on_c, 9, 36, 127
1, 144479, Note_on_c, 9, 42, 0
1, 144479, Note_on_c, 9, 36, 0
1, 144480, Note_on_c, 9, 38, 127
1, 144480, Note_on_c, 9, 42, 127
1, 144599, Note_on_c, 9, 38, 0
1, 144599, Note_on_c, 9, 42, 0
1, 144600, Note_on_c, 9, 42, 43
1, 144719, Note_on_c, 9, 42, 0
1, 144720, Note_on_c, 9, 42, 127
1, 144720, Note_on_c, 9, 36, 127
1, 144959, Note_on_c, 9, 42, 0
1, 144959, Note_on_c, 9, 36, 0
1, 144960, Note_on_c, 9, 38, 127
1, 144960, Note_on_c, 9, 42, 127
1, 145079, Note_on_c, 9, 38, 0
1, 145079, Note_on_c, 9, 42, 0
1, 145080, Note_on_c, 9, 42, 43
1, 145199, Note_on_c, 9, 42, 0
1, 145200, Note_on_c, 9, 42, 127
1, 145200, Note_on_c, 9, 36, 127
1, 145439, Note_on_c, 9, 42, 0
1, 145439, Note_on_c, 9, 36, 0
1, 145440, Note_on_c, 9, 38, 127
1, 145440, Note_on_c, 9, 42, 127
1, 145559, Note_on_c, 9, 38, 0
1, 145559, Note_on_c, 9, 42, 0
1, 145560, Note_on_c, 9, 42, 43
1, 145679, Note_on_c, 9, 42, 0
1, 145680, Note_on_c, 9, 42, 127
1, 145680, Note_on_c, 9, 36, 127
1, 145919, Note_on_c, 9, 42, 0
1, 145919, Note_on_c, 9, 36, 0
1, 145920, Note_on_c, 9, 38, 127
1, 145920, Note_on_c, 9, 42, 127
1, 146039, Note_on_c, 9, 38, 0
1, 146039, Note_on_c, 9, 42, 0
1, 146040, Note_on_c, 9, 42, 43
1, 146159, Note_on_c, 9, 42, 0
1, 146160, Note_on_c, 9, 42, 127
1, 146160, Note_on_c, 9, 36, 127
1, 146399, Note_on_c, 9, 42, 0
1, 146399, Note_on_c, 9, 36, 0
1, 146400, Note_on_c, 9, 38, 127
1, 146400, Note_on_c, 9, 42, 127
1, 146519, Note_on_c, 9, 38, 0
1, 146519, Note_on_c, 9, 42, 0
1, 146520, Note_on_c, 9, 42, 43
1, 146639, Note_on_c, 9, 42, 0
1, 146640, Note_on_c, 9, 42, 127
1, 146640, Note_on_c, 9, 36, 127
1, 146879, Note_on_c, 9, 42, 0
1, 146879, Note_on_c, 9, 36, 0
1, 146880, Note_on_c, 9, 38, 127
1, 146880, Note_on_c, 9, 42, 127
1, 146999, Note_on_c, 9, 38, 0
1, 146999, Note_on_c, 9, 42, 0
1, 147000, Note_on_c, 9, 42, 43
1, 147119, Note_on_c, 9, 42, 0
1, 147120, Note_on_c, 9, 42, 127
1, 147120, Note_on_c, 9, 36, 127
1, 147359, Note_on_c, 9, 42, 0
1, 147359, Note_on_c, 9, 36, 0
1, 147360, Note_on_c, 9, 38, 127
1, 147360, Note_on_c, 9, 42, 127
1, 147479, Note_on_c, 9, 38, 0
1, 147479, Note_on_c, 9, 42, 0
1, 147480, Note_on_c, 9, 42, 43
1, 147599, Note_on_c, 9, 42, 0
1, 147600, Note_on_c, 9, 42, 127
1, 147600, Note_on_c, 9, 36, 127
1, 147839, Note_on_c, 9, 42, 0
1, 147839, Note_on_c, 9, 36, 0
1, 147840, Note_on_c, 9, 38, 127
1, 147840, Note_on_c, 9, 42, 127
1, 147959, Note_on_c, 9, 38, 0
1, 147959, Note_on_c, 9, 42, 0
1, 147960, Note_on_c, 9, 42, 43
1, 148079, Note_on_c, 9, 42, 0
1, 148080, Note_on_c, 9, 42, 127
1, 148080, Note_on_c, 9, 36, 127
1, 148319, Note_on_c, 9, 42, 0
1, 148319, Note_on_c, 9, 36, 0
1, 148320, Note_on_c, 9, 38, 127
1, 148320, Note_on_c, 9, 42, 127
1, 148439, Note_on_c, 9, 38, 0
1, 148439, Note_on_c, 9, 42, 0
1, 148440, Note_on_c, 9, 42, 43
1, 148559, Note_on_c, 9, 42, 0
1, 148560, Note_on_c, 9, 42, 127
1, 148560, Note_on_c, 9, 36, 127
1, 148799, Note_on_c, 9, 42, 0
1, 148799, Note_on_c, 9, 36, 0
1, 148800, Note_on_c, 9, 38, 127
1, 148800, Note_on_c, 9, 42, 127
1, 148919, Note_on_c, 9, 38, 0
1, 148919, Note_on_c, 9, 42, 0
1, 148920, Note_on_c, 9, 42, 43
1, 149039, Note_on_c, 9, 42, 0
1, 149040, Note_on_c, 9, 42, 127
1, 149040, Note_on_c, 9, 36, 127
1, 149279, Note_on_c, 9, 42, 0
1, 149279, Note_on_c, 9, 36, 0
1, 149280, Note_on_c, 9, 38, 127
1, 149280, Note_on_c, 9, 42, 127
1, 149399, Note_on_c, 9, 38, 0
1, 149399, Note_on_c, 9, 42, 0
1, 149400, Note_on_c, 9, 42, 43
1, 149519, Note_on_c, 9, 42, 0
1, 149520, Note_on_c, 9, 42, 127
1, 149520, Note_on_c, 9, 36, 127
1, 149759, Note_on_c, 9, 42, 0
1, 149759, Note_on_c, 9, 36, 0
1, 149760, Note_on_c, 9, 38, 127
1, 149760, Note_on_c, 9, 42, 127
1, 149879, Note_on_c, 9, 38, 0
1, 149879, Note_on_c, 9, 42, 0
1, 149880, Note_on_c, 9, 42, 43
1, 149999, Note_on_c, 9, 42, 0
1, 150000, Note_on_c, 9, 42, 127
1, 150000, Note_on_c, 9, 36, 127
1, 150239, Note_on_c, 9, 42, 0
1, 150239, Note_on_c, 9, 36, 0
1, 150240, Note_on_c, 9, 38, 127
1, 150240, Note_on_c, 9, 42, 127
1, 150359, Note_on_c, 9, 38, 0
1, 150359, Note_on_c, 9, 42, 0
1, 150360, Note_on_c, 9, 42, 43
1, 150479, Note_on_c, 9, 42, 0
1, 150480, Note_on_c, 9, 42, 127
1, 150480, Note_on_c, 9, 36, 127
1, 150719, Note_on_c, 9, 42, 0
1, 150719, Note_on_c, 9, 36, 0
1, 150720, Note_on_c, 9, 38, 127
1, 150720, Note_on_c, 9, 46, 127
1, 150839, Note_on_c, 9, 38, 0
1, 150839, Note_on_c, 9, 46, 0
1, 150840, Note_on_c, 9, 42, 43
1, 150959, Note_on_c, 9, 42, 0
1, 150960, Note_on_c, 9, 38, 127
1, 150960, Note_on_c, 9, 46, 127
1, 151199, Note_on_c, 9, 38, 0
1, 151199, Note_on_c, 9, 46, 0
1, 151440, Note_on_c, 9, 42, 127
1, 151440, Note_on_c, 9, 36, 127
1, 151679, Note_on_c, 9, 42, 0
1, 151679, Note_on_c, 9, 36, 0
1, 151920, Note_on_c, 9, 38, 127
1, 151920, Note_on_c, 9, 46, 127
1, 152159, Note_on_c, 9, 38, 0
1, 152159, Note_on_c, 9, 46, 0
1, 152400, Note_on_c, 9, 42, 127
1, 152400, Note_on_c, 9, 36, 127
1, 152639, Note_on_c, 9, 42, 0
1, 152639, Note_on_c, 9, 36, 0
1, 152880, Note_on_c, 9, 42, 127
1, 152880, Note_on_c, 9, 36, 127
1, 153119, Note_on_c, 9, 42, 0
1, 153119, Note_on_c, 9, 36, 0
1, 153240, Note_on_c, 9, 38, 25
1, 153240, Note_on_c, 9, 36, 127
1, 153359, Note_on_c, 9, 38, 0
1, 153359, Note_on_c, 9, 36, 0
1, 153360, Note_on_c, 9, 38, 127
1, 153360, Note_on_c, 9, 46, 127
1, 153360, Note_on_c, 9, 36, 127
1, 153599, Note_on_c, 9, 38, 0
1, 153599, Note_on_c, 9, 46, 0
1, 153599, Note_on_c, 9, 36, 0
1, 153600, Note_on_c, 9, 38, 127
1, 153600, Note_on_c, 9, 42, 127
1, 153840, Note_on_c, 9, 36, 127
1, 154079, Note_on_c, 9, 38, 0
1, 154079, Note_on_c, 9, 42, 0
1, 154079, Note_on_c, 9, 36, 0
1, 154080, Note_on_c, 9, 38, 43
1, 154080, Note_on_c, 9, 36, 127
1, 154199, Note_on_c, 9, 38, 0
1, 154200, Note_on_c, 9, 38, 25
1, 154319, Note_on_c, 9, 38, 0
1, 154320, Note_on_c, 9, 38, 127
1, 154439, Note_on_c, 9, 38, 0
1, 154440, Note_on_c, 9, 38, 25
1, 154559, Note_on_c, 9, 36, 0
1, 154559, Note_on_c, 9, 38, 0
1, 154560, Note_on_c, 9, 38, 127
1, 154560, Note_on_c, 9, 36, 127
1, 154679, Note_on_c, 9, 38, 0
1, 154680, Note_on_c, 9, 38, 127
1, 154799, Note_on_c, 9, 36, 0
1, 154799, Note_on_c, 9, 38, 0
1, 154815, Note_on_c, 9, 51, 127
1, 154815, Note_on_c, 9, 42, 127
1, 154815, Note_on_c, 9, 49, 127
1, 154815, Note_on_c, 9, 36, 127
1, 155039, Note_on_c, 9, 51, 0
1, 155039, Note_on_c, 9, 42, 0
1, 155039, Note_on_c, 9, 49, 0
1, 155039, Note_on_c, 9, 36, 0
1, 155040, Note_on_c, 9, 38, 127
1, 155040, Note_on_c, 9, 42, 127
1, 155159, Note_on_c, 9, 38, 0
1, 155159, Note_on_c, 9, 42, 0
1, 155190, Note_on_c, 9, 42, 43
1, 155279, Note_on_c, 9, 42, 0
1, 155310, Note_on_c, 9, 51, 127
1, 155310, Note_on_c, 9, 42, 127
1, 155310, Note_on_c, 9, 36, 127
1, 155399, Note_on_c, 9, 51, 0
1, 155399, Note_on_c, 9, 42, 0
1, 155399, Note_on_c, 9, 36, 0
1, 155550, Note_on_c, 9, 38, 127
1, 155550, Note_on_c, 9, 42, 127
1, 155639, Note_on_c, 9, 38, 0
1, 155639, Note_on_c, 9, 42, 0
1, 155670, Note_on_c, 9, 42, 43
1, 155759, Note_on_c, 9, 42, 0
1, 155775, Note_on_c, 9, 51, 127
1, 155775, Note_on_c, 9, 42, 127
1, 155775, Note_on_c, 9, 36, 127
1, 155999, Note_on_c, 9, 51, 0
1, 155999, Note_on_c, 9, 42, 0
1, 155999, Note_on_c, 9, 36, 0
1, 156000, Note_on_c, 9, 38, 127
1, 156000, Note_on_c, 9, 42, 127
1, 156119, Note_on_c, 9, 38, 0
1, 156119, Note_on_c, 9, 42, 0
1, 156120, Note_on_c, 9, 42, 43
1, 156239, Note_on_c, 9, 42, 0
1, 156255, Note_on_c, 9, 51, 127
1, 156255, Note_on_c, 9, 42, 127
1, 156255, Note_on_c, 9, 36, 127
1, 156479, Note_on_c, 9, 51, 0
1, 156479, Note_on_c, 9, 42, 0
1, 156479, Note_on_c, 9, 36, 0
1, 156480, Note_on_c, 9, 38, 127
1, 156480, Note_on_c, 9, 42, 127
1, 156599, Note_on_c, 9, 38, 0
1, 156599, Note_on_c, 9, 42, 0
1, 156600, Note_on_c, 9, 42, 43
1, 156719, Note_on_c, 9, 42, 0
1, 156720, Note_on_c, 9, 51, 127
1, 156720, Note_on_c, 9, 42, 127
1, 156720, Note_on_c, 9, 36, 127
1, 156959, Note_on_c, 9, 51, 0
1, 156959, Note_on_c, 9, 42, 0
1, 156959, Note_on_c, 9, 36, 0
1, 156960, Note_on_c, 9, 38, 127
1, 156960, Note_on_c, 9, 42, 127
1, 157079, Note_on_c, 9, 38, 0
1, 157079, Note_on_c, 9, 42, 0
1, 157110, Note_on_c, 9, 42, 43
1, 157199, Note_on_c, 9, 42, 0
1, 157230, Note_on_c, 9, 51, 127
1, 157230, Note_on_c, 9, 42, 127
1, 157230, Note_on_c, 9, 36, 127
1, 157319, Note_on_c, 9, 51, 0
1, 157319, Note_on_c, 9, 42, 0
1, 157319, Note_on_c, 9, 36, 0
1, 157485, Note_on_c, 9, 38, 127
1, 157485, Note_on_c, 9, 42, 127
1, 157499, Note_on_c, 9, 38, 0
1, 157499, Note_on_c, 9, 42, 0
1, 157590, Note_on_c, 9, 42, 43
1, 157679, Note_on_c, 9, 42, 0
1, 157710, Note_on_c, 9, 51, 127
1, 157710, Note_on_c, 9, 42, 127
1, 157710, Note_on_c, 9, 36, 127
1, 157799, Note_on_c, 9, 51, 0
1, 157799, Note_on_c, 9, 42, 0
1, 157799, Note_on_c, 9, 36, 0
1, 157920, Note_on_c, 9, 38, 127
1, 157920, Note_on_c, 9, 42, 127
1, 158039, Note_on_c, 9, 38, 0
1, 158039, Note_on_c, 9, 42, 0
1, 158040, Note_on_c, 9, 42, 43
1, 158159, Note_on_c, 9, 42, 0
1, 158160, Note_on_c, 9, 51, 127
1, 158160, Note_on_c, 9, 42, 127
1, 158160, Note_on_c, 9, 36, 127
1, 158399, Note_on_c, 9, 51, 0
1, 158399, Note_on_c, 9, 42, 0
1, 158399, Note_on_c, 9, 36, 0
1, 158400, Note_on_c, 9, 38, 127
1, 158400, Note_on_c, 9, 42, 127
1, 158519, Note_on_c, 9, 38, 0
1, 158519, Note_on_c, 9, 42, 0
1, 158520, Note_on_c, 9, 42, 43
1, 158639, Note_on_c, 9, 42, 0
1, 158640, Note_on_c, 9, 51, 127
1, 158640, Note_on_c, 9, 42, 127
1, 158640, Note_on_c, 9, 36, 127
1, 158879, Note_on_c, 9, 51, 0
1, 158879, Note_on_c, 9, 42, 0
1, 158879, Note_on_c, 9, 36, 0
1, 158880, Note_on_c, 9, 38, 127
1, 158880, Note_on_c, 9, 42, 127
1, 158999, Note_on_c, 9, 38, 0
1, 158999, Note_on_c, 9, 42, 0
1, 159030, Note_on_c, 9, 42, 43
1, 159119, Note_on_c, 9, 42, 0
1, 159150, Note_on_c, 9, 51, 127
1, 159150, Note_on_c, 9, 42, 127
1, 159150, Note_on_c, 9, 36, 127
1, 159239, Note_on_c, 9, 51, 0
1, 159239, Note_on_c, 9, 42, 0
1, 159239, Note_on_c, 9, 36, 0
1, 159405, Note_on_c, 9, 38, 127
1, 159405, Note_on_c, 9, 42, 127
1, 159524, Note_on_c, 9, 38, 0
1, 159524, Note_on_c, 9, 42, 0
1, 159525, Note_on_c, 9, 42, 43
1, 159644, Note_on_c, 9, 42, 0
1, 159645, Note_on_c, 9, 51, 127
1, 159645, Note_on_c, 9, 42, 127
1, 159645, Note_on_c, 9, 36, 127
1, 159839, Note_on_c, 9, 51, 0
1, 159839, Note_on_c, 9, 42, 0
1, 159839, Note_on_c, 9, 36, 0
1, 159885, Note_on_c, 9, 38, 127
1, 159885, Note_on_c, 9, 42, 127
1, 159899, Note_on_c, 9, 38, 0
1, 159899, Note_on_c, 9, 42, 0
1, 159990, Note_on_c, 9, 42, 43
1, 160079, Note_on_c, 9, 42, 0
1, 160110, Note_on_c, 9, 51, 127
1, 160110, Note_on_c, 9, 42, 127
1, 160110, Note_on_c, 9, 36, 127
1, 160199, Note_on_c, 9, 51, 0
1, 160199, Note_on_c, 9, 42, 0
1, 160199, Note_on_c, 9, 36, 0
1, 160350, Note_on_c, 9, 38, 127
1, 160350, Note_on_c, 9, 42, 127
1, 160484, Note_on_c, 9, 38, 0
1, 160484, Note_on_c, 9, 42, 0
1, 160485, Note_on_c, 9, 42, 43
1, 160499, Note_on_c, 9, 42, 0
1, 160620, Note_on_c, 9, 38, 43
1, 160620, Note_on_c, 9, 42, 127
1, 160620, Note_on_c, 9, 36, 127
1, 160799, Note_on_c, 9, 38, 0
1, 160799, Note_on_c, 9, 42, 0
1, 160799, Note_on_c, 9, 36, 0
1, 160890, Note_on_c, 9, 38, 127
1, 160890, Note_on_c, 9, 42, 127
1, 161009, Note_on_c, 9, 38, 0
1, 161009, Note_on_c, 9, 42, 0
1, 161010, Note_on_c, 9, 38, 25
1, 161010, Note_on_c, 9, 42, 43
1, 161129, Note_on_c, 9, 38, 0
1, 161129, Note_on_c, 9, 42, 0
1, 161130, Note_on_c, 9, 38, 127
1, 161130, Note_on_c, 9, 46, 127
1, 161130, Note_on_c, 9, 36, 127
1, 161159, Note_on_c, 9, 38, 0
1, 161159, Note_on_c, 9, 46, 0
1, 161159, Note_on_c, 9, 36, 0
1, 161385, Note_on_c, 9, 41, 127
1, 161385, Note_on_c, 9, 38, 43
1, 161385, Note_on_c, 9, 42, 127
1, 161399, Note_on_c, 9, 41, 0
1, 161399, Note_on_c, 9, 38, 0
1, 161399, Note_on_c, 9, 42, 0
1, 161520, Note_on_c, 9, 38, 25
1, 161520, Note_on_c, 9, 42, 43
1, 161639, Note_on_c, 9, 38, 0
1, 161639, Note_on_c, 9, 42, 0
1, 161640, Note_on_c, 9, 38, 127
1, 161640, Note_on_c, 9, 45, 127
1, 161640, Note_on_c, 9, 46, 127
1, 161640, Note_on_c, 9, 36, 127
1, 161759, Note_on_c, 9, 38, 0
1, 161759, Note_on_c, 9, 45, 0
1, 161759, Note_on_c, 9, 46, 0
1, 161759, Note_on_c, 9, 36, 0
1, 161760, Note_on_c, 9, 38, 127
1, 161760, Note_on_c, 9, 42, 127
1, 161879, Note_on_c, 9, 38, 0
1, 161879, Note_on_c, 9, 42, 0
1, 161880, Note_on_c, 9, 38, 127
1, 161880, Note_on_c, 9, 46, 127
1, 161999, Note_on_c, 9, 38, 0
1, 161999, Note_on_c, 9, 46, 0
1, 162015, Note_on_c, 9, 38, 127
1, 162015, Note_on_c, 9, 46, 127
1, 162015, Note_on_c, 9, 49, 127
1, 162015, Note_on_c, 9, 36, 127
1, 162239, Note_on_c, 9, 38, 0
1, 162239, Note_on_c, 9, 46, 0
1, 162239, Note_on_c, 9, 49, 0
1, 162239, Note_on_c, 9, 36, 0
1, 162240, End_track
0, 0, End_of_file
