0, 0, Header, 1, 1, 480
1, 0, Start_track
1, 0, Time_signature, 4, 2, 24, 8
1, 0, Key_signature, 0, "major"
1, 0, Tempo, 495868
1, 0, Control_c, 9, 121, 0
1, 0, Program_c, 9, 0
1, 0, Control_c, 9, 7, 127
1, 0, Control_c, 9, 10, 64
1, 0, Control_c, 9, 91, 0
1, 0, Control_c, 9, 93, 0
1, 0, MIDI_port, 0
1, 0, Note_on_c, 9, 42, 90
1, 479, Note_on_c, 9, 42, 0
1, 480, Note_on_c, 9, 42, 100
1, 959, Note_on_c, 9, 42, 0
1, 960, Note_on_c, 9, 42, 94
1, 1439, Note_on_c, 9, 42, 0
1, 1440, Note_on_c, 9, 42, 92
1, 1919, Note_on_c, 9, 42, 0
1, 1920, Note_on_c, 9, 42, 82
1, 2399, Note_on_c, 9, 42, 0
1, 2400, Note_on_c, 9, 42, 110
1, 2879, Note_on_c, 9, 42, 0
1, 2880, Note_on_c, 9, 42, 108
1, 3359, Note_on_c, 9, 42, 0
1, 3360, Note_on_c, 9, 42, 118
1, 3839, Note_on_c, 9, 42, 0
1, 3840, Note_on_c, 9, 35, 125
1, 4319, Note_on_c, 9, 35, 0
1, 4320, Note_on_c, 9, 69, 106
1, 4799, Note_on_c, 9, 69, 0
1, 4800, Note_on_c, 9, 69, 88
1, 5279, Note_on_c, 9, 69, 0
1, 5280, Note_on_c, 9, 69, 84
1, 5759, Note_on_c, 9, 69, 0
1, 5760, Note_on_c, 9, 69, 74
1, 5760, Note_on_c, 9, 35, 125
1, 5939, Note_on_c, 9, 69, 0
1, 5940, Note_on_c, 9, 28, 60
1, 5940, Note_on_c, 9, 34, 125
1, 5999, Note_on_c, 9, 35, 0
1, 5999, Note_on_c, 9, 28, 0
1, 5999, Note_on_c, 9, 34, 0
1, 6000, Note_on_c, 9, 35, 125
1, 6239, Note_on_c, 9, 35, 0
1, 6240, Note_on_c, 9, 69, 78
1, 6719, Note_on_c, 9, 69, 0
1, 6720, Note_on_c, 9, 69, 82
1, 7199, Note_on_c, 9, 69, 0
1, 7200, Note_on_c, 9, 69, 72
1, 7679, Note_on_c, 9, 69, 0
1, 7680, Note_on_c, 9, 69, 74
1, 7680, Note_on_c, 9, 35, 125
1, 8159, Note_on_c, 9, 69, 0
1, 8159, Note_on_c, 9, 35, 0
1, 8160, Note_on_c, 9, 69, 74
1, 8639, Note_on_c, 9, 69, 0
1, 8640, Note_on_c, 9, 69, 74
1, 9119, Note_on_c, 9, 69, 0
1, 9120, Note_on_c, 9, 69, 72
1, 9599, Note_on_c, 9, 69, 0
1, 9600, Note_on_c, 9, 69, 78
1, 9600, Note_on_c, 9, 35, 126
1, 9839, Note_on_c, 9, 69, 0
1, 9839, Note_on_c, 9, 35, 0
1, 9840, Note_on_c, 9, 28, 64
1, 9840, Note_on_c, 9, 35, 125
1, 9855, Note_on_c, 9, 39, 40
1, 10079, Note_on_c, 9, 28, 0
1, 10079, Note_on_c, 9, 35, 0
1, 10079, Note_on_c, 9, 39, 0
1, 10080, Note_on_c, 9, 69, 68
1, 10559, Note_on_c, 9, 69, 0
1, 10560, Note_on_c, 9, 69, 76
1, 11039, Note_on_c, 9, 69, 0
1, 11040, Note_on_c, 9, 69, 72
1, 11519, Note_on_c, 9, 69, 0
1, 11520, Note_on_c, 9, 69, 72
1, 11520, Note_on_c, 9, 35, 126
1, 11999, Note_on_c, 9, 69, 0
1, 11999, Note_on_c, 9, 35, 0
1, 12000, Note_on_c, 9, 69, 78
1, 12479, Note_on_c, 9, 69, 0
1, 12480, Note_on_c, 9, 69, 82
1, 12959, Note_on_c, 9, 69, 0
1, 12960, Note_on_c, 9, 69, 72
1, 13439, Note_on_c, 9, 69, 0
1, 13440, Note_on_c, 9, 69, 76
1, 13440, Note_on_c, 9, 35, 125
1, 13679, Note_on_c, 9, 69, 0
1, 13679, Note_on_c, 9, 35, 0
1, 13680, Note_on_c, 9, 41, 64
1, 13680, Note_on_c, 9, 28, 60
1, 13680, Note_on_c, 9, 35, 125
1, 13919, Note_on_c, 9, 41, 0
1, 13919, Note_on_c, 9, 28, 0
1, 13919, Note_on_c, 9, 35, 0
1, 13920, Note_on_c, 9, 69, 78
1, 14399, Note_on_c, 9, 69, 0
1, 14400, Note_on_c, 9, 69, 78
1, 14879, Note_on_c, 9, 69, 0
1, 14880, Note_on_c, 9, 69, 70
1, 15359, Note_on_c, 9, 69, 0
1, 15360, Note_on_c, 9, 69, 78
1, 15360, Note_on_c, 9, 35, 125
1, 15839, Note_on_c, 9, 69, 0
1, 15839, Note_on_c, 9, 35, 0
1, 15840, Note_on_c, 9, 69, 74
1, 16319, Note_on_c, 9, 69, 0
1, 16320, Note_on_c, 9, 69, 80
1, 16799, Note_on_c, 9, 69, 0
1, 16830, Note_on_c, 9, 69, 70
1, 16889, Note_on_c, 9, 69, 0
1, 17280, Note_on_c, 9, 69, 72
1, 17280, Note_on_c, 9, 35, 125
1, 17459, Note_on_c, 9, 69, 0
1, 17490, Note_on_c, 9, 40, 74
1, 17490, Note_on_c, 9, 28, 60
1, 17519, Note_on_c, 9, 35, 0
1, 17520, Note_on_c, 9, 35, 125
1, 17609, Note_on_c, 9, 40, 0
1, 17609, Note_on_c, 9, 28, 0
1, 17759, Note_on_c, 9, 35, 0
1, 17760, Note_on_c, 9, 69, 74
1, 17839, Note_on_c, 9, 69, 0
1, 17840, Note_on_c, 9, 29, 24
1, 17999, Note_on_c, 9, 29, 0
1, 18240, Note_on_c, 9, 69, 80
1, 18520, Note_on_c, 9, 43, 125
1, 18639, Note_on_c, 9, 43, 0
1, 18640, Note_on_c, 9, 43, 125
1, 18719, Note_on_c, 9, 69, 0
1, 18719, Note_on_c, 9, 43, 0
1, 18720, Note_on_c, 9, 48, 126
1, 18720, Note_on_c, 9, 69, 76
1, 18960, Note_on_c, 9, 43, 125
1, 19079, Note_on_c, 9, 48, 0
1, 19079, Note_on_c, 9, 69, 0
1, 19080, Note_on_c, 9, 69, 70
1, 19199, Note_on_c, 9, 43, 0
1, 19199, Note_on_c, 9, 69, 0
1, 19200, Note_on_c, 9, 43, 125
1, 19239, Note_on_c, 9, 43, 0
1, 19240, Note_on_c, 9, 35, 125
1, 19319, Note_on_c, 9, 35, 0
1, 19680, Note_on_c, 9, 69, 106
1, 20159, Note_on_c, 9, 69, 0
1, 20160, Note_on_c, 9, 69, 88
1, 20639, Note_on_c, 9, 69, 0
1, 20640, Note_on_c, 9, 69, 84
1, 21119, Note_on_c, 9, 69, 0
1, 21120, Note_on_c, 9, 69, 74
1, 21120, Note_on_c, 9, 35, 125
1, 21239, Note_on_c, 9, 69, 0
1, 21285, Note_on_c, 9, 28, 60
1, 21285, Note_on_c, 9, 34, 125
1, 21344, Note_on_c, 9, 28, 0
1, 21359, Note_on_c, 9, 35, 0
1, 21359, Note_on_c, 9, 34, 0
1, 21360, Note_on_c, 9, 35, 125
1, 21599, Note_on_c, 9, 35, 0
1, 21600, Note_on_c, 9, 69, 78
1, 22079, Note_on_c, 9, 69, 0
1, 22080, Note_on_c, 9, 69, 82
1, 22559, Note_on_c, 9, 69, 0
1, 22560, Note_on_c, 9, 69, 72
1, 23039, Note_on_c, 9, 69, 0
1, 23040, Note_on_c, 9, 69, 74
1, 23040, Note_on_c, 9, 35, 125
1, 23519, Note_on_c, 9, 69, 0
1, 23519, Note_on_c, 9, 35, 0
1, 23520, Note_on_c, 9, 69, 74
1, 23999, Note_on_c, 9, 69, 0
1, 24000, Note_on_c, 9, 69, 74
1, 24479, Note_on_c, 9, 69, 0
1, 24480, Note_on_c, 9, 69, 72
1, 24959, Note_on_c, 9, 69, 0
1, 24960, Note_on_c, 9, 69, 78
1, 24960, Note_on_c, 9, 35, 126
1, 25199, Note_on_c, 9, 69, 0
1, 25199, Note_on_c, 9, 35, 0
1, 25200, Note_on_c, 9, 28, 64
1, 25200, Note_on_c, 9, 35, 125
1, 25215, Note_on_c, 9, 39, 40
1, 25439, Note_on_c, 9, 28, 0
1, 25439, Note_on_c, 9, 35, 0
1, 25439, Note_on_c, 9, 39, 0
1, 25440, Note_on_c, 9, 69, 68
1, 25919, Note_on_c, 9, 69, 0
1, 25920, Note_on_c, 9, 69, 76
1, 26399, Note_on_c, 9, 69, 0
1, 26400, Note_on_c, 9, 69, 72
1, 26879, Note_on_c, 9, 69, 0
1, 26880, Note_on_c, 9, 69, 72
1, 26880, Note_on_c, 9, 35, 126
1, 27359, Note_on_c, 9, 69, 0
1, 27359, Note_on_c, 9, 35, 0
1, 27360, Note_on_c, 9, 69, 78
1, 27839, Note_on_c, 9, 69, 0
1, 27840, Note_on_c, 9, 69, 82
1, 28319, Note_on_c, 9, 69, 0
1, 28320, Note_on_c, 9, 69, 72
1, 28799, Note_on_c, 9, 69, 0
1, 28800, Note_on_c, 9, 69, 76
1, 28800, Note_on_c, 9, 35, 125
1, 28959, Note_on_c, 9, 35, 0
1, 28960, Note_on_c, 9, 35, 125
1, 28979, Note_on_c, 9, 69, 0
1, 28980, Note_on_c, 9, 41, 64
1, 28980, Note_on_c, 9, 28, 60
1, 29039, Note_on_c, 9, 41, 0
1, 29039, Note_on_c, 9, 28, 0
1, 29279, Note_on_c, 9, 35, 0
1, 29280, Note_on_c, 9, 69, 78
1, 29759, Note_on_c, 9, 69, 0
1, 29760, Note_on_c, 9, 69, 78
1, 30239, Note_on_c, 9, 69, 0
1, 30240, Note_on_c, 9, 69, 70
1, 30719, Note_on_c, 9, 69, 0
1, 30720, Note_on_c, 9, 69, 78
1, 30720, Note_on_c, 9, 35, 125
1, 31199, Note_on_c, 9, 69, 0
1, 31199, Note_on_c, 9, 35, 0
1, 31200, Note_on_c, 9, 69, 74
1, 31679, Note_on_c, 9, 69, 0
1, 31680, Note_on_c, 9, 69, 80
1, 32159, Note_on_c, 9, 69, 0
1, 32160, Note_on_c, 9, 69, 70
1, 32639, Note_on_c, 9, 69, 0
1, 32640, Note_on_c, 9, 69, 72
1, 32640, Note_on_c, 9, 35, 125
1, 32819, Note_on_c, 9, 69, 0
1, 32850, Note_on_c, 9, 40, 74
1, 32850, Note_on_c, 9, 28, 60
1, 32879, Note_on_c, 9, 35, 0
1, 32880, Note_on_c, 9, 35, 125
1, 32969, Note_on_c, 9, 40, 0
1, 32969, Note_on_c, 9, 28, 0
1, 33119, Note_on_c, 9, 35, 0
1, 33120, Note_on_c, 9, 69, 74
1, 33179, Note_on_c, 9, 69, 0
1, 33180, Note_on_c, 9, 29, 24
1, 33359, Note_on_c, 9, 29, 0
1, 33600, Note_on_c, 9, 69, 80
1, 33880, Note_on_c, 9, 43, 125
1, 33999, Note_on_c, 9, 43, 0
1, 34000, Note_on_c, 9, 43, 125
1, 34079, Note_on_c, 9, 69, 0
1, 34079, Note_on_c, 9, 43, 0
1, 34080, Note_on_c, 9, 48, 126
1, 34080, Note_on_c, 9, 69, 76
1, 34320, Note_on_c, 9, 43, 125
1, 34439, Note_on_c, 9, 48, 0
1, 34439, Note_on_c, 9, 69, 0
1, 34440, Note_on_c, 9, 69, 70
1, 34559, Note_on_c, 9, 43, 0
1, 34559, Note_on_c, 9, 69, 0
1, 34560, Note_on_c, 9, 43, 125
1, 34599, Note_on_c, 9, 43, 0
1, 34600, Note_on_c, 9, 35, 125
1, 34619, Note_on_c, 9, 35, 0
1, 35040, Note_on_c, 9, 69, 106
1, 35519, Note_on_c, 9, 69, 0
1, 35520, Note_on_c, 9, 69, 88
1, 35999, Note_on_c, 9, 69, 0
1, 36000, Note_on_c, 9, 69, 84
1, 36479, Note_on_c, 9, 69, 0
1, 36480, Note_on_c, 9, 69, 74
1, 36480, Note_on_c, 9, 35, 125
1, 36599, Note_on_c, 9, 69, 0
1, 36645, Note_on_c, 9, 28, 60
1, 36645, Note_on_c, 9, 34, 125
1, 36704, Note_on_c, 9, 28, 0
1, 36719, Note_on_c, 9, 35, 0
1, 36719, Note_on_c, 9, 34, 0
1, 36720, Note_on_c, 9, 35, 125
1, 36959, Note_on_c, 9, 35, 0
1, 36960, Note_on_c, 9, 69, 78
1, 37439, Note_on_c, 9, 69, 0
1, 37440, Note_on_c, 9, 69, 82
1, 37919, Note_on_c, 9, 69, 0
1, 37920, Note_on_c, 9, 69, 72
1, 38399, Note_on_c, 9, 69, 0
1, 38400, Note_on_c, 9, 69, 74
1, 38400, Note_on_c, 9, 35, 125
1, 38879, Note_on_c, 9, 69, 0
1, 38879, Note_on_c, 9, 35, 0
1, 38880, Note_on_c, 9, 69, 74
1, 39359, Note_on_c, 9, 69, 0
1, 39360, Note_on_c, 9, 69, 74
1, 39839, Note_on_c, 9, 69, 0
1, 39840, Note_on_c, 9, 69, 72
1, 40319, Note_on_c, 9, 69, 0
1, 40320, Note_on_c, 9, 69, 78
1, 40320, Note_on_c, 9, 35, 126
1, 40499, Note_on_c, 9, 69, 0
1, 40530, Note_on_c, 9, 28, 64
1, 40530, Note_on_c, 9, 39, 40
1, 40559, Note_on_c, 9, 35, 0
1, 40560, Note_on_c, 9, 35, 125
1, 40649, Note_on_c, 9, 28, 0
1, 40799, Note_on_c, 9, 39, 0
1, 40799, Note_on_c, 9, 35, 0
1, 40800, Note_on_c, 9, 69, 68
1, 41279, Note_on_c, 9, 69, 0
1, 41280, Note_on_c, 9, 69, 76
1, 41759, Note_on_c, 9, 69, 0
1, 41760, Note_on_c, 9, 69, 72
1, 42239, Note_on_c, 9, 69, 0
1, 42240, Note_on_c, 9, 69, 72
1, 42240, Note_on_c, 9, 35, 126
1, 42719, Note_on_c, 9, 69, 0
1, 42719, Note_on_c, 9, 35, 0
1, 42720, Note_on_c, 9, 69, 78
1, 43199, Note_on_c, 9, 69, 0
1, 43200, Note_on_c, 9, 69, 82
1, 43679, Note_on_c, 9, 69, 0
1, 43680, Note_on_c, 9, 69, 72
1, 44159, Note_on_c, 9, 69, 0
1, 44160, Note_on_c, 9, 69, 76
1, 44160, Note_on_c, 9, 35, 125
1, 44399, Note_on_c, 9, 69, 0
1, 44399, Note_on_c, 9, 35, 0
1, 44400, Note_on_c, 9, 41, 64
1, 44400, Note_on_c, 9, 28, 60
1, 44400, Note_on_c, 9, 35, 125
1, 44639, Note_on_c, 9, 41, 0
1, 44639, Note_on_c, 9, 28, 0
1, 44639, Note_on_c, 9, 35, 0
1, 44640, Note_on_c, 9, 69, 78
1, 45119, Note_on_c, 9, 69, 0
1, 45120, Note_on_c, 9, 69, 78
1, 45599, Note_on_c, 9, 69, 0
1, 45600, Note_on_c, 9, 69, 70
1, 46079, Note_on_c, 9, 69, 0
1, 46080, Note_on_c, 9, 69, 78
1, 46080, Note_on_c, 9, 35, 125
1, 46559, Note_on_c, 9, 69, 0
1, 46559, Note_on_c, 9, 35, 0
1, 46560, Note_on_c, 9, 69, 74
1, 47039, Note_on_c, 9, 69, 0
1, 47040, Note_on_c, 9, 69, 80
1, 47519, Note_on_c, 9, 69, 0
1, 47550, Note_on_c, 9, 69, 70
1, 47609, Note_on_c, 9, 69, 0
1, 48000, Note_on_c, 9, 69, 72
1, 48000, Note_on_c, 9, 35, 125
1, 48159, Note_on_c, 9, 69, 0
1, 48160, Note_on_c, 9, 28, 60
1, 48239, Note_on_c, 9, 35, 0
1, 48240, Note_on_c, 9, 35, 125
1, 48319, Note_on_c, 9, 28, 0
1, 48320, Note_on_c, 9, 40, 74
1, 48479, Note_on_c, 9, 35, 0
1, 48479, Note_on_c, 9, 40, 0
1, 48480, Note_on_c, 9, 69, 74
1, 48539, Note_on_c, 9, 69, 0
1, 48540, Note_on_c, 9, 29, 24
1, 48719, Note_on_c, 9, 29, 0
1, 48960, Note_on_c, 9, 69, 80
1, 49230, Note_on_c, 9, 43, 125
1, 49319, Note_on_c, 9, 43, 0
1, 49320, Note_on_c, 9, 43, 125
1, 49439, Note_on_c, 9, 69, 0
1, 49439, Note_on_c, 9, 43, 0
1, 49440, Note_on_c, 9, 48, 126
1, 49440, Note_on_c, 9, 69, 76
1, 49680, Note_on_c, 9, 43, 125
1, 49799, Note_on_c, 9, 48, 0
1, 49799, Note_on_c, 9, 69, 0
1, 49800, Note_on_c, 9, 69, 70
1, 49919, Note_on_c, 9, 43, 0
1, 49919, Note_on_c, 9, 69, 0
1, 49920, Note_on_c, 9, 53, 60
1, 49920, Note_on_c, 9, 43, 125
1, 49939, Note_on_c, 9, 43, 0
1, 49940, Note_on_c, 9, 35, 115
1, 49979, Note_on_c, 9, 35, 0
1, 50399, Note_on_c, 9, 53, 0
1, 50400, Note_on_c, 9, 40, 72
1, 50400, Note_on_c, 9, 53, 68
1, 50879, Note_on_c, 9, 40, 0
1, 50879, Note_on_c, 9, 53, 0
1, 50880, Note_on_c, 9, 53, 60
1, 50880, Note_on_c, 9, 35, 90
1, 51119, Note_on_c, 9, 35, 0
1, 51120, Note_on_c, 9, 35, 86
1, 51359, Note_on_c, 9, 53, 0
1, 51359, Note_on_c, 9, 35, 0
1, 51360, Note_on_c, 9, 40, 74
1, 51360, Note_on_c, 9, 53, 60
1, 51599, Note_on_c, 9, 40, 0
1, 51599, Note_on_c, 9, 53, 0
1, 51660, Note_on_c, 9, 39, 40
1, 51660, Note_on_c, 9, 35, 92
1, 51839, Note_on_c, 9, 39, 0
1, 51839, Note_on_c, 9, 35, 0
1, 51840, Note_on_c, 9, 53, 68
1, 52080, Note_on_c, 9, 35, 74
1, 52319, Note_on_c, 9, 53, 0
1, 52319, Note_on_c, 9, 35, 0
1, 52320, Note_on_c, 9, 40, 76
1, 52320, Note_on_c, 9, 53, 56
1, 52799, Note_on_c, 9, 40, 0
1, 52799, Note_on_c, 9, 53, 0
1, 52800, Note_on_c, 9, 53, 56
1, 52880, Note_on_c, 9, 35, 86
1, 53119, Note_on_c, 9, 35, 0
1, 53120, Note_on_c, 9, 35, 84
1, 53279, Note_on_c, 9, 53, 0
1, 53279, Note_on_c, 9, 35, 0
1, 53280, Note_on_c, 9, 40, 74
1, 53280, Note_on_c, 9, 53, 60
1, 53759, Note_on_c, 9, 40, 0
1, 53759, Note_on_c, 9, 53, 0
1, 53760, Note_on_c, 9, 53, 60
1, 53760, Note_on_c, 9, 35, 94
1, 54239, Note_on_c, 9, 53, 0
1, 54239, Note_on_c, 9, 35, 0
1, 54240, Note_on_c, 9, 40, 90
1, 54240, Note_on_c, 9, 53, 64
1, 54719, Note_on_c, 9, 40, 0
1, 54719, Note_on_c, 9, 53, 0
1, 54720, Note_on_c, 9, 53, 52
1, 54720, Note_on_c, 9, 35, 92
1, 54959, Note_on_c, 9, 35, 0
1, 54960, Note_on_c, 9, 35, 92
1, 55199, Note_on_c, 9, 53, 0
1, 55199, Note_on_c, 9, 35, 0
1, 55200, Note_on_c, 9, 40, 100
1, 55200, Note_on_c, 9, 53, 64
1, 55440, Note_on_c, 9, 35, 98
1, 55679, Note_on_c, 9, 40, 0
1, 55679, Note_on_c, 9, 53, 0
1, 55679, Note_on_c, 9, 35, 0
1, 55680, Note_on_c, 9, 53, 56
1, 55920, Note_on_c, 9, 35, 84
1, 56159, Note_on_c, 9, 53, 0
1, 56159, Note_on_c, 9, 35, 0
1, 56160, Note_on_c, 9, 40, 72
1, 56160, Note_on_c, 9, 53, 64
1, 56639, Note_on_c, 9, 40, 0
1, 56639, Note_on_c, 9, 53, 0
1, 56640, Note_on_c, 9, 53, 60
1, 56720, Note_on_c, 9, 35, 86
1, 56959, Note_on_c, 9, 35, 0
1, 56960, Note_on_c, 9, 35, 76
1, 57119, Note_on_c, 9, 53, 0
1, 57119, Note_on_c, 9, 35, 0
1, 57120, Note_on_c, 9, 40, 72
1, 57120, Note_on_c, 9, 53, 56
1, 57599, Note_on_c, 9, 40, 0
1, 57599, Note_on_c, 9, 53, 0
1, 57600, Note_on_c, 9, 53, 64
1, 57600, Note_on_c, 9, 35, 84
1, 58079, Note_on_c, 9, 53, 0
1, 58079, Note_on_c, 9, 35, 0
1, 58080, Note_on_c, 9, 40, 82
1, 58139, Note_on_c, 9, 40, 0
1, 58140, Note_on_c, 9, 53, 68
1, 58319, Note_on_c, 9, 53, 0
1, 58560, Note_on_c, 9, 53, 60
1, 58560, Note_on_c, 9, 35, 84
1, 58799, Note_on_c, 9, 35, 0
1, 58800, Note_on_c, 9, 35, 78
1, 59039, Note_on_c, 9, 53, 0
1, 59039, Note_on_c, 9, 35, 0
1, 59040, Note_on_c, 9, 40, 74
1, 59040, Note_on_c, 9, 53, 56
1, 59099, Note_on_c, 9, 40, 0
1, 59099, Note_on_c, 9, 53, 0
1, 59130, Note_on_c, 9, 39, 40
1, 59160, Note_on_c, 9, 41, 40
1, 59279, Note_on_c, 9, 41, 0
1, 59280, Note_on_c, 9, 35, 86
1, 59369, Note_on_c, 9, 39, 0
1, 59370, Note_on_c, 9, 39, 40
1, 59399, Note_on_c, 9, 39, 0
1, 59519, Note_on_c, 9, 35, 0
1, 59520, Note_on_c, 9, 53, 60
1, 59760, Note_on_c, 9, 35, 82
1, 59999, Note_on_c, 9, 53, 0
1, 59999, Note_on_c, 9, 35, 0
1, 60000, Note_on_c, 9, 40, 72
1, 60000, Note_on_c, 9, 53, 48
1, 60479, Note_on_c, 9, 40, 0
1, 60479, Note_on_c, 9, 53, 0
1, 60480, Note_on_c, 9, 53, 56
1, 60480, Note_on_c, 9, 35, 84
1, 60799, Note_on_c, 9, 35, 0
1, 60800, Note_on_c, 9, 35, 78
1, 60959, Note_on_c, 9, 53, 0
1, 60959, Note_on_c, 9, 35, 0
1, 60960, Note_on_c, 9, 40, 72
1, 60960, Note_on_c, 9, 53, 56
1, 61199, Note_on_c, 9, 40, 0
1, 61199, Note_on_c, 9, 53, 0
1, 61200, Note_on_c, 9, 40, 52
1, 61439, Note_on_c, 9, 40, 0
1, 61440, Note_on_c, 9, 53, 56
1, 61440, Note_on_c, 9, 35, 78
1, 61919, Note_on_c, 9, 53, 0
1, 61919, Note_on_c, 9, 35, 0
1, 61920, Note_on_c, 9, 40, 76
1, 61920, Note_on_c, 9, 53, 56
1, 62399, Note_on_c, 9, 40, 0
1, 62399, Note_on_c, 9, 53, 0
1, 62400, Note_on_c, 9, 53, 56
1, 62400, Note_on_c, 9, 35, 80
1, 62639, Note_on_c, 9, 35, 0
1, 62640, Note_on_c, 9, 35, 70
1, 62879, Note_on_c, 9, 53, 0
1, 62879, Note_on_c, 9, 35, 0
1, 62880, Note_on_c, 9, 40, 72
1, 62880, Note_on_c, 9, 53, 56
1, 63120, Note_on_c, 9, 35, 90
1, 63359, Note_on_c, 9, 40, 0
1, 63359, Note_on_c, 9, 53, 0
1, 63359, Note_on_c, 9, 35, 0
1, 63360, Note_on_c, 9, 53, 60
1, 63600, Note_on_c, 9, 35, 82
1, 63839, Note_on_c, 9, 53, 0
1, 63839, Note_on_c, 9, 35, 0
1, 63840, Note_on_c, 9, 35, 86
1, 64319, Note_on_c, 9, 35, 0
1, 64320, Note_on_c, 9, 35, 84
1, 64559, Note_on_c, 9, 35, 0
1, 64560, Note_on_c, 9, 43, 92
1, 64680, Note_on_c, 9, 47, 125
1, 64799, Note_on_c, 9, 43, 0
1, 64799, Note_on_c, 9, 47, 0
1, 64800, Note_on_c, 9, 50, 102
1, 64800, Note_on_c, 9, 35, 88
1, 64919, Note_on_c, 9, 50, 0
1, 64950, Note_on_c, 9, 54, 40
1, 65039, Note_on_c, 9, 54, 0
1, 65040, Note_on_c, 9, 50, 124
1, 65159, Note_on_c, 9, 35, 0
1, 65265, Note_on_c, 9, 35, 84
1, 65279, Note_on_c, 9, 50, 0
1, 65279, Note_on_c, 9, 35, 0
1, 65280, Note_on_c, 9, 35, 112
1, 65759, Note_on_c, 9, 35, 0
1, 65760, Note_on_c, 9, 40, 64
1, 66239, Note_on_c, 9, 40, 0
1, 66240, Note_on_c, 9, 35, 82
1, 66479, Note_on_c, 9, 35, 0
1, 66480, Note_on_c, 9, 35, 84
1, 66719, Note_on_c, 9, 35, 0
1, 66720, Note_on_c, 9, 40, 70
1, 67199, Note_on_c, 9, 40, 0
1, 67200, Note_on_c, 9, 35, 98
1, 67679, Note_on_c, 9, 35, 0
1, 67680, Note_on_c, 9, 40, 84
1, 68159, Note_on_c, 9, 40, 0
1, 68160, Note_on_c, 9, 35, 92
1, 68399, Note_on_c, 9, 35, 0
1, 68400, Note_on_c, 9, 28, 56
1, 68400, Note_on_c, 9, 35, 80
1, 68639, Note_on_c, 9, 28, 0
1, 68639, Note_on_c, 9, 35, 0
1, 68640, Note_on_c, 9, 40, 72
1, 68879, Note_on_c, 9, 40, 0
1, 68880, Note_on_c, 9, 40, 70
1, 69119, Note_on_c, 9, 40, 0
1, 69120, Note_on_c, 9, 35, 100
1, 69599, Note_on_c, 9, 35, 0
1, 69600, Note_on_c, 9, 40, 78
1, 70079, Note_on_c, 9, 40, 0
1, 70080, Note_on_c, 9, 35, 88
1, 70319, Note_on_c, 9, 35, 0
1, 70320, Note_on_c, 9, 35, 84
1, 70559, Note_on_c, 9, 35, 0
1, 70560, Note_on_c, 9, 40, 64
1, 70799, Note_on_c, 9, 40, 0
1, 70800, Note_on_c, 9, 40, 64
1, 71039, Note_on_c, 9, 40, 0
1, 71040, Note_on_c, 9, 35, 94
1, 71519, Note_on_c, 9, 35, 0
1, 71520, Note_on_c, 9, 40, 68
1, 71999, Note_on_c, 9, 40, 0
1, 72000, Note_on_c, 9, 47, 125
1, 72000, Note_on_c, 9, 35, 88
1, 72239, Note_on_c, 9, 35, 0
1, 72240, Note_on_c, 9, 35, 94
1, 72299, Note_on_c, 9, 35, 0
1, 72300, Note_on_c, 9, 43, 112
1, 72479, Note_on_c, 9, 47, 0
1, 72479, Note_on_c, 9, 43, 0
1, 72480, Note_on_c, 9, 40, 64
1, 72480, Note_on_c, 9, 50, 124
1, 72480, Note_on_c, 9, 44, 68
1, 72719, Note_on_c, 9, 40, 0
1, 72719, Note_on_c, 9, 50, 0
1, 72735, Note_on_c, 9, 40, 56
1, 72735, Note_on_c, 9, 50, 125
1, 72735, Note_on_c, 9, 53, 125
1, 72794, Note_on_c, 9, 40, 0
1, 72794, Note_on_c, 9, 50, 0
1, 72959, Note_on_c, 9, 44, 0
1, 72959, Note_on_c, 9, 53, 0
1, 72960, Note_on_c, 9, 35, 86
1, 73439, Note_on_c, 9, 35, 0
1, 73440, Note_on_c, 9, 40, 72
1, 73919, Note_on_c, 9, 40, 0
1, 73920, Note_on_c, 9, 35, 80
1, 74159, Note_on_c, 9, 35, 0
1, 74160, Note_on_c, 9, 35, 72
1, 74399, Note_on_c, 9, 35, 0
1, 74400, Note_on_c, 9, 40, 68
1, 74879, Note_on_c, 9, 40, 0
1, 74880, Note_on_c, 9, 35, 96
1, 75359, Note_on_c, 9, 35, 0
1, 75360, Note_on_c, 9, 40, 90
1, 75839, Note_on_c, 9, 40, 0
1, 75840, Note_on_c, 9, 35, 78
1, 76079, Note_on_c, 9, 35, 0
1, 76080, Note_on_c, 9, 35, 76
1, 76319, Note_on_c, 9, 35, 0
1, 76320, Note_on_c, 9, 40, 60
1, 76559, Note_on_c, 9, 40, 0
1, 76560, Note_on_c, 9, 40, 60
1, 76799, Note_on_c, 9, 40, 0
1, 76800, Note_on_c, 9, 35, 88
1, 77279, Note_on_c, 9, 35, 0
1, 77280, Note_on_c, 9, 40, 80
1, 77759, Note_on_c, 9, 40, 0
1, 77760, Note_on_c, 9, 35, 80
1, 77999, Note_on_c, 9, 35, 0
1, 78000, Note_on_c, 9, 35, 80
1, 78239, Note_on_c, 9, 35, 0
1, 78240, Note_on_c, 9, 40, 60
1, 78479, Note_on_c, 9, 40, 0
1, 78480, Note_on_c, 9, 40, 60
1, 78719, Note_on_c, 9, 40, 0
1, 78720, Note_on_c, 9, 35, 84
1, 79199, Note_on_c, 9, 35, 0
1, 79200, Note_on_c, 9, 40, 78
1, 79679, Note_on_c, 9, 40, 0
1, 79680, Note_on_c, 9, 35, 96
1, 80040, Note_on_c, 9, 40, 64
1, 80159, Note_on_c, 9, 35, 0
1, 80159, Note_on_c, 9, 40, 0
1, 80160, Note_on_c, 9, 47, 125
1, 80160, Note_on_c, 9, 43, 121
1, 80399, Note_on_c, 9, 47, 0
1, 80400, Note_on_c, 9, 40, 72
1, 80400, Note_on_c, 9, 50, 125
1, 80519, Note_on_c, 9, 40, 0
1, 80519, Note_on_c, 9, 50, 0
1, 80550, Note_on_c, 9, 40, 64
1, 80550, Note_on_c, 9, 50, 125
1, 80550, Note_on_c, 9, 51, 40
1, 80609, Note_on_c, 9, 40, 0
1, 80609, Note_on_c, 9, 50, 0
1, 80639, Note_on_c, 9, 43, 0
1, 80639, Note_on_c, 9, 51, 0
1, 80640, Note_on_c, 9, 47, 125
1, 80640, Note_on_c, 9, 28, 74
1, 80640, Note_on_c, 9, 43, 113
1, 80879, Note_on_c, 9, 43, 0
1, 80880, Note_on_c, 9, 35, 112
1, 81119, Note_on_c, 9, 47, 0
1, 81119, Note_on_c, 9, 28, 0
1, 81119, Note_on_c, 9, 35, 0
1, 81360, Note_on_c, 9, 40, 64
1, 81599, Note_on_c, 9, 40, 0
1, 81840, Note_on_c, 9, 35, 82
1, 82079, Note_on_c, 9, 35, 0
1, 82080, Note_on_c, 9, 35, 84
1, 82320, Note_on_c, 9, 40, 70
1, 82559, Note_on_c, 9, 35, 0
1, 82559, Note_on_c, 9, 40, 0
1, 82800, Note_on_c, 9, 35, 98
1, 83039, Note_on_c, 9, 35, 0
1, 83280, Note_on_c, 9, 40, 84
1, 83519, Note_on_c, 9, 40, 0
1, 83760, Note_on_c, 9, 35, 92
1, 83999, Note_on_c, 9, 35, 0
1, 84000, Note_on_c, 9, 28, 56
1, 84000, Note_on_c, 9, 35, 80
1, 84239, Note_on_c, 9, 28, 0
1, 84240, Note_on_c, 9, 40, 72
1, 84479, Note_on_c, 9, 35, 0
1, 84479, Note_on_c, 9, 40, 0
1, 84480, Note_on_c, 9, 40, 70
1, 84720, Note_on_c, 9, 35, 100
1, 84959, Note_on_c, 9, 40, 0
1, 84959, Note_on_c, 9, 35, 0
1, 85200, Note_on_c, 9, 40, 78
1, 85439, Note_on_c, 9, 40, 0
1, 85680, Note_on_c, 9, 35, 88
1, 85919, Note_on_c, 9, 35, 0
1, 85920, Note_on_c, 9, 35, 84
1, 86160, Note_on_c, 9, 40, 64
1, 86399, Note_on_c, 9, 35, 0
1, 86399, Note_on_c, 9, 40, 0
1, 86400, Note_on_c, 9, 40, 64
1, 86640, Note_on_c, 9, 35, 94
1, 86879, Note_on_c, 9, 40, 0
1, 86879, Note_on_c, 9, 35, 0
1, 87120, Note_on_c, 9, 40, 68
1, 87359, Note_on_c, 9, 40, 0
1, 87600, Note_on_c, 9, 35, 88
1, 87839, Note_on_c, 9, 35, 0
1, 87840, Note_on_c, 9, 47, 125
1, 87840, Note_on_c, 9, 35, 94
1, 87899, Note_on_c, 9, 35, 0
1, 87900, Note_on_c, 9, 43, 112
1, 88079, Note_on_c, 9, 47, 0
1, 88079, Note_on_c, 9, 43, 0
1, 88080, Note_on_c, 9, 50, 124
1, 88080, Note_on_c, 9, 44, 68
1, 88319, Note_on_c, 9, 50, 0
1, 88319, Note_on_c, 9, 44, 0
1, 88320, Note_on_c, 9, 40, 56
1, 88320, Note_on_c, 9, 50, 125
1, 88320, Note_on_c, 9, 53, 125
1, 88560, Note_on_c, 9, 35, 86
1, 88799, Note_on_c, 9, 40, 0
1, 88799, Note_on_c, 9, 50, 0
1, 88799, Note_on_c, 9, 53, 0
1, 88799, Note_on_c, 9, 35, 0
1, 89040, Note_on_c, 9, 40, 72
1, 89279, Note_on_c, 9, 40, 0
1, 89520, Note_on_c, 9, 35, 80
1, 89759, Note_on_c, 9, 35, 0
1, 89760, Note_on_c, 9, 35, 72
1, 90000, Note_on_c, 9, 40, 68
1, 90239, Note_on_c, 9, 35, 0
1, 90239, Note_on_c, 9, 40, 0
1, 90480, Note_on_c, 9, 35, 96
1, 90719, Note_on_c, 9, 35, 0
1, 90960, Note_on_c, 9, 40, 90
1, 91199, Note_on_c, 9, 40, 0
1, 91440, Note_on_c, 9, 35, 78
1, 91679, Note_on_c, 9, 35, 0
1, 91680, Note_on_c, 9, 35, 76
1, 91920, Note_on_c, 9, 40, 60
1, 92159, Note_on_c, 9, 35, 0
1, 92159, Note_on_c, 9, 40, 0
1, 92160, Note_on_c, 9, 40, 60
1, 92400, Note_on_c, 9, 35, 88
1, 92639, Note_on_c, 9, 40, 0
1, 92639, Note_on_c, 9, 35, 0
1, 92880, Note_on_c, 9, 40, 80
1, 93119, Note_on_c, 9, 40, 0
1, 93360, Note_on_c, 9, 35, 80
1, 93599, Note_on_c, 9, 35, 0
1, 93600, Note_on_c, 9, 35, 80
1, 93840, Note_on_c, 9, 40, 60
1, 94079, Note_on_c, 9, 35, 0
1, 94079, Note_on_c, 9, 40, 0
1, 94080, Note_on_c, 9, 40, 60
1, 94080, Note_on_c, 9, 35, 84
1, 94559, Note_on_c, 9, 40, 0
1, 94559, Note_on_c, 9, 35, 0
1, 94800, Note_on_c, 9, 40, 78
1, 95039, Note_on_c, 9, 40, 0
1, 95400, Note_on_c, 9, 35, 96
1, 95519, Note_on_c, 9, 35, 0
1, 95700, Note_on_c, 9, 40, 64
1, 95759, Note_on_c, 9, 40, 0
1, 95760, Note_on_c, 9, 47, 125
1, 95760, Note_on_c, 9, 43, 121
1, 95879, Note_on_c, 9, 47, 0
1, 95880, Note_on_c, 9, 40, 72
1, 95880, Note_on_c, 9, 50, 125
1, 95999, Note_on_c, 9, 43, 0
1, 95999, Note_on_c, 9, 40, 0
1, 95999, Note_on_c, 9, 50, 0
1, 96200, Note_on_c, 9, 50, 125
1, 96200, Note_on_c, 9, 51, 40
1, 96219, Note_on_c, 9, 50, 0
1, 96219, Note_on_c, 9, 51, 0
1, 96220, Note_on_c, 9, 47, 125
1, 96220, Note_on_c, 9, 28, 74
1, 96239, Note_on_c, 9, 47, 0
1, 96239, Note_on_c, 9, 28, 0
1, 96480, Note_on_c, 9, 35, 125
1, 96959, Note_on_c, 9, 35, 0
1, 96960, Note_on_c, 9, 69, 106
1, 97439, Note_on_c, 9, 69, 0
1, 97440, Note_on_c, 9, 69, 88
1, 97919, Note_on_c, 9, 69, 0
1, 97920, Note_on_c, 9, 69, 84
1, 98399, Note_on_c, 9, 69, 0
1, 98400, Note_on_c, 9, 69, 74
1, 98400, Note_on_c, 9, 35, 125
1, 98519, Note_on_c, 9, 69, 0
1, 98565, Note_on_c, 9, 28, 60
1, 98565, Note_on_c, 9, 34, 125
1, 98624, Note_on_c, 9, 28, 0
1, 98639, Note_on_c, 9, 35, 0
1, 98639, Note_on_c, 9, 34, 0
1, 98640, Note_on_c, 9, 35, 125
1, 98879, Note_on_c, 9, 35, 0
1, 98880, Note_on_c, 9, 69, 78
1, 99359, Note_on_c, 9, 69, 0
1, 99360, Note_on_c, 9, 69, 82
1, 99839, Note_on_c, 9, 69, 0
1, 99840, Note_on_c, 9, 69, 72
1, 100319, Note_on_c, 9, 69, 0
1, 100320, Note_on_c, 9, 69, 74
1, 100320, Note_on_c, 9, 35, 125
1, 100799, Note_on_c, 9, 69, 0
1, 100799, Note_on_c, 9, 35, 0
1, 100800, Note_on_c, 9, 69, 74
1, 101279, Note_on_c, 9, 69, 0
1, 101280, Note_on_c, 9, 69, 74
1, 101759, Note_on_c, 9, 69, 0
1, 101760, Note_on_c, 9, 69, 72
1, 102239, Note_on_c, 9, 69, 0
1, 102240, Note_on_c, 9, 69, 78
1, 102240, Note_on_c, 9, 35, 126
1, 102419, Note_on_c, 9, 69, 0
1, 102465, Note_on_c, 9, 28, 64
1, 102465, Note_on_c, 9, 39, 40
1, 102479, Note_on_c, 9, 35, 0
1, 102479, Note_on_c, 9, 39, 0
1, 102480, Note_on_c, 9, 35, 125
1, 102704, Note_on_c, 9, 28, 0
1, 102719, Note_on_c, 9, 35, 0
1, 102720, Note_on_c, 9, 69, 68
1, 103199, Note_on_c, 9, 69, 0
1, 103200, Note_on_c, 9, 69, 76
1, 103679, Note_on_c, 9, 69, 0
1, 103680, Note_on_c, 9, 69, 72
1, 104159, Note_on_c, 9, 69, 0
1, 104160, Note_on_c, 9, 69, 72
1, 104160, Note_on_c, 9, 35, 126
1, 104639, Note_on_c, 9, 69, 0
1, 104639, Note_on_c, 9, 35, 0
1, 104640, Note_on_c, 9, 69, 78
1, 105119, Note_on_c, 9, 69, 0
1, 105120, Note_on_c, 9, 69, 82
1, 105599, Note_on_c, 9, 69, 0
1, 105600, Note_on_c, 9, 69, 72
1, 106079, Note_on_c, 9, 69, 0
1, 106080, Note_on_c, 9, 69, 76
1, 106080, Note_on_c, 9, 35, 125
1, 106239, Note_on_c, 9, 35, 0
1, 106240, Note_on_c, 9, 35, 125
1, 106259, Note_on_c, 9, 69, 0
1, 106260, Note_on_c, 9, 41, 64
1, 106260, Note_on_c, 9, 28, 60
1, 106319, Note_on_c, 9, 41, 0
1, 106319, Note_on_c, 9, 28, 0
1, 106559, Note_on_c, 9, 35, 0
1, 106560, Note_on_c, 9, 69, 78
1, 107039, Note_on_c, 9, 69, 0
1, 107040, Note_on_c, 9, 69, 78
1, 107519, Note_on_c, 9, 69, 0
1, 107520, Note_on_c, 9, 69, 70
1, 107999, Note_on_c, 9, 69, 0
1, 108000, Note_on_c, 9, 69, 78
1, 108000, Note_on_c, 9, 35, 125
1, 108479, Note_on_c, 9, 69, 0
1, 108479, Note_on_c, 9, 35, 0
1, 108480, Note_on_c, 9, 69, 74
1, 108959, Note_on_c, 9, 69, 0
1, 108960, Note_on_c, 9, 69, 80
1, 109439, Note_on_c, 9, 69, 0
1, 109470, Note_on_c, 9, 69, 70
1, 109529, Note_on_c, 9, 69, 0
1, 109920, Note_on_c, 9, 69, 72
1, 109920, Note_on_c, 9, 35, 125
1, 110079, Note_on_c, 9, 35, 0
1, 110080, Note_on_c, 9, 35, 125
1, 110099, Note_on_c, 9, 69, 0
1, 110100, Note_on_c, 9, 40, 74
1, 110100, Note_on_c, 9, 28, 60
1, 110159, Note_on_c, 9, 40, 0
1, 110159, Note_on_c, 9, 28, 0
1, 110399, Note_on_c, 9, 35, 0
1, 110400, Note_on_c, 9, 69, 74
1, 110459, Note_on_c, 9, 69, 0
1, 110460, Note_on_c, 9, 29, 24
1, 110639, Note_on_c, 9, 29, 0
1, 110880, Note_on_c, 9, 69, 80
1, 111150, Note_on_c, 9, 43, 125
1, 111239, Note_on_c, 9, 43, 0
1, 111240, Note_on_c, 9, 43, 125
1, 111359, Note_on_c, 9, 69, 0
1, 111359, Note_on_c, 9, 43, 0
1, 111360, Note_on_c, 9, 48, 126
1, 111360, Note_on_c, 9, 69, 76
1, 111600, Note_on_c, 9, 43, 125
1, 111719, Note_on_c, 9, 48, 0
1, 111719, Note_on_c, 9, 69, 0
1, 111720, Note_on_c, 9, 69, 70
1, 111839, Note_on_c, 9, 43, 0
1, 111839, Note_on_c, 9, 69, 0
1, 111840, Note_on_c, 9, 43, 125
1, 111859, Note_on_c, 9, 43, 0
1, 111860, Note_on_c, 9, 35, 125
1, 111899, Note_on_c, 9, 35, 0
1, 112320, Note_on_c, 9, 69, 106
1, 112799, Note_on_c, 9, 69, 0
1, 112800, Note_on_c, 9, 69, 88
1, 113279, Note_on_c, 9, 69, 0
1, 113280, Note_on_c, 9, 69, 84
1, 113759, Note_on_c, 9, 69, 0
1, 113760, Note_on_c, 9, 69, 74
1, 113760, Note_on_c, 9, 35, 125
1, 113939, Note_on_c, 9, 69, 0
1, 113940, Note_on_c, 9, 28, 60
1, 113940, Note_on_c, 9, 34, 125
1, 113999, Note_on_c, 9, 35, 0
1, 113999, Note_on_c, 9, 28, 0
1, 113999, Note_on_c, 9, 34, 0
1, 114000, Note_on_c, 9, 35, 125
1, 114239, Note_on_c, 9, 35, 0
1, 114240, Note_on_c, 9, 69, 78
1, 114719, Note_on_c, 9, 69, 0
1, 114720, Note_on_c, 9, 69, 82
1, 115199, Note_on_c, 9, 69, 0
1, 115200, Note_on_c, 9, 69, 72
1, 115679, Note_on_c, 9, 69, 0
1, 115680, Note_on_c, 9, 69, 74
1, 115680, Note_on_c, 9, 35, 125
1, 116159, Note_on_c, 9, 69, 0
1, 116159, Note_on_c, 9, 35, 0
1, 116160, Note_on_c, 9, 69, 74
1, 116639, Note_on_c, 9, 69, 0
1, 116640, Note_on_c, 9, 69, 74
1, 117119, Note_on_c, 9, 69, 0
1, 117120, Note_on_c, 9, 69, 72
1, 117599, Note_on_c, 9, 69, 0
1, 117600, Note_on_c, 9, 69, 78
1, 117600, Note_on_c, 9, 35, 126
1, 117779, Note_on_c, 9, 69, 0
1, 117810, Note_on_c, 9, 28, 64
1, 117810, Note_on_c, 9, 39, 40
1, 117839, Note_on_c, 9, 35, 0
1, 117839, Note_on_c, 9, 39, 0
1, 117840, Note_on_c, 9, 35, 125
1, 117929, Note_on_c, 9, 28, 0
1, 118079, Note_on_c, 9, 35, 0
1, 118080, Note_on_c, 9, 69, 68
1, 118559, Note_on_c, 9, 69, 0
1, 118560, Note_on_c, 9, 69, 76
1, 119039, Note_on_c, 9, 69, 0
1, 119040, Note_on_c, 9, 69, 72
1, 119519, Note_on_c, 9, 69, 0
1, 119520, Note_on_c, 9, 69, 72
1, 119520, Note_on_c, 9, 35, 126
1, 119999, Note_on_c, 9, 69, 0
1, 119999, Note_on_c, 9, 35, 0
1, 120000, Note_on_c, 9, 69, 78
1, 120479, Note_on_c, 9, 69, 0
1, 120480, Note_on_c, 9, 69, 82
1, 120959, Note_on_c, 9, 69, 0
1, 120960, Note_on_c, 9, 69, 72
1, 121439, Note_on_c, 9, 69, 0
1, 121440, Note_on_c, 9, 69, 76
1, 121440, Note_on_c, 9, 35, 125
1, 121619, Note_on_c, 9, 69, 0
1, 121650, Note_on_c, 9, 41, 64
1, 121650, Note_on_c, 9, 28, 60
1, 121679, Note_on_c, 9, 35, 0
1, 121680, Note_on_c, 9, 35, 125
1, 121769, Note_on_c, 9, 28, 0
1, 121919, Note_on_c, 9, 41, 0
1, 121919, Note_on_c, 9, 35, 0
1, 121920, Note_on_c, 9, 69, 78
1, 122399, Note_on_c, 9, 69, 0
1, 122400, Note_on_c, 9, 69, 78
1, 122879, Note_on_c, 9, 69, 0
1, 122880, Note_on_c, 9, 69, 70
1, 123359, Note_on_c, 9, 69, 0
1, 123360, Note_on_c, 9, 69, 78
1, 123360, Note_on_c, 9, 35, 125
1, 123839, Note_on_c, 9, 69, 0
1, 123839, Note_on_c, 9, 35, 0
1, 123840, Note_on_c, 9, 69, 74
1, 124319, Note_on_c, 9, 69, 0
1, 124320, Note_on_c, 9, 69, 80
1, 124799, Note_on_c, 9, 69, 0
1, 124830, Note_on_c, 9, 69, 70
1, 124889, Note_on_c, 9, 69, 0
1, 125280, Note_on_c, 9, 69, 72
1, 125280, Note_on_c, 9, 35, 125
1, 125459, Note_on_c, 9, 69, 0
1, 125490, Note_on_c, 9, 40, 74
1, 125490, Note_on_c, 9, 28, 60
1, 125519, Note_on_c, 9, 35, 0
1, 125520, Note_on_c, 9, 35, 125
1, 125609, Note_on_c, 9, 40, 0
1, 125609, Note_on_c, 9, 28, 0
1, 125759, Note_on_c, 9, 35, 0
1, 125760, Note_on_c, 9, 69, 74
1, 125819, Note_on_c, 9, 69, 0
1, 125820, Note_on_c, 9, 29, 24
1, 125999, Note_on_c, 9, 29, 0
1, 126240, Note_on_c, 9, 69, 80
1, 126520, Note_on_c, 9, 43, 125
1, 126639, Note_on_c, 9, 43, 0
1, 126640, Note_on_c, 9, 43, 125
1, 126719, Note_on_c, 9, 69, 0
1, 126719, Note_on_c, 9, 43, 0
1, 126720, Note_on_c, 9, 48, 126
1, 126720, Note_on_c, 9, 69, 76
1, 126960, Note_on_c, 9, 43, 125
1, 127079, Note_on_c, 9, 48, 0
1, 127079, Note_on_c, 9, 69, 0
1, 127080, Note_on_c, 9, 69, 70
1, 127199, Note_on_c, 9, 43, 0
1, 127199, Note_on_c, 9, 69, 0
1, 127200, Note_on_c, 9, 43, 125
1, 127219, Note_on_c, 9, 43, 0
1, 127220, Note_on_c, 9, 35, 115
1, 127230, Note_on_c, 9, 53, 60
1, 127259, Note_on_c, 9, 35, 0
1, 127289, Note_on_c, 9, 53, 0
1, 127680, Note_on_c, 9, 53, 68
1, 127799, Note_on_c, 9, 53, 0
1, 127800, Note_on_c, 9, 40, 72
1, 128159, Note_on_c, 9, 40, 0
1, 128160, Note_on_c, 9, 53, 60
1, 128160, Note_on_c, 9, 35, 90
1, 128399, Note_on_c, 9, 35, 0
1, 128400, Note_on_c, 9, 35, 86
1, 128639, Note_on_c, 9, 53, 0
1, 128639, Note_on_c, 9, 35, 0
1, 128640, Note_on_c, 9, 40, 74
1, 128640, Note_on_c, 9, 53, 60
1, 128879, Note_on_c, 9, 40, 0
1, 128879, Note_on_c, 9, 53, 0
1, 128940, Note_on_c, 9, 39, 40
1, 128940, Note_on_c, 9, 35, 92
1, 129119, Note_on_c, 9, 39, 0
1, 129119, Note_on_c, 9, 35, 0
1, 129180, Note_on_c, 9, 53, 68
1, 129359, Note_on_c, 9, 53, 0
1, 129360, Note_on_c, 9, 35, 74
1, 129599, Note_on_c, 9, 35, 0
1, 129600, Note_on_c, 9, 40, 76
1, 129600, Note_on_c, 9, 53, 56
1, 130079, Note_on_c, 9, 40, 0
1, 130079, Note_on_c, 9, 53, 0
1, 130080, Note_on_c, 9, 53, 56
1, 130080, Note_on_c, 9, 35, 86
1, 130319, Note_on_c, 9, 35, 0
1, 130320, Note_on_c, 9, 35, 84
1, 130559, Note_on_c, 9, 53, 0
1, 130559, Note_on_c, 9, 35, 0
1, 130560, Note_on_c, 9, 40, 74
1, 130560, Note_on_c, 9, 53, 60
1, 131039, Note_on_c, 9, 40, 0
1, 131039, Note_on_c, 9, 53, 0
1, 131040, Note_on_c, 9, 53, 60
1, 131040, Note_on_c, 9, 35, 94
1, 131519, Note_on_c, 9, 53, 0
1, 131519, Note_on_c, 9, 35, 0
1, 131520, Note_on_c, 9, 40, 90
1, 131520, Note_on_c, 9, 53, 64
1, 131999, Note_on_c, 9, 40, 0
1, 131999, Note_on_c, 9, 53, 0
1, 132000, Note_on_c, 9, 53, 52
1, 132000, Note_on_c, 9, 35, 92
1, 132239, Note_on_c, 9, 35, 0
1, 132240, Note_on_c, 9, 35, 92
1, 132479, Note_on_c, 9, 53, 0
1, 132479, Note_on_c, 9, 35, 0
1, 132480, Note_on_c, 9, 40, 100
1, 132480, Note_on_c, 9, 53, 64
1, 132720, Note_on_c, 9, 35, 98
1, 132959, Note_on_c, 9, 40, 0
1, 132959, Note_on_c, 9, 53, 0
1, 132959, Note_on_c, 9, 35, 0
1, 132960, Note_on_c, 9, 53, 56
1, 133200, Note_on_c, 9, 35, 84
1, 133439, Note_on_c, 9, 53, 0
1, 133439, Note_on_c, 9, 35, 0
1, 133440, Note_on_c, 9, 40, 72
1, 133440, Note_on_c, 9, 53, 64
1, 133919, Note_on_c, 9, 40, 0
1, 133919, Note_on_c, 9, 53, 0
1, 133920, Note_on_c, 9, 53, 60
1, 134000, Note_on_c, 9, 35, 86
1, 134239, Note_on_c, 9, 35, 0
1, 134240, Note_on_c, 9, 35, 76
1, 134399, Note_on_c, 9, 53, 0
1, 134399, Note_on_c, 9, 35, 0
1, 134400, Note_on_c, 9, 40, 72
1, 134400, Note_on_c, 9, 53, 56
1, 134879, Note_on_c, 9, 40, 0
1, 134879, Note_on_c, 9, 53, 0
1, 134880, Note_on_c, 9, 53, 64
1, 134880, Note_on_c, 9, 35, 84
1, 135359, Note_on_c, 9, 53, 0
1, 135359, Note_on_c, 9, 35, 0
1, 135360, Note_on_c, 9, 40, 82
1, 135419, Note_on_c, 9, 40, 0
1, 135420, Note_on_c, 9, 53, 68
1, 135599, Note_on_c, 9, 53, 0
1, 135840, Note_on_c, 9, 53, 60
1, 135840, Note_on_c, 9, 35, 84
1, 136079, Note_on_c, 9, 35, 0
1, 136080, Note_on_c, 9, 35, 78
1, 136319, Note_on_c, 9, 53, 0
1, 136319, Note_on_c, 9, 35, 0
1, 136320, Note_on_c, 9, 40, 74
1, 136379, Note_on_c, 9, 40, 0
1, 136380, Note_on_c, 9, 53, 56
1, 136410, Note_on_c, 9, 39, 40
1, 136439, Note_on_c, 9, 53, 0
1, 136439, Note_on_c, 9, 39, 0
1, 136440, Note_on_c, 9, 41, 40
1, 136559, Note_on_c, 9, 41, 0
1, 136560, Note_on_c, 9, 35, 86
1, 136635, Note_on_c, 9, 39, 40
1, 136679, Note_on_c, 9, 39, 0
1, 136799, Note_on_c, 9, 35, 0
1, 136800, Note_on_c, 9, 53, 60
1, 137040, Note_on_c, 9, 35, 82
1, 137279, Note_on_c, 9, 53, 0
1, 137279, Note_on_c, 9, 35, 0
1, 137280, Note_on_c, 9, 40, 72
1, 137280, Note_on_c, 9, 53, 48
1, 137759, Note_on_c, 9, 40, 0
1, 137759, Note_on_c, 9, 53, 0
1, 137760, Note_on_c, 9, 53, 56
1, 137760, Note_on_c, 9, 35, 84
1, 138079, Note_on_c, 9, 35, 0
1, 138080, Note_on_c, 9, 35, 78
1, 138239, Note_on_c, 9, 53, 0
1, 138239, Note_on_c, 9, 35, 0
1, 138240, Note_on_c, 9, 40, 72
1, 138240, Note_on_c, 9, 53, 56
1, 138479, Note_on_c, 9, 40, 0
1, 138479, Note_on_c, 9, 53, 0
1, 138480, Note_on_c, 9, 40, 52
1, 138719, Note_on_c, 9, 40, 0
1, 138720, Note_on_c, 9, 53, 56
1, 138720, Note_on_c, 9, 35, 78
1, 139199, Note_on_c, 9, 53, 0
1, 139199, Note_on_c, 9, 35, 0
1, 139200, Note_on_c, 9, 40, 76
1, 139200, Note_on_c, 9, 53, 56
1, 139679, Note_on_c, 9, 40, 0
1, 139679, Note_on_c, 9, 53, 0
1, 139680, Note_on_c, 9, 53, 56
1, 139680, Note_on_c, 9, 35, 80
1, 139919, Note_on_c, 9, 35, 0
1, 139920, Note_on_c, 9, 35, 70
1, 140159, Note_on_c, 9, 53, 0
1, 140159, Note_on_c, 9, 35, 0
1, 140160, Note_on_c, 9, 40, 72
1, 140160, Note_on_c, 9, 53, 56
1, 140400, Note_on_c, 9, 35, 90
1, 140639, Note_on_c, 9, 40, 0
1, 140639, Note_on_c, 9, 53, 0
1, 140639, Note_on_c, 9, 35, 0
1, 140640, Note_on_c, 9, 53, 60
1, 140880, Note_on_c, 9, 35, 82
1, 141119, Note_on_c, 9, 53, 0
1, 141119, Note_on_c, 9, 35, 0
1, 141120, Note_on_c, 9, 35, 86
1, 141599, Note_on_c, 9, 35, 0
1, 141600, Note_on_c, 9, 35, 84
1, 141839, Note_on_c, 9, 35, 0
1, 141840, Note_on_c, 9, 47, 125
1, 141840, Note_on_c, 9, 43, 92
1, 142079, Note_on_c, 9, 47, 0
1, 142079, Note_on_c, 9, 43, 0
1, 142080, Note_on_c, 9, 50, 102
1, 142080, Note_on_c, 9, 35, 88
1, 142199, Note_on_c, 9, 50, 0
1, 142200, Note_on_c, 9, 54, 40
1, 142319, Note_on_c, 9, 54, 0
1, 142320, Note_on_c, 9, 50, 124
1, 142559, Note_on_c, 9, 35, 0
1, 142559, Note_on_c, 9, 50, 0
1, 142560, Note_on_c, 9, 35, 112
1, 143039, Note_on_c, 9, 35, 0
1, 143040, Note_on_c, 9, 40, 64
1, 143519, Note_on_c, 9, 40, 0
1, 143520, Note_on_c, 9, 35, 82
1, 143759, Note_on_c, 9, 35, 0
1, 143760, Note_on_c, 9, 35, 84
1, 143999, Note_on_c, 9, 35, 0
1, 144000, Note_on_c, 9, 40, 70
1, 144479, Note_on_c, 9, 40, 0
1, 144480, Note_on_c, 9, 35, 98
1, 144959, Note_on_c, 9, 35, 0
1, 144960, Note_on_c, 9, 40, 84
1, 145439, Note_on_c, 9, 40, 0
1, 145440, Note_on_c, 9, 35, 92
1, 145679, Note_on_c, 9, 35, 0
1, 145680, Note_on_c, 9, 28, 56
1, 145680, Note_on_c, 9, 35, 80
1, 145919, Note_on_c, 9, 28, 0
1, 145919, Note_on_c, 9, 35, 0
1, 145920, Note_on_c, 9, 40, 72
1, 146159, Note_on_c, 9, 40, 0
1, 146160, Note_on_c, 9, 40, 70
1, 146399, Note_on_c, 9, 40, 0
1, 146400, Note_on_c, 9, 35, 100
1, 146879, Note_on_c, 9, 35, 0
1, 146880, Note_on_c, 9, 40, 78
1, 147359, Note_on_c, 9, 40, 0
1, 147360, Note_on_c, 9, 35, 88
1, 147599, Note_on_c, 9, 35, 0
1, 147600, Note_on_c, 9, 35, 84
1, 147839, Note_on_c, 9, 35, 0
1, 147840, Note_on_c, 9, 40, 64
1, 148079, Note_on_c, 9, 40, 0
1, 148080, Note_on_c, 9, 40, 64
1, 148319, Note_on_c, 9, 40, 0
1, 148320, Note_on_c, 9, 35, 94
1, 148799, Note_on_c, 9, 35, 0
1, 148800, Note_on_c, 9, 40, 68
1, 149279, Note_on_c, 9, 40, 0
1, 149280, Note_on_c, 9, 47, 125
1, 149280, Note_on_c, 9, 35, 88
1, 149519, Note_on_c, 9, 35, 0
1, 149520, Note_on_c, 9, 35, 94
1, 149579, Note_on_c, 9, 35, 0
1, 149580, Note_on_c, 9, 43, 112
1, 149759, Note_on_c, 9, 47, 0
1, 149759, Note_on_c, 9, 43, 0
1, 149760, Note_on_c, 9, 50, 124
1, 149760, Note_on_c, 9, 44, 68
1, 149939, Note_on_c, 9, 50, 0
1, 149985, Note_on_c, 9, 40, 56
1, 149985, Note_on_c, 9, 50, 125
1, 149985, Note_on_c, 9, 53, 125
1, 149999, Note_on_c, 9, 53, 0
1, 150224, Note_on_c, 9, 40, 0
1, 150224, Note_on_c, 9, 50, 0
1, 150239, Note_on_c, 9, 44, 0
1, 150240, Note_on_c, 9, 35, 86
1, 150719, Note_on_c, 9, 35, 0
1, 150720, Note_on_c, 9, 40, 72
1, 151199, Note_on_c, 9, 40, 0
1, 151200, Note_on_c, 9, 35, 80
1, 151439, Note_on_c, 9, 35, 0
1, 151440, Note_on_c, 9, 35, 72
1, 151679, Note_on_c, 9, 35, 0
1, 151680, Note_on_c, 9, 40, 68
1, 152159, Note_on_c, 9, 40, 0
1, 152160, Note_on_c, 9, 35, 96
1, 152639, Note_on_c, 9, 35, 0
1, 152640, Note_on_c, 9, 40, 90
1, 153119, Note_on_c, 9, 40, 0
1, 153120, Note_on_c, 9, 35, 78
1, 153359, Note_on_c, 9, 35, 0
1, 153360, Note_on_c, 9, 35, 76
1, 153599, Note_on_c, 9, 35, 0
1, 153600, Note_on_c, 9, 40, 60
1, 153839, Note_on_c, 9, 40, 0
1, 153840, Note_on_c, 9, 40, 60
1, 154079, Note_on_c, 9, 40, 0
1, 154080, Note_on_c, 9, 35, 88
1, 154559, Note_on_c, 9, 35, 0
1, 154560, Note_on_c, 9, 40, 80
1, 155039, Note_on_c, 9, 40, 0
1, 155040, Note_on_c, 9, 35, 80
1, 155279, Note_on_c, 9, 35, 0
1, 155280, Note_on_c, 9, 35, 80
1, 155519, Note_on_c, 9, 35, 0
1, 155520, Note_on_c, 9, 40, 60
1, 155759, Note_on_c, 9, 40, 0
1, 155760, Note_on_c, 9, 40, 60
1, 155999, Note_on_c, 9, 40, 0
1, 156000, Note_on_c, 9, 35, 84
1, 156479, Note_on_c, 9, 35, 0
1, 156480, Note_on_c, 9, 40, 78
1, 156959, Note_on_c, 9, 40, 0
1, 157080, Note_on_c, 9, 35, 96
1, 157320, Note_on_c, 9, 40, 64
1, 157439, Note_on_c, 9, 35, 0
1, 157439, Note_on_c, 9, 40, 0
1, 157440, Note_on_c, 9, 47, 125
1, 157440, Note_on_c, 9, 43, 121
1, 157559, Note_on_c, 9, 47, 0
1, 157560, Note_on_c, 9, 40, 72
1, 157560, Note_on_c, 9, 50, 125
1, 157799, Note_on_c, 9, 40, 0
1, 157799, Note_on_c, 9, 50, 0
1, 157830, Note_on_c, 9, 47, 125
1, 157830, Note_on_c, 9, 28, 74
1, 157830, Note_on_c, 9, 50, 125
1, 157830, Note_on_c, 9, 51, 40
1, 157889, Note_on_c, 9, 47, 0
1, 157889, Note_on_c, 9, 28, 0
1, 157889, Note_on_c, 9, 50, 0
1, 157919, Note_on_c, 9, 43, 0
1, 157919, Note_on_c, 9, 51, 0
1, 158040, Note_on_c, 9, 35, 112
1, 158399, Note_on_c, 9, 35, 0
1, 158400, Note_on_c, 9, 40, 64
1, 158879, Note_on_c, 9, 40, 0
1, 158880, Note_on_c, 9, 35, 82
1, 159119, Note_on_c, 9, 35, 0
1, 159120, Note_on_c, 9, 35, 84
1, 159359, Note_on_c, 9, 35, 0
1, 159360, Note_on_c, 9, 40, 70
1, 159839, Note_on_c, 9, 40, 0
1, 159840, Note_on_c, 9, 35, 98
1, 160319, Note_on_c, 9, 35, 0
1, 160320, Note_on_c, 9, 40, 84
1, 160799, Note_on_c, 9, 40, 0
1, 160800, Note_on_c, 9, 35, 92
1, 161039, Note_on_c, 9, 35, 0
1, 161040, Note_on_c, 9, 28, 56
1, 161040, Note_on_c, 9, 35, 80
1, 161279, Note_on_c, 9, 28, 0
1, 161279, Note_on_c, 9, 35, 0
1, 161280, Note_on_c, 9, 40, 72
1, 161519, Note_on_c, 9, 40, 0
1, 161520, Note_on_c, 9, 40, 70
1, 161759, Note_on_c, 9, 40, 0
1, 161760, Note_on_c, 9, 35, 100
1, 162239, Note_on_c, 9, 35, 0
1, 162240, Note_on_c, 9, 40, 78
1, 162719, Note_on_c, 9, 40, 0
1, 162720, Note_on_c, 9, 35, 88
1, 162959, Note_on_c, 9, 35, 0
1, 162960, Note_on_c, 9, 35, 84
1, 163199, Note_on_c, 9, 35, 0
1, 163200, Note_on_c, 9, 40, 64
1, 163439, Note_on_c, 9, 40, 0
1, 163440, Note_on_c, 9, 40, 64
1, 163679, Note_on_c, 9, 40, 0
1, 163680, Note_on_c, 9, 35, 94
1, 164159, Note_on_c, 9, 35, 0
1, 164160, Note_on_c, 9, 40, 68
1, 164639, Note_on_c, 9, 40, 0
1, 164640, Note_on_c, 9, 35, 88
1, 164879, Note_on_c, 9, 35, 0
1, 164940, Note_on_c, 9, 35, 94
1, 164940, Note_on_c, 9, 43, 112
1, 165119, Note_on_c, 9, 35, 0
1, 165119, Note_on_c, 9, 43, 0
1, 165120, Note_on_c, 9, 47, 125
1, 165120, Note_on_c, 9, 44, 68
1, 165239, Note_on_c, 9, 47, 0
1, 165240, Note_on_c, 9, 50, 124
1, 165359, Note_on_c, 9, 50, 0
1, 165360, Note_on_c, 9, 40, 64
1, 165479, Note_on_c, 9, 40, 0
1, 165480, Note_on_c, 9, 40, 56
1, 165480, Note_on_c, 9, 50, 125
1, 165480, Note_on_c, 9, 53, 125
1, 165599, Note_on_c, 9, 44, 0
1, 165599, Note_on_c, 9, 40, 0
1, 165599, Note_on_c, 9, 50, 0
1, 165599, Note_on_c, 9, 53, 0
1, 165760, Note_on_c, 9, 35, 86
1, 166079, Note_on_c, 9, 35, 0
1, 166320, Note_on_c, 9, 40, 72
1, 166559, Note_on_c, 9, 40, 0
1, 166800, Note_on_c, 9, 35, 80
1, 167039, Note_on_c, 9, 35, 0
1, 167040, Note_on_c, 9, 35, 72
1, 167280, Note_on_c, 9, 40, 68
1, 167519, Note_on_c, 9, 35, 0
1, 167519, Note_on_c, 9, 40, 0
1, 167760, Note_on_c, 9, 35, 96
1, 167999, Note_on_c, 9, 35, 0
1, 168240, Note_on_c, 9, 40, 90
1, 168479, Note_on_c, 9, 40, 0
1, 168720, Note_on_c, 9, 35, 78
1, 168959, Note_on_c, 9, 35, 0
1, 168960, Note_on_c, 9, 35, 76
1, 169200, Note_on_c, 9, 40, 60
1, 169439, Note_on_c, 9, 35, 0
1, 169439, Note_on_c, 9, 40, 0
1, 169440, Note_on_c, 9, 40, 60
1, 169680, Note_on_c, 9, 35, 88
1, 169919, Note_on_c, 9, 40, 0
1, 169919, Note_on_c, 9, 35, 0
1, 170160, Note_on_c, 9, 40, 80
1, 170399, Note_on_c, 9, 40, 0
1, 170640, Note_on_c, 9, 35, 80
1, 170879, Note_on_c, 9, 35, 0
1, 170880, Note_on_c, 9, 35, 80
1, 171120, Note_on_c, 9, 40, 60
1, 171359, Note_on_c, 9, 35, 0
1, 171359, Note_on_c, 9, 40, 0
1, 171360, Note_on_c, 9, 40, 60
1, 171839, Note_on_c, 9, 40, 0
1, 171840, Note_on_c, 9, 35, 84
1, 172080, Note_on_c, 9, 40, 78
1, 172319, Note_on_c, 9, 35, 0
1, 172319, Note_on_c, 9, 40, 0
1, 172680, Note_on_c, 9, 35, 96
1, 172799, Note_on_c, 9, 35, 0
1, 172800, Note_on_c, 9, 40, 64
1, 173039, Note_on_c, 9, 40, 0
1, 173040, Note_on_c, 9, 47, 125
1, 173040, Note_on_c, 9, 43, 121
1, 173279, Note_on_c, 9, 47, 0
1, 173279, Note_on_c, 9, 43, 0
1, 173280, Note_on_c, 9, 40, 72
1, 173280, Note_on_c, 9, 50, 125
1, 173280, Note_on_c, 9, 43, 113
1, 173399, Note_on_c, 9, 40, 0
1, 173399, Note_on_c, 9, 50, 0
1, 173430, Note_on_c, 9, 40, 64
1, 173430, Note_on_c, 9, 47, 125
1, 173430, Note_on_c, 9, 28, 74
1, 173430, Note_on_c, 9, 50, 125
1, 173430, Note_on_c, 9, 51, 40
1, 173489, Note_on_c, 9, 40, 0
1, 173489, Note_on_c, 9, 47, 0
1, 173489, Note_on_c, 9, 28, 0
1, 173489, Note_on_c, 9, 50, 0
1, 173519, Note_on_c, 9, 51, 0
1, 173759, Note_on_c, 9, 43, 0
1, 173760, Note_on_c, 9, 35, 112
1, 174239, Note_on_c, 9, 35, 0
1, 174240, Note_on_c, 9, 40, 64
1, 174719, Note_on_c, 9, 40, 0
1, 174720, Note_on_c, 9, 35, 82
1, 174959, Note_on_c, 9, 35, 0
1, 174960, Note_on_c, 9, 35, 84
1, 175199, Note_on_c, 9, 35, 0
1, 175200, Note_on_c, 9, 40, 70
1, 175679, Note_on_c, 9, 40, 0
1, 175680, Note_on_c, 9, 35, 98
1, 176159, Note_on_c, 9, 35, 0
1, 176160, Note_on_c, 9, 40, 84
1, 176639, Note_on_c, 9, 40, 0
1, 176640, Note_on_c, 9, 35, 92
1, 176879, Note_on_c, 9, 35, 0
1, 176880, Note_on_c, 9, 28, 56
1, 176880, Note_on_c, 9, 35, 80
1, 177119, Note_on_c, 9, 28, 0
1, 177119, Note_on_c, 9, 35, 0
1, 177120, Note_on_c, 9, 40, 72
1, 177359, Note_on_c, 9, 40, 0
1, 177360, Note_on_c, 9, 40, 70
1, 177599, Note_on_c, 9, 40, 0
1, 177600, Note_on_c, 9, 35, 100
1, 178079, Note_on_c, 9, 35, 0
1, 178080, Note_on_c, 9, 40, 78
1, 178559, Note_on_c, 9, 40, 0
1, 178560, Note_on_c, 9, 35, 88
1, 178799, Note_on_c, 9, 35, 0
1, 178800, Note_on_c, 9, 35, 84
1, 179039, Note_on_c, 9, 35, 0
1, 179040, Note_on_c, 9, 40, 64
1, 179279, Note_on_c, 9, 40, 0
1, 179280, Note_on_c, 9, 40, 64
1, 179519, Note_on_c, 9, 40, 0
1, 179520, Note_on_c, 9, 35, 94
1, 179999, Note_on_c, 9, 35, 0
1, 180000, Note_on_c, 9, 40, 68
1, 180479, Note_on_c, 9, 40, 0
1, 180480, Note_on_c, 9, 47, 125
1, 180480, Note_on_c, 9, 35, 88
1, 180719, Note_on_c, 9, 35, 0
1, 180750, Note_on_c, 9, 35, 94
1, 180750, Note_on_c, 9, 43, 112
1, 180809, Note_on_c, 9, 35, 0
1, 180809, Note_on_c, 9, 43, 0
1, 180959, Note_on_c, 9, 47, 0
1, 180960, Note_on_c, 9, 50, 124
1, 180960, Note_on_c, 9, 44, 68
1, 181019, Note_on_c, 9, 50, 0
1, 181020, Note_on_c, 9, 40, 64
1, 181199, Note_on_c, 9, 40, 0
1, 181200, Note_on_c, 9, 40, 56
1, 181200, Note_on_c, 9, 50, 125
1, 181200, Note_on_c, 9, 53, 125
1, 181439, Note_on_c, 9, 44, 0
1, 181439, Note_on_c, 9, 40, 0
1, 181439, Note_on_c, 9, 50, 0
1, 181439, Note_on_c, 9, 53, 0
1, 181440, Note_on_c, 9, 35, 86
1, 181919, Note_on_c, 9, 35, 0
1, 181920, Note_on_c, 9, 40, 72
1, 182399, Note_on_c, 9, 40, 0
1, 182400, Note_on_c, 9, 35, 80
1, 182639, Note_on_c, 9, 35, 0
1, 182640, Note_on_c, 9, 35, 72
1, 182879, Note_on_c, 9, 35, 0
1, 182880, Note_on_c, 9, 40, 68
1, 183359, Note_on_c, 9, 40, 0
1, 183360, Note_on_c, 9, 35, 96
1, 183839, Note_on_c, 9, 35, 0
1, 183840, Note_on_c, 9, 40, 90
1, 184319, Note_on_c, 9, 40, 0
1, 184320, Note_on_c, 9, 35, 78
1, 184559, Note_on_c, 9, 35, 0
1, 184560, Note_on_c, 9, 35, 76
1, 184799, Note_on_c, 9, 35, 0
1, 184800, Note_on_c, 9, 40, 60
1, 185039, Note_on_c, 9, 40, 0
1, 185040, Note_on_c, 9, 40, 60
1, 185279, Note_on_c, 9, 40, 0
1, 185280, Note_on_c, 9, 35, 88
1, 185759, Note_on_c, 9, 35, 0
1, 185760, Note_on_c, 9, 40, 80
1, 186239, Note_on_c, 9, 40, 0
1, 186240, Note_on_c, 9, 35, 80
1, 186479, Note_on_c, 9, 35, 0
1, 186480, Note_on_c, 9, 35, 80
1, 186719, Note_on_c, 9, 35, 0
1, 186720, Note_on_c, 9, 40, 60
1, 186959, Note_on_c, 9, 40, 0
1, 186960, Note_on_c, 9, 40, 60
1, 187199, Note_on_c, 9, 40, 0
1, 187200, Note_on_c, 9, 35, 84
1, 187679, Note_on_c, 9, 35, 0
1, 187680, Note_on_c, 9, 40, 78
1, 188159, Note_on_c, 9, 40, 0
1, 188160, Note_on_c, 9, 35, 96
1, 188400, Note_on_c, 9, 40, 64
1, 188479, Note_on_c, 9, 35, 0
1, 188480, Note_on_c, 9, 43, 121
1, 188519, Note_on_c, 9, 40, 0
1, 188520, Note_on_c, 9, 47, 125
1, 188639, Note_on_c, 9, 43, 0
1, 188639, Note_on_c, 9, 47, 0
1, 188640, Note_on_c, 9, 50, 125
1, 188759, Note_on_c, 9, 50, 0
1, 188760, Note_on_c, 9, 40, 72
1, 188879, Note_on_c, 9, 40, 0
1, 188880, Note_on_c, 9, 40, 64
1, 188880, Note_on_c, 9, 50, 125
1, 188880, Note_on_c, 9, 51, 40
1, 188880, Note_on_c, 9, 43, 113
1, 188959, Note_on_c, 9, 40, 0
1, 188959, Note_on_c, 9, 50, 0
1, 188959, Note_on_c, 9, 51, 0
1, 188960, Note_on_c, 9, 47, 125
1, 188960, Note_on_c, 9, 28, 74
1, 188999, Note_on_c, 9, 47, 0
1, 188999, Note_on_c, 9, 28, 0
1, 189119, Note_on_c, 9, 43, 0
1, 189120, Note_on_c, 9, 35, 112
1, 189599, Note_on_c, 9, 35, 0
1, 189600, Note_on_c, 9, 40, 64
1, 190079, Note_on_c, 9, 40, 0
1, 190080, Note_on_c, 9, 35, 82
1, 190319, Note_on_c, 9, 35, 0
1, 190320, Note_on_c, 9, 35, 84
1, 190559, Note_on_c, 9, 35, 0
1, 190560, Note_on_c, 9, 40, 70
1, 191039, Note_on_c, 9, 40, 0
1, 191040, Note_on_c, 9, 35, 98
1, 191519, Note_on_c, 9, 35, 0
1, 191520, Note_on_c, 9, 40, 84
1, 191999, Note_on_c, 9, 40, 0
1, 192000, Note_on_c, 9, 35, 92
1, 192239, Note_on_c, 9, 35, 0
1, 192240, Note_on_c, 9, 28, 56
1, 192240, Note_on_c, 9, 35, 80
1, 192479, Note_on_c, 9, 28, 0
1, 192479, Note_on_c, 9, 35, 0
1, 192480, Note_on_c, 9, 40, 72
1, 192719, Note_on_c, 9, 40, 0
1, 192720, Note_on_c, 9, 40, 70
1, 192959, Note_on_c, 9, 40, 0
1, 192960, Note_on_c, 9, 35, 100
1, 193439, Note_on_c, 9, 35, 0
1, 193440, Note_on_c, 9, 40, 78
1, 193919, Note_on_c, 9, 40, 0
1, 193920, Note_on_c, 9, 35, 88
1, 194159, Note_on_c, 9, 35, 0
1, 194160, Note_on_c, 9, 35, 84
1, 194399, Note_on_c, 9, 35, 0
1, 194400, Note_on_c, 9, 40, 64
1, 194639, Note_on_c, 9, 40, 0
1, 194640, Note_on_c, 9, 40, 64
1, 194879, Note_on_c, 9, 40, 0
1, 194880, Note_on_c, 9, 35, 94
1, 195359, Note_on_c, 9, 35, 0
1, 195360, Note_on_c, 9, 40, 68
1, 195839, Note_on_c, 9, 40, 0
1, 195840, Note_on_c, 9, 47, 125
1, 195840, Note_on_c, 9, 35, 88
1, 196079, Note_on_c, 9, 35, 0
1, 196080, Note_on_c, 9, 35, 94
1, 196139, Note_on_c, 9, 35, 0
1, 196140, Note_on_c, 9, 43, 112
1, 196319, Note_on_c, 9, 47, 0
1, 196319, Note_on_c, 9, 43, 0
1, 196320, Note_on_c, 9, 50, 124
1, 196320, Note_on_c, 9, 44, 68
1, 196379, Note_on_c, 9, 50, 0
1, 196380, Note_on_c, 9, 40, 64
1, 196559, Note_on_c, 9, 40, 0
1, 196560, Note_on_c, 9, 40, 56
1, 196560, Note_on_c, 9, 50, 125
1, 196560, Note_on_c, 9, 53, 125
1, 196799, Note_on_c, 9, 44, 0
1, 196799, Note_on_c, 9, 40, 0
1, 196799, Note_on_c, 9, 50, 0
1, 196799, Note_on_c, 9, 53, 0
1, 196800, Note_on_c, 9, 35, 86
1, 197279, Note_on_c, 9, 35, 0
1, 197280, Note_on_c, 9, 40, 72
1, 197759, Note_on_c, 9, 40, 0
1, 197760, Note_on_c, 9, 35, 80
1, 197999, Note_on_c, 9, 35, 0
1, 198000, Note_on_c, 9, 35, 72
1, 198239, Note_on_c, 9, 35, 0
1, 198240, Note_on_c, 9, 40, 68
1, 198719, Note_on_c, 9, 40, 0
1, 198720, Note_on_c, 9, 35, 96
1, 199199, Note_on_c, 9, 35, 0
1, 199200, Note_on_c, 9, 40, 90
1, 199679, Note_on_c, 9, 40, 0
1, 199680, Note_on_c, 9, 35, 78
1, 199919, Note_on_c, 9, 35, 0
1, 199920, Note_on_c, 9, 35, 76
1, 200159, Note_on_c, 9, 35, 0
1, 200160, Note_on_c, 9, 40, 60
1, 200399, Note_on_c, 9, 40, 0
1, 200400, Note_on_c, 9, 40, 60
1, 200639, Note_on_c, 9, 40, 0
1, 200640, Note_on_c, 9, 35, 88
1, 201119, Note_on_c, 9, 35, 0
1, 201120, Note_on_c, 9, 40, 80
1, 201599, Note_on_c, 9, 40, 0
1, 201600, Note_on_c, 9, 35, 80
1, 201839, Note_on_c, 9, 35, 0
1, 201840, Note_on_c, 9, 35, 80
1, 202079, Note_on_c, 9, 35, 0
1, 202080, Note_on_c, 9, 40, 60
1, 202319, Note_on_c, 9, 40, 0
1, 202320, Note_on_c, 9, 40, 60
1, 202559, Note_on_c, 9, 40, 0
1, 202560, Note_on_c, 9, 35, 84
1, 203039, Note_on_c, 9, 35, 0
1, 203040, Note_on_c, 9, 40, 78
1, 203519, Note_on_c, 9, 40, 0
1, 203600, Note_on_c, 9, 35, 96
1, 203760, Note_on_c, 9, 40, 64
1, 203839, Note_on_c, 9, 35, 0
1, 203840, Note_on_c, 9, 43, 121
1, 203999, Note_on_c, 9, 40, 0
1, 203999, Note_on_c, 9, 43, 0
1, 204000, Note_on_c, 9, 47, 125
1, 204119, Note_on_c, 9, 47, 0
1, 204120, Note_on_c, 9, 40, 72
1, 204120, Note_on_c, 9, 50, 125
1, 204179, Note_on_c, 9, 40, 0
1, 204179, Note_on_c, 9, 50, 0
1, 204180, Note_on_c, 9, 50, 125
1, 204180, Note_on_c, 9, 51, 40
1, 204239, Note_on_c, 9, 50, 0
1, 204239, Note_on_c, 9, 51, 0
1, 204240, Note_on_c, 9, 40, 64
1, 204240, Note_on_c, 9, 47, 125
1, 204240, Note_on_c, 9, 28, 74
1, 204479, Note_on_c, 9, 40, 0
1, 204479, Note_on_c, 9, 47, 0
1, 204479, Note_on_c, 9, 28, 0
1, 204480, Note_on_c, 9, 53, 60
1, 204480, Note_on_c, 9, 43, 113
1, 204599, Note_on_c, 9, 43, 0
1, 204600, Note_on_c, 9, 35, 115
1, 204959, Note_on_c, 9, 53, 0
1, 204959, Note_on_c, 9, 35, 0
1, 204960, Note_on_c, 9, 40, 72
1, 204960, Note_on_c, 9, 53, 68
1, 205439, Note_on_c, 9, 40, 0
1, 205439, Note_on_c, 9, 53, 0
1, 205440, Note_on_c, 9, 53, 60
1, 205440, Note_on_c, 9, 35, 90
1, 205679, Note_on_c, 9, 35, 0
1, 205680, Note_on_c, 9, 35, 86
1, 205919, Note_on_c, 9, 53, 0
1, 205919, Note_on_c, 9, 35, 0
1, 205920, Note_on_c, 9, 40, 74
1, 205920, Note_on_c, 9, 53, 60
1, 206159, Note_on_c, 9, 40, 0
1, 206159, Note_on_c, 9, 53, 0
1, 206220, Note_on_c, 9, 35, 92
1, 206235, Note_on_c, 9, 39, 40
1, 206279, Note_on_c, 9, 39, 0
1, 206399, Note_on_c, 9, 35, 0
1, 206400, Note_on_c, 9, 53, 68
1, 206640, Note_on_c, 9, 35, 74
1, 206879, Note_on_c, 9, 53, 0
1, 206879, Note_on_c, 9, 35, 0
1, 206880, Note_on_c, 9, 40, 76
1, 206880, Note_on_c, 9, 53, 56
1, 207359, Note_on_c, 9, 40, 0
1, 207359, Note_on_c, 9, 53, 0
1, 207360, Note_on_c, 9, 53, 56
1, 207440, Note_on_c, 9, 35, 86
1, 207679, Note_on_c, 9, 35, 0
1, 207680, Note_on_c, 9, 35, 84
1, 207839, Note_on_c, 9, 53, 0
1, 207839, Note_on_c, 9, 35, 0
1, 207840, Note_on_c, 9, 40, 74
1, 207959, Note_on_c, 9, 40, 0
1, 207960, Note_on_c, 9, 53, 60
1, 208319, Note_on_c, 9, 53, 0
1, 208320, Note_on_c, 9, 53, 60
1, 208320, Note_on_c, 9, 35, 94
1, 208799, Note_on_c, 9, 53, 0
1, 208799, Note_on_c, 9, 35, 0
1, 208800, Note_on_c, 9, 40, 90
1, 208800, Note_on_c, 9, 53, 64
1, 209279, Note_on_c, 9, 40, 0
1, 209279, Note_on_c, 9, 53, 0
1, 209280, Note_on_c, 9, 53, 52
1, 209280, Note_on_c, 9, 35, 92
1, 209519, Note_on_c, 9, 35, 0
1, 209520, Note_on_c, 9, 35, 92
1, 209759, Note_on_c, 9, 53, 0
1, 209759, Note_on_c, 9, 35, 0
1, 209760, Note_on_c, 9, 40, 100
1, 209760, Note_on_c, 9, 53, 64
1, 210000, Note_on_c, 9, 35, 98
1, 210239, Note_on_c, 9, 40, 0
1, 210239, Note_on_c, 9, 53, 0
1, 210239, Note_on_c, 9, 35, 0
1, 210240, Note_on_c, 9, 53, 56
1, 210480, Note_on_c, 9, 35, 84
1, 210719, Note_on_c, 9, 53, 0
1, 210719, Note_on_c, 9, 35, 0
1, 210720, Note_on_c, 9, 40, 72
1, 210720, Note_on_c, 9, 53, 64
1, 211199, Note_on_c, 9, 40, 0
1, 211199, Note_on_c, 9, 53, 0
1, 211200, Note_on_c, 9, 53, 60
1, 211200, Note_on_c, 9, 35, 86
1, 211439, Note_on_c, 9, 35, 0
1, 211440, Note_on_c, 9, 35, 76
1, 211679, Note_on_c, 9, 53, 0
1, 211679, Note_on_c, 9, 35, 0
1, 211680, Note_on_c, 9, 40, 72
1, 211680, Note_on_c, 9, 53, 56
1, 212159, Note_on_c, 9, 40, 0
1, 212159, Note_on_c, 9, 53, 0
1, 212160, Note_on_c, 9, 53, 64
1, 212160, Note_on_c, 9, 35, 84
1, 212639, Note_on_c, 9, 53, 0
1, 212639, Note_on_c, 9, 35, 0
1, 212640, Note_on_c, 9, 40, 82
1, 212699, Note_on_c, 9, 40, 0
1, 212700, Note_on_c, 9, 53, 68
1, 212879, Note_on_c, 9, 53, 0
1, 213120, Note_on_c, 9, 53, 60
1, 213120, Note_on_c, 9, 35, 84
1, 213359, Note_on_c, 9, 35, 0
1, 213360, Note_on_c, 9, 35, 78
1, 213599, Note_on_c, 9, 53, 0
1, 213599, Note_on_c, 9, 35, 0
1, 213600, Note_on_c, 9, 40, 74
1, 213600, Note_on_c, 9, 53, 56
1, 213659, Note_on_c, 9, 40, 0
1, 213659, Note_on_c, 9, 53, 0
1, 213705, Note_on_c, 9, 39, 40
1, 213719, Note_on_c, 9, 39, 0
1, 213720, Note_on_c, 9, 41, 40
1, 213840, Note_on_c, 9, 35, 86
1, 213929, Note_on_c, 9, 41, 0
1, 213930, Note_on_c, 9, 39, 40
1, 213959, Note_on_c, 9, 39, 0
1, 214079, Note_on_c, 9, 35, 0
1, 214080, Note_on_c, 9, 53, 60
1, 214320, Note_on_c, 9, 35, 82
1, 214559, Note_on_c, 9, 53, 0
1, 214559, Note_on_c, 9, 35, 0
1, 214560, Note_on_c, 9, 40, 72
1, 214560, Note_on_c, 9, 53, 48
1, 215039, Note_on_c, 9, 40, 0
1, 215039, Note_on_c, 9, 53, 0
1, 215040, Note_on_c, 9, 53, 56
1, 215040, Note_on_c, 9, 35, 84
1, 215279, Note_on_c, 9, 35, 0
1, 215340, Note_on_c, 9, 35, 78
1, 215519, Note_on_c, 9, 53, 0
1, 215519, Note_on_c, 9, 35, 0
1, 215520, Note_on_c, 9, 40, 72
1, 215520, Note_on_c, 9, 53, 56
1, 215759, Note_on_c, 9, 40, 0
1, 215759, Note_on_c, 9, 53, 0
1, 215760, Note_on_c, 9, 40, 52
1, 215999, Note_on_c, 9, 40, 0
1, 216000, Note_on_c, 9, 53, 56
1, 216000, Note_on_c, 9, 35, 78
1, 216479, Note_on_c, 9, 53, 0
1, 216479, Note_on_c, 9, 35, 0
1, 216480, Note_on_c, 9, 40, 76
1, 216480, Note_on_c, 9, 53, 56
1, 216959, Note_on_c, 9, 40, 0
1, 216959, Note_on_c, 9, 53, 0
1, 216960, Note_on_c, 9, 53, 56
1, 216960, Note_on_c, 9, 35, 80
1, 217199, Note_on_c, 9, 35, 0
1, 217200, Note_on_c, 9, 35, 70
1, 217439, Note_on_c, 9, 53, 0
1, 217439, Note_on_c, 9, 35, 0
1, 217440, Note_on_c, 9, 40, 72
1, 217440, Note_on_c, 9, 53, 56
1, 217680, Note_on_c, 9, 35, 90
1, 217919, Note_on_c, 9, 40, 0
1, 217919, Note_on_c, 9, 53, 0
1, 217919, Note_on_c, 9, 35, 0
1, 217920, Note_on_c, 9, 53, 60
1, 218160, Note_on_c, 9, 35, 82
1, 218399, Note_on_c, 9, 53, 0
1, 218399, Note_on_c, 9, 35, 0
1, 218400, Note_on_c, 9, 35, 86
1, 218879, Note_on_c, 9, 35, 0
1, 218880, Note_on_c, 9, 47, 125
1, 218880, Note_on_c, 9, 35, 84
1, 219359, Note_on_c, 9, 47, 0
1, 219359, Note_on_c, 9, 35, 0
1, 219360, Note_on_c, 9, 50, 102
1, 219360, Note_on_c, 9, 43, 92
1, 219419, Note_on_c, 9, 50, 0
1, 219465, Note_on_c, 9, 54, 40
1, 219599, Note_on_c, 9, 43, 0
1, 219599, Note_on_c, 9, 54, 0
1, 219600, Note_on_c, 9, 50, 124
1, 219600, Note_on_c, 9, 35, 88
1, 219839, Note_on_c, 9, 50, 0
1, 219839, Note_on_c, 9, 35, 0
1, 219840, Note_on_c, 9, 35, 112
1, 220319, Note_on_c, 9, 35, 0
1, 220320, Note_on_c, 9, 40, 64
1, 220799, Note_on_c, 9, 40, 0
1, 220800, Note_on_c, 9, 35, 82
1, 221039, Note_on_c, 9, 35, 0
1, 221040, Note_on_c, 9, 35, 84
1, 221279, Note_on_c, 9, 35, 0
1, 221280, Note_on_c, 9, 40, 70
1, 221759, Note_on_c, 9, 40, 0
1, 221760, Note_on_c, 9, 35, 98
1, 222239, Note_on_c, 9, 35, 0
1, 222240, Note_on_c, 9, 40, 84
1, 222719, Note_on_c, 9, 40, 0
1, 222720, Note_on_c, 9, 28, 56
1, 222720, Note_on_c, 9, 35, 92
1, 222959, Note_on_c, 9, 35, 0
1, 222960, Note_on_c, 9, 35, 80
1, 223199, Note_on_c, 9, 28, 0
1, 223199, Note_on_c, 9, 35, 0
1, 223200, Note_on_c, 9, 40, 72
1, 223439, Note_on_c, 9, 40, 0
1, 223440, Note_on_c, 9, 40, 70
1, 223679, Note_on_c, 9, 40, 0
1, 223680, Note_on_c, 9, 35, 100
1, 224159, Note_on_c, 9, 35, 0
1, 224160, Note_on_c, 9, 40, 78
1, 224639, Note_on_c, 9, 40, 0
1, 224640, Note_on_c, 9, 35, 88
1, 224879, Note_on_c, 9, 35, 0
1, 224880, Note_on_c, 9, 35, 84
1, 225119, Note_on_c, 9, 35, 0
1, 225120, Note_on_c, 9, 40, 64
1, 225359, Note_on_c, 9, 40, 0
1, 225360, Note_on_c, 9, 40, 64
1, 225599, Note_on_c, 9, 40, 0
1, 225600, Note_on_c, 9, 35, 94
1, 226079, Note_on_c, 9, 35, 0
1, 226080, Note_on_c, 9, 40, 68
1, 226559, Note_on_c, 9, 40, 0
1, 226560, Note_on_c, 9, 47, 125
1, 226560, Note_on_c, 9, 35, 88
1, 226799, Note_on_c, 9, 35, 0
1, 226800, Note_on_c, 9, 35, 94
1, 226800, Note_on_c, 9, 43, 112
1, 227039, Note_on_c, 9, 47, 0
1, 227039, Note_on_c, 9, 35, 0
1, 227039, Note_on_c, 9, 43, 0
1, 227040, Note_on_c, 9, 50, 124
1, 227040, Note_on_c, 9, 44, 68
1, 227279, Note_on_c, 9, 50, 0
1, 227310, Note_on_c, 9, 40, 56
1, 227310, Note_on_c, 9, 50, 125
1, 227310, Note_on_c, 9, 53, 125
1, 227369, Note_on_c, 9, 40, 0
1, 227369, Note_on_c, 9, 50, 0
1, 227399, Note_on_c, 9, 53, 0
1, 227519, Note_on_c, 9, 44, 0
1, 227520, Note_on_c, 9, 35, 86
1, 227999, Note_on_c, 9, 35, 0
1, 228000, Note_on_c, 9, 40, 72
1, 228479, Note_on_c, 9, 40, 0
1, 228480, Note_on_c, 9, 35, 80
1, 228719, Note_on_c, 9, 35, 0
1, 228720, Note_on_c, 9, 35, 72
1, 228959, Note_on_c, 9, 35, 0
1, 228960, Note_on_c, 9, 40, 68
1, 229439, Note_on_c, 9, 40, 0
1, 229440, Note_on_c, 9, 35, 96
1, 229919, Note_on_c, 9, 35, 0
1, 229920, Note_on_c, 9, 40, 90
1, 230399, Note_on_c, 9, 40, 0
1, 230400, Note_on_c, 9, 35, 78
1, 230639, Note_on_c, 9, 35, 0
1, 230640, Note_on_c, 9, 35, 76
1, 230879, Note_on_c, 9, 35, 0
1, 230880, Note_on_c, 9, 40, 60
1, 231119, Note_on_c, 9, 40, 0
1, 231120, Note_on_c, 9, 40, 60
1, 231359, Note_on_c, 9, 40, 0
1, 231360, Note_on_c, 9, 35, 88
1, 231839, Note_on_c, 9, 35, 0
1, 231840, Note_on_c, 9, 40, 80
1, 232319, Note_on_c, 9, 40, 0
1, 232320, Note_on_c, 9, 35, 80
1, 232559, Note_on_c, 9, 35, 0
1, 232560, Note_on_c, 9, 35, 80
1, 232799, Note_on_c, 9, 35, 0
1, 232800, Note_on_c, 9, 40, 60
1, 233039, Note_on_c, 9, 40, 0
1, 233040, Note_on_c, 9, 40, 60
1, 233279, Note_on_c, 9, 40, 0
1, 233280, Note_on_c, 9, 35, 84
1, 233759, Note_on_c, 9, 35, 0
1, 233760, Note_on_c, 9, 40, 78
1, 234239, Note_on_c, 9, 40, 0
1, 234320, Note_on_c, 9, 35, 96
1, 234480, Note_on_c, 9, 40, 64
1, 234559, Note_on_c, 9, 35, 0
1, 234640, Note_on_c, 9, 43, 121
1, 234719, Note_on_c, 9, 40, 0
1, 234719, Note_on_c, 9, 43, 0
1, 234720, Note_on_c, 9, 47, 125
1, 234839, Note_on_c, 9, 47, 0
1, 234840, Note_on_c, 9, 40, 72
1, 234840, Note_on_c, 9, 50, 125
1, 234959, Note_on_c, 9, 40, 0
1, 234959, Note_on_c, 9, 50, 0
1, 235035, Note_on_c, 9, 50, 125
1, 235035, Note_on_c, 9, 51, 40
1, 235079, Note_on_c, 9, 51, 0
1, 235094, Note_on_c, 9, 50, 0
1, 235200, Note_on_c, 9, 47, 125
1, 235200, Note_on_c, 9, 28, 74
1, 235200, Note_on_c, 9, 35, 112
1, 235679, Note_on_c, 9, 47, 0
1, 235679, Note_on_c, 9, 28, 0
1, 235679, Note_on_c, 9, 35, 0
1, 235680, Note_on_c, 9, 40, 64
1, 236159, Note_on_c, 9, 40, 0
1, 236160, Note_on_c, 9, 35, 82
1, 236399, Note_on_c, 9, 35, 0
1, 236400, Note_on_c, 9, 35, 84
1, 236639, Note_on_c, 9, 35, 0
1, 236640, Note_on_c, 9, 40, 70
1, 237119, Note_on_c, 9, 40, 0
1, 237120, Note_on_c, 9, 35, 98
1, 237599, Note_on_c, 9, 35, 0
1, 237600, Note_on_c, 9, 40, 84
1, 238079, Note_on_c, 9, 40, 0
1, 238080, Note_on_c, 9, 28, 56
1, 238080, Note_on_c, 9, 35, 92
1, 238319, Note_on_c, 9, 35, 0
1, 238320, Note_on_c, 9, 35, 80
1, 238559, Note_on_c, 9, 28, 0
1, 238559, Note_on_c, 9, 35, 0
1, 238560, Note_on_c, 9, 40, 72
1, 238799, Note_on_c, 9, 40, 0
1, 238800, Note_on_c, 9, 40, 70
1, 239039, Note_on_c, 9, 40, 0
1, 239040, Note_on_c, 9, 35, 100
1, 239519, Note_on_c, 9, 35, 0
1, 239520, Note_on_c, 9, 40, 78
1, 239999, Note_on_c, 9, 40, 0
1, 240000, Note_on_c, 9, 35, 88
1, 240239, Note_on_c, 9, 35, 0
1, 240240, Note_on_c, 9, 35, 84
1, 240479, Note_on_c, 9, 35, 0
1, 240480, Note_on_c, 9, 40, 64
1, 240719, Note_on_c, 9, 40, 0
1, 240720, Note_on_c, 9, 40, 64
1, 240959, Note_on_c, 9, 40, 0
1, 240960, Note_on_c, 9, 35, 94
1, 241439, Note_on_c, 9, 35, 0
1, 241440, Note_on_c, 9, 40, 68
1, 241919, Note_on_c, 9, 40, 0
1, 241920, Note_on_c, 9, 47, 125
1, 241920, Note_on_c, 9, 35, 88
1, 242159, Note_on_c, 9, 35, 0
1, 242190, Note_on_c, 9, 35, 94
1, 242190, Note_on_c, 9, 43, 112
1, 242249, Note_on_c, 9, 35, 0
1, 242249, Note_on_c, 9, 43, 0
1, 242399, Note_on_c, 9, 47, 0
1, 242400, Note_on_c, 9, 50, 124
1, 242400, Note_on_c, 9, 44, 68
1, 242459, Note_on_c, 9, 50, 0
1, 242460, Note_on_c, 9, 40, 64
1, 242639, Note_on_c, 9, 40, 0
1, 242685, Note_on_c, 9, 40, 56
1, 242685, Note_on_c, 9, 50, 125
1, 242685, Note_on_c, 9, 53, 125
1, 242744, Note_on_c, 9, 40, 0
1, 242744, Note_on_c, 9, 50, 0
1, 242879, Note_on_c, 9, 44, 0
1, 242879, Note_on_c, 9, 53, 0
1, 242880, Note_on_c, 9, 35, 86
1, 243359, Note_on_c, 9, 35, 0
1, 243360, Note_on_c, 9, 40, 72
1, 243839, Note_on_c, 9, 40, 0
1, 243840, Note_on_c, 9, 35, 80
1, 244079, Note_on_c, 9, 35, 0
1, 244080, Note_on_c, 9, 35, 72
1, 244319, Note_on_c, 9, 35, 0
1, 244320, Note_on_c, 9, 40, 68
1, 244799, Note_on_c, 9, 40, 0
1, 244800, Note_on_c, 9, 35, 96
1, 245279, Note_on_c, 9, 35, 0
1, 245280, Note_on_c, 9, 40, 90
1, 245759, Note_on_c, 9, 40, 0
1, 245760, Note_on_c, 9, 35, 78
1, 245999, Note_on_c, 9, 35, 0
1, 246000, Note_on_c, 9, 35, 76
1, 246239, Note_on_c, 9, 35, 0
1, 246240, Note_on_c, 9, 40, 60
1, 246479, Note_on_c, 9, 40, 0
1, 246480, Note_on_c, 9, 40, 60
1, 246719, Note_on_c, 9, 40, 0
1, 246720, Note_on_c, 9, 35, 88
1, 247199, Note_on_c, 9, 35, 0
1, 247200, Note_on_c, 9, 40, 80
1, 247679, Note_on_c, 9, 40, 0
1, 247680, Note_on_c, 9, 35, 80
1, 247919, Note_on_c, 9, 35, 0
1, 247920, Note_on_c, 9, 35, 80
1, 248159, Note_on_c, 9, 35, 0
1, 248160, Note_on_c, 9, 40, 60
1, 248399, Note_on_c, 9, 40, 0
1, 248400, Note_on_c, 9, 40, 60
1, 248639, Note_on_c, 9, 40, 0
1, 248640, Note_on_c, 9, 35, 84
1, 249119, Note_on_c, 9, 35, 0
1, 249120, Note_on_c, 9, 40, 78
1, 249599, Note_on_c, 9, 40, 0
1, 249680, Note_on_c, 9, 35, 96
1, 249960, Note_on_c, 9, 40, 64
1, 249999, Note_on_c, 9, 35, 0
1, 250000, Note_on_c, 9, 43, 121
1, 250079, Note_on_c, 9, 40, 0
1, 250079, Note_on_c, 9, 43, 0
1, 250080, Note_on_c, 9, 47, 125
1, 250199, Note_on_c, 9, 47, 0
1, 250200, Note_on_c, 9, 40, 72
1, 250200, Note_on_c, 9, 50, 125
1, 250439, Note_on_c, 9, 40, 0
1, 250439, Note_on_c, 9, 50, 0
1, 250440, Note_on_c, 9, 43, 113
1, 250455, Note_on_c, 9, 40, 64
1, 250455, Note_on_c, 9, 47, 125
1, 250455, Note_on_c, 9, 28, 74
1, 250455, Note_on_c, 9, 50, 125
1, 250455, Note_on_c, 9, 51, 40
1, 250499, Note_on_c, 9, 51, 0
1, 250514, Note_on_c, 9, 40, 0
1, 250514, Note_on_c, 9, 47, 0
1, 250514, Note_on_c, 9, 28, 0
1, 250514, Note_on_c, 9, 50, 0
1, 250559, Note_on_c, 9, 43, 0
1, 250560, Note_on_c, 9, 35, 125
1, 251039, Note_on_c, 9, 35, 0
1, 251040, Note_on_c, 9, 69, 106
1, 251519, Note_on_c, 9, 69, 0
1, 251520, Note_on_c, 9, 69, 88
1, 251999, Note_on_c, 9, 69, 0
1, 252000, Note_on_c, 9, 69, 84
1, 252479, Note_on_c, 9, 69, 0
1, 252480, Note_on_c, 9, 69, 74
1, 252480, Note_on_c, 9, 35, 125
1, 252659, Note_on_c, 9, 69, 0
1, 252660, Note_on_c, 9, 28, 60
1, 252660, Note_on_c, 9, 34, 125
1, 252719, Note_on_c, 9, 35, 0
1, 252719, Note_on_c, 9, 28, 0
1, 252719, Note_on_c, 9, 34, 0
1, 252720, Note_on_c, 9, 35, 125
1, 252959, Note_on_c, 9, 35, 0
1, 252960, Note_on_c, 9, 69, 78
1, 253439, Note_on_c, 9, 69, 0
1, 253440, Note_on_c, 9, 69, 82
1, 253919, Note_on_c, 9, 69, 0
1, 253920, Note_on_c, 9, 69, 72
1, 254399, Note_on_c, 9, 69, 0
1, 254400, Note_on_c, 9, 69, 74
1, 254400, Note_on_c, 9, 35, 125
1, 254879, Note_on_c, 9, 69, 0
1, 254879, Note_on_c, 9, 35, 0
1, 254880, Note_on_c, 9, 69, 74
1, 255359, Note_on_c, 9, 69, 0
1, 255360, Note_on_c, 9, 69, 74
1, 255839, Note_on_c, 9, 69, 0
1, 255840, Note_on_c, 9, 69, 72
1, 256319, Note_on_c, 9, 69, 0
1, 256320, Note_on_c, 9, 69, 78
1, 256320, Note_on_c, 9, 35, 126
1, 256499, Note_on_c, 9, 69, 0
1, 256530, Note_on_c, 9, 28, 64
1, 256530, Note_on_c, 9, 39, 40
1, 256559, Note_on_c, 9, 35, 0
1, 256559, Note_on_c, 9, 39, 0
1, 256560, Note_on_c, 9, 35, 125
1, 256649, Note_on_c, 9, 28, 0
1, 256799, Note_on_c, 9, 35, 0
1, 256800, Note_on_c, 9, 69, 68
1, 257279, Note_on_c, 9, 69, 0
1, 257280, Note_on_c, 9, 69, 76
1, 257759, Note_on_c, 9, 69, 0
1, 257760, Note_on_c, 9, 69, 72
1, 258239, Note_on_c, 9, 69, 0
1, 258240, Note_on_c, 9, 69, 72
1, 258240, Note_on_c, 9, 35, 126
1, 258719, Note_on_c, 9, 69, 0
1, 258719, Note_on_c, 9, 35, 0
1, 258720, Note_on_c, 9, 69, 78
1, 259199, Note_on_c, 9, 69, 0
1, 259200, Note_on_c, 9, 69, 82
1, 259679, Note_on_c, 9, 69, 0
1, 259680, Note_on_c, 9, 69, 72
1, 260159, Note_on_c, 9, 69, 0
1, 260160, Note_on_c, 9, 69, 76
1, 260160, Note_on_c, 9, 35, 125
1, 260339, Note_on_c, 9, 69, 0
1, 260385, Note_on_c, 9, 41, 64
1, 260385, Note_on_c, 9, 28, 60
1, 260399, Note_on_c, 9, 35, 0
1, 260400, Note_on_c, 9, 35, 125
1, 260624, Note_on_c, 9, 28, 0
1, 260639, Note_on_c, 9, 41, 0
1, 260639, Note_on_c, 9, 35, 0
1, 260640, Note_on_c, 9, 69, 78
1, 261119, Note_on_c, 9, 69, 0
1, 261120, Note_on_c, 9, 69, 78
1, 261599, Note_on_c, 9, 69, 0
1, 261600, Note_on_c, 9, 69, 70
1, 262079, Note_on_c, 9, 69, 0
1, 262080, Note_on_c, 9, 69, 78
1, 262080, Note_on_c, 9, 35, 125
1, 262559, Note_on_c, 9, 69, 0
1, 262559, Note_on_c, 9, 35, 0
1, 262560, Note_on_c, 9, 69, 74
1, 263039, Note_on_c, 9, 69, 0
1, 263040, Note_on_c, 9, 69, 80
1, 263519, Note_on_c, 9, 69, 0
1, 263520, Note_on_c, 9, 69, 70
1, 263879, Note_on_c, 9, 69, 0
1, 263880, Note_on_c, 9, 69, 72
1, 263999, Note_on_c, 9, 69, 0
1, 264000, Note_on_c, 9, 28, 60
1, 264000, Note_on_c, 9, 35, 125
1, 264239, Note_on_c, 9, 28, 0
1, 264239, Note_on_c, 9, 35, 0
1, 264240, Note_on_c, 9, 40, 74
1, 264240, Note_on_c, 9, 35, 125
1, 264479, Note_on_c, 9, 40, 0
1, 264479, Note_on_c, 9, 35, 0
1, 264480, Note_on_c, 9, 69, 74
1, 264539, Note_on_c, 9, 69, 0
1, 264540, Note_on_c, 9, 29, 24
1, 264719, Note_on_c, 9, 29, 0
1, 264960, Note_on_c, 9, 69, 80
1, 265200, Note_on_c, 9, 43, 125
1, 265319, Note_on_c, 9, 43, 0
1, 265320, Note_on_c, 9, 43, 125
1, 265439, Note_on_c, 9, 69, 0
1, 265439, Note_on_c, 9, 43, 0
1, 265440, Note_on_c, 9, 48, 126
1, 265440, Note_on_c, 9, 69, 76
1, 265680, Note_on_c, 9, 43, 125
1, 265799, Note_on_c, 9, 48, 0
1, 265799, Note_on_c, 9, 69, 0
1, 265800, Note_on_c, 9, 69, 70
1, 265919, Note_on_c, 9, 43, 0
1, 265919, Note_on_c, 9, 69, 0
1, 265920, Note_on_c, 9, 43, 125
1, 265959, Note_on_c, 9, 43, 0
1, 265960, Note_on_c, 9, 35, 125
1, 266039, Note_on_c, 9, 35, 0
1, 266400, Note_on_c, 9, 69, 106
1, 266879, Note_on_c, 9, 69, 0
1, 266880, Note_on_c, 9, 69, 88
1, 267359, Note_on_c, 9, 69, 0
1, 267360, Note_on_c, 9, 69, 84
1, 267839, Note_on_c, 9, 69, 0
1, 267840, Note_on_c, 9, 69, 74
1, 267840, Note_on_c, 9, 35, 125
1, 267999, Note_on_c, 9, 35, 0
1, 268000, Note_on_c, 9, 35, 125
1, 268019, Note_on_c, 9, 69, 0
1, 268020, Note_on_c, 9, 28, 60
1, 268020, Note_on_c, 9, 34, 125
1, 268079, Note_on_c, 9, 28, 0
1, 268079, Note_on_c, 9, 34, 0
1, 268319, Note_on_c, 9, 35, 0
1, 268320, Note_on_c, 9, 69, 78
1, 268799, Note_on_c, 9, 69, 0
1, 268800, Note_on_c, 9, 69, 82
1, 269279, Note_on_c, 9, 69, 0
1, 269280, Note_on_c, 9, 69, 72
1, 269759, Note_on_c, 9, 69, 0
1, 269760, Note_on_c, 9, 69, 74
1, 269760, Note_on_c, 9, 35, 125
1, 270239, Note_on_c, 9, 69, 0
1, 270239, Note_on_c, 9, 35, 0
1, 270240, Note_on_c, 9, 69, 74
1, 270719, Note_on_c, 9, 69, 0
1, 270720, Note_on_c, 9, 69, 74
1, 271199, Note_on_c, 9, 69, 0
1, 271200, Note_on_c, 9, 69, 72
1, 271679, Note_on_c, 9, 69, 0
1, 271680, Note_on_c, 9, 69, 78
1, 271680, Note_on_c, 9, 35, 126
1, 271859, Note_on_c, 9, 69, 0
1, 271905, Note_on_c, 9, 28, 64
1, 271905, Note_on_c, 9, 39, 40
1, 271919, Note_on_c, 9, 35, 0
1, 271920, Note_on_c, 9, 35, 125
1, 272144, Note_on_c, 9, 28, 0
1, 272159, Note_on_c, 9, 39, 0
1, 272159, Note_on_c, 9, 35, 0
1, 272160, Note_on_c, 9, 69, 68
1, 272639, Note_on_c, 9, 69, 0
1, 272640, Note_on_c, 9, 69, 76
1, 273119, Note_on_c, 9, 69, 0
1, 273120, Note_on_c, 9, 69, 72
1, 273599, Note_on_c, 9, 69, 0
1, 273600, Note_on_c, 9, 69, 72
1, 273600, Note_on_c, 9, 35, 126
1, 274079, Note_on_c, 9, 69, 0
1, 274079, Note_on_c, 9, 35, 0
1, 274080, Note_on_c, 9, 69, 78
1, 274559, Note_on_c, 9, 69, 0
1, 274560, Note_on_c, 9, 69, 82
1, 275039, Note_on_c, 9, 69, 0
1, 275040, Note_on_c, 9, 69, 72
1, 275519, Note_on_c, 9, 69, 0
1, 275520, Note_on_c, 9, 69, 76
1, 275520, Note_on_c, 9, 35, 125
1, 275679, Note_on_c, 9, 35, 0
1, 275680, Note_on_c, 9, 35, 125
1, 275699, Note_on_c, 9, 69, 0
1, 275700, Note_on_c, 9, 41, 64
1, 275700, Note_on_c, 9, 28, 60
1, 275759, Note_on_c, 9, 41, 0
1, 275759, Note_on_c, 9, 28, 0
1, 275999, Note_on_c, 9, 35, 0
1, 276000, Note_on_c, 9, 69, 78
1, 276479, Note_on_c, 9, 69, 0
1, 276480, Note_on_c, 9, 69, 78
1, 276959, Note_on_c, 9, 69, 0
1, 276960, Note_on_c, 9, 69, 70
1, 277439, Note_on_c, 9, 69, 0
1, 277440, Note_on_c, 9, 69, 78
1, 277440, Note_on_c, 9, 35, 125
1, 277919, Note_on_c, 9, 69, 0
1, 277919, Note_on_c, 9, 35, 0
1, 277920, Note_on_c, 9, 69, 74
1, 278399, Note_on_c, 9, 69, 0
1, 278400, Note_on_c, 9, 69, 80
1, 278879, Note_on_c, 9, 69, 0
1, 278880, Note_on_c, 9, 69, 70
1, 279359, Note_on_c, 9, 69, 0
1, 279360, Note_on_c, 9, 69, 72
1, 279360, Note_on_c, 9, 35, 125
1, 279539, Note_on_c, 9, 69, 0
1, 279570, Note_on_c, 9, 40, 74
1, 279570, Note_on_c, 9, 28, 60
1, 279599, Note_on_c, 9, 35, 0
1, 279600, Note_on_c, 9, 35, 125
1, 279689, Note_on_c, 9, 40, 0
1, 279689, Note_on_c, 9, 28, 0
1, 279839, Note_on_c, 9, 35, 0
1, 279840, Note_on_c, 9, 69, 74
1, 279899, Note_on_c, 9, 69, 0
1, 279900, Note_on_c, 9, 29, 24
1, 280079, Note_on_c, 9, 29, 0
1, 280320, Note_on_c, 9, 69, 80
1, 280560, Note_on_c, 9, 43, 125
1, 280679, Note_on_c, 9, 43, 0
1, 280680, Note_on_c, 9, 43, 125
1, 280799, Note_on_c, 9, 69, 0
1, 280799, Note_on_c, 9, 43, 0
1, 280800, Note_on_c, 9, 48, 126
1, 280800, Note_on_c, 9, 69, 76
1, 281040, Note_on_c, 9, 43, 125
1, 281279, Note_on_c, 9, 48, 0
1, 281279, Note_on_c, 9, 69, 0
1, 281279, Note_on_c, 9, 43, 0
1, 281280, Note_on_c, 9, 69, 70
1, 281280, Note_on_c, 9, 43, 125
1, 281759, Note_on_c, 9, 69, 0
1, 281759, Note_on_c, 9, 43, 0
1, 281760, End_track
0, 0, End_of_file
