0, 0, Header, 1, 1, 480
1, 0, Start_track
1, 0, Time_signature, 4, 2, 24, 8
1, 0, Key_signature, 0, "major"
1, 0, Tempo, 638298
1, 0, Control_c, 9, 121, 0
1, 0, Program_c, 9, 0
1, 0, Control_c, 9, 7, 127
1, 0, Control_c, 9, 10, 64
1, 0, Control_c, 9, 91, 0
1, 0, Control_c, 9, 93, 0
1, 0, MIDI_port, 0
1, 0, Note_on_c, 9, 42, 90
1, 479, Note_on_c, 9, 42, 0
1, 960, Note_on_c, 9, 42, 90
1, 1439, Note_on_c, 9, 42, 0
1, 1920, Note_on_c, 9, 42, 90
1, 2399, Note_on_c, 9, 42, 0
1, 2400, Note_on_c, 9, 42, 90
1, 2879, Note_on_c, 9, 42, 0
1, 2880, Note_on_c, 9, 42, 90
1, 3359, Note_on_c, 9, 42, 0
1, 3360, Note_on_c, 9, 42, 90
1, 3839, Note_on_c, 9, 42, 0
1, 65040, Note_on_c, 9, 45, 50
1, 65040, Note_on_c, 9, 46, 99
1, 65279, Note_on_c, 9, 45, 0
1, 65279, Note_on_c, 9, 46, 0
1, 65280, Note_on_c, 9, 42, 1
1, 65280, Note_on_c, 9, 36, 123
1, 65759, Note_on_c, 9, 42, 0
1, 65759, Note_on_c, 9, 36, 0
1, 65760, Note_on_c, 9, 42, 99
1, 66000, Note_on_c, 9, 36, 99
1, 66119, Note_on_c, 9, 42, 0
1, 66119, Note_on_c, 9, 36, 0
1, 66120, Note_on_c, 9, 42, 80
1, 66120, Note_on_c, 9, 36, 123
1, 66239, Note_on_c, 9, 42, 0
1, 66239, Note_on_c, 9, 36, 0
1, 66240, Note_on_c, 9, 42, 99
1, 66479, Note_on_c, 9, 42, 0
1, 66480, Note_on_c, 9, 42, 99
1, 66480, Note_on_c, 9, 36, 123
1, 66719, Note_on_c, 9, 42, 0
1, 66719, Note_on_c, 9, 36, 0
1, 66720, Note_on_c, 9, 33, 123
1, 66720, Note_on_c, 9, 42, 99
1, 66959, Note_on_c, 9, 33, 0
1, 66959, Note_on_c, 9, 42, 0
1, 66960, Note_on_c, 9, 42, 99
1, 67079, Note_on_c, 9, 42, 0
1, 67080, Note_on_c, 9, 42, 80
1, 67199, Note_on_c, 9, 42, 0
1, 67200, Note_on_c, 9, 42, 99
1, 67200, Note_on_c, 9, 36, 123
1, 67319, Note_on_c, 9, 36, 0
1, 67320, Note_on_c, 9, 36, 123
1, 67679, Note_on_c, 9, 42, 0
1, 67679, Note_on_c, 9, 36, 0
1, 67680, Note_on_c, 9, 42, 99
1, 67919, Note_on_c, 9, 42, 0
1, 67920, Note_on_c, 9, 42, 99
1, 67920, Note_on_c, 9, 36, 99
1, 68039, Note_on_c, 9, 42, 0
1, 68039, Note_on_c, 9, 36, 0
1, 68040, Note_on_c, 9, 42, 80
1, 68040, Note_on_c, 9, 36, 123
1, 68159, Note_on_c, 9, 42, 0
1, 68159, Note_on_c, 9, 36, 0
1, 68160, Note_on_c, 9, 42, 99
1, 68399, Note_on_c, 9, 42, 0
1, 68400, Note_on_c, 9, 42, 99
1, 68400, Note_on_c, 9, 36, 123
1, 68639, Note_on_c, 9, 42, 0
1, 68639, Note_on_c, 9, 36, 0
1, 68640, Note_on_c, 9, 33, 123
1, 68640, Note_on_c, 9, 42, 99
1, 68879, Note_on_c, 9, 33, 0
1, 68879, Note_on_c, 9, 42, 0
1, 68880, Note_on_c, 9, 42, 99
1, 69119, Note_on_c, 9, 42, 0
1, 69120, Note_on_c, 9, 46, 99
1, 69120, Note_on_c, 9, 36, 123
1, 69359, Note_on_c, 9, 46, 0
1, 69360, Note_on_c, 9, 42, 99
1, 69599, Note_on_c, 9, 36, 0
1, 69599, Note_on_c, 9, 42, 0
1, 69600, Note_on_c, 9, 42, 99
1, 69839, Note_on_c, 9, 42, 0
1, 69840, Note_on_c, 9, 42, 80
1, 69959, Note_on_c, 9, 42, 0
1, 69960, Note_on_c, 9, 42, 80
1, 69960, Note_on_c, 9, 36, 123
1, 70079, Note_on_c, 9, 42, 0
1, 70079, Note_on_c, 9, 36, 0
1, 70080, Note_on_c, 9, 42, 99
1, 70319, Note_on_c, 9, 42, 0
1, 70320, Note_on_c, 9, 42, 99
1, 70320, Note_on_c, 9, 36, 123
1, 70559, Note_on_c, 9, 42, 0
1, 70559, Note_on_c, 9, 36, 0
1, 70560, Note_on_c, 9, 33, 123
1, 70560, Note_on_c, 9, 42, 99
1, 70799, Note_on_c, 9, 33, 0
1, 70799, Note_on_c, 9, 42, 0
1, 70800, Note_on_c, 9, 42, 99
1, 71039, Note_on_c, 9, 42, 0
1, 71040, Note_on_c, 9, 42, 99
1, 71160, Note_on_c, 9, 36, 123
1, 71279, Note_on_c, 9, 42, 0
1, 71280, Note_on_c, 9, 42, 99
1, 71519, Note_on_c, 9, 36, 0
1, 71519, Note_on_c, 9, 42, 0
1, 71520, Note_on_c, 9, 42, 99
1, 71759, Note_on_c, 9, 42, 0
1, 71760, Note_on_c, 9, 42, 99
1, 71879, Note_on_c, 9, 42, 0
1, 71880, Note_on_c, 9, 42, 80
1, 71880, Note_on_c, 9, 36, 123
1, 71999, Note_on_c, 9, 42, 0
1, 71999, Note_on_c, 9, 36, 0
1, 72000, Note_on_c, 9, 42, 99
1, 72239, Note_on_c, 9, 42, 0
1, 72240, Note_on_c, 9, 42, 99
1, 72240, Note_on_c, 9, 36, 123
1, 72479, Note_on_c, 9, 42, 0
1, 72479, Note_on_c, 9, 36, 0
1, 72480, Note_on_c, 9, 33, 123
1, 72480, Note_on_c, 9, 42, 99
1, 72719, Note_on_c, 9, 33, 0
1, 72719, Note_on_c, 9, 42, 0
1, 72720, Note_on_c, 9, 42, 99
1, 72959, Note_on_c, 9, 42, 0
1, 72960, Note_on_c, 9, 46, 99
1, 72960, Note_on_c, 9, 36, 123
1, 73199, Note_on_c, 9, 46, 0
1, 73200, Note_on_c, 9, 42, 99
1, 73439, Note_on_c, 9, 36, 0
1, 73439, Note_on_c, 9, 42, 0
1, 73440, Note_on_c, 9, 42, 99
1, 73680, Note_on_c, 9, 36, 99
1, 73799, Note_on_c, 9, 36, 0
1, 73800, Note_on_c, 9, 36, 123
1, 73919, Note_on_c, 9, 42, 0
1, 73919, Note_on_c, 9, 36, 0
1, 73920, Note_on_c, 9, 42, 99
1, 74159, Note_on_c, 9, 42, 0
1, 74160, Note_on_c, 9, 42, 99
1, 74160, Note_on_c, 9, 36, 123
1, 74399, Note_on_c, 9, 42, 0
1, 74399, Note_on_c, 9, 36, 0
1, 74400, Note_on_c, 9, 33, 123
1, 74400, Note_on_c, 9, 42, 99
1, 74639, Note_on_c, 9, 33, 0
1, 74639, Note_on_c, 9, 42, 0
1, 74640, Note_on_c, 9, 42, 99
1, 74759, Note_on_c, 9, 42, 0
1, 74760, Note_on_c, 9, 42, 80
1, 74879, Note_on_c, 9, 42, 0
1, 74880, Note_on_c, 9, 42, 99
1, 74880, Note_on_c, 9, 36, 123
1, 74999, Note_on_c, 9, 36, 0
1, 75000, Note_on_c, 9, 36, 123
1, 75119, Note_on_c, 9, 42, 0
1, 75120, Note_on_c, 9, 42, 99
1, 75359, Note_on_c, 9, 36, 0
1, 75359, Note_on_c, 9, 42, 0
1, 75360, Note_on_c, 9, 42, 99
1, 75599, Note_on_c, 9, 42, 0
1, 75600, Note_on_c, 9, 42, 99
1, 75600, Note_on_c, 9, 36, 99
1, 75719, Note_on_c, 9, 42, 0
1, 75719, Note_on_c, 9, 36, 0
1, 75720, Note_on_c, 9, 42, 80
1, 75720, Note_on_c, 9, 36, 123
1, 75839, Note_on_c, 9, 42, 0
1, 75839, Note_on_c, 9, 36, 0
1, 75840, Note_on_c, 9, 42, 99
1, 76079, Note_on_c, 9, 42, 0
1, 76080, Note_on_c, 9, 42, 99
1, 76080, Note_on_c, 9, 36, 123
1, 76319, Note_on_c, 9, 42, 0
1, 76319, Note_on_c, 9, 36, 0
1, 76320, Note_on_c, 9, 33, 123
1, 76320, Note_on_c, 9, 42, 99
1, 76559, Note_on_c, 9, 33, 0
1, 76559, Note_on_c, 9, 42, 0
1, 76560, Note_on_c, 9, 42, 99
1, 76799, Note_on_c, 9, 42, 0
1, 76800, Note_on_c, 9, 46, 99
1, 76800, Note_on_c, 9, 36, 123
1, 77039, Note_on_c, 9, 46, 0
1, 77040, Note_on_c, 9, 42, 99
1, 77279, Note_on_c, 9, 36, 0
1, 77279, Note_on_c, 9, 42, 0
1, 77280, Note_on_c, 9, 42, 99
1, 77519, Note_on_c, 9, 42, 0
1, 77520, Note_on_c, 9, 42, 80
1, 77639, Note_on_c, 9, 42, 0
1, 77640, Note_on_c, 9, 42, 80
1, 77640, Note_on_c, 9, 36, 123
1, 77759, Note_on_c, 9, 42, 0
1, 77759, Note_on_c, 9, 36, 0
1, 77760, Note_on_c, 9, 42, 99
1, 77999, Note_on_c, 9, 42, 0
1, 78000, Note_on_c, 9, 42, 99
1, 78000, Note_on_c, 9, 36, 123
1, 78239, Note_on_c, 9, 42, 0
1, 78239, Note_on_c, 9, 36, 0
1, 78240, Note_on_c, 9, 33, 123
1, 78240, Note_on_c, 9, 42, 99
1, 78479, Note_on_c, 9, 33, 0
1, 78479, Note_on_c, 9, 42, 0
1, 78480, Note_on_c, 9, 42, 99
1, 78599, Note_on_c, 9, 42, 0
1, 78600, Note_on_c, 9, 42, 99
1, 78719, Note_on_c, 9, 42, 0
1, 78720, Note_on_c, 9, 42, 99
1, 78840, Note_on_c, 9, 36, 123
1, 78959, Note_on_c, 9, 42, 0
1, 78960, Note_on_c, 9, 42, 99
1, 79199, Note_on_c, 9, 36, 0
1, 79199, Note_on_c, 9, 42, 0
1, 79200, Note_on_c, 9, 42, 99
1, 79439, Note_on_c, 9, 42, 0
1, 79440, Note_on_c, 9, 42, 99
1, 79440, Note_on_c, 9, 36, 123
1, 79559, Note_on_c, 9, 42, 0
1, 79559, Note_on_c, 9, 36, 0
1, 79560, Note_on_c, 9, 42, 80
1, 79560, Note_on_c, 9, 36, 123
1, 79679, Note_on_c, 9, 42, 0
1, 79679, Note_on_c, 9, 36, 0
1, 79680, Note_on_c, 9, 42, 99
1, 79799, Note_on_c, 9, 42, 0
1, 79800, Note_on_c, 9, 42, 99
1, 79919, Note_on_c, 9, 42, 0
1, 79920, Note_on_c, 9, 42, 99
1, 79920, Note_on_c, 9, 36, 123
1, 80039, Note_on_c, 9, 42, 0
1, 80040, Note_on_c, 9, 42, 99
1, 80159, Note_on_c, 9, 36, 0
1, 80159, Note_on_c, 9, 42, 0
1, 80160, Note_on_c, 9, 47, 50
1, 80279, Note_on_c, 9, 47, 0
1, 80280, Note_on_c, 9, 33, 123
1, 80639, Note_on_c, 9, 33, 0
1, 80640, Note_on_c, 9, 42, 99
1, 80640, Note_on_c, 9, 36, 123
1, 81119, Note_on_c, 9, 42, 0
1, 81119, Note_on_c, 9, 36, 0
1, 81120, Note_on_c, 9, 42, 99
1, 81360, Note_on_c, 9, 36, 99
1, 81479, Note_on_c, 9, 42, 0
1, 81479, Note_on_c, 9, 36, 0
1, 81480, Note_on_c, 9, 42, 80
1, 81480, Note_on_c, 9, 36, 123
1, 81599, Note_on_c, 9, 42, 0
1, 81599, Note_on_c, 9, 36, 0
1, 81600, Note_on_c, 9, 42, 99
1, 81839, Note_on_c, 9, 42, 0
1, 81840, Note_on_c, 9, 42, 99
1, 81840, Note_on_c, 9, 36, 123
1, 82079, Note_on_c, 9, 42, 0
1, 82079, Note_on_c, 9, 36, 0
1, 82080, Note_on_c, 9, 33, 123
1, 82080, Note_on_c, 9, 42, 99
1, 82319, Note_on_c, 9, 33, 0
1, 82319, Note_on_c, 9, 42, 0
1, 82320, Note_on_c, 9, 42, 99
1, 82439, Note_on_c, 9, 42, 0
1, 82440, Note_on_c, 9, 42, 80
1, 82559, Note_on_c, 9, 42, 0
1, 82560, Note_on_c, 9, 42, 99
1, 82680, Note_on_c, 9, 36, 123
1, 83039, Note_on_c, 9, 42, 0
1, 83039, Note_on_c, 9, 36, 0
1, 83040, Note_on_c, 9, 42, 99
1, 83279, Note_on_c, 9, 42, 0
1, 83280, Note_on_c, 9, 42, 99
1, 83399, Note_on_c, 9, 42, 0
1, 83400, Note_on_c, 9, 42, 80
1, 83400, Note_on_c, 9, 36, 123
1, 83519, Note_on_c, 9, 42, 0
1, 83519, Note_on_c, 9, 36, 0
1, 83520, Note_on_c, 9, 42, 99
1, 83759, Note_on_c, 9, 42, 0
1, 83760, Note_on_c, 9, 42, 99
1, 83760, Note_on_c, 9, 36, 123
1, 83999, Note_on_c, 9, 42, 0
1, 83999, Note_on_c, 9, 36, 0
1, 84000, Note_on_c, 9, 33, 123
1, 84000, Note_on_c, 9, 42, 99
1, 84239, Note_on_c, 9, 33, 0
1, 84239, Note_on_c, 9, 42, 0
1, 84240, Note_on_c, 9, 42, 99
1, 84359, Note_on_c, 9, 42, 0
1, 84360, Note_on_c, 9, 42, 99
1, 84479, Note_on_c, 9, 42, 0
1, 84480, Note_on_c, 9, 42, 99
1, 84480, Note_on_c, 9, 36, 123
1, 84959, Note_on_c, 9, 42, 0
1, 84959, Note_on_c, 9, 36, 0
1, 84960, Note_on_c, 9, 42, 99
1, 85320, Note_on_c, 9, 36, 123
1, 85439, Note_on_c, 9, 42, 0
1, 85439, Note_on_c, 9, 36, 0
1, 85440, Note_on_c, 9, 42, 99
1, 85680, Note_on_c, 9, 36, 123
1, 85919, Note_on_c, 9, 42, 0
1, 85919, Note_on_c, 9, 36, 0
1, 85920, Note_on_c, 9, 33, 123
1, 85920, Note_on_c, 9, 42, 99
1, 86159, Note_on_c, 9, 33, 0
1, 86159, Note_on_c, 9, 42, 0
1, 86160, Note_on_c, 9, 42, 99
1, 86399, Note_on_c, 9, 42, 0
1, 86400, Note_on_c, 9, 42, 99
1, 86400, Note_on_c, 9, 36, 123
1, 86519, Note_on_c, 9, 36, 0
1, 86520, Note_on_c, 9, 36, 123
1, 86639, Note_on_c, 9, 42, 0
1, 86640, Note_on_c, 9, 42, 99
1, 86879, Note_on_c, 9, 36, 0
1, 86879, Note_on_c, 9, 42, 0
1, 86880, Note_on_c, 9, 42, 99
1, 87119, Note_on_c, 9, 42, 0
1, 87120, Note_on_c, 9, 42, 99
1, 87120, Note_on_c, 9, 36, 99
1, 87239, Note_on_c, 9, 42, 0
1, 87239, Note_on_c, 9, 36, 0
1, 87240, Note_on_c, 9, 42, 80
1, 87240, Note_on_c, 9, 36, 123
1, 87359, Note_on_c, 9, 42, 0
1, 87359, Note_on_c, 9, 36, 0
1, 87360, Note_on_c, 9, 42, 99
1, 87599, Note_on_c, 9, 42, 0
1, 87600, Note_on_c, 9, 42, 99
1, 87600, Note_on_c, 9, 36, 123
1, 87839, Note_on_c, 9, 42, 0
1, 87839, Note_on_c, 9, 36, 0
1, 87840, Note_on_c, 9, 33, 123
1, 87840, Note_on_c, 9, 42, 99
1, 88079, Note_on_c, 9, 33, 0
1, 88079, Note_on_c, 9, 42, 0
1, 88080, Note_on_c, 9, 42, 99
1, 88319, Note_on_c, 9, 42, 0
1, 88320, Note_on_c, 9, 46, 99
1, 88320, Note_on_c, 9, 36, 123
1, 88679, Note_on_c, 9, 46, 0
1, 88680, Note_on_c, 9, 42, 99
1, 88799, Note_on_c, 9, 36, 0
1, 88799, Note_on_c, 9, 42, 0
1, 88800, Note_on_c, 9, 42, 99
1, 89040, Note_on_c, 9, 36, 99
1, 89159, Note_on_c, 9, 42, 0
1, 89159, Note_on_c, 9, 36, 0
1, 89160, Note_on_c, 9, 42, 80
1, 89160, Note_on_c, 9, 36, 123
1, 89279, Note_on_c, 9, 42, 0
1, 89279, Note_on_c, 9, 36, 0
1, 89280, Note_on_c, 9, 42, 99
1, 89519, Note_on_c, 9, 42, 0
1, 89520, Note_on_c, 9, 42, 99
1, 89520, Note_on_c, 9, 36, 123
1, 89759, Note_on_c, 9, 42, 0
1, 89759, Note_on_c, 9, 36, 0
1, 89760, Note_on_c, 9, 33, 123
1, 89760, Note_on_c, 9, 42, 99
1, 89999, Note_on_c, 9, 33, 0
1, 89999, Note_on_c, 9, 42, 0
1, 90000, Note_on_c, 9, 42, 99
1, 90239, Note_on_c, 9, 42, 0
1, 90240, Note_on_c, 9, 42, 99
1, 90360, Note_on_c, 9, 36, 123
1, 90719, Note_on_c, 9, 42, 0
1, 90719, Note_on_c, 9, 36, 0
1, 90720, Note_on_c, 9, 42, 99
1, 90959, Note_on_c, 9, 42, 0
1, 90960, Note_on_c, 9, 42, 99
1, 91079, Note_on_c, 9, 42, 0
1, 91080, Note_on_c, 9, 42, 80
1, 91080, Note_on_c, 9, 36, 123
1, 91199, Note_on_c, 9, 42, 0
1, 91199, Note_on_c, 9, 36, 0
1, 91200, Note_on_c, 9, 42, 99
1, 91439, Note_on_c, 9, 42, 0
1, 91440, Note_on_c, 9, 42, 99
1, 91440, Note_on_c, 9, 36, 123
1, 91559, Note_on_c, 9, 42, 0
1, 91560, Note_on_c, 9, 42, 99
1, 91679, Note_on_c, 9, 36, 0
1, 91679, Note_on_c, 9, 42, 0
1, 91680, Note_on_c, 9, 33, 123
1, 91680, Note_on_c, 9, 42, 99
1, 91919, Note_on_c, 9, 33, 0
1, 91919, Note_on_c, 9, 42, 0
1, 91920, Note_on_c, 9, 42, 99
1, 92159, Note_on_c, 9, 42, 0
1, 92160, Note_on_c, 9, 46, 99
1, 92160, Note_on_c, 9, 36, 123
1, 92399, Note_on_c, 9, 46, 0
1, 92400, Note_on_c, 9, 42, 99
1, 92639, Note_on_c, 9, 36, 0
1, 92639, Note_on_c, 9, 42, 0
1, 92640, Note_on_c, 9, 42, 99
1, 92879, Note_on_c, 9, 42, 0
1, 92880, Note_on_c, 9, 42, 80
1, 92999, Note_on_c, 9, 42, 0
1, 93000, Note_on_c, 9, 42, 80
1, 93000, Note_on_c, 9, 36, 123
1, 93119, Note_on_c, 9, 42, 0
1, 93119, Note_on_c, 9, 36, 0
1, 93120, Note_on_c, 9, 42, 99
1, 93359, Note_on_c, 9, 42, 0
1, 93360, Note_on_c, 9, 42, 99
1, 93360, Note_on_c, 9, 36, 123
1, 93599, Note_on_c, 9, 42, 0
1, 93599, Note_on_c, 9, 36, 0
1, 93600, Note_on_c, 9, 33, 123
1, 93600, Note_on_c, 9, 42, 99
1, 93839, Note_on_c, 9, 33, 0
1, 93839, Note_on_c, 9, 42, 0
1, 93840, Note_on_c, 9, 42, 99
1, 94079, Note_on_c, 9, 42, 0
1, 94080, Note_on_c, 9, 42, 99
1, 94080, Note_on_c, 9, 36, 123
1, 94199, Note_on_c, 9, 36, 0
1, 94200, Note_on_c, 9, 36, 123
1, 94319, Note_on_c, 9, 42, 0
1, 94320, Note_on_c, 9, 42, 99
1, 94559, Note_on_c, 9, 36, 0
1, 94559, Note_on_c, 9, 42, 0
1, 94560, Note_on_c, 9, 42, 99
1, 94560, Note_on_c, 9, 36, 123
1, 94799, Note_on_c, 9, 42, 0
1, 94800, Note_on_c, 9, 42, 99
1, 94919, Note_on_c, 9, 36, 0
1, 94919, Note_on_c, 9, 42, 0
1, 94920, Note_on_c, 9, 42, 80
1, 94920, Note_on_c, 9, 36, 123
1, 95039, Note_on_c, 9, 42, 0
1, 95039, Note_on_c, 9, 36, 0
1, 95040, Note_on_c, 9, 46, 99
1, 95279, Note_on_c, 9, 46, 0
1, 95280, Note_on_c, 9, 42, 99
1, 95280, Note_on_c, 9, 36, 123
1, 95519, Note_on_c, 9, 42, 0
1, 95519, Note_on_c, 9, 36, 0
1, 95520, Note_on_c, 9, 33, 123
1, 95520, Note_on_c, 9, 42, 99
1, 95639, Note_on_c, 9, 33, 0
1, 95639, Note_on_c, 9, 42, 0
1, 95640, Note_on_c, 9, 33, 123
1, 95759, Note_on_c, 9, 33, 0
1, 95760, Note_on_c, 9, 46, 99
1, 95999, Note_on_c, 9, 46, 0
1, 96000, Note_on_c, 9, 57, 111
1, 96000, Note_on_c, 9, 36, 123
1, 96239, Note_on_c, 9, 57, 0
1, 96240, Note_on_c, 9, 42, 99
1, 96479, Note_on_c, 9, 36, 0
1, 96479, Note_on_c, 9, 42, 0
1, 96480, Note_on_c, 9, 33, 123
1, 96480, Note_on_c, 9, 42, 99
1, 96719, Note_on_c, 9, 33, 0
1, 96719, Note_on_c, 9, 42, 0
1, 96720, Note_on_c, 9, 42, 99
1, 96720, Note_on_c, 9, 36, 99
1, 96839, Note_on_c, 9, 42, 0
1, 96839, Note_on_c, 9, 36, 0
1, 96840, Note_on_c, 9, 42, 99
1, 96840, Note_on_c, 9, 36, 123
1, 96959, Note_on_c, 9, 42, 0
1, 96959, Note_on_c, 9, 36, 0
1, 96960, Note_on_c, 9, 42, 99
1, 97199, Note_on_c, 9, 42, 0
1, 97200, Note_on_c, 9, 42, 99
1, 97200, Note_on_c, 9, 36, 123
1, 97439, Note_on_c, 9, 42, 0
1, 97439, Note_on_c, 9, 36, 0
1, 97440, Note_on_c, 9, 33, 123
1, 97440, Note_on_c, 9, 42, 99
1, 97679, Note_on_c, 9, 33, 0
1, 97679, Note_on_c, 9, 42, 0
1, 97680, Note_on_c, 9, 42, 99
1, 97799, Note_on_c, 9, 42, 0
1, 97800, Note_on_c, 9, 42, 99
1, 97919, Note_on_c, 9, 42, 0
1, 97920, Note_on_c, 9, 42, 99
1, 97920, Note_on_c, 9, 36, 123
1, 98039, Note_on_c, 9, 36, 0
1, 98040, Note_on_c, 9, 36, 123
1, 98159, Note_on_c, 9, 42, 0
1, 98160, Note_on_c, 9, 42, 99
1, 98399, Note_on_c, 9, 36, 0
1, 98399, Note_on_c, 9, 42, 0
1, 98400, Note_on_c, 9, 33, 123
1, 98400, Note_on_c, 9, 42, 99
1, 98639, Note_on_c, 9, 33, 0
1, 98639, Note_on_c, 9, 42, 0
1, 98640, Note_on_c, 9, 42, 99
1, 98640, Note_on_c, 9, 36, 99
1, 98759, Note_on_c, 9, 42, 0
1, 98759, Note_on_c, 9, 36, 0
1, 98760, Note_on_c, 9, 42, 99
1, 98760, Note_on_c, 9, 36, 123
1, 98879, Note_on_c, 9, 42, 0
1, 98879, Note_on_c, 9, 36, 0
1, 98880, Note_on_c, 9, 46, 99
1, 99119, Note_on_c, 9, 46, 0
1, 99120, Note_on_c, 9, 42, 99
1, 99120, Note_on_c, 9, 36, 123
1, 99359, Note_on_c, 9, 42, 0
1, 99359, Note_on_c, 9, 36, 0
1, 99360, Note_on_c, 9, 33, 123
1, 99360, Note_on_c, 9, 42, 99
1, 99599, Note_on_c, 9, 33, 0
1, 99599, Note_on_c, 9, 42, 0
1, 99600, Note_on_c, 9, 42, 99
1, 99839, Note_on_c, 9, 42, 0
1, 99840, Note_on_c, 9, 42, 99
1, 99840, Note_on_c, 9, 36, 123
1, 100079, Note_on_c, 9, 42, 0
1, 100080, Note_on_c, 9, 42, 99
1, 100199, Note_on_c, 9, 42, 0
1, 100200, Note_on_c, 9, 42, 99
1, 100319, Note_on_c, 9, 36, 0
1, 100319, Note_on_c, 9, 42, 0
1, 100320, Note_on_c, 9, 33, 123
1, 100320, Note_on_c, 9, 42, 99
1, 100559, Note_on_c, 9, 33, 0
1, 100559, Note_on_c, 9, 42, 0
1, 100560, Note_on_c, 9, 42, 99
1, 100679, Note_on_c, 9, 42, 0
1, 100680, Note_on_c, 9, 42, 99
1, 100680, Note_on_c, 9, 36, 123
1, 100799, Note_on_c, 9, 42, 0
1, 100799, Note_on_c, 9, 36, 0
1, 100800, Note_on_c, 9, 42, 99
1, 101039, Note_on_c, 9, 42, 0
1, 101040, Note_on_c, 9, 42, 99
1, 101040, Note_on_c, 9, 36, 123
1, 101279, Note_on_c, 9, 42, 0
1, 101279, Note_on_c, 9, 36, 0
1, 101280, Note_on_c, 9, 33, 123
1, 101280, Note_on_c, 9, 42, 99
1, 101519, Note_on_c, 9, 33, 0
1, 101519, Note_on_c, 9, 42, 0
1, 101520, Note_on_c, 9, 42, 99
1, 101639, Note_on_c, 9, 42, 0
1, 101640, Note_on_c, 9, 42, 99
1, 101759, Note_on_c, 9, 42, 0
1, 101760, Note_on_c, 9, 42, 99
1, 101880, Note_on_c, 9, 36, 123
1, 101999, Note_on_c, 9, 42, 0
1, 102000, Note_on_c, 9, 42, 99
1, 102119, Note_on_c, 9, 42, 0
1, 102120, Note_on_c, 9, 42, 99
1, 102239, Note_on_c, 9, 36, 0
1, 102239, Note_on_c, 9, 42, 0
1, 102240, Note_on_c, 9, 33, 123
1, 102240, Note_on_c, 9, 42, 99
1, 102479, Note_on_c, 9, 33, 0
1, 102479, Note_on_c, 9, 42, 0
1, 102480, Note_on_c, 9, 42, 99
1, 102599, Note_on_c, 9, 42, 0
1, 102600, Note_on_c, 9, 42, 99
1, 102600, Note_on_c, 9, 36, 123
1, 102719, Note_on_c, 9, 42, 0
1, 102719, Note_on_c, 9, 36, 0
1, 102720, Note_on_c, 9, 46, 99
1, 102959, Note_on_c, 9, 46, 0
1, 102960, Note_on_c, 9, 42, 99
1, 102960, Note_on_c, 9, 36, 123
1, 103199, Note_on_c, 9, 42, 0
1, 103199, Note_on_c, 9, 36, 0
1, 103200, Note_on_c, 9, 33, 123
1, 103200, Note_on_c, 9, 42, 99
1, 103439, Note_on_c, 9, 33, 0
1, 103439, Note_on_c, 9, 42, 0
1, 103440, Note_on_c, 9, 42, 99
1, 103679, Note_on_c, 9, 42, 0
1, 103680, Note_on_c, 9, 46, 99
1, 103680, Note_on_c, 9, 36, 123
1, 103919, Note_on_c, 9, 46, 0
1, 103920, Note_on_c, 9, 42, 99
1, 104039, Note_on_c, 9, 42, 0
1, 104040, Note_on_c, 9, 42, 99
1, 104159, Note_on_c, 9, 36, 0
1, 104159, Note_on_c, 9, 42, 0
1, 104160, Note_on_c, 9, 33, 123
1, 104160, Note_on_c, 9, 42, 99
1, 104400, Note_on_c, 9, 36, 99
1, 104519, Note_on_c, 9, 33, 0
1, 104519, Note_on_c, 9, 42, 0
1, 104519, Note_on_c, 9, 36, 0
1, 104520, Note_on_c, 9, 42, 99
1, 104520, Note_on_c, 9, 36, 123
1, 104639, Note_on_c, 9, 42, 0
1, 104639, Note_on_c, 9, 36, 0
1, 104640, Note_on_c, 9, 42, 99
1, 104879, Note_on_c, 9, 42, 0
1, 104880, Note_on_c, 9, 42, 99
1, 104880, Note_on_c, 9, 36, 123
1, 105119, Note_on_c, 9, 42, 0
1, 105119, Note_on_c, 9, 36, 0
1, 105120, Note_on_c, 9, 33, 123
1, 105120, Note_on_c, 9, 42, 99
1, 105359, Note_on_c, 9, 33, 0
1, 105359, Note_on_c, 9, 42, 0
1, 105360, Note_on_c, 9, 42, 99
1, 105479, Note_on_c, 9, 42, 0
1, 105480, Note_on_c, 9, 42, 99
1, 105599, Note_on_c, 9, 42, 0
1, 105600, Note_on_c, 9, 42, 99
1, 105600, Note_on_c, 9, 36, 123
1, 105719, Note_on_c, 9, 36, 0
1, 105720, Note_on_c, 9, 36, 123
1, 105839, Note_on_c, 9, 42, 0
1, 105840, Note_on_c, 9, 42, 99
1, 106079, Note_on_c, 9, 36, 0
1, 106079, Note_on_c, 9, 42, 0
1, 106080, Note_on_c, 9, 33, 123
1, 106080, Note_on_c, 9, 42, 99
1, 106319, Note_on_c, 9, 33, 0
1, 106319, Note_on_c, 9, 42, 0
1, 106320, Note_on_c, 9, 42, 99
1, 106320, Note_on_c, 9, 36, 99
1, 106439, Note_on_c, 9, 42, 0
1, 106439, Note_on_c, 9, 36, 0
1, 106440, Note_on_c, 9, 42, 99
1, 106440, Note_on_c, 9, 36, 123
1, 106559, Note_on_c, 9, 42, 0
1, 106559, Note_on_c, 9, 36, 0
1, 106560, Note_on_c, 9, 46, 99
1, 106799, Note_on_c, 9, 46, 0
1, 106800, Note_on_c, 9, 42, 99
1, 106800, Note_on_c, 9, 36, 123
1, 107039, Note_on_c, 9, 42, 0
1, 107039, Note_on_c, 9, 36, 0
1, 107040, Note_on_c, 9, 33, 123
1, 107040, Note_on_c, 9, 42, 99
1, 107279, Note_on_c, 9, 33, 0
1, 107279, Note_on_c, 9, 42, 0
1, 107280, Note_on_c, 9, 42, 99
1, 107519, Note_on_c, 9, 42, 0
1, 107520, Note_on_c, 9, 46, 99
1, 107520, Note_on_c, 9, 36, 123
1, 107759, Note_on_c, 9, 46, 0
1, 107760, Note_on_c, 9, 42, 99
1, 107999, Note_on_c, 9, 36, 0
1, 107999, Note_on_c, 9, 42, 0
1, 108000, Note_on_c, 9, 33, 123
1, 108000, Note_on_c, 9, 42, 99
1, 108239, Note_on_c, 9, 33, 0
1, 108239, Note_on_c, 9, 42, 0
1, 108240, Note_on_c, 9, 42, 99
1, 108359, Note_on_c, 9, 42, 0
1, 108360, Note_on_c, 9, 42, 99
1, 108360, Note_on_c, 9, 36, 123
1, 108479, Note_on_c, 9, 42, 0
1, 108479, Note_on_c, 9, 36, 0
1, 108480, Note_on_c, 9, 42, 99
1, 108719, Note_on_c, 9, 42, 0
1, 108720, Note_on_c, 9, 42, 99
1, 108720, Note_on_c, 9, 36, 123
1, 108959, Note_on_c, 9, 42, 0
1, 108959, Note_on_c, 9, 36, 0
1, 108960, Note_on_c, 9, 33, 123
1, 108960, Note_on_c, 9, 42, 99
1, 109199, Note_on_c, 9, 33, 0
1, 109199, Note_on_c, 9, 42, 0
1, 109200, Note_on_c, 9, 42, 99
1, 109319, Note_on_c, 9, 42, 0
1, 109320, Note_on_c, 9, 42, 99
1, 109439, Note_on_c, 9, 42, 0
1, 109440, Note_on_c, 9, 42, 99
1, 109560, Note_on_c, 9, 36, 123
1, 109679, Note_on_c, 9, 42, 0
1, 109680, Note_on_c, 9, 42, 99
1, 109919, Note_on_c, 9, 36, 0
1, 109919, Note_on_c, 9, 42, 0
1, 109920, Note_on_c, 9, 33, 123
1, 109920, Note_on_c, 9, 42, 99
1, 110159, Note_on_c, 9, 33, 0
1, 110159, Note_on_c, 9, 42, 0
1, 110160, Note_on_c, 9, 42, 99
1, 110279, Note_on_c, 9, 42, 0
1, 110280, Note_on_c, 9, 42, 99
1, 110280, Note_on_c, 9, 36, 123
1, 110399, Note_on_c, 9, 42, 0
1, 110399, Note_on_c, 9, 36, 0
1, 110400, Note_on_c, 9, 46, 99
1, 110639, Note_on_c, 9, 46, 0
1, 110640, Note_on_c, 9, 42, 99
1, 110640, Note_on_c, 9, 36, 123
1, 110879, Note_on_c, 9, 42, 0
1, 110879, Note_on_c, 9, 36, 0
1, 110880, Note_on_c, 9, 33, 123
1, 110880, Note_on_c, 9, 42, 99
1, 111119, Note_on_c, 9, 33, 0
1, 111119, Note_on_c, 9, 42, 0
1, 111120, Note_on_c, 9, 42, 99
1, 111359, Note_on_c, 9, 42, 0
1, 111360, Note_on_c, 9, 57, 111
1, 111360, Note_on_c, 9, 36, 123
1, 111599, Note_on_c, 9, 57, 0
1, 111600, Note_on_c, 9, 42, 99
1, 111839, Note_on_c, 9, 36, 0
1, 111839, Note_on_c, 9, 42, 0
1, 111840, Note_on_c, 9, 33, 123
1, 111840, Note_on_c, 9, 42, 99
1, 112079, Note_on_c, 9, 33, 0
1, 112079, Note_on_c, 9, 42, 0
1, 112080, Note_on_c, 9, 42, 99
1, 112080, Note_on_c, 9, 36, 99
1, 112199, Note_on_c, 9, 42, 0
1, 112199, Note_on_c, 9, 36, 0
1, 112200, Note_on_c, 9, 42, 99
1, 112200, Note_on_c, 9, 36, 123
1, 112319, Note_on_c, 9, 42, 0
1, 112319, Note_on_c, 9, 36, 0
1, 112320, Note_on_c, 9, 42, 99
1, 112559, Note_on_c, 9, 42, 0
1, 112560, Note_on_c, 9, 42, 99
1, 112560, Note_on_c, 9, 36, 123
1, 112799, Note_on_c, 9, 42, 0
1, 112799, Note_on_c, 9, 36, 0
1, 112800, Note_on_c, 9, 33, 123
1, 112800, Note_on_c, 9, 42, 99
1, 113039, Note_on_c, 9, 33, 0
1, 113039, Note_on_c, 9, 42, 0
1, 113040, Note_on_c, 9, 42, 99
1, 113159, Note_on_c, 9, 42, 0
1, 113160, Note_on_c, 9, 42, 99
1, 113279, Note_on_c, 9, 42, 0
1, 113280, Note_on_c, 9, 42, 99
1, 113400, Note_on_c, 9, 36, 123
1, 113519, Note_on_c, 9, 42, 0
1, 113520, Note_on_c, 9, 42, 99
1, 113759, Note_on_c, 9, 36, 0
1, 113759, Note_on_c, 9, 42, 0
1, 113760, Note_on_c, 9, 33, 123
1, 113760, Note_on_c, 9, 42, 99
1, 113999, Note_on_c, 9, 33, 0
1, 113999, Note_on_c, 9, 42, 0
1, 114000, Note_on_c, 9, 42, 99
1, 114000, Note_on_c, 9, 36, 99
1, 114119, Note_on_c, 9, 42, 0
1, 114119, Note_on_c, 9, 36, 0
1, 114120, Note_on_c, 9, 42, 99
1, 114120, Note_on_c, 9, 36, 123
1, 114239, Note_on_c, 9, 42, 0
1, 114239, Note_on_c, 9, 36, 0
1, 114240, Note_on_c, 9, 46, 99
1, 114479, Note_on_c, 9, 46, 0
1, 114480, Note_on_c, 9, 42, 99
1, 114480, Note_on_c, 9, 36, 123
1, 114719, Note_on_c, 9, 42, 0
1, 114719, Note_on_c, 9, 36, 0
1, 114720, Note_on_c, 9, 33, 123
1, 114720, Note_on_c, 9, 42, 99
1, 114959, Note_on_c, 9, 33, 0
1, 114959, Note_on_c, 9, 42, 0
1, 114960, Note_on_c, 9, 42, 99
1, 115199, Note_on_c, 9, 42, 0
1, 115200, Note_on_c, 9, 46, 99
1, 115200, Note_on_c, 9, 36, 123
1, 115439, Note_on_c, 9, 46, 0
1, 115440, Note_on_c, 9, 42, 99
1, 115559, Note_on_c, 9, 42, 0
1, 115560, Note_on_c, 9, 42, 99
1, 115679, Note_on_c, 9, 36, 0
1, 115679, Note_on_c, 9, 42, 0
1, 115680, Note_on_c, 9, 33, 123
1, 115680, Note_on_c, 9, 42, 99
1, 115919, Note_on_c, 9, 33, 0
1, 115919, Note_on_c, 9, 42, 0
1, 115920, Note_on_c, 9, 42, 99
1, 116039, Note_on_c, 9, 42, 0
1, 116040, Note_on_c, 9, 42, 99
1, 116040, Note_on_c, 9, 36, 123
1, 116159, Note_on_c, 9, 42, 0
1, 116159, Note_on_c, 9, 36, 0
1, 116160, Note_on_c, 9, 42, 99
1, 116399, Note_on_c, 9, 42, 0
1, 116400, Note_on_c, 9, 42, 99
1, 116400, Note_on_c, 9, 36, 123
1, 116639, Note_on_c, 9, 42, 0
1, 116639, Note_on_c, 9, 36, 0
1, 116640, Note_on_c, 9, 33, 123
1, 116640, Note_on_c, 9, 42, 99
1, 116879, Note_on_c, 9, 33, 0
1, 116879, Note_on_c, 9, 42, 0
1, 116880, Note_on_c, 9, 42, 99
1, 117119, Note_on_c, 9, 42, 0
1, 117120, Note_on_c, 9, 42, 99
1, 117120, Note_on_c, 9, 36, 123
1, 117239, Note_on_c, 9, 36, 0
1, 117240, Note_on_c, 9, 36, 123
1, 117359, Note_on_c, 9, 42, 0
1, 117360, Note_on_c, 9, 42, 99
1, 117479, Note_on_c, 9, 42, 0
1, 117480, Note_on_c, 9, 42, 99
1, 117599, Note_on_c, 9, 36, 0
1, 117599, Note_on_c, 9, 42, 0
1, 117600, Note_on_c, 9, 33, 123
1, 117600, Note_on_c, 9, 42, 99
1, 117839, Note_on_c, 9, 33, 0
1, 117839, Note_on_c, 9, 42, 0
1, 117840, Note_on_c, 9, 42, 99
1, 117840, Note_on_c, 9, 36, 99
1, 117959, Note_on_c, 9, 42, 0
1, 117959, Note_on_c, 9, 36, 0
1, 117960, Note_on_c, 9, 42, 99
1, 117960, Note_on_c, 9, 36, 123
1, 118079, Note_on_c, 9, 42, 0
1, 118079, Note_on_c, 9, 36, 0
1, 118080, Note_on_c, 9, 46, 99
1, 118319, Note_on_c, 9, 46, 0
1, 118320, Note_on_c, 9, 42, 99
1, 118320, Note_on_c, 9, 36, 123
1, 118439, Note_on_c, 9, 42, 0
1, 118440, Note_on_c, 9, 42, 99
1, 118559, Note_on_c, 9, 36, 0
1, 118559, Note_on_c, 9, 42, 0
1, 118560, Note_on_c, 9, 33, 123
1, 118560, Note_on_c, 9, 42, 99
1, 118799, Note_on_c, 9, 33, 0
1, 118799, Note_on_c, 9, 42, 0
1, 118800, Note_on_c, 9, 42, 99
1, 118800, Note_on_c, 9, 36, 99
1, 119039, Note_on_c, 9, 42, 0
1, 119039, Note_on_c, 9, 36, 0
1, 119040, Note_on_c, 9, 46, 99
1, 119040, Note_on_c, 9, 36, 123
1, 119279, Note_on_c, 9, 46, 0
1, 119280, Note_on_c, 9, 42, 99
1, 119519, Note_on_c, 9, 36, 0
1, 119519, Note_on_c, 9, 42, 0
1, 119520, Note_on_c, 9, 33, 123
1, 119520, Note_on_c, 9, 42, 99
1, 119759, Note_on_c, 9, 33, 0
1, 119759, Note_on_c, 9, 42, 0
1, 119760, Note_on_c, 9, 42, 99
1, 119760, Note_on_c, 9, 36, 99
1, 119879, Note_on_c, 9, 42, 0
1, 119879, Note_on_c, 9, 36, 0
1, 119880, Note_on_c, 9, 42, 99
1, 119880, Note_on_c, 9, 36, 123
1, 119999, Note_on_c, 9, 42, 0
1, 119999, Note_on_c, 9, 36, 0
1, 120000, Note_on_c, 9, 42, 99
1, 120239, Note_on_c, 9, 42, 0
1, 120240, Note_on_c, 9, 42, 99
1, 120240, Note_on_c, 9, 36, 123
1, 120479, Note_on_c, 9, 42, 0
1, 120479, Note_on_c, 9, 36, 0
1, 120480, Note_on_c, 9, 33, 123
1, 120480, Note_on_c, 9, 42, 99
1, 120719, Note_on_c, 9, 33, 0
1, 120719, Note_on_c, 9, 42, 0
1, 120720, Note_on_c, 9, 42, 99
1, 120959, Note_on_c, 9, 42, 0
1, 120960, Note_on_c, 9, 42, 99
1, 120960, Note_on_c, 9, 36, 123
1, 121079, Note_on_c, 9, 36, 0
1, 121080, Note_on_c, 9, 36, 123
1, 121199, Note_on_c, 9, 42, 0
1, 121200, Note_on_c, 9, 42, 99
1, 121439, Note_on_c, 9, 36, 0
1, 121439, Note_on_c, 9, 42, 0
1, 121440, Note_on_c, 9, 33, 123
1, 121440, Note_on_c, 9, 42, 99
1, 121679, Note_on_c, 9, 33, 0
1, 121679, Note_on_c, 9, 42, 0
1, 121680, Note_on_c, 9, 42, 99
1, 121680, Note_on_c, 9, 36, 99
1, 121799, Note_on_c, 9, 42, 0
1, 121799, Note_on_c, 9, 36, 0
1, 121800, Note_on_c, 9, 42, 80
1, 121800, Note_on_c, 9, 36, 123
1, 121919, Note_on_c, 9, 42, 0
1, 121919, Note_on_c, 9, 36, 0
1, 121920, Note_on_c, 9, 42, 99
1, 122159, Note_on_c, 9, 42, 0
1, 122160, Note_on_c, 9, 42, 99
1, 122160, Note_on_c, 9, 36, 123
1, 122399, Note_on_c, 9, 42, 0
1, 122399, Note_on_c, 9, 36, 0
1, 122400, Note_on_c, 9, 33, 123
1, 122400, Note_on_c, 9, 42, 99
1, 122639, Note_on_c, 9, 33, 0
1, 122639, Note_on_c, 9, 42, 0
1, 122640, Note_on_c, 9, 42, 99
1, 122640, Note_on_c, 9, 36, 99
1, 122879, Note_on_c, 9, 42, 0
1, 122879, Note_on_c, 9, 36, 0
1, 122880, Note_on_c, 9, 42, 99
1, 122880, Note_on_c, 9, 36, 123
1, 123119, Note_on_c, 9, 42, 0
1, 123120, Note_on_c, 9, 42, 99
1, 123359, Note_on_c, 9, 36, 0
1, 123359, Note_on_c, 9, 42, 0
1, 123360, Note_on_c, 9, 33, 123
1, 123360, Note_on_c, 9, 42, 99
1, 123599, Note_on_c, 9, 33, 0
1, 123599, Note_on_c, 9, 42, 0
1, 123600, Note_on_c, 9, 42, 99
1, 123719, Note_on_c, 9, 42, 0
1, 123720, Note_on_c, 9, 42, 99
1, 123720, Note_on_c, 9, 36, 123
1, 123839, Note_on_c, 9, 42, 0
1, 123839, Note_on_c, 9, 36, 0
1, 123840, Note_on_c, 9, 46, 99
1, 124079, Note_on_c, 9, 46, 0
1, 124080, Note_on_c, 9, 42, 99
1, 124080, Note_on_c, 9, 36, 123
1, 124319, Note_on_c, 9, 42, 0
1, 124319, Note_on_c, 9, 36, 0
1, 124320, Note_on_c, 9, 33, 123
1, 124320, Note_on_c, 9, 42, 99
1, 124559, Note_on_c, 9, 33, 0
1, 124559, Note_on_c, 9, 42, 0
1, 124560, Note_on_c, 9, 42, 99
1, 124799, Note_on_c, 9, 42, 0
1, 124800, Note_on_c, 9, 57, 114
1, 124800, Note_on_c, 9, 36, 123
1, 125279, Note_on_c, 9, 57, 0
1, 125279, Note_on_c, 9, 36, 0
1, 125280, Note_on_c, 9, 33, 123
1, 125319, Note_on_c, 9, 33, 0
1, 125320, Note_on_c, 9, 33, 123
1, 125399, Note_on_c, 9, 33, 0
1, 125520, Note_on_c, 9, 49, 111
1, 125520, Note_on_c, 9, 36, 123
1, 125759, Note_on_c, 9, 49, 0
1, 125759, Note_on_c, 9, 36, 0
1, 126180, Note_on_c, 9, 41, 50
1, 126180, Note_on_c, 9, 43, 50
1, 126239, Note_on_c, 9, 41, 0
1, 126239, Note_on_c, 9, 43, 0
1, 126240, Note_on_c, 9, 45, 50
1, 126479, Note_on_c, 9, 45, 0
1, 126480, Note_on_c, 9, 41, 50
1, 126719, Note_on_c, 9, 41, 0
1, 126720, Note_on_c, 9, 57, 114
1, 126720, Note_on_c, 9, 36, 123
1, 126959, Note_on_c, 9, 57, 0
1, 126960, Note_on_c, 9, 42, 99
1, 127199, Note_on_c, 9, 36, 0
1, 127199, Note_on_c, 9, 42, 0
1, 127200, Note_on_c, 9, 33, 123
1, 127200, Note_on_c, 9, 42, 99
1, 127439, Note_on_c, 9, 33, 0
1, 127439, Note_on_c, 9, 42, 0
1, 127440, Note_on_c, 9, 42, 99
1, 127440, Note_on_c, 9, 36, 99
1, 127679, Note_on_c, 9, 42, 0
1, 127679, Note_on_c, 9, 36, 0
1, 127680, Note_on_c, 9, 42, 99
1, 127680, Note_on_c, 9, 36, 123
1, 127919, Note_on_c, 9, 42, 0
1, 127919, Note_on_c, 9, 36, 0
1, 127920, Note_on_c, 9, 42, 99
1, 127920, Note_on_c, 9, 36, 123
1, 128159, Note_on_c, 9, 42, 0
1, 128159, Note_on_c, 9, 36, 0
1, 128160, Note_on_c, 9, 33, 123
1, 128160, Note_on_c, 9, 42, 99
1, 128639, Note_on_c, 9, 33, 0
1, 128639, Note_on_c, 9, 42, 0
1, 128640, Note_on_c, 9, 42, 99
1, 128640, Note_on_c, 9, 36, 123
1, 129119, Note_on_c, 9, 42, 0
1, 129119, Note_on_c, 9, 36, 0
1, 129120, Note_on_c, 9, 33, 123
1, 129120, Note_on_c, 9, 42, 99
1, 129359, Note_on_c, 9, 33, 0
1, 129359, Note_on_c, 9, 42, 0
1, 129360, Note_on_c, 9, 42, 99
1, 129360, Note_on_c, 9, 36, 99
1, 129599, Note_on_c, 9, 42, 0
1, 129599, Note_on_c, 9, 36, 0
1, 129600, Note_on_c, 9, 42, 99
1, 129600, Note_on_c, 9, 36, 123
1, 129839, Note_on_c, 9, 42, 0
1, 129839, Note_on_c, 9, 36, 0
1, 129840, Note_on_c, 9, 42, 99
1, 129840, Note_on_c, 9, 36, 123
1, 130079, Note_on_c, 9, 42, 0
1, 130079, Note_on_c, 9, 36, 0
1, 130080, Note_on_c, 9, 33, 123
1, 130080, Note_on_c, 9, 42, 99
1, 130559, Note_on_c, 9, 33, 0
1, 130559, Note_on_c, 9, 42, 0
1, 130560, Note_on_c, 9, 46, 99
1, 130560, Note_on_c, 9, 36, 123
1, 130799, Note_on_c, 9, 46, 0
1, 130800, Note_on_c, 9, 42, 99
1, 131039, Note_on_c, 9, 36, 0
1, 131039, Note_on_c, 9, 42, 0
1, 131040, Note_on_c, 9, 33, 123
1, 131040, Note_on_c, 9, 42, 99
1, 131279, Note_on_c, 9, 33, 0
1, 131279, Note_on_c, 9, 42, 0
1, 131280, Note_on_c, 9, 42, 99
1, 131280, Note_on_c, 9, 36, 99
1, 131519, Note_on_c, 9, 42, 0
1, 131519, Note_on_c, 9, 36, 0
1, 131520, Note_on_c, 9, 42, 99
1, 131520, Note_on_c, 9, 36, 123
1, 131759, Note_on_c, 9, 42, 0
1, 131759, Note_on_c, 9, 36, 0
1, 131760, Note_on_c, 9, 42, 99
1, 131760, Note_on_c, 9, 36, 123
1, 131999, Note_on_c, 9, 42, 0
1, 131999, Note_on_c, 9, 36, 0
1, 132000, Note_on_c, 9, 33, 123
1, 132000, Note_on_c, 9, 42, 99
1, 132239, Note_on_c, 9, 33, 0
1, 132239, Note_on_c, 9, 42, 0
1, 132240, Note_on_c, 9, 42, 99
1, 132479, Note_on_c, 9, 42, 0
1, 132480, Note_on_c, 9, 42, 99
1, 132480, Note_on_c, 9, 36, 123
1, 132959, Note_on_c, 9, 42, 0
1, 132959, Note_on_c, 9, 36, 0
1, 132960, Note_on_c, 9, 33, 123
1, 132960, Note_on_c, 9, 42, 99
1, 133199, Note_on_c, 9, 33, 0
1, 133199, Note_on_c, 9, 42, 0
1, 133200, Note_on_c, 9, 42, 99
1, 133439, Note_on_c, 9, 42, 0
1, 133440, Note_on_c, 9, 42, 99
1, 133440, Note_on_c, 9, 36, 123
1, 133679, Note_on_c, 9, 42, 0
1, 133679, Note_on_c, 9, 36, 0
1, 133680, Note_on_c, 9, 42, 99
1, 133680, Note_on_c, 9, 36, 123
1, 133919, Note_on_c, 9, 42, 0
1, 133919, Note_on_c, 9, 36, 0
1, 133920, Note_on_c, 9, 33, 123
1, 133920, Note_on_c, 9, 42, 99
1, 134159, Note_on_c, 9, 33, 0
1, 134159, Note_on_c, 9, 42, 0
1, 134160, Note_on_c, 9, 46, 99
1, 134399, Note_on_c, 9, 46, 0
1, 134400, Note_on_c, 9, 42, 99
1, 134400, Note_on_c, 9, 36, 123
1, 134639, Note_on_c, 9, 42, 0
1, 134640, Note_on_c, 9, 42, 99
1, 134879, Note_on_c, 9, 36, 0
1, 134879, Note_on_c, 9, 42, 0
1, 134880, Note_on_c, 9, 33, 123
1, 134880, Note_on_c, 9, 42, 99
1, 135359, Note_on_c, 9, 33, 0
1, 135359, Note_on_c, 9, 42, 0
1, 135360, Note_on_c, 9, 42, 99
1, 135360, Note_on_c, 9, 36, 123
1, 135599, Note_on_c, 9, 42, 0
1, 135599, Note_on_c, 9, 36, 0
1, 135600, Note_on_c, 9, 42, 99
1, 135600, Note_on_c, 9, 36, 123
1, 135839, Note_on_c, 9, 42, 0
1, 135839, Note_on_c, 9, 36, 0
1, 135840, Note_on_c, 9, 33, 123
1, 135840, Note_on_c, 9, 42, 99
1, 136079, Note_on_c, 9, 33, 0
1, 136079, Note_on_c, 9, 42, 0
1, 136080, Note_on_c, 9, 42, 99
1, 136319, Note_on_c, 9, 42, 0
1, 136320, Note_on_c, 9, 42, 99
1, 136320, Note_on_c, 9, 36, 123
1, 136559, Note_on_c, 9, 42, 0
1, 136560, Note_on_c, 9, 42, 99
1, 136799, Note_on_c, 9, 36, 0
1, 136799, Note_on_c, 9, 42, 0
1, 136800, Note_on_c, 9, 33, 123
1, 136800, Note_on_c, 9, 42, 99
1, 137039, Note_on_c, 9, 33, 0
1, 137039, Note_on_c, 9, 42, 0
1, 137040, Note_on_c, 9, 42, 99
1, 137040, Note_on_c, 9, 36, 99
1, 137279, Note_on_c, 9, 42, 0
1, 137279, Note_on_c, 9, 36, 0
1, 137280, Note_on_c, 9, 42, 99
1, 137280, Note_on_c, 9, 36, 123
1, 137519, Note_on_c, 9, 42, 0
1, 137519, Note_on_c, 9, 36, 0
1, 137520, Note_on_c, 9, 42, 99
1, 137520, Note_on_c, 9, 36, 123
1, 137759, Note_on_c, 9, 42, 0
1, 137759, Note_on_c, 9, 36, 0
1, 137760, Note_on_c, 9, 33, 123
1, 137760, Note_on_c, 9, 42, 99
1, 137999, Note_on_c, 9, 33, 0
1, 137999, Note_on_c, 9, 42, 0
1, 138000, Note_on_c, 9, 42, 99
1, 138000, Note_on_c, 9, 36, 99
1, 138239, Note_on_c, 9, 42, 0
1, 138239, Note_on_c, 9, 36, 0
1, 138240, Note_on_c, 9, 36, 123
1, 138480, Note_on_c, 9, 42, 99
1, 138719, Note_on_c, 9, 36, 0
1, 138719, Note_on_c, 9, 42, 0
1, 138720, Note_on_c, 9, 33, 123
1, 138720, Note_on_c, 9, 42, 99
1, 138959, Note_on_c, 9, 33, 0
1, 138959, Note_on_c, 9, 42, 0
1, 138960, Note_on_c, 9, 42, 99
1, 138960, Note_on_c, 9, 36, 99
1, 139199, Note_on_c, 9, 42, 0
1, 139199, Note_on_c, 9, 36, 0
1, 139200, Note_on_c, 9, 42, 99
1, 139200, Note_on_c, 9, 36, 123
1, 139319, Note_on_c, 9, 42, 0
1, 139320, Note_on_c, 9, 33, 123
1, 139439, Note_on_c, 9, 36, 0
1, 139439, Note_on_c, 9, 33, 0
1, 139440, Note_on_c, 9, 42, 99
1, 139440, Note_on_c, 9, 36, 99
1, 139679, Note_on_c, 9, 42, 0
1, 139679, Note_on_c, 9, 36, 0
1, 139680, Note_on_c, 9, 33, 123
1, 139799, Note_on_c, 9, 33, 0
1, 139800, Note_on_c, 9, 33, 123
1, 139919, Note_on_c, 9, 33, 0
1, 139920, Note_on_c, 9, 45, 50
1, 140159, Note_on_c, 9, 45, 0
1, 140160, Note_on_c, 9, 57, 114
1, 140160, Note_on_c, 9, 36, 123
1, 140639, Note_on_c, 9, 57, 0
1, 140639, Note_on_c, 9, 36, 0
1, 140640, Note_on_c, 9, 33, 123
1, 140679, Note_on_c, 9, 33, 0
1, 140680, Note_on_c, 9, 33, 123
1, 140759, Note_on_c, 9, 33, 0
1, 140880, Note_on_c, 9, 49, 111
1, 140880, Note_on_c, 9, 36, 123
1, 141119, Note_on_c, 9, 49, 0
1, 141119, Note_on_c, 9, 36, 0
1, 142080, Time_signature, 2, 2, 24, 8
1, 143040, Time_signature, 4, 2, 24, 8
1, 143040, Note_on_c, 9, 42, 99
1, 143519, Note_on_c, 9, 42, 0
1, 143520, Note_on_c, 9, 42, 99
1, 143520, Note_on_c, 9, 36, 114
1, 143999, Note_on_c, 9, 42, 0
1, 143999, Note_on_c, 9, 36, 0
1, 144000, Note_on_c, 9, 42, 99
1, 144479, Note_on_c, 9, 42, 0
1, 144480, Note_on_c, 9, 42, 99
1, 144480, Note_on_c, 9, 36, 114
1, 144959, Note_on_c, 9, 42, 0
1, 144959, Note_on_c, 9, 36, 0
1, 144960, Note_on_c, 9, 42, 99
1, 145199, Note_on_c, 9, 42, 0
1, 145200, Note_on_c, 9, 42, 70
1, 145439, Note_on_c, 9, 42, 0
1, 145440, Note_on_c, 9, 42, 99
1, 145440, Note_on_c, 9, 36, 114
1, 145679, Note_on_c, 9, 42, 0
1, 145680, Note_on_c, 9, 42, 50
1, 145919, Note_on_c, 9, 36, 0
1, 145919, Note_on_c, 9, 42, 0
1, 145920, Note_on_c, 9, 42, 99
1, 146159, Note_on_c, 9, 42, 0
1, 146160, Note_on_c, 9, 42, 70
1, 146399, Note_on_c, 9, 42, 0
1, 146400, Note_on_c, 9, 42, 99
1, 146400, Note_on_c, 9, 36, 114
1, 146639, Note_on_c, 9, 42, 0
1, 146640, Note_on_c, 9, 42, 50
1, 146879, Note_on_c, 9, 36, 0
1, 146879, Note_on_c, 9, 42, 0
1, 146880, Note_on_c, 9, 42, 99
1, 147119, Note_on_c, 9, 42, 0
1, 147120, Note_on_c, 9, 42, 80
1, 147359, Note_on_c, 9, 42, 0
1, 147360, Note_on_c, 9, 42, 99
1, 147360, Note_on_c, 9, 36, 114
1, 147599, Note_on_c, 9, 42, 0
1, 147600, Note_on_c, 9, 42, 80
1, 147839, Note_on_c, 9, 36, 0
1, 147839, Note_on_c, 9, 42, 0
1, 147840, Note_on_c, 9, 42, 99
1, 148319, Note_on_c, 9, 42, 0
1, 148320, Note_on_c, 9, 42, 99
1, 148320, Note_on_c, 9, 36, 114
1, 148559, Note_on_c, 9, 42, 0
1, 148560, Note_on_c, 9, 42, 70
1, 148799, Note_on_c, 9, 36, 0
1, 148799, Note_on_c, 9, 42, 0
1, 148800, Note_on_c, 9, 42, 99
1, 149039, Note_on_c, 9, 42, 0
1, 149040, Note_on_c, 9, 42, 70
1, 149279, Note_on_c, 9, 42, 0
1, 149280, Note_on_c, 9, 42, 99
1, 149280, Note_on_c, 9, 36, 114
1, 149519, Note_on_c, 9, 42, 0
1, 149520, Note_on_c, 9, 42, 50
1, 149759, Note_on_c, 9, 36, 0
1, 149759, Note_on_c, 9, 42, 0
1, 149760, Note_on_c, 9, 42, 99
1, 150239, Note_on_c, 9, 42, 0
1, 150240, Note_on_c, 9, 42, 99
1, 150240, Note_on_c, 9, 36, 114
1, 150719, Note_on_c, 9, 42, 0
1, 150719, Note_on_c, 9, 36, 0
1, 150720, Note_on_c, 9, 42, 99
1, 151199, Note_on_c, 9, 42, 0
1, 151200, Note_on_c, 9, 42, 99
1, 151200, Note_on_c, 9, 36, 114
1, 151439, Note_on_c, 9, 42, 0
1, 151440, Note_on_c, 9, 42, 50
1, 151559, Note_on_c, 9, 42, 0
1, 151560, Note_on_c, 9, 42, 70
1, 151679, Note_on_c, 9, 36, 0
1, 151679, Note_on_c, 9, 42, 0
1, 151680, Note_on_c, 9, 42, 99
1, 151919, Note_on_c, 9, 42, 0
1, 151920, Note_on_c, 9, 42, 50
1, 152159, Note_on_c, 9, 42, 0
1, 152160, Note_on_c, 9, 42, 99
1, 152160, Note_on_c, 9, 36, 114
1, 152639, Note_on_c, 9, 42, 0
1, 152639, Note_on_c, 9, 36, 0
1, 152640, Note_on_c, 9, 42, 99
1, 153119, Note_on_c, 9, 42, 0
1, 153120, Note_on_c, 9, 42, 99
1, 153120, Note_on_c, 9, 36, 114
1, 153599, Note_on_c, 9, 42, 0
1, 153599, Note_on_c, 9, 36, 0
1, 153600, Note_on_c, 9, 42, 99
1, 154079, Note_on_c, 9, 42, 0
1, 154080, Note_on_c, 9, 42, 99
1, 154080, Note_on_c, 9, 36, 114
1, 154559, Note_on_c, 9, 42, 0
1, 154559, Note_on_c, 9, 36, 0
1, 154560, Note_on_c, 9, 42, 99
1, 155039, Note_on_c, 9, 42, 0
1, 155040, Note_on_c, 9, 42, 99
1, 155040, Note_on_c, 9, 36, 114
1, 155279, Note_on_c, 9, 42, 0
1, 155280, Note_on_c, 9, 42, 80
1, 155519, Note_on_c, 9, 36, 0
1, 155519, Note_on_c, 9, 42, 0
1, 155520, Note_on_c, 9, 42, 99
1, 155759, Note_on_c, 9, 42, 0
1, 155760, Note_on_c, 9, 42, 50
1, 155999, Note_on_c, 9, 42, 0
1, 156000, Note_on_c, 9, 42, 99
1, 156000, Note_on_c, 9, 36, 114
1, 156479, Note_on_c, 9, 42, 0
1, 156479, Note_on_c, 9, 36, 0
1, 156480, Note_on_c, 9, 42, 99
1, 156719, Note_on_c, 9, 42, 0
1, 156720, Note_on_c, 9, 46, 99
1, 156959, Note_on_c, 9, 46, 0
1, 156960, Note_on_c, 9, 42, 99
1, 156960, Note_on_c, 9, 36, 114
1, 157199, Note_on_c, 9, 42, 0
1, 157200, Note_on_c, 9, 42, 99
1, 157439, Note_on_c, 9, 36, 0
1, 157439, Note_on_c, 9, 42, 0
1, 157440, Note_on_c, 9, 42, 85
1, 157499, Note_on_c, 9, 42, 0
1, 157500, Note_on_c, 9, 42, 85
1, 157559, Note_on_c, 9, 42, 0
1, 157560, Note_on_c, 9, 42, 85
1, 157619, Note_on_c, 9, 42, 0
1, 157620, Note_on_c, 9, 42, 85
1, 157679, Note_on_c, 9, 42, 0
1, 157680, Note_on_c, 9, 42, 85
1, 157739, Note_on_c, 9, 42, 0
1, 157740, Note_on_c, 9, 42, 85
1, 157799, Note_on_c, 9, 42, 0
1, 157800, Note_on_c, 9, 42, 85
1, 157859, Note_on_c, 9, 42, 0
1, 157860, Note_on_c, 9, 42, 85
1, 157919, Note_on_c, 9, 42, 0
1, 157920, Note_on_c, 9, 55, 111
1, 157920, Note_on_c, 9, 36, 114
1, 158279, Note_on_c, 9, 55, 0
1, 158280, Note_on_c, 9, 46, 99
1, 158399, Note_on_c, 9, 36, 0
1, 158399, Note_on_c, 9, 46, 0
1, 158400, Note_on_c, 9, 42, 99
1, 158639, Note_on_c, 9, 42, 0
1, 158640, Note_on_c, 9, 42, 99
1, 158879, Note_on_c, 9, 42, 0
1, 158880, Note_on_c, 9, 33, 123
1, 158880, Note_on_c, 9, 42, 99
1, 159119, Note_on_c, 9, 33, 0
1, 159119, Note_on_c, 9, 42, 0
1, 159120, Note_on_c, 9, 42, 99
1, 159239, Note_on_c, 9, 42, 0
1, 159240, Note_on_c, 9, 42, 99
1, 159240, Note_on_c, 9, 36, 123
1, 159359, Note_on_c, 9, 42, 0
1, 159359, Note_on_c, 9, 36, 0
1, 159360, Note_on_c, 9, 42, 99
1, 159599, Note_on_c, 9, 42, 0
1, 159600, Note_on_c, 9, 42, 99
1, 159600, Note_on_c, 9, 36, 123
1, 159839, Note_on_c, 9, 42, 0
1, 159839, Note_on_c, 9, 36, 0
1, 159840, Note_on_c, 9, 33, 123
1, 159840, Note_on_c, 9, 42, 99
1, 160079, Note_on_c, 9, 33, 0
1, 160079, Note_on_c, 9, 42, 0
1, 160080, Note_on_c, 9, 42, 99
1, 160319, Note_on_c, 9, 42, 0
1, 160320, Note_on_c, 9, 42, 99
1, 160440, Note_on_c, 9, 36, 123
1, 160559, Note_on_c, 9, 42, 0
1, 160560, Note_on_c, 9, 42, 99
1, 160799, Note_on_c, 9, 36, 0
1, 160799, Note_on_c, 9, 42, 0
1, 160800, Note_on_c, 9, 33, 123
1, 160800, Note_on_c, 9, 42, 99
1, 161039, Note_on_c, 9, 33, 0
1, 161039, Note_on_c, 9, 42, 0
1, 161040, Note_on_c, 9, 42, 99
1, 161159, Note_on_c, 9, 42, 0
1, 161160, Note_on_c, 9, 42, 99
1, 161160, Note_on_c, 9, 36, 123
1, 161279, Note_on_c, 9, 42, 0
1, 161279, Note_on_c, 9, 36, 0
1, 161280, Note_on_c, 9, 42, 99
1, 161519, Note_on_c, 9, 42, 0
1, 161520, Note_on_c, 9, 42, 99
1, 161520, Note_on_c, 9, 36, 123
1, 161759, Note_on_c, 9, 42, 0
1, 161759, Note_on_c, 9, 36, 0
1, 161760, Note_on_c, 9, 33, 123
1, 161760, Note_on_c, 9, 42, 99
1, 161999, Note_on_c, 9, 33, 0
1, 161999, Note_on_c, 9, 42, 0
1, 162000, Note_on_c, 9, 42, 99
1, 162239, Note_on_c, 9, 42, 0
1, 162240, Note_on_c, 9, 42, 99
1, 162240, Note_on_c, 9, 36, 123
1, 162479, Note_on_c, 9, 42, 0
1, 162480, Note_on_c, 9, 42, 99
1, 162719, Note_on_c, 9, 36, 0
1, 162719, Note_on_c, 9, 42, 0
1, 162720, Note_on_c, 9, 33, 123
1, 162720, Note_on_c, 9, 42, 99
1, 162959, Note_on_c, 9, 33, 0
1, 162959, Note_on_c, 9, 42, 0
1, 162960, Note_on_c, 9, 42, 99
1, 163079, Note_on_c, 9, 42, 0
1, 163080, Note_on_c, 9, 42, 99
1, 163080, Note_on_c, 9, 36, 123
1, 163199, Note_on_c, 9, 42, 0
1, 163199, Note_on_c, 9, 36, 0
1, 163200, Note_on_c, 9, 42, 99
1, 163439, Note_on_c, 9, 42, 0
1, 163440, Note_on_c, 9, 42, 99
1, 163440, Note_on_c, 9, 36, 123
1, 163679, Note_on_c, 9, 42, 0
1, 163679, Note_on_c, 9, 36, 0
1, 163680, Note_on_c, 9, 33, 123
1, 163680, Note_on_c, 9, 42, 99
1, 163919, Note_on_c, 9, 33, 0
1, 163919, Note_on_c, 9, 42, 0
1, 163920, Note_on_c, 9, 42, 99
1, 164039, Note_on_c, 9, 42, 0
1, 164040, Note_on_c, 9, 42, 70
1, 164159, Note_on_c, 9, 42, 0
1, 164160, Note_on_c, 9, 42, 99
1, 164280, Note_on_c, 9, 36, 123
1, 164399, Note_on_c, 9, 42, 0
1, 164400, Note_on_c, 9, 42, 99
1, 164639, Note_on_c, 9, 36, 0
1, 164639, Note_on_c, 9, 42, 0
1, 164640, Note_on_c, 9, 33, 123
1, 164640, Note_on_c, 9, 42, 99
1, 164879, Note_on_c, 9, 33, 0
1, 164879, Note_on_c, 9, 42, 0
1, 164880, Note_on_c, 9, 42, 99
1, 164999, Note_on_c, 9, 42, 0
1, 165000, Note_on_c, 9, 42, 99
1, 165000, Note_on_c, 9, 36, 123
1, 165119, Note_on_c, 9, 42, 0
1, 165119, Note_on_c, 9, 36, 0
1, 165120, Note_on_c, 9, 46, 99
1, 165359, Note_on_c, 9, 46, 0
1, 165360, Note_on_c, 9, 42, 99
1, 165360, Note_on_c, 9, 36, 123
1, 165599, Note_on_c, 9, 42, 0
1, 165599, Note_on_c, 9, 36, 0
1, 165600, Note_on_c, 9, 33, 123
1, 165600, Note_on_c, 9, 42, 99
1, 165839, Note_on_c, 9, 33, 0
1, 165839, Note_on_c, 9, 42, 0
1, 165840, Note_on_c, 9, 42, 99
1, 166079, Note_on_c, 9, 42, 0
1, 166080, Note_on_c, 9, 46, 99
1, 166080, Note_on_c, 9, 36, 123
1, 166319, Note_on_c, 9, 46, 0
1, 166320, Note_on_c, 9, 42, 99
1, 166559, Note_on_c, 9, 36, 0
1, 166559, Note_on_c, 9, 42, 0
1, 166560, Note_on_c, 9, 33, 123
1, 166560, Note_on_c, 9, 42, 99
1, 166799, Note_on_c, 9, 33, 0
1, 166799, Note_on_c, 9, 42, 0
1, 166800, Note_on_c, 9, 42, 99
1, 166800, Note_on_c, 9, 36, 99
1, 166919, Note_on_c, 9, 42, 0
1, 166919, Note_on_c, 9, 36, 0
1, 166920, Note_on_c, 9, 42, 99
1, 166920, Note_on_c, 9, 36, 123
1, 167039, Note_on_c, 9, 42, 0
1, 167039, Note_on_c, 9, 36, 0
1, 167040, Note_on_c, 9, 42, 99
1, 167279, Note_on_c, 9, 42, 0
1, 167280, Note_on_c, 9, 42, 99
1, 167280, Note_on_c, 9, 36, 123
1, 167519, Note_on_c, 9, 42, 0
1, 167519, Note_on_c, 9, 36, 0
1, 167520, Note_on_c, 9, 33, 123
1, 167520, Note_on_c, 9, 42, 99
1, 167759, Note_on_c, 9, 33, 0
1, 167759, Note_on_c, 9, 42, 0
1, 167760, Note_on_c, 9, 42, 99
1, 167999, Note_on_c, 9, 42, 0
1, 168000, Note_on_c, 9, 42, 99
1, 168000, Note_on_c, 9, 36, 123
1, 168119, Note_on_c, 9, 36, 0
1, 168120, Note_on_c, 9, 36, 123
1, 168239, Note_on_c, 9, 42, 0
1, 168240, Note_on_c, 9, 42, 99
1, 168479, Note_on_c, 9, 36, 0
1, 168479, Note_on_c, 9, 42, 0
1, 168480, Note_on_c, 9, 33, 123
1, 168480, Note_on_c, 9, 42, 99
1, 168719, Note_on_c, 9, 33, 0
1, 168719, Note_on_c, 9, 42, 0
1, 168720, Note_on_c, 9, 42, 99
1, 168839, Note_on_c, 9, 42, 0
1, 168840, Note_on_c, 9, 42, 99
1, 168840, Note_on_c, 9, 36, 123
1, 168959, Note_on_c, 9, 42, 0
1, 168959, Note_on_c, 9, 36, 0
1, 168960, Note_on_c, 9, 46, 99
1, 169199, Note_on_c, 9, 46, 0
1, 169200, Note_on_c, 9, 42, 99
1, 169200, Note_on_c, 9, 36, 123
1, 169439, Note_on_c, 9, 42, 0
1, 169439, Note_on_c, 9, 36, 0
1, 169440, Note_on_c, 9, 33, 123
1, 169440, Note_on_c, 9, 42, 99
1, 169679, Note_on_c, 9, 33, 0
1, 169679, Note_on_c, 9, 42, 0
1, 169680, Note_on_c, 9, 42, 99
1, 169919, Note_on_c, 9, 42, 0
1, 169920, Note_on_c, 9, 46, 111
1, 169920, Note_on_c, 9, 36, 123
1, 170159, Note_on_c, 9, 46, 0
1, 170160, Note_on_c, 9, 42, 99
1, 170399, Note_on_c, 9, 36, 0
1, 170399, Note_on_c, 9, 42, 0
1, 170400, Note_on_c, 9, 33, 123
1, 170400, Note_on_c, 9, 42, 99
1, 170639, Note_on_c, 9, 33, 0
1, 170639, Note_on_c, 9, 42, 0
1, 170640, Note_on_c, 9, 42, 99
1, 170759, Note_on_c, 9, 42, 0
1, 170760, Note_on_c, 9, 42, 99
1, 170760, Note_on_c, 9, 36, 123
1, 170879, Note_on_c, 9, 42, 0
1, 170879, Note_on_c, 9, 36, 0
1, 170880, Note_on_c, 9, 46, 99
1, 171119, Note_on_c, 9, 46, 0
1, 171120, Note_on_c, 9, 42, 99
1, 171120, Note_on_c, 9, 36, 123
1, 171359, Note_on_c, 9, 42, 0
1, 171359, Note_on_c, 9, 36, 0
1, 171360, Note_on_c, 9, 33, 123
1, 171360, Note_on_c, 9, 42, 99
1, 171599, Note_on_c, 9, 33, 0
1, 171599, Note_on_c, 9, 42, 0
1, 171600, Note_on_c, 9, 42, 99
1, 171839, Note_on_c, 9, 42, 0
1, 171840, Note_on_c, 9, 42, 99
1, 172079, Note_on_c, 9, 42, 0
1, 172080, Note_on_c, 9, 42, 99
1, 172319, Note_on_c, 9, 42, 0
1, 172320, Note_on_c, 9, 33, 123
1, 172439, Note_on_c, 9, 33, 0
1, 172440, Note_on_c, 9, 42, 99
1, 172559, Note_on_c, 9, 42, 0
1, 172560, Note_on_c, 9, 33, 123
1, 172679, Note_on_c, 9, 33, 0
1, 172680, Note_on_c, 9, 42, 99
1, 172799, Note_on_c, 9, 42, 0
1, 172800, Note_on_c, 9, 33, 123
1, 172919, Note_on_c, 9, 33, 0
1, 172920, Note_on_c, 9, 42, 99
1, 173039, Note_on_c, 9, 42, 0
1, 173040, Note_on_c, 9, 46, 99
1, 173040, Note_on_c, 9, 36, 123
1, 173279, Note_on_c, 9, 46, 0
1, 173279, Note_on_c, 9, 36, 0
1, 173280, Note_on_c, 9, 33, 123
1, 173399, Note_on_c, 9, 33, 0
1, 173400, Note_on_c, 9, 33, 123
1, 173519, Note_on_c, 9, 33, 0
1, 173520, Note_on_c, 9, 45, 50
1, 173759, Note_on_c, 9, 45, 0
1, 173760, Note_on_c, 9, 57, 111
1, 173760, Note_on_c, 9, 36, 123
1, 173999, Note_on_c, 9, 57, 0
1, 174000, Note_on_c, 9, 42, 99
1, 174239, Note_on_c, 9, 36, 0
1, 174239, Note_on_c, 9, 42, 0
1, 174240, Note_on_c, 9, 33, 123
1, 174240, Note_on_c, 9, 42, 99
1, 174479, Note_on_c, 9, 33, 0
1, 174479, Note_on_c, 9, 42, 0
1, 174480, Note_on_c, 9, 42, 99
1, 174480, Note_on_c, 9, 36, 99
1, 174599, Note_on_c, 9, 42, 0
1, 174599, Note_on_c, 9, 36, 0
1, 174600, Note_on_c, 9, 42, 99
1, 174600, Note_on_c, 9, 36, 123
1, 174719, Note_on_c, 9, 42, 0
1, 174719, Note_on_c, 9, 36, 0
1, 174720, Note_on_c, 9, 46, 99
1, 174959, Note_on_c, 9, 46, 0
1, 174960, Note_on_c, 9, 42, 99
1, 174960, Note_on_c, 9, 36, 123
1, 175079, Note_on_c, 9, 42, 0
1, 175080, Note_on_c, 9, 42, 70
1, 175199, Note_on_c, 9, 36, 0
1, 175199, Note_on_c, 9, 42, 0
1, 175200, Note_on_c, 9, 33, 123
1, 175200, Note_on_c, 9, 42, 99
1, 175319, Note_on_c, 9, 33, 0
1, 175319, Note_on_c, 9, 42, 0
1, 175320, Note_on_c, 9, 42, 70
1, 175439, Note_on_c, 9, 42, 0
1, 175440, Note_on_c, 9, 42, 99
1, 175559, Note_on_c, 9, 42, 0
1, 175560, Note_on_c, 9, 42, 70
1, 175679, Note_on_c, 9, 42, 0
1, 175680, Note_on_c, 9, 42, 99
1, 175680, Note_on_c, 9, 36, 123
1, 175799, Note_on_c, 9, 36, 0
1, 175800, Note_on_c, 9, 36, 123
1, 175919, Note_on_c, 9, 42, 0
1, 175920, Note_on_c, 9, 42, 99
1, 176159, Note_on_c, 9, 36, 0
1, 176159, Note_on_c, 9, 42, 0
1, 176160, Note_on_c, 9, 33, 123
1, 176160, Note_on_c, 9, 42, 99
1, 176399, Note_on_c, 9, 33, 0
1, 176399, Note_on_c, 9, 42, 0
1, 176400, Note_on_c, 9, 42, 99
1, 176400, Note_on_c, 9, 36, 99
1, 176519, Note_on_c, 9, 42, 0
1, 176519, Note_on_c, 9, 36, 0
1, 176520, Note_on_c, 9, 42, 99
1, 176520, Note_on_c, 9, 36, 123
1, 176639, Note_on_c, 9, 42, 0
1, 176639, Note_on_c, 9, 36, 0
1, 176640, Note_on_c, 9, 42, 99
1, 176879, Note_on_c, 9, 42, 0
1, 176880, Note_on_c, 9, 42, 99
1, 176880, Note_on_c, 9, 36, 123
1, 177119, Note_on_c, 9, 42, 0
1, 177119, Note_on_c, 9, 36, 0
1, 177120, Note_on_c, 9, 33, 123
1, 177120, Note_on_c, 9, 42, 99
1, 177359, Note_on_c, 9, 33, 0
1, 177359, Note_on_c, 9, 42, 0
1, 177360, Note_on_c, 9, 42, 99
1, 177599, Note_on_c, 9, 42, 0
1, 177600, Note_on_c, 9, 46, 99
1, 177600, Note_on_c, 9, 36, 123
1, 177839, Note_on_c, 9, 46, 0
1, 177840, Note_on_c, 9, 42, 99
1, 178079, Note_on_c, 9, 36, 0
1, 178079, Note_on_c, 9, 42, 0
1, 178080, Note_on_c, 9, 33, 123
1, 178080, Note_on_c, 9, 42, 99
1, 178319, Note_on_c, 9, 33, 0
1, 178319, Note_on_c, 9, 42, 0
1, 178320, Note_on_c, 9, 42, 99
1, 178439, Note_on_c, 9, 42, 0
1, 178440, Note_on_c, 9, 42, 99
1, 178440, Note_on_c, 9, 36, 123
1, 178559, Note_on_c, 9, 42, 0
1, 178559, Note_on_c, 9, 36, 0
1, 178560, Note_on_c, 9, 42, 99
1, 178679, Note_on_c, 9, 42, 0
1, 178680, Note_on_c, 9, 42, 70
1, 178799, Note_on_c, 9, 42, 0
1, 178800, Note_on_c, 9, 42, 99
1, 178800, Note_on_c, 9, 36, 123
1, 178919, Note_on_c, 9, 42, 0
1, 178920, Note_on_c, 9, 42, 70
1, 179039, Note_on_c, 9, 36, 0
1, 179039, Note_on_c, 9, 42, 0
1, 179040, Note_on_c, 9, 33, 123
1, 179040, Note_on_c, 9, 42, 99
1, 179159, Note_on_c, 9, 33, 0
1, 179159, Note_on_c, 9, 42, 0
1, 179160, Note_on_c, 9, 42, 70
1, 179279, Note_on_c, 9, 42, 0
1, 179280, Note_on_c, 9, 42, 99
1, 179399, Note_on_c, 9, 42, 0
1, 179400, Note_on_c, 9, 42, 70
1, 179519, Note_on_c, 9, 42, 0
1, 179520, Note_on_c, 9, 42, 99
1, 179639, Note_on_c, 9, 42, 0
1, 179640, Note_on_c, 9, 42, 70
1, 179640, Note_on_c, 9, 36, 123
1, 179759, Note_on_c, 9, 42, 0
1, 179760, Note_on_c, 9, 42, 99
1, 179879, Note_on_c, 9, 42, 0
1, 179880, Note_on_c, 9, 42, 70
1, 179999, Note_on_c, 9, 36, 0
1, 179999, Note_on_c, 9, 42, 0
1, 180000, Note_on_c, 9, 33, 123
1, 180000, Note_on_c, 9, 42, 99
1, 180119, Note_on_c, 9, 33, 0
1, 180119, Note_on_c, 9, 42, 0
1, 180120, Note_on_c, 9, 42, 70
1, 180239, Note_on_c, 9, 42, 0
1, 180240, Note_on_c, 9, 42, 99
1, 180359, Note_on_c, 9, 42, 0
1, 180360, Note_on_c, 9, 42, 99
1, 180360, Note_on_c, 9, 36, 123
1, 180479, Note_on_c, 9, 42, 0
1, 180479, Note_on_c, 9, 36, 0
1, 180480, Note_on_c, 9, 46, 99
1, 180719, Note_on_c, 9, 46, 0
1, 180720, Note_on_c, 9, 42, 99
1, 180720, Note_on_c, 9, 36, 123
1, 180959, Note_on_c, 9, 42, 0
1, 180959, Note_on_c, 9, 36, 0
1, 180960, Note_on_c, 9, 33, 123
1, 180960, Note_on_c, 9, 42, 99
1, 181199, Note_on_c, 9, 33, 0
1, 181199, Note_on_c, 9, 42, 0
1, 181200, Note_on_c, 9, 42, 99
1, 181439, Note_on_c, 9, 42, 0
1, 181440, Note_on_c, 9, 57, 111
1, 181440, Note_on_c, 9, 36, 123
1, 181679, Note_on_c, 9, 57, 0
1, 181680, Note_on_c, 9, 42, 99
1, 181919, Note_on_c, 9, 36, 0
1, 181919, Note_on_c, 9, 42, 0
1, 181920, Note_on_c, 9, 33, 123
1, 181920, Note_on_c, 9, 42, 99
1, 182159, Note_on_c, 9, 33, 0
1, 182159, Note_on_c, 9, 42, 0
1, 182160, Note_on_c, 9, 42, 99
1, 182160, Note_on_c, 9, 36, 99
1, 182279, Note_on_c, 9, 42, 0
1, 182279, Note_on_c, 9, 36, 0
1, 182280, Note_on_c, 9, 42, 99
1, 182280, Note_on_c, 9, 36, 123
1, 182399, Note_on_c, 9, 42, 0
1, 182399, Note_on_c, 9, 36, 0
1, 182400, Note_on_c, 9, 42, 99
1, 182519, Note_on_c, 9, 42, 0
1, 182520, Note_on_c, 9, 42, 70
1, 182639, Note_on_c, 9, 42, 0
1, 182640, Note_on_c, 9, 42, 99
1, 182640, Note_on_c, 9, 36, 123
1, 182879, Note_on_c, 9, 42, 0
1, 182879, Note_on_c, 9, 36, 0
1, 182880, Note_on_c, 9, 33, 123
1, 182880, Note_on_c, 9, 42, 99
1, 183119, Note_on_c, 9, 33, 0
1, 183119, Note_on_c, 9, 42, 0
1, 183120, Note_on_c, 9, 42, 99
1, 183239, Note_on_c, 9, 42, 0
1, 183240, Note_on_c, 9, 42, 70
1, 183359, Note_on_c, 9, 42, 0
1, 183360, Note_on_c, 9, 42, 99
1, 183360, Note_on_c, 9, 36, 123
1, 183479, Note_on_c, 9, 36, 0
1, 183480, Note_on_c, 9, 36, 123
1, 183599, Note_on_c, 9, 42, 0
1, 183600, Note_on_c, 9, 42, 99
1, 183839, Note_on_c, 9, 36, 0
1, 183839, Note_on_c, 9, 42, 0
1, 183840, Note_on_c, 9, 33, 123
1, 183840, Note_on_c, 9, 42, 99
1, 184079, Note_on_c, 9, 33, 0
1, 184079, Note_on_c, 9, 42, 0
1, 184080, Note_on_c, 9, 42, 99
1, 184080, Note_on_c, 9, 36, 99
1, 184199, Note_on_c, 9, 42, 0
1, 184199, Note_on_c, 9, 36, 0
1, 184200, Note_on_c, 9, 42, 99
1, 184200, Note_on_c, 9, 36, 123
1, 184319, Note_on_c, 9, 42, 0
1, 184319, Note_on_c, 9, 36, 0
1, 184320, Note_on_c, 9, 46, 99
1, 184559, Note_on_c, 9, 46, 0
1, 184560, Note_on_c, 9, 42, 99
1, 184560, Note_on_c, 9, 36, 123
1, 184799, Note_on_c, 9, 42, 0
1, 184799, Note_on_c, 9, 36, 0
1, 184800, Note_on_c, 9, 33, 123
1, 184800, Note_on_c, 9, 42, 99
1, 185039, Note_on_c, 9, 33, 0
1, 185039, Note_on_c, 9, 42, 0
1, 185040, Note_on_c, 9, 42, 99
1, 185159, Note_on_c, 9, 42, 0
1, 185160, Note_on_c, 9, 42, 99
1, 185279, Note_on_c, 9, 42, 0
1, 185280, Note_on_c, 9, 46, 99
1, 185280, Note_on_c, 9, 36, 123
1, 185519, Note_on_c, 9, 46, 0
1, 185520, Note_on_c, 9, 42, 99
1, 185639, Note_on_c, 9, 42, 0
1, 185640, Note_on_c, 9, 42, 70
1, 185759, Note_on_c, 9, 36, 0
1, 185759, Note_on_c, 9, 42, 0
1, 185760, Note_on_c, 9, 33, 123
1, 185760, Note_on_c, 9, 42, 99
1, 185999, Note_on_c, 9, 33, 0
1, 185999, Note_on_c, 9, 42, 0
1, 186000, Note_on_c, 9, 42, 99
1, 186119, Note_on_c, 9, 42, 0
1, 186120, Note_on_c, 9, 42, 99
1, 186120, Note_on_c, 9, 36, 123
1, 186239, Note_on_c, 9, 42, 0
1, 186239, Note_on_c, 9, 36, 0
1, 186240, Note_on_c, 9, 42, 99
1, 186359, Note_on_c, 9, 42, 0
1, 186360, Note_on_c, 9, 42, 70
1, 186479, Note_on_c, 9, 42, 0
1, 186480, Note_on_c, 9, 42, 99
1, 186480, Note_on_c, 9, 36, 123
1, 186599, Note_on_c, 9, 42, 0
1, 186600, Note_on_c, 9, 42, 70
1, 186719, Note_on_c, 9, 36, 0
1, 186719, Note_on_c, 9, 42, 0
1, 186720, Note_on_c, 9, 33, 123
1, 186720, Note_on_c, 9, 42, 99
1, 186839, Note_on_c, 9, 33, 0
1, 186839, Note_on_c, 9, 42, 0
1, 186840, Note_on_c, 9, 42, 70
1, 186959, Note_on_c, 9, 42, 0
1, 186960, Note_on_c, 9, 42, 99
1, 187079, Note_on_c, 9, 42, 0
1, 187080, Note_on_c, 9, 42, 70
1, 187199, Note_on_c, 9, 42, 0
1, 187200, Note_on_c, 9, 42, 99
1, 187319, Note_on_c, 9, 42, 0
1, 187320, Note_on_c, 9, 42, 70
1, 187320, Note_on_c, 9, 36, 123
1, 187439, Note_on_c, 9, 42, 0
1, 187440, Note_on_c, 9, 42, 99
1, 187559, Note_on_c, 9, 42, 0
1, 187560, Note_on_c, 9, 42, 70
1, 187679, Note_on_c, 9, 36, 0
1, 187679, Note_on_c, 9, 42, 0
1, 187680, Note_on_c, 9, 33, 123
1, 187680, Note_on_c, 9, 42, 99
1, 187799, Note_on_c, 9, 33, 0
1, 187799, Note_on_c, 9, 42, 0
1, 187800, Note_on_c, 9, 42, 70
1, 187919, Note_on_c, 9, 42, 0
1, 187920, Note_on_c, 9, 42, 99
1, 188039, Note_on_c, 9, 42, 0
1, 188040, Note_on_c, 9, 42, 99
1, 188040, Note_on_c, 9, 36, 123
1, 188159, Note_on_c, 9, 42, 0
1, 188159, Note_on_c, 9, 36, 0
1, 188160, Note_on_c, 9, 42, 99
1, 188399, Note_on_c, 9, 42, 0
1, 188400, Note_on_c, 9, 42, 99
1, 188400, Note_on_c, 9, 36, 123
1, 188639, Note_on_c, 9, 42, 0
1, 188639, Note_on_c, 9, 36, 0
1, 188640, Note_on_c, 9, 33, 123
1, 188640, Note_on_c, 9, 42, 99
1, 188879, Note_on_c, 9, 33, 0
1, 188879, Note_on_c, 9, 42, 0
1, 188880, Note_on_c, 9, 45, 50
1, 189119, Note_on_c, 9, 45, 0
1, 189120, Note_on_c, 9, 57, 111
1, 189120, Note_on_c, 9, 36, 123
1, 189359, Note_on_c, 9, 57, 0
1, 189360, Note_on_c, 9, 42, 99
1, 189599, Note_on_c, 9, 36, 0
1, 189599, Note_on_c, 9, 42, 0
1, 189600, Note_on_c, 9, 33, 123
1, 189600, Note_on_c, 9, 42, 99
1, 189839, Note_on_c, 9, 33, 0
1, 189839, Note_on_c, 9, 42, 0
1, 189840, Note_on_c, 9, 42, 99
1, 189840, Note_on_c, 9, 36, 99
1, 189959, Note_on_c, 9, 42, 0
1, 189959, Note_on_c, 9, 36, 0
1, 189960, Note_on_c, 9, 42, 99
1, 189960, Note_on_c, 9, 36, 123
1, 190079, Note_on_c, 9, 42, 0
1, 190079, Note_on_c, 9, 36, 0
1, 190080, Note_on_c, 9, 42, 99
1, 190199, Note_on_c, 9, 42, 0
1, 190200, Note_on_c, 9, 42, 70
1, 190319, Note_on_c, 9, 42, 0
1, 190320, Note_on_c, 9, 42, 99
1, 190320, Note_on_c, 9, 36, 123
1, 190559, Note_on_c, 9, 42, 0
1, 190559, Note_on_c, 9, 36, 0
1, 190560, Note_on_c, 9, 33, 123
1, 190560, Note_on_c, 9, 42, 99
1, 190679, Note_on_c, 9, 33, 0
1, 190679, Note_on_c, 9, 42, 0
1, 190680, Note_on_c, 9, 42, 70
1, 190799, Note_on_c, 9, 42, 0
1, 190800, Note_on_c, 9, 42, 99
1, 190919, Note_on_c, 9, 42, 0
1, 190920, Note_on_c, 9, 42, 70
1, 191039, Note_on_c, 9, 42, 0
1, 191040, Note_on_c, 9, 42, 99
1, 191040, Note_on_c, 9, 36, 123
1, 191159, Note_on_c, 9, 36, 0
1, 191160, Note_on_c, 9, 36, 123
1, 191279, Note_on_c, 9, 42, 0
1, 191280, Note_on_c, 9, 42, 99
1, 191519, Note_on_c, 9, 36, 0
1, 191519, Note_on_c, 9, 42, 0
1, 191520, Note_on_c, 9, 33, 123
1, 191520, Note_on_c, 9, 42, 99
1, 191759, Note_on_c, 9, 33, 0
1, 191759, Note_on_c, 9, 42, 0
1, 191760, Note_on_c, 9, 42, 99
1, 191760, Note_on_c, 9, 36, 99
1, 191879, Note_on_c, 9, 42, 0
1, 191879, Note_on_c, 9, 36, 0
1, 191880, Note_on_c, 9, 42, 99
1, 191880, Note_on_c, 9, 36, 123
1, 191999, Note_on_c, 9, 42, 0
1, 191999, Note_on_c, 9, 36, 0
1, 192000, Note_on_c, 9, 46, 99
1, 192239, Note_on_c, 9, 46, 0
1, 192240, Note_on_c, 9, 42, 99
1, 192240, Note_on_c, 9, 36, 123
1, 192479, Note_on_c, 9, 42, 0
1, 192479, Note_on_c, 9, 36, 0
1, 192480, Note_on_c, 9, 33, 123
1, 192480, Note_on_c, 9, 42, 99
1, 192719, Note_on_c, 9, 33, 0
1, 192719, Note_on_c, 9, 42, 0
1, 192720, Note_on_c, 9, 42, 99
1, 192959, Note_on_c, 9, 42, 0
1, 192960, Note_on_c, 9, 46, 99
1, 192960, Note_on_c, 9, 36, 123
1, 193199, Note_on_c, 9, 46, 0
1, 193200, Note_on_c, 9, 42, 99
1, 193439, Note_on_c, 9, 36, 0
1, 193439, Note_on_c, 9, 42, 0
1, 193440, Note_on_c, 9, 33, 123
1, 193440, Note_on_c, 9, 42, 99
1, 193679, Note_on_c, 9, 33, 0
1, 193679, Note_on_c, 9, 42, 0
1, 193680, Note_on_c, 9, 42, 99
1, 193799, Note_on_c, 9, 42, 0
1, 193800, Note_on_c, 9, 42, 99
1, 193800, Note_on_c, 9, 36, 123
1, 193919, Note_on_c, 9, 42, 0
1, 193919, Note_on_c, 9, 36, 0
1, 193920, Note_on_c, 9, 42, 99
1, 194159, Note_on_c, 9, 42, 0
1, 194160, Note_on_c, 9, 42, 99
1, 194160, Note_on_c, 9, 36, 123
1, 194399, Note_on_c, 9, 42, 0
1, 194399, Note_on_c, 9, 36, 0
1, 194400, Note_on_c, 9, 33, 123
1, 194400, Note_on_c, 9, 42, 99
1, 194639, Note_on_c, 9, 33, 0
1, 194639, Note_on_c, 9, 42, 0
1, 194640, Note_on_c, 9, 42, 99
1, 194879, Note_on_c, 9, 42, 0
1, 194880, Note_on_c, 9, 42, 99
1, 194999, Note_on_c, 9, 42, 0
1, 195000, Note_on_c, 9, 42, 70
1, 195000, Note_on_c, 9, 36, 123
1, 195119, Note_on_c, 9, 42, 0
1, 195120, Note_on_c, 9, 42, 99
1, 195239, Note_on_c, 9, 42, 0
1, 195240, Note_on_c, 9, 42, 70
1, 195359, Note_on_c, 9, 36, 0
1, 195359, Note_on_c, 9, 42, 0
1, 195360, Note_on_c, 9, 33, 123
1, 195360, Note_on_c, 9, 42, 99
1, 195599, Note_on_c, 9, 33, 0
1, 195599, Note_on_c, 9, 42, 0
1, 195600, Note_on_c, 9, 42, 99
1, 195720, Note_on_c, 9, 36, 123
1, 195839, Note_on_c, 9, 42, 0
1, 195839, Note_on_c, 9, 36, 0
1, 195840, Note_on_c, 9, 46, 99
1, 196079, Note_on_c, 9, 46, 0
1, 196080, Note_on_c, 9, 42, 99
1, 196080, Note_on_c, 9, 36, 123
1, 196319, Note_on_c, 9, 42, 0
1, 196319, Note_on_c, 9, 36, 0
1, 196320, Note_on_c, 9, 33, 123
1, 196320, Note_on_c, 9, 42, 99
1, 196559, Note_on_c, 9, 33, 0
1, 196559, Note_on_c, 9, 42, 0
1, 196560, Note_on_c, 9, 42, 99
1, 196799, Note_on_c, 9, 42, 0
1, 196800, Note_on_c, 9, 46, 99
1, 196800, Note_on_c, 9, 36, 123
1, 197039, Note_on_c, 9, 46, 0
1, 197040, Note_on_c, 9, 42, 99
1, 197279, Note_on_c, 9, 36, 0
1, 197279, Note_on_c, 9, 42, 0
1, 197280, Note_on_c, 9, 33, 123
1, 197280, Note_on_c, 9, 42, 99
1, 197519, Note_on_c, 9, 33, 0
1, 197519, Note_on_c, 9, 42, 0
1, 197520, Note_on_c, 9, 42, 99
1, 197520, Note_on_c, 9, 36, 99
1, 197639, Note_on_c, 9, 42, 0
1, 197640, Note_on_c, 9, 42, 99
1, 197759, Note_on_c, 9, 36, 0
1, 197759, Note_on_c, 9, 42, 0
1, 197760, Note_on_c, 9, 46, 99
1, 197760, Note_on_c, 9, 36, 123
1, 197999, Note_on_c, 9, 46, 0
1, 197999, Note_on_c, 9, 36, 0
1, 198000, Note_on_c, 9, 42, 99
1, 198000, Note_on_c, 9, 36, 123
1, 198239, Note_on_c, 9, 42, 0
1, 198239, Note_on_c, 9, 36, 0
1, 198240, Note_on_c, 9, 33, 123
1, 198240, Note_on_c, 9, 42, 99
1, 198479, Note_on_c, 9, 33, 0
1, 198479, Note_on_c, 9, 42, 0
1, 198480, Note_on_c, 9, 42, 99
1, 198719, Note_on_c, 9, 42, 0
1, 198720, Note_on_c, 9, 46, 99
1, 198720, Note_on_c, 9, 36, 123
1, 198959, Note_on_c, 9, 46, 0
1, 198960, Note_on_c, 9, 42, 99
1, 199199, Note_on_c, 9, 36, 0
1, 199199, Note_on_c, 9, 42, 0
1, 199200, Note_on_c, 9, 33, 123
1, 199200, Note_on_c, 9, 42, 99
1, 199439, Note_on_c, 9, 33, 0
1, 199439, Note_on_c, 9, 42, 0
1, 199440, Note_on_c, 9, 42, 99
1, 199440, Note_on_c, 9, 36, 99
1, 199679, Note_on_c, 9, 42, 0
1, 199679, Note_on_c, 9, 36, 0
1, 199680, Note_on_c, 9, 42, 99
1, 199680, Note_on_c, 9, 36, 123
1, 199919, Note_on_c, 9, 42, 0
1, 199919, Note_on_c, 9, 36, 0
1, 199920, Note_on_c, 9, 42, 99
1, 199920, Note_on_c, 9, 36, 123
1, 200159, Note_on_c, 9, 42, 0
1, 200159, Note_on_c, 9, 36, 0
1, 200160, Note_on_c, 9, 33, 123
1, 200160, Note_on_c, 9, 42, 99
1, 200280, Note_on_c, 9, 36, 123
1, 200399, Note_on_c, 9, 33, 0
1, 200399, Note_on_c, 9, 42, 0
1, 200400, Note_on_c, 9, 42, 99
1, 200639, Note_on_c, 9, 36, 0
1, 200639, Note_on_c, 9, 42, 0
1, 200640, Note_on_c, 9, 46, 99
1, 200640, Note_on_c, 9, 36, 123
1, 200879, Note_on_c, 9, 46, 0
1, 200879, Note_on_c, 9, 36, 0
1, 200880, Note_on_c, 9, 42, 99
1, 200880, Note_on_c, 9, 36, 123
1, 201119, Note_on_c, 9, 42, 0
1, 201119, Note_on_c, 9, 36, 0
1, 201120, Note_on_c, 9, 33, 123
1, 201120, Note_on_c, 9, 42, 99
1, 201359, Note_on_c, 9, 33, 0
1, 201359, Note_on_c, 9, 42, 0
1, 201360, Note_on_c, 9, 33, 123
1, 201360, Note_on_c, 9, 42, 99
1, 201480, Note_on_c, 9, 36, 99
1, 201599, Note_on_c, 9, 33, 0
1, 201599, Note_on_c, 9, 42, 0
1, 201599, Note_on_c, 9, 36, 0
1, 201600, Note_on_c, 9, 46, 99
1, 201720, Note_on_c, 9, 36, 123
1, 201839, Note_on_c, 9, 46, 0
1, 201840, Note_on_c, 9, 42, 99
1, 202079, Note_on_c, 9, 36, 0
1, 202079, Note_on_c, 9, 42, 0
1, 202080, Note_on_c, 9, 33, 123
1, 202080, Note_on_c, 9, 42, 99
1, 202319, Note_on_c, 9, 33, 0
1, 202319, Note_on_c, 9, 42, 0
1, 202320, Note_on_c, 9, 42, 99
1, 202439, Note_on_c, 9, 42, 0
1, 202440, Note_on_c, 9, 42, 70
1, 202559, Note_on_c, 9, 42, 0
1, 202560, Note_on_c, 9, 46, 99
1, 202560, Note_on_c, 9, 36, 123
1, 202679, Note_on_c, 9, 36, 0
1, 202680, Note_on_c, 9, 36, 99
1, 202799, Note_on_c, 9, 46, 0
1, 202799, Note_on_c, 9, 36, 0
1, 202800, Note_on_c, 9, 42, 99
1, 202800, Note_on_c, 9, 36, 123
1, 202919, Note_on_c, 9, 42, 0
1, 202920, Note_on_c, 9, 42, 70
1, 203039, Note_on_c, 9, 36, 0
1, 203039, Note_on_c, 9, 42, 0
1, 203040, Note_on_c, 9, 33, 123
1, 203040, Note_on_c, 9, 42, 99
1, 203159, Note_on_c, 9, 33, 0
1, 203159, Note_on_c, 9, 42, 0
1, 203160, Note_on_c, 9, 42, 70
1, 203279, Note_on_c, 9, 42, 0
1, 203280, Note_on_c, 9, 42, 99
1, 203280, Note_on_c, 9, 36, 123
1, 203399, Note_on_c, 9, 42, 0
1, 203400, Note_on_c, 9, 42, 99
1, 203519, Note_on_c, 9, 36, 0
1, 203519, Note_on_c, 9, 42, 0
1, 203520, Note_on_c, 9, 46, 99
1, 203520, Note_on_c, 9, 33, 123
1, 203759, Note_on_c, 9, 46, 0
1, 203759, Note_on_c, 9, 33, 0
1, 203760, Note_on_c, 9, 42, 99
1, 203760, Note_on_c, 9, 36, 123
1, 203999, Note_on_c, 9, 42, 0
1, 203999, Note_on_c, 9, 36, 0
1, 204000, Note_on_c, 9, 33, 123
1, 204000, Note_on_c, 9, 42, 99
1, 204119, Note_on_c, 9, 33, 0
1, 204119, Note_on_c, 9, 42, 0
1, 204120, Note_on_c, 9, 33, 123
1, 204239, Note_on_c, 9, 33, 0
1, 204240, Note_on_c, 9, 45, 50
1, 204479, Note_on_c, 9, 45, 0
1, 204480, Note_on_c, 9, 57, 111
1, 204480, Note_on_c, 9, 36, 123
1, 204719, Note_on_c, 9, 57, 0
1, 204720, Note_on_c, 9, 42, 99
1, 204959, Note_on_c, 9, 36, 0
1, 204959, Note_on_c, 9, 42, 0
1, 204960, Note_on_c, 9, 33, 123
1, 204960, Note_on_c, 9, 42, 99
1, 205199, Note_on_c, 9, 33, 0
1, 205199, Note_on_c, 9, 42, 0
1, 205200, Note_on_c, 9, 42, 99
1, 205319, Note_on_c, 9, 42, 0
1, 205320, Note_on_c, 9, 42, 99
1, 205320, Note_on_c, 9, 36, 123
1, 205439, Note_on_c, 9, 42, 0
1, 205439, Note_on_c, 9, 36, 0
1, 205440, Note_on_c, 9, 42, 99
1, 205559, Note_on_c, 9, 42, 0
1, 205560, Note_on_c, 9, 42, 70
1, 205679, Note_on_c, 9, 42, 0
1, 205680, Note_on_c, 9, 42, 99
1, 205680, Note_on_c, 9, 36, 123
1, 205799, Note_on_c, 9, 42, 0
1, 205800, Note_on_c, 9, 42, 70
1, 205919, Note_on_c, 9, 36, 0
1, 205919, Note_on_c, 9, 42, 0
1, 205920, Note_on_c, 9, 33, 123
1, 205920, Note_on_c, 9, 42, 99
1, 206039, Note_on_c, 9, 33, 0
1, 206039, Note_on_c, 9, 42, 0
1, 206040, Note_on_c, 9, 42, 70
1, 206159, Note_on_c, 9, 42, 0
1, 206160, Note_on_c, 9, 42, 99
1, 206279, Note_on_c, 9, 42, 0
1, 206280, Note_on_c, 9, 42, 70
1, 206399, Note_on_c, 9, 42, 0
1, 206400, Note_on_c, 9, 42, 99
1, 206519, Note_on_c, 9, 42, 0
1, 206520, Note_on_c, 9, 42, 70
1, 206520, Note_on_c, 9, 36, 123
1, 206639, Note_on_c, 9, 42, 0
1, 206640, Note_on_c, 9, 42, 99
1, 206759, Note_on_c, 9, 42, 0
1, 206760, Note_on_c, 9, 42, 70
1, 206879, Note_on_c, 9, 36, 0
1, 206879, Note_on_c, 9, 42, 0
1, 206880, Note_on_c, 9, 33, 123
1, 206880, Note_on_c, 9, 42, 99
1, 207119, Note_on_c, 9, 33, 0
1, 207119, Note_on_c, 9, 42, 0
1, 207120, Note_on_c, 9, 42, 99
1, 207239, Note_on_c, 9, 42, 0
1, 207240, Note_on_c, 9, 42, 99
1, 207240, Note_on_c, 9, 36, 123
1, 207359, Note_on_c, 9, 42, 0
1, 207359, Note_on_c, 9, 36, 0
1, 207360, Note_on_c, 9, 42, 99
1, 207599, Note_on_c, 9, 42, 0
1, 207600, Note_on_c, 9, 42, 99
1, 207600, Note_on_c, 9, 36, 123
1, 207839, Note_on_c, 9, 42, 0
1, 207839, Note_on_c, 9, 36, 0
1, 207840, Note_on_c, 9, 33, 123
1, 207840, Note_on_c, 9, 42, 99
1, 208079, Note_on_c, 9, 33, 0
1, 208079, Note_on_c, 9, 42, 0
1, 208080, Note_on_c, 9, 42, 99
1, 208319, Note_on_c, 9, 42, 0
1, 208320, Note_on_c, 9, 46, 99
1, 208320, Note_on_c, 9, 36, 123
1, 208559, Note_on_c, 9, 46, 0
1, 208559, Note_on_c, 9, 36, 0
1, 208560, Note_on_c, 9, 42, 99
1, 208560, Note_on_c, 9, 36, 123
1, 208799, Note_on_c, 9, 42, 0
1, 208799, Note_on_c, 9, 36, 0
1, 208800, Note_on_c, 9, 33, 123
1, 208800, Note_on_c, 9, 42, 99
1, 209039, Note_on_c, 9, 33, 0
1, 209039, Note_on_c, 9, 42, 0
1, 209040, Note_on_c, 9, 42, 99
1, 209159, Note_on_c, 9, 42, 0
1, 209160, Note_on_c, 9, 42, 99
1, 209160, Note_on_c, 9, 36, 123
1, 209279, Note_on_c, 9, 42, 0
1, 209279, Note_on_c, 9, 36, 0
1, 209280, Note_on_c, 9, 42, 99
1, 209399, Note_on_c, 9, 42, 0
1, 209400, Note_on_c, 9, 42, 70
1, 209519, Note_on_c, 9, 42, 0
1, 209520, Note_on_c, 9, 42, 99
1, 209520, Note_on_c, 9, 36, 123
1, 209639, Note_on_c, 9, 42, 0
1, 209640, Note_on_c, 9, 42, 70
1, 209759, Note_on_c, 9, 36, 0
1, 209759, Note_on_c, 9, 42, 0
1, 209760, Note_on_c, 9, 33, 123
1, 209760, Note_on_c, 9, 42, 99
1, 209999, Note_on_c, 9, 33, 0
1, 209999, Note_on_c, 9, 42, 0
1, 210000, Note_on_c, 9, 42, 99
1, 210239, Note_on_c, 9, 42, 0
1, 210240, Note_on_c, 9, 42, 99
1, 210359, Note_on_c, 9, 42, 0
1, 210360, Note_on_c, 9, 42, 70
1, 210360, Note_on_c, 9, 36, 123
1, 210479, Note_on_c, 9, 42, 0
1, 210480, Note_on_c, 9, 42, 99
1, 210599, Note_on_c, 9, 42, 0
1, 210600, Note_on_c, 9, 42, 70
1, 210719, Note_on_c, 9, 36, 0
1, 210719, Note_on_c, 9, 42, 0
1, 210720, Note_on_c, 9, 33, 123
1, 210720, Note_on_c, 9, 42, 99
1, 210839, Note_on_c, 9, 33, 0
1, 210839, Note_on_c, 9, 42, 0
1, 210840, Note_on_c, 9, 42, 70
1, 210959, Note_on_c, 9, 42, 0
1, 210960, Note_on_c, 9, 42, 99
1, 211079, Note_on_c, 9, 42, 0
1, 211080, Note_on_c, 9, 42, 99
1, 211080, Note_on_c, 9, 36, 123
1, 211199, Note_on_c, 9, 42, 0
1, 211199, Note_on_c, 9, 36, 0
1, 211200, Note_on_c, 9, 46, 99
1, 211439, Note_on_c, 9, 46, 0
1, 211440, Note_on_c, 9, 42, 99
1, 211440, Note_on_c, 9, 36, 123
1, 211679, Note_on_c, 9, 42, 0
1, 211679, Note_on_c, 9, 36, 0
1, 211680, Note_on_c, 9, 33, 123
1, 211680, Note_on_c, 9, 42, 99
1, 211919, Note_on_c, 9, 33, 0
1, 211919, Note_on_c, 9, 42, 0
1, 211920, Note_on_c, 9, 46, 99
1, 212159, Note_on_c, 9, 46, 0
1, 212160, Note_on_c, 9, 57, 111
1, 212160, Note_on_c, 9, 36, 123
1, 212399, Note_on_c, 9, 57, 0
1, 212400, Note_on_c, 9, 42, 99
1, 212639, Note_on_c, 9, 36, 0
1, 212639, Note_on_c, 9, 42, 0
1, 212640, Note_on_c, 9, 33, 123
1, 212640, Note_on_c, 9, 42, 99
1, 212879, Note_on_c, 9, 33, 0
1, 212879, Note_on_c, 9, 42, 0
1, 212880, Note_on_c, 9, 42, 99
1, 212880, Note_on_c, 9, 36, 99
1, 212999, Note_on_c, 9, 42, 0
1, 212999, Note_on_c, 9, 36, 0
1, 213000, Note_on_c, 9, 42, 99
1, 213000, Note_on_c, 9, 36, 123
1, 213119, Note_on_c, 9, 42, 0
1, 213119, Note_on_c, 9, 36, 0
1, 213120, Note_on_c, 9, 46, 99
1, 213359, Note_on_c, 9, 46, 0
1, 213360, Note_on_c, 9, 42, 99
1, 213360, Note_on_c, 9, 36, 123
1, 213599, Note_on_c, 9, 42, 0
1, 213599, Note_on_c, 9, 36, 0
1, 213600, Note_on_c, 9, 33, 123
1, 213600, Note_on_c, 9, 42, 99
1, 213839, Note_on_c, 9, 33, 0
1, 213839, Note_on_c, 9, 42, 0
1, 213840, Note_on_c, 9, 42, 99
1, 213959, Note_on_c, 9, 42, 0
1, 213960, Note_on_c, 9, 42, 70
1, 214079, Note_on_c, 9, 42, 0
1, 214080, Note_on_c, 9, 42, 99
1, 214199, Note_on_c, 9, 42, 0
1, 214200, Note_on_c, 9, 42, 70
1, 214200, Note_on_c, 9, 36, 123
1, 214319, Note_on_c, 9, 42, 0
1, 214320, Note_on_c, 9, 42, 99
1, 214439, Note_on_c, 9, 42, 0
1, 214440, Note_on_c, 9, 42, 70
1, 214559, Note_on_c, 9, 36, 0
1, 214559, Note_on_c, 9, 42, 0
1, 214560, Note_on_c, 9, 33, 123
1, 214560, Note_on_c, 9, 42, 99
1, 214799, Note_on_c, 9, 33, 0
1, 214799, Note_on_c, 9, 42, 0
1, 214800, Note_on_c, 9, 42, 99
1, 214800, Note_on_c, 9, 36, 99
1, 214919, Note_on_c, 9, 42, 0
1, 214919, Note_on_c, 9, 36, 0
1, 214920, Note_on_c, 9, 42, 99
1, 214920, Note_on_c, 9, 36, 123
1, 215039, Note_on_c, 9, 42, 0
1, 215039, Note_on_c, 9, 36, 0
1, 215040, Note_on_c, 9, 42, 99
1, 215159, Note_on_c, 9, 42, 0
1, 215160, Note_on_c, 9, 42, 70
1, 215279, Note_on_c, 9, 42, 0
1, 215280, Note_on_c, 9, 42, 99
1, 215280, Note_on_c, 9, 36, 123
1, 215519, Note_on_c, 9, 42, 0
1, 215519, Note_on_c, 9, 36, 0
1, 215520, Note_on_c, 9, 33, 123
1, 215520, Note_on_c, 9, 42, 99
1, 215759, Note_on_c, 9, 33, 0
1, 215759, Note_on_c, 9, 42, 0
1, 215760, Note_on_c, 9, 42, 99
1, 215999, Note_on_c, 9, 42, 0
1, 216000, Note_on_c, 9, 46, 99
1, 216000, Note_on_c, 9, 36, 123
1, 216239, Note_on_c, 9, 46, 0
1, 216239, Note_on_c, 9, 36, 0
1, 216240, Note_on_c, 9, 42, 99
1, 216240, Note_on_c, 9, 36, 123
1, 216479, Note_on_c, 9, 42, 0
1, 216479, Note_on_c, 9, 36, 0
1, 216480, Note_on_c, 9, 33, 123
1, 216480, Note_on_c, 9, 42, 99
1, 216519, Note_on_c, 9, 33, 0
1, 216519, Note_on_c, 9, 42, 0
1, 216520, Note_on_c, 9, 33, 123
1, 216599, Note_on_c, 9, 33, 0
1, 216600, Note_on_c, 9, 36, 123
1, 216720, Note_on_c, 9, 42, 99
1, 216839, Note_on_c, 9, 36, 0
1, 216840, Note_on_c, 9, 36, 123
1, 216959, Note_on_c, 9, 42, 0
1, 216959, Note_on_c, 9, 36, 0
1, 216960, Note_on_c, 9, 42, 99
1, 217079, Note_on_c, 9, 42, 0
1, 217080, Note_on_c, 9, 33, 123
1, 217199, Note_on_c, 9, 33, 0
1, 217200, Note_on_c, 9, 42, 99
1, 217200, Note_on_c, 9, 36, 123
1, 217439, Note_on_c, 9, 42, 0
1, 217439, Note_on_c, 9, 36, 0
1, 217440, Note_on_c, 9, 33, 123
1, 217440, Note_on_c, 9, 42, 99
1, 217559, Note_on_c, 9, 33, 0
1, 217559, Note_on_c, 9, 42, 0
1, 217560, Note_on_c, 9, 42, 70
1, 217679, Note_on_c, 9, 42, 0
1, 217680, Note_on_c, 9, 42, 99
1, 217680, Note_on_c, 9, 36, 99
1, 217799, Note_on_c, 9, 42, 0
1, 217800, Note_on_c, 9, 42, 70
1, 217919, Note_on_c, 9, 36, 0
1, 217919, Note_on_c, 9, 42, 0
1, 217920, Note_on_c, 9, 42, 99
1, 217920, Note_on_c, 9, 36, 123
1, 218159, Note_on_c, 9, 42, 0
1, 218159, Note_on_c, 9, 36, 0
1, 218160, Note_on_c, 9, 46, 99
1, 218160, Note_on_c, 9, 36, 123
1, 218399, Note_on_c, 9, 46, 0
1, 218399, Note_on_c, 9, 36, 0
1, 218400, Note_on_c, 9, 33, 123
1, 218400, Note_on_c, 9, 42, 99
1, 218639, Note_on_c, 9, 33, 0
1, 218639, Note_on_c, 9, 42, 0
1, 218640, Note_on_c, 9, 42, 99
1, 218640, Note_on_c, 9, 36, 123
1, 218759, Note_on_c, 9, 42, 0
1, 218760, Note_on_c, 9, 42, 99
1, 218879, Note_on_c, 9, 36, 0
1, 218879, Note_on_c, 9, 42, 0
1, 218880, Note_on_c, 9, 46, 99
1, 219119, Note_on_c, 9, 46, 0
1, 219120, Note_on_c, 9, 42, 99
1, 219120, Note_on_c, 9, 36, 123
1, 219239, Note_on_c, 9, 42, 0
1, 219240, Note_on_c, 9, 42, 99
1, 219359, Note_on_c, 9, 36, 0
1, 219359, Note_on_c, 9, 42, 0
1, 219360, Note_on_c, 9, 33, 123
1, 219479, Note_on_c, 9, 33, 0
1, 219480, Note_on_c, 9, 33, 123
1, 219599, Note_on_c, 9, 33, 0
1, 219600, Note_on_c, 9, 45, 50
1, 219839, Note_on_c, 9, 45, 0
1, 219840, Note_on_c, 9, 57, 114
1, 219840, Note_on_c, 9, 36, 123
1, 220319, Note_on_c, 9, 57, 0
1, 220319, Note_on_c, 9, 36, 0
1, 220320, End_track
0, 0, End_of_file
