0, 0, Header, 1, 2, 480
1, 0, Start_track
1, 0, Time_signature, 4, 2, 24, 8
1, 0, Key_signature, 0, "major"
1, 0, Tempo, 451128
1, 0, Control_c, 9, 121, 0
1, 0, Program_c, 9, 0
1, 0, Control_c, 9, 7, 100
1, 0, Control_c, 9, 10, 64
1, 0, Control_c, 9, 91, 0
1, 0, Control_c, 9, 93, 0
1, 0, MIDI_port, 0
1, 240, Note_on_c, 9, 57, 127
1, 479, Note_on_c, 9, 57, 0
1, 6000, Note_on_c, 9, 57, 127
1, 6239, Note_on_c, 9, 57, 0
1, 7920, Note_on_c, 9, 57, 127
1, 8159, Note_on_c, 9, 57, 0
1, 13680, Note_on_c, 9, 57, 127
1, 13919, Note_on_c, 9, 57, 0
1, 15600, Note_on_c, 9, 57, 127
1, 15839, Note_on_c, 9, 57, 0
1, 17280, Note_on_c, 9, 46, 127
1, 17759, Note_on_c, 9, 46, 0
1, 19200, Note_on_c, 9, 46, 127
1, 19679, Note_on_c, 9, 46, 0
1, 21120, Note_on_c, 9, 46, 127
1, 21599, Note_on_c, 9, 46, 0
1, 23040, Note_on_c, 9, 46, 127
1, 23279, Note_on_c, 9, 46, 0
1, 23280, Note_on_c, 9, 57, 127
1, 23519, Note_on_c, 9, 57, 0
1, 24960, Note_on_c, 9, 46, 127
1, 25439, Note_on_c, 9, 46, 0
1, 26880, Note_on_c, 9, 46, 127
1, 27359, Note_on_c, 9, 46, 0
1, 28800, Note_on_c, 9, 46, 127
1, 29279, Note_on_c, 9, 46, 0
1, 30720, Note_on_c, 9, 46, 127
1, 30720, Note_on_c, 9, 57, 127
1, 31199, Note_on_c, 9, 46, 0
1, 31199, Note_on_c, 9, 57, 0
1, 32640, Note_on_c, 9, 46, 127
1, 33119, Note_on_c, 9, 46, 0
1, 34560, Note_on_c, 9, 46, 127
1, 35039, Note_on_c, 9, 46, 0
1, 36480, Note_on_c, 9, 46, 127
1, 36959, Note_on_c, 9, 46, 0
1, 38400, Note_on_c, 9, 46, 127
1, 38400, Note_on_c, 9, 57, 127
1, 38879, Note_on_c, 9, 46, 0
1, 38879, Note_on_c, 9, 57, 0
1, 40320, Note_on_c, 9, 46, 127
1, 40799, Note_on_c, 9, 46, 0
1, 42240, Note_on_c, 9, 46, 127
1, 42719, Note_on_c, 9, 46, 0
1, 44160, Note_on_c, 9, 46, 127
1, 44639, Note_on_c, 9, 46, 0
1, 46080, Note_on_c, 9, 46, 127
1, 46319, Note_on_c, 9, 46, 0
1, 46320, Note_on_c, 9, 57, 127
1, 46559, Note_on_c, 9, 57, 0
1, 48000, Note_on_c, 9, 46, 127
1, 48479, Note_on_c, 9, 46, 0
1, 49920, Note_on_c, 9, 46, 127
1, 50159, Note_on_c, 9, 46, 0
1, 50160, Note_on_c, 9, 57, 127
1, 50399, Note_on_c, 9, 57, 0
1, 51840, Note_on_c, 9, 46, 127
1, 52319, Note_on_c, 9, 46, 0
1, 53760, Note_on_c, 9, 46, 127
1, 53999, Note_on_c, 9, 46, 0
1, 54000, Note_on_c, 9, 57, 127
1, 54239, Note_on_c, 9, 57, 0
1, 55680, Note_on_c, 9, 46, 127
1, 56159, Note_on_c, 9, 46, 0
1, 57600, Note_on_c, 9, 46, 127
1, 57600, Note_on_c, 9, 57, 127
1, 58079, Note_on_c, 9, 46, 0
1, 58079, Note_on_c, 9, 57, 0
1, 59520, Note_on_c, 9, 46, 127
1, 59999, Note_on_c, 9, 46, 0
1, 61440, Note_on_c, 9, 46, 127
1, 61440, Note_on_c, 9, 57, 127
1, 61919, Note_on_c, 9, 46, 0
1, 61919, Note_on_c, 9, 57, 0
1, 63360, Note_on_c, 9, 46, 127
1, 63839, Note_on_c, 9, 46, 0
1, 65280, Note_on_c, 9, 46, 127
1, 65519, Note_on_c, 9, 46, 0
1, 65520, Note_on_c, 9, 57, 127
1, 65759, Note_on_c, 9, 57, 0
1, 67200, Note_on_c, 9, 46, 127
1, 67679, Note_on_c, 9, 46, 0
1, 68880, Note_on_c, 9, 46, 127
1, 69119, Note_on_c, 9, 46, 0
1, 69120, Note_on_c, 9, 57, 127
1, 69359, Note_on_c, 9, 57, 0
1, 69360, Note_on_c, 9, 57, 127
1, 69599, Note_on_c, 9, 57, 0
1, 71040, Note_on_c, 9, 46, 127
1, 71519, Note_on_c, 9, 46, 0
1, 72960, Note_on_c, 9, 46, 127
1, 73439, Note_on_c, 9, 46, 0
1, 74880, Note_on_c, 9, 46, 127
1, 75359, Note_on_c, 9, 46, 0
1, 76800, Note_on_c, 9, 46, 127
1, 77039, Note_on_c, 9, 46, 0
1, 77040, Note_on_c, 9, 57, 127
1, 77279, Note_on_c, 9, 57, 0
1, 78720, Note_on_c, 9, 46, 127
1, 79199, Note_on_c, 9, 46, 0
1, 80640, Note_on_c, 9, 46, 127
1, 81119, Note_on_c, 9, 46, 0
1, 82560, Note_on_c, 9, 46, 127
1, 83039, Note_on_c, 9, 46, 0
1, 84480, Note_on_c, 9, 46, 127
1, 84480, Note_on_c, 9, 57, 127
1, 84959, Note_on_c, 9, 46, 0
1, 84959, Note_on_c, 9, 57, 0
1, 86400, Note_on_c, 9, 46, 127
1, 86879, Note_on_c, 9, 46, 0
1, 88320, Note_on_c, 9, 46, 127
1, 88799, Note_on_c, 9, 46, 0
1, 90240, Note_on_c, 9, 46, 127
1, 90719, Note_on_c, 9, 46, 0
1, 92160, Note_on_c, 9, 46, 127
1, 92160, Note_on_c, 9, 57, 127
1, 92639, Note_on_c, 9, 46, 0
1, 92639, Note_on_c, 9, 57, 0
1, 94080, Note_on_c, 9, 46, 127
1, 94559, Note_on_c, 9, 46, 0
1, 96000, Note_on_c, 9, 46, 127
1, 96479, Note_on_c, 9, 46, 0
1, 97920, Note_on_c, 9, 46, 127
1, 98399, Note_on_c, 9, 46, 0
1, 99840, Note_on_c, 9, 46, 127
1, 100079, Note_on_c, 9, 46, 0
1, 100080, Note_on_c, 9, 57, 127
1, 100319, Note_on_c, 9, 57, 0
1, 101760, Note_on_c, 9, 46, 127
1, 102239, Note_on_c, 9, 46, 0
1, 103680, Note_on_c, 9, 46, 127
1, 103919, Note_on_c, 9, 46, 0
1, 103920, Note_on_c, 9, 57, 127
1, 104159, Note_on_c, 9, 57, 0
1, 105600, Note_on_c, 9, 46, 127
1, 106079, Note_on_c, 9, 46, 0
1, 107520, Note_on_c, 9, 46, 127
1, 107759, Note_on_c, 9, 46, 0
1, 107760, Note_on_c, 9, 57, 127
1, 107999, Note_on_c, 9, 57, 0
1, 109440, Note_on_c, 9, 46, 127
1, 109919, Note_on_c, 9, 46, 0
1, 111360, Note_on_c, 9, 46, 127
1, 111360, Note_on_c, 9, 57, 127
1, 111839, Note_on_c, 9, 46, 0
1, 111839, Note_on_c, 9, 57, 0
1, 113280, Note_on_c, 9, 46, 127
1, 113759, Note_on_c, 9, 46, 0
1, 115200, Note_on_c, 9, 46, 127
1, 115200, Note_on_c, 9, 57, 127
1, 115200, Note_on_c, 9, 36, 127
1, 115679, Note_on_c, 9, 46, 0
1, 115679, Note_on_c, 9, 57, 0
1, 115679, Note_on_c, 9, 36, 0
1, 117120, Note_on_c, 9, 46, 127
1, 117599, Note_on_c, 9, 46, 0
1, 117600, Note_on_c, 9, 46, 127
1, 118079, Note_on_c, 9, 46, 0
1, 118080, Note_on_c, 9, 46, 127
1, 118559, Note_on_c, 9, 46, 0
1, 118560, Note_on_c, 9, 46, 127
1, 119039, Note_on_c, 9, 46, 0
1, 119040, Note_on_c, 9, 46, 127
1, 119519, Note_on_c, 9, 46, 0
1, 119520, Note_on_c, 9, 46, 127
1, 119999, Note_on_c, 9, 46, 0
1, 120000, Note_on_c, 9, 46, 127
1, 120479, Note_on_c, 9, 46, 0
1, 120480, Note_on_c, 9, 46, 127
1, 120959, Note_on_c, 9, 46, 0
1, 120960, Note_on_c, 9, 46, 127
1, 120960, Note_on_c, 9, 57, 127
1, 120960, Note_on_c, 9, 36, 127
1, 121439, Note_on_c, 9, 46, 0
1, 121439, Note_on_c, 9, 57, 0
1, 121439, Note_on_c, 9, 36, 0
1, 121440, Note_on_c, 9, 46, 127
1, 121440, Note_on_c, 9, 36, 127
1, 121679, Note_on_c, 9, 46, 0
1, 121679, Note_on_c, 9, 36, 0
1, 121680, Note_on_c, 9, 38, 127
1, 121680, Note_on_c, 9, 36, 127
1, 121919, Note_on_c, 9, 38, 0
1, 121919, Note_on_c, 9, 36, 0
1, 121920, Note_on_c, 9, 46, 127
1, 122399, Note_on_c, 9, 46, 0
1, 123120, Note_on_c, 9, 57, 127
1, 123359, Note_on_c, 9, 57, 0
1, 124800, Note_on_c, 9, 46, 127
1, 125279, Note_on_c, 9, 46, 0
1, 126720, Note_on_c, 9, 46, 127
1, 126959, Note_on_c, 9, 46, 0
1, 126960, Note_on_c, 9, 57, 127
1, 127199, Note_on_c, 9, 57, 0
1, 128640, Note_on_c, 9, 46, 127
1, 129119, Note_on_c, 9, 46, 0
1, 130320, Note_on_c, 9, 46, 127
1, 130559, Note_on_c, 9, 46, 0
1, 130560, Note_on_c, 9, 57, 127
1, 130799, Note_on_c, 9, 57, 0
1, 130800, Note_on_c, 9, 57, 127
1, 131039, Note_on_c, 9, 57, 0
1, 132480, Note_on_c, 9, 46, 127
1, 132959, Note_on_c, 9, 46, 0
1, 134400, Note_on_c, 9, 46, 127
1, 134639, Note_on_c, 9, 46, 0
1, 134640, Note_on_c, 9, 57, 127
1, 134879, Note_on_c, 9, 57, 0
1, 136320, Note_on_c, 9, 46, 127
1, 136799, Note_on_c, 9, 46, 0
1, 138480, Note_on_c, 9, 57, 127
1, 138719, Note_on_c, 9, 57, 0
1, 139920, Note_on_c, 9, 57, 127
1, 140159, Note_on_c, 9, 57, 0
1, 140160, Note_on_c, 9, 46, 127
1, 140639, Note_on_c, 9, 46, 0
1, 142080, Note_on_c, 9, 46, 127
1, 142319, Note_on_c, 9, 46, 0
1, 142320, Note_on_c, 9, 57, 127
1, 142559, Note_on_c, 9, 57, 0
1, 144000, Note_on_c, 9, 46, 127
1, 144479, Note_on_c, 9, 46, 0
1, 145920, Note_on_c, 9, 46, 127
1, 146159, Note_on_c, 9, 46, 0
1, 146160, Note_on_c, 9, 57, 127
1, 146399, Note_on_c, 9, 57, 0
1, 147840, Note_on_c, 9, 46, 127
1, 148319, Note_on_c, 9, 46, 0
1, 149760, Note_on_c, 9, 46, 127
1, 149999, Note_on_c, 9, 46, 0
1, 150000, Note_on_c, 9, 57, 127
1, 150239, Note_on_c, 9, 57, 0
1, 151680, Note_on_c, 9, 46, 127
1, 152159, Note_on_c, 9, 46, 0
1, 153600, Note_on_c, 9, 46, 127
1, 154079, Note_on_c, 9, 46, 0
1, 155280, Note_on_c, 9, 57, 127
1, 155519, Note_on_c, 9, 57, 0
1, 155520, Note_on_c, 9, 46, 127
1, 155999, Note_on_c, 9, 46, 0
1, 157440, Note_on_c, 9, 46, 127
1, 157679, Note_on_c, 9, 46, 0
1, 157680, Note_on_c, 9, 57, 127
1, 157919, Note_on_c, 9, 57, 0
1, 159360, Note_on_c, 9, 46, 127
1, 159839, Note_on_c, 9, 46, 0
1, 161280, Note_on_c, 9, 46, 127
1, 161519, Note_on_c, 9, 46, 0
1, 161520, Note_on_c, 9, 57, 127
1, 161759, Note_on_c, 9, 57, 0
1, 163200, Note_on_c, 9, 46, 127
1, 163679, Note_on_c, 9, 46, 0
1, 165120, Note_on_c, 9, 46, 127
1, 165359, Note_on_c, 9, 46, 0
1, 165360, Note_on_c, 9, 57, 127
1, 165599, Note_on_c, 9, 57, 0
1, 167040, Note_on_c, 9, 46, 127
1, 167519, Note_on_c, 9, 46, 0
1, 168960, Note_on_c, 9, 46, 127
1, 169199, Note_on_c, 9, 46, 0
1, 169200, Note_on_c, 9, 57, 127
1, 169439, Note_on_c, 9, 57, 0
1, 170880, Note_on_c, 9, 46, 127
1, 170880, Note_on_c, 9, 57, 127
1, 171359, Note_on_c, 9, 46, 0
1, 171359, Note_on_c, 9, 57, 0
1, 172800, Note_on_c, 9, 46, 127
1, 173039, Note_on_c, 9, 46, 0
1, 173040, Note_on_c, 9, 57, 127
1, 173279, Note_on_c, 9, 57, 0
1, 174720, Note_on_c, 9, 46, 127
1, 174959, Note_on_c, 9, 46, 0
1, 174960, Note_on_c, 9, 57, 127
1, 175199, Note_on_c, 9, 57, 0
1, 175680, Note_on_c, 9, 57, 127
1, 176159, Note_on_c, 9, 57, 0
1, 176640, Note_on_c, 9, 46, 127
1, 176879, Note_on_c, 9, 46, 0
1, 176880, Note_on_c, 9, 57, 127
1, 177119, Note_on_c, 9, 57, 0
1, 178560, Note_on_c, 9, 46, 127
1, 179039, Note_on_c, 9, 46, 0
1, 180480, Note_on_c, 9, 46, 127
1, 180719, Note_on_c, 9, 46, 0
1, 180720, Note_on_c, 9, 57, 127
1, 180959, Note_on_c, 9, 57, 0
1, 182400, Note_on_c, 9, 46, 127
1, 182879, Note_on_c, 9, 46, 0
1, 184320, Note_on_c, 9, 46, 127
1, 184799, Note_on_c, 9, 46, 0
1, 184800, End_track
2, 0, Start_track
2, 0, Key_signature, 0, "major"
2, 0, Control_c, 9, 121, 0
2, 0, Program_c, 9, 0
2, 0, Control_c, 9, 7, 100
2, 0, Control_c, 9, 10, 64
2, 0, Control_c, 9, 91, 0
2, 0, Control_c, 9, 93, 0
2, 0, MIDI_port, 1
2, 0, Note_on_c, 9, 38, 127
2, 119, Note_on_c, 9, 38, 0
2, 120, Note_on_c, 9, 38, 127
2, 239, Note_on_c, 9, 38, 0
2, 240, Note_on_c, 9, 38, 127
2, 240, Note_on_c, 9, 36, 127
2, 479, Note_on_c, 9, 38, 0
2, 479, Note_on_c, 9, 36, 0
2, 5760, Note_on_c, 9, 38, 127
2, 5879, Note_on_c, 9, 38, 0
2, 5880, Note_on_c, 9, 38, 127
2, 6000, Note_on_c, 9, 36, 127
2, 6239, Note_on_c, 9, 38, 0
2, 6239, Note_on_c, 9, 36, 0
2, 7200, Note_on_c, 9, 46, 127
2, 7439, Note_on_c, 9, 46, 0
2, 7440, Note_on_c, 9, 38, 127
2, 7440, Note_on_c, 9, 36, 127
2, 7440, Note_on_c, 9, 43, 127
2, 7679, Note_on_c, 9, 38, 0
2, 7679, Note_on_c, 9, 36, 0
2, 7679, Note_on_c, 9, 43, 0
2, 7920, Note_on_c, 9, 38, 127
2, 7920, Note_on_c, 9, 36, 127
2, 8159, Note_on_c, 9, 38, 0
2, 8159, Note_on_c, 9, 36, 0
2, 13200, Note_on_c, 9, 45, 127
2, 13439, Note_on_c, 9, 45, 0
2, 13440, Note_on_c, 9, 38, 127
2, 13559, Note_on_c, 9, 38, 0
2, 13560, Note_on_c, 9, 38, 127
2, 13680, Note_on_c, 9, 36, 127
2, 13919, Note_on_c, 9, 38, 0
2, 13919, Note_on_c, 9, 36, 0
2, 15120, Note_on_c, 9, 38, 127
2, 15120, Note_on_c, 9, 36, 127
2, 15359, Note_on_c, 9, 38, 0
2, 15359, Note_on_c, 9, 36, 0
2, 15600, Note_on_c, 9, 42, 127
2, 15600, Note_on_c, 9, 36, 127
2, 15839, Note_on_c, 9, 42, 0
2, 15839, Note_on_c, 9, 36, 0
2, 15840, Note_on_c, 9, 42, 127
2, 16079, Note_on_c, 9, 42, 0
2, 16080, Note_on_c, 9, 38, 127
2, 16080, Note_on_c, 9, 42, 127
2, 16319, Note_on_c, 9, 38, 0
2, 16319, Note_on_c, 9, 42, 0
2, 16320, Note_on_c, 9, 42, 127
2, 16559, Note_on_c, 9, 42, 0
2, 16560, Note_on_c, 9, 42, 127
2, 16560, Note_on_c, 9, 36, 127
2, 16799, Note_on_c, 9, 42, 0
2, 16799, Note_on_c, 9, 36, 0
2, 16800, Note_on_c, 9, 42, 127
2, 17039, Note_on_c, 9, 42, 0
2, 17040, Note_on_c, 9, 38, 127
2, 17040, Note_on_c, 9, 42, 127
2, 17279, Note_on_c, 9, 38, 0
2, 17279, Note_on_c, 9, 42, 0
2, 17520, Note_on_c, 9, 42, 127
2, 17520, Note_on_c, 9, 36, 127
2, 17759, Note_on_c, 9, 42, 0
2, 17759, Note_on_c, 9, 36, 0
2, 17760, Note_on_c, 9, 42, 127
2, 17999, Note_on_c, 9, 42, 0
2, 18000, Note_on_c, 9, 38, 127
2, 18000, Note_on_c, 9, 42, 127
2, 18239, Note_on_c, 9, 38, 0
2, 18239, Note_on_c, 9, 42, 0
2, 18240, Note_on_c, 9, 42, 127
2, 18479, Note_on_c, 9, 42, 0
2, 18480, Note_on_c, 9, 42, 127
2, 18480, Note_on_c, 9, 36, 127
2, 18719, Note_on_c, 9, 42, 0
2, 18719, Note_on_c, 9, 36, 0
2, 18720, Note_on_c, 9, 42, 127
2, 18959, Note_on_c, 9, 42, 0
2, 18960, Note_on_c, 9, 38, 127
2, 18960, Note_on_c, 9, 42, 127
2, 19199, Note_on_c, 9, 38, 0
2, 19199, Note_on_c, 9, 42, 0
2, 19440, Note_on_c, 9, 42, 127
2, 19440, Note_on_c, 9, 36, 127
2, 19679, Note_on_c, 9, 42, 0
2, 19679, Note_on_c, 9, 36, 0
2, 19680, Note_on_c, 9, 42, 127
2, 19919, Note_on_c, 9, 42, 0
2, 19920, Note_on_c, 9, 38, 127
2, 19920, Note_on_c, 9, 42, 127
2, 20159, Note_on_c, 9, 38, 0
2, 20159, Note_on_c, 9, 42, 0
2, 20160, Note_on_c, 9, 42, 127
2, 20399, Note_on_c, 9, 42, 0
2, 20400, Note_on_c, 9, 42, 127
2, 20400, Note_on_c, 9, 36, 127
2, 20639, Note_on_c, 9, 42, 0
2, 20639, Note_on_c, 9, 36, 0
2, 20640, Note_on_c, 9, 42, 127
2, 20879, Note_on_c, 9, 42, 0
2, 20880, Note_on_c, 9, 38, 127
2, 20880, Note_on_c, 9, 42, 127
2, 21119, Note_on_c, 9, 38, 0
2, 21119, Note_on_c, 9, 42, 0
2, 21360, Note_on_c, 9, 42, 127
2, 21360, Note_on_c, 9, 36, 127
2, 21599, Note_on_c, 9, 42, 0
2, 21599, Note_on_c, 9, 36, 0
2, 21600, Note_on_c, 9, 42, 127
2, 21839, Note_on_c, 9, 42, 0
2, 21840, Note_on_c, 9, 38, 127
2, 21840, Note_on_c, 9, 42, 127
2, 22079, Note_on_c, 9, 38, 0
2, 22079, Note_on_c, 9, 42, 0
2, 22080, Note_on_c, 9, 42, 127
2, 22319, Note_on_c, 9, 42, 0
2, 22320, Note_on_c, 9, 42, 127
2, 22320, Note_on_c, 9, 36, 127
2, 22559, Note_on_c, 9, 42, 0
2, 22559, Note_on_c, 9, 36, 0
2, 22560, Note_on_c, 9, 42, 127
2, 22799, Note_on_c, 9, 42, 0
2, 22800, Note_on_c, 9, 38, 127
2, 22800, Note_on_c, 9, 42, 127
2, 23039, Note_on_c, 9, 38, 0
2, 23039, Note_on_c, 9, 42, 0
2, 23280, Note_on_c, 9, 42, 127
2, 23280, Note_on_c, 9, 36, 127
2, 23519, Note_on_c, 9, 42, 0
2, 23519, Note_on_c, 9, 36, 0
2, 23520, Note_on_c, 9, 42, 127
2, 23759, Note_on_c, 9, 42, 0
2, 23760, Note_on_c, 9, 38, 127
2, 23760, Note_on_c, 9, 42, 127
2, 23999, Note_on_c, 9, 38, 0
2, 23999, Note_on_c, 9, 42, 0
2, 24000, Note_on_c, 9, 42, 127
2, 24239, Note_on_c, 9, 42, 0
2, 24240, Note_on_c, 9, 42, 127
2, 24240, Note_on_c, 9, 36, 127
2, 24479, Note_on_c, 9, 42, 0
2, 24479, Note_on_c, 9, 36, 0
2, 24480, Note_on_c, 9, 42, 127
2, 24719, Note_on_c, 9, 42, 0
2, 24720, Note_on_c, 9, 38, 127
2, 24720, Note_on_c, 9, 42, 127
2, 24959, Note_on_c, 9, 38, 0
2, 24959, Note_on_c, 9, 42, 0
2, 25200, Note_on_c, 9, 42, 127
2, 25200, Note_on_c, 9, 36, 127
2, 25439, Note_on_c, 9, 42, 0
2, 25439, Note_on_c, 9, 36, 0
2, 25440, Note_on_c, 9, 42, 127
2, 25679, Note_on_c, 9, 42, 0
2, 25680, Note_on_c, 9, 38, 127
2, 25680, Note_on_c, 9, 42, 127
2, 25919, Note_on_c, 9, 38, 0
2, 25919, Note_on_c, 9, 42, 0
2, 25920, Note_on_c, 9, 42, 127
2, 26159, Note_on_c, 9, 42, 0
2, 26160, Note_on_c, 9, 42, 127
2, 26160, Note_on_c, 9, 36, 127
2, 26399, Note_on_c, 9, 42, 0
2, 26399, Note_on_c, 9, 36, 0
2, 26400, Note_on_c, 9, 42, 127
2, 26639, Note_on_c, 9, 42, 0
2, 26640, Note_on_c, 9, 38, 127
2, 26640, Note_on_c, 9, 42, 127
2, 26879, Note_on_c, 9, 38, 0
2, 26879, Note_on_c, 9, 42, 0
2, 27120, Note_on_c, 9, 42, 127
2, 27120, Note_on_c, 9, 36, 127
2, 27359, Note_on_c, 9, 42, 0
2, 27359, Note_on_c, 9, 36, 0
2, 27360, Note_on_c, 9, 42, 127
2, 27599, Note_on_c, 9, 42, 0
2, 27600, Note_on_c, 9, 38, 127
2, 27600, Note_on_c, 9, 42, 127
2, 27839, Note_on_c, 9, 38, 0
2, 27839, Note_on_c, 9, 42, 0
2, 27840, Note_on_c, 9, 42, 127
2, 28079, Note_on_c, 9, 42, 0
2, 28080, Note_on_c, 9, 42, 127
2, 28080, Note_on_c, 9, 36, 127
2, 28319, Note_on_c, 9, 42, 0
2, 28319, Note_on_c, 9, 36, 0
2, 28320, Note_on_c, 9, 42, 127
2, 28559, Note_on_c, 9, 42, 0
2, 28560, Note_on_c, 9, 38, 127
2, 28560, Note_on_c, 9, 42, 127
2, 28799, Note_on_c, 9, 38, 0
2, 28799, Note_on_c, 9, 42, 0
2, 29040, Note_on_c, 9, 42, 127
2, 29040, Note_on_c, 9, 36, 127
2, 29279, Note_on_c, 9, 42, 0
2, 29279, Note_on_c, 9, 36, 0
2, 29280, Note_on_c, 9, 42, 127
2, 29519, Note_on_c, 9, 42, 0
2, 29520, Note_on_c, 9, 38, 127
2, 29520, Note_on_c, 9, 42, 127
2, 29759, Note_on_c, 9, 38, 0
2, 29759, Note_on_c, 9, 42, 0
2, 29760, Note_on_c, 9, 42, 127
2, 29999, Note_on_c, 9, 42, 0
2, 30000, Note_on_c, 9, 42, 127
2, 30000, Note_on_c, 9, 36, 127
2, 30239, Note_on_c, 9, 42, 0
2, 30239, Note_on_c, 9, 36, 0
2, 30240, Note_on_c, 9, 42, 127
2, 30479, Note_on_c, 9, 42, 0
2, 30480, Note_on_c, 9, 38, 127
2, 30480, Note_on_c, 9, 42, 127
2, 30719, Note_on_c, 9, 38, 0
2, 30719, Note_on_c, 9, 42, 0
2, 30960, Note_on_c, 9, 42, 127
2, 30960, Note_on_c, 9, 36, 127
2, 31199, Note_on_c, 9, 42, 0
2, 31199, Note_on_c, 9, 36, 0
2, 31200, Note_on_c, 9, 42, 127
2, 31439, Note_on_c, 9, 42, 0
2, 31440, Note_on_c, 9, 38, 127
2, 31440, Note_on_c, 9, 42, 127
2, 31679, Note_on_c, 9, 38, 0
2, 31679, Note_on_c, 9, 42, 0
2, 31680, Note_on_c, 9, 42, 127
2, 31919, Note_on_c, 9, 42, 0
2, 31920, Note_on_c, 9, 42, 127
2, 31920, Note_on_c, 9, 36, 127
2, 32159, Note_on_c, 9, 42, 0
2, 32159, Note_on_c, 9, 36, 0
2, 32160, Note_on_c, 9, 42, 127
2, 32399, Note_on_c, 9, 42, 0
2, 32400, Note_on_c, 9, 38, 127
2, 32400, Note_on_c, 9, 42, 127
2, 32639, Note_on_c, 9, 38, 0
2, 32639, Note_on_c, 9, 42, 0
2, 32880, Note_on_c, 9, 42, 127
2, 32880, Note_on_c, 9, 36, 127
2, 33119, Note_on_c, 9, 42, 0
2, 33119, Note_on_c, 9, 36, 0
2, 33120, Note_on_c, 9, 42, 127
2, 33359, Note_on_c, 9, 42, 0
2, 33360, Note_on_c, 9, 38, 127
2, 33360, Note_on_c, 9, 42, 127
2, 33599, Note_on_c, 9, 38, 0
2, 33599, Note_on_c, 9, 42, 0
2, 33600, Note_on_c, 9, 42, 127
2, 33839, Note_on_c, 9, 42, 0
2, 33840, Note_on_c, 9, 42, 127
2, 33840, Note_on_c, 9, 36, 127
2, 34079, Note_on_c, 9, 42, 0
2, 34079, Note_on_c, 9, 36, 0
2, 34080, Note_on_c, 9, 42, 127
2, 34319, Note_on_c, 9, 42, 0
2, 34320, Note_on_c, 9, 38, 127
2, 34320, Note_on_c, 9, 42, 127
2, 34559, Note_on_c, 9, 38, 0
2, 34559, Note_on_c, 9, 42, 0
2, 34800, Note_on_c, 9, 42, 127
2, 34800, Note_on_c, 9, 36, 127
2, 35039, Note_on_c, 9, 42, 0
2, 35039, Note_on_c, 9, 36, 0
2, 35040, Note_on_c, 9, 42, 127
2, 35279, Note_on_c, 9, 42, 0
2, 35280, Note_on_c, 9, 38, 127
2, 35280, Note_on_c, 9, 42, 127
2, 35519, Note_on_c, 9, 38, 0
2, 35519, Note_on_c, 9, 42, 0
2, 35520, Note_on_c, 9, 42, 127
2, 35759, Note_on_c, 9, 42, 0
2, 35760, Note_on_c, 9, 42, 127
2, 35760, Note_on_c, 9, 36, 127
2, 35999, Note_on_c, 9, 42, 0
2, 35999, Note_on_c, 9, 36, 0
2, 36000, Note_on_c, 9, 42, 127
2, 36239, Note_on_c, 9, 42, 0
2, 36240, Note_on_c, 9, 38, 127
2, 36240, Note_on_c, 9, 42, 127
2, 36479, Note_on_c, 9, 38, 0
2, 36479, Note_on_c, 9, 42, 0
2, 36720, Note_on_c, 9, 42, 127
2, 36720, Note_on_c, 9, 36, 127
2, 36959, Note_on_c, 9, 42, 0
2, 36959, Note_on_c, 9, 36, 0
2, 36960, Note_on_c, 9, 42, 127
2, 37199, Note_on_c, 9, 42, 0
2, 37200, Note_on_c, 9, 38, 127
2, 37200, Note_on_c, 9, 42, 127
2, 37439, Note_on_c, 9, 38, 0
2, 37439, Note_on_c, 9, 42, 0
2, 37440, Note_on_c, 9, 42, 127
2, 37679, Note_on_c, 9, 42, 0
2, 37680, Note_on_c, 9, 42, 127
2, 37680, Note_on_c, 9, 36, 127
2, 37919, Note_on_c, 9, 42, 0
2, 37919, Note_on_c, 9, 36, 0
2, 37920, Note_on_c, 9, 42, 127
2, 38159, Note_on_c, 9, 42, 0
2, 38160, Note_on_c, 9, 38, 127
2, 38160, Note_on_c, 9, 42, 127
2, 38399, Note_on_c, 9, 38, 0
2, 38399, Note_on_c, 9, 42, 0
2, 38640, Note_on_c, 9, 42, 127
2, 38640, Note_on_c, 9, 36, 127
2, 38879, Note_on_c, 9, 42, 0
2, 38879, Note_on_c, 9, 36, 0
2, 38880, Note_on_c, 9, 42, 127
2, 39119, Note_on_c, 9, 42, 0
2, 39120, Note_on_c, 9, 38, 127
2, 39120, Note_on_c, 9, 42, 127
2, 39359, Note_on_c, 9, 38, 0
2, 39359, Note_on_c, 9, 42, 0
2, 39360, Note_on_c, 9, 42, 127
2, 39599, Note_on_c, 9, 42, 0
2, 39600, Note_on_c, 9, 42, 127
2, 39600, Note_on_c, 9, 36, 127
2, 39839, Note_on_c, 9, 42, 0
2, 39839, Note_on_c, 9, 36, 0
2, 39840, Note_on_c, 9, 42, 127
2, 40079, Note_on_c, 9, 42, 0
2, 40080, Note_on_c, 9, 38, 127
2, 40080, Note_on_c, 9, 42, 127
2, 40319, Note_on_c, 9, 38, 0
2, 40319, Note_on_c, 9, 42, 0
2, 40560, Note_on_c, 9, 42, 127
2, 40560, Note_on_c, 9, 36, 127
2, 40799, Note_on_c, 9, 42, 0
2, 40799, Note_on_c, 9, 36, 0
2, 40800, Note_on_c, 9, 42, 127
2, 41039, Note_on_c, 9, 42, 0
2, 41040, Note_on_c, 9, 38, 127
2, 41040, Note_on_c, 9, 42, 127
2, 41279, Note_on_c, 9, 38, 0
2, 41279, Note_on_c, 9, 42, 0
2, 41280, Note_on_c, 9, 42, 127
2, 41519, Note_on_c, 9, 42, 0
2, 41520, Note_on_c, 9, 42, 127
2, 41520, Note_on_c, 9, 36, 127
2, 41759, Note_on_c, 9, 42, 0
2, 41759, Note_on_c, 9, 36, 0
2, 41760, Note_on_c, 9, 42, 127
2, 41999, Note_on_c, 9, 42, 0
2, 42000, Note_on_c, 9, 38, 127
2, 42000, Note_on_c, 9, 42, 127
2, 42239, Note_on_c, 9, 38, 0
2, 42239, Note_on_c, 9, 42, 0
2, 42480, Note_on_c, 9, 42, 127
2, 42480, Note_on_c, 9, 36, 127
2, 42719, Note_on_c, 9, 42, 0
2, 42719, Note_on_c, 9, 36, 0
2, 42720, Note_on_c, 9, 42, 127
2, 42959, Note_on_c, 9, 42, 0
2, 42960, Note_on_c, 9, 38, 127
2, 42960, Note_on_c, 9, 42, 127
2, 43199, Note_on_c, 9, 38, 0
2, 43199, Note_on_c, 9, 42, 0
2, 43200, Note_on_c, 9, 42, 127
2, 43439, Note_on_c, 9, 42, 0
2, 43440, Note_on_c, 9, 42, 127
2, 43440, Note_on_c, 9, 36, 127
2, 43679, Note_on_c, 9, 42, 0
2, 43679, Note_on_c, 9, 36, 0
2, 43680, Note_on_c, 9, 42, 127
2, 43919, Note_on_c, 9, 42, 0
2, 43920, Note_on_c, 9, 38, 127
2, 43920, Note_on_c, 9, 42, 127
2, 44159, Note_on_c, 9, 38, 0
2, 44159, Note_on_c, 9, 42, 0
2, 44400, Note_on_c, 9, 42, 127
2, 44400, Note_on_c, 9, 36, 127
2, 44639, Note_on_c, 9, 42, 0
2, 44639, Note_on_c, 9, 36, 0
2, 44640, Note_on_c, 9, 38, 127
2, 44640, Note_on_c, 9, 42, 127
2, 44879, Note_on_c, 9, 38, 0
2, 44879, Note_on_c, 9, 42, 0
2, 44880, Note_on_c, 9, 38, 127
2, 44880, Note_on_c, 9, 42, 127
2, 45119, Note_on_c, 9, 38, 0
2, 45119, Note_on_c, 9, 42, 0
2, 45120, Note_on_c, 9, 42, 127
2, 45359, Note_on_c, 9, 42, 0
2, 45360, Note_on_c, 9, 42, 127
2, 45360, Note_on_c, 9, 36, 127
2, 45599, Note_on_c, 9, 42, 0
2, 45599, Note_on_c, 9, 36, 0
2, 45600, Note_on_c, 9, 38, 127
2, 45600, Note_on_c, 9, 42, 127
2, 45719, Note_on_c, 9, 38, 0
2, 45719, Note_on_c, 9, 42, 0
2, 45720, Note_on_c, 9, 38, 127
2, 45839, Note_on_c, 9, 38, 0
2, 45840, Note_on_c, 9, 42, 127
2, 46079, Note_on_c, 9, 42, 0
2, 46080, Note_on_c, 9, 38, 127
2, 46319, Note_on_c, 9, 38, 0
2, 46320, Note_on_c, 9, 42, 127
2, 46320, Note_on_c, 9, 36, 127
2, 46559, Note_on_c, 9, 42, 0
2, 46559, Note_on_c, 9, 36, 0
2, 46560, Note_on_c, 9, 42, 127
2, 46799, Note_on_c, 9, 42, 0
2, 46800, Note_on_c, 9, 38, 127
2, 46800, Note_on_c, 9, 42, 127
2, 47039, Note_on_c, 9, 38, 0
2, 47039, Note_on_c, 9, 42, 0
2, 47040, Note_on_c, 9, 42, 127
2, 47279, Note_on_c, 9, 42, 0
2, 47280, Note_on_c, 9, 42, 127
2, 47280, Note_on_c, 9, 36, 127
2, 47519, Note_on_c, 9, 42, 0
2, 47519, Note_on_c, 9, 36, 0
2, 47520, Note_on_c, 9, 42, 127
2, 47759, Note_on_c, 9, 42, 0
2, 47760, Note_on_c, 9, 38, 127
2, 47760, Note_on_c, 9, 42, 127
2, 47999, Note_on_c, 9, 38, 0
2, 47999, Note_on_c, 9, 42, 0
2, 48240, Note_on_c, 9, 42, 127
2, 48240, Note_on_c, 9, 36, 127
2, 48479, Note_on_c, 9, 42, 0
2, 48479, Note_on_c, 9, 36, 0
2, 48480, Note_on_c, 9, 42, 127
2, 48719, Note_on_c, 9, 42, 0
2, 48720, Note_on_c, 9, 38, 127
2, 48720, Note_on_c, 9, 42, 127
2, 48959, Note_on_c, 9, 38, 0
2, 48959, Note_on_c, 9, 42, 0
2, 48960, Note_on_c, 9, 42, 127
2, 49199, Note_on_c, 9, 42, 0
2, 49200, Note_on_c, 9, 42, 127
2, 49200, Note_on_c, 9, 36, 127
2, 49439, Note_on_c, 9, 42, 0
2, 49439, Note_on_c, 9, 36, 0
2, 49440, Note_on_c, 9, 42, 127
2, 49679, Note_on_c, 9, 42, 0
2, 49680, Note_on_c, 9, 38, 127
2, 49680, Note_on_c, 9, 42, 127
2, 49919, Note_on_c, 9, 38, 0
2, 49919, Note_on_c, 9, 42, 0
2, 49920, Note_on_c, 9, 38, 127
2, 50159, Note_on_c, 9, 38, 0
2, 50160, Note_on_c, 9, 42, 127
2, 50160, Note_on_c, 9, 36, 127
2, 50399, Note_on_c, 9, 42, 0
2, 50399, Note_on_c, 9, 36, 0
2, 50400, Note_on_c, 9, 42, 127
2, 50639, Note_on_c, 9, 42, 0
2, 50640, Note_on_c, 9, 38, 127
2, 50640, Note_on_c, 9, 42, 127
2, 50879, Note_on_c, 9, 38, 0
2, 50879, Note_on_c, 9, 42, 0
2, 50880, Note_on_c, 9, 42, 127
2, 51119, Note_on_c, 9, 42, 0
2, 51120, Note_on_c, 9, 42, 127
2, 51120, Note_on_c, 9, 36, 127
2, 51359, Note_on_c, 9, 42, 0
2, 51359, Note_on_c, 9, 36, 0
2, 51360, Note_on_c, 9, 42, 127
2, 51599, Note_on_c, 9, 42, 0
2, 51600, Note_on_c, 9, 38, 127
2, 51600, Note_on_c, 9, 42, 127
2, 51839, Note_on_c, 9, 38, 0
2, 51839, Note_on_c, 9, 42, 0
2, 52080, Note_on_c, 9, 42, 127
2, 52080, Note_on_c, 9, 36, 127
2, 52319, Note_on_c, 9, 42, 0
2, 52319, Note_on_c, 9, 36, 0
2, 52320, Note_on_c, 9, 42, 127
2, 52559, Note_on_c, 9, 42, 0
2, 52560, Note_on_c, 9, 38, 127
2, 52560, Note_on_c, 9, 42, 127
2, 52799, Note_on_c, 9, 38, 0
2, 52799, Note_on_c, 9, 42, 0
2, 52800, Note_on_c, 9, 42, 127
2, 53039, Note_on_c, 9, 42, 0
2, 53040, Note_on_c, 9, 42, 127
2, 53040, Note_on_c, 9, 36, 127
2, 53279, Note_on_c, 9, 42, 0
2, 53279, Note_on_c, 9, 36, 0
2, 53280, Note_on_c, 9, 42, 127
2, 53519, Note_on_c, 9, 42, 0
2, 53520, Note_on_c, 9, 38, 127
2, 53520, Note_on_c, 9, 42, 127
2, 53759, Note_on_c, 9, 38, 0
2, 53759, Note_on_c, 9, 42, 0
2, 53760, Note_on_c, 9, 38, 127
2, 53999, Note_on_c, 9, 38, 0
2, 54000, Note_on_c, 9, 42, 127
2, 54000, Note_on_c, 9, 36, 127
2, 54239, Note_on_c, 9, 42, 0
2, 54239, Note_on_c, 9, 36, 0
2, 54240, Note_on_c, 9, 42, 127
2, 54479, Note_on_c, 9, 42, 0
2, 54480, Note_on_c, 9, 38, 127
2, 54480, Note_on_c, 9, 42, 127
2, 54719, Note_on_c, 9, 38, 0
2, 54719, Note_on_c, 9, 42, 0
2, 54720, Note_on_c, 9, 42, 127
2, 54959, Note_on_c, 9, 42, 0
2, 54960, Note_on_c, 9, 42, 127
2, 54960, Note_on_c, 9, 36, 127
2, 55199, Note_on_c, 9, 42, 0
2, 55199, Note_on_c, 9, 36, 0
2, 55200, Note_on_c, 9, 42, 127
2, 55439, Note_on_c, 9, 42, 0
2, 55440, Note_on_c, 9, 38, 127
2, 55440, Note_on_c, 9, 42, 127
2, 55679, Note_on_c, 9, 38, 0
2, 55679, Note_on_c, 9, 42, 0
2, 55920, Note_on_c, 9, 42, 127
2, 55920, Note_on_c, 9, 36, 127
2, 56159, Note_on_c, 9, 42, 0
2, 56159, Note_on_c, 9, 36, 0
2, 56160, Note_on_c, 9, 42, 127
2, 56399, Note_on_c, 9, 42, 0
2, 56400, Note_on_c, 9, 38, 127
2, 56400, Note_on_c, 9, 42, 127
2, 56639, Note_on_c, 9, 38, 0
2, 56639, Note_on_c, 9, 42, 0
2, 56640, Note_on_c, 9, 42, 127
2, 56879, Note_on_c, 9, 42, 0
2, 56880, Note_on_c, 9, 42, 127
2, 56880, Note_on_c, 9, 36, 127
2, 57119, Note_on_c, 9, 42, 0
2, 57119, Note_on_c, 9, 36, 0
2, 57120, Note_on_c, 9, 42, 127
2, 57359, Note_on_c, 9, 42, 0
2, 57360, Note_on_c, 9, 38, 127
2, 57360, Note_on_c, 9, 42, 127
2, 57599, Note_on_c, 9, 38, 0
2, 57599, Note_on_c, 9, 42, 0
2, 57600, Note_on_c, 9, 38, 127
2, 57719, Note_on_c, 9, 38, 0
2, 57720, Note_on_c, 9, 38, 127
2, 57839, Note_on_c, 9, 38, 0
2, 57840, Note_on_c, 9, 42, 127
2, 57840, Note_on_c, 9, 36, 127
2, 58079, Note_on_c, 9, 42, 0
2, 58079, Note_on_c, 9, 36, 0
2, 58080, Note_on_c, 9, 42, 127
2, 58319, Note_on_c, 9, 42, 0
2, 58320, Note_on_c, 9, 38, 127
2, 58320, Note_on_c, 9, 42, 127
2, 58559, Note_on_c, 9, 38, 0
2, 58559, Note_on_c, 9, 42, 0
2, 58560, Note_on_c, 9, 42, 127
2, 58799, Note_on_c, 9, 42, 0
2, 58800, Note_on_c, 9, 42, 127
2, 58800, Note_on_c, 9, 36, 127
2, 59039, Note_on_c, 9, 42, 0
2, 59039, Note_on_c, 9, 36, 0
2, 59040, Note_on_c, 9, 42, 127
2, 59279, Note_on_c, 9, 42, 0
2, 59280, Note_on_c, 9, 38, 127
2, 59280, Note_on_c, 9, 42, 127
2, 59519, Note_on_c, 9, 38, 0
2, 59519, Note_on_c, 9, 42, 0
2, 59760, Note_on_c, 9, 42, 127
2, 59760, Note_on_c, 9, 36, 127
2, 59999, Note_on_c, 9, 42, 0
2, 59999, Note_on_c, 9, 36, 0
2, 60000, Note_on_c, 9, 42, 127
2, 60239, Note_on_c, 9, 42, 0
2, 60240, Note_on_c, 9, 38, 127
2, 60240, Note_on_c, 9, 42, 127
2, 60479, Note_on_c, 9, 38, 0
2, 60479, Note_on_c, 9, 42, 0
2, 60480, Note_on_c, 9, 42, 127
2, 60719, Note_on_c, 9, 42, 0
2, 60720, Note_on_c, 9, 42, 127
2, 60720, Note_on_c, 9, 36, 127
2, 60959, Note_on_c, 9, 42, 0
2, 60959, Note_on_c, 9, 36, 0
2, 60960, Note_on_c, 9, 42, 127
2, 61199, Note_on_c, 9, 42, 0
2, 61200, Note_on_c, 9, 38, 127
2, 61200, Note_on_c, 9, 42, 127
2, 61439, Note_on_c, 9, 38, 0
2, 61439, Note_on_c, 9, 42, 0
2, 61440, Note_on_c, 9, 38, 127
2, 61559, Note_on_c, 9, 38, 0
2, 61560, Note_on_c, 9, 38, 127
2, 61679, Note_on_c, 9, 38, 0
2, 61680, Note_on_c, 9, 42, 127
2, 61680, Note_on_c, 9, 36, 127
2, 61919, Note_on_c, 9, 42, 0
2, 61919, Note_on_c, 9, 36, 0
2, 61920, Note_on_c, 9, 42, 127
2, 62159, Note_on_c, 9, 42, 0
2, 62160, Note_on_c, 9, 38, 127
2, 62160, Note_on_c, 9, 42, 127
2, 62399, Note_on_c, 9, 38, 0
2, 62399, Note_on_c, 9, 42, 0
2, 62400, Note_on_c, 9, 42, 127
2, 62639, Note_on_c, 9, 42, 0
2, 62640, Note_on_c, 9, 42, 127
2, 62640, Note_on_c, 9, 36, 127
2, 62879, Note_on_c, 9, 42, 0
2, 62879, Note_on_c, 9, 36, 0
2, 62880, Note_on_c, 9, 42, 127
2, 63119, Note_on_c, 9, 42, 0
2, 63120, Note_on_c, 9, 38, 127
2, 63120, Note_on_c, 9, 42, 127
2, 63359, Note_on_c, 9, 38, 0
2, 63359, Note_on_c, 9, 42, 0
2, 63600, Note_on_c, 9, 42, 127
2, 63600, Note_on_c, 9, 36, 127
2, 63839, Note_on_c, 9, 42, 0
2, 63839, Note_on_c, 9, 36, 0
2, 63840, Note_on_c, 9, 42, 127
2, 64079, Note_on_c, 9, 42, 0
2, 64080, Note_on_c, 9, 38, 127
2, 64080, Note_on_c, 9, 42, 127
2, 64319, Note_on_c, 9, 38, 0
2, 64319, Note_on_c, 9, 42, 0
2, 64320, Note_on_c, 9, 42, 127
2, 64559, Note_on_c, 9, 42, 0
2, 64560, Note_on_c, 9, 42, 127
2, 64560, Note_on_c, 9, 36, 127
2, 64799, Note_on_c, 9, 42, 0
2, 64799, Note_on_c, 9, 36, 0
2, 64800, Note_on_c, 9, 42, 127
2, 65039, Note_on_c, 9, 42, 0
2, 65040, Note_on_c, 9, 38, 127
2, 65040, Note_on_c, 9, 42, 127
2, 65279, Note_on_c, 9, 38, 0
2, 65279, Note_on_c, 9, 42, 0
2, 65280, Note_on_c, 9, 38, 127
2, 65519, Note_on_c, 9, 38, 0
2, 65520, Note_on_c, 9, 42, 127
2, 65520, Note_on_c, 9, 36, 127
2, 65759, Note_on_c, 9, 42, 0
2, 65759, Note_on_c, 9, 36, 0
2, 65760, Note_on_c, 9, 42, 127
2, 65999, Note_on_c, 9, 42, 0
2, 66000, Note_on_c, 9, 38, 127
2, 66000, Note_on_c, 9, 42, 127
2, 66239, Note_on_c, 9, 38, 0
2, 66239, Note_on_c, 9, 42, 0
2, 66240, Note_on_c, 9, 42, 127
2, 66479, Note_on_c, 9, 42, 0
2, 66480, Note_on_c, 9, 42, 127
2, 66480, Note_on_c, 9, 36, 127
2, 66719, Note_on_c, 9, 42, 0
2, 66719, Note_on_c, 9, 36, 0
2, 66720, Note_on_c, 9, 42, 127
2, 66959, Note_on_c, 9, 42, 0
2, 66960, Note_on_c, 9, 38, 127
2, 66960, Note_on_c, 9, 42, 127
2, 67199, Note_on_c, 9, 38, 0
2, 67199, Note_on_c, 9, 42, 0
2, 67440, Note_on_c, 9, 42, 127
2, 67440, Note_on_c, 9, 36, 127
2, 67679, Note_on_c, 9, 42, 0
2, 67679, Note_on_c, 9, 36, 0
2, 67680, Note_on_c, 9, 42, 127
2, 67919, Note_on_c, 9, 42, 0
2, 67920, Note_on_c, 9, 38, 127
2, 67920, Note_on_c, 9, 42, 127
2, 68159, Note_on_c, 9, 38, 0
2, 68159, Note_on_c, 9, 42, 0
2, 68160, Note_on_c, 9, 42, 127
2, 68399, Note_on_c, 9, 42, 0
2, 68400, Note_on_c, 9, 42, 127
2, 68400, Note_on_c, 9, 36, 127
2, 68639, Note_on_c, 9, 42, 0
2, 68639, Note_on_c, 9, 36, 0
2, 68640, Note_on_c, 9, 42, 127
2, 68879, Note_on_c, 9, 42, 0
2, 68880, Note_on_c, 9, 38, 127
2, 69119, Note_on_c, 9, 38, 0
2, 69120, Note_on_c, 9, 38, 127
2, 69120, Note_on_c, 9, 42, 127
2, 69359, Note_on_c, 9, 38, 0
2, 69359, Note_on_c, 9, 42, 0
2, 69360, Note_on_c, 9, 42, 127
2, 69360, Note_on_c, 9, 36, 127
2, 69599, Note_on_c, 9, 42, 0
2, 69599, Note_on_c, 9, 36, 0
2, 69600, Note_on_c, 9, 42, 127
2, 69839, Note_on_c, 9, 42, 0
2, 69840, Note_on_c, 9, 38, 127
2, 69840, Note_on_c, 9, 42, 127
2, 70079, Note_on_c, 9, 38, 0
2, 70079, Note_on_c, 9, 42, 0
2, 70080, Note_on_c, 9, 42, 127
2, 70319, Note_on_c, 9, 42, 0
2, 70320, Note_on_c, 9, 42, 127
2, 70320, Note_on_c, 9, 36, 127
2, 70559, Note_on_c, 9, 42, 0
2, 70559, Note_on_c, 9, 36, 0
2, 70560, Note_on_c, 9, 42, 127
2, 70799, Note_on_c, 9, 42, 0
2, 70800, Note_on_c, 9, 38, 127
2, 70800, Note_on_c, 9, 42, 127
2, 71039, Note_on_c, 9, 38, 0
2, 71039, Note_on_c, 9, 42, 0
2, 71280, Note_on_c, 9, 42, 127
2, 71280, Note_on_c, 9, 36, 127
2, 71519, Note_on_c, 9, 42, 0
2, 71519, Note_on_c, 9, 36, 0
2, 71520, Note_on_c, 9, 42, 127
2, 71759, Note_on_c, 9, 42, 0
2, 71760, Note_on_c, 9, 38, 127
2, 71760, Note_on_c, 9, 42, 127
2, 71999, Note_on_c, 9, 38, 0
2, 71999, Note_on_c, 9, 42, 0
2, 72000, Note_on_c, 9, 42, 127
2, 72239, Note_on_c, 9, 42, 0
2, 72240, Note_on_c, 9, 42, 127
2, 72240, Note_on_c, 9, 36, 127
2, 72479, Note_on_c, 9, 42, 0
2, 72479, Note_on_c, 9, 36, 0
2, 72480, Note_on_c, 9, 42, 127
2, 72719, Note_on_c, 9, 42, 0
2, 72720, Note_on_c, 9, 38, 127
2, 72720, Note_on_c, 9, 42, 127
2, 72959, Note_on_c, 9, 38, 0
2, 72959, Note_on_c, 9, 42, 0
2, 73200, Note_on_c, 9, 42, 127
2, 73200, Note_on_c, 9, 36, 127
2, 73439, Note_on_c, 9, 42, 0
2, 73439, Note_on_c, 9, 36, 0
2, 73440, Note_on_c, 9, 42, 127
2, 73679, Note_on_c, 9, 42, 0
2, 73680, Note_on_c, 9, 38, 127
2, 73680, Note_on_c, 9, 42, 127
2, 73919, Note_on_c, 9, 38, 0
2, 73919, Note_on_c, 9, 42, 0
2, 73920, Note_on_c, 9, 42, 127
2, 74159, Note_on_c, 9, 42, 0
2, 74160, Note_on_c, 9, 42, 127
2, 74160, Note_on_c, 9, 36, 127
2, 74399, Note_on_c, 9, 42, 0
2, 74399, Note_on_c, 9, 36, 0
2, 74400, Note_on_c, 9, 42, 127
2, 74639, Note_on_c, 9, 42, 0
2, 74640, Note_on_c, 9, 38, 127
2, 74640, Note_on_c, 9, 42, 127
2, 74879, Note_on_c, 9, 38, 0
2, 74879, Note_on_c, 9, 42, 0
2, 75120, Note_on_c, 9, 42, 127
2, 75120, Note_on_c, 9, 36, 127
2, 75359, Note_on_c, 9, 42, 0
2, 75359, Note_on_c, 9, 36, 0
2, 75360, Note_on_c, 9, 42, 127
2, 75599, Note_on_c, 9, 42, 0
2, 75600, Note_on_c, 9, 38, 127
2, 75600, Note_on_c, 9, 42, 127
2, 75839, Note_on_c, 9, 38, 0
2, 75839, Note_on_c, 9, 42, 0
2, 75840, Note_on_c, 9, 42, 127
2, 76079, Note_on_c, 9, 42, 0
2, 76080, Note_on_c, 9, 42, 127
2, 76080, Note_on_c, 9, 36, 127
2, 76319, Note_on_c, 9, 42, 0
2, 76319, Note_on_c, 9, 36, 0
2, 76320, Note_on_c, 9, 42, 127
2, 76559, Note_on_c, 9, 42, 0
2, 76560, Note_on_c, 9, 38, 127
2, 76560, Note_on_c, 9, 42, 127
2, 76799, Note_on_c, 9, 38, 0
2, 76799, Note_on_c, 9, 42, 0
2, 77040, Note_on_c, 9, 42, 127
2, 77040, Note_on_c, 9, 36, 127
2, 77279, Note_on_c, 9, 42, 0
2, 77279, Note_on_c, 9, 36, 0
2, 77280, Note_on_c, 9, 42, 127
2, 77519, Note_on_c, 9, 42, 0
2, 77520, Note_on_c, 9, 38, 127
2, 77520, Note_on_c, 9, 42, 127
2, 77759, Note_on_c, 9, 38, 0
2, 77759, Note_on_c, 9, 42, 0
2, 77760, Note_on_c, 9, 42, 127
2, 77999, Note_on_c, 9, 42, 0
2, 78000, Note_on_c, 9, 42, 127
2, 78000, Note_on_c, 9, 36, 127
2, 78239, Note_on_c, 9, 42, 0
2, 78239, Note_on_c, 9, 36, 0
2, 78240, Note_on_c, 9, 42, 127
2, 78479, Note_on_c, 9, 42, 0
2, 78480, Note_on_c, 9, 38, 127
2, 78480, Note_on_c, 9, 42, 127
2, 78719, Note_on_c, 9, 38, 0
2, 78719, Note_on_c, 9, 42, 0
2, 78960, Note_on_c, 9, 42, 127
2, 78960, Note_on_c, 9, 36, 127
2, 79199, Note_on_c, 9, 42, 0
2, 79199, Note_on_c, 9, 36, 0
2, 79200, Note_on_c, 9, 42, 127
2, 79439, Note_on_c, 9, 42, 0
2, 79440, Note_on_c, 9, 38, 127
2, 79440, Note_on_c, 9, 42, 127
2, 79679, Note_on_c, 9, 38, 0
2, 79679, Note_on_c, 9, 42, 0
2, 79680, Note_on_c, 9, 42, 127
2, 79919, Note_on_c, 9, 42, 0
2, 79920, Note_on_c, 9, 42, 127
2, 79920, Note_on_c, 9, 36, 127
2, 80159, Note_on_c, 9, 42, 0
2, 80159, Note_on_c, 9, 36, 0
2, 80160, Note_on_c, 9, 42, 127
2, 80399, Note_on_c, 9, 42, 0
2, 80400, Note_on_c, 9, 38, 127
2, 80400, Note_on_c, 9, 42, 127
2, 80639, Note_on_c, 9, 38, 0
2, 80639, Note_on_c, 9, 42, 0
2, 80880, Note_on_c, 9, 42, 127
2, 80880, Note_on_c, 9, 36, 127
2, 81119, Note_on_c, 9, 42, 0
2, 81119, Note_on_c, 9, 36, 0
2, 81120, Note_on_c, 9, 42, 127
2, 81359, Note_on_c, 9, 42, 0
2, 81360, Note_on_c, 9, 38, 127
2, 81360, Note_on_c, 9, 42, 127
2, 81599, Note_on_c, 9, 38, 0
2, 81599, Note_on_c, 9, 42, 0
2, 81600, Note_on_c, 9, 42, 127
2, 81839, Note_on_c, 9, 42, 0
2, 81840, Note_on_c, 9, 42, 127
2, 81840, Note_on_c, 9, 36, 127
2, 82079, Note_on_c, 9, 42, 0
2, 82079, Note_on_c, 9, 36, 0
2, 82080, Note_on_c, 9, 42, 127
2, 82319, Note_on_c, 9, 42, 0
2, 82320, Note_on_c, 9, 38, 127
2, 82320, Note_on_c, 9, 42, 127
2, 82559, Note_on_c, 9, 38, 0
2, 82559, Note_on_c, 9, 42, 0
2, 82800, Note_on_c, 9, 42, 127
2, 82800, Note_on_c, 9, 36, 127
2, 83039, Note_on_c, 9, 42, 0
2, 83039, Note_on_c, 9, 36, 0
2, 83040, Note_on_c, 9, 42, 127
2, 83279, Note_on_c, 9, 42, 0
2, 83280, Note_on_c, 9, 38, 127
2, 83280, Note_on_c, 9, 42, 127
2, 83519, Note_on_c, 9, 38, 0
2, 83519, Note_on_c, 9, 42, 0
2, 83520, Note_on_c, 9, 42, 127
2, 83759, Note_on_c, 9, 42, 0
2, 83760, Note_on_c, 9, 42, 127
2, 83760, Note_on_c, 9, 36, 127
2, 83999, Note_on_c, 9, 42, 0
2, 83999, Note_on_c, 9, 36, 0
2, 84000, Note_on_c, 9, 42, 127
2, 84239, Note_on_c, 9, 42, 0
2, 84240, Note_on_c, 9, 38, 127
2, 84240, Note_on_c, 9, 42, 127
2, 84479, Note_on_c, 9, 38, 0
2, 84479, Note_on_c, 9, 42, 0
2, 84720, Note_on_c, 9, 42, 127
2, 84720, Note_on_c, 9, 36, 127
2, 84959, Note_on_c, 9, 42, 0
2, 84959, Note_on_c, 9, 36, 0
2, 84960, Note_on_c, 9, 42, 127
2, 85199, Note_on_c, 9, 42, 0
2, 85200, Note_on_c, 9, 38, 127
2, 85200, Note_on_c, 9, 42, 127
2, 85439, Note_on_c, 9, 38, 0
2, 85439, Note_on_c, 9, 42, 0
2, 85440, Note_on_c, 9, 42, 127
2, 85679, Note_on_c, 9, 42, 0
2, 85680, Note_on_c, 9, 42, 127
2, 85680, Note_on_c, 9, 36, 127
2, 85919, Note_on_c, 9, 42, 0
2, 85919, Note_on_c, 9, 36, 0
2, 85920, Note_on_c, 9, 42, 127
2, 86159, Note_on_c, 9, 42, 0
2, 86160, Note_on_c, 9, 38, 127
2, 86160, Note_on_c, 9, 42, 127
2, 86399, Note_on_c, 9, 38, 0
2, 86399, Note_on_c, 9, 42, 0
2, 86640, Note_on_c, 9, 42, 127
2, 86640, Note_on_c, 9, 36, 127
2, 86879, Note_on_c, 9, 42, 0
2, 86879, Note_on_c, 9, 36, 0
2, 86880, Note_on_c, 9, 42, 127
2, 87119, Note_on_c, 9, 42, 0
2, 87120, Note_on_c, 9, 38, 127
2, 87120, Note_on_c, 9, 42, 127
2, 87359, Note_on_c, 9, 38, 0
2, 87359, Note_on_c, 9, 42, 0
2, 87360, Note_on_c, 9, 42, 127
2, 87599, Note_on_c, 9, 42, 0
2, 87600, Note_on_c, 9, 42, 127
2, 87600, Note_on_c, 9, 36, 127
2, 87839, Note_on_c, 9, 42, 0
2, 87839, Note_on_c, 9, 36, 0
2, 87840, Note_on_c, 9, 42, 127
2, 88079, Note_on_c, 9, 42, 0
2, 88080, Note_on_c, 9, 38, 127
2, 88080, Note_on_c, 9, 42, 127
2, 88319, Note_on_c, 9, 38, 0
2, 88319, Note_on_c, 9, 42, 0
2, 88560, Note_on_c, 9, 42, 127
2, 88560, Note_on_c, 9, 36, 127
2, 88799, Note_on_c, 9, 42, 0
2, 88799, Note_on_c, 9, 36, 0
2, 88800, Note_on_c, 9, 42, 127
2, 89039, Note_on_c, 9, 42, 0
2, 89040, Note_on_c, 9, 38, 127
2, 89040, Note_on_c, 9, 42, 127
2, 89279, Note_on_c, 9, 38, 0
2, 89279, Note_on_c, 9, 42, 0
2, 89280, Note_on_c, 9, 42, 127
2, 89519, Note_on_c, 9, 42, 0
2, 89520, Note_on_c, 9, 42, 127
2, 89520, Note_on_c, 9, 36, 127
2, 89759, Note_on_c, 9, 42, 0
2, 89759, Note_on_c, 9, 36, 0
2, 89760, Note_on_c, 9, 42, 127
2, 89999, Note_on_c, 9, 42, 0
2, 90000, Note_on_c, 9, 38, 127
2, 90000, Note_on_c, 9, 42, 127
2, 90239, Note_on_c, 9, 38, 0
2, 90239, Note_on_c, 9, 42, 0
2, 90480, Note_on_c, 9, 42, 127
2, 90480, Note_on_c, 9, 36, 127
2, 90719, Note_on_c, 9, 42, 0
2, 90719, Note_on_c, 9, 36, 0
2, 90720, Note_on_c, 9, 42, 127
2, 90959, Note_on_c, 9, 42, 0
2, 90960, Note_on_c, 9, 38, 127
2, 90960, Note_on_c, 9, 42, 127
2, 91199, Note_on_c, 9, 38, 0
2, 91199, Note_on_c, 9, 42, 0
2, 91200, Note_on_c, 9, 42, 127
2, 91439, Note_on_c, 9, 42, 0
2, 91440, Note_on_c, 9, 42, 127
2, 91440, Note_on_c, 9, 36, 127
2, 91679, Note_on_c, 9, 42, 0
2, 91679, Note_on_c, 9, 36, 0
2, 91680, Note_on_c, 9, 42, 127
2, 91919, Note_on_c, 9, 42, 0
2, 91920, Note_on_c, 9, 38, 127
2, 91920, Note_on_c, 9, 42, 127
2, 92159, Note_on_c, 9, 38, 0
2, 92159, Note_on_c, 9, 42, 0
2, 92400, Note_on_c, 9, 42, 127
2, 92400, Note_on_c, 9, 36, 127
2, 92639, Note_on_c, 9, 42, 0
2, 92639, Note_on_c, 9, 36, 0
2, 92640, Note_on_c, 9, 42, 127
2, 92879, Note_on_c, 9, 42, 0
2, 92880, Note_on_c, 9, 38, 127
2, 92880, Note_on_c, 9, 42, 127
2, 93119, Note_on_c, 9, 38, 0
2, 93119, Note_on_c, 9, 42, 0
2, 93120, Note_on_c, 9, 42, 127
2, 93359, Note_on_c, 9, 42, 0
2, 93360, Note_on_c, 9, 42, 127
2, 93360, Note_on_c, 9, 36, 127
2, 93599, Note_on_c, 9, 42, 0
2, 93599, Note_on_c, 9, 36, 0
2, 93600, Note_on_c, 9, 42, 127
2, 93839, Note_on_c, 9, 42, 0
2, 93840, Note_on_c, 9, 38, 127
2, 93840, Note_on_c, 9, 42, 127
2, 94079, Note_on_c, 9, 38, 0
2, 94079, Note_on_c, 9, 42, 0
2, 94320, Note_on_c, 9, 42, 127
2, 94320, Note_on_c, 9, 36, 127
2, 94559, Note_on_c, 9, 42, 0
2, 94559, Note_on_c, 9, 36, 0
2, 94560, Note_on_c, 9, 42, 127
2, 94799, Note_on_c, 9, 42, 0
2, 94800, Note_on_c, 9, 38, 127
2, 94800, Note_on_c, 9, 42, 127
2, 95039, Note_on_c, 9, 38, 0
2, 95039, Note_on_c, 9, 42, 0
2, 95040, Note_on_c, 9, 42, 127
2, 95279, Note_on_c, 9, 42, 0
2, 95280, Note_on_c, 9, 42, 127
2, 95280, Note_on_c, 9, 36, 127
2, 95519, Note_on_c, 9, 42, 0
2, 95519, Note_on_c, 9, 36, 0
2, 95520, Note_on_c, 9, 42, 127
2, 95759, Note_on_c, 9, 42, 0
2, 95760, Note_on_c, 9, 38, 127
2, 95760, Note_on_c, 9, 42, 127
2, 95999, Note_on_c, 9, 38, 0
2, 95999, Note_on_c, 9, 42, 0
2, 96240, Note_on_c, 9, 42, 127
2, 96240, Note_on_c, 9, 36, 127
2, 96479, Note_on_c, 9, 42, 0
2, 96479, Note_on_c, 9, 36, 0
2, 96480, Note_on_c, 9, 42, 127
2, 96719, Note_on_c, 9, 42, 0
2, 96720, Note_on_c, 9, 38, 127
2, 96720, Note_on_c, 9, 42, 127
2, 96959, Note_on_c, 9, 38, 0
2, 96959, Note_on_c, 9, 42, 0
2, 96960, Note_on_c, 9, 42, 127
2, 97199, Note_on_c, 9, 42, 0
2, 97200, Note_on_c, 9, 42, 127
2, 97200, Note_on_c, 9, 36, 127
2, 97439, Note_on_c, 9, 42, 0
2, 97439, Note_on_c, 9, 36, 0
2, 97440, Note_on_c, 9, 42, 127
2, 97679, Note_on_c, 9, 42, 0
2, 97680, Note_on_c, 9, 38, 127
2, 97680, Note_on_c, 9, 42, 127
2, 97919, Note_on_c, 9, 38, 0
2, 97919, Note_on_c, 9, 42, 0
2, 98160, Note_on_c, 9, 42, 127
2, 98160, Note_on_c, 9, 36, 127
2, 98399, Note_on_c, 9, 42, 0
2, 98399, Note_on_c, 9, 36, 0
2, 98400, Note_on_c, 9, 38, 127
2, 98400, Note_on_c, 9, 42, 127
2, 98639, Note_on_c, 9, 38, 0
2, 98639, Note_on_c, 9, 42, 0
2, 98640, Note_on_c, 9, 38, 127
2, 98640, Note_on_c, 9, 42, 127
2, 98879, Note_on_c, 9, 38, 0
2, 98879, Note_on_c, 9, 42, 0
2, 98880, Note_on_c, 9, 42, 127
2, 99119, Note_on_c, 9, 42, 0
2, 99120, Note_on_c, 9, 42, 127
2, 99120, Note_on_c, 9, 36, 127
2, 99359, Note_on_c, 9, 42, 0
2, 99359, Note_on_c, 9, 36, 0
2, 99360, Note_on_c, 9, 38, 127
2, 99360, Note_on_c, 9, 42, 127
2, 99479, Note_on_c, 9, 38, 0
2, 99479, Note_on_c, 9, 42, 0
2, 99480, Note_on_c, 9, 38, 127
2, 99599, Note_on_c, 9, 38, 0
2, 99600, Note_on_c, 9, 42, 127
2, 99839, Note_on_c, 9, 42, 0
2, 99840, Note_on_c, 9, 38, 127
2, 100079, Note_on_c, 9, 38, 0
2, 100080, Note_on_c, 9, 42, 127
2, 100080, Note_on_c, 9, 36, 127
2, 100319, Note_on_c, 9, 42, 0
2, 100319, Note_on_c, 9, 36, 0
2, 100320, Note_on_c, 9, 42, 127
2, 100559, Note_on_c, 9, 42, 0
2, 100560, Note_on_c, 9, 38, 127
2, 100560, Note_on_c, 9, 42, 127
2, 100799, Note_on_c, 9, 38, 0
2, 100799, Note_on_c, 9, 42, 0
2, 100800, Note_on_c, 9, 42, 127
2, 101039, Note_on_c, 9, 42, 0
2, 101040, Note_on_c, 9, 42, 127
2, 101040, Note_on_c, 9, 36, 127
2, 101279, Note_on_c, 9, 42, 0
2, 101279, Note_on_c, 9, 36, 0
2, 101280, Note_on_c, 9, 42, 127
2, 101519, Note_on_c, 9, 42, 0
2, 101520, Note_on_c, 9, 38, 127
2, 101520, Note_on_c, 9, 42, 127
2, 101759, Note_on_c, 9, 38, 0
2, 101759, Note_on_c, 9, 42, 0
2, 102000, Note_on_c, 9, 42, 127
2, 102000, Note_on_c, 9, 36, 127
2, 102239, Note_on_c, 9, 42, 0
2, 102239, Note_on_c, 9, 36, 0
2, 102240, Note_on_c, 9, 42, 127
2, 102479, Note_on_c, 9, 42, 0
2, 102480, Note_on_c, 9, 38, 127
2, 102480, Note_on_c, 9, 42, 127
2, 102719, Note_on_c, 9, 38, 0
2, 102719, Note_on_c, 9, 42, 0
2, 102720, Note_on_c, 9, 42, 127
2, 102959, Note_on_c, 9, 42, 0
2, 102960, Note_on_c, 9, 42, 127
2, 102960, Note_on_c, 9, 36, 127
2, 103199, Note_on_c, 9, 42, 0
2, 103199, Note_on_c, 9, 36, 0
2, 103200, Note_on_c, 9, 42, 127
2, 103439, Note_on_c, 9, 42, 0
2, 103440, Note_on_c, 9, 38, 127
2, 103440, Note_on_c, 9, 42, 127
2, 103679, Note_on_c, 9, 38, 0
2, 103679, Note_on_c, 9, 42, 0
2, 103680, Note_on_c, 9, 38, 127
2, 103919, Note_on_c, 9, 38, 0
2, 103920, Note_on_c, 9, 42, 127
2, 103920, Note_on_c, 9, 36, 127
2, 104159, Note_on_c, 9, 42, 0
2, 104159, Note_on_c, 9, 36, 0
2, 104160, Note_on_c, 9, 42, 127
2, 104399, Note_on_c, 9, 42, 0
2, 104400, Note_on_c, 9, 38, 127
2, 104400, Note_on_c, 9, 42, 127
2, 104639, Note_on_c, 9, 38, 0
2, 104639, Note_on_c, 9, 42, 0
2, 104640, Note_on_c, 9, 42, 127
2, 104879, Note_on_c, 9, 42, 0
2, 104880, Note_on_c, 9, 42, 127
2, 104880, Note_on_c, 9, 36, 127
2, 105119, Note_on_c, 9, 42, 0
2, 105119, Note_on_c, 9, 36, 0
2, 105120, Note_on_c, 9, 42, 127
2, 105359, Note_on_c, 9, 42, 0
2, 105360, Note_on_c, 9, 38, 127
2, 105360, Note_on_c, 9, 42, 127
2, 105599, Note_on_c, 9, 38, 0
2, 105599, Note_on_c, 9, 42, 0
2, 105840, Note_on_c, 9, 42, 127
2, 105840, Note_on_c, 9, 36, 127
2, 106079, Note_on_c, 9, 42, 0
2, 106079, Note_on_c, 9, 36, 0
2, 106080, Note_on_c, 9, 42, 127
2, 106319, Note_on_c, 9, 42, 0
2, 106320, Note_on_c, 9, 38, 127
2, 106320, Note_on_c, 9, 42, 127
2, 106559, Note_on_c, 9, 38, 0
2, 106559, Note_on_c, 9, 42, 0
2, 106560, Note_on_c, 9, 42, 127
2, 106799, Note_on_c, 9, 42, 0
2, 106800, Note_on_c, 9, 42, 127
2, 106800, Note_on_c, 9, 36, 127
2, 107039, Note_on_c, 9, 42, 0
2, 107039, Note_on_c, 9, 36, 0
2, 107040, Note_on_c, 9, 42, 127
2, 107279, Note_on_c, 9, 42, 0
2, 107280, Note_on_c, 9, 38, 127
2, 107280, Note_on_c, 9, 42, 127
2, 107519, Note_on_c, 9, 38, 0
2, 107519, Note_on_c, 9, 42, 0
2, 107520, Note_on_c, 9, 38, 127
2, 107759, Note_on_c, 9, 38, 0
2, 107760, Note_on_c, 9, 42, 127
2, 107760, Note_on_c, 9, 36, 127
2, 107999, Note_on_c, 9, 42, 0
2, 107999, Note_on_c, 9, 36, 0
2, 108000, Note_on_c, 9, 42, 127
2, 108239, Note_on_c, 9, 42, 0
2, 108240, Note_on_c, 9, 38, 127
2, 108240, Note_on_c, 9, 42, 127
2, 108479, Note_on_c, 9, 38, 0
2, 108479, Note_on_c, 9, 42, 0
2, 108480, Note_on_c, 9, 42, 127
2, 108719, Note_on_c, 9, 42, 0
2, 108720, Note_on_c, 9, 42, 127
2, 108720, Note_on_c, 9, 36, 127
2, 108959, Note_on_c, 9, 42, 0
2, 108959, Note_on_c, 9, 36, 0
2, 108960, Note_on_c, 9, 42, 127
2, 109199, Note_on_c, 9, 42, 0
2, 109200, Note_on_c, 9, 38, 127
2, 109200, Note_on_c, 9, 42, 127
2, 109439, Note_on_c, 9, 38, 0
2, 109439, Note_on_c, 9, 42, 0
2, 109680, Note_on_c, 9, 42, 127
2, 109680, Note_on_c, 9, 36, 127
2, 109919, Note_on_c, 9, 42, 0
2, 109919, Note_on_c, 9, 36, 0
2, 109920, Note_on_c, 9, 42, 127
2, 110159, Note_on_c, 9, 42, 0
2, 110160, Note_on_c, 9, 38, 127
2, 110160, Note_on_c, 9, 42, 127
2, 110399, Note_on_c, 9, 38, 0
2, 110399, Note_on_c, 9, 42, 0
2, 110400, Note_on_c, 9, 42, 127
2, 110639, Note_on_c, 9, 42, 0
2, 110640, Note_on_c, 9, 42, 127
2, 110640, Note_on_c, 9, 36, 127
2, 110879, Note_on_c, 9, 42, 0
2, 110879, Note_on_c, 9, 36, 0
2, 110880, Note_on_c, 9, 42, 127
2, 111119, Note_on_c, 9, 42, 0
2, 111120, Note_on_c, 9, 38, 127
2, 111120, Note_on_c, 9, 42, 127
2, 111359, Note_on_c, 9, 38, 0
2, 111359, Note_on_c, 9, 42, 0
2, 111360, Note_on_c, 9, 38, 127
2, 111479, Note_on_c, 9, 38, 0
2, 111480, Note_on_c, 9, 38, 127
2, 111599, Note_on_c, 9, 38, 0
2, 111600, Note_on_c, 9, 42, 127
2, 111600, Note_on_c, 9, 36, 127
2, 111839, Note_on_c, 9, 42, 0
2, 111839, Note_on_c, 9, 36, 0
2, 111840, Note_on_c, 9, 42, 127
2, 112079, Note_on_c, 9, 42, 0
2, 112080, Note_on_c, 9, 38, 127
2, 112080, Note_on_c, 9, 42, 127
2, 112319, Note_on_c, 9, 38, 0
2, 112319, Note_on_c, 9, 42, 0
2, 112320, Note_on_c, 9, 42, 127
2, 112559, Note_on_c, 9, 42, 0
2, 112560, Note_on_c, 9, 42, 127
2, 112560, Note_on_c, 9, 36, 127
2, 112799, Note_on_c, 9, 42, 0
2, 112799, Note_on_c, 9, 36, 0
2, 112800, Note_on_c, 9, 42, 127
2, 113039, Note_on_c, 9, 42, 0
2, 113040, Note_on_c, 9, 38, 127
2, 113040, Note_on_c, 9, 42, 127
2, 113279, Note_on_c, 9, 38, 0
2, 113279, Note_on_c, 9, 42, 0
2, 113520, Note_on_c, 9, 42, 127
2, 113520, Note_on_c, 9, 36, 127
2, 113759, Note_on_c, 9, 42, 0
2, 113759, Note_on_c, 9, 36, 0
2, 113760, Note_on_c, 9, 42, 127
2, 113999, Note_on_c, 9, 42, 0
2, 114000, Note_on_c, 9, 38, 127
2, 114000, Note_on_c, 9, 42, 127
2, 114239, Note_on_c, 9, 38, 0
2, 114239, Note_on_c, 9, 42, 0
2, 114240, Note_on_c, 9, 42, 127
2, 114479, Note_on_c, 9, 42, 0
2, 114480, Note_on_c, 9, 42, 127
2, 114480, Note_on_c, 9, 36, 127
2, 114719, Note_on_c, 9, 42, 0
2, 114719, Note_on_c, 9, 36, 0
2, 114720, Note_on_c, 9, 38, 127
2, 114720, Note_on_c, 9, 42, 127
2, 114959, Note_on_c, 9, 38, 0
2, 114959, Note_on_c, 9, 42, 0
2, 114960, Note_on_c, 9, 38, 127
2, 114960, Note_on_c, 9, 42, 127
2, 115199, Note_on_c, 9, 38, 0
2, 115199, Note_on_c, 9, 42, 0
2, 122880, Note_on_c, 9, 38, 127
2, 122999, Note_on_c, 9, 38, 0
2, 123000, Note_on_c, 9, 38, 127
2, 123119, Note_on_c, 9, 38, 0
2, 123120, Note_on_c, 9, 42, 127
2, 123120, Note_on_c, 9, 36, 127
2, 123359, Note_on_c, 9, 42, 0
2, 123359, Note_on_c, 9, 36, 0
2, 123360, Note_on_c, 9, 42, 127
2, 123599, Note_on_c, 9, 42, 0
2, 123600, Note_on_c, 9, 38, 127
2, 123600, Note_on_c, 9, 42, 127
2, 123839, Note_on_c, 9, 38, 0
2, 123839, Note_on_c, 9, 42, 0
2, 123840, Note_on_c, 9, 42, 127
2, 124079, Note_on_c, 9, 42, 0
2, 124080, Note_on_c, 9, 42, 127
2, 124080, Note_on_c, 9, 36, 127
2, 124319, Note_on_c, 9, 42, 0
2, 124319, Note_on_c, 9, 36, 0
2, 124320, Note_on_c, 9, 42, 127
2, 124559, Note_on_c, 9, 42, 0
2, 124560, Note_on_c, 9, 38, 127
2, 124560, Note_on_c, 9, 42, 127
2, 124799, Note_on_c, 9, 38, 0
2, 124799, Note_on_c, 9, 42, 0
2, 125040, Note_on_c, 9, 42, 127
2, 125040, Note_on_c, 9, 36, 127
2, 125279, Note_on_c, 9, 42, 0
2, 125279, Note_on_c, 9, 36, 0
2, 125280, Note_on_c, 9, 42, 127
2, 125519, Note_on_c, 9, 42, 0
2, 125520, Note_on_c, 9, 38, 127
2, 125520, Note_on_c, 9, 42, 127
2, 125759, Note_on_c, 9, 38, 0
2, 125759, Note_on_c, 9, 42, 0
2, 125760, Note_on_c, 9, 42, 127
2, 125999, Note_on_c, 9, 42, 0
2, 126000, Note_on_c, 9, 42, 127
2, 126000, Note_on_c, 9, 36, 127
2, 126239, Note_on_c, 9, 42, 0
2, 126239, Note_on_c, 9, 36, 0
2, 126240, Note_on_c, 9, 42, 127
2, 126479, Note_on_c, 9, 42, 0
2, 126480, Note_on_c, 9, 38, 127
2, 126480, Note_on_c, 9, 42, 127
2, 126719, Note_on_c, 9, 38, 0
2, 126719, Note_on_c, 9, 42, 0
2, 126720, Note_on_c, 9, 38, 127
2, 126959, Note_on_c, 9, 38, 0
2, 126960, Note_on_c, 9, 42, 127
2, 126960, Note_on_c, 9, 36, 127
2, 127199, Note_on_c, 9, 42, 0
2, 127199, Note_on_c, 9, 36, 0
2, 127200, Note_on_c, 9, 42, 127
2, 127439, Note_on_c, 9, 42, 0
2, 127440, Note_on_c, 9, 38, 127
2, 127440, Note_on_c, 9, 42, 127
2, 127679, Note_on_c, 9, 38, 0
2, 127679, Note_on_c, 9, 42, 0
2, 127680, Note_on_c, 9, 42, 127
2, 127919, Note_on_c, 9, 42, 0
2, 127920, Note_on_c, 9, 42, 127
2, 127920, Note_on_c, 9, 36, 127
2, 128159, Note_on_c, 9, 42, 0
2, 128159, Note_on_c, 9, 36, 0
2, 128160, Note_on_c, 9, 42, 127
2, 128399, Note_on_c, 9, 42, 0
2, 128400, Note_on_c, 9, 38, 127
2, 128400, Note_on_c, 9, 42, 127
2, 128639, Note_on_c, 9, 38, 0
2, 128639, Note_on_c, 9, 42, 0
2, 128880, Note_on_c, 9, 42, 127
2, 128880, Note_on_c, 9, 36, 127
2, 129119, Note_on_c, 9, 42, 0
2, 129119, Note_on_c, 9, 36, 0
2, 129120, Note_on_c, 9, 42, 127
2, 129359, Note_on_c, 9, 42, 0
2, 129360, Note_on_c, 9, 38, 127
2, 129360, Note_on_c, 9, 42, 127
2, 129599, Note_on_c, 9, 38, 0
2, 129599, Note_on_c, 9, 42, 0
2, 129600, Note_on_c, 9, 42, 127
2, 129839, Note_on_c, 9, 42, 0
2, 129840, Note_on_c, 9, 42, 127
2, 129840, Note_on_c, 9, 36, 127
2, 130079, Note_on_c, 9, 42, 0
2, 130079, Note_on_c, 9, 36, 0
2, 130080, Note_on_c, 9, 42, 127
2, 130319, Note_on_c, 9, 42, 0
2, 130320, Note_on_c, 9, 38, 127
2, 130559, Note_on_c, 9, 38, 0
2, 130560, Note_on_c, 9, 38, 127
2, 130560, Note_on_c, 9, 42, 127
2, 130799, Note_on_c, 9, 38, 0
2, 130799, Note_on_c, 9, 42, 0
2, 130800, Note_on_c, 9, 42, 127
2, 130800, Note_on_c, 9, 36, 127
2, 131039, Note_on_c, 9, 42, 0
2, 131039, Note_on_c, 9, 36, 0
2, 131040, Note_on_c, 9, 42, 127
2, 131279, Note_on_c, 9, 42, 0
2, 131280, Note_on_c, 9, 38, 127
2, 131280, Note_on_c, 9, 42, 127
2, 131519, Note_on_c, 9, 38, 0
2, 131519, Note_on_c, 9, 42, 0
2, 131520, Note_on_c, 9, 42, 127
2, 131759, Note_on_c, 9, 42, 0
2, 131760, Note_on_c, 9, 42, 127
2, 131760, Note_on_c, 9, 36, 127
2, 131999, Note_on_c, 9, 42, 0
2, 131999, Note_on_c, 9, 36, 0
2, 132000, Note_on_c, 9, 42, 127
2, 132239, Note_on_c, 9, 42, 0
2, 132240, Note_on_c, 9, 38, 127
2, 132240, Note_on_c, 9, 42, 127
2, 132479, Note_on_c, 9, 38, 0
2, 132479, Note_on_c, 9, 42, 0
2, 132720, Note_on_c, 9, 42, 127
2, 132720, Note_on_c, 9, 36, 127
2, 132959, Note_on_c, 9, 42, 0
2, 132959, Note_on_c, 9, 36, 0
2, 132960, Note_on_c, 9, 42, 127
2, 133199, Note_on_c, 9, 42, 0
2, 133200, Note_on_c, 9, 38, 127
2, 133200, Note_on_c, 9, 42, 127
2, 133439, Note_on_c, 9, 38, 0
2, 133439, Note_on_c, 9, 42, 0
2, 133440, Note_on_c, 9, 42, 127
2, 133679, Note_on_c, 9, 42, 0
2, 133680, Note_on_c, 9, 42, 127
2, 133680, Note_on_c, 9, 36, 127
2, 133919, Note_on_c, 9, 42, 0
2, 133919, Note_on_c, 9, 36, 0
2, 133920, Note_on_c, 9, 42, 127
2, 134159, Note_on_c, 9, 42, 0
2, 134160, Note_on_c, 9, 38, 127
2, 134160, Note_on_c, 9, 42, 127
2, 134399, Note_on_c, 9, 38, 0
2, 134399, Note_on_c, 9, 42, 0
2, 134400, Note_on_c, 9, 38, 127
2, 134639, Note_on_c, 9, 38, 0
2, 134640, Note_on_c, 9, 42, 127
2, 134640, Note_on_c, 9, 36, 127
2, 134879, Note_on_c, 9, 42, 0
2, 134879, Note_on_c, 9, 36, 0
2, 134880, Note_on_c, 9, 42, 127
2, 135119, Note_on_c, 9, 42, 0
2, 135120, Note_on_c, 9, 38, 127
2, 135120, Note_on_c, 9, 42, 127
2, 135359, Note_on_c, 9, 38, 0
2, 135359, Note_on_c, 9, 42, 0
2, 135360, Note_on_c, 9, 42, 127
2, 135599, Note_on_c, 9, 42, 0
2, 135600, Note_on_c, 9, 42, 127
2, 135600, Note_on_c, 9, 36, 127
2, 135839, Note_on_c, 9, 42, 0
2, 135839, Note_on_c, 9, 36, 0
2, 135840, Note_on_c, 9, 42, 127
2, 136079, Note_on_c, 9, 42, 0
2, 136080, Note_on_c, 9, 38, 127
2, 136080, Note_on_c, 9, 42, 127
2, 136319, Note_on_c, 9, 38, 0
2, 136319, Note_on_c, 9, 42, 0
2, 136560, Note_on_c, 9, 42, 127
2, 136560, Note_on_c, 9, 36, 127
2, 136799, Note_on_c, 9, 42, 0
2, 136799, Note_on_c, 9, 36, 0
2, 136800, Note_on_c, 9, 42, 127
2, 137039, Note_on_c, 9, 42, 0
2, 137040, Note_on_c, 9, 38, 127
2, 137040, Note_on_c, 9, 42, 127
2, 137279, Note_on_c, 9, 38, 0
2, 137279, Note_on_c, 9, 42, 0
2, 137280, Note_on_c, 9, 42, 127
2, 137519, Note_on_c, 9, 42, 0
2, 137520, Note_on_c, 9, 42, 127
2, 137520, Note_on_c, 9, 36, 127
2, 137759, Note_on_c, 9, 42, 0
2, 137759, Note_on_c, 9, 36, 0
2, 137760, Note_on_c, 9, 38, 127
2, 137760, Note_on_c, 9, 36, 127
2, 137999, Note_on_c, 9, 38, 0
2, 138000, Note_on_c, 9, 38, 127
2, 138239, Note_on_c, 9, 36, 0
2, 138239, Note_on_c, 9, 38, 0
2, 138240, Note_on_c, 9, 38, 127
2, 138479, Note_on_c, 9, 38, 0
2, 138480, Note_on_c, 9, 42, 127
2, 138480, Note_on_c, 9, 36, 127
2, 138719, Note_on_c, 9, 42, 0
2, 138719, Note_on_c, 9, 36, 0
2, 138720, Note_on_c, 9, 42, 127
2, 138959, Note_on_c, 9, 42, 0
2, 138960, Note_on_c, 9, 38, 127
2, 138960, Note_on_c, 9, 39, 127
2, 138960, Note_on_c, 9, 42, 127
2, 139199, Note_on_c, 9, 38, 0
2, 139199, Note_on_c, 9, 39, 0
2, 139199, Note_on_c, 9, 42, 0
2, 139200, Note_on_c, 9, 38, 127
2, 139200, Note_on_c, 9, 39, 127
2, 139200, Note_on_c, 9, 42, 127
2, 139439, Note_on_c, 9, 38, 0
2, 139439, Note_on_c, 9, 39, 0
2, 139439, Note_on_c, 9, 42, 0
2, 139440, Note_on_c, 9, 42, 127
2, 139440, Note_on_c, 9, 36, 127
2, 139679, Note_on_c, 9, 42, 0
2, 139679, Note_on_c, 9, 36, 0
2, 139680, Note_on_c, 9, 42, 127
2, 139919, Note_on_c, 9, 42, 0
2, 139920, Note_on_c, 9, 38, 127
2, 139920, Note_on_c, 9, 39, 127
2, 139920, Note_on_c, 9, 42, 127
2, 140159, Note_on_c, 9, 38, 0
2, 140159, Note_on_c, 9, 39, 0
2, 140159, Note_on_c, 9, 42, 0
2, 140400, Note_on_c, 9, 42, 127
2, 140400, Note_on_c, 9, 36, 127
2, 140639, Note_on_c, 9, 42, 0
2, 140639, Note_on_c, 9, 36, 0
2, 140640, Note_on_c, 9, 42, 127
2, 140879, Note_on_c, 9, 42, 0
2, 140880, Note_on_c, 9, 38, 127
2, 140880, Note_on_c, 9, 39, 127
2, 140880, Note_on_c, 9, 42, 127
2, 141119, Note_on_c, 9, 38, 0
2, 141119, Note_on_c, 9, 39, 0
2, 141119, Note_on_c, 9, 42, 0
2, 141120, Note_on_c, 9, 39, 127
2, 141120, Note_on_c, 9, 42, 127
2, 141359, Note_on_c, 9, 39, 0
2, 141359, Note_on_c, 9, 42, 0
2, 141360, Note_on_c, 9, 42, 127
2, 141360, Note_on_c, 9, 36, 127
2, 141599, Note_on_c, 9, 42, 0
2, 141599, Note_on_c, 9, 36, 0
2, 141600, Note_on_c, 9, 42, 127
2, 141839, Note_on_c, 9, 42, 0
2, 141840, Note_on_c, 9, 38, 127
2, 141840, Note_on_c, 9, 39, 127
2, 141840, Note_on_c, 9, 42, 127
2, 142079, Note_on_c, 9, 38, 0
2, 142079, Note_on_c, 9, 39, 0
2, 142079, Note_on_c, 9, 42, 0
2, 142080, Note_on_c, 9, 38, 127
2, 142319, Note_on_c, 9, 38, 0
2, 142320, Note_on_c, 9, 42, 127
2, 142320, Note_on_c, 9, 36, 127
2, 142559, Note_on_c, 9, 42, 0
2, 142559, Note_on_c, 9, 36, 0
2, 142560, Note_on_c, 9, 42, 127
2, 142799, Note_on_c, 9, 42, 0
2, 142800, Note_on_c, 9, 38, 127
2, 142800, Note_on_c, 9, 39, 127
2, 142800, Note_on_c, 9, 42, 127
2, 143039, Note_on_c, 9, 38, 0
2, 143039, Note_on_c, 9, 39, 0
2, 143039, Note_on_c, 9, 42, 0
2, 143040, Note_on_c, 9, 38, 127
2, 143040, Note_on_c, 9, 39, 127
2, 143040, Note_on_c, 9, 42, 127
2, 143279, Note_on_c, 9, 38, 0
2, 143279, Note_on_c, 9, 39, 0
2, 143279, Note_on_c, 9, 42, 0
2, 143280, Note_on_c, 9, 42, 127
2, 143280, Note_on_c, 9, 36, 127
2, 143519, Note_on_c, 9, 42, 0
2, 143519, Note_on_c, 9, 36, 0
2, 143520, Note_on_c, 9, 42, 127
2, 143759, Note_on_c, 9, 42, 0
2, 143760, Note_on_c, 9, 38, 127
2, 143760, Note_on_c, 9, 39, 127
2, 143760, Note_on_c, 9, 42, 127
2, 143999, Note_on_c, 9, 38, 0
2, 143999, Note_on_c, 9, 39, 0
2, 143999, Note_on_c, 9, 42, 0
2, 144240, Note_on_c, 9, 42, 127
2, 144240, Note_on_c, 9, 36, 127
2, 144479, Note_on_c, 9, 42, 0
2, 144479, Note_on_c, 9, 36, 0
2, 144480, Note_on_c, 9, 42, 127
2, 144719, Note_on_c, 9, 42, 0
2, 144720, Note_on_c, 9, 38, 127
2, 144720, Note_on_c, 9, 39, 127
2, 144720, Note_on_c, 9, 42, 127
2, 144959, Note_on_c, 9, 38, 0
2, 144959, Note_on_c, 9, 39, 0
2, 144959, Note_on_c, 9, 42, 0
2, 144960, Note_on_c, 9, 39, 127
2, 144960, Note_on_c, 9, 42, 127
2, 145199, Note_on_c, 9, 39, 0
2, 145199, Note_on_c, 9, 42, 0
2, 145200, Note_on_c, 9, 42, 127
2, 145200, Note_on_c, 9, 36, 127
2, 145439, Note_on_c, 9, 42, 0
2, 145439, Note_on_c, 9, 36, 0
2, 145440, Note_on_c, 9, 42, 127
2, 145679, Note_on_c, 9, 42, 0
2, 145680, Note_on_c, 9, 38, 127
2, 145680, Note_on_c, 9, 39, 127
2, 145680, Note_on_c, 9, 42, 127
2, 145919, Note_on_c, 9, 38, 0
2, 145919, Note_on_c, 9, 39, 0
2, 145919, Note_on_c, 9, 42, 0
2, 145920, Note_on_c, 9, 38, 127
2, 146159, Note_on_c, 9, 38, 0
2, 146160, Note_on_c, 9, 42, 127
2, 146160, Note_on_c, 9, 36, 127
2, 146399, Note_on_c, 9, 42, 0
2, 146399, Note_on_c, 9, 36, 0
2, 146400, Note_on_c, 9, 42, 127
2, 146639, Note_on_c, 9, 42, 0
2, 146640, Note_on_c, 9, 38, 127
2, 146640, Note_on_c, 9, 39, 127
2, 146640, Note_on_c, 9, 42, 127
2, 146879, Note_on_c, 9, 38, 0
2, 146879, Note_on_c, 9, 39, 0
2, 146879, Note_on_c, 9, 42, 0
2, 146880, Note_on_c, 9, 38, 127
2, 146880, Note_on_c, 9, 39, 127
2, 146880, Note_on_c, 9, 42, 127
2, 147119, Note_on_c, 9, 38, 0
2, 147119, Note_on_c, 9, 39, 0
2, 147119, Note_on_c, 9, 42, 0
2, 147120, Note_on_c, 9, 42, 127
2, 147120, Note_on_c, 9, 36, 127
2, 147359, Note_on_c, 9, 42, 0
2, 147359, Note_on_c, 9, 36, 0
2, 147360, Note_on_c, 9, 42, 127
2, 147599, Note_on_c, 9, 42, 0
2, 147600, Note_on_c, 9, 38, 127
2, 147600, Note_on_c, 9, 39, 127
2, 147600, Note_on_c, 9, 42, 127
2, 147839, Note_on_c, 9, 38, 0
2, 147839, Note_on_c, 9, 39, 0
2, 147839, Note_on_c, 9, 42, 0
2, 148080, Note_on_c, 9, 42, 127
2, 148080, Note_on_c, 9, 36, 127
2, 148319, Note_on_c, 9, 42, 0
2, 148319, Note_on_c, 9, 36, 0
2, 148320, Note_on_c, 9, 42, 127
2, 148559, Note_on_c, 9, 42, 0
2, 148560, Note_on_c, 9, 38, 127
2, 148560, Note_on_c, 9, 39, 127
2, 148560, Note_on_c, 9, 42, 127
2, 148799, Note_on_c, 9, 38, 0
2, 148799, Note_on_c, 9, 39, 0
2, 148799, Note_on_c, 9, 42, 0
2, 148800, Note_on_c, 9, 39, 127
2, 148800, Note_on_c, 9, 42, 127
2, 149039, Note_on_c, 9, 39, 0
2, 149039, Note_on_c, 9, 42, 0
2, 149040, Note_on_c, 9, 42, 127
2, 149040, Note_on_c, 9, 36, 127
2, 149279, Note_on_c, 9, 42, 0
2, 149279, Note_on_c, 9, 36, 0
2, 149280, Note_on_c, 9, 42, 127
2, 149519, Note_on_c, 9, 42, 0
2, 149520, Note_on_c, 9, 38, 127
2, 149520, Note_on_c, 9, 39, 127
2, 149520, Note_on_c, 9, 42, 127
2, 149759, Note_on_c, 9, 38, 0
2, 149759, Note_on_c, 9, 39, 0
2, 149759, Note_on_c, 9, 42, 0
2, 149760, Note_on_c, 9, 38, 127
2, 149999, Note_on_c, 9, 38, 0
2, 150000, Note_on_c, 9, 42, 127
2, 150000, Note_on_c, 9, 36, 127
2, 150239, Note_on_c, 9, 42, 0
2, 150239, Note_on_c, 9, 36, 0
2, 150240, Note_on_c, 9, 42, 127
2, 150479, Note_on_c, 9, 42, 0
2, 150480, Note_on_c, 9, 38, 127
2, 150480, Note_on_c, 9, 39, 127
2, 150480, Note_on_c, 9, 42, 127
2, 150719, Note_on_c, 9, 38, 0
2, 150719, Note_on_c, 9, 39, 0
2, 150719, Note_on_c, 9, 42, 0
2, 150720, Note_on_c, 9, 38, 127
2, 150720, Note_on_c, 9, 39, 127
2, 150720, Note_on_c, 9, 42, 127
2, 150959, Note_on_c, 9, 38, 0
2, 150959, Note_on_c, 9, 39, 0
2, 150959, Note_on_c, 9, 42, 0
2, 150960, Note_on_c, 9, 42, 127
2, 150960, Note_on_c, 9, 36, 127
2, 151199, Note_on_c, 9, 42, 0
2, 151199, Note_on_c, 9, 36, 0
2, 151200, Note_on_c, 9, 42, 127
2, 151439, Note_on_c, 9, 42, 0
2, 151440, Note_on_c, 9, 38, 127
2, 151440, Note_on_c, 9, 39, 127
2, 151440, Note_on_c, 9, 42, 127
2, 151679, Note_on_c, 9, 38, 0
2, 151679, Note_on_c, 9, 39, 0
2, 151679, Note_on_c, 9, 42, 0
2, 151920, Note_on_c, 9, 42, 127
2, 151920, Note_on_c, 9, 36, 127
2, 152159, Note_on_c, 9, 42, 0
2, 152159, Note_on_c, 9, 36, 0
2, 152160, Note_on_c, 9, 42, 127
2, 152399, Note_on_c, 9, 42, 0
2, 152400, Note_on_c, 9, 38, 127
2, 152400, Note_on_c, 9, 39, 127
2, 152400, Note_on_c, 9, 42, 127
2, 152639, Note_on_c, 9, 38, 0
2, 152639, Note_on_c, 9, 39, 0
2, 152639, Note_on_c, 9, 42, 0
2, 152640, Note_on_c, 9, 39, 127
2, 152640, Note_on_c, 9, 42, 127
2, 152879, Note_on_c, 9, 39, 0
2, 152879, Note_on_c, 9, 42, 0
2, 152880, Note_on_c, 9, 42, 127
2, 152880, Note_on_c, 9, 36, 127
2, 153119, Note_on_c, 9, 42, 0
2, 153119, Note_on_c, 9, 36, 0
2, 153120, Note_on_c, 9, 42, 127
2, 153359, Note_on_c, 9, 42, 0
2, 153360, Note_on_c, 9, 38, 127
2, 153360, Note_on_c, 9, 39, 127
2, 153360, Note_on_c, 9, 42, 127
2, 153599, Note_on_c, 9, 38, 0
2, 153599, Note_on_c, 9, 39, 0
2, 153599, Note_on_c, 9, 42, 0
2, 153600, Note_on_c, 9, 38, 127
2, 153839, Note_on_c, 9, 38, 0
2, 153840, Note_on_c, 9, 42, 127
2, 153840, Note_on_c, 9, 36, 127
2, 154079, Note_on_c, 9, 42, 0
2, 154079, Note_on_c, 9, 36, 0
2, 154080, Note_on_c, 9, 42, 127
2, 154319, Note_on_c, 9, 42, 0
2, 154320, Note_on_c, 9, 38, 127
2, 154320, Note_on_c, 9, 39, 127
2, 154320, Note_on_c, 9, 42, 127
2, 154559, Note_on_c, 9, 38, 0
2, 154559, Note_on_c, 9, 39, 0
2, 154559, Note_on_c, 9, 42, 0
2, 154560, Note_on_c, 9, 38, 127
2, 154560, Note_on_c, 9, 39, 127
2, 154560, Note_on_c, 9, 42, 127
2, 154799, Note_on_c, 9, 38, 0
2, 154799, Note_on_c, 9, 39, 0
2, 154799, Note_on_c, 9, 42, 0
2, 154800, Note_on_c, 9, 42, 127
2, 154800, Note_on_c, 9, 36, 127
2, 155039, Note_on_c, 9, 42, 0
2, 155039, Note_on_c, 9, 36, 0
2, 155040, Note_on_c, 9, 42, 127
2, 155279, Note_on_c, 9, 42, 0
2, 155280, Note_on_c, 9, 38, 127
2, 155280, Note_on_c, 9, 39, 127
2, 155280, Note_on_c, 9, 42, 127
2, 155519, Note_on_c, 9, 38, 0
2, 155519, Note_on_c, 9, 39, 0
2, 155519, Note_on_c, 9, 42, 0
2, 155760, Note_on_c, 9, 42, 127
2, 155760, Note_on_c, 9, 36, 127
2, 155999, Note_on_c, 9, 42, 0
2, 155999, Note_on_c, 9, 36, 0
2, 156000, Note_on_c, 9, 42, 127
2, 156239, Note_on_c, 9, 42, 0
2, 156240, Note_on_c, 9, 38, 127
2, 156240, Note_on_c, 9, 39, 127
2, 156240, Note_on_c, 9, 42, 127
2, 156479, Note_on_c, 9, 38, 0
2, 156479, Note_on_c, 9, 39, 0
2, 156479, Note_on_c, 9, 42, 0
2, 156480, Note_on_c, 9, 39, 127
2, 156480, Note_on_c, 9, 42, 127
2, 156719, Note_on_c, 9, 39, 0
2, 156719, Note_on_c, 9, 42, 0
2, 156720, Note_on_c, 9, 42, 127
2, 156720, Note_on_c, 9, 36, 127
2, 156959, Note_on_c, 9, 42, 0
2, 156959, Note_on_c, 9, 36, 0
2, 156960, Note_on_c, 9, 42, 127
2, 157199, Note_on_c, 9, 42, 0
2, 157200, Note_on_c, 9, 38, 127
2, 157200, Note_on_c, 9, 39, 127
2, 157200, Note_on_c, 9, 42, 127
2, 157439, Note_on_c, 9, 38, 0
2, 157439, Note_on_c, 9, 39, 0
2, 157439, Note_on_c, 9, 42, 0
2, 157440, Note_on_c, 9, 38, 127
2, 157679, Note_on_c, 9, 38, 0
2, 157680, Note_on_c, 9, 42, 127
2, 157680, Note_on_c, 9, 36, 127
2, 157919, Note_on_c, 9, 42, 0
2, 157919, Note_on_c, 9, 36, 0
2, 157920, Note_on_c, 9, 42, 127
2, 158159, Note_on_c, 9, 42, 0
2, 158160, Note_on_c, 9, 38, 127
2, 158160, Note_on_c, 9, 39, 127
2, 158160, Note_on_c, 9, 42, 127
2, 158399, Note_on_c, 9, 38, 0
2, 158399, Note_on_c, 9, 39, 0
2, 158399, Note_on_c, 9, 42, 0
2, 158400, Note_on_c, 9, 38, 127
2, 158400, Note_on_c, 9, 39, 127
2, 158400, Note_on_c, 9, 42, 127
2, 158639, Note_on_c, 9, 38, 0
2, 158639, Note_on_c, 9, 39, 0
2, 158639, Note_on_c, 9, 42, 0
2, 158640, Note_on_c, 9, 42, 127
2, 158640, Note_on_c, 9, 36, 127
2, 158879, Note_on_c, 9, 42, 0
2, 158879, Note_on_c, 9, 36, 0
2, 158880, Note_on_c, 9, 42, 127
2, 159119, Note_on_c, 9, 42, 0
2, 159120, Note_on_c, 9, 38, 127
2, 159120, Note_on_c, 9, 39, 127
2, 159120, Note_on_c, 9, 42, 127
2, 159359, Note_on_c, 9, 38, 0
2, 159359, Note_on_c, 9, 39, 0
2, 159359, Note_on_c, 9, 42, 0
2, 159600, Note_on_c, 9, 42, 127
2, 159600, Note_on_c, 9, 36, 127
2, 159839, Note_on_c, 9, 42, 0
2, 159839, Note_on_c, 9, 36, 0
2, 159840, Note_on_c, 9, 42, 127
2, 160079, Note_on_c, 9, 42, 0
2, 160080, Note_on_c, 9, 38, 127
2, 160080, Note_on_c, 9, 39, 127
2, 160080, Note_on_c, 9, 42, 127
2, 160319, Note_on_c, 9, 38, 0
2, 160319, Note_on_c, 9, 39, 0
2, 160319, Note_on_c, 9, 42, 0
2, 160320, Note_on_c, 9, 39, 127
2, 160320, Note_on_c, 9, 42, 127
2, 160559, Note_on_c, 9, 39, 0
2, 160559, Note_on_c, 9, 42, 0
2, 160560, Note_on_c, 9, 42, 127
2, 160560, Note_on_c, 9, 36, 127
2, 160799, Note_on_c, 9, 42, 0
2, 160799, Note_on_c, 9, 36, 0
2, 160800, Note_on_c, 9, 42, 127
2, 161039, Note_on_c, 9, 42, 0
2, 161040, Note_on_c, 9, 38, 127
2, 161040, Note_on_c, 9, 39, 127
2, 161040, Note_on_c, 9, 42, 127
2, 161279, Note_on_c, 9, 38, 0
2, 161279, Note_on_c, 9, 39, 0
2, 161279, Note_on_c, 9, 42, 0
2, 161280, Note_on_c, 9, 38, 127
2, 161519, Note_on_c, 9, 38, 0
2, 161520, Note_on_c, 9, 42, 127
2, 161520, Note_on_c, 9, 36, 127
2, 161759, Note_on_c, 9, 42, 0
2, 161759, Note_on_c, 9, 36, 0
2, 161760, Note_on_c, 9, 42, 127
2, 161999, Note_on_c, 9, 42, 0
2, 162000, Note_on_c, 9, 38, 127
2, 162000, Note_on_c, 9, 39, 127
2, 162000, Note_on_c, 9, 42, 127
2, 162239, Note_on_c, 9, 38, 0
2, 162239, Note_on_c, 9, 39, 0
2, 162239, Note_on_c, 9, 42, 0
2, 162240, Note_on_c, 9, 38, 127
2, 162240, Note_on_c, 9, 39, 127
2, 162240, Note_on_c, 9, 42, 127
2, 162479, Note_on_c, 9, 38, 0
2, 162479, Note_on_c, 9, 39, 0
2, 162479, Note_on_c, 9, 42, 0
2, 162480, Note_on_c, 9, 42, 127
2, 162480, Note_on_c, 9, 36, 127
2, 162719, Note_on_c, 9, 42, 0
2, 162719, Note_on_c, 9, 36, 0
2, 162720, Note_on_c, 9, 42, 127
2, 162959, Note_on_c, 9, 42, 0
2, 162960, Note_on_c, 9, 38, 127
2, 162960, Note_on_c, 9, 39, 127
2, 162960, Note_on_c, 9, 42, 127
2, 163199, Note_on_c, 9, 38, 0
2, 163199, Note_on_c, 9, 39, 0
2, 163199, Note_on_c, 9, 42, 0
2, 163440, Note_on_c, 9, 42, 127
2, 163440, Note_on_c, 9, 36, 127
2, 163679, Note_on_c, 9, 42, 0
2, 163679, Note_on_c, 9, 36, 0
2, 163680, Note_on_c, 9, 42, 127
2, 163919, Note_on_c, 9, 42, 0
2, 163920, Note_on_c, 9, 38, 127
2, 163920, Note_on_c, 9, 39, 127
2, 163920, Note_on_c, 9, 42, 127
2, 164159, Note_on_c, 9, 38, 0
2, 164159, Note_on_c, 9, 39, 0
2, 164159, Note_on_c, 9, 42, 0
2, 164160, Note_on_c, 9, 39, 127
2, 164160, Note_on_c, 9, 42, 127
2, 164399, Note_on_c, 9, 39, 0
2, 164399, Note_on_c, 9, 42, 0
2, 164400, Note_on_c, 9, 42, 127
2, 164400, Note_on_c, 9, 36, 127
2, 164639, Note_on_c, 9, 42, 0
2, 164639, Note_on_c, 9, 36, 0
2, 164640, Note_on_c, 9, 42, 127
2, 164879, Note_on_c, 9, 42, 0
2, 164880, Note_on_c, 9, 38, 127
2, 164880, Note_on_c, 9, 39, 127
2, 164880, Note_on_c, 9, 42, 127
2, 165119, Note_on_c, 9, 38, 0
2, 165119, Note_on_c, 9, 39, 0
2, 165119, Note_on_c, 9, 42, 0
2, 165120, Note_on_c, 9, 38, 127
2, 165359, Note_on_c, 9, 38, 0
2, 165360, Note_on_c, 9, 42, 127
2, 165360, Note_on_c, 9, 36, 127
2, 165599, Note_on_c, 9, 42, 0
2, 165599, Note_on_c, 9, 36, 0
2, 165600, Note_on_c, 9, 42, 127
2, 165839, Note_on_c, 9, 42, 0
2, 165840, Note_on_c, 9, 38, 127
2, 165840, Note_on_c, 9, 39, 127
2, 165840, Note_on_c, 9, 42, 127
2, 166079, Note_on_c, 9, 38, 0
2, 166079, Note_on_c, 9, 39, 0
2, 166079, Note_on_c, 9, 42, 0
2, 166080, Note_on_c, 9, 38, 127
2, 166080, Note_on_c, 9, 39, 127
2, 166080, Note_on_c, 9, 42, 127
2, 166319, Note_on_c, 9, 38, 0
2, 166319, Note_on_c, 9, 39, 0
2, 166319, Note_on_c, 9, 42, 0
2, 166320, Note_on_c, 9, 42, 127
2, 166320, Note_on_c, 9, 36, 127
2, 166559, Note_on_c, 9, 42, 0
2, 166559, Note_on_c, 9, 36, 0
2, 166560, Note_on_c, 9, 42, 127
2, 166799, Note_on_c, 9, 42, 0
2, 166800, Note_on_c, 9, 38, 127
2, 166800, Note_on_c, 9, 39, 127
2, 166800, Note_on_c, 9, 42, 127
2, 167039, Note_on_c, 9, 38, 0
2, 167039, Note_on_c, 9, 39, 0
2, 167039, Note_on_c, 9, 42, 0
2, 167280, Note_on_c, 9, 42, 127
2, 167280, Note_on_c, 9, 36, 127
2, 167519, Note_on_c, 9, 42, 0
2, 167519, Note_on_c, 9, 36, 0
2, 167520, Note_on_c, 9, 42, 127
2, 167759, Note_on_c, 9, 42, 0
2, 167760, Note_on_c, 9, 38, 127
2, 167760, Note_on_c, 9, 39, 127
2, 167760, Note_on_c, 9, 42, 127
2, 167999, Note_on_c, 9, 38, 0
2, 167999, Note_on_c, 9, 39, 0
2, 167999, Note_on_c, 9, 42, 0
2, 168000, Note_on_c, 9, 39, 127
2, 168000, Note_on_c, 9, 42, 127
2, 168239, Note_on_c, 9, 39, 0
2, 168239, Note_on_c, 9, 42, 0
2, 168240, Note_on_c, 9, 42, 127
2, 168240, Note_on_c, 9, 36, 127
2, 168479, Note_on_c, 9, 42, 0
2, 168479, Note_on_c, 9, 36, 0
2, 168480, Note_on_c, 9, 42, 127
2, 168719, Note_on_c, 9, 42, 0
2, 168720, Note_on_c, 9, 38, 127
2, 168720, Note_on_c, 9, 39, 127
2, 168720, Note_on_c, 9, 42, 127
2, 168959, Note_on_c, 9, 38, 0
2, 168959, Note_on_c, 9, 39, 0
2, 168959, Note_on_c, 9, 42, 0
2, 168960, Note_on_c, 9, 38, 127
2, 169199, Note_on_c, 9, 38, 0
2, 169200, Note_on_c, 9, 42, 127
2, 169200, Note_on_c, 9, 36, 127
2, 169439, Note_on_c, 9, 42, 0
2, 169439, Note_on_c, 9, 36, 0
2, 169440, Note_on_c, 9, 42, 127
2, 169679, Note_on_c, 9, 42, 0
2, 169680, Note_on_c, 9, 38, 127
2, 169680, Note_on_c, 9, 39, 127
2, 169680, Note_on_c, 9, 42, 127
2, 169919, Note_on_c, 9, 38, 0
2, 169919, Note_on_c, 9, 39, 0
2, 169919, Note_on_c, 9, 42, 0
2, 169920, Note_on_c, 9, 38, 127
2, 169920, Note_on_c, 9, 39, 127
2, 169920, Note_on_c, 9, 42, 127
2, 170159, Note_on_c, 9, 38, 0
2, 170159, Note_on_c, 9, 39, 0
2, 170159, Note_on_c, 9, 42, 0
2, 170160, Note_on_c, 9, 42, 127
2, 170160, Note_on_c, 9, 36, 127
2, 170399, Note_on_c, 9, 42, 0
2, 170399, Note_on_c, 9, 36, 0
2, 170400, Note_on_c, 9, 42, 127
2, 170639, Note_on_c, 9, 42, 0
2, 170640, Note_on_c, 9, 38, 127
2, 170640, Note_on_c, 9, 39, 127
2, 170640, Note_on_c, 9, 42, 127
2, 170879, Note_on_c, 9, 38, 0
2, 170879, Note_on_c, 9, 39, 0
2, 170879, Note_on_c, 9, 42, 0
2, 171120, Note_on_c, 9, 42, 127
2, 171120, Note_on_c, 9, 36, 127
2, 171359, Note_on_c, 9, 42, 0
2, 171359, Note_on_c, 9, 36, 0
2, 171360, Note_on_c, 9, 42, 127
2, 171599, Note_on_c, 9, 42, 0
2, 171600, Note_on_c, 9, 38, 127
2, 171600, Note_on_c, 9, 39, 127
2, 171600, Note_on_c, 9, 42, 127
2, 171839, Note_on_c, 9, 38, 0
2, 171839, Note_on_c, 9, 39, 0
2, 171839, Note_on_c, 9, 42, 0
2, 171840, Note_on_c, 9, 39, 127
2, 171840, Note_on_c, 9, 42, 127
2, 172079, Note_on_c, 9, 39, 0
2, 172079, Note_on_c, 9, 42, 0
2, 172080, Note_on_c, 9, 42, 127
2, 172080, Note_on_c, 9, 36, 127
2, 172319, Note_on_c, 9, 42, 0
2, 172319, Note_on_c, 9, 36, 0
2, 172320, Note_on_c, 9, 42, 127
2, 172559, Note_on_c, 9, 42, 0
2, 172560, Note_on_c, 9, 38, 127
2, 172560, Note_on_c, 9, 39, 127
2, 172560, Note_on_c, 9, 42, 127
2, 172799, Note_on_c, 9, 38, 0
2, 172799, Note_on_c, 9, 39, 0
2, 172799, Note_on_c, 9, 42, 0
2, 172800, Note_on_c, 9, 38, 127
2, 173039, Note_on_c, 9, 38, 0
2, 173040, Note_on_c, 9, 42, 127
2, 173040, Note_on_c, 9, 36, 127
2, 173279, Note_on_c, 9, 42, 0
2, 173279, Note_on_c, 9, 36, 0
2, 173280, Note_on_c, 9, 42, 127
2, 173519, Note_on_c, 9, 42, 0
2, 173520, Note_on_c, 9, 38, 127
2, 173520, Note_on_c, 9, 39, 127
2, 173520, Note_on_c, 9, 42, 127
2, 173759, Note_on_c, 9, 38, 0
2, 173759, Note_on_c, 9, 39, 0
2, 173759, Note_on_c, 9, 42, 0
2, 173760, Note_on_c, 9, 38, 127
2, 173760, Note_on_c, 9, 39, 127
2, 173760, Note_on_c, 9, 42, 127
2, 173999, Note_on_c, 9, 38, 0
2, 173999, Note_on_c, 9, 39, 0
2, 173999, Note_on_c, 9, 42, 0
2, 174000, Note_on_c, 9, 42, 127
2, 174000, Note_on_c, 9, 36, 127
2, 174239, Note_on_c, 9, 42, 0
2, 174239, Note_on_c, 9, 36, 0
2, 174240, Note_on_c, 9, 42, 127
2, 174479, Note_on_c, 9, 42, 0
2, 174480, Note_on_c, 9, 38, 127
2, 174480, Note_on_c, 9, 39, 127
2, 174480, Note_on_c, 9, 42, 127
2, 174719, Note_on_c, 9, 38, 0
2, 174719, Note_on_c, 9, 39, 0
2, 174719, Note_on_c, 9, 42, 0
2, 174960, Note_on_c, 9, 42, 127
2, 174960, Note_on_c, 9, 36, 127
2, 175199, Note_on_c, 9, 42, 0
2, 175199, Note_on_c, 9, 36, 0
2, 175200, Note_on_c, 9, 42, 127
2, 175439, Note_on_c, 9, 42, 0
2, 175440, Note_on_c, 9, 38, 127
2, 175440, Note_on_c, 9, 39, 127
2, 175440, Note_on_c, 9, 42, 127
2, 175679, Note_on_c, 9, 38, 0
2, 175679, Note_on_c, 9, 39, 0
2, 175679, Note_on_c, 9, 42, 0
2, 175680, Note_on_c, 9, 39, 127
2, 175680, Note_on_c, 9, 42, 127
2, 175919, Note_on_c, 9, 39, 0
2, 175919, Note_on_c, 9, 42, 0
2, 175920, Note_on_c, 9, 42, 127
2, 175920, Note_on_c, 9, 36, 127
2, 176159, Note_on_c, 9, 42, 0
2, 176159, Note_on_c, 9, 36, 0
2, 176160, Note_on_c, 9, 42, 127
2, 176160, Note_on_c, 9, 36, 127
2, 176279, Note_on_c, 9, 36, 0
2, 176280, Note_on_c, 9, 36, 127
2, 176399, Note_on_c, 9, 42, 0
2, 176400, Note_on_c, 9, 38, 127
2, 176400, Note_on_c, 9, 39, 127
2, 176400, Note_on_c, 9, 42, 127
2, 176639, Note_on_c, 9, 36, 0
2, 176639, Note_on_c, 9, 38, 0
2, 176639, Note_on_c, 9, 39, 0
2, 176639, Note_on_c, 9, 42, 0
2, 176640, Note_on_c, 9, 38, 127
2, 176879, Note_on_c, 9, 38, 0
2, 176880, Note_on_c, 9, 42, 127
2, 176880, Note_on_c, 9, 36, 127
2, 177119, Note_on_c, 9, 42, 0
2, 177119, Note_on_c, 9, 36, 0
2, 177120, Note_on_c, 9, 42, 127
2, 177359, Note_on_c, 9, 42, 0
2, 177360, Note_on_c, 9, 38, 127
2, 177360, Note_on_c, 9, 39, 127
2, 177360, Note_on_c, 9, 42, 127
2, 177599, Note_on_c, 9, 38, 0
2, 177599, Note_on_c, 9, 39, 0
2, 177599, Note_on_c, 9, 42, 0
2, 177600, Note_on_c, 9, 38, 127
2, 177600, Note_on_c, 9, 39, 127
2, 177600, Note_on_c, 9, 42, 127
2, 177839, Note_on_c, 9, 38, 0
2, 177839, Note_on_c, 9, 39, 0
2, 177839, Note_on_c, 9, 42, 0
2, 177840, Note_on_c, 9, 42, 127
2, 177840, Note_on_c, 9, 36, 127
2, 178079, Note_on_c, 9, 42, 0
2, 178079, Note_on_c, 9, 36, 0
2, 178080, Note_on_c, 9, 42, 127
2, 178319, Note_on_c, 9, 42, 0
2, 178320, Note_on_c, 9, 38, 127
2, 178320, Note_on_c, 9, 39, 127
2, 178320, Note_on_c, 9, 42, 127
2, 178559, Note_on_c, 9, 38, 0
2, 178559, Note_on_c, 9, 39, 0
2, 178559, Note_on_c, 9, 42, 0
2, 178800, Note_on_c, 9, 42, 127
2, 178800, Note_on_c, 9, 36, 127
2, 179039, Note_on_c, 9, 42, 0
2, 179039, Note_on_c, 9, 36, 0
2, 179040, Note_on_c, 9, 42, 127
2, 179279, Note_on_c, 9, 42, 0
2, 179280, Note_on_c, 9, 38, 127
2, 179280, Note_on_c, 9, 39, 127
2, 179280, Note_on_c, 9, 42, 127
2, 179519, Note_on_c, 9, 38, 0
2, 179519, Note_on_c, 9, 39, 0
2, 179519, Note_on_c, 9, 42, 0
2, 179520, Note_on_c, 9, 39, 127
2, 179520, Note_on_c, 9, 42, 127
2, 179759, Note_on_c, 9, 39, 0
2, 179759, Note_on_c, 9, 42, 0
2, 179760, Note_on_c, 9, 42, 127
2, 179760, Note_on_c, 9, 36, 127
2, 179999, Note_on_c, 9, 42, 0
2, 179999, Note_on_c, 9, 36, 0
2, 180000, Note_on_c, 9, 42, 127
2, 180239, Note_on_c, 9, 42, 0
2, 180240, Note_on_c, 9, 38, 127
2, 180240, Note_on_c, 9, 39, 127
2, 180240, Note_on_c, 9, 42, 127
2, 180479, Note_on_c, 9, 38, 0
2, 180479, Note_on_c, 9, 39, 0
2, 180479, Note_on_c, 9, 42, 0
2, 180480, Note_on_c, 9, 38, 127
2, 180719, Note_on_c, 9, 38, 0
2, 180720, Note_on_c, 9, 42, 127
2, 180720, Note_on_c, 9, 36, 127
2, 180959, Note_on_c, 9, 42, 0
2, 180959, Note_on_c, 9, 36, 0
2, 180960, Note_on_c, 9, 42, 127
2, 181199, Note_on_c, 9, 42, 0
2, 181200, Note_on_c, 9, 38, 127
2, 181200, Note_on_c, 9, 39, 127
2, 181200, Note_on_c, 9, 42, 127
2, 181439, Note_on_c, 9, 38, 0
2, 181439, Note_on_c, 9, 39, 0
2, 181439, Note_on_c, 9, 42, 0
2, 181440, Note_on_c, 9, 38, 127
2, 181440, Note_on_c, 9, 39, 127
2, 181440, Note_on_c, 9, 42, 127
2, 181679, Note_on_c, 9, 38, 0
2, 181679, Note_on_c, 9, 39, 0
2, 181679, Note_on_c, 9, 42, 0
2, 181680, Note_on_c, 9, 42, 127
2, 181680, Note_on_c, 9, 36, 127
2, 181919, Note_on_c, 9, 42, 0
2, 181919, Note_on_c, 9, 36, 0
2, 181920, Note_on_c, 9, 42, 127
2, 182159, Note_on_c, 9, 42, 0
2, 182160, Note_on_c, 9, 38, 127
2, 182160, Note_on_c, 9, 39, 127
2, 182160, Note_on_c, 9, 42, 127
2, 182399, Note_on_c, 9, 38, 0
2, 182399, Note_on_c, 9, 39, 0
2, 182399, Note_on_c, 9, 42, 0
2, 182640, Note_on_c, 9, 42, 127
2, 182640, Note_on_c, 9, 36, 127
2, 182879, Note_on_c, 9, 42, 0
2, 182879, Note_on_c, 9, 36, 0
2, 182880, Note_on_c, 9, 42, 127
2, 183119, Note_on_c, 9, 42, 0
2, 183120, Note_on_c, 9, 38, 127
2, 183120, Note_on_c, 9, 39, 127
2, 183120, Note_on_c, 9, 42, 127
2, 183359, Note_on_c, 9, 38, 0
2, 183359, Note_on_c, 9, 39, 0
2, 183359, Note_on_c, 9, 42, 0
2, 183360, Note_on_c, 9, 39, 127
2, 183360, Note_on_c, 9, 42, 127
2, 183599, Note_on_c, 9, 39, 0
2, 183599, Note_on_c, 9, 42, 0
2, 183600, Note_on_c, 9, 42, 127
2, 183600, Note_on_c, 9, 36, 127
2, 183839, Note_on_c, 9, 42, 0
2, 183839, Note_on_c, 9, 36, 0
2, 183840, Note_on_c, 9, 42, 127
2, 184079, Note_on_c, 9, 42, 0
2, 184080, Note_on_c, 9, 38, 127
2, 184080, Note_on_c, 9, 39, 127
2, 184080, Note_on_c, 9, 42, 127
2, 184319, Note_on_c, 9, 38, 0
2, 184319, Note_on_c, 9, 39, 0
2, 184319, Note_on_c, 9, 42, 0
2, 184320, Note_on_c, 9, 38, 127
2, 184799, Note_on_c, 9, 38, 0
2, 184800, End_track
0, 0, End_of_file
