0, 0, Header, 1, 1, 480
1, 0, Start_track
1, 0, Time_signature, 4, 2, 24, 8
1, 0, Key_signature, 0, "major"
1, 0, Tempo, 307692
1, 0, Control_c, 9, 121, 0
1, 0, Program_c, 9, 0
1, 0, Control_c, 9, 7, 127
1, 0, Control_c, 9, 10, 64
1, 0, Control_c, 9, 91, 0
1, 0, Control_c, 9, 93, 0
1, 0, MIDI_port, 0
1, 0, Note_on_c, 9, 37, 84
1, 479, Note_on_c, 9, 37, 0
1, 960, Note_on_c, 9, 37, 84
1, 1439, Note_on_c, 9, 37, 0
1, 1920, Note_on_c, 9, 37, 64
1, 2399, Note_on_c, 9, 37, 0
1, 2400, Note_on_c, 9, 37, 84
1, 2879, Note_on_c, 9, 37, 0
1, 2880, Note_on_c, 9, 37, 64
1, 3359, Note_on_c, 9, 37, 0
1, 3360, Note_on_c, 9, 37, 84
1, 3839, Note_on_c, 9, 37, 0
1, 3840, Note_on_c, 9, 42, 90
1, 3840, Note_on_c, 9, 49, 100
1, 3840, Note_on_c, 9, 35, 90
1, 4319, Note_on_c, 9, 42, 0
1, 4319, Note_on_c, 9, 49, 0
1, 4319, Note_on_c, 9, 35, 0
1, 4320, Note_on_c, 9, 37, 100
1, 4320, Note_on_c, 9, 54, 100
1, 4320, Note_on_c, 9, 42, 100
1, 4559, Note_on_c, 9, 37, 0
1, 4559, Note_on_c, 9, 54, 0
1, 4559, Note_on_c, 9, 42, 0
1, 4640, Note_on_c, 9, 42, 50
1, 4640, Note_on_c, 9, 35, 70
1, 4799, Note_on_c, 9, 42, 0
1, 4799, Note_on_c, 9, 35, 0
1, 4800, Note_on_c, 9, 42, 80
1, 4800, Note_on_c, 9, 35, 90
1, 5039, Note_on_c, 9, 42, 0
1, 5120, Note_on_c, 9, 42, 60
1, 5279, Note_on_c, 9, 35, 0
1, 5279, Note_on_c, 9, 42, 0
1, 5280, Note_on_c, 9, 37, 100
1, 5280, Note_on_c, 9, 54, 100
1, 5280, Note_on_c, 9, 39, 60
1, 5280, Note_on_c, 9, 42, 100
1, 5519, Note_on_c, 9, 37, 0
1, 5519, Note_on_c, 9, 54, 0
1, 5519, Note_on_c, 9, 39, 0
1, 5519, Note_on_c, 9, 42, 0
1, 5600, Note_on_c, 9, 42, 50
1, 5759, Note_on_c, 9, 42, 0
1, 5760, Note_on_c, 9, 42, 90
1, 5760, Note_on_c, 9, 35, 90
1, 6239, Note_on_c, 9, 42, 0
1, 6239, Note_on_c, 9, 35, 0
1, 6240, Note_on_c, 9, 37, 100
1, 6240, Note_on_c, 9, 54, 100
1, 6240, Note_on_c, 9, 42, 100
1, 6479, Note_on_c, 9, 37, 0
1, 6479, Note_on_c, 9, 54, 0
1, 6479, Note_on_c, 9, 42, 0
1, 6560, Note_on_c, 9, 42, 50
1, 6560, Note_on_c, 9, 35, 70
1, 6719, Note_on_c, 9, 42, 0
1, 6719, Note_on_c, 9, 35, 0
1, 6720, Note_on_c, 9, 42, 80
1, 6720, Note_on_c, 9, 35, 90
1, 6959, Note_on_c, 9, 42, 0
1, 7040, Note_on_c, 9, 42, 60
1, 7199, Note_on_c, 9, 35, 0
1, 7199, Note_on_c, 9, 42, 0
1, 7200, Note_on_c, 9, 37, 100
1, 7200, Note_on_c, 9, 54, 100
1, 7200, Note_on_c, 9, 39, 60
1, 7200, Note_on_c, 9, 42, 100
1, 7439, Note_on_c, 9, 37, 0
1, 7439, Note_on_c, 9, 54, 0
1, 7439, Note_on_c, 9, 39, 0
1, 7439, Note_on_c, 9, 42, 0
1, 7520, Note_on_c, 9, 42, 50
1, 7679, Note_on_c, 9, 42, 0
1, 7680, Note_on_c, 9, 42, 90
1, 7680, Note_on_c, 9, 35, 90
1, 8159, Note_on_c, 9, 42, 0
1, 8159, Note_on_c, 9, 35, 0
1, 8160, Note_on_c, 9, 37, 100
1, 8160, Note_on_c, 9, 54, 100
1, 8160, Note_on_c, 9, 42, 100
1, 8399, Note_on_c, 9, 37, 0
1, 8399, Note_on_c, 9, 54, 0
1, 8399, Note_on_c, 9, 42, 0
1, 8480, Note_on_c, 9, 42, 50
1, 8480, Note_on_c, 9, 35, 70
1, 8639, Note_on_c, 9, 42, 0
1, 8639, Note_on_c, 9, 35, 0
1, 8640, Note_on_c, 9, 42, 80
1, 8640, Note_on_c, 9, 35, 90
1, 8879, Note_on_c, 9, 42, 0
1, 8960, Note_on_c, 9, 42, 60
1, 9119, Note_on_c, 9, 35, 0
1, 9119, Note_on_c, 9, 42, 0
1, 9120, Note_on_c, 9, 37, 100
1, 9120, Note_on_c, 9, 54, 100
1, 9120, Note_on_c, 9, 39, 60
1, 9120, Note_on_c, 9, 42, 100
1, 9359, Note_on_c, 9, 37, 0
1, 9359, Note_on_c, 9, 54, 0
1, 9359, Note_on_c, 9, 39, 0
1, 9359, Note_on_c, 9, 42, 0
1, 9440, Note_on_c, 9, 42, 50
1, 9599, Note_on_c, 9, 42, 0
1, 9600, Note_on_c, 9, 42, 90
1, 9600, Note_on_c, 9, 35, 90
1, 9759, Note_on_c, 9, 42, 0
1, 9760, Note_on_c, 9, 38, 10
1, 9919, Note_on_c, 9, 38, 0
1, 9920, Note_on_c, 9, 38, 90
1, 10079, Note_on_c, 9, 35, 0
1, 10079, Note_on_c, 9, 38, 0
1, 10080, Note_on_c, 9, 45, 90
1, 10080, Note_on_c, 9, 54, 100
1, 10319, Note_on_c, 9, 45, 0
1, 10319, Note_on_c, 9, 54, 0
1, 10400, Note_on_c, 9, 49, 90
1, 10400, Note_on_c, 9, 35, 100
1, 10559, Note_on_c, 9, 49, 0
1, 10559, Note_on_c, 9, 35, 0
1, 10720, Note_on_c, 9, 38, 100
1, 10879, Note_on_c, 9, 38, 0
1, 10880, Note_on_c, 9, 38, 50
1, 11039, Note_on_c, 9, 38, 0
1, 11040, Note_on_c, 9, 41, 100
1, 11040, Note_on_c, 9, 54, 100
1, 11040, Note_on_c, 9, 39, 60
1, 11199, Note_on_c, 9, 41, 0
1, 11199, Note_on_c, 9, 54, 0
1, 11199, Note_on_c, 9, 39, 0
1, 11200, Note_on_c, 9, 38, 10
1, 11359, Note_on_c, 9, 38, 0
1, 11360, Note_on_c, 9, 38, 20
1, 11519, Note_on_c, 9, 38, 0
1, 11520, Note_on_c, 9, 42, 90
1, 11520, Note_on_c, 9, 49, 100
1, 11520, Note_on_c, 9, 35, 90
1, 11999, Note_on_c, 9, 42, 0
1, 11999, Note_on_c, 9, 49, 0
1, 11999, Note_on_c, 9, 35, 0
1, 12000, Note_on_c, 9, 37, 100
1, 12000, Note_on_c, 9, 54, 100
1, 12000, Note_on_c, 9, 42, 100
1, 12239, Note_on_c, 9, 37, 0
1, 12239, Note_on_c, 9, 54, 0
1, 12239, Note_on_c, 9, 42, 0
1, 12320, Note_on_c, 9, 42, 50
1, 12320, Note_on_c, 9, 35, 70
1, 12479, Note_on_c, 9, 42, 0
1, 12479, Note_on_c, 9, 35, 0
1, 12480, Note_on_c, 9, 42, 80
1, 12480, Note_on_c, 9, 35, 90
1, 12719, Note_on_c, 9, 42, 0
1, 12800, Note_on_c, 9, 42, 60
1, 12959, Note_on_c, 9, 35, 0
1, 12959, Note_on_c, 9, 42, 0
1, 12960, Note_on_c, 9, 37, 100
1, 12960, Note_on_c, 9, 54, 100
1, 12960, Note_on_c, 9, 39, 60
1, 12960, Note_on_c, 9, 42, 100
1, 13199, Note_on_c, 9, 37, 0
1, 13199, Note_on_c, 9, 54, 0
1, 13199, Note_on_c, 9, 39, 0
1, 13199, Note_on_c, 9, 42, 0
1, 13280, Note_on_c, 9, 42, 50
1, 13439, Note_on_c, 9, 42, 0
1, 13440, Note_on_c, 9, 42, 90
1, 13440, Note_on_c, 9, 35, 90
1, 13919, Note_on_c, 9, 42, 0
1, 13919, Note_on_c, 9, 35, 0
1, 13920, Note_on_c, 9, 37, 100
1, 13920, Note_on_c, 9, 54, 100
1, 13920, Note_on_c, 9, 42, 100
1, 14159, Note_on_c, 9, 37, 0
1, 14159, Note_on_c, 9, 54, 0
1, 14159, Note_on_c, 9, 42, 0
1, 14240, Note_on_c, 9, 42, 50
1, 14240, Note_on_c, 9, 35, 70
1, 14399, Note_on_c, 9, 42, 0
1, 14399, Note_on_c, 9, 35, 0
1, 14400, Note_on_c, 9, 42, 80
1, 14400, Note_on_c, 9, 35, 90
1, 14639, Note_on_c, 9, 42, 0
1, 14720, Note_on_c, 9, 42, 60
1, 14879, Note_on_c, 9, 35, 0
1, 14879, Note_on_c, 9, 42, 0
1, 14880, Note_on_c, 9, 37, 100
1, 14880, Note_on_c, 9, 54, 100
1, 14880, Note_on_c, 9, 39, 60
1, 14880, Note_on_c, 9, 42, 100
1, 15119, Note_on_c, 9, 37, 0
1, 15119, Note_on_c, 9, 54, 0
1, 15119, Note_on_c, 9, 39, 0
1, 15119, Note_on_c, 9, 42, 0
1, 15200, Note_on_c, 9, 42, 50
1, 15359, Note_on_c, 9, 42, 0
1, 15360, Note_on_c, 9, 42, 90
1, 15360, Note_on_c, 9, 35, 90
1, 15839, Note_on_c, 9, 42, 0
1, 15839, Note_on_c, 9, 35, 0
1, 15840, Note_on_c, 9, 37, 100
1, 15840, Note_on_c, 9, 54, 100
1, 15840, Note_on_c, 9, 42, 100
1, 16079, Note_on_c, 9, 37, 0
1, 16079, Note_on_c, 9, 54, 0
1, 16079, Note_on_c, 9, 42, 0
1, 16160, Note_on_c, 9, 42, 50
1, 16160, Note_on_c, 9, 35, 70
1, 16319, Note_on_c, 9, 42, 0
1, 16319, Note_on_c, 9, 35, 0
1, 16320, Note_on_c, 9, 42, 80
1, 16320, Note_on_c, 9, 35, 90
1, 16559, Note_on_c, 9, 42, 0
1, 16640, Note_on_c, 9, 42, 60
1, 16799, Note_on_c, 9, 35, 0
1, 16799, Note_on_c, 9, 42, 0
1, 16800, Note_on_c, 9, 37, 100
1, 16800, Note_on_c, 9, 54, 100
1, 16800, Note_on_c, 9, 39, 60
1, 16800, Note_on_c, 9, 42, 100
1, 17039, Note_on_c, 9, 37, 0
1, 17039, Note_on_c, 9, 54, 0
1, 17039, Note_on_c, 9, 39, 0
1, 17039, Note_on_c, 9, 42, 0
1, 17120, Note_on_c, 9, 42, 50
1, 17279, Note_on_c, 9, 42, 0
1, 17280, Note_on_c, 9, 42, 90
1, 17280, Note_on_c, 9, 35, 90
1, 17759, Note_on_c, 9, 42, 0
1, 17759, Note_on_c, 9, 35, 0
1, 17760, Note_on_c, 9, 37, 100
1, 17760, Note_on_c, 9, 54, 100
1, 17760, Note_on_c, 9, 42, 100
1, 17999, Note_on_c, 9, 37, 0
1, 17999, Note_on_c, 9, 54, 0
1, 17999, Note_on_c, 9, 42, 0
1, 18080, Note_on_c, 9, 42, 50
1, 18080, Note_on_c, 9, 35, 70
1, 18239, Note_on_c, 9, 42, 0
1, 18239, Note_on_c, 9, 35, 0
1, 18240, Note_on_c, 9, 42, 80
1, 18240, Note_on_c, 9, 35, 90
1, 18479, Note_on_c, 9, 42, 0
1, 18560, Note_on_c, 9, 42, 15
1, 18719, Note_on_c, 9, 35, 0
1, 18719, Note_on_c, 9, 42, 0
1, 18720, Note_on_c, 9, 37, 100
1, 18720, Note_on_c, 9, 54, 100
1, 18720, Note_on_c, 9, 39, 60
1, 18720, Note_on_c, 9, 42, 100
1, 18959, Note_on_c, 9, 37, 0
1, 18959, Note_on_c, 9, 54, 0
1, 18959, Note_on_c, 9, 39, 0
1, 18959, Note_on_c, 9, 42, 0
1, 19040, Note_on_c, 9, 46, 72
1, 19199, Note_on_c, 9, 46, 0
1, 19200, Note_on_c, 9, 42, 90
1, 19200, Note_on_c, 9, 35, 90
1, 19679, Note_on_c, 9, 42, 0
1, 19679, Note_on_c, 9, 35, 0
1, 19680, Note_on_c, 9, 37, 100
1, 19680, Note_on_c, 9, 54, 100
1, 19680, Note_on_c, 9, 42, 100
1, 19919, Note_on_c, 9, 37, 0
1, 19919, Note_on_c, 9, 54, 0
1, 19919, Note_on_c, 9, 42, 0
1, 20000, Note_on_c, 9, 42, 50
1, 20000, Note_on_c, 9, 35, 70
1, 20159, Note_on_c, 9, 42, 0
1, 20159, Note_on_c, 9, 35, 0
1, 20160, Note_on_c, 9, 42, 80
1, 20160, Note_on_c, 9, 35, 90
1, 20399, Note_on_c, 9, 42, 0
1, 20480, Note_on_c, 9, 42, 60
1, 20639, Note_on_c, 9, 35, 0
1, 20639, Note_on_c, 9, 42, 0
1, 20640, Note_on_c, 9, 37, 100
1, 20640, Note_on_c, 9, 54, 100
1, 20640, Note_on_c, 9, 39, 60
1, 20640, Note_on_c, 9, 42, 100
1, 20879, Note_on_c, 9, 37, 0
1, 20879, Note_on_c, 9, 54, 0
1, 20879, Note_on_c, 9, 39, 0
1, 20879, Note_on_c, 9, 42, 0
1, 20960, Note_on_c, 9, 42, 50
1, 21119, Note_on_c, 9, 42, 0
1, 21120, Note_on_c, 9, 42, 90
1, 21120, Note_on_c, 9, 35, 90
1, 21599, Note_on_c, 9, 42, 0
1, 21599, Note_on_c, 9, 35, 0
1, 21600, Note_on_c, 9, 37, 100
1, 21600, Note_on_c, 9, 54, 100
1, 21600, Note_on_c, 9, 42, 100
1, 21839, Note_on_c, 9, 37, 0
1, 21839, Note_on_c, 9, 54, 0
1, 21839, Note_on_c, 9, 42, 0
1, 21920, Note_on_c, 9, 42, 50
1, 21920, Note_on_c, 9, 35, 70
1, 22079, Note_on_c, 9, 42, 0
1, 22079, Note_on_c, 9, 35, 0
1, 22080, Note_on_c, 9, 42, 80
1, 22080, Note_on_c, 9, 35, 90
1, 22559, Note_on_c, 9, 42, 0
1, 22559, Note_on_c, 9, 35, 0
1, 22560, Note_on_c, 9, 37, 100
1, 22560, Note_on_c, 9, 54, 100
1, 22560, Note_on_c, 9, 39, 60
1, 22560, Note_on_c, 9, 42, 100
1, 22880, Note_on_c, 9, 35, 60
1, 23039, Note_on_c, 9, 37, 0
1, 23039, Note_on_c, 9, 54, 0
1, 23039, Note_on_c, 9, 39, 0
1, 23039, Note_on_c, 9, 42, 0
1, 23039, Note_on_c, 9, 35, 0
1, 23040, Note_on_c, 9, 42, 90
1, 23040, Note_on_c, 9, 35, 90
1, 23519, Note_on_c, 9, 42, 0
1, 23519, Note_on_c, 9, 35, 0
1, 23520, Note_on_c, 9, 37, 100
1, 23520, Note_on_c, 9, 54, 100
1, 23520, Note_on_c, 9, 42, 100
1, 23759, Note_on_c, 9, 37, 0
1, 23759, Note_on_c, 9, 54, 0
1, 23759, Note_on_c, 9, 42, 0
1, 23840, Note_on_c, 9, 42, 50
1, 23840, Note_on_c, 9, 35, 70
1, 23999, Note_on_c, 9, 42, 0
1, 23999, Note_on_c, 9, 35, 0
1, 24000, Note_on_c, 9, 42, 80
1, 24000, Note_on_c, 9, 35, 90
1, 24239, Note_on_c, 9, 42, 0
1, 24320, Note_on_c, 9, 42, 15
1, 24479, Note_on_c, 9, 35, 0
1, 24479, Note_on_c, 9, 42, 0
1, 24480, Note_on_c, 9, 37, 100
1, 24480, Note_on_c, 9, 54, 100
1, 24480, Note_on_c, 9, 39, 60
1, 24480, Note_on_c, 9, 42, 100
1, 24719, Note_on_c, 9, 37, 0
1, 24719, Note_on_c, 9, 54, 0
1, 24719, Note_on_c, 9, 39, 0
1, 24719, Note_on_c, 9, 42, 0
1, 24800, Note_on_c, 9, 46, 72
1, 24959, Note_on_c, 9, 46, 0
1, 24960, Note_on_c, 9, 42, 90
1, 24960, Note_on_c, 9, 35, 80
1, 25119, Note_on_c, 9, 42, 0
1, 25120, Note_on_c, 9, 42, 40
1, 25279, Note_on_c, 9, 42, 0
1, 25280, Note_on_c, 9, 42, 50
1, 25439, Note_on_c, 9, 35, 0
1, 25439, Note_on_c, 9, 42, 0
1, 25440, Note_on_c, 9, 42, 100
1, 25679, Note_on_c, 9, 42, 0
1, 25760, Note_on_c, 9, 42, 50
1, 25919, Note_on_c, 9, 42, 0
1, 25920, Note_on_c, 9, 42, 100
1, 26079, Note_on_c, 9, 42, 0
1, 26080, Note_on_c, 9, 42, 50
1, 26239, Note_on_c, 9, 42, 0
1, 26240, Note_on_c, 9, 42, 60
1, 26399, Note_on_c, 9, 42, 0
1, 26400, Note_on_c, 9, 42, 115
1, 26559, Note_on_c, 9, 42, 0
1, 26560, Note_on_c, 9, 42, 60
1, 26719, Note_on_c, 9, 42, 0
1, 26720, Note_on_c, 9, 46, 80
1, 26879, Note_on_c, 9, 46, 0
1, 26880, Note_on_c, 9, 42, 90
1, 26880, Note_on_c, 9, 49, 100
1, 26880, Note_on_c, 9, 35, 90
1, 27359, Note_on_c, 9, 42, 0
1, 27359, Note_on_c, 9, 49, 0
1, 27359, Note_on_c, 9, 35, 0
1, 27360, Note_on_c, 9, 37, 100
1, 27360, Note_on_c, 9, 54, 100
1, 27360, Note_on_c, 9, 42, 100
1, 27599, Note_on_c, 9, 37, 0
1, 27599, Note_on_c, 9, 54, 0
1, 27599, Note_on_c, 9, 42, 0
1, 27680, Note_on_c, 9, 42, 50
1, 27680, Note_on_c, 9, 35, 70
1, 27839, Note_on_c, 9, 42, 0
1, 27839, Note_on_c, 9, 35, 0
1, 27840, Note_on_c, 9, 42, 80
1, 27840, Note_on_c, 9, 35, 90
1, 28079, Note_on_c, 9, 42, 0
1, 28160, Note_on_c, 9, 42, 60
1, 28319, Note_on_c, 9, 35, 0
1, 28319, Note_on_c, 9, 42, 0
1, 28320, Note_on_c, 9, 37, 100
1, 28320, Note_on_c, 9, 54, 100
1, 28320, Note_on_c, 9, 39, 60
1, 28320, Note_on_c, 9, 42, 100
1, 28559, Note_on_c, 9, 37, 0
1, 28559, Note_on_c, 9, 54, 0
1, 28559, Note_on_c, 9, 39, 0
1, 28559, Note_on_c, 9, 42, 0
1, 28640, Note_on_c, 9, 42, 50
1, 28799, Note_on_c, 9, 42, 0
1, 28800, Note_on_c, 9, 42, 90
1, 28800, Note_on_c, 9, 35, 90
1, 29279, Note_on_c, 9, 42, 0
1, 29279, Note_on_c, 9, 35, 0
1, 29280, Note_on_c, 9, 37, 100
1, 29280, Note_on_c, 9, 54, 100
1, 29280, Note_on_c, 9, 42, 100
1, 29519, Note_on_c, 9, 37, 0
1, 29519, Note_on_c, 9, 54, 0
1, 29519, Note_on_c, 9, 42, 0
1, 29600, Note_on_c, 9, 42, 50
1, 29600, Note_on_c, 9, 35, 70
1, 29759, Note_on_c, 9, 42, 0
1, 29759, Note_on_c, 9, 35, 0
1, 29760, Note_on_c, 9, 42, 80
1, 29760, Note_on_c, 9, 35, 90
1, 29999, Note_on_c, 9, 42, 0
1, 30080, Note_on_c, 9, 42, 60
1, 30239, Note_on_c, 9, 35, 0
1, 30239, Note_on_c, 9, 42, 0
1, 30240, Note_on_c, 9, 37, 100
1, 30240, Note_on_c, 9, 54, 100
1, 30240, Note_on_c, 9, 39, 60
1, 30240, Note_on_c, 9, 42, 100
1, 30479, Note_on_c, 9, 37, 0
1, 30479, Note_on_c, 9, 54, 0
1, 30479, Note_on_c, 9, 39, 0
1, 30479, Note_on_c, 9, 42, 0
1, 30560, Note_on_c, 9, 42, 50
1, 30719, Note_on_c, 9, 42, 0
1, 30720, Note_on_c, 9, 42, 90
1, 30720, Note_on_c, 9, 35, 90
1, 31199, Note_on_c, 9, 42, 0
1, 31199, Note_on_c, 9, 35, 0
1, 31200, Note_on_c, 9, 37, 100
1, 31200, Note_on_c, 9, 54, 100
1, 31200, Note_on_c, 9, 42, 100
1, 31439, Note_on_c, 9, 37, 0
1, 31439, Note_on_c, 9, 54, 0
1, 31439, Note_on_c, 9, 42, 0
1, 31520, Note_on_c, 9, 42, 50
1, 31520, Note_on_c, 9, 35, 70
1, 31679, Note_on_c, 9, 42, 0
1, 31679, Note_on_c, 9, 35, 0
1, 31680, Note_on_c, 9, 42, 80
1, 31680, Note_on_c, 9, 35, 90
1, 31919, Note_on_c, 9, 42, 0
1, 32000, Note_on_c, 9, 42, 60
1, 32159, Note_on_c, 9, 35, 0
1, 32159, Note_on_c, 9, 42, 0
1, 32160, Note_on_c, 9, 37, 100
1, 32160, Note_on_c, 9, 54, 100
1, 32160, Note_on_c, 9, 39, 60
1, 32160, Note_on_c, 9, 42, 100
1, 32639, Note_on_c, 9, 37, 0
1, 32639, Note_on_c, 9, 54, 0
1, 32639, Note_on_c, 9, 39, 0
1, 32639, Note_on_c, 9, 42, 0
1, 32640, Note_on_c, 9, 42, 90
1, 32640, Note_on_c, 9, 35, 90
1, 32879, Note_on_c, 9, 42, 0
1, 32960, Note_on_c, 9, 42, 40
1, 33119, Note_on_c, 9, 35, 0
1, 33119, Note_on_c, 9, 42, 0
1, 33120, Note_on_c, 9, 37, 100
1, 33120, Note_on_c, 9, 54, 100
1, 33120, Note_on_c, 9, 42, 100
1, 33359, Note_on_c, 9, 37, 0
1, 33359, Note_on_c, 9, 54, 0
1, 33359, Note_on_c, 9, 42, 0
1, 33440, Note_on_c, 9, 42, 50
1, 33440, Note_on_c, 9, 35, 70
1, 33599, Note_on_c, 9, 42, 0
1, 33599, Note_on_c, 9, 35, 0
1, 33600, Note_on_c, 9, 42, 80
1, 33600, Note_on_c, 9, 35, 90
1, 34079, Note_on_c, 9, 42, 0
1, 34079, Note_on_c, 9, 35, 0
1, 34080, Note_on_c, 9, 37, 100
1, 34080, Note_on_c, 9, 54, 100
1, 34080, Note_on_c, 9, 39, 60
1, 34080, Note_on_c, 9, 42, 100
1, 34400, Note_on_c, 9, 35, 60
1, 34559, Note_on_c, 9, 37, 0
1, 34559, Note_on_c, 9, 54, 0
1, 34559, Note_on_c, 9, 39, 0
1, 34559, Note_on_c, 9, 42, 0
1, 34559, Note_on_c, 9, 35, 0
1, 34560, Note_on_c, 9, 42, 90
1, 34560, Note_on_c, 9, 35, 90
1, 35039, Note_on_c, 9, 42, 0
1, 35039, Note_on_c, 9, 35, 0
1, 42240, Note_on_c, 9, 42, 90
1, 42240, Note_on_c, 9, 49, 100
1, 42240, Note_on_c, 9, 35, 90
1, 42719, Note_on_c, 9, 42, 0
1, 42719, Note_on_c, 9, 49, 0
1, 42719, Note_on_c, 9, 35, 0
1, 42720, Note_on_c, 9, 37, 100
1, 42720, Note_on_c, 9, 54, 100
1, 42720, Note_on_c, 9, 42, 100
1, 42959, Note_on_c, 9, 37, 0
1, 42959, Note_on_c, 9, 54, 0
1, 42959, Note_on_c, 9, 42, 0
1, 43040, Note_on_c, 9, 42, 50
1, 43040, Note_on_c, 9, 35, 70
1, 43199, Note_on_c, 9, 42, 0
1, 43199, Note_on_c, 9, 35, 0
1, 43200, Note_on_c, 9, 42, 80
1, 43200, Note_on_c, 9, 35, 90
1, 43439, Note_on_c, 9, 42, 0
1, 43520, Note_on_c, 9, 42, 60
1, 43679, Note_on_c, 9, 35, 0
1, 43679, Note_on_c, 9, 42, 0
1, 43680, Note_on_c, 9, 37, 100
1, 43680, Note_on_c, 9, 54, 100
1, 43680, Note_on_c, 9, 39, 60
1, 43680, Note_on_c, 9, 42, 100
1, 43919, Note_on_c, 9, 37, 0
1, 43919, Note_on_c, 9, 54, 0
1, 43919, Note_on_c, 9, 39, 0
1, 43919, Note_on_c, 9, 42, 0
1, 44000, Note_on_c, 9, 42, 50
1, 44159, Note_on_c, 9, 42, 0
1, 44160, Note_on_c, 9, 42, 90
1, 44160, Note_on_c, 9, 35, 90
1, 44399, Note_on_c, 9, 42, 0
1, 44480, Note_on_c, 9, 42, 40
1, 44639, Note_on_c, 9, 35, 0
1, 44639, Note_on_c, 9, 42, 0
1, 44640, Note_on_c, 9, 37, 100
1, 44640, Note_on_c, 9, 54, 100
1, 44640, Note_on_c, 9, 42, 100
1, 44879, Note_on_c, 9, 37, 0
1, 44879, Note_on_c, 9, 54, 0
1, 44879, Note_on_c, 9, 42, 0
1, 44960, Note_on_c, 9, 42, 50
1, 44960, Note_on_c, 9, 35, 70
1, 45119, Note_on_c, 9, 42, 0
1, 45119, Note_on_c, 9, 35, 0
1, 45120, Note_on_c, 9, 42, 80
1, 45120, Note_on_c, 9, 35, 90
1, 45359, Note_on_c, 9, 42, 0
1, 45440, Note_on_c, 9, 42, 60
1, 45599, Note_on_c, 9, 35, 0
1, 45599, Note_on_c, 9, 42, 0
1, 45600, Note_on_c, 9, 37, 100
1, 45600, Note_on_c, 9, 54, 100
1, 45600, Note_on_c, 9, 39, 60
1, 45600, Note_on_c, 9, 42, 100
1, 45920, Note_on_c, 9, 35, 60
1, 46079, Note_on_c, 9, 37, 0
1, 46079, Note_on_c, 9, 54, 0
1, 46079, Note_on_c, 9, 39, 0
1, 46079, Note_on_c, 9, 42, 0
1, 46079, Note_on_c, 9, 35, 0
1, 46080, Note_on_c, 9, 42, 90
1, 46080, Note_on_c, 9, 35, 90
1, 46559, Note_on_c, 9, 42, 0
1, 46559, Note_on_c, 9, 35, 0
1, 46560, Note_on_c, 9, 37, 100
1, 46560, Note_on_c, 9, 54, 100
1, 46560, Note_on_c, 9, 42, 100
1, 46799, Note_on_c, 9, 37, 0
1, 46799, Note_on_c, 9, 54, 0
1, 46799, Note_on_c, 9, 42, 0
1, 46880, Note_on_c, 9, 42, 50
1, 46880, Note_on_c, 9, 35, 70
1, 47039, Note_on_c, 9, 42, 0
1, 47039, Note_on_c, 9, 35, 0
1, 47040, Note_on_c, 9, 42, 80
1, 47040, Note_on_c, 9, 35, 90
1, 47279, Note_on_c, 9, 42, 0
1, 47360, Note_on_c, 9, 46, 54
1, 47519, Note_on_c, 9, 35, 0
1, 47519, Note_on_c, 9, 46, 0
1, 47520, Note_on_c, 9, 37, 100
1, 47520, Note_on_c, 9, 54, 100
1, 47520, Note_on_c, 9, 39, 60
1, 47520, Note_on_c, 9, 42, 100
1, 47759, Note_on_c, 9, 37, 0
1, 47759, Note_on_c, 9, 54, 0
1, 47759, Note_on_c, 9, 39, 0
1, 47759, Note_on_c, 9, 42, 0
1, 47840, Note_on_c, 9, 42, 25
1, 47999, Note_on_c, 9, 42, 0
1, 48000, Note_on_c, 9, 42, 90
1, 48000, Note_on_c, 9, 35, 90
1, 48479, Note_on_c, 9, 42, 0
1, 48479, Note_on_c, 9, 35, 0
1, 48480, Note_on_c, 9, 37, 100
1, 48480, Note_on_c, 9, 54, 100
1, 48480, Note_on_c, 9, 42, 100
1, 48719, Note_on_c, 9, 37, 0
1, 48719, Note_on_c, 9, 54, 0
1, 48719, Note_on_c, 9, 42, 0
1, 48800, Note_on_c, 9, 42, 50
1, 48800, Note_on_c, 9, 35, 70
1, 48959, Note_on_c, 9, 42, 0
1, 48959, Note_on_c, 9, 35, 0
1, 48960, Note_on_c, 9, 42, 80
1, 48960, Note_on_c, 9, 35, 90
1, 49199, Note_on_c, 9, 42, 0
1, 49280, Note_on_c, 9, 42, 60
1, 49439, Note_on_c, 9, 35, 0
1, 49439, Note_on_c, 9, 42, 0
1, 49440, Note_on_c, 9, 37, 100
1, 49440, Note_on_c, 9, 54, 100
1, 49440, Note_on_c, 9, 39, 60
1, 49440, Note_on_c, 9, 42, 100
1, 49679, Note_on_c, 9, 37, 0
1, 49679, Note_on_c, 9, 54, 0
1, 49679, Note_on_c, 9, 39, 0
1, 49679, Note_on_c, 9, 42, 0
1, 49760, Note_on_c, 9, 42, 50
1, 49919, Note_on_c, 9, 42, 0
1, 49920, Note_on_c, 9, 42, 90
1, 49920, Note_on_c, 9, 35, 90
1, 50399, Note_on_c, 9, 42, 0
1, 50399, Note_on_c, 9, 35, 0
1, 50400, Note_on_c, 9, 37, 100
1, 50400, Note_on_c, 9, 54, 100
1, 50400, Note_on_c, 9, 42, 100
1, 50639, Note_on_c, 9, 37, 0
1, 50639, Note_on_c, 9, 54, 0
1, 50639, Note_on_c, 9, 42, 0
1, 50720, Note_on_c, 9, 42, 50
1, 50720, Note_on_c, 9, 35, 70
1, 50879, Note_on_c, 9, 42, 0
1, 50879, Note_on_c, 9, 35, 0
1, 50880, Note_on_c, 9, 42, 80
1, 50880, Note_on_c, 9, 35, 90
1, 51119, Note_on_c, 9, 42, 0
1, 51200, Note_on_c, 9, 42, 15
1, 51359, Note_on_c, 9, 35, 0
1, 51359, Note_on_c, 9, 42, 0
1, 51360, Note_on_c, 9, 37, 100
1, 51360, Note_on_c, 9, 54, 100
1, 51360, Note_on_c, 9, 39, 60
1, 51360, Note_on_c, 9, 42, 100
1, 51599, Note_on_c, 9, 37, 0
1, 51599, Note_on_c, 9, 54, 0
1, 51599, Note_on_c, 9, 39, 0
1, 51599, Note_on_c, 9, 42, 0
1, 51680, Note_on_c, 9, 46, 72
1, 51839, Note_on_c, 9, 46, 0
1, 51840, Note_on_c, 9, 42, 90
1, 51840, Note_on_c, 9, 35, 90
1, 52319, Note_on_c, 9, 42, 0
1, 52319, Note_on_c, 9, 35, 0
1, 52320, Note_on_c, 9, 37, 100
1, 52320, Note_on_c, 9, 54, 100
1, 52320, Note_on_c, 9, 42, 100
1, 52559, Note_on_c, 9, 37, 0
1, 52559, Note_on_c, 9, 54, 0
1, 52559, Note_on_c, 9, 42, 0
1, 52640, Note_on_c, 9, 42, 50
1, 52640, Note_on_c, 9, 35, 70
1, 52799, Note_on_c, 9, 42, 0
1, 52799, Note_on_c, 9, 35, 0
1, 52800, Note_on_c, 9, 42, 80
1, 52800, Note_on_c, 9, 35, 90
1, 53039, Note_on_c, 9, 42, 0
1, 53120, Note_on_c, 9, 42, 60
1, 53279, Note_on_c, 9, 35, 0
1, 53279, Note_on_c, 9, 42, 0
1, 53280, Note_on_c, 9, 37, 100
1, 53280, Note_on_c, 9, 54, 100
1, 53280, Note_on_c, 9, 39, 60
1, 53280, Note_on_c, 9, 42, 100
1, 53600, Note_on_c, 9, 35, 60
1, 53759, Note_on_c, 9, 37, 0
1, 53759, Note_on_c, 9, 54, 0
1, 53759, Note_on_c, 9, 39, 0
1, 53759, Note_on_c, 9, 42, 0
1, 53759, Note_on_c, 9, 35, 0
1, 53760, Note_on_c, 9, 42, 90
1, 53760, Note_on_c, 9, 35, 90
1, 54239, Note_on_c, 9, 42, 0
1, 54239, Note_on_c, 9, 35, 0
1, 54240, Note_on_c, 9, 37, 100
1, 54240, Note_on_c, 9, 54, 100
1, 54240, Note_on_c, 9, 42, 100
1, 54479, Note_on_c, 9, 37, 0
1, 54479, Note_on_c, 9, 54, 0
1, 54479, Note_on_c, 9, 42, 0
1, 54560, Note_on_c, 9, 42, 50
1, 54560, Note_on_c, 9, 35, 70
1, 54719, Note_on_c, 9, 42, 0
1, 54719, Note_on_c, 9, 35, 0
1, 54720, Note_on_c, 9, 42, 80
1, 54720, Note_on_c, 9, 35, 90
1, 54959, Note_on_c, 9, 42, 0
1, 55040, Note_on_c, 9, 46, 54
1, 55199, Note_on_c, 9, 35, 0
1, 55199, Note_on_c, 9, 46, 0
1, 55200, Note_on_c, 9, 37, 100
1, 55200, Note_on_c, 9, 54, 100
1, 55200, Note_on_c, 9, 39, 60
1, 55200, Note_on_c, 9, 42, 100
1, 55439, Note_on_c, 9, 37, 0
1, 55439, Note_on_c, 9, 54, 0
1, 55439, Note_on_c, 9, 39, 0
1, 55439, Note_on_c, 9, 42, 0
1, 55520, Note_on_c, 9, 46, 72
1, 55679, Note_on_c, 9, 46, 0
1, 55680, Note_on_c, 9, 46, 100
1, 55680, Note_on_c, 9, 35, 90
1, 55919, Note_on_c, 9, 46, 0
1, 56000, Note_on_c, 9, 38, 80
1, 56159, Note_on_c, 9, 35, 0
1, 56159, Note_on_c, 9, 38, 0
1, 56160, Note_on_c, 9, 48, 100
1, 56639, Note_on_c, 9, 48, 0
1, 56640, Note_on_c, 9, 45, 100
1, 57119, Note_on_c, 9, 45, 0
1, 57120, Note_on_c, 9, 41, 100
1, 57440, Note_on_c, 9, 35, 80
1, 57599, Note_on_c, 9, 41, 0
1, 57599, Note_on_c, 9, 35, 0
1, 57600, Note_on_c, 9, 42, 90
1, 57600, Note_on_c, 9, 49, 100
1, 57600, Note_on_c, 9, 35, 90
1, 58079, Note_on_c, 9, 42, 0
1, 58079, Note_on_c, 9, 49, 0
1, 58079, Note_on_c, 9, 35, 0
1, 58080, Note_on_c, 9, 37, 100
1, 58080, Note_on_c, 9, 54, 100
1, 58080, Note_on_c, 9, 42, 100
1, 58319, Note_on_c, 9, 37, 0
1, 58319, Note_on_c, 9, 54, 0
1, 58319, Note_on_c, 9, 42, 0
1, 58400, Note_on_c, 9, 42, 50
1, 58400, Note_on_c, 9, 35, 70
1, 58559, Note_on_c, 9, 42, 0
1, 58559, Note_on_c, 9, 35, 0
1, 58560, Note_on_c, 9, 42, 80
1, 58560, Note_on_c, 9, 35, 90
1, 58799, Note_on_c, 9, 42, 0
1, 58880, Note_on_c, 9, 42, 60
1, 59039, Note_on_c, 9, 35, 0
1, 59039, Note_on_c, 9, 42, 0
1, 59040, Note_on_c, 9, 37, 100
1, 59040, Note_on_c, 9, 54, 100
1, 59040, Note_on_c, 9, 39, 60
1, 59040, Note_on_c, 9, 42, 100
1, 59279, Note_on_c, 9, 37, 0
1, 59279, Note_on_c, 9, 54, 0
1, 59279, Note_on_c, 9, 39, 0
1, 59279, Note_on_c, 9, 42, 0
1, 59360, Note_on_c, 9, 42, 50
1, 59519, Note_on_c, 9, 42, 0
1, 59520, Note_on_c, 9, 42, 90
1, 59520, Note_on_c, 9, 35, 90
1, 59999, Note_on_c, 9, 42, 0
1, 59999, Note_on_c, 9, 35, 0
1, 60000, Note_on_c, 9, 37, 100
1, 60000, Note_on_c, 9, 54, 100
1, 60000, Note_on_c, 9, 42, 100
1, 60239, Note_on_c, 9, 37, 0
1, 60239, Note_on_c, 9, 54, 0
1, 60239, Note_on_c, 9, 42, 0
1, 60320, Note_on_c, 9, 42, 50
1, 60320, Note_on_c, 9, 35, 70
1, 60479, Note_on_c, 9, 42, 0
1, 60479, Note_on_c, 9, 35, 0
1, 60480, Note_on_c, 9, 42, 80
1, 60480, Note_on_c, 9, 35, 90
1, 60719, Note_on_c, 9, 42, 0
1, 60800, Note_on_c, 9, 42, 60
1, 60959, Note_on_c, 9, 35, 0
1, 60959, Note_on_c, 9, 42, 0
1, 60960, Note_on_c, 9, 37, 100
1, 60960, Note_on_c, 9, 54, 100
1, 60960, Note_on_c, 9, 39, 60
1, 60960, Note_on_c, 9, 42, 100
1, 61199, Note_on_c, 9, 37, 0
1, 61199, Note_on_c, 9, 54, 0
1, 61199, Note_on_c, 9, 39, 0
1, 61199, Note_on_c, 9, 42, 0
1, 61280, Note_on_c, 9, 42, 50
1, 61439, Note_on_c, 9, 42, 0
1, 61440, Note_on_c, 9, 42, 90
1, 61440, Note_on_c, 9, 35, 90
1, 61919, Note_on_c, 9, 42, 0
1, 61919, Note_on_c, 9, 35, 0
1, 61920, Note_on_c, 9, 37, 100
1, 61920, Note_on_c, 9, 54, 100
1, 61920, Note_on_c, 9, 42, 100
1, 62159, Note_on_c, 9, 37, 0
1, 62159, Note_on_c, 9, 54, 0
1, 62159, Note_on_c, 9, 42, 0
1, 62240, Note_on_c, 9, 42, 50
1, 62240, Note_on_c, 9, 35, 70
1, 62399, Note_on_c, 9, 42, 0
1, 62399, Note_on_c, 9, 35, 0
1, 62400, Note_on_c, 9, 42, 80
1, 62400, Note_on_c, 9, 35, 90
1, 62639, Note_on_c, 9, 42, 0
1, 62720, Note_on_c, 9, 46, 54
1, 62879, Note_on_c, 9, 35, 0
1, 62879, Note_on_c, 9, 46, 0
1, 62880, Note_on_c, 9, 37, 100
1, 62880, Note_on_c, 9, 54, 100
1, 62880, Note_on_c, 9, 39, 60
1, 62880, Note_on_c, 9, 42, 100
1, 63119, Note_on_c, 9, 37, 0
1, 63119, Note_on_c, 9, 54, 0
1, 63119, Note_on_c, 9, 39, 0
1, 63119, Note_on_c, 9, 42, 0
1, 63200, Note_on_c, 9, 42, 25
1, 63359, Note_on_c, 9, 42, 0
1, 63360, Note_on_c, 9, 42, 90
1, 63360, Note_on_c, 9, 35, 90
1, 63839, Note_on_c, 9, 42, 0
1, 63839, Note_on_c, 9, 35, 0
1, 63840, Note_on_c, 9, 37, 100
1, 63840, Note_on_c, 9, 54, 100
1, 63840, Note_on_c, 9, 42, 100
1, 64079, Note_on_c, 9, 37, 0
1, 64079, Note_on_c, 9, 54, 0
1, 64079, Note_on_c, 9, 42, 0
1, 64160, Note_on_c, 9, 42, 50
1, 64160, Note_on_c, 9, 35, 70
1, 64319, Note_on_c, 9, 42, 0
1, 64319, Note_on_c, 9, 35, 0
1, 64320, Note_on_c, 9, 42, 80
1, 64320, Note_on_c, 9, 35, 90
1, 64559, Note_on_c, 9, 42, 0
1, 64640, Note_on_c, 9, 42, 60
1, 64799, Note_on_c, 9, 35, 0
1, 64799, Note_on_c, 9, 42, 0
1, 64800, Note_on_c, 9, 37, 100
1, 64800, Note_on_c, 9, 54, 100
1, 64800, Note_on_c, 9, 39, 60
1, 64800, Note_on_c, 9, 42, 100
1, 65279, Note_on_c, 9, 37, 0
1, 65279, Note_on_c, 9, 54, 0
1, 65279, Note_on_c, 9, 39, 0
1, 65279, Note_on_c, 9, 42, 0
1, 65280, Note_on_c, 9, 42, 90
1, 65280, Note_on_c, 9, 35, 90
1, 65759, Note_on_c, 9, 42, 0
1, 65759, Note_on_c, 9, 35, 0
1, 72960, Note_on_c, 9, 42, 90
1, 72960, Note_on_c, 9, 49, 100
1, 72960, Note_on_c, 9, 35, 90
1, 73439, Note_on_c, 9, 42, 0
1, 73439, Note_on_c, 9, 49, 0
1, 73439, Note_on_c, 9, 35, 0
1, 73440, Note_on_c, 9, 37, 100
1, 73440, Note_on_c, 9, 54, 100
1, 73440, Note_on_c, 9, 42, 100
1, 73679, Note_on_c, 9, 37, 0
1, 73679, Note_on_c, 9, 54, 0
1, 73679, Note_on_c, 9, 42, 0
1, 73760, Note_on_c, 9, 42, 50
1, 73760, Note_on_c, 9, 35, 70
1, 73919, Note_on_c, 9, 42, 0
1, 73919, Note_on_c, 9, 35, 0
1, 73920, Note_on_c, 9, 42, 80
1, 73920, Note_on_c, 9, 35, 90
1, 74159, Note_on_c, 9, 42, 0
1, 74240, Note_on_c, 9, 42, 60
1, 74399, Note_on_c, 9, 35, 0
1, 74399, Note_on_c, 9, 42, 0
1, 74400, Note_on_c, 9, 37, 100
1, 74400, Note_on_c, 9, 54, 100
1, 74400, Note_on_c, 9, 39, 60
1, 74400, Note_on_c, 9, 42, 100
1, 74639, Note_on_c, 9, 37, 0
1, 74639, Note_on_c, 9, 54, 0
1, 74639, Note_on_c, 9, 39, 0
1, 74639, Note_on_c, 9, 42, 0
1, 74720, Note_on_c, 9, 42, 50
1, 74879, Note_on_c, 9, 42, 0
1, 74880, Note_on_c, 9, 42, 90
1, 74880, Note_on_c, 9, 35, 90
1, 75359, Note_on_c, 9, 42, 0
1, 75359, Note_on_c, 9, 35, 0
1, 75360, Note_on_c, 9, 37, 100
1, 75360, Note_on_c, 9, 54, 100
1, 75360, Note_on_c, 9, 42, 100
1, 75599, Note_on_c, 9, 37, 0
1, 75599, Note_on_c, 9, 54, 0
1, 75599, Note_on_c, 9, 42, 0
1, 75680, Note_on_c, 9, 42, 50
1, 75680, Note_on_c, 9, 35, 70
1, 75839, Note_on_c, 9, 42, 0
1, 75839, Note_on_c, 9, 35, 0
1, 75840, Note_on_c, 9, 42, 80
1, 75840, Note_on_c, 9, 35, 90
1, 76079, Note_on_c, 9, 42, 0
1, 76160, Note_on_c, 9, 46, 54
1, 76319, Note_on_c, 9, 35, 0
1, 76319, Note_on_c, 9, 46, 0
1, 76320, Note_on_c, 9, 37, 100
1, 76320, Note_on_c, 9, 54, 100
1, 76320, Note_on_c, 9, 39, 60
1, 76320, Note_on_c, 9, 42, 100
1, 76559, Note_on_c, 9, 37, 0
1, 76559, Note_on_c, 9, 54, 0
1, 76559, Note_on_c, 9, 39, 0
1, 76559, Note_on_c, 9, 42, 0
1, 76640, Note_on_c, 9, 46, 72
1, 76799, Note_on_c, 9, 46, 0
1, 76800, Note_on_c, 9, 42, 90
1, 76800, Note_on_c, 9, 35, 90
1, 77279, Note_on_c, 9, 42, 0
1, 77279, Note_on_c, 9, 35, 0
1, 77280, Note_on_c, 9, 37, 100
1, 77280, Note_on_c, 9, 54, 100
1, 77280, Note_on_c, 9, 42, 100
1, 77519, Note_on_c, 9, 37, 0
1, 77519, Note_on_c, 9, 54, 0
1, 77519, Note_on_c, 9, 42, 0
1, 77600, Note_on_c, 9, 42, 50
1, 77600, Note_on_c, 9, 35, 70
1, 77759, Note_on_c, 9, 42, 0
1, 77759, Note_on_c, 9, 35, 0
1, 77760, Note_on_c, 9, 42, 80
1, 77760, Note_on_c, 9, 35, 90
1, 77999, Note_on_c, 9, 42, 0
1, 78080, Note_on_c, 9, 42, 15
1, 78239, Note_on_c, 9, 35, 0
1, 78239, Note_on_c, 9, 42, 0
1, 78240, Note_on_c, 9, 37, 100
1, 78240, Note_on_c, 9, 54, 100
1, 78240, Note_on_c, 9, 39, 60
1, 78240, Note_on_c, 9, 42, 100
1, 78479, Note_on_c, 9, 37, 0
1, 78479, Note_on_c, 9, 54, 0
1, 78479, Note_on_c, 9, 39, 0
1, 78479, Note_on_c, 9, 42, 0
1, 78560, Note_on_c, 9, 46, 72
1, 78719, Note_on_c, 9, 46, 0
1, 78720, Note_on_c, 9, 42, 90
1, 78720, Note_on_c, 9, 35, 90
1, 79199, Note_on_c, 9, 42, 0
1, 79199, Note_on_c, 9, 35, 0
1, 79200, Note_on_c, 9, 37, 100
1, 79200, Note_on_c, 9, 54, 100
1, 79200, Note_on_c, 9, 42, 100
1, 79439, Note_on_c, 9, 37, 0
1, 79439, Note_on_c, 9, 54, 0
1, 79439, Note_on_c, 9, 42, 0
1, 79520, Note_on_c, 9, 42, 50
1, 79520, Note_on_c, 9, 35, 70
1, 79679, Note_on_c, 9, 42, 0
1, 79679, Note_on_c, 9, 35, 0
1, 79680, Note_on_c, 9, 42, 80
1, 79680, Note_on_c, 9, 35, 90
1, 79919, Note_on_c, 9, 42, 0
1, 80000, Note_on_c, 9, 42, 60
1, 80159, Note_on_c, 9, 35, 0
1, 80159, Note_on_c, 9, 42, 0
1, 80160, Note_on_c, 9, 37, 100
1, 80160, Note_on_c, 9, 54, 100
1, 80160, Note_on_c, 9, 39, 60
1, 80160, Note_on_c, 9, 42, 100
1, 80399, Note_on_c, 9, 37, 0
1, 80399, Note_on_c, 9, 54, 0
1, 80399, Note_on_c, 9, 39, 0
1, 80399, Note_on_c, 9, 42, 0
1, 80480, Note_on_c, 9, 42, 50
1, 80639, Note_on_c, 9, 42, 0
1, 80640, Note_on_c, 9, 42, 90
1, 80640, Note_on_c, 9, 35, 90
1, 81119, Note_on_c, 9, 42, 0
1, 81119, Note_on_c, 9, 35, 0
1, 81120, Note_on_c, 9, 37, 100
1, 81120, Note_on_c, 9, 54, 100
1, 81120, Note_on_c, 9, 42, 100
1, 81359, Note_on_c, 9, 37, 0
1, 81359, Note_on_c, 9, 54, 0
1, 81359, Note_on_c, 9, 42, 0
1, 81440, Note_on_c, 9, 42, 50
1, 81440, Note_on_c, 9, 35, 70
1, 81599, Note_on_c, 9, 42, 0
1, 81599, Note_on_c, 9, 35, 0
1, 81600, Note_on_c, 9, 42, 80
1, 81600, Note_on_c, 9, 35, 90
1, 82079, Note_on_c, 9, 42, 0
1, 82079, Note_on_c, 9, 35, 0
1, 82080, Note_on_c, 9, 37, 100
1, 82080, Note_on_c, 9, 54, 100
1, 82080, Note_on_c, 9, 39, 60
1, 82080, Note_on_c, 9, 42, 100
1, 82559, Note_on_c, 9, 37, 0
1, 82559, Note_on_c, 9, 54, 0
1, 82559, Note_on_c, 9, 39, 0
1, 82559, Note_on_c, 9, 42, 0
1, 82560, Note_on_c, 9, 42, 90
1, 82560, Note_on_c, 9, 35, 90
1, 83039, Note_on_c, 9, 42, 0
1, 83039, Note_on_c, 9, 35, 0
1, 83040, Note_on_c, 9, 37, 100
1, 83040, Note_on_c, 9, 54, 100
1, 83040, Note_on_c, 9, 42, 100
1, 83279, Note_on_c, 9, 37, 0
1, 83279, Note_on_c, 9, 54, 0
1, 83279, Note_on_c, 9, 42, 0
1, 83360, Note_on_c, 9, 42, 50
1, 83360, Note_on_c, 9, 35, 70
1, 83519, Note_on_c, 9, 42, 0
1, 83519, Note_on_c, 9, 35, 0
1, 83520, Note_on_c, 9, 42, 80
1, 83520, Note_on_c, 9, 35, 90
1, 83759, Note_on_c, 9, 42, 0
1, 83840, Note_on_c, 9, 46, 54
1, 83999, Note_on_c, 9, 35, 0
1, 83999, Note_on_c, 9, 46, 0
1, 84000, Note_on_c, 9, 37, 100
1, 84000, Note_on_c, 9, 54, 100
1, 84000, Note_on_c, 9, 39, 60
1, 84000, Note_on_c, 9, 42, 100
1, 84239, Note_on_c, 9, 37, 0
1, 84239, Note_on_c, 9, 54, 0
1, 84239, Note_on_c, 9, 39, 0
1, 84239, Note_on_c, 9, 42, 0
1, 84320, Note_on_c, 9, 46, 72
1, 84479, Note_on_c, 9, 46, 0
1, 84480, Note_on_c, 9, 42, 90
1, 84480, Note_on_c, 9, 35, 90
1, 84959, Note_on_c, 9, 42, 0
1, 84959, Note_on_c, 9, 35, 0
1, 84960, Note_on_c, 9, 37, 100
1, 84960, Note_on_c, 9, 54, 100
1, 84960, Note_on_c, 9, 42, 100
1, 85199, Note_on_c, 9, 37, 0
1, 85199, Note_on_c, 9, 54, 0
1, 85199, Note_on_c, 9, 42, 0
1, 85280, Note_on_c, 9, 42, 50
1, 85280, Note_on_c, 9, 35, 70
1, 85439, Note_on_c, 9, 42, 0
1, 85439, Note_on_c, 9, 35, 0
1, 85440, Note_on_c, 9, 42, 80
1, 85440, Note_on_c, 9, 35, 90
1, 85919, Note_on_c, 9, 42, 0
1, 85919, Note_on_c, 9, 35, 0
1, 85920, Note_on_c, 9, 37, 100
1, 85920, Note_on_c, 9, 54, 100
1, 85920, Note_on_c, 9, 39, 60
1, 85920, Note_on_c, 9, 42, 100
1, 86159, Note_on_c, 9, 37, 0
1, 86159, Note_on_c, 9, 54, 0
1, 86159, Note_on_c, 9, 39, 0
1, 86159, Note_on_c, 9, 42, 0
1, 86240, Note_on_c, 9, 42, 50
1, 86399, Note_on_c, 9, 42, 0
1, 86400, Note_on_c, 9, 48, 80
1, 86400, Note_on_c, 9, 35, 90
1, 86559, Note_on_c, 9, 48, 0
1, 86560, Note_on_c, 9, 48, 40
1, 86719, Note_on_c, 9, 48, 0
1, 86720, Note_on_c, 9, 48, 90
1, 86879, Note_on_c, 9, 35, 0
1, 86879, Note_on_c, 9, 48, 0
1, 86880, Note_on_c, 9, 45, 90
1, 86880, Note_on_c, 9, 48, 80
1, 87039, Note_on_c, 9, 45, 0
1, 87039, Note_on_c, 9, 48, 0
1, 87040, Note_on_c, 9, 48, 60
1, 87199, Note_on_c, 9, 48, 0
1, 87200, Note_on_c, 9, 45, 100
1, 87200, Note_on_c, 9, 35, 80
1, 87359, Note_on_c, 9, 45, 0
1, 87359, Note_on_c, 9, 35, 0
1, 87360, Note_on_c, 9, 45, 90
1, 87360, Note_on_c, 9, 35, 100
1, 87519, Note_on_c, 9, 45, 0
1, 87520, Note_on_c, 9, 45, 60
1, 87679, Note_on_c, 9, 45, 0
1, 87680, Note_on_c, 9, 45, 100
1, 87839, Note_on_c, 9, 35, 0
1, 87839, Note_on_c, 9, 45, 0
1, 87840, Note_on_c, 9, 41, 100
1, 87999, Note_on_c, 9, 41, 0
1, 88000, Note_on_c, 9, 41, 80
1, 88159, Note_on_c, 9, 41, 0
1, 88160, Note_on_c, 9, 41, 115
1, 88319, Note_on_c, 9, 41, 0
1, 88320, Note_on_c, 9, 42, 90
1, 88320, Note_on_c, 9, 49, 100
1, 88320, Note_on_c, 9, 35, 90
1, 88799, Note_on_c, 9, 42, 0
1, 88799, Note_on_c, 9, 49, 0
1, 88799, Note_on_c, 9, 35, 0
1, 88800, Note_on_c, 9, 37, 100
1, 88800, Note_on_c, 9, 54, 100
1, 88800, Note_on_c, 9, 42, 100
1, 89039, Note_on_c, 9, 37, 0
1, 89039, Note_on_c, 9, 54, 0
1, 89039, Note_on_c, 9, 42, 0
1, 89120, Note_on_c, 9, 42, 50
1, 89120, Note_on_c, 9, 35, 70
1, 89279, Note_on_c, 9, 42, 0
1, 89279, Note_on_c, 9, 35, 0
1, 89280, Note_on_c, 9, 42, 80
1, 89280, Note_on_c, 9, 35, 90
1, 89519, Note_on_c, 9, 42, 0
1, 89600, Note_on_c, 9, 42, 60
1, 89759, Note_on_c, 9, 35, 0
1, 89759, Note_on_c, 9, 42, 0
1, 89760, Note_on_c, 9, 37, 100
1, 89760, Note_on_c, 9, 54, 100
1, 89760, Note_on_c, 9, 39, 60
1, 89760, Note_on_c, 9, 42, 100
1, 89999, Note_on_c, 9, 37, 0
1, 89999, Note_on_c, 9, 54, 0
1, 89999, Note_on_c, 9, 39, 0
1, 89999, Note_on_c, 9, 42, 0
1, 90080, Note_on_c, 9, 42, 50
1, 90239, Note_on_c, 9, 42, 0
1, 90240, Note_on_c, 9, 42, 90
1, 90240, Note_on_c, 9, 35, 90
1, 90719, Note_on_c, 9, 42, 0
1, 90719, Note_on_c, 9, 35, 0
1, 90720, Note_on_c, 9, 37, 100
1, 90720, Note_on_c, 9, 54, 100
1, 90720, Note_on_c, 9, 42, 100
1, 90959, Note_on_c, 9, 37, 0
1, 90959, Note_on_c, 9, 54, 0
1, 90959, Note_on_c, 9, 42, 0
1, 91040, Note_on_c, 9, 42, 50
1, 91040, Note_on_c, 9, 35, 70
1, 91199, Note_on_c, 9, 42, 0
1, 91199, Note_on_c, 9, 35, 0
1, 91200, Note_on_c, 9, 42, 80
1, 91200, Note_on_c, 9, 35, 90
1, 91439, Note_on_c, 9, 42, 0
1, 91520, Note_on_c, 9, 42, 15
1, 91679, Note_on_c, 9, 35, 0
1, 91679, Note_on_c, 9, 42, 0
1, 91680, Note_on_c, 9, 37, 100
1, 91680, Note_on_c, 9, 54, 100
1, 91680, Note_on_c, 9, 39, 60
1, 91680, Note_on_c, 9, 42, 100
1, 91919, Note_on_c, 9, 37, 0
1, 91919, Note_on_c, 9, 54, 0
1, 91919, Note_on_c, 9, 39, 0
1, 91919, Note_on_c, 9, 42, 0
1, 92000, Note_on_c, 9, 42, 25
1, 92159, Note_on_c, 9, 42, 0
1, 92160, Note_on_c, 9, 42, 90
1, 92160, Note_on_c, 9, 35, 90
1, 92639, Note_on_c, 9, 42, 0
1, 92639, Note_on_c, 9, 35, 0
1, 92640, Note_on_c, 9, 37, 100
1, 92640, Note_on_c, 9, 54, 100
1, 92640, Note_on_c, 9, 42, 100
1, 92879, Note_on_c, 9, 37, 0
1, 92879, Note_on_c, 9, 54, 0
1, 92879, Note_on_c, 9, 42, 0
1, 92960, Note_on_c, 9, 42, 50
1, 92960, Note_on_c, 9, 35, 70
1, 93119, Note_on_c, 9, 42, 0
1, 93119, Note_on_c, 9, 35, 0
1, 93120, Note_on_c, 9, 42, 80
1, 93120, Note_on_c, 9, 35, 90
1, 93359, Note_on_c, 9, 42, 0
1, 93440, Note_on_c, 9, 42, 60
1, 93599, Note_on_c, 9, 35, 0
1, 93599, Note_on_c, 9, 42, 0
1, 93600, Note_on_c, 9, 37, 100
1, 93600, Note_on_c, 9, 54, 100
1, 93600, Note_on_c, 9, 39, 60
1, 93600, Note_on_c, 9, 42, 100
1, 94079, Note_on_c, 9, 37, 0
1, 94079, Note_on_c, 9, 54, 0
1, 94079, Note_on_c, 9, 39, 0
1, 94079, Note_on_c, 9, 42, 0
1, 94080, Note_on_c, 9, 42, 90
1, 94080, Note_on_c, 9, 35, 90
1, 94559, Note_on_c, 9, 42, 0
1, 94559, Note_on_c, 9, 35, 0
1, 94560, Note_on_c, 9, 37, 100
1, 94560, Note_on_c, 9, 54, 100
1, 94560, Note_on_c, 9, 42, 100
1, 94799, Note_on_c, 9, 37, 0
1, 94799, Note_on_c, 9, 54, 0
1, 94799, Note_on_c, 9, 42, 0
1, 94880, Note_on_c, 9, 42, 50
1, 94880, Note_on_c, 9, 35, 70
1, 95039, Note_on_c, 9, 42, 0
1, 95039, Note_on_c, 9, 35, 0
1, 95040, Note_on_c, 9, 42, 80
1, 95040, Note_on_c, 9, 35, 90
1, 95279, Note_on_c, 9, 42, 0
1, 95360, Note_on_c, 9, 46, 54
1, 95519, Note_on_c, 9, 35, 0
1, 95519, Note_on_c, 9, 46, 0
1, 95520, Note_on_c, 9, 37, 100
1, 95520, Note_on_c, 9, 54, 100
1, 95520, Note_on_c, 9, 39, 60
1, 95520, Note_on_c, 9, 42, 100
1, 95759, Note_on_c, 9, 37, 0
1, 95759, Note_on_c, 9, 54, 0
1, 95759, Note_on_c, 9, 39, 0
1, 95759, Note_on_c, 9, 42, 0
1, 95840, Note_on_c, 9, 42, 25
1, 95999, Note_on_c, 9, 42, 0
1, 96000, Note_on_c, 9, 42, 90
1, 96000, Note_on_c, 9, 35, 90
1, 96479, Note_on_c, 9, 42, 0
1, 96479, Note_on_c, 9, 35, 0
1, 103680, Note_on_c, 9, 42, 90
1, 103680, Note_on_c, 9, 49, 100
1, 103680, Note_on_c, 9, 35, 90
1, 104159, Note_on_c, 9, 42, 0
1, 104159, Note_on_c, 9, 49, 0
1, 104159, Note_on_c, 9, 35, 0
1, 104160, Note_on_c, 9, 37, 100
1, 104160, Note_on_c, 9, 54, 100
1, 104160, Note_on_c, 9, 42, 100
1, 104399, Note_on_c, 9, 37, 0
1, 104399, Note_on_c, 9, 54, 0
1, 104399, Note_on_c, 9, 42, 0
1, 104480, Note_on_c, 9, 42, 50
1, 104480, Note_on_c, 9, 35, 70
1, 104639, Note_on_c, 9, 42, 0
1, 104639, Note_on_c, 9, 35, 0
1, 104640, Note_on_c, 9, 42, 80
1, 104640, Note_on_c, 9, 35, 90
1, 104879, Note_on_c, 9, 42, 0
1, 104960, Note_on_c, 9, 42, 60
1, 105119, Note_on_c, 9, 35, 0
1, 105119, Note_on_c, 9, 42, 0
1, 105120, Note_on_c, 9, 37, 100
1, 105120, Note_on_c, 9, 54, 100
1, 105120, Note_on_c, 9, 39, 60
1, 105120, Note_on_c, 9, 42, 100
1, 105359, Note_on_c, 9, 37, 0
1, 105359, Note_on_c, 9, 54, 0
1, 105359, Note_on_c, 9, 39, 0
1, 105359, Note_on_c, 9, 42, 0
1, 105440, Note_on_c, 9, 42, 50
1, 105599, Note_on_c, 9, 42, 0
1, 105600, Note_on_c, 9, 42, 90
1, 105600, Note_on_c, 9, 35, 90
1, 106079, Note_on_c, 9, 42, 0
1, 106079, Note_on_c, 9, 35, 0
1, 106080, Note_on_c, 9, 37, 100
1, 106080, Note_on_c, 9, 54, 100
1, 106080, Note_on_c, 9, 42, 100
1, 106319, Note_on_c, 9, 37, 0
1, 106319, Note_on_c, 9, 54, 0
1, 106319, Note_on_c, 9, 42, 0
1, 106400, Note_on_c, 9, 42, 50
1, 106400, Note_on_c, 9, 35, 70
1, 106559, Note_on_c, 9, 42, 0
1, 106559, Note_on_c, 9, 35, 0
1, 106560, Note_on_c, 9, 42, 80
1, 106560, Note_on_c, 9, 35, 90
1, 106799, Note_on_c, 9, 42, 0
1, 106880, Note_on_c, 9, 42, 15
1, 107039, Note_on_c, 9, 35, 0
1, 107039, Note_on_c, 9, 42, 0
1, 107040, Note_on_c, 9, 37, 100
1, 107040, Note_on_c, 9, 54, 100
1, 107040, Note_on_c, 9, 39, 60
1, 107040, Note_on_c, 9, 42, 100
1, 107279, Note_on_c, 9, 37, 0
1, 107279, Note_on_c, 9, 54, 0
1, 107279, Note_on_c, 9, 39, 0
1, 107279, Note_on_c, 9, 42, 0
1, 107360, Note_on_c, 9, 42, 25
1, 107519, Note_on_c, 9, 42, 0
1, 107520, Note_on_c, 9, 42, 90
1, 107520, Note_on_c, 9, 35, 90
1, 107999, Note_on_c, 9, 42, 0
1, 107999, Note_on_c, 9, 35, 0
1, 108000, Note_on_c, 9, 37, 100
1, 108000, Note_on_c, 9, 54, 100
1, 108000, Note_on_c, 9, 42, 100
1, 108239, Note_on_c, 9, 37, 0
1, 108239, Note_on_c, 9, 54, 0
1, 108239, Note_on_c, 9, 42, 0
1, 108320, Note_on_c, 9, 42, 50
1, 108320, Note_on_c, 9, 35, 70
1, 108479, Note_on_c, 9, 42, 0
1, 108479, Note_on_c, 9, 35, 0
1, 108480, Note_on_c, 9, 42, 80
1, 108480, Note_on_c, 9, 35, 90
1, 108719, Note_on_c, 9, 42, 0
1, 108800, Note_on_c, 9, 42, 60
1, 108959, Note_on_c, 9, 35, 0
1, 108959, Note_on_c, 9, 42, 0
1, 108960, Note_on_c, 9, 37, 100
1, 108960, Note_on_c, 9, 54, 100
1, 108960, Note_on_c, 9, 39, 60
1, 108960, Note_on_c, 9, 42, 100
1, 109199, Note_on_c, 9, 37, 0
1, 109199, Note_on_c, 9, 54, 0
1, 109199, Note_on_c, 9, 39, 0
1, 109199, Note_on_c, 9, 42, 0
1, 109280, Note_on_c, 9, 42, 50
1, 109439, Note_on_c, 9, 42, 0
1, 109440, Note_on_c, 9, 42, 90
1, 109440, Note_on_c, 9, 35, 90
1, 109919, Note_on_c, 9, 42, 0
1, 109919, Note_on_c, 9, 35, 0
1, 109920, Note_on_c, 9, 37, 100
1, 109920, Note_on_c, 9, 54, 100
1, 109920, Note_on_c, 9, 42, 100
1, 110159, Note_on_c, 9, 37, 0
1, 110159, Note_on_c, 9, 54, 0
1, 110159, Note_on_c, 9, 42, 0
1, 110240, Note_on_c, 9, 42, 50
1, 110240, Note_on_c, 9, 35, 70
1, 110399, Note_on_c, 9, 42, 0
1, 110399, Note_on_c, 9, 35, 0
1, 110400, Note_on_c, 9, 42, 80
1, 110400, Note_on_c, 9, 35, 90
1, 110639, Note_on_c, 9, 42, 0
1, 110720, Note_on_c, 9, 46, 54
1, 110879, Note_on_c, 9, 35, 0
1, 110879, Note_on_c, 9, 46, 0
1, 110880, Note_on_c, 9, 37, 100
1, 110880, Note_on_c, 9, 54, 100
1, 110880, Note_on_c, 9, 39, 60
1, 110880, Note_on_c, 9, 42, 100
1, 111119, Note_on_c, 9, 37, 0
1, 111119, Note_on_c, 9, 54, 0
1, 111119, Note_on_c, 9, 39, 0
1, 111119, Note_on_c, 9, 42, 0
1, 111200, Note_on_c, 9, 46, 72
1, 111359, Note_on_c, 9, 46, 0
1, 111360, Note_on_c, 9, 42, 90
1, 111360, Note_on_c, 9, 35, 90
1, 111839, Note_on_c, 9, 42, 0
1, 111839, Note_on_c, 9, 35, 0
1, 111840, Note_on_c, 9, 37, 100
1, 111840, Note_on_c, 9, 54, 100
1, 111840, Note_on_c, 9, 42, 100
1, 112079, Note_on_c, 9, 37, 0
1, 112079, Note_on_c, 9, 54, 0
1, 112079, Note_on_c, 9, 42, 0
1, 112160, Note_on_c, 9, 42, 50
1, 112160, Note_on_c, 9, 35, 70
1, 112319, Note_on_c, 9, 42, 0
1, 112319, Note_on_c, 9, 35, 0
1, 112320, Note_on_c, 9, 42, 80
1, 112320, Note_on_c, 9, 35, 90
1, 112559, Note_on_c, 9, 42, 0
1, 112640, Note_on_c, 9, 42, 60
1, 112799, Note_on_c, 9, 35, 0
1, 112799, Note_on_c, 9, 42, 0
1, 112800, Note_on_c, 9, 37, 100
1, 112800, Note_on_c, 9, 54, 100
1, 112800, Note_on_c, 9, 39, 60
1, 112800, Note_on_c, 9, 42, 100
1, 113039, Note_on_c, 9, 37, 0
1, 113039, Note_on_c, 9, 54, 0
1, 113039, Note_on_c, 9, 39, 0
1, 113039, Note_on_c, 9, 42, 0
1, 113120, Note_on_c, 9, 42, 50
1, 113279, Note_on_c, 9, 42, 0
1, 113280, Note_on_c, 9, 42, 90
1, 113280, Note_on_c, 9, 35, 90
1, 113759, Note_on_c, 9, 42, 0
1, 113759, Note_on_c, 9, 35, 0
1, 113760, Note_on_c, 9, 37, 100
1, 113760, Note_on_c, 9, 54, 100
1, 113760, Note_on_c, 9, 42, 100
1, 113999, Note_on_c, 9, 37, 0
1, 113999, Note_on_c, 9, 54, 0
1, 113999, Note_on_c, 9, 42, 0
1, 114080, Note_on_c, 9, 42, 50
1, 114080, Note_on_c, 9, 35, 70
1, 114239, Note_on_c, 9, 42, 0
1, 114239, Note_on_c, 9, 35, 0
1, 114240, Note_on_c, 9, 42, 80
1, 114240, Note_on_c, 9, 35, 90
1, 114479, Note_on_c, 9, 42, 0
1, 114560, Note_on_c, 9, 42, 60
1, 114719, Note_on_c, 9, 35, 0
1, 114719, Note_on_c, 9, 42, 0
1, 114720, Note_on_c, 9, 37, 100
1, 114720, Note_on_c, 9, 54, 100
1, 114720, Note_on_c, 9, 39, 60
1, 114720, Note_on_c, 9, 42, 100
1, 114959, Note_on_c, 9, 37, 0
1, 114959, Note_on_c, 9, 54, 0
1, 114959, Note_on_c, 9, 39, 0
1, 114959, Note_on_c, 9, 42, 0
1, 115040, Note_on_c, 9, 42, 50
1, 115199, Note_on_c, 9, 42, 0
1, 115200, Note_on_c, 9, 42, 90
1, 115200, Note_on_c, 9, 35, 90
1, 115679, Note_on_c, 9, 42, 0
1, 115679, Note_on_c, 9, 35, 0
1, 115680, Note_on_c, 9, 37, 100
1, 115680, Note_on_c, 9, 54, 100
1, 115680, Note_on_c, 9, 42, 100
1, 115919, Note_on_c, 9, 37, 0
1, 115919, Note_on_c, 9, 54, 0
1, 115919, Note_on_c, 9, 42, 0
1, 116000, Note_on_c, 9, 42, 50
1, 116000, Note_on_c, 9, 35, 70
1, 116159, Note_on_c, 9, 42, 0
1, 116159, Note_on_c, 9, 35, 0
1, 116160, Note_on_c, 9, 42, 80
1, 116160, Note_on_c, 9, 35, 90
1, 116399, Note_on_c, 9, 42, 0
1, 116480, Note_on_c, 9, 42, 60
1, 116639, Note_on_c, 9, 35, 0
1, 116639, Note_on_c, 9, 42, 0
1, 116640, Note_on_c, 9, 37, 100
1, 116640, Note_on_c, 9, 54, 100
1, 116640, Note_on_c, 9, 39, 60
1, 116640, Note_on_c, 9, 42, 100
1, 116879, Note_on_c, 9, 37, 0
1, 116879, Note_on_c, 9, 54, 0
1, 116879, Note_on_c, 9, 39, 0
1, 116879, Note_on_c, 9, 42, 0
1, 116960, Note_on_c, 9, 42, 50
1, 117119, Note_on_c, 9, 42, 0
1, 117120, Note_on_c, 9, 42, 90
1, 117120, Note_on_c, 9, 35, 90
1, 117279, Note_on_c, 9, 42, 0
1, 117280, Note_on_c, 9, 38, 10
1, 117439, Note_on_c, 9, 38, 0
1, 117440, Note_on_c, 9, 38, 90
1, 117599, Note_on_c, 9, 35, 0
1, 117599, Note_on_c, 9, 38, 0
1, 117600, Note_on_c, 9, 45, 90
1, 117600, Note_on_c, 9, 54, 100
1, 117839, Note_on_c, 9, 45, 0
1, 117839, Note_on_c, 9, 54, 0
1, 117920, Note_on_c, 9, 49, 90
1, 117920, Note_on_c, 9, 35, 100
1, 118079, Note_on_c, 9, 49, 0
1, 118079, Note_on_c, 9, 35, 0
1, 118240, Note_on_c, 9, 38, 100
1, 118399, Note_on_c, 9, 38, 0
1, 118400, Note_on_c, 9, 38, 50
1, 118559, Note_on_c, 9, 38, 0
1, 118560, Note_on_c, 9, 41, 100
1, 118560, Note_on_c, 9, 54, 100
1, 118560, Note_on_c, 9, 39, 60
1, 118719, Note_on_c, 9, 41, 0
1, 118719, Note_on_c, 9, 54, 0
1, 118719, Note_on_c, 9, 39, 0
1, 118720, Note_on_c, 9, 38, 10
1, 118879, Note_on_c, 9, 38, 0
1, 118880, Note_on_c, 9, 38, 20
1, 119039, Note_on_c, 9, 38, 0
1, 119040, Note_on_c, 9, 42, 90
1, 119040, Note_on_c, 9, 49, 100
1, 119040, Note_on_c, 9, 35, 90
1, 119519, Note_on_c, 9, 42, 0
1, 119519, Note_on_c, 9, 49, 0
1, 119519, Note_on_c, 9, 35, 0
1, 119520, Note_on_c, 9, 37, 100
1, 119520, Note_on_c, 9, 54, 100
1, 119520, Note_on_c, 9, 42, 100
1, 119759, Note_on_c, 9, 37, 0
1, 119759, Note_on_c, 9, 54, 0
1, 119759, Note_on_c, 9, 42, 0
1, 119840, Note_on_c, 9, 42, 50
1, 119840, Note_on_c, 9, 35, 70
1, 119999, Note_on_c, 9, 42, 0
1, 119999, Note_on_c, 9, 35, 0
1, 120000, Note_on_c, 9, 42, 80
1, 120000, Note_on_c, 9, 35, 90
1, 120239, Note_on_c, 9, 42, 0
1, 120320, Note_on_c, 9, 42, 60
1, 120479, Note_on_c, 9, 35, 0
1, 120479, Note_on_c, 9, 42, 0
1, 120480, Note_on_c, 9, 37, 100
1, 120480, Note_on_c, 9, 54, 100
1, 120480, Note_on_c, 9, 39, 60
1, 120480, Note_on_c, 9, 42, 100
1, 120719, Note_on_c, 9, 37, 0
1, 120719, Note_on_c, 9, 54, 0
1, 120719, Note_on_c, 9, 39, 0
1, 120719, Note_on_c, 9, 42, 0
1, 120800, Note_on_c, 9, 42, 50
1, 120959, Note_on_c, 9, 42, 0
1, 120960, Note_on_c, 9, 42, 90
1, 120960, Note_on_c, 9, 35, 90
1, 121439, Note_on_c, 9, 42, 0
1, 121439, Note_on_c, 9, 35, 0
1, 121440, Note_on_c, 9, 37, 100
1, 121440, Note_on_c, 9, 54, 100
1, 121440, Note_on_c, 9, 42, 100
1, 121679, Note_on_c, 9, 37, 0
1, 121679, Note_on_c, 9, 54, 0
1, 121679, Note_on_c, 9, 42, 0
1, 121760, Note_on_c, 9, 42, 50
1, 121760, Note_on_c, 9, 35, 70
1, 121919, Note_on_c, 9, 42, 0
1, 121919, Note_on_c, 9, 35, 0
1, 121920, Note_on_c, 9, 42, 80
1, 121920, Note_on_c, 9, 35, 90
1, 122159, Note_on_c, 9, 42, 0
1, 122240, Note_on_c, 9, 42, 60
1, 122399, Note_on_c, 9, 35, 0
1, 122399, Note_on_c, 9, 42, 0
1, 122400, Note_on_c, 9, 37, 100
1, 122400, Note_on_c, 9, 54, 100
1, 122400, Note_on_c, 9, 39, 60
1, 122400, Note_on_c, 9, 42, 100
1, 122639, Note_on_c, 9, 37, 0
1, 122639, Note_on_c, 9, 54, 0
1, 122639, Note_on_c, 9, 39, 0
1, 122639, Note_on_c, 9, 42, 0
1, 122720, Note_on_c, 9, 42, 50
1, 122879, Note_on_c, 9, 42, 0
1, 122880, Note_on_c, 9, 42, 90
1, 122880, Note_on_c, 9, 35, 90
1, 123359, Note_on_c, 9, 42, 0
1, 123359, Note_on_c, 9, 35, 0
1, 123360, Note_on_c, 9, 37, 100
1, 123360, Note_on_c, 9, 54, 100
1, 123360, Note_on_c, 9, 42, 100
1, 123599, Note_on_c, 9, 37, 0
1, 123599, Note_on_c, 9, 54, 0
1, 123599, Note_on_c, 9, 42, 0
1, 123680, Note_on_c, 9, 42, 50
1, 123680, Note_on_c, 9, 35, 70
1, 123839, Note_on_c, 9, 42, 0
1, 123839, Note_on_c, 9, 35, 0
1, 123840, Note_on_c, 9, 42, 80
1, 123840, Note_on_c, 9, 35, 90
1, 124319, Note_on_c, 9, 42, 0
1, 124319, Note_on_c, 9, 35, 0
1, 124320, Note_on_c, 9, 37, 100
1, 124320, Note_on_c, 9, 54, 100
1, 124320, Note_on_c, 9, 39, 60
1, 124320, Note_on_c, 9, 42, 100
1, 124799, Note_on_c, 9, 37, 0
1, 124799, Note_on_c, 9, 54, 0
1, 124799, Note_on_c, 9, 39, 0
1, 124799, Note_on_c, 9, 42, 0
1, 124800, Note_on_c, 9, 42, 90
1, 124800, Note_on_c, 9, 35, 90
1, 125039, Note_on_c, 9, 42, 0
1, 125120, Note_on_c, 9, 42, 40
1, 125279, Note_on_c, 9, 35, 0
1, 125279, Note_on_c, 9, 42, 0
1, 125280, Note_on_c, 9, 37, 100
1, 125280, Note_on_c, 9, 54, 100
1, 125280, Note_on_c, 9, 42, 100
1, 125519, Note_on_c, 9, 37, 0
1, 125519, Note_on_c, 9, 54, 0
1, 125519, Note_on_c, 9, 42, 0
1, 125600, Note_on_c, 9, 42, 50
1, 125600, Note_on_c, 9, 35, 70
1, 125759, Note_on_c, 9, 42, 0
1, 125759, Note_on_c, 9, 35, 0
1, 125760, Note_on_c, 9, 42, 80
1, 125760, Note_on_c, 9, 35, 90
1, 125999, Note_on_c, 9, 42, 0
1, 126080, Note_on_c, 9, 42, 60
1, 126239, Note_on_c, 9, 35, 0
1, 126239, Note_on_c, 9, 42, 0
1, 126240, Note_on_c, 9, 37, 100
1, 126240, Note_on_c, 9, 54, 100
1, 126240, Note_on_c, 9, 39, 60
1, 126240, Note_on_c, 9, 42, 100
1, 126560, Note_on_c, 9, 35, 60
1, 126719, Note_on_c, 9, 37, 0
1, 126719, Note_on_c, 9, 54, 0
1, 126719, Note_on_c, 9, 39, 0
1, 126719, Note_on_c, 9, 42, 0
1, 126719, Note_on_c, 9, 35, 0
1, 126720, Note_on_c, 9, 42, 90
1, 126720, Note_on_c, 9, 35, 90
1, 127199, Note_on_c, 9, 42, 0
1, 127199, Note_on_c, 9, 35, 0
1, 131520, Note_on_c, 9, 42, 80
1, 131520, Note_on_c, 9, 35, 90
1, 131759, Note_on_c, 9, 42, 0
1, 131840, Note_on_c, 9, 42, 60
1, 131999, Note_on_c, 9, 35, 0
1, 131999, Note_on_c, 9, 42, 0
1, 132000, Note_on_c, 9, 37, 100
1, 132000, Note_on_c, 9, 54, 100
1, 132000, Note_on_c, 9, 39, 60
1, 132000, Note_on_c, 9, 42, 100
1, 132239, Note_on_c, 9, 37, 0
1, 132239, Note_on_c, 9, 54, 0
1, 132239, Note_on_c, 9, 39, 0
1, 132239, Note_on_c, 9, 42, 0
1, 132320, Note_on_c, 9, 42, 50
1, 132479, Note_on_c, 9, 42, 0
1, 132480, Note_on_c, 9, 42, 90
1, 132480, Note_on_c, 9, 35, 80
1, 132639, Note_on_c, 9, 42, 0
1, 132640, Note_on_c, 9, 42, 40
1, 132799, Note_on_c, 9, 42, 0
1, 132800, Note_on_c, 9, 42, 50
1, 132959, Note_on_c, 9, 35, 0
1, 132959, Note_on_c, 9, 42, 0
1, 132960, Note_on_c, 9, 42, 100
1, 133199, Note_on_c, 9, 42, 0
1, 133280, Note_on_c, 9, 42, 50
1, 133439, Note_on_c, 9, 42, 0
1, 133440, Note_on_c, 9, 42, 100
1, 133599, Note_on_c, 9, 42, 0
1, 133600, Note_on_c, 9, 42, 50
1, 133759, Note_on_c, 9, 42, 0
1, 133760, Note_on_c, 9, 42, 60
1, 133919, Note_on_c, 9, 42, 0
1, 133920, Note_on_c, 9, 42, 115
1, 134079, Note_on_c, 9, 42, 0
1, 134080, Note_on_c, 9, 42, 60
1, 134239, Note_on_c, 9, 42, 0
1, 134240, Note_on_c, 9, 46, 80
1, 134399, Note_on_c, 9, 46, 0
1, 134400, Note_on_c, 9, 42, 90
1, 134400, Note_on_c, 9, 49, 100
1, 134400, Note_on_c, 9, 35, 90
1, 134879, Note_on_c, 9, 42, 0
1, 134879, Note_on_c, 9, 49, 0
1, 134879, Note_on_c, 9, 35, 0
1, 134880, End_track
0, 0, End_of_file
