0, 0, Header, 1, 10, 480
1, 0, Start_track
1, 0, Time_signature, 4, 2, 24, 8
1, 0, Key_signature, 0, "major"
1, 0, Tempo, 480000
1, 0, Control_c, 9, 121, 0
1, 0, Program_c, 9, 0
1, 0, Control_c, 9, 7, 100
1, 0, Control_c, 9, 10, 64
1, 0, Control_c, 9, 91, 0
1, 0, Control_c, 9, 93, 0
1, 0, MIDI_port, 0
1, 1920, Note_on_c, 9, 36, 127
1, 2399, Note_on_c, 9, 36, 0
1, 4800, Note_on_c, 9, 36, 127
1, 5279, Note_on_c, 9, 36, 0
1, 5280, Note_on_c, 9, 36, 127
1, 5759, Note_on_c, 9, 36, 0
1, 5760, Note_on_c, 9, 36, 127
1, 6239, Note_on_c, 9, 36, 0
1, 8640, Note_on_c, 9, 36, 127
1, 9119, Note_on_c, 9, 36, 0
1, 9120, Note_on_c, 9, 36, 127
1, 9599, Note_on_c, 9, 36, 0
1, 9600, Note_on_c, 9, 36, 127
1, 10079, Note_on_c, 9, 36, 0
1, 10320, Note_on_c, 9, 36, 127
1, 10559, Note_on_c, 9, 36, 0
1, 12480, Note_on_c, 9, 36, 127
1, 12959, Note_on_c, 9, 36, 0
1, 12960, Note_on_c, 9, 36, 127
1, 13439, Note_on_c, 9, 36, 0
1, 13440, Note_on_c, 9, 36, 127
1, 13919, Note_on_c, 9, 36, 0
1, 14160, Note_on_c, 9, 36, 127
1, 14399, Note_on_c, 9, 36, 0
1, 16320, Note_on_c, 9, 36, 127
1, 16799, Note_on_c, 9, 36, 0
1, 16800, Note_on_c, 9, 36, 127
1, 17279, Note_on_c, 9, 36, 0
1, 17280, Note_on_c, 9, 36, 127
1, 17519, Note_on_c, 9, 36, 0
1, 17520, Note_on_c, 9, 36, 127
1, 17759, Note_on_c, 9, 36, 0
1, 18000, Note_on_c, 9, 36, 127
1, 18239, Note_on_c, 9, 36, 0
1, 18240, Note_on_c, 9, 36, 127
1, 18719, Note_on_c, 9, 36, 0
1, 19200, Note_on_c, 9, 36, 127
1, 19439, Note_on_c, 9, 36, 0
1, 19440, Note_on_c, 9, 36, 127
1, 19679, Note_on_c, 9, 36, 0
1, 19920, Note_on_c, 9, 36, 127
1, 20159, Note_on_c, 9, 36, 0
1, 20160, Note_on_c, 9, 36, 127
1, 20639, Note_on_c, 9, 36, 0
1, 20880, Note_on_c, 9, 36, 127
1, 21119, Note_on_c, 9, 36, 0
1, 21120, Note_on_c, 9, 36, 127
1, 21359, Note_on_c, 9, 36, 0
1, 21360, Note_on_c, 9, 36, 127
1, 21599, Note_on_c, 9, 36, 0
1, 21840, Note_on_c, 9, 36, 127
1, 22079, Note_on_c, 9, 36, 0
1, 22080, Note_on_c, 9, 36, 127
1, 22559, Note_on_c, 9, 36, 0
1, 23040, Note_on_c, 9, 36, 127
1, 23279, Note_on_c, 9, 36, 0
1, 23280, Note_on_c, 9, 36, 127
1, 23519, Note_on_c, 9, 36, 0
1, 23760, Note_on_c, 9, 36, 127
1, 23999, Note_on_c, 9, 36, 0
1, 24000, Note_on_c, 9, 36, 127
1, 24479, Note_on_c, 9, 36, 0
1, 24720, Note_on_c, 9, 36, 127
1, 24959, Note_on_c, 9, 36, 0
1, 24960, Note_on_c, 9, 36, 127
1, 25199, Note_on_c, 9, 36, 0
1, 25200, Note_on_c, 9, 36, 127
1, 25439, Note_on_c, 9, 36, 0
1, 25680, Note_on_c, 9, 36, 127
1, 25919, Note_on_c, 9, 36, 0
1, 25920, Note_on_c, 9, 36, 127
1, 26399, Note_on_c, 9, 36, 0
1, 26880, Note_on_c, 9, 36, 127
1, 27119, Note_on_c, 9, 36, 0
1, 27120, Note_on_c, 9, 36, 127
1, 27359, Note_on_c, 9, 36, 0
1, 27600, Note_on_c, 9, 36, 127
1, 27839, Note_on_c, 9, 36, 0
1, 27840, Note_on_c, 9, 36, 127
1, 28319, Note_on_c, 9, 36, 0
1, 28560, Note_on_c, 9, 36, 127
1, 28799, Note_on_c, 9, 36, 0
1, 28800, Note_on_c, 9, 36, 127
1, 29039, Note_on_c, 9, 36, 0
1, 29040, Note_on_c, 9, 36, 127
1, 29279, Note_on_c, 9, 36, 0
1, 29520, Note_on_c, 9, 36, 127
1, 29759, Note_on_c, 9, 36, 0
1, 29760, Note_on_c, 9, 36, 127
1, 30239, Note_on_c, 9, 36, 0
1, 30720, Note_on_c, 9, 36, 127
1, 30959, Note_on_c, 9, 36, 0
1, 30960, Note_on_c, 9, 36, 127
1, 31199, Note_on_c, 9, 36, 0
1, 31440, Note_on_c, 9, 36, 127
1, 31679, Note_on_c, 9, 36, 0
1, 31680, Note_on_c, 9, 36, 127
1, 32159, Note_on_c, 9, 36, 0
1, 32640, Note_on_c, 9, 36, 127
1, 32879, Note_on_c, 9, 36, 0
1, 32880, Note_on_c, 9, 36, 127
1, 33119, Note_on_c, 9, 36, 0
1, 33360, Note_on_c, 9, 36, 127
1, 33599, Note_on_c, 9, 36, 0
1, 33600, Note_on_c, 9, 36, 127
1, 34079, Note_on_c, 9, 36, 0
1, 34320, Note_on_c, 9, 36, 127
1, 34559, Note_on_c, 9, 36, 0
1, 34560, Note_on_c, 9, 36, 127
1, 34799, Note_on_c, 9, 36, 0
1, 34800, Note_on_c, 9, 36, 127
1, 35039, Note_on_c, 9, 36, 0
1, 35280, Note_on_c, 9, 36, 127
1, 35519, Note_on_c, 9, 36, 0
1, 35520, Note_on_c, 9, 36, 127
1, 35999, Note_on_c, 9, 36, 0
1, 36480, Note_on_c, 9, 36, 127
1, 36719, Note_on_c, 9, 36, 0
1, 36720, Note_on_c, 9, 36, 127
1, 36959, Note_on_c, 9, 36, 0
1, 37200, Note_on_c, 9, 36, 127
1, 37439, Note_on_c, 9, 36, 0
1, 37440, Note_on_c, 9, 36, 127
1, 37919, Note_on_c, 9, 36, 0
1, 38160, Note_on_c, 9, 36, 127
1, 38399, Note_on_c, 9, 36, 0
1, 38400, Note_on_c, 9, 36, 127
1, 38639, Note_on_c, 9, 36, 0
1, 38640, Note_on_c, 9, 36, 127
1, 38879, Note_on_c, 9, 36, 0
1, 39120, Note_on_c, 9, 36, 127
1, 39359, Note_on_c, 9, 36, 0
1, 39360, Note_on_c, 9, 36, 127
1, 39839, Note_on_c, 9, 36, 0
1, 40320, Note_on_c, 9, 36, 127
1, 40559, Note_on_c, 9, 36, 0
1, 40560, Note_on_c, 9, 36, 127
1, 40799, Note_on_c, 9, 36, 0
1, 41040, Note_on_c, 9, 36, 127
1, 41279, Note_on_c, 9, 36, 0
1, 41280, Note_on_c, 9, 36, 127
1, 41759, Note_on_c, 9, 36, 0
1, 42000, Note_on_c, 9, 36, 127
1, 42239, Note_on_c, 9, 36, 0
1, 42240, Note_on_c, 9, 36, 127
1, 42479, Note_on_c, 9, 36, 0
1, 42480, Note_on_c, 9, 36, 127
1, 42719, Note_on_c, 9, 36, 0
1, 42960, Note_on_c, 9, 36, 127
1, 43199, Note_on_c, 9, 36, 0
1, 43200, Note_on_c, 9, 36, 127
1, 43679, Note_on_c, 9, 36, 0
1, 44160, Note_on_c, 9, 36, 127
1, 44399, Note_on_c, 9, 36, 0
1, 44400, Note_on_c, 9, 36, 127
1, 44639, Note_on_c, 9, 36, 0
1, 44880, Note_on_c, 9, 36, 127
1, 45119, Note_on_c, 9, 36, 0
1, 45120, Note_on_c, 9, 36, 127
1, 45599, Note_on_c, 9, 36, 0
1, 45840, Note_on_c, 9, 36, 127
1, 46079, Note_on_c, 9, 36, 0
1, 46080, Note_on_c, 9, 36, 127
1, 46319, Note_on_c, 9, 36, 0
1, 46320, Note_on_c, 9, 36, 127
1, 46559, Note_on_c, 9, 36, 0
1, 46800, Note_on_c, 9, 36, 127
1, 47039, Note_on_c, 9, 36, 0
1, 47040, Note_on_c, 9, 36, 127
1, 47519, Note_on_c, 9, 36, 0
1, 48000, Note_on_c, 9, 36, 127
1, 48239, Note_on_c, 9, 36, 0
1, 48240, Note_on_c, 9, 36, 127
1, 48479, Note_on_c, 9, 36, 0
1, 48720, Note_on_c, 9, 36, 127
1, 48959, Note_on_c, 9, 36, 0
1, 48960, Note_on_c, 9, 36, 127
1, 49439, Note_on_c, 9, 36, 0
1, 49680, Note_on_c, 9, 36, 127
1, 49919, Note_on_c, 9, 36, 0
1, 49920, Note_on_c, 9, 36, 127
1, 50159, Note_on_c, 9, 36, 0
1, 50160, Note_on_c, 9, 36, 127
1, 50399, Note_on_c, 9, 36, 0
1, 50640, Note_on_c, 9, 36, 127
1, 50879, Note_on_c, 9, 36, 0
1, 50880, Note_on_c, 9, 36, 127
1, 51359, Note_on_c, 9, 36, 0
1, 51840, Note_on_c, 9, 36, 127
1, 52319, Note_on_c, 9, 36, 0
1, 53760, Note_on_c, 9, 36, 127
1, 53999, Note_on_c, 9, 36, 0
1, 54000, Note_on_c, 9, 36, 127
1, 54239, Note_on_c, 9, 36, 0
1, 54480, Note_on_c, 9, 36, 127
1, 54719, Note_on_c, 9, 36, 0
1, 54720, Note_on_c, 9, 36, 127
1, 55199, Note_on_c, 9, 36, 0
1, 55680, Note_on_c, 9, 36, 127
1, 55919, Note_on_c, 9, 36, 0
1, 55920, Note_on_c, 9, 36, 127
1, 56159, Note_on_c, 9, 36, 0
1, 56400, Note_on_c, 9, 36, 127
1, 56639, Note_on_c, 9, 36, 0
1, 56640, Note_on_c, 9, 36, 127
1, 57119, Note_on_c, 9, 36, 0
1, 57360, Note_on_c, 9, 36, 127
1, 57599, Note_on_c, 9, 36, 0
1, 57600, Note_on_c, 9, 36, 127
1, 57839, Note_on_c, 9, 36, 0
1, 57840, Note_on_c, 9, 36, 127
1, 58079, Note_on_c, 9, 36, 0
1, 58320, Note_on_c, 9, 36, 127
1, 58559, Note_on_c, 9, 36, 0
1, 58560, Note_on_c, 9, 36, 127
1, 59039, Note_on_c, 9, 36, 0
1, 59520, Note_on_c, 9, 36, 127
1, 59759, Note_on_c, 9, 36, 0
1, 59760, Note_on_c, 9, 36, 127
1, 59999, Note_on_c, 9, 36, 0
1, 60240, Note_on_c, 9, 36, 127
1, 60479, Note_on_c, 9, 36, 0
1, 60480, Note_on_c, 9, 36, 127
1, 60959, Note_on_c, 9, 36, 0
1, 61200, Note_on_c, 9, 36, 127
1, 61439, Note_on_c, 9, 36, 0
1, 61440, Note_on_c, 9, 36, 127
1, 61679, Note_on_c, 9, 36, 0
1, 61680, Note_on_c, 9, 36, 127
1, 61919, Note_on_c, 9, 36, 0
1, 62160, Note_on_c, 9, 36, 127
1, 62399, Note_on_c, 9, 36, 0
1, 62400, Note_on_c, 9, 36, 127
1, 62879, Note_on_c, 9, 36, 0
1, 63360, Note_on_c, 9, 36, 127
1, 63599, Note_on_c, 9, 36, 0
1, 63600, Note_on_c, 9, 36, 127
1, 63839, Note_on_c, 9, 36, 0
1, 64080, Note_on_c, 9, 36, 127
1, 64319, Note_on_c, 9, 36, 0
1, 64320, Note_on_c, 9, 36, 127
1, 64799, Note_on_c, 9, 36, 0
1, 65040, Note_on_c, 9, 36, 127
1, 65279, Note_on_c, 9, 36, 0
1, 65280, Note_on_c, 9, 36, 127
1, 65519, Note_on_c, 9, 36, 0
1, 65520, Note_on_c, 9, 36, 127
1, 65759, Note_on_c, 9, 36, 0
1, 66000, Note_on_c, 9, 36, 127
1, 66239, Note_on_c, 9, 36, 0
1, 66240, Note_on_c, 9, 36, 127
1, 66719, Note_on_c, 9, 36, 0
1, 67200, Note_on_c, 9, 36, 127
1, 67439, Note_on_c, 9, 36, 0
1, 67440, Note_on_c, 9, 36, 127
1, 67679, Note_on_c, 9, 36, 0
1, 67920, Note_on_c, 9, 36, 127
1, 68159, Note_on_c, 9, 36, 0
1, 68160, Note_on_c, 9, 36, 127
1, 68639, Note_on_c, 9, 36, 0
1, 69120, Note_on_c, 9, 36, 127
1, 69359, Note_on_c, 9, 36, 0
1, 69360, Note_on_c, 9, 36, 127
1, 69599, Note_on_c, 9, 36, 0
1, 69840, Note_on_c, 9, 36, 127
1, 70079, Note_on_c, 9, 36, 0
1, 70080, Note_on_c, 9, 36, 127
1, 70559, Note_on_c, 9, 36, 0
1, 70800, Note_on_c, 9, 36, 127
1, 71039, Note_on_c, 9, 36, 0
1, 71040, Note_on_c, 9, 36, 127
1, 71279, Note_on_c, 9, 36, 0
1, 71280, Note_on_c, 9, 36, 127
1, 71519, Note_on_c, 9, 36, 0
1, 71760, Note_on_c, 9, 36, 127
1, 71999, Note_on_c, 9, 36, 0
1, 72000, Note_on_c, 9, 36, 127
1, 72479, Note_on_c, 9, 36, 0
1, 72960, Note_on_c, 9, 36, 127
1, 73199, Note_on_c, 9, 36, 0
1, 73200, Note_on_c, 9, 36, 127
1, 73439, Note_on_c, 9, 36, 0
1, 73680, Note_on_c, 9, 36, 127
1, 73919, Note_on_c, 9, 36, 0
1, 73920, Note_on_c, 9, 36, 127
1, 74399, Note_on_c, 9, 36, 0
1, 74640, Note_on_c, 9, 36, 127
1, 74879, Note_on_c, 9, 36, 0
1, 74880, Note_on_c, 9, 36, 127
1, 75119, Note_on_c, 9, 36, 0
1, 75120, Note_on_c, 9, 36, 127
1, 75359, Note_on_c, 9, 36, 0
1, 75600, Note_on_c, 9, 36, 127
1, 75839, Note_on_c, 9, 36, 0
1, 75840, Note_on_c, 9, 36, 127
1, 76319, Note_on_c, 9, 36, 0
1, 76800, Note_on_c, 9, 36, 127
1, 77039, Note_on_c, 9, 36, 0
1, 77040, Note_on_c, 9, 36, 127
1, 77279, Note_on_c, 9, 36, 0
1, 77520, Note_on_c, 9, 36, 127
1, 77759, Note_on_c, 9, 36, 0
1, 77760, Note_on_c, 9, 36, 127
1, 78239, Note_on_c, 9, 36, 0
1, 78480, Note_on_c, 9, 36, 127
1, 78719, Note_on_c, 9, 36, 0
1, 78720, Note_on_c, 9, 36, 127
1, 78959, Note_on_c, 9, 36, 0
1, 78960, Note_on_c, 9, 36, 127
1, 79199, Note_on_c, 9, 36, 0
1, 79440, Note_on_c, 9, 36, 127
1, 79679, Note_on_c, 9, 36, 0
1, 79680, Note_on_c, 9, 36, 127
1, 80159, Note_on_c, 9, 36, 0
1, 80640, Note_on_c, 9, 36, 127
1, 80879, Note_on_c, 9, 36, 0
1, 80880, Note_on_c, 9, 36, 127
1, 81119, Note_on_c, 9, 36, 0
1, 81360, Note_on_c, 9, 36, 127
1, 81599, Note_on_c, 9, 36, 0
1, 81600, Note_on_c, 9, 36, 127
1, 82079, Note_on_c, 9, 36, 0
1, 82320, Note_on_c, 9, 36, 127
1, 82559, Note_on_c, 9, 36, 0
1, 82560, Note_on_c, 9, 36, 127
1, 82799, Note_on_c, 9, 36, 0
1, 82800, Note_on_c, 9, 36, 127
1, 83039, Note_on_c, 9, 36, 0
1, 83280, Note_on_c, 9, 36, 127
1, 83519, Note_on_c, 9, 36, 0
1, 83520, Note_on_c, 9, 36, 127
1, 83999, Note_on_c, 9, 36, 0
1, 84480, Note_on_c, 9, 36, 127
1, 84719, Note_on_c, 9, 36, 0
1, 84720, Note_on_c, 9, 36, 127
1, 84959, Note_on_c, 9, 36, 0
1, 85200, Note_on_c, 9, 36, 127
1, 85439, Note_on_c, 9, 36, 0
1, 85440, Note_on_c, 9, 36, 127
1, 85919, Note_on_c, 9, 36, 0
1, 86160, Note_on_c, 9, 36, 127
1, 86399, Note_on_c, 9, 36, 0
1, 86400, Note_on_c, 9, 36, 127
1, 86639, Note_on_c, 9, 36, 0
1, 86640, Note_on_c, 9, 36, 127
1, 86879, Note_on_c, 9, 36, 0
1, 87120, Note_on_c, 9, 36, 127
1, 87359, Note_on_c, 9, 36, 0
1, 87360, Note_on_c, 9, 36, 127
1, 87839, Note_on_c, 9, 36, 0
1, 88320, Note_on_c, 9, 36, 127
1, 88799, Note_on_c, 9, 36, 0
1, 90240, Note_on_c, 9, 36, 127
1, 90479, Note_on_c, 9, 36, 0
1, 90480, Note_on_c, 9, 36, 127
1, 90719, Note_on_c, 9, 36, 0
1, 90960, Note_on_c, 9, 36, 127
1, 91199, Note_on_c, 9, 36, 0
1, 91200, Note_on_c, 9, 36, 127
1, 91679, Note_on_c, 9, 36, 0
1, 92160, Note_on_c, 9, 36, 127
1, 92399, Note_on_c, 9, 36, 0
1, 92400, Note_on_c, 9, 36, 127
1, 92639, Note_on_c, 9, 36, 0
1, 92880, Note_on_c, 9, 36, 127
1, 93119, Note_on_c, 9, 36, 0
1, 93120, Note_on_c, 9, 36, 127
1, 93599, Note_on_c, 9, 36, 0
1, 93840, Note_on_c, 9, 36, 127
1, 94079, Note_on_c, 9, 36, 0
1, 94080, Note_on_c, 9, 36, 127
1, 94319, Note_on_c, 9, 36, 0
1, 94320, Note_on_c, 9, 36, 127
1, 94559, Note_on_c, 9, 36, 0
1, 94800, Note_on_c, 9, 36, 127
1, 95039, Note_on_c, 9, 36, 0
1, 95040, Note_on_c, 9, 36, 127
1, 95519, Note_on_c, 9, 36, 0
1, 96000, Note_on_c, 9, 36, 127
1, 96239, Note_on_c, 9, 36, 0
1, 96240, Note_on_c, 9, 36, 127
1, 96479, Note_on_c, 9, 36, 0
1, 96720, Note_on_c, 9, 36, 127
1, 96959, Note_on_c, 9, 36, 0
1, 96960, Note_on_c, 9, 36, 127
1, 97439, Note_on_c, 9, 36, 0
1, 97680, Note_on_c, 9, 36, 127
1, 97919, Note_on_c, 9, 36, 0
1, 97920, Note_on_c, 9, 36, 127
1, 98159, Note_on_c, 9, 36, 0
1, 98160, Note_on_c, 9, 36, 127
1, 98399, Note_on_c, 9, 36, 0
1, 98640, Note_on_c, 9, 36, 127
1, 98879, Note_on_c, 9, 36, 0
1, 98880, Note_on_c, 9, 36, 127
1, 99359, Note_on_c, 9, 36, 0
1, 99840, Note_on_c, 9, 36, 127
1, 100079, Note_on_c, 9, 36, 0
1, 100080, Note_on_c, 9, 36, 127
1, 100319, Note_on_c, 9, 36, 0
1, 100560, Note_on_c, 9, 36, 127
1, 100799, Note_on_c, 9, 36, 0
1, 100800, Note_on_c, 9, 36, 127
1, 101279, Note_on_c, 9, 36, 0
1, 101520, Note_on_c, 9, 36, 127
1, 101759, Note_on_c, 9, 36, 0
1, 101760, Note_on_c, 9, 36, 127
1, 101999, Note_on_c, 9, 36, 0
1, 102000, Note_on_c, 9, 36, 127
1, 102239, Note_on_c, 9, 36, 0
1, 102480, Note_on_c, 9, 36, 127
1, 102719, Note_on_c, 9, 36, 0
1, 102720, Note_on_c, 9, 36, 127
1, 103199, Note_on_c, 9, 36, 0
1, 103680, Note_on_c, 9, 36, 127
1, 103919, Note_on_c, 9, 36, 0
1, 103920, Note_on_c, 9, 36, 127
1, 104159, Note_on_c, 9, 36, 0
1, 104400, Note_on_c, 9, 36, 127
1, 104639, Note_on_c, 9, 36, 0
1, 104640, Note_on_c, 9, 36, 127
1, 105119, Note_on_c, 9, 36, 0
1, 105600, Note_on_c, 9, 36, 127
1, 105839, Note_on_c, 9, 36, 0
1, 105840, Note_on_c, 9, 36, 127
1, 106079, Note_on_c, 9, 36, 0
1, 106320, Note_on_c, 9, 36, 127
1, 106559, Note_on_c, 9, 36, 0
1, 106560, Note_on_c, 9, 36, 127
1, 107039, Note_on_c, 9, 36, 0
1, 107280, Note_on_c, 9, 36, 127
1, 107519, Note_on_c, 9, 36, 0
1, 107520, Note_on_c, 9, 36, 127
1, 107759, Note_on_c, 9, 36, 0
1, 107760, Note_on_c, 9, 36, 127
1, 107999, Note_on_c, 9, 36, 0
1, 108240, Note_on_c, 9, 36, 127
1, 108479, Note_on_c, 9, 36, 0
1, 108480, Note_on_c, 9, 36, 127
1, 108959, Note_on_c, 9, 36, 0
1, 109440, Note_on_c, 9, 36, 127
1, 109679, Note_on_c, 9, 36, 0
1, 109680, Note_on_c, 9, 36, 127
1, 109919, Note_on_c, 9, 36, 0
1, 110160, Note_on_c, 9, 36, 127
1, 110399, Note_on_c, 9, 36, 0
1, 110400, Note_on_c, 9, 36, 127
1, 110879, Note_on_c, 9, 36, 0
1, 111120, Note_on_c, 9, 36, 127
1, 111359, Note_on_c, 9, 36, 0
1, 111360, Note_on_c, 9, 36, 127
1, 111599, Note_on_c, 9, 36, 0
1, 111600, Note_on_c, 9, 36, 127
1, 111839, Note_on_c, 9, 36, 0
1, 112080, Note_on_c, 9, 36, 127
1, 112319, Note_on_c, 9, 36, 0
1, 112320, Note_on_c, 9, 36, 127
1, 112799, Note_on_c, 9, 36, 0
1, 113280, Note_on_c, 9, 36, 127
1, 113519, Note_on_c, 9, 36, 0
1, 113520, Note_on_c, 9, 36, 127
1, 113759, Note_on_c, 9, 36, 0
1, 114000, Note_on_c, 9, 36, 127
1, 114239, Note_on_c, 9, 36, 0
1, 114240, Note_on_c, 9, 36, 127
1, 114719, Note_on_c, 9, 36, 0
1, 114960, Note_on_c, 9, 36, 127
1, 115199, Note_on_c, 9, 36, 0
1, 115200, Note_on_c, 9, 36, 127
1, 115439, Note_on_c, 9, 36, 0
1, 115440, Note_on_c, 9, 36, 127
1, 115679, Note_on_c, 9, 36, 0
1, 115920, Note_on_c, 9, 36, 127
1, 116159, Note_on_c, 9, 36, 0
1, 116160, Note_on_c, 9, 36, 127
1, 116639, Note_on_c, 9, 36, 0
1, 117120, Note_on_c, 9, 36, 127
1, 117359, Note_on_c, 9, 36, 0
1, 117360, Note_on_c, 9, 36, 127
1, 117599, Note_on_c, 9, 36, 0
1, 117840, Note_on_c, 9, 36, 127
1, 118079, Note_on_c, 9, 36, 0
1, 118080, Note_on_c, 9, 36, 127
1, 118559, Note_on_c, 9, 36, 0
1, 118800, Note_on_c, 9, 36, 127
1, 119039, Note_on_c, 9, 36, 0
1, 119040, Note_on_c, 9, 36, 127
1, 119279, Note_on_c, 9, 36, 0
1, 119280, Note_on_c, 9, 36, 127
1, 119519, Note_on_c, 9, 36, 0
1, 119760, Note_on_c, 9, 36, 127
1, 119999, Note_on_c, 9, 36, 0
1, 120000, Note_on_c, 9, 36, 127
1, 120479, Note_on_c, 9, 36, 0
1, 120960, Note_on_c, 9, 36, 127
1, 121199, Note_on_c, 9, 36, 0
1, 121200, Note_on_c, 9, 36, 127
1, 121439, Note_on_c, 9, 36, 0
1, 121680, Note_on_c, 9, 36, 127
1, 121919, Note_on_c, 9, 36, 0
1, 121920, Note_on_c, 9, 36, 127
1, 122399, Note_on_c, 9, 36, 0
1, 122640, Note_on_c, 9, 36, 127
1, 122879, Note_on_c, 9, 36, 0
1, 122880, Note_on_c, 9, 36, 127
1, 123119, Note_on_c, 9, 36, 0
1, 123120, Note_on_c, 9, 36, 127
1, 123359, Note_on_c, 9, 36, 0
1, 123600, Note_on_c, 9, 36, 127
1, 123839, Note_on_c, 9, 36, 0
1, 123840, Note_on_c, 9, 36, 127
1, 124319, Note_on_c, 9, 36, 0
1, 124800, Note_on_c, 9, 36, 127
1, 125279, Note_on_c, 9, 36, 0
1, 126720, Note_on_c, 9, 36, 127
1, 126959, Note_on_c, 9, 36, 0
1, 126960, Note_on_c, 9, 36, 127
1, 127199, Note_on_c, 9, 36, 0
1, 127440, Note_on_c, 9, 36, 127
1, 127679, Note_on_c, 9, 36, 0
1, 127680, Note_on_c, 9, 36, 127
1, 128159, Note_on_c, 9, 36, 0
1, 128640, Note_on_c, 9, 36, 127
1, 128879, Note_on_c, 9, 36, 0
1, 128880, Note_on_c, 9, 36, 127
1, 129119, Note_on_c, 9, 36, 0
1, 129360, Note_on_c, 9, 36, 127
1, 129599, Note_on_c, 9, 36, 0
1, 129600, Note_on_c, 9, 36, 127
1, 130079, Note_on_c, 9, 36, 0
1, 130320, Note_on_c, 9, 36, 127
1, 130559, Note_on_c, 9, 36, 0
1, 130560, Note_on_c, 9, 36, 127
1, 130799, Note_on_c, 9, 36, 0
1, 130800, Note_on_c, 9, 36, 127
1, 131039, Note_on_c, 9, 36, 0
1, 131280, Note_on_c, 9, 36, 127
1, 131519, Note_on_c, 9, 36, 0
1, 131520, Note_on_c, 9, 36, 127
1, 131999, Note_on_c, 9, 36, 0
1, 132480, Note_on_c, 9, 36, 127
1, 132719, Note_on_c, 9, 36, 0
1, 132720, Note_on_c, 9, 36, 127
1, 132959, Note_on_c, 9, 36, 0
1, 133200, Note_on_c, 9, 36, 127
1, 133439, Note_on_c, 9, 36, 0
1, 133440, Note_on_c, 9, 36, 127
1, 133919, Note_on_c, 9, 36, 0
1, 134160, Note_on_c, 9, 36, 127
1, 134399, Note_on_c, 9, 36, 0
1, 134400, Note_on_c, 9, 36, 127
1, 134639, Note_on_c, 9, 36, 0
1, 134640, Note_on_c, 9, 36, 127
1, 134879, Note_on_c, 9, 36, 0
1, 135120, Note_on_c, 9, 36, 127
1, 135359, Note_on_c, 9, 36, 0
1, 135360, Note_on_c, 9, 36, 127
1, 135839, Note_on_c, 9, 36, 0
1, 136320, Note_on_c, 9, 36, 127
1, 136559, Note_on_c, 9, 36, 0
1, 136560, Note_on_c, 9, 36, 127
1, 136799, Note_on_c, 9, 36, 0
1, 137040, Note_on_c, 9, 36, 127
1, 137279, Note_on_c, 9, 36, 0
1, 137280, Note_on_c, 9, 36, 127
1, 137759, Note_on_c, 9, 36, 0
1, 138000, Note_on_c, 9, 36, 127
1, 138239, Note_on_c, 9, 36, 0
1, 138240, Note_on_c, 9, 36, 127
1, 138479, Note_on_c, 9, 36, 0
1, 138480, Note_on_c, 9, 36, 127
1, 138719, Note_on_c, 9, 36, 0
1, 138960, Note_on_c, 9, 36, 127
1, 139199, Note_on_c, 9, 36, 0
1, 139200, Note_on_c, 9, 36, 127
1, 139679, Note_on_c, 9, 36, 0
1, 140160, Note_on_c, 9, 36, 127
1, 140399, Note_on_c, 9, 36, 0
1, 140400, Note_on_c, 9, 36, 127
1, 140639, Note_on_c, 9, 36, 0
1, 140880, Note_on_c, 9, 36, 127
1, 141119, Note_on_c, 9, 36, 0
1, 141120, Note_on_c, 9, 36, 127
1, 141599, Note_on_c, 9, 36, 0
1, 142080, Note_on_c, 9, 36, 127
1, 142319, Note_on_c, 9, 36, 0
1, 142320, Note_on_c, 9, 36, 127
1, 142559, Note_on_c, 9, 36, 0
1, 142800, Note_on_c, 9, 36, 127
1, 143039, Note_on_c, 9, 36, 0
1, 143040, Note_on_c, 9, 36, 127
1, 143519, Note_on_c, 9, 36, 0
1, 143760, Note_on_c, 9, 36, 127
1, 143999, Note_on_c, 9, 36, 0
1, 144000, Note_on_c, 9, 36, 127
1, 144239, Note_on_c, 9, 36, 0
1, 144240, Note_on_c, 9, 36, 127
1, 144479, Note_on_c, 9, 36, 0
1, 144720, Note_on_c, 9, 36, 127
1, 144959, Note_on_c, 9, 36, 0
1, 144960, Note_on_c, 9, 36, 127
1, 145439, Note_on_c, 9, 36, 0
1, 145920, Note_on_c, 9, 36, 127
1, 146159, Note_on_c, 9, 36, 0
1, 146160, Note_on_c, 9, 36, 127
1, 146399, Note_on_c, 9, 36, 0
1, 146640, Note_on_c, 9, 36, 127
1, 146879, Note_on_c, 9, 36, 0
1, 146880, Note_on_c, 9, 36, 127
1, 147359, Note_on_c, 9, 36, 0
1, 147600, Note_on_c, 9, 36, 127
1, 147839, Note_on_c, 9, 36, 0
1, 147840, Note_on_c, 9, 36, 127
1, 148079, Note_on_c, 9, 36, 0
1, 148080, Note_on_c, 9, 36, 127
1, 148319, Note_on_c, 9, 36, 0
1, 148560, Note_on_c, 9, 36, 127
1, 148799, Note_on_c, 9, 36, 0
1, 148800, Note_on_c, 9, 36, 127
1, 149279, Note_on_c, 9, 36, 0
1, 149760, Note_on_c, 9, 36, 127
1, 149999, Note_on_c, 9, 36, 0
1, 150000, Note_on_c, 9, 36, 127
1, 150239, Note_on_c, 9, 36, 0
1, 150480, Note_on_c, 9, 36, 127
1, 150719, Note_on_c, 9, 36, 0
1, 150720, Note_on_c, 9, 36, 127
1, 151199, Note_on_c, 9, 36, 0
1, 151440, Note_on_c, 9, 36, 127
1, 151679, Note_on_c, 9, 36, 0
1, 151680, Note_on_c, 9, 36, 127
1, 151919, Note_on_c, 9, 36, 0
1, 151920, Note_on_c, 9, 36, 127
1, 152159, Note_on_c, 9, 36, 0
1, 152400, Note_on_c, 9, 36, 127
1, 152639, Note_on_c, 9, 36, 0
1, 152640, Note_on_c, 9, 36, 127
1, 153119, Note_on_c, 9, 36, 0
1, 153600, Note_on_c, 9, 36, 127
1, 153839, Note_on_c, 9, 36, 0
1, 153840, Note_on_c, 9, 36, 127
1, 154079, Note_on_c, 9, 36, 0
1, 154320, Note_on_c, 9, 36, 127
1, 154559, Note_on_c, 9, 36, 0
1, 154560, Note_on_c, 9, 36, 127
1, 155039, Note_on_c, 9, 36, 0
1, 155280, Note_on_c, 9, 36, 127
1, 155519, Note_on_c, 9, 36, 0
1, 155520, Note_on_c, 9, 36, 127
1, 155759, Note_on_c, 9, 36, 0
1, 155760, Note_on_c, 9, 36, 127
1, 155999, Note_on_c, 9, 36, 0
1, 156240, Note_on_c, 9, 36, 127
1, 156479, Note_on_c, 9, 36, 0
1, 156480, Note_on_c, 9, 36, 127
1, 156959, Note_on_c, 9, 36, 0
1, 157440, Note_on_c, 9, 36, 127
1, 157679, Note_on_c, 9, 36, 0
1, 157680, Note_on_c, 9, 36, 127
1, 157919, Note_on_c, 9, 36, 0
1, 158160, Note_on_c, 9, 36, 127
1, 158399, Note_on_c, 9, 36, 0
1, 158400, Note_on_c, 9, 36, 127
1, 158879, Note_on_c, 9, 36, 0
1, 159120, Note_on_c, 9, 36, 127
1, 159359, Note_on_c, 9, 36, 0
1, 159360, Note_on_c, 9, 36, 127
1, 159599, Note_on_c, 9, 36, 0
1, 159600, Note_on_c, 9, 36, 127
1, 159839, Note_on_c, 9, 36, 0
1, 160080, Note_on_c, 9, 36, 127
1, 160319, Note_on_c, 9, 36, 0
1, 160320, Note_on_c, 9, 36, 127
1, 160799, Note_on_c, 9, 36, 0
1, 161280, Note_on_c, 9, 36, 127
1, 161759, Note_on_c, 9, 36, 0
1, 163200, Note_on_c, 9, 36, 127
1, 163439, Note_on_c, 9, 36, 0
1, 163440, Note_on_c, 9, 36, 127
1, 163679, Note_on_c, 9, 36, 0
1, 163920, Note_on_c, 9, 36, 127
1, 164159, Note_on_c, 9, 36, 0
1, 164160, Note_on_c, 9, 36, 127
1, 164639, Note_on_c, 9, 36, 0
1, 165120, Note_on_c, 9, 36, 127
1, 165359, Note_on_c, 9, 36, 0
1, 165360, Note_on_c, 9, 36, 127
1, 165599, Note_on_c, 9, 36, 0
1, 165840, Note_on_c, 9, 36, 127
1, 166079, Note_on_c, 9, 36, 0
1, 166080, Note_on_c, 9, 36, 127
1, 166559, Note_on_c, 9, 36, 0
1, 166800, Note_on_c, 9, 36, 127
1, 167039, Note_on_c, 9, 36, 0
1, 167040, Note_on_c, 9, 36, 127
1, 167279, Note_on_c, 9, 36, 0
1, 167280, Note_on_c, 9, 36, 127
1, 167519, Note_on_c, 9, 36, 0
1, 167760, Note_on_c, 9, 36, 127
1, 167999, Note_on_c, 9, 36, 0
1, 168000, Note_on_c, 9, 36, 127
1, 168479, Note_on_c, 9, 36, 0
1, 168960, Note_on_c, 9, 36, 127
1, 169199, Note_on_c, 9, 36, 0
1, 169200, Note_on_c, 9, 36, 127
1, 169439, Note_on_c, 9, 36, 0
1, 169680, Note_on_c, 9, 36, 127
1, 169919, Note_on_c, 9, 36, 0
1, 169920, Note_on_c, 9, 36, 127
1, 170399, Note_on_c, 9, 36, 0
1, 170640, Note_on_c, 9, 36, 127
1, 170879, Note_on_c, 9, 36, 0
1, 170880, Note_on_c, 9, 36, 127
1, 171119, Note_on_c, 9, 36, 0
1, 171120, Note_on_c, 9, 36, 127
1, 171359, Note_on_c, 9, 36, 0
1, 171600, Note_on_c, 9, 36, 127
1, 171839, Note_on_c, 9, 36, 0
1, 171840, Note_on_c, 9, 36, 127
1, 172319, Note_on_c, 9, 36, 0
1, 172800, Note_on_c, 9, 36, 127
1, 173039, Note_on_c, 9, 36, 0
1, 173040, Note_on_c, 9, 36, 127
1, 173279, Note_on_c, 9, 36, 0
1, 173520, Note_on_c, 9, 36, 127
1, 173759, Note_on_c, 9, 36, 0
1, 173760, Note_on_c, 9, 36, 127
1, 174239, Note_on_c, 9, 36, 0
1, 174480, Note_on_c, 9, 36, 127
1, 174719, Note_on_c, 9, 36, 0
1, 174720, Note_on_c, 9, 36, 127
1, 174959, Note_on_c, 9, 36, 0
1, 174960, Note_on_c, 9, 36, 127
1, 175199, Note_on_c, 9, 36, 0
1, 175440, Note_on_c, 9, 36, 127
1, 175679, Note_on_c, 9, 36, 0
1, 175680, Note_on_c, 9, 36, 127
1, 176159, Note_on_c, 9, 36, 0
1, 176640, Note_on_c, 9, 36, 127
1, 176879, Note_on_c, 9, 36, 0
1, 176880, Note_on_c, 9, 36, 127
1, 177119, Note_on_c, 9, 36, 0
1, 177360, Note_on_c, 9, 36, 127
1, 177599, Note_on_c, 9, 36, 0
1, 177600, Note_on_c, 9, 36, 127
1, 178079, Note_on_c, 9, 36, 0
1, 178560, Note_on_c, 9, 36, 127
1, 178799, Note_on_c, 9, 36, 0
1, 178800, Note_on_c, 9, 36, 127
1, 179039, Note_on_c, 9, 36, 0
1, 179280, Note_on_c, 9, 36, 127
1, 179519, Note_on_c, 9, 36, 0
1, 179520, Note_on_c, 9, 36, 127
1, 179999, Note_on_c, 9, 36, 0
1, 180240, Note_on_c, 9, 36, 127
1, 180479, Note_on_c, 9, 36, 0
1, 180480, Note_on_c, 9, 36, 127
1, 180719, Note_on_c, 9, 36, 0
1, 180720, Note_on_c, 9, 36, 127
1, 180959, Note_on_c, 9, 36, 0
1, 181200, Note_on_c, 9, 36, 127
1, 181439, Note_on_c, 9, 36, 0
1, 181440, Note_on_c, 9, 36, 127
1, 181919, Note_on_c, 9, 36, 0
1, 182400, Note_on_c, 9, 36, 127
1, 182639, Note_on_c, 9, 36, 0
1, 182640, Note_on_c, 9, 36, 127
1, 182879, Note_on_c, 9, 36, 0
1, 183120, Note_on_c, 9, 36, 127
1, 183359, Note_on_c, 9, 36, 0
1, 183360, Note_on_c, 9, 36, 127
1, 183839, Note_on_c, 9, 36, 0
1, 184080, Note_on_c, 9, 36, 127
1, 184319, Note_on_c, 9, 36, 0
1, 184320, Note_on_c, 9, 36, 127
1, 184559, Note_on_c, 9, 36, 0
1, 184560, Note_on_c, 9, 36, 127
1, 184799, Note_on_c, 9, 36, 0
1, 185040, Note_on_c, 9, 36, 127
1, 185279, Note_on_c, 9, 36, 0
1, 185280, Note_on_c, 9, 36, 127
1, 185759, Note_on_c, 9, 36, 0
1, 186240, Note_on_c, 9, 36, 127
1, 186479, Note_on_c, 9, 36, 0
1, 186480, Note_on_c, 9, 36, 127
1, 186719, Note_on_c, 9, 36, 0
1, 186960, Note_on_c, 9, 36, 127
1, 187199, Note_on_c, 9, 36, 0
1, 187200, Note_on_c, 9, 36, 127
1, 187679, Note_on_c, 9, 36, 0
1, 187920, Note_on_c, 9, 36, 127
1, 188159, Note_on_c, 9, 36, 0
1, 188160, Note_on_c, 9, 36, 127
1, 188399, Note_on_c, 9, 36, 0
1, 188400, Note_on_c, 9, 36, 127
1, 188639, Note_on_c, 9, 36, 0
1, 188880, Note_on_c, 9, 36, 127
1, 189119, Note_on_c, 9, 36, 0
1, 189120, Note_on_c, 9, 36, 127
1, 189599, Note_on_c, 9, 36, 0
1, 190080, Note_on_c, 9, 36, 127
1, 190319, Note_on_c, 9, 36, 0
1, 190320, Note_on_c, 9, 36, 127
1, 190559, Note_on_c, 9, 36, 0
1, 190800, Note_on_c, 9, 36, 127
1, 191039, Note_on_c, 9, 36, 0
1, 191040, Note_on_c, 9, 36, 127
1, 191519, Note_on_c, 9, 36, 0
1, 191760, Note_on_c, 9, 36, 127
1, 191999, Note_on_c, 9, 36, 0
1, 192000, Note_on_c, 9, 36, 127
1, 192239, Note_on_c, 9, 36, 0
1, 192240, Note_on_c, 9, 36, 127
1, 192479, Note_on_c, 9, 36, 0
1, 192720, Note_on_c, 9, 36, 127
1, 192959, Note_on_c, 9, 36, 0
1, 192960, Note_on_c, 9, 36, 127
1, 193439, Note_on_c, 9, 36, 0
1, 193920, Note_on_c, 9, 36, 127
1, 194159, Note_on_c, 9, 36, 0
1, 194160, Note_on_c, 9, 36, 127
1, 194399, Note_on_c, 9, 36, 0
1, 194640, Note_on_c, 9, 36, 127
1, 194879, Note_on_c, 9, 36, 0
1, 194880, Note_on_c, 9, 36, 127
1, 195359, Note_on_c, 9, 36, 0
1, 195600, Note_on_c, 9, 36, 127
1, 195839, Note_on_c, 9, 36, 0
1, 195840, Note_on_c, 9, 36, 127
1, 196079, Note_on_c, 9, 36, 0
1, 196080, Note_on_c, 9, 36, 127
1, 196319, Note_on_c, 9, 36, 0
1, 196560, Note_on_c, 9, 36, 127
1, 196799, Note_on_c, 9, 36, 0
1, 196800, Note_on_c, 9, 36, 127
1, 197279, Note_on_c, 9, 36, 0
1, 197760, Note_on_c, 9, 36, 127
1, 198239, Note_on_c, 9, 36, 0
1, 199680, Note_on_c, 9, 36, 127
1, 199919, Note_on_c, 9, 36, 0
1, 199920, Note_on_c, 9, 36, 127
1, 200159, Note_on_c, 9, 36, 0
1, 200400, Note_on_c, 9, 36, 127
1, 200639, Note_on_c, 9, 36, 0
1, 200880, Note_on_c, 9, 36, 127
1, 201119, Note_on_c, 9, 36, 0
1, 201120, Note_on_c, 9, 36, 127
1, 201599, Note_on_c, 9, 36, 0
1, 201600, Note_on_c, 9, 36, 127
1, 201839, Note_on_c, 9, 36, 0
1, 201840, Note_on_c, 9, 36, 127
1, 202079, Note_on_c, 9, 36, 0
1, 202320, Note_on_c, 9, 36, 127
1, 202559, Note_on_c, 9, 36, 0
1, 202560, Note_on_c, 9, 36, 127
1, 202799, Note_on_c, 9, 36, 0
1, 202800, Note_on_c, 9, 36, 127
1, 203039, Note_on_c, 9, 36, 0
1, 203040, Note_on_c, 9, 36, 127
1, 203279, Note_on_c, 9, 36, 0
1, 203280, Note_on_c, 9, 36, 127
1, 203519, Note_on_c, 9, 36, 0
1, 203520, Note_on_c, 9, 36, 127
1, 203759, Note_on_c, 9, 36, 0
1, 203760, Note_on_c, 9, 36, 127
1, 203999, Note_on_c, 9, 36, 0
1, 204240, Note_on_c, 9, 36, 127
1, 204479, Note_on_c, 9, 36, 0
1, 204720, Note_on_c, 9, 36, 127
1, 204959, Note_on_c, 9, 36, 0
1, 204960, Note_on_c, 9, 36, 127
1, 205439, Note_on_c, 9, 36, 0
1, 205440, Note_on_c, 9, 36, 127
1, 205679, Note_on_c, 9, 36, 0
1, 205680, Note_on_c, 9, 36, 127
1, 205919, Note_on_c, 9, 36, 0
1, 206160, Note_on_c, 9, 36, 127
1, 206399, Note_on_c, 9, 36, 0
1, 206400, Note_on_c, 9, 36, 127
1, 206639, Note_on_c, 9, 36, 0
1, 206640, Note_on_c, 9, 36, 127
1, 206879, Note_on_c, 9, 36, 0
1, 206880, Note_on_c, 9, 36, 127
1, 207119, Note_on_c, 9, 36, 0
1, 207120, Note_on_c, 9, 36, 127
1, 207359, Note_on_c, 9, 36, 0
1, 207360, Note_on_c, 9, 36, 127
1, 207599, Note_on_c, 9, 36, 0
1, 207600, Note_on_c, 9, 36, 127
1, 207839, Note_on_c, 9, 36, 0
1, 208080, Note_on_c, 9, 36, 127
1, 208319, Note_on_c, 9, 36, 0
1, 208560, Note_on_c, 9, 36, 127
1, 208799, Note_on_c, 9, 36, 0
1, 209040, Note_on_c, 9, 36, 127
1, 209279, Note_on_c, 9, 36, 0
1, 209520, Note_on_c, 9, 36, 127
1, 209759, Note_on_c, 9, 36, 0
1, 210000, Note_on_c, 9, 36, 127
1, 210239, Note_on_c, 9, 36, 0
1, 210480, Note_on_c, 9, 36, 127
1, 210719, Note_on_c, 9, 36, 0
1, 210960, Note_on_c, 9, 36, 127
1, 211199, Note_on_c, 9, 36, 0
1, 211200, Note_on_c, 9, 36, 127
1, 211439, Note_on_c, 9, 36, 0
1, 211440, Note_on_c, 9, 36, 127
1, 211679, Note_on_c, 9, 36, 0
1, 211920, Note_on_c, 9, 36, 127
1, 212159, Note_on_c, 9, 36, 0
1, 212400, Note_on_c, 9, 36, 127
1, 212639, Note_on_c, 9, 36, 0
1, 212640, Note_on_c, 9, 36, 127
1, 213119, Note_on_c, 9, 36, 0
1, 213120, Note_on_c, 9, 36, 127
1, 213359, Note_on_c, 9, 36, 0
1, 213360, Note_on_c, 9, 36, 127
1, 213599, Note_on_c, 9, 36, 0
1, 213840, Note_on_c, 9, 36, 127
1, 214079, Note_on_c, 9, 36, 0
1, 214080, Note_on_c, 9, 36, 127
1, 214319, Note_on_c, 9, 36, 0
1, 214320, Note_on_c, 9, 36, 127
1, 214559, Note_on_c, 9, 36, 0
1, 214560, Note_on_c, 9, 36, 127
1, 214799, Note_on_c, 9, 36, 0
1, 214800, Note_on_c, 9, 36, 127
1, 215039, Note_on_c, 9, 36, 0
1, 215040, Note_on_c, 9, 36, 127
1, 215519, Note_on_c, 9, 36, 0
1, 215520, End_track
2, 0, Start_track
2, 0, Key_signature, 0, "major"
2, 0, Control_c, 9, 121, 0
2, 0, Program_c, 9, 0
2, 0, Control_c, 9, 7, 100
2, 0, Control_c, 9, 10, 64
2, 0, Control_c, 9, 91, 0
2, 0, Control_c, 9, 93, 0
2, 0, MIDI_port, 1
2, 16800, Note_on_c, 9, 38, 25
2, 16919, Note_on_c, 9, 38, 0
2, 16920, Note_on_c, 9, 38, 25
2, 17039, Note_on_c, 9, 38, 0
2, 17040, Note_on_c, 9, 38, 43
2, 17159, Note_on_c, 9, 38, 0
2, 17160, Note_on_c, 9, 38, 127
2, 17279, Note_on_c, 9, 38, 0
2, 30000, Note_on_c, 9, 38, 25
2, 30119, Note_on_c, 9, 38, 0
2, 30120, Note_on_c, 9, 38, 25
2, 30239, Note_on_c, 9, 38, 0
2, 30240, Note_on_c, 9, 38, 127
2, 30479, Note_on_c, 9, 38, 0
2, 30480, Note_on_c, 9, 38, 127
2, 30719, Note_on_c, 9, 38, 0
2, 31200, Note_on_c, 9, 38, 127
2, 31679, Note_on_c, 9, 38, 0
2, 32160, Note_on_c, 9, 38, 127
2, 32639, Note_on_c, 9, 38, 0
2, 33120, Note_on_c, 9, 38, 127
2, 33599, Note_on_c, 9, 38, 0
2, 33840, Note_on_c, 9, 38, 25
2, 33959, Note_on_c, 9, 38, 0
2, 33960, Note_on_c, 9, 38, 25
2, 34079, Note_on_c, 9, 38, 0
2, 34080, Note_on_c, 9, 38, 43
2, 34199, Note_on_c, 9, 38, 0
2, 34200, Note_on_c, 9, 38, 25
2, 34319, Note_on_c, 9, 38, 0
2, 34320, Note_on_c, 9, 38, 127
2, 34439, Note_on_c, 9, 38, 0
2, 34440, Note_on_c, 9, 38, 127
2, 34559, Note_on_c, 9, 38, 0
2, 35040, Note_on_c, 9, 38, 127
2, 35519, Note_on_c, 9, 38, 0
2, 36000, Note_on_c, 9, 38, 127
2, 36479, Note_on_c, 9, 38, 0
2, 36960, Note_on_c, 9, 38, 127
2, 37439, Note_on_c, 9, 38, 0
2, 37920, Note_on_c, 9, 38, 127
2, 38399, Note_on_c, 9, 38, 0
2, 38880, Note_on_c, 9, 38, 127
2, 39359, Note_on_c, 9, 38, 0
2, 39840, Note_on_c, 9, 38, 127
2, 40319, Note_on_c, 9, 38, 0
2, 40800, Note_on_c, 9, 38, 127
2, 41279, Note_on_c, 9, 38, 0
2, 41760, Note_on_c, 9, 38, 127
2, 42239, Note_on_c, 9, 38, 0
2, 42720, Note_on_c, 9, 38, 127
2, 43199, Note_on_c, 9, 38, 0
2, 43680, Note_on_c, 9, 38, 127
2, 44159, Note_on_c, 9, 38, 0
2, 44640, Note_on_c, 9, 38, 127
2, 45119, Note_on_c, 9, 38, 0
2, 45360, Note_on_c, 9, 38, 43
2, 45479, Note_on_c, 9, 38, 0
2, 45480, Note_on_c, 9, 38, 25
2, 45599, Note_on_c, 9, 38, 0
2, 45600, Note_on_c, 9, 38, 127
2, 45839, Note_on_c, 9, 38, 0
2, 45840, Note_on_c, 9, 38, 127
2, 46079, Note_on_c, 9, 38, 0
2, 49200, Note_on_c, 9, 38, 25
2, 49319, Note_on_c, 9, 38, 0
2, 49320, Note_on_c, 9, 38, 25
2, 49439, Note_on_c, 9, 38, 0
2, 49440, Note_on_c, 9, 38, 127
2, 49679, Note_on_c, 9, 38, 0
2, 49680, Note_on_c, 9, 38, 43
2, 49919, Note_on_c, 9, 38, 0
2, 50400, Note_on_c, 9, 38, 127
2, 50879, Note_on_c, 9, 38, 0
2, 51360, Note_on_c, 9, 38, 127
2, 51839, Note_on_c, 9, 38, 0
2, 51840, Note_on_c, 9, 38, 127
2, 52319, Note_on_c, 9, 38, 0
2, 53520, Note_on_c, 9, 38, 127
2, 53759, Note_on_c, 9, 38, 0
2, 66480, Note_on_c, 9, 38, 25
2, 66599, Note_on_c, 9, 38, 0
2, 66600, Note_on_c, 9, 38, 25
2, 66719, Note_on_c, 9, 38, 0
2, 66720, Note_on_c, 9, 38, 127
2, 66959, Note_on_c, 9, 38, 0
2, 66960, Note_on_c, 9, 38, 127
2, 67199, Note_on_c, 9, 38, 0
2, 67680, Note_on_c, 9, 38, 127
2, 68159, Note_on_c, 9, 38, 0
2, 68640, Note_on_c, 9, 38, 127
2, 69119, Note_on_c, 9, 38, 0
2, 69600, Note_on_c, 9, 38, 127
2, 70079, Note_on_c, 9, 38, 0
2, 70320, Note_on_c, 9, 38, 25
2, 70439, Note_on_c, 9, 38, 0
2, 70440, Note_on_c, 9, 38, 25
2, 70559, Note_on_c, 9, 38, 0
2, 70560, Note_on_c, 9, 38, 43
2, 70679, Note_on_c, 9, 38, 0
2, 70680, Note_on_c, 9, 38, 25
2, 70799, Note_on_c, 9, 38, 0
2, 70800, Note_on_c, 9, 38, 127
2, 70919, Note_on_c, 9, 38, 0
2, 70920, Note_on_c, 9, 38, 127
2, 71039, Note_on_c, 9, 38, 0
2, 71520, Note_on_c, 9, 38, 127
2, 71999, Note_on_c, 9, 38, 0
2, 72480, Note_on_c, 9, 38, 127
2, 72959, Note_on_c, 9, 38, 0
2, 73440, Note_on_c, 9, 38, 127
2, 73919, Note_on_c, 9, 38, 0
2, 74400, Note_on_c, 9, 38, 127
2, 74879, Note_on_c, 9, 38, 0
2, 75360, Note_on_c, 9, 38, 127
2, 75839, Note_on_c, 9, 38, 0
2, 76320, Note_on_c, 9, 38, 127
2, 76799, Note_on_c, 9, 38, 0
2, 77280, Note_on_c, 9, 38, 127
2, 77759, Note_on_c, 9, 38, 0
2, 78240, Note_on_c, 9, 38, 127
2, 78719, Note_on_c, 9, 38, 0
2, 79200, Note_on_c, 9, 38, 127
2, 79679, Note_on_c, 9, 38, 0
2, 80160, Note_on_c, 9, 38, 127
2, 80639, Note_on_c, 9, 38, 0
2, 81120, Note_on_c, 9, 38, 127
2, 81599, Note_on_c, 9, 38, 0
2, 81840, Note_on_c, 9, 38, 43
2, 81959, Note_on_c, 9, 38, 0
2, 81960, Note_on_c, 9, 38, 25
2, 82079, Note_on_c, 9, 38, 0
2, 82080, Note_on_c, 9, 38, 127
2, 82319, Note_on_c, 9, 38, 0
2, 82320, Note_on_c, 9, 38, 127
2, 82559, Note_on_c, 9, 38, 0
2, 85680, Note_on_c, 9, 38, 25
2, 85799, Note_on_c, 9, 38, 0
2, 85800, Note_on_c, 9, 38, 25
2, 85919, Note_on_c, 9, 38, 0
2, 85920, Note_on_c, 9, 38, 127
2, 86159, Note_on_c, 9, 38, 0
2, 86160, Note_on_c, 9, 38, 43
2, 86399, Note_on_c, 9, 38, 0
2, 86880, Note_on_c, 9, 38, 127
2, 87359, Note_on_c, 9, 38, 0
2, 87840, Note_on_c, 9, 38, 127
2, 88319, Note_on_c, 9, 38, 0
2, 88320, Note_on_c, 9, 38, 127
2, 88799, Note_on_c, 9, 38, 0
2, 90000, Note_on_c, 9, 38, 127
2, 90239, Note_on_c, 9, 38, 0
2, 102960, Note_on_c, 9, 38, 25
2, 103079, Note_on_c, 9, 38, 0
2, 103080, Note_on_c, 9, 38, 25
2, 103199, Note_on_c, 9, 38, 0
2, 103200, Note_on_c, 9, 38, 127
2, 103439, Note_on_c, 9, 38, 0
2, 103440, Note_on_c, 9, 38, 127
2, 103679, Note_on_c, 9, 38, 0
2, 104160, Note_on_c, 9, 38, 127
2, 104639, Note_on_c, 9, 38, 0
2, 105120, Note_on_c, 9, 38, 127
2, 105599, Note_on_c, 9, 38, 0
2, 106080, Note_on_c, 9, 38, 127
2, 106559, Note_on_c, 9, 38, 0
2, 106800, Note_on_c, 9, 38, 25
2, 106919, Note_on_c, 9, 38, 0
2, 106920, Note_on_c, 9, 38, 25
2, 107039, Note_on_c, 9, 38, 0
2, 107040, Note_on_c, 9, 38, 43
2, 107159, Note_on_c, 9, 38, 0
2, 107160, Note_on_c, 9, 38, 25
2, 107279, Note_on_c, 9, 38, 0
2, 107280, Note_on_c, 9, 38, 127
2, 107399, Note_on_c, 9, 38, 0
2, 107400, Note_on_c, 9, 38, 127
2, 107519, Note_on_c, 9, 38, 0
2, 108000, Note_on_c, 9, 38, 127
2, 108479, Note_on_c, 9, 38, 0
2, 108960, Note_on_c, 9, 38, 127
2, 109439, Note_on_c, 9, 38, 0
2, 109920, Note_on_c, 9, 38, 127
2, 110399, Note_on_c, 9, 38, 0
2, 110880, Note_on_c, 9, 38, 127
2, 111359, Note_on_c, 9, 38, 0
2, 111840, Note_on_c, 9, 38, 127
2, 112319, Note_on_c, 9, 38, 0
2, 112800, Note_on_c, 9, 38, 127
2, 113279, Note_on_c, 9, 38, 0
2, 113760, Note_on_c, 9, 38, 127
2, 114239, Note_on_c, 9, 38, 0
2, 114720, Note_on_c, 9, 38, 127
2, 115199, Note_on_c, 9, 38, 0
2, 115680, Note_on_c, 9, 38, 127
2, 116159, Note_on_c, 9, 38, 0
2, 116640, Note_on_c, 9, 38, 127
2, 117119, Note_on_c, 9, 38, 0
2, 117600, Note_on_c, 9, 38, 127
2, 118079, Note_on_c, 9, 38, 0
2, 118320, Note_on_c, 9, 38, 43
2, 118439, Note_on_c, 9, 38, 0
2, 118440, Note_on_c, 9, 38, 25
2, 118559, Note_on_c, 9, 38, 0
2, 118560, Note_on_c, 9, 38, 127
2, 118799, Note_on_c, 9, 38, 0
2, 118800, Note_on_c, 9, 38, 127
2, 119039, Note_on_c, 9, 38, 0
2, 122160, Note_on_c, 9, 38, 25
2, 122279, Note_on_c, 9, 38, 0
2, 122280, Note_on_c, 9, 38, 25
2, 122399, Note_on_c, 9, 38, 0
2, 122400, Note_on_c, 9, 38, 127
2, 122639, Note_on_c, 9, 38, 0
2, 122640, Note_on_c, 9, 38, 43
2, 122879, Note_on_c, 9, 38, 0
2, 123360, Note_on_c, 9, 38, 127
2, 123839, Note_on_c, 9, 38, 0
2, 124320, Note_on_c, 9, 38, 127
2, 124799, Note_on_c, 9, 38, 0
2, 124800, Note_on_c, 9, 38, 127
2, 125279, Note_on_c, 9, 38, 0
2, 126480, Note_on_c, 9, 38, 127
2, 126719, Note_on_c, 9, 38, 0
2, 139440, Note_on_c, 9, 38, 25
2, 139559, Note_on_c, 9, 38, 0
2, 139560, Note_on_c, 9, 38, 25
2, 139679, Note_on_c, 9, 38, 0
2, 139680, Note_on_c, 9, 38, 127
2, 139919, Note_on_c, 9, 38, 0
2, 139920, Note_on_c, 9, 38, 127
2, 140159, Note_on_c, 9, 38, 0
2, 140640, Note_on_c, 9, 38, 127
2, 141119, Note_on_c, 9, 38, 0
2, 141600, Note_on_c, 9, 38, 127
2, 142079, Note_on_c, 9, 38, 0
2, 142560, Note_on_c, 9, 38, 127
2, 143039, Note_on_c, 9, 38, 0
2, 143280, Note_on_c, 9, 38, 25
2, 143399, Note_on_c, 9, 38, 0
2, 143400, Note_on_c, 9, 38, 25
2, 143519, Note_on_c, 9, 38, 0
2, 143520, Note_on_c, 9, 38, 43
2, 143639, Note_on_c, 9, 38, 0
2, 143640, Note_on_c, 9, 38, 25
2, 143759, Note_on_c, 9, 38, 0
2, 143760, Note_on_c, 9, 38, 127
2, 143879, Note_on_c, 9, 38, 0
2, 143880, Note_on_c, 9, 38, 127
2, 143999, Note_on_c, 9, 38, 0
2, 144480, Note_on_c, 9, 38, 127
2, 144959, Note_on_c, 9, 38, 0
2, 145440, Note_on_c, 9, 38, 127
2, 145919, Note_on_c, 9, 38, 0
2, 146400, Note_on_c, 9, 38, 127
2, 146879, Note_on_c, 9, 38, 0
2, 147360, Note_on_c, 9, 38, 127
2, 147839, Note_on_c, 9, 38, 0
2, 148320, Note_on_c, 9, 38, 127
2, 148799, Note_on_c, 9, 38, 0
2, 149280, Note_on_c, 9, 38, 127
2, 149759, Note_on_c, 9, 38, 0
2, 150240, Note_on_c, 9, 38, 127
2, 150719, Note_on_c, 9, 38, 0
2, 151200, Note_on_c, 9, 38, 127
2, 151679, Note_on_c, 9, 38, 0
2, 152160, Note_on_c, 9, 38, 127
2, 152639, Note_on_c, 9, 38, 0
2, 153120, Note_on_c, 9, 38, 127
2, 153599, Note_on_c, 9, 38, 0
2, 154080, Note_on_c, 9, 38, 127
2, 154559, Note_on_c, 9, 38, 0
2, 154800, Note_on_c, 9, 38, 43
2, 154919, Note_on_c, 9, 38, 0
2, 154920, Note_on_c, 9, 38, 25
2, 155039, Note_on_c, 9, 38, 0
2, 155040, Note_on_c, 9, 38, 127
2, 155279, Note_on_c, 9, 38, 0
2, 155280, Note_on_c, 9, 38, 127
2, 155519, Note_on_c, 9, 38, 0
2, 158640, Note_on_c, 9, 38, 25
2, 158759, Note_on_c, 9, 38, 0
2, 158760, Note_on_c, 9, 38, 25
2, 158879, Note_on_c, 9, 38, 0
2, 158880, Note_on_c, 9, 38, 127
2, 159119, Note_on_c, 9, 38, 0
2, 159120, Note_on_c, 9, 38, 43
2, 159359, Note_on_c, 9, 38, 0
2, 159840, Note_on_c, 9, 38, 127
2, 160319, Note_on_c, 9, 38, 0
2, 160800, Note_on_c, 9, 38, 127
2, 161279, Note_on_c, 9, 38, 0
2, 161280, Note_on_c, 9, 38, 127
2, 161759, Note_on_c, 9, 38, 0
2, 162960, Note_on_c, 9, 38, 127
2, 163199, Note_on_c, 9, 38, 0
2, 175920, Note_on_c, 9, 38, 25
2, 176039, Note_on_c, 9, 38, 0
2, 176040, Note_on_c, 9, 38, 25
2, 176159, Note_on_c, 9, 38, 0
2, 176160, Note_on_c, 9, 38, 127
2, 176399, Note_on_c, 9, 38, 0
2, 176400, Note_on_c, 9, 38, 127
2, 176639, Note_on_c, 9, 38, 0
2, 177120, Note_on_c, 9, 38, 127
2, 177599, Note_on_c, 9, 38, 0
2, 178080, Note_on_c, 9, 38, 127
2, 178559, Note_on_c, 9, 38, 0
2, 179040, Note_on_c, 9, 38, 127
2, 179519, Note_on_c, 9, 38, 0
2, 179760, Note_on_c, 9, 38, 25
2, 179879, Note_on_c, 9, 38, 0
2, 179880, Note_on_c, 9, 38, 25
2, 179999, Note_on_c, 9, 38, 0
2, 180000, Note_on_c, 9, 38, 43
2, 180119, Note_on_c, 9, 38, 0
2, 180120, Note_on_c, 9, 38, 25
2, 180239, Note_on_c, 9, 38, 0
2, 180240, Note_on_c, 9, 38, 127
2, 180359, Note_on_c, 9, 38, 0
2, 180360, Note_on_c, 9, 38, 127
2, 180479, Note_on_c, 9, 38, 0
2, 180960, Note_on_c, 9, 38, 127
2, 181439, Note_on_c, 9, 38, 0
2, 181920, Note_on_c, 9, 38, 127
2, 182399, Note_on_c, 9, 38, 0
2, 182880, Note_on_c, 9, 38, 127
2, 183359, Note_on_c, 9, 38, 0
2, 183840, Note_on_c, 9, 38, 127
2, 184319, Note_on_c, 9, 38, 0
2, 184800, Note_on_c, 9, 38, 127
2, 185279, Note_on_c, 9, 38, 0
2, 185760, Note_on_c, 9, 38, 127
2, 186239, Note_on_c, 9, 38, 0
2, 186720, Note_on_c, 9, 38, 127
2, 187199, Note_on_c, 9, 38, 0
2, 187680, Note_on_c, 9, 38, 127
2, 188159, Note_on_c, 9, 38, 0
2, 188640, Note_on_c, 9, 38, 127
2, 189119, Note_on_c, 9, 38, 0
2, 189600, Note_on_c, 9, 38, 127
2, 190079, Note_on_c, 9, 38, 0
2, 190560, Note_on_c, 9, 38, 127
2, 191039, Note_on_c, 9, 38, 0
2, 191280, Note_on_c, 9, 38, 43
2, 191399, Note_on_c, 9, 38, 0
2, 191400, Note_on_c, 9, 38, 25
2, 191519, Note_on_c, 9, 38, 0
2, 191520, Note_on_c, 9, 38, 127
2, 191759, Note_on_c, 9, 38, 0
2, 191760, Note_on_c, 9, 38, 127
2, 191999, Note_on_c, 9, 38, 0
2, 195120, Note_on_c, 9, 38, 25
2, 195239, Note_on_c, 9, 38, 0
2, 195240, Note_on_c, 9, 38, 25
2, 195359, Note_on_c, 9, 38, 0
2, 195360, Note_on_c, 9, 38, 127
2, 195599, Note_on_c, 9, 38, 0
2, 195600, Note_on_c, 9, 38, 43
2, 195839, Note_on_c, 9, 38, 0
2, 196320, Note_on_c, 9, 38, 127
2, 196799, Note_on_c, 9, 38, 0
2, 197280, Note_on_c, 9, 38, 127
2, 197759, Note_on_c, 9, 38, 0
2, 197760, Note_on_c, 9, 38, 127
2, 198239, Note_on_c, 9, 38, 0
2, 199440, Note_on_c, 9, 38, 127
2, 199679, Note_on_c, 9, 38, 0
2, 200160, Note_on_c, 9, 38, 127
2, 200639, Note_on_c, 9, 38, 0
2, 201120, Note_on_c, 9, 38, 127
2, 201599, Note_on_c, 9, 38, 0
2, 202080, Note_on_c, 9, 38, 127
2, 202559, Note_on_c, 9, 38, 0
2, 202800, Note_on_c, 9, 38, 43
2, 202919, Note_on_c, 9, 38, 0
2, 202920, Note_on_c, 9, 38, 25
2, 203039, Note_on_c, 9, 38, 0
2, 203040, Note_on_c, 9, 38, 127
2, 203159, Note_on_c, 9, 38, 0
2, 203160, Note_on_c, 9, 38, 25
2, 203279, Note_on_c, 9, 38, 0
2, 203280, Note_on_c, 9, 38, 43
2, 203399, Note_on_c, 9, 38, 0
2, 203400, Note_on_c, 9, 38, 127
2, 203519, Note_on_c, 9, 38, 0
2, 204000, Note_on_c, 9, 38, 127
2, 204479, Note_on_c, 9, 38, 0
2, 204960, Note_on_c, 9, 38, 127
2, 205439, Note_on_c, 9, 38, 0
2, 205920, Note_on_c, 9, 38, 127
2, 206399, Note_on_c, 9, 38, 0
2, 206640, Note_on_c, 9, 38, 43
2, 206759, Note_on_c, 9, 38, 0
2, 206760, Note_on_c, 9, 38, 25
2, 206879, Note_on_c, 9, 38, 0
2, 206880, Note_on_c, 9, 38, 127
2, 206999, Note_on_c, 9, 38, 0
2, 207000, Note_on_c, 9, 38, 25
2, 207119, Note_on_c, 9, 38, 0
2, 207120, Note_on_c, 9, 38, 43
2, 207239, Note_on_c, 9, 38, 0
2, 207240, Note_on_c, 9, 38, 127
2, 207359, Note_on_c, 9, 38, 0
2, 207840, Note_on_c, 9, 38, 127
2, 208319, Note_on_c, 9, 38, 0
2, 208800, Note_on_c, 9, 38, 127
2, 209279, Note_on_c, 9, 38, 0
2, 210240, Note_on_c, 9, 38, 127
2, 210719, Note_on_c, 9, 38, 0
2, 210720, Note_on_c, 9, 38, 127
2, 210839, Note_on_c, 9, 38, 0
2, 210840, Note_on_c, 9, 38, 25
2, 210959, Note_on_c, 9, 38, 0
2, 210960, Note_on_c, 9, 38, 43
2, 211079, Note_on_c, 9, 38, 0
2, 211080, Note_on_c, 9, 38, 127
2, 211199, Note_on_c, 9, 38, 0
2, 211680, Note_on_c, 9, 38, 127
2, 212159, Note_on_c, 9, 38, 0
2, 212640, Note_on_c, 9, 38, 127
2, 213119, Note_on_c, 9, 38, 0
2, 213600, Note_on_c, 9, 38, 25
2, 213839, Note_on_c, 9, 38, 0
2, 213840, Note_on_c, 9, 38, 43
2, 214079, Note_on_c, 9, 38, 0
2, 214080, Note_on_c, 9, 38, 127
2, 214319, Note_on_c, 9, 38, 0
2, 214320, Note_on_c, 9, 38, 127
2, 214439, Note_on_c, 9, 38, 0
2, 214440, Note_on_c, 9, 38, 25
2, 214559, Note_on_c, 9, 38, 0
2, 214560, Note_on_c, 9, 38, 127
2, 214679, Note_on_c, 9, 38, 0
2, 214680, Note_on_c, 9, 38, 25
2, 214799, Note_on_c, 9, 38, 0
2, 214800, Note_on_c, 9, 38, 127
2, 214919, Note_on_c, 9, 38, 0
2, 214920, Note_on_c, 9, 38, 127
2, 215039, Note_on_c, 9, 38, 0
2, 215040, End_track
3, 0, Start_track
3, 0, Key_signature, 0, "major"
3, 0, Control_c, 9, 121, 0
3, 0, Program_c, 9, 0
3, 0, Control_c, 9, 7, 100
3, 0, Control_c, 9, 10, 64
3, 0, Control_c, 9, 91, 0
3, 0, Control_c, 9, 93, 0
3, 0, MIDI_port, 2
3, 0, Note_on_c, 9, 42, 127
3, 479, Note_on_c, 9, 42, 0
3, 480, Note_on_c, 9, 42, 127
3, 959, Note_on_c, 9, 42, 0
3, 960, Note_on_c, 9, 42, 127
3, 1439, Note_on_c, 9, 42, 0
3, 1440, Note_on_c, 9, 42, 127
3, 1919, Note_on_c, 9, 42, 0
3, 2400, Note_on_c, 9, 42, 127
3, 2879, Note_on_c, 9, 42, 0
3, 3360, Note_on_c, 9, 42, 127
3, 3839, Note_on_c, 9, 42, 0
3, 4320, Note_on_c, 9, 42, 127
3, 4799, Note_on_c, 9, 42, 0
3, 6240, Note_on_c, 9, 42, 127
3, 6719, Note_on_c, 9, 42, 0
3, 7200, Note_on_c, 9, 42, 127
3, 7679, Note_on_c, 9, 42, 0
3, 8160, Note_on_c, 9, 42, 127
3, 8639, Note_on_c, 9, 42, 0
3, 10080, Note_on_c, 9, 42, 127
3, 10559, Note_on_c, 9, 42, 0
3, 11040, Note_on_c, 9, 42, 127
3, 11519, Note_on_c, 9, 42, 0
3, 12000, Note_on_c, 9, 42, 127
3, 12479, Note_on_c, 9, 42, 0
3, 13920, Note_on_c, 9, 42, 127
3, 14399, Note_on_c, 9, 42, 0
3, 14880, Note_on_c, 9, 42, 127
3, 15359, Note_on_c, 9, 42, 0
3, 15840, Note_on_c, 9, 42, 127
3, 16319, Note_on_c, 9, 42, 0
3, 17280, Note_on_c, 9, 42, 127
3, 17519, Note_on_c, 9, 42, 0
3, 17520, Note_on_c, 9, 42, 43
3, 17759, Note_on_c, 9, 42, 0
3, 17760, Note_on_c, 9, 42, 127
3, 17999, Note_on_c, 9, 42, 0
3, 18000, Note_on_c, 9, 42, 43
3, 18239, Note_on_c, 9, 42, 0
3, 18240, Note_on_c, 9, 42, 127
3, 18479, Note_on_c, 9, 42, 0
3, 18480, Note_on_c, 9, 42, 43
3, 18719, Note_on_c, 9, 42, 0
3, 18720, Note_on_c, 9, 42, 127
3, 18959, Note_on_c, 9, 42, 0
3, 18960, Note_on_c, 9, 42, 43
3, 19199, Note_on_c, 9, 42, 0
3, 19200, Note_on_c, 9, 42, 127
3, 19439, Note_on_c, 9, 42, 0
3, 19440, Note_on_c, 9, 42, 43
3, 19679, Note_on_c, 9, 42, 0
3, 19680, Note_on_c, 9, 42, 127
3, 19919, Note_on_c, 9, 42, 0
3, 19920, Note_on_c, 9, 42, 43
3, 20159, Note_on_c, 9, 42, 0
3, 20160, Note_on_c, 9, 42, 127
3, 20399, Note_on_c, 9, 42, 0
3, 20400, Note_on_c, 9, 42, 43
3, 20639, Note_on_c, 9, 42, 0
3, 20640, Note_on_c, 9, 42, 127
3, 21119, Note_on_c, 9, 42, 0
3, 21120, Note_on_c, 9, 42, 127
3, 21359, Note_on_c, 9, 42, 0
3, 21360, Note_on_c, 9, 42, 43
3, 21599, Note_on_c, 9, 42, 0
3, 21600, Note_on_c, 9, 42, 127
3, 21839, Note_on_c, 9, 42, 0
3, 21840, Note_on_c, 9, 42, 43
3, 22079, Note_on_c, 9, 42, 0
3, 22080, Note_on_c, 9, 42, 127
3, 22319, Note_on_c, 9, 42, 0
3, 22320, Note_on_c, 9, 42, 43
3, 22559, Note_on_c, 9, 42, 0
3, 22560, Note_on_c, 9, 42, 127
3, 22799, Note_on_c, 9, 42, 0
3, 22800, Note_on_c, 9, 42, 43
3, 23039, Note_on_c, 9, 42, 0
3, 23040, Note_on_c, 9, 42, 127
3, 23279, Note_on_c, 9, 42, 0
3, 23280, Note_on_c, 9, 42, 43
3, 23519, Note_on_c, 9, 42, 0
3, 23520, Note_on_c, 9, 42, 127
3, 23759, Note_on_c, 9, 42, 0
3, 23760, Note_on_c, 9, 42, 43
3, 23999, Note_on_c, 9, 42, 0
3, 24000, Note_on_c, 9, 42, 127
3, 24239, Note_on_c, 9, 42, 0
3, 24240, Note_on_c, 9, 42, 43
3, 24479, Note_on_c, 9, 42, 0
3, 24480, Note_on_c, 9, 42, 127
3, 24959, Note_on_c, 9, 42, 0
3, 24960, Note_on_c, 9, 42, 127
3, 25199, Note_on_c, 9, 42, 0
3, 25200, Note_on_c, 9, 42, 43
3, 25439, Note_on_c, 9, 42, 0
3, 25440, Note_on_c, 9, 42, 127
3, 25679, Note_on_c, 9, 42, 0
3, 25680, Note_on_c, 9, 42, 43
3, 25919, Note_on_c, 9, 42, 0
3, 25920, Note_on_c, 9, 42, 127
3, 26159, Note_on_c, 9, 42, 0
3, 26160, Note_on_c, 9, 42, 43
3, 26399, Note_on_c, 9, 42, 0
3, 26400, Note_on_c, 9, 42, 127
3, 26639, Note_on_c, 9, 42, 0
3, 26640, Note_on_c, 9, 42, 43
3, 26879, Note_on_c, 9, 42, 0
3, 26880, Note_on_c, 9, 42, 127
3, 27119, Note_on_c, 9, 42, 0
3, 27120, Note_on_c, 9, 42, 43
3, 27359, Note_on_c, 9, 42, 0
3, 27360, Note_on_c, 9, 42, 127
3, 27599, Note_on_c, 9, 42, 0
3, 27600, Note_on_c, 9, 42, 43
3, 27839, Note_on_c, 9, 42, 0
3, 27840, Note_on_c, 9, 42, 127
3, 28079, Note_on_c, 9, 42, 0
3, 28080, Note_on_c, 9, 42, 43
3, 28319, Note_on_c, 9, 42, 0
3, 28320, Note_on_c, 9, 42, 127
3, 28799, Note_on_c, 9, 42, 0
3, 28800, Note_on_c, 9, 42, 127
3, 29039, Note_on_c, 9, 42, 0
3, 29040, Note_on_c, 9, 42, 43
3, 29279, Note_on_c, 9, 42, 0
3, 29280, Note_on_c, 9, 42, 127
3, 29519, Note_on_c, 9, 42, 0
3, 29520, Note_on_c, 9, 42, 43
3, 29759, Note_on_c, 9, 42, 0
3, 29760, Note_on_c, 9, 42, 127
3, 29999, Note_on_c, 9, 42, 0
3, 30000, Note_on_c, 9, 42, 43
3, 30239, Note_on_c, 9, 42, 0
3, 30240, Note_on_c, 9, 42, 127
3, 30479, Note_on_c, 9, 42, 0
3, 30480, Note_on_c, 9, 42, 43
3, 30719, Note_on_c, 9, 42, 0
3, 30960, Note_on_c, 9, 42, 43
3, 31199, Note_on_c, 9, 42, 0
3, 31440, Note_on_c, 9, 42, 43
3, 31679, Note_on_c, 9, 42, 0
3, 31920, Note_on_c, 9, 42, 43
3, 32159, Note_on_c, 9, 42, 0
3, 32400, Note_on_c, 9, 42, 43
3, 32639, Note_on_c, 9, 42, 0
3, 32880, Note_on_c, 9, 42, 43
3, 33119, Note_on_c, 9, 42, 0
3, 33360, Note_on_c, 9, 42, 43
3, 33599, Note_on_c, 9, 42, 0
3, 33840, Note_on_c, 9, 42, 43
3, 34079, Note_on_c, 9, 42, 0
3, 34560, Note_on_c, 9, 42, 127
3, 34799, Note_on_c, 9, 42, 0
3, 34800, Note_on_c, 9, 42, 43
3, 35039, Note_on_c, 9, 42, 0
3, 35040, Note_on_c, 9, 42, 127
3, 35279, Note_on_c, 9, 42, 0
3, 35280, Note_on_c, 9, 42, 43
3, 35519, Note_on_c, 9, 42, 0
3, 35520, Note_on_c, 9, 42, 127
3, 35759, Note_on_c, 9, 42, 0
3, 35760, Note_on_c, 9, 42, 43
3, 35999, Note_on_c, 9, 42, 0
3, 36000, Note_on_c, 9, 42, 127
3, 36239, Note_on_c, 9, 42, 0
3, 36240, Note_on_c, 9, 42, 43
3, 36479, Note_on_c, 9, 42, 0
3, 36480, Note_on_c, 9, 42, 127
3, 36719, Note_on_c, 9, 42, 0
3, 36720, Note_on_c, 9, 42, 43
3, 36959, Note_on_c, 9, 42, 0
3, 36960, Note_on_c, 9, 42, 127
3, 37199, Note_on_c, 9, 42, 0
3, 37200, Note_on_c, 9, 42, 43
3, 37439, Note_on_c, 9, 42, 0
3, 37440, Note_on_c, 9, 42, 127
3, 37679, Note_on_c, 9, 42, 0
3, 37680, Note_on_c, 9, 42, 43
3, 37919, Note_on_c, 9, 42, 0
3, 37920, Note_on_c, 9, 42, 127
3, 38399, Note_on_c, 9, 42, 0
3, 38400, Note_on_c, 9, 42, 127
3, 38639, Note_on_c, 9, 42, 0
3, 38640, Note_on_c, 9, 42, 43
3, 38879, Note_on_c, 9, 42, 0
3, 38880, Note_on_c, 9, 42, 127
3, 39119, Note_on_c, 9, 42, 0
3, 39120, Note_on_c, 9, 42, 43
3, 39359, Note_on_c, 9, 42, 0
3, 39360, Note_on_c, 9, 42, 127
3, 39599, Note_on_c, 9, 42, 0
3, 39600, Note_on_c, 9, 42, 43
3, 39839, Note_on_c, 9, 42, 0
3, 39840, Note_on_c, 9, 42, 127
3, 40079, Note_on_c, 9, 42, 0
3, 40080, Note_on_c, 9, 42, 43
3, 40319, Note_on_c, 9, 42, 0
3, 40320, Note_on_c, 9, 42, 127
3, 40559, Note_on_c, 9, 42, 0
3, 40560, Note_on_c, 9, 42, 43
3, 40799, Note_on_c, 9, 42, 0
3, 40800, Note_on_c, 9, 42, 127
3, 41039, Note_on_c, 9, 42, 0
3, 41040, Note_on_c, 9, 42, 43
3, 41279, Note_on_c, 9, 42, 0
3, 41280, Note_on_c, 9, 42, 127
3, 41519, Note_on_c, 9, 42, 0
3, 41520, Note_on_c, 9, 42, 43
3, 41759, Note_on_c, 9, 42, 0
3, 41760, Note_on_c, 9, 42, 127
3, 42239, Note_on_c, 9, 42, 0
3, 42240, Note_on_c, 9, 42, 127
3, 42479, Note_on_c, 9, 42, 0
3, 42480, Note_on_c, 9, 42, 43
3, 42719, Note_on_c, 9, 42, 0
3, 42720, Note_on_c, 9, 42, 127
3, 42959, Note_on_c, 9, 42, 0
3, 42960, Note_on_c, 9, 42, 43
3, 43199, Note_on_c, 9, 42, 0
3, 43200, Note_on_c, 9, 42, 127
3, 43439, Note_on_c, 9, 42, 0
3, 43440, Note_on_c, 9, 42, 43
3, 43679, Note_on_c, 9, 42, 0
3, 43680, Note_on_c, 9, 42, 127
3, 43919, Note_on_c, 9, 42, 0
3, 43920, Note_on_c, 9, 42, 43
3, 44159, Note_on_c, 9, 42, 0
3, 44160, Note_on_c, 9, 42, 127
3, 44399, Note_on_c, 9, 42, 0
3, 44400, Note_on_c, 9, 42, 43
3, 44639, Note_on_c, 9, 42, 0
3, 44640, Note_on_c, 9, 42, 127
3, 44879, Note_on_c, 9, 42, 0
3, 44880, Note_on_c, 9, 42, 43
3, 45119, Note_on_c, 9, 42, 0
3, 45120, Note_on_c, 9, 42, 127
3, 45359, Note_on_c, 9, 42, 0
3, 45360, Note_on_c, 9, 42, 43
3, 45599, Note_on_c, 9, 42, 0
3, 45600, Note_on_c, 9, 42, 127
3, 46079, Note_on_c, 9, 42, 0
3, 46080, Note_on_c, 9, 42, 127
3, 46319, Note_on_c, 9, 42, 0
3, 46320, Note_on_c, 9, 42, 43
3, 46559, Note_on_c, 9, 42, 0
3, 46560, Note_on_c, 9, 42, 127
3, 46799, Note_on_c, 9, 42, 0
3, 46800, Note_on_c, 9, 42, 43
3, 47039, Note_on_c, 9, 42, 0
3, 47040, Note_on_c, 9, 42, 127
3, 47279, Note_on_c, 9, 42, 0
3, 47280, Note_on_c, 9, 42, 43
3, 47519, Note_on_c, 9, 42, 0
3, 47520, Note_on_c, 9, 42, 127
3, 47759, Note_on_c, 9, 42, 0
3, 47760, Note_on_c, 9, 42, 43
3, 47999, Note_on_c, 9, 42, 0
3, 48000, Note_on_c, 9, 42, 127
3, 48239, Note_on_c, 9, 42, 0
3, 48240, Note_on_c, 9, 42, 43
3, 48479, Note_on_c, 9, 42, 0
3, 48480, Note_on_c, 9, 42, 127
3, 48719, Note_on_c, 9, 42, 0
3, 48720, Note_on_c, 9, 42, 43
3, 48959, Note_on_c, 9, 42, 0
3, 48960, Note_on_c, 9, 42, 127
3, 49199, Note_on_c, 9, 42, 0
3, 49200, Note_on_c, 9, 42, 43
3, 49439, Note_on_c, 9, 42, 0
3, 49440, Note_on_c, 9, 42, 127
3, 49919, Note_on_c, 9, 42, 0
3, 49920, Note_on_c, 9, 42, 127
3, 50159, Note_on_c, 9, 42, 0
3, 50160, Note_on_c, 9, 42, 43
3, 50399, Note_on_c, 9, 42, 0
3, 50400, Note_on_c, 9, 42, 127
3, 50639, Note_on_c, 9, 42, 0
3, 50640, Note_on_c, 9, 42, 43
3, 50879, Note_on_c, 9, 42, 0
3, 50880, Note_on_c, 9, 42, 127
3, 51119, Note_on_c, 9, 42, 0
3, 51120, Note_on_c, 9, 42, 43
3, 51359, Note_on_c, 9, 42, 0
3, 51360, Note_on_c, 9, 42, 127
3, 51599, Note_on_c, 9, 42, 0
3, 51600, Note_on_c, 9, 42, 43
3, 51839, Note_on_c, 9, 42, 0
3, 52320, Note_on_c, 9, 42, 127
3, 52799, Note_on_c, 9, 42, 0
3, 53280, Note_on_c, 9, 42, 127
3, 53759, Note_on_c, 9, 42, 0
3, 53760, Note_on_c, 9, 42, 127
3, 53999, Note_on_c, 9, 42, 0
3, 54000, Note_on_c, 9, 42, 43
3, 54239, Note_on_c, 9, 42, 0
3, 54240, Note_on_c, 9, 42, 127
3, 54479, Note_on_c, 9, 42, 0
3, 54480, Note_on_c, 9, 42, 43
3, 54719, Note_on_c, 9, 42, 0
3, 54720, Note_on_c, 9, 42, 127
3, 54959, Note_on_c, 9, 42, 0
3, 54960, Note_on_c, 9, 42, 43
3, 55199, Note_on_c, 9, 42, 0
3, 55200, Note_on_c, 9, 42, 127
3, 55439, Note_on_c, 9, 42, 0
3, 55440, Note_on_c, 9, 42, 43
3, 55679, Note_on_c, 9, 42, 0
3, 55680, Note_on_c, 9, 42, 127
3, 55919, Note_on_c, 9, 42, 0
3, 55920, Note_on_c, 9, 42, 43
3, 56159, Note_on_c, 9, 42, 0
3, 56160, Note_on_c, 9, 42, 127
3, 56399, Note_on_c, 9, 42, 0
3, 56400, Note_on_c, 9, 42, 43
3, 56639, Note_on_c, 9, 42, 0
3, 56640, Note_on_c, 9, 42, 127
3, 56879, Note_on_c, 9, 42, 0
3, 56880, Note_on_c, 9, 42, 43
3, 57119, Note_on_c, 9, 42, 0
3, 57120, Note_on_c, 9, 42, 127
3, 57599, Note_on_c, 9, 42, 0
3, 57600, Note_on_c, 9, 42, 127
3, 57839, Note_on_c, 9, 42, 0
3, 57840, Note_on_c, 9, 42, 43
3, 58079, Note_on_c, 9, 42, 0
3, 58080, Note_on_c, 9, 42, 127
3, 58319, Note_on_c, 9, 42, 0
3, 58320, Note_on_c, 9, 42, 43
3, 58559, Note_on_c, 9, 42, 0
3, 58560, Note_on_c, 9, 42, 127
3, 58799, Note_on_c, 9, 42, 0
3, 58800, Note_on_c, 9, 42, 43
3, 59039, Note_on_c, 9, 42, 0
3, 59040, Note_on_c, 9, 42, 127
3, 59279, Note_on_c, 9, 42, 0
3, 59280, Note_on_c, 9, 42, 43
3, 59519, Note_on_c, 9, 42, 0
3, 59520, Note_on_c, 9, 42, 127
3, 59759, Note_on_c, 9, 42, 0
3, 59760, Note_on_c, 9, 42, 43
3, 59999, Note_on_c, 9, 42, 0
3, 60000, Note_on_c, 9, 42, 127
3, 60239, Note_on_c, 9, 42, 0
3, 60240, Note_on_c, 9, 42, 43
3, 60479, Note_on_c, 9, 42, 0
3, 60480, Note_on_c, 9, 42, 127
3, 60719, Note_on_c, 9, 42, 0
3, 60720, Note_on_c, 9, 42, 43
3, 60959, Note_on_c, 9, 42, 0
3, 60960, Note_on_c, 9, 42, 127
3, 61439, Note_on_c, 9, 42, 0
3, 61440, Note_on_c, 9, 42, 127
3, 61679, Note_on_c, 9, 42, 0
3, 61680, Note_on_c, 9, 42, 43
3, 61919, Note_on_c, 9, 42, 0
3, 61920, Note_on_c, 9, 42, 127
3, 62159, Note_on_c, 9, 42, 0
3, 62160, Note_on_c, 9, 42, 43
3, 62399, Note_on_c, 9, 42, 0
3, 62400, Note_on_c, 9, 42, 127
3, 62639, Note_on_c, 9, 42, 0
3, 62640, Note_on_c, 9, 42, 43
3, 62879, Note_on_c, 9, 42, 0
3, 62880, Note_on_c, 9, 42, 127
3, 63119, Note_on_c, 9, 42, 0
3, 63120, Note_on_c, 9, 42, 43
3, 63359, Note_on_c, 9, 42, 0
3, 63360, Note_on_c, 9, 42, 127
3, 63599, Note_on_c, 9, 42, 0
3, 63600, Note_on_c, 9, 42, 43
3, 63839, Note_on_c, 9, 42, 0
3, 63840, Note_on_c, 9, 42, 127
3, 64079, Note_on_c, 9, 42, 0
3, 64080, Note_on_c, 9, 42, 43
3, 64319, Note_on_c, 9, 42, 0
3, 64320, Note_on_c, 9, 42, 127
3, 64559, Note_on_c, 9, 42, 0
3, 64560, Note_on_c, 9, 42, 43
3, 64799, Note_on_c, 9, 42, 0
3, 64800, Note_on_c, 9, 42, 127
3, 65279, Note_on_c, 9, 42, 0
3, 65280, Note_on_c, 9, 42, 127
3, 65519, Note_on_c, 9, 42, 0
3, 65520, Note_on_c, 9, 42, 43
3, 65759, Note_on_c, 9, 42, 0
3, 65760, Note_on_c, 9, 42, 127
3, 65999, Note_on_c, 9, 42, 0
3, 66000, Note_on_c, 9, 42, 43
3, 66239, Note_on_c, 9, 42, 0
3, 66240, Note_on_c, 9, 42, 127
3, 66479, Note_on_c, 9, 42, 0
3, 66480, Note_on_c, 9, 42, 43
3, 66719, Note_on_c, 9, 42, 0
3, 66720, Note_on_c, 9, 42, 127
3, 66959, Note_on_c, 9, 42, 0
3, 66960, Note_on_c, 9, 42, 43
3, 67199, Note_on_c, 9, 42, 0
3, 67440, Note_on_c, 9, 42, 43
3, 67679, Note_on_c, 9, 42, 0
3, 67920, Note_on_c, 9, 42, 43
3, 68159, Note_on_c, 9, 42, 0
3, 68400, Note_on_c, 9, 42, 43
3, 68639, Note_on_c, 9, 42, 0
3, 68880, Note_on_c, 9, 42, 43
3, 69119, Note_on_c, 9, 42, 0
3, 69360, Note_on_c, 9, 42, 43
3, 69599, Note_on_c, 9, 42, 0
3, 69840, Note_on_c, 9, 42, 43
3, 70079, Note_on_c, 9, 42, 0
3, 70320, Note_on_c, 9, 42, 43
3, 70559, Note_on_c, 9, 42, 0
3, 71040, Note_on_c, 9, 42, 127
3, 71279, Note_on_c, 9, 42, 0
3, 71280, Note_on_c, 9, 42, 43
3, 71519, Note_on_c, 9, 42, 0
3, 71520, Note_on_c, 9, 42, 127
3, 71759, Note_on_c, 9, 42, 0
3, 71760, Note_on_c, 9, 42, 43
3, 71999, Note_on_c, 9, 42, 0
3, 72000, Note_on_c, 9, 42, 127
3, 72239, Note_on_c, 9, 42, 0
3, 72240, Note_on_c, 9, 42, 43
3, 72479, Note_on_c, 9, 42, 0
3, 72480, Note_on_c, 9, 42, 127
3, 72719, Note_on_c, 9, 42, 0
3, 72720, Note_on_c, 9, 42, 43
3, 72959, Note_on_c, 9, 42, 0
3, 72960, Note_on_c, 9, 42, 127
3, 73199, Note_on_c, 9, 42, 0
3, 73200, Note_on_c, 9, 42, 43
3, 73439, Note_on_c, 9, 42, 0
3, 73440, Note_on_c, 9, 42, 127
3, 73679, Note_on_c, 9, 42, 0
3, 73680, Note_on_c, 9, 42, 43
3, 73919, Note_on_c, 9, 42, 0
3, 73920, Note_on_c, 9, 42, 127
3, 74159, Note_on_c, 9, 42, 0
3, 74160, Note_on_c, 9, 42, 43
3, 74399, Note_on_c, 9, 42, 0
3, 74400, Note_on_c, 9, 42, 127
3, 74879, Note_on_c, 9, 42, 0
3, 74880, Note_on_c, 9, 42, 127
3, 75119, Note_on_c, 9, 42, 0
3, 75120, Note_on_c, 9, 42, 43
3, 75359, Note_on_c, 9, 42, 0
3, 75360, Note_on_c, 9, 42, 127
3, 75599, Note_on_c, 9, 42, 0
3, 75600, Note_on_c, 9, 42, 43
3, 75839, Note_on_c, 9, 42, 0
3, 75840, Note_on_c, 9, 42, 127
3, 76079, Note_on_c, 9, 42, 0
3, 76080, Note_on_c, 9, 42, 43
3, 76319, Note_on_c, 9, 42, 0
3, 76320, Note_on_c, 9, 42, 127
3, 76559, Note_on_c, 9, 42, 0
3, 76560, Note_on_c, 9, 42, 43
3, 76799, Note_on_c, 9, 42, 0
3, 76800, Note_on_c, 9, 42, 127
3, 77039, Note_on_c, 9, 42, 0
3, 77040, Note_on_c, 9, 42, 43
3, 77279, Note_on_c, 9, 42, 0
3, 77280, Note_on_c, 9, 42, 127
3, 77519, Note_on_c, 9, 42, 0
3, 77520, Note_on_c, 9, 42, 43
3, 77759, Note_on_c, 9, 42, 0
3, 77760, Note_on_c, 9, 42, 127
3, 77999, Note_on_c, 9, 42, 0
3, 78000, Note_on_c, 9, 42, 43
3, 78239, Note_on_c, 9, 42, 0
3, 78240, Note_on_c, 9, 42, 127
3, 78719, Note_on_c, 9, 42, 0
3, 78720, Note_on_c, 9, 42, 127
3, 78959, Note_on_c, 9, 42, 0
3, 78960, Note_on_c, 9, 42, 43
3, 79199, Note_on_c, 9, 42, 0
3, 79200, Note_on_c, 9, 42, 127
3, 79439, Note_on_c, 9, 42, 0
3, 79440, Note_on_c, 9, 42, 43
3, 79679, Note_on_c, 9, 42, 0
3, 79680, Note_on_c, 9, 42, 127
3, 79919, Note_on_c, 9, 42, 0
3, 79920, Note_on_c, 9, 42, 43
3, 80159, Note_on_c, 9, 42, 0
3, 80160, Note_on_c, 9, 42, 127
3, 80399, Note_on_c, 9, 42, 0
3, 80400, Note_on_c, 9, 42, 43
3, 80639, Note_on_c, 9, 42, 0
3, 80640, Note_on_c, 9, 42, 127
3, 80879, Note_on_c, 9, 42, 0
3, 80880, Note_on_c, 9, 42, 43
3, 81119, Note_on_c, 9, 42, 0
3, 81120, Note_on_c, 9, 42, 127
3, 81359, Note_on_c, 9, 42, 0
3, 81360, Note_on_c, 9, 42, 43
3, 81599, Note_on_c, 9, 42, 0
3, 81600, Note_on_c, 9, 42, 127
3, 81839, Note_on_c, 9, 42, 0
3, 81840, Note_on_c, 9, 42, 43
3, 82079, Note_on_c, 9, 42, 0
3, 82080, Note_on_c, 9, 42, 127
3, 82559, Note_on_c, 9, 42, 0
3, 82560, Note_on_c, 9, 42, 127
3, 82799, Note_on_c, 9, 42, 0
3, 82800, Note_on_c, 9, 42, 43
3, 83039, Note_on_c, 9, 42, 0
3, 83040, Note_on_c, 9, 42, 127
3, 83279, Note_on_c, 9, 42, 0
3, 83280, Note_on_c, 9, 42, 43
3, 83519, Note_on_c, 9, 42, 0
3, 83520, Note_on_c, 9, 42, 127
3, 83759, Note_on_c, 9, 42, 0
3, 83760, Note_on_c, 9, 42, 43
3, 83999, Note_on_c, 9, 42, 0
3, 84000, Note_on_c, 9, 42, 127
3, 84239, Note_on_c, 9, 42, 0
3, 84240, Note_on_c, 9, 42, 43
3, 84479, Note_on_c, 9, 42, 0
3, 84480, Note_on_c, 9, 42, 127
3, 84719, Note_on_c, 9, 42, 0
3, 84720, Note_on_c, 9, 42, 43
3, 84959, Note_on_c, 9, 42, 0
3, 84960, Note_on_c, 9, 42, 127
3, 85199, Note_on_c, 9, 42, 0
3, 85200, Note_on_c, 9, 42, 43
3, 85439, Note_on_c, 9, 42, 0
3, 85440, Note_on_c, 9, 42, 127
3, 85679, Note_on_c, 9, 42, 0
3, 85680, Note_on_c, 9, 42, 43
3, 85919, Note_on_c, 9, 42, 0
3, 85920, Note_on_c, 9, 42, 127
3, 86399, Note_on_c, 9, 42, 0
3, 86400, Note_on_c, 9, 42, 127
3, 86639, Note_on_c, 9, 42, 0
3, 86640, Note_on_c, 9, 42, 43
3, 86879, Note_on_c, 9, 42, 0
3, 86880, Note_on_c, 9, 42, 127
3, 87119, Note_on_c, 9, 42, 0
3, 87120, Note_on_c, 9, 42, 43
3, 87359, Note_on_c, 9, 42, 0
3, 87360, Note_on_c, 9, 42, 127
3, 87599, Note_on_c, 9, 42, 0
3, 87600, Note_on_c, 9, 42, 43
3, 87839, Note_on_c, 9, 42, 0
3, 87840, Note_on_c, 9, 42, 127
3, 88079, Note_on_c, 9, 42, 0
3, 88080, Note_on_c, 9, 42, 43
3, 88319, Note_on_c, 9, 42, 0
3, 88800, Note_on_c, 9, 42, 127
3, 89279, Note_on_c, 9, 42, 0
3, 89760, Note_on_c, 9, 42, 127
3, 90239, Note_on_c, 9, 42, 0
3, 90240, Note_on_c, 9, 42, 127
3, 90479, Note_on_c, 9, 42, 0
3, 90480, Note_on_c, 9, 42, 43
3, 90719, Note_on_c, 9, 42, 0
3, 90720, Note_on_c, 9, 42, 127
3, 90959, Note_on_c, 9, 42, 0
3, 90960, Note_on_c, 9, 42, 43
3, 91199, Note_on_c, 9, 42, 0
3, 91200, Note_on_c, 9, 42, 127
3, 91439, Note_on_c, 9, 42, 0
3, 91440, Note_on_c, 9, 42, 43
3, 91679, Note_on_c, 9, 42, 0
3, 91680, Note_on_c, 9, 42, 127
3, 91919, Note_on_c, 9, 42, 0
3, 91920, Note_on_c, 9, 42, 43
3, 92159, Note_on_c, 9, 42, 0
3, 92160, Note_on_c, 9, 42, 127
3, 92399, Note_on_c, 9, 42, 0
3, 92400, Note_on_c, 9, 42, 43
3, 92639, Note_on_c, 9, 42, 0
3, 92640, Note_on_c, 9, 42, 127
3, 92879, Note_on_c, 9, 42, 0
3, 92880, Note_on_c, 9, 42, 43
3, 93119, Note_on_c, 9, 42, 0
3, 93120, Note_on_c, 9, 42, 127
3, 93359, Note_on_c, 9, 42, 0
3, 93360, Note_on_c, 9, 42, 43
3, 93599, Note_on_c, 9, 42, 0
3, 93600, Note_on_c, 9, 42, 127
3, 94079, Note_on_c, 9, 42, 0
3, 94080, Note_on_c, 9, 42, 127
3, 94319, Note_on_c, 9, 42, 0
3, 94320, Note_on_c, 9, 42, 43
3, 94559, Note_on_c, 9, 42, 0
3, 94560, Note_on_c, 9, 42, 127
3, 94799, Note_on_c, 9, 42, 0
3, 94800, Note_on_c, 9, 42, 43
3, 95039, Note_on_c, 9, 42, 0
3, 95040, Note_on_c, 9, 42, 127
3, 95279, Note_on_c, 9, 42, 0
3, 95280, Note_on_c, 9, 42, 43
3, 95519, Note_on_c, 9, 42, 0
3, 95520, Note_on_c, 9, 42, 127
3, 95759, Note_on_c, 9, 42, 0
3, 95760, Note_on_c, 9, 42, 43
3, 95999, Note_on_c, 9, 42, 0
3, 96000, Note_on_c, 9, 42, 127
3, 96239, Note_on_c, 9, 42, 0
3, 96240, Note_on_c, 9, 42, 43
3, 96479, Note_on_c, 9, 42, 0
3, 96480, Note_on_c, 9, 42, 127
3, 96719, Note_on_c, 9, 42, 0
3, 96720, Note_on_c, 9, 42, 43
3, 96959, Note_on_c, 9, 42, 0
3, 96960, Note_on_c, 9, 42, 127
3, 97199, Note_on_c, 9, 42, 0
3, 97200, Note_on_c, 9, 42, 43
3, 97439, Note_on_c, 9, 42, 0
3, 97440, Note_on_c, 9, 42, 127
3, 97919, Note_on_c, 9, 42, 0
3, 97920, Note_on_c, 9, 42, 127
3, 98159, Note_on_c, 9, 42, 0
3, 98160, Note_on_c, 9, 42, 43
3, 98399, Note_on_c, 9, 42, 0
3, 98400, Note_on_c, 9, 42, 127
3, 98639, Note_on_c, 9, 42, 0
3, 98640, Note_on_c, 9, 42, 43
3, 98879, Note_on_c, 9, 42, 0
3, 98880, Note_on_c, 9, 42, 127
3, 99119, Note_on_c, 9, 42, 0
3, 99120, Note_on_c, 9, 42, 43
3, 99359, Note_on_c, 9, 42, 0
3, 99360, Note_on_c, 9, 42, 127
3, 99599, Note_on_c, 9, 42, 0
3, 99600, Note_on_c, 9, 42, 43
3, 99839, Note_on_c, 9, 42, 0
3, 99840, Note_on_c, 9, 42, 127
3, 100079, Note_on_c, 9, 42, 0
3, 100080, Note_on_c, 9, 42, 43
3, 100319, Note_on_c, 9, 42, 0
3, 100320, Note_on_c, 9, 42, 127
3, 100559, Note_on_c, 9, 42, 0
3, 100560, Note_on_c, 9, 42, 43
3, 100799, Note_on_c, 9, 42, 0
3, 100800, Note_on_c, 9, 42, 127
3, 101039, Note_on_c, 9, 42, 0
3, 101040, Note_on_c, 9, 42, 43
3, 101279, Note_on_c, 9, 42, 0
3, 101280, Note_on_c, 9, 42, 127
3, 101759, Note_on_c, 9, 42, 0
3, 101760, Note_on_c, 9, 42, 127
3, 101999, Note_on_c, 9, 42, 0
3, 102000, Note_on_c, 9, 42, 43
3, 102239, Note_on_c, 9, 42, 0
3, 102240, Note_on_c, 9, 42, 127
3, 102479, Note_on_c, 9, 42, 0
3, 102480, Note_on_c, 9, 42, 43
3, 102719, Note_on_c, 9, 42, 0
3, 102720, Note_on_c, 9, 42, 127
3, 102959, Note_on_c, 9, 42, 0
3, 102960, Note_on_c, 9, 42, 43
3, 103199, Note_on_c, 9, 42, 0
3, 103200, Note_on_c, 9, 42, 127
3, 103439, Note_on_c, 9, 42, 0
3, 103440, Note_on_c, 9, 42, 43
3, 103679, Note_on_c, 9, 42, 0
3, 103920, Note_on_c, 9, 42, 43
3, 104159, Note_on_c, 9, 42, 0
3, 104400, Note_on_c, 9, 42, 43
3, 104639, Note_on_c, 9, 42, 0
3, 104880, Note_on_c, 9, 42, 43
3, 105119, Note_on_c, 9, 42, 0
3, 105360, Note_on_c, 9, 42, 43
3, 105599, Note_on_c, 9, 42, 0
3, 105840, Note_on_c, 9, 42, 43
3, 106079, Note_on_c, 9, 42, 0
3, 106320, Note_on_c, 9, 42, 43
3, 106559, Note_on_c, 9, 42, 0
3, 106800, Note_on_c, 9, 42, 43
3, 107039, Note_on_c, 9, 42, 0
3, 107520, Note_on_c, 9, 42, 127
3, 107759, Note_on_c, 9, 42, 0
3, 107760, Note_on_c, 9, 42, 43
3, 107999, Note_on_c, 9, 42, 0
3, 108000, Note_on_c, 9, 42, 127
3, 108239, Note_on_c, 9, 42, 0
3, 108240, Note_on_c, 9, 42, 43
3, 108479, Note_on_c, 9, 42, 0
3, 108480, Note_on_c, 9, 42, 127
3, 108719, Note_on_c, 9, 42, 0
3, 108720, Note_on_c, 9, 42, 43
3, 108959, Note_on_c, 9, 42, 0
3, 108960, Note_on_c, 9, 42, 127
3, 109199, Note_on_c, 9, 42, 0
3, 109200, Note_on_c, 9, 42, 43
3, 109439, Note_on_c, 9, 42, 0
3, 109440, Note_on_c, 9, 42, 127
3, 109679, Note_on_c, 9, 42, 0
3, 109680, Note_on_c, 9, 42, 43
3, 109919, Note_on_c, 9, 42, 0
3, 109920, Note_on_c, 9, 42, 127
3, 110159, Note_on_c, 9, 42, 0
3, 110160, Note_on_c, 9, 42, 43
3, 110399, Note_on_c, 9, 42, 0
3, 110400, Note_on_c, 9, 42, 127
3, 110639, Note_on_c, 9, 42, 0
3, 110640, Note_on_c, 9, 42, 43
3, 110879, Note_on_c, 9, 42, 0
3, 110880, Note_on_c, 9, 42, 127
3, 111359, Note_on_c, 9, 42, 0
3, 111360, Note_on_c, 9, 42, 127
3, 111599, Note_on_c, 9, 42, 0
3, 111600, Note_on_c, 9, 42, 43
3, 111839, Note_on_c, 9, 42, 0
3, 111840, Note_on_c, 9, 42, 127
3, 112079, Note_on_c, 9, 42, 0
3, 112080, Note_on_c, 9, 42, 43
3, 112319, Note_on_c, 9, 42, 0
3, 112320, Note_on_c, 9, 42, 127
3, 112559, Note_on_c, 9, 42, 0
3, 112560, Note_on_c, 9, 42, 43
3, 112799, Note_on_c, 9, 42, 0
3, 112800, Note_on_c, 9, 42, 127
3, 113039, Note_on_c, 9, 42, 0
3, 113040, Note_on_c, 9, 42, 43
3, 113279, Note_on_c, 9, 42, 0
3, 113280, Note_on_c, 9, 42, 127
3, 113519, Note_on_c, 9, 42, 0
3, 113520, Note_on_c, 9, 42, 43
3, 113759, Note_on_c, 9, 42, 0
3, 113760, Note_on_c, 9, 42, 127
3, 113999, Note_on_c, 9, 42, 0
3, 114000, Note_on_c, 9, 42, 43
3, 114239, Note_on_c, 9, 42, 0
3, 114240, Note_on_c, 9, 42, 127
3, 114479, Note_on_c, 9, 42, 0
3, 114480, Note_on_c, 9, 42, 43
3, 114719, Note_on_c, 9, 42, 0
3, 114720, Note_on_c, 9, 42, 127
3, 115199, Note_on_c, 9, 42, 0
3, 115200, Note_on_c, 9, 42, 127
3, 115439, Note_on_c, 9, 42, 0
3, 115440, Note_on_c, 9, 42, 43
3, 115679, Note_on_c, 9, 42, 0
3, 115680, Note_on_c, 9, 42, 127
3, 115919, Note_on_c, 9, 42, 0
3, 115920, Note_on_c, 9, 42, 43
3, 116159, Note_on_c, 9, 42, 0
3, 116160, Note_on_c, 9, 42, 127
3, 116399, Note_on_c, 9, 42, 0
3, 116400, Note_on_c, 9, 42, 43
3, 116639, Note_on_c, 9, 42, 0
3, 116640, Note_on_c, 9, 42, 127
3, 116879, Note_on_c, 9, 42, 0
3, 116880, Note_on_c, 9, 42, 43
3, 117119, Note_on_c, 9, 42, 0
3, 117120, Note_on_c, 9, 42, 127
3, 117359, Note_on_c, 9, 42, 0
3, 117360, Note_on_c, 9, 42, 43
3, 117599, Note_on_c, 9, 42, 0
3, 117600, Note_on_c, 9, 42, 127
3, 117839, Note_on_c, 9, 42, 0
3, 117840, Note_on_c, 9, 42, 43
3, 118079, Note_on_c, 9, 42, 0
3, 118080, Note_on_c, 9, 42, 127
3, 118319, Note_on_c, 9, 42, 0
3, 118320, Note_on_c, 9, 42, 43
3, 118559, Note_on_c, 9, 42, 0
3, 118560, Note_on_c, 9, 42, 127
3, 119039, Note_on_c, 9, 42, 0
3, 119040, Note_on_c, 9, 42, 127
3, 119279, Note_on_c, 9, 42, 0
3, 119280, Note_on_c, 9, 42, 43
3, 119519, Note_on_c, 9, 42, 0
3, 119520, Note_on_c, 9, 42, 127
3, 119759, Note_on_c, 9, 42, 0
3, 119760, Note_on_c, 9, 42, 43
3, 119999, Note_on_c, 9, 42, 0
3, 120000, Note_on_c, 9, 42, 127
3, 120239, Note_on_c, 9, 42, 0
3, 120240, Note_on_c, 9, 42, 43
3, 120479, Note_on_c, 9, 42, 0
3, 120480, Note_on_c, 9, 42, 127
3, 120719, Note_on_c, 9, 42, 0
3, 120720, Note_on_c, 9, 42, 43
3, 120959, Note_on_c, 9, 42, 0
3, 120960, Note_on_c, 9, 42, 127
3, 121199, Note_on_c, 9, 42, 0
3, 121200, Note_on_c, 9, 42, 43
3, 121439, Note_on_c, 9, 42, 0
3, 121440, Note_on_c, 9, 42, 127
3, 121679, Note_on_c, 9, 42, 0
3, 121680, Note_on_c, 9, 42, 43
3, 121919, Note_on_c, 9, 42, 0
3, 121920, Note_on_c, 9, 42, 127
3, 122159, Note_on_c, 9, 42, 0
3, 122160, Note_on_c, 9, 42, 43
3, 122399, Note_on_c, 9, 42, 0
3, 122400, Note_on_c, 9, 42, 127
3, 122879, Note_on_c, 9, 42, 0
3, 122880, Note_on_c, 9, 42, 127
3, 123119, Note_on_c, 9, 42, 0
3, 123120, Note_on_c, 9, 42, 43
3, 123359, Note_on_c, 9, 42, 0
3, 123360, Note_on_c, 9, 42, 127
3, 123599, Note_on_c, 9, 42, 0
3, 123600, Note_on_c, 9, 42, 43
3, 123839, Note_on_c, 9, 42, 0
3, 123840, Note_on_c, 9, 42, 127
3, 124079, Note_on_c, 9, 42, 0
3, 124080, Note_on_c, 9, 42, 43
3, 124319, Note_on_c, 9, 42, 0
3, 124320, Note_on_c, 9, 42, 127
3, 124559, Note_on_c, 9, 42, 0
3, 124560, Note_on_c, 9, 42, 43
3, 124799, Note_on_c, 9, 42, 0
3, 125280, Note_on_c, 9, 42, 127
3, 125759, Note_on_c, 9, 42, 0
3, 126240, Note_on_c, 9, 42, 127
3, 126719, Note_on_c, 9, 42, 0
3, 126720, Note_on_c, 9, 42, 127
3, 126959, Note_on_c, 9, 42, 0
3, 126960, Note_on_c, 9, 42, 43
3, 127199, Note_on_c, 9, 42, 0
3, 127200, Note_on_c, 9, 42, 127
3, 127439, Note_on_c, 9, 42, 0
3, 127440, Note_on_c, 9, 42, 43
3, 127679, Note_on_c, 9, 42, 0
3, 127680, Note_on_c, 9, 42, 127
3, 127919, Note_on_c, 9, 42, 0
3, 127920, Note_on_c, 9, 42, 43
3, 128159, Note_on_c, 9, 42, 0
3, 128160, Note_on_c, 9, 42, 127
3, 128399, Note_on_c, 9, 42, 0
3, 128400, Note_on_c, 9, 42, 43
3, 128639, Note_on_c, 9, 42, 0
3, 128640, Note_on_c, 9, 42, 127
3, 128879, Note_on_c, 9, 42, 0
3, 128880, Note_on_c, 9, 42, 43
3, 129119, Note_on_c, 9, 42, 0
3, 129120, Note_on_c, 9, 42, 127
3, 129359, Note_on_c, 9, 42, 0
3, 129360, Note_on_c, 9, 42, 43
3, 129599, Note_on_c, 9, 42, 0
3, 129600, Note_on_c, 9, 42, 127
3, 129839, Note_on_c, 9, 42, 0
3, 129840, Note_on_c, 9, 42, 43
3, 130079, Note_on_c, 9, 42, 0
3, 130080, Note_on_c, 9, 42, 127
3, 130559, Note_on_c, 9, 42, 0
3, 130560, Note_on_c, 9, 42, 127
3, 130799, Note_on_c, 9, 42, 0
3, 130800, Note_on_c, 9, 42, 43
3, 131039, Note_on_c, 9, 42, 0
3, 131040, Note_on_c, 9, 42, 127
3, 131279, Note_on_c, 9, 42, 0
3, 131280, Note_on_c, 9, 42, 43
3, 131519, Note_on_c, 9, 42, 0
3, 131520, Note_on_c, 9, 42, 127
3, 131759, Note_on_c, 9, 42, 0
3, 131760, Note_on_c, 9, 42, 43
3, 131999, Note_on_c, 9, 42, 0
3, 132000, Note_on_c, 9, 42, 127
3, 132239, Note_on_c, 9, 42, 0
3, 132240, Note_on_c, 9, 42, 43
3, 132479, Note_on_c, 9, 42, 0
3, 132480, Note_on_c, 9, 42, 127
3, 132719, Note_on_c, 9, 42, 0
3, 132720, Note_on_c, 9, 42, 43
3, 132959, Note_on_c, 9, 42, 0
3, 132960, Note_on_c, 9, 42, 127
3, 133199, Note_on_c, 9, 42, 0
3, 133200, Note_on_c, 9, 42, 43
3, 133439, Note_on_c, 9, 42, 0
3, 133440, Note_on_c, 9, 42, 127
3, 133679, Note_on_c, 9, 42, 0
3, 133680, Note_on_c, 9, 42, 43
3, 133919, Note_on_c, 9, 42, 0
3, 133920, Note_on_c, 9, 42, 127
3, 134399, Note_on_c, 9, 42, 0
3, 134400, Note_on_c, 9, 42, 127
3, 134639, Note_on_c, 9, 42, 0
3, 134640, Note_on_c, 9, 42, 43
3, 134879, Note_on_c, 9, 42, 0
3, 134880, Note_on_c, 9, 42, 127
3, 135119, Note_on_c, 9, 42, 0
3, 135120, Note_on_c, 9, 42, 43
3, 135359, Note_on_c, 9, 42, 0
3, 135360, Note_on_c, 9, 42, 127
3, 135599, Note_on_c, 9, 42, 0
3, 135600, Note_on_c, 9, 42, 43
3, 135839, Note_on_c, 9, 42, 0
3, 135840, Note_on_c, 9, 42, 127
3, 136079, Note_on_c, 9, 42, 0
3, 136080, Note_on_c, 9, 42, 43
3, 136319, Note_on_c, 9, 42, 0
3, 136320, Note_on_c, 9, 42, 127
3, 136559, Note_on_c, 9, 42, 0
3, 136560, Note_on_c, 9, 42, 43
3, 136799, Note_on_c, 9, 42, 0
3, 136800, Note_on_c, 9, 42, 127
3, 137039, Note_on_c, 9, 42, 0
3, 137040, Note_on_c, 9, 42, 43
3, 137279, Note_on_c, 9, 42, 0
3, 137280, Note_on_c, 9, 42, 127
3, 137519, Note_on_c, 9, 42, 0
3, 137520, Note_on_c, 9, 42, 43
3, 137759, Note_on_c, 9, 42, 0
3, 137760, Note_on_c, 9, 42, 127
3, 138239, Note_on_c, 9, 42, 0
3, 138240, Note_on_c, 9, 42, 127
3, 138479, Note_on_c, 9, 42, 0
3, 138480, Note_on_c, 9, 42, 43
3, 138719, Note_on_c, 9, 42, 0
3, 138720, Note_on_c, 9, 42, 127
3, 138959, Note_on_c, 9, 42, 0
3, 138960, Note_on_c, 9, 42, 43
3, 139199, Note_on_c, 9, 42, 0
3, 139200, Note_on_c, 9, 42, 127
3, 139439, Note_on_c, 9, 42, 0
3, 139440, Note_on_c, 9, 42, 43
3, 139679, Note_on_c, 9, 42, 0
3, 139680, Note_on_c, 9, 42, 127
3, 139919, Note_on_c, 9, 42, 0
3, 139920, Note_on_c, 9, 42, 43
3, 140159, Note_on_c, 9, 42, 0
3, 140400, Note_on_c, 9, 42, 43
3, 140639, Note_on_c, 9, 42, 0
3, 140880, Note_on_c, 9, 42, 43
3, 141119, Note_on_c, 9, 42, 0
3, 141360, Note_on_c, 9, 42, 43
3, 141599, Note_on_c, 9, 42, 0
3, 141840, Note_on_c, 9, 42, 43
3, 142079, Note_on_c, 9, 42, 0
3, 142320, Note_on_c, 9, 42, 43
3, 142559, Note_on_c, 9, 42, 0
3, 142800, Note_on_c, 9, 42, 43
3, 143039, Note_on_c, 9, 42, 0
3, 143280, Note_on_c, 9, 42, 43
3, 143519, Note_on_c, 9, 42, 0
3, 144000, Note_on_c, 9, 42, 127
3, 144239, Note_on_c, 9, 42, 0
3, 144240, Note_on_c, 9, 42, 43
3, 144479, Note_on_c, 9, 42, 0
3, 144480, Note_on_c, 9, 42, 127
3, 144719, Note_on_c, 9, 42, 0
3, 144720, Note_on_c, 9, 42, 43
3, 144959, Note_on_c, 9, 42, 0
3, 144960, Note_on_c, 9, 42, 127
3, 145199, Note_on_c, 9, 42, 0
3, 145200, Note_on_c, 9, 42, 43
3, 145439, Note_on_c, 9, 42, 0
3, 145440, Note_on_c, 9, 42, 127
3, 145679, Note_on_c, 9, 42, 0
3, 145680, Note_on_c, 9, 42, 43
3, 145919, Note_on_c, 9, 42, 0
3, 145920, Note_on_c, 9, 42, 127
3, 146159, Note_on_c, 9, 42, 0
3, 146160, Note_on_c, 9, 42, 43
3, 146399, Note_on_c, 9, 42, 0
3, 146400, Note_on_c, 9, 42, 127
3, 146639, Note_on_c, 9, 42, 0
3, 146640, Note_on_c, 9, 42, 43
3, 146879, Note_on_c, 9, 42, 0
3, 146880, Note_on_c, 9, 42, 127
3, 147119, Note_on_c, 9, 42, 0
3, 147120, Note_on_c, 9, 42, 43
3, 147359, Note_on_c, 9, 42, 0
3, 147360, Note_on_c, 9, 42, 127
3, 147839, Note_on_c, 9, 42, 0
3, 147840, Note_on_c, 9, 42, 127
3, 148079, Note_on_c, 9, 42, 0
3, 148080, Note_on_c, 9, 42, 43
3, 148319, Note_on_c, 9, 42, 0
3, 148320, Note_on_c, 9, 42, 127
3, 148559, Note_on_c, 9, 42, 0
3, 148560, Note_on_c, 9, 42, 43
3, 148799, Note_on_c, 9, 42, 0
3, 148800, Note_on_c, 9, 42, 127
3, 149039, Note_on_c, 9, 42, 0
3, 149040, Note_on_c, 9, 42, 43
3, 149279, Note_on_c, 9, 42, 0
3, 149280, Note_on_c, 9, 42, 127
3, 149519, Note_on_c, 9, 42, 0
3, 149520, Note_on_c, 9, 42, 43
3, 149759, Note_on_c, 9, 42, 0
3, 149760, Note_on_c, 9, 42, 127
3, 149999, Note_on_c, 9, 42, 0
3, 150000, Note_on_c, 9, 42, 43
3, 150239, Note_on_c, 9, 42, 0
3, 150240, Note_on_c, 9, 42, 127
3, 150479, Note_on_c, 9, 42, 0
3, 150480, Note_on_c, 9, 42, 43
3, 150719, Note_on_c, 9, 42, 0
3, 150720, Note_on_c, 9, 42, 127
3, 150959, Note_on_c, 9, 42, 0
3, 150960, Note_on_c, 9, 42, 43
3, 151199, Note_on_c, 9, 42, 0
3, 151200, Note_on_c, 9, 42, 127
3, 151679, Note_on_c, 9, 42, 0
3, 151680, Note_on_c, 9, 42, 127
3, 151919, Note_on_c, 9, 42, 0
3, 151920, Note_on_c, 9, 42, 43
3, 152159, Note_on_c, 9, 42, 0
3, 152160, Note_on_c, 9, 42, 127
3, 152399, Note_on_c, 9, 42, 0
3, 152400, Note_on_c, 9, 42, 43
3, 152639, Note_on_c, 9, 42, 0
3, 152640, Note_on_c, 9, 42, 127
3, 152879, Note_on_c, 9, 42, 0
3, 152880, Note_on_c, 9, 42, 43
3, 153119, Note_on_c, 9, 42, 0
3, 153120, Note_on_c, 9, 42, 127
3, 153359, Note_on_c, 9, 42, 0
3, 153360, Note_on_c, 9, 42, 43
3, 153599, Note_on_c, 9, 42, 0
3, 153600, Note_on_c, 9, 42, 127
3, 153839, Note_on_c, 9, 42, 0
3, 153840, Note_on_c, 9, 42, 43
3, 154079, Note_on_c, 9, 42, 0
3, 154080, Note_on_c, 9, 42, 127
3, 154319, Note_on_c, 9, 42, 0
3, 154320, Note_on_c, 9, 42, 43
3, 154559, Note_on_c, 9, 42, 0
3, 154560, Note_on_c, 9, 42, 127
3, 154799, Note_on_c, 9, 42, 0
3, 154800, Note_on_c, 9, 42, 43
3, 155039, Note_on_c, 9, 42, 0
3, 155040, Note_on_c, 9, 42, 127
3, 155519, Note_on_c, 9, 42, 0
3, 155520, Note_on_c, 9, 42, 127
3, 155759, Note_on_c, 9, 42, 0
3, 155760, Note_on_c, 9, 42, 43
3, 155999, Note_on_c, 9, 42, 0
3, 156000, Note_on_c, 9, 42, 127
3, 156239, Note_on_c, 9, 42, 0
3, 156240, Note_on_c, 9, 42, 43
3, 156479, Note_on_c, 9, 42, 0
3, 156480, Note_on_c, 9, 42, 127
3, 156719, Note_on_c, 9, 42, 0
3, 156720, Note_on_c, 9, 42, 43
3, 156959, Note_on_c, 9, 42, 0
3, 156960, Note_on_c, 9, 42, 127
3, 157199, Note_on_c, 9, 42, 0
3, 157200, Note_on_c, 9, 42, 43
3, 157439, Note_on_c, 9, 42, 0
3, 157440, Note_on_c, 9, 42, 127
3, 157679, Note_on_c, 9, 42, 0
3, 157680, Note_on_c, 9, 42, 43
3, 157919, Note_on_c, 9, 42, 0
3, 157920, Note_on_c, 9, 42, 127
3, 158159, Note_on_c, 9, 42, 0
3, 158160, Note_on_c, 9, 42, 43
3, 158399, Note_on_c, 9, 42, 0
3, 158400, Note_on_c, 9, 42, 127
3, 158639, Note_on_c, 9, 42, 0
3, 158640, Note_on_c, 9, 42, 43
3, 158879, Note_on_c, 9, 42, 0
3, 158880, Note_on_c, 9, 42, 127
3, 159359, Note_on_c, 9, 42, 0
3, 159360, Note_on_c, 9, 42, 127
3, 159599, Note_on_c, 9, 42, 0
3, 159600, Note_on_c, 9, 42, 43
3, 159839, Note_on_c, 9, 42, 0
3, 159840, Note_on_c, 9, 42, 127
3, 160079, Note_on_c, 9, 42, 0
3, 160080, Note_on_c, 9, 42, 43
3, 160319, Note_on_c, 9, 42, 0
3, 160320, Note_on_c, 9, 42, 127
3, 160559, Note_on_c, 9, 42, 0
3, 160560, Note_on_c, 9, 42, 43
3, 160799, Note_on_c, 9, 42, 0
3, 160800, Note_on_c, 9, 42, 127
3, 161039, Note_on_c, 9, 42, 0
3, 161040, Note_on_c, 9, 42, 43
3, 161279, Note_on_c, 9, 42, 0
3, 161760, Note_on_c, 9, 42, 127
3, 162239, Note_on_c, 9, 42, 0
3, 162720, Note_on_c, 9, 42, 127
3, 163199, Note_on_c, 9, 42, 0
3, 163200, Note_on_c, 9, 42, 127
3, 163439, Note_on_c, 9, 42, 0
3, 163440, Note_on_c, 9, 42, 43
3, 163679, Note_on_c, 9, 42, 0
3, 163680, Note_on_c, 9, 42, 127
3, 163919, Note_on_c, 9, 42, 0
3, 163920, Note_on_c, 9, 42, 43
3, 164159, Note_on_c, 9, 42, 0
3, 164160, Note_on_c, 9, 42, 127
3, 164399, Note_on_c, 9, 42, 0
3, 164400, Note_on_c, 9, 42, 43
3, 164639, Note_on_c, 9, 42, 0
3, 164640, Note_on_c, 9, 42, 127
3, 164879, Note_on_c, 9, 42, 0
3, 164880, Note_on_c, 9, 42, 43
3, 165119, Note_on_c, 9, 42, 0
3, 165120, Note_on_c, 9, 42, 127
3, 165359, Note_on_c, 9, 42, 0
3, 165360, Note_on_c, 9, 42, 43
3, 165599, Note_on_c, 9, 42, 0
3, 165600, Note_on_c, 9, 42, 127
3, 165839, Note_on_c, 9, 42, 0
3, 165840, Note_on_c, 9, 42, 43
3, 166079, Note_on_c, 9, 42, 0
3, 166080, Note_on_c, 9, 42, 127
3, 166319, Note_on_c, 9, 42, 0
3, 166320, Note_on_c, 9, 42, 43
3, 166559, Note_on_c, 9, 42, 0
3, 166560, Note_on_c, 9, 42, 127
3, 167039, Note_on_c, 9, 42, 0
3, 167040, Note_on_c, 9, 42, 127
3, 167279, Note_on_c, 9, 42, 0
3, 167280, Note_on_c, 9, 42, 43
3, 167519, Note_on_c, 9, 42, 0
3, 167520, Note_on_c, 9, 42, 127
3, 167759, Note_on_c, 9, 42, 0
3, 167760, Note_on_c, 9, 42, 43
3, 167999, Note_on_c, 9, 42, 0
3, 168000, Note_on_c, 9, 42, 127
3, 168239, Note_on_c, 9, 42, 0
3, 168240, Note_on_c, 9, 42, 43
3, 168479, Note_on_c, 9, 42, 0
3, 168480, Note_on_c, 9, 42, 127
3, 168719, Note_on_c, 9, 42, 0
3, 168720, Note_on_c, 9, 42, 43
3, 168959, Note_on_c, 9, 42, 0
3, 168960, Note_on_c, 9, 42, 127
3, 169199, Note_on_c, 9, 42, 0
3, 169200, Note_on_c, 9, 42, 43
3, 169439, Note_on_c, 9, 42, 0
3, 169440, Note_on_c, 9, 42, 127
3, 169679, Note_on_c, 9, 42, 0
3, 169680, Note_on_c, 9, 42, 43
3, 169919, Note_on_c, 9, 42, 0
3, 169920, Note_on_c, 9, 42, 127
3, 170159, Note_on_c, 9, 42, 0
3, 170160, Note_on_c, 9, 42, 43
3, 170399, Note_on_c, 9, 42, 0
3, 170400, Note_on_c, 9, 42, 127
3, 170879, Note_on_c, 9, 42, 0
3, 170880, Note_on_c, 9, 42, 127
3, 171119, Note_on_c, 9, 42, 0
3, 171120, Note_on_c, 9, 42, 43
3, 171359, Note_on_c, 9, 42, 0
3, 171360, Note_on_c, 9, 42, 127
3, 171599, Note_on_c, 9, 42, 0
3, 171600, Note_on_c, 9, 42, 43
3, 171839, Note_on_c, 9, 42, 0
3, 171840, Note_on_c, 9, 42, 127
3, 172079, Note_on_c, 9, 42, 0
3, 172080, Note_on_c, 9, 42, 43
3, 172319, Note_on_c, 9, 42, 0
3, 172320, Note_on_c, 9, 42, 127
3, 172559, Note_on_c, 9, 42, 0
3, 172560, Note_on_c, 9, 42, 43
3, 172799, Note_on_c, 9, 42, 0
3, 172800, Note_on_c, 9, 42, 127
3, 173039, Note_on_c, 9, 42, 0
3, 173040, Note_on_c, 9, 42, 43
3, 173279, Note_on_c, 9, 42, 0
3, 173280, Note_on_c, 9, 42, 127
3, 173519, Note_on_c, 9, 42, 0
3, 173520, Note_on_c, 9, 42, 43
3, 173759, Note_on_c, 9, 42, 0
3, 173760, Note_on_c, 9, 42, 127
3, 173999, Note_on_c, 9, 42, 0
3, 174000, Note_on_c, 9, 42, 43
3, 174239, Note_on_c, 9, 42, 0
3, 174240, Note_on_c, 9, 42, 127
3, 174719, Note_on_c, 9, 42, 0
3, 174720, Note_on_c, 9, 42, 127
3, 174959, Note_on_c, 9, 42, 0
3, 174960, Note_on_c, 9, 42, 43
3, 175199, Note_on_c, 9, 42, 0
3, 175200, Note_on_c, 9, 42, 127
3, 175439, Note_on_c, 9, 42, 0
3, 175440, Note_on_c, 9, 42, 43
3, 175679, Note_on_c, 9, 42, 0
3, 175680, Note_on_c, 9, 42, 127
3, 175919, Note_on_c, 9, 42, 0
3, 175920, Note_on_c, 9, 42, 43
3, 176159, Note_on_c, 9, 42, 0
3, 176160, Note_on_c, 9, 42, 127
3, 176399, Note_on_c, 9, 42, 0
3, 176400, Note_on_c, 9, 42, 43
3, 176639, Note_on_c, 9, 42, 0
3, 176880, Note_on_c, 9, 42, 43
3, 177119, Note_on_c, 9, 42, 0
3, 177360, Note_on_c, 9, 42, 43
3, 177599, Note_on_c, 9, 42, 0
3, 177840, Note_on_c, 9, 42, 43
3, 178079, Note_on_c, 9, 42, 0
3, 178320, Note_on_c, 9, 42, 43
3, 178559, Note_on_c, 9, 42, 0
3, 178800, Note_on_c, 9, 42, 43
3, 179039, Note_on_c, 9, 42, 0
3, 179280, Note_on_c, 9, 42, 43
3, 179519, Note_on_c, 9, 42, 0
3, 179760, Note_on_c, 9, 42, 43
3, 179999, Note_on_c, 9, 42, 0
3, 180480, Note_on_c, 9, 42, 127
3, 180719, Note_on_c, 9, 42, 0
3, 180720, Note_on_c, 9, 42, 43
3, 180959, Note_on_c, 9, 42, 0
3, 180960, Note_on_c, 9, 42, 127
3, 181199, Note_on_c, 9, 42, 0
3, 181200, Note_on_c, 9, 42, 43
3, 181439, Note_on_c, 9, 42, 0
3, 181440, Note_on_c, 9, 42, 127
3, 181679, Note_on_c, 9, 42, 0
3, 181680, Note_on_c, 9, 42, 43
3, 181919, Note_on_c, 9, 42, 0
3, 181920, Note_on_c, 9, 42, 127
3, 182159, Note_on_c, 9, 42, 0
3, 182160, Note_on_c, 9, 42, 43
3, 182399, Note_on_c, 9, 42, 0
3, 182400, Note_on_c, 9, 42, 127
3, 182639, Note_on_c, 9, 42, 0
3, 182640, Note_on_c, 9, 42, 43
3, 182879, Note_on_c, 9, 42, 0
3, 182880, Note_on_c, 9, 42, 127
3, 183119, Note_on_c, 9, 42, 0
3, 183120, Note_on_c, 9, 42, 43
3, 183359, Note_on_c, 9, 42, 0
3, 183360, Note_on_c, 9, 42, 127
3, 183599, Note_on_c, 9, 42, 0
3, 183600, Note_on_c, 9, 42, 43
3, 183839, Note_on_c, 9, 42, 0
3, 183840, Note_on_c, 9, 42, 127
3, 184319, Note_on_c, 9, 42, 0
3, 184320, Note_on_c, 9, 42, 127
3, 184559, Note_on_c, 9, 42, 0
3, 184560, Note_on_c, 9, 42, 43
3, 184799, Note_on_c, 9, 42, 0
3, 184800, Note_on_c, 9, 42, 127
3, 185039, Note_on_c, 9, 42, 0
3, 185040, Note_on_c, 9, 42, 43
3, 185279, Note_on_c, 9, 42, 0
3, 185280, Note_on_c, 9, 42, 127
3, 185519, Note_on_c, 9, 42, 0
3, 185520, Note_on_c, 9, 42, 43
3, 185759, Note_on_c, 9, 42, 0
3, 185760, Note_on_c, 9, 42, 127
3, 185999, Note_on_c, 9, 42, 0
3, 186000, Note_on_c, 9, 42, 43
3, 186239, Note_on_c, 9, 42, 0
3, 186240, Note_on_c, 9, 42, 127
3, 186479, Note_on_c, 9, 42, 0
3, 186480, Note_on_c, 9, 42, 43
3, 186719, Note_on_c, 9, 42, 0
3, 186720, Note_on_c, 9, 42, 127
3, 186959, Note_on_c, 9, 42, 0
3, 186960, Note_on_c, 9, 42, 43
3, 187199, Note_on_c, 9, 42, 0
3, 187200, Note_on_c, 9, 42, 127
3, 187439, Note_on_c, 9, 42, 0
3, 187440, Note_on_c, 9, 42, 43
3, 187679, Note_on_c, 9, 42, 0
3, 187680, Note_on_c, 9, 42, 127
3, 188159, Note_on_c, 9, 42, 0
3, 188160, Note_on_c, 9, 42, 127
3, 188399, Note_on_c, 9, 42, 0
3, 188400, Note_on_c, 9, 42, 43
3, 188639, Note_on_c, 9, 42, 0
3, 188640, Note_on_c, 9, 42, 127
3, 188879, Note_on_c, 9, 42, 0
3, 188880, Note_on_c, 9, 42, 43
3, 189119, Note_on_c, 9, 42, 0
3, 189120, Note_on_c, 9, 42, 127
3, 189359, Note_on_c, 9, 42, 0
3, 189360, Note_on_c, 9, 42, 43
3, 189599, Note_on_c, 9, 42, 0
3, 189600, Note_on_c, 9, 42, 127
3, 189839, Note_on_c, 9, 42, 0
3, 189840, Note_on_c, 9, 42, 43
3, 190079, Note_on_c, 9, 42, 0
3, 190080, Note_on_c, 9, 42, 127
3, 190319, Note_on_c, 9, 42, 0
3, 190320, Note_on_c, 9, 42, 43
3, 190559, Note_on_c, 9, 42, 0
3, 190560, Note_on_c, 9, 42, 127
3, 190799, Note_on_c, 9, 42, 0
3, 190800, Note_on_c, 9, 42, 43
3, 191039, Note_on_c, 9, 42, 0
3, 191040, Note_on_c, 9, 42, 127
3, 191279, Note_on_c, 9, 42, 0
3, 191280, Note_on_c, 9, 42, 43
3, 191519, Note_on_c, 9, 42, 0
3, 191520, Note_on_c, 9, 42, 127
3, 191999, Note_on_c, 9, 42, 0
3, 192000, Note_on_c, 9, 42, 127
3, 192239, Note_on_c, 9, 42, 0
3, 192240, Note_on_c, 9, 42, 43
3, 192479, Note_on_c, 9, 42, 0
3, 192480, Note_on_c, 9, 42, 127
3, 192719, Note_on_c, 9, 42, 0
3, 192720, Note_on_c, 9, 42, 43
3, 192959, Note_on_c, 9, 42, 0
3, 192960, Note_on_c, 9, 42, 127
3, 193199, Note_on_c, 9, 42, 0
3, 193200, Note_on_c, 9, 42, 43
3, 193439, Note_on_c, 9, 42, 0
3, 193440, Note_on_c, 9, 42, 127
3, 193679, Note_on_c, 9, 42, 0
3, 193680, Note_on_c, 9, 42, 43
3, 193919, Note_on_c, 9, 42, 0
3, 193920, Note_on_c, 9, 42, 127
3, 194159, Note_on_c, 9, 42, 0
3, 194160, Note_on_c, 9, 42, 43
3, 194399, Note_on_c, 9, 42, 0
3, 194400, Note_on_c, 9, 42, 127
3, 194639, Note_on_c, 9, 42, 0
3, 194640, Note_on_c, 9, 42, 43
3, 194879, Note_on_c, 9, 42, 0
3, 194880, Note_on_c, 9, 42, 127
3, 195119, Note_on_c, 9, 42, 0
3, 195120, Note_on_c, 9, 42, 43
3, 195359, Note_on_c, 9, 42, 0
3, 195360, Note_on_c, 9, 42, 127
3, 195839, Note_on_c, 9, 42, 0
3, 195840, Note_on_c, 9, 42, 127
3, 196079, Note_on_c, 9, 42, 0
3, 196080, Note_on_c, 9, 42, 43
3, 196319, Note_on_c, 9, 42, 0
3, 196320, Note_on_c, 9, 42, 127
3, 196559, Note_on_c, 9, 42, 0
3, 196560, Note_on_c, 9, 42, 43
3, 196799, Note_on_c, 9, 42, 0
3, 196800, Note_on_c, 9, 42, 127
3, 197039, Note_on_c, 9, 42, 0
3, 197040, Note_on_c, 9, 42, 43
3, 197279, Note_on_c, 9, 42, 0
3, 197280, Note_on_c, 9, 42, 127
3, 197519, Note_on_c, 9, 42, 0
3, 197520, Note_on_c, 9, 42, 43
3, 197759, Note_on_c, 9, 42, 0
3, 198240, Note_on_c, 9, 42, 127
3, 198719, Note_on_c, 9, 42, 0
3, 199200, Note_on_c, 9, 42, 127
3, 199679, Note_on_c, 9, 42, 0
3, 199680, Note_on_c, 9, 42, 127
3, 199919, Note_on_c, 9, 42, 0
3, 199920, Note_on_c, 9, 42, 43
3, 200159, Note_on_c, 9, 42, 0
3, 200160, Note_on_c, 9, 42, 127
3, 200399, Note_on_c, 9, 42, 0
3, 200400, Note_on_c, 9, 42, 43
3, 200639, Note_on_c, 9, 42, 0
3, 200640, Note_on_c, 9, 42, 127
3, 200879, Note_on_c, 9, 42, 0
3, 200880, Note_on_c, 9, 42, 43
3, 201119, Note_on_c, 9, 42, 0
3, 201120, Note_on_c, 9, 42, 127
3, 201359, Note_on_c, 9, 42, 0
3, 201360, Note_on_c, 9, 42, 43
3, 201599, Note_on_c, 9, 42, 0
3, 201600, Note_on_c, 9, 42, 127
3, 201839, Note_on_c, 9, 42, 0
3, 201840, Note_on_c, 9, 42, 43
3, 202079, Note_on_c, 9, 42, 0
3, 202080, Note_on_c, 9, 42, 127
3, 202319, Note_on_c, 9, 42, 0
3, 202320, Note_on_c, 9, 42, 43
3, 202559, Note_on_c, 9, 42, 0
3, 202560, Note_on_c, 9, 42, 127
3, 202799, Note_on_c, 9, 42, 0
3, 202800, Note_on_c, 9, 42, 43
3, 203039, Note_on_c, 9, 42, 0
3, 203040, Note_on_c, 9, 42, 127
3, 203519, Note_on_c, 9, 42, 0
3, 203520, Note_on_c, 9, 42, 127
3, 203759, Note_on_c, 9, 42, 0
3, 203760, Note_on_c, 9, 42, 43
3, 203999, Note_on_c, 9, 42, 0
3, 204000, Note_on_c, 9, 42, 127
3, 204239, Note_on_c, 9, 42, 0
3, 204240, Note_on_c, 9, 42, 43
3, 204479, Note_on_c, 9, 42, 0
3, 204480, Note_on_c, 9, 42, 127
3, 204719, Note_on_c, 9, 42, 0
3, 204720, Note_on_c, 9, 42, 43
3, 204959, Note_on_c, 9, 42, 0
3, 204960, Note_on_c, 9, 42, 127
3, 205199, Note_on_c, 9, 42, 0
3, 205200, Note_on_c, 9, 42, 43
3, 205439, Note_on_c, 9, 42, 0
3, 205440, Note_on_c, 9, 42, 127
3, 205679, Note_on_c, 9, 42, 0
3, 205680, Note_on_c, 9, 42, 43
3, 205919, Note_on_c, 9, 42, 0
3, 205920, Note_on_c, 9, 42, 127
3, 206159, Note_on_c, 9, 42, 0
3, 206160, Note_on_c, 9, 42, 43
3, 206399, Note_on_c, 9, 42, 0
3, 206400, Note_on_c, 9, 42, 127
3, 206639, Note_on_c, 9, 42, 0
3, 206640, Note_on_c, 9, 42, 43
3, 206879, Note_on_c, 9, 42, 0
3, 206880, Note_on_c, 9, 42, 127
3, 207359, Note_on_c, 9, 42, 0
3, 207360, Note_on_c, 9, 42, 127
3, 207599, Note_on_c, 9, 42, 0
3, 207600, Note_on_c, 9, 42, 43
3, 207839, Note_on_c, 9, 42, 0
3, 207840, Note_on_c, 9, 42, 127
3, 208079, Note_on_c, 9, 42, 0
3, 208080, Note_on_c, 9, 42, 43
3, 208319, Note_on_c, 9, 42, 0
3, 208320, Note_on_c, 9, 42, 127
3, 208559, Note_on_c, 9, 42, 0
3, 208560, Note_on_c, 9, 42, 43
3, 208799, Note_on_c, 9, 42, 0
3, 208800, Note_on_c, 9, 42, 127
3, 209039, Note_on_c, 9, 42, 0
3, 209040, Note_on_c, 9, 42, 43
3, 209279, Note_on_c, 9, 42, 0
3, 209280, Note_on_c, 9, 42, 127
3, 209519, Note_on_c, 9, 42, 0
3, 209520, Note_on_c, 9, 42, 43
3, 209759, Note_on_c, 9, 42, 0
3, 209760, Note_on_c, 9, 42, 127
3, 209999, Note_on_c, 9, 42, 0
3, 210000, Note_on_c, 9, 42, 43
3, 210239, Note_on_c, 9, 42, 0
3, 210240, Note_on_c, 9, 42, 127
3, 210479, Note_on_c, 9, 42, 0
3, 210480, Note_on_c, 9, 42, 43
3, 210719, Note_on_c, 9, 42, 0
3, 210720, Note_on_c, 9, 42, 127
3, 211199, Note_on_c, 9, 42, 0
3, 211200, Note_on_c, 9, 42, 127
3, 211439, Note_on_c, 9, 42, 0
3, 211440, Note_on_c, 9, 42, 43
3, 211679, Note_on_c, 9, 42, 0
3, 211680, Note_on_c, 9, 42, 127
3, 211919, Note_on_c, 9, 42, 0
3, 211920, Note_on_c, 9, 42, 43
3, 212159, Note_on_c, 9, 42, 0
3, 212160, Note_on_c, 9, 42, 127
3, 212399, Note_on_c, 9, 42, 0
3, 212400, Note_on_c, 9, 42, 43
3, 212639, Note_on_c, 9, 42, 0
3, 212640, Note_on_c, 9, 42, 127
3, 212879, Note_on_c, 9, 42, 0
3, 212880, Note_on_c, 9, 42, 43
3, 213119, Note_on_c, 9, 42, 0
3, 213120, Note_on_c, 9, 42, 127
3, 213359, Note_on_c, 9, 42, 0
3, 213360, Note_on_c, 9, 42, 43
3, 213599, Note_on_c, 9, 42, 0
3, 213600, Note_on_c, 9, 42, 127
3, 213839, Note_on_c, 9, 42, 0
3, 213840, Note_on_c, 9, 42, 43
3, 214079, Note_on_c, 9, 42, 0
3, 214080, Note_on_c, 9, 42, 127
3, 214319, Note_on_c, 9, 42, 0
3, 214320, Note_on_c, 9, 42, 43
3, 214559, Note_on_c, 9, 42, 0
3, 214560, Note_on_c, 9, 42, 127
3, 215039, Note_on_c, 9, 42, 0
3, 215040, End_track
4, 0, Start_track
4, 0, Key_signature, 0, "major"
4, 0, Control_c, 9, 121, 0
4, 0, Program_c, 9, 0
4, 0, Control_c, 9, 7, 100
4, 0, Control_c, 9, 10, 64
4, 0, Control_c, 9, 91, 0
4, 0, Control_c, 9, 93, 0
4, 0, MIDI_port, 3
4, 34560, Note_on_c, 9, 49, 127
4, 35039, Note_on_c, 9, 49, 0
4, 46080, Note_on_c, 9, 49, 127
4, 46559, Note_on_c, 9, 49, 0
4, 49920, Note_on_c, 9, 49, 127
4, 50399, Note_on_c, 9, 49, 0
4, 71040, Note_on_c, 9, 49, 127
4, 71519, Note_on_c, 9, 49, 0
4, 82560, Note_on_c, 9, 49, 127
4, 83039, Note_on_c, 9, 49, 0
4, 86400, Note_on_c, 9, 49, 127
4, 86879, Note_on_c, 9, 49, 0
4, 107520, Note_on_c, 9, 49, 127
4, 107999, Note_on_c, 9, 49, 0
4, 119040, Note_on_c, 9, 49, 127
4, 119519, Note_on_c, 9, 49, 0
4, 122880, Note_on_c, 9, 49, 127
4, 123359, Note_on_c, 9, 49, 0
4, 144000, Note_on_c, 9, 49, 127
4, 144479, Note_on_c, 9, 49, 0
4, 155520, Note_on_c, 9, 49, 127
4, 155999, Note_on_c, 9, 49, 0
4, 159360, Note_on_c, 9, 49, 127
4, 159839, Note_on_c, 9, 49, 0
4, 180480, Note_on_c, 9, 49, 127
4, 180959, Note_on_c, 9, 49, 0
4, 192000, Note_on_c, 9, 49, 127
4, 192479, Note_on_c, 9, 49, 0
4, 195840, Note_on_c, 9, 49, 127
4, 196319, Note_on_c, 9, 49, 0
4, 199680, Note_on_c, 9, 49, 127
4, 200159, Note_on_c, 9, 49, 0
4, 202560, Note_on_c, 9, 49, 127
4, 203039, Note_on_c, 9, 49, 0
4, 203040, Note_on_c, 9, 49, 127
4, 203519, Note_on_c, 9, 49, 0
4, 203520, Note_on_c, 9, 49, 127
4, 203999, Note_on_c, 9, 49, 0
4, 206400, Note_on_c, 9, 49, 127
4, 206879, Note_on_c, 9, 49, 0
4, 206880, Note_on_c, 9, 49, 127
4, 207359, Note_on_c, 9, 49, 0
4, 207360, Note_on_c, 9, 49, 127
4, 207839, Note_on_c, 9, 49, 0
4, 208080, Note_on_c, 9, 49, 127
4, 208319, Note_on_c, 9, 49, 0
4, 208800, Note_on_c, 9, 49, 127
4, 209279, Note_on_c, 9, 49, 0
4, 209520, Note_on_c, 9, 49, 127
4, 209759, Note_on_c, 9, 49, 0
4, 215040, Note_on_c, 9, 49, 127
4, 215519, Note_on_c, 9, 49, 0
4, 215520, End_track
5, 0, Start_track
5, 0, Key_signature, 0, "major"
5, 0, Control_c, 9, 121, 0
5, 0, Program_c, 9, 0
5, 0, Control_c, 9, 7, 100
5, 0, Control_c, 9, 10, 64
5, 0, Control_c, 9, 91, 0
5, 0, Control_c, 9, 93, 0
5, 0, MIDI_port, 4
5, 17760, Note_on_c, 9, 37, 127
5, 18239, Note_on_c, 9, 37, 0
5, 18720, Note_on_c, 9, 37, 127
5, 19199, Note_on_c, 9, 37, 0
5, 19680, Note_on_c, 9, 37, 127
5, 20159, Note_on_c, 9, 37, 0
5, 20640, Note_on_c, 9, 37, 127
5, 21119, Note_on_c, 9, 37, 0
5, 21600, Note_on_c, 9, 37, 127
5, 22079, Note_on_c, 9, 37, 0
5, 22560, Note_on_c, 9, 37, 127
5, 23039, Note_on_c, 9, 37, 0
5, 23520, Note_on_c, 9, 37, 127
5, 23999, Note_on_c, 9, 37, 0
5, 24480, Note_on_c, 9, 37, 127
5, 24959, Note_on_c, 9, 37, 0
5, 25440, Note_on_c, 9, 37, 127
5, 25919, Note_on_c, 9, 37, 0
5, 26400, Note_on_c, 9, 37, 127
5, 26879, Note_on_c, 9, 37, 0
5, 27360, Note_on_c, 9, 37, 127
5, 27839, Note_on_c, 9, 37, 0
5, 28320, Note_on_c, 9, 37, 127
5, 28799, Note_on_c, 9, 37, 0
5, 29280, Note_on_c, 9, 37, 127
5, 29759, Note_on_c, 9, 37, 0
5, 46560, Note_on_c, 9, 37, 127
5, 47039, Note_on_c, 9, 37, 0
5, 47520, Note_on_c, 9, 37, 127
5, 47999, Note_on_c, 9, 37, 0
5, 48480, Note_on_c, 9, 37, 127
5, 48959, Note_on_c, 9, 37, 0
5, 54240, Note_on_c, 9, 37, 127
5, 54719, Note_on_c, 9, 37, 0
5, 55200, Note_on_c, 9, 37, 127
5, 55679, Note_on_c, 9, 37, 0
5, 56160, Note_on_c, 9, 37, 127
5, 56639, Note_on_c, 9, 37, 0
5, 57120, Note_on_c, 9, 37, 127
5, 57599, Note_on_c, 9, 37, 0
5, 58080, Note_on_c, 9, 37, 127
5, 58559, Note_on_c, 9, 37, 0
5, 59040, Note_on_c, 9, 37, 127
5, 59519, Note_on_c, 9, 37, 0
5, 60000, Note_on_c, 9, 37, 127
5, 60479, Note_on_c, 9, 37, 0
5, 60960, Note_on_c, 9, 37, 127
5, 61439, Note_on_c, 9, 37, 0
5, 61920, Note_on_c, 9, 37, 127
5, 62399, Note_on_c, 9, 37, 0
5, 62880, Note_on_c, 9, 37, 127
5, 63359, Note_on_c, 9, 37, 0
5, 63840, Note_on_c, 9, 37, 127
5, 64319, Note_on_c, 9, 37, 0
5, 64800, Note_on_c, 9, 37, 127
5, 65279, Note_on_c, 9, 37, 0
5, 65760, Note_on_c, 9, 37, 127
5, 66239, Note_on_c, 9, 37, 0
5, 83040, Note_on_c, 9, 37, 127
5, 83519, Note_on_c, 9, 37, 0
5, 84000, Note_on_c, 9, 37, 127
5, 84479, Note_on_c, 9, 37, 0
5, 84960, Note_on_c, 9, 37, 127
5, 85439, Note_on_c, 9, 37, 0
5, 90720, Note_on_c, 9, 37, 127
5, 91199, Note_on_c, 9, 37, 0
5, 91680, Note_on_c, 9, 37, 127
5, 92159, Note_on_c, 9, 37, 0
5, 92640, Note_on_c, 9, 37, 127
5, 93119, Note_on_c, 9, 37, 0
5, 93600, Note_on_c, 9, 37, 127
5, 94079, Note_on_c, 9, 37, 0
5, 94560, Note_on_c, 9, 37, 127
5, 95039, Note_on_c, 9, 37, 0
5, 95520, Note_on_c, 9, 37, 127
5, 95999, Note_on_c, 9, 37, 0
5, 96480, Note_on_c, 9, 37, 127
5, 96959, Note_on_c, 9, 37, 0
5, 97440, Note_on_c, 9, 37, 127
5, 97919, Note_on_c, 9, 37, 0
5, 98400, Note_on_c, 9, 37, 127
5, 98879, Note_on_c, 9, 37, 0
5, 99360, Note_on_c, 9, 37, 127
5, 99839, Note_on_c, 9, 37, 0
5, 100320, Note_on_c, 9, 37, 127
5, 100799, Note_on_c, 9, 37, 0
5, 101280, Note_on_c, 9, 37, 127
5, 101759, Note_on_c, 9, 37, 0
5, 102240, Note_on_c, 9, 37, 127
5, 102719, Note_on_c, 9, 37, 0
5, 119520, Note_on_c, 9, 37, 127
5, 119999, Note_on_c, 9, 37, 0
5, 120480, Note_on_c, 9, 37, 127
5, 120959, Note_on_c, 9, 37, 0
5, 121440, Note_on_c, 9, 37, 127
5, 121919, Note_on_c, 9, 37, 0
5, 127200, Note_on_c, 9, 37, 127
5, 127679, Note_on_c, 9, 37, 0
5, 128160, Note_on_c, 9, 37, 127
5, 128639, Note_on_c, 9, 37, 0
5, 129120, Note_on_c, 9, 37, 127
5, 129599, Note_on_c, 9, 37, 0
5, 130080, Note_on_c, 9, 37, 127
5, 130559, Note_on_c, 9, 37, 0
5, 131040, Note_on_c, 9, 37, 127
5, 131519, Note_on_c, 9, 37, 0
5, 132000, Note_on_c, 9, 37, 127
5, 132479, Note_on_c, 9, 37, 0
5, 132960, Note_on_c, 9, 37, 127
5, 133439, Note_on_c, 9, 37, 0
5, 133920, Note_on_c, 9, 37, 127
5, 134399, Note_on_c, 9, 37, 0
5, 134880, Note_on_c, 9, 37, 127
5, 135359, Note_on_c, 9, 37, 0
5, 135840, Note_on_c, 9, 37, 127
5, 136319, Note_on_c, 9, 37, 0
5, 136800, Note_on_c, 9, 37, 127
5, 137279, Note_on_c, 9, 37, 0
5, 137760, Note_on_c, 9, 37, 127
5, 138239, Note_on_c, 9, 37, 0
5, 138720, Note_on_c, 9, 37, 127
5, 139199, Note_on_c, 9, 37, 0
5, 156000, Note_on_c, 9, 37, 127
5, 156479, Note_on_c, 9, 37, 0
5, 156960, Note_on_c, 9, 37, 127
5, 157439, Note_on_c, 9, 37, 0
5, 157920, Note_on_c, 9, 37, 127
5, 158399, Note_on_c, 9, 37, 0
5, 163680, Note_on_c, 9, 37, 127
5, 164159, Note_on_c, 9, 37, 0
5, 164640, Note_on_c, 9, 37, 127
5, 165119, Note_on_c, 9, 37, 0
5, 165600, Note_on_c, 9, 37, 127
5, 166079, Note_on_c, 9, 37, 0
5, 166560, Note_on_c, 9, 37, 127
5, 167039, Note_on_c, 9, 37, 0
5, 167520, Note_on_c, 9, 37, 127
5, 167999, Note_on_c, 9, 37, 0
5, 168480, Note_on_c, 9, 37, 127
5, 168959, Note_on_c, 9, 37, 0
5, 169440, Note_on_c, 9, 37, 127
5, 169919, Note_on_c, 9, 37, 0
5, 170400, Note_on_c, 9, 37, 127
5, 170879, Note_on_c, 9, 37, 0
5, 171360, Note_on_c, 9, 37, 127
5, 171839, Note_on_c, 9, 37, 0
5, 172320, Note_on_c, 9, 37, 127
5, 172799, Note_on_c, 9, 37, 0
5, 173280, Note_on_c, 9, 37, 127
5, 173759, Note_on_c, 9, 37, 0
5, 174240, Note_on_c, 9, 37, 127
5, 174719, Note_on_c, 9, 37, 0
5, 175200, Note_on_c, 9, 37, 127
5, 175679, Note_on_c, 9, 37, 0
5, 192480, Note_on_c, 9, 37, 127
5, 192959, Note_on_c, 9, 37, 0
5, 193440, Note_on_c, 9, 37, 127
5, 193919, Note_on_c, 9, 37, 0
5, 194400, Note_on_c, 9, 37, 127
5, 194879, Note_on_c, 9, 37, 0
5, 194880, End_track
6, 0, Start_track
6, 0, Key_signature, 0, "major"
6, 0, Control_c, 9, 121, 0
6, 0, Program_c, 9, 0
6, 0, Control_c, 9, 7, 100
6, 0, Control_c, 9, 10, 64
6, 0, Control_c, 9, 91, 0
6, 0, Control_c, 9, 93, 0
6, 0, MIDI_port, 5
6, 4800, Note_on_c, 9, 51, 127
6, 5279, Note_on_c, 9, 51, 0
6, 5280, Note_on_c, 9, 51, 127
6, 5759, Note_on_c, 9, 51, 0
6, 8640, Note_on_c, 9, 51, 127
6, 9119, Note_on_c, 9, 51, 0
6, 9120, Note_on_c, 9, 51, 127
6, 9599, Note_on_c, 9, 51, 0
6, 10320, Note_on_c, 9, 51, 127
6, 10559, Note_on_c, 9, 51, 0
6, 12480, Note_on_c, 9, 51, 127
6, 12959, Note_on_c, 9, 51, 0
6, 12960, Note_on_c, 9, 51, 127
6, 13439, Note_on_c, 9, 51, 0
6, 14160, Note_on_c, 9, 51, 127
6, 14399, Note_on_c, 9, 51, 0
6, 16320, Note_on_c, 9, 51, 127
6, 16799, Note_on_c, 9, 51, 0
6, 16800, Note_on_c, 9, 51, 127
6, 17279, Note_on_c, 9, 51, 0
6, 30720, Note_on_c, 9, 51, 127
6, 31199, Note_on_c, 9, 51, 0
6, 31200, Note_on_c, 9, 51, 127
6, 31679, Note_on_c, 9, 51, 0
6, 31680, Note_on_c, 9, 51, 127
6, 32159, Note_on_c, 9, 51, 0
6, 32160, Note_on_c, 9, 51, 127
6, 32639, Note_on_c, 9, 51, 0
6, 32640, Note_on_c, 9, 51, 127
6, 33119, Note_on_c, 9, 51, 0
6, 33120, Note_on_c, 9, 51, 127
6, 33599, Note_on_c, 9, 51, 0
6, 33600, Note_on_c, 9, 51, 127
6, 34079, Note_on_c, 9, 51, 0
6, 34560, Note_on_c, 9, 51, 127
6, 35039, Note_on_c, 9, 51, 0
6, 35040, Note_on_c, 9, 51, 127
6, 35519, Note_on_c, 9, 51, 0
6, 35520, Note_on_c, 9, 51, 127
6, 35999, Note_on_c, 9, 51, 0
6, 36000, Note_on_c, 9, 51, 127
6, 36479, Note_on_c, 9, 51, 0
6, 36480, Note_on_c, 9, 51, 127
6, 36959, Note_on_c, 9, 51, 0
6, 36960, Note_on_c, 9, 51, 127
6, 37439, Note_on_c, 9, 51, 0
6, 37440, Note_on_c, 9, 51, 127
6, 37919, Note_on_c, 9, 51, 0
6, 37920, Note_on_c, 9, 51, 127
6, 38399, Note_on_c, 9, 51, 0
6, 38400, Note_on_c, 9, 51, 127
6, 38879, Note_on_c, 9, 51, 0
6, 38880, Note_on_c, 9, 51, 127
6, 39359, Note_on_c, 9, 51, 0
6, 39360, Note_on_c, 9, 51, 127
6, 39839, Note_on_c, 9, 51, 0
6, 39840, Note_on_c, 9, 51, 127
6, 40319, Note_on_c, 9, 51, 0
6, 40320, Note_on_c, 9, 51, 127
6, 40799, Note_on_c, 9, 51, 0
6, 40800, Note_on_c, 9, 51, 127
6, 41279, Note_on_c, 9, 51, 0
6, 41280, Note_on_c, 9, 51, 127
6, 41759, Note_on_c, 9, 51, 0
6, 41760, Note_on_c, 9, 51, 127
6, 42239, Note_on_c, 9, 51, 0
6, 42240, Note_on_c, 9, 51, 127
6, 42719, Note_on_c, 9, 51, 0
6, 42720, Note_on_c, 9, 51, 127
6, 43199, Note_on_c, 9, 51, 0
6, 43200, Note_on_c, 9, 51, 127
6, 43679, Note_on_c, 9, 51, 0
6, 43680, Note_on_c, 9, 51, 127
6, 44159, Note_on_c, 9, 51, 0
6, 44160, Note_on_c, 9, 51, 127
6, 44639, Note_on_c, 9, 51, 0
6, 44640, Note_on_c, 9, 51, 127
6, 45119, Note_on_c, 9, 51, 0
6, 45120, Note_on_c, 9, 51, 127
6, 45599, Note_on_c, 9, 51, 0
6, 45600, Note_on_c, 9, 51, 127
6, 46079, Note_on_c, 9, 51, 0
6, 46560, Note_on_c, 9, 51, 127
6, 47039, Note_on_c, 9, 51, 0
6, 47520, Note_on_c, 9, 51, 127
6, 47999, Note_on_c, 9, 51, 0
6, 48480, Note_on_c, 9, 51, 127
6, 48959, Note_on_c, 9, 51, 0
6, 49440, Note_on_c, 9, 51, 127
6, 49919, Note_on_c, 9, 51, 0
6, 49920, Note_on_c, 9, 51, 127
6, 50399, Note_on_c, 9, 51, 0
6, 50400, Note_on_c, 9, 51, 127
6, 50879, Note_on_c, 9, 51, 0
6, 50880, Note_on_c, 9, 51, 127
6, 51359, Note_on_c, 9, 51, 0
6, 51360, Note_on_c, 9, 51, 127
6, 51839, Note_on_c, 9, 51, 0
6, 67200, Note_on_c, 9, 51, 127
6, 67679, Note_on_c, 9, 51, 0
6, 67680, Note_on_c, 9, 51, 127
6, 68159, Note_on_c, 9, 51, 0
6, 68160, Note_on_c, 9, 51, 127
6, 68639, Note_on_c, 9, 51, 0
6, 68640, Note_on_c, 9, 51, 127
6, 69119, Note_on_c, 9, 51, 0
6, 69120, Note_on_c, 9, 51, 127
6, 69599, Note_on_c, 9, 51, 0
6, 69600, Note_on_c, 9, 51, 127
6, 70079, Note_on_c, 9, 51, 0
6, 70080, Note_on_c, 9, 51, 127
6, 70559, Note_on_c, 9, 51, 0
6, 71040, Note_on_c, 9, 51, 127
6, 71519, Note_on_c, 9, 51, 0
6, 71520, Note_on_c, 9, 51, 127
6, 71999, Note_on_c, 9, 51, 0
6, 72000, Note_on_c, 9, 51, 127
6, 72479, Note_on_c, 9, 51, 0
6, 72480, Note_on_c, 9, 51, 127
6, 72959, Note_on_c, 9, 51, 0
6, 72960, Note_on_c, 9, 51, 127
6, 73439, Note_on_c, 9, 51, 0
6, 73440, Note_on_c, 9, 51, 127
6, 73919, Note_on_c, 9, 51, 0
6, 73920, Note_on_c, 9, 51, 127
6, 74399, Note_on_c, 9, 51, 0
6, 74400, Note_on_c, 9, 51, 127
6, 74879, Note_on_c, 9, 51, 0
6, 74880, Note_on_c, 9, 51, 127
6, 75359, Note_on_c, 9, 51, 0
6, 75360, Note_on_c, 9, 51, 127
6, 75839, Note_on_c, 9, 51, 0
6, 75840, Note_on_c, 9, 51, 127
6, 76319, Note_on_c, 9, 51, 0
6, 76320, Note_on_c, 9, 51, 127
6, 76799, Note_on_c, 9, 51, 0
6, 76800, Note_on_c, 9, 51, 127
6, 77279, Note_on_c, 9, 51, 0
6, 77280, Note_on_c, 9, 51, 127
6, 77759, Note_on_c, 9, 51, 0
6, 77760, Note_on_c, 9, 51, 127
6, 78239, Note_on_c, 9, 51, 0
6, 78240, Note_on_c, 9, 51, 127
6, 78719, Note_on_c, 9, 51, 0
6, 78720, Note_on_c, 9, 51, 127
6, 79199, Note_on_c, 9, 51, 0
6, 79200, Note_on_c, 9, 51, 127
6, 79679, Note_on_c, 9, 51, 0
6, 79680, Note_on_c, 9, 51, 127
6, 80159, Note_on_c, 9, 51, 0
6, 80160, Note_on_c, 9, 51, 127
6, 80639, Note_on_c, 9, 51, 0
6, 80640, Note_on_c, 9, 51, 127
6, 81119, Note_on_c, 9, 51, 0
6, 81120, Note_on_c, 9, 51, 127
6, 81599, Note_on_c, 9, 51, 0
6, 81600, Note_on_c, 9, 51, 127
6, 82079, Note_on_c, 9, 51, 0
6, 82080, Note_on_c, 9, 51, 127
6, 82559, Note_on_c, 9, 51, 0
6, 83040, Note_on_c, 9, 51, 127
6, 83519, Note_on_c, 9, 51, 0
6, 84000, Note_on_c, 9, 51, 127
6, 84479, Note_on_c, 9, 51, 0
6, 84960, Note_on_c, 9, 51, 127
6, 85439, Note_on_c, 9, 51, 0
6, 85920, Note_on_c, 9, 51, 127
6, 86399, Note_on_c, 9, 51, 0
6, 86400, Note_on_c, 9, 51, 127
6, 86879, Note_on_c, 9, 51, 0
6, 86880, Note_on_c, 9, 51, 127
6, 87359, Note_on_c, 9, 51, 0
6, 87360, Note_on_c, 9, 51, 127
6, 87839, Note_on_c, 9, 51, 0
6, 87840, Note_on_c, 9, 51, 127
6, 88319, Note_on_c, 9, 51, 0
6, 103680, Note_on_c, 9, 51, 127
6, 104159, Note_on_c, 9, 51, 0
6, 104160, Note_on_c, 9, 51, 127
6, 104639, Note_on_c, 9, 51, 0
6, 104640, Note_on_c, 9, 51, 127
6, 105119, Note_on_c, 9, 51, 0
6, 105120, Note_on_c, 9, 51, 127
6, 105599, Note_on_c, 9, 51, 0
6, 105600, Note_on_c, 9, 51, 127
6, 106079, Note_on_c, 9, 51, 0
6, 106080, Note_on_c, 9, 51, 127
6, 106559, Note_on_c, 9, 51, 0
6, 106560, Note_on_c, 9, 51, 127
6, 107039, Note_on_c, 9, 51, 0
6, 107520, Note_on_c, 9, 51, 127
6, 107999, Note_on_c, 9, 51, 0
6, 108000, Note_on_c, 9, 51, 127
6, 108479, Note_on_c, 9, 51, 0
6, 108480, Note_on_c, 9, 51, 127
6, 108959, Note_on_c, 9, 51, 0
6, 108960, Note_on_c, 9, 51, 127
6, 109439, Note_on_c, 9, 51, 0
6, 109440, Note_on_c, 9, 51, 127
6, 109919, Note_on_c, 9, 51, 0
6, 109920, Note_on_c, 9, 51, 127
6, 110399, Note_on_c, 9, 51, 0
6, 110400, Note_on_c, 9, 51, 127
6, 110879, Note_on_c, 9, 51, 0
6, 110880, Note_on_c, 9, 51, 127
6, 111359, Note_on_c, 9, 51, 0
6, 111360, Note_on_c, 9, 51, 127
6, 111839, Note_on_c, 9, 51, 0
6, 111840, Note_on_c, 9, 51, 127
6, 112319, Note_on_c, 9, 51, 0
6, 112320, Note_on_c, 9, 51, 127
6, 112799, Note_on_c, 9, 51, 0
6, 112800, Note_on_c, 9, 51, 127
6, 113279, Note_on_c, 9, 51, 0
6, 113280, Note_on_c, 9, 51, 127
6, 113759, Note_on_c, 9, 51, 0
6, 113760, Note_on_c, 9, 51, 127
6, 114239, Note_on_c, 9, 51, 0
6, 114240, Note_on_c, 9, 51, 127
6, 114719, Note_on_c, 9, 51, 0
6, 114720, Note_on_c, 9, 51, 127
6, 115199, Note_on_c, 9, 51, 0
6, 115200, Note_on_c, 9, 51, 127
6, 115679, Note_on_c, 9, 51, 0
6, 115680, Note_on_c, 9, 51, 127
6, 116159, Note_on_c, 9, 51, 0
6, 116160, Note_on_c, 9, 51, 127
6, 116639, Note_on_c, 9, 51, 0
6, 116640, Note_on_c, 9, 51, 127
6, 117119, Note_on_c, 9, 51, 0
6, 117120, Note_on_c, 9, 51, 127
6, 117599, Note_on_c, 9, 51, 0
6, 117600, Note_on_c, 9, 51, 127
6, 118079, Note_on_c, 9, 51, 0
6, 118080, Note_on_c, 9, 51, 127
6, 118559, Note_on_c, 9, 51, 0
6, 118560, Note_on_c, 9, 51, 127
6, 119039, Note_on_c, 9, 51, 0
6, 119520, Note_on_c, 9, 51, 127
6, 119999, Note_on_c, 9, 51, 0
6, 120480, Note_on_c, 9, 51, 127
6, 120959, Note_on_c, 9, 51, 0
6, 121440, Note_on_c, 9, 51, 127
6, 121919, Note_on_c, 9, 51, 0
6, 122400, Note_on_c, 9, 51, 127
6, 122879, Note_on_c, 9, 51, 0
6, 122880, Note_on_c, 9, 51, 127
6, 123359, Note_on_c, 9, 51, 0
6, 123360, Note_on_c, 9, 51, 127
6, 123839, Note_on_c, 9, 51, 0
6, 123840, Note_on_c, 9, 51, 127
6, 124319, Note_on_c, 9, 51, 0
6, 124320, Note_on_c, 9, 51, 127
6, 124799, Note_on_c, 9, 51, 0
6, 126720, Note_on_c, 9, 51, 127
6, 127199, Note_on_c, 9, 51, 0
6, 127200, Note_on_c, 9, 51, 127
6, 127679, Note_on_c, 9, 51, 0
6, 127680, Note_on_c, 9, 51, 127
6, 128159, Note_on_c, 9, 51, 0
6, 128160, Note_on_c, 9, 51, 127
6, 128639, Note_on_c, 9, 51, 0
6, 128640, Note_on_c, 9, 51, 127
6, 129119, Note_on_c, 9, 51, 0
6, 129120, Note_on_c, 9, 51, 127
6, 129599, Note_on_c, 9, 51, 0
6, 129600, Note_on_c, 9, 51, 127
6, 130079, Note_on_c, 9, 51, 0
6, 130080, Note_on_c, 9, 51, 127
6, 130559, Note_on_c, 9, 51, 0
6, 130560, Note_on_c, 9, 51, 127
6, 131039, Note_on_c, 9, 51, 0
6, 131040, Note_on_c, 9, 51, 127
6, 131519, Note_on_c, 9, 51, 0
6, 131520, Note_on_c, 9, 51, 127
6, 131999, Note_on_c, 9, 51, 0
6, 132000, Note_on_c, 9, 51, 127
6, 132479, Note_on_c, 9, 51, 0
6, 132480, Note_on_c, 9, 51, 127
6, 132959, Note_on_c, 9, 51, 0
6, 132960, Note_on_c, 9, 51, 127
6, 133439, Note_on_c, 9, 51, 0
6, 133440, Note_on_c, 9, 51, 127
6, 133919, Note_on_c, 9, 51, 0
6, 133920, Note_on_c, 9, 51, 127
6, 134399, Note_on_c, 9, 51, 0
6, 134400, Note_on_c, 9, 51, 127
6, 134879, Note_on_c, 9, 51, 0
6, 134880, Note_on_c, 9, 51, 127
6, 135359, Note_on_c, 9, 51, 0
6, 135360, Note_on_c, 9, 51, 127
6, 135839, Note_on_c, 9, 51, 0
6, 135840, Note_on_c, 9, 51, 127
6, 136319, Note_on_c, 9, 51, 0
6, 136320, Note_on_c, 9, 51, 127
6, 136799, Note_on_c, 9, 51, 0
6, 136800, Note_on_c, 9, 51, 127
6, 137279, Note_on_c, 9, 51, 0
6, 137280, Note_on_c, 9, 51, 127
6, 137759, Note_on_c, 9, 51, 0
6, 137760, Note_on_c, 9, 51, 127
6, 138239, Note_on_c, 9, 51, 0
6, 138240, Note_on_c, 9, 51, 127
6, 138719, Note_on_c, 9, 51, 0
6, 138720, Note_on_c, 9, 51, 127
6, 139199, Note_on_c, 9, 51, 0
6, 139200, Note_on_c, 9, 51, 127
6, 139679, Note_on_c, 9, 51, 0
6, 140160, Note_on_c, 9, 51, 127
6, 140639, Note_on_c, 9, 51, 0
6, 140640, Note_on_c, 9, 51, 127
6, 141119, Note_on_c, 9, 51, 0
6, 141120, Note_on_c, 9, 51, 127
6, 141599, Note_on_c, 9, 51, 0
6, 141600, Note_on_c, 9, 51, 127
6, 142079, Note_on_c, 9, 51, 0
6, 142080, Note_on_c, 9, 51, 127
6, 142559, Note_on_c, 9, 51, 0
6, 142560, Note_on_c, 9, 51, 127
6, 143039, Note_on_c, 9, 51, 0
6, 143040, Note_on_c, 9, 51, 127
6, 143519, Note_on_c, 9, 51, 0
6, 144000, Note_on_c, 9, 51, 127
6, 144479, Note_on_c, 9, 51, 0
6, 144480, Note_on_c, 9, 51, 127
6, 144959, Note_on_c, 9, 51, 0
6, 144960, Note_on_c, 9, 51, 127
6, 145439, Note_on_c, 9, 51, 0
6, 145440, Note_on_c, 9, 51, 127
6, 145919, Note_on_c, 9, 51, 0
6, 145920, Note_on_c, 9, 51, 127
6, 146399, Note_on_c, 9, 51, 0
6, 146400, Note_on_c, 9, 51, 127
6, 146879, Note_on_c, 9, 51, 0
6, 146880, Note_on_c, 9, 51, 127
6, 147359, Note_on_c, 9, 51, 0
6, 147360, Note_on_c, 9, 51, 127
6, 147839, Note_on_c, 9, 51, 0
6, 147840, Note_on_c, 9, 51, 127
6, 148319, Note_on_c, 9, 51, 0
6, 148320, Note_on_c, 9, 51, 127
6, 148799, Note_on_c, 9, 51, 0
6, 148800, Note_on_c, 9, 51, 127
6, 149279, Note_on_c, 9, 51, 0
6, 149280, Note_on_c, 9, 51, 127
6, 149759, Note_on_c, 9, 51, 0
6, 149760, Note_on_c, 9, 51, 127
6, 150239, Note_on_c, 9, 51, 0
6, 150240, Note_on_c, 9, 51, 127
6, 150719, Note_on_c, 9, 51, 0
6, 150720, Note_on_c, 9, 51, 127
6, 151199, Note_on_c, 9, 51, 0
6, 151200, Note_on_c, 9, 51, 127
6, 151679, Note_on_c, 9, 51, 0
6, 151680, Note_on_c, 9, 51, 127
6, 152159, Note_on_c, 9, 51, 0
6, 152160, Note_on_c, 9, 51, 127
6, 152639, Note_on_c, 9, 51, 0
6, 152640, Note_on_c, 9, 51, 127
6, 153119, Note_on_c, 9, 51, 0
6, 153120, Note_on_c, 9, 51, 127
6, 153599, Note_on_c, 9, 51, 0
6, 153600, Note_on_c, 9, 51, 127
6, 154079, Note_on_c, 9, 51, 0
6, 154080, Note_on_c, 9, 51, 127
6, 154559, Note_on_c, 9, 51, 0
6, 154560, Note_on_c, 9, 51, 127
6, 155039, Note_on_c, 9, 51, 0
6, 155040, Note_on_c, 9, 51, 127
6, 155519, Note_on_c, 9, 51, 0
6, 156000, Note_on_c, 9, 51, 127
6, 156479, Note_on_c, 9, 51, 0
6, 156960, Note_on_c, 9, 51, 127
6, 157439, Note_on_c, 9, 51, 0
6, 157920, Note_on_c, 9, 51, 127
6, 158399, Note_on_c, 9, 51, 0
6, 158880, Note_on_c, 9, 51, 127
6, 159359, Note_on_c, 9, 51, 0
6, 159360, Note_on_c, 9, 51, 127
6, 159839, Note_on_c, 9, 51, 0
6, 159840, Note_on_c, 9, 51, 127
6, 160319, Note_on_c, 9, 51, 0
6, 160320, Note_on_c, 9, 51, 127
6, 160799, Note_on_c, 9, 51, 0
6, 160800, Note_on_c, 9, 51, 127
6, 161279, Note_on_c, 9, 51, 0
6, 176640, Note_on_c, 9, 51, 127
6, 177119, Note_on_c, 9, 51, 0
6, 177120, Note_on_c, 9, 51, 127
6, 177599, Note_on_c, 9, 51, 0
6, 177600, Note_on_c, 9, 51, 127
6, 178079, Note_on_c, 9, 51, 0
6, 178080, Note_on_c, 9, 51, 127
6, 178559, Note_on_c, 9, 51, 0
6, 178560, Note_on_c, 9, 51, 127
6, 179039, Note_on_c, 9, 51, 0
6, 179040, Note_on_c, 9, 51, 127
6, 179519, Note_on_c, 9, 51, 0
6, 179520, Note_on_c, 9, 51, 127
6, 179999, Note_on_c, 9, 51, 0
6, 180480, Note_on_c, 9, 51, 127
6, 180959, Note_on_c, 9, 51, 0
6, 180960, Note_on_c, 9, 51, 127
6, 181439, Note_on_c, 9, 51, 0
6, 181440, Note_on_c, 9, 51, 127
6, 181919, Note_on_c, 9, 51, 0
6, 181920, Note_on_c, 9, 51, 127
6, 182399, Note_on_c, 9, 51, 0
6, 182400, Note_on_c, 9, 51, 127
6, 182879, Note_on_c, 9, 51, 0
6, 182880, Note_on_c, 9, 51, 127
6, 183359, Note_on_c, 9, 51, 0
6, 183360, Note_on_c, 9, 51, 127
6, 183839, Note_on_c, 9, 51, 0
6, 183840, Note_on_c, 9, 51, 127
6, 184319, Note_on_c, 9, 51, 0
6, 184320, Note_on_c, 9, 51, 127
6, 184799, Note_on_c, 9, 51, 0
6, 184800, Note_on_c, 9, 51, 127
6, 185279, Note_on_c, 9, 51, 0
6, 185280, Note_on_c, 9, 51, 127
6, 185759, Note_on_c, 9, 51, 0
6, 185760, Note_on_c, 9, 51, 127
6, 186239, Note_on_c, 9, 51, 0
6, 186240, Note_on_c, 9, 51, 127
6, 186719, Note_on_c, 9, 51, 0
6, 186720, Note_on_c, 9, 51, 127
6, 187199, Note_on_c, 9, 51, 0
6, 187200, Note_on_c, 9, 51, 127
6, 187679, Note_on_c, 9, 51, 0
6, 187680, Note_on_c, 9, 51, 127
6, 188159, Note_on_c, 9, 51, 0
6, 188160, Note_on_c, 9, 51, 127
6, 188639, Note_on_c, 9, 51, 0
6, 188640, Note_on_c, 9, 51, 127
6, 189119, Note_on_c, 9, 51, 0
6, 189120, Note_on_c, 9, 51, 127
6, 189599, Note_on_c, 9, 51, 0
6, 189600, Note_on_c, 9, 51, 127
6, 190079, Note_on_c, 9, 51, 0
6, 190080, Note_on_c, 9, 51, 127
6, 190559, Note_on_c, 9, 51, 0
6, 190560, Note_on_c, 9, 51, 127
6, 191039, Note_on_c, 9, 51, 0
6, 191040, Note_on_c, 9, 51, 127
6, 191519, Note_on_c, 9, 51, 0
6, 191520, Note_on_c, 9, 51, 127
6, 191999, Note_on_c, 9, 51, 0
6, 192480, Note_on_c, 9, 51, 127
6, 192959, Note_on_c, 9, 51, 0
6, 193440, Note_on_c, 9, 51, 127
6, 193919, Note_on_c, 9, 51, 0
6, 194400, Note_on_c, 9, 51, 127
6, 194879, Note_on_c, 9, 51, 0
6, 195360, Note_on_c, 9, 51, 127
6, 195839, Note_on_c, 9, 51, 0
6, 195840, Note_on_c, 9, 51, 127
6, 196319, Note_on_c, 9, 51, 0
6, 196320, Note_on_c, 9, 51, 127
6, 196799, Note_on_c, 9, 51, 0
6, 196800, Note_on_c, 9, 51, 127
6, 197279, Note_on_c, 9, 51, 0
6, 197280, Note_on_c, 9, 51, 127
6, 197759, Note_on_c, 9, 51, 0
6, 199680, Note_on_c, 9, 51, 127
6, 200159, Note_on_c, 9, 51, 0
6, 200160, Note_on_c, 9, 51, 127
6, 200639, Note_on_c, 9, 51, 0
6, 200640, Note_on_c, 9, 51, 127
6, 201119, Note_on_c, 9, 51, 0
6, 201120, Note_on_c, 9, 51, 127
6, 201599, Note_on_c, 9, 51, 0
6, 201600, Note_on_c, 9, 51, 127
6, 202079, Note_on_c, 9, 51, 0
6, 202080, Note_on_c, 9, 51, 127
6, 202559, Note_on_c, 9, 51, 0
6, 202560, Note_on_c, 9, 51, 127
6, 203039, Note_on_c, 9, 51, 0
6, 203040, Note_on_c, 9, 51, 127
6, 203519, Note_on_c, 9, 51, 0
6, 203520, Note_on_c, 9, 51, 127
6, 203999, Note_on_c, 9, 51, 0
6, 204000, Note_on_c, 9, 51, 127
6, 204479, Note_on_c, 9, 51, 0
6, 204480, Note_on_c, 9, 51, 127
6, 204959, Note_on_c, 9, 51, 0
6, 204960, Note_on_c, 9, 51, 127
6, 205439, Note_on_c, 9, 51, 0
6, 205440, Note_on_c, 9, 51, 127
6, 205919, Note_on_c, 9, 51, 0
6, 205920, Note_on_c, 9, 51, 127
6, 206399, Note_on_c, 9, 51, 0
6, 206400, Note_on_c, 9, 51, 127
6, 206879, Note_on_c, 9, 51, 0
6, 206880, Note_on_c, 9, 51, 127
6, 207359, Note_on_c, 9, 51, 0
6, 211200, Note_on_c, 9, 51, 127
6, 211679, Note_on_c, 9, 51, 0
6, 211680, Note_on_c, 9, 51, 127
6, 212159, Note_on_c, 9, 51, 0
6, 212160, Note_on_c, 9, 51, 127
6, 212639, Note_on_c, 9, 51, 0
6, 212640, Note_on_c, 9, 51, 127
6, 213119, Note_on_c, 9, 51, 0
6, 213120, Note_on_c, 9, 51, 127
6, 213599, Note_on_c, 9, 51, 0
6, 213600, Note_on_c, 9, 51, 127
6, 214079, Note_on_c, 9, 51, 0
6, 215040, Note_on_c, 9, 51, 127
6, 215519, Note_on_c, 9, 51, 0
6, 215520, End_track
7, 0, Start_track
7, 0, Key_signature, 0, "major"
7, 0, Control_c, 9, 121, 0
7, 0, Program_c, 9, 0
7, 0, Control_c, 9, 7, 100
7, 0, Control_c, 9, 10, 64
7, 0, Control_c, 9, 91, 0
7, 0, Control_c, 9, 93, 0
7, 0, MIDI_port, 6
7, 4800, Note_on_c, 9, 46, 127
7, 5279, Note_on_c, 9, 46, 0
7, 5280, Note_on_c, 9, 46, 127
7, 5759, Note_on_c, 9, 46, 0
7, 8640, Note_on_c, 9, 46, 127
7, 9119, Note_on_c, 9, 46, 0
7, 9120, Note_on_c, 9, 46, 127
7, 9599, Note_on_c, 9, 46, 0
7, 12480, Note_on_c, 9, 46, 127
7, 12959, Note_on_c, 9, 46, 0
7, 12960, Note_on_c, 9, 46, 127
7, 13439, Note_on_c, 9, 46, 0
7, 16320, Note_on_c, 9, 46, 127
7, 16799, Note_on_c, 9, 46, 0
7, 16800, Note_on_c, 9, 46, 127
7, 17279, Note_on_c, 9, 46, 0
7, 20880, Note_on_c, 9, 46, 127
7, 21119, Note_on_c, 9, 46, 0
7, 24720, Note_on_c, 9, 46, 127
7, 24959, Note_on_c, 9, 46, 0
7, 28560, Note_on_c, 9, 46, 127
7, 28799, Note_on_c, 9, 46, 0
7, 30720, Note_on_c, 9, 46, 127
7, 31199, Note_on_c, 9, 46, 0
7, 31200, Note_on_c, 9, 46, 127
7, 31679, Note_on_c, 9, 46, 0
7, 31680, Note_on_c, 9, 46, 127
7, 32159, Note_on_c, 9, 46, 0
7, 32160, Note_on_c, 9, 46, 127
7, 32639, Note_on_c, 9, 46, 0
7, 32640, Note_on_c, 9, 46, 127
7, 33119, Note_on_c, 9, 46, 0
7, 33120, Note_on_c, 9, 46, 127
7, 33599, Note_on_c, 9, 46, 0
7, 33600, Note_on_c, 9, 46, 127
7, 34079, Note_on_c, 9, 46, 0
7, 34080, Note_on_c, 9, 46, 127
7, 34319, Note_on_c, 9, 46, 0
7, 34320, Note_on_c, 9, 46, 127
7, 34559, Note_on_c, 9, 46, 0
7, 38160, Note_on_c, 9, 46, 127
7, 38399, Note_on_c, 9, 46, 0
7, 42000, Note_on_c, 9, 46, 127
7, 42239, Note_on_c, 9, 46, 0
7, 45840, Note_on_c, 9, 46, 127
7, 46079, Note_on_c, 9, 46, 0
7, 49680, Note_on_c, 9, 46, 127
7, 49919, Note_on_c, 9, 46, 0
7, 57360, Note_on_c, 9, 46, 127
7, 57599, Note_on_c, 9, 46, 0
7, 61200, Note_on_c, 9, 46, 127
7, 61439, Note_on_c, 9, 46, 0
7, 65040, Note_on_c, 9, 46, 127
7, 65279, Note_on_c, 9, 46, 0
7, 67200, Note_on_c, 9, 46, 127
7, 67679, Note_on_c, 9, 46, 0
7, 67680, Note_on_c, 9, 46, 127
7, 68159, Note_on_c, 9, 46, 0
7, 68160, Note_on_c, 9, 46, 127
7, 68639, Note_on_c, 9, 46, 0
7, 68640, Note_on_c, 9, 46, 127
7, 69119, Note_on_c, 9, 46, 0
7, 69120, Note_on_c, 9, 46, 127
7, 69599, Note_on_c, 9, 46, 0
7, 69600, Note_on_c, 9, 46, 127
7, 70079, Note_on_c, 9, 46, 0
7, 70080, Note_on_c, 9, 46, 127
7, 70559, Note_on_c, 9, 46, 0
7, 70560, Note_on_c, 9, 46, 127
7, 70799, Note_on_c, 9, 46, 0
7, 70800, Note_on_c, 9, 46, 127
7, 71039, Note_on_c, 9, 46, 0
7, 74640, Note_on_c, 9, 46, 127
7, 74879, Note_on_c, 9, 46, 0
7, 78480, Note_on_c, 9, 46, 127
7, 78719, Note_on_c, 9, 46, 0
7, 82320, Note_on_c, 9, 46, 127
7, 82559, Note_on_c, 9, 46, 0
7, 86160, Note_on_c, 9, 46, 127
7, 86399, Note_on_c, 9, 46, 0
7, 93840, Note_on_c, 9, 46, 127
7, 94079, Note_on_c, 9, 46, 0
7, 97680, Note_on_c, 9, 46, 127
7, 97919, Note_on_c, 9, 46, 0
7, 101520, Note_on_c, 9, 46, 127
7, 101759, Note_on_c, 9, 46, 0
7, 103680, Note_on_c, 9, 46, 127
7, 104159, Note_on_c, 9, 46, 0
7, 104160, Note_on_c, 9, 46, 127
7, 104639, Note_on_c, 9, 46, 0
7, 104640, Note_on_c, 9, 46, 127
7, 105119, Note_on_c, 9, 46, 0
7, 105120, Note_on_c, 9, 46, 127
7, 105599, Note_on_c, 9, 46, 0
7, 105600, Note_on_c, 9, 46, 127
7, 106079, Note_on_c, 9, 46, 0
7, 106080, Note_on_c, 9, 46, 127
7, 106559, Note_on_c, 9, 46, 0
7, 106560, Note_on_c, 9, 46, 127
7, 107039, Note_on_c, 9, 46, 0
7, 107040, Note_on_c, 9, 46, 127
7, 107279, Note_on_c, 9, 46, 0
7, 107280, Note_on_c, 9, 46, 127
7, 107519, Note_on_c, 9, 46, 0
7, 111120, Note_on_c, 9, 46, 127
7, 111359, Note_on_c, 9, 46, 0
7, 114960, Note_on_c, 9, 46, 127
7, 115199, Note_on_c, 9, 46, 0
7, 118800, Note_on_c, 9, 46, 127
7, 119039, Note_on_c, 9, 46, 0
7, 122640, Note_on_c, 9, 46, 127
7, 122879, Note_on_c, 9, 46, 0
7, 130320, Note_on_c, 9, 46, 127
7, 130559, Note_on_c, 9, 46, 0
7, 134160, Note_on_c, 9, 46, 127
7, 134399, Note_on_c, 9, 46, 0
7, 138000, Note_on_c, 9, 46, 127
7, 138239, Note_on_c, 9, 46, 0
7, 140160, Note_on_c, 9, 46, 127
7, 140639, Note_on_c, 9, 46, 0
7, 140640, Note_on_c, 9, 46, 127
7, 141119, Note_on_c, 9, 46, 0
7, 141120, Note_on_c, 9, 46, 127
7, 141599, Note_on_c, 9, 46, 0
7, 141600, Note_on_c, 9, 46, 127
7, 142079, Note_on_c, 9, 46, 0
7, 142080, Note_on_c, 9, 46, 127
7, 142559, Note_on_c, 9, 46, 0
7, 142560, Note_on_c, 9, 46, 127
7, 143039, Note_on_c, 9, 46, 0
7, 143040, Note_on_c, 9, 46, 127
7, 143519, Note_on_c, 9, 46, 0
7, 143520, Note_on_c, 9, 46, 127
7, 143759, Note_on_c, 9, 46, 0
7, 143760, Note_on_c, 9, 46, 127
7, 143999, Note_on_c, 9, 46, 0
7, 147600, Note_on_c, 9, 46, 127
7, 147839, Note_on_c, 9, 46, 0
7, 151440, Note_on_c, 9, 46, 127
7, 151679, Note_on_c, 9, 46, 0
7, 155280, Note_on_c, 9, 46, 127
7, 155519, Note_on_c, 9, 46, 0
7, 159120, Note_on_c, 9, 46, 127
7, 159359, Note_on_c, 9, 46, 0
7, 166800, Note_on_c, 9, 46, 127
7, 167039, Note_on_c, 9, 46, 0
7, 170640, Note_on_c, 9, 46, 127
7, 170879, Note_on_c, 9, 46, 0
7, 174480, Note_on_c, 9, 46, 127
7, 174719, Note_on_c, 9, 46, 0
7, 176640, Note_on_c, 9, 46, 127
7, 177119, Note_on_c, 9, 46, 0
7, 177120, Note_on_c, 9, 46, 127
7, 177599, Note_on_c, 9, 46, 0
7, 177600, Note_on_c, 9, 46, 127
7, 178079, Note_on_c, 9, 46, 0
7, 178080, Note_on_c, 9, 46, 127
7, 178559, Note_on_c, 9, 46, 0
7, 178560, Note_on_c, 9, 46, 127
7, 179039, Note_on_c, 9, 46, 0
7, 179040, Note_on_c, 9, 46, 127
7, 179519, Note_on_c, 9, 46, 0
7, 179520, Note_on_c, 9, 46, 127
7, 179999, Note_on_c, 9, 46, 0
7, 180000, Note_on_c, 9, 46, 127
7, 180239, Note_on_c, 9, 46, 0
7, 180240, Note_on_c, 9, 46, 127
7, 180479, Note_on_c, 9, 46, 0
7, 184080, Note_on_c, 9, 46, 127
7, 184319, Note_on_c, 9, 46, 0
7, 187920, Note_on_c, 9, 46, 127
7, 188159, Note_on_c, 9, 46, 0
7, 191760, Note_on_c, 9, 46, 127
7, 191999, Note_on_c, 9, 46, 0
7, 195600, Note_on_c, 9, 46, 127
7, 195839, Note_on_c, 9, 46, 0
7, 203280, Note_on_c, 9, 46, 127
7, 203519, Note_on_c, 9, 46, 0
7, 207120, Note_on_c, 9, 46, 127
7, 207359, Note_on_c, 9, 46, 0
7, 210960, Note_on_c, 9, 46, 127
7, 211199, Note_on_c, 9, 46, 0
7, 214800, Note_on_c, 9, 46, 127
7, 215039, Note_on_c, 9, 46, 0
7, 215040, Note_on_c, 9, 46, 127
7, 215519, Note_on_c, 9, 46, 0
7, 215520, End_track
8, 0, Start_track
8, 0, Key_signature, 0, "major"
8, 0, Control_c, 9, 121, 0
8, 0, Program_c, 9, 0
8, 0, Control_c, 9, 7, 100
8, 0, Control_c, 9, 10, 64
8, 0, Control_c, 9, 91, 0
8, 0, Control_c, 9, 93, 0
8, 0, MIDI_port, 7
8, 9600, Note_on_c, 9, 48, 127
8, 9959, Note_on_c, 9, 48, 0
8, 9960, Note_on_c, 9, 48, 127
8, 10079, Note_on_c, 9, 48, 0
8, 13440, Note_on_c, 9, 48, 127
8, 13799, Note_on_c, 9, 48, 0
8, 13800, Note_on_c, 9, 48, 127
8, 13919, Note_on_c, 9, 48, 0
8, 35760, Note_on_c, 9, 48, 127
8, 35999, Note_on_c, 9, 48, 0
8, 37680, Note_on_c, 9, 48, 127
8, 37919, Note_on_c, 9, 48, 0
8, 39600, Note_on_c, 9, 48, 127
8, 39839, Note_on_c, 9, 48, 0
8, 41520, Note_on_c, 9, 48, 127
8, 41759, Note_on_c, 9, 48, 0
8, 43440, Note_on_c, 9, 48, 127
8, 43679, Note_on_c, 9, 48, 0
8, 51120, Note_on_c, 9, 48, 127
8, 51359, Note_on_c, 9, 48, 0
8, 72240, Note_on_c, 9, 48, 127
8, 72479, Note_on_c, 9, 48, 0
8, 74160, Note_on_c, 9, 48, 127
8, 74399, Note_on_c, 9, 48, 0
8, 76080, Note_on_c, 9, 48, 127
8, 76319, Note_on_c, 9, 48, 0
8, 78000, Note_on_c, 9, 48, 127
8, 78239, Note_on_c, 9, 48, 0
8, 79920, Note_on_c, 9, 48, 127
8, 80159, Note_on_c, 9, 48, 0
8, 87600, Note_on_c, 9, 48, 127
8, 87839, Note_on_c, 9, 48, 0
8, 108720, Note_on_c, 9, 48, 127
8, 108959, Note_on_c, 9, 48, 0
8, 110640, Note_on_c, 9, 48, 127
8, 110879, Note_on_c, 9, 48, 0
8, 112560, Note_on_c, 9, 48, 127
8, 112799, Note_on_c, 9, 48, 0
8, 114480, Note_on_c, 9, 48, 127
8, 114719, Note_on_c, 9, 48, 0
8, 116400, Note_on_c, 9, 48, 127
8, 116639, Note_on_c, 9, 48, 0
8, 124080, Note_on_c, 9, 48, 127
8, 124319, Note_on_c, 9, 48, 0
8, 145200, Note_on_c, 9, 48, 127
8, 145439, Note_on_c, 9, 48, 0
8, 147120, Note_on_c, 9, 48, 127
8, 147359, Note_on_c, 9, 48, 0
8, 149040, Note_on_c, 9, 48, 127
8, 149279, Note_on_c, 9, 48, 0
8, 150960, Note_on_c, 9, 48, 127
8, 151199, Note_on_c, 9, 48, 0
8, 152880, Note_on_c, 9, 48, 127
8, 153119, Note_on_c, 9, 48, 0
8, 160560, Note_on_c, 9, 48, 127
8, 160799, Note_on_c, 9, 48, 0
8, 181680, Note_on_c, 9, 48, 127
8, 181919, Note_on_c, 9, 48, 0
8, 183600, Note_on_c, 9, 48, 127
8, 183839, Note_on_c, 9, 48, 0
8, 185520, Note_on_c, 9, 48, 127
8, 185759, Note_on_c, 9, 48, 0
8, 187440, Note_on_c, 9, 48, 127
8, 187679, Note_on_c, 9, 48, 0
8, 189360, Note_on_c, 9, 48, 127
8, 189599, Note_on_c, 9, 48, 0
8, 197040, Note_on_c, 9, 48, 127
8, 197279, Note_on_c, 9, 48, 0
8, 207600, Note_on_c, 9, 48, 127
8, 207719, Note_on_c, 9, 48, 0
8, 207720, Note_on_c, 9, 48, 127
8, 207839, Note_on_c, 9, 48, 0
8, 213600, Note_on_c, 9, 48, 127
8, 213839, Note_on_c, 9, 48, 0
8, 213840, Note_on_c, 9, 48, 127
8, 214079, Note_on_c, 9, 48, 0
8, 214080, Note_on_c, 9, 48, 127
8, 214559, Note_on_c, 9, 48, 0
8, 214560, End_track
9, 0, Start_track
9, 0, Key_signature, 0, "major"
9, 0, Control_c, 9, 121, 0
9, 0, Program_c, 9, 0
9, 0, Control_c, 9, 7, 100
9, 0, Control_c, 9, 10, 64
9, 0, Control_c, 9, 91, 0
9, 0, Control_c, 9, 93, 0
9, 0, MIDI_port, 8
9, 10080, Note_on_c, 9, 45, 127
9, 10559, Note_on_c, 9, 45, 0
9, 13920, Note_on_c, 9, 45, 127
9, 14399, Note_on_c, 9, 45, 0
9, 36000, Note_on_c, 9, 45, 127
9, 36239, Note_on_c, 9, 45, 0
9, 36240, Note_on_c, 9, 45, 127
9, 36479, Note_on_c, 9, 45, 0
9, 37920, Note_on_c, 9, 45, 127
9, 38159, Note_on_c, 9, 45, 0
9, 38160, Note_on_c, 9, 45, 127
9, 38399, Note_on_c, 9, 45, 0
9, 39840, Note_on_c, 9, 45, 127
9, 40079, Note_on_c, 9, 45, 0
9, 40080, Note_on_c, 9, 45, 127
9, 40319, Note_on_c, 9, 45, 0
9, 41760, Note_on_c, 9, 45, 127
9, 41999, Note_on_c, 9, 45, 0
9, 42000, Note_on_c, 9, 45, 127
9, 42239, Note_on_c, 9, 45, 0
9, 43680, Note_on_c, 9, 45, 127
9, 43919, Note_on_c, 9, 45, 0
9, 43920, Note_on_c, 9, 45, 127
9, 44159, Note_on_c, 9, 45, 0
9, 45600, Note_on_c, 9, 45, 127
9, 45839, Note_on_c, 9, 45, 0
9, 45840, Note_on_c, 9, 45, 127
9, 46079, Note_on_c, 9, 45, 0
9, 51360, Note_on_c, 9, 45, 127
9, 51599, Note_on_c, 9, 45, 0
9, 51600, Note_on_c, 9, 45, 127
9, 51839, Note_on_c, 9, 45, 0
9, 72480, Note_on_c, 9, 45, 127
9, 72719, Note_on_c, 9, 45, 0
9, 72720, Note_on_c, 9, 45, 127
9, 72959, Note_on_c, 9, 45, 0
9, 74400, Note_on_c, 9, 45, 127
9, 74639, Note_on_c, 9, 45, 0
9, 74640, Note_on_c, 9, 45, 127
9, 74879, Note_on_c, 9, 45, 0
9, 76320, Note_on_c, 9, 45, 127
9, 76559, Note_on_c, 9, 45, 0
9, 76560, Note_on_c, 9, 45, 127
9, 76799, Note_on_c, 9, 45, 0
9, 78240, Note_on_c, 9, 45, 127
9, 78479, Note_on_c, 9, 45, 0
9, 78480, Note_on_c, 9, 45, 127
9, 78719, Note_on_c, 9, 45, 0
9, 80160, Note_on_c, 9, 45, 127
9, 80399, Note_on_c, 9, 45, 0
9, 80400, Note_on_c, 9, 45, 127
9, 80639, Note_on_c, 9, 45, 0
9, 82080, Note_on_c, 9, 45, 127
9, 82319, Note_on_c, 9, 45, 0
9, 82320, Note_on_c, 9, 45, 127
9, 82559, Note_on_c, 9, 45, 0
9, 87840, Note_on_c, 9, 45, 127
9, 88079, Note_on_c, 9, 45, 0
9, 88080, Note_on_c, 9, 45, 127
9, 88319, Note_on_c, 9, 45, 0
9, 108960, Note_on_c, 9, 45, 127
9, 109199, Note_on_c, 9, 45, 0
9, 109200, Note_on_c, 9, 45, 127
9, 109439, Note_on_c, 9, 45, 0
9, 110880, Note_on_c, 9, 45, 127
9, 111119, Note_on_c, 9, 45, 0
9, 111120, Note_on_c, 9, 45, 127
9, 111359, Note_on_c, 9, 45, 0
9, 112800, Note_on_c, 9, 45, 127
9, 113039, Note_on_c, 9, 45, 0
9, 113040, Note_on_c, 9, 45, 127
9, 113279, Note_on_c, 9, 45, 0
9, 114720, Note_on_c, 9, 45, 127
9, 114959, Note_on_c, 9, 45, 0
9, 114960, Note_on_c, 9, 45, 127
9, 115199, Note_on_c, 9, 45, 0
9, 116640, Note_on_c, 9, 45, 127
9, 116879, Note_on_c, 9, 45, 0
9, 116880, Note_on_c, 9, 45, 127
9, 117119, Note_on_c, 9, 45, 0
9, 118560, Note_on_c, 9, 45, 127
9, 118799, Note_on_c, 9, 45, 0
9, 118800, Note_on_c, 9, 45, 127
9, 119039, Note_on_c, 9, 45, 0
9, 124320, Note_on_c, 9, 45, 127
9, 124559, Note_on_c, 9, 45, 0
9, 124560, Note_on_c, 9, 45, 127
9, 124799, Note_on_c, 9, 45, 0
9, 145440, Note_on_c, 9, 45, 127
9, 145679, Note_on_c, 9, 45, 0
9, 145680, Note_on_c, 9, 45, 127
9, 145919, Note_on_c, 9, 45, 0
9, 147360, Note_on_c, 9, 45, 127
9, 147599, Note_on_c, 9, 45, 0
9, 147600, Note_on_c, 9, 45, 127
9, 147839, Note_on_c, 9, 45, 0
9, 149280, Note_on_c, 9, 45, 127
9, 149519, Note_on_c, 9, 45, 0
9, 149520, Note_on_c, 9, 45, 127
9, 149759, Note_on_c, 9, 45, 0
9, 151200, Note_on_c, 9, 45, 127
9, 151439, Note_on_c, 9, 45, 0
9, 151440, Note_on_c, 9, 45, 127
9, 151679, Note_on_c, 9, 45, 0
9, 153120, Note_on_c, 9, 45, 127
9, 153359, Note_on_c, 9, 45, 0
9, 153360, Note_on_c, 9, 45, 127
9, 153599, Note_on_c, 9, 45, 0
9, 155040, Note_on_c, 9, 45, 127
9, 155279, Note_on_c, 9, 45, 0
9, 155280, Note_on_c, 9, 45, 127
9, 155519, Note_on_c, 9, 45, 0
9, 160800, Note_on_c, 9, 45, 127
9, 161039, Note_on_c, 9, 45, 0
9, 161040, Note_on_c, 9, 45, 127
9, 161279, Note_on_c, 9, 45, 0
9, 181920, Note_on_c, 9, 45, 127
9, 182159, Note_on_c, 9, 45, 0
9, 182160, Note_on_c, 9, 45, 127
9, 182399, Note_on_c, 9, 45, 0
9, 183840, Note_on_c, 9, 45, 127
9, 184079, Note_on_c, 9, 45, 0
9, 184080, Note_on_c, 9, 45, 127
9, 184319, Note_on_c, 9, 45, 0
9, 185760, Note_on_c, 9, 45, 127
9, 185999, Note_on_c, 9, 45, 0
9, 186000, Note_on_c, 9, 45, 127
9, 186239, Note_on_c, 9, 45, 0
9, 187680, Note_on_c, 9, 45, 127
9, 187919, Note_on_c, 9, 45, 0
9, 187920, Note_on_c, 9, 45, 127
9, 188159, Note_on_c, 9, 45, 0
9, 189600, Note_on_c, 9, 45, 127
9, 189839, Note_on_c, 9, 45, 0
9, 189840, Note_on_c, 9, 45, 127
9, 190079, Note_on_c, 9, 45, 0
9, 191520, Note_on_c, 9, 45, 127
9, 191759, Note_on_c, 9, 45, 0
9, 191760, Note_on_c, 9, 45, 127
9, 191999, Note_on_c, 9, 45, 0
9, 197280, Note_on_c, 9, 45, 127
9, 197519, Note_on_c, 9, 45, 0
9, 197520, Note_on_c, 9, 45, 127
9, 197759, Note_on_c, 9, 45, 0
9, 214320, Note_on_c, 9, 45, 127
9, 214559, Note_on_c, 9, 45, 0
9, 214560, End_track
10, 0, Start_track
10, 0, Key_signature, 0, "major"
10, 0, Control_c, 9, 121, 0
10, 0, Program_c, 9, 0
10, 0, Control_c, 9, 7, 100
10, 0, Control_c, 9, 10, 64
10, 0, Control_c, 9, 91, 0
10, 0, Control_c, 9, 93, 0
10, 0, MIDI_port, 9
10, 207840, Note_on_c, 9, 41, 127
10, 208319, Note_on_c, 9, 41, 0
10, 214560, Note_on_c, 9, 41, 127
10, 214799, Note_on_c, 9, 41, 0
10, 214800, Note_on_c, 9, 41, 127
10, 215039, Note_on_c, 9, 41, 0
10, 215040, End_track
0, 0, End_of_file
