0, 0, Header, 1, 1, 480
1, 0, Start_track
1, 0, Time_signature, 4, 2, 24, 8
1, 0, Key_signature, 0, "major"
1, 0, Tempo, 631579
1, 0, Control_c, 9, 121, 0
1, 0, Program_c, 9, 0
1, 0, Control_c, 9, 7, 84
1, 0, Control_c, 9, 10, 64
1, 0, Control_c, 9, 91, 0
1, 0, Control_c, 9, 93, 0
1, 0, MIDI_port, 0
1, 9600, Note_on_c, 9, 49, 80
1, 9600, Note_on_c, 9, 36, 102
1, 9614, Note_on_c, 9, 49, 0
1, 9615, Note_on_c, 9, 42, 69
1, 9839, Note_on_c, 9, 42, 0
1, 10079, Note_on_c, 9, 36, 0
1, 10320, Note_on_c, 9, 42, 102
1, 10320, Note_on_c, 9, 49, 80
1, 10320, Note_on_c, 9, 36, 102
1, 10559, Note_on_c, 9, 42, 0
1, 10559, Note_on_c, 9, 49, 0
1, 10559, Note_on_c, 9, 36, 0
1, 10560, Note_on_c, 9, 49, 80
1, 10560, Note_on_c, 9, 36, 93
1, 10574, Note_on_c, 9, 49, 0
1, 10575, Note_on_c, 9, 42, 94
1, 10799, Note_on_c, 9, 42, 0
1, 11039, Note_on_c, 9, 36, 0
1, 11280, Note_on_c, 9, 42, 40
1, 11280, Note_on_c, 9, 49, 80
1, 11280, Note_on_c, 9, 36, 102
1, 11519, Note_on_c, 9, 42, 0
1, 11519, Note_on_c, 9, 49, 0
1, 11519, Note_on_c, 9, 36, 0
1, 11520, Note_on_c, 9, 49, 80
1, 11520, Note_on_c, 9, 36, 101
1, 11534, Note_on_c, 9, 49, 0
1, 11535, Note_on_c, 9, 42, 67
1, 11759, Note_on_c, 9, 42, 0
1, 11760, Note_on_c, 9, 29, 100
1, 11999, Note_on_c, 9, 36, 0
1, 11999, Note_on_c, 9, 29, 0
1, 13440, Note_on_c, 9, 42, 68
1, 13440, Note_on_c, 9, 49, 75
1, 13455, Note_on_c, 9, 36, 97
1, 13499, Note_on_c, 9, 42, 0
1, 13499, Note_on_c, 9, 49, 0
1, 13515, Note_on_c, 9, 42, 41
1, 13559, Note_on_c, 9, 42, 0
1, 13679, Note_on_c, 9, 36, 0
1, 13695, Note_on_c, 9, 42, 64
1, 13739, Note_on_c, 9, 42, 0
1, 13755, Note_on_c, 9, 42, 41
1, 13799, Note_on_c, 9, 42, 0
1, 13815, Note_on_c, 9, 54, 99
1, 13859, Note_on_c, 9, 54, 0
1, 13920, Note_on_c, 9, 38, 103
1, 13935, Note_on_c, 9, 42, 75
1, 13979, Note_on_c, 9, 38, 0
1, 13979, Note_on_c, 9, 42, 0
1, 13995, Note_on_c, 9, 42, 43
1, 14039, Note_on_c, 9, 42, 0
1, 14175, Note_on_c, 9, 42, 70
1, 14219, Note_on_c, 9, 42, 0
1, 14235, Note_on_c, 9, 42, 43
1, 14279, Note_on_c, 9, 42, 0
1, 14280, Note_on_c, 9, 36, 94
1, 14399, Note_on_c, 9, 36, 0
1, 14415, Note_on_c, 9, 42, 68
1, 14415, Note_on_c, 9, 36, 102
1, 14459, Note_on_c, 9, 42, 0
1, 14475, Note_on_c, 9, 42, 41
1, 14519, Note_on_c, 9, 42, 0
1, 14639, Note_on_c, 9, 36, 0
1, 14655, Note_on_c, 9, 42, 64
1, 14699, Note_on_c, 9, 42, 0
1, 14715, Note_on_c, 9, 42, 41
1, 14759, Note_on_c, 9, 42, 0
1, 14775, Note_on_c, 9, 54, 100
1, 14819, Note_on_c, 9, 54, 0
1, 14895, Note_on_c, 9, 38, 99
1, 14895, Note_on_c, 9, 42, 75
1, 14939, Note_on_c, 9, 38, 0
1, 14939, Note_on_c, 9, 42, 0
1, 14955, Note_on_c, 9, 42, 44
1, 14999, Note_on_c, 9, 42, 0
1, 15120, Note_on_c, 9, 36, 91
1, 15135, Note_on_c, 9, 42, 59
1, 15179, Note_on_c, 9, 42, 0
1, 15195, Note_on_c, 9, 42, 40
1, 15239, Note_on_c, 9, 42, 0
1, 15359, Note_on_c, 9, 36, 0
1, 15375, Note_on_c, 9, 42, 69
1, 15375, Note_on_c, 9, 36, 102
1, 15419, Note_on_c, 9, 42, 0
1, 15435, Note_on_c, 9, 42, 42
1, 15479, Note_on_c, 9, 42, 0
1, 15599, Note_on_c, 9, 36, 0
1, 15615, Note_on_c, 9, 42, 68
1, 15659, Note_on_c, 9, 42, 0
1, 15675, Note_on_c, 9, 42, 41
1, 15719, Note_on_c, 9, 42, 0
1, 15735, Note_on_c, 9, 54, 96
1, 15779, Note_on_c, 9, 54, 0
1, 15855, Note_on_c, 9, 38, 103
1, 15855, Note_on_c, 9, 42, 71
1, 15899, Note_on_c, 9, 38, 0
1, 15899, Note_on_c, 9, 42, 0
1, 15915, Note_on_c, 9, 42, 43
1, 15959, Note_on_c, 9, 42, 0
1, 16095, Note_on_c, 9, 42, 60
1, 16139, Note_on_c, 9, 42, 0
1, 16155, Note_on_c, 9, 42, 40
1, 16199, Note_on_c, 9, 42, 0
1, 16200, Note_on_c, 9, 36, 92
1, 16319, Note_on_c, 9, 36, 0
1, 16320, Note_on_c, 9, 36, 102
1, 16335, Note_on_c, 9, 42, 67
1, 16379, Note_on_c, 9, 42, 0
1, 16395, Note_on_c, 9, 42, 41
1, 16439, Note_on_c, 9, 42, 0
1, 16559, Note_on_c, 9, 36, 0
1, 16575, Note_on_c, 9, 42, 57
1, 16575, Note_on_c, 9, 36, 82
1, 16619, Note_on_c, 9, 42, 0
1, 16635, Note_on_c, 9, 42, 40
1, 16679, Note_on_c, 9, 42, 0
1, 16695, Note_on_c, 9, 54, 103
1, 16739, Note_on_c, 9, 54, 0
1, 16799, Note_on_c, 9, 36, 0
1, 16815, Note_on_c, 9, 38, 103
1, 16815, Note_on_c, 9, 42, 63
1, 16859, Note_on_c, 9, 38, 0
1, 16859, Note_on_c, 9, 42, 0
1, 16875, Note_on_c, 9, 42, 45
1, 16919, Note_on_c, 9, 42, 0
1, 17055, Note_on_c, 9, 42, 64
1, 17055, Note_on_c, 9, 36, 90
1, 17099, Note_on_c, 9, 42, 0
1, 17115, Note_on_c, 9, 42, 41
1, 17159, Note_on_c, 9, 42, 0
1, 17279, Note_on_c, 9, 36, 0
1, 17280, Note_on_c, 9, 36, 101
1, 17295, Note_on_c, 9, 42, 67
1, 17339, Note_on_c, 9, 42, 0
1, 17355, Note_on_c, 9, 42, 41
1, 17399, Note_on_c, 9, 42, 0
1, 17535, Note_on_c, 9, 42, 61
1, 17579, Note_on_c, 9, 42, 0
1, 17595, Note_on_c, 9, 42, 40
1, 17639, Note_on_c, 9, 42, 0
1, 17655, Note_on_c, 9, 54, 98
1, 17699, Note_on_c, 9, 54, 0
1, 17759, Note_on_c, 9, 36, 0
1, 17775, Note_on_c, 9, 38, 102
1, 17775, Note_on_c, 9, 42, 72
1, 17819, Note_on_c, 9, 38, 0
1, 17819, Note_on_c, 9, 42, 0
1, 17835, Note_on_c, 9, 42, 43
1, 17879, Note_on_c, 9, 42, 0
1, 18015, Note_on_c, 9, 42, 69
1, 18059, Note_on_c, 9, 42, 0
1, 18075, Note_on_c, 9, 42, 42
1, 18119, Note_on_c, 9, 42, 0
1, 18135, Note_on_c, 9, 36, 91
1, 18179, Note_on_c, 9, 36, 0
1, 18240, Note_on_c, 9, 36, 99
1, 18255, Note_on_c, 9, 42, 66
1, 18299, Note_on_c, 9, 42, 0
1, 18315, Note_on_c, 9, 42, 41
1, 18359, Note_on_c, 9, 42, 0
1, 18495, Note_on_c, 9, 42, 64
1, 18539, Note_on_c, 9, 42, 0
1, 18555, Note_on_c, 9, 42, 41
1, 18599, Note_on_c, 9, 42, 0
1, 18615, Note_on_c, 9, 54, 99
1, 18659, Note_on_c, 9, 54, 0
1, 18719, Note_on_c, 9, 36, 0
1, 18735, Note_on_c, 9, 38, 105
1, 18735, Note_on_c, 9, 42, 75
1, 18779, Note_on_c, 9, 38, 0
1, 18779, Note_on_c, 9, 42, 0
1, 18795, Note_on_c, 9, 42, 43
1, 18839, Note_on_c, 9, 42, 0
1, 18960, Note_on_c, 9, 36, 92
1, 18975, Note_on_c, 9, 42, 64
1, 19019, Note_on_c, 9, 42, 0
1, 19035, Note_on_c, 9, 42, 41
1, 19079, Note_on_c, 9, 42, 0
1, 19199, Note_on_c, 9, 36, 0
1, 19215, Note_on_c, 9, 42, 68
1, 19215, Note_on_c, 9, 36, 97
1, 19259, Note_on_c, 9, 42, 0
1, 19275, Note_on_c, 9, 42, 41
1, 19319, Note_on_c, 9, 42, 0
1, 19439, Note_on_c, 9, 36, 0
1, 19455, Note_on_c, 9, 42, 64
1, 19499, Note_on_c, 9, 42, 0
1, 19515, Note_on_c, 9, 42, 41
1, 19559, Note_on_c, 9, 42, 0
1, 19575, Note_on_c, 9, 54, 99
1, 19619, Note_on_c, 9, 54, 0
1, 19695, Note_on_c, 9, 38, 103
1, 19695, Note_on_c, 9, 42, 75
1, 19739, Note_on_c, 9, 38, 0
1, 19739, Note_on_c, 9, 42, 0
1, 19755, Note_on_c, 9, 42, 43
1, 19799, Note_on_c, 9, 42, 0
1, 19935, Note_on_c, 9, 42, 70
1, 19979, Note_on_c, 9, 42, 0
1, 19995, Note_on_c, 9, 42, 43
1, 20039, Note_on_c, 9, 42, 0
1, 20040, Note_on_c, 9, 36, 94
1, 20159, Note_on_c, 9, 36, 0
1, 20175, Note_on_c, 9, 42, 68
1, 20175, Note_on_c, 9, 36, 102
1, 20219, Note_on_c, 9, 42, 0
1, 20235, Note_on_c, 9, 42, 41
1, 20279, Note_on_c, 9, 42, 0
1, 20399, Note_on_c, 9, 36, 0
1, 20415, Note_on_c, 9, 42, 64
1, 20459, Note_on_c, 9, 42, 0
1, 20475, Note_on_c, 9, 42, 41
1, 20519, Note_on_c, 9, 42, 0
1, 20535, Note_on_c, 9, 54, 100
1, 20579, Note_on_c, 9, 54, 0
1, 20655, Note_on_c, 9, 38, 99
1, 20655, Note_on_c, 9, 42, 75
1, 20699, Note_on_c, 9, 38, 0
1, 20699, Note_on_c, 9, 42, 0
1, 20715, Note_on_c, 9, 42, 44
1, 20759, Note_on_c, 9, 42, 0
1, 20880, Note_on_c, 9, 36, 91
1, 20895, Note_on_c, 9, 42, 59
1, 20939, Note_on_c, 9, 42, 0
1, 20955, Note_on_c, 9, 42, 40
1, 20999, Note_on_c, 9, 42, 0
1, 21119, Note_on_c, 9, 36, 0
1, 21135, Note_on_c, 9, 42, 69
1, 21135, Note_on_c, 9, 36, 102
1, 21179, Note_on_c, 9, 42, 0
1, 21195, Note_on_c, 9, 42, 42
1, 21239, Note_on_c, 9, 42, 0
1, 21359, Note_on_c, 9, 36, 0
1, 21375, Note_on_c, 9, 42, 68
1, 21419, Note_on_c, 9, 42, 0
1, 21435, Note_on_c, 9, 42, 41
1, 21479, Note_on_c, 9, 42, 0
1, 21495, Note_on_c, 9, 54, 96
1, 21539, Note_on_c, 9, 54, 0
1, 21615, Note_on_c, 9, 38, 103
1, 21615, Note_on_c, 9, 42, 71
1, 21659, Note_on_c, 9, 38, 0
1, 21659, Note_on_c, 9, 42, 0
1, 21675, Note_on_c, 9, 42, 43
1, 21719, Note_on_c, 9, 42, 0
1, 21855, Note_on_c, 9, 42, 60
1, 21899, Note_on_c, 9, 42, 0
1, 21915, Note_on_c, 9, 42, 40
1, 21959, Note_on_c, 9, 42, 0
1, 21960, Note_on_c, 9, 36, 92
1, 22079, Note_on_c, 9, 36, 0
1, 22080, Note_on_c, 9, 36, 102
1, 22095, Note_on_c, 9, 42, 67
1, 22139, Note_on_c, 9, 42, 0
1, 22155, Note_on_c, 9, 42, 41
1, 22199, Note_on_c, 9, 42, 0
1, 22319, Note_on_c, 9, 36, 0
1, 22335, Note_on_c, 9, 42, 57
1, 22335, Note_on_c, 9, 36, 82
1, 22379, Note_on_c, 9, 42, 0
1, 22395, Note_on_c, 9, 42, 40
1, 22439, Note_on_c, 9, 42, 0
1, 22455, Note_on_c, 9, 54, 103
1, 22499, Note_on_c, 9, 54, 0
1, 22559, Note_on_c, 9, 36, 0
1, 22575, Note_on_c, 9, 38, 103
1, 22575, Note_on_c, 9, 42, 63
1, 22619, Note_on_c, 9, 38, 0
1, 22619, Note_on_c, 9, 42, 0
1, 22635, Note_on_c, 9, 42, 45
1, 22679, Note_on_c, 9, 42, 0
1, 22815, Note_on_c, 9, 42, 64
1, 22815, Note_on_c, 9, 36, 90
1, 22859, Note_on_c, 9, 42, 0
1, 22875, Note_on_c, 9, 42, 41
1, 22919, Note_on_c, 9, 42, 0
1, 23039, Note_on_c, 9, 36, 0
1, 23040, Note_on_c, 9, 36, 101
1, 23055, Note_on_c, 9, 42, 67
1, 23099, Note_on_c, 9, 42, 0
1, 23115, Note_on_c, 9, 42, 41
1, 23159, Note_on_c, 9, 42, 0
1, 23295, Note_on_c, 9, 42, 61
1, 23339, Note_on_c, 9, 42, 0
1, 23355, Note_on_c, 9, 42, 40
1, 23399, Note_on_c, 9, 42, 0
1, 23415, Note_on_c, 9, 54, 98
1, 23459, Note_on_c, 9, 54, 0
1, 23519, Note_on_c, 9, 36, 0
1, 23535, Note_on_c, 9, 38, 102
1, 23535, Note_on_c, 9, 42, 72
1, 23579, Note_on_c, 9, 38, 0
1, 23579, Note_on_c, 9, 42, 0
1, 23595, Note_on_c, 9, 42, 43
1, 23639, Note_on_c, 9, 42, 0
1, 23775, Note_on_c, 9, 42, 69
1, 23819, Note_on_c, 9, 42, 0
1, 23835, Note_on_c, 9, 42, 42
1, 23879, Note_on_c, 9, 42, 0
1, 23895, Note_on_c, 9, 36, 91
1, 23939, Note_on_c, 9, 36, 0
1, 24000, Note_on_c, 9, 36, 99
1, 24015, Note_on_c, 9, 42, 66
1, 24059, Note_on_c, 9, 42, 0
1, 24075, Note_on_c, 9, 42, 41
1, 24119, Note_on_c, 9, 42, 0
1, 24255, Note_on_c, 9, 42, 64
1, 24299, Note_on_c, 9, 42, 0
1, 24315, Note_on_c, 9, 42, 41
1, 24359, Note_on_c, 9, 42, 0
1, 24375, Note_on_c, 9, 54, 99
1, 24419, Note_on_c, 9, 54, 0
1, 24479, Note_on_c, 9, 36, 0
1, 24495, Note_on_c, 9, 38, 105
1, 24495, Note_on_c, 9, 42, 75
1, 24539, Note_on_c, 9, 38, 0
1, 24539, Note_on_c, 9, 42, 0
1, 24555, Note_on_c, 9, 42, 43
1, 24599, Note_on_c, 9, 42, 0
1, 24720, Note_on_c, 9, 36, 92
1, 24735, Note_on_c, 9, 42, 64
1, 24779, Note_on_c, 9, 42, 0
1, 24795, Note_on_c, 9, 42, 41
1, 24839, Note_on_c, 9, 42, 0
1, 24959, Note_on_c, 9, 36, 0
1, 24975, Note_on_c, 9, 42, 68
1, 24975, Note_on_c, 9, 36, 97
1, 25019, Note_on_c, 9, 42, 0
1, 25035, Note_on_c, 9, 42, 41
1, 25079, Note_on_c, 9, 42, 0
1, 25199, Note_on_c, 9, 36, 0
1, 25215, Note_on_c, 9, 42, 64
1, 25259, Note_on_c, 9, 42, 0
1, 25275, Note_on_c, 9, 42, 41
1, 25319, Note_on_c, 9, 42, 0
1, 25335, Note_on_c, 9, 54, 99
1, 25379, Note_on_c, 9, 54, 0
1, 25455, Note_on_c, 9, 38, 103
1, 25455, Note_on_c, 9, 42, 75
1, 25499, Note_on_c, 9, 38, 0
1, 25499, Note_on_c, 9, 42, 0
1, 25515, Note_on_c, 9, 42, 43
1, 25559, Note_on_c, 9, 42, 0
1, 25695, Note_on_c, 9, 42, 70
1, 25739, Note_on_c, 9, 42, 0
1, 25755, Note_on_c, 9, 42, 43
1, 25799, Note_on_c, 9, 42, 0
1, 25800, Note_on_c, 9, 36, 94
1, 25919, Note_on_c, 9, 36, 0
1, 25935, Note_on_c, 9, 42, 68
1, 25935, Note_on_c, 9, 36, 102
1, 25979, Note_on_c, 9, 42, 0
1, 25995, Note_on_c, 9, 42, 41
1, 26039, Note_on_c, 9, 42, 0
1, 26159, Note_on_c, 9, 36, 0
1, 26175, Note_on_c, 9, 42, 64
1, 26219, Note_on_c, 9, 42, 0
1, 26235, Note_on_c, 9, 42, 41
1, 26279, Note_on_c, 9, 42, 0
1, 26295, Note_on_c, 9, 54, 100
1, 26339, Note_on_c, 9, 54, 0
1, 26415, Note_on_c, 9, 38, 99
1, 26415, Note_on_c, 9, 42, 75
1, 26459, Note_on_c, 9, 38, 0
1, 26459, Note_on_c, 9, 42, 0
1, 26475, Note_on_c, 9, 42, 44
1, 26519, Note_on_c, 9, 42, 0
1, 26640, Note_on_c, 9, 36, 91
1, 26655, Note_on_c, 9, 42, 59
1, 26699, Note_on_c, 9, 42, 0
1, 26715, Note_on_c, 9, 42, 40
1, 26759, Note_on_c, 9, 42, 0
1, 26879, Note_on_c, 9, 36, 0
1, 26895, Note_on_c, 9, 42, 69
1, 26895, Note_on_c, 9, 36, 102
1, 26939, Note_on_c, 9, 42, 0
1, 26955, Note_on_c, 9, 42, 42
1, 26999, Note_on_c, 9, 42, 0
1, 27119, Note_on_c, 9, 36, 0
1, 27135, Note_on_c, 9, 42, 68
1, 27179, Note_on_c, 9, 42, 0
1, 27195, Note_on_c, 9, 42, 41
1, 27239, Note_on_c, 9, 42, 0
1, 27255, Note_on_c, 9, 54, 96
1, 27299, Note_on_c, 9, 54, 0
1, 27375, Note_on_c, 9, 38, 103
1, 27375, Note_on_c, 9, 42, 71
1, 27419, Note_on_c, 9, 38, 0
1, 27419, Note_on_c, 9, 42, 0
1, 27435, Note_on_c, 9, 42, 43
1, 27479, Note_on_c, 9, 42, 0
1, 27615, Note_on_c, 9, 42, 60
1, 27659, Note_on_c, 9, 42, 0
1, 27675, Note_on_c, 9, 42, 40
1, 27719, Note_on_c, 9, 42, 0
1, 27720, Note_on_c, 9, 36, 92
1, 27839, Note_on_c, 9, 36, 0
1, 27840, Note_on_c, 9, 36, 102
1, 27855, Note_on_c, 9, 42, 67
1, 27899, Note_on_c, 9, 42, 0
1, 27915, Note_on_c, 9, 42, 41
1, 27959, Note_on_c, 9, 42, 0
1, 28079, Note_on_c, 9, 36, 0
1, 28095, Note_on_c, 9, 42, 57
1, 28095, Note_on_c, 9, 36, 82
1, 28139, Note_on_c, 9, 42, 0
1, 28155, Note_on_c, 9, 42, 40
1, 28199, Note_on_c, 9, 42, 0
1, 28215, Note_on_c, 9, 54, 112
1, 28259, Note_on_c, 9, 54, 0
1, 28319, Note_on_c, 9, 36, 0
1, 28335, Note_on_c, 9, 38, 96
1, 28455, Note_on_c, 9, 36, 87
1, 28499, Note_on_c, 9, 36, 0
1, 28559, Note_on_c, 9, 38, 0
1, 28575, Note_on_c, 9, 41, 109
1, 28575, Note_on_c, 9, 44, 93
1, 28619, Note_on_c, 9, 41, 0
1, 28635, Note_on_c, 9, 42, 40
1, 28679, Note_on_c, 9, 42, 0
1, 28799, Note_on_c, 9, 44, 0
1, 28800, Note_on_c, 9, 36, 101
1, 28815, Note_on_c, 9, 42, 67
1, 28859, Note_on_c, 9, 42, 0
1, 28875, Note_on_c, 9, 42, 41
1, 28919, Note_on_c, 9, 42, 0
1, 29055, Note_on_c, 9, 42, 61
1, 29099, Note_on_c, 9, 42, 0
1, 29115, Note_on_c, 9, 42, 40
1, 29159, Note_on_c, 9, 42, 0
1, 29175, Note_on_c, 9, 54, 98
1, 29219, Note_on_c, 9, 54, 0
1, 29279, Note_on_c, 9, 36, 0
1, 29295, Note_on_c, 9, 38, 102
1, 29295, Note_on_c, 9, 42, 72
1, 29339, Note_on_c, 9, 38, 0
1, 29339, Note_on_c, 9, 42, 0
1, 29355, Note_on_c, 9, 42, 43
1, 29399, Note_on_c, 9, 42, 0
1, 29535, Note_on_c, 9, 42, 69
1, 29579, Note_on_c, 9, 42, 0
1, 29595, Note_on_c, 9, 42, 42
1, 29639, Note_on_c, 9, 42, 0
1, 29655, Note_on_c, 9, 36, 91
1, 29699, Note_on_c, 9, 36, 0
1, 29760, Note_on_c, 9, 36, 99
1, 29775, Note_on_c, 9, 42, 66
1, 29819, Note_on_c, 9, 42, 0
1, 29835, Note_on_c, 9, 42, 41
1, 29879, Note_on_c, 9, 42, 0
1, 30015, Note_on_c, 9, 42, 64
1, 30059, Note_on_c, 9, 42, 0
1, 30075, Note_on_c, 9, 42, 41
1, 30119, Note_on_c, 9, 42, 0
1, 30135, Note_on_c, 9, 54, 99
1, 30179, Note_on_c, 9, 54, 0
1, 30239, Note_on_c, 9, 36, 0
1, 30255, Note_on_c, 9, 38, 105
1, 30255, Note_on_c, 9, 42, 75
1, 30299, Note_on_c, 9, 38, 0
1, 30299, Note_on_c, 9, 42, 0
1, 30315, Note_on_c, 9, 42, 43
1, 30359, Note_on_c, 9, 42, 0
1, 30480, Note_on_c, 9, 36, 92
1, 30495, Note_on_c, 9, 42, 64
1, 30539, Note_on_c, 9, 42, 0
1, 30555, Note_on_c, 9, 42, 41
1, 30599, Note_on_c, 9, 42, 0
1, 30719, Note_on_c, 9, 36, 0
1, 30735, Note_on_c, 9, 42, 68
1, 30735, Note_on_c, 9, 36, 97
1, 30779, Note_on_c, 9, 42, 0
1, 30795, Note_on_c, 9, 42, 41
1, 30839, Note_on_c, 9, 42, 0
1, 30959, Note_on_c, 9, 36, 0
1, 30975, Note_on_c, 9, 42, 64
1, 31019, Note_on_c, 9, 42, 0
1, 31035, Note_on_c, 9, 42, 41
1, 31079, Note_on_c, 9, 42, 0
1, 31095, Note_on_c, 9, 54, 99
1, 31139, Note_on_c, 9, 54, 0
1, 31215, Note_on_c, 9, 38, 103
1, 31215, Note_on_c, 9, 42, 75
1, 31259, Note_on_c, 9, 38, 0
1, 31259, Note_on_c, 9, 42, 0
1, 31275, Note_on_c, 9, 42, 43
1, 31319, Note_on_c, 9, 42, 0
1, 31455, Note_on_c, 9, 42, 70
1, 31499, Note_on_c, 9, 42, 0
1, 31515, Note_on_c, 9, 42, 43
1, 31559, Note_on_c, 9, 42, 0
1, 31560, Note_on_c, 9, 36, 94
1, 31679, Note_on_c, 9, 36, 0
1, 31695, Note_on_c, 9, 42, 68
1, 31695, Note_on_c, 9, 36, 102
1, 31739, Note_on_c, 9, 42, 0
1, 31755, Note_on_c, 9, 42, 41
1, 31799, Note_on_c, 9, 42, 0
1, 31919, Note_on_c, 9, 36, 0
1, 31935, Note_on_c, 9, 42, 64
1, 31979, Note_on_c, 9, 42, 0
1, 31995, Note_on_c, 9, 42, 41
1, 32039, Note_on_c, 9, 42, 0
1, 32055, Note_on_c, 9, 54, 100
1, 32099, Note_on_c, 9, 54, 0
1, 32175, Note_on_c, 9, 38, 99
1, 32175, Note_on_c, 9, 42, 75
1, 32219, Note_on_c, 9, 38, 0
1, 32219, Note_on_c, 9, 42, 0
1, 32235, Note_on_c, 9, 42, 44
1, 32279, Note_on_c, 9, 42, 0
1, 32400, Note_on_c, 9, 36, 91
1, 32415, Note_on_c, 9, 42, 59
1, 32459, Note_on_c, 9, 42, 0
1, 32475, Note_on_c, 9, 42, 40
1, 32519, Note_on_c, 9, 42, 0
1, 32639, Note_on_c, 9, 36, 0
1, 32655, Note_on_c, 9, 42, 69
1, 32655, Note_on_c, 9, 36, 102
1, 32699, Note_on_c, 9, 42, 0
1, 32715, Note_on_c, 9, 42, 42
1, 32759, Note_on_c, 9, 42, 0
1, 32879, Note_on_c, 9, 36, 0
1, 32895, Note_on_c, 9, 42, 68
1, 32939, Note_on_c, 9, 42, 0
1, 32955, Note_on_c, 9, 42, 41
1, 32999, Note_on_c, 9, 42, 0
1, 33015, Note_on_c, 9, 54, 96
1, 33059, Note_on_c, 9, 54, 0
1, 33135, Note_on_c, 9, 38, 103
1, 33135, Note_on_c, 9, 42, 71
1, 33179, Note_on_c, 9, 38, 0
1, 33179, Note_on_c, 9, 42, 0
1, 33195, Note_on_c, 9, 42, 43
1, 33239, Note_on_c, 9, 42, 0
1, 33375, Note_on_c, 9, 42, 60
1, 33419, Note_on_c, 9, 42, 0
1, 33435, Note_on_c, 9, 42, 40
1, 33479, Note_on_c, 9, 42, 0
1, 33480, Note_on_c, 9, 36, 92
1, 33599, Note_on_c, 9, 36, 0
1, 33600, Note_on_c, 9, 36, 102
1, 33615, Note_on_c, 9, 42, 67
1, 33659, Note_on_c, 9, 42, 0
1, 33675, Note_on_c, 9, 42, 41
1, 33719, Note_on_c, 9, 42, 0
1, 33839, Note_on_c, 9, 36, 0
1, 33855, Note_on_c, 9, 42, 57
1, 33855, Note_on_c, 9, 36, 82
1, 33899, Note_on_c, 9, 42, 0
1, 33915, Note_on_c, 9, 42, 40
1, 33959, Note_on_c, 9, 42, 0
1, 33975, Note_on_c, 9, 54, 103
1, 34019, Note_on_c, 9, 54, 0
1, 34079, Note_on_c, 9, 36, 0
1, 34095, Note_on_c, 9, 38, 103
1, 34095, Note_on_c, 9, 42, 63
1, 34139, Note_on_c, 9, 38, 0
1, 34139, Note_on_c, 9, 42, 0
1, 34155, Note_on_c, 9, 42, 45
1, 34199, Note_on_c, 9, 42, 0
1, 34335, Note_on_c, 9, 42, 64
1, 34335, Note_on_c, 9, 36, 90
1, 34379, Note_on_c, 9, 42, 0
1, 34395, Note_on_c, 9, 42, 41
1, 34439, Note_on_c, 9, 42, 0
1, 34559, Note_on_c, 9, 36, 0
1, 34560, Note_on_c, 9, 36, 101
1, 34575, Note_on_c, 9, 42, 67
1, 34619, Note_on_c, 9, 42, 0
1, 34635, Note_on_c, 9, 42, 41
1, 34679, Note_on_c, 9, 42, 0
1, 34815, Note_on_c, 9, 42, 61
1, 34859, Note_on_c, 9, 42, 0
1, 34875, Note_on_c, 9, 42, 40
1, 34919, Note_on_c, 9, 42, 0
1, 34935, Note_on_c, 9, 54, 98
1, 34979, Note_on_c, 9, 54, 0
1, 35039, Note_on_c, 9, 36, 0
1, 35055, Note_on_c, 9, 38, 102
1, 35055, Note_on_c, 9, 42, 72
1, 35099, Note_on_c, 9, 38, 0
1, 35099, Note_on_c, 9, 42, 0
1, 35115, Note_on_c, 9, 42, 43
1, 35159, Note_on_c, 9, 42, 0
1, 35295, Note_on_c, 9, 42, 69
1, 35339, Note_on_c, 9, 42, 0
1, 35355, Note_on_c, 9, 42, 42
1, 35399, Note_on_c, 9, 42, 0
1, 35415, Note_on_c, 9, 36, 91
1, 35459, Note_on_c, 9, 36, 0
1, 35520, Note_on_c, 9, 36, 99
1, 35535, Note_on_c, 9, 42, 66
1, 35579, Note_on_c, 9, 42, 0
1, 35595, Note_on_c, 9, 42, 41
1, 35639, Note_on_c, 9, 42, 0
1, 35775, Note_on_c, 9, 42, 64
1, 35819, Note_on_c, 9, 42, 0
1, 35835, Note_on_c, 9, 42, 41
1, 35879, Note_on_c, 9, 42, 0
1, 35895, Note_on_c, 9, 54, 99
1, 35939, Note_on_c, 9, 54, 0
1, 35999, Note_on_c, 9, 36, 0
1, 36015, Note_on_c, 9, 38, 105
1, 36015, Note_on_c, 9, 42, 75
1, 36059, Note_on_c, 9, 38, 0
1, 36059, Note_on_c, 9, 42, 0
1, 36075, Note_on_c, 9, 42, 43
1, 36119, Note_on_c, 9, 42, 0
1, 36240, Note_on_c, 9, 36, 92
1, 36255, Note_on_c, 9, 42, 64
1, 36299, Note_on_c, 9, 42, 0
1, 36315, Note_on_c, 9, 42, 41
1, 36359, Note_on_c, 9, 42, 0
1, 36479, Note_on_c, 9, 36, 0
1, 36495, Note_on_c, 9, 42, 68
1, 36495, Note_on_c, 9, 36, 97
1, 36719, Note_on_c, 9, 42, 0
1, 36719, Note_on_c, 9, 36, 0
1, 36960, Note_on_c, 9, 36, 94
1, 36975, Note_on_c, 9, 38, 70
1, 37199, Note_on_c, 9, 38, 0
1, 37200, Note_on_c, 9, 38, 70
1, 37439, Note_on_c, 9, 36, 0
1, 37439, Note_on_c, 9, 38, 0
1, 37440, Note_on_c, 9, 38, 70
1, 37455, Note_on_c, 9, 36, 102
1, 37679, Note_on_c, 9, 38, 0
1, 37679, Note_on_c, 9, 36, 0
1, 37680, Note_on_c, 9, 38, 70
1, 37919, Note_on_c, 9, 38, 0
1, 37920, Note_on_c, 9, 38, 99
1, 38159, Note_on_c, 9, 38, 0
1, 38160, Note_on_c, 9, 38, 70
1, 38160, Note_on_c, 9, 36, 91
1, 38399, Note_on_c, 9, 38, 0
1, 38399, Note_on_c, 9, 36, 0
1, 38400, Note_on_c, 9, 38, 70
1, 38400, Note_on_c, 9, 36, 92
1, 38414, Note_on_c, 9, 38, 0
1, 38415, Note_on_c, 9, 42, 62
1, 38639, Note_on_c, 9, 42, 0
1, 38879, Note_on_c, 9, 36, 0
1, 38880, Note_on_c, 9, 38, 99
1, 38880, Note_on_c, 9, 49, 94
1, 39359, Note_on_c, 9, 38, 0
1, 39359, Note_on_c, 9, 49, 0
1, 39375, Note_on_c, 9, 45, 108
1, 39375, Note_on_c, 9, 44, 94
1, 39375, Note_on_c, 9, 36, 93
1, 39599, Note_on_c, 9, 45, 0
1, 39599, Note_on_c, 9, 44, 0
1, 39599, Note_on_c, 9, 36, 0
1, 39600, Note_on_c, 9, 44, 105
1, 39600, Note_on_c, 9, 36, 100
1, 39839, Note_on_c, 9, 44, 0
1, 39839, Note_on_c, 9, 36, 0
1, 39840, Note_on_c, 9, 36, 100
1, 40079, Note_on_c, 9, 36, 0
1, 40080, Note_on_c, 9, 38, 109
1, 40080, Note_on_c, 9, 36, 87
1, 40319, Note_on_c, 9, 38, 0
1, 40319, Note_on_c, 9, 36, 0
1, 40320, Note_on_c, 9, 44, 93
1, 40334, Note_on_c, 9, 44, 0
1, 40335, Note_on_c, 9, 36, 101
1, 40559, Note_on_c, 9, 36, 0
1, 40800, Note_on_c, 9, 36, 91
1, 40815, Note_on_c, 9, 38, 102
1, 40815, Note_on_c, 9, 42, 72
1, 41039, Note_on_c, 9, 36, 0
1, 41039, Note_on_c, 9, 38, 0
1, 41039, Note_on_c, 9, 42, 0
1, 41040, Note_on_c, 9, 38, 102
1, 41040, Note_on_c, 9, 36, 99
1, 41054, Note_on_c, 9, 38, 0
1, 41055, Note_on_c, 9, 42, 69
1, 41279, Note_on_c, 9, 36, 0
1, 41279, Note_on_c, 9, 42, 0
1, 41280, Note_on_c, 9, 38, 102
1, 41280, Note_on_c, 9, 36, 99
1, 41294, Note_on_c, 9, 38, 0
1, 41295, Note_on_c, 9, 42, 66
1, 41519, Note_on_c, 9, 36, 0
1, 41519, Note_on_c, 9, 42, 0
1, 41520, Note_on_c, 9, 38, 102
1, 41520, Note_on_c, 9, 36, 99
1, 41534, Note_on_c, 9, 38, 0
1, 41535, Note_on_c, 9, 42, 64
1, 41759, Note_on_c, 9, 36, 0
1, 41759, Note_on_c, 9, 42, 0
1, 41760, Note_on_c, 9, 38, 105
1, 41760, Note_on_c, 9, 36, 99
1, 41774, Note_on_c, 9, 38, 0
1, 41775, Note_on_c, 9, 42, 75
1, 41999, Note_on_c, 9, 36, 0
1, 41999, Note_on_c, 9, 42, 0
1, 42000, Note_on_c, 9, 38, 102
1, 42000, Note_on_c, 9, 36, 92
1, 42014, Note_on_c, 9, 38, 0
1, 42015, Note_on_c, 9, 42, 64
1, 42239, Note_on_c, 9, 36, 0
1, 42239, Note_on_c, 9, 42, 0
1, 42240, Note_on_c, 9, 38, 102
1, 42240, Note_on_c, 9, 36, 97
1, 42254, Note_on_c, 9, 38, 0
1, 42255, Note_on_c, 9, 42, 68
1, 42479, Note_on_c, 9, 42, 0
1, 42719, Note_on_c, 9, 36, 0
1, 44160, Note_on_c, 9, 36, 101
1, 44175, Note_on_c, 9, 42, 67
1, 44399, Note_on_c, 9, 42, 0
1, 44400, Note_on_c, 9, 42, 61
1, 44639, Note_on_c, 9, 36, 0
1, 44639, Note_on_c, 9, 42, 0
1, 44640, Note_on_c, 9, 38, 102
1, 44654, Note_on_c, 9, 38, 0
1, 44655, Note_on_c, 9, 42, 72
1, 44879, Note_on_c, 9, 42, 0
1, 44880, Note_on_c, 9, 42, 69
1, 44880, Note_on_c, 9, 36, 91
1, 45119, Note_on_c, 9, 42, 0
1, 45119, Note_on_c, 9, 36, 0
1, 45120, Note_on_c, 9, 42, 66
1, 45359, Note_on_c, 9, 42, 0
1, 45360, Note_on_c, 9, 42, 64
1, 45599, Note_on_c, 9, 42, 0
1, 45600, Note_on_c, 9, 38, 105
1, 45600, Note_on_c, 9, 42, 75
1, 45839, Note_on_c, 9, 38, 0
1, 45839, Note_on_c, 9, 42, 0
1, 45840, Note_on_c, 9, 42, 64
1, 45840, Note_on_c, 9, 36, 92
1, 46079, Note_on_c, 9, 42, 0
1, 46079, Note_on_c, 9, 36, 0
1, 46080, Note_on_c, 9, 42, 68
1, 46080, Note_on_c, 9, 36, 97
1, 46319, Note_on_c, 9, 42, 0
1, 46320, Note_on_c, 9, 42, 64
1, 46559, Note_on_c, 9, 36, 0
1, 46559, Note_on_c, 9, 42, 0
1, 46560, Note_on_c, 9, 38, 103
1, 46560, Note_on_c, 9, 42, 75
1, 46799, Note_on_c, 9, 38, 0
1, 46799, Note_on_c, 9, 42, 0
1, 46800, Note_on_c, 9, 42, 70
1, 46800, Note_on_c, 9, 36, 94
1, 47039, Note_on_c, 9, 42, 0
1, 47039, Note_on_c, 9, 36, 0
1, 47040, Note_on_c, 9, 42, 68
1, 47279, Note_on_c, 9, 42, 0
1, 47280, Note_on_c, 9, 42, 64
1, 47519, Note_on_c, 9, 42, 0
1, 47520, Note_on_c, 9, 38, 99
1, 47520, Note_on_c, 9, 42, 75
1, 47759, Note_on_c, 9, 38, 0
1, 47759, Note_on_c, 9, 42, 0
1, 47760, Note_on_c, 9, 38, 99
1, 47760, Note_on_c, 9, 36, 91
1, 47774, Note_on_c, 9, 38, 0
1, 47775, Note_on_c, 9, 42, 59
1, 47999, Note_on_c, 9, 36, 0
1, 47999, Note_on_c, 9, 42, 0
1, 48000, Note_on_c, 9, 38, 99
1, 48000, Note_on_c, 9, 49, 99
1, 48000, Note_on_c, 9, 36, 102
1, 48014, Note_on_c, 9, 38, 0
1, 48014, Note_on_c, 9, 49, 0
1, 48015, Note_on_c, 9, 42, 69
1, 48239, Note_on_c, 9, 42, 0
1, 48479, Note_on_c, 9, 36, 0
1, 48720, Note_on_c, 9, 38, 99
1, 48720, Note_on_c, 9, 49, 99
1, 48720, Note_on_c, 9, 44, 102
1, 48720, Note_on_c, 9, 36, 93
1, 48959, Note_on_c, 9, 38, 0
1, 48959, Note_on_c, 9, 49, 0
1, 48959, Note_on_c, 9, 44, 0
1, 48959, Note_on_c, 9, 36, 0
1, 48960, Note_on_c, 9, 49, 99
1, 48960, Note_on_c, 9, 36, 93
1, 48974, Note_on_c, 9, 49, 0
1, 48975, Note_on_c, 9, 45, 108
1, 49199, Note_on_c, 9, 45, 0
1, 49439, Note_on_c, 9, 36, 0
1, 49680, Note_on_c, 9, 41, 109
1, 49680, Note_on_c, 9, 49, 99
1, 49680, Note_on_c, 9, 44, 93
1, 49680, Note_on_c, 9, 36, 93
1, 49919, Note_on_c, 9, 41, 0
1, 49919, Note_on_c, 9, 49, 0
1, 49919, Note_on_c, 9, 44, 0
1, 49919, Note_on_c, 9, 36, 0
1, 49920, Note_on_c, 9, 49, 99
1, 49920, Note_on_c, 9, 36, 101
1, 49934, Note_on_c, 9, 49, 0
1, 49935, Note_on_c, 9, 42, 67
1, 50159, Note_on_c, 9, 42, 0
1, 50399, Note_on_c, 9, 36, 0
1, 51840, Note_on_c, 9, 49, 99
1, 51840, Note_on_c, 9, 36, 97
1, 51854, Note_on_c, 9, 49, 0
1, 51855, Note_on_c, 9, 42, 68
1, 51899, Note_on_c, 9, 42, 0
1, 51900, Note_on_c, 9, 42, 41
1, 52079, Note_on_c, 9, 42, 0
1, 52080, Note_on_c, 9, 42, 64
1, 52139, Note_on_c, 9, 42, 0
1, 52140, Note_on_c, 9, 42, 41
1, 52199, Note_on_c, 9, 42, 0
1, 52215, Note_on_c, 9, 54, 99
1, 52259, Note_on_c, 9, 54, 0
1, 52319, Note_on_c, 9, 36, 0
1, 52320, Note_on_c, 9, 38, 103
1, 52335, Note_on_c, 9, 42, 75
1, 52379, Note_on_c, 9, 38, 0
1, 52379, Note_on_c, 9, 42, 0
1, 52395, Note_on_c, 9, 42, 43
1, 52439, Note_on_c, 9, 42, 0
1, 52575, Note_on_c, 9, 42, 70
1, 52619, Note_on_c, 9, 42, 0
1, 52635, Note_on_c, 9, 42, 43
1, 52679, Note_on_c, 9, 42, 0
1, 52680, Note_on_c, 9, 36, 94
1, 52799, Note_on_c, 9, 36, 0
1, 52815, Note_on_c, 9, 42, 68
1, 52815, Note_on_c, 9, 36, 102
1, 52859, Note_on_c, 9, 42, 0
1, 52875, Note_on_c, 9, 42, 41
1, 52919, Note_on_c, 9, 42, 0
1, 53039, Note_on_c, 9, 36, 0
1, 53055, Note_on_c, 9, 42, 64
1, 53099, Note_on_c, 9, 42, 0
1, 53115, Note_on_c, 9, 42, 41
1, 53159, Note_on_c, 9, 42, 0
1, 53175, Note_on_c, 9, 54, 100
1, 53219, Note_on_c, 9, 54, 0
1, 53295, Note_on_c, 9, 38, 99
1, 53295, Note_on_c, 9, 42, 75
1, 53339, Note_on_c, 9, 38, 0
1, 53339, Note_on_c, 9, 42, 0
1, 53355, Note_on_c, 9, 42, 44
1, 53399, Note_on_c, 9, 42, 0
1, 53520, Note_on_c, 9, 36, 91
1, 53535, Note_on_c, 9, 42, 59
1, 53579, Note_on_c, 9, 42, 0
1, 53595, Note_on_c, 9, 42, 40
1, 53639, Note_on_c, 9, 42, 0
1, 53759, Note_on_c, 9, 36, 0
1, 53775, Note_on_c, 9, 42, 69
1, 53775, Note_on_c, 9, 36, 102
1, 53819, Note_on_c, 9, 42, 0
1, 53835, Note_on_c, 9, 42, 42
1, 53879, Note_on_c, 9, 42, 0
1, 53999, Note_on_c, 9, 36, 0
1, 54015, Note_on_c, 9, 42, 68
1, 54059, Note_on_c, 9, 42, 0
1, 54075, Note_on_c, 9, 42, 41
1, 54119, Note_on_c, 9, 42, 0
1, 54135, Note_on_c, 9, 54, 96
1, 54179, Note_on_c, 9, 54, 0
1, 54255, Note_on_c, 9, 38, 103
1, 54255, Note_on_c, 9, 42, 71
1, 54299, Note_on_c, 9, 38, 0
1, 54299, Note_on_c, 9, 42, 0
1, 54315, Note_on_c, 9, 42, 43
1, 54359, Note_on_c, 9, 42, 0
1, 54495, Note_on_c, 9, 42, 60
1, 54539, Note_on_c, 9, 42, 0
1, 54555, Note_on_c, 9, 42, 40
1, 54599, Note_on_c, 9, 42, 0
1, 54600, Note_on_c, 9, 36, 92
1, 54719, Note_on_c, 9, 36, 0
1, 54720, Note_on_c, 9, 36, 102
1, 54735, Note_on_c, 9, 42, 67
1, 54779, Note_on_c, 9, 42, 0
1, 54795, Note_on_c, 9, 42, 41
1, 54839, Note_on_c, 9, 42, 0
1, 54959, Note_on_c, 9, 36, 0
1, 54975, Note_on_c, 9, 42, 57
1, 54975, Note_on_c, 9, 36, 82
1, 55019, Note_on_c, 9, 42, 0
1, 55035, Note_on_c, 9, 42, 40
1, 55079, Note_on_c, 9, 42, 0
1, 55095, Note_on_c, 9, 54, 103
1, 55139, Note_on_c, 9, 54, 0
1, 55199, Note_on_c, 9, 36, 0
1, 55215, Note_on_c, 9, 38, 103
1, 55215, Note_on_c, 9, 42, 63
1, 55259, Note_on_c, 9, 38, 0
1, 55259, Note_on_c, 9, 42, 0
1, 55275, Note_on_c, 9, 42, 45
1, 55319, Note_on_c, 9, 42, 0
1, 55455, Note_on_c, 9, 42, 64
1, 55455, Note_on_c, 9, 36, 90
1, 55499, Note_on_c, 9, 42, 0
1, 55515, Note_on_c, 9, 42, 41
1, 55559, Note_on_c, 9, 42, 0
1, 55679, Note_on_c, 9, 36, 0
1, 55680, Note_on_c, 9, 36, 101
1, 55695, Note_on_c, 9, 42, 67
1, 55739, Note_on_c, 9, 42, 0
1, 55755, Note_on_c, 9, 42, 41
1, 55799, Note_on_c, 9, 42, 0
1, 55935, Note_on_c, 9, 42, 61
1, 55979, Note_on_c, 9, 42, 0
1, 55995, Note_on_c, 9, 42, 40
1, 56039, Note_on_c, 9, 42, 0
1, 56055, Note_on_c, 9, 54, 98
1, 56099, Note_on_c, 9, 54, 0
1, 56159, Note_on_c, 9, 36, 0
1, 56175, Note_on_c, 9, 38, 102
1, 56175, Note_on_c, 9, 42, 72
1, 56219, Note_on_c, 9, 38, 0
1, 56219, Note_on_c, 9, 42, 0
1, 56235, Note_on_c, 9, 42, 43
1, 56279, Note_on_c, 9, 42, 0
1, 56415, Note_on_c, 9, 42, 69
1, 56459, Note_on_c, 9, 42, 0
1, 56475, Note_on_c, 9, 42, 42
1, 56519, Note_on_c, 9, 42, 0
1, 56535, Note_on_c, 9, 36, 91
1, 56579, Note_on_c, 9, 36, 0
1, 56640, Note_on_c, 9, 36, 99
1, 56655, Note_on_c, 9, 42, 66
1, 56699, Note_on_c, 9, 42, 0
1, 56715, Note_on_c, 9, 42, 41
1, 56759, Note_on_c, 9, 42, 0
1, 56895, Note_on_c, 9, 42, 64
1, 56939, Note_on_c, 9, 42, 0
1, 56955, Note_on_c, 9, 42, 41
1, 56999, Note_on_c, 9, 42, 0
1, 57015, Note_on_c, 9, 54, 99
1, 57059, Note_on_c, 9, 54, 0
1, 57119, Note_on_c, 9, 36, 0
1, 57135, Note_on_c, 9, 38, 105
1, 57135, Note_on_c, 9, 42, 75
1, 57179, Note_on_c, 9, 38, 0
1, 57179, Note_on_c, 9, 42, 0
1, 57195, Note_on_c, 9, 42, 43
1, 57239, Note_on_c, 9, 42, 0
1, 57360, Note_on_c, 9, 36, 92
1, 57375, Note_on_c, 9, 42, 64
1, 57419, Note_on_c, 9, 42, 0
1, 57435, Note_on_c, 9, 42, 41
1, 57479, Note_on_c, 9, 42, 0
1, 57599, Note_on_c, 9, 36, 0
1, 57615, Note_on_c, 9, 42, 68
1, 57615, Note_on_c, 9, 36, 97
1, 57659, Note_on_c, 9, 42, 0
1, 57675, Note_on_c, 9, 42, 41
1, 57719, Note_on_c, 9, 42, 0
1, 57839, Note_on_c, 9, 36, 0
1, 57855, Note_on_c, 9, 42, 64
1, 57899, Note_on_c, 9, 42, 0
1, 57915, Note_on_c, 9, 42, 41
1, 57959, Note_on_c, 9, 42, 0
1, 57975, Note_on_c, 9, 54, 99
1, 58019, Note_on_c, 9, 54, 0
1, 58095, Note_on_c, 9, 38, 103
1, 58095, Note_on_c, 9, 42, 75
1, 58139, Note_on_c, 9, 38, 0
1, 58139, Note_on_c, 9, 42, 0
1, 58155, Note_on_c, 9, 42, 43
1, 58199, Note_on_c, 9, 42, 0
1, 58335, Note_on_c, 9, 42, 70
1, 58379, Note_on_c, 9, 42, 0
1, 58395, Note_on_c, 9, 42, 43
1, 58439, Note_on_c, 9, 42, 0
1, 58440, Note_on_c, 9, 36, 94
1, 58559, Note_on_c, 9, 36, 0
1, 58575, Note_on_c, 9, 42, 68
1, 58575, Note_on_c, 9, 36, 102
1, 58619, Note_on_c, 9, 42, 0
1, 58635, Note_on_c, 9, 42, 41
1, 58679, Note_on_c, 9, 42, 0
1, 58799, Note_on_c, 9, 36, 0
1, 58815, Note_on_c, 9, 42, 64
1, 58859, Note_on_c, 9, 42, 0
1, 58875, Note_on_c, 9, 42, 41
1, 58919, Note_on_c, 9, 42, 0
1, 58935, Note_on_c, 9, 54, 100
1, 58979, Note_on_c, 9, 54, 0
1, 59055, Note_on_c, 9, 38, 99
1, 59055, Note_on_c, 9, 42, 75
1, 59099, Note_on_c, 9, 38, 0
1, 59099, Note_on_c, 9, 42, 0
1, 59115, Note_on_c, 9, 42, 44
1, 59159, Note_on_c, 9, 42, 0
1, 59280, Note_on_c, 9, 36, 91
1, 59295, Note_on_c, 9, 42, 59
1, 59339, Note_on_c, 9, 42, 0
1, 59355, Note_on_c, 9, 42, 40
1, 59399, Note_on_c, 9, 42, 0
1, 59519, Note_on_c, 9, 36, 0
1, 59535, Note_on_c, 9, 42, 69
1, 59535, Note_on_c, 9, 36, 102
1, 59579, Note_on_c, 9, 42, 0
1, 59595, Note_on_c, 9, 42, 42
1, 59639, Note_on_c, 9, 42, 0
1, 59759, Note_on_c, 9, 36, 0
1, 59775, Note_on_c, 9, 42, 68
1, 59819, Note_on_c, 9, 42, 0
1, 59835, Note_on_c, 9, 42, 41
1, 59879, Note_on_c, 9, 42, 0
1, 59895, Note_on_c, 9, 54, 96
1, 59939, Note_on_c, 9, 54, 0
1, 60015, Note_on_c, 9, 38, 103
1, 60015, Note_on_c, 9, 42, 71
1, 60059, Note_on_c, 9, 38, 0
1, 60059, Note_on_c, 9, 42, 0
1, 60075, Note_on_c, 9, 42, 43
1, 60119, Note_on_c, 9, 42, 0
1, 60255, Note_on_c, 9, 42, 60
1, 60299, Note_on_c, 9, 42, 0
1, 60315, Note_on_c, 9, 42, 40
1, 60359, Note_on_c, 9, 42, 0
1, 60360, Note_on_c, 9, 36, 92
1, 60479, Note_on_c, 9, 36, 0
1, 60480, Note_on_c, 9, 36, 102
1, 60495, Note_on_c, 9, 42, 67
1, 60539, Note_on_c, 9, 42, 0
1, 60555, Note_on_c, 9, 42, 41
1, 60599, Note_on_c, 9, 42, 0
1, 60719, Note_on_c, 9, 36, 0
1, 60735, Note_on_c, 9, 42, 57
1, 60735, Note_on_c, 9, 36, 82
1, 60779, Note_on_c, 9, 42, 0
1, 60795, Note_on_c, 9, 42, 40
1, 60839, Note_on_c, 9, 42, 0
1, 60855, Note_on_c, 9, 54, 103
1, 60899, Note_on_c, 9, 54, 0
1, 60959, Note_on_c, 9, 36, 0
1, 60975, Note_on_c, 9, 38, 103
1, 60975, Note_on_c, 9, 42, 63
1, 61019, Note_on_c, 9, 38, 0
1, 61019, Note_on_c, 9, 42, 0
1, 61035, Note_on_c, 9, 42, 45
1, 61079, Note_on_c, 9, 42, 0
1, 61215, Note_on_c, 9, 42, 64
1, 61215, Note_on_c, 9, 36, 90
1, 61259, Note_on_c, 9, 42, 0
1, 61275, Note_on_c, 9, 42, 41
1, 61319, Note_on_c, 9, 42, 0
1, 61439, Note_on_c, 9, 36, 0
1, 61440, Note_on_c, 9, 36, 101
1, 61455, Note_on_c, 9, 42, 67
1, 61499, Note_on_c, 9, 42, 0
1, 61515, Note_on_c, 9, 42, 41
1, 61559, Note_on_c, 9, 42, 0
1, 61695, Note_on_c, 9, 42, 61
1, 61739, Note_on_c, 9, 42, 0
1, 61755, Note_on_c, 9, 42, 40
1, 61799, Note_on_c, 9, 42, 0
1, 61815, Note_on_c, 9, 54, 98
1, 61859, Note_on_c, 9, 54, 0
1, 61919, Note_on_c, 9, 36, 0
1, 61935, Note_on_c, 9, 38, 102
1, 61935, Note_on_c, 9, 42, 72
1, 61979, Note_on_c, 9, 38, 0
1, 61979, Note_on_c, 9, 42, 0
1, 61995, Note_on_c, 9, 42, 43
1, 62039, Note_on_c, 9, 42, 0
1, 62175, Note_on_c, 9, 42, 69
1, 62219, Note_on_c, 9, 42, 0
1, 62235, Note_on_c, 9, 42, 42
1, 62279, Note_on_c, 9, 42, 0
1, 62295, Note_on_c, 9, 36, 91
1, 62339, Note_on_c, 9, 36, 0
1, 62400, Note_on_c, 9, 36, 99
1, 62415, Note_on_c, 9, 42, 66
1, 62459, Note_on_c, 9, 42, 0
1, 62475, Note_on_c, 9, 42, 41
1, 62519, Note_on_c, 9, 42, 0
1, 62655, Note_on_c, 9, 42, 64
1, 62699, Note_on_c, 9, 42, 0
1, 62715, Note_on_c, 9, 42, 41
1, 62759, Note_on_c, 9, 42, 0
1, 62775, Note_on_c, 9, 54, 99
1, 62819, Note_on_c, 9, 54, 0
1, 62879, Note_on_c, 9, 36, 0
1, 62895, Note_on_c, 9, 38, 105
1, 62895, Note_on_c, 9, 42, 75
1, 62939, Note_on_c, 9, 38, 0
1, 62939, Note_on_c, 9, 42, 0
1, 62955, Note_on_c, 9, 42, 43
1, 62999, Note_on_c, 9, 42, 0
1, 63120, Note_on_c, 9, 36, 92
1, 63135, Note_on_c, 9, 42, 64
1, 63179, Note_on_c, 9, 42, 0
1, 63195, Note_on_c, 9, 42, 41
1, 63239, Note_on_c, 9, 42, 0
1, 63359, Note_on_c, 9, 36, 0
1, 63375, Note_on_c, 9, 42, 68
1, 63375, Note_on_c, 9, 36, 97
1, 63419, Note_on_c, 9, 42, 0
1, 63435, Note_on_c, 9, 42, 41
1, 63479, Note_on_c, 9, 42, 0
1, 63599, Note_on_c, 9, 36, 0
1, 63615, Note_on_c, 9, 42, 64
1, 63659, Note_on_c, 9, 42, 0
1, 63675, Note_on_c, 9, 42, 41
1, 63719, Note_on_c, 9, 42, 0
1, 63735, Note_on_c, 9, 54, 99
1, 63779, Note_on_c, 9, 54, 0
1, 63855, Note_on_c, 9, 38, 103
1, 63855, Note_on_c, 9, 42, 75
1, 63899, Note_on_c, 9, 38, 0
1, 63899, Note_on_c, 9, 42, 0
1, 63915, Note_on_c, 9, 42, 43
1, 63959, Note_on_c, 9, 42, 0
1, 64095, Note_on_c, 9, 42, 70
1, 64139, Note_on_c, 9, 42, 0
1, 64155, Note_on_c, 9, 42, 43
1, 64199, Note_on_c, 9, 42, 0
1, 64200, Note_on_c, 9, 36, 94
1, 64319, Note_on_c, 9, 36, 0
1, 64335, Note_on_c, 9, 42, 68
1, 64335, Note_on_c, 9, 36, 102
1, 64379, Note_on_c, 9, 42, 0
1, 64395, Note_on_c, 9, 42, 41
1, 64439, Note_on_c, 9, 42, 0
1, 64559, Note_on_c, 9, 36, 0
1, 64575, Note_on_c, 9, 42, 64
1, 64619, Note_on_c, 9, 42, 0
1, 64635, Note_on_c, 9, 42, 41
1, 64679, Note_on_c, 9, 42, 0
1, 64695, Note_on_c, 9, 54, 100
1, 64739, Note_on_c, 9, 54, 0
1, 64815, Note_on_c, 9, 38, 99
1, 64815, Note_on_c, 9, 42, 75
1, 64859, Note_on_c, 9, 38, 0
1, 64859, Note_on_c, 9, 42, 0
1, 64875, Note_on_c, 9, 42, 44
1, 64919, Note_on_c, 9, 42, 0
1, 65040, Note_on_c, 9, 36, 91
1, 65055, Note_on_c, 9, 42, 59
1, 65099, Note_on_c, 9, 42, 0
1, 65115, Note_on_c, 9, 42, 40
1, 65159, Note_on_c, 9, 42, 0
1, 65279, Note_on_c, 9, 36, 0
1, 65295, Note_on_c, 9, 42, 69
1, 65295, Note_on_c, 9, 36, 102
1, 65339, Note_on_c, 9, 42, 0
1, 65355, Note_on_c, 9, 42, 42
1, 65399, Note_on_c, 9, 42, 0
1, 65519, Note_on_c, 9, 36, 0
1, 65535, Note_on_c, 9, 42, 68
1, 65579, Note_on_c, 9, 42, 0
1, 65595, Note_on_c, 9, 42, 41
1, 65639, Note_on_c, 9, 42, 0
1, 65655, Note_on_c, 9, 54, 96
1, 65699, Note_on_c, 9, 54, 0
1, 65775, Note_on_c, 9, 38, 103
1, 65775, Note_on_c, 9, 42, 71
1, 65819, Note_on_c, 9, 38, 0
1, 65819, Note_on_c, 9, 42, 0
1, 65835, Note_on_c, 9, 42, 43
1, 65879, Note_on_c, 9, 42, 0
1, 66015, Note_on_c, 9, 42, 60
1, 66059, Note_on_c, 9, 42, 0
1, 66075, Note_on_c, 9, 42, 40
1, 66119, Note_on_c, 9, 42, 0
1, 66120, Note_on_c, 9, 36, 92
1, 66239, Note_on_c, 9, 36, 0
1, 66240, Note_on_c, 9, 36, 102
1, 66255, Note_on_c, 9, 42, 67
1, 66299, Note_on_c, 9, 42, 0
1, 66315, Note_on_c, 9, 42, 41
1, 66359, Note_on_c, 9, 42, 0
1, 66479, Note_on_c, 9, 36, 0
1, 66495, Note_on_c, 9, 42, 57
1, 66495, Note_on_c, 9, 36, 82
1, 66539, Note_on_c, 9, 42, 0
1, 66555, Note_on_c, 9, 42, 40
1, 66599, Note_on_c, 9, 42, 0
1, 66615, Note_on_c, 9, 54, 112
1, 66659, Note_on_c, 9, 54, 0
1, 66719, Note_on_c, 9, 36, 0
1, 66735, Note_on_c, 9, 38, 96
1, 66855, Note_on_c, 9, 36, 87
1, 66899, Note_on_c, 9, 36, 0
1, 66959, Note_on_c, 9, 38, 0
1, 66975, Note_on_c, 9, 41, 109
1, 66975, Note_on_c, 9, 44, 93
1, 67019, Note_on_c, 9, 41, 0
1, 67035, Note_on_c, 9, 42, 40
1, 67079, Note_on_c, 9, 42, 0
1, 67199, Note_on_c, 9, 44, 0
1, 67200, Note_on_c, 9, 36, 101
1, 67215, Note_on_c, 9, 42, 67
1, 67259, Note_on_c, 9, 42, 0
1, 67275, Note_on_c, 9, 42, 41
1, 67319, Note_on_c, 9, 42, 0
1, 67455, Note_on_c, 9, 42, 61
1, 67499, Note_on_c, 9, 42, 0
1, 67515, Note_on_c, 9, 42, 40
1, 67559, Note_on_c, 9, 42, 0
1, 67575, Note_on_c, 9, 54, 98
1, 67619, Note_on_c, 9, 54, 0
1, 67679, Note_on_c, 9, 36, 0
1, 67695, Note_on_c, 9, 38, 102
1, 67695, Note_on_c, 9, 42, 72
1, 67739, Note_on_c, 9, 38, 0
1, 67739, Note_on_c, 9, 42, 0
1, 67755, Note_on_c, 9, 42, 43
1, 67799, Note_on_c, 9, 42, 0
1, 67935, Note_on_c, 9, 42, 69
1, 67979, Note_on_c, 9, 42, 0
1, 67995, Note_on_c, 9, 42, 42
1, 68039, Note_on_c, 9, 42, 0
1, 68055, Note_on_c, 9, 36, 91
1, 68099, Note_on_c, 9, 36, 0
1, 68160, Note_on_c, 9, 36, 99
1, 68175, Note_on_c, 9, 42, 66
1, 68219, Note_on_c, 9, 42, 0
1, 68235, Note_on_c, 9, 42, 41
1, 68279, Note_on_c, 9, 42, 0
1, 68415, Note_on_c, 9, 42, 64
1, 68459, Note_on_c, 9, 42, 0
1, 68475, Note_on_c, 9, 42, 41
1, 68519, Note_on_c, 9, 42, 0
1, 68535, Note_on_c, 9, 54, 99
1, 68579, Note_on_c, 9, 54, 0
1, 68639, Note_on_c, 9, 36, 0
1, 68655, Note_on_c, 9, 38, 105
1, 68655, Note_on_c, 9, 42, 75
1, 68699, Note_on_c, 9, 38, 0
1, 68699, Note_on_c, 9, 42, 0
1, 68715, Note_on_c, 9, 42, 43
1, 68759, Note_on_c, 9, 42, 0
1, 68880, Note_on_c, 9, 36, 92
1, 68895, Note_on_c, 9, 42, 64
1, 68939, Note_on_c, 9, 42, 0
1, 68955, Note_on_c, 9, 42, 41
1, 68999, Note_on_c, 9, 42, 0
1, 69119, Note_on_c, 9, 36, 0
1, 69135, Note_on_c, 9, 42, 68
1, 69135, Note_on_c, 9, 36, 97
1, 69179, Note_on_c, 9, 42, 0
1, 69195, Note_on_c, 9, 42, 41
1, 69239, Note_on_c, 9, 42, 0
1, 69359, Note_on_c, 9, 36, 0
1, 69375, Note_on_c, 9, 42, 64
1, 69419, Note_on_c, 9, 42, 0
1, 69435, Note_on_c, 9, 42, 41
1, 69479, Note_on_c, 9, 42, 0
1, 69495, Note_on_c, 9, 54, 99
1, 69539, Note_on_c, 9, 54, 0
1, 69615, Note_on_c, 9, 38, 103
1, 69615, Note_on_c, 9, 42, 75
1, 69659, Note_on_c, 9, 38, 0
1, 69659, Note_on_c, 9, 42, 0
1, 69675, Note_on_c, 9, 42, 43
1, 69719, Note_on_c, 9, 42, 0
1, 69855, Note_on_c, 9, 42, 70
1, 69899, Note_on_c, 9, 42, 0
1, 69915, Note_on_c, 9, 42, 43
1, 69959, Note_on_c, 9, 42, 0
1, 69960, Note_on_c, 9, 36, 94
1, 70079, Note_on_c, 9, 36, 0
1, 70095, Note_on_c, 9, 42, 68
1, 70095, Note_on_c, 9, 36, 102
1, 70139, Note_on_c, 9, 42, 0
1, 70155, Note_on_c, 9, 42, 41
1, 70199, Note_on_c, 9, 42, 0
1, 70319, Note_on_c, 9, 36, 0
1, 70335, Note_on_c, 9, 42, 64
1, 70379, Note_on_c, 9, 42, 0
1, 70395, Note_on_c, 9, 42, 41
1, 70439, Note_on_c, 9, 42, 0
1, 70455, Note_on_c, 9, 54, 100
1, 70499, Note_on_c, 9, 54, 0
1, 70575, Note_on_c, 9, 38, 99
1, 70575, Note_on_c, 9, 42, 75
1, 70619, Note_on_c, 9, 38, 0
1, 70619, Note_on_c, 9, 42, 0
1, 70635, Note_on_c, 9, 42, 44
1, 70679, Note_on_c, 9, 42, 0
1, 70800, Note_on_c, 9, 36, 91
1, 70815, Note_on_c, 9, 42, 59
1, 70859, Note_on_c, 9, 42, 0
1, 70875, Note_on_c, 9, 42, 40
1, 70919, Note_on_c, 9, 42, 0
1, 71039, Note_on_c, 9, 36, 0
1, 71055, Note_on_c, 9, 42, 69
1, 71055, Note_on_c, 9, 36, 102
1, 71099, Note_on_c, 9, 42, 0
1, 71115, Note_on_c, 9, 42, 42
1, 71159, Note_on_c, 9, 42, 0
1, 71279, Note_on_c, 9, 36, 0
1, 71295, Note_on_c, 9, 42, 68
1, 71339, Note_on_c, 9, 42, 0
1, 71355, Note_on_c, 9, 42, 41
1, 71399, Note_on_c, 9, 42, 0
1, 71415, Note_on_c, 9, 54, 96
1, 71459, Note_on_c, 9, 54, 0
1, 71535, Note_on_c, 9, 38, 103
1, 71535, Note_on_c, 9, 42, 71
1, 71579, Note_on_c, 9, 38, 0
1, 71579, Note_on_c, 9, 42, 0
1, 71595, Note_on_c, 9, 42, 43
1, 71639, Note_on_c, 9, 42, 0
1, 71775, Note_on_c, 9, 42, 60
1, 71819, Note_on_c, 9, 42, 0
1, 71835, Note_on_c, 9, 42, 40
1, 71879, Note_on_c, 9, 42, 0
1, 71880, Note_on_c, 9, 36, 92
1, 71999, Note_on_c, 9, 36, 0
1, 72000, Note_on_c, 9, 36, 102
1, 72015, Note_on_c, 9, 42, 67
1, 72059, Note_on_c, 9, 42, 0
1, 72075, Note_on_c, 9, 42, 41
1, 72119, Note_on_c, 9, 42, 0
1, 72239, Note_on_c, 9, 36, 0
1, 72255, Note_on_c, 9, 42, 57
1, 72255, Note_on_c, 9, 36, 82
1, 72299, Note_on_c, 9, 42, 0
1, 72315, Note_on_c, 9, 42, 40
1, 72359, Note_on_c, 9, 42, 0
1, 72375, Note_on_c, 9, 54, 103
1, 72419, Note_on_c, 9, 54, 0
1, 72479, Note_on_c, 9, 36, 0
1, 72495, Note_on_c, 9, 38, 103
1, 72495, Note_on_c, 9, 42, 63
1, 72539, Note_on_c, 9, 38, 0
1, 72539, Note_on_c, 9, 42, 0
1, 72555, Note_on_c, 9, 42, 45
1, 72599, Note_on_c, 9, 42, 0
1, 72735, Note_on_c, 9, 42, 64
1, 72735, Note_on_c, 9, 36, 90
1, 72779, Note_on_c, 9, 42, 0
1, 72795, Note_on_c, 9, 42, 41
1, 72839, Note_on_c, 9, 42, 0
1, 72959, Note_on_c, 9, 36, 0
1, 72960, Note_on_c, 9, 36, 101
1, 72975, Note_on_c, 9, 42, 67
1, 73019, Note_on_c, 9, 42, 0
1, 73035, Note_on_c, 9, 42, 41
1, 73079, Note_on_c, 9, 42, 0
1, 73215, Note_on_c, 9, 42, 61
1, 73259, Note_on_c, 9, 42, 0
1, 73275, Note_on_c, 9, 42, 40
1, 73319, Note_on_c, 9, 42, 0
1, 73335, Note_on_c, 9, 54, 98
1, 73379, Note_on_c, 9, 54, 0
1, 73439, Note_on_c, 9, 36, 0
1, 73455, Note_on_c, 9, 38, 102
1, 73455, Note_on_c, 9, 42, 72
1, 73499, Note_on_c, 9, 38, 0
1, 73499, Note_on_c, 9, 42, 0
1, 73515, Note_on_c, 9, 42, 43
1, 73559, Note_on_c, 9, 42, 0
1, 73680, Note_on_c, 9, 36, 91
1, 73695, Note_on_c, 9, 42, 69
1, 73739, Note_on_c, 9, 42, 0
1, 73755, Note_on_c, 9, 42, 42
1, 73799, Note_on_c, 9, 36, 0
1, 73799, Note_on_c, 9, 42, 0
1, 73815, Note_on_c, 9, 36, 91
1, 73859, Note_on_c, 9, 36, 0
1, 73920, Note_on_c, 9, 36, 99
1, 73935, Note_on_c, 9, 42, 66
1, 73979, Note_on_c, 9, 42, 0
1, 73995, Note_on_c, 9, 42, 41
1, 74039, Note_on_c, 9, 42, 0
1, 74175, Note_on_c, 9, 42, 64
1, 74219, Note_on_c, 9, 42, 0
1, 74235, Note_on_c, 9, 42, 41
1, 74279, Note_on_c, 9, 42, 0
1, 74295, Note_on_c, 9, 54, 99
1, 74339, Note_on_c, 9, 54, 0
1, 74399, Note_on_c, 9, 36, 0
1, 74415, Note_on_c, 9, 38, 105
1, 74415, Note_on_c, 9, 42, 75
1, 74459, Note_on_c, 9, 38, 0
1, 74459, Note_on_c, 9, 42, 0
1, 74475, Note_on_c, 9, 42, 43
1, 74519, Note_on_c, 9, 42, 0
1, 74640, Note_on_c, 9, 36, 92
1, 74655, Note_on_c, 9, 42, 64
1, 74699, Note_on_c, 9, 42, 0
1, 74715, Note_on_c, 9, 42, 41
1, 74759, Note_on_c, 9, 42, 0
1, 74879, Note_on_c, 9, 36, 0
1, 74895, Note_on_c, 9, 42, 68
1, 74895, Note_on_c, 9, 36, 97
1, 75119, Note_on_c, 9, 42, 0
1, 75119, Note_on_c, 9, 36, 0
1, 75360, Note_on_c, 9, 36, 94
1, 75375, Note_on_c, 9, 38, 70
1, 75599, Note_on_c, 9, 38, 0
1, 75600, Note_on_c, 9, 38, 70
1, 75839, Note_on_c, 9, 36, 0
1, 75839, Note_on_c, 9, 38, 0
1, 75840, Note_on_c, 9, 38, 70
1, 75855, Note_on_c, 9, 36, 102
1, 76079, Note_on_c, 9, 38, 0
1, 76079, Note_on_c, 9, 36, 0
1, 76080, Note_on_c, 9, 38, 70
1, 76319, Note_on_c, 9, 38, 0
1, 76320, Note_on_c, 9, 38, 99
1, 76559, Note_on_c, 9, 38, 0
1, 76560, Note_on_c, 9, 38, 70
1, 76560, Note_on_c, 9, 36, 91
1, 76799, Note_on_c, 9, 38, 0
1, 76799, Note_on_c, 9, 36, 0
1, 76800, Note_on_c, 9, 38, 70
1, 76800, Note_on_c, 9, 36, 92
1, 76814, Note_on_c, 9, 38, 0
1, 76815, Note_on_c, 9, 42, 62
1, 76859, Note_on_c, 9, 42, 0
1, 76875, Note_on_c, 9, 42, 40
1, 76919, Note_on_c, 9, 42, 0
1, 77055, Note_on_c, 9, 48, 113
1, 77279, Note_on_c, 9, 36, 0
1, 77279, Note_on_c, 9, 48, 0
1, 77280, Note_on_c, 9, 38, 99
1, 77280, Note_on_c, 9, 49, 94
1, 77640, Note_on_c, 9, 36, 86
1, 77759, Note_on_c, 9, 38, 0
1, 77759, Note_on_c, 9, 49, 0
1, 77759, Note_on_c, 9, 36, 0
1, 77775, Note_on_c, 9, 45, 108
1, 77775, Note_on_c, 9, 44, 94
1, 77775, Note_on_c, 9, 36, 93
1, 77819, Note_on_c, 9, 45, 0
1, 77820, Note_on_c, 9, 42, 40
1, 77999, Note_on_c, 9, 44, 0
1, 77999, Note_on_c, 9, 36, 0
1, 77999, Note_on_c, 9, 42, 0
1, 78000, Note_on_c, 9, 44, 105
1, 78000, Note_on_c, 9, 36, 100
1, 78060, Note_on_c, 9, 42, 41
1, 78119, Note_on_c, 9, 44, 0
1, 78119, Note_on_c, 9, 36, 0
1, 78120, Note_on_c, 9, 43, 109
1, 78134, Note_on_c, 9, 43, 0
1, 78135, Note_on_c, 9, 36, 89
1, 78179, Note_on_c, 9, 36, 0
1, 78239, Note_on_c, 9, 42, 0
1, 78255, Note_on_c, 9, 38, 96
1, 78479, Note_on_c, 9, 38, 0
1, 78480, Note_on_c, 9, 36, 87
1, 78494, Note_on_c, 9, 36, 0
1, 78495, Note_on_c, 9, 41, 109
1, 78495, Note_on_c, 9, 44, 93
1, 78539, Note_on_c, 9, 41, 0
1, 78540, Note_on_c, 9, 42, 40
1, 78719, Note_on_c, 9, 44, 0
1, 78719, Note_on_c, 9, 42, 0
1, 78720, Note_on_c, 9, 36, 101
1, 79199, Note_on_c, 9, 36, 0
1, 79200, Note_on_c, 9, 36, 91
1, 79215, Note_on_c, 9, 38, 102
1, 79215, Note_on_c, 9, 42, 72
1, 79439, Note_on_c, 9, 36, 0
1, 79439, Note_on_c, 9, 38, 0
1, 79439, Note_on_c, 9, 42, 0
1, 79440, Note_on_c, 9, 38, 102
1, 79440, Note_on_c, 9, 36, 99
1, 79454, Note_on_c, 9, 38, 0
1, 79455, Note_on_c, 9, 42, 69
1, 79679, Note_on_c, 9, 36, 0
1, 79679, Note_on_c, 9, 42, 0
1, 79680, Note_on_c, 9, 38, 102
1, 79680, Note_on_c, 9, 36, 99
1, 79694, Note_on_c, 9, 38, 0
1, 79695, Note_on_c, 9, 42, 66
1, 79919, Note_on_c, 9, 36, 0
1, 79919, Note_on_c, 9, 42, 0
1, 79920, Note_on_c, 9, 38, 102
1, 79920, Note_on_c, 9, 36, 99
1, 79934, Note_on_c, 9, 38, 0
1, 79935, Note_on_c, 9, 42, 64
1, 80159, Note_on_c, 9, 36, 0
1, 80159, Note_on_c, 9, 42, 0
1, 80160, Note_on_c, 9, 38, 105
1, 80160, Note_on_c, 9, 36, 99
1, 80174, Note_on_c, 9, 38, 0
1, 80175, Note_on_c, 9, 42, 75
1, 80399, Note_on_c, 9, 36, 0
1, 80399, Note_on_c, 9, 42, 0
1, 80400, Note_on_c, 9, 38, 102
1, 80400, Note_on_c, 9, 36, 92
1, 80414, Note_on_c, 9, 38, 0
1, 80415, Note_on_c, 9, 42, 64
1, 80639, Note_on_c, 9, 36, 0
1, 80639, Note_on_c, 9, 42, 0
1, 80640, Note_on_c, 9, 38, 102
1, 80640, Note_on_c, 9, 36, 97
1, 80654, Note_on_c, 9, 38, 0
1, 80655, Note_on_c, 9, 42, 68
1, 80879, Note_on_c, 9, 42, 0
1, 81119, Note_on_c, 9, 36, 0
1, 81120, Note_on_c, 9, 38, 99
1, 81239, Note_on_c, 9, 38, 0
1, 81240, Note_on_c, 9, 47, 105
1, 81359, Note_on_c, 9, 47, 0
1, 81360, Note_on_c, 9, 44, 102
1, 81420, Note_on_c, 9, 42, 41
1, 81479, Note_on_c, 9, 44, 0
1, 81480, Note_on_c, 9, 36, 86
1, 81599, Note_on_c, 9, 42, 0
1, 81599, Note_on_c, 9, 36, 0
1, 81600, Note_on_c, 9, 45, 108
1, 81600, Note_on_c, 9, 44, 94
1, 81600, Note_on_c, 9, 36, 93
1, 81659, Note_on_c, 9, 45, 0
1, 81660, Note_on_c, 9, 42, 40
1, 81839, Note_on_c, 9, 42, 0
1, 82079, Note_on_c, 9, 44, 0
1, 82079, Note_on_c, 9, 36, 0
1, 82560, Note_on_c, 9, 36, 101
1, 82575, Note_on_c, 9, 42, 67
1, 82799, Note_on_c, 9, 42, 0
1, 82800, Note_on_c, 9, 42, 61
1, 83039, Note_on_c, 9, 36, 0
1, 83039, Note_on_c, 9, 42, 0
1, 83040, Note_on_c, 9, 38, 102
1, 83054, Note_on_c, 9, 38, 0
1, 83055, Note_on_c, 9, 42, 72
1, 83279, Note_on_c, 9, 42, 0
1, 83280, Note_on_c, 9, 42, 69
1, 83280, Note_on_c, 9, 36, 91
1, 83519, Note_on_c, 9, 42, 0
1, 83519, Note_on_c, 9, 36, 0
1, 83520, Note_on_c, 9, 42, 66
1, 83759, Note_on_c, 9, 42, 0
1, 83760, Note_on_c, 9, 42, 64
1, 83999, Note_on_c, 9, 42, 0
1, 84000, Note_on_c, 9, 38, 105
1, 84000, Note_on_c, 9, 42, 75
1, 84239, Note_on_c, 9, 38, 0
1, 84239, Note_on_c, 9, 42, 0
1, 84240, Note_on_c, 9, 42, 64
1, 84240, Note_on_c, 9, 36, 92
1, 84479, Note_on_c, 9, 42, 0
1, 84479, Note_on_c, 9, 36, 0
1, 84480, Note_on_c, 9, 42, 68
1, 84480, Note_on_c, 9, 36, 97
1, 84719, Note_on_c, 9, 42, 0
1, 84720, Note_on_c, 9, 42, 64
1, 84959, Note_on_c, 9, 36, 0
1, 84959, Note_on_c, 9, 42, 0
1, 84960, Note_on_c, 9, 38, 103
1, 84960, Note_on_c, 9, 42, 75
1, 85199, Note_on_c, 9, 38, 0
1, 85199, Note_on_c, 9, 42, 0
1, 85200, Note_on_c, 9, 42, 70
1, 85200, Note_on_c, 9, 36, 94
1, 85439, Note_on_c, 9, 42, 0
1, 85439, Note_on_c, 9, 36, 0
1, 85440, Note_on_c, 9, 42, 68
1, 85679, Note_on_c, 9, 42, 0
1, 85680, Note_on_c, 9, 42, 64
1, 85919, Note_on_c, 9, 42, 0
1, 85920, Note_on_c, 9, 38, 99
1, 85920, Note_on_c, 9, 42, 75
1, 86159, Note_on_c, 9, 38, 0
1, 86159, Note_on_c, 9, 42, 0
1, 86160, Note_on_c, 9, 38, 99
1, 86160, Note_on_c, 9, 36, 91
1, 86174, Note_on_c, 9, 38, 0
1, 86175, Note_on_c, 9, 42, 59
1, 86399, Note_on_c, 9, 36, 0
1, 86399, Note_on_c, 9, 42, 0
1, 86400, Note_on_c, 9, 38, 99
1, 86400, Note_on_c, 9, 49, 99
1, 86400, Note_on_c, 9, 36, 102
1, 86414, Note_on_c, 9, 38, 0
1, 86414, Note_on_c, 9, 49, 0
1, 86415, Note_on_c, 9, 42, 69
1, 86639, Note_on_c, 9, 42, 0
1, 86879, Note_on_c, 9, 36, 0
1, 87120, Note_on_c, 9, 38, 99
1, 87120, Note_on_c, 9, 49, 99
1, 87120, Note_on_c, 9, 44, 102
1, 87359, Note_on_c, 9, 38, 0
1, 87359, Note_on_c, 9, 49, 0
1, 87359, Note_on_c, 9, 44, 0
1, 87360, Note_on_c, 9, 49, 99
1, 87360, Note_on_c, 9, 36, 93
1, 87374, Note_on_c, 9, 49, 0
1, 87375, Note_on_c, 9, 45, 108
1, 87599, Note_on_c, 9, 45, 0
1, 87839, Note_on_c, 9, 36, 0
1, 88080, Note_on_c, 9, 49, 99
1, 88080, Note_on_c, 9, 44, 93
1, 88094, Note_on_c, 9, 49, 0
1, 88095, Note_on_c, 9, 41, 109
1, 88319, Note_on_c, 9, 44, 0
1, 88319, Note_on_c, 9, 41, 0
1, 88320, Note_on_c, 9, 49, 99
1, 88320, Note_on_c, 9, 36, 101
1, 88334, Note_on_c, 9, 49, 0
1, 88335, Note_on_c, 9, 42, 67
1, 88559, Note_on_c, 9, 42, 0
1, 88799, Note_on_c, 9, 36, 0
1, 88800, Note_on_c, 9, 44, 99
1, 89279, Note_on_c, 9, 44, 0
1, 89760, Note_on_c, 9, 34, 99
1, 90239, Note_on_c, 9, 34, 0
1, 90240, Note_on_c, 9, 42, 68
1, 90240, Note_on_c, 9, 36, 97
1, 90299, Note_on_c, 9, 42, 0
1, 90300, Note_on_c, 9, 42, 41
1, 90479, Note_on_c, 9, 42, 0
1, 90480, Note_on_c, 9, 42, 64
1, 90539, Note_on_c, 9, 42, 0
1, 90540, Note_on_c, 9, 42, 41
1, 90599, Note_on_c, 9, 42, 0
1, 90615, Note_on_c, 9, 54, 99
1, 90659, Note_on_c, 9, 54, 0
1, 90719, Note_on_c, 9, 36, 0
1, 90720, Note_on_c, 9, 38, 103
1, 90735, Note_on_c, 9, 42, 75
1, 90779, Note_on_c, 9, 38, 0
1, 90779, Note_on_c, 9, 42, 0
1, 90795, Note_on_c, 9, 42, 43
1, 90839, Note_on_c, 9, 42, 0
1, 90975, Note_on_c, 9, 42, 70
1, 91019, Note_on_c, 9, 42, 0
1, 91035, Note_on_c, 9, 42, 43
1, 91079, Note_on_c, 9, 42, 0
1, 91080, Note_on_c, 9, 36, 94
1, 91199, Note_on_c, 9, 36, 0
1, 91215, Note_on_c, 9, 42, 68
1, 91215, Note_on_c, 9, 36, 102
1, 91259, Note_on_c, 9, 42, 0
1, 91275, Note_on_c, 9, 42, 41
1, 91319, Note_on_c, 9, 42, 0
1, 91439, Note_on_c, 9, 36, 0
1, 91455, Note_on_c, 9, 42, 64
1, 91499, Note_on_c, 9, 42, 0
1, 91515, Note_on_c, 9, 42, 41
1, 91559, Note_on_c, 9, 42, 0
1, 91575, Note_on_c, 9, 54, 100
1, 91619, Note_on_c, 9, 54, 0
1, 91695, Note_on_c, 9, 38, 99
1, 91695, Note_on_c, 9, 42, 75
1, 91739, Note_on_c, 9, 38, 0
1, 91739, Note_on_c, 9, 42, 0
1, 91755, Note_on_c, 9, 42, 44
1, 91799, Note_on_c, 9, 42, 0
1, 91920, Note_on_c, 9, 36, 91
1, 91935, Note_on_c, 9, 42, 59
1, 91979, Note_on_c, 9, 42, 0
1, 91995, Note_on_c, 9, 42, 40
1, 92039, Note_on_c, 9, 42, 0
1, 92159, Note_on_c, 9, 36, 0
1, 92175, Note_on_c, 9, 42, 69
1, 92175, Note_on_c, 9, 36, 102
1, 92219, Note_on_c, 9, 42, 0
1, 92235, Note_on_c, 9, 42, 42
1, 92279, Note_on_c, 9, 42, 0
1, 92399, Note_on_c, 9, 36, 0
1, 92415, Note_on_c, 9, 42, 68
1, 92459, Note_on_c, 9, 42, 0
1, 92475, Note_on_c, 9, 42, 41
1, 92519, Note_on_c, 9, 42, 0
1, 92535, Note_on_c, 9, 54, 96
1, 92579, Note_on_c, 9, 54, 0
1, 92655, Note_on_c, 9, 38, 103
1, 92655, Note_on_c, 9, 42, 71
1, 92699, Note_on_c, 9, 38, 0
1, 92699, Note_on_c, 9, 42, 0
1, 92715, Note_on_c, 9, 42, 43
1, 92759, Note_on_c, 9, 42, 0
1, 92895, Note_on_c, 9, 42, 60
1, 92939, Note_on_c, 9, 42, 0
1, 92955, Note_on_c, 9, 42, 40
1, 92999, Note_on_c, 9, 42, 0
1, 93000, Note_on_c, 9, 36, 92
1, 93119, Note_on_c, 9, 36, 0
1, 93120, Note_on_c, 9, 36, 102
1, 93135, Note_on_c, 9, 42, 67
1, 93179, Note_on_c, 9, 42, 0
1, 93195, Note_on_c, 9, 42, 41
1, 93239, Note_on_c, 9, 42, 0
1, 93359, Note_on_c, 9, 36, 0
1, 93375, Note_on_c, 9, 42, 57
1, 93375, Note_on_c, 9, 36, 82
1, 93419, Note_on_c, 9, 42, 0
1, 93435, Note_on_c, 9, 42, 40
1, 93479, Note_on_c, 9, 42, 0
1, 93495, Note_on_c, 9, 54, 103
1, 93539, Note_on_c, 9, 54, 0
1, 93599, Note_on_c, 9, 36, 0
1, 93615, Note_on_c, 9, 38, 103
1, 93615, Note_on_c, 9, 42, 63
1, 93659, Note_on_c, 9, 38, 0
1, 93659, Note_on_c, 9, 42, 0
1, 93675, Note_on_c, 9, 42, 45
1, 93719, Note_on_c, 9, 42, 0
1, 93855, Note_on_c, 9, 42, 64
1, 93855, Note_on_c, 9, 36, 90
1, 93899, Note_on_c, 9, 42, 0
1, 93915, Note_on_c, 9, 42, 41
1, 93959, Note_on_c, 9, 42, 0
1, 94079, Note_on_c, 9, 36, 0
1, 94080, Note_on_c, 9, 36, 101
1, 94095, Note_on_c, 9, 42, 67
1, 94139, Note_on_c, 9, 42, 0
1, 94155, Note_on_c, 9, 42, 41
1, 94199, Note_on_c, 9, 42, 0
1, 94335, Note_on_c, 9, 42, 61
1, 94379, Note_on_c, 9, 42, 0
1, 94395, Note_on_c, 9, 42, 40
1, 94439, Note_on_c, 9, 42, 0
1, 94455, Note_on_c, 9, 54, 98
1, 94499, Note_on_c, 9, 54, 0
1, 94559, Note_on_c, 9, 36, 0
1, 94575, Note_on_c, 9, 38, 102
1, 94575, Note_on_c, 9, 42, 72
1, 94619, Note_on_c, 9, 38, 0
1, 94619, Note_on_c, 9, 42, 0
1, 94635, Note_on_c, 9, 42, 43
1, 94679, Note_on_c, 9, 42, 0
1, 94815, Note_on_c, 9, 42, 69
1, 94859, Note_on_c, 9, 42, 0
1, 94875, Note_on_c, 9, 42, 42
1, 94919, Note_on_c, 9, 42, 0
1, 94935, Note_on_c, 9, 36, 91
1, 94979, Note_on_c, 9, 36, 0
1, 95040, Note_on_c, 9, 36, 99
1, 95055, Note_on_c, 9, 42, 66
1, 95099, Note_on_c, 9, 42, 0
1, 95115, Note_on_c, 9, 42, 41
1, 95159, Note_on_c, 9, 42, 0
1, 95295, Note_on_c, 9, 42, 64
1, 95339, Note_on_c, 9, 42, 0
1, 95355, Note_on_c, 9, 42, 41
1, 95399, Note_on_c, 9, 42, 0
1, 95415, Note_on_c, 9, 54, 99
1, 95459, Note_on_c, 9, 54, 0
1, 95519, Note_on_c, 9, 36, 0
1, 95535, Note_on_c, 9, 38, 105
1, 95535, Note_on_c, 9, 42, 75
1, 95579, Note_on_c, 9, 38, 0
1, 95579, Note_on_c, 9, 42, 0
1, 95595, Note_on_c, 9, 42, 43
1, 95639, Note_on_c, 9, 42, 0
1, 95760, Note_on_c, 9, 36, 92
1, 95775, Note_on_c, 9, 42, 64
1, 95819, Note_on_c, 9, 42, 0
1, 95835, Note_on_c, 9, 42, 41
1, 95879, Note_on_c, 9, 42, 0
1, 95999, Note_on_c, 9, 36, 0
1, 96015, Note_on_c, 9, 42, 68
1, 96015, Note_on_c, 9, 36, 97
1, 96059, Note_on_c, 9, 42, 0
1, 96075, Note_on_c, 9, 42, 41
1, 96119, Note_on_c, 9, 42, 0
1, 96239, Note_on_c, 9, 36, 0
1, 96255, Note_on_c, 9, 42, 64
1, 96299, Note_on_c, 9, 42, 0
1, 96315, Note_on_c, 9, 42, 41
1, 96359, Note_on_c, 9, 42, 0
1, 96375, Note_on_c, 9, 54, 99
1, 96419, Note_on_c, 9, 54, 0
1, 96495, Note_on_c, 9, 38, 103
1, 96495, Note_on_c, 9, 42, 75
1, 96539, Note_on_c, 9, 38, 0
1, 96539, Note_on_c, 9, 42, 0
1, 96555, Note_on_c, 9, 42, 43
1, 96599, Note_on_c, 9, 42, 0
1, 96735, Note_on_c, 9, 42, 70
1, 96779, Note_on_c, 9, 42, 0
1, 96795, Note_on_c, 9, 42, 43
1, 96839, Note_on_c, 9, 42, 0
1, 96840, Note_on_c, 9, 36, 94
1, 96959, Note_on_c, 9, 36, 0
1, 96975, Note_on_c, 9, 42, 68
1, 96975, Note_on_c, 9, 36, 102
1, 97019, Note_on_c, 9, 42, 0
1, 97035, Note_on_c, 9, 42, 41
1, 97079, Note_on_c, 9, 42, 0
1, 97199, Note_on_c, 9, 36, 0
1, 97215, Note_on_c, 9, 42, 64
1, 97259, Note_on_c, 9, 42, 0
1, 97275, Note_on_c, 9, 42, 41
1, 97319, Note_on_c, 9, 42, 0
1, 97335, Note_on_c, 9, 54, 100
1, 97379, Note_on_c, 9, 54, 0
1, 97455, Note_on_c, 9, 38, 99
1, 97455, Note_on_c, 9, 42, 75
1, 97499, Note_on_c, 9, 38, 0
1, 97499, Note_on_c, 9, 42, 0
1, 97515, Note_on_c, 9, 42, 44
1, 97559, Note_on_c, 9, 42, 0
1, 97680, Note_on_c, 9, 36, 91
1, 97695, Note_on_c, 9, 42, 59
1, 97739, Note_on_c, 9, 42, 0
1, 97755, Note_on_c, 9, 42, 40
1, 97799, Note_on_c, 9, 42, 0
1, 97919, Note_on_c, 9, 36, 0
1, 97935, Note_on_c, 9, 42, 69
1, 97935, Note_on_c, 9, 36, 102
1, 97979, Note_on_c, 9, 42, 0
1, 97995, Note_on_c, 9, 42, 42
1, 98039, Note_on_c, 9, 42, 0
1, 98159, Note_on_c, 9, 36, 0
1, 98175, Note_on_c, 9, 42, 68
1, 98219, Note_on_c, 9, 42, 0
1, 98235, Note_on_c, 9, 42, 41
1, 98279, Note_on_c, 9, 42, 0
1, 98295, Note_on_c, 9, 54, 96
1, 98339, Note_on_c, 9, 54, 0
1, 98415, Note_on_c, 9, 38, 103
1, 98415, Note_on_c, 9, 42, 71
1, 98459, Note_on_c, 9, 38, 0
1, 98459, Note_on_c, 9, 42, 0
1, 98475, Note_on_c, 9, 42, 43
1, 98519, Note_on_c, 9, 42, 0
1, 98655, Note_on_c, 9, 42, 60
1, 98699, Note_on_c, 9, 42, 0
1, 98715, Note_on_c, 9, 42, 40
1, 98759, Note_on_c, 9, 42, 0
1, 98760, Note_on_c, 9, 36, 92
1, 98879, Note_on_c, 9, 36, 0
1, 98880, Note_on_c, 9, 36, 102
1, 98895, Note_on_c, 9, 42, 67
1, 98939, Note_on_c, 9, 42, 0
1, 98955, Note_on_c, 9, 42, 41
1, 98999, Note_on_c, 9, 42, 0
1, 99119, Note_on_c, 9, 36, 0
1, 99135, Note_on_c, 9, 42, 57
1, 99135, Note_on_c, 9, 36, 82
1, 99179, Note_on_c, 9, 42, 0
1, 99195, Note_on_c, 9, 42, 40
1, 99239, Note_on_c, 9, 42, 0
1, 99255, Note_on_c, 9, 54, 103
1, 99299, Note_on_c, 9, 54, 0
1, 99359, Note_on_c, 9, 36, 0
1, 99375, Note_on_c, 9, 38, 103
1, 99375, Note_on_c, 9, 42, 63
1, 99419, Note_on_c, 9, 38, 0
1, 99419, Note_on_c, 9, 42, 0
1, 99435, Note_on_c, 9, 42, 45
1, 99479, Note_on_c, 9, 42, 0
1, 99615, Note_on_c, 9, 42, 64
1, 99615, Note_on_c, 9, 36, 90
1, 99659, Note_on_c, 9, 42, 0
1, 99675, Note_on_c, 9, 42, 41
1, 99719, Note_on_c, 9, 42, 0
1, 99839, Note_on_c, 9, 36, 0
1, 99840, Note_on_c, 9, 36, 101
1, 99855, Note_on_c, 9, 42, 67
1, 99899, Note_on_c, 9, 42, 0
1, 99915, Note_on_c, 9, 42, 41
1, 99959, Note_on_c, 9, 42, 0
1, 100095, Note_on_c, 9, 42, 61
1, 100139, Note_on_c, 9, 42, 0
1, 100155, Note_on_c, 9, 42, 40
1, 100199, Note_on_c, 9, 42, 0
1, 100215, Note_on_c, 9, 54, 98
1, 100259, Note_on_c, 9, 54, 0
1, 100319, Note_on_c, 9, 36, 0
1, 100335, Note_on_c, 9, 38, 102
1, 100335, Note_on_c, 9, 42, 72
1, 100379, Note_on_c, 9, 38, 0
1, 100379, Note_on_c, 9, 42, 0
1, 100395, Note_on_c, 9, 42, 43
1, 100439, Note_on_c, 9, 42, 0
1, 100575, Note_on_c, 9, 42, 69
1, 100619, Note_on_c, 9, 42, 0
1, 100635, Note_on_c, 9, 42, 42
1, 100679, Note_on_c, 9, 42, 0
1, 100695, Note_on_c, 9, 36, 91
1, 100739, Note_on_c, 9, 36, 0
1, 100800, Note_on_c, 9, 36, 99
1, 100815, Note_on_c, 9, 42, 66
1, 100859, Note_on_c, 9, 42, 0
1, 100875, Note_on_c, 9, 42, 41
1, 100919, Note_on_c, 9, 42, 0
1, 101055, Note_on_c, 9, 42, 64
1, 101099, Note_on_c, 9, 42, 0
1, 101115, Note_on_c, 9, 42, 41
1, 101159, Note_on_c, 9, 42, 0
1, 101175, Note_on_c, 9, 54, 99
1, 101219, Note_on_c, 9, 54, 0
1, 101279, Note_on_c, 9, 36, 0
1, 101295, Note_on_c, 9, 38, 105
1, 101295, Note_on_c, 9, 42, 75
1, 101339, Note_on_c, 9, 38, 0
1, 101339, Note_on_c, 9, 42, 0
1, 101355, Note_on_c, 9, 42, 43
1, 101399, Note_on_c, 9, 42, 0
1, 101520, Note_on_c, 9, 36, 92
1, 101535, Note_on_c, 9, 42, 64
1, 101579, Note_on_c, 9, 42, 0
1, 101595, Note_on_c, 9, 42, 41
1, 101639, Note_on_c, 9, 42, 0
1, 101759, Note_on_c, 9, 36, 0
1, 101775, Note_on_c, 9, 42, 68
1, 101775, Note_on_c, 9, 36, 97
1, 101819, Note_on_c, 9, 42, 0
1, 101835, Note_on_c, 9, 42, 41
1, 101879, Note_on_c, 9, 42, 0
1, 101999, Note_on_c, 9, 36, 0
1, 102015, Note_on_c, 9, 42, 64
1, 102059, Note_on_c, 9, 42, 0
1, 102075, Note_on_c, 9, 42, 41
1, 102119, Note_on_c, 9, 42, 0
1, 102135, Note_on_c, 9, 54, 99
1, 102179, Note_on_c, 9, 54, 0
1, 102255, Note_on_c, 9, 38, 103
1, 102255, Note_on_c, 9, 42, 75
1, 102299, Note_on_c, 9, 38, 0
1, 102299, Note_on_c, 9, 42, 0
1, 102315, Note_on_c, 9, 42, 43
1, 102359, Note_on_c, 9, 42, 0
1, 102495, Note_on_c, 9, 42, 70
1, 102539, Note_on_c, 9, 42, 0
1, 102555, Note_on_c, 9, 42, 43
1, 102599, Note_on_c, 9, 42, 0
1, 102600, Note_on_c, 9, 36, 94
1, 102719, Note_on_c, 9, 36, 0
1, 102735, Note_on_c, 9, 42, 68
1, 102735, Note_on_c, 9, 36, 102
1, 102779, Note_on_c, 9, 42, 0
1, 102795, Note_on_c, 9, 42, 41
1, 102839, Note_on_c, 9, 42, 0
1, 102959, Note_on_c, 9, 36, 0
1, 102975, Note_on_c, 9, 42, 64
1, 103019, Note_on_c, 9, 42, 0
1, 103035, Note_on_c, 9, 42, 41
1, 103079, Note_on_c, 9, 42, 0
1, 103095, Note_on_c, 9, 54, 100
1, 103139, Note_on_c, 9, 54, 0
1, 103215, Note_on_c, 9, 38, 99
1, 103215, Note_on_c, 9, 42, 75
1, 103259, Note_on_c, 9, 38, 0
1, 103259, Note_on_c, 9, 42, 0
1, 103275, Note_on_c, 9, 42, 44
1, 103319, Note_on_c, 9, 42, 0
1, 103440, Note_on_c, 9, 36, 91
1, 103455, Note_on_c, 9, 42, 59
1, 103499, Note_on_c, 9, 42, 0
1, 103515, Note_on_c, 9, 42, 40
1, 103559, Note_on_c, 9, 42, 0
1, 103679, Note_on_c, 9, 36, 0
1, 103695, Note_on_c, 9, 42, 69
1, 103695, Note_on_c, 9, 36, 102
1, 103739, Note_on_c, 9, 42, 0
1, 103755, Note_on_c, 9, 42, 42
1, 103799, Note_on_c, 9, 42, 0
1, 103919, Note_on_c, 9, 36, 0
1, 103935, Note_on_c, 9, 42, 68
1, 103979, Note_on_c, 9, 42, 0
1, 103995, Note_on_c, 9, 42, 41
1, 104039, Note_on_c, 9, 42, 0
1, 104055, Note_on_c, 9, 54, 96
1, 104099, Note_on_c, 9, 54, 0
1, 104175, Note_on_c, 9, 38, 103
1, 104175, Note_on_c, 9, 42, 71
1, 104219, Note_on_c, 9, 38, 0
1, 104219, Note_on_c, 9, 42, 0
1, 104235, Note_on_c, 9, 42, 43
1, 104279, Note_on_c, 9, 42, 0
1, 104415, Note_on_c, 9, 42, 60
1, 104459, Note_on_c, 9, 42, 0
1, 104475, Note_on_c, 9, 42, 40
1, 104519, Note_on_c, 9, 42, 0
1, 104520, Note_on_c, 9, 36, 92
1, 104639, Note_on_c, 9, 36, 0
1, 104640, Note_on_c, 9, 36, 102
1, 104655, Note_on_c, 9, 42, 67
1, 104699, Note_on_c, 9, 42, 0
1, 104715, Note_on_c, 9, 42, 41
1, 104759, Note_on_c, 9, 42, 0
1, 104879, Note_on_c, 9, 36, 0
1, 104895, Note_on_c, 9, 42, 57
1, 104895, Note_on_c, 9, 36, 82
1, 104939, Note_on_c, 9, 42, 0
1, 104955, Note_on_c, 9, 42, 40
1, 104999, Note_on_c, 9, 42, 0
1, 105015, Note_on_c, 9, 54, 112
1, 105059, Note_on_c, 9, 54, 0
1, 105119, Note_on_c, 9, 36, 0
1, 105135, Note_on_c, 9, 38, 96
1, 105255, Note_on_c, 9, 36, 87
1, 105299, Note_on_c, 9, 36, 0
1, 105359, Note_on_c, 9, 38, 0
1, 105375, Note_on_c, 9, 41, 109
1, 105375, Note_on_c, 9, 44, 93
1, 105419, Note_on_c, 9, 41, 0
1, 105435, Note_on_c, 9, 42, 40
1, 105479, Note_on_c, 9, 42, 0
1, 105599, Note_on_c, 9, 44, 0
1, 105600, Note_on_c, 9, 36, 101
1, 105615, Note_on_c, 9, 42, 67
1, 105659, Note_on_c, 9, 42, 0
1, 105675, Note_on_c, 9, 42, 41
1, 105719, Note_on_c, 9, 42, 0
1, 105855, Note_on_c, 9, 42, 61
1, 105899, Note_on_c, 9, 42, 0
1, 105915, Note_on_c, 9, 42, 40
1, 105959, Note_on_c, 9, 42, 0
1, 105975, Note_on_c, 9, 54, 98
1, 106019, Note_on_c, 9, 54, 0
1, 106079, Note_on_c, 9, 36, 0
1, 106095, Note_on_c, 9, 38, 102
1, 106095, Note_on_c, 9, 42, 72
1, 106139, Note_on_c, 9, 38, 0
1, 106139, Note_on_c, 9, 42, 0
1, 106155, Note_on_c, 9, 42, 43
1, 106199, Note_on_c, 9, 42, 0
1, 106320, Note_on_c, 9, 36, 91
1, 106335, Note_on_c, 9, 42, 69
1, 106379, Note_on_c, 9, 42, 0
1, 106395, Note_on_c, 9, 42, 42
1, 106439, Note_on_c, 9, 36, 0
1, 106439, Note_on_c, 9, 42, 0
1, 106455, Note_on_c, 9, 36, 91
1, 106499, Note_on_c, 9, 36, 0
1, 106560, Note_on_c, 9, 36, 99
1, 106575, Note_on_c, 9, 42, 66
1, 106619, Note_on_c, 9, 42, 0
1, 106635, Note_on_c, 9, 42, 41
1, 106679, Note_on_c, 9, 42, 0
1, 106815, Note_on_c, 9, 42, 64
1, 106859, Note_on_c, 9, 42, 0
1, 106875, Note_on_c, 9, 42, 41
1, 106919, Note_on_c, 9, 42, 0
1, 106935, Note_on_c, 9, 54, 99
1, 106979, Note_on_c, 9, 54, 0
1, 107039, Note_on_c, 9, 36, 0
1, 107055, Note_on_c, 9, 38, 105
1, 107055, Note_on_c, 9, 42, 75
1, 107099, Note_on_c, 9, 38, 0
1, 107099, Note_on_c, 9, 42, 0
1, 107115, Note_on_c, 9, 42, 43
1, 107159, Note_on_c, 9, 42, 0
1, 107280, Note_on_c, 9, 36, 92
1, 107295, Note_on_c, 9, 42, 64
1, 107339, Note_on_c, 9, 42, 0
1, 107355, Note_on_c, 9, 42, 41
1, 107399, Note_on_c, 9, 42, 0
1, 107519, Note_on_c, 9, 36, 0
1, 107535, Note_on_c, 9, 42, 68
1, 107535, Note_on_c, 9, 36, 97
1, 107579, Note_on_c, 9, 42, 0
1, 107595, Note_on_c, 9, 42, 41
1, 107639, Note_on_c, 9, 42, 0
1, 107759, Note_on_c, 9, 36, 0
1, 107775, Note_on_c, 9, 42, 64
1, 107819, Note_on_c, 9, 42, 0
1, 107835, Note_on_c, 9, 42, 41
1, 107879, Note_on_c, 9, 42, 0
1, 107895, Note_on_c, 9, 54, 99
1, 107939, Note_on_c, 9, 54, 0
1, 108015, Note_on_c, 9, 38, 103
1, 108015, Note_on_c, 9, 42, 75
1, 108059, Note_on_c, 9, 38, 0
1, 108059, Note_on_c, 9, 42, 0
1, 108075, Note_on_c, 9, 42, 43
1, 108119, Note_on_c, 9, 42, 0
1, 108240, Note_on_c, 9, 36, 91
1, 108255, Note_on_c, 9, 42, 70
1, 108299, Note_on_c, 9, 42, 0
1, 108315, Note_on_c, 9, 42, 43
1, 108359, Note_on_c, 9, 36, 0
1, 108359, Note_on_c, 9, 42, 0
1, 108360, Note_on_c, 9, 36, 94
1, 108479, Note_on_c, 9, 36, 0
1, 108495, Note_on_c, 9, 42, 68
1, 108495, Note_on_c, 9, 36, 102
1, 108539, Note_on_c, 9, 42, 0
1, 108555, Note_on_c, 9, 42, 41
1, 108599, Note_on_c, 9, 42, 0
1, 108719, Note_on_c, 9, 36, 0
1, 108735, Note_on_c, 9, 42, 64
1, 108779, Note_on_c, 9, 42, 0
1, 108795, Note_on_c, 9, 42, 41
1, 108839, Note_on_c, 9, 42, 0
1, 108855, Note_on_c, 9, 54, 100
1, 108899, Note_on_c, 9, 54, 0
1, 108975, Note_on_c, 9, 38, 99
1, 108975, Note_on_c, 9, 42, 75
1, 109019, Note_on_c, 9, 38, 0
1, 109019, Note_on_c, 9, 42, 0
1, 109035, Note_on_c, 9, 42, 44
1, 109079, Note_on_c, 9, 42, 0
1, 109200, Note_on_c, 9, 36, 91
1, 109215, Note_on_c, 9, 42, 59
1, 109259, Note_on_c, 9, 42, 0
1, 109275, Note_on_c, 9, 42, 40
1, 109319, Note_on_c, 9, 42, 0
1, 109439, Note_on_c, 9, 36, 0
1, 109455, Note_on_c, 9, 42, 69
1, 109455, Note_on_c, 9, 36, 102
1, 109499, Note_on_c, 9, 42, 0
1, 109515, Note_on_c, 9, 42, 42
1, 109559, Note_on_c, 9, 42, 0
1, 109679, Note_on_c, 9, 36, 0
1, 109695, Note_on_c, 9, 42, 68
1, 109739, Note_on_c, 9, 42, 0
1, 109755, Note_on_c, 9, 42, 41
1, 109799, Note_on_c, 9, 42, 0
1, 109815, Note_on_c, 9, 54, 96
1, 109859, Note_on_c, 9, 54, 0
1, 109935, Note_on_c, 9, 38, 103
1, 109935, Note_on_c, 9, 42, 71
1, 109979, Note_on_c, 9, 38, 0
1, 109979, Note_on_c, 9, 42, 0
1, 109995, Note_on_c, 9, 42, 43
1, 110039, Note_on_c, 9, 42, 0
1, 110160, Note_on_c, 9, 36, 91
1, 110175, Note_on_c, 9, 42, 60
1, 110219, Note_on_c, 9, 42, 0
1, 110235, Note_on_c, 9, 42, 40
1, 110279, Note_on_c, 9, 36, 0
1, 110279, Note_on_c, 9, 42, 0
1, 110280, Note_on_c, 9, 36, 92
1, 110399, Note_on_c, 9, 36, 0
1, 110400, Note_on_c, 9, 36, 102
1, 110415, Note_on_c, 9, 42, 67
1, 110459, Note_on_c, 9, 42, 0
1, 110475, Note_on_c, 9, 42, 41
1, 110519, Note_on_c, 9, 42, 0
1, 110639, Note_on_c, 9, 36, 0
1, 110655, Note_on_c, 9, 42, 57
1, 110655, Note_on_c, 9, 36, 82
1, 110699, Note_on_c, 9, 42, 0
1, 110715, Note_on_c, 9, 42, 40
1, 110759, Note_on_c, 9, 42, 0
1, 110775, Note_on_c, 9, 54, 103
1, 110819, Note_on_c, 9, 54, 0
1, 110879, Note_on_c, 9, 36, 0
1, 110895, Note_on_c, 9, 38, 103
1, 110895, Note_on_c, 9, 42, 63
1, 110939, Note_on_c, 9, 38, 0
1, 110939, Note_on_c, 9, 42, 0
1, 110955, Note_on_c, 9, 42, 45
1, 110999, Note_on_c, 9, 42, 0
1, 111135, Note_on_c, 9, 42, 64
1, 111135, Note_on_c, 9, 36, 90
1, 111179, Note_on_c, 9, 42, 0
1, 111195, Note_on_c, 9, 42, 41
1, 111239, Note_on_c, 9, 42, 0
1, 111359, Note_on_c, 9, 36, 0
1, 111360, Note_on_c, 9, 36, 101
1, 111375, Note_on_c, 9, 42, 67
1, 111419, Note_on_c, 9, 42, 0
1, 111435, Note_on_c, 9, 42, 41
1, 111479, Note_on_c, 9, 42, 0
1, 111615, Note_on_c, 9, 42, 61
1, 111659, Note_on_c, 9, 42, 0
1, 111675, Note_on_c, 9, 42, 40
1, 111719, Note_on_c, 9, 42, 0
1, 111735, Note_on_c, 9, 54, 98
1, 111779, Note_on_c, 9, 54, 0
1, 111839, Note_on_c, 9, 36, 0
1, 111855, Note_on_c, 9, 38, 102
1, 111855, Note_on_c, 9, 42, 72
1, 111899, Note_on_c, 9, 38, 0
1, 111899, Note_on_c, 9, 42, 0
1, 111915, Note_on_c, 9, 42, 43
1, 111959, Note_on_c, 9, 42, 0
1, 112080, Note_on_c, 9, 36, 91
1, 112095, Note_on_c, 9, 42, 69
1, 112139, Note_on_c, 9, 42, 0
1, 112155, Note_on_c, 9, 42, 42
1, 112199, Note_on_c, 9, 36, 0
1, 112199, Note_on_c, 9, 42, 0
1, 112215, Note_on_c, 9, 36, 91
1, 112259, Note_on_c, 9, 36, 0
1, 112320, Note_on_c, 9, 36, 99
1, 112335, Note_on_c, 9, 42, 66
1, 112379, Note_on_c, 9, 42, 0
1, 112395, Note_on_c, 9, 42, 41
1, 112439, Note_on_c, 9, 42, 0
1, 112575, Note_on_c, 9, 42, 64
1, 112619, Note_on_c, 9, 42, 0
1, 112635, Note_on_c, 9, 42, 41
1, 112679, Note_on_c, 9, 42, 0
1, 112695, Note_on_c, 9, 54, 99
1, 112739, Note_on_c, 9, 54, 0
1, 112799, Note_on_c, 9, 36, 0
1, 112815, Note_on_c, 9, 38, 105
1, 112815, Note_on_c, 9, 42, 75
1, 112859, Note_on_c, 9, 38, 0
1, 112859, Note_on_c, 9, 42, 0
1, 112875, Note_on_c, 9, 42, 43
1, 112919, Note_on_c, 9, 42, 0
1, 113040, Note_on_c, 9, 36, 92
1, 113055, Note_on_c, 9, 42, 64
1, 113099, Note_on_c, 9, 42, 0
1, 113115, Note_on_c, 9, 42, 41
1, 113159, Note_on_c, 9, 42, 0
1, 113279, Note_on_c, 9, 36, 0
1, 113295, Note_on_c, 9, 42, 68
1, 113295, Note_on_c, 9, 36, 97
1, 113519, Note_on_c, 9, 42, 0
1, 113519, Note_on_c, 9, 36, 0
1, 113760, Note_on_c, 9, 36, 94
1, 113775, Note_on_c, 9, 38, 70
1, 113999, Note_on_c, 9, 38, 0
1, 114000, Note_on_c, 9, 38, 70
1, 114239, Note_on_c, 9, 36, 0
1, 114239, Note_on_c, 9, 38, 0
1, 114240, Note_on_c, 9, 38, 70
1, 114255, Note_on_c, 9, 36, 102
1, 114479, Note_on_c, 9, 38, 0
1, 114479, Note_on_c, 9, 36, 0
1, 114480, Note_on_c, 9, 38, 70
1, 114719, Note_on_c, 9, 38, 0
1, 114720, Note_on_c, 9, 38, 99
1, 114959, Note_on_c, 9, 38, 0
1, 114960, Note_on_c, 9, 38, 70
1, 114960, Note_on_c, 9, 36, 91
1, 115199, Note_on_c, 9, 38, 0
1, 115199, Note_on_c, 9, 36, 0
1, 115200, Note_on_c, 9, 38, 70
1, 115200, Note_on_c, 9, 36, 92
1, 115214, Note_on_c, 9, 38, 0
1, 115215, Note_on_c, 9, 42, 62
1, 115439, Note_on_c, 9, 36, 0
1, 115439, Note_on_c, 9, 42, 0
1, 115455, Note_on_c, 9, 48, 113
1, 115455, Note_on_c, 9, 44, 96
1, 115499, Note_on_c, 9, 48, 0
1, 115515, Note_on_c, 9, 42, 40
1, 115559, Note_on_c, 9, 42, 0
1, 115679, Note_on_c, 9, 44, 0
1, 115680, Note_on_c, 9, 38, 99
1, 115680, Note_on_c, 9, 49, 94
1, 115799, Note_on_c, 9, 38, 0
1, 115799, Note_on_c, 9, 49, 0
1, 115800, Note_on_c, 9, 47, 105
1, 115919, Note_on_c, 9, 47, 0
1, 115920, Note_on_c, 9, 44, 102
1, 115980, Note_on_c, 9, 42, 41
1, 116039, Note_on_c, 9, 44, 0
1, 116040, Note_on_c, 9, 36, 86
1, 116159, Note_on_c, 9, 42, 0
1, 116159, Note_on_c, 9, 36, 0
1, 116175, Note_on_c, 9, 45, 108
1, 116175, Note_on_c, 9, 44, 94
1, 116175, Note_on_c, 9, 36, 93
1, 116219, Note_on_c, 9, 45, 0
1, 116220, Note_on_c, 9, 42, 40
1, 116399, Note_on_c, 9, 44, 0
1, 116399, Note_on_c, 9, 36, 0
1, 116399, Note_on_c, 9, 42, 0
1, 116400, Note_on_c, 9, 44, 105
1, 116400, Note_on_c, 9, 36, 100
1, 116460, Note_on_c, 9, 42, 41
1, 116519, Note_on_c, 9, 44, 0
1, 116519, Note_on_c, 9, 36, 0
1, 116520, Note_on_c, 9, 43, 109
1, 116534, Note_on_c, 9, 43, 0
1, 116535, Note_on_c, 9, 36, 89
1, 116579, Note_on_c, 9, 36, 0
1, 116639, Note_on_c, 9, 42, 0
1, 116655, Note_on_c, 9, 38, 96
1, 116879, Note_on_c, 9, 38, 0
1, 116880, Note_on_c, 9, 36, 87
1, 116894, Note_on_c, 9, 36, 0
1, 116895, Note_on_c, 9, 41, 109
1, 116895, Note_on_c, 9, 44, 93
1, 116939, Note_on_c, 9, 41, 0
1, 116940, Note_on_c, 9, 42, 40
1, 117119, Note_on_c, 9, 44, 0
1, 117119, Note_on_c, 9, 42, 0
1, 117600, Note_on_c, 9, 36, 91
1, 117615, Note_on_c, 9, 38, 102
1, 117615, Note_on_c, 9, 42, 72
1, 117839, Note_on_c, 9, 36, 0
1, 117839, Note_on_c, 9, 38, 0
1, 117839, Note_on_c, 9, 42, 0
1, 117840, Note_on_c, 9, 38, 102
1, 117840, Note_on_c, 9, 36, 99
1, 117854, Note_on_c, 9, 38, 0
1, 117855, Note_on_c, 9, 42, 69
1, 118079, Note_on_c, 9, 36, 0
1, 118079, Note_on_c, 9, 42, 0
1, 118080, Note_on_c, 9, 38, 102
1, 118080, Note_on_c, 9, 36, 99
1, 118094, Note_on_c, 9, 38, 0
1, 118095, Note_on_c, 9, 42, 66
1, 118319, Note_on_c, 9, 36, 0
1, 118319, Note_on_c, 9, 42, 0
1, 118320, Note_on_c, 9, 38, 102
1, 118320, Note_on_c, 9, 36, 99
1, 118334, Note_on_c, 9, 38, 0
1, 118335, Note_on_c, 9, 42, 64
1, 118559, Note_on_c, 9, 36, 0
1, 118559, Note_on_c, 9, 42, 0
1, 118560, Note_on_c, 9, 38, 105
1, 118560, Note_on_c, 9, 36, 99
1, 118574, Note_on_c, 9, 38, 0
1, 118575, Note_on_c, 9, 42, 75
1, 118799, Note_on_c, 9, 36, 0
1, 118799, Note_on_c, 9, 42, 0
1, 118800, Note_on_c, 9, 38, 102
1, 118800, Note_on_c, 9, 36, 92
1, 118814, Note_on_c, 9, 38, 0
1, 118815, Note_on_c, 9, 42, 64
1, 119039, Note_on_c, 9, 36, 0
1, 119039, Note_on_c, 9, 42, 0
1, 119040, Note_on_c, 9, 38, 102
1, 119040, Note_on_c, 9, 36, 97
1, 119054, Note_on_c, 9, 38, 0
1, 119055, Note_on_c, 9, 42, 68
1, 119279, Note_on_c, 9, 42, 0
1, 119519, Note_on_c, 9, 36, 0
1, 120960, Note_on_c, 9, 36, 101
1, 120975, Note_on_c, 9, 42, 67
1, 121199, Note_on_c, 9, 42, 0
1, 121200, Note_on_c, 9, 42, 61
1, 121439, Note_on_c, 9, 36, 0
1, 121439, Note_on_c, 9, 42, 0
1, 121440, Note_on_c, 9, 38, 102
1, 121454, Note_on_c, 9, 38, 0
1, 121455, Note_on_c, 9, 42, 72
1, 121679, Note_on_c, 9, 42, 0
1, 121680, Note_on_c, 9, 42, 69
1, 121680, Note_on_c, 9, 36, 91
1, 121919, Note_on_c, 9, 42, 0
1, 121919, Note_on_c, 9, 36, 0
1, 121920, Note_on_c, 9, 42, 66
1, 122159, Note_on_c, 9, 42, 0
1, 122160, Note_on_c, 9, 42, 64
1, 122399, Note_on_c, 9, 42, 0
1, 122400, Note_on_c, 9, 38, 105
1, 122400, Note_on_c, 9, 42, 75
1, 122639, Note_on_c, 9, 38, 0
1, 122639, Note_on_c, 9, 42, 0
1, 122640, Note_on_c, 9, 42, 64
1, 122640, Note_on_c, 9, 36, 92
1, 122879, Note_on_c, 9, 42, 0
1, 122879, Note_on_c, 9, 36, 0
1, 122880, Note_on_c, 9, 42, 68
1, 122880, Note_on_c, 9, 36, 97
1, 123119, Note_on_c, 9, 42, 0
1, 123120, Note_on_c, 9, 42, 64
1, 123359, Note_on_c, 9, 36, 0
1, 123359, Note_on_c, 9, 42, 0
1, 123360, Note_on_c, 9, 38, 103
1, 123360, Note_on_c, 9, 42, 75
1, 123599, Note_on_c, 9, 38, 0
1, 123599, Note_on_c, 9, 42, 0
1, 123600, Note_on_c, 9, 42, 70
1, 123600, Note_on_c, 9, 36, 94
1, 123839, Note_on_c, 9, 42, 0
1, 123839, Note_on_c, 9, 36, 0
1, 123840, Note_on_c, 9, 42, 68
1, 124079, Note_on_c, 9, 42, 0
1, 124080, Note_on_c, 9, 42, 64
1, 124319, Note_on_c, 9, 42, 0
1, 124320, Note_on_c, 9, 38, 99
1, 124320, Note_on_c, 9, 42, 75
1, 124559, Note_on_c, 9, 38, 0
1, 124559, Note_on_c, 9, 42, 0
1, 124560, Note_on_c, 9, 38, 99
1, 124560, Note_on_c, 9, 36, 91
1, 124574, Note_on_c, 9, 38, 0
1, 124575, Note_on_c, 9, 42, 59
1, 124799, Note_on_c, 9, 36, 0
1, 124799, Note_on_c, 9, 42, 0
1, 124800, Note_on_c, 9, 38, 99
1, 124800, Note_on_c, 9, 49, 99
1, 124800, Note_on_c, 9, 36, 102
1, 124814, Note_on_c, 9, 38, 0
1, 124814, Note_on_c, 9, 49, 0
1, 124815, Note_on_c, 9, 42, 69
1, 125039, Note_on_c, 9, 42, 0
1, 125279, Note_on_c, 9, 36, 0
1, 125520, Note_on_c, 9, 38, 99
1, 125520, Note_on_c, 9, 49, 99
1, 125520, Note_on_c, 9, 44, 102
1, 125759, Note_on_c, 9, 38, 0
1, 125759, Note_on_c, 9, 49, 0
1, 125759, Note_on_c, 9, 44, 0
1, 125760, Note_on_c, 9, 49, 99
1, 125760, Note_on_c, 9, 36, 93
1, 125774, Note_on_c, 9, 49, 0
1, 125775, Note_on_c, 9, 45, 108
1, 125999, Note_on_c, 9, 45, 0
1, 126239, Note_on_c, 9, 36, 0
1, 126480, Note_on_c, 9, 49, 99
1, 126480, Note_on_c, 9, 44, 93
1, 126494, Note_on_c, 9, 49, 0
1, 126495, Note_on_c, 9, 41, 109
1, 126719, Note_on_c, 9, 44, 0
1, 126719, Note_on_c, 9, 41, 0
1, 126720, Note_on_c, 9, 49, 99
1, 126720, Note_on_c, 9, 36, 101
1, 126734, Note_on_c, 9, 49, 0
1, 126735, Note_on_c, 9, 42, 67
1, 126959, Note_on_c, 9, 42, 0
1, 127199, Note_on_c, 9, 36, 0
1, 127200, Note_on_c, 9, 39, 100
1, 127679, Note_on_c, 9, 39, 0
1, 128160, Note_on_c, 9, 39, 100
1, 128639, Note_on_c, 9, 39, 0
1, 128655, Note_on_c, 9, 42, 68
1, 128655, Note_on_c, 9, 36, 97
1, 128699, Note_on_c, 9, 42, 0
1, 128715, Note_on_c, 9, 42, 41
1, 128759, Note_on_c, 9, 42, 0
1, 128879, Note_on_c, 9, 36, 0
1, 128895, Note_on_c, 9, 42, 64
1, 128939, Note_on_c, 9, 42, 0
1, 128955, Note_on_c, 9, 42, 41
1, 128999, Note_on_c, 9, 42, 0
1, 129015, Note_on_c, 9, 54, 99
1, 129059, Note_on_c, 9, 54, 0
1, 129120, Note_on_c, 9, 38, 103
1, 129135, Note_on_c, 9, 39, 100
1, 129135, Note_on_c, 9, 42, 75
1, 129179, Note_on_c, 9, 38, 0
1, 129179, Note_on_c, 9, 39, 0
1, 129179, Note_on_c, 9, 42, 0
1, 129195, Note_on_c, 9, 42, 43
1, 129239, Note_on_c, 9, 42, 0
1, 129375, Note_on_c, 9, 42, 70
1, 129419, Note_on_c, 9, 42, 0
1, 129435, Note_on_c, 9, 42, 43
1, 129479, Note_on_c, 9, 42, 0
1, 129480, Note_on_c, 9, 36, 94
1, 129599, Note_on_c, 9, 36, 0
1, 129615, Note_on_c, 9, 42, 68
1, 129615, Note_on_c, 9, 36, 102
1, 129659, Note_on_c, 9, 42, 0
1, 129675, Note_on_c, 9, 42, 41
1, 129719, Note_on_c, 9, 42, 0
1, 129839, Note_on_c, 9, 36, 0
1, 129855, Note_on_c, 9, 42, 64
1, 129899, Note_on_c, 9, 42, 0
1, 129915, Note_on_c, 9, 42, 41
1, 129959, Note_on_c, 9, 42, 0
1, 129975, Note_on_c, 9, 54, 100
1, 130019, Note_on_c, 9, 54, 0
1, 130080, Note_on_c, 9, 39, 100
1, 130094, Note_on_c, 9, 39, 0
1, 130095, Note_on_c, 9, 38, 99
1, 130095, Note_on_c, 9, 42, 75
1, 130139, Note_on_c, 9, 38, 0
1, 130139, Note_on_c, 9, 42, 0
1, 130155, Note_on_c, 9, 42, 44
1, 130199, Note_on_c, 9, 42, 0
1, 130320, Note_on_c, 9, 36, 91
1, 130335, Note_on_c, 9, 42, 59
1, 130379, Note_on_c, 9, 42, 0
1, 130395, Note_on_c, 9, 42, 40
1, 130439, Note_on_c, 9, 42, 0
1, 130559, Note_on_c, 9, 36, 0
1, 130575, Note_on_c, 9, 42, 69
1, 130575, Note_on_c, 9, 36, 102
1, 130619, Note_on_c, 9, 42, 0
1, 130635, Note_on_c, 9, 42, 42
1, 130679, Note_on_c, 9, 42, 0
1, 130799, Note_on_c, 9, 36, 0
1, 130815, Note_on_c, 9, 42, 68
1, 130859, Note_on_c, 9, 42, 0
1, 130875, Note_on_c, 9, 42, 41
1, 130919, Note_on_c, 9, 42, 0
1, 130935, Note_on_c, 9, 54, 96
1, 130979, Note_on_c, 9, 54, 0
1, 131040, Note_on_c, 9, 38, 103
1, 131040, Note_on_c, 9, 42, 71
1, 131055, Note_on_c, 9, 39, 100
1, 131099, Note_on_c, 9, 38, 0
1, 131099, Note_on_c, 9, 42, 0
1, 131099, Note_on_c, 9, 39, 0
1, 131115, Note_on_c, 9, 42, 43
1, 131159, Note_on_c, 9, 42, 0
1, 131295, Note_on_c, 9, 42, 60
1, 131339, Note_on_c, 9, 42, 0
1, 131355, Note_on_c, 9, 42, 40
1, 131399, Note_on_c, 9, 42, 0
1, 131400, Note_on_c, 9, 36, 92
1, 131519, Note_on_c, 9, 36, 0
1, 131520, Note_on_c, 9, 36, 102
1, 131535, Note_on_c, 9, 42, 67
1, 131579, Note_on_c, 9, 42, 0
1, 131595, Note_on_c, 9, 42, 41
1, 131639, Note_on_c, 9, 42, 0
1, 131759, Note_on_c, 9, 36, 0
1, 131775, Note_on_c, 9, 42, 57
1, 131775, Note_on_c, 9, 36, 82
1, 131819, Note_on_c, 9, 42, 0
1, 131835, Note_on_c, 9, 42, 40
1, 131879, Note_on_c, 9, 42, 0
1, 131895, Note_on_c, 9, 54, 103
1, 131984, Note_on_c, 9, 54, 0
1, 131985, Note_on_c, 9, 39, 100
1, 131999, Note_on_c, 9, 36, 0
1, 131999, Note_on_c, 9, 39, 0
1, 132015, Note_on_c, 9, 38, 103
1, 132015, Note_on_c, 9, 42, 63
1, 132059, Note_on_c, 9, 38, 0
1, 132059, Note_on_c, 9, 42, 0
1, 132075, Note_on_c, 9, 42, 45
1, 132119, Note_on_c, 9, 42, 0
1, 132255, Note_on_c, 9, 42, 64
1, 132255, Note_on_c, 9, 36, 90
1, 132299, Note_on_c, 9, 42, 0
1, 132315, Note_on_c, 9, 42, 41
1, 132359, Note_on_c, 9, 42, 0
1, 132479, Note_on_c, 9, 36, 0
1, 132480, Note_on_c, 9, 36, 101
1, 132495, Note_on_c, 9, 42, 67
1, 132539, Note_on_c, 9, 42, 0
1, 132555, Note_on_c, 9, 42, 41
1, 132599, Note_on_c, 9, 42, 0
1, 132735, Note_on_c, 9, 42, 61
1, 132779, Note_on_c, 9, 42, 0
1, 132795, Note_on_c, 9, 42, 40
1, 132839, Note_on_c, 9, 42, 0
1, 132855, Note_on_c, 9, 54, 98
1, 132899, Note_on_c, 9, 54, 0
1, 132959, Note_on_c, 9, 36, 0
1, 132960, Note_on_c, 9, 38, 102
1, 132960, Note_on_c, 9, 42, 72
1, 132975, Note_on_c, 9, 39, 100
1, 133019, Note_on_c, 9, 38, 0
1, 133019, Note_on_c, 9, 42, 0
1, 133019, Note_on_c, 9, 39, 0
1, 133035, Note_on_c, 9, 42, 43
1, 133079, Note_on_c, 9, 42, 0
1, 133215, Note_on_c, 9, 42, 69
1, 133259, Note_on_c, 9, 42, 0
1, 133275, Note_on_c, 9, 42, 42
1, 133319, Note_on_c, 9, 42, 0
1, 133335, Note_on_c, 9, 36, 91
1, 133379, Note_on_c, 9, 36, 0
1, 133440, Note_on_c, 9, 36, 99
1, 133455, Note_on_c, 9, 42, 66
1, 133499, Note_on_c, 9, 42, 0
1, 133515, Note_on_c, 9, 42, 41
1, 133559, Note_on_c, 9, 42, 0
1, 133695, Note_on_c, 9, 42, 64
1, 133739, Note_on_c, 9, 42, 0
1, 133755, Note_on_c, 9, 42, 41
1, 133799, Note_on_c, 9, 42, 0
1, 133815, Note_on_c, 9, 54, 99
1, 133859, Note_on_c, 9, 54, 0
1, 133919, Note_on_c, 9, 36, 0
1, 133920, Note_on_c, 9, 39, 100
1, 133934, Note_on_c, 9, 39, 0
1, 133935, Note_on_c, 9, 38, 105
1, 133935, Note_on_c, 9, 42, 75
1, 133979, Note_on_c, 9, 38, 0
1, 133979, Note_on_c, 9, 42, 0
1, 133995, Note_on_c, 9, 42, 43
1, 134039, Note_on_c, 9, 42, 0
1, 134160, Note_on_c, 9, 36, 92
1, 134175, Note_on_c, 9, 42, 64
1, 134219, Note_on_c, 9, 42, 0
1, 134235, Note_on_c, 9, 42, 41
1, 134279, Note_on_c, 9, 42, 0
1, 134399, Note_on_c, 9, 36, 0
1, 134415, Note_on_c, 9, 42, 68
1, 134415, Note_on_c, 9, 36, 97
1, 134459, Note_on_c, 9, 42, 0
1, 134475, Note_on_c, 9, 42, 41
1, 134519, Note_on_c, 9, 42, 0
1, 134639, Note_on_c, 9, 36, 0
1, 134655, Note_on_c, 9, 42, 64
1, 134699, Note_on_c, 9, 42, 0
1, 134715, Note_on_c, 9, 42, 41
1, 134759, Note_on_c, 9, 42, 0
1, 134775, Note_on_c, 9, 54, 99
1, 134819, Note_on_c, 9, 54, 0
1, 134880, Note_on_c, 9, 39, 100
1, 134894, Note_on_c, 9, 39, 0
1, 134895, Note_on_c, 9, 38, 103
1, 134895, Note_on_c, 9, 42, 75
1, 134939, Note_on_c, 9, 38, 0
1, 134939, Note_on_c, 9, 42, 0
1, 134955, Note_on_c, 9, 42, 43
1, 134999, Note_on_c, 9, 42, 0
1, 135135, Note_on_c, 9, 42, 70
1, 135179, Note_on_c, 9, 42, 0
1, 135195, Note_on_c, 9, 42, 43
1, 135239, Note_on_c, 9, 42, 0
1, 135240, Note_on_c, 9, 36, 94
1, 135359, Note_on_c, 9, 36, 0
1, 135375, Note_on_c, 9, 42, 68
1, 135375, Note_on_c, 9, 36, 102
1, 135419, Note_on_c, 9, 42, 0
1, 135435, Note_on_c, 9, 42, 41
1, 135479, Note_on_c, 9, 42, 0
1, 135599, Note_on_c, 9, 36, 0
1, 135615, Note_on_c, 9, 42, 64
1, 135659, Note_on_c, 9, 42, 0
1, 135675, Note_on_c, 9, 42, 41
1, 135719, Note_on_c, 9, 42, 0
1, 135735, Note_on_c, 9, 54, 100
1, 135779, Note_on_c, 9, 54, 0
1, 135840, Note_on_c, 9, 38, 99
1, 135840, Note_on_c, 9, 42, 75
1, 135859, Note_on_c, 9, 38, 0
1, 135859, Note_on_c, 9, 42, 0
1, 135860, Note_on_c, 9, 39, 100
1, 135899, Note_on_c, 9, 39, 0
1, 135915, Note_on_c, 9, 42, 44
1, 135959, Note_on_c, 9, 42, 0
1, 136080, Note_on_c, 9, 36, 91
1, 136095, Note_on_c, 9, 42, 59
1, 136139, Note_on_c, 9, 42, 0
1, 136155, Note_on_c, 9, 42, 40
1, 136199, Note_on_c, 9, 42, 0
1, 136319, Note_on_c, 9, 36, 0
1, 136335, Note_on_c, 9, 42, 69
1, 136335, Note_on_c, 9, 36, 102
1, 136379, Note_on_c, 9, 42, 0
1, 136395, Note_on_c, 9, 42, 42
1, 136439, Note_on_c, 9, 42, 0
1, 136559, Note_on_c, 9, 36, 0
1, 136575, Note_on_c, 9, 42, 68
1, 136619, Note_on_c, 9, 42, 0
1, 136635, Note_on_c, 9, 42, 41
1, 136679, Note_on_c, 9, 42, 0
1, 136695, Note_on_c, 9, 54, 96
1, 136739, Note_on_c, 9, 54, 0
1, 136800, Note_on_c, 9, 39, 100
1, 136814, Note_on_c, 9, 39, 0
1, 136815, Note_on_c, 9, 38, 103
1, 136815, Note_on_c, 9, 42, 71
1, 136859, Note_on_c, 9, 38, 0
1, 136859, Note_on_c, 9, 42, 0
1, 136875, Note_on_c, 9, 42, 43
1, 136919, Note_on_c, 9, 42, 0
1, 137055, Note_on_c, 9, 42, 60
1, 137099, Note_on_c, 9, 42, 0
1, 137115, Note_on_c, 9, 42, 40
1, 137159, Note_on_c, 9, 42, 0
1, 137160, Note_on_c, 9, 36, 92
1, 137279, Note_on_c, 9, 36, 0
1, 137280, Note_on_c, 9, 36, 102
1, 137295, Note_on_c, 9, 42, 67
1, 137339, Note_on_c, 9, 42, 0
1, 137355, Note_on_c, 9, 42, 41
1, 137399, Note_on_c, 9, 42, 0
1, 137519, Note_on_c, 9, 36, 0
1, 137535, Note_on_c, 9, 42, 57
1, 137535, Note_on_c, 9, 36, 82
1, 137579, Note_on_c, 9, 42, 0
1, 137595, Note_on_c, 9, 42, 40
1, 137639, Note_on_c, 9, 42, 0
1, 137655, Note_on_c, 9, 54, 103
1, 137699, Note_on_c, 9, 54, 0
1, 137759, Note_on_c, 9, 36, 0
1, 137760, Note_on_c, 9, 38, 103
1, 137760, Note_on_c, 9, 42, 63
1, 137775, Note_on_c, 9, 39, 100
1, 137819, Note_on_c, 9, 38, 0
1, 137819, Note_on_c, 9, 42, 0
1, 137819, Note_on_c, 9, 39, 0
1, 137835, Note_on_c, 9, 42, 45
1, 137879, Note_on_c, 9, 42, 0
1, 138015, Note_on_c, 9, 42, 64
1, 138015, Note_on_c, 9, 36, 90
1, 138059, Note_on_c, 9, 42, 0
1, 138075, Note_on_c, 9, 42, 41
1, 138119, Note_on_c, 9, 42, 0
1, 138239, Note_on_c, 9, 36, 0
1, 138240, Note_on_c, 9, 36, 101
1, 138255, Note_on_c, 9, 42, 67
1, 138299, Note_on_c, 9, 42, 0
1, 138315, Note_on_c, 9, 42, 41
1, 138359, Note_on_c, 9, 42, 0
1, 138495, Note_on_c, 9, 42, 61
1, 138539, Note_on_c, 9, 42, 0
1, 138555, Note_on_c, 9, 42, 40
1, 138599, Note_on_c, 9, 42, 0
1, 138615, Note_on_c, 9, 54, 98
1, 138659, Note_on_c, 9, 54, 0
1, 138719, Note_on_c, 9, 36, 0
1, 138720, Note_on_c, 9, 39, 100
1, 138734, Note_on_c, 9, 39, 0
1, 138735, Note_on_c, 9, 38, 102
1, 138735, Note_on_c, 9, 42, 72
1, 138779, Note_on_c, 9, 38, 0
1, 138779, Note_on_c, 9, 42, 0
1, 138795, Note_on_c, 9, 42, 43
1, 138839, Note_on_c, 9, 42, 0
1, 138975, Note_on_c, 9, 42, 69
1, 139019, Note_on_c, 9, 42, 0
1, 139035, Note_on_c, 9, 42, 42
1, 139079, Note_on_c, 9, 42, 0
1, 139095, Note_on_c, 9, 36, 91
1, 139139, Note_on_c, 9, 36, 0
1, 139200, Note_on_c, 9, 36, 99
1, 139215, Note_on_c, 9, 42, 66
1, 139259, Note_on_c, 9, 42, 0
1, 139275, Note_on_c, 9, 42, 41
1, 139319, Note_on_c, 9, 42, 0
1, 139455, Note_on_c, 9, 42, 64
1, 139499, Note_on_c, 9, 42, 0
1, 139515, Note_on_c, 9, 42, 41
1, 139559, Note_on_c, 9, 42, 0
1, 139575, Note_on_c, 9, 54, 99
1, 139619, Note_on_c, 9, 54, 0
1, 139679, Note_on_c, 9, 36, 0
1, 139680, Note_on_c, 9, 38, 105
1, 139680, Note_on_c, 9, 42, 75
1, 139695, Note_on_c, 9, 39, 100
1, 139739, Note_on_c, 9, 38, 0
1, 139739, Note_on_c, 9, 42, 0
1, 139739, Note_on_c, 9, 39, 0
1, 139755, Note_on_c, 9, 42, 43
1, 139799, Note_on_c, 9, 42, 0
1, 139920, Note_on_c, 9, 36, 92
1, 139935, Note_on_c, 9, 42, 64
1, 139979, Note_on_c, 9, 42, 0
1, 139995, Note_on_c, 9, 42, 41
1, 140039, Note_on_c, 9, 42, 0
1, 140159, Note_on_c, 9, 36, 0
1, 140175, Note_on_c, 9, 42, 68
1, 140175, Note_on_c, 9, 36, 97
1, 140219, Note_on_c, 9, 42, 0
1, 140235, Note_on_c, 9, 42, 41
1, 140279, Note_on_c, 9, 42, 0
1, 140399, Note_on_c, 9, 36, 0
1, 140415, Note_on_c, 9, 42, 64
1, 140459, Note_on_c, 9, 42, 0
1, 140475, Note_on_c, 9, 42, 41
1, 140519, Note_on_c, 9, 42, 0
1, 140535, Note_on_c, 9, 54, 99
1, 140579, Note_on_c, 9, 54, 0
1, 140640, Note_on_c, 9, 39, 100
1, 140654, Note_on_c, 9, 39, 0
1, 140655, Note_on_c, 9, 38, 103
1, 140655, Note_on_c, 9, 42, 75
1, 140699, Note_on_c, 9, 38, 0
1, 140699, Note_on_c, 9, 42, 0
1, 140715, Note_on_c, 9, 42, 43
1, 140759, Note_on_c, 9, 42, 0
1, 140895, Note_on_c, 9, 42, 70
1, 140939, Note_on_c, 9, 42, 0
1, 140955, Note_on_c, 9, 42, 43
1, 140999, Note_on_c, 9, 42, 0
1, 141000, Note_on_c, 9, 36, 94
1, 141119, Note_on_c, 9, 36, 0
1, 141135, Note_on_c, 9, 42, 68
1, 141135, Note_on_c, 9, 36, 102
1, 141179, Note_on_c, 9, 42, 0
1, 141195, Note_on_c, 9, 42, 41
1, 141239, Note_on_c, 9, 42, 0
1, 141359, Note_on_c, 9, 36, 0
1, 141375, Note_on_c, 9, 42, 64
1, 141419, Note_on_c, 9, 42, 0
1, 141435, Note_on_c, 9, 42, 41
1, 141479, Note_on_c, 9, 42, 0
1, 141495, Note_on_c, 9, 54, 100
1, 141539, Note_on_c, 9, 54, 0
1, 141600, Note_on_c, 9, 39, 100
1, 141614, Note_on_c, 9, 39, 0
1, 141615, Note_on_c, 9, 38, 99
1, 141615, Note_on_c, 9, 42, 75
1, 141659, Note_on_c, 9, 38, 0
1, 141659, Note_on_c, 9, 42, 0
1, 141675, Note_on_c, 9, 42, 44
1, 141719, Note_on_c, 9, 42, 0
1, 141840, Note_on_c, 9, 36, 91
1, 141855, Note_on_c, 9, 42, 59
1, 141899, Note_on_c, 9, 42, 0
1, 141915, Note_on_c, 9, 42, 40
1, 141959, Note_on_c, 9, 42, 0
1, 142079, Note_on_c, 9, 36, 0
1, 142095, Note_on_c, 9, 42, 69
1, 142095, Note_on_c, 9, 36, 102
1, 142139, Note_on_c, 9, 42, 0
1, 142155, Note_on_c, 9, 42, 42
1, 142199, Note_on_c, 9, 42, 0
1, 142319, Note_on_c, 9, 36, 0
1, 142335, Note_on_c, 9, 42, 68
1, 142379, Note_on_c, 9, 42, 0
1, 142395, Note_on_c, 9, 42, 41
1, 142439, Note_on_c, 9, 42, 0
1, 142455, Note_on_c, 9, 54, 96
1, 142499, Note_on_c, 9, 54, 0
1, 142560, Note_on_c, 9, 38, 103
1, 142560, Note_on_c, 9, 42, 71
1, 142575, Note_on_c, 9, 39, 100
1, 142619, Note_on_c, 9, 38, 0
1, 142619, Note_on_c, 9, 42, 0
1, 142619, Note_on_c, 9, 39, 0
1, 142635, Note_on_c, 9, 42, 43
1, 142679, Note_on_c, 9, 42, 0
1, 142815, Note_on_c, 9, 42, 60
1, 142859, Note_on_c, 9, 42, 0
1, 142875, Note_on_c, 9, 42, 40
1, 142919, Note_on_c, 9, 42, 0
1, 142920, Note_on_c, 9, 36, 92
1, 143039, Note_on_c, 9, 36, 0
1, 143040, Note_on_c, 9, 36, 102
1, 143055, Note_on_c, 9, 42, 67
1, 143099, Note_on_c, 9, 42, 0
1, 143115, Note_on_c, 9, 42, 41
1, 143159, Note_on_c, 9, 42, 0
1, 143279, Note_on_c, 9, 36, 0
1, 143295, Note_on_c, 9, 42, 57
1, 143295, Note_on_c, 9, 36, 82
1, 143339, Note_on_c, 9, 42, 0
1, 143355, Note_on_c, 9, 42, 40
1, 143399, Note_on_c, 9, 42, 0
1, 143415, Note_on_c, 9, 54, 112
1, 143504, Note_on_c, 9, 54, 0
1, 143505, Note_on_c, 9, 39, 100
1, 143519, Note_on_c, 9, 36, 0
1, 143519, Note_on_c, 9, 39, 0
1, 143535, Note_on_c, 9, 38, 96
1, 143640, Note_on_c, 9, 36, 87
1, 143679, Note_on_c, 9, 36, 0
1, 143680, Note_on_c, 9, 44, 93
1, 143699, Note_on_c, 9, 44, 0
1, 143759, Note_on_c, 9, 38, 0
1, 143775, Note_on_c, 9, 40, 109
1, 143819, Note_on_c, 9, 40, 0
1, 143835, Note_on_c, 9, 42, 40
1, 143879, Note_on_c, 9, 42, 0
1, 144000, Note_on_c, 9, 36, 101
1, 144015, Note_on_c, 9, 42, 67
1, 144059, Note_on_c, 9, 42, 0
1, 144075, Note_on_c, 9, 42, 41
1, 144119, Note_on_c, 9, 42, 0
1, 144255, Note_on_c, 9, 42, 61
1, 144299, Note_on_c, 9, 42, 0
1, 144315, Note_on_c, 9, 42, 40
1, 144359, Note_on_c, 9, 42, 0
1, 144375, Note_on_c, 9, 54, 98
1, 144419, Note_on_c, 9, 54, 0
1, 144479, Note_on_c, 9, 36, 0
1, 144480, Note_on_c, 9, 38, 102
1, 144480, Note_on_c, 9, 42, 72
1, 144519, Note_on_c, 9, 38, 0
1, 144519, Note_on_c, 9, 42, 0
1, 144520, Note_on_c, 9, 39, 100
1, 144539, Note_on_c, 9, 39, 0
1, 144555, Note_on_c, 9, 42, 43
1, 144599, Note_on_c, 9, 42, 0
1, 144735, Note_on_c, 9, 42, 69
1, 144779, Note_on_c, 9, 42, 0
1, 144795, Note_on_c, 9, 42, 42
1, 144839, Note_on_c, 9, 42, 0
1, 144855, Note_on_c, 9, 36, 91
1, 144899, Note_on_c, 9, 36, 0
1, 144960, Note_on_c, 9, 36, 99
1, 144975, Note_on_c, 9, 42, 66
1, 145019, Note_on_c, 9, 42, 0
1, 145035, Note_on_c, 9, 42, 41
1, 145079, Note_on_c, 9, 42, 0
1, 145215, Note_on_c, 9, 42, 64
1, 145259, Note_on_c, 9, 42, 0
1, 145275, Note_on_c, 9, 42, 41
1, 145319, Note_on_c, 9, 42, 0
1, 145335, Note_on_c, 9, 54, 99
1, 145379, Note_on_c, 9, 54, 0
1, 145439, Note_on_c, 9, 36, 0
1, 145440, Note_on_c, 9, 39, 100
1, 145454, Note_on_c, 9, 39, 0
1, 145455, Note_on_c, 9, 38, 105
1, 145455, Note_on_c, 9, 42, 75
1, 145499, Note_on_c, 9, 38, 0
1, 145499, Note_on_c, 9, 42, 0
1, 145515, Note_on_c, 9, 42, 43
1, 145559, Note_on_c, 9, 42, 0
1, 145680, Note_on_c, 9, 36, 92
1, 145695, Note_on_c, 9, 42, 64
1, 145739, Note_on_c, 9, 42, 0
1, 145755, Note_on_c, 9, 42, 41
1, 145799, Note_on_c, 9, 42, 0
1, 145919, Note_on_c, 9, 36, 0
1, 145935, Note_on_c, 9, 42, 68
1, 145935, Note_on_c, 9, 36, 97
1, 145979, Note_on_c, 9, 42, 0
1, 145995, Note_on_c, 9, 42, 41
1, 146039, Note_on_c, 9, 42, 0
1, 146159, Note_on_c, 9, 36, 0
1, 146175, Note_on_c, 9, 42, 64
1, 146219, Note_on_c, 9, 42, 0
1, 146235, Note_on_c, 9, 42, 41
1, 146279, Note_on_c, 9, 42, 0
1, 146295, Note_on_c, 9, 54, 99
1, 146384, Note_on_c, 9, 54, 0
1, 146385, Note_on_c, 9, 39, 100
1, 146399, Note_on_c, 9, 39, 0
1, 146415, Note_on_c, 9, 38, 103
1, 146415, Note_on_c, 9, 42, 75
1, 146459, Note_on_c, 9, 38, 0
1, 146459, Note_on_c, 9, 42, 0
1, 146475, Note_on_c, 9, 42, 43
1, 146519, Note_on_c, 9, 42, 0
1, 146655, Note_on_c, 9, 42, 70
1, 146699, Note_on_c, 9, 42, 0
1, 146715, Note_on_c, 9, 42, 43
1, 146759, Note_on_c, 9, 42, 0
1, 146760, Note_on_c, 9, 36, 94
1, 146879, Note_on_c, 9, 36, 0
1, 146895, Note_on_c, 9, 42, 68
1, 146895, Note_on_c, 9, 36, 102
1, 146939, Note_on_c, 9, 42, 0
1, 146955, Note_on_c, 9, 42, 41
1, 146999, Note_on_c, 9, 42, 0
1, 147119, Note_on_c, 9, 36, 0
1, 147135, Note_on_c, 9, 42, 64
1, 147179, Note_on_c, 9, 42, 0
1, 147195, Note_on_c, 9, 42, 41
1, 147239, Note_on_c, 9, 42, 0
1, 147255, Note_on_c, 9, 54, 100
1, 147299, Note_on_c, 9, 54, 0
1, 147360, Note_on_c, 9, 39, 100
1, 147374, Note_on_c, 9, 39, 0
1, 147375, Note_on_c, 9, 38, 99
1, 147375, Note_on_c, 9, 42, 75
1, 147419, Note_on_c, 9, 38, 0
1, 147419, Note_on_c, 9, 42, 0
1, 147435, Note_on_c, 9, 42, 44
1, 147479, Note_on_c, 9, 42, 0
1, 147600, Note_on_c, 9, 36, 91
1, 147615, Note_on_c, 9, 42, 59
1, 147659, Note_on_c, 9, 42, 0
1, 147675, Note_on_c, 9, 42, 40
1, 147719, Note_on_c, 9, 42, 0
1, 147839, Note_on_c, 9, 36, 0
1, 147855, Note_on_c, 9, 42, 69
1, 147855, Note_on_c, 9, 36, 102
1, 147899, Note_on_c, 9, 42, 0
1, 147915, Note_on_c, 9, 42, 42
1, 147959, Note_on_c, 9, 42, 0
1, 148079, Note_on_c, 9, 36, 0
1, 148095, Note_on_c, 9, 42, 68
1, 148139, Note_on_c, 9, 42, 0
1, 148155, Note_on_c, 9, 42, 41
1, 148199, Note_on_c, 9, 42, 0
1, 148215, Note_on_c, 9, 54, 96
1, 148259, Note_on_c, 9, 54, 0
1, 148320, Note_on_c, 9, 38, 103
1, 148320, Note_on_c, 9, 42, 71
1, 148335, Note_on_c, 9, 39, 100
1, 148379, Note_on_c, 9, 38, 0
1, 148379, Note_on_c, 9, 42, 0
1, 148379, Note_on_c, 9, 39, 0
1, 148395, Note_on_c, 9, 42, 43
1, 148439, Note_on_c, 9, 42, 0
1, 148575, Note_on_c, 9, 42, 60
1, 148619, Note_on_c, 9, 42, 0
1, 148635, Note_on_c, 9, 42, 40
1, 148679, Note_on_c, 9, 42, 0
1, 148680, Note_on_c, 9, 36, 92
1, 148799, Note_on_c, 9, 36, 0
1, 148800, Note_on_c, 9, 36, 102
1, 148815, Note_on_c, 9, 42, 67
1, 148859, Note_on_c, 9, 42, 0
1, 148875, Note_on_c, 9, 42, 41
1, 148919, Note_on_c, 9, 42, 0
1, 149039, Note_on_c, 9, 36, 0
1, 149055, Note_on_c, 9, 42, 57
1, 149055, Note_on_c, 9, 36, 82
1, 149099, Note_on_c, 9, 42, 0
1, 149115, Note_on_c, 9, 42, 40
1, 149159, Note_on_c, 9, 42, 0
1, 149175, Note_on_c, 9, 54, 103
1, 149219, Note_on_c, 9, 54, 0
1, 149279, Note_on_c, 9, 36, 0
1, 149280, Note_on_c, 9, 39, 100
1, 149294, Note_on_c, 9, 39, 0
1, 149295, Note_on_c, 9, 38, 103
1, 149295, Note_on_c, 9, 42, 63
1, 149339, Note_on_c, 9, 38, 0
1, 149339, Note_on_c, 9, 42, 0
1, 149355, Note_on_c, 9, 42, 45
1, 149399, Note_on_c, 9, 42, 0
1, 149535, Note_on_c, 9, 42, 64
1, 149535, Note_on_c, 9, 36, 90
1, 149579, Note_on_c, 9, 42, 0
1, 149595, Note_on_c, 9, 42, 41
1, 149639, Note_on_c, 9, 42, 0
1, 149759, Note_on_c, 9, 36, 0
1, 149760, Note_on_c, 9, 36, 101
1, 149775, Note_on_c, 9, 42, 67
1, 149819, Note_on_c, 9, 42, 0
1, 149835, Note_on_c, 9, 42, 41
1, 149879, Note_on_c, 9, 42, 0
1, 150015, Note_on_c, 9, 42, 61
1, 150059, Note_on_c, 9, 42, 0
1, 150075, Note_on_c, 9, 42, 40
1, 150119, Note_on_c, 9, 42, 0
1, 150135, Note_on_c, 9, 54, 98
1, 150179, Note_on_c, 9, 54, 0
1, 150239, Note_on_c, 9, 36, 0
1, 150240, Note_on_c, 9, 39, 100
1, 150254, Note_on_c, 9, 39, 0
1, 150255, Note_on_c, 9, 38, 102
1, 150255, Note_on_c, 9, 42, 72
1, 150299, Note_on_c, 9, 38, 0
1, 150299, Note_on_c, 9, 42, 0
1, 150315, Note_on_c, 9, 42, 43
1, 150359, Note_on_c, 9, 42, 0
1, 150495, Note_on_c, 9, 42, 69
1, 150539, Note_on_c, 9, 42, 0
1, 150555, Note_on_c, 9, 42, 42
1, 150599, Note_on_c, 9, 42, 0
1, 150615, Note_on_c, 9, 36, 91
1, 150659, Note_on_c, 9, 36, 0
1, 150720, Note_on_c, 9, 36, 99
1, 150735, Note_on_c, 9, 42, 66
1, 150779, Note_on_c, 9, 42, 0
1, 150795, Note_on_c, 9, 42, 41
1, 150839, Note_on_c, 9, 42, 0
1, 150975, Note_on_c, 9, 42, 64
1, 151019, Note_on_c, 9, 42, 0
1, 151035, Note_on_c, 9, 42, 41
1, 151079, Note_on_c, 9, 42, 0
1, 151095, Note_on_c, 9, 54, 99
1, 151139, Note_on_c, 9, 54, 0
1, 151199, Note_on_c, 9, 36, 0
1, 151200, Note_on_c, 9, 39, 100
1, 151214, Note_on_c, 9, 39, 0
1, 151215, Note_on_c, 9, 38, 105
1, 151215, Note_on_c, 9, 42, 75
1, 151259, Note_on_c, 9, 38, 0
1, 151259, Note_on_c, 9, 42, 0
1, 151275, Note_on_c, 9, 42, 43
1, 151319, Note_on_c, 9, 42, 0
1, 151440, Note_on_c, 9, 36, 92
1, 151455, Note_on_c, 9, 42, 64
1, 151499, Note_on_c, 9, 42, 0
1, 151515, Note_on_c, 9, 42, 41
1, 151559, Note_on_c, 9, 42, 0
1, 151679, Note_on_c, 9, 36, 0
1, 151695, Note_on_c, 9, 42, 68
1, 151695, Note_on_c, 9, 36, 97
1, 151919, Note_on_c, 9, 42, 0
1, 151919, Note_on_c, 9, 36, 0
1, 152160, Note_on_c, 9, 39, 100
1, 152160, Note_on_c, 9, 36, 94
1, 152174, Note_on_c, 9, 39, 0
1, 152175, Note_on_c, 9, 38, 70
1, 152399, Note_on_c, 9, 38, 0
1, 152400, Note_on_c, 9, 38, 70
1, 152639, Note_on_c, 9, 36, 0
1, 152639, Note_on_c, 9, 38, 0
1, 152640, Note_on_c, 9, 38, 70
1, 152655, Note_on_c, 9, 36, 102
1, 152879, Note_on_c, 9, 38, 0
1, 152879, Note_on_c, 9, 36, 0
1, 152880, Note_on_c, 9, 38, 70
1, 153104, Note_on_c, 9, 38, 0
1, 153105, Note_on_c, 9, 39, 100
1, 153119, Note_on_c, 9, 39, 0
1, 153120, Note_on_c, 9, 38, 99
1, 153359, Note_on_c, 9, 38, 0
1, 153360, Note_on_c, 9, 38, 70
1, 153360, Note_on_c, 9, 36, 91
1, 153599, Note_on_c, 9, 38, 0
1, 153599, Note_on_c, 9, 36, 0
1, 153600, Note_on_c, 9, 38, 70
1, 153600, Note_on_c, 9, 36, 92
1, 153614, Note_on_c, 9, 38, 0
1, 153615, Note_on_c, 9, 42, 62
1, 153839, Note_on_c, 9, 42, 0
1, 153855, Note_on_c, 9, 48, 113
1, 154079, Note_on_c, 9, 36, 0
1, 154079, Note_on_c, 9, 48, 0
1, 154080, Note_on_c, 9, 39, 100
1, 154080, Note_on_c, 9, 49, 94
1, 154199, Note_on_c, 9, 39, 0
1, 154199, Note_on_c, 9, 49, 0
1, 154200, Note_on_c, 9, 47, 105
1, 154559, Note_on_c, 9, 47, 0
1, 154800, Note_on_c, 9, 36, 101
1, 155025, Note_on_c, 9, 39, 100
1, 155039, Note_on_c, 9, 36, 0
1, 155039, Note_on_c, 9, 39, 0
1, 155040, Note_on_c, 9, 36, 101
1, 155279, Note_on_c, 9, 36, 0
1, 155280, Note_on_c, 9, 36, 101
1, 155519, Note_on_c, 9, 36, 0
1, 155520, Note_on_c, 9, 42, 101
1, 155520, Note_on_c, 9, 36, 101
1, 155999, Note_on_c, 9, 42, 0
1, 155999, Note_on_c, 9, 36, 0
1, 156000, Note_on_c, 9, 39, 100
1, 156000, Note_on_c, 9, 36, 91
1, 156014, Note_on_c, 9, 39, 0
1, 156015, Note_on_c, 9, 38, 102
1, 156015, Note_on_c, 9, 42, 72
1, 156239, Note_on_c, 9, 36, 0
1, 156239, Note_on_c, 9, 38, 0
1, 156239, Note_on_c, 9, 42, 0
1, 156240, Note_on_c, 9, 38, 102
1, 156240, Note_on_c, 9, 36, 99
1, 156254, Note_on_c, 9, 38, 0
1, 156255, Note_on_c, 9, 42, 69
1, 156479, Note_on_c, 9, 36, 0
1, 156479, Note_on_c, 9, 42, 0
1, 156480, Note_on_c, 9, 38, 102
1, 156480, Note_on_c, 9, 36, 99
1, 156494, Note_on_c, 9, 38, 0
1, 156495, Note_on_c, 9, 42, 66
1, 156719, Note_on_c, 9, 36, 0
1, 156719, Note_on_c, 9, 42, 0
1, 156720, Note_on_c, 9, 38, 102
1, 156720, Note_on_c, 9, 36, 99
1, 156734, Note_on_c, 9, 38, 0
1, 156735, Note_on_c, 9, 42, 64
1, 156944, Note_on_c, 9, 42, 0
1, 156945, Note_on_c, 9, 39, 100
1, 156959, Note_on_c, 9, 36, 0
1, 156959, Note_on_c, 9, 39, 0
1, 156960, Note_on_c, 9, 38, 105
1, 156960, Note_on_c, 9, 36, 99
1, 156974, Note_on_c, 9, 38, 0
1, 156975, Note_on_c, 9, 42, 75
1, 157199, Note_on_c, 9, 36, 0
1, 157199, Note_on_c, 9, 42, 0
1, 157200, Note_on_c, 9, 38, 102
1, 157200, Note_on_c, 9, 36, 92
1, 157214, Note_on_c, 9, 38, 0
1, 157215, Note_on_c, 9, 42, 64
1, 157439, Note_on_c, 9, 36, 0
1, 157439, Note_on_c, 9, 42, 0
1, 157440, Note_on_c, 9, 38, 102
1, 157440, Note_on_c, 9, 36, 97
1, 157454, Note_on_c, 9, 38, 0
1, 157455, Note_on_c, 9, 42, 68
1, 157679, Note_on_c, 9, 42, 0
1, 157919, Note_on_c, 9, 36, 0
1, 157920, Note_on_c, 9, 38, 99
1, 158039, Note_on_c, 9, 38, 0
1, 158040, Note_on_c, 9, 47, 105
1, 158159, Note_on_c, 9, 47, 0
1, 158160, Note_on_c, 9, 44, 102
1, 158220, Note_on_c, 9, 42, 41
1, 158279, Note_on_c, 9, 44, 0
1, 158280, Note_on_c, 9, 36, 86
1, 158399, Note_on_c, 9, 42, 0
1, 158399, Note_on_c, 9, 36, 0
1, 158400, Note_on_c, 9, 34, 108
1, 158400, Note_on_c, 9, 44, 94
1, 158400, Note_on_c, 9, 36, 93
1, 158459, Note_on_c, 9, 34, 0
1, 158460, Note_on_c, 9, 42, 40
1, 158639, Note_on_c, 9, 42, 0
1, 158879, Note_on_c, 9, 44, 0
1, 158879, Note_on_c, 9, 36, 0
1, 159360, Note_on_c, 9, 36, 101
1, 159375, Note_on_c, 9, 42, 67
1, 159599, Note_on_c, 9, 42, 0
1, 159600, Note_on_c, 9, 42, 61
1, 159824, Note_on_c, 9, 42, 0
1, 159825, Note_on_c, 9, 39, 100
1, 159839, Note_on_c, 9, 36, 0
1, 159840, Note_on_c, 9, 38, 102
1, 159854, Note_on_c, 9, 38, 0
1, 159855, Note_on_c, 9, 42, 72
1, 160079, Note_on_c, 9, 39, 0
1, 160079, Note_on_c, 9, 42, 0
1, 160080, Note_on_c, 9, 42, 69
1, 160080, Note_on_c, 9, 36, 91
1, 160319, Note_on_c, 9, 42, 0
1, 160319, Note_on_c, 9, 36, 0
1, 160320, Note_on_c, 9, 42, 66
1, 160559, Note_on_c, 9, 42, 0
1, 160560, Note_on_c, 9, 42, 64
1, 160799, Note_on_c, 9, 42, 0
1, 160800, Note_on_c, 9, 38, 105
1, 160800, Note_on_c, 9, 39, 100
1, 160800, Note_on_c, 9, 42, 75
1, 161039, Note_on_c, 9, 38, 0
1, 161039, Note_on_c, 9, 39, 0
1, 161039, Note_on_c, 9, 42, 0
1, 161040, Note_on_c, 9, 42, 64
1, 161040, Note_on_c, 9, 36, 92
1, 161279, Note_on_c, 9, 42, 0
1, 161279, Note_on_c, 9, 36, 0
1, 161280, Note_on_c, 9, 42, 68
1, 161280, Note_on_c, 9, 36, 97
1, 161519, Note_on_c, 9, 42, 0
1, 161520, Note_on_c, 9, 42, 64
1, 161744, Note_on_c, 9, 42, 0
1, 161745, Note_on_c, 9, 39, 100
1, 161759, Note_on_c, 9, 36, 0
1, 161759, Note_on_c, 9, 39, 0
1, 161760, Note_on_c, 9, 38, 103
1, 161760, Note_on_c, 9, 42, 75
1, 161999, Note_on_c, 9, 38, 0
1, 161999, Note_on_c, 9, 42, 0
1, 162000, Note_on_c, 9, 42, 70
1, 162000, Note_on_c, 9, 36, 94
1, 162239, Note_on_c, 9, 42, 0
1, 162239, Note_on_c, 9, 36, 0
1, 162240, Note_on_c, 9, 42, 68
1, 162479, Note_on_c, 9, 42, 0
1, 162480, Note_on_c, 9, 42, 64
1, 162719, Note_on_c, 9, 42, 0
1, 162720, Note_on_c, 9, 39, 100
1, 162734, Note_on_c, 9, 39, 0
1, 162735, Note_on_c, 9, 38, 99
1, 162735, Note_on_c, 9, 42, 75
1, 162959, Note_on_c, 9, 38, 0
1, 162959, Note_on_c, 9, 42, 0
1, 162960, Note_on_c, 9, 38, 99
1, 162960, Note_on_c, 9, 36, 91
1, 162974, Note_on_c, 9, 38, 0
1, 162975, Note_on_c, 9, 42, 59
1, 163199, Note_on_c, 9, 36, 0
1, 163199, Note_on_c, 9, 42, 0
1, 163200, Note_on_c, 9, 38, 99
1, 163200, Note_on_c, 9, 49, 99
1, 163200, Note_on_c, 9, 36, 102
1, 163214, Note_on_c, 9, 38, 0
1, 163214, Note_on_c, 9, 49, 0
1, 163215, Note_on_c, 9, 42, 69
1, 163439, Note_on_c, 9, 42, 0
1, 163679, Note_on_c, 9, 36, 0
1, 163920, Note_on_c, 9, 38, 99
1, 163920, Note_on_c, 9, 49, 99
1, 163920, Note_on_c, 9, 44, 102
1, 163920, Note_on_c, 9, 36, 93
1, 164159, Note_on_c, 9, 38, 0
1, 164159, Note_on_c, 9, 49, 0
1, 164159, Note_on_c, 9, 44, 0
1, 164159, Note_on_c, 9, 36, 0
1, 164160, Note_on_c, 9, 49, 99
1, 164160, Note_on_c, 9, 36, 93
1, 164174, Note_on_c, 9, 49, 0
1, 164175, Note_on_c, 9, 45, 108
1, 164399, Note_on_c, 9, 45, 0
1, 164639, Note_on_c, 9, 36, 0
1, 164880, Note_on_c, 9, 41, 109
1, 164880, Note_on_c, 9, 49, 99
1, 164880, Note_on_c, 9, 44, 93
1, 164880, Note_on_c, 9, 36, 93
1, 165119, Note_on_c, 9, 41, 0
1, 165119, Note_on_c, 9, 49, 0
1, 165119, Note_on_c, 9, 44, 0
1, 165119, Note_on_c, 9, 36, 0
1, 165120, Note_on_c, 9, 49, 99
1, 165120, Note_on_c, 9, 36, 101
1, 165134, Note_on_c, 9, 49, 0
1, 165135, Note_on_c, 9, 42, 67
1, 165359, Note_on_c, 9, 42, 0
1, 165599, Note_on_c, 9, 36, 0
1, 166744, Tempo, 1000000
1, 167040, Note_on_c, 9, 38, 99
1, 167040, Note_on_c, 9, 42, 99
1, 167040, Note_on_c, 9, 49, 99
1, 167040, Note_on_c, 9, 44, 99
1, 167040, Note_on_c, 9, 36, 99
1, 167519, Note_on_c, 9, 38, 0
1, 167519, Note_on_c, 9, 42, 0
1, 167519, Note_on_c, 9, 49, 0
1, 167519, Note_on_c, 9, 44, 0
1, 167519, Note_on_c, 9, 36, 0
1, 168960, Note_on_c, 9, 36, 99
1, 169000, Note_on_c, 9, 34, 99
1, 169019, Note_on_c, 9, 34, 0
1, 169439, Note_on_c, 9, 36, 0
1, 169440, End_track
0, 0, End_of_file
