0, 0, Header, 1, 1, 480
1, 0, Start_track
1, 0, Time_signature, 4, 2, 24, 8
1, 0, Key_signature, 0, "major"
1, 0, Tempo, 512821
1, 0, Control_c, 9, 121, 0
1, 0, Program_c, 9, 0
1, 0, Control_c, 9, 7, 100
1, 0, Control_c, 9, 10, 64
1, 0, Control_c, 9, 91, 0
1, 0, Control_c, 9, 93, 0
1, 0, MIDI_port, 0
1, 3840, Note_on_c, 9, 51, 127
1, 3840, Note_on_c, 9, 35, 127
1, 3999, Note_on_c, 9, 51, 0
1, 4000, Note_on_c, 9, 51, 127
1, 4079, Note_on_c, 9, 51, 0
1, 4319, Note_on_c, 9, 35, 0
1, 4320, Note_on_c, 9, 51, 127
1, 4799, Note_on_c, 9, 51, 0
1, 4800, Note_on_c, 9, 38, 127
1, 4800, Note_on_c, 9, 46, 127
1, 4800, Note_on_c, 9, 51, 127
1, 5279, Note_on_c, 9, 38, 0
1, 5279, Note_on_c, 9, 46, 0
1, 5279, Note_on_c, 9, 51, 0
1, 5280, Note_on_c, 9, 51, 127
1, 5519, Note_on_c, 9, 51, 0
1, 5600, Note_on_c, 9, 51, 127
1, 5600, Note_on_c, 9, 35, 127
1, 5759, Note_on_c, 9, 51, 0
1, 5759, Note_on_c, 9, 35, 0
1, 5760, Note_on_c, 9, 51, 127
1, 5760, Note_on_c, 9, 35, 127
1, 5919, Note_on_c, 9, 51, 0
1, 5920, Note_on_c, 9, 51, 127
1, 5999, Note_on_c, 9, 51, 0
1, 6239, Note_on_c, 9, 35, 0
1, 6240, Note_on_c, 9, 51, 127
1, 6719, Note_on_c, 9, 51, 0
1, 6720, Note_on_c, 9, 38, 127
1, 6720, Note_on_c, 9, 46, 127
1, 6720, Note_on_c, 9, 51, 127
1, 7199, Note_on_c, 9, 38, 0
1, 7199, Note_on_c, 9, 46, 0
1, 7199, Note_on_c, 9, 51, 0
1, 7200, Note_on_c, 9, 51, 127
1, 7439, Note_on_c, 9, 51, 0
1, 7520, Note_on_c, 9, 51, 127
1, 7520, Note_on_c, 9, 35, 127
1, 7679, Note_on_c, 9, 51, 0
1, 7679, Note_on_c, 9, 35, 0
1, 7680, Note_on_c, 9, 51, 127
1, 7680, Note_on_c, 9, 35, 127
1, 8159, Note_on_c, 9, 51, 0
1, 8159, Note_on_c, 9, 35, 0
1, 8160, Note_on_c, 9, 51, 127
1, 8639, Note_on_c, 9, 51, 0
1, 8640, Note_on_c, 9, 38, 127
1, 8640, Note_on_c, 9, 51, 127
1, 9119, Note_on_c, 9, 38, 0
1, 9119, Note_on_c, 9, 51, 0
1, 9120, Note_on_c, 9, 51, 127
1, 9440, Note_on_c, 9, 35, 127
1, 9599, Note_on_c, 9, 51, 0
1, 9599, Note_on_c, 9, 35, 0
1, 9600, Note_on_c, 9, 51, 127
1, 9600, Note_on_c, 9, 35, 127
1, 10079, Note_on_c, 9, 51, 0
1, 10079, Note_on_c, 9, 35, 0
1, 10080, Note_on_c, 9, 51, 127
1, 10559, Note_on_c, 9, 51, 0
1, 10560, Note_on_c, 9, 38, 127
1, 10560, Note_on_c, 9, 51, 127
1, 11039, Note_on_c, 9, 38, 0
1, 11039, Note_on_c, 9, 51, 0
1, 11040, Note_on_c, 9, 51, 127
1, 11279, Note_on_c, 9, 51, 0
1, 11360, Note_on_c, 9, 51, 127
1, 11360, Note_on_c, 9, 35, 127
1, 11519, Note_on_c, 9, 51, 0
1, 11519, Note_on_c, 9, 35, 0
1, 11520, Note_on_c, 9, 51, 127
1, 11520, Note_on_c, 9, 35, 127
1, 11999, Note_on_c, 9, 51, 0
1, 11999, Note_on_c, 9, 35, 0
1, 12000, Note_on_c, 9, 51, 127
1, 12479, Note_on_c, 9, 51, 0
1, 12480, Note_on_c, 9, 38, 127
1, 12480, Note_on_c, 9, 51, 127
1, 12959, Note_on_c, 9, 38, 0
1, 12959, Note_on_c, 9, 51, 0
1, 12960, Note_on_c, 9, 51, 127
1, 13199, Note_on_c, 9, 51, 0
1, 13280, Note_on_c, 9, 51, 127
1, 13280, Note_on_c, 9, 35, 127
1, 13439, Note_on_c, 9, 51, 0
1, 13439, Note_on_c, 9, 35, 0
1, 13440, Note_on_c, 9, 51, 127
1, 13440, Note_on_c, 9, 35, 127
1, 13679, Note_on_c, 9, 51, 0
1, 13760, Note_on_c, 9, 38, 127
1, 13919, Note_on_c, 9, 35, 0
1, 13919, Note_on_c, 9, 38, 0
1, 13920, Note_on_c, 9, 51, 127
1, 14399, Note_on_c, 9, 51, 0
1, 14400, Note_on_c, 9, 38, 127
1, 14400, Note_on_c, 9, 51, 127
1, 14879, Note_on_c, 9, 38, 0
1, 14879, Note_on_c, 9, 51, 0
1, 14880, Note_on_c, 9, 51, 127
1, 15200, Note_on_c, 9, 35, 127
1, 15359, Note_on_c, 9, 51, 0
1, 15359, Note_on_c, 9, 35, 0
1, 15360, Note_on_c, 9, 51, 127
1, 15360, Note_on_c, 9, 35, 127
1, 15839, Note_on_c, 9, 51, 0
1, 15839, Note_on_c, 9, 35, 0
1, 15840, Note_on_c, 9, 51, 127
1, 16319, Note_on_c, 9, 51, 0
1, 16320, Note_on_c, 9, 38, 127
1, 16320, Note_on_c, 9, 51, 127
1, 16799, Note_on_c, 9, 38, 0
1, 16799, Note_on_c, 9, 51, 0
1, 16800, Note_on_c, 9, 51, 127
1, 17120, Note_on_c, 9, 35, 127
1, 17279, Note_on_c, 9, 51, 0
1, 17279, Note_on_c, 9, 35, 0
1, 17280, Note_on_c, 9, 51, 127
1, 17280, Note_on_c, 9, 35, 127
1, 17759, Note_on_c, 9, 51, 0
1, 17759, Note_on_c, 9, 35, 0
1, 17760, Note_on_c, 9, 51, 127
1, 18239, Note_on_c, 9, 51, 0
1, 18240, Note_on_c, 9, 38, 127
1, 18240, Note_on_c, 9, 51, 127
1, 18719, Note_on_c, 9, 38, 0
1, 18719, Note_on_c, 9, 51, 0
1, 18720, Note_on_c, 9, 51, 127
1, 19040, Note_on_c, 9, 35, 127
1, 19199, Note_on_c, 9, 51, 0
1, 19199, Note_on_c, 9, 35, 0
1, 19200, Note_on_c, 9, 51, 127
1, 19200, Note_on_c, 9, 35, 127
1, 19679, Note_on_c, 9, 51, 0
1, 19679, Note_on_c, 9, 35, 0
1, 19680, Note_on_c, 9, 51, 127
1, 20159, Note_on_c, 9, 51, 0
1, 20160, Note_on_c, 9, 38, 127
1, 20160, Note_on_c, 9, 51, 127
1, 20639, Note_on_c, 9, 38, 0
1, 20639, Note_on_c, 9, 51, 0
1, 20640, Note_on_c, 9, 51, 127
1, 20960, Note_on_c, 9, 35, 127
1, 21119, Note_on_c, 9, 51, 0
1, 21119, Note_on_c, 9, 35, 0
1, 21120, Note_on_c, 9, 51, 127
1, 21120, Note_on_c, 9, 35, 127
1, 21599, Note_on_c, 9, 51, 0
1, 21599, Note_on_c, 9, 35, 0
1, 21600, Note_on_c, 9, 51, 127
1, 22079, Note_on_c, 9, 51, 0
1, 22080, Note_on_c, 9, 38, 127
1, 22080, Note_on_c, 9, 51, 127
1, 22559, Note_on_c, 9, 38, 0
1, 22559, Note_on_c, 9, 51, 0
1, 22560, Note_on_c, 9, 51, 127
1, 22880, Note_on_c, 9, 35, 127
1, 23039, Note_on_c, 9, 51, 0
1, 23039, Note_on_c, 9, 35, 0
1, 23040, Note_on_c, 9, 51, 127
1, 23040, Note_on_c, 9, 35, 127
1, 23199, Note_on_c, 9, 51, 0
1, 23200, Note_on_c, 9, 51, 127
1, 23279, Note_on_c, 9, 51, 0
1, 23519, Note_on_c, 9, 35, 0
1, 23520, Note_on_c, 9, 51, 127
1, 23999, Note_on_c, 9, 51, 0
1, 24000, Note_on_c, 9, 38, 127
1, 24000, Note_on_c, 9, 46, 127
1, 24000, Note_on_c, 9, 51, 127
1, 24239, Note_on_c, 9, 38, 0
1, 24239, Note_on_c, 9, 46, 0
1, 24239, Note_on_c, 9, 51, 0
1, 24320, Note_on_c, 9, 38, 127
1, 24479, Note_on_c, 9, 38, 0
1, 24480, Note_on_c, 9, 51, 127
1, 24719, Note_on_c, 9, 51, 0
1, 24800, Note_on_c, 9, 51, 127
1, 24800, Note_on_c, 9, 35, 127
1, 24959, Note_on_c, 9, 51, 0
1, 24959, Note_on_c, 9, 35, 0
1, 24960, Note_on_c, 9, 51, 127
1, 24960, Note_on_c, 9, 35, 127
1, 25439, Note_on_c, 9, 51, 0
1, 25439, Note_on_c, 9, 35, 0
1, 25440, Note_on_c, 9, 51, 127
1, 25919, Note_on_c, 9, 51, 0
1, 25920, Note_on_c, 9, 38, 127
1, 25920, Note_on_c, 9, 51, 127
1, 26399, Note_on_c, 9, 38, 0
1, 26399, Note_on_c, 9, 51, 0
1, 26400, Note_on_c, 9, 51, 127
1, 26639, Note_on_c, 9, 51, 0
1, 26720, Note_on_c, 9, 51, 127
1, 26720, Note_on_c, 9, 35, 127
1, 26879, Note_on_c, 9, 51, 0
1, 26879, Note_on_c, 9, 35, 0
1, 26880, Note_on_c, 9, 51, 127
1, 26880, Note_on_c, 9, 35, 127
1, 27359, Note_on_c, 9, 51, 0
1, 27359, Note_on_c, 9, 35, 0
1, 27360, Note_on_c, 9, 51, 127
1, 27839, Note_on_c, 9, 51, 0
1, 27840, Note_on_c, 9, 38, 127
1, 27840, Note_on_c, 9, 51, 127
1, 28319, Note_on_c, 9, 38, 0
1, 28319, Note_on_c, 9, 51, 0
1, 28320, Note_on_c, 9, 51, 127
1, 28640, Note_on_c, 9, 35, 127
1, 28799, Note_on_c, 9, 51, 0
1, 28799, Note_on_c, 9, 35, 0
1, 28800, Note_on_c, 9, 51, 127
1, 28800, Note_on_c, 9, 35, 127
1, 29279, Note_on_c, 9, 51, 0
1, 29279, Note_on_c, 9, 35, 0
1, 29280, Note_on_c, 9, 51, 127
1, 29759, Note_on_c, 9, 51, 0
1, 29760, Note_on_c, 9, 38, 127
1, 29760, Note_on_c, 9, 51, 127
1, 30239, Note_on_c, 9, 38, 0
1, 30239, Note_on_c, 9, 51, 0
1, 30240, Note_on_c, 9, 51, 127
1, 30560, Note_on_c, 9, 35, 127
1, 30719, Note_on_c, 9, 51, 0
1, 30719, Note_on_c, 9, 35, 0
1, 30720, Note_on_c, 9, 51, 127
1, 30720, Note_on_c, 9, 35, 127
1, 31199, Note_on_c, 9, 51, 0
1, 31199, Note_on_c, 9, 35, 0
1, 31200, Note_on_c, 9, 51, 127
1, 31679, Note_on_c, 9, 51, 0
1, 31680, Note_on_c, 9, 38, 127
1, 31680, Note_on_c, 9, 51, 127
1, 32159, Note_on_c, 9, 38, 0
1, 32159, Note_on_c, 9, 51, 0
1, 32160, Note_on_c, 9, 51, 127
1, 32480, Note_on_c, 9, 35, 127
1, 32639, Note_on_c, 9, 51, 0
1, 32639, Note_on_c, 9, 35, 0
1, 32640, Note_on_c, 9, 51, 127
1, 32640, Note_on_c, 9, 35, 127
1, 33119, Note_on_c, 9, 51, 0
1, 33119, Note_on_c, 9, 35, 0
1, 33120, Note_on_c, 9, 51, 127
1, 33599, Note_on_c, 9, 51, 0
1, 33600, Note_on_c, 9, 38, 127
1, 33600, Note_on_c, 9, 51, 127
1, 34079, Note_on_c, 9, 38, 0
1, 34079, Note_on_c, 9, 51, 0
1, 34080, Note_on_c, 9, 51, 127
1, 34400, Note_on_c, 9, 35, 127
1, 34559, Note_on_c, 9, 51, 0
1, 34559, Note_on_c, 9, 35, 0
1, 36480, Note_on_c, 9, 35, 127
1, 36720, Note_on_c, 9, 38, 127
1, 36959, Note_on_c, 9, 35, 0
1, 36959, Note_on_c, 9, 38, 0
1, 36960, Note_on_c, 9, 45, 127
1, 37079, Note_on_c, 9, 45, 0
1, 37080, Note_on_c, 9, 38, 127
1, 37199, Note_on_c, 9, 38, 0
1, 37200, Note_on_c, 9, 38, 127
1, 37319, Note_on_c, 9, 38, 0
1, 37320, Note_on_c, 9, 38, 127
1, 37439, Note_on_c, 9, 38, 0
1, 37440, Note_on_c, 9, 38, 127
1, 37680, Note_on_c, 9, 35, 127
1, 37919, Note_on_c, 9, 38, 0
1, 37919, Note_on_c, 9, 35, 0
1, 37920, Note_on_c, 9, 41, 127
1, 37920, Note_on_c, 9, 46, 127
1, 38399, Note_on_c, 9, 41, 0
1, 38399, Note_on_c, 9, 46, 0
1, 38400, Note_on_c, 9, 51, 127
1, 38400, Note_on_c, 9, 49, 127
1, 38400, Note_on_c, 9, 35, 127
1, 38879, Note_on_c, 9, 51, 0
1, 38879, Note_on_c, 9, 49, 0
1, 38879, Note_on_c, 9, 35, 0
1, 38880, Note_on_c, 9, 51, 127
1, 39119, Note_on_c, 9, 51, 0
1, 39200, Note_on_c, 9, 51, 127
1, 39359, Note_on_c, 9, 51, 0
1, 39360, Note_on_c, 9, 38, 127
1, 39360, Note_on_c, 9, 51, 127
1, 39839, Note_on_c, 9, 38, 0
1, 39839, Note_on_c, 9, 51, 0
1, 39840, Note_on_c, 9, 51, 127
1, 40079, Note_on_c, 9, 51, 0
1, 40160, Note_on_c, 9, 38, 127
1, 40319, Note_on_c, 9, 38, 0
1, 40320, Note_on_c, 9, 51, 127
1, 40320, Note_on_c, 9, 35, 127
1, 40479, Note_on_c, 9, 51, 0
1, 40480, Note_on_c, 9, 51, 127
1, 40559, Note_on_c, 9, 35, 0
1, 40559, Note_on_c, 9, 51, 0
1, 40640, Note_on_c, 9, 35, 127
1, 40799, Note_on_c, 9, 35, 0
1, 40800, Note_on_c, 9, 51, 127
1, 41039, Note_on_c, 9, 51, 0
1, 41120, Note_on_c, 9, 51, 127
1, 41279, Note_on_c, 9, 51, 0
1, 41280, Note_on_c, 9, 38, 127
1, 41280, Note_on_c, 9, 51, 127
1, 41759, Note_on_c, 9, 38, 0
1, 41759, Note_on_c, 9, 51, 0
1, 41760, Note_on_c, 9, 51, 127
1, 41999, Note_on_c, 9, 51, 0
1, 42080, Note_on_c, 9, 38, 127
1, 42239, Note_on_c, 9, 38, 0
1, 42240, Note_on_c, 9, 51, 127
1, 42240, Note_on_c, 9, 35, 127
1, 42719, Note_on_c, 9, 51, 0
1, 42719, Note_on_c, 9, 35, 0
1, 42720, Note_on_c, 9, 51, 127
1, 42959, Note_on_c, 9, 51, 0
1, 43040, Note_on_c, 9, 51, 127
1, 43199, Note_on_c, 9, 51, 0
1, 43200, Note_on_c, 9, 38, 127
1, 43200, Note_on_c, 9, 51, 127
1, 43679, Note_on_c, 9, 38, 0
1, 43679, Note_on_c, 9, 51, 0
1, 43680, Note_on_c, 9, 51, 127
1, 43919, Note_on_c, 9, 51, 0
1, 44000, Note_on_c, 9, 38, 127
1, 44000, Note_on_c, 9, 51, 127
1, 44159, Note_on_c, 9, 38, 0
1, 44159, Note_on_c, 9, 51, 0
1, 44160, Note_on_c, 9, 51, 127
1, 44160, Note_on_c, 9, 35, 127
1, 44639, Note_on_c, 9, 51, 0
1, 44639, Note_on_c, 9, 35, 0
1, 44640, Note_on_c, 9, 51, 127
1, 44879, Note_on_c, 9, 51, 0
1, 44960, Note_on_c, 9, 51, 127
1, 45119, Note_on_c, 9, 51, 0
1, 45120, Note_on_c, 9, 38, 127
1, 45120, Note_on_c, 9, 51, 127
1, 45599, Note_on_c, 9, 38, 0
1, 45599, Note_on_c, 9, 51, 0
1, 45600, Note_on_c, 9, 51, 127
1, 45839, Note_on_c, 9, 51, 0
1, 45920, Note_on_c, 9, 38, 127
1, 46079, Note_on_c, 9, 38, 0
1, 46080, Note_on_c, 9, 51, 127
1, 46080, Note_on_c, 9, 35, 127
1, 46559, Note_on_c, 9, 51, 0
1, 46559, Note_on_c, 9, 35, 0
1, 46560, Note_on_c, 9, 51, 127
1, 46799, Note_on_c, 9, 51, 0
1, 46880, Note_on_c, 9, 51, 127
1, 47039, Note_on_c, 9, 51, 0
1, 47040, Note_on_c, 9, 38, 127
1, 47040, Note_on_c, 9, 51, 127
1, 47519, Note_on_c, 9, 38, 0
1, 47519, Note_on_c, 9, 51, 0
1, 47520, Note_on_c, 9, 51, 127
1, 47759, Note_on_c, 9, 51, 0
1, 47840, Note_on_c, 9, 38, 127
1, 47999, Note_on_c, 9, 38, 0
1, 48000, Note_on_c, 9, 51, 127
1, 48000, Note_on_c, 9, 35, 127
1, 48479, Note_on_c, 9, 51, 0
1, 48479, Note_on_c, 9, 35, 0
1, 48480, Note_on_c, 9, 51, 127
1, 48719, Note_on_c, 9, 51, 0
1, 48800, Note_on_c, 9, 51, 127
1, 48959, Note_on_c, 9, 51, 0
1, 48960, Note_on_c, 9, 38, 127
1, 48960, Note_on_c, 9, 51, 127
1, 49439, Note_on_c, 9, 38, 0
1, 49439, Note_on_c, 9, 51, 0
1, 49440, Note_on_c, 9, 51, 127
1, 49679, Note_on_c, 9, 51, 0
1, 49760, Note_on_c, 9, 38, 127
1, 49760, Note_on_c, 9, 51, 127
1, 49919, Note_on_c, 9, 38, 0
1, 49919, Note_on_c, 9, 51, 0
1, 49920, Note_on_c, 9, 51, 127
1, 49920, Note_on_c, 9, 35, 127
1, 50399, Note_on_c, 9, 51, 0
1, 50399, Note_on_c, 9, 35, 0
1, 50400, Note_on_c, 9, 51, 127
1, 50639, Note_on_c, 9, 51, 0
1, 50720, Note_on_c, 9, 51, 127
1, 50879, Note_on_c, 9, 51, 0
1, 50880, Note_on_c, 9, 38, 127
1, 50880, Note_on_c, 9, 51, 127
1, 51359, Note_on_c, 9, 38, 0
1, 51359, Note_on_c, 9, 51, 0
1, 51360, Note_on_c, 9, 51, 127
1, 51599, Note_on_c, 9, 51, 0
1, 51680, Note_on_c, 9, 38, 127
1, 51839, Note_on_c, 9, 38, 0
1, 51840, Note_on_c, 9, 51, 127
1, 51840, Note_on_c, 9, 35, 127
1, 52319, Note_on_c, 9, 51, 0
1, 52319, Note_on_c, 9, 35, 0
1, 52320, Note_on_c, 9, 51, 127
1, 52559, Note_on_c, 9, 51, 0
1, 52640, Note_on_c, 9, 51, 127
1, 52799, Note_on_c, 9, 51, 0
1, 52800, Note_on_c, 9, 38, 127
1, 52800, Note_on_c, 9, 51, 127
1, 53279, Note_on_c, 9, 38, 0
1, 53279, Note_on_c, 9, 51, 0
1, 53280, Note_on_c, 9, 51, 127
1, 53519, Note_on_c, 9, 51, 0
1, 53600, Note_on_c, 9, 38, 127
1, 53759, Note_on_c, 9, 38, 0
1, 53760, Note_on_c, 9, 51, 127
1, 53760, Note_on_c, 9, 35, 127
1, 54239, Note_on_c, 9, 51, 0
1, 54239, Note_on_c, 9, 35, 0
1, 54240, Note_on_c, 9, 51, 127
1, 54479, Note_on_c, 9, 51, 0
1, 54560, Note_on_c, 9, 51, 127
1, 54719, Note_on_c, 9, 51, 0
1, 54720, Note_on_c, 9, 38, 127
1, 54720, Note_on_c, 9, 51, 127
1, 55199, Note_on_c, 9, 38, 0
1, 55199, Note_on_c, 9, 51, 0
1, 55200, Note_on_c, 9, 51, 127
1, 55439, Note_on_c, 9, 51, 0
1, 55520, Note_on_c, 9, 38, 127
1, 55679, Note_on_c, 9, 38, 0
1, 55680, Note_on_c, 9, 51, 127
1, 55680, Note_on_c, 9, 35, 127
1, 56159, Note_on_c, 9, 51, 0
1, 56159, Note_on_c, 9, 35, 0
1, 56160, Note_on_c, 9, 51, 127
1, 56399, Note_on_c, 9, 51, 0
1, 56480, Note_on_c, 9, 51, 127
1, 56639, Note_on_c, 9, 51, 0
1, 56640, Note_on_c, 9, 38, 127
1, 56640, Note_on_c, 9, 51, 127
1, 57119, Note_on_c, 9, 38, 0
1, 57119, Note_on_c, 9, 51, 0
1, 57120, Note_on_c, 9, 51, 127
1, 57359, Note_on_c, 9, 51, 0
1, 57440, Note_on_c, 9, 38, 127
1, 57440, Note_on_c, 9, 51, 127
1, 57599, Note_on_c, 9, 38, 0
1, 57599, Note_on_c, 9, 51, 0
1, 57600, Note_on_c, 9, 51, 127
1, 57600, Note_on_c, 9, 35, 127
1, 58079, Note_on_c, 9, 51, 0
1, 58079, Note_on_c, 9, 35, 0
1, 58080, Note_on_c, 9, 51, 127
1, 58319, Note_on_c, 9, 51, 0
1, 58400, Note_on_c, 9, 51, 127
1, 58559, Note_on_c, 9, 51, 0
1, 58560, Note_on_c, 9, 38, 127
1, 58560, Note_on_c, 9, 51, 127
1, 59039, Note_on_c, 9, 38, 0
1, 59039, Note_on_c, 9, 51, 0
1, 59040, Note_on_c, 9, 51, 127
1, 59279, Note_on_c, 9, 51, 0
1, 59360, Note_on_c, 9, 38, 127
1, 59519, Note_on_c, 9, 38, 0
1, 59520, Note_on_c, 9, 51, 127
1, 59520, Note_on_c, 9, 35, 127
1, 59999, Note_on_c, 9, 51, 0
1, 59999, Note_on_c, 9, 35, 0
1, 60000, Note_on_c, 9, 51, 127
1, 60239, Note_on_c, 9, 51, 0
1, 60320, Note_on_c, 9, 51, 127
1, 60479, Note_on_c, 9, 51, 0
1, 60480, Note_on_c, 9, 38, 127
1, 60480, Note_on_c, 9, 51, 127
1, 60959, Note_on_c, 9, 38, 0
1, 60959, Note_on_c, 9, 51, 0
1, 60960, Note_on_c, 9, 51, 127
1, 61199, Note_on_c, 9, 51, 0
1, 61280, Note_on_c, 9, 38, 127
1, 61439, Note_on_c, 9, 38, 0
1, 61440, Note_on_c, 9, 51, 127
1, 61440, Note_on_c, 9, 35, 127
1, 61919, Note_on_c, 9, 51, 0
1, 61919, Note_on_c, 9, 35, 0
1, 61920, Note_on_c, 9, 51, 127
1, 62159, Note_on_c, 9, 51, 0
1, 62240, Note_on_c, 9, 38, 127
1, 62399, Note_on_c, 9, 38, 0
1, 62400, Note_on_c, 9, 38, 127
1, 62400, Note_on_c, 9, 51, 127
1, 62639, Note_on_c, 9, 38, 0
1, 62639, Note_on_c, 9, 51, 0
1, 62720, Note_on_c, 9, 45, 127
1, 62879, Note_on_c, 9, 45, 0
1, 62880, Note_on_c, 9, 51, 127
1, 63039, Note_on_c, 9, 51, 0
1, 63040, Note_on_c, 9, 38, 127
1, 63119, Note_on_c, 9, 38, 0
1, 63200, Note_on_c, 9, 35, 127
1, 63359, Note_on_c, 9, 35, 0
1, 63360, Note_on_c, 9, 51, 127
1, 63360, Note_on_c, 9, 49, 127
1, 63360, Note_on_c, 9, 35, 127
1, 63839, Note_on_c, 9, 51, 0
1, 63839, Note_on_c, 9, 49, 0
1, 63839, Note_on_c, 9, 35, 0
1, 63840, Note_on_c, 9, 51, 127
1, 64319, Note_on_c, 9, 51, 0
1, 64320, Note_on_c, 9, 38, 127
1, 64320, Note_on_c, 9, 51, 127
1, 64799, Note_on_c, 9, 38, 0
1, 64799, Note_on_c, 9, 51, 0
1, 64800, Note_on_c, 9, 51, 127
1, 65120, Note_on_c, 9, 35, 127
1, 65279, Note_on_c, 9, 51, 0
1, 65279, Note_on_c, 9, 35, 0
1, 65280, Note_on_c, 9, 51, 127
1, 65280, Note_on_c, 9, 35, 127
1, 65759, Note_on_c, 9, 51, 0
1, 65759, Note_on_c, 9, 35, 0
1, 65760, Note_on_c, 9, 51, 127
1, 66239, Note_on_c, 9, 51, 0
1, 66240, Note_on_c, 9, 38, 127
1, 66240, Note_on_c, 9, 46, 127
1, 66240, Note_on_c, 9, 51, 127
1, 66719, Note_on_c, 9, 38, 0
1, 66719, Note_on_c, 9, 46, 0
1, 66719, Note_on_c, 9, 51, 0
1, 66720, Note_on_c, 9, 51, 127
1, 67040, Note_on_c, 9, 35, 127
1, 67199, Note_on_c, 9, 51, 0
1, 67199, Note_on_c, 9, 35, 0
1, 67200, Note_on_c, 9, 51, 127
1, 67200, Note_on_c, 9, 35, 127
1, 67679, Note_on_c, 9, 51, 0
1, 67679, Note_on_c, 9, 35, 0
1, 67680, Note_on_c, 9, 51, 127
1, 68159, Note_on_c, 9, 51, 0
1, 68160, Note_on_c, 9, 38, 127
1, 68160, Note_on_c, 9, 51, 127
1, 68399, Note_on_c, 9, 38, 0
1, 68399, Note_on_c, 9, 51, 0
1, 68480, Note_on_c, 9, 38, 127
1, 68639, Note_on_c, 9, 38, 0
1, 68640, Note_on_c, 9, 51, 127
1, 68960, Note_on_c, 9, 35, 127
1, 69119, Note_on_c, 9, 51, 0
1, 69119, Note_on_c, 9, 35, 0
1, 69120, Note_on_c, 9, 51, 127
1, 69120, Note_on_c, 9, 35, 127
1, 69599, Note_on_c, 9, 51, 0
1, 69599, Note_on_c, 9, 35, 0
1, 69600, Note_on_c, 9, 51, 127
1, 70079, Note_on_c, 9, 51, 0
1, 70080, Note_on_c, 9, 38, 127
1, 70080, Note_on_c, 9, 51, 127
1, 70559, Note_on_c, 9, 38, 0
1, 70559, Note_on_c, 9, 51, 0
1, 70560, Note_on_c, 9, 51, 127
1, 70560, Note_on_c, 9, 35, 127
1, 70799, Note_on_c, 9, 51, 0
1, 70880, Note_on_c, 9, 51, 127
1, 71039, Note_on_c, 9, 35, 0
1, 71039, Note_on_c, 9, 51, 0
1, 71040, Note_on_c, 9, 51, 127
1, 71040, Note_on_c, 9, 35, 127
1, 71519, Note_on_c, 9, 51, 0
1, 71519, Note_on_c, 9, 35, 0
1, 71520, Note_on_c, 9, 51, 127
1, 71999, Note_on_c, 9, 51, 0
1, 72000, Note_on_c, 9, 38, 127
1, 72000, Note_on_c, 9, 51, 127
1, 72239, Note_on_c, 9, 38, 0
1, 72239, Note_on_c, 9, 51, 0
1, 72320, Note_on_c, 9, 38, 127
1, 72479, Note_on_c, 9, 38, 0
1, 72480, Note_on_c, 9, 51, 127
1, 72800, Note_on_c, 9, 35, 127
1, 72959, Note_on_c, 9, 51, 0
1, 72959, Note_on_c, 9, 35, 0
1, 72960, Note_on_c, 9, 51, 127
1, 72960, Note_on_c, 9, 35, 127
1, 73439, Note_on_c, 9, 51, 0
1, 73439, Note_on_c, 9, 35, 0
1, 73440, Note_on_c, 9, 51, 127
1, 73919, Note_on_c, 9, 51, 0
1, 73920, Note_on_c, 9, 38, 127
1, 73920, Note_on_c, 9, 51, 127
1, 74399, Note_on_c, 9, 38, 0
1, 74399, Note_on_c, 9, 51, 0
1, 74400, Note_on_c, 9, 51, 127
1, 74639, Note_on_c, 9, 51, 0
1, 74720, Note_on_c, 9, 51, 127
1, 74720, Note_on_c, 9, 35, 127
1, 74879, Note_on_c, 9, 51, 0
1, 74879, Note_on_c, 9, 35, 0
1, 74880, Note_on_c, 9, 51, 127
1, 74880, Note_on_c, 9, 35, 127
1, 75359, Note_on_c, 9, 51, 0
1, 75359, Note_on_c, 9, 35, 0
1, 75360, Note_on_c, 9, 51, 127
1, 75839, Note_on_c, 9, 51, 0
1, 75840, Note_on_c, 9, 38, 127
1, 75840, Note_on_c, 9, 51, 127
1, 76079, Note_on_c, 9, 38, 0
1, 76079, Note_on_c, 9, 51, 0
1, 76160, Note_on_c, 9, 38, 127
1, 76319, Note_on_c, 9, 38, 0
1, 76320, Note_on_c, 9, 51, 127
1, 76640, Note_on_c, 9, 35, 127
1, 76799, Note_on_c, 9, 51, 0
1, 76799, Note_on_c, 9, 35, 0
1, 76800, Note_on_c, 9, 51, 127
1, 76800, Note_on_c, 9, 35, 127
1, 77279, Note_on_c, 9, 51, 0
1, 77279, Note_on_c, 9, 35, 0
1, 77280, Note_on_c, 9, 51, 127
1, 77759, Note_on_c, 9, 51, 0
1, 77760, Note_on_c, 9, 38, 127
1, 77760, Note_on_c, 9, 51, 127
1, 78239, Note_on_c, 9, 38, 0
1, 78239, Note_on_c, 9, 51, 0
1, 78240, Note_on_c, 9, 51, 127
1, 78479, Note_on_c, 9, 51, 0
1, 78560, Note_on_c, 9, 51, 127
1, 78560, Note_on_c, 9, 35, 127
1, 78719, Note_on_c, 9, 51, 0
1, 78719, Note_on_c, 9, 35, 0
1, 78720, Note_on_c, 9, 51, 127
1, 78720, Note_on_c, 9, 35, 127
1, 79199, Note_on_c, 9, 51, 0
1, 79199, Note_on_c, 9, 35, 0
1, 79200, Note_on_c, 9, 51, 127
1, 79679, Note_on_c, 9, 51, 0
1, 79680, Note_on_c, 9, 38, 127
1, 79680, Note_on_c, 9, 46, 127
1, 79680, Note_on_c, 9, 51, 127
1, 80159, Note_on_c, 9, 38, 0
1, 80159, Note_on_c, 9, 46, 0
1, 80159, Note_on_c, 9, 51, 0
1, 80160, Note_on_c, 9, 51, 127
1, 80480, Note_on_c, 9, 35, 127
1, 80639, Note_on_c, 9, 51, 0
1, 80639, Note_on_c, 9, 35, 0
1, 80640, Note_on_c, 9, 51, 127
1, 80640, Note_on_c, 9, 35, 127
1, 80799, Note_on_c, 9, 51, 0
1, 80800, Note_on_c, 9, 51, 127
1, 80879, Note_on_c, 9, 51, 0
1, 81119, Note_on_c, 9, 35, 0
1, 81120, Note_on_c, 9, 51, 127
1, 81599, Note_on_c, 9, 51, 0
1, 81600, Note_on_c, 9, 38, 127
1, 81600, Note_on_c, 9, 46, 127
1, 81600, Note_on_c, 9, 51, 127
1, 81839, Note_on_c, 9, 38, 0
1, 81839, Note_on_c, 9, 46, 0
1, 81839, Note_on_c, 9, 51, 0
1, 81920, Note_on_c, 9, 38, 127
1, 82079, Note_on_c, 9, 38, 0
1, 82080, Note_on_c, 9, 51, 127
1, 82400, Note_on_c, 9, 35, 127
1, 82559, Note_on_c, 9, 51, 0
1, 82559, Note_on_c, 9, 35, 0
1, 82560, Note_on_c, 9, 51, 127
1, 82560, Note_on_c, 9, 35, 127
1, 83039, Note_on_c, 9, 51, 0
1, 83039, Note_on_c, 9, 35, 0
1, 83040, Note_on_c, 9, 51, 127
1, 83519, Note_on_c, 9, 51, 0
1, 83520, Note_on_c, 9, 38, 127
1, 83520, Note_on_c, 9, 51, 127
1, 83999, Note_on_c, 9, 38, 0
1, 83999, Note_on_c, 9, 51, 0
1, 84000, Note_on_c, 9, 51, 127
1, 84320, Note_on_c, 9, 35, 127
1, 84479, Note_on_c, 9, 51, 0
1, 84479, Note_on_c, 9, 35, 0
1, 84480, Note_on_c, 9, 51, 127
1, 84480, Note_on_c, 9, 35, 127
1, 84719, Note_on_c, 9, 51, 0
1, 84800, Note_on_c, 9, 38, 127
1, 84959, Note_on_c, 9, 35, 0
1, 84959, Note_on_c, 9, 38, 0
1, 84960, Note_on_c, 9, 51, 127
1, 85439, Note_on_c, 9, 51, 0
1, 85440, Note_on_c, 9, 38, 127
1, 85440, Note_on_c, 9, 51, 127
1, 85919, Note_on_c, 9, 38, 0
1, 85919, Note_on_c, 9, 51, 0
1, 85920, Note_on_c, 9, 51, 127
1, 86240, Note_on_c, 9, 35, 127
1, 86399, Note_on_c, 9, 51, 0
1, 86399, Note_on_c, 9, 35, 0
1, 86400, Note_on_c, 9, 51, 127
1, 86400, Note_on_c, 9, 35, 127
1, 86879, Note_on_c, 9, 51, 0
1, 86879, Note_on_c, 9, 35, 0
1, 86880, Note_on_c, 9, 51, 127
1, 87359, Note_on_c, 9, 51, 0
1, 87360, Note_on_c, 9, 38, 127
1, 87360, Note_on_c, 9, 51, 127
1, 87839, Note_on_c, 9, 38, 0
1, 87839, Note_on_c, 9, 51, 0
1, 87840, Note_on_c, 9, 51, 127
1, 88160, Note_on_c, 9, 35, 127
1, 88319, Note_on_c, 9, 51, 0
1, 88319, Note_on_c, 9, 35, 0
1, 88320, Note_on_c, 9, 51, 127
1, 88320, Note_on_c, 9, 35, 127
1, 88799, Note_on_c, 9, 51, 0
1, 88799, Note_on_c, 9, 35, 0
1, 88800, Note_on_c, 9, 51, 127
1, 89279, Note_on_c, 9, 51, 0
1, 89280, Note_on_c, 9, 38, 127
1, 89280, Note_on_c, 9, 46, 127
1, 89280, Note_on_c, 9, 51, 127
1, 89519, Note_on_c, 9, 38, 0
1, 89519, Note_on_c, 9, 46, 0
1, 89519, Note_on_c, 9, 51, 0
1, 89600, Note_on_c, 9, 38, 127
1, 89759, Note_on_c, 9, 38, 0
1, 89760, Note_on_c, 9, 51, 127
1, 90080, Note_on_c, 9, 35, 127
1, 90239, Note_on_c, 9, 51, 0
1, 90239, Note_on_c, 9, 35, 0
1, 90240, Note_on_c, 9, 51, 127
1, 90240, Note_on_c, 9, 35, 127
1, 90479, Note_on_c, 9, 51, 0
1, 90560, Note_on_c, 9, 38, 127
1, 90719, Note_on_c, 9, 35, 0
1, 90719, Note_on_c, 9, 38, 0
1, 90720, Note_on_c, 9, 51, 127
1, 91199, Note_on_c, 9, 51, 0
1, 91200, Note_on_c, 9, 38, 127
1, 91200, Note_on_c, 9, 51, 127
1, 91679, Note_on_c, 9, 38, 0
1, 91679, Note_on_c, 9, 51, 0
1, 91680, Note_on_c, 9, 51, 127
1, 91919, Note_on_c, 9, 51, 0
1, 92000, Note_on_c, 9, 51, 127
1, 92000, Note_on_c, 9, 35, 127
1, 92159, Note_on_c, 9, 51, 0
1, 92159, Note_on_c, 9, 35, 0
1, 92160, Note_on_c, 9, 51, 127
1, 92160, Note_on_c, 9, 35, 127
1, 92639, Note_on_c, 9, 51, 0
1, 92639, Note_on_c, 9, 35, 0
1, 92640, Note_on_c, 9, 51, 127
1, 93119, Note_on_c, 9, 51, 0
1, 93120, Note_on_c, 9, 38, 127
1, 93120, Note_on_c, 9, 51, 127
1, 93599, Note_on_c, 9, 38, 0
1, 93599, Note_on_c, 9, 51, 0
1, 93600, Note_on_c, 9, 51, 127
1, 93600, Note_on_c, 9, 35, 127
1, 94079, Note_on_c, 9, 51, 0
1, 94079, Note_on_c, 9, 35, 0
1, 96000, Note_on_c, 9, 51, 127
1, 96000, Note_on_c, 9, 35, 127
1, 96479, Note_on_c, 9, 51, 0
1, 96479, Note_on_c, 9, 35, 0
1, 96480, Note_on_c, 9, 51, 127
1, 96719, Note_on_c, 9, 51, 0
1, 96800, Note_on_c, 9, 38, 127
1, 96959, Note_on_c, 9, 38, 0
1, 96960, Note_on_c, 9, 38, 127
1, 96960, Note_on_c, 9, 51, 127
1, 97199, Note_on_c, 9, 38, 0
1, 97199, Note_on_c, 9, 51, 0
1, 97280, Note_on_c, 9, 45, 127
1, 97439, Note_on_c, 9, 45, 0
1, 97440, Note_on_c, 9, 51, 127
1, 97599, Note_on_c, 9, 51, 0
1, 97600, Note_on_c, 9, 38, 127
1, 97679, Note_on_c, 9, 38, 0
1, 97760, Note_on_c, 9, 35, 127
1, 97919, Note_on_c, 9, 35, 0
1, 97920, Note_on_c, 9, 51, 127
1, 97920, Note_on_c, 9, 49, 127
1, 97920, Note_on_c, 9, 35, 127
1, 98399, Note_on_c, 9, 51, 0
1, 98399, Note_on_c, 9, 49, 0
1, 98399, Note_on_c, 9, 35, 0
1, 98400, Note_on_c, 9, 51, 127
1, 98639, Note_on_c, 9, 51, 0
1, 98720, Note_on_c, 9, 51, 127
1, 98879, Note_on_c, 9, 51, 0
1, 98880, Note_on_c, 9, 38, 127
1, 98880, Note_on_c, 9, 51, 127
1, 99359, Note_on_c, 9, 38, 0
1, 99359, Note_on_c, 9, 51, 0
1, 99360, Note_on_c, 9, 51, 127
1, 99599, Note_on_c, 9, 51, 0
1, 99680, Note_on_c, 9, 38, 127
1, 99839, Note_on_c, 9, 38, 0
1, 99840, Note_on_c, 9, 51, 127
1, 99840, Note_on_c, 9, 35, 127
1, 100319, Note_on_c, 9, 51, 0
1, 100319, Note_on_c, 9, 35, 0
1, 100320, Note_on_c, 9, 51, 127
1, 100559, Note_on_c, 9, 51, 0
1, 100640, Note_on_c, 9, 51, 127
1, 100799, Note_on_c, 9, 51, 0
1, 100800, Note_on_c, 9, 38, 127
1, 100800, Note_on_c, 9, 51, 127
1, 101279, Note_on_c, 9, 38, 0
1, 101279, Note_on_c, 9, 51, 0
1, 101280, Note_on_c, 9, 51, 127
1, 101519, Note_on_c, 9, 51, 0
1, 101600, Note_on_c, 9, 38, 127
1, 101759, Note_on_c, 9, 38, 0
1, 101760, Note_on_c, 9, 51, 127
1, 101760, Note_on_c, 9, 35, 127
1, 102239, Note_on_c, 9, 51, 0
1, 102239, Note_on_c, 9, 35, 0
1, 102240, Note_on_c, 9, 51, 127
1, 102479, Note_on_c, 9, 51, 0
1, 102560, Note_on_c, 9, 51, 127
1, 102719, Note_on_c, 9, 51, 0
1, 102720, Note_on_c, 9, 38, 127
1, 102720, Note_on_c, 9, 51, 127
1, 103199, Note_on_c, 9, 38, 0
1, 103199, Note_on_c, 9, 51, 0
1, 103200, Note_on_c, 9, 51, 127
1, 103439, Note_on_c, 9, 51, 0
1, 103520, Note_on_c, 9, 38, 127
1, 103679, Note_on_c, 9, 38, 0
1, 103680, Note_on_c, 9, 51, 127
1, 103680, Note_on_c, 9, 35, 127
1, 103919, Note_on_c, 9, 51, 0
1, 104000, Note_on_c, 9, 46, 127
1, 104159, Note_on_c, 9, 35, 0
1, 104159, Note_on_c, 9, 46, 0
1, 104160, Note_on_c, 9, 51, 127
1, 104160, Note_on_c, 9, 42, 127
1, 104399, Note_on_c, 9, 51, 0
1, 104399, Note_on_c, 9, 42, 0
1, 104480, Note_on_c, 9, 51, 127
1, 104639, Note_on_c, 9, 51, 0
1, 104640, Note_on_c, 9, 38, 127
1, 104640, Note_on_c, 9, 51, 127
1, 105119, Note_on_c, 9, 38, 0
1, 105119, Note_on_c, 9, 51, 0
1, 105120, Note_on_c, 9, 51, 127
1, 105359, Note_on_c, 9, 51, 0
1, 105440, Note_on_c, 9, 51, 127
1, 105440, Note_on_c, 9, 35, 127
1, 105599, Note_on_c, 9, 51, 0
1, 105599, Note_on_c, 9, 35, 0
1, 105600, Note_on_c, 9, 51, 127
1, 105600, Note_on_c, 9, 35, 127
1, 106079, Note_on_c, 9, 51, 0
1, 106079, Note_on_c, 9, 35, 0
1, 106080, Note_on_c, 9, 51, 127
1, 106319, Note_on_c, 9, 51, 0
1, 106400, Note_on_c, 9, 51, 127
1, 106559, Note_on_c, 9, 51, 0
1, 106560, Note_on_c, 9, 38, 127
1, 106560, Note_on_c, 9, 51, 127
1, 107039, Note_on_c, 9, 38, 0
1, 107039, Note_on_c, 9, 51, 0
1, 107040, Note_on_c, 9, 51, 127
1, 107279, Note_on_c, 9, 51, 0
1, 107360, Note_on_c, 9, 38, 127
1, 107360, Note_on_c, 9, 51, 127
1, 107519, Note_on_c, 9, 38, 0
1, 107519, Note_on_c, 9, 51, 0
1, 107520, Note_on_c, 9, 51, 127
1, 107520, Note_on_c, 9, 35, 127
1, 107759, Note_on_c, 9, 51, 0
1, 107840, Note_on_c, 9, 46, 127
1, 107999, Note_on_c, 9, 35, 0
1, 107999, Note_on_c, 9, 46, 0
1, 108000, Note_on_c, 9, 51, 127
1, 108000, Note_on_c, 9, 42, 127
1, 108239, Note_on_c, 9, 51, 0
1, 108239, Note_on_c, 9, 42, 0
1, 108320, Note_on_c, 9, 51, 127
1, 108479, Note_on_c, 9, 51, 0
1, 108480, Note_on_c, 9, 38, 127
1, 108480, Note_on_c, 9, 51, 127
1, 108959, Note_on_c, 9, 38, 0
1, 108959, Note_on_c, 9, 51, 0
1, 108960, Note_on_c, 9, 51, 127
1, 109199, Note_on_c, 9, 51, 0
1, 109280, Note_on_c, 9, 51, 127
1, 109280, Note_on_c, 9, 35, 127
1, 109439, Note_on_c, 9, 51, 0
1, 109439, Note_on_c, 9, 35, 0
1, 109440, Note_on_c, 9, 51, 127
1, 109440, Note_on_c, 9, 35, 127
1, 109919, Note_on_c, 9, 51, 0
1, 109919, Note_on_c, 9, 35, 0
1, 109920, Note_on_c, 9, 51, 127
1, 110159, Note_on_c, 9, 51, 0
1, 110240, Note_on_c, 9, 51, 127
1, 110399, Note_on_c, 9, 51, 0
1, 110400, Note_on_c, 9, 38, 127
1, 110400, Note_on_c, 9, 51, 127
1, 110879, Note_on_c, 9, 38, 0
1, 110879, Note_on_c, 9, 51, 0
1, 110880, Note_on_c, 9, 51, 127
1, 111119, Note_on_c, 9, 51, 0
1, 111200, Note_on_c, 9, 38, 127
1, 111359, Note_on_c, 9, 38, 0
1, 111360, Note_on_c, 9, 51, 127
1, 111360, Note_on_c, 9, 35, 127
1, 111839, Note_on_c, 9, 51, 0
1, 111839, Note_on_c, 9, 35, 0
1, 111840, Note_on_c, 9, 51, 127
1, 112199, Note_on_c, 9, 51, 0
1, 112200, Note_on_c, 9, 38, 127
1, 112319, Note_on_c, 9, 38, 0
1, 112320, Note_on_c, 9, 38, 127
1, 112320, Note_on_c, 9, 51, 127
1, 112559, Note_on_c, 9, 38, 0
1, 112559, Note_on_c, 9, 51, 0
1, 112560, Note_on_c, 9, 38, 127
1, 112799, Note_on_c, 9, 38, 0
1, 112800, Note_on_c, 9, 38, 127
1, 112800, Note_on_c, 9, 51, 127
1, 112919, Note_on_c, 9, 38, 0
1, 112919, Note_on_c, 9, 51, 0
1, 112920, Note_on_c, 9, 38, 127
1, 113159, Note_on_c, 9, 38, 0
1, 113160, Note_on_c, 9, 51, 127
1, 113279, Note_on_c, 9, 51, 0
1, 113280, Note_on_c, 9, 51, 127
1, 113280, Note_on_c, 9, 35, 127
1, 113759, Note_on_c, 9, 51, 0
1, 113759, Note_on_c, 9, 35, 0
1, 113760, Note_on_c, 9, 51, 127
1, 113999, Note_on_c, 9, 51, 0
1, 114080, Note_on_c, 9, 51, 127
1, 114239, Note_on_c, 9, 51, 0
1, 114240, Note_on_c, 9, 38, 127
1, 114240, Note_on_c, 9, 51, 127
1, 114719, Note_on_c, 9, 38, 0
1, 114719, Note_on_c, 9, 51, 0
1, 114720, Note_on_c, 9, 51, 127
1, 114959, Note_on_c, 9, 51, 0
1, 115040, Note_on_c, 9, 38, 127
1, 115199, Note_on_c, 9, 38, 0
1, 115200, Note_on_c, 9, 51, 127
1, 115200, Note_on_c, 9, 35, 127
1, 115439, Note_on_c, 9, 51, 0
1, 115520, Note_on_c, 9, 46, 127
1, 115679, Note_on_c, 9, 35, 0
1, 115679, Note_on_c, 9, 46, 0
1, 115680, Note_on_c, 9, 51, 127
1, 115680, Note_on_c, 9, 42, 127
1, 115919, Note_on_c, 9, 51, 0
1, 115919, Note_on_c, 9, 42, 0
1, 116000, Note_on_c, 9, 51, 127
1, 116159, Note_on_c, 9, 51, 0
1, 116160, Note_on_c, 9, 38, 127
1, 116160, Note_on_c, 9, 51, 127
1, 116639, Note_on_c, 9, 38, 0
1, 116639, Note_on_c, 9, 51, 0
1, 116640, Note_on_c, 9, 51, 127
1, 116879, Note_on_c, 9, 51, 0
1, 116960, Note_on_c, 9, 51, 127
1, 116960, Note_on_c, 9, 35, 127
1, 117119, Note_on_c, 9, 51, 0
1, 117119, Note_on_c, 9, 35, 0
1, 117120, Note_on_c, 9, 51, 127
1, 117120, Note_on_c, 9, 35, 127
1, 117599, Note_on_c, 9, 51, 0
1, 117599, Note_on_c, 9, 35, 0
1, 117600, Note_on_c, 9, 51, 127
1, 117839, Note_on_c, 9, 51, 0
1, 117920, Note_on_c, 9, 51, 127
1, 118079, Note_on_c, 9, 51, 0
1, 118080, Note_on_c, 9, 38, 127
1, 118080, Note_on_c, 9, 51, 127
1, 118559, Note_on_c, 9, 38, 0
1, 118559, Note_on_c, 9, 51, 0
1, 118560, Note_on_c, 9, 51, 127
1, 118799, Note_on_c, 9, 51, 0
1, 118880, Note_on_c, 9, 38, 127
1, 119039, Note_on_c, 9, 38, 0
1, 119040, Note_on_c, 9, 51, 127
1, 119040, Note_on_c, 9, 35, 127
1, 119519, Note_on_c, 9, 51, 0
1, 119519, Note_on_c, 9, 35, 0
1, 119520, Note_on_c, 9, 51, 127
1, 119759, Note_on_c, 9, 51, 0
1, 119840, Note_on_c, 9, 51, 127
1, 119999, Note_on_c, 9, 51, 0
1, 120000, Note_on_c, 9, 38, 127
1, 120000, Note_on_c, 9, 51, 127
1, 120239, Note_on_c, 9, 38, 0
1, 120239, Note_on_c, 9, 51, 0
1, 120320, Note_on_c, 9, 51, 127
1, 120479, Note_on_c, 9, 51, 0
1, 120480, Note_on_c, 9, 51, 127
1, 120719, Note_on_c, 9, 51, 0
1, 120800, Note_on_c, 9, 38, 127
1, 120959, Note_on_c, 9, 38, 0
1, 120960, Note_on_c, 9, 51, 127
1, 120960, Note_on_c, 9, 35, 127
1, 121439, Note_on_c, 9, 51, 0
1, 121439, Note_on_c, 9, 35, 0
1, 121440, Note_on_c, 9, 51, 127
1, 121679, Note_on_c, 9, 51, 0
1, 121760, Note_on_c, 9, 38, 127
1, 121919, Note_on_c, 9, 38, 0
1, 121920, Note_on_c, 9, 38, 127
1, 121920, Note_on_c, 9, 51, 127
1, 122159, Note_on_c, 9, 38, 0
1, 122159, Note_on_c, 9, 51, 0
1, 122240, Note_on_c, 9, 45, 127
1, 122399, Note_on_c, 9, 45, 0
1, 122400, Note_on_c, 9, 51, 127
1, 122559, Note_on_c, 9, 51, 0
1, 122560, Note_on_c, 9, 38, 127
1, 122639, Note_on_c, 9, 38, 0
1, 122720, Note_on_c, 9, 35, 127
1, 122879, Note_on_c, 9, 35, 0
1, 122880, Note_on_c, 9, 51, 127
1, 122880, Note_on_c, 9, 49, 127
1, 122880, Note_on_c, 9, 35, 127
1, 123359, Note_on_c, 9, 51, 0
1, 123359, Note_on_c, 9, 49, 0
1, 123359, Note_on_c, 9, 35, 0
1, 123360, Note_on_c, 9, 51, 127
1, 123839, Note_on_c, 9, 51, 0
1, 123840, Note_on_c, 9, 38, 127
1, 123840, Note_on_c, 9, 51, 127
1, 124319, Note_on_c, 9, 38, 0
1, 124319, Note_on_c, 9, 51, 0
1, 124320, Note_on_c, 9, 51, 127
1, 124640, Note_on_c, 9, 35, 127
1, 124799, Note_on_c, 9, 51, 0
1, 124799, Note_on_c, 9, 35, 0
1, 124800, Note_on_c, 9, 51, 127
1, 124800, Note_on_c, 9, 35, 127
1, 125279, Note_on_c, 9, 51, 0
1, 125279, Note_on_c, 9, 35, 0
1, 125280, Note_on_c, 9, 51, 127
1, 125759, Note_on_c, 9, 51, 0
1, 125760, Note_on_c, 9, 38, 127
1, 125760, Note_on_c, 9, 51, 127
1, 126239, Note_on_c, 9, 38, 0
1, 126239, Note_on_c, 9, 51, 0
1, 126240, Note_on_c, 9, 51, 127
1, 126560, Note_on_c, 9, 35, 127
1, 126719, Note_on_c, 9, 51, 0
1, 126719, Note_on_c, 9, 35, 0
1, 126720, Note_on_c, 9, 51, 127
1, 126720, Note_on_c, 9, 35, 127
1, 127199, Note_on_c, 9, 51, 0
1, 127199, Note_on_c, 9, 35, 0
1, 127200, Note_on_c, 9, 51, 127
1, 127679, Note_on_c, 9, 51, 0
1, 127680, Note_on_c, 9, 38, 127
1, 127680, Note_on_c, 9, 51, 127
1, 128159, Note_on_c, 9, 38, 0
1, 128159, Note_on_c, 9, 51, 0
1, 128160, Note_on_c, 9, 51, 127
1, 128480, Note_on_c, 9, 35, 127
1, 128639, Note_on_c, 9, 51, 0
1, 128639, Note_on_c, 9, 35, 0
1, 128640, Note_on_c, 9, 51, 127
1, 128640, Note_on_c, 9, 35, 127
1, 129119, Note_on_c, 9, 51, 0
1, 129119, Note_on_c, 9, 35, 0
1, 129120, Note_on_c, 9, 51, 127
1, 129599, Note_on_c, 9, 51, 0
1, 129600, Note_on_c, 9, 38, 127
1, 129600, Note_on_c, 9, 51, 127
1, 130079, Note_on_c, 9, 38, 0
1, 130079, Note_on_c, 9, 51, 0
1, 130080, Note_on_c, 9, 51, 127
1, 130080, Note_on_c, 9, 35, 127
1, 130559, Note_on_c, 9, 51, 0
1, 130559, Note_on_c, 9, 35, 0
1, 130560, Note_on_c, 9, 51, 127
1, 130560, Note_on_c, 9, 35, 127
1, 130719, Note_on_c, 9, 51, 0
1, 130720, Note_on_c, 9, 51, 127
1, 130799, Note_on_c, 9, 51, 0
1, 131039, Note_on_c, 9, 35, 0
1, 131040, Note_on_c, 9, 51, 127
1, 131519, Note_on_c, 9, 51, 0
1, 131520, Note_on_c, 9, 38, 127
1, 131520, Note_on_c, 9, 51, 127
1, 131999, Note_on_c, 9, 38, 0
1, 131999, Note_on_c, 9, 51, 0
1, 132000, Note_on_c, 9, 51, 127
1, 132239, Note_on_c, 9, 51, 0
1, 132320, Note_on_c, 9, 51, 127
1, 132320, Note_on_c, 9, 35, 127
1, 132479, Note_on_c, 9, 51, 0
1, 132479, Note_on_c, 9, 35, 0
1, 132480, Note_on_c, 9, 51, 127
1, 132480, Note_on_c, 9, 35, 127
1, 132959, Note_on_c, 9, 51, 0
1, 132959, Note_on_c, 9, 35, 0
1, 132960, Note_on_c, 9, 51, 127
1, 133199, Note_on_c, 9, 51, 0
1, 133280, Note_on_c, 9, 38, 127
1, 133439, Note_on_c, 9, 38, 0
1, 133440, Note_on_c, 9, 38, 127
1, 133440, Note_on_c, 9, 51, 127
1, 133919, Note_on_c, 9, 38, 0
1, 133919, Note_on_c, 9, 51, 0
1, 133920, Note_on_c, 9, 51, 127
1, 134240, Note_on_c, 9, 35, 127
1, 134399, Note_on_c, 9, 51, 0
1, 134399, Note_on_c, 9, 35, 0
1, 134400, Note_on_c, 9, 51, 127
1, 134400, Note_on_c, 9, 35, 127
1, 134879, Note_on_c, 9, 51, 0
1, 134879, Note_on_c, 9, 35, 0
1, 134880, Note_on_c, 9, 51, 127
1, 135359, Note_on_c, 9, 51, 0
1, 135360, Note_on_c, 9, 38, 127
1, 135360, Note_on_c, 9, 51, 127
1, 135839, Note_on_c, 9, 38, 0
1, 135839, Note_on_c, 9, 51, 0
1, 135840, Note_on_c, 9, 51, 127
1, 136160, Note_on_c, 9, 35, 127
1, 136319, Note_on_c, 9, 51, 0
1, 136319, Note_on_c, 9, 35, 0
1, 136320, Note_on_c, 9, 51, 127
1, 136320, Note_on_c, 9, 35, 127
1, 136799, Note_on_c, 9, 51, 0
1, 136799, Note_on_c, 9, 35, 0
1, 136800, Note_on_c, 9, 51, 127
1, 137039, Note_on_c, 9, 51, 0
1, 137120, Note_on_c, 9, 38, 127
1, 137279, Note_on_c, 9, 38, 0
1, 137280, Note_on_c, 9, 38, 127
1, 137280, Note_on_c, 9, 51, 127
1, 137759, Note_on_c, 9, 38, 0
1, 137759, Note_on_c, 9, 51, 0
1, 137760, Note_on_c, 9, 51, 127
1, 137999, Note_on_c, 9, 51, 0
1, 138080, Note_on_c, 9, 51, 127
1, 138080, Note_on_c, 9, 35, 127
1, 138239, Note_on_c, 9, 51, 0
1, 138239, Note_on_c, 9, 35, 0
1, 138240, Note_on_c, 9, 51, 126
1, 138240, Note_on_c, 9, 35, 126
1, 138719, Note_on_c, 9, 51, 0
1, 138719, Note_on_c, 9, 35, 0
1, 138720, Note_on_c, 9, 51, 126
1, 139199, Note_on_c, 9, 51, 0
1, 139200, Note_on_c, 9, 38, 126
1, 139200, Note_on_c, 9, 51, 126
1, 139679, Note_on_c, 9, 38, 0
1, 139679, Note_on_c, 9, 51, 0
1, 139680, Note_on_c, 9, 51, 126
1, 139919, Note_on_c, 9, 51, 0
1, 140000, Note_on_c, 9, 51, 126
1, 140000, Note_on_c, 9, 35, 126
1, 140159, Note_on_c, 9, 51, 0
1, 140159, Note_on_c, 9, 35, 0
1, 140160, Note_on_c, 9, 51, 126
1, 140160, Note_on_c, 9, 35, 126
1, 140319, Note_on_c, 9, 51, 0
1, 140320, Note_on_c, 9, 51, 126
1, 140399, Note_on_c, 9, 51, 0
1, 140639, Note_on_c, 9, 35, 0
1, 140640, Note_on_c, 9, 51, 126
1, 141119, Note_on_c, 9, 51, 0
1, 141120, Note_on_c, 9, 38, 126
1, 141120, Note_on_c, 9, 51, 126
1, 141599, Note_on_c, 9, 38, 0
1, 141599, Note_on_c, 9, 51, 0
1, 141600, Note_on_c, 9, 51, 126
1, 141839, Note_on_c, 9, 51, 0
1, 141920, Note_on_c, 9, 51, 126
1, 141920, Note_on_c, 9, 35, 126
1, 142079, Note_on_c, 9, 51, 0
1, 142079, Note_on_c, 9, 35, 0
1, 142080, Note_on_c, 9, 51, 126
1, 142080, Note_on_c, 9, 35, 126
1, 142559, Note_on_c, 9, 51, 0
1, 142559, Note_on_c, 9, 35, 0
1, 142560, Note_on_c, 9, 51, 126
1, 143039, Note_on_c, 9, 51, 0
1, 143040, Note_on_c, 9, 38, 126
1, 143040, Note_on_c, 9, 51, 126
1, 143519, Note_on_c, 9, 38, 0
1, 143519, Note_on_c, 9, 51, 0
1, 143520, Note_on_c, 9, 51, 126
1, 143840, Note_on_c, 9, 35, 126
1, 143999, Note_on_c, 9, 51, 0
1, 143999, Note_on_c, 9, 35, 0
1, 144000, Note_on_c, 9, 51, 126
1, 144000, Note_on_c, 9, 35, 126
1, 144479, Note_on_c, 9, 51, 0
1, 144479, Note_on_c, 9, 35, 0
1, 144480, Note_on_c, 9, 51, 126
1, 144959, Note_on_c, 9, 51, 0
1, 144960, Note_on_c, 9, 38, 126
1, 144960, Note_on_c, 9, 46, 126
1, 144960, Note_on_c, 9, 51, 126
1, 145199, Note_on_c, 9, 38, 0
1, 145199, Note_on_c, 9, 46, 0
1, 145199, Note_on_c, 9, 51, 0
1, 145280, Note_on_c, 9, 38, 126
1, 145439, Note_on_c, 9, 38, 0
1, 145440, Note_on_c, 9, 51, 126
1, 145760, Note_on_c, 9, 35, 126
1, 145919, Note_on_c, 9, 51, 0
1, 145919, Note_on_c, 9, 35, 0
1, 145920, Note_on_c, 9, 51, 126
1, 145920, Note_on_c, 9, 35, 126
1, 146399, Note_on_c, 9, 51, 0
1, 146399, Note_on_c, 9, 35, 0
1, 146400, Note_on_c, 9, 51, 126
1, 146879, Note_on_c, 9, 51, 0
1, 146880, Note_on_c, 9, 38, 126
1, 146880, Note_on_c, 9, 51, 126
1, 147359, Note_on_c, 9, 38, 0
1, 147359, Note_on_c, 9, 51, 0
1, 147360, Note_on_c, 9, 51, 126
1, 147680, Note_on_c, 9, 35, 126
1, 147839, Note_on_c, 9, 51, 0
1, 147839, Note_on_c, 9, 35, 0
1, 147840, Note_on_c, 9, 51, 126
1, 147840, Note_on_c, 9, 35, 126
1, 148319, Note_on_c, 9, 51, 0
1, 148319, Note_on_c, 9, 35, 0
1, 148320, Note_on_c, 9, 51, 126
1, 148799, Note_on_c, 9, 51, 0
1, 148800, Note_on_c, 9, 38, 126
1, 148800, Note_on_c, 9, 51, 126
1, 149279, Note_on_c, 9, 38, 0
1, 149279, Note_on_c, 9, 51, 0
1, 149280, Note_on_c, 9, 51, 126
1, 149519, Note_on_c, 9, 51, 0
1, 149600, Note_on_c, 9, 51, 126
1, 149600, Note_on_c, 9, 35, 126
1, 149759, Note_on_c, 9, 51, 0
1, 149759, Note_on_c, 9, 35, 0
1, 149760, Note_on_c, 9, 51, 126
1, 149760, Note_on_c, 9, 35, 126
1, 149999, Note_on_c, 9, 51, 0
1, 150080, Note_on_c, 9, 38, 126
1, 150239, Note_on_c, 9, 35, 0
1, 150239, Note_on_c, 9, 38, 0
1, 150240, Note_on_c, 9, 51, 126
1, 150719, Note_on_c, 9, 51, 0
1, 150720, Note_on_c, 9, 38, 126
1, 150720, Note_on_c, 9, 51, 126
1, 151199, Note_on_c, 9, 38, 0
1, 151199, Note_on_c, 9, 51, 0
1, 151200, Note_on_c, 9, 51, 126
1, 151520, Note_on_c, 9, 35, 126
1, 151679, Note_on_c, 9, 51, 0
1, 151679, Note_on_c, 9, 35, 0
1, 151680, Note_on_c, 9, 51, 126
1, 151680, Note_on_c, 9, 35, 126
1, 152159, Note_on_c, 9, 51, 0
1, 152159, Note_on_c, 9, 35, 0
1, 152160, Note_on_c, 9, 51, 126
1, 152639, Note_on_c, 9, 51, 0
1, 152640, Note_on_c, 9, 38, 126
1, 152640, Note_on_c, 9, 51, 126
1, 153119, Note_on_c, 9, 38, 0
1, 153119, Note_on_c, 9, 51, 0
1, 153120, Note_on_c, 9, 51, 126
1, 153120, Note_on_c, 9, 35, 126
1, 153599, Note_on_c, 9, 51, 0
1, 153599, Note_on_c, 9, 35, 0
1, 153600, Note_on_c, 9, 51, 126
1, 153600, Note_on_c, 9, 35, 126
1, 154079, Note_on_c, 9, 51, 0
1, 154079, Note_on_c, 9, 35, 0
1, 154080, Note_on_c, 9, 51, 126
1, 154559, Note_on_c, 9, 51, 0
1, 154560, Note_on_c, 9, 38, 126
1, 154560, Note_on_c, 9, 51, 126
1, 155039, Note_on_c, 9, 38, 0
1, 155039, Note_on_c, 9, 51, 0
1, 155040, Note_on_c, 9, 51, 126
1, 155360, Note_on_c, 9, 35, 126
1, 155519, Note_on_c, 9, 51, 0
1, 155519, Note_on_c, 9, 35, 0
1, 155520, Note_on_c, 9, 51, 127
1, 155520, Note_on_c, 9, 35, 127
1, 155999, Note_on_c, 9, 51, 0
1, 155999, Note_on_c, 9, 35, 0
1, 156000, Note_on_c, 9, 51, 127
1, 156239, Note_on_c, 9, 51, 0
1, 156320, Note_on_c, 9, 38, 127
1, 156479, Note_on_c, 9, 38, 0
1, 156480, Note_on_c, 9, 38, 127
1, 156480, Note_on_c, 9, 51, 127
1, 156719, Note_on_c, 9, 38, 0
1, 156719, Note_on_c, 9, 51, 0
1, 156800, Note_on_c, 9, 45, 127
1, 156959, Note_on_c, 9, 45, 0
1, 156960, Note_on_c, 9, 51, 127
1, 157119, Note_on_c, 9, 51, 0
1, 157120, Note_on_c, 9, 38, 127
1, 157199, Note_on_c, 9, 38, 0
1, 157280, Note_on_c, 9, 35, 127
1, 157439, Note_on_c, 9, 35, 0
1, 157440, Note_on_c, 9, 51, 127
1, 157440, Note_on_c, 9, 49, 127
1, 157440, Note_on_c, 9, 35, 127
1, 157919, Note_on_c, 9, 51, 0
1, 157919, Note_on_c, 9, 49, 0
1, 157919, Note_on_c, 9, 35, 0
1, 157920, Note_on_c, 9, 51, 127
1, 158159, Note_on_c, 9, 51, 0
1, 158240, Note_on_c, 9, 51, 127
1, 158399, Note_on_c, 9, 51, 0
1, 158400, Note_on_c, 9, 38, 127
1, 158400, Note_on_c, 9, 51, 127
1, 158879, Note_on_c, 9, 38, 0
1, 158879, Note_on_c, 9, 51, 0
1, 158880, Note_on_c, 9, 51, 127
1, 159119, Note_on_c, 9, 51, 0
1, 159200, Note_on_c, 9, 38, 127
1, 159359, Note_on_c, 9, 38, 0
1, 159360, Note_on_c, 9, 51, 125
1, 159360, Note_on_c, 9, 35, 125
1, 159599, Note_on_c, 9, 51, 0
1, 159680, Note_on_c, 9, 46, 125
1, 159839, Note_on_c, 9, 35, 0
1, 159839, Note_on_c, 9, 46, 0
1, 159840, Note_on_c, 9, 51, 125
1, 159840, Note_on_c, 9, 42, 125
1, 160079, Note_on_c, 9, 51, 0
1, 160079, Note_on_c, 9, 42, 0
1, 160160, Note_on_c, 9, 51, 125
1, 160319, Note_on_c, 9, 51, 0
1, 160320, Note_on_c, 9, 38, 125
1, 160320, Note_on_c, 9, 51, 125
1, 160799, Note_on_c, 9, 38, 0
1, 160799, Note_on_c, 9, 51, 0
1, 160800, Note_on_c, 9, 51, 125
1, 161039, Note_on_c, 9, 51, 0
1, 161120, Note_on_c, 9, 51, 125
1, 161120, Note_on_c, 9, 35, 125
1, 161279, Note_on_c, 9, 51, 0
1, 161279, Note_on_c, 9, 35, 0
1, 161280, Note_on_c, 9, 51, 125
1, 161280, Note_on_c, 9, 35, 125
1, 161759, Note_on_c, 9, 51, 0
1, 161759, Note_on_c, 9, 35, 0
1, 161760, Note_on_c, 9, 51, 125
1, 161999, Note_on_c, 9, 51, 0
1, 162080, Note_on_c, 9, 51, 125
1, 162239, Note_on_c, 9, 51, 0
1, 162240, Note_on_c, 9, 38, 125
1, 162240, Note_on_c, 9, 51, 125
1, 162719, Note_on_c, 9, 38, 0
1, 162719, Note_on_c, 9, 51, 0
1, 162720, Note_on_c, 9, 51, 125
1, 162959, Note_on_c, 9, 51, 0
1, 163040, Note_on_c, 9, 38, 125
1, 163199, Note_on_c, 9, 38, 0
1, 163200, Note_on_c, 9, 51, 125
1, 163200, Note_on_c, 9, 35, 125
1, 163679, Note_on_c, 9, 51, 0
1, 163679, Note_on_c, 9, 35, 0
1, 163680, Note_on_c, 9, 51, 125
1, 163919, Note_on_c, 9, 51, 0
1, 164000, Note_on_c, 9, 51, 125
1, 164159, Note_on_c, 9, 51, 0
1, 164160, Note_on_c, 9, 38, 125
1, 164160, Note_on_c, 9, 51, 125
1, 164639, Note_on_c, 9, 38, 0
1, 164639, Note_on_c, 9, 51, 0
1, 164640, Note_on_c, 9, 51, 125
1, 164879, Note_on_c, 9, 51, 0
1, 164960, Note_on_c, 9, 38, 125
1, 165119, Note_on_c, 9, 38, 0
1, 165120, Note_on_c, 9, 51, 125
1, 165120, Note_on_c, 9, 35, 125
1, 165599, Note_on_c, 9, 51, 0
1, 165599, Note_on_c, 9, 35, 0
1, 165600, Note_on_c, 9, 51, 125
1, 165839, Note_on_c, 9, 51, 0
1, 165920, Note_on_c, 9, 51, 125
1, 166079, Note_on_c, 9, 51, 0
1, 166080, Note_on_c, 9, 38, 125
1, 166080, Note_on_c, 9, 51, 125
1, 166559, Note_on_c, 9, 38, 0
1, 166559, Note_on_c, 9, 51, 0
1, 166560, Note_on_c, 9, 51, 125
1, 166799, Note_on_c, 9, 51, 0
1, 166880, Note_on_c, 9, 38, 125
1, 166880, Note_on_c, 9, 51, 125
1, 167039, Note_on_c, 9, 38, 0
1, 167039, Note_on_c, 9, 51, 0
1, 167040, Note_on_c, 9, 51, 125
1, 167040, Note_on_c, 9, 35, 125
1, 167199, Note_on_c, 9, 51, 0
1, 167200, Note_on_c, 9, 51, 125
1, 167279, Note_on_c, 9, 35, 0
1, 167279, Note_on_c, 9, 51, 0
1, 167360, Note_on_c, 9, 35, 125
1, 167519, Note_on_c, 9, 35, 0
1, 167520, Note_on_c, 9, 51, 125
1, 167759, Note_on_c, 9, 51, 0
1, 167840, Note_on_c, 9, 51, 125
1, 167999, Note_on_c, 9, 51, 0
1, 168000, Note_on_c, 9, 38, 125
1, 168000, Note_on_c, 9, 51, 125
1, 168479, Note_on_c, 9, 38, 0
1, 168479, Note_on_c, 9, 51, 0
1, 168480, Note_on_c, 9, 51, 125
1, 168719, Note_on_c, 9, 51, 0
1, 168800, Note_on_c, 9, 38, 125
1, 168959, Note_on_c, 9, 38, 0
1, 168960, Note_on_c, 9, 51, 125
1, 168960, Note_on_c, 9, 35, 125
1, 169439, Note_on_c, 9, 51, 0
1, 169439, Note_on_c, 9, 35, 0
1, 169440, Note_on_c, 9, 51, 125
1, 169679, Note_on_c, 9, 51, 0
1, 169760, Note_on_c, 9, 51, 125
1, 169919, Note_on_c, 9, 51, 0
1, 169920, Note_on_c, 9, 38, 125
1, 169920, Note_on_c, 9, 51, 125
1, 170399, Note_on_c, 9, 38, 0
1, 170399, Note_on_c, 9, 51, 0
1, 170400, Note_on_c, 9, 51, 125
1, 170639, Note_on_c, 9, 51, 0
1, 170720, Note_on_c, 9, 38, 125
1, 170720, Note_on_c, 9, 51, 125
1, 170879, Note_on_c, 9, 38, 0
1, 170879, Note_on_c, 9, 51, 0
1, 170880, Note_on_c, 9, 51, 125
1, 170880, Note_on_c, 9, 35, 125
1, 171119, Note_on_c, 9, 35, 0
1, 171200, Note_on_c, 9, 35, 125
1, 171359, Note_on_c, 9, 51, 0
1, 171359, Note_on_c, 9, 35, 0
1, 171360, Note_on_c, 9, 51, 125
1, 171599, Note_on_c, 9, 51, 0
1, 171680, Note_on_c, 9, 51, 125
1, 171839, Note_on_c, 9, 51, 0
1, 171840, Note_on_c, 9, 38, 125
1, 171840, Note_on_c, 9, 51, 125
1, 172319, Note_on_c, 9, 38, 0
1, 172319, Note_on_c, 9, 51, 0
1, 172320, Note_on_c, 9, 51, 125
1, 172559, Note_on_c, 9, 51, 0
1, 172640, Note_on_c, 9, 38, 125
1, 172640, Note_on_c, 9, 51, 125
1, 172799, Note_on_c, 9, 38, 0
1, 172799, Note_on_c, 9, 51, 0
1, 172800, Note_on_c, 9, 51, 125
1, 172800, Note_on_c, 9, 35, 125
1, 173279, Note_on_c, 9, 51, 0
1, 173279, Note_on_c, 9, 35, 0
1, 173280, Note_on_c, 9, 51, 125
1, 173519, Note_on_c, 9, 51, 0
1, 173600, Note_on_c, 9, 51, 125
1, 173759, Note_on_c, 9, 51, 0
1, 173760, Note_on_c, 9, 38, 124
1, 173760, Note_on_c, 9, 51, 124
1, 174239, Note_on_c, 9, 38, 0
1, 174239, Note_on_c, 9, 51, 0
1, 174240, Note_on_c, 9, 51, 124
1, 174479, Note_on_c, 9, 51, 0
1, 174560, Note_on_c, 9, 38, 124
1, 174719, Note_on_c, 9, 38, 0
1, 174720, Note_on_c, 9, 51, 124
1, 174720, Note_on_c, 9, 35, 124
1, 175199, Note_on_c, 9, 51, 0
1, 175199, Note_on_c, 9, 35, 0
1, 175200, Note_on_c, 9, 51, 124
1, 175439, Note_on_c, 9, 51, 0
1, 175520, Note_on_c, 9, 51, 124
1, 175679, Note_on_c, 9, 51, 0
1, 175680, Note_on_c, 9, 38, 124
1, 175680, Note_on_c, 9, 51, 124
1, 176159, Note_on_c, 9, 38, 0
1, 176159, Note_on_c, 9, 51, 0
1, 176160, Note_on_c, 9, 51, 124
1, 176399, Note_on_c, 9, 51, 0
1, 176480, Note_on_c, 9, 38, 124
1, 176639, Note_on_c, 9, 38, 0
1, 176640, Note_on_c, 9, 51, 124
1, 176640, Note_on_c, 9, 35, 124
1, 177119, Note_on_c, 9, 51, 0
1, 177119, Note_on_c, 9, 35, 0
1, 177120, Note_on_c, 9, 51, 124
1, 177359, Note_on_c, 9, 51, 0
1, 177440, Note_on_c, 9, 51, 124
1, 177599, Note_on_c, 9, 51, 0
1, 177600, Note_on_c, 9, 38, 124
1, 177600, Note_on_c, 9, 51, 124
1, 178079, Note_on_c, 9, 38, 0
1, 178079, Note_on_c, 9, 51, 0
1, 178080, Note_on_c, 9, 51, 124
1, 178319, Note_on_c, 9, 51, 0
1, 178400, Note_on_c, 9, 45, 124
1, 178559, Note_on_c, 9, 45, 0
1, 178560, Note_on_c, 9, 51, 124
1, 178560, Note_on_c, 9, 35, 124
1, 179039, Note_on_c, 9, 51, 0
1, 179039, Note_on_c, 9, 35, 0
1, 179040, Note_on_c, 9, 51, 124
1, 179279, Note_on_c, 9, 51, 0
1, 179360, Note_on_c, 9, 51, 124
1, 179519, Note_on_c, 9, 51, 0
1, 179520, Note_on_c, 9, 38, 124
1, 179520, Note_on_c, 9, 51, 124
1, 179999, Note_on_c, 9, 38, 0
1, 179999, Note_on_c, 9, 51, 0
1, 180000, Note_on_c, 9, 51, 124
1, 180239, Note_on_c, 9, 51, 0
1, 180320, Note_on_c, 9, 38, 124
1, 180320, Note_on_c, 9, 51, 124
1, 180479, Note_on_c, 9, 38, 0
1, 180479, Note_on_c, 9, 51, 0
1, 180480, Note_on_c, 9, 51, 124
1, 180480, Note_on_c, 9, 35, 124
1, 180959, Note_on_c, 9, 51, 0
1, 180959, Note_on_c, 9, 35, 0
1, 180960, Note_on_c, 9, 51, 124
1, 181439, Note_on_c, 9, 51, 0
1, 181440, Note_on_c, 9, 38, 124
1, 181440, Note_on_c, 9, 51, 124
1, 181679, Note_on_c, 9, 38, 0
1, 181679, Note_on_c, 9, 51, 0
1, 181760, Note_on_c, 9, 38, 124
1, 181919, Note_on_c, 9, 38, 0
1, 181920, Note_on_c, 9, 48, 124
1, 182240, Note_on_c, 9, 35, 124
1, 182399, Note_on_c, 9, 48, 0
1, 182399, Note_on_c, 9, 35, 0
1, 182400, Note_on_c, 9, 51, 124
1, 182400, Note_on_c, 9, 49, 124
1, 182400, Note_on_c, 9, 35, 124
1, 182879, Note_on_c, 9, 51, 0
1, 182879, Note_on_c, 9, 49, 0
1, 182879, Note_on_c, 9, 35, 0
1, 182880, Note_on_c, 9, 51, 124
1, 183119, Note_on_c, 9, 51, 0
1, 183200, Note_on_c, 9, 51, 124
1, 183359, Note_on_c, 9, 51, 0
1, 183360, Note_on_c, 9, 38, 124
1, 183360, Note_on_c, 9, 51, 124
1, 183839, Note_on_c, 9, 38, 0
1, 183839, Note_on_c, 9, 51, 0
1, 183840, Note_on_c, 9, 51, 124
1, 184079, Note_on_c, 9, 51, 0
1, 184160, Note_on_c, 9, 38, 124
1, 184319, Note_on_c, 9, 38, 0
1, 184320, Note_on_c, 9, 51, 124
1, 184320, Note_on_c, 9, 35, 124
1, 184799, Note_on_c, 9, 51, 0
1, 184799, Note_on_c, 9, 35, 0
1, 184800, Note_on_c, 9, 51, 124
1, 185039, Note_on_c, 9, 51, 0
1, 185120, Note_on_c, 9, 51, 124
1, 185279, Note_on_c, 9, 51, 0
1, 185280, Note_on_c, 9, 38, 124
1, 185280, Note_on_c, 9, 51, 124
1, 185759, Note_on_c, 9, 38, 0
1, 185759, Note_on_c, 9, 51, 0
1, 185760, Note_on_c, 9, 51, 124
1, 185999, Note_on_c, 9, 51, 0
1, 186080, Note_on_c, 9, 38, 124
1, 186239, Note_on_c, 9, 38, 0
1, 186240, Note_on_c, 9, 51, 124
1, 186240, Note_on_c, 9, 35, 124
1, 186719, Note_on_c, 9, 51, 0
1, 186719, Note_on_c, 9, 35, 0
1, 186720, Note_on_c, 9, 51, 124
1, 186959, Note_on_c, 9, 51, 0
1, 187040, Note_on_c, 9, 51, 124
1, 187199, Note_on_c, 9, 51, 0
1, 187200, Note_on_c, 9, 38, 124
1, 187200, Note_on_c, 9, 51, 124
1, 187679, Note_on_c, 9, 38, 0
1, 187679, Note_on_c, 9, 51, 0
1, 187680, Note_on_c, 9, 51, 124
1, 187919, Note_on_c, 9, 51, 0
1, 188000, Note_on_c, 9, 38, 124
1, 188000, Note_on_c, 9, 51, 124
1, 188159, Note_on_c, 9, 38, 0
1, 188159, Note_on_c, 9, 51, 0
1, 188160, Note_on_c, 9, 35, 124
1, 188400, Note_on_c, 9, 38, 124
1, 188639, Note_on_c, 9, 35, 0
1, 188639, Note_on_c, 9, 38, 0
1, 188640, Note_on_c, 9, 45, 124
1, 188759, Note_on_c, 9, 45, 0
1, 188760, Note_on_c, 9, 38, 124
1, 188879, Note_on_c, 9, 38, 0
1, 188880, Note_on_c, 9, 38, 124
1, 188999, Note_on_c, 9, 38, 0
1, 189000, Note_on_c, 9, 38, 124
1, 189119, Note_on_c, 9, 38, 0
1, 189120, Note_on_c, 9, 38, 124
1, 189360, Note_on_c, 9, 35, 124
1, 189599, Note_on_c, 9, 38, 0
1, 189599, Note_on_c, 9, 35, 0
1, 189600, Note_on_c, 9, 41, 124
1, 189600, Note_on_c, 9, 46, 124
1, 190079, Note_on_c, 9, 41, 0
1, 190079, Note_on_c, 9, 46, 0
1, 190080, Note_on_c, 9, 51, 124
1, 190080, Note_on_c, 9, 49, 124
1, 190080, Note_on_c, 9, 35, 124
1, 190559, Note_on_c, 9, 51, 0
1, 190559, Note_on_c, 9, 49, 0
1, 190559, Note_on_c, 9, 35, 0
1, 190560, Note_on_c, 9, 51, 124
1, 190799, Note_on_c, 9, 51, 0
1, 190880, Note_on_c, 9, 51, 124
1, 191039, Note_on_c, 9, 51, 0
1, 191040, Note_on_c, 9, 38, 124
1, 191040, Note_on_c, 9, 51, 124
1, 191519, Note_on_c, 9, 38, 0
1, 191519, Note_on_c, 9, 51, 0
1, 191520, Note_on_c, 9, 51, 123
1, 191759, Note_on_c, 9, 51, 0
1, 191840, Note_on_c, 9, 38, 123
1, 191999, Note_on_c, 9, 38, 0
1, 192000, Note_on_c, 9, 51, 123
1, 192000, Note_on_c, 9, 35, 123
1, 192159, Note_on_c, 9, 51, 0
1, 192160, Note_on_c, 9, 51, 123
1, 192239, Note_on_c, 9, 35, 0
1, 192239, Note_on_c, 9, 51, 0
1, 192320, Note_on_c, 9, 35, 123
1, 192479, Note_on_c, 9, 35, 0
1, 192480, Note_on_c, 9, 51, 123
1, 192719, Note_on_c, 9, 51, 0
1, 192800, Note_on_c, 9, 51, 123
1, 192959, Note_on_c, 9, 51, 0
1, 192960, Note_on_c, 9, 38, 123
1, 192960, Note_on_c, 9, 51, 123
1, 193439, Note_on_c, 9, 38, 0
1, 193439, Note_on_c, 9, 51, 0
1, 193440, Note_on_c, 9, 51, 123
1, 193679, Note_on_c, 9, 51, 0
1, 193760, Note_on_c, 9, 38, 123
1, 193919, Note_on_c, 9, 38, 0
1, 193920, Note_on_c, 9, 51, 123
1, 193920, Note_on_c, 9, 35, 123
1, 194399, Note_on_c, 9, 51, 0
1, 194399, Note_on_c, 9, 35, 0
1, 194400, Note_on_c, 9, 51, 123
1, 194639, Note_on_c, 9, 51, 0
1, 194720, Note_on_c, 9, 51, 123
1, 194879, Note_on_c, 9, 51, 0
1, 194880, Note_on_c, 9, 38, 123
1, 194880, Note_on_c, 9, 51, 123
1, 195359, Note_on_c, 9, 38, 0
1, 195359, Note_on_c, 9, 51, 0
1, 195360, Note_on_c, 9, 51, 123
1, 195599, Note_on_c, 9, 51, 0
1, 195680, Note_on_c, 9, 38, 123
1, 195680, Note_on_c, 9, 51, 123
1, 195839, Note_on_c, 9, 38, 0
1, 195839, Note_on_c, 9, 51, 0
1, 195840, Note_on_c, 9, 51, 123
1, 195840, Note_on_c, 9, 35, 123
1, 196319, Note_on_c, 9, 51, 0
1, 196319, Note_on_c, 9, 35, 0
1, 196320, Note_on_c, 9, 51, 123
1, 196559, Note_on_c, 9, 51, 0
1, 196640, Note_on_c, 9, 51, 123
1, 196799, Note_on_c, 9, 51, 0
1, 196800, Note_on_c, 9, 38, 123
1, 196800, Note_on_c, 9, 51, 123
1, 197279, Note_on_c, 9, 38, 0
1, 197279, Note_on_c, 9, 51, 0
1, 197280, Note_on_c, 9, 51, 123
1, 197519, Note_on_c, 9, 51, 0
1, 197600, Note_on_c, 9, 38, 123
1, 197759, Note_on_c, 9, 38, 0
1, 197760, Note_on_c, 9, 51, 123
1, 197760, Note_on_c, 9, 35, 123
1, 198239, Note_on_c, 9, 51, 0
1, 198239, Note_on_c, 9, 35, 0
1, 198240, Note_on_c, 9, 51, 123
1, 198479, Note_on_c, 9, 51, 0
1, 198560, Note_on_c, 9, 51, 123
1, 198719, Note_on_c, 9, 51, 0
1, 198720, Note_on_c, 9, 38, 123
1, 198720, Note_on_c, 9, 51, 123
1, 199199, Note_on_c, 9, 38, 0
1, 199199, Note_on_c, 9, 51, 0
1, 199200, Note_on_c, 9, 51, 123
1, 199439, Note_on_c, 9, 51, 0
1, 199520, Note_on_c, 9, 38, 123
1, 199679, Note_on_c, 9, 38, 0
1, 199680, Note_on_c, 9, 51, 123
1, 199680, Note_on_c, 9, 35, 123
1, 200159, Note_on_c, 9, 51, 0
1, 200159, Note_on_c, 9, 35, 0
1, 200160, Note_on_c, 9, 51, 123
1, 200399, Note_on_c, 9, 51, 0
1, 200480, Note_on_c, 9, 51, 123
1, 200639, Note_on_c, 9, 51, 0
1, 200640, Note_on_c, 9, 38, 123
1, 200640, Note_on_c, 9, 51, 123
1, 201119, Note_on_c, 9, 38, 0
1, 201119, Note_on_c, 9, 51, 0
1, 201120, Note_on_c, 9, 51, 123
1, 201359, Note_on_c, 9, 51, 0
1, 201440, Note_on_c, 9, 38, 123
1, 201440, Note_on_c, 9, 51, 123
1, 201599, Note_on_c, 9, 38, 0
1, 201599, Note_on_c, 9, 51, 0
1, 201600, Note_on_c, 9, 51, 123
1, 201600, Note_on_c, 9, 35, 123
1, 202079, Note_on_c, 9, 51, 0
1, 202079, Note_on_c, 9, 35, 0
1, 202080, Note_on_c, 9, 51, 123
1, 202319, Note_on_c, 9, 51, 0
1, 202400, Note_on_c, 9, 51, 123
1, 202559, Note_on_c, 9, 51, 0
1, 202560, Note_on_c, 9, 38, 123
1, 202560, Note_on_c, 9, 51, 123
1, 203039, Note_on_c, 9, 38, 0
1, 203039, Note_on_c, 9, 51, 0
1, 203040, Note_on_c, 9, 51, 123
1, 203279, Note_on_c, 9, 51, 0
1, 203360, Note_on_c, 9, 38, 123
1, 203519, Note_on_c, 9, 38, 0
1, 203520, Note_on_c, 9, 51, 123
1, 203520, Note_on_c, 9, 35, 123
1, 203999, Note_on_c, 9, 51, 0
1, 203999, Note_on_c, 9, 35, 0
1, 204000, Note_on_c, 9, 51, 123
1, 204239, Note_on_c, 9, 51, 0
1, 204320, Note_on_c, 9, 51, 123
1, 204479, Note_on_c, 9, 51, 0
1, 204480, Note_on_c, 9, 38, 123
1, 204480, Note_on_c, 9, 51, 123
1, 204959, Note_on_c, 9, 38, 0
1, 204959, Note_on_c, 9, 51, 0
1, 204960, Note_on_c, 9, 51, 123
1, 205199, Note_on_c, 9, 51, 0
1, 205280, Note_on_c, 9, 38, 123
1, 205439, Note_on_c, 9, 38, 0
1, 205440, Note_on_c, 9, 51, 123
1, 205440, Note_on_c, 9, 35, 123
1, 205919, Note_on_c, 9, 51, 0
1, 205919, Note_on_c, 9, 35, 0
1, 205920, Note_on_c, 9, 51, 123
1, 206159, Note_on_c, 9, 51, 0
1, 206240, Note_on_c, 9, 51, 123
1, 206399, Note_on_c, 9, 51, 0
1, 206400, Note_on_c, 9, 38, 123
1, 206400, Note_on_c, 9, 51, 123
1, 206879, Note_on_c, 9, 38, 0
1, 206879, Note_on_c, 9, 51, 0
1, 206880, Note_on_c, 9, 51, 123
1, 207119, Note_on_c, 9, 51, 0
1, 207200, Note_on_c, 9, 38, 123
1, 207359, Note_on_c, 9, 38, 0
1, 207360, Note_on_c, 9, 51, 123
1, 207360, Note_on_c, 9, 35, 123
1, 207839, Note_on_c, 9, 51, 0
1, 207839, Note_on_c, 9, 35, 0
1, 207840, Note_on_c, 9, 51, 123
1, 208079, Note_on_c, 9, 51, 0
1, 208160, Note_on_c, 9, 51, 123
1, 208319, Note_on_c, 9, 51, 0
1, 208320, Note_on_c, 9, 38, 123
1, 208320, Note_on_c, 9, 51, 123
1, 208799, Note_on_c, 9, 38, 0
1, 208799, Note_on_c, 9, 51, 0
1, 208800, Note_on_c, 9, 51, 123
1, 209039, Note_on_c, 9, 51, 0
1, 209120, Note_on_c, 9, 38, 123
1, 209120, Note_on_c, 9, 51, 123
1, 209279, Note_on_c, 9, 38, 0
1, 209279, Note_on_c, 9, 51, 0
1, 209280, End_track
0, 0, End_of_file
