0, 0, Header, 1, 1, 480
1, 0, Start_track
1, 0, Time_signature, 4, 2, 24, 8
1, 0, Key_signature, 0, "major"
1, 0, Tempo, 500000
1, 0, Control_c, 9, 121, 0
1, 0, Program_c, 9, 0
1, 0, Control_c, 9, 7, 100
1, 0, Control_c, 9, 10, 64
1, 0, Control_c, 9, 91, 0
1, 0, Control_c, 9, 93, 0
1, 0, MIDI_port, 0
1, 2060, Note_on_c, 9, 42, 63
1, 2099, Note_on_c, 9, 42, 0
1, 2540, Note_on_c, 9, 42, 62
1, 2579, Note_on_c, 9, 42, 0
1, 3020, Note_on_c, 9, 42, 62
1, 3059, Note_on_c, 9, 42, 0
1, 3500, Note_on_c, 9, 42, 61
1, 3539, Note_on_c, 9, 42, 0
1, 3980, Note_on_c, 9, 40, 96
1, 4019, Note_on_c, 9, 40, 0
1, 4460, Note_on_c, 9, 40, 100
1, 4499, Note_on_c, 9, 40, 0
1, 4940, Note_on_c, 9, 40, 102
1, 4979, Note_on_c, 9, 40, 0
1, 5420, Note_on_c, 9, 40, 106
1, 5459, Note_on_c, 9, 40, 0
1, 5900, Note_on_c, 9, 40, 105
1, 5939, Note_on_c, 9, 40, 0
1, 6380, Note_on_c, 9, 40, 100
1, 6419, Note_on_c, 9, 40, 0
1, 6860, Note_on_c, 9, 40, 105
1, 6899, Note_on_c, 9, 40, 0
1, 7340, Note_on_c, 9, 40, 109
1, 7340, Note_on_c, 9, 54, 113
1, 7379, Note_on_c, 9, 40, 0
1, 7379, Note_on_c, 9, 54, 0
1, 7820, Note_on_c, 9, 42, 92
1, 7820, Note_on_c, 9, 35, 101
1, 7859, Note_on_c, 9, 42, 0
1, 7859, Note_on_c, 9, 35, 0
1, 8060, Note_on_c, 9, 42, 57
1, 8060, Note_on_c, 9, 35, 85
1, 8099, Note_on_c, 9, 42, 0
1, 8099, Note_on_c, 9, 35, 0
1, 8300, Note_on_c, 9, 40, 114
1, 8300, Note_on_c, 9, 54, 102
1, 8300, Note_on_c, 9, 42, 77
1, 8339, Note_on_c, 9, 40, 0
1, 8339, Note_on_c, 9, 54, 0
1, 8339, Note_on_c, 9, 42, 0
1, 8540, Note_on_c, 9, 42, 61
1, 8579, Note_on_c, 9, 42, 0
1, 8780, Note_on_c, 9, 42, 76
1, 8780, Note_on_c, 9, 35, 103
1, 8819, Note_on_c, 9, 42, 0
1, 8819, Note_on_c, 9, 35, 0
1, 9020, Note_on_c, 9, 42, 54
1, 9020, Note_on_c, 9, 35, 91
1, 9059, Note_on_c, 9, 42, 0
1, 9059, Note_on_c, 9, 35, 0
1, 9260, Note_on_c, 9, 40, 111
1, 9260, Note_on_c, 9, 54, 110
1, 9260, Note_on_c, 9, 42, 82
1, 9299, Note_on_c, 9, 40, 0
1, 9299, Note_on_c, 9, 54, 0
1, 9299, Note_on_c, 9, 42, 0
1, 9500, Note_on_c, 9, 42, 58
1, 9539, Note_on_c, 9, 42, 0
1, 9740, Note_on_c, 9, 42, 77
1, 9740, Note_on_c, 9, 35, 103
1, 9779, Note_on_c, 9, 42, 0
1, 9779, Note_on_c, 9, 35, 0
1, 9980, Note_on_c, 9, 42, 69
1, 9980, Note_on_c, 9, 35, 91
1, 10019, Note_on_c, 9, 42, 0
1, 10019, Note_on_c, 9, 35, 0
1, 10220, Note_on_c, 9, 40, 120
1, 10220, Note_on_c, 9, 54, 117
1, 10220, Note_on_c, 9, 42, 96
1, 10259, Note_on_c, 9, 40, 0
1, 10259, Note_on_c, 9, 54, 0
1, 10259, Note_on_c, 9, 42, 0
1, 10460, Note_on_c, 9, 42, 66
1, 10499, Note_on_c, 9, 42, 0
1, 10700, Note_on_c, 9, 42, 86
1, 10700, Note_on_c, 9, 35, 109
1, 10739, Note_on_c, 9, 42, 0
1, 10739, Note_on_c, 9, 35, 0
1, 10940, Note_on_c, 9, 42, 77
1, 10940, Note_on_c, 9, 35, 89
1, 10979, Note_on_c, 9, 42, 0
1, 10979, Note_on_c, 9, 35, 0
1, 11180, Note_on_c, 9, 40, 124
1, 11180, Note_on_c, 9, 54, 115
1, 11180, Note_on_c, 9, 42, 91
1, 11219, Note_on_c, 9, 40, 0
1, 11219, Note_on_c, 9, 54, 0
1, 11219, Note_on_c, 9, 42, 0
1, 11420, Note_on_c, 9, 42, 70
1, 11459, Note_on_c, 9, 42, 0
1, 11660, Note_on_c, 9, 42, 80
1, 11660, Note_on_c, 9, 35, 107
1, 11699, Note_on_c, 9, 42, 0
1, 11699, Note_on_c, 9, 35, 0
1, 11900, Note_on_c, 9, 42, 70
1, 11900, Note_on_c, 9, 35, 96
1, 11939, Note_on_c, 9, 42, 0
1, 11939, Note_on_c, 9, 35, 0
1, 12140, Note_on_c, 9, 40, 120
1, 12140, Note_on_c, 9, 54, 115
1, 12140, Note_on_c, 9, 42, 86
1, 12179, Note_on_c, 9, 40, 0
1, 12179, Note_on_c, 9, 54, 0
1, 12179, Note_on_c, 9, 42, 0
1, 12380, Note_on_c, 9, 42, 69
1, 12419, Note_on_c, 9, 42, 0
1, 12620, Note_on_c, 9, 42, 84
1, 12620, Note_on_c, 9, 35, 106
1, 12659, Note_on_c, 9, 42, 0
1, 12659, Note_on_c, 9, 35, 0
1, 12860, Note_on_c, 9, 42, 71
1, 12860, Note_on_c, 9, 35, 99
1, 12899, Note_on_c, 9, 42, 0
1, 12899, Note_on_c, 9, 35, 0
1, 13100, Note_on_c, 9, 40, 122
1, 13100, Note_on_c, 9, 54, 113
1, 13100, Note_on_c, 9, 42, 90
1, 13139, Note_on_c, 9, 40, 0
1, 13139, Note_on_c, 9, 54, 0
1, 13139, Note_on_c, 9, 42, 0
1, 13340, Note_on_c, 9, 42, 74
1, 13379, Note_on_c, 9, 42, 0
1, 13580, Note_on_c, 9, 42, 83
1, 13580, Note_on_c, 9, 35, 109
1, 13619, Note_on_c, 9, 42, 0
1, 13619, Note_on_c, 9, 35, 0
1, 13820, Note_on_c, 9, 42, 72
1, 13820, Note_on_c, 9, 35, 97
1, 13859, Note_on_c, 9, 42, 0
1, 13859, Note_on_c, 9, 35, 0
1, 14060, Note_on_c, 9, 40, 120
1, 14060, Note_on_c, 9, 54, 115
1, 14060, Note_on_c, 9, 42, 92
1, 14099, Note_on_c, 9, 40, 0
1, 14099, Note_on_c, 9, 54, 0
1, 14099, Note_on_c, 9, 42, 0
1, 14300, Note_on_c, 9, 42, 73
1, 14339, Note_on_c, 9, 42, 0
1, 14540, Note_on_c, 9, 42, 77
1, 14540, Note_on_c, 9, 35, 107
1, 14579, Note_on_c, 9, 42, 0
1, 14579, Note_on_c, 9, 35, 0
1, 14780, Note_on_c, 9, 42, 71
1, 14780, Note_on_c, 9, 35, 95
1, 14819, Note_on_c, 9, 42, 0
1, 14819, Note_on_c, 9, 35, 0
1, 15020, Note_on_c, 9, 40, 127
1, 15020, Note_on_c, 9, 54, 113
1, 15020, Note_on_c, 9, 42, 91
1, 15059, Note_on_c, 9, 40, 0
1, 15059, Note_on_c, 9, 54, 0
1, 15059, Note_on_c, 9, 42, 0
1, 15260, Note_on_c, 9, 46, 70
1, 15299, Note_on_c, 9, 46, 0
1, 15500, Note_on_c, 9, 42, 92
1, 15500, Note_on_c, 9, 35, 101
1, 15539, Note_on_c, 9, 42, 0
1, 15539, Note_on_c, 9, 35, 0
1, 15740, Note_on_c, 9, 42, 57
1, 15740, Note_on_c, 9, 35, 85
1, 15779, Note_on_c, 9, 42, 0
1, 15779, Note_on_c, 9, 35, 0
1, 15980, Note_on_c, 9, 40, 114
1, 15980, Note_on_c, 9, 54, 113
1, 15980, Note_on_c, 9, 42, 77
1, 16019, Note_on_c, 9, 40, 0
1, 16019, Note_on_c, 9, 54, 0
1, 16019, Note_on_c, 9, 42, 0
1, 16220, Note_on_c, 9, 42, 61
1, 16259, Note_on_c, 9, 42, 0
1, 16460, Note_on_c, 9, 42, 76
1, 16460, Note_on_c, 9, 35, 103
1, 16499, Note_on_c, 9, 42, 0
1, 16499, Note_on_c, 9, 35, 0
1, 16700, Note_on_c, 9, 42, 54
1, 16700, Note_on_c, 9, 35, 91
1, 16739, Note_on_c, 9, 42, 0
1, 16739, Note_on_c, 9, 35, 0
1, 16940, Note_on_c, 9, 40, 111
1, 16940, Note_on_c, 9, 54, 117
1, 16940, Note_on_c, 9, 42, 82
1, 16979, Note_on_c, 9, 40, 0
1, 16979, Note_on_c, 9, 54, 0
1, 16979, Note_on_c, 9, 42, 0
1, 17180, Note_on_c, 9, 42, 58
1, 17219, Note_on_c, 9, 42, 0
1, 17420, Note_on_c, 9, 42, 77
1, 17420, Note_on_c, 9, 35, 103
1, 17459, Note_on_c, 9, 42, 0
1, 17459, Note_on_c, 9, 35, 0
1, 17660, Note_on_c, 9, 42, 69
1, 17660, Note_on_c, 9, 35, 91
1, 17699, Note_on_c, 9, 42, 0
1, 17699, Note_on_c, 9, 35, 0
1, 17900, Note_on_c, 9, 40, 120
1, 17900, Note_on_c, 9, 54, 115
1, 17900, Note_on_c, 9, 42, 96
1, 17939, Note_on_c, 9, 40, 0
1, 17939, Note_on_c, 9, 54, 0
1, 17939, Note_on_c, 9, 42, 0
1, 18140, Note_on_c, 9, 42, 66
1, 18179, Note_on_c, 9, 42, 0
1, 18380, Note_on_c, 9, 42, 86
1, 18380, Note_on_c, 9, 35, 109
1, 18419, Note_on_c, 9, 42, 0
1, 18419, Note_on_c, 9, 35, 0
1, 18620, Note_on_c, 9, 42, 77
1, 18620, Note_on_c, 9, 35, 89
1, 18659, Note_on_c, 9, 42, 0
1, 18659, Note_on_c, 9, 35, 0
1, 18860, Note_on_c, 9, 40, 124
1, 18860, Note_on_c, 9, 54, 115
1, 18860, Note_on_c, 9, 42, 91
1, 18899, Note_on_c, 9, 40, 0
1, 18899, Note_on_c, 9, 54, 0
1, 18899, Note_on_c, 9, 42, 0
1, 19100, Note_on_c, 9, 42, 70
1, 19139, Note_on_c, 9, 42, 0
1, 19340, Note_on_c, 9, 42, 80
1, 19340, Note_on_c, 9, 35, 107
1, 19379, Note_on_c, 9, 42, 0
1, 19379, Note_on_c, 9, 35, 0
1, 19580, Note_on_c, 9, 42, 70
1, 19580, Note_on_c, 9, 35, 96
1, 19619, Note_on_c, 9, 42, 0
1, 19619, Note_on_c, 9, 35, 0
1, 19820, Note_on_c, 9, 40, 120
1, 19820, Note_on_c, 9, 54, 113
1, 19820, Note_on_c, 9, 42, 86
1, 19859, Note_on_c, 9, 40, 0
1, 19859, Note_on_c, 9, 54, 0
1, 19859, Note_on_c, 9, 42, 0
1, 20060, Note_on_c, 9, 42, 69
1, 20099, Note_on_c, 9, 42, 0
1, 20300, Note_on_c, 9, 42, 84
1, 20300, Note_on_c, 9, 35, 106
1, 20339, Note_on_c, 9, 42, 0
1, 20339, Note_on_c, 9, 35, 0
1, 20540, Note_on_c, 9, 42, 71
1, 20540, Note_on_c, 9, 35, 99
1, 20579, Note_on_c, 9, 42, 0
1, 20579, Note_on_c, 9, 35, 0
1, 20780, Note_on_c, 9, 40, 122
1, 20780, Note_on_c, 9, 54, 115
1, 20780, Note_on_c, 9, 42, 90
1, 20819, Note_on_c, 9, 40, 0
1, 20819, Note_on_c, 9, 54, 0
1, 20819, Note_on_c, 9, 42, 0
1, 21020, Note_on_c, 9, 42, 74
1, 21059, Note_on_c, 9, 42, 0
1, 21260, Note_on_c, 9, 42, 83
1, 21260, Note_on_c, 9, 35, 109
1, 21299, Note_on_c, 9, 42, 0
1, 21299, Note_on_c, 9, 35, 0
1, 21500, Note_on_c, 9, 42, 72
1, 21500, Note_on_c, 9, 35, 97
1, 21539, Note_on_c, 9, 42, 0
1, 21539, Note_on_c, 9, 35, 0
1, 21740, Note_on_c, 9, 40, 120
1, 21740, Note_on_c, 9, 54, 115
1, 21740, Note_on_c, 9, 42, 92
1, 21779, Note_on_c, 9, 40, 0
1, 21779, Note_on_c, 9, 54, 0
1, 21779, Note_on_c, 9, 42, 0
1, 21980, Note_on_c, 9, 42, 73
1, 22019, Note_on_c, 9, 42, 0
1, 22220, Note_on_c, 9, 42, 77
1, 22220, Note_on_c, 9, 35, 107
1, 22259, Note_on_c, 9, 42, 0
1, 22259, Note_on_c, 9, 35, 0
1, 22460, Note_on_c, 9, 42, 71
1, 22460, Note_on_c, 9, 35, 95
1, 22499, Note_on_c, 9, 42, 0
1, 22499, Note_on_c, 9, 35, 0
1, 22700, Note_on_c, 9, 40, 127
1, 22700, Note_on_c, 9, 54, 113
1, 22700, Note_on_c, 9, 42, 91
1, 22739, Note_on_c, 9, 40, 0
1, 22739, Note_on_c, 9, 54, 0
1, 22739, Note_on_c, 9, 42, 0
1, 22940, Note_on_c, 9, 46, 70
1, 22979, Note_on_c, 9, 46, 0
1, 23180, Note_on_c, 9, 42, 92
1, 23180, Note_on_c, 9, 35, 101
1, 23219, Note_on_c, 9, 42, 0
1, 23219, Note_on_c, 9, 35, 0
1, 23420, Note_on_c, 9, 42, 57
1, 23420, Note_on_c, 9, 35, 85
1, 23459, Note_on_c, 9, 42, 0
1, 23459, Note_on_c, 9, 35, 0
1, 23660, Note_on_c, 9, 40, 114
1, 23660, Note_on_c, 9, 54, 110
1, 23660, Note_on_c, 9, 42, 77
1, 23699, Note_on_c, 9, 40, 0
1, 23699, Note_on_c, 9, 54, 0
1, 23699, Note_on_c, 9, 42, 0
1, 23900, Note_on_c, 9, 42, 61
1, 23939, Note_on_c, 9, 42, 0
1, 24140, Note_on_c, 9, 42, 76
1, 24140, Note_on_c, 9, 35, 103
1, 24179, Note_on_c, 9, 42, 0
1, 24179, Note_on_c, 9, 35, 0
1, 24380, Note_on_c, 9, 42, 54
1, 24380, Note_on_c, 9, 35, 91
1, 24419, Note_on_c, 9, 42, 0
1, 24419, Note_on_c, 9, 35, 0
1, 24620, Note_on_c, 9, 40, 111
1, 24620, Note_on_c, 9, 54, 112
1, 24620, Note_on_c, 9, 42, 82
1, 24659, Note_on_c, 9, 40, 0
1, 24659, Note_on_c, 9, 54, 0
1, 24659, Note_on_c, 9, 42, 0
1, 24860, Note_on_c, 9, 42, 58
1, 24899, Note_on_c, 9, 42, 0
1, 25100, Note_on_c, 9, 42, 77
1, 25100, Note_on_c, 9, 35, 103
1, 25139, Note_on_c, 9, 42, 0
1, 25139, Note_on_c, 9, 35, 0
1, 25340, Note_on_c, 9, 42, 69
1, 25340, Note_on_c, 9, 35, 91
1, 25379, Note_on_c, 9, 42, 0
1, 25379, Note_on_c, 9, 35, 0
1, 25580, Note_on_c, 9, 40, 120
1, 25580, Note_on_c, 9, 54, 110
1, 25580, Note_on_c, 9, 42, 96
1, 25619, Note_on_c, 9, 40, 0
1, 25619, Note_on_c, 9, 54, 0
1, 25619, Note_on_c, 9, 42, 0
1, 25820, Note_on_c, 9, 42, 66
1, 25859, Note_on_c, 9, 42, 0
1, 26060, Note_on_c, 9, 42, 86
1, 26060, Note_on_c, 9, 35, 109
1, 26099, Note_on_c, 9, 42, 0
1, 26099, Note_on_c, 9, 35, 0
1, 26300, Note_on_c, 9, 42, 77
1, 26300, Note_on_c, 9, 35, 89
1, 26339, Note_on_c, 9, 42, 0
1, 26339, Note_on_c, 9, 35, 0
1, 26540, Note_on_c, 9, 40, 124
1, 26540, Note_on_c, 9, 54, 113
1, 26540, Note_on_c, 9, 42, 91
1, 26579, Note_on_c, 9, 40, 0
1, 26579, Note_on_c, 9, 54, 0
1, 26579, Note_on_c, 9, 42, 0
1, 26780, Note_on_c, 9, 42, 70
1, 26819, Note_on_c, 9, 42, 0
1, 27020, Note_on_c, 9, 42, 80
1, 27020, Note_on_c, 9, 35, 107
1, 27059, Note_on_c, 9, 42, 0
1, 27059, Note_on_c, 9, 35, 0
1, 27260, Note_on_c, 9, 42, 70
1, 27260, Note_on_c, 9, 35, 96
1, 27299, Note_on_c, 9, 42, 0
1, 27299, Note_on_c, 9, 35, 0
1, 27500, Note_on_c, 9, 40, 120
1, 27500, Note_on_c, 9, 54, 102
1, 27500, Note_on_c, 9, 42, 86
1, 27539, Note_on_c, 9, 40, 0
1, 27539, Note_on_c, 9, 54, 0
1, 27539, Note_on_c, 9, 42, 0
1, 27740, Note_on_c, 9, 42, 69
1, 27779, Note_on_c, 9, 42, 0
1, 27980, Note_on_c, 9, 42, 84
1, 27980, Note_on_c, 9, 35, 106
1, 28019, Note_on_c, 9, 42, 0
1, 28019, Note_on_c, 9, 35, 0
1, 28220, Note_on_c, 9, 42, 71
1, 28220, Note_on_c, 9, 35, 99
1, 28259, Note_on_c, 9, 42, 0
1, 28259, Note_on_c, 9, 35, 0
1, 28460, Note_on_c, 9, 40, 122
1, 28460, Note_on_c, 9, 54, 110
1, 28460, Note_on_c, 9, 42, 90
1, 28499, Note_on_c, 9, 40, 0
1, 28499, Note_on_c, 9, 54, 0
1, 28499, Note_on_c, 9, 42, 0
1, 28700, Note_on_c, 9, 42, 74
1, 28739, Note_on_c, 9, 42, 0
1, 28940, Note_on_c, 9, 42, 83
1, 28940, Note_on_c, 9, 35, 109
1, 28979, Note_on_c, 9, 42, 0
1, 28979, Note_on_c, 9, 35, 0
1, 29180, Note_on_c, 9, 42, 72
1, 29180, Note_on_c, 9, 35, 97
1, 29219, Note_on_c, 9, 42, 0
1, 29219, Note_on_c, 9, 35, 0
1, 29420, Note_on_c, 9, 40, 120
1, 29420, Note_on_c, 9, 54, 117
1, 29420, Note_on_c, 9, 42, 92
1, 29459, Note_on_c, 9, 40, 0
1, 29459, Note_on_c, 9, 54, 0
1, 29459, Note_on_c, 9, 42, 0
1, 29660, Note_on_c, 9, 42, 73
1, 29699, Note_on_c, 9, 42, 0
1, 29900, Note_on_c, 9, 42, 77
1, 29900, Note_on_c, 9, 35, 107
1, 29939, Note_on_c, 9, 42, 0
1, 29939, Note_on_c, 9, 35, 0
1, 30140, Note_on_c, 9, 42, 71
1, 30140, Note_on_c, 9, 35, 95
1, 30179, Note_on_c, 9, 42, 0
1, 30179, Note_on_c, 9, 35, 0
1, 30380, Note_on_c, 9, 40, 127
1, 30380, Note_on_c, 9, 54, 115
1, 30380, Note_on_c, 9, 42, 91
1, 30419, Note_on_c, 9, 40, 0
1, 30419, Note_on_c, 9, 54, 0
1, 30419, Note_on_c, 9, 42, 0
1, 30620, Note_on_c, 9, 46, 70
1, 30659, Note_on_c, 9, 46, 0
1, 30860, Note_on_c, 9, 42, 92
1, 30860, Note_on_c, 9, 35, 101
1, 30899, Note_on_c, 9, 42, 0
1, 30899, Note_on_c, 9, 35, 0
1, 31100, Note_on_c, 9, 42, 57
1, 31100, Note_on_c, 9, 35, 85
1, 31139, Note_on_c, 9, 42, 0
1, 31139, Note_on_c, 9, 35, 0
1, 31340, Note_on_c, 9, 40, 114
1, 31340, Note_on_c, 9, 54, 115
1, 31340, Note_on_c, 9, 42, 77
1, 31379, Note_on_c, 9, 40, 0
1, 31379, Note_on_c, 9, 54, 0
1, 31379, Note_on_c, 9, 42, 0
1, 31580, Note_on_c, 9, 42, 61
1, 31619, Note_on_c, 9, 42, 0
1, 31820, Note_on_c, 9, 42, 76
1, 31820, Note_on_c, 9, 35, 103
1, 31859, Note_on_c, 9, 42, 0
1, 31859, Note_on_c, 9, 35, 0
1, 32060, Note_on_c, 9, 42, 54
1, 32060, Note_on_c, 9, 35, 91
1, 32099, Note_on_c, 9, 42, 0
1, 32099, Note_on_c, 9, 35, 0
1, 32300, Note_on_c, 9, 40, 111
1, 32300, Note_on_c, 9, 54, 113
1, 32300, Note_on_c, 9, 42, 82
1, 32339, Note_on_c, 9, 40, 0
1, 32339, Note_on_c, 9, 54, 0
1, 32339, Note_on_c, 9, 42, 0
1, 32540, Note_on_c, 9, 42, 58
1, 32579, Note_on_c, 9, 42, 0
1, 32780, Note_on_c, 9, 42, 77
1, 32780, Note_on_c, 9, 35, 103
1, 32819, Note_on_c, 9, 42, 0
1, 32819, Note_on_c, 9, 35, 0
1, 33020, Note_on_c, 9, 42, 69
1, 33020, Note_on_c, 9, 35, 91
1, 33059, Note_on_c, 9, 42, 0
1, 33059, Note_on_c, 9, 35, 0
1, 33260, Note_on_c, 9, 40, 120
1, 33260, Note_on_c, 9, 54, 115
1, 33260, Note_on_c, 9, 42, 96
1, 33299, Note_on_c, 9, 40, 0
1, 33299, Note_on_c, 9, 54, 0
1, 33299, Note_on_c, 9, 42, 0
1, 33500, Note_on_c, 9, 42, 66
1, 33539, Note_on_c, 9, 42, 0
1, 33740, Note_on_c, 9, 42, 86
1, 33740, Note_on_c, 9, 35, 109
1, 33779, Note_on_c, 9, 42, 0
1, 33779, Note_on_c, 9, 35, 0
1, 33980, Note_on_c, 9, 42, 77
1, 33980, Note_on_c, 9, 35, 89
1, 34019, Note_on_c, 9, 42, 0
1, 34019, Note_on_c, 9, 35, 0
1, 34220, Note_on_c, 9, 40, 124
1, 34220, Note_on_c, 9, 54, 113
1, 34220, Note_on_c, 9, 42, 91
1, 34259, Note_on_c, 9, 40, 0
1, 34259, Note_on_c, 9, 54, 0
1, 34259, Note_on_c, 9, 42, 0
1, 34460, Note_on_c, 9, 42, 70
1, 34499, Note_on_c, 9, 42, 0
1, 34700, Note_on_c, 9, 42, 80
1, 34700, Note_on_c, 9, 35, 107
1, 34739, Note_on_c, 9, 42, 0
1, 34739, Note_on_c, 9, 35, 0
1, 34940, Note_on_c, 9, 42, 70
1, 34940, Note_on_c, 9, 35, 96
1, 34979, Note_on_c, 9, 42, 0
1, 34979, Note_on_c, 9, 35, 0
1, 35180, Note_on_c, 9, 40, 120
1, 35180, Note_on_c, 9, 54, 113
1, 35180, Note_on_c, 9, 42, 86
1, 35219, Note_on_c, 9, 40, 0
1, 35219, Note_on_c, 9, 54, 0
1, 35219, Note_on_c, 9, 42, 0
1, 35420, Note_on_c, 9, 42, 69
1, 35459, Note_on_c, 9, 42, 0
1, 35660, Note_on_c, 9, 42, 84
1, 35660, Note_on_c, 9, 35, 106
1, 35699, Note_on_c, 9, 42, 0
1, 35699, Note_on_c, 9, 35, 0
1, 35900, Note_on_c, 9, 42, 71
1, 35900, Note_on_c, 9, 35, 99
1, 35939, Note_on_c, 9, 42, 0
1, 35939, Note_on_c, 9, 35, 0
1, 36140, Note_on_c, 9, 40, 122
1, 36140, Note_on_c, 9, 54, 117
1, 36140, Note_on_c, 9, 42, 90
1, 36179, Note_on_c, 9, 40, 0
1, 36179, Note_on_c, 9, 54, 0
1, 36179, Note_on_c, 9, 42, 0
1, 36380, Note_on_c, 9, 42, 74
1, 36419, Note_on_c, 9, 42, 0
1, 36620, Note_on_c, 9, 42, 83
1, 36620, Note_on_c, 9, 35, 109
1, 36659, Note_on_c, 9, 42, 0
1, 36659, Note_on_c, 9, 35, 0
1, 36860, Note_on_c, 9, 42, 72
1, 36860, Note_on_c, 9, 35, 97
1, 36899, Note_on_c, 9, 42, 0
1, 36899, Note_on_c, 9, 35, 0
1, 37100, Note_on_c, 9, 40, 120
1, 37100, Note_on_c, 9, 54, 115
1, 37100, Note_on_c, 9, 42, 92
1, 37139, Note_on_c, 9, 40, 0
1, 37139, Note_on_c, 9, 54, 0
1, 37139, Note_on_c, 9, 42, 0
1, 37340, Note_on_c, 9, 42, 73
1, 37379, Note_on_c, 9, 42, 0
1, 37580, Note_on_c, 9, 42, 77
1, 37580, Note_on_c, 9, 35, 107
1, 37619, Note_on_c, 9, 42, 0
1, 37619, Note_on_c, 9, 35, 0
1, 37820, Note_on_c, 9, 42, 71
1, 37820, Note_on_c, 9, 35, 95
1, 37859, Note_on_c, 9, 42, 0
1, 37859, Note_on_c, 9, 35, 0
1, 38060, Note_on_c, 9, 40, 127
1, 38060, Note_on_c, 9, 54, 115
1, 38060, Note_on_c, 9, 42, 91
1, 38099, Note_on_c, 9, 40, 0
1, 38099, Note_on_c, 9, 54, 0
1, 38099, Note_on_c, 9, 42, 0
1, 38300, Note_on_c, 9, 46, 70
1, 38339, Note_on_c, 9, 46, 0
1, 38540, Note_on_c, 9, 42, 83
1, 38540, Note_on_c, 9, 35, 109
1, 38579, Note_on_c, 9, 42, 0
1, 38579, Note_on_c, 9, 35, 0
1, 38780, Note_on_c, 9, 42, 72
1, 38780, Note_on_c, 9, 35, 97
1, 38819, Note_on_c, 9, 42, 0
1, 38819, Note_on_c, 9, 35, 0
1, 39020, Note_on_c, 9, 40, 120
1, 39020, Note_on_c, 9, 54, 113
1, 39020, Note_on_c, 9, 42, 92
1, 39059, Note_on_c, 9, 40, 0
1, 39059, Note_on_c, 9, 54, 0
1, 39059, Note_on_c, 9, 42, 0
1, 39260, Note_on_c, 9, 42, 73
1, 39299, Note_on_c, 9, 42, 0
1, 39500, Note_on_c, 9, 42, 77
1, 39500, Note_on_c, 9, 35, 107
1, 39539, Note_on_c, 9, 42, 0
1, 39539, Note_on_c, 9, 35, 0
1, 39740, Note_on_c, 9, 42, 71
1, 39740, Note_on_c, 9, 35, 95
1, 39779, Note_on_c, 9, 42, 0
1, 39779, Note_on_c, 9, 35, 0
1, 39980, Note_on_c, 9, 40, 127
1, 39980, Note_on_c, 9, 54, 115
1, 39980, Note_on_c, 9, 42, 91
1, 40019, Note_on_c, 9, 40, 0
1, 40019, Note_on_c, 9, 54, 0
1, 40019, Note_on_c, 9, 42, 0
1, 40220, Note_on_c, 9, 46, 70
1, 40259, Note_on_c, 9, 46, 0
1, 40460, Note_on_c, 9, 49, 92
1, 40460, Note_on_c, 9, 35, 101
1, 40499, Note_on_c, 9, 49, 0
1, 40499, Note_on_c, 9, 35, 0
1, 40700, Note_on_c, 9, 35, 85
1, 40739, Note_on_c, 9, 35, 0
1, 40940, Note_on_c, 9, 40, 114
1, 40940, Note_on_c, 9, 54, 115
1, 40940, Note_on_c, 9, 42, 77
1, 40979, Note_on_c, 9, 40, 0
1, 40979, Note_on_c, 9, 54, 0
1, 40979, Note_on_c, 9, 42, 0
1, 41180, Note_on_c, 9, 42, 61
1, 41219, Note_on_c, 9, 42, 0
1, 41420, Note_on_c, 9, 42, 76
1, 41420, Note_on_c, 9, 35, 103
1, 41459, Note_on_c, 9, 42, 0
1, 41459, Note_on_c, 9, 35, 0
1, 41660, Note_on_c, 9, 42, 54
1, 41660, Note_on_c, 9, 35, 91
1, 41699, Note_on_c, 9, 42, 0
1, 41699, Note_on_c, 9, 35, 0
1, 41900, Note_on_c, 9, 40, 111
1, 41900, Note_on_c, 9, 54, 113
1, 41900, Note_on_c, 9, 42, 82
1, 41939, Note_on_c, 9, 40, 0
1, 41939, Note_on_c, 9, 54, 0
1, 41939, Note_on_c, 9, 42, 0
1, 42140, Note_on_c, 9, 42, 58
1, 42179, Note_on_c, 9, 42, 0
1, 42380, Note_on_c, 9, 42, 77
1, 42380, Note_on_c, 9, 35, 103
1, 42419, Note_on_c, 9, 42, 0
1, 42419, Note_on_c, 9, 35, 0
1, 42620, Note_on_c, 9, 42, 69
1, 42620, Note_on_c, 9, 35, 91
1, 42659, Note_on_c, 9, 42, 0
1, 42659, Note_on_c, 9, 35, 0
1, 42860, Note_on_c, 9, 40, 120
1, 42860, Note_on_c, 9, 54, 110
1, 42860, Note_on_c, 9, 42, 96
1, 42899, Note_on_c, 9, 40, 0
1, 42899, Note_on_c, 9, 54, 0
1, 42899, Note_on_c, 9, 42, 0
1, 43100, Note_on_c, 9, 42, 66
1, 43139, Note_on_c, 9, 42, 0
1, 43340, Note_on_c, 9, 42, 86
1, 43340, Note_on_c, 9, 35, 109
1, 43379, Note_on_c, 9, 42, 0
1, 43379, Note_on_c, 9, 35, 0
1, 43580, Note_on_c, 9, 42, 77
1, 43580, Note_on_c, 9, 35, 89
1, 43619, Note_on_c, 9, 42, 0
1, 43619, Note_on_c, 9, 35, 0
1, 43820, Note_on_c, 9, 40, 124
1, 43820, Note_on_c, 9, 54, 112
1, 43820, Note_on_c, 9, 42, 91
1, 43859, Note_on_c, 9, 40, 0
1, 43859, Note_on_c, 9, 54, 0
1, 43859, Note_on_c, 9, 42, 0
1, 44060, Note_on_c, 9, 42, 70
1, 44099, Note_on_c, 9, 42, 0
1, 44300, Note_on_c, 9, 42, 80
1, 44300, Note_on_c, 9, 35, 107
1, 44339, Note_on_c, 9, 42, 0
1, 44339, Note_on_c, 9, 35, 0
1, 44540, Note_on_c, 9, 42, 70
1, 44540, Note_on_c, 9, 35, 96
1, 44579, Note_on_c, 9, 42, 0
1, 44579, Note_on_c, 9, 35, 0
1, 44780, Note_on_c, 9, 40, 120
1, 44780, Note_on_c, 9, 54, 110
1, 44780, Note_on_c, 9, 42, 86
1, 44819, Note_on_c, 9, 40, 0
1, 44819, Note_on_c, 9, 54, 0
1, 44819, Note_on_c, 9, 42, 0
1, 45020, Note_on_c, 9, 42, 69
1, 45059, Note_on_c, 9, 42, 0
1, 45260, Note_on_c, 9, 42, 84
1, 45260, Note_on_c, 9, 35, 106
1, 45299, Note_on_c, 9, 42, 0
1, 45299, Note_on_c, 9, 35, 0
1, 45500, Note_on_c, 9, 42, 71
1, 45500, Note_on_c, 9, 35, 99
1, 45539, Note_on_c, 9, 42, 0
1, 45539, Note_on_c, 9, 35, 0
1, 45740, Note_on_c, 9, 40, 122
1, 45740, Note_on_c, 9, 54, 113
1, 45740, Note_on_c, 9, 42, 90
1, 45779, Note_on_c, 9, 40, 0
1, 45779, Note_on_c, 9, 54, 0
1, 45779, Note_on_c, 9, 42, 0
1, 45980, Note_on_c, 9, 42, 74
1, 46019, Note_on_c, 9, 42, 0
1, 46220, Note_on_c, 9, 42, 83
1, 46220, Note_on_c, 9, 35, 109
1, 46259, Note_on_c, 9, 42, 0
1, 46259, Note_on_c, 9, 35, 0
1, 46460, Note_on_c, 9, 42, 72
1, 46460, Note_on_c, 9, 35, 97
1, 46499, Note_on_c, 9, 42, 0
1, 46499, Note_on_c, 9, 35, 0
1, 46700, Note_on_c, 9, 40, 120
1, 46700, Note_on_c, 9, 54, 102
1, 46700, Note_on_c, 9, 42, 92
1, 46739, Note_on_c, 9, 40, 0
1, 46739, Note_on_c, 9, 54, 0
1, 46739, Note_on_c, 9, 42, 0
1, 46940, Note_on_c, 9, 42, 73
1, 46979, Note_on_c, 9, 42, 0
1, 47180, Note_on_c, 9, 42, 77
1, 47180, Note_on_c, 9, 35, 107
1, 47219, Note_on_c, 9, 42, 0
1, 47219, Note_on_c, 9, 35, 0
1, 47420, Note_on_c, 9, 42, 71
1, 47420, Note_on_c, 9, 35, 95
1, 47459, Note_on_c, 9, 42, 0
1, 47459, Note_on_c, 9, 35, 0
1, 47660, Note_on_c, 9, 40, 127
1, 47660, Note_on_c, 9, 54, 110
1, 47660, Note_on_c, 9, 42, 91
1, 47699, Note_on_c, 9, 40, 0
1, 47699, Note_on_c, 9, 54, 0
1, 47699, Note_on_c, 9, 42, 0
1, 47900, Note_on_c, 9, 46, 70
1, 47939, Note_on_c, 9, 46, 0
1, 48140, Note_on_c, 9, 42, 92
1, 48140, Note_on_c, 9, 35, 101
1, 48179, Note_on_c, 9, 42, 0
1, 48179, Note_on_c, 9, 35, 0
1, 48380, Note_on_c, 9, 42, 57
1, 48380, Note_on_c, 9, 35, 85
1, 48419, Note_on_c, 9, 42, 0
1, 48419, Note_on_c, 9, 35, 0
1, 48620, Note_on_c, 9, 40, 114
1, 48620, Note_on_c, 9, 54, 117
1, 48620, Note_on_c, 9, 42, 77
1, 48659, Note_on_c, 9, 40, 0
1, 48659, Note_on_c, 9, 54, 0
1, 48659, Note_on_c, 9, 42, 0
1, 48860, Note_on_c, 9, 42, 61
1, 48899, Note_on_c, 9, 42, 0
1, 49100, Note_on_c, 9, 42, 76
1, 49100, Note_on_c, 9, 35, 103
1, 49139, Note_on_c, 9, 42, 0
1, 49139, Note_on_c, 9, 35, 0
1, 49340, Note_on_c, 9, 42, 54
1, 49340, Note_on_c, 9, 35, 91
1, 49379, Note_on_c, 9, 42, 0
1, 49379, Note_on_c, 9, 35, 0
1, 49580, Note_on_c, 9, 40, 111
1, 49580, Note_on_c, 9, 54, 115
1, 49580, Note_on_c, 9, 42, 82
1, 49619, Note_on_c, 9, 40, 0
1, 49619, Note_on_c, 9, 54, 0
1, 49619, Note_on_c, 9, 42, 0
1, 49820, Note_on_c, 9, 42, 58
1, 49859, Note_on_c, 9, 42, 0
1, 50060, Note_on_c, 9, 42, 77
1, 50060, Note_on_c, 9, 35, 103
1, 50099, Note_on_c, 9, 42, 0
1, 50099, Note_on_c, 9, 35, 0
1, 50300, Note_on_c, 9, 42, 69
1, 50300, Note_on_c, 9, 35, 91
1, 50339, Note_on_c, 9, 42, 0
1, 50339, Note_on_c, 9, 35, 0
1, 50540, Note_on_c, 9, 40, 120
1, 50540, Note_on_c, 9, 54, 115
1, 50540, Note_on_c, 9, 42, 96
1, 50579, Note_on_c, 9, 40, 0
1, 50579, Note_on_c, 9, 54, 0
1, 50579, Note_on_c, 9, 42, 0
1, 50780, Note_on_c, 9, 42, 66
1, 50819, Note_on_c, 9, 42, 0
1, 51020, Note_on_c, 9, 42, 86
1, 51020, Note_on_c, 9, 35, 109
1, 51059, Note_on_c, 9, 42, 0
1, 51059, Note_on_c, 9, 35, 0
1, 51260, Note_on_c, 9, 42, 77
1, 51260, Note_on_c, 9, 35, 89
1, 51299, Note_on_c, 9, 42, 0
1, 51299, Note_on_c, 9, 35, 0
1, 51500, Note_on_c, 9, 40, 124
1, 51500, Note_on_c, 9, 54, 113
1, 51500, Note_on_c, 9, 42, 91
1, 51539, Note_on_c, 9, 40, 0
1, 51539, Note_on_c, 9, 54, 0
1, 51539, Note_on_c, 9, 42, 0
1, 51740, Note_on_c, 9, 42, 70
1, 51779, Note_on_c, 9, 42, 0
1, 51980, Note_on_c, 9, 42, 80
1, 51980, Note_on_c, 9, 35, 107
1, 52019, Note_on_c, 9, 42, 0
1, 52019, Note_on_c, 9, 35, 0
1, 52220, Note_on_c, 9, 42, 70
1, 52220, Note_on_c, 9, 35, 96
1, 52259, Note_on_c, 9, 42, 0
1, 52259, Note_on_c, 9, 35, 0
1, 52460, Note_on_c, 9, 40, 120
1, 52460, Note_on_c, 9, 54, 115
1, 52460, Note_on_c, 9, 42, 86
1, 52499, Note_on_c, 9, 40, 0
1, 52499, Note_on_c, 9, 54, 0
1, 52499, Note_on_c, 9, 42, 0
1, 52700, Note_on_c, 9, 42, 69
1, 52739, Note_on_c, 9, 42, 0
1, 52940, Note_on_c, 9, 42, 84
1, 52940, Note_on_c, 9, 35, 106
1, 52979, Note_on_c, 9, 42, 0
1, 52979, Note_on_c, 9, 35, 0
1, 53180, Note_on_c, 9, 42, 71
1, 53180, Note_on_c, 9, 35, 99
1, 53219, Note_on_c, 9, 42, 0
1, 53219, Note_on_c, 9, 35, 0
1, 53420, Note_on_c, 9, 40, 122
1, 53420, Note_on_c, 9, 54, 113
1, 53420, Note_on_c, 9, 42, 90
1, 53459, Note_on_c, 9, 40, 0
1, 53459, Note_on_c, 9, 54, 0
1, 53459, Note_on_c, 9, 42, 0
1, 53660, Note_on_c, 9, 42, 74
1, 53699, Note_on_c, 9, 42, 0
1, 53900, Note_on_c, 9, 40, 117
1, 53939, Note_on_c, 9, 40, 0
1, 54380, Note_on_c, 9, 54, 113
1, 54419, Note_on_c, 9, 54, 0
1, 55340, Note_on_c, 9, 40, 113
1, 55340, Note_on_c, 9, 54, 117
1, 55379, Note_on_c, 9, 40, 0
1, 55379, Note_on_c, 9, 54, 0
1, 55820, Note_on_c, 9, 42, 92
1, 55820, Note_on_c, 9, 35, 101
1, 55859, Note_on_c, 9, 42, 0
1, 55859, Note_on_c, 9, 35, 0
1, 56060, Note_on_c, 9, 42, 57
1, 56060, Note_on_c, 9, 35, 85
1, 56099, Note_on_c, 9, 42, 0
1, 56099, Note_on_c, 9, 35, 0
1, 56300, Note_on_c, 9, 40, 114
1, 56300, Note_on_c, 9, 54, 115
1, 56300, Note_on_c, 9, 42, 77
1, 56339, Note_on_c, 9, 40, 0
1, 56339, Note_on_c, 9, 54, 0
1, 56339, Note_on_c, 9, 42, 0
1, 56540, Note_on_c, 9, 42, 61
1, 56579, Note_on_c, 9, 42, 0
1, 56780, Note_on_c, 9, 42, 76
1, 56780, Note_on_c, 9, 35, 103
1, 56819, Note_on_c, 9, 42, 0
1, 56819, Note_on_c, 9, 35, 0
1, 57020, Note_on_c, 9, 42, 54
1, 57020, Note_on_c, 9, 35, 91
1, 57059, Note_on_c, 9, 42, 0
1, 57059, Note_on_c, 9, 35, 0
1, 57260, Note_on_c, 9, 40, 111
1, 57260, Note_on_c, 9, 54, 115
1, 57260, Note_on_c, 9, 42, 82
1, 57299, Note_on_c, 9, 40, 0
1, 57299, Note_on_c, 9, 54, 0
1, 57299, Note_on_c, 9, 42, 0
1, 57500, Note_on_c, 9, 42, 58
1, 57539, Note_on_c, 9, 42, 0
1, 57740, Note_on_c, 9, 42, 77
1, 57740, Note_on_c, 9, 35, 103
1, 57779, Note_on_c, 9, 42, 0
1, 57779, Note_on_c, 9, 35, 0
1, 57980, Note_on_c, 9, 42, 69
1, 57980, Note_on_c, 9, 35, 91
1, 58019, Note_on_c, 9, 42, 0
1, 58019, Note_on_c, 9, 35, 0
1, 58220, Note_on_c, 9, 40, 120
1, 58220, Note_on_c, 9, 54, 113
1, 58220, Note_on_c, 9, 42, 96
1, 58259, Note_on_c, 9, 40, 0
1, 58259, Note_on_c, 9, 54, 0
1, 58259, Note_on_c, 9, 42, 0
1, 58460, Note_on_c, 9, 42, 66
1, 58499, Note_on_c, 9, 42, 0
1, 58700, Note_on_c, 9, 42, 86
1, 58700, Note_on_c, 9, 35, 109
1, 58739, Note_on_c, 9, 42, 0
1, 58739, Note_on_c, 9, 35, 0
1, 58940, Note_on_c, 9, 42, 77
1, 58940, Note_on_c, 9, 35, 89
1, 58979, Note_on_c, 9, 42, 0
1, 58979, Note_on_c, 9, 35, 0
1, 59180, Note_on_c, 9, 40, 124
1, 59180, Note_on_c, 9, 54, 115
1, 59180, Note_on_c, 9, 42, 91
1, 59219, Note_on_c, 9, 40, 0
1, 59219, Note_on_c, 9, 54, 0
1, 59219, Note_on_c, 9, 42, 0
1, 59420, Note_on_c, 9, 42, 70
1, 59459, Note_on_c, 9, 42, 0
1, 59660, Note_on_c, 9, 42, 80
1, 59660, Note_on_c, 9, 35, 107
1, 59699, Note_on_c, 9, 42, 0
1, 59699, Note_on_c, 9, 35, 0
1, 59900, Note_on_c, 9, 42, 70
1, 59900, Note_on_c, 9, 35, 96
1, 59939, Note_on_c, 9, 42, 0
1, 59939, Note_on_c, 9, 35, 0
1, 60140, Note_on_c, 9, 40, 120
1, 60140, Note_on_c, 9, 54, 115
1, 60140, Note_on_c, 9, 42, 86
1, 60179, Note_on_c, 9, 40, 0
1, 60179, Note_on_c, 9, 54, 0
1, 60179, Note_on_c, 9, 42, 0
1, 60380, Note_on_c, 9, 42, 69
1, 60419, Note_on_c, 9, 42, 0
1, 60620, Note_on_c, 9, 42, 84
1, 60620, Note_on_c, 9, 35, 106
1, 60659, Note_on_c, 9, 42, 0
1, 60659, Note_on_c, 9, 35, 0
1, 60860, Note_on_c, 9, 42, 71
1, 60860, Note_on_c, 9, 35, 99
1, 60899, Note_on_c, 9, 42, 0
1, 60899, Note_on_c, 9, 35, 0
1, 61100, Note_on_c, 9, 40, 122
1, 61100, Note_on_c, 9, 54, 113
1, 61100, Note_on_c, 9, 42, 90
1, 61139, Note_on_c, 9, 40, 0
1, 61139, Note_on_c, 9, 54, 0
1, 61139, Note_on_c, 9, 42, 0
1, 61340, Note_on_c, 9, 42, 74
1, 61379, Note_on_c, 9, 42, 0
1, 61580, Note_on_c, 9, 42, 83
1, 61580, Note_on_c, 9, 35, 109
1, 61619, Note_on_c, 9, 42, 0
1, 61619, Note_on_c, 9, 35, 0
1, 61820, Note_on_c, 9, 42, 72
1, 61820, Note_on_c, 9, 35, 97
1, 61859, Note_on_c, 9, 42, 0
1, 61859, Note_on_c, 9, 35, 0
1, 62060, Note_on_c, 9, 40, 120
1, 62060, Note_on_c, 9, 54, 110
1, 62060, Note_on_c, 9, 42, 92
1, 62099, Note_on_c, 9, 40, 0
1, 62099, Note_on_c, 9, 54, 0
1, 62099, Note_on_c, 9, 42, 0
1, 62300, Note_on_c, 9, 42, 73
1, 62339, Note_on_c, 9, 42, 0
1, 62540, Note_on_c, 9, 42, 77
1, 62540, Note_on_c, 9, 35, 107
1, 62579, Note_on_c, 9, 42, 0
1, 62579, Note_on_c, 9, 35, 0
1, 62780, Note_on_c, 9, 42, 71
1, 62780, Note_on_c, 9, 35, 95
1, 62819, Note_on_c, 9, 42, 0
1, 62819, Note_on_c, 9, 35, 0
1, 63020, Note_on_c, 9, 40, 127
1, 63020, Note_on_c, 9, 54, 112
1, 63020, Note_on_c, 9, 42, 91
1, 63059, Note_on_c, 9, 40, 0
1, 63059, Note_on_c, 9, 54, 0
1, 63059, Note_on_c, 9, 42, 0
1, 63260, Note_on_c, 9, 46, 70
1, 63299, Note_on_c, 9, 46, 0
1, 63500, Note_on_c, 9, 42, 92
1, 63500, Note_on_c, 9, 35, 101
1, 63539, Note_on_c, 9, 42, 0
1, 63539, Note_on_c, 9, 35, 0
1, 63740, Note_on_c, 9, 42, 57
1, 63740, Note_on_c, 9, 35, 85
1, 63779, Note_on_c, 9, 42, 0
1, 63779, Note_on_c, 9, 35, 0
1, 63980, Note_on_c, 9, 40, 114
1, 63980, Note_on_c, 9, 54, 110
1, 63980, Note_on_c, 9, 42, 77
1, 64019, Note_on_c, 9, 40, 0
1, 64019, Note_on_c, 9, 54, 0
1, 64019, Note_on_c, 9, 42, 0
1, 64220, Note_on_c, 9, 42, 61
1, 64259, Note_on_c, 9, 42, 0
1, 64460, Note_on_c, 9, 42, 76
1, 64460, Note_on_c, 9, 35, 103
1, 64499, Note_on_c, 9, 42, 0
1, 64499, Note_on_c, 9, 35, 0
1, 64700, Note_on_c, 9, 42, 54
1, 64700, Note_on_c, 9, 35, 91
1, 64739, Note_on_c, 9, 42, 0
1, 64739, Note_on_c, 9, 35, 0
1, 64940, Note_on_c, 9, 40, 111
1, 64940, Note_on_c, 9, 54, 113
1, 64940, Note_on_c, 9, 42, 82
1, 64979, Note_on_c, 9, 40, 0
1, 64979, Note_on_c, 9, 54, 0
1, 64979, Note_on_c, 9, 42, 0
1, 65180, Note_on_c, 9, 42, 58
1, 65219, Note_on_c, 9, 42, 0
1, 65420, Note_on_c, 9, 42, 77
1, 65420, Note_on_c, 9, 35, 103
1, 65459, Note_on_c, 9, 42, 0
1, 65459, Note_on_c, 9, 35, 0
1, 65660, Note_on_c, 9, 42, 69
1, 65660, Note_on_c, 9, 35, 91
1, 65699, Note_on_c, 9, 42, 0
1, 65699, Note_on_c, 9, 35, 0
1, 65900, Note_on_c, 9, 40, 120
1, 65900, Note_on_c, 9, 54, 102
1, 65900, Note_on_c, 9, 42, 96
1, 65939, Note_on_c, 9, 40, 0
1, 65939, Note_on_c, 9, 54, 0
1, 65939, Note_on_c, 9, 42, 0
1, 66140, Note_on_c, 9, 42, 66
1, 66179, Note_on_c, 9, 42, 0
1, 66380, Note_on_c, 9, 42, 86
1, 66380, Note_on_c, 9, 35, 109
1, 66419, Note_on_c, 9, 42, 0
1, 66419, Note_on_c, 9, 35, 0
1, 66620, Note_on_c, 9, 42, 77
1, 66620, Note_on_c, 9, 35, 89
1, 66659, Note_on_c, 9, 42, 0
1, 66659, Note_on_c, 9, 35, 0
1, 66860, Note_on_c, 9, 40, 124
1, 66860, Note_on_c, 9, 54, 110
1, 66860, Note_on_c, 9, 42, 91
1, 66899, Note_on_c, 9, 40, 0
1, 66899, Note_on_c, 9, 54, 0
1, 66899, Note_on_c, 9, 42, 0
1, 67100, Note_on_c, 9, 42, 70
1, 67139, Note_on_c, 9, 42, 0
1, 67340, Note_on_c, 9, 42, 80
1, 67340, Note_on_c, 9, 35, 107
1, 67379, Note_on_c, 9, 42, 0
1, 67379, Note_on_c, 9, 35, 0
1, 67580, Note_on_c, 9, 42, 70
1, 67580, Note_on_c, 9, 35, 96
1, 67619, Note_on_c, 9, 42, 0
1, 67619, Note_on_c, 9, 35, 0
1, 67820, Note_on_c, 9, 40, 120
1, 67820, Note_on_c, 9, 54, 117
1, 67820, Note_on_c, 9, 42, 86
1, 67859, Note_on_c, 9, 40, 0
1, 67859, Note_on_c, 9, 54, 0
1, 67859, Note_on_c, 9, 42, 0
1, 68060, Note_on_c, 9, 42, 69
1, 68099, Note_on_c, 9, 42, 0
1, 68300, Note_on_c, 9, 42, 84
1, 68300, Note_on_c, 9, 35, 106
1, 68339, Note_on_c, 9, 42, 0
1, 68339, Note_on_c, 9, 35, 0
1, 68540, Note_on_c, 9, 42, 71
1, 68540, Note_on_c, 9, 35, 99
1, 68579, Note_on_c, 9, 42, 0
1, 68579, Note_on_c, 9, 35, 0
1, 68780, Note_on_c, 9, 40, 122
1, 68780, Note_on_c, 9, 54, 115
1, 68780, Note_on_c, 9, 42, 90
1, 68819, Note_on_c, 9, 40, 0
1, 68819, Note_on_c, 9, 54, 0
1, 68819, Note_on_c, 9, 42, 0
1, 69020, Note_on_c, 9, 42, 74
1, 69059, Note_on_c, 9, 42, 0
1, 69260, Note_on_c, 9, 42, 83
1, 69260, Note_on_c, 9, 35, 109
1, 69299, Note_on_c, 9, 42, 0
1, 69299, Note_on_c, 9, 35, 0
1, 69500, Note_on_c, 9, 42, 72
1, 69500, Note_on_c, 9, 35, 97
1, 69539, Note_on_c, 9, 42, 0
1, 69539, Note_on_c, 9, 35, 0
1, 69740, Note_on_c, 9, 40, 120
1, 69740, Note_on_c, 9, 54, 115
1, 69740, Note_on_c, 9, 42, 92
1, 69779, Note_on_c, 9, 40, 0
1, 69779, Note_on_c, 9, 54, 0
1, 69779, Note_on_c, 9, 42, 0
1, 69980, Note_on_c, 9, 42, 73
1, 70019, Note_on_c, 9, 42, 0
1, 70220, Note_on_c, 9, 42, 77
1, 70220, Note_on_c, 9, 35, 107
1, 70259, Note_on_c, 9, 42, 0
1, 70259, Note_on_c, 9, 35, 0
1, 70460, Note_on_c, 9, 42, 71
1, 70460, Note_on_c, 9, 35, 95
1, 70499, Note_on_c, 9, 42, 0
1, 70499, Note_on_c, 9, 35, 0
1, 70700, Note_on_c, 9, 40, 127
1, 70700, Note_on_c, 9, 54, 113
1, 70700, Note_on_c, 9, 42, 91
1, 70739, Note_on_c, 9, 40, 0
1, 70739, Note_on_c, 9, 54, 0
1, 70739, Note_on_c, 9, 42, 0
1, 70940, Note_on_c, 9, 46, 70
1, 70979, Note_on_c, 9, 46, 0
1, 71180, Note_on_c, 9, 42, 83
1, 71180, Note_on_c, 9, 35, 109
1, 71219, Note_on_c, 9, 42, 0
1, 71219, Note_on_c, 9, 35, 0
1, 71420, Note_on_c, 9, 42, 72
1, 71420, Note_on_c, 9, 35, 97
1, 71459, Note_on_c, 9, 42, 0
1, 71459, Note_on_c, 9, 35, 0
1, 71660, Note_on_c, 9, 40, 120
1, 71660, Note_on_c, 9, 54, 115
1, 71660, Note_on_c, 9, 42, 92
1, 71699, Note_on_c, 9, 40, 0
1, 71699, Note_on_c, 9, 54, 0
1, 71699, Note_on_c, 9, 42, 0
1, 71900, Note_on_c, 9, 42, 73
1, 71939, Note_on_c, 9, 42, 0
1, 72140, Note_on_c, 9, 42, 77
1, 72140, Note_on_c, 9, 35, 107
1, 72179, Note_on_c, 9, 42, 0
1, 72179, Note_on_c, 9, 35, 0
1, 72380, Note_on_c, 9, 42, 71
1, 72380, Note_on_c, 9, 35, 95
1, 72419, Note_on_c, 9, 42, 0
1, 72419, Note_on_c, 9, 35, 0
1, 72620, Note_on_c, 9, 40, 127
1, 72620, Note_on_c, 9, 54, 113
1, 72620, Note_on_c, 9, 42, 91
1, 72659, Note_on_c, 9, 40, 0
1, 72659, Note_on_c, 9, 54, 0
1, 72659, Note_on_c, 9, 42, 0
1, 72860, Note_on_c, 9, 46, 70
1, 72899, Note_on_c, 9, 46, 0
1, 73100, Note_on_c, 9, 49, 92
1, 73100, Note_on_c, 9, 35, 101
1, 73139, Note_on_c, 9, 49, 0
1, 73139, Note_on_c, 9, 35, 0
1, 73340, Note_on_c, 9, 35, 85
1, 73379, Note_on_c, 9, 35, 0
1, 73580, Note_on_c, 9, 40, 114
1, 73580, Note_on_c, 9, 54, 113
1, 73580, Note_on_c, 9, 42, 77
1, 73619, Note_on_c, 9, 40, 0
1, 73619, Note_on_c, 9, 54, 0
1, 73619, Note_on_c, 9, 42, 0
1, 73820, Note_on_c, 9, 42, 61
1, 73859, Note_on_c, 9, 42, 0
1, 74060, Note_on_c, 9, 42, 76
1, 74060, Note_on_c, 9, 35, 103
1, 74099, Note_on_c, 9, 42, 0
1, 74099, Note_on_c, 9, 35, 0
1, 74300, Note_on_c, 9, 42, 54
1, 74300, Note_on_c, 9, 35, 91
1, 74339, Note_on_c, 9, 42, 0
1, 74339, Note_on_c, 9, 35, 0
1, 74540, Note_on_c, 9, 40, 111
1, 74540, Note_on_c, 9, 54, 117
1, 74540, Note_on_c, 9, 42, 82
1, 74579, Note_on_c, 9, 40, 0
1, 74579, Note_on_c, 9, 54, 0
1, 74579, Note_on_c, 9, 42, 0
1, 74780, Note_on_c, 9, 42, 58
1, 74819, Note_on_c, 9, 42, 0
1, 75020, Note_on_c, 9, 42, 77
1, 75020, Note_on_c, 9, 35, 103
1, 75059, Note_on_c, 9, 42, 0
1, 75059, Note_on_c, 9, 35, 0
1, 75260, Note_on_c, 9, 42, 69
1, 75260, Note_on_c, 9, 35, 91
1, 75299, Note_on_c, 9, 42, 0
1, 75299, Note_on_c, 9, 35, 0
1, 75500, Note_on_c, 9, 40, 120
1, 75500, Note_on_c, 9, 54, 115
1, 75500, Note_on_c, 9, 42, 96
1, 75539, Note_on_c, 9, 40, 0
1, 75539, Note_on_c, 9, 54, 0
1, 75539, Note_on_c, 9, 42, 0
1, 75740, Note_on_c, 9, 42, 66
1, 75779, Note_on_c, 9, 42, 0
1, 75980, Note_on_c, 9, 42, 86
1, 75980, Note_on_c, 9, 35, 109
1, 76019, Note_on_c, 9, 42, 0
1, 76019, Note_on_c, 9, 35, 0
1, 76220, Note_on_c, 9, 42, 77
1, 76220, Note_on_c, 9, 35, 89
1, 76259, Note_on_c, 9, 42, 0
1, 76259, Note_on_c, 9, 35, 0
1, 76460, Note_on_c, 9, 40, 124
1, 76460, Note_on_c, 9, 54, 115
1, 76460, Note_on_c, 9, 42, 91
1, 76499, Note_on_c, 9, 40, 0
1, 76499, Note_on_c, 9, 54, 0
1, 76499, Note_on_c, 9, 42, 0
1, 76700, Note_on_c, 9, 42, 70
1, 76739, Note_on_c, 9, 42, 0
1, 76940, Note_on_c, 9, 42, 80
1, 76940, Note_on_c, 9, 35, 107
1, 76979, Note_on_c, 9, 42, 0
1, 76979, Note_on_c, 9, 35, 0
1, 77180, Note_on_c, 9, 42, 70
1, 77180, Note_on_c, 9, 35, 96
1, 77219, Note_on_c, 9, 42, 0
1, 77219, Note_on_c, 9, 35, 0
1, 77420, Note_on_c, 9, 40, 120
1, 77420, Note_on_c, 9, 54, 113
1, 77420, Note_on_c, 9, 42, 86
1, 77459, Note_on_c, 9, 40, 0
1, 77459, Note_on_c, 9, 54, 0
1, 77459, Note_on_c, 9, 42, 0
1, 77660, Note_on_c, 9, 42, 69
1, 77699, Note_on_c, 9, 42, 0
1, 77900, Note_on_c, 9, 42, 84
1, 77900, Note_on_c, 9, 35, 106
1, 77939, Note_on_c, 9, 42, 0
1, 77939, Note_on_c, 9, 35, 0
1, 78140, Note_on_c, 9, 42, 71
1, 78140, Note_on_c, 9, 35, 99
1, 78179, Note_on_c, 9, 42, 0
1, 78179, Note_on_c, 9, 35, 0
1, 78380, Note_on_c, 9, 40, 122
1, 78380, Note_on_c, 9, 54, 115
1, 78380, Note_on_c, 9, 42, 90
1, 78419, Note_on_c, 9, 40, 0
1, 78419, Note_on_c, 9, 54, 0
1, 78419, Note_on_c, 9, 42, 0
1, 78620, Note_on_c, 9, 42, 74
1, 78659, Note_on_c, 9, 42, 0
1, 78860, Note_on_c, 9, 42, 83
1, 78860, Note_on_c, 9, 35, 109
1, 78899, Note_on_c, 9, 42, 0
1, 78899, Note_on_c, 9, 35, 0
1, 79100, Note_on_c, 9, 42, 72
1, 79100, Note_on_c, 9, 35, 97
1, 79139, Note_on_c, 9, 42, 0
1, 79139, Note_on_c, 9, 35, 0
1, 79340, Note_on_c, 9, 40, 120
1, 79340, Note_on_c, 9, 54, 115
1, 79340, Note_on_c, 9, 42, 92
1, 79379, Note_on_c, 9, 40, 0
1, 79379, Note_on_c, 9, 54, 0
1, 79379, Note_on_c, 9, 42, 0
1, 79580, Note_on_c, 9, 42, 73
1, 79619, Note_on_c, 9, 42, 0
1, 79820, Note_on_c, 9, 42, 77
1, 79820, Note_on_c, 9, 35, 107
1, 79859, Note_on_c, 9, 42, 0
1, 79859, Note_on_c, 9, 35, 0
1, 80060, Note_on_c, 9, 42, 71
1, 80060, Note_on_c, 9, 35, 95
1, 80099, Note_on_c, 9, 42, 0
1, 80099, Note_on_c, 9, 35, 0
1, 80300, Note_on_c, 9, 40, 127
1, 80300, Note_on_c, 9, 54, 113
1, 80300, Note_on_c, 9, 42, 91
1, 80339, Note_on_c, 9, 40, 0
1, 80339, Note_on_c, 9, 54, 0
1, 80339, Note_on_c, 9, 42, 0
1, 80540, Note_on_c, 9, 46, 70
1, 80579, Note_on_c, 9, 46, 0
1, 80780, Note_on_c, 9, 42, 92
1, 80780, Note_on_c, 9, 35, 101
1, 80819, Note_on_c, 9, 42, 0
1, 80819, Note_on_c, 9, 35, 0
1, 81020, Note_on_c, 9, 42, 57
1, 81020, Note_on_c, 9, 35, 85
1, 81059, Note_on_c, 9, 42, 0
1, 81059, Note_on_c, 9, 35, 0
1, 81260, Note_on_c, 9, 40, 114
1, 81260, Note_on_c, 9, 54, 110
1, 81260, Note_on_c, 9, 42, 77
1, 81299, Note_on_c, 9, 40, 0
1, 81299, Note_on_c, 9, 54, 0
1, 81299, Note_on_c, 9, 42, 0
1, 81500, Note_on_c, 9, 42, 61
1, 81539, Note_on_c, 9, 42, 0
1, 81740, Note_on_c, 9, 42, 76
1, 81740, Note_on_c, 9, 35, 103
1, 81779, Note_on_c, 9, 42, 0
1, 81779, Note_on_c, 9, 35, 0
1, 81980, Note_on_c, 9, 42, 54
1, 81980, Note_on_c, 9, 35, 91
1, 82019, Note_on_c, 9, 42, 0
1, 82019, Note_on_c, 9, 35, 0
1, 82220, Note_on_c, 9, 40, 111
1, 82220, Note_on_c, 9, 54, 112
1, 82220, Note_on_c, 9, 42, 82
1, 82259, Note_on_c, 9, 40, 0
1, 82259, Note_on_c, 9, 54, 0
1, 82259, Note_on_c, 9, 42, 0
1, 82460, Note_on_c, 9, 42, 58
1, 82499, Note_on_c, 9, 42, 0
1, 82700, Note_on_c, 9, 42, 77
1, 82700, Note_on_c, 9, 35, 103
1, 82739, Note_on_c, 9, 42, 0
1, 82739, Note_on_c, 9, 35, 0
1, 82940, Note_on_c, 9, 42, 69
1, 82940, Note_on_c, 9, 35, 91
1, 82979, Note_on_c, 9, 42, 0
1, 82979, Note_on_c, 9, 35, 0
1, 83180, Note_on_c, 9, 40, 120
1, 83180, Note_on_c, 9, 54, 110
1, 83180, Note_on_c, 9, 42, 96
1, 83219, Note_on_c, 9, 40, 0
1, 83219, Note_on_c, 9, 54, 0
1, 83219, Note_on_c, 9, 42, 0
1, 83420, Note_on_c, 9, 42, 66
1, 83459, Note_on_c, 9, 42, 0
1, 83660, Note_on_c, 9, 42, 86
1, 83660, Note_on_c, 9, 35, 109
1, 83699, Note_on_c, 9, 42, 0
1, 83699, Note_on_c, 9, 35, 0
1, 83900, Note_on_c, 9, 42, 77
1, 83900, Note_on_c, 9, 35, 89
1, 83939, Note_on_c, 9, 42, 0
1, 83939, Note_on_c, 9, 35, 0
1, 84140, Note_on_c, 9, 40, 124
1, 84140, Note_on_c, 9, 54, 113
1, 84140, Note_on_c, 9, 42, 91
1, 84179, Note_on_c, 9, 40, 0
1, 84179, Note_on_c, 9, 54, 0
1, 84179, Note_on_c, 9, 42, 0
1, 84380, Note_on_c, 9, 42, 70
1, 84419, Note_on_c, 9, 42, 0
1, 84620, Note_on_c, 9, 42, 80
1, 84620, Note_on_c, 9, 35, 107
1, 84659, Note_on_c, 9, 42, 0
1, 84659, Note_on_c, 9, 35, 0
1, 84860, Note_on_c, 9, 42, 70
1, 84860, Note_on_c, 9, 35, 96
1, 84899, Note_on_c, 9, 42, 0
1, 84899, Note_on_c, 9, 35, 0
1, 85100, Note_on_c, 9, 40, 120
1, 85100, Note_on_c, 9, 54, 102
1, 85100, Note_on_c, 9, 42, 86
1, 85139, Note_on_c, 9, 40, 0
1, 85139, Note_on_c, 9, 54, 0
1, 85139, Note_on_c, 9, 42, 0
1, 85340, Note_on_c, 9, 42, 69
1, 85379, Note_on_c, 9, 42, 0
1, 85580, Note_on_c, 9, 42, 84
1, 85580, Note_on_c, 9, 35, 106
1, 85619, Note_on_c, 9, 42, 0
1, 85619, Note_on_c, 9, 35, 0
1, 85820, Note_on_c, 9, 42, 71
1, 85820, Note_on_c, 9, 35, 99
1, 85859, Note_on_c, 9, 42, 0
1, 85859, Note_on_c, 9, 35, 0
1, 86060, Note_on_c, 9, 40, 122
1, 86060, Note_on_c, 9, 54, 110
1, 86060, Note_on_c, 9, 42, 90
1, 86099, Note_on_c, 9, 40, 0
1, 86099, Note_on_c, 9, 54, 0
1, 86099, Note_on_c, 9, 42, 0
1, 86300, Note_on_c, 9, 42, 74
1, 86339, Note_on_c, 9, 42, 0
1, 86540, Note_on_c, 9, 40, 117
1, 86579, Note_on_c, 9, 40, 0
1, 87020, Note_on_c, 9, 54, 117
1, 87059, Note_on_c, 9, 54, 0
1, 87980, Note_on_c, 9, 40, 113
1, 87980, Note_on_c, 9, 54, 115
1, 88019, Note_on_c, 9, 40, 0
1, 88019, Note_on_c, 9, 54, 0
1, 88460, Note_on_c, 9, 42, 92
1, 88460, Note_on_c, 9, 35, 101
1, 88499, Note_on_c, 9, 42, 0
1, 88499, Note_on_c, 9, 35, 0
1, 88700, Note_on_c, 9, 42, 57
1, 88700, Note_on_c, 9, 35, 85
1, 88739, Note_on_c, 9, 42, 0
1, 88739, Note_on_c, 9, 35, 0
1, 88940, Note_on_c, 9, 40, 114
1, 88940, Note_on_c, 9, 54, 115
1, 88940, Note_on_c, 9, 42, 77
1, 88979, Note_on_c, 9, 40, 0
1, 88979, Note_on_c, 9, 54, 0
1, 88979, Note_on_c, 9, 42, 0
1, 89180, Note_on_c, 9, 42, 61
1, 89219, Note_on_c, 9, 42, 0
1, 89420, Note_on_c, 9, 42, 76
1, 89420, Note_on_c, 9, 35, 103
1, 89459, Note_on_c, 9, 42, 0
1, 89459, Note_on_c, 9, 35, 0
1, 89660, Note_on_c, 9, 42, 54
1, 89660, Note_on_c, 9, 35, 91
1, 89699, Note_on_c, 9, 42, 0
1, 89699, Note_on_c, 9, 35, 0
1, 89900, Note_on_c, 9, 40, 111
1, 89900, Note_on_c, 9, 54, 113
1, 89900, Note_on_c, 9, 42, 82
1, 89939, Note_on_c, 9, 40, 0
1, 89939, Note_on_c, 9, 54, 0
1, 89939, Note_on_c, 9, 42, 0
1, 90140, Note_on_c, 9, 42, 58
1, 90179, Note_on_c, 9, 42, 0
1, 90380, Note_on_c, 9, 42, 77
1, 90380, Note_on_c, 9, 35, 103
1, 90419, Note_on_c, 9, 42, 0
1, 90419, Note_on_c, 9, 35, 0
1, 90620, Note_on_c, 9, 42, 69
1, 90620, Note_on_c, 9, 35, 91
1, 90659, Note_on_c, 9, 42, 0
1, 90659, Note_on_c, 9, 35, 0
1, 90860, Note_on_c, 9, 40, 120
1, 90860, Note_on_c, 9, 54, 115
1, 90860, Note_on_c, 9, 42, 96
1, 90899, Note_on_c, 9, 40, 0
1, 90899, Note_on_c, 9, 54, 0
1, 90899, Note_on_c, 9, 42, 0
1, 91100, Note_on_c, 9, 42, 66
1, 91139, Note_on_c, 9, 42, 0
1, 91340, Note_on_c, 9, 42, 86
1, 91340, Note_on_c, 9, 35, 109
1, 91379, Note_on_c, 9, 42, 0
1, 91379, Note_on_c, 9, 35, 0
1, 91580, Note_on_c, 9, 42, 77
1, 91580, Note_on_c, 9, 35, 89
1, 91619, Note_on_c, 9, 42, 0
1, 91619, Note_on_c, 9, 35, 0
1, 91820, Note_on_c, 9, 40, 124
1, 91820, Note_on_c, 9, 54, 113
1, 91820, Note_on_c, 9, 42, 91
1, 91859, Note_on_c, 9, 40, 0
1, 91859, Note_on_c, 9, 54, 0
1, 91859, Note_on_c, 9, 42, 0
1, 92060, Note_on_c, 9, 42, 70
1, 92099, Note_on_c, 9, 42, 0
1, 92300, Note_on_c, 9, 42, 80
1, 92300, Note_on_c, 9, 35, 107
1, 92339, Note_on_c, 9, 42, 0
1, 92339, Note_on_c, 9, 35, 0
1, 92540, Note_on_c, 9, 42, 70
1, 92540, Note_on_c, 9, 35, 96
1, 92579, Note_on_c, 9, 42, 0
1, 92579, Note_on_c, 9, 35, 0
1, 92780, Note_on_c, 9, 40, 120
1, 92780, Note_on_c, 9, 54, 113
1, 92780, Note_on_c, 9, 42, 86
1, 92819, Note_on_c, 9, 40, 0
1, 92819, Note_on_c, 9, 54, 0
1, 92819, Note_on_c, 9, 42, 0
1, 93020, Note_on_c, 9, 42, 69
1, 93059, Note_on_c, 9, 42, 0
1, 93260, Note_on_c, 9, 42, 84
1, 93260, Note_on_c, 9, 35, 106
1, 93299, Note_on_c, 9, 42, 0
1, 93299, Note_on_c, 9, 35, 0
1, 93500, Note_on_c, 9, 42, 71
1, 93500, Note_on_c, 9, 35, 99
1, 93539, Note_on_c, 9, 42, 0
1, 93539, Note_on_c, 9, 35, 0
1, 93740, Note_on_c, 9, 40, 122
1, 93740, Note_on_c, 9, 54, 117
1, 93740, Note_on_c, 9, 42, 90
1, 93779, Note_on_c, 9, 40, 0
1, 93779, Note_on_c, 9, 54, 0
1, 93779, Note_on_c, 9, 42, 0
1, 93980, Note_on_c, 9, 42, 74
1, 94019, Note_on_c, 9, 42, 0
1, 94220, Note_on_c, 9, 42, 83
1, 94220, Note_on_c, 9, 35, 109
1, 94259, Note_on_c, 9, 42, 0
1, 94259, Note_on_c, 9, 35, 0
1, 94460, Note_on_c, 9, 42, 72
1, 94460, Note_on_c, 9, 35, 97
1, 94499, Note_on_c, 9, 42, 0
1, 94499, Note_on_c, 9, 35, 0
1, 94700, Note_on_c, 9, 40, 120
1, 94700, Note_on_c, 9, 54, 115
1, 94700, Note_on_c, 9, 42, 92
1, 94739, Note_on_c, 9, 40, 0
1, 94739, Note_on_c, 9, 54, 0
1, 94739, Note_on_c, 9, 42, 0
1, 94940, Note_on_c, 9, 42, 73
1, 94979, Note_on_c, 9, 42, 0
1, 95180, Note_on_c, 9, 42, 77
1, 95180, Note_on_c, 9, 35, 107
1, 95219, Note_on_c, 9, 42, 0
1, 95219, Note_on_c, 9, 35, 0
1, 95420, Note_on_c, 9, 42, 71
1, 95420, Note_on_c, 9, 35, 95
1, 95459, Note_on_c, 9, 42, 0
1, 95459, Note_on_c, 9, 35, 0
1, 95660, Note_on_c, 9, 40, 127
1, 95660, Note_on_c, 9, 54, 115
1, 95660, Note_on_c, 9, 42, 91
1, 95699, Note_on_c, 9, 40, 0
1, 95699, Note_on_c, 9, 54, 0
1, 95699, Note_on_c, 9, 42, 0
1, 95900, Note_on_c, 9, 46, 70
1, 95939, Note_on_c, 9, 46, 0
1, 96140, Note_on_c, 9, 42, 92
1, 96140, Note_on_c, 9, 35, 101
1, 96179, Note_on_c, 9, 42, 0
1, 96179, Note_on_c, 9, 35, 0
1, 96380, Note_on_c, 9, 42, 57
1, 96380, Note_on_c, 9, 35, 85
1, 96419, Note_on_c, 9, 42, 0
1, 96419, Note_on_c, 9, 35, 0
1, 96620, Note_on_c, 9, 40, 114
1, 96620, Note_on_c, 9, 54, 113
1, 96620, Note_on_c, 9, 42, 77
1, 96659, Note_on_c, 9, 40, 0
1, 96659, Note_on_c, 9, 54, 0
1, 96659, Note_on_c, 9, 42, 0
1, 96860, Note_on_c, 9, 42, 61
1, 96899, Note_on_c, 9, 42, 0
1, 97100, Note_on_c, 9, 42, 76
1, 97100, Note_on_c, 9, 35, 103
1, 97139, Note_on_c, 9, 42, 0
1, 97139, Note_on_c, 9, 35, 0
1, 97340, Note_on_c, 9, 42, 54
1, 97340, Note_on_c, 9, 35, 91
1, 97379, Note_on_c, 9, 42, 0
1, 97379, Note_on_c, 9, 35, 0
1, 97580, Note_on_c, 9, 40, 111
1, 97580, Note_on_c, 9, 54, 115
1, 97580, Note_on_c, 9, 42, 82
1, 97619, Note_on_c, 9, 40, 0
1, 97619, Note_on_c, 9, 54, 0
1, 97619, Note_on_c, 9, 42, 0
1, 97820, Note_on_c, 9, 42, 58
1, 97859, Note_on_c, 9, 42, 0
1, 98060, Note_on_c, 9, 42, 77
1, 98060, Note_on_c, 9, 35, 103
1, 98099, Note_on_c, 9, 42, 0
1, 98099, Note_on_c, 9, 35, 0
1, 98300, Note_on_c, 9, 42, 69
1, 98300, Note_on_c, 9, 35, 91
1, 98339, Note_on_c, 9, 42, 0
1, 98339, Note_on_c, 9, 35, 0
1, 98540, Note_on_c, 9, 40, 120
1, 98540, Note_on_c, 9, 54, 115
1, 98540, Note_on_c, 9, 42, 96
1, 98579, Note_on_c, 9, 40, 0
1, 98579, Note_on_c, 9, 54, 0
1, 98579, Note_on_c, 9, 42, 0
1, 98780, Note_on_c, 9, 42, 66
1, 98819, Note_on_c, 9, 42, 0
1, 99020, Note_on_c, 9, 42, 86
1, 99020, Note_on_c, 9, 35, 109
1, 99059, Note_on_c, 9, 42, 0
1, 99059, Note_on_c, 9, 35, 0
1, 99260, Note_on_c, 9, 42, 77
1, 99260, Note_on_c, 9, 35, 89
1, 99299, Note_on_c, 9, 42, 0
1, 99299, Note_on_c, 9, 35, 0
1, 99500, Note_on_c, 9, 40, 124
1, 99500, Note_on_c, 9, 54, 113
1, 99500, Note_on_c, 9, 42, 91
1, 99539, Note_on_c, 9, 40, 0
1, 99539, Note_on_c, 9, 54, 0
1, 99539, Note_on_c, 9, 42, 0
1, 99740, Note_on_c, 9, 42, 70
1, 99779, Note_on_c, 9, 42, 0
1, 99980, Note_on_c, 9, 42, 80
1, 99980, Note_on_c, 9, 35, 107
1, 100019, Note_on_c, 9, 42, 0
1, 100019, Note_on_c, 9, 35, 0
1, 100220, Note_on_c, 9, 42, 70
1, 100220, Note_on_c, 9, 35, 96
1, 100259, Note_on_c, 9, 42, 0
1, 100259, Note_on_c, 9, 35, 0
1, 100460, Note_on_c, 9, 40, 120
1, 100460, Note_on_c, 9, 54, 110
1, 100460, Note_on_c, 9, 42, 86
1, 100499, Note_on_c, 9, 40, 0
1, 100499, Note_on_c, 9, 54, 0
1, 100499, Note_on_c, 9, 42, 0
1, 100700, Note_on_c, 9, 42, 69
1, 100739, Note_on_c, 9, 42, 0
1, 100940, Note_on_c, 9, 42, 84
1, 100940, Note_on_c, 9, 35, 106
1, 100979, Note_on_c, 9, 42, 0
1, 100979, Note_on_c, 9, 35, 0
1, 101180, Note_on_c, 9, 42, 71
1, 101180, Note_on_c, 9, 35, 99
1, 101219, Note_on_c, 9, 42, 0
1, 101219, Note_on_c, 9, 35, 0
1, 101420, Note_on_c, 9, 40, 122
1, 101420, Note_on_c, 9, 54, 112
1, 101420, Note_on_c, 9, 42, 90
1, 101459, Note_on_c, 9, 40, 0
1, 101459, Note_on_c, 9, 54, 0
1, 101459, Note_on_c, 9, 42, 0
1, 101660, Note_on_c, 9, 42, 74
1, 101699, Note_on_c, 9, 42, 0
1, 101900, Note_on_c, 9, 42, 83
1, 101900, Note_on_c, 9, 35, 109
1, 101939, Note_on_c, 9, 42, 0
1, 101939, Note_on_c, 9, 35, 0
1, 102140, Note_on_c, 9, 42, 72
1, 102140, Note_on_c, 9, 35, 97
1, 102179, Note_on_c, 9, 42, 0
1, 102179, Note_on_c, 9, 35, 0
1, 102380, Note_on_c, 9, 40, 120
1, 102380, Note_on_c, 9, 54, 110
1, 102380, Note_on_c, 9, 42, 92
1, 102419, Note_on_c, 9, 40, 0
1, 102419, Note_on_c, 9, 54, 0
1, 102419, Note_on_c, 9, 42, 0
1, 102620, Note_on_c, 9, 42, 73
1, 102659, Note_on_c, 9, 42, 0
1, 102860, Note_on_c, 9, 42, 77
1, 102860, Note_on_c, 9, 35, 107
1, 102899, Note_on_c, 9, 42, 0
1, 102899, Note_on_c, 9, 35, 0
1, 103100, Note_on_c, 9, 42, 71
1, 103100, Note_on_c, 9, 35, 95
1, 103139, Note_on_c, 9, 42, 0
1, 103139, Note_on_c, 9, 35, 0
1, 103340, Note_on_c, 9, 40, 127
1, 103340, Note_on_c, 9, 54, 113
1, 103340, Note_on_c, 9, 42, 91
1, 103379, Note_on_c, 9, 40, 0
1, 103379, Note_on_c, 9, 54, 0
1, 103379, Note_on_c, 9, 42, 0
1, 103580, Note_on_c, 9, 46, 70
1, 103619, Note_on_c, 9, 46, 0
1, 103820, Note_on_c, 9, 42, 80
1, 103820, Note_on_c, 9, 35, 107
1, 103859, Note_on_c, 9, 42, 0
1, 103859, Note_on_c, 9, 35, 0
1, 104060, Note_on_c, 9, 42, 70
1, 104060, Note_on_c, 9, 35, 96
1, 104099, Note_on_c, 9, 42, 0
1, 104099, Note_on_c, 9, 35, 0
1, 104300, Note_on_c, 9, 40, 120
1, 104300, Note_on_c, 9, 54, 102
1, 104300, Note_on_c, 9, 42, 86
1, 104339, Note_on_c, 9, 40, 0
1, 104339, Note_on_c, 9, 54, 0
1, 104339, Note_on_c, 9, 42, 0
1, 104540, Note_on_c, 9, 42, 69
1, 104579, Note_on_c, 9, 42, 0
1, 104780, Note_on_c, 9, 42, 84
1, 104780, Note_on_c, 9, 35, 106
1, 104819, Note_on_c, 9, 42, 0
1, 104819, Note_on_c, 9, 35, 0
1, 105020, Note_on_c, 9, 42, 71
1, 105020, Note_on_c, 9, 35, 99
1, 105059, Note_on_c, 9, 42, 0
1, 105059, Note_on_c, 9, 35, 0
1, 105260, Note_on_c, 9, 40, 122
1, 105260, Note_on_c, 9, 54, 110
1, 105260, Note_on_c, 9, 42, 90
1, 105299, Note_on_c, 9, 40, 0
1, 105299, Note_on_c, 9, 54, 0
1, 105299, Note_on_c, 9, 42, 0
1, 105500, Note_on_c, 9, 42, 74
1, 105539, Note_on_c, 9, 42, 0
1, 105740, Note_on_c, 9, 42, 83
1, 105740, Note_on_c, 9, 35, 109
1, 105779, Note_on_c, 9, 42, 0
1, 105779, Note_on_c, 9, 35, 0
1, 105980, Note_on_c, 9, 42, 72
1, 105980, Note_on_c, 9, 35, 97
1, 106019, Note_on_c, 9, 42, 0
1, 106019, Note_on_c, 9, 35, 0
1, 106220, Note_on_c, 9, 40, 120
1, 106220, Note_on_c, 9, 54, 117
1, 106220, Note_on_c, 9, 42, 92
1, 106259, Note_on_c, 9, 40, 0
1, 106259, Note_on_c, 9, 54, 0
1, 106259, Note_on_c, 9, 42, 0
1, 106460, Note_on_c, 9, 42, 73
1, 106499, Note_on_c, 9, 42, 0
1, 106700, Note_on_c, 9, 42, 77
1, 106700, Note_on_c, 9, 35, 107
1, 106739, Note_on_c, 9, 42, 0
1, 106739, Note_on_c, 9, 35, 0
1, 106940, Note_on_c, 9, 42, 71
1, 106940, Note_on_c, 9, 35, 95
1, 106979, Note_on_c, 9, 42, 0
1, 106979, Note_on_c, 9, 35, 0
1, 107180, Note_on_c, 9, 40, 127
1, 107180, Note_on_c, 9, 54, 115
1, 107180, Note_on_c, 9, 42, 91
1, 107219, Note_on_c, 9, 40, 0
1, 107219, Note_on_c, 9, 54, 0
1, 107219, Note_on_c, 9, 42, 0
1, 107420, Note_on_c, 9, 46, 70
1, 107459, Note_on_c, 9, 46, 0
1, 107660, Note_on_c, 9, 42, 83
1, 107660, Note_on_c, 9, 35, 109
1, 107699, Note_on_c, 9, 42, 0
1, 107699, Note_on_c, 9, 35, 0
1, 107900, Note_on_c, 9, 42, 72
1, 107900, Note_on_c, 9, 35, 97
1, 107939, Note_on_c, 9, 42, 0
1, 107939, Note_on_c, 9, 35, 0
1, 108140, Note_on_c, 9, 40, 120
1, 108140, Note_on_c, 9, 54, 115
1, 108140, Note_on_c, 9, 42, 92
1, 108179, Note_on_c, 9, 40, 0
1, 108179, Note_on_c, 9, 54, 0
1, 108179, Note_on_c, 9, 42, 0
1, 108380, Note_on_c, 9, 42, 73
1, 108419, Note_on_c, 9, 42, 0
1, 108620, Note_on_c, 9, 42, 77
1, 108620, Note_on_c, 9, 35, 107
1, 108659, Note_on_c, 9, 42, 0
1, 108659, Note_on_c, 9, 35, 0
1, 108860, Note_on_c, 9, 42, 71
1, 108860, Note_on_c, 9, 35, 95
1, 108899, Note_on_c, 9, 42, 0
1, 108899, Note_on_c, 9, 35, 0
1, 109100, Note_on_c, 9, 40, 127
1, 109100, Note_on_c, 9, 54, 113
1, 109100, Note_on_c, 9, 42, 91
1, 109139, Note_on_c, 9, 40, 0
1, 109139, Note_on_c, 9, 54, 0
1, 109139, Note_on_c, 9, 42, 0
1, 109340, Note_on_c, 9, 46, 70
1, 109379, Note_on_c, 9, 46, 0
1, 109580, Note_on_c, 9, 49, 92
1, 109580, Note_on_c, 9, 35, 101
1, 109619, Note_on_c, 9, 49, 0
1, 109619, Note_on_c, 9, 35, 0
1, 109820, Note_on_c, 9, 35, 85
1, 109859, Note_on_c, 9, 35, 0
1, 110060, Note_on_c, 9, 40, 114
1, 110060, Note_on_c, 9, 54, 115
1, 110060, Note_on_c, 9, 42, 77
1, 110099, Note_on_c, 9, 40, 0
1, 110099, Note_on_c, 9, 54, 0
1, 110099, Note_on_c, 9, 42, 0
1, 110300, Note_on_c, 9, 42, 61
1, 110339, Note_on_c, 9, 42, 0
1, 110540, Note_on_c, 9, 42, 76
1, 110540, Note_on_c, 9, 35, 103
1, 110579, Note_on_c, 9, 42, 0
1, 110579, Note_on_c, 9, 35, 0
1, 110780, Note_on_c, 9, 42, 54
1, 110780, Note_on_c, 9, 35, 91
1, 110819, Note_on_c, 9, 42, 0
1, 110819, Note_on_c, 9, 35, 0
1, 111020, Note_on_c, 9, 40, 111
1, 111020, Note_on_c, 9, 54, 113
1, 111020, Note_on_c, 9, 42, 82
1, 111059, Note_on_c, 9, 40, 0
1, 111059, Note_on_c, 9, 54, 0
1, 111059, Note_on_c, 9, 42, 0
1, 111260, Note_on_c, 9, 42, 58
1, 111299, Note_on_c, 9, 42, 0
1, 111500, Note_on_c, 9, 42, 77
1, 111500, Note_on_c, 9, 35, 103
1, 111539, Note_on_c, 9, 42, 0
1, 111539, Note_on_c, 9, 35, 0
1, 111740, Note_on_c, 9, 42, 69
1, 111740, Note_on_c, 9, 35, 91
1, 111779, Note_on_c, 9, 42, 0
1, 111779, Note_on_c, 9, 35, 0
1, 111980, Note_on_c, 9, 40, 120
1, 111980, Note_on_c, 9, 54, 113
1, 111980, Note_on_c, 9, 42, 96
1, 112019, Note_on_c, 9, 40, 0
1, 112019, Note_on_c, 9, 54, 0
1, 112019, Note_on_c, 9, 42, 0
1, 112220, Note_on_c, 9, 42, 66
1, 112259, Note_on_c, 9, 42, 0
1, 112460, Note_on_c, 9, 42, 86
1, 112460, Note_on_c, 9, 35, 109
1, 112499, Note_on_c, 9, 42, 0
1, 112499, Note_on_c, 9, 35, 0
1, 112700, Note_on_c, 9, 42, 77
1, 112700, Note_on_c, 9, 35, 89
1, 112739, Note_on_c, 9, 42, 0
1, 112739, Note_on_c, 9, 35, 0
1, 112940, Note_on_c, 9, 40, 124
1, 112940, Note_on_c, 9, 54, 117
1, 112940, Note_on_c, 9, 42, 91
1, 112979, Note_on_c, 9, 40, 0
1, 112979, Note_on_c, 9, 54, 0
1, 112979, Note_on_c, 9, 42, 0
1, 113180, Note_on_c, 9, 42, 70
1, 113219, Note_on_c, 9, 42, 0
1, 113420, Note_on_c, 9, 42, 80
1, 113420, Note_on_c, 9, 35, 107
1, 113459, Note_on_c, 9, 42, 0
1, 113459, Note_on_c, 9, 35, 0
1, 113660, Note_on_c, 9, 42, 70
1, 113660, Note_on_c, 9, 35, 96
1, 113699, Note_on_c, 9, 42, 0
1, 113699, Note_on_c, 9, 35, 0
1, 113900, Note_on_c, 9, 40, 120
1, 113900, Note_on_c, 9, 54, 115
1, 113900, Note_on_c, 9, 42, 86
1, 113939, Note_on_c, 9, 40, 0
1, 113939, Note_on_c, 9, 54, 0
1, 113939, Note_on_c, 9, 42, 0
1, 114140, Note_on_c, 9, 42, 69
1, 114179, Note_on_c, 9, 42, 0
1, 114380, Note_on_c, 9, 42, 84
1, 114380, Note_on_c, 9, 35, 106
1, 114419, Note_on_c, 9, 42, 0
1, 114419, Note_on_c, 9, 35, 0
1, 114620, Note_on_c, 9, 42, 71
1, 114620, Note_on_c, 9, 35, 99
1, 114659, Note_on_c, 9, 42, 0
1, 114659, Note_on_c, 9, 35, 0
1, 114860, Note_on_c, 9, 40, 122
1, 114860, Note_on_c, 9, 54, 115
1, 114860, Note_on_c, 9, 42, 90
1, 114899, Note_on_c, 9, 40, 0
1, 114899, Note_on_c, 9, 54, 0
1, 114899, Note_on_c, 9, 42, 0
1, 115100, Note_on_c, 9, 42, 74
1, 115139, Note_on_c, 9, 42, 0
1, 115340, Note_on_c, 9, 42, 83
1, 115340, Note_on_c, 9, 35, 109
1, 115379, Note_on_c, 9, 42, 0
1, 115379, Note_on_c, 9, 35, 0
1, 115580, Note_on_c, 9, 42, 72
1, 115580, Note_on_c, 9, 35, 97
1, 115619, Note_on_c, 9, 42, 0
1, 115619, Note_on_c, 9, 35, 0
1, 115820, Note_on_c, 9, 40, 120
1, 115820, Note_on_c, 9, 54, 113
1, 115820, Note_on_c, 9, 42, 92
1, 115859, Note_on_c, 9, 40, 0
1, 115859, Note_on_c, 9, 54, 0
1, 115859, Note_on_c, 9, 42, 0
1, 116060, Note_on_c, 9, 42, 73
1, 116099, Note_on_c, 9, 42, 0
1, 116300, Note_on_c, 9, 42, 77
1, 116300, Note_on_c, 9, 35, 107
1, 116339, Note_on_c, 9, 42, 0
1, 116339, Note_on_c, 9, 35, 0
1, 116540, Note_on_c, 9, 42, 71
1, 116540, Note_on_c, 9, 35, 95
1, 116579, Note_on_c, 9, 42, 0
1, 116579, Note_on_c, 9, 35, 0
1, 116780, Note_on_c, 9, 40, 127
1, 116780, Note_on_c, 9, 54, 115
1, 116780, Note_on_c, 9, 42, 91
1, 116819, Note_on_c, 9, 40, 0
1, 116819, Note_on_c, 9, 54, 0
1, 116819, Note_on_c, 9, 42, 0
1, 117020, Note_on_c, 9, 46, 70
1, 117059, Note_on_c, 9, 46, 0
1, 117260, Note_on_c, 9, 49, 92
1, 117260, Note_on_c, 9, 35, 101
1, 117299, Note_on_c, 9, 49, 0
1, 117299, Note_on_c, 9, 35, 0
1, 117500, Note_on_c, 9, 35, 85
1, 117539, Note_on_c, 9, 35, 0
1, 117740, Note_on_c, 9, 40, 114
1, 117740, Note_on_c, 9, 54, 115
1, 117740, Note_on_c, 9, 42, 77
1, 117779, Note_on_c, 9, 40, 0
1, 117779, Note_on_c, 9, 54, 0
1, 117779, Note_on_c, 9, 42, 0
1, 117980, Note_on_c, 9, 42, 61
1, 118019, Note_on_c, 9, 42, 0
1, 118220, Note_on_c, 9, 42, 76
1, 118220, Note_on_c, 9, 35, 103
1, 118259, Note_on_c, 9, 42, 0
1, 118259, Note_on_c, 9, 35, 0
1, 118460, Note_on_c, 9, 42, 54
1, 118460, Note_on_c, 9, 35, 91
1, 118499, Note_on_c, 9, 42, 0
1, 118499, Note_on_c, 9, 35, 0
1, 118700, Note_on_c, 9, 40, 111
1, 118700, Note_on_c, 9, 54, 113
1, 118700, Note_on_c, 9, 42, 82
1, 118739, Note_on_c, 9, 40, 0
1, 118739, Note_on_c, 9, 54, 0
1, 118739, Note_on_c, 9, 42, 0
1, 118940, Note_on_c, 9, 42, 58
1, 118979, Note_on_c, 9, 42, 0
1, 119180, Note_on_c, 9, 42, 77
1, 119180, Note_on_c, 9, 35, 103
1, 119219, Note_on_c, 9, 42, 0
1, 119219, Note_on_c, 9, 35, 0
1, 119420, Note_on_c, 9, 42, 69
1, 119420, Note_on_c, 9, 35, 91
1, 119459, Note_on_c, 9, 42, 0
1, 119459, Note_on_c, 9, 35, 0
1, 119660, Note_on_c, 9, 40, 120
1, 119660, Note_on_c, 9, 54, 110
1, 119660, Note_on_c, 9, 42, 96
1, 119699, Note_on_c, 9, 40, 0
1, 119699, Note_on_c, 9, 54, 0
1, 119699, Note_on_c, 9, 42, 0
1, 119900, Note_on_c, 9, 42, 66
1, 119939, Note_on_c, 9, 42, 0
1, 120140, Note_on_c, 9, 42, 86
1, 120140, Note_on_c, 9, 35, 109
1, 120179, Note_on_c, 9, 42, 0
1, 120179, Note_on_c, 9, 35, 0
1, 120380, Note_on_c, 9, 42, 77
1, 120380, Note_on_c, 9, 35, 89
1, 120419, Note_on_c, 9, 42, 0
1, 120419, Note_on_c, 9, 35, 0
1, 120620, Note_on_c, 9, 40, 124
1, 120620, Note_on_c, 9, 54, 112
1, 120620, Note_on_c, 9, 42, 91
1, 120659, Note_on_c, 9, 40, 0
1, 120659, Note_on_c, 9, 54, 0
1, 120659, Note_on_c, 9, 42, 0
1, 120860, Note_on_c, 9, 42, 70
1, 120899, Note_on_c, 9, 42, 0
1, 121100, Note_on_c, 9, 42, 80
1, 121100, Note_on_c, 9, 35, 107
1, 121139, Note_on_c, 9, 42, 0
1, 121139, Note_on_c, 9, 35, 0
1, 121340, Note_on_c, 9, 42, 70
1, 121340, Note_on_c, 9, 35, 96
1, 121379, Note_on_c, 9, 42, 0
1, 121379, Note_on_c, 9, 35, 0
1, 121580, Note_on_c, 9, 40, 120
1, 121580, Note_on_c, 9, 54, 110
1, 121580, Note_on_c, 9, 42, 86
1, 121619, Note_on_c, 9, 40, 0
1, 121619, Note_on_c, 9, 54, 0
1, 121619, Note_on_c, 9, 42, 0
1, 121820, Note_on_c, 9, 42, 69
1, 121859, Note_on_c, 9, 42, 0
1, 122060, Note_on_c, 9, 42, 84
1, 122060, Note_on_c, 9, 35, 106
1, 122099, Note_on_c, 9, 42, 0
1, 122099, Note_on_c, 9, 35, 0
1, 122300, Note_on_c, 9, 42, 71
1, 122300, Note_on_c, 9, 35, 99
1, 122339, Note_on_c, 9, 42, 0
1, 122339, Note_on_c, 9, 35, 0
1, 122540, Note_on_c, 9, 40, 122
1, 122540, Note_on_c, 9, 54, 113
1, 122540, Note_on_c, 9, 42, 90
1, 122579, Note_on_c, 9, 40, 0
1, 122579, Note_on_c, 9, 54, 0
1, 122579, Note_on_c, 9, 42, 0
1, 122780, Note_on_c, 9, 42, 74
1, 122819, Note_on_c, 9, 42, 0
1, 123020, Note_on_c, 9, 42, 83
1, 123020, Note_on_c, 9, 35, 109
1, 123059, Note_on_c, 9, 42, 0
1, 123059, Note_on_c, 9, 35, 0
1, 123260, Note_on_c, 9, 42, 72
1, 123260, Note_on_c, 9, 35, 97
1, 123299, Note_on_c, 9, 42, 0
1, 123299, Note_on_c, 9, 35, 0
1, 123500, Note_on_c, 9, 40, 120
1, 123500, Note_on_c, 9, 54, 102
1, 123500, Note_on_c, 9, 42, 92
1, 123539, Note_on_c, 9, 40, 0
1, 123539, Note_on_c, 9, 54, 0
1, 123539, Note_on_c, 9, 42, 0
1, 123740, Note_on_c, 9, 42, 73
1, 123779, Note_on_c, 9, 42, 0
1, 123980, Note_on_c, 9, 42, 77
1, 123980, Note_on_c, 9, 35, 107
1, 124019, Note_on_c, 9, 42, 0
1, 124019, Note_on_c, 9, 35, 0
1, 124220, Note_on_c, 9, 42, 71
1, 124220, Note_on_c, 9, 35, 95
1, 124259, Note_on_c, 9, 42, 0
1, 124259, Note_on_c, 9, 35, 0
1, 124460, Note_on_c, 9, 40, 127
1, 124460, Note_on_c, 9, 54, 110
1, 124460, Note_on_c, 9, 42, 91
1, 124499, Note_on_c, 9, 40, 0
1, 124499, Note_on_c, 9, 54, 0
1, 124499, Note_on_c, 9, 42, 0
1, 124700, Note_on_c, 9, 46, 70
1, 124739, Note_on_c, 9, 46, 0
1, 124940, Note_on_c, 9, 42, 92
1, 124940, Note_on_c, 9, 35, 101
1, 124979, Note_on_c, 9, 42, 0
1, 124979, Note_on_c, 9, 35, 0
1, 125180, Note_on_c, 9, 42, 57
1, 125180, Note_on_c, 9, 35, 85
1, 125219, Note_on_c, 9, 42, 0
1, 125219, Note_on_c, 9, 35, 0
1, 125420, Note_on_c, 9, 40, 114
1, 125420, Note_on_c, 9, 54, 117
1, 125420, Note_on_c, 9, 42, 77
1, 125459, Note_on_c, 9, 40, 0
1, 125459, Note_on_c, 9, 54, 0
1, 125459, Note_on_c, 9, 42, 0
1, 125660, Note_on_c, 9, 42, 61
1, 125699, Note_on_c, 9, 42, 0
1, 125900, Note_on_c, 9, 42, 76
1, 125900, Note_on_c, 9, 35, 103
1, 125939, Note_on_c, 9, 42, 0
1, 125939, Note_on_c, 9, 35, 0
1, 126140, Note_on_c, 9, 42, 54
1, 126140, Note_on_c, 9, 35, 91
1, 126179, Note_on_c, 9, 42, 0
1, 126179, Note_on_c, 9, 35, 0
1, 126380, Note_on_c, 9, 40, 111
1, 126380, Note_on_c, 9, 54, 115
1, 126380, Note_on_c, 9, 42, 82
1, 126419, Note_on_c, 9, 40, 0
1, 126419, Note_on_c, 9, 54, 0
1, 126419, Note_on_c, 9, 42, 0
1, 126620, Note_on_c, 9, 42, 58
1, 126659, Note_on_c, 9, 42, 0
1, 126860, Note_on_c, 9, 42, 77
1, 126860, Note_on_c, 9, 35, 103
1, 126899, Note_on_c, 9, 42, 0
1, 126899, Note_on_c, 9, 35, 0
1, 127100, Note_on_c, 9, 42, 69
1, 127100, Note_on_c, 9, 35, 91
1, 127139, Note_on_c, 9, 42, 0
1, 127139, Note_on_c, 9, 35, 0
1, 127340, Note_on_c, 9, 40, 120
1, 127340, Note_on_c, 9, 54, 115
1, 127340, Note_on_c, 9, 42, 96
1, 127379, Note_on_c, 9, 40, 0
1, 127379, Note_on_c, 9, 54, 0
1, 127379, Note_on_c, 9, 42, 0
1, 127580, Note_on_c, 9, 42, 66
1, 127619, Note_on_c, 9, 42, 0
1, 127820, Note_on_c, 9, 42, 86
1, 127820, Note_on_c, 9, 35, 109
1, 127859, Note_on_c, 9, 42, 0
1, 127859, Note_on_c, 9, 35, 0
1, 128060, Note_on_c, 9, 42, 77
1, 128060, Note_on_c, 9, 35, 89
1, 128099, Note_on_c, 9, 42, 0
1, 128099, Note_on_c, 9, 35, 0
1, 128300, Note_on_c, 9, 40, 124
1, 128300, Note_on_c, 9, 54, 113
1, 128300, Note_on_c, 9, 42, 91
1, 128339, Note_on_c, 9, 40, 0
1, 128339, Note_on_c, 9, 54, 0
1, 128339, Note_on_c, 9, 42, 0
1, 128540, Note_on_c, 9, 42, 70
1, 128579, Note_on_c, 9, 42, 0
1, 128780, Note_on_c, 9, 42, 80
1, 128780, Note_on_c, 9, 35, 107
1, 128819, Note_on_c, 9, 42, 0
1, 128819, Note_on_c, 9, 35, 0
1, 129020, Note_on_c, 9, 42, 70
1, 129020, Note_on_c, 9, 35, 96
1, 129059, Note_on_c, 9, 42, 0
1, 129059, Note_on_c, 9, 35, 0
1, 129260, Note_on_c, 9, 40, 120
1, 129260, Note_on_c, 9, 54, 115
1, 129260, Note_on_c, 9, 42, 86
1, 129299, Note_on_c, 9, 40, 0
1, 129299, Note_on_c, 9, 54, 0
1, 129299, Note_on_c, 9, 42, 0
1, 129500, Note_on_c, 9, 42, 69
1, 129539, Note_on_c, 9, 42, 0
1, 129740, Note_on_c, 9, 42, 84
1, 129740, Note_on_c, 9, 35, 106
1, 129779, Note_on_c, 9, 42, 0
1, 129779, Note_on_c, 9, 35, 0
1, 129980, Note_on_c, 9, 42, 71
1, 129980, Note_on_c, 9, 35, 99
1, 130019, Note_on_c, 9, 42, 0
1, 130019, Note_on_c, 9, 35, 0
1, 130220, Note_on_c, 9, 40, 122
1, 130220, Note_on_c, 9, 54, 113
1, 130220, Note_on_c, 9, 42, 90
1, 130259, Note_on_c, 9, 40, 0
1, 130259, Note_on_c, 9, 54, 0
1, 130259, Note_on_c, 9, 42, 0
1, 130460, Note_on_c, 9, 42, 74
1, 130499, Note_on_c, 9, 42, 0
1, 130700, Note_on_c, 9, 40, 117
1, 130739, Note_on_c, 9, 40, 0
1, 130740, End_track
0, 0, End_of_file
