0, 0, Header, 1, 1, 480
1, 0, Start_track
1, 0, Time_signature, 4, 2, 24, 8
1, 0, Key_signature, 0, "major"
1, 0, Tempo, 697674
1, 0, Control_c, 9, 121, 0
1, 0, Program_c, 9, 0
1, 0, Control_c, 9, 7, 84
1, 0, Control_c, 9, 10, 64
1, 0, Control_c, 9, 91, 0
1, 0, Control_c, 9, 93, 0
1, 0, MIDI_port, 0
1, 0, Note_on_c, 9, 42, 97
1, 479, Note_on_c, 9, 42, 0
1, 480, Note_on_c, 9, 42, 100
1, 959, Note_on_c, 9, 42, 0
1, 960, Note_on_c, 9, 42, 102
1, 1439, Note_on_c, 9, 42, 0
1, 1440, Note_on_c, 9, 42, 97
1, 1599, Note_on_c, 9, 42, 0
1, 1600, Note_on_c, 9, 38, 95
1, 1679, Note_on_c, 9, 38, 0
1, 1680, Note_on_c, 9, 38, 102
1, 1919, Note_on_c, 9, 38, 0
1, 1920, Note_on_c, 9, 46, 100
1, 1920, Note_on_c, 9, 36, 80
1, 2159, Note_on_c, 9, 46, 0
1, 2159, Note_on_c, 9, 36, 0
1, 2160, Note_on_c, 9, 38, 93
1, 2160, Note_on_c, 9, 43, 107
1, 2399, Note_on_c, 9, 38, 0
1, 2399, Note_on_c, 9, 43, 0
1, 2400, Note_on_c, 9, 36, 85
1, 2560, Note_on_c, 9, 45, 99
1, 2639, Note_on_c, 9, 45, 0
1, 2640, Note_on_c, 9, 38, 91
1, 2879, Note_on_c, 9, 36, 0
1, 2879, Note_on_c, 9, 38, 0
1, 2880, Note_on_c, 9, 36, 86
1, 3119, Note_on_c, 9, 36, 0
1, 3120, Note_on_c, 9, 38, 91
1, 3120, Note_on_c, 9, 43, 93
1, 3359, Note_on_c, 9, 38, 0
1, 3359, Note_on_c, 9, 43, 0
1, 3360, Note_on_c, 9, 36, 85
1, 3520, Note_on_c, 9, 38, 97
1, 3599, Note_on_c, 9, 38, 0
1, 3600, Note_on_c, 9, 38, 95
1, 3839, Note_on_c, 9, 36, 0
1, 3839, Note_on_c, 9, 38, 0
1, 3840, Note_on_c, 9, 44, 91
1, 3840, Note_on_c, 9, 36, 86
1, 4079, Note_on_c, 9, 44, 0
1, 4079, Note_on_c, 9, 36, 0
1, 4080, Note_on_c, 9, 38, 92
1, 4080, Note_on_c, 9, 44, 99
1, 4319, Note_on_c, 9, 38, 0
1, 4319, Note_on_c, 9, 44, 0
1, 4320, Note_on_c, 9, 36, 81
1, 4480, Note_on_c, 9, 46, 100
1, 4559, Note_on_c, 9, 36, 0
1, 4559, Note_on_c, 9, 46, 0
1, 4560, Note_on_c, 9, 38, 93
1, 4560, Note_on_c, 9, 44, 92
1, 4799, Note_on_c, 9, 38, 0
1, 4799, Note_on_c, 9, 44, 0
1, 4800, Note_on_c, 9, 44, 92
1, 4800, Note_on_c, 9, 36, 83
1, 5039, Note_on_c, 9, 44, 0
1, 5039, Note_on_c, 9, 36, 0
1, 5040, Note_on_c, 9, 38, 93
1, 5040, Note_on_c, 9, 44, 100
1, 5279, Note_on_c, 9, 38, 0
1, 5279, Note_on_c, 9, 44, 0
1, 5280, Note_on_c, 9, 36, 86
1, 5440, Note_on_c, 9, 38, 97
1, 5519, Note_on_c, 9, 38, 0
1, 5520, Note_on_c, 9, 38, 93
1, 5759, Note_on_c, 9, 36, 0
1, 5759, Note_on_c, 9, 38, 0
1, 5760, Note_on_c, 9, 44, 92
1, 5760, Note_on_c, 9, 36, 86
1, 5999, Note_on_c, 9, 44, 0
1, 5999, Note_on_c, 9, 36, 0
1, 6000, Note_on_c, 9, 38, 97
1, 6000, Note_on_c, 9, 44, 100
1, 6239, Note_on_c, 9, 38, 0
1, 6239, Note_on_c, 9, 44, 0
1, 6240, Note_on_c, 9, 44, 89
1, 6240, Note_on_c, 9, 36, 83
1, 6400, Note_on_c, 9, 46, 99
1, 6479, Note_on_c, 9, 46, 0
1, 6480, Note_on_c, 9, 38, 81
1, 6719, Note_on_c, 9, 44, 0
1, 6719, Note_on_c, 9, 36, 0
1, 6719, Note_on_c, 9, 38, 0
1, 6720, Note_on_c, 9, 36, 93
1, 6959, Note_on_c, 9, 36, 0
1, 6960, Note_on_c, 9, 38, 95
1, 6960, Note_on_c, 9, 44, 99
1, 7199, Note_on_c, 9, 38, 0
1, 7199, Note_on_c, 9, 44, 0
1, 7200, Note_on_c, 9, 36, 86
1, 7360, Note_on_c, 9, 38, 95
1, 7439, Note_on_c, 9, 38, 0
1, 7440, Note_on_c, 9, 38, 95
1, 7679, Note_on_c, 9, 36, 0
1, 7679, Note_on_c, 9, 38, 0
1, 7680, Note_on_c, 9, 44, 95
1, 7680, Note_on_c, 9, 36, 92
1, 7920, Note_on_c, 9, 38, 91
1, 7920, Note_on_c, 9, 46, 97
1, 8159, Note_on_c, 9, 44, 0
1, 8159, Note_on_c, 9, 36, 0
1, 8159, Note_on_c, 9, 38, 0
1, 8159, Note_on_c, 9, 46, 0
1, 8160, Note_on_c, 9, 36, 89
1, 8319, Note_on_c, 9, 36, 0
1, 8320, Note_on_c, 9, 44, 100
1, 8399, Note_on_c, 9, 44, 0
1, 8400, Note_on_c, 9, 38, 99
1, 8639, Note_on_c, 9, 38, 0
1, 8640, Note_on_c, 9, 46, 100
1, 8640, Note_on_c, 9, 36, 93
1, 9119, Note_on_c, 9, 46, 0
1, 9119, Note_on_c, 9, 36, 0
1, 9760, Note_on_c, 9, 38, 99
1, 9779, Note_on_c, 9, 38, 0
1, 9840, Note_on_c, 9, 38, 95
1, 10079, Note_on_c, 9, 38, 0
1, 10080, Note_on_c, 9, 43, 102
1, 10320, Note_on_c, 9, 41, 107
1, 10559, Note_on_c, 9, 43, 0
1, 10559, Note_on_c, 9, 41, 0
1, 10560, Note_on_c, 9, 49, 93
1, 10560, Note_on_c, 9, 36, 72
1, 10799, Note_on_c, 9, 49, 0
1, 10799, Note_on_c, 9, 36, 0
1, 10800, Note_on_c, 9, 38, 92
1, 10800, Note_on_c, 9, 44, 100
1, 11039, Note_on_c, 9, 38, 0
1, 11039, Note_on_c, 9, 44, 0
1, 11040, Note_on_c, 9, 36, 85
1, 11199, Note_on_c, 9, 36, 0
1, 11200, Note_on_c, 9, 44, 102
1, 11279, Note_on_c, 9, 44, 0
1, 11280, Note_on_c, 9, 38, 97
1, 11519, Note_on_c, 9, 38, 0
1, 11520, Note_on_c, 9, 36, 87
1, 11759, Note_on_c, 9, 36, 0
1, 11760, Note_on_c, 9, 38, 93
1, 11760, Note_on_c, 9, 44, 89
1, 11999, Note_on_c, 9, 38, 0
1, 11999, Note_on_c, 9, 44, 0
1, 12000, Note_on_c, 9, 36, 85
1, 12119, Note_on_c, 9, 36, 0
1, 12160, Note_on_c, 9, 44, 99
1, 12239, Note_on_c, 9, 44, 0
1, 12240, Note_on_c, 9, 38, 95
1, 12479, Note_on_c, 9, 38, 0
1, 12480, Note_on_c, 9, 36, 91
1, 12719, Note_on_c, 9, 36, 0
1, 12720, Note_on_c, 9, 38, 95
1, 12720, Note_on_c, 9, 44, 97
1, 12959, Note_on_c, 9, 38, 0
1, 12959, Note_on_c, 9, 44, 0
1, 12960, Note_on_c, 9, 36, 85
1, 13119, Note_on_c, 9, 36, 0
1, 13120, Note_on_c, 9, 44, 99
1, 13199, Note_on_c, 9, 44, 0
1, 13200, Note_on_c, 9, 38, 95
1, 13439, Note_on_c, 9, 38, 0
1, 13440, Note_on_c, 9, 36, 91
1, 13679, Note_on_c, 9, 36, 0
1, 13680, Note_on_c, 9, 38, 97
1, 13680, Note_on_c, 9, 44, 100
1, 13919, Note_on_c, 9, 38, 0
1, 13919, Note_on_c, 9, 44, 0
1, 13920, Note_on_c, 9, 36, 91
1, 14079, Note_on_c, 9, 36, 0
1, 14080, Note_on_c, 9, 44, 99
1, 14159, Note_on_c, 9, 44, 0
1, 14160, Note_on_c, 9, 38, 95
1, 14399, Note_on_c, 9, 38, 0
1, 14400, Note_on_c, 9, 36, 91
1, 14639, Note_on_c, 9, 36, 0
1, 14640, Note_on_c, 9, 38, 95
1, 14640, Note_on_c, 9, 44, 100
1, 14879, Note_on_c, 9, 38, 0
1, 14879, Note_on_c, 9, 44, 0
1, 14880, Note_on_c, 9, 36, 85
1, 15039, Note_on_c, 9, 36, 0
1, 15040, Note_on_c, 9, 44, 100
1, 15119, Note_on_c, 9, 44, 0
1, 15120, Note_on_c, 9, 38, 95
1, 15359, Note_on_c, 9, 38, 0
1, 15360, Note_on_c, 9, 36, 92
1, 15599, Note_on_c, 9, 36, 0
1, 15600, Note_on_c, 9, 38, 95
1, 15600, Note_on_c, 9, 44, 100
1, 15839, Note_on_c, 9, 38, 0
1, 15839, Note_on_c, 9, 44, 0
1, 15840, Note_on_c, 9, 36, 87
1, 15999, Note_on_c, 9, 36, 0
1, 16000, Note_on_c, 9, 44, 100
1, 16079, Note_on_c, 9, 44, 0
1, 16080, Note_on_c, 9, 38, 93
1, 16319, Note_on_c, 9, 38, 0
1, 16320, Note_on_c, 9, 36, 92
1, 16559, Note_on_c, 9, 36, 0
1, 16560, Note_on_c, 9, 38, 93
1, 16560, Note_on_c, 9, 44, 100
1, 16799, Note_on_c, 9, 38, 0
1, 16799, Note_on_c, 9, 44, 0
1, 16800, Note_on_c, 9, 36, 83
1, 16959, Note_on_c, 9, 36, 0
1, 16960, Note_on_c, 9, 44, 100
1, 17039, Note_on_c, 9, 44, 0
1, 17040, Note_on_c, 9, 38, 95
1, 17279, Note_on_c, 9, 38, 0
1, 17280, Note_on_c, 9, 36, 89
1, 17519, Note_on_c, 9, 36, 0
1, 17520, Note_on_c, 9, 38, 95
1, 17520, Note_on_c, 9, 44, 100
1, 17759, Note_on_c, 9, 38, 0
1, 17759, Note_on_c, 9, 44, 0
1, 17760, Note_on_c, 9, 36, 91
1, 17919, Note_on_c, 9, 36, 0
1, 17920, Note_on_c, 9, 44, 99
1, 17999, Note_on_c, 9, 44, 0
1, 18000, Note_on_c, 9, 38, 95
1, 18239, Note_on_c, 9, 38, 0
1, 18240, Note_on_c, 9, 36, 89
1, 18479, Note_on_c, 9, 36, 0
1, 18480, Note_on_c, 9, 38, 97
1, 18480, Note_on_c, 9, 44, 99
1, 18719, Note_on_c, 9, 38, 0
1, 18719, Note_on_c, 9, 44, 0
1, 18720, Note_on_c, 9, 36, 87
1, 18880, Note_on_c, 9, 38, 100
1, 18959, Note_on_c, 9, 38, 0
1, 18960, Note_on_c, 9, 38, 95
1, 19199, Note_on_c, 9, 36, 0
1, 19199, Note_on_c, 9, 38, 0
1, 19200, Note_on_c, 9, 36, 93
1, 19439, Note_on_c, 9, 36, 0
1, 19440, Note_on_c, 9, 38, 95
1, 19440, Note_on_c, 9, 44, 100
1, 19679, Note_on_c, 9, 38, 0
1, 19679, Note_on_c, 9, 44, 0
1, 19680, Note_on_c, 9, 36, 85
1, 19839, Note_on_c, 9, 36, 0
1, 19840, Note_on_c, 9, 44, 99
1, 19919, Note_on_c, 9, 44, 0
1, 19920, Note_on_c, 9, 38, 99
1, 20159, Note_on_c, 9, 38, 0
1, 20160, Note_on_c, 9, 36, 87
1, 20399, Note_on_c, 9, 36, 0
1, 20400, Note_on_c, 9, 38, 95
1, 20400, Note_on_c, 9, 44, 99
1, 20639, Note_on_c, 9, 38, 0
1, 20639, Note_on_c, 9, 44, 0
1, 20640, Note_on_c, 9, 36, 85
1, 20799, Note_on_c, 9, 36, 0
1, 20800, Note_on_c, 9, 44, 99
1, 20879, Note_on_c, 9, 44, 0
1, 20880, Note_on_c, 9, 38, 95
1, 21119, Note_on_c, 9, 38, 0
1, 21120, Note_on_c, 9, 36, 92
1, 21359, Note_on_c, 9, 36, 0
1, 21360, Note_on_c, 9, 38, 97
1, 21360, Note_on_c, 9, 44, 100
1, 21599, Note_on_c, 9, 38, 0
1, 21599, Note_on_c, 9, 44, 0
1, 21600, Note_on_c, 9, 36, 89
1, 21759, Note_on_c, 9, 36, 0
1, 21760, Note_on_c, 9, 44, 100
1, 21839, Note_on_c, 9, 44, 0
1, 21840, Note_on_c, 9, 38, 97
1, 22079, Note_on_c, 9, 38, 0
1, 22080, Note_on_c, 9, 36, 92
1, 22319, Note_on_c, 9, 36, 0
1, 22320, Note_on_c, 9, 38, 95
1, 22320, Note_on_c, 9, 44, 100
1, 22559, Note_on_c, 9, 38, 0
1, 22559, Note_on_c, 9, 44, 0
1, 22560, Note_on_c, 9, 36, 92
1, 22719, Note_on_c, 9, 36, 0
1, 22720, Note_on_c, 9, 44, 99
1, 22799, Note_on_c, 9, 44, 0
1, 22800, Note_on_c, 9, 38, 97
1, 23039, Note_on_c, 9, 38, 0
1, 23040, Note_on_c, 9, 36, 89
1, 23279, Note_on_c, 9, 36, 0
1, 23280, Note_on_c, 9, 38, 97
1, 23280, Note_on_c, 9, 44, 100
1, 23519, Note_on_c, 9, 38, 0
1, 23519, Note_on_c, 9, 44, 0
1, 23520, Note_on_c, 9, 36, 89
1, 23679, Note_on_c, 9, 36, 0
1, 23680, Note_on_c, 9, 44, 99
1, 23759, Note_on_c, 9, 44, 0
1, 23760, Note_on_c, 9, 38, 97
1, 23999, Note_on_c, 9, 38, 0
1, 24000, Note_on_c, 9, 36, 92
1, 24239, Note_on_c, 9, 36, 0
1, 24240, Note_on_c, 9, 38, 95
1, 24240, Note_on_c, 9, 44, 100
1, 24479, Note_on_c, 9, 38, 0
1, 24479, Note_on_c, 9, 44, 0
1, 24480, Note_on_c, 9, 36, 89
1, 24639, Note_on_c, 9, 36, 0
1, 24640, Note_on_c, 9, 44, 99
1, 24719, Note_on_c, 9, 44, 0
1, 24720, Note_on_c, 9, 38, 97
1, 24959, Note_on_c, 9, 38, 0
1, 24960, Note_on_c, 9, 36, 91
1, 25199, Note_on_c, 9, 36, 0
1, 25200, Note_on_c, 9, 38, 99
1, 25200, Note_on_c, 9, 44, 99
1, 25439, Note_on_c, 9, 38, 0
1, 25439, Note_on_c, 9, 44, 0
1, 25440, Note_on_c, 9, 36, 91
1, 25599, Note_on_c, 9, 36, 0
1, 25600, Note_on_c, 9, 44, 99
1, 25679, Note_on_c, 9, 44, 0
1, 25680, Note_on_c, 9, 38, 99
1, 25919, Note_on_c, 9, 38, 0
1, 25920, Note_on_c, 9, 36, 93
1, 26159, Note_on_c, 9, 36, 0
1, 26160, Note_on_c, 9, 38, 99
1, 26160, Note_on_c, 9, 44, 100
1, 26399, Note_on_c, 9, 38, 0
1, 26399, Note_on_c, 9, 44, 0
1, 26400, Note_on_c, 9, 36, 89
1, 26559, Note_on_c, 9, 36, 0
1, 26560, Note_on_c, 9, 44, 100
1, 26639, Note_on_c, 9, 44, 0
1, 26640, Note_on_c, 9, 38, 99
1, 26879, Note_on_c, 9, 38, 0
1, 26880, Note_on_c, 9, 36, 95
1, 27120, Note_on_c, 9, 38, 99
1, 27120, Note_on_c, 9, 40, 100
1, 27239, Note_on_c, 9, 36, 0
1, 27280, Note_on_c, 9, 36, 95
1, 27359, Note_on_c, 9, 38, 0
1, 27359, Note_on_c, 9, 40, 0
1, 27359, Note_on_c, 9, 36, 0
1, 27360, Note_on_c, 9, 36, 93
1, 27600, Note_on_c, 9, 38, 100
1, 27600, Note_on_c, 9, 40, 99
1, 27839, Note_on_c, 9, 36, 0
1, 27839, Note_on_c, 9, 38, 0
1, 27839, Note_on_c, 9, 40, 0
1, 27840, Note_on_c, 9, 36, 97
1, 28080, Note_on_c, 9, 38, 99
1, 28080, Note_on_c, 9, 40, 99
1, 28199, Note_on_c, 9, 36, 0
1, 28240, Note_on_c, 9, 36, 97
1, 28319, Note_on_c, 9, 38, 0
1, 28319, Note_on_c, 9, 40, 0
1, 28319, Note_on_c, 9, 36, 0
1, 28320, Note_on_c, 9, 36, 87
1, 28560, Note_on_c, 9, 38, 99
1, 28560, Note_on_c, 9, 40, 99
1, 28799, Note_on_c, 9, 36, 0
1, 28799, Note_on_c, 9, 38, 0
1, 28799, Note_on_c, 9, 40, 0
1, 28800, Note_on_c, 9, 36, 97
1, 29040, Note_on_c, 9, 38, 95
1, 29040, Note_on_c, 9, 40, 97
1, 29159, Note_on_c, 9, 36, 0
1, 29200, Note_on_c, 9, 36, 95
1, 29279, Note_on_c, 9, 38, 0
1, 29279, Note_on_c, 9, 40, 0
1, 29279, Note_on_c, 9, 36, 0
1, 29280, Note_on_c, 9, 36, 89
1, 29520, Note_on_c, 9, 38, 99
1, 29520, Note_on_c, 9, 40, 99
1, 29759, Note_on_c, 9, 36, 0
1, 29759, Note_on_c, 9, 38, 0
1, 29759, Note_on_c, 9, 40, 0
1, 29760, Note_on_c, 9, 36, 93
1, 30000, Note_on_c, 9, 38, 97
1, 30000, Note_on_c, 9, 40, 99
1, 30119, Note_on_c, 9, 36, 0
1, 30160, Note_on_c, 9, 36, 95
1, 30239, Note_on_c, 9, 38, 0
1, 30239, Note_on_c, 9, 40, 0
1, 30239, Note_on_c, 9, 36, 0
1, 30240, Note_on_c, 9, 36, 85
1, 30480, Note_on_c, 9, 38, 93
1, 30480, Note_on_c, 9, 40, 95
1, 30719, Note_on_c, 9, 36, 0
1, 30719, Note_on_c, 9, 38, 0
1, 30719, Note_on_c, 9, 40, 0
1, 30720, Note_on_c, 9, 36, 97
1, 30960, Note_on_c, 9, 38, 93
1, 30960, Note_on_c, 9, 40, 97
1, 31079, Note_on_c, 9, 36, 0
1, 31120, Note_on_c, 9, 36, 91
1, 31199, Note_on_c, 9, 38, 0
1, 31199, Note_on_c, 9, 40, 0
1, 31199, Note_on_c, 9, 36, 0
1, 31200, Note_on_c, 9, 36, 89
1, 31440, Note_on_c, 9, 38, 97
1, 31440, Note_on_c, 9, 40, 99
1, 31679, Note_on_c, 9, 36, 0
1, 31679, Note_on_c, 9, 38, 0
1, 31679, Note_on_c, 9, 40, 0
1, 31680, Note_on_c, 9, 36, 97
1, 31920, Note_on_c, 9, 38, 97
1, 31920, Note_on_c, 9, 40, 97
1, 32039, Note_on_c, 9, 36, 0
1, 32080, Note_on_c, 9, 36, 95
1, 32159, Note_on_c, 9, 38, 0
1, 32159, Note_on_c, 9, 40, 0
1, 32159, Note_on_c, 9, 36, 0
1, 32160, Note_on_c, 9, 36, 91
1, 32400, Note_on_c, 9, 38, 99
1, 32400, Note_on_c, 9, 40, 99
1, 32639, Note_on_c, 9, 36, 0
1, 32639, Note_on_c, 9, 38, 0
1, 32639, Note_on_c, 9, 40, 0
1, 32640, Note_on_c, 9, 49, 99
1, 32640, Note_on_c, 9, 36, 92
1, 33119, Note_on_c, 9, 49, 0
1, 33119, Note_on_c, 9, 36, 0
1, 33280, Note_on_c, 9, 38, 92
1, 33359, Note_on_c, 9, 38, 0
1, 33360, Note_on_c, 9, 38, 97
1, 33599, Note_on_c, 9, 38, 0
1, 33600, Note_on_c, 9, 36, 95
1, 33839, Note_on_c, 9, 36, 0
1, 33840, Note_on_c, 9, 38, 97
1, 33840, Note_on_c, 9, 44, 100
1, 34079, Note_on_c, 9, 38, 0
1, 34079, Note_on_c, 9, 44, 0
1, 34080, Note_on_c, 9, 36, 86
1, 34319, Note_on_c, 9, 36, 0
1, 34320, Note_on_c, 9, 38, 81
1, 34320, Note_on_c, 9, 44, 95
1, 34559, Note_on_c, 9, 38, 0
1, 34559, Note_on_c, 9, 44, 0
1, 34560, Note_on_c, 9, 36, 93
1, 34799, Note_on_c, 9, 36, 0
1, 34800, Note_on_c, 9, 38, 97
1, 34800, Note_on_c, 9, 44, 100
1, 35039, Note_on_c, 9, 38, 0
1, 35039, Note_on_c, 9, 44, 0
1, 35040, Note_on_c, 9, 36, 92
1, 35199, Note_on_c, 9, 36, 0
1, 35200, Note_on_c, 9, 44, 100
1, 35279, Note_on_c, 9, 44, 0
1, 35280, Note_on_c, 9, 38, 97
1, 35519, Note_on_c, 9, 38, 0
1, 35520, Note_on_c, 9, 36, 93
1, 35759, Note_on_c, 9, 36, 0
1, 35760, Note_on_c, 9, 38, 97
1, 35760, Note_on_c, 9, 44, 102
1, 35999, Note_on_c, 9, 38, 0
1, 35999, Note_on_c, 9, 44, 0
1, 36000, Note_on_c, 9, 36, 92
1, 36159, Note_on_c, 9, 36, 0
1, 36160, Note_on_c, 9, 44, 102
1, 36239, Note_on_c, 9, 44, 0
1, 36240, Note_on_c, 9, 38, 97
1, 36479, Note_on_c, 9, 38, 0
1, 36480, Note_on_c, 9, 36, 92
1, 36719, Note_on_c, 9, 36, 0
1, 36720, Note_on_c, 9, 38, 97
1, 36720, Note_on_c, 9, 44, 100
1, 36959, Note_on_c, 9, 38, 0
1, 36959, Note_on_c, 9, 44, 0
1, 36960, Note_on_c, 9, 36, 92
1, 37119, Note_on_c, 9, 36, 0
1, 37120, Note_on_c, 9, 44, 100
1, 37199, Note_on_c, 9, 44, 0
1, 37200, Note_on_c, 9, 38, 95
1, 37439, Note_on_c, 9, 38, 0
1, 37440, Note_on_c, 9, 36, 92
1, 37679, Note_on_c, 9, 36, 0
1, 37680, Note_on_c, 9, 38, 97
1, 37680, Note_on_c, 9, 44, 100
1, 37919, Note_on_c, 9, 38, 0
1, 37919, Note_on_c, 9, 44, 0
1, 37920, Note_on_c, 9, 36, 83
1, 38079, Note_on_c, 9, 36, 0
1, 38080, Note_on_c, 9, 44, 100
1, 38159, Note_on_c, 9, 44, 0
1, 38160, Note_on_c, 9, 38, 97
1, 38399, Note_on_c, 9, 38, 0
1, 38400, Note_on_c, 9, 36, 92
1, 38639, Note_on_c, 9, 36, 0
1, 38640, Note_on_c, 9, 38, 99
1, 38640, Note_on_c, 9, 44, 99
1, 38879, Note_on_c, 9, 38, 0
1, 38879, Note_on_c, 9, 44, 0
1, 38880, Note_on_c, 9, 36, 91
1, 39039, Note_on_c, 9, 36, 0
1, 39040, Note_on_c, 9, 44, 99
1, 39119, Note_on_c, 9, 44, 0
1, 39120, Note_on_c, 9, 38, 97
1, 39359, Note_on_c, 9, 38, 0
1, 39360, Note_on_c, 9, 36, 93
1, 39599, Note_on_c, 9, 36, 0
1, 39600, Note_on_c, 9, 38, 97
1, 39600, Note_on_c, 9, 44, 99
1, 39839, Note_on_c, 9, 38, 0
1, 39839, Note_on_c, 9, 44, 0
1, 39840, Note_on_c, 9, 36, 92
1, 39999, Note_on_c, 9, 36, 0
1, 40000, Note_on_c, 9, 44, 100
1, 40079, Note_on_c, 9, 44, 0
1, 40080, Note_on_c, 9, 38, 97
1, 40319, Note_on_c, 9, 38, 0
1, 40320, Note_on_c, 9, 49, 99
1, 40320, Note_on_c, 9, 36, 93
1, 40799, Note_on_c, 9, 49, 0
1, 40799, Note_on_c, 9, 36, 0
1, 41440, Note_on_c, 9, 38, 97
1, 41519, Note_on_c, 9, 38, 0
1, 41520, Note_on_c, 9, 38, 97
1, 41759, Note_on_c, 9, 38, 0
1, 41760, Note_on_c, 9, 45, 87
1, 41760, Note_on_c, 9, 43, 100
1, 41999, Note_on_c, 9, 45, 0
1, 41999, Note_on_c, 9, 43, 0
1, 42000, Note_on_c, 9, 41, 95
1, 42000, Note_on_c, 9, 43, 93
1, 42239, Note_on_c, 9, 41, 0
1, 42239, Note_on_c, 9, 43, 0
1, 42240, Note_on_c, 9, 49, 93
1, 42240, Note_on_c, 9, 36, 89
1, 42479, Note_on_c, 9, 49, 0
1, 42479, Note_on_c, 9, 36, 0
1, 42480, Note_on_c, 9, 38, 93
1, 42480, Note_on_c, 9, 44, 100
1, 42719, Note_on_c, 9, 38, 0
1, 42719, Note_on_c, 9, 44, 0
1, 42720, Note_on_c, 9, 36, 92
1, 42879, Note_on_c, 9, 36, 0
1, 42880, Note_on_c, 9, 44, 102
1, 42959, Note_on_c, 9, 44, 0
1, 42960, Note_on_c, 9, 38, 99
1, 43199, Note_on_c, 9, 38, 0
1, 43200, Note_on_c, 9, 36, 93
1, 43439, Note_on_c, 9, 36, 0
1, 43440, Note_on_c, 9, 38, 97
1, 43440, Note_on_c, 9, 44, 100
1, 43679, Note_on_c, 9, 38, 0
1, 43679, Note_on_c, 9, 44, 0
1, 43680, Note_on_c, 9, 36, 89
1, 43799, Note_on_c, 9, 36, 0
1, 43840, Note_on_c, 9, 44, 99
1, 43919, Note_on_c, 9, 44, 0
1, 43920, Note_on_c, 9, 38, 97
1, 44159, Note_on_c, 9, 38, 0
1, 44160, Note_on_c, 9, 36, 91
1, 44399, Note_on_c, 9, 36, 0
1, 44400, Note_on_c, 9, 38, 95
1, 44400, Note_on_c, 9, 44, 99
1, 44639, Note_on_c, 9, 38, 0
1, 44639, Note_on_c, 9, 44, 0
1, 44640, Note_on_c, 9, 36, 86
1, 44799, Note_on_c, 9, 36, 0
1, 44800, Note_on_c, 9, 44, 95
1, 44879, Note_on_c, 9, 44, 0
1, 44880, Note_on_c, 9, 38, 95
1, 45119, Note_on_c, 9, 38, 0
1, 45120, Note_on_c, 9, 36, 92
1, 45359, Note_on_c, 9, 36, 0
1, 45360, Note_on_c, 9, 38, 95
1, 45360, Note_on_c, 9, 44, 100
1, 45599, Note_on_c, 9, 38, 0
1, 45599, Note_on_c, 9, 44, 0
1, 45600, Note_on_c, 9, 36, 93
1, 45759, Note_on_c, 9, 36, 0
1, 45760, Note_on_c, 9, 44, 100
1, 45839, Note_on_c, 9, 44, 0
1, 45840, Note_on_c, 9, 38, 97
1, 46079, Note_on_c, 9, 38, 0
1, 46080, Note_on_c, 9, 36, 92
1, 46319, Note_on_c, 9, 36, 0
1, 46320, Note_on_c, 9, 38, 95
1, 46320, Note_on_c, 9, 44, 100
1, 46559, Note_on_c, 9, 38, 0
1, 46559, Note_on_c, 9, 44, 0
1, 46560, Note_on_c, 9, 36, 91
1, 46719, Note_on_c, 9, 36, 0
1, 46720, Note_on_c, 9, 44, 99
1, 46799, Note_on_c, 9, 44, 0
1, 46800, Note_on_c, 9, 38, 97
1, 47039, Note_on_c, 9, 38, 0
1, 47040, Note_on_c, 9, 36, 93
1, 47279, Note_on_c, 9, 36, 0
1, 47280, Note_on_c, 9, 38, 97
1, 47280, Note_on_c, 9, 44, 97
1, 47519, Note_on_c, 9, 38, 0
1, 47519, Note_on_c, 9, 44, 0
1, 47520, Note_on_c, 9, 36, 93
1, 47679, Note_on_c, 9, 36, 0
1, 47680, Note_on_c, 9, 44, 99
1, 47759, Note_on_c, 9, 44, 0
1, 47760, Note_on_c, 9, 38, 95
1, 47999, Note_on_c, 9, 38, 0
1, 48000, Note_on_c, 9, 36, 92
1, 48239, Note_on_c, 9, 36, 0
1, 48240, Note_on_c, 9, 38, 99
1, 48240, Note_on_c, 9, 44, 99
1, 48479, Note_on_c, 9, 38, 0
1, 48479, Note_on_c, 9, 44, 0
1, 48480, Note_on_c, 9, 36, 85
1, 48639, Note_on_c, 9, 36, 0
1, 48640, Note_on_c, 9, 44, 99
1, 48719, Note_on_c, 9, 44, 0
1, 48720, Note_on_c, 9, 38, 95
1, 48959, Note_on_c, 9, 38, 0
1, 48960, Note_on_c, 9, 36, 91
1, 49199, Note_on_c, 9, 36, 0
1, 49200, Note_on_c, 9, 38, 99
1, 49200, Note_on_c, 9, 44, 99
1, 49439, Note_on_c, 9, 38, 0
1, 49439, Note_on_c, 9, 44, 0
1, 49440, Note_on_c, 9, 36, 91
1, 49599, Note_on_c, 9, 36, 0
1, 49600, Note_on_c, 9, 44, 99
1, 49679, Note_on_c, 9, 44, 0
1, 49680, Note_on_c, 9, 38, 97
1, 49919, Note_on_c, 9, 38, 0
1, 49920, Note_on_c, 9, 36, 92
1, 50159, Note_on_c, 9, 36, 0
1, 50160, Note_on_c, 9, 38, 99
1, 50160, Note_on_c, 9, 44, 100
1, 50399, Note_on_c, 9, 38, 0
1, 50399, Note_on_c, 9, 44, 0
1, 50400, Note_on_c, 9, 36, 92
1, 50560, Note_on_c, 9, 38, 95
1, 50560, Note_on_c, 9, 40, 99
1, 50639, Note_on_c, 9, 38, 0
1, 50639, Note_on_c, 9, 40, 0
1, 50640, Note_on_c, 9, 38, 95
1, 50879, Note_on_c, 9, 36, 0
1, 50879, Note_on_c, 9, 38, 0
1, 50880, Note_on_c, 9, 36, 93
1, 51119, Note_on_c, 9, 36, 0
1, 51120, Note_on_c, 9, 38, 95
1, 51120, Note_on_c, 9, 44, 100
1, 51359, Note_on_c, 9, 38, 0
1, 51359, Note_on_c, 9, 44, 0
1, 51360, Note_on_c, 9, 36, 87
1, 51519, Note_on_c, 9, 36, 0
1, 51520, Note_on_c, 9, 44, 99
1, 51599, Note_on_c, 9, 44, 0
1, 51600, Note_on_c, 9, 38, 99
1, 51839, Note_on_c, 9, 38, 0
1, 51840, Note_on_c, 9, 36, 95
1, 52079, Note_on_c, 9, 36, 0
1, 52080, Note_on_c, 9, 38, 97
1, 52080, Note_on_c, 9, 44, 102
1, 52319, Note_on_c, 9, 38, 0
1, 52319, Note_on_c, 9, 44, 0
1, 52320, Note_on_c, 9, 36, 92
1, 52479, Note_on_c, 9, 36, 0
1, 52480, Note_on_c, 9, 44, 99
1, 52559, Note_on_c, 9, 44, 0
1, 52560, Note_on_c, 9, 38, 97
1, 52799, Note_on_c, 9, 38, 0
1, 52800, Note_on_c, 9, 36, 95
1, 53039, Note_on_c, 9, 36, 0
1, 53040, Note_on_c, 9, 38, 97
1, 53040, Note_on_c, 9, 44, 100
1, 53279, Note_on_c, 9, 38, 0
1, 53279, Note_on_c, 9, 44, 0
1, 53280, Note_on_c, 9, 36, 87
1, 53439, Note_on_c, 9, 36, 0
1, 53440, Note_on_c, 9, 44, 99
1, 53519, Note_on_c, 9, 44, 0
1, 53520, Note_on_c, 9, 38, 99
1, 53759, Note_on_c, 9, 38, 0
1, 53760, Note_on_c, 9, 36, 92
1, 53999, Note_on_c, 9, 36, 0
1, 54000, Note_on_c, 9, 38, 97
1, 54000, Note_on_c, 9, 44, 100
1, 54239, Note_on_c, 9, 38, 0
1, 54239, Note_on_c, 9, 44, 0
1, 54240, Note_on_c, 9, 36, 92
1, 54399, Note_on_c, 9, 36, 0
1, 54400, Note_on_c, 9, 44, 100
1, 54479, Note_on_c, 9, 44, 0
1, 54480, Note_on_c, 9, 38, 97
1, 54719, Note_on_c, 9, 38, 0
1, 54720, Note_on_c, 9, 36, 93
1, 54959, Note_on_c, 9, 36, 0
1, 54960, Note_on_c, 9, 38, 97
1, 54960, Note_on_c, 9, 44, 100
1, 55199, Note_on_c, 9, 38, 0
1, 55199, Note_on_c, 9, 44, 0
1, 55200, Note_on_c, 9, 36, 87
1, 55359, Note_on_c, 9, 36, 0
1, 55360, Note_on_c, 9, 44, 97
1, 55439, Note_on_c, 9, 44, 0
1, 55440, Note_on_c, 9, 38, 97
1, 55679, Note_on_c, 9, 38, 0
1, 55680, Note_on_c, 9, 36, 91
1, 55919, Note_on_c, 9, 36, 0
1, 55920, Note_on_c, 9, 38, 93
1, 55920, Note_on_c, 9, 44, 99
1, 56159, Note_on_c, 9, 38, 0
1, 56159, Note_on_c, 9, 44, 0
1, 56160, Note_on_c, 9, 36, 91
1, 56279, Note_on_c, 9, 36, 0
1, 56320, Note_on_c, 9, 44, 99
1, 56399, Note_on_c, 9, 44, 0
1, 56400, Note_on_c, 9, 38, 93
1, 56639, Note_on_c, 9, 38, 0
1, 56640, Note_on_c, 9, 36, 92
1, 56879, Note_on_c, 9, 36, 0
1, 56880, Note_on_c, 9, 38, 95
1, 56880, Note_on_c, 9, 44, 99
1, 57119, Note_on_c, 9, 38, 0
1, 57119, Note_on_c, 9, 44, 0
1, 57120, Note_on_c, 9, 36, 92
1, 57279, Note_on_c, 9, 36, 0
1, 57280, Note_on_c, 9, 44, 99
1, 57359, Note_on_c, 9, 44, 0
1, 57360, Note_on_c, 9, 38, 99
1, 57599, Note_on_c, 9, 38, 0
1, 57600, Note_on_c, 9, 36, 85
1, 57839, Note_on_c, 9, 36, 0
1, 57840, Note_on_c, 9, 38, 97
1, 57840, Note_on_c, 9, 44, 99
1, 58079, Note_on_c, 9, 38, 0
1, 58079, Note_on_c, 9, 44, 0
1, 58080, Note_on_c, 9, 36, 91
1, 58239, Note_on_c, 9, 36, 0
1, 58240, Note_on_c, 9, 44, 100
1, 58319, Note_on_c, 9, 44, 0
1, 58320, Note_on_c, 9, 38, 99
1, 58559, Note_on_c, 9, 38, 0
1, 58560, Note_on_c, 9, 36, 93
1, 58800, Note_on_c, 9, 38, 99
1, 58800, Note_on_c, 9, 40, 100
1, 58919, Note_on_c, 9, 36, 0
1, 58960, Note_on_c, 9, 36, 93
1, 59039, Note_on_c, 9, 38, 0
1, 59039, Note_on_c, 9, 40, 0
1, 59039, Note_on_c, 9, 36, 0
1, 59040, Note_on_c, 9, 36, 92
1, 59280, Note_on_c, 9, 38, 99
1, 59280, Note_on_c, 9, 40, 99
1, 59519, Note_on_c, 9, 36, 0
1, 59519, Note_on_c, 9, 38, 0
1, 59519, Note_on_c, 9, 40, 0
1, 59520, Note_on_c, 9, 36, 97
1, 59760, Note_on_c, 9, 38, 97
1, 59760, Note_on_c, 9, 40, 99
1, 59879, Note_on_c, 9, 36, 0
1, 59920, Note_on_c, 9, 36, 81
1, 59999, Note_on_c, 9, 38, 0
1, 59999, Note_on_c, 9, 40, 0
1, 59999, Note_on_c, 9, 36, 0
1, 60000, Note_on_c, 9, 36, 83
1, 60240, Note_on_c, 9, 38, 95
1, 60240, Note_on_c, 9, 40, 97
1, 60479, Note_on_c, 9, 36, 0
1, 60479, Note_on_c, 9, 38, 0
1, 60479, Note_on_c, 9, 40, 0
1, 60480, Note_on_c, 9, 36, 95
1, 60719, Note_on_c, 9, 36, 0
1, 60720, Note_on_c, 9, 38, 92
1, 60720, Note_on_c, 9, 40, 95
1, 60880, Note_on_c, 9, 36, 93
1, 60959, Note_on_c, 9, 38, 0
1, 60959, Note_on_c, 9, 40, 0
1, 60959, Note_on_c, 9, 36, 0
1, 60960, Note_on_c, 9, 36, 85
1, 61200, Note_on_c, 9, 38, 91
1, 61200, Note_on_c, 9, 40, 93
1, 61439, Note_on_c, 9, 36, 0
1, 61439, Note_on_c, 9, 38, 0
1, 61439, Note_on_c, 9, 40, 0
1, 61440, Note_on_c, 9, 36, 95
1, 61680, Note_on_c, 9, 38, 92
1, 61680, Note_on_c, 9, 40, 97
1, 61799, Note_on_c, 9, 36, 0
1, 61840, Note_on_c, 9, 36, 92
1, 61919, Note_on_c, 9, 38, 0
1, 61919, Note_on_c, 9, 40, 0
1, 61919, Note_on_c, 9, 36, 0
1, 61920, Note_on_c, 9, 36, 89
1, 62160, Note_on_c, 9, 38, 92
1, 62160, Note_on_c, 9, 40, 95
1, 62399, Note_on_c, 9, 36, 0
1, 62399, Note_on_c, 9, 38, 0
1, 62399, Note_on_c, 9, 40, 0
1, 62400, Note_on_c, 9, 36, 95
1, 62640, Note_on_c, 9, 38, 95
1, 62640, Note_on_c, 9, 40, 99
1, 62759, Note_on_c, 9, 36, 0
1, 62800, Note_on_c, 9, 36, 91
1, 62879, Note_on_c, 9, 38, 0
1, 62879, Note_on_c, 9, 40, 0
1, 62879, Note_on_c, 9, 36, 0
1, 62880, Note_on_c, 9, 36, 91
1, 63120, Note_on_c, 9, 38, 95
1, 63120, Note_on_c, 9, 40, 99
1, 63359, Note_on_c, 9, 36, 0
1, 63359, Note_on_c, 9, 38, 0
1, 63359, Note_on_c, 9, 40, 0
1, 63360, Note_on_c, 9, 36, 95
1, 63600, Note_on_c, 9, 38, 93
1, 63600, Note_on_c, 9, 40, 95
1, 63719, Note_on_c, 9, 36, 0
1, 63760, Note_on_c, 9, 36, 93
1, 63839, Note_on_c, 9, 38, 0
1, 63839, Note_on_c, 9, 40, 0
1, 63839, Note_on_c, 9, 36, 0
1, 63840, Note_on_c, 9, 36, 81
1, 64080, Note_on_c, 9, 38, 93
1, 64080, Note_on_c, 9, 40, 97
1, 64319, Note_on_c, 9, 36, 0
1, 64319, Note_on_c, 9, 38, 0
1, 64319, Note_on_c, 9, 40, 0
1, 64320, Note_on_c, 9, 46, 102
1, 64320, Note_on_c, 9, 36, 93
1, 64799, Note_on_c, 9, 46, 0
1, 64799, Note_on_c, 9, 36, 0
1, 65280, Note_on_c, 9, 49, 99
1, 65280, Note_on_c, 9, 36, 93
1, 65519, Note_on_c, 9, 49, 0
1, 65519, Note_on_c, 9, 36, 0
1, 65520, Note_on_c, 9, 38, 93
1, 65520, Note_on_c, 9, 44, 97
1, 65759, Note_on_c, 9, 38, 0
1, 65759, Note_on_c, 9, 44, 0
1, 65760, Note_on_c, 9, 36, 92
1, 65879, Note_on_c, 9, 36, 0
1, 65920, Note_on_c, 9, 44, 100
1, 65999, Note_on_c, 9, 44, 0
1, 66000, Note_on_c, 9, 38, 97
1, 66239, Note_on_c, 9, 38, 0
1, 66240, Note_on_c, 9, 36, 95
1, 66479, Note_on_c, 9, 36, 0
1, 66480, Note_on_c, 9, 38, 99
1, 66480, Note_on_c, 9, 44, 100
1, 66719, Note_on_c, 9, 38, 0
1, 66719, Note_on_c, 9, 44, 0
1, 66720, Note_on_c, 9, 36, 92
1, 66879, Note_on_c, 9, 36, 0
1, 66880, Note_on_c, 9, 44, 100
1, 66959, Note_on_c, 9, 44, 0
1, 66960, Note_on_c, 9, 38, 95
1, 67199, Note_on_c, 9, 38, 0
1, 67200, Note_on_c, 9, 36, 92
1, 67439, Note_on_c, 9, 36, 0
1, 67440, Note_on_c, 9, 38, 99
1, 67440, Note_on_c, 9, 44, 99
1, 67679, Note_on_c, 9, 38, 0
1, 67679, Note_on_c, 9, 44, 0
1, 67680, Note_on_c, 9, 36, 89
1, 67839, Note_on_c, 9, 36, 0
1, 67840, Note_on_c, 9, 44, 99
1, 67919, Note_on_c, 9, 44, 0
1, 67920, Note_on_c, 9, 38, 97
1, 68159, Note_on_c, 9, 38, 0
1, 68160, Note_on_c, 9, 36, 91
1, 68399, Note_on_c, 9, 36, 0
1, 68400, Note_on_c, 9, 38, 97
1, 68400, Note_on_c, 9, 44, 99
1, 68639, Note_on_c, 9, 38, 0
1, 68639, Note_on_c, 9, 44, 0
1, 68640, Note_on_c, 9, 36, 91
1, 68799, Note_on_c, 9, 36, 0
1, 68800, Note_on_c, 9, 44, 99
1, 68879, Note_on_c, 9, 44, 0
1, 68880, Note_on_c, 9, 38, 97
1, 69119, Note_on_c, 9, 38, 0
1, 69120, Note_on_c, 9, 36, 93
1, 69359, Note_on_c, 9, 36, 0
1, 69360, Note_on_c, 9, 38, 97
1, 69360, Note_on_c, 9, 44, 99
1, 69599, Note_on_c, 9, 38, 0
1, 69599, Note_on_c, 9, 44, 0
1, 69600, Note_on_c, 9, 36, 87
1, 69759, Note_on_c, 9, 36, 0
1, 69760, Note_on_c, 9, 44, 97
1, 69839, Note_on_c, 9, 44, 0
1, 69840, Note_on_c, 9, 38, 97
1, 70079, Note_on_c, 9, 38, 0
1, 70080, Note_on_c, 9, 36, 91
1, 70319, Note_on_c, 9, 36, 0
1, 70320, Note_on_c, 9, 38, 97
1, 70320, Note_on_c, 9, 44, 100
1, 70559, Note_on_c, 9, 38, 0
1, 70559, Note_on_c, 9, 44, 0
1, 70560, Note_on_c, 9, 36, 92
1, 70719, Note_on_c, 9, 36, 0
1, 70720, Note_on_c, 9, 44, 99
1, 70799, Note_on_c, 9, 44, 0
1, 70800, Note_on_c, 9, 38, 99
1, 71039, Note_on_c, 9, 38, 0
1, 71040, Note_on_c, 9, 36, 92
1, 71279, Note_on_c, 9, 36, 0
1, 71280, Note_on_c, 9, 38, 95
1, 71280, Note_on_c, 9, 44, 99
1, 71519, Note_on_c, 9, 38, 0
1, 71519, Note_on_c, 9, 44, 0
1, 71520, Note_on_c, 9, 36, 89
1, 71679, Note_on_c, 9, 36, 0
1, 71680, Note_on_c, 9, 44, 97
1, 71759, Note_on_c, 9, 44, 0
1, 71760, Note_on_c, 9, 38, 97
1, 71999, Note_on_c, 9, 38, 0
1, 72000, Note_on_c, 9, 49, 93
1, 72000, Note_on_c, 9, 36, 89
1, 72479, Note_on_c, 9, 49, 0
1, 72479, Note_on_c, 9, 36, 0
1, 73120, Note_on_c, 9, 38, 93
1, 73199, Note_on_c, 9, 38, 0
1, 73200, Note_on_c, 9, 38, 97
1, 73439, Note_on_c, 9, 38, 0
1, 73440, Note_on_c, 9, 43, 100
1, 73679, Note_on_c, 9, 43, 0
1, 73680, Note_on_c, 9, 45, 99
1, 73680, Note_on_c, 9, 43, 87
1, 73919, Note_on_c, 9, 45, 0
1, 73919, Note_on_c, 9, 43, 0
1, 73920, Note_on_c, 9, 49, 95
1, 73920, Note_on_c, 9, 36, 89
1, 74159, Note_on_c, 9, 49, 0
1, 74159, Note_on_c, 9, 36, 0
1, 74160, Note_on_c, 9, 38, 95
1, 74160, Note_on_c, 9, 44, 100
1, 74399, Note_on_c, 9, 38, 0
1, 74399, Note_on_c, 9, 44, 0
1, 74400, Note_on_c, 9, 36, 92
1, 74559, Note_on_c, 9, 36, 0
1, 74560, Note_on_c, 9, 44, 100
1, 74639, Note_on_c, 9, 44, 0
1, 74640, Note_on_c, 9, 38, 100
1, 74879, Note_on_c, 9, 38, 0
1, 74880, Note_on_c, 9, 36, 95
1, 75119, Note_on_c, 9, 36, 0
1, 75120, Note_on_c, 9, 38, 97
1, 75120, Note_on_c, 9, 44, 100
1, 75359, Note_on_c, 9, 38, 0
1, 75359, Note_on_c, 9, 44, 0
1, 75360, Note_on_c, 9, 36, 92
1, 75479, Note_on_c, 9, 36, 0
1, 75520, Note_on_c, 9, 44, 100
1, 75599, Note_on_c, 9, 44, 0
1, 75600, Note_on_c, 9, 38, 99
1, 75839, Note_on_c, 9, 38, 0
1, 75840, Note_on_c, 9, 36, 93
1, 76079, Note_on_c, 9, 36, 0
1, 76080, Note_on_c, 9, 38, 95
1, 76080, Note_on_c, 9, 44, 99
1, 76319, Note_on_c, 9, 38, 0
1, 76319, Note_on_c, 9, 44, 0
1, 76320, Note_on_c, 9, 36, 92
1, 76479, Note_on_c, 9, 36, 0
1, 76480, Note_on_c, 9, 44, 100
1, 76559, Note_on_c, 9, 44, 0
1, 76560, Note_on_c, 9, 38, 97
1, 76799, Note_on_c, 9, 38, 0
1, 76800, Note_on_c, 9, 36, 93
1, 77039, Note_on_c, 9, 36, 0
1, 77040, Note_on_c, 9, 38, 97
1, 77040, Note_on_c, 9, 44, 99
1, 77279, Note_on_c, 9, 38, 0
1, 77279, Note_on_c, 9, 44, 0
1, 77280, Note_on_c, 9, 36, 93
1, 77399, Note_on_c, 9, 36, 0
1, 77440, Note_on_c, 9, 44, 97
1, 77519, Note_on_c, 9, 44, 0
1, 77520, Note_on_c, 9, 38, 99
1, 77759, Note_on_c, 9, 38, 0
1, 77760, Note_on_c, 9, 36, 86
1, 77999, Note_on_c, 9, 36, 0
1, 78000, Note_on_c, 9, 38, 97
1, 78000, Note_on_c, 9, 44, 100
1, 78239, Note_on_c, 9, 38, 0
1, 78239, Note_on_c, 9, 44, 0
1, 78240, Note_on_c, 9, 36, 87
1, 78399, Note_on_c, 9, 36, 0
1, 78400, Note_on_c, 9, 44, 97
1, 78479, Note_on_c, 9, 44, 0
1, 78480, Note_on_c, 9, 38, 97
1, 78719, Note_on_c, 9, 38, 0
1, 78720, Note_on_c, 9, 36, 93
1, 78959, Note_on_c, 9, 36, 0
1, 78960, Note_on_c, 9, 38, 97
1, 78960, Note_on_c, 9, 44, 99
1, 79199, Note_on_c, 9, 38, 0
1, 79199, Note_on_c, 9, 44, 0
1, 79200, Note_on_c, 9, 36, 92
1, 79319, Note_on_c, 9, 36, 0
1, 79360, Note_on_c, 9, 44, 97
1, 79439, Note_on_c, 9, 44, 0
1, 79440, Note_on_c, 9, 38, 97
1, 79679, Note_on_c, 9, 38, 0
1, 79680, Note_on_c, 9, 36, 92
1, 79919, Note_on_c, 9, 36, 0
1, 79920, Note_on_c, 9, 38, 95
1, 79920, Note_on_c, 9, 44, 99
1, 80159, Note_on_c, 9, 38, 0
1, 80159, Note_on_c, 9, 44, 0
1, 80160, Note_on_c, 9, 36, 92
1, 80319, Note_on_c, 9, 36, 0
1, 80320, Note_on_c, 9, 44, 97
1, 80399, Note_on_c, 9, 44, 0
1, 80400, Note_on_c, 9, 38, 99
1, 80639, Note_on_c, 9, 38, 0
1, 80640, Note_on_c, 9, 36, 93
1, 80879, Note_on_c, 9, 36, 0
1, 80880, Note_on_c, 9, 38, 97
1, 80880, Note_on_c, 9, 44, 99
1, 81119, Note_on_c, 9, 38, 0
1, 81119, Note_on_c, 9, 44, 0
1, 81120, Note_on_c, 9, 36, 91
1, 81279, Note_on_c, 9, 36, 0
1, 81280, Note_on_c, 9, 44, 97
1, 81359, Note_on_c, 9, 44, 0
1, 81360, Note_on_c, 9, 38, 97
1, 81599, Note_on_c, 9, 38, 0
1, 81600, Note_on_c, 9, 36, 93
1, 81839, Note_on_c, 9, 36, 0
1, 81840, Note_on_c, 9, 38, 97
1, 81840, Note_on_c, 9, 44, 99
1, 82079, Note_on_c, 9, 38, 0
1, 82079, Note_on_c, 9, 44, 0
1, 82080, Note_on_c, 9, 36, 93
1, 82240, Note_on_c, 9, 38, 100
1, 82319, Note_on_c, 9, 38, 0
1, 82320, Note_on_c, 9, 38, 97
1, 82559, Note_on_c, 9, 36, 0
1, 82559, Note_on_c, 9, 38, 0
1, 82560, Note_on_c, 9, 36, 89
1, 82799, Note_on_c, 9, 36, 0
1, 82800, Note_on_c, 9, 38, 95
1, 82800, Note_on_c, 9, 44, 99
1, 83039, Note_on_c, 9, 38, 0
1, 83039, Note_on_c, 9, 44, 0
1, 83040, Note_on_c, 9, 36, 87
1, 83199, Note_on_c, 9, 36, 0
1, 83200, Note_on_c, 9, 44, 100
1, 83279, Note_on_c, 9, 44, 0
1, 83280, Note_on_c, 9, 38, 99
1, 83519, Note_on_c, 9, 38, 0
1, 83520, Note_on_c, 9, 36, 92
1, 83759, Note_on_c, 9, 36, 0
1, 83760, Note_on_c, 9, 38, 93
1, 83760, Note_on_c, 9, 44, 99
1, 83999, Note_on_c, 9, 38, 0
1, 83999, Note_on_c, 9, 44, 0
1, 84000, Note_on_c, 9, 36, 87
1, 84159, Note_on_c, 9, 36, 0
1, 84160, Note_on_c, 9, 44, 99
1, 84239, Note_on_c, 9, 44, 0
1, 84240, Note_on_c, 9, 38, 97
1, 84479, Note_on_c, 9, 38, 0
1, 84480, Note_on_c, 9, 36, 92
1, 84719, Note_on_c, 9, 36, 0
1, 84720, Note_on_c, 9, 38, 95
1, 84720, Note_on_c, 9, 44, 100
1, 84959, Note_on_c, 9, 38, 0
1, 84959, Note_on_c, 9, 44, 0
1, 84960, Note_on_c, 9, 36, 92
1, 85119, Note_on_c, 9, 36, 0
1, 85120, Note_on_c, 9, 44, 97
1, 85199, Note_on_c, 9, 44, 0
1, 85200, Note_on_c, 9, 38, 97
1, 85439, Note_on_c, 9, 38, 0
1, 85440, Note_on_c, 9, 36, 87
1, 85679, Note_on_c, 9, 36, 0
1, 85680, Note_on_c, 9, 38, 99
1, 85680, Note_on_c, 9, 44, 100
1, 85919, Note_on_c, 9, 38, 0
1, 85919, Note_on_c, 9, 44, 0
1, 85920, Note_on_c, 9, 36, 93
1, 86039, Note_on_c, 9, 36, 0
1, 86080, Note_on_c, 9, 44, 97
1, 86159, Note_on_c, 9, 44, 0
1, 86160, Note_on_c, 9, 38, 99
1, 86399, Note_on_c, 9, 38, 0
1, 86400, Note_on_c, 9, 36, 93
1, 86639, Note_on_c, 9, 36, 0
1, 86640, Note_on_c, 9, 38, 95
1, 86640, Note_on_c, 9, 44, 99
1, 86879, Note_on_c, 9, 38, 0
1, 86879, Note_on_c, 9, 44, 0
1, 86880, Note_on_c, 9, 36, 89
1, 87039, Note_on_c, 9, 36, 0
1, 87040, Note_on_c, 9, 44, 97
1, 87119, Note_on_c, 9, 44, 0
1, 87120, Note_on_c, 9, 38, 97
1, 87359, Note_on_c, 9, 38, 0
1, 87360, Note_on_c, 9, 36, 91
1, 87599, Note_on_c, 9, 36, 0
1, 87600, Note_on_c, 9, 38, 95
1, 87600, Note_on_c, 9, 44, 99
1, 87839, Note_on_c, 9, 38, 0
1, 87839, Note_on_c, 9, 44, 0
1, 87840, Note_on_c, 9, 36, 92
1, 87999, Note_on_c, 9, 36, 0
1, 88000, Note_on_c, 9, 44, 97
1, 88079, Note_on_c, 9, 44, 0
1, 88080, Note_on_c, 9, 38, 97
1, 88319, Note_on_c, 9, 38, 0
1, 88320, Note_on_c, 9, 36, 91
1, 88559, Note_on_c, 9, 36, 0
1, 88560, Note_on_c, 9, 38, 95
1, 88560, Note_on_c, 9, 44, 100
1, 88799, Note_on_c, 9, 38, 0
1, 88799, Note_on_c, 9, 44, 0
1, 88800, Note_on_c, 9, 36, 92
1, 88959, Note_on_c, 9, 36, 0
1, 88960, Note_on_c, 9, 44, 97
1, 89039, Note_on_c, 9, 44, 0
1, 89040, Note_on_c, 9, 38, 95
1, 89279, Note_on_c, 9, 38, 0
1, 89280, Note_on_c, 9, 36, 92
1, 89519, Note_on_c, 9, 36, 0
1, 89520, Note_on_c, 9, 38, 97
1, 89520, Note_on_c, 9, 44, 99
1, 89759, Note_on_c, 9, 38, 0
1, 89759, Note_on_c, 9, 44, 0
1, 89760, Note_on_c, 9, 36, 93
1, 89920, Note_on_c, 9, 38, 99
1, 89920, Note_on_c, 9, 40, 100
1, 89999, Note_on_c, 9, 38, 0
1, 89999, Note_on_c, 9, 40, 0
1, 90000, Note_on_c, 9, 38, 100
1, 90239, Note_on_c, 9, 36, 0
1, 90239, Note_on_c, 9, 38, 0
1, 90240, Note_on_c, 9, 36, 93
1, 90480, Note_on_c, 9, 38, 99
1, 90480, Note_on_c, 9, 40, 100
1, 90599, Note_on_c, 9, 36, 0
1, 90640, Note_on_c, 9, 36, 93
1, 90659, Note_on_c, 9, 36, 0
1, 90719, Note_on_c, 9, 38, 0
1, 90719, Note_on_c, 9, 40, 0
1, 90720, Note_on_c, 9, 36, 93
1, 90960, Note_on_c, 9, 38, 99
1, 90960, Note_on_c, 9, 40, 100
1, 91199, Note_on_c, 9, 36, 0
1, 91199, Note_on_c, 9, 38, 0
1, 91199, Note_on_c, 9, 40, 0
1, 91200, Note_on_c, 9, 36, 97
1, 91440, Note_on_c, 9, 38, 91
1, 91440, Note_on_c, 9, 40, 93
1, 91559, Note_on_c, 9, 36, 0
1, 91600, Note_on_c, 9, 36, 91
1, 91679, Note_on_c, 9, 38, 0
1, 91679, Note_on_c, 9, 40, 0
1, 91679, Note_on_c, 9, 36, 0
1, 91680, Note_on_c, 9, 36, 86
1, 91920, Note_on_c, 9, 38, 95
1, 91920, Note_on_c, 9, 40, 95
1, 92159, Note_on_c, 9, 36, 0
1, 92159, Note_on_c, 9, 38, 0
1, 92159, Note_on_c, 9, 40, 0
1, 92160, Note_on_c, 9, 36, 95
1, 92399, Note_on_c, 9, 36, 0
1, 92400, Note_on_c, 9, 38, 95
1, 92400, Note_on_c, 9, 40, 99
1, 92560, Note_on_c, 9, 36, 95
1, 92639, Note_on_c, 9, 38, 0
1, 92639, Note_on_c, 9, 40, 0
1, 92639, Note_on_c, 9, 36, 0
1, 92640, Note_on_c, 9, 36, 81
1, 92880, Note_on_c, 9, 38, 97
1, 92880, Note_on_c, 9, 40, 97
1, 93119, Note_on_c, 9, 36, 0
1, 93119, Note_on_c, 9, 38, 0
1, 93119, Note_on_c, 9, 40, 0
1, 93120, Note_on_c, 9, 36, 95
1, 93360, Note_on_c, 9, 38, 95
1, 93360, Note_on_c, 9, 40, 97
1, 93479, Note_on_c, 9, 36, 0
1, 93520, Note_on_c, 9, 36, 93
1, 93599, Note_on_c, 9, 38, 0
1, 93599, Note_on_c, 9, 40, 0
1, 93599, Note_on_c, 9, 36, 0
1, 93600, Note_on_c, 9, 36, 83
1, 93840, Note_on_c, 9, 38, 92
1, 93840, Note_on_c, 9, 40, 95
1, 94079, Note_on_c, 9, 36, 0
1, 94079, Note_on_c, 9, 38, 0
1, 94079, Note_on_c, 9, 40, 0
1, 94080, Note_on_c, 9, 36, 97
1, 94320, Note_on_c, 9, 38, 87
1, 94320, Note_on_c, 9, 40, 92
1, 94439, Note_on_c, 9, 36, 0
1, 94480, Note_on_c, 9, 36, 89
1, 94559, Note_on_c, 9, 38, 0
1, 94559, Note_on_c, 9, 40, 0
1, 94559, Note_on_c, 9, 36, 0
1, 94560, Note_on_c, 9, 36, 85
1, 94800, Note_on_c, 9, 38, 93
1, 94800, Note_on_c, 9, 40, 97
1, 95039, Note_on_c, 9, 36, 0
1, 95039, Note_on_c, 9, 38, 0
1, 95039, Note_on_c, 9, 40, 0
1, 95040, Note_on_c, 9, 36, 93
1, 95280, Note_on_c, 9, 38, 92
1, 95280, Note_on_c, 9, 40, 95
1, 95399, Note_on_c, 9, 36, 0
1, 95440, Note_on_c, 9, 36, 91
1, 95519, Note_on_c, 9, 38, 0
1, 95519, Note_on_c, 9, 40, 0
1, 95519, Note_on_c, 9, 36, 0
1, 95520, Note_on_c, 9, 36, 81
1, 95760, Note_on_c, 9, 38, 95
1, 95760, Note_on_c, 9, 40, 99
1, 95999, Note_on_c, 9, 36, 0
1, 95999, Note_on_c, 9, 38, 0
1, 95999, Note_on_c, 9, 40, 0
1, 96000, Note_on_c, 9, 49, 95
1, 96000, Note_on_c, 9, 36, 92
1, 96479, Note_on_c, 9, 49, 0
1, 96479, Note_on_c, 9, 36, 0
1, 96960, Note_on_c, 9, 36, 92
1, 97200, Note_on_c, 9, 38, 102
1, 97200, Note_on_c, 9, 49, 100
1, 97439, Note_on_c, 9, 36, 0
1, 97439, Note_on_c, 9, 38, 0
1, 97439, Note_on_c, 9, 49, 0
1, 97440, Note_on_c, 9, 36, 91
1, 97600, Note_on_c, 9, 38, 99
1, 97600, Note_on_c, 9, 40, 107
1, 97679, Note_on_c, 9, 38, 0
1, 97679, Note_on_c, 9, 40, 0
1, 97680, Note_on_c, 9, 38, 100
1, 97919, Note_on_c, 9, 36, 0
1, 97919, Note_on_c, 9, 38, 0
1, 97920, Note_on_c, 9, 36, 97
1, 98159, Note_on_c, 9, 36, 0
1, 98160, Note_on_c, 9, 38, 99
1, 98160, Note_on_c, 9, 44, 100
1, 98399, Note_on_c, 9, 38, 0
1, 98399, Note_on_c, 9, 44, 0
1, 98400, Note_on_c, 9, 36, 73
1, 98639, Note_on_c, 9, 36, 0
1, 98640, Note_on_c, 9, 38, 99
1, 98640, Note_on_c, 9, 44, 100
1, 98879, Note_on_c, 9, 38, 0
1, 98879, Note_on_c, 9, 44, 0
1, 98880, Note_on_c, 9, 36, 92
1, 99120, Note_on_c, 9, 38, 99
1, 99120, Note_on_c, 9, 40, 99
1, 99239, Note_on_c, 9, 36, 0
1, 99280, Note_on_c, 9, 36, 93
1, 99359, Note_on_c, 9, 38, 0
1, 99359, Note_on_c, 9, 40, 0
1, 99359, Note_on_c, 9, 36, 0
1, 99360, Note_on_c, 9, 36, 87
1, 99600, Note_on_c, 9, 38, 97
1, 99600, Note_on_c, 9, 40, 99
1, 99839, Note_on_c, 9, 36, 0
1, 99839, Note_on_c, 9, 38, 0
1, 99839, Note_on_c, 9, 40, 0
1, 99840, Note_on_c, 9, 36, 97
1, 100080, Note_on_c, 9, 38, 93
1, 100080, Note_on_c, 9, 40, 97
1, 100199, Note_on_c, 9, 36, 0
1, 100240, Note_on_c, 9, 36, 93
1, 100319, Note_on_c, 9, 38, 0
1, 100319, Note_on_c, 9, 40, 0
1, 100319, Note_on_c, 9, 36, 0
1, 100320, Note_on_c, 9, 36, 86
1, 100560, Note_on_c, 9, 38, 95
1, 100560, Note_on_c, 9, 40, 99
1, 100799, Note_on_c, 9, 36, 0
1, 100799, Note_on_c, 9, 38, 0
1, 100799, Note_on_c, 9, 40, 0
1, 100800, Note_on_c, 9, 36, 95
1, 101040, Note_on_c, 9, 38, 92
1, 101040, Note_on_c, 9, 40, 95
1, 101159, Note_on_c, 9, 36, 0
1, 101200, Note_on_c, 9, 36, 93
1, 101279, Note_on_c, 9, 38, 0
1, 101279, Note_on_c, 9, 40, 0
1, 101279, Note_on_c, 9, 36, 0
1, 101280, Note_on_c, 9, 36, 86
1, 101520, Note_on_c, 9, 38, 95
1, 101520, Note_on_c, 9, 40, 97
1, 101759, Note_on_c, 9, 36, 0
1, 101759, Note_on_c, 9, 38, 0
1, 101759, Note_on_c, 9, 40, 0
1, 101760, Note_on_c, 9, 36, 97
1, 101999, Note_on_c, 9, 36, 0
1, 102000, Note_on_c, 9, 38, 97
1, 102000, Note_on_c, 9, 40, 93
1, 102160, Note_on_c, 9, 36, 87
1, 102239, Note_on_c, 9, 38, 0
1, 102239, Note_on_c, 9, 40, 0
1, 102239, Note_on_c, 9, 36, 0
1, 102240, Note_on_c, 9, 36, 81
1, 102480, Note_on_c, 9, 38, 93
1, 102480, Note_on_c, 9, 40, 95
1, 102719, Note_on_c, 9, 36, 0
1, 102719, Note_on_c, 9, 38, 0
1, 102719, Note_on_c, 9, 40, 0
1, 102720, Note_on_c, 9, 36, 97
1, 102960, Note_on_c, 9, 38, 93
1, 102960, Note_on_c, 9, 40, 95
1, 103079, Note_on_c, 9, 36, 0
1, 103120, Note_on_c, 9, 36, 92
1, 103199, Note_on_c, 9, 38, 0
1, 103199, Note_on_c, 9, 40, 0
1, 103199, Note_on_c, 9, 36, 0
1, 103200, Note_on_c, 9, 36, 80
1, 103440, Note_on_c, 9, 38, 95
1, 103440, Note_on_c, 9, 40, 97
1, 103679, Note_on_c, 9, 36, 0
1, 103679, Note_on_c, 9, 38, 0
1, 103679, Note_on_c, 9, 40, 0
1, 103680, Note_on_c, 9, 51, 97
1, 103680, Note_on_c, 9, 49, 95
1, 103680, Note_on_c, 9, 36, 86
1, 104159, Note_on_c, 9, 51, 0
1, 104159, Note_on_c, 9, 49, 0
1, 104159, Note_on_c, 9, 36, 0
1, 104640, Note_on_c, 9, 49, 97
1, 104640, Note_on_c, 9, 36, 91
1, 104879, Note_on_c, 9, 49, 0
1, 104879, Note_on_c, 9, 36, 0
1, 104880, Note_on_c, 9, 38, 93
1, 104880, Note_on_c, 9, 44, 102
1, 105119, Note_on_c, 9, 38, 0
1, 105119, Note_on_c, 9, 44, 0
1, 105120, Note_on_c, 9, 36, 89
1, 105239, Note_on_c, 9, 36, 0
1, 105280, Note_on_c, 9, 44, 100
1, 105359, Note_on_c, 9, 44, 0
1, 105360, Note_on_c, 9, 38, 95
1, 105599, Note_on_c, 9, 38, 0
1, 105600, Note_on_c, 9, 36, 92
1, 105839, Note_on_c, 9, 36, 0
1, 105840, Note_on_c, 9, 38, 95
1, 105840, Note_on_c, 9, 44, 99
1, 106079, Note_on_c, 9, 38, 0
1, 106079, Note_on_c, 9, 44, 0
1, 106080, Note_on_c, 9, 36, 86
1, 106239, Note_on_c, 9, 36, 0
1, 106240, Note_on_c, 9, 44, 100
1, 106319, Note_on_c, 9, 44, 0
1, 106320, Note_on_c, 9, 38, 97
1, 106559, Note_on_c, 9, 38, 0
1, 106560, Note_on_c, 9, 36, 91
1, 106799, Note_on_c, 9, 36, 0
1, 106800, Note_on_c, 9, 38, 99
1, 106800, Note_on_c, 9, 44, 100
1, 107039, Note_on_c, 9, 38, 0
1, 107039, Note_on_c, 9, 44, 0
1, 107040, Note_on_c, 9, 36, 89
1, 107199, Note_on_c, 9, 36, 0
1, 107200, Note_on_c, 9, 44, 100
1, 107279, Note_on_c, 9, 44, 0
1, 107280, Note_on_c, 9, 38, 95
1, 107519, Note_on_c, 9, 38, 0
1, 107520, Note_on_c, 9, 36, 92
1, 107759, Note_on_c, 9, 36, 0
1, 107760, Note_on_c, 9, 38, 97
1, 107760, Note_on_c, 9, 44, 100
1, 107999, Note_on_c, 9, 38, 0
1, 107999, Note_on_c, 9, 44, 0
1, 108000, Note_on_c, 9, 36, 91
1, 108159, Note_on_c, 9, 36, 0
1, 108160, Note_on_c, 9, 44, 100
1, 108239, Note_on_c, 9, 44, 0
1, 108240, Note_on_c, 9, 38, 97
1, 108479, Note_on_c, 9, 38, 0
1, 108480, Note_on_c, 9, 36, 93
1, 108719, Note_on_c, 9, 36, 0
1, 108720, Note_on_c, 9, 38, 97
1, 108720, Note_on_c, 9, 44, 100
1, 108959, Note_on_c, 9, 38, 0
1, 108959, Note_on_c, 9, 44, 0
1, 108960, Note_on_c, 9, 36, 92
1, 109119, Note_on_c, 9, 36, 0
1, 109120, Note_on_c, 9, 44, 99
1, 109199, Note_on_c, 9, 44, 0
1, 109200, Note_on_c, 9, 38, 97
1, 109439, Note_on_c, 9, 38, 0
1, 109440, Note_on_c, 9, 36, 93
1, 109679, Note_on_c, 9, 36, 0
1, 109680, Note_on_c, 9, 38, 97
1, 109680, Note_on_c, 9, 44, 99
1, 109919, Note_on_c, 9, 38, 0
1, 109919, Note_on_c, 9, 44, 0
1, 109920, Note_on_c, 9, 36, 92
1, 110079, Note_on_c, 9, 36, 0
1, 110080, Note_on_c, 9, 44, 99
1, 110159, Note_on_c, 9, 44, 0
1, 110160, Note_on_c, 9, 38, 97
1, 110399, Note_on_c, 9, 38, 0
1, 110400, Note_on_c, 9, 49, 97
1, 110400, Note_on_c, 9, 36, 93
1, 110879, Note_on_c, 9, 49, 0
1, 110879, Note_on_c, 9, 36, 0
1, 111040, Note_on_c, 9, 38, 93
1, 111040, Note_on_c, 9, 40, 97
1, 111119, Note_on_c, 9, 38, 0
1, 111119, Note_on_c, 9, 40, 0
1, 111120, Note_on_c, 9, 36, 92
1, 111359, Note_on_c, 9, 36, 0
1, 111360, Note_on_c, 9, 46, 97
1, 111360, Note_on_c, 9, 42, 79
1, 111360, Note_on_c, 9, 44, 97
1, 111360, Note_on_c, 9, 36, 91
1, 111839, Note_on_c, 9, 46, 0
1, 111839, Note_on_c, 9, 42, 0
1, 111839, Note_on_c, 9, 44, 0
1, 111839, Note_on_c, 9, 36, 0
1, 111840, End_track
0, 0, End_of_file
